  0
SECTION
  2
HEADER
  9
$ANGBASE
  50
0.0
  9
$ANGDIR
  70
1
  9
$MEASUREMENT
  70
0
  0
ENDSEC
  0
SECTION
  2
TABLES
  0
TABLE
  2
LTYPE
  70
4
  0
LTYPE
  5
40F
  2
CONTINUOUS
  70
0
  3
Solid line
  72
65
  73
0
  40
0.0
  0
LTYPE
  5
410
  2
DASHDOT
 70
0
  3
Dash Dot ____ _ ____ _
 72
65
 73
4
 40
2.0
 49
1.25
 49
-0.25
 49
0.25
 49
-0.25
  0
LTYPE
  5
411
  2
DASHED
 70
0
  3
Dashed __ __ __ __ __
 72
65
 73
2
 40
0.75
 49
0.5
 49
-0.25
  0
LTYPE
  5
43B
  2
DOTTED
 70
0
  3
Dotted .  .  .  .
 72
65
 73
2
 40
0.2
 49
0.0
 49
-0.2
  0
ENDTAB
  0
TABLE
  2
STYLE
  70
4
  0
STYLE
  2
KICAD
  70
0
  40
0
  41
1
  42
1
  50
0
  71
0
  3
isocp.shx
  0
STYLE
  2
KICADB
  70
0
  40
0
  41
1
  42
1
  50
0
  71
0
  3
isocp.shx
  0
STYLE
  2
KICADI
  70
0
  40
0
  41
1
  42
1
  50
15
  71
0
  3
isocp.shx
  0
STYLE
  2
KICADBI
  70
0
  40
0
  41
1
  42
1
  50
15
  71
0
  3
isocp.shx
  0
ENDTAB
  0
TABLE
  2
LAYER
  70
1
  0
LAYER
  2
BLACK
  70
0
  62
7
  6
CONTINUOUS
  0
ENDTAB
  0
ENDSEC
  0
SECTION
  2
ENTITIES
0
LINE
8
BLACK
6
CONTINUOUS
10
3.5236220472440944
20
-2.5393700787401574
11
3.484251968503937
21
-2.5393700787401574
0
LINE
8
BLACK
6
CONTINUOUS
10
3.484251968503937
20
-2.5393700787401574
11
3.484251968503937
21
-2.4311023622047245
0
LINE
8
BLACK
6
CONTINUOUS
10
3.484251968503937
20
-2.4311023622047245
11
3.5236220472440944
21
-2.4311023622047245
0
LINE
8
BLACK
6
CONTINUOUS
10
3.5236220472440944
20
-2.4311023622047245
11
3.5236220472440944
21
-2.5393700787401574
0
LINE
8
BLACK
6
CONTINUOUS
10
3.6023622047244093
20
-2.5393700787401574
11
3.5629921259842519
21
-2.5393700787401574
0
LINE
8
BLACK
6
CONTINUOUS
10
3.5629921259842519
20
-2.5393700787401574
11
3.5629921259842519
21
-2.4311023622047245
0
LINE
8
BLACK
6
CONTINUOUS
10
3.5629921259842519
20
-2.4311023622047245
11
3.6023622047244093
21
-2.4311023622047245
0
LINE
8
BLACK
6
CONTINUOUS
10
3.6023622047244093
20
-2.4311023622047245
11
3.6023622047244093
21
-2.5393700787401574
0
LINE
8
BLACK
6
CONTINUOUS
10
3.5236220472440944
20
-2.2933070866141732
11
3.484251968503937
21
-2.2933070866141732
0
LINE
8
BLACK
6
CONTINUOUS
10
3.484251968503937
20
-2.2933070866141732
11
3.484251968503937
21
-2.1850393700787403
0
LINE
8
BLACK
6
CONTINUOUS
10
3.484251968503937
20
-2.1850393700787403
11
3.5236220472440944
21
-2.1850393700787403
0
LINE
8
BLACK
6
CONTINUOUS
10
3.5236220472440944
20
-2.1850393700787403
11
3.5236220472440944
21
-2.2933070866141732
0
LINE
8
BLACK
6
CONTINUOUS
10
3.6023622047244093
20
-2.2933070866141732
11
3.5629921259842519
21
-2.2933070866141732
0
LINE
8
BLACK
6
CONTINUOUS
10
3.5629921259842519
20
-2.2933070866141732
11
3.5629921259842519
21
-2.1850393700787403
0
LINE
8
BLACK
6
CONTINUOUS
10
3.5629921259842519
20
-2.1850393700787403
11
3.6023622047244093
21
-2.1850393700787403
0
LINE
8
BLACK
6
CONTINUOUS
10
3.6023622047244093
20
-2.1850393700787403
11
3.6023622047244093
21
-2.2933070866141732
0
LINE
8
BLACK
6
CONTINUOUS
10
3.4170214566929134
20
-2.1344818110236221
11
3.4168679921259844
21
-2.1346105905511812
0
LINE
8
BLACK
6
CONTINUOUS
10
3.4168679921259844
20
-2.1346105905511812
11
3.4186687401574805
21
-2.1367566535433071
0
LINE
8
BLACK
6
CONTINUOUS
10
3.4186687401574805
20
-2.1367566535433071
11
3.4209151574803149
21
-2.1418896062992125
0
LINE
8
BLACK
6
CONTINUOUS
10
3.4209151574803149
20
-2.1418896062992125
11
3.4216244094488188
21
-2.147447440944882
0
LINE
8
BLACK
6
CONTINUOUS
10
3.4216244094488188
20
-2.147447440944882
11
3.4207391338582678
21
-2.1529800393700786
0
LINE
8
BLACK
6
CONTINUOUS
10
3.4207391338582678
20
-2.1529800393700786
11
3.4183310236220472
21
-2.1580390551181101
0
LINE
8
BLACK
6
CONTINUOUS
10
3.4183310236220472
20
-2.1580390551181101
11
3.4145951574803148
21
-2.162214724409449
0
LINE
8
BLACK
6
CONTINUOUS
10
3.4145951574803148
20
-2.162214724409449
11
3.3995155511811022
21
-2.1748680314960631
0
LINE
8
BLACK
6
CONTINUOUS
10
3.3995155511811022
20
-2.1748680314960631
11
3.3947545669291337
21
-2.1778220472440943
0
LINE
8
BLACK
6
CONTINUOUS
10
3.3947545669291337
20
-2.1778220472440943
11
3.3893542519685038
21
-2.1793150787401574
0
LINE
8
BLACK
6
CONTINUOUS
10
3.3893542519685038
20
-2.1793150787401574
11
3.3837519685039368
21
-2.1792261811023623
0
LINE
8
BLACK
6
CONTINUOUS
10
3.3837519685039368
20
-2.1792261811023623
11
3.3784017322834643
21
-2.1775625984251969
0
LINE
8
BLACK
6
CONTINUOUS
10
3.3784017322834643
20
-2.1775625984251969
11
3.3737368503937009
21
-2.1744589763779527
0
LINE
8
BLACK
6
CONTINUOUS
10
3.3737368503937009
20
-2.1744589763779527
11
3.3719361023622048
21
-2.1723129527559055
0
LINE
8
BLACK
6
CONTINUOUS
10
3.3719361023622048
20
-2.1723129527559055
11
3.3717826377952753
21
-2.1724417322834646
0
LINE
8
BLACK
6
CONTINUOUS
10
3.3717826377952753
20
-2.1724417322834646
11
3.3591293307086612
21
-2.1573620866141732
0
LINE
8
BLACK
6
CONTINUOUS
10
3.3591293307086612
20
-2.1573620866141732
11
3.4043681889763779
21
-2.1194022047244094
0
LINE
8
BLACK
6
CONTINUOUS
10
3.4043681889763779
20
-2.1194022047244094
11
3.4170214566929134
21
-2.1344818110236221
0
LINE
8
BLACK
6
CONTINUOUS
10
3.3721535433070864
20
-2.0884903543307085
11
3.3775037795275589
21
-2.0901539370078739
0
LINE
8
BLACK
6
CONTINUOUS
10
3.3775037795275589
20
-2.0901539370078739
11
3.3821686614173228
21
-2.0932575590551181
0
LINE
8
BLACK
6
CONTINUOUS
10
3.3821686614173228
20
-2.0932575590551181
11
3.3839694094488189
21
-2.0954035826771653
0
LINE
8
BLACK
6
CONTINUOUS
10
3.3839694094488189
20
-2.0954035826771653
11
3.3841228740157479
21
-2.0952748031496062
0
LINE
8
BLACK
6
CONTINUOUS
10
3.3841228740157479
20
-2.0952748031496062
11
3.396776181102362
21
-2.1103544488188977
0
LINE
8
BLACK
6
CONTINUOUS
10
3.396776181102362
20
-2.1103544488188977
11
3.3515373228346457
21
-2.1483143307086614
0
LINE
8
BLACK
6
CONTINUOUS
10
3.3515373228346457
20
-2.1483143307086614
11
3.3388840551181103
21
-2.1332347244094487
0
LINE
8
BLACK
6
CONTINUOUS
10
3.3388840551181103
20
-2.1332347244094487
11
3.3390375196850393
21
-2.1331059448818896
0
LINE
8
BLACK
6
CONTINUOUS
10
3.3390375196850393
20
-2.1331059448818896
11
3.3372367716535432
21
-2.1309598818897637
0
LINE
8
BLACK
6
CONTINUOUS
10
3.3372367716535432
20
-2.1309598818897637
11
3.3349903543307087
21
-2.1258269291338583
0
LINE
8
BLACK
6
CONTINUOUS
10
3.3349903543307087
20
-2.1258269291338583
11
3.3342811023622048
21
-2.1202690944881888
0
LINE
8
BLACK
6
CONTINUOUS
10
3.3342811023622048
20
-2.1202690944881888
11
3.3351663779527558
21
-2.1147364960629922
0
LINE
8
BLACK
6
CONTINUOUS
10
3.3351663779527558
20
-2.1147364960629922
11
3.3375744881889764
21
-2.1096774803149607
0
LINE
8
BLACK
6
CONTINUOUS
10
3.3375744881889764
20
-2.1096774803149607
11
3.3413103543307088
21
-2.1055018110236219
0
LINE
8
BLACK
6
CONTINUOUS
10
3.3413103543307088
20
-2.1055018110236219
11
3.356389960629921
21
-2.0928485039370077
0
LINE
8
BLACK
6
CONTINUOUS
10
3.356389960629921
20
-2.0928485039370077
11
3.3611509448818895
21
-2.0898944881889765
0
LINE
8
BLACK
6
CONTINUOUS
10
3.3611509448818895
20
-2.0898944881889765
11
3.3665512598425198
21
-2.0884014566929134
0
LINE
8
BLACK
6
CONTINUOUS
10
3.3665512598425198
20
-2.0884014566929134
11
3.3721535433070864
21
-2.0884903543307085
  0
ENDSEC
  0
EOF
