  0
SECTION
  2
HEADER
  9
$ANGBASE
  50
0.0
  9
$ANGDIR
  70
1
  9
$MEASUREMENT
  70
0
  0
ENDSEC
  0
SECTION
  2
TABLES
  0
TABLE
  2
LTYPE
  70
4
  0
LTYPE
  5
40F
  2
CONTINUOUS
  70
0
  3
Solid line
  72
65
  73
0
  40
0.0
  0
LTYPE
  5
410
  2
DASHDOT
 70
0
  3
Dash Dot ____ _ ____ _
 72
65
 73
4
 40
2.0
 49
1.25
 49
-0.25
 49
0.25
 49
-0.25
  0
LTYPE
  5
411
  2
DASHED
 70
0
  3
Dashed __ __ __ __ __
 72
65
 73
2
 40
0.75
 49
0.5
 49
-0.25
  0
LTYPE
  5
43B
  2
DOTTED
 70
0
  3
Dotted .  .  .  .
 72
65
 73
2
 40
0.2
 49
0.0
 49
-0.2
  0
ENDTAB
  0
TABLE
  2
STYLE
  70
4
  0
STYLE
  2
KICAD
  70
0
  40
0
  41
1
  42
1
  50
0
  71
0
  3
isocp.shx
  0
STYLE
  2
KICADB
  70
0
  40
0
  41
1
  42
1
  50
0
  71
0
  3
isocp.shx
  0
STYLE
  2
KICADI
  70
0
  40
0
  41
1
  42
1
  50
15
  71
0
  3
isocp.shx
  0
STYLE
  2
KICADBI
  70
0
  40
0
  41
1
  42
1
  50
15
  71
0
  3
isocp.shx
  0
ENDTAB
  0
TABLE
  2
LAYER
  70
1
  0
LAYER
  2
BLACK
  70
0
  62
7
  6
CONTINUOUS
  0
ENDTAB
  0
ENDSEC
  0
SECTION
  2
ENTITIES
0
LINE
8
BLACK
6
CONTINUOUS
10
3.6417322834645667
20
-2.1643700787401574
11
3.6424282677165354
21
-2.1646583464566929
0
LINE
8
BLACK
6
CONTINUOUS
10
3.6424282677165354
20
-2.1646583464566929
11
3.6427165354330708
21
-2.1653543307086616
0
LINE
8
BLACK
6
CONTINUOUS
10
3.6427165354330708
20
-2.1653543307086616
11
3.6427165354330708
21
-2.5590551181102361
0
LINE
8
BLACK
6
CONTINUOUS
10
3.6427165354330708
20
-2.5590551181102361
11
3.6424282677165354
21
-2.5597511023622048
0
LINE
8
BLACK
6
CONTINUOUS
10
3.6424282677165354
20
-2.5597511023622048
11
3.6417322834645667
21
-2.5600393700787403
0
LINE
8
BLACK
6
CONTINUOUS
10
3.6417322834645667
20
-2.5600393700787403
11
3.4448818897637796
21
-2.5600393700787403
0
LINE
8
BLACK
6
CONTINUOUS
10
3.4448818897637796
20
-2.5600393700787403
11
3.4441859055118109
21
-2.5597511023622048
0
LINE
8
BLACK
6
CONTINUOUS
10
3.4441859055118109
20
-2.5597511023622048
11
3.4438976377952755
21
-2.5590551181102361
0
LINE
8
BLACK
6
CONTINUOUS
10
3.4438976377952755
20
-2.5590551181102361
11
3.4438976377952755
21
-2.1653543307086616
0
LINE
8
BLACK
6
CONTINUOUS
10
3.4438976377952755
20
-2.1653543307086616
11
3.4441859055118109
21
-2.1646583464566929
0
LINE
8
BLACK
6
CONTINUOUS
10
3.4441859055118109
20
-2.1646583464566929
11
3.4448818897637796
21
-2.1643700787401574
0
LINE
8
BLACK
6
CONTINUOUS
10
3.4448818897637796
20
-2.1643700787401574
11
3.6417322834645667
21
-2.1643700787401574
0
LINE
8
BLACK
6
CONTINUOUS
10
3.4458661417322833
20
-2.1663385826771653
11
3.4458661417322833
21
-2.5580708661417324
0
LINE
8
BLACK
6
CONTINUOUS
10
3.4458661417322833
20
-2.5580708661417324
11
3.640748031496063
21
-2.5580708661417324
0
LINE
8
BLACK
6
CONTINUOUS
10
3.640748031496063
20
-2.5580708661417324
11
3.640748031496063
21
-2.1663385826771653
0
LINE
8
BLACK
6
CONTINUOUS
10
3.640748031496063
20
-2.1663385826771653
11
3.4458661417322833
21
-2.1663385826771653
0
LINE
8
BLACK
6
CONTINUOUS
10
3.3746498818897637
20
-2.0518296062992127
11
3.4581616535433071
21
-2.1513550787401576
0
LINE
8
BLACK
6
CONTINUOUS
10
3.4581616535433071
20
-2.1513550787401576
11
3.4583881889763779
21
-2.1520735433070866
0
LINE
8
BLACK
6
CONTINUOUS
10
3.4583881889763779
20
-2.1520735433070866
11
3.4580403543307088
21
-2.1527417322834643
0
LINE
8
BLACK
6
CONTINUOUS
10
3.4580403543307088
20
-2.1527417322834643
11
3.3826422834645666
21
-2.2160082283464568
0
LINE
8
BLACK
6
CONTINUOUS
10
3.3826422834645666
20
-2.2160082283464568
11
3.3819238188976377
21
-2.2162347637795277
0
LINE
8
BLACK
6
CONTINUOUS
10
3.3819238188976377
20
-2.2162347637795277
11
3.3812556299212599
21
-2.2158869291338581
0
LINE
8
BLACK
6
CONTINUOUS
10
3.3812556299212599
20
-2.2158869291338581
11
3.2977438582677165
21
-2.1163614566929132
0
LINE
8
BLACK
6
CONTINUOUS
10
3.2977438582677165
20
-2.1163614566929132
11
3.2975173228346457
21
-2.1156429921259843
0
LINE
8
BLACK
6
CONTINUOUS
10
3.2975173228346457
20
-2.1156429921259843
11
3.2978651574803148
21
-2.1149748031496061
0
LINE
8
BLACK
6
CONTINUOUS
10
3.2978651574803148
20
-2.1149748031496061
11
3.3732632283464565
21
-2.051708307086614
0
LINE
8
BLACK
6
CONTINUOUS
10
3.3732632283464565
20
-2.051708307086614
11
3.3739816929133859
21
-2.0514817716535432
0
LINE
8
BLACK
6
CONTINUOUS
10
3.3739816929133859
20
-2.0514817716535432
11
3.3746498818897637
21
-2.0518296062992127
0
LINE
8
BLACK
6
CONTINUOUS
10
3.2998844488188976
20
-2.1158500787401575
11
3.3821309055118109
21
-2.213867598425197
0
LINE
8
BLACK
6
CONTINUOUS
10
3.3821309055118109
20
-2.213867598425197
11
3.4560210236220472
21
-2.1518664173228346
0
LINE
8
BLACK
6
CONTINUOUS
10
3.4560210236220472
20
-2.1518664173228346
11
3.3737745669291339
21
-2.0538488976377951
0
LINE
8
BLACK
6
CONTINUOUS
10
3.3737745669291339
20
-2.0538488976377951
11
3.2998844488188976
21
-2.1158500787401575
  0
ENDSEC
  0
EOF
