  0
SECTION
  2
HEADER
  9
$ANGBASE
  50
0.0
  9
$ANGDIR
  70
1
  9
$MEASUREMENT
  70
0
  0
ENDSEC
  0
SECTION
  2
TABLES
  0
TABLE
  2
LTYPE
  70
4
  0
LTYPE
  5
40F
  2
CONTINUOUS
  70
0
  3
Solid line
  72
65
  73
0
  40
0.0
  0
LTYPE
  5
410
  2
DASHDOT
 70
0
  3
Dash Dot ____ _ ____ _
 72
65
 73
4
 40
2.0
 49
1.25
 49
-0.25
 49
0.25
 49
-0.25
  0
LTYPE
  5
411
  2
DASHED
 70
0
  3
Dashed __ __ __ __ __
 72
65
 73
2
 40
0.75
 49
0.5
 49
-0.25
  0
LTYPE
  5
43B
  2
DOTTED
 70
0
  3
Dotted .  .  .  .
 72
65
 73
2
 40
0.2
 49
0.0
 49
-0.2
  0
ENDTAB
  0
TABLE
  2
STYLE
  70
4
  0
STYLE
  2
KICAD
  70
0
  40
0
  41
1
  42
1
  50
0
  71
0
  3
isocp.shx
  0
STYLE
  2
KICADB
  70
0
  40
0
  41
1
  42
1
  50
0
  71
0
  3
isocp.shx
  0
STYLE
  2
KICADI
  70
0
  40
0
  41
1
  42
1
  50
15
  71
0
  3
isocp.shx
  0
STYLE
  2
KICADBI
  70
0
  40
0
  41
1
  42
1
  50
15
  71
0
  3
isocp.shx
  0
ENDTAB
  0
TABLE
  2
LAYER
  70
1
  0
LAYER
  2
BLACK
  70
0
  62
7
  6
CONTINUOUS
  0
ENDTAB
  0
ENDSEC
  0
SECTION
  2
ENTITIES
0
LINE
8
BLACK
6
CONTINUOUS
10
3.5289687401574801
20
-2.3379178740157478
11
3.529138149606299
21
-2.3379069685039369
0
LINE
8
BLACK
6
CONTINUOUS
10
3.529138149606299
20
-2.3379069685039369
11
3.5298287401574804
21
-2.3384144094488191
0
LINE
8
BLACK
6
CONTINUOUS
10
3.5298287401574804
20
-2.3384144094488191
11
3.5305708661417321
21
-2.3388429133858266
0
LINE
8
BLACK
6
CONTINUOUS
10
3.5305708661417321
20
-2.3388429133858266
11
3.5306288976377953
21
-2.339002401574803
0
LINE
8
BLACK
6
CONTINUOUS
10
3.5306288976377953
20
-2.339002401574803
11
3.5307657874015748
21
-2.339102992125984
0
LINE
8
BLACK
6
CONTINUOUS
10
3.5307657874015748
20
-2.339102992125984
11
3.5343531102362205
21
-2.3444840157480313
0
LINE
8
BLACK
6
CONTINUOUS
10
3.5343531102362205
20
-2.3444840157480313
11
3.5375570866141732
21
-2.3476879921259841
0
LINE
8
BLACK
6
CONTINUOUS
10
3.5375570866141732
20
-2.3476879921259841
11
3.5408780314960628
21
-2.3493484645669289
0
LINE
8
BLACK
6
CONTINUOUS
10
3.5408780314960628
20
-2.3493484645669289
11
3.5417016929133855
21
-2.3499593700787402
0
LINE
8
BLACK
6
CONTINUOUS
10
3.5417016929133855
20
-2.3499593700787402
11
3.542504960629921
21
-2.351812559055118
0
LINE
8
BLACK
6
CONTINUOUS
10
3.542504960629921
20
-2.351812559055118
11
3.5419290944881889
21
-2.3537485826771651
0
LINE
8
BLACK
6
CONTINUOUS
10
3.5419290944881889
20
-2.3537485826771651
11
3.5402435433070867
21
-2.3548614173228346
0
LINE
8
BLACK
6
CONTINUOUS
10
3.5402435433070867
20
-2.3548614173228346
11
3.5382370078740157
21
-2.3546305118110236
0
LINE
8
BLACK
6
CONTINUOUS
10
3.5382370078740157
20
-2.3546305118110236
11
3.5344874803149606
21
-2.352755748031496
0
LINE
8
BLACK
6
CONTINUOUS
10
3.5344874803149606
20
-2.352755748031496
11
3.5337783858267717
21
-2.3522298031496063
0
LINE
8
BLACK
6
CONTINUOUS
10
3.5337783858267717
20
-2.3522298031496063
11
3.5337200787401573
21
-2.3522026377952754
0
LINE
8
BLACK
6
CONTINUOUS
10
3.5337200787401573
20
-2.3522026377952754
11
3.5312616929133855
21
-2.3497442519685037
0
LINE
8
BLACK
6
CONTINUOUS
10
3.5312616929133855
20
-2.3497442519685037
11
3.5312616929133855
21
-2.3771582283464565
0
LINE
8
BLACK
6
CONTINUOUS
10
3.5312616929133855
20
-2.3771582283464565
11
3.5395575196850393
21
-2.3771582283464565
0
LINE
8
BLACK
6
CONTINUOUS
10
3.5395575196850393
20
-2.3771582283464565
11
3.5405674409448817
21
-2.3773362992125984
0
LINE
8
BLACK
6
CONTINUOUS
10
3.5405674409448817
20
-2.3773362992125984
11
3.5421146850393699
21
-2.3786346062992125
0
LINE
8
BLACK
6
CONTINUOUS
10
3.5421146850393699
20
-2.3786346062992125
11
3.5424654330708663
21
-2.3806237401574801
0
LINE
8
BLACK
6
CONTINUOUS
10
3.5424654330708663
20
-2.3806237401574801
11
3.5414555118110234
21
-2.3823729133858267
0
LINE
8
BLACK
6
CONTINUOUS
10
3.5414555118110234
20
-2.3823729133858267
11
3.5395575196850393
21
-2.3830637401574801
0
LINE
8
BLACK
6
CONTINUOUS
10
3.5395575196850393
20
-2.3830637401574801
11
3.5170603543307086
21
-2.3830637401574801
0
LINE
8
BLACK
6
CONTINUOUS
10
3.5170603543307086
20
-2.3830637401574801
11
3.5160504330708662
21
-2.3828856692913387
0
LINE
8
BLACK
6
CONTINUOUS
10
3.5160504330708662
20
-2.3828856692913387
11
3.514503188976378
21
-2.3815873622047246
0
LINE
8
BLACK
6
CONTINUOUS
10
3.514503188976378
20
-2.3815873622047246
11
3.5141524409448817
21
-2.3795982283464565
0
LINE
8
BLACK
6
CONTINUOUS
10
3.5141524409448817
20
-2.3795982283464565
11
3.5151623622047241
21
-2.3778490551181104
0
LINE
8
BLACK
6
CONTINUOUS
10
3.5151623622047241
20
-2.3778490551181104
11
3.5170603543307086
21
-2.3771582283464565
0
LINE
8
BLACK
6
CONTINUOUS
10
3.5170603543307086
20
-2.3771582283464565
11
3.5253561811023619
21
-2.3771582283464565
0
LINE
8
BLACK
6
CONTINUOUS
10
3.5253561811023619
20
-2.3771582283464565
11
3.5253561811023619
21
-2.3407409055118111
0
LINE
8
BLACK
6
CONTINUOUS
10
3.5253561811023619
20
-2.3407409055118111
11
3.5255342519685038
21
-2.3397309842519682
0
LINE
8
BLACK
6
CONTINUOUS
10
3.5255342519685038
20
-2.3397309842519682
11
3.5256433464566928
21
-2.3396009055118108
0
LINE
8
BLACK
6
CONTINUOUS
10
3.5256433464566928
20
-2.3396009055118108
11
3.5256620472440945
21
-2.3394321653543306
0
LINE
8
BLACK
6
CONTINUOUS
10
3.5256620472440945
20
-2.3394321653543306
11
3.526281653543307
21
-2.3388402362204723
0
LINE
8
BLACK
6
CONTINUOUS
10
3.526281653543307
20
-2.3388402362204723
11
3.5268325590551179
21
-2.3381837401574801
0
LINE
8
BLACK
6
CONTINUOUS
10
3.5268325590551179
20
-2.3381837401574801
11
3.5269997637795276
21
-2.3381542519685037
0
LINE
8
BLACK
6
CONTINUOUS
10
3.5269997637795276
20
-2.3381542519685037
11
3.5271225590551181
21
-2.3380369685039368
0
LINE
8
BLACK
6
CONTINUOUS
10
3.5271225590551181
20
-2.3380369685039368
11
3.5279776771653544
21
-2.3379818110236221
0
LINE
8
BLACK
6
CONTINUOUS
10
3.5279776771653544
20
-2.3379818110236221
11
3.5288216929133855
21
-2.3378329921259842
0
LINE
8
BLACK
6
CONTINUOUS
10
3.5288216929133855
20
-2.3378329921259842
11
3.5289687401574801
21
-2.3379178740157478
0
LINE
8
BLACK
6
CONTINUOUS
10
3.5586923622047242
20
-2.3388429133858266
11
3.5593831889763781
21
-2.3407409055118111
0
LINE
8
BLACK
6
CONTINUOUS
10
3.5593831889763781
20
-2.3407409055118111
11
3.5593831889763781
21
-2.3683831889763778
0
LINE
8
BLACK
6
CONTINUOUS
10
3.5593831889763781
20
-2.3683831889763778
11
3.5608859842519682
21
-2.3728916141732284
0
LINE
8
BLACK
6
CONTINUOUS
10
3.5608859842519682
20
-2.3728916141732284
11
3.5636497637795275
21
-2.3756554330708659
0
LINE
8
BLACK
6
CONTINUOUS
10
3.5636497637795275
20
-2.3756554330708659
11
3.5681581496062993
21
-2.3771582283464565
0
LINE
8
BLACK
6
CONTINUOUS
10
3.5681581496062993
20
-2.3771582283464565
11
3.5714285433070865
21
-2.3771582283464565
0
LINE
8
BLACK
6
CONTINUOUS
10
3.5714285433070865
20
-2.3771582283464565
11
3.5724384645669289
21
-2.3773362992125984
0
LINE
8
BLACK
6
CONTINUOUS
10
3.5724384645669289
20
-2.3773362992125984
11
3.5739857086614171
21
-2.3786346062992125
0
LINE
8
BLACK
6
CONTINUOUS
10
3.5739857086614171
20
-2.3786346062992125
11
3.5743364566929134
21
-2.3806237401574801
0
LINE
8
BLACK
6
CONTINUOUS
10
3.5743364566929134
20
-2.3806237401574801
11
3.573326535433071
21
-2.3823729133858267
0
LINE
8
BLACK
6
CONTINUOUS
10
3.573326535433071
20
-2.3823729133858267
11
3.5714285433070865
21
-2.3830637401574801
0
LINE
8
BLACK
6
CONTINUOUS
10
3.5714285433070865
20
-2.3830637401574801
11
3.5676790157480314
21
-2.3830637401574801
0
LINE
8
BLACK
6
CONTINUOUS
10
3.5676790157480314
20
-2.3830637401574801
11
3.5668096062992127
21
-2.3829104330708661
0
LINE
8
BLACK
6
CONTINUOUS
10
3.5668096062992127
20
-2.3829104330708661
11
3.5667452362204726
21
-2.3829122047244096
0
LINE
8
BLACK
6
CONTINUOUS
10
3.5667452362204726
20
-2.3829122047244096
11
3.5611209842519682
21
-2.381037440944882
0
LINE
8
BLACK
6
CONTINUOUS
10
3.5611209842519682
20
-2.381037440944882
11
3.5602192125984251
21
-2.3805491338582678
0
LINE
8
BLACK
6
CONTINUOUS
10
3.5602192125984251
20
-2.3805491338582678
11
3.5601268110236219
21
-2.3803987401574802
0
LINE
8
BLACK
6
CONTINUOUS
10
3.5601268110236219
20
-2.3803987401574802
11
3.5599668110236218
21
-2.3803241338582675
0
LINE
8
BLACK
6
CONTINUOUS
10
3.5599668110236218
20
-2.3803241338582675
11
3.5562172834645667
21
-2.3765745669291336
0
LINE
8
BLACK
6
CONTINUOUS
10
3.5562172834645667
20
-2.3765745669291336
11
3.5556290551181102
21
-2.3757345275590551
0
LINE
8
BLACK
6
CONTINUOUS
10
3.5556290551181102
20
-2.3757345275590551
11
3.5556136614173228
21
-2.3755585826771655
0
LINE
8
BLACK
6
CONTINUOUS
10
3.5556136614173228
20
-2.3755585826771655
11
3.5555039763779526
21
-2.3754203937007872
0
LINE
8
BLACK
6
CONTINUOUS
10
3.5555039763779526
20
-2.3754203937007872
11
3.553629212598425
21
-2.3697961023622045
0
LINE
8
BLACK
6
CONTINUOUS
10
3.553629212598425
20
-2.3697961023622045
11
3.5534997244094488
21
-2.3689229133858265
0
LINE
8
BLACK
6
CONTINUOUS
10
3.5534997244094488
20
-2.3689229133858265
11
3.5534776771653545
21
-2.3688623622047245
0
LINE
8
BLACK
6
CONTINUOUS
10
3.5534776771653545
20
-2.3688623622047245
11
3.5534776771653545
21
-2.3407409055118111
0
LINE
8
BLACK
6
CONTINUOUS
10
3.5534776771653545
20
-2.3407409055118111
11
3.5536557480314959
21
-2.3397309842519682
0
LINE
8
BLACK
6
CONTINUOUS
10
3.5536557480314959
20
-2.3397309842519682
11
3.55495405511811
21
-2.3381837401574801
0
LINE
8
BLACK
6
CONTINUOUS
10
3.55495405511811
20
-2.3381837401574801
11
3.5569431889763781
21
-2.3378329921259842
0
LINE
8
BLACK
6
CONTINUOUS
10
3.5569431889763781
20
-2.3378329921259842
11
3.5586923622047242
21
-2.3388429133858266
0
LINE
8
BLACK
6
CONTINUOUS
10
3.5137795275590551
20
-2.2421259842519685
11
3.5151714566929133
21
-2.2427025590551182
0
LINE
8
BLACK
6
CONTINUOUS
10
3.5151714566929133
20
-2.2427025590551182
11
3.515748031496063
21
-2.2440944881889764
0
LINE
8
BLACK
6
CONTINUOUS
10
3.515748031496063
20
-2.2440944881889764
11
3.515748031496063
21
-2.2814960629921259
0
LINE
8
BLACK
6
CONTINUOUS
10
3.515748031496063
20
-2.2814960629921259
11
3.5708661417322833
21
-2.2814960629921259
0
LINE
8
BLACK
6
CONTINUOUS
10
3.5708661417322833
20
-2.2814960629921259
11
3.5708661417322833
21
-2.2440944881889764
0
LINE
8
BLACK
6
CONTINUOUS
10
3.5708661417322833
20
-2.2440944881889764
11
3.571442716535433
21
-2.2427025590551182
0
LINE
8
BLACK
6
CONTINUOUS
10
3.571442716535433
20
-2.2427025590551182
11
3.5728346456692912
21
-2.2421259842519685
0
LINE
8
BLACK
6
CONTINUOUS
10
3.5728346456692912
20
-2.2421259842519685
11
3.5925196850393699
21
-2.2421259842519685
0
LINE
8
BLACK
6
CONTINUOUS
10
3.5925196850393699
20
-2.2421259842519685
11
3.5939116141732281
21
-2.2427025590551182
0
LINE
8
BLACK
6
CONTINUOUS
10
3.5939116141732281
20
-2.2427025590551182
11
3.5944881889763778
21
-2.2440944881889764
0
LINE
8
BLACK
6
CONTINUOUS
10
3.5944881889763778
20
-2.2440944881889764
11
3.5944881889763778
21
-2.2834645669291338
0
LINE
8
BLACK
6
CONTINUOUS
10
3.5944881889763778
20
-2.2834645669291338
11
3.5939116141732281
21
-2.284856496062992
0
LINE
8
BLACK
6
CONTINUOUS
10
3.5939116141732281
20
-2.284856496062992
11
3.5925196850393699
21
-2.2854330708661417
0
LINE
8
BLACK
6
CONTINUOUS
10
3.5925196850393699
20
-2.2854330708661417
11
3.5911277559055117
21
-2.284856496062992
0
LINE
8
BLACK
6
CONTINUOUS
10
3.5911277559055117
20
-2.284856496062992
11
3.590551181102362
21
-2.2834645669291338
0
LINE
8
BLACK
6
CONTINUOUS
10
3.590551181102362
20
-2.2834645669291338
11
3.590551181102362
21
-2.2460629921259843
0
LINE
8
BLACK
6
CONTINUOUS
10
3.590551181102362
20
-2.2460629921259843
11
3.5748031496062991
21
-2.2460629921259843
0
LINE
8
BLACK
6
CONTINUOUS
10
3.5748031496062991
20
-2.2460629921259843
11
3.5748031496062991
21
-2.2814960629921259
0
LINE
8
BLACK
6
CONTINUOUS
10
3.5748031496062991
20
-2.2814960629921259
11
3.5826771653543306
21
-2.2814960629921259
0
LINE
8
BLACK
6
CONTINUOUS
10
3.5826771653543306
20
-2.2814960629921259
11
3.5840690944881888
21
-2.2820726377952756
0
LINE
8
BLACK
6
CONTINUOUS
10
3.5840690944881888
20
-2.2820726377952756
11
3.6234392125984249
21
-2.321442716535433
0
LINE
8
BLACK
6
CONTINUOUS
10
3.6234392125984249
20
-2.321442716535433
11
3.6239161811023619
21
-2.3225942913385826
0
LINE
8
BLACK
6
CONTINUOUS
10
3.6239161811023619
20
-2.3225942913385826
11
3.6240157480314958
21
-2.3228346456692912
0
LINE
8
BLACK
6
CONTINUOUS
10
3.6240157480314958
20
-2.3228346456692912
11
3.6240157480314958
21
-2.4409448818897639
0
LINE
8
BLACK
6
CONTINUOUS
10
3.6240157480314958
20
-2.4409448818897639
11
3.6234391732283462
21
-2.4423368110236221
0
LINE
8
BLACK
6
CONTINUOUS
10
3.6234391732283462
20
-2.4423368110236221
11
3.622047244094488
21
-2.4429133858267718
0
LINE
8
BLACK
6
CONTINUOUS
10
3.622047244094488
20
-2.4429133858267718
11
3.5944881889763778
21
-2.4429133858267718
0
LINE
8
BLACK
6
CONTINUOUS
10
3.5944881889763778
20
-2.4429133858267718
11
3.5944881889763778
21
-2.4803149606299213
0
LINE
8
BLACK
6
CONTINUOUS
10
3.5944881889763778
20
-2.4803149606299213
11
3.5939116141732281
21
-2.4817068897637795
0
LINE
8
BLACK
6
CONTINUOUS
10
3.5939116141732281
20
-2.4817068897637795
11
3.5925196850393699
21
-2.4822834645669292
0
LINE
8
BLACK
6
CONTINUOUS
10
3.5925196850393699
20
-2.4822834645669292
11
3.5728346456692912
21
-2.4822834645669292
0
LINE
8
BLACK
6
CONTINUOUS
10
3.5728346456692912
20
-2.4822834645669292
11
3.571442716535433
21
-2.4817068897637795
0
LINE
8
BLACK
6
CONTINUOUS
10
3.571442716535433
20
-2.4817068897637795
11
3.5708661417322833
21
-2.4803149606299213
0
LINE
8
BLACK
6
CONTINUOUS
10
3.5708661417322833
20
-2.4803149606299213
11
3.5708661417322833
21
-2.4429133858267718
0
LINE
8
BLACK
6
CONTINUOUS
10
3.5708661417322833
20
-2.4429133858267718
11
3.515748031496063
21
-2.4429133858267718
0
LINE
8
BLACK
6
CONTINUOUS
10
3.515748031496063
20
-2.4429133858267718
11
3.515748031496063
21
-2.4803149606299213
0
LINE
8
BLACK
6
CONTINUOUS
10
3.515748031496063
20
-2.4803149606299213
11
3.5151714566929133
21
-2.4817068897637795
0
LINE
8
BLACK
6
CONTINUOUS
10
3.5151714566929133
20
-2.4817068897637795
11
3.5137795275590551
21
-2.4822834645669292
0
LINE
8
BLACK
6
CONTINUOUS
10
3.5137795275590551
20
-2.4822834645669292
11
3.4940944881889764
21
-2.4822834645669292
0
LINE
8
BLACK
6
CONTINUOUS
10
3.4940944881889764
20
-2.4822834645669292
11
3.4927025590551182
21
-2.4817068897637795
0
LINE
8
BLACK
6
CONTINUOUS
10
3.4927025590551182
20
-2.4817068897637795
11
3.4921259842519685
21
-2.4803149606299213
0
LINE
8
BLACK
6
CONTINUOUS
10
3.4921259842519685
20
-2.4803149606299213
11
3.4921259842519685
21
-2.4429133858267718
0
LINE
8
BLACK
6
CONTINUOUS
10
3.4921259842519685
20
-2.4429133858267718
11
3.4645669291338583
21
-2.4429133858267718
0
LINE
8
BLACK
6
CONTINUOUS
10
3.4645669291338583
20
-2.4429133858267718
11
3.4631750000000001
21
-2.4423368110236221
0
LINE
8
BLACK
6
CONTINUOUS
10
3.4631750000000001
20
-2.4423368110236221
11
3.4625984251968505
21
-2.4409448818897639
0
LINE
8
BLACK
6
CONTINUOUS
10
3.4625984251968505
20
-2.4409448818897639
11
3.4625984251968505
21
-2.2834645669291338
0
LINE
8
BLACK
6
CONTINUOUS
10
3.4625984251968505
20
-2.2834645669291338
11
3.4631750000000001
21
-2.2820726377952756
0
LINE
8
BLACK
6
CONTINUOUS
10
3.4631750000000001
20
-2.2820726377952756
11
3.4645669291338583
21
-2.2814960629921259
0
LINE
8
BLACK
6
CONTINUOUS
10
3.4645669291338583
20
-2.2814960629921259
11
3.4921259842519685
21
-2.2814960629921259
0
LINE
8
BLACK
6
CONTINUOUS
10
3.4921259842519685
20
-2.2814960629921259
11
3.4921259842519685
21
-2.2440944881889764
0
LINE
8
BLACK
6
CONTINUOUS
10
3.4921259842519685
20
-2.2440944881889764
11
3.4927025590551182
21
-2.2427025590551182
0
LINE
8
BLACK
6
CONTINUOUS
10
3.4927025590551182
20
-2.2427025590551182
11
3.4940944881889764
21
-2.2421259842519685
0
LINE
8
BLACK
6
CONTINUOUS
10
3.4940944881889764
20
-2.2421259842519685
11
3.5137795275590551
21
-2.2421259842519685
0
LINE
8
BLACK
6
CONTINUOUS
10
3.5748031496062991
20
-2.4429133858267718
11
3.5748031496062991
21
-2.4783464566929134
0
LINE
8
BLACK
6
CONTINUOUS
10
3.5748031496062991
20
-2.4783464566929134
11
3.590551181102362
21
-2.4783464566929134
0
LINE
8
BLACK
6
CONTINUOUS
10
3.590551181102362
20
-2.4783464566929134
11
3.590551181102362
21
-2.4429133858267718
0
LINE
8
BLACK
6
CONTINUOUS
10
3.590551181102362
20
-2.4429133858267718
11
3.5748031496062991
21
-2.4429133858267718
0
LINE
8
BLACK
6
CONTINUOUS
10
3.4960629921259843
20
-2.4429133858267718
11
3.4960629921259843
21
-2.4783464566929134
0
LINE
8
BLACK
6
CONTINUOUS
10
3.4960629921259843
20
-2.4783464566929134
11
3.5118110236220472
21
-2.4783464566929134
0
LINE
8
BLACK
6
CONTINUOUS
10
3.5118110236220472
20
-2.4783464566929134
11
3.5118110236220472
21
-2.4429133858267718
0
LINE
8
BLACK
6
CONTINUOUS
10
3.5118110236220472
20
-2.4429133858267718
11
3.4960629921259843
21
-2.4429133858267718
0
LINE
8
BLACK
6
CONTINUOUS
10
3.5728346456692912
20
-2.2854330708661417
11
3.5137795275590551
21
-2.2854330708661417
0
LINE
8
BLACK
6
CONTINUOUS
10
3.5137795275590551
20
-2.2854330708661417
11
3.4940944881889764
21
-2.2854330708661417
0
LINE
8
BLACK
6
CONTINUOUS
10
3.4940944881889764
20
-2.2854330708661417
11
3.4665354330708662
21
-2.2854330708661417
0
LINE
8
BLACK
6
CONTINUOUS
10
3.4665354330708662
20
-2.2854330708661417
11
3.4665354330708662
21
-2.438976377952756
0
LINE
8
BLACK
6
CONTINUOUS
10
3.4665354330708662
20
-2.438976377952756
11
3.6200787401574801
21
-2.438976377952756
0
LINE
8
BLACK
6
CONTINUOUS
10
3.6200787401574801
20
-2.438976377952756
11
3.6200787401574801
21
-2.3236499999999998
0
LINE
8
BLACK
6
CONTINUOUS
10
3.6200787401574801
20
-2.3236499999999998
11
3.581861811023622
21
-2.2854330708661417
0
LINE
8
BLACK
6
CONTINUOUS
10
3.581861811023622
20
-2.2854330708661417
11
3.5728346456692912
21
-2.2854330708661417
0
LINE
8
BLACK
6
CONTINUOUS
10
3.4960629921259843
20
-2.2460629921259843
11
3.4960629921259843
21
-2.2814960629921259
0
LINE
8
BLACK
6
CONTINUOUS
10
3.4960629921259843
20
-2.2814960629921259
11
3.5118110236220472
21
-2.2814960629921259
0
LINE
8
BLACK
6
CONTINUOUS
10
3.5118110236220472
20
-2.2814960629921259
11
3.5118110236220472
21
-2.2460629921259843
0
LINE
8
BLACK
6
CONTINUOUS
10
3.5118110236220472
20
-2.2460629921259843
11
3.4960629921259843
21
-2.2460629921259843
0
LINE
8
BLACK
6
CONTINUOUS
10
3.4240477559055118
20
-2.4184194094488189
11
3.4241823228346457
21
-2.4184076771653542
0
LINE
8
BLACK
6
CONTINUOUS
10
3.4241823228346457
20
-2.4184076771653542
11
3.4249104724409447
21
-2.4189175196850394
0
LINE
8
BLACK
6
CONTINUOUS
10
3.4249104724409447
20
-2.4189175196850394
11
3.4256799999999998
21
-2.4193618503937007
0
LINE
8
BLACK
6
CONTINUOUS
10
3.4256799999999998
20
-2.4193618503937007
11
3.4257261417322833
21
-2.4194887007874013
0
LINE
8
BLACK
6
CONTINUOUS
10
3.4257261417322833
20
-2.4194887007874013
11
3.4258368503937007
21
-2.4195662204724409
0
LINE
8
BLACK
6
CONTINUOUS
10
3.4258368503937007
20
-2.4195662204724409
11
3.4260668503937008
21
-2.4204247244094486
0
LINE
8
BLACK
6
CONTINUOUS
10
3.4260668503937008
20
-2.4204247244094486
11
3.4263708267716533
21
-2.4212598425196852
0
LINE
8
BLACK
6
CONTINUOUS
10
3.4263708267716533
20
-2.4212598425196852
11
3.4263708267716533
21
-2.4456317716535434
0
LINE
8
BLACK
6
CONTINUOUS
10
3.4263708267716533
20
-2.4456317716535434
11
3.4261927559055119
21
-2.4466416929133858
0
LINE
8
BLACK
6
CONTINUOUS
10
3.4261927559055119
20
-2.4466416929133858
11
3.4248944488188977
21
-2.448188937007874
0
LINE
8
BLACK
6
CONTINUOUS
10
3.4248944488188977
20
-2.448188937007874
11
3.4229053149606297
21
-2.4485396850393699
0
LINE
8
BLACK
6
CONTINUOUS
10
3.4229053149606297
20
-2.4485396850393699
11
3.4211561417322836
21
-2.4475297637795275
0
LINE
8
BLACK
6
CONTINUOUS
10
3.4211561417322836
20
-2.4475297637795275
11
3.4204653149606297
21
-2.4456317716535434
0
LINE
8
BLACK
6
CONTINUOUS
10
3.4204653149606297
20
-2.4456317716535434
11
3.4204653149606297
21
-2.4283883858267714
0
LINE
8
BLACK
6
CONTINUOUS
10
3.4204653149606297
20
-2.4283883858267714
11
3.4030087795275588
21
-2.4458449212598423
0
LINE
8
BLACK
6
CONTINUOUS
10
3.4030087795275588
20
-2.4458449212598423
11
3.4021687401574803
21
-2.4464331102362205
0
LINE
8
BLACK
6
CONTINUOUS
10
3.4021687401574803
20
-2.4464331102362205
11
3.4019928740157481
21
-2.4464484645669291
0
LINE
8
BLACK
6
CONTINUOUS
10
3.4019928740157481
20
-2.4464484645669291
11
3.4018546062992123
21
-2.4465582283464564
0
LINE
8
BLACK
6
CONTINUOUS
10
3.4018546062992123
20
-2.4465582283464564
11
3.3962303149606297
21
-2.448432992125984
0
LINE
8
BLACK
6
CONTINUOUS
10
3.3962303149606297
20
-2.448432992125984
11
3.3953571259842521
21
-2.4485624409448818
0
LINE
8
BLACK
6
CONTINUOUS
10
3.3953571259842521
20
-2.4485624409448818
11
3.3952965748031496
21
-2.448584527559055
0
LINE
8
BLACK
6
CONTINUOUS
10
3.3952965748031496
20
-2.448584527559055
11
3.3915470472440945
21
-2.448584527559055
0
LINE
8
BLACK
6
CONTINUOUS
10
3.3915470472440945
20
-2.448584527559055
11
3.3905371259842521
21
-2.4484064566929131
0
LINE
8
BLACK
6
CONTINUOUS
10
3.3905371259842521
20
-2.4484064566929131
11
3.3904018503937006
21
-2.4482929527559056
0
LINE
8
BLACK
6
CONTINUOUS
10
3.3904018503937006
20
-2.4482929527559056
11
3.390226535433071
21
-2.4482727952755905
0
LINE
8
BLACK
6
CONTINUOUS
10
3.390226535433071
20
-2.4482727952755905
11
3.3864770078740158
21
-2.4463980314960629
0
LINE
8
BLACK
6
CONTINUOUS
10
3.3864770078740158
20
-2.4463980314960629
11
3.3857679133858265
21
-2.445872125984252
0
LINE
8
BLACK
6
CONTINUOUS
10
3.3857679133858265
20
-2.445872125984252
11
3.3857096062992125
21
-2.4458449212598423
0
LINE
8
BLACK
6
CONTINUOUS
10
3.3857096062992125
20
-2.4458449212598423
11
3.3838348425196849
21
-2.4439701574803148
0
LINE
8
BLACK
6
CONTINUOUS
10
3.3838348425196849
20
-2.4439701574803148
11
3.3833285433070865
21
-2.4432470472440944
0
LINE
8
BLACK
6
CONTINUOUS
10
3.3833285433070865
20
-2.4432470472440944
11
3.3832817322834643
21
-2.4432027559055118
0
LINE
8
BLACK
6
CONTINUOUS
10
3.3832817322834643
20
-2.4432027559055118
11
3.3814069685039367
21
-2.4394532283464567
0
LINE
8
BLACK
6
CONTINUOUS
10
3.3814069685039367
20
-2.4394532283464567
11
3.3811146062992123
21
-2.438470275590551
0
LINE
8
BLACK
6
CONTINUOUS
10
3.3811146062992123
20
-2.438470275590551
11
3.381155590551181
21
-2.4382985826771653
0
LINE
8
BLACK
6
CONTINUOUS
10
3.381155590551181
20
-2.4382985826771653
11
3.3810952362204723
21
-2.4381327165354332
0
LINE
8
BLACK
6
CONTINUOUS
10
3.3810952362204723
20
-2.4381327165354332
11
3.3810952362204723
21
-2.4287588976377954
0
LINE
8
BLACK
6
CONTINUOUS
10
3.3810952362204723
20
-2.4287588976377954
11
3.3812733070866141
21
-2.4277489763779525
0
LINE
8
BLACK
6
CONTINUOUS
10
3.3812733070866141
20
-2.4277489763779525
11
3.3813867716535433
21
-2.4276137007874015
0
LINE
8
BLACK
6
CONTINUOUS
10
3.3813867716535433
20
-2.4276137007874015
11
3.3814069685039367
21
-2.4274383858267714
0
LINE
8
BLACK
6
CONTINUOUS
10
3.3814069685039367
20
-2.4274383858267714
11
3.3832817322834643
21
-2.4236888582677163
0
LINE
8
BLACK
6
CONTINUOUS
10
3.3832817322834643
20
-2.4236888582677163
11
3.3838076377952757
21
-2.4229797637795274
0
LINE
8
BLACK
6
CONTINUOUS
10
3.3838076377952757
20
-2.4229797637795274
11
3.3838348425196849
21
-2.4229214566929134
0
LINE
8
BLACK
6
CONTINUOUS
10
3.3838348425196849
20
-2.4229214566929134
11
3.3857096062992125
21
-2.4210466929133858
0
LINE
8
BLACK
6
CONTINUOUS
10
3.3857096062992125
20
-2.4210466929133858
11
3.3865496456692914
21
-2.4204585039370077
0
LINE
8
BLACK
6
CONTINUOUS
10
3.3865496456692914
20
-2.4204585039370077
11
3.3885617322834647
21
-2.4202824803149605
0
LINE
8
BLACK
6
CONTINUOUS
10
3.3885617322834647
20
-2.4202824803149605
11
3.3902162992125984
21
-2.4214409842519684
0
LINE
8
BLACK
6
CONTINUOUS
10
3.3902162992125984
20
-2.4214409842519684
11
3.3907390157480313
21
-2.4233919685039371
0
LINE
8
BLACK
6
CONTINUOUS
10
3.3907390157480313
20
-2.4233919685039371
11
3.3898854330708659
21
-2.4252225196850392
0
LINE
8
BLACK
6
CONTINUOUS
10
3.3898854330708659
20
-2.4252225196850392
11
3.3883494881889762
21
-2.4267584645669289
0
LINE
8
BLACK
6
CONTINUOUS
10
3.3883494881889762
20
-2.4267584645669289
11
3.3870007480314959
21
-2.4294559448818895
0
LINE
8
BLACK
6
CONTINUOUS
10
3.3870007480314959
20
-2.4294559448818895
11
3.3870007480314959
21
-2.4374356692913386
0
LINE
8
BLACK
6
CONTINUOUS
10
3.3870007480314959
20
-2.4374356692913386
11
3.3883494881889762
21
-2.4401331496062992
0
LINE
8
BLACK
6
CONTINUOUS
10
3.3883494881889762
20
-2.4401331496062992
11
3.3895466141732284
21
-2.441330275590551
0
LINE
8
BLACK
6
CONTINUOUS
10
3.3895466141732284
20
-2.441330275590551
11
3.3922440944881891
21
-2.4426790157480314
0
LINE
8
BLACK
6
CONTINUOUS
10
3.3922440944881891
20
-2.4426790157480314
11
3.3948174409448817
21
-2.4426790157480314
0
LINE
8
BLACK
6
CONTINUOUS
10
3.3948174409448817
20
-2.4426790157480314
11
3.3993258267716535
21
-2.441176181102362
0
LINE
8
BLACK
6
CONTINUOUS
10
3.3993258267716535
20
-2.441176181102362
11
3.4213301574803148
21
-2.4191719291338583
0
LINE
8
BLACK
6
CONTINUOUS
10
3.4213301574803148
20
-2.4191719291338583
11
3.4218581889763779
21
-2.4188021259842518
0
LINE
8
BLACK
6
CONTINUOUS
10
3.4218581889763779
20
-2.4188021259842518
11
3.4219416929133857
21
-2.4187026771653541
0
LINE
8
BLACK
6
CONTINUOUS
10
3.4219416929133857
20
-2.4187026771653541
11
3.4220199999999998
21
-2.4186888582677164
0
LINE
8
BLACK
6
CONTINUOUS
10
3.4220199999999998
20
-2.4186888582677164
11
3.4221701968503937
21
-2.4185837007874014
0
LINE
8
BLACK
6
CONTINUOUS
10
3.4221701968503937
20
-2.4185837007874014
11
3.423055748031496
21
-2.418506220472441
0
LINE
8
BLACK
6
CONTINUOUS
10
3.423055748031496
20
-2.418506220472441
11
3.4239308267716533
21
-2.4183519291338582
0
LINE
8
BLACK
6
CONTINUOUS
10
3.4239308267716533
20
-2.4183519291338582
11
3.4240477559055118
21
-2.4184194094488189
0
LINE
8
BLACK
6
CONTINUOUS
10
3.4090002755905511
20
-2.3827888582677166
11
3.4091360629921259
21
-2.3827746850393701
0
LINE
8
BLACK
6
CONTINUOUS
10
3.4091360629921259
20
-2.3827746850393701
11
3.4166351181102361
21
-2.3846494488188976
0
LINE
8
BLACK
6
CONTINUOUS
10
3.4166351181102361
20
-2.3846494488188976
11
3.4171005511811021
21
-2.3848570078740159
0
LINE
8
BLACK
6
CONTINUOUS
10
3.4171005511811021
20
-2.3848570078740159
11
3.4172394881889763
21
-2.3848730314960629
0
LINE
8
BLACK
6
CONTINUOUS
10
3.4172394881889763
20
-2.3848730314960629
11
3.4209890157480314
21
-2.3867477952755904
0
LINE
8
BLACK
6
CONTINUOUS
10
3.4209890157480314
20
-2.3867477952755904
11
3.421697992125984
21
-2.3872736220472439
0
LINE
8
BLACK
6
CONTINUOUS
10
3.421697992125984
20
-2.3872736220472439
11
3.421756377952756
21
-2.3873008661417323
0
LINE
8
BLACK
6
CONTINUOUS
10
3.421756377952756
20
-2.3873008661417323
11
3.4236311811023623
21
-2.3891756299212599
0
LINE
8
BLACK
6
CONTINUOUS
10
3.4236311811023623
20
-2.3891756299212599
11
3.4241375590551182
21
-2.389898779527559
0
LINE
8
BLACK
6
CONTINUOUS
10
3.4241375590551182
20
-2.389898779527559
11
3.4241843307086612
21
-2.3899430708661416
0
LINE
8
BLACK
6
CONTINUOUS
10
3.4241843307086612
20
-2.3899430708661416
11
3.4260590944881888
21
-2.3936925984251967
0
LINE
8
BLACK
6
CONTINUOUS
10
3.4260590944881888
20
-2.3936925984251967
11
3.4263514566929132
21
-2.3946755118110237
0
LINE
8
BLACK
6
CONTINUOUS
10
3.4263514566929132
20
-2.3946755118110237
11
3.4263104330708662
21
-2.3948472047244094
0
LINE
8
BLACK
6
CONTINUOUS
10
3.4263104330708662
20
-2.3948472047244094
11
3.4263708267716533
21
-2.3950131102362202
0
LINE
8
BLACK
6
CONTINUOUS
10
3.4263708267716533
20
-2.3950131102362202
11
3.4263708267716533
21
-2.3987626377952753
0
LINE
8
BLACK
6
CONTINUOUS
10
3.4263708267716533
20
-2.3987626377952753
11
3.4261927559055119
21
-2.3997725590551182
0
LINE
8
BLACK
6
CONTINUOUS
10
3.4261927559055119
20
-2.3997725590551182
11
3.4260792519685039
21
-2.3999077952755905
0
LINE
8
BLACK
6
CONTINUOUS
10
3.4260792519685039
20
-2.3999077952755905
11
3.4260590944881888
21
-2.4000831496062993
0
LINE
8
BLACK
6
CONTINUOUS
10
3.4260590944881888
20
-2.4000831496062993
11
3.4241843307086612
21
-2.4038326771653544
0
LINE
8
BLACK
6
CONTINUOUS
10
3.4241843307086612
20
-2.4038326771653544
11
3.4236583464566928
21
-2.4045417716535433
0
LINE
8
BLACK
6
CONTINUOUS
10
3.4236583464566928
20
-2.4045417716535433
11
3.4236311811023623
21
-2.4046001181102361
0
LINE
8
BLACK
6
CONTINUOUS
10
3.4236311811023623
20
-2.4046001181102361
11
3.421756377952756
21
-2.4064748818897637
0
LINE
8
BLACK
6
CONTINUOUS
10
3.421756377952756
20
-2.4064748818897637
11
3.4210333070866139
21
-2.4069811417322833
0
LINE
8
BLACK
6
CONTINUOUS
10
3.4210333070866139
20
-2.4069811417322833
11
3.4209890157480314
21
-2.4070279527559055
0
LINE
8
BLACK
6
CONTINUOUS
10
3.4209890157480314
20
-2.4070279527559055
11
3.4172394881889763
21
-2.4089027165354331
0
LINE
8
BLACK
6
CONTINUOUS
10
3.4172394881889763
20
-2.4089027165354331
11
3.4167510236220471
21
-2.4090479921259842
0
LINE
8
BLACK
6
CONTINUOUS
10
3.4167510236220471
20
-2.4090479921259842
11
3.4166351181102361
21
-2.4091262992125984
0
LINE
8
BLACK
6
CONTINUOUS
10
3.4166351181102361
20
-2.4091262992125984
11
3.4091360629921259
21
-2.4110010629921259
0
LINE
8
BLACK
6
CONTINUOUS
10
3.4091360629921259
20
-2.4110010629921259
11
3.408548149606299
21
-2.4110425196850391
0
LINE
8
BLACK
6
CONTINUOUS
10
3.408548149606299
20
-2.4110425196850391
11
3.4084199212598425
21
-2.4110892125984251
0
LINE
8
BLACK
6
CONTINUOUS
10
3.4084199212598425
20
-2.4110892125984251
11
3.3990461023622047
21
-2.4110892125984251
0
LINE
8
BLACK
6
CONTINUOUS
10
3.3990461023622047
20
-2.4110892125984251
11
3.3984657086614174
21
-2.4109868503937006
0
LINE
8
BLACK
6
CONTINUOUS
10
3.3984657086614174
20
-2.4109868503937006
11
3.3983299606299213
21
-2.4110010629921259
0
LINE
8
BLACK
6
CONTINUOUS
10
3.3983299606299213
20
-2.4110010629921259
11
3.3908309055118111
21
-2.4091262992125984
0
LINE
8
BLACK
6
CONTINUOUS
10
3.3908309055118111
20
-2.4091262992125984
11
3.3903654330708659
21
-2.4089187007874013
0
LINE
8
BLACK
6
CONTINUOUS
10
3.3903654330708659
20
-2.4089187007874013
11
3.390226535433071
21
-2.4089027165354331
0
LINE
8
BLACK
6
CONTINUOUS
10
3.390226535433071
20
-2.4089027165354331
11
3.3864770078740158
21
-2.4070279527559055
0
LINE
8
BLACK
6
CONTINUOUS
10
3.3864770078740158
20
-2.4070279527559055
11
3.3857679133858265
21
-2.4065020472440946
0
LINE
8
BLACK
6
CONTINUOUS
10
3.3857679133858265
20
-2.4065020472440946
11
3.3857096062992125
21
-2.4064748425196849
0
LINE
8
BLACK
6
CONTINUOUS
10
3.3857096062992125
20
-2.4064748425196849
11
3.3838348425196849
21
-2.4046000787401574
0
LINE
8
BLACK
6
CONTINUOUS
10
3.3838348425196849
20
-2.4046000787401574
11
3.3833285433070865
21
-2.403876968503937
0
LINE
8
BLACK
6
CONTINUOUS
10
3.3833285433070865
20
-2.403876968503937
11
3.3832817322834643
21
-2.4038326771653544
0
LINE
8
BLACK
6
CONTINUOUS
10
3.3832817322834643
20
-2.4038326771653544
11
3.3814069685039367
21
-2.4000831496062993
0
LINE
8
BLACK
6
CONTINUOUS
10
3.3814069685039367
20
-2.4000831496062993
11
3.3811146062992123
21
-2.3991001968503936
0
LINE
8
BLACK
6
CONTINUOUS
10
3.3811146062992123
20
-2.3991001968503936
11
3.381155590551181
21
-2.3989285039370079
0
LINE
8
BLACK
6
CONTINUOUS
10
3.381155590551181
20
-2.3989285039370079
11
3.3810952362204723
21
-2.3987626377952753
0
LINE
8
BLACK
6
CONTINUOUS
10
3.3810952362204723
20
-2.3987626377952753
11
3.3810952362204723
21
-2.3950131102362202
0
LINE
8
BLACK
6
CONTINUOUS
10
3.3810952362204723
20
-2.3950131102362202
11
3.3812733070866141
21
-2.3940031889763778
0
LINE
8
BLACK
6
CONTINUOUS
10
3.3812733070866141
20
-2.3940031889763778
11
3.3813867716535433
21
-2.3938679133858267
0
LINE
8
BLACK
6
CONTINUOUS
10
3.3813867716535433
20
-2.3938679133858267
11
3.3814069685039367
21
-2.3936925984251967
0
LINE
8
BLACK
6
CONTINUOUS
10
3.3814069685039367
20
-2.3936925984251967
11
3.3832817322834643
21
-2.3899430708661416
0
LINE
8
BLACK
6
CONTINUOUS
10
3.3832817322834643
20
-2.3899430708661416
11
3.3838076377952757
21
-2.3892339763779527
0
LINE
8
BLACK
6
CONTINUOUS
10
3.3838076377952757
20
-2.3892339763779527
11
3.3838348425196849
21
-2.3891756692913386
0
LINE
8
BLACK
6
CONTINUOUS
10
3.3838348425196849
20
-2.3891756692913386
11
3.3857096062992125
21
-2.3873009055118111
0
LINE
8
BLACK
6
CONTINUOUS
10
3.3857096062992125
20
-2.3873009055118111
11
3.3864326771653541
21
-2.3867946062992127
0
LINE
8
BLACK
6
CONTINUOUS
10
3.3864326771653541
20
-2.3867946062992127
11
3.3864770078740158
21
-2.3867477952755904
0
LINE
8
BLACK
6
CONTINUOUS
10
3.3864770078740158
20
-2.3867477952755904
11
3.390226535433071
21
-2.3848730314960629
0
LINE
8
BLACK
6
CONTINUOUS
10
3.390226535433071
20
-2.3848730314960629
11
3.3907149606299214
21
-2.384727716535433
0
LINE
8
BLACK
6
CONTINUOUS
10
3.3907149606299214
20
-2.384727716535433
11
3.3908309055118111
21
-2.3846494488188976
0
LINE
8
BLACK
6
CONTINUOUS
10
3.3908309055118111
20
-2.3846494488188976
11
3.3983299606299213
21
-2.3827746850393701
0
LINE
8
BLACK
6
CONTINUOUS
10
3.3983299606299213
20
-2.3827746850393701
11
3.3989178346456694
21
-2.3827331889763781
0
LINE
8
BLACK
6
CONTINUOUS
10
3.3989178346456694
20
-2.3827331889763781
11
3.3990461023622047
21
-2.3826865354330709
0
LINE
8
BLACK
6
CONTINUOUS
10
3.3990461023622047
20
-2.3826865354330709
11
3.4084199212598425
21
-2.3826865354330709
0
LINE
8
BLACK
6
CONTINUOUS
10
3.4084199212598425
20
-2.3826865354330709
11
3.4090002755905511
21
-2.3827888582677166
0
LINE
8
BLACK
6
CONTINUOUS
10
3.3925775984251967
20
-2.3903000393700786
11
3.3895466141732284
21
-2.3918155511811023
0
LINE
8
BLACK
6
CONTINUOUS
10
3.3895466141732284
20
-2.3918155511811023
11
3.3883494881889762
21
-2.3930126771653542
0
LINE
8
BLACK
6
CONTINUOUS
10
3.3883494881889762
20
-2.3930126771653542
11
3.3870007480314959
21
-2.3957101574803148
0
LINE
8
BLACK
6
CONTINUOUS
10
3.3870007480314959
20
-2.3957101574803148
11
3.3870007480314959
21
-2.3980655905511812
0
LINE
8
BLACK
6
CONTINUOUS
10
3.3870007480314959
20
-2.3980655905511812
11
3.3883494881889762
21
-2.4007630708661418
0
LINE
8
BLACK
6
CONTINUOUS
10
3.3883494881889762
20
-2.4007630708661418
11
3.3895466141732284
21
-2.4019601968503936
0
LINE
8
BLACK
6
CONTINUOUS
10
3.3895466141732284
20
-2.4019601968503936
11
3.3925775984251967
21
-2.4034756692913386
0
LINE
8
BLACK
6
CONTINUOUS
10
3.3925775984251967
20
-2.4034756692913386
11
3.3994096456692913
21
-2.4051837007874015
0
LINE
8
BLACK
6
CONTINUOUS
10
3.3994096456692913
20
-2.4051837007874015
11
3.408056377952756
21
-2.4051837007874015
0
LINE
8
BLACK
6
CONTINUOUS
10
3.408056377952756
20
-2.4051837007874015
11
3.4148884251968501
21
-2.4034756692913386
0
LINE
8
BLACK
6
CONTINUOUS
10
3.4148884251968501
20
-2.4034756692913386
11
3.4179194094488188
21
-2.4019601574803149
0
LINE
8
BLACK
6
CONTINUOUS
10
3.4179194094488188
20
-2.4019601574803149
11
3.4191165748031493
21
-2.4007630314960631
0
LINE
8
BLACK
6
CONTINUOUS
10
3.4191165748031493
20
-2.4007630314960631
11
3.4204653149606297
21
-2.3980655905511812
0
LINE
8
BLACK
6
CONTINUOUS
10
3.4204653149606297
20
-2.3980655905511812
11
3.4204653149606297
21
-2.3957101574803148
0
LINE
8
BLACK
6
CONTINUOUS
10
3.4204653149606297
20
-2.3957101574803148
11
3.4191165748031493
21
-2.3930126771653542
0
LINE
8
BLACK
6
CONTINUOUS
10
3.4191165748031493
20
-2.3930126771653542
11
3.4179194094488188
21
-2.3918155511811023
0
LINE
8
BLACK
6
CONTINUOUS
10
3.4179194094488188
20
-2.3918155511811023
11
3.4148884251968501
21
-2.3903000393700786
0
LINE
8
BLACK
6
CONTINUOUS
10
3.4148884251968501
20
-2.3903000393700786
11
3.408056377952756
21
-2.3885920472440945
0
LINE
8
BLACK
6
CONTINUOUS
10
3.408056377952756
20
-2.3885920472440945
11
3.3994096456692913
21
-2.3885920472440945
0
LINE
8
BLACK
6
CONTINUOUS
10
3.3994096456692913
20
-2.3885920472440945
11
3.3925775984251967
21
-2.3903000393700786
0
LINE
8
BLACK
6
CONTINUOUS
10
3.3989956299212598
20
-2.3495716929133859
11
3.4102946850393701
21
-2.3584494881889762
0
LINE
8
BLACK
6
CONTINUOUS
10
3.4102946850393701
20
-2.3584494881889762
11
3.4215937795275591
21
-2.3495716929133859
0
LINE
8
BLACK
6
CONTINUOUS
10
3.4215937795275591
20
-2.3495716929133859
11
3.4224979133858269
21
-2.3490877559055119
0
LINE
8
BLACK
6
CONTINUOUS
10
3.4224979133858269
20
-2.3490877559055119
11
3.4245166929133859
21
-2.3491527165354329
0
LINE
8
BLACK
6
CONTINUOUS
10
3.4245166929133859
20
-2.3491527165354329
11
3.4260214173228345
21
-2.3505001181102361
0
LINE
8
BLACK
6
CONTINUOUS
10
3.4260214173228345
20
-2.3505001181102361
11
3.4263079527559053
21
-2.3524994881889763
0
LINE
8
BLACK
6
CONTINUOUS
10
3.4263079527559053
20
-2.3524994881889763
11
3.4252423622047243
21
-2.35421531496063
0
LINE
8
BLACK
6
CONTINUOUS
10
3.4252423622047243
20
-2.35421531496063
11
3.4150740157480315
21
-2.3622046850393699
0
LINE
8
BLACK
6
CONTINUOUS
10
3.4150740157480315
20
-2.3622046850393699
11
3.4252423622047243
21
-2.370194094488189
0
LINE
8
BLACK
6
CONTINUOUS
10
3.4252423622047243
20
-2.370194094488189
11
3.4259264566929133
21
-2.3709580708661417
0
LINE
8
BLACK
6
CONTINUOUS
10
3.4259264566929133
20
-2.3709580708661417
11
3.4263409448818898
21
-2.3729348818897638
0
LINE
8
BLACK
6
CONTINUOUS
10
3.4263409448818898
20
-2.3729348818897638
11
3.4253878346456692
21
-2.3747156692913385
0
LINE
8
BLACK
6
CONTINUOUS
10
3.4253878346456692
20
-2.3747156692913385
11
3.4235130314960629
21
-2.3754671259842519
0
LINE
8
BLACK
6
CONTINUOUS
10
3.4235130314960629
20
-2.3754671259842519
11
3.4215937795275591
21
-2.3748377165354331
0
LINE
8
BLACK
6
CONTINUOUS
10
3.4215937795275591
20
-2.3748377165354331
11
3.4102946850393701
21
-2.3659598818897636
0
LINE
8
BLACK
6
CONTINUOUS
10
3.4102946850393701
20
-2.3659598818897636
11
3.3989956299212598
21
-2.3748377165354331
0
LINE
8
BLACK
6
CONTINUOUS
10
3.3989956299212598
20
-2.3748377165354331
11
3.398091496062992
21
-2.375321653543307
0
LINE
8
BLACK
6
CONTINUOUS
10
3.398091496062992
20
-2.375321653543307
11
3.396072716535433
21
-2.3752566929133856
0
LINE
8
BLACK
6
CONTINUOUS
10
3.396072716535433
20
-2.3752566929133856
11
3.3945679921259844
21
-2.3739092913385824
0
LINE
8
BLACK
6
CONTINUOUS
10
3.3945679921259844
20
-2.3739092913385824
11
3.3942814566929131
21
-2.3719099212598427
0
LINE
8
BLACK
6
CONTINUOUS
10
3.3942814566929131
20
-2.3719099212598427
11
3.3953470472440945
21
-2.370194094488189
0
LINE
8
BLACK
6
CONTINUOUS
10
3.3953470472440945
20
-2.370194094488189
11
3.4055153543307086
21
-2.3622046850393699
0
LINE
8
BLACK
6
CONTINUOUS
10
3.4055153543307086
20
-2.3622046850393699
11
3.3953470472440945
21
-2.35421531496063
0
LINE
8
BLACK
6
CONTINUOUS
10
3.3953470472440945
20
-2.35421531496063
11
3.3946629527559056
21
-2.3534513385826772
0
LINE
8
BLACK
6
CONTINUOUS
10
3.3946629527559056
20
-2.3534513385826772
11
3.3942484645669291
21
-2.3514745275590552
0
LINE
8
BLACK
6
CONTINUOUS
10
3.3942484645669291
20
-2.3514745275590552
11
3.3952015748031497
21
-2.3496937401574804
0
LINE
8
BLACK
6
CONTINUOUS
10
3.3952015748031497
20
-2.3496937401574804
11
3.397076377952756
21
-2.348942283464567
0
LINE
8
BLACK
6
CONTINUOUS
10
3.397076377952756
20
-2.348942283464567
11
3.3989956299212598
21
-2.3495716929133859
0
LINE
8
BLACK
6
CONTINUOUS
10
3.4240477559055118
20
-2.3115577559055116
11
3.4241823228346457
21
-2.3115460236220473
0
LINE
8
BLACK
6
CONTINUOUS
10
3.4241823228346457
20
-2.3115460236220473
11
3.4249104724409447
21
-2.3120558661417321
0
LINE
8
BLACK
6
CONTINUOUS
10
3.4249104724409447
20
-2.3120558661417321
11
3.4256799999999998
21
-2.3125001968503938
0
LINE
8
BLACK
6
CONTINUOUS
10
3.4256799999999998
20
-2.3125001968503938
11
3.4257261417322833
21
-2.3126270472440944
0
LINE
8
BLACK
6
CONTINUOUS
10
3.4257261417322833
20
-2.3126270472440944
11
3.4258368503937007
21
-2.312704566929134
0
LINE
8
BLACK
6
CONTINUOUS
10
3.4258368503937007
20
-2.312704566929134
11
3.4260668503937008
21
-2.3135630708661417
0
LINE
8
BLACK
6
CONTINUOUS
10
3.4260668503937008
20
-2.3135630708661417
11
3.4263708267716533
21
-2.3143981889763778
0
LINE
8
BLACK
6
CONTINUOUS
10
3.4263708267716533
20
-2.3143981889763778
11
3.4263708267716533
21
-2.3387701181102361
0
LINE
8
BLACK
6
CONTINUOUS
10
3.4263708267716533
20
-2.3387701181102361
11
3.4261927559055119
21
-2.3397800393700785
0
LINE
8
BLACK
6
CONTINUOUS
10
3.4261927559055119
20
-2.3397800393700785
11
3.4248944488188977
21
-2.3413272834645671
0
LINE
8
BLACK
6
CONTINUOUS
10
3.4248944488188977
20
-2.3413272834645671
11
3.4229053149606297
21
-2.341678031496063
0
LINE
8
BLACK
6
CONTINUOUS
10
3.4229053149606297
20
-2.341678031496063
11
3.4211561417322836
21
-2.3406681102362206
0
LINE
8
BLACK
6
CONTINUOUS
10
3.4211561417322836
20
-2.3406681102362206
11
3.4204653149606297
21
-2.3387701181102361
0
LINE
8
BLACK
6
CONTINUOUS
10
3.4204653149606297
20
-2.3387701181102361
11
3.4204653149606297
21
-2.3215267322834645
0
LINE
8
BLACK
6
CONTINUOUS
10
3.4204653149606297
20
-2.3215267322834645
11
3.4030087795275588
21
-2.3389832677165354
0
LINE
8
BLACK
6
CONTINUOUS
10
3.4030087795275588
20
-2.3389832677165354
11
3.4021687401574803
21
-2.3395714566929136
0
LINE
8
BLACK
6
CONTINUOUS
10
3.4021687401574803
20
-2.3395714566929136
11
3.4019928740157481
21
-2.3395868110236222
0
LINE
8
BLACK
6
CONTINUOUS
10
3.4019928740157481
20
-2.3395868110236222
11
3.4018546062992123
21
-2.3396965748031495
0
LINE
8
BLACK
6
CONTINUOUS
10
3.4018546062992123
20
-2.3396965748031495
11
3.3962303149606297
21
-2.3415713385826771
0
LINE
8
BLACK
6
CONTINUOUS
10
3.3962303149606297
20
-2.3415713385826771
11
3.3953571259842521
21
-2.3417007874015749
0
LINE
8
BLACK
6
CONTINUOUS
10
3.3953571259842521
20
-2.3417007874015749
11
3.3952965748031496
21
-2.3417228740157481
0
LINE
8
BLACK
6
CONTINUOUS
10
3.3952965748031496
20
-2.3417228740157481
11
3.3915470472440945
21
-2.3417228740157481
0
LINE
8
BLACK
6
CONTINUOUS
10
3.3915470472440945
20
-2.3417228740157481
11
3.3905371259842521
21
-2.3415448031496062
0
LINE
8
BLACK
6
CONTINUOUS
10
3.3905371259842521
20
-2.3415448031496062
11
3.3904018503937006
21
-2.3414312992125983
0
LINE
8
BLACK
6
CONTINUOUS
10
3.3904018503937006
20
-2.3414312992125983
11
3.390226535433071
21
-2.3414111417322836
0
LINE
8
BLACK
6
CONTINUOUS
10
3.390226535433071
20
-2.3414111417322836
11
3.3864770078740158
21
-2.339536377952756
0
LINE
8
BLACK
6
CONTINUOUS
10
3.3864770078740158
20
-2.339536377952756
11
3.3857679133858265
21
-2.3390104724409446
0
LINE
8
BLACK
6
CONTINUOUS
10
3.3857679133858265
20
-2.3390104724409446
11
3.3857096062992125
21
-2.3389832677165354
0
LINE
8
BLACK
6
CONTINUOUS
10
3.3857096062992125
20
-2.3389832677165354
11
3.3838348425196849
21
-2.3371085039370079
0
LINE
8
BLACK
6
CONTINUOUS
10
3.3838348425196849
20
-2.3371085039370079
11
3.3833285433070865
21
-2.3363853937007875
0
LINE
8
BLACK
6
CONTINUOUS
10
3.3833285433070865
20
-2.3363853937007875
11
3.3832817322834643
21
-2.3363411023622045
0
LINE
8
BLACK
6
CONTINUOUS
10
3.3832817322834643
20
-2.3363411023622045
11
3.3814069685039367
21
-2.3325915748031494
0
LINE
8
BLACK
6
CONTINUOUS
10
3.3814069685039367
20
-2.3325915748031494
11
3.3811146062992123
21
-2.3316086220472441
0
LINE
8
BLACK
6
CONTINUOUS
10
3.3811146062992123
20
-2.3316086220472441
11
3.381155590551181
21
-2.3314369291338584
0
LINE
8
BLACK
6
CONTINUOUS
10
3.381155590551181
20
-2.3314369291338584
11
3.3810952362204723
21
-2.3312710629921258
0
LINE
8
BLACK
6
CONTINUOUS
10
3.3810952362204723
20
-2.3312710629921258
11
3.3810952362204723
21
-2.3218972440944881
0
LINE
8
BLACK
6
CONTINUOUS
10
3.3810952362204723
20
-2.3218972440944881
11
3.3812733070866141
21
-2.3208873228346456
0
LINE
8
BLACK
6
CONTINUOUS
10
3.3812733070866141
20
-2.3208873228346456
11
3.3813867716535433
21
-2.3207520472440946
0
LINE
8
BLACK
6
CONTINUOUS
10
3.3813867716535433
20
-2.3207520472440946
11
3.3814069685039367
21
-2.3205767322834645
0
LINE
8
BLACK
6
CONTINUOUS
10
3.3814069685039367
20
-2.3205767322834645
11
3.3832817322834643
21
-2.3168272047244094
0
LINE
8
BLACK
6
CONTINUOUS
10
3.3832817322834643
20
-2.3168272047244094
11
3.3838076377952757
21
-2.3161181102362205
0
LINE
8
BLACK
6
CONTINUOUS
10
3.3838076377952757
20
-2.3161181102362205
11
3.3838348425196849
21
-2.3160598031496065
0
LINE
8
BLACK
6
CONTINUOUS
10
3.3838348425196849
20
-2.3160598031496065
11
3.3857096062992125
21
-2.3141850393700785
0
LINE
8
BLACK
6
CONTINUOUS
10
3.3857096062992125
20
-2.3141850393700785
11
3.3865496456692914
21
-2.3135968503937008
0
LINE
8
BLACK
6
CONTINUOUS
10
3.3865496456692914
20
-2.3135968503937008
11
3.3885617322834647
21
-2.3134208267716536
0
LINE
8
BLACK
6
CONTINUOUS
10
3.3885617322834647
20
-2.3134208267716536
11
3.3902162992125984
21
-2.3145793307086615
0
LINE
8
BLACK
6
CONTINUOUS
10
3.3902162992125984
20
-2.3145793307086615
11
3.3907390157480313
21
-2.3165303149606298
0
LINE
8
BLACK
6
CONTINUOUS
10
3.3907390157480313
20
-2.3165303149606298
11
3.3898854330708659
21
-2.3183608661417323
0
LINE
8
BLACK
6
CONTINUOUS
10
3.3898854330708659
20
-2.3183608661417323
11
3.3883494881889762
21
-2.319896811023622
0
LINE
8
BLACK
6
CONTINUOUS
10
3.3883494881889762
20
-2.319896811023622
11
3.3870007480314959
21
-2.3225942913385826
0
LINE
8
BLACK
6
CONTINUOUS
10
3.3870007480314959
20
-2.3225942913385826
11
3.3870007480314959
21
-2.3305740157480312
0
LINE
8
BLACK
6
CONTINUOUS
10
3.3870007480314959
20
-2.3305740157480312
11
3.3883494881889762
21
-2.3332714960629919
0
LINE
8
BLACK
6
CONTINUOUS
10
3.3883494881889762
20
-2.3332714960629919
11
3.3895466141732284
21
-2.3344686220472441
0
LINE
8
BLACK
6
CONTINUOUS
10
3.3895466141732284
20
-2.3344686220472441
11
3.3922440944881891
21
-2.3358173622047245
0
LINE
8
BLACK
6
CONTINUOUS
10
3.3922440944881891
20
-2.3358173622047245
11
3.3948174409448817
21
-2.3358173622047245
0
LINE
8
BLACK
6
CONTINUOUS
10
3.3948174409448817
20
-2.3358173622047245
11
3.3993258267716535
21
-2.3343145275590551
0
LINE
8
BLACK
6
CONTINUOUS
10
3.3993258267716535
20
-2.3343145275590551
11
3.4213301574803148
21
-2.3123102755905509
0
LINE
8
BLACK
6
CONTINUOUS
10
3.4213301574803148
20
-2.3123102755905509
11
3.4218581889763779
21
-2.3119404724409449
0
LINE
8
BLACK
6
CONTINUOUS
10
3.4218581889763779
20
-2.3119404724409449
11
3.4219416929133857
21
-2.3118410236220472
0
LINE
8
BLACK
6
CONTINUOUS
10
3.4219416929133857
20
-2.3118410236220472
11
3.4220199999999998
21
-2.3118272047244095
0
LINE
8
BLACK
6
CONTINUOUS
10
3.4220199999999998
20
-2.3118272047244095
11
3.4221701968503937
21
-2.3117220472440945
0
LINE
8
BLACK
6
CONTINUOUS
10
3.4221701968503937
20
-2.3117220472440945
11
3.423055748031496
21
-2.3116445669291337
0
LINE
8
BLACK
6
CONTINUOUS
10
3.423055748031496
20
-2.3116445669291337
11
3.4239308267716533
21
-2.3114902755905513
0
LINE
8
BLACK
6
CONTINUOUS
10
3.4239308267716533
20
-2.3114902755905513
11
3.4240477559055118
21
-2.3115577559055116
0
LINE
8
BLACK
6
CONTINUOUS
10
3.4090002755905511
20
-2.2759272047244092
11
3.4091360629921259
21
-2.2759130314960627
0
LINE
8
BLACK
6
CONTINUOUS
10
3.4091360629921259
20
-2.2759130314960627
11
3.4166351181102361
21
-2.2777877952755907
0
LINE
8
BLACK
6
CONTINUOUS
10
3.4166351181102361
20
-2.2777877952755907
11
3.4171005511811021
21
-2.2779953543307085
0
LINE
8
BLACK
6
CONTINUOUS
10
3.4171005511811021
20
-2.2779953543307085
11
3.4172394881889763
21
-2.278011377952756
0
LINE
8
BLACK
6
CONTINUOUS
10
3.4172394881889763
20
-2.278011377952756
11
3.4209890157480314
21
-2.2798861417322835
0
LINE
8
BLACK
6
CONTINUOUS
10
3.4209890157480314
20
-2.2798861417322835
11
3.421697992125984
21
-2.280411968503937
0
LINE
8
BLACK
6
CONTINUOUS
10
3.421697992125984
20
-2.280411968503937
11
3.421756377952756
21
-2.280439212598425
0
LINE
8
BLACK
6
CONTINUOUS
10
3.421756377952756
20
-2.280439212598425
11
3.4236311811023623
21
-2.2823139763779525
0
LINE
8
BLACK
6
CONTINUOUS
10
3.4236311811023623
20
-2.2823139763779525
11
3.4241375590551182
21
-2.2830371259842521
0
LINE
8
BLACK
6
CONTINUOUS
10
3.4241375590551182
20
-2.2830371259842521
11
3.4241843307086612
21
-2.2830814173228346
0
LINE
8
BLACK
6
CONTINUOUS
10
3.4241843307086612
20
-2.2830814173228346
11
3.4260590944881888
21
-2.2868309448818898
0
LINE
8
BLACK
6
CONTINUOUS
10
3.4260590944881888
20
-2.2868309448818898
11
3.4263514566929132
21
-2.2878138582677163
0
LINE
8
BLACK
6
CONTINUOUS
10
3.4263514566929132
20
-2.2878138582677163
11
3.4263104330708662
21
-2.2879855511811025
0
LINE
8
BLACK
6
CONTINUOUS
10
3.4263104330708662
20
-2.2879855511811025
11
3.4263708267716533
21
-2.2881514566929133
0
LINE
8
BLACK
6
CONTINUOUS
10
3.4263708267716533
20
-2.2881514566929133
11
3.4263708267716533
21
-2.2919009842519684
0
LINE
8
BLACK
6
CONTINUOUS
10
3.4263708267716533
20
-2.2919009842519684
11
3.4261927559055119
21
-2.2929109055118109
0
LINE
8
BLACK
6
CONTINUOUS
10
3.4261927559055119
20
-2.2929109055118109
11
3.4260792519685039
21
-2.2930461417322836
0
LINE
8
BLACK
6
CONTINUOUS
10
3.4260792519685039
20
-2.2930461417322836
11
3.4260590944881888
21
-2.293221496062992
0
LINE
8
BLACK
6
CONTINUOUS
10
3.4260590944881888
20
-2.293221496062992
11
3.4241843307086612
21
-2.2969710236220471
0
LINE
8
BLACK
6
CONTINUOUS
10
3.4241843307086612
20
-2.2969710236220471
11
3.4236583464566928
21
-2.297680118110236
0
LINE
8
BLACK
6
CONTINUOUS
10
3.4236583464566928
20
-2.297680118110236
11
3.4236311811023623
21
-2.2977384645669292
0
LINE
8
BLACK
6
CONTINUOUS
10
3.4236311811023623
20
-2.2977384645669292
11
3.421756377952756
21
-2.2996132283464568
0
LINE
8
BLACK
6
CONTINUOUS
10
3.421756377952756
20
-2.2996132283464568
11
3.4210333070866139
21
-2.3001194881889764
0
LINE
8
BLACK
6
CONTINUOUS
10
3.4210333070866139
20
-2.3001194881889764
11
3.4209890157480314
21
-2.3001662992125982
0
LINE
8
BLACK
6
CONTINUOUS
10
3.4209890157480314
20
-2.3001662992125982
11
3.4172394881889763
21
-2.3020410629921257
0
LINE
8
BLACK
6
CONTINUOUS
10
3.4172394881889763
20
-2.3020410629921257
11
3.4167510236220471
21
-2.3021863385826773
0
LINE
8
BLACK
6
CONTINUOUS
10
3.4167510236220471
20
-2.3021863385826773
11
3.4166351181102361
21
-2.3022646456692915
0
LINE
8
BLACK
6
CONTINUOUS
10
3.4166351181102361
20
-2.3022646456692915
11
3.4091360629921259
21
-2.304139409448819
0
LINE
8
BLACK
6
CONTINUOUS
10
3.4091360629921259
20
-2.304139409448819
11
3.408548149606299
21
-2.3041808661417322
0
LINE
8
BLACK
6
CONTINUOUS
10
3.408548149606299
20
-2.3041808661417322
11
3.4084199212598425
21
-2.3042275590551182
0
LINE
8
BLACK
6
CONTINUOUS
10
3.4084199212598425
20
-2.3042275590551182
11
3.3990461023622047
21
-2.3042275590551182
0
LINE
8
BLACK
6
CONTINUOUS
10
3.3990461023622047
20
-2.3042275590551182
11
3.3984657086614174
21
-2.3041251968503937
0
LINE
8
BLACK
6
CONTINUOUS
10
3.3984657086614174
20
-2.3041251968503937
11
3.3983299606299213
21
-2.304139409448819
0
LINE
8
BLACK
6
CONTINUOUS
10
3.3983299606299213
20
-2.304139409448819
11
3.3908309055118111
21
-2.3022646456692915
0
LINE
8
BLACK
6
CONTINUOUS
10
3.3908309055118111
20
-2.3022646456692915
11
3.3903654330708659
21
-2.3020570472440944
0
LINE
8
BLACK
6
CONTINUOUS
10
3.3903654330708659
20
-2.3020570472440944
11
3.390226535433071
21
-2.3020410629921257
0
LINE
8
BLACK
6
CONTINUOUS
10
3.390226535433071
20
-2.3020410629921257
11
3.3864770078740158
21
-2.3001662992125982
0
LINE
8
BLACK
6
CONTINUOUS
10
3.3864770078740158
20
-2.3001662992125982
11
3.3857679133858265
21
-2.2996403937007872
0
LINE
8
BLACK
6
CONTINUOUS
10
3.3857679133858265
20
-2.2996403937007872
11
3.3857096062992125
21
-2.299613188976378
0
LINE
8
BLACK
6
CONTINUOUS
10
3.3857096062992125
20
-2.299613188976378
11
3.3838348425196849
21
-2.2977384251968505
0
LINE
8
BLACK
6
CONTINUOUS
10
3.3838348425196849
20
-2.2977384251968505
11
3.3833285433070865
21
-2.2970153149606301
0
LINE
8
BLACK
6
CONTINUOUS
10
3.3833285433070865
20
-2.2970153149606301
11
3.3832817322834643
21
-2.2969710236220471
0
LINE
8
BLACK
6
CONTINUOUS
10
3.3832817322834643
20
-2.2969710236220471
11
3.3814069685039367
21
-2.293221496062992
0
LINE
8
BLACK
6
CONTINUOUS
10
3.3814069685039367
20
-2.293221496062992
11
3.3811146062992123
21
-2.2922385433070867
0
LINE
8
BLACK
6
CONTINUOUS
10
3.3811146062992123
20
-2.2922385433070867
11
3.381155590551181
21
-2.2920668503937009
0
LINE
8
BLACK
6
CONTINUOUS
10
3.381155590551181
20
-2.2920668503937009
11
3.3810952362204723
21
-2.2919009842519684
0
LINE
8
BLACK
6
CONTINUOUS
10
3.3810952362204723
20
-2.2919009842519684
11
3.3810952362204723
21
-2.2881514566929133
0
LINE
8
BLACK
6
CONTINUOUS
10
3.3810952362204723
20
-2.2881514566929133
11
3.3812733070866141
21
-2.2871415354330709
0
LINE
8
BLACK
6
CONTINUOUS
10
3.3812733070866141
20
-2.2871415354330709
11
3.3813867716535433
21
-2.2870062598425198
0
LINE
8
BLACK
6
CONTINUOUS
10
3.3813867716535433
20
-2.2870062598425198
11
3.3814069685039367
21
-2.2868309448818898
0
LINE
8
BLACK
6
CONTINUOUS
10
3.3814069685039367
20
-2.2868309448818898
11
3.3832817322834643
21
-2.2830814173228346
0
LINE
8
BLACK
6
CONTINUOUS
10
3.3832817322834643
20
-2.2830814173228346
11
3.3838076377952757
21
-2.2823723228346458
0
LINE
8
BLACK
6
CONTINUOUS
10
3.3838076377952757
20
-2.2823723228346458
11
3.3838348425196849
21
-2.2823140157480313
0
LINE
8
BLACK
6
CONTINUOUS
10
3.3838348425196849
20
-2.2823140157480313
11
3.3857096062992125
21
-2.2804392519685037
0
LINE
8
BLACK
6
CONTINUOUS
10
3.3857096062992125
20
-2.2804392519685037
11
3.3864326771653541
21
-2.2799329527559054
0
LINE
8
BLACK
6
CONTINUOUS
10
3.3864326771653541
20
-2.2799329527559054
11
3.3864770078740158
21
-2.2798861417322835
0
LINE
8
BLACK
6
CONTINUOUS
10
3.3864770078740158
20
-2.2798861417322835
11
3.390226535433071
21
-2.278011377952756
0
LINE
8
BLACK
6
CONTINUOUS
10
3.390226535433071
20
-2.278011377952756
11
3.3907149606299214
21
-2.2778660629921261
0
LINE
8
BLACK
6
CONTINUOUS
10
3.3907149606299214
20
-2.2778660629921261
11
3.3908309055118111
21
-2.2777877952755907
0
LINE
8
BLACK
6
CONTINUOUS
10
3.3908309055118111
20
-2.2777877952755907
11
3.3983299606299213
21
-2.2759130314960627
0
LINE
8
BLACK
6
CONTINUOUS
10
3.3983299606299213
20
-2.2759130314960627
11
3.3989178346456694
21
-2.2758715354330707
0
LINE
8
BLACK
6
CONTINUOUS
10
3.3989178346456694
20
-2.2758715354330707
11
3.3990461023622047
21
-2.2758248818897635
0
LINE
8
BLACK
6
CONTINUOUS
10
3.3990461023622047
20
-2.2758248818897635
11
3.4084199212598425
21
-2.2758248818897635
0
LINE
8
BLACK
6
CONTINUOUS
10
3.4084199212598425
20
-2.2758248818897635
11
3.4090002755905511
21
-2.2759272047244092
0
LINE
8
BLACK
6
CONTINUOUS
10
3.3925775984251967
20
-2.2834383858267717
11
3.3895466141732284
21
-2.2849538976377954
0
LINE
8
BLACK
6
CONTINUOUS
10
3.3895466141732284
20
-2.2849538976377954
11
3.3883494881889762
21
-2.2861510236220473
0
LINE
8
BLACK
6
CONTINUOUS
10
3.3883494881889762
20
-2.2861510236220473
11
3.3870007480314959
21
-2.2888485039370079
0
LINE
8
BLACK
6
CONTINUOUS
10
3.3870007480314959
20
-2.2888485039370079
11
3.3870007480314959
21
-2.2912039370078738
0
LINE
8
BLACK
6
CONTINUOUS
10
3.3870007480314959
20
-2.2912039370078738
11
3.3883494881889762
21
-2.2939014173228345
0
LINE
8
BLACK
6
CONTINUOUS
10
3.3883494881889762
20
-2.2939014173228345
11
3.3895466141732284
21
-2.2950985433070867
0
LINE
8
BLACK
6
CONTINUOUS
10
3.3895466141732284
20
-2.2950985433070867
11
3.3925775984251967
21
-2.2966140157480313
0
LINE
8
BLACK
6
CONTINUOUS
10
3.3925775984251967
20
-2.2966140157480313
11
3.3994096456692913
21
-2.2983220472440946
0
LINE
8
BLACK
6
CONTINUOUS
10
3.3994096456692913
20
-2.2983220472440946
11
3.408056377952756
21
-2.2983220472440946
0
LINE
8
BLACK
6
CONTINUOUS
10
3.408056377952756
20
-2.2983220472440946
11
3.4148884251968501
21
-2.2966140157480313
0
LINE
8
BLACK
6
CONTINUOUS
10
3.4148884251968501
20
-2.2966140157480313
11
3.4179194094488188
21
-2.295098503937008
0
LINE
8
BLACK
6
CONTINUOUS
10
3.4179194094488188
20
-2.295098503937008
11
3.4191165748031493
21
-2.2939013779527557
0
LINE
8
BLACK
6
CONTINUOUS
10
3.4191165748031493
20
-2.2939013779527557
11
3.4204653149606297
21
-2.2912039370078738
0
LINE
8
BLACK
6
CONTINUOUS
10
3.4204653149606297
20
-2.2912039370078738
11
3.4204653149606297
21
-2.2888485039370079
0
LINE
8
BLACK
6
CONTINUOUS
10
3.4204653149606297
20
-2.2888485039370079
11
3.4191165748031493
21
-2.2861510236220473
0
LINE
8
BLACK
6
CONTINUOUS
10
3.4191165748031493
20
-2.2861510236220473
11
3.4179194094488188
21
-2.2849538976377954
0
LINE
8
BLACK
6
CONTINUOUS
10
3.4179194094488188
20
-2.2849538976377954
11
3.4148884251968501
21
-2.2834383858267717
0
LINE
8
BLACK
6
CONTINUOUS
10
3.4148884251968501
20
-2.2834383858267717
11
3.408056377952756
21
-2.2817303937007876
0
LINE
8
BLACK
6
CONTINUOUS
10
3.408056377952756
20
-2.2817303937007876
11
3.3994096456692913
21
-2.2817303937007876
0
LINE
8
BLACK
6
CONTINUOUS
10
3.3994096456692913
20
-2.2817303937007876
11
3.3925775984251967
21
-2.2834383858267717
0
LINE
8
BLACK
6
CONTINUOUS
10
3.3396121259842517
20
-2.1697056299212596
11
3.3446635039370078
21
-2.1728090157480313
0
LINE
8
BLACK
6
CONTINUOUS
10
3.3446635039370078
20
-2.1728090157480313
11
3.3453238976377953
21
-2.1733946456692914
0
LINE
8
BLACK
6
CONTINUOUS
10
3.3453238976377953
20
-2.1733946456692914
11
3.3453797637795275
21
-2.1734268897637796
0
LINE
8
BLACK
6
CONTINUOUS
10
3.3453797637795275
20
-2.1734268897637796
11
3.3514051574803148
21
-2.1806076377952754
0
LINE
8
BLACK
6
CONTINUOUS
10
3.3514051574803148
20
-2.1806076377952754
11
3.3519179133858268
21
-2.1814957480314958
0
LINE
8
BLACK
6
CONTINUOUS
10
3.3519179133858268
20
-2.1814957480314958
11
3.3519179133858268
21
-2.181672244094488
0
LINE
8
BLACK
6
CONTINUOUS
10
3.3519179133858268
20
-2.181672244094488
11
3.3520151968503935
21
-2.1818196062992126
0
LINE
8
BLACK
6
CONTINUOUS
10
3.3520151968503935
20
-2.1818196062992126
11
3.3529891732283463
21
-2.1858970078740159
0
LINE
8
BLACK
6
CONTINUOUS
10
3.3529891732283463
20
-2.1858970078740159
11
3.3530420078740155
21
-2.186778031496063
0
LINE
8
BLACK
6
CONTINUOUS
10
3.3530420078740155
20
-2.186778031496063
11
3.3530587401574801
21
-2.1868403937007872
0
LINE
8
BLACK
6
CONTINUOUS
10
3.3530587401574801
20
-2.1868403937007872
11
3.3528276771653545
21
-2.1894815748031498
0
LINE
8
BLACK
6
CONTINUOUS
10
3.3528276771653545
20
-2.1894815748031498
11
3.3525991338582677
21
-2.1903343307086613
0
LINE
8
BLACK
6
CONTINUOUS
10
3.3525991338582677
20
-2.1903343307086613
11
3.35259531496063
21
-2.190398622047244
0
LINE
8
BLACK
6
CONTINUOUS
10
3.35259531496063
20
-2.190398622047244
11
3.3509280708661415
21
-2.1942448818897637
0
LINE
8
BLACK
6
CONTINUOUS
10
3.3509280708661415
20
-2.1942448818897637
11
3.3503630314960628
21
-2.1951006692913384
0
LINE
8
BLACK
6
CONTINUOUS
10
3.3503630314960628
20
-2.1951006692913384
11
3.3502051968503936
21
-2.1951795669291339
0
LINE
8
BLACK
6
CONTINUOUS
10
3.3502051968503936
20
-2.1951795669291339
11
3.3501169291338582
21
-2.1953324803149608
0
LINE
8
BLACK
6
CONTINUOUS
10
3.3501169291338582
20
-2.1953324803149608
11
3.3472446062992125
21
-2.1977426377952756
0
LINE
8
BLACK
6
CONTINUOUS
10
3.3472446062992125
20
-2.1977426377952756
11
3.3463565354330709
21
-2.1982553937007872
0
LINE
8
BLACK
6
CONTINUOUS
10
3.3463565354330709
20
-2.1982553937007872
11
3.3461799999999999
21
-2.1982553937007872
0
LINE
8
BLACK
6
CONTINUOUS
10
3.3461799999999999
20
-2.1982553937007872
11
3.3460326771653541
21
-2.1983526771653543
0
LINE
8
BLACK
6
CONTINUOUS
10
3.3460326771653541
20
-2.1983526771653543
11
3.3419552755905513
21
-2.1993266929133859
0
LINE
8
BLACK
6
CONTINUOUS
10
3.3419552755905513
20
-2.1993266929133859
11
3.3410741338582675
21
-2.1993795275590551
0
LINE
8
BLACK
6
CONTINUOUS
10
3.3410741338582675
20
-2.1993795275590551
11
3.341011811023622
21
-2.1993962598425196
0
LINE
8
BLACK
6
CONTINUOUS
10
3.341011811023622
20
-2.1993962598425196
11
3.3383706299212599
21
-2.1991651574803148
0
LINE
8
BLACK
6
CONTINUOUS
10
3.3383706299212599
20
-2.1991651574803148
11
3.3375178346456691
21
-2.1989366141732285
0
LINE
8
BLACK
6
CONTINUOUS
10
3.3375178346456691
20
-2.1989366141732285
11
3.3374536220472439
21
-2.1989327952755904
0
LINE
8
BLACK
6
CONTINUOUS
10
3.3374536220472439
20
-2.1989327952755904
11
3.3336073622047242
21
-2.1972655511811023
0
LINE
8
BLACK
6
CONTINUOUS
10
3.3336073622047242
20
-2.1972655511811023
11
3.333182086614173
21
-2.1969847637795277
0
LINE
8
BLACK
6
CONTINUOUS
10
3.333182086614173
20
-2.1969847637795277
11
3.3330475984251966
21
-2.1969462992125983
0
LINE
8
BLACK
6
CONTINUOUS
10
3.3330475984251966
20
-2.1969462992125983
11
3.3270535039370079
21
-2.1925970866141733
0
LINE
8
BLACK
6
CONTINUOUS
10
3.3270535039370079
20
-2.1925970866141733
11
3.3239442913385826
21
-2.1912493700787401
0
LINE
8
BLACK
6
CONTINUOUS
10
3.3239442913385826
20
-2.1912493700787401
11
3.3222575590551182
21
-2.1911018110236218
0
LINE
8
BLACK
6
CONTINUOUS
10
3.3222575590551182
20
-2.1911018110236218
11
3.31932437007874
21
-2.1918024803149607
0
LINE
8
BLACK
6
CONTINUOUS
10
3.31932437007874
20
-2.1918024803149607
11
3.3175199212598425
21
-2.1933165748031493
0
LINE
8
BLACK
6
CONTINUOUS
10
3.3175199212598425
20
-2.1933165748031493
11
3.3163205118110235
21
-2.1960835826771654
0
LINE
8
BLACK
6
CONTINUOUS
10
3.3163205118110235
20
-2.1960835826771654
11
3.3161729527559056
21
-2.1977703149606298
0
LINE
8
BLACK
6
CONTINUOUS
10
3.3161729527559056
20
-2.1977703149606298
11
3.3168736614173229
21
-2.2007035433070867
0
LINE
8
BLACK
6
CONTINUOUS
10
3.3168736614173229
20
-2.2007035433070867
11
3.322142992125984
21
-2.2069833464566928
0
LINE
8
BLACK
6
CONTINUOUS
10
3.322142992125984
20
-2.2069833464566928
11
3.3267861023622047
21
-2.2098359055118109
0
LINE
8
BLACK
6
CONTINUOUS
10
3.3267861023622047
20
-2.2098359055118109
11
3.3275533858267714
21
-2.2105162992125984
0
LINE
8
BLACK
6
CONTINUOUS
10
3.3275533858267714
20
-2.2105162992125984
11
3.3281920866141732
21
-2.2124324409448817
0
LINE
8
BLACK
6
CONTINUOUS
10
3.3281920866141732
20
-2.2124324409448817
11
3.3274497244094485
21
-2.2143108661417323
0
LINE
8
BLACK
6
CONTINUOUS
10
3.3274497244094485
20
-2.2143108661417323
11
3.3256735826771653
21
-2.2152725984251966
0
LINE
8
BLACK
6
CONTINUOUS
10
3.3256735826771653
20
-2.2152725984251966
11
3.3236947637795273
21
-2.2148676771653544
0
LINE
8
BLACK
6
CONTINUOUS
10
3.3236947637795273
20
-2.2148676771653544
11
3.3186433858267717
21
-2.2117642519685039
0
LINE
8
BLACK
6
CONTINUOUS
10
3.3186433858267717
20
-2.2117642519685039
11
3.3179829133858267
21
-2.2111785826771655
0
LINE
8
BLACK
6
CONTINUOUS
10
3.3179829133858267
20
-2.2111785826771655
11
3.3179270866141732
21
-2.211146377952756
0
LINE
8
BLACK
6
CONTINUOUS
10
3.3179270866141732
20
-2.211146377952756
11
3.311901771653543
21
-2.203965590551181
0
LINE
8
BLACK
6
CONTINUOUS
10
3.311901771653543
20
-2.203965590551181
11
3.3113890157480315
21
-2.2030774803149606
0
LINE
8
BLACK
6
CONTINUOUS
10
3.3113890157480315
20
-2.2030774803149606
11
3.3113890157480315
21
-2.2029009448818897
0
LINE
8
BLACK
6
CONTINUOUS
10
3.3113890157480315
20
-2.2029009448818897
11
3.311291771653543
21
-2.2027536614173227
0
LINE
8
BLACK
6
CONTINUOUS
10
3.311291771653543
20
-2.2027536614173227
11
3.3103177559055119
21
-2.1986762992125986
0
LINE
8
BLACK
6
CONTINUOUS
10
3.3103177559055119
20
-2.1986762992125986
11
3.3102648425196848
21
-2.197795275590551
0
LINE
8
BLACK
6
CONTINUOUS
10
3.3102648425196848
20
-2.197795275590551
11
3.310248149606299
21
-2.1977329133858268
0
LINE
8
BLACK
6
CONTINUOUS
10
3.310248149606299
20
-2.1977329133858268
11
3.310479212598425
21
-2.1950916929133859
0
LINE
8
BLACK
6
CONTINUOUS
10
3.310479212598425
20
-2.1950916929133859
11
3.3107077165354331
21
-2.1942389370078739
0
LINE
8
BLACK
6
CONTINUOUS
10
3.3107077165354331
20
-2.1942389370078739
11
3.3107115748031495
21
-2.19417468503937
0
LINE
8
BLACK
6
CONTINUOUS
10
3.3107115748031495
20
-2.19417468503937
11
3.3123788188976375
21
-2.1903283858267715
0
LINE
8
BLACK
6
CONTINUOUS
10
3.3123788188976375
20
-2.1903283858267715
11
3.3129438582677166
21
-2.1894725984251968
0
LINE
8
BLACK
6
CONTINUOUS
10
3.3129438582677166
20
-2.1894725984251968
11
3.3131017322834646
21
-2.1893936220472439
0
LINE
8
BLACK
6
CONTINUOUS
10
3.3131017322834646
20
-2.1893936220472439
11
3.3131900000000001
21
-2.1892407874015749
0
LINE
8
BLACK
6
CONTINUOUS
10
3.3131900000000001
20
-2.1892407874015749
11
3.3160623228346457
21
-2.1868306299212596
0
LINE
8
BLACK
6
CONTINUOUS
10
3.3160623228346457
20
-2.1868306299212596
11
3.3169504330708661
21
-2.1863178740157481
0
LINE
8
BLACK
6
CONTINUOUS
10
3.3169504330708661
20
-2.1863178740157481
11
3.3171269685039371
21
-2.1863178740157481
0
LINE
8
BLACK
6
CONTINUOUS
10
3.3171269685039371
20
-2.1863178740157481
11
3.3172742519685037
21
-2.1862206299212597
0
LINE
8
BLACK
6
CONTINUOUS
10
3.3172742519685037
20
-2.1862206299212597
11
3.3213516141732282
21
-2.1852466141732285
0
LINE
8
BLACK
6
CONTINUOUS
10
3.3213516141732282
20
-2.1852466141732285
11
3.3222325984251966
21
-2.1851937007874014
0
LINE
8
BLACK
6
CONTINUOUS
10
3.3222325984251966
20
-2.1851937007874014
11
3.322295
21
-2.1851770078740156
0
LINE
8
BLACK
6
CONTINUOUS
10
3.322295
20
-2.1851770078740156
11
3.3249362204724409
21
-2.1854080708661416
0
LINE
8
BLACK
6
CONTINUOUS
10
3.3249362204724409
20
-2.1854080708661416
11
3.3257889370078741
21
-2.1856365748031497
0
LINE
8
BLACK
6
CONTINUOUS
10
3.3257889370078741
20
-2.1856365748031497
11
3.3258532283464568
21
-2.1856404330708661
0
LINE
8
BLACK
6
CONTINUOUS
10
3.3258532283464568
20
-2.1856404330708661
11
3.3296995669291336
21
-2.1873076377952754
0
LINE
8
BLACK
6
CONTINUOUS
10
3.3296995669291336
20
-2.1873076377952754
11
3.3301249212598423
21
-2.1875884645669292
0
LINE
8
BLACK
6
CONTINUOUS
10
3.3301249212598423
20
-2.1875884645669292
11
3.3302592913385825
21
-2.1876269291338581
0
LINE
8
BLACK
6
CONTINUOUS
10
3.3302592913385825
20
-2.1876269291338581
11
3.3362533858267716
21
-2.1919761023622049
0
LINE
8
BLACK
6
CONTINUOUS
10
3.3362533858267716
20
-2.1919761023622049
11
3.3393625984251969
21
-2.1933238188976376
0
LINE
8
BLACK
6
CONTINUOUS
10
3.3393625984251969
20
-2.1933238188976376
11
3.341049212598425
21
-2.1934714173228347
0
LINE
8
BLACK
6
CONTINUOUS
10
3.341049212598425
20
-2.1934714173228347
11
3.3439826377952757
21
-2.1927706692913387
0
LINE
8
BLACK
6
CONTINUOUS
10
3.3439826377952757
20
-2.1927706692913387
11
3.3457869291338582
21
-2.1912566535433071
0
LINE
8
BLACK
6
CONTINUOUS
10
3.3457869291338582
20
-2.1912566535433071
11
3.3469863385826772
21
-2.1884896456692915
0
LINE
8
BLACK
6
CONTINUOUS
10
3.3469863385826772
20
-2.1884896456692915
11
3.3471338976377951
21
-2.1868029921259842
0
LINE
8
BLACK
6
CONTINUOUS
10
3.3471338976377951
20
-2.1868029921259842
11
3.3464331889763779
21
-2.1838695669291339
0
LINE
8
BLACK
6
CONTINUOUS
10
3.3464331889763779
20
-2.1838695669291339
11
3.3411639370078738
21
-2.1775899606299212
0
LINE
8
BLACK
6
CONTINUOUS
10
3.3411639370078738
20
-2.1775899606299212
11
3.3365207874015748
21
-2.1747373622047244
0
LINE
8
BLACK
6
CONTINUOUS
10
3.3365207874015748
20
-2.1747373622047244
11
3.3357535039370076
21
-2.1740570078740156
0
LINE
8
BLACK
6
CONTINUOUS
10
3.3357535039370076
20
-2.1740570078740156
11
3.3351148031496063
21
-2.1721408661417323
0
LINE
8
BLACK
6
CONTINUOUS
10
3.3351148031496063
20
-2.1721408661417323
11
3.3358572047244093
21
-2.1702624015748029
0
LINE
8
BLACK
6
CONTINUOUS
10
3.3358572047244093
20
-2.1702624015748029
11
3.3376333070866142
21
-2.1693007086614173
0
LINE
8
BLACK
6
CONTINUOUS
10
3.3376333070866142
20
-2.1693007086614173
11
3.3396121259842517
21
-2.1697056299212596
0
LINE
8
BLACK
6
CONTINUOUS
10
3.3239836220472441
20
-2.1479977165354329
11
3.3243343307086612
21
-2.1499868503937005
0
LINE
8
BLACK
6
CONTINUOUS
10
3.3243343307086612
20
-2.1499868503937005
11
3.3233244488188975
21
-2.1517360236220471
0
LINE
8
BLACK
6
CONTINUOUS
10
3.3233244488188975
20
-2.1517360236220471
11
3.3021492519685038
21
-2.1695040944881887
0
LINE
8
BLACK
6
CONTINUOUS
10
3.3021492519685038
20
-2.1695040944881887
11
3.2996615354330707
21
-2.173553307086614
0
LINE
8
BLACK
6
CONTINUOUS
10
3.2996615354330707
20
-2.173553307086614
11
3.2993209055118111
21
-2.1774470472440943
0
LINE
8
BLACK
6
CONTINUOUS
10
3.2993209055118111
20
-2.1774470472440943
11
3.3010675984251967
21
-2.1818666535433069
0
LINE
8
BLACK
6
CONTINUOUS
10
3.3010675984251967
20
-2.1818666535433069
11
3.3031697637795276
21
-2.1843719291338584
0
LINE
8
BLACK
6
CONTINUOUS
10
3.3031697637795276
20
-2.1843719291338584
11
3.3036825196850392
21
-2.1852600393700787
0
LINE
8
BLACK
6
CONTINUOUS
10
3.3036825196850392
20
-2.1852600393700787
11
3.3036825196850392
21
-2.1872798031496061
0
LINE
8
BLACK
6
CONTINUOUS
10
3.3036825196850392
20
-2.1872798031496061
11
3.3023842125984251
21
-2.188827086614173
0
LINE
8
BLACK
6
CONTINUOUS
10
3.3023842125984251
20
-2.188827086614173
11
3.3003950787401575
21
-2.1891777952755906
0
LINE
8
BLACK
6
CONTINUOUS
10
3.3003950787401575
20
-2.1891777952755906
11
3.2986458661417322
21
-2.1881679133858265
0
LINE
8
BLACK
6
CONTINUOUS
10
3.2986458661417322
20
-2.1881679133858265
11
3.2962357480314961
21
-2.1852955905511808
0
LINE
8
BLACK
6
CONTINUOUS
10
3.2962357480314961
20
-2.1852955905511808
11
3.29579437007874
21
-2.1845311417322835
0
LINE
8
BLACK
6
CONTINUOUS
10
3.29579437007874
20
-2.1845311417322835
11
3.2957516141732284
21
-2.1844829133858266
0
LINE
8
BLACK
6
CONTINUOUS
10
3.2957516141732284
20
-2.1844829133858266
11
3.2935725590551179
21
-2.1789694094488188
0
LINE
8
BLACK
6
CONTINUOUS
10
3.2935725590551179
20
-2.1789694094488188
11
3.2933669685039368
21
-2.1779647244094487
0
LINE
8
BLACK
6
CONTINUOUS
10
3.2933669685039368
20
-2.1779647244094487
11
3.2934227559055116
21
-2.1777972440944882
0
LINE
8
BLACK
6
CONTINUOUS
10
3.2934227559055116
20
-2.1777972440944882
11
3.2933770866141732
21
-2.1776267322834646
0
LINE
8
BLACK
6
CONTINUOUS
10
3.2933770866141732
20
-2.1776267322834646
11
3.293839251968504
21
-2.1723442519685037
0
LINE
8
BLACK
6
CONTINUOUS
10
3.293839251968504
20
-2.1723442519685037
11
3.29410468503937
21
-2.1713537007874013
0
LINE
8
BLACK
6
CONTINUOUS
10
3.29410468503937
20
-2.1713537007874013
11
3.2942295275590552
21
-2.1712288188976379
0
LINE
8
BLACK
6
CONTINUOUS
10
3.2942295275590552
20
-2.1712288188976379
11
3.2942649212598423
21
-2.1710559448818896
0
LINE
8
BLACK
6
CONTINUOUS
10
3.2942649212598423
20
-2.1710559448818896
11
3.297368307086614
21
-2.1660045669291339
0
LINE
8
BLACK
6
CONTINUOUS
10
3.297368307086614
20
-2.1660045669291339
11
3.2979539370078741
21
-2.1653441338582677
0
LINE
8
BLACK
6
CONTINUOUS
10
3.2979539370078741
20
-2.1653441338582677
11
3.2979861811023623
21
-2.1652883070866142
0
LINE
8
BLACK
6
CONTINUOUS
10
3.2979861811023623
20
-2.1652883070866142
11
3.319528464566929
21
-2.1472121653543308
0
LINE
8
BLACK
6
CONTINUOUS
10
3.319528464566929
20
-2.1472121653543308
11
3.3204165748031493
21
-2.1466994094488188
0
LINE
8
BLACK
6
CONTINUOUS
10
3.3204165748031493
20
-2.1466994094488188
11
3.3224363385826772
21
-2.1466994094488188
0
LINE
8
BLACK
6
CONTINUOUS
10
3.3224363385826772
20
-2.1466994094488188
11
3.3239836220472441
21
-2.1479977165354329
  0
ENDSEC
  0
EOF
