  0
SECTION
  2
HEADER
  9
$ANGBASE
  50
0.0
  9
$ANGDIR
  70
1
  9
$MEASUREMENT
  70
0
  0
ENDSEC
  0
SECTION
  2
TABLES
  0
TABLE
  2
LTYPE
  70
4
  0
LTYPE
  5
40F
  2
CONTINUOUS
  70
0
  3
Solid line
  72
65
  73
0
  40
0.0
  0
LTYPE
  5
410
  2
DASHDOT
 70
0
  3
Dash Dot ____ _ ____ _
 72
65
 73
4
 40
2.0
 49
1.25
 49
-0.25
 49
0.25
 49
-0.25
  0
LTYPE
  5
411
  2
DASHED
 70
0
  3
Dashed __ __ __ __ __
 72
65
 73
2
 40
0.75
 49
0.5
 49
-0.25
  0
LTYPE
  5
43B
  2
DOTTED
 70
0
  3
Dotted .  .  .  .
 72
65
 73
2
 40
0.2
 49
0.0
 49
-0.2
  0
ENDTAB
  0
TABLE
  2
STYLE
  70
4
  0
STYLE
  2
KICAD
  70
0
  40
0
  41
1
  42
1
  50
0
  71
0
  3
isocp.shx
  0
STYLE
  2
KICADB
  70
0
  40
0
  41
1
  42
1
  50
0
  71
0
  3
isocp.shx
  0
STYLE
  2
KICADI
  70
0
  40
0
  41
1
  42
1
  50
15
  71
0
  3
isocp.shx
  0
STYLE
  2
KICADBI
  70
0
  40
0
  41
1
  42
1
  50
15
  71
0
  3
isocp.shx
  0
ENDTAB
  0
TABLE
  2
LAYER
  70
1
  0
LAYER
  2
BLACK
  70
0
  62
7
  6
CONTINUOUS
  0
ENDTAB
  0
ENDSEC
  0
SECTION
  2
ENTITIES
0
LINE
8
BLACK
6
CONTINUOUS
10
3.21411
20
-2.72156
11
3.21538
21
-2.72241
0
LINE
8
BLACK
6
CONTINUOUS
10
3.21538
20
-2.72241
11
3.21624
21
-2.72369
0
LINE
8
BLACK
6
CONTINUOUS
10
3.21624
20
-2.72369
11
3.21654
21
-2.7252
0
LINE
8
BLACK
6
CONTINUOUS
10
3.21654
20
-2.7252
11
3.21654
21
-2.74232
0
LINE
8
BLACK
6
CONTINUOUS
10
3.21654
20
-2.74232
11
3.21624
21
-2.74383
0
LINE
8
BLACK
6
CONTINUOUS
10
3.21624
20
-2.74383
11
3.21538
21
-2.74511
0
LINE
8
BLACK
6
CONTINUOUS
10
3.21538
20
-2.74511
11
3.21411
21
-2.74596
0
LINE
8
BLACK
6
CONTINUOUS
10
3.21411
20
-2.74596
11
3.2126
21
-2.74626
0
LINE
8
BLACK
6
CONTINUOUS
10
3.2126
20
-2.74626
11
3.20472
21
-2.74626
0
LINE
8
BLACK
6
CONTINUOUS
10
3.20472
20
-2.74626
11
3.20322
21
-2.74596
0
LINE
8
BLACK
6
CONTINUOUS
10
3.20322
20
-2.74596
11
3.20194
21
-2.74511
0
LINE
8
BLACK
6
CONTINUOUS
10
3.20194
20
-2.74511
11
3.20109
21
-2.74383
0
LINE
8
BLACK
6
CONTINUOUS
10
3.20109
20
-2.74383
11
3.20079
21
-2.74232
0
LINE
8
BLACK
6
CONTINUOUS
10
3.20079
20
-2.74232
11
3.20079
21
-2.7252
0
LINE
8
BLACK
6
CONTINUOUS
10
3.20079
20
-2.7252
11
3.20109
21
-2.72369
0
LINE
8
BLACK
6
CONTINUOUS
10
3.20109
20
-2.72369
11
3.20194
21
-2.72241
0
LINE
8
BLACK
6
CONTINUOUS
10
3.20194
20
-2.72241
11
3.20322
21
-2.72156
0
LINE
8
BLACK
6
CONTINUOUS
10
3.20322
20
-2.72156
11
3.20472
21
-2.72126
0
LINE
8
BLACK
6
CONTINUOUS
10
3.20472
20
-2.72126
11
3.2126
21
-2.72126
0
LINE
8
BLACK
6
CONTINUOUS
10
3.2126
20
-2.72126
11
3.21411
21
-2.72156
0
LINE
8
BLACK
6
CONTINUOUS
10
3.14173
20
-2.74409
11
3.12205
21
-2.74409
0
LINE
8
BLACK
6
CONTINUOUS
10
3.12205
20
-2.74409
11
3.12205
21
-2.72441
0
LINE
8
BLACK
6
CONTINUOUS
10
3.12205
20
-2.72441
11
3.14173
21
-2.72441
0
LINE
8
BLACK
6
CONTINUOUS
10
3.14173
20
-2.72441
11
3.14173
21
-2.74409
0
LINE
8
BLACK
6
CONTINUOUS
10
3.17717
20
-2.74409
11
3.15748
21
-2.74409
0
LINE
8
BLACK
6
CONTINUOUS
10
3.15748
20
-2.74409
11
3.15748
21
-2.72441
0
LINE
8
BLACK
6
CONTINUOUS
10
3.15748
20
-2.72441
11
3.17717
21
-2.72441
0
LINE
8
BLACK
6
CONTINUOUS
10
3.17717
20
-2.72441
11
3.17717
21
-2.74409
0
LINE
8
BLACK
6
CONTINUOUS
10
3.01844
20
-2.69795
11
3.02526
21
-2.70189
0
LINE
8
BLACK
6
CONTINUOUS
10
3.02526
20
-2.70189
11
3.02641
21
-2.7029
0
LINE
8
BLACK
6
CONTINUOUS
10
3.02641
20
-2.7029
11
3.02709
21
-2.70428
0
LINE
8
BLACK
6
CONTINUOUS
10
3.02709
20
-2.70428
11
3.02719
21
-2.70581
0
LINE
8
BLACK
6
CONTINUOUS
10
3.02719
20
-2.70581
11
3.0267
21
-2.70727
0
LINE
8
BLACK
6
CONTINUOUS
10
3.0267
20
-2.70727
11
3.01814
21
-2.7221
0
LINE
8
BLACK
6
CONTINUOUS
10
3.01814
20
-2.7221
11
3.01713
21
-2.72325
0
LINE
8
BLACK
6
CONTINUOUS
10
3.01713
20
-2.72325
11
3.01575
21
-2.72393
0
LINE
8
BLACK
6
CONTINUOUS
10
3.01575
20
-2.72393
11
3.01421
21
-2.72403
0
LINE
8
BLACK
6
CONTINUOUS
10
3.01421
20
-2.72403
11
3.01276
21
-2.72354
0
LINE
8
BLACK
6
CONTINUOUS
10
3.01276
20
-2.72354
11
3.00594
21
-2.7196
0
LINE
8
BLACK
6
CONTINUOUS
10
3.00594
20
-2.7196
11
3.00479
21
-2.71859
0
LINE
8
BLACK
6
CONTINUOUS
10
3.00479
20
-2.71859
11
3.00411
21
-2.71721
0
LINE
8
BLACK
6
CONTINUOUS
10
3.00411
20
-2.71721
11
3.00401
21
-2.71568
0
LINE
8
BLACK
6
CONTINUOUS
10
3.00401
20
-2.71568
11
3.0045
21
-2.71422
0
LINE
8
BLACK
6
CONTINUOUS
10
3.0045
20
-2.71422
11
3.01306
21
-2.69939
0
LINE
8
BLACK
6
CONTINUOUS
10
3.01306
20
-2.69939
11
3.01408
21
-2.69824
0
LINE
8
BLACK
6
CONTINUOUS
10
3.01408
20
-2.69824
11
3.01545
21
-2.69756
0
LINE
8
BLACK
6
CONTINUOUS
10
3.01545
20
-2.69756
11
3.01699
21
-2.69746
0
LINE
8
BLACK
6
CONTINUOUS
10
3.01699
20
-2.69746
11
3.01844
21
-2.69795
0
LINE
8
BLACK
6
CONTINUOUS
10
3.21411
20
-2.68947
11
3.21538
21
-2.69033
0
LINE
8
BLACK
6
CONTINUOUS
10
3.21538
20
-2.69033
11
3.21624
21
-2.6916
0
LINE
8
BLACK
6
CONTINUOUS
10
3.21624
20
-2.6916
11
3.21654
21
-2.69311
0
LINE
8
BLACK
6
CONTINUOUS
10
3.21654
20
-2.69311
11
3.21654
21
-2.71024
0
LINE
8
BLACK
6
CONTINUOUS
10
3.21654
20
-2.71024
11
3.21624
21
-2.71174
0
LINE
8
BLACK
6
CONTINUOUS
10
3.21624
20
-2.71174
11
3.21538
21
-2.71302
0
LINE
8
BLACK
6
CONTINUOUS
10
3.21538
20
-2.71302
11
3.21411
21
-2.71387
0
LINE
8
BLACK
6
CONTINUOUS
10
3.21411
20
-2.71387
11
3.2126
21
-2.71417
0
LINE
8
BLACK
6
CONTINUOUS
10
3.2126
20
-2.71417
11
3.20472
21
-2.71417
0
LINE
8
BLACK
6
CONTINUOUS
10
3.20472
20
-2.71417
11
3.20322
21
-2.71387
0
LINE
8
BLACK
6
CONTINUOUS
10
3.20322
20
-2.71387
11
3.20194
21
-2.71302
0
LINE
8
BLACK
6
CONTINUOUS
10
3.20194
20
-2.71302
11
3.20109
21
-2.71174
0
LINE
8
BLACK
6
CONTINUOUS
10
3.20109
20
-2.71174
11
3.20079
21
-2.71024
0
LINE
8
BLACK
6
CONTINUOUS
10
3.20079
20
-2.71024
11
3.20079
21
-2.69311
0
LINE
8
BLACK
6
CONTINUOUS
10
3.20079
20
-2.69311
11
3.20109
21
-2.6916
0
LINE
8
BLACK
6
CONTINUOUS
10
3.20109
20
-2.6916
11
3.20194
21
-2.69033
0
LINE
8
BLACK
6
CONTINUOUS
10
3.20194
20
-2.69033
11
3.20322
21
-2.68947
0
LINE
8
BLACK
6
CONTINUOUS
10
3.20322
20
-2.68947
11
3.20472
21
-2.68917
0
LINE
8
BLACK
6
CONTINUOUS
10
3.20472
20
-2.68917
11
3.2126
21
-2.68917
0
LINE
8
BLACK
6
CONTINUOUS
10
3.2126
20
-2.68917
11
3.21411
21
-2.68947
0
LINE
8
BLACK
6
CONTINUOUS
10
3.14173
20
-2.70866
11
3.12205
21
-2.70866
0
LINE
8
BLACK
6
CONTINUOUS
10
3.12205
20
-2.70866
11
3.12205
21
-2.68898
0
LINE
8
BLACK
6
CONTINUOUS
10
3.12205
20
-2.68898
11
3.14173
21
-2.68898
0
LINE
8
BLACK
6
CONTINUOUS
10
3.14173
20
-2.68898
11
3.14173
21
-2.70866
0
LINE
8
BLACK
6
CONTINUOUS
10
3.17717
20
-2.70866
11
3.15748
21
-2.70866
0
LINE
8
BLACK
6
CONTINUOUS
10
3.15748
20
-2.70866
11
3.15748
21
-2.68898
0
LINE
8
BLACK
6
CONTINUOUS
10
3.15748
20
-2.68898
11
3.17717
21
-2.68898
0
LINE
8
BLACK
6
CONTINUOUS
10
3.17717
20
-2.68898
11
3.17717
21
-2.70866
0
LINE
8
BLACK
6
CONTINUOUS
10
2.99237
20
-2.68966
11
2.98253
21
-2.70671
0
LINE
8
BLACK
6
CONTINUOUS
10
2.98253
20
-2.70671
11
2.96548
21
-2.69687
0
LINE
8
BLACK
6
CONTINUOUS
10
2.96548
20
-2.69687
11
2.97532
21
-2.67982
0
LINE
8
BLACK
6
CONTINUOUS
10
2.97532
20
-2.67982
11
2.99237
21
-2.68966
0
LINE
8
BLACK
6
CONTINUOUS
10
3.33373
20
-2.69687
11
3.31668
21
-2.70671
0
LINE
8
BLACK
6
CONTINUOUS
10
3.31668
20
-2.70671
11
3.30684
21
-2.68966
0
LINE
8
BLACK
6
CONTINUOUS
10
3.30684
20
-2.68966
11
3.32389
21
-2.67982
0
LINE
8
BLACK
6
CONTINUOUS
10
3.32389
20
-2.67982
11
3.33373
21
-2.69687
0
LINE
8
BLACK
6
CONTINUOUS
10
3.03448
20
-2.67016
11
3.0413
21
-2.6741
0
LINE
8
BLACK
6
CONTINUOUS
10
3.0413
20
-2.6741
11
3.04246
21
-2.67511
0
LINE
8
BLACK
6
CONTINUOUS
10
3.04246
20
-2.67511
11
3.04314
21
-2.67649
0
LINE
8
BLACK
6
CONTINUOUS
10
3.04314
20
-2.67649
11
3.04324
21
-2.67802
0
LINE
8
BLACK
6
CONTINUOUS
10
3.04324
20
-2.67802
11
3.04274
21
-2.67948
0
LINE
8
BLACK
6
CONTINUOUS
10
3.04274
20
-2.67948
11
3.03418
21
-2.69431
0
LINE
8
BLACK
6
CONTINUOUS
10
3.03418
20
-2.69431
11
3.03317
21
-2.69546
0
LINE
8
BLACK
6
CONTINUOUS
10
3.03317
20
-2.69546
11
3.03179
21
-2.69614
0
LINE
8
BLACK
6
CONTINUOUS
10
3.03179
20
-2.69614
11
3.03026
21
-2.69624
0
LINE
8
BLACK
6
CONTINUOUS
10
3.03026
20
-2.69624
11
3.0288
21
-2.69575
0
LINE
8
BLACK
6
CONTINUOUS
10
3.0288
20
-2.69575
11
3.02198
21
-2.69181
0
LINE
8
BLACK
6
CONTINUOUS
10
3.02198
20
-2.69181
11
3.02083
21
-2.6908
0
LINE
8
BLACK
6
CONTINUOUS
10
3.02083
20
-2.6908
11
3.02015
21
-2.68942
0
LINE
8
BLACK
6
CONTINUOUS
10
3.02015
20
-2.68942
11
3.02005
21
-2.68789
0
LINE
8
BLACK
6
CONTINUOUS
10
3.02005
20
-2.68789
11
3.02054
21
-2.68644
0
LINE
8
BLACK
6
CONTINUOUS
10
3.02054
20
-2.68644
11
3.02911
21
-2.6716
0
LINE
8
BLACK
6
CONTINUOUS
10
3.02911
20
-2.6716
11
3.03012
21
-2.67045
0
LINE
8
BLACK
6
CONTINUOUS
10
3.03012
20
-2.67045
11
3.0315
21
-2.66977
0
LINE
8
BLACK
6
CONTINUOUS
10
3.0315
20
-2.66977
11
3.03303
21
-2.66967
0
LINE
8
BLACK
6
CONTINUOUS
10
3.03303
20
-2.66967
11
3.03448
21
-2.67016
0
LINE
8
BLACK
6
CONTINUOUS
10
2.96168
20
-2.67195
11
2.95184
21
-2.68899
0
LINE
8
BLACK
6
CONTINUOUS
10
2.95184
20
-2.68899
11
2.93479
21
-2.67915
0
LINE
8
BLACK
6
CONTINUOUS
10
2.93479
20
-2.67915
11
2.94464
21
-2.6621
0
LINE
8
BLACK
6
CONTINUOUS
10
2.94464
20
-2.6621
11
2.96168
21
-2.67195
0
LINE
8
BLACK
6
CONTINUOUS
10
3.36442
20
-2.67915
11
3.34737
21
-2.68899
0
LINE
8
BLACK
6
CONTINUOUS
10
3.34737
20
-2.68899
11
3.33753
21
-2.67195
0
LINE
8
BLACK
6
CONTINUOUS
10
3.33753
20
-2.67195
11
3.35458
21
-2.6621
0
LINE
8
BLACK
6
CONTINUOUS
10
3.35458
20
-2.6621
11
3.36442
21
-2.67915
0
LINE
8
BLACK
6
CONTINUOUS
10
3.01009
20
-2.65898
11
3.00024
21
-2.67602
0
LINE
8
BLACK
6
CONTINUOUS
10
3.00024
20
-2.67602
11
2.9832
21
-2.66618
0
LINE
8
BLACK
6
CONTINUOUS
10
2.9832
20
-2.66618
11
2.99304
21
-2.64913
0
LINE
8
BLACK
6
CONTINUOUS
10
2.99304
20
-2.64913
11
3.01009
21
-2.65898
0
LINE
8
BLACK
6
CONTINUOUS
10
3.31602
20
-2.66618
11
3.29897
21
-2.67602
0
LINE
8
BLACK
6
CONTINUOUS
10
3.29897
20
-2.67602
11
3.28913
21
-2.65898
0
LINE
8
BLACK
6
CONTINUOUS
10
3.28913
20
-2.65898
11
3.30617
21
-2.64913
0
LINE
8
BLACK
6
CONTINUOUS
10
3.30617
20
-2.64913
11
3.31602
21
-2.66618
0
LINE
8
BLACK
6
CONTINUOUS
10
3.38612
20
-2.64115
11
3.3875
21
-2.64183
0
LINE
8
BLACK
6
CONTINUOUS
10
3.3875
20
-2.64183
11
3.38851
21
-2.64298
0
LINE
8
BLACK
6
CONTINUOUS
10
3.38851
20
-2.64298
11
3.39708
21
-2.65782
0
LINE
8
BLACK
6
CONTINUOUS
10
3.39708
20
-2.65782
11
3.39757
21
-2.65927
0
LINE
8
BLACK
6
CONTINUOUS
10
3.39757
20
-2.65927
11
3.39747
21
-2.6608
0
LINE
8
BLACK
6
CONTINUOUS
10
3.39747
20
-2.6608
11
3.39679
21
-2.66218
0
LINE
8
BLACK
6
CONTINUOUS
10
3.39679
20
-2.66218
11
3.39563
21
-2.66319
0
LINE
8
BLACK
6
CONTINUOUS
10
3.39563
20
-2.66319
11
3.38881
21
-2.66713
0
LINE
8
BLACK
6
CONTINUOUS
10
3.38881
20
-2.66713
11
3.38736
21
-2.66763
0
LINE
8
BLACK
6
CONTINUOUS
10
3.38736
20
-2.66763
11
3.38583
21
-2.66752
0
LINE
8
BLACK
6
CONTINUOUS
10
3.38583
20
-2.66752
11
3.38445
21
-2.66685
0
LINE
8
BLACK
6
CONTINUOUS
10
3.38445
20
-2.66685
11
3.38344
21
-2.66569
0
LINE
8
BLACK
6
CONTINUOUS
10
3.38344
20
-2.66569
11
3.37487
21
-2.65086
0
LINE
8
BLACK
6
CONTINUOUS
10
3.37487
20
-2.65086
11
3.37438
21
-2.6494
0
LINE
8
BLACK
6
CONTINUOUS
10
3.37438
20
-2.6494
11
3.37448
21
-2.64787
0
LINE
8
BLACK
6
CONTINUOUS
10
3.37448
20
-2.64787
11
3.37516
21
-2.64649
0
LINE
8
BLACK
6
CONTINUOUS
10
3.37516
20
-2.64649
11
3.37631
21
-2.64548
0
LINE
8
BLACK
6
CONTINUOUS
10
3.37631
20
-2.64548
11
3.38313
21
-2.64154
0
LINE
8
BLACK
6
CONTINUOUS
10
3.38313
20
-2.64154
11
3.38459
21
-2.64105
0
LINE
8
BLACK
6
CONTINUOUS
10
3.38459
20
-2.64105
11
3.38612
21
-2.64115
0
LINE
8
BLACK
6
CONTINUOUS
10
2.9794
20
-2.64126
11
2.96956
21
-2.65831
0
LINE
8
BLACK
6
CONTINUOUS
10
2.96956
20
-2.65831
11
2.95251
21
-2.64847
0
LINE
8
BLACK
6
CONTINUOUS
10
2.95251
20
-2.64847
11
2.96235
21
-2.63142
0
LINE
8
BLACK
6
CONTINUOUS
10
2.96235
20
-2.63142
11
2.9794
21
-2.64126
0
LINE
8
BLACK
6
CONTINUOUS
10
3.3467
20
-2.64847
11
3.32965
21
-2.65831
0
LINE
8
BLACK
6
CONTINUOUS
10
3.32965
20
-2.65831
11
3.31981
21
-2.64126
0
LINE
8
BLACK
6
CONTINUOUS
10
3.31981
20
-2.64126
11
3.33686
21
-2.63142
0
LINE
8
BLACK
6
CONTINUOUS
10
3.33686
20
-2.63142
11
3.3467
21
-2.64847
0
LINE
8
BLACK
6
CONTINUOUS
10
3.37008
20
-2.61336
11
3.37146
21
-2.61404
0
LINE
8
BLACK
6
CONTINUOUS
10
3.37146
20
-2.61404
11
3.37247
21
-2.6152
0
LINE
8
BLACK
6
CONTINUOUS
10
3.37247
20
-2.6152
11
3.38103
21
-2.63003
0
LINE
8
BLACK
6
CONTINUOUS
10
3.38103
20
-2.63003
11
3.38153
21
-2.63148
0
LINE
8
BLACK
6
CONTINUOUS
10
3.38153
20
-2.63148
11
3.38143
21
-2.63302
0
LINE
8
BLACK
6
CONTINUOUS
10
3.38143
20
-2.63302
11
3.38075
21
-2.63439
0
LINE
8
BLACK
6
CONTINUOUS
10
3.38075
20
-2.63439
11
3.37959
21
-2.63541
0
LINE
8
BLACK
6
CONTINUOUS
10
3.37959
20
-2.63541
11
3.37277
21
-2.63934
0
LINE
8
BLACK
6
CONTINUOUS
10
3.37277
20
-2.63934
11
3.37132
21
-2.63984
0
LINE
8
BLACK
6
CONTINUOUS
10
3.37132
20
-2.63984
11
3.36978
21
-2.63974
0
LINE
8
BLACK
6
CONTINUOUS
10
3.36978
20
-2.63974
11
3.36841
21
-2.63906
0
LINE
8
BLACK
6
CONTINUOUS
10
3.36841
20
-2.63906
11
3.36739
21
-2.6379
0
LINE
8
BLACK
6
CONTINUOUS
10
3.36739
20
-2.6379
11
3.35883
21
-2.62307
0
LINE
8
BLACK
6
CONTINUOUS
10
3.35883
20
-2.62307
11
3.35834
21
-2.62162
0
LINE
8
BLACK
6
CONTINUOUS
10
3.35834
20
-2.62162
11
3.35844
21
-2.62008
0
LINE
8
BLACK
6
CONTINUOUS
10
3.35844
20
-2.62008
11
3.35912
21
-2.61871
0
LINE
8
BLACK
6
CONTINUOUS
10
3.35912
20
-2.61871
11
3.36027
21
-2.61769
0
LINE
8
BLACK
6
CONTINUOUS
10
3.36027
20
-2.61769
11
3.36709
21
-2.61376
0
LINE
8
BLACK
6
CONTINUOUS
10
3.36709
20
-2.61376
11
3.36855
21
-2.61326
0
LINE
8
BLACK
6
CONTINUOUS
10
3.36855
20
-2.61326
11
3.37008
21
-2.61336
0
LINE
8
BLACK
6
CONTINUOUS
10
2.86659
20
-2.58511
11
2.86797
21
-2.58579
0
LINE
8
BLACK
6
CONTINUOUS
10
2.86797
20
-2.58579
11
2.86898
21
-2.58694
0
LINE
8
BLACK
6
CONTINUOUS
10
2.86898
20
-2.58694
11
2.87292
21
-2.59376
0
LINE
8
BLACK
6
CONTINUOUS
10
2.87292
20
-2.59376
11
2.87341
21
-2.59522
0
LINE
8
BLACK
6
CONTINUOUS
10
2.87341
20
-2.59522
11
2.87331
21
-2.59675
0
LINE
8
BLACK
6
CONTINUOUS
10
2.87331
20
-2.59675
11
2.87263
21
-2.59813
0
LINE
8
BLACK
6
CONTINUOUS
10
2.87263
20
-2.59813
11
2.87147
21
-2.59914
0
LINE
8
BLACK
6
CONTINUOUS
10
2.87147
20
-2.59914
11
2.85664
21
-2.6077
0
LINE
8
BLACK
6
CONTINUOUS
10
2.85664
20
-2.6077
11
2.85519
21
-2.6082
0
LINE
8
BLACK
6
CONTINUOUS
10
2.85519
20
-2.6082
11
2.85366
21
-2.6081
0
LINE
8
BLACK
6
CONTINUOUS
10
2.85366
20
-2.6081
11
2.85228
21
-2.60742
0
LINE
8
BLACK
6
CONTINUOUS
10
2.85228
20
-2.60742
11
2.85127
21
-2.60626
0
LINE
8
BLACK
6
CONTINUOUS
10
2.85127
20
-2.60626
11
2.84733
21
-2.59944
0
LINE
8
BLACK
6
CONTINUOUS
10
2.84733
20
-2.59944
11
2.84683
21
-2.59799
0
LINE
8
BLACK
6
CONTINUOUS
10
2.84683
20
-2.59799
11
2.84693
21
-2.59646
0
LINE
8
BLACK
6
CONTINUOUS
10
2.84693
20
-2.59646
11
2.84761
21
-2.59508
0
LINE
8
BLACK
6
CONTINUOUS
10
2.84761
20
-2.59508
11
2.84877
21
-2.59407
0
LINE
8
BLACK
6
CONTINUOUS
10
2.84877
20
-2.59407
11
2.8636
21
-2.5855
0
LINE
8
BLACK
6
CONTINUOUS
10
2.8636
20
-2.5855
11
2.86506
21
-2.58501
0
LINE
8
BLACK
6
CONTINUOUS
10
2.86506
20
-2.58501
11
2.86659
21
-2.58511
0
LINE
8
BLACK
6
CONTINUOUS
10
2.89438
20
-2.56907
11
2.89575
21
-2.56975
0
LINE
8
BLACK
6
CONTINUOUS
10
2.89575
20
-2.56975
11
2.89677
21
-2.5709
0
LINE
8
BLACK
6
CONTINUOUS
10
2.89677
20
-2.5709
11
2.9007
21
-2.57772
0
LINE
8
BLACK
6
CONTINUOUS
10
2.9007
20
-2.57772
11
2.9012
21
-2.57918
0
LINE
8
BLACK
6
CONTINUOUS
10
2.9012
20
-2.57918
11
2.9011
21
-2.58071
0
LINE
8
BLACK
6
CONTINUOUS
10
2.9011
20
-2.58071
11
2.90042
21
-2.58209
0
LINE
8
BLACK
6
CONTINUOUS
10
2.90042
20
-2.58209
11
2.89926
21
-2.5831
0
LINE
8
BLACK
6
CONTINUOUS
10
2.89926
20
-2.5831
11
2.88443
21
-2.59166
0
LINE
8
BLACK
6
CONTINUOUS
10
2.88443
20
-2.59166
11
2.88298
21
-2.59216
0
LINE
8
BLACK
6
CONTINUOUS
10
2.88298
20
-2.59216
11
2.88144
21
-2.59205
0
LINE
8
BLACK
6
CONTINUOUS
10
2.88144
20
-2.59205
11
2.88007
21
-2.59138
0
LINE
8
BLACK
6
CONTINUOUS
10
2.88007
20
-2.59138
11
2.87905
21
-2.59022
0
LINE
8
BLACK
6
CONTINUOUS
10
2.87905
20
-2.59022
11
2.87512
21
-2.5834
0
LINE
8
BLACK
6
CONTINUOUS
10
2.87512
20
-2.5834
11
2.87462
21
-2.58195
0
LINE
8
BLACK
6
CONTINUOUS
10
2.87462
20
-2.58195
11
2.87472
21
-2.58041
0
LINE
8
BLACK
6
CONTINUOUS
10
2.87472
20
-2.58041
11
2.8754
21
-2.57904
0
LINE
8
BLACK
6
CONTINUOUS
10
2.8754
20
-2.57904
11
2.87656
21
-2.57802
0
LINE
8
BLACK
6
CONTINUOUS
10
2.87656
20
-2.57802
11
2.89139
21
-2.56946
0
LINE
8
BLACK
6
CONTINUOUS
10
2.89139
20
-2.56946
11
2.89284
21
-2.56897
0
LINE
8
BLACK
6
CONTINUOUS
10
2.89284
20
-2.56897
11
2.89438
21
-2.56907
0
LINE
8
BLACK
6
CONTINUOUS
10
2.84971
20
-2.56717
11
2.83266
21
-2.57702
0
LINE
8
BLACK
6
CONTINUOUS
10
2.83266
20
-2.57702
11
2.82282
21
-2.55997
0
LINE
8
BLACK
6
CONTINUOUS
10
2.82282
20
-2.55997
11
2.83986
21
-2.55013
0
LINE
8
BLACK
6
CONTINUOUS
10
2.83986
20
-2.55013
11
2.84971
21
-2.56717
0
LINE
8
BLACK
6
CONTINUOUS
10
3.4764
20
-2.55997
11
3.46655
21
-2.57702
0
LINE
8
BLACK
6
CONTINUOUS
10
3.46655
20
-2.57702
11
3.44951
21
-2.56717
0
LINE
8
BLACK
6
CONTINUOUS
10
3.44951
20
-2.56717
11
3.45935
21
-2.55013
0
LINE
8
BLACK
6
CONTINUOUS
10
3.45935
20
-2.55013
11
3.4764
21
-2.55997
0
LINE
8
BLACK
6
CONTINUOUS
10
2.88039
20
-2.54946
11
2.86335
21
-2.5593
0
LINE
8
BLACK
6
CONTINUOUS
10
2.86335
20
-2.5593
11
2.8535
21
-2.54225
0
LINE
8
BLACK
6
CONTINUOUS
10
2.8535
20
-2.54225
11
2.87055
21
-2.53241
0
LINE
8
BLACK
6
CONTINUOUS
10
2.87055
20
-2.53241
11
2.88039
21
-2.54946
0
LINE
8
BLACK
6
CONTINUOUS
10
3.44571
20
-2.54225
11
3.43587
21
-2.5593
0
LINE
8
BLACK
6
CONTINUOUS
10
3.43587
20
-2.5593
11
3.41882
21
-2.54946
0
LINE
8
BLACK
6
CONTINUOUS
10
3.41882
20
-2.54946
11
3.42866
21
-2.53241
0
LINE
8
BLACK
6
CONTINUOUS
10
3.42866
20
-2.53241
11
3.44571
21
-2.54225
0
LINE
8
BLACK
6
CONTINUOUS
10
2.83199
20
-2.53649
11
2.81494
21
-2.54633
0
LINE
8
BLACK
6
CONTINUOUS
10
2.81494
20
-2.54633
11
2.8051
21
-2.52928
0
LINE
8
BLACK
6
CONTINUOUS
10
2.8051
20
-2.52928
11
2.82215
21
-2.51944
0
LINE
8
BLACK
6
CONTINUOUS
10
2.82215
20
-2.51944
11
2.83199
21
-2.53649
0
LINE
8
BLACK
6
CONTINUOUS
10
3.49411
20
-2.52928
11
3.48427
21
-2.54633
0
LINE
8
BLACK
6
CONTINUOUS
10
3.48427
20
-2.54633
11
3.46722
21
-2.53649
0
LINE
8
BLACK
6
CONTINUOUS
10
3.46722
20
-2.53649
11
3.47706
21
-2.51944
0
LINE
8
BLACK
6
CONTINUOUS
10
3.47706
20
-2.51944
11
3.49411
21
-2.52928
0
LINE
8
BLACK
6
CONTINUOUS
10
2.86268
20
-2.51877
11
2.84563
21
-2.52861
0
LINE
8
BLACK
6
CONTINUOUS
10
2.84563
20
-2.52861
11
2.83579
21
-2.51157
0
LINE
8
BLACK
6
CONTINUOUS
10
2.83579
20
-2.51157
11
2.85283
21
-2.50172
0
LINE
8
BLACK
6
CONTINUOUS
10
2.85283
20
-2.50172
11
2.86268
21
-2.51877
0
LINE
8
BLACK
6
CONTINUOUS
10
3.46343
20
-2.51157
11
3.45358
21
-2.52861
0
LINE
8
BLACK
6
CONTINUOUS
10
3.45358
20
-2.52861
11
3.43654
21
-2.51877
0
LINE
8
BLACK
6
CONTINUOUS
10
3.43654
20
-2.51877
11
3.44638
21
-2.50172
0
LINE
8
BLACK
6
CONTINUOUS
10
3.44638
20
-2.50172
11
3.46343
21
-2.51157
0
LINE
8
BLACK
6
CONTINUOUS
10
3.49664
20
-2.48708
11
3.51147
21
-2.49564
0
LINE
8
BLACK
6
CONTINUOUS
10
3.51147
20
-2.49564
11
3.51262
21
-2.49665
0
LINE
8
BLACK
6
CONTINUOUS
10
3.51262
20
-2.49665
11
3.5133
21
-2.49803
0
LINE
8
BLACK
6
CONTINUOUS
10
3.5133
20
-2.49803
11
3.5134
21
-2.49956
0
LINE
8
BLACK
6
CONTINUOUS
10
3.5134
20
-2.49956
11
3.51291
21
-2.50102
0
LINE
8
BLACK
6
CONTINUOUS
10
3.51291
20
-2.50102
11
3.50897
21
-2.50784
0
LINE
8
BLACK
6
CONTINUOUS
10
3.50897
20
-2.50784
11
3.50796
21
-2.50899
0
LINE
8
BLACK
6
CONTINUOUS
10
3.50796
20
-2.50899
11
3.50658
21
-2.50967
0
LINE
8
BLACK
6
CONTINUOUS
10
3.50658
20
-2.50967
11
3.50505
21
-2.50977
0
LINE
8
BLACK
6
CONTINUOUS
10
3.50505
20
-2.50977
11
3.50359
21
-2.50928
0
LINE
8
BLACK
6
CONTINUOUS
10
3.50359
20
-2.50928
11
3.48876
21
-2.50072
0
LINE
8
BLACK
6
CONTINUOUS
10
3.48876
20
-2.50072
11
3.48761
21
-2.4997
0
LINE
8
BLACK
6
CONTINUOUS
10
3.48761
20
-2.4997
11
3.48693
21
-2.49833
0
LINE
8
BLACK
6
CONTINUOUS
10
3.48693
20
-2.49833
11
3.48683
21
-2.49679
0
LINE
8
BLACK
6
CONTINUOUS
10
3.48683
20
-2.49679
11
3.48732
21
-2.49534
0
LINE
8
BLACK
6
CONTINUOUS
10
3.48732
20
-2.49534
11
3.49126
21
-2.48852
0
LINE
8
BLACK
6
CONTINUOUS
10
3.49126
20
-2.48852
11
3.49227
21
-2.48736
0
LINE
8
BLACK
6
CONTINUOUS
10
3.49227
20
-2.48736
11
3.49365
21
-2.48669
0
LINE
8
BLACK
6
CONTINUOUS
10
3.49365
20
-2.48669
11
3.49518
21
-2.48658
0
LINE
8
BLACK
6
CONTINUOUS
10
3.49518
20
-2.48658
11
3.49664
21
-2.48708
0
LINE
8
BLACK
6
CONTINUOUS
10
3.46885
20
-2.47104
11
3.48368
21
-2.4796
0
LINE
8
BLACK
6
CONTINUOUS
10
3.48368
20
-2.4796
11
3.48483
21
-2.48061
0
LINE
8
BLACK
6
CONTINUOUS
10
3.48483
20
-2.48061
11
3.48551
21
-2.48199
0
LINE
8
BLACK
6
CONTINUOUS
10
3.48551
20
-2.48199
11
3.48561
21
-2.48352
0
LINE
8
BLACK
6
CONTINUOUS
10
3.48561
20
-2.48352
11
3.48512
21
-2.48498
0
LINE
8
BLACK
6
CONTINUOUS
10
3.48512
20
-2.48498
11
3.48118
21
-2.4918
0
LINE
8
BLACK
6
CONTINUOUS
10
3.48118
20
-2.4918
11
3.48017
21
-2.49295
0
LINE
8
BLACK
6
CONTINUOUS
10
3.48017
20
-2.49295
11
3.47879
21
-2.49363
0
LINE
8
BLACK
6
CONTINUOUS
10
3.47879
20
-2.49363
11
3.47726
21
-2.49373
0
LINE
8
BLACK
6
CONTINUOUS
10
3.47726
20
-2.49373
11
3.47581
21
-2.49324
0
LINE
8
BLACK
6
CONTINUOUS
10
3.47581
20
-2.49324
11
3.46097
21
-2.48467
0
LINE
8
BLACK
6
CONTINUOUS
10
3.46097
20
-2.48467
11
3.45982
21
-2.48366
0
LINE
8
BLACK
6
CONTINUOUS
10
3.45982
20
-2.48366
11
3.45914
21
-2.48228
0
LINE
8
BLACK
6
CONTINUOUS
10
3.45914
20
-2.48228
11
3.45904
21
-2.48075
0
LINE
8
BLACK
6
CONTINUOUS
10
3.45904
20
-2.48075
11
3.45953
21
-2.4793
0
LINE
8
BLACK
6
CONTINUOUS
10
3.45953
20
-2.4793
11
3.46347
21
-2.47248
0
LINE
8
BLACK
6
CONTINUOUS
10
3.46347
20
-2.47248
11
3.46448
21
-2.47132
0
LINE
8
BLACK
6
CONTINUOUS
10
3.46448
20
-2.47132
11
3.46586
21
-2.47064
0
LINE
8
BLACK
6
CONTINUOUS
10
3.46586
20
-2.47064
11
3.46739
21
-2.47054
0
LINE
8
BLACK
6
CONTINUOUS
10
3.46739
20
-2.47054
11
3.46885
21
-2.47104
0
LINE
8
BLACK
6
CONTINUOUS
10
3.49442
20
-2.41959
11
3.4957
21
-2.42044
0
LINE
8
BLACK
6
CONTINUOUS
10
3.4957
20
-2.42044
11
3.49655
21
-2.42172
0
LINE
8
BLACK
6
CONTINUOUS
10
3.49655
20
-2.42172
11
3.49685
21
-2.42323
0
LINE
8
BLACK
6
CONTINUOUS
10
3.49685
20
-2.42323
11
3.49685
21
-2.4311
0
LINE
8
BLACK
6
CONTINUOUS
10
3.49685
20
-2.4311
11
3.49655
21
-2.43261
0
LINE
8
BLACK
6
CONTINUOUS
10
3.49655
20
-2.43261
11
3.4957
21
-2.43389
0
LINE
8
BLACK
6
CONTINUOUS
10
3.4957
20
-2.43389
11
3.49442
21
-2.43474
0
LINE
8
BLACK
6
CONTINUOUS
10
3.49442
20
-2.43474
11
3.49291
21
-2.43504
0
LINE
8
BLACK
6
CONTINUOUS
10
3.49291
20
-2.43504
11
3.47579
21
-2.43504
0
LINE
8
BLACK
6
CONTINUOUS
10
3.47579
20
-2.43504
11
3.47428
21
-2.43474
0
LINE
8
BLACK
6
CONTINUOUS
10
3.47428
20
-2.43474
11
3.473
21
-2.43389
0
LINE
8
BLACK
6
CONTINUOUS
10
3.473
20
-2.43389
11
3.47215
21
-2.43261
0
LINE
8
BLACK
6
CONTINUOUS
10
3.47215
20
-2.43261
11
3.47185
21
-2.4311
0
LINE
8
BLACK
6
CONTINUOUS
10
3.47185
20
-2.4311
11
3.47185
21
-2.42323
0
LINE
8
BLACK
6
CONTINUOUS
10
3.47185
20
-2.42323
11
3.47215
21
-2.42172
0
LINE
8
BLACK
6
CONTINUOUS
10
3.47215
20
-2.42172
11
3.473
21
-2.42044
0
LINE
8
BLACK
6
CONTINUOUS
10
3.473
20
-2.42044
11
3.47428
21
-2.41959
0
LINE
8
BLACK
6
CONTINUOUS
10
3.47428
20
-2.41959
11
3.47579
21
-2.41929
0
LINE
8
BLACK
6
CONTINUOUS
10
3.47579
20
-2.41929
11
3.49291
21
-2.41929
0
LINE
8
BLACK
6
CONTINUOUS
10
3.49291
20
-2.41929
11
3.49442
21
-2.41959
0
LINE
8
BLACK
6
CONTINUOUS
10
3.52651
20
-2.41959
11
3.52778
21
-2.42044
0
LINE
8
BLACK
6
CONTINUOUS
10
3.52778
20
-2.42044
11
3.52864
21
-2.42172
0
LINE
8
BLACK
6
CONTINUOUS
10
3.52864
20
-2.42172
11
3.52894
21
-2.42323
0
LINE
8
BLACK
6
CONTINUOUS
10
3.52894
20
-2.42323
11
3.52894
21
-2.4311
0
LINE
8
BLACK
6
CONTINUOUS
10
3.52894
20
-2.4311
11
3.52864
21
-2.43261
0
LINE
8
BLACK
6
CONTINUOUS
10
3.52864
20
-2.43261
11
3.52778
21
-2.43389
0
LINE
8
BLACK
6
CONTINUOUS
10
3.52778
20
-2.43389
11
3.52651
21
-2.43474
0
LINE
8
BLACK
6
CONTINUOUS
10
3.52651
20
-2.43474
11
3.525
21
-2.43504
0
LINE
8
BLACK
6
CONTINUOUS
10
3.525
20
-2.43504
11
3.50787
21
-2.43504
0
LINE
8
BLACK
6
CONTINUOUS
10
3.50787
20
-2.43504
11
3.50637
21
-2.43474
0
LINE
8
BLACK
6
CONTINUOUS
10
3.50637
20
-2.43474
11
3.50509
21
-2.43389
0
LINE
8
BLACK
6
CONTINUOUS
10
3.50509
20
-2.43389
11
3.50424
21
-2.43261
0
LINE
8
BLACK
6
CONTINUOUS
10
3.50424
20
-2.43261
11
3.50394
21
-2.4311
0
LINE
8
BLACK
6
CONTINUOUS
10
3.50394
20
-2.4311
11
3.50394
21
-2.42323
0
LINE
8
BLACK
6
CONTINUOUS
10
3.50394
20
-2.42323
11
3.50424
21
-2.42172
0
LINE
8
BLACK
6
CONTINUOUS
10
3.50424
20
-2.42172
11
3.50509
21
-2.42044
0
LINE
8
BLACK
6
CONTINUOUS
10
3.50509
20
-2.42044
11
3.50637
21
-2.41959
0
LINE
8
BLACK
6
CONTINUOUS
10
3.50637
20
-2.41959
11
3.50787
21
-2.41929
0
LINE
8
BLACK
6
CONTINUOUS
10
3.50787
20
-2.41929
11
3.525
21
-2.41929
0
LINE
8
BLACK
6
CONTINUOUS
10
3.525
20
-2.41929
11
3.52651
21
-2.41959
0
LINE
8
BLACK
6
CONTINUOUS
10
2.7893
20
-2.41369
11
2.79058
21
-2.41454
0
LINE
8
BLACK
6
CONTINUOUS
10
2.79058
20
-2.41454
11
2.79143
21
-2.41582
0
LINE
8
BLACK
6
CONTINUOUS
10
2.79143
20
-2.41582
11
2.79173
21
-2.41732
0
LINE
8
BLACK
6
CONTINUOUS
10
2.79173
20
-2.41732
11
2.79173
21
-2.4252
0
LINE
8
BLACK
6
CONTINUOUS
10
2.79173
20
-2.4252
11
2.79143
21
-2.4267
0
LINE
8
BLACK
6
CONTINUOUS
10
2.79143
20
-2.4267
11
2.79058
21
-2.42798
0
LINE
8
BLACK
6
CONTINUOUS
10
2.79058
20
-2.42798
11
2.7893
21
-2.42883
0
LINE
8
BLACK
6
CONTINUOUS
10
2.7893
20
-2.42883
11
2.7878
21
-2.42913
0
LINE
8
BLACK
6
CONTINUOUS
10
2.7878
20
-2.42913
11
2.77067
21
-2.42913
0
LINE
8
BLACK
6
CONTINUOUS
10
2.77067
20
-2.42913
11
2.76916
21
-2.42883
0
LINE
8
BLACK
6
CONTINUOUS
10
2.76916
20
-2.42883
11
2.76789
21
-2.42798
0
LINE
8
BLACK
6
CONTINUOUS
10
2.76789
20
-2.42798
11
2.76703
21
-2.4267
0
LINE
8
BLACK
6
CONTINUOUS
10
2.76703
20
-2.4267
11
2.76673
21
-2.4252
0
LINE
8
BLACK
6
CONTINUOUS
10
2.76673
20
-2.4252
11
2.76673
21
-2.41732
0
LINE
8
BLACK
6
CONTINUOUS
10
2.76673
20
-2.41732
11
2.76703
21
-2.41582
0
LINE
8
BLACK
6
CONTINUOUS
10
2.76703
20
-2.41582
11
2.76789
21
-2.41454
0
LINE
8
BLACK
6
CONTINUOUS
10
2.76789
20
-2.41454
11
2.76916
21
-2.41369
0
LINE
8
BLACK
6
CONTINUOUS
10
2.76916
20
-2.41369
11
2.77067
21
-2.41339
0
LINE
8
BLACK
6
CONTINUOUS
10
2.77067
20
-2.41339
11
2.7878
21
-2.41339
0
LINE
8
BLACK
6
CONTINUOUS
10
2.7878
20
-2.41339
11
2.7893
21
-2.41369
0
LINE
8
BLACK
6
CONTINUOUS
10
2.82139
20
-2.41369
11
2.82267
21
-2.41454
0
LINE
8
BLACK
6
CONTINUOUS
10
2.82267
20
-2.41454
11
2.82352
21
-2.41582
0
LINE
8
BLACK
6
CONTINUOUS
10
2.82352
20
-2.41582
11
2.82382
21
-2.41732
0
LINE
8
BLACK
6
CONTINUOUS
10
2.82382
20
-2.41732
11
2.82382
21
-2.4252
0
LINE
8
BLACK
6
CONTINUOUS
10
2.82382
20
-2.4252
11
2.82352
21
-2.4267
0
LINE
8
BLACK
6
CONTINUOUS
10
2.82352
20
-2.4267
11
2.82267
21
-2.42798
0
LINE
8
BLACK
6
CONTINUOUS
10
2.82267
20
-2.42798
11
2.82139
21
-2.42883
0
LINE
8
BLACK
6
CONTINUOUS
10
2.82139
20
-2.42883
11
2.81988
21
-2.42913
0
LINE
8
BLACK
6
CONTINUOUS
10
2.81988
20
-2.42913
11
2.80276
21
-2.42913
0
LINE
8
BLACK
6
CONTINUOUS
10
2.80276
20
-2.42913
11
2.80125
21
-2.42883
0
LINE
8
BLACK
6
CONTINUOUS
10
2.80125
20
-2.42883
11
2.79997
21
-2.42798
0
LINE
8
BLACK
6
CONTINUOUS
10
2.79997
20
-2.42798
11
2.79912
21
-2.4267
0
LINE
8
BLACK
6
CONTINUOUS
10
2.79912
20
-2.4267
11
2.79882
21
-2.4252
0
LINE
8
BLACK
6
CONTINUOUS
10
2.79882
20
-2.4252
11
2.79882
21
-2.41732
0
LINE
8
BLACK
6
CONTINUOUS
10
2.79882
20
-2.41732
11
2.79912
21
-2.41582
0
LINE
8
BLACK
6
CONTINUOUS
10
2.79912
20
-2.41582
11
2.79997
21
-2.41454
0
LINE
8
BLACK
6
CONTINUOUS
10
2.79997
20
-2.41454
11
2.80125
21
-2.41369
0
LINE
8
BLACK
6
CONTINUOUS
10
2.80125
20
-2.41369
11
2.80276
21
-2.41339
0
LINE
8
BLACK
6
CONTINUOUS
10
2.80276
20
-2.41339
11
2.81988
21
-2.41339
0
LINE
8
BLACK
6
CONTINUOUS
10
2.81988
20
-2.41339
11
2.82139
21
-2.41369
0
LINE
8
BLACK
6
CONTINUOUS
10
2.7874
20
-2.38976
11
2.76772
21
-2.38976
0
LINE
8
BLACK
6
CONTINUOUS
10
2.76772
20
-2.38976
11
2.76772
21
-2.37008
0
LINE
8
BLACK
6
CONTINUOUS
10
2.76772
20
-2.37008
11
2.7874
21
-2.37008
0
LINE
8
BLACK
6
CONTINUOUS
10
2.7874
20
-2.37008
11
2.7874
21
-2.38976
0
LINE
8
BLACK
6
CONTINUOUS
10
2.82283
20
-2.38976
11
2.80315
21
-2.38976
0
LINE
8
BLACK
6
CONTINUOUS
10
2.80315
20
-2.38976
11
2.80315
21
-2.37008
0
LINE
8
BLACK
6
CONTINUOUS
10
2.80315
20
-2.37008
11
2.82283
21
-2.37008
0
LINE
8
BLACK
6
CONTINUOUS
10
2.82283
20
-2.37008
11
2.82283
21
-2.38976
0
LINE
8
BLACK
6
CONTINUOUS
10
3.49606
20
-2.38976
11
3.47638
21
-2.38976
0
LINE
8
BLACK
6
CONTINUOUS
10
3.47638
20
-2.38976
11
3.47638
21
-2.37008
0
LINE
8
BLACK
6
CONTINUOUS
10
3.47638
20
-2.37008
11
3.49606
21
-2.37008
0
LINE
8
BLACK
6
CONTINUOUS
10
3.49606
20
-2.37008
11
3.49606
21
-2.38976
0
LINE
8
BLACK
6
CONTINUOUS
10
3.5315
20
-2.38976
11
3.51181
21
-2.38976
0
LINE
8
BLACK
6
CONTINUOUS
10
3.51181
20
-2.38976
11
3.51181
21
-2.37008
0
LINE
8
BLACK
6
CONTINUOUS
10
3.51181
20
-2.37008
11
3.5315
21
-2.37008
0
LINE
8
BLACK
6
CONTINUOUS
10
3.5315
20
-2.37008
11
3.5315
21
-2.38976
0
LINE
8
BLACK
6
CONTINUOUS
10
2.7874
20
-2.35433
11
2.76772
21
-2.35433
0
LINE
8
BLACK
6
CONTINUOUS
10
2.76772
20
-2.35433
11
2.76772
21
-2.33465
0
LINE
8
BLACK
6
CONTINUOUS
10
2.76772
20
-2.33465
11
2.7874
21
-2.33465
0
LINE
8
BLACK
6
CONTINUOUS
10
2.7874
20
-2.33465
11
2.7874
21
-2.35433
0
LINE
8
BLACK
6
CONTINUOUS
10
2.82283
20
-2.35433
11
2.80315
21
-2.35433
0
LINE
8
BLACK
6
CONTINUOUS
10
2.80315
20
-2.35433
11
2.80315
21
-2.33465
0
LINE
8
BLACK
6
CONTINUOUS
10
2.80315
20
-2.33465
11
2.82283
21
-2.33465
0
LINE
8
BLACK
6
CONTINUOUS
10
2.82283
20
-2.33465
11
2.82283
21
-2.35433
0
LINE
8
BLACK
6
CONTINUOUS
10
3.49606
20
-2.35433
11
3.47638
21
-2.35433
0
LINE
8
BLACK
6
CONTINUOUS
10
3.47638
20
-2.35433
11
3.47638
21
-2.33465
0
LINE
8
BLACK
6
CONTINUOUS
10
3.47638
20
-2.33465
11
3.49606
21
-2.33465
0
LINE
8
BLACK
6
CONTINUOUS
10
3.49606
20
-2.33465
11
3.49606
21
-2.35433
0
LINE
8
BLACK
6
CONTINUOUS
10
3.5315
20
-2.35433
11
3.51181
21
-2.35433
0
LINE
8
BLACK
6
CONTINUOUS
10
3.51181
20
-2.35433
11
3.51181
21
-2.33465
0
LINE
8
BLACK
6
CONTINUOUS
10
3.51181
20
-2.33465
11
3.5315
21
-2.33465
0
LINE
8
BLACK
6
CONTINUOUS
10
3.5315
20
-2.33465
11
3.5315
21
-2.35433
0
LINE
8
BLACK
6
CONTINUOUS
10
3.50387
20
-2.29951
11
3.50515
21
-2.30037
0
LINE
8
BLACK
6
CONTINUOUS
10
3.50515
20
-2.30037
11
3.506
21
-2.30164
0
LINE
8
BLACK
6
CONTINUOUS
10
3.506
20
-2.30164
11
3.5063
21
-2.30315
0
LINE
8
BLACK
6
CONTINUOUS
10
3.5063
20
-2.30315
11
3.5063
21
-2.31102
0
LINE
8
BLACK
6
CONTINUOUS
10
3.5063
20
-2.31102
11
3.506
21
-2.31253
0
LINE
8
BLACK
6
CONTINUOUS
10
3.506
20
-2.31253
11
3.50515
21
-2.31381
0
LINE
8
BLACK
6
CONTINUOUS
10
3.50515
20
-2.31381
11
3.50387
21
-2.31466
0
LINE
8
BLACK
6
CONTINUOUS
10
3.50387
20
-2.31466
11
3.50236
21
-2.31496
0
LINE
8
BLACK
6
CONTINUOUS
10
3.50236
20
-2.31496
11
3.48524
21
-2.31496
0
LINE
8
BLACK
6
CONTINUOUS
10
3.48524
20
-2.31496
11
3.48373
21
-2.31466
0
LINE
8
BLACK
6
CONTINUOUS
10
3.48373
20
-2.31466
11
3.48245
21
-2.31381
0
LINE
8
BLACK
6
CONTINUOUS
10
3.48245
20
-2.31381
11
3.4816
21
-2.31253
0
LINE
8
BLACK
6
CONTINUOUS
10
3.4816
20
-2.31253
11
3.4813
21
-2.31102
0
LINE
8
BLACK
6
CONTINUOUS
10
3.4813
20
-2.31102
11
3.4813
21
-2.30315
0
LINE
8
BLACK
6
CONTINUOUS
10
3.4813
20
-2.30315
11
3.4816
21
-2.30164
0
LINE
8
BLACK
6
CONTINUOUS
10
3.4816
20
-2.30164
11
3.48245
21
-2.30037
0
LINE
8
BLACK
6
CONTINUOUS
10
3.48245
20
-2.30037
11
3.48373
21
-2.29951
0
LINE
8
BLACK
6
CONTINUOUS
10
3.48373
20
-2.29951
11
3.48524
21
-2.29921
0
LINE
8
BLACK
6
CONTINUOUS
10
3.48524
20
-2.29921
11
3.50236
21
-2.29921
0
LINE
8
BLACK
6
CONTINUOUS
10
3.50236
20
-2.29921
11
3.50387
21
-2.29951
0
LINE
8
BLACK
6
CONTINUOUS
10
3.53596
20
-2.29951
11
3.53723
21
-2.30037
0
LINE
8
BLACK
6
CONTINUOUS
10
3.53723
20
-2.30037
11
3.53809
21
-2.30164
0
LINE
8
BLACK
6
CONTINUOUS
10
3.53809
20
-2.30164
11
3.53839
21
-2.30315
0
LINE
8
BLACK
6
CONTINUOUS
10
3.53839
20
-2.30315
11
3.53839
21
-2.31102
0
LINE
8
BLACK
6
CONTINUOUS
10
3.53839
20
-2.31102
11
3.53809
21
-2.31253
0
LINE
8
BLACK
6
CONTINUOUS
10
3.53809
20
-2.31253
11
3.53723
21
-2.31381
0
LINE
8
BLACK
6
CONTINUOUS
10
3.53723
20
-2.31381
11
3.53596
21
-2.31466
0
LINE
8
BLACK
6
CONTINUOUS
10
3.53596
20
-2.31466
11
3.53445
21
-2.31496
0
LINE
8
BLACK
6
CONTINUOUS
10
3.53445
20
-2.31496
11
3.51732
21
-2.31496
0
LINE
8
BLACK
6
CONTINUOUS
10
3.51732
20
-2.31496
11
3.51582
21
-2.31466
0
LINE
8
BLACK
6
CONTINUOUS
10
3.51582
20
-2.31466
11
3.51454
21
-2.31381
0
LINE
8
BLACK
6
CONTINUOUS
10
3.51454
20
-2.31381
11
3.51369
21
-2.31253
0
LINE
8
BLACK
6
CONTINUOUS
10
3.51369
20
-2.31253
11
3.51339
21
-2.31102
0
LINE
8
BLACK
6
CONTINUOUS
10
3.51339
20
-2.31102
11
3.51339
21
-2.30315
0
LINE
8
BLACK
6
CONTINUOUS
10
3.51339
20
-2.30315
11
3.51369
21
-2.30164
0
LINE
8
BLACK
6
CONTINUOUS
10
3.51369
20
-2.30164
11
3.51454
21
-2.30037
0
LINE
8
BLACK
6
CONTINUOUS
10
3.51454
20
-2.30037
11
3.51582
21
-2.29951
0
LINE
8
BLACK
6
CONTINUOUS
10
3.51582
20
-2.29951
11
3.51732
21
-2.29921
0
LINE
8
BLACK
6
CONTINUOUS
10
3.51732
20
-2.29921
11
3.53445
21
-2.29921
0
LINE
8
BLACK
6
CONTINUOUS
10
3.53445
20
-2.29921
11
3.53596
21
-2.29951
0
LINE
8
BLACK
6
CONTINUOUS
10
3.50143
20
-2.2616
11
3.50223
21
-2.26214
0
LINE
8
BLACK
6
CONTINUOUS
10
3.50223
20
-2.26214
11
3.50277
21
-2.26294
0
LINE
8
BLACK
6
CONTINUOUS
10
3.50277
20
-2.26294
11
3.50295
21
-2.26388
0
LINE
8
BLACK
6
CONTINUOUS
10
3.50295
20
-2.26388
11
3.50295
21
-2.27313
0
LINE
8
BLACK
6
CONTINUOUS
10
3.50295
20
-2.27313
11
3.50277
21
-2.27407
0
LINE
8
BLACK
6
CONTINUOUS
10
3.50277
20
-2.27407
11
3.50223
21
-2.27487
0
LINE
8
BLACK
6
CONTINUOUS
10
3.50223
20
-2.27487
11
3.50143
21
-2.2754
0
LINE
8
BLACK
6
CONTINUOUS
10
3.50143
20
-2.2754
11
3.50049
21
-2.27559
0
LINE
8
BLACK
6
CONTINUOUS
10
3.50049
20
-2.27559
11
3.49557
21
-2.27559
0
LINE
8
BLACK
6
CONTINUOUS
10
3.49557
20
-2.27559
11
3.49463
21
-2.2754
0
LINE
8
BLACK
6
CONTINUOUS
10
3.49463
20
-2.2754
11
3.49383
21
-2.27487
0
LINE
8
BLACK
6
CONTINUOUS
10
3.49383
20
-2.27487
11
3.4933
21
-2.27407
0
LINE
8
BLACK
6
CONTINUOUS
10
3.4933
20
-2.27407
11
3.49311
21
-2.27313
0
LINE
8
BLACK
6
CONTINUOUS
10
3.49311
20
-2.27313
11
3.49311
21
-2.26388
0
LINE
8
BLACK
6
CONTINUOUS
10
3.49311
20
-2.26388
11
3.4933
21
-2.26294
0
LINE
8
BLACK
6
CONTINUOUS
10
3.4933
20
-2.26294
11
3.49383
21
-2.26214
0
LINE
8
BLACK
6
CONTINUOUS
10
3.49383
20
-2.26214
11
3.49463
21
-2.2616
0
LINE
8
BLACK
6
CONTINUOUS
10
3.49463
20
-2.2616
11
3.49557
21
-2.26142
0
LINE
8
BLACK
6
CONTINUOUS
10
3.49557
20
-2.26142
11
3.50049
21
-2.26142
0
LINE
8
BLACK
6
CONTINUOUS
10
3.50049
20
-2.26142
11
3.50143
21
-2.2616
0
LINE
8
BLACK
6
CONTINUOUS
10
2.82538
20
-2.23314
11
2.84021
21
-2.2417
0
LINE
8
BLACK
6
CONTINUOUS
10
2.84021
20
-2.2417
11
2.84136
21
-2.24272
0
LINE
8
BLACK
6
CONTINUOUS
10
2.84136
20
-2.24272
11
2.84204
21
-2.2441
0
LINE
8
BLACK
6
CONTINUOUS
10
2.84204
20
-2.2441
11
2.84214
21
-2.24563
0
LINE
8
BLACK
6
CONTINUOUS
10
2.84214
20
-2.24563
11
2.84165
21
-2.24708
0
LINE
8
BLACK
6
CONTINUOUS
10
2.84165
20
-2.24708
11
2.83771
21
-2.2539
0
LINE
8
BLACK
6
CONTINUOUS
10
2.83771
20
-2.2539
11
2.8367
21
-2.25506
0
LINE
8
BLACK
6
CONTINUOUS
10
2.8367
20
-2.25506
11
2.83532
21
-2.25574
0
LINE
8
BLACK
6
CONTINUOUS
10
2.83532
20
-2.25574
11
2.83379
21
-2.25584
0
LINE
8
BLACK
6
CONTINUOUS
10
2.83379
20
-2.25584
11
2.83233
21
-2.25534
0
LINE
8
BLACK
6
CONTINUOUS
10
2.83233
20
-2.25534
11
2.8175
21
-2.24678
0
LINE
8
BLACK
6
CONTINUOUS
10
2.8175
20
-2.24678
11
2.81635
21
-2.24577
0
LINE
8
BLACK
6
CONTINUOUS
10
2.81635
20
-2.24577
11
2.81567
21
-2.24439
0
LINE
8
BLACK
6
CONTINUOUS
10
2.81567
20
-2.24439
11
2.81557
21
-2.24286
0
LINE
8
BLACK
6
CONTINUOUS
10
2.81557
20
-2.24286
11
2.81606
21
-2.2414
0
LINE
8
BLACK
6
CONTINUOUS
10
2.81606
20
-2.2414
11
2.82
21
-2.23458
0
LINE
8
BLACK
6
CONTINUOUS
10
2.82
20
-2.23458
11
2.82101
21
-2.23343
0
LINE
8
BLACK
6
CONTINUOUS
10
2.82101
20
-2.23343
11
2.82239
21
-2.23275
0
LINE
8
BLACK
6
CONTINUOUS
10
2.82239
20
-2.23275
11
2.82392
21
-2.23265
0
LINE
8
BLACK
6
CONTINUOUS
10
2.82392
20
-2.23265
11
2.82538
21
-2.23314
0
LINE
8
BLACK
6
CONTINUOUS
10
3.50143
20
-2.22853
11
3.50223
21
-2.22907
0
LINE
8
BLACK
6
CONTINUOUS
10
3.50223
20
-2.22907
11
3.50277
21
-2.22987
0
LINE
8
BLACK
6
CONTINUOUS
10
3.50277
20
-2.22987
11
3.50295
21
-2.23081
0
LINE
8
BLACK
6
CONTINUOUS
10
3.50295
20
-2.23081
11
3.50295
21
-2.24006
0
LINE
8
BLACK
6
CONTINUOUS
10
3.50295
20
-2.24006
11
3.50277
21
-2.241
0
LINE
8
BLACK
6
CONTINUOUS
10
3.50277
20
-2.241
11
3.50223
21
-2.2418
0
LINE
8
BLACK
6
CONTINUOUS
10
3.50223
20
-2.2418
11
3.50143
21
-2.24233
0
LINE
8
BLACK
6
CONTINUOUS
10
3.50143
20
-2.24233
11
3.50049
21
-2.24252
0
LINE
8
BLACK
6
CONTINUOUS
10
3.50049
20
-2.24252
11
3.49557
21
-2.24252
0
LINE
8
BLACK
6
CONTINUOUS
10
3.49557
20
-2.24252
11
3.49463
21
-2.24233
0
LINE
8
BLACK
6
CONTINUOUS
10
3.49463
20
-2.24233
11
3.49383
21
-2.2418
0
LINE
8
BLACK
6
CONTINUOUS
10
3.49383
20
-2.2418
11
3.4933
21
-2.241
0
LINE
8
BLACK
6
CONTINUOUS
10
3.4933
20
-2.241
11
3.49311
21
-2.24006
0
LINE
8
BLACK
6
CONTINUOUS
10
3.49311
20
-2.24006
11
3.49311
21
-2.23081
0
LINE
8
BLACK
6
CONTINUOUS
10
3.49311
20
-2.23081
11
3.4933
21
-2.22987
0
LINE
8
BLACK
6
CONTINUOUS
10
3.4933
20
-2.22987
11
3.49383
21
-2.22907
0
LINE
8
BLACK
6
CONTINUOUS
10
3.49383
20
-2.22907
11
3.49463
21
-2.22853
0
LINE
8
BLACK
6
CONTINUOUS
10
3.49463
20
-2.22853
11
3.49557
21
-2.22835
0
LINE
8
BLACK
6
CONTINUOUS
10
3.49557
20
-2.22835
11
3.50049
21
-2.22835
0
LINE
8
BLACK
6
CONTINUOUS
10
3.50049
20
-2.22835
11
3.50143
21
-2.22853
0
LINE
8
BLACK
6
CONTINUOUS
10
2.79759
20
-2.2171
11
2.81242
21
-2.22566
0
LINE
8
BLACK
6
CONTINUOUS
10
2.81242
20
-2.22566
11
2.81357
21
-2.22667
0
LINE
8
BLACK
6
CONTINUOUS
10
2.81357
20
-2.22667
11
2.81425
21
-2.22805
0
LINE
8
BLACK
6
CONTINUOUS
10
2.81425
20
-2.22805
11
2.81435
21
-2.22958
0
LINE
8
BLACK
6
CONTINUOUS
10
2.81435
20
-2.22958
11
2.81386
21
-2.23104
0
LINE
8
BLACK
6
CONTINUOUS
10
2.81386
20
-2.23104
11
2.80992
21
-2.23786
0
LINE
8
BLACK
6
CONTINUOUS
10
2.80992
20
-2.23786
11
2.80891
21
-2.23901
0
LINE
8
BLACK
6
CONTINUOUS
10
2.80891
20
-2.23901
11
2.80753
21
-2.23969
0
LINE
8
BLACK
6
CONTINUOUS
10
2.80753
20
-2.23969
11
2.806
21
-2.23979
0
LINE
8
BLACK
6
CONTINUOUS
10
2.806
20
-2.23979
11
2.80455
21
-2.2393
0
LINE
8
BLACK
6
CONTINUOUS
10
2.80455
20
-2.2393
11
2.78971
21
-2.23074
0
LINE
8
BLACK
6
CONTINUOUS
10
2.78971
20
-2.23074
11
2.78856
21
-2.22972
0
LINE
8
BLACK
6
CONTINUOUS
10
2.78856
20
-2.22972
11
2.78788
21
-2.22835
0
LINE
8
BLACK
6
CONTINUOUS
10
2.78788
20
-2.22835
11
2.78778
21
-2.22681
0
LINE
8
BLACK
6
CONTINUOUS
10
2.78778
20
-2.22681
11
2.78827
21
-2.22536
0
LINE
8
BLACK
6
CONTINUOUS
10
2.78827
20
-2.22536
11
2.79221
21
-2.21854
0
LINE
8
BLACK
6
CONTINUOUS
10
2.79221
20
-2.21854
11
2.79322
21
-2.21738
0
LINE
8
BLACK
6
CONTINUOUS
10
2.79322
20
-2.21738
11
2.7946
21
-2.2167
0
LINE
8
BLACK
6
CONTINUOUS
10
2.7946
20
-2.2167
11
2.79613
21
-2.2166
0
LINE
8
BLACK
6
CONTINUOUS
10
2.79613
20
-2.2166
11
2.79759
21
-2.2171
0
LINE
8
BLACK
6
CONTINUOUS
10
2.86268
20
-2.20564
11
2.85283
21
-2.22269
0
LINE
8
BLACK
6
CONTINUOUS
10
2.85283
20
-2.22269
11
2.83579
21
-2.21284
0
LINE
8
BLACK
6
CONTINUOUS
10
2.83579
20
-2.21284
11
2.84563
21
-2.1958
0
LINE
8
BLACK
6
CONTINUOUS
10
2.84563
20
-2.1958
11
2.86268
21
-2.20564
0
LINE
8
BLACK
6
CONTINUOUS
10
3.46343
20
-2.21284
11
3.44638
21
-2.22269
0
LINE
8
BLACK
6
CONTINUOUS
10
3.44638
20
-2.22269
11
3.43654
21
-2.20564
0
LINE
8
BLACK
6
CONTINUOUS
10
3.43654
20
-2.20564
11
3.45358
21
-2.1958
0
LINE
8
BLACK
6
CONTINUOUS
10
3.45358
20
-2.1958
11
3.46343
21
-2.21284
0
LINE
8
BLACK
6
CONTINUOUS
10
2.83199
20
-2.18792
11
2.82215
21
-2.20497
0
LINE
8
BLACK
6
CONTINUOUS
10
2.82215
20
-2.20497
11
2.8051
21
-2.19513
0
LINE
8
BLACK
6
CONTINUOUS
10
2.8051
20
-2.19513
11
2.81494
21
-2.17808
0
LINE
8
BLACK
6
CONTINUOUS
10
2.81494
20
-2.17808
11
2.83199
21
-2.18792
0
LINE
8
BLACK
6
CONTINUOUS
10
3.49411
20
-2.19513
11
3.47706
21
-2.20497
0
LINE
8
BLACK
6
CONTINUOUS
10
3.47706
20
-2.20497
11
3.46722
21
-2.18792
0
LINE
8
BLACK
6
CONTINUOUS
10
3.46722
20
-2.18792
11
3.48427
21
-2.17808
0
LINE
8
BLACK
6
CONTINUOUS
10
3.48427
20
-2.17808
11
3.49411
21
-2.19513
0
LINE
8
BLACK
6
CONTINUOUS
10
2.88039
20
-2.17495
11
2.87055
21
-2.192
0
LINE
8
BLACK
6
CONTINUOUS
10
2.87055
20
-2.192
11
2.8535
21
-2.18216
0
LINE
8
BLACK
6
CONTINUOUS
10
2.8535
20
-2.18216
11
2.86335
21
-2.16511
0
LINE
8
BLACK
6
CONTINUOUS
10
2.86335
20
-2.16511
11
2.88039
21
-2.17495
0
LINE
8
BLACK
6
CONTINUOUS
10
3.44571
20
-2.18216
11
3.42866
21
-2.192
0
LINE
8
BLACK
6
CONTINUOUS
10
3.42866
20
-2.192
11
3.41882
21
-2.17495
0
LINE
8
BLACK
6
CONTINUOUS
10
3.41882
20
-2.17495
11
3.43587
21
-2.16511
0
LINE
8
BLACK
6
CONTINUOUS
10
3.43587
20
-2.16511
11
3.44571
21
-2.18216
0
LINE
8
BLACK
6
CONTINUOUS
10
2.84971
20
-2.15724
11
2.83986
21
-2.17428
0
LINE
8
BLACK
6
CONTINUOUS
10
2.83986
20
-2.17428
11
2.82282
21
-2.16444
0
LINE
8
BLACK
6
CONTINUOUS
10
2.82282
20
-2.16444
11
2.83266
21
-2.14739
0
LINE
8
BLACK
6
CONTINUOUS
10
2.83266
20
-2.14739
11
2.84971
21
-2.15724
0
LINE
8
BLACK
6
CONTINUOUS
10
3.4764
20
-2.16444
11
3.45935
21
-2.17428
0
LINE
8
BLACK
6
CONTINUOUS
10
3.45935
20
-2.17428
11
3.44951
21
-2.15724
0
LINE
8
BLACK
6
CONTINUOUS
10
3.44951
20
-2.15724
11
3.46655
21
-2.14739
0
LINE
8
BLACK
6
CONTINUOUS
10
3.46655
20
-2.14739
11
3.4764
21
-2.16444
0
LINE
8
BLACK
6
CONTINUOUS
10
3.41777
20
-2.13235
11
3.41915
21
-2.13303
0
LINE
8
BLACK
6
CONTINUOUS
10
3.41915
20
-2.13303
11
3.42016
21
-2.13419
0
LINE
8
BLACK
6
CONTINUOUS
10
3.42016
20
-2.13419
11
3.4241
21
-2.14101
0
LINE
8
BLACK
6
CONTINUOUS
10
3.4241
20
-2.14101
11
3.42459
21
-2.14246
0
LINE
8
BLACK
6
CONTINUOUS
10
3.42459
20
-2.14246
11
3.42449
21
-2.144
0
LINE
8
BLACK
6
CONTINUOUS
10
3.42449
20
-2.144
11
3.42381
21
-2.14537
0
LINE
8
BLACK
6
CONTINUOUS
10
3.42381
20
-2.14537
11
3.42266
21
-2.14639
0
LINE
8
BLACK
6
CONTINUOUS
10
3.42266
20
-2.14639
11
3.40782
21
-2.15495
0
LINE
8
BLACK
6
CONTINUOUS
10
3.40782
20
-2.15495
11
3.40637
21
-2.15544
0
LINE
8
BLACK
6
CONTINUOUS
10
3.40637
20
-2.15544
11
3.40484
21
-2.15534
0
LINE
8
BLACK
6
CONTINUOUS
10
3.40484
20
-2.15534
11
3.40346
21
-2.15466
0
LINE
8
BLACK
6
CONTINUOUS
10
3.40346
20
-2.15466
11
3.40245
21
-2.15351
0
LINE
8
BLACK
6
CONTINUOUS
10
3.40245
20
-2.15351
11
3.39851
21
-2.14669
0
LINE
8
BLACK
6
CONTINUOUS
10
3.39851
20
-2.14669
11
3.39802
21
-2.14523
0
LINE
8
BLACK
6
CONTINUOUS
10
3.39802
20
-2.14523
11
3.39812
21
-2.1437
0
LINE
8
BLACK
6
CONTINUOUS
10
3.39812
20
-2.1437
11
3.3988
21
-2.14232
0
LINE
8
BLACK
6
CONTINUOUS
10
3.3988
20
-2.14232
11
3.39995
21
-2.14131
0
LINE
8
BLACK
6
CONTINUOUS
10
3.39995
20
-2.14131
11
3.41478
21
-2.13275
0
LINE
8
BLACK
6
CONTINUOUS
10
3.41478
20
-2.13275
11
3.41624
21
-2.13225
0
LINE
8
BLACK
6
CONTINUOUS
10
3.41624
20
-2.13225
11
3.41777
21
-2.13235
0
LINE
8
BLACK
6
CONTINUOUS
10
3.44556
20
-2.11631
11
3.44693
21
-2.11699
0
LINE
8
BLACK
6
CONTINUOUS
10
3.44693
20
-2.11699
11
3.44795
21
-2.11815
0
LINE
8
BLACK
6
CONTINUOUS
10
3.44795
20
-2.11815
11
3.45188
21
-2.12496
0
LINE
8
BLACK
6
CONTINUOUS
10
3.45188
20
-2.12496
11
3.45238
21
-2.12642
0
LINE
8
BLACK
6
CONTINUOUS
10
3.45238
20
-2.12642
11
3.45228
21
-2.12795
0
LINE
8
BLACK
6
CONTINUOUS
10
3.45228
20
-2.12795
11
3.4516
21
-2.12933
0
LINE
8
BLACK
6
CONTINUOUS
10
3.4516
20
-2.12933
11
3.45044
21
-2.13034
0
LINE
8
BLACK
6
CONTINUOUS
10
3.45044
20
-2.13034
11
3.43561
21
-2.13891
0
LINE
8
BLACK
6
CONTINUOUS
10
3.43561
20
-2.13891
11
3.43416
21
-2.1394
0
LINE
8
BLACK
6
CONTINUOUS
10
3.43416
20
-2.1394
11
3.43262
21
-2.1393
0
LINE
8
BLACK
6
CONTINUOUS
10
3.43262
20
-2.1393
11
3.43125
21
-2.13862
0
LINE
8
BLACK
6
CONTINUOUS
10
3.43125
20
-2.13862
11
3.43023
21
-2.13746
0
LINE
8
BLACK
6
CONTINUOUS
10
3.43023
20
-2.13746
11
3.4263
21
-2.13065
0
LINE
8
BLACK
6
CONTINUOUS
10
3.4263
20
-2.13065
11
3.4258
21
-2.12919
0
LINE
8
BLACK
6
CONTINUOUS
10
3.4258
20
-2.12919
11
3.4259
21
-2.12766
0
LINE
8
BLACK
6
CONTINUOUS
10
3.4259
20
-2.12766
11
3.42658
21
-2.12628
0
LINE
8
BLACK
6
CONTINUOUS
10
3.42658
20
-2.12628
11
3.42774
21
-2.12527
0
LINE
8
BLACK
6
CONTINUOUS
10
3.42774
20
-2.12527
11
3.44257
21
-2.1167
0
LINE
8
BLACK
6
CONTINUOUS
10
3.44257
20
-2.1167
11
3.44402
21
-2.11621
0
LINE
8
BLACK
6
CONTINUOUS
10
3.44402
20
-2.11621
11
3.44556
21
-2.11631
0
LINE
8
BLACK
6
CONTINUOUS
10
2.92903
20
-2.08467
11
2.93041
21
-2.08535
0
LINE
8
BLACK
6
CONTINUOUS
10
2.93041
20
-2.08535
11
2.93143
21
-2.08651
0
LINE
8
BLACK
6
CONTINUOUS
10
2.93143
20
-2.08651
11
2.93999
21
-2.10134
0
LINE
8
BLACK
6
CONTINUOUS
10
2.93999
20
-2.10134
11
2.94048
21
-2.10279
0
LINE
8
BLACK
6
CONTINUOUS
10
2.94048
20
-2.10279
11
2.94038
21
-2.10433
0
LINE
8
BLACK
6
CONTINUOUS
10
2.94038
20
-2.10433
11
2.9397
21
-2.1057
0
LINE
8
BLACK
6
CONTINUOUS
10
2.9397
20
-2.1057
11
2.93855
21
-2.10672
0
LINE
8
BLACK
6
CONTINUOUS
10
2.93855
20
-2.10672
11
2.93173
21
-2.11065
0
LINE
8
BLACK
6
CONTINUOUS
10
2.93173
20
-2.11065
11
2.93027
21
-2.11115
0
LINE
8
BLACK
6
CONTINUOUS
10
2.93027
20
-2.11115
11
2.92874
21
-2.11105
0
LINE
8
BLACK
6
CONTINUOUS
10
2.92874
20
-2.11105
11
2.92736
21
-2.11037
0
LINE
8
BLACK
6
CONTINUOUS
10
2.92736
20
-2.11037
11
2.92635
21
-2.10921
0
LINE
8
BLACK
6
CONTINUOUS
10
2.92635
20
-2.10921
11
2.91779
21
-2.09438
0
LINE
8
BLACK
6
CONTINUOUS
10
2.91779
20
-2.09438
11
2.91729
21
-2.09293
0
LINE
8
BLACK
6
CONTINUOUS
10
2.91729
20
-2.09293
11
2.91739
21
-2.09139
0
LINE
8
BLACK
6
CONTINUOUS
10
2.91739
20
-2.09139
11
2.91807
21
-2.09002
0
LINE
8
BLACK
6
CONTINUOUS
10
2.91807
20
-2.09002
11
2.91923
21
-2.089
0
LINE
8
BLACK
6
CONTINUOUS
10
2.91923
20
-2.089
11
2.92605
21
-2.08507
0
LINE
8
BLACK
6
CONTINUOUS
10
2.92605
20
-2.08507
11
2.9275
21
-2.08457
0
LINE
8
BLACK
6
CONTINUOUS
10
2.9275
20
-2.08457
11
2.92903
21
-2.08467
0
LINE
8
BLACK
6
CONTINUOUS
10
2.9794
20
-2.08315
11
2.96235
21
-2.09299
0
LINE
8
BLACK
6
CONTINUOUS
10
2.96235
20
-2.09299
11
2.95251
21
-2.07594
0
LINE
8
BLACK
6
CONTINUOUS
10
2.95251
20
-2.07594
11
2.96956
21
-2.0661
0
LINE
8
BLACK
6
CONTINUOUS
10
2.96956
20
-2.0661
11
2.9794
21
-2.08315
0
LINE
8
BLACK
6
CONTINUOUS
10
3.3467
20
-2.07594
11
3.33686
21
-2.09299
0
LINE
8
BLACK
6
CONTINUOUS
10
3.33686
20
-2.09299
11
3.31981
21
-2.08315
0
LINE
8
BLACK
6
CONTINUOUS
10
3.31981
20
-2.08315
11
3.32965
21
-2.0661
0
LINE
8
BLACK
6
CONTINUOUS
10
3.32965
20
-2.0661
11
3.3467
21
-2.07594
0
LINE
8
BLACK
6
CONTINUOUS
10
2.91299
20
-2.05688
11
2.91437
21
-2.05756
0
LINE
8
BLACK
6
CONTINUOUS
10
2.91437
20
-2.05756
11
2.91538
21
-2.05872
0
LINE
8
BLACK
6
CONTINUOUS
10
2.91538
20
-2.05872
11
2.92395
21
-2.07355
0
LINE
8
BLACK
6
CONTINUOUS
10
2.92395
20
-2.07355
11
2.92444
21
-2.07501
0
LINE
8
BLACK
6
CONTINUOUS
10
2.92444
20
-2.07501
11
2.92434
21
-2.07654
0
LINE
8
BLACK
6
CONTINUOUS
10
2.92434
20
-2.07654
11
2.92366
21
-2.07792
0
LINE
8
BLACK
6
CONTINUOUS
10
2.92366
20
-2.07792
11
2.9225
21
-2.07893
0
LINE
8
BLACK
6
CONTINUOUS
10
2.9225
20
-2.07893
11
2.91568
21
-2.08287
0
LINE
8
BLACK
6
CONTINUOUS
10
2.91568
20
-2.08287
11
2.91423
21
-2.08336
0
LINE
8
BLACK
6
CONTINUOUS
10
2.91423
20
-2.08336
11
2.9127
21
-2.08326
0
LINE
8
BLACK
6
CONTINUOUS
10
2.9127
20
-2.08326
11
2.91132
21
-2.08258
0
LINE
8
BLACK
6
CONTINUOUS
10
2.91132
20
-2.08258
11
2.91031
21
-2.08142
0
LINE
8
BLACK
6
CONTINUOUS
10
2.91031
20
-2.08142
11
2.90174
21
-2.06659
0
LINE
8
BLACK
6
CONTINUOUS
10
2.90174
20
-2.06659
11
2.90125
21
-2.06514
0
LINE
8
BLACK
6
CONTINUOUS
10
2.90125
20
-2.06514
11
2.90135
21
-2.06361
0
LINE
8
BLACK
6
CONTINUOUS
10
2.90135
20
-2.06361
11
2.90203
21
-2.06223
0
LINE
8
BLACK
6
CONTINUOUS
10
2.90203
20
-2.06223
11
2.90318
21
-2.06122
0
LINE
8
BLACK
6
CONTINUOUS
10
2.90318
20
-2.06122
11
2.91
21
-2.05728
0
LINE
8
BLACK
6
CONTINUOUS
10
2.91
20
-2.05728
11
2.91146
21
-2.05678
0
LINE
8
BLACK
6
CONTINUOUS
10
2.91146
20
-2.05678
11
2.91299
21
-2.05688
0
LINE
8
BLACK
6
CONTINUOUS
10
3.01009
20
-2.06543
11
2.99304
21
-2.07528
0
LINE
8
BLACK
6
CONTINUOUS
10
2.99304
20
-2.07528
11
2.9832
21
-2.05823
0
LINE
8
BLACK
6
CONTINUOUS
10
2.9832
20
-2.05823
11
3.00024
21
-2.04838
0
LINE
8
BLACK
6
CONTINUOUS
10
3.00024
20
-2.04838
11
3.01009
21
-2.06543
0
LINE
8
BLACK
6
CONTINUOUS
10
3.31602
20
-2.05823
11
3.30617
21
-2.07528
0
LINE
8
BLACK
6
CONTINUOUS
10
3.30617
20
-2.07528
11
3.28913
21
-2.06543
0
LINE
8
BLACK
6
CONTINUOUS
10
3.28913
20
-2.06543
11
3.29897
21
-2.04838
0
LINE
8
BLACK
6
CONTINUOUS
10
3.29897
20
-2.04838
11
3.31602
21
-2.05823
0
LINE
8
BLACK
6
CONTINUOUS
10
2.96168
20
-2.05246
11
2.94464
21
-2.06231
0
LINE
8
BLACK
6
CONTINUOUS
10
2.94464
20
-2.06231
11
2.93479
21
-2.04526
0
LINE
8
BLACK
6
CONTINUOUS
10
2.93479
20
-2.04526
11
2.95184
21
-2.03542
0
LINE
8
BLACK
6
CONTINUOUS
10
2.95184
20
-2.03542
11
2.96168
21
-2.05246
0
LINE
8
BLACK
6
CONTINUOUS
10
3.36442
20
-2.04526
11
3.35458
21
-2.06231
0
LINE
8
BLACK
6
CONTINUOUS
10
3.35458
20
-2.06231
11
3.33753
21
-2.05246
0
LINE
8
BLACK
6
CONTINUOUS
10
3.33753
20
-2.05246
11
3.34737
21
-2.03542
0
LINE
8
BLACK
6
CONTINUOUS
10
3.34737
20
-2.03542
11
3.36442
21
-2.04526
0
LINE
8
BLACK
6
CONTINUOUS
10
3.27041
20
-2.02866
11
3.27723
21
-2.0326
0
LINE
8
BLACK
6
CONTINUOUS
10
3.27723
20
-2.0326
11
3.27838
21
-2.03361
0
LINE
8
BLACK
6
CONTINUOUS
10
3.27838
20
-2.03361
11
3.27906
21
-2.03499
0
LINE
8
BLACK
6
CONTINUOUS
10
3.27906
20
-2.03499
11
3.27916
21
-2.03652
0
LINE
8
BLACK
6
CONTINUOUS
10
3.27916
20
-2.03652
11
3.27867
21
-2.03797
0
LINE
8
BLACK
6
CONTINUOUS
10
3.27867
20
-2.03797
11
3.27011
21
-2.05281
0
LINE
8
BLACK
6
CONTINUOUS
10
3.27011
20
-2.05281
11
3.26909
21
-2.05396
0
LINE
8
BLACK
6
CONTINUOUS
10
3.26909
20
-2.05396
11
3.26772
21
-2.05464
0
LINE
8
BLACK
6
CONTINUOUS
10
3.26772
20
-2.05464
11
3.26618
21
-2.05474
0
LINE
8
BLACK
6
CONTINUOUS
10
3.26618
20
-2.05474
11
3.26473
21
-2.05425
0
LINE
8
BLACK
6
CONTINUOUS
10
3.26473
20
-2.05425
11
3.25791
21
-2.05031
0
LINE
8
BLACK
6
CONTINUOUS
10
3.25791
20
-2.05031
11
3.25675
21
-2.0493
0
LINE
8
BLACK
6
CONTINUOUS
10
3.25675
20
-2.0493
11
3.25607
21
-2.04792
0
LINE
8
BLACK
6
CONTINUOUS
10
3.25607
20
-2.04792
11
3.25597
21
-2.04639
0
LINE
8
BLACK
6
CONTINUOUS
10
3.25597
20
-2.04639
11
3.25647
21
-2.04493
0
LINE
8
BLACK
6
CONTINUOUS
10
3.25647
20
-2.04493
11
3.26503
21
-2.0301
0
LINE
8
BLACK
6
CONTINUOUS
10
3.26503
20
-2.0301
11
3.26604
21
-2.02895
0
LINE
8
BLACK
6
CONTINUOUS
10
3.26604
20
-2.02895
11
3.26742
21
-2.02827
0
LINE
8
BLACK
6
CONTINUOUS
10
3.26742
20
-2.02827
11
3.26895
21
-2.02817
0
LINE
8
BLACK
6
CONTINUOUS
10
3.26895
20
-2.02817
11
3.27041
21
-2.02866
0
LINE
8
BLACK
6
CONTINUOUS
10
2.99237
20
-2.03475
11
2.97532
21
-2.04459
0
LINE
8
BLACK
6
CONTINUOUS
10
2.97532
20
-2.04459
11
2.96548
21
-2.02754
0
LINE
8
BLACK
6
CONTINUOUS
10
2.96548
20
-2.02754
11
2.98253
21
-2.0177
0
LINE
8
BLACK
6
CONTINUOUS
10
2.98253
20
-2.0177
11
2.99237
21
-2.03475
0
LINE
8
BLACK
6
CONTINUOUS
10
3.33373
20
-2.02754
11
3.32389
21
-2.04459
0
LINE
8
BLACK
6
CONTINUOUS
10
3.32389
20
-2.04459
11
3.30684
21
-2.03475
0
LINE
8
BLACK
6
CONTINUOUS
10
3.30684
20
-2.03475
11
3.31668
21
-2.0177
0
LINE
8
BLACK
6
CONTINUOUS
10
3.31668
20
-2.0177
11
3.33373
21
-2.02754
0
LINE
8
BLACK
6
CONTINUOUS
10
3.09599
20
-2.01408
11
3.09727
21
-2.01493
0
LINE
8
BLACK
6
CONTINUOUS
10
3.09727
20
-2.01493
11
3.09813
21
-2.01621
0
LINE
8
BLACK
6
CONTINUOUS
10
3.09813
20
-2.01621
11
3.09843
21
-2.01772
0
LINE
8
BLACK
6
CONTINUOUS
10
3.09843
20
-2.01772
11
3.09843
21
-2.03484
0
LINE
8
BLACK
6
CONTINUOUS
10
3.09843
20
-2.03484
11
3.09813
21
-2.03635
0
LINE
8
BLACK
6
CONTINUOUS
10
3.09813
20
-2.03635
11
3.09727
21
-2.03763
0
LINE
8
BLACK
6
CONTINUOUS
10
3.09727
20
-2.03763
11
3.09599
21
-2.03848
0
LINE
8
BLACK
6
CONTINUOUS
10
3.09599
20
-2.03848
11
3.09449
21
-2.03878
0
LINE
8
BLACK
6
CONTINUOUS
10
3.09449
20
-2.03878
11
3.08661
21
-2.03878
0
LINE
8
BLACK
6
CONTINUOUS
10
3.08661
20
-2.03878
11
3.08511
21
-2.03848
0
LINE
8
BLACK
6
CONTINUOUS
10
3.08511
20
-2.03848
11
3.08383
21
-2.03763
0
LINE
8
BLACK
6
CONTINUOUS
10
3.08383
20
-2.03763
11
3.08298
21
-2.03635
0
LINE
8
BLACK
6
CONTINUOUS
10
3.08298
20
-2.03635
11
3.08268
21
-2.03484
0
LINE
8
BLACK
6
CONTINUOUS
10
3.08268
20
-2.03484
11
3.08268
21
-2.01772
0
LINE
8
BLACK
6
CONTINUOUS
10
3.08268
20
-2.01772
11
3.08298
21
-2.01621
0
LINE
8
BLACK
6
CONTINUOUS
10
3.08298
20
-2.01621
11
3.08383
21
-2.01493
0
LINE
8
BLACK
6
CONTINUOUS
10
3.08383
20
-2.01493
11
3.08511
21
-2.01408
0
LINE
8
BLACK
6
CONTINUOUS
10
3.08511
20
-2.01408
11
3.08661
21
-2.01378
0
LINE
8
BLACK
6
CONTINUOUS
10
3.08661
20
-2.01378
11
3.09449
21
-2.01378
0
LINE
8
BLACK
6
CONTINUOUS
10
3.09449
20
-2.01378
11
3.09599
21
-2.01408
0
LINE
8
BLACK
6
CONTINUOUS
10
3.14173
20
-2.03543
11
3.12205
21
-2.03543
0
LINE
8
BLACK
6
CONTINUOUS
10
3.12205
20
-2.03543
11
3.12205
21
-2.01575
0
LINE
8
BLACK
6
CONTINUOUS
10
3.12205
20
-2.01575
11
3.14173
21
-2.01575
0
LINE
8
BLACK
6
CONTINUOUS
10
3.14173
20
-2.01575
11
3.14173
21
-2.03543
0
LINE
8
BLACK
6
CONTINUOUS
10
3.17717
20
-2.03543
11
3.15748
21
-2.03543
0
LINE
8
BLACK
6
CONTINUOUS
10
3.15748
20
-2.03543
11
3.15748
21
-2.01575
0
LINE
8
BLACK
6
CONTINUOUS
10
3.15748
20
-2.01575
11
3.17717
21
-2.01575
0
LINE
8
BLACK
6
CONTINUOUS
10
3.17717
20
-2.01575
11
3.17717
21
-2.03543
0
LINE
8
BLACK
6
CONTINUOUS
10
3.28645
20
-2.00087
11
3.29327
21
-2.00481
0
LINE
8
BLACK
6
CONTINUOUS
10
3.29327
20
-2.00481
11
3.29443
21
-2.00582
0
LINE
8
BLACK
6
CONTINUOUS
10
3.29443
20
-2.00582
11
3.29511
21
-2.0072
0
LINE
8
BLACK
6
CONTINUOUS
10
3.29511
20
-2.0072
11
3.29521
21
-2.00873
0
LINE
8
BLACK
6
CONTINUOUS
10
3.29521
20
-2.00873
11
3.29471
21
-2.01019
0
LINE
8
BLACK
6
CONTINUOUS
10
3.29471
20
-2.01019
11
3.28615
21
-2.02502
0
LINE
8
BLACK
6
CONTINUOUS
10
3.28615
20
-2.02502
11
3.28514
21
-2.02617
0
LINE
8
BLACK
6
CONTINUOUS
10
3.28514
20
-2.02617
11
3.28376
21
-2.02685
0
LINE
8
BLACK
6
CONTINUOUS
10
3.28376
20
-2.02685
11
3.28223
21
-2.02695
0
LINE
8
BLACK
6
CONTINUOUS
10
3.28223
20
-2.02695
11
3.28077
21
-2.02646
0
LINE
8
BLACK
6
CONTINUOUS
10
3.28077
20
-2.02646
11
3.27395
21
-2.02252
0
LINE
8
BLACK
6
CONTINUOUS
10
3.27395
20
-2.02252
11
3.2728
21
-2.02151
0
LINE
8
BLACK
6
CONTINUOUS
10
3.2728
20
-2.02151
11
3.27212
21
-2.02013
0
LINE
8
BLACK
6
CONTINUOUS
10
3.27212
20
-2.02013
11
3.27202
21
-2.0186
0
LINE
8
BLACK
6
CONTINUOUS
10
3.27202
20
-2.0186
11
3.27251
21
-2.01714
0
LINE
8
BLACK
6
CONTINUOUS
10
3.27251
20
-2.01714
11
3.28107
21
-2.00231
0
LINE
8
BLACK
6
CONTINUOUS
10
3.28107
20
-2.00231
11
3.28209
21
-2.00116
0
LINE
8
BLACK
6
CONTINUOUS
10
3.28209
20
-2.00116
11
3.28347
21
-2.00048
0
LINE
8
BLACK
6
CONTINUOUS
10
3.28347
20
-2.00048
11
3.285
21
-2.00038
0
LINE
8
BLACK
6
CONTINUOUS
10
3.285
20
-2.00038
11
3.28645
21
-2.00087
0
LINE
8
BLACK
6
CONTINUOUS
10
3.09599
20
-1.98199
11
3.09727
21
-1.98285
0
LINE
8
BLACK
6
CONTINUOUS
10
3.09727
20
-1.98285
11
3.09813
21
-1.98412
0
LINE
8
BLACK
6
CONTINUOUS
10
3.09813
20
-1.98412
11
3.09843
21
-1.98563
0
LINE
8
BLACK
6
CONTINUOUS
10
3.09843
20
-1.98563
11
3.09843
21
-2.00276
0
LINE
8
BLACK
6
CONTINUOUS
10
3.09843
20
-2.00276
11
3.09813
21
-2.00426
0
LINE
8
BLACK
6
CONTINUOUS
10
3.09813
20
-2.00426
11
3.09727
21
-2.00554
0
LINE
8
BLACK
6
CONTINUOUS
10
3.09727
20
-2.00554
11
3.09599
21
-2.00639
0
LINE
8
BLACK
6
CONTINUOUS
10
3.09599
20
-2.00639
11
3.09449
21
-2.00669
0
LINE
8
BLACK
6
CONTINUOUS
10
3.09449
20
-2.00669
11
3.08661
21
-2.00669
0
LINE
8
BLACK
6
CONTINUOUS
10
3.08661
20
-2.00669
11
3.08511
21
-2.00639
0
LINE
8
BLACK
6
CONTINUOUS
10
3.08511
20
-2.00639
11
3.08383
21
-2.00554
0
LINE
8
BLACK
6
CONTINUOUS
10
3.08383
20
-2.00554
11
3.08298
21
-2.00426
0
LINE
8
BLACK
6
CONTINUOUS
10
3.08298
20
-2.00426
11
3.08268
21
-2.00276
0
LINE
8
BLACK
6
CONTINUOUS
10
3.08268
20
-2.00276
11
3.08268
21
-1.98563
0
LINE
8
BLACK
6
CONTINUOUS
10
3.08268
20
-1.98563
11
3.08298
21
-1.98412
0
LINE
8
BLACK
6
CONTINUOUS
10
3.08298
20
-1.98412
11
3.08383
21
-1.98285
0
LINE
8
BLACK
6
CONTINUOUS
10
3.08383
20
-1.98285
11
3.08511
21
-1.98199
0
LINE
8
BLACK
6
CONTINUOUS
10
3.08511
20
-1.98199
11
3.08661
21
-1.98169
0
LINE
8
BLACK
6
CONTINUOUS
10
3.08661
20
-1.98169
11
3.09449
21
-1.98169
0
LINE
8
BLACK
6
CONTINUOUS
10
3.09449
20
-1.98169
11
3.09599
21
-1.98199
0
LINE
8
BLACK
6
CONTINUOUS
10
3.14173
20
-2
11
3.12205
21
-2
0
LINE
8
BLACK
6
CONTINUOUS
10
3.12205
20
-2
11
3.12205
21
-1.98031
0
LINE
8
BLACK
6
CONTINUOUS
10
3.12205
20
-1.98031
11
3.14173
21
-1.98031
0
LINE
8
BLACK
6
CONTINUOUS
10
3.14173
20
-1.98031
11
3.14173
21
-2
0
LINE
8
BLACK
6
CONTINUOUS
10
3.17717
20
-2
11
3.15748
21
-2
0
LINE
8
BLACK
6
CONTINUOUS
10
3.15748
20
-2
11
3.15748
21
-1.98031
0
LINE
8
BLACK
6
CONTINUOUS
10
3.15748
20
-1.98031
11
3.17717
21
-1.98031
0
LINE
8
BLACK
6
CONTINUOUS
10
3.17717
20
-1.98031
11
3.17717
21
-2
  0
ENDSEC
  0
EOF
