  0
SECTION
  2
HEADER
  9
$ANGBASE
  50
0.0
  9
$ANGDIR
  70
1
  9
$MEASUREMENT
  70
0
  0
ENDSEC
  0
SECTION
  2
TABLES
  0
TABLE
  2
LTYPE
  70
4
  0
LTYPE
  5
40F
  2
CONTINUOUS
  70
0
  3
Solid line
  72
65
  73
0
  40
0.0
  0
LTYPE
  5
410
  2
DASHDOT
 70
0
  3
Dash Dot ____ _ ____ _
 72
65
 73
4
 40
2.0
 49
1.25
 49
-0.25
 49
0.25
 49
-0.25
  0
LTYPE
  5
411
  2
DASHED
 70
0
  3
Dashed __ __ __ __ __
 72
65
 73
2
 40
0.75
 49
0.5
 49
-0.25
  0
LTYPE
  5
43B
  2
DOTTED
 70
0
  3
Dotted .  .  .  .
 72
65
 73
2
 40
0.2
 49
0.0
 49
-0.2
  0
ENDTAB
  0
TABLE
  2
STYLE
  70
4
  0
STYLE
  2
KICAD
  70
0
  40
0
  41
1
  42
1
  50
0
  71
0
  3
isocp.shx
  0
STYLE
  2
KICADB
  70
0
  40
0
  41
1
  42
1
  50
0
  71
0
  3
isocp.shx
  0
STYLE
  2
KICADI
  70
0
  40
0
  41
1
  42
1
  50
15
  71
0
  3
isocp.shx
  0
STYLE
  2
KICADBI
  70
0
  40
0
  41
1
  42
1
  50
15
  71
0
  3
isocp.shx
  0
ENDTAB
  0
TABLE
  2
LAYER
  70
1
  0
LAYER
  2
BLACK
  70
0
  62
7
  6
CONTINUOUS
  0
ENDTAB
  0
ENDSEC
  0
SECTION
  2
ENTITIES
0
LINE
8
BLACK
6
CONTINUOUS
10
2.45521
20
-2.46342
11
2.4559
21
-2.46532
0
LINE
8
BLACK
6
CONTINUOUS
10
2.4559
20
-2.46532
11
2.4559
21
-2.48781
0
LINE
8
BLACK
6
CONTINUOUS
10
2.4559
20
-2.48781
11
2.45572
21
-2.48882
0
LINE
8
BLACK
6
CONTINUOUS
10
2.45572
20
-2.48882
11
2.45442
21
-2.49037
0
LINE
8
BLACK
6
CONTINUOUS
10
2.45442
20
-2.49037
11
2.45243
21
-2.49072
0
LINE
8
BLACK
6
CONTINUOUS
10
2.45243
20
-2.49072
11
2.45068
21
-2.48971
0
LINE
8
BLACK
6
CONTINUOUS
10
2.45068
20
-2.48971
11
2.44999
21
-2.48781
0
LINE
8
BLACK
6
CONTINUOUS
10
2.44999
20
-2.48781
11
2.44999
21
-2.47952
0
LINE
8
BLACK
6
CONTINUOUS
10
2.44999
20
-2.47952
11
2.42258
21
-2.47952
0
LINE
8
BLACK
6
CONTINUOUS
10
2.42258
20
-2.47952
11
2.42504
21
-2.48198
0
LINE
8
BLACK
6
CONTINUOUS
10
2.42504
20
-2.48198
11
2.42554
21
-2.4827
0
LINE
8
BLACK
6
CONTINUOUS
10
2.42554
20
-2.4827
11
2.42559
21
-2.48274
0
LINE
8
BLACK
6
CONTINUOUS
10
2.42559
20
-2.48274
11
2.42747
21
-2.48649
0
LINE
8
BLACK
6
CONTINUOUS
10
2.42747
20
-2.48649
11
2.42776
21
-2.48748
0
LINE
8
BLACK
6
CONTINUOUS
10
2.42776
20
-2.48748
11
2.42729
21
-2.48944
0
LINE
8
BLACK
6
CONTINUOUS
10
2.42729
20
-2.48944
11
2.42567
21
-2.49064
0
LINE
8
BLACK
6
CONTINUOUS
10
2.42567
20
-2.49064
11
2.42365
21
-2.49052
0
LINE
8
BLACK
6
CONTINUOUS
10
2.42365
20
-2.49052
11
2.42218
21
-2.48913
0
LINE
8
BLACK
6
CONTINUOUS
10
2.42218
20
-2.48913
11
2.42052
21
-2.48581
0
LINE
8
BLACK
6
CONTINUOUS
10
2.42052
20
-2.48581
11
2.41732
21
-2.48261
0
LINE
8
BLACK
6
CONTINUOUS
10
2.41732
20
-2.48261
11
2.41194
21
-2.47902
0
LINE
8
BLACK
6
CONTINUOUS
10
2.41194
20
-2.47902
11
2.4112
21
-2.47831
0
LINE
8
BLACK
6
CONTINUOUS
10
2.4112
20
-2.47831
11
2.41115
21
-2.47815
0
LINE
8
BLACK
6
CONTINUOUS
10
2.41115
20
-2.47815
11
2.41102
21
-2.47804
0
LINE
8
BLACK
6
CONTINUOUS
10
2.41102
20
-2.47804
11
2.41087
21
-2.4772
0
LINE
8
BLACK
6
CONTINUOUS
10
2.41087
20
-2.4772
11
2.41063
21
-2.47638
0
LINE
8
BLACK
6
CONTINUOUS
10
2.41063
20
-2.47638
11
2.4107
21
-2.47622
0
LINE
8
BLACK
6
CONTINUOUS
10
2.4107
20
-2.47622
11
2.41067
21
-2.47605
0
LINE
8
BLACK
6
CONTINUOUS
10
2.41067
20
-2.47605
11
2.4111
21
-2.47531
0
LINE
8
BLACK
6
CONTINUOUS
10
2.4111
20
-2.47531
11
2.41144
21
-2.47453
0
LINE
8
BLACK
6
CONTINUOUS
10
2.41144
20
-2.47453
11
2.41159
21
-2.47445
0
LINE
8
BLACK
6
CONTINUOUS
10
2.41159
20
-2.47445
11
2.41168
21
-2.4743
0
LINE
8
BLACK
6
CONTINUOUS
10
2.41168
20
-2.4743
11
2.41248
21
-2.47401
0
LINE
8
BLACK
6
CONTINUOUS
10
2.41248
20
-2.47401
11
2.41325
21
-2.47363
0
LINE
8
BLACK
6
CONTINUOUS
10
2.41325
20
-2.47363
11
2.41342
21
-2.47367
0
LINE
8
BLACK
6
CONTINUOUS
10
2.41342
20
-2.47367
11
2.41358
21
-2.47361
0
LINE
8
BLACK
6
CONTINUOUS
10
2.41358
20
-2.47361
11
2.44999
21
-2.47361
0
LINE
8
BLACK
6
CONTINUOUS
10
2.44999
20
-2.47361
11
2.44999
21
-2.46532
0
LINE
8
BLACK
6
CONTINUOUS
10
2.44999
20
-2.46532
11
2.45017
21
-2.46431
0
LINE
8
BLACK
6
CONTINUOUS
10
2.45017
20
-2.46431
11
2.45147
21
-2.46276
0
LINE
8
BLACK
6
CONTINUOUS
10
2.45147
20
-2.46276
11
2.45346
21
-2.46241
0
LINE
8
BLACK
6
CONTINUOUS
10
2.45346
20
-2.46241
11
2.45521
21
-2.46342
0
LINE
8
BLACK
6
CONTINUOUS
10
2.42569
20
-2.42502
11
2.42576
21
-2.42502
0
LINE
8
BLACK
6
CONTINUOUS
10
2.42576
20
-2.42502
11
2.43138
21
-2.4269
0
LINE
8
BLACK
6
CONTINUOUS
10
2.43138
20
-2.4269
11
2.43228
21
-2.42738
0
LINE
8
BLACK
6
CONTINUOUS
10
2.43228
20
-2.42738
11
2.43238
21
-2.42753
0
LINE
8
BLACK
6
CONTINUOUS
10
2.43238
20
-2.42753
11
2.43254
21
-2.42761
0
LINE
8
BLACK
6
CONTINUOUS
10
2.43254
20
-2.42761
11
2.44999
21
-2.44506
0
LINE
8
BLACK
6
CONTINUOUS
10
2.44999
20
-2.44506
11
2.44999
21
-2.42782
0
LINE
8
BLACK
6
CONTINUOUS
10
2.44999
20
-2.42782
11
2.45017
21
-2.42681
0
LINE
8
BLACK
6
CONTINUOUS
10
2.45017
20
-2.42681
11
2.45147
21
-2.42526
0
LINE
8
BLACK
6
CONTINUOUS
10
2.45147
20
-2.42526
11
2.45346
21
-2.42491
0
LINE
8
BLACK
6
CONTINUOUS
10
2.45346
20
-2.42491
11
2.45521
21
-2.42592
0
LINE
8
BLACK
6
CONTINUOUS
10
2.45521
20
-2.42592
11
2.4559
21
-2.42782
0
LINE
8
BLACK
6
CONTINUOUS
10
2.4559
20
-2.42782
11
2.4559
21
-2.45219
0
LINE
8
BLACK
6
CONTINUOUS
10
2.4559
20
-2.45219
11
2.45579
21
-2.45283
0
LINE
8
BLACK
6
CONTINUOUS
10
2.45579
20
-2.45283
11
2.4558
21
-2.45296
0
LINE
8
BLACK
6
CONTINUOUS
10
2.4558
20
-2.45296
11
2.45575
21
-2.45302
0
LINE
8
BLACK
6
CONTINUOUS
10
2.45575
20
-2.45302
11
2.45572
21
-2.4532
0
LINE
8
BLACK
6
CONTINUOUS
10
2.45572
20
-2.4532
11
2.45515
21
-2.45388
0
LINE
8
BLACK
6
CONTINUOUS
10
2.45515
20
-2.45388
11
2.45464
21
-2.45461
0
LINE
8
BLACK
6
CONTINUOUS
10
2.45464
20
-2.45461
11
2.45451
21
-2.45465
0
LINE
8
BLACK
6
CONTINUOUS
10
2.45451
20
-2.45465
11
2.45442
21
-2.45475
0
LINE
8
BLACK
6
CONTINUOUS
10
2.45442
20
-2.45475
11
2.45355
21
-2.4549
0
LINE
8
BLACK
6
CONTINUOUS
10
2.45355
20
-2.4549
11
2.45269
21
-2.45513
0
LINE
8
BLACK
6
CONTINUOUS
10
2.45269
20
-2.45513
11
2.45257
21
-2.45508
0
LINE
8
BLACK
6
CONTINUOUS
10
2.45257
20
-2.45508
11
2.45243
21
-2.4551
0
LINE
8
BLACK
6
CONTINUOUS
10
2.45243
20
-2.4551
11
2.45166
21
-2.45466
0
LINE
8
BLACK
6
CONTINUOUS
10
2.45166
20
-2.45466
11
2.45086
21
-2.45428
0
LINE
8
BLACK
6
CONTINUOUS
10
2.45086
20
-2.45428
11
2.42885
21
-2.43228
0
LINE
8
BLACK
6
CONTINUOUS
10
2.42885
20
-2.43228
11
2.42434
21
-2.43077
0
LINE
8
BLACK
6
CONTINUOUS
10
2.42434
20
-2.43077
11
2.42177
21
-2.43077
0
LINE
8
BLACK
6
CONTINUOUS
10
2.42177
20
-2.43077
11
2.41907
21
-2.43212
0
LINE
8
BLACK
6
CONTINUOUS
10
2.41907
20
-2.43212
11
2.41788
21
-2.43332
0
LINE
8
BLACK
6
CONTINUOUS
10
2.41788
20
-2.43332
11
2.41653
21
-2.43602
0
LINE
8
BLACK
6
CONTINUOUS
10
2.41653
20
-2.43602
11
2.41653
21
-2.444
0
LINE
8
BLACK
6
CONTINUOUS
10
2.41653
20
-2.444
11
2.41788
21
-2.44669
0
LINE
8
BLACK
6
CONTINUOUS
10
2.41788
20
-2.44669
11
2.41941
21
-2.44823
0
LINE
8
BLACK
6
CONTINUOUS
10
2.41941
20
-2.44823
11
2.42
21
-2.44907
0
LINE
8
BLACK
6
CONTINUOUS
10
2.42
20
-2.44907
11
2.42018
21
-2.45108
0
LINE
8
BLACK
6
CONTINUOUS
10
2.42018
20
-2.45108
11
2.41902
21
-2.45274
0
LINE
8
BLACK
6
CONTINUOUS
10
2.41902
20
-2.45274
11
2.41707
21
-2.45326
0
LINE
8
BLACK
6
CONTINUOUS
10
2.41707
20
-2.45326
11
2.41524
21
-2.45241
0
LINE
8
BLACK
6
CONTINUOUS
10
2.41524
20
-2.45241
11
2.41336
21
-2.45053
0
LINE
8
BLACK
6
CONTINUOUS
10
2.41336
20
-2.45053
11
2.41286
21
-2.44981
0
LINE
8
BLACK
6
CONTINUOUS
10
2.41286
20
-2.44981
11
2.41281
21
-2.44976
0
LINE
8
BLACK
6
CONTINUOUS
10
2.41281
20
-2.44976
11
2.41093
21
-2.44601
0
LINE
8
BLACK
6
CONTINUOUS
10
2.41093
20
-2.44601
11
2.41064
21
-2.44503
0
LINE
8
BLACK
6
CONTINUOUS
10
2.41064
20
-2.44503
11
2.41068
21
-2.44486
0
LINE
8
BLACK
6
CONTINUOUS
10
2.41068
20
-2.44486
11
2.41062
21
-2.44469
0
LINE
8
BLACK
6
CONTINUOUS
10
2.41062
20
-2.44469
11
2.41062
21
-2.43532
0
LINE
8
BLACK
6
CONTINUOUS
10
2.41062
20
-2.43532
11
2.4108
21
-2.43431
0
LINE
8
BLACK
6
CONTINUOUS
10
2.4108
20
-2.43431
11
2.41091
21
-2.43418
0
LINE
8
BLACK
6
CONTINUOUS
10
2.41091
20
-2.43418
11
2.41093
21
-2.434
0
LINE
8
BLACK
6
CONTINUOUS
10
2.41093
20
-2.434
11
2.41281
21
-2.43025
0
LINE
8
BLACK
6
CONTINUOUS
10
2.41281
20
-2.43025
11
2.41334
21
-2.42954
0
LINE
8
BLACK
6
CONTINUOUS
10
2.41334
20
-2.42954
11
2.41336
21
-2.42948
0
LINE
8
BLACK
6
CONTINUOUS
10
2.41336
20
-2.42948
11
2.41524
21
-2.42761
0
LINE
8
BLACK
6
CONTINUOUS
10
2.41524
20
-2.42761
11
2.41596
21
-2.4271
0
LINE
8
BLACK
6
CONTINUOUS
10
2.41596
20
-2.4271
11
2.416
21
-2.42706
0
LINE
8
BLACK
6
CONTINUOUS
10
2.416
20
-2.42706
11
2.41975
21
-2.42518
0
LINE
8
BLACK
6
CONTINUOUS
10
2.41975
20
-2.42518
11
2.42074
21
-2.42489
0
LINE
8
BLACK
6
CONTINUOUS
10
2.42074
20
-2.42489
11
2.42091
21
-2.42493
0
LINE
8
BLACK
6
CONTINUOUS
10
2.42091
20
-2.42493
11
2.42107
21
-2.42487
0
LINE
8
BLACK
6
CONTINUOUS
10
2.42107
20
-2.42487
11
2.42482
21
-2.42487
0
LINE
8
BLACK
6
CONTINUOUS
10
2.42482
20
-2.42487
11
2.42569
21
-2.42502
0
LINE
8
BLACK
6
CONTINUOUS
10
2.45157
20
-2.40624
11
2.45184
21
-2.40622
0
LINE
8
BLACK
6
CONTINUOUS
10
2.45184
20
-2.40622
11
2.45246
21
-2.40666
0
LINE
8
BLACK
6
CONTINUOUS
10
2.45246
20
-2.40666
11
2.45316
21
-2.40699
0
LINE
8
BLACK
6
CONTINUOUS
10
2.45316
20
-2.40699
11
2.45503
21
-2.40886
0
LINE
8
BLACK
6
CONTINUOUS
10
2.45503
20
-2.40886
11
2.45526
21
-2.40918
0
LINE
8
BLACK
6
CONTINUOUS
10
2.45526
20
-2.40918
11
2.45536
21
-2.40925
0
LINE
8
BLACK
6
CONTINUOUS
10
2.45536
20
-2.40925
11
2.4554
21
-2.40938
0
LINE
8
BLACK
6
CONTINUOUS
10
2.4554
20
-2.40938
11
2.4554
21
-2.40939
0
LINE
8
BLACK
6
CONTINUOUS
10
2.4554
20
-2.40939
11
2.4555
21
-2.40947
0
LINE
8
BLACK
6
CONTINUOUS
10
2.4555
20
-2.40947
11
2.45552
21
-2.40955
0
LINE
8
BLACK
6
CONTINUOUS
10
2.45552
20
-2.40955
11
2.45562
21
-2.4097
0
LINE
8
BLACK
6
CONTINUOUS
10
2.45562
20
-2.4097
11
2.45569
21
-2.41046
0
LINE
8
BLACK
6
CONTINUOUS
10
2.45569
20
-2.41046
11
2.45589
21
-2.41121
0
LINE
8
BLACK
6
CONTINUOUS
10
2.45589
20
-2.41121
11
2.45583
21
-2.41133
0
LINE
8
BLACK
6
CONTINUOUS
10
2.45583
20
-2.41133
11
2.45585
21
-2.41146
0
LINE
8
BLACK
6
CONTINUOUS
10
2.45585
20
-2.41146
11
2.45579
21
-2.41158
0
LINE
8
BLACK
6
CONTINUOUS
10
2.45579
20
-2.41158
11
2.4558
21
-2.41171
0
LINE
8
BLACK
6
CONTINUOUS
10
2.4558
20
-2.41171
11
2.45536
21
-2.41234
0
LINE
8
BLACK
6
CONTINUOUS
10
2.45536
20
-2.41234
11
2.45503
21
-2.41304
0
LINE
8
BLACK
6
CONTINUOUS
10
2.45503
20
-2.41304
11
2.45316
21
-2.41491
0
LINE
8
BLACK
6
CONTINUOUS
10
2.45316
20
-2.41491
11
2.45284
21
-2.41513
0
LINE
8
BLACK
6
CONTINUOUS
10
2.45284
20
-2.41513
11
2.45276
21
-2.41524
0
LINE
8
BLACK
6
CONTINUOUS
10
2.45276
20
-2.41524
11
2.45264
21
-2.41528
0
LINE
8
BLACK
6
CONTINUOUS
10
2.45264
20
-2.41528
11
2.45232
21
-2.4155
0
LINE
8
BLACK
6
CONTINUOUS
10
2.45232
20
-2.4155
11
2.45155
21
-2.41557
0
LINE
8
BLACK
6
CONTINUOUS
10
2.45155
20
-2.41557
11
2.45081
21
-2.41576
0
LINE
8
BLACK
6
CONTINUOUS
10
2.45081
20
-2.41576
11
2.45057
21
-2.41565
0
LINE
8
BLACK
6
CONTINUOUS
10
2.45057
20
-2.41565
11
2.45031
21
-2.41568
0
LINE
8
BLACK
6
CONTINUOUS
10
2.45031
20
-2.41568
11
2.44968
21
-2.41524
0
LINE
8
BLACK
6
CONTINUOUS
10
2.44968
20
-2.41524
11
2.44898
21
-2.41491
0
LINE
8
BLACK
6
CONTINUOUS
10
2.44898
20
-2.41491
11
2.44711
21
-2.41304
0
LINE
8
BLACK
6
CONTINUOUS
10
2.44711
20
-2.41304
11
2.44688
21
-2.41272
0
LINE
8
BLACK
6
CONTINUOUS
10
2.44688
20
-2.41272
11
2.44678
21
-2.41264
0
LINE
8
BLACK
6
CONTINUOUS
10
2.44678
20
-2.41264
11
2.44674
21
-2.41252
0
LINE
8
BLACK
6
CONTINUOUS
10
2.44674
20
-2.41252
11
2.44674
21
-2.41251
0
LINE
8
BLACK
6
CONTINUOUS
10
2.44674
20
-2.41251
11
2.44664
21
-2.41242
0
LINE
8
BLACK
6
CONTINUOUS
10
2.44664
20
-2.41242
11
2.44663
21
-2.41235
0
LINE
8
BLACK
6
CONTINUOUS
10
2.44663
20
-2.41235
11
2.44652
21
-2.4122
0
LINE
8
BLACK
6
CONTINUOUS
10
2.44652
20
-2.4122
11
2.44645
21
-2.41143
0
LINE
8
BLACK
6
CONTINUOUS
10
2.44645
20
-2.41143
11
2.44625
21
-2.41069
0
LINE
8
BLACK
6
CONTINUOUS
10
2.44625
20
-2.41069
11
2.44631
21
-2.41057
0
LINE
8
BLACK
6
CONTINUOUS
10
2.44631
20
-2.41057
11
2.44629
21
-2.41044
0
LINE
8
BLACK
6
CONTINUOUS
10
2.44629
20
-2.41044
11
2.44636
21
-2.41032
0
LINE
8
BLACK
6
CONTINUOUS
10
2.44636
20
-2.41032
11
2.44634
21
-2.41018
0
LINE
8
BLACK
6
CONTINUOUS
10
2.44634
20
-2.41018
11
2.44678
21
-2.40956
0
LINE
8
BLACK
6
CONTINUOUS
10
2.44678
20
-2.40956
11
2.44711
21
-2.40886
0
LINE
8
BLACK
6
CONTINUOUS
10
2.44711
20
-2.40886
11
2.44898
21
-2.40699
0
LINE
8
BLACK
6
CONTINUOUS
10
2.44898
20
-2.40699
11
2.4493
21
-2.40676
0
LINE
8
BLACK
6
CONTINUOUS
10
2.4493
20
-2.40676
11
2.44938
21
-2.40666
0
LINE
8
BLACK
6
CONTINUOUS
10
2.44938
20
-2.40666
11
2.4495
21
-2.40662
0
LINE
8
BLACK
6
CONTINUOUS
10
2.4495
20
-2.40662
11
2.44982
21
-2.4064
0
LINE
8
BLACK
6
CONTINUOUS
10
2.44982
20
-2.4064
11
2.45059
21
-2.40633
0
LINE
8
BLACK
6
CONTINUOUS
10
2.45059
20
-2.40633
11
2.45133
21
-2.40613
0
LINE
8
BLACK
6
CONTINUOUS
10
2.45133
20
-2.40613
11
2.45157
21
-2.40624
0
LINE
8
BLACK
6
CONTINUOUS
10
2.42569
20
-2.36878
11
2.42576
21
-2.36878
0
LINE
8
BLACK
6
CONTINUOUS
10
2.42576
20
-2.36878
11
2.43138
21
-2.37065
0
LINE
8
BLACK
6
CONTINUOUS
10
2.43138
20
-2.37065
11
2.43228
21
-2.37114
0
LINE
8
BLACK
6
CONTINUOUS
10
2.43228
20
-2.37114
11
2.43238
21
-2.37129
0
LINE
8
BLACK
6
CONTINUOUS
10
2.43238
20
-2.37129
11
2.43254
21
-2.37137
0
LINE
8
BLACK
6
CONTINUOUS
10
2.43254
20
-2.37137
11
2.44999
21
-2.38882
0
LINE
8
BLACK
6
CONTINUOUS
10
2.44999
20
-2.38882
11
2.44999
21
-2.37158
0
LINE
8
BLACK
6
CONTINUOUS
10
2.44999
20
-2.37158
11
2.45017
21
-2.37057
0
LINE
8
BLACK
6
CONTINUOUS
10
2.45017
20
-2.37057
11
2.45147
21
-2.36902
0
LINE
8
BLACK
6
CONTINUOUS
10
2.45147
20
-2.36902
11
2.45346
21
-2.36867
0
LINE
8
BLACK
6
CONTINUOUS
10
2.45346
20
-2.36867
11
2.45521
21
-2.36968
0
LINE
8
BLACK
6
CONTINUOUS
10
2.45521
20
-2.36968
11
2.4559
21
-2.37158
0
LINE
8
BLACK
6
CONTINUOUS
10
2.4559
20
-2.37158
11
2.4559
21
-2.39595
0
LINE
8
BLACK
6
CONTINUOUS
10
2.4559
20
-2.39595
11
2.45579
21
-2.39659
0
LINE
8
BLACK
6
CONTINUOUS
10
2.45579
20
-2.39659
11
2.4558
21
-2.39671
0
LINE
8
BLACK
6
CONTINUOUS
10
2.4558
20
-2.39671
11
2.45575
21
-2.39678
0
LINE
8
BLACK
6
CONTINUOUS
10
2.45575
20
-2.39678
11
2.45572
21
-2.39696
0
LINE
8
BLACK
6
CONTINUOUS
10
2.45572
20
-2.39696
11
2.45515
21
-2.39764
0
LINE
8
BLACK
6
CONTINUOUS
10
2.45515
20
-2.39764
11
2.45464
21
-2.39837
0
LINE
8
BLACK
6
CONTINUOUS
10
2.45464
20
-2.39837
11
2.45451
21
-2.3984
0
LINE
8
BLACK
6
CONTINUOUS
10
2.45451
20
-2.3984
11
2.45442
21
-2.39851
0
LINE
8
BLACK
6
CONTINUOUS
10
2.45442
20
-2.39851
11
2.45355
21
-2.39866
0
LINE
8
BLACK
6
CONTINUOUS
10
2.45355
20
-2.39866
11
2.45269
21
-2.39889
0
LINE
8
BLACK
6
CONTINUOUS
10
2.45269
20
-2.39889
11
2.45257
21
-2.39883
0
LINE
8
BLACK
6
CONTINUOUS
10
2.45257
20
-2.39883
11
2.45243
21
-2.39886
0
LINE
8
BLACK
6
CONTINUOUS
10
2.45243
20
-2.39886
11
2.45166
21
-2.39841
0
LINE
8
BLACK
6
CONTINUOUS
10
2.45166
20
-2.39841
11
2.45086
21
-2.39804
0
LINE
8
BLACK
6
CONTINUOUS
10
2.45086
20
-2.39804
11
2.42885
21
-2.37603
0
LINE
8
BLACK
6
CONTINUOUS
10
2.42885
20
-2.37603
11
2.42434
21
-2.37453
0
LINE
8
BLACK
6
CONTINUOUS
10
2.42434
20
-2.37453
11
2.42177
21
-2.37453
0
LINE
8
BLACK
6
CONTINUOUS
10
2.42177
20
-2.37453
11
2.41907
21
-2.37588
0
LINE
8
BLACK
6
CONTINUOUS
10
2.41907
20
-2.37588
11
2.41788
21
-2.37708
0
LINE
8
BLACK
6
CONTINUOUS
10
2.41788
20
-2.37708
11
2.41653
21
-2.37977
0
LINE
8
BLACK
6
CONTINUOUS
10
2.41653
20
-2.37977
11
2.41653
21
-2.38775
0
LINE
8
BLACK
6
CONTINUOUS
10
2.41653
20
-2.38775
11
2.41788
21
-2.39045
0
LINE
8
BLACK
6
CONTINUOUS
10
2.41788
20
-2.39045
11
2.41941
21
-2.39199
0
LINE
8
BLACK
6
CONTINUOUS
10
2.41941
20
-2.39199
11
2.42
21
-2.39283
0
LINE
8
BLACK
6
CONTINUOUS
10
2.42
20
-2.39283
11
2.42018
21
-2.39484
0
LINE
8
BLACK
6
CONTINUOUS
10
2.42018
20
-2.39484
11
2.41902
21
-2.39649
0
LINE
8
BLACK
6
CONTINUOUS
10
2.41902
20
-2.39649
11
2.41707
21
-2.39702
0
LINE
8
BLACK
6
CONTINUOUS
10
2.41707
20
-2.39702
11
2.41524
21
-2.39616
0
LINE
8
BLACK
6
CONTINUOUS
10
2.41524
20
-2.39616
11
2.41336
21
-2.39429
0
LINE
8
BLACK
6
CONTINUOUS
10
2.41336
20
-2.39429
11
2.41286
21
-2.39357
0
LINE
8
BLACK
6
CONTINUOUS
10
2.41286
20
-2.39357
11
2.41281
21
-2.39352
0
LINE
8
BLACK
6
CONTINUOUS
10
2.41281
20
-2.39352
11
2.41093
21
-2.38977
0
LINE
8
BLACK
6
CONTINUOUS
10
2.41093
20
-2.38977
11
2.41064
21
-2.38879
0
LINE
8
BLACK
6
CONTINUOUS
10
2.41064
20
-2.38879
11
2.41068
21
-2.38862
0
LINE
8
BLACK
6
CONTINUOUS
10
2.41068
20
-2.38862
11
2.41062
21
-2.38845
0
LINE
8
BLACK
6
CONTINUOUS
10
2.41062
20
-2.38845
11
2.41062
21
-2.37908
0
LINE
8
BLACK
6
CONTINUOUS
10
2.41062
20
-2.37908
11
2.4108
21
-2.37807
0
LINE
8
BLACK
6
CONTINUOUS
10
2.4108
20
-2.37807
11
2.41091
21
-2.37793
0
LINE
8
BLACK
6
CONTINUOUS
10
2.41091
20
-2.37793
11
2.41093
21
-2.37776
0
LINE
8
BLACK
6
CONTINUOUS
10
2.41093
20
-2.37776
11
2.41281
21
-2.37401
0
LINE
8
BLACK
6
CONTINUOUS
10
2.41281
20
-2.37401
11
2.41334
21
-2.3733
0
LINE
8
BLACK
6
CONTINUOUS
10
2.41334
20
-2.3733
11
2.41336
21
-2.37324
0
LINE
8
BLACK
6
CONTINUOUS
10
2.41336
20
-2.37324
11
2.41524
21
-2.37137
0
LINE
8
BLACK
6
CONTINUOUS
10
2.41524
20
-2.37137
11
2.41596
21
-2.37086
0
LINE
8
BLACK
6
CONTINUOUS
10
2.41596
20
-2.37086
11
2.416
21
-2.37081
0
LINE
8
BLACK
6
CONTINUOUS
10
2.416
20
-2.37081
11
2.41975
21
-2.36894
0
LINE
8
BLACK
6
CONTINUOUS
10
2.41975
20
-2.36894
11
2.42074
21
-2.36865
0
LINE
8
BLACK
6
CONTINUOUS
10
2.42074
20
-2.36865
11
2.42091
21
-2.36869
0
LINE
8
BLACK
6
CONTINUOUS
10
2.42091
20
-2.36869
11
2.42107
21
-2.36863
0
LINE
8
BLACK
6
CONTINUOUS
10
2.42107
20
-2.36863
11
2.42482
21
-2.36863
0
LINE
8
BLACK
6
CONTINUOUS
10
2.42482
20
-2.36863
11
2.42569
21
-2.36878
0
LINE
8
BLACK
6
CONTINUOUS
10
2.45396
20
-2.28819
11
2.4555
21
-2.28949
0
LINE
8
BLACK
6
CONTINUOUS
10
2.4555
20
-2.28949
11
2.45585
21
-2.29148
0
LINE
8
BLACK
6
CONTINUOUS
10
2.45585
20
-2.29148
11
2.45484
21
-2.29323
0
LINE
8
BLACK
6
CONTINUOUS
10
2.45484
20
-2.29323
11
2.45295
21
-2.29392
0
LINE
8
BLACK
6
CONTINUOUS
10
2.45295
20
-2.29392
11
2.43302
21
-2.29392
0
LINE
8
BLACK
6
CONTINUOUS
10
2.43302
20
-2.29392
11
2.43077
21
-2.29504
0
LINE
8
BLACK
6
CONTINUOUS
10
2.43077
20
-2.29504
11
2.42965
21
-2.29728
0
LINE
8
BLACK
6
CONTINUOUS
10
2.42965
20
-2.29728
11
2.42965
21
-2.30152
0
LINE
8
BLACK
6
CONTINUOUS
10
2.42965
20
-2.30152
11
2.43077
21
-2.30376
0
LINE
8
BLACK
6
CONTINUOUS
10
2.43077
20
-2.30376
11
2.43302
21
-2.30488
0
LINE
8
BLACK
6
CONTINUOUS
10
2.43302
20
-2.30488
11
2.45295
21
-2.30488
0
LINE
8
BLACK
6
CONTINUOUS
10
2.45295
20
-2.30488
11
2.45396
21
-2.30506
0
LINE
8
BLACK
6
CONTINUOUS
10
2.45396
20
-2.30506
11
2.4555
21
-2.30636
0
LINE
8
BLACK
6
CONTINUOUS
10
2.4555
20
-2.30636
11
2.45585
21
-2.30835
0
LINE
8
BLACK
6
CONTINUOUS
10
2.45585
20
-2.30835
11
2.45484
21
-2.3101
0
LINE
8
BLACK
6
CONTINUOUS
10
2.45484
20
-2.3101
11
2.45295
21
-2.31079
0
LINE
8
BLACK
6
CONTINUOUS
10
2.45295
20
-2.31079
11
2.43302
21
-2.31079
0
LINE
8
BLACK
6
CONTINUOUS
10
2.43302
20
-2.31079
11
2.43077
21
-2.31191
0
LINE
8
BLACK
6
CONTINUOUS
10
2.43077
20
-2.31191
11
2.42965
21
-2.31416
0
LINE
8
BLACK
6
CONTINUOUS
10
2.42965
20
-2.31416
11
2.42965
21
-2.31839
0
LINE
8
BLACK
6
CONTINUOUS
10
2.42965
20
-2.31839
11
2.431
21
-2.32109
0
LINE
8
BLACK
6
CONTINUOUS
10
2.431
20
-2.32109
11
2.43167
21
-2.32176
0
LINE
8
BLACK
6
CONTINUOUS
10
2.43167
20
-2.32176
11
2.45295
21
-2.32176
0
LINE
8
BLACK
6
CONTINUOUS
10
2.45295
20
-2.32176
11
2.45396
21
-2.32193
0
LINE
8
BLACK
6
CONTINUOUS
10
2.45396
20
-2.32193
11
2.4555
21
-2.32323
0
LINE
8
BLACK
6
CONTINUOUS
10
2.4555
20
-2.32323
11
2.45585
21
-2.32522
0
LINE
8
BLACK
6
CONTINUOUS
10
2.45585
20
-2.32522
11
2.45484
21
-2.32697
0
LINE
8
BLACK
6
CONTINUOUS
10
2.45484
20
-2.32697
11
2.45295
21
-2.32766
0
LINE
8
BLACK
6
CONTINUOUS
10
2.45295
20
-2.32766
11
2.4267
21
-2.32766
0
LINE
8
BLACK
6
CONTINUOUS
10
2.4267
20
-2.32766
11
2.42569
21
-2.32748
0
LINE
8
BLACK
6
CONTINUOUS
10
2.42569
20
-2.32748
11
2.42414
21
-2.32619
0
LINE
8
BLACK
6
CONTINUOUS
10
2.42414
20
-2.32619
11
2.42379
21
-2.3242
0
LINE
8
BLACK
6
CONTINUOUS
10
2.42379
20
-2.3242
11
2.4248
21
-2.32245
0
LINE
8
BLACK
6
CONTINUOUS
10
2.4248
20
-2.32245
11
2.42504
21
-2.32236
0
LINE
8
BLACK
6
CONTINUOUS
10
2.42504
20
-2.32236
11
2.42406
21
-2.32041
0
LINE
8
BLACK
6
CONTINUOUS
10
2.42406
20
-2.32041
11
2.42377
21
-2.31942
0
LINE
8
BLACK
6
CONTINUOUS
10
2.42377
20
-2.31942
11
2.42381
21
-2.31925
0
LINE
8
BLACK
6
CONTINUOUS
10
2.42381
20
-2.31925
11
2.42375
21
-2.31909
0
LINE
8
BLACK
6
CONTINUOUS
10
2.42375
20
-2.31909
11
2.42375
21
-2.31346
0
LINE
8
BLACK
6
CONTINUOUS
10
2.42375
20
-2.31346
11
2.42392
21
-2.31245
0
LINE
8
BLACK
6
CONTINUOUS
10
2.42392
20
-2.31245
11
2.42404
21
-2.31232
0
LINE
8
BLACK
6
CONTINUOUS
10
2.42404
20
-2.31232
11
2.42406
21
-2.31214
0
LINE
8
BLACK
6
CONTINUOUS
10
2.42406
20
-2.31214
11
2.42593
21
-2.30839
0
LINE
8
BLACK
6
CONTINUOUS
10
2.42593
20
-2.30839
11
2.42636
21
-2.30782
0
LINE
8
BLACK
6
CONTINUOUS
10
2.42636
20
-2.30782
11
2.42625
21
-2.30759
0
LINE
8
BLACK
6
CONTINUOUS
10
2.42625
20
-2.30759
11
2.42593
21
-2.30728
0
LINE
8
BLACK
6
CONTINUOUS
10
2.42593
20
-2.30728
11
2.42406
21
-2.30353
0
LINE
8
BLACK
6
CONTINUOUS
10
2.42406
20
-2.30353
11
2.42377
21
-2.30255
0
LINE
8
BLACK
6
CONTINUOUS
10
2.42377
20
-2.30255
11
2.42381
21
-2.30238
0
LINE
8
BLACK
6
CONTINUOUS
10
2.42381
20
-2.30238
11
2.42375
21
-2.30221
0
LINE
8
BLACK
6
CONTINUOUS
10
2.42375
20
-2.30221
11
2.42375
21
-2.29659
0
LINE
8
BLACK
6
CONTINUOUS
10
2.42375
20
-2.29659
11
2.42392
21
-2.29558
0
LINE
8
BLACK
6
CONTINUOUS
10
2.42392
20
-2.29558
11
2.42404
21
-2.29544
0
LINE
8
BLACK
6
CONTINUOUS
10
2.42404
20
-2.29544
11
2.42406
21
-2.29527
0
LINE
8
BLACK
6
CONTINUOUS
10
2.42406
20
-2.29527
11
2.42593
21
-2.29152
0
LINE
8
BLACK
6
CONTINUOUS
10
2.42593
20
-2.29152
11
2.42654
21
-2.29069
0
LINE
8
BLACK
6
CONTINUOUS
10
2.42654
20
-2.29069
11
2.42695
21
-2.29052
0
LINE
8
BLACK
6
CONTINUOUS
10
2.42695
20
-2.29052
11
2.42725
21
-2.2902
0
LINE
8
BLACK
6
CONTINUOUS
10
2.42725
20
-2.2902
11
2.431
21
-2.28832
0
LINE
8
BLACK
6
CONTINUOUS
10
2.431
20
-2.28832
11
2.43199
21
-2.28803
0
LINE
8
BLACK
6
CONTINUOUS
10
2.43199
20
-2.28803
11
2.43216
21
-2.28807
0
LINE
8
BLACK
6
CONTINUOUS
10
2.43216
20
-2.28807
11
2.43232
21
-2.28801
0
LINE
8
BLACK
6
CONTINUOUS
10
2.43232
20
-2.28801
11
2.45295
21
-2.28801
0
LINE
8
BLACK
6
CONTINUOUS
10
2.45295
20
-2.28801
11
2.45396
21
-2.28819
0
LINE
8
BLACK
6
CONTINUOUS
10
2.45396
20
-2.2357
11
2.4555
21
-2.23699
0
LINE
8
BLACK
6
CONTINUOUS
10
2.4555
20
-2.23699
11
2.45585
21
-2.23898
0
LINE
8
BLACK
6
CONTINUOUS
10
2.45585
20
-2.23898
11
2.45484
21
-2.24073
0
LINE
8
BLACK
6
CONTINUOUS
10
2.45484
20
-2.24073
11
2.45295
21
-2.24142
0
LINE
8
BLACK
6
CONTINUOUS
10
2.45295
20
-2.24142
11
2.43302
21
-2.24142
0
LINE
8
BLACK
6
CONTINUOUS
10
2.43302
20
-2.24142
11
2.43077
21
-2.24255
0
LINE
8
BLACK
6
CONTINUOUS
10
2.43077
20
-2.24255
11
2.42965
21
-2.24479
0
LINE
8
BLACK
6
CONTINUOUS
10
2.42965
20
-2.24479
11
2.42965
21
-2.24902
0
LINE
8
BLACK
6
CONTINUOUS
10
2.42965
20
-2.24902
11
2.43077
21
-2.25127
0
LINE
8
BLACK
6
CONTINUOUS
10
2.43077
20
-2.25127
11
2.43302
21
-2.25239
0
LINE
8
BLACK
6
CONTINUOUS
10
2.43302
20
-2.25239
11
2.45295
21
-2.25239
0
LINE
8
BLACK
6
CONTINUOUS
10
2.45295
20
-2.25239
11
2.45396
21
-2.25257
0
LINE
8
BLACK
6
CONTINUOUS
10
2.45396
20
-2.25257
11
2.4555
21
-2.25387
0
LINE
8
BLACK
6
CONTINUOUS
10
2.4555
20
-2.25387
11
2.45585
21
-2.25586
0
LINE
8
BLACK
6
CONTINUOUS
10
2.45585
20
-2.25586
11
2.45484
21
-2.2576
0
LINE
8
BLACK
6
CONTINUOUS
10
2.45484
20
-2.2576
11
2.45295
21
-2.2583
0
LINE
8
BLACK
6
CONTINUOUS
10
2.45295
20
-2.2583
11
2.43302
21
-2.2583
0
LINE
8
BLACK
6
CONTINUOUS
10
2.43302
20
-2.2583
11
2.43077
21
-2.25942
0
LINE
8
BLACK
6
CONTINUOUS
10
2.43077
20
-2.25942
11
2.42965
21
-2.26166
0
LINE
8
BLACK
6
CONTINUOUS
10
2.42965
20
-2.26166
11
2.42965
21
-2.26589
0
LINE
8
BLACK
6
CONTINUOUS
10
2.42965
20
-2.26589
11
2.431
21
-2.26859
0
LINE
8
BLACK
6
CONTINUOUS
10
2.431
20
-2.26859
11
2.43167
21
-2.26926
0
LINE
8
BLACK
6
CONTINUOUS
10
2.43167
20
-2.26926
11
2.45295
21
-2.26926
0
LINE
8
BLACK
6
CONTINUOUS
10
2.45295
20
-2.26926
11
2.45396
21
-2.26944
0
LINE
8
BLACK
6
CONTINUOUS
10
2.45396
20
-2.26944
11
2.4555
21
-2.27074
0
LINE
8
BLACK
6
CONTINUOUS
10
2.4555
20
-2.27074
11
2.45585
21
-2.27273
0
LINE
8
BLACK
6
CONTINUOUS
10
2.45585
20
-2.27273
11
2.45484
21
-2.27448
0
LINE
8
BLACK
6
CONTINUOUS
10
2.45484
20
-2.27448
11
2.45295
21
-2.27517
0
LINE
8
BLACK
6
CONTINUOUS
10
2.45295
20
-2.27517
11
2.4267
21
-2.27517
0
LINE
8
BLACK
6
CONTINUOUS
10
2.4267
20
-2.27517
11
2.42569
21
-2.27499
0
LINE
8
BLACK
6
CONTINUOUS
10
2.42569
20
-2.27499
11
2.42414
21
-2.27369
0
LINE
8
BLACK
6
CONTINUOUS
10
2.42414
20
-2.27369
11
2.42379
21
-2.2717
0
LINE
8
BLACK
6
CONTINUOUS
10
2.42379
20
-2.2717
11
2.4248
21
-2.26995
0
LINE
8
BLACK
6
CONTINUOUS
10
2.4248
20
-2.26995
11
2.42504
21
-2.26987
0
LINE
8
BLACK
6
CONTINUOUS
10
2.42504
20
-2.26987
11
2.42406
21
-2.26791
0
LINE
8
BLACK
6
CONTINUOUS
10
2.42406
20
-2.26791
11
2.42377
21
-2.26693
0
LINE
8
BLACK
6
CONTINUOUS
10
2.42377
20
-2.26693
11
2.42381
21
-2.26676
0
LINE
8
BLACK
6
CONTINUOUS
10
2.42381
20
-2.26676
11
2.42375
21
-2.26659
0
LINE
8
BLACK
6
CONTINUOUS
10
2.42375
20
-2.26659
11
2.42375
21
-2.26097
0
LINE
8
BLACK
6
CONTINUOUS
10
2.42375
20
-2.26097
11
2.42392
21
-2.25996
0
LINE
8
BLACK
6
CONTINUOUS
10
2.42392
20
-2.25996
11
2.42404
21
-2.25982
0
LINE
8
BLACK
6
CONTINUOUS
10
2.42404
20
-2.25982
11
2.42406
21
-2.25965
0
LINE
8
BLACK
6
CONTINUOUS
10
2.42406
20
-2.25965
11
2.42593
21
-2.2559
0
LINE
8
BLACK
6
CONTINUOUS
10
2.42593
20
-2.2559
11
2.42636
21
-2.25533
0
LINE
8
BLACK
6
CONTINUOUS
10
2.42636
20
-2.25533
11
2.42625
21
-2.25509
0
LINE
8
BLACK
6
CONTINUOUS
10
2.42625
20
-2.25509
11
2.42593
21
-2.25479
0
LINE
8
BLACK
6
CONTINUOUS
10
2.42593
20
-2.25479
11
2.42406
21
-2.25104
0
LINE
8
BLACK
6
CONTINUOUS
10
2.42406
20
-2.25104
11
2.42377
21
-2.25006
0
LINE
8
BLACK
6
CONTINUOUS
10
2.42377
20
-2.25006
11
2.42381
21
-2.24988
0
LINE
8
BLACK
6
CONTINUOUS
10
2.42381
20
-2.24988
11
2.42375
21
-2.24972
0
LINE
8
BLACK
6
CONTINUOUS
10
2.42375
20
-2.24972
11
2.42375
21
-2.24409
0
LINE
8
BLACK
6
CONTINUOUS
10
2.42375
20
-2.24409
11
2.42392
21
-2.24308
0
LINE
8
BLACK
6
CONTINUOUS
10
2.42392
20
-2.24308
11
2.42404
21
-2.24295
0
LINE
8
BLACK
6
CONTINUOUS
10
2.42404
20
-2.24295
11
2.42406
21
-2.24277
0
LINE
8
BLACK
6
CONTINUOUS
10
2.42406
20
-2.24277
11
2.42593
21
-2.23902
0
LINE
8
BLACK
6
CONTINUOUS
10
2.42593
20
-2.23902
11
2.42654
21
-2.2382
0
LINE
8
BLACK
6
CONTINUOUS
10
2.42654
20
-2.2382
11
2.42695
21
-2.23802
0
LINE
8
BLACK
6
CONTINUOUS
10
2.42695
20
-2.23802
11
2.42725
21
-2.2377
0
LINE
8
BLACK
6
CONTINUOUS
10
2.42725
20
-2.2377
11
2.431
21
-2.23583
0
LINE
8
BLACK
6
CONTINUOUS
10
2.431
20
-2.23583
11
2.43199
21
-2.23554
0
LINE
8
BLACK
6
CONTINUOUS
10
2.43199
20
-2.23554
11
2.43216
21
-2.23558
0
LINE
8
BLACK
6
CONTINUOUS
10
2.43216
20
-2.23558
11
2.43232
21
-2.23552
0
LINE
8
BLACK
6
CONTINUOUS
10
2.43232
20
-2.23552
11
2.45295
21
-2.23552
0
LINE
8
BLACK
6
CONTINUOUS
10
2.45295
20
-2.23552
11
2.45396
21
-2.2357
0
LINE
8
BLACK
6
CONTINUOUS
10
3.73547
20
-2.63073
11
3.73561
21
-2.63071
0
LINE
8
BLACK
6
CONTINUOUS
10
3.73561
20
-2.63071
11
3.74311
21
-2.63259
0
LINE
8
BLACK
6
CONTINUOUS
10
3.74311
20
-2.63259
11
3.74401
21
-2.63299
0
LINE
8
BLACK
6
CONTINUOUS
10
3.74401
20
-2.63299
11
3.74403
21
-2.63299
0
LINE
8
BLACK
6
CONTINUOUS
10
3.74403
20
-2.63299
11
3.74965
21
-2.63674
0
LINE
8
BLACK
6
CONTINUOUS
10
3.74965
20
-2.63674
11
3.74998
21
-2.63706
0
LINE
8
BLACK
6
CONTINUOUS
10
3.74998
20
-2.63706
11
3.7501
21
-2.63711
0
LINE
8
BLACK
6
CONTINUOUS
10
3.7501
20
-2.63711
11
3.75198
21
-2.63899
0
LINE
8
BLACK
6
CONTINUOUS
10
3.75198
20
-2.63899
11
3.75248
21
-2.63971
0
LINE
8
BLACK
6
CONTINUOUS
10
3.75248
20
-2.63971
11
3.75253
21
-2.63976
0
LINE
8
BLACK
6
CONTINUOUS
10
3.75253
20
-2.63976
11
3.75441
21
-2.64351
0
LINE
8
BLACK
6
CONTINUOUS
10
3.75441
20
-2.64351
11
3.7547
21
-2.64449
0
LINE
8
BLACK
6
CONTINUOUS
10
3.7547
20
-2.64449
11
3.75466
21
-2.64466
0
LINE
8
BLACK
6
CONTINUOUS
10
3.75466
20
-2.64466
11
3.75472
21
-2.64483
0
LINE
8
BLACK
6
CONTINUOUS
10
3.75472
20
-2.64483
11
3.75472
21
-2.65232
0
LINE
8
BLACK
6
CONTINUOUS
10
3.75472
20
-2.65232
11
3.75454
21
-2.65333
0
LINE
8
BLACK
6
CONTINUOUS
10
3.75454
20
-2.65333
11
3.75324
21
-2.65488
0
LINE
8
BLACK
6
CONTINUOUS
10
3.75324
20
-2.65488
11
3.75125
21
-2.65523
0
LINE
8
BLACK
6
CONTINUOUS
10
3.75125
20
-2.65523
11
3.7495
21
-2.65422
0
LINE
8
BLACK
6
CONTINUOUS
10
3.7495
20
-2.65422
11
3.74881
21
-2.65232
0
LINE
8
BLACK
6
CONTINUOUS
10
3.74881
20
-2.65232
11
3.74881
21
-2.64552
0
LINE
8
BLACK
6
CONTINUOUS
10
3.74881
20
-2.64552
11
3.74746
21
-2.64283
0
LINE
8
BLACK
6
CONTINUOUS
10
3.74746
20
-2.64283
11
3.74613
21
-2.6415
0
LINE
8
BLACK
6
CONTINUOUS
10
3.74613
20
-2.6415
11
3.74118
21
-2.63819
0
LINE
8
BLACK
6
CONTINUOUS
10
3.74118
20
-2.63819
11
3.73826
21
-2.63746
0
LINE
8
BLACK
6
CONTINUOUS
10
3.73826
20
-2.63746
11
3.73941
21
-2.63976
0
LINE
8
BLACK
6
CONTINUOUS
10
3.73941
20
-2.63976
11
3.7397
21
-2.64074
0
LINE
8
BLACK
6
CONTINUOUS
10
3.7397
20
-2.64074
11
3.73966
21
-2.64091
0
LINE
8
BLACK
6
CONTINUOUS
10
3.73966
20
-2.64091
11
3.73972
21
-2.64108
0
LINE
8
BLACK
6
CONTINUOUS
10
3.73972
20
-2.64108
11
3.73972
21
-2.64858
0
LINE
8
BLACK
6
CONTINUOUS
10
3.73972
20
-2.64858
11
3.73954
21
-2.64959
0
LINE
8
BLACK
6
CONTINUOUS
10
3.73954
20
-2.64959
11
3.73943
21
-2.64972
0
LINE
8
BLACK
6
CONTINUOUS
10
3.73943
20
-2.64972
11
3.73941
21
-2.6499
0
LINE
8
BLACK
6
CONTINUOUS
10
3.73941
20
-2.6499
11
3.73753
21
-2.65365
0
LINE
8
BLACK
6
CONTINUOUS
10
3.73753
20
-2.65365
11
3.73701
21
-2.65435
0
LINE
8
BLACK
6
CONTINUOUS
10
3.73701
20
-2.65435
11
3.73698
21
-2.65441
0
LINE
8
BLACK
6
CONTINUOUS
10
3.73698
20
-2.65441
11
3.7351
21
-2.65629
0
LINE
8
BLACK
6
CONTINUOUS
10
3.7351
20
-2.65629
11
3.73438
21
-2.65679
0
LINE
8
BLACK
6
CONTINUOUS
10
3.73438
20
-2.65679
11
3.73434
21
-2.65684
0
LINE
8
BLACK
6
CONTINUOUS
10
3.73434
20
-2.65684
11
3.73059
21
-2.65872
0
LINE
8
BLACK
6
CONTINUOUS
10
3.73059
20
-2.65872
11
3.7296
21
-2.65901
0
LINE
8
BLACK
6
CONTINUOUS
10
3.7296
20
-2.65901
11
3.72943
21
-2.65897
0
LINE
8
BLACK
6
CONTINUOUS
10
3.72943
20
-2.65897
11
3.72927
21
-2.65903
0
LINE
8
BLACK
6
CONTINUOUS
10
3.72927
20
-2.65903
11
3.71989
21
-2.65903
0
LINE
8
BLACK
6
CONTINUOUS
10
3.71989
20
-2.65903
11
3.71888
21
-2.65885
0
LINE
8
BLACK
6
CONTINUOUS
10
3.71888
20
-2.65885
11
3.71875
21
-2.65874
0
LINE
8
BLACK
6
CONTINUOUS
10
3.71875
20
-2.65874
11
3.71857
21
-2.65872
0
LINE
8
BLACK
6
CONTINUOUS
10
3.71857
20
-2.65872
11
3.71482
21
-2.65684
0
LINE
8
BLACK
6
CONTINUOUS
10
3.71482
20
-2.65684
11
3.71411
21
-2.65631
0
LINE
8
BLACK
6
CONTINUOUS
10
3.71411
20
-2.65631
11
3.71406
21
-2.65629
0
LINE
8
BLACK
6
CONTINUOUS
10
3.71406
20
-2.65629
11
3.71218
21
-2.65441
0
LINE
8
BLACK
6
CONTINUOUS
10
3.71218
20
-2.65441
11
3.71168
21
-2.65369
0
LINE
8
BLACK
6
CONTINUOUS
10
3.71168
20
-2.65369
11
3.71163
21
-2.65365
0
LINE
8
BLACK
6
CONTINUOUS
10
3.71163
20
-2.65365
11
3.70975
21
-2.6499
0
LINE
8
BLACK
6
CONTINUOUS
10
3.70975
20
-2.6499
11
3.70946
21
-2.64891
0
LINE
8
BLACK
6
CONTINUOUS
10
3.70946
20
-2.64891
11
3.7095
21
-2.64874
0
LINE
8
BLACK
6
CONTINUOUS
10
3.7095
20
-2.64874
11
3.70944
21
-2.64858
0
LINE
8
BLACK
6
CONTINUOUS
10
3.70944
20
-2.64858
11
3.70944
21
-2.64108
0
LINE
8
BLACK
6
CONTINUOUS
10
3.70944
20
-2.64108
11
3.70962
21
-2.64007
0
LINE
8
BLACK
6
CONTINUOUS
10
3.70962
20
-2.64007
11
3.70973
21
-2.63993
0
LINE
8
BLACK
6
CONTINUOUS
10
3.70973
20
-2.63993
11
3.70975
21
-2.63976
0
LINE
8
BLACK
6
CONTINUOUS
10
3.70975
20
-2.63976
11
3.71163
21
-2.63601
0
LINE
8
BLACK
6
CONTINUOUS
10
3.71163
20
-2.63601
11
3.71215
21
-2.6353
0
LINE
8
BLACK
6
CONTINUOUS
10
3.71215
20
-2.6353
11
3.71218
21
-2.63524
0
LINE
8
BLACK
6
CONTINUOUS
10
3.71218
20
-2.63524
11
3.71406
21
-2.63336
0
LINE
8
BLACK
6
CONTINUOUS
10
3.71406
20
-2.63336
11
3.71478
21
-2.63286
0
LINE
8
BLACK
6
CONTINUOUS
10
3.71478
20
-2.63286
11
3.71482
21
-2.63281
0
LINE
8
BLACK
6
CONTINUOUS
10
3.71482
20
-2.63281
11
3.71857
21
-2.63094
0
LINE
8
BLACK
6
CONTINUOUS
10
3.71857
20
-2.63094
11
3.71956
21
-2.63064
0
LINE
8
BLACK
6
CONTINUOUS
10
3.71956
20
-2.63064
11
3.71973
21
-2.63068
0
LINE
8
BLACK
6
CONTINUOUS
10
3.71973
20
-2.63068
11
3.71989
21
-2.63062
0
LINE
8
BLACK
6
CONTINUOUS
10
3.71989
20
-2.63062
11
3.73489
21
-2.63062
0
LINE
8
BLACK
6
CONTINUOUS
10
3.73489
20
-2.63062
11
3.73547
21
-2.63073
0
LINE
8
BLACK
6
CONTINUOUS
10
3.71789
20
-2.63788
11
3.7167
21
-2.63908
0
LINE
8
BLACK
6
CONTINUOUS
10
3.7167
20
-2.63908
11
3.71535
21
-2.64177
0
LINE
8
BLACK
6
CONTINUOUS
10
3.71535
20
-2.64177
11
3.71535
21
-2.64788
0
LINE
8
BLACK
6
CONTINUOUS
10
3.71535
20
-2.64788
11
3.7167
21
-2.65058
0
LINE
8
BLACK
6
CONTINUOUS
10
3.7167
20
-2.65058
11
3.71789
21
-2.65177
0
LINE
8
BLACK
6
CONTINUOUS
10
3.71789
20
-2.65177
11
3.72059
21
-2.65312
0
LINE
8
BLACK
6
CONTINUOUS
10
3.72059
20
-2.65312
11
3.72857
21
-2.65312
0
LINE
8
BLACK
6
CONTINUOUS
10
3.72857
20
-2.65312
11
3.73127
21
-2.65177
0
LINE
8
BLACK
6
CONTINUOUS
10
3.73127
20
-2.65177
11
3.73246
21
-2.65058
0
LINE
8
BLACK
6
CONTINUOUS
10
3.73246
20
-2.65058
11
3.73381
21
-2.64788
0
LINE
8
BLACK
6
CONTINUOUS
10
3.73381
20
-2.64788
11
3.73381
21
-2.64177
0
LINE
8
BLACK
6
CONTINUOUS
10
3.73381
20
-2.64177
11
3.73246
21
-2.63908
0
LINE
8
BLACK
6
CONTINUOUS
10
3.73246
20
-2.63908
11
3.73127
21
-2.63788
0
LINE
8
BLACK
6
CONTINUOUS
10
3.73127
20
-2.63788
11
3.72857
21
-2.63653
0
LINE
8
BLACK
6
CONTINUOUS
10
3.72857
20
-2.63653
11
3.72059
21
-2.63653
0
LINE
8
BLACK
6
CONTINUOUS
10
3.72059
20
-2.63653
11
3.71789
21
-2.63788
0
LINE
8
BLACK
6
CONTINUOUS
10
3.75039
20
-2.612
11
3.75065
21
-2.61198
0
LINE
8
BLACK
6
CONTINUOUS
10
3.75065
20
-2.61198
11
3.75128
21
-2.61242
0
LINE
8
BLACK
6
CONTINUOUS
10
3.75128
20
-2.61242
11
3.75198
21
-2.61274
0
LINE
8
BLACK
6
CONTINUOUS
10
3.75198
20
-2.61274
11
3.75385
21
-2.61462
0
LINE
8
BLACK
6
CONTINUOUS
10
3.75385
20
-2.61462
11
3.75408
21
-2.61494
0
LINE
8
BLACK
6
CONTINUOUS
10
3.75408
20
-2.61494
11
3.75418
21
-2.61501
0
LINE
8
BLACK
6
CONTINUOUS
10
3.75418
20
-2.61501
11
3.75422
21
-2.61514
0
LINE
8
BLACK
6
CONTINUOUS
10
3.75422
20
-2.61514
11
3.75422
21
-2.61514
0
LINE
8
BLACK
6
CONTINUOUS
10
3.75422
20
-2.61514
11
3.75432
21
-2.61523
0
LINE
8
BLACK
6
CONTINUOUS
10
3.75432
20
-2.61523
11
3.75434
21
-2.61531
0
LINE
8
BLACK
6
CONTINUOUS
10
3.75434
20
-2.61531
11
3.75444
21
-2.61546
0
LINE
8
BLACK
6
CONTINUOUS
10
3.75444
20
-2.61546
11
3.75451
21
-2.61622
0
LINE
8
BLACK
6
CONTINUOUS
10
3.75451
20
-2.61622
11
3.75471
21
-2.61696
0
LINE
8
BLACK
6
CONTINUOUS
10
3.75471
20
-2.61696
11
3.75465
21
-2.61708
0
LINE
8
BLACK
6
CONTINUOUS
10
3.75465
20
-2.61708
11
3.75467
21
-2.61722
0
LINE
8
BLACK
6
CONTINUOUS
10
3.75467
20
-2.61722
11
3.7546
21
-2.61733
0
LINE
8
BLACK
6
CONTINUOUS
10
3.7546
20
-2.61733
11
3.75462
21
-2.61747
0
LINE
8
BLACK
6
CONTINUOUS
10
3.75462
20
-2.61747
11
3.75418
21
-2.6181
0
LINE
8
BLACK
6
CONTINUOUS
10
3.75418
20
-2.6181
11
3.75385
21
-2.61879
0
LINE
8
BLACK
6
CONTINUOUS
10
3.75385
20
-2.61879
11
3.75198
21
-2.62067
0
LINE
8
BLACK
6
CONTINUOUS
10
3.75198
20
-2.62067
11
3.75166
21
-2.62089
0
LINE
8
BLACK
6
CONTINUOUS
10
3.75166
20
-2.62089
11
3.75158
21
-2.621
0
LINE
8
BLACK
6
CONTINUOUS
10
3.75158
20
-2.621
11
3.75146
21
-2.62103
0
LINE
8
BLACK
6
CONTINUOUS
10
3.75146
20
-2.62103
11
3.75114
21
-2.62125
0
LINE
8
BLACK
6
CONTINUOUS
10
3.75114
20
-2.62125
11
3.75037
21
-2.62132
0
LINE
8
BLACK
6
CONTINUOUS
10
3.75037
20
-2.62132
11
3.74963
21
-2.62152
0
LINE
8
BLACK
6
CONTINUOUS
10
3.74963
20
-2.62152
11
3.74939
21
-2.62141
0
LINE
8
BLACK
6
CONTINUOUS
10
3.74939
20
-2.62141
11
3.74913
21
-2.62143
0
LINE
8
BLACK
6
CONTINUOUS
10
3.74913
20
-2.62143
11
3.7485
21
-2.62099
0
LINE
8
BLACK
6
CONTINUOUS
10
3.7485
20
-2.62099
11
3.7478
21
-2.62067
0
LINE
8
BLACK
6
CONTINUOUS
10
3.7478
20
-2.62067
11
3.74593
21
-2.61879
0
LINE
8
BLACK
6
CONTINUOUS
10
3.74593
20
-2.61879
11
3.7457
21
-2.61847
0
LINE
8
BLACK
6
CONTINUOUS
10
3.7457
20
-2.61847
11
3.7456
21
-2.6184
0
LINE
8
BLACK
6
CONTINUOUS
10
3.7456
20
-2.6184
11
3.74556
21
-2.61827
0
LINE
8
BLACK
6
CONTINUOUS
10
3.74556
20
-2.61827
11
3.74556
21
-2.61826
0
LINE
8
BLACK
6
CONTINUOUS
10
3.74556
20
-2.61826
11
3.74546
21
-2.61818
0
LINE
8
BLACK
6
CONTINUOUS
10
3.74546
20
-2.61818
11
3.74544
21
-2.6181
0
LINE
8
BLACK
6
CONTINUOUS
10
3.74544
20
-2.6181
11
3.74534
21
-2.61795
0
LINE
8
BLACK
6
CONTINUOUS
10
3.74534
20
-2.61795
11
3.74527
21
-2.61719
0
LINE
8
BLACK
6
CONTINUOUS
10
3.74527
20
-2.61719
11
3.74507
21
-2.61645
0
LINE
8
BLACK
6
CONTINUOUS
10
3.74507
20
-2.61645
11
3.74513
21
-2.61632
0
LINE
8
BLACK
6
CONTINUOUS
10
3.74513
20
-2.61632
11
3.74511
21
-2.61619
0
LINE
8
BLACK
6
CONTINUOUS
10
3.74511
20
-2.61619
11
3.74517
21
-2.61607
0
LINE
8
BLACK
6
CONTINUOUS
10
3.74517
20
-2.61607
11
3.74516
21
-2.61594
0
LINE
8
BLACK
6
CONTINUOUS
10
3.74516
20
-2.61594
11
3.7456
21
-2.61531
0
LINE
8
BLACK
6
CONTINUOUS
10
3.7456
20
-2.61531
11
3.74593
21
-2.61462
0
LINE
8
BLACK
6
CONTINUOUS
10
3.74593
20
-2.61462
11
3.7478
21
-2.61274
0
LINE
8
BLACK
6
CONTINUOUS
10
3.7478
20
-2.61274
11
3.74812
21
-2.61252
0
LINE
8
BLACK
6
CONTINUOUS
10
3.74812
20
-2.61252
11
3.7482
21
-2.61241
0
LINE
8
BLACK
6
CONTINUOUS
10
3.7482
20
-2.61241
11
3.74832
21
-2.61238
0
LINE
8
BLACK
6
CONTINUOUS
10
3.74832
20
-2.61238
11
3.74864
21
-2.61215
0
LINE
8
BLACK
6
CONTINUOUS
10
3.74864
20
-2.61215
11
3.74941
21
-2.61209
0
LINE
8
BLACK
6
CONTINUOUS
10
3.74941
20
-2.61209
11
3.75015
21
-2.61189
0
LINE
8
BLACK
6
CONTINUOUS
10
3.75015
20
-2.61189
11
3.75039
21
-2.612
0
LINE
8
BLACK
6
CONTINUOUS
10
3.74528
20
-2.57456
11
3.74541
21
-2.57467
0
LINE
8
BLACK
6
CONTINUOUS
10
3.74541
20
-2.57467
11
3.74559
21
-2.57469
0
LINE
8
BLACK
6
CONTINUOUS
10
3.74559
20
-2.57469
11
3.74934
21
-2.57657
0
LINE
8
BLACK
6
CONTINUOUS
10
3.74934
20
-2.57657
11
3.75004
21
-2.57709
0
LINE
8
BLACK
6
CONTINUOUS
10
3.75004
20
-2.57709
11
3.7501
21
-2.57712
0
LINE
8
BLACK
6
CONTINUOUS
10
3.7501
20
-2.57712
11
3.75198
21
-2.579
0
LINE
8
BLACK
6
CONTINUOUS
10
3.75198
20
-2.579
11
3.75248
21
-2.57972
0
LINE
8
BLACK
6
CONTINUOUS
10
3.75248
20
-2.57972
11
3.75253
21
-2.57976
0
LINE
8
BLACK
6
CONTINUOUS
10
3.75253
20
-2.57976
11
3.75441
21
-2.58351
0
LINE
8
BLACK
6
CONTINUOUS
10
3.75441
20
-2.58351
11
3.7547
21
-2.5845
0
LINE
8
BLACK
6
CONTINUOUS
10
3.7547
20
-2.5845
11
3.75466
21
-2.58467
0
LINE
8
BLACK
6
CONTINUOUS
10
3.75466
20
-2.58467
11
3.75472
21
-2.58483
0
LINE
8
BLACK
6
CONTINUOUS
10
3.75472
20
-2.58483
11
3.75472
21
-2.59421
0
LINE
8
BLACK
6
CONTINUOUS
10
3.75472
20
-2.59421
11
3.75454
21
-2.59522
0
LINE
8
BLACK
6
CONTINUOUS
10
3.75454
20
-2.59522
11
3.75443
21
-2.59535
0
LINE
8
BLACK
6
CONTINUOUS
10
3.75443
20
-2.59535
11
3.75441
21
-2.59553
0
LINE
8
BLACK
6
CONTINUOUS
10
3.75441
20
-2.59553
11
3.75253
21
-2.59928
0
LINE
8
BLACK
6
CONTINUOUS
10
3.75253
20
-2.59928
11
3.752
21
-2.59999
0
LINE
8
BLACK
6
CONTINUOUS
10
3.752
20
-2.59999
11
3.75198
21
-2.60004
0
LINE
8
BLACK
6
CONTINUOUS
10
3.75198
20
-2.60004
11
3.7501
21
-2.60192
0
LINE
8
BLACK
6
CONTINUOUS
10
3.7501
20
-2.60192
11
3.74926
21
-2.60251
0
LINE
8
BLACK
6
CONTINUOUS
10
3.74926
20
-2.60251
11
3.74725
21
-2.60268
0
LINE
8
BLACK
6
CONTINUOUS
10
3.74725
20
-2.60268
11
3.7456
21
-2.60152
0
LINE
8
BLACK
6
CONTINUOUS
10
3.7456
20
-2.60152
11
3.74507
21
-2.59957
0
LINE
8
BLACK
6
CONTINUOUS
10
3.74507
20
-2.59957
11
3.74593
21
-2.59774
0
LINE
8
BLACK
6
CONTINUOUS
10
3.74593
20
-2.59774
11
3.74746
21
-2.59621
0
LINE
8
BLACK
6
CONTINUOUS
10
3.74746
20
-2.59621
11
3.74881
21
-2.59351
0
LINE
8
BLACK
6
CONTINUOUS
10
3.74881
20
-2.59351
11
3.74881
21
-2.58553
0
LINE
8
BLACK
6
CONTINUOUS
10
3.74881
20
-2.58553
11
3.74746
21
-2.58283
0
LINE
8
BLACK
6
CONTINUOUS
10
3.74746
20
-2.58283
11
3.74627
21
-2.58164
0
LINE
8
BLACK
6
CONTINUOUS
10
3.74627
20
-2.58164
11
3.74357
21
-2.58029
0
LINE
8
BLACK
6
CONTINUOUS
10
3.74357
20
-2.58029
11
3.73559
21
-2.58029
0
LINE
8
BLACK
6
CONTINUOUS
10
3.73559
20
-2.58029
11
3.73289
21
-2.58164
0
LINE
8
BLACK
6
CONTINUOUS
10
3.73289
20
-2.58164
11
3.73169
21
-2.58283
0
LINE
8
BLACK
6
CONTINUOUS
10
3.73169
20
-2.58283
11
3.73035
21
-2.58553
0
LINE
8
BLACK
6
CONTINUOUS
10
3.73035
20
-2.58553
11
3.73035
21
-2.59351
0
LINE
8
BLACK
6
CONTINUOUS
10
3.73035
20
-2.59351
11
3.73169
21
-2.59621
0
LINE
8
BLACK
6
CONTINUOUS
10
3.73169
20
-2.59621
11
3.73323
21
-2.59774
0
LINE
8
BLACK
6
CONTINUOUS
10
3.73323
20
-2.59774
11
3.73382
21
-2.59858
0
LINE
8
BLACK
6
CONTINUOUS
10
3.73382
20
-2.59858
11
3.73382
21
-2.5986
0
LINE
8
BLACK
6
CONTINUOUS
10
3.73382
20
-2.5986
11
3.73383
21
-2.59862
0
LINE
8
BLACK
6
CONTINUOUS
10
3.73383
20
-2.59862
11
3.73391
21
-2.59961
0
LINE
8
BLACK
6
CONTINUOUS
10
3.73391
20
-2.59961
11
3.73399
21
-2.6006
0
LINE
8
BLACK
6
CONTINUOUS
10
3.73399
20
-2.6006
11
3.73398
21
-2.60061
0
LINE
8
BLACK
6
CONTINUOUS
10
3.73398
20
-2.60061
11
3.73398
21
-2.60063
0
LINE
8
BLACK
6
CONTINUOUS
10
3.73398
20
-2.60063
11
3.7334
21
-2.60144
0
LINE
8
BLACK
6
CONTINUOUS
10
3.7334
20
-2.60144
11
3.73284
21
-2.60225
0
LINE
8
BLACK
6
CONTINUOUS
10
3.73284
20
-2.60225
11
3.73282
21
-2.60225
0
LINE
8
BLACK
6
CONTINUOUS
10
3.73282
20
-2.60225
11
3.73281
21
-2.60227
0
LINE
8
BLACK
6
CONTINUOUS
10
3.73281
20
-2.60227
11
3.73184
21
-2.60252
0
LINE
8
BLACK
6
CONTINUOUS
10
3.73184
20
-2.60252
11
3.73088
21
-2.60277
0
LINE
8
BLACK
6
CONTINUOUS
10
3.73088
20
-2.60277
11
3.73087
21
-2.60276
0
LINE
8
BLACK
6
CONTINUOUS
10
3.73087
20
-2.60276
11
3.73085
21
-2.60277
0
LINE
8
BLACK
6
CONTINUOUS
10
3.73085
20
-2.60277
11
3.7121
21
-2.60089
0
LINE
8
BLACK
6
CONTINUOUS
10
3.7121
20
-2.60089
11
3.71195
21
-2.60085
0
LINE
8
BLACK
6
CONTINUOUS
10
3.71195
20
-2.60085
11
3.71188
21
-2.60086
0
LINE
8
BLACK
6
CONTINUOUS
10
3.71188
20
-2.60086
11
3.71178
21
-2.6008
0
LINE
8
BLACK
6
CONTINUOUS
10
3.71178
20
-2.6008
11
3.71111
21
-2.60062
0
LINE
8
BLACK
6
CONTINUOUS
10
3.71111
20
-2.60062
11
3.71068
21
-2.60017
0
LINE
8
BLACK
6
CONTINUOUS
10
3.71068
20
-2.60017
11
3.71013
21
-2.59985
0
LINE
8
BLACK
6
CONTINUOUS
10
3.71013
20
-2.59985
11
3.70999
21
-2.59947
0
LINE
8
BLACK
6
CONTINUOUS
10
3.70999
20
-2.59947
11
3.7097
21
-2.59917
0
LINE
8
BLACK
6
CONTINUOUS
10
3.7097
20
-2.59917
11
3.70966
21
-2.59855
0
LINE
8
BLACK
6
CONTINUOUS
10
3.70966
20
-2.59855
11
3.70944
21
-2.59796
0
LINE
8
BLACK
6
CONTINUOUS
10
3.70944
20
-2.59796
11
3.70944
21
-2.57921
0
LINE
8
BLACK
6
CONTINUOUS
10
3.70944
20
-2.57921
11
3.70962
21
-2.5782
0
LINE
8
BLACK
6
CONTINUOUS
10
3.70962
20
-2.5782
11
3.71092
21
-2.57665
0
LINE
8
BLACK
6
CONTINUOUS
10
3.71092
20
-2.57665
11
3.71291
21
-2.5763
0
LINE
8
BLACK
6
CONTINUOUS
10
3.71291
20
-2.5763
11
3.71466
21
-2.57731
0
LINE
8
BLACK
6
CONTINUOUS
10
3.71466
20
-2.57731
11
3.71535
21
-2.57921
0
LINE
8
BLACK
6
CONTINUOUS
10
3.71535
20
-2.57921
11
3.71535
21
-2.59528
0
LINE
8
BLACK
6
CONTINUOUS
10
3.71535
20
-2.59528
11
3.72512
21
-2.59626
0
LINE
8
BLACK
6
CONTINUOUS
10
3.72512
20
-2.59626
11
3.72475
21
-2.59553
0
LINE
8
BLACK
6
CONTINUOUS
10
3.72475
20
-2.59553
11
3.72446
21
-2.59454
0
LINE
8
BLACK
6
CONTINUOUS
10
3.72446
20
-2.59454
11
3.7245
21
-2.59437
0
LINE
8
BLACK
6
CONTINUOUS
10
3.7245
20
-2.59437
11
3.72444
21
-2.59421
0
LINE
8
BLACK
6
CONTINUOUS
10
3.72444
20
-2.59421
11
3.72444
21
-2.58483
0
LINE
8
BLACK
6
CONTINUOUS
10
3.72444
20
-2.58483
11
3.72462
21
-2.58382
0
LINE
8
BLACK
6
CONTINUOUS
10
3.72462
20
-2.58382
11
3.72473
21
-2.58369
0
LINE
8
BLACK
6
CONTINUOUS
10
3.72473
20
-2.58369
11
3.72475
21
-2.58351
0
LINE
8
BLACK
6
CONTINUOUS
10
3.72475
20
-2.58351
11
3.72663
21
-2.57976
0
LINE
8
BLACK
6
CONTINUOUS
10
3.72663
20
-2.57976
11
3.72715
21
-2.57905
0
LINE
8
BLACK
6
CONTINUOUS
10
3.72715
20
-2.57905
11
3.72718
21
-2.579
0
LINE
8
BLACK
6
CONTINUOUS
10
3.72718
20
-2.579
11
3.72905
21
-2.57712
0
LINE
8
BLACK
6
CONTINUOUS
10
3.72905
20
-2.57712
11
3.72978
21
-2.57661
0
LINE
8
BLACK
6
CONTINUOUS
10
3.72978
20
-2.57661
11
3.72982
21
-2.57657
0
LINE
8
BLACK
6
CONTINUOUS
10
3.72982
20
-2.57657
11
3.73357
21
-2.57469
0
LINE
8
BLACK
6
CONTINUOUS
10
3.73357
20
-2.57469
11
3.73455
21
-2.5744
0
LINE
8
BLACK
6
CONTINUOUS
10
3.73455
20
-2.5744
11
3.73473
21
-2.57444
0
LINE
8
BLACK
6
CONTINUOUS
10
3.73473
20
-2.57444
11
3.73489
21
-2.57438
0
LINE
8
BLACK
6
CONTINUOUS
10
3.73489
20
-2.57438
11
3.74427
21
-2.57438
0
LINE
8
BLACK
6
CONTINUOUS
10
3.74427
20
-2.57438
11
3.74528
21
-2.57456
0
LINE
8
BLACK
6
CONTINUOUS
10
3.75277
20
-2.49394
11
3.75432
21
-2.49524
0
LINE
8
BLACK
6
CONTINUOUS
10
3.75432
20
-2.49524
11
3.75467
21
-2.49723
0
LINE
8
BLACK
6
CONTINUOUS
10
3.75467
20
-2.49723
11
3.75366
21
-2.49898
0
LINE
8
BLACK
6
CONTINUOUS
10
3.75366
20
-2.49898
11
3.75176
21
-2.49967
0
LINE
8
BLACK
6
CONTINUOUS
10
3.75176
20
-2.49967
11
3.73184
21
-2.49967
0
LINE
8
BLACK
6
CONTINUOUS
10
3.73184
20
-2.49967
11
3.72959
21
-2.50079
0
LINE
8
BLACK
6
CONTINUOUS
10
3.72959
20
-2.50079
11
3.72847
21
-2.50304
0
LINE
8
BLACK
6
CONTINUOUS
10
3.72847
20
-2.50304
11
3.72847
21
-2.50727
0
LINE
8
BLACK
6
CONTINUOUS
10
3.72847
20
-2.50727
11
3.72959
21
-2.50952
0
LINE
8
BLACK
6
CONTINUOUS
10
3.72959
20
-2.50952
11
3.73184
21
-2.51064
0
LINE
8
BLACK
6
CONTINUOUS
10
3.73184
20
-2.51064
11
3.75176
21
-2.51064
0
LINE
8
BLACK
6
CONTINUOUS
10
3.75176
20
-2.51064
11
3.75277
21
-2.51082
0
LINE
8
BLACK
6
CONTINUOUS
10
3.75277
20
-2.51082
11
3.75432
21
-2.51212
0
LINE
8
BLACK
6
CONTINUOUS
10
3.75432
20
-2.51212
11
3.75467
21
-2.5141
0
LINE
8
BLACK
6
CONTINUOUS
10
3.75467
20
-2.5141
11
3.75366
21
-2.51585
0
LINE
8
BLACK
6
CONTINUOUS
10
3.75366
20
-2.51585
11
3.75176
21
-2.51654
0
LINE
8
BLACK
6
CONTINUOUS
10
3.75176
20
-2.51654
11
3.73184
21
-2.51654
0
LINE
8
BLACK
6
CONTINUOUS
10
3.73184
20
-2.51654
11
3.72959
21
-2.51767
0
LINE
8
BLACK
6
CONTINUOUS
10
3.72959
20
-2.51767
11
3.72847
21
-2.51991
0
LINE
8
BLACK
6
CONTINUOUS
10
3.72847
20
-2.51991
11
3.72847
21
-2.52414
0
LINE
8
BLACK
6
CONTINUOUS
10
3.72847
20
-2.52414
11
3.72982
21
-2.52684
0
LINE
8
BLACK
6
CONTINUOUS
10
3.72982
20
-2.52684
11
3.73049
21
-2.52751
0
LINE
8
BLACK
6
CONTINUOUS
10
3.73049
20
-2.52751
11
3.75176
21
-2.52751
0
LINE
8
BLACK
6
CONTINUOUS
10
3.75176
20
-2.52751
11
3.75277
21
-2.52769
0
LINE
8
BLACK
6
CONTINUOUS
10
3.75277
20
-2.52769
11
3.75432
21
-2.52899
0
LINE
8
BLACK
6
CONTINUOUS
10
3.75432
20
-2.52899
11
3.75467
21
-2.53098
0
LINE
8
BLACK
6
CONTINUOUS
10
3.75467
20
-2.53098
11
3.75366
21
-2.53273
0
LINE
8
BLACK
6
CONTINUOUS
10
3.75366
20
-2.53273
11
3.75176
21
-2.53342
0
LINE
8
BLACK
6
CONTINUOUS
10
3.75176
20
-2.53342
11
3.72552
21
-2.53342
0
LINE
8
BLACK
6
CONTINUOUS
10
3.72552
20
-2.53342
11
3.72451
21
-2.53324
0
LINE
8
BLACK
6
CONTINUOUS
10
3.72451
20
-2.53324
11
3.72296
21
-2.53194
0
LINE
8
BLACK
6
CONTINUOUS
10
3.72296
20
-2.53194
11
3.72261
21
-2.52995
0
LINE
8
BLACK
6
CONTINUOUS
10
3.72261
20
-2.52995
11
3.72362
21
-2.5282
0
LINE
8
BLACK
6
CONTINUOUS
10
3.72362
20
-2.5282
11
3.72385
21
-2.52812
0
LINE
8
BLACK
6
CONTINUOUS
10
3.72385
20
-2.52812
11
3.72288
21
-2.52616
0
LINE
8
BLACK
6
CONTINUOUS
10
3.72288
20
-2.52616
11
3.72258
21
-2.52518
0
LINE
8
BLACK
6
CONTINUOUS
10
3.72258
20
-2.52518
11
3.72263
21
-2.52501
0
LINE
8
BLACK
6
CONTINUOUS
10
3.72263
20
-2.52501
11
3.72257
21
-2.52484
0
LINE
8
BLACK
6
CONTINUOUS
10
3.72257
20
-2.52484
11
3.72257
21
-2.51922
0
LINE
8
BLACK
6
CONTINUOUS
10
3.72257
20
-2.51922
11
3.72274
21
-2.51821
0
LINE
8
BLACK
6
CONTINUOUS
10
3.72274
20
-2.51821
11
3.72286
21
-2.51807
0
LINE
8
BLACK
6
CONTINUOUS
10
3.72286
20
-2.51807
11
3.72288
21
-2.5179
0
LINE
8
BLACK
6
CONTINUOUS
10
3.72288
20
-2.5179
11
3.72475
21
-2.51415
0
LINE
8
BLACK
6
CONTINUOUS
10
3.72475
20
-2.51415
11
3.72517
21
-2.51358
0
LINE
8
BLACK
6
CONTINUOUS
10
3.72517
20
-2.51358
11
3.72507
21
-2.51334
0
LINE
8
BLACK
6
CONTINUOUS
10
3.72507
20
-2.51334
11
3.72475
21
-2.51304
0
LINE
8
BLACK
6
CONTINUOUS
10
3.72475
20
-2.51304
11
3.72288
21
-2.50929
0
LINE
8
BLACK
6
CONTINUOUS
10
3.72288
20
-2.50929
11
3.72258
21
-2.50831
0
LINE
8
BLACK
6
CONTINUOUS
10
3.72258
20
-2.50831
11
3.72263
21
-2.50813
0
LINE
8
BLACK
6
CONTINUOUS
10
3.72263
20
-2.50813
11
3.72257
21
-2.50797
0
LINE
8
BLACK
6
CONTINUOUS
10
3.72257
20
-2.50797
11
3.72257
21
-2.50234
0
LINE
8
BLACK
6
CONTINUOUS
10
3.72257
20
-2.50234
11
3.72274
21
-2.50133
0
LINE
8
BLACK
6
CONTINUOUS
10
3.72274
20
-2.50133
11
3.72286
21
-2.5012
0
LINE
8
BLACK
6
CONTINUOUS
10
3.72286
20
-2.5012
11
3.72288
21
-2.50102
0
LINE
8
BLACK
6
CONTINUOUS
10
3.72288
20
-2.50102
11
3.72475
21
-2.49727
0
LINE
8
BLACK
6
CONTINUOUS
10
3.72475
20
-2.49727
11
3.72536
21
-2.49645
0
LINE
8
BLACK
6
CONTINUOUS
10
3.72536
20
-2.49645
11
3.72577
21
-2.49627
0
LINE
8
BLACK
6
CONTINUOUS
10
3.72577
20
-2.49627
11
3.72607
21
-2.49595
0
LINE
8
BLACK
6
CONTINUOUS
10
3.72607
20
-2.49595
11
3.72982
21
-2.49408
0
LINE
8
BLACK
6
CONTINUOUS
10
3.72982
20
-2.49408
11
3.7308
21
-2.49379
0
LINE
8
BLACK
6
CONTINUOUS
10
3.7308
20
-2.49379
11
3.73098
21
-2.49383
0
LINE
8
BLACK
6
CONTINUOUS
10
3.73098
20
-2.49383
11
3.73114
21
-2.49377
0
LINE
8
BLACK
6
CONTINUOUS
10
3.73114
20
-2.49377
11
3.75176
21
-2.49377
0
LINE
8
BLACK
6
CONTINUOUS
10
3.75176
20
-2.49377
11
3.75277
21
-2.49394
0
LINE
8
BLACK
6
CONTINUOUS
10
3.75277
20
-2.44145
11
3.75432
21
-2.44275
0
LINE
8
BLACK
6
CONTINUOUS
10
3.75432
20
-2.44275
11
3.75467
21
-2.44474
0
LINE
8
BLACK
6
CONTINUOUS
10
3.75467
20
-2.44474
11
3.75366
21
-2.44649
0
LINE
8
BLACK
6
CONTINUOUS
10
3.75366
20
-2.44649
11
3.75176
21
-2.44718
0
LINE
8
BLACK
6
CONTINUOUS
10
3.75176
20
-2.44718
11
3.73184
21
-2.44718
0
LINE
8
BLACK
6
CONTINUOUS
10
3.73184
20
-2.44718
11
3.72959
21
-2.4483
0
LINE
8
BLACK
6
CONTINUOUS
10
3.72959
20
-2.4483
11
3.72847
21
-2.45055
0
LINE
8
BLACK
6
CONTINUOUS
10
3.72847
20
-2.45055
11
3.72847
21
-2.45478
0
LINE
8
BLACK
6
CONTINUOUS
10
3.72847
20
-2.45478
11
3.72959
21
-2.45702
0
LINE
8
BLACK
6
CONTINUOUS
10
3.72959
20
-2.45702
11
3.73184
21
-2.45815
0
LINE
8
BLACK
6
CONTINUOUS
10
3.73184
20
-2.45815
11
3.75176
21
-2.45815
0
LINE
8
BLACK
6
CONTINUOUS
10
3.75176
20
-2.45815
11
3.75277
21
-2.45832
0
LINE
8
BLACK
6
CONTINUOUS
10
3.75277
20
-2.45832
11
3.75432
21
-2.45962
0
LINE
8
BLACK
6
CONTINUOUS
10
3.75432
20
-2.45962
11
3.75467
21
-2.46161
0
LINE
8
BLACK
6
CONTINUOUS
10
3.75467
20
-2.46161
11
3.75366
21
-2.46336
0
LINE
8
BLACK
6
CONTINUOUS
10
3.75366
20
-2.46336
11
3.75176
21
-2.46405
0
LINE
8
BLACK
6
CONTINUOUS
10
3.75176
20
-2.46405
11
3.73184
21
-2.46405
0
LINE
8
BLACK
6
CONTINUOUS
10
3.73184
20
-2.46405
11
3.72959
21
-2.46517
0
LINE
8
BLACK
6
CONTINUOUS
10
3.72959
20
-2.46517
11
3.72847
21
-2.46742
0
LINE
8
BLACK
6
CONTINUOUS
10
3.72847
20
-2.46742
11
3.72847
21
-2.47165
0
LINE
8
BLACK
6
CONTINUOUS
10
3.72847
20
-2.47165
11
3.72982
21
-2.47435
0
LINE
8
BLACK
6
CONTINUOUS
10
3.72982
20
-2.47435
11
3.73049
21
-2.47502
0
LINE
8
BLACK
6
CONTINUOUS
10
3.73049
20
-2.47502
11
3.75176
21
-2.47502
0
LINE
8
BLACK
6
CONTINUOUS
10
3.75176
20
-2.47502
11
3.75277
21
-2.4752
0
LINE
8
BLACK
6
CONTINUOUS
10
3.75277
20
-2.4752
11
3.75432
21
-2.4765
0
LINE
8
BLACK
6
CONTINUOUS
10
3.75432
20
-2.4765
11
3.75467
21
-2.47848
0
LINE
8
BLACK
6
CONTINUOUS
10
3.75467
20
-2.47848
11
3.75366
21
-2.48023
0
LINE
8
BLACK
6
CONTINUOUS
10
3.75366
20
-2.48023
11
3.75176
21
-2.48092
0
LINE
8
BLACK
6
CONTINUOUS
10
3.75176
20
-2.48092
11
3.72552
21
-2.48092
0
LINE
8
BLACK
6
CONTINUOUS
10
3.72552
20
-2.48092
11
3.72451
21
-2.48075
0
LINE
8
BLACK
6
CONTINUOUS
10
3.72451
20
-2.48075
11
3.72296
21
-2.47945
0
LINE
8
BLACK
6
CONTINUOUS
10
3.72296
20
-2.47945
11
3.72261
21
-2.47746
0
LINE
8
BLACK
6
CONTINUOUS
10
3.72261
20
-2.47746
11
3.72362
21
-2.47571
0
LINE
8
BLACK
6
CONTINUOUS
10
3.72362
20
-2.47571
11
3.72385
21
-2.47562
0
LINE
8
BLACK
6
CONTINUOUS
10
3.72385
20
-2.47562
11
3.72288
21
-2.47367
0
LINE
8
BLACK
6
CONTINUOUS
10
3.72288
20
-2.47367
11
3.72258
21
-2.47268
0
LINE
8
BLACK
6
CONTINUOUS
10
3.72258
20
-2.47268
11
3.72263
21
-2.47251
0
LINE
8
BLACK
6
CONTINUOUS
10
3.72263
20
-2.47251
11
3.72257
21
-2.47235
0
LINE
8
BLACK
6
CONTINUOUS
10
3.72257
20
-2.47235
11
3.72257
21
-2.46672
0
LINE
8
BLACK
6
CONTINUOUS
10
3.72257
20
-2.46672
11
3.72274
21
-2.46571
0
LINE
8
BLACK
6
CONTINUOUS
10
3.72274
20
-2.46571
11
3.72286
21
-2.46558
0
LINE
8
BLACK
6
CONTINUOUS
10
3.72286
20
-2.46558
11
3.72288
21
-2.4654
0
LINE
8
BLACK
6
CONTINUOUS
10
3.72288
20
-2.4654
11
3.72475
21
-2.46165
0
LINE
8
BLACK
6
CONTINUOUS
10
3.72475
20
-2.46165
11
3.72517
21
-2.46108
0
LINE
8
BLACK
6
CONTINUOUS
10
3.72517
20
-2.46108
11
3.72507
21
-2.46085
0
LINE
8
BLACK
6
CONTINUOUS
10
3.72507
20
-2.46085
11
3.72475
21
-2.46054
0
LINE
8
BLACK
6
CONTINUOUS
10
3.72475
20
-2.46054
11
3.72288
21
-2.45679
0
LINE
8
BLACK
6
CONTINUOUS
10
3.72288
20
-2.45679
11
3.72258
21
-2.45581
0
LINE
8
BLACK
6
CONTINUOUS
10
3.72258
20
-2.45581
11
3.72263
21
-2.45564
0
LINE
8
BLACK
6
CONTINUOUS
10
3.72263
20
-2.45564
11
3.72257
21
-2.45547
0
LINE
8
BLACK
6
CONTINUOUS
10
3.72257
20
-2.45547
11
3.72257
21
-2.44985
0
LINE
8
BLACK
6
CONTINUOUS
10
3.72257
20
-2.44985
11
3.72274
21
-2.44884
0
LINE
8
BLACK
6
CONTINUOUS
10
3.72274
20
-2.44884
11
3.72286
21
-2.4487
0
LINE
8
BLACK
6
CONTINUOUS
10
3.72286
20
-2.4487
11
3.72288
21
-2.44853
0
LINE
8
BLACK
6
CONTINUOUS
10
3.72288
20
-2.44853
11
3.72475
21
-2.44478
0
LINE
8
BLACK
6
CONTINUOUS
10
3.72475
20
-2.44478
11
3.72536
21
-2.44396
0
LINE
8
BLACK
6
CONTINUOUS
10
3.72536
20
-2.44396
11
3.72577
21
-2.44378
0
LINE
8
BLACK
6
CONTINUOUS
10
3.72577
20
-2.44378
11
3.72607
21
-2.44346
0
LINE
8
BLACK
6
CONTINUOUS
10
3.72607
20
-2.44346
11
3.72982
21
-2.44158
0
LINE
8
BLACK
6
CONTINUOUS
10
3.72982
20
-2.44158
11
3.7308
21
-2.44129
0
LINE
8
BLACK
6
CONTINUOUS
10
3.7308
20
-2.44129
11
3.73098
21
-2.44133
0
LINE
8
BLACK
6
CONTINUOUS
10
3.73098
20
-2.44133
11
3.73114
21
-2.44127
0
LINE
8
BLACK
6
CONTINUOUS
10
3.73114
20
-2.44127
11
3.75176
21
-2.44127
0
LINE
8
BLACK
6
CONTINUOUS
10
3.75176
20
-2.44127
11
3.75277
21
-2.44145
0
LINE
8
BLACK
6
CONTINUOUS
10
3.19554
20
-1.776
11
3.19677
21
-1.7776
0
LINE
8
BLACK
6
CONTINUOUS
10
3.19677
20
-1.7776
11
3.19668
21
-1.77962
0
LINE
8
BLACK
6
CONTINUOUS
10
3.19668
20
-1.77962
11
3.19532
21
-1.78111
0
LINE
8
BLACK
6
CONTINUOUS
10
3.19532
20
-1.78111
11
3.16167
21
-1.79862
0
LINE
8
BLACK
6
CONTINUOUS
10
3.16167
20
-1.79862
11
3.53124
21
-1.79862
0
LINE
8
BLACK
6
CONTINUOUS
10
3.53124
20
-1.79862
11
3.49759
21
-1.78111
0
LINE
8
BLACK
6
CONTINUOUS
10
3.49759
20
-1.78111
11
3.49678
21
-1.78048
0
LINE
8
BLACK
6
CONTINUOUS
10
3.49678
20
-1.78048
11
3.49601
21
-1.77862
0
LINE
8
BLACK
6
CONTINUOUS
10
3.49601
20
-1.77862
11
3.49661
21
-1.77669
0
LINE
8
BLACK
6
CONTINUOUS
10
3.49661
20
-1.77669
11
3.49832
21
-1.7756
0
LINE
8
BLACK
6
CONTINUOUS
10
3.49832
20
-1.7756
11
3.50032
21
-1.77587
0
LINE
8
BLACK
6
CONTINUOUS
10
3.50032
20
-1.77587
11
3.54035
21
-1.79671
0
LINE
8
BLACK
6
CONTINUOUS
10
3.54035
20
-1.79671
11
3.54035
21
-1.77849
0
LINE
8
BLACK
6
CONTINUOUS
10
3.54035
20
-1.77849
11
3.54053
21
-1.77748
0
LINE
8
BLACK
6
CONTINUOUS
10
3.54053
20
-1.77748
11
3.54183
21
-1.77593
0
LINE
8
BLACK
6
CONTINUOUS
10
3.54183
20
-1.77593
11
3.54382
21
-1.77558
0
LINE
8
BLACK
6
CONTINUOUS
10
3.54382
20
-1.77558
11
3.54557
21
-1.77659
0
LINE
8
BLACK
6
CONTINUOUS
10
3.54557
20
-1.77659
11
3.54626
21
-1.77849
0
LINE
8
BLACK
6
CONTINUOUS
10
3.54626
20
-1.77849
11
3.54626
21
-2.1004
0
LINE
8
BLACK
6
CONTINUOUS
10
3.54626
20
-2.1004
11
3.54953
21
-2.10519
0
LINE
8
BLACK
6
CONTINUOUS
10
3.54953
20
-2.10519
11
3.56355
21
-2.12844
0
LINE
8
BLACK
6
CONTINUOUS
10
3.56355
20
-2.12844
11
3.57622
21
-2.15245
0
LINE
8
BLACK
6
CONTINUOUS
10
3.57622
20
-2.15245
11
3.5875
21
-2.17715
0
LINE
8
BLACK
6
CONTINUOUS
10
3.5875
20
-2.17715
11
3.59735
21
-2.20245
0
LINE
8
BLACK
6
CONTINUOUS
10
3.59735
20
-2.20245
11
3.60574
21
-2.22827
0
LINE
8
BLACK
6
CONTINUOUS
10
3.60574
20
-2.22827
11
3.61265
21
-2.25453
0
LINE
8
BLACK
6
CONTINUOUS
10
3.61265
20
-2.25453
11
3.61804
21
-2.28114
0
LINE
8
BLACK
6
CONTINUOUS
10
3.61804
20
-2.28114
11
3.6219
21
-2.30801
0
LINE
8
BLACK
6
CONTINUOUS
10
3.6219
20
-2.30801
11
3.62422
21
-2.33507
0
LINE
8
BLACK
6
CONTINUOUS
10
3.62422
20
-2.33507
11
3.62492
21
-2.35925
0
LINE
8
BLACK
6
CONTINUOUS
10
3.62492
20
-2.35925
11
3.80222
21
-2.35925
0
LINE
8
BLACK
6
CONTINUOUS
10
3.80222
20
-2.35925
11
3.80323
21
-2.35943
0
LINE
8
BLACK
6
CONTINUOUS
10
3.80323
20
-2.35943
11
3.80478
21
-2.36073
0
LINE
8
BLACK
6
CONTINUOUS
10
3.80478
20
-2.36073
11
3.80513
21
-2.36272
0
LINE
8
BLACK
6
CONTINUOUS
10
3.80513
20
-2.36272
11
3.80412
21
-2.36447
0
LINE
8
BLACK
6
CONTINUOUS
10
3.80412
20
-2.36447
11
3.80222
21
-2.36516
0
LINE
8
BLACK
6
CONTINUOUS
10
3.80222
20
-2.36516
11
3.784
21
-2.36516
0
LINE
8
BLACK
6
CONTINUOUS
10
3.784
20
-2.36516
11
3.80484
21
-2.40519
0
LINE
8
BLACK
6
CONTINUOUS
10
3.80484
20
-2.40519
11
3.80515
21
-2.40617
0
LINE
8
BLACK
6
CONTINUOUS
10
3.80515
20
-2.40617
11
3.80471
21
-2.40814
0
LINE
8
BLACK
6
CONTINUOUS
10
3.80471
20
-2.40814
11
3.80311
21
-2.40937
0
LINE
8
BLACK
6
CONTINUOUS
10
3.80311
20
-2.40937
11
3.80109
21
-2.40928
0
LINE
8
BLACK
6
CONTINUOUS
10
3.80109
20
-2.40928
11
3.7996
21
-2.40792
0
LINE
8
BLACK
6
CONTINUOUS
10
3.7996
20
-2.40792
11
3.78209
21
-2.37427
0
LINE
8
BLACK
6
CONTINUOUS
10
3.78209
20
-2.37427
11
3.78209
21
-2.72415
0
LINE
8
BLACK
6
CONTINUOUS
10
3.78209
20
-2.72415
11
3.7996
21
-2.69051
0
LINE
8
BLACK
6
CONTINUOUS
10
3.7996
20
-2.69051
11
3.80023
21
-2.68969
0
LINE
8
BLACK
6
CONTINUOUS
10
3.80023
20
-2.68969
11
3.80209
21
-2.68892
0
LINE
8
BLACK
6
CONTINUOUS
10
3.80209
20
-2.68892
11
3.80402
21
-2.68953
0
LINE
8
BLACK
6
CONTINUOUS
10
3.80402
20
-2.68953
11
3.8051
21
-2.69123
0
LINE
8
BLACK
6
CONTINUOUS
10
3.8051
20
-2.69123
11
3.80484
21
-2.69323
0
LINE
8
BLACK
6
CONTINUOUS
10
3.80484
20
-2.69323
11
3.784
21
-2.73327
0
LINE
8
BLACK
6
CONTINUOUS
10
3.784
20
-2.73327
11
3.80222
21
-2.73327
0
LINE
8
BLACK
6
CONTINUOUS
10
3.80222
20
-2.73327
11
3.80323
21
-2.73345
0
LINE
8
BLACK
6
CONTINUOUS
10
3.80323
20
-2.73345
11
3.80478
21
-2.73474
0
LINE
8
BLACK
6
CONTINUOUS
10
3.80478
20
-2.73474
11
3.80513
21
-2.73673
0
LINE
8
BLACK
6
CONTINUOUS
10
3.80513
20
-2.73673
11
3.80412
21
-2.73848
0
LINE
8
BLACK
6
CONTINUOUS
10
3.80412
20
-2.73848
11
3.80222
21
-2.73917
0
LINE
8
BLACK
6
CONTINUOUS
10
3.80222
20
-2.73917
11
3.44488
21
-2.73917
0
LINE
8
BLACK
6
CONTINUOUS
10
3.44488
20
-2.73917
11
3.44387
21
-2.739
0
LINE
8
BLACK
6
CONTINUOUS
10
3.44387
20
-2.739
11
3.44232
21
-2.7377
0
LINE
8
BLACK
6
CONTINUOUS
10
3.44232
20
-2.7377
11
3.44217
21
-2.73682
0
LINE
8
BLACK
6
CONTINUOUS
10
3.44217
20
-2.73682
11
3.4399
21
-2.73867
0
LINE
8
BLACK
6
CONTINUOUS
10
3.4399
20
-2.73867
11
3.41794
21
-2.75463
0
LINE
8
BLACK
6
CONTINUOUS
10
3.41794
20
-2.75463
11
3.3951
21
-2.76931
0
LINE
8
BLACK
6
CONTINUOUS
10
3.3951
20
-2.76931
11
3.37146
21
-2.78266
0
LINE
8
BLACK
6
CONTINUOUS
10
3.37146
20
-2.78266
11
3.34709
21
-2.79464
0
LINE
8
BLACK
6
CONTINUOUS
10
3.34709
20
-2.79464
11
3.32208
21
-2.80521
0
LINE
8
BLACK
6
CONTINUOUS
10
3.32208
20
-2.80521
11
3.29651
21
-2.81433
0
LINE
8
BLACK
6
CONTINUOUS
10
3.29651
20
-2.81433
11
3.27046
21
-2.82198
0
LINE
8
BLACK
6
CONTINUOUS
10
3.27046
20
-2.82198
11
3.24401
21
-2.82813
0
LINE
8
BLACK
6
CONTINUOUS
10
3.24401
20
-2.82813
11
3.21726
21
-2.83276
0
LINE
8
BLACK
6
CONTINUOUS
10
3.21726
20
-2.83276
11
3.19029
21
-2.83585
0
LINE
8
BLACK
6
CONTINUOUS
10
3.19029
20
-2.83585
11
3.16318
21
-2.8374
0
LINE
8
BLACK
6
CONTINUOUS
10
3.16318
20
-2.8374
11
3.15256
21
-2.8374
0
LINE
8
BLACK
6
CONTINUOUS
10
3.15256
20
-2.8374
11
3.15256
21
-2.94592
0
LINE
8
BLACK
6
CONTINUOUS
10
3.15256
20
-2.94592
11
3.19259
21
-2.92508
0
LINE
8
BLACK
6
CONTINUOUS
10
3.19259
20
-2.92508
11
3.19357
21
-2.92477
0
LINE
8
BLACK
6
CONTINUOUS
10
3.19357
20
-2.92477
11
3.19554
21
-2.92521
0
LINE
8
BLACK
6
CONTINUOUS
10
3.19554
20
-2.92521
11
3.19677
21
-2.92681
0
LINE
8
BLACK
6
CONTINUOUS
10
3.19677
20
-2.92681
11
3.19668
21
-2.92883
0
LINE
8
BLACK
6
CONTINUOUS
10
3.19668
20
-2.92883
11
3.19532
21
-2.93032
0
LINE
8
BLACK
6
CONTINUOUS
10
3.19532
20
-2.93032
11
3.16167
21
-2.94783
0
LINE
8
BLACK
6
CONTINUOUS
10
3.16167
20
-2.94783
11
3.41313
21
-2.94783
0
LINE
8
BLACK
6
CONTINUOUS
10
3.41313
20
-2.94783
11
3.37948
21
-2.93032
0
LINE
8
BLACK
6
CONTINUOUS
10
3.37948
20
-2.93032
11
3.37867
21
-2.92969
0
LINE
8
BLACK
6
CONTINUOUS
10
3.37867
20
-2.92969
11
3.3779
21
-2.92783
0
LINE
8
BLACK
6
CONTINUOUS
10
3.3779
20
-2.92783
11
3.3785
21
-2.9259
0
LINE
8
BLACK
6
CONTINUOUS
10
3.3785
20
-2.9259
11
3.38021
21
-2.92482
0
LINE
8
BLACK
6
CONTINUOUS
10
3.38021
20
-2.92482
11
3.38221
21
-2.92508
0
LINE
8
BLACK
6
CONTINUOUS
10
3.38221
20
-2.92508
11
3.42224
21
-2.94592
0
LINE
8
BLACK
6
CONTINUOUS
10
3.42224
20
-2.94592
11
3.42224
21
-2.75591
0
LINE
8
BLACK
6
CONTINUOUS
10
3.42224
20
-2.75591
11
3.42242
21
-2.7549
0
LINE
8
BLACK
6
CONTINUOUS
10
3.42242
20
-2.7549
11
3.42372
21
-2.75335
0
LINE
8
BLACK
6
CONTINUOUS
10
3.42372
20
-2.75335
11
3.42571
21
-2.753
0
LINE
8
BLACK
6
CONTINUOUS
10
3.42571
20
-2.753
11
3.42746
21
-2.75401
0
LINE
8
BLACK
6
CONTINUOUS
10
3.42746
20
-2.75401
11
3.42815
21
-2.75591
0
LINE
8
BLACK
6
CONTINUOUS
10
3.42815
20
-2.75591
11
3.42815
21
-2.97387
0
LINE
8
BLACK
6
CONTINUOUS
10
3.42815
20
-2.97387
11
3.42797
21
-2.97488
0
LINE
8
BLACK
6
CONTINUOUS
10
3.42797
20
-2.97488
11
3.42667
21
-2.97643
0
LINE
8
BLACK
6
CONTINUOUS
10
3.42667
20
-2.97643
11
3.42468
21
-2.97678
0
LINE
8
BLACK
6
CONTINUOUS
10
3.42468
20
-2.97678
11
3.42293
21
-2.97577
0
LINE
8
BLACK
6
CONTINUOUS
10
3.42293
20
-2.97577
11
3.42224
21
-2.97387
0
LINE
8
BLACK
6
CONTINUOUS
10
3.42224
20
-2.97387
11
3.42224
21
-2.95565
0
LINE
8
BLACK
6
CONTINUOUS
10
3.42224
20
-2.95565
11
3.38221
21
-2.97649
0
LINE
8
BLACK
6
CONTINUOUS
10
3.38221
20
-2.97649
11
3.38123
21
-2.9768
0
LINE
8
BLACK
6
CONTINUOUS
10
3.38123
20
-2.9768
11
3.37926
21
-2.97637
0
LINE
8
BLACK
6
CONTINUOUS
10
3.37926
20
-2.97637
11
3.37803
21
-2.97476
0
LINE
8
BLACK
6
CONTINUOUS
10
3.37803
20
-2.97476
11
3.37812
21
-2.97274
0
LINE
8
BLACK
6
CONTINUOUS
10
3.37812
20
-2.97274
11
3.37948
21
-2.97126
0
LINE
8
BLACK
6
CONTINUOUS
10
3.37948
20
-2.97126
11
3.41313
21
-2.95374
0
LINE
8
BLACK
6
CONTINUOUS
10
3.41313
20
-2.95374
11
3.16167
21
-2.95374
0
LINE
8
BLACK
6
CONTINUOUS
10
3.16167
20
-2.95374
11
3.19532
21
-2.97126
0
LINE
8
BLACK
6
CONTINUOUS
10
3.19532
20
-2.97126
11
3.19613
21
-2.97188
0
LINE
8
BLACK
6
CONTINUOUS
10
3.19613
20
-2.97188
11
3.19691
21
-2.97375
0
LINE
8
BLACK
6
CONTINUOUS
10
3.19691
20
-2.97375
11
3.1963
21
-2.97567
0
LINE
8
BLACK
6
CONTINUOUS
10
3.1963
20
-2.97567
11
3.1946
21
-2.97676
0
LINE
8
BLACK
6
CONTINUOUS
10
3.1946
20
-2.97676
11
3.19259
21
-2.97649
0
LINE
8
BLACK
6
CONTINUOUS
10
3.19259
20
-2.97649
11
3.15256
21
-2.95565
0
LINE
8
BLACK
6
CONTINUOUS
10
3.15256
20
-2.95565
11
3.15256
21
-2.97387
0
LINE
8
BLACK
6
CONTINUOUS
10
3.15256
20
-2.97387
11
3.15238
21
-2.97488
0
LINE
8
BLACK
6
CONTINUOUS
10
3.15238
20
-2.97488
11
3.15108
21
-2.97643
0
LINE
8
BLACK
6
CONTINUOUS
10
3.15108
20
-2.97643
11
3.14909
21
-2.97678
0
LINE
8
BLACK
6
CONTINUOUS
10
3.14909
20
-2.97678
11
3.14734
21
-2.97577
0
LINE
8
BLACK
6
CONTINUOUS
10
3.14734
20
-2.97577
11
3.14665
21
-2.97387
0
LINE
8
BLACK
6
CONTINUOUS
10
3.14665
20
-2.97387
11
3.14665
21
-2.8374
0
LINE
8
BLACK
6
CONTINUOUS
10
3.14665
20
-2.8374
11
3.13603
21
-2.8374
0
LINE
8
BLACK
6
CONTINUOUS
10
3.13603
20
-2.8374
11
3.13121
21
-2.83713
0
LINE
8
BLACK
6
CONTINUOUS
10
3.13121
20
-2.83713
11
3.12992
21
-2.8376
0
LINE
8
BLACK
6
CONTINUOUS
10
3.12992
20
-2.8376
11
2.33912
21
-2.8376
0
LINE
8
BLACK
6
CONTINUOUS
10
2.33912
20
-2.8376
11
2.33811
21
-2.83742
0
LINE
8
BLACK
6
CONTINUOUS
10
2.33811
20
-2.83742
11
2.33656
21
-2.83612
0
LINE
8
BLACK
6
CONTINUOUS
10
2.33656
20
-2.83612
11
2.33621
21
-2.83413
0
LINE
8
BLACK
6
CONTINUOUS
10
2.33621
20
-2.83413
11
2.33722
21
-2.83238
0
LINE
8
BLACK
6
CONTINUOUS
10
2.33722
20
-2.83238
11
2.33912
21
-2.83169
0
LINE
8
BLACK
6
CONTINUOUS
10
2.33912
20
-2.83169
11
2.35734
21
-2.83169
0
LINE
8
BLACK
6
CONTINUOUS
10
2.35734
20
-2.83169
11
2.3365
21
-2.79166
0
LINE
8
BLACK
6
CONTINUOUS
10
2.3365
20
-2.79166
11
2.33619
21
-2.79068
0
LINE
8
BLACK
6
CONTINUOUS
10
2.33619
20
-2.79068
11
2.33663
21
-2.78871
0
LINE
8
BLACK
6
CONTINUOUS
10
2.33663
20
-2.78871
11
2.33823
21
-2.78748
0
LINE
8
BLACK
6
CONTINUOUS
10
2.33823
20
-2.78748
11
2.34025
21
-2.78757
0
LINE
8
BLACK
6
CONTINUOUS
10
2.34025
20
-2.78757
11
2.34174
21
-2.78893
0
LINE
8
BLACK
6
CONTINUOUS
10
2.34174
20
-2.78893
11
2.35925
21
-2.82258
0
LINE
8
BLACK
6
CONTINUOUS
10
2.35925
20
-2.82258
11
2.35925
21
-1.90183
0
LINE
8
BLACK
6
CONTINUOUS
10
2.35925
20
-1.90183
11
2.34174
21
-1.93548
0
LINE
8
BLACK
6
CONTINUOUS
10
2.34174
20
-1.93548
11
2.34111
21
-1.93629
0
LINE
8
BLACK
6
CONTINUOUS
10
2.34111
20
-1.93629
11
2.33925
21
-1.93706
0
LINE
8
BLACK
6
CONTINUOUS
10
2.33925
20
-1.93706
11
2.33732
21
-1.93646
0
LINE
8
BLACK
6
CONTINUOUS
10
2.33732
20
-1.93646
11
2.33623
21
-1.93475
0
LINE
8
BLACK
6
CONTINUOUS
10
2.33623
20
-1.93475
11
2.3365
21
-1.93275
0
LINE
8
BLACK
6
CONTINUOUS
10
2.3365
20
-1.93275
11
2.35734
21
-1.89272
0
LINE
8
BLACK
6
CONTINUOUS
10
2.35734
20
-1.89272
11
2.33912
21
-1.89272
0
LINE
8
BLACK
6
CONTINUOUS
10
2.33912
20
-1.89272
11
2.33811
21
-1.89254
0
LINE
8
BLACK
6
CONTINUOUS
10
2.33811
20
-1.89254
11
2.33656
21
-1.89124
0
LINE
8
BLACK
6
CONTINUOUS
10
2.33656
20
-1.89124
11
2.33621
21
-1.88925
0
LINE
8
BLACK
6
CONTINUOUS
10
2.33621
20
-1.88925
11
2.33722
21
-1.8875
0
LINE
8
BLACK
6
CONTINUOUS
10
2.33722
20
-1.8875
11
2.33912
21
-1.88681
0
LINE
8
BLACK
6
CONTINUOUS
10
2.33912
20
-1.88681
11
3.12992
21
-1.88681
0
LINE
8
BLACK
6
CONTINUOUS
10
3.12992
20
-1.88681
11
3.13093
21
-1.88699
0
LINE
8
BLACK
6
CONTINUOUS
10
3.13093
20
-1.88699
11
3.13127
21
-1.88728
0
LINE
8
BLACK
6
CONTINUOUS
10
3.13127
20
-1.88728
11
3.13603
21
-1.887
0
LINE
8
BLACK
6
CONTINUOUS
10
3.13603
20
-1.887
11
3.14665
21
-1.887
0
LINE
8
BLACK
6
CONTINUOUS
10
3.14665
20
-1.887
11
3.14665
21
-1.77849
0
LINE
8
BLACK
6
CONTINUOUS
10
3.14665
20
-1.77849
11
3.14683
21
-1.77748
0
LINE
8
BLACK
6
CONTINUOUS
10
3.14683
20
-1.77748
11
3.14813
21
-1.77593
0
LINE
8
BLACK
6
CONTINUOUS
10
3.14813
20
-1.77593
11
3.15012
21
-1.77558
0
LINE
8
BLACK
6
CONTINUOUS
10
3.15012
20
-1.77558
11
3.15187
21
-1.77659
0
LINE
8
BLACK
6
CONTINUOUS
10
3.15187
20
-1.77659
11
3.15256
21
-1.77849
0
LINE
8
BLACK
6
CONTINUOUS
10
3.15256
20
-1.77849
11
3.15256
21
-1.79671
0
LINE
8
BLACK
6
CONTINUOUS
10
3.15256
20
-1.79671
11
3.19259
21
-1.77587
0
LINE
8
BLACK
6
CONTINUOUS
10
3.19259
20
-1.77587
11
3.19357
21
-1.77556
0
LINE
8
BLACK
6
CONTINUOUS
10
3.19357
20
-1.77556
11
3.19554
21
-1.776
0
LINE
8
BLACK
6
CONTINUOUS
10
2.74794
20
-2.60531
11
2.75719
21
-2.6203
0
LINE
8
BLACK
6
CONTINUOUS
10
2.75719
20
-2.6203
11
2.77286
21
-2.64268
0
LINE
8
BLACK
6
CONTINUOUS
10
2.77286
20
-2.64268
11
2.78981
21
-2.66411
0
LINE
8
BLACK
6
CONTINUOUS
10
2.78981
20
-2.66411
11
2.80797
21
-2.68452
0
LINE
8
BLACK
6
CONTINUOUS
10
2.80797
20
-2.68452
11
2.82729
21
-2.70384
0
LINE
8
BLACK
6
CONTINUOUS
10
2.82729
20
-2.70384
11
2.8477
21
-2.72201
0
LINE
8
BLACK
6
CONTINUOUS
10
2.8477
20
-2.72201
11
2.86913
21
-2.73895
0
LINE
8
BLACK
6
CONTINUOUS
10
2.86913
20
-2.73895
11
2.89151
21
-2.75462
0
LINE
8
BLACK
6
CONTINUOUS
10
2.89151
20
-2.75462
11
2.91476
21
-2.76897
0
LINE
8
BLACK
6
CONTINUOUS
10
2.91476
20
-2.76897
11
2.93881
21
-2.78193
0
LINE
8
BLACK
6
CONTINUOUS
10
2.93881
20
-2.78193
11
2.96357
21
-2.79348
0
LINE
8
BLACK
6
CONTINUOUS
10
2.96357
20
-2.79348
11
2.98896
21
-2.80357
0
LINE
8
BLACK
6
CONTINUOUS
10
2.98896
20
-2.80357
11
3.0149
21
-2.81216
0
LINE
8
BLACK
6
CONTINUOUS
10
3.0149
20
-2.81216
11
3.04129
21
-2.81923
0
LINE
8
BLACK
6
CONTINUOUS
10
3.04129
20
-2.81923
11
3.06805
21
-2.82476
0
LINE
8
BLACK
6
CONTINUOUS
10
3.06805
20
-2.82476
11
3.09508
21
-2.82872
0
LINE
8
BLACK
6
CONTINUOUS
10
3.09508
20
-2.82872
11
3.1223
21
-2.8311
0
LINE
8
BLACK
6
CONTINUOUS
10
3.1223
20
-2.8311
11
3.14665
21
-2.83181
0
LINE
8
BLACK
6
CONTINUOUS
10
3.14665
20
-2.83181
11
3.14665
21
-2.79617
0
LINE
8
BLACK
6
CONTINUOUS
10
3.14665
20
-2.79617
11
3.1234
21
-2.79547
0
LINE
8
BLACK
6
CONTINUOUS
10
3.1234
20
-2.79547
11
3.09729
21
-2.7931
0
LINE
8
BLACK
6
CONTINUOUS
10
3.09729
20
-2.7931
11
3.07137
21
-2.78915
0
LINE
8
BLACK
6
CONTINUOUS
10
3.07137
20
-2.78915
11
3.04573
21
-2.78365
0
LINE
8
BLACK
6
CONTINUOUS
10
3.04573
20
-2.78365
11
3.02047
21
-2.77661
0
LINE
8
BLACK
6
CONTINUOUS
10
3.02047
20
-2.77661
11
2.99569
21
-2.76805
0
LINE
8
BLACK
6
CONTINUOUS
10
2.99569
20
-2.76805
11
2.97146
21
-2.75802
0
LINE
8
BLACK
6
CONTINUOUS
10
2.97146
20
-2.75802
11
2.94789
21
-2.74654
0
LINE
8
BLACK
6
CONTINUOUS
10
2.94789
20
-2.74654
11
2.92505
21
-2.73366
0
LINE
8
BLACK
6
CONTINUOUS
10
2.92505
20
-2.73366
11
2.90303
21
-2.71943
0
LINE
8
BLACK
6
CONTINUOUS
10
2.90303
20
-2.71943
11
2.88192
21
-2.70389
0
LINE
8
BLACK
6
CONTINUOUS
10
2.88192
20
-2.70389
11
2.86177
21
-2.6871
0
LINE
8
BLACK
6
CONTINUOUS
10
2.86177
20
-2.6871
11
2.84268
21
-2.66913
0
LINE
8
BLACK
6
CONTINUOUS
10
2.84268
20
-2.66913
11
2.82471
21
-2.65004
0
LINE
8
BLACK
6
CONTINUOUS
10
2.82471
20
-2.65004
11
2.80793
21
-2.62989
0
LINE
8
BLACK
6
CONTINUOUS
10
2.80793
20
-2.62989
11
2.79239
21
-2.60878
0
LINE
8
BLACK
6
CONTINUOUS
10
2.79239
20
-2.60878
11
2.79015
21
-2.60531
0
LINE
8
BLACK
6
CONTINUOUS
10
2.79015
20
-2.60531
11
2.74794
21
-2.60531
0
LINE
8
BLACK
6
CONTINUOUS
10
3.58357
20
-2.36516
11
3.58287
21
-2.38841
0
LINE
8
BLACK
6
CONTINUOUS
10
3.58287
20
-2.38841
11
3.5805
21
-2.41452
0
LINE
8
BLACK
6
CONTINUOUS
10
3.5805
20
-2.41452
11
3.57655
21
-2.44045
0
LINE
8
BLACK
6
CONTINUOUS
10
3.57655
20
-2.44045
11
3.57105
21
-2.46608
0
LINE
8
BLACK
6
CONTINUOUS
10
3.57105
20
-2.46608
11
3.56401
21
-2.49134
0
LINE
8
BLACK
6
CONTINUOUS
10
3.56401
20
-2.49134
11
3.55545
21
-2.51612
0
LINE
8
BLACK
6
CONTINUOUS
10
3.55545
20
-2.51612
11
3.54542
21
-2.54035
0
LINE
8
BLACK
6
CONTINUOUS
10
3.54542
20
-2.54035
11
3.53394
21
-2.56392
0
LINE
8
BLACK
6
CONTINUOUS
10
3.53394
20
-2.56392
11
3.52106
21
-2.58676
0
LINE
8
BLACK
6
CONTINUOUS
10
3.52106
20
-2.58676
11
3.50683
21
-2.60878
0
LINE
8
BLACK
6
CONTINUOUS
10
3.50683
20
-2.60878
11
3.49129
21
-2.62989
0
LINE
8
BLACK
6
CONTINUOUS
10
3.49129
20
-2.62989
11
3.4745
21
-2.65004
0
LINE
8
BLACK
6
CONTINUOUS
10
3.4745
20
-2.65004
11
3.45653
21
-2.66913
0
LINE
8
BLACK
6
CONTINUOUS
10
3.45653
20
-2.66913
11
3.43744
21
-2.6871
0
LINE
8
BLACK
6
CONTINUOUS
10
3.43744
20
-2.6871
11
3.4173
21
-2.70389
0
LINE
8
BLACK
6
CONTINUOUS
10
3.4173
20
-2.70389
11
3.39618
21
-2.71943
0
LINE
8
BLACK
6
CONTINUOUS
10
3.39618
20
-2.71943
11
3.37416
21
-2.73366
0
LINE
8
BLACK
6
CONTINUOUS
10
3.37416
20
-2.73366
11
3.35132
21
-2.74654
0
LINE
8
BLACK
6
CONTINUOUS
10
3.35132
20
-2.74654
11
3.32775
21
-2.75802
0
LINE
8
BLACK
6
CONTINUOUS
10
3.32775
20
-2.75802
11
3.30352
21
-2.76805
0
LINE
8
BLACK
6
CONTINUOUS
10
3.30352
20
-2.76805
11
3.27874
21
-2.77661
0
LINE
8
BLACK
6
CONTINUOUS
10
3.27874
20
-2.77661
11
3.25348
21
-2.78365
0
LINE
8
BLACK
6
CONTINUOUS
10
3.25348
20
-2.78365
11
3.22785
21
-2.78915
0
LINE
8
BLACK
6
CONTINUOUS
10
3.22785
20
-2.78915
11
3.20193
21
-2.7931
0
LINE
8
BLACK
6
CONTINUOUS
10
3.20193
20
-2.7931
11
3.17581
21
-2.79547
0
LINE
8
BLACK
6
CONTINUOUS
10
3.17581
20
-2.79547
11
3.15256
21
-2.79617
0
LINE
8
BLACK
6
CONTINUOUS
10
3.15256
20
-2.79617
11
3.15256
21
-2.83181
0
LINE
8
BLACK
6
CONTINUOUS
10
3.15256
20
-2.83181
11
3.17692
21
-2.8311
0
LINE
8
BLACK
6
CONTINUOUS
10
3.17692
20
-2.8311
11
3.20413
21
-2.82872
0
LINE
8
BLACK
6
CONTINUOUS
10
3.20413
20
-2.82872
11
3.23117
21
-2.82476
0
LINE
8
BLACK
6
CONTINUOUS
10
3.23117
20
-2.82476
11
3.25792
21
-2.81923
0
LINE
8
BLACK
6
CONTINUOUS
10
3.25792
20
-2.81923
11
3.28431
21
-2.81216
0
LINE
8
BLACK
6
CONTINUOUS
10
3.28431
20
-2.81216
11
3.31025
21
-2.80357
0
LINE
8
BLACK
6
CONTINUOUS
10
3.31025
20
-2.80357
11
3.33564
21
-2.79348
0
LINE
8
BLACK
6
CONTINUOUS
10
3.33564
20
-2.79348
11
3.3604
21
-2.78193
0
LINE
8
BLACK
6
CONTINUOUS
10
3.3604
20
-2.78193
11
3.38445
21
-2.76897
0
LINE
8
BLACK
6
CONTINUOUS
10
3.38445
20
-2.76897
11
3.4077
21
-2.75462
0
LINE
8
BLACK
6
CONTINUOUS
10
3.4077
20
-2.75462
11
3.43008
21
-2.73895
0
LINE
8
BLACK
6
CONTINUOUS
10
3.43008
20
-2.73895
11
3.45152
21
-2.72201
0
LINE
8
BLACK
6
CONTINUOUS
10
3.45152
20
-2.72201
11
3.47192
21
-2.70384
0
LINE
8
BLACK
6
CONTINUOUS
10
3.47192
20
-2.70384
11
3.49124
21
-2.68452
0
LINE
8
BLACK
6
CONTINUOUS
10
3.49124
20
-2.68452
11
3.50941
21
-2.66411
0
LINE
8
BLACK
6
CONTINUOUS
10
3.50941
20
-2.66411
11
3.52635
21
-2.64268
0
LINE
8
BLACK
6
CONTINUOUS
10
3.52635
20
-2.64268
11
3.54202
21
-2.6203
0
LINE
8
BLACK
6
CONTINUOUS
10
3.54202
20
-2.6203
11
3.55637
21
-2.59705
0
LINE
8
BLACK
6
CONTINUOUS
10
3.55637
20
-2.59705
11
3.56933
21
-2.573
0
LINE
8
BLACK
6
CONTINUOUS
10
3.56933
20
-2.573
11
3.58088
21
-2.54824
0
LINE
8
BLACK
6
CONTINUOUS
10
3.58088
20
-2.54824
11
3.59097
21
-2.52285
0
LINE
8
BLACK
6
CONTINUOUS
10
3.59097
20
-2.52285
11
3.59956
21
-2.49691
0
LINE
8
BLACK
6
CONTINUOUS
10
3.59956
20
-2.49691
11
3.60663
21
-2.47052
0
LINE
8
BLACK
6
CONTINUOUS
10
3.60663
20
-2.47052
11
3.61216
21
-2.44376
0
LINE
8
BLACK
6
CONTINUOUS
10
3.61216
20
-2.44376
11
3.61612
21
-2.41673
0
LINE
8
BLACK
6
CONTINUOUS
10
3.61612
20
-2.41673
11
3.6185
21
-2.38951
0
LINE
8
BLACK
6
CONTINUOUS
10
3.6185
20
-2.38951
11
3.61921
21
-2.36516
0
LINE
8
BLACK
6
CONTINUOUS
10
3.61921
20
-2.36516
11
3.58357
21
-2.36516
0
LINE
8
BLACK
6
CONTINUOUS
10
2.36707
20
-1.89272
11
2.38791
21
-1.93275
0
LINE
8
BLACK
6
CONTINUOUS
10
2.38791
20
-1.93275
11
2.38822
21
-1.93373
0
LINE
8
BLACK
6
CONTINUOUS
10
2.38822
20
-1.93373
11
2.38778
21
-1.9357
0
LINE
8
BLACK
6
CONTINUOUS
10
2.38778
20
-1.9357
11
2.38618
21
-1.93693
0
LINE
8
BLACK
6
CONTINUOUS
10
2.38618
20
-1.93693
11
2.38416
21
-1.93684
0
LINE
8
BLACK
6
CONTINUOUS
10
2.38416
20
-1.93684
11
2.38267
21
-1.93548
0
LINE
8
BLACK
6
CONTINUOUS
10
2.38267
20
-1.93548
11
2.36516
21
-1.90183
0
LINE
8
BLACK
6
CONTINUOUS
10
2.36516
20
-1.90183
11
2.36516
21
-2.82258
0
LINE
8
BLACK
6
CONTINUOUS
10
2.36516
20
-2.82258
11
2.38267
21
-2.78893
0
LINE
8
BLACK
6
CONTINUOUS
10
2.38267
20
-2.78893
11
2.3833
21
-2.78812
0
LINE
8
BLACK
6
CONTINUOUS
10
2.3833
20
-2.78812
11
2.38516
21
-2.78735
0
LINE
8
BLACK
6
CONTINUOUS
10
2.38516
20
-2.78735
11
2.38709
21
-2.78795
0
LINE
8
BLACK
6
CONTINUOUS
10
2.38709
20
-2.78795
11
2.38817
21
-2.78966
0
LINE
8
BLACK
6
CONTINUOUS
10
2.38817
20
-2.78966
11
2.38791
21
-2.79166
0
LINE
8
BLACK
6
CONTINUOUS
10
2.38791
20
-2.79166
11
2.36707
21
-2.83169
0
LINE
8
BLACK
6
CONTINUOUS
10
2.36707
20
-2.83169
11
3.07579
21
-2.83169
0
LINE
8
BLACK
6
CONTINUOUS
10
3.07579
20
-2.83169
11
3.0552
21
-2.82813
0
LINE
8
BLACK
6
CONTINUOUS
10
3.0552
20
-2.82813
11
3.02875
21
-2.82198
0
LINE
8
BLACK
6
CONTINUOUS
10
3.02875
20
-2.82198
11
3.0027
21
-2.81433
0
LINE
8
BLACK
6
CONTINUOUS
10
3.0027
20
-2.81433
11
2.97713
21
-2.80521
0
LINE
8
BLACK
6
CONTINUOUS
10
2.97713
20
-2.80521
11
2.95212
21
-2.79464
0
LINE
8
BLACK
6
CONTINUOUS
10
2.95212
20
-2.79464
11
2.92776
21
-2.78266
0
LINE
8
BLACK
6
CONTINUOUS
10
2.92776
20
-2.78266
11
2.90411
21
-2.76931
0
LINE
8
BLACK
6
CONTINUOUS
10
2.90411
20
-2.76931
11
2.88127
21
-2.75463
0
LINE
8
BLACK
6
CONTINUOUS
10
2.88127
20
-2.75463
11
2.85931
21
-2.73867
0
LINE
8
BLACK
6
CONTINUOUS
10
2.85931
20
-2.73867
11
2.83829
21
-2.72148
0
LINE
8
BLACK
6
CONTINUOUS
10
2.83829
20
-2.72148
11
2.81829
21
-2.70312
0
LINE
8
BLACK
6
CONTINUOUS
10
2.81829
20
-2.70312
11
2.79936
21
-2.68365
0
LINE
8
BLACK
6
CONTINUOUS
10
2.79936
20
-2.68365
11
2.78158
21
-2.66313
0
LINE
8
BLACK
6
CONTINUOUS
10
2.78158
20
-2.66313
11
2.765
21
-2.64163
0
LINE
8
BLACK
6
CONTINUOUS
10
2.765
20
-2.64163
11
2.74968
21
-2.61922
0
LINE
8
BLACK
6
CONTINUOUS
10
2.74968
20
-2.61922
11
2.74129
21
-2.60531
0
LINE
8
BLACK
6
CONTINUOUS
10
2.74129
20
-2.60531
11
2.45723
21
-2.60531
0
LINE
8
BLACK
6
CONTINUOUS
10
2.45723
20
-2.60531
11
2.45622
21
-2.60514
0
LINE
8
BLACK
6
CONTINUOUS
10
2.45622
20
-2.60514
11
2.45467
21
-2.60384
0
LINE
8
BLACK
6
CONTINUOUS
10
2.45467
20
-2.60384
11
2.45432
21
-2.60185
0
LINE
8
BLACK
6
CONTINUOUS
10
2.45432
20
-2.60185
11
2.45533
21
-2.6001
0
LINE
8
BLACK
6
CONTINUOUS
10
2.45533
20
-2.6001
11
2.45723
21
-2.59941
0
LINE
8
BLACK
6
CONTINUOUS
10
2.45723
20
-2.59941
11
2.47545
21
-2.59941
0
LINE
8
BLACK
6
CONTINUOUS
10
2.47545
20
-2.59941
11
2.45461
21
-2.55938
0
LINE
8
BLACK
6
CONTINUOUS
10
2.45461
20
-2.55938
11
2.4543
21
-2.5584
0
LINE
8
BLACK
6
CONTINUOUS
10
2.4543
20
-2.5584
11
2.45474
21
-2.55643
0
LINE
8
BLACK
6
CONTINUOUS
10
2.45474
20
-2.55643
11
2.45634
21
-2.5552
0
LINE
8
BLACK
6
CONTINUOUS
10
2.45634
20
-2.5552
11
2.45836
21
-2.55528
0
LINE
8
BLACK
6
CONTINUOUS
10
2.45836
20
-2.55528
11
2.45985
21
-2.55665
0
LINE
8
BLACK
6
CONTINUOUS
10
2.45985
20
-2.55665
11
2.47736
21
-2.5903
0
LINE
8
BLACK
6
CONTINUOUS
10
2.47736
20
-2.5903
11
2.47736
21
-2.13411
0
LINE
8
BLACK
6
CONTINUOUS
10
2.47736
20
-2.13411
11
2.45985
21
-2.16776
0
LINE
8
BLACK
6
CONTINUOUS
10
2.45985
20
-2.16776
11
2.45922
21
-2.16857
0
LINE
8
BLACK
6
CONTINUOUS
10
2.45922
20
-2.16857
11
2.45736
21
-2.16935
0
LINE
8
BLACK
6
CONTINUOUS
10
2.45736
20
-2.16935
11
2.45543
21
-2.16874
0
LINE
8
BLACK
6
CONTINUOUS
10
2.45543
20
-2.16874
11
2.45434
21
-2.16704
0
LINE
8
BLACK
6
CONTINUOUS
10
2.45434
20
-2.16704
11
2.45461
21
-2.16503
0
LINE
8
BLACK
6
CONTINUOUS
10
2.45461
20
-2.16503
11
2.47545
21
-2.125
0
LINE
8
BLACK
6
CONTINUOUS
10
2.47545
20
-2.125
11
2.45723
21
-2.125
0
LINE
8
BLACK
6
CONTINUOUS
10
2.45723
20
-2.125
11
2.45622
21
-2.12482
0
LINE
8
BLACK
6
CONTINUOUS
10
2.45622
20
-2.12482
11
2.45467
21
-2.12352
0
LINE
8
BLACK
6
CONTINUOUS
10
2.45467
20
-2.12352
11
2.45432
21
-2.12153
0
LINE
8
BLACK
6
CONTINUOUS
10
2.45432
20
-2.12153
11
2.45533
21
-2.11979
0
LINE
8
BLACK
6
CONTINUOUS
10
2.45533
20
-2.11979
11
2.45723
21
-2.11909
0
LINE
8
BLACK
6
CONTINUOUS
10
2.45723
20
-2.11909
11
2.74129
21
-2.11909
0
LINE
8
BLACK
6
CONTINUOUS
10
2.74129
20
-2.11909
11
2.74968
21
-2.10519
0
LINE
8
BLACK
6
CONTINUOUS
10
2.74968
20
-2.10519
11
2.765
21
-2.08278
0
LINE
8
BLACK
6
CONTINUOUS
10
2.765
20
-2.08278
11
2.78158
21
-2.06127
0
LINE
8
BLACK
6
CONTINUOUS
10
2.78158
20
-2.06127
11
2.79936
21
-2.04076
0
LINE
8
BLACK
6
CONTINUOUS
10
2.79936
20
-2.04076
11
2.81829
21
-2.02128
0
LINE
8
BLACK
6
CONTINUOUS
10
2.81829
20
-2.02128
11
2.83829
21
-2.00293
0
LINE
8
BLACK
6
CONTINUOUS
10
2.83829
20
-2.00293
11
2.85931
21
-1.98574
0
LINE
8
BLACK
6
CONTINUOUS
10
2.85931
20
-1.98574
11
2.88127
21
-1.96978
0
LINE
8
BLACK
6
CONTINUOUS
10
2.88127
20
-1.96978
11
2.90411
21
-1.9551
0
LINE
8
BLACK
6
CONTINUOUS
10
2.90411
20
-1.9551
11
2.92776
21
-1.94175
0
LINE
8
BLACK
6
CONTINUOUS
10
2.92776
20
-1.94175
11
2.95212
21
-1.92977
0
LINE
8
BLACK
6
CONTINUOUS
10
2.95212
20
-1.92977
11
2.97713
21
-1.9192
0
LINE
8
BLACK
6
CONTINUOUS
10
2.97713
20
-1.9192
11
3.0027
21
-1.91008
0
LINE
8
BLACK
6
CONTINUOUS
10
3.0027
20
-1.91008
11
3.02875
21
-1.90243
0
LINE
8
BLACK
6
CONTINUOUS
10
3.02875
20
-1.90243
11
3.0552
21
-1.89628
0
LINE
8
BLACK
6
CONTINUOUS
10
3.0552
20
-1.89628
11
3.07579
21
-1.89272
0
LINE
8
BLACK
6
CONTINUOUS
10
3.07579
20
-1.89272
11
2.36707
21
-1.89272
0
LINE
8
BLACK
6
CONTINUOUS
10
3.50443
20
-2.36516
11
3.50373
21
-2.38591
0
LINE
8
BLACK
6
CONTINUOUS
10
3.50373
20
-2.38591
11
3.50136
21
-2.40951
0
LINE
8
BLACK
6
CONTINUOUS
10
3.50136
20
-2.40951
11
3.49742
21
-2.4329
0
LINE
8
BLACK
6
CONTINUOUS
10
3.49742
20
-2.4329
11
3.49192
21
-2.45597
0
LINE
8
BLACK
6
CONTINUOUS
10
3.49192
20
-2.45597
11
3.48489
21
-2.47863
0
LINE
8
BLACK
6
CONTINUOUS
10
3.48489
20
-2.47863
11
3.47636
21
-2.50076
0
LINE
8
BLACK
6
CONTINUOUS
10
3.47636
20
-2.50076
11
3.46638
21
-2.52228
0
LINE
8
BLACK
6
CONTINUOUS
10
3.46638
20
-2.52228
11
3.45498
21
-2.54308
0
LINE
8
BLACK
6
CONTINUOUS
10
3.45498
20
-2.54308
11
3.44222
21
-2.56307
0
LINE
8
BLACK
6
CONTINUOUS
10
3.44222
20
-2.56307
11
3.42815
21
-2.58217
0
LINE
8
BLACK
6
CONTINUOUS
10
3.42815
20
-2.58217
11
3.41283
21
-2.60028
0
LINE
8
BLACK
6
CONTINUOUS
10
3.41283
20
-2.60028
11
3.39634
21
-2.61733
0
LINE
8
BLACK
6
CONTINUOUS
10
3.39634
20
-2.61733
11
3.37875
21
-2.63324
0
LINE
8
BLACK
6
CONTINUOUS
10
3.37875
20
-2.63324
11
3.36014
21
-2.64794
0
LINE
8
BLACK
6
CONTINUOUS
10
3.36014
20
-2.64794
11
3.34058
21
-2.66137
0
LINE
8
BLACK
6
CONTINUOUS
10
3.34058
20
-2.66137
11
3.32017
21
-2.67345
0
LINE
8
BLACK
6
CONTINUOUS
10
3.32017
20
-2.67345
11
3.299
21
-2.68415
0
LINE
8
BLACK
6
CONTINUOUS
10
3.299
20
-2.68415
11
3.27717
21
-2.69341
0
LINE
8
BLACK
6
CONTINUOUS
10
3.27717
20
-2.69341
11
3.25476
21
-2.70119
0
LINE
8
BLACK
6
CONTINUOUS
10
3.25476
20
-2.70119
11
3.23188
21
-2.70746
0
LINE
8
BLACK
6
CONTINUOUS
10
3.23188
20
-2.70746
11
3.20864
21
-2.71218
0
LINE
8
BLACK
6
CONTINUOUS
10
3.20864
20
-2.71218
11
3.18513
21
-2.71534
0
LINE
8
BLACK
6
CONTINUOUS
10
3.18513
20
-2.71534
11
3.16147
21
-2.71693
0
LINE
8
BLACK
6
CONTINUOUS
10
3.16147
20
-2.71693
11
3.13775
21
-2.71693
0
LINE
8
BLACK
6
CONTINUOUS
10
3.13775
20
-2.71693
11
3.11408
21
-2.71534
0
LINE
8
BLACK
6
CONTINUOUS
10
3.11408
20
-2.71534
11
3.09057
21
-2.71218
0
LINE
8
BLACK
6
CONTINUOUS
10
3.09057
20
-2.71218
11
3.06733
21
-2.70746
0
LINE
8
BLACK
6
CONTINUOUS
10
3.06733
20
-2.70746
11
3.04445
21
-2.70119
0
LINE
8
BLACK
6
CONTINUOUS
10
3.04445
20
-2.70119
11
3.02204
21
-2.69341
0
LINE
8
BLACK
6
CONTINUOUS
10
3.02204
20
-2.69341
11
3.00021
21
-2.68415
0
LINE
8
BLACK
6
CONTINUOUS
10
3.00021
20
-2.68415
11
2.97904
21
-2.67345
0
LINE
8
BLACK
6
CONTINUOUS
10
2.97904
20
-2.67345
11
2.95863
21
-2.66137
0
LINE
8
BLACK
6
CONTINUOUS
10
2.95863
20
-2.66137
11
2.93907
21
-2.64794
0
LINE
8
BLACK
6
CONTINUOUS
10
2.93907
20
-2.64794
11
2.92046
21
-2.63324
0
LINE
8
BLACK
6
CONTINUOUS
10
2.92046
20
-2.63324
11
2.90287
21
-2.61733
0
LINE
8
BLACK
6
CONTINUOUS
10
2.90287
20
-2.61733
11
2.89125
21
-2.60531
0
LINE
8
BLACK
6
CONTINUOUS
10
2.89125
20
-2.60531
11
2.79226
21
-2.60531
0
LINE
8
BLACK
6
CONTINUOUS
10
2.79226
20
-2.60531
11
2.79384
21
-2.60777
0
LINE
8
BLACK
6
CONTINUOUS
10
2.79384
20
-2.60777
11
2.80932
21
-2.6288
0
LINE
8
BLACK
6
CONTINUOUS
10
2.80932
20
-2.6288
11
2.82604
21
-2.64886
0
LINE
8
BLACK
6
CONTINUOUS
10
2.82604
20
-2.64886
11
2.84394
21
-2.66788
0
LINE
8
BLACK
6
CONTINUOUS
10
2.84394
20
-2.66788
11
2.86295
21
-2.68577
0
LINE
8
BLACK
6
CONTINUOUS
10
2.86295
20
-2.68577
11
2.88301
21
-2.70249
0
LINE
8
BLACK
6
CONTINUOUS
10
2.88301
20
-2.70249
11
2.90404
21
-2.71797
0
LINE
8
BLACK
6
CONTINUOUS
10
2.90404
20
-2.71797
11
2.92597
21
-2.73215
0
LINE
8
BLACK
6
CONTINUOUS
10
2.92597
20
-2.73215
11
2.94871
21
-2.74497
0
LINE
8
BLACK
6
CONTINUOUS
10
2.94871
20
-2.74497
11
2.97219
21
-2.7564
0
LINE
8
BLACK
6
CONTINUOUS
10
2.97219
20
-2.7564
11
2.99632
21
-2.7664
0
LINE
8
BLACK
6
CONTINUOUS
10
2.99632
20
-2.7664
11
3.021
21
-2.77492
0
LINE
8
BLACK
6
CONTINUOUS
10
3.021
20
-2.77492
11
3.04615
21
-2.78193
0
LINE
8
BLACK
6
CONTINUOUS
10
3.04615
20
-2.78193
11
3.07168
21
-2.78741
0
LINE
8
BLACK
6
CONTINUOUS
10
3.07168
20
-2.78741
11
3.0975
21
-2.79134
0
LINE
8
BLACK
6
CONTINUOUS
10
3.0975
20
-2.79134
11
3.12351
21
-2.7937
0
LINE
8
BLACK
6
CONTINUOUS
10
3.12351
20
-2.7937
11
3.14665
21
-2.7944
0
LINE
8
BLACK
6
CONTINUOUS
10
3.14665
20
-2.7944
11
3.14665
21
-2.75591
0
LINE
8
BLACK
6
CONTINUOUS
10
3.14665
20
-2.75591
11
3.14683
21
-2.7549
0
LINE
8
BLACK
6
CONTINUOUS
10
3.14683
20
-2.7549
11
3.14813
21
-2.75335
0
LINE
8
BLACK
6
CONTINUOUS
10
3.14813
20
-2.75335
11
3.15012
21
-2.753
0
LINE
8
BLACK
6
CONTINUOUS
10
3.15012
20
-2.753
11
3.15187
21
-2.75401
0
LINE
8
BLACK
6
CONTINUOUS
10
3.15187
20
-2.75401
11
3.15256
21
-2.75591
0
LINE
8
BLACK
6
CONTINUOUS
10
3.15256
20
-2.75591
11
3.15256
21
-2.7944
0
LINE
8
BLACK
6
CONTINUOUS
10
3.15256
20
-2.7944
11
3.17571
21
-2.7937
0
LINE
8
BLACK
6
CONTINUOUS
10
3.17571
20
-2.7937
11
3.20171
21
-2.79134
0
LINE
8
BLACK
6
CONTINUOUS
10
3.20171
20
-2.79134
11
3.22753
21
-2.78741
0
LINE
8
BLACK
6
CONTINUOUS
10
3.22753
20
-2.78741
11
3.25306
21
-2.78193
0
LINE
8
BLACK
6
CONTINUOUS
10
3.25306
20
-2.78193
11
3.27821
21
-2.77492
0
LINE
8
BLACK
6
CONTINUOUS
10
3.27821
20
-2.77492
11
3.3029
21
-2.7664
0
LINE
8
BLACK
6
CONTINUOUS
10
3.3029
20
-2.7664
11
3.32702
21
-2.7564
0
LINE
8
BLACK
6
CONTINUOUS
10
3.32702
20
-2.7564
11
3.3505
21
-2.74497
0
LINE
8
BLACK
6
CONTINUOUS
10
3.3505
20
-2.74497
11
3.37324
21
-2.73215
0
LINE
8
BLACK
6
CONTINUOUS
10
3.37324
20
-2.73215
11
3.39517
21
-2.71797
0
LINE
8
BLACK
6
CONTINUOUS
10
3.39517
20
-2.71797
11
3.4162
21
-2.70249
0
LINE
8
BLACK
6
CONTINUOUS
10
3.4162
20
-2.70249
11
3.43626
21
-2.68577
0
LINE
8
BLACK
6
CONTINUOUS
10
3.43626
20
-2.68577
11
3.45528
21
-2.66788
0
LINE
8
BLACK
6
CONTINUOUS
10
3.45528
20
-2.66788
11
3.47318
21
-2.64886
0
LINE
8
BLACK
6
CONTINUOUS
10
3.47318
20
-2.64886
11
3.48989
21
-2.6288
0
LINE
8
BLACK
6
CONTINUOUS
10
3.48989
20
-2.6288
11
3.50537
21
-2.60777
0
LINE
8
BLACK
6
CONTINUOUS
10
3.50537
20
-2.60777
11
3.51955
21
-2.58584
0
LINE
8
BLACK
6
CONTINUOUS
10
3.51955
20
-2.58584
11
3.53237
21
-2.5631
0
LINE
8
BLACK
6
CONTINUOUS
10
3.53237
20
-2.5631
11
3.54381
21
-2.53962
0
LINE
8
BLACK
6
CONTINUOUS
10
3.54381
20
-2.53962
11
3.5538
21
-2.51549
0
LINE
8
BLACK
6
CONTINUOUS
10
3.5538
20
-2.51549
11
3.56232
21
-2.49081
0
LINE
8
BLACK
6
CONTINUOUS
10
3.56232
20
-2.49081
11
3.56933
21
-2.46566
0
LINE
8
BLACK
6
CONTINUOUS
10
3.56933
20
-2.46566
11
3.57481
21
-2.44013
0
LINE
8
BLACK
6
CONTINUOUS
10
3.57481
20
-2.44013
11
3.57874
21
-2.41431
0
LINE
8
BLACK
6
CONTINUOUS
10
3.57874
20
-2.41431
11
3.5811
21
-2.38831
0
LINE
8
BLACK
6
CONTINUOUS
10
3.5811
20
-2.38831
11
3.5818
21
-2.36516
0
LINE
8
BLACK
6
CONTINUOUS
10
3.5818
20
-2.36516
11
3.50443
21
-2.36516
0
LINE
8
BLACK
6
CONTINUOUS
10
3.62492
20
-2.36516
11
3.62422
21
-2.38934
0
LINE
8
BLACK
6
CONTINUOUS
10
3.62422
20
-2.38934
11
3.6219
21
-2.4164
0
LINE
8
BLACK
6
CONTINUOUS
10
3.6219
20
-2.4164
11
3.61804
21
-2.44327
0
LINE
8
BLACK
6
CONTINUOUS
10
3.61804
20
-2.44327
11
3.61265
21
-2.46988
0
LINE
8
BLACK
6
CONTINUOUS
10
3.61265
20
-2.46988
11
3.60574
21
-2.49614
0
LINE
8
BLACK
6
CONTINUOUS
10
3.60574
20
-2.49614
11
3.59735
21
-2.52196
0
LINE
8
BLACK
6
CONTINUOUS
10
3.59735
20
-2.52196
11
3.5875
21
-2.54726
0
LINE
8
BLACK
6
CONTINUOUS
10
3.5875
20
-2.54726
11
3.57622
21
-2.57196
0
LINE
8
BLACK
6
CONTINUOUS
10
3.57622
20
-2.57196
11
3.56355
21
-2.59597
0
LINE
8
BLACK
6
CONTINUOUS
10
3.56355
20
-2.59597
11
3.54953
21
-2.61922
0
LINE
8
BLACK
6
CONTINUOUS
10
3.54953
20
-2.61922
11
3.53421
21
-2.64163
0
LINE
8
BLACK
6
CONTINUOUS
10
3.53421
20
-2.64163
11
3.51763
21
-2.66313
0
LINE
8
BLACK
6
CONTINUOUS
10
3.51763
20
-2.66313
11
3.49985
21
-2.68365
0
LINE
8
BLACK
6
CONTINUOUS
10
3.49985
20
-2.68365
11
3.48093
21
-2.70312
0
LINE
8
BLACK
6
CONTINUOUS
10
3.48093
20
-2.70312
11
3.46092
21
-2.72148
0
LINE
8
BLACK
6
CONTINUOUS
10
3.46092
20
-2.72148
11
3.44651
21
-2.73327
0
LINE
8
BLACK
6
CONTINUOUS
10
3.44651
20
-2.73327
11
3.77427
21
-2.73327
0
LINE
8
BLACK
6
CONTINUOUS
10
3.77427
20
-2.73327
11
3.75343
21
-2.69323
0
LINE
8
BLACK
6
CONTINUOUS
10
3.75343
20
-2.69323
11
3.75312
21
-2.69226
0
LINE
8
BLACK
6
CONTINUOUS
10
3.75312
20
-2.69226
11
3.75356
21
-2.69028
0
LINE
8
BLACK
6
CONTINUOUS
10
3.75356
20
-2.69028
11
3.75516
21
-2.68905
0
LINE
8
BLACK
6
CONTINUOUS
10
3.75516
20
-2.68905
11
3.75718
21
-2.68914
0
LINE
8
BLACK
6
CONTINUOUS
10
3.75718
20
-2.68914
11
3.75867
21
-2.69051
0
LINE
8
BLACK
6
CONTINUOUS
10
3.75867
20
-2.69051
11
3.77618
21
-2.72415
0
LINE
8
BLACK
6
CONTINUOUS
10
3.77618
20
-2.72415
11
3.77618
21
-2.37427
0
LINE
8
BLACK
6
CONTINUOUS
10
3.77618
20
-2.37427
11
3.75867
21
-2.40792
0
LINE
8
BLACK
6
CONTINUOUS
10
3.75867
20
-2.40792
11
3.75804
21
-2.40873
0
LINE
8
BLACK
6
CONTINUOUS
10
3.75804
20
-2.40873
11
3.75618
21
-2.40951
0
LINE
8
BLACK
6
CONTINUOUS
10
3.75618
20
-2.40951
11
3.75425
21
-2.4089
0
LINE
8
BLACK
6
CONTINUOUS
10
3.75425
20
-2.4089
11
3.75316
21
-2.40719
0
LINE
8
BLACK
6
CONTINUOUS
10
3.75316
20
-2.40719
11
3.75343
21
-2.40519
0
LINE
8
BLACK
6
CONTINUOUS
10
3.75343
20
-2.40519
11
3.77427
21
-2.36516
0
LINE
8
BLACK
6
CONTINUOUS
10
3.77427
20
-2.36516
11
3.62492
21
-2.36516
0
LINE
8
BLACK
6
CONTINUOUS
10
3.46726
20
-2.36516
11
3.30957
21
-2.63829
0
LINE
8
BLACK
6
CONTINUOUS
10
3.30957
20
-2.63829
11
3.30947
21
-2.63837
0
LINE
8
BLACK
6
CONTINUOUS
10
3.30947
20
-2.63837
11
3.30941
21
-2.63849
0
LINE
8
BLACK
6
CONTINUOUS
10
3.30941
20
-2.63849
11
3.30918
21
-2.63859
0
LINE
8
BLACK
6
CONTINUOUS
10
3.30918
20
-2.63859
11
3.30897
21
-2.63875
0
LINE
8
BLACK
6
CONTINUOUS
10
3.30897
20
-2.63875
11
3.30884
21
-2.63873
0
LINE
8
BLACK
6
CONTINUOUS
10
3.30884
20
-2.63873
11
3.30872
21
-2.63878
0
LINE
8
BLACK
6
CONTINUOUS
10
3.30872
20
-2.63878
11
2.99049
21
-2.63878
0
LINE
8
BLACK
6
CONTINUOUS
10
2.99049
20
-2.63878
11
2.99037
21
-2.63873
0
LINE
8
BLACK
6
CONTINUOUS
10
2.99037
20
-2.63873
11
2.99024
21
-2.63875
0
LINE
8
BLACK
6
CONTINUOUS
10
2.99024
20
-2.63875
11
2.99004
21
-2.63859
0
LINE
8
BLACK
6
CONTINUOUS
10
2.99004
20
-2.63859
11
2.9898
21
-2.63849
0
LINE
8
BLACK
6
CONTINUOUS
10
2.9898
20
-2.63849
11
2.98975
21
-2.63837
0
LINE
8
BLACK
6
CONTINUOUS
10
2.98975
20
-2.63837
11
2.98964
21
-2.63829
0
LINE
8
BLACK
6
CONTINUOUS
10
2.98964
20
-2.63829
11
2.9706
21
-2.60531
0
LINE
8
BLACK
6
CONTINUOUS
10
2.9706
20
-2.60531
11
2.89261
21
-2.60531
0
LINE
8
BLACK
6
CONTINUOUS
10
2.89261
20
-2.60531
11
2.90355
21
-2.61662
0
LINE
8
BLACK
6
CONTINUOUS
10
2.90355
20
-2.61662
11
2.92109
21
-2.63249
0
LINE
8
BLACK
6
CONTINUOUS
10
2.92109
20
-2.63249
11
2.93966
21
-2.64715
0
LINE
8
BLACK
6
CONTINUOUS
10
2.93966
20
-2.64715
11
2.95916
21
-2.66054
0
LINE
8
BLACK
6
CONTINUOUS
10
2.95916
20
-2.66054
11
2.97951
21
-2.67259
0
LINE
8
BLACK
6
CONTINUOUS
10
2.97951
20
-2.67259
11
3.00062
21
-2.68326
0
LINE
8
BLACK
6
CONTINUOUS
10
3.00062
20
-2.68326
11
3.0224
21
-2.69249
0
LINE
8
BLACK
6
CONTINUOUS
10
3.0224
20
-2.69249
11
3.04474
21
-2.70025
0
LINE
8
BLACK
6
CONTINUOUS
10
3.04474
20
-2.70025
11
3.06756
21
-2.7065
0
LINE
8
BLACK
6
CONTINUOUS
10
3.06756
20
-2.7065
11
3.09074
21
-2.71121
0
LINE
8
BLACK
6
CONTINUOUS
10
3.09074
20
-2.71121
11
3.11418
21
-2.71436
0
LINE
8
BLACK
6
CONTINUOUS
10
3.11418
20
-2.71436
11
3.13778
21
-2.71594
0
LINE
8
BLACK
6
CONTINUOUS
10
3.13778
20
-2.71594
11
3.16143
21
-2.71594
0
LINE
8
BLACK
6
CONTINUOUS
10
3.16143
20
-2.71594
11
3.18503
21
-2.71436
0
LINE
8
BLACK
6
CONTINUOUS
10
3.18503
20
-2.71436
11
3.20848
21
-2.71121
0
LINE
8
BLACK
6
CONTINUOUS
10
3.20848
20
-2.71121
11
3.23166
21
-2.7065
0
LINE
8
BLACK
6
CONTINUOUS
10
3.23166
20
-2.7065
11
3.25447
21
-2.70025
0
LINE
8
BLACK
6
CONTINUOUS
10
3.25447
20
-2.70025
11
3.27681
21
-2.69249
0
LINE
8
BLACK
6
CONTINUOUS
10
3.27681
20
-2.69249
11
3.29859
21
-2.68326
0
LINE
8
BLACK
6
CONTINUOUS
10
3.29859
20
-2.68326
11
3.3197
21
-2.67259
0
LINE
8
BLACK
6
CONTINUOUS
10
3.3197
20
-2.67259
11
3.34005
21
-2.66054
0
LINE
8
BLACK
6
CONTINUOUS
10
3.34005
20
-2.66054
11
3.35956
21
-2.64715
0
LINE
8
BLACK
6
CONTINUOUS
10
3.35956
20
-2.64715
11
3.37812
21
-2.63249
0
LINE
8
BLACK
6
CONTINUOUS
10
3.37812
20
-2.63249
11
3.39566
21
-2.61662
0
LINE
8
BLACK
6
CONTINUOUS
10
3.39566
20
-2.61662
11
3.4121
21
-2.59962
0
LINE
8
BLACK
6
CONTINUOUS
10
3.4121
20
-2.59962
11
3.42738
21
-2.58156
0
LINE
8
BLACK
6
CONTINUOUS
10
3.42738
20
-2.58156
11
3.44141
21
-2.56251
0
LINE
8
BLACK
6
CONTINUOUS
10
3.44141
20
-2.56251
11
3.45413
21
-2.54258
0
LINE
8
BLACK
6
CONTINUOUS
10
3.45413
20
-2.54258
11
3.4655
21
-2.52183
0
LINE
8
BLACK
6
CONTINUOUS
10
3.4655
20
-2.52183
11
3.47546
21
-2.50038
0
LINE
8
BLACK
6
CONTINUOUS
10
3.47546
20
-2.50038
11
3.48396
21
-2.47831
0
LINE
8
BLACK
6
CONTINUOUS
10
3.48396
20
-2.47831
11
3.49097
21
-2.45571
0
LINE
8
BLACK
6
CONTINUOUS
10
3.49097
20
-2.45571
11
3.49645
21
-2.4327
0
LINE
8
BLACK
6
CONTINUOUS
10
3.49645
20
-2.4327
11
3.50039
21
-2.40938
0
LINE
8
BLACK
6
CONTINUOUS
10
3.50039
20
-2.40938
11
3.50275
21
-2.38585
0
LINE
8
BLACK
6
CONTINUOUS
10
3.50275
20
-2.38585
11
3.50345
21
-2.36516
0
LINE
8
BLACK
6
CONTINUOUS
10
3.50345
20
-2.36516
11
3.46726
21
-2.36516
0
LINE
8
BLACK
6
CONTINUOUS
10
3.15256
20
-2.0876
11
3.15256
21
-2.10354
0
LINE
8
BLACK
6
CONTINUOUS
10
3.15256
20
-2.10354
11
3.15952
21
-2.10354
0
LINE
8
BLACK
6
CONTINUOUS
10
3.15952
20
-2.10354
11
3.17929
21
-2.10505
0
LINE
8
BLACK
6
CONTINUOUS
10
3.17929
20
-2.10505
11
3.19889
21
-2.10808
0
LINE
8
BLACK
6
CONTINUOUS
10
3.19889
20
-2.10808
11
3.2182
21
-2.1126
0
LINE
8
BLACK
6
CONTINUOUS
10
3.2182
20
-2.1126
11
3.2371
21
-2.11858
0
LINE
8
BLACK
6
CONTINUOUS
10
3.2371
20
-2.11858
11
3.2555
21
-2.126
0
LINE
8
BLACK
6
CONTINUOUS
10
3.2555
20
-2.126
11
3.27327
21
-2.13479
0
LINE
8
BLACK
6
CONTINUOUS
10
3.27327
20
-2.13479
11
3.29031
21
-2.14493
0
LINE
8
BLACK
6
CONTINUOUS
10
3.29031
20
-2.14493
11
3.30653
21
-2.15634
0
LINE
8
BLACK
6
CONTINUOUS
10
3.30653
20
-2.15634
11
3.32183
21
-2.16895
0
LINE
8
BLACK
6
CONTINUOUS
10
3.32183
20
-2.16895
11
3.33612
21
-2.1827
0
LINE
8
BLACK
6
CONTINUOUS
10
3.33612
20
-2.1827
11
3.34931
21
-2.19751
0
LINE
8
BLACK
6
CONTINUOUS
10
3.34931
20
-2.19751
11
3.36133
21
-2.21328
0
LINE
8
BLACK
6
CONTINUOUS
10
3.36133
20
-2.21328
11
3.37211
21
-2.22992
0
LINE
8
BLACK
6
CONTINUOUS
10
3.37211
20
-2.22992
11
3.38159
21
-2.24734
0
LINE
8
BLACK
6
CONTINUOUS
10
3.38159
20
-2.24734
11
3.3897
21
-2.26544
0
LINE
8
BLACK
6
CONTINUOUS
10
3.3897
20
-2.26544
11
3.3964
21
-2.2841
0
LINE
8
BLACK
6
CONTINUOUS
10
3.3964
20
-2.2841
11
3.40166
21
-2.30322
0
LINE
8
BLACK
6
CONTINUOUS
10
3.40166
20
-2.30322
11
3.40543
21
-2.32269
0
LINE
8
BLACK
6
CONTINUOUS
10
3.40543
20
-2.32269
11
3.40771
21
-2.34239
0
LINE
8
BLACK
6
CONTINUOUS
10
3.40771
20
-2.34239
11
3.40846
21
-2.3622
0
LINE
8
BLACK
6
CONTINUOUS
10
3.40846
20
-2.3622
11
3.40771
21
-2.38202
0
LINE
8
BLACK
6
CONTINUOUS
10
3.40771
20
-2.38202
11
3.40543
21
-2.40172
0
LINE
8
BLACK
6
CONTINUOUS
10
3.40543
20
-2.40172
11
3.40166
21
-2.42119
0
LINE
8
BLACK
6
CONTINUOUS
10
3.40166
20
-2.42119
11
3.3964
21
-2.44031
0
LINE
8
BLACK
6
CONTINUOUS
10
3.3964
20
-2.44031
11
3.3897
21
-2.45897
0
LINE
8
BLACK
6
CONTINUOUS
10
3.3897
20
-2.45897
11
3.38159
21
-2.47707
0
LINE
8
BLACK
6
CONTINUOUS
10
3.38159
20
-2.47707
11
3.37211
21
-2.49449
0
LINE
8
BLACK
6
CONTINUOUS
10
3.37211
20
-2.49449
11
3.36133
21
-2.51113
0
LINE
8
BLACK
6
CONTINUOUS
10
3.36133
20
-2.51113
11
3.34931
21
-2.5269
0
LINE
8
BLACK
6
CONTINUOUS
10
3.34931
20
-2.5269
11
3.33612
21
-2.54171
0
LINE
8
BLACK
6
CONTINUOUS
10
3.33612
20
-2.54171
11
3.32183
21
-2.55546
0
LINE
8
BLACK
6
CONTINUOUS
10
3.32183
20
-2.55546
11
3.30653
21
-2.56807
0
LINE
8
BLACK
6
CONTINUOUS
10
3.30653
20
-2.56807
11
3.29031
21
-2.57948
0
LINE
8
BLACK
6
CONTINUOUS
10
3.29031
20
-2.57948
11
3.27327
21
-2.58961
0
LINE
8
BLACK
6
CONTINUOUS
10
3.27327
20
-2.58961
11
3.2555
21
-2.59841
0
LINE
8
BLACK
6
CONTINUOUS
10
3.2555
20
-2.59841
11
3.2371
21
-2.60583
0
LINE
8
BLACK
6
CONTINUOUS
10
3.2371
20
-2.60583
11
3.2182
21
-2.61181
0
LINE
8
BLACK
6
CONTINUOUS
10
3.2182
20
-2.61181
11
3.19889
21
-2.61633
0
LINE
8
BLACK
6
CONTINUOUS
10
3.19889
20
-2.61633
11
3.17929
21
-2.61936
0
LINE
8
BLACK
6
CONTINUOUS
10
3.17929
20
-2.61936
11
3.15952
21
-2.62087
0
LINE
8
BLACK
6
CONTINUOUS
10
3.15952
20
-2.62087
11
3.13969
21
-2.62087
0
LINE
8
BLACK
6
CONTINUOUS
10
3.13969
20
-2.62087
11
3.11992
21
-2.61936
0
LINE
8
BLACK
6
CONTINUOUS
10
3.11992
20
-2.61936
11
3.10032
21
-2.61633
0
LINE
8
BLACK
6
CONTINUOUS
10
3.10032
20
-2.61633
11
3.08101
21
-2.61181
0
LINE
8
BLACK
6
CONTINUOUS
10
3.08101
20
-2.61181
11
3.06211
21
-2.60583
0
LINE
8
BLACK
6
CONTINUOUS
10
3.06211
20
-2.60583
11
3.06084
21
-2.60531
0
LINE
8
BLACK
6
CONTINUOUS
10
3.06084
20
-2.60531
11
2.97288
21
-2.60531
0
LINE
8
BLACK
6
CONTINUOUS
10
2.97288
20
-2.60531
11
2.99106
21
-2.63681
0
LINE
8
BLACK
6
CONTINUOUS
10
2.99106
20
-2.63681
11
3.30815
21
-2.63681
0
LINE
8
BLACK
6
CONTINUOUS
10
3.30815
20
-2.63681
11
3.46499
21
-2.36516
0
LINE
8
BLACK
6
CONTINUOUS
10
3.46499
20
-2.36516
11
3.44488
21
-2.36516
0
LINE
8
BLACK
6
CONTINUOUS
10
3.44488
20
-2.36516
11
3.44387
21
-2.36498
0
LINE
8
BLACK
6
CONTINUOUS
10
3.44387
20
-2.36498
11
3.44232
21
-2.36368
0
LINE
8
BLACK
6
CONTINUOUS
10
3.44232
20
-2.36368
11
3.44197
21
-2.36169
0
LINE
8
BLACK
6
CONTINUOUS
10
3.44197
20
-2.36169
11
3.44298
21
-2.35994
0
LINE
8
BLACK
6
CONTINUOUS
10
3.44298
20
-2.35994
11
3.44488
21
-2.35925
0
LINE
8
BLACK
6
CONTINUOUS
10
3.44488
20
-2.35925
11
3.46499
21
-2.35925
0
LINE
8
BLACK
6
CONTINUOUS
10
3.46499
20
-2.35925
11
3.30815
21
-2.0876
0
LINE
8
BLACK
6
CONTINUOUS
10
3.30815
20
-2.0876
11
3.15256
21
-2.0876
0
LINE
8
BLACK
6
CONTINUOUS
10
2.89151
20
-2.34239
11
2.89378
21
-2.32269
0
LINE
8
BLACK
6
CONTINUOUS
10
2.89378
20
-2.32269
11
2.89756
21
-2.30322
0
LINE
8
BLACK
6
CONTINUOUS
10
2.89756
20
-2.30322
11
2.90281
21
-2.2841
0
LINE
8
BLACK
6
CONTINUOUS
10
2.90281
20
-2.2841
11
2.90951
21
-2.26544
0
LINE
8
BLACK
6
CONTINUOUS
10
2.90951
20
-2.26544
11
2.91763
21
-2.24734
0
LINE
8
BLACK
6
CONTINUOUS
10
2.91763
20
-2.24734
11
2.9271
21
-2.22992
0
LINE
8
BLACK
6
CONTINUOUS
10
2.9271
20
-2.22992
11
2.93788
21
-2.21328
0
LINE
8
BLACK
6
CONTINUOUS
10
2.93788
20
-2.21328
11
2.9499
21
-2.19751
0
LINE
8
BLACK
6
CONTINUOUS
10
2.9499
20
-2.19751
11
2.96309
21
-2.1827
0
LINE
8
BLACK
6
CONTINUOUS
10
2.96309
20
-2.1827
11
2.97738
21
-2.16895
0
LINE
8
BLACK
6
CONTINUOUS
10
2.97738
20
-2.16895
11
2.99268
21
-2.15634
0
LINE
8
BLACK
6
CONTINUOUS
10
2.99268
20
-2.15634
11
3.0089
21
-2.14493
0
LINE
8
BLACK
6
CONTINUOUS
10
3.0089
20
-2.14493
11
3.02594
21
-2.13479
0
LINE
8
BLACK
6
CONTINUOUS
10
3.02594
20
-2.13479
11
3.04372
21
-2.126
0
LINE
8
BLACK
6
CONTINUOUS
10
3.04372
20
-2.126
11
3.04619
21
-2.125
0
LINE
8
BLACK
6
CONTINUOUS
10
3.04619
20
-2.125
11
2.96947
21
-2.125
0
LINE
8
BLACK
6
CONTINUOUS
10
2.96947
20
-2.125
11
2.83252
21
-2.3622
0
LINE
8
BLACK
6
CONTINUOUS
10
2.83252
20
-2.3622
11
2.96947
21
-2.59941
0
LINE
8
BLACK
6
CONTINUOUS
10
2.96947
20
-2.59941
11
3.04619
21
-2.59941
0
LINE
8
BLACK
6
CONTINUOUS
10
3.04619
20
-2.59941
11
3.04372
21
-2.59841
0
LINE
8
BLACK
6
CONTINUOUS
10
3.04372
20
-2.59841
11
3.02594
21
-2.58961
0
LINE
8
BLACK
6
CONTINUOUS
10
3.02594
20
-2.58961
11
3.0089
21
-2.57948
0
LINE
8
BLACK
6
CONTINUOUS
10
3.0089
20
-2.57948
11
2.99268
21
-2.56807
0
LINE
8
BLACK
6
CONTINUOUS
10
2.99268
20
-2.56807
11
2.97738
21
-2.55546
0
LINE
8
BLACK
6
CONTINUOUS
10
2.97738
20
-2.55546
11
2.96309
21
-2.54171
0
LINE
8
BLACK
6
CONTINUOUS
10
2.96309
20
-2.54171
11
2.9499
21
-2.5269
0
LINE
8
BLACK
6
CONTINUOUS
10
2.9499
20
-2.5269
11
2.93788
21
-2.51113
0
LINE
8
BLACK
6
CONTINUOUS
10
2.93788
20
-2.51113
11
2.9271
21
-2.49449
0
LINE
8
BLACK
6
CONTINUOUS
10
2.9271
20
-2.49449
11
2.91763
21
-2.47707
0
LINE
8
BLACK
6
CONTINUOUS
10
2.91763
20
-2.47707
11
2.90951
21
-2.45897
0
LINE
8
BLACK
6
CONTINUOUS
10
2.90951
20
-2.45897
11
2.90281
21
-2.44031
0
LINE
8
BLACK
6
CONTINUOUS
10
2.90281
20
-2.44031
11
2.89756
21
-2.42119
0
LINE
8
BLACK
6
CONTINUOUS
10
2.89756
20
-2.42119
11
2.89378
21
-2.40172
0
LINE
8
BLACK
6
CONTINUOUS
10
2.89378
20
-2.40172
11
2.89151
21
-2.38202
0
LINE
8
BLACK
6
CONTINUOUS
10
2.89151
20
-2.38202
11
2.89075
21
-2.3622
0
LINE
8
BLACK
6
CONTINUOUS
10
2.89075
20
-2.3622
11
2.89151
21
-2.34239
0
LINE
8
BLACK
6
CONTINUOUS
10
2.67499
20
-2.33507
11
2.67731
21
-2.30801
0
LINE
8
BLACK
6
CONTINUOUS
10
2.67731
20
-2.30801
11
2.68118
21
-2.28114
0
LINE
8
BLACK
6
CONTINUOUS
10
2.68118
20
-2.28114
11
2.68657
21
-2.25453
0
LINE
8
BLACK
6
CONTINUOUS
10
2.68657
20
-2.25453
11
2.69347
21
-2.22827
0
LINE
8
BLACK
6
CONTINUOUS
10
2.69347
20
-2.22827
11
2.70186
21
-2.20245
0
LINE
8
BLACK
6
CONTINUOUS
10
2.70186
20
-2.20245
11
2.71171
21
-2.17715
0
LINE
8
BLACK
6
CONTINUOUS
10
2.71171
20
-2.17715
11
2.72299
21
-2.15245
0
LINE
8
BLACK
6
CONTINUOUS
10
2.72299
20
-2.15245
11
2.73566
21
-2.12844
0
LINE
8
BLACK
6
CONTINUOUS
10
2.73566
20
-2.12844
11
2.73773
21
-2.125
0
LINE
8
BLACK
6
CONTINUOUS
10
2.73773
20
-2.125
11
2.48518
21
-2.125
0
LINE
8
BLACK
6
CONTINUOUS
10
2.48518
20
-2.125
11
2.50602
21
-2.16503
0
LINE
8
BLACK
6
CONTINUOUS
10
2.50602
20
-2.16503
11
2.50633
21
-2.16601
0
LINE
8
BLACK
6
CONTINUOUS
10
2.50633
20
-2.16601
11
2.50589
21
-2.16798
0
LINE
8
BLACK
6
CONTINUOUS
10
2.50589
20
-2.16798
11
2.50429
21
-2.16921
0
LINE
8
BLACK
6
CONTINUOUS
10
2.50429
20
-2.16921
11
2.50227
21
-2.16913
0
LINE
8
BLACK
6
CONTINUOUS
10
2.50227
20
-2.16913
11
2.50078
21
-2.16776
0
LINE
8
BLACK
6
CONTINUOUS
10
2.50078
20
-2.16776
11
2.48327
21
-2.13411
0
LINE
8
BLACK
6
CONTINUOUS
10
2.48327
20
-2.13411
11
2.48327
21
-2.5903
0
LINE
8
BLACK
6
CONTINUOUS
10
2.48327
20
-2.5903
11
2.50078
21
-2.55665
0
LINE
8
BLACK
6
CONTINUOUS
10
2.50078
20
-2.55665
11
2.50141
21
-2.55583
0
LINE
8
BLACK
6
CONTINUOUS
10
2.50141
20
-2.55583
11
2.50327
21
-2.55506
0
LINE
8
BLACK
6
CONTINUOUS
10
2.50327
20
-2.55506
11
2.5052
21
-2.55567
0
LINE
8
BLACK
6
CONTINUOUS
10
2.5052
20
-2.55567
11
2.50629
21
-2.55737
0
LINE
8
BLACK
6
CONTINUOUS
10
2.50629
20
-2.55737
11
2.50602
21
-2.55938
0
LINE
8
BLACK
6
CONTINUOUS
10
2.50602
20
-2.55938
11
2.48518
21
-2.59941
0
LINE
8
BLACK
6
CONTINUOUS
10
2.48518
20
-2.59941
11
2.73773
21
-2.59941
0
LINE
8
BLACK
6
CONTINUOUS
10
2.73773
20
-2.59941
11
2.73566
21
-2.59597
0
LINE
8
BLACK
6
CONTINUOUS
10
2.73566
20
-2.59597
11
2.72299
21
-2.57196
0
LINE
8
BLACK
6
CONTINUOUS
10
2.72299
20
-2.57196
11
2.71171
21
-2.54726
0
LINE
8
BLACK
6
CONTINUOUS
10
2.71171
20
-2.54726
11
2.70186
21
-2.52196
0
LINE
8
BLACK
6
CONTINUOUS
10
2.70186
20
-2.52196
11
2.69347
21
-2.49614
0
LINE
8
BLACK
6
CONTINUOUS
10
2.69347
20
-2.49614
11
2.68657
21
-2.46988
0
LINE
8
BLACK
6
CONTINUOUS
10
2.68657
20
-2.46988
11
2.68118
21
-2.44327
0
LINE
8
BLACK
6
CONTINUOUS
10
2.68118
20
-2.44327
11
2.67731
21
-2.4164
0
LINE
8
BLACK
6
CONTINUOUS
10
2.67731
20
-2.4164
11
2.67499
21
-2.38934
0
LINE
8
BLACK
6
CONTINUOUS
10
2.67499
20
-2.38934
11
2.67421
21
-2.3622
0
LINE
8
BLACK
6
CONTINUOUS
10
2.67421
20
-2.3622
11
2.67499
21
-2.33507
0
LINE
8
BLACK
6
CONTINUOUS
10
3.15256
20
-2.08563
11
3.30872
21
-2.08563
0
LINE
8
BLACK
6
CONTINUOUS
10
3.30872
20
-2.08563
11
3.30884
21
-2.08568
0
LINE
8
BLACK
6
CONTINUOUS
10
3.30884
20
-2.08568
11
3.30897
21
-2.08566
0
LINE
8
BLACK
6
CONTINUOUS
10
3.30897
20
-2.08566
11
3.30918
21
-2.08582
0
LINE
8
BLACK
6
CONTINUOUS
10
3.30918
20
-2.08582
11
3.30941
21
-2.08592
0
LINE
8
BLACK
6
CONTINUOUS
10
3.30941
20
-2.08592
11
3.30947
21
-2.08604
0
LINE
8
BLACK
6
CONTINUOUS
10
3.30947
20
-2.08604
11
3.30957
21
-2.08612
0
LINE
8
BLACK
6
CONTINUOUS
10
3.30957
20
-2.08612
11
3.46726
21
-2.35925
0
LINE
8
BLACK
6
CONTINUOUS
10
3.46726
20
-2.35925
11
3.50345
21
-2.35925
0
LINE
8
BLACK
6
CONTINUOUS
10
3.50345
20
-2.35925
11
3.50275
21
-2.33856
0
LINE
8
BLACK
6
CONTINUOUS
10
3.50275
20
-2.33856
11
3.50039
21
-2.31503
0
LINE
8
BLACK
6
CONTINUOUS
10
3.50039
20
-2.31503
11
3.49645
21
-2.29171
0
LINE
8
BLACK
6
CONTINUOUS
10
3.49645
20
-2.29171
11
3.49097
21
-2.2687
0
LINE
8
BLACK
6
CONTINUOUS
10
3.49097
20
-2.2687
11
3.48396
21
-2.2461
0
LINE
8
BLACK
6
CONTINUOUS
10
3.48396
20
-2.2461
11
3.47546
21
-2.22403
0
LINE
8
BLACK
6
CONTINUOUS
10
3.47546
20
-2.22403
11
3.4655
21
-2.20258
0
LINE
8
BLACK
6
CONTINUOUS
10
3.4655
20
-2.20258
11
3.45413
21
-2.18183
0
LINE
8
BLACK
6
CONTINUOUS
10
3.45413
20
-2.18183
11
3.44141
21
-2.16189
0
LINE
8
BLACK
6
CONTINUOUS
10
3.44141
20
-2.16189
11
3.42738
21
-2.14285
0
LINE
8
BLACK
6
CONTINUOUS
10
3.42738
20
-2.14285
11
3.4121
21
-2.12479
0
LINE
8
BLACK
6
CONTINUOUS
10
3.4121
20
-2.12479
11
3.39566
21
-2.10779
0
LINE
8
BLACK
6
CONTINUOUS
10
3.39566
20
-2.10779
11
3.37812
21
-2.09192
0
LINE
8
BLACK
6
CONTINUOUS
10
3.37812
20
-2.09192
11
3.35956
21
-2.07726
0
LINE
8
BLACK
6
CONTINUOUS
10
3.35956
20
-2.07726
11
3.34005
21
-2.06387
0
LINE
8
BLACK
6
CONTINUOUS
10
3.34005
20
-2.06387
11
3.3197
21
-2.05182
0
LINE
8
BLACK
6
CONTINUOUS
10
3.3197
20
-2.05182
11
3.29859
21
-2.04115
0
LINE
8
BLACK
6
CONTINUOUS
10
3.29859
20
-2.04115
11
3.27681
21
-2.03192
0
LINE
8
BLACK
6
CONTINUOUS
10
3.27681
20
-2.03192
11
3.25447
21
-2.02416
0
LINE
8
BLACK
6
CONTINUOUS
10
3.25447
20
-2.02416
11
3.23166
21
-2.01791
0
LINE
8
BLACK
6
CONTINUOUS
10
3.23166
20
-2.01791
11
3.20848
21
-2.0132
0
LINE
8
BLACK
6
CONTINUOUS
10
3.20848
20
-2.0132
11
3.18503
21
-2.01004
0
LINE
8
BLACK
6
CONTINUOUS
10
3.18503
20
-2.01004
11
3.16143
21
-2.00846
0
LINE
8
BLACK
6
CONTINUOUS
10
3.16143
20
-2.00846
11
3.15256
21
-2.00846
0
LINE
8
BLACK
6
CONTINUOUS
10
3.15256
20
-2.00846
11
3.15256
21
-2.08563
0
LINE
8
BLACK
6
CONTINUOUS
10
3.15256
20
-2.00748
11
3.16147
21
-2.00748
0
LINE
8
BLACK
6
CONTINUOUS
10
3.16147
20
-2.00748
11
3.18513
21
-2.00907
0
LINE
8
BLACK
6
CONTINUOUS
10
3.18513
20
-2.00907
11
3.20864
21
-2.01223
0
LINE
8
BLACK
6
CONTINUOUS
10
3.20864
20
-2.01223
11
3.23188
21
-2.01695
0
LINE
8
BLACK
6
CONTINUOUS
10
3.23188
20
-2.01695
11
3.25476
21
-2.02322
0
LINE
8
BLACK
6
CONTINUOUS
10
3.25476
20
-2.02322
11
3.27717
21
-2.031
0
LINE
8
BLACK
6
CONTINUOUS
10
3.27717
20
-2.031
11
3.299
21
-2.04026
0
LINE
8
BLACK
6
CONTINUOUS
10
3.299
20
-2.04026
11
3.32017
21
-2.05096
0
LINE
8
BLACK
6
CONTINUOUS
10
3.32017
20
-2.05096
11
3.34058
21
-2.06304
0
LINE
8
BLACK
6
CONTINUOUS
10
3.34058
20
-2.06304
11
3.36014
21
-2.07647
0
LINE
8
BLACK
6
CONTINUOUS
10
3.36014
20
-2.07647
11
3.37875
21
-2.09117
0
LINE
8
BLACK
6
CONTINUOUS
10
3.37875
20
-2.09117
11
3.39634
21
-2.10708
0
LINE
8
BLACK
6
CONTINUOUS
10
3.39634
20
-2.10708
11
3.41283
21
-2.12413
0
LINE
8
BLACK
6
CONTINUOUS
10
3.41283
20
-2.12413
11
3.42815
21
-2.14224
0
LINE
8
BLACK
6
CONTINUOUS
10
3.42815
20
-2.14224
11
3.44222
21
-2.16134
0
LINE
8
BLACK
6
CONTINUOUS
10
3.44222
20
-2.16134
11
3.45498
21
-2.18133
0
LINE
8
BLACK
6
CONTINUOUS
10
3.45498
20
-2.18133
11
3.46638
21
-2.20213
0
LINE
8
BLACK
6
CONTINUOUS
10
3.46638
20
-2.20213
11
3.47636
21
-2.22365
0
LINE
8
BLACK
6
CONTINUOUS
10
3.47636
20
-2.22365
11
3.48489
21
-2.24578
0
LINE
8
BLACK
6
CONTINUOUS
10
3.48489
20
-2.24578
11
3.49192
21
-2.26844
0
LINE
8
BLACK
6
CONTINUOUS
10
3.49192
20
-2.26844
11
3.49742
21
-2.29151
0
LINE
8
BLACK
6
CONTINUOUS
10
3.49742
20
-2.29151
11
3.50136
21
-2.3149
0
LINE
8
BLACK
6
CONTINUOUS
10
3.50136
20
-2.3149
11
3.50373
21
-2.3385
0
LINE
8
BLACK
6
CONTINUOUS
10
3.50373
20
-2.3385
11
3.50443
21
-2.35925
0
LINE
8
BLACK
6
CONTINUOUS
10
3.50443
20
-2.35925
11
3.5818
21
-2.35925
0
LINE
8
BLACK
6
CONTINUOUS
10
3.5818
20
-2.35925
11
3.5811
21
-2.3361
0
LINE
8
BLACK
6
CONTINUOUS
10
3.5811
20
-2.3361
11
3.57874
21
-2.3101
0
LINE
8
BLACK
6
CONTINUOUS
10
3.57874
20
-2.3101
11
3.57481
21
-2.28428
0
LINE
8
BLACK
6
CONTINUOUS
10
3.57481
20
-2.28428
11
3.56933
21
-2.25875
0
LINE
8
BLACK
6
CONTINUOUS
10
3.56933
20
-2.25875
11
3.56232
21
-2.2336
0
LINE
8
BLACK
6
CONTINUOUS
10
3.56232
20
-2.2336
11
3.5538
21
-2.20891
0
LINE
8
BLACK
6
CONTINUOUS
10
3.5538
20
-2.20891
11
3.54626
21
-2.19071
0
LINE
8
BLACK
6
CONTINUOUS
10
3.54626
20
-2.19071
11
3.54626
21
-2.34252
0
LINE
8
BLACK
6
CONTINUOUS
10
3.54626
20
-2.34252
11
3.54608
21
-2.34353
0
LINE
8
BLACK
6
CONTINUOUS
10
3.54608
20
-2.34353
11
3.54478
21
-2.34508
0
LINE
8
BLACK
6
CONTINUOUS
10
3.54478
20
-2.34508
11
3.54279
21
-2.34543
0
LINE
8
BLACK
6
CONTINUOUS
10
3.54279
20
-2.34543
11
3.54105
21
-2.34442
0
LINE
8
BLACK
6
CONTINUOUS
10
3.54105
20
-2.34442
11
3.54035
21
-2.34252
0
LINE
8
BLACK
6
CONTINUOUS
10
3.54035
20
-2.34252
11
3.54035
21
-2.1777
0
LINE
8
BLACK
6
CONTINUOUS
10
3.54035
20
-2.1777
11
3.53237
21
-2.16131
0
LINE
8
BLACK
6
CONTINUOUS
10
3.53237
20
-2.16131
11
3.51955
21
-2.13857
0
LINE
8
BLACK
6
CONTINUOUS
10
3.51955
20
-2.13857
11
3.50537
21
-2.11664
0
LINE
8
BLACK
6
CONTINUOUS
10
3.50537
20
-2.11664
11
3.48989
21
-2.09561
0
LINE
8
BLACK
6
CONTINUOUS
10
3.48989
20
-2.09561
11
3.47318
21
-2.07555
0
LINE
8
BLACK
6
CONTINUOUS
10
3.47318
20
-2.07555
11
3.45528
21
-2.05653
0
LINE
8
BLACK
6
CONTINUOUS
10
3.45528
20
-2.05653
11
3.43626
21
-2.03864
0
LINE
8
BLACK
6
CONTINUOUS
10
3.43626
20
-2.03864
11
3.4162
21
-2.02192
0
LINE
8
BLACK
6
CONTINUOUS
10
3.4162
20
-2.02192
11
3.39517
21
-2.00644
0
LINE
8
BLACK
6
CONTINUOUS
10
3.39517
20
-2.00644
11
3.37324
21
-1.99226
0
LINE
8
BLACK
6
CONTINUOUS
10
3.37324
20
-1.99226
11
3.3505
21
-1.97944
0
LINE
8
BLACK
6
CONTINUOUS
10
3.3505
20
-1.97944
11
3.32702
21
-1.96801
0
LINE
8
BLACK
6
CONTINUOUS
10
3.32702
20
-1.96801
11
3.3029
21
-1.95801
0
LINE
8
BLACK
6
CONTINUOUS
10
3.3029
20
-1.95801
11
3.27821
21
-1.94949
0
LINE
8
BLACK
6
CONTINUOUS
10
3.27821
20
-1.94949
11
3.25306
21
-1.94248
0
LINE
8
BLACK
6
CONTINUOUS
10
3.25306
20
-1.94248
11
3.22753
21
-1.937
0
LINE
8
BLACK
6
CONTINUOUS
10
3.22753
20
-1.937
11
3.20171
21
-1.93307
0
LINE
8
BLACK
6
CONTINUOUS
10
3.20171
20
-1.93307
11
3.17571
21
-1.93071
0
LINE
8
BLACK
6
CONTINUOUS
10
3.17571
20
-1.93071
11
3.15256
21
-1.93001
0
LINE
8
BLACK
6
CONTINUOUS
10
3.15256
20
-1.93001
11
3.15256
21
-2.00748
0
LINE
8
BLACK
6
CONTINUOUS
10
3.54626
20
-2.18609
11
3.55545
21
-2.20829
0
LINE
8
BLACK
6
CONTINUOUS
10
3.55545
20
-2.20829
11
3.56401
21
-2.23307
0
LINE
8
BLACK
6
CONTINUOUS
10
3.56401
20
-2.23307
11
3.57105
21
-2.25833
0
LINE
8
BLACK
6
CONTINUOUS
10
3.57105
20
-2.25833
11
3.57655
21
-2.28396
0
LINE
8
BLACK
6
CONTINUOUS
10
3.57655
20
-2.28396
11
3.5805
21
-2.30989
0
LINE
8
BLACK
6
CONTINUOUS
10
3.5805
20
-2.30989
11
3.58287
21
-2.336
0
LINE
8
BLACK
6
CONTINUOUS
10
3.58287
20
-2.336
11
3.58357
21
-2.35925
0
LINE
8
BLACK
6
CONTINUOUS
10
3.58357
20
-2.35925
11
3.61921
21
-2.35925
0
LINE
8
BLACK
6
CONTINUOUS
10
3.61921
20
-2.35925
11
3.6185
21
-2.33489
0
LINE
8
BLACK
6
CONTINUOUS
10
3.6185
20
-2.33489
11
3.61612
21
-2.30768
0
LINE
8
BLACK
6
CONTINUOUS
10
3.61612
20
-2.30768
11
3.61216
21
-2.28064
0
LINE
8
BLACK
6
CONTINUOUS
10
3.61216
20
-2.28064
11
3.60663
21
-2.25389
0
LINE
8
BLACK
6
CONTINUOUS
10
3.60663
20
-2.25389
11
3.59956
21
-2.2275
0
LINE
8
BLACK
6
CONTINUOUS
10
3.59956
20
-2.2275
11
3.59097
21
-2.20156
0
LINE
8
BLACK
6
CONTINUOUS
10
3.59097
20
-2.20156
11
3.58088
21
-2.17617
0
LINE
8
BLACK
6
CONTINUOUS
10
3.58088
20
-2.17617
11
3.56933
21
-2.15141
0
LINE
8
BLACK
6
CONTINUOUS
10
3.56933
20
-2.15141
11
3.55637
21
-2.12736
0
LINE
8
BLACK
6
CONTINUOUS
10
3.55637
20
-2.12736
11
3.54626
21
-2.11097
0
LINE
8
BLACK
6
CONTINUOUS
10
3.54626
20
-2.11097
11
3.54626
21
-2.18609
0
LINE
8
BLACK
6
CONTINUOUS
10
3.15256
20
-1.92824
11
3.17581
21
-1.92894
0
LINE
8
BLACK
6
CONTINUOUS
10
3.17581
20
-1.92894
11
3.20193
21
-1.93131
0
LINE
8
BLACK
6
CONTINUOUS
10
3.20193
20
-1.93131
11
3.22785
21
-1.93526
0
LINE
8
BLACK
6
CONTINUOUS
10
3.22785
20
-1.93526
11
3.25348
21
-1.94076
0
LINE
8
BLACK
6
CONTINUOUS
10
3.25348
20
-1.94076
11
3.27874
21
-1.9478
0
LINE
8
BLACK
6
CONTINUOUS
10
3.27874
20
-1.9478
11
3.30352
21
-1.95636
0
LINE
8
BLACK
6
CONTINUOUS
10
3.30352
20
-1.95636
11
3.32775
21
-1.96639
0
LINE
8
BLACK
6
CONTINUOUS
10
3.32775
20
-1.96639
11
3.35132
21
-1.97787
0
LINE
8
BLACK
6
CONTINUOUS
10
3.35132
20
-1.97787
11
3.37416
21
-1.99075
0
LINE
8
BLACK
6
CONTINUOUS
10
3.37416
20
-1.99075
11
3.39618
21
-2.00498
0
LINE
8
BLACK
6
CONTINUOUS
10
3.39618
20
-2.00498
11
3.4173
21
-2.02052
0
LINE
8
BLACK
6
CONTINUOUS
10
3.4173
20
-2.02052
11
3.43744
21
-2.03731
0
LINE
8
BLACK
6
CONTINUOUS
10
3.43744
20
-2.03731
11
3.45653
21
-2.05528
0
LINE
8
BLACK
6
CONTINUOUS
10
3.45653
20
-2.05528
11
3.4745
21
-2.07437
0
LINE
8
BLACK
6
CONTINUOUS
10
3.4745
20
-2.07437
11
3.49129
21
-2.09451
0
LINE
8
BLACK
6
CONTINUOUS
10
3.49129
20
-2.09451
11
3.50683
21
-2.11563
0
LINE
8
BLACK
6
CONTINUOUS
10
3.50683
20
-2.11563
11
3.52106
21
-2.13765
0
LINE
8
BLACK
6
CONTINUOUS
10
3.52106
20
-2.13765
11
3.53394
21
-2.16049
0
LINE
8
BLACK
6
CONTINUOUS
10
3.53394
20
-2.16049
11
3.54035
21
-2.17366
0
LINE
8
BLACK
6
CONTINUOUS
10
3.54035
20
-2.17366
11
3.54035
21
-2.10172
0
LINE
8
BLACK
6
CONTINUOUS
10
3.54035
20
-2.10172
11
3.52635
21
-2.08173
0
LINE
8
BLACK
6
CONTINUOUS
10
3.52635
20
-2.08173
11
3.50941
21
-2.0603
0
LINE
8
BLACK
6
CONTINUOUS
10
3.50941
20
-2.0603
11
3.49124
21
-2.03989
0
LINE
8
BLACK
6
CONTINUOUS
10
3.49124
20
-2.03989
11
3.47192
21
-2.02057
0
LINE
8
BLACK
6
CONTINUOUS
10
3.47192
20
-2.02057
11
3.45152
21
-2.0024
0
LINE
8
BLACK
6
CONTINUOUS
10
3.45152
20
-2.0024
11
3.43008
21
-1.98546
0
LINE
8
BLACK
6
CONTINUOUS
10
3.43008
20
-1.98546
11
3.4077
21
-1.96979
0
LINE
8
BLACK
6
CONTINUOUS
10
3.4077
20
-1.96979
11
3.38445
21
-1.95544
0
LINE
8
BLACK
6
CONTINUOUS
10
3.38445
20
-1.95544
11
3.3604
21
-1.94248
0
LINE
8
BLACK
6
CONTINUOUS
10
3.3604
20
-1.94248
11
3.33564
21
-1.93093
0
LINE
8
BLACK
6
CONTINUOUS
10
3.33564
20
-1.93093
11
3.31025
21
-1.92084
0
LINE
8
BLACK
6
CONTINUOUS
10
3.31025
20
-1.92084
11
3.28431
21
-1.91225
0
LINE
8
BLACK
6
CONTINUOUS
10
3.28431
20
-1.91225
11
3.25792
21
-1.90518
0
LINE
8
BLACK
6
CONTINUOUS
10
3.25792
20
-1.90518
11
3.23117
21
-1.89965
0
LINE
8
BLACK
6
CONTINUOUS
10
3.23117
20
-1.89965
11
3.20413
21
-1.89569
0
LINE
8
BLACK
6
CONTINUOUS
10
3.20413
20
-1.89569
11
3.17692
21
-1.89331
0
LINE
8
BLACK
6
CONTINUOUS
10
3.17692
20
-1.89331
11
3.15256
21
-1.8926
0
LINE
8
BLACK
6
CONTINUOUS
10
3.15256
20
-1.8926
11
3.15256
21
-1.92824
0
LINE
8
BLACK
6
CONTINUOUS
10
3.1223
20
-1.89331
11
3.09508
21
-1.89569
0
LINE
8
BLACK
6
CONTINUOUS
10
3.09508
20
-1.89569
11
3.06805
21
-1.89965
0
LINE
8
BLACK
6
CONTINUOUS
10
3.06805
20
-1.89965
11
3.04129
21
-1.90518
0
LINE
8
BLACK
6
CONTINUOUS
10
3.04129
20
-1.90518
11
3.0149
21
-1.91225
0
LINE
8
BLACK
6
CONTINUOUS
10
3.0149
20
-1.91225
11
2.98896
21
-1.92084
0
LINE
8
BLACK
6
CONTINUOUS
10
2.98896
20
-1.92084
11
2.96357
21
-1.93093
0
LINE
8
BLACK
6
CONTINUOUS
10
2.96357
20
-1.93093
11
2.93881
21
-1.94248
0
LINE
8
BLACK
6
CONTINUOUS
10
2.93881
20
-1.94248
11
2.91476
21
-1.95544
0
LINE
8
BLACK
6
CONTINUOUS
10
2.91476
20
-1.95544
11
2.89151
21
-1.96979
0
LINE
8
BLACK
6
CONTINUOUS
10
2.89151
20
-1.96979
11
2.86913
21
-1.98546
0
LINE
8
BLACK
6
CONTINUOUS
10
2.86913
20
-1.98546
11
2.8477
21
-2.0024
0
LINE
8
BLACK
6
CONTINUOUS
10
2.8477
20
-2.0024
11
2.82729
21
-2.02057
0
LINE
8
BLACK
6
CONTINUOUS
10
2.82729
20
-2.02057
11
2.80797
21
-2.03989
0
LINE
8
BLACK
6
CONTINUOUS
10
2.80797
20
-2.03989
11
2.78981
21
-2.0603
0
LINE
8
BLACK
6
CONTINUOUS
10
2.78981
20
-2.0603
11
2.77286
21
-2.08173
0
LINE
8
BLACK
6
CONTINUOUS
10
2.77286
20
-2.08173
11
2.75719
21
-2.10411
0
LINE
8
BLACK
6
CONTINUOUS
10
2.75719
20
-2.10411
11
2.74794
21
-2.11909
0
LINE
8
BLACK
6
CONTINUOUS
10
2.74794
20
-2.11909
11
2.79015
21
-2.11909
0
LINE
8
BLACK
6
CONTINUOUS
10
2.79015
20
-2.11909
11
2.79239
21
-2.11563
0
LINE
8
BLACK
6
CONTINUOUS
10
2.79239
20
-2.11563
11
2.80793
21
-2.09451
0
LINE
8
BLACK
6
CONTINUOUS
10
2.80793
20
-2.09451
11
2.82471
21
-2.07437
0
LINE
8
BLACK
6
CONTINUOUS
10
2.82471
20
-2.07437
11
2.84268
21
-2.05528
0
LINE
8
BLACK
6
CONTINUOUS
10
2.84268
20
-2.05528
11
2.86177
21
-2.03731
0
LINE
8
BLACK
6
CONTINUOUS
10
2.86177
20
-2.03731
11
2.88192
21
-2.02052
0
LINE
8
BLACK
6
CONTINUOUS
10
2.88192
20
-2.02052
11
2.90303
21
-2.00498
0
LINE
8
BLACK
6
CONTINUOUS
10
2.90303
20
-2.00498
11
2.92505
21
-1.99075
0
LINE
8
BLACK
6
CONTINUOUS
10
2.92505
20
-1.99075
11
2.94789
21
-1.97787
0
LINE
8
BLACK
6
CONTINUOUS
10
2.94789
20
-1.97787
11
2.97146
21
-1.96639
0
LINE
8
BLACK
6
CONTINUOUS
10
2.97146
20
-1.96639
11
2.99569
21
-1.95636
0
LINE
8
BLACK
6
CONTINUOUS
10
2.99569
20
-1.95636
11
3.02047
21
-1.9478
0
LINE
8
BLACK
6
CONTINUOUS
10
3.02047
20
-1.9478
11
3.04573
21
-1.94076
0
LINE
8
BLACK
6
CONTINUOUS
10
3.04573
20
-1.94076
11
3.07137
21
-1.93526
0
LINE
8
BLACK
6
CONTINUOUS
10
3.07137
20
-1.93526
11
3.09729
21
-1.93131
0
LINE
8
BLACK
6
CONTINUOUS
10
3.09729
20
-1.93131
11
3.1234
21
-1.92894
0
LINE
8
BLACK
6
CONTINUOUS
10
3.1234
20
-1.92894
11
3.14665
21
-1.92824
0
LINE
8
BLACK
6
CONTINUOUS
10
3.14665
20
-1.92824
11
3.14665
21
-1.8926
0
LINE
8
BLACK
6
CONTINUOUS
10
3.14665
20
-1.8926
11
3.1223
21
-1.89331
0
LINE
8
BLACK
6
CONTINUOUS
10
3.12351
20
-1.93071
11
3.0975
21
-1.93307
0
LINE
8
BLACK
6
CONTINUOUS
10
3.0975
20
-1.93307
11
3.07168
21
-1.937
0
LINE
8
BLACK
6
CONTINUOUS
10
3.07168
20
-1.937
11
3.04615
21
-1.94248
0
LINE
8
BLACK
6
CONTINUOUS
10
3.04615
20
-1.94248
11
3.021
21
-1.94949
0
LINE
8
BLACK
6
CONTINUOUS
10
3.021
20
-1.94949
11
2.99632
21
-1.95801
0
LINE
8
BLACK
6
CONTINUOUS
10
2.99632
20
-1.95801
11
2.97219
21
-1.96801
0
LINE
8
BLACK
6
CONTINUOUS
10
2.97219
20
-1.96801
11
2.94871
21
-1.97944
0
LINE
8
BLACK
6
CONTINUOUS
10
2.94871
20
-1.97944
11
2.92597
21
-1.99226
0
LINE
8
BLACK
6
CONTINUOUS
10
2.92597
20
-1.99226
11
2.90404
21
-2.00644
0
LINE
8
BLACK
6
CONTINUOUS
10
2.90404
20
-2.00644
11
2.88301
21
-2.02192
0
LINE
8
BLACK
6
CONTINUOUS
10
2.88301
20
-2.02192
11
2.86295
21
-2.03864
0
LINE
8
BLACK
6
CONTINUOUS
10
2.86295
20
-2.03864
11
2.84394
21
-2.05653
0
LINE
8
BLACK
6
CONTINUOUS
10
2.84394
20
-2.05653
11
2.82604
21
-2.07555
0
LINE
8
BLACK
6
CONTINUOUS
10
2.82604
20
-2.07555
11
2.80932
21
-2.09561
0
LINE
8
BLACK
6
CONTINUOUS
10
2.80932
20
-2.09561
11
2.79384
21
-2.11664
0
LINE
8
BLACK
6
CONTINUOUS
10
2.79384
20
-2.11664
11
2.79226
21
-2.11909
0
LINE
8
BLACK
6
CONTINUOUS
10
2.79226
20
-2.11909
11
2.89125
21
-2.11909
0
LINE
8
BLACK
6
CONTINUOUS
10
2.89125
20
-2.11909
11
2.90287
21
-2.10708
0
LINE
8
BLACK
6
CONTINUOUS
10
2.90287
20
-2.10708
11
2.92046
21
-2.09117
0
LINE
8
BLACK
6
CONTINUOUS
10
2.92046
20
-2.09117
11
2.93907
21
-2.07647
0
LINE
8
BLACK
6
CONTINUOUS
10
2.93907
20
-2.07647
11
2.95863
21
-2.06304
0
LINE
8
BLACK
6
CONTINUOUS
10
2.95863
20
-2.06304
11
2.97904
21
-2.05096
0
LINE
8
BLACK
6
CONTINUOUS
10
2.97904
20
-2.05096
11
3.00021
21
-2.04026
0
LINE
8
BLACK
6
CONTINUOUS
10
3.00021
20
-2.04026
11
3.02204
21
-2.031
0
LINE
8
BLACK
6
CONTINUOUS
10
3.02204
20
-2.031
11
3.04445
21
-2.02322
0
LINE
8
BLACK
6
CONTINUOUS
10
3.04445
20
-2.02322
11
3.06733
21
-2.01695
0
LINE
8
BLACK
6
CONTINUOUS
10
3.06733
20
-2.01695
11
3.09057
21
-2.01223
0
LINE
8
BLACK
6
CONTINUOUS
10
3.09057
20
-2.01223
11
3.11408
21
-2.00907
0
LINE
8
BLACK
6
CONTINUOUS
10
3.11408
20
-2.00907
11
3.13775
21
-2.00748
0
LINE
8
BLACK
6
CONTINUOUS
10
3.13775
20
-2.00748
11
3.14665
21
-2.00748
0
LINE
8
BLACK
6
CONTINUOUS
10
3.14665
20
-2.00748
11
3.14665
21
-1.93001
0
LINE
8
BLACK
6
CONTINUOUS
10
3.14665
20
-1.93001
11
3.12351
21
-1.93071
0
LINE
8
BLACK
6
CONTINUOUS
10
3.11418
20
-2.01004
11
3.09074
21
-2.0132
0
LINE
8
BLACK
6
CONTINUOUS
10
3.09074
20
-2.0132
11
3.06756
21
-2.01791
0
LINE
8
BLACK
6
CONTINUOUS
10
3.06756
20
-2.01791
11
3.04474
21
-2.02416
0
LINE
8
BLACK
6
CONTINUOUS
10
3.04474
20
-2.02416
11
3.0224
21
-2.03192
0
LINE
8
BLACK
6
CONTINUOUS
10
3.0224
20
-2.03192
11
3.00062
21
-2.04115
0
LINE
8
BLACK
6
CONTINUOUS
10
3.00062
20
-2.04115
11
2.97951
21
-2.05182
0
LINE
8
BLACK
6
CONTINUOUS
10
2.97951
20
-2.05182
11
2.95916
21
-2.06387
0
LINE
8
BLACK
6
CONTINUOUS
10
2.95916
20
-2.06387
11
2.93966
21
-2.07726
0
LINE
8
BLACK
6
CONTINUOUS
10
2.93966
20
-2.07726
11
2.92109
21
-2.09192
0
LINE
8
BLACK
6
CONTINUOUS
10
2.92109
20
-2.09192
11
2.90355
21
-2.10779
0
LINE
8
BLACK
6
CONTINUOUS
10
2.90355
20
-2.10779
11
2.89261
21
-2.11909
0
LINE
8
BLACK
6
CONTINUOUS
10
2.89261
20
-2.11909
11
2.9706
21
-2.11909
0
LINE
8
BLACK
6
CONTINUOUS
10
2.9706
20
-2.11909
11
2.98964
21
-2.08612
0
LINE
8
BLACK
6
CONTINUOUS
10
2.98964
20
-2.08612
11
2.98975
21
-2.08604
0
LINE
8
BLACK
6
CONTINUOUS
10
2.98975
20
-2.08604
11
2.9898
21
-2.08592
0
LINE
8
BLACK
6
CONTINUOUS
10
2.9898
20
-2.08592
11
2.99004
21
-2.08582
0
LINE
8
BLACK
6
CONTINUOUS
10
2.99004
20
-2.08582
11
2.99024
21
-2.08566
0
LINE
8
BLACK
6
CONTINUOUS
10
2.99024
20
-2.08566
11
2.99037
21
-2.08568
0
LINE
8
BLACK
6
CONTINUOUS
10
2.99037
20
-2.08568
11
2.99049
21
-2.08563
0
LINE
8
BLACK
6
CONTINUOUS
10
2.99049
20
-2.08563
11
3.14665
21
-2.08563
0
LINE
8
BLACK
6
CONTINUOUS
10
3.14665
20
-2.08563
11
3.14665
21
-2.00846
0
LINE
8
BLACK
6
CONTINUOUS
10
3.14665
20
-2.00846
11
3.13778
21
-2.00846
0
LINE
8
BLACK
6
CONTINUOUS
10
3.13778
20
-2.00846
11
3.11418
21
-2.01004
0
LINE
8
BLACK
6
CONTINUOUS
10
2.99106
20
-2.0876
11
2.97288
21
-2.11909
0
LINE
8
BLACK
6
CONTINUOUS
10
2.97288
20
-2.11909
11
3.06084
21
-2.11909
0
LINE
8
BLACK
6
CONTINUOUS
10
3.06084
20
-2.11909
11
3.06211
21
-2.11858
0
LINE
8
BLACK
6
CONTINUOUS
10
3.06211
20
-2.11858
11
3.08101
21
-2.1126
0
LINE
8
BLACK
6
CONTINUOUS
10
3.08101
20
-2.1126
11
3.10032
21
-2.10808
0
LINE
8
BLACK
6
CONTINUOUS
10
3.10032
20
-2.10808
11
3.11992
21
-2.10505
0
LINE
8
BLACK
6
CONTINUOUS
10
3.11992
20
-2.10505
11
3.13969
21
-2.10354
0
LINE
8
BLACK
6
CONTINUOUS
10
3.13969
20
-2.10354
11
3.14665
21
-2.10354
0
LINE
8
BLACK
6
CONTINUOUS
10
3.14665
20
-2.10354
11
3.14665
21
-2.0876
0
LINE
8
BLACK
6
CONTINUOUS
10
3.14665
20
-2.0876
11
2.99106
21
-2.0876
0
LINE
8
BLACK
6
CONTINUOUS
10
3.16167
20
-1.80453
11
3.19532
21
-1.82204
0
LINE
8
BLACK
6
CONTINUOUS
10
3.19532
20
-1.82204
11
3.19613
21
-1.82267
0
LINE
8
BLACK
6
CONTINUOUS
10
3.19613
20
-1.82267
11
3.19691
21
-1.82453
0
LINE
8
BLACK
6
CONTINUOUS
10
3.19691
20
-1.82453
11
3.1963
21
-1.82646
0
LINE
8
BLACK
6
CONTINUOUS
10
3.1963
20
-1.82646
11
3.1946
21
-1.82754
0
LINE
8
BLACK
6
CONTINUOUS
10
3.1946
20
-1.82754
11
3.19259
21
-1.82728
0
LINE
8
BLACK
6
CONTINUOUS
10
3.19259
20
-1.82728
11
3.15256
21
-1.80644
0
LINE
8
BLACK
6
CONTINUOUS
10
3.15256
20
-1.80644
11
3.15256
21
-1.887
0
LINE
8
BLACK
6
CONTINUOUS
10
3.15256
20
-1.887
11
3.16318
21
-1.887
0
LINE
8
BLACK
6
CONTINUOUS
10
3.16318
20
-1.887
11
3.19029
21
-1.88855
0
LINE
8
BLACK
6
CONTINUOUS
10
3.19029
20
-1.88855
11
3.21726
21
-1.89165
0
LINE
8
BLACK
6
CONTINUOUS
10
3.21726
20
-1.89165
11
3.24401
21
-1.89628
0
LINE
8
BLACK
6
CONTINUOUS
10
3.24401
20
-1.89628
11
3.27046
21
-1.90243
0
LINE
8
BLACK
6
CONTINUOUS
10
3.27046
20
-1.90243
11
3.29651
21
-1.91008
0
LINE
8
BLACK
6
CONTINUOUS
10
3.29651
20
-1.91008
11
3.32208
21
-1.9192
0
LINE
8
BLACK
6
CONTINUOUS
10
3.32208
20
-1.9192
11
3.34709
21
-1.92977
0
LINE
8
BLACK
6
CONTINUOUS
10
3.34709
20
-1.92977
11
3.37146
21
-1.94175
0
LINE
8
BLACK
6
CONTINUOUS
10
3.37146
20
-1.94175
11
3.3951
21
-1.9551
0
LINE
8
BLACK
6
CONTINUOUS
10
3.3951
20
-1.9551
11
3.41794
21
-1.96978
0
LINE
8
BLACK
6
CONTINUOUS
10
3.41794
20
-1.96978
11
3.4399
21
-1.98574
0
LINE
8
BLACK
6
CONTINUOUS
10
3.4399
20
-1.98574
11
3.46092
21
-2.00293
0
LINE
8
BLACK
6
CONTINUOUS
10
3.46092
20
-2.00293
11
3.48093
21
-2.02128
0
LINE
8
BLACK
6
CONTINUOUS
10
3.48093
20
-2.02128
11
3.49985
21
-2.04076
0
LINE
8
BLACK
6
CONTINUOUS
10
3.49985
20
-2.04076
11
3.51763
21
-2.06127
0
LINE
8
BLACK
6
CONTINUOUS
10
3.51763
20
-2.06127
11
3.53421
21
-2.08278
0
LINE
8
BLACK
6
CONTINUOUS
10
3.53421
20
-2.08278
11
3.54035
21
-2.09176
0
LINE
8
BLACK
6
CONTINUOUS
10
3.54035
20
-2.09176
11
3.54035
21
-1.80644
0
LINE
8
BLACK
6
CONTINUOUS
10
3.54035
20
-1.80644
11
3.50032
21
-1.82728
0
LINE
8
BLACK
6
CONTINUOUS
10
3.50032
20
-1.82728
11
3.49934
21
-1.82759
0
LINE
8
BLACK
6
CONTINUOUS
10
3.49934
20
-1.82759
11
3.49737
21
-1.82715
0
LINE
8
BLACK
6
CONTINUOUS
10
3.49737
20
-1.82715
11
3.49614
21
-1.82555
0
LINE
8
BLACK
6
CONTINUOUS
10
3.49614
20
-1.82555
11
3.49623
21
-1.82353
0
LINE
8
BLACK
6
CONTINUOUS
10
3.49623
20
-1.82353
11
3.49759
21
-1.82204
0
LINE
8
BLACK
6
CONTINUOUS
10
3.49759
20
-1.82204
11
3.53124
21
-1.80453
0
LINE
8
BLACK
6
CONTINUOUS
10
3.53124
20
-1.80453
11
3.16167
21
-1.80453
0
LINE
8
BLACK
6
CONTINUOUS
10
2.68071
20
-2.38951
11
2.6831
21
-2.41673
0
LINE
8
BLACK
6
CONTINUOUS
10
2.6831
20
-2.41673
11
2.68705
21
-2.44376
0
LINE
8
BLACK
6
CONTINUOUS
10
2.68705
20
-2.44376
11
2.69258
21
-2.47052
0
LINE
8
BLACK
6
CONTINUOUS
10
2.69258
20
-2.47052
11
2.69965
21
-2.49691
0
LINE
8
BLACK
6
CONTINUOUS
10
2.69965
20
-2.49691
11
2.70824
21
-2.52285
0
LINE
8
BLACK
6
CONTINUOUS
10
2.70824
20
-2.52285
11
2.71833
21
-2.54824
0
LINE
8
BLACK
6
CONTINUOUS
10
2.71833
20
-2.54824
11
2.72988
21
-2.573
0
LINE
8
BLACK
6
CONTINUOUS
10
2.72988
20
-2.573
11
2.74285
21
-2.59705
0
LINE
8
BLACK
6
CONTINUOUS
10
2.74285
20
-2.59705
11
2.7443
21
-2.59941
0
LINE
8
BLACK
6
CONTINUOUS
10
2.7443
20
-2.59941
11
2.78633
21
-2.59941
0
LINE
8
BLACK
6
CONTINUOUS
10
2.78633
20
-2.59941
11
2.77815
21
-2.58676
0
LINE
8
BLACK
6
CONTINUOUS
10
2.77815
20
-2.58676
11
2.76527
21
-2.56392
0
LINE
8
BLACK
6
CONTINUOUS
10
2.76527
20
-2.56392
11
2.75379
21
-2.54035
0
LINE
8
BLACK
6
CONTINUOUS
10
2.75379
20
-2.54035
11
2.74376
21
-2.51612
0
LINE
8
BLACK
6
CONTINUOUS
10
2.74376
20
-2.51612
11
2.7352
21
-2.49134
0
LINE
8
BLACK
6
CONTINUOUS
10
2.7352
20
-2.49134
11
2.72816
21
-2.46608
0
LINE
8
BLACK
6
CONTINUOUS
10
2.72816
20
-2.46608
11
2.72266
21
-2.44045
0
LINE
8
BLACK
6
CONTINUOUS
10
2.72266
20
-2.44045
11
2.71872
21
-2.41452
0
LINE
8
BLACK
6
CONTINUOUS
10
2.71872
20
-2.41452
11
2.71634
21
-2.38841
0
LINE
8
BLACK
6
CONTINUOUS
10
2.71634
20
-2.38841
11
2.71555
21
-2.3622
0
LINE
8
BLACK
6
CONTINUOUS
10
2.71555
20
-2.3622
11
2.71634
21
-2.336
0
LINE
8
BLACK
6
CONTINUOUS
10
2.71634
20
-2.336
11
2.71872
21
-2.30989
0
LINE
8
BLACK
6
CONTINUOUS
10
2.71872
20
-2.30989
11
2.72266
21
-2.28396
0
LINE
8
BLACK
6
CONTINUOUS
10
2.72266
20
-2.28396
11
2.72816
21
-2.25833
0
LINE
8
BLACK
6
CONTINUOUS
10
2.72816
20
-2.25833
11
2.7352
21
-2.23307
0
LINE
8
BLACK
6
CONTINUOUS
10
2.7352
20
-2.23307
11
2.74376
21
-2.20829
0
LINE
8
BLACK
6
CONTINUOUS
10
2.74376
20
-2.20829
11
2.75379
21
-2.18406
0
LINE
8
BLACK
6
CONTINUOUS
10
2.75379
20
-2.18406
11
2.76527
21
-2.16049
0
LINE
8
BLACK
6
CONTINUOUS
10
2.76527
20
-2.16049
11
2.77815
21
-2.13765
0
LINE
8
BLACK
6
CONTINUOUS
10
2.77815
20
-2.13765
11
2.78633
21
-2.125
0
LINE
8
BLACK
6
CONTINUOUS
10
2.78633
20
-2.125
11
2.7443
21
-2.125
0
LINE
8
BLACK
6
CONTINUOUS
10
2.7443
20
-2.125
11
2.74285
21
-2.12736
0
LINE
8
BLACK
6
CONTINUOUS
10
2.74285
20
-2.12736
11
2.72988
21
-2.15141
0
LINE
8
BLACK
6
CONTINUOUS
10
2.72988
20
-2.15141
11
2.71833
21
-2.17617
0
LINE
8
BLACK
6
CONTINUOUS
10
2.71833
20
-2.17617
11
2.70824
21
-2.20156
0
LINE
8
BLACK
6
CONTINUOUS
10
2.70824
20
-2.20156
11
2.69965
21
-2.2275
0
LINE
8
BLACK
6
CONTINUOUS
10
2.69965
20
-2.2275
11
2.69258
21
-2.25389
0
LINE
8
BLACK
6
CONTINUOUS
10
2.69258
20
-2.25389
11
2.68705
21
-2.28064
0
LINE
8
BLACK
6
CONTINUOUS
10
2.68705
20
-2.28064
11
2.6831
21
-2.30768
0
LINE
8
BLACK
6
CONTINUOUS
10
2.6831
20
-2.30768
11
2.68071
21
-2.33489
0
LINE
8
BLACK
6
CONTINUOUS
10
2.68071
20
-2.33489
11
2.67992
21
-2.3622
0
LINE
8
BLACK
6
CONTINUOUS
10
2.67992
20
-2.3622
11
2.68071
21
-2.38951
0
LINE
8
BLACK
6
CONTINUOUS
10
2.71811
20
-2.38831
11
2.72047
21
-2.41431
0
LINE
8
BLACK
6
CONTINUOUS
10
2.72047
20
-2.41431
11
2.7244
21
-2.44013
0
LINE
8
BLACK
6
CONTINUOUS
10
2.7244
20
-2.44013
11
2.72988
21
-2.46566
0
LINE
8
BLACK
6
CONTINUOUS
10
2.72988
20
-2.46566
11
2.7369
21
-2.49081
0
LINE
8
BLACK
6
CONTINUOUS
10
2.7369
20
-2.49081
11
2.74541
21
-2.51549
0
LINE
8
BLACK
6
CONTINUOUS
10
2.74541
20
-2.51549
11
2.75541
21
-2.53962
0
LINE
8
BLACK
6
CONTINUOUS
10
2.75541
20
-2.53962
11
2.76684
21
-2.5631
0
LINE
8
BLACK
6
CONTINUOUS
10
2.76684
20
-2.5631
11
2.77967
21
-2.58584
0
LINE
8
BLACK
6
CONTINUOUS
10
2.77967
20
-2.58584
11
2.78844
21
-2.59941
0
LINE
8
BLACK
6
CONTINUOUS
10
2.78844
20
-2.59941
11
2.88564
21
-2.59941
0
LINE
8
BLACK
6
CONTINUOUS
10
2.88564
20
-2.59941
11
2.87106
21
-2.58217
0
LINE
8
BLACK
6
CONTINUOUS
10
2.87106
20
-2.58217
11
2.85699
21
-2.56307
0
LINE
8
BLACK
6
CONTINUOUS
10
2.85699
20
-2.56307
11
2.84423
21
-2.54308
0
LINE
8
BLACK
6
CONTINUOUS
10
2.84423
20
-2.54308
11
2.83283
21
-2.52228
0
LINE
8
BLACK
6
CONTINUOUS
10
2.83283
20
-2.52228
11
2.82285
21
-2.50076
0
LINE
8
BLACK
6
CONTINUOUS
10
2.82285
20
-2.50076
11
2.81432
21
-2.47863
0
LINE
8
BLACK
6
CONTINUOUS
10
2.81432
20
-2.47863
11
2.8073
21
-2.45597
0
LINE
8
BLACK
6
CONTINUOUS
10
2.8073
20
-2.45597
11
2.8018
21
-2.4329
0
LINE
8
BLACK
6
CONTINUOUS
10
2.8018
20
-2.4329
11
2.79785
21
-2.40951
0
LINE
8
BLACK
6
CONTINUOUS
10
2.79785
20
-2.40951
11
2.79548
21
-2.38591
0
LINE
8
BLACK
6
CONTINUOUS
10
2.79548
20
-2.38591
11
2.79469
21
-2.3622
0
LINE
8
BLACK
6
CONTINUOUS
10
2.79469
20
-2.3622
11
2.79548
21
-2.3385
0
LINE
8
BLACK
6
CONTINUOUS
10
2.79548
20
-2.3385
11
2.79785
21
-2.3149
0
LINE
8
BLACK
6
CONTINUOUS
10
2.79785
20
-2.3149
11
2.8018
21
-2.29151
0
LINE
8
BLACK
6
CONTINUOUS
10
2.8018
20
-2.29151
11
2.8073
21
-2.26844
0
LINE
8
BLACK
6
CONTINUOUS
10
2.8073
20
-2.26844
11
2.81432
21
-2.24578
0
LINE
8
BLACK
6
CONTINUOUS
10
2.81432
20
-2.24578
11
2.82285
21
-2.22365
0
LINE
8
BLACK
6
CONTINUOUS
10
2.82285
20
-2.22365
11
2.83283
21
-2.20213
0
LINE
8
BLACK
6
CONTINUOUS
10
2.83283
20
-2.20213
11
2.84423
21
-2.18133
0
LINE
8
BLACK
6
CONTINUOUS
10
2.84423
20
-2.18133
11
2.85699
21
-2.16134
0
LINE
8
BLACK
6
CONTINUOUS
10
2.85699
20
-2.16134
11
2.87106
21
-2.14224
0
LINE
8
BLACK
6
CONTINUOUS
10
2.87106
20
-2.14224
11
2.88564
21
-2.125
0
LINE
8
BLACK
6
CONTINUOUS
10
2.88564
20
-2.125
11
2.78844
21
-2.125
0
LINE
8
BLACK
6
CONTINUOUS
10
2.78844
20
-2.125
11
2.77967
21
-2.13857
0
LINE
8
BLACK
6
CONTINUOUS
10
2.77967
20
-2.13857
11
2.76684
21
-2.16131
0
LINE
8
BLACK
6
CONTINUOUS
10
2.76684
20
-2.16131
11
2.75541
21
-2.18479
0
LINE
8
BLACK
6
CONTINUOUS
10
2.75541
20
-2.18479
11
2.74541
21
-2.20891
0
LINE
8
BLACK
6
CONTINUOUS
10
2.74541
20
-2.20891
11
2.7369
21
-2.2336
0
LINE
8
BLACK
6
CONTINUOUS
10
2.7369
20
-2.2336
11
2.72988
21
-2.25875
0
LINE
8
BLACK
6
CONTINUOUS
10
2.72988
20
-2.25875
11
2.7244
21
-2.28428
0
LINE
8
BLACK
6
CONTINUOUS
10
2.7244
20
-2.28428
11
2.72047
21
-2.3101
0
LINE
8
BLACK
6
CONTINUOUS
10
2.72047
20
-2.3101
11
2.71811
21
-2.3361
0
LINE
8
BLACK
6
CONTINUOUS
10
2.71811
20
-2.3361
11
2.71732
21
-2.3622
0
LINE
8
BLACK
6
CONTINUOUS
10
2.71732
20
-2.3622
11
2.71811
21
-2.38831
0
LINE
8
BLACK
6
CONTINUOUS
10
2.79646
20
-2.38585
11
2.79883
21
-2.40938
0
LINE
8
BLACK
6
CONTINUOUS
10
2.79883
20
-2.40938
11
2.80276
21
-2.4327
0
LINE
8
BLACK
6
CONTINUOUS
10
2.80276
20
-2.4327
11
2.80824
21
-2.45571
0
LINE
8
BLACK
6
CONTINUOUS
10
2.80824
20
-2.45571
11
2.81525
21
-2.47831
0
LINE
8
BLACK
6
CONTINUOUS
10
2.81525
20
-2.47831
11
2.82375
21
-2.50038
0
LINE
8
BLACK
6
CONTINUOUS
10
2.82375
20
-2.50038
11
2.83371
21
-2.52183
0
LINE
8
BLACK
6
CONTINUOUS
10
2.83371
20
-2.52183
11
2.84508
21
-2.54258
0
LINE
8
BLACK
6
CONTINUOUS
10
2.84508
20
-2.54258
11
2.85781
21
-2.56251
0
LINE
8
BLACK
6
CONTINUOUS
10
2.85781
20
-2.56251
11
2.87184
21
-2.58156
0
LINE
8
BLACK
6
CONTINUOUS
10
2.87184
20
-2.58156
11
2.88693
21
-2.59941
0
LINE
8
BLACK
6
CONTINUOUS
10
2.88693
20
-2.59941
11
2.9672
21
-2.59941
0
LINE
8
BLACK
6
CONTINUOUS
10
2.9672
20
-2.59941
11
2.83053
21
-2.3627
0
LINE
8
BLACK
6
CONTINUOUS
10
2.83053
20
-2.3627
11
2.83051
21
-2.36257
0
LINE
8
BLACK
6
CONTINUOUS
10
2.83051
20
-2.36257
11
2.83043
21
-2.36246
0
LINE
8
BLACK
6
CONTINUOUS
10
2.83043
20
-2.36246
11
2.83046
21
-2.3622
0
LINE
8
BLACK
6
CONTINUOUS
10
2.83046
20
-2.3622
11
2.83043
21
-2.36195
0
LINE
8
BLACK
6
CONTINUOUS
10
2.83043
20
-2.36195
11
2.83051
21
-2.36184
0
LINE
8
BLACK
6
CONTINUOUS
10
2.83051
20
-2.36184
11
2.83053
21
-2.36171
0
LINE
8
BLACK
6
CONTINUOUS
10
2.83053
20
-2.36171
11
2.9672
21
-2.125
0
LINE
8
BLACK
6
CONTINUOUS
10
2.9672
20
-2.125
11
2.88693
21
-2.125
0
LINE
8
BLACK
6
CONTINUOUS
10
2.88693
20
-2.125
11
2.87184
21
-2.14285
0
LINE
8
BLACK
6
CONTINUOUS
10
2.87184
20
-2.14285
11
2.85781
21
-2.16189
0
LINE
8
BLACK
6
CONTINUOUS
10
2.85781
20
-2.16189
11
2.84508
21
-2.18183
0
LINE
8
BLACK
6
CONTINUOUS
10
2.84508
20
-2.18183
11
2.83371
21
-2.20258
0
LINE
8
BLACK
6
CONTINUOUS
10
2.83371
20
-2.20258
11
2.82375
21
-2.22403
0
LINE
8
BLACK
6
CONTINUOUS
10
2.82375
20
-2.22403
11
2.81525
21
-2.2461
0
LINE
8
BLACK
6
CONTINUOUS
10
2.81525
20
-2.2461
11
2.80824
21
-2.2687
0
LINE
8
BLACK
6
CONTINUOUS
10
2.80824
20
-2.2687
11
2.80276
21
-2.29171
0
LINE
8
BLACK
6
CONTINUOUS
10
2.80276
20
-2.29171
11
2.79883
21
-2.31503
0
LINE
8
BLACK
6
CONTINUOUS
10
2.79883
20
-2.31503
11
2.79646
21
-2.33856
0
LINE
8
BLACK
6
CONTINUOUS
10
2.79646
20
-2.33856
11
2.79567
21
-2.3622
0
LINE
8
BLACK
6
CONTINUOUS
10
2.79567
20
-2.3622
11
2.79646
21
-2.38585
0
LINE
8
BLACK
6
CONTINUOUS
10
2.89724
20
-2.38207
11
2.89958
21
-2.40181
0
LINE
8
BLACK
6
CONTINUOUS
10
2.89958
20
-2.40181
11
2.90345
21
-2.4213
0
LINE
8
BLACK
6
CONTINUOUS
10
2.90345
20
-2.4213
11
2.90885
21
-2.44043
0
LINE
8
BLACK
6
CONTINUOUS
10
2.90885
20
-2.44043
11
2.91573
21
-2.45908
0
LINE
8
BLACK
6
CONTINUOUS
10
2.91573
20
-2.45908
11
2.92405
21
-2.47713
0
LINE
8
BLACK
6
CONTINUOUS
10
2.92405
20
-2.47713
11
2.93376
21
-2.49447
0
LINE
8
BLACK
6
CONTINUOUS
10
2.93376
20
-2.49447
11
2.94481
21
-2.511
0
LINE
8
BLACK
6
CONTINUOUS
10
2.94481
20
-2.511
11
2.95711
21
-2.52661
0
LINE
8
BLACK
6
CONTINUOUS
10
2.95711
20
-2.52661
11
2.9706
21
-2.54121
0
LINE
8
BLACK
6
CONTINUOUS
10
2.9706
20
-2.54121
11
2.9852
21
-2.5547
0
LINE
8
BLACK
6
CONTINUOUS
10
2.9852
20
-2.5547
11
3.00081
21
-2.56701
0
LINE
8
BLACK
6
CONTINUOUS
10
3.00081
20
-2.56701
11
3.01734
21
-2.57805
0
LINE
8
BLACK
6
CONTINUOUS
10
3.01734
20
-2.57805
11
3.03468
21
-2.58776
0
LINE
8
BLACK
6
CONTINUOUS
10
3.03468
20
-2.58776
11
3.05273
21
-2.59608
0
LINE
8
BLACK
6
CONTINUOUS
10
3.05273
20
-2.59608
11
3.06175
21
-2.59941
0
LINE
8
BLACK
6
CONTINUOUS
10
3.06175
20
-2.59941
11
3.12992
21
-2.59941
0
LINE
8
BLACK
6
CONTINUOUS
10
3.12992
20
-2.59941
11
3.13093
21
-2.59959
0
LINE
8
BLACK
6
CONTINUOUS
10
3.13093
20
-2.59959
11
3.13248
21
-2.60089
0
LINE
8
BLACK
6
CONTINUOUS
10
3.13248
20
-2.60089
11
3.13283
21
-2.60287
0
LINE
8
BLACK
6
CONTINUOUS
10
3.13283
20
-2.60287
11
3.13182
21
-2.60462
0
LINE
8
BLACK
6
CONTINUOUS
10
3.13182
20
-2.60462
11
3.12992
21
-2.60531
0
LINE
8
BLACK
6
CONTINUOUS
10
3.12992
20
-2.60531
11
3.07972
21
-2.60531
0
LINE
8
BLACK
6
CONTINUOUS
10
3.07972
20
-2.60531
11
3.09051
21
-2.60836
0
LINE
8
BLACK
6
CONTINUOUS
10
3.09051
20
-2.60836
11
3.11001
21
-2.61224
0
LINE
8
BLACK
6
CONTINUOUS
10
3.11001
20
-2.61224
11
3.12974
21
-2.61457
0
LINE
8
BLACK
6
CONTINUOUS
10
3.12974
20
-2.61457
11
3.14961
21
-2.61535
0
LINE
8
BLACK
6
CONTINUOUS
10
3.14961
20
-2.61535
11
3.16947
21
-2.61457
0
LINE
8
BLACK
6
CONTINUOUS
10
3.16947
20
-2.61457
11
3.18921
21
-2.61224
0
LINE
8
BLACK
6
CONTINUOUS
10
3.18921
20
-2.61224
11
3.2087
21
-2.60836
0
LINE
8
BLACK
6
CONTINUOUS
10
3.2087
20
-2.60836
11
3.22783
21
-2.60296
0
LINE
8
BLACK
6
CONTINUOUS
10
3.22783
20
-2.60296
11
3.24648
21
-2.59608
0
LINE
8
BLACK
6
CONTINUOUS
10
3.24648
20
-2.59608
11
3.26453
21
-2.58776
0
LINE
8
BLACK
6
CONTINUOUS
10
3.26453
20
-2.58776
11
3.28188
21
-2.57805
0
LINE
8
BLACK
6
CONTINUOUS
10
3.28188
20
-2.57805
11
3.2984
21
-2.56701
0
LINE
8
BLACK
6
CONTINUOUS
10
3.2984
20
-2.56701
11
3.31401
21
-2.5547
0
LINE
8
BLACK
6
CONTINUOUS
10
3.31401
20
-2.5547
11
3.32861
21
-2.54121
0
LINE
8
BLACK
6
CONTINUOUS
10
3.32861
20
-2.54121
11
3.3421
21
-2.52661
0
LINE
8
BLACK
6
CONTINUOUS
10
3.3421
20
-2.52661
11
3.35441
21
-2.511
0
LINE
8
BLACK
6
CONTINUOUS
10
3.35441
20
-2.511
11
3.36545
21
-2.49447
0
LINE
8
BLACK
6
CONTINUOUS
10
3.36545
20
-2.49447
11
3.37516
21
-2.47713
0
LINE
8
BLACK
6
CONTINUOUS
10
3.37516
20
-2.47713
11
3.38348
21
-2.45908
0
LINE
8
BLACK
6
CONTINUOUS
10
3.38348
20
-2.45908
11
3.39036
21
-2.44043
0
LINE
8
BLACK
6
CONTINUOUS
10
3.39036
20
-2.44043
11
3.39576
21
-2.4213
0
LINE
8
BLACK
6
CONTINUOUS
10
3.39576
20
-2.4213
11
3.39964
21
-2.40181
0
LINE
8
BLACK
6
CONTINUOUS
10
3.39964
20
-2.40181
11
3.40197
21
-2.38207
0
LINE
8
BLACK
6
CONTINUOUS
10
3.40197
20
-2.38207
11
3.40275
21
-2.3622
0
LINE
8
BLACK
6
CONTINUOUS
10
3.40275
20
-2.3622
11
3.40197
21
-2.34234
0
LINE
8
BLACK
6
CONTINUOUS
10
3.40197
20
-2.34234
11
3.39964
21
-2.3226
0
LINE
8
BLACK
6
CONTINUOUS
10
3.39964
20
-2.3226
11
3.39576
21
-2.30311
0
LINE
8
BLACK
6
CONTINUOUS
10
3.39576
20
-2.30311
11
3.39036
21
-2.28398
0
LINE
8
BLACK
6
CONTINUOUS
10
3.39036
20
-2.28398
11
3.38348
21
-2.26533
0
LINE
8
BLACK
6
CONTINUOUS
10
3.38348
20
-2.26533
11
3.37516
21
-2.24728
0
LINE
8
BLACK
6
CONTINUOUS
10
3.37516
20
-2.24728
11
3.36545
21
-2.22994
0
LINE
8
BLACK
6
CONTINUOUS
10
3.36545
20
-2.22994
11
3.35441
21
-2.21341
0
LINE
8
BLACK
6
CONTINUOUS
10
3.35441
20
-2.21341
11
3.3421
21
-2.1978
0
LINE
8
BLACK
6
CONTINUOUS
10
3.3421
20
-2.1978
11
3.32861
21
-2.1832
0
LINE
8
BLACK
6
CONTINUOUS
10
3.32861
20
-2.1832
11
3.31401
21
-2.16971
0
LINE
8
BLACK
6
CONTINUOUS
10
3.31401
20
-2.16971
11
3.2984
21
-2.1574
0
LINE
8
BLACK
6
CONTINUOUS
10
3.2984
20
-2.1574
11
3.28188
21
-2.14636
0
LINE
8
BLACK
6
CONTINUOUS
10
3.28188
20
-2.14636
11
3.26453
21
-2.13665
0
LINE
8
BLACK
6
CONTINUOUS
10
3.26453
20
-2.13665
11
3.24648
21
-2.12833
0
LINE
8
BLACK
6
CONTINUOUS
10
3.24648
20
-2.12833
11
3.22783
21
-2.12145
0
LINE
8
BLACK
6
CONTINUOUS
10
3.22783
20
-2.12145
11
3.2087
21
-2.11605
0
LINE
8
BLACK
6
CONTINUOUS
10
3.2087
20
-2.11605
11
3.18921
21
-2.11217
0
LINE
8
BLACK
6
CONTINUOUS
10
3.18921
20
-2.11217
11
3.16947
21
-2.10984
0
LINE
8
BLACK
6
CONTINUOUS
10
3.16947
20
-2.10984
11
3.15256
21
-2.10917
0
LINE
8
BLACK
6
CONTINUOUS
10
3.15256
20
-2.10917
11
3.15256
21
-2.34252
0
LINE
8
BLACK
6
CONTINUOUS
10
3.15256
20
-2.34252
11
3.15238
21
-2.34353
0
LINE
8
BLACK
6
CONTINUOUS
10
3.15238
20
-2.34353
11
3.15108
21
-2.34508
0
LINE
8
BLACK
6
CONTINUOUS
10
3.15108
20
-2.34508
11
3.14909
21
-2.34543
0
LINE
8
BLACK
6
CONTINUOUS
10
3.14909
20
-2.34543
11
3.14734
21
-2.34442
0
LINE
8
BLACK
6
CONTINUOUS
10
3.14734
20
-2.34442
11
3.14665
21
-2.34252
0
LINE
8
BLACK
6
CONTINUOUS
10
3.14665
20
-2.34252
11
3.14665
21
-2.10917
0
LINE
8
BLACK
6
CONTINUOUS
10
3.14665
20
-2.10917
11
3.12974
21
-2.10984
0
LINE
8
BLACK
6
CONTINUOUS
10
3.12974
20
-2.10984
11
3.11001
21
-2.11217
0
LINE
8
BLACK
6
CONTINUOUS
10
3.11001
20
-2.11217
11
3.09051
21
-2.11605
0
LINE
8
BLACK
6
CONTINUOUS
10
3.09051
20
-2.11605
11
3.07972
21
-2.11909
0
LINE
8
BLACK
6
CONTINUOUS
10
3.07972
20
-2.11909
11
3.12992
21
-2.11909
0
LINE
8
BLACK
6
CONTINUOUS
10
3.12992
20
-2.11909
11
3.13093
21
-2.11927
0
LINE
8
BLACK
6
CONTINUOUS
10
3.13093
20
-2.11927
11
3.13248
21
-2.12057
0
LINE
8
BLACK
6
CONTINUOUS
10
3.13248
20
-2.12057
11
3.13283
21
-2.12256
0
LINE
8
BLACK
6
CONTINUOUS
10
3.13283
20
-2.12256
11
3.13182
21
-2.12431
0
LINE
8
BLACK
6
CONTINUOUS
10
3.13182
20
-2.12431
11
3.12992
21
-2.125
0
LINE
8
BLACK
6
CONTINUOUS
10
3.12992
20
-2.125
11
3.06175
21
-2.125
0
LINE
8
BLACK
6
CONTINUOUS
10
3.06175
20
-2.125
11
3.05273
21
-2.12833
0
LINE
8
BLACK
6
CONTINUOUS
10
3.05273
20
-2.12833
11
3.03468
21
-2.13665
0
LINE
8
BLACK
6
CONTINUOUS
10
3.03468
20
-2.13665
11
3.01734
21
-2.14636
0
LINE
8
BLACK
6
CONTINUOUS
10
3.01734
20
-2.14636
11
3.00081
21
-2.1574
0
LINE
8
BLACK
6
CONTINUOUS
10
3.00081
20
-2.1574
11
2.9852
21
-2.16971
0
LINE
8
BLACK
6
CONTINUOUS
10
2.9852
20
-2.16971
11
2.9706
21
-2.1832
0
LINE
8
BLACK
6
CONTINUOUS
10
2.9706
20
-2.1832
11
2.95711
21
-2.1978
0
LINE
8
BLACK
6
CONTINUOUS
10
2.95711
20
-2.1978
11
2.94481
21
-2.21341
0
LINE
8
BLACK
6
CONTINUOUS
10
2.94481
20
-2.21341
11
2.93376
21
-2.22994
0
LINE
8
BLACK
6
CONTINUOUS
10
2.93376
20
-2.22994
11
2.92405
21
-2.24728
0
LINE
8
BLACK
6
CONTINUOUS
10
2.92405
20
-2.24728
11
2.91573
21
-2.26533
0
LINE
8
BLACK
6
CONTINUOUS
10
2.91573
20
-2.26533
11
2.90885
21
-2.28398
0
LINE
8
BLACK
6
CONTINUOUS
10
2.90885
20
-2.28398
11
2.90345
21
-2.30311
0
LINE
8
BLACK
6
CONTINUOUS
10
2.90345
20
-2.30311
11
2.89958
21
-2.3226
0
LINE
8
BLACK
6
CONTINUOUS
10
2.89958
20
-2.3226
11
2.89724
21
-2.34234
0
LINE
8
BLACK
6
CONTINUOUS
10
2.89724
20
-2.34234
11
2.89646
21
-2.3622
0
LINE
8
BLACK
6
CONTINUOUS
10
2.89646
20
-2.3622
11
2.89724
21
-2.38207
0
LINE
8
BLACK
6
CONTINUOUS
10
3.23404
20
-2.88127
11
3.23431
21
-2.8815
0
LINE
8
BLACK
6
CONTINUOUS
10
3.23431
20
-2.8815
11
3.23465
21
-2.88158
0
LINE
8
BLACK
6
CONTINUOUS
10
3.23465
20
-2.88158
11
3.23506
21
-2.88213
0
LINE
8
BLACK
6
CONTINUOUS
10
3.23506
20
-2.88213
11
3.23559
21
-2.88257
0
LINE
8
BLACK
6
CONTINUOUS
10
3.23559
20
-2.88257
11
3.23565
21
-2.88292
0
LINE
8
BLACK
6
CONTINUOUS
10
3.23565
20
-2.88292
11
3.23586
21
-2.88319
0
LINE
8
BLACK
6
CONTINUOUS
10
3.23586
20
-2.88319
11
3.23582
21
-2.88388
0
LINE
8
BLACK
6
CONTINUOUS
10
3.23582
20
-2.88388
11
3.23594
21
-2.88456
0
LINE
8
BLACK
6
CONTINUOUS
10
3.23594
20
-2.88456
11
3.23577
21
-2.88486
0
LINE
8
BLACK
6
CONTINUOUS
10
3.23577
20
-2.88486
11
3.23575
21
-2.88521
0
LINE
8
BLACK
6
CONTINUOUS
10
3.23575
20
-2.88521
11
3.21887
21
-2.92458
0
LINE
8
BLACK
6
CONTINUOUS
10
3.21887
20
-2.92458
11
3.21831
21
-2.92544
0
LINE
8
BLACK
6
CONTINUOUS
10
3.21831
20
-2.92544
11
3.21651
21
-2.92635
0
LINE
8
BLACK
6
CONTINUOUS
10
3.21651
20
-2.92635
11
3.21454
21
-2.92589
0
LINE
8
BLACK
6
CONTINUOUS
10
3.21454
20
-2.92589
11
3.21333
21
-2.92427
0
LINE
8
BLACK
6
CONTINUOUS
10
3.21333
20
-2.92427
11
3.21345
21
-2.92225
0
LINE
8
BLACK
6
CONTINUOUS
10
3.21345
20
-2.92225
11
3.22856
21
-2.887
0
LINE
8
BLACK
6
CONTINUOUS
10
3.22856
20
-2.887
11
3.20679
21
-2.887
0
LINE
8
BLACK
6
CONTINUOUS
10
3.20679
20
-2.887
11
3.20578
21
-2.88682
0
LINE
8
BLACK
6
CONTINUOUS
10
3.20578
20
-2.88682
11
3.20423
21
-2.88552
0
LINE
8
BLACK
6
CONTINUOUS
10
3.20423
20
-2.88552
11
3.20388
21
-2.88354
0
LINE
8
BLACK
6
CONTINUOUS
10
3.20388
20
-2.88354
11
3.20489
21
-2.88179
0
LINE
8
BLACK
6
CONTINUOUS
10
3.20489
20
-2.88179
11
3.20679
21
-2.8811
0
LINE
8
BLACK
6
CONTINUOUS
10
3.20679
20
-2.8811
11
3.23303
21
-2.8811
0
LINE
8
BLACK
6
CONTINUOUS
10
3.23303
20
-2.8811
11
3.23404
21
-2.88127
0
LINE
8
BLACK
6
CONTINUOUS
10
3.29029
20
-2.8944
11
3.29042
21
-2.89451
0
LINE
8
BLACK
6
CONTINUOUS
10
3.29042
20
-2.89451
11
3.2906
21
-2.89453
0
LINE
8
BLACK
6
CONTINUOUS
10
3.2906
20
-2.89453
11
3.29435
21
-2.89641
0
LINE
8
BLACK
6
CONTINUOUS
10
3.29435
20
-2.89641
11
3.29492
21
-2.89683
0
LINE
8
BLACK
6
CONTINUOUS
10
3.29492
20
-2.89683
11
3.29515
21
-2.89673
0
LINE
8
BLACK
6
CONTINUOUS
10
3.29515
20
-2.89673
11
3.29545
21
-2.89641
0
LINE
8
BLACK
6
CONTINUOUS
10
3.29545
20
-2.89641
11
3.2992
21
-2.89453
0
LINE
8
BLACK
6
CONTINUOUS
10
3.2992
20
-2.89453
11
3.30019
21
-2.89424
0
LINE
8
BLACK
6
CONTINUOUS
10
3.30019
20
-2.89424
11
3.30036
21
-2.89428
0
LINE
8
BLACK
6
CONTINUOUS
10
3.30036
20
-2.89428
11
3.30052
21
-2.89422
0
LINE
8
BLACK
6
CONTINUOUS
10
3.30052
20
-2.89422
11
3.30615
21
-2.89422
0
LINE
8
BLACK
6
CONTINUOUS
10
3.30615
20
-2.89422
11
3.30716
21
-2.8944
0
LINE
8
BLACK
6
CONTINUOUS
10
3.30716
20
-2.8944
11
3.30729
21
-2.89451
0
LINE
8
BLACK
6
CONTINUOUS
10
3.30729
20
-2.89451
11
3.30747
21
-2.89453
0
LINE
8
BLACK
6
CONTINUOUS
10
3.30747
20
-2.89453
11
3.31122
21
-2.89641
0
LINE
8
BLACK
6
CONTINUOUS
10
3.31122
20
-2.89641
11
3.31204
21
-2.89702
0
LINE
8
BLACK
6
CONTINUOUS
10
3.31204
20
-2.89702
11
3.31222
21
-2.89742
0
LINE
8
BLACK
6
CONTINUOUS
10
3.31222
20
-2.89742
11
3.31254
21
-2.89773
0
LINE
8
BLACK
6
CONTINUOUS
10
3.31254
20
-2.89773
11
3.31441
21
-2.90148
0
LINE
8
BLACK
6
CONTINUOUS
10
3.31441
20
-2.90148
11
3.31471
21
-2.90246
0
LINE
8
BLACK
6
CONTINUOUS
10
3.31471
20
-2.90246
11
3.31467
21
-2.90263
0
LINE
8
BLACK
6
CONTINUOUS
10
3.31467
20
-2.90263
11
3.31473
21
-2.9028
0
LINE
8
BLACK
6
CONTINUOUS
10
3.31473
20
-2.9028
11
3.31473
21
-2.92342
0
LINE
8
BLACK
6
CONTINUOUS
10
3.31473
20
-2.92342
11
3.31455
21
-2.92443
0
LINE
8
BLACK
6
CONTINUOUS
10
3.31455
20
-2.92443
11
3.31325
21
-2.92598
0
LINE
8
BLACK
6
CONTINUOUS
10
3.31325
20
-2.92598
11
3.31126
21
-2.92633
0
LINE
8
BLACK
6
CONTINUOUS
10
3.31126
20
-2.92633
11
3.30951
21
-2.92532
0
LINE
8
BLACK
6
CONTINUOUS
10
3.30951
20
-2.92532
11
3.30882
21
-2.92342
0
LINE
8
BLACK
6
CONTINUOUS
10
3.30882
20
-2.92342
11
3.30882
21
-2.90349
0
LINE
8
BLACK
6
CONTINUOUS
10
3.30882
20
-2.90349
11
3.3077
21
-2.90125
0
LINE
8
BLACK
6
CONTINUOUS
10
3.3077
20
-2.90125
11
3.30545
21
-2.90012
0
LINE
8
BLACK
6
CONTINUOUS
10
3.30545
20
-2.90012
11
3.30122
21
-2.90012
0
LINE
8
BLACK
6
CONTINUOUS
10
3.30122
20
-2.90012
11
3.29898
21
-2.90125
0
LINE
8
BLACK
6
CONTINUOUS
10
3.29898
20
-2.90125
11
3.29785
21
-2.90349
0
LINE
8
BLACK
6
CONTINUOUS
10
3.29785
20
-2.90349
11
3.29785
21
-2.92342
0
LINE
8
BLACK
6
CONTINUOUS
10
3.29785
20
-2.92342
11
3.29768
21
-2.92443
0
LINE
8
BLACK
6
CONTINUOUS
10
3.29768
20
-2.92443
11
3.29638
21
-2.92598
0
LINE
8
BLACK
6
CONTINUOUS
10
3.29638
20
-2.92598
11
3.29439
21
-2.92633
0
LINE
8
BLACK
6
CONTINUOUS
10
3.29439
20
-2.92633
11
3.29264
21
-2.92532
0
LINE
8
BLACK
6
CONTINUOUS
10
3.29264
20
-2.92532
11
3.29195
21
-2.92342
0
LINE
8
BLACK
6
CONTINUOUS
10
3.29195
20
-2.92342
11
3.29195
21
-2.90349
0
LINE
8
BLACK
6
CONTINUOUS
10
3.29195
20
-2.90349
11
3.29082
21
-2.90125
0
LINE
8
BLACK
6
CONTINUOUS
10
3.29082
20
-2.90125
11
3.28858
21
-2.90012
0
LINE
8
BLACK
6
CONTINUOUS
10
3.28858
20
-2.90012
11
3.28435
21
-2.90012
0
LINE
8
BLACK
6
CONTINUOUS
10
3.28435
20
-2.90012
11
3.28165
21
-2.90147
0
LINE
8
BLACK
6
CONTINUOUS
10
3.28165
20
-2.90147
11
3.28098
21
-2.90214
0
LINE
8
BLACK
6
CONTINUOUS
10
3.28098
20
-2.90214
11
3.28098
21
-2.92342
0
LINE
8
BLACK
6
CONTINUOUS
10
3.28098
20
-2.92342
11
3.2808
21
-2.92443
0
LINE
8
BLACK
6
CONTINUOUS
10
3.2808
20
-2.92443
11
3.2795
21
-2.92598
0
LINE
8
BLACK
6
CONTINUOUS
10
3.2795
20
-2.92598
11
3.27751
21
-2.92633
0
LINE
8
BLACK
6
CONTINUOUS
10
3.27751
20
-2.92633
11
3.27577
21
-2.92532
0
LINE
8
BLACK
6
CONTINUOUS
10
3.27577
20
-2.92532
11
3.27507
21
-2.92342
0
LINE
8
BLACK
6
CONTINUOUS
10
3.27507
20
-2.92342
11
3.27507
21
-2.89717
0
LINE
8
BLACK
6
CONTINUOUS
10
3.27507
20
-2.89717
11
3.27525
21
-2.89616
0
LINE
8
BLACK
6
CONTINUOUS
10
3.27525
20
-2.89616
11
3.27655
21
-2.89461
0
LINE
8
BLACK
6
CONTINUOUS
10
3.27655
20
-2.89461
11
3.27854
21
-2.89426
0
LINE
8
BLACK
6
CONTINUOUS
10
3.27854
20
-2.89426
11
3.28029
21
-2.89527
0
LINE
8
BLACK
6
CONTINUOUS
10
3.28029
20
-2.89527
11
3.28038
21
-2.89551
0
LINE
8
BLACK
6
CONTINUOUS
10
3.28038
20
-2.89551
11
3.28233
21
-2.89453
0
LINE
8
BLACK
6
CONTINUOUS
10
3.28233
20
-2.89453
11
3.28331
21
-2.89424
0
LINE
8
BLACK
6
CONTINUOUS
10
3.28331
20
-2.89424
11
3.28349
21
-2.89428
0
LINE
8
BLACK
6
CONTINUOUS
10
3.28349
20
-2.89428
11
3.28365
21
-2.89422
0
LINE
8
BLACK
6
CONTINUOUS
10
3.28365
20
-2.89422
11
3.28928
21
-2.89422
0
LINE
8
BLACK
6
CONTINUOUS
10
3.28928
20
-2.89422
11
3.29029
21
-2.8944
0
LINE
8
BLACK
6
CONTINUOUS
10
3.34278
20
-2.8944
11
3.34291
21
-2.89451
0
LINE
8
BLACK
6
CONTINUOUS
10
3.34291
20
-2.89451
11
3.34309
21
-2.89453
0
LINE
8
BLACK
6
CONTINUOUS
10
3.34309
20
-2.89453
11
3.34684
21
-2.89641
0
LINE
8
BLACK
6
CONTINUOUS
10
3.34684
20
-2.89641
11
3.34741
21
-2.89683
0
LINE
8
BLACK
6
CONTINUOUS
10
3.34741
20
-2.89683
11
3.34764
21
-2.89673
0
LINE
8
BLACK
6
CONTINUOUS
10
3.34764
20
-2.89673
11
3.34795
21
-2.89641
0
LINE
8
BLACK
6
CONTINUOUS
10
3.34795
20
-2.89641
11
3.3517
21
-2.89453
0
LINE
8
BLACK
6
CONTINUOUS
10
3.3517
20
-2.89453
11
3.35268
21
-2.89424
0
LINE
8
BLACK
6
CONTINUOUS
10
3.35268
20
-2.89424
11
3.35285
21
-2.89428
0
LINE
8
BLACK
6
CONTINUOUS
10
3.35285
20
-2.89428
11
3.35302
21
-2.89422
0
LINE
8
BLACK
6
CONTINUOUS
10
3.35302
20
-2.89422
11
3.35864
21
-2.89422
0
LINE
8
BLACK
6
CONTINUOUS
10
3.35864
20
-2.89422
11
3.35965
21
-2.8944
0
LINE
8
BLACK
6
CONTINUOUS
10
3.35965
20
-2.8944
11
3.35979
21
-2.89451
0
LINE
8
BLACK
6
CONTINUOUS
10
3.35979
20
-2.89451
11
3.35996
21
-2.89453
0
LINE
8
BLACK
6
CONTINUOUS
10
3.35996
20
-2.89453
11
3.36371
21
-2.89641
0
LINE
8
BLACK
6
CONTINUOUS
10
3.36371
20
-2.89641
11
3.36454
21
-2.89702
0
LINE
8
BLACK
6
CONTINUOUS
10
3.36454
20
-2.89702
11
3.36471
21
-2.89742
0
LINE
8
BLACK
6
CONTINUOUS
10
3.36471
20
-2.89742
11
3.36503
21
-2.89773
0
LINE
8
BLACK
6
CONTINUOUS
10
3.36503
20
-2.89773
11
3.36691
21
-2.90148
0
LINE
8
BLACK
6
CONTINUOUS
10
3.36691
20
-2.90148
11
3.3672
21
-2.90246
0
LINE
8
BLACK
6
CONTINUOUS
10
3.3672
20
-2.90246
11
3.36716
21
-2.90263
0
LINE
8
BLACK
6
CONTINUOUS
10
3.36716
20
-2.90263
11
3.36722
21
-2.9028
0
LINE
8
BLACK
6
CONTINUOUS
10
3.36722
20
-2.9028
11
3.36722
21
-2.92342
0
LINE
8
BLACK
6
CONTINUOUS
10
3.36722
20
-2.92342
11
3.36704
21
-2.92443
0
LINE
8
BLACK
6
CONTINUOUS
10
3.36704
20
-2.92443
11
3.36574
21
-2.92598
0
LINE
8
BLACK
6
CONTINUOUS
10
3.36574
20
-2.92598
11
3.36375
21
-2.92633
0
LINE
8
BLACK
6
CONTINUOUS
10
3.36375
20
-2.92633
11
3.36201
21
-2.92532
0
LINE
8
BLACK
6
CONTINUOUS
10
3.36201
20
-2.92532
11
3.36131
21
-2.92342
0
LINE
8
BLACK
6
CONTINUOUS
10
3.36131
20
-2.92342
11
3.36131
21
-2.90349
0
LINE
8
BLACK
6
CONTINUOUS
10
3.36131
20
-2.90349
11
3.36019
21
-2.90125
0
LINE
8
BLACK
6
CONTINUOUS
10
3.36019
20
-2.90125
11
3.35795
21
-2.90012
0
LINE
8
BLACK
6
CONTINUOUS
10
3.35795
20
-2.90012
11
3.35372
21
-2.90012
0
LINE
8
BLACK
6
CONTINUOUS
10
3.35372
20
-2.90012
11
3.35147
21
-2.90125
0
LINE
8
BLACK
6
CONTINUOUS
10
3.35147
20
-2.90125
11
3.35035
21
-2.90349
0
LINE
8
BLACK
6
CONTINUOUS
10
3.35035
20
-2.90349
11
3.35035
21
-2.92342
0
LINE
8
BLACK
6
CONTINUOUS
10
3.35035
20
-2.92342
11
3.35017
21
-2.92443
0
LINE
8
BLACK
6
CONTINUOUS
10
3.35017
20
-2.92443
11
3.34887
21
-2.92598
0
LINE
8
BLACK
6
CONTINUOUS
10
3.34887
20
-2.92598
11
3.34688
21
-2.92633
0
LINE
8
BLACK
6
CONTINUOUS
10
3.34688
20
-2.92633
11
3.34513
21
-2.92532
0
LINE
8
BLACK
6
CONTINUOUS
10
3.34513
20
-2.92532
11
3.34444
21
-2.92342
0
LINE
8
BLACK
6
CONTINUOUS
10
3.34444
20
-2.92342
11
3.34444
21
-2.90349
0
LINE
8
BLACK
6
CONTINUOUS
10
3.34444
20
-2.90349
11
3.34332
21
-2.90125
0
LINE
8
BLACK
6
CONTINUOUS
10
3.34332
20
-2.90125
11
3.34107
21
-2.90012
0
LINE
8
BLACK
6
CONTINUOUS
10
3.34107
20
-2.90012
11
3.33684
21
-2.90012
0
LINE
8
BLACK
6
CONTINUOUS
10
3.33684
20
-2.90012
11
3.33415
21
-2.90147
0
LINE
8
BLACK
6
CONTINUOUS
10
3.33415
20
-2.90147
11
3.33347
21
-2.90214
0
LINE
8
BLACK
6
CONTINUOUS
10
3.33347
20
-2.90214
11
3.33347
21
-2.92342
0
LINE
8
BLACK
6
CONTINUOUS
10
3.33347
20
-2.92342
11
3.3333
21
-2.92443
0
LINE
8
BLACK
6
CONTINUOUS
10
3.3333
20
-2.92443
11
3.332
21
-2.92598
0
LINE
8
BLACK
6
CONTINUOUS
10
3.332
20
-2.92598
11
3.33001
21
-2.92633
0
LINE
8
BLACK
6
CONTINUOUS
10
3.33001
20
-2.92633
11
3.32826
21
-2.92532
0
LINE
8
BLACK
6
CONTINUOUS
10
3.32826
20
-2.92532
11
3.32757
21
-2.92342
0
LINE
8
BLACK
6
CONTINUOUS
10
3.32757
20
-2.92342
11
3.32757
21
-2.89717
0
LINE
8
BLACK
6
CONTINUOUS
10
3.32757
20
-2.89717
11
3.32775
21
-2.89616
0
LINE
8
BLACK
6
CONTINUOUS
10
3.32775
20
-2.89616
11
3.32904
21
-2.89461
0
LINE
8
BLACK
6
CONTINUOUS
10
3.32904
20
-2.89461
11
3.33103
21
-2.89426
0
LINE
8
BLACK
6
CONTINUOUS
10
3.33103
20
-2.89426
11
3.33278
21
-2.89527
0
LINE
8
BLACK
6
CONTINUOUS
10
3.33278
20
-2.89527
11
3.33287
21
-2.89551
0
LINE
8
BLACK
6
CONTINUOUS
10
3.33287
20
-2.89551
11
3.33482
21
-2.89453
0
LINE
8
BLACK
6
CONTINUOUS
10
3.33482
20
-2.89453
11
3.33581
21
-2.89424
0
LINE
8
BLACK
6
CONTINUOUS
10
3.33581
20
-2.89424
11
3.33598
21
-2.89428
0
LINE
8
BLACK
6
CONTINUOUS
10
3.33598
20
-2.89428
11
3.33615
21
-2.89422
0
LINE
8
BLACK
6
CONTINUOUS
10
3.33615
20
-2.89422
11
3.34177
21
-2.89422
0
LINE
8
BLACK
6
CONTINUOUS
10
3.34177
20
-2.89422
11
3.34278
21
-2.8944
0
LINE
8
BLACK
6
CONTINUOUS
10
2.30758
20
-2.4344
11
2.30765
21
-2.43439
0
LINE
8
BLACK
6
CONTINUOUS
10
2.30765
20
-2.43439
11
2.31327
21
-2.43627
0
LINE
8
BLACK
6
CONTINUOUS
10
2.31327
20
-2.43627
11
2.31417
21
-2.43676
0
LINE
8
BLACK
6
CONTINUOUS
10
2.31417
20
-2.43676
11
2.31427
21
-2.43691
0
LINE
8
BLACK
6
CONTINUOUS
10
2.31427
20
-2.43691
11
2.31443
21
-2.43698
0
LINE
8
BLACK
6
CONTINUOUS
10
2.31443
20
-2.43698
11
2.33188
21
-2.45444
0
LINE
8
BLACK
6
CONTINUOUS
10
2.33188
20
-2.45444
11
2.33188
21
-2.4372
0
LINE
8
BLACK
6
CONTINUOUS
10
2.33188
20
-2.4372
11
2.33206
21
-2.43619
0
LINE
8
BLACK
6
CONTINUOUS
10
2.33206
20
-2.43619
11
2.33336
21
-2.43464
0
LINE
8
BLACK
6
CONTINUOUS
10
2.33336
20
-2.43464
11
2.33535
21
-2.43429
0
LINE
8
BLACK
6
CONTINUOUS
10
2.33535
20
-2.43429
11
2.3371
21
-2.4353
0
LINE
8
BLACK
6
CONTINUOUS
10
2.3371
20
-2.4353
11
2.33779
21
-2.4372
0
LINE
8
BLACK
6
CONTINUOUS
10
2.33779
20
-2.4372
11
2.33779
21
-2.46157
0
LINE
8
BLACK
6
CONTINUOUS
10
2.33779
20
-2.46157
11
2.33768
21
-2.4622
0
LINE
8
BLACK
6
CONTINUOUS
10
2.33768
20
-2.4622
11
2.33769
21
-2.46233
0
LINE
8
BLACK
6
CONTINUOUS
10
2.33769
20
-2.46233
11
2.33764
21
-2.4624
0
LINE
8
BLACK
6
CONTINUOUS
10
2.33764
20
-2.4624
11
2.33761
21
-2.46258
0
LINE
8
BLACK
6
CONTINUOUS
10
2.33761
20
-2.46258
11
2.33704
21
-2.46326
0
LINE
8
BLACK
6
CONTINUOUS
10
2.33704
20
-2.46326
11
2.33653
21
-2.46399
0
LINE
8
BLACK
6
CONTINUOUS
10
2.33653
20
-2.46399
11
2.3364
21
-2.46402
0
LINE
8
BLACK
6
CONTINUOUS
10
2.3364
20
-2.46402
11
2.33631
21
-2.46412
0
LINE
8
BLACK
6
CONTINUOUS
10
2.33631
20
-2.46412
11
2.33544
21
-2.46428
0
LINE
8
BLACK
6
CONTINUOUS
10
2.33544
20
-2.46428
11
2.33458
21
-2.46451
0
LINE
8
BLACK
6
CONTINUOUS
10
2.33458
20
-2.46451
11
2.33446
21
-2.46445
0
LINE
8
BLACK
6
CONTINUOUS
10
2.33446
20
-2.46445
11
2.33432
21
-2.46448
0
LINE
8
BLACK
6
CONTINUOUS
10
2.33432
20
-2.46448
11
2.33355
21
-2.46403
0
LINE
8
BLACK
6
CONTINUOUS
10
2.33355
20
-2.46403
11
2.33275
21
-2.46366
0
LINE
8
BLACK
6
CONTINUOUS
10
2.33275
20
-2.46366
11
2.31074
21
-2.44165
0
LINE
8
BLACK
6
CONTINUOUS
10
2.31074
20
-2.44165
11
2.30623
21
-2.44015
0
LINE
8
BLACK
6
CONTINUOUS
10
2.30623
20
-2.44015
11
2.30366
21
-2.44015
0
LINE
8
BLACK
6
CONTINUOUS
10
2.30366
20
-2.44015
11
2.30096
21
-2.4415
0
LINE
8
BLACK
6
CONTINUOUS
10
2.30096
20
-2.4415
11
2.29977
21
-2.44269
0
LINE
8
BLACK
6
CONTINUOUS
10
2.29977
20
-2.44269
11
2.29842
21
-2.44539
0
LINE
8
BLACK
6
CONTINUOUS
10
2.29842
20
-2.44539
11
2.29842
21
-2.45337
0
LINE
8
BLACK
6
CONTINUOUS
10
2.29842
20
-2.45337
11
2.29977
21
-2.45607
0
LINE
8
BLACK
6
CONTINUOUS
10
2.29977
20
-2.45607
11
2.3013
21
-2.4576
0
LINE
8
BLACK
6
CONTINUOUS
10
2.3013
20
-2.4576
11
2.30189
21
-2.45844
0
LINE
8
BLACK
6
CONTINUOUS
10
2.30189
20
-2.45844
11
2.30207
21
-2.46046
0
LINE
8
BLACK
6
CONTINUOUS
10
2.30207
20
-2.46046
11
2.30091
21
-2.46211
0
LINE
8
BLACK
6
CONTINUOUS
10
2.30091
20
-2.46211
11
2.29896
21
-2.46263
0
LINE
8
BLACK
6
CONTINUOUS
10
2.29896
20
-2.46263
11
2.29713
21
-2.46178
0
LINE
8
BLACK
6
CONTINUOUS
10
2.29713
20
-2.46178
11
2.29525
21
-2.45991
0
LINE
8
BLACK
6
CONTINUOUS
10
2.29525
20
-2.45991
11
2.29475
21
-2.45918
0
LINE
8
BLACK
6
CONTINUOUS
10
2.29475
20
-2.45918
11
2.2947
21
-2.45914
0
LINE
8
BLACK
6
CONTINUOUS
10
2.2947
20
-2.45914
11
2.29282
21
-2.45539
0
LINE
8
BLACK
6
CONTINUOUS
10
2.29282
20
-2.45539
11
2.29253
21
-2.45441
0
LINE
8
BLACK
6
CONTINUOUS
10
2.29253
20
-2.45441
11
2.29257
21
-2.45423
0
LINE
8
BLACK
6
CONTINUOUS
10
2.29257
20
-2.45423
11
2.29251
21
-2.45407
0
LINE
8
BLACK
6
CONTINUOUS
10
2.29251
20
-2.45407
11
2.29251
21
-2.44469
0
LINE
8
BLACK
6
CONTINUOUS
10
2.29251
20
-2.44469
11
2.29269
21
-2.44368
0
LINE
8
BLACK
6
CONTINUOUS
10
2.29269
20
-2.44368
11
2.2928
21
-2.44355
0
LINE
8
BLACK
6
CONTINUOUS
10
2.2928
20
-2.44355
11
2.29282
21
-2.44337
0
LINE
8
BLACK
6
CONTINUOUS
10
2.29282
20
-2.44337
11
2.2947
21
-2.43962
0
LINE
8
BLACK
6
CONTINUOUS
10
2.2947
20
-2.43962
11
2.29522
21
-2.43892
0
LINE
8
BLACK
6
CONTINUOUS
10
2.29522
20
-2.43892
11
2.29525
21
-2.43886
0
LINE
8
BLACK
6
CONTINUOUS
10
2.29525
20
-2.43886
11
2.29713
21
-2.43698
0
LINE
8
BLACK
6
CONTINUOUS
10
2.29713
20
-2.43698
11
2.29785
21
-2.43648
0
LINE
8
BLACK
6
CONTINUOUS
10
2.29785
20
-2.43648
11
2.29789
21
-2.43643
0
LINE
8
BLACK
6
CONTINUOUS
10
2.29789
20
-2.43643
11
2.30164
21
-2.43455
0
LINE
8
BLACK
6
CONTINUOUS
10
2.30164
20
-2.43455
11
2.30263
21
-2.43426
0
LINE
8
BLACK
6
CONTINUOUS
10
2.30263
20
-2.43426
11
2.3028
21
-2.4343
0
LINE
8
BLACK
6
CONTINUOUS
10
2.3028
20
-2.4343
11
2.30296
21
-2.43424
0
LINE
8
BLACK
6
CONTINUOUS
10
2.30296
20
-2.43424
11
2.30671
21
-2.43424
0
LINE
8
BLACK
6
CONTINUOUS
10
2.30671
20
-2.43424
11
2.30758
21
-2.4344
0
LINE
8
BLACK
6
CONTINUOUS
10
2.32397
20
-2.39593
11
2.32466
21
-2.39783
0
LINE
8
BLACK
6
CONTINUOUS
10
2.32466
20
-2.39783
11
2.32466
21
-2.4005
0
LINE
8
BLACK
6
CONTINUOUS
10
2.32466
20
-2.4005
11
2.33484
21
-2.4005
0
LINE
8
BLACK
6
CONTINUOUS
10
2.33484
20
-2.4005
11
2.33585
21
-2.40067
0
LINE
8
BLACK
6
CONTINUOUS
10
2.33585
20
-2.40067
11
2.33739
21
-2.40197
0
LINE
8
BLACK
6
CONTINUOUS
10
2.33739
20
-2.40197
11
2.33774
21
-2.40396
0
LINE
8
BLACK
6
CONTINUOUS
10
2.33774
20
-2.40396
11
2.33673
21
-2.40571
0
LINE
8
BLACK
6
CONTINUOUS
10
2.33673
20
-2.40571
11
2.33484
21
-2.4064
0
LINE
8
BLACK
6
CONTINUOUS
10
2.33484
20
-2.4064
11
2.32466
21
-2.4064
0
LINE
8
BLACK
6
CONTINUOUS
10
2.32466
20
-2.4064
11
2.32466
21
-2.4222
0
LINE
8
BLACK
6
CONTINUOUS
10
2.32466
20
-2.4222
11
2.32449
21
-2.42321
0
LINE
8
BLACK
6
CONTINUOUS
10
2.32449
20
-2.42321
11
2.32434
21
-2.42338
0
LINE
8
BLACK
6
CONTINUOUS
10
2.32434
20
-2.42338
11
2.32431
21
-2.4236
0
LINE
8
BLACK
6
CONTINUOUS
10
2.32431
20
-2.4236
11
2.32371
21
-2.42414
0
LINE
8
BLACK
6
CONTINUOUS
10
2.32371
20
-2.42414
11
2.32319
21
-2.42475
0
LINE
8
BLACK
6
CONTINUOUS
10
2.32319
20
-2.42475
11
2.32297
21
-2.42479
0
LINE
8
BLACK
6
CONTINUOUS
10
2.32297
20
-2.42479
11
2.3228
21
-2.42494
0
LINE
8
BLACK
6
CONTINUOUS
10
2.3228
20
-2.42494
11
2.32199
21
-2.42497
0
LINE
8
BLACK
6
CONTINUOUS
10
2.32199
20
-2.42497
11
2.3212
21
-2.42511
0
LINE
8
BLACK
6
CONTINUOUS
10
2.3212
20
-2.42511
11
2.321
21
-2.42499
0
LINE
8
BLACK
6
CONTINUOUS
10
2.321
20
-2.42499
11
2.32078
21
-2.425
0
LINE
8
BLACK
6
CONTINUOUS
10
2.32078
20
-2.425
11
2.29266
21
-2.41562
0
LINE
8
BLACK
6
CONTINUOUS
10
2.29266
20
-2.41562
11
2.29176
21
-2.41514
0
LINE
8
BLACK
6
CONTINUOUS
10
2.29176
20
-2.41514
11
2.2907
21
-2.41342
0
LINE
8
BLACK
6
CONTINUOUS
10
2.2907
20
-2.41342
11
2.29099
21
-2.41142
0
LINE
8
BLACK
6
CONTINUOUS
10
2.29099
20
-2.41142
11
2.29251
21
-2.41008
0
LINE
8
BLACK
6
CONTINUOUS
10
2.29251
20
-2.41008
11
2.29452
21
-2.41002
0
LINE
8
BLACK
6
CONTINUOUS
10
2.29452
20
-2.41002
11
2.31876
21
-2.4181
0
LINE
8
BLACK
6
CONTINUOUS
10
2.31876
20
-2.4181
11
2.31876
21
-2.4064
0
LINE
8
BLACK
6
CONTINUOUS
10
2.31876
20
-2.4064
11
2.30859
21
-2.4064
0
LINE
8
BLACK
6
CONTINUOUS
10
2.30859
20
-2.4064
11
2.30758
21
-2.40622
0
LINE
8
BLACK
6
CONTINUOUS
10
2.30758
20
-2.40622
11
2.30603
21
-2.40493
0
LINE
8
BLACK
6
CONTINUOUS
10
2.30603
20
-2.40493
11
2.30568
21
-2.40294
0
LINE
8
BLACK
6
CONTINUOUS
10
2.30568
20
-2.40294
11
2.30669
21
-2.40119
0
LINE
8
BLACK
6
CONTINUOUS
10
2.30669
20
-2.40119
11
2.30859
21
-2.4005
0
LINE
8
BLACK
6
CONTINUOUS
10
2.30859
20
-2.4005
11
2.31876
21
-2.4005
0
LINE
8
BLACK
6
CONTINUOUS
10
2.31876
20
-2.4005
11
2.31876
21
-2.39783
0
LINE
8
BLACK
6
CONTINUOUS
10
2.31876
20
-2.39783
11
2.31894
21
-2.39682
0
LINE
8
BLACK
6
CONTINUOUS
10
2.31894
20
-2.39682
11
2.32024
21
-2.39527
0
LINE
8
BLACK
6
CONTINUOUS
10
2.32024
20
-2.39527
11
2.32222
21
-2.39492
0
LINE
8
BLACK
6
CONTINUOUS
10
2.32222
20
-2.39492
11
2.32397
21
-2.39593
0
LINE
8
BLACK
6
CONTINUOUS
10
2.33585
20
-2.31631
11
2.33739
21
-2.31761
0
LINE
8
BLACK
6
CONTINUOUS
10
2.33739
20
-2.31761
11
2.33774
21
-2.3196
0
LINE
8
BLACK
6
CONTINUOUS
10
2.33774
20
-2.3196
11
2.33673
21
-2.32135
0
LINE
8
BLACK
6
CONTINUOUS
10
2.33673
20
-2.32135
11
2.33484
21
-2.32204
0
LINE
8
BLACK
6
CONTINUOUS
10
2.33484
20
-2.32204
11
2.31491
21
-2.32204
0
LINE
8
BLACK
6
CONTINUOUS
10
2.31491
20
-2.32204
11
2.31266
21
-2.32316
0
LINE
8
BLACK
6
CONTINUOUS
10
2.31266
20
-2.32316
11
2.31154
21
-2.32541
0
LINE
8
BLACK
6
CONTINUOUS
10
2.31154
20
-2.32541
11
2.31154
21
-2.32964
0
LINE
8
BLACK
6
CONTINUOUS
10
2.31154
20
-2.32964
11
2.31266
21
-2.33188
0
LINE
8
BLACK
6
CONTINUOUS
10
2.31266
20
-2.33188
11
2.31491
21
-2.33301
0
LINE
8
BLACK
6
CONTINUOUS
10
2.31491
20
-2.33301
11
2.33484
21
-2.33301
0
LINE
8
BLACK
6
CONTINUOUS
10
2.33484
20
-2.33301
11
2.33585
21
-2.33318
0
LINE
8
BLACK
6
CONTINUOUS
10
2.33585
20
-2.33318
11
2.33739
21
-2.33448
0
LINE
8
BLACK
6
CONTINUOUS
10
2.33739
20
-2.33448
11
2.33774
21
-2.33647
0
LINE
8
BLACK
6
CONTINUOUS
10
2.33774
20
-2.33647
11
2.33673
21
-2.33822
0
LINE
8
BLACK
6
CONTINUOUS
10
2.33673
20
-2.33822
11
2.33484
21
-2.33891
0
LINE
8
BLACK
6
CONTINUOUS
10
2.33484
20
-2.33891
11
2.31491
21
-2.33891
0
LINE
8
BLACK
6
CONTINUOUS
10
2.31491
20
-2.33891
11
2.31266
21
-2.34003
0
LINE
8
BLACK
6
CONTINUOUS
10
2.31266
20
-2.34003
11
2.31154
21
-2.34228
0
LINE
8
BLACK
6
CONTINUOUS
10
2.31154
20
-2.34228
11
2.31154
21
-2.34651
0
LINE
8
BLACK
6
CONTINUOUS
10
2.31154
20
-2.34651
11
2.31289
21
-2.34921
0
LINE
8
BLACK
6
CONTINUOUS
10
2.31289
20
-2.34921
11
2.31356
21
-2.34988
0
LINE
8
BLACK
6
CONTINUOUS
10
2.31356
20
-2.34988
11
2.33484
21
-2.34988
0
LINE
8
BLACK
6
CONTINUOUS
10
2.33484
20
-2.34988
11
2.33585
21
-2.35006
0
LINE
8
BLACK
6
CONTINUOUS
10
2.33585
20
-2.35006
11
2.33739
21
-2.35135
0
LINE
8
BLACK
6
CONTINUOUS
10
2.33739
20
-2.35135
11
2.33774
21
-2.35334
0
LINE
8
BLACK
6
CONTINUOUS
10
2.33774
20
-2.35334
11
2.33673
21
-2.35509
0
LINE
8
BLACK
6
CONTINUOUS
10
2.33673
20
-2.35509
11
2.33484
21
-2.35578
0
LINE
8
BLACK
6
CONTINUOUS
10
2.33484
20
-2.35578
11
2.30859
21
-2.35578
0
LINE
8
BLACK
6
CONTINUOUS
10
2.30859
20
-2.35578
11
2.30758
21
-2.35561
0
LINE
8
BLACK
6
CONTINUOUS
10
2.30758
20
-2.35561
11
2.30603
21
-2.35431
0
LINE
8
BLACK
6
CONTINUOUS
10
2.30603
20
-2.35431
11
2.30568
21
-2.35232
0
LINE
8
BLACK
6
CONTINUOUS
10
2.30568
20
-2.35232
11
2.30669
21
-2.35057
0
LINE
8
BLACK
6
CONTINUOUS
10
2.30669
20
-2.35057
11
2.30693
21
-2.35048
0
LINE
8
BLACK
6
CONTINUOUS
10
2.30693
20
-2.35048
11
2.30595
21
-2.34853
0
LINE
8
BLACK
6
CONTINUOUS
10
2.30595
20
-2.34853
11
2.30566
21
-2.34754
0
LINE
8
BLACK
6
CONTINUOUS
10
2.30566
20
-2.34754
11
2.3057
21
-2.34737
0
LINE
8
BLACK
6
CONTINUOUS
10
2.3057
20
-2.34737
11
2.30564
21
-2.34721
0
LINE
8
BLACK
6
CONTINUOUS
10
2.30564
20
-2.34721
11
2.30564
21
-2.34158
0
LINE
8
BLACK
6
CONTINUOUS
10
2.30564
20
-2.34158
11
2.30581
21
-2.34057
0
LINE
8
BLACK
6
CONTINUOUS
10
2.30581
20
-2.34057
11
2.30593
21
-2.34044
0
LINE
8
BLACK
6
CONTINUOUS
10
2.30593
20
-2.34044
11
2.30595
21
-2.34026
0
LINE
8
BLACK
6
CONTINUOUS
10
2.30595
20
-2.34026
11
2.30782
21
-2.33651
0
LINE
8
BLACK
6
CONTINUOUS
10
2.30782
20
-2.33651
11
2.30825
21
-2.33594
0
LINE
8
BLACK
6
CONTINUOUS
10
2.30825
20
-2.33594
11
2.30814
21
-2.33571
0
LINE
8
BLACK
6
CONTINUOUS
10
2.30814
20
-2.33571
11
2.30782
21
-2.3354
0
LINE
8
BLACK
6
CONTINUOUS
10
2.30782
20
-2.3354
11
2.30595
21
-2.33165
0
LINE
8
BLACK
6
CONTINUOUS
10
2.30595
20
-2.33165
11
2.30566
21
-2.33067
0
LINE
8
BLACK
6
CONTINUOUS
10
2.30566
20
-2.33067
11
2.3057
21
-2.3305
0
LINE
8
BLACK
6
CONTINUOUS
10
2.3057
20
-2.3305
11
2.30564
21
-2.33033
0
LINE
8
BLACK
6
CONTINUOUS
10
2.30564
20
-2.33033
11
2.30564
21
-2.32471
0
LINE
8
BLACK
6
CONTINUOUS
10
2.30564
20
-2.32471
11
2.30581
21
-2.3237
0
LINE
8
BLACK
6
CONTINUOUS
10
2.30581
20
-2.3237
11
2.30593
21
-2.32356
0
LINE
8
BLACK
6
CONTINUOUS
10
2.30593
20
-2.32356
11
2.30595
21
-2.32339
0
LINE
8
BLACK
6
CONTINUOUS
10
2.30595
20
-2.32339
11
2.30782
21
-2.31964
0
LINE
8
BLACK
6
CONTINUOUS
10
2.30782
20
-2.31964
11
2.30843
21
-2.31882
0
LINE
8
BLACK
6
CONTINUOUS
10
2.30843
20
-2.31882
11
2.30884
21
-2.31864
0
LINE
8
BLACK
6
CONTINUOUS
10
2.30884
20
-2.31864
11
2.30914
21
-2.31832
0
LINE
8
BLACK
6
CONTINUOUS
10
2.30914
20
-2.31832
11
2.31289
21
-2.31644
0
LINE
8
BLACK
6
CONTINUOUS
10
2.31289
20
-2.31644
11
2.31388
21
-2.31615
0
LINE
8
BLACK
6
CONTINUOUS
10
2.31388
20
-2.31615
11
2.31405
21
-2.31619
0
LINE
8
BLACK
6
CONTINUOUS
10
2.31405
20
-2.31619
11
2.31421
21
-2.31613
0
LINE
8
BLACK
6
CONTINUOUS
10
2.31421
20
-2.31613
11
2.33484
21
-2.31613
0
LINE
8
BLACK
6
CONTINUOUS
10
2.33484
20
-2.31613
11
2.33585
21
-2.31631
0
LINE
8
BLACK
6
CONTINUOUS
10
2.33585
20
-2.26382
11
2.33739
21
-2.26512
0
LINE
8
BLACK
6
CONTINUOUS
10
2.33739
20
-2.26512
11
2.33774
21
-2.2671
0
LINE
8
BLACK
6
CONTINUOUS
10
2.33774
20
-2.2671
11
2.33673
21
-2.26885
0
LINE
8
BLACK
6
CONTINUOUS
10
2.33673
20
-2.26885
11
2.33484
21
-2.26954
0
LINE
8
BLACK
6
CONTINUOUS
10
2.33484
20
-2.26954
11
2.31491
21
-2.26954
0
LINE
8
BLACK
6
CONTINUOUS
10
2.31491
20
-2.26954
11
2.31266
21
-2.27067
0
LINE
8
BLACK
6
CONTINUOUS
10
2.31266
20
-2.27067
11
2.31154
21
-2.27291
0
LINE
8
BLACK
6
CONTINUOUS
10
2.31154
20
-2.27291
11
2.31154
21
-2.27714
0
LINE
8
BLACK
6
CONTINUOUS
10
2.31154
20
-2.27714
11
2.31266
21
-2.27939
0
LINE
8
BLACK
6
CONTINUOUS
10
2.31266
20
-2.27939
11
2.31491
21
-2.28051
0
LINE
8
BLACK
6
CONTINUOUS
10
2.31491
20
-2.28051
11
2.33484
21
-2.28051
0
LINE
8
BLACK
6
CONTINUOUS
10
2.33484
20
-2.28051
11
2.33585
21
-2.28069
0
LINE
8
BLACK
6
CONTINUOUS
10
2.33585
20
-2.28069
11
2.33739
21
-2.28199
0
LINE
8
BLACK
6
CONTINUOUS
10
2.33739
20
-2.28199
11
2.33774
21
-2.28398
0
LINE
8
BLACK
6
CONTINUOUS
10
2.33774
20
-2.28398
11
2.33673
21
-2.28573
0
LINE
8
BLACK
6
CONTINUOUS
10
2.33673
20
-2.28573
11
2.33484
21
-2.28642
0
LINE
8
BLACK
6
CONTINUOUS
10
2.33484
20
-2.28642
11
2.31491
21
-2.28642
0
LINE
8
BLACK
6
CONTINUOUS
10
2.31491
20
-2.28642
11
2.31266
21
-2.28754
0
LINE
8
BLACK
6
CONTINUOUS
10
2.31266
20
-2.28754
11
2.31154
21
-2.28979
0
LINE
8
BLACK
6
CONTINUOUS
10
2.31154
20
-2.28979
11
2.31154
21
-2.29402
0
LINE
8
BLACK
6
CONTINUOUS
10
2.31154
20
-2.29402
11
2.31289
21
-2.29671
0
LINE
8
BLACK
6
CONTINUOUS
10
2.31289
20
-2.29671
11
2.31356
21
-2.29738
0
LINE
8
BLACK
6
CONTINUOUS
10
2.31356
20
-2.29738
11
2.33484
21
-2.29738
0
LINE
8
BLACK
6
CONTINUOUS
10
2.33484
20
-2.29738
11
2.33585
21
-2.29756
0
LINE
8
BLACK
6
CONTINUOUS
10
2.33585
20
-2.29756
11
2.33739
21
-2.29886
0
LINE
8
BLACK
6
CONTINUOUS
10
2.33739
20
-2.29886
11
2.33774
21
-2.30085
0
LINE
8
BLACK
6
CONTINUOUS
10
2.33774
20
-2.30085
11
2.33673
21
-2.3026
0
LINE
8
BLACK
6
CONTINUOUS
10
2.33673
20
-2.3026
11
2.33484
21
-2.30329
0
LINE
8
BLACK
6
CONTINUOUS
10
2.33484
20
-2.30329
11
2.30859
21
-2.30329
0
LINE
8
BLACK
6
CONTINUOUS
10
2.30859
20
-2.30329
11
2.30758
21
-2.30311
0
LINE
8
BLACK
6
CONTINUOUS
10
2.30758
20
-2.30311
11
2.30603
21
-2.30181
0
LINE
8
BLACK
6
CONTINUOUS
10
2.30603
20
-2.30181
11
2.30568
21
-2.29982
0
LINE
8
BLACK
6
CONTINUOUS
10
2.30568
20
-2.29982
11
2.30669
21
-2.29808
0
LINE
8
BLACK
6
CONTINUOUS
10
2.30669
20
-2.29808
11
2.30693
21
-2.29799
0
LINE
8
BLACK
6
CONTINUOUS
10
2.30693
20
-2.29799
11
2.30595
21
-2.29603
0
LINE
8
BLACK
6
CONTINUOUS
10
2.30595
20
-2.29603
11
2.30566
21
-2.29505
0
LINE
8
BLACK
6
CONTINUOUS
10
2.30566
20
-2.29505
11
2.3057
21
-2.29488
0
LINE
8
BLACK
6
CONTINUOUS
10
2.3057
20
-2.29488
11
2.30564
21
-2.29471
0
LINE
8
BLACK
6
CONTINUOUS
10
2.30564
20
-2.29471
11
2.30564
21
-2.28909
0
LINE
8
BLACK
6
CONTINUOUS
10
2.30564
20
-2.28909
11
2.30581
21
-2.28808
0
LINE
8
BLACK
6
CONTINUOUS
10
2.30581
20
-2.28808
11
2.30593
21
-2.28794
0
LINE
8
BLACK
6
CONTINUOUS
10
2.30593
20
-2.28794
11
2.30595
21
-2.28777
0
LINE
8
BLACK
6
CONTINUOUS
10
2.30595
20
-2.28777
11
2.30782
21
-2.28402
0
LINE
8
BLACK
6
CONTINUOUS
10
2.30782
20
-2.28402
11
2.30825
21
-2.28345
0
LINE
8
BLACK
6
CONTINUOUS
10
2.30825
20
-2.28345
11
2.30814
21
-2.28321
0
LINE
8
BLACK
6
CONTINUOUS
10
2.30814
20
-2.28321
11
2.30782
21
-2.28291
0
LINE
8
BLACK
6
CONTINUOUS
10
2.30782
20
-2.28291
11
2.30595
21
-2.27916
0
LINE
8
BLACK
6
CONTINUOUS
10
2.30595
20
-2.27916
11
2.30566
21
-2.27818
0
LINE
8
BLACK
6
CONTINUOUS
10
2.30566
20
-2.27818
11
2.3057
21
-2.27801
0
LINE
8
BLACK
6
CONTINUOUS
10
2.3057
20
-2.27801
11
2.30564
21
-2.27784
0
LINE
8
BLACK
6
CONTINUOUS
10
2.30564
20
-2.27784
11
2.30564
21
-2.27222
0
LINE
8
BLACK
6
CONTINUOUS
10
2.30564
20
-2.27222
11
2.30581
21
-2.27121
0
LINE
8
BLACK
6
CONTINUOUS
10
2.30581
20
-2.27121
11
2.30593
21
-2.27107
0
LINE
8
BLACK
6
CONTINUOUS
10
2.30593
20
-2.27107
11
2.30595
21
-2.2709
0
LINE
8
BLACK
6
CONTINUOUS
10
2.30595
20
-2.2709
11
2.30782
21
-2.26715
0
LINE
8
BLACK
6
CONTINUOUS
10
2.30782
20
-2.26715
11
2.30843
21
-2.26632
0
LINE
8
BLACK
6
CONTINUOUS
10
2.30843
20
-2.26632
11
2.30884
21
-2.26615
0
LINE
8
BLACK
6
CONTINUOUS
10
2.30884
20
-2.26615
11
2.30914
21
-2.26583
0
LINE
8
BLACK
6
CONTINUOUS
10
2.30914
20
-2.26583
11
2.31289
21
-2.26395
0
LINE
8
BLACK
6
CONTINUOUS
10
2.31289
20
-2.26395
11
2.31388
21
-2.26366
0
LINE
8
BLACK
6
CONTINUOUS
10
2.31388
20
-2.26366
11
2.31405
21
-2.2637
0
LINE
8
BLACK
6
CONTINUOUS
10
2.31405
20
-2.2637
11
2.31421
21
-2.26364
0
LINE
8
BLACK
6
CONTINUOUS
10
2.31421
20
-2.26364
11
2.33484
21
-2.26364
0
LINE
8
BLACK
6
CONTINUOUS
10
2.33484
20
-2.26364
11
2.33585
21
-2.26382
0
LINE
8
BLACK
6
CONTINUOUS
10
3.26056
20
-1.73196
11
3.26073
21
-1.73193
0
LINE
8
BLACK
6
CONTINUOUS
10
3.26073
20
-1.73193
11
3.26147
21
-1.73236
0
LINE
8
BLACK
6
CONTINUOUS
10
3.26147
20
-1.73236
11
3.26226
21
-1.7327
0
LINE
8
BLACK
6
CONTINUOUS
10
3.26226
20
-1.7327
11
3.26233
21
-1.73285
0
LINE
8
BLACK
6
CONTINUOUS
10
3.26233
20
-1.73285
11
3.26248
21
-1.73294
0
LINE
8
BLACK
6
CONTINUOUS
10
3.26248
20
-1.73294
11
3.26277
21
-1.73374
0
LINE
8
BLACK
6
CONTINUOUS
10
3.26277
20
-1.73374
11
3.26315
21
-1.73451
0
LINE
8
BLACK
6
CONTINUOUS
10
3.26315
20
-1.73451
11
3.26311
21
-1.73468
0
LINE
8
BLACK
6
CONTINUOUS
10
3.26311
20
-1.73468
11
3.26317
21
-1.73484
0
LINE
8
BLACK
6
CONTINUOUS
10
3.26317
20
-1.73484
11
3.26317
21
-1.77125
0
LINE
8
BLACK
6
CONTINUOUS
10
3.26317
20
-1.77125
11
3.27147
21
-1.77125
0
LINE
8
BLACK
6
CONTINUOUS
10
3.27147
20
-1.77125
11
3.27248
21
-1.77143
0
LINE
8
BLACK
6
CONTINUOUS
10
3.27248
20
-1.77143
11
3.27402
21
-1.77273
0
LINE
8
BLACK
6
CONTINUOUS
10
3.27402
20
-1.77273
11
3.27437
21
-1.77472
0
LINE
8
BLACK
6
CONTINUOUS
10
3.27437
20
-1.77472
11
3.27336
21
-1.77647
0
LINE
8
BLACK
6
CONTINUOUS
10
3.27336
20
-1.77647
11
3.27147
21
-1.77716
0
LINE
8
BLACK
6
CONTINUOUS
10
3.27147
20
-1.77716
11
3.24897
21
-1.77716
0
LINE
8
BLACK
6
CONTINUOUS
10
3.24897
20
-1.77716
11
3.24796
21
-1.77698
0
LINE
8
BLACK
6
CONTINUOUS
10
3.24796
20
-1.77698
11
3.24641
21
-1.77568
0
LINE
8
BLACK
6
CONTINUOUS
10
3.24641
20
-1.77568
11
3.24606
21
-1.77369
0
LINE
8
BLACK
6
CONTINUOUS
10
3.24606
20
-1.77369
11
3.24707
21
-1.77194
0
LINE
8
BLACK
6
CONTINUOUS
10
3.24707
20
-1.77194
11
3.24897
21
-1.77125
0
LINE
8
BLACK
6
CONTINUOUS
10
3.24897
20
-1.77125
11
3.25726
21
-1.77125
0
LINE
8
BLACK
6
CONTINUOUS
10
3.25726
20
-1.77125
11
3.25726
21
-1.74384
0
LINE
8
BLACK
6
CONTINUOUS
10
3.25726
20
-1.74384
11
3.25481
21
-1.7463
0
LINE
8
BLACK
6
CONTINUOUS
10
3.25481
20
-1.7463
11
3.25408
21
-1.7468
0
LINE
8
BLACK
6
CONTINUOUS
10
3.25408
20
-1.7468
11
3.25404
21
-1.74685
0
LINE
8
BLACK
6
CONTINUOUS
10
3.25404
20
-1.74685
11
3.25029
21
-1.74872
0
LINE
8
BLACK
6
CONTINUOUS
10
3.25029
20
-1.74872
11
3.24931
21
-1.74902
0
LINE
8
BLACK
6
CONTINUOUS
10
3.24931
20
-1.74902
11
3.24734
21
-1.74855
0
LINE
8
BLACK
6
CONTINUOUS
10
3.24734
20
-1.74855
11
3.24614
21
-1.74693
0
LINE
8
BLACK
6
CONTINUOUS
10
3.24614
20
-1.74693
11
3.24626
21
-1.74491
0
LINE
8
BLACK
6
CONTINUOUS
10
3.24626
20
-1.74491
11
3.24765
21
-1.74344
0
LINE
8
BLACK
6
CONTINUOUS
10
3.24765
20
-1.74344
11
3.25097
21
-1.74178
0
LINE
8
BLACK
6
CONTINUOUS
10
3.25097
20
-1.74178
11
3.25417
21
-1.73858
0
LINE
8
BLACK
6
CONTINUOUS
10
3.25417
20
-1.73858
11
3.25776
21
-1.7332
0
LINE
8
BLACK
6
CONTINUOUS
10
3.25776
20
-1.7332
11
3.25847
21
-1.73246
0
LINE
8
BLACK
6
CONTINUOUS
10
3.25847
20
-1.73246
11
3.25863
21
-1.73241
0
LINE
8
BLACK
6
CONTINUOUS
10
3.25863
20
-1.73241
11
3.25874
21
-1.73228
0
LINE
8
BLACK
6
CONTINUOUS
10
3.25874
20
-1.73228
11
3.25958
21
-1.73213
0
LINE
8
BLACK
6
CONTINUOUS
10
3.25958
20
-1.73213
11
3.26041
21
-1.73189
0
LINE
8
BLACK
6
CONTINUOUS
10
3.26041
20
-1.73189
11
3.26056
21
-1.73196
0
LINE
8
BLACK
6
CONTINUOUS
10
3.3006
20
-1.73206
11
3.30073
21
-1.73217
0
LINE
8
BLACK
6
CONTINUOUS
10
3.30073
20
-1.73217
11
3.30091
21
-1.73219
0
LINE
8
BLACK
6
CONTINUOUS
10
3.30091
20
-1.73219
11
3.30466
21
-1.73407
0
LINE
8
BLACK
6
CONTINUOUS
10
3.30466
20
-1.73407
11
3.30537
21
-1.7346
0
LINE
8
BLACK
6
CONTINUOUS
10
3.30537
20
-1.7346
11
3.30543
21
-1.73462
0
LINE
8
BLACK
6
CONTINUOUS
10
3.30543
20
-1.73462
11
3.3073
21
-1.7365
0
LINE
8
BLACK
6
CONTINUOUS
10
3.3073
20
-1.7365
11
3.30781
21
-1.73722
0
LINE
8
BLACK
6
CONTINUOUS
10
3.30781
20
-1.73722
11
3.30785
21
-1.73726
0
LINE
8
BLACK
6
CONTINUOUS
10
3.30785
20
-1.73726
11
3.30973
21
-1.74101
0
LINE
8
BLACK
6
CONTINUOUS
10
3.30973
20
-1.74101
11
3.30987
21
-1.7415
0
LINE
8
BLACK
6
CONTINUOUS
10
3.30987
20
-1.7415
11
3.30995
21
-1.74162
0
LINE
8
BLACK
6
CONTINUOUS
10
3.30995
20
-1.74162
11
3.31183
21
-1.74912
0
LINE
8
BLACK
6
CONTINUOUS
10
3.31183
20
-1.74912
11
3.31187
21
-1.74971
0
LINE
8
BLACK
6
CONTINUOUS
10
3.31187
20
-1.74971
11
3.31191
21
-1.74983
0
LINE
8
BLACK
6
CONTINUOUS
10
3.31191
20
-1.74983
11
3.31191
21
-1.75921
0
LINE
8
BLACK
6
CONTINUOUS
10
3.31191
20
-1.75921
11
3.31181
21
-1.75979
0
LINE
8
BLACK
6
CONTINUOUS
10
3.31181
20
-1.75979
11
3.31183
21
-1.75992
0
LINE
8
BLACK
6
CONTINUOUS
10
3.31183
20
-1.75992
11
3.30995
21
-1.76742
0
LINE
8
BLACK
6
CONTINUOUS
10
3.30995
20
-1.76742
11
3.30974
21
-1.76789
0
LINE
8
BLACK
6
CONTINUOUS
10
3.30974
20
-1.76789
11
3.30973
21
-1.76803
0
LINE
8
BLACK
6
CONTINUOUS
10
3.30973
20
-1.76803
11
3.30785
21
-1.77178
0
LINE
8
BLACK
6
CONTINUOUS
10
3.30785
20
-1.77178
11
3.30733
21
-1.77249
0
LINE
8
BLACK
6
CONTINUOUS
10
3.30733
20
-1.77249
11
3.3073
21
-1.77254
0
LINE
8
BLACK
6
CONTINUOUS
10
3.3073
20
-1.77254
11
3.30543
21
-1.77442
0
LINE
8
BLACK
6
CONTINUOUS
10
3.30543
20
-1.77442
11
3.3047
21
-1.77492
0
LINE
8
BLACK
6
CONTINUOUS
10
3.3047
20
-1.77492
11
3.30466
21
-1.77497
0
LINE
8
BLACK
6
CONTINUOUS
10
3.30466
20
-1.77497
11
3.30091
21
-1.77685
0
LINE
8
BLACK
6
CONTINUOUS
10
3.30091
20
-1.77685
11
3.29993
21
-1.77714
0
LINE
8
BLACK
6
CONTINUOUS
10
3.29993
20
-1.77714
11
3.29975
21
-1.7771
0
LINE
8
BLACK
6
CONTINUOUS
10
3.29975
20
-1.7771
11
3.29959
21
-1.77716
0
LINE
8
BLACK
6
CONTINUOUS
10
3.29959
20
-1.77716
11
3.29584
21
-1.77716
0
LINE
8
BLACK
6
CONTINUOUS
10
3.29584
20
-1.77716
11
3.29483
21
-1.77698
0
LINE
8
BLACK
6
CONTINUOUS
10
3.29483
20
-1.77698
11
3.29469
21
-1.77687
0
LINE
8
BLACK
6
CONTINUOUS
10
3.29469
20
-1.77687
11
3.29452
21
-1.77685
0
LINE
8
BLACK
6
CONTINUOUS
10
3.29452
20
-1.77685
11
3.29077
21
-1.77497
0
LINE
8
BLACK
6
CONTINUOUS
10
3.29077
20
-1.77497
11
3.29006
21
-1.77445
0
LINE
8
BLACK
6
CONTINUOUS
10
3.29006
20
-1.77445
11
3.29
21
-1.77442
0
LINE
8
BLACK
6
CONTINUOUS
10
3.29
20
-1.77442
11
3.28813
21
-1.77254
0
LINE
8
BLACK
6
CONTINUOUS
10
3.28813
20
-1.77254
11
3.28762
21
-1.77182
0
LINE
8
BLACK
6
CONTINUOUS
10
3.28762
20
-1.77182
11
3.28757
21
-1.77178
0
LINE
8
BLACK
6
CONTINUOUS
10
3.28757
20
-1.77178
11
3.2857
21
-1.76803
0
LINE
8
BLACK
6
CONTINUOUS
10
3.2857
20
-1.76803
11
3.28555
21
-1.76754
0
LINE
8
BLACK
6
CONTINUOUS
10
3.28555
20
-1.76754
11
3.28547
21
-1.76742
0
LINE
8
BLACK
6
CONTINUOUS
10
3.28547
20
-1.76742
11
3.2836
21
-1.75992
0
LINE
8
BLACK
6
CONTINUOUS
10
3.2836
20
-1.75992
11
3.28356
21
-1.75934
0
LINE
8
BLACK
6
CONTINUOUS
10
3.28356
20
-1.75934
11
3.28351
21
-1.75921
0
LINE
8
BLACK
6
CONTINUOUS
10
3.28351
20
-1.75921
11
3.28351
21
-1.74983
0
LINE
8
BLACK
6
CONTINUOUS
10
3.28351
20
-1.74983
11
3.28361
21
-1.74925
0
LINE
8
BLACK
6
CONTINUOUS
10
3.28361
20
-1.74925
11
3.2836
21
-1.74912
0
LINE
8
BLACK
6
CONTINUOUS
10
3.2836
20
-1.74912
11
3.28547
21
-1.74162
0
LINE
8
BLACK
6
CONTINUOUS
10
3.28547
20
-1.74162
11
3.28568
21
-1.74115
0
LINE
8
BLACK
6
CONTINUOUS
10
3.28568
20
-1.74115
11
3.2857
21
-1.74101
0
LINE
8
BLACK
6
CONTINUOUS
10
3.2857
20
-1.74101
11
3.28757
21
-1.73726
0
LINE
8
BLACK
6
CONTINUOUS
10
3.28757
20
-1.73726
11
3.2881
21
-1.73656
0
LINE
8
BLACK
6
CONTINUOUS
10
3.2881
20
-1.73656
11
3.28813
21
-1.7365
0
LINE
8
BLACK
6
CONTINUOUS
10
3.28813
20
-1.7365
11
3.29
21
-1.73462
0
LINE
8
BLACK
6
CONTINUOUS
10
3.29
20
-1.73462
11
3.29072
21
-1.73412
0
LINE
8
BLACK
6
CONTINUOUS
10
3.29072
20
-1.73412
11
3.29077
21
-1.73407
0
LINE
8
BLACK
6
CONTINUOUS
10
3.29077
20
-1.73407
11
3.29452
21
-1.73219
0
LINE
8
BLACK
6
CONTINUOUS
10
3.29452
20
-1.73219
11
3.2955
21
-1.7319
0
LINE
8
BLACK
6
CONTINUOUS
10
3.2955
20
-1.7319
11
3.29567
21
-1.73194
0
LINE
8
BLACK
6
CONTINUOUS
10
3.29567
20
-1.73194
11
3.29584
21
-1.73188
0
LINE
8
BLACK
6
CONTINUOUS
10
3.29584
20
-1.73188
11
3.29959
21
-1.73188
0
LINE
8
BLACK
6
CONTINUOUS
10
3.29959
20
-1.73188
11
3.3006
21
-1.73206
0
LINE
8
BLACK
6
CONTINUOUS
10
3.29384
20
-1.73914
11
3.29264
21
-1.74033
0
LINE
8
BLACK
6
CONTINUOUS
10
3.29264
20
-1.74033
11
3.29112
21
-1.74337
0
LINE
8
BLACK
6
CONTINUOUS
10
3.29112
20
-1.74337
11
3.28942
21
-1.7502
0
LINE
8
BLACK
6
CONTINUOUS
10
3.28942
20
-1.7502
11
3.28942
21
-1.75884
0
LINE
8
BLACK
6
CONTINUOUS
10
3.28942
20
-1.75884
11
3.29112
21
-1.76568
0
LINE
8
BLACK
6
CONTINUOUS
10
3.29112
20
-1.76568
11
3.29264
21
-1.76871
0
LINE
8
BLACK
6
CONTINUOUS
10
3.29264
20
-1.76871
11
3.29384
21
-1.7699
0
LINE
8
BLACK
6
CONTINUOUS
10
3.29384
20
-1.7699
11
3.29654
21
-1.77125
0
LINE
8
BLACK
6
CONTINUOUS
10
3.29654
20
-1.77125
11
3.29889
21
-1.77125
0
LINE
8
BLACK
6
CONTINUOUS
10
3.29889
20
-1.77125
11
3.30159
21
-1.7699
0
LINE
8
BLACK
6
CONTINUOUS
10
3.30159
20
-1.7699
11
3.30279
21
-1.76871
0
LINE
8
BLACK
6
CONTINUOUS
10
3.30279
20
-1.76871
11
3.3043
21
-1.76568
0
LINE
8
BLACK
6
CONTINUOUS
10
3.3043
20
-1.76568
11
3.30601
21
-1.75884
0
LINE
8
BLACK
6
CONTINUOUS
10
3.30601
20
-1.75884
11
3.30601
21
-1.7502
0
LINE
8
BLACK
6
CONTINUOUS
10
3.30601
20
-1.7502
11
3.3043
21
-1.74337
0
LINE
8
BLACK
6
CONTINUOUS
10
3.3043
20
-1.74337
11
3.30279
21
-1.74033
0
LINE
8
BLACK
6
CONTINUOUS
10
3.30279
20
-1.74033
11
3.30159
21
-1.73914
0
LINE
8
BLACK
6
CONTINUOUS
10
3.30159
20
-1.73914
11
3.29889
21
-1.73779
0
LINE
8
BLACK
6
CONTINUOUS
10
3.29889
20
-1.73779
11
3.29654
21
-1.73779
0
LINE
8
BLACK
6
CONTINUOUS
10
3.29654
20
-1.73779
11
3.29384
21
-1.73914
0
LINE
8
BLACK
6
CONTINUOUS
10
3.36809
20
-1.74518
11
3.36822
21
-1.7453
0
LINE
8
BLACK
6
CONTINUOUS
10
3.36822
20
-1.7453
11
3.3684
21
-1.74532
0
LINE
8
BLACK
6
CONTINUOUS
10
3.3684
20
-1.74532
11
3.37215
21
-1.74719
0
LINE
8
BLACK
6
CONTINUOUS
10
3.37215
20
-1.74719
11
3.37272
21
-1.74762
0
LINE
8
BLACK
6
CONTINUOUS
10
3.37272
20
-1.74762
11
3.37295
21
-1.74751
0
LINE
8
BLACK
6
CONTINUOUS
10
3.37295
20
-1.74751
11
3.37326
21
-1.74719
0
LINE
8
BLACK
6
CONTINUOUS
10
3.37326
20
-1.74719
11
3.37701
21
-1.74532
0
LINE
8
BLACK
6
CONTINUOUS
10
3.37701
20
-1.74532
11
3.37799
21
-1.74503
0
LINE
8
BLACK
6
CONTINUOUS
10
3.37799
20
-1.74503
11
3.37816
21
-1.74507
0
LINE
8
BLACK
6
CONTINUOUS
10
3.37816
20
-1.74507
11
3.37833
21
-1.74501
0
LINE
8
BLACK
6
CONTINUOUS
10
3.37833
20
-1.74501
11
3.38395
21
-1.74501
0
LINE
8
BLACK
6
CONTINUOUS
10
3.38395
20
-1.74501
11
3.38496
21
-1.74518
0
LINE
8
BLACK
6
CONTINUOUS
10
3.38496
20
-1.74518
11
3.3851
21
-1.7453
0
LINE
8
BLACK
6
CONTINUOUS
10
3.3851
20
-1.7453
11
3.38527
21
-1.74532
0
LINE
8
BLACK
6
CONTINUOUS
10
3.38527
20
-1.74532
11
3.38902
21
-1.74719
0
LINE
8
BLACK
6
CONTINUOUS
10
3.38902
20
-1.74719
11
3.38985
21
-1.7478
0
LINE
8
BLACK
6
CONTINUOUS
10
3.38985
20
-1.7478
11
3.39002
21
-1.74821
0
LINE
8
BLACK
6
CONTINUOUS
10
3.39002
20
-1.74821
11
3.39034
21
-1.74851
0
LINE
8
BLACK
6
CONTINUOUS
10
3.39034
20
-1.74851
11
3.39222
21
-1.75226
0
LINE
8
BLACK
6
CONTINUOUS
10
3.39222
20
-1.75226
11
3.39251
21
-1.75325
0
LINE
8
BLACK
6
CONTINUOUS
10
3.39251
20
-1.75325
11
3.39247
21
-1.75342
0
LINE
8
BLACK
6
CONTINUOUS
10
3.39247
20
-1.75342
11
3.39253
21
-1.75358
0
LINE
8
BLACK
6
CONTINUOUS
10
3.39253
20
-1.75358
11
3.39253
21
-1.77421
0
LINE
8
BLACK
6
CONTINUOUS
10
3.39253
20
-1.77421
11
3.39235
21
-1.77522
0
LINE
8
BLACK
6
CONTINUOUS
10
3.39235
20
-1.77522
11
3.39105
21
-1.77676
0
LINE
8
BLACK
6
CONTINUOUS
10
3.39105
20
-1.77676
11
3.38906
21
-1.77711
0
LINE
8
BLACK
6
CONTINUOUS
10
3.38906
20
-1.77711
11
3.38731
21
-1.7761
0
LINE
8
BLACK
6
CONTINUOUS
10
3.38731
20
-1.7761
11
3.38662
21
-1.77421
0
LINE
8
BLACK
6
CONTINUOUS
10
3.38662
20
-1.77421
11
3.38662
21
-1.75428
0
LINE
8
BLACK
6
CONTINUOUS
10
3.38662
20
-1.75428
11
3.3855
21
-1.75203
0
LINE
8
BLACK
6
CONTINUOUS
10
3.3855
20
-1.75203
11
3.38325
21
-1.75091
0
LINE
8
BLACK
6
CONTINUOUS
10
3.38325
20
-1.75091
11
3.37902
21
-1.75091
0
LINE
8
BLACK
6
CONTINUOUS
10
3.37902
20
-1.75091
11
3.37678
21
-1.75203
0
LINE
8
BLACK
6
CONTINUOUS
10
3.37678
20
-1.75203
11
3.37566
21
-1.75428
0
LINE
8
BLACK
6
CONTINUOUS
10
3.37566
20
-1.75428
11
3.37566
21
-1.77421
0
LINE
8
BLACK
6
CONTINUOUS
10
3.37566
20
-1.77421
11
3.37548
21
-1.77522
0
LINE
8
BLACK
6
CONTINUOUS
10
3.37548
20
-1.77522
11
3.37418
21
-1.77676
0
LINE
8
BLACK
6
CONTINUOUS
10
3.37418
20
-1.77676
11
3.37219
21
-1.77711
0
LINE
8
BLACK
6
CONTINUOUS
10
3.37219
20
-1.77711
11
3.37044
21
-1.7761
0
LINE
8
BLACK
6
CONTINUOUS
10
3.37044
20
-1.7761
11
3.36975
21
-1.77421
0
LINE
8
BLACK
6
CONTINUOUS
10
3.36975
20
-1.77421
11
3.36975
21
-1.75428
0
LINE
8
BLACK
6
CONTINUOUS
10
3.36975
20
-1.75428
11
3.36863
21
-1.75203
0
LINE
8
BLACK
6
CONTINUOUS
10
3.36863
20
-1.75203
11
3.36638
21
-1.75091
0
LINE
8
BLACK
6
CONTINUOUS
10
3.36638
20
-1.75091
11
3.36215
21
-1.75091
0
LINE
8
BLACK
6
CONTINUOUS
10
3.36215
20
-1.75091
11
3.35945
21
-1.75226
0
LINE
8
BLACK
6
CONTINUOUS
10
3.35945
20
-1.75226
11
3.35878
21
-1.75293
0
LINE
8
BLACK
6
CONTINUOUS
10
3.35878
20
-1.75293
11
3.35878
21
-1.77421
0
LINE
8
BLACK
6
CONTINUOUS
10
3.35878
20
-1.77421
11
3.35861
21
-1.77522
0
LINE
8
BLACK
6
CONTINUOUS
10
3.35861
20
-1.77522
11
3.35731
21
-1.77676
0
LINE
8
BLACK
6
CONTINUOUS
10
3.35731
20
-1.77676
11
3.35532
21
-1.77711
0
LINE
8
BLACK
6
CONTINUOUS
10
3.35532
20
-1.77711
11
3.35357
21
-1.7761
0
LINE
8
BLACK
6
CONTINUOUS
10
3.35357
20
-1.7761
11
3.35288
21
-1.77421
0
LINE
8
BLACK
6
CONTINUOUS
10
3.35288
20
-1.77421
11
3.35288
21
-1.74796
0
LINE
8
BLACK
6
CONTINUOUS
10
3.35288
20
-1.74796
11
3.35306
21
-1.74695
0
LINE
8
BLACK
6
CONTINUOUS
10
3.35306
20
-1.74695
11
3.35435
21
-1.7454
0
LINE
8
BLACK
6
CONTINUOUS
10
3.35435
20
-1.7454
11
3.35634
21
-1.74505
0
LINE
8
BLACK
6
CONTINUOUS
10
3.35634
20
-1.74505
11
3.35809
21
-1.74606
0
LINE
8
BLACK
6
CONTINUOUS
10
3.35809
20
-1.74606
11
3.35818
21
-1.7463
0
LINE
8
BLACK
6
CONTINUOUS
10
3.35818
20
-1.7463
11
3.36013
21
-1.74532
0
LINE
8
BLACK
6
CONTINUOUS
10
3.36013
20
-1.74532
11
3.36112
21
-1.74503
0
LINE
8
BLACK
6
CONTINUOUS
10
3.36112
20
-1.74503
11
3.36129
21
-1.74507
0
LINE
8
BLACK
6
CONTINUOUS
10
3.36129
20
-1.74507
11
3.36145
21
-1.74501
0
LINE
8
BLACK
6
CONTINUOUS
10
3.36145
20
-1.74501
11
3.36708
21
-1.74501
0
LINE
8
BLACK
6
CONTINUOUS
10
3.36708
20
-1.74501
11
3.36809
21
-1.74518
0
LINE
8
BLACK
6
CONTINUOUS
10
3.42058
20
-1.74518
11
3.42072
21
-1.7453
0
LINE
8
BLACK
6
CONTINUOUS
10
3.42072
20
-1.7453
11
3.42089
21
-1.74532
0
LINE
8
BLACK
6
CONTINUOUS
10
3.42089
20
-1.74532
11
3.42464
21
-1.74719
0
LINE
8
BLACK
6
CONTINUOUS
10
3.42464
20
-1.74719
11
3.42521
21
-1.74762
0
LINE
8
BLACK
6
CONTINUOUS
10
3.42521
20
-1.74762
11
3.42545
21
-1.74751
0
LINE
8
BLACK
6
CONTINUOUS
10
3.42545
20
-1.74751
11
3.42575
21
-1.74719
0
LINE
8
BLACK
6
CONTINUOUS
10
3.42575
20
-1.74719
11
3.4295
21
-1.74532
0
LINE
8
BLACK
6
CONTINUOUS
10
3.4295
20
-1.74532
11
3.43048
21
-1.74503
0
LINE
8
BLACK
6
CONTINUOUS
10
3.43048
20
-1.74503
11
3.43066
21
-1.74507
0
LINE
8
BLACK
6
CONTINUOUS
10
3.43066
20
-1.74507
11
3.43082
21
-1.74501
0
LINE
8
BLACK
6
CONTINUOUS
10
3.43082
20
-1.74501
11
3.43645
21
-1.74501
0
LINE
8
BLACK
6
CONTINUOUS
10
3.43645
20
-1.74501
11
3.43746
21
-1.74518
0
LINE
8
BLACK
6
CONTINUOUS
10
3.43746
20
-1.74518
11
3.43759
21
-1.7453
0
LINE
8
BLACK
6
CONTINUOUS
10
3.43759
20
-1.7453
11
3.43777
21
-1.74532
0
LINE
8
BLACK
6
CONTINUOUS
10
3.43777
20
-1.74532
11
3.44152
21
-1.74719
0
LINE
8
BLACK
6
CONTINUOUS
10
3.44152
20
-1.74719
11
3.44234
21
-1.7478
0
LINE
8
BLACK
6
CONTINUOUS
10
3.44234
20
-1.7478
11
3.44251
21
-1.74821
0
LINE
8
BLACK
6
CONTINUOUS
10
3.44251
20
-1.74821
11
3.44284
21
-1.74851
0
LINE
8
BLACK
6
CONTINUOUS
10
3.44284
20
-1.74851
11
3.44471
21
-1.75226
0
LINE
8
BLACK
6
CONTINUOUS
10
3.44471
20
-1.75226
11
3.445
21
-1.75325
0
LINE
8
BLACK
6
CONTINUOUS
10
3.445
20
-1.75325
11
3.44496
21
-1.75342
0
LINE
8
BLACK
6
CONTINUOUS
10
3.44496
20
-1.75342
11
3.44502
21
-1.75358
0
LINE
8
BLACK
6
CONTINUOUS
10
3.44502
20
-1.75358
11
3.44502
21
-1.77421
0
LINE
8
BLACK
6
CONTINUOUS
10
3.44502
20
-1.77421
11
3.44484
21
-1.77522
0
LINE
8
BLACK
6
CONTINUOUS
10
3.44484
20
-1.77522
11
3.44355
21
-1.77676
0
LINE
8
BLACK
6
CONTINUOUS
10
3.44355
20
-1.77676
11
3.44156
21
-1.77711
0
LINE
8
BLACK
6
CONTINUOUS
10
3.44156
20
-1.77711
11
3.43981
21
-1.7761
0
LINE
8
BLACK
6
CONTINUOUS
10
3.43981
20
-1.7761
11
3.43912
21
-1.77421
0
LINE
8
BLACK
6
CONTINUOUS
10
3.43912
20
-1.77421
11
3.43912
21
-1.75428
0
LINE
8
BLACK
6
CONTINUOUS
10
3.43912
20
-1.75428
11
3.43799
21
-1.75203
0
LINE
8
BLACK
6
CONTINUOUS
10
3.43799
20
-1.75203
11
3.43575
21
-1.75091
0
LINE
8
BLACK
6
CONTINUOUS
10
3.43575
20
-1.75091
11
3.43152
21
-1.75091
0
LINE
8
BLACK
6
CONTINUOUS
10
3.43152
20
-1.75091
11
3.42927
21
-1.75203
0
LINE
8
BLACK
6
CONTINUOUS
10
3.42927
20
-1.75203
11
3.42815
21
-1.75428
0
LINE
8
BLACK
6
CONTINUOUS
10
3.42815
20
-1.75428
11
3.42815
21
-1.77421
0
LINE
8
BLACK
6
CONTINUOUS
10
3.42815
20
-1.77421
11
3.42797
21
-1.77522
0
LINE
8
BLACK
6
CONTINUOUS
10
3.42797
20
-1.77522
11
3.42667
21
-1.77676
0
LINE
8
BLACK
6
CONTINUOUS
10
3.42667
20
-1.77676
11
3.42468
21
-1.77711
0
LINE
8
BLACK
6
CONTINUOUS
10
3.42468
20
-1.77711
11
3.42293
21
-1.7761
0
LINE
8
BLACK
6
CONTINUOUS
10
3.42293
20
-1.7761
11
3.42224
21
-1.77421
0
LINE
8
BLACK
6
CONTINUOUS
10
3.42224
20
-1.77421
11
3.42224
21
-1.75428
0
LINE
8
BLACK
6
CONTINUOUS
10
3.42224
20
-1.75428
11
3.42112
21
-1.75203
0
LINE
8
BLACK
6
CONTINUOUS
10
3.42112
20
-1.75203
11
3.41888
21
-1.75091
0
LINE
8
BLACK
6
CONTINUOUS
10
3.41888
20
-1.75091
11
3.41465
21
-1.75091
0
LINE
8
BLACK
6
CONTINUOUS
10
3.41465
20
-1.75091
11
3.41195
21
-1.75226
0
LINE
8
BLACK
6
CONTINUOUS
10
3.41195
20
-1.75226
11
3.41128
21
-1.75293
0
LINE
8
BLACK
6
CONTINUOUS
10
3.41128
20
-1.75293
11
3.41128
21
-1.77421
0
LINE
8
BLACK
6
CONTINUOUS
10
3.41128
20
-1.77421
11
3.4111
21
-1.77522
0
LINE
8
BLACK
6
CONTINUOUS
10
3.4111
20
-1.77522
11
3.4098
21
-1.77676
0
LINE
8
BLACK
6
CONTINUOUS
10
3.4098
20
-1.77676
11
3.40781
21
-1.77711
0
LINE
8
BLACK
6
CONTINUOUS
10
3.40781
20
-1.77711
11
3.40606
21
-1.7761
0
LINE
8
BLACK
6
CONTINUOUS
10
3.40606
20
-1.7761
11
3.40537
21
-1.77421
0
LINE
8
BLACK
6
CONTINUOUS
10
3.40537
20
-1.77421
11
3.40537
21
-1.74796
0
LINE
8
BLACK
6
CONTINUOUS
10
3.40537
20
-1.74796
11
3.40555
21
-1.74695
0
LINE
8
BLACK
6
CONTINUOUS
10
3.40555
20
-1.74695
11
3.40685
21
-1.7454
0
LINE
8
BLACK
6
CONTINUOUS
10
3.40685
20
-1.7454
11
3.40884
21
-1.74505
0
LINE
8
BLACK
6
CONTINUOUS
10
3.40884
20
-1.74505
11
3.41059
21
-1.74606
0
LINE
8
BLACK
6
CONTINUOUS
10
3.41059
20
-1.74606
11
3.41067
21
-1.7463
0
LINE
8
BLACK
6
CONTINUOUS
10
3.41067
20
-1.7463
11
3.41263
21
-1.74532
0
LINE
8
BLACK
6
CONTINUOUS
10
3.41263
20
-1.74532
11
3.41361
21
-1.74503
0
LINE
8
BLACK
6
CONTINUOUS
10
3.41361
20
-1.74503
11
3.41378
21
-1.74507
0
LINE
8
BLACK
6
CONTINUOUS
10
3.41378
20
-1.74507
11
3.41395
21
-1.74501
0
LINE
8
BLACK
6
CONTINUOUS
10
3.41395
20
-1.74501
11
3.41957
21
-1.74501
0
LINE
8
BLACK
6
CONTINUOUS
10
3.41957
20
-1.74501
11
3.42058
21
-1.74518
  0
ENDSEC
  0
EOF
