  0
SECTION
  2
HEADER
  9
$ANGBASE
  50
0.0
  9
$ANGDIR
  70
1
  9
$MEASUREMENT
  70
0
  0
ENDSEC
  0
SECTION
  2
TABLES
  0
TABLE
  2
LTYPE
  70
4
  0
LTYPE
  5
40F
  2
CONTINUOUS
  70
0
  3
Solid line
  72
65
  73
0
  40
0.0
  0
LTYPE
  5
410
  2
DASHDOT
 70
0
  3
Dash Dot ____ _ ____ _
 72
65
 73
4
 40
2.0
 49
1.25
 49
-0.25
 49
0.25
 49
-0.25
  0
LTYPE
  5
411
  2
DASHED
 70
0
  3
Dashed __ __ __ __ __
 72
65
 73
2
 40
0.75
 49
0.5
 49
-0.25
  0
LTYPE
  5
43B
  2
DOTTED
 70
0
  3
Dotted .  .  .  .
 72
65
 73
2
 40
0.2
 49
0.0
 49
-0.2
  0
ENDTAB
  0
TABLE
  2
STYLE
  70
4
  0
STYLE
  2
KICAD
  70
0
  40
0
  41
1
  42
1
  50
0
  71
0
  3
isocp.shx
  0
STYLE
  2
KICADB
  70
0
  40
0
  41
1
  42
1
  50
0
  71
0
  3
isocp.shx
  0
STYLE
  2
KICADI
  70
0
  40
0
  41
1
  42
1
  50
15
  71
0
  3
isocp.shx
  0
STYLE
  2
KICADBI
  70
0
  40
0
  41
1
  42
1
  50
15
  71
0
  3
isocp.shx
  0
ENDTAB
  0
TABLE
  2
LAYER
  70
1
  0
LAYER
  2
BLACK
  70
0
  62
7
  6
CONTINUOUS
  0
ENDTAB
  0
ENDSEC
  0
SECTION
  2
ENTITIES
0
LINE
8
BLACK
6
CONTINUOUS
10
3.52897
20
-2.33792
11
3.52914
21
-2.33791
0
LINE
8
BLACK
6
CONTINUOUS
10
3.52914
20
-2.33791
11
3.52983
21
-2.33841
0
LINE
8
BLACK
6
CONTINUOUS
10
3.52983
20
-2.33841
11
3.53057
21
-2.33884
0
LINE
8
BLACK
6
CONTINUOUS
10
3.53057
20
-2.33884
11
3.53063
21
-2.339
0
LINE
8
BLACK
6
CONTINUOUS
10
3.53063
20
-2.339
11
3.53077
21
-2.3391
0
LINE
8
BLACK
6
CONTINUOUS
10
3.53077
20
-2.3391
11
3.53435
21
-2.34448
0
LINE
8
BLACK
6
CONTINUOUS
10
3.53435
20
-2.34448
11
3.53756
21
-2.34769
0
LINE
8
BLACK
6
CONTINUOUS
10
3.53756
20
-2.34769
11
3.54088
21
-2.34935
0
LINE
8
BLACK
6
CONTINUOUS
10
3.54088
20
-2.34935
11
3.5417
21
-2.34996
0
LINE
8
BLACK
6
CONTINUOUS
10
3.5417
20
-2.34996
11
3.5425
21
-2.35181
0
LINE
8
BLACK
6
CONTINUOUS
10
3.5425
20
-2.35181
11
3.54193
21
-2.35375
0
LINE
8
BLACK
6
CONTINUOUS
10
3.54193
20
-2.35375
11
3.54024
21
-2.35486
0
LINE
8
BLACK
6
CONTINUOUS
10
3.54024
20
-2.35486
11
3.53824
21
-2.35463
0
LINE
8
BLACK
6
CONTINUOUS
10
3.53824
20
-2.35463
11
3.53449
21
-2.35276
0
LINE
8
BLACK
6
CONTINUOUS
10
3.53449
20
-2.35276
11
3.53378
21
-2.35223
0
LINE
8
BLACK
6
CONTINUOUS
10
3.53378
20
-2.35223
11
3.53372
21
-2.3522
0
LINE
8
BLACK
6
CONTINUOUS
10
3.53372
20
-2.3522
11
3.53126
21
-2.34974
0
LINE
8
BLACK
6
CONTINUOUS
10
3.53126
20
-2.34974
11
3.53126
21
-2.37716
0
LINE
8
BLACK
6
CONTINUOUS
10
3.53126
20
-2.37716
11
3.53956
21
-2.37716
0
LINE
8
BLACK
6
CONTINUOUS
10
3.53956
20
-2.37716
11
3.54057
21
-2.37734
0
LINE
8
BLACK
6
CONTINUOUS
10
3.54057
20
-2.37734
11
3.54211
21
-2.37863
0
LINE
8
BLACK
6
CONTINUOUS
10
3.54211
20
-2.37863
11
3.54247
21
-2.38062
0
LINE
8
BLACK
6
CONTINUOUS
10
3.54247
20
-2.38062
11
3.54146
21
-2.38237
0
LINE
8
BLACK
6
CONTINUOUS
10
3.54146
20
-2.38237
11
3.53956
21
-2.38306
0
LINE
8
BLACK
6
CONTINUOUS
10
3.53956
20
-2.38306
11
3.51706
21
-2.38306
0
LINE
8
BLACK
6
CONTINUOUS
10
3.51706
20
-2.38306
11
3.51605
21
-2.38289
0
LINE
8
BLACK
6
CONTINUOUS
10
3.51605
20
-2.38289
11
3.5145
21
-2.38159
0
LINE
8
BLACK
6
CONTINUOUS
10
3.5145
20
-2.38159
11
3.51415
21
-2.3796
0
LINE
8
BLACK
6
CONTINUOUS
10
3.51415
20
-2.3796
11
3.51516
21
-2.37785
0
LINE
8
BLACK
6
CONTINUOUS
10
3.51516
20
-2.37785
11
3.51706
21
-2.37716
0
LINE
8
BLACK
6
CONTINUOUS
10
3.51706
20
-2.37716
11
3.52536
21
-2.37716
0
LINE
8
BLACK
6
CONTINUOUS
10
3.52536
20
-2.37716
11
3.52536
21
-2.34074
0
LINE
8
BLACK
6
CONTINUOUS
10
3.52536
20
-2.34074
11
3.52553
21
-2.33973
0
LINE
8
BLACK
6
CONTINUOUS
10
3.52553
20
-2.33973
11
3.52564
21
-2.3396
0
LINE
8
BLACK
6
CONTINUOUS
10
3.52564
20
-2.3396
11
3.52566
21
-2.33943
0
LINE
8
BLACK
6
CONTINUOUS
10
3.52566
20
-2.33943
11
3.52628
21
-2.33884
0
LINE
8
BLACK
6
CONTINUOUS
10
3.52628
20
-2.33884
11
3.52683
21
-2.33818
0
LINE
8
BLACK
6
CONTINUOUS
10
3.52683
20
-2.33818
11
3.527
21
-2.33815
0
LINE
8
BLACK
6
CONTINUOUS
10
3.527
20
-2.33815
11
3.52712
21
-2.33804
0
LINE
8
BLACK
6
CONTINUOUS
10
3.52712
20
-2.33804
11
3.52798
21
-2.33798
0
LINE
8
BLACK
6
CONTINUOUS
10
3.52798
20
-2.33798
11
3.52882
21
-2.33783
0
LINE
8
BLACK
6
CONTINUOUS
10
3.52882
20
-2.33783
11
3.52897
21
-2.33792
0
LINE
8
BLACK
6
CONTINUOUS
10
3.55869
20
-2.33884
11
3.55938
21
-2.34074
0
LINE
8
BLACK
6
CONTINUOUS
10
3.55938
20
-2.34074
11
3.55938
21
-2.36838
0
LINE
8
BLACK
6
CONTINUOUS
10
3.55938
20
-2.36838
11
3.56089
21
-2.37289
0
LINE
8
BLACK
6
CONTINUOUS
10
3.56089
20
-2.37289
11
3.56365
21
-2.37566
0
LINE
8
BLACK
6
CONTINUOUS
10
3.56365
20
-2.37566
11
3.56816
21
-2.37716
0
LINE
8
BLACK
6
CONTINUOUS
10
3.56816
20
-2.37716
11
3.57143
21
-2.37716
0
LINE
8
BLACK
6
CONTINUOUS
10
3.57143
20
-2.37716
11
3.57244
21
-2.37734
0
LINE
8
BLACK
6
CONTINUOUS
10
3.57244
20
-2.37734
11
3.57399
21
-2.37863
0
LINE
8
BLACK
6
CONTINUOUS
10
3.57399
20
-2.37863
11
3.57434
21
-2.38062
0
LINE
8
BLACK
6
CONTINUOUS
10
3.57434
20
-2.38062
11
3.57333
21
-2.38237
0
LINE
8
BLACK
6
CONTINUOUS
10
3.57333
20
-2.38237
11
3.57143
21
-2.38306
0
LINE
8
BLACK
6
CONTINUOUS
10
3.57143
20
-2.38306
11
3.56768
21
-2.38306
0
LINE
8
BLACK
6
CONTINUOUS
10
3.56768
20
-2.38306
11
3.56681
21
-2.38291
0
LINE
8
BLACK
6
CONTINUOUS
10
3.56681
20
-2.38291
11
3.56675
21
-2.38291
0
LINE
8
BLACK
6
CONTINUOUS
10
3.56675
20
-2.38291
11
3.56112
21
-2.38104
0
LINE
8
BLACK
6
CONTINUOUS
10
3.56112
20
-2.38104
11
3.56022
21
-2.38055
0
LINE
8
BLACK
6
CONTINUOUS
10
3.56022
20
-2.38055
11
3.56013
21
-2.3804
0
LINE
8
BLACK
6
CONTINUOUS
10
3.56013
20
-2.3804
11
3.55997
21
-2.38032
0
LINE
8
BLACK
6
CONTINUOUS
10
3.55997
20
-2.38032
11
3.55622
21
-2.37657
0
LINE
8
BLACK
6
CONTINUOUS
10
3.55622
20
-2.37657
11
3.55563
21
-2.37573
0
LINE
8
BLACK
6
CONTINUOUS
10
3.55563
20
-2.37573
11
3.55561
21
-2.37556
0
LINE
8
BLACK
6
CONTINUOUS
10
3.55561
20
-2.37556
11
3.5555
21
-2.37542
0
LINE
8
BLACK
6
CONTINUOUS
10
3.5555
20
-2.37542
11
3.55363
21
-2.3698
0
LINE
8
BLACK
6
CONTINUOUS
10
3.55363
20
-2.3698
11
3.5535
21
-2.36892
0
LINE
8
BLACK
6
CONTINUOUS
10
3.5535
20
-2.36892
11
3.55348
21
-2.36886
0
LINE
8
BLACK
6
CONTINUOUS
10
3.55348
20
-2.36886
11
3.55348
21
-2.34074
0
LINE
8
BLACK
6
CONTINUOUS
10
3.55348
20
-2.34074
11
3.55366
21
-2.33973
0
LINE
8
BLACK
6
CONTINUOUS
10
3.55366
20
-2.33973
11
3.55495
21
-2.33818
0
LINE
8
BLACK
6
CONTINUOUS
10
3.55495
20
-2.33818
11
3.55694
21
-2.33783
0
LINE
8
BLACK
6
CONTINUOUS
10
3.55694
20
-2.33783
11
3.55869
21
-2.33884
0
LINE
8
BLACK
6
CONTINUOUS
10
3.51378
20
-2.24213
11
3.51517
21
-2.2427
0
LINE
8
BLACK
6
CONTINUOUS
10
3.51517
20
-2.2427
11
3.51575
21
-2.24409
0
LINE
8
BLACK
6
CONTINUOUS
10
3.51575
20
-2.24409
11
3.51575
21
-2.2815
0
LINE
8
BLACK
6
CONTINUOUS
10
3.51575
20
-2.2815
11
3.57087
21
-2.2815
0
LINE
8
BLACK
6
CONTINUOUS
10
3.57087
20
-2.2815
11
3.57087
21
-2.24409
0
LINE
8
BLACK
6
CONTINUOUS
10
3.57087
20
-2.24409
11
3.57144
21
-2.2427
0
LINE
8
BLACK
6
CONTINUOUS
10
3.57144
20
-2.2427
11
3.57283
21
-2.24213
0
LINE
8
BLACK
6
CONTINUOUS
10
3.57283
20
-2.24213
11
3.59252
21
-2.24213
0
LINE
8
BLACK
6
CONTINUOUS
10
3.59252
20
-2.24213
11
3.59391
21
-2.2427
0
LINE
8
BLACK
6
CONTINUOUS
10
3.59391
20
-2.2427
11
3.59449
21
-2.24409
0
LINE
8
BLACK
6
CONTINUOUS
10
3.59449
20
-2.24409
11
3.59449
21
-2.28346
0
LINE
8
BLACK
6
CONTINUOUS
10
3.59449
20
-2.28346
11
3.59391
21
-2.28486
0
LINE
8
BLACK
6
CONTINUOUS
10
3.59391
20
-2.28486
11
3.59252
21
-2.28543
0
LINE
8
BLACK
6
CONTINUOUS
10
3.59252
20
-2.28543
11
3.59113
21
-2.28486
0
LINE
8
BLACK
6
CONTINUOUS
10
3.59113
20
-2.28486
11
3.59055
21
-2.28346
0
LINE
8
BLACK
6
CONTINUOUS
10
3.59055
20
-2.28346
11
3.59055
21
-2.24606
0
LINE
8
BLACK
6
CONTINUOUS
10
3.59055
20
-2.24606
11
3.5748
21
-2.24606
0
LINE
8
BLACK
6
CONTINUOUS
10
3.5748
20
-2.24606
11
3.5748
21
-2.2815
0
LINE
8
BLACK
6
CONTINUOUS
10
3.5748
20
-2.2815
11
3.58268
21
-2.2815
0
LINE
8
BLACK
6
CONTINUOUS
10
3.58268
20
-2.2815
11
3.58407
21
-2.28207
0
LINE
8
BLACK
6
CONTINUOUS
10
3.58407
20
-2.28207
11
3.62344
21
-2.32144
0
LINE
8
BLACK
6
CONTINUOUS
10
3.62344
20
-2.32144
11
3.62392
21
-2.32259
0
LINE
8
BLACK
6
CONTINUOUS
10
3.62392
20
-2.32259
11
3.62402
21
-2.32283
0
LINE
8
BLACK
6
CONTINUOUS
10
3.62402
20
-2.32283
11
3.62402
21
-2.44094
0
LINE
8
BLACK
6
CONTINUOUS
10
3.62402
20
-2.44094
11
3.62344
21
-2.44234
0
LINE
8
BLACK
6
CONTINUOUS
10
3.62344
20
-2.44234
11
3.62205
21
-2.44291
0
LINE
8
BLACK
6
CONTINUOUS
10
3.62205
20
-2.44291
11
3.59449
21
-2.44291
0
LINE
8
BLACK
6
CONTINUOUS
10
3.59449
20
-2.44291
11
3.59449
21
-2.48031
0
LINE
8
BLACK
6
CONTINUOUS
10
3.59449
20
-2.48031
11
3.59391
21
-2.48171
0
LINE
8
BLACK
6
CONTINUOUS
10
3.59391
20
-2.48171
11
3.59252
21
-2.48228
0
LINE
8
BLACK
6
CONTINUOUS
10
3.59252
20
-2.48228
11
3.57283
21
-2.48228
0
LINE
8
BLACK
6
CONTINUOUS
10
3.57283
20
-2.48228
11
3.57144
21
-2.48171
0
LINE
8
BLACK
6
CONTINUOUS
10
3.57144
20
-2.48171
11
3.57087
21
-2.48031
0
LINE
8
BLACK
6
CONTINUOUS
10
3.57087
20
-2.48031
11
3.57087
21
-2.44291
0
LINE
8
BLACK
6
CONTINUOUS
10
3.57087
20
-2.44291
11
3.51575
21
-2.44291
0
LINE
8
BLACK
6
CONTINUOUS
10
3.51575
20
-2.44291
11
3.51575
21
-2.48031
0
LINE
8
BLACK
6
CONTINUOUS
10
3.51575
20
-2.48031
11
3.51517
21
-2.48171
0
LINE
8
BLACK
6
CONTINUOUS
10
3.51517
20
-2.48171
11
3.51378
21
-2.48228
0
LINE
8
BLACK
6
CONTINUOUS
10
3.51378
20
-2.48228
11
3.49409
21
-2.48228
0
LINE
8
BLACK
6
CONTINUOUS
10
3.49409
20
-2.48228
11
3.4927
21
-2.48171
0
LINE
8
BLACK
6
CONTINUOUS
10
3.4927
20
-2.48171
11
3.49213
21
-2.48031
0
LINE
8
BLACK
6
CONTINUOUS
10
3.49213
20
-2.48031
11
3.49213
21
-2.44291
0
LINE
8
BLACK
6
CONTINUOUS
10
3.49213
20
-2.44291
11
3.46457
21
-2.44291
0
LINE
8
BLACK
6
CONTINUOUS
10
3.46457
20
-2.44291
11
3.46318
21
-2.44234
0
LINE
8
BLACK
6
CONTINUOUS
10
3.46318
20
-2.44234
11
3.4626
21
-2.44094
0
LINE
8
BLACK
6
CONTINUOUS
10
3.4626
20
-2.44094
11
3.4626
21
-2.28346
0
LINE
8
BLACK
6
CONTINUOUS
10
3.4626
20
-2.28346
11
3.46318
21
-2.28207
0
LINE
8
BLACK
6
CONTINUOUS
10
3.46318
20
-2.28207
11
3.46457
21
-2.2815
0
LINE
8
BLACK
6
CONTINUOUS
10
3.46457
20
-2.2815
11
3.49213
21
-2.2815
0
LINE
8
BLACK
6
CONTINUOUS
10
3.49213
20
-2.2815
11
3.49213
21
-2.24409
0
LINE
8
BLACK
6
CONTINUOUS
10
3.49213
20
-2.24409
11
3.4927
21
-2.2427
0
LINE
8
BLACK
6
CONTINUOUS
10
3.4927
20
-2.2427
11
3.49409
21
-2.24213
0
LINE
8
BLACK
6
CONTINUOUS
10
3.49409
20
-2.24213
11
3.51378
21
-2.24213
0
LINE
8
BLACK
6
CONTINUOUS
10
3.5748
20
-2.44291
11
3.5748
21
-2.47835
0
LINE
8
BLACK
6
CONTINUOUS
10
3.5748
20
-2.47835
11
3.59055
21
-2.47835
0
LINE
8
BLACK
6
CONTINUOUS
10
3.59055
20
-2.47835
11
3.59055
21
-2.44291
0
LINE
8
BLACK
6
CONTINUOUS
10
3.59055
20
-2.44291
11
3.5748
21
-2.44291
0
LINE
8
BLACK
6
CONTINUOUS
10
3.49606
20
-2.44291
11
3.49606
21
-2.47835
0
LINE
8
BLACK
6
CONTINUOUS
10
3.49606
20
-2.47835
11
3.51181
21
-2.47835
0
LINE
8
BLACK
6
CONTINUOUS
10
3.51181
20
-2.47835
11
3.51181
21
-2.44291
0
LINE
8
BLACK
6
CONTINUOUS
10
3.51181
20
-2.44291
11
3.49606
21
-2.44291
0
LINE
8
BLACK
6
CONTINUOUS
10
3.57283
20
-2.28543
11
3.51378
21
-2.28543
0
LINE
8
BLACK
6
CONTINUOUS
10
3.51378
20
-2.28543
11
3.49409
21
-2.28543
0
LINE
8
BLACK
6
CONTINUOUS
10
3.49409
20
-2.28543
11
3.46654
21
-2.28543
0
LINE
8
BLACK
6
CONTINUOUS
10
3.46654
20
-2.28543
11
3.46654
21
-2.43898
0
LINE
8
BLACK
6
CONTINUOUS
10
3.46654
20
-2.43898
11
3.62008
21
-2.43898
0
LINE
8
BLACK
6
CONTINUOUS
10
3.62008
20
-2.43898
11
3.62008
21
-2.32365
0
LINE
8
BLACK
6
CONTINUOUS
10
3.62008
20
-2.32365
11
3.58186
21
-2.28543
0
LINE
8
BLACK
6
CONTINUOUS
10
3.58186
20
-2.28543
11
3.57283
21
-2.28543
0
LINE
8
BLACK
6
CONTINUOUS
10
3.49606
20
-2.24606
11
3.49606
21
-2.2815
0
LINE
8
BLACK
6
CONTINUOUS
10
3.49606
20
-2.2815
11
3.51181
21
-2.2815
0
LINE
8
BLACK
6
CONTINUOUS
10
3.51181
20
-2.2815
11
3.51181
21
-2.24606
0
LINE
8
BLACK
6
CONTINUOUS
10
3.51181
20
-2.24606
11
3.49606
21
-2.24606
0
LINE
8
BLACK
6
CONTINUOUS
10
3.42405
20
-2.41842
11
3.42418
21
-2.41841
0
LINE
8
BLACK
6
CONTINUOUS
10
3.42418
20
-2.41841
11
3.42491
21
-2.41892
0
LINE
8
BLACK
6
CONTINUOUS
10
3.42491
20
-2.41892
11
3.42568
21
-2.41936
0
LINE
8
BLACK
6
CONTINUOUS
10
3.42568
20
-2.41936
11
3.42573
21
-2.41949
0
LINE
8
BLACK
6
CONTINUOUS
10
3.42573
20
-2.41949
11
3.42584
21
-2.41957
0
LINE
8
BLACK
6
CONTINUOUS
10
3.42584
20
-2.41957
11
3.42607
21
-2.42042
0
LINE
8
BLACK
6
CONTINUOUS
10
3.42607
20
-2.42042
11
3.42637
21
-2.42126
0
LINE
8
BLACK
6
CONTINUOUS
10
3.42637
20
-2.42126
11
3.42637
21
-2.44563
0
LINE
8
BLACK
6
CONTINUOUS
10
3.42637
20
-2.44563
11
3.42619
21
-2.44664
0
LINE
8
BLACK
6
CONTINUOUS
10
3.42619
20
-2.44664
11
3.42489
21
-2.44819
0
LINE
8
BLACK
6
CONTINUOUS
10
3.42489
20
-2.44819
11
3.42291
21
-2.44854
0
LINE
8
BLACK
6
CONTINUOUS
10
3.42291
20
-2.44854
11
3.42116
21
-2.44753
0
LINE
8
BLACK
6
CONTINUOUS
10
3.42116
20
-2.44753
11
3.42047
21
-2.44563
0
LINE
8
BLACK
6
CONTINUOUS
10
3.42047
20
-2.44563
11
3.42047
21
-2.42839
0
LINE
8
BLACK
6
CONTINUOUS
10
3.42047
20
-2.42839
11
3.40301
21
-2.44584
0
LINE
8
BLACK
6
CONTINUOUS
10
3.40301
20
-2.44584
11
3.40217
21
-2.44643
0
LINE
8
BLACK
6
CONTINUOUS
10
3.40217
20
-2.44643
11
3.40199
21
-2.44645
0
LINE
8
BLACK
6
CONTINUOUS
10
3.40199
20
-2.44645
11
3.40185
21
-2.44656
0
LINE
8
BLACK
6
CONTINUOUS
10
3.40185
20
-2.44656
11
3.39623
21
-2.44843
0
LINE
8
BLACK
6
CONTINUOUS
10
3.39623
20
-2.44843
11
3.39536
21
-2.44856
0
LINE
8
BLACK
6
CONTINUOUS
10
3.39536
20
-2.44856
11
3.3953
21
-2.44858
0
LINE
8
BLACK
6
CONTINUOUS
10
3.3953
20
-2.44858
11
3.39155
21
-2.44858
0
LINE
8
BLACK
6
CONTINUOUS
10
3.39155
20
-2.44858
11
3.39054
21
-2.44841
0
LINE
8
BLACK
6
CONTINUOUS
10
3.39054
20
-2.44841
11
3.3904
21
-2.44829
0
LINE
8
BLACK
6
CONTINUOUS
10
3.3904
20
-2.44829
11
3.39023
21
-2.44827
0
LINE
8
BLACK
6
CONTINUOUS
10
3.39023
20
-2.44827
11
3.38648
21
-2.4464
0
LINE
8
BLACK
6
CONTINUOUS
10
3.38648
20
-2.4464
11
3.38577
21
-2.44587
0
LINE
8
BLACK
6
CONTINUOUS
10
3.38577
20
-2.44587
11
3.38571
21
-2.44584
0
LINE
8
BLACK
6
CONTINUOUS
10
3.38571
20
-2.44584
11
3.38383
21
-2.44397
0
LINE
8
BLACK
6
CONTINUOUS
10
3.38383
20
-2.44397
11
3.38333
21
-2.44325
0
LINE
8
BLACK
6
CONTINUOUS
10
3.38333
20
-2.44325
11
3.38328
21
-2.4432
0
LINE
8
BLACK
6
CONTINUOUS
10
3.38328
20
-2.4432
11
3.38141
21
-2.43945
0
LINE
8
BLACK
6
CONTINUOUS
10
3.38141
20
-2.43945
11
3.38111
21
-2.43847
0
LINE
8
BLACK
6
CONTINUOUS
10
3.38111
20
-2.43847
11
3.38116
21
-2.4383
0
LINE
8
BLACK
6
CONTINUOUS
10
3.38116
20
-2.4383
11
3.3811
21
-2.43813
0
LINE
8
BLACK
6
CONTINUOUS
10
3.3811
20
-2.43813
11
3.3811
21
-2.42876
0
LINE
8
BLACK
6
CONTINUOUS
10
3.3811
20
-2.42876
11
3.38127
21
-2.42775
0
LINE
8
BLACK
6
CONTINUOUS
10
3.38127
20
-2.42775
11
3.38139
21
-2.42761
0
LINE
8
BLACK
6
CONTINUOUS
10
3.38139
20
-2.42761
11
3.38141
21
-2.42744
0
LINE
8
BLACK
6
CONTINUOUS
10
3.38141
20
-2.42744
11
3.38328
21
-2.42369
0
LINE
8
BLACK
6
CONTINUOUS
10
3.38328
20
-2.42369
11
3.38381
21
-2.42298
0
LINE
8
BLACK
6
CONTINUOUS
10
3.38381
20
-2.42298
11
3.38383
21
-2.42292
0
LINE
8
BLACK
6
CONTINUOUS
10
3.38383
20
-2.42292
11
3.38571
21
-2.42105
0
LINE
8
BLACK
6
CONTINUOUS
10
3.38571
20
-2.42105
11
3.38655
21
-2.42046
0
LINE
8
BLACK
6
CONTINUOUS
10
3.38655
20
-2.42046
11
3.38856
21
-2.42028
0
LINE
8
BLACK
6
CONTINUOUS
10
3.38856
20
-2.42028
11
3.39022
21
-2.42144
0
LINE
8
BLACK
6
CONTINUOUS
10
3.39022
20
-2.42144
11
3.39074
21
-2.42339
0
LINE
8
BLACK
6
CONTINUOUS
10
3.39074
20
-2.42339
11
3.38989
21
-2.42522
0
LINE
8
BLACK
6
CONTINUOUS
10
3.38989
20
-2.42522
11
3.38835
21
-2.42676
0
LINE
8
BLACK
6
CONTINUOUS
10
3.38835
20
-2.42676
11
3.387
21
-2.42946
0
LINE
8
BLACK
6
CONTINUOUS
10
3.387
20
-2.42946
11
3.387
21
-2.43744
0
LINE
8
BLACK
6
CONTINUOUS
10
3.387
20
-2.43744
11
3.38835
21
-2.44013
0
LINE
8
BLACK
6
CONTINUOUS
10
3.38835
20
-2.44013
11
3.38955
21
-2.44133
0
LINE
8
BLACK
6
CONTINUOUS
10
3.38955
20
-2.44133
11
3.39224
21
-2.44268
0
LINE
8
BLACK
6
CONTINUOUS
10
3.39224
20
-2.44268
11
3.39482
21
-2.44268
0
LINE
8
BLACK
6
CONTINUOUS
10
3.39482
20
-2.44268
11
3.39933
21
-2.44118
0
LINE
8
BLACK
6
CONTINUOUS
10
3.39933
20
-2.44118
11
3.42133
21
-2.41917
0
LINE
8
BLACK
6
CONTINUOUS
10
3.42133
20
-2.41917
11
3.42186
21
-2.4188
0
LINE
8
BLACK
6
CONTINUOUS
10
3.42186
20
-2.4188
11
3.42194
21
-2.4187
0
LINE
8
BLACK
6
CONTINUOUS
10
3.42194
20
-2.4187
11
3.42202
21
-2.41869
0
LINE
8
BLACK
6
CONTINUOUS
10
3.42202
20
-2.41869
11
3.42217
21
-2.41858
0
LINE
8
BLACK
6
CONTINUOUS
10
3.42217
20
-2.41858
11
3.42306
21
-2.41851
0
LINE
8
BLACK
6
CONTINUOUS
10
3.42306
20
-2.41851
11
3.42393
21
-2.41835
0
LINE
8
BLACK
6
CONTINUOUS
10
3.42393
20
-2.41835
11
3.42405
21
-2.41842
0
LINE
8
BLACK
6
CONTINUOUS
10
3.409
20
-2.38279
11
3.40914
21
-2.38277
0
LINE
8
BLACK
6
CONTINUOUS
10
3.40914
20
-2.38277
11
3.41664
21
-2.38465
0
LINE
8
BLACK
6
CONTINUOUS
10
3.41664
20
-2.38465
11
3.4171
21
-2.38486
0
LINE
8
BLACK
6
CONTINUOUS
10
3.4171
20
-2.38486
11
3.41724
21
-2.38487
0
LINE
8
BLACK
6
CONTINUOUS
10
3.41724
20
-2.38487
11
3.42099
21
-2.38675
0
LINE
8
BLACK
6
CONTINUOUS
10
3.42099
20
-2.38675
11
3.4217
21
-2.38727
0
LINE
8
BLACK
6
CONTINUOUS
10
3.4217
20
-2.38727
11
3.42176
21
-2.3873
0
LINE
8
BLACK
6
CONTINUOUS
10
3.42176
20
-2.3873
11
3.42363
21
-2.38918
0
LINE
8
BLACK
6
CONTINUOUS
10
3.42363
20
-2.38918
11
3.42414
21
-2.3899
0
LINE
8
BLACK
6
CONTINUOUS
10
3.42414
20
-2.3899
11
3.42418
21
-2.38994
0
LINE
8
BLACK
6
CONTINUOUS
10
3.42418
20
-2.38994
11
3.42606
21
-2.39369
0
LINE
8
BLACK
6
CONTINUOUS
10
3.42606
20
-2.39369
11
3.42635
21
-2.39468
0
LINE
8
BLACK
6
CONTINUOUS
10
3.42635
20
-2.39468
11
3.42631
21
-2.39485
0
LINE
8
BLACK
6
CONTINUOUS
10
3.42631
20
-2.39485
11
3.42637
21
-2.39501
0
LINE
8
BLACK
6
CONTINUOUS
10
3.42637
20
-2.39501
11
3.42637
21
-2.39876
0
LINE
8
BLACK
6
CONTINUOUS
10
3.42637
20
-2.39876
11
3.42619
21
-2.39977
0
LINE
8
BLACK
6
CONTINUOUS
10
3.42619
20
-2.39977
11
3.42608
21
-2.39991
0
LINE
8
BLACK
6
CONTINUOUS
10
3.42608
20
-2.39991
11
3.42606
21
-2.40008
0
LINE
8
BLACK
6
CONTINUOUS
10
3.42606
20
-2.40008
11
3.42418
21
-2.40383
0
LINE
8
BLACK
6
CONTINUOUS
10
3.42418
20
-2.40383
11
3.42366
21
-2.40454
0
LINE
8
BLACK
6
CONTINUOUS
10
3.42366
20
-2.40454
11
3.42363
21
-2.4046
0
LINE
8
BLACK
6
CONTINUOUS
10
3.42363
20
-2.4046
11
3.42176
21
-2.40647
0
LINE
8
BLACK
6
CONTINUOUS
10
3.42176
20
-2.40647
11
3.42103
21
-2.40698
0
LINE
8
BLACK
6
CONTINUOUS
10
3.42103
20
-2.40698
11
3.42099
21
-2.40703
0
LINE
8
BLACK
6
CONTINUOUS
10
3.42099
20
-2.40703
11
3.41724
21
-2.4089
0
LINE
8
BLACK
6
CONTINUOUS
10
3.41724
20
-2.4089
11
3.41675
21
-2.40905
0
LINE
8
BLACK
6
CONTINUOUS
10
3.41675
20
-2.40905
11
3.41664
21
-2.40913
0
LINE
8
BLACK
6
CONTINUOUS
10
3.41664
20
-2.40913
11
3.40914
21
-2.411
0
LINE
8
BLACK
6
CONTINUOUS
10
3.40914
20
-2.411
11
3.40855
21
-2.41104
0
LINE
8
BLACK
6
CONTINUOUS
10
3.40855
20
-2.41104
11
3.40842
21
-2.41109
0
LINE
8
BLACK
6
CONTINUOUS
10
3.40842
20
-2.41109
11
3.39905
21
-2.41109
0
LINE
8
BLACK
6
CONTINUOUS
10
3.39905
20
-2.41109
11
3.39847
21
-2.41099
0
LINE
8
BLACK
6
CONTINUOUS
10
3.39847
20
-2.41099
11
3.39833
21
-2.411
0
LINE
8
BLACK
6
CONTINUOUS
10
3.39833
20
-2.411
11
3.39083
21
-2.40913
0
LINE
8
BLACK
6
CONTINUOUS
10
3.39083
20
-2.40913
11
3.39037
21
-2.40892
0
LINE
8
BLACK
6
CONTINUOUS
10
3.39037
20
-2.40892
11
3.39023
21
-2.4089
0
LINE
8
BLACK
6
CONTINUOUS
10
3.39023
20
-2.4089
11
3.38648
21
-2.40703
0
LINE
8
BLACK
6
CONTINUOUS
10
3.38648
20
-2.40703
11
3.38577
21
-2.4065
0
LINE
8
BLACK
6
CONTINUOUS
10
3.38577
20
-2.4065
11
3.38571
21
-2.40647
0
LINE
8
BLACK
6
CONTINUOUS
10
3.38571
20
-2.40647
11
3.38383
21
-2.4046
0
LINE
8
BLACK
6
CONTINUOUS
10
3.38383
20
-2.4046
11
3.38333
21
-2.40388
0
LINE
8
BLACK
6
CONTINUOUS
10
3.38333
20
-2.40388
11
3.38328
21
-2.40383
0
LINE
8
BLACK
6
CONTINUOUS
10
3.38328
20
-2.40383
11
3.38141
21
-2.40008
0
LINE
8
BLACK
6
CONTINUOUS
10
3.38141
20
-2.40008
11
3.38111
21
-2.3991
0
LINE
8
BLACK
6
CONTINUOUS
10
3.38111
20
-2.3991
11
3.38116
21
-2.39893
0
LINE
8
BLACK
6
CONTINUOUS
10
3.38116
20
-2.39893
11
3.3811
21
-2.39876
0
LINE
8
BLACK
6
CONTINUOUS
10
3.3811
20
-2.39876
11
3.3811
21
-2.39501
0
LINE
8
BLACK
6
CONTINUOUS
10
3.3811
20
-2.39501
11
3.38127
21
-2.394
0
LINE
8
BLACK
6
CONTINUOUS
10
3.38127
20
-2.394
11
3.38139
21
-2.39387
0
LINE
8
BLACK
6
CONTINUOUS
10
3.38139
20
-2.39387
11
3.38141
21
-2.39369
0
LINE
8
BLACK
6
CONTINUOUS
10
3.38141
20
-2.39369
11
3.38328
21
-2.38994
0
LINE
8
BLACK
6
CONTINUOUS
10
3.38328
20
-2.38994
11
3.38381
21
-2.38923
0
LINE
8
BLACK
6
CONTINUOUS
10
3.38381
20
-2.38923
11
3.38383
21
-2.38918
0
LINE
8
BLACK
6
CONTINUOUS
10
3.38383
20
-2.38918
11
3.38571
21
-2.3873
0
LINE
8
BLACK
6
CONTINUOUS
10
3.38571
20
-2.3873
11
3.38643
21
-2.38679
0
LINE
8
BLACK
6
CONTINUOUS
10
3.38643
20
-2.38679
11
3.38648
21
-2.38675
0
LINE
8
BLACK
6
CONTINUOUS
10
3.38648
20
-2.38675
11
3.39023
21
-2.38487
0
LINE
8
BLACK
6
CONTINUOUS
10
3.39023
20
-2.38487
11
3.39071
21
-2.38473
0
LINE
8
BLACK
6
CONTINUOUS
10
3.39071
20
-2.38473
11
3.39083
21
-2.38465
0
LINE
8
BLACK
6
CONTINUOUS
10
3.39083
20
-2.38465
11
3.39833
21
-2.38277
0
LINE
8
BLACK
6
CONTINUOUS
10
3.39833
20
-2.38277
11
3.39892
21
-2.38273
0
LINE
8
BLACK
6
CONTINUOUS
10
3.39892
20
-2.38273
11
3.39905
21
-2.38269
0
LINE
8
BLACK
6
CONTINUOUS
10
3.39905
20
-2.38269
11
3.40842
21
-2.38269
0
LINE
8
BLACK
6
CONTINUOUS
10
3.40842
20
-2.38269
11
3.409
21
-2.38279
0
LINE
8
BLACK
6
CONTINUOUS
10
3.39258
20
-2.3903
11
3.38955
21
-2.39182
0
LINE
8
BLACK
6
CONTINUOUS
10
3.38955
20
-2.39182
11
3.38835
21
-2.39301
0
LINE
8
BLACK
6
CONTINUOUS
10
3.38835
20
-2.39301
11
3.387
21
-2.39571
0
LINE
8
BLACK
6
CONTINUOUS
10
3.387
20
-2.39571
11
3.387
21
-2.39807
0
LINE
8
BLACK
6
CONTINUOUS
10
3.387
20
-2.39807
11
3.38835
21
-2.40076
0
LINE
8
BLACK
6
CONTINUOUS
10
3.38835
20
-2.40076
11
3.38955
21
-2.40196
0
LINE
8
BLACK
6
CONTINUOUS
10
3.38955
20
-2.40196
11
3.39258
21
-2.40348
0
LINE
8
BLACK
6
CONTINUOUS
10
3.39258
20
-2.40348
11
3.39941
21
-2.40518
0
LINE
8
BLACK
6
CONTINUOUS
10
3.39941
20
-2.40518
11
3.40806
21
-2.40518
0
LINE
8
BLACK
6
CONTINUOUS
10
3.40806
20
-2.40518
11
3.41489
21
-2.40348
0
LINE
8
BLACK
6
CONTINUOUS
10
3.41489
20
-2.40348
11
3.41792
21
-2.40196
0
LINE
8
BLACK
6
CONTINUOUS
10
3.41792
20
-2.40196
11
3.41912
21
-2.40076
0
LINE
8
BLACK
6
CONTINUOUS
10
3.41912
20
-2.40076
11
3.42047
21
-2.39807
0
LINE
8
BLACK
6
CONTINUOUS
10
3.42047
20
-2.39807
11
3.42047
21
-2.39571
0
LINE
8
BLACK
6
CONTINUOUS
10
3.42047
20
-2.39571
11
3.41912
21
-2.39301
0
LINE
8
BLACK
6
CONTINUOUS
10
3.41912
20
-2.39301
11
3.41792
21
-2.39182
0
LINE
8
BLACK
6
CONTINUOUS
10
3.41792
20
-2.39182
11
3.41489
21
-2.3903
0
LINE
8
BLACK
6
CONTINUOUS
10
3.41489
20
-2.3903
11
3.40806
21
-2.38859
0
LINE
8
BLACK
6
CONTINUOUS
10
3.40806
20
-2.38859
11
3.39941
21
-2.38859
0
LINE
8
BLACK
6
CONTINUOUS
10
3.39941
20
-2.38859
11
3.39258
21
-2.3903
0
LINE
8
BLACK
6
CONTINUOUS
10
3.399
20
-2.34957
11
3.41029
21
-2.35845
0
LINE
8
BLACK
6
CONTINUOUS
10
3.41029
20
-2.35845
11
3.42159
21
-2.34957
0
LINE
8
BLACK
6
CONTINUOUS
10
3.42159
20
-2.34957
11
3.4225
21
-2.34909
0
LINE
8
BLACK
6
CONTINUOUS
10
3.4225
20
-2.34909
11
3.42452
21
-2.34915
0
LINE
8
BLACK
6
CONTINUOUS
10
3.42452
20
-2.34915
11
3.42602
21
-2.3505
0
LINE
8
BLACK
6
CONTINUOUS
10
3.42602
20
-2.3505
11
3.42631
21
-2.3525
0
LINE
8
BLACK
6
CONTINUOUS
10
3.42631
20
-2.3525
11
3.42524
21
-2.35422
0
LINE
8
BLACK
6
CONTINUOUS
10
3.42524
20
-2.35422
11
3.41507
21
-2.3622
0
LINE
8
BLACK
6
CONTINUOUS
10
3.41507
20
-2.3622
11
3.42524
21
-2.37019
0
LINE
8
BLACK
6
CONTINUOUS
10
3.42524
20
-2.37019
11
3.42593
21
-2.37096
0
LINE
8
BLACK
6
CONTINUOUS
10
3.42593
20
-2.37096
11
3.42634
21
-2.37293
0
LINE
8
BLACK
6
CONTINUOUS
10
3.42634
20
-2.37293
11
3.42539
21
-2.37472
0
LINE
8
BLACK
6
CONTINUOUS
10
3.42539
20
-2.37472
11
3.42351
21
-2.37547
0
LINE
8
BLACK
6
CONTINUOUS
10
3.42351
20
-2.37547
11
3.42159
21
-2.37484
0
LINE
8
BLACK
6
CONTINUOUS
10
3.42159
20
-2.37484
11
3.41029
21
-2.36596
0
LINE
8
BLACK
6
CONTINUOUS
10
3.41029
20
-2.36596
11
3.399
21
-2.37484
0
LINE
8
BLACK
6
CONTINUOUS
10
3.399
20
-2.37484
11
3.39809
21
-2.37532
0
LINE
8
BLACK
6
CONTINUOUS
10
3.39809
20
-2.37532
11
3.39607
21
-2.37526
0
LINE
8
BLACK
6
CONTINUOUS
10
3.39607
20
-2.37526
11
3.39457
21
-2.37391
0
LINE
8
BLACK
6
CONTINUOUS
10
3.39457
20
-2.37391
11
3.39428
21
-2.37191
0
LINE
8
BLACK
6
CONTINUOUS
10
3.39428
20
-2.37191
11
3.39535
21
-2.37019
0
LINE
8
BLACK
6
CONTINUOUS
10
3.39535
20
-2.37019
11
3.40552
21
-2.3622
0
LINE
8
BLACK
6
CONTINUOUS
10
3.40552
20
-2.3622
11
3.39535
21
-2.35422
0
LINE
8
BLACK
6
CONTINUOUS
10
3.39535
20
-2.35422
11
3.39466
21
-2.35345
0
LINE
8
BLACK
6
CONTINUOUS
10
3.39466
20
-2.35345
11
3.39425
21
-2.35147
0
LINE
8
BLACK
6
CONTINUOUS
10
3.39425
20
-2.35147
11
3.3952
21
-2.34969
0
LINE
8
BLACK
6
CONTINUOUS
10
3.3952
20
-2.34969
11
3.39708
21
-2.34894
0
LINE
8
BLACK
6
CONTINUOUS
10
3.39708
20
-2.34894
11
3.399
21
-2.34957
0
LINE
8
BLACK
6
CONTINUOUS
10
3.42405
20
-2.31156
11
3.42418
21
-2.31155
0
LINE
8
BLACK
6
CONTINUOUS
10
3.42418
20
-2.31155
11
3.42491
21
-2.31206
0
LINE
8
BLACK
6
CONTINUOUS
10
3.42491
20
-2.31206
11
3.42568
21
-2.3125
0
LINE
8
BLACK
6
CONTINUOUS
10
3.42568
20
-2.3125
11
3.42573
21
-2.31263
0
LINE
8
BLACK
6
CONTINUOUS
10
3.42573
20
-2.31263
11
3.42584
21
-2.3127
0
LINE
8
BLACK
6
CONTINUOUS
10
3.42584
20
-2.3127
11
3.42607
21
-2.31356
0
LINE
8
BLACK
6
CONTINUOUS
10
3.42607
20
-2.31356
11
3.42637
21
-2.3144
0
LINE
8
BLACK
6
CONTINUOUS
10
3.42637
20
-2.3144
11
3.42637
21
-2.33877
0
LINE
8
BLACK
6
CONTINUOUS
10
3.42637
20
-2.33877
11
3.42619
21
-2.33978
0
LINE
8
BLACK
6
CONTINUOUS
10
3.42619
20
-2.33978
11
3.42489
21
-2.34133
0
LINE
8
BLACK
6
CONTINUOUS
10
3.42489
20
-2.34133
11
3.42291
21
-2.34168
0
LINE
8
BLACK
6
CONTINUOUS
10
3.42291
20
-2.34168
11
3.42116
21
-2.34067
0
LINE
8
BLACK
6
CONTINUOUS
10
3.42116
20
-2.34067
11
3.42047
21
-2.33877
0
LINE
8
BLACK
6
CONTINUOUS
10
3.42047
20
-2.33877
11
3.42047
21
-2.32153
0
LINE
8
BLACK
6
CONTINUOUS
10
3.42047
20
-2.32153
11
3.40301
21
-2.33898
0
LINE
8
BLACK
6
CONTINUOUS
10
3.40301
20
-2.33898
11
3.40217
21
-2.33957
0
LINE
8
BLACK
6
CONTINUOUS
10
3.40217
20
-2.33957
11
3.40199
21
-2.33959
0
LINE
8
BLACK
6
CONTINUOUS
10
3.40199
20
-2.33959
11
3.40185
21
-2.3397
0
LINE
8
BLACK
6
CONTINUOUS
10
3.40185
20
-2.3397
11
3.39623
21
-2.34157
0
LINE
8
BLACK
6
CONTINUOUS
10
3.39623
20
-2.34157
11
3.39536
21
-2.3417
0
LINE
8
BLACK
6
CONTINUOUS
10
3.39536
20
-2.3417
11
3.3953
21
-2.34172
0
LINE
8
BLACK
6
CONTINUOUS
10
3.3953
20
-2.34172
11
3.39155
21
-2.34172
0
LINE
8
BLACK
6
CONTINUOUS
10
3.39155
20
-2.34172
11
3.39054
21
-2.34154
0
LINE
8
BLACK
6
CONTINUOUS
10
3.39054
20
-2.34154
11
3.3904
21
-2.34143
0
LINE
8
BLACK
6
CONTINUOUS
10
3.3904
20
-2.34143
11
3.39023
21
-2.34141
0
LINE
8
BLACK
6
CONTINUOUS
10
3.39023
20
-2.34141
11
3.38648
21
-2.33954
0
LINE
8
BLACK
6
CONTINUOUS
10
3.38648
20
-2.33954
11
3.38577
21
-2.33901
0
LINE
8
BLACK
6
CONTINUOUS
10
3.38577
20
-2.33901
11
3.38571
21
-2.33898
0
LINE
8
BLACK
6
CONTINUOUS
10
3.38571
20
-2.33898
11
3.38383
21
-2.33711
0
LINE
8
BLACK
6
CONTINUOUS
10
3.38383
20
-2.33711
11
3.38333
21
-2.33639
0
LINE
8
BLACK
6
CONTINUOUS
10
3.38333
20
-2.33639
11
3.38328
21
-2.33634
0
LINE
8
BLACK
6
CONTINUOUS
10
3.38328
20
-2.33634
11
3.38141
21
-2.33259
0
LINE
8
BLACK
6
CONTINUOUS
10
3.38141
20
-2.33259
11
3.38111
21
-2.33161
0
LINE
8
BLACK
6
CONTINUOUS
10
3.38111
20
-2.33161
11
3.38116
21
-2.33144
0
LINE
8
BLACK
6
CONTINUOUS
10
3.38116
20
-2.33144
11
3.3811
21
-2.33127
0
LINE
8
BLACK
6
CONTINUOUS
10
3.3811
20
-2.33127
11
3.3811
21
-2.3219
0
LINE
8
BLACK
6
CONTINUOUS
10
3.3811
20
-2.3219
11
3.38127
21
-2.32089
0
LINE
8
BLACK
6
CONTINUOUS
10
3.38127
20
-2.32089
11
3.38139
21
-2.32075
0
LINE
8
BLACK
6
CONTINUOUS
10
3.38139
20
-2.32075
11
3.38141
21
-2.32058
0
LINE
8
BLACK
6
CONTINUOUS
10
3.38141
20
-2.32058
11
3.38328
21
-2.31683
0
LINE
8
BLACK
6
CONTINUOUS
10
3.38328
20
-2.31683
11
3.38381
21
-2.31612
0
LINE
8
BLACK
6
CONTINUOUS
10
3.38381
20
-2.31612
11
3.38383
21
-2.31606
0
LINE
8
BLACK
6
CONTINUOUS
10
3.38383
20
-2.31606
11
3.38571
21
-2.31419
0
LINE
8
BLACK
6
CONTINUOUS
10
3.38571
20
-2.31419
11
3.38655
21
-2.3136
0
LINE
8
BLACK
6
CONTINUOUS
10
3.38655
20
-2.3136
11
3.38856
21
-2.31342
0
LINE
8
BLACK
6
CONTINUOUS
10
3.38856
20
-2.31342
11
3.39022
21
-2.31458
0
LINE
8
BLACK
6
CONTINUOUS
10
3.39022
20
-2.31458
11
3.39074
21
-2.31653
0
LINE
8
BLACK
6
CONTINUOUS
10
3.39074
20
-2.31653
11
3.38989
21
-2.31836
0
LINE
8
BLACK
6
CONTINUOUS
10
3.38989
20
-2.31836
11
3.38835
21
-2.3199
0
LINE
8
BLACK
6
CONTINUOUS
10
3.38835
20
-2.3199
11
3.387
21
-2.32259
0
LINE
8
BLACK
6
CONTINUOUS
10
3.387
20
-2.32259
11
3.387
21
-2.33057
0
LINE
8
BLACK
6
CONTINUOUS
10
3.387
20
-2.33057
11
3.38835
21
-2.33327
0
LINE
8
BLACK
6
CONTINUOUS
10
3.38835
20
-2.33327
11
3.38955
21
-2.33447
0
LINE
8
BLACK
6
CONTINUOUS
10
3.38955
20
-2.33447
11
3.39224
21
-2.33582
0
LINE
8
BLACK
6
CONTINUOUS
10
3.39224
20
-2.33582
11
3.39482
21
-2.33582
0
LINE
8
BLACK
6
CONTINUOUS
10
3.39482
20
-2.33582
11
3.39933
21
-2.33431
0
LINE
8
BLACK
6
CONTINUOUS
10
3.39933
20
-2.33431
11
3.42133
21
-2.31231
0
LINE
8
BLACK
6
CONTINUOUS
10
3.42133
20
-2.31231
11
3.42186
21
-2.31194
0
LINE
8
BLACK
6
CONTINUOUS
10
3.42186
20
-2.31194
11
3.42194
21
-2.31184
0
LINE
8
BLACK
6
CONTINUOUS
10
3.42194
20
-2.31184
11
3.42202
21
-2.31183
0
LINE
8
BLACK
6
CONTINUOUS
10
3.42202
20
-2.31183
11
3.42217
21
-2.31172
0
LINE
8
BLACK
6
CONTINUOUS
10
3.42217
20
-2.31172
11
3.42306
21
-2.31164
0
LINE
8
BLACK
6
CONTINUOUS
10
3.42306
20
-2.31164
11
3.42393
21
-2.31149
0
LINE
8
BLACK
6
CONTINUOUS
10
3.42393
20
-2.31149
11
3.42405
21
-2.31156
0
LINE
8
BLACK
6
CONTINUOUS
10
3.409
20
-2.27593
11
3.40914
21
-2.27591
0
LINE
8
BLACK
6
CONTINUOUS
10
3.40914
20
-2.27591
11
3.41664
21
-2.27779
0
LINE
8
BLACK
6
CONTINUOUS
10
3.41664
20
-2.27779
11
3.4171
21
-2.278
0
LINE
8
BLACK
6
CONTINUOUS
10
3.4171
20
-2.278
11
3.41724
21
-2.27801
0
LINE
8
BLACK
6
CONTINUOUS
10
3.41724
20
-2.27801
11
3.42099
21
-2.27989
0
LINE
8
BLACK
6
CONTINUOUS
10
3.42099
20
-2.27989
11
3.4217
21
-2.28041
0
LINE
8
BLACK
6
CONTINUOUS
10
3.4217
20
-2.28041
11
3.42176
21
-2.28044
0
LINE
8
BLACK
6
CONTINUOUS
10
3.42176
20
-2.28044
11
3.42363
21
-2.28231
0
LINE
8
BLACK
6
CONTINUOUS
10
3.42363
20
-2.28231
11
3.42414
21
-2.28304
0
LINE
8
BLACK
6
CONTINUOUS
10
3.42414
20
-2.28304
11
3.42418
21
-2.28308
0
LINE
8
BLACK
6
CONTINUOUS
10
3.42418
20
-2.28308
11
3.42606
21
-2.28683
0
LINE
8
BLACK
6
CONTINUOUS
10
3.42606
20
-2.28683
11
3.42635
21
-2.28781
0
LINE
8
BLACK
6
CONTINUOUS
10
3.42635
20
-2.28781
11
3.42631
21
-2.28799
0
LINE
8
BLACK
6
CONTINUOUS
10
3.42631
20
-2.28799
11
3.42637
21
-2.28815
0
LINE
8
BLACK
6
CONTINUOUS
10
3.42637
20
-2.28815
11
3.42637
21
-2.2919
0
LINE
8
BLACK
6
CONTINUOUS
10
3.42637
20
-2.2919
11
3.42619
21
-2.29291
0
LINE
8
BLACK
6
CONTINUOUS
10
3.42619
20
-2.29291
11
3.42608
21
-2.29305
0
LINE
8
BLACK
6
CONTINUOUS
10
3.42608
20
-2.29305
11
3.42606
21
-2.29322
0
LINE
8
BLACK
6
CONTINUOUS
10
3.42606
20
-2.29322
11
3.42418
21
-2.29697
0
LINE
8
BLACK
6
CONTINUOUS
10
3.42418
20
-2.29697
11
3.42366
21
-2.29768
0
LINE
8
BLACK
6
CONTINUOUS
10
3.42366
20
-2.29768
11
3.42363
21
-2.29774
0
LINE
8
BLACK
6
CONTINUOUS
10
3.42363
20
-2.29774
11
3.42176
21
-2.29961
0
LINE
8
BLACK
6
CONTINUOUS
10
3.42176
20
-2.29961
11
3.42103
21
-2.30012
0
LINE
8
BLACK
6
CONTINUOUS
10
3.42103
20
-2.30012
11
3.42099
21
-2.30017
0
LINE
8
BLACK
6
CONTINUOUS
10
3.42099
20
-2.30017
11
3.41724
21
-2.30204
0
LINE
8
BLACK
6
CONTINUOUS
10
3.41724
20
-2.30204
11
3.41675
21
-2.30219
0
LINE
8
BLACK
6
CONTINUOUS
10
3.41675
20
-2.30219
11
3.41664
21
-2.30226
0
LINE
8
BLACK
6
CONTINUOUS
10
3.41664
20
-2.30226
11
3.40914
21
-2.30414
0
LINE
8
BLACK
6
CONTINUOUS
10
3.40914
20
-2.30414
11
3.40855
21
-2.30418
0
LINE
8
BLACK
6
CONTINUOUS
10
3.40855
20
-2.30418
11
3.40842
21
-2.30423
0
LINE
8
BLACK
6
CONTINUOUS
10
3.40842
20
-2.30423
11
3.39905
21
-2.30423
0
LINE
8
BLACK
6
CONTINUOUS
10
3.39905
20
-2.30423
11
3.39847
21
-2.30413
0
LINE
8
BLACK
6
CONTINUOUS
10
3.39847
20
-2.30413
11
3.39833
21
-2.30414
0
LINE
8
BLACK
6
CONTINUOUS
10
3.39833
20
-2.30414
11
3.39083
21
-2.30226
0
LINE
8
BLACK
6
CONTINUOUS
10
3.39083
20
-2.30226
11
3.39037
21
-2.30206
0
LINE
8
BLACK
6
CONTINUOUS
10
3.39037
20
-2.30206
11
3.39023
21
-2.30204
0
LINE
8
BLACK
6
CONTINUOUS
10
3.39023
20
-2.30204
11
3.38648
21
-2.30017
0
LINE
8
BLACK
6
CONTINUOUS
10
3.38648
20
-2.30017
11
3.38577
21
-2.29964
0
LINE
8
BLACK
6
CONTINUOUS
10
3.38577
20
-2.29964
11
3.38571
21
-2.29961
0
LINE
8
BLACK
6
CONTINUOUS
10
3.38571
20
-2.29961
11
3.38383
21
-2.29774
0
LINE
8
BLACK
6
CONTINUOUS
10
3.38383
20
-2.29774
11
3.38333
21
-2.29702
0
LINE
8
BLACK
6
CONTINUOUS
10
3.38333
20
-2.29702
11
3.38328
21
-2.29697
0
LINE
8
BLACK
6
CONTINUOUS
10
3.38328
20
-2.29697
11
3.38141
21
-2.29322
0
LINE
8
BLACK
6
CONTINUOUS
10
3.38141
20
-2.29322
11
3.38111
21
-2.29224
0
LINE
8
BLACK
6
CONTINUOUS
10
3.38111
20
-2.29224
11
3.38116
21
-2.29207
0
LINE
8
BLACK
6
CONTINUOUS
10
3.38116
20
-2.29207
11
3.3811
21
-2.2919
0
LINE
8
BLACK
6
CONTINUOUS
10
3.3811
20
-2.2919
11
3.3811
21
-2.28815
0
LINE
8
BLACK
6
CONTINUOUS
10
3.3811
20
-2.28815
11
3.38127
21
-2.28714
0
LINE
8
BLACK
6
CONTINUOUS
10
3.38127
20
-2.28714
11
3.38139
21
-2.28701
0
LINE
8
BLACK
6
CONTINUOUS
10
3.38139
20
-2.28701
11
3.38141
21
-2.28683
0
LINE
8
BLACK
6
CONTINUOUS
10
3.38141
20
-2.28683
11
3.38328
21
-2.28308
0
LINE
8
BLACK
6
CONTINUOUS
10
3.38328
20
-2.28308
11
3.38381
21
-2.28237
0
LINE
8
BLACK
6
CONTINUOUS
10
3.38381
20
-2.28237
11
3.38383
21
-2.28231
0
LINE
8
BLACK
6
CONTINUOUS
10
3.38383
20
-2.28231
11
3.38571
21
-2.28044
0
LINE
8
BLACK
6
CONTINUOUS
10
3.38571
20
-2.28044
11
3.38643
21
-2.27993
0
LINE
8
BLACK
6
CONTINUOUS
10
3.38643
20
-2.27993
11
3.38648
21
-2.27989
0
LINE
8
BLACK
6
CONTINUOUS
10
3.38648
20
-2.27989
11
3.39023
21
-2.27801
0
LINE
8
BLACK
6
CONTINUOUS
10
3.39023
20
-2.27801
11
3.39071
21
-2.27787
0
LINE
8
BLACK
6
CONTINUOUS
10
3.39071
20
-2.27787
11
3.39083
21
-2.27779
0
LINE
8
BLACK
6
CONTINUOUS
10
3.39083
20
-2.27779
11
3.39833
21
-2.27591
0
LINE
8
BLACK
6
CONTINUOUS
10
3.39833
20
-2.27591
11
3.39892
21
-2.27587
0
LINE
8
BLACK
6
CONTINUOUS
10
3.39892
20
-2.27587
11
3.39905
21
-2.27582
0
LINE
8
BLACK
6
CONTINUOUS
10
3.39905
20
-2.27582
11
3.40842
21
-2.27582
0
LINE
8
BLACK
6
CONTINUOUS
10
3.40842
20
-2.27582
11
3.409
21
-2.27593
0
LINE
8
BLACK
6
CONTINUOUS
10
3.39258
20
-2.28344
11
3.38955
21
-2.28495
0
LINE
8
BLACK
6
CONTINUOUS
10
3.38955
20
-2.28495
11
3.38835
21
-2.28615
0
LINE
8
BLACK
6
CONTINUOUS
10
3.38835
20
-2.28615
11
3.387
21
-2.28885
0
LINE
8
BLACK
6
CONTINUOUS
10
3.387
20
-2.28885
11
3.387
21
-2.2912
0
LINE
8
BLACK
6
CONTINUOUS
10
3.387
20
-2.2912
11
3.38835
21
-2.2939
0
LINE
8
BLACK
6
CONTINUOUS
10
3.38835
20
-2.2939
11
3.38955
21
-2.2951
0
LINE
8
BLACK
6
CONTINUOUS
10
3.38955
20
-2.2951
11
3.39258
21
-2.29661
0
LINE
8
BLACK
6
CONTINUOUS
10
3.39258
20
-2.29661
11
3.39941
21
-2.29832
0
LINE
8
BLACK
6
CONTINUOUS
10
3.39941
20
-2.29832
11
3.40806
21
-2.29832
0
LINE
8
BLACK
6
CONTINUOUS
10
3.40806
20
-2.29832
11
3.41489
21
-2.29661
0
LINE
8
BLACK
6
CONTINUOUS
10
3.41489
20
-2.29661
11
3.41792
21
-2.2951
0
LINE
8
BLACK
6
CONTINUOUS
10
3.41792
20
-2.2951
11
3.41912
21
-2.2939
0
LINE
8
BLACK
6
CONTINUOUS
10
3.41912
20
-2.2939
11
3.42047
21
-2.2912
0
LINE
8
BLACK
6
CONTINUOUS
10
3.42047
20
-2.2912
11
3.42047
21
-2.28885
0
LINE
8
BLACK
6
CONTINUOUS
10
3.42047
20
-2.28885
11
3.41912
21
-2.28615
0
LINE
8
BLACK
6
CONTINUOUS
10
3.41912
20
-2.28615
11
3.41792
21
-2.28495
0
LINE
8
BLACK
6
CONTINUOUS
10
3.41792
20
-2.28495
11
3.41489
21
-2.28344
0
LINE
8
BLACK
6
CONTINUOUS
10
3.41489
20
-2.28344
11
3.40806
21
-2.28173
0
LINE
8
BLACK
6
CONTINUOUS
10
3.40806
20
-2.28173
11
3.39941
21
-2.28173
0
LINE
8
BLACK
6
CONTINUOUS
10
3.39941
20
-2.28173
11
3.39258
21
-2.28344
0
LINE
8
BLACK
6
CONTINUOUS
10
3.33961
20
-2.16971
11
3.34466
21
-2.17281
0
LINE
8
BLACK
6
CONTINUOUS
10
3.34466
20
-2.17281
11
3.34532
21
-2.17339
0
LINE
8
BLACK
6
CONTINUOUS
10
3.34532
20
-2.17339
11
3.34538
21
-2.17343
0
LINE
8
BLACK
6
CONTINUOUS
10
3.34538
20
-2.17343
11
3.35141
21
-2.18061
0
LINE
8
BLACK
6
CONTINUOUS
10
3.35141
20
-2.18061
11
3.35192
21
-2.1815
0
LINE
8
BLACK
6
CONTINUOUS
10
3.35192
20
-2.1815
11
3.35192
21
-2.18167
0
LINE
8
BLACK
6
CONTINUOUS
10
3.35192
20
-2.18167
11
3.35202
21
-2.18182
0
LINE
8
BLACK
6
CONTINUOUS
10
3.35202
20
-2.18182
11
3.35299
21
-2.1859
0
LINE
8
BLACK
6
CONTINUOUS
10
3.35299
20
-2.1859
11
3.35304
21
-2.18678
0
LINE
8
BLACK
6
CONTINUOUS
10
3.35304
20
-2.18678
11
3.35306
21
-2.18684
0
LINE
8
BLACK
6
CONTINUOUS
10
3.35306
20
-2.18684
11
3.35283
21
-2.18948
0
LINE
8
BLACK
6
CONTINUOUS
10
3.35283
20
-2.18948
11
3.3526
21
-2.19033
0
LINE
8
BLACK
6
CONTINUOUS
10
3.3526
20
-2.19033
11
3.3526
21
-2.1904
0
LINE
8
BLACK
6
CONTINUOUS
10
3.3526
20
-2.1904
11
3.35093
21
-2.19424
0
LINE
8
BLACK
6
CONTINUOUS
10
3.35093
20
-2.19424
11
3.35036
21
-2.1951
0
LINE
8
BLACK
6
CONTINUOUS
10
3.35036
20
-2.1951
11
3.35021
21
-2.19518
0
LINE
8
BLACK
6
CONTINUOUS
10
3.35021
20
-2.19518
11
3.35012
21
-2.19533
0
LINE
8
BLACK
6
CONTINUOUS
10
3.35012
20
-2.19533
11
3.34724
21
-2.19774
0
LINE
8
BLACK
6
CONTINUOUS
10
3.34724
20
-2.19774
11
3.34636
21
-2.19826
0
LINE
8
BLACK
6
CONTINUOUS
10
3.34636
20
-2.19826
11
3.34618
21
-2.19826
0
LINE
8
BLACK
6
CONTINUOUS
10
3.34618
20
-2.19826
11
3.34603
21
-2.19835
0
LINE
8
BLACK
6
CONTINUOUS
10
3.34603
20
-2.19835
11
3.34196
21
-2.19933
0
LINE
8
BLACK
6
CONTINUOUS
10
3.34196
20
-2.19933
11
3.34107
21
-2.19938
0
LINE
8
BLACK
6
CONTINUOUS
10
3.34107
20
-2.19938
11
3.34101
21
-2.1994
0
LINE
8
BLACK
6
CONTINUOUS
10
3.34101
20
-2.1994
11
3.33837
21
-2.19917
0
LINE
8
BLACK
6
CONTINUOUS
10
3.33837
20
-2.19917
11
3.33752
21
-2.19894
0
LINE
8
BLACK
6
CONTINUOUS
10
3.33752
20
-2.19894
11
3.33745
21
-2.19893
0
LINE
8
BLACK
6
CONTINUOUS
10
3.33745
20
-2.19893
11
3.33361
21
-2.19727
0
LINE
8
BLACK
6
CONTINUOUS
10
3.33361
20
-2.19727
11
3.33318
21
-2.19698
0
LINE
8
BLACK
6
CONTINUOUS
10
3.33318
20
-2.19698
11
3.33305
21
-2.19695
0
LINE
8
BLACK
6
CONTINUOUS
10
3.33305
20
-2.19695
11
3.32705
21
-2.1926
0
LINE
8
BLACK
6
CONTINUOUS
10
3.32705
20
-2.1926
11
3.32394
21
-2.19125
0
LINE
8
BLACK
6
CONTINUOUS
10
3.32394
20
-2.19125
11
3.32226
21
-2.1911
0
LINE
8
BLACK
6
CONTINUOUS
10
3.32226
20
-2.1911
11
3.31932
21
-2.1918
0
LINE
8
BLACK
6
CONTINUOUS
10
3.31932
20
-2.1918
11
3.31752
21
-2.19332
0
LINE
8
BLACK
6
CONTINUOUS
10
3.31752
20
-2.19332
11
3.31632
21
-2.19608
0
LINE
8
BLACK
6
CONTINUOUS
10
3.31632
20
-2.19608
11
3.31617
21
-2.19777
0
LINE
8
BLACK
6
CONTINUOUS
10
3.31617
20
-2.19777
11
3.31687
21
-2.2007
0
LINE
8
BLACK
6
CONTINUOUS
10
3.31687
20
-2.2007
11
3.32214
21
-2.20698
0
LINE
8
BLACK
6
CONTINUOUS
10
3.32214
20
-2.20698
11
3.32679
21
-2.20984
0
LINE
8
BLACK
6
CONTINUOUS
10
3.32679
20
-2.20984
11
3.32755
21
-2.21052
0
LINE
8
BLACK
6
CONTINUOUS
10
3.32755
20
-2.21052
11
3.32819
21
-2.21243
0
LINE
8
BLACK
6
CONTINUOUS
10
3.32819
20
-2.21243
11
3.32745
21
-2.21431
0
LINE
8
BLACK
6
CONTINUOUS
10
3.32745
20
-2.21431
11
3.32567
21
-2.21527
0
LINE
8
BLACK
6
CONTINUOUS
10
3.32567
20
-2.21527
11
3.32369
21
-2.21487
0
LINE
8
BLACK
6
CONTINUOUS
10
3.32369
20
-2.21487
11
3.31864
21
-2.21176
0
LINE
8
BLACK
6
CONTINUOUS
10
3.31864
20
-2.21176
11
3.31798
21
-2.21118
0
LINE
8
BLACK
6
CONTINUOUS
10
3.31798
20
-2.21118
11
3.31793
21
-2.21115
0
LINE
8
BLACK
6
CONTINUOUS
10
3.31793
20
-2.21115
11
3.3119
21
-2.20397
0
LINE
8
BLACK
6
CONTINUOUS
10
3.3119
20
-2.20397
11
3.31139
21
-2.20308
0
LINE
8
BLACK
6
CONTINUOUS
10
3.31139
20
-2.20308
11
3.31139
21
-2.2029
0
LINE
8
BLACK
6
CONTINUOUS
10
3.31139
20
-2.2029
11
3.31129
21
-2.20275
0
LINE
8
BLACK
6
CONTINUOUS
10
3.31129
20
-2.20275
11
3.31032
21
-2.19868
0
LINE
8
BLACK
6
CONTINUOUS
10
3.31032
20
-2.19868
11
3.31026
21
-2.1978
0
LINE
8
BLACK
6
CONTINUOUS
10
3.31026
20
-2.1978
11
3.31025
21
-2.19773
0
LINE
8
BLACK
6
CONTINUOUS
10
3.31025
20
-2.19773
11
3.31048
21
-2.19509
0
LINE
8
BLACK
6
CONTINUOUS
10
3.31048
20
-2.19509
11
3.31071
21
-2.19424
0
LINE
8
BLACK
6
CONTINUOUS
10
3.31071
20
-2.19424
11
3.31071
21
-2.19417
0
LINE
8
BLACK
6
CONTINUOUS
10
3.31071
20
-2.19417
11
3.31238
21
-2.19033
0
LINE
8
BLACK
6
CONTINUOUS
10
3.31238
20
-2.19033
11
3.31294
21
-2.18947
0
LINE
8
BLACK
6
CONTINUOUS
10
3.31294
20
-2.18947
11
3.3131
21
-2.18939
0
LINE
8
BLACK
6
CONTINUOUS
10
3.3131
20
-2.18939
11
3.31319
21
-2.18924
0
LINE
8
BLACK
6
CONTINUOUS
10
3.31319
20
-2.18924
11
3.31606
21
-2.18683
0
LINE
8
BLACK
6
CONTINUOUS
10
3.31606
20
-2.18683
11
3.31695
21
-2.18632
0
LINE
8
BLACK
6
CONTINUOUS
10
3.31695
20
-2.18632
11
3.31713
21
-2.18632
0
LINE
8
BLACK
6
CONTINUOUS
10
3.31713
20
-2.18632
11
3.31727
21
-2.18622
0
LINE
8
BLACK
6
CONTINUOUS
10
3.31727
20
-2.18622
11
3.32135
21
-2.18525
0
LINE
8
BLACK
6
CONTINUOUS
10
3.32135
20
-2.18525
11
3.32223
21
-2.18519
0
LINE
8
BLACK
6
CONTINUOUS
10
3.32223
20
-2.18519
11
3.32229
21
-2.18518
0
LINE
8
BLACK
6
CONTINUOUS
10
3.32229
20
-2.18518
11
3.32494
21
-2.18541
0
LINE
8
BLACK
6
CONTINUOUS
10
3.32494
20
-2.18541
11
3.32579
21
-2.18564
0
LINE
8
BLACK
6
CONTINUOUS
10
3.32579
20
-2.18564
11
3.32585
21
-2.18564
0
LINE
8
BLACK
6
CONTINUOUS
10
3.32585
20
-2.18564
11
3.3297
21
-2.18731
0
LINE
8
BLACK
6
CONTINUOUS
10
3.3297
20
-2.18731
11
3.33012
21
-2.18759
0
LINE
8
BLACK
6
CONTINUOUS
10
3.33012
20
-2.18759
11
3.33026
21
-2.18763
0
LINE
8
BLACK
6
CONTINUOUS
10
3.33026
20
-2.18763
11
3.33625
21
-2.19198
0
LINE
8
BLACK
6
CONTINUOUS
10
3.33625
20
-2.19198
11
3.33936
21
-2.19332
0
LINE
8
BLACK
6
CONTINUOUS
10
3.33936
20
-2.19332
11
3.34105
21
-2.19347
0
LINE
8
BLACK
6
CONTINUOUS
10
3.34105
20
-2.19347
11
3.34398
21
-2.19277
0
LINE
8
BLACK
6
CONTINUOUS
10
3.34398
20
-2.19277
11
3.34579
21
-2.19126
0
LINE
8
BLACK
6
CONTINUOUS
10
3.34579
20
-2.19126
11
3.34699
21
-2.18849
0
LINE
8
BLACK
6
CONTINUOUS
10
3.34699
20
-2.18849
11
3.34713
21
-2.1868
0
LINE
8
BLACK
6
CONTINUOUS
10
3.34713
20
-2.1868
11
3.34643
21
-2.18387
0
LINE
8
BLACK
6
CONTINUOUS
10
3.34643
20
-2.18387
11
3.34116
21
-2.17759
0
LINE
8
BLACK
6
CONTINUOUS
10
3.34116
20
-2.17759
11
3.33652
21
-2.17474
0
LINE
8
BLACK
6
CONTINUOUS
10
3.33652
20
-2.17474
11
3.33575
21
-2.17406
0
LINE
8
BLACK
6
CONTINUOUS
10
3.33575
20
-2.17406
11
3.33511
21
-2.17214
0
LINE
8
BLACK
6
CONTINUOUS
10
3.33511
20
-2.17214
11
3.33586
21
-2.17026
0
LINE
8
BLACK
6
CONTINUOUS
10
3.33586
20
-2.17026
11
3.33763
21
-2.1693
0
LINE
8
BLACK
6
CONTINUOUS
10
3.33763
20
-2.1693
11
3.33961
21
-2.16971
0
LINE
8
BLACK
6
CONTINUOUS
10
3.32398
20
-2.148
11
3.32433
21
-2.14999
0
LINE
8
BLACK
6
CONTINUOUS
10
3.32433
20
-2.14999
11
3.32332
21
-2.15174
0
LINE
8
BLACK
6
CONTINUOUS
10
3.32332
20
-2.15174
11
3.30215
21
-2.1695
0
LINE
8
BLACK
6
CONTINUOUS
10
3.30215
20
-2.1695
11
3.29966
21
-2.17355
0
LINE
8
BLACK
6
CONTINUOUS
10
3.29966
20
-2.17355
11
3.29932
21
-2.17745
0
LINE
8
BLACK
6
CONTINUOUS
10
3.29932
20
-2.17745
11
3.30107
21
-2.18187
0
LINE
8
BLACK
6
CONTINUOUS
10
3.30107
20
-2.18187
11
3.30317
21
-2.18437
0
LINE
8
BLACK
6
CONTINUOUS
10
3.30317
20
-2.18437
11
3.30368
21
-2.18526
0
LINE
8
BLACK
6
CONTINUOUS
10
3.30368
20
-2.18526
11
3.30368
21
-2.18728
0
LINE
8
BLACK
6
CONTINUOUS
10
3.30368
20
-2.18728
11
3.30238
21
-2.18883
0
LINE
8
BLACK
6
CONTINUOUS
10
3.30238
20
-2.18883
11
3.3004
21
-2.18918
0
LINE
8
BLACK
6
CONTINUOUS
10
3.3004
20
-2.18918
11
3.29865
21
-2.18817
0
LINE
8
BLACK
6
CONTINUOUS
10
3.29865
20
-2.18817
11
3.29624
21
-2.1853
0
LINE
8
BLACK
6
CONTINUOUS
10
3.29624
20
-2.1853
11
3.29579
21
-2.18453
0
LINE
8
BLACK
6
CONTINUOUS
10
3.29579
20
-2.18453
11
3.29575
21
-2.18448
0
LINE
8
BLACK
6
CONTINUOUS
10
3.29575
20
-2.18448
11
3.29357
21
-2.17897
0
LINE
8
BLACK
6
CONTINUOUS
10
3.29357
20
-2.17897
11
3.29337
21
-2.17796
0
LINE
8
BLACK
6
CONTINUOUS
10
3.29337
20
-2.17796
11
3.29342
21
-2.1778
0
LINE
8
BLACK
6
CONTINUOUS
10
3.29342
20
-2.1778
11
3.29338
21
-2.17763
0
LINE
8
BLACK
6
CONTINUOUS
10
3.29338
20
-2.17763
11
3.29384
21
-2.17234
0
LINE
8
BLACK
6
CONTINUOUS
10
3.29384
20
-2.17234
11
3.2941
21
-2.17135
0
LINE
8
BLACK
6
CONTINUOUS
10
3.2941
20
-2.17135
11
3.29423
21
-2.17123
0
LINE
8
BLACK
6
CONTINUOUS
10
3.29423
20
-2.17123
11
3.29426
21
-2.17106
0
LINE
8
BLACK
6
CONTINUOUS
10
3.29426
20
-2.17106
11
3.29737
21
-2.166
0
LINE
8
BLACK
6
CONTINUOUS
10
3.29737
20
-2.166
11
3.29795
21
-2.16534
0
LINE
8
BLACK
6
CONTINUOUS
10
3.29795
20
-2.16534
11
3.29799
21
-2.16529
0
LINE
8
BLACK
6
CONTINUOUS
10
3.29799
20
-2.16529
11
3.31953
21
-2.14721
0
LINE
8
BLACK
6
CONTINUOUS
10
3.31953
20
-2.14721
11
3.32042
21
-2.1467
0
LINE
8
BLACK
6
CONTINUOUS
10
3.32042
20
-2.1467
11
3.32244
21
-2.1467
0
LINE
8
BLACK
6
CONTINUOUS
10
3.32244
20
-2.1467
11
3.32398
21
-2.148
  0
ENDSEC
  0
EOF
