  0
SECTION
  2
HEADER
  9
$ANGBASE
  50
0.0
  9
$ANGDIR
  70
1
  9
$MEASUREMENT
  70
0
  0
ENDSEC
  0
SECTION
  2
TABLES
  0
TABLE
  2
LTYPE
  70
4
  0
LTYPE
  5
40F
  2
CONTINUOUS
  70
0
  3
Solid line
  72
65
  73
0
  40
0.0
  0
LTYPE
  5
410
  2
DASHDOT
 70
0
  3
Dash Dot ____ _ ____ _
 72
65
 73
4
 40
2.0
 49
1.25
 49
-0.25
 49
0.25
 49
-0.25
  0
LTYPE
  5
411
  2
DASHED
 70
0
  3
Dashed __ __ __ __ __
 72
65
 73
2
 40
0.75
 49
0.5
 49
-0.25
  0
LTYPE
  5
43B
  2
DOTTED
 70
0
  3
Dotted .  .  .  .
 72
65
 73
2
 40
0.2
 49
0.0
 49
-0.2
  0
ENDTAB
  0
TABLE
  2
STYLE
  70
4
  0
STYLE
  2
KICAD
  70
0
  40
0
  41
1
  42
1
  50
0
  71
0
  3
isocp.shx
  0
STYLE
  2
KICADB
  70
0
  40
0
  41
1
  42
1
  50
0
  71
0
  3
isocp.shx
  0
STYLE
  2
KICADI
  70
0
  40
0
  41
1
  42
1
  50
15
  71
0
  3
isocp.shx
  0
STYLE
  2
KICADBI
  70
0
  40
0
  41
1
  42
1
  50
15
  71
0
  3
isocp.shx
  0
ENDTAB
  0
TABLE
  2
LAYER
  70
1
  0
LAYER
  2
BLACK
  70
0
  62
7
  6
CONTINUOUS
  0
ENDTAB
  0
ENDSEC
  0
SECTION
  2
ENTITIES
0
LINE
8
BLACK
6
CONTINUOUS
10
3.16258
20
-1.89014
11
3.17568
21
-1.89051
0
LINE
8
BLACK
6
CONTINUOUS
10
3.17568
20
-1.89051
11
3.17578
21
-1.89052
0
LINE
8
BLACK
6
CONTINUOUS
10
3.17578
20
-1.89052
11
3.17619
21
-1.89055
0
LINE
8
BLACK
6
CONTINUOUS
10
3.17619
20
-1.89055
11
3.18919
21
-1.89162
0
LINE
8
BLACK
6
CONTINUOUS
10
3.18919
20
-1.89162
11
3.19835
21
-1.89241
0
LINE
8
BLACK
6
CONTINUOUS
10
3.19835
20
-1.89241
11
3.20207
21
-1.89274
0
LINE
8
BLACK
6
CONTINUOUS
10
3.20207
20
-1.89274
11
3.20217
21
-1.89275
0
LINE
8
BLACK
6
CONTINUOUS
10
3.20217
20
-1.89275
11
3.20323
21
-1.89289
0
LINE
8
BLACK
6
CONTINUOUS
10
3.20323
20
-1.89289
11
3.21554
21
-1.89458
0
LINE
8
BLACK
6
CONTINUOUS
10
3.21554
20
-1.89458
11
3.2283
21
-1.89643
0
LINE
8
BLACK
6
CONTINUOUS
10
3.2283
20
-1.89643
11
3.22838
21
-1.89645
0
LINE
8
BLACK
6
CONTINUOUS
10
3.22838
20
-1.89645
11
3.24165
21
-1.89901
0
LINE
8
BLACK
6
CONTINUOUS
10
3.24165
20
-1.89901
11
3.25432
21
-1.9016
0
LINE
8
BLACK
6
CONTINUOUS
10
3.25432
20
-1.9016
11
3.26747
21
-1.90489
0
LINE
8
BLACK
6
CONTINUOUS
10
3.26747
20
-1.90489
11
3.27726
21
-1.90749
0
LINE
8
BLACK
6
CONTINUOUS
10
3.27726
20
-1.90749
11
3.27996
21
-1.9082
0
LINE
8
BLACK
6
CONTINUOUS
10
3.27996
20
-1.9082
11
3.29292
21
-1.91221
0
LINE
8
BLACK
6
CONTINUOUS
10
3.29292
20
-1.91221
11
3.30519
21
-1.91624
0
LINE
8
BLACK
6
CONTINUOUS
10
3.30519
20
-1.91624
11
3.31792
21
-1.92095
0
LINE
8
BLACK
6
CONTINUOUS
10
3.31792
20
-1.92095
11
3.32993
21
-1.92567
0
LINE
8
BLACK
6
CONTINUOUS
10
3.32993
20
-1.92567
11
3.34239
21
-1.93107
0
LINE
8
BLACK
6
CONTINUOUS
10
3.34239
20
-1.93107
11
3.35411
21
-1.93647
0
LINE
8
BLACK
6
CONTINUOUS
10
3.35411
20
-1.93647
11
3.36625
21
-1.94254
0
LINE
8
BLACK
6
CONTINUOUS
10
3.36625
20
-1.94254
11
3.37764
21
-1.94861
0
LINE
8
BLACK
6
CONTINUOUS
10
3.37764
20
-1.94861
11
3.38943
21
-1.95533
0
LINE
8
BLACK
6
CONTINUOUS
10
3.38943
20
-1.95533
11
3.39657
21
-1.95968
0
LINE
8
BLACK
6
CONTINUOUS
10
3.39657
20
-1.95968
11
3.40046
21
-1.96205
0
LINE
8
BLACK
6
CONTINUOUS
10
3.40046
20
-1.96205
11
3.41186
21
-1.9694
0
LINE
8
BLACK
6
CONTINUOUS
10
3.41186
20
-1.9694
11
3.42248
21
-1.97674
0
LINE
8
BLACK
6
CONTINUOUS
10
3.42248
20
-1.97674
11
3.42901
21
-1.98147
0
LINE
8
BLACK
6
CONTINUOUS
10
3.42901
20
-1.98147
11
3.43347
21
-1.98471
0
LINE
8
BLACK
6
CONTINUOUS
10
3.43347
20
-1.98471
11
3.44365
21
-1.99265
0
LINE
8
BLACK
6
CONTINUOUS
10
3.44365
20
-1.99265
11
3.45419
21
-2.0012
0
LINE
8
BLACK
6
CONTINUOUS
10
3.45419
20
-2.0012
11
3.4639
21
-2.00971
0
LINE
8
BLACK
6
CONTINUOUS
10
3.4639
20
-2.00971
11
3.47395
21
-2.01882
0
LINE
8
BLACK
6
CONTINUOUS
10
3.47395
20
-2.01882
11
3.48316
21
-2.02788
0
LINE
8
BLACK
6
CONTINUOUS
10
3.48316
20
-2.02788
11
3.49269
21
-2.03753
0
LINE
8
BLACK
6
CONTINUOUS
10
3.49269
20
-2.03753
11
3.50137
21
-2.04711
0
LINE
8
BLACK
6
CONTINUOUS
10
3.50137
20
-2.04711
11
3.51033
21
-2.05722
0
LINE
8
BLACK
6
CONTINUOUS
10
3.51033
20
-2.05722
11
3.51039
21
-2.05729
0
LINE
8
BLACK
6
CONTINUOUS
10
3.51039
20
-2.05729
11
3.51848
21
-2.06733
0
LINE
8
BLACK
6
CONTINUOUS
10
3.51848
20
-2.06733
11
3.52687
21
-2.0779
0
LINE
8
BLACK
6
CONTINUOUS
10
3.52687
20
-2.0779
11
3.52693
21
-2.07798
0
LINE
8
BLACK
6
CONTINUOUS
10
3.52693
20
-2.07798
11
3.53444
21
-2.08849
0
LINE
8
BLACK
6
CONTINUOUS
10
3.53444
20
-2.08849
11
3.54222
21
-2.09948
0
LINE
8
BLACK
6
CONTINUOUS
10
3.54222
20
-2.09948
11
3.54228
21
-2.09956
0
LINE
8
BLACK
6
CONTINUOUS
10
3.54228
20
-2.09956
11
3.54926
21
-2.11063
0
LINE
8
BLACK
6
CONTINUOUS
10
3.54926
20
-2.11063
11
3.55585
21
-2.1211
0
LINE
8
BLACK
6
CONTINUOUS
10
3.55585
20
-2.1211
11
3.55589
21
-2.1212
0
LINE
8
BLACK
6
CONTINUOUS
10
3.55589
20
-2.1212
11
3.55615
21
-2.12158
0
LINE
8
BLACK
6
CONTINUOUS
10
3.55615
20
-2.12158
11
3.55621
21
-2.12168
0
LINE
8
BLACK
6
CONTINUOUS
10
3.55621
20
-2.12168
11
3.55629
21
-2.1218
0
LINE
8
BLACK
6
CONTINUOUS
10
3.55629
20
-2.1218
11
3.55676
21
-2.12201
0
LINE
8
BLACK
6
CONTINUOUS
10
3.55676
20
-2.12201
11
3.62029
21
-2.16421
0
LINE
8
BLACK
6
CONTINUOUS
10
3.62029
20
-2.16421
11
3.62178
21
-2.1661
0
LINE
8
BLACK
6
CONTINUOUS
10
3.62178
20
-2.1661
11
3.62203
21
-2.16745
0
LINE
8
BLACK
6
CONTINUOUS
10
3.62203
20
-2.16745
11
3.62203
21
-2.55716
0
LINE
8
BLACK
6
CONTINUOUS
10
3.62203
20
-2.55716
11
3.62128
21
-2.55945
0
LINE
8
BLACK
6
CONTINUOUS
10
3.62128
20
-2.55945
11
3.62055
21
-2.56022
0
LINE
8
BLACK
6
CONTINUOUS
10
3.62055
20
-2.56022
11
3.61799
21
-2.56225
0
LINE
8
BLACK
6
CONTINUOUS
10
3.61799
20
-2.56225
11
3.61573
21
-2.56309
0
LINE
8
BLACK
6
CONTINUOUS
10
3.61573
20
-2.56309
11
3.61341
21
-2.56245
0
LINE
8
BLACK
6
CONTINUOUS
10
3.61341
20
-2.56245
11
3.61191
21
-2.56056
0
LINE
8
BLACK
6
CONTINUOUS
10
3.61191
20
-2.56056
11
3.6117
21
-2.55869
0
LINE
8
BLACK
6
CONTINUOUS
10
3.6117
20
-2.55869
11
3.61243
21
-2.55315
0
LINE
8
BLACK
6
CONTINUOUS
10
3.61243
20
-2.55315
11
3.61162
21
-2.54698
0
LINE
8
BLACK
6
CONTINUOUS
10
3.61162
20
-2.54698
11
3.61023
21
-2.54364
0
LINE
8
BLACK
6
CONTINUOUS
10
3.61023
20
-2.54364
11
3.61001
21
-2.54138
0
LINE
8
BLACK
6
CONTINUOUS
10
3.61001
20
-2.54138
11
3.61026
21
-2.54015
0
LINE
8
BLACK
6
CONTINUOUS
10
3.61026
20
-2.54015
11
3.61026
21
-2.43032
0
LINE
8
BLACK
6
CONTINUOUS
10
3.61026
20
-2.43032
11
3.61026
21
-2.43032
0
LINE
8
BLACK
6
CONTINUOUS
10
3.61026
20
-2.43032
11
3.61026
21
-2.43032
0
LINE
8
BLACK
6
CONTINUOUS
10
3.61026
20
-2.43032
11
3.61001
21
-2.42909
0
LINE
8
BLACK
6
CONTINUOUS
10
3.61001
20
-2.42909
11
3.61023
21
-2.42684
0
LINE
8
BLACK
6
CONTINUOUS
10
3.61023
20
-2.42684
11
3.61162
21
-2.42349
0
LINE
8
BLACK
6
CONTINUOUS
10
3.61162
20
-2.42349
11
3.61243
21
-2.41732
0
LINE
8
BLACK
6
CONTINUOUS
10
3.61243
20
-2.41732
11
3.61162
21
-2.41115
0
LINE
8
BLACK
6
CONTINUOUS
10
3.61162
20
-2.41115
11
3.61125
21
-2.41026
0
LINE
8
BLACK
6
CONTINUOUS
10
3.61125
20
-2.41026
11
3.60923
21
-2.4054
0
LINE
8
BLACK
6
CONTINUOUS
10
3.60923
20
-2.4054
11
3.60923
21
-2.4054
0
LINE
8
BLACK
6
CONTINUOUS
10
3.60923
20
-2.4054
11
3.60544
21
-2.40046
0
LINE
8
BLACK
6
CONTINUOUS
10
3.60544
20
-2.40046
11
3.60544
21
-2.40046
0
LINE
8
BLACK
6
CONTINUOUS
10
3.60544
20
-2.40046
11
3.60544
21
-2.40046
0
LINE
8
BLACK
6
CONTINUOUS
10
3.60544
20
-2.40046
11
3.60544
21
-2.40046
0
LINE
8
BLACK
6
CONTINUOUS
10
3.60544
20
-2.40046
11
3.60544
21
-2.40046
0
LINE
8
BLACK
6
CONTINUOUS
10
3.60544
20
-2.40046
11
3.60202
21
-2.39784
0
LINE
8
BLACK
6
CONTINUOUS
10
3.60202
20
-2.39784
11
3.60051
21
-2.39667
0
LINE
8
BLACK
6
CONTINUOUS
10
3.60051
20
-2.39667
11
3.60051
21
-2.39667
0
LINE
8
BLACK
6
CONTINUOUS
10
3.60051
20
-2.39667
11
3.60051
21
-2.39667
0
LINE
8
BLACK
6
CONTINUOUS
10
3.60051
20
-2.39667
11
3.59475
21
-2.39429
0
LINE
8
BLACK
6
CONTINUOUS
10
3.59475
20
-2.39429
11
3.59475
21
-2.39429
0
LINE
8
BLACK
6
CONTINUOUS
10
3.59475
20
-2.39429
11
3.58858
21
-2.39348
0
LINE
8
BLACK
6
CONTINUOUS
10
3.58858
20
-2.39348
11
3.58858
21
-2.39348
0
LINE
8
BLACK
6
CONTINUOUS
10
3.58858
20
-2.39348
11
3.58241
21
-2.39429
0
LINE
8
BLACK
6
CONTINUOUS
10
3.58241
20
-2.39429
11
3.58241
21
-2.39429
0
LINE
8
BLACK
6
CONTINUOUS
10
3.58241
20
-2.39429
11
3.57666
21
-2.39667
0
LINE
8
BLACK
6
CONTINUOUS
10
3.57666
20
-2.39667
11
3.57666
21
-2.39667
0
LINE
8
BLACK
6
CONTINUOUS
10
3.57666
20
-2.39667
11
3.57619
21
-2.39703
0
LINE
8
BLACK
6
CONTINUOUS
10
3.57619
20
-2.39703
11
3.57392
21
-2.39784
0
LINE
8
BLACK
6
CONTINUOUS
10
3.57392
20
-2.39784
11
3.57161
21
-2.39715
0
LINE
8
BLACK
6
CONTINUOUS
10
3.57161
20
-2.39715
11
3.57145
21
-2.39703
0
LINE
8
BLACK
6
CONTINUOUS
10
3.57145
20
-2.39703
11
3.57098
21
-2.39667
0
LINE
8
BLACK
6
CONTINUOUS
10
3.57098
20
-2.39667
11
3.56523
21
-2.39429
0
LINE
8
BLACK
6
CONTINUOUS
10
3.56523
20
-2.39429
11
3.56523
21
-2.39429
0
LINE
8
BLACK
6
CONTINUOUS
10
3.56523
20
-2.39429
11
3.56523
21
-2.39429
0
LINE
8
BLACK
6
CONTINUOUS
10
3.56523
20
-2.39429
11
3.55906
21
-2.39348
0
LINE
8
BLACK
6
CONTINUOUS
10
3.55906
20
-2.39348
11
3.55906
21
-2.39348
0
LINE
8
BLACK
6
CONTINUOUS
10
3.55906
20
-2.39348
11
3.55288
21
-2.39429
0
LINE
8
BLACK
6
CONTINUOUS
10
3.55288
20
-2.39429
11
3.55288
21
-2.39429
0
LINE
8
BLACK
6
CONTINUOUS
10
3.55288
20
-2.39429
11
3.54713
21
-2.39667
0
LINE
8
BLACK
6
CONTINUOUS
10
3.54713
20
-2.39667
11
3.54713
21
-2.39667
0
LINE
8
BLACK
6
CONTINUOUS
10
3.54713
20
-2.39667
11
3.54219
21
-2.40046
0
LINE
8
BLACK
6
CONTINUOUS
10
3.54219
20
-2.40046
11
3.54219
21
-2.40046
0
LINE
8
BLACK
6
CONTINUOUS
10
3.54219
20
-2.40046
11
3.5384
21
-2.4054
0
LINE
8
BLACK
6
CONTINUOUS
10
3.5384
20
-2.4054
11
3.5384
21
-2.4054
0
LINE
8
BLACK
6
CONTINUOUS
10
3.5384
20
-2.4054
11
3.53602
21
-2.41115
0
LINE
8
BLACK
6
CONTINUOUS
10
3.53602
20
-2.41115
11
3.53602
21
-2.41115
0
LINE
8
BLACK
6
CONTINUOUS
10
3.53602
20
-2.41115
11
3.53521
21
-2.41732
0
LINE
8
BLACK
6
CONTINUOUS
10
3.53521
20
-2.41732
11
3.53521
21
-2.41732
0
LINE
8
BLACK
6
CONTINUOUS
10
3.53521
20
-2.41732
11
3.53583
21
-2.42204
0
LINE
8
BLACK
6
CONTINUOUS
10
3.53583
20
-2.42204
11
3.53539
21
-2.42441
0
LINE
8
BLACK
6
CONTINUOUS
10
3.53539
20
-2.42441
11
3.53364
21
-2.42607
0
LINE
8
BLACK
6
CONTINUOUS
10
3.53364
20
-2.42607
11
3.53126
21
-2.42639
0
LINE
8
BLACK
6
CONTINUOUS
10
3.53126
20
-2.42639
11
3.52968
21
-2.42556
0
LINE
8
BLACK
6
CONTINUOUS
10
3.52968
20
-2.42556
11
3.52963
21
-2.42562
0
LINE
8
BLACK
6
CONTINUOUS
10
3.52963
20
-2.42562
11
3.5267
21
-2.42367
0
LINE
8
BLACK
6
CONTINUOUS
10
3.5267
20
-2.42367
11
3.5267
21
-2.42367
0
LINE
8
BLACK
6
CONTINUOUS
10
3.5267
20
-2.42367
11
3.5267
21
-2.42367
0
LINE
8
BLACK
6
CONTINUOUS
10
3.5267
20
-2.42367
11
3.5267
21
-2.42367
0
LINE
8
BLACK
6
CONTINUOUS
10
3.5267
20
-2.42367
11
3.5244
21
-2.42321
0
LINE
8
BLACK
6
CONTINUOUS
10
3.5244
20
-2.42321
11
3.5244
21
-2.42321
0
LINE
8
BLACK
6
CONTINUOUS
10
3.5244
20
-2.42321
11
3.51754
21
-2.42321
0
LINE
8
BLACK
6
CONTINUOUS
10
3.51754
20
-2.42321
11
3.51525
21
-2.42246
0
LINE
8
BLACK
6
CONTINUOUS
10
3.51525
20
-2.42246
11
3.51383
21
-2.42052
0
LINE
8
BLACK
6
CONTINUOUS
10
3.51383
20
-2.42052
11
3.51383
21
-2.41811
0
LINE
8
BLACK
6
CONTINUOUS
10
3.51383
20
-2.41811
11
3.51417
21
-2.41736
0
LINE
8
BLACK
6
CONTINUOUS
10
3.51417
20
-2.41736
11
3.51419
21
-2.41732
0
LINE
8
BLACK
6
CONTINUOUS
10
3.51419
20
-2.41732
11
3.5143
21
-2.41712
0
LINE
8
BLACK
6
CONTINUOUS
10
3.5143
20
-2.41712
11
3.51469
21
-2.41657
0
LINE
8
BLACK
6
CONTINUOUS
10
3.51469
20
-2.41657
11
3.51521
21
-2.41596
0
LINE
8
BLACK
6
CONTINUOUS
10
3.51521
20
-2.41596
11
3.51521
21
-2.41596
0
LINE
8
BLACK
6
CONTINUOUS
10
3.51521
20
-2.41596
11
3.51521
21
-2.41596
0
LINE
8
BLACK
6
CONTINUOUS
10
3.51521
20
-2.41596
11
3.51548
21
-2.41521
0
LINE
8
BLACK
6
CONTINUOUS
10
3.51548
20
-2.41521
11
3.51577
21
-2.41459
0
LINE
8
BLACK
6
CONTINUOUS
10
3.51577
20
-2.41459
11
3.51616
21
-2.4139
0
LINE
8
BLACK
6
CONTINUOUS
10
3.51616
20
-2.4139
11
3.5163
21
-2.41311
0
LINE
8
BLACK
6
CONTINUOUS
10
3.5163
20
-2.41311
11
3.51648
21
-2.41246
0
LINE
8
BLACK
6
CONTINUOUS
10
3.51648
20
-2.41246
11
3.51675
21
-2.41171
0
LINE
8
BLACK
6
CONTINUOUS
10
3.51675
20
-2.41171
11
3.51675
21
-2.40719
0
LINE
8
BLACK
6
CONTINUOUS
10
3.51675
20
-2.40719
11
3.51675
21
-2.40719
0
LINE
8
BLACK
6
CONTINUOUS
10
3.51675
20
-2.40719
11
3.51675
21
-2.3051
0
LINE
8
BLACK
6
CONTINUOUS
10
3.51675
20
-2.3051
11
3.5175
21
-2.30281
0
LINE
8
BLACK
6
CONTINUOUS
10
3.5175
20
-2.30281
11
3.51945
21
-2.30139
0
LINE
8
BLACK
6
CONTINUOUS
10
3.51945
20
-2.30139
11
3.52065
21
-2.3012
0
LINE
8
BLACK
6
CONTINUOUS
10
3.52065
20
-2.3012
11
3.5244
21
-2.3012
0
LINE
8
BLACK
6
CONTINUOUS
10
3.5244
20
-2.3012
11
3.5244
21
-2.3012
0
LINE
8
BLACK
6
CONTINUOUS
10
3.5244
20
-2.3012
11
3.5267
21
-2.30074
0
LINE
8
BLACK
6
CONTINUOUS
10
3.5267
20
-2.30074
11
3.52931
21
-2.299
0
LINE
8
BLACK
6
CONTINUOUS
10
3.52931
20
-2.299
11
3.53106
21
-2.29639
0
LINE
8
BLACK
6
CONTINUOUS
10
3.53106
20
-2.29639
11
3.53152
21
-2.29408
0
LINE
8
BLACK
6
CONTINUOUS
10
3.53152
20
-2.29408
11
3.53152
21
-2.24508
0
LINE
8
BLACK
6
CONTINUOUS
10
3.53152
20
-2.24508
11
3.53152
21
-2.23529
0
LINE
8
BLACK
6
CONTINUOUS
10
3.53152
20
-2.23529
11
3.53146
21
-2.23518
0
LINE
8
BLACK
6
CONTINUOUS
10
3.53146
20
-2.23518
11
3.53069
21
-2.23031
0
LINE
8
BLACK
6
CONTINUOUS
10
3.53069
20
-2.23031
11
3.53146
21
-2.22545
0
LINE
8
BLACK
6
CONTINUOUS
10
3.53146
20
-2.22545
11
3.53152
21
-2.22534
0
LINE
8
BLACK
6
CONTINUOUS
10
3.53152
20
-2.22534
11
3.53152
21
-2.18426
0
LINE
8
BLACK
6
CONTINUOUS
10
3.53152
20
-2.18426
11
3.53106
21
-2.18196
0
LINE
8
BLACK
6
CONTINUOUS
10
3.53106
20
-2.18196
11
3.52931
21
-2.17935
0
LINE
8
BLACK
6
CONTINUOUS
10
3.52931
20
-2.17935
11
3.52931
21
-2.17935
0
LINE
8
BLACK
6
CONTINUOUS
10
3.52931
20
-2.17935
11
3.5267
21
-2.1776
0
LINE
8
BLACK
6
CONTINUOUS
10
3.5267
20
-2.1776
11
3.5267
21
-2.1776
0
LINE
8
BLACK
6
CONTINUOUS
10
3.5267
20
-2.1776
11
3.5267
21
-2.1776
0
LINE
8
BLACK
6
CONTINUOUS
10
3.5267
20
-2.1776
11
3.5267
21
-2.1776
0
LINE
8
BLACK
6
CONTINUOUS
10
3.5267
20
-2.1776
11
3.5244
21
-2.17715
0
LINE
8
BLACK
6
CONTINUOUS
10
3.5244
20
-2.17715
11
3.5244
21
-2.17715
0
LINE
8
BLACK
6
CONTINUOUS
10
3.5244
20
-2.17715
11
3.48347
21
-2.17715
0
LINE
8
BLACK
6
CONTINUOUS
10
3.48347
20
-2.17715
11
3.48347
21
-2.17715
0
LINE
8
BLACK
6
CONTINUOUS
10
3.48347
20
-2.17715
11
3.48347
21
-2.17715
0
LINE
8
BLACK
6
CONTINUOUS
10
3.48347
20
-2.17715
11
3.48117
21
-2.1776
0
LINE
8
BLACK
6
CONTINUOUS
10
3.48117
20
-2.1776
11
3.48117
21
-2.1776
0
LINE
8
BLACK
6
CONTINUOUS
10
3.48117
20
-2.1776
11
3.47856
21
-2.17935
0
LINE
8
BLACK
6
CONTINUOUS
10
3.47856
20
-2.17935
11
3.47856
21
-2.17935
0
LINE
8
BLACK
6
CONTINUOUS
10
3.47856
20
-2.17935
11
3.47682
21
-2.18196
0
LINE
8
BLACK
6
CONTINUOUS
10
3.47682
20
-2.18196
11
3.47682
21
-2.18196
0
LINE
8
BLACK
6
CONTINUOUS
10
3.47682
20
-2.18196
11
3.47636
21
-2.18426
0
LINE
8
BLACK
6
CONTINUOUS
10
3.47636
20
-2.18426
11
3.47636
21
-2.18426
0
LINE
8
BLACK
6
CONTINUOUS
10
3.47636
20
-2.18426
11
3.47636
21
-2.28573
0
LINE
8
BLACK
6
CONTINUOUS
10
3.47636
20
-2.28573
11
3.47561
21
-2.28802
0
LINE
8
BLACK
6
CONTINUOUS
10
3.47561
20
-2.28802
11
3.47367
21
-2.28944
0
LINE
8
BLACK
6
CONTINUOUS
10
3.47367
20
-2.28944
11
3.47126
21
-2.28944
0
LINE
8
BLACK
6
CONTINUOUS
10
3.47126
20
-2.28944
11
3.4697
21
-2.28849
0
LINE
8
BLACK
6
CONTINUOUS
10
3.4697
20
-2.28849
11
3.46954
21
-2.28833
0
LINE
8
BLACK
6
CONTINUOUS
10
3.46954
20
-2.28833
11
3.46702
21
-2.28639
0
LINE
8
BLACK
6
CONTINUOUS
10
3.46702
20
-2.28639
11
3.46566
21
-2.28441
0
LINE
8
BLACK
6
CONTINUOUS
10
3.46566
20
-2.28441
11
3.4655
21
-2.2833
0
LINE
8
BLACK
6
CONTINUOUS
10
3.4655
20
-2.2833
11
3.4655
21
-2.26041
0
LINE
8
BLACK
6
CONTINUOUS
10
3.4655
20
-2.26041
11
3.46551
21
-2.26025
0
LINE
8
BLACK
6
CONTINUOUS
10
3.46551
20
-2.26025
11
3.46565
21
-2.25864
0
LINE
8
BLACK
6
CONTINUOUS
10
3.46565
20
-2.25864
11
3.46523
21
-2.25707
0
LINE
8
BLACK
6
CONTINUOUS
10
3.46523
20
-2.25707
11
3.46519
21
-2.25691
0
LINE
8
BLACK
6
CONTINUOUS
10
3.46519
20
-2.25691
11
3.46491
21
-2.25532
0
LINE
8
BLACK
6
CONTINUOUS
10
3.46491
20
-2.25532
11
3.46488
21
-2.25527
0
LINE
8
BLACK
6
CONTINUOUS
10
3.46488
20
-2.25527
11
3.46449
21
-2.25433
0
LINE
8
BLACK
6
CONTINUOUS
10
3.46449
20
-2.25433
11
3.46448
21
-2.25427
0
LINE
8
BLACK
6
CONTINUOUS
10
3.46448
20
-2.25427
11
3.46448
21
-2.25427
0
LINE
8
BLACK
6
CONTINUOUS
10
3.46448
20
-2.25427
11
3.46448
21
-2.25427
0
LINE
8
BLACK
6
CONTINUOUS
10
3.46448
20
-2.25427
11
3.46355
21
-2.25295
0
LINE
8
BLACK
6
CONTINUOUS
10
3.46355
20
-2.25295
11
3.46346
21
-2.2528
0
LINE
8
BLACK
6
CONTINUOUS
10
3.46346
20
-2.2528
11
3.46265
21
-2.25141
0
LINE
8
BLACK
6
CONTINUOUS
10
3.46265
20
-2.25141
11
3.4617
21
-2.25061
0
LINE
8
BLACK
6
CONTINUOUS
10
3.4617
20
-2.25061
11
3.46141
21
-2.25037
0
LINE
8
BLACK
6
CONTINUOUS
10
3.46141
20
-2.25037
11
3.46129
21
-2.25025
0
LINE
8
BLACK
6
CONTINUOUS
10
3.46129
20
-2.25025
11
3.40058
21
-2.18955
0
LINE
8
BLACK
6
CONTINUOUS
10
3.40058
20
-2.18955
11
3.39949
21
-2.1874
0
LINE
8
BLACK
6
CONTINUOUS
10
3.39949
20
-2.1874
11
3.39987
21
-2.18502
0
LINE
8
BLACK
6
CONTINUOUS
10
3.39987
20
-2.18502
11
3.40128
21
-2.18348
0
LINE
8
BLACK
6
CONTINUOUS
10
3.40128
20
-2.18348
11
3.40389
21
-2.18186
0
LINE
8
BLACK
6
CONTINUOUS
10
3.40389
20
-2.18186
11
3.40389
21
-2.18186
0
LINE
8
BLACK
6
CONTINUOUS
10
3.40389
20
-2.18186
11
3.40389
21
-2.18186
0
LINE
8
BLACK
6
CONTINUOUS
10
3.40389
20
-2.18186
11
3.40564
21
-2.18039
0
LINE
8
BLACK
6
CONTINUOUS
10
3.40564
20
-2.18039
11
3.40602
21
-2.17997
0
LINE
8
BLACK
6
CONTINUOUS
10
3.40602
20
-2.17997
11
3.40642
21
-2.17958
0
LINE
8
BLACK
6
CONTINUOUS
10
3.40642
20
-2.17958
11
3.41804
21
-2.16983
0
LINE
8
BLACK
6
CONTINUOUS
10
3.41804
20
-2.16983
11
3.41849
21
-2.16951
0
LINE
8
BLACK
6
CONTINUOUS
10
3.41849
20
-2.16951
11
3.41897
21
-2.16921
0
LINE
8
BLACK
6
CONTINUOUS
10
3.41897
20
-2.16921
11
3.42072
21
-2.16774
0
LINE
8
BLACK
6
CONTINUOUS
10
3.42072
20
-2.16774
11
3.4245
21
-2.16352
0
LINE
8
BLACK
6
CONTINUOUS
10
3.4245
20
-2.16352
11
3.42577
21
-2.16161
0
LINE
8
BLACK
6
CONTINUOUS
10
3.42577
20
-2.16161
11
3.4282
21
-2.1565
0
LINE
8
BLACK
6
CONTINUOUS
10
3.4282
20
-2.1565
11
3.42888
21
-2.15431
0
LINE
8
BLACK
6
CONTINUOUS
10
3.42888
20
-2.15431
11
3.42888
21
-2.15431
0
LINE
8
BLACK
6
CONTINUOUS
10
3.42888
20
-2.15431
11
3.42888
21
-2.15431
0
LINE
8
BLACK
6
CONTINUOUS
10
3.42888
20
-2.15431
11
3.42977
21
-2.14872
0
LINE
8
BLACK
6
CONTINUOUS
10
3.42977
20
-2.14872
11
3.42977
21
-2.14872
0
LINE
8
BLACK
6
CONTINUOUS
10
3.42977
20
-2.14872
11
3.42977
21
-2.14872
0
LINE
8
BLACK
6
CONTINUOUS
10
3.42977
20
-2.14872
11
3.42981
21
-2.14643
0
LINE
8
BLACK
6
CONTINUOUS
10
3.42981
20
-2.14643
11
3.42909
21
-2.14082
0
LINE
8
BLACK
6
CONTINUOUS
10
3.42909
20
-2.14082
11
3.42848
21
-2.13861
0
LINE
8
BLACK
6
CONTINUOUS
10
3.42848
20
-2.13861
11
3.42807
21
-2.13767
0
LINE
8
BLACK
6
CONTINUOUS
10
3.42807
20
-2.13767
11
3.4269
21
-2.135
0
LINE
8
BLACK
6
CONTINUOUS
10
3.4269
20
-2.135
11
3.42621
21
-2.13342
0
LINE
8
BLACK
6
CONTINUOUS
10
3.42621
20
-2.13342
11
3.42621
21
-2.13342
0
LINE
8
BLACK
6
CONTINUOUS
10
3.42621
20
-2.13342
11
3.42621
21
-2.13342
0
LINE
8
BLACK
6
CONTINUOUS
10
3.42621
20
-2.13342
11
3.42501
21
-2.13148
0
LINE
8
BLACK
6
CONTINUOUS
10
3.42501
20
-2.13148
11
3.42501
21
-2.13148
0
LINE
8
BLACK
6
CONTINUOUS
10
3.42501
20
-2.13148
11
3.42501
21
-2.13148
0
LINE
8
BLACK
6
CONTINUOUS
10
3.42501
20
-2.13148
11
3.42359
21
-2.12979
0
LINE
8
BLACK
6
CONTINUOUS
10
3.42359
20
-2.12979
11
3.42319
21
-2.12931
0
LINE
8
BLACK
6
CONTINUOUS
10
3.42319
20
-2.12931
11
3.41767
21
-2.12273
0
LINE
8
BLACK
6
CONTINUOUS
10
3.41767
20
-2.12273
11
3.41053
21
-2.11423
0
LINE
8
BLACK
6
CONTINUOUS
10
3.41053
20
-2.11423
11
3.40808
21
-2.11226
0
LINE
8
BLACK
6
CONTINUOUS
10
3.40808
20
-2.11226
11
3.40808
21
-2.11226
0
LINE
8
BLACK
6
CONTINUOUS
10
3.40808
20
-2.11226
11
3.40507
21
-2.11138
0
LINE
8
BLACK
6
CONTINUOUS
10
3.40507
20
-2.11138
11
3.40507
21
-2.11138
0
LINE
8
BLACK
6
CONTINUOUS
10
3.40507
20
-2.11138
11
3.40382
21
-2.11152
0
LINE
8
BLACK
6
CONTINUOUS
10
3.40382
20
-2.11152
11
3.40195
21
-2.11173
0
LINE
8
BLACK
6
CONTINUOUS
10
3.40195
20
-2.11173
11
3.39919
21
-2.11324
0
LINE
8
BLACK
6
CONTINUOUS
10
3.39919
20
-2.11324
11
3.38585
21
-2.12444
0
LINE
8
BLACK
6
CONTINUOUS
10
3.38585
20
-2.12444
11
3.38561
21
-2.12461
0
LINE
8
BLACK
6
CONTINUOUS
10
3.38561
20
-2.12461
11
3.3908
21
-2.13079
0
LINE
8
BLACK
6
CONTINUOUS
10
3.3908
20
-2.13079
11
3.40437
21
-2.1194
0
LINE
8
BLACK
6
CONTINUOUS
10
3.40437
20
-2.1194
11
3.41702
21
-2.13448
0
LINE
8
BLACK
6
CONTINUOUS
10
3.41702
20
-2.13448
11
3.41687
21
-2.13461
0
LINE
8
BLACK
6
CONTINUOUS
10
3.41687
20
-2.13461
11
3.41867
21
-2.13676
0
LINE
8
BLACK
6
CONTINUOUS
10
3.41867
20
-2.13676
11
3.42092
21
-2.14189
0
LINE
8
BLACK
6
CONTINUOUS
10
3.42092
20
-2.14189
11
3.42162
21
-2.14745
0
LINE
8
BLACK
6
CONTINUOUS
10
3.42162
20
-2.14745
11
3.42074
21
-2.15298
0
LINE
8
BLACK
6
CONTINUOUS
10
3.42074
20
-2.15298
11
3.41833
21
-2.15804
0
LINE
8
BLACK
6
CONTINUOUS
10
3.41833
20
-2.15804
11
3.4146
21
-2.16221
0
LINE
8
BLACK
6
CONTINUOUS
10
3.4146
20
-2.16221
11
3.39952
21
-2.17487
0
LINE
8
BLACK
6
CONTINUOUS
10
3.39952
20
-2.17487
11
3.39475
21
-2.17782
0
LINE
8
BLACK
6
CONTINUOUS
10
3.39475
20
-2.17782
11
3.39145
21
-2.17874
0
LINE
8
BLACK
6
CONTINUOUS
10
3.39145
20
-2.17874
11
3.39145
21
-2.19158
0
LINE
8
BLACK
6
CONTINUOUS
10
3.39145
20
-2.19158
11
3.45616
21
-2.25629
0
LINE
8
BLACK
6
CONTINUOUS
10
3.45616
20
-2.25629
11
3.45669
21
-2.25699
0
LINE
8
BLACK
6
CONTINUOUS
10
3.45669
20
-2.25699
11
3.45682
21
-2.25711
0
LINE
8
BLACK
6
CONTINUOUS
10
3.45682
20
-2.25711
11
3.45685
21
-2.25721
0
LINE
8
BLACK
6
CONTINUOUS
10
3.45685
20
-2.25721
11
3.457
21
-2.25741
0
LINE
8
BLACK
6
CONTINUOUS
10
3.457
20
-2.25741
11
3.45726
21
-2.2586
0
LINE
8
BLACK
6
CONTINUOUS
10
3.45726
20
-2.2586
11
3.4576
21
-2.25977
0
LINE
8
BLACK
6
CONTINUOUS
10
3.4576
20
-2.25977
11
3.4576
21
-2.29024
0
LINE
8
BLACK
6
CONTINUOUS
10
3.4576
20
-2.29024
11
3.46194
21
-2.29245
0
LINE
8
BLACK
6
CONTINUOUS
10
3.46194
20
-2.29245
11
3.46542
21
-2.29593
0
LINE
8
BLACK
6
CONTINUOUS
10
3.46542
20
-2.29593
11
3.46766
21
-2.30032
0
LINE
8
BLACK
6
CONTINUOUS
10
3.46766
20
-2.30032
11
3.46843
21
-2.30519
0
LINE
8
BLACK
6
CONTINUOUS
10
3.46843
20
-2.30519
11
3.46766
21
-2.31006
0
LINE
8
BLACK
6
CONTINUOUS
10
3.46766
20
-2.31006
11
3.46542
21
-2.31445
0
LINE
8
BLACK
6
CONTINUOUS
10
3.46542
20
-2.31445
11
3.46194
21
-2.31793
0
LINE
8
BLACK
6
CONTINUOUS
10
3.46194
20
-2.31793
11
3.45755
21
-2.32017
0
LINE
8
BLACK
6
CONTINUOUS
10
3.45755
20
-2.32017
11
3.45268
21
-2.32094
0
LINE
8
BLACK
6
CONTINUOUS
10
3.45268
20
-2.32094
11
3.44782
21
-2.32017
0
LINE
8
BLACK
6
CONTINUOUS
10
3.44782
20
-2.32017
11
3.44343
21
-2.31793
0
LINE
8
BLACK
6
CONTINUOUS
10
3.44343
20
-2.31793
11
3.43994
21
-2.31445
0
LINE
8
BLACK
6
CONTINUOUS
10
3.43994
20
-2.31445
11
3.43771
21
-2.31006
0
LINE
8
BLACK
6
CONTINUOUS
10
3.43771
20
-2.31006
11
3.43694
21
-2.30519
0
LINE
8
BLACK
6
CONTINUOUS
10
3.43694
20
-2.30519
11
3.43771
21
-2.30032
0
LINE
8
BLACK
6
CONTINUOUS
10
3.43771
20
-2.30032
11
3.43994
21
-2.29593
0
LINE
8
BLACK
6
CONTINUOUS
10
3.43994
20
-2.29593
11
3.44343
21
-2.29245
0
LINE
8
BLACK
6
CONTINUOUS
10
3.44343
20
-2.29245
11
3.44776
21
-2.29024
0
LINE
8
BLACK
6
CONTINUOUS
10
3.44776
20
-2.29024
11
3.44776
21
-2.26181
0
LINE
8
BLACK
6
CONTINUOUS
10
3.44776
20
-2.26181
11
3.38305
21
-2.19709
0
LINE
8
BLACK
6
CONTINUOUS
10
3.38305
20
-2.19709
11
3.38252
21
-2.19639
0
LINE
8
BLACK
6
CONTINUOUS
10
3.38252
20
-2.19639
11
3.38239
21
-2.19628
0
LINE
8
BLACK
6
CONTINUOUS
10
3.38239
20
-2.19628
11
3.38236
21
-2.19617
0
LINE
8
BLACK
6
CONTINUOUS
10
3.38236
20
-2.19617
11
3.38221
21
-2.19597
0
LINE
8
BLACK
6
CONTINUOUS
10
3.38221
20
-2.19597
11
3.38195
21
-2.19478
0
LINE
8
BLACK
6
CONTINUOUS
10
3.38195
20
-2.19478
11
3.38161
21
-2.19361
0
LINE
8
BLACK
6
CONTINUOUS
10
3.38161
20
-2.19361
11
3.38161
21
-2.17856
0
LINE
8
BLACK
6
CONTINUOUS
10
3.38161
20
-2.17856
11
3.3784
21
-2.17756
0
LINE
8
BLACK
6
CONTINUOUS
10
3.3784
20
-2.17756
11
3.37374
21
-2.17446
0
LINE
8
BLACK
6
CONTINUOUS
10
3.37374
20
-2.17446
11
3.37194
21
-2.17231
0
LINE
8
BLACK
6
CONTINUOUS
10
3.37194
20
-2.17231
11
3.37178
21
-2.17244
0
LINE
8
BLACK
6
CONTINUOUS
10
3.37178
20
-2.17244
11
3.35913
21
-2.15736
0
LINE
8
BLACK
6
CONTINUOUS
10
3.35913
20
-2.15736
11
3.3727
21
-2.14597
0
LINE
8
BLACK
6
CONTINUOUS
10
3.3727
20
-2.14597
11
3.36751
21
-2.13979
0
LINE
8
BLACK
6
CONTINUOUS
10
3.36751
20
-2.13979
11
3.3673
21
-2.14
0
LINE
8
BLACK
6
CONTINUOUS
10
3.3673
20
-2.14
11
3.35396
21
-2.1512
0
LINE
8
BLACK
6
CONTINUOUS
10
3.35396
20
-2.1512
11
3.35396
21
-2.1512
0
LINE
8
BLACK
6
CONTINUOUS
10
3.35396
20
-2.1512
11
3.35199
21
-2.15365
0
LINE
8
BLACK
6
CONTINUOUS
10
3.35199
20
-2.15365
11
3.35199
21
-2.15365
0
LINE
8
BLACK
6
CONTINUOUS
10
3.35199
20
-2.15365
11
3.35111
21
-2.15666
0
LINE
8
BLACK
6
CONTINUOUS
10
3.35111
20
-2.15666
11
3.35145
21
-2.15978
0
LINE
8
BLACK
6
CONTINUOUS
10
3.35145
20
-2.15978
11
3.35296
21
-2.16254
0
LINE
8
BLACK
6
CONTINUOUS
10
3.35296
20
-2.16254
11
3.35296
21
-2.16254
0
LINE
8
BLACK
6
CONTINUOUS
10
3.35296
20
-2.16254
11
3.3638
21
-2.17545
0
LINE
8
BLACK
6
CONTINUOUS
10
3.3638
20
-2.17545
11
3.36655
21
-2.17873
0
LINE
8
BLACK
6
CONTINUOUS
10
3.36655
20
-2.17873
11
3.36744
21
-2.17978
0
LINE
8
BLACK
6
CONTINUOUS
10
3.36744
20
-2.17978
11
3.36914
21
-2.18131
0
LINE
8
BLACK
6
CONTINUOUS
10
3.36914
20
-2.18131
11
3.37197
21
-2.18319
0
LINE
8
BLACK
6
CONTINUOUS
10
3.37197
20
-2.18319
11
3.37347
21
-2.18508
0
LINE
8
BLACK
6
CONTINUOUS
10
3.37347
20
-2.18508
11
3.37371
21
-2.18644
0
LINE
8
BLACK
6
CONTINUOUS
10
3.37371
20
-2.18644
11
3.37371
21
-2.19297
0
LINE
8
BLACK
6
CONTINUOUS
10
3.37371
20
-2.19297
11
3.37371
21
-2.19314
0
LINE
8
BLACK
6
CONTINUOUS
10
3.37371
20
-2.19314
11
3.37359
21
-2.19444
0
LINE
8
BLACK
6
CONTINUOUS
10
3.37359
20
-2.19444
11
3.37356
21
-2.19475
0
LINE
8
BLACK
6
CONTINUOUS
10
3.37356
20
-2.19475
11
3.37398
21
-2.19631
0
LINE
8
BLACK
6
CONTINUOUS
10
3.37398
20
-2.19631
11
3.37402
21
-2.19647
0
LINE
8
BLACK
6
CONTINUOUS
10
3.37402
20
-2.19647
11
3.3743
21
-2.19807
0
LINE
8
BLACK
6
CONTINUOUS
10
3.3743
20
-2.19807
11
3.37433
21
-2.19812
0
LINE
8
BLACK
6
CONTINUOUS
10
3.37433
20
-2.19812
11
3.37472
21
-2.19906
0
LINE
8
BLACK
6
CONTINUOUS
10
3.37472
20
-2.19906
11
3.37473
21
-2.19911
0
LINE
8
BLACK
6
CONTINUOUS
10
3.37473
20
-2.19911
11
3.37473
21
-2.19911
0
LINE
8
BLACK
6
CONTINUOUS
10
3.37473
20
-2.19911
11
3.37566
21
-2.20044
0
LINE
8
BLACK
6
CONTINUOUS
10
3.37566
20
-2.20044
11
3.37575
21
-2.20058
0
LINE
8
BLACK
6
CONTINUOUS
10
3.37575
20
-2.20058
11
3.37656
21
-2.20198
0
LINE
8
BLACK
6
CONTINUOUS
10
3.37656
20
-2.20198
11
3.3778
21
-2.20302
0
LINE
8
BLACK
6
CONTINUOUS
10
3.3778
20
-2.20302
11
3.37792
21
-2.20313
0
LINE
8
BLACK
6
CONTINUOUS
10
3.37792
20
-2.20313
11
3.39582
21
-2.22103
0
LINE
8
BLACK
6
CONTINUOUS
10
3.39582
20
-2.22103
11
3.43873
21
-2.26394
0
LINE
8
BLACK
6
CONTINUOUS
10
3.43873
20
-2.26394
11
3.43982
21
-2.26608
0
LINE
8
BLACK
6
CONTINUOUS
10
3.43982
20
-2.26608
11
3.43987
21
-2.26669
0
LINE
8
BLACK
6
CONTINUOUS
10
3.43987
20
-2.26669
11
3.43987
21
-2.2833
0
LINE
8
BLACK
6
CONTINUOUS
10
3.43987
20
-2.2833
11
3.43912
21
-2.28559
0
LINE
8
BLACK
6
CONTINUOUS
10
3.43912
20
-2.28559
11
3.43834
21
-2.28639
0
LINE
8
BLACK
6
CONTINUOUS
10
3.43834
20
-2.28639
11
3.43582
21
-2.28833
0
LINE
8
BLACK
6
CONTINUOUS
10
3.43582
20
-2.28833
11
3.43203
21
-2.29327
0
LINE
8
BLACK
6
CONTINUOUS
10
3.43203
20
-2.29327
11
3.43203
21
-2.29327
0
LINE
8
BLACK
6
CONTINUOUS
10
3.43203
20
-2.29327
11
3.42965
21
-2.29902
0
LINE
8
BLACK
6
CONTINUOUS
10
3.42965
20
-2.29902
11
3.42965
21
-2.29902
0
LINE
8
BLACK
6
CONTINUOUS
10
3.42965
20
-2.29902
11
3.42884
21
-2.30519
0
LINE
8
BLACK
6
CONTINUOUS
10
3.42884
20
-2.30519
11
3.42884
21
-2.30519
0
LINE
8
BLACK
6
CONTINUOUS
10
3.42884
20
-2.30519
11
3.42965
21
-2.31136
0
LINE
8
BLACK
6
CONTINUOUS
10
3.42965
20
-2.31136
11
3.42965
21
-2.31136
0
LINE
8
BLACK
6
CONTINUOUS
10
3.42965
20
-2.31136
11
3.43203
21
-2.31711
0
LINE
8
BLACK
6
CONTINUOUS
10
3.43203
20
-2.31711
11
3.43203
21
-2.31711
0
LINE
8
BLACK
6
CONTINUOUS
10
3.43203
20
-2.31711
11
3.43582
21
-2.32205
0
LINE
8
BLACK
6
CONTINUOUS
10
3.43582
20
-2.32205
11
3.43582
21
-2.32205
0
LINE
8
BLACK
6
CONTINUOUS
10
3.43582
20
-2.32205
11
3.44076
21
-2.32584
0
LINE
8
BLACK
6
CONTINUOUS
10
3.44076
20
-2.32584
11
3.44076
21
-2.32584
0
LINE
8
BLACK
6
CONTINUOUS
10
3.44076
20
-2.32584
11
3.44076
21
-2.32584
0
LINE
8
BLACK
6
CONTINUOUS
10
3.44076
20
-2.32584
11
3.44651
21
-2.32822
0
LINE
8
BLACK
6
CONTINUOUS
10
3.44651
20
-2.32822
11
3.44651
21
-2.32822
0
LINE
8
BLACK
6
CONTINUOUS
10
3.44651
20
-2.32822
11
3.45114
21
-2.32883
0
LINE
8
BLACK
6
CONTINUOUS
10
3.45114
20
-2.32883
11
3.45268
21
-2.32904
0
LINE
8
BLACK
6
CONTINUOUS
10
3.45268
20
-2.32904
11
3.45268
21
-2.32904
0
LINE
8
BLACK
6
CONTINUOUS
10
3.45268
20
-2.32904
11
3.45268
21
-2.32904
0
LINE
8
BLACK
6
CONTINUOUS
10
3.45268
20
-2.32904
11
3.45392
21
-2.32887
0
LINE
8
BLACK
6
CONTINUOUS
10
3.45392
20
-2.32887
11
3.45886
21
-2.32822
0
LINE
8
BLACK
6
CONTINUOUS
10
3.45886
20
-2.32822
11
3.46461
21
-2.32584
0
LINE
8
BLACK
6
CONTINUOUS
10
3.46461
20
-2.32584
11
3.46954
21
-2.32205
0
LINE
8
BLACK
6
CONTINUOUS
10
3.46954
20
-2.32205
11
3.47333
21
-2.31711
0
LINE
8
BLACK
6
CONTINUOUS
10
3.47333
20
-2.31711
11
3.47572
21
-2.31136
0
LINE
8
BLACK
6
CONTINUOUS
10
3.47572
20
-2.31136
11
3.47653
21
-2.30519
0
LINE
8
BLACK
6
CONTINUOUS
10
3.47653
20
-2.30519
11
3.47651
21
-2.30507
0
LINE
8
BLACK
6
CONTINUOUS
10
3.47651
20
-2.30507
11
3.47653
21
-2.30498
0
LINE
8
BLACK
6
CONTINUOUS
10
3.47653
20
-2.30498
11
3.47653
21
-2.30494
0
LINE
8
BLACK
6
CONTINUOUS
10
3.47653
20
-2.30494
11
3.47654
21
-2.30494
0
LINE
8
BLACK
6
CONTINUOUS
10
3.47654
20
-2.30494
11
3.47695
21
-2.3027
0
LINE
8
BLACK
6
CONTINUOUS
10
3.47695
20
-2.3027
11
3.4787
21
-2.30104
0
LINE
8
BLACK
6
CONTINUOUS
10
3.4787
20
-2.30104
11
3.48109
21
-2.30073
0
LINE
8
BLACK
6
CONTINUOUS
10
3.48109
20
-2.30073
11
3.48114
21
-2.30074
0
LINE
8
BLACK
6
CONTINUOUS
10
3.48114
20
-2.30074
11
3.48347
21
-2.3012
0
LINE
8
BLACK
6
CONTINUOUS
10
3.48347
20
-2.3012
11
3.48347
21
-2.3012
0
LINE
8
BLACK
6
CONTINUOUS
10
3.48347
20
-2.3012
11
3.48347
21
-2.3012
0
LINE
8
BLACK
6
CONTINUOUS
10
3.48347
20
-2.3012
11
3.48722
21
-2.3012
0
LINE
8
BLACK
6
CONTINUOUS
10
3.48722
20
-2.3012
11
3.48952
21
-2.30195
0
LINE
8
BLACK
6
CONTINUOUS
10
3.48952
20
-2.30195
11
3.49093
21
-2.30389
0
LINE
8
BLACK
6
CONTINUOUS
10
3.49093
20
-2.30389
11
3.49112
21
-2.3051
0
LINE
8
BLACK
6
CONTINUOUS
10
3.49112
20
-2.3051
11
3.49112
21
-2.39274
0
LINE
8
BLACK
6
CONTINUOUS
10
3.49112
20
-2.39274
11
3.49038
21
-2.39503
0
LINE
8
BLACK
6
CONTINUOUS
10
3.49038
20
-2.39503
11
3.48843
21
-2.39644
0
LINE
8
BLACK
6
CONTINUOUS
10
3.48843
20
-2.39644
11
3.48722
21
-2.39663
0
LINE
8
BLACK
6
CONTINUOUS
10
3.48722
20
-2.39663
11
3.48442
21
-2.39663
0
LINE
8
BLACK
6
CONTINUOUS
10
3.48442
20
-2.39663
11
3.48213
21
-2.39589
0
LINE
8
BLACK
6
CONTINUOUS
10
3.48213
20
-2.39589
11
3.48133
21
-2.39511
0
LINE
8
BLACK
6
CONTINUOUS
10
3.48133
20
-2.39511
11
3.47789
21
-2.39062
0
LINE
8
BLACK
6
CONTINUOUS
10
3.47789
20
-2.39062
11
3.47788
21
-2.39062
0
LINE
8
BLACK
6
CONTINUOUS
10
3.47788
20
-2.39062
11
3.47788
21
-2.39062
0
LINE
8
BLACK
6
CONTINUOUS
10
3.47788
20
-2.39062
11
3.47295
21
-2.38683
0
LINE
8
BLACK
6
CONTINUOUS
10
3.47295
20
-2.38683
11
3.4672
21
-2.38445
0
LINE
8
BLACK
6
CONTINUOUS
10
3.4672
20
-2.38445
11
3.4672
21
-2.38445
0
LINE
8
BLACK
6
CONTINUOUS
10
3.4672
20
-2.38445
11
3.46102
21
-2.38363
0
LINE
8
BLACK
6
CONTINUOUS
10
3.46102
20
-2.38363
11
3.46102
21
-2.38363
0
LINE
8
BLACK
6
CONTINUOUS
10
3.46102
20
-2.38363
11
3.45485
21
-2.38445
0
LINE
8
BLACK
6
CONTINUOUS
10
3.45485
20
-2.38445
11
3.45485
21
-2.38445
0
LINE
8
BLACK
6
CONTINUOUS
10
3.45485
20
-2.38445
11
3.4491
21
-2.38683
0
LINE
8
BLACK
6
CONTINUOUS
10
3.4491
20
-2.38683
11
3.4491
21
-2.38683
0
LINE
8
BLACK
6
CONTINUOUS
10
3.4491
20
-2.38683
11
3.44416
21
-2.39062
0
LINE
8
BLACK
6
CONTINUOUS
10
3.44416
20
-2.39062
11
3.44416
21
-2.39062
0
LINE
8
BLACK
6
CONTINUOUS
10
3.44416
20
-2.39062
11
3.44037
21
-2.39556
0
LINE
8
BLACK
6
CONTINUOUS
10
3.44037
20
-2.39556
11
3.44037
21
-2.39556
0
LINE
8
BLACK
6
CONTINUOUS
10
3.44037
20
-2.39556
11
3.43799
21
-2.40131
0
LINE
8
BLACK
6
CONTINUOUS
10
3.43799
20
-2.40131
11
3.43799
21
-2.40131
0
LINE
8
BLACK
6
CONTINUOUS
10
3.43799
20
-2.40131
11
3.43718
21
-2.40748
0
LINE
8
BLACK
6
CONTINUOUS
10
3.43718
20
-2.40748
11
3.43718
21
-2.40748
0
LINE
8
BLACK
6
CONTINUOUS
10
3.43718
20
-2.40748
11
3.43799
21
-2.41365
0
LINE
8
BLACK
6
CONTINUOUS
10
3.43799
20
-2.41365
11
3.43799
21
-2.41365
0
LINE
8
BLACK
6
CONTINUOUS
10
3.43799
20
-2.41365
11
3.44037
21
-2.4194
0
LINE
8
BLACK
6
CONTINUOUS
10
3.44037
20
-2.4194
11
3.44037
21
-2.4194
0
LINE
8
BLACK
6
CONTINUOUS
10
3.44037
20
-2.4194
11
3.44351
21
-2.42349
0
LINE
8
BLACK
6
CONTINUOUS
10
3.44351
20
-2.42349
11
3.44416
21
-2.42434
0
LINE
8
BLACK
6
CONTINUOUS
10
3.44416
20
-2.42434
11
3.4491
21
-2.42813
0
LINE
8
BLACK
6
CONTINUOUS
10
3.4491
20
-2.42813
11
3.4491
21
-2.42813
0
LINE
8
BLACK
6
CONTINUOUS
10
3.4491
20
-2.42813
11
3.4491
21
-2.42813
0
LINE
8
BLACK
6
CONTINUOUS
10
3.4491
20
-2.42813
11
3.45485
21
-2.43051
0
LINE
8
BLACK
6
CONTINUOUS
10
3.45485
20
-2.43051
11
3.45485
21
-2.43051
0
LINE
8
BLACK
6
CONTINUOUS
10
3.45485
20
-2.43051
11
3.45948
21
-2.43112
0
LINE
8
BLACK
6
CONTINUOUS
10
3.45948
20
-2.43112
11
3.46102
21
-2.43133
0
LINE
8
BLACK
6
CONTINUOUS
10
3.46102
20
-2.43133
11
3.46102
21
-2.43133
0
LINE
8
BLACK
6
CONTINUOUS
10
3.46102
20
-2.43133
11
3.46102
21
-2.43133
0
LINE
8
BLACK
6
CONTINUOUS
10
3.46102
20
-2.43133
11
3.46226
21
-2.43116
0
LINE
8
BLACK
6
CONTINUOUS
10
3.46226
20
-2.43116
11
3.4672
21
-2.43051
0
LINE
8
BLACK
6
CONTINUOUS
10
3.4672
20
-2.43051
11
3.47097
21
-2.42895
0
LINE
8
BLACK
6
CONTINUOUS
10
3.47097
20
-2.42895
11
3.47337
21
-2.42876
0
LINE
8
BLACK
6
CONTINUOUS
10
3.47337
20
-2.42876
11
3.47542
21
-2.43002
0
LINE
8
BLACK
6
CONTINUOUS
10
3.47542
20
-2.43002
11
3.47635
21
-2.43225
0
LINE
8
BLACK
6
CONTINUOUS
10
3.47635
20
-2.43225
11
3.47636
21
-2.43255
0
LINE
8
BLACK
6
CONTINUOUS
10
3.47636
20
-2.43255
11
3.47636
21
-2.46951
0
LINE
8
BLACK
6
CONTINUOUS
10
3.47636
20
-2.46951
11
3.47561
21
-2.4718
0
LINE
8
BLACK
6
CONTINUOUS
10
3.47561
20
-2.4718
11
3.47367
21
-2.47321
0
LINE
8
BLACK
6
CONTINUOUS
10
3.47367
20
-2.47321
11
3.47246
21
-2.47341
0
LINE
8
BLACK
6
CONTINUOUS
10
3.47246
20
-2.47341
11
3.44512
21
-2.47341
0
LINE
8
BLACK
6
CONTINUOUS
10
3.44512
20
-2.47341
11
3.44283
21
-2.47266
0
LINE
8
BLACK
6
CONTINUOUS
10
3.44283
20
-2.47266
11
3.44202
21
-2.47188
0
LINE
8
BLACK
6
CONTINUOUS
10
3.44202
20
-2.47188
11
3.44009
21
-2.46936
0
LINE
8
BLACK
6
CONTINUOUS
10
3.44009
20
-2.46936
11
3.44009
21
-2.46936
0
LINE
8
BLACK
6
CONTINUOUS
10
3.44009
20
-2.46936
11
3.44009
21
-2.46936
0
LINE
8
BLACK
6
CONTINUOUS
10
3.44009
20
-2.46936
11
3.44009
21
-2.46936
0
LINE
8
BLACK
6
CONTINUOUS
10
3.44009
20
-2.46936
11
3.43515
21
-2.46557
0
LINE
8
BLACK
6
CONTINUOUS
10
3.43515
20
-2.46557
11
3.4294
21
-2.46319
0
LINE
8
BLACK
6
CONTINUOUS
10
3.4294
20
-2.46319
11
3.4294
21
-2.46319
0
LINE
8
BLACK
6
CONTINUOUS
10
3.4294
20
-2.46319
11
3.42323
21
-2.46237
0
LINE
8
BLACK
6
CONTINUOUS
10
3.42323
20
-2.46237
11
3.42323
21
-2.46237
0
LINE
8
BLACK
6
CONTINUOUS
10
3.42323
20
-2.46237
11
3.41706
21
-2.46319
0
LINE
8
BLACK
6
CONTINUOUS
10
3.41706
20
-2.46319
11
3.41706
21
-2.46319
0
LINE
8
BLACK
6
CONTINUOUS
10
3.41706
20
-2.46319
11
3.41131
21
-2.46557
0
LINE
8
BLACK
6
CONTINUOUS
10
3.41131
20
-2.46557
11
3.41131
21
-2.46557
0
LINE
8
BLACK
6
CONTINUOUS
10
3.41131
20
-2.46557
11
3.40637
21
-2.46936
0
LINE
8
BLACK
6
CONTINUOUS
10
3.40637
20
-2.46936
11
3.40637
21
-2.46936
0
LINE
8
BLACK
6
CONTINUOUS
10
3.40637
20
-2.46936
11
3.40258
21
-2.4743
0
LINE
8
BLACK
6
CONTINUOUS
10
3.40258
20
-2.4743
11
3.40258
21
-2.4743
0
LINE
8
BLACK
6
CONTINUOUS
10
3.40258
20
-2.4743
11
3.4002
21
-2.48005
0
LINE
8
BLACK
6
CONTINUOUS
10
3.4002
20
-2.48005
11
3.4002
21
-2.48005
0
LINE
8
BLACK
6
CONTINUOUS
10
3.4002
20
-2.48005
11
3.39938
21
-2.48622
0
LINE
8
BLACK
6
CONTINUOUS
10
3.39938
20
-2.48622
11
3.39938
21
-2.48622
0
LINE
8
BLACK
6
CONTINUOUS
10
3.39938
20
-2.48622
11
3.4002
21
-2.49239
0
LINE
8
BLACK
6
CONTINUOUS
10
3.4002
20
-2.49239
11
3.4002
21
-2.49239
0
LINE
8
BLACK
6
CONTINUOUS
10
3.4002
20
-2.49239
11
3.40258
21
-2.49814
0
LINE
8
BLACK
6
CONTINUOUS
10
3.40258
20
-2.49814
11
3.40258
21
-2.49814
0
LINE
8
BLACK
6
CONTINUOUS
10
3.40258
20
-2.49814
11
3.40533
21
-2.50173
0
LINE
8
BLACK
6
CONTINUOUS
10
3.40533
20
-2.50173
11
3.40637
21
-2.50308
0
LINE
8
BLACK
6
CONTINUOUS
10
3.40637
20
-2.50308
11
3.40637
21
-2.50308
0
LINE
8
BLACK
6
CONTINUOUS
10
3.40637
20
-2.50308
11
3.40637
21
-2.50308
0
LINE
8
BLACK
6
CONTINUOUS
10
3.40637
20
-2.50308
11
3.40752
21
-2.50397
0
LINE
8
BLACK
6
CONTINUOUS
10
3.40752
20
-2.50397
11
3.41131
21
-2.50687
0
LINE
8
BLACK
6
CONTINUOUS
10
3.41131
20
-2.50687
11
3.41706
21
-2.50925
0
LINE
8
BLACK
6
CONTINUOUS
10
3.41706
20
-2.50925
11
3.42169
21
-2.50986
0
LINE
8
BLACK
6
CONTINUOUS
10
3.42169
20
-2.50986
11
3.42323
21
-2.51007
0
LINE
8
BLACK
6
CONTINUOUS
10
3.42323
20
-2.51007
11
3.42323
21
-2.51007
0
LINE
8
BLACK
6
CONTINUOUS
10
3.42323
20
-2.51007
11
3.42323
21
-2.51007
0
LINE
8
BLACK
6
CONTINUOUS
10
3.42323
20
-2.51007
11
3.42446
21
-2.5099
0
LINE
8
BLACK
6
CONTINUOUS
10
3.42446
20
-2.5099
11
3.4294
21
-2.50925
0
LINE
8
BLACK
6
CONTINUOUS
10
3.4294
20
-2.50925
11
3.43515
21
-2.50687
0
LINE
8
BLACK
6
CONTINUOUS
10
3.43515
20
-2.50687
11
3.44009
21
-2.50308
0
LINE
8
BLACK
6
CONTINUOUS
10
3.44009
20
-2.50308
11
3.44202
21
-2.50056
0
LINE
8
BLACK
6
CONTINUOUS
10
3.44202
20
-2.50056
11
3.44401
21
-2.4992
0
LINE
8
BLACK
6
CONTINUOUS
10
3.44401
20
-2.4992
11
3.44512
21
-2.49904
0
LINE
8
BLACK
6
CONTINUOUS
10
3.44512
20
-2.49904
11
3.47246
21
-2.49904
0
LINE
8
BLACK
6
CONTINUOUS
10
3.47246
20
-2.49904
11
3.47475
21
-2.49978
0
LINE
8
BLACK
6
CONTINUOUS
10
3.47475
20
-2.49978
11
3.47617
21
-2.50173
0
LINE
8
BLACK
6
CONTINUOUS
10
3.47617
20
-2.50173
11
3.47636
21
-2.50293
0
LINE
8
BLACK
6
CONTINUOUS
10
3.47636
20
-2.50293
11
3.47636
21
-2.54015
0
LINE
8
BLACK
6
CONTINUOUS
10
3.47636
20
-2.54015
11
3.47636
21
-2.54015
0
LINE
8
BLACK
6
CONTINUOUS
10
3.47636
20
-2.54015
11
3.47682
21
-2.54245
0
LINE
8
BLACK
6
CONTINUOUS
10
3.47682
20
-2.54245
11
3.47682
21
-2.54245
0
LINE
8
BLACK
6
CONTINUOUS
10
3.47682
20
-2.54245
11
3.47856
21
-2.54506
0
LINE
8
BLACK
6
CONTINUOUS
10
3.47856
20
-2.54506
11
3.47856
21
-2.54506
0
LINE
8
BLACK
6
CONTINUOUS
10
3.47856
20
-2.54506
11
3.48117
21
-2.54681
0
LINE
8
BLACK
6
CONTINUOUS
10
3.48117
20
-2.54681
11
3.48292
21
-2.54715
0
LINE
8
BLACK
6
CONTINUOUS
10
3.48292
20
-2.54715
11
3.48347
21
-2.54726
0
LINE
8
BLACK
6
CONTINUOUS
10
3.48347
20
-2.54726
11
3.48347
21
-2.54726
0
LINE
8
BLACK
6
CONTINUOUS
10
3.48347
20
-2.54726
11
3.48347
21
-2.54726
0
LINE
8
BLACK
6
CONTINUOUS
10
3.48347
20
-2.54726
11
3.48347
21
-2.54726
0
LINE
8
BLACK
6
CONTINUOUS
10
3.48347
20
-2.54726
11
3.5244
21
-2.54726
0
LINE
8
BLACK
6
CONTINUOUS
10
3.5244
20
-2.54726
11
3.5244
21
-2.54726
0
LINE
8
BLACK
6
CONTINUOUS
10
3.5244
20
-2.54726
11
3.5267
21
-2.54681
0
LINE
8
BLACK
6
CONTINUOUS
10
3.5267
20
-2.54681
11
3.52931
21
-2.54506
0
LINE
8
BLACK
6
CONTINUOUS
10
3.52931
20
-2.54506
11
3.52931
21
-2.54506
0
LINE
8
BLACK
6
CONTINUOUS
10
3.52931
20
-2.54506
11
3.52963
21
-2.54485
0
LINE
8
BLACK
6
CONTINUOUS
10
3.52963
20
-2.54485
11
3.52968
21
-2.54492
0
LINE
8
BLACK
6
CONTINUOUS
10
3.52968
20
-2.54492
11
3.53136
21
-2.54407
0
LINE
8
BLACK
6
CONTINUOUS
10
3.53136
20
-2.54407
11
3.53374
21
-2.54445
0
LINE
8
BLACK
6
CONTINUOUS
10
3.53374
20
-2.54445
11
3.53544
21
-2.54615
0
LINE
8
BLACK
6
CONTINUOUS
10
3.53544
20
-2.54615
11
3.53583
21
-2.54843
0
LINE
8
BLACK
6
CONTINUOUS
10
3.53583
20
-2.54843
11
3.53521
21
-2.55315
0
LINE
8
BLACK
6
CONTINUOUS
10
3.53521
20
-2.55315
11
3.53521
21
-2.55315
0
LINE
8
BLACK
6
CONTINUOUS
10
3.53521
20
-2.55315
11
3.53602
21
-2.55932
0
LINE
8
BLACK
6
CONTINUOUS
10
3.53602
20
-2.55932
11
3.53602
21
-2.55932
0
LINE
8
BLACK
6
CONTINUOUS
10
3.53602
20
-2.55932
11
3.5384
21
-2.56507
0
LINE
8
BLACK
6
CONTINUOUS
10
3.5384
20
-2.56507
11
3.5384
21
-2.56507
0
LINE
8
BLACK
6
CONTINUOUS
10
3.5384
20
-2.56507
11
3.5384
21
-2.56507
0
LINE
8
BLACK
6
CONTINUOUS
10
3.5384
20
-2.56507
11
3.54219
21
-2.57001
0
LINE
8
BLACK
6
CONTINUOUS
10
3.54219
20
-2.57001
11
3.54713
21
-2.5738
0
LINE
8
BLACK
6
CONTINUOUS
10
3.54713
20
-2.5738
11
3.55288
21
-2.57618
0
LINE
8
BLACK
6
CONTINUOUS
10
3.55288
20
-2.57618
11
3.55751
21
-2.57679
0
LINE
8
BLACK
6
CONTINUOUS
10
3.55751
20
-2.57679
11
3.55906
21
-2.577
0
LINE
8
BLACK
6
CONTINUOUS
10
3.55906
20
-2.577
11
3.55906
21
-2.577
0
LINE
8
BLACK
6
CONTINUOUS
10
3.55906
20
-2.577
11
3.55906
21
-2.577
0
LINE
8
BLACK
6
CONTINUOUS
10
3.55906
20
-2.577
11
3.56029
21
-2.57683
0
LINE
8
BLACK
6
CONTINUOUS
10
3.56029
20
-2.57683
11
3.56523
21
-2.57618
0
LINE
8
BLACK
6
CONTINUOUS
10
3.56523
20
-2.57618
11
3.57098
21
-2.5738
0
LINE
8
BLACK
6
CONTINUOUS
10
3.57098
20
-2.5738
11
3.57145
21
-2.57344
0
LINE
8
BLACK
6
CONTINUOUS
10
3.57145
20
-2.57344
11
3.57372
21
-2.57264
0
LINE
8
BLACK
6
CONTINUOUS
10
3.57372
20
-2.57264
11
3.57603
21
-2.57332
0
LINE
8
BLACK
6
CONTINUOUS
10
3.57603
20
-2.57332
11
3.57619
21
-2.57344
0
LINE
8
BLACK
6
CONTINUOUS
10
3.57619
20
-2.57344
11
3.57666
21
-2.5738
0
LINE
8
BLACK
6
CONTINUOUS
10
3.57666
20
-2.5738
11
3.58241
21
-2.57618
0
LINE
8
BLACK
6
CONTINUOUS
10
3.58241
20
-2.57618
11
3.58858
21
-2.577
0
LINE
8
BLACK
6
CONTINUOUS
10
3.58858
20
-2.577
11
3.58858
21
-2.577
0
LINE
8
BLACK
6
CONTINUOUS
10
3.58858
20
-2.577
11
3.58876
21
-2.57702
0
LINE
8
BLACK
6
CONTINUOUS
10
3.58876
20
-2.57702
11
3.59093
21
-2.57806
0
LINE
8
BLACK
6
CONTINUOUS
10
3.59093
20
-2.57806
11
3.59208
21
-2.58017
0
LINE
8
BLACK
6
CONTINUOUS
10
3.59208
20
-2.58017
11
3.59177
21
-2.58256
0
LINE
8
BLACK
6
CONTINUOUS
10
3.59177
20
-2.58256
11
3.59067
21
-2.58394
0
LINE
8
BLACK
6
CONTINUOUS
10
3.59067
20
-2.58394
11
3.54649
21
-2.619
0
LINE
8
BLACK
6
CONTINUOUS
10
3.54649
20
-2.619
11
3.54598
21
-2.61924
0
LINE
8
BLACK
6
CONTINUOUS
10
3.54598
20
-2.61924
11
3.54582
21
-2.61949
0
LINE
8
BLACK
6
CONTINUOUS
10
3.54582
20
-2.61949
11
3.54577
21
-2.61956
0
LINE
8
BLACK
6
CONTINUOUS
10
3.54577
20
-2.61956
11
3.54571
21
-2.61966
0
LINE
8
BLACK
6
CONTINUOUS
10
3.54571
20
-2.61966
11
3.53888
21
-2.62956
0
LINE
8
BLACK
6
CONTINUOUS
10
3.53888
20
-2.62956
11
3.53071
21
-2.64137
0
LINE
8
BLACK
6
CONTINUOUS
10
3.53071
20
-2.64137
11
3.53065
21
-2.64145
0
LINE
8
BLACK
6
CONTINUOUS
10
3.53065
20
-2.64145
11
3.52251
21
-2.65195
0
LINE
8
BLACK
6
CONTINUOUS
10
3.52251
20
-2.65195
11
3.5142
21
-2.66257
0
LINE
8
BLACK
6
CONTINUOUS
10
3.5142
20
-2.66257
11
3.51414
21
-2.66265
0
LINE
8
BLACK
6
CONTINUOUS
10
3.51414
20
-2.66265
11
3.50532
21
-2.67282
0
LINE
8
BLACK
6
CONTINUOUS
10
3.50532
20
-2.67282
11
3.49652
21
-2.68281
0
LINE
8
BLACK
6
CONTINUOUS
10
3.49652
20
-2.68281
11
3.49646
21
-2.68287
0
LINE
8
BLACK
6
CONTINUOUS
10
3.49646
20
-2.68287
11
3.48704
21
-2.69259
0
LINE
8
BLACK
6
CONTINUOUS
10
3.48704
20
-2.69259
11
3.47768
21
-2.70203
0
LINE
8
BLACK
6
CONTINUOUS
10
3.47768
20
-2.70203
11
3.46768
21
-2.71128
0
LINE
8
BLACK
6
CONTINUOUS
10
3.46768
20
-2.71128
11
3.45782
21
-2.72013
0
LINE
8
BLACK
6
CONTINUOUS
10
3.45782
20
-2.72013
11
3.44731
21
-2.72882
0
LINE
8
BLACK
6
CONTINUOUS
10
3.44731
20
-2.72882
11
3.43696
21
-2.73706
0
LINE
8
BLACK
6
CONTINUOUS
10
3.43696
20
-2.73706
11
3.42597
21
-2.74517
0
LINE
8
BLACK
6
CONTINUOUS
10
3.42597
20
-2.74517
11
3.41517
21
-2.75278
0
LINE
8
BLACK
6
CONTINUOUS
10
3.41517
20
-2.75278
11
3.40374
21
-2.76027
0
LINE
8
BLACK
6
CONTINUOUS
10
3.40374
20
-2.76027
11
3.39253
21
-2.76724
0
LINE
8
BLACK
6
CONTINUOUS
10
3.39253
20
-2.76724
11
3.3807
21
-2.77409
0
LINE
8
BLACK
6
CONTINUOUS
10
3.3807
20
-2.77409
11
3.36909
21
-2.78039
0
LINE
8
BLACK
6
CONTINUOUS
10
3.36909
20
-2.78039
11
3.35691
21
-2.78658
0
LINE
8
BLACK
6
CONTINUOUS
10
3.35691
20
-2.78658
11
3.34495
21
-2.79219
0
LINE
8
BLACK
6
CONTINUOUS
10
3.34495
20
-2.79219
11
3.33244
21
-2.79769
0
LINE
8
BLACK
6
CONTINUOUS
10
3.33244
20
-2.79769
11
3.32017
21
-2.80259
0
LINE
8
BLACK
6
CONTINUOUS
10
3.32017
20
-2.80259
11
3.30739
21
-2.80739
0
LINE
8
BLACK
6
CONTINUOUS
10
3.30739
20
-2.80739
11
3.29484
21
-2.81158
0
LINE
8
BLACK
6
CONTINUOUS
10
3.29484
20
-2.81158
11
3.28182
21
-2.81566
0
LINE
8
BLACK
6
CONTINUOUS
10
3.28182
20
-2.81566
11
3.26903
21
-2.81911
0
LINE
8
BLACK
6
CONTINUOUS
10
3.26903
20
-2.81911
11
3.25583
21
-2.82246
0
LINE
8
BLACK
6
CONTINUOUS
10
3.25583
20
-2.82246
11
3.24282
21
-2.82516
0
LINE
8
BLACK
6
CONTINUOUS
10
3.24282
20
-2.82516
11
3.22954
21
-2.82776
0
LINE
8
BLACK
6
CONTINUOUS
10
3.22954
20
-2.82776
11
3.22945
21
-2.82778
0
LINE
8
BLACK
6
CONTINUOUS
10
3.22945
20
-2.82778
11
3.21628
21
-2.82972
0
LINE
8
BLACK
6
CONTINUOUS
10
3.21628
20
-2.82972
11
3.20294
21
-2.83157
0
LINE
8
BLACK
6
CONTINUOUS
10
3.20294
20
-2.83157
11
3.20284
21
-2.83158
0
LINE
8
BLACK
6
CONTINUOUS
10
3.20284
20
-2.83158
11
3.18941
21
-2.83277
0
LINE
8
BLACK
6
CONTINUOUS
10
3.18941
20
-2.83277
11
3.17617
21
-2.83387
0
LINE
8
BLACK
6
CONTINUOUS
10
3.17617
20
-2.83387
11
3.17607
21
-2.83387
0
LINE
8
BLACK
6
CONTINUOUS
10
3.17607
20
-2.83387
11
3.16171
21
-2.83429
0
LINE
8
BLACK
6
CONTINUOUS
10
3.16171
20
-2.83429
11
3.14966
21
-2.83462
0
LINE
8
BLACK
6
CONTINUOUS
10
3.14966
20
-2.83462
11
3.14955
21
-2.83462
0
LINE
8
BLACK
6
CONTINUOUS
10
3.14955
20
-2.83462
11
3.12269
21
-2.83386
0
LINE
8
BLACK
6
CONTINUOUS
10
3.12269
20
-2.83386
11
3.12258
21
-2.83385
0
LINE
8
BLACK
6
CONTINUOUS
10
3.12258
20
-2.83385
11
3.10099
21
-2.832
0
LINE
8
BLACK
6
CONTINUOUS
10
3.10099
20
-2.832
11
3.09566
21
-2.83153
0
LINE
8
BLACK
6
CONTINUOUS
10
3.09566
20
-2.83153
11
3.09555
21
-2.83152
0
LINE
8
BLACK
6
CONTINUOUS
10
3.09555
20
-2.83152
11
3.07711
21
-2.82887
0
LINE
8
BLACK
6
CONTINUOUS
10
3.07711
20
-2.82887
11
3.06871
21
-2.82764
0
LINE
8
BLACK
6
CONTINUOUS
10
3.06871
20
-2.82764
11
3.06861
21
-2.82762
0
LINE
8
BLACK
6
CONTINUOUS
10
3.06861
20
-2.82762
11
3.05167
21
-2.82419
0
LINE
8
BLACK
6
CONTINUOUS
10
3.05167
20
-2.82419
11
3.04204
21
-2.8222
0
LINE
8
BLACK
6
CONTINUOUS
10
3.04204
20
-2.8222
11
3.04193
21
-2.82217
0
LINE
8
BLACK
6
CONTINUOUS
10
3.04193
20
-2.82217
11
3.02594
21
-2.81797
0
LINE
8
BLACK
6
CONTINUOUS
10
3.02594
20
-2.81797
11
3.01572
21
-2.81523
0
LINE
8
BLACK
6
CONTINUOUS
10
3.01572
20
-2.81523
11
3.01562
21
-2.8152
0
LINE
8
BLACK
6
CONTINUOUS
10
3.01562
20
-2.8152
11
3.00033
21
-2.81023
0
LINE
8
BLACK
6
CONTINUOUS
10
3.00033
20
-2.81023
11
2.98984
21
-2.80676
0
LINE
8
BLACK
6
CONTINUOUS
10
2.98984
20
-2.80676
11
2.98975
21
-2.80672
0
LINE
8
BLACK
6
CONTINUOUS
10
2.98975
20
-2.80672
11
2.97508
21
-2.80101
0
LINE
8
BLACK
6
CONTINUOUS
10
2.97508
20
-2.80101
11
2.9645
21
-2.79681
0
LINE
8
BLACK
6
CONTINUOUS
10
2.9645
20
-2.79681
11
2.96441
21
-2.79677
0
LINE
8
BLACK
6
CONTINUOUS
10
2.96441
20
-2.79677
11
2.95602
21
-2.79294
0
LINE
8
BLACK
6
CONTINUOUS
10
2.95602
20
-2.79294
11
2.9503
21
-2.79033
0
LINE
8
BLACK
6
CONTINUOUS
10
2.9503
20
-2.79033
11
2.93977
21
-2.78542
0
LINE
8
BLACK
6
CONTINUOUS
10
2.93977
20
-2.78542
11
2.93969
21
-2.78538
0
LINE
8
BLACK
6
CONTINUOUS
10
2.93969
20
-2.78538
11
2.92613
21
-2.77822
0
LINE
8
BLACK
6
CONTINUOUS
10
2.92613
20
-2.77822
11
2.92452
21
-2.77735
0
LINE
8
BLACK
6
CONTINUOUS
10
2.92452
20
-2.77735
11
2.91574
21
-2.77262
0
LINE
8
BLACK
6
CONTINUOUS
10
2.91574
20
-2.77262
11
2.91566
21
-2.77258
0
LINE
8
BLACK
6
CONTINUOUS
10
2.91566
20
-2.77258
11
2.90512
21
-2.76622
0
LINE
8
BLACK
6
CONTINUOUS
10
2.90512
20
-2.76622
11
2.90265
21
-2.76473
0
LINE
8
BLACK
6
CONTINUOUS
10
2.90265
20
-2.76473
11
2.89249
21
-2.75846
0
LINE
8
BLACK
6
CONTINUOUS
10
2.89249
20
-2.75846
11
2.89242
21
-2.75841
0
LINE
8
BLACK
6
CONTINUOUS
10
2.89242
20
-2.75841
11
2.87997
21
-2.7499
0
LINE
8
BLACK
6
CONTINUOUS
10
2.87997
20
-2.7499
11
2.8701
21
-2.74299
0
LINE
8
BLACK
6
CONTINUOUS
10
2.8701
20
-2.74299
11
2.87003
21
-2.74294
0
LINE
8
BLACK
6
CONTINUOUS
10
2.87003
20
-2.74294
11
2.85815
21
-2.73378
0
LINE
8
BLACK
6
CONTINUOUS
10
2.85815
20
-2.73378
11
2.84863
21
-2.72625
0
LINE
8
BLACK
6
CONTINUOUS
10
2.84863
20
-2.72625
11
2.84856
21
-2.7262
0
LINE
8
BLACK
6
CONTINUOUS
10
2.84856
20
-2.7262
11
2.83729
21
-2.71643
0
LINE
8
BLACK
6
CONTINUOUS
10
2.83729
20
-2.71643
11
2.82813
21
-2.70828
0
LINE
8
BLACK
6
CONTINUOUS
10
2.82813
20
-2.70828
11
2.81745
21
-2.69789
0
LINE
8
BLACK
6
CONTINUOUS
10
2.81745
20
-2.69789
11
2.80873
21
-2.68918
0
LINE
8
BLACK
6
CONTINUOUS
10
2.80873
20
-2.68918
11
2.80288
21
-2.68281
0
LINE
8
BLACK
6
CONTINUOUS
10
2.80288
20
-2.68281
11
2.7987
21
-2.67825
0
LINE
8
BLACK
6
CONTINUOUS
10
2.7987
20
-2.67825
11
2.79047
21
-2.669
0
LINE
8
BLACK
6
CONTINUOUS
10
2.79047
20
-2.669
11
2.7811
21
-2.65755
0
LINE
8
BLACK
6
CONTINUOUS
10
2.7811
20
-2.65755
11
2.7734
21
-2.6478
0
LINE
8
BLACK
6
CONTINUOUS
10
2.7734
20
-2.6478
11
2.76472
21
-2.63586
0
LINE
8
BLACK
6
CONTINUOUS
10
2.76472
20
-2.63586
11
2.75758
21
-2.62566
0
LINE
8
BLACK
6
CONTINUOUS
10
2.75758
20
-2.62566
11
2.74961
21
-2.61327
0
LINE
8
BLACK
6
CONTINUOUS
10
2.74961
20
-2.61327
11
2.74306
21
-2.60264
0
LINE
8
BLACK
6
CONTINUOUS
10
2.74306
20
-2.60264
11
2.73583
21
-2.58984
0
LINE
8
BLACK
6
CONTINUOUS
10
2.73583
20
-2.58984
11
2.73227
21
-2.58323
0
LINE
8
BLACK
6
CONTINUOUS
10
2.73227
20
-2.58323
11
2.72989
21
-2.57882
0
LINE
8
BLACK
6
CONTINUOUS
10
2.72989
20
-2.57882
11
2.72859
21
-2.57618
0
LINE
8
BLACK
6
CONTINUOUS
10
2.72859
20
-2.57618
11
2.72341
21
-2.56565
0
LINE
8
BLACK
6
CONTINUOUS
10
2.72341
20
-2.56565
11
2.71811
21
-2.55428
0
LINE
8
BLACK
6
CONTINUOUS
10
2.71811
20
-2.55428
11
2.71241
21
-2.54078
0
LINE
8
BLACK
6
CONTINUOUS
10
2.71241
20
-2.54078
11
2.70777
21
-2.52911
0
LINE
8
BLACK
6
CONTINUOUS
10
2.70777
20
-2.52911
11
2.70687
21
-2.52659
0
LINE
8
BLACK
6
CONTINUOUS
10
2.70687
20
-2.52659
11
2.70285
21
-2.51532
0
LINE
8
BLACK
6
CONTINUOUS
10
2.70285
20
-2.51532
11
2.6989
21
-2.50338
0
LINE
8
BLACK
6
CONTINUOUS
10
2.6989
20
-2.50338
11
2.69857
21
-2.50226
0
LINE
8
BLACK
6
CONTINUOUS
10
2.69857
20
-2.50226
11
2.69478
21
-2.48935
0
LINE
8
BLACK
6
CONTINUOUS
10
2.69478
20
-2.48935
11
2.69152
21
-2.47719
0
LINE
8
BLACK
6
CONTINUOUS
10
2.69152
20
-2.47719
11
2.68821
21
-2.46296
0
LINE
8
BLACK
6
CONTINUOUS
10
2.68821
20
-2.46296
11
2.68566
21
-2.45062
0
LINE
8
BLACK
6
CONTINUOUS
10
2.68566
20
-2.45062
11
2.68541
21
-2.44918
0
LINE
8
BLACK
6
CONTINUOUS
10
2.68541
20
-2.44918
11
2.68317
21
-2.43623
0
LINE
8
BLACK
6
CONTINUOUS
10
2.68317
20
-2.43623
11
2.68287
21
-2.43418
0
LINE
8
BLACK
6
CONTINUOUS
10
2.68287
20
-2.43418
11
2.68134
21
-2.42375
0
LINE
8
BLACK
6
CONTINUOUS
10
2.68134
20
-2.42375
11
2.67968
21
-2.40925
0
LINE
8
BLACK
6
CONTINUOUS
10
2.67968
20
-2.40925
11
2.67898
21
-2.40131
0
LINE
8
BLACK
6
CONTINUOUS
10
2.67898
20
-2.40131
11
2.67858
21
-2.39668
0
LINE
8
BLACK
6
CONTINUOUS
10
2.67858
20
-2.39668
11
2.67774
21
-2.38211
0
LINE
8
BLACK
6
CONTINUOUS
10
2.67774
20
-2.38211
11
2.67738
21
-2.3695
0
LINE
8
BLACK
6
CONTINUOUS
10
2.67738
20
-2.3695
11
2.67738
21
-2.3622
0
LINE
8
BLACK
6
CONTINUOUS
10
2.67738
20
-2.3622
11
2.67738
21
-2.35491
0
LINE
8
BLACK
6
CONTINUOUS
10
2.67738
20
-2.35491
11
2.67739
21
-2.35446
0
LINE
8
BLACK
6
CONTINUOUS
10
2.67739
20
-2.35446
11
2.67774
21
-2.3423
0
LINE
8
BLACK
6
CONTINUOUS
10
2.67774
20
-2.3423
11
2.67858
21
-2.32773
0
LINE
8
BLACK
6
CONTINUOUS
10
2.67858
20
-2.32773
11
2.67968
21
-2.31516
0
LINE
8
BLACK
6
CONTINUOUS
10
2.67968
20
-2.31516
11
2.68134
21
-2.30066
0
LINE
8
BLACK
6
CONTINUOUS
10
2.68134
20
-2.30066
11
2.68317
21
-2.28818
0
LINE
8
BLACK
6
CONTINUOUS
10
2.68317
20
-2.28818
11
2.68566
21
-2.27379
0
LINE
8
BLACK
6
CONTINUOUS
10
2.68566
20
-2.27379
11
2.68821
21
-2.26145
0
LINE
8
BLACK
6
CONTINUOUS
10
2.68821
20
-2.26145
11
2.69152
21
-2.24722
0
LINE
8
BLACK
6
CONTINUOUS
10
2.69152
20
-2.24722
11
2.69478
21
-2.23506
0
LINE
8
BLACK
6
CONTINUOUS
10
2.69478
20
-2.23506
11
2.6989
21
-2.22103
0
LINE
8
BLACK
6
CONTINUOUS
10
2.6989
20
-2.22103
11
2.69996
21
-2.2178
0
LINE
8
BLACK
6
CONTINUOUS
10
2.69996
20
-2.2178
11
2.70285
21
-2.20909
0
LINE
8
BLACK
6
CONTINUOUS
10
2.70285
20
-2.20909
11
2.70777
21
-2.1953
0
LINE
8
BLACK
6
CONTINUOUS
10
2.70777
20
-2.1953
11
2.71241
21
-2.18363
0
LINE
8
BLACK
6
CONTINUOUS
10
2.71241
20
-2.18363
11
2.71811
21
-2.17013
0
LINE
8
BLACK
6
CONTINUOUS
10
2.71811
20
-2.17013
11
2.72341
21
-2.15876
0
LINE
8
BLACK
6
CONTINUOUS
10
2.72341
20
-2.15876
11
2.72989
21
-2.14559
0
LINE
8
BLACK
6
CONTINUOUS
10
2.72989
20
-2.14559
11
2.73583
21
-2.13457
0
LINE
8
BLACK
6
CONTINUOUS
10
2.73583
20
-2.13457
11
2.74306
21
-2.12177
0
LINE
8
BLACK
6
CONTINUOUS
10
2.74306
20
-2.12177
11
2.74961
21
-2.11114
0
LINE
8
BLACK
6
CONTINUOUS
10
2.74961
20
-2.11114
11
2.75689
21
-2.09982
0
LINE
8
BLACK
6
CONTINUOUS
10
2.75689
20
-2.09982
11
2.75758
21
-2.09875
0
LINE
8
BLACK
6
CONTINUOUS
10
2.75758
20
-2.09875
11
2.76472
21
-2.08855
0
LINE
8
BLACK
6
CONTINUOUS
10
2.76472
20
-2.08855
11
2.76476
21
-2.08849
0
LINE
8
BLACK
6
CONTINUOUS
10
2.76476
20
-2.08849
11
2.7734
21
-2.07661
0
LINE
8
BLACK
6
CONTINUOUS
10
2.7734
20
-2.07661
11
2.7811
21
-2.06687
0
LINE
8
BLACK
6
CONTINUOUS
10
2.7811
20
-2.06687
11
2.79047
21
-2.05541
0
LINE
8
BLACK
6
CONTINUOUS
10
2.79047
20
-2.05541
11
2.79869
21
-2.04617
0
LINE
8
BLACK
6
CONTINUOUS
10
2.79869
20
-2.04617
11
2.80873
21
-2.03523
0
LINE
8
BLACK
6
CONTINUOUS
10
2.80873
20
-2.03523
11
2.81745
21
-2.02652
0
LINE
8
BLACK
6
CONTINUOUS
10
2.81745
20
-2.02652
11
2.82813
21
-2.01613
0
LINE
8
BLACK
6
CONTINUOUS
10
2.82813
20
-2.01613
11
2.83729
21
-2.00798
0
LINE
8
BLACK
6
CONTINUOUS
10
2.83729
20
-2.00798
11
2.84856
21
-1.99821
0
LINE
8
BLACK
6
CONTINUOUS
10
2.84856
20
-1.99821
11
2.84863
21
-1.99816
0
LINE
8
BLACK
6
CONTINUOUS
10
2.84863
20
-1.99816
11
2.85815
21
-1.99063
0
LINE
8
BLACK
6
CONTINUOUS
10
2.85815
20
-1.99063
11
2.87003
21
-1.98147
0
LINE
8
BLACK
6
CONTINUOUS
10
2.87003
20
-1.98147
11
2.8701
21
-1.98142
0
LINE
8
BLACK
6
CONTINUOUS
10
2.8701
20
-1.98142
11
2.87997
21
-1.97451
0
LINE
8
BLACK
6
CONTINUOUS
10
2.87997
20
-1.97451
11
2.89242
21
-1.96599
0
LINE
8
BLACK
6
CONTINUOUS
10
2.89242
20
-1.96599
11
2.89249
21
-1.96595
0
LINE
8
BLACK
6
CONTINUOUS
10
2.89249
20
-1.96595
11
2.90265
21
-1.95968
0
LINE
8
BLACK
6
CONTINUOUS
10
2.90265
20
-1.95968
11
2.91567
21
-1.95183
0
LINE
8
BLACK
6
CONTINUOUS
10
2.91567
20
-1.95183
11
2.91574
21
-1.95179
0
LINE
8
BLACK
6
CONTINUOUS
10
2.91574
20
-1.95179
11
2.92613
21
-1.94619
0
LINE
8
BLACK
6
CONTINUOUS
10
2.92613
20
-1.94619
11
2.93969
21
-1.93903
0
LINE
8
BLACK
6
CONTINUOUS
10
2.93969
20
-1.93903
11
2.93977
21
-1.93899
0
LINE
8
BLACK
6
CONTINUOUS
10
2.93977
20
-1.93899
11
2.9503
21
-1.93408
0
LINE
8
BLACK
6
CONTINUOUS
10
2.9503
20
-1.93408
11
2.96441
21
-1.92764
0
LINE
8
BLACK
6
CONTINUOUS
10
2.96441
20
-1.92764
11
2.9645
21
-1.9276
0
LINE
8
BLACK
6
CONTINUOUS
10
2.9645
20
-1.9276
11
2.97507
21
-1.9234
0
LINE
8
BLACK
6
CONTINUOUS
10
2.97507
20
-1.9234
11
2.98975
21
-1.91769
0
LINE
8
BLACK
6
CONTINUOUS
10
2.98975
20
-1.91769
11
2.98984
21
-1.91765
0
LINE
8
BLACK
6
CONTINUOUS
10
2.98984
20
-1.91765
11
3.00033
21
-1.91418
0
LINE
8
BLACK
6
CONTINUOUS
10
3.00033
20
-1.91418
11
3.01562
21
-1.90921
0
LINE
8
BLACK
6
CONTINUOUS
10
3.01562
20
-1.90921
11
3.01572
21
-1.90918
0
LINE
8
BLACK
6
CONTINUOUS
10
3.01572
20
-1.90918
11
3.02593
21
-1.90644
0
LINE
8
BLACK
6
CONTINUOUS
10
3.02593
20
-1.90644
11
3.04194
21
-1.90224
0
LINE
8
BLACK
6
CONTINUOUS
10
3.04194
20
-1.90224
11
3.04203
21
-1.90221
0
LINE
8
BLACK
6
CONTINUOUS
10
3.04203
20
-1.90221
11
3.05166
21
-1.90023
0
LINE
8
BLACK
6
CONTINUOUS
10
3.05166
20
-1.90023
11
3.06861
21
-1.89679
0
LINE
8
BLACK
6
CONTINUOUS
10
3.06861
20
-1.89679
11
3.06871
21
-1.89677
0
LINE
8
BLACK
6
CONTINUOUS
10
3.06871
20
-1.89677
11
3.07711
21
-1.89554
0
LINE
8
BLACK
6
CONTINUOUS
10
3.07711
20
-1.89554
11
3.09555
21
-1.89289
0
LINE
8
BLACK
6
CONTINUOUS
10
3.09555
20
-1.89289
11
3.09566
21
-1.89288
0
LINE
8
BLACK
6
CONTINUOUS
10
3.09566
20
-1.89288
11
3.10097
21
-1.89241
0
LINE
8
BLACK
6
CONTINUOUS
10
3.10097
20
-1.89241
11
3.12258
21
-1.89056
0
LINE
8
BLACK
6
CONTINUOUS
10
3.12258
20
-1.89056
11
3.12269
21
-1.89055
0
LINE
8
BLACK
6
CONTINUOUS
10
3.12269
20
-1.89055
11
3.13764
21
-1.89013
0
LINE
8
BLACK
6
CONTINUOUS
10
3.13764
20
-1.89013
11
3.14955
21
-1.88978
0
LINE
8
BLACK
6
CONTINUOUS
10
3.14955
20
-1.88978
11
3.14966
21
-1.88978
0
LINE
8
BLACK
6
CONTINUOUS
10
3.14966
20
-1.88978
11
3.16258
21
-1.89014
0
LINE
8
BLACK
6
CONTINUOUS
10
3.5513
20
-2.24529
11
3.55118
21
-2.24531
0
LINE
8
BLACK
6
CONTINUOUS
10
3.55118
20
-2.24531
11
3.55118
21
-2.29507
0
LINE
8
BLACK
6
CONTINUOUS
10
3.55118
20
-2.29507
11
3.5513
21
-2.29606
0
LINE
8
BLACK
6
CONTINUOUS
10
3.5513
20
-2.29606
11
3.55308
21
-2.3001
0
LINE
8
BLACK
6
CONTINUOUS
10
3.55308
20
-2.3001
11
3.5562
21
-2.30322
0
LINE
8
BLACK
6
CONTINUOUS
10
3.5562
20
-2.30322
11
3.56024
21
-2.305
0
LINE
8
BLACK
6
CONTINUOUS
10
3.56024
20
-2.305
11
3.56123
21
-2.30512
0
LINE
8
BLACK
6
CONTINUOUS
10
3.56123
20
-2.30512
11
3.57677
21
-2.30512
0
LINE
8
BLACK
6
CONTINUOUS
10
3.57677
20
-2.30512
11
3.57677
21
-2.30512
0
LINE
8
BLACK
6
CONTINUOUS
10
3.57677
20
-2.30512
11
3.57677
21
-2.29331
0
LINE
8
BLACK
6
CONTINUOUS
10
3.57677
20
-2.29331
11
3.56299
21
-2.29331
0
LINE
8
BLACK
6
CONTINUOUS
10
3.56299
20
-2.29331
11
3.56299
21
-2.24508
0
LINE
8
BLACK
6
CONTINUOUS
10
3.56299
20
-2.24508
11
3.55172
21
-2.24508
0
LINE
8
BLACK
6
CONTINUOUS
10
3.55172
20
-2.24508
11
3.5513
21
-2.24529
0
LINE
8
BLACK
6
CONTINUOUS
10
3.58858
20
-2.18504
11
3.60236
21
-2.18504
0
LINE
8
BLACK
6
CONTINUOUS
10
3.60236
20
-2.18504
11
3.60236
21
-2.23327
0
LINE
8
BLACK
6
CONTINUOUS
10
3.60236
20
-2.23327
11
3.61417
21
-2.23327
0
LINE
8
BLACK
6
CONTINUOUS
10
3.61417
20
-2.23327
11
3.61417
21
-2.23327
0
LINE
8
BLACK
6
CONTINUOUS
10
3.61417
20
-2.23327
11
3.61417
21
-2.18328
0
LINE
8
BLACK
6
CONTINUOUS
10
3.61417
20
-2.18328
11
3.61417
21
-2.18328
0
LINE
8
BLACK
6
CONTINUOUS
10
3.61417
20
-2.18328
11
3.61406
21
-2.18229
0
LINE
8
BLACK
6
CONTINUOUS
10
3.61406
20
-2.18229
11
3.61228
21
-2.17825
0
LINE
8
BLACK
6
CONTINUOUS
10
3.61228
20
-2.17825
11
3.60915
21
-2.17513
0
LINE
8
BLACK
6
CONTINUOUS
10
3.60915
20
-2.17513
11
3.60511
21
-2.17334
0
LINE
8
BLACK
6
CONTINUOUS
10
3.60511
20
-2.17334
11
3.60413
21
-2.17323
0
LINE
8
BLACK
6
CONTINUOUS
10
3.60413
20
-2.17323
11
3.58858
21
-2.17323
0
LINE
8
BLACK
6
CONTINUOUS
10
3.58858
20
-2.17323
11
3.58858
21
-2.18504
0
LINE
8
BLACK
6
CONTINUOUS
10
3.56123
20
-2.17323
11
3.56024
21
-2.17334
0
LINE
8
BLACK
6
CONTINUOUS
10
3.56024
20
-2.17334
11
3.5562
21
-2.17513
0
LINE
8
BLACK
6
CONTINUOUS
10
3.5562
20
-2.17513
11
3.55308
21
-2.17825
0
LINE
8
BLACK
6
CONTINUOUS
10
3.55308
20
-2.17825
11
3.5513
21
-2.18229
0
LINE
8
BLACK
6
CONTINUOUS
10
3.5513
20
-2.18229
11
3.55118
21
-2.18328
0
LINE
8
BLACK
6
CONTINUOUS
10
3.55118
20
-2.18328
11
3.55118
21
-2.21532
0
LINE
8
BLACK
6
CONTINUOUS
10
3.55118
20
-2.21532
11
3.5513
21
-2.21534
0
LINE
8
BLACK
6
CONTINUOUS
10
3.5513
20
-2.21534
11
3.55569
21
-2.21757
0
LINE
8
BLACK
6
CONTINUOUS
10
3.55569
20
-2.21757
11
3.55918
21
-2.22106
0
LINE
8
BLACK
6
CONTINUOUS
10
3.55918
20
-2.22106
11
3.56141
21
-2.22545
0
LINE
8
BLACK
6
CONTINUOUS
10
3.56141
20
-2.22545
11
3.56219
21
-2.23031
0
LINE
8
BLACK
6
CONTINUOUS
10
3.56219
20
-2.23031
11
3.56172
21
-2.23327
0
LINE
8
BLACK
6
CONTINUOUS
10
3.56172
20
-2.23327
11
3.56299
21
-2.23327
0
LINE
8
BLACK
6
CONTINUOUS
10
3.56299
20
-2.23327
11
3.56299
21
-2.18504
0
LINE
8
BLACK
6
CONTINUOUS
10
3.56299
20
-2.18504
11
3.57677
21
-2.18504
0
LINE
8
BLACK
6
CONTINUOUS
10
3.57677
20
-2.18504
11
3.57677
21
-2.17323
0
LINE
8
BLACK
6
CONTINUOUS
10
3.57677
20
-2.17323
11
3.56123
21
-2.17323
0
LINE
8
BLACK
6
CONTINUOUS
10
3.56123
20
-2.17323
11
3.56123
21
-2.17323
0
LINE
8
BLACK
6
CONTINUOUS
10
2.90952
20
-2.3693
11
2.90955
21
-2.36995
0
LINE
8
BLACK
6
CONTINUOUS
10
2.90955
20
-2.36995
11
2.90955
21
-2.37188
0
LINE
8
BLACK
6
CONTINUOUS
10
2.90955
20
-2.37188
11
2.9097
21
-2.3738
0
LINE
8
BLACK
6
CONTINUOUS
10
2.9097
20
-2.3738
11
2.91001
21
-2.38155
0
LINE
8
BLACK
6
CONTINUOUS
10
2.91001
20
-2.38155
11
2.91001
21
-2.38155
0
LINE
8
BLACK
6
CONTINUOUS
10
2.91001
20
-2.38155
11
2.91001
21
-2.38155
0
LINE
8
BLACK
6
CONTINUOUS
10
2.91001
20
-2.38155
11
2.91095
21
-2.38924
0
LINE
8
BLACK
6
CONTINUOUS
10
2.91095
20
-2.38924
11
2.9111
21
-2.39116
0
LINE
8
BLACK
6
CONTINUOUS
10
2.9111
20
-2.39116
11
2.9111
21
-2.39116
0
LINE
8
BLACK
6
CONTINUOUS
10
2.9111
20
-2.39116
11
2.91141
21
-2.39307
0
LINE
8
BLACK
6
CONTINUOUS
10
2.91141
20
-2.39307
11
2.91235
21
-2.40076
0
LINE
8
BLACK
6
CONTINUOUS
10
2.91235
20
-2.40076
11
2.9139
21
-2.40836
0
LINE
8
BLACK
6
CONTINUOUS
10
2.9139
20
-2.40836
11
2.91421
21
-2.41026
0
LINE
8
BLACK
6
CONTINUOUS
10
2.91421
20
-2.41026
11
2.91467
21
-2.41214
0
LINE
8
BLACK
6
CONTINUOUS
10
2.91467
20
-2.41214
11
2.91473
21
-2.41246
0
LINE
8
BLACK
6
CONTINUOUS
10
2.91473
20
-2.41246
11
2.91622
21
-2.41973
0
LINE
8
BLACK
6
CONTINUOUS
10
2.91622
20
-2.41973
11
2.91622
21
-2.41973
0
LINE
8
BLACK
6
CONTINUOUS
10
2.91622
20
-2.41973
11
2.91838
21
-2.42717
0
LINE
8
BLACK
6
CONTINUOUS
10
2.91838
20
-2.42717
11
2.91884
21
-2.42905
0
LINE
8
BLACK
6
CONTINUOUS
10
2.91884
20
-2.42905
11
2.91945
21
-2.43088
0
LINE
8
BLACK
6
CONTINUOUS
10
2.91945
20
-2.43088
11
2.92037
21
-2.43408
0
LINE
8
BLACK
6
CONTINUOUS
10
2.92037
20
-2.43408
11
2.9216
21
-2.43832
0
LINE
8
BLACK
6
CONTINUOUS
10
2.9216
20
-2.43832
11
2.9216
21
-2.43832
0
LINE
8
BLACK
6
CONTINUOUS
10
2.9216
20
-2.43832
11
2.9216
21
-2.43832
0
LINE
8
BLACK
6
CONTINUOUS
10
2.9216
20
-2.43832
11
2.92435
21
-2.44557
0
LINE
8
BLACK
6
CONTINUOUS
10
2.92435
20
-2.44557
11
2.92496
21
-2.4474
0
LINE
8
BLACK
6
CONTINUOUS
10
2.92496
20
-2.4474
11
2.92496
21
-2.4474
0
LINE
8
BLACK
6
CONTINUOUS
10
2.92496
20
-2.4474
11
2.92572
21
-2.44918
0
LINE
8
BLACK
6
CONTINUOUS
10
2.92572
20
-2.44918
11
2.92847
21
-2.45642
0
LINE
8
BLACK
6
CONTINUOUS
10
2.92847
20
-2.45642
11
2.92847
21
-2.45642
0
LINE
8
BLACK
6
CONTINUOUS
10
2.92847
20
-2.45642
11
2.93043
21
-2.46055
0
LINE
8
BLACK
6
CONTINUOUS
10
2.93043
20
-2.46055
11
2.93179
21
-2.46342
0
LINE
8
BLACK
6
CONTINUOUS
10
2.93179
20
-2.46342
11
2.93255
21
-2.4652
0
LINE
8
BLACK
6
CONTINUOUS
10
2.93255
20
-2.4652
11
2.93345
21
-2.46691
0
LINE
8
BLACK
6
CONTINUOUS
10
2.93345
20
-2.46691
11
2.93677
21
-2.47391
0
LINE
8
BLACK
6
CONTINUOUS
10
2.93677
20
-2.47391
11
2.94064
21
-2.48062
0
LINE
8
BLACK
6
CONTINUOUS
10
2.94064
20
-2.48062
11
2.94154
21
-2.48233
0
LINE
8
BLACK
6
CONTINUOUS
10
2.94154
20
-2.48233
11
2.94257
21
-2.48396
0
LINE
8
BLACK
6
CONTINUOUS
10
2.94257
20
-2.48396
11
2.94534
21
-2.48876
0
LINE
8
BLACK
6
CONTINUOUS
10
2.94534
20
-2.48876
11
2.94645
21
-2.49068
0
LINE
8
BLACK
6
CONTINUOUS
10
2.94645
20
-2.49068
11
2.94645
21
-2.49068
0
LINE
8
BLACK
6
CONTINUOUS
10
2.94645
20
-2.49068
11
2.94645
21
-2.49068
0
LINE
8
BLACK
6
CONTINUOUS
10
2.94645
20
-2.49068
11
2.95085
21
-2.49705
0
LINE
8
BLACK
6
CONTINUOUS
10
2.95085
20
-2.49705
11
2.95188
21
-2.49868
0
LINE
8
BLACK
6
CONTINUOUS
10
2.95188
20
-2.49868
11
2.95188
21
-2.49869
0
LINE
8
BLACK
6
CONTINUOUS
10
2.95188
20
-2.49869
11
2.95304
21
-2.50023
0
LINE
8
BLACK
6
CONTINUOUS
10
2.95304
20
-2.50023
11
2.95744
21
-2.50661
0
LINE
8
BLACK
6
CONTINUOUS
10
2.95744
20
-2.50661
11
2.95874
21
-2.50819
0
LINE
8
BLACK
6
CONTINUOUS
10
2.95874
20
-2.50819
11
2.96234
21
-2.51261
0
LINE
8
BLACK
6
CONTINUOUS
10
2.96234
20
-2.51261
11
2.9635
21
-2.51415
0
LINE
8
BLACK
6
CONTINUOUS
10
2.9635
20
-2.51415
11
2.96426
21
-2.515
0
LINE
8
BLACK
6
CONTINUOUS
10
2.96426
20
-2.515
11
2.96478
21
-2.5156
0
LINE
8
BLACK
6
CONTINUOUS
10
2.96478
20
-2.5156
11
2.96969
21
-2.5216
0
LINE
8
BLACK
6
CONTINUOUS
10
2.96969
20
-2.5216
11
2.97505
21
-2.52719
0
LINE
8
BLACK
6
CONTINUOUS
10
2.97505
20
-2.52719
11
2.97633
21
-2.52864
0
LINE
8
BLACK
6
CONTINUOUS
10
2.97633
20
-2.52864
11
2.97773
21
-2.52997
0
LINE
8
BLACK
6
CONTINUOUS
10
2.97773
20
-2.52997
11
2.98309
21
-2.53556
0
LINE
8
BLACK
6
CONTINUOUS
10
2.98309
20
-2.53556
11
2.98889
21
-2.5407
0
LINE
8
BLACK
6
CONTINUOUS
10
2.98889
20
-2.5407
11
2.99029
21
-2.54204
0
LINE
8
BLACK
6
CONTINUOUS
10
2.99029
20
-2.54204
11
2.99178
21
-2.54326
0
LINE
8
BLACK
6
CONTINUOUS
10
2.99178
20
-2.54326
11
2.99505
21
-2.54615
0
LINE
8
BLACK
6
CONTINUOUS
10
2.99505
20
-2.54615
11
2.99758
21
-2.5484
0
LINE
8
BLACK
6
CONTINUOUS
10
2.99758
20
-2.5484
11
2.99758
21
-2.5484
0
LINE
8
BLACK
6
CONTINUOUS
10
2.99758
20
-2.5484
11
3.00378
21
-2.55305
0
LINE
8
BLACK
6
CONTINUOUS
10
3.00378
20
-2.55305
11
3.0039
21
-2.55315
0
LINE
8
BLACK
6
CONTINUOUS
10
3.0039
20
-2.55315
11
3.00528
21
-2.55427
0
LINE
8
BLACK
6
CONTINUOUS
10
3.00528
20
-2.55427
11
3.00528
21
-2.55427
0
LINE
8
BLACK
6
CONTINUOUS
10
3.00528
20
-2.55427
11
3.00686
21
-2.55537
0
LINE
8
BLACK
6
CONTINUOUS
10
3.00686
20
-2.55537
11
3.00802
21
-2.55624
0
LINE
8
BLACK
6
CONTINUOUS
10
3.00802
20
-2.55624
11
3.01306
21
-2.56003
0
LINE
8
BLACK
6
CONTINUOUS
10
3.01306
20
-2.56003
11
3.01961
21
-2.56417
0
LINE
8
BLACK
6
CONTINUOUS
10
3.01961
20
-2.56417
11
3.0212
21
-2.56527
0
LINE
8
BLACK
6
CONTINUOUS
10
3.0212
20
-2.56527
11
3.02287
21
-2.56623
0
LINE
8
BLACK
6
CONTINUOUS
10
3.02287
20
-2.56623
11
3.02942
21
-2.57037
0
LINE
8
BLACK
6
CONTINUOUS
10
3.02942
20
-2.57037
11
3.03628
21
-2.57397
0
LINE
8
BLACK
6
CONTINUOUS
10
3.03628
20
-2.57397
11
3.03795
21
-2.57494
0
LINE
8
BLACK
6
CONTINUOUS
10
3.03795
20
-2.57494
11
3.0397
21
-2.57577
0
LINE
8
BLACK
6
CONTINUOUS
10
3.0397
20
-2.57577
11
3.04049
21
-2.57618
0
LINE
8
BLACK
6
CONTINUOUS
10
3.04049
20
-2.57618
11
3.04656
21
-2.57937
0
LINE
8
BLACK
6
CONTINUOUS
10
3.04656
20
-2.57937
11
3.04656
21
-2.57937
0
LINE
8
BLACK
6
CONTINUOUS
10
3.04656
20
-2.57937
11
3.04656
21
-2.57937
0
LINE
8
BLACK
6
CONTINUOUS
10
3.04656
20
-2.57937
11
3.04656
21
-2.57937
0
LINE
8
BLACK
6
CONTINUOUS
10
3.04656
20
-2.57937
11
3.05369
21
-2.58241
0
LINE
8
BLACK
6
CONTINUOUS
10
3.05369
20
-2.58241
11
3.05543
21
-2.58323
0
LINE
8
BLACK
6
CONTINUOUS
10
3.05543
20
-2.58323
11
3.05724
21
-2.58392
0
LINE
8
BLACK
6
CONTINUOUS
10
3.05724
20
-2.58392
11
3.06437
21
-2.58696
0
LINE
8
BLACK
6
CONTINUOUS
10
3.06437
20
-2.58696
11
3.06437
21
-2.58696
0
LINE
8
BLACK
6
CONTINUOUS
10
3.06437
20
-2.58696
11
3.06437
21
-2.58696
0
LINE
8
BLACK
6
CONTINUOUS
10
3.06437
20
-2.58696
11
3.06663
21
-2.58771
0
LINE
8
BLACK
6
CONTINUOUS
10
3.06663
20
-2.58771
11
3.07172
21
-2.58941
0
LINE
8
BLACK
6
CONTINUOUS
10
3.07172
20
-2.58941
11
3.07353
21
-2.5901
0
LINE
8
BLACK
6
CONTINUOUS
10
3.07353
20
-2.5901
11
3.07403
21
-2.59024
0
LINE
8
BLACK
6
CONTINUOUS
10
3.07403
20
-2.59024
11
3.07538
21
-2.59063
0
LINE
8
BLACK
6
CONTINUOUS
10
3.07538
20
-2.59063
11
3.08273
21
-2.59309
0
LINE
8
BLACK
6
CONTINUOUS
10
3.08273
20
-2.59309
11
3.08273
21
-2.59309
0
LINE
8
BLACK
6
CONTINUOUS
10
3.08273
20
-2.59309
11
3.08273
21
-2.59309
0
LINE
8
BLACK
6
CONTINUOUS
10
3.08273
20
-2.59309
11
3.08273
21
-2.59309
0
LINE
8
BLACK
6
CONTINUOUS
10
3.08273
20
-2.59309
11
3.09025
21
-2.59494
0
LINE
8
BLACK
6
CONTINUOUS
10
3.09025
20
-2.59494
11
3.09134
21
-2.59525
0
LINE
8
BLACK
6
CONTINUOUS
10
3.09134
20
-2.59525
11
3.09211
21
-2.59548
0
LINE
8
BLACK
6
CONTINUOUS
10
3.09211
20
-2.59548
11
3.09297
21
-2.59565
0
LINE
8
BLACK
6
CONTINUOUS
10
3.09297
20
-2.59565
11
3.094
21
-2.59586
0
LINE
8
BLACK
6
CONTINUOUS
10
3.094
20
-2.59586
11
3.10153
21
-2.59772
0
LINE
8
BLACK
6
CONTINUOUS
10
3.10153
20
-2.59772
11
3.10153
21
-2.59772
0
LINE
8
BLACK
6
CONTINUOUS
10
3.10153
20
-2.59772
11
3.10153
21
-2.59772
0
LINE
8
BLACK
6
CONTINUOUS
10
3.10153
20
-2.59772
11
3.10153
21
-2.59772
0
LINE
8
BLACK
6
CONTINUOUS
10
3.10153
20
-2.59772
11
3.10304
21
-2.59797
0
LINE
8
BLACK
6
CONTINUOUS
10
3.10304
20
-2.59797
11
3.10918
21
-2.59896
0
LINE
8
BLACK
6
CONTINUOUS
10
3.10918
20
-2.59896
11
3.11107
21
-2.59935
0
LINE
8
BLACK
6
CONTINUOUS
10
3.11107
20
-2.59935
11
3.11298
21
-2.59958
0
LINE
8
BLACK
6
CONTINUOUS
10
3.11298
20
-2.59958
11
3.11768
21
-2.60034
0
LINE
8
BLACK
6
CONTINUOUS
10
3.11768
20
-2.60034
11
3.12063
21
-2.60082
0
LINE
8
BLACK
6
CONTINUOUS
10
3.12063
20
-2.60082
11
3.12266
21
-2.60099
0
LINE
8
BLACK
6
CONTINUOUS
10
3.12266
20
-2.60099
11
3.12836
21
-2.60145
0
LINE
8
BLACK
6
CONTINUOUS
10
3.12836
20
-2.60145
11
3.13027
21
-2.60168
0
LINE
8
BLACK
6
CONTINUOUS
10
3.13027
20
-2.60168
11
3.1322
21
-2.60176
0
LINE
8
BLACK
6
CONTINUOUS
10
3.1322
20
-2.60176
11
3.13993
21
-2.60238
0
LINE
8
BLACK
6
CONTINUOUS
10
3.13993
20
-2.60238
11
3.13993
21
-2.60238
0
LINE
8
BLACK
6
CONTINUOUS
10
3.13993
20
-2.60238
11
3.14768
21
-2.60238
0
LINE
8
BLACK
6
CONTINUOUS
10
3.14768
20
-2.60238
11
3.14961
21
-2.60246
0
LINE
8
BLACK
6
CONTINUOUS
10
3.14961
20
-2.60246
11
3.15154
21
-2.60238
0
LINE
8
BLACK
6
CONTINUOUS
10
3.15154
20
-2.60238
11
3.15928
21
-2.60238
0
LINE
8
BLACK
6
CONTINUOUS
10
3.15928
20
-2.60238
11
3.15929
21
-2.60238
0
LINE
8
BLACK
6
CONTINUOUS
10
3.15929
20
-2.60238
11
3.16701
21
-2.60176
0
LINE
8
BLACK
6
CONTINUOUS
10
3.16701
20
-2.60176
11
3.16894
21
-2.60168
0
LINE
8
BLACK
6
CONTINUOUS
10
3.16894
20
-2.60168
11
3.17086
21
-2.60145
0
LINE
8
BLACK
6
CONTINUOUS
10
3.17086
20
-2.60145
11
3.1765
21
-2.60099
0
LINE
8
BLACK
6
CONTINUOUS
10
3.1765
20
-2.60099
11
3.17858
21
-2.60082
0
LINE
8
BLACK
6
CONTINUOUS
10
3.17858
20
-2.60082
11
3.18188
21
-2.60029
0
LINE
8
BLACK
6
CONTINUOUS
10
3.18188
20
-2.60029
11
3.18623
21
-2.59958
0
LINE
8
BLACK
6
CONTINUOUS
10
3.18623
20
-2.59958
11
3.18815
21
-2.59935
0
LINE
8
BLACK
6
CONTINUOUS
10
3.18815
20
-2.59935
11
3.19004
21
-2.59896
0
LINE
8
BLACK
6
CONTINUOUS
10
3.19004
20
-2.59896
11
3.19769
21
-2.59772
0
LINE
8
BLACK
6
CONTINUOUS
10
3.19769
20
-2.59772
11
3.20521
21
-2.59586
0
LINE
8
BLACK
6
CONTINUOUS
10
3.20521
20
-2.59586
11
3.20636
21
-2.59563
0
LINE
8
BLACK
6
CONTINUOUS
10
3.20636
20
-2.59563
11
3.2071
21
-2.59548
0
LINE
8
BLACK
6
CONTINUOUS
10
3.2071
20
-2.59548
11
3.2077
21
-2.5953
0
LINE
8
BLACK
6
CONTINUOUS
10
3.2077
20
-2.5953
11
3.20896
21
-2.59494
0
LINE
8
BLACK
6
CONTINUOUS
10
3.20896
20
-2.59494
11
3.21648
21
-2.59309
0
LINE
8
BLACK
6
CONTINUOUS
10
3.21648
20
-2.59309
11
3.21648
21
-2.59309
0
LINE
8
BLACK
6
CONTINUOUS
10
3.21648
20
-2.59309
11
3.21648
21
-2.59309
0
LINE
8
BLACK
6
CONTINUOUS
10
3.21648
20
-2.59309
11
3.21648
21
-2.59309
0
LINE
8
BLACK
6
CONTINUOUS
10
3.21648
20
-2.59309
11
3.21904
21
-2.59223
0
LINE
8
BLACK
6
CONTINUOUS
10
3.21904
20
-2.59223
11
3.22383
21
-2.59063
0
LINE
8
BLACK
6
CONTINUOUS
10
3.22383
20
-2.59063
11
3.22423
21
-2.59052
0
LINE
8
BLACK
6
CONTINUOUS
10
3.22423
20
-2.59052
11
3.22569
21
-2.5901
0
LINE
8
BLACK
6
CONTINUOUS
10
3.22569
20
-2.5901
11
3.22569
21
-2.5901
0
LINE
8
BLACK
6
CONTINUOUS
10
3.22569
20
-2.5901
11
3.22749
21
-2.58941
0
LINE
8
BLACK
6
CONTINUOUS
10
3.22749
20
-2.58941
11
3.23258
21
-2.58771
0
LINE
8
BLACK
6
CONTINUOUS
10
3.23258
20
-2.58771
11
3.23484
21
-2.58696
0
LINE
8
BLACK
6
CONTINUOUS
10
3.23484
20
-2.58696
11
3.23484
21
-2.58696
0
LINE
8
BLACK
6
CONTINUOUS
10
3.23484
20
-2.58696
11
3.23484
21
-2.58696
0
LINE
8
BLACK
6
CONTINUOUS
10
3.23484
20
-2.58696
11
3.24197
21
-2.58392
0
LINE
8
BLACK
6
CONTINUOUS
10
3.24197
20
-2.58392
11
3.24336
21
-2.58339
0
LINE
8
BLACK
6
CONTINUOUS
10
3.24336
20
-2.58339
11
3.24378
21
-2.58323
0
LINE
8
BLACK
6
CONTINUOUS
10
3.24378
20
-2.58323
11
3.24439
21
-2.58294
0
LINE
8
BLACK
6
CONTINUOUS
10
3.24439
20
-2.58294
11
3.24552
21
-2.58241
0
LINE
8
BLACK
6
CONTINUOUS
10
3.24552
20
-2.58241
11
3.25265
21
-2.57937
0
LINE
8
BLACK
6
CONTINUOUS
10
3.25265
20
-2.57937
11
3.25265
21
-2.57937
0
LINE
8
BLACK
6
CONTINUOUS
10
3.25265
20
-2.57937
11
3.25265
21
-2.57937
0
LINE
8
BLACK
6
CONTINUOUS
10
3.25265
20
-2.57937
11
3.25265
21
-2.57937
0
LINE
8
BLACK
6
CONTINUOUS
10
3.25265
20
-2.57937
11
3.25951
21
-2.57577
0
LINE
8
BLACK
6
CONTINUOUS
10
3.25951
20
-2.57577
11
3.26126
21
-2.57494
0
LINE
8
BLACK
6
CONTINUOUS
10
3.26126
20
-2.57494
11
3.26293
21
-2.57397
0
LINE
8
BLACK
6
CONTINUOUS
10
3.26293
20
-2.57397
11
3.26979
21
-2.57037
0
LINE
8
BLACK
6
CONTINUOUS
10
3.26979
20
-2.57037
11
3.27634
21
-2.56623
0
LINE
8
BLACK
6
CONTINUOUS
10
3.27634
20
-2.56623
11
3.27801
21
-2.56527
0
LINE
8
BLACK
6
CONTINUOUS
10
3.27801
20
-2.56527
11
3.2796
21
-2.56417
0
LINE
8
BLACK
6
CONTINUOUS
10
3.2796
20
-2.56417
11
3.28263
21
-2.56225
0
LINE
8
BLACK
6
CONTINUOUS
10
3.28263
20
-2.56225
11
3.28615
21
-2.56003
0
LINE
8
BLACK
6
CONTINUOUS
10
3.28615
20
-2.56003
11
3.28615
21
-2.56003
0
LINE
8
BLACK
6
CONTINUOUS
10
3.28615
20
-2.56003
11
3.28615
21
-2.56003
0
LINE
8
BLACK
6
CONTINUOUS
10
3.28615
20
-2.56003
11
3.28793
21
-2.55869
0
LINE
8
BLACK
6
CONTINUOUS
10
3.28793
20
-2.55869
11
3.29235
21
-2.55537
0
LINE
8
BLACK
6
CONTINUOUS
10
3.29235
20
-2.55537
11
3.29383
21
-2.55435
0
LINE
8
BLACK
6
CONTINUOUS
10
3.29383
20
-2.55435
11
3.29394
21
-2.55427
0
LINE
8
BLACK
6
CONTINUOUS
10
3.29394
20
-2.55427
11
3.29532
21
-2.55315
0
LINE
8
BLACK
6
CONTINUOUS
10
3.29532
20
-2.55315
11
3.29543
21
-2.55305
0
LINE
8
BLACK
6
CONTINUOUS
10
3.29543
20
-2.55305
11
3.30163
21
-2.5484
0
LINE
8
BLACK
6
CONTINUOUS
10
3.30163
20
-2.5484
11
3.30163
21
-2.5484
0
LINE
8
BLACK
6
CONTINUOUS
10
3.30163
20
-2.5484
11
3.30163
21
-2.5484
0
LINE
8
BLACK
6
CONTINUOUS
10
3.30163
20
-2.5484
11
3.30323
21
-2.54698
0
LINE
8
BLACK
6
CONTINUOUS
10
3.30323
20
-2.54698
11
3.30743
21
-2.54326
0
LINE
8
BLACK
6
CONTINUOUS
10
3.30743
20
-2.54326
11
3.30849
21
-2.5424
0
LINE
8
BLACK
6
CONTINUOUS
10
3.30849
20
-2.5424
11
3.30892
21
-2.54204
0
LINE
8
BLACK
6
CONTINUOUS
10
3.30892
20
-2.54204
11
3.30892
21
-2.54204
0
LINE
8
BLACK
6
CONTINUOUS
10
3.30892
20
-2.54204
11
3.30892
21
-2.54204
0
LINE
8
BLACK
6
CONTINUOUS
10
3.30892
20
-2.54204
11
3.31032
21
-2.5407
0
LINE
8
BLACK
6
CONTINUOUS
10
3.31032
20
-2.5407
11
3.31612
21
-2.53556
0
LINE
8
BLACK
6
CONTINUOUS
10
3.31612
20
-2.53556
11
3.31612
21
-2.53556
0
LINE
8
BLACK
6
CONTINUOUS
10
3.31612
20
-2.53556
11
3.31612
21
-2.53556
0
LINE
8
BLACK
6
CONTINUOUS
10
3.31612
20
-2.53556
11
3.31977
21
-2.53176
0
LINE
8
BLACK
6
CONTINUOUS
10
3.31977
20
-2.53176
11
3.32149
21
-2.52997
0
LINE
8
BLACK
6
CONTINUOUS
10
3.32149
20
-2.52997
11
3.32262
21
-2.52889
0
LINE
8
BLACK
6
CONTINUOUS
10
3.32262
20
-2.52889
11
3.32288
21
-2.52864
0
LINE
8
BLACK
6
CONTINUOUS
10
3.32288
20
-2.52864
11
3.32327
21
-2.52819
0
LINE
8
BLACK
6
CONTINUOUS
10
3.32327
20
-2.52819
11
3.32416
21
-2.52719
0
LINE
8
BLACK
6
CONTINUOUS
10
3.32416
20
-2.52719
11
3.32953
21
-2.5216
0
LINE
8
BLACK
6
CONTINUOUS
10
3.32953
20
-2.5216
11
3.32953
21
-2.5216
0
LINE
8
BLACK
6
CONTINUOUS
10
3.32953
20
-2.5216
11
3.32953
21
-2.5216
0
LINE
8
BLACK
6
CONTINUOUS
10
3.32953
20
-2.5216
11
3.33443
21
-2.5156
0
LINE
8
BLACK
6
CONTINUOUS
10
3.33443
20
-2.5156
11
3.33571
21
-2.51415
0
LINE
8
BLACK
6
CONTINUOUS
10
3.33571
20
-2.51415
11
3.33571
21
-2.51415
0
LINE
8
BLACK
6
CONTINUOUS
10
3.33571
20
-2.51415
11
3.33611
21
-2.51362
0
LINE
8
BLACK
6
CONTINUOUS
10
3.33611
20
-2.51362
11
3.33687
21
-2.51261
0
LINE
8
BLACK
6
CONTINUOUS
10
3.33687
20
-2.51261
11
3.34177
21
-2.50661
0
LINE
8
BLACK
6
CONTINUOUS
10
3.34177
20
-2.50661
11
3.34617
21
-2.50023
0
LINE
8
BLACK
6
CONTINUOUS
10
3.34617
20
-2.50023
11
3.34733
21
-2.49869
0
LINE
8
BLACK
6
CONTINUOUS
10
3.34733
20
-2.49869
11
3.34836
21
-2.49705
0
LINE
8
BLACK
6
CONTINUOUS
10
3.34836
20
-2.49705
11
3.35277
21
-2.49068
0
LINE
8
BLACK
6
CONTINUOUS
10
3.35277
20
-2.49068
11
3.35277
21
-2.49068
0
LINE
8
BLACK
6
CONTINUOUS
10
3.35277
20
-2.49068
11
3.35393
21
-2.48865
0
LINE
8
BLACK
6
CONTINUOUS
10
3.35393
20
-2.48865
11
3.35664
21
-2.48396
0
LINE
8
BLACK
6
CONTINUOUS
10
3.35664
20
-2.48396
11
3.3573
21
-2.48292
0
LINE
8
BLACK
6
CONTINUOUS
10
3.3573
20
-2.48292
11
3.35767
21
-2.48233
0
LINE
8
BLACK
6
CONTINUOUS
10
3.35767
20
-2.48233
11
3.35857
21
-2.48062
0
LINE
8
BLACK
6
CONTINUOUS
10
3.35857
20
-2.48062
11
3.36055
21
-2.47719
0
LINE
8
BLACK
6
CONTINUOUS
10
3.36055
20
-2.47719
11
3.36245
21
-2.47391
0
LINE
8
BLACK
6
CONTINUOUS
10
3.36245
20
-2.47391
11
3.3625
21
-2.4738
0
LINE
8
BLACK
6
CONTINUOUS
10
3.3625
20
-2.4738
11
3.36345
21
-2.4718
0
LINE
8
BLACK
6
CONTINUOUS
10
3.36345
20
-2.4718
11
3.36577
21
-2.46691
0
LINE
8
BLACK
6
CONTINUOUS
10
3.36577
20
-2.46691
11
3.36666
21
-2.4652
0
LINE
8
BLACK
6
CONTINUOUS
10
3.36666
20
-2.4652
11
3.36666
21
-2.4652
0
LINE
8
BLACK
6
CONTINUOUS
10
3.36666
20
-2.4652
11
3.36666
21
-2.4652
0
LINE
8
BLACK
6
CONTINUOUS
10
3.36666
20
-2.4652
11
3.36742
21
-2.46342
0
LINE
8
BLACK
6
CONTINUOUS
10
3.36742
20
-2.46342
11
3.37074
21
-2.45642
0
LINE
8
BLACK
6
CONTINUOUS
10
3.37074
20
-2.45642
11
3.37349
21
-2.44918
0
LINE
8
BLACK
6
CONTINUOUS
10
3.37349
20
-2.44918
11
3.37425
21
-2.4474
0
LINE
8
BLACK
6
CONTINUOUS
10
3.37425
20
-2.4474
11
3.37486
21
-2.44557
0
LINE
8
BLACK
6
CONTINUOUS
10
3.37486
20
-2.44557
11
3.37673
21
-2.44065
0
LINE
8
BLACK
6
CONTINUOUS
10
3.37673
20
-2.44065
11
3.37761
21
-2.43832
0
LINE
8
BLACK
6
CONTINUOUS
10
3.37761
20
-2.43832
11
3.3783
21
-2.43594
0
LINE
8
BLACK
6
CONTINUOUS
10
3.3783
20
-2.43594
11
3.37976
21
-2.43088
0
LINE
8
BLACK
6
CONTINUOUS
10
3.37976
20
-2.43088
11
3.38038
21
-2.42905
0
LINE
8
BLACK
6
CONTINUOUS
10
3.38038
20
-2.42905
11
3.38084
21
-2.42717
0
LINE
8
BLACK
6
CONTINUOUS
10
3.38084
20
-2.42717
11
3.38299
21
-2.41973
0
LINE
8
BLACK
6
CONTINUOUS
10
3.38299
20
-2.41973
11
3.38299
21
-2.41973
0
LINE
8
BLACK
6
CONTINUOUS
10
3.38299
20
-2.41973
11
3.38299
21
-2.41973
0
LINE
8
BLACK
6
CONTINUOUS
10
3.38299
20
-2.41973
11
3.38299
21
-2.41973
0
LINE
8
BLACK
6
CONTINUOUS
10
3.38299
20
-2.41973
11
3.38359
21
-2.41683
0
LINE
8
BLACK
6
CONTINUOUS
10
3.38359
20
-2.41683
11
3.38454
21
-2.41214
0
LINE
8
BLACK
6
CONTINUOUS
10
3.38454
20
-2.41214
11
3.38501
21
-2.41026
0
LINE
8
BLACK
6
CONTINUOUS
10
3.38501
20
-2.41026
11
3.38532
21
-2.40836
0
LINE
8
BLACK
6
CONTINUOUS
10
3.38532
20
-2.40836
11
3.38687
21
-2.40076
0
LINE
8
BLACK
6
CONTINUOUS
10
3.38687
20
-2.40076
11
3.3878
21
-2.39307
0
LINE
8
BLACK
6
CONTINUOUS
10
3.3878
20
-2.39307
11
3.38811
21
-2.39116
0
LINE
8
BLACK
6
CONTINUOUS
10
3.38811
20
-2.39116
11
3.38826
21
-2.38924
0
LINE
8
BLACK
6
CONTINUOUS
10
3.38826
20
-2.38924
11
3.3892
21
-2.38155
0
LINE
8
BLACK
6
CONTINUOUS
10
3.3892
20
-2.38155
11
3.38951
21
-2.3738
0
LINE
8
BLACK
6
CONTINUOUS
10
3.38951
20
-2.3738
11
3.38967
21
-2.37188
0
LINE
8
BLACK
6
CONTINUOUS
10
3.38967
20
-2.37188
11
3.38969
21
-2.36931
0
LINE
8
BLACK
6
CONTINUOUS
10
3.38969
20
-2.36931
11
3.38998
21
-2.3622
0
LINE
8
BLACK
6
CONTINUOUS
10
3.38998
20
-2.3622
11
3.38969
21
-2.3551
0
LINE
8
BLACK
6
CONTINUOUS
10
3.38969
20
-2.3551
11
3.38967
21
-2.35253
0
LINE
8
BLACK
6
CONTINUOUS
10
3.38967
20
-2.35253
11
3.38965
21
-2.35237
0
LINE
8
BLACK
6
CONTINUOUS
10
3.38965
20
-2.35237
11
3.38951
21
-2.35061
0
LINE
8
BLACK
6
CONTINUOUS
10
3.38951
20
-2.35061
11
3.3892
21
-2.34286
0
LINE
8
BLACK
6
CONTINUOUS
10
3.3892
20
-2.34286
11
3.38826
21
-2.33517
0
LINE
8
BLACK
6
CONTINUOUS
10
3.38826
20
-2.33517
11
3.38811
21
-2.33325
0
LINE
8
BLACK
6
CONTINUOUS
10
3.38811
20
-2.33325
11
3.38794
21
-2.33222
0
LINE
8
BLACK
6
CONTINUOUS
10
3.38794
20
-2.33222
11
3.3878
21
-2.33134
0
LINE
8
BLACK
6
CONTINUOUS
10
3.3878
20
-2.33134
11
3.38687
21
-2.32365
0
LINE
8
BLACK
6
CONTINUOUS
10
3.38687
20
-2.32365
11
3.38532
21
-2.31605
0
LINE
8
BLACK
6
CONTINUOUS
10
3.38532
20
-2.31605
11
3.38501
21
-2.31415
0
LINE
8
BLACK
6
CONTINUOUS
10
3.38501
20
-2.31415
11
3.38454
21
-2.31227
0
LINE
8
BLACK
6
CONTINUOUS
10
3.38454
20
-2.31227
11
3.3831
21
-2.30519
0
LINE
8
BLACK
6
CONTINUOUS
10
3.3831
20
-2.30519
11
3.38299
21
-2.30468
0
LINE
8
BLACK
6
CONTINUOUS
10
3.38299
20
-2.30468
11
3.38299
21
-2.30468
0
LINE
8
BLACK
6
CONTINUOUS
10
3.38299
20
-2.30468
11
3.38299
21
-2.30468
0
LINE
8
BLACK
6
CONTINUOUS
10
3.38299
20
-2.30468
11
3.38277
21
-2.30389
0
LINE
8
BLACK
6
CONTINUOUS
10
3.38277
20
-2.30389
11
3.38084
21
-2.29724
0
LINE
8
BLACK
6
CONTINUOUS
10
3.38084
20
-2.29724
11
3.38038
21
-2.29536
0
LINE
8
BLACK
6
CONTINUOUS
10
3.38038
20
-2.29536
11
3.38038
21
-2.29536
0
LINE
8
BLACK
6
CONTINUOUS
10
3.38038
20
-2.29536
11
3.38038
21
-2.29536
0
LINE
8
BLACK
6
CONTINUOUS
10
3.38038
20
-2.29536
11
3.37976
21
-2.29353
0
LINE
8
BLACK
6
CONTINUOUS
10
3.37976
20
-2.29353
11
3.37761
21
-2.28609
0
LINE
8
BLACK
6
CONTINUOUS
10
3.37761
20
-2.28609
11
3.37486
21
-2.27884
0
LINE
8
BLACK
6
CONTINUOUS
10
3.37486
20
-2.27884
11
3.37425
21
-2.27701
0
LINE
8
BLACK
6
CONTINUOUS
10
3.37425
20
-2.27701
11
3.37425
21
-2.27701
0
LINE
8
BLACK
6
CONTINUOUS
10
3.37425
20
-2.27701
11
3.37406
21
-2.27656
0
LINE
8
BLACK
6
CONTINUOUS
10
3.37406
20
-2.27656
11
3.37349
21
-2.27523
0
LINE
8
BLACK
6
CONTINUOUS
10
3.37349
20
-2.27523
11
3.37175
21
-2.27064
0
LINE
8
BLACK
6
CONTINUOUS
10
3.37175
20
-2.27064
11
3.37074
21
-2.26799
0
LINE
8
BLACK
6
CONTINUOUS
10
3.37074
20
-2.26799
11
3.37074
21
-2.26799
0
LINE
8
BLACK
6
CONTINUOUS
10
3.37074
20
-2.26799
11
3.37074
21
-2.26799
0
LINE
8
BLACK
6
CONTINUOUS
10
3.37074
20
-2.26799
11
3.36742
21
-2.26099
0
LINE
8
BLACK
6
CONTINUOUS
10
3.36742
20
-2.26099
11
3.36666
21
-2.25921
0
LINE
8
BLACK
6
CONTINUOUS
10
3.36666
20
-2.25921
11
3.36666
21
-2.25921
0
LINE
8
BLACK
6
CONTINUOUS
10
3.36666
20
-2.25921
11
3.36577
21
-2.2575
0
LINE
8
BLACK
6
CONTINUOUS
10
3.36577
20
-2.2575
11
3.36245
21
-2.2505
0
LINE
8
BLACK
6
CONTINUOUS
10
3.36245
20
-2.2505
11
3.36234
21
-2.25031
0
LINE
8
BLACK
6
CONTINUOUS
10
3.36234
20
-2.25031
11
3.35932
21
-2.24508
0
LINE
8
BLACK
6
CONTINUOUS
10
3.35932
20
-2.24508
11
3.35857
21
-2.24379
0
LINE
8
BLACK
6
CONTINUOUS
10
3.35857
20
-2.24379
11
3.35767
21
-2.24208
0
LINE
8
BLACK
6
CONTINUOUS
10
3.35767
20
-2.24208
11
3.35664
21
-2.24044
0
LINE
8
BLACK
6
CONTINUOUS
10
3.35664
20
-2.24044
11
3.35277
21
-2.23373
0
LINE
8
BLACK
6
CONTINUOUS
10
3.35277
20
-2.23373
11
3.34836
21
-2.22736
0
LINE
8
BLACK
6
CONTINUOUS
10
3.34836
20
-2.22736
11
3.34767
21
-2.22626
0
LINE
8
BLACK
6
CONTINUOUS
10
3.34767
20
-2.22626
11
3.34733
21
-2.22572
0
LINE
8
BLACK
6
CONTINUOUS
10
3.34733
20
-2.22572
11
3.34733
21
-2.22572
0
LINE
8
BLACK
6
CONTINUOUS
10
3.34733
20
-2.22572
11
3.34617
21
-2.22418
0
LINE
8
BLACK
6
CONTINUOUS
10
3.34617
20
-2.22418
11
3.34177
21
-2.2178
0
LINE
8
BLACK
6
CONTINUOUS
10
3.34177
20
-2.2178
11
3.33687
21
-2.2118
0
LINE
8
BLACK
6
CONTINUOUS
10
3.33687
20
-2.2118
11
3.33571
21
-2.21026
0
LINE
8
BLACK
6
CONTINUOUS
10
3.33571
20
-2.21026
11
3.3349
21
-2.20934
0
LINE
8
BLACK
6
CONTINUOUS
10
3.3349
20
-2.20934
11
3.33443
21
-2.20881
0
LINE
8
BLACK
6
CONTINUOUS
10
3.33443
20
-2.20881
11
3.32953
21
-2.20281
0
LINE
8
BLACK
6
CONTINUOUS
10
3.32953
20
-2.20281
11
3.32416
21
-2.19722
0
LINE
8
BLACK
6
CONTINUOUS
10
3.32416
20
-2.19722
11
3.32288
21
-2.19577
0
LINE
8
BLACK
6
CONTINUOUS
10
3.32288
20
-2.19577
11
3.32288
21
-2.19577
0
LINE
8
BLACK
6
CONTINUOUS
10
3.32288
20
-2.19577
11
3.32149
21
-2.19444
0
LINE
8
BLACK
6
CONTINUOUS
10
3.32149
20
-2.19444
11
3.32149
21
-2.19444
0
LINE
8
BLACK
6
CONTINUOUS
10
3.32149
20
-2.19444
11
3.31612
21
-2.18885
0
LINE
8
BLACK
6
CONTINUOUS
10
3.31612
20
-2.18885
11
3.31551
21
-2.18831
0
LINE
8
BLACK
6
CONTINUOUS
10
3.31551
20
-2.18831
11
3.31032
21
-2.18371
0
LINE
8
BLACK
6
CONTINUOUS
10
3.31032
20
-2.18371
11
3.31008
21
-2.18348
0
LINE
8
BLACK
6
CONTINUOUS
10
3.31008
20
-2.18348
11
3.30892
21
-2.18237
0
LINE
8
BLACK
6
CONTINUOUS
10
3.30892
20
-2.18237
11
3.30743
21
-2.18115
0
LINE
8
BLACK
6
CONTINUOUS
10
3.30743
20
-2.18115
11
3.30411
21
-2.17821
0
LINE
8
BLACK
6
CONTINUOUS
10
3.30411
20
-2.17821
11
3.30163
21
-2.17601
0
LINE
8
BLACK
6
CONTINUOUS
10
3.30163
20
-2.17601
11
3.30163
21
-2.17601
0
LINE
8
BLACK
6
CONTINUOUS
10
3.30163
20
-2.17601
11
3.30163
21
-2.17601
0
LINE
8
BLACK
6
CONTINUOUS
10
3.30163
20
-2.17601
11
3.29793
21
-2.17323
0
LINE
8
BLACK
6
CONTINUOUS
10
3.29793
20
-2.17323
11
3.29543
21
-2.17136
0
LINE
8
BLACK
6
CONTINUOUS
10
3.29543
20
-2.17136
11
3.29394
21
-2.17013
0
LINE
8
BLACK
6
CONTINUOUS
10
3.29394
20
-2.17013
11
3.29394
21
-2.17013
0
LINE
8
BLACK
6
CONTINUOUS
10
3.29394
20
-2.17013
11
3.29235
21
-2.16904
0
LINE
8
BLACK
6
CONTINUOUS
10
3.29235
20
-2.16904
11
3.28843
21
-2.1661
0
LINE
8
BLACK
6
CONTINUOUS
10
3.28843
20
-2.1661
11
3.28615
21
-2.16438
0
LINE
8
BLACK
6
CONTINUOUS
10
3.28615
20
-2.16438
11
3.28615
21
-2.16438
0
LINE
8
BLACK
6
CONTINUOUS
10
3.28615
20
-2.16438
11
3.28615
21
-2.16438
0
LINE
8
BLACK
6
CONTINUOUS
10
3.28615
20
-2.16438
11
3.2796
21
-2.16024
0
LINE
8
BLACK
6
CONTINUOUS
10
3.2796
20
-2.16024
11
3.27801
21
-2.15914
0
LINE
8
BLACK
6
CONTINUOUS
10
3.27801
20
-2.15914
11
3.27634
21
-2.15818
0
LINE
8
BLACK
6
CONTINUOUS
10
3.27634
20
-2.15818
11
3.27237
21
-2.15567
0
LINE
8
BLACK
6
CONTINUOUS
10
3.27237
20
-2.15567
11
3.26979
21
-2.15404
0
LINE
8
BLACK
6
CONTINUOUS
10
3.26979
20
-2.15404
11
3.26979
21
-2.15404
0
LINE
8
BLACK
6
CONTINUOUS
10
3.26979
20
-2.15404
11
3.26979
21
-2.15404
0
LINE
8
BLACK
6
CONTINUOUS
10
3.26979
20
-2.15404
11
3.26979
21
-2.15404
0
LINE
8
BLACK
6
CONTINUOUS
10
3.26979
20
-2.15404
11
3.26293
21
-2.15044
0
LINE
8
BLACK
6
CONTINUOUS
10
3.26293
20
-2.15044
11
3.26229
21
-2.15007
0
LINE
8
BLACK
6
CONTINUOUS
10
3.26229
20
-2.15007
11
3.26126
21
-2.14947
0
LINE
8
BLACK
6
CONTINUOUS
10
3.26126
20
-2.14947
11
3.26126
21
-2.14947
0
LINE
8
BLACK
6
CONTINUOUS
10
3.26126
20
-2.14947
11
3.26126
21
-2.14947
0
LINE
8
BLACK
6
CONTINUOUS
10
3.26126
20
-2.14947
11
3.25951
21
-2.14864
0
LINE
8
BLACK
6
CONTINUOUS
10
3.25951
20
-2.14864
11
3.25265
21
-2.14504
0
LINE
8
BLACK
6
CONTINUOUS
10
3.25265
20
-2.14504
11
3.25265
21
-2.14504
0
LINE
8
BLACK
6
CONTINUOUS
10
3.25265
20
-2.14504
11
3.25265
21
-2.14504
0
LINE
8
BLACK
6
CONTINUOUS
10
3.25265
20
-2.14504
11
3.24552
21
-2.142
0
LINE
8
BLACK
6
CONTINUOUS
10
3.24552
20
-2.142
11
3.24479
21
-2.14165
0
LINE
8
BLACK
6
CONTINUOUS
10
3.24479
20
-2.14165
11
3.24378
21
-2.14118
0
LINE
8
BLACK
6
CONTINUOUS
10
3.24378
20
-2.14118
11
3.24378
21
-2.14118
0
LINE
8
BLACK
6
CONTINUOUS
10
3.24378
20
-2.14118
11
3.24378
21
-2.14118
0
LINE
8
BLACK
6
CONTINUOUS
10
3.24378
20
-2.14118
11
3.24197
21
-2.14049
0
LINE
8
BLACK
6
CONTINUOUS
10
3.24197
20
-2.14049
11
3.23991
21
-2.13961
0
LINE
8
BLACK
6
CONTINUOUS
10
3.23991
20
-2.13961
11
3.23484
21
-2.13745
0
LINE
8
BLACK
6
CONTINUOUS
10
3.23484
20
-2.13745
11
3.23484
21
-2.13745
0
LINE
8
BLACK
6
CONTINUOUS
10
3.23484
20
-2.13745
11
3.23484
21
-2.13745
0
LINE
8
BLACK
6
CONTINUOUS
10
3.23484
20
-2.13745
11
3.23484
21
-2.13745
0
LINE
8
BLACK
6
CONTINUOUS
10
3.23484
20
-2.13745
11
3.22749
21
-2.135
0
LINE
8
BLACK
6
CONTINUOUS
10
3.22749
20
-2.135
11
3.22569
21
-2.13431
0
LINE
8
BLACK
6
CONTINUOUS
10
3.22569
20
-2.13431
11
3.22569
21
-2.13431
0
LINE
8
BLACK
6
CONTINUOUS
10
3.22569
20
-2.13431
11
3.22383
21
-2.13378
0
LINE
8
BLACK
6
CONTINUOUS
10
3.22383
20
-2.13378
11
3.21648
21
-2.13132
0
LINE
8
BLACK
6
CONTINUOUS
10
3.21648
20
-2.13132
11
3.20896
21
-2.12947
0
LINE
8
BLACK
6
CONTINUOUS
10
3.20896
20
-2.12947
11
3.2071
21
-2.12893
0
LINE
8
BLACK
6
CONTINUOUS
10
3.2071
20
-2.12893
11
3.2071
21
-2.12893
0
LINE
8
BLACK
6
CONTINUOUS
10
3.2071
20
-2.12893
11
3.2071
21
-2.12893
0
LINE
8
BLACK
6
CONTINUOUS
10
3.2071
20
-2.12893
11
3.20521
21
-2.12854
0
LINE
8
BLACK
6
CONTINUOUS
10
3.20521
20
-2.12854
11
3.19961
21
-2.12717
0
LINE
8
BLACK
6
CONTINUOUS
10
3.19961
20
-2.12717
11
3.19769
21
-2.12669
0
LINE
8
BLACK
6
CONTINUOUS
10
3.19769
20
-2.12669
11
3.19769
21
-2.12669
0
LINE
8
BLACK
6
CONTINUOUS
10
3.19769
20
-2.12669
11
3.19769
21
-2.12669
0
LINE
8
BLACK
6
CONTINUOUS
10
3.19769
20
-2.12669
11
3.19004
21
-2.12545
0
LINE
8
BLACK
6
CONTINUOUS
10
3.19004
20
-2.12545
11
3.18815
21
-2.12506
0
LINE
8
BLACK
6
CONTINUOUS
10
3.18815
20
-2.12506
11
3.18623
21
-2.12483
0
LINE
8
BLACK
6
CONTINUOUS
10
3.18623
20
-2.12483
11
3.17858
21
-2.12359
0
LINE
8
BLACK
6
CONTINUOUS
10
3.17858
20
-2.12359
11
3.17086
21
-2.12296
0
LINE
8
BLACK
6
CONTINUOUS
10
3.17086
20
-2.12296
11
3.16894
21
-2.12273
0
LINE
8
BLACK
6
CONTINUOUS
10
3.16894
20
-2.12273
11
3.16894
21
-2.12273
0
LINE
8
BLACK
6
CONTINUOUS
10
3.16894
20
-2.12273
11
3.16894
21
-2.12273
0
LINE
8
BLACK
6
CONTINUOUS
10
3.16894
20
-2.12273
11
3.16807
21
-2.12269
0
LINE
8
BLACK
6
CONTINUOUS
10
3.16807
20
-2.12269
11
3.16701
21
-2.12265
0
LINE
8
BLACK
6
CONTINUOUS
10
3.16701
20
-2.12265
11
3.16255
21
-2.12229
0
LINE
8
BLACK
6
CONTINUOUS
10
3.16255
20
-2.12229
11
3.15929
21
-2.12203
0
LINE
8
BLACK
6
CONTINUOUS
10
3.15929
20
-2.12203
11
3.15154
21
-2.12203
0
LINE
8
BLACK
6
CONTINUOUS
10
3.15154
20
-2.12203
11
3.14961
21
-2.12195
0
LINE
8
BLACK
6
CONTINUOUS
10
3.14961
20
-2.12195
11
3.14768
21
-2.12203
0
LINE
8
BLACK
6
CONTINUOUS
10
3.14768
20
-2.12203
11
3.13993
21
-2.12203
0
LINE
8
BLACK
6
CONTINUOUS
10
3.13993
20
-2.12203
11
3.13703
21
-2.12226
0
LINE
8
BLACK
6
CONTINUOUS
10
3.13703
20
-2.12226
11
3.1322
21
-2.12265
0
LINE
8
BLACK
6
CONTINUOUS
10
3.1322
20
-2.12265
11
3.13114
21
-2.12269
0
LINE
8
BLACK
6
CONTINUOUS
10
3.13114
20
-2.12269
11
3.13027
21
-2.12273
0
LINE
8
BLACK
6
CONTINUOUS
10
3.13027
20
-2.12273
11
3.13027
21
-2.12273
0
LINE
8
BLACK
6
CONTINUOUS
10
3.13027
20
-2.12273
11
3.13027
21
-2.12273
0
LINE
8
BLACK
6
CONTINUOUS
10
3.13027
20
-2.12273
11
3.13027
21
-2.12273
0
LINE
8
BLACK
6
CONTINUOUS
10
3.13027
20
-2.12273
11
3.12836
21
-2.12296
0
LINE
8
BLACK
6
CONTINUOUS
10
3.12836
20
-2.12296
11
3.12063
21
-2.12359
0
LINE
8
BLACK
6
CONTINUOUS
10
3.12063
20
-2.12359
11
3.11298
21
-2.12483
0
LINE
8
BLACK
6
CONTINUOUS
10
3.11298
20
-2.12483
11
3.11107
21
-2.12506
0
LINE
8
BLACK
6
CONTINUOUS
10
3.11107
20
-2.12506
11
3.11107
21
-2.12506
0
LINE
8
BLACK
6
CONTINUOUS
10
3.11107
20
-2.12506
11
3.11107
21
-2.12506
0
LINE
8
BLACK
6
CONTINUOUS
10
3.11107
20
-2.12506
11
3.11046
21
-2.12518
0
LINE
8
BLACK
6
CONTINUOUS
10
3.11046
20
-2.12518
11
3.10917
21
-2.12545
0
LINE
8
BLACK
6
CONTINUOUS
10
3.10917
20
-2.12545
11
3.10153
21
-2.12669
0
LINE
8
BLACK
6
CONTINUOUS
10
3.10153
20
-2.12669
11
3.10153
21
-2.12669
0
LINE
8
BLACK
6
CONTINUOUS
10
3.10153
20
-2.12669
11
3.10153
21
-2.12669
0
LINE
8
BLACK
6
CONTINUOUS
10
3.10153
20
-2.12669
11
3.0996
21
-2.12717
0
LINE
8
BLACK
6
CONTINUOUS
10
3.0996
20
-2.12717
11
3.094
21
-2.12854
0
LINE
8
BLACK
6
CONTINUOUS
10
3.094
20
-2.12854
11
3.09284
21
-2.12878
0
LINE
8
BLACK
6
CONTINUOUS
10
3.09284
20
-2.12878
11
3.09211
21
-2.12893
0
LINE
8
BLACK
6
CONTINUOUS
10
3.09211
20
-2.12893
11
3.09211
21
-2.12893
0
LINE
8
BLACK
6
CONTINUOUS
10
3.09211
20
-2.12893
11
3.09211
21
-2.12893
0
LINE
8
BLACK
6
CONTINUOUS
10
3.09211
20
-2.12893
11
3.09025
21
-2.12947
0
LINE
8
BLACK
6
CONTINUOUS
10
3.09025
20
-2.12947
11
3.08273
21
-2.13132
0
LINE
8
BLACK
6
CONTINUOUS
10
3.08273
20
-2.13132
11
3.07538
21
-2.13378
0
LINE
8
BLACK
6
CONTINUOUS
10
3.07538
20
-2.13378
11
3.07353
21
-2.13431
0
LINE
8
BLACK
6
CONTINUOUS
10
3.07353
20
-2.13431
11
3.07172
21
-2.135
0
LINE
8
BLACK
6
CONTINUOUS
10
3.07172
20
-2.135
11
3.06437
21
-2.13745
0
LINE
8
BLACK
6
CONTINUOUS
10
3.06437
20
-2.13745
11
3.06437
21
-2.13745
0
LINE
8
BLACK
6
CONTINUOUS
10
3.06437
20
-2.13745
11
3.05724
21
-2.14049
0
LINE
8
BLACK
6
CONTINUOUS
10
3.05724
20
-2.14049
11
3.05543
21
-2.14118
0
LINE
8
BLACK
6
CONTINUOUS
10
3.05543
20
-2.14118
11
3.05543
21
-2.14118
0
LINE
8
BLACK
6
CONTINUOUS
10
3.05543
20
-2.14118
11
3.05369
21
-2.142
0
LINE
8
BLACK
6
CONTINUOUS
10
3.05369
20
-2.142
11
3.04965
21
-2.14373
0
LINE
8
BLACK
6
CONTINUOUS
10
3.04965
20
-2.14373
11
3.04656
21
-2.14504
0
LINE
8
BLACK
6
CONTINUOUS
10
3.04656
20
-2.14504
11
3.04656
21
-2.14504
0
LINE
8
BLACK
6
CONTINUOUS
10
3.04656
20
-2.14504
11
3.04656
21
-2.14504
0
LINE
8
BLACK
6
CONTINUOUS
10
3.04656
20
-2.14504
11
3.0397
21
-2.14864
0
LINE
8
BLACK
6
CONTINUOUS
10
3.0397
20
-2.14864
11
3.03795
21
-2.14947
0
LINE
8
BLACK
6
CONTINUOUS
10
3.03795
20
-2.14947
11
3.03795
21
-2.14947
0
LINE
8
BLACK
6
CONTINUOUS
10
3.03795
20
-2.14947
11
3.03628
21
-2.15044
0
LINE
8
BLACK
6
CONTINUOUS
10
3.03628
20
-2.15044
11
3.03264
21
-2.15235
0
LINE
8
BLACK
6
CONTINUOUS
10
3.03264
20
-2.15235
11
3.02942
21
-2.15404
0
LINE
8
BLACK
6
CONTINUOUS
10
3.02942
20
-2.15404
11
3.02942
21
-2.15404
0
LINE
8
BLACK
6
CONTINUOUS
10
3.02942
20
-2.15404
11
3.02287
21
-2.15818
0
LINE
8
BLACK
6
CONTINUOUS
10
3.02287
20
-2.15818
11
3.0212
21
-2.15914
0
LINE
8
BLACK
6
CONTINUOUS
10
3.0212
20
-2.15914
11
3.0212
21
-2.15914
0
LINE
8
BLACK
6
CONTINUOUS
10
3.0212
20
-2.15914
11
3.01961
21
-2.16024
0
LINE
8
BLACK
6
CONTINUOUS
10
3.01961
20
-2.16024
11
3.01306
21
-2.16438
0
LINE
8
BLACK
6
CONTINUOUS
10
3.01306
20
-2.16438
11
3.01306
21
-2.16438
0
LINE
8
BLACK
6
CONTINUOUS
10
3.01306
20
-2.16438
11
3.00686
21
-2.16904
0
LINE
8
BLACK
6
CONTINUOUS
10
3.00686
20
-2.16904
11
3.00527
21
-2.17013
0
LINE
8
BLACK
6
CONTINUOUS
10
3.00527
20
-2.17013
11
3.00527
21
-2.17013
0
LINE
8
BLACK
6
CONTINUOUS
10
3.00527
20
-2.17013
11
3.00378
21
-2.17136
0
LINE
8
BLACK
6
CONTINUOUS
10
3.00378
20
-2.17136
11
2.99758
21
-2.17601
0
LINE
8
BLACK
6
CONTINUOUS
10
2.99758
20
-2.17601
11
2.99178
21
-2.18115
0
LINE
8
BLACK
6
CONTINUOUS
10
2.99178
20
-2.18115
11
2.99029
21
-2.18237
0
LINE
8
BLACK
6
CONTINUOUS
10
2.99029
20
-2.18237
11
2.98889
21
-2.18371
0
LINE
8
BLACK
6
CONTINUOUS
10
2.98889
20
-2.18371
11
2.98309
21
-2.18885
0
LINE
8
BLACK
6
CONTINUOUS
10
2.98309
20
-2.18885
11
2.97773
21
-2.19444
0
LINE
8
BLACK
6
CONTINUOUS
10
2.97773
20
-2.19444
11
2.97633
21
-2.19577
0
LINE
8
BLACK
6
CONTINUOUS
10
2.97633
20
-2.19577
11
2.97505
21
-2.19722
0
LINE
8
BLACK
6
CONTINUOUS
10
2.97505
20
-2.19722
11
2.97252
21
-2.19985
0
LINE
8
BLACK
6
CONTINUOUS
10
2.97252
20
-2.19985
11
2.96969
21
-2.20281
0
LINE
8
BLACK
6
CONTINUOUS
10
2.96969
20
-2.20281
11
2.96968
21
-2.20281
0
LINE
8
BLACK
6
CONTINUOUS
10
2.96968
20
-2.20281
11
2.96968
21
-2.20281
0
LINE
8
BLACK
6
CONTINUOUS
10
2.96968
20
-2.20281
11
2.96478
21
-2.20881
0
LINE
8
BLACK
6
CONTINUOUS
10
2.96478
20
-2.20881
11
2.9635
21
-2.21026
0
LINE
8
BLACK
6
CONTINUOUS
10
2.9635
20
-2.21026
11
2.96234
21
-2.2118
0
LINE
8
BLACK
6
CONTINUOUS
10
2.96234
20
-2.2118
11
2.95914
21
-2.21573
0
LINE
8
BLACK
6
CONTINUOUS
10
2.95914
20
-2.21573
11
2.95744
21
-2.2178
0
LINE
8
BLACK
6
CONTINUOUS
10
2.95744
20
-2.2178
11
2.95359
21
-2.22339
0
LINE
8
BLACK
6
CONTINUOUS
10
2.95359
20
-2.22339
11
2.95304
21
-2.22418
0
LINE
8
BLACK
6
CONTINUOUS
10
2.95304
20
-2.22418
11
2.95188
21
-2.22572
0
LINE
8
BLACK
6
CONTINUOUS
10
2.95188
20
-2.22572
11
2.95188
21
-2.22572
0
LINE
8
BLACK
6
CONTINUOUS
10
2.95188
20
-2.22572
11
2.95085
21
-2.22736
0
LINE
8
BLACK
6
CONTINUOUS
10
2.95085
20
-2.22736
11
2.94645
21
-2.23373
0
LINE
8
BLACK
6
CONTINUOUS
10
2.94645
20
-2.23373
11
2.94568
21
-2.23506
0
LINE
8
BLACK
6
CONTINUOUS
10
2.94568
20
-2.23506
11
2.94257
21
-2.24044
0
LINE
8
BLACK
6
CONTINUOUS
10
2.94257
20
-2.24044
11
2.94154
21
-2.24208
0
LINE
8
BLACK
6
CONTINUOUS
10
2.94154
20
-2.24208
11
2.94064
21
-2.24379
0
LINE
8
BLACK
6
CONTINUOUS
10
2.94064
20
-2.24379
11
2.93677
21
-2.2505
0
LINE
8
BLACK
6
CONTINUOUS
10
2.93677
20
-2.2505
11
2.93345
21
-2.2575
0
LINE
8
BLACK
6
CONTINUOUS
10
2.93345
20
-2.2575
11
2.93288
21
-2.25858
0
LINE
8
BLACK
6
CONTINUOUS
10
2.93288
20
-2.25858
11
2.93255
21
-2.25921
0
LINE
8
BLACK
6
CONTINUOUS
10
2.93255
20
-2.25921
11
2.93255
21
-2.25921
0
LINE
8
BLACK
6
CONTINUOUS
10
2.93255
20
-2.25921
11
2.93179
21
-2.26099
0
LINE
8
BLACK
6
CONTINUOUS
10
2.93179
20
-2.26099
11
2.92847
21
-2.26799
0
LINE
8
BLACK
6
CONTINUOUS
10
2.92847
20
-2.26799
11
2.92572
21
-2.27523
0
LINE
8
BLACK
6
CONTINUOUS
10
2.92572
20
-2.27523
11
2.92572
21
-2.27523
0
LINE
8
BLACK
6
CONTINUOUS
10
2.92572
20
-2.27523
11
2.92496
21
-2.27701
0
LINE
8
BLACK
6
CONTINUOUS
10
2.92496
20
-2.27701
11
2.92467
21
-2.27788
0
LINE
8
BLACK
6
CONTINUOUS
10
2.92467
20
-2.27788
11
2.92435
21
-2.27884
0
LINE
8
BLACK
6
CONTINUOUS
10
2.92435
20
-2.27884
11
2.9216
21
-2.28609
0
LINE
8
BLACK
6
CONTINUOUS
10
2.9216
20
-2.28609
11
2.9216
21
-2.28609
0
LINE
8
BLACK
6
CONTINUOUS
10
2.9216
20
-2.28609
11
2.91945
21
-2.29353
0
LINE
8
BLACK
6
CONTINUOUS
10
2.91945
20
-2.29353
11
2.91884
21
-2.29536
0
LINE
8
BLACK
6
CONTINUOUS
10
2.91884
20
-2.29536
11
2.91838
21
-2.29724
0
LINE
8
BLACK
6
CONTINUOUS
10
2.91838
20
-2.29724
11
2.91645
21
-2.30389
0
LINE
8
BLACK
6
CONTINUOUS
10
2.91645
20
-2.30389
11
2.91622
21
-2.30468
0
LINE
8
BLACK
6
CONTINUOUS
10
2.91622
20
-2.30468
11
2.91621
21
-2.30474
0
LINE
8
BLACK
6
CONTINUOUS
10
2.91621
20
-2.30474
11
2.91467
21
-2.31227
0
LINE
8
BLACK
6
CONTINUOUS
10
2.91467
20
-2.31227
11
2.91421
21
-2.31415
0
LINE
8
BLACK
6
CONTINUOUS
10
2.91421
20
-2.31415
11
2.91421
21
-2.31415
0
LINE
8
BLACK
6
CONTINUOUS
10
2.91421
20
-2.31415
11
2.91421
21
-2.31415
0
LINE
8
BLACK
6
CONTINUOUS
10
2.91421
20
-2.31415
11
2.9139
21
-2.31605
0
LINE
8
BLACK
6
CONTINUOUS
10
2.9139
20
-2.31605
11
2.91235
21
-2.32365
0
LINE
8
BLACK
6
CONTINUOUS
10
2.91235
20
-2.32365
11
2.91141
21
-2.33134
0
LINE
8
BLACK
6
CONTINUOUS
10
2.91141
20
-2.33134
11
2.9111
21
-2.33324
0
LINE
8
BLACK
6
CONTINUOUS
10
2.9111
20
-2.33324
11
2.91095
21
-2.33517
0
LINE
8
BLACK
6
CONTINUOUS
10
2.91095
20
-2.33517
11
2.91001
21
-2.34286
0
LINE
8
BLACK
6
CONTINUOUS
10
2.91001
20
-2.34286
11
2.91001
21
-2.34286
0
LINE
8
BLACK
6
CONTINUOUS
10
2.91001
20
-2.34286
11
2.91001
21
-2.34288
0
LINE
8
BLACK
6
CONTINUOUS
10
2.91001
20
-2.34288
11
2.9097
21
-2.35061
0
LINE
8
BLACK
6
CONTINUOUS
10
2.9097
20
-2.35061
11
2.90955
21
-2.35253
0
LINE
8
BLACK
6
CONTINUOUS
10
2.90955
20
-2.35253
11
2.90955
21
-2.35253
0
LINE
8
BLACK
6
CONTINUOUS
10
2.90955
20
-2.35253
11
2.90955
21
-2.35446
0
LINE
8
BLACK
6
CONTINUOUS
10
2.90955
20
-2.35446
11
2.90923
21
-2.3622
0
LINE
8
BLACK
6
CONTINUOUS
10
2.90923
20
-2.3622
11
2.90952
21
-2.3693
0
LINE
8
BLACK
6
CONTINUOUS
10
3.58858
20
-2.30512
11
3.60413
21
-2.30512
0
LINE
8
BLACK
6
CONTINUOUS
10
3.60413
20
-2.30512
11
3.60413
21
-2.30512
0
LINE
8
BLACK
6
CONTINUOUS
10
3.60413
20
-2.30512
11
3.60511
21
-2.305
0
LINE
8
BLACK
6
CONTINUOUS
10
3.60511
20
-2.305
11
3.60915
21
-2.30322
0
LINE
8
BLACK
6
CONTINUOUS
10
3.60915
20
-2.30322
11
3.61228
21
-2.3001
0
LINE
8
BLACK
6
CONTINUOUS
10
3.61228
20
-2.3001
11
3.61406
21
-2.29606
0
LINE
8
BLACK
6
CONTINUOUS
10
3.61406
20
-2.29606
11
3.61417
21
-2.29507
0
LINE
8
BLACK
6
CONTINUOUS
10
3.61417
20
-2.29507
11
3.61417
21
-2.29507
0
LINE
8
BLACK
6
CONTINUOUS
10
3.61417
20
-2.29507
11
3.61417
21
-2.24508
0
LINE
8
BLACK
6
CONTINUOUS
10
3.61417
20
-2.24508
11
3.61417
21
-2.24508
0
LINE
8
BLACK
6
CONTINUOUS
10
3.61417
20
-2.24508
11
3.60236
21
-2.24508
0
LINE
8
BLACK
6
CONTINUOUS
10
3.60236
20
-2.24508
11
3.60236
21
-2.29331
0
LINE
8
BLACK
6
CONTINUOUS
10
3.60236
20
-2.29331
11
3.58858
21
-2.29331
0
LINE
8
BLACK
6
CONTINUOUS
10
3.58858
20
-2.29331
11
3.58858
21
-2.30512
0
LINE
8
BLACK
6
CONTINUOUS
10
3.58858
20
-2.30512
11
3.58858
21
-2.30512
0
LINE
8
BLACK
6
CONTINUOUS
10
3.59345
20
-2.40235
11
3.59784
21
-2.40458
0
LINE
8
BLACK
6
CONTINUOUS
10
3.59784
20
-2.40458
11
3.60132
21
-2.40807
0
LINE
8
BLACK
6
CONTINUOUS
10
3.60132
20
-2.40807
11
3.60356
21
-2.41246
0
LINE
8
BLACK
6
CONTINUOUS
10
3.60356
20
-2.41246
11
3.60433
21
-2.41732
0
LINE
8
BLACK
6
CONTINUOUS
10
3.60433
20
-2.41732
11
3.60356
21
-2.42219
0
LINE
8
BLACK
6
CONTINUOUS
10
3.60356
20
-2.42219
11
3.60132
21
-2.42658
0
LINE
8
BLACK
6
CONTINUOUS
10
3.60132
20
-2.42658
11
3.59784
21
-2.43006
0
LINE
8
BLACK
6
CONTINUOUS
10
3.59784
20
-2.43006
11
3.5958
21
-2.4311
0
LINE
8
BLACK
6
CONTINUOUS
10
3.5958
20
-2.4311
11
3.60236
21
-2.4311
0
LINE
8
BLACK
6
CONTINUOUS
10
3.60236
20
-2.4311
11
3.60236
21
-2.53937
0
LINE
8
BLACK
6
CONTINUOUS
10
3.60236
20
-2.53937
11
3.5958
21
-2.53937
0
LINE
8
BLACK
6
CONTINUOUS
10
3.5958
20
-2.53937
11
3.59784
21
-2.54041
0
LINE
8
BLACK
6
CONTINUOUS
10
3.59784
20
-2.54041
11
3.60132
21
-2.54389
0
LINE
8
BLACK
6
CONTINUOUS
10
3.60132
20
-2.54389
11
3.60356
21
-2.54828
0
LINE
8
BLACK
6
CONTINUOUS
10
3.60356
20
-2.54828
11
3.60433
21
-2.55315
0
LINE
8
BLACK
6
CONTINUOUS
10
3.60433
20
-2.55315
11
3.60356
21
-2.55802
0
LINE
8
BLACK
6
CONTINUOUS
10
3.60356
20
-2.55802
11
3.60132
21
-2.56241
0
LINE
8
BLACK
6
CONTINUOUS
10
3.60132
20
-2.56241
11
3.59784
21
-2.56589
0
LINE
8
BLACK
6
CONTINUOUS
10
3.59784
20
-2.56589
11
3.59345
21
-2.56813
0
LINE
8
BLACK
6
CONTINUOUS
10
3.59345
20
-2.56813
11
3.58858
21
-2.5689
0
LINE
8
BLACK
6
CONTINUOUS
10
3.58858
20
-2.5689
11
3.58372
21
-2.56813
0
LINE
8
BLACK
6
CONTINUOUS
10
3.58372
20
-2.56813
11
3.57933
21
-2.56589
0
LINE
8
BLACK
6
CONTINUOUS
10
3.57933
20
-2.56589
11
3.57584
21
-2.56241
0
LINE
8
BLACK
6
CONTINUOUS
10
3.57584
20
-2.56241
11
3.57464
21
-2.56004
0
LINE
8
BLACK
6
CONTINUOUS
10
3.57464
20
-2.56004
11
3.573
21
-2.56004
0
LINE
8
BLACK
6
CONTINUOUS
10
3.573
20
-2.56004
11
3.5718
21
-2.56241
0
LINE
8
BLACK
6
CONTINUOUS
10
3.5718
20
-2.56241
11
3.56831
21
-2.56589
0
LINE
8
BLACK
6
CONTINUOUS
10
3.56831
20
-2.56589
11
3.56392
21
-2.56813
0
LINE
8
BLACK
6
CONTINUOUS
10
3.56392
20
-2.56813
11
3.55906
21
-2.5689
0
LINE
8
BLACK
6
CONTINUOUS
10
3.55906
20
-2.5689
11
3.55419
21
-2.56813
0
LINE
8
BLACK
6
CONTINUOUS
10
3.55419
20
-2.56813
11
3.5498
21
-2.56589
0
LINE
8
BLACK
6
CONTINUOUS
10
3.5498
20
-2.56589
11
3.54631
21
-2.56241
0
LINE
8
BLACK
6
CONTINUOUS
10
3.54631
20
-2.56241
11
3.54408
21
-2.55802
0
LINE
8
BLACK
6
CONTINUOUS
10
3.54408
20
-2.55802
11
3.54331
21
-2.55315
0
LINE
8
BLACK
6
CONTINUOUS
10
3.54331
20
-2.55315
11
3.54408
21
-2.54828
0
LINE
8
BLACK
6
CONTINUOUS
10
3.54408
20
-2.54828
11
3.54631
21
-2.54389
0
LINE
8
BLACK
6
CONTINUOUS
10
3.54631
20
-2.54389
11
3.5498
21
-2.54041
0
LINE
8
BLACK
6
CONTINUOUS
10
3.5498
20
-2.54041
11
3.55419
21
-2.53817
0
LINE
8
BLACK
6
CONTINUOUS
10
3.55419
20
-2.53817
11
3.55906
21
-2.5374
0
LINE
8
BLACK
6
CONTINUOUS
10
3.55906
20
-2.5374
11
3.56299
21
-2.53803
0
LINE
8
BLACK
6
CONTINUOUS
10
3.56299
20
-2.53803
11
3.56299
21
-2.43245
0
LINE
8
BLACK
6
CONTINUOUS
10
3.56299
20
-2.43245
11
3.55906
21
-2.43307
0
LINE
8
BLACK
6
CONTINUOUS
10
3.55906
20
-2.43307
11
3.55419
21
-2.4323
0
LINE
8
BLACK
6
CONTINUOUS
10
3.55419
20
-2.4323
11
3.5498
21
-2.43006
0
LINE
8
BLACK
6
CONTINUOUS
10
3.5498
20
-2.43006
11
3.54631
21
-2.42658
0
LINE
8
BLACK
6
CONTINUOUS
10
3.54631
20
-2.42658
11
3.54408
21
-2.42219
0
LINE
8
BLACK
6
CONTINUOUS
10
3.54408
20
-2.42219
11
3.54331
21
-2.41732
0
LINE
8
BLACK
6
CONTINUOUS
10
3.54331
20
-2.41732
11
3.54408
21
-2.41246
0
LINE
8
BLACK
6
CONTINUOUS
10
3.54408
20
-2.41246
11
3.54631
21
-2.40807
0
LINE
8
BLACK
6
CONTINUOUS
10
3.54631
20
-2.40807
11
3.5498
21
-2.40458
0
LINE
8
BLACK
6
CONTINUOUS
10
3.5498
20
-2.40458
11
3.55419
21
-2.40235
0
LINE
8
BLACK
6
CONTINUOUS
10
3.55419
20
-2.40235
11
3.55906
21
-2.40157
0
LINE
8
BLACK
6
CONTINUOUS
10
3.55906
20
-2.40157
11
3.56392
21
-2.40235
0
LINE
8
BLACK
6
CONTINUOUS
10
3.56392
20
-2.40235
11
3.56831
21
-2.40458
0
LINE
8
BLACK
6
CONTINUOUS
10
3.56831
20
-2.40458
11
3.5718
21
-2.40807
0
LINE
8
BLACK
6
CONTINUOUS
10
3.5718
20
-2.40807
11
3.57382
21
-2.41204
0
LINE
8
BLACK
6
CONTINUOUS
10
3.57382
20
-2.41204
11
3.57584
21
-2.40807
0
LINE
8
BLACK
6
CONTINUOUS
10
3.57584
20
-2.40807
11
3.57933
21
-2.40458
0
LINE
8
BLACK
6
CONTINUOUS
10
3.57933
20
-2.40458
11
3.58372
21
-2.40235
0
LINE
8
BLACK
6
CONTINUOUS
10
3.58372
20
-2.40235
11
3.58858
21
-2.40157
0
LINE
8
BLACK
6
CONTINUOUS
10
3.58858
20
-2.40157
11
3.59345
21
-2.40235
0
LINE
8
BLACK
6
CONTINUOUS
10
3.57297
20
-2.5462
11
3.57382
21
-2.54786
0
LINE
8
BLACK
6
CONTINUOUS
10
3.57382
20
-2.54786
11
3.57584
21
-2.54389
0
LINE
8
BLACK
6
CONTINUOUS
10
3.57584
20
-2.54389
11
3.57776
21
-2.54198
0
LINE
8
BLACK
6
CONTINUOUS
10
3.57776
20
-2.54198
11
3.57776
21
-2.54141
0
LINE
8
BLACK
6
CONTINUOUS
10
3.57776
20
-2.54141
11
3.57297
21
-2.5462
0
LINE
8
BLACK
6
CONTINUOUS
10
3.57297
20
-2.42428
11
3.57776
21
-2.42906
0
LINE
8
BLACK
6
CONTINUOUS
10
3.57776
20
-2.42906
11
3.57776
21
-2.42849
0
LINE
8
BLACK
6
CONTINUOUS
10
3.57776
20
-2.42849
11
3.57584
21
-2.42658
0
LINE
8
BLACK
6
CONTINUOUS
10
3.57584
20
-2.42658
11
3.57382
21
-2.42261
0
LINE
8
BLACK
6
CONTINUOUS
10
3.57382
20
-2.42261
11
3.57297
21
-2.42428
0
LINE
8
BLACK
6
CONTINUOUS
10
3.52362
20
-2.53937
11
3.48425
21
-2.53937
0
LINE
8
BLACK
6
CONTINUOUS
10
3.48425
20
-2.53937
11
3.48425
21
-2.49114
0
LINE
8
BLACK
6
CONTINUOUS
10
3.48425
20
-2.49114
11
3.43818
21
-2.49114
0
LINE
8
BLACK
6
CONTINUOUS
10
3.43818
20
-2.49114
11
3.43597
21
-2.49548
0
LINE
8
BLACK
6
CONTINUOUS
10
3.43597
20
-2.49548
11
3.43248
21
-2.49896
0
LINE
8
BLACK
6
CONTINUOUS
10
3.43248
20
-2.49896
11
3.42809
21
-2.5012
0
LINE
8
BLACK
6
CONTINUOUS
10
3.42809
20
-2.5012
11
3.42323
21
-2.50197
0
LINE
8
BLACK
6
CONTINUOUS
10
3.42323
20
-2.50197
11
3.41836
21
-2.5012
0
LINE
8
BLACK
6
CONTINUOUS
10
3.41836
20
-2.5012
11
3.41397
21
-2.49896
0
LINE
8
BLACK
6
CONTINUOUS
10
3.41397
20
-2.49896
11
3.41049
21
-2.49548
0
LINE
8
BLACK
6
CONTINUOUS
10
3.41049
20
-2.49548
11
3.40825
21
-2.49109
0
LINE
8
BLACK
6
CONTINUOUS
10
3.40825
20
-2.49109
11
3.40748
21
-2.48622
0
LINE
8
BLACK
6
CONTINUOUS
10
3.40748
20
-2.48622
11
3.40825
21
-2.48135
0
LINE
8
BLACK
6
CONTINUOUS
10
3.40825
20
-2.48135
11
3.41049
21
-2.47696
0
LINE
8
BLACK
6
CONTINUOUS
10
3.41049
20
-2.47696
11
3.41397
21
-2.47348
0
LINE
8
BLACK
6
CONTINUOUS
10
3.41397
20
-2.47348
11
3.41836
21
-2.47124
0
LINE
8
BLACK
6
CONTINUOUS
10
3.41836
20
-2.47124
11
3.42323
21
-2.47047
0
LINE
8
BLACK
6
CONTINUOUS
10
3.42323
20
-2.47047
11
3.42809
21
-2.47124
0
LINE
8
BLACK
6
CONTINUOUS
10
3.42809
20
-2.47124
11
3.43248
21
-2.47348
0
LINE
8
BLACK
6
CONTINUOUS
10
3.43248
20
-2.47348
11
3.43597
21
-2.47696
0
LINE
8
BLACK
6
CONTINUOUS
10
3.43597
20
-2.47696
11
3.43818
21
-2.4813
0
LINE
8
BLACK
6
CONTINUOUS
10
3.43818
20
-2.4813
11
3.48425
21
-2.4813
0
LINE
8
BLACK
6
CONTINUOUS
10
3.48425
20
-2.4813
11
3.48425
21
-2.4311
0
LINE
8
BLACK
6
CONTINUOUS
10
3.48425
20
-2.4311
11
3.52362
21
-2.4311
0
LINE
8
BLACK
6
CONTINUOUS
10
3.52362
20
-2.4311
11
3.52362
21
-2.53937
0
LINE
8
BLACK
6
CONTINUOUS
10
3.52362
20
-2.29331
11
3.50886
21
-2.29331
0
LINE
8
BLACK
6
CONTINUOUS
10
3.50886
20
-2.29331
11
3.50886
21
-2.40945
0
LINE
8
BLACK
6
CONTINUOUS
10
3.50886
20
-2.40945
11
3.50866
21
-2.41084
0
LINE
8
BLACK
6
CONTINUOUS
10
3.50866
20
-2.41084
11
3.50846
21
-2.41114
0
LINE
8
BLACK
6
CONTINUOUS
10
3.50846
20
-2.41114
11
3.50841
21
-2.41149
0
LINE
8
BLACK
6
CONTINUOUS
10
3.50841
20
-2.41149
11
3.50773
21
-2.41229
0
LINE
8
BLACK
6
CONTINUOUS
10
3.50773
20
-2.41229
11
3.50716
21
-2.41317
0
LINE
8
BLACK
6
CONTINUOUS
10
3.50716
20
-2.41317
11
3.50683
21
-2.41332
0
LINE
8
BLACK
6
CONTINUOUS
10
3.50683
20
-2.41332
11
3.5066
21
-2.41359
0
LINE
8
BLACK
6
CONTINUOUS
10
3.5066
20
-2.41359
11
3.50559
21
-2.41388
0
LINE
8
BLACK
6
CONTINUOUS
10
3.50559
20
-2.41388
11
3.50464
21
-2.41432
0
LINE
8
BLACK
6
CONTINUOUS
10
3.50464
20
-2.41432
11
3.50428
21
-2.41427
0
LINE
8
BLACK
6
CONTINUOUS
10
3.50428
20
-2.41427
11
3.50394
21
-2.41437
0
LINE
8
BLACK
6
CONTINUOUS
10
3.50394
20
-2.41437
11
3.47497
21
-2.41437
0
LINE
8
BLACK
6
CONTINUOUS
10
3.47497
20
-2.41437
11
3.47376
21
-2.41674
0
LINE
8
BLACK
6
CONTINUOUS
10
3.47376
20
-2.41674
11
3.47028
21
-2.42022
0
LINE
8
BLACK
6
CONTINUOUS
10
3.47028
20
-2.42022
11
3.46589
21
-2.42246
0
LINE
8
BLACK
6
CONTINUOUS
10
3.46589
20
-2.42246
11
3.46102
21
-2.42323
0
LINE
8
BLACK
6
CONTINUOUS
10
3.46102
20
-2.42323
11
3.45616
21
-2.42246
0
LINE
8
BLACK
6
CONTINUOUS
10
3.45616
20
-2.42246
11
3.45177
21
-2.42022
0
LINE
8
BLACK
6
CONTINUOUS
10
3.45177
20
-2.42022
11
3.44828
21
-2.41674
0
LINE
8
BLACK
6
CONTINUOUS
10
3.44828
20
-2.41674
11
3.44605
21
-2.41235
0
LINE
8
BLACK
6
CONTINUOUS
10
3.44605
20
-2.41235
11
3.44528
21
-2.40748
0
LINE
8
BLACK
6
CONTINUOUS
10
3.44528
20
-2.40748
11
3.44605
21
-2.40261
0
LINE
8
BLACK
6
CONTINUOUS
10
3.44605
20
-2.40261
11
3.44828
21
-2.39822
0
LINE
8
BLACK
6
CONTINUOUS
10
3.44828
20
-2.39822
11
3.45177
21
-2.39474
0
LINE
8
BLACK
6
CONTINUOUS
10
3.45177
20
-2.39474
11
3.45616
21
-2.3925
0
LINE
8
BLACK
6
CONTINUOUS
10
3.45616
20
-2.3925
11
3.46102
21
-2.39173
0
LINE
8
BLACK
6
CONTINUOUS
10
3.46102
20
-2.39173
11
3.46589
21
-2.3925
0
LINE
8
BLACK
6
CONTINUOUS
10
3.46589
20
-2.3925
11
3.47028
21
-2.39474
0
LINE
8
BLACK
6
CONTINUOUS
10
3.47028
20
-2.39474
11
3.47376
21
-2.39822
0
LINE
8
BLACK
6
CONTINUOUS
10
3.47376
20
-2.39822
11
3.476
21
-2.40261
0
LINE
8
BLACK
6
CONTINUOUS
10
3.476
20
-2.40261
11
3.4763
21
-2.40453
0
LINE
8
BLACK
6
CONTINUOUS
10
3.4763
20
-2.40453
11
3.49902
21
-2.40453
0
LINE
8
BLACK
6
CONTINUOUS
10
3.49902
20
-2.40453
11
3.49902
21
-2.29331
0
LINE
8
BLACK
6
CONTINUOUS
10
3.49902
20
-2.29331
11
3.48425
21
-2.29331
0
LINE
8
BLACK
6
CONTINUOUS
10
3.48425
20
-2.29331
11
3.48425
21
-2.18504
0
LINE
8
BLACK
6
CONTINUOUS
10
3.48425
20
-2.18504
11
3.52362
21
-2.18504
0
LINE
8
BLACK
6
CONTINUOUS
10
3.52362
20
-2.18504
11
3.52362
21
-2.29331
0
CIRCLE
8
BLACK
10
3.42323
20
-2.48622
40
0.00787402
0
CIRCLE
8
BLACK
10
2.91339
20
-2.04724
40
0.00787402
0
CIRCLE
8
BLACK
10
2.75873
20
-2.4093
40
0.00787402
0
CIRCLE
8
BLACK
10
2.99495
20
-2.72426
40
0.00787402
0
CIRCLE
8
BLACK
10
3.54644
20
-2.23031
40
0.00787402
0
CIRCLE
8
BLACK
10
3.1967
20
-2.75308
40
0.00787402
0
CIRCLE
8
BLACK
10
3.30426
20
-2.00015
40
0.00787402
0
CIRCLE
8
BLACK
10
2.83465
20
-2.59843
40
0.00787402
0
CIRCLE
8
BLACK
10
3.38583
20
-2.6748
40
0.00787402
0
CIRCLE
8
BLACK
10
2.78755
20
-2.20755
40
0.00787402
0
CIRCLE
8
BLACK
10
3.46457
20
-2.12598
40
0.00787402
0
CIRCLE
8
BLACK
10
3.4748
20
-2.59921
40
0.00787402
0
CIRCLE
8
BLACK
10
3.10251
20
-1.97133
40
0.00787402
0
CIRCLE
8
BLACK
10
3.55906
20
-2.41732
40
0.00787402
0
CIRCLE
8
BLACK
10
3.58858
20
-2.41732
40
0.00787402
0
CIRCLE
8
BLACK
10
3.58858
20
-2.55315
40
0.00787402
0
CIRCLE
8
BLACK
10
3.55906
20
-2.55315
40
0.00787402
0
CIRCLE
8
BLACK
10
3.45268
20
-2.30519
40
0.00787402
0
CIRCLE
8
BLACK
10
3.46102
20
-2.40748
40
0.00787402
  0
ENDSEC
  0
EOF
