  0
SECTION
  2
HEADER
  9
$ANGBASE
  50
0.0
  9
$ANGDIR
  70
1
  9
$MEASUREMENT
  70
0
  0
ENDSEC
  0
SECTION
  2
TABLES
  0
TABLE
  2
LTYPE
  70
4
  0
LTYPE
  5
40F
  2
CONTINUOUS
  70
0
  3
Solid line
  72
65
  73
0
  40
0.0
  0
LTYPE
  5
410
  2
DASHDOT
 70
0
  3
Dash Dot ____ _ ____ _
 72
65
 73
4
 40
2.0
 49
1.25
 49
-0.25
 49
0.25
 49
-0.25
  0
LTYPE
  5
411
  2
DASHED
 70
0
  3
Dashed __ __ __ __ __
 72
65
 73
2
 40
0.75
 49
0.5
 49
-0.25
  0
LTYPE
  5
43B
  2
DOTTED
 70
0
  3
Dotted .  .  .  .
 72
65
 73
2
 40
0.2
 49
0.0
 49
-0.2
  0
ENDTAB
  0
TABLE
  2
STYLE
  70
4
  0
STYLE
  2
KICAD
  70
0
  40
0
  41
1
  42
1
  50
0
  71
0
  3
isocp.shx
  0
STYLE
  2
KICADB
  70
0
  40
0
  41
1
  42
1
  50
0
  71
0
  3
isocp.shx
  0
STYLE
  2
KICADI
  70
0
  40
0
  41
1
  42
1
  50
15
  71
0
  3
isocp.shx
  0
STYLE
  2
KICADBI
  70
0
  40
0
  41
1
  42
1
  50
15
  71
0
  3
isocp.shx
  0
ENDTAB
  0
TABLE
  2
LAYER
  70
1
  0
LAYER
  2
BLACK
  70
0
  62
7
  6
CONTINUOUS
  0
ENDTAB
  0
ENDSEC
  0
SECTION
  2
ENTITIES
0
LINE
8
BLACK
6
CONTINUOUS
10
3.1563958267716536
20
-2.7655287795275592
11
3.1628448818897636
21
-2.7677853937007875
0
LINE
8
BLACK
6
CONTINUOUS
10
3.1628448818897636
20
-2.7677853937007875
11
3.1686301181102361
21
-2.7714205118110238
0
LINE
8
BLACK
6
CONTINUOUS
10
3.1686301181102361
20
-2.7714205118110238
11
3.1734613779527558
21
-2.7762517716535431
0
LINE
8
BLACK
6
CONTINUOUS
10
3.1734613779527558
20
-2.7762517716535431
11
3.1770964960629922
21
-2.7820370078740155
0
LINE
8
BLACK
6
CONTINUOUS
10
3.1770964960629922
20
-2.7820370078740155
11
3.1793531102362205
21
-2.788486062992126
0
LINE
8
BLACK
6
CONTINUOUS
10
3.1793531102362205
20
-2.788486062992126
11
3.1801181102362204
21
-2.795275590551181
0
LINE
8
BLACK
6
CONTINUOUS
10
3.1801181102362204
20
-2.795275590551181
11
3.1793531102362205
21
-2.8020651181102361
0
LINE
8
BLACK
6
CONTINUOUS
10
3.1793531102362205
20
-2.8020651181102361
11
3.1770964960629922
21
-2.8085141732283465
0
LINE
8
BLACK
6
CONTINUOUS
10
3.1770964960629922
20
-2.8085141732283465
11
3.1734613779527558
21
-2.814299409448819
0
LINE
8
BLACK
6
CONTINUOUS
10
3.1734613779527558
20
-2.814299409448819
11
3.1686301181102361
21
-2.8191306692913387
0
LINE
8
BLACK
6
CONTINUOUS
10
3.1686301181102361
20
-2.8191306692913387
11
3.1628448818897636
21
-2.8227657874015746
0
LINE
8
BLACK
6
CONTINUOUS
10
3.1628448818897636
20
-2.8227657874015746
11
3.1563958267716536
21
-2.8250224015748029
0
LINE
8
BLACK
6
CONTINUOUS
10
3.1563958267716536
20
-2.8250224015748029
11
3.1496062992125982
21
-2.8257874015748032
0
LINE
8
BLACK
6
CONTINUOUS
10
3.1496062992125982
20
-2.8257874015748032
11
3.1428167716535431
21
-2.8250224015748029
0
LINE
8
BLACK
6
CONTINUOUS
10
3.1428167716535431
20
-2.8250224015748029
11
3.1363677165354331
21
-2.8227657874015746
0
LINE
8
BLACK
6
CONTINUOUS
10
3.1363677165354331
20
-2.8227657874015746
11
3.1305824803149607
21
-2.8191306692913387
0
LINE
8
BLACK
6
CONTINUOUS
10
3.1305824803149607
20
-2.8191306692913387
11
3.1257512204724409
21
-2.814299409448819
0
LINE
8
BLACK
6
CONTINUOUS
10
3.1257512204724409
20
-2.814299409448819
11
3.1221161023622046
21
-2.8085141732283465
0
LINE
8
BLACK
6
CONTINUOUS
10
3.1221161023622046
20
-2.8085141732283465
11
3.1198594881889763
21
-2.8020651181102361
0
LINE
8
BLACK
6
CONTINUOUS
10
3.1198594881889763
20
-2.8020651181102361
11
3.1190944881889764
21
-2.795275590551181
0
LINE
8
BLACK
6
CONTINUOUS
10
3.1190944881889764
20
-2.795275590551181
11
3.1198594881889763
21
-2.788486062992126
0
LINE
8
BLACK
6
CONTINUOUS
10
3.1198594881889763
20
-2.788486062992126
11
3.1221161023622046
21
-2.7820370078740155
0
LINE
8
BLACK
6
CONTINUOUS
10
3.1221161023622046
20
-2.7820370078740155
11
3.1257512204724409
21
-2.7762517716535431
0
LINE
8
BLACK
6
CONTINUOUS
10
3.1257512204724409
20
-2.7762517716535431
11
3.1305824803149607
21
-2.7714205118110238
0
LINE
8
BLACK
6
CONTINUOUS
10
3.1305824803149607
20
-2.7714205118110238
11
3.1363677165354331
21
-2.7677853937007875
0
LINE
8
BLACK
6
CONTINUOUS
10
3.1363677165354331
20
-2.7677853937007875
11
3.1428167716535431
21
-2.7655287795275592
0
LINE
8
BLACK
6
CONTINUOUS
10
3.1428167716535431
20
-2.7655287795275592
11
3.1496062992125982
21
-2.7647637795275588
0
LINE
8
BLACK
6
CONTINUOUS
10
3.1496062992125982
20
-2.7647637795275588
11
3.1563958267716536
21
-2.7655287795275592
0
LINE
8
BLACK
6
CONTINUOUS
10
3.121602559055118
20
-2.8016672440944883
11
3.1237269685039371
21
-2.8077384251968502
0
LINE
8
BLACK
6
CONTINUOUS
10
3.1237269685039371
20
-2.8077384251968502
11
3.1271490551181103
21
-2.8131846456692915
0
LINE
8
BLACK
6
CONTINUOUS
10
3.1271490551181103
20
-2.8131846456692915
11
3.1316972440944881
21
-2.8177328346456694
0
LINE
8
BLACK
6
CONTINUOUS
10
3.1316972440944881
20
-2.8177328346456694
11
3.1371434645669289
21
-2.8211549212598426
0
LINE
8
BLACK
6
CONTINUOUS
10
3.1371434645669289
20
-2.8211549212598426
11
3.1432146456692913
21
-2.8232793307086612
0
LINE
8
BLACK
6
CONTINUOUS
10
3.1432146456692913
20
-2.8232793307086612
11
3.1496062992125982
21
-2.8239994881889765
0
LINE
8
BLACK
6
CONTINUOUS
10
3.1496062992125982
20
-2.8239994881889765
11
3.1559979527559054
21
-2.8232793307086612
0
LINE
8
BLACK
6
CONTINUOUS
10
3.1559979527559054
20
-2.8232793307086612
11
3.1620691338582678
21
-2.8211549212598426
0
LINE
8
BLACK
6
CONTINUOUS
10
3.1620691338582678
20
-2.8211549212598426
11
3.1675153543307086
21
-2.8177328346456694
0
LINE
8
BLACK
6
CONTINUOUS
10
3.1675153543307086
20
-2.8177328346456694
11
3.1720635433070865
21
-2.8131846456692915
0
LINE
8
BLACK
6
CONTINUOUS
10
3.1720635433070865
20
-2.8131846456692915
11
3.1754856299212597
21
-2.8077384251968502
0
LINE
8
BLACK
6
CONTINUOUS
10
3.1754856299212597
20
-2.8077384251968502
11
3.1776100393700788
21
-2.8016672440944883
0
LINE
8
BLACK
6
CONTINUOUS
10
3.1776100393700788
20
-2.8016672440944883
11
3.1783301968503936
21
-2.795275590551181
0
LINE
8
BLACK
6
CONTINUOUS
10
3.1783301968503936
20
-2.795275590551181
11
3.1776100393700788
21
-2.7888839370078737
0
LINE
8
BLACK
6
CONTINUOUS
10
3.1776100393700788
20
-2.7888839370078737
11
3.1754856299212597
21
-2.7828127559055118
0
LINE
8
BLACK
6
CONTINUOUS
10
3.1754856299212597
20
-2.7828127559055118
11
3.1720635433070865
21
-2.777366535433071
0
LINE
8
BLACK
6
CONTINUOUS
10
3.1720635433070865
20
-2.777366535433071
11
3.1675153543307086
21
-2.7728183464566927
0
LINE
8
BLACK
6
CONTINUOUS
10
3.1675153543307086
20
-2.7728183464566927
11
3.1620691338582678
21
-2.7693962598425195
0
LINE
8
BLACK
6
CONTINUOUS
10
3.1620691338582678
20
-2.7693962598425195
11
3.1559979527559054
21
-2.7672718503937008
0
LINE
8
BLACK
6
CONTINUOUS
10
3.1559979527559054
20
-2.7672718503937008
11
3.1496062992125982
21
-2.766551692913386
0
LINE
8
BLACK
6
CONTINUOUS
10
3.1496062992125982
20
-2.766551692913386
11
3.1432146456692913
21
-2.7672718503937008
0
LINE
8
BLACK
6
CONTINUOUS
10
3.1432146456692913
20
-2.7672718503937008
11
3.1371434645669289
21
-2.7693962598425195
0
LINE
8
BLACK
6
CONTINUOUS
10
3.1371434645669289
20
-2.7693962598425195
11
3.1316972440944881
21
-2.7728183464566927
0
LINE
8
BLACK
6
CONTINUOUS
10
3.1316972440944881
20
-2.7728183464566927
11
3.1271490551181103
21
-2.777366535433071
0
LINE
8
BLACK
6
CONTINUOUS
10
3.1271490551181103
20
-2.777366535433071
11
3.1237269685039371
21
-2.7828127559055118
0
LINE
8
BLACK
6
CONTINUOUS
10
3.1237269685039371
20
-2.7828127559055118
11
3.121602559055118
21
-2.7888839370078737
0
LINE
8
BLACK
6
CONTINUOUS
10
3.121602559055118
20
-2.7888839370078737
11
3.1208824015748031
21
-2.795275590551181
0
LINE
8
BLACK
6
CONTINUOUS
10
3.1208824015748031
20
-2.795275590551181
11
3.121602559055118
21
-2.8016672440944883
0
LINE
8
BLACK
6
CONTINUOUS
10
3.188976377952756
20
-2.6761811023622046
11
3.1896723622047243
21
-2.6764693700787401
0
LINE
8
BLACK
6
CONTINUOUS
10
3.1896723622047243
20
-2.6764693700787401
11
3.1899606299212597
21
-2.6771653543307088
0
LINE
8
BLACK
6
CONTINUOUS
10
3.1899606299212597
20
-2.6771653543307088
11
3.1899606299212597
21
-2.6811500787401572
0
LINE
8
BLACK
6
CONTINUOUS
10
3.1899606299212597
20
-2.6811500787401572
11
3.1905511811023621
21
-2.6809055118110234
0
LINE
8
BLACK
6
CONTINUOUS
10
3.1905511811023621
20
-2.6809055118110234
11
3.2267716535433069
21
-2.6809055118110234
0
LINE
8
BLACK
6
CONTINUOUS
10
3.2267716535433069
20
-2.6809055118110234
11
3.2274676377952756
21
-2.6811937795275589
0
LINE
8
BLACK
6
CONTINUOUS
10
3.2274676377952756
20
-2.6811937795275589
11
3.227755905511811
21
-2.6818897637795276
0
LINE
8
BLACK
6
CONTINUOUS
10
3.227755905511811
20
-2.6818897637795276
11
3.227755905511811
21
-2.753543307086614
0
LINE
8
BLACK
6
CONTINUOUS
10
3.227755905511811
20
-2.753543307086614
11
3.2274676377952756
21
-2.7542392913385827
0
LINE
8
BLACK
6
CONTINUOUS
10
3.2274676377952756
20
-2.7542392913385827
11
3.2267716535433069
21
-2.7545275590551181
0
LINE
8
BLACK
6
CONTINUOUS
10
3.2267716535433069
20
-2.7545275590551181
11
3.1905511811023621
21
-2.7545275590551181
0
LINE
8
BLACK
6
CONTINUOUS
10
3.1905511811023621
20
-2.7545275590551181
11
3.1899606299212597
21
-2.7542829527559056
0
LINE
8
BLACK
6
CONTINUOUS
10
3.1899606299212597
20
-2.7542829527559056
11
3.1899606299212597
21
-2.7559055118110236
0
LINE
8
BLACK
6
CONTINUOUS
10
3.1899606299212597
20
-2.7559055118110236
11
3.1896723622047243
21
-2.7566014960629919
0
LINE
8
BLACK
6
CONTINUOUS
10
3.1896723622047243
20
-2.7566014960629919
11
3.188976377952756
21
-2.7568897637795273
0
LINE
8
BLACK
6
CONTINUOUS
10
3.188976377952756
20
-2.7568897637795273
11
3.1102362204724407
21
-2.7568897637795273
0
LINE
8
BLACK
6
CONTINUOUS
10
3.1102362204724407
20
-2.7568897637795273
11
3.1095402362204725
21
-2.7566014960629919
0
LINE
8
BLACK
6
CONTINUOUS
10
3.1095402362204725
20
-2.7566014960629919
11
3.109251968503937
21
-2.7559055118110236
0
LINE
8
BLACK
6
CONTINUOUS
10
3.109251968503937
20
-2.7559055118110236
11
3.109251968503937
21
-2.6771653543307088
0
LINE
8
BLACK
6
CONTINUOUS
10
3.109251968503937
20
-2.6771653543307088
11
3.1095402362204725
21
-2.6764693700787401
0
LINE
8
BLACK
6
CONTINUOUS
10
3.1095402362204725
20
-2.6764693700787401
11
3.1102362204724407
21
-2.6761811023622046
0
LINE
8
BLACK
6
CONTINUOUS
10
3.1102362204724407
20
-2.6761811023622046
11
3.188976377952756
21
-2.6761811023622046
0
LINE
8
BLACK
6
CONTINUOUS
10
3.1112204724409449
20
-2.6781496062992125
11
3.1112204724409449
21
-2.7549212598425195
0
LINE
8
BLACK
6
CONTINUOUS
10
3.1112204724409449
20
-2.7549212598425195
11
3.1879921259842519
21
-2.7549212598425195
0
LINE
8
BLACK
6
CONTINUOUS
10
3.1879921259842519
20
-2.7549212598425195
11
3.1879921259842519
21
-2.6781496062992125
0
LINE
8
BLACK
6
CONTINUOUS
10
3.1879921259842519
20
-2.6781496062992125
11
3.1112204724409449
21
-2.6781496062992125
0
LINE
8
BLACK
6
CONTINUOUS
10
3.1915354330708663
20
-2.6828740157480313
11
3.1915354330708663
21
-2.7525590551181103
0
LINE
8
BLACK
6
CONTINUOUS
10
3.1915354330708663
20
-2.7525590551181103
11
3.2257874015748031
21
-2.7525590551181103
0
LINE
8
BLACK
6
CONTINUOUS
10
3.2257874015748031
20
-2.7525590551181103
11
3.2257874015748031
21
-2.6828740157480313
0
LINE
8
BLACK
6
CONTINUOUS
10
3.2257874015748031
20
-2.6828740157480313
11
3.1915354330708663
21
-2.6828740157480313
0
LINE
8
BLACK
6
CONTINUOUS
10
2.9585226377952756
20
-2.6144312204724409
11
3.0267135826771652
21
-2.6538012992125983
0
LINE
8
BLACK
6
CONTINUOUS
10
3.0267135826771652
20
-2.6538012992125983
11
3.0271721653543304
21
-2.654398937007874
0
LINE
8
BLACK
6
CONTINUOUS
10
3.0271721653543304
20
-2.654398937007874
11
3.0271721259842521
21
-2.654398937007874
0
LINE
8
BLACK
6
CONTINUOUS
10
3.0271721259842521
20
-2.654398937007874
11
3.0271721653543304
21
-2.6543989763779527
0
LINE
8
BLACK
6
CONTINUOUS
10
3.0271721653543304
20
-2.6543989763779527
11
3.0270738188976378
21
-2.6551458267716535
0
LINE
8
BLACK
6
CONTINUOUS
10
3.0270738188976378
20
-2.6551458267716535
11
3.0265577559055119
21
-2.6560396062992124
0
LINE
8
BLACK
6
CONTINUOUS
10
3.0265577559055119
20
-2.6560396062992124
11
3.057711377952756
21
-2.674026181102362
0
LINE
8
BLACK
6
CONTINUOUS
10
3.057711377952756
20
-2.674026181102362
11
3.0577114960629919
21
-2.6740262204724408
0
LINE
8
BLACK
6
CONTINUOUS
10
3.0577114960629919
20
-2.6740262204724408
11
3.0581701181102363
21
-2.6746238582677164
0
LINE
8
BLACK
6
CONTINUOUS
10
3.0581701181102363
20
-2.6746238582677164
11
3.0580717716535433
21
-2.6753707480314959
0
LINE
8
BLACK
6
CONTINUOUS
10
3.0580717716535433
20
-2.6753707480314959
11
3.0222449999999998
21
-2.737424527559055
0
LINE
8
BLACK
6
CONTINUOUS
10
3.0222449999999998
20
-2.737424527559055
11
3.0216473622047242
21
-2.737883149606299
0
LINE
8
BLACK
6
CONTINUOUS
10
3.0216473622047242
20
-2.737883149606299
11
3.0209004724409447
21
-2.7377848031496064
0
LINE
8
BLACK
6
CONTINUOUS
10
3.0209004724409447
20
-2.7377848031496064
11
2.9897467322834643
21
-2.719798188976378
0
LINE
8
BLACK
6
CONTINUOUS
10
2.9897467322834643
20
-2.719798188976378
11
2.9877037795275592
21
-2.723336771653543
0
LINE
8
BLACK
6
CONTINUOUS
10
2.9877037795275592
20
-2.723336771653543
11
2.9871061417322835
21
-2.7237953937007875
0
LINE
8
BLACK
6
CONTINUOUS
10
2.9871061417322835
20
-2.7237953937007875
11
2.986359251968504
21
-2.7236970472440944
0
LINE
8
BLACK
6
CONTINUOUS
10
2.986359251968504
20
-2.7236970472440944
11
2.9863591732283465
21
-2.7236969685039369
0
LINE
8
BLACK
6
CONTINUOUS
10
2.9863591732283465
20
-2.7236969685039369
11
2.918168307086614
21
-2.684326968503937
0
LINE
8
BLACK
6
CONTINUOUS
10
2.918168307086614
20
-2.684326968503937
11
2.91770968503937
21
-2.6837293307086614
0
LINE
8
BLACK
6
CONTINUOUS
10
2.91770968503937
20
-2.6837293307086614
11
2.917808031496063
21
-2.6829824409448819
0
LINE
8
BLACK
6
CONTINUOUS
10
2.917808031496063
20
-2.6829824409448819
11
2.9571781102362205
21
-2.6147914960629919
0
LINE
8
BLACK
6
CONTINUOUS
10
2.9571781102362205
20
-2.6147914960629919
11
2.9577757480314961
21
-2.6143328740157479
0
LINE
8
BLACK
6
CONTINUOUS
10
2.9577757480314961
20
-2.6143328740157479
11
2.9585226377952756
21
-2.6144312204724409
0
LINE
8
BLACK
6
CONTINUOUS
10
2.991369251968504
20
-2.7184618897637796
11
3.0210322834645669
21
-2.735587874015748
0
LINE
8
BLACK
6
CONTINUOUS
10
3.0210322834645669
20
-2.735587874015748
11
3.0558748031496061
21
-2.6752388582677167
0
LINE
8
BLACK
6
CONTINUOUS
10
3.0558748031496061
20
-2.6752388582677167
11
3.0262117322834645
21
-2.6581129133858266
0
LINE
8
BLACK
6
CONTINUOUS
10
3.0262117322834645
20
-2.6581129133858266
11
2.991369251968504
21
-2.7184618897637796
0
LINE
8
BLACK
6
CONTINUOUS
10
2.920004960629921
20
-2.6831142913385828
11
2.9864911023622045
21
-2.7215000787401573
0
LINE
8
BLACK
6
CONTINUOUS
10
2.9864911023622045
20
-2.7215000787401573
11
3.0248769291338582
21
-2.6550139370078738
0
LINE
8
BLACK
6
CONTINUOUS
10
3.0248769291338582
20
-2.6550139370078738
11
2.9583907480314959
21
-2.6166281102362206
0
LINE
8
BLACK
6
CONTINUOUS
10
2.9583907480314959
20
-2.6166281102362206
11
2.920004960629921
21
-2.6831142913385828
0
LINE
8
BLACK
6
CONTINUOUS
10
3.3765757086614174
20
-2.5998694488188976
11
3.4124024803149604
21
-2.6619232283464567
0
LINE
8
BLACK
6
CONTINUOUS
10
3.4124024803149604
20
-2.6619232283464567
11
3.4125008267716535
21
-2.6626701181102361
0
LINE
8
BLACK
6
CONTINUOUS
10
3.4125008267716535
20
-2.6626701181102361
11
3.4120422047244094
21
-2.6632677559055118
0
LINE
8
BLACK
6
CONTINUOUS
10
3.4120422047244094
20
-2.6632677559055118
11
3.4120420866141732
21
-2.6632677559055118
0
LINE
8
BLACK
6
CONTINUOUS
10
3.4120420866141732
20
-2.6632677559055118
11
3.3806743307086613
21
-2.6813779921259844
0
LINE
8
BLACK
6
CONTINUOUS
10
3.3806743307086613
20
-2.6813779921259844
11
3.3804920472440942
21
-2.6814019685039368
0
LINE
8
BLACK
6
CONTINUOUS
10
3.3804920472440942
20
-2.6814019685039368
11
3.381404527559055
21
-2.6829824409448819
0
LINE
8
BLACK
6
CONTINUOUS
10
3.381404527559055
20
-2.6829824409448819
11
3.381502874015748
21
-2.6837293307086614
0
LINE
8
BLACK
6
CONTINUOUS
10
3.381502874015748
20
-2.6837293307086614
11
3.3810442913385828
21
-2.684326968503937
0
LINE
8
BLACK
6
CONTINUOUS
10
3.3810442913385828
20
-2.684326968503937
11
3.3128533464566927
21
-2.7236970472440944
0
LINE
8
BLACK
6
CONTINUOUS
10
3.3128533464566927
20
-2.7236970472440944
11
3.3121064566929133
21
-2.7237953937007875
0
LINE
8
BLACK
6
CONTINUOUS
10
3.3121064566929133
20
-2.7237953937007875
11
3.3115088188976376
21
-2.723336771653543
0
LINE
8
BLACK
6
CONTINUOUS
10
3.3115088188976376
20
-2.723336771653543
11
3.2721387401574802
21
-2.6551458267716535
0
LINE
8
BLACK
6
CONTINUOUS
10
3.2721387401574802
20
-2.6551458267716535
11
3.2720403937007871
21
-2.654398937007874
0
LINE
8
BLACK
6
CONTINUOUS
10
3.2720403937007871
20
-2.654398937007874
11
3.2724990157480316
21
-2.6538012992125983
0
LINE
8
BLACK
6
CONTINUOUS
10
3.2724990157480316
20
-2.6538012992125983
11
3.3406898818897637
21
-2.6144312598425197
0
LINE
8
BLACK
6
CONTINUOUS
10
3.3406898818897637
20
-2.6144312598425197
11
3.3406899606299212
21
-2.6144312204724409
0
LINE
8
BLACK
6
CONTINUOUS
10
3.3406899606299212
20
-2.6144312204724409
11
3.3414368503937006
21
-2.6143328740157479
0
LINE
8
BLACK
6
CONTINUOUS
10
3.3414368503937006
20
-2.6143328740157479
11
3.3420344881889763
21
-2.6147914960629919
0
LINE
8
BLACK
6
CONTINUOUS
10
3.3420344881889763
20
-2.6147914960629919
11
3.3437513779527559
21
-2.6177652362204724
0
LINE
8
BLACK
6
CONTINUOUS
10
3.3437513779527559
20
-2.6177652362204724
11
3.3438633070866142
21
-2.6176194094488188
0
LINE
8
BLACK
6
CONTINUOUS
10
3.3438633070866142
20
-2.6176194094488188
11
3.3752311811023623
21
-2.5995091732283462
0
LINE
8
BLACK
6
CONTINUOUS
10
3.3752311811023623
20
-2.5995091732283462
11
3.3759780708661418
21
-2.5994108267716536
0
LINE
8
BLACK
6
CONTINUOUS
10
3.3759780708661418
20
-2.5994108267716536
11
3.3765757086614174
21
-2.5998694488188976
0
LINE
8
BLACK
6
CONTINUOUS
10
3.2743356692913386
20
-2.6550139370078738
11
3.3127214566929135
21
-2.7215001181102361
0
LINE
8
BLACK
6
CONTINUOUS
10
3.3127214566929135
20
-2.7215001181102361
11
3.3792076377952753
21
-2.6831142913385828
0
LINE
8
BLACK
6
CONTINUOUS
10
3.3792076377952753
20
-2.6831142913385828
11
3.3408218110236221
21
-2.6166281496062993
0
LINE
8
BLACK
6
CONTINUOUS
10
3.3408218110236221
20
-2.6166281496062993
11
3.2743356692913386
21
-2.6550139370078738
0
LINE
8
BLACK
6
CONTINUOUS
10
3.3456999606299211
20
-2.6188320472440942
11
3.3805424409448817
21
-2.6791810236220472
0
LINE
8
BLACK
6
CONTINUOUS
10
3.3805424409448817
20
-2.6791810236220472
11
3.4102055118110237
21
-2.6620550787401576
0
LINE
8
BLACK
6
CONTINUOUS
10
3.4102055118110237
20
-2.6620550787401576
11
3.375362992125984
21
-2.6017060629921258
0
LINE
8
BLACK
6
CONTINUOUS
10
3.375362992125984
20
-2.6017060629921258
11
3.3456999606299211
21
-2.6188320472440942
0
LINE
8
BLACK
6
CONTINUOUS
10
2.8580097244094489
20
-2.4850974409448821
11
2.8973797637795276
21
-2.5532883858267716
0
LINE
8
BLACK
6
CONTINUOUS
10
2.8973797637795276
20
-2.5532883858267716
11
2.8974781102362206
21
-2.5540352755905511
0
LINE
8
BLACK
6
CONTINUOUS
10
2.8974781102362206
20
-2.5540352755905511
11
2.8970195275590549
21
-2.5546329133858268
0
LINE
8
BLACK
6
CONTINUOUS
10
2.8970195275590549
20
-2.5546329133858268
11
2.8969452755905509
21
-2.5546757480314959
0
LINE
8
BLACK
6
CONTINUOUS
10
2.8969452755905509
20
-2.5546757480314959
11
2.9149501574803147
21
-2.5858611023622045
0
LINE
8
BLACK
6
CONTINUOUS
10
2.9149501574803147
20
-2.5858611023622045
11
2.9150485039370078
21
-2.5866079921259844
0
LINE
8
BLACK
6
CONTINUOUS
10
2.9150485039370078
20
-2.5866079921259844
11
2.914866338582677
21
-2.5868453543307086
0
LINE
8
BLACK
6
CONTINUOUS
10
2.914866338582677
20
-2.5868453543307086
11
2.9145898818897638
21
-2.5872056299212596
0
LINE
8
BLACK
6
CONTINUOUS
10
2.9145898818897638
20
-2.5872056299212596
11
2.8525361023622047
21
-2.623032401574803
0
LINE
8
BLACK
6
CONTINUOUS
10
2.8525361023622047
20
-2.623032401574803
11
2.851789251968504
21
-2.623130748031496
0
LINE
8
BLACK
6
CONTINUOUS
10
2.851789251968504
20
-2.623130748031496
11
2.8517892125984252
21
-2.6231307086614173
0
LINE
8
BLACK
6
CONTINUOUS
10
2.8517892125984252
20
-2.6231307086614173
11
2.8517892125984252
21
-2.623130748031496
0
LINE
8
BLACK
6
CONTINUOUS
10
2.8517892125984252
20
-2.623130748031496
11
2.8511915748031496
21
-2.622672125984252
0
LINE
8
BLACK
6
CONTINUOUS
10
2.8511915748031496
20
-2.622672125984252
11
2.8511915354330708
21
-2.6226720078740158
0
LINE
8
BLACK
6
CONTINUOUS
10
2.8511915354330708
20
-2.6226720078740158
11
2.8331867322834645
21
-2.5914867716535435
0
LINE
8
BLACK
6
CONTINUOUS
10
2.8331867322834645
20
-2.5914867716535435
11
2.8288285826771653
21
-2.5940029921259842
0
LINE
8
BLACK
6
CONTINUOUS
10
2.8288285826771653
20
-2.5940029921259842
11
2.8280816929133858
21
-2.5941013385826772
0
LINE
8
BLACK
6
CONTINUOUS
10
2.8280816929133858
20
-2.5941013385826772
11
2.8274840551181102
21
-2.5936427165354332
0
LINE
8
BLACK
6
CONTINUOUS
10
2.8274840551181102
20
-2.5936427165354332
11
2.7881139763779528
21
-2.5254517716535432
0
LINE
8
BLACK
6
CONTINUOUS
10
2.7881139763779528
20
-2.5254517716535432
11
2.7880156299212597
21
-2.5247048818897637
0
LINE
8
BLACK
6
CONTINUOUS
10
2.7880156299212597
20
-2.5247048818897637
11
2.7884742519685037
21
-2.5241072440944881
0
LINE
8
BLACK
6
CONTINUOUS
10
2.7884742519685037
20
-2.5241072440944881
11
2.8566651181102363
21
-2.4847372047244094
0
LINE
8
BLACK
6
CONTINUOUS
10
2.8566651181102363
20
-2.4847372047244094
11
2.8566651968503938
21
-2.4847371653543306
0
LINE
8
BLACK
6
CONTINUOUS
10
2.8566651968503938
20
-2.4847371653543306
11
2.8574120866141732
21
-2.4846388188976376
0
LINE
8
BLACK
6
CONTINUOUS
10
2.8574120866141732
20
-2.4846388188976376
11
2.8580097244094489
21
-2.4850974409448821
0
LINE
8
BLACK
6
CONTINUOUS
10
2.8352782677165353
20
-2.5911723622047242
11
2.852404212598425
21
-2.6208354330708659
0
LINE
8
BLACK
6
CONTINUOUS
10
2.852404212598425
20
-2.6208354330708659
11
2.9127532283464568
21
-2.5859929133858266
0
LINE
8
BLACK
6
CONTINUOUS
10
2.9127532283464568
20
-2.5859929133858266
11
2.8956272440944879
21
-2.5563298818897637
0
LINE
8
BLACK
6
CONTINUOUS
10
2.8956272440944879
20
-2.5563298818897637
11
2.8352782677165353
21
-2.5911723622047242
0
LINE
8
BLACK
6
CONTINUOUS
10
2.7903109055118112
20
-2.5253198818897635
11
2.8286966929133857
21
-2.5918060629921258
0
LINE
8
BLACK
6
CONTINUOUS
10
2.8286966929133857
20
-2.5918060629921258
11
2.8951828740157479
21
-2.5534202362204725
0
LINE
8
BLACK
6
CONTINUOUS
10
2.8951828740157479
20
-2.5534202362204725
11
2.8567970472440942
21
-2.486934094488189
0
LINE
8
BLACK
6
CONTINUOUS
10
2.8567970472440942
20
-2.486934094488189
11
2.7903109055118112
21
-2.5253198818897635
0
LINE
8
BLACK
6
CONTINUOUS
10
3.4647408267716533
20
-2.4557077559055118
11
3.5267946062992124
21
-2.4915345275590552
0
LINE
8
BLACK
6
CONTINUOUS
10
3.5267946062992124
20
-2.4915345275590552
11
3.5272532283464568
21
-2.4921321653543305
0
LINE
8
BLACK
6
CONTINUOUS
10
3.5272532283464568
20
-2.4921321653543305
11
3.5271548818897638
21
-2.4928790551181104
0
LINE
8
BLACK
6
CONTINUOUS
10
3.5271548818897638
20
-2.4928790551181104
11
3.5095285433070864
21
-2.5234087401574801
0
LINE
8
BLACK
6
CONTINUOUS
10
3.5095285433070864
20
-2.5234087401574801
11
3.510738346456693
21
-2.5241072440944881
0
LINE
8
BLACK
6
CONTINUOUS
10
3.510738346456693
20
-2.5241072440944881
11
3.5111969291338583
21
-2.5247048818897637
0
LINE
8
BLACK
6
CONTINUOUS
10
3.5111969291338583
20
-2.5247048818897637
11
3.5111968897637795
21
-2.5247048818897637
0
LINE
8
BLACK
6
CONTINUOUS
10
3.5111968897637795
20
-2.5247048818897637
11
3.5111969291338583
21
-2.5247049212598425
0
LINE
8
BLACK
6
CONTINUOUS
10
3.5111969291338583
20
-2.5247049212598425
11
3.5110985826771652
21
-2.5254517716535432
0
LINE
8
BLACK
6
CONTINUOUS
10
3.5110985826771652
20
-2.5254517716535432
11
3.4717285433070866
21
-2.5936427165354332
0
LINE
8
BLACK
6
CONTINUOUS
10
3.4717285433070866
20
-2.5936427165354332
11
3.4711309055118109
21
-2.5941013385826772
0
LINE
8
BLACK
6
CONTINUOUS
10
3.4711309055118109
20
-2.5941013385826772
11
3.4703840157480315
21
-2.5940029921259842
0
LINE
8
BLACK
6
CONTINUOUS
10
3.4703840157480315
20
-2.5940029921259842
11
3.470383937007874
21
-2.5940029133858267
0
LINE
8
BLACK
6
CONTINUOUS
10
3.470383937007874
20
-2.5940029133858267
11
3.4021930708661419
21
-2.5546329133858268
0
LINE
8
BLACK
6
CONTINUOUS
10
3.4021930708661419
20
-2.5546329133858268
11
3.4017344488188974
21
-2.5540352755905511
0
LINE
8
BLACK
6
CONTINUOUS
10
3.4017344488188974
20
-2.5540352755905511
11
3.4018327952755905
21
-2.5532883858267716
0
LINE
8
BLACK
6
CONTINUOUS
10
3.4018327952755905
20
-2.5532883858267716
11
3.4412028740157479
21
-2.4850974409448821
0
LINE
8
BLACK
6
CONTINUOUS
10
3.4412028740157479
20
-2.4850974409448821
11
3.4418005118110235
21
-2.4846388188976376
0
LINE
8
BLACK
6
CONTINUOUS
10
3.4418005118110235
20
-2.4846388188976376
11
3.442547401574803
21
-2.4847371653543306
0
LINE
8
BLACK
6
CONTINUOUS
10
3.442547401574803
20
-2.4847371653543306
11
3.4457699606299212
21
-2.4865977165354329
0
LINE
8
BLACK
6
CONTINUOUS
10
3.4457699606299212
20
-2.4865977165354329
11
3.4633962598425194
21
-2.4560681102362203
0
LINE
8
BLACK
6
CONTINUOUS
10
3.4633962598425194
20
-2.4560681102362203
11
3.4633962992125982
21
-2.4560680314960628
0
LINE
8
BLACK
6
CONTINUOUS
10
3.4633962992125982
20
-2.4560680314960628
11
3.4639939370078738
21
-2.4556094094488188
0
LINE
8
BLACK
6
CONTINUOUS
10
3.4639939370078738
20
-2.4556094094488188
11
3.4639939763779526
21
-2.4556094094488188
0
LINE
8
BLACK
6
CONTINUOUS
10
3.4639939763779526
20
-2.4556094094488188
11
3.4647408267716533
21
-2.4557077559055118
0
LINE
8
BLACK
6
CONTINUOUS
10
3.4040297244094488
20
-2.5534202362204725
11
3.4705158661417324
21
-2.591806023622047
0
LINE
8
BLACK
6
CONTINUOUS
10
3.4705158661417324
20
-2.591806023622047
11
3.5089016929133856
21
-2.5253198818897635
0
LINE
8
BLACK
6
CONTINUOUS
10
3.5089016929133856
20
-2.5253198818897635
11
3.4424155118110233
21
-2.4869340551181103
0
LINE
8
BLACK
6
CONTINUOUS
10
3.4424155118110233
20
-2.4869340551181103
11
3.4040297244094488
21
-2.5534202362204725
0
LINE
8
BLACK
6
CONTINUOUS
10
3.447482992125984
20
-2.4875677559055118
11
3.507831968503937
21
-2.5224102362204723
0
LINE
8
BLACK
6
CONTINUOUS
10
3.507831968503937
20
-2.5224102362204723
11
3.5249579527559054
21
-2.4927472047244095
0
LINE
8
BLACK
6
CONTINUOUS
10
3.5249579527559054
20
-2.4927472047244095
11
3.4646089370078741
21
-2.4579046850393702
0
LINE
8
BLACK
6
CONTINUOUS
10
3.4646089370078741
20
-2.4579046850393702
11
3.447482992125984
21
-2.4875677559055118
0
LINE
8
BLACK
6
CONTINUOUS
10
3.5370078740157478
20
-2.4076771653543307
11
3.5377038582677165
21
-2.4079654330708662
0
LINE
8
BLACK
6
CONTINUOUS
10
3.5377038582677165
20
-2.4079654330708662
11
3.5379921259842519
21
-2.4086614173228345
0
LINE
8
BLACK
6
CONTINUOUS
10
3.5379921259842519
20
-2.4086614173228345
11
3.5379921259842519
21
-2.4456692913385827
0
LINE
8
BLACK
6
CONTINUOUS
10
3.5379921259842519
20
-2.4456692913385827
11
3.5377038582677165
21
-2.4463652755905509
0
LINE
8
BLACK
6
CONTINUOUS
10
3.5377038582677165
20
-2.4463652755905509
11
3.5370078740157478
21
-2.4466535433070864
0
LINE
8
BLACK
6
CONTINUOUS
10
3.5370078740157478
20
-2.4466535433070864
11
3.4637795275590548
21
-2.4466535433070864
0
LINE
8
BLACK
6
CONTINUOUS
10
3.4637795275590548
20
-2.4466535433070864
11
3.4630835433070866
21
-2.4463652755905509
0
LINE
8
BLACK
6
CONTINUOUS
10
3.4630835433070866
20
-2.4463652755905509
11
3.4627952755905511
21
-2.4456692913385827
0
LINE
8
BLACK
6
CONTINUOUS
10
3.4627952755905511
20
-2.4456692913385827
11
3.4627952755905511
21
-2.4086614173228345
0
LINE
8
BLACK
6
CONTINUOUS
10
3.4627952755905511
20
-2.4086614173228345
11
3.4630835433070866
21
-2.4079654330708662
0
LINE
8
BLACK
6
CONTINUOUS
10
3.4630835433070866
20
-2.4079654330708662
11
3.4637795275590548
21
-2.4076771653543307
0
LINE
8
BLACK
6
CONTINUOUS
10
3.4637795275590548
20
-2.4076771653543307
11
3.5370078740157478
21
-2.4076771653543307
0
LINE
8
BLACK
6
CONTINUOUS
10
3.464763779527559
20
-2.4096456692913386
11
3.464763779527559
21
-2.4446850393700785
0
LINE
8
BLACK
6
CONTINUOUS
10
3.464763779527559
20
-2.4446850393700785
11
3.5360236220472441
21
-2.4446850393700785
0
LINE
8
BLACK
6
CONTINUOUS
10
3.5360236220472441
20
-2.4446850393700785
11
3.5360236220472441
21
-2.4096456692913386
0
LINE
8
BLACK
6
CONTINUOUS
10
3.5360236220472441
20
-2.4096456692913386
11
3.464763779527559
21
-2.4096456692913386
0
LINE
8
BLACK
6
CONTINUOUS
10
2.8346456692913384
20
-2.3218503937007875
11
2.8353416535433071
21
-2.3221386614173229
0
LINE
8
BLACK
6
CONTINUOUS
10
2.8353416535433071
20
-2.3221386614173229
11
2.8356299212598426
21
-2.3228346456692912
0
LINE
8
BLACK
6
CONTINUOUS
10
2.8356299212598426
20
-2.3228346456692912
11
2.8356299212598426
21
-2.401574803149606
0
LINE
8
BLACK
6
CONTINUOUS
10
2.8356299212598426
20
-2.401574803149606
11
2.8353416535433071
21
-2.4022707874015747
0
LINE
8
BLACK
6
CONTINUOUS
10
2.8353416535433071
20
-2.4022707874015747
11
2.8346456692913384
21
-2.4025590551181102
0
LINE
8
BLACK
6
CONTINUOUS
10
2.8346456692913384
20
-2.4025590551181102
11
2.8318420078740156
21
-2.4025590551181102
0
LINE
8
BLACK
6
CONTINUOUS
10
2.8318420078740156
20
-2.4025590551181102
11
2.8320866141732282
21
-2.4031496062992126
0
LINE
8
BLACK
6
CONTINUOUS
10
2.8320866141732282
20
-2.4031496062992126
11
2.8320866141732282
21
-2.4393700787401573
0
LINE
8
BLACK
6
CONTINUOUS
10
2.8320866141732282
20
-2.4393700787401573
11
2.8317983464566927
21
-2.440066062992126
0
LINE
8
BLACK
6
CONTINUOUS
10
2.8317983464566927
20
-2.440066062992126
11
2.8311023622047244
21
-2.4403543307086615
0
LINE
8
BLACK
6
CONTINUOUS
10
2.8311023622047244
20
-2.4403543307086615
11
2.7594488188976376
21
-2.4403543307086615
0
LINE
8
BLACK
6
CONTINUOUS
10
2.7594488188976376
20
-2.4403543307086615
11
2.7587528346456693
21
-2.440066062992126
0
LINE
8
BLACK
6
CONTINUOUS
10
2.7587528346456693
20
-2.440066062992126
11
2.7584645669291339
21
-2.4393700787401573
0
LINE
8
BLACK
6
CONTINUOUS
10
2.7584645669291339
20
-2.4393700787401573
11
2.7584645669291339
21
-2.4031496062992126
0
LINE
8
BLACK
6
CONTINUOUS
10
2.7584645669291339
20
-2.4031496062992126
11
2.7587091732283464
21
-2.4025590551181102
0
LINE
8
BLACK
6
CONTINUOUS
10
2.7587091732283464
20
-2.4025590551181102
11
2.7559055118110236
21
-2.4025590551181102
0
LINE
8
BLACK
6
CONTINUOUS
10
2.7559055118110236
20
-2.4025590551181102
11
2.7552095275590549
21
-2.4022707874015747
0
LINE
8
BLACK
6
CONTINUOUS
10
2.7552095275590549
20
-2.4022707874015747
11
2.7549212598425195
21
-2.401574803149606
0
LINE
8
BLACK
6
CONTINUOUS
10
2.7549212598425195
20
-2.401574803149606
11
2.7549212598425195
21
-2.3228346456692912
0
LINE
8
BLACK
6
CONTINUOUS
10
2.7549212598425195
20
-2.3228346456692912
11
2.7552095275590549
21
-2.3221386614173229
0
LINE
8
BLACK
6
CONTINUOUS
10
2.7552095275590549
20
-2.3221386614173229
11
2.7559055118110236
21
-2.3218503937007875
0
LINE
8
BLACK
6
CONTINUOUS
10
2.7559055118110236
20
-2.3218503937007875
11
2.8346456692913384
21
-2.3218503937007875
0
LINE
8
BLACK
6
CONTINUOUS
10
2.7604330708661418
20
-2.4041338582677163
11
2.7604330708661418
21
-2.4383858267716536
0
LINE
8
BLACK
6
CONTINUOUS
10
2.7604330708661418
20
-2.4383858267716536
11
2.8301181102362203
21
-2.4383858267716536
0
LINE
8
BLACK
6
CONTINUOUS
10
2.8301181102362203
20
-2.4383858267716536
11
2.8301181102362203
21
-2.4041338582677163
0
LINE
8
BLACK
6
CONTINUOUS
10
2.8301181102362203
20
-2.4041338582677163
11
2.7604330708661418
21
-2.4041338582677163
0
LINE
8
BLACK
6
CONTINUOUS
10
2.7568897637795273
20
-2.3238188976377954
11
2.7568897637795273
21
-2.4005905511811023
0
LINE
8
BLACK
6
CONTINUOUS
10
2.7568897637795273
20
-2.4005905511811023
11
2.8336614173228347
21
-2.4005905511811023
0
LINE
8
BLACK
6
CONTINUOUS
10
2.8336614173228347
20
-2.4005905511811023
11
2.8336614173228347
21
-2.3238188976377954
0
LINE
8
BLACK
6
CONTINUOUS
10
2.8336614173228347
20
-2.3238188976377954
11
2.7568897637795273
21
-2.3238188976377954
0
LINE
8
BLACK
6
CONTINUOUS
10
3.5456692913385828
20
-2.285236220472441
11
3.546365275590551
21
-2.2855244881889765
0
LINE
8
BLACK
6
CONTINUOUS
10
3.546365275590551
20
-2.2855244881889765
11
3.5466535433070865
21
-2.2862204724409447
0
LINE
8
BLACK
6
CONTINUOUS
10
3.5466535433070865
20
-2.2862204724409447
11
3.5466535433070865
21
-2.3224409448818899
0
LINE
8
BLACK
6
CONTINUOUS
10
3.5466535433070865
20
-2.3224409448818899
11
3.546365275590551
21
-2.3231369291338582
0
LINE
8
BLACK
6
CONTINUOUS
10
3.546365275590551
20
-2.3231369291338582
11
3.5456692913385828
21
-2.3234251968503936
0
LINE
8
BLACK
6
CONTINUOUS
10
3.5456692913385828
20
-2.3234251968503936
11
3.5442913385826769
21
-2.3234251968503936
0
LINE
8
BLACK
6
CONTINUOUS
10
3.5442913385826769
20
-2.3234251968503936
11
3.5442913385826769
21
-2.401574803149606
0
LINE
8
BLACK
6
CONTINUOUS
10
3.5442913385826769
20
-2.401574803149606
11
3.5440030708661419
21
-2.4022707874015747
0
LINE
8
BLACK
6
CONTINUOUS
10
3.5440030708661419
20
-2.4022707874015747
11
3.5433070866141732
21
-2.4025590551181102
0
LINE
8
BLACK
6
CONTINUOUS
10
3.5433070866141732
20
-2.4025590551181102
11
3.4645669291338583
21
-2.4025590551181102
0
LINE
8
BLACK
6
CONTINUOUS
10
3.4645669291338583
20
-2.4025590551181102
11
3.4638709448818896
21
-2.4022707874015747
0
LINE
8
BLACK
6
CONTINUOUS
10
3.4638709448818896
20
-2.4022707874015747
11
3.4635826771653542
21
-2.401574803149606
0
LINE
8
BLACK
6
CONTINUOUS
10
3.4635826771653542
20
-2.401574803149606
11
3.4635826771653542
21
-2.3228346456692912
0
LINE
8
BLACK
6
CONTINUOUS
10
3.4635826771653542
20
-2.3228346456692912
11
3.4638709448818896
21
-2.3221386614173229
0
LINE
8
BLACK
6
CONTINUOUS
10
3.4638709448818896
20
-2.3221386614173229
11
3.4645669291338583
21
-2.3218503937007875
0
LINE
8
BLACK
6
CONTINUOUS
10
3.4645669291338583
20
-2.3218503937007875
11
3.4730314960629922
21
-2.3218503937007875
0
LINE
8
BLACK
6
CONTINUOUS
10
3.4730314960629922
20
-2.3218503937007875
11
3.4730314960629922
21
-2.2862204724409447
0
LINE
8
BLACK
6
CONTINUOUS
10
3.4730314960629922
20
-2.2862204724409447
11
3.4733197637795277
21
-2.2855244881889765
0
LINE
8
BLACK
6
CONTINUOUS
10
3.4733197637795277
20
-2.2855244881889765
11
3.4740157480314959
21
-2.285236220472441
0
LINE
8
BLACK
6
CONTINUOUS
10
3.4740157480314959
20
-2.285236220472441
11
3.5456692913385828
21
-2.285236220472441
0
LINE
8
BLACK
6
CONTINUOUS
10
3.465551181102362
20
-2.3238188976377954
11
3.465551181102362
21
-2.4005905511811023
0
LINE
8
BLACK
6
CONTINUOUS
10
3.465551181102362
20
-2.4005905511811023
11
3.542322834645669
21
-2.4005905511811023
0
LINE
8
BLACK
6
CONTINUOUS
10
3.542322834645669
20
-2.4005905511811023
11
3.542322834645669
21
-2.3238188976377954
0
LINE
8
BLACK
6
CONTINUOUS
10
3.542322834645669
20
-2.3238188976377954
11
3.465551181102362
21
-2.3238188976377954
0
LINE
8
BLACK
6
CONTINUOUS
10
3.4750000000000001
20
-2.2872047244094489
11
3.4750000000000001
21
-2.3214566929133857
0
LINE
8
BLACK
6
CONTINUOUS
10
3.4750000000000001
20
-2.3214566929133857
11
3.5446850393700786
21
-2.3214566929133857
0
LINE
8
BLACK
6
CONTINUOUS
10
3.5446850393700786
20
-2.3214566929133857
11
3.5446850393700786
21
-2.2872047244094489
0
LINE
8
BLACK
6
CONTINUOUS
10
3.5446850393700786
20
-2.2872047244094489
11
3.4750000000000001
21
-2.2872047244094489
0
LINE
8
BLACK
6
CONTINUOUS
10
2.7233249606299212
20
-2.3324579133858268
11
2.7297740157480312
21
-2.3347145275590551
0
LINE
8
BLACK
6
CONTINUOUS
10
2.7297740157480312
20
-2.3347145275590551
11
2.7355592519685037
21
-2.3383496456692914
0
LINE
8
BLACK
6
CONTINUOUS
10
2.7355592519685037
20
-2.3383496456692914
11
2.7403905118110234
21
-2.3431809055118111
0
LINE
8
BLACK
6
CONTINUOUS
10
2.7403905118110234
20
-2.3431809055118111
11
2.7440256299212598
21
-2.3489661417322836
0
LINE
8
BLACK
6
CONTINUOUS
10
2.7440256299212598
20
-2.3489661417322836
11
2.7462822440944881
21
-2.3554151968503936
0
LINE
8
BLACK
6
CONTINUOUS
10
2.7462822440944881
20
-2.3554151968503936
11
2.747047244094488
21
-2.3622047244094486
0
LINE
8
BLACK
6
CONTINUOUS
10
2.747047244094488
20
-2.3622047244094486
11
2.7462822440944881
21
-2.3689942519685037
0
LINE
8
BLACK
6
CONTINUOUS
10
2.7462822440944881
20
-2.3689942519685037
11
2.7440256299212598
21
-2.3754433070866141
0
LINE
8
BLACK
6
CONTINUOUS
10
2.7440256299212598
20
-2.3754433070866141
11
2.7403905118110234
21
-2.3812285433070866
0
LINE
8
BLACK
6
CONTINUOUS
10
2.7403905118110234
20
-2.3812285433070866
11
2.7355592519685037
21
-2.3860598031496063
0
LINE
8
BLACK
6
CONTINUOUS
10
2.7355592519685037
20
-2.3860598031496063
11
2.7297740157480312
21
-2.3896949212598426
0
LINE
8
BLACK
6
CONTINUOUS
10
2.7297740157480312
20
-2.3896949212598426
11
2.7233249606299212
21
-2.3919515354330709
0
LINE
8
BLACK
6
CONTINUOUS
10
2.7233249606299212
20
-2.3919515354330709
11
2.7165354330708662
21
-2.3927165354330708
0
LINE
8
BLACK
6
CONTINUOUS
10
2.7165354330708662
20
-2.3927165354330708
11
2.7097459055118112
21
-2.3919515354330709
0
LINE
8
BLACK
6
CONTINUOUS
10
2.7097459055118112
20
-2.3919515354330709
11
2.7032968503937007
21
-2.3896949212598426
0
LINE
8
BLACK
6
CONTINUOUS
10
2.7032968503937007
20
-2.3896949212598426
11
2.6975116141732283
21
-2.3860598031496063
0
LINE
8
BLACK
6
CONTINUOUS
10
2.6975116141732283
20
-2.3860598031496063
11
2.6926803543307085
21
-2.3812285433070866
0
LINE
8
BLACK
6
CONTINUOUS
10
2.6926803543307085
20
-2.3812285433070866
11
2.6890452362204722
21
-2.3754433070866141
0
LINE
8
BLACK
6
CONTINUOUS
10
2.6890452362204722
20
-2.3754433070866141
11
2.6867886220472439
21
-2.3689942519685037
0
LINE
8
BLACK
6
CONTINUOUS
10
2.6867886220472439
20
-2.3689942519685037
11
2.686023622047244
21
-2.3622047244094486
0
LINE
8
BLACK
6
CONTINUOUS
10
2.686023622047244
20
-2.3622047244094486
11
2.6867886220472439
21
-2.3554151968503936
0
LINE
8
BLACK
6
CONTINUOUS
10
2.6867886220472439
20
-2.3554151968503936
11
2.6890452362204722
21
-2.3489661417322836
0
LINE
8
BLACK
6
CONTINUOUS
10
2.6890452362204722
20
-2.3489661417322836
11
2.6926803543307085
21
-2.3431809055118111
0
LINE
8
BLACK
6
CONTINUOUS
10
2.6926803543307085
20
-2.3431809055118111
11
2.6975116141732283
21
-2.3383496456692914
0
LINE
8
BLACK
6
CONTINUOUS
10
2.6975116141732283
20
-2.3383496456692914
11
2.7032968503937007
21
-2.3347145275590551
0
LINE
8
BLACK
6
CONTINUOUS
10
2.7032968503937007
20
-2.3347145275590551
11
2.7097459055118112
21
-2.3324579133858268
0
LINE
8
BLACK
6
CONTINUOUS
10
2.7097459055118112
20
-2.3324579133858268
11
2.7165354330708662
21
-2.3316929133858268
0
LINE
8
BLACK
6
CONTINUOUS
10
2.7165354330708662
20
-2.3316929133858268
11
2.7233249606299212
21
-2.3324579133858268
0
LINE
8
BLACK
6
CONTINUOUS
10
2.6885316929133856
20
-2.3685963779527559
11
2.6906561023622046
21
-2.3746675590551178
0
LINE
8
BLACK
6
CONTINUOUS
10
2.6906561023622046
20
-2.3746675590551178
11
2.6940781889763779
21
-2.3801137795275591
0
LINE
8
BLACK
6
CONTINUOUS
10
2.6940781889763779
20
-2.3801137795275591
11
2.6986263779527557
21
-2.384661968503937
0
LINE
8
BLACK
6
CONTINUOUS
10
2.6986263779527557
20
-2.384661968503937
11
2.704072598425197
21
-2.3880840551181102
0
LINE
8
BLACK
6
CONTINUOUS
10
2.704072598425197
20
-2.3880840551181102
11
2.7101437795275589
21
-2.3902084645669293
0
LINE
8
BLACK
6
CONTINUOUS
10
2.7101437795275589
20
-2.3902084645669293
11
2.7165354330708662
21
-2.3909286220472441
0
LINE
8
BLACK
6
CONTINUOUS
10
2.7165354330708662
20
-2.3909286220472441
11
2.722927086614173
21
-2.3902084645669293
0
LINE
8
BLACK
6
CONTINUOUS
10
2.722927086614173
20
-2.3902084645669293
11
2.7289982677165354
21
-2.3880840551181102
0
LINE
8
BLACK
6
CONTINUOUS
10
2.7289982677165354
20
-2.3880840551181102
11
2.7344444881889762
21
-2.384661968503937
0
LINE
8
BLACK
6
CONTINUOUS
10
2.7344444881889762
20
-2.384661968503937
11
2.7389926771653541
21
-2.3801137795275591
0
LINE
8
BLACK
6
CONTINUOUS
10
2.7389926771653541
20
-2.3801137795275591
11
2.7424147637795273
21
-2.3746675590551178
0
LINE
8
BLACK
6
CONTINUOUS
10
2.7424147637795273
20
-2.3746675590551178
11
2.7445391732283464
21
-2.3685963779527559
0
LINE
8
BLACK
6
CONTINUOUS
10
2.7445391732283464
20
-2.3685963779527559
11
2.7452593307086612
21
-2.3622047244094486
0
LINE
8
BLACK
6
CONTINUOUS
10
2.7452593307086612
20
-2.3622047244094486
11
2.7445391732283464
21
-2.3558130708661418
0
LINE
8
BLACK
6
CONTINUOUS
10
2.7445391732283464
20
-2.3558130708661418
11
2.7424147637795273
21
-2.3497418897637794
0
LINE
8
BLACK
6
CONTINUOUS
10
2.7424147637795273
20
-2.3497418897637794
11
2.7389926771653541
21
-2.3442956692913386
0
LINE
8
BLACK
6
CONTINUOUS
10
2.7389926771653541
20
-2.3442956692913386
11
2.7344444881889762
21
-2.3397474803149607
0
LINE
8
BLACK
6
CONTINUOUS
10
2.7344444881889762
20
-2.3397474803149607
11
2.7289982677165354
21
-2.3363253937007875
0
LINE
8
BLACK
6
CONTINUOUS
10
2.7289982677165354
20
-2.3363253937007875
11
2.722927086614173
21
-2.3342009842519684
0
LINE
8
BLACK
6
CONTINUOUS
10
2.722927086614173
20
-2.3342009842519684
11
2.7165354330708662
21
-2.3334808267716536
0
LINE
8
BLACK
6
CONTINUOUS
10
2.7165354330708662
20
-2.3334808267716536
11
2.7101437795275589
21
-2.3342009842519684
0
LINE
8
BLACK
6
CONTINUOUS
10
2.7101437795275589
20
-2.3342009842519684
11
2.704072598425197
21
-2.3363253937007875
0
LINE
8
BLACK
6
CONTINUOUS
10
2.704072598425197
20
-2.3363253937007875
11
2.6986263779527557
21
-2.3397474803149607
0
LINE
8
BLACK
6
CONTINUOUS
10
2.6986263779527557
20
-2.3397474803149607
11
2.6940781889763779
21
-2.3442956692913386
0
LINE
8
BLACK
6
CONTINUOUS
10
2.6940781889763779
20
-2.3442956692913386
11
2.6906561023622046
21
-2.3497418897637794
0
LINE
8
BLACK
6
CONTINUOUS
10
2.6906561023622046
20
-2.3497418897637794
11
2.6885316929133856
21
-2.3558130708661418
0
LINE
8
BLACK
6
CONTINUOUS
10
2.6885316929133856
20
-2.3558130708661418
11
2.6878115354330707
21
-2.3622047244094486
0
LINE
8
BLACK
6
CONTINUOUS
10
2.6878115354330707
20
-2.3622047244094486
11
2.6885316929133856
21
-2.3685963779527559
0
LINE
8
BLACK
6
CONTINUOUS
10
3.5090551181102363
20
-2.2194881889763778
11
3.5097511023622046
21
-2.2197764566929132
0
LINE
8
BLACK
6
CONTINUOUS
10
3.5097511023622046
20
-2.2197764566929132
11
3.51003937007874
21
-2.2204724409448819
0
LINE
8
BLACK
6
CONTINUOUS
10
3.51003937007874
20
-2.2204724409448819
11
3.51003937007874
21
-2.2273622047244093
0
LINE
8
BLACK
6
CONTINUOUS
10
3.51003937007874
20
-2.2273622047244093
11
3.515748031496063
21
-2.2273622047244093
0
LINE
8
BLACK
6
CONTINUOUS
10
3.515748031496063
20
-2.2273622047244093
11
3.5164440157480312
21
-2.2276504724409447
0
LINE
8
BLACK
6
CONTINUOUS
10
3.5164440157480312
20
-2.2276504724409447
11
3.5167322834645667
21
-2.2283464566929134
0
LINE
8
BLACK
6
CONTINUOUS
10
3.5167322834645667
20
-2.2283464566929134
11
3.5167322834645667
21
-2.2716535433070866
0
LINE
8
BLACK
6
CONTINUOUS
10
3.5167322834645667
20
-2.2716535433070866
11
3.5164440157480312
21
-2.2723495275590553
0
LINE
8
BLACK
6
CONTINUOUS
10
3.5164440157480312
20
-2.2723495275590553
11
3.515748031496063
21
-2.2726377952755903
0
LINE
8
BLACK
6
CONTINUOUS
10
3.515748031496063
20
-2.2726377952755903
11
3.51003937007874
21
-2.2726377952755903
0
LINE
8
BLACK
6
CONTINUOUS
10
3.51003937007874
20
-2.2726377952755903
11
3.51003937007874
21
-2.2795275590551181
0
LINE
8
BLACK
6
CONTINUOUS
10
3.51003937007874
20
-2.2795275590551181
11
3.5097511023622046
21
-2.2802235433070868
0
LINE
8
BLACK
6
CONTINUOUS
10
3.5097511023622046
20
-2.2802235433070868
11
3.5090551181102363
21
-2.2805118110236222
0
LINE
8
BLACK
6
CONTINUOUS
10
3.5090551181102363
20
-2.2805118110236222
11
3.487007874015748
21
-2.2805118110236222
0
LINE
8
BLACK
6
CONTINUOUS
10
3.487007874015748
20
-2.2805118110236222
11
3.4863118897637793
21
-2.2802235433070868
0
LINE
8
BLACK
6
CONTINUOUS
10
3.4863118897637793
20
-2.2802235433070868
11
3.4860236220472438
21
-2.2795275590551181
0
LINE
8
BLACK
6
CONTINUOUS
10
3.4860236220472438
20
-2.2795275590551181
11
3.4860236220472438
21
-2.2726377952755903
0
LINE
8
BLACK
6
CONTINUOUS
10
3.4860236220472438
20
-2.2726377952755903
11
3.4803149606299213
21
-2.2726377952755903
0
LINE
8
BLACK
6
CONTINUOUS
10
3.4803149606299213
20
-2.2726377952755903
11
3.4796189763779526
21
-2.2723495275590553
0
LINE
8
BLACK
6
CONTINUOUS
10
3.4796189763779526
20
-2.2723495275590553
11
3.4793307086614171
21
-2.2716535433070866
0
LINE
8
BLACK
6
CONTINUOUS
10
3.4793307086614171
20
-2.2716535433070866
11
3.4793307086614171
21
-2.2283464566929134
0
LINE
8
BLACK
6
CONTINUOUS
10
3.4793307086614171
20
-2.2283464566929134
11
3.4796189763779526
21
-2.2276504724409447
0
LINE
8
BLACK
6
CONTINUOUS
10
3.4796189763779526
20
-2.2276504724409447
11
3.4803149606299213
21
-2.2273622047244093
0
LINE
8
BLACK
6
CONTINUOUS
10
3.4803149606299213
20
-2.2273622047244093
11
3.4860236220472438
21
-2.2273622047244093
0
LINE
8
BLACK
6
CONTINUOUS
10
3.4860236220472438
20
-2.2273622047244093
11
3.4860236220472438
21
-2.2204724409448819
0
LINE
8
BLACK
6
CONTINUOUS
10
3.4860236220472438
20
-2.2204724409448819
11
3.4863118897637793
21
-2.2197764566929132
0
LINE
8
BLACK
6
CONTINUOUS
10
3.4863118897637793
20
-2.2197764566929132
11
3.487007874015748
21
-2.2194881889763778
0
LINE
8
BLACK
6
CONTINUOUS
10
3.487007874015748
20
-2.2194881889763778
11
3.5090551181102363
21
-2.2194881889763778
0
LINE
8
BLACK
6
CONTINUOUS
10
3.4879921259842517
20
-2.2214566929133857
11
3.4879921259842517
21
-2.2283464566929134
0
LINE
8
BLACK
6
CONTINUOUS
10
3.4879921259842517
20
-2.2283464566929134
11
3.4877038582677167
21
-2.2290424409448817
0
LINE
8
BLACK
6
CONTINUOUS
10
3.4877038582677167
20
-2.2290424409448817
11
3.487007874015748
21
-2.2293307086614171
0
LINE
8
BLACK
6
CONTINUOUS
10
3.487007874015748
20
-2.2293307086614171
11
3.481299212598425
21
-2.2293307086614171
0
LINE
8
BLACK
6
CONTINUOUS
10
3.481299212598425
20
-2.2293307086614171
11
3.481299212598425
21
-2.2706692913385824
0
LINE
8
BLACK
6
CONTINUOUS
10
3.481299212598425
20
-2.2706692913385824
11
3.487007874015748
21
-2.2706692913385824
0
LINE
8
BLACK
6
CONTINUOUS
10
3.487007874015748
20
-2.2706692913385824
11
3.4877038582677167
21
-2.2709575590551179
0
LINE
8
BLACK
6
CONTINUOUS
10
3.4877038582677167
20
-2.2709575590551179
11
3.4879921259842517
21
-2.2716535433070866
0
LINE
8
BLACK
6
CONTINUOUS
10
3.4879921259842517
20
-2.2716535433070866
11
3.4879921259842517
21
-2.2785433070866139
0
LINE
8
BLACK
6
CONTINUOUS
10
3.4879921259842517
20
-2.2785433070866139
11
3.5080708661417321
21
-2.2785433070866139
0
LINE
8
BLACK
6
CONTINUOUS
10
3.5080708661417321
20
-2.2785433070866139
11
3.5080708661417321
21
-2.2716535433070866
0
LINE
8
BLACK
6
CONTINUOUS
10
3.5080708661417321
20
-2.2716535433070866
11
3.5083591338582676
21
-2.2709575590551179
0
LINE
8
BLACK
6
CONTINUOUS
10
3.5083591338582676
20
-2.2709575590551179
11
3.5090551181102363
21
-2.2706692913385824
0
LINE
8
BLACK
6
CONTINUOUS
10
3.5090551181102363
20
-2.2706692913385824
11
3.5147637795275588
21
-2.2706692913385824
0
LINE
8
BLACK
6
CONTINUOUS
10
3.5147637795275588
20
-2.2706692913385824
11
3.5147637795275588
21
-2.2293307086614171
0
LINE
8
BLACK
6
CONTINUOUS
10
3.5147637795275588
20
-2.2293307086614171
11
3.5090551181102363
21
-2.2293307086614171
0
LINE
8
BLACK
6
CONTINUOUS
10
3.5090551181102363
20
-2.2293307086614171
11
3.5083591338582676
21
-2.2290424409448817
0
LINE
8
BLACK
6
CONTINUOUS
10
3.5083591338582676
20
-2.2290424409448817
11
3.5080708661417321
21
-2.2283464566929134
0
LINE
8
BLACK
6
CONTINUOUS
10
3.5080708661417321
20
-2.2283464566929134
11
3.5080708661417321
21
-2.2214566929133857
0
LINE
8
BLACK
6
CONTINUOUS
10
3.5080708661417321
20
-2.2214566929133857
11
3.4879921259842517
21
-2.2214566929133857
0
LINE
8
BLACK
6
CONTINUOUS
10
2.8288285826771653
20
-2.1304064566929135
11
2.8970195275590549
21
-2.1697765354330709
0
LINE
8
BLACK
6
CONTINUOUS
10
2.8970195275590549
20
-2.1697765354330709
11
2.8974781102362206
21
-2.1703741732283466
0
LINE
8
BLACK
6
CONTINUOUS
10
2.8974781102362206
20
-2.1703741732283466
11
2.8974780708661418
21
-2.1703741732283466
0
LINE
8
BLACK
6
CONTINUOUS
10
2.8974780708661418
20
-2.1703741732283466
11
2.8974781102362206
21
-2.1703742125984253
0
LINE
8
BLACK
6
CONTINUOUS
10
2.8974781102362206
20
-2.1703742125984253
11
2.8973797637795276
21
-2.171121062992126
0
LINE
8
BLACK
6
CONTINUOUS
10
2.8973797637795276
20
-2.171121062992126
11
2.8580097244094489
21
-2.2393120078740156
0
LINE
8
BLACK
6
CONTINUOUS
10
2.8580097244094489
20
-2.2393120078740156
11
2.8574120866141732
21
-2.2397706299212596
0
LINE
8
BLACK
6
CONTINUOUS
10
2.8574120866141732
20
-2.2397706299212596
11
2.8566651968503938
21
-2.239672283464567
0
LINE
8
BLACK
6
CONTINUOUS
10
2.8566651968503938
20
-2.239672283464567
11
2.8566651181102363
21
-2.2396722047244095
0
LINE
8
BLACK
6
CONTINUOUS
10
2.8566651181102363
20
-2.2396722047244095
11
2.855771377952756
21
-2.2391561811023624
0
LINE
8
BLACK
6
CONTINUOUS
10
2.855771377952756
20
-2.2391561811023624
11
2.837784803149606
21
-2.2703099212598423
0
LINE
8
BLACK
6
CONTINUOUS
10
2.837784803149606
20
-2.2703099212598423
11
2.8371871653543308
21
-2.2707685433070868
0
LINE
8
BLACK
6
CONTINUOUS
10
2.8371871653543308
20
-2.2707685433070868
11
2.8364402755905509
21
-2.2706701968503937
0
LINE
8
BLACK
6
CONTINUOUS
10
2.8364402755905509
20
-2.2706701968503937
11
2.7743864960629923
21
-2.2348434251968503
0
LINE
8
BLACK
6
CONTINUOUS
10
2.7743864960629923
20
-2.2348434251968503
11
2.7739278740157478
21
-2.2342457874015746
0
LINE
8
BLACK
6
CONTINUOUS
10
2.7739278740157478
20
-2.2342457874015746
11
2.7740262204724409
21
-2.2334988976377952
0
LINE
8
BLACK
6
CONTINUOUS
10
2.7740262204724409
20
-2.2334988976377952
11
2.7920128346456692
21
-2.2023451968503935
0
LINE
8
BLACK
6
CONTINUOUS
10
2.7920128346456692
20
-2.2023451968503935
11
2.7884742519685037
21
-2.2003022047244092
0
LINE
8
BLACK
6
CONTINUOUS
10
2.7884742519685037
20
-2.2003022047244092
11
2.7880156299212597
21
-2.199704566929134
0
LINE
8
BLACK
6
CONTINUOUS
10
2.7880156299212597
20
-2.199704566929134
11
2.7881139763779528
21
-2.1989576771653541
0
LINE
8
BLACK
6
CONTINUOUS
10
2.7881139763779528
20
-2.1989576771653541
11
2.8274840551181102
21
-2.1307667322834645
0
LINE
8
BLACK
6
CONTINUOUS
10
2.8274840551181102
20
-2.1307667322834645
11
2.8280816929133858
21
-2.1303081102362205
0
LINE
8
BLACK
6
CONTINUOUS
10
2.8280816929133858
20
-2.1303081102362205
11
2.8288285826771653
21
-2.1304064566929135
0
LINE
8
BLACK
6
CONTINUOUS
10
2.7762231496062992
20
-2.2336307480314961
11
2.8365721259842518
21
-2.2684732283464566
0
LINE
8
BLACK
6
CONTINUOUS
10
2.8365721259842518
20
-2.2684732283464566
11
2.8536981102362202
21
-2.2388101968503937
0
LINE
8
BLACK
6
CONTINUOUS
10
2.8536981102362202
20
-2.2388101968503937
11
2.7933490944881889
21
-2.2039676771653545
0
LINE
8
BLACK
6
CONTINUOUS
10
2.7933490944881889
20
-2.2039676771653545
11
2.7762231496062992
21
-2.2336307480314961
0
LINE
8
BLACK
6
CONTINUOUS
10
2.7903109055118112
20
-2.199089527559055
11
2.8567970472440942
21
-2.2374753149606299
0
LINE
8
BLACK
6
CONTINUOUS
10
2.8567970472440942
20
-2.2374753149606299
11
2.8951828740157479
21
-2.1709891732283464
0
LINE
8
BLACK
6
CONTINUOUS
10
2.8951828740157479
20
-2.1709891732283464
11
2.8286966929133857
21
-2.1326033464566927
0
LINE
8
BLACK
6
CONTINUOUS
10
2.8286966929133857
20
-2.1326033464566927
11
2.7903109055118112
21
-2.199089527559055
0
LINE
8
BLACK
6
CONTINUOUS
10
3.4480210236220472
20
-2.1017373228346456
11
3.4660258661417322
21
-2.1329226377952755
0
LINE
8
BLACK
6
CONTINUOUS
10
3.4660258661417322
20
-2.1329226377952755
11
3.470383937007874
21
-2.1304064960629923
0
LINE
8
BLACK
6
CONTINUOUS
10
3.470383937007874
20
-2.1304064960629923
11
3.4703840157480315
21
-2.1304064566929135
0
LINE
8
BLACK
6
CONTINUOUS
10
3.4703840157480315
20
-2.1304064566929135
11
3.4711309055118109
21
-2.1303081102362205
0
LINE
8
BLACK
6
CONTINUOUS
10
3.4711309055118109
20
-2.1303081102362205
11
3.4717285433070866
21
-2.1307667322834645
0
LINE
8
BLACK
6
CONTINUOUS
10
3.4717285433070866
20
-2.1307667322834645
11
3.5110985826771652
21
-2.1989576771653541
0
LINE
8
BLACK
6
CONTINUOUS
10
3.5110985826771652
20
-2.1989576771653541
11
3.5111969291338583
21
-2.199704566929134
0
LINE
8
BLACK
6
CONTINUOUS
10
3.5111969291338583
20
-2.199704566929134
11
3.510738346456693
21
-2.2003022047244092
0
LINE
8
BLACK
6
CONTINUOUS
10
3.510738346456693
20
-2.2003022047244092
11
3.442547401574803
21
-2.239672283464567
0
LINE
8
BLACK
6
CONTINUOUS
10
3.442547401574803
20
-2.239672283464567
11
3.4418005118110235
21
-2.2397706299212596
0
LINE
8
BLACK
6
CONTINUOUS
10
3.4418005118110235
20
-2.2397706299212596
11
3.4412028740157479
21
-2.2393120078740156
0
LINE
8
BLACK
6
CONTINUOUS
10
3.4412028740157479
20
-2.2393120078740156
11
3.4018327952755905
21
-2.171121062992126
0
LINE
8
BLACK
6
CONTINUOUS
10
3.4018327952755905
20
-2.171121062992126
11
3.4017344488188974
21
-2.1703741732283466
0
LINE
8
BLACK
6
CONTINUOUS
10
3.4017344488188974
20
-2.1703741732283466
11
3.4021930708661419
21
-2.1697765354330709
0
LINE
8
BLACK
6
CONTINUOUS
10
3.4021930708661419
20
-2.1697765354330709
11
3.4022672834645666
21
-2.1697336614173226
0
LINE
8
BLACK
6
CONTINUOUS
10
3.4022672834645666
20
-2.1697336614173226
11
3.3842624409448816
21
-2.1385483464566928
0
LINE
8
BLACK
6
CONTINUOUS
10
3.3842624409448816
20
-2.1385483464566928
11
3.384164094488189
21
-2.1378014566929133
0
LINE
8
BLACK
6
CONTINUOUS
10
3.384164094488189
20
-2.1378014566929133
11
3.384622716535433
21
-2.1372038188976377
0
LINE
8
BLACK
6
CONTINUOUS
10
3.384622716535433
20
-2.1372038188976377
11
3.4466764960629921
21
-2.1013770472440942
0
LINE
8
BLACK
6
CONTINUOUS
10
3.4466764960629921
20
-2.1013770472440942
11
3.4474233858267715
21
-2.1012787007874016
0
LINE
8
BLACK
6
CONTINUOUS
10
3.4474233858267715
20
-2.1012787007874016
11
3.4480210236220472
21
-2.1017373228346456
0
LINE
8
BLACK
6
CONTINUOUS
10
3.4040297244094488
20
-2.1709891732283464
11
3.4424155118110233
21
-2.2374753543307087
0
LINE
8
BLACK
6
CONTINUOUS
10
3.4424155118110233
20
-2.2374753543307087
11
3.5089016929133856
21
-2.199089527559055
0
LINE
8
BLACK
6
CONTINUOUS
10
3.5089016929133856
20
-2.199089527559055
11
3.4705158661417324
21
-2.1326033858267714
0
LINE
8
BLACK
6
CONTINUOUS
10
3.4705158661417324
20
-2.1326033858267714
11
3.4040297244094488
21
-2.1709891732283464
0
LINE
8
BLACK
6
CONTINUOUS
10
3.38645937007874
20
-2.1384164566929131
11
3.4035853149606297
21
-2.1680795275590552
0
LINE
8
BLACK
6
CONTINUOUS
10
3.4035853149606297
20
-2.1680795275590552
11
3.4639343307086614
21
-2.1332370078740155
0
LINE
8
BLACK
6
CONTINUOUS
10
3.4639343307086614
20
-2.1332370078740155
11
3.446808346456693
21
-2.1035739763779526
0
LINE
8
BLACK
6
CONTINUOUS
10
3.446808346456693
20
-2.1035739763779526
11
3.38645937007874
21
-2.1384164566929131
0
LINE
8
BLACK
6
CONTINUOUS
10
2.9877037795275592
20
-2.0010726771653542
11
3.0270738188976378
21
-2.0692636220472442
0
LINE
8
BLACK
6
CONTINUOUS
10
3.0270738188976378
20
-2.0692636220472442
11
3.0271721653543304
21
-2.0700105118110237
0
LINE
8
BLACK
6
CONTINUOUS
10
3.0271721653543304
20
-2.0700105118110237
11
3.0267135826771652
21
-2.0706081496062994
0
LINE
8
BLACK
6
CONTINUOUS
10
3.0267135826771652
20
-2.0706081496062994
11
2.9585226377952756
21
-2.1099782283464568
0
LINE
8
BLACK
6
CONTINUOUS
10
2.9585226377952756
20
-2.1099782283464568
11
2.9577757480314961
21
-2.1100765748031494
0
LINE
8
BLACK
6
CONTINUOUS
10
2.9577757480314961
20
-2.1100765748031494
11
2.9571781102362205
21
-2.1096179527559054
0
LINE
8
BLACK
6
CONTINUOUS
10
2.9571781102362205
20
-2.1096179527559054
11
2.9552921653543307
21
-2.1063514173228346
0
LINE
8
BLACK
6
CONTINUOUS
10
2.9552921653543307
20
-2.1063514173228346
11
2.9549555905511808
21
-2.1067900393700785
0
LINE
8
BLACK
6
CONTINUOUS
10
2.9549555905511808
20
-2.1067900393700785
11
2.954955472440945
21
-2.1067900393700785
0
LINE
8
BLACK
6
CONTINUOUS
10
2.954955472440945
20
-2.1067900393700785
11
2.9235877165354331
21
-2.1249002755905511
0
LINE
8
BLACK
6
CONTINUOUS
10
2.9235877165354331
20
-2.1249002755905511
11
2.922840866141732
21
-2.1249986220472441
0
LINE
8
BLACK
6
CONTINUOUS
10
2.922840866141732
20
-2.1249986220472441
11
2.9228408267716537
21
-2.1249985826771653
0
LINE
8
BLACK
6
CONTINUOUS
10
2.9228408267716537
20
-2.1249985826771653
11
2.9228408267716537
21
-2.1249986220472441
0
LINE
8
BLACK
6
CONTINUOUS
10
2.9228408267716537
20
-2.1249986220472441
11
2.922243188976378
21
-2.1245400000000001
0
LINE
8
BLACK
6
CONTINUOUS
10
2.922243188976378
20
-2.1245400000000001
11
2.8864164173228346
21
-2.062486220472441
0
LINE
8
BLACK
6
CONTINUOUS
10
2.8864164173228346
20
-2.062486220472441
11
2.8863180708661416
21
-2.0617393307086616
0
LINE
8
BLACK
6
CONTINUOUS
10
2.8863180708661416
20
-2.0617393307086616
11
2.8867766929133856
21
-2.0611416929133859
0
LINE
8
BLACK
6
CONTINUOUS
10
2.8867766929133856
20
-2.0611416929133859
11
2.9181445669291337
21
-2.0430314566929133
0
LINE
8
BLACK
6
CONTINUOUS
10
2.9181445669291337
20
-2.0430314566929133
11
2.9186926771653541
21
-2.042959251968504
0
LINE
8
BLACK
6
CONTINUOUS
10
2.9186926771653541
20
-2.042959251968504
11
2.917808031496063
21
-2.0414270078740158
0
LINE
8
BLACK
6
CONTINUOUS
10
2.917808031496063
20
-2.0414270078740158
11
2.91770968503937
21
-2.0406801181102363
0
LINE
8
BLACK
6
CONTINUOUS
10
2.91770968503937
20
-2.0406801181102363
11
2.918168307086614
21
-2.0400824803149606
0
LINE
8
BLACK
6
CONTINUOUS
10
2.918168307086614
20
-2.0400824803149606
11
2.9863591732283465
21
-2.000712440944882
0
LINE
8
BLACK
6
CONTINUOUS
10
2.9863591732283465
20
-2.000712440944882
11
2.986359251968504
21
-2.0007124015748032
0
LINE
8
BLACK
6
CONTINUOUS
10
2.986359251968504
20
-2.0007124015748032
11
2.9871061417322835
21
-2.0006140551181102
0
LINE
8
BLACK
6
CONTINUOUS
10
2.9871061417322835
20
-2.0006140551181102
11
2.9877037795275592
21
-2.0010726771653542
0
LINE
8
BLACK
6
CONTINUOUS
10
2.888613346456693
20
-2.0623543307086614
11
2.9234558267716535
21
-2.1227033070866139
0
LINE
8
BLACK
6
CONTINUOUS
10
2.9234558267716535
20
-2.1227033070866139
11
2.9531188976377951
21
-2.1055773622047242
0
LINE
8
BLACK
6
CONTINUOUS
10
2.9531188976377951
20
-2.1055773622047242
11
2.9182763779527559
21
-2.0452283464566929
0
LINE
8
BLACK
6
CONTINUOUS
10
2.9182763779527559
20
-2.0452283464566929
11
2.888613346456693
21
-2.0623543307086614
0
LINE
8
BLACK
6
CONTINUOUS
10
2.920004960629921
20
-2.0412951181102361
11
2.9583907480314959
21
-2.1077812992125984
0
LINE
8
BLACK
6
CONTINUOUS
10
2.9583907480314959
20
-2.1077812992125984
11
3.0248769291338582
21
-2.0693954724409447
0
LINE
8
BLACK
6
CONTINUOUS
10
3.0248769291338582
20
-2.0693954724409447
11
2.9864911023622045
21
-2.0029093307086612
0
LINE
8
BLACK
6
CONTINUOUS
10
2.9864911023622045
20
-2.0029093307086612
11
2.920004960629921
21
-2.0412951181102361
0
LINE
8
BLACK
6
CONTINUOUS
10
3.278312125984252
20
-1.9866246456692913
11
3.3094657874015749
21
-2.0046112598425196
0
LINE
8
BLACK
6
CONTINUOUS
10
3.3094657874015749
20
-2.0046112598425196
11
3.3115088188976376
21
-2.0010726771653542
0
LINE
8
BLACK
6
CONTINUOUS
10
3.3115088188976376
20
-2.0010726771653542
11
3.3121064566929133
21
-2.0006140551181102
0
LINE
8
BLACK
6
CONTINUOUS
10
3.3121064566929133
20
-2.0006140551181102
11
3.3128533464566927
21
-2.0007124015748032
0
LINE
8
BLACK
6
CONTINUOUS
10
3.3128533464566927
20
-2.0007124015748032
11
3.3810442913385828
21
-2.0400824803149606
0
LINE
8
BLACK
6
CONTINUOUS
10
3.3810442913385828
20
-2.0400824803149606
11
3.381502874015748
21
-2.0406801181102363
0
LINE
8
BLACK
6
CONTINUOUS
10
3.381502874015748
20
-2.0406801181102363
11
3.3815028346456693
21
-2.0406801181102363
0
LINE
8
BLACK
6
CONTINUOUS
10
3.3815028346456693
20
-2.0406801181102363
11
3.381502874015748
21
-2.0406801574803151
0
LINE
8
BLACK
6
CONTINUOUS
10
3.381502874015748
20
-2.0406801574803151
11
3.381404527559055
21
-2.0414270078740158
0
LINE
8
BLACK
6
CONTINUOUS
10
3.381404527559055
20
-2.0414270078740158
11
3.3420344881889763
21
-2.1096179527559054
0
LINE
8
BLACK
6
CONTINUOUS
10
3.3420344881889763
20
-2.1096179527559054
11
3.3414368503937006
21
-2.1100765748031494
0
LINE
8
BLACK
6
CONTINUOUS
10
3.3414368503937006
20
-2.1100765748031494
11
3.3406899606299212
21
-2.1099782283464568
0
LINE
8
BLACK
6
CONTINUOUS
10
3.3406899606299212
20
-2.1099782283464568
11
3.3406898818897637
21
-2.1099781496062993
0
LINE
8
BLACK
6
CONTINUOUS
10
3.3406898818897637
20
-2.1099781496062993
11
3.2724990157480316
21
-2.0706081496062994
0
LINE
8
BLACK
6
CONTINUOUS
10
3.2724990157480316
20
-2.0706081496062994
11
3.2720403937007871
21
-2.0700105118110237
0
LINE
8
BLACK
6
CONTINUOUS
10
3.2720403937007871
20
-2.0700105118110237
11
3.2721387401574802
21
-2.0692636220472442
0
LINE
8
BLACK
6
CONTINUOUS
10
3.2721387401574802
20
-2.0692636220472442
11
3.2726547637795274
21
-2.0683697637795273
0
LINE
8
BLACK
6
CONTINUOUS
10
3.2726547637795274
20
-2.0683697637795273
11
3.2415011023622045
21
-2.0503832283464565
0
LINE
8
BLACK
6
CONTINUOUS
10
3.2415011023622045
20
-2.0503832283464565
11
3.2410424803149605
21
-2.0497855905511813
0
LINE
8
BLACK
6
CONTINUOUS
10
3.2410424803149605
20
-2.0497855905511813
11
3.2411408267716535
21
-2.0490387007874014
0
LINE
8
BLACK
6
CONTINUOUS
10
3.2411408267716535
20
-2.0490387007874014
11
3.2769675984251969
21
-1.9869849212598425
0
LINE
8
BLACK
6
CONTINUOUS
10
3.2769675984251969
20
-1.9869849212598425
11
3.2775652362204726
21
-1.9865262992125985
0
LINE
8
BLACK
6
CONTINUOUS
10
3.2775652362204726
20
-1.9865262992125985
11
3.2775652755905509
21
-1.9865262992125985
0
LINE
8
BLACK
6
CONTINUOUS
10
3.2775652755905509
20
-1.9865262992125985
11
3.278312125984252
21
-1.9866246456692913
0
LINE
8
BLACK
6
CONTINUOUS
10
3.2743356692913386
20
-2.0693954724409447
11
3.3408218110236221
21
-2.1077812598425196
0
LINE
8
BLACK
6
CONTINUOUS
10
3.3408218110236221
20
-2.1077812598425196
11
3.3792076377952753
21
-2.0412951181102361
0
LINE
8
BLACK
6
CONTINUOUS
10
3.3792076377952753
20
-2.0412951181102361
11
3.3127214566929135
21
-2.0029092913385824
0
LINE
8
BLACK
6
CONTINUOUS
10
3.3127214566929135
20
-2.0029092913385824
11
3.2743356692913386
21
-2.0693954724409447
0
LINE
8
BLACK
6
CONTINUOUS
10
3.2433377559055119
20
-2.0491705511811023
11
3.2730007874015747
21
-2.0662965354330707
0
LINE
8
BLACK
6
CONTINUOUS
10
3.2730007874015747
20
-2.0662965354330707
11
3.307843307086614
21
-2.0059475196850394
0
LINE
8
BLACK
6
CONTINUOUS
10
3.307843307086614
20
-2.0059475196850394
11
3.2781802362204724
21
-1.9888215748031495
0
LINE
8
BLACK
6
CONTINUOUS
10
3.2781802362204724
20
-1.9888215748031495
11
3.2433377559055119
21
-2.0491705511811023
0
LINE
8
BLACK
6
CONTINUOUS
10
3.188976377952756
20
-1.9675196850393701
11
3.1896723622047243
21
-1.9678079527559054
0
LINE
8
BLACK
6
CONTINUOUS
10
3.1896723622047243
20
-1.9678079527559054
11
3.1899606299212597
21
-1.9685039370078741
0
LINE
8
BLACK
6
CONTINUOUS
10
3.1899606299212597
20
-1.9685039370078741
11
3.1899606299212597
21
-2.0472440944881889
0
LINE
8
BLACK
6
CONTINUOUS
10
3.1899606299212597
20
-2.0472440944881889
11
3.1896723622047243
21
-2.0479400787401576
0
LINE
8
BLACK
6
CONTINUOUS
10
3.1896723622047243
20
-2.0479400787401576
11
3.188976377952756
21
-2.048228346456693
0
LINE
8
BLACK
6
CONTINUOUS
10
3.188976377952756
20
-2.048228346456693
11
3.1102362204724407
21
-2.048228346456693
0
LINE
8
BLACK
6
CONTINUOUS
10
3.1102362204724407
20
-2.048228346456693
11
3.1095402362204725
21
-2.0479400787401576
0
LINE
8
BLACK
6
CONTINUOUS
10
3.1095402362204725
20
-2.0479400787401576
11
3.109251968503937
21
-2.0472440944881889
0
LINE
8
BLACK
6
CONTINUOUS
10
3.109251968503937
20
-2.0472440944881889
11
3.109251968503937
21
-2.0468026377952757
0
LINE
8
BLACK
6
CONTINUOUS
10
3.109251968503937
20
-2.0468026377952757
11
3.1086614173228346
21
-2.0470472440944882
0
LINE
8
BLACK
6
CONTINUOUS
10
3.1086614173228346
20
-2.0470472440944882
11
3.0724409448818899
21
-2.0470472440944882
0
LINE
8
BLACK
6
CONTINUOUS
10
3.0724409448818899
20
-2.0470472440944882
11
3.0717449606299212
21
-2.0467589763779528
0
LINE
8
BLACK
6
CONTINUOUS
10
3.0717449606299212
20
-2.0467589763779528
11
3.0714566929133857
21
-2.0460629921259841
0
LINE
8
BLACK
6
CONTINUOUS
10
3.0714566929133857
20
-2.0460629921259841
11
3.0714566929133857
21
-1.9744094488188977
0
LINE
8
BLACK
6
CONTINUOUS
10
3.0714566929133857
20
-1.9744094488188977
11
3.0717449606299212
21
-1.9737134645669292
0
LINE
8
BLACK
6
CONTINUOUS
10
3.0717449606299212
20
-1.9737134645669292
11
3.0724409448818899
21
-1.9734251968503937
0
LINE
8
BLACK
6
CONTINUOUS
10
3.0724409448818899
20
-1.9734251968503937
11
3.1086614173228346
21
-1.9734251968503937
0
LINE
8
BLACK
6
CONTINUOUS
10
3.1086614173228346
20
-1.9734251968503937
11
3.109251968503937
21
-1.9736697637795275
0
LINE
8
BLACK
6
CONTINUOUS
10
3.109251968503937
20
-1.9736697637795275
11
3.109251968503937
21
-1.9685039370078741
0
LINE
8
BLACK
6
CONTINUOUS
10
3.109251968503937
20
-1.9685039370078741
11
3.1095402362204725
21
-1.9678079527559054
0
LINE
8
BLACK
6
CONTINUOUS
10
3.1095402362204725
20
-1.9678079527559054
11
3.1102362204724407
21
-1.9675196850393701
0
LINE
8
BLACK
6
CONTINUOUS
10
3.1102362204724407
20
-1.9675196850393701
11
3.188976377952756
21
-1.9675196850393701
0
LINE
8
BLACK
6
CONTINUOUS
10
3.1112204724409449
20
-1.969488188976378
11
3.1112204724409449
21
-2.0462598425196852
0
LINE
8
BLACK
6
CONTINUOUS
10
3.1112204724409449
20
-2.0462598425196852
11
3.1879921259842519
21
-2.0462598425196852
0
LINE
8
BLACK
6
CONTINUOUS
10
3.1879921259842519
20
-2.0462598425196852
11
3.1879921259842519
21
-1.969488188976378
0
LINE
8
BLACK
6
CONTINUOUS
10
3.1879921259842519
20
-1.969488188976378
11
3.1112204724409449
21
-1.969488188976378
0
LINE
8
BLACK
6
CONTINUOUS
10
3.0734251968503936
20
-1.9753937007874016
11
3.0734251968503936
21
-2.0450787401574804
0
LINE
8
BLACK
6
CONTINUOUS
10
3.0734251968503936
20
-2.0450787401574804
11
3.1076771653543305
21
-2.0450787401574804
0
LINE
8
BLACK
6
CONTINUOUS
10
3.1076771653543305
20
-2.0450787401574804
11
3.1076771653543305
21
-1.9753937007874016
0
LINE
8
BLACK
6
CONTINUOUS
10
3.1076771653543305
20
-1.9753937007874016
11
3.0734251968503936
21
-1.9753937007874016
0
LINE
8
BLACK
6
CONTINUOUS
10
3.1563958267716536
20
-1.8993870472440944
11
3.1628448818897636
21
-1.9016436614173229
0
LINE
8
BLACK
6
CONTINUOUS
10
3.1628448818897636
20
-1.9016436614173229
11
3.1686301181102361
21
-1.905278779527559
0
LINE
8
BLACK
6
CONTINUOUS
10
3.1686301181102361
20
-1.905278779527559
11
3.1734613779527558
21
-1.9101100393700787
0
LINE
8
BLACK
6
CONTINUOUS
10
3.1734613779527558
20
-1.9101100393700787
11
3.1770964960629922
21
-1.9158952755905512
0
LINE
8
BLACK
6
CONTINUOUS
10
3.1770964960629922
20
-1.9158952755905512
11
3.1793531102362205
21
-1.9223443307086614
0
LINE
8
BLACK
6
CONTINUOUS
10
3.1793531102362205
20
-1.9223443307086614
11
3.1801181102362204
21
-1.9291338582677164
0
LINE
8
BLACK
6
CONTINUOUS
10
3.1801181102362204
20
-1.9291338582677164
11
3.1793531102362205
21
-1.9359233858267717
0
LINE
8
BLACK
6
CONTINUOUS
10
3.1793531102362205
20
-1.9359233858267717
11
3.1770964960629922
21
-1.9423724409448819
0
LINE
8
BLACK
6
CONTINUOUS
10
3.1770964960629922
20
-1.9423724409448819
11
3.1734613779527558
21
-1.9481576771653544
0
LINE
8
BLACK
6
CONTINUOUS
10
3.1734613779527558
20
-1.9481576771653544
11
3.1686301181102361
21
-1.9529889370078739
0
LINE
8
BLACK
6
CONTINUOUS
10
3.1686301181102361
20
-1.9529889370078739
11
3.1628448818897636
21
-1.9566240551181102
0
LINE
8
BLACK
6
CONTINUOUS
10
3.1628448818897636
20
-1.9566240551181102
11
3.1563958267716536
21
-1.9588806692913385
0
LINE
8
BLACK
6
CONTINUOUS
10
3.1563958267716536
20
-1.9588806692913385
11
3.1496062992125982
21
-1.9596456692913384
0
LINE
8
BLACK
6
CONTINUOUS
10
3.1496062992125982
20
-1.9596456692913384
11
3.1428167716535431
21
-1.9588806692913385
0
LINE
8
BLACK
6
CONTINUOUS
10
3.1428167716535431
20
-1.9588806692913385
11
3.1363677165354331
21
-1.9566240551181102
0
LINE
8
BLACK
6
CONTINUOUS
10
3.1363677165354331
20
-1.9566240551181102
11
3.1305824803149607
21
-1.9529889370078739
0
LINE
8
BLACK
6
CONTINUOUS
10
3.1305824803149607
20
-1.9529889370078739
11
3.1257512204724409
21
-1.9481576771653544
0
LINE
8
BLACK
6
CONTINUOUS
10
3.1257512204724409
20
-1.9481576771653544
11
3.1221161023622046
21
-1.9423724409448819
0
LINE
8
BLACK
6
CONTINUOUS
10
3.1221161023622046
20
-1.9423724409448819
11
3.1198594881889763
21
-1.9359233858267717
0
LINE
8
BLACK
6
CONTINUOUS
10
3.1198594881889763
20
-1.9359233858267717
11
3.1190944881889764
21
-1.9291338582677164
0
LINE
8
BLACK
6
CONTINUOUS
10
3.1190944881889764
20
-1.9291338582677164
11
3.1198594881889763
21
-1.9223443307086614
0
LINE
8
BLACK
6
CONTINUOUS
10
3.1198594881889763
20
-1.9223443307086614
11
3.1221161023622046
21
-1.9158952755905512
0
LINE
8
BLACK
6
CONTINUOUS
10
3.1221161023622046
20
-1.9158952755905512
11
3.1257512204724409
21
-1.9101100393700787
0
LINE
8
BLACK
6
CONTINUOUS
10
3.1257512204724409
20
-1.9101100393700787
11
3.1305824803149607
21
-1.905278779527559
0
LINE
8
BLACK
6
CONTINUOUS
10
3.1305824803149607
20
-1.905278779527559
11
3.1363677165354331
21
-1.9016436614173229
0
LINE
8
BLACK
6
CONTINUOUS
10
3.1363677165354331
20
-1.9016436614173229
11
3.1428167716535431
21
-1.8993870472440944
0
LINE
8
BLACK
6
CONTINUOUS
10
3.1428167716535431
20
-1.8993870472440944
11
3.1496062992125982
21
-1.8986220472440944
0
LINE
8
BLACK
6
CONTINUOUS
10
3.1496062992125982
20
-1.8986220472440944
11
3.1563958267716536
21
-1.8993870472440944
0
LINE
8
BLACK
6
CONTINUOUS
10
3.121602559055118
20
-1.9355255118110235
11
3.1237269685039371
21
-1.9415966929133859
0
LINE
8
BLACK
6
CONTINUOUS
10
3.1237269685039371
20
-1.9415966929133859
11
3.1271490551181103
21
-1.9470429133858267
0
LINE
8
BLACK
6
CONTINUOUS
10
3.1271490551181103
20
-1.9470429133858267
11
3.1316972440944881
21
-1.9515911023622048
0
LINE
8
BLACK
6
CONTINUOUS
10
3.1316972440944881
20
-1.9515911023622048
11
3.1371434645669289
21
-1.955013188976378
0
LINE
8
BLACK
6
CONTINUOUS
10
3.1371434645669289
20
-1.955013188976378
11
3.1432146456692913
21
-1.9571375984251969
0
LINE
8
BLACK
6
CONTINUOUS
10
3.1432146456692913
20
-1.9571375984251969
11
3.1496062992125982
21
-1.9578577559055117
0
LINE
8
BLACK
6
CONTINUOUS
10
3.1496062992125982
20
-1.9578577559055117
11
3.1559979527559054
21
-1.9571375984251969
0
LINE
8
BLACK
6
CONTINUOUS
10
3.1559979527559054
20
-1.9571375984251969
11
3.1620691338582678
21
-1.955013188976378
0
LINE
8
BLACK
6
CONTINUOUS
10
3.1620691338582678
20
-1.955013188976378
11
3.1675153543307086
21
-1.9515911023622048
0
LINE
8
BLACK
6
CONTINUOUS
10
3.1675153543307086
20
-1.9515911023622048
11
3.1720635433070865
21
-1.9470429133858267
0
LINE
8
BLACK
6
CONTINUOUS
10
3.1720635433070865
20
-1.9470429133858267
11
3.1754856299212597
21
-1.9415966929133859
0
LINE
8
BLACK
6
CONTINUOUS
10
3.1754856299212597
20
-1.9415966929133859
11
3.1776100393700788
21
-1.9355255118110235
0
LINE
8
BLACK
6
CONTINUOUS
10
3.1776100393700788
20
-1.9355255118110235
11
3.1783301968503936
21
-1.9291338582677164
0
LINE
8
BLACK
6
CONTINUOUS
10
3.1783301968503936
20
-1.9291338582677164
11
3.1776100393700788
21
-1.9227422047244094
0
LINE
8
BLACK
6
CONTINUOUS
10
3.1776100393700788
20
-1.9227422047244094
11
3.1754856299212597
21
-1.9166710236220472
0
LINE
8
BLACK
6
CONTINUOUS
10
3.1754856299212597
20
-1.9166710236220472
11
3.1720635433070865
21
-1.9112248031496062
0
LINE
8
BLACK
6
CONTINUOUS
10
3.1720635433070865
20
-1.9112248031496062
11
3.1675153543307086
21
-1.9066766141732283
0
LINE
8
BLACK
6
CONTINUOUS
10
3.1675153543307086
20
-1.9066766141732283
11
3.1620691338582678
21
-1.9032545275590551
0
LINE
8
BLACK
6
CONTINUOUS
10
3.1620691338582678
20
-1.9032545275590551
11
3.1559979527559054
21
-1.9011301181102362
0
LINE
8
BLACK
6
CONTINUOUS
10
3.1559979527559054
20
-1.9011301181102362
11
3.1496062992125982
21
-1.9004099606299212
0
LINE
8
BLACK
6
CONTINUOUS
10
3.1496062992125982
20
-1.9004099606299212
11
3.1432146456692913
21
-1.9011301181102362
0
LINE
8
BLACK
6
CONTINUOUS
10
3.1432146456692913
20
-1.9011301181102362
11
3.1371434645669289
21
-1.9032545275590551
0
LINE
8
BLACK
6
CONTINUOUS
10
3.1371434645669289
20
-1.9032545275590551
11
3.1316972440944881
21
-1.9066766141732283
0
LINE
8
BLACK
6
CONTINUOUS
10
3.1316972440944881
20
-1.9066766141732283
11
3.1271490551181103
21
-1.9112248031496062
0
LINE
8
BLACK
6
CONTINUOUS
10
3.1271490551181103
20
-1.9112248031496062
11
3.1237269685039371
21
-1.9166710236220472
0
LINE
8
BLACK
6
CONTINUOUS
10
3.1237269685039371
20
-1.9166710236220472
11
3.121602559055118
21
-1.9227422047244094
0
LINE
8
BLACK
6
CONTINUOUS
10
3.121602559055118
20
-1.9227422047244094
11
3.1208824015748031
21
-1.9291338582677164
0
LINE
8
BLACK
6
CONTINUOUS
10
3.1208824015748031
20
-1.9291338582677164
11
3.121602559055118
21
-1.9355255118110235
  0
ENDSEC
  0
EOF
