  0
SECTION
  2
HEADER
  9
$ANGBASE
  50
0.0
  9
$ANGDIR
  70
1
  9
$MEASUREMENT
  70
0
  0
ENDSEC
  0
SECTION
  2
TABLES
  0
TABLE
  2
LTYPE
  70
4
  0
LTYPE
  5
40F
  2
CONTINUOUS
  70
0
  3
Solid line
  72
65
  73
0
  40
0.0
  0
LTYPE
  5
410
  2
DASHDOT
 70
0
  3
Dash Dot ____ _ ____ _
 72
65
 73
4
 40
2.0
 49
1.25
 49
-0.25
 49
0.25
 49
-0.25
  0
LTYPE
  5
411
  2
DASHED
 70
0
  3
Dashed __ __ __ __ __
 72
65
 73
2
 40
0.75
 49
0.5
 49
-0.25
  0
LTYPE
  5
43B
  2
DOTTED
 70
0
  3
Dotted .  .  .  .
 72
65
 73
2
 40
0.2
 49
0.0
 49
-0.2
  0
ENDTAB
  0
TABLE
  2
STYLE
  70
4
  0
STYLE
  2
KICAD
  70
0
  40
0
  41
1
  42
1
  50
0
  71
0
  3
isocp.shx
  0
STYLE
  2
KICADB
  70
0
  40
0
  41
1
  42
1
  50
0
  71
0
  3
isocp.shx
  0
STYLE
  2
KICADI
  70
0
  40
0
  41
1
  42
1
  50
15
  71
0
  3
isocp.shx
  0
STYLE
  2
KICADBI
  70
0
  40
0
  41
1
  42
1
  50
15
  71
0
  3
isocp.shx
  0
ENDTAB
  0
TABLE
  2
LAYER
  70
1
  0
LAYER
  2
BLACK
  70
0
  62
7
  6
CONTINUOUS
  0
ENDTAB
  0
ENDSEC
  0
SECTION
  2
ENTITIES
0
LINE
8
BLACK
6
CONTINUOUS
10
3.18898
20
-2.67618
11
3.18967
21
-2.67647
0
LINE
8
BLACK
6
CONTINUOUS
10
3.18967
20
-2.67647
11
3.18996
21
-2.67717
0
LINE
8
BLACK
6
CONTINUOUS
10
3.18996
20
-2.67717
11
3.18996
21
-2.75591
0
LINE
8
BLACK
6
CONTINUOUS
10
3.18996
20
-2.75591
11
3.18967
21
-2.7566
0
LINE
8
BLACK
6
CONTINUOUS
10
3.18967
20
-2.7566
11
3.18898
21
-2.75689
0
LINE
8
BLACK
6
CONTINUOUS
10
3.18898
20
-2.75689
11
3.11024
21
-2.75689
0
LINE
8
BLACK
6
CONTINUOUS
10
3.11024
20
-2.75689
11
3.10954
21
-2.7566
0
LINE
8
BLACK
6
CONTINUOUS
10
3.10954
20
-2.7566
11
3.10925
21
-2.75591
0
LINE
8
BLACK
6
CONTINUOUS
10
3.10925
20
-2.75591
11
3.10925
21
-2.67717
0
LINE
8
BLACK
6
CONTINUOUS
10
3.10925
20
-2.67717
11
3.10954
21
-2.67647
0
LINE
8
BLACK
6
CONTINUOUS
10
3.10954
20
-2.67647
11
3.11024
21
-2.67618
0
LINE
8
BLACK
6
CONTINUOUS
10
3.11024
20
-2.67618
11
3.18898
21
-2.67618
0
LINE
8
BLACK
6
CONTINUOUS
10
3.11122
20
-2.67815
11
3.11122
21
-2.75492
0
LINE
8
BLACK
6
CONTINUOUS
10
3.11122
20
-2.75492
11
3.18799
21
-2.75492
0
LINE
8
BLACK
6
CONTINUOUS
10
3.18799
20
-2.75492
11
3.18799
21
-2.67815
0
LINE
8
BLACK
6
CONTINUOUS
10
3.18799
20
-2.67815
11
3.11122
21
-2.67815
0
LINE
8
BLACK
6
CONTINUOUS
10
3.22244
20
-2.68209
11
3.22314
21
-2.68237
0
LINE
8
BLACK
6
CONTINUOUS
10
3.22314
20
-2.68237
11
3.22343
21
-2.68307
0
LINE
8
BLACK
6
CONTINUOUS
10
3.22343
20
-2.68307
11
3.22343
21
-2.75236
0
LINE
8
BLACK
6
CONTINUOUS
10
3.22343
20
-2.75236
11
3.22314
21
-2.75306
0
LINE
8
BLACK
6
CONTINUOUS
10
3.22314
20
-2.75306
11
3.22244
21
-2.75335
0
LINE
8
BLACK
6
CONTINUOUS
10
3.22244
20
-2.75335
11
3.19488
21
-2.75335
0
LINE
8
BLACK
6
CONTINUOUS
10
3.19488
20
-2.75335
11
3.19419
21
-2.75306
0
LINE
8
BLACK
6
CONTINUOUS
10
3.19419
20
-2.75306
11
3.1939
21
-2.75236
0
LINE
8
BLACK
6
CONTINUOUS
10
3.1939
20
-2.75236
11
3.1939
21
-2.68307
0
LINE
8
BLACK
6
CONTINUOUS
10
3.1939
20
-2.68307
11
3.19419
21
-2.68237
0
LINE
8
BLACK
6
CONTINUOUS
10
3.19419
20
-2.68237
11
3.19488
21
-2.68209
0
LINE
8
BLACK
6
CONTINUOUS
10
3.19488
20
-2.68209
11
3.22244
21
-2.68209
0
LINE
8
BLACK
6
CONTINUOUS
10
3.19587
20
-2.68406
11
3.19587
21
-2.75138
0
LINE
8
BLACK
6
CONTINUOUS
10
3.19587
20
-2.75138
11
3.22146
21
-2.75138
0
LINE
8
BLACK
6
CONTINUOUS
10
3.22146
20
-2.75138
11
3.22146
21
-2.68406
0
LINE
8
BLACK
6
CONTINUOUS
10
3.22146
20
-2.68406
11
3.19587
21
-2.68406
0
LINE
8
BLACK
6
CONTINUOUS
10
3.0295
20
-2.6591
11
3.05337
21
-2.67288
0
LINE
8
BLACK
6
CONTINUOUS
10
3.05337
20
-2.67288
11
3.05383
21
-2.67348
0
LINE
8
BLACK
6
CONTINUOUS
10
3.05383
20
-2.67348
11
3.05383
21
-2.67348
0
LINE
8
BLACK
6
CONTINUOUS
10
3.05383
20
-2.67348
11
3.05383
21
-2.67348
0
LINE
8
BLACK
6
CONTINUOUS
10
3.05383
20
-2.67348
11
3.05373
21
-2.67423
0
LINE
8
BLACK
6
CONTINUOUS
10
3.05373
20
-2.67423
11
3.01909
21
-2.73424
0
LINE
8
BLACK
6
CONTINUOUS
10
3.01909
20
-2.73424
11
3.01849
21
-2.73469
0
LINE
8
BLACK
6
CONTINUOUS
10
3.01849
20
-2.73469
11
3.01849
21
-2.73469
0
LINE
8
BLACK
6
CONTINUOUS
10
3.01849
20
-2.73469
11
3.01849
21
-2.73469
0
LINE
8
BLACK
6
CONTINUOUS
10
3.01849
20
-2.73469
11
3.01774
21
-2.7346
0
LINE
8
BLACK
6
CONTINUOUS
10
3.01774
20
-2.7346
11
2.99387
21
-2.72082
0
LINE
8
BLACK
6
CONTINUOUS
10
2.99387
20
-2.72082
11
2.99342
21
-2.72022
0
LINE
8
BLACK
6
CONTINUOUS
10
2.99342
20
-2.72022
11
2.99351
21
-2.71947
0
LINE
8
BLACK
6
CONTINUOUS
10
2.99351
20
-2.71947
11
2.99351
21
-2.71947
0
LINE
8
BLACK
6
CONTINUOUS
10
2.99351
20
-2.71947
11
3.02816
21
-2.65946
0
LINE
8
BLACK
6
CONTINUOUS
10
3.02816
20
-2.65946
11
3.02876
21
-2.65901
0
LINE
8
BLACK
6
CONTINUOUS
10
3.02876
20
-2.65901
11
3.0295
21
-2.6591
0
LINE
8
BLACK
6
CONTINUOUS
10
2.99571
20
-2.7196
11
3.01787
21
-2.7324
0
LINE
8
BLACK
6
CONTINUOUS
10
3.01787
20
-2.7324
11
3.05153
21
-2.6741
0
LINE
8
BLACK
6
CONTINUOUS
10
3.05153
20
-2.6741
11
3.02937
21
-2.6613
0
LINE
8
BLACK
6
CONTINUOUS
10
3.02937
20
-2.6613
11
2.99571
21
-2.7196
0
LINE
8
BLACK
6
CONTINUOUS
10
2.95852
20
-2.61443
11
3.02671
21
-2.6538
0
LINE
8
BLACK
6
CONTINUOUS
10
3.02671
20
-2.6538
11
3.02717
21
-2.6544
0
LINE
8
BLACK
6
CONTINUOUS
10
3.02717
20
-2.6544
11
3.02717
21
-2.6544
0
LINE
8
BLACK
6
CONTINUOUS
10
3.02717
20
-2.6544
11
3.02717
21
-2.6544
0
LINE
8
BLACK
6
CONTINUOUS
10
3.02717
20
-2.6544
11
3.02707
21
-2.65515
0
LINE
8
BLACK
6
CONTINUOUS
10
3.02707
20
-2.65515
11
2.9877
21
-2.72334
0
LINE
8
BLACK
6
CONTINUOUS
10
2.9877
20
-2.72334
11
2.98711
21
-2.7238
0
LINE
8
BLACK
6
CONTINUOUS
10
2.98711
20
-2.7238
11
2.98636
21
-2.7237
0
LINE
8
BLACK
6
CONTINUOUS
10
2.98636
20
-2.7237
11
2.98636
21
-2.7237
0
LINE
8
BLACK
6
CONTINUOUS
10
2.98636
20
-2.7237
11
2.91817
21
-2.68433
0
LINE
8
BLACK
6
CONTINUOUS
10
2.91817
20
-2.68433
11
2.91771
21
-2.68373
0
LINE
8
BLACK
6
CONTINUOUS
10
2.91771
20
-2.68373
11
2.91781
21
-2.68298
0
LINE
8
BLACK
6
CONTINUOUS
10
2.91781
20
-2.68298
11
2.95718
21
-2.61479
0
LINE
8
BLACK
6
CONTINUOUS
10
2.95718
20
-2.61479
11
2.95778
21
-2.61433
0
LINE
8
BLACK
6
CONTINUOUS
10
2.95778
20
-2.61433
11
2.95852
21
-2.61443
0
LINE
8
BLACK
6
CONTINUOUS
10
2.92
20
-2.68311
11
2.98649
21
-2.7215
0
LINE
8
BLACK
6
CONTINUOUS
10
2.98649
20
-2.7215
11
3.02488
21
-2.65501
0
LINE
8
BLACK
6
CONTINUOUS
10
3.02488
20
-2.65501
11
2.95839
21
-2.61663
0
LINE
8
BLACK
6
CONTINUOUS
10
2.95839
20
-2.61663
11
2.92
21
-2.68311
0
LINE
8
BLACK
6
CONTINUOUS
10
3.34203
20
-2.61479
11
3.3814
21
-2.68298
0
LINE
8
BLACK
6
CONTINUOUS
10
3.3814
20
-2.68298
11
3.3815
21
-2.68373
0
LINE
8
BLACK
6
CONTINUOUS
10
3.3815
20
-2.68373
11
3.38104
21
-2.68433
0
LINE
8
BLACK
6
CONTINUOUS
10
3.38104
20
-2.68433
11
3.31285
21
-2.7237
0
LINE
8
BLACK
6
CONTINUOUS
10
3.31285
20
-2.7237
11
3.31211
21
-2.7238
0
LINE
8
BLACK
6
CONTINUOUS
10
3.31211
20
-2.7238
11
3.31151
21
-2.72334
0
LINE
8
BLACK
6
CONTINUOUS
10
3.31151
20
-2.72334
11
3.31151
21
-2.72334
0
LINE
8
BLACK
6
CONTINUOUS
10
3.31151
20
-2.72334
11
3.27214
21
-2.65515
0
LINE
8
BLACK
6
CONTINUOUS
10
3.27214
20
-2.65515
11
3.27204
21
-2.6544
0
LINE
8
BLACK
6
CONTINUOUS
10
3.27204
20
-2.6544
11
3.2725
21
-2.6538
0
LINE
8
BLACK
6
CONTINUOUS
10
3.2725
20
-2.6538
11
3.34069
21
-2.61443
0
LINE
8
BLACK
6
CONTINUOUS
10
3.34069
20
-2.61443
11
3.34069
21
-2.61443
0
LINE
8
BLACK
6
CONTINUOUS
10
3.34069
20
-2.61443
11
3.34144
21
-2.61433
0
LINE
8
BLACK
6
CONTINUOUS
10
3.34144
20
-2.61433
11
3.34203
21
-2.61479
0
LINE
8
BLACK
6
CONTINUOUS
10
3.27434
20
-2.65501
11
3.31272
21
-2.7215
0
LINE
8
BLACK
6
CONTINUOUS
10
3.31272
20
-2.7215
11
3.37921
21
-2.68311
0
LINE
8
BLACK
6
CONTINUOUS
10
3.37921
20
-2.68311
11
3.34082
21
-2.61663
0
LINE
8
BLACK
6
CONTINUOUS
10
3.34082
20
-2.61663
11
3.27434
21
-2.65501
0
LINE
8
BLACK
6
CONTINUOUS
10
3.37342
20
-2.60306
11
3.40806
21
-2.66307
0
LINE
8
BLACK
6
CONTINUOUS
10
3.40806
20
-2.66307
11
3.40816
21
-2.66381
0
LINE
8
BLACK
6
CONTINUOUS
10
3.40816
20
-2.66381
11
3.4077
21
-2.66441
0
LINE
8
BLACK
6
CONTINUOUS
10
3.4077
20
-2.66441
11
3.38383
21
-2.67819
0
LINE
8
BLACK
6
CONTINUOUS
10
3.38383
20
-2.67819
11
3.38309
21
-2.67829
0
LINE
8
BLACK
6
CONTINUOUS
10
3.38309
20
-2.67829
11
3.38249
21
-2.67783
0
LINE
8
BLACK
6
CONTINUOUS
10
3.38249
20
-2.67783
11
3.34784
21
-2.61782
0
LINE
8
BLACK
6
CONTINUOUS
10
3.34784
20
-2.61782
11
3.34775
21
-2.61707
0
LINE
8
BLACK
6
CONTINUOUS
10
3.34775
20
-2.61707
11
3.3482
21
-2.61648
0
LINE
8
BLACK
6
CONTINUOUS
10
3.3482
20
-2.61648
11
3.3482
21
-2.61648
0
LINE
8
BLACK
6
CONTINUOUS
10
3.3482
20
-2.61648
11
3.37207
21
-2.6027
0
LINE
8
BLACK
6
CONTINUOUS
10
3.37207
20
-2.6027
11
3.37282
21
-2.6026
0
LINE
8
BLACK
6
CONTINUOUS
10
3.37282
20
-2.6026
11
3.37282
21
-2.6026
0
LINE
8
BLACK
6
CONTINUOUS
10
3.37282
20
-2.6026
11
3.37342
21
-2.60306
0
LINE
8
BLACK
6
CONTINUOUS
10
3.35004
20
-2.61769
11
3.3837
21
-2.67599
0
LINE
8
BLACK
6
CONTINUOUS
10
3.3837
20
-2.67599
11
3.40586
21
-2.6632
0
LINE
8
BLACK
6
CONTINUOUS
10
3.40586
20
-2.6632
11
3.3722
21
-2.60489
0
LINE
8
BLACK
6
CONTINUOUS
10
3.3722
20
-2.60489
11
3.35004
21
-2.61769
0
LINE
8
BLACK
6
CONTINUOUS
10
2.89798
20
-2.55883
11
2.91176
21
-2.5827
0
LINE
8
BLACK
6
CONTINUOUS
10
2.91176
20
-2.5827
11
2.91186
21
-2.58345
0
LINE
8
BLACK
6
CONTINUOUS
10
2.91186
20
-2.58345
11
2.91186
21
-2.58345
0
LINE
8
BLACK
6
CONTINUOUS
10
2.91186
20
-2.58345
11
2.9114
21
-2.58405
0
LINE
8
BLACK
6
CONTINUOUS
10
2.9114
20
-2.58405
11
2.85139
21
-2.61869
0
LINE
8
BLACK
6
CONTINUOUS
10
2.85139
20
-2.61869
11
2.85065
21
-2.61879
0
LINE
8
BLACK
6
CONTINUOUS
10
2.85065
20
-2.61879
11
2.85005
21
-2.61833
0
LINE
8
BLACK
6
CONTINUOUS
10
2.85005
20
-2.61833
11
2.85005
21
-2.61833
0
LINE
8
BLACK
6
CONTINUOUS
10
2.85005
20
-2.61833
11
2.83627
21
-2.59446
0
LINE
8
BLACK
6
CONTINUOUS
10
2.83627
20
-2.59446
11
2.83617
21
-2.59372
0
LINE
8
BLACK
6
CONTINUOUS
10
2.83617
20
-2.59372
11
2.83663
21
-2.59312
0
LINE
8
BLACK
6
CONTINUOUS
10
2.83663
20
-2.59312
11
2.83663
21
-2.59312
0
LINE
8
BLACK
6
CONTINUOUS
10
2.83663
20
-2.59312
11
2.89664
21
-2.55847
0
LINE
8
BLACK
6
CONTINUOUS
10
2.89664
20
-2.55847
11
2.89664
21
-2.55847
0
LINE
8
BLACK
6
CONTINUOUS
10
2.89664
20
-2.55847
11
2.89738
21
-2.55838
0
LINE
8
BLACK
6
CONTINUOUS
10
2.89738
20
-2.55838
11
2.89798
21
-2.55883
0
LINE
8
BLACK
6
CONTINUOUS
10
2.83847
20
-2.59433
11
2.85126
21
-2.61649
0
LINE
8
BLACK
6
CONTINUOUS
10
2.85126
20
-2.61649
11
2.90956
21
-2.58283
0
LINE
8
BLACK
6
CONTINUOUS
10
2.90956
20
-2.58283
11
2.89677
21
-2.56067
0
LINE
8
BLACK
6
CONTINUOUS
10
2.89677
20
-2.56067
11
2.83847
21
-2.59433
0
LINE
8
BLACK
6
CONTINUOUS
10
2.85801
20
-2.4851
11
2.89738
21
-2.55329
0
LINE
8
BLACK
6
CONTINUOUS
10
2.89738
20
-2.55329
11
2.89748
21
-2.55404
0
LINE
8
BLACK
6
CONTINUOUS
10
2.89748
20
-2.55404
11
2.89702
21
-2.55463
0
LINE
8
BLACK
6
CONTINUOUS
10
2.89702
20
-2.55463
11
2.82883
21
-2.594
0
LINE
8
BLACK
6
CONTINUOUS
10
2.82883
20
-2.594
11
2.82808
21
-2.5941
0
LINE
8
BLACK
6
CONTINUOUS
10
2.82808
20
-2.5941
11
2.82748
21
-2.59364
0
LINE
8
BLACK
6
CONTINUOUS
10
2.82748
20
-2.59364
11
2.78811
21
-2.52545
0
LINE
8
BLACK
6
CONTINUOUS
10
2.78811
20
-2.52545
11
2.78802
21
-2.5247
0
LINE
8
BLACK
6
CONTINUOUS
10
2.78802
20
-2.5247
11
2.78847
21
-2.52411
0
LINE
8
BLACK
6
CONTINUOUS
10
2.78847
20
-2.52411
11
2.85667
21
-2.48474
0
LINE
8
BLACK
6
CONTINUOUS
10
2.85667
20
-2.48474
11
2.85667
21
-2.48474
0
LINE
8
BLACK
6
CONTINUOUS
10
2.85667
20
-2.48474
11
2.85741
21
-2.48464
0
LINE
8
BLACK
6
CONTINUOUS
10
2.85741
20
-2.48464
11
2.85801
21
-2.4851
0
LINE
8
BLACK
6
CONTINUOUS
10
2.79031
20
-2.52532
11
2.8287
21
-2.59181
0
LINE
8
BLACK
6
CONTINUOUS
10
2.8287
20
-2.59181
11
2.89518
21
-2.55342
0
LINE
8
BLACK
6
CONTINUOUS
10
2.89518
20
-2.55342
11
2.8568
21
-2.48693
0
LINE
8
BLACK
6
CONTINUOUS
10
2.8568
20
-2.48693
11
2.79031
21
-2.52532
0
LINE
8
BLACK
6
CONTINUOUS
10
3.44255
20
-2.48474
11
3.51074
21
-2.52411
0
LINE
8
BLACK
6
CONTINUOUS
10
3.51074
20
-2.52411
11
3.5112
21
-2.5247
0
LINE
8
BLACK
6
CONTINUOUS
10
3.5112
20
-2.5247
11
3.5112
21
-2.5247
0
LINE
8
BLACK
6
CONTINUOUS
10
3.5112
20
-2.5247
11
3.5112
21
-2.5247
0
LINE
8
BLACK
6
CONTINUOUS
10
3.5112
20
-2.5247
11
3.5111
21
-2.52545
0
LINE
8
BLACK
6
CONTINUOUS
10
3.5111
20
-2.52545
11
3.47173
21
-2.59364
0
LINE
8
BLACK
6
CONTINUOUS
10
3.47173
20
-2.59364
11
3.47113
21
-2.5941
0
LINE
8
BLACK
6
CONTINUOUS
10
3.47113
20
-2.5941
11
3.47038
21
-2.594
0
LINE
8
BLACK
6
CONTINUOUS
10
3.47038
20
-2.594
11
3.47038
21
-2.594
0
LINE
8
BLACK
6
CONTINUOUS
10
3.47038
20
-2.594
11
3.40219
21
-2.55463
0
LINE
8
BLACK
6
CONTINUOUS
10
3.40219
20
-2.55463
11
3.40173
21
-2.55404
0
LINE
8
BLACK
6
CONTINUOUS
10
3.40173
20
-2.55404
11
3.40183
21
-2.55329
0
LINE
8
BLACK
6
CONTINUOUS
10
3.40183
20
-2.55329
11
3.4412
21
-2.4851
0
LINE
8
BLACK
6
CONTINUOUS
10
3.4412
20
-2.4851
11
3.4418
21
-2.48464
0
LINE
8
BLACK
6
CONTINUOUS
10
3.4418
20
-2.48464
11
3.44255
21
-2.48474
0
LINE
8
BLACK
6
CONTINUOUS
10
3.40403
20
-2.55342
11
3.47052
21
-2.59181
0
LINE
8
BLACK
6
CONTINUOUS
10
3.47052
20
-2.59181
11
3.5089
21
-2.52532
0
LINE
8
BLACK
6
CONTINUOUS
10
3.5089
20
-2.52532
11
3.44242
21
-2.48693
0
LINE
8
BLACK
6
CONTINUOUS
10
3.44242
20
-2.48693
11
3.40403
21
-2.55342
0
LINE
8
BLACK
6
CONTINUOUS
10
3.4636
20
-2.46005
11
3.52361
21
-2.49469
0
LINE
8
BLACK
6
CONTINUOUS
10
3.52361
20
-2.49469
11
3.52388
21
-2.49505
0
LINE
8
BLACK
6
CONTINUOUS
10
3.52388
20
-2.49505
11
3.52406
21
-2.49529
0
LINE
8
BLACK
6
CONTINUOUS
10
3.52406
20
-2.49529
11
3.52397
21
-2.49604
0
LINE
8
BLACK
6
CONTINUOUS
10
3.52397
20
-2.49604
11
3.51019
21
-2.51991
0
LINE
8
BLACK
6
CONTINUOUS
10
3.51019
20
-2.51991
11
3.50959
21
-2.52036
0
LINE
8
BLACK
6
CONTINUOUS
10
3.50959
20
-2.52036
11
3.50884
21
-2.52027
0
LINE
8
BLACK
6
CONTINUOUS
10
3.50884
20
-2.52027
11
3.50884
21
-2.52027
0
LINE
8
BLACK
6
CONTINUOUS
10
3.50884
20
-2.52027
11
3.44883
21
-2.48562
0
LINE
8
BLACK
6
CONTINUOUS
10
3.44883
20
-2.48562
11
3.44838
21
-2.48502
0
LINE
8
BLACK
6
CONTINUOUS
10
3.44838
20
-2.48502
11
3.44847
21
-2.48428
0
LINE
8
BLACK
6
CONTINUOUS
10
3.44847
20
-2.48428
11
3.44847
21
-2.48428
0
LINE
8
BLACK
6
CONTINUOUS
10
3.44847
20
-2.48428
11
3.46225
21
-2.46041
0
LINE
8
BLACK
6
CONTINUOUS
10
3.46225
20
-2.46041
11
3.46285
21
-2.45995
0
LINE
8
BLACK
6
CONTINUOUS
10
3.46285
20
-2.45995
11
3.4636
21
-2.46005
0
LINE
8
BLACK
6
CONTINUOUS
10
3.45067
20
-2.48441
11
3.50897
21
-2.51807
0
LINE
8
BLACK
6
CONTINUOUS
10
3.50897
20
-2.51807
11
3.52177
21
-2.49591
0
LINE
8
BLACK
6
CONTINUOUS
10
3.52177
20
-2.49591
11
3.46347
21
-2.46225
0
LINE
8
BLACK
6
CONTINUOUS
10
3.46347
20
-2.46225
11
3.45067
21
-2.48441
0
LINE
8
BLACK
6
CONTINUOUS
10
3.53504
20
-2.4124
11
3.53574
21
-2.41269
0
LINE
8
BLACK
6
CONTINUOUS
10
3.53574
20
-2.41269
11
3.53602
21
-2.41339
0
LINE
8
BLACK
6
CONTINUOUS
10
3.53602
20
-2.41339
11
3.53602
21
-2.44094
0
LINE
8
BLACK
6
CONTINUOUS
10
3.53602
20
-2.44094
11
3.53574
21
-2.44164
0
LINE
8
BLACK
6
CONTINUOUS
10
3.53574
20
-2.44164
11
3.53504
21
-2.44193
0
LINE
8
BLACK
6
CONTINUOUS
10
3.53504
20
-2.44193
11
3.46575
21
-2.44193
0
LINE
8
BLACK
6
CONTINUOUS
10
3.46575
20
-2.44193
11
3.46505
21
-2.44164
0
LINE
8
BLACK
6
CONTINUOUS
10
3.46505
20
-2.44164
11
3.46476
21
-2.44094
0
LINE
8
BLACK
6
CONTINUOUS
10
3.46476
20
-2.44094
11
3.46476
21
-2.41339
0
LINE
8
BLACK
6
CONTINUOUS
10
3.46476
20
-2.41339
11
3.46505
21
-2.41269
0
LINE
8
BLACK
6
CONTINUOUS
10
3.46505
20
-2.41269
11
3.46575
21
-2.4124
0
LINE
8
BLACK
6
CONTINUOUS
10
3.46575
20
-2.4124
11
3.53504
21
-2.4124
0
LINE
8
BLACK
6
CONTINUOUS
10
3.46673
20
-2.41437
11
3.46673
21
-2.43996
0
LINE
8
BLACK
6
CONTINUOUS
10
3.46673
20
-2.43996
11
3.53406
21
-2.43996
0
LINE
8
BLACK
6
CONTINUOUS
10
3.53406
20
-2.43996
11
3.53406
21
-2.41437
0
LINE
8
BLACK
6
CONTINUOUS
10
3.53406
20
-2.41437
11
3.46673
21
-2.41437
0
LINE
8
BLACK
6
CONTINUOUS
10
2.82992
20
-2.4065
11
2.83062
21
-2.40678
0
LINE
8
BLACK
6
CONTINUOUS
10
2.83062
20
-2.40678
11
2.83091
21
-2.40748
0
LINE
8
BLACK
6
CONTINUOUS
10
2.83091
20
-2.40748
11
2.83091
21
-2.43504
0
LINE
8
BLACK
6
CONTINUOUS
10
2.83091
20
-2.43504
11
2.83062
21
-2.43574
0
LINE
8
BLACK
6
CONTINUOUS
10
2.83062
20
-2.43574
11
2.82992
21
-2.43602
0
LINE
8
BLACK
6
CONTINUOUS
10
2.82992
20
-2.43602
11
2.76063
21
-2.43602
0
LINE
8
BLACK
6
CONTINUOUS
10
2.76063
20
-2.43602
11
2.75993
21
-2.43574
0
LINE
8
BLACK
6
CONTINUOUS
10
2.75993
20
-2.43574
11
2.75965
21
-2.43504
0
LINE
8
BLACK
6
CONTINUOUS
10
2.75965
20
-2.43504
11
2.75965
21
-2.40748
0
LINE
8
BLACK
6
CONTINUOUS
10
2.75965
20
-2.40748
11
2.75993
21
-2.40678
0
LINE
8
BLACK
6
CONTINUOUS
10
2.75993
20
-2.40678
11
2.76063
21
-2.4065
0
LINE
8
BLACK
6
CONTINUOUS
10
2.76063
20
-2.4065
11
2.82992
21
-2.4065
0
LINE
8
BLACK
6
CONTINUOUS
10
2.76161
20
-2.40846
11
2.76161
21
-2.43406
0
LINE
8
BLACK
6
CONTINUOUS
10
2.76161
20
-2.43406
11
2.82894
21
-2.43406
0
LINE
8
BLACK
6
CONTINUOUS
10
2.82894
20
-2.43406
11
2.82894
21
-2.40846
0
LINE
8
BLACK
6
CONTINUOUS
10
2.82894
20
-2.40846
11
2.76161
21
-2.40846
0
LINE
8
BLACK
6
CONTINUOUS
10
2.83465
20
-2.32185
11
2.83534
21
-2.32214
0
LINE
8
BLACK
6
CONTINUOUS
10
2.83534
20
-2.32214
11
2.83563
21
-2.32283
0
LINE
8
BLACK
6
CONTINUOUS
10
2.83563
20
-2.32283
11
2.83563
21
-2.40157
0
LINE
8
BLACK
6
CONTINUOUS
10
2.83563
20
-2.40157
11
2.83534
21
-2.40227
0
LINE
8
BLACK
6
CONTINUOUS
10
2.83534
20
-2.40227
11
2.83465
21
-2.40256
0
LINE
8
BLACK
6
CONTINUOUS
10
2.83465
20
-2.40256
11
2.75591
21
-2.40256
0
LINE
8
BLACK
6
CONTINUOUS
10
2.75591
20
-2.40256
11
2.75521
21
-2.40227
0
LINE
8
BLACK
6
CONTINUOUS
10
2.75521
20
-2.40227
11
2.75492
21
-2.40157
0
LINE
8
BLACK
6
CONTINUOUS
10
2.75492
20
-2.40157
11
2.75492
21
-2.32283
0
LINE
8
BLACK
6
CONTINUOUS
10
2.75492
20
-2.32283
11
2.75521
21
-2.32214
0
LINE
8
BLACK
6
CONTINUOUS
10
2.75521
20
-2.32214
11
2.75591
21
-2.32185
0
LINE
8
BLACK
6
CONTINUOUS
10
2.75591
20
-2.32185
11
2.83465
21
-2.32185
0
LINE
8
BLACK
6
CONTINUOUS
10
2.75689
20
-2.32382
11
2.75689
21
-2.40059
0
LINE
8
BLACK
6
CONTINUOUS
10
2.75689
20
-2.40059
11
2.83366
21
-2.40059
0
LINE
8
BLACK
6
CONTINUOUS
10
2.83366
20
-2.40059
11
2.83366
21
-2.32382
0
LINE
8
BLACK
6
CONTINUOUS
10
2.83366
20
-2.32382
11
2.75689
21
-2.32382
0
LINE
8
BLACK
6
CONTINUOUS
10
3.54331
20
-2.32185
11
3.544
21
-2.32214
0
LINE
8
BLACK
6
CONTINUOUS
10
3.544
20
-2.32214
11
3.54429
21
-2.32283
0
LINE
8
BLACK
6
CONTINUOUS
10
3.54429
20
-2.32283
11
3.54429
21
-2.40157
0
LINE
8
BLACK
6
CONTINUOUS
10
3.54429
20
-2.40157
11
3.544
21
-2.40227
0
LINE
8
BLACK
6
CONTINUOUS
10
3.544
20
-2.40227
11
3.54331
21
-2.40256
0
LINE
8
BLACK
6
CONTINUOUS
10
3.54331
20
-2.40256
11
3.46457
21
-2.40256
0
LINE
8
BLACK
6
CONTINUOUS
10
3.46457
20
-2.40256
11
3.46387
21
-2.40227
0
LINE
8
BLACK
6
CONTINUOUS
10
3.46387
20
-2.40227
11
3.46358
21
-2.40157
0
LINE
8
BLACK
6
CONTINUOUS
10
3.46358
20
-2.40157
11
3.46358
21
-2.32283
0
LINE
8
BLACK
6
CONTINUOUS
10
3.46358
20
-2.32283
11
3.46387
21
-2.32214
0
LINE
8
BLACK
6
CONTINUOUS
10
3.46387
20
-2.32214
11
3.46457
21
-2.32185
0
LINE
8
BLACK
6
CONTINUOUS
10
3.46457
20
-2.32185
11
3.4752
21
-2.32185
0
LINE
8
BLACK
6
CONTINUOUS
10
3.4752
20
-2.32185
11
3.4745
21
-2.32156
0
LINE
8
BLACK
6
CONTINUOUS
10
3.4745
20
-2.32156
11
3.47421
21
-2.32087
0
LINE
8
BLACK
6
CONTINUOUS
10
3.47421
20
-2.32087
11
3.47421
21
-2.29331
0
LINE
8
BLACK
6
CONTINUOUS
10
3.47421
20
-2.29331
11
3.4745
21
-2.29261
0
LINE
8
BLACK
6
CONTINUOUS
10
3.4745
20
-2.29261
11
3.4752
21
-2.29232
0
LINE
8
BLACK
6
CONTINUOUS
10
3.4752
20
-2.29232
11
3.54449
21
-2.29232
0
LINE
8
BLACK
6
CONTINUOUS
10
3.54449
20
-2.29232
11
3.54518
21
-2.29261
0
LINE
8
BLACK
6
CONTINUOUS
10
3.54518
20
-2.29261
11
3.54547
21
-2.29331
0
LINE
8
BLACK
6
CONTINUOUS
10
3.54547
20
-2.29331
11
3.54547
21
-2.32087
0
LINE
8
BLACK
6
CONTINUOUS
10
3.54547
20
-2.32087
11
3.54518
21
-2.32156
0
LINE
8
BLACK
6
CONTINUOUS
10
3.54518
20
-2.32156
11
3.54449
21
-2.32185
0
LINE
8
BLACK
6
CONTINUOUS
10
3.54449
20
-2.32185
11
3.54331
21
-2.32185
0
LINE
8
BLACK
6
CONTINUOUS
10
3.46555
20
-2.32382
11
3.46555
21
-2.40059
0
LINE
8
BLACK
6
CONTINUOUS
10
3.46555
20
-2.40059
11
3.54232
21
-2.40059
0
LINE
8
BLACK
6
CONTINUOUS
10
3.54232
20
-2.40059
11
3.54232
21
-2.32382
0
LINE
8
BLACK
6
CONTINUOUS
10
3.54232
20
-2.32382
11
3.46555
21
-2.32382
0
LINE
8
BLACK
6
CONTINUOUS
10
3.47618
20
-2.29429
11
3.47618
21
-2.31988
0
LINE
8
BLACK
6
CONTINUOUS
10
3.47618
20
-2.31988
11
3.5435
21
-2.31988
0
LINE
8
BLACK
6
CONTINUOUS
10
3.5435
20
-2.31988
11
3.5435
21
-2.29429
0
LINE
8
BLACK
6
CONTINUOUS
10
3.5435
20
-2.29429
11
3.47618
21
-2.29429
0
LINE
8
BLACK
6
CONTINUOUS
10
3.50906
20
-2.22146
11
3.50975
21
-2.22174
0
LINE
8
BLACK
6
CONTINUOUS
10
3.50975
20
-2.22174
11
3.51004
21
-2.22244
0
LINE
8
BLACK
6
CONTINUOUS
10
3.51004
20
-2.22244
11
3.51004
21
-2.22933
0
LINE
8
BLACK
6
CONTINUOUS
10
3.51004
20
-2.22933
11
3.51575
21
-2.22933
0
LINE
8
BLACK
6
CONTINUOUS
10
3.51575
20
-2.22933
11
3.51644
21
-2.22962
0
LINE
8
BLACK
6
CONTINUOUS
10
3.51644
20
-2.22962
11
3.51673
21
-2.23031
0
LINE
8
BLACK
6
CONTINUOUS
10
3.51673
20
-2.23031
11
3.51673
21
-2.27362
0
LINE
8
BLACK
6
CONTINUOUS
10
3.51673
20
-2.27362
11
3.51644
21
-2.27432
0
LINE
8
BLACK
6
CONTINUOUS
10
3.51644
20
-2.27432
11
3.51575
21
-2.27461
0
LINE
8
BLACK
6
CONTINUOUS
10
3.51575
20
-2.27461
11
3.51004
21
-2.27461
0
LINE
8
BLACK
6
CONTINUOUS
10
3.51004
20
-2.27461
11
3.51004
21
-2.2815
0
LINE
8
BLACK
6
CONTINUOUS
10
3.51004
20
-2.2815
11
3.50975
21
-2.28219
0
LINE
8
BLACK
6
CONTINUOUS
10
3.50975
20
-2.28219
11
3.50906
21
-2.28248
0
LINE
8
BLACK
6
CONTINUOUS
10
3.50906
20
-2.28248
11
3.48701
21
-2.28248
0
LINE
8
BLACK
6
CONTINUOUS
10
3.48701
20
-2.28248
11
3.48631
21
-2.28219
0
LINE
8
BLACK
6
CONTINUOUS
10
3.48631
20
-2.28219
11
3.48602
21
-2.2815
0
LINE
8
BLACK
6
CONTINUOUS
10
3.48602
20
-2.2815
11
3.48602
21
-2.27461
0
LINE
8
BLACK
6
CONTINUOUS
10
3.48602
20
-2.27461
11
3.48031
21
-2.27461
0
LINE
8
BLACK
6
CONTINUOUS
10
3.48031
20
-2.27461
11
3.47962
21
-2.27432
0
LINE
8
BLACK
6
CONTINUOUS
10
3.47962
20
-2.27432
11
3.47933
21
-2.27362
0
LINE
8
BLACK
6
CONTINUOUS
10
3.47933
20
-2.27362
11
3.47933
21
-2.23031
0
LINE
8
BLACK
6
CONTINUOUS
10
3.47933
20
-2.23031
11
3.47962
21
-2.22962
0
LINE
8
BLACK
6
CONTINUOUS
10
3.47962
20
-2.22962
11
3.48031
21
-2.22933
0
LINE
8
BLACK
6
CONTINUOUS
10
3.48031
20
-2.22933
11
3.48602
21
-2.22933
0
LINE
8
BLACK
6
CONTINUOUS
10
3.48602
20
-2.22933
11
3.48602
21
-2.22244
0
LINE
8
BLACK
6
CONTINUOUS
10
3.48602
20
-2.22244
11
3.48631
21
-2.22174
0
LINE
8
BLACK
6
CONTINUOUS
10
3.48631
20
-2.22174
11
3.48701
21
-2.22146
0
LINE
8
BLACK
6
CONTINUOUS
10
3.48701
20
-2.22146
11
3.50906
21
-2.22146
0
LINE
8
BLACK
6
CONTINUOUS
10
3.48799
20
-2.22343
11
3.48799
21
-2.23031
0
LINE
8
BLACK
6
CONTINUOUS
10
3.48799
20
-2.23031
11
3.4877
21
-2.23101
0
LINE
8
BLACK
6
CONTINUOUS
10
3.4877
20
-2.23101
11
3.48701
21
-2.2313
0
LINE
8
BLACK
6
CONTINUOUS
10
3.48701
20
-2.2313
11
3.4813
21
-2.2313
0
LINE
8
BLACK
6
CONTINUOUS
10
3.4813
20
-2.2313
11
3.4813
21
-2.27264
0
LINE
8
BLACK
6
CONTINUOUS
10
3.4813
20
-2.27264
11
3.48701
21
-2.27264
0
LINE
8
BLACK
6
CONTINUOUS
10
3.48701
20
-2.27264
11
3.4877
21
-2.27293
0
LINE
8
BLACK
6
CONTINUOUS
10
3.4877
20
-2.27293
11
3.48799
21
-2.27362
0
LINE
8
BLACK
6
CONTINUOUS
10
3.48799
20
-2.27362
11
3.48799
21
-2.28051
0
LINE
8
BLACK
6
CONTINUOUS
10
3.48799
20
-2.28051
11
3.50807
21
-2.28051
0
LINE
8
BLACK
6
CONTINUOUS
10
3.50807
20
-2.28051
11
3.50807
21
-2.27362
0
LINE
8
BLACK
6
CONTINUOUS
10
3.50807
20
-2.27362
11
3.50836
21
-2.27293
0
LINE
8
BLACK
6
CONTINUOUS
10
3.50836
20
-2.27293
11
3.50906
21
-2.27264
0
LINE
8
BLACK
6
CONTINUOUS
10
3.50906
20
-2.27264
11
3.51476
21
-2.27264
0
LINE
8
BLACK
6
CONTINUOUS
10
3.51476
20
-2.27264
11
3.51476
21
-2.2313
0
LINE
8
BLACK
6
CONTINUOUS
10
3.51476
20
-2.2313
11
3.50906
21
-2.2313
0
LINE
8
BLACK
6
CONTINUOUS
10
3.50906
20
-2.2313
11
3.50836
21
-2.23101
0
LINE
8
BLACK
6
CONTINUOUS
10
3.50836
20
-2.23101
11
3.50807
21
-2.23031
0
LINE
8
BLACK
6
CONTINUOUS
10
3.50807
20
-2.23031
11
3.50807
21
-2.22343
0
LINE
8
BLACK
6
CONTINUOUS
10
3.50807
20
-2.22343
11
3.48799
21
-2.22343
0
LINE
8
BLACK
6
CONTINUOUS
10
2.79234
20
-2.20611
11
2.85235
21
-2.24076
0
LINE
8
BLACK
6
CONTINUOUS
10
2.85235
20
-2.24076
11
2.85262
21
-2.24112
0
LINE
8
BLACK
6
CONTINUOUS
10
2.85262
20
-2.24112
11
2.85281
21
-2.24136
0
LINE
8
BLACK
6
CONTINUOUS
10
2.85281
20
-2.24136
11
2.85271
21
-2.2421
0
LINE
8
BLACK
6
CONTINUOUS
10
2.85271
20
-2.2421
11
2.83893
21
-2.26597
0
LINE
8
BLACK
6
CONTINUOUS
10
2.83893
20
-2.26597
11
2.83833
21
-2.26643
0
LINE
8
BLACK
6
CONTINUOUS
10
2.83833
20
-2.26643
11
2.83758
21
-2.26633
0
LINE
8
BLACK
6
CONTINUOUS
10
2.83758
20
-2.26633
11
2.83758
21
-2.26633
0
LINE
8
BLACK
6
CONTINUOUS
10
2.83758
20
-2.26633
11
2.77757
21
-2.23168
0
LINE
8
BLACK
6
CONTINUOUS
10
2.77757
20
-2.23168
11
2.77712
21
-2.23109
0
LINE
8
BLACK
6
CONTINUOUS
10
2.77712
20
-2.23109
11
2.77721
21
-2.23034
0
LINE
8
BLACK
6
CONTINUOUS
10
2.77721
20
-2.23034
11
2.79099
21
-2.20647
0
LINE
8
BLACK
6
CONTINUOUS
10
2.79099
20
-2.20647
11
2.79159
21
-2.20601
0
LINE
8
BLACK
6
CONTINUOUS
10
2.79159
20
-2.20601
11
2.79234
21
-2.20611
0
LINE
8
BLACK
6
CONTINUOUS
10
2.77941
20
-2.23047
11
2.83771
21
-2.26413
0
LINE
8
BLACK
6
CONTINUOUS
10
2.83771
20
-2.26413
11
2.85051
21
-2.24197
0
LINE
8
BLACK
6
CONTINUOUS
10
2.85051
20
-2.24197
11
2.79221
21
-2.20831
0
LINE
8
BLACK
6
CONTINUOUS
10
2.79221
20
-2.20831
11
2.77941
21
-2.23047
0
LINE
8
BLACK
6
CONTINUOUS
10
2.82883
20
-2.13041
11
2.89702
21
-2.16978
0
LINE
8
BLACK
6
CONTINUOUS
10
2.89702
20
-2.16978
11
2.89748
21
-2.17037
0
LINE
8
BLACK
6
CONTINUOUS
10
2.89748
20
-2.17037
11
2.89748
21
-2.17037
0
LINE
8
BLACK
6
CONTINUOUS
10
2.89748
20
-2.17037
11
2.89748
21
-2.17037
0
LINE
8
BLACK
6
CONTINUOUS
10
2.89748
20
-2.17037
11
2.89738
21
-2.17112
0
LINE
8
BLACK
6
CONTINUOUS
10
2.89738
20
-2.17112
11
2.85801
21
-2.23931
0
LINE
8
BLACK
6
CONTINUOUS
10
2.85801
20
-2.23931
11
2.85741
21
-2.23977
0
LINE
8
BLACK
6
CONTINUOUS
10
2.85741
20
-2.23977
11
2.85667
21
-2.23967
0
LINE
8
BLACK
6
CONTINUOUS
10
2.85667
20
-2.23967
11
2.85667
21
-2.23967
0
LINE
8
BLACK
6
CONTINUOUS
10
2.85667
20
-2.23967
11
2.78847
21
-2.2003
0
LINE
8
BLACK
6
CONTINUOUS
10
2.78847
20
-2.2003
11
2.78802
21
-2.1997
0
LINE
8
BLACK
6
CONTINUOUS
10
2.78802
20
-2.1997
11
2.78811
21
-2.19896
0
LINE
8
BLACK
6
CONTINUOUS
10
2.78811
20
-2.19896
11
2.82748
21
-2.13077
0
LINE
8
BLACK
6
CONTINUOUS
10
2.82748
20
-2.13077
11
2.82808
21
-2.13031
0
LINE
8
BLACK
6
CONTINUOUS
10
2.82808
20
-2.13031
11
2.82883
21
-2.13041
0
LINE
8
BLACK
6
CONTINUOUS
10
2.79031
20
-2.19909
11
2.8568
21
-2.23748
0
LINE
8
BLACK
6
CONTINUOUS
10
2.8568
20
-2.23748
11
2.89518
21
-2.17099
0
LINE
8
BLACK
6
CONTINUOUS
10
2.89518
20
-2.17099
11
2.8287
21
-2.1326
0
LINE
8
BLACK
6
CONTINUOUS
10
2.8287
20
-2.1326
11
2.79031
21
-2.19909
0
LINE
8
BLACK
6
CONTINUOUS
10
3.47173
20
-2.13077
11
3.5111
21
-2.19896
0
LINE
8
BLACK
6
CONTINUOUS
10
3.5111
20
-2.19896
11
3.5112
21
-2.1997
0
LINE
8
BLACK
6
CONTINUOUS
10
3.5112
20
-2.1997
11
3.51074
21
-2.2003
0
LINE
8
BLACK
6
CONTINUOUS
10
3.51074
20
-2.2003
11
3.44255
21
-2.23967
0
LINE
8
BLACK
6
CONTINUOUS
10
3.44255
20
-2.23967
11
3.4418
21
-2.23977
0
LINE
8
BLACK
6
CONTINUOUS
10
3.4418
20
-2.23977
11
3.4412
21
-2.23931
0
LINE
8
BLACK
6
CONTINUOUS
10
3.4412
20
-2.23931
11
3.40183
21
-2.17112
0
LINE
8
BLACK
6
CONTINUOUS
10
3.40183
20
-2.17112
11
3.40173
21
-2.17037
0
LINE
8
BLACK
6
CONTINUOUS
10
3.40173
20
-2.17037
11
3.40219
21
-2.16978
0
LINE
8
BLACK
6
CONTINUOUS
10
3.40219
20
-2.16978
11
3.40219
21
-2.16978
0
LINE
8
BLACK
6
CONTINUOUS
10
3.40219
20
-2.16978
11
3.47038
21
-2.13041
0
LINE
8
BLACK
6
CONTINUOUS
10
3.47038
20
-2.13041
11
3.47038
21
-2.13041
0
LINE
8
BLACK
6
CONTINUOUS
10
3.47038
20
-2.13041
11
3.47113
21
-2.13031
0
LINE
8
BLACK
6
CONTINUOUS
10
3.47113
20
-2.13031
11
3.47173
21
-2.13077
0
LINE
8
BLACK
6
CONTINUOUS
10
3.40403
20
-2.17099
11
3.44242
21
-2.23748
0
LINE
8
BLACK
6
CONTINUOUS
10
3.44242
20
-2.23748
11
3.5089
21
-2.19909
0
LINE
8
BLACK
6
CONTINUOUS
10
3.5089
20
-2.19909
11
3.47052
21
-2.1326
0
LINE
8
BLACK
6
CONTINUOUS
10
3.47052
20
-2.1326
11
3.40403
21
-2.17099
0
LINE
8
BLACK
6
CONTINUOUS
10
3.44916
20
-2.10608
11
3.46294
21
-2.12995
0
LINE
8
BLACK
6
CONTINUOUS
10
3.46294
20
-2.12995
11
3.46304
21
-2.13069
0
LINE
8
BLACK
6
CONTINUOUS
10
3.46304
20
-2.13069
11
3.46304
21
-2.13069
0
LINE
8
BLACK
6
CONTINUOUS
10
3.46304
20
-2.13069
11
3.46258
21
-2.13129
0
LINE
8
BLACK
6
CONTINUOUS
10
3.46258
20
-2.13129
11
3.40257
21
-2.16594
0
LINE
8
BLACK
6
CONTINUOUS
10
3.40257
20
-2.16594
11
3.40183
21
-2.16603
0
LINE
8
BLACK
6
CONTINUOUS
10
3.40183
20
-2.16603
11
3.40123
21
-2.16558
0
LINE
8
BLACK
6
CONTINUOUS
10
3.40123
20
-2.16558
11
3.40123
21
-2.16558
0
LINE
8
BLACK
6
CONTINUOUS
10
3.40123
20
-2.16558
11
3.38745
21
-2.14171
0
LINE
8
BLACK
6
CONTINUOUS
10
3.38745
20
-2.14171
11
3.38735
21
-2.14096
0
LINE
8
BLACK
6
CONTINUOUS
10
3.38735
20
-2.14096
11
3.38781
21
-2.14036
0
LINE
8
BLACK
6
CONTINUOUS
10
3.38781
20
-2.14036
11
3.38781
21
-2.14036
0
LINE
8
BLACK
6
CONTINUOUS
10
3.38781
20
-2.14036
11
3.44782
21
-2.10572
0
LINE
8
BLACK
6
CONTINUOUS
10
3.44782
20
-2.10572
11
3.44782
21
-2.10572
0
LINE
8
BLACK
6
CONTINUOUS
10
3.44782
20
-2.10572
11
3.44857
21
-2.10562
0
LINE
8
BLACK
6
CONTINUOUS
10
3.44857
20
-2.10562
11
3.44916
21
-2.10608
0
LINE
8
BLACK
6
CONTINUOUS
10
3.38965
20
-2.14158
11
3.40244
21
-2.16374
0
LINE
8
BLACK
6
CONTINUOUS
10
3.40244
20
-2.16374
11
3.46075
21
-2.13008
0
LINE
8
BLACK
6
CONTINUOUS
10
3.46075
20
-2.13008
11
3.44795
21
-2.10792
0
LINE
8
BLACK
6
CONTINUOUS
10
3.44795
20
-2.10792
11
3.38965
21
-2.14158
0
LINE
8
BLACK
6
CONTINUOUS
10
2.91633
20
-2.04658
11
2.95097
21
-2.10659
0
LINE
8
BLACK
6
CONTINUOUS
10
2.95097
20
-2.10659
11
2.95104
21
-2.10706
0
LINE
8
BLACK
6
CONTINUOUS
10
2.95104
20
-2.10706
11
2.95107
21
-2.10733
0
LINE
8
BLACK
6
CONTINUOUS
10
2.95107
20
-2.10733
11
2.95061
21
-2.10793
0
LINE
8
BLACK
6
CONTINUOUS
10
2.95061
20
-2.10793
11
2.92675
21
-2.12171
0
LINE
8
BLACK
6
CONTINUOUS
10
2.92675
20
-2.12171
11
2.926
21
-2.12181
0
LINE
8
BLACK
6
CONTINUOUS
10
2.926
20
-2.12181
11
2.9254
21
-2.12135
0
LINE
8
BLACK
6
CONTINUOUS
10
2.9254
20
-2.12135
11
2.9254
21
-2.12135
0
LINE
8
BLACK
6
CONTINUOUS
10
2.9254
20
-2.12135
11
2.89076
21
-2.06134
0
LINE
8
BLACK
6
CONTINUOUS
10
2.89076
20
-2.06134
11
2.89066
21
-2.0606
0
LINE
8
BLACK
6
CONTINUOUS
10
2.89066
20
-2.0606
11
2.89112
21
-2.06
0
LINE
8
BLACK
6
CONTINUOUS
10
2.89112
20
-2.06
11
2.91498
21
-2.04622
0
LINE
8
BLACK
6
CONTINUOUS
10
2.91498
20
-2.04622
11
2.91573
21
-2.04612
0
LINE
8
BLACK
6
CONTINUOUS
10
2.91573
20
-2.04612
11
2.91573
21
-2.04612
0
LINE
8
BLACK
6
CONTINUOUS
10
2.91573
20
-2.04612
11
2.91633
21
-2.04658
0
LINE
8
BLACK
6
CONTINUOUS
10
2.89295
20
-2.06121
11
2.92662
21
-2.11952
0
LINE
8
BLACK
6
CONTINUOUS
10
2.92662
20
-2.11952
11
2.94878
21
-2.10672
0
LINE
8
BLACK
6
CONTINUOUS
10
2.94878
20
-2.10672
11
2.91512
21
-2.04842
0
LINE
8
BLACK
6
CONTINUOUS
10
2.91512
20
-2.04842
11
2.89295
21
-2.06121
0
LINE
8
BLACK
6
CONTINUOUS
10
2.9877
20
-2.00107
11
3.02707
21
-2.06926
0
LINE
8
BLACK
6
CONTINUOUS
10
3.02707
20
-2.06926
11
3.02717
21
-2.07001
0
LINE
8
BLACK
6
CONTINUOUS
10
3.02717
20
-2.07001
11
3.02671
21
-2.07061
0
LINE
8
BLACK
6
CONTINUOUS
10
3.02671
20
-2.07061
11
2.95852
21
-2.10998
0
LINE
8
BLACK
6
CONTINUOUS
10
2.95852
20
-2.10998
11
2.95778
21
-2.11008
0
LINE
8
BLACK
6
CONTINUOUS
10
2.95778
20
-2.11008
11
2.95718
21
-2.10962
0
LINE
8
BLACK
6
CONTINUOUS
10
2.95718
20
-2.10962
11
2.95718
21
-2.10962
0
LINE
8
BLACK
6
CONTINUOUS
10
2.95718
20
-2.10962
11
2.91781
21
-2.04143
0
LINE
8
BLACK
6
CONTINUOUS
10
2.91781
20
-2.04143
11
2.91771
21
-2.04068
0
LINE
8
BLACK
6
CONTINUOUS
10
2.91771
20
-2.04068
11
2.91817
21
-2.04008
0
LINE
8
BLACK
6
CONTINUOUS
10
2.91817
20
-2.04008
11
2.91817
21
-2.04008
0
LINE
8
BLACK
6
CONTINUOUS
10
2.91817
20
-2.04008
11
2.98636
21
-2.00071
0
LINE
8
BLACK
6
CONTINUOUS
10
2.98636
20
-2.00071
11
2.98636
21
-2.00071
0
LINE
8
BLACK
6
CONTINUOUS
10
2.98636
20
-2.00071
11
2.98711
21
-2.00061
0
LINE
8
BLACK
6
CONTINUOUS
10
2.98711
20
-2.00061
11
2.9877
21
-2.00107
0
LINE
8
BLACK
6
CONTINUOUS
10
2.92
20
-2.0413
11
2.95839
21
-2.10778
0
LINE
8
BLACK
6
CONTINUOUS
10
2.95839
20
-2.10778
11
3.02488
21
-2.0694
0
LINE
8
BLACK
6
CONTINUOUS
10
3.02488
20
-2.0694
11
2.98649
21
-2.00291
0
LINE
8
BLACK
6
CONTINUOUS
10
2.98649
20
-2.00291
11
2.92
21
-2.0413
0
LINE
8
BLACK
6
CONTINUOUS
10
3.31285
20
-2.00071
11
3.38104
21
-2.04008
0
LINE
8
BLACK
6
CONTINUOUS
10
3.38104
20
-2.04008
11
3.3815
21
-2.04068
0
LINE
8
BLACK
6
CONTINUOUS
10
3.3815
20
-2.04068
11
3.3815
21
-2.04068
0
LINE
8
BLACK
6
CONTINUOUS
10
3.3815
20
-2.04068
11
3.3815
21
-2.04068
0
LINE
8
BLACK
6
CONTINUOUS
10
3.3815
20
-2.04068
11
3.3814
21
-2.04143
0
LINE
8
BLACK
6
CONTINUOUS
10
3.3814
20
-2.04143
11
3.34203
21
-2.10962
0
LINE
8
BLACK
6
CONTINUOUS
10
3.34203
20
-2.10962
11
3.34144
21
-2.11008
0
LINE
8
BLACK
6
CONTINUOUS
10
3.34144
20
-2.11008
11
3.34069
21
-2.10998
0
LINE
8
BLACK
6
CONTINUOUS
10
3.34069
20
-2.10998
11
3.34069
21
-2.10998
0
LINE
8
BLACK
6
CONTINUOUS
10
3.34069
20
-2.10998
11
3.2725
21
-2.07061
0
LINE
8
BLACK
6
CONTINUOUS
10
3.2725
20
-2.07061
11
3.27204
21
-2.07001
0
LINE
8
BLACK
6
CONTINUOUS
10
3.27204
20
-2.07001
11
3.27214
21
-2.06926
0
LINE
8
BLACK
6
CONTINUOUS
10
3.27214
20
-2.06926
11
3.31151
21
-2.00107
0
LINE
8
BLACK
6
CONTINUOUS
10
3.31151
20
-2.00107
11
3.31211
21
-2.00061
0
LINE
8
BLACK
6
CONTINUOUS
10
3.31211
20
-2.00061
11
3.31285
21
-2.00071
0
LINE
8
BLACK
6
CONTINUOUS
10
3.27434
20
-2.0694
11
3.34082
21
-2.10778
0
LINE
8
BLACK
6
CONTINUOUS
10
3.34082
20
-2.10778
11
3.37921
21
-2.0413
0
LINE
8
BLACK
6
CONTINUOUS
10
3.37921
20
-2.0413
11
3.31272
21
-2.00291
0
LINE
8
BLACK
6
CONTINUOUS
10
3.31272
20
-2.00291
11
3.27434
21
-2.0694
0
LINE
8
BLACK
6
CONTINUOUS
10
3.28147
20
-1.98981
11
3.30534
21
-2.00359
0
LINE
8
BLACK
6
CONTINUOUS
10
3.30534
20
-2.00359
11
3.3058
21
-2.00419
0
LINE
8
BLACK
6
CONTINUOUS
10
3.3058
20
-2.00419
11
3.3058
21
-2.00419
0
LINE
8
BLACK
6
CONTINUOUS
10
3.3058
20
-2.00419
11
3.3058
21
-2.00419
0
LINE
8
BLACK
6
CONTINUOUS
10
3.3058
20
-2.00419
11
3.3057
21
-2.00494
0
LINE
8
BLACK
6
CONTINUOUS
10
3.3057
20
-2.00494
11
3.27105
21
-2.06494
0
LINE
8
BLACK
6
CONTINUOUS
10
3.27105
20
-2.06494
11
3.27046
21
-2.0654
0
LINE
8
BLACK
6
CONTINUOUS
10
3.27046
20
-2.0654
11
3.27046
21
-2.0654
0
LINE
8
BLACK
6
CONTINUOUS
10
3.27046
20
-2.0654
11
3.27046
21
-2.0654
0
LINE
8
BLACK
6
CONTINUOUS
10
3.27046
20
-2.0654
11
3.26971
21
-2.06531
0
LINE
8
BLACK
6
CONTINUOUS
10
3.26971
20
-2.06531
11
3.24584
21
-2.05153
0
LINE
8
BLACK
6
CONTINUOUS
10
3.24584
20
-2.05153
11
3.24538
21
-2.05093
0
LINE
8
BLACK
6
CONTINUOUS
10
3.24538
20
-2.05093
11
3.24548
21
-2.05018
0
LINE
8
BLACK
6
CONTINUOUS
10
3.24548
20
-2.05018
11
3.24548
21
-2.05018
0
LINE
8
BLACK
6
CONTINUOUS
10
3.24548
20
-2.05018
11
3.28013
21
-1.99017
0
LINE
8
BLACK
6
CONTINUOUS
10
3.28013
20
-1.99017
11
3.28073
21
-1.98971
0
LINE
8
BLACK
6
CONTINUOUS
10
3.28073
20
-1.98971
11
3.28147
21
-1.98981
0
LINE
8
BLACK
6
CONTINUOUS
10
3.24768
20
-2.05031
11
3.26984
21
-2.06311
0
LINE
8
BLACK
6
CONTINUOUS
10
3.26984
20
-2.06311
11
3.3035
21
-2.00481
0
LINE
8
BLACK
6
CONTINUOUS
10
3.3035
20
-2.00481
11
3.28134
21
-1.99201
0
LINE
8
BLACK
6
CONTINUOUS
10
3.28134
20
-1.99201
11
3.24768
21
-2.05031
0
LINE
8
BLACK
6
CONTINUOUS
10
3.18898
20
-1.96752
11
3.18967
21
-1.96781
0
LINE
8
BLACK
6
CONTINUOUS
10
3.18967
20
-1.96781
11
3.18996
21
-1.9685
0
LINE
8
BLACK
6
CONTINUOUS
10
3.18996
20
-1.9685
11
3.18996
21
-2.04724
0
LINE
8
BLACK
6
CONTINUOUS
10
3.18996
20
-2.04724
11
3.18967
21
-2.04794
0
LINE
8
BLACK
6
CONTINUOUS
10
3.18967
20
-2.04794
11
3.18898
21
-2.04823
0
LINE
8
BLACK
6
CONTINUOUS
10
3.18898
20
-2.04823
11
3.11024
21
-2.04823
0
LINE
8
BLACK
6
CONTINUOUS
10
3.11024
20
-2.04823
11
3.10954
21
-2.04794
0
LINE
8
BLACK
6
CONTINUOUS
10
3.10954
20
-2.04794
11
3.10925
21
-2.04724
0
LINE
8
BLACK
6
CONTINUOUS
10
3.10925
20
-2.04724
11
3.10925
21
-1.9685
0
LINE
8
BLACK
6
CONTINUOUS
10
3.10925
20
-1.9685
11
3.10954
21
-1.96781
0
LINE
8
BLACK
6
CONTINUOUS
10
3.10954
20
-1.96781
11
3.11024
21
-1.96752
0
LINE
8
BLACK
6
CONTINUOUS
10
3.11024
20
-1.96752
11
3.18898
21
-1.96752
0
LINE
8
BLACK
6
CONTINUOUS
10
3.11122
20
-1.96949
11
3.11122
21
-2.04626
0
LINE
8
BLACK
6
CONTINUOUS
10
3.11122
20
-2.04626
11
3.18799
21
-2.04626
0
LINE
8
BLACK
6
CONTINUOUS
10
3.18799
20
-2.04626
11
3.18799
21
-1.96949
0
LINE
8
BLACK
6
CONTINUOUS
10
3.18799
20
-1.96949
11
3.11122
21
-1.96949
0
LINE
8
BLACK
6
CONTINUOUS
10
3.10433
20
-1.97461
11
3.10503
21
-1.97489
0
LINE
8
BLACK
6
CONTINUOUS
10
3.10503
20
-1.97489
11
3.10531
21
-1.97559
0
LINE
8
BLACK
6
CONTINUOUS
10
3.10531
20
-1.97559
11
3.10531
21
-2.04488
0
LINE
8
BLACK
6
CONTINUOUS
10
3.10531
20
-2.04488
11
3.10503
21
-2.04558
0
LINE
8
BLACK
6
CONTINUOUS
10
3.10503
20
-2.04558
11
3.10433
21
-2.04587
0
LINE
8
BLACK
6
CONTINUOUS
10
3.10433
20
-2.04587
11
3.07677
21
-2.04587
0
LINE
8
BLACK
6
CONTINUOUS
10
3.07677
20
-2.04587
11
3.07608
21
-2.04558
0
LINE
8
BLACK
6
CONTINUOUS
10
3.07608
20
-2.04558
11
3.07579
21
-2.04488
0
LINE
8
BLACK
6
CONTINUOUS
10
3.07579
20
-2.04488
11
3.07579
21
-1.97559
0
LINE
8
BLACK
6
CONTINUOUS
10
3.07579
20
-1.97559
11
3.07608
21
-1.97489
0
LINE
8
BLACK
6
CONTINUOUS
10
3.07608
20
-1.97489
11
3.07677
21
-1.97461
0
LINE
8
BLACK
6
CONTINUOUS
10
3.07677
20
-1.97461
11
3.10433
21
-1.97461
0
LINE
8
BLACK
6
CONTINUOUS
10
3.07776
20
-1.97657
11
3.07776
21
-2.0439
0
LINE
8
BLACK
6
CONTINUOUS
10
3.07776
20
-2.0439
11
3.10335
21
-2.0439
0
LINE
8
BLACK
6
CONTINUOUS
10
3.10335
20
-2.0439
11
3.10335
21
-1.97657
0
LINE
8
BLACK
6
CONTINUOUS
10
3.10335
20
-1.97657
11
3.07776
21
-1.97657
  0
ENDSEC
  0
EOF
