  0
SECTION
  2
HEADER
  9
$ANGBASE
  50
0.0
  9
$ANGDIR
  70
1
  9
$MEASUREMENT
  70
0
  0
ENDSEC
  0
SECTION
  2
TABLES
  0
TABLE
  2
LTYPE
  70
4
  0
LTYPE
  5
40F
  2
CONTINUOUS
  70
0
  3
Solid line
  72
65
  73
0
  40
0.0
  0
LTYPE
  5
410
  2
DASHDOT
 70
0
  3
Dash Dot ____ _ ____ _
 72
65
 73
4
 40
2.0
 49
1.25
 49
-0.25
 49
0.25
 49
-0.25
  0
LTYPE
  5
411
  2
DASHED
 70
0
  3
Dashed __ __ __ __ __
 72
65
 73
2
 40
0.75
 49
0.5
 49
-0.25
  0
LTYPE
  5
43B
  2
DOTTED
 70
0
  3
Dotted .  .  .  .
 72
65
 73
2
 40
0.2
 49
0.0
 49
-0.2
  0
ENDTAB
  0
TABLE
  2
STYLE
  70
4
  0
STYLE
  2
KICAD
  70
0
  40
0
  41
1
  42
1
  50
0
  71
0
  3
isocp.shx
  0
STYLE
  2
KICADB
  70
0
  40
0
  41
1
  42
1
  50
0
  71
0
  3
isocp.shx
  0
STYLE
  2
KICADI
  70
0
  40
0
  41
1
  42
1
  50
15
  71
0
  3
isocp.shx
  0
STYLE
  2
KICADBI
  70
0
  40
0
  41
1
  42
1
  50
15
  71
0
  3
isocp.shx
  0
ENDTAB
  0
TABLE
  2
LAYER
  70
1
  0
LAYER
  2
BLACK
  70
0
  62
7
  6
CONTINUOUS
  0
ENDTAB
  0
ENDSEC
  0
SECTION
  2
ENTITIES
0
LINE
8
BLACK
6
CONTINUOUS
10
3.1787913779527557
20
-2.1218440944881891
11
3.198037716535433
21
-2.1249719291338582
0
LINE
8
BLACK
6
CONTINUOUS
10
3.198037716535433
20
-2.1249719291338582
11
3.2169699606299211
21
-2.129638346456693
0
LINE
8
BLACK
6
CONTINUOUS
10
3.2169699606299211
20
-2.129638346456693
11
3.2354653543307088
21
-2.1358129921259841
0
LINE
8
BLACK
6
CONTINUOUS
10
3.2354653543307088
20
-2.1358129921259841
11
3.2534038976377953
21
-2.1434559055118108
0
LINE
8
BLACK
6
CONTINUOUS
10
3.2534038976377953
20
-2.1434559055118108
11
3.2706692913385824
21
-2.1525174803149607
0
LINE
8
BLACK
6
CONTINUOUS
10
3.2706692913385824
20
-2.1525174803149607
11
3.287149527559055
21
-2.162938937007874
0
LINE
8
BLACK
6
CONTINUOUS
10
3.287149527559055
20
-2.162938937007874
11
3.3027377559055116
21
-2.1746527165354332
0
LINE
8
BLACK
6
CONTINUOUS
10
3.3027377559055116
20
-2.1746527165354332
11
3.3173328740157482
21
-2.1875828740157481
0
LINE
8
BLACK
6
CONTINUOUS
10
3.3173328740157482
20
-2.1875828740157481
11
3.3308401968503936
21
-2.2016455118110234
0
LINE
8
BLACK
6
CONTINUOUS
10
3.3308401968503936
20
-2.2016455118110234
11
3.3431721653543307
21
-2.2167494094488189
0
LINE
8
BLACK
6
CONTINUOUS
10
3.3431721653543307
20
-2.2167494094488189
11
3.3542487795275591
21
-2.232796653543307
0
LINE
8
BLACK
6
CONTINUOUS
10
3.3542487795275591
20
-2.232796653543307
11
3.3639982283464565
21
-2.249683149606299
0
LINE
8
BLACK
6
CONTINUOUS
10
3.3639982283464565
20
-2.249683149606299
11
3.3723572440944882
21
-2.2672994094488188
0
LINE
8
BLACK
6
CONTINUOUS
10
3.3723572440944882
20
-2.2672994094488188
11
3.3792716141732284
21
-2.2855311811023622
0
LINE
8
BLACK
6
CONTINUOUS
10
3.3792716141732284
20
-2.2855311811023622
11
3.3846965354330707
21
-2.3042601968503935
0
LINE
8
BLACK
6
CONTINUOUS
10
3.3846965354330707
20
-2.3042601968503935
11
3.3885968110236218
21
-2.3233649999999999
0
LINE
8
BLACK
6
CONTINUOUS
10
3.3885968110236218
20
-2.3233649999999999
11
3.3909471259842521
21
-2.3427216929133858
0
LINE
8
BLACK
6
CONTINUOUS
10
3.3909471259842521
20
-2.3427216929133858
11
3.3917322834645667
21
-2.3622047244094486
0
LINE
8
BLACK
6
CONTINUOUS
10
3.3917322834645667
20
-2.3622047244094486
11
3.3909471259842521
21
-2.3816877559055118
0
LINE
8
BLACK
6
CONTINUOUS
10
3.3909471259842521
20
-2.3816877559055118
11
3.3885968110236218
21
-2.4010444488188978
0
LINE
8
BLACK
6
CONTINUOUS
10
3.3885968110236218
20
-2.4010444488188978
11
3.3846965354330707
21
-2.4201492519685037
0
LINE
8
BLACK
6
CONTINUOUS
10
3.3846965354330707
20
-2.4201492519685037
11
3.3792716141732284
21
-2.4388782677165355
0
LINE
8
BLACK
6
CONTINUOUS
10
3.3792716141732284
20
-2.4388782677165355
11
3.3723572440944882
21
-2.4571100393700789
0
LINE
8
BLACK
6
CONTINUOUS
10
3.3723572440944882
20
-2.4571100393700789
11
3.3639982283464565
21
-2.4747262992125982
0
LINE
8
BLACK
6
CONTINUOUS
10
3.3639982283464565
20
-2.4747262992125982
11
3.3542487795275591
21
-2.4916127952755907
0
LINE
8
BLACK
6
CONTINUOUS
10
3.3542487795275591
20
-2.4916127952755907
11
3.3431721653543307
21
-2.5076600393700788
0
LINE
8
BLACK
6
CONTINUOUS
10
3.3431721653543307
20
-2.5076600393700788
11
3.3308401968503936
21
-2.5227639370078738
0
LINE
8
BLACK
6
CONTINUOUS
10
3.3308401968503936
20
-2.5227639370078738
11
3.3173328740157482
21
-2.5368265748031495
0
LINE
8
BLACK
6
CONTINUOUS
10
3.3173328740157482
20
-2.5368265748031495
11
3.3027377559055116
21
-2.5497567322834644
0
LINE
8
BLACK
6
CONTINUOUS
10
3.3027377559055116
20
-2.5497567322834644
11
3.287149527559055
21
-2.5614705118110237
0
LINE
8
BLACK
6
CONTINUOUS
10
3.287149527559055
20
-2.5614705118110237
11
3.2706692913385824
21
-2.571891968503937
0
LINE
8
BLACK
6
CONTINUOUS
10
3.2706692913385824
20
-2.571891968503937
11
3.2534038976377953
21
-2.5809535433070865
0
LINE
8
BLACK
6
CONTINUOUS
10
3.2534038976377953
20
-2.5809535433070865
11
3.2354653543307088
21
-2.5885964566929132
0
LINE
8
BLACK
6
CONTINUOUS
10
3.2354653543307088
20
-2.5885964566929132
11
3.2169699606299211
21
-2.5947711023622047
0
LINE
8
BLACK
6
CONTINUOUS
10
3.2169699606299211
20
-2.5947711023622047
11
3.198037716535433
21
-2.5994375196850394
0
LINE
8
BLACK
6
CONTINUOUS
10
3.198037716535433
20
-2.5994375196850394
11
3.1787913779527557
21
-2.6025653543307086
0
LINE
8
BLACK
6
CONTINUOUS
10
3.1787913779527557
20
-2.6025653543307086
11
3.159355748031496
21
-2.6041343307086615
0
LINE
8
BLACK
6
CONTINUOUS
10
3.159355748031496
20
-2.6041343307086615
11
3.1398568503937008
21
-2.6041343307086615
0
LINE
8
BLACK
6
CONTINUOUS
10
3.1398568503937008
20
-2.6041343307086615
11
3.1204212204724411
21
-2.6025653543307086
0
LINE
8
BLACK
6
CONTINUOUS
10
3.1204212204724411
20
-2.6025653543307086
11
3.1011748818897638
21
-2.5994375196850394
0
LINE
8
BLACK
6
CONTINUOUS
10
3.1011748818897638
20
-2.5994375196850394
11
3.0822426377952756
21
-2.5947711023622047
0
LINE
8
BLACK
6
CONTINUOUS
10
3.0822426377952756
20
-2.5947711023622047
11
3.063747244094488
21
-2.5885964566929132
0
LINE
8
BLACK
6
CONTINUOUS
10
3.063747244094488
20
-2.5885964566929132
11
3.0458087007874015
21
-2.5809535433070865
0
LINE
8
BLACK
6
CONTINUOUS
10
3.0458087007874015
20
-2.5809535433070865
11
3.0285433070866139
21
-2.571891968503937
0
LINE
8
BLACK
6
CONTINUOUS
10
3.0285433070866139
20
-2.571891968503937
11
3.0120630708661418
21
-2.5614705118110237
0
LINE
8
BLACK
6
CONTINUOUS
10
3.0120630708661418
20
-2.5614705118110237
11
2.9964748425196848
21
-2.5497567322834644
0
LINE
8
BLACK
6
CONTINUOUS
10
2.9964748425196848
20
-2.5497567322834644
11
2.9818797244094486
21
-2.5368265748031495
0
LINE
8
BLACK
6
CONTINUOUS
10
2.9818797244094486
20
-2.5368265748031495
11
2.9683724015748032
21
-2.5227639370078738
0
LINE
8
BLACK
6
CONTINUOUS
10
2.9683724015748032
20
-2.5227639370078738
11
2.9560404330708661
21
-2.5076600393700788
0
LINE
8
BLACK
6
CONTINUOUS
10
2.9560404330708661
20
-2.5076600393700788
11
2.9449638188976377
21
-2.4916127952755907
0
LINE
8
BLACK
6
CONTINUOUS
10
2.9449638188976377
20
-2.4916127952755907
11
2.9352143700787403
21
-2.4747262992125982
0
LINE
8
BLACK
6
CONTINUOUS
10
2.9352143700787403
20
-2.4747262992125982
11
2.9268553543307085
21
-2.4571100393700789
0
LINE
8
BLACK
6
CONTINUOUS
10
2.9268553543307085
20
-2.4571100393700789
11
2.9199409842519684
21
-2.4388782677165355
0
LINE
8
BLACK
6
CONTINUOUS
10
2.9199409842519684
20
-2.4388782677165355
11
2.9145160629921261
21
-2.4201492519685037
0
LINE
8
BLACK
6
CONTINUOUS
10
2.9145160629921261
20
-2.4201492519685037
11
2.9106157874015746
21
-2.4010444488188978
0
LINE
8
BLACK
6
CONTINUOUS
10
2.9106157874015746
20
-2.4010444488188978
11
2.9082654724409447
21
-2.3816877559055118
0
LINE
8
BLACK
6
CONTINUOUS
10
2.9082654724409447
20
-2.3816877559055118
11
2.9074803149606296
21
-2.3622047244094486
0
LINE
8
BLACK
6
CONTINUOUS
10
2.9074803149606296
20
-2.3622047244094486
11
2.9082654724409447
21
-2.3427216929133858
0
LINE
8
BLACK
6
CONTINUOUS
10
2.9082654724409447
20
-2.3427216929133858
11
2.9106157874015746
21
-2.3233649999999999
0
LINE
8
BLACK
6
CONTINUOUS
10
2.9106157874015746
20
-2.3233649999999999
11
2.9145160629921261
21
-2.3042601968503935
0
LINE
8
BLACK
6
CONTINUOUS
10
2.9145160629921261
20
-2.3042601968503935
11
2.9199409842519684
21
-2.2855311811023622
0
LINE
8
BLACK
6
CONTINUOUS
10
2.9199409842519684
20
-2.2855311811023622
11
2.9268553543307085
21
-2.2672994094488188
0
LINE
8
BLACK
6
CONTINUOUS
10
2.9268553543307085
20
-2.2672994094488188
11
2.9352143700787403
21
-2.249683149606299
0
LINE
8
BLACK
6
CONTINUOUS
10
2.9352143700787403
20
-2.249683149606299
11
2.9449638188976377
21
-2.232796653543307
0
LINE
8
BLACK
6
CONTINUOUS
10
2.9449638188976377
20
-2.232796653543307
11
2.9560404330708661
21
-2.2167494094488189
0
LINE
8
BLACK
6
CONTINUOUS
10
2.9560404330708661
20
-2.2167494094488189
11
2.9683724015748032
21
-2.2016455118110234
0
LINE
8
BLACK
6
CONTINUOUS
10
2.9683724015748032
20
-2.2016455118110234
11
2.9818797244094486
21
-2.1875828740157481
0
LINE
8
BLACK
6
CONTINUOUS
10
2.9818797244094486
20
-2.1875828740157481
11
2.9964748425196848
21
-2.1746527165354332
0
LINE
8
BLACK
6
CONTINUOUS
10
2.9964748425196848
20
-2.1746527165354332
11
3.0120630708661418
21
-2.162938937007874
0
LINE
8
BLACK
6
CONTINUOUS
10
3.0120630708661418
20
-2.162938937007874
11
3.0285433070866139
21
-2.1525174803149607
0
LINE
8
BLACK
6
CONTINUOUS
10
3.0285433070866139
20
-2.1525174803149607
11
3.0458087007874015
21
-2.1434559055118108
0
LINE
8
BLACK
6
CONTINUOUS
10
3.0458087007874015
20
-2.1434559055118108
11
3.063747244094488
21
-2.1358129921259841
0
LINE
8
BLACK
6
CONTINUOUS
10
3.063747244094488
20
-2.1358129921259841
11
3.0822426377952756
21
-2.129638346456693
0
LINE
8
BLACK
6
CONTINUOUS
10
3.0822426377952756
20
-2.129638346456693
11
3.1011748818897638
21
-2.1249719291338582
0
LINE
8
BLACK
6
CONTINUOUS
10
3.1011748818897638
20
-2.1249719291338582
11
3.1204212204724411
21
-2.1218440944881891
0
LINE
8
BLACK
6
CONTINUOUS
10
3.1204212204724411
20
-2.1218440944881891
11
3.1398568503937008
21
-2.1202751181102362
0
LINE
8
BLACK
6
CONTINUOUS
10
3.1398568503937008
20
-2.1202751181102362
11
3.159355748031496
21
-2.1202751181102362
0
LINE
8
BLACK
6
CONTINUOUS
10
3.159355748031496
20
-2.1202751181102362
11
3.1787913779527557
21
-2.1218440944881891
0
LINE
8
BLACK
6
CONTINUOUS
10
2.9119969685039369
20
-2.3813865354330708
11
2.9143109842519683
21
-2.4004439370078741
0
LINE
8
BLACK
6
CONTINUOUS
10
2.9143109842519683
20
-2.4004439370078741
11
2.9181509448818899
21
-2.419253346456693
0
LINE
8
BLACK
6
CONTINUOUS
10
2.9181509448818899
20
-2.419253346456693
11
2.9234919685039369
21
-2.4376927952755905
0
LINE
8
BLACK
6
CONTINUOUS
10
2.9234919685039369
20
-2.4376927952755905
11
2.9302994488188974
21
-2.4556426377952754
0
LINE
8
BLACK
6
CONTINUOUS
10
2.9302994488188974
20
-2.4556426377952754
11
2.9385292519685038
21
-2.4729864960629921
0
LINE
8
BLACK
6
CONTINUOUS
10
2.9385292519685038
20
-2.4729864960629921
11
2.9481279133858269
21
-2.4896119291338583
0
LINE
8
BLACK
6
CONTINUOUS
10
2.9481279133858269
20
-2.4896119291338583
11
2.9590332677165354
21
-2.5054110629921258
0
LINE
8
BLACK
6
CONTINUOUS
10
2.9590332677165354
20
-2.5054110629921258
11
2.9711745669291338
21
-2.5202814566929135
0
LINE
8
BLACK
6
CONTINUOUS
10
2.9711745669291338
20
-2.5202814566929135
11
2.9844730708661418
21
-2.5341266535433071
0
LINE
8
BLACK
6
CONTINUOUS
10
2.9844730708661418
20
-2.5341266535433071
11
2.9988425196850392
21
-2.5468568503937008
0
LINE
8
BLACK
6
CONTINUOUS
10
2.9988425196850392
20
-2.5468568503937008
11
3.0141897244094489
21
-2.5583895275590551
0
LINE
8
BLACK
6
CONTINUOUS
10
3.0141897244094489
20
-2.5583895275590551
11
3.0304151181102363
21
-2.5686498818897636
0
LINE
8
BLACK
6
CONTINUOUS
10
3.0304151181102363
20
-2.5686498818897636
11
3.0474135826771653
21
-2.5775713385826773
0
LINE
8
BLACK
6
CONTINUOUS
10
3.0474135826771653
20
-2.5775713385826773
11
3.0650747637795277
21
-2.5850960629921258
0
LINE
8
BLACK
6
CONTINUOUS
10
3.0650747637795277
20
-2.5850960629921258
11
3.0832841732283462
21
-2.5911752755905511
0
LINE
8
BLACK
6
CONTINUOUS
10
3.0832841732283462
20
-2.5911752755905511
11
3.1019237007874016
21
-2.5957694881889761
0
LINE
8
BLACK
6
CONTINUOUS
10
3.1019237007874016
20
-2.5957694881889761
11
3.1208724803149606
21
-2.5988489763779525
0
LINE
8
BLACK
6
CONTINUOUS
10
3.1208724803149606
20
-2.5988489763779525
11
3.1400075984251967
21
-2.6003937007874014
0
LINE
8
BLACK
6
CONTINUOUS
10
3.1400075984251967
20
-2.6003937007874014
11
3.159205
21
-2.6003937007874014
0
LINE
8
BLACK
6
CONTINUOUS
10
3.159205
20
-2.6003937007874014
11
3.1783401181102362
21
-2.5988489763779525
0
LINE
8
BLACK
6
CONTINUOUS
10
3.1783401181102362
20
-2.5988489763779525
11
3.1972888976377951
21
-2.5957694881889761
0
LINE
8
BLACK
6
CONTINUOUS
10
3.1972888976377951
20
-2.5957694881889761
11
3.2159284251968505
21
-2.5911752755905511
0
LINE
8
BLACK
6
CONTINUOUS
10
3.2159284251968505
20
-2.5911752755905511
11
3.2341378346456691
21
-2.5850960629921258
0
LINE
8
BLACK
6
CONTINUOUS
10
3.2341378346456691
20
-2.5850960629921258
11
3.2517990157480314
21
-2.5775713385826773
0
LINE
8
BLACK
6
CONTINUOUS
10
3.2517990157480314
20
-2.5775713385826773
11
3.2687974803149604
21
-2.5686498818897636
0
LINE
8
BLACK
6
CONTINUOUS
10
3.2687974803149604
20
-2.5686498818897636
11
3.2850228740157479
21
-2.5583895275590551
0
LINE
8
BLACK
6
CONTINUOUS
10
3.2850228740157479
20
-2.5583895275590551
11
3.3003700787401575
21
-2.5468568503937008
0
LINE
8
BLACK
6
CONTINUOUS
10
3.3003700787401575
20
-2.5468568503937008
11
3.314739527559055
21
-2.5341266535433071
0
LINE
8
BLACK
6
CONTINUOUS
10
3.314739527559055
20
-2.5341266535433071
11
3.3280380314960629
21
-2.5202814566929135
0
LINE
8
BLACK
6
CONTINUOUS
10
3.3280380314960629
20
-2.5202814566929135
11
3.3401793307086614
21
-2.5054110629921258
0
LINE
8
BLACK
6
CONTINUOUS
10
3.3401793307086614
20
-2.5054110629921258
11
3.3510846850393698
21
-2.4896119291338583
0
LINE
8
BLACK
6
CONTINUOUS
10
3.3510846850393698
20
-2.4896119291338583
11
3.360683346456693
21
-2.4729864960629921
0
LINE
8
BLACK
6
CONTINUOUS
10
3.360683346456693
20
-2.4729864960629921
11
3.368913149606299
21
-2.4556426377952754
0
LINE
8
BLACK
6
CONTINUOUS
10
3.368913149606299
20
-2.4556426377952754
11
3.3757206299212599
21
-2.4376927952755905
0
LINE
8
BLACK
6
CONTINUOUS
10
3.3757206299212599
20
-2.4376927952755905
11
3.3810616535433069
21
-2.419253346456693
0
LINE
8
BLACK
6
CONTINUOUS
10
3.3810616535433069
20
-2.419253346456693
11
3.3849016141732284
21
-2.4004439370078741
0
LINE
8
BLACK
6
CONTINUOUS
10
3.3849016141732284
20
-2.4004439370078741
11
3.3872156299212599
21
-2.3813865354330708
0
LINE
8
BLACK
6
CONTINUOUS
10
3.3872156299212599
20
-2.3813865354330708
11
3.3879886220472439
21
-2.3622047244094486
0
LINE
8
BLACK
6
CONTINUOUS
10
3.3879886220472439
20
-2.3622047244094486
11
3.3872156299212599
21
-2.3430229133858269
0
LINE
8
BLACK
6
CONTINUOUS
10
3.3872156299212599
20
-2.3430229133858269
11
3.3849016141732284
21
-2.3239655118110236
0
LINE
8
BLACK
6
CONTINUOUS
10
3.3849016141732284
20
-2.3239655118110236
11
3.3810616535433069
21
-2.3051561023622047
0
LINE
8
BLACK
6
CONTINUOUS
10
3.3810616535433069
20
-2.3051561023622047
11
3.3757206299212599
21
-2.2867166535433072
0
LINE
8
BLACK
6
CONTINUOUS
10
3.3757206299212599
20
-2.2867166535433072
11
3.368913149606299
21
-2.2687668110236219
0
LINE
8
BLACK
6
CONTINUOUS
10
3.368913149606299
20
-2.2687668110236219
11
3.360683346456693
21
-2.2514229527559055
0
LINE
8
BLACK
6
CONTINUOUS
10
3.360683346456693
20
-2.2514229527559055
11
3.3510846850393698
21
-2.2347975196850394
0
LINE
8
BLACK
6
CONTINUOUS
10
3.3510846850393698
20
-2.2347975196850394
11
3.3401793307086614
21
-2.2189983858267714
0
LINE
8
BLACK
6
CONTINUOUS
10
3.3401793307086614
20
-2.2189983858267714
11
3.3280380314960629
21
-2.2041279921259842
0
LINE
8
BLACK
6
CONTINUOUS
10
3.3280380314960629
20
-2.2041279921259842
11
3.314739527559055
21
-2.1902827952755906
0
LINE
8
BLACK
6
CONTINUOUS
10
3.314739527559055
20
-2.1902827952755906
11
3.3003700787401575
21
-2.1775525984251969
0
LINE
8
BLACK
6
CONTINUOUS
10
3.3003700787401575
20
-2.1775525984251969
11
3.2850228740157479
21
-2.1660199212598426
0
LINE
8
BLACK
6
CONTINUOUS
10
3.2850228740157479
20
-2.1660199212598426
11
3.2687974803149604
21
-2.1557595669291336
0
LINE
8
BLACK
6
CONTINUOUS
10
3.2687974803149604
20
-2.1557595669291336
11
3.2517990157480314
21
-2.1468381102362204
0
LINE
8
BLACK
6
CONTINUOUS
10
3.2517990157480314
20
-2.1468381102362204
11
3.2341378346456691
21
-2.1393133858267714
0
LINE
8
BLACK
6
CONTINUOUS
10
3.2341378346456691
20
-2.1393133858267714
11
3.2159284251968505
21
-2.1332341732283462
0
LINE
8
BLACK
6
CONTINUOUS
10
3.2159284251968505
20
-2.1332341732283462
11
3.1972888976377951
21
-2.1286399606299211
0
LINE
8
BLACK
6
CONTINUOUS
10
3.1972888976377951
20
-2.1286399606299211
11
3.1783401181102362
21
-2.1255604724409447
0
LINE
8
BLACK
6
CONTINUOUS
10
3.1783401181102362
20
-2.1255604724409447
11
3.159205
21
-2.1240157480314958
0
LINE
8
BLACK
6
CONTINUOUS
10
3.159205
20
-2.1240157480314958
11
3.1400075984251967
21
-2.1240157480314958
0
LINE
8
BLACK
6
CONTINUOUS
10
3.1400075984251967
20
-2.1240157480314958
11
3.1208724803149606
21
-2.1255604724409447
0
LINE
8
BLACK
6
CONTINUOUS
10
3.1208724803149606
20
-2.1255604724409447
11
3.1019237007874016
21
-2.1286399606299211
0
LINE
8
BLACK
6
CONTINUOUS
10
3.1019237007874016
20
-2.1286399606299211
11
3.0832841732283462
21
-2.1332341732283462
0
LINE
8
BLACK
6
CONTINUOUS
10
3.0832841732283462
20
-2.1332341732283462
11
3.0650747637795277
21
-2.1393133858267714
0
LINE
8
BLACK
6
CONTINUOUS
10
3.0650747637795277
20
-2.1393133858267714
11
3.0474135826771653
21
-2.1468381102362204
0
LINE
8
BLACK
6
CONTINUOUS
10
3.0474135826771653
20
-2.1468381102362204
11
3.0304151574803151
21
-2.1557595669291336
0
LINE
8
BLACK
6
CONTINUOUS
10
3.0304151574803151
20
-2.1557595669291336
11
3.0141897244094489
21
-2.1660199212598426
0
LINE
8
BLACK
6
CONTINUOUS
10
3.0141897244094489
20
-2.1660199212598426
11
2.9988425196850392
21
-2.1775525984251969
0
LINE
8
BLACK
6
CONTINUOUS
10
2.9988425196850392
20
-2.1775525984251969
11
2.9844730708661418
21
-2.1902827952755906
0
LINE
8
BLACK
6
CONTINUOUS
10
2.9844730708661418
20
-2.1902827952755906
11
2.9711745669291338
21
-2.2041279921259842
0
LINE
8
BLACK
6
CONTINUOUS
10
2.9711745669291338
20
-2.2041279921259842
11
2.9590332677165354
21
-2.2189983858267714
0
LINE
8
BLACK
6
CONTINUOUS
10
2.9590332677165354
20
-2.2189983858267714
11
2.9481279133858269
21
-2.2347975196850394
0
LINE
8
BLACK
6
CONTINUOUS
10
2.9481279133858269
20
-2.2347975196850394
11
2.9385292519685038
21
-2.2514229527559055
0
LINE
8
BLACK
6
CONTINUOUS
10
2.9385292519685038
20
-2.2514229527559055
11
2.9302994488188974
21
-2.2687668110236219
0
LINE
8
BLACK
6
CONTINUOUS
10
2.9302994488188974
20
-2.2687668110236219
11
2.9234919685039369
21
-2.2867166535433072
0
LINE
8
BLACK
6
CONTINUOUS
10
2.9234919685039369
20
-2.2867166535433072
11
2.9181509448818899
21
-2.3051561023622047
0
LINE
8
BLACK
6
CONTINUOUS
10
2.9181509448818899
20
-2.3051561023622047
11
2.9143109842519683
21
-2.3239655118110236
0
LINE
8
BLACK
6
CONTINUOUS
10
2.9143109842519683
20
-2.3239655118110236
11
2.9119969685039369
21
-2.3430229133858269
0
LINE
8
BLACK
6
CONTINUOUS
10
2.9119969685039369
20
-2.3430229133858269
11
2.9112239763779528
21
-2.3622047244094486
0
LINE
8
BLACK
6
CONTINUOUS
10
2.9112239763779528
20
-2.3622047244094486
11
2.9119969685039369
21
-2.3813865354330708
0
LINE
8
BLACK
6
CONTINUOUS
10
3.1754735039370079
20
-1.8885010236220472
11
3.2012637401574802
21
-1.8906161023622048
0
LINE
8
BLACK
6
CONTINUOUS
10
3.2012637401574802
20
-1.8906161023622048
11
3.2269003149606297
21
-1.8941342519685038
0
LINE
8
BLACK
6
CONTINUOUS
10
3.2269003149606297
20
-1.8941342519685038
11
3.2523068897637795
21
-1.8990450393700786
0
LINE
8
BLACK
6
CONTINUOUS
10
3.2523068897637795
20
-1.8990450393700786
11
3.2774079527559055
21
-1.9053337795275591
0
LINE
8
BLACK
6
CONTINUOUS
10
3.2774079527559055
20
-1.9053337795275591
11
3.3021287401574804
21
-1.9129818110236221
0
LINE
8
BLACK
6
CONTINUOUS
10
3.3021287401574804
20
-1.9129818110236221
11
3.3263957480314961
21
-1.9219663779527558
0
LINE
8
BLACK
6
CONTINUOUS
10
3.3263957480314961
20
-1.9219663779527558
11
3.350136811023622
21
-1.9322607086614172
0
LINE
8
BLACK
6
CONTINUOUS
10
3.350136811023622
20
-1.9322607086614172
11
3.3732812204724407
21
-1.9438342519685039
0
LINE
8
BLACK
6
CONTINUOUS
10
3.3732812204724407
20
-1.9438342519685039
11
3.3957601574803147
21
-1.9566525196850393
0
LINE
8
BLACK
6
CONTINUOUS
10
3.3957601574803147
20
-1.9566525196850393
11
3.4175067322834645
21
-1.9706773622047244
0
LINE
8
BLACK
6
CONTINUOUS
10
3.4175067322834645
20
-1.9706773622047244
11
3.4384562598425195
21
-1.9858670866141732
0
LINE
8
BLACK
6
CONTINUOUS
10
3.4384562598425195
20
-1.9858670866141732
11
3.4585464173228346
21
-2.002176496062992
0
LINE
8
BLACK
6
CONTINUOUS
10
3.4585464173228346
20
-2.002176496062992
11
3.4777174015748029
21
-2.0195570472440942
0
LINE
8
BLACK
6
CONTINUOUS
10
3.4777174015748029
20
-2.0195570472440942
11
3.4959121653543308
21
-2.0379570472440944
0
LINE
8
BLACK
6
CONTINUOUS
10
3.4959121653543308
20
-2.0379570472440944
11
3.5130766535433069
21
-2.0573217322834645
0
LINE
8
BLACK
6
CONTINUOUS
10
3.5130766535433069
20
-2.0573217322834645
11
3.5291597244094488
21
-2.0775935433070867
0
LINE
8
BLACK
6
CONTINUOUS
10
3.5291597244094488
20
-2.0775935433070867
11
3.5441135433070867
21
-2.0987120866141731
0
LINE
8
BLACK
6
CONTINUOUS
10
3.5441135433070867
20
-2.0987120866141731
11
3.5576390944881888
21
-2.1202100787401572
0
LINE
8
BLACK
6
CONTINUOUS
10
3.5576390944881888
20
-2.1202100787401572
11
3.6231363779527559
21
-2.1637146062992128
0
LINE
8
BLACK
6
CONTINUOUS
10
3.6231363779527559
20
-2.1637146062992128
11
3.6232503543307084
21
-2.1638841732283463
0
LINE
8
BLACK
6
CONTINUOUS
10
3.6232503543307084
20
-2.1638841732283463
11
3.6234391732283462
21
-2.1639624015748029
0
LINE
8
BLACK
6
CONTINUOUS
10
3.6234391732283462
20
-2.1639624015748029
11
3.6236579527559054
21
-2.1644905511811023
0
LINE
8
BLACK
6
CONTINUOUS
10
3.6236579527559054
20
-2.1644905511811023
11
3.6239768503937007
21
-2.164965
0
LINE
8
BLACK
6
CONTINUOUS
10
3.6239768503937007
20
-2.164965
11
3.6239375196850392
21
-2.1651655118110238
0
LINE
8
BLACK
6
CONTINUOUS
10
3.6239375196850392
20
-2.1651655118110238
11
3.6240157480314958
21
-2.1653543307086616
0
LINE
8
BLACK
6
CONTINUOUS
10
3.6240157480314958
20
-2.1653543307086616
11
3.6240157480314958
21
-2.5590551181102361
0
LINE
8
BLACK
6
CONTINUOUS
10
3.6240157480314958
20
-2.5590551181102361
11
3.6239700787401574
21
-2.5591653149606297
0
LINE
8
BLACK
6
CONTINUOUS
10
3.6239700787401574
20
-2.5591653149606297
11
3.6240028346456694
21
-2.559279960629921
0
LINE
8
BLACK
6
CONTINUOUS
10
3.6240028346456694
20
-2.559279960629921
11
3.6236876377952756
21
-2.5598472047244094
0
LINE
8
BLACK
6
CONTINUOUS
10
3.6236876377952756
20
-2.5598472047244094
11
3.6234391732283462
21
-2.5604470472440943
0
LINE
8
BLACK
6
CONTINUOUS
10
3.6234391732283462
20
-2.5604470472440943
11
3.6233289763779526
21
-2.5604926771653544
0
LINE
8
BLACK
6
CONTINUOUS
10
3.6233289763779526
20
-2.5604926771653544
11
3.6232710629921261
21
-2.5605969291338582
0
LINE
8
BLACK
6
CONTINUOUS
10
3.6232710629921261
20
-2.5605969291338582
11
3.5472262992125985
21
-2.6209586614173226
0
LINE
8
BLACK
6
CONTINUOUS
10
3.5472262992125985
20
-2.6209586614173226
11
3.5325432677165352
21
-2.6422468897637796
0
LINE
8
BLACK
6
CONTINUOUS
10
3.5325432677165352
20
-2.6422468897637796
11
3.5164923228346456
21
-2.6629687007874017
0
LINE
8
BLACK
6
CONTINUOUS
10
3.5164923228346456
20
-2.6629687007874017
11
3.4993214960629921
21
-2.6827723622047244
0
LINE
8
BLACK
6
CONTINUOUS
10
3.4993214960629921
20
-2.6827723622047244
11
3.4810831102362205
21
-2.7015974803149607
0
LINE
8
BLACK
6
CONTINUOUS
10
3.4810831102362205
20
-2.7015974803149607
11
3.461832874015748
21
-2.7193866141732284
0
LINE
8
BLACK
6
CONTINUOUS
10
3.461832874015748
20
-2.7193866141732284
11
3.4416295275590549
21
-2.7360853937007872
0
LINE
8
BLACK
6
CONTINUOUS
10
3.4416295275590549
20
-2.7360853937007872
11
3.4205347637795276
21
-2.7516428740157481
0
LINE
8
BLACK
6
CONTINUOUS
10
3.4205347637795276
20
-2.7516428740157481
11
3.398612992125984
21
-2.7660116141732285
0
LINE
8
BLACK
6
CONTINUOUS
10
3.398612992125984
20
-2.7660116141732285
11
3.3759311023622045
21
-2.7791476377952757
0
LINE
8
BLACK
6
CONTINUOUS
10
3.3759311023622045
20
-2.7791476377952757
11
3.3525583464566928
21
-2.7910109842519684
0
LINE
8
BLACK
6
CONTINUOUS
10
3.3525583464566928
20
-2.7910109842519684
11
3.3285660629921261
21
-2.8015653149606297
0
LINE
8
BLACK
6
CONTINUOUS
10
3.3285660629921261
20
-2.8015653149606297
11
3.3040274803149607
21
-2.8107785039370077
0
LINE
8
BLACK
6
CONTINUOUS
10
3.3040274803149607
20
-2.8107785039370077
11
3.2790175196850395
21
-2.8186223622047244
0
LINE
8
BLACK
6
CONTINUOUS
10
3.2790175196850395
20
-2.8186223622047244
11
3.2536125196850394
21
-2.8250729921259841
0
LINE
8
BLACK
6
CONTINUOUS
10
3.2536125196850394
20
-2.8250729921259841
11
3.2278900393700787
21
-2.8301106692913387
0
LINE
8
BLACK
6
CONTINUOUS
10
3.2278900393700787
20
-2.8301106692913387
11
3.201928622047244
21
-2.8337200393700788
0
LINE
8
BLACK
6
CONTINUOUS
10
3.201928622047244
20
-2.8337200393700788
11
3.1758074409448818
21
-2.8358900787401575
0
LINE
8
BLACK
6
CONTINUOUS
10
3.1758074409448818
20
-2.8358900787401575
11
3.1496062992125982
21
-2.8366141732283463
0
LINE
8
BLACK
6
CONTINUOUS
10
3.1496062992125982
20
-2.8366141732283463
11
3.1230059448818897
21
-2.8358678346456694
0
LINE
8
BLACK
6
CONTINUOUS
10
3.1230059448818897
20
-2.8358678346456694
11
3.0964892913385826
21
-2.833631181102362
0
LINE
8
BLACK
6
CONTINUOUS
10
3.0964892913385826
20
-2.833631181102362
11
3.0701397637795274
21
-2.8299112598425196
0
LINE
8
BLACK
6
CONTINUOUS
10
3.0701397637795274
20
-2.8299112598425196
11
3.0440402755905511
21
-2.8247197244094489
0
LINE
8
BLACK
6
CONTINUOUS
10
3.0440402755905511
20
-2.8247197244094489
11
3.0182729133858266
21
-2.8180729921259844
0
LINE
8
BLACK
6
CONTINUOUS
10
3.0182729133858266
20
-2.8180729921259844
11
2.9929187795275589
21
-2.8099918897637797
0
LINE
8
BLACK
6
CONTINUOUS
10
2.9929187795275589
20
-2.8099918897637797
11
2.9680576771653544
21
-2.8005018897637797
0
LINE
8
BLACK
6
CONTINUOUS
10
2.9680576771653544
20
-2.8005018897637797
11
2.9437677559055118
21
-2.7896328740157479
0
LINE
8
BLACK
6
CONTINUOUS
10
2.9437677559055118
20
-2.7896328740157479
11
2.9201254724409447
21
-2.7774189763779527
0
LINE
8
BLACK
6
CONTINUOUS
10
2.9201254724409447
20
-2.7774189763779527
11
2.8972052362204725
21
-2.7638987007874016
0
LINE
8
BLACK
6
CONTINUOUS
10
2.8972052362204725
20
-2.7638987007874016
11
2.8750791732283463
21
-2.7491144881889764
0
LINE
8
BLACK
6
CONTINUOUS
10
2.8750791732283463
20
-2.7491144881889764
11
2.8538168503937009
21
-2.7331129527559055
0
LINE
8
BLACK
6
CONTINUOUS
10
2.8538168503937009
20
-2.7331129527559055
11
2.8334851968503938
21
-2.7159444094488188
0
LINE
8
BLACK
6
CONTINUOUS
10
2.8334851968503938
20
-2.7159444094488188
11
2.8141481496062992
21
-2.697662874015748
0
LINE
8
BLACK
6
CONTINUOUS
10
2.8141481496062992
20
-2.697662874015748
11
2.7958666141732285
21
-2.6783258267716534
0
LINE
8
BLACK
6
CONTINUOUS
10
2.7958666141732285
20
-2.6783258267716534
11
2.7786980708661417
21
-2.6579941732283463
0
LINE
8
BLACK
6
CONTINUOUS
10
2.7786980708661417
20
-2.6579941732283463
11
2.7626965354330708
21
-2.6367318503937009
0
LINE
8
BLACK
6
CONTINUOUS
10
2.7626965354330708
20
-2.6367318503937009
11
2.7479123228346456
21
-2.6146057874015747
0
LINE
8
BLACK
6
CONTINUOUS
10
2.7479123228346456
20
-2.6146057874015747
11
2.7343920472440946
21
-2.5916855511811021
0
LINE
8
BLACK
6
CONTINUOUS
10
2.7343920472440946
20
-2.5916855511811021
11
2.7221781496062993
21
-2.5680432677165355
0
LINE
8
BLACK
6
CONTINUOUS
10
2.7221781496062993
20
-2.5680432677165355
11
2.7113091338582676
21
-2.5437533464566928
0
LINE
8
BLACK
6
CONTINUOUS
10
2.7113091338582676
20
-2.5437533464566928
11
2.7018191338582676
21
-2.5188922440944883
0
LINE
8
BLACK
6
CONTINUOUS
10
2.7018191338582676
20
-2.5188922440944883
11
2.6937380314960628
21
-2.4935381102362206
0
LINE
8
BLACK
6
CONTINUOUS
10
2.6937380314960628
20
-2.4935381102362206
11
2.6870912992125984
21
-2.4677707480314961
0
LINE
8
BLACK
6
CONTINUOUS
10
2.6870912992125984
20
-2.4677707480314961
11
2.6818997637795277
21
-2.4416712598425194
0
LINE
8
BLACK
6
CONTINUOUS
10
2.6818997637795277
20
-2.4416712598425194
11
2.6781798425196848
21
-2.4153217322834646
0
LINE
8
BLACK
6
CONTINUOUS
10
2.6781798425196848
20
-2.4153217322834646
11
2.6759431889763778
21
-2.3888050787401576
0
LINE
8
BLACK
6
CONTINUOUS
10
2.6759431889763778
20
-2.3888050787401576
11
2.6751968503937009
21
-2.3622047244094486
0
LINE
8
BLACK
6
CONTINUOUS
10
2.6751968503937009
20
-2.3622047244094486
11
2.6759431889763778
21
-2.3356043700787401
0
LINE
8
BLACK
6
CONTINUOUS
10
2.6759431889763778
20
-2.3356043700787401
11
2.6781798425196848
21
-2.3090877165354331
0
LINE
8
BLACK
6
CONTINUOUS
10
2.6781798425196848
20
-2.3090877165354331
11
2.6818997637795277
21
-2.2827381889763778
0
LINE
8
BLACK
6
CONTINUOUS
10
2.6818997637795277
20
-2.2827381889763778
11
2.6870912992125984
21
-2.2566387007874016
0
LINE
8
BLACK
6
CONTINUOUS
10
2.6870912992125984
20
-2.2566387007874016
11
2.6937380314960628
21
-2.2308713385826771
0
LINE
8
BLACK
6
CONTINUOUS
10
2.6937380314960628
20
-2.2308713385826771
11
2.7018191338582676
21
-2.2055172047244094
0
LINE
8
BLACK
6
CONTINUOUS
10
2.7018191338582676
20
-2.2055172047244094
11
2.7113091338582676
21
-2.1806561023622049
0
LINE
8
BLACK
6
CONTINUOUS
10
2.7113091338582676
20
-2.1806561023622049
11
2.7221781496062993
21
-2.1563661811023622
0
LINE
8
BLACK
6
CONTINUOUS
10
2.7221781496062993
20
-2.1563661811023622
11
2.7343920472440946
21
-2.1327238976377951
0
LINE
8
BLACK
6
CONTINUOUS
10
2.7343920472440946
20
-2.1327238976377951
11
2.7479123228346456
21
-2.109803661417323
0
LINE
8
BLACK
6
CONTINUOUS
10
2.7479123228346456
20
-2.109803661417323
11
2.7626965354330708
21
-2.0876775984251967
0
LINE
8
BLACK
6
CONTINUOUS
10
2.7626965354330708
20
-2.0876775984251967
11
2.7786980708661417
21
-2.0664152755905509
0
LINE
8
BLACK
6
CONTINUOUS
10
2.7786980708661417
20
-2.0664152755905509
11
2.7958666141732285
21
-2.0460836220472443
0
LINE
8
BLACK
6
CONTINUOUS
10
2.7958666141732285
20
-2.0460836220472443
11
2.8141481496062992
21
-2.0267465748031497
0
LINE
8
BLACK
6
CONTINUOUS
10
2.8141481496062992
20
-2.0267465748031497
11
2.8334851968503938
21
-2.0084650393700785
0
LINE
8
BLACK
6
CONTINUOUS
10
2.8334851968503938
20
-2.0084650393700785
11
2.8538168503937009
21
-1.991296496062992
0
LINE
8
BLACK
6
CONTINUOUS
10
2.8538168503937009
20
-1.991296496062992
11
2.8750791732283463
21
-1.9752949606299213
0
LINE
8
BLACK
6
CONTINUOUS
10
2.8750791732283463
20
-1.9752949606299213
11
2.8972052362204725
21
-1.9605107480314961
0
LINE
8
BLACK
6
CONTINUOUS
10
2.8972052362204725
20
-1.9605107480314961
11
2.9201254724409447
21
-1.9469904724409448
0
LINE
8
BLACK
6
CONTINUOUS
10
2.9201254724409447
20
-1.9469904724409448
11
2.9437677559055118
21
-1.9347765748031496
0
LINE
8
BLACK
6
CONTINUOUS
10
2.9437677559055118
20
-1.9347765748031496
11
2.9680576771653544
21
-1.923907559055118
0
LINE
8
BLACK
6
CONTINUOUS
10
2.9680576771653544
20
-1.923907559055118
11
2.9929187795275589
21
-1.914417559055118
0
LINE
8
BLACK
6
CONTINUOUS
10
2.9929187795275589
20
-1.914417559055118
11
3.0182729133858266
21
-1.9063364566929133
0
LINE
8
BLACK
6
CONTINUOUS
10
3.0182729133858266
20
-1.9063364566929133
11
3.0440402755905511
21
-1.8996897244094488
0
LINE
8
BLACK
6
CONTINUOUS
10
3.0440402755905511
20
-1.8996897244094488
11
3.0701397637795274
21
-1.8944981889763779
0
LINE
8
BLACK
6
CONTINUOUS
10
3.0701397637795274
20
-1.8944981889763779
11
3.0964892913385826
21
-1.8907782677165355
0
LINE
8
BLACK
6
CONTINUOUS
10
3.0964892913385826
20
-1.8907782677165355
11
3.1230059448818897
21
-1.8885416141732283
0
LINE
8
BLACK
6
CONTINUOUS
10
3.1230059448818897
20
-1.8885416141732283
11
3.1496062992125982
21
-1.8877952755905512
0
LINE
8
BLACK
6
CONTINUOUS
10
3.1496062992125982
20
-1.8877952755905512
11
3.1754735039370079
21
-1.8885010236220472
0
LINE
8
BLACK
6
CONTINUOUS
10
3.1496062992125982
20
-1.8917322834645669
11
3.1361659842519685
21
-1.8917322834645669
0
LINE
8
BLACK
6
CONTINUOUS
10
3.1361659842519685
20
-1.8917322834645669
11
3.1093291732283466
21
-1.8932668897637794
0
LINE
8
BLACK
6
CONTINUOUS
10
3.1093291732283466
20
-1.8932668897637794
11
3.0826237795275588
21
-1.8963310236220472
0
LINE
8
BLACK
6
CONTINUOUS
10
3.0826237795275588
20
-1.8963310236220472
11
3.0561368503937008
21
-1.9009147637795276
0
LINE
8
BLACK
6
CONTINUOUS
10
3.0561368503937008
20
-1.9009147637795276
11
3.0299548031496064
21
-1.9070031496062991
0
LINE
8
BLACK
6
CONTINUOUS
10
3.0299548031496064
20
-1.9070031496062991
11
3.004162992125984
21
-1.9145762992125983
0
LINE
8
BLACK
6
CONTINUOUS
10
3.004162992125984
20
-1.9145762992125983
11
2.9788456299212598
21
-1.923609527559055
0
LINE
8
BLACK
6
CONTINUOUS
10
2.9788456299212598
20
-1.923609527559055
11
2.9540852362204726
21
-1.9340733464566928
0
LINE
8
BLACK
6
CONTINUOUS
10
2.9540852362204726
20
-1.9340733464566928
11
2.9299625984251967
21
-1.9459336614173228
0
LINE
8
BLACK
6
CONTINUOUS
10
2.9299625984251967
20
-1.9459336614173228
11
2.9065564173228347
21
-1.9591517322834646
0
LINE
8
BLACK
6
CONTINUOUS
10
2.9065564173228347
20
-1.9591517322834646
11
2.8839429921259843
21
-1.9736845275590551
0
LINE
8
BLACK
6
CONTINUOUS
10
2.8839429921259843
20
-1.9736845275590551
11
2.8621961023622045
21
-1.9894845669291339
0
LINE
8
BLACK
6
CONTINUOUS
10
2.8621961023622045
20
-1.9894845669291339
11
2.8413866929133857
21
-2.00650031496063
0
LINE
8
BLACK
6
CONTINUOUS
10
2.8413866929133857
20
-2.00650031496063
11
2.8215825984251968
21
-2.0246763385826769
0
LINE
8
BLACK
6
CONTINUOUS
10
2.8215825984251968
20
-2.0246763385826769
11
2.8028485039370077
21
-2.043953307086614
0
LINE
8
BLACK
6
CONTINUOUS
10
2.8028485039370077
20
-2.043953307086614
11
2.785245433070866
21
-2.0642683070866141
0
LINE
8
BLACK
6
CONTINUOUS
10
2.785245433070866
20
-2.0642683070866141
11
2.7688308267716533
21
-2.0855551574803148
0
LINE
8
BLACK
6
CONTINUOUS
10
2.7688308267716533
20
-2.0855551574803148
11
2.7536582283464566
21
-2.1077443700787399
0
LINE
8
BLACK
6
CONTINUOUS
10
2.7536582283464566
20
-2.1077443700787399
11
2.739777125984252
21
-2.1307635433070864
0
LINE
8
BLACK
6
CONTINUOUS
10
2.739777125984252
20
-2.1307635433070864
11
2.7272328346456693
21
-2.1545376771653544
0
LINE
8
BLACK
6
CONTINUOUS
10
2.7272328346456693
20
-2.1545376771653544
11
2.7160662204724408
21
-2.1789891732283464
0
LINE
8
BLACK
6
CONTINUOUS
10
2.7160662204724408
20
-2.1789891732283464
11
2.7063137007874016
21
-2.2040382677165353
0
LINE
8
BLACK
6
CONTINUOUS
10
2.7063137007874016
20
-2.2040382677165353
11
2.698007125984252
21
-2.2296032283464569
0
LINE
8
BLACK
6
CONTINUOUS
10
2.698007125984252
20
-2.2296032283464569
11
2.6911735826771652
21
-2.2556007480314961
0
LINE
8
BLACK
6
CONTINUOUS
10
2.6911735826771652
20
-2.2556007480314961
11
2.6858353543307087
21
-2.281946023622047
0
LINE
8
BLACK
6
CONTINUOUS
10
2.6858353543307087
20
-2.281946023622047
11
2.682009842519685
21
-2.3085530314960629
0
LINE
8
BLACK
6
CONTINUOUS
10
2.682009842519685
20
-2.3085530314960629
11
2.679709527559055
21
-2.3353350393700785
0
LINE
8
BLACK
6
CONTINUOUS
10
2.679709527559055
20
-2.3353350393700785
11
2.6789419291338583
21
-2.3622047244094486
0
LINE
8
BLACK
6
CONTINUOUS
10
2.6789419291338583
20
-2.3622047244094486
11
2.679709527559055
21
-2.3890744094488188
0
LINE
8
BLACK
6
CONTINUOUS
10
2.679709527559055
20
-2.3890744094488188
11
2.682009842519685
21
-2.4158564173228347
0
LINE
8
BLACK
6
CONTINUOUS
10
2.682009842519685
20
-2.4158564173228347
11
2.6858353543307087
21
-2.4424634251968502
0
LINE
8
BLACK
6
CONTINUOUS
10
2.6858353543307087
20
-2.4424634251968502
11
2.6911735826771652
21
-2.4688087007874016
0
LINE
8
BLACK
6
CONTINUOUS
10
2.6911735826771652
20
-2.4688087007874016
11
2.698007125984252
21
-2.4948062204724408
0
LINE
8
BLACK
6
CONTINUOUS
10
2.698007125984252
20
-2.4948062204724408
11
2.7063137007874016
21
-2.5203711811023624
0
LINE
8
BLACK
6
CONTINUOUS
10
2.7063137007874016
20
-2.5203711811023624
11
2.7160662204724408
21
-2.5454202755905513
0
LINE
8
BLACK
6
CONTINUOUS
10
2.7160662204724408
20
-2.5454202755905513
11
2.7272328346456693
21
-2.5698717716535433
0
LINE
8
BLACK
6
CONTINUOUS
10
2.7272328346456693
20
-2.5698717716535433
11
2.739777125984252
21
-2.5936459055118108
0
LINE
8
BLACK
6
CONTINUOUS
10
2.739777125984252
20
-2.5936459055118108
11
2.7536582283464566
21
-2.6166650787401573
0
LINE
8
BLACK
6
CONTINUOUS
10
2.7536582283464566
20
-2.6166650787401573
11
2.7688308267716533
21
-2.6388542913385824
0
LINE
8
BLACK
6
CONTINUOUS
10
2.7688308267716533
20
-2.6388542913385824
11
2.785245433070866
21
-2.6601411417322836
0
LINE
8
BLACK
6
CONTINUOUS
10
2.785245433070866
20
-2.6601411417322836
11
2.8028485039370077
21
-2.6804561417322832
0
LINE
8
BLACK
6
CONTINUOUS
10
2.8028485039370077
20
-2.6804561417322832
11
2.8215825984251968
21
-2.6997331102362203
0
LINE
8
BLACK
6
CONTINUOUS
10
2.8215825984251968
20
-2.6997331102362203
11
2.8413866929133857
21
-2.7179091338582677
0
LINE
8
BLACK
6
CONTINUOUS
10
2.8413866929133857
20
-2.7179091338582677
11
2.8621961023622045
21
-2.7349248818897638
0
LINE
8
BLACK
6
CONTINUOUS
10
2.8621961023622045
20
-2.7349248818897638
11
2.8839429921259843
21
-2.7507249212598426
0
LINE
8
BLACK
6
CONTINUOUS
10
2.8839429921259843
20
-2.7507249212598426
11
2.9065564173228347
21
-2.7652577165354328
0
LINE
8
BLACK
6
CONTINUOUS
10
2.9065564173228347
20
-2.7652577165354328
11
2.9299625984251967
21
-2.7784757874015749
0
LINE
8
BLACK
6
CONTINUOUS
10
2.9299625984251967
20
-2.7784757874015749
11
2.9540852362204726
21
-2.7903361023622049
0
LINE
8
BLACK
6
CONTINUOUS
10
2.9540852362204726
20
-2.7903361023622049
11
2.9788456299212598
21
-2.8007999212598427
0
LINE
8
BLACK
6
CONTINUOUS
10
2.9788456299212598
20
-2.8007999212598427
11
3.004162992125984
21
-2.8098331496062992
0
LINE
8
BLACK
6
CONTINUOUS
10
3.004162992125984
20
-2.8098331496062992
11
3.0299548031496064
21
-2.8174062992125983
0
LINE
8
BLACK
6
CONTINUOUS
10
3.0299548031496064
20
-2.8174062992125983
11
3.0561368503937008
21
-2.8234946850393698
0
LINE
8
BLACK
6
CONTINUOUS
10
3.0561368503937008
20
-2.8234946850393698
11
3.0826237795275588
21
-2.8280784251968503
0
LINE
8
BLACK
6
CONTINUOUS
10
3.0826237795275588
20
-2.8280784251968503
11
3.1093291732283466
21
-2.831142559055118
0
LINE
8
BLACK
6
CONTINUOUS
10
3.1093291732283466
20
-2.831142559055118
11
3.1361659842519685
21
-2.8326771653543306
0
LINE
8
BLACK
6
CONTINUOUS
10
3.1361659842519685
20
-2.8326771653543306
11
3.1496062992125982
21
-2.8326771653543306
0
LINE
8
BLACK
6
CONTINUOUS
10
3.1496062992125982
20
-2.8326771653543306
11
3.1626080314960627
21
-2.8326762598425197
0
LINE
8
BLACK
6
CONTINUOUS
10
3.1626080314960627
20
-2.8326762598425197
11
3.1885718503937008
21
-2.831240118110236
0
LINE
8
BLACK
6
CONTINUOUS
10
3.1885718503937008
20
-2.831240118110236
11
3.2144167322834645
21
-2.8283722047244093
0
LINE
8
BLACK
6
CONTINUOUS
10
3.2144167322834645
20
-2.8283722047244093
11
3.2400637401574803
21
-2.8240812598425196
0
LINE
8
BLACK
6
CONTINUOUS
10
3.2400637401574803
20
-2.8240812598425196
11
3.2654346456692913
21
-2.8183804330708662
0
LINE
8
BLACK
6
CONTINUOUS
10
3.2654346456692913
20
-2.8183804330708662
11
3.2904519685039371
21
-2.811287125984252
0
LINE
8
BLACK
6
CONTINUOUS
10
3.2904519685039371
20
-2.811287125984252
11
3.3150393700787402
21
-2.8028229133858269
0
LINE
8
BLACK
6
CONTINUOUS
10
3.3150393700787402
20
-2.8028229133858269
11
3.3391217716535433
21
-2.7930137007874016
0
LINE
8
BLACK
6
CONTINUOUS
10
3.3391217716535433
20
-2.7930137007874016
11
3.3626256299212596
21
-2.7818894488188977
0
LINE
8
BLACK
6
CONTINUOUS
10
3.3626256299212596
20
-2.7818894488188977
11
3.385479251968504
21
-2.7694840551181104
0
LINE
8
BLACK
6
CONTINUOUS
10
3.385479251968504
20
-2.7694840551181104
11
3.4076128740157481
21
-2.7558353937007873
0
LINE
8
BLACK
6
CONTINUOUS
10
3.4076128740157481
20
-2.7558353937007873
11
3.4289588976377954
21
-2.7409851574803148
0
LINE
8
BLACK
6
CONTINUOUS
10
3.4289588976377954
20
-2.7409851574803148
11
3.4494521653543306
21
-2.7249787007874016
0
LINE
8
BLACK
6
CONTINUOUS
10
3.4494521653543306
20
-2.7249787007874016
11
3.4690301574803151
21
-2.7078648031496062
0
LINE
8
BLACK
6
CONTINUOUS
10
3.4690301574803151
20
-2.7078648031496062
11
3.4876330708661416
21
-2.6896957874015746
0
LINE
8
BLACK
6
CONTINUOUS
10
3.4876330708661416
20
-2.6896957874015746
11
3.5052041338582676
21
-2.670527086614173
0
LINE
8
BLACK
6
CONTINUOUS
10
3.5052041338582676
20
-2.670527086614173
11
3.5216897244094487
21
-2.6504172047244094
0
LINE
8
BLACK
6
CONTINUOUS
10
3.5216897244094487
20
-2.6504172047244094
11
3.5370394881889764
21
-2.6294275196850392
0
LINE
8
BLACK
6
CONTINUOUS
10
3.5370394881889764
20
-2.6294275196850392
11
3.5441238188976376
21
-2.61852531496063
0
LINE
8
BLACK
6
CONTINUOUS
10
3.5441238188976376
20
-2.61852531496063
11
3.54442562992126
21
-2.6182809842519683
0
LINE
8
BLACK
6
CONTINUOUS
10
3.54442562992126
20
-2.6182809842519683
11
3.5445506692913384
21
-2.6180559842519684
0
LINE
8
BLACK
6
CONTINUOUS
10
3.5445506692913384
20
-2.6180559842519684
11
3.6200787401574801
21
-2.5581043700787403
0
LINE
8
BLACK
6
CONTINUOUS
10
3.6200787401574801
20
-2.5581043700787403
11
3.6200787401574801
21
-2.1664099999999999
0
LINE
8
BLACK
6
CONTINUOUS
10
3.6200787401574801
20
-2.1664099999999999
11
3.5551103543307088
21
-2.1232568110236221
0
LINE
8
BLACK
6
CONTINUOUS
10
3.5551103543307088
20
-2.1232568110236221
11
3.5549385826771651
21
-2.1230012204724411
0
LINE
8
BLACK
6
CONTINUOUS
10
3.5549385826771651
20
-2.1230012204724411
11
3.5545053543307086
21
-2.1226194881889762
0
LINE
8
BLACK
6
CONTINUOUS
10
3.5545053543307086
20
-2.1226194881889762
11
3.5479692125984252
21
-2.1115724409448817
0
LINE
8
BLACK
6
CONTINUOUS
10
3.5479692125984252
20
-2.1115724409448817
11
3.5337108661417322
21
-2.0902244881889764
0
LINE
8
BLACK
6
CONTINUOUS
10
3.5337108661417322
20
-2.0902244881889764
11
3.5183097637795275
21
-2.0696857874015748
0
LINE
8
BLACK
6
CONTINUOUS
10
3.5183097637795275
20
-2.0696857874015748
11
3.501811653543307
21
-2.0500173228346457
0
LINE
8
BLACK
6
CONTINUOUS
10
3.501811653543307
20
-2.0500173228346457
11
3.4842656692913385
21
-2.031277716535433
0
LINE
8
BLACK
6
CONTINUOUS
10
3.4842656692913385
20
-2.031277716535433
11
3.4657240157480316
21
-2.0135226771653545
0
LINE
8
BLACK
6
CONTINUOUS
10
3.4657240157480316
20
-2.0135226771653545
11
3.4462418503937009
21
-1.9968050393700787
0
LINE
8
BLACK
6
CONTINUOUS
10
3.4462418503937009
20
-1.9968050393700787
11
3.4258771259842518
21
-1.9811745275590551
0
LINE
8
BLACK
6
CONTINUOUS
10
3.4258771259842518
20
-1.9811745275590551
11
3.404690472440945
21
-1.9666776771653542
0
LINE
8
BLACK
6
CONTINUOUS
10
3.404690472440945
20
-1.9666776771653542
11
3.3827448425196849
21
-1.9533575984251967
0
LINE
8
BLACK
6
CONTINUOUS
10
3.3827448425196849
20
-1.9533575984251967
11
3.3601056299212599
21
-1.9412538976377953
0
LINE
8
BLACK
6
CONTINUOUS
10
3.3601056299212599
20
-1.9412538976377953
11
3.3368401181102363
21
-1.9304025984251969
0
LINE
8
BLACK
6
CONTINUOUS
10
3.3368401181102363
20
-1.9304025984251969
11
3.3130175196850393
21
-1.9208360236220472
0
LINE
8
BLACK
6
CONTINUOUS
10
3.3130175196850393
20
-1.9208360236220472
11
3.2887087795275591
21
-1.9125825984251967
0
LINE
8
BLACK
6
CONTINUOUS
10
3.2887087795275591
20
-1.9125825984251967
11
3.263986181102362
21
-1.9056668897637794
0
LINE
8
BLACK
6
CONTINUOUS
10
3.263986181102362
20
-1.9056668897637794
11
3.2389232677165354
21
-1.9001094488188977
0
LINE
8
BLACK
6
CONTINUOUS
10
3.2389232677165354
20
-1.9001094488188977
11
3.2135946456692914
21
-1.8959268503937008
0
LINE
8
BLACK
6
CONTINUOUS
10
3.2135946456692914
20
-1.8959268503937008
11
3.1880755905511808
21
-1.8931314960629921
0
LINE
8
BLACK
6
CONTINUOUS
10
3.1880755905511808
20
-1.8931314960629921
11
3.1624421259842519
21
-1.8917317716535433
0
LINE
8
BLACK
6
CONTINUOUS
10
3.1624421259842519
20
-1.8917317716535433
11
3.1496062992125982
21
-1.8917322834645669
  0
ENDSEC
  0
EOF
