  0
SECTION
  2
HEADER
  9
$ANGBASE
  50
0.0
  9
$ANGDIR
  70
1
  9
$MEASUREMENT
  70
0
  0
ENDSEC
  0
SECTION
  2
TABLES
  0
TABLE
  2
LTYPE
  70
4
  0
LTYPE
  5
40F
  2
CONTINUOUS
  70
0
  3
Solid line
  72
65
  73
0
  40
0.0
  0
LTYPE
  5
410
  2
DASHDOT
 70
0
  3
Dash Dot ____ _ ____ _
 72
65
 73
4
 40
2.0
 49
1.25
 49
-0.25
 49
0.25
 49
-0.25
  0
LTYPE
  5
411
  2
DASHED
 70
0
  3
Dashed __ __ __ __ __
 72
65
 73
2
 40
0.75
 49
0.5
 49
-0.25
  0
LTYPE
  5
43B
  2
DOTTED
 70
0
  3
Dotted .  .  .  .
 72
65
 73
2
 40
0.2
 49
0.0
 49
-0.2
  0
ENDTAB
  0
TABLE
  2
STYLE
  70
4
  0
STYLE
  2
KICAD
  70
0
  40
0
  41
1
  42
1
  50
0
  71
0
  3
isocp.shx
  0
STYLE
  2
KICADB
  70
0
  40
0
  41
1
  42
1
  50
0
  71
0
  3
isocp.shx
  0
STYLE
  2
KICADI
  70
0
  40
0
  41
1
  42
1
  50
15
  71
0
  3
isocp.shx
  0
STYLE
  2
KICADBI
  70
0
  40
0
  41
1
  42
1
  50
15
  71
0
  3
isocp.shx
  0
ENDTAB
  0
TABLE
  2
LAYER
  70
1
  0
LAYER
  2
BLACK
  70
0
  62
7
  6
CONTINUOUS
  0
ENDTAB
  0
ENDSEC
  0
SECTION
  2
ENTITIES
0
LINE
8
BLACK
6
CONTINUOUS
10
3.52897
20
-2.33792
11
3.52914
21
-2.33791
0
LINE
8
BLACK
6
CONTINUOUS
10
3.52914
20
-2.33791
11
3.52983
21
-2.33841
0
LINE
8
BLACK
6
CONTINUOUS
10
3.52983
20
-2.33841
11
3.53057
21
-2.33884
0
LINE
8
BLACK
6
CONTINUOUS
10
3.53057
20
-2.33884
11
3.53063
21
-2.339
0
LINE
8
BLACK
6
CONTINUOUS
10
3.53063
20
-2.339
11
3.53077
21
-2.3391
0
LINE
8
BLACK
6
CONTINUOUS
10
3.53077
20
-2.3391
11
3.53435
21
-2.34448
0
LINE
8
BLACK
6
CONTINUOUS
10
3.53435
20
-2.34448
11
3.53756
21
-2.34769
0
LINE
8
BLACK
6
CONTINUOUS
10
3.53756
20
-2.34769
11
3.54088
21
-2.34935
0
LINE
8
BLACK
6
CONTINUOUS
10
3.54088
20
-2.34935
11
3.5417
21
-2.34996
0
LINE
8
BLACK
6
CONTINUOUS
10
3.5417
20
-2.34996
11
3.5425
21
-2.35181
0
LINE
8
BLACK
6
CONTINUOUS
10
3.5425
20
-2.35181
11
3.54193
21
-2.35375
0
LINE
8
BLACK
6
CONTINUOUS
10
3.54193
20
-2.35375
11
3.54024
21
-2.35486
0
LINE
8
BLACK
6
CONTINUOUS
10
3.54024
20
-2.35486
11
3.53824
21
-2.35463
0
LINE
8
BLACK
6
CONTINUOUS
10
3.53824
20
-2.35463
11
3.53449
21
-2.35276
0
LINE
8
BLACK
6
CONTINUOUS
10
3.53449
20
-2.35276
11
3.53378
21
-2.35223
0
LINE
8
BLACK
6
CONTINUOUS
10
3.53378
20
-2.35223
11
3.53372
21
-2.3522
0
LINE
8
BLACK
6
CONTINUOUS
10
3.53372
20
-2.3522
11
3.53126
21
-2.34974
0
LINE
8
BLACK
6
CONTINUOUS
10
3.53126
20
-2.34974
11
3.53126
21
-2.37716
0
LINE
8
BLACK
6
CONTINUOUS
10
3.53126
20
-2.37716
11
3.53956
21
-2.37716
0
LINE
8
BLACK
6
CONTINUOUS
10
3.53956
20
-2.37716
11
3.54057
21
-2.37734
0
LINE
8
BLACK
6
CONTINUOUS
10
3.54057
20
-2.37734
11
3.54211
21
-2.37863
0
LINE
8
BLACK
6
CONTINUOUS
10
3.54211
20
-2.37863
11
3.54247
21
-2.38062
0
LINE
8
BLACK
6
CONTINUOUS
10
3.54247
20
-2.38062
11
3.54146
21
-2.38237
0
LINE
8
BLACK
6
CONTINUOUS
10
3.54146
20
-2.38237
11
3.53956
21
-2.38306
0
LINE
8
BLACK
6
CONTINUOUS
10
3.53956
20
-2.38306
11
3.51706
21
-2.38306
0
LINE
8
BLACK
6
CONTINUOUS
10
3.51706
20
-2.38306
11
3.51605
21
-2.38289
0
LINE
8
BLACK
6
CONTINUOUS
10
3.51605
20
-2.38289
11
3.5145
21
-2.38159
0
LINE
8
BLACK
6
CONTINUOUS
10
3.5145
20
-2.38159
11
3.51415
21
-2.3796
0
LINE
8
BLACK
6
CONTINUOUS
10
3.51415
20
-2.3796
11
3.51516
21
-2.37785
0
LINE
8
BLACK
6
CONTINUOUS
10
3.51516
20
-2.37785
11
3.51706
21
-2.37716
0
LINE
8
BLACK
6
CONTINUOUS
10
3.51706
20
-2.37716
11
3.52536
21
-2.37716
0
LINE
8
BLACK
6
CONTINUOUS
10
3.52536
20
-2.37716
11
3.52536
21
-2.34074
0
LINE
8
BLACK
6
CONTINUOUS
10
3.52536
20
-2.34074
11
3.52553
21
-2.33973
0
LINE
8
BLACK
6
CONTINUOUS
10
3.52553
20
-2.33973
11
3.52564
21
-2.3396
0
LINE
8
BLACK
6
CONTINUOUS
10
3.52564
20
-2.3396
11
3.52566
21
-2.33943
0
LINE
8
BLACK
6
CONTINUOUS
10
3.52566
20
-2.33943
11
3.52628
21
-2.33884
0
LINE
8
BLACK
6
CONTINUOUS
10
3.52628
20
-2.33884
11
3.52683
21
-2.33818
0
LINE
8
BLACK
6
CONTINUOUS
10
3.52683
20
-2.33818
11
3.527
21
-2.33815
0
LINE
8
BLACK
6
CONTINUOUS
10
3.527
20
-2.33815
11
3.52712
21
-2.33804
0
LINE
8
BLACK
6
CONTINUOUS
10
3.52712
20
-2.33804
11
3.52798
21
-2.33798
0
LINE
8
BLACK
6
CONTINUOUS
10
3.52798
20
-2.33798
11
3.52882
21
-2.33783
0
LINE
8
BLACK
6
CONTINUOUS
10
3.52882
20
-2.33783
11
3.52897
21
-2.33792
0
LINE
8
BLACK
6
CONTINUOUS
10
3.55869
20
-2.33884
11
3.55938
21
-2.34074
0
LINE
8
BLACK
6
CONTINUOUS
10
3.55938
20
-2.34074
11
3.55938
21
-2.36838
0
LINE
8
BLACK
6
CONTINUOUS
10
3.55938
20
-2.36838
11
3.56089
21
-2.37289
0
LINE
8
BLACK
6
CONTINUOUS
10
3.56089
20
-2.37289
11
3.56365
21
-2.37566
0
LINE
8
BLACK
6
CONTINUOUS
10
3.56365
20
-2.37566
11
3.56816
21
-2.37716
0
LINE
8
BLACK
6
CONTINUOUS
10
3.56816
20
-2.37716
11
3.57143
21
-2.37716
0
LINE
8
BLACK
6
CONTINUOUS
10
3.57143
20
-2.37716
11
3.57244
21
-2.37734
0
LINE
8
BLACK
6
CONTINUOUS
10
3.57244
20
-2.37734
11
3.57399
21
-2.37863
0
LINE
8
BLACK
6
CONTINUOUS
10
3.57399
20
-2.37863
11
3.57434
21
-2.38062
0
LINE
8
BLACK
6
CONTINUOUS
10
3.57434
20
-2.38062
11
3.57333
21
-2.38237
0
LINE
8
BLACK
6
CONTINUOUS
10
3.57333
20
-2.38237
11
3.57143
21
-2.38306
0
LINE
8
BLACK
6
CONTINUOUS
10
3.57143
20
-2.38306
11
3.56768
21
-2.38306
0
LINE
8
BLACK
6
CONTINUOUS
10
3.56768
20
-2.38306
11
3.56681
21
-2.38291
0
LINE
8
BLACK
6
CONTINUOUS
10
3.56681
20
-2.38291
11
3.56675
21
-2.38291
0
LINE
8
BLACK
6
CONTINUOUS
10
3.56675
20
-2.38291
11
3.56112
21
-2.38104
0
LINE
8
BLACK
6
CONTINUOUS
10
3.56112
20
-2.38104
11
3.56022
21
-2.38055
0
LINE
8
BLACK
6
CONTINUOUS
10
3.56022
20
-2.38055
11
3.56013
21
-2.3804
0
LINE
8
BLACK
6
CONTINUOUS
10
3.56013
20
-2.3804
11
3.55997
21
-2.38032
0
LINE
8
BLACK
6
CONTINUOUS
10
3.55997
20
-2.38032
11
3.55622
21
-2.37657
0
LINE
8
BLACK
6
CONTINUOUS
10
3.55622
20
-2.37657
11
3.55563
21
-2.37573
0
LINE
8
BLACK
6
CONTINUOUS
10
3.55563
20
-2.37573
11
3.55561
21
-2.37556
0
LINE
8
BLACK
6
CONTINUOUS
10
3.55561
20
-2.37556
11
3.5555
21
-2.37542
0
LINE
8
BLACK
6
CONTINUOUS
10
3.5555
20
-2.37542
11
3.55363
21
-2.3698
0
LINE
8
BLACK
6
CONTINUOUS
10
3.55363
20
-2.3698
11
3.5535
21
-2.36892
0
LINE
8
BLACK
6
CONTINUOUS
10
3.5535
20
-2.36892
11
3.55348
21
-2.36886
0
LINE
8
BLACK
6
CONTINUOUS
10
3.55348
20
-2.36886
11
3.55348
21
-2.34074
0
LINE
8
BLACK
6
CONTINUOUS
10
3.55348
20
-2.34074
11
3.55366
21
-2.33973
0
LINE
8
BLACK
6
CONTINUOUS
10
3.55366
20
-2.33973
11
3.55495
21
-2.33818
0
LINE
8
BLACK
6
CONTINUOUS
10
3.55495
20
-2.33818
11
3.55694
21
-2.33783
0
LINE
8
BLACK
6
CONTINUOUS
10
3.55694
20
-2.33783
11
3.55869
21
-2.33884
0
LINE
8
BLACK
6
CONTINUOUS
10
3.51378
20
-2.24213
11
3.51517
21
-2.2427
0
LINE
8
BLACK
6
CONTINUOUS
10
3.51517
20
-2.2427
11
3.51575
21
-2.24409
0
LINE
8
BLACK
6
CONTINUOUS
10
3.51575
20
-2.24409
11
3.51575
21
-2.2815
0
LINE
8
BLACK
6
CONTINUOUS
10
3.51575
20
-2.2815
11
3.57087
21
-2.2815
0
LINE
8
BLACK
6
CONTINUOUS
10
3.57087
20
-2.2815
11
3.57087
21
-2.24409
0
LINE
8
BLACK
6
CONTINUOUS
10
3.57087
20
-2.24409
11
3.57144
21
-2.2427
0
LINE
8
BLACK
6
CONTINUOUS
10
3.57144
20
-2.2427
11
3.57283
21
-2.24213
0
LINE
8
BLACK
6
CONTINUOUS
10
3.57283
20
-2.24213
11
3.59252
21
-2.24213
0
LINE
8
BLACK
6
CONTINUOUS
10
3.59252
20
-2.24213
11
3.59391
21
-2.2427
0
LINE
8
BLACK
6
CONTINUOUS
10
3.59391
20
-2.2427
11
3.59449
21
-2.24409
0
LINE
8
BLACK
6
CONTINUOUS
10
3.59449
20
-2.24409
11
3.59449
21
-2.28346
0
LINE
8
BLACK
6
CONTINUOUS
10
3.59449
20
-2.28346
11
3.59391
21
-2.28486
0
LINE
8
BLACK
6
CONTINUOUS
10
3.59391
20
-2.28486
11
3.59252
21
-2.28543
0
LINE
8
BLACK
6
CONTINUOUS
10
3.59252
20
-2.28543
11
3.59113
21
-2.28486
0
LINE
8
BLACK
6
CONTINUOUS
10
3.59113
20
-2.28486
11
3.59055
21
-2.28346
0
LINE
8
BLACK
6
CONTINUOUS
10
3.59055
20
-2.28346
11
3.59055
21
-2.24606
0
LINE
8
BLACK
6
CONTINUOUS
10
3.59055
20
-2.24606
11
3.5748
21
-2.24606
0
LINE
8
BLACK
6
CONTINUOUS
10
3.5748
20
-2.24606
11
3.5748
21
-2.2815
0
LINE
8
BLACK
6
CONTINUOUS
10
3.5748
20
-2.2815
11
3.58268
21
-2.2815
0
LINE
8
BLACK
6
CONTINUOUS
10
3.58268
20
-2.2815
11
3.58407
21
-2.28207
0
LINE
8
BLACK
6
CONTINUOUS
10
3.58407
20
-2.28207
11
3.62344
21
-2.32144
0
LINE
8
BLACK
6
CONTINUOUS
10
3.62344
20
-2.32144
11
3.62354
21
-2.32168
0
LINE
8
BLACK
6
CONTINUOUS
10
3.62354
20
-2.32168
11
3.62402
21
-2.32283
0
LINE
8
BLACK
6
CONTINUOUS
10
3.62402
20
-2.32283
11
3.62402
21
-2.44094
0
LINE
8
BLACK
6
CONTINUOUS
10
3.62402
20
-2.44094
11
3.62344
21
-2.44234
0
LINE
8
BLACK
6
CONTINUOUS
10
3.62344
20
-2.44234
11
3.62205
21
-2.44291
0
LINE
8
BLACK
6
CONTINUOUS
10
3.62205
20
-2.44291
11
3.59449
21
-2.44291
0
LINE
8
BLACK
6
CONTINUOUS
10
3.59449
20
-2.44291
11
3.59449
21
-2.48031
0
LINE
8
BLACK
6
CONTINUOUS
10
3.59449
20
-2.48031
11
3.59391
21
-2.48171
0
LINE
8
BLACK
6
CONTINUOUS
10
3.59391
20
-2.48171
11
3.59252
21
-2.48228
0
LINE
8
BLACK
6
CONTINUOUS
10
3.59252
20
-2.48228
11
3.57283
21
-2.48228
0
LINE
8
BLACK
6
CONTINUOUS
10
3.57283
20
-2.48228
11
3.57144
21
-2.48171
0
LINE
8
BLACK
6
CONTINUOUS
10
3.57144
20
-2.48171
11
3.57087
21
-2.48031
0
LINE
8
BLACK
6
CONTINUOUS
10
3.57087
20
-2.48031
11
3.57087
21
-2.44291
0
LINE
8
BLACK
6
CONTINUOUS
10
3.57087
20
-2.44291
11
3.51575
21
-2.44291
0
LINE
8
BLACK
6
CONTINUOUS
10
3.51575
20
-2.44291
11
3.51575
21
-2.48031
0
LINE
8
BLACK
6
CONTINUOUS
10
3.51575
20
-2.48031
11
3.51517
21
-2.48171
0
LINE
8
BLACK
6
CONTINUOUS
10
3.51517
20
-2.48171
11
3.51378
21
-2.48228
0
LINE
8
BLACK
6
CONTINUOUS
10
3.51378
20
-2.48228
11
3.49409
21
-2.48228
0
LINE
8
BLACK
6
CONTINUOUS
10
3.49409
20
-2.48228
11
3.4927
21
-2.48171
0
LINE
8
BLACK
6
CONTINUOUS
10
3.4927
20
-2.48171
11
3.49213
21
-2.48031
0
LINE
8
BLACK
6
CONTINUOUS
10
3.49213
20
-2.48031
11
3.49213
21
-2.44291
0
LINE
8
BLACK
6
CONTINUOUS
10
3.49213
20
-2.44291
11
3.46457
21
-2.44291
0
LINE
8
BLACK
6
CONTINUOUS
10
3.46457
20
-2.44291
11
3.46318
21
-2.44234
0
LINE
8
BLACK
6
CONTINUOUS
10
3.46318
20
-2.44234
11
3.4626
21
-2.44094
0
LINE
8
BLACK
6
CONTINUOUS
10
3.4626
20
-2.44094
11
3.4626
21
-2.28346
0
LINE
8
BLACK
6
CONTINUOUS
10
3.4626
20
-2.28346
11
3.46318
21
-2.28207
0
LINE
8
BLACK
6
CONTINUOUS
10
3.46318
20
-2.28207
11
3.46457
21
-2.2815
0
LINE
8
BLACK
6
CONTINUOUS
10
3.46457
20
-2.2815
11
3.49213
21
-2.2815
0
LINE
8
BLACK
6
CONTINUOUS
10
3.49213
20
-2.2815
11
3.49213
21
-2.24409
0
LINE
8
BLACK
6
CONTINUOUS
10
3.49213
20
-2.24409
11
3.4927
21
-2.2427
0
LINE
8
BLACK
6
CONTINUOUS
10
3.4927
20
-2.2427
11
3.49409
21
-2.24213
0
LINE
8
BLACK
6
CONTINUOUS
10
3.49409
20
-2.24213
11
3.51378
21
-2.24213
0
LINE
8
BLACK
6
CONTINUOUS
10
3.5748
20
-2.44291
11
3.5748
21
-2.47835
0
LINE
8
BLACK
6
CONTINUOUS
10
3.5748
20
-2.47835
11
3.59055
21
-2.47835
0
LINE
8
BLACK
6
CONTINUOUS
10
3.59055
20
-2.47835
11
3.59055
21
-2.44291
0
LINE
8
BLACK
6
CONTINUOUS
10
3.59055
20
-2.44291
11
3.5748
21
-2.44291
0
LINE
8
BLACK
6
CONTINUOUS
10
3.49606
20
-2.44291
11
3.49606
21
-2.47835
0
LINE
8
BLACK
6
CONTINUOUS
10
3.49606
20
-2.47835
11
3.51181
21
-2.47835
0
LINE
8
BLACK
6
CONTINUOUS
10
3.51181
20
-2.47835
11
3.51181
21
-2.44291
0
LINE
8
BLACK
6
CONTINUOUS
10
3.51181
20
-2.44291
11
3.49606
21
-2.44291
0
LINE
8
BLACK
6
CONTINUOUS
10
3.57283
20
-2.28543
11
3.51378
21
-2.28543
0
LINE
8
BLACK
6
CONTINUOUS
10
3.51378
20
-2.28543
11
3.49409
21
-2.28543
0
LINE
8
BLACK
6
CONTINUOUS
10
3.49409
20
-2.28543
11
3.46654
21
-2.28543
0
LINE
8
BLACK
6
CONTINUOUS
10
3.46654
20
-2.28543
11
3.46654
21
-2.43898
0
LINE
8
BLACK
6
CONTINUOUS
10
3.46654
20
-2.43898
11
3.62008
21
-2.43898
0
LINE
8
BLACK
6
CONTINUOUS
10
3.62008
20
-2.43898
11
3.62008
21
-2.32365
0
LINE
8
BLACK
6
CONTINUOUS
10
3.62008
20
-2.32365
11
3.58186
21
-2.28543
0
LINE
8
BLACK
6
CONTINUOUS
10
3.58186
20
-2.28543
11
3.57283
21
-2.28543
0
LINE
8
BLACK
6
CONTINUOUS
10
3.49606
20
-2.24606
11
3.49606
21
-2.2815
0
LINE
8
BLACK
6
CONTINUOUS
10
3.49606
20
-2.2815
11
3.51181
21
-2.2815
0
LINE
8
BLACK
6
CONTINUOUS
10
3.51181
20
-2.2815
11
3.51181
21
-2.24606
0
LINE
8
BLACK
6
CONTINUOUS
10
3.51181
20
-2.24606
11
3.49606
21
-2.24606
0
LINE
8
BLACK
6
CONTINUOUS
10
3.4188
20
-2.43161
11
3.41894
21
-2.43172
0
LINE
8
BLACK
6
CONTINUOUS
10
3.41894
20
-2.43172
11
3.41911
21
-2.43174
0
LINE
8
BLACK
6
CONTINUOUS
10
3.41911
20
-2.43174
11
3.42286
21
-2.43362
0
LINE
8
BLACK
6
CONTINUOUS
10
3.42286
20
-2.43362
11
3.42369
21
-2.43423
0
LINE
8
BLACK
6
CONTINUOUS
10
3.42369
20
-2.43423
11
3.42386
21
-2.43463
0
LINE
8
BLACK
6
CONTINUOUS
10
3.42386
20
-2.43463
11
3.42418
21
-2.43494
0
LINE
8
BLACK
6
CONTINUOUS
10
3.42418
20
-2.43494
11
3.42606
21
-2.43869
0
LINE
8
BLACK
6
CONTINUOUS
10
3.42606
20
-2.43869
11
3.42635
21
-2.43967
0
LINE
8
BLACK
6
CONTINUOUS
10
3.42635
20
-2.43967
11
3.42631
21
-2.43984
0
LINE
8
BLACK
6
CONTINUOUS
10
3.42631
20
-2.43984
11
3.42637
21
-2.44001
0
LINE
8
BLACK
6
CONTINUOUS
10
3.42637
20
-2.44001
11
3.42637
21
-2.44751
0
LINE
8
BLACK
6
CONTINUOUS
10
3.42637
20
-2.44751
11
3.42619
21
-2.44852
0
LINE
8
BLACK
6
CONTINUOUS
10
3.42619
20
-2.44852
11
3.42608
21
-2.44865
0
LINE
8
BLACK
6
CONTINUOUS
10
3.42608
20
-2.44865
11
3.42606
21
-2.44883
0
LINE
8
BLACK
6
CONTINUOUS
10
3.42606
20
-2.44883
11
3.42418
21
-2.45258
0
LINE
8
BLACK
6
CONTINUOUS
10
3.42418
20
-2.45258
11
3.42357
21
-2.4534
0
LINE
8
BLACK
6
CONTINUOUS
10
3.42357
20
-2.4534
11
3.42172
21
-2.4542
0
LINE
8
BLACK
6
CONTINUOUS
10
3.42172
20
-2.4542
11
3.41978
21
-2.45363
0
LINE
8
BLACK
6
CONTINUOUS
10
3.41978
20
-2.45363
11
3.41867
21
-2.45194
0
LINE
8
BLACK
6
CONTINUOUS
10
3.41867
20
-2.45194
11
3.4189
21
-2.44994
0
LINE
8
BLACK
6
CONTINUOUS
10
3.4189
20
-2.44994
11
3.42047
21
-2.44681
0
LINE
8
BLACK
6
CONTINUOUS
10
3.42047
20
-2.44681
11
3.42047
21
-2.4407
0
LINE
8
BLACK
6
CONTINUOUS
10
3.42047
20
-2.4407
11
3.41934
21
-2.43846
0
LINE
8
BLACK
6
CONTINUOUS
10
3.41934
20
-2.43846
11
3.4171
21
-2.43734
0
LINE
8
BLACK
6
CONTINUOUS
10
3.4171
20
-2.43734
11
3.41272
21
-2.43734
0
LINE
8
BLACK
6
CONTINUOUS
10
3.41272
20
-2.43734
11
3.40944
21
-2.45371
0
LINE
8
BLACK
6
CONTINUOUS
10
3.40944
20
-2.45371
11
3.40907
21
-2.45467
0
LINE
8
BLACK
6
CONTINUOUS
10
3.40907
20
-2.45467
11
3.40869
21
-2.45497
0
LINE
8
BLACK
6
CONTINUOUS
10
3.40869
20
-2.45497
11
3.40844
21
-2.45539
0
LINE
8
BLACK
6
CONTINUOUS
10
3.40844
20
-2.45539
11
3.40792
21
-2.45558
0
LINE
8
BLACK
6
CONTINUOUS
10
3.40792
20
-2.45558
11
3.40749
21
-2.45593
0
LINE
8
BLACK
6
CONTINUOUS
10
3.40749
20
-2.45593
11
3.407
21
-2.45592
0
LINE
8
BLACK
6
CONTINUOUS
10
3.407
20
-2.45592
11
3.40655
21
-2.45608
0
LINE
8
BLACK
6
CONTINUOUS
10
3.40655
20
-2.45608
11
3.4028
21
-2.45608
0
LINE
8
BLACK
6
CONTINUOUS
10
3.4028
20
-2.45608
11
3.40179
21
-2.45591
0
LINE
8
BLACK
6
CONTINUOUS
10
3.40179
20
-2.45591
11
3.40165
21
-2.45579
0
LINE
8
BLACK
6
CONTINUOUS
10
3.40165
20
-2.45579
11
3.40148
21
-2.45577
0
LINE
8
BLACK
6
CONTINUOUS
10
3.40148
20
-2.45577
11
3.39773
21
-2.4539
0
LINE
8
BLACK
6
CONTINUOUS
10
3.39773
20
-2.4539
11
3.3969
21
-2.45329
0
LINE
8
BLACK
6
CONTINUOUS
10
3.3969
20
-2.45329
11
3.39673
21
-2.45288
0
LINE
8
BLACK
6
CONTINUOUS
10
3.39673
20
-2.45288
11
3.39641
21
-2.45258
0
LINE
8
BLACK
6
CONTINUOUS
10
3.39641
20
-2.45258
11
3.39453
21
-2.44883
0
LINE
8
BLACK
6
CONTINUOUS
10
3.39453
20
-2.44883
11
3.39424
21
-2.44784
0
LINE
8
BLACK
6
CONTINUOUS
10
3.39424
20
-2.44784
11
3.39428
21
-2.44767
0
LINE
8
BLACK
6
CONTINUOUS
10
3.39428
20
-2.44767
11
3.39422
21
-2.44751
0
LINE
8
BLACK
6
CONTINUOUS
10
3.39422
20
-2.44751
11
3.39422
21
-2.44001
0
LINE
8
BLACK
6
CONTINUOUS
10
3.39422
20
-2.44001
11
3.3944
21
-2.439
0
LINE
8
BLACK
6
CONTINUOUS
10
3.3944
20
-2.439
11
3.39451
21
-2.43886
0
LINE
8
BLACK
6
CONTINUOUS
10
3.39451
20
-2.43886
11
3.39453
21
-2.43869
0
LINE
8
BLACK
6
CONTINUOUS
10
3.39453
20
-2.43869
11
3.39641
21
-2.43494
0
LINE
8
BLACK
6
CONTINUOUS
10
3.39641
20
-2.43494
11
3.39702
21
-2.43411
0
LINE
8
BLACK
6
CONTINUOUS
10
3.39702
20
-2.43411
11
3.39742
21
-2.43394
0
LINE
8
BLACK
6
CONTINUOUS
10
3.39742
20
-2.43394
11
3.39773
21
-2.43362
0
LINE
8
BLACK
6
CONTINUOUS
10
3.39773
20
-2.43362
11
3.40148
21
-2.43174
0
LINE
8
BLACK
6
CONTINUOUS
10
3.40148
20
-2.43174
11
3.40246
21
-2.43145
0
LINE
8
BLACK
6
CONTINUOUS
10
3.40246
20
-2.43145
11
3.40263
21
-2.43149
0
LINE
8
BLACK
6
CONTINUOUS
10
3.40263
20
-2.43149
11
3.4028
21
-2.43143
0
LINE
8
BLACK
6
CONTINUOUS
10
3.4028
20
-2.43143
11
3.41779
21
-2.43143
0
LINE
8
BLACK
6
CONTINUOUS
10
3.41779
20
-2.43143
11
3.4188
21
-2.43161
0
LINE
8
BLACK
6
CONTINUOUS
10
3.40125
20
-2.43846
11
3.40012
21
-2.4407
0
LINE
8
BLACK
6
CONTINUOUS
10
3.40012
20
-2.4407
11
3.40012
21
-2.44681
0
LINE
8
BLACK
6
CONTINUOUS
10
3.40012
20
-2.44681
11
3.40125
21
-2.44906
0
LINE
8
BLACK
6
CONTINUOUS
10
3.40125
20
-2.44906
11
3.40349
21
-2.45018
0
LINE
8
BLACK
6
CONTINUOUS
10
3.40349
20
-2.45018
11
3.40412
21
-2.45018
0
LINE
8
BLACK
6
CONTINUOUS
10
3.40412
20
-2.45018
11
3.40669
21
-2.43734
0
LINE
8
BLACK
6
CONTINUOUS
10
3.40669
20
-2.43734
11
3.40349
21
-2.43734
0
LINE
8
BLACK
6
CONTINUOUS
10
3.40349
20
-2.43734
11
3.40125
21
-2.43846
0
LINE
8
BLACK
6
CONTINUOUS
10
3.4188
20
-2.41286
11
3.41894
21
-2.41297
0
LINE
8
BLACK
6
CONTINUOUS
10
3.41894
20
-2.41297
11
3.41911
21
-2.41299
0
LINE
8
BLACK
6
CONTINUOUS
10
3.41911
20
-2.41299
11
3.42286
21
-2.41487
0
LINE
8
BLACK
6
CONTINUOUS
10
3.42286
20
-2.41487
11
3.42369
21
-2.41548
0
LINE
8
BLACK
6
CONTINUOUS
10
3.42369
20
-2.41548
11
3.42386
21
-2.41589
0
LINE
8
BLACK
6
CONTINUOUS
10
3.42386
20
-2.41589
11
3.42418
21
-2.41619
0
LINE
8
BLACK
6
CONTINUOUS
10
3.42418
20
-2.41619
11
3.42606
21
-2.41994
0
LINE
8
BLACK
6
CONTINUOUS
10
3.42606
20
-2.41994
11
3.42635
21
-2.42092
0
LINE
8
BLACK
6
CONTINUOUS
10
3.42635
20
-2.42092
11
3.42588
21
-2.42289
0
LINE
8
BLACK
6
CONTINUOUS
10
3.42588
20
-2.42289
11
3.42426
21
-2.42409
0
LINE
8
BLACK
6
CONTINUOUS
10
3.42426
20
-2.42409
11
3.42224
21
-2.42397
0
LINE
8
BLACK
6
CONTINUOUS
10
3.42224
20
-2.42397
11
3.42078
21
-2.42258
0
LINE
8
BLACK
6
CONTINUOUS
10
3.42078
20
-2.42258
11
3.41934
21
-2.41971
0
LINE
8
BLACK
6
CONTINUOUS
10
3.41934
20
-2.41971
11
3.4171
21
-2.41859
0
LINE
8
BLACK
6
CONTINUOUS
10
3.4171
20
-2.41859
11
3.38405
21
-2.41859
0
LINE
8
BLACK
6
CONTINUOUS
10
3.38405
20
-2.41859
11
3.38304
21
-2.41841
0
LINE
8
BLACK
6
CONTINUOUS
10
3.38304
20
-2.41841
11
3.38149
21
-2.41711
0
LINE
8
BLACK
6
CONTINUOUS
10
3.38149
20
-2.41711
11
3.38114
21
-2.41512
0
LINE
8
BLACK
6
CONTINUOUS
10
3.38114
20
-2.41512
11
3.38215
21
-2.41337
0
LINE
8
BLACK
6
CONTINUOUS
10
3.38215
20
-2.41337
11
3.38405
21
-2.41268
0
LINE
8
BLACK
6
CONTINUOUS
10
3.38405
20
-2.41268
11
3.41779
21
-2.41268
0
LINE
8
BLACK
6
CONTINUOUS
10
3.41779
20
-2.41268
11
3.4188
21
-2.41286
0
LINE
8
BLACK
6
CONTINUOUS
10
3.41693
20
-2.37537
11
3.41706
21
-2.37548
0
LINE
8
BLACK
6
CONTINUOUS
10
3.41706
20
-2.37548
11
3.41724
21
-2.3755
0
LINE
8
BLACK
6
CONTINUOUS
10
3.41724
20
-2.3755
11
3.42099
21
-2.37737
0
LINE
8
BLACK
6
CONTINUOUS
10
3.42099
20
-2.37737
11
3.4217
21
-2.3779
0
LINE
8
BLACK
6
CONTINUOUS
10
3.4217
20
-2.3779
11
3.42176
21
-2.37793
0
LINE
8
BLACK
6
CONTINUOUS
10
3.42176
20
-2.37793
11
3.42363
21
-2.3798
0
LINE
8
BLACK
6
CONTINUOUS
10
3.42363
20
-2.3798
11
3.42414
21
-2.38052
0
LINE
8
BLACK
6
CONTINUOUS
10
3.42414
20
-2.38052
11
3.42418
21
-2.38057
0
LINE
8
BLACK
6
CONTINUOUS
10
3.42418
20
-2.38057
11
3.42606
21
-2.38432
0
LINE
8
BLACK
6
CONTINUOUS
10
3.42606
20
-2.38432
11
3.42635
21
-2.3853
0
LINE
8
BLACK
6
CONTINUOUS
10
3.42635
20
-2.3853
11
3.42631
21
-2.38547
0
LINE
8
BLACK
6
CONTINUOUS
10
3.42631
20
-2.38547
11
3.42637
21
-2.38564
0
LINE
8
BLACK
6
CONTINUOUS
10
3.42637
20
-2.38564
11
3.42637
21
-2.39314
0
LINE
8
BLACK
6
CONTINUOUS
10
3.42637
20
-2.39314
11
3.42619
21
-2.39415
0
LINE
8
BLACK
6
CONTINUOUS
10
3.42619
20
-2.39415
11
3.42608
21
-2.39428
0
LINE
8
BLACK
6
CONTINUOUS
10
3.42608
20
-2.39428
11
3.42606
21
-2.39446
0
LINE
8
BLACK
6
CONTINUOUS
10
3.42606
20
-2.39446
11
3.4257
21
-2.39518
0
LINE
8
BLACK
6
CONTINUOUS
10
3.4257
20
-2.39518
11
3.42598
21
-2.39541
0
LINE
8
BLACK
6
CONTINUOUS
10
3.42598
20
-2.39541
11
3.42633
21
-2.3974
0
LINE
8
BLACK
6
CONTINUOUS
10
3.42633
20
-2.3974
11
3.42532
21
-2.39915
0
LINE
8
BLACK
6
CONTINUOUS
10
3.42532
20
-2.39915
11
3.42342
21
-2.39984
0
LINE
8
BLACK
6
CONTINUOUS
10
3.42342
20
-2.39984
11
3.38405
21
-2.39984
0
LINE
8
BLACK
6
CONTINUOUS
10
3.38405
20
-2.39984
11
3.38304
21
-2.39966
0
LINE
8
BLACK
6
CONTINUOUS
10
3.38304
20
-2.39966
11
3.38149
21
-2.39836
0
LINE
8
BLACK
6
CONTINUOUS
10
3.38149
20
-2.39836
11
3.38114
21
-2.39638
0
LINE
8
BLACK
6
CONTINUOUS
10
3.38114
20
-2.39638
11
3.38215
21
-2.39463
0
LINE
8
BLACK
6
CONTINUOUS
10
3.38215
20
-2.39463
11
3.38405
21
-2.39394
0
LINE
8
BLACK
6
CONTINUOUS
10
3.38405
20
-2.39394
11
3.39437
21
-2.39394
0
LINE
8
BLACK
6
CONTINUOUS
10
3.39437
20
-2.39394
11
3.39424
21
-2.39348
0
LINE
8
BLACK
6
CONTINUOUS
10
3.39424
20
-2.39348
11
3.39428
21
-2.3933
0
LINE
8
BLACK
6
CONTINUOUS
10
3.39428
20
-2.3933
11
3.39422
21
-2.39314
0
LINE
8
BLACK
6
CONTINUOUS
10
3.39422
20
-2.39314
11
3.39422
21
-2.38564
0
LINE
8
BLACK
6
CONTINUOUS
10
3.39422
20
-2.38564
11
3.3944
21
-2.38463
0
LINE
8
BLACK
6
CONTINUOUS
10
3.3944
20
-2.38463
11
3.39451
21
-2.38449
0
LINE
8
BLACK
6
CONTINUOUS
10
3.39451
20
-2.38449
11
3.39453
21
-2.38432
0
LINE
8
BLACK
6
CONTINUOUS
10
3.39453
20
-2.38432
11
3.39641
21
-2.38057
0
LINE
8
BLACK
6
CONTINUOUS
10
3.39641
20
-2.38057
11
3.39693
21
-2.37986
0
LINE
8
BLACK
6
CONTINUOUS
10
3.39693
20
-2.37986
11
3.39696
21
-2.3798
0
LINE
8
BLACK
6
CONTINUOUS
10
3.39696
20
-2.3798
11
3.39883
21
-2.37793
0
LINE
8
BLACK
6
CONTINUOUS
10
3.39883
20
-2.37793
11
3.39956
21
-2.37742
0
LINE
8
BLACK
6
CONTINUOUS
10
3.39956
20
-2.37742
11
3.3996
21
-2.37737
0
LINE
8
BLACK
6
CONTINUOUS
10
3.3996
20
-2.37737
11
3.40335
21
-2.3755
0
LINE
8
BLACK
6
CONTINUOUS
10
3.40335
20
-2.3755
11
3.40433
21
-2.37521
0
LINE
8
BLACK
6
CONTINUOUS
10
3.40433
20
-2.37521
11
3.4045
21
-2.37525
0
LINE
8
BLACK
6
CONTINUOUS
10
3.4045
20
-2.37525
11
3.40467
21
-2.37519
0
LINE
8
BLACK
6
CONTINUOUS
10
3.40467
20
-2.37519
11
3.41592
21
-2.37519
0
LINE
8
BLACK
6
CONTINUOUS
10
3.41592
20
-2.37519
11
3.41693
21
-2.37537
0
LINE
8
BLACK
6
CONTINUOUS
10
3.40267
20
-2.38244
11
3.40147
21
-2.38364
0
LINE
8
BLACK
6
CONTINUOUS
10
3.40147
20
-2.38364
11
3.40012
21
-2.38634
0
LINE
8
BLACK
6
CONTINUOUS
10
3.40012
20
-2.38634
11
3.40012
21
-2.39244
0
LINE
8
BLACK
6
CONTINUOUS
10
3.40012
20
-2.39244
11
3.40087
21
-2.39394
0
LINE
8
BLACK
6
CONTINUOUS
10
3.40087
20
-2.39394
11
3.41972
21
-2.39394
0
LINE
8
BLACK
6
CONTINUOUS
10
3.41972
20
-2.39394
11
3.42047
21
-2.39244
0
LINE
8
BLACK
6
CONTINUOUS
10
3.42047
20
-2.39244
11
3.42047
21
-2.38634
0
LINE
8
BLACK
6
CONTINUOUS
10
3.42047
20
-2.38634
11
3.41912
21
-2.38364
0
LINE
8
BLACK
6
CONTINUOUS
10
3.41912
20
-2.38364
11
3.41792
21
-2.38244
0
LINE
8
BLACK
6
CONTINUOUS
10
3.41792
20
-2.38244
11
3.41522
21
-2.38109
0
LINE
8
BLACK
6
CONTINUOUS
10
3.41522
20
-2.38109
11
3.40537
21
-2.38109
0
LINE
8
BLACK
6
CONTINUOUS
10
3.40537
20
-2.38109
11
3.40267
21
-2.38244
0
LINE
8
BLACK
6
CONTINUOUS
10
3.41693
20
-2.33974
11
3.41706
21
-2.33986
0
LINE
8
BLACK
6
CONTINUOUS
10
3.41706
20
-2.33986
11
3.41724
21
-2.33988
0
LINE
8
BLACK
6
CONTINUOUS
10
3.41724
20
-2.33988
11
3.42099
21
-2.34175
0
LINE
8
BLACK
6
CONTINUOUS
10
3.42099
20
-2.34175
11
3.4217
21
-2.34228
0
LINE
8
BLACK
6
CONTINUOUS
10
3.4217
20
-2.34228
11
3.42176
21
-2.34231
0
LINE
8
BLACK
6
CONTINUOUS
10
3.42176
20
-2.34231
11
3.42363
21
-2.34418
0
LINE
8
BLACK
6
CONTINUOUS
10
3.42363
20
-2.34418
11
3.42414
21
-2.3449
0
LINE
8
BLACK
6
CONTINUOUS
10
3.42414
20
-2.3449
11
3.42418
21
-2.34495
0
LINE
8
BLACK
6
CONTINUOUS
10
3.42418
20
-2.34495
11
3.42606
21
-2.3487
0
LINE
8
BLACK
6
CONTINUOUS
10
3.42606
20
-2.3487
11
3.42635
21
-2.34968
0
LINE
8
BLACK
6
CONTINUOUS
10
3.42635
20
-2.34968
11
3.42631
21
-2.34985
0
LINE
8
BLACK
6
CONTINUOUS
10
3.42631
20
-2.34985
11
3.42637
21
-2.35002
0
LINE
8
BLACK
6
CONTINUOUS
10
3.42637
20
-2.35002
11
3.42637
21
-2.35752
0
LINE
8
BLACK
6
CONTINUOUS
10
3.42637
20
-2.35752
11
3.42619
21
-2.35853
0
LINE
8
BLACK
6
CONTINUOUS
10
3.42619
20
-2.35853
11
3.42608
21
-2.35866
0
LINE
8
BLACK
6
CONTINUOUS
10
3.42608
20
-2.35866
11
3.42606
21
-2.35884
0
LINE
8
BLACK
6
CONTINUOUS
10
3.42606
20
-2.35884
11
3.4257
21
-2.35956
0
LINE
8
BLACK
6
CONTINUOUS
10
3.4257
20
-2.35956
11
3.42598
21
-2.35979
0
LINE
8
BLACK
6
CONTINUOUS
10
3.42598
20
-2.35979
11
3.42633
21
-2.36178
0
LINE
8
BLACK
6
CONTINUOUS
10
3.42633
20
-2.36178
11
3.42532
21
-2.36353
0
LINE
8
BLACK
6
CONTINUOUS
10
3.42532
20
-2.36353
11
3.42342
21
-2.36422
0
LINE
8
BLACK
6
CONTINUOUS
10
3.42342
20
-2.36422
11
3.38405
21
-2.36422
0
LINE
8
BLACK
6
CONTINUOUS
10
3.38405
20
-2.36422
11
3.38304
21
-2.36404
0
LINE
8
BLACK
6
CONTINUOUS
10
3.38304
20
-2.36404
11
3.38149
21
-2.36274
0
LINE
8
BLACK
6
CONTINUOUS
10
3.38149
20
-2.36274
11
3.38114
21
-2.36075
0
LINE
8
BLACK
6
CONTINUOUS
10
3.38114
20
-2.36075
11
3.38215
21
-2.35901
0
LINE
8
BLACK
6
CONTINUOUS
10
3.38215
20
-2.35901
11
3.38405
21
-2.35831
0
LINE
8
BLACK
6
CONTINUOUS
10
3.38405
20
-2.35831
11
3.39437
21
-2.35831
0
LINE
8
BLACK
6
CONTINUOUS
10
3.39437
20
-2.35831
11
3.39424
21
-2.35786
0
LINE
8
BLACK
6
CONTINUOUS
10
3.39424
20
-2.35786
11
3.39428
21
-2.35768
0
LINE
8
BLACK
6
CONTINUOUS
10
3.39428
20
-2.35768
11
3.39422
21
-2.35752
0
LINE
8
BLACK
6
CONTINUOUS
10
3.39422
20
-2.35752
11
3.39422
21
-2.35002
0
LINE
8
BLACK
6
CONTINUOUS
10
3.39422
20
-2.35002
11
3.3944
21
-2.34901
0
LINE
8
BLACK
6
CONTINUOUS
10
3.3944
20
-2.34901
11
3.39451
21
-2.34887
0
LINE
8
BLACK
6
CONTINUOUS
10
3.39451
20
-2.34887
11
3.39453
21
-2.3487
0
LINE
8
BLACK
6
CONTINUOUS
10
3.39453
20
-2.3487
11
3.39641
21
-2.34495
0
LINE
8
BLACK
6
CONTINUOUS
10
3.39641
20
-2.34495
11
3.39693
21
-2.34424
0
LINE
8
BLACK
6
CONTINUOUS
10
3.39693
20
-2.34424
11
3.39696
21
-2.34418
0
LINE
8
BLACK
6
CONTINUOUS
10
3.39696
20
-2.34418
11
3.39883
21
-2.34231
0
LINE
8
BLACK
6
CONTINUOUS
10
3.39883
20
-2.34231
11
3.39956
21
-2.3418
0
LINE
8
BLACK
6
CONTINUOUS
10
3.39956
20
-2.3418
11
3.3996
21
-2.34175
0
LINE
8
BLACK
6
CONTINUOUS
10
3.3996
20
-2.34175
11
3.40335
21
-2.33988
0
LINE
8
BLACK
6
CONTINUOUS
10
3.40335
20
-2.33988
11
3.40433
21
-2.33959
0
LINE
8
BLACK
6
CONTINUOUS
10
3.40433
20
-2.33959
11
3.4045
21
-2.33963
0
LINE
8
BLACK
6
CONTINUOUS
10
3.4045
20
-2.33963
11
3.40467
21
-2.33957
0
LINE
8
BLACK
6
CONTINUOUS
10
3.40467
20
-2.33957
11
3.41592
21
-2.33957
0
LINE
8
BLACK
6
CONTINUOUS
10
3.41592
20
-2.33957
11
3.41693
21
-2.33974
0
LINE
8
BLACK
6
CONTINUOUS
10
3.40267
20
-2.34682
11
3.40147
21
-2.34802
0
LINE
8
BLACK
6
CONTINUOUS
10
3.40147
20
-2.34802
11
3.40012
21
-2.35072
0
LINE
8
BLACK
6
CONTINUOUS
10
3.40012
20
-2.35072
11
3.40012
21
-2.35682
0
LINE
8
BLACK
6
CONTINUOUS
10
3.40012
20
-2.35682
11
3.40087
21
-2.35831
0
LINE
8
BLACK
6
CONTINUOUS
10
3.40087
20
-2.35831
11
3.41972
21
-2.35831
0
LINE
8
BLACK
6
CONTINUOUS
10
3.41972
20
-2.35831
11
3.42047
21
-2.35682
0
LINE
8
BLACK
6
CONTINUOUS
10
3.42047
20
-2.35682
11
3.42047
21
-2.35072
0
LINE
8
BLACK
6
CONTINUOUS
10
3.42047
20
-2.35072
11
3.41912
21
-2.34802
0
LINE
8
BLACK
6
CONTINUOUS
10
3.41912
20
-2.34802
11
3.41792
21
-2.34682
0
LINE
8
BLACK
6
CONTINUOUS
10
3.41792
20
-2.34682
11
3.41522
21
-2.34547
0
LINE
8
BLACK
6
CONTINUOUS
10
3.41522
20
-2.34547
11
3.40537
21
-2.34547
0
LINE
8
BLACK
6
CONTINUOUS
10
3.40537
20
-2.34547
11
3.40267
21
-2.34682
0
LINE
8
BLACK
6
CONTINUOUS
10
3.38642
20
-2.32094
11
3.38669
21
-2.32092
0
LINE
8
BLACK
6
CONTINUOUS
10
3.38669
20
-2.32092
11
3.38732
21
-2.32136
0
LINE
8
BLACK
6
CONTINUOUS
10
3.38732
20
-2.32136
11
3.38801
21
-2.32168
0
LINE
8
BLACK
6
CONTINUOUS
10
3.38801
20
-2.32168
11
3.38989
21
-2.32356
0
LINE
8
BLACK
6
CONTINUOUS
10
3.38989
20
-2.32356
11
3.39011
21
-2.32388
0
LINE
8
BLACK
6
CONTINUOUS
10
3.39011
20
-2.32388
11
3.39022
21
-2.32395
0
LINE
8
BLACK
6
CONTINUOUS
10
3.39022
20
-2.32395
11
3.39025
21
-2.32408
0
LINE
8
BLACK
6
CONTINUOUS
10
3.39025
20
-2.32408
11
3.39026
21
-2.32409
0
LINE
8
BLACK
6
CONTINUOUS
10
3.39026
20
-2.32409
11
3.39035
21
-2.32417
0
LINE
8
BLACK
6
CONTINUOUS
10
3.39035
20
-2.32417
11
3.39037
21
-2.32425
0
LINE
8
BLACK
6
CONTINUOUS
10
3.39037
20
-2.32425
11
3.39047
21
-2.3244
0
LINE
8
BLACK
6
CONTINUOUS
10
3.39047
20
-2.3244
11
3.39054
21
-2.32516
0
LINE
8
BLACK
6
CONTINUOUS
10
3.39054
20
-2.32516
11
3.39074
21
-2.3259
0
LINE
8
BLACK
6
CONTINUOUS
10
3.39074
20
-2.3259
11
3.39068
21
-2.32603
0
LINE
8
BLACK
6
CONTINUOUS
10
3.39068
20
-2.32603
11
3.39071
21
-2.32616
0
LINE
8
BLACK
6
CONTINUOUS
10
3.39071
20
-2.32616
11
3.39064
21
-2.32628
0
LINE
8
BLACK
6
CONTINUOUS
10
3.39064
20
-2.32628
11
3.39065
21
-2.32641
0
LINE
8
BLACK
6
CONTINUOUS
10
3.39065
20
-2.32641
11
3.39021
21
-2.32704
0
LINE
8
BLACK
6
CONTINUOUS
10
3.39021
20
-2.32704
11
3.38989
21
-2.32773
0
LINE
8
BLACK
6
CONTINUOUS
10
3.38989
20
-2.32773
11
3.38801
21
-2.32961
0
LINE
8
BLACK
6
CONTINUOUS
10
3.38801
20
-2.32961
11
3.38769
21
-2.32983
0
LINE
8
BLACK
6
CONTINUOUS
10
3.38769
20
-2.32983
11
3.38762
21
-2.32994
0
LINE
8
BLACK
6
CONTINUOUS
10
3.38762
20
-2.32994
11
3.38749
21
-2.32997
0
LINE
8
BLACK
6
CONTINUOUS
10
3.38749
20
-2.32997
11
3.38717
21
-2.3302
0
LINE
8
BLACK
6
CONTINUOUS
10
3.38717
20
-2.3302
11
3.38641
21
-2.33026
0
LINE
8
BLACK
6
CONTINUOUS
10
3.38641
20
-2.33026
11
3.38567
21
-2.33046
0
LINE
8
BLACK
6
CONTINUOUS
10
3.38567
20
-2.33046
11
3.38542
21
-2.33035
0
LINE
8
BLACK
6
CONTINUOUS
10
3.38542
20
-2.33035
11
3.38516
21
-2.33037
0
LINE
8
BLACK
6
CONTINUOUS
10
3.38516
20
-2.33037
11
3.38453
21
-2.32993
0
LINE
8
BLACK
6
CONTINUOUS
10
3.38453
20
-2.32993
11
3.38383
21
-2.32961
0
LINE
8
BLACK
6
CONTINUOUS
10
3.38383
20
-2.32961
11
3.38196
21
-2.32773
0
LINE
8
BLACK
6
CONTINUOUS
10
3.38196
20
-2.32773
11
3.38174
21
-2.32742
0
LINE
8
BLACK
6
CONTINUOUS
10
3.38174
20
-2.32742
11
3.38163
21
-2.32734
0
LINE
8
BLACK
6
CONTINUOUS
10
3.38163
20
-2.32734
11
3.3816
21
-2.32721
0
LINE
8
BLACK
6
CONTINUOUS
10
3.3816
20
-2.32721
11
3.38159
21
-2.32721
0
LINE
8
BLACK
6
CONTINUOUS
10
3.38159
20
-2.32721
11
3.38149
21
-2.32712
0
LINE
8
BLACK
6
CONTINUOUS
10
3.38149
20
-2.32712
11
3.38148
21
-2.32704
0
LINE
8
BLACK
6
CONTINUOUS
10
3.38148
20
-2.32704
11
3.38137
21
-2.32689
0
LINE
8
BLACK
6
CONTINUOUS
10
3.38137
20
-2.32689
11
3.3813
21
-2.32613
0
LINE
8
BLACK
6
CONTINUOUS
10
3.3813
20
-2.32613
11
3.38111
21
-2.32539
0
LINE
8
BLACK
6
CONTINUOUS
10
3.38111
20
-2.32539
11
3.38116
21
-2.32527
0
LINE
8
BLACK
6
CONTINUOUS
10
3.38116
20
-2.32527
11
3.38114
21
-2.32513
0
LINE
8
BLACK
6
CONTINUOUS
10
3.38114
20
-2.32513
11
3.38121
21
-2.32502
0
LINE
8
BLACK
6
CONTINUOUS
10
3.38121
20
-2.32502
11
3.3812
21
-2.32488
0
LINE
8
BLACK
6
CONTINUOUS
10
3.3812
20
-2.32488
11
3.38164
21
-2.32425
0
LINE
8
BLACK
6
CONTINUOUS
10
3.38164
20
-2.32425
11
3.38196
21
-2.32356
0
LINE
8
BLACK
6
CONTINUOUS
10
3.38196
20
-2.32356
11
3.38383
21
-2.32168
0
LINE
8
BLACK
6
CONTINUOUS
10
3.38383
20
-2.32168
11
3.38415
21
-2.32146
0
LINE
8
BLACK
6
CONTINUOUS
10
3.38415
20
-2.32146
11
3.38423
21
-2.32135
0
LINE
8
BLACK
6
CONTINUOUS
10
3.38423
20
-2.32135
11
3.38436
21
-2.32132
0
LINE
8
BLACK
6
CONTINUOUS
10
3.38436
20
-2.32132
11
3.38467
21
-2.3211
0
LINE
8
BLACK
6
CONTINUOUS
10
3.38467
20
-2.3211
11
3.38544
21
-2.32103
0
LINE
8
BLACK
6
CONTINUOUS
10
3.38544
20
-2.32103
11
3.38618
21
-2.32083
0
LINE
8
BLACK
6
CONTINUOUS
10
3.38618
20
-2.32083
11
3.38642
21
-2.32094
0
LINE
8
BLACK
6
CONTINUOUS
10
3.42443
20
-2.32287
11
3.42598
21
-2.32417
0
LINE
8
BLACK
6
CONTINUOUS
10
3.42598
20
-2.32417
11
3.42633
21
-2.32616
0
LINE
8
BLACK
6
CONTINUOUS
10
3.42633
20
-2.32616
11
3.42532
21
-2.32791
0
LINE
8
BLACK
6
CONTINUOUS
10
3.42532
20
-2.32791
11
3.42342
21
-2.3286
0
LINE
8
BLACK
6
CONTINUOUS
10
3.42342
20
-2.3286
11
3.39717
21
-2.3286
0
LINE
8
BLACK
6
CONTINUOUS
10
3.39717
20
-2.3286
11
3.39616
21
-2.32842
0
LINE
8
BLACK
6
CONTINUOUS
10
3.39616
20
-2.32842
11
3.39461
21
-2.32712
0
LINE
8
BLACK
6
CONTINUOUS
10
3.39461
20
-2.32712
11
3.39426
21
-2.32513
0
LINE
8
BLACK
6
CONTINUOUS
10
3.39426
20
-2.32513
11
3.39527
21
-2.32338
0
LINE
8
BLACK
6
CONTINUOUS
10
3.39527
20
-2.32338
11
3.39717
21
-2.32269
0
LINE
8
BLACK
6
CONTINUOUS
10
3.39717
20
-2.32269
11
3.42342
21
-2.32269
0
LINE
8
BLACK
6
CONTINUOUS
10
3.42342
20
-2.32269
11
3.42443
21
-2.32287
0
LINE
8
BLACK
6
CONTINUOUS
10
3.42443
20
-2.27038
11
3.42598
21
-2.27168
0
LINE
8
BLACK
6
CONTINUOUS
10
3.42598
20
-2.27168
11
3.42633
21
-2.27367
0
LINE
8
BLACK
6
CONTINUOUS
10
3.42633
20
-2.27367
11
3.42532
21
-2.27542
0
LINE
8
BLACK
6
CONTINUOUS
10
3.42532
20
-2.27542
11
3.42342
21
-2.27611
0
LINE
8
BLACK
6
CONTINUOUS
10
3.42342
20
-2.27611
11
3.40214
21
-2.27611
0
LINE
8
BLACK
6
CONTINUOUS
10
3.40214
20
-2.27611
11
3.40147
21
-2.27678
0
LINE
8
BLACK
6
CONTINUOUS
10
3.40147
20
-2.27678
11
3.40012
21
-2.27947
0
LINE
8
BLACK
6
CONTINUOUS
10
3.40012
20
-2.27947
11
3.40012
21
-2.2837
0
LINE
8
BLACK
6
CONTINUOUS
10
3.40012
20
-2.2837
11
3.40125
21
-2.28595
0
LINE
8
BLACK
6
CONTINUOUS
10
3.40125
20
-2.28595
11
3.40349
21
-2.28707
0
LINE
8
BLACK
6
CONTINUOUS
10
3.40349
20
-2.28707
11
3.42342
21
-2.28707
0
LINE
8
BLACK
6
CONTINUOUS
10
3.42342
20
-2.28707
11
3.42443
21
-2.28725
0
LINE
8
BLACK
6
CONTINUOUS
10
3.42443
20
-2.28725
11
3.42598
21
-2.28855
0
LINE
8
BLACK
6
CONTINUOUS
10
3.42598
20
-2.28855
11
3.42633
21
-2.29054
0
LINE
8
BLACK
6
CONTINUOUS
10
3.42633
20
-2.29054
11
3.42532
21
-2.29229
0
LINE
8
BLACK
6
CONTINUOUS
10
3.42532
20
-2.29229
11
3.42342
21
-2.29298
0
LINE
8
BLACK
6
CONTINUOUS
10
3.42342
20
-2.29298
11
3.40349
21
-2.29298
0
LINE
8
BLACK
6
CONTINUOUS
10
3.40349
20
-2.29298
11
3.40125
21
-2.2941
0
LINE
8
BLACK
6
CONTINUOUS
10
3.40125
20
-2.2941
11
3.40012
21
-2.29635
0
LINE
8
BLACK
6
CONTINUOUS
10
3.40012
20
-2.29635
11
3.40012
21
-2.30058
0
LINE
8
BLACK
6
CONTINUOUS
10
3.40012
20
-2.30058
11
3.40125
21
-2.30282
0
LINE
8
BLACK
6
CONTINUOUS
10
3.40125
20
-2.30282
11
3.40349
21
-2.30395
0
LINE
8
BLACK
6
CONTINUOUS
10
3.40349
20
-2.30395
11
3.42342
21
-2.30395
0
LINE
8
BLACK
6
CONTINUOUS
10
3.42342
20
-2.30395
11
3.42443
21
-2.30412
0
LINE
8
BLACK
6
CONTINUOUS
10
3.42443
20
-2.30412
11
3.42598
21
-2.30542
0
LINE
8
BLACK
6
CONTINUOUS
10
3.42598
20
-2.30542
11
3.42633
21
-2.30741
0
LINE
8
BLACK
6
CONTINUOUS
10
3.42633
20
-2.30741
11
3.42532
21
-2.30916
0
LINE
8
BLACK
6
CONTINUOUS
10
3.42532
20
-2.30916
11
3.42342
21
-2.30985
0
LINE
8
BLACK
6
CONTINUOUS
10
3.42342
20
-2.30985
11
3.4028
21
-2.30985
0
LINE
8
BLACK
6
CONTINUOUS
10
3.4028
20
-2.30985
11
3.40179
21
-2.30967
0
LINE
8
BLACK
6
CONTINUOUS
10
3.40179
20
-2.30967
11
3.40165
21
-2.30956
0
LINE
8
BLACK
6
CONTINUOUS
10
3.40165
20
-2.30956
11
3.40148
21
-2.30954
0
LINE
8
BLACK
6
CONTINUOUS
10
3.40148
20
-2.30954
11
3.39773
21
-2.30767
0
LINE
8
BLACK
6
CONTINUOUS
10
3.39773
20
-2.30767
11
3.3969
21
-2.30705
0
LINE
8
BLACK
6
CONTINUOUS
10
3.3969
20
-2.30705
11
3.39673
21
-2.30665
0
LINE
8
BLACK
6
CONTINUOUS
10
3.39673
20
-2.30665
11
3.39641
21
-2.30634
0
LINE
8
BLACK
6
CONTINUOUS
10
3.39641
20
-2.30634
11
3.39453
21
-2.3026
0
LINE
8
BLACK
6
CONTINUOUS
10
3.39453
20
-2.3026
11
3.39424
21
-2.30161
0
LINE
8
BLACK
6
CONTINUOUS
10
3.39424
20
-2.30161
11
3.39428
21
-2.30144
0
LINE
8
BLACK
6
CONTINUOUS
10
3.39428
20
-2.30144
11
3.39422
21
-2.30127
0
LINE
8
BLACK
6
CONTINUOUS
10
3.39422
20
-2.30127
11
3.39422
21
-2.29565
0
LINE
8
BLACK
6
CONTINUOUS
10
3.39422
20
-2.29565
11
3.3944
21
-2.29464
0
LINE
8
BLACK
6
CONTINUOUS
10
3.3944
20
-2.29464
11
3.39451
21
-2.29451
0
LINE
8
BLACK
6
CONTINUOUS
10
3.39451
20
-2.29451
11
3.39453
21
-2.29433
0
LINE
8
BLACK
6
CONTINUOUS
10
3.39453
20
-2.29433
11
3.39641
21
-2.29058
0
LINE
8
BLACK
6
CONTINUOUS
10
3.39641
20
-2.29058
11
3.39683
21
-2.29001
0
LINE
8
BLACK
6
CONTINUOUS
10
3.39683
20
-2.29001
11
3.39673
21
-2.28978
0
LINE
8
BLACK
6
CONTINUOUS
10
3.39673
20
-2.28978
11
3.39641
21
-2.28947
0
LINE
8
BLACK
6
CONTINUOUS
10
3.39641
20
-2.28947
11
3.39453
21
-2.28572
0
LINE
8
BLACK
6
CONTINUOUS
10
3.39453
20
-2.28572
11
3.39424
21
-2.28474
0
LINE
8
BLACK
6
CONTINUOUS
10
3.39424
20
-2.28474
11
3.39428
21
-2.28457
0
LINE
8
BLACK
6
CONTINUOUS
10
3.39428
20
-2.28457
11
3.39422
21
-2.2844
0
LINE
8
BLACK
6
CONTINUOUS
10
3.39422
20
-2.2844
11
3.39422
21
-2.27878
0
LINE
8
BLACK
6
CONTINUOUS
10
3.39422
20
-2.27878
11
3.3944
21
-2.27777
0
LINE
8
BLACK
6
CONTINUOUS
10
3.3944
20
-2.27777
11
3.39451
21
-2.27763
0
LINE
8
BLACK
6
CONTINUOUS
10
3.39451
20
-2.27763
11
3.39453
21
-2.27746
0
LINE
8
BLACK
6
CONTINUOUS
10
3.39453
20
-2.27746
11
3.39555
21
-2.27542
0
LINE
8
BLACK
6
CONTINUOUS
10
3.39555
20
-2.27542
11
3.39461
21
-2.27463
0
LINE
8
BLACK
6
CONTINUOUS
10
3.39461
20
-2.27463
11
3.39426
21
-2.27264
0
LINE
8
BLACK
6
CONTINUOUS
10
3.39426
20
-2.27264
11
3.39527
21
-2.27089
0
LINE
8
BLACK
6
CONTINUOUS
10
3.39527
20
-2.27089
11
3.39717
21
-2.2702
0
LINE
8
BLACK
6
CONTINUOUS
10
3.39717
20
-2.2702
11
3.42342
21
-2.2702
0
LINE
8
BLACK
6
CONTINUOUS
10
3.42342
20
-2.2702
11
3.42443
21
-2.27038
0
LINE
8
BLACK
6
CONTINUOUS
10
3.33961
20
-2.16971
11
3.34466
21
-2.17281
0
LINE
8
BLACK
6
CONTINUOUS
10
3.34466
20
-2.17281
11
3.34532
21
-2.17339
0
LINE
8
BLACK
6
CONTINUOUS
10
3.34532
20
-2.17339
11
3.34538
21
-2.17343
0
LINE
8
BLACK
6
CONTINUOUS
10
3.34538
20
-2.17343
11
3.35141
21
-2.18061
0
LINE
8
BLACK
6
CONTINUOUS
10
3.35141
20
-2.18061
11
3.35192
21
-2.1815
0
LINE
8
BLACK
6
CONTINUOUS
10
3.35192
20
-2.1815
11
3.35192
21
-2.18167
0
LINE
8
BLACK
6
CONTINUOUS
10
3.35192
20
-2.18167
11
3.35202
21
-2.18182
0
LINE
8
BLACK
6
CONTINUOUS
10
3.35202
20
-2.18182
11
3.35299
21
-2.1859
0
LINE
8
BLACK
6
CONTINUOUS
10
3.35299
20
-2.1859
11
3.35304
21
-2.18678
0
LINE
8
BLACK
6
CONTINUOUS
10
3.35304
20
-2.18678
11
3.35306
21
-2.18684
0
LINE
8
BLACK
6
CONTINUOUS
10
3.35306
20
-2.18684
11
3.35283
21
-2.18948
0
LINE
8
BLACK
6
CONTINUOUS
10
3.35283
20
-2.18948
11
3.3526
21
-2.19033
0
LINE
8
BLACK
6
CONTINUOUS
10
3.3526
20
-2.19033
11
3.3526
21
-2.1904
0
LINE
8
BLACK
6
CONTINUOUS
10
3.3526
20
-2.1904
11
3.35093
21
-2.19424
0
LINE
8
BLACK
6
CONTINUOUS
10
3.35093
20
-2.19424
11
3.35036
21
-2.1951
0
LINE
8
BLACK
6
CONTINUOUS
10
3.35036
20
-2.1951
11
3.35021
21
-2.19518
0
LINE
8
BLACK
6
CONTINUOUS
10
3.35021
20
-2.19518
11
3.35012
21
-2.19533
0
LINE
8
BLACK
6
CONTINUOUS
10
3.35012
20
-2.19533
11
3.34724
21
-2.19774
0
LINE
8
BLACK
6
CONTINUOUS
10
3.34724
20
-2.19774
11
3.34636
21
-2.19826
0
LINE
8
BLACK
6
CONTINUOUS
10
3.34636
20
-2.19826
11
3.34618
21
-2.19826
0
LINE
8
BLACK
6
CONTINUOUS
10
3.34618
20
-2.19826
11
3.34603
21
-2.19835
0
LINE
8
BLACK
6
CONTINUOUS
10
3.34603
20
-2.19835
11
3.34196
21
-2.19933
0
LINE
8
BLACK
6
CONTINUOUS
10
3.34196
20
-2.19933
11
3.34107
21
-2.19938
0
LINE
8
BLACK
6
CONTINUOUS
10
3.34107
20
-2.19938
11
3.34101
21
-2.1994
0
LINE
8
BLACK
6
CONTINUOUS
10
3.34101
20
-2.1994
11
3.33837
21
-2.19917
0
LINE
8
BLACK
6
CONTINUOUS
10
3.33837
20
-2.19917
11
3.33752
21
-2.19894
0
LINE
8
BLACK
6
CONTINUOUS
10
3.33752
20
-2.19894
11
3.33745
21
-2.19893
0
LINE
8
BLACK
6
CONTINUOUS
10
3.33745
20
-2.19893
11
3.33361
21
-2.19727
0
LINE
8
BLACK
6
CONTINUOUS
10
3.33361
20
-2.19727
11
3.33318
21
-2.19698
0
LINE
8
BLACK
6
CONTINUOUS
10
3.33318
20
-2.19698
11
3.33305
21
-2.19695
0
LINE
8
BLACK
6
CONTINUOUS
10
3.33305
20
-2.19695
11
3.32705
21
-2.1926
0
LINE
8
BLACK
6
CONTINUOUS
10
3.32705
20
-2.1926
11
3.32394
21
-2.19125
0
LINE
8
BLACK
6
CONTINUOUS
10
3.32394
20
-2.19125
11
3.32226
21
-2.1911
0
LINE
8
BLACK
6
CONTINUOUS
10
3.32226
20
-2.1911
11
3.31932
21
-2.1918
0
LINE
8
BLACK
6
CONTINUOUS
10
3.31932
20
-2.1918
11
3.31752
21
-2.19332
0
LINE
8
BLACK
6
CONTINUOUS
10
3.31752
20
-2.19332
11
3.31632
21
-2.19608
0
LINE
8
BLACK
6
CONTINUOUS
10
3.31632
20
-2.19608
11
3.31617
21
-2.19777
0
LINE
8
BLACK
6
CONTINUOUS
10
3.31617
20
-2.19777
11
3.31687
21
-2.2007
0
LINE
8
BLACK
6
CONTINUOUS
10
3.31687
20
-2.2007
11
3.32214
21
-2.20698
0
LINE
8
BLACK
6
CONTINUOUS
10
3.32214
20
-2.20698
11
3.32679
21
-2.20984
0
LINE
8
BLACK
6
CONTINUOUS
10
3.32679
20
-2.20984
11
3.32755
21
-2.21052
0
LINE
8
BLACK
6
CONTINUOUS
10
3.32755
20
-2.21052
11
3.32819
21
-2.21243
0
LINE
8
BLACK
6
CONTINUOUS
10
3.32819
20
-2.21243
11
3.32745
21
-2.21431
0
LINE
8
BLACK
6
CONTINUOUS
10
3.32745
20
-2.21431
11
3.32567
21
-2.21527
0
LINE
8
BLACK
6
CONTINUOUS
10
3.32567
20
-2.21527
11
3.32369
21
-2.21487
0
LINE
8
BLACK
6
CONTINUOUS
10
3.32369
20
-2.21487
11
3.31864
21
-2.21176
0
LINE
8
BLACK
6
CONTINUOUS
10
3.31864
20
-2.21176
11
3.31798
21
-2.21118
0
LINE
8
BLACK
6
CONTINUOUS
10
3.31798
20
-2.21118
11
3.31793
21
-2.21115
0
LINE
8
BLACK
6
CONTINUOUS
10
3.31793
20
-2.21115
11
3.3119
21
-2.20397
0
LINE
8
BLACK
6
CONTINUOUS
10
3.3119
20
-2.20397
11
3.31139
21
-2.20308
0
LINE
8
BLACK
6
CONTINUOUS
10
3.31139
20
-2.20308
11
3.31139
21
-2.2029
0
LINE
8
BLACK
6
CONTINUOUS
10
3.31139
20
-2.2029
11
3.31129
21
-2.20275
0
LINE
8
BLACK
6
CONTINUOUS
10
3.31129
20
-2.20275
11
3.31032
21
-2.19868
0
LINE
8
BLACK
6
CONTINUOUS
10
3.31032
20
-2.19868
11
3.31026
21
-2.1978
0
LINE
8
BLACK
6
CONTINUOUS
10
3.31026
20
-2.1978
11
3.31025
21
-2.19773
0
LINE
8
BLACK
6
CONTINUOUS
10
3.31025
20
-2.19773
11
3.31048
21
-2.19509
0
LINE
8
BLACK
6
CONTINUOUS
10
3.31048
20
-2.19509
11
3.31071
21
-2.19424
0
LINE
8
BLACK
6
CONTINUOUS
10
3.31071
20
-2.19424
11
3.31071
21
-2.19417
0
LINE
8
BLACK
6
CONTINUOUS
10
3.31071
20
-2.19417
11
3.31238
21
-2.19033
0
LINE
8
BLACK
6
CONTINUOUS
10
3.31238
20
-2.19033
11
3.31294
21
-2.18947
0
LINE
8
BLACK
6
CONTINUOUS
10
3.31294
20
-2.18947
11
3.3131
21
-2.18939
0
LINE
8
BLACK
6
CONTINUOUS
10
3.3131
20
-2.18939
11
3.31319
21
-2.18924
0
LINE
8
BLACK
6
CONTINUOUS
10
3.31319
20
-2.18924
11
3.31606
21
-2.18683
0
LINE
8
BLACK
6
CONTINUOUS
10
3.31606
20
-2.18683
11
3.31695
21
-2.18632
0
LINE
8
BLACK
6
CONTINUOUS
10
3.31695
20
-2.18632
11
3.31713
21
-2.18632
0
LINE
8
BLACK
6
CONTINUOUS
10
3.31713
20
-2.18632
11
3.31727
21
-2.18622
0
LINE
8
BLACK
6
CONTINUOUS
10
3.31727
20
-2.18622
11
3.32135
21
-2.18525
0
LINE
8
BLACK
6
CONTINUOUS
10
3.32135
20
-2.18525
11
3.32223
21
-2.18519
0
LINE
8
BLACK
6
CONTINUOUS
10
3.32223
20
-2.18519
11
3.32229
21
-2.18518
0
LINE
8
BLACK
6
CONTINUOUS
10
3.32229
20
-2.18518
11
3.32494
21
-2.18541
0
LINE
8
BLACK
6
CONTINUOUS
10
3.32494
20
-2.18541
11
3.32579
21
-2.18564
0
LINE
8
BLACK
6
CONTINUOUS
10
3.32579
20
-2.18564
11
3.32585
21
-2.18564
0
LINE
8
BLACK
6
CONTINUOUS
10
3.32585
20
-2.18564
11
3.3297
21
-2.18731
0
LINE
8
BLACK
6
CONTINUOUS
10
3.3297
20
-2.18731
11
3.33012
21
-2.18759
0
LINE
8
BLACK
6
CONTINUOUS
10
3.33012
20
-2.18759
11
3.33026
21
-2.18763
0
LINE
8
BLACK
6
CONTINUOUS
10
3.33026
20
-2.18763
11
3.33625
21
-2.19198
0
LINE
8
BLACK
6
CONTINUOUS
10
3.33625
20
-2.19198
11
3.33936
21
-2.19332
0
LINE
8
BLACK
6
CONTINUOUS
10
3.33936
20
-2.19332
11
3.34105
21
-2.19347
0
LINE
8
BLACK
6
CONTINUOUS
10
3.34105
20
-2.19347
11
3.34398
21
-2.19277
0
LINE
8
BLACK
6
CONTINUOUS
10
3.34398
20
-2.19277
11
3.34579
21
-2.19126
0
LINE
8
BLACK
6
CONTINUOUS
10
3.34579
20
-2.19126
11
3.34699
21
-2.18849
0
LINE
8
BLACK
6
CONTINUOUS
10
3.34699
20
-2.18849
11
3.34713
21
-2.1868
0
LINE
8
BLACK
6
CONTINUOUS
10
3.34713
20
-2.1868
11
3.34643
21
-2.18387
0
LINE
8
BLACK
6
CONTINUOUS
10
3.34643
20
-2.18387
11
3.34116
21
-2.17759
0
LINE
8
BLACK
6
CONTINUOUS
10
3.34116
20
-2.17759
11
3.33652
21
-2.17474
0
LINE
8
BLACK
6
CONTINUOUS
10
3.33652
20
-2.17474
11
3.33575
21
-2.17406
0
LINE
8
BLACK
6
CONTINUOUS
10
3.33575
20
-2.17406
11
3.33511
21
-2.17214
0
LINE
8
BLACK
6
CONTINUOUS
10
3.33511
20
-2.17214
11
3.33586
21
-2.17026
0
LINE
8
BLACK
6
CONTINUOUS
10
3.33586
20
-2.17026
11
3.33763
21
-2.1693
0
LINE
8
BLACK
6
CONTINUOUS
10
3.33763
20
-2.1693
11
3.33961
21
-2.16971
0
LINE
8
BLACK
6
CONTINUOUS
10
3.32398
20
-2.148
11
3.32433
21
-2.14999
0
LINE
8
BLACK
6
CONTINUOUS
10
3.32433
20
-2.14999
11
3.32332
21
-2.15174
0
LINE
8
BLACK
6
CONTINUOUS
10
3.32332
20
-2.15174
11
3.30215
21
-2.1695
0
LINE
8
BLACK
6
CONTINUOUS
10
3.30215
20
-2.1695
11
3.29966
21
-2.17355
0
LINE
8
BLACK
6
CONTINUOUS
10
3.29966
20
-2.17355
11
3.29932
21
-2.17745
0
LINE
8
BLACK
6
CONTINUOUS
10
3.29932
20
-2.17745
11
3.30107
21
-2.18187
0
LINE
8
BLACK
6
CONTINUOUS
10
3.30107
20
-2.18187
11
3.30317
21
-2.18437
0
LINE
8
BLACK
6
CONTINUOUS
10
3.30317
20
-2.18437
11
3.30368
21
-2.18526
0
LINE
8
BLACK
6
CONTINUOUS
10
3.30368
20
-2.18526
11
3.30368
21
-2.18728
0
LINE
8
BLACK
6
CONTINUOUS
10
3.30368
20
-2.18728
11
3.30238
21
-2.18883
0
LINE
8
BLACK
6
CONTINUOUS
10
3.30238
20
-2.18883
11
3.3004
21
-2.18918
0
LINE
8
BLACK
6
CONTINUOUS
10
3.3004
20
-2.18918
11
3.29865
21
-2.18817
0
LINE
8
BLACK
6
CONTINUOUS
10
3.29865
20
-2.18817
11
3.29624
21
-2.1853
0
LINE
8
BLACK
6
CONTINUOUS
10
3.29624
20
-2.1853
11
3.29579
21
-2.18453
0
LINE
8
BLACK
6
CONTINUOUS
10
3.29579
20
-2.18453
11
3.29575
21
-2.18448
0
LINE
8
BLACK
6
CONTINUOUS
10
3.29575
20
-2.18448
11
3.29357
21
-2.17897
0
LINE
8
BLACK
6
CONTINUOUS
10
3.29357
20
-2.17897
11
3.29337
21
-2.17796
0
LINE
8
BLACK
6
CONTINUOUS
10
3.29337
20
-2.17796
11
3.29342
21
-2.1778
0
LINE
8
BLACK
6
CONTINUOUS
10
3.29342
20
-2.1778
11
3.29338
21
-2.17763
0
LINE
8
BLACK
6
CONTINUOUS
10
3.29338
20
-2.17763
11
3.29384
21
-2.17234
0
LINE
8
BLACK
6
CONTINUOUS
10
3.29384
20
-2.17234
11
3.2941
21
-2.17135
0
LINE
8
BLACK
6
CONTINUOUS
10
3.2941
20
-2.17135
11
3.29423
21
-2.17123
0
LINE
8
BLACK
6
CONTINUOUS
10
3.29423
20
-2.17123
11
3.29426
21
-2.17106
0
LINE
8
BLACK
6
CONTINUOUS
10
3.29426
20
-2.17106
11
3.29737
21
-2.166
0
LINE
8
BLACK
6
CONTINUOUS
10
3.29737
20
-2.166
11
3.29795
21
-2.16534
0
LINE
8
BLACK
6
CONTINUOUS
10
3.29795
20
-2.16534
11
3.29799
21
-2.16529
0
LINE
8
BLACK
6
CONTINUOUS
10
3.29799
20
-2.16529
11
3.31953
21
-2.14721
0
LINE
8
BLACK
6
CONTINUOUS
10
3.31953
20
-2.14721
11
3.32042
21
-2.1467
0
LINE
8
BLACK
6
CONTINUOUS
10
3.32042
20
-2.1467
11
3.32244
21
-2.1467
0
LINE
8
BLACK
6
CONTINUOUS
10
3.32244
20
-2.1467
11
3.32398
21
-2.148
  0
ENDSEC
  0
EOF
