  0
SECTION
  2
HEADER
  9
$ANGBASE
  50
0.0
  9
$ANGDIR
  70
1
  9
$MEASUREMENT
  70
0
  0
ENDSEC
  0
SECTION
  2
TABLES
  0
TABLE
  2
LTYPE
  70
4
  0
LTYPE
  5
40F
  2
CONTINUOUS
  70
0
  3
Solid line
  72
65
  73
0
  40
0.0
  0
LTYPE
  5
410
  2
DASHDOT
 70
0
  3
Dash Dot ____ _ ____ _
 72
65
 73
4
 40
2.0
 49
1.25
 49
-0.25
 49
0.25
 49
-0.25
  0
LTYPE
  5
411
  2
DASHED
 70
0
  3
Dashed __ __ __ __ __
 72
65
 73
2
 40
0.75
 49
0.5
 49
-0.25
  0
LTYPE
  5
43B
  2
DOTTED
 70
0
  3
Dotted .  .  .  .
 72
65
 73
2
 40
0.2
 49
0.0
 49
-0.2
  0
ENDTAB
  0
TABLE
  2
STYLE
  70
4
  0
STYLE
  2
KICAD
  70
0
  40
0
  41
1
  42
1
  50
0
  71
0
  3
isocp.shx
  0
STYLE
  2
KICADB
  70
0
  40
0
  41
1
  42
1
  50
0
  71
0
  3
isocp.shx
  0
STYLE
  2
KICADI
  70
0
  40
0
  41
1
  42
1
  50
15
  71
0
  3
isocp.shx
  0
STYLE
  2
KICADBI
  70
0
  40
0
  41
1
  42
1
  50
15
  71
0
  3
isocp.shx
  0
ENDTAB
  0
TABLE
  2
LAYER
  70
1
  0
LAYER
  2
BLACK
  70
0
  62
7
  6
CONTINUOUS
  0
ENDTAB
  0
ENDSEC
  0
SECTION
  2
ENTITIES
0
LINE
8
BLACK
6
CONTINUOUS
10
3.52362
20
-2.53937
11
3.48425
21
-2.53937
0
LINE
8
BLACK
6
CONTINUOUS
10
3.48425
20
-2.53937
11
3.48425
21
-2.4311
0
LINE
8
BLACK
6
CONTINUOUS
10
3.48425
20
-2.4311
11
3.52362
21
-2.4311
0
LINE
8
BLACK
6
CONTINUOUS
10
3.52362
20
-2.4311
11
3.52362
21
-2.53937
0
LINE
8
BLACK
6
CONTINUOUS
10
3.60236
20
-2.53937
11
3.56299
21
-2.53937
0
LINE
8
BLACK
6
CONTINUOUS
10
3.56299
20
-2.53937
11
3.56299
21
-2.4311
0
LINE
8
BLACK
6
CONTINUOUS
10
3.56299
20
-2.4311
11
3.60236
21
-2.4311
0
LINE
8
BLACK
6
CONTINUOUS
10
3.60236
20
-2.4311
11
3.60236
21
-2.53937
0
LINE
8
BLACK
6
CONTINUOUS
10
3.52362
20
-2.29331
11
3.48425
21
-2.29331
0
LINE
8
BLACK
6
CONTINUOUS
10
3.48425
20
-2.29331
11
3.48425
21
-2.18504
0
LINE
8
BLACK
6
CONTINUOUS
10
3.48425
20
-2.18504
11
3.52362
21
-2.18504
0
LINE
8
BLACK
6
CONTINUOUS
10
3.52362
20
-2.18504
11
3.52362
21
-2.29331
0
LINE
8
BLACK
6
CONTINUOUS
10
3.60236
20
-2.29331
11
3.56299
21
-2.29331
0
LINE
8
BLACK
6
CONTINUOUS
10
3.56299
20
-2.29331
11
3.56299
21
-2.18504
0
LINE
8
BLACK
6
CONTINUOUS
10
3.56299
20
-2.18504
11
3.60236
21
-2.18504
0
LINE
8
BLACK
6
CONTINUOUS
10
3.60236
20
-2.18504
11
3.60236
21
-2.29331
0
LINE
8
BLACK
6
CONTINUOUS
10
3.41702
20
-2.13448
11
3.41687
21
-2.13461
0
LINE
8
BLACK
6
CONTINUOUS
10
3.41687
20
-2.13461
11
3.41867
21
-2.13676
0
LINE
8
BLACK
6
CONTINUOUS
10
3.41867
20
-2.13676
11
3.42092
21
-2.14189
0
LINE
8
BLACK
6
CONTINUOUS
10
3.42092
20
-2.14189
11
3.42162
21
-2.14745
0
LINE
8
BLACK
6
CONTINUOUS
10
3.42162
20
-2.14745
11
3.42074
21
-2.15298
0
LINE
8
BLACK
6
CONTINUOUS
10
3.42074
20
-2.15298
11
3.41833
21
-2.15804
0
LINE
8
BLACK
6
CONTINUOUS
10
3.41833
20
-2.15804
11
3.4146
21
-2.16221
0
LINE
8
BLACK
6
CONTINUOUS
10
3.4146
20
-2.16221
11
3.39952
21
-2.17487
0
LINE
8
BLACK
6
CONTINUOUS
10
3.39952
20
-2.17487
11
3.39475
21
-2.17782
0
LINE
8
BLACK
6
CONTINUOUS
10
3.39475
20
-2.17782
11
3.38935
21
-2.17932
0
LINE
8
BLACK
6
CONTINUOUS
10
3.38935
20
-2.17932
11
3.38375
21
-2.17923
0
LINE
8
BLACK
6
CONTINUOUS
10
3.38375
20
-2.17923
11
3.3784
21
-2.17756
0
LINE
8
BLACK
6
CONTINUOUS
10
3.3784
20
-2.17756
11
3.37374
21
-2.17446
0
LINE
8
BLACK
6
CONTINUOUS
10
3.37374
20
-2.17446
11
3.37194
21
-2.17231
0
LINE
8
BLACK
6
CONTINUOUS
10
3.37194
20
-2.17231
11
3.37178
21
-2.17244
0
LINE
8
BLACK
6
CONTINUOUS
10
3.37178
20
-2.17244
11
3.35913
21
-2.15736
0
LINE
8
BLACK
6
CONTINUOUS
10
3.35913
20
-2.15736
11
3.40437
21
-2.1194
0
LINE
8
BLACK
6
CONTINUOUS
10
3.40437
20
-2.1194
11
3.41702
21
-2.13448
0
LINE
8
BLACK
6
CONTINUOUS
10
3.37215
20
-2.08849
11
3.3775
21
-2.09015
0
LINE
8
BLACK
6
CONTINUOUS
10
3.3775
20
-2.09015
11
3.38217
21
-2.09326
0
LINE
8
BLACK
6
CONTINUOUS
10
3.38217
20
-2.09326
11
3.38397
21
-2.0954
0
LINE
8
BLACK
6
CONTINUOUS
10
3.38397
20
-2.0954
11
3.38412
21
-2.09527
0
LINE
8
BLACK
6
CONTINUOUS
10
3.38412
20
-2.09527
11
3.39678
21
-2.11035
0
LINE
8
BLACK
6
CONTINUOUS
10
3.39678
20
-2.11035
11
3.35154
21
-2.14831
0
LINE
8
BLACK
6
CONTINUOUS
10
3.35154
20
-2.14831
11
3.33888
21
-2.13323
0
LINE
8
BLACK
6
CONTINUOUS
10
3.33888
20
-2.13323
11
3.33904
21
-2.13311
0
LINE
8
BLACK
6
CONTINUOUS
10
3.33904
20
-2.13311
11
3.33724
21
-2.13096
0
LINE
8
BLACK
6
CONTINUOUS
10
3.33724
20
-2.13096
11
3.33499
21
-2.12583
0
LINE
8
BLACK
6
CONTINUOUS
10
3.33499
20
-2.12583
11
3.33428
21
-2.12027
0
LINE
8
BLACK
6
CONTINUOUS
10
3.33428
20
-2.12027
11
3.33517
21
-2.11474
0
LINE
8
BLACK
6
CONTINUOUS
10
3.33517
20
-2.11474
11
3.33757
21
-2.10968
0
LINE
8
BLACK
6
CONTINUOUS
10
3.33757
20
-2.10968
11
3.34131
21
-2.1055
0
LINE
8
BLACK
6
CONTINUOUS
10
3.34131
20
-2.1055
11
3.35639
21
-2.09285
0
LINE
8
BLACK
6
CONTINUOUS
10
3.35639
20
-2.09285
11
3.36115
21
-2.08989
0
LINE
8
BLACK
6
CONTINUOUS
10
3.36115
20
-2.08989
11
3.36655
21
-2.0884
0
LINE
8
BLACK
6
CONTINUOUS
10
3.36655
20
-2.0884
11
3.37215
21
-2.08849
  0
ENDSEC
  0
EOF
