  0
SECTION
  2
HEADER
  9
$ANGBASE
  50
0.0
  9
$ANGDIR
  70
1
  9
$MEASUREMENT
  70
0
  0
ENDSEC
  0
SECTION
  2
TABLES
  0
TABLE
  2
LTYPE
  70
4
  0
LTYPE
  5
40F
  2
CONTINUOUS
  70
0
  3
Solid line
  72
65
  73
0
  40
0.0
  0
LTYPE
  5
410
  2
DASHDOT
 70
0
  3
Dash Dot ____ _ ____ _
 72
65
 73
4
 40
2.0
 49
1.25
 49
-0.25
 49
0.25
 49
-0.25
  0
LTYPE
  5
411
  2
DASHED
 70
0
  3
Dashed __ __ __ __ __
 72
65
 73
2
 40
0.75
 49
0.5
 49
-0.25
  0
LTYPE
  5
43B
  2
DOTTED
 70
0
  3
Dotted .  .  .  .
 72
65
 73
2
 40
0.2
 49
0.0
 49
-0.2
  0
ENDTAB
  0
TABLE
  2
STYLE
  70
4
  0
STYLE
  2
KICAD
  70
0
  40
0
  41
1
  42
1
  50
0
  71
0
  3
isocp.shx
  0
STYLE
  2
KICADB
  70
0
  40
0
  41
1
  42
1
  50
0
  71
0
  3
isocp.shx
  0
STYLE
  2
KICADI
  70
0
  40
0
  41
1
  42
1
  50
15
  71
0
  3
isocp.shx
  0
STYLE
  2
KICADBI
  70
0
  40
0
  41
1
  42
1
  50
15
  71
0
  3
isocp.shx
  0
ENDTAB
  0
TABLE
  2
LAYER
  70
1
  0
LAYER
  2
BLACK
  70
0
  62
7
  6
CONTINUOUS
  0
ENDTAB
  0
ENDSEC
  0
SECTION
  2
ENTITIES
0
LINE
8
BLACK
6
CONTINUOUS
10
3.1577837795275592
20
-2.7773694488188974
11
3.1624972440944883
21
-2.7803986220472439
0
LINE
8
BLACK
6
CONTINUOUS
10
3.1624972440944883
20
-2.7803986220472439
11
3.1661664173228345
21
-2.7846330708661418
0
LINE
8
BLACK
6
CONTINUOUS
10
3.1661664173228345
20
-2.7846330708661418
11
3.1684939370078737
21
-2.78972968503937
0
LINE
8
BLACK
6
CONTINUOUS
10
3.1684939370078737
20
-2.78972968503937
11
3.1692913385826773
21
-2.795275590551181
0
LINE
8
BLACK
6
CONTINUOUS
10
3.1692913385826773
20
-2.795275590551181
11
3.1684939370078737
21
-2.800821496062992
0
LINE
8
BLACK
6
CONTINUOUS
10
3.1684939370078737
20
-2.800821496062992
11
3.1661664173228345
21
-2.8059181102362203
0
LINE
8
BLACK
6
CONTINUOUS
10
3.1661664173228345
20
-2.8059181102362203
11
3.1624972440944883
21
-2.8101525590551182
0
LINE
8
BLACK
6
CONTINUOUS
10
3.1624972440944883
20
-2.8101525590551182
11
3.1577837795275592
21
-2.8131817322834647
0
LINE
8
BLACK
6
CONTINUOUS
10
3.1577837795275592
20
-2.8131817322834647
11
3.1524077559055117
21
-2.814760275590551
0
LINE
8
BLACK
6
CONTINUOUS
10
3.1524077559055117
20
-2.814760275590551
11
3.1468048425196851
21
-2.814760275590551
0
LINE
8
BLACK
6
CONTINUOUS
10
3.1468048425196851
20
-2.814760275590551
11
3.1414288188976376
21
-2.8131817322834647
0
LINE
8
BLACK
6
CONTINUOUS
10
3.1414288188976376
20
-2.8131817322834647
11
3.1367153543307085
21
-2.8101525590551182
0
LINE
8
BLACK
6
CONTINUOUS
10
3.1367153543307085
20
-2.8101525590551182
11
3.1330461811023622
21
-2.8059181102362203
0
LINE
8
BLACK
6
CONTINUOUS
10
3.1330461811023622
20
-2.8059181102362203
11
3.1307186614173226
21
-2.800821496062992
0
LINE
8
BLACK
6
CONTINUOUS
10
3.1307186614173226
20
-2.800821496062992
11
3.1299212598425195
21
-2.795275590551181
0
LINE
8
BLACK
6
CONTINUOUS
10
3.1299212598425195
20
-2.795275590551181
11
3.1307186614173226
21
-2.78972968503937
0
LINE
8
BLACK
6
CONTINUOUS
10
3.1307186614173226
20
-2.78972968503937
11
3.1330461811023622
21
-2.7846330708661418
0
LINE
8
BLACK
6
CONTINUOUS
10
3.1330461811023622
20
-2.7846330708661418
11
3.1367153543307085
21
-2.7803986220472439
0
LINE
8
BLACK
6
CONTINUOUS
10
3.1367153543307085
20
-2.7803986220472439
11
3.1414288188976376
21
-2.7773694488188974
0
LINE
8
BLACK
6
CONTINUOUS
10
3.1414288188976376
20
-2.7773694488188974
11
3.1468048425196851
21
-2.7757909055118111
0
LINE
8
BLACK
6
CONTINUOUS
10
3.1468048425196851
20
-2.7757909055118111
11
3.1524077559055117
21
-2.7757909055118111
0
LINE
8
BLACK
6
CONTINUOUS
10
3.1524077559055117
20
-2.7757909055118111
11
3.1577837795275592
21
-2.7773694488188974
0
LINE
8
BLACK
6
CONTINUOUS
10
3.2174636220472439
20
-2.7260101181102363
11
3.2192517716535431
21
-2.7272049212598426
0
LINE
8
BLACK
6
CONTINUOUS
10
3.2192517716535431
20
-2.7272049212598426
11
3.2204465748031494
21
-2.7289930708661418
0
LINE
8
BLACK
6
CONTINUOUS
10
3.2204465748031494
20
-2.7289930708661418
11
3.2208661417322832
21
-2.7311023622047244
0
LINE
8
BLACK
6
CONTINUOUS
10
3.2208661417322832
20
-2.7311023622047244
11
3.2208661417322832
21
-2.7421259842519685
0
LINE
8
BLACK
6
CONTINUOUS
10
3.2208661417322832
20
-2.7421259842519685
11
3.2204465748031494
21
-2.744235275590551
0
LINE
8
BLACK
6
CONTINUOUS
10
3.2204465748031494
20
-2.744235275590551
11
3.2192517716535431
21
-2.7460234251968503
0
LINE
8
BLACK
6
CONTINUOUS
10
3.2192517716535431
20
-2.7460234251968503
11
3.2174636220472439
21
-2.7472182283464566
0
LINE
8
BLACK
6
CONTINUOUS
10
3.2174636220472439
20
-2.7472182283464566
11
3.2153543307086614
21
-2.7476377952755904
0
LINE
8
BLACK
6
CONTINUOUS
10
3.2153543307086614
20
-2.7476377952755904
11
3.2019685039370076
21
-2.7476377952755904
0
LINE
8
BLACK
6
CONTINUOUS
10
3.2019685039370076
20
-2.7476377952755904
11
3.1998592125984251
21
-2.7472182283464566
0
LINE
8
BLACK
6
CONTINUOUS
10
3.1998592125984251
20
-2.7472182283464566
11
3.1980710629921258
21
-2.7460234251968503
0
LINE
8
BLACK
6
CONTINUOUS
10
3.1980710629921258
20
-2.7460234251968503
11
3.1968762598425196
21
-2.744235275590551
0
LINE
8
BLACK
6
CONTINUOUS
10
3.1968762598425196
20
-2.744235275590551
11
3.1964566929133857
21
-2.7421259842519685
0
LINE
8
BLACK
6
CONTINUOUS
10
3.1964566929133857
20
-2.7421259842519685
11
3.1964566929133857
21
-2.7311023622047244
0
LINE
8
BLACK
6
CONTINUOUS
10
3.1964566929133857
20
-2.7311023622047244
11
3.1968762598425196
21
-2.7289930708661418
0
LINE
8
BLACK
6
CONTINUOUS
10
3.1968762598425196
20
-2.7289930708661418
11
3.1980710629921258
21
-2.7272049212598426
0
LINE
8
BLACK
6
CONTINUOUS
10
3.1980710629921258
20
-2.7272049212598426
11
3.1998592125984251
21
-2.7260101181102363
0
LINE
8
BLACK
6
CONTINUOUS
10
3.1998592125984251
20
-2.7260101181102363
11
3.2019685039370076
21
-2.7255905511811025
0
LINE
8
BLACK
6
CONTINUOUS
10
3.2019685039370076
20
-2.7255905511811025
11
3.2153543307086614
21
-2.7255905511811025
0
LINE
8
BLACK
6
CONTINUOUS
10
3.2153543307086614
20
-2.7255905511811025
11
3.2174636220472439
21
-2.7260101181102363
0
LINE
8
BLACK
6
CONTINUOUS
10
3.1417322834645667
20
-2.7440944881889764
11
3.122047244094488
21
-2.7440944881889764
0
LINE
8
BLACK
6
CONTINUOUS
10
3.122047244094488
20
-2.7440944881889764
11
3.122047244094488
21
-2.7244094488188977
0
LINE
8
BLACK
6
CONTINUOUS
10
3.122047244094488
20
-2.7244094488188977
11
3.1417322834645667
21
-2.7244094488188977
0
LINE
8
BLACK
6
CONTINUOUS
10
3.1417322834645667
20
-2.7244094488188977
11
3.1417322834645667
21
-2.7440944881889764
0
LINE
8
BLACK
6
CONTINUOUS
10
3.1771653543307088
20
-2.7440944881889764
11
3.1574803149606296
21
-2.7440944881889764
0
LINE
8
BLACK
6
CONTINUOUS
10
3.1574803149606296
20
-2.7440944881889764
11
3.1574803149606296
21
-2.7244094488188977
0
LINE
8
BLACK
6
CONTINUOUS
10
3.1574803149606296
20
-2.7244094488188977
11
3.1771653543307088
21
-2.7244094488188977
0
LINE
8
BLACK
6
CONTINUOUS
10
3.1771653543307088
20
-2.7244094488188977
11
3.1771653543307088
21
-2.7440944881889764
0
LINE
8
BLACK
6
CONTINUOUS
10
3.0138888188976378
20
-2.7003230314960631
11
3.0254812598425196
21
-2.7070159448818898
0
LINE
8
BLACK
6
CONTINUOUS
10
3.0254812598425196
20
-2.7070159448818898
11
3.0270981889763777
21
-2.7084339370078738
0
LINE
8
BLACK
6
CONTINUOUS
10
3.0270981889763777
20
-2.7084339370078738
11
3.0280493700787403
21
-2.7103627559055119
0
LINE
8
BLACK
6
CONTINUOUS
10
3.0280493700787403
20
-2.7103627559055119
11
3.0281900393700787
21
-2.7125087401574803
0
LINE
8
BLACK
6
CONTINUOUS
10
3.0281900393700787
20
-2.7125087401574803
11
3.0274987401574802
21
-2.7145451968503935
0
LINE
8
BLACK
6
CONTINUOUS
10
3.0274987401574802
20
-2.7145451968503935
11
3.0219869291338584
21
-2.7240919685039371
0
LINE
8
BLACK
6
CONTINUOUS
10
3.0219869291338584
20
-2.7240919685039371
11
3.0205689370078739
21
-2.7257088582677165
0
LINE
8
BLACK
6
CONTINUOUS
10
3.0205689370078739
20
-2.7257088582677165
11
3.0186401181102362
21
-2.7266600393700786
0
LINE
8
BLACK
6
CONTINUOUS
10
3.0186401181102362
20
-2.7266600393700786
11
3.0164941338582678
21
-2.7268007086614174
0
LINE
8
BLACK
6
CONTINUOUS
10
3.0164941338582678
20
-2.7268007086614174
11
3.0144576377952754
21
-2.726109409448819
0
LINE
8
BLACK
6
CONTINUOUS
10
3.0144576377952754
20
-2.726109409448819
11
3.0028651968503937
21
-2.7194164960629919
0
LINE
8
BLACK
6
CONTINUOUS
10
3.0028651968503937
20
-2.7194164960629919
11
3.0012482677165355
21
-2.7179985039370078
0
LINE
8
BLACK
6
CONTINUOUS
10
3.0012482677165355
20
-2.7179985039370078
11
3.0002970866141734
21
-2.7160696850393702
0
LINE
8
BLACK
6
CONTINUOUS
10
3.0002970866141734
20
-2.7160696850393702
11
3.0001564173228346
21
-2.7139237007874013
0
LINE
8
BLACK
6
CONTINUOUS
10
3.0001564173228346
20
-2.7139237007874013
11
3.000847716535433
21
-2.7118872440944881
0
LINE
8
BLACK
6
CONTINUOUS
10
3.000847716535433
20
-2.7118872440944881
11
3.0063595275590549
21
-2.702340472440945
0
LINE
8
BLACK
6
CONTINUOUS
10
3.0063595275590549
20
-2.702340472440945
11
3.0077775196850394
21
-2.7007235826771652
0
LINE
8
BLACK
6
CONTINUOUS
10
3.0077775196850394
20
-2.7007235826771652
11
3.009706338582677
21
-2.699772401574803
0
LINE
8
BLACK
6
CONTINUOUS
10
3.009706338582677
20
-2.699772401574803
11
3.0118523228346454
21
-2.6996317322834646
0
LINE
8
BLACK
6
CONTINUOUS
10
3.0118523228346454
20
-2.6996317322834646
11
3.0138888188976378
21
-2.7003230314960631
0
LINE
8
BLACK
6
CONTINUOUS
10
3.2174636220472439
20
-2.688214842519685
11
3.2192517716535431
21
-2.6894096456692913
0
LINE
8
BLACK
6
CONTINUOUS
10
3.2192517716535431
20
-2.6894096456692913
11
3.2204465748031494
21
-2.6911977952755906
0
LINE
8
BLACK
6
CONTINUOUS
10
3.2204465748031494
20
-2.6911977952755906
11
3.2208661417322832
21
-2.6933070866141731
0
LINE
8
BLACK
6
CONTINUOUS
10
3.2208661417322832
20
-2.6933070866141731
11
3.2208661417322832
21
-2.7043307086614172
0
LINE
8
BLACK
6
CONTINUOUS
10
3.2208661417322832
20
-2.7043307086614172
11
3.2204465748031494
21
-2.7064399999999997
0
LINE
8
BLACK
6
CONTINUOUS
10
3.2204465748031494
20
-2.7064399999999997
11
3.2192517716535431
21
-2.708228149606299
0
LINE
8
BLACK
6
CONTINUOUS
10
3.2192517716535431
20
-2.708228149606299
11
3.2174636220472439
21
-2.7094229527559053
0
LINE
8
BLACK
6
CONTINUOUS
10
3.2174636220472439
20
-2.7094229527559053
11
3.2153543307086614
21
-2.7098425196850395
0
LINE
8
BLACK
6
CONTINUOUS
10
3.2153543307086614
20
-2.7098425196850395
11
3.2019685039370076
21
-2.7098425196850395
0
LINE
8
BLACK
6
CONTINUOUS
10
3.2019685039370076
20
-2.7098425196850395
11
3.1998592125984251
21
-2.7094229527559053
0
LINE
8
BLACK
6
CONTINUOUS
10
3.1998592125984251
20
-2.7094229527559053
11
3.1980710629921258
21
-2.708228149606299
0
LINE
8
BLACK
6
CONTINUOUS
10
3.1980710629921258
20
-2.708228149606299
11
3.1968762598425196
21
-2.7064399999999997
0
LINE
8
BLACK
6
CONTINUOUS
10
3.1968762598425196
20
-2.7064399999999997
11
3.1964566929133857
21
-2.7043307086614172
0
LINE
8
BLACK
6
CONTINUOUS
10
3.1964566929133857
20
-2.7043307086614172
11
3.1964566929133857
21
-2.6933070866141731
0
LINE
8
BLACK
6
CONTINUOUS
10
3.1964566929133857
20
-2.6933070866141731
11
3.1968762598425196
21
-2.6911977952755906
0
LINE
8
BLACK
6
CONTINUOUS
10
3.1968762598425196
20
-2.6911977952755906
11
3.1980710629921258
21
-2.6894096456692913
0
LINE
8
BLACK
6
CONTINUOUS
10
3.1980710629921258
20
-2.6894096456692913
11
3.1998592125984251
21
-2.688214842519685
0
LINE
8
BLACK
6
CONTINUOUS
10
3.1998592125984251
20
-2.688214842519685
11
3.2019685039370076
21
-2.6877952755905512
0
LINE
8
BLACK
6
CONTINUOUS
10
3.2019685039370076
20
-2.6877952755905512
11
3.2153543307086614
21
-2.6877952755905512
0
LINE
8
BLACK
6
CONTINUOUS
10
3.2153543307086614
20
-2.6877952755905512
11
3.2174636220472439
21
-2.688214842519685
0
LINE
8
BLACK
6
CONTINUOUS
10
3.1417322834645667
20
-2.7086614173228347
11
3.122047244094488
21
-2.7086614173228347
0
LINE
8
BLACK
6
CONTINUOUS
10
3.122047244094488
20
-2.7086614173228347
11
3.122047244094488
21
-2.688976377952756
0
LINE
8
BLACK
6
CONTINUOUS
10
3.122047244094488
20
-2.688976377952756
11
3.1417322834645667
21
-2.688976377952756
0
LINE
8
BLACK
6
CONTINUOUS
10
3.1417322834645667
20
-2.688976377952756
11
3.1417322834645667
21
-2.7086614173228347
0
LINE
8
BLACK
6
CONTINUOUS
10
3.1771653543307088
20
-2.7086614173228347
11
3.1574803149606296
21
-2.7086614173228347
0
LINE
8
BLACK
6
CONTINUOUS
10
3.1574803149606296
20
-2.7086614173228347
11
3.1574803149606296
21
-2.688976377952756
0
LINE
8
BLACK
6
CONTINUOUS
10
3.1574803149606296
20
-2.688976377952756
11
3.1771653543307088
21
-2.688976377952756
0
LINE
8
BLACK
6
CONTINUOUS
10
3.1771653543307088
20
-2.688976377952756
11
3.1771653543307088
21
-2.7086614173228347
0
LINE
8
BLACK
6
CONTINUOUS
10
2.9923707480314961
20
-2.6896627559055117
11
2.9825282283464567
21
-2.7067104724409448
0
LINE
8
BLACK
6
CONTINUOUS
10
2.9825282283464567
20
-2.7067104724409448
11
2.9654805118110237
21
-2.6968679527559054
0
LINE
8
BLACK
6
CONTINUOUS
10
2.9654805118110237
20
-2.6968679527559054
11
2.975323031496063
21
-2.6798202362204724
0
LINE
8
BLACK
6
CONTINUOUS
10
2.975323031496063
20
-2.6798202362204724
11
2.9923707480314961
21
-2.6896627559055117
0
LINE
8
BLACK
6
CONTINUOUS
10
3.3337320866141731
20
-2.6968679527559054
11
3.3166843700787401
21
-2.7067104724409448
0
LINE
8
BLACK
6
CONTINUOUS
10
3.3166843700787401
20
-2.7067104724409448
11
3.3068418503937007
21
-2.6896627559055117
0
LINE
8
BLACK
6
CONTINUOUS
10
3.3068418503937007
20
-2.6896627559055117
11
3.3238895669291337
21
-2.6798202362204724
0
LINE
8
BLACK
6
CONTINUOUS
10
3.3238895669291337
20
-2.6798202362204724
11
3.3337320866141731
21
-2.6968679527559054
0
LINE
8
BLACK
6
CONTINUOUS
10
3.0327864566929135
20
-2.667591377952756
11
3.0443788976377952
21
-2.6742842913385827
0
LINE
8
BLACK
6
CONTINUOUS
10
3.0443788976377952
20
-2.6742842913385827
11
3.0459958267716534
21
-2.6757022834645667
0
LINE
8
BLACK
6
CONTINUOUS
10
3.0459958267716534
20
-2.6757022834645667
11
3.0469470078740155
21
-2.6776311023622048
0
LINE
8
BLACK
6
CONTINUOUS
10
3.0469470078740155
20
-2.6776311023622048
11
3.0470876771653543
21
-2.6797770866141732
0
LINE
8
BLACK
6
CONTINUOUS
10
3.0470876771653543
20
-2.6797770866141732
11
3.0463963779527559
21
-2.6818135433070864
0
LINE
8
BLACK
6
CONTINUOUS
10
3.0463963779527559
20
-2.6818135433070864
11
3.040884566929134
21
-2.69136031496063
0
LINE
8
BLACK
6
CONTINUOUS
10
3.040884566929134
20
-2.69136031496063
11
3.0394665748031495
21
-2.6929772047244094
0
LINE
8
BLACK
6
CONTINUOUS
10
3.0394665748031495
20
-2.6929772047244094
11
3.0375377559055119
21
-2.6939283858267715
0
LINE
8
BLACK
6
CONTINUOUS
10
3.0375377559055119
20
-2.6939283858267715
11
3.0353917716535435
21
-2.6940690551181103
0
LINE
8
BLACK
6
CONTINUOUS
10
3.0353917716535435
20
-2.6940690551181103
11
3.0333552755905511
21
-2.6933777559055119
0
LINE
8
BLACK
6
CONTINUOUS
10
3.0333552755905511
20
-2.6933777559055119
11
3.0217628346456693
21
-2.6866848425196848
0
LINE
8
BLACK
6
CONTINUOUS
10
3.0217628346456693
20
-2.6866848425196848
11
3.0201459055118112
21
-2.6852668503937007
0
LINE
8
BLACK
6
CONTINUOUS
10
3.0201459055118112
20
-2.6852668503937007
11
3.0191947244094486
21
-2.6833380314960631
0
LINE
8
BLACK
6
CONTINUOUS
10
3.0191947244094486
20
-2.6833380314960631
11
3.0190540551181102
21
-2.6811920472440942
0
LINE
8
BLACK
6
CONTINUOUS
10
3.0190540551181102
20
-2.6811920472440942
11
3.0197453543307087
21
-2.679155590551181
0
LINE
8
BLACK
6
CONTINUOUS
10
3.0197453543307087
20
-2.679155590551181
11
3.0252571653543305
21
-2.6696088188976379
0
LINE
8
BLACK
6
CONTINUOUS
10
3.0252571653543305
20
-2.6696088188976379
11
3.026675157480315
21
-2.6679919291338581
0
LINE
8
BLACK
6
CONTINUOUS
10
3.026675157480315
20
-2.6679919291338581
11
3.0286039763779526
21
-2.6670407480314959
0
LINE
8
BLACK
6
CONTINUOUS
10
3.0286039763779526
20
-2.6670407480314959
11
3.0307499606299211
21
-2.6669000787401576
0
LINE
8
BLACK
6
CONTINUOUS
10
3.0307499606299211
20
-2.6669000787401576
11
3.0327864566929135
21
-2.667591377952756
0
LINE
8
BLACK
6
CONTINUOUS
10
2.9616848425196851
20
-2.6719462204724409
11
2.9518423228346458
21
-2.6889939370078739
0
LINE
8
BLACK
6
CONTINUOUS
10
2.9518423228346458
20
-2.6889939370078739
11
2.9347946062992127
21
-2.6791514173228346
0
LINE
8
BLACK
6
CONTINUOUS
10
2.9347946062992127
20
-2.6791514173228346
11
2.9446371259842521
21
-2.6621037007874016
0
LINE
8
BLACK
6
CONTINUOUS
10
2.9446371259842521
20
-2.6621037007874016
11
2.9616848425196851
21
-2.6719462204724409
0
LINE
8
BLACK
6
CONTINUOUS
10
3.364417992125984
20
-2.6791514173228346
11
3.347370275590551
21
-2.6889939370078739
0
LINE
8
BLACK
6
CONTINUOUS
10
3.347370275590551
20
-2.6889939370078739
11
3.3375277559055117
21
-2.6719462204724409
0
LINE
8
BLACK
6
CONTINUOUS
10
3.3375277559055117
20
-2.6719462204724409
11
3.3545754724409447
21
-2.6621037007874016
0
LINE
8
BLACK
6
CONTINUOUS
10
3.3545754724409447
20
-2.6621037007874016
11
3.364417992125984
21
-2.6791514173228346
0
LINE
8
BLACK
6
CONTINUOUS
10
3.0100872834645669
20
-2.6589768503937008
11
3.0002447637795275
21
-2.6760245669291338
0
LINE
8
BLACK
6
CONTINUOUS
10
3.0002447637795275
20
-2.6760245669291338
11
2.9831970472440945
21
-2.6661820472440945
0
LINE
8
BLACK
6
CONTINUOUS
10
2.9831970472440945
20
-2.6661820472440945
11
2.9930395669291339
21
-2.6491343307086614
0
LINE
8
BLACK
6
CONTINUOUS
10
2.9930395669291339
20
-2.6491343307086614
11
3.0100872834645669
21
-2.6589768503937008
0
LINE
8
BLACK
6
CONTINUOUS
10
3.3160155511811022
20
-2.6661820472440945
11
3.2989678346456692
21
-2.6760245669291338
0
LINE
8
BLACK
6
CONTINUOUS
10
3.2989678346456692
20
-2.6760245669291338
11
3.2891253149606299
21
-2.6589768503937008
0
LINE
8
BLACK
6
CONTINUOUS
10
3.2891253149606299
20
-2.6589768503937008
11
3.3061730314960629
21
-2.6491343307086614
0
LINE
8
BLACK
6
CONTINUOUS
10
3.3061730314960629
20
-2.6491343307086614
11
3.3160155511811022
21
-2.6661820472440945
0
LINE
8
BLACK
6
CONTINUOUS
10
3.391868464566929
20
-2.643365590551181
11
3.3937972834645667
21
-2.6443167716535432
0
LINE
8
BLACK
6
CONTINUOUS
10
3.3937972834645667
20
-2.6443167716535432
11
3.3952152755905511
21
-2.6459336614173226
0
LINE
8
BLACK
6
CONTINUOUS
10
3.3952152755905511
20
-2.6459336614173226
11
3.400727086614173
21
-2.6554804330708661
0
LINE
8
BLACK
6
CONTINUOUS
10
3.400727086614173
20
-2.6554804330708661
11
3.4014183858267715
21
-2.6575168897637793
0
LINE
8
BLACK
6
CONTINUOUS
10
3.4014183858267715
20
-2.6575168897637793
11
3.4012777165354331
21
-2.6596628740157482
0
LINE
8
BLACK
6
CONTINUOUS
10
3.4012777165354331
20
-2.6596628740157482
11
3.400326535433071
21
-2.6615916929133858
0
LINE
8
BLACK
6
CONTINUOUS
10
3.400326535433071
20
-2.6615916929133858
11
3.3987096062992124
21
-2.6630096850393699
0
LINE
8
BLACK
6
CONTINUOUS
10
3.3987096062992124
20
-2.6630096850393699
11
3.3871171653543306
21
-2.669702598425197
0
LINE
8
BLACK
6
CONTINUOUS
10
3.3871171653543306
20
-2.669702598425197
11
3.3850806692913387
21
-2.670393897637795
0
LINE
8
BLACK
6
CONTINUOUS
10
3.3850806692913387
20
-2.670393897637795
11
3.3829346850393698
21
-2.6702532283464566
0
LINE
8
BLACK
6
CONTINUOUS
10
3.3829346850393698
20
-2.6702532283464566
11
3.3810058661417322
21
-2.6693020472440945
0
LINE
8
BLACK
6
CONTINUOUS
10
3.3810058661417322
20
-2.6693020472440945
11
3.3795878740157481
21
-2.6676851574803151
0
LINE
8
BLACK
6
CONTINUOUS
10
3.3795878740157481
20
-2.6676851574803151
11
3.3740760629921258
21
-2.6581383858267715
0
LINE
8
BLACK
6
CONTINUOUS
10
3.3740760629921258
20
-2.6581383858267715
11
3.3733847637795273
21
-2.6561019291338583
0
LINE
8
BLACK
6
CONTINUOUS
10
3.3733847637795273
20
-2.6561019291338583
11
3.3735254330708662
21
-2.6539559448818899
0
LINE
8
BLACK
6
CONTINUOUS
10
3.3735254330708662
20
-2.6539559448818899
11
3.3744766141732283
21
-2.6520271259842518
0
LINE
8
BLACK
6
CONTINUOUS
10
3.3744766141732283
20
-2.6520271259842518
11
3.3760935433070864
21
-2.6506091338582678
0
LINE
8
BLACK
6
CONTINUOUS
10
3.3760935433070864
20
-2.6506091338582678
11
3.3876859842519682
21
-2.6439162204724407
0
LINE
8
BLACK
6
CONTINUOUS
10
3.3876859842519682
20
-2.6439162204724407
11
3.3897224803149606
21
-2.6432249212598427
0
LINE
8
BLACK
6
CONTINUOUS
10
3.3897224803149606
20
-2.6432249212598427
11
3.391868464566929
21
-2.643365590551181
0
LINE
8
BLACK
6
CONTINUOUS
10
2.9794013779527559
20
-2.64126031496063
11
2.9695588582677166
21
-2.658308031496063
0
LINE
8
BLACK
6
CONTINUOUS
10
2.9695588582677166
20
-2.658308031496063
11
2.9525111417322836
21
-2.6484655118110236
0
LINE
8
BLACK
6
CONTINUOUS
10
2.9525111417322836
20
-2.6484655118110236
11
2.9623536614173229
21
-2.6314177952755906
0
LINE
8
BLACK
6
CONTINUOUS
10
2.9623536614173229
20
-2.6314177952755906
11
2.9794013779527559
21
-2.64126031496063
0
LINE
8
BLACK
6
CONTINUOUS
10
3.3467014566929132
20
-2.6484655118110236
11
3.3296537401574802
21
-2.658308031496063
0
LINE
8
BLACK
6
CONTINUOUS
10
3.3296537401574802
20
-2.658308031496063
11
3.3198112204724408
21
-2.64126031496063
0
LINE
8
BLACK
6
CONTINUOUS
10
3.3198112204724408
20
-2.64126031496063
11
3.3368589370078738
21
-2.6314177952755906
0
LINE
8
BLACK
6
CONTINUOUS
10
3.3368589370078738
20
-2.6314177952755906
11
3.3467014566929132
21
-2.6484655118110236
0
LINE
8
BLACK
6
CONTINUOUS
10
3.3729708267716534
20
-2.6106339370078739
11
3.3748996456692915
21
-2.6115851181102361
0
LINE
8
BLACK
6
CONTINUOUS
10
3.3748996456692915
20
-2.6115851181102361
11
3.3763176377952755
21
-2.6132020078740159
0
LINE
8
BLACK
6
CONTINUOUS
10
3.3763176377952755
20
-2.6132020078740159
11
3.3818294488188974
21
-2.622748779527559
0
LINE
8
BLACK
6
CONTINUOUS
10
3.3818294488188974
20
-2.622748779527559
11
3.3825207480314958
21
-2.6247852362204722
0
LINE
8
BLACK
6
CONTINUOUS
10
3.3825207480314958
20
-2.6247852362204722
11
3.3823800787401574
21
-2.6269312204724411
0
LINE
8
BLACK
6
CONTINUOUS
10
3.3823800787401574
20
-2.6269312204724411
11
3.3814288976377953
21
-2.6288600393700787
0
LINE
8
BLACK
6
CONTINUOUS
10
3.3814288976377953
20
-2.6288600393700787
11
3.3798119685039367
21
-2.6302780314960628
0
LINE
8
BLACK
6
CONTINUOUS
10
3.3798119685039367
20
-2.6302780314960628
11
3.368219527559055
21
-2.6369709448818899
0
LINE
8
BLACK
6
CONTINUOUS
10
3.368219527559055
20
-2.6369709448818899
11
3.366183031496063
21
-2.6376622440944884
0
LINE
8
BLACK
6
CONTINUOUS
10
3.366183031496063
20
-2.6376622440944884
11
3.3640370472440946
21
-2.6375215748031495
0
LINE
8
BLACK
6
CONTINUOUS
10
3.3640370472440946
20
-2.6375215748031495
11
3.3621082283464565
21
-2.6365703937007874
0
LINE
8
BLACK
6
CONTINUOUS
10
3.3621082283464565
20
-2.6365703937007874
11
3.3606902362204725
21
-2.634953503937008
0
LINE
8
BLACK
6
CONTINUOUS
10
3.3606902362204725
20
-2.634953503937008
11
3.3551784251968502
21
-2.6254067322834644
0
LINE
8
BLACK
6
CONTINUOUS
10
3.3551784251968502
20
-2.6254067322834644
11
3.3544871259842517
21
-2.6233702755905512
0
LINE
8
BLACK
6
CONTINUOUS
10
3.3544871259842517
20
-2.6233702755905512
11
3.3546277952755905
21
-2.6212242913385828
0
LINE
8
BLACK
6
CONTINUOUS
10
3.3546277952755905
20
-2.6212242913385828
11
3.3555789763779527
21
-2.6192954724409447
0
LINE
8
BLACK
6
CONTINUOUS
10
3.3555789763779527
20
-2.6192954724409447
11
3.3571959055118108
21
-2.6178774803149607
0
LINE
8
BLACK
6
CONTINUOUS
10
3.3571959055118108
20
-2.6178774803149607
11
3.368788346456693
21
-2.6111845669291336
0
LINE
8
BLACK
6
CONTINUOUS
10
3.368788346456693
20
-2.6111845669291336
11
3.3708248425196849
21
-2.6104932677165356
0
LINE
8
BLACK
6
CONTINUOUS
10
3.3708248425196849
20
-2.6104932677165356
11
3.3729708267716534
21
-2.6106339370078739
0
LINE
8
BLACK
6
CONTINUOUS
10
2.8605033858267714
20
-2.5841553543307088
11
2.8624322047244095
21
-2.5851065354330709
0
LINE
8
BLACK
6
CONTINUOUS
10
2.8624322047244095
20
-2.5851065354330709
11
2.8638501968503935
21
-2.586723464566929
0
LINE
8
BLACK
6
CONTINUOUS
10
2.8638501968503935
20
-2.586723464566929
11
2.8705431102362202
21
-2.5983159055118108
0
LINE
8
BLACK
6
CONTINUOUS
10
2.8705431102362202
20
-2.5983159055118108
11
2.8712344094488187
21
-2.6003524015748032
0
LINE
8
BLACK
6
CONTINUOUS
10
2.8712344094488187
20
-2.6003524015748032
11
2.8710937401574803
21
-2.6024983858267716
0
LINE
8
BLACK
6
CONTINUOUS
10
2.8710937401574803
20
-2.6024983858267716
11
2.8701425590551182
21
-2.6044272047244093
0
LINE
8
BLACK
6
CONTINUOUS
10
2.8701425590551182
20
-2.6044272047244093
11
2.8685256692913383
21
-2.6058451968503937
0
LINE
8
BLACK
6
CONTINUOUS
10
2.8685256692913383
20
-2.6058451968503937
11
2.8589788976377952
21
-2.6113570078740156
0
LINE
8
BLACK
6
CONTINUOUS
10
2.8589788976377952
20
-2.6113570078740156
11
2.856942440944882
21
-2.6120483070866141
0
LINE
8
BLACK
6
CONTINUOUS
10
2.856942440944882
20
-2.6120483070866141
11
2.8547964566929132
21
-2.6119076377952757
0
LINE
8
BLACK
6
CONTINUOUS
10
2.8547964566929132
20
-2.6119076377952757
11
2.8528676377952755
21
-2.6109564566929135
0
LINE
8
BLACK
6
CONTINUOUS
10
2.8528676377952755
20
-2.6109564566929135
11
2.8514496456692915
21
-2.609339527559055
0
LINE
8
BLACK
6
CONTINUOUS
10
2.8514496456692915
20
-2.609339527559055
11
2.8447567322834644
21
-2.5977470866141732
0
LINE
8
BLACK
6
CONTINUOUS
10
2.8447567322834644
20
-2.5977470866141732
11
2.8440654330708659
21
-2.5957105905511813
0
LINE
8
BLACK
6
CONTINUOUS
10
2.8440654330708659
20
-2.5957105905511813
11
2.8442061023622047
21
-2.5935646062992124
0
LINE
8
BLACK
6
CONTINUOUS
10
2.8442061023622047
20
-2.5935646062992124
11
2.8451572834645669
21
-2.5916357874015747
0
LINE
8
BLACK
6
CONTINUOUS
10
2.8451572834645669
20
-2.5916357874015747
11
2.8467741732283462
21
-2.5902177952755907
0
LINE
8
BLACK
6
CONTINUOUS
10
2.8467741732283462
20
-2.5902177952755907
11
2.8563209448818898
21
-2.5847059842519684
0
LINE
8
BLACK
6
CONTINUOUS
10
2.8563209448818898
20
-2.5847059842519684
11
2.858357401574803
21
-2.5840146850393699
0
LINE
8
BLACK
6
CONTINUOUS
10
2.858357401574803
20
-2.5840146850393699
11
2.8605033858267714
21
-2.5841553543307088
0
LINE
8
BLACK
6
CONTINUOUS
10
2.8932350393700785
20
-2.5652577165354331
11
2.8951638582677166
21
-2.5662088976377952
0
LINE
8
BLACK
6
CONTINUOUS
10
2.8951638582677166
20
-2.5662088976377952
11
2.8965818503937006
21
-2.5678258267716534
0
LINE
8
BLACK
6
CONTINUOUS
10
2.8965818503937006
20
-2.5678258267716534
11
2.9032747637795273
21
-2.5794182677165356
0
LINE
8
BLACK
6
CONTINUOUS
10
2.9032747637795273
20
-2.5794182677165356
11
2.9039660629921258
21
-2.5814547637795275
0
LINE
8
BLACK
6
CONTINUOUS
10
2.9039660629921258
20
-2.5814547637795275
11
2.9038253937007874
21
-2.583600748031496
0
LINE
8
BLACK
6
CONTINUOUS
10
2.9038253937007874
20
-2.583600748031496
11
2.9028742125984253
21
-2.5855295669291336
0
LINE
8
BLACK
6
CONTINUOUS
10
2.9028742125984253
20
-2.5855295669291336
11
2.9012573228346454
21
-2.5869475590551181
0
LINE
8
BLACK
6
CONTINUOUS
10
2.9012573228346454
20
-2.5869475590551181
11
2.8917105511811023
21
-2.5924593700787399
0
LINE
8
BLACK
6
CONTINUOUS
10
2.8917105511811023
20
-2.5924593700787399
11
2.8896740944881891
21
-2.5931506692913384
0
LINE
8
BLACK
6
CONTINUOUS
10
2.8896740944881891
20
-2.5931506692913384
11
2.8875281102362202
21
-2.59301
0
LINE
8
BLACK
6
CONTINUOUS
10
2.8875281102362202
20
-2.59301
11
2.8855992913385826
21
-2.5920588188976379
0
LINE
8
BLACK
6
CONTINUOUS
10
2.8855992913385826
20
-2.5920588188976379
11
2.8841812992125986
21
-2.5904418897637793
0
LINE
8
BLACK
6
CONTINUOUS
10
2.8841812992125986
20
-2.5904418897637793
11
2.8774883858267715
21
-2.5788494488188975
0
LINE
8
BLACK
6
CONTINUOUS
10
2.8774883858267715
20
-2.5788494488188975
11
2.876797086614173
21
-2.5768129527559056
0
LINE
8
BLACK
6
CONTINUOUS
10
2.876797086614173
20
-2.5768129527559056
11
2.8769377559055118
21
-2.5746669685039372
0
LINE
8
BLACK
6
CONTINUOUS
10
2.8769377559055118
20
-2.5746669685039372
11
2.877888937007874
21
-2.5727381496062991
0
LINE
8
BLACK
6
CONTINUOUS
10
2.877888937007874
20
-2.5727381496062991
11
2.8795058267716533
21
-2.5713201574803151
0
LINE
8
BLACK
6
CONTINUOUS
10
2.8795058267716533
20
-2.5713201574803151
11
2.8890525984251969
21
-2.5658083464566928
0
LINE
8
BLACK
6
CONTINUOUS
10
2.8890525984251969
20
-2.5658083464566928
11
2.8910890551181101
21
-2.5651170472440943
0
LINE
8
BLACK
6
CONTINUOUS
10
2.8910890551181101
20
-2.5651170472440943
11
2.8932350393700785
21
-2.5652577165354331
0
LINE
8
BLACK
6
CONTINUOUS
10
2.8497073228346457
20
-2.5671738976377951
11
2.8326596062992127
21
-2.5770164173228345
0
LINE
8
BLACK
6
CONTINUOUS
10
2.8326596062992127
20
-2.5770164173228345
11
2.8228170866141733
21
-2.5599687007874015
0
LINE
8
BLACK
6
CONTINUOUS
10
2.8228170866141733
20
-2.5599687007874015
11
2.8398648031496063
21
-2.5501261811023621
0
LINE
8
BLACK
6
CONTINUOUS
10
2.8398648031496063
20
-2.5501261811023621
11
2.8497073228346457
21
-2.5671738976377951
0
LINE
8
BLACK
6
CONTINUOUS
10
3.4763955118110235
20
-2.5599687007874015
11
3.4665529921259841
21
-2.5770164173228345
0
LINE
8
BLACK
6
CONTINUOUS
10
3.4665529921259841
20
-2.5770164173228345
11
3.4495052755905511
21
-2.5671738976377951
0
LINE
8
BLACK
6
CONTINUOUS
10
3.4495052755905511
20
-2.5671738976377951
11
3.4593477952755904
21
-2.5501261811023621
0
LINE
8
BLACK
6
CONTINUOUS
10
3.4593477952755904
20
-2.5501261811023621
11
3.4763955118110235
21
-2.5599687007874015
0
LINE
8
BLACK
6
CONTINUOUS
10
2.8803932283464566
20
-2.5494573622047243
11
2.8633455118110236
21
-2.5592998818897637
0
LINE
8
BLACK
6
CONTINUOUS
10
2.8633455118110236
20
-2.5592998818897637
11
2.8535029921259842
21
-2.5422521653543306
0
LINE
8
BLACK
6
CONTINUOUS
10
2.8535029921259842
20
-2.5422521653543306
11
2.8705507086614173
21
-2.5324096456692913
0
LINE
8
BLACK
6
CONTINUOUS
10
2.8705507086614173
20
-2.5324096456692913
11
2.8803932283464566
21
-2.5494573622047243
0
LINE
8
BLACK
6
CONTINUOUS
10
3.4457096062992125
20
-2.5422521653543306
11
3.4358670866141732
21
-2.5592998818897637
0
LINE
8
BLACK
6
CONTINUOUS
10
3.4358670866141732
20
-2.5592998818897637
11
3.4188193700787401
21
-2.5494573622047243
0
LINE
8
BLACK
6
CONTINUOUS
10
3.4188193700787401
20
-2.5494573622047243
11
3.4286618897637795
21
-2.5324096456692913
0
LINE
8
BLACK
6
CONTINUOUS
10
3.4286618897637795
20
-2.5324096456692913
11
3.4457096062992125
21
-2.5422521653543306
0
LINE
8
BLACK
6
CONTINUOUS
10
2.8319907874015748
20
-2.5364879921259842
11
2.8149430708661418
21
-2.5463305118110235
0
LINE
8
BLACK
6
CONTINUOUS
10
2.8149430708661418
20
-2.5463305118110235
11
2.8051005511811025
21
-2.5292827952755905
0
LINE
8
BLACK
6
CONTINUOUS
10
2.8051005511811025
20
-2.5292827952755905
11
2.8221482677165355
21
-2.5194402755905512
0
LINE
8
BLACK
6
CONTINUOUS
10
2.8221482677165355
20
-2.5194402755905512
11
2.8319907874015748
21
-2.5364879921259842
0
LINE
8
BLACK
6
CONTINUOUS
10
3.4941120472440943
20
-2.5292827952755905
11
3.4842695275590549
21
-2.5463305118110235
0
LINE
8
BLACK
6
CONTINUOUS
10
3.4842695275590549
20
-2.5463305118110235
11
3.4672218110236219
21
-2.5364879921259842
0
LINE
8
BLACK
6
CONTINUOUS
10
3.4672218110236219
20
-2.5364879921259842
11
3.4770643307086613
21
-2.5194402755905512
0
LINE
8
BLACK
6
CONTINUOUS
10
3.4770643307086613
20
-2.5194402755905512
11
3.4941120472440943
21
-2.5292827952755905
0
LINE
8
BLACK
6
CONTINUOUS
10
2.8626766929133858
20
-2.5187714566929134
11
2.8456289763779528
21
-2.5286139763779527
0
LINE
8
BLACK
6
CONTINUOUS
10
2.8456289763779528
20
-2.5286139763779527
11
2.8357864566929134
21
-2.5115662598425197
0
LINE
8
BLACK
6
CONTINUOUS
10
2.8357864566929134
20
-2.5115662598425197
11
2.8528341732283464
21
-2.5017237401574803
0
LINE
8
BLACK
6
CONTINUOUS
10
2.8528341732283464
20
-2.5017237401574803
11
2.8626766929133858
21
-2.5187714566929134
0
LINE
8
BLACK
6
CONTINUOUS
10
3.4634261417322834
20
-2.5115662598425197
11
3.453583622047244
21
-2.5286139763779527
0
LINE
8
BLACK
6
CONTINUOUS
10
3.453583622047244
20
-2.5286139763779527
11
3.436535905511811
21
-2.5187714566929134
0
LINE
8
BLACK
6
CONTINUOUS
10
3.436535905511811
20
-2.5187714566929134
11
3.4463784251968503
21
-2.5017237401574803
0
LINE
8
BLACK
6
CONTINUOUS
10
3.4463784251968503
20
-2.5017237401574803
11
3.4634261417322834
21
-2.5115662598425197
0
LINE
8
BLACK
6
CONTINUOUS
10
3.5039152755905509
20
-2.4862807874015749
11
3.5134620472440945
21
-2.4917925984251967
0
LINE
8
BLACK
6
CONTINUOUS
10
3.5134620472440945
20
-2.4917925984251967
11
3.5150789370078739
21
-2.4932105905511812
0
LINE
8
BLACK
6
CONTINUOUS
10
3.5150789370078739
20
-2.4932105905511812
11
3.516030118110236
21
-2.4951394094488188
0
LINE
8
BLACK
6
CONTINUOUS
10
3.516030118110236
20
-2.4951394094488188
11
3.5161707874015748
21
-2.4972853937007873
0
LINE
8
BLACK
6
CONTINUOUS
10
3.5161707874015748
20
-2.4972853937007873
11
3.5154794881889764
21
-2.4993218897637797
0
LINE
8
BLACK
6
CONTINUOUS
10
3.5154794881889764
20
-2.4993218897637797
11
3.5087865748031497
21
-2.5109143307086614
0
LINE
8
BLACK
6
CONTINUOUS
10
3.5087865748031497
20
-2.5109143307086614
11
3.5073685826771652
21
-2.5125312598425196
0
LINE
8
BLACK
6
CONTINUOUS
10
3.5073685826771652
20
-2.5125312598425196
11
3.5054397637795276
21
-2.5134824409448817
0
LINE
8
BLACK
6
CONTINUOUS
10
3.5054397637795276
20
-2.5134824409448817
11
3.5032937795275592
21
-2.5136231102362205
0
LINE
8
BLACK
6
CONTINUOUS
10
3.5032937795275592
20
-2.5136231102362205
11
3.5012573228346455
21
-2.5129318110236221
0
LINE
8
BLACK
6
CONTINUOUS
10
3.5012573228346455
20
-2.5129318110236221
11
3.4917105511811024
21
-2.5074199999999998
0
LINE
8
BLACK
6
CONTINUOUS
10
3.4917105511811024
20
-2.5074199999999998
11
3.4900936614173226
21
-2.5060020078740157
0
LINE
8
BLACK
6
CONTINUOUS
10
3.4900936614173226
20
-2.5060020078740157
11
3.4891424803149604
21
-2.5040731889763781
0
LINE
8
BLACK
6
CONTINUOUS
10
3.4891424803149604
20
-2.5040731889763781
11
3.4890018110236221
21
-2.5019272047244092
0
LINE
8
BLACK
6
CONTINUOUS
10
3.4890018110236221
20
-2.5019272047244092
11
3.4896931102362205
21
-2.4998907086614173
0
LINE
8
BLACK
6
CONTINUOUS
10
3.4896931102362205
20
-2.4998907086614173
11
3.4963860236220472
21
-2.4882982677165355
0
LINE
8
BLACK
6
CONTINUOUS
10
3.4963860236220472
20
-2.4882982677165355
11
3.4978040157480312
21
-2.4866813385826769
0
LINE
8
BLACK
6
CONTINUOUS
10
3.4978040157480312
20
-2.4866813385826769
11
3.4997328346456693
21
-2.4857301574803148
0
LINE
8
BLACK
6
CONTINUOUS
10
3.4997328346456693
20
-2.4857301574803148
11
3.5018788188976377
21
-2.4855894881889764
0
LINE
8
BLACK
6
CONTINUOUS
10
3.5018788188976377
20
-2.4855894881889764
11
3.5039152755905509
21
-2.4862807874015749
0
LINE
8
BLACK
6
CONTINUOUS
10
3.4711836220472438
20
-2.4673831496062992
11
3.4807303937007874
21
-2.4728949606299211
0
LINE
8
BLACK
6
CONTINUOUS
10
3.4807303937007874
20
-2.4728949606299211
11
3.4823472834645668
21
-2.4743129527559056
0
LINE
8
BLACK
6
CONTINUOUS
10
3.4823472834645668
20
-2.4743129527559056
11
3.4832984645669289
21
-2.4762417716535432
0
LINE
8
BLACK
6
CONTINUOUS
10
3.4832984645669289
20
-2.4762417716535432
11
3.4834391338582678
21
-2.4783877559055116
0
LINE
8
BLACK
6
CONTINUOUS
10
3.4834391338582678
20
-2.4783877559055116
11
3.4827478346456693
21
-2.480424251968504
0
LINE
8
BLACK
6
CONTINUOUS
10
3.4827478346456693
20
-2.480424251968504
11
3.4760549212598426
21
-2.4920166929133858
0
LINE
8
BLACK
6
CONTINUOUS
10
3.4760549212598426
20
-2.4920166929133858
11
3.4746369291338581
21
-2.4936336220472439
0
LINE
8
BLACK
6
CONTINUOUS
10
3.4746369291338581
20
-2.4936336220472439
11
3.4727081102362205
21
-2.4945848031496061
0
LINE
8
BLACK
6
CONTINUOUS
10
3.4727081102362205
20
-2.4945848031496061
11
3.4705621259842521
21
-2.4947254724409449
0
LINE
8
BLACK
6
CONTINUOUS
10
3.4705621259842521
20
-2.4947254724409449
11
3.4685256692913384
21
-2.4940341732283464
0
LINE
8
BLACK
6
CONTINUOUS
10
3.4685256692913384
20
-2.4940341732283464
11
3.4589788976377953
21
-2.4885223622047246
0
LINE
8
BLACK
6
CONTINUOUS
10
3.4589788976377953
20
-2.4885223622047246
11
3.4573620078740155
21
-2.4871043700787401
0
LINE
8
BLACK
6
CONTINUOUS
10
3.4573620078740155
20
-2.4871043700787401
11
3.4564108267716533
21
-2.4851755511811024
0
LINE
8
BLACK
6
CONTINUOUS
10
3.4564108267716533
20
-2.4851755511811024
11
3.456270157480315
21
-2.483029566929134
0
LINE
8
BLACK
6
CONTINUOUS
10
3.456270157480315
20
-2.483029566929134
11
3.4569614566929134
21
-2.4809930708661416
0
LINE
8
BLACK
6
CONTINUOUS
10
3.4569614566929134
20
-2.4809930708661416
11
3.4636543700787401
21
-2.4694006299212599
0
LINE
8
BLACK
6
CONTINUOUS
10
3.4636543700787401
20
-2.4694006299212599
11
3.4650723622047241
21
-2.4677837007874017
0
LINE
8
BLACK
6
CONTINUOUS
10
3.4650723622047241
20
-2.4677837007874017
11
3.4670011811023622
21
-2.4668325196850391
0
LINE
8
BLACK
6
CONTINUOUS
10
3.4670011811023622
20
-2.4668325196850391
11
3.4691471653543307
21
-2.4666918503937008
0
LINE
8
BLACK
6
CONTINUOUS
10
3.4691471653543307
20
-2.4666918503937008
11
3.4711836220472438
21
-2.4673831496062992
0
LINE
8
BLACK
6
CONTINUOUS
10
3.4876638582677164
20
-2.414971496062992
11
3.4893881496062993
21
-2.4161236614173229
0
LINE
8
BLACK
6
CONTINUOUS
10
3.4893881496062993
20
-2.4161236614173229
11
3.4905403149606298
21
-2.4178479527559054
0
LINE
8
BLACK
6
CONTINUOUS
10
3.4905403149606298
20
-2.4178479527559054
11
3.4909448818897637
21
-2.4198818897637793
0
LINE
8
BLACK
6
CONTINUOUS
10
3.4909448818897637
20
-2.4198818897637793
11
3.4909448818897637
21
-2.4344488188976379
0
LINE
8
BLACK
6
CONTINUOUS
10
3.4909448818897637
20
-2.4344488188976379
11
3.4905403149606298
21
-2.4364827559055118
0
LINE
8
BLACK
6
CONTINUOUS
10
3.4905403149606298
20
-2.4364827559055118
11
3.4893881496062993
21
-2.4382070472440946
0
LINE
8
BLACK
6
CONTINUOUS
10
3.4893881496062993
20
-2.4382070472440946
11
3.4876638582677164
21
-2.4393592125984251
0
LINE
8
BLACK
6
CONTINUOUS
10
3.4876638582677164
20
-2.4393592125984251
11
3.4856299212598425
21
-2.4397637795275591
0
LINE
8
BLACK
6
CONTINUOUS
10
3.4856299212598425
20
-2.4397637795275591
11
3.4750000000000001
21
-2.4397637795275591
0
LINE
8
BLACK
6
CONTINUOUS
10
3.4750000000000001
20
-2.4397637795275591
11
3.4729660629921257
21
-2.4393592125984251
0
LINE
8
BLACK
6
CONTINUOUS
10
3.4729660629921257
20
-2.4393592125984251
11
3.4712417716535433
21
-2.4382070472440946
0
LINE
8
BLACK
6
CONTINUOUS
10
3.4712417716535433
20
-2.4382070472440946
11
3.4700896062992124
21
-2.4364827559055118
0
LINE
8
BLACK
6
CONTINUOUS
10
3.4700896062992124
20
-2.4364827559055118
11
3.4696850393700789
21
-2.4344488188976379
0
LINE
8
BLACK
6
CONTINUOUS
10
3.4696850393700789
20
-2.4344488188976379
11
3.4696850393700789
21
-2.4198818897637793
0
LINE
8
BLACK
6
CONTINUOUS
10
3.4696850393700789
20
-2.4198818897637793
11
3.4700896062992124
21
-2.4178479527559054
0
LINE
8
BLACK
6
CONTINUOUS
10
3.4700896062992124
20
-2.4178479527559054
11
3.4712417716535433
21
-2.4161236614173229
0
LINE
8
BLACK
6
CONTINUOUS
10
3.4712417716535433
20
-2.4161236614173229
11
3.4729660629921257
21
-2.414971496062992
0
LINE
8
BLACK
6
CONTINUOUS
10
3.4729660629921257
20
-2.414971496062992
11
3.4750000000000001
21
-2.4145669291338581
0
LINE
8
BLACK
6
CONTINUOUS
10
3.4750000000000001
20
-2.4145669291338581
11
3.4856299212598425
21
-2.4145669291338581
0
LINE
8
BLACK
6
CONTINUOUS
10
3.4856299212598425
20
-2.4145669291338581
11
3.4876638582677164
21
-2.414971496062992
0
LINE
8
BLACK
6
CONTINUOUS
10
3.5278213385826769
20
-2.414971496062992
11
3.5295456299212598
21
-2.4161236614173229
0
LINE
8
BLACK
6
CONTINUOUS
10
3.5295456299212598
20
-2.4161236614173229
11
3.5306977952755907
21
-2.4178479527559054
0
LINE
8
BLACK
6
CONTINUOUS
10
3.5306977952755907
20
-2.4178479527559054
11
3.5311023622047242
21
-2.4198818897637793
0
LINE
8
BLACK
6
CONTINUOUS
10
3.5311023622047242
20
-2.4198818897637793
11
3.5311023622047242
21
-2.4344488188976379
0
LINE
8
BLACK
6
CONTINUOUS
10
3.5311023622047242
20
-2.4344488188976379
11
3.5306977952755907
21
-2.4364827559055118
0
LINE
8
BLACK
6
CONTINUOUS
10
3.5306977952755907
20
-2.4364827559055118
11
3.5295456299212598
21
-2.4382070472440946
0
LINE
8
BLACK
6
CONTINUOUS
10
3.5295456299212598
20
-2.4382070472440946
11
3.5278213385826769
21
-2.4393592125984251
0
LINE
8
BLACK
6
CONTINUOUS
10
3.5278213385826769
20
-2.4393592125984251
11
3.525787401574803
21
-2.4397637795275591
0
LINE
8
BLACK
6
CONTINUOUS
10
3.525787401574803
20
-2.4397637795275591
11
3.5151574803149606
21
-2.4397637795275591
0
LINE
8
BLACK
6
CONTINUOUS
10
3.5151574803149606
20
-2.4397637795275591
11
3.5131235433070866
21
-2.4393592125984251
0
LINE
8
BLACK
6
CONTINUOUS
10
3.5131235433070866
20
-2.4393592125984251
11
3.5113992519685038
21
-2.4382070472440946
0
LINE
8
BLACK
6
CONTINUOUS
10
3.5113992519685038
20
-2.4382070472440946
11
3.5102470866141733
21
-2.4364827559055118
0
LINE
8
BLACK
6
CONTINUOUS
10
3.5102470866141733
20
-2.4364827559055118
11
3.5098425196850394
21
-2.4344488188976379
0
LINE
8
BLACK
6
CONTINUOUS
10
3.5098425196850394
20
-2.4344488188976379
11
3.5098425196850394
21
-2.4198818897637793
0
LINE
8
BLACK
6
CONTINUOUS
10
3.5098425196850394
20
-2.4198818897637793
11
3.5102470866141733
21
-2.4178479527559054
0
LINE
8
BLACK
6
CONTINUOUS
10
3.5102470866141733
20
-2.4178479527559054
11
3.5113992519685038
21
-2.4161236614173229
0
LINE
8
BLACK
6
CONTINUOUS
10
3.5113992519685038
20
-2.4161236614173229
11
3.5131235433070866
21
-2.414971496062992
0
LINE
8
BLACK
6
CONTINUOUS
10
3.5131235433070866
20
-2.414971496062992
11
3.5151574803149606
21
-2.4145669291338581
0
LINE
8
BLACK
6
CONTINUOUS
10
3.5151574803149606
20
-2.4145669291338581
11
3.525787401574803
21
-2.4145669291338581
0
LINE
8
BLACK
6
CONTINUOUS
10
3.525787401574803
20
-2.4145669291338581
11
3.5278213385826769
21
-2.414971496062992
0
LINE
8
BLACK
6
CONTINUOUS
10
2.7839990551181102
20
-2.40947468503937
11
2.7857872047244094
21
-2.4106694881889763
0
LINE
8
BLACK
6
CONTINUOUS
10
2.7857872047244094
20
-2.4106694881889763
11
2.7869820078740157
21
-2.4124576377952756
0
LINE
8
BLACK
6
CONTINUOUS
10
2.7869820078740157
20
-2.4124576377952756
11
2.7874015748031495
21
-2.4145669291338581
0
LINE
8
BLACK
6
CONTINUOUS
10
2.7874015748031495
20
-2.4145669291338581
11
2.7874015748031495
21
-2.4279527559055119
0
LINE
8
BLACK
6
CONTINUOUS
10
2.7874015748031495
20
-2.4279527559055119
11
2.7869820078740157
21
-2.4300620472440944
0
LINE
8
BLACK
6
CONTINUOUS
10
2.7869820078740157
20
-2.4300620472440944
11
2.7857872047244094
21
-2.4318501968503936
0
LINE
8
BLACK
6
CONTINUOUS
10
2.7857872047244094
20
-2.4318501968503936
11
2.7839990551181102
21
-2.4330449999999999
0
LINE
8
BLACK
6
CONTINUOUS
10
2.7839990551181102
20
-2.4330449999999999
11
2.7818897637795277
21
-2.4334645669291337
0
LINE
8
BLACK
6
CONTINUOUS
10
2.7818897637795277
20
-2.4334645669291337
11
2.7708661417322835
21
-2.4334645669291337
0
LINE
8
BLACK
6
CONTINUOUS
10
2.7708661417322835
20
-2.4334645669291337
11
2.7687568503937006
21
-2.4330449999999999
0
LINE
8
BLACK
6
CONTINUOUS
10
2.7687568503937006
20
-2.4330449999999999
11
2.7669687007874013
21
-2.4318501968503936
0
LINE
8
BLACK
6
CONTINUOUS
10
2.7669687007874013
20
-2.4318501968503936
11
2.765773897637795
21
-2.4300620472440944
0
LINE
8
BLACK
6
CONTINUOUS
10
2.765773897637795
20
-2.4300620472440944
11
2.7653543307086612
21
-2.4279527559055119
0
LINE
8
BLACK
6
CONTINUOUS
10
2.7653543307086612
20
-2.4279527559055119
11
2.7653543307086612
21
-2.4145669291338581
0
LINE
8
BLACK
6
CONTINUOUS
10
2.7653543307086612
20
-2.4145669291338581
11
2.765773897637795
21
-2.4124576377952756
0
LINE
8
BLACK
6
CONTINUOUS
10
2.765773897637795
20
-2.4124576377952756
11
2.7669687007874013
21
-2.4106694881889763
0
LINE
8
BLACK
6
CONTINUOUS
10
2.7669687007874013
20
-2.4106694881889763
11
2.7687568503937006
21
-2.40947468503937
0
LINE
8
BLACK
6
CONTINUOUS
10
2.7687568503937006
20
-2.40947468503937
11
2.7708661417322835
21
-2.4090551181102362
0
LINE
8
BLACK
6
CONTINUOUS
10
2.7708661417322835
20
-2.4090551181102362
11
2.7818897637795277
21
-2.4090551181102362
0
LINE
8
BLACK
6
CONTINUOUS
10
2.7818897637795277
20
-2.4090551181102362
11
2.7839990551181102
21
-2.40947468503937
0
LINE
8
BLACK
6
CONTINUOUS
10
2.8217943307086615
20
-2.40947468503937
11
2.8235824803149607
21
-2.4106694881889763
0
LINE
8
BLACK
6
CONTINUOUS
10
2.8235824803149607
20
-2.4106694881889763
11
2.824777283464567
21
-2.4124576377952756
0
LINE
8
BLACK
6
CONTINUOUS
10
2.824777283464567
20
-2.4124576377952756
11
2.8251968503937008
21
-2.4145669291338581
0
LINE
8
BLACK
6
CONTINUOUS
10
2.8251968503937008
20
-2.4145669291338581
11
2.8251968503937008
21
-2.4279527559055119
0
LINE
8
BLACK
6
CONTINUOUS
10
2.8251968503937008
20
-2.4279527559055119
11
2.824777283464567
21
-2.4300620472440944
0
LINE
8
BLACK
6
CONTINUOUS
10
2.824777283464567
20
-2.4300620472440944
11
2.8235824803149607
21
-2.4318501968503936
0
LINE
8
BLACK
6
CONTINUOUS
10
2.8235824803149607
20
-2.4318501968503936
11
2.8217943307086615
21
-2.4330449999999999
0
LINE
8
BLACK
6
CONTINUOUS
10
2.8217943307086615
20
-2.4330449999999999
11
2.8196850393700785
21
-2.4334645669291337
0
LINE
8
BLACK
6
CONTINUOUS
10
2.8196850393700785
20
-2.4334645669291337
11
2.8086614173228344
21
-2.4334645669291337
0
LINE
8
BLACK
6
CONTINUOUS
10
2.8086614173228344
20
-2.4334645669291337
11
2.8065521259842519
21
-2.4330449999999999
0
LINE
8
BLACK
6
CONTINUOUS
10
2.8065521259842519
20
-2.4330449999999999
11
2.8047639763779526
21
-2.4318501968503936
0
LINE
8
BLACK
6
CONTINUOUS
10
2.8047639763779526
20
-2.4318501968503936
11
2.8035691732283463
21
-2.4300620472440944
0
LINE
8
BLACK
6
CONTINUOUS
10
2.8035691732283463
20
-2.4300620472440944
11
2.8031496062992125
21
-2.4279527559055119
0
LINE
8
BLACK
6
CONTINUOUS
10
2.8031496062992125
20
-2.4279527559055119
11
2.8031496062992125
21
-2.4145669291338581
0
LINE
8
BLACK
6
CONTINUOUS
10
2.8031496062992125
20
-2.4145669291338581
11
2.8035691732283463
21
-2.4124576377952756
0
LINE
8
BLACK
6
CONTINUOUS
10
2.8035691732283463
20
-2.4124576377952756
11
2.8047639763779526
21
-2.4106694881889763
0
LINE
8
BLACK
6
CONTINUOUS
10
2.8047639763779526
20
-2.4106694881889763
11
2.8065521259842519
21
-2.40947468503937
0
LINE
8
BLACK
6
CONTINUOUS
10
2.8065521259842519
20
-2.40947468503937
11
2.8086614173228344
21
-2.4090551181102362
0
LINE
8
BLACK
6
CONTINUOUS
10
2.8086614173228344
20
-2.4090551181102362
11
2.8196850393700785
21
-2.4090551181102362
0
LINE
8
BLACK
6
CONTINUOUS
10
2.8196850393700785
20
-2.4090551181102362
11
2.8217943307086615
21
-2.40947468503937
0
LINE
8
BLACK
6
CONTINUOUS
10
2.7874015748031495
20
-2.3897637795275588
11
2.7677165354330708
21
-2.3897637795275588
0
LINE
8
BLACK
6
CONTINUOUS
10
2.7677165354330708
20
-2.3897637795275588
11
2.7677165354330708
21
-2.3700787401574801
0
LINE
8
BLACK
6
CONTINUOUS
10
2.7677165354330708
20
-2.3700787401574801
11
2.7874015748031495
21
-2.3700787401574801
0
LINE
8
BLACK
6
CONTINUOUS
10
2.7874015748031495
20
-2.3700787401574801
11
2.7874015748031495
21
-2.3897637795275588
0
LINE
8
BLACK
6
CONTINUOUS
10
2.8228346456692912
20
-2.3897637795275588
11
2.8031496062992125
21
-2.3897637795275588
0
LINE
8
BLACK
6
CONTINUOUS
10
2.8031496062992125
20
-2.3897637795275588
11
2.8031496062992125
21
-2.3700787401574801
0
LINE
8
BLACK
6
CONTINUOUS
10
2.8031496062992125
20
-2.3700787401574801
11
2.8228346456692912
21
-2.3700787401574801
0
LINE
8
BLACK
6
CONTINUOUS
10
2.8228346456692912
20
-2.3700787401574801
11
2.8228346456692912
21
-2.3897637795275588
0
LINE
8
BLACK
6
CONTINUOUS
10
3.4960629921259843
20
-2.3897637795275588
11
3.4763779527559056
21
-2.3897637795275588
0
LINE
8
BLACK
6
CONTINUOUS
10
3.4763779527559056
20
-2.3897637795275588
11
3.4763779527559056
21
-2.3700787401574801
0
LINE
8
BLACK
6
CONTINUOUS
10
3.4763779527559056
20
-2.3700787401574801
11
3.4960629921259843
21
-2.3700787401574801
0
LINE
8
BLACK
6
CONTINUOUS
10
3.4960629921259843
20
-2.3700787401574801
11
3.4960629921259843
21
-2.3897637795275588
0
LINE
8
BLACK
6
CONTINUOUS
10
3.5314960629921259
20
-2.3897637795275588
11
3.5118110236220472
21
-2.3897637795275588
0
LINE
8
BLACK
6
CONTINUOUS
10
3.5118110236220472
20
-2.3897637795275588
11
3.5118110236220472
21
-2.3700787401574801
0
LINE
8
BLACK
6
CONTINUOUS
10
3.5118110236220472
20
-2.3700787401574801
11
3.5314960629921259
21
-2.3700787401574801
0
LINE
8
BLACK
6
CONTINUOUS
10
3.5314960629921259
20
-2.3700787401574801
11
3.5314960629921259
21
-2.3897637795275588
0
LINE
8
BLACK
6
CONTINUOUS
10
2.7247129133858268
20
-2.3442985826771654
11
2.7294263779527559
21
-2.3473277559055119
0
LINE
8
BLACK
6
CONTINUOUS
10
2.7294263779527559
20
-2.3473277559055119
11
2.7330955511811021
21
-2.3515622047244094
0
LINE
8
BLACK
6
CONTINUOUS
10
2.7330955511811021
20
-2.3515622047244094
11
2.7354230708661418
21
-2.3566588188976376
0
LINE
8
BLACK
6
CONTINUOUS
10
2.7354230708661418
20
-2.3566588188976376
11
2.7362204724409449
21
-2.3622047244094486
0
LINE
8
BLACK
6
CONTINUOUS
10
2.7362204724409449
20
-2.3622047244094486
11
2.7354230708661418
21
-2.3677506299212596
0
LINE
8
BLACK
6
CONTINUOUS
10
2.7354230708661418
20
-2.3677506299212596
11
2.7330955511811021
21
-2.3728472440944883
0
LINE
8
BLACK
6
CONTINUOUS
10
2.7330955511811021
20
-2.3728472440944883
11
2.7294263779527559
21
-2.3770816929133858
0
LINE
8
BLACK
6
CONTINUOUS
10
2.7294263779527559
20
-2.3770816929133858
11
2.7247129133858268
21
-2.3801108661417323
0
LINE
8
BLACK
6
CONTINUOUS
10
2.7247129133858268
20
-2.3801108661417323
11
2.7193368897637793
21
-2.381689409448819
0
LINE
8
BLACK
6
CONTINUOUS
10
2.7193368897637793
20
-2.381689409448819
11
2.7137339763779527
21
-2.381689409448819
0
LINE
8
BLACK
6
CONTINUOUS
10
2.7137339763779527
20
-2.381689409448819
11
2.7083579527559056
21
-2.3801108661417323
0
LINE
8
BLACK
6
CONTINUOUS
10
2.7083579527559056
20
-2.3801108661417323
11
2.7036444881889765
21
-2.3770816929133858
0
LINE
8
BLACK
6
CONTINUOUS
10
2.7036444881889765
20
-2.3770816929133858
11
2.6999753149606298
21
-2.3728472440944883
0
LINE
8
BLACK
6
CONTINUOUS
10
2.6999753149606298
20
-2.3728472440944883
11
2.6976477952755906
21
-2.3677506299212596
0
LINE
8
BLACK
6
CONTINUOUS
10
2.6976477952755906
20
-2.3677506299212596
11
2.6968503937007875
21
-2.3622047244094486
0
LINE
8
BLACK
6
CONTINUOUS
10
2.6968503937007875
20
-2.3622047244094486
11
2.6976477952755906
21
-2.3566588188976376
0
LINE
8
BLACK
6
CONTINUOUS
10
2.6976477952755906
20
-2.3566588188976376
11
2.6999753149606298
21
-2.3515622047244094
0
LINE
8
BLACK
6
CONTINUOUS
10
2.6999753149606298
20
-2.3515622047244094
11
2.7036444881889765
21
-2.3473277559055119
0
LINE
8
BLACK
6
CONTINUOUS
10
2.7036444881889765
20
-2.3473277559055119
11
2.7083579527559056
21
-2.3442985826771654
0
LINE
8
BLACK
6
CONTINUOUS
10
2.7083579527559056
20
-2.3442985826771654
11
2.7137339763779527
21
-2.3427200393700787
0
LINE
8
BLACK
6
CONTINUOUS
10
2.7137339763779527
20
-2.3427200393700787
11
2.7193368897637793
21
-2.3427200393700787
0
LINE
8
BLACK
6
CONTINUOUS
10
2.7193368897637793
20
-2.3427200393700787
11
2.7247129133858268
21
-2.3442985826771654
0
LINE
8
BLACK
6
CONTINUOUS
10
2.7874015748031495
20
-2.3543307086614171
11
2.7677165354330708
21
-2.3543307086614171
0
LINE
8
BLACK
6
CONTINUOUS
10
2.7677165354330708
20
-2.3543307086614171
11
2.7677165354330708
21
-2.3346456692913384
0
LINE
8
BLACK
6
CONTINUOUS
10
2.7677165354330708
20
-2.3346456692913384
11
2.7874015748031495
21
-2.3346456692913384
0
LINE
8
BLACK
6
CONTINUOUS
10
2.7874015748031495
20
-2.3346456692913384
11
2.7874015748031495
21
-2.3543307086614171
0
LINE
8
BLACK
6
CONTINUOUS
10
2.8228346456692912
20
-2.3543307086614171
11
2.8031496062992125
21
-2.3543307086614171
0
LINE
8
BLACK
6
CONTINUOUS
10
2.8031496062992125
20
-2.3543307086614171
11
2.8031496062992125
21
-2.3346456692913384
0
LINE
8
BLACK
6
CONTINUOUS
10
2.8031496062992125
20
-2.3346456692913384
11
2.8228346456692912
21
-2.3346456692913384
0
LINE
8
BLACK
6
CONTINUOUS
10
2.8228346456692912
20
-2.3346456692913384
11
2.8228346456692912
21
-2.3543307086614171
0
LINE
8
BLACK
6
CONTINUOUS
10
3.4960629921259843
20
-2.3543307086614171
11
3.4763779527559056
21
-2.3543307086614171
0
LINE
8
BLACK
6
CONTINUOUS
10
3.4763779527559056
20
-2.3543307086614171
11
3.4763779527559056
21
-2.3346456692913384
0
LINE
8
BLACK
6
CONTINUOUS
10
3.4763779527559056
20
-2.3346456692913384
11
3.4960629921259843
21
-2.3346456692913384
0
LINE
8
BLACK
6
CONTINUOUS
10
3.4960629921259843
20
-2.3346456692913384
11
3.4960629921259843
21
-2.3543307086614171
0
LINE
8
BLACK
6
CONTINUOUS
10
3.5314960629921259
20
-2.3543307086614171
11
3.5118110236220472
21
-2.3543307086614171
0
LINE
8
BLACK
6
CONTINUOUS
10
3.5118110236220472
20
-2.3543307086614171
11
3.5118110236220472
21
-2.3346456692913384
0
LINE
8
BLACK
6
CONTINUOUS
10
3.5118110236220472
20
-2.3346456692913384
11
3.5314960629921259
21
-2.3346456692913384
0
LINE
8
BLACK
6
CONTINUOUS
10
3.5314960629921259
20
-2.3346456692913384
11
3.5314960629921259
21
-2.3543307086614171
0
LINE
8
BLACK
6
CONTINUOUS
10
3.4985659842519685
20
-2.2925455511811021
11
3.5003541338582678
21
-2.2937403543307084
0
LINE
8
BLACK
6
CONTINUOUS
10
3.5003541338582678
20
-2.2937403543307084
11
3.5015489370078741
21
-2.2955285039370077
0
LINE
8
BLACK
6
CONTINUOUS
10
3.5015489370078741
20
-2.2955285039370077
11
3.5019685039370079
21
-2.2976377952755906
0
LINE
8
BLACK
6
CONTINUOUS
10
3.5019685039370079
20
-2.2976377952755906
11
3.5019685039370079
21
-2.311023622047244
0
LINE
8
BLACK
6
CONTINUOUS
10
3.5019685039370079
20
-2.311023622047244
11
3.5015489370078741
21
-2.3131329133858269
0
LINE
8
BLACK
6
CONTINUOUS
10
3.5015489370078741
20
-2.3131329133858269
11
3.5003541338582678
21
-2.3149210629921257
0
LINE
8
BLACK
6
CONTINUOUS
10
3.5003541338582678
20
-2.3149210629921257
11
3.4985659842519685
21
-2.316115866141732
0
LINE
8
BLACK
6
CONTINUOUS
10
3.4985659842519685
20
-2.316115866141732
11
3.4964566929133856
21
-2.3165354330708663
0
LINE
8
BLACK
6
CONTINUOUS
10
3.4964566929133856
20
-2.3165354330708663
11
3.4854330708661418
21
-2.3165354330708663
0
LINE
8
BLACK
6
CONTINUOUS
10
3.4854330708661418
20
-2.3165354330708663
11
3.4833237795275589
21
-2.316115866141732
0
LINE
8
BLACK
6
CONTINUOUS
10
3.4833237795275589
20
-2.316115866141732
11
3.4815356299212596
21
-2.3149210629921257
0
LINE
8
BLACK
6
CONTINUOUS
10
3.4815356299212596
20
-2.3149210629921257
11
3.4803408267716534
21
-2.3131329133858269
0
LINE
8
BLACK
6
CONTINUOUS
10
3.4803408267716534
20
-2.3131329133858269
11
3.4799212598425195
21
-2.311023622047244
0
LINE
8
BLACK
6
CONTINUOUS
10
3.4799212598425195
20
-2.311023622047244
11
3.4799212598425195
21
-2.2976377952755906
0
LINE
8
BLACK
6
CONTINUOUS
10
3.4799212598425195
20
-2.2976377952755906
11
3.4803408267716534
21
-2.2955285039370077
0
LINE
8
BLACK
6
CONTINUOUS
10
3.4803408267716534
20
-2.2955285039370077
11
3.4815356299212596
21
-2.2937403543307084
0
LINE
8
BLACK
6
CONTINUOUS
10
3.4815356299212596
20
-2.2937403543307084
11
3.4833237795275589
21
-2.2925455511811021
0
LINE
8
BLACK
6
CONTINUOUS
10
3.4833237795275589
20
-2.2925455511811021
11
3.4854330708661418
21
-2.2921259842519683
0
LINE
8
BLACK
6
CONTINUOUS
10
3.4854330708661418
20
-2.2921259842519683
11
3.4964566929133856
21
-2.2921259842519683
0
LINE
8
BLACK
6
CONTINUOUS
10
3.4964566929133856
20
-2.2921259842519683
11
3.4985659842519685
21
-2.2925455511811021
0
LINE
8
BLACK
6
CONTINUOUS
10
3.5363612598425198
20
-2.2925455511811021
11
3.5381494094488186
21
-2.2937403543307084
0
LINE
8
BLACK
6
CONTINUOUS
10
3.5381494094488186
20
-2.2937403543307084
11
3.5393442125984249
21
-2.2955285039370077
0
LINE
8
BLACK
6
CONTINUOUS
10
3.5393442125984249
20
-2.2955285039370077
11
3.5397637795275592
21
-2.2976377952755906
0
LINE
8
BLACK
6
CONTINUOUS
10
3.5397637795275592
20
-2.2976377952755906
11
3.5397637795275592
21
-2.311023622047244
0
LINE
8
BLACK
6
CONTINUOUS
10
3.5397637795275592
20
-2.311023622047244
11
3.5393442125984249
21
-2.3131329133858269
0
LINE
8
BLACK
6
CONTINUOUS
10
3.5393442125984249
20
-2.3131329133858269
11
3.5381494094488186
21
-2.3149210629921257
0
LINE
8
BLACK
6
CONTINUOUS
10
3.5381494094488186
20
-2.3149210629921257
11
3.5363612598425198
21
-2.316115866141732
0
LINE
8
BLACK
6
CONTINUOUS
10
3.5363612598425198
20
-2.316115866141732
11
3.5342519685039369
21
-2.3165354330708663
0
LINE
8
BLACK
6
CONTINUOUS
10
3.5342519685039369
20
-2.3165354330708663
11
3.5232283464566927
21
-2.3165354330708663
0
LINE
8
BLACK
6
CONTINUOUS
10
3.5232283464566927
20
-2.3165354330708663
11
3.5211190551181102
21
-2.316115866141732
0
LINE
8
BLACK
6
CONTINUOUS
10
3.5211190551181102
20
-2.316115866141732
11
3.5193309055118109
21
-2.3149210629921257
0
LINE
8
BLACK
6
CONTINUOUS
10
3.5193309055118109
20
-2.3149210629921257
11
3.5181361023622046
21
-2.3131329133858269
0
LINE
8
BLACK
6
CONTINUOUS
10
3.5181361023622046
20
-2.3131329133858269
11
3.5177165354330708
21
-2.311023622047244
0
LINE
8
BLACK
6
CONTINUOUS
10
3.5177165354330708
20
-2.311023622047244
11
3.5177165354330708
21
-2.2976377952755906
0
LINE
8
BLACK
6
CONTINUOUS
10
3.5177165354330708
20
-2.2976377952755906
11
3.5181361023622046
21
-2.2955285039370077
0
LINE
8
BLACK
6
CONTINUOUS
10
3.5181361023622046
20
-2.2955285039370077
11
3.5193309055118109
21
-2.2937403543307084
0
LINE
8
BLACK
6
CONTINUOUS
10
3.5193309055118109
20
-2.2937403543307084
11
3.5211190551181102
21
-2.2925455511811021
0
LINE
8
BLACK
6
CONTINUOUS
10
3.5211190551181102
20
-2.2925455511811021
11
3.5232283464566927
21
-2.2921259842519683
0
LINE
8
BLACK
6
CONTINUOUS
10
3.5232283464566927
20
-2.2921259842519683
11
3.5342519685039369
21
-2.2921259842519683
0
LINE
8
BLACK
6
CONTINUOUS
10
3.5342519685039369
20
-2.2921259842519683
11
3.5363612598425198
21
-2.2925455511811021
0
LINE
8
BLACK
6
CONTINUOUS
10
3.501433779527559
20
-2.2596361417322832
11
3.5022320472440942
21
-2.260169527559055
0
LINE
8
BLACK
6
CONTINUOUS
10
3.5022320472440942
20
-2.260169527559055
11
3.502765433070866
21
-2.2609677952755907
0
LINE
8
BLACK
6
CONTINUOUS
10
3.502765433070866
20
-2.2609677952755907
11
3.5029527559055116
21
-2.2619094488188978
0
LINE
8
BLACK
6
CONTINUOUS
10
3.5029527559055116
20
-2.2619094488188978
11
3.5029527559055116
21
-2.2711614173228347
0
LINE
8
BLACK
6
CONTINUOUS
10
3.5029527559055116
20
-2.2711614173228347
11
3.502765433070866
21
-2.2721030708661418
0
LINE
8
BLACK
6
CONTINUOUS
10
3.502765433070866
20
-2.2721030708661418
11
3.5022320472440942
21
-2.2729013385826771
0
LINE
8
BLACK
6
CONTINUOUS
10
3.5022320472440942
20
-2.2729013385826771
11
3.501433779527559
21
-2.2734347244094488
0
LINE
8
BLACK
6
CONTINUOUS
10
3.501433779527559
20
-2.2734347244094488
11
3.5004921259842519
21
-2.2736220472440944
0
LINE
8
BLACK
6
CONTINUOUS
10
3.5004921259842519
20
-2.2736220472440944
11
3.4955708661417324
21
-2.2736220472440944
0
LINE
8
BLACK
6
CONTINUOUS
10
3.4955708661417324
20
-2.2736220472440944
11
3.4946292125984253
21
-2.2734347244094488
0
LINE
8
BLACK
6
CONTINUOUS
10
3.4946292125984253
20
-2.2734347244094488
11
3.4938309448818896
21
-2.2729013385826771
0
LINE
8
BLACK
6
CONTINUOUS
10
3.4938309448818896
20
-2.2729013385826771
11
3.4932975590551179
21
-2.2721030708661418
0
LINE
8
BLACK
6
CONTINUOUS
10
3.4932975590551179
20
-2.2721030708661418
11
3.4931102362204722
21
-2.2711614173228347
0
LINE
8
BLACK
6
CONTINUOUS
10
3.4931102362204722
20
-2.2711614173228347
11
3.4931102362204722
21
-2.2619094488188978
0
LINE
8
BLACK
6
CONTINUOUS
10
3.4931102362204722
20
-2.2619094488188978
11
3.4932975590551179
21
-2.2609677952755907
0
LINE
8
BLACK
6
CONTINUOUS
10
3.4932975590551179
20
-2.2609677952755907
11
3.4938309448818896
21
-2.260169527559055
0
LINE
8
BLACK
6
CONTINUOUS
10
3.4938309448818896
20
-2.260169527559055
11
3.4946292125984253
21
-2.2596361417322832
0
LINE
8
BLACK
6
CONTINUOUS
10
3.4946292125984253
20
-2.2596361417322832
11
3.4955708661417324
21
-2.2594488188976376
0
LINE
8
BLACK
6
CONTINUOUS
10
3.4955708661417324
20
-2.2594488188976376
11
3.5004921259842519
21
-2.2594488188976376
0
LINE
8
BLACK
6
CONTINUOUS
10
3.5004921259842519
20
-2.2594488188976376
11
3.501433779527559
21
-2.2596361417322832
0
LINE
8
BLACK
6
CONTINUOUS
10
2.8326554330708662
20
-2.2323437795275591
11
2.8422022047244093
21
-2.237855590551181
0
LINE
8
BLACK
6
CONTINUOUS
10
2.8422022047244093
20
-2.237855590551181
11
2.8438190944881887
21
-2.2392735826771655
0
LINE
8
BLACK
6
CONTINUOUS
10
2.8438190944881887
20
-2.2392735826771655
11
2.8447702755905513
21
-2.2412024015748031
0
LINE
8
BLACK
6
CONTINUOUS
10
2.8447702755905513
20
-2.2412024015748031
11
2.8449109448818897
21
-2.2433483858267715
0
LINE
8
BLACK
6
CONTINUOUS
10
2.8449109448818897
20
-2.2433483858267715
11
2.8442196456692912
21
-2.2453848818897639
0
LINE
8
BLACK
6
CONTINUOUS
10
2.8442196456692912
20
-2.2453848818897639
11
2.8375267322834645
21
-2.2569773228346457
0
LINE
8
BLACK
6
CONTINUOUS
10
2.8375267322834645
20
-2.2569773228346457
11
2.83610874015748
21
-2.2585942519685038
0
LINE
8
BLACK
6
CONTINUOUS
10
2.83610874015748
20
-2.2585942519685038
11
2.8341799212598424
21
-2.259545433070866
0
LINE
8
BLACK
6
CONTINUOUS
10
2.8341799212598424
20
-2.259545433070866
11
2.832033937007874
21
-2.2596861023622048
0
LINE
8
BLACK
6
CONTINUOUS
10
2.832033937007874
20
-2.2596861023622048
11
2.8299974803149603
21
-2.2589948031496063
0
LINE
8
BLACK
6
CONTINUOUS
10
2.8299974803149603
20
-2.2589948031496063
11
2.8204507086614172
21
-2.253482992125984
0
LINE
8
BLACK
6
CONTINUOUS
10
2.8204507086614172
20
-2.253482992125984
11
2.8188338188976378
21
-2.252065
0
LINE
8
BLACK
6
CONTINUOUS
10
2.8188338188976378
20
-2.252065
11
2.8178826377952757
21
-2.2501361811023624
0
LINE
8
BLACK
6
CONTINUOUS
10
2.8178826377952757
20
-2.2501361811023624
11
2.8177419685039369
21
-2.2479901968503935
0
LINE
8
BLACK
6
CONTINUOUS
10
2.8177419685039369
20
-2.2479901968503935
11
2.8184332677165354
21
-2.2459537007874015
0
LINE
8
BLACK
6
CONTINUOUS
10
2.8184332677165354
20
-2.2459537007874015
11
2.825126181102362
21
-2.2343612598425198
0
LINE
8
BLACK
6
CONTINUOUS
10
2.825126181102362
20
-2.2343612598425198
11
2.8265441732283465
21
-2.2327443307086612
0
LINE
8
BLACK
6
CONTINUOUS
10
2.8265441732283465
20
-2.2327443307086612
11
2.8284729921259841
21
-2.231793149606299
0
LINE
8
BLACK
6
CONTINUOUS
10
2.8284729921259841
20
-2.231793149606299
11
2.8306189763779526
21
-2.2316524803149607
0
LINE
8
BLACK
6
CONTINUOUS
10
2.8306189763779526
20
-2.2316524803149607
11
2.8326554330708662
21
-2.2323437795275591
0
LINE
8
BLACK
6
CONTINUOUS
10
2.7999237795275591
20
-2.2134461417322835
11
2.8094705511811022
21
-2.2189579527559053
0
LINE
8
BLACK
6
CONTINUOUS
10
2.8094705511811022
20
-2.2189579527559053
11
2.8110874409448816
21
-2.2203759448818898
0
LINE
8
BLACK
6
CONTINUOUS
10
2.8110874409448816
20
-2.2203759448818898
11
2.8120386220472442
21
-2.2223047637795275
0
LINE
8
BLACK
6
CONTINUOUS
10
2.8120386220472442
20
-2.2223047637795275
11
2.8121792913385826
21
-2.2244507480314959
0
LINE
8
BLACK
6
CONTINUOUS
10
2.8121792913385826
20
-2.2244507480314959
11
2.8114879921259841
21
-2.2264872440944883
0
LINE
8
BLACK
6
CONTINUOUS
10
2.8114879921259841
20
-2.2264872440944883
11
2.8047950787401574
21
-2.23807968503937
0
LINE
8
BLACK
6
CONTINUOUS
10
2.8047950787401574
20
-2.23807968503937
11
2.803377086614173
21
-2.2396966141732282
0
LINE
8
BLACK
6
CONTINUOUS
10
2.803377086614173
20
-2.2396966141732282
11
2.8014482677165353
21
-2.2406477952755903
0
LINE
8
BLACK
6
CONTINUOUS
10
2.8014482677165353
20
-2.2406477952755903
11
2.7993022834645669
21
-2.2407884645669292
0
LINE
8
BLACK
6
CONTINUOUS
10
2.7993022834645669
20
-2.2407884645669292
11
2.7972658267716537
21
-2.2400971653543307
0
LINE
8
BLACK
6
CONTINUOUS
10
2.7972658267716537
20
-2.2400971653543307
11
2.7877190551181101
21
-2.2345853543307088
0
LINE
8
BLACK
6
CONTINUOUS
10
2.7877190551181101
20
-2.2345853543307088
11
2.7861021653543308
21
-2.2331673622047243
0
LINE
8
BLACK
6
CONTINUOUS
10
2.7861021653543308
20
-2.2331673622047243
11
2.7851509842519686
21
-2.2312385433070867
0
LINE
8
BLACK
6
CONTINUOUS
10
2.7851509842519686
20
-2.2312385433070867
11
2.7850103149606298
21
-2.2290925590551183
0
LINE
8
BLACK
6
CONTINUOUS
10
2.7850103149606298
20
-2.2290925590551183
11
2.7857016141732283
21
-2.2270560629921259
0
LINE
8
BLACK
6
CONTINUOUS
10
2.7857016141732283
20
-2.2270560629921259
11
2.7923945275590549
21
-2.2154636220472441
0
LINE
8
BLACK
6
CONTINUOUS
10
2.7923945275590549
20
-2.2154636220472441
11
2.7938125196850394
21
-2.213846692913386
0
LINE
8
BLACK
6
CONTINUOUS
10
2.7938125196850394
20
-2.213846692913386
11
2.795741338582677
21
-2.2128955118110234
0
LINE
8
BLACK
6
CONTINUOUS
10
2.795741338582677
20
-2.2128955118110234
11
2.7978873228346455
21
-2.212754842519685
0
LINE
8
BLACK
6
CONTINUOUS
10
2.7978873228346455
20
-2.212754842519685
11
2.7999237795275591
21
-2.2134461417322835
0
LINE
8
BLACK
6
CONTINUOUS
10
3.501433779527559
20
-2.2265652755905512
11
3.5022320472440942
21
-2.2270986614173229
0
LINE
8
BLACK
6
CONTINUOUS
10
3.5022320472440942
20
-2.2270986614173229
11
3.502765433070866
21
-2.2278969291338582
0
LINE
8
BLACK
6
CONTINUOUS
10
3.502765433070866
20
-2.2278969291338582
11
3.5029527559055116
21
-2.2288385826771653
0
LINE
8
BLACK
6
CONTINUOUS
10
3.5029527559055116
20
-2.2288385826771653
11
3.5029527559055116
21
-2.2380905511811022
0
LINE
8
BLACK
6
CONTINUOUS
10
3.5029527559055116
20
-2.2380905511811022
11
3.502765433070866
21
-2.2390322047244093
0
LINE
8
BLACK
6
CONTINUOUS
10
3.502765433070866
20
-2.2390322047244093
11
3.5022320472440942
21
-2.239830472440945
0
LINE
8
BLACK
6
CONTINUOUS
10
3.5022320472440942
20
-2.239830472440945
11
3.501433779527559
21
-2.2403638582677163
0
LINE
8
BLACK
6
CONTINUOUS
10
3.501433779527559
20
-2.2403638582677163
11
3.5004921259842519
21
-2.240551181102362
0
LINE
8
BLACK
6
CONTINUOUS
10
3.5004921259842519
20
-2.240551181102362
11
3.4955708661417324
21
-2.240551181102362
0
LINE
8
BLACK
6
CONTINUOUS
10
3.4955708661417324
20
-2.240551181102362
11
3.4946292125984253
21
-2.2403638582677163
0
LINE
8
BLACK
6
CONTINUOUS
10
3.4946292125984253
20
-2.2403638582677163
11
3.4938309448818896
21
-2.239830472440945
0
LINE
8
BLACK
6
CONTINUOUS
10
3.4938309448818896
20
-2.239830472440945
11
3.4932975590551179
21
-2.2390322047244093
0
LINE
8
BLACK
6
CONTINUOUS
10
3.4932975590551179
20
-2.2390322047244093
11
3.4931102362204722
21
-2.2380905511811022
0
LINE
8
BLACK
6
CONTINUOUS
10
3.4931102362204722
20
-2.2380905511811022
11
3.4931102362204722
21
-2.2288385826771653
0
LINE
8
BLACK
6
CONTINUOUS
10
3.4931102362204722
20
-2.2288385826771653
11
3.4932975590551179
21
-2.2278969291338582
0
LINE
8
BLACK
6
CONTINUOUS
10
3.4932975590551179
20
-2.2278969291338582
11
3.4938309448818896
21
-2.2270986614173229
0
LINE
8
BLACK
6
CONTINUOUS
10
3.4938309448818896
20
-2.2270986614173229
11
3.4946292125984253
21
-2.2265652755905512
0
LINE
8
BLACK
6
CONTINUOUS
10
3.4946292125984253
20
-2.2265652755905512
11
3.4955708661417324
21
-2.2263779527559056
0
LINE
8
BLACK
6
CONTINUOUS
10
3.4955708661417324
20
-2.2263779527559056
11
3.5004921259842519
21
-2.2263779527559056
0
LINE
8
BLACK
6
CONTINUOUS
10
3.5004921259842519
20
-2.2263779527559056
11
3.501433779527559
21
-2.2265652755905512
0
LINE
8
BLACK
6
CONTINUOUS
10
2.8626766929133858
20
-2.2056379921259843
11
2.8528341732283464
21
-2.2226857086614173
0
LINE
8
BLACK
6
CONTINUOUS
10
2.8528341732283464
20
-2.2226857086614173
11
2.8357864566929134
21
-2.212843188976378
0
LINE
8
BLACK
6
CONTINUOUS
10
2.8357864566929134
20
-2.212843188976378
11
2.8456289763779528
21
-2.195795472440945
0
LINE
8
BLACK
6
CONTINUOUS
10
2.8456289763779528
20
-2.195795472440945
11
2.8626766929133858
21
-2.2056379921259843
0
LINE
8
BLACK
6
CONTINUOUS
10
3.4634261417322834
20
-2.212843188976378
11
3.4463784251968503
21
-2.2226857086614173
0
LINE
8
BLACK
6
CONTINUOUS
10
3.4463784251968503
20
-2.2226857086614173
11
3.436535905511811
21
-2.2056379921259843
0
LINE
8
BLACK
6
CONTINUOUS
10
3.436535905511811
20
-2.2056379921259843
11
3.453583622047244
21
-2.195795472440945
0
LINE
8
BLACK
6
CONTINUOUS
10
3.453583622047244
20
-2.195795472440945
11
3.4634261417322834
21
-2.212843188976378
0
LINE
8
BLACK
6
CONTINUOUS
10
2.8319907874015748
20
-2.1879214566929135
11
2.8221482677165355
21
-2.2049691732283465
0
LINE
8
BLACK
6
CONTINUOUS
10
2.8221482677165355
20
-2.2049691732283465
11
2.8051005511811025
21
-2.1951266535433072
0
LINE
8
BLACK
6
CONTINUOUS
10
2.8051005511811025
20
-2.1951266535433072
11
2.8149430708661418
21
-2.1780789370078741
0
LINE
8
BLACK
6
CONTINUOUS
10
2.8149430708661418
20
-2.1780789370078741
11
2.8319907874015748
21
-2.1879214566929135
0
LINE
8
BLACK
6
CONTINUOUS
10
3.4941120472440943
20
-2.1951266535433072
11
3.4770643307086613
21
-2.2049691732283465
0
LINE
8
BLACK
6
CONTINUOUS
10
3.4770643307086613
20
-2.2049691732283465
11
3.4672218110236219
21
-2.1879214566929135
0
LINE
8
BLACK
6
CONTINUOUS
10
3.4672218110236219
20
-2.1879214566929135
11
3.4842695275590549
21
-2.1780789370078741
0
LINE
8
BLACK
6
CONTINUOUS
10
3.4842695275590549
20
-2.1780789370078741
11
3.4941120472440943
21
-2.1951266535433072
0
LINE
8
BLACK
6
CONTINUOUS
10
2.8803932283464566
20
-2.1749520866141734
11
2.8705507086614173
21
-2.1919998031496064
0
LINE
8
BLACK
6
CONTINUOUS
10
2.8705507086614173
20
-2.1919998031496064
11
2.8535029921259842
21
-2.1821572834645671
0
LINE
8
BLACK
6
CONTINUOUS
10
2.8535029921259842
20
-2.1821572834645671
11
2.8633455118110236
21
-2.1651095669291336
0
LINE
8
BLACK
6
CONTINUOUS
10
2.8633455118110236
20
-2.1651095669291336
11
2.8803932283464566
21
-2.1749520866141734
0
LINE
8
BLACK
6
CONTINUOUS
10
3.4457096062992125
20
-2.1821572834645671
11
3.4286618897637795
21
-2.1919998031496064
0
LINE
8
BLACK
6
CONTINUOUS
10
3.4286618897637795
20
-2.1919998031496064
11
3.4188193700787401
21
-2.1749520866141734
0
LINE
8
BLACK
6
CONTINUOUS
10
3.4188193700787401
20
-2.1749520866141734
11
3.4358670866141732
21
-2.1651095669291336
0
LINE
8
BLACK
6
CONTINUOUS
10
3.4358670866141732
20
-2.1651095669291336
11
3.4457096062992125
21
-2.1821572834645671
0
LINE
8
BLACK
6
CONTINUOUS
10
2.8497073228346457
20
-2.1572355511811021
11
2.8398648031496063
21
-2.1742832677165356
0
LINE
8
BLACK
6
CONTINUOUS
10
2.8398648031496063
20
-2.1742832677165356
11
2.8228170866141733
21
-2.1644407480314962
0
LINE
8
BLACK
6
CONTINUOUS
10
2.8228170866141733
20
-2.1644407480314962
11
2.8326596062992127
21
-2.1473930314960628
0
LINE
8
BLACK
6
CONTINUOUS
10
2.8326596062992127
20
-2.1473930314960628
11
2.8497073228346457
21
-2.1572355511811021
0
LINE
8
BLACK
6
CONTINUOUS
10
3.4763955118110235
20
-2.1644407480314962
11
3.4593477952755904
21
-2.1742832677165356
0
LINE
8
BLACK
6
CONTINUOUS
10
3.4593477952755904
20
-2.1742832677165356
11
3.4495052755905511
21
-2.1572355511811021
0
LINE
8
BLACK
6
CONTINUOUS
10
3.4495052755905511
20
-2.1572355511811021
11
3.4665529921259841
21
-2.1473930314960628
0
LINE
8
BLACK
6
CONTINUOUS
10
3.4665529921259841
20
-2.1473930314960628
11
3.4763955118110235
21
-2.1644407480314962
0
LINE
8
BLACK
6
CONTINUOUS
10
3.4116844881889765
20
-2.1313994488188976
11
3.4136133070866141
21
-2.1323506299212598
0
LINE
8
BLACK
6
CONTINUOUS
10
3.4136133070866141
20
-2.1323506299212598
11
3.4150312992125982
21
-2.1339675590551179
0
LINE
8
BLACK
6
CONTINUOUS
10
3.4150312992125982
20
-2.1339675590551179
11
3.4217242125984253
21
-2.1455600000000001
0
LINE
8
BLACK
6
CONTINUOUS
10
3.4217242125984253
20
-2.1455600000000001
11
3.4224155118110233
21
-2.1475964960629921
0
LINE
8
BLACK
6
CONTINUOUS
10
3.4224155118110233
20
-2.1475964960629921
11
3.4222748425196849
21
-2.1497424803149605
0
LINE
8
BLACK
6
CONTINUOUS
10
3.4222748425196849
20
-2.1497424803149605
11
3.4213236614173228
21
-2.1516712992125986
0
LINE
8
BLACK
6
CONTINUOUS
10
3.4213236614173228
20
-2.1516712992125986
11
3.4197067716535434
21
-2.1530892913385826
0
LINE
8
BLACK
6
CONTINUOUS
10
3.4197067716535434
20
-2.1530892913385826
11
3.4101599999999999
21
-2.1586011023622045
0
LINE
8
BLACK
6
CONTINUOUS
10
3.4101599999999999
20
-2.1586011023622045
11
3.4081235433070867
21
-2.159292401574803
0
LINE
8
BLACK
6
CONTINUOUS
10
3.4081235433070867
20
-2.159292401574803
11
3.4059775590551182
21
-2.1591517322834646
0
LINE
8
BLACK
6
CONTINUOUS
10
3.4059775590551182
20
-2.1591517322834646
11
3.4040487401574802
21
-2.1582005511811024
0
LINE
8
BLACK
6
CONTINUOUS
10
3.4040487401574802
20
-2.1582005511811024
11
3.4026307480314961
21
-2.1565836220472439
0
LINE
8
BLACK
6
CONTINUOUS
10
3.4026307480314961
20
-2.1565836220472439
11
3.395937834645669
21
-2.1449911811023621
0
LINE
8
BLACK
6
CONTINUOUS
10
3.395937834645669
20
-2.1449911811023621
11
3.395246535433071
21
-2.1429546850393701
0
LINE
8
BLACK
6
CONTINUOUS
10
3.395246535433071
20
-2.1429546850393701
11
3.3953872047244094
21
-2.1408087007874017
0
LINE
8
BLACK
6
CONTINUOUS
10
3.3953872047244094
20
-2.1408087007874017
11
3.3963383858267715
21
-2.1388798818897636
0
LINE
8
BLACK
6
CONTINUOUS
10
3.3963383858267715
20
-2.1388798818897636
11
3.3979552755905509
21
-2.1374618897637796
0
LINE
8
BLACK
6
CONTINUOUS
10
3.3979552755905509
20
-2.1374618897637796
11
3.4075020472440944
21
-2.1319500787401573
0
LINE
8
BLACK
6
CONTINUOUS
10
3.4075020472440944
20
-2.1319500787401573
11
3.4095385039370076
21
-2.1312587795275588
0
LINE
8
BLACK
6
CONTINUOUS
10
3.4095385039370076
20
-2.1312587795275588
11
3.4116844881889765
21
-2.1313994488188976
0
LINE
8
BLACK
6
CONTINUOUS
10
3.4444161417322832
20
-2.112501811023622
11
3.4463449606299212
21
-2.1134529921259841
0
LINE
8
BLACK
6
CONTINUOUS
10
3.4463449606299212
20
-2.1134529921259841
11
3.4477629527559053
21
-2.1150699212598423
0
LINE
8
BLACK
6
CONTINUOUS
10
3.4477629527559053
20
-2.1150699212598423
11
3.4544558661417324
21
-2.1266623622047245
0
LINE
8
BLACK
6
CONTINUOUS
10
3.4544558661417324
20
-2.1266623622047245
11
3.4551471653543304
21
-2.1286988582677164
0
LINE
8
BLACK
6
CONTINUOUS
10
3.4551471653543304
20
-2.1286988582677164
11
3.455006496062992
21
-2.1308448425196849
0
LINE
8
BLACK
6
CONTINUOUS
10
3.455006496062992
20
-2.1308448425196849
11
3.4540553149606299
21
-2.1327736614173229
0
LINE
8
BLACK
6
CONTINUOUS
10
3.4540553149606299
20
-2.1327736614173229
11
3.4524384251968505
21
-2.134191653543307
0
LINE
8
BLACK
6
CONTINUOUS
10
3.4524384251968505
20
-2.134191653543307
11
3.442891653543307
21
-2.1397034645669293
0
LINE
8
BLACK
6
CONTINUOUS
10
3.442891653543307
20
-2.1397034645669293
11
3.4408551968503938
21
-2.1403947637795273
0
LINE
8
BLACK
6
CONTINUOUS
10
3.4408551968503938
20
-2.1403947637795273
11
3.4387092125984253
21
-2.1402540944881889
0
LINE
8
BLACK
6
CONTINUOUS
10
3.4387092125984253
20
-2.1402540944881889
11
3.4367803937007873
21
-2.1393029133858268
0
LINE
8
BLACK
6
CONTINUOUS
10
3.4367803937007873
20
-2.1393029133858268
11
3.4353624015748032
21
-2.1376859842519687
0
LINE
8
BLACK
6
CONTINUOUS
10
3.4353624015748032
20
-2.1376859842519687
11
3.4286694881889761
21
-2.1260935433070864
0
LINE
8
BLACK
6
CONTINUOUS
10
3.4286694881889761
20
-2.1260935433070864
11
3.4279781889763781
21
-2.1240570472440945
0
LINE
8
BLACK
6
CONTINUOUS
10
3.4279781889763781
20
-2.1240570472440945
11
3.4281188582677165
21
-2.1219110629921261
0
LINE
8
BLACK
6
CONTINUOUS
10
3.4281188582677165
20
-2.1219110629921261
11
3.4290700393700786
21
-2.119982244094488
0
LINE
8
BLACK
6
CONTINUOUS
10
3.4290700393700786
20
-2.119982244094488
11
3.430686929133858
21
-2.118564251968504
0
LINE
8
BLACK
6
CONTINUOUS
10
3.430686929133858
20
-2.118564251968504
11
3.4402337007874015
21
-2.1130524409448816
0
LINE
8
BLACK
6
CONTINUOUS
10
3.4402337007874015
20
-2.1130524409448816
11
3.4422701574803147
21
-2.1123611417322836
0
LINE
8
BLACK
6
CONTINUOUS
10
3.4422701574803147
20
-2.1123611417322836
11
3.4444161417322832
21
-2.112501811023622
0
LINE
8
BLACK
6
CONTINUOUS
10
2.9347818503937009
20
-2.0868878740157482
11
2.9367106692913385
21
-2.0878390551181103
0
LINE
8
BLACK
6
CONTINUOUS
10
2.9367106692913385
20
-2.0878390551181103
11
2.938128661417323
21
-2.0894559448818897
0
LINE
8
BLACK
6
CONTINUOUS
10
2.938128661417323
20
-2.0894559448818897
11
2.9436404724409448
21
-2.0990027165354332
0
LINE
8
BLACK
6
CONTINUOUS
10
2.9436404724409448
20
-2.0990027165354332
11
2.9443317716535433
21
-2.1010391732283464
0
LINE
8
BLACK
6
CONTINUOUS
10
2.9443317716535433
20
-2.1010391732283464
11
2.9441911023622045
21
-2.1031851574803149
0
LINE
8
BLACK
6
CONTINUOUS
10
2.9441911023622045
20
-2.1031851574803149
11
2.9432399212598424
21
-2.1051139763779525
0
LINE
8
BLACK
6
CONTINUOUS
10
2.9432399212598424
20
-2.1051139763779525
11
2.9416229921259842
21
-2.106531968503937
0
LINE
8
BLACK
6
CONTINUOUS
10
2.9416229921259842
20
-2.106531968503937
11
2.9300305511811024
21
-2.1132248818897637
0
LINE
8
BLACK
6
CONTINUOUS
10
2.9300305511811024
20
-2.1132248818897637
11
2.9279940551181101
21
-2.1139161811023621
0
LINE
8
BLACK
6
CONTINUOUS
10
2.9279940551181101
20
-2.1139161811023621
11
2.9258480708661416
21
-2.1137755118110237
0
LINE
8
BLACK
6
CONTINUOUS
10
2.9258480708661416
20
-2.1137755118110237
11
2.923919251968504
21
-2.1128243307086612
0
LINE
8
BLACK
6
CONTINUOUS
10
2.923919251968504
20
-2.1128243307086612
11
2.9225012598425195
21
-2.1112074409448818
0
LINE
8
BLACK
6
CONTINUOUS
10
2.9225012598425195
20
-2.1112074409448818
11
2.9169894488188977
21
-2.1016606692913387
0
LINE
8
BLACK
6
CONTINUOUS
10
2.9169894488188977
20
-2.1016606692913387
11
2.9162981496062992
21
-2.099624212598425
0
LINE
8
BLACK
6
CONTINUOUS
10
2.9162981496062992
20
-2.099624212598425
11
2.9164388188976376
21
-2.0974782283464566
0
LINE
8
BLACK
6
CONTINUOUS
10
2.9164388188976376
20
-2.0974782283464566
11
2.9173900000000001
21
-2.095549409448819
0
LINE
8
BLACK
6
CONTINUOUS
10
2.9173900000000001
20
-2.095549409448819
11
2.9190069291338583
21
-2.0941314173228345
0
LINE
8
BLACK
6
CONTINUOUS
10
2.9190069291338583
20
-2.0941314173228345
11
2.9305993700787401
21
-2.0874385039370078
0
LINE
8
BLACK
6
CONTINUOUS
10
2.9305993700787401
20
-2.0874385039370078
11
2.932635866141732
21
-2.0867472047244093
0
LINE
8
BLACK
6
CONTINUOUS
10
2.932635866141732
20
-2.0867472047244093
11
2.9347818503937009
21
-2.0868878740157482
0
LINE
8
BLACK
6
CONTINUOUS
10
2.9794013779527559
20
-2.0831491338582677
11
2.9623536614173229
21
-2.0929916535433071
0
LINE
8
BLACK
6
CONTINUOUS
10
2.9623536614173229
20
-2.0929916535433071
11
2.9525111417322836
21
-2.0759439370078741
0
LINE
8
BLACK
6
CONTINUOUS
10
2.9525111417322836
20
-2.0759439370078741
11
2.9695588582677166
21
-2.0661014173228347
0
LINE
8
BLACK
6
CONTINUOUS
10
2.9695588582677166
20
-2.0661014173228347
11
2.9794013779527559
21
-2.0831491338582677
0
LINE
8
BLACK
6
CONTINUOUS
10
3.3467014566929132
20
-2.0759439370078741
11
3.3368589370078738
21
-2.0929916535433071
0
LINE
8
BLACK
6
CONTINUOUS
10
3.3368589370078738
20
-2.0929916535433071
11
3.3198112204724408
21
-2.0831491338582677
0
LINE
8
BLACK
6
CONTINUOUS
10
3.3198112204724408
20
-2.0831491338582677
11
3.3296537401574802
21
-2.0661014173228347
0
LINE
8
BLACK
6
CONTINUOUS
10
3.3296537401574802
20
-2.0661014173228347
11
3.3467014566929132
21
-2.0759439370078741
0
LINE
8
BLACK
6
CONTINUOUS
10
2.9158842125984252
20
-2.0541562204724411
11
2.9178130314960629
21
-2.0551074015748032
0
LINE
8
BLACK
6
CONTINUOUS
10
2.9178130314960629
20
-2.0551074015748032
11
2.9192310236220473
21
-2.0567242913385826
0
LINE
8
BLACK
6
CONTINUOUS
10
2.9192310236220473
20
-2.0567242913385826
11
2.9247428346456692
21
-2.0662710629921262
0
LINE
8
BLACK
6
CONTINUOUS
10
2.9247428346456692
20
-2.0662710629921262
11
2.9254341338582677
21
-2.0683075196850393
0
LINE
8
BLACK
6
CONTINUOUS
10
2.9254341338582677
20
-2.0683075196850393
11
2.9252934645669288
21
-2.0704535039370078
0
LINE
8
BLACK
6
CONTINUOUS
10
2.9252934645669288
20
-2.0704535039370078
11
2.9243422834645667
21
-2.0723823228346454
0
LINE
8
BLACK
6
CONTINUOUS
10
2.9243422834645667
20
-2.0723823228346454
11
2.9227253543307086
21
-2.0738003149606299
0
LINE
8
BLACK
6
CONTINUOUS
10
2.9227253543307086
20
-2.0738003149606299
11
2.9111329133858268
21
-2.0804932283464566
0
LINE
8
BLACK
6
CONTINUOUS
10
2.9111329133858268
20
-2.0804932283464566
11
2.9090964173228344
21
-2.081184527559055
0
LINE
8
BLACK
6
CONTINUOUS
10
2.9090964173228344
20
-2.081184527559055
11
2.906950433070866
21
-2.0810438582677167
0
LINE
8
BLACK
6
CONTINUOUS
10
2.906950433070866
20
-2.0810438582677167
11
2.9050216141732284
21
-2.0800926771653541
0
LINE
8
BLACK
6
CONTINUOUS
10
2.9050216141732284
20
-2.0800926771653541
11
2.9036036220472439
21
-2.0784757874015747
0
LINE
8
BLACK
6
CONTINUOUS
10
2.9036036220472439
20
-2.0784757874015747
11
2.898091811023622
21
-2.0689290157480316
0
LINE
8
BLACK
6
CONTINUOUS
10
2.898091811023622
20
-2.0689290157480316
11
2.8974005118110235
21
-2.0668925590551179
0
LINE
8
BLACK
6
CONTINUOUS
10
2.8974005118110235
20
-2.0668925590551179
11
2.8975411811023619
21
-2.0647465748031495
0
LINE
8
BLACK
6
CONTINUOUS
10
2.8975411811023619
20
-2.0647465748031495
11
2.8984923622047245
21
-2.0628177559055119
0
LINE
8
BLACK
6
CONTINUOUS
10
2.8984923622047245
20
-2.0628177559055119
11
2.9001092913385826
21
-2.0613997637795274
0
LINE
8
BLACK
6
CONTINUOUS
10
2.9001092913385826
20
-2.0613997637795274
11
2.9117017322834644
21
-2.0547068503937007
0
LINE
8
BLACK
6
CONTINUOUS
10
2.9117017322834644
20
-2.0547068503937007
11
2.9137382283464568
21
-2.0540155511811022
0
LINE
8
BLACK
6
CONTINUOUS
10
2.9137382283464568
20
-2.0540155511811022
11
2.9158842125984252
21
-2.0541562204724411
0
LINE
8
BLACK
6
CONTINUOUS
10
3.0100872834645669
20
-2.0654325984251969
11
2.9930395669291339
21
-2.0752751181102362
0
LINE
8
BLACK
6
CONTINUOUS
10
2.9930395669291339
20
-2.0752751181102362
11
2.9831970472440945
21
-2.0582274015748032
0
LINE
8
BLACK
6
CONTINUOUS
10
2.9831970472440945
20
-2.0582274015748032
11
3.0002447637795275
21
-2.0483848818897639
0
LINE
8
BLACK
6
CONTINUOUS
10
3.0002447637795275
20
-2.0483848818897639
11
3.0100872834645669
21
-2.0654325984251969
0
LINE
8
BLACK
6
CONTINUOUS
10
3.3160155511811022
20
-2.0582274015748032
11
3.3061730314960629
21
-2.0752751181102362
0
LINE
8
BLACK
6
CONTINUOUS
10
3.3061730314960629
20
-2.0752751181102362
11
3.2891253149606299
21
-2.0654325984251969
0
LINE
8
BLACK
6
CONTINUOUS
10
3.2891253149606299
20
-2.0654325984251969
11
3.2989678346456692
21
-2.0483848818897639
0
LINE
8
BLACK
6
CONTINUOUS
10
3.2989678346456692
20
-2.0483848818897639
11
3.3160155511811022
21
-2.0582274015748032
0
LINE
8
BLACK
6
CONTINUOUS
10
2.9616848425196851
20
-2.0524632283464568
11
2.9446371259842521
21
-2.0623057480314961
0
LINE
8
BLACK
6
CONTINUOUS
10
2.9446371259842521
20
-2.0623057480314961
11
2.9347946062992127
21
-2.0452580314960631
0
LINE
8
BLACK
6
CONTINUOUS
10
2.9347946062992127
20
-2.0452580314960631
11
2.9518423228346458
21
-2.0354155118110238
0
LINE
8
BLACK
6
CONTINUOUS
10
2.9518423228346458
20
-2.0354155118110238
11
2.9616848425196851
21
-2.0524632283464568
0
LINE
8
BLACK
6
CONTINUOUS
10
3.364417992125984
20
-2.0452580314960631
11
3.3545754724409447
21
-2.0623057480314961
0
LINE
8
BLACK
6
CONTINUOUS
10
3.3545754724409447
20
-2.0623057480314961
11
3.3375277559055117
21
-2.0524632283464568
0
LINE
8
BLACK
6
CONTINUOUS
10
3.3375277559055117
20
-2.0524632283464568
11
3.347370275590551
21
-2.0354155118110238
0
LINE
8
BLACK
6
CONTINUOUS
10
3.347370275590551
20
-2.0354155118110238
11
3.364417992125984
21
-2.0452580314960631
0
LINE
8
BLACK
6
CONTINUOUS
10
3.2658573228346457
20
-2.0310316929133858
11
3.2774497637795275
21
-2.0377246062992125
0
LINE
8
BLACK
6
CONTINUOUS
10
3.2774497637795275
20
-2.0377246062992125
11
3.2790666929133856
21
-2.039142598425197
0
LINE
8
BLACK
6
CONTINUOUS
10
3.2790666929133856
20
-2.039142598425197
11
3.2800178740157477
21
-2.0410714173228346
0
LINE
8
BLACK
6
CONTINUOUS
10
3.2800178740157477
20
-2.0410714173228346
11
3.2801585433070866
21
-2.043217401574803
0
LINE
8
BLACK
6
CONTINUOUS
10
3.2801585433070866
20
-2.043217401574803
11
3.2794672440944881
21
-2.0452538582677167
0
LINE
8
BLACK
6
CONTINUOUS
10
3.2794672440944881
20
-2.0452538582677167
11
3.2739554330708662
21
-2.0548006299212598
0
LINE
8
BLACK
6
CONTINUOUS
10
3.2739554330708662
20
-2.0548006299212598
11
3.2725374409448817
21
-2.0564175196850392
0
LINE
8
BLACK
6
CONTINUOUS
10
3.2725374409448817
20
-2.0564175196850392
11
3.2706086220472441
21
-2.0573687007874017
0
LINE
8
BLACK
6
CONTINUOUS
10
3.2706086220472441
20
-2.0573687007874017
11
3.2684626377952757
21
-2.0575093700787401
0
LINE
8
BLACK
6
CONTINUOUS
10
3.2684626377952757
20
-2.0575093700787401
11
3.2664261417322833
21
-2.0568180708661417
0
LINE
8
BLACK
6
CONTINUOUS
10
3.2664261417322833
20
-2.0568180708661417
11
3.2548337007874015
21
-2.050125157480315
0
LINE
8
BLACK
6
CONTINUOUS
10
3.2548337007874015
20
-2.050125157480315
11
3.2532167716535434
21
-2.0487071653543305
0
LINE
8
BLACK
6
CONTINUOUS
10
3.2532167716535434
20
-2.0487071653543305
11
3.2522655905511808
21
-2.0467783464566929
0
LINE
8
BLACK
6
CONTINUOUS
10
3.2522655905511808
20
-2.0467783464566929
11
3.2521249212598424
21
-2.0446323622047244
0
LINE
8
BLACK
6
CONTINUOUS
10
3.2521249212598424
20
-2.0446323622047244
11
3.2528162204724409
21
-2.0425959055118108
0
LINE
8
BLACK
6
CONTINUOUS
10
3.2528162204724409
20
-2.0425959055118108
11
3.2583280314960628
21
-2.0330491338582677
0
LINE
8
BLACK
6
CONTINUOUS
10
3.2583280314960628
20
-2.0330491338582677
11
3.2597460236220472
21
-2.0314322440944883
0
LINE
8
BLACK
6
CONTINUOUS
10
3.2597460236220472
20
-2.0314322440944883
11
3.2616748425196849
21
-2.0304810629921257
0
LINE
8
BLACK
6
CONTINUOUS
10
3.2616748425196849
20
-2.0304810629921257
11
3.2638208267716533
21
-2.0303403937007873
0
LINE
8
BLACK
6
CONTINUOUS
10
3.2638208267716533
20
-2.0303403937007873
11
3.2658573228346457
21
-2.0310316929133858
0
LINE
8
BLACK
6
CONTINUOUS
10
2.9923707480314961
20
-2.0347466929133859
11
2.975323031496063
21
-2.0445892125984253
0
LINE
8
BLACK
6
CONTINUOUS
10
2.975323031496063
20
-2.0445892125984253
11
2.9654805118110237
21
-2.0275414960629923
0
LINE
8
BLACK
6
CONTINUOUS
10
2.9654805118110237
20
-2.0275414960629923
11
2.9825282283464567
21
-2.0176989763779529
0
LINE
8
BLACK
6
CONTINUOUS
10
2.9825282283464567
20
-2.0176989763779529
11
2.9923707480314961
21
-2.0347466929133859
0
LINE
8
BLACK
6
CONTINUOUS
10
3.3337320866141731
20
-2.0275414960629923
11
3.3238895669291337
21
-2.0445892125984253
0
LINE
8
BLACK
6
CONTINUOUS
10
3.3238895669291337
20
-2.0445892125984253
11
3.3068418503937007
21
-2.0347466929133859
0
LINE
8
BLACK
6
CONTINUOUS
10
3.3068418503937007
20
-2.0347466929133859
11
3.3166843700787401
21
-2.0176989763779529
0
LINE
8
BLACK
6
CONTINUOUS
10
3.3166843700787401
20
-2.0176989763779529
11
3.3337320866141731
21
-2.0275414960629923
0
LINE
8
BLACK
6
CONTINUOUS
10
3.0993533858267717
20
-2.0185298031496064
11
3.1011415354330709
21
-2.0197246062992127
0
LINE
8
BLACK
6
CONTINUOUS
10
3.1011415354330709
20
-2.0197246062992127
11
3.1023363385826772
21
-2.0215127559055119
0
LINE
8
BLACK
6
CONTINUOUS
10
3.1023363385826772
20
-2.0215127559055119
11
3.102755905511811
21
-2.0236220472440944
0
LINE
8
BLACK
6
CONTINUOUS
10
3.102755905511811
20
-2.0236220472440944
11
3.102755905511811
21
-2.0346456692913386
0
LINE
8
BLACK
6
CONTINUOUS
10
3.102755905511811
20
-2.0346456692913386
11
3.1023363385826772
21
-2.0367549606299211
0
LINE
8
BLACK
6
CONTINUOUS
10
3.1023363385826772
20
-2.0367549606299211
11
3.1011415354330709
21
-2.0385431102362204
0
LINE
8
BLACK
6
CONTINUOUS
10
3.1011415354330709
20
-2.0385431102362204
11
3.0993533858267717
21
-2.0397379133858267
0
LINE
8
BLACK
6
CONTINUOUS
10
3.0993533858267717
20
-2.0397379133858267
11
3.0972440944881887
21
-2.0401574803149605
0
LINE
8
BLACK
6
CONTINUOUS
10
3.0972440944881887
20
-2.0401574803149605
11
3.0838582677165354
21
-2.0401574803149605
0
LINE
8
BLACK
6
CONTINUOUS
10
3.0838582677165354
20
-2.0401574803149605
11
3.0817489763779529
21
-2.0397379133858267
0
LINE
8
BLACK
6
CONTINUOUS
10
3.0817489763779529
20
-2.0397379133858267
11
3.0799608267716536
21
-2.0385431102362204
0
LINE
8
BLACK
6
CONTINUOUS
10
3.0799608267716536
20
-2.0385431102362204
11
3.0787660236220473
21
-2.0367549606299211
0
LINE
8
BLACK
6
CONTINUOUS
10
3.0787660236220473
20
-2.0367549606299211
11
3.0783464566929135
21
-2.0346456692913386
0
LINE
8
BLACK
6
CONTINUOUS
10
3.0783464566929135
20
-2.0346456692913386
11
3.0783464566929135
21
-2.0236220472440944
0
LINE
8
BLACK
6
CONTINUOUS
10
3.0783464566929135
20
-2.0236220472440944
11
3.0787660236220473
21
-2.0215127559055119
0
LINE
8
BLACK
6
CONTINUOUS
10
3.0787660236220473
20
-2.0215127559055119
11
3.0799608267716536
21
-2.0197246062992127
0
LINE
8
BLACK
6
CONTINUOUS
10
3.0799608267716536
20
-2.0197246062992127
11
3.0817489763779529
21
-2.0185298031496064
0
LINE
8
BLACK
6
CONTINUOUS
10
3.0817489763779529
20
-2.0185298031496064
11
3.0838582677165354
21
-2.0181102362204726
0
LINE
8
BLACK
6
CONTINUOUS
10
3.0838582677165354
20
-2.0181102362204726
11
3.0972440944881887
21
-2.0181102362204726
0
LINE
8
BLACK
6
CONTINUOUS
10
3.0972440944881887
20
-2.0181102362204726
11
3.0993533858267717
21
-2.0185298031496064
0
LINE
8
BLACK
6
CONTINUOUS
10
3.1417322834645667
20
-2.0354330708661417
11
3.122047244094488
21
-2.0354330708661417
0
LINE
8
BLACK
6
CONTINUOUS
10
3.122047244094488
20
-2.0354330708661417
11
3.122047244094488
21
-2.015748031496063
0
LINE
8
BLACK
6
CONTINUOUS
10
3.122047244094488
20
-2.015748031496063
11
3.1417322834645667
21
-2.015748031496063
0
LINE
8
BLACK
6
CONTINUOUS
10
3.1417322834645667
20
-2.015748031496063
11
3.1417322834645667
21
-2.0354330708661417
0
LINE
8
BLACK
6
CONTINUOUS
10
3.1771653543307088
20
-2.0354330708661417
11
3.1574803149606296
21
-2.0354330708661417
0
LINE
8
BLACK
6
CONTINUOUS
10
3.1574803149606296
20
-2.0354330708661417
11
3.1574803149606296
21
-2.015748031496063
0
LINE
8
BLACK
6
CONTINUOUS
10
3.1574803149606296
20
-2.015748031496063
11
3.1771653543307088
21
-2.015748031496063
0
LINE
8
BLACK
6
CONTINUOUS
10
3.1771653543307088
20
-2.015748031496063
11
3.1771653543307088
21
-2.0354330708661417
0
LINE
8
BLACK
6
CONTINUOUS
10
3.2847549606299213
20
-1.9983000393700787
11
3.2963474015748031
21
-2.0049929527559054
0
LINE
8
BLACK
6
CONTINUOUS
10
3.2963474015748031
20
-2.0049929527559054
11
3.2979643307086612
21
-2.0064109448818899
0
LINE
8
BLACK
6
CONTINUOUS
10
3.2979643307086612
20
-2.0064109448818899
11
3.2989155118110234
21
-2.0083397637795275
0
LINE
8
BLACK
6
CONTINUOUS
10
3.2989155118110234
20
-2.0083397637795275
11
3.2990561811023622
21
-2.0104857480314959
0
LINE
8
BLACK
6
CONTINUOUS
10
3.2990561811023622
20
-2.0104857480314959
11
3.2983648818897637
21
-2.0125222047244096
0
LINE
8
BLACK
6
CONTINUOUS
10
3.2983648818897637
20
-2.0125222047244096
11
3.2928530708661419
21
-2.0220689763779527
0
LINE
8
BLACK
6
CONTINUOUS
10
3.2928530708661419
20
-2.0220689763779527
11
3.2914350787401574
21
-2.0236858661417321
0
LINE
8
BLACK
6
CONTINUOUS
10
3.2914350787401574
20
-2.0236858661417321
11
3.2895062598425198
21
-2.0246370472440947
0
LINE
8
BLACK
6
CONTINUOUS
10
3.2895062598425198
20
-2.0246370472440947
11
3.2873602755905509
21
-2.024777716535433
0
LINE
8
BLACK
6
CONTINUOUS
10
3.2873602755905509
20
-2.024777716535433
11
3.2853237795275589
21
-2.0240864173228346
0
LINE
8
BLACK
6
CONTINUOUS
10
3.2853237795275589
20
-2.0240864173228346
11
3.2737313385826772
21
-2.0173935039370079
0
LINE
8
BLACK
6
CONTINUOUS
10
3.2737313385826772
20
-2.0173935039370079
11
3.272114409448819
21
-2.0159755118110234
0
LINE
8
BLACK
6
CONTINUOUS
10
3.272114409448819
20
-2.0159755118110234
11
3.2711632283464565
21
-2.0140466929133858
0
LINE
8
BLACK
6
CONTINUOUS
10
3.2711632283464565
20
-2.0140466929133858
11
3.2710225590551181
21
-2.0119007086614173
0
LINE
8
BLACK
6
CONTINUOUS
10
3.2710225590551181
20
-2.0119007086614173
11
3.2717138582677165
21
-2.0098642519685037
0
LINE
8
BLACK
6
CONTINUOUS
10
3.2717138582677165
20
-2.0098642519685037
11
3.2772256692913384
21
-2.0003174803149606
0
LINE
8
BLACK
6
CONTINUOUS
10
3.2772256692913384
20
-2.0003174803149606
11
3.2786436614173229
21
-1.998700590551181
0
LINE
8
BLACK
6
CONTINUOUS
10
3.2786436614173229
20
-1.998700590551181
11
3.2805724803149605
21
-1.9977494094488188
0
LINE
8
BLACK
6
CONTINUOUS
10
3.2805724803149605
20
-1.9977494094488188
11
3.282718464566929
21
-1.9976087401574802
0
LINE
8
BLACK
6
CONTINUOUS
10
3.282718464566929
20
-1.9976087401574802
11
3.2847549606299213
21
-1.9983000393700787
0
LINE
8
BLACK
6
CONTINUOUS
10
3.0993533858267717
20
-1.9807345275590551
11
3.1011415354330709
21
-1.9819293307086614
0
LINE
8
BLACK
6
CONTINUOUS
10
3.1011415354330709
20
-1.9819293307086614
11
3.1023363385826772
21
-1.9837174803149606
0
LINE
8
BLACK
6
CONTINUOUS
10
3.1023363385826772
20
-1.9837174803149606
11
3.102755905511811
21
-1.9858267716535432
0
LINE
8
BLACK
6
CONTINUOUS
10
3.102755905511811
20
-1.9858267716535432
11
3.102755905511811
21
-1.9968503937007873
0
LINE
8
BLACK
6
CONTINUOUS
10
3.102755905511811
20
-1.9968503937007873
11
3.1023363385826772
21
-1.99895968503937
0
LINE
8
BLACK
6
CONTINUOUS
10
3.1023363385826772
20
-1.99895968503937
11
3.1011415354330709
21
-2.0007478346456691
0
LINE
8
BLACK
6
CONTINUOUS
10
3.1011415354330709
20
-2.0007478346456691
11
3.0993533858267717
21
-2.0019426377952754
0
LINE
8
BLACK
6
CONTINUOUS
10
3.0993533858267717
20
-2.0019426377952754
11
3.0972440944881887
21
-2.0023622047244096
0
LINE
8
BLACK
6
CONTINUOUS
10
3.0972440944881887
20
-2.0023622047244096
11
3.0838582677165354
21
-2.0023622047244096
0
LINE
8
BLACK
6
CONTINUOUS
10
3.0838582677165354
20
-2.0023622047244096
11
3.0817489763779529
21
-2.0019426377952754
0
LINE
8
BLACK
6
CONTINUOUS
10
3.0817489763779529
20
-2.0019426377952754
11
3.0799608267716536
21
-2.0007478346456691
0
LINE
8
BLACK
6
CONTINUOUS
10
3.0799608267716536
20
-2.0007478346456691
11
3.0787660236220473
21
-1.99895968503937
0
LINE
8
BLACK
6
CONTINUOUS
10
3.0787660236220473
20
-1.99895968503937
11
3.0783464566929135
21
-1.9968503937007873
0
LINE
8
BLACK
6
CONTINUOUS
10
3.0783464566929135
20
-1.9968503937007873
11
3.0783464566929135
21
-1.9858267716535432
0
LINE
8
BLACK
6
CONTINUOUS
10
3.0783464566929135
20
-1.9858267716535432
11
3.0787660236220473
21
-1.9837174803149606
0
LINE
8
BLACK
6
CONTINUOUS
10
3.0787660236220473
20
-1.9837174803149606
11
3.0799608267716536
21
-1.9819293307086614
0
LINE
8
BLACK
6
CONTINUOUS
10
3.0799608267716536
20
-1.9819293307086614
11
3.0817489763779529
21
-1.9807345275590551
0
LINE
8
BLACK
6
CONTINUOUS
10
3.0817489763779529
20
-1.9807345275590551
11
3.0838582677165354
21
-1.9803149606299213
0
LINE
8
BLACK
6
CONTINUOUS
10
3.0838582677165354
20
-1.9803149606299213
11
3.0972440944881887
21
-1.9803149606299213
0
LINE
8
BLACK
6
CONTINUOUS
10
3.0972440944881887
20
-1.9803149606299213
11
3.0993533858267717
21
-1.9807345275590551
0
LINE
8
BLACK
6
CONTINUOUS
10
3.1417322834645667
20
-2.
11
3.122047244094488
21
-2.
0
LINE
8
BLACK
6
CONTINUOUS
10
3.122047244094488
20
-2.
11
3.122047244094488
21
-1.9803149606299213
0
LINE
8
BLACK
6
CONTINUOUS
10
3.122047244094488
20
-1.9803149606299213
11
3.1417322834645667
21
-1.9803149606299213
0
LINE
8
BLACK
6
CONTINUOUS
10
3.1417322834645667
20
-1.9803149606299213
11
3.1417322834645667
21
-2.
0
LINE
8
BLACK
6
CONTINUOUS
10
3.1771653543307088
20
-2.
11
3.1574803149606296
21
-2.
0
LINE
8
BLACK
6
CONTINUOUS
10
3.1574803149606296
20
-2.
11
3.1574803149606296
21
-1.9803149606299213
0
LINE
8
BLACK
6
CONTINUOUS
10
3.1574803149606296
20
-1.9803149606299213
11
3.1771653543307088
21
-1.9803149606299213
0
LINE
8
BLACK
6
CONTINUOUS
10
3.1771653543307088
20
-1.9803149606299213
11
3.1771653543307088
21
-2.
0
LINE
8
BLACK
6
CONTINUOUS
10
3.1577837795275592
20
-1.911227716535433
11
3.1624972440944883
21
-1.9142568897637795
0
LINE
8
BLACK
6
CONTINUOUS
10
3.1624972440944883
20
-1.9142568897637795
11
3.1661664173228345
21
-1.9184913385826772
0
LINE
8
BLACK
6
CONTINUOUS
10
3.1661664173228345
20
-1.9184913385826772
11
3.1684939370078737
21
-1.9235879527559054
0
LINE
8
BLACK
6
CONTINUOUS
10
3.1684939370078737
20
-1.9235879527559054
11
3.1692913385826773
21
-1.9291338582677164
0
LINE
8
BLACK
6
CONTINUOUS
10
3.1692913385826773
20
-1.9291338582677164
11
3.1684939370078737
21
-1.9346797637795274
0
LINE
8
BLACK
6
CONTINUOUS
10
3.1684939370078737
20
-1.9346797637795274
11
3.1661664173228345
21
-1.9397763779527559
0
LINE
8
BLACK
6
CONTINUOUS
10
3.1661664173228345
20
-1.9397763779527559
11
3.1624972440944883
21
-1.9440108267716536
0
LINE
8
BLACK
6
CONTINUOUS
10
3.1624972440944883
20
-1.9440108267716536
11
3.1577837795275592
21
-1.9470399999999999
0
LINE
8
BLACK
6
CONTINUOUS
10
3.1577837795275592
20
-1.9470399999999999
11
3.1524077559055117
21
-1.9486185433070866
0
LINE
8
BLACK
6
CONTINUOUS
10
3.1524077559055117
20
-1.9486185433070866
11
3.1468048425196851
21
-1.9486185433070866
0
LINE
8
BLACK
6
CONTINUOUS
10
3.1468048425196851
20
-1.9486185433070866
11
3.1414288188976376
21
-1.9470399999999999
0
LINE
8
BLACK
6
CONTINUOUS
10
3.1414288188976376
20
-1.9470399999999999
11
3.1367153543307085
21
-1.9440108267716536
0
LINE
8
BLACK
6
CONTINUOUS
10
3.1367153543307085
20
-1.9440108267716536
11
3.1330461811023622
21
-1.9397763779527559
0
LINE
8
BLACK
6
CONTINUOUS
10
3.1330461811023622
20
-1.9397763779527559
11
3.1307186614173226
21
-1.9346797637795274
0
LINE
8
BLACK
6
CONTINUOUS
10
3.1307186614173226
20
-1.9346797637795274
11
3.1299212598425195
21
-1.9291338582677164
0
LINE
8
BLACK
6
CONTINUOUS
10
3.1299212598425195
20
-1.9291338582677164
11
3.1307186614173226
21
-1.9235879527559054
0
LINE
8
BLACK
6
CONTINUOUS
10
3.1307186614173226
20
-1.9235879527559054
11
3.1330461811023622
21
-1.9184913385826772
0
LINE
8
BLACK
6
CONTINUOUS
10
3.1330461811023622
20
-1.9184913385826772
11
3.1367153543307085
21
-1.9142568897637795
0
LINE
8
BLACK
6
CONTINUOUS
10
3.1367153543307085
20
-1.9142568897637795
11
3.1414288188976376
21
-1.911227716535433
0
LINE
8
BLACK
6
CONTINUOUS
10
3.1414288188976376
20
-1.911227716535433
11
3.1468048425196851
21
-1.9096491732283465
0
LINE
8
BLACK
6
CONTINUOUS
10
3.1468048425196851
20
-1.9096491732283465
11
3.1524077559055117
21
-1.9096491732283465
0
LINE
8
BLACK
6
CONTINUOUS
10
3.1524077559055117
20
-1.9096491732283465
11
3.1577837795275592
21
-1.911227716535433
  0
ENDSEC
  0
EOF
