  0
SECTION
  2
HEADER
  9
$ANGBASE
  50
0.0
  9
$ANGDIR
  70
1
  9
$MEASUREMENT
  70
0
  0
ENDSEC
  0
SECTION
  2
TABLES
  0
TABLE
  2
LTYPE
  70
4
  0
LTYPE
  5
40F
  2
CONTINUOUS
  70
0
  3
Solid line
  72
65
  73
0
  40
0.0
  0
LTYPE
  5
410
  2
DASHDOT
 70
0
  3
Dash Dot ____ _ ____ _
 72
65
 73
4
 40
2.0
 49
1.25
 49
-0.25
 49
0.25
 49
-0.25
  0
LTYPE
  5
411
  2
DASHED
 70
0
  3
Dashed __ __ __ __ __
 72
65
 73
2
 40
0.75
 49
0.5
 49
-0.25
  0
LTYPE
  5
43B
  2
DOTTED
 70
0
  3
Dotted .  .  .  .
 72
65
 73
2
 40
0.2
 49
0.0
 49
-0.2
  0
ENDTAB
  0
TABLE
  2
STYLE
  70
4
  0
STYLE
  2
KICAD
  70
0
  40
0
  41
1
  42
1
  50
0
  71
0
  3
isocp.shx
  0
STYLE
  2
KICADB
  70
0
  40
0
  41
1
  42
1
  50
0
  71
0
  3
isocp.shx
  0
STYLE
  2
KICADI
  70
0
  40
0
  41
1
  42
1
  50
15
  71
0
  3
isocp.shx
  0
STYLE
  2
KICADBI
  70
0
  40
0
  41
1
  42
1
  50
15
  71
0
  3
isocp.shx
  0
ENDTAB
  0
TABLE
  2
LAYER
  70
1
  0
LAYER
  2
BLACK
  70
0
  62
7
  6
CONTINUOUS
  0
ENDTAB
  0
ENDSEC
  0
SECTION
  2
ENTITIES
0
LINE
8
BLACK
6
CONTINUOUS
10
3.17879
20
-2.12184
11
3.19804
21
-2.12497
0
LINE
8
BLACK
6
CONTINUOUS
10
3.19804
20
-2.12497
11
3.21697
21
-2.12964
0
LINE
8
BLACK
6
CONTINUOUS
10
3.21697
20
-2.12964
11
3.23547
21
-2.13581
0
LINE
8
BLACK
6
CONTINUOUS
10
3.23547
20
-2.13581
11
3.2534
21
-2.14346
0
LINE
8
BLACK
6
CONTINUOUS
10
3.2534
20
-2.14346
11
3.27067
21
-2.15252
0
LINE
8
BLACK
6
CONTINUOUS
10
3.27067
20
-2.15252
11
3.28715
21
-2.16294
0
LINE
8
BLACK
6
CONTINUOUS
10
3.28715
20
-2.16294
11
3.30274
21
-2.17465
0
LINE
8
BLACK
6
CONTINUOUS
10
3.30274
20
-2.17465
11
3.31733
21
-2.18758
0
LINE
8
BLACK
6
CONTINUOUS
10
3.31733
20
-2.18758
11
3.33084
21
-2.20165
0
LINE
8
BLACK
6
CONTINUOUS
10
3.33084
20
-2.20165
11
3.34317
21
-2.21675
0
LINE
8
BLACK
6
CONTINUOUS
10
3.34317
20
-2.21675
11
3.35425
21
-2.2328
0
LINE
8
BLACK
6
CONTINUOUS
10
3.35425
20
-2.2328
11
3.364
21
-2.24968
0
LINE
8
BLACK
6
CONTINUOUS
10
3.364
20
-2.24968
11
3.37236
21
-2.2673
0
LINE
8
BLACK
6
CONTINUOUS
10
3.37236
20
-2.2673
11
3.37927
21
-2.28553
0
LINE
8
BLACK
6
CONTINUOUS
10
3.37927
20
-2.28553
11
3.3847
21
-2.30426
0
LINE
8
BLACK
6
CONTINUOUS
10
3.3847
20
-2.30426
11
3.3886
21
-2.32336
0
LINE
8
BLACK
6
CONTINUOUS
10
3.3886
20
-2.32336
11
3.39095
21
-2.34272
0
LINE
8
BLACK
6
CONTINUOUS
10
3.39095
20
-2.34272
11
3.39173
21
-2.3622
0
LINE
8
BLACK
6
CONTINUOUS
10
3.39173
20
-2.3622
11
3.39095
21
-2.38169
0
LINE
8
BLACK
6
CONTINUOUS
10
3.39095
20
-2.38169
11
3.3886
21
-2.40104
0
LINE
8
BLACK
6
CONTINUOUS
10
3.3886
20
-2.40104
11
3.3847
21
-2.42015
0
LINE
8
BLACK
6
CONTINUOUS
10
3.3847
20
-2.42015
11
3.37927
21
-2.43888
0
LINE
8
BLACK
6
CONTINUOUS
10
3.37927
20
-2.43888
11
3.37236
21
-2.45711
0
LINE
8
BLACK
6
CONTINUOUS
10
3.37236
20
-2.45711
11
3.364
21
-2.47473
0
LINE
8
BLACK
6
CONTINUOUS
10
3.364
20
-2.47473
11
3.35425
21
-2.49161
0
LINE
8
BLACK
6
CONTINUOUS
10
3.35425
20
-2.49161
11
3.34317
21
-2.50766
0
LINE
8
BLACK
6
CONTINUOUS
10
3.34317
20
-2.50766
11
3.33084
21
-2.52276
0
LINE
8
BLACK
6
CONTINUOUS
10
3.33084
20
-2.52276
11
3.31733
21
-2.53683
0
LINE
8
BLACK
6
CONTINUOUS
10
3.31733
20
-2.53683
11
3.30274
21
-2.54976
0
LINE
8
BLACK
6
CONTINUOUS
10
3.30274
20
-2.54976
11
3.28715
21
-2.56147
0
LINE
8
BLACK
6
CONTINUOUS
10
3.28715
20
-2.56147
11
3.27067
21
-2.57189
0
LINE
8
BLACK
6
CONTINUOUS
10
3.27067
20
-2.57189
11
3.2534
21
-2.58095
0
LINE
8
BLACK
6
CONTINUOUS
10
3.2534
20
-2.58095
11
3.23547
21
-2.5886
0
LINE
8
BLACK
6
CONTINUOUS
10
3.23547
20
-2.5886
11
3.21697
21
-2.59477
0
LINE
8
BLACK
6
CONTINUOUS
10
3.21697
20
-2.59477
11
3.19804
21
-2.59944
0
LINE
8
BLACK
6
CONTINUOUS
10
3.19804
20
-2.59944
11
3.17879
21
-2.60257
0
LINE
8
BLACK
6
CONTINUOUS
10
3.17879
20
-2.60257
11
3.15936
21
-2.60413
0
LINE
8
BLACK
6
CONTINUOUS
10
3.15936
20
-2.60413
11
3.13986
21
-2.60413
0
LINE
8
BLACK
6
CONTINUOUS
10
3.13986
20
-2.60413
11
3.12042
21
-2.60257
0
LINE
8
BLACK
6
CONTINUOUS
10
3.12042
20
-2.60257
11
3.10117
21
-2.59944
0
LINE
8
BLACK
6
CONTINUOUS
10
3.10117
20
-2.59944
11
3.08224
21
-2.59477
0
LINE
8
BLACK
6
CONTINUOUS
10
3.08224
20
-2.59477
11
3.06375
21
-2.5886
0
LINE
8
BLACK
6
CONTINUOUS
10
3.06375
20
-2.5886
11
3.04581
21
-2.58095
0
LINE
8
BLACK
6
CONTINUOUS
10
3.04581
20
-2.58095
11
3.02854
21
-2.57189
0
LINE
8
BLACK
6
CONTINUOUS
10
3.02854
20
-2.57189
11
3.01206
21
-2.56147
0
LINE
8
BLACK
6
CONTINUOUS
10
3.01206
20
-2.56147
11
2.99647
21
-2.54976
0
LINE
8
BLACK
6
CONTINUOUS
10
2.99647
20
-2.54976
11
2.98188
21
-2.53683
0
LINE
8
BLACK
6
CONTINUOUS
10
2.98188
20
-2.53683
11
2.96837
21
-2.52276
0
LINE
8
BLACK
6
CONTINUOUS
10
2.96837
20
-2.52276
11
2.95604
21
-2.50766
0
LINE
8
BLACK
6
CONTINUOUS
10
2.95604
20
-2.50766
11
2.94496
21
-2.49161
0
LINE
8
BLACK
6
CONTINUOUS
10
2.94496
20
-2.49161
11
2.93521
21
-2.47473
0
LINE
8
BLACK
6
CONTINUOUS
10
2.93521
20
-2.47473
11
2.92686
21
-2.45711
0
LINE
8
BLACK
6
CONTINUOUS
10
2.92686
20
-2.45711
11
2.91994
21
-2.43888
0
LINE
8
BLACK
6
CONTINUOUS
10
2.91994
20
-2.43888
11
2.91452
21
-2.42015
0
LINE
8
BLACK
6
CONTINUOUS
10
2.91452
20
-2.42015
11
2.91062
21
-2.40104
0
LINE
8
BLACK
6
CONTINUOUS
10
2.91062
20
-2.40104
11
2.90827
21
-2.38169
0
LINE
8
BLACK
6
CONTINUOUS
10
2.90827
20
-2.38169
11
2.90748
21
-2.3622
0
LINE
8
BLACK
6
CONTINUOUS
10
2.90748
20
-2.3622
11
2.90827
21
-2.34272
0
LINE
8
BLACK
6
CONTINUOUS
10
2.90827
20
-2.34272
11
2.91062
21
-2.32336
0
LINE
8
BLACK
6
CONTINUOUS
10
2.91062
20
-2.32336
11
2.91452
21
-2.30426
0
LINE
8
BLACK
6
CONTINUOUS
10
2.91452
20
-2.30426
11
2.91994
21
-2.28553
0
LINE
8
BLACK
6
CONTINUOUS
10
2.91994
20
-2.28553
11
2.92686
21
-2.2673
0
LINE
8
BLACK
6
CONTINUOUS
10
2.92686
20
-2.2673
11
2.93521
21
-2.24968
0
LINE
8
BLACK
6
CONTINUOUS
10
2.93521
20
-2.24968
11
2.94496
21
-2.2328
0
LINE
8
BLACK
6
CONTINUOUS
10
2.94496
20
-2.2328
11
2.95604
21
-2.21675
0
LINE
8
BLACK
6
CONTINUOUS
10
2.95604
20
-2.21675
11
2.96837
21
-2.20165
0
LINE
8
BLACK
6
CONTINUOUS
10
2.96837
20
-2.20165
11
2.98188
21
-2.18758
0
LINE
8
BLACK
6
CONTINUOUS
10
2.98188
20
-2.18758
11
2.99647
21
-2.17465
0
LINE
8
BLACK
6
CONTINUOUS
10
2.99647
20
-2.17465
11
3.01206
21
-2.16294
0
LINE
8
BLACK
6
CONTINUOUS
10
3.01206
20
-2.16294
11
3.02854
21
-2.15252
0
LINE
8
BLACK
6
CONTINUOUS
10
3.02854
20
-2.15252
11
3.04581
21
-2.14346
0
LINE
8
BLACK
6
CONTINUOUS
10
3.04581
20
-2.14346
11
3.06375
21
-2.13581
0
LINE
8
BLACK
6
CONTINUOUS
10
3.06375
20
-2.13581
11
3.08224
21
-2.12964
0
LINE
8
BLACK
6
CONTINUOUS
10
3.08224
20
-2.12964
11
3.10117
21
-2.12497
0
LINE
8
BLACK
6
CONTINUOUS
10
3.10117
20
-2.12497
11
3.12042
21
-2.12184
0
LINE
8
BLACK
6
CONTINUOUS
10
3.12042
20
-2.12184
11
3.13986
21
-2.12028
0
LINE
8
BLACK
6
CONTINUOUS
10
3.13986
20
-2.12028
11
3.15936
21
-2.12028
0
LINE
8
BLACK
6
CONTINUOUS
10
3.15936
20
-2.12028
11
3.17879
21
-2.12184
0
LINE
8
BLACK
6
CONTINUOUS
10
2.912
20
-2.38139
11
2.91431
21
-2.40044
0
LINE
8
BLACK
6
CONTINUOUS
10
2.91431
20
-2.40044
11
2.91815
21
-2.41925
0
LINE
8
BLACK
6
CONTINUOUS
10
2.91815
20
-2.41925
11
2.92349
21
-2.43769
0
LINE
8
BLACK
6
CONTINUOUS
10
2.92349
20
-2.43769
11
2.9303
21
-2.45564
0
LINE
8
BLACK
6
CONTINUOUS
10
2.9303
20
-2.45564
11
2.93853
21
-2.47299
0
LINE
8
BLACK
6
CONTINUOUS
10
2.93853
20
-2.47299
11
2.94813
21
-2.48961
0
LINE
8
BLACK
6
CONTINUOUS
10
2.94813
20
-2.48961
11
2.95903
21
-2.50541
0
LINE
8
BLACK
6
CONTINUOUS
10
2.95903
20
-2.50541
11
2.97117
21
-2.52028
0
LINE
8
BLACK
6
CONTINUOUS
10
2.97117
20
-2.52028
11
2.98447
21
-2.53413
0
LINE
8
BLACK
6
CONTINUOUS
10
2.98447
20
-2.53413
11
2.99884
21
-2.54686
0
LINE
8
BLACK
6
CONTINUOUS
10
2.99884
20
-2.54686
11
3.01419
21
-2.55839
0
LINE
8
BLACK
6
CONTINUOUS
10
3.01419
20
-2.55839
11
3.03042
21
-2.56865
0
LINE
8
BLACK
6
CONTINUOUS
10
3.03042
20
-2.56865
11
3.04741
21
-2.57757
0
LINE
8
BLACK
6
CONTINUOUS
10
3.04741
20
-2.57757
11
3.06507
21
-2.5851
0
LINE
8
BLACK
6
CONTINUOUS
10
3.06507
20
-2.5851
11
3.08328
21
-2.59118
0
LINE
8
BLACK
6
CONTINUOUS
10
3.08328
20
-2.59118
11
3.10192
21
-2.59577
0
LINE
8
BLACK
6
CONTINUOUS
10
3.10192
20
-2.59577
11
3.12087
21
-2.59885
0
LINE
8
BLACK
6
CONTINUOUS
10
3.12087
20
-2.59885
11
3.14001
21
-2.60039
0
LINE
8
BLACK
6
CONTINUOUS
10
3.14001
20
-2.60039
11
3.15921
21
-2.60039
0
LINE
8
BLACK
6
CONTINUOUS
10
3.15921
20
-2.60039
11
3.17834
21
-2.59885
0
LINE
8
BLACK
6
CONTINUOUS
10
3.17834
20
-2.59885
11
3.19729
21
-2.59577
0
LINE
8
BLACK
6
CONTINUOUS
10
3.19729
20
-2.59577
11
3.21593
21
-2.59118
0
LINE
8
BLACK
6
CONTINUOUS
10
3.21593
20
-2.59118
11
3.23414
21
-2.5851
0
LINE
8
BLACK
6
CONTINUOUS
10
3.23414
20
-2.5851
11
3.2518
21
-2.57757
0
LINE
8
BLACK
6
CONTINUOUS
10
3.2518
20
-2.57757
11
3.2688
21
-2.56865
0
LINE
8
BLACK
6
CONTINUOUS
10
3.2688
20
-2.56865
11
3.28502
21
-2.55839
0
LINE
8
BLACK
6
CONTINUOUS
10
3.28502
20
-2.55839
11
3.30037
21
-2.54686
0
LINE
8
BLACK
6
CONTINUOUS
10
3.30037
20
-2.54686
11
3.31474
21
-2.53413
0
LINE
8
BLACK
6
CONTINUOUS
10
3.31474
20
-2.53413
11
3.32804
21
-2.52028
0
LINE
8
BLACK
6
CONTINUOUS
10
3.32804
20
-2.52028
11
3.34018
21
-2.50541
0
LINE
8
BLACK
6
CONTINUOUS
10
3.34018
20
-2.50541
11
3.35108
21
-2.48961
0
LINE
8
BLACK
6
CONTINUOUS
10
3.35108
20
-2.48961
11
3.36068
21
-2.47299
0
LINE
8
BLACK
6
CONTINUOUS
10
3.36068
20
-2.47299
11
3.36891
21
-2.45564
0
LINE
8
BLACK
6
CONTINUOUS
10
3.36891
20
-2.45564
11
3.37572
21
-2.43769
0
LINE
8
BLACK
6
CONTINUOUS
10
3.37572
20
-2.43769
11
3.38106
21
-2.41925
0
LINE
8
BLACK
6
CONTINUOUS
10
3.38106
20
-2.41925
11
3.3849
21
-2.40044
0
LINE
8
BLACK
6
CONTINUOUS
10
3.3849
20
-2.40044
11
3.38722
21
-2.38139
0
LINE
8
BLACK
6
CONTINUOUS
10
3.38722
20
-2.38139
11
3.38799
21
-2.3622
0
LINE
8
BLACK
6
CONTINUOUS
10
3.38799
20
-2.3622
11
3.38722
21
-2.34302
0
LINE
8
BLACK
6
CONTINUOUS
10
3.38722
20
-2.34302
11
3.3849
21
-2.32397
0
LINE
8
BLACK
6
CONTINUOUS
10
3.3849
20
-2.32397
11
3.38106
21
-2.30516
0
LINE
8
BLACK
6
CONTINUOUS
10
3.38106
20
-2.30516
11
3.37572
21
-2.28672
0
LINE
8
BLACK
6
CONTINUOUS
10
3.37572
20
-2.28672
11
3.36891
21
-2.26877
0
LINE
8
BLACK
6
CONTINUOUS
10
3.36891
20
-2.26877
11
3.36068
21
-2.25142
0
LINE
8
BLACK
6
CONTINUOUS
10
3.36068
20
-2.25142
11
3.35108
21
-2.2348
0
LINE
8
BLACK
6
CONTINUOUS
10
3.35108
20
-2.2348
11
3.34018
21
-2.219
0
LINE
8
BLACK
6
CONTINUOUS
10
3.34018
20
-2.219
11
3.32804
21
-2.20413
0
LINE
8
BLACK
6
CONTINUOUS
10
3.32804
20
-2.20413
11
3.31474
21
-2.19028
0
LINE
8
BLACK
6
CONTINUOUS
10
3.31474
20
-2.19028
11
3.30037
21
-2.17755
0
LINE
8
BLACK
6
CONTINUOUS
10
3.30037
20
-2.17755
11
3.28502
21
-2.16602
0
LINE
8
BLACK
6
CONTINUOUS
10
3.28502
20
-2.16602
11
3.2688
21
-2.15576
0
LINE
8
BLACK
6
CONTINUOUS
10
3.2688
20
-2.15576
11
3.2518
21
-2.14684
0
LINE
8
BLACK
6
CONTINUOUS
10
3.2518
20
-2.14684
11
3.23414
21
-2.13931
0
LINE
8
BLACK
6
CONTINUOUS
10
3.23414
20
-2.13931
11
3.21593
21
-2.13323
0
LINE
8
BLACK
6
CONTINUOUS
10
3.21593
20
-2.13323
11
3.19729
21
-2.12864
0
LINE
8
BLACK
6
CONTINUOUS
10
3.19729
20
-2.12864
11
3.17834
21
-2.12556
0
LINE
8
BLACK
6
CONTINUOUS
10
3.17834
20
-2.12556
11
3.15921
21
-2.12402
0
LINE
8
BLACK
6
CONTINUOUS
10
3.15921
20
-2.12402
11
3.14001
21
-2.12402
0
LINE
8
BLACK
6
CONTINUOUS
10
3.14001
20
-2.12402
11
3.12087
21
-2.12556
0
LINE
8
BLACK
6
CONTINUOUS
10
3.12087
20
-2.12556
11
3.10192
21
-2.12864
0
LINE
8
BLACK
6
CONTINUOUS
10
3.10192
20
-2.12864
11
3.08328
21
-2.13323
0
LINE
8
BLACK
6
CONTINUOUS
10
3.08328
20
-2.13323
11
3.06507
21
-2.13931
0
LINE
8
BLACK
6
CONTINUOUS
10
3.06507
20
-2.13931
11
3.04741
21
-2.14684
0
LINE
8
BLACK
6
CONTINUOUS
10
3.04741
20
-2.14684
11
3.03042
21
-2.15576
0
LINE
8
BLACK
6
CONTINUOUS
10
3.03042
20
-2.15576
11
3.01419
21
-2.16602
0
LINE
8
BLACK
6
CONTINUOUS
10
3.01419
20
-2.16602
11
2.99884
21
-2.17755
0
LINE
8
BLACK
6
CONTINUOUS
10
2.99884
20
-2.17755
11
2.98447
21
-2.19028
0
LINE
8
BLACK
6
CONTINUOUS
10
2.98447
20
-2.19028
11
2.97117
21
-2.20413
0
LINE
8
BLACK
6
CONTINUOUS
10
2.97117
20
-2.20413
11
2.95903
21
-2.219
0
LINE
8
BLACK
6
CONTINUOUS
10
2.95903
20
-2.219
11
2.94813
21
-2.2348
0
LINE
8
BLACK
6
CONTINUOUS
10
2.94813
20
-2.2348
11
2.93853
21
-2.25142
0
LINE
8
BLACK
6
CONTINUOUS
10
2.93853
20
-2.25142
11
2.9303
21
-2.26877
0
LINE
8
BLACK
6
CONTINUOUS
10
2.9303
20
-2.26877
11
2.92349
21
-2.28672
0
LINE
8
BLACK
6
CONTINUOUS
10
2.92349
20
-2.28672
11
2.91815
21
-2.30516
0
LINE
8
BLACK
6
CONTINUOUS
10
2.91815
20
-2.30516
11
2.91431
21
-2.32397
0
LINE
8
BLACK
6
CONTINUOUS
10
2.91431
20
-2.32397
11
2.912
21
-2.34302
0
LINE
8
BLACK
6
CONTINUOUS
10
2.912
20
-2.34302
11
2.91122
21
-2.3622
0
LINE
8
BLACK
6
CONTINUOUS
10
2.91122
20
-2.3622
11
2.912
21
-2.38139
0
LINE
8
BLACK
6
CONTINUOUS
10
3.17547
20
-1.8885
11
3.20126
21
-1.89062
0
LINE
8
BLACK
6
CONTINUOUS
10
3.20126
20
-1.89062
11
3.2269
21
-1.89413
0
LINE
8
BLACK
6
CONTINUOUS
10
3.2269
20
-1.89413
11
3.25231
21
-1.89905
0
LINE
8
BLACK
6
CONTINUOUS
10
3.25231
20
-1.89905
11
3.27741
21
-1.90533
0
LINE
8
BLACK
6
CONTINUOUS
10
3.27741
20
-1.90533
11
3.30213
21
-1.91298
0
LINE
8
BLACK
6
CONTINUOUS
10
3.30213
20
-1.91298
11
3.3264
21
-1.92197
0
LINE
8
BLACK
6
CONTINUOUS
10
3.3264
20
-1.92197
11
3.35014
21
-1.93226
0
LINE
8
BLACK
6
CONTINUOUS
10
3.35014
20
-1.93226
11
3.37328
21
-1.94383
0
LINE
8
BLACK
6
CONTINUOUS
10
3.37328
20
-1.94383
11
3.39576
21
-1.95665
0
LINE
8
BLACK
6
CONTINUOUS
10
3.39576
20
-1.95665
11
3.41751
21
-1.97068
0
LINE
8
BLACK
6
CONTINUOUS
10
3.41751
20
-1.97068
11
3.43846
21
-1.98587
0
LINE
8
BLACK
6
CONTINUOUS
10
3.43846
20
-1.98587
11
3.45855
21
-2.00218
0
LINE
8
BLACK
6
CONTINUOUS
10
3.45855
20
-2.00218
11
3.47772
21
-2.01956
0
LINE
8
BLACK
6
CONTINUOUS
10
3.47772
20
-2.01956
11
3.49591
21
-2.03796
0
LINE
8
BLACK
6
CONTINUOUS
10
3.49591
20
-2.03796
11
3.51308
21
-2.05732
0
LINE
8
BLACK
6
CONTINUOUS
10
3.51308
20
-2.05732
11
3.52916
21
-2.07759
0
LINE
8
BLACK
6
CONTINUOUS
10
3.52916
20
-2.07759
11
3.54411
21
-2.09871
0
LINE
8
BLACK
6
CONTINUOUS
10
3.54411
20
-2.09871
11
3.55764
21
-2.12021
0
LINE
8
BLACK
6
CONTINUOUS
10
3.55764
20
-2.12021
11
3.62314
21
-2.16371
0
LINE
8
BLACK
6
CONTINUOUS
10
3.62314
20
-2.16371
11
3.62325
21
-2.16388
0
LINE
8
BLACK
6
CONTINUOUS
10
3.62325
20
-2.16388
11
3.62344
21
-2.16396
0
LINE
8
BLACK
6
CONTINUOUS
10
3.62344
20
-2.16396
11
3.62366
21
-2.16449
0
LINE
8
BLACK
6
CONTINUOUS
10
3.62366
20
-2.16449
11
3.62398
21
-2.16497
0
LINE
8
BLACK
6
CONTINUOUS
10
3.62398
20
-2.16497
11
3.62394
21
-2.16517
0
LINE
8
BLACK
6
CONTINUOUS
10
3.62394
20
-2.16517
11
3.62402
21
-2.16535
0
LINE
8
BLACK
6
CONTINUOUS
10
3.62402
20
-2.16535
11
3.62402
21
-2.55906
0
LINE
8
BLACK
6
CONTINUOUS
10
3.62402
20
-2.55906
11
3.62397
21
-2.55917
0
LINE
8
BLACK
6
CONTINUOUS
10
3.62397
20
-2.55917
11
3.624
21
-2.55928
0
LINE
8
BLACK
6
CONTINUOUS
10
3.624
20
-2.55928
11
3.62369
21
-2.55985
0
LINE
8
BLACK
6
CONTINUOUS
10
3.62369
20
-2.55985
11
3.62344
21
-2.56045
0
LINE
8
BLACK
6
CONTINUOUS
10
3.62344
20
-2.56045
11
3.62333
21
-2.56049
0
LINE
8
BLACK
6
CONTINUOUS
10
3.62333
20
-2.56049
11
3.62327
21
-2.5606
0
LINE
8
BLACK
6
CONTINUOUS
10
3.62327
20
-2.5606
11
3.54723
21
-2.62096
0
LINE
8
BLACK
6
CONTINUOUS
10
3.54723
20
-2.62096
11
3.53254
21
-2.64225
0
LINE
8
BLACK
6
CONTINUOUS
10
3.53254
20
-2.64225
11
3.51649
21
-2.66297
0
LINE
8
BLACK
6
CONTINUOUS
10
3.51649
20
-2.66297
11
3.49932
21
-2.68277
0
LINE
8
BLACK
6
CONTINUOUS
10
3.49932
20
-2.68277
11
3.48108
21
-2.7016
0
LINE
8
BLACK
6
CONTINUOUS
10
3.48108
20
-2.7016
11
3.46183
21
-2.71939
0
LINE
8
BLACK
6
CONTINUOUS
10
3.46183
20
-2.71939
11
3.44163
21
-2.73609
0
LINE
8
BLACK
6
CONTINUOUS
10
3.44163
20
-2.73609
11
3.42053
21
-2.75164
0
LINE
8
BLACK
6
CONTINUOUS
10
3.42053
20
-2.75164
11
3.39861
21
-2.76601
0
LINE
8
BLACK
6
CONTINUOUS
10
3.39861
20
-2.76601
11
3.37593
21
-2.77915
0
LINE
8
BLACK
6
CONTINUOUS
10
3.37593
20
-2.77915
11
3.35256
21
-2.79101
0
LINE
8
BLACK
6
CONTINUOUS
10
3.35256
20
-2.79101
11
3.32857
21
-2.80157
0
LINE
8
BLACK
6
CONTINUOUS
10
3.32857
20
-2.80157
11
3.30403
21
-2.81078
0
LINE
8
BLACK
6
CONTINUOUS
10
3.30403
20
-2.81078
11
3.27902
21
-2.81862
0
LINE
8
BLACK
6
CONTINUOUS
10
3.27902
20
-2.81862
11
3.25361
21
-2.82507
0
LINE
8
BLACK
6
CONTINUOUS
10
3.25361
20
-2.82507
11
3.22789
21
-2.83011
0
LINE
8
BLACK
6
CONTINUOUS
10
3.22789
20
-2.83011
11
3.20193
21
-2.83372
0
LINE
8
BLACK
6
CONTINUOUS
10
3.20193
20
-2.83372
11
3.17581
21
-2.83589
0
LINE
8
BLACK
6
CONTINUOUS
10
3.17581
20
-2.83589
11
3.14961
21
-2.83661
0
LINE
8
BLACK
6
CONTINUOUS
10
3.14961
20
-2.83661
11
3.12301
21
-2.83587
0
LINE
8
BLACK
6
CONTINUOUS
10
3.12301
20
-2.83587
11
3.09649
21
-2.83363
0
LINE
8
BLACK
6
CONTINUOUS
10
3.09649
20
-2.83363
11
3.07014
21
-2.82991
0
LINE
8
BLACK
6
CONTINUOUS
10
3.07014
20
-2.82991
11
3.04404
21
-2.82472
0
LINE
8
BLACK
6
CONTINUOUS
10
3.04404
20
-2.82472
11
3.01827
21
-2.81807
0
LINE
8
BLACK
6
CONTINUOUS
10
3.01827
20
-2.81807
11
2.99292
21
-2.80999
0
LINE
8
BLACK
6
CONTINUOUS
10
2.99292
20
-2.80999
11
2.96806
21
-2.8005
0
LINE
8
BLACK
6
CONTINUOUS
10
2.96806
20
-2.8005
11
2.94377
21
-2.78963
0
LINE
8
BLACK
6
CONTINUOUS
10
2.94377
20
-2.78963
11
2.92013
21
-2.77742
0
LINE
8
BLACK
6
CONTINUOUS
10
2.92013
20
-2.77742
11
2.89721
21
-2.7639
0
LINE
8
BLACK
6
CONTINUOUS
10
2.89721
20
-2.7639
11
2.87508
21
-2.74911
0
LINE
8
BLACK
6
CONTINUOUS
10
2.87508
20
-2.74911
11
2.85382
21
-2.73311
0
LINE
8
BLACK
6
CONTINUOUS
10
2.85382
20
-2.73311
11
2.83349
21
-2.71594
0
LINE
8
BLACK
6
CONTINUOUS
10
2.83349
20
-2.71594
11
2.81415
21
-2.69766
0
LINE
8
BLACK
6
CONTINUOUS
10
2.81415
20
-2.69766
11
2.79587
21
-2.67833
0
LINE
8
BLACK
6
CONTINUOUS
10
2.79587
20
-2.67833
11
2.7787
21
-2.65799
0
LINE
8
BLACK
6
CONTINUOUS
10
2.7787
20
-2.65799
11
2.7627
21
-2.63673
0
LINE
8
BLACK
6
CONTINUOUS
10
2.7627
20
-2.63673
11
2.74791
21
-2.61461
0
LINE
8
BLACK
6
CONTINUOUS
10
2.74791
20
-2.61461
11
2.73439
21
-2.59169
0
LINE
8
BLACK
6
CONTINUOUS
10
2.73439
20
-2.59169
11
2.72218
21
-2.56804
0
LINE
8
BLACK
6
CONTINUOUS
10
2.72218
20
-2.56804
11
2.71131
21
-2.54375
0
LINE
8
BLACK
6
CONTINUOUS
10
2.71131
20
-2.54375
11
2.70182
21
-2.51889
0
LINE
8
BLACK
6
CONTINUOUS
10
2.70182
20
-2.51889
11
2.69374
21
-2.49354
0
LINE
8
BLACK
6
CONTINUOUS
10
2.69374
20
-2.49354
11
2.68709
21
-2.46777
0
LINE
8
BLACK
6
CONTINUOUS
10
2.68709
20
-2.46777
11
2.6819
21
-2.44167
0
LINE
8
BLACK
6
CONTINUOUS
10
2.6819
20
-2.44167
11
2.67818
21
-2.41532
0
LINE
8
BLACK
6
CONTINUOUS
10
2.67818
20
-2.41532
11
2.67594
21
-2.38881
0
LINE
8
BLACK
6
CONTINUOUS
10
2.67594
20
-2.38881
11
2.6752
21
-2.3622
0
LINE
8
BLACK
6
CONTINUOUS
10
2.6752
20
-2.3622
11
2.67594
21
-2.3356
0
LINE
8
BLACK
6
CONTINUOUS
10
2.67594
20
-2.3356
11
2.67818
21
-2.30909
0
LINE
8
BLACK
6
CONTINUOUS
10
2.67818
20
-2.30909
11
2.6819
21
-2.28274
0
LINE
8
BLACK
6
CONTINUOUS
10
2.6819
20
-2.28274
11
2.68709
21
-2.25664
0
LINE
8
BLACK
6
CONTINUOUS
10
2.68709
20
-2.25664
11
2.69374
21
-2.23087
0
LINE
8
BLACK
6
CONTINUOUS
10
2.69374
20
-2.23087
11
2.70182
21
-2.20552
0
LINE
8
BLACK
6
CONTINUOUS
10
2.70182
20
-2.20552
11
2.71131
21
-2.18066
0
LINE
8
BLACK
6
CONTINUOUS
10
2.71131
20
-2.18066
11
2.72218
21
-2.15637
0
LINE
8
BLACK
6
CONTINUOUS
10
2.72218
20
-2.15637
11
2.73439
21
-2.13272
0
LINE
8
BLACK
6
CONTINUOUS
10
2.73439
20
-2.13272
11
2.74791
21
-2.1098
0
LINE
8
BLACK
6
CONTINUOUS
10
2.74791
20
-2.1098
11
2.7627
21
-2.08768
0
LINE
8
BLACK
6
CONTINUOUS
10
2.7627
20
-2.08768
11
2.7787
21
-2.06642
0
LINE
8
BLACK
6
CONTINUOUS
10
2.7787
20
-2.06642
11
2.79587
21
-2.04608
0
LINE
8
BLACK
6
CONTINUOUS
10
2.79587
20
-2.04608
11
2.81415
21
-2.02675
0
LINE
8
BLACK
6
CONTINUOUS
10
2.81415
20
-2.02675
11
2.83349
21
-2.00847
0
LINE
8
BLACK
6
CONTINUOUS
10
2.83349
20
-2.00847
11
2.85382
21
-1.9913
0
LINE
8
BLACK
6
CONTINUOUS
10
2.85382
20
-1.9913
11
2.87508
21
-1.97529
0
LINE
8
BLACK
6
CONTINUOUS
10
2.87508
20
-1.97529
11
2.89721
21
-1.96051
0
LINE
8
BLACK
6
CONTINUOUS
10
2.89721
20
-1.96051
11
2.92013
21
-1.94699
0
LINE
8
BLACK
6
CONTINUOUS
10
2.92013
20
-1.94699
11
2.94377
21
-1.93478
0
LINE
8
BLACK
6
CONTINUOUS
10
2.94377
20
-1.93478
11
2.96806
21
-1.92391
0
LINE
8
BLACK
6
CONTINUOUS
10
2.96806
20
-1.92391
11
2.99292
21
-1.91442
0
LINE
8
BLACK
6
CONTINUOUS
10
2.99292
20
-1.91442
11
3.01827
21
-1.90634
0
LINE
8
BLACK
6
CONTINUOUS
10
3.01827
20
-1.90634
11
3.04404
21
-1.89969
0
LINE
8
BLACK
6
CONTINUOUS
10
3.04404
20
-1.89969
11
3.07014
21
-1.8945
0
LINE
8
BLACK
6
CONTINUOUS
10
3.07014
20
-1.8945
11
3.09649
21
-1.89078
0
LINE
8
BLACK
6
CONTINUOUS
10
3.09649
20
-1.89078
11
3.12301
21
-1.88854
0
LINE
8
BLACK
6
CONTINUOUS
10
3.12301
20
-1.88854
11
3.14961
21
-1.8878
0
LINE
8
BLACK
6
CONTINUOUS
10
3.14961
20
-1.8878
11
3.17547
21
-1.8885
0
LINE
8
BLACK
6
CONTINUOUS
10
3.14961
20
-1.89173
11
3.13617
21
-1.89173
0
LINE
8
BLACK
6
CONTINUOUS
10
3.13617
20
-1.89173
11
3.10933
21
-1.89327
0
LINE
8
BLACK
6
CONTINUOUS
10
3.10933
20
-1.89327
11
3.08262
21
-1.89633
0
LINE
8
BLACK
6
CONTINUOUS
10
3.08262
20
-1.89633
11
3.05614
21
-1.90091
0
LINE
8
BLACK
6
CONTINUOUS
10
3.05614
20
-1.90091
11
3.02995
21
-1.907
0
LINE
8
BLACK
6
CONTINUOUS
10
3.02995
20
-1.907
11
3.00416
21
-1.91458
0
LINE
8
BLACK
6
CONTINUOUS
10
3.00416
20
-1.91458
11
2.97885
21
-1.92361
0
LINE
8
BLACK
6
CONTINUOUS
10
2.97885
20
-1.92361
11
2.95409
21
-1.93407
0
LINE
8
BLACK
6
CONTINUOUS
10
2.95409
20
-1.93407
11
2.92996
21
-1.94593
0
LINE
8
BLACK
6
CONTINUOUS
10
2.92996
20
-1.94593
11
2.90656
21
-1.95915
0
LINE
8
BLACK
6
CONTINUOUS
10
2.90656
20
-1.95915
11
2.88394
21
-1.97368
0
LINE
8
BLACK
6
CONTINUOUS
10
2.88394
20
-1.97368
11
2.8622
21
-1.98948
0
LINE
8
BLACK
6
CONTINUOUS
10
2.8622
20
-1.98948
11
2.84139
21
-2.0065
0
LINE
8
BLACK
6
CONTINUOUS
10
2.84139
20
-2.0065
11
2.82158
21
-2.02468
0
LINE
8
BLACK
6
CONTINUOUS
10
2.82158
20
-2.02468
11
2.80285
21
-2.04395
0
LINE
8
BLACK
6
CONTINUOUS
10
2.80285
20
-2.04395
11
2.78525
21
-2.06427
0
LINE
8
BLACK
6
CONTINUOUS
10
2.78525
20
-2.06427
11
2.76883
21
-2.08556
0
LINE
8
BLACK
6
CONTINUOUS
10
2.76883
20
-2.08556
11
2.75366
21
-2.10774
0
LINE
8
BLACK
6
CONTINUOUS
10
2.75366
20
-2.10774
11
2.73978
21
-2.13076
0
LINE
8
BLACK
6
CONTINUOUS
10
2.73978
20
-2.13076
11
2.72723
21
-2.15454
0
LINE
8
BLACK
6
CONTINUOUS
10
2.72723
20
-2.15454
11
2.71607
21
-2.17899
0
LINE
8
BLACK
6
CONTINUOUS
10
2.71607
20
-2.17899
11
2.70631
21
-2.20404
0
LINE
8
BLACK
6
CONTINUOUS
10
2.70631
20
-2.20404
11
2.69801
21
-2.2296
0
LINE
8
BLACK
6
CONTINUOUS
10
2.69801
20
-2.2296
11
2.69117
21
-2.2556
0
LINE
8
BLACK
6
CONTINUOUS
10
2.69117
20
-2.2556
11
2.68584
21
-2.28195
0
LINE
8
BLACK
6
CONTINUOUS
10
2.68584
20
-2.28195
11
2.68201
21
-2.30855
0
LINE
8
BLACK
6
CONTINUOUS
10
2.68201
20
-2.30855
11
2.67971
21
-2.33534
0
LINE
8
BLACK
6
CONTINUOUS
10
2.67971
20
-2.33534
11
2.67894
21
-2.3622
0
LINE
8
BLACK
6
CONTINUOUS
10
2.67894
20
-2.3622
11
2.67971
21
-2.38907
0
LINE
8
BLACK
6
CONTINUOUS
10
2.67971
20
-2.38907
11
2.68201
21
-2.41586
0
LINE
8
BLACK
6
CONTINUOUS
10
2.68201
20
-2.41586
11
2.68584
21
-2.44246
0
LINE
8
BLACK
6
CONTINUOUS
10
2.68584
20
-2.44246
11
2.69117
21
-2.46881
0
LINE
8
BLACK
6
CONTINUOUS
10
2.69117
20
-2.46881
11
2.69801
21
-2.49481
0
LINE
8
BLACK
6
CONTINUOUS
10
2.69801
20
-2.49481
11
2.70631
21
-2.52037
0
LINE
8
BLACK
6
CONTINUOUS
10
2.70631
20
-2.52037
11
2.71607
21
-2.54542
0
LINE
8
BLACK
6
CONTINUOUS
10
2.71607
20
-2.54542
11
2.72723
21
-2.56987
0
LINE
8
BLACK
6
CONTINUOUS
10
2.72723
20
-2.56987
11
2.73978
21
-2.59365
0
LINE
8
BLACK
6
CONTINUOUS
10
2.73978
20
-2.59365
11
2.75366
21
-2.61667
0
LINE
8
BLACK
6
CONTINUOUS
10
2.75366
20
-2.61667
11
2.76883
21
-2.63885
0
LINE
8
BLACK
6
CONTINUOUS
10
2.76883
20
-2.63885
11
2.78525
21
-2.66014
0
LINE
8
BLACK
6
CONTINUOUS
10
2.78525
20
-2.66014
11
2.80285
21
-2.68046
0
LINE
8
BLACK
6
CONTINUOUS
10
2.80285
20
-2.68046
11
2.82158
21
-2.69973
0
LINE
8
BLACK
6
CONTINUOUS
10
2.82158
20
-2.69973
11
2.84139
21
-2.71791
0
LINE
8
BLACK
6
CONTINUOUS
10
2.84139
20
-2.71791
11
2.8622
21
-2.73492
0
LINE
8
BLACK
6
CONTINUOUS
10
2.8622
20
-2.73492
11
2.88394
21
-2.75072
0
LINE
8
BLACK
6
CONTINUOUS
10
2.88394
20
-2.75072
11
2.90656
21
-2.76526
0
LINE
8
BLACK
6
CONTINUOUS
10
2.90656
20
-2.76526
11
2.92996
21
-2.77848
0
LINE
8
BLACK
6
CONTINUOUS
10
2.92996
20
-2.77848
11
2.95409
21
-2.79034
0
LINE
8
BLACK
6
CONTINUOUS
10
2.95409
20
-2.79034
11
2.97885
21
-2.8008
0
LINE
8
BLACK
6
CONTINUOUS
10
2.97885
20
-2.8008
11
3.00416
21
-2.80983
0
LINE
8
BLACK
6
CONTINUOUS
10
3.00416
20
-2.80983
11
3.02995
21
-2.81741
0
LINE
8
BLACK
6
CONTINUOUS
10
3.02995
20
-2.81741
11
3.05614
21
-2.82349
0
LINE
8
BLACK
6
CONTINUOUS
10
3.05614
20
-2.82349
11
3.08262
21
-2.82808
0
LINE
8
BLACK
6
CONTINUOUS
10
3.08262
20
-2.82808
11
3.10933
21
-2.83114
0
LINE
8
BLACK
6
CONTINUOUS
10
3.10933
20
-2.83114
11
3.13617
21
-2.83268
0
LINE
8
BLACK
6
CONTINUOUS
10
3.13617
20
-2.83268
11
3.14961
21
-2.83268
0
LINE
8
BLACK
6
CONTINUOUS
10
3.14961
20
-2.83268
11
3.16261
21
-2.83268
0
LINE
8
BLACK
6
CONTINUOUS
10
3.16261
20
-2.83268
11
3.18857
21
-2.83124
0
LINE
8
BLACK
6
CONTINUOUS
10
3.18857
20
-2.83124
11
3.21442
21
-2.82837
0
LINE
8
BLACK
6
CONTINUOUS
10
3.21442
20
-2.82837
11
3.24006
21
-2.82408
0
LINE
8
BLACK
6
CONTINUOUS
10
3.24006
20
-2.82408
11
3.26543
21
-2.81838
0
LINE
8
BLACK
6
CONTINUOUS
10
3.26543
20
-2.81838
11
3.29045
21
-2.81129
0
LINE
8
BLACK
6
CONTINUOUS
10
3.29045
20
-2.81129
11
3.31504
21
-2.80282
0
LINE
8
BLACK
6
CONTINUOUS
10
3.31504
20
-2.80282
11
3.33912
21
-2.79301
0
LINE
8
BLACK
6
CONTINUOUS
10
3.33912
20
-2.79301
11
3.36263
21
-2.78189
0
LINE
8
BLACK
6
CONTINUOUS
10
3.36263
20
-2.78189
11
3.38548
21
-2.76948
0
LINE
8
BLACK
6
CONTINUOUS
10
3.38548
20
-2.76948
11
3.40761
21
-2.75584
0
LINE
8
BLACK
6
CONTINUOUS
10
3.40761
20
-2.75584
11
3.42896
21
-2.74099
0
LINE
8
BLACK
6
CONTINUOUS
10
3.42896
20
-2.74099
11
3.44945
21
-2.72498
0
LINE
8
BLACK
6
CONTINUOUS
10
3.44945
20
-2.72498
11
3.46903
21
-2.70786
0
LINE
8
BLACK
6
CONTINUOUS
10
3.46903
20
-2.70786
11
3.48763
21
-2.6897
0
LINE
8
BLACK
6
CONTINUOUS
10
3.48763
20
-2.6897
11
3.5052
21
-2.67053
0
LINE
8
BLACK
6
CONTINUOUS
10
3.5052
20
-2.67053
11
3.52169
21
-2.65042
0
LINE
8
BLACK
6
CONTINUOUS
10
3.52169
20
-2.65042
11
3.53704
21
-2.62943
0
LINE
8
BLACK
6
CONTINUOUS
10
3.53704
20
-2.62943
11
3.54412
21
-2.61853
0
LINE
8
BLACK
6
CONTINUOUS
10
3.54412
20
-2.61853
11
3.54443
21
-2.61828
0
LINE
8
BLACK
6
CONTINUOUS
10
3.54443
20
-2.61828
11
3.54455
21
-2.61806
0
LINE
8
BLACK
6
CONTINUOUS
10
3.54455
20
-2.61806
11
3.62008
21
-2.5581
0
LINE
8
BLACK
6
CONTINUOUS
10
3.62008
20
-2.5581
11
3.62008
21
-2.16641
0
LINE
8
BLACK
6
CONTINUOUS
10
3.62008
20
-2.16641
11
3.55511
21
-2.12326
0
LINE
8
BLACK
6
CONTINUOUS
10
3.55511
20
-2.12326
11
3.55494
21
-2.123
0
LINE
8
BLACK
6
CONTINUOUS
10
3.55494
20
-2.123
11
3.55451
21
-2.12262
0
LINE
8
BLACK
6
CONTINUOUS
10
3.55451
20
-2.12262
11
3.54797
21
-2.11157
0
LINE
8
BLACK
6
CONTINUOUS
10
3.54797
20
-2.11157
11
3.53371
21
-2.09022
0
LINE
8
BLACK
6
CONTINUOUS
10
3.53371
20
-2.09022
11
3.51831
21
-2.06969
0
LINE
8
BLACK
6
CONTINUOUS
10
3.51831
20
-2.06969
11
3.50181
21
-2.05002
0
LINE
8
BLACK
6
CONTINUOUS
10
3.50181
20
-2.05002
11
3.48427
21
-2.03128
0
LINE
8
BLACK
6
CONTINUOUS
10
3.48427
20
-2.03128
11
3.46572
21
-2.01352
0
LINE
8
BLACK
6
CONTINUOUS
10
3.46572
20
-2.01352
11
3.44624
21
-1.99681
0
LINE
8
BLACK
6
CONTINUOUS
10
3.44624
20
-1.99681
11
3.42588
21
-1.98117
0
LINE
8
BLACK
6
CONTINUOUS
10
3.42588
20
-1.98117
11
3.40469
21
-1.96668
0
LINE
8
BLACK
6
CONTINUOUS
10
3.40469
20
-1.96668
11
3.38274
21
-1.95336
0
LINE
8
BLACK
6
CONTINUOUS
10
3.38274
20
-1.95336
11
3.36011
21
-1.94125
0
LINE
8
BLACK
6
CONTINUOUS
10
3.36011
20
-1.94125
11
3.33684
21
-1.9304
0
LINE
8
BLACK
6
CONTINUOUS
10
3.33684
20
-1.9304
11
3.31302
21
-1.92084
0
LINE
8
BLACK
6
CONTINUOUS
10
3.31302
20
-1.92084
11
3.28871
21
-1.91258
0
LINE
8
BLACK
6
CONTINUOUS
10
3.28871
20
-1.91258
11
3.26399
21
-1.90567
0
LINE
8
BLACK
6
CONTINUOUS
10
3.26399
20
-1.90567
11
3.23892
21
-1.90011
0
LINE
8
BLACK
6
CONTINUOUS
10
3.23892
20
-1.90011
11
3.21359
21
-1.89593
0
LINE
8
BLACK
6
CONTINUOUS
10
3.21359
20
-1.89593
11
3.18808
21
-1.89313
0
LINE
8
BLACK
6
CONTINUOUS
10
3.18808
20
-1.89313
11
3.16244
21
-1.89173
0
LINE
8
BLACK
6
CONTINUOUS
10
3.16244
20
-1.89173
11
3.14961
21
-1.89173
  0
ENDSEC
  0
EOF
