  0
SECTION
  2
HEADER
  9
$ANGBASE
  50
0.0
  9
$ANGDIR
  70
1
  9
$MEASUREMENT
  70
0
  0
ENDSEC
  0
SECTION
  2
TABLES
  0
TABLE
  2
LTYPE
  70
4
  0
LTYPE
  5
40F
  2
CONTINUOUS
  70
0
  3
Solid line
  72
65
  73
0
  40
0.0
  0
LTYPE
  5
410
  2
DASHDOT
 70
0
  3
Dash Dot ____ _ ____ _
 72
65
 73
4
 40
2.0
 49
1.25
 49
-0.25
 49
0.25
 49
-0.25
  0
LTYPE
  5
411
  2
DASHED
 70
0
  3
Dashed __ __ __ __ __
 72
65
 73
2
 40
0.75
 49
0.5
 49
-0.25
  0
LTYPE
  5
43B
  2
DOTTED
 70
0
  3
Dotted .  .  .  .
 72
65
 73
2
 40
0.2
 49
0.0
 49
-0.2
  0
ENDTAB
  0
TABLE
  2
STYLE
  70
4
  0
STYLE
  2
KICAD
  70
0
  40
0
  41
1
  42
1
  50
0
  71
0
  3
isocp.shx
  0
STYLE
  2
KICADB
  70
0
  40
0
  41
1
  42
1
  50
0
  71
0
  3
isocp.shx
  0
STYLE
  2
KICADI
  70
0
  40
0
  41
1
  42
1
  50
15
  71
0
  3
isocp.shx
  0
STYLE
  2
KICADBI
  70
0
  40
0
  41
1
  42
1
  50
15
  71
0
  3
isocp.shx
  0
ENDTAB
  0
TABLE
  2
LAYER
  70
1
  0
LAYER
  2
BLACK
  70
0
  62
7
  6
CONTINUOUS
  0
ENDTAB
  0
ENDSEC
  0
SECTION
  2
ENTITIES
0
LINE
8
BLACK
6
CONTINUOUS
10
3.1625846062992125
20
-1.8901375196850394
11
3.1756776771653543
21
-1.8905146062992126
0
LINE
8
BLACK
6
CONTINUOUS
10
3.1756776771653543
20
-1.8905146062992126
11
3.1757808267716534
21
-1.8905203149606298
0
LINE
8
BLACK
6
CONTINUOUS
10
3.1757808267716534
20
-1.8905203149606298
11
3.1761907874015747
21
-1.8905539370078739
0
LINE
8
BLACK
6
CONTINUOUS
10
3.1761907874015747
20
-1.8905539370078739
11
3.1891906299212596
21
-1.8916200787401574
0
LINE
8
BLACK
6
CONTINUOUS
10
3.1891906299212596
20
-1.8916200787401574
11
3.1983480708661416
21
-1.892413031496063
0
LINE
8
BLACK
6
CONTINUOUS
10
3.1983480708661416
20
-1.892413031496063
11
3.2020703937007875
21
-1.8927353543307086
0
LINE
8
BLACK
6
CONTINUOUS
10
3.2020703937007875
20
-1.8927353543307086
11
3.2021672440944879
21
-1.8927461811023623
0
LINE
8
BLACK
6
CONTINUOUS
10
3.2021672440944879
20
-1.8927461811023623
11
3.20322905511811
21
-1.8928918897637794
0
LINE
8
BLACK
6
CONTINUOUS
10
3.20322905511811
20
-1.8928918897637794
11
3.2155359842519684
21
-1.894580748031496
0
LINE
8
BLACK
6
CONTINUOUS
10
3.2155359842519684
20
-1.894580748031496
11
3.2282989370078741
21
-1.8964309055118109
0
LINE
8
BLACK
6
CONTINUOUS
10
3.2282989370078741
20
-1.8964309055118109
11
3.2283843700787402
21
-1.89644531496063
0
LINE
8
BLACK
6
CONTINUOUS
10
3.2283843700787402
20
-1.89644531496063
11
3.2416502362204724
21
-1.8990094488188975
0
LINE
8
BLACK
6
CONTINUOUS
10
3.2416502362204724
20
-1.8990094488188975
11
3.2543158267716534
21
-1.9015972047244094
0
LINE
8
BLACK
6
CONTINUOUS
10
3.2543158267716534
20
-1.9015972047244094
11
3.2674718503937008
21
-1.9048932677165353
0
LINE
8
BLACK
6
CONTINUOUS
10
3.2674718503937008
20
-1.9048932677165353
11
3.277257283464567
21
-1.9074872047244094
0
LINE
8
BLACK
6
CONTINUOUS
10
3.277257283464567
20
-1.9074872047244094
11
3.2799590157480316
21
-1.9082034251968503
0
LINE
8
BLACK
6
CONTINUOUS
10
3.2799590157480316
20
-1.9082034251968503
11
3.2929199606299213
21
-1.9122132283464566
0
LINE
8
BLACK
6
CONTINUOUS
10
3.2929199606299213
20
-1.9122132283464566
11
3.3051917716535431
21
-1.9162351574803149
0
LINE
8
BLACK
6
CONTINUOUS
10
3.3051917716535431
20
-1.9162351574803149
11
3.3179164173228344
21
-1.9209462992125983
0
LINE
8
BLACK
6
CONTINUOUS
10
3.3179164173228344
20
-1.9209462992125983
11
3.3299344881889761
21
-1.9256670078740157
0
LINE
8
BLACK
6
CONTINUOUS
10
3.3299344881889761
20
-1.9256670078740157
11
3.3423853543307085
21
-1.9310658661417321
0
LINE
8
BLACK
6
CONTINUOUS
10
3.3423853543307085
20
-1.9310658661417321
11
3.3541091338582678
21
-1.9364692125984251
0
LINE
8
BLACK
6
CONTINUOUS
10
3.3541091338582678
20
-1.9364692125984251
11
3.366247834645669
21
-1.9425392519685039
0
LINE
8
BLACK
6
CONTINUOUS
10
3.366247834645669
20
-1.9425392519685039
11
3.3776409842519683
21
-1.9486082283464567
0
LINE
8
BLACK
6
CONTINUOUS
10
3.3776409842519683
20
-1.9486082283464567
11
3.3894315748031496
21
-1.9553316141732282
0
LINE
8
BLACK
6
CONTINUOUS
10
3.3894315748031496
20
-1.9553316141732282
11
3.3965696062992126
21
-1.959678937007874
0
LINE
8
BLACK
6
CONTINUOUS
10
3.3965696062992126
20
-1.959678937007874
11
3.4004564566929134
21
-1.9620461811023622
0
LINE
8
BLACK
6
CONTINUOUS
10
3.4004564566929134
20
-1.9620461811023622
11
3.411861023622047
21
-1.9694012204724409
0
LINE
8
BLACK
6
CONTINUOUS
10
3.411861023622047
20
-1.9694012204724409
11
3.4224835039370078
21
-1.9767407086614173
0
LINE
8
BLACK
6
CONTINUOUS
10
3.4224835039370078
20
-1.9767407086614173
11
3.4290090551181103
21
-1.9814721259842518
0
LINE
8
BLACK
6
CONTINUOUS
10
3.4290090551181103
20
-1.9814721259842518
11
3.4334690551181102
21
-1.984705905511811
0
LINE
8
BLACK
6
CONTINUOUS
10
3.4334690551181102
20
-1.984705905511811
11
3.4436523228346454
21
-1.9926451968503938
0
LINE
8
BLACK
6
CONTINUOUS
10
3.4436523228346454
20
-1.9926451968503938
11
3.4541866141732283
21
-2.0011970472440943
0
LINE
8
BLACK
6
CONTINUOUS
10
3.4541866141732283
20
-2.0011970472440943
11
3.4638976377952755
21
-2.009710590551181
0
LINE
8
BLACK
6
CONTINUOUS
10
3.4638976377952755
20
-2.009710590551181
11
3.4739484251968502
21
-2.0188227165354329
0
LINE
8
BLACK
6
CONTINUOUS
10
3.4739484251968502
20
-2.0188227165354329
11
3.4831569685039367
21
-2.0278845275590549
0
LINE
8
BLACK
6
CONTINUOUS
10
3.4831569685039367
20
-2.0278845275590549
11
3.4926924409448818
21
-2.0375275590551181
0
LINE
8
BLACK
6
CONTINUOUS
10
3.4926924409448818
20
-2.0375275590551181
11
3.5013687795275588
21
-2.0471094094488187
0
LINE
8
BLACK
6
CONTINUOUS
10
3.5013687795275588
20
-2.0471094094488187
11
3.510330433070866
21
-2.0572197637795275
0
LINE
8
BLACK
6
CONTINUOUS
10
3.510330433070866
20
-2.0572197637795275
11
3.5103895275590551
21
-2.05728968503937
0
LINE
8
BLACK
6
CONTINUOUS
10
3.5103895275590551
20
-2.05728968503937
11
3.5184790157480315
21
-2.0673288582677163
0
LINE
8
BLACK
6
CONTINUOUS
10
3.5184790157480315
20
-2.0673288582677163
11
3.5268663779527558
21
-2.0779006299212597
0
LINE
8
BLACK
6
CONTINUOUS
10
3.5268663779527558
20
-2.0779006299212597
11
3.5269250393700786
21
-2.0779784645669293
0
LINE
8
BLACK
6
CONTINUOUS
10
3.5269250393700786
20
-2.0779784645669293
11
3.5344425984251968
21
-2.0884935039370078
0
LINE
8
BLACK
6
CONTINUOUS
10
3.5344425984251968
20
-2.0884935039370078
11
3.5422191732283466
21
-2.0994760629921259
0
LINE
8
BLACK
6
CONTINUOUS
10
3.5422191732283466
20
-2.0994760629921259
11
3.5422766535433068
21
-2.0995619685039371
0
LINE
8
BLACK
6
CONTINUOUS
10
3.5422766535433068
20
-2.0995619685039371
11
3.5492622834645671
21
-2.1106278740157478
0
LINE
8
BLACK
6
CONTINUOUS
10
3.5492622834645671
20
-2.1106278740157478
11
3.5558499606299212
21
-2.1210985039370076
0
LINE
8
BLACK
6
CONTINUOUS
10
3.5558499606299212
20
-2.1210985039370076
11
3.5558935039370079
21
-2.1212001968503937
0
LINE
8
BLACK
6
CONTINUOUS
10
3.5558935039370079
20
-2.1212001968503937
11
3.5561488582677163
21
-2.1215773228346455
0
LINE
8
BLACK
6
CONTINUOUS
10
3.5561488582677163
20
-2.1215773228346455
11
3.5562137007874015
21
-2.1216798031496062
0
LINE
8
BLACK
6
CONTINUOUS
10
3.5562137007874015
20
-2.1216798031496062
11
3.5562859842519683
21
-2.1218024015748029
0
LINE
8
BLACK
6
CONTINUOUS
10
3.5562859842519683
20
-2.1218024015748029
11
3.5567612992125985
21
-2.1220138582677164
0
LINE
8
BLACK
6
CONTINUOUS
10
3.5567612992125985
20
-2.1220138582677164
11
3.6202864566929134
21
-2.1642083858267718
0
LINE
8
BLACK
6
CONTINUOUS
10
3.6202864566929134
20
-2.1642083858267718
11
3.6217829527559053
21
-2.1660959448818895
0
LINE
8
BLACK
6
CONTINUOUS
10
3.6217829527559053
20
-2.1660959448818895
11
3.6220275590551179
21
-2.1674549999999999
0
LINE
8
BLACK
6
CONTINUOUS
10
3.6220275590551179
20
-2.1674549999999999
11
3.6220275590551179
21
-2.5571631102362202
0
LINE
8
BLACK
6
CONTINUOUS
10
3.6220275590551179
20
-2.5571631102362202
11
3.6212831889763777
21
-2.5594540944881889
0
LINE
8
BLACK
6
CONTINUOUS
10
3.6212831889763777
20
-2.5594540944881889
11
3.6205531102362203
21
-2.5602159448818895
0
LINE
8
BLACK
6
CONTINUOUS
10
3.6205531102362203
20
-2.5602159448818895
11
3.6179862204724409
21
-2.5622534251968503
0
LINE
8
BLACK
6
CONTINUOUS
10
3.6179862204724409
20
-2.5622534251968503
11
3.6157290157480313
21
-2.5630946850393701
0
LINE
8
BLACK
6
CONTINUOUS
10
3.6157290157480313
20
-2.5630946850393701
11
3.6134084251968503
21
-2.5624485433070867
0
LINE
8
BLACK
6
CONTINUOUS
10
3.6134084251968503
20
-2.5624485433070867
11
3.6119108267716533
21
-2.5605618110236219
0
LINE
8
BLACK
6
CONTINUOUS
10
3.6119108267716533
20
-2.5605618110236219
11
3.6116987401574803
21
-2.5586919685039371
0
LINE
8
BLACK
6
CONTINUOUS
10
3.6116987401574803
20
-2.5586919685039371
11
3.6124284251968501
21
-2.5531496062992125
0
LINE
8
BLACK
6
CONTINUOUS
10
3.6124284251968501
20
-2.5531496062992125
11
3.6116159055118109
21
-2.5469778740157478
0
LINE
8
BLACK
6
CONTINUOUS
10
3.6116159055118109
20
-2.5469778740157478
11
3.6102316535433072
21
-2.543636062992126
0
LINE
8
BLACK
6
CONTINUOUS
10
3.6102316535433072
20
-2.543636062992126
11
3.6100099212598424
21
-2.5413841338582674
0
LINE
8
BLACK
6
CONTINUOUS
10
3.6100099212598424
20
-2.5413841338582674
11
3.6102559055118109
21
-2.5401475590551179
0
LINE
8
BLACK
6
CONTINUOUS
10
3.6102559055118109
20
-2.5401475590551179
11
3.6102559055118109
21
-2.4303248818897636
0
LINE
8
BLACK
6
CONTINUOUS
10
3.6102559055118109
20
-2.4303248818897636
11
3.6102558661417321
21
-2.4303248031496061
0
LINE
8
BLACK
6
CONTINUOUS
10
3.6102558661417321
20
-2.4303248031496061
11
3.6102558661417321
21
-2.430324566929134
0
LINE
8
BLACK
6
CONTINUOUS
10
3.6102558661417321
20
-2.430324566929134
11
3.6100099212598424
21
-2.4290882283464565
0
LINE
8
BLACK
6
CONTINUOUS
10
3.6100099212598424
20
-2.4290882283464565
11
3.6102316535433072
21
-2.4268363385826772
0
LINE
8
BLACK
6
CONTINUOUS
10
3.6102316535433072
20
-2.4268363385826772
11
3.6116159055118109
21
-2.4234945669291337
0
LINE
8
BLACK
6
CONTINUOUS
10
3.6116159055118109
20
-2.4234945669291337
11
3.6124284251968501
21
-2.4173228346456694
0
LINE
8
BLACK
6
CONTINUOUS
10
3.6124284251968501
20
-2.4173228346456694
11
3.6116159055118109
21
-2.4111511023622048
0
LINE
8
BLACK
6
CONTINUOUS
10
3.6116159055118109
20
-2.4111511023622048
11
3.6112475984251966
21
-2.4102618897637793
0
LINE
8
BLACK
6
CONTINUOUS
10
3.6112475984251966
20
-2.4102618897637793
11
3.6092337401574803
21
-2.4054000393700785
0
LINE
8
BLACK
6
CONTINUOUS
10
3.6092337401574803
20
-2.4054000393700785
11
3.6092337401574803
21
-2.4053999999999998
0
LINE
8
BLACK
6
CONTINUOUS
10
3.6092337401574803
20
-2.4053999999999998
11
3.6054443307086612
21
-2.4004615354330707
0
LINE
8
BLACK
6
CONTINUOUS
10
3.6054443307086612
20
-2.4004615354330707
11
3.6054442913385825
21
-2.400461496062992
0
LINE
8
BLACK
6
CONTINUOUS
10
3.6054442913385825
20
-2.400461496062992
11
3.6054441732283462
21
-2.400461338582677
0
LINE
8
BLACK
6
CONTINUOUS
10
3.6054441732283462
20
-2.400461338582677
11
3.6054439763779529
21
-2.400461181102362
0
LINE
8
BLACK
6
CONTINUOUS
10
3.6054439763779529
20
-2.400461181102362
11
3.6054439370078741
21
-2.4004611417322832
0
LINE
8
BLACK
6
CONTINUOUS
10
3.6054439370078741
20
-2.4004611417322832
11
3.6020216535433072
21
-2.3978351574803147
0
LINE
8
BLACK
6
CONTINUOUS
10
3.6020216535433072
20
-2.3978351574803147
11
3.6005055511811022
21
-2.396671811023622
0
LINE
8
BLACK
6
CONTINUOUS
10
3.6005055511811022
20
-2.396671811023622
11
3.6005055118110234
21
-2.3966717716535433
0
LINE
8
BLACK
6
CONTINUOUS
10
3.6005055118110234
20
-2.3966717716535433
11
3.6005054330708659
21
-2.3966717322834645
0
LINE
8
BLACK
6
CONTINUOUS
10
3.6005054330708659
20
-2.3966717322834645
11
3.5947545669291339
21
-2.3942896456692915
0
LINE
8
BLACK
6
CONTINUOUS
10
3.5947545669291339
20
-2.3942896456692915
11
3.5947542519685038
21
-2.394289566929134
0
LINE
8
BLACK
6
CONTINUOUS
10
3.5947542519685038
20
-2.394289566929134
11
3.5885827165354329
21
-2.393477086614173
0
LINE
8
BLACK
6
CONTINUOUS
10
3.5885827165354329
20
-2.393477086614173
11
3.5885826377952754
21
-2.393477086614173
0
LINE
8
BLACK
6
CONTINUOUS
10
3.5885826377952754
20
-2.393477086614173
11
3.5824110629921257
21
-2.394289566929134
0
LINE
8
BLACK
6
CONTINUOUS
10
3.5824110629921257
20
-2.394289566929134
11
3.582410866141732
21
-2.3942896456692915
0
LINE
8
BLACK
6
CONTINUOUS
10
3.582410866141732
20
-2.3942896456692915
11
3.57666
21
-2.3966717322834645
0
LINE
8
BLACK
6
CONTINUOUS
10
3.57666
20
-2.3966717322834645
11
3.5766598031496062
21
-2.396671811023622
0
LINE
8
BLACK
6
CONTINUOUS
10
3.5766598031496062
20
-2.396671811023622
11
3.5761914960629921
21
-2.3970311023622046
0
LINE
8
BLACK
6
CONTINUOUS
10
3.5761914960629921
20
-2.3970311023622046
11
3.5739209055118111
21
-2.3978351574803147
0
LINE
8
BLACK
6
CONTINUOUS
10
3.5739209055118111
20
-2.3978351574803147
11
3.5716112204724411
21
-2.3971509842519683
0
LINE
8
BLACK
6
CONTINUOUS
10
3.5716112204724411
20
-2.3971509842519683
11
3.5714471653543307
21
-2.3970318110236222
0
LINE
8
BLACK
6
CONTINUOUS
10
3.5714471653543307
20
-2.3970318110236222
11
3.5709779921259841
21
-2.396671811023622
0
LINE
8
BLACK
6
CONTINUOUS
10
3.5709779921259841
20
-2.396671811023622
11
3.5652268503937008
21
-2.3942896062992127
0
LINE
8
BLACK
6
CONTINUOUS
10
3.5652268503937008
20
-2.3942896062992127
11
3.5652267322834645
21
-2.394289566929134
0
LINE
8
BLACK
6
CONTINUOUS
10
3.5652267322834645
20
-2.394289566929134
11
3.5652266929133858
21
-2.394289566929134
0
LINE
8
BLACK
6
CONTINUOUS
10
3.5652266929133858
20
-2.394289566929134
11
3.5590551574803149
21
-2.393477086614173
0
LINE
8
BLACK
6
CONTINUOUS
10
3.5590551574803149
20
-2.393477086614173
11
3.5590550787401574
21
-2.393477086614173
0
LINE
8
BLACK
6
CONTINUOUS
10
3.5590550787401574
20
-2.393477086614173
11
3.5528835039370077
21
-2.394289566929134
0
LINE
8
BLACK
6
CONTINUOUS
10
3.5528835039370077
20
-2.394289566929134
11
3.5528831889763777
21
-2.3942896456692915
0
LINE
8
BLACK
6
CONTINUOUS
10
3.5528831889763777
20
-2.3942896456692915
11
3.5471323228346456
21
-2.3966717322834645
0
LINE
8
BLACK
6
CONTINUOUS
10
3.5471323228346456
20
-2.3966717322834645
11
3.5471322834645669
21
-2.3966717322834645
0
LINE
8
BLACK
6
CONTINUOUS
10
3.5471322834645669
20
-2.3966717322834645
11
3.5421938188976378
21
-2.4004611417322832
0
LINE
8
BLACK
6
CONTINUOUS
10
3.5421938188976378
20
-2.4004611417322832
11
3.5421934251968503
21
-2.4004615354330707
0
LINE
8
BLACK
6
CONTINUOUS
10
3.5421934251968503
20
-2.4004615354330707
11
3.5384040157480312
21
-2.4053999999999998
0
LINE
8
BLACK
6
CONTINUOUS
10
3.5384040157480312
20
-2.4053999999999998
11
3.5384040157480312
21
-2.4054000393700785
0
LINE
8
BLACK
6
CONTINUOUS
10
3.5384040157480312
20
-2.4054000393700785
11
3.5360219291338582
21
-2.411150905511811
0
LINE
8
BLACK
6
CONTINUOUS
10
3.5360219291338582
20
-2.411150905511811
11
3.5360218503937006
21
-2.411151220472441
0
LINE
8
BLACK
6
CONTINUOUS
10
3.5360218503937006
20
-2.411151220472441
11
3.5352093700787401
21
-2.4173227952755907
0
LINE
8
BLACK
6
CONTINUOUS
10
3.5352093700787401
20
-2.4173227952755907
11
3.5352093700787401
21
-2.4173228346456694
0
LINE
8
BLACK
6
CONTINUOUS
10
3.5352093700787401
20
-2.4173228346456694
11
3.5358309055118111
21
-2.4220440551181102
0
LINE
8
BLACK
6
CONTINUOUS
10
3.5358309055118111
20
-2.4220440551181102
11
3.535391929133858
21
-2.4244125984251967
0
LINE
8
BLACK
6
CONTINUOUS
10
3.535391929133858
20
-2.4244125984251967
11
3.5336445669291336
21
-2.426070748031496
0
LINE
8
BLACK
6
CONTINUOUS
10
3.5336445669291336
20
-2.426070748031496
11
3.5312562992125982
21
-2.4263851574803148
0
LINE
8
BLACK
6
CONTINUOUS
10
3.5312562992125982
20
-2.4263851574803148
11
3.5296786614173228
21
-2.4255551181102364
0
LINE
8
BLACK
6
CONTINUOUS
10
3.5296786614173228
20
-2.4255551181102364
11
3.5296322440944881
21
-2.4256246062992126
0
LINE
8
BLACK
6
CONTINUOUS
10
3.5296322440944881
20
-2.4256246062992126
11
3.5267020866141729
21
-2.4236666929133857
0
LINE
8
BLACK
6
CONTINUOUS
10
3.5267020866141729
20
-2.4236666929133857
11
3.5267020078740159
21
-2.4236666535433069
0
LINE
8
BLACK
6
CONTINUOUS
10
3.5267020078740159
20
-2.4236666535433069
11
3.5267018897637796
21
-2.4236666141732282
0
LINE
8
BLACK
6
CONTINUOUS
10
3.5267018897637796
20
-2.4236666141732282
11
3.5267018503937009
21
-2.4236666141732282
0
LINE
8
BLACK
6
CONTINUOUS
10
3.5267018503937009
20
-2.4236666141732282
11
3.5243999212598425
21
-2.4232087007874017
0
LINE
8
BLACK
6
CONTINUOUS
10
3.5243999212598425
20
-2.4232087007874017
11
3.5243995275590549
21
-2.4232086614173229
0
LINE
8
BLACK
6
CONTINUOUS
10
3.5243995275590549
20
-2.4232086614173229
11
3.5175411023622045
21
-2.4232086614173229
0
LINE
8
BLACK
6
CONTINUOUS
10
3.5175411023622045
20
-2.4232086614173229
11
3.5152501181102362
21
-2.4224642913385828
0
LINE
8
BLACK
6
CONTINUOUS
10
3.5152501181102362
20
-2.4224642913385828
11
3.5138342125984252
21
-2.420515472440945
0
LINE
8
BLACK
6
CONTINUOUS
10
3.5138342125984252
20
-2.420515472440945
11
3.5138342125984252
21
-2.4181065748031494
0
LINE
8
BLACK
6
CONTINUOUS
10
3.5138342125984252
20
-2.4181065748031494
11
3.5141653543307085
21
-2.4173626771653542
0
LINE
8
BLACK
6
CONTINUOUS
10
3.5141653543307085
20
-2.4173626771653542
11
3.5141883858267717
21
-2.4173227952755907
0
LINE
8
BLACK
6
CONTINUOUS
10
3.5141883858267717
20
-2.4173227952755907
11
3.5143038582677164
21
-2.417122755905512
0
LINE
8
BLACK
6
CONTINUOUS
10
3.5143038582677164
20
-2.417122755905512
11
3.51469374015748
21
-2.4165659448818899
0
LINE
8
BLACK
6
CONTINUOUS
10
3.51469374015748
20
-2.4165659448818899
11
3.5152062204724408
21
-2.4159552362204724
0
LINE
8
BLACK
6
CONTINUOUS
10
3.5152062204724408
20
-2.4159552362204724
11
3.515206181102362
21
-2.4159552362204724
0
LINE
8
BLACK
6
CONTINUOUS
10
3.515206181102362
20
-2.4159552362204724
11
3.5152062992125983
21
-2.4159551574803149
0
LINE
8
BLACK
6
CONTINUOUS
10
3.5152062992125983
20
-2.4159551574803149
11
3.5154792519685039
21
-2.4152051574803148
0
LINE
8
BLACK
6
CONTINUOUS
10
3.5154792519685039
20
-2.4152051574803148
11
3.5157661023622047
21
-2.4145900787401575
0
LINE
8
BLACK
6
CONTINUOUS
10
3.5157661023622047
20
-2.4145900787401575
11
3.5161648818897637
21
-2.4138994094488186
0
LINE
8
BLACK
6
CONTINUOUS
10
3.5161648818897637
20
-2.4138994094488186
11
3.5163033070866141
21
-2.4131140157480315
0
LINE
8
BLACK
6
CONTINUOUS
10
3.5163033070866141
20
-2.4131140157480315
11
3.516479212598425
21
-2.4124577165354331
0
LINE
8
BLACK
6
CONTINUOUS
10
3.516479212598425
20
-2.4124577165354331
11
3.5167519685039368
21
-2.4117084251968501
0
LINE
8
BLACK
6
CONTINUOUS
10
3.5167519685039368
20
-2.4117084251968501
11
3.5167519685039368
21
-2.4071892125984253
0
LINE
8
BLACK
6
CONTINUOUS
10
3.5167519685039368
20
-2.4071892125984253
11
3.5167519685039368
21
-2.3050984251968503
0
LINE
8
BLACK
6
CONTINUOUS
10
3.5167519685039368
20
-2.3050984251968503
11
3.517496338582677
21
-2.302807440944882
0
LINE
8
BLACK
6
CONTINUOUS
10
3.517496338582677
20
-2.302807440944882
11
3.5194451574803147
21
-2.301391535433071
0
LINE
8
BLACK
6
CONTINUOUS
10
3.5194451574803147
20
-2.301391535433071
11
3.5206496062992123
21
-2.3012007874015747
0
LINE
8
BLACK
6
CONTINUOUS
10
3.5206496062992123
20
-2.3012007874015747
11
3.5243994881889762
21
-2.3012007874015747
0
LINE
8
BLACK
6
CONTINUOUS
10
3.5243994881889762
20
-2.3012007874015747
11
3.5243995275590549
21
-2.3012007874015747
0
LINE
8
BLACK
6
CONTINUOUS
10
3.5243995275590549
20
-2.3012007874015747
11
3.5267020078740159
21
-2.3007427952755903
0
LINE
8
BLACK
6
CONTINUOUS
10
3.5267020078740159
20
-2.3007427952755903
11
3.5293130708661415
21
-2.2989981102362202
0
LINE
8
BLACK
6
CONTINUOUS
10
3.5293130708661415
20
-2.2989981102362202
11
3.5310577559055116
21
-2.2963870472440946
0
LINE
8
BLACK
6
CONTINUOUS
10
3.5310577559055116
20
-2.2963870472440946
11
3.5313196456692912
21
-2.2950705118110237
0
LINE
8
BLACK
6
CONTINUOUS
10
3.5313196456692912
20
-2.2950705118110237
11
3.531515748031496
21
-2.2940845669291337
0
LINE
8
BLACK
6
CONTINUOUS
10
3.531515748031496
20
-2.2940845669291337
11
3.531515748031496
21
-2.2352911417322834
0
LINE
8
BLACK
6
CONTINUOUS
10
3.531515748031496
20
-2.2352911417322834
11
3.5314598031496063
21
-2.2351813779527561
0
LINE
8
BLACK
6
CONTINUOUS
10
3.5314598031496063
20
-2.2351813779527561
11
3.5306890551181103
21
-2.2303149606299213
0
LINE
8
BLACK
6
CONTINUOUS
10
3.5306890551181103
20
-2.2303149606299213
11
3.5314598031496063
21
-2.2254485433070865
0
LINE
8
BLACK
6
CONTINUOUS
10
3.5314598031496063
20
-2.2254485433070865
11
3.531515748031496
21
-2.2253387401574805
0
LINE
8
BLACK
6
CONTINUOUS
10
3.531515748031496
20
-2.2253387401574805
11
3.531515748031496
21
-2.1842618897637793
0
LINE
8
BLACK
6
CONTINUOUS
10
3.531515748031496
20
-2.1842618897637793
11
3.5310577559055116
21
-2.1819594094488188
0
LINE
8
BLACK
6
CONTINUOUS
10
3.5310577559055116
20
-2.1819594094488188
11
3.5293130708661415
21
-2.1793483464566927
0
LINE
8
BLACK
6
CONTINUOUS
10
3.5293130708661415
20
-2.1793483464566927
11
3.5293129133858265
21
-2.1793482283464565
0
LINE
8
BLACK
6
CONTINUOUS
10
3.5293129133858265
20
-2.1793482283464565
11
3.5267020866141729
21
-2.1776037007874014
0
LINE
8
BLACK
6
CONTINUOUS
10
3.5267020866141729
20
-2.1776037007874014
11
3.5267020078740159
21
-2.1776036614173226
0
LINE
8
BLACK
6
CONTINUOUS
10
3.5267020078740159
20
-2.1776036614173226
11
3.5267018897637796
21
-2.1776036220472439
0
LINE
8
BLACK
6
CONTINUOUS
10
3.5267018897637796
20
-2.1776036220472439
11
3.5267018503937009
21
-2.1776036220472439
0
LINE
8
BLACK
6
CONTINUOUS
10
3.5267018503937009
20
-2.1776036220472439
11
3.5243999212598425
21
-2.1771457086614174
0
LINE
8
BLACK
6
CONTINUOUS
10
3.5243999212598425
20
-2.1771457086614174
11
3.5243995275590549
21
-2.1771456692913387
0
LINE
8
BLACK
6
CONTINUOUS
10
3.5243995275590549
20
-2.1771456692913387
11
3.4834744881889761
21
-2.1771456692913387
0
LINE
8
BLACK
6
CONTINUOUS
10
3.4834744881889761
20
-2.1771456692913387
11
3.4834744488188973
21
-2.1771456692913387
0
LINE
8
BLACK
6
CONTINUOUS
10
3.4834744488188973
20
-2.1771456692913387
11
3.4834740551181103
21
-2.1771457086614174
0
LINE
8
BLACK
6
CONTINUOUS
10
3.4834740551181103
20
-2.1771457086614174
11
3.4811721259842519
21
-2.1776036220472439
0
LINE
8
BLACK
6
CONTINUOUS
10
3.4811721259842519
20
-2.1776036220472439
11
3.4811718897637793
21
-2.1776037007874014
0
LINE
8
BLACK
6
CONTINUOUS
10
3.4811718897637793
20
-2.1776037007874014
11
3.4785610629921258
21
-2.1793482283464565
0
LINE
8
BLACK
6
CONTINUOUS
10
3.4785610629921258
20
-2.1793482283464565
11
3.4785608267716537
21
-2.179348464566929
0
LINE
8
BLACK
6
CONTINUOUS
10
3.4785608267716537
20
-2.179348464566929
11
3.4768162992125982
21
-2.1819592913385826
0
LINE
8
BLACK
6
CONTINUOUS
10
3.4768162992125982
20
-2.1819592913385826
11
3.4768162204724407
21
-2.1819595275590551
0
LINE
8
BLACK
6
CONTINUOUS
10
3.4768162204724407
20
-2.1819595275590551
11
3.4763583070866142
21
-2.1842614566929135
0
LINE
8
BLACK
6
CONTINUOUS
10
3.4763583070866142
20
-2.1842614566929135
11
3.4763582677165354
21
-2.1842619291338581
0
LINE
8
BLACK
6
CONTINUOUS
10
3.4763582677165354
20
-2.1842619291338581
11
3.4763582677165354
21
-2.2857328346456693
0
LINE
8
BLACK
6
CONTINUOUS
10
3.4763582677165354
20
-2.2857328346456693
11
3.4756138976377953
21
-2.2880238188976376
0
LINE
8
BLACK
6
CONTINUOUS
10
3.4756138976377953
20
-2.2880238188976376
11
3.4736650787401575
21
-2.2894397244094487
0
LINE
8
BLACK
6
CONTINUOUS
10
3.4736650787401575
20
-2.2894397244094487
11
3.4712561811023623
21
-2.2894397244094487
0
LINE
8
BLACK
6
CONTINUOUS
10
3.4712561811023623
20
-2.2894397244094487
11
3.469704566929134
21
-2.2884888976377953
0
LINE
8
BLACK
6
CONTINUOUS
10
3.469704566929134
20
-2.2884888976377953
11
3.4695447637795276
21
-2.2883290944881889
0
LINE
8
BLACK
6
CONTINUOUS
10
3.4695447637795276
20
-2.2883290944881889
11
3.4670231889763778
21
-2.2863942125984251
0
LINE
8
BLACK
6
CONTINUOUS
10
3.4670231889763778
20
-2.2863942125984251
11
3.4656588188976376
21
-2.2844089763779527
0
LINE
8
BLACK
6
CONTINUOUS
10
3.4656588188976376
20
-2.2844089763779527
11
3.4654983070866141
21
-2.2833020078740156
0
LINE
8
BLACK
6
CONTINUOUS
10
3.4654983070866141
20
-2.2833020078740156
11
3.4654983070866141
21
-2.2604145669291338
0
LINE
8
BLACK
6
CONTINUOUS
10
3.4654983070866141
20
-2.2604145669291338
11
3.4655056692913386
21
-2.2602452362204724
0
LINE
8
BLACK
6
CONTINUOUS
10
3.4655056692913386
20
-2.2602452362204724
11
3.465646496062992
21
-2.2586358267716533
0
LINE
8
BLACK
6
CONTINUOUS
10
3.465646496062992
20
-2.2586358267716533
11
3.4652282283464566
21
-2.2570749999999999
0
LINE
8
BLACK
6
CONTINUOUS
10
3.4652282283464566
20
-2.2570749999999999
11
3.4651916141732282
21
-2.2569096456692912
0
LINE
8
BLACK
6
CONTINUOUS
10
3.4651916141732282
20
-2.2569096456692912
11
3.464911220472441
21
-2.2553193700787402
0
LINE
8
BLACK
6
CONTINUOUS
10
3.464911220472441
20
-2.2553193700787402
11
3.4648817716535434
21
-2.2552683464566927
0
LINE
8
BLACK
6
CONTINUOUS
10
3.4648817716535434
20
-2.2552683464566927
11
3.4644920866141731
21
-2.2543277165354332
0
LINE
8
BLACK
6
CONTINUOUS
10
3.4644920866141731
20
-2.2543277165354332
11
3.4644768110236219
21
-2.2542705905511808
0
LINE
8
BLACK
6
CONTINUOUS
10
3.4644768110236219
20
-2.2542705905511808
11
3.4644767322834644
21
-2.254270472440945
0
LINE
8
BLACK
6
CONTINUOUS
10
3.4644767322834644
20
-2.254270472440945
11
3.4644766929133857
21
-2.2542703937007875
0
LINE
8
BLACK
6
CONTINUOUS
10
3.4644766929133857
20
-2.2542703937007875
11
3.4635504724409447
21
-2.2529475984251968
0
LINE
8
BLACK
6
CONTINUOUS
10
3.4635504724409447
20
-2.2529475984251968
11
3.4634590551181104
21
-2.2528041338582678
0
LINE
8
BLACK
6
CONTINUOUS
10
3.4634590551181104
20
-2.2528041338582678
11
3.4626515748031497
21
-2.2514055118110234
0
LINE
8
BLACK
6
CONTINUOUS
10
3.4626515748031497
20
-2.2514055118110234
11
3.4617000393700788
21
-2.2506071259842519
0
LINE
8
BLACK
6
CONTINUOUS
10
3.4617000393700788
20
-2.2506071259842519
11
3.4614142519685038
21
-2.2503673228346455
0
LINE
8
BLACK
6
CONTINUOUS
10
3.4614142519685038
20
-2.2503673228346455
11
3.4612891732283462
21
-2.2502526771653542
0
LINE
8
BLACK
6
CONTINUOUS
10
3.4612891732283462
20
-2.2502526771653542
11
3.4034785039370079
21
-2.1924420472440946
0
LINE
8
BLACK
6
CONTINUOUS
10
3.4034785039370079
20
-2.1924420472440946
11
3.4023849212598423
21
-2.1902957086614174
0
LINE
8
BLACK
6
CONTINUOUS
10
3.4023849212598423
20
-2.1902957086614174
11
3.4027617322834645
21
-2.187916496062992
0
LINE
8
BLACK
6
CONTINUOUS
10
3.4027617322834645
20
-2.187916496062992
11
3.4041795669291339
21
-2.1863740944881891
0
LINE
8
BLACK
6
CONTINUOUS
10
3.4041795669291339
20
-2.1863740944881891
11
3.4059911811023622
21
-2.1852500787401574
0
LINE
8
BLACK
6
CONTINUOUS
10
3.4059911811023622
20
-2.1852500787401574
11
3.4086153543307085
21
-2.1830481496062992
0
LINE
8
BLACK
6
CONTINUOUS
10
3.4086153543307085
20
-2.1830481496062992
11
3.40880405511811
21
-2.1828371653543308
0
LINE
8
BLACK
6
CONTINUOUS
10
3.40880405511811
20
-2.1828371653543308
11
3.4092031889763779
21
-2.1824504330708661
0
LINE
8
BLACK
6
CONTINUOUS
10
3.4092031889763779
20
-2.1824504330708661
11
3.4203800393700785
21
-2.173071929133858
0
LINE
8
BLACK
6
CONTINUOUS
10
3.4203800393700785
20
-2.173071929133858
11
3.4208303937007871
21
-2.172745866141732
0
LINE
8
BLACK
6
CONTINUOUS
10
3.4208303937007871
20
-2.172745866141732
11
3.4210708661417324
21
-2.1725967322834645
0
LINE
8
BLACK
6
CONTINUOUS
10
3.4210708661417324
20
-2.1725967322834645
11
3.4236949999999999
21
-2.1703948031496063
0
LINE
8
BLACK
6
CONTINUOUS
10
3.4236949999999999
20
-2.1703948031496063
11
3.4274692913385825
21
-2.1661761811023621
0
LINE
8
BLACK
6
CONTINUOUS
10
3.4274692913385825
20
-2.1661761811023621
11
3.4293668503937007
21
-2.1633240157480316
0
LINE
8
BLACK
6
CONTINUOUS
10
3.4293668503937007
20
-2.1633240157480316
11
3.4317997244094487
21
-2.1582129527559055
0
LINE
8
BLACK
6
CONTINUOUS
10
3.4317997244094487
20
-2.1582129527559055
11
3.4328168897637794
21
-2.1549418503937008
0
LINE
8
BLACK
6
CONTINUOUS
10
3.4328168897637794
20
-2.1549418503937008
11
3.4329618110236222
21
-2.1540363779527558
0
LINE
8
BLACK
6
CONTINUOUS
10
3.4329618110236222
20
-2.1540363779527558
11
3.4337112204724409
21
-2.1493528740157481
0
LINE
8
BLACK
6
CONTINUOUS
10
3.4337112204724409
20
-2.1493528740157481
11
3.4337112598425197
21
-2.1493525984251969
0
LINE
8
BLACK
6
CONTINUOUS
10
3.4337112598425197
20
-2.1493525984251969
11
3.4337112992125984
21
-2.1493524015748031
0
LINE
8
BLACK
6
CONTINUOUS
10
3.4337112992125984
20
-2.1493524015748031
11
3.4337656299212598
21
-2.1459269685039368
0
LINE
8
BLACK
6
CONTINUOUS
10
3.4337656299212598
20
-2.1459269685039368
11
3.4330490157480313
21
-2.1403119685039371
0
LINE
8
BLACK
6
CONTINUOUS
10
3.4330490157480313
20
-2.1403119685039371
11
3.432136220472441
21
-2.1370102755905513
0
LINE
8
BLACK
6
CONTINUOUS
10
3.432136220472441
20
-2.1370102755905513
11
3.4319253937007872
21
-2.1365285826771654
0
LINE
8
BLACK
6
CONTINUOUS
10
3.4319253937007872
20
-2.1365285826771654
11
3.4307537795275591
21
-2.1338514173228345
0
LINE
8
BLACK
6
CONTINUOUS
10
3.4307537795275591
20
-2.1338514173228345
11
3.4298667322834646
21
-2.131824527559055
0
LINE
8
BLACK
6
CONTINUOUS
10
3.4298667322834646
20
-2.131824527559055
11
3.4298666535433071
21
-2.1318244094488188
0
LINE
8
BLACK
6
CONTINUOUS
10
3.4298666535433071
20
-2.1318244094488188
11
3.4298666141732284
21
-2.1318242913385825
0
LINE
8
BLACK
6
CONTINUOUS
10
3.4298666141732284
20
-2.1318242913385825
11
3.4280605905511812
21
-2.1289136220472442
0
LINE
8
BLACK
6
CONTINUOUS
10
3.4280605905511812
20
-2.1289136220472442
11
3.4280603937007874
21
-2.1289133858267717
0
LINE
8
BLACK
6
CONTINUOUS
10
3.4280603937007874
20
-2.1289133858267717
11
3.4277511023622047
21
-2.1285448031496061
0
LINE
8
BLACK
6
CONTINUOUS
10
3.4277511023622047
20
-2.1285448031496061
11
3.4262412598425196
21
-2.1267454330708659
0
LINE
8
BLACK
6
CONTINUOUS
10
3.4262412598425196
20
-2.1267454330708659
11
3.4248278346456691
21
-2.1250609842519683
0
LINE
8
BLACK
6
CONTINUOUS
10
3.4248278346456691
20
-2.1250609842519683
11
3.4135881889763779
21
-2.111666023622047
0
LINE
8
BLACK
6
CONTINUOUS
10
3.4135881889763779
20
-2.111666023622047
11
3.4128349999999998
21
-2.1108482677165354
0
LINE
8
BLACK
6
CONTINUOUS
10
3.4128349999999998
20
-2.1108482677165354
11
3.4128350393700786
21
-2.1108482677165354
0
LINE
8
BLACK
6
CONTINUOUS
10
3.4128350393700786
20
-2.1108482677165354
11
3.4125097244094489
21
-2.1106278740157478
0
LINE
8
BLACK
6
CONTINUOUS
10
3.4125097244094489
20
-2.1106278740157478
11
3.4091730708661419
21
-2.1083672834645668
0
LINE
8
BLACK
6
CONTINUOUS
10
3.4091730708661419
20
-2.1083672834645668
11
3.4091730314960631
21
-2.1083672440944881
0
LINE
8
BLACK
6
CONTINUOUS
10
3.4091730314960631
20
-2.1083672440944881
11
3.4091729527559056
21
-2.1083672047244093
0
LINE
8
BLACK
6
CONTINUOUS
10
3.4091729527559056
20
-2.1083672047244093
11
3.4048624803149607
21
-2.1073767322834644
0
LINE
8
BLACK
6
CONTINUOUS
10
3.4048624803149607
20
-2.1073767322834644
11
3.4048622047244095
21
-2.1073767322834644
0
LINE
8
BLACK
6
CONTINUOUS
10
3.4048622047244095
20
-2.1073767322834644
11
3.4004848031496064
21
-2.108010275590551
0
LINE
8
BLACK
6
CONTINUOUS
10
3.4004848031496064
20
-2.108010275590551
11
3.3966318897637793
21
-2.1101822834645669
0
LINE
8
BLACK
6
CONTINUOUS
10
3.3966318897637793
20
-2.1101822834645669
11
3.396631771653543
21
-2.1101823622047244
0
LINE
8
BLACK
6
CONTINUOUS
10
3.396631771653543
20
-2.1101823622047244
11
3.396776181102362
21
-2.1103544488188977
0
LINE
8
BLACK
6
CONTINUOUS
10
3.396776181102362
20
-2.1103544488188977
11
3.3832044881889765
21
-2.121742401574803
0
LINE
8
BLACK
6
CONTINUOUS
10
3.3832044881889765
20
-2.121742401574803
11
3.3907964960629919
21
-2.1307901574803148
0
LINE
8
BLACK
6
CONTINUOUS
10
3.3907964960629919
20
-2.1307901574803148
11
3.4043681889763779
21
-2.1194022047244094
0
LINE
8
BLACK
6
CONTINUOUS
10
3.4043681889763779
20
-2.1194022047244094
11
3.4170214566929134
21
-2.1344818110236221
0
LINE
8
BLACK
6
CONTINUOUS
10
3.4170214566929134
20
-2.1344818110236221
11
3.4168679921259844
21
-2.1346105905511812
0
LINE
8
BLACK
6
CONTINUOUS
10
3.4168679921259844
20
-2.1346105905511812
11
3.4186687401574805
21
-2.1367566535433071
0
LINE
8
BLACK
6
CONTINUOUS
10
3.4186687401574805
20
-2.1367566535433071
11
3.4209151574803149
21
-2.1418896062992125
0
LINE
8
BLACK
6
CONTINUOUS
10
3.4209151574803149
20
-2.1418896062992125
11
3.4216244094488188
21
-2.147447440944882
0
LINE
8
BLACK
6
CONTINUOUS
10
3.4216244094488188
20
-2.147447440944882
11
3.4207391338582678
21
-2.1529800393700786
0
LINE
8
BLACK
6
CONTINUOUS
10
3.4207391338582678
20
-2.1529800393700786
11
3.4183310236220472
21
-2.1580390551181101
0
LINE
8
BLACK
6
CONTINUOUS
10
3.4183310236220472
20
-2.1580390551181101
11
3.4145951574803148
21
-2.162214724409449
0
LINE
8
BLACK
6
CONTINUOUS
10
3.4145951574803148
20
-2.162214724409449
11
3.3995155511811022
21
-2.1748680314960631
0
LINE
8
BLACK
6
CONTINUOUS
10
3.3995155511811022
20
-2.1748680314960631
11
3.3947545669291337
21
-2.1778220472440943
0
LINE
8
BLACK
6
CONTINUOUS
10
3.3947545669291337
20
-2.1778220472440943
11
3.3914492913385827
21
-2.1787358267716534
0
LINE
8
BLACK
6
CONTINUOUS
10
3.3914492913385827
20
-2.1787358267716534
11
3.3914492913385827
21
-2.191576181102362
0
LINE
8
BLACK
6
CONTINUOUS
10
3.3914492913385827
20
-2.191576181102362
11
3.4561632283464565
21
-2.2562901181102362
0
LINE
8
BLACK
6
CONTINUOUS
10
3.4561632283464565
20
-2.2562901181102362
11
3.4566899212598425
21
-2.2569936614173227
0
LINE
8
BLACK
6
CONTINUOUS
10
3.4566899212598425
20
-2.2569936614173227
11
3.4568233858267714
21
-2.2571093307086612
0
LINE
8
BLACK
6
CONTINUOUS
10
3.4568233858267714
20
-2.2571093307086612
11
3.4568536220472441
21
-2.2572123622047244
0
LINE
8
BLACK
6
CONTINUOUS
10
3.4568536220472441
20
-2.2572123622047244
11
3.4570026771653541
21
-2.2574114566929135
0
LINE
8
BLACK
6
CONTINUOUS
10
3.4570026771653541
20
-2.2574114566929135
11
3.4572615748031494
21
-2.2586017716535434
0
LINE
8
BLACK
6
CONTINUOUS
10
3.4572615748031494
20
-2.2586017716535434
11
3.4576046062992125
21
-2.2597699606299213
0
LINE
8
BLACK
6
CONTINUOUS
10
3.4576046062992125
20
-2.2597699606299213
11
3.4576046062992125
21
-2.2902412992125982
0
LINE
8
BLACK
6
CONTINUOUS
10
3.4576046062992125
20
-2.2902412992125982
11
3.461939803149606
21
-2.2924502362204722
0
LINE
8
BLACK
6
CONTINUOUS
10
3.461939803149606
20
-2.2924502362204722
11
3.4654237795275589
21
-2.295934212598425
0
LINE
8
BLACK
6
CONTINUOUS
10
3.4654237795275589
20
-2.295934212598425
11
3.4676606299212596
21
-2.3003242519685041
0
LINE
8
BLACK
6
CONTINUOUS
10
3.4676606299212596
20
-2.3003242519685041
11
3.468431377952756
21
-2.3051906692913384
0
LINE
8
BLACK
6
CONTINUOUS
10
3.468431377952756
20
-2.3051906692913384
11
3.4676606299212596
21
-2.3100570866141732
0
LINE
8
BLACK
6
CONTINUOUS
10
3.4676606299212596
20
-2.3100570866141732
11
3.4654237795275589
21
-2.3144471259842518
0
LINE
8
BLACK
6
CONTINUOUS
10
3.4654237795275589
20
-2.3144471259842518
11
3.461939803149606
21
-2.3179311023622047
0
LINE
8
BLACK
6
CONTINUOUS
10
3.461939803149606
20
-2.3179311023622047
11
3.4575497637795274
21
-2.3201679527559054
0
LINE
8
BLACK
6
CONTINUOUS
10
3.4575497637795274
20
-2.3201679527559054
11
3.4526833464566926
21
-2.3209387007874014
0
LINE
8
BLACK
6
CONTINUOUS
10
3.4526833464566926
20
-2.3209387007874014
11
3.4478169291338583
21
-2.3201679527559054
0
LINE
8
BLACK
6
CONTINUOUS
10
3.4478169291338583
20
-2.3201679527559054
11
3.4434268897637796
21
-2.3179311023622047
0
LINE
8
BLACK
6
CONTINUOUS
10
3.4434268897637796
20
-2.3179311023622047
11
3.4399429133858268
21
-2.3144471259842518
0
LINE
8
BLACK
6
CONTINUOUS
10
3.4399429133858268
20
-2.3144471259842518
11
3.4377060629921261
21
-2.3100570866141732
0
LINE
8
BLACK
6
CONTINUOUS
10
3.4377060629921261
20
-2.3100570866141732
11
3.4369353149606297
21
-2.3051906692913384
0
LINE
8
BLACK
6
CONTINUOUS
10
3.4369353149606297
20
-2.3051906692913384
11
3.4377060629921261
21
-2.3003242519685041
0
LINE
8
BLACK
6
CONTINUOUS
10
3.4377060629921261
20
-2.3003242519685041
11
3.4399429133858268
21
-2.295934212598425
0
LINE
8
BLACK
6
CONTINUOUS
10
3.4399429133858268
20
-2.295934212598425
11
3.4434268897637796
21
-2.2924502362204722
0
LINE
8
BLACK
6
CONTINUOUS
10
3.4434268897637796
20
-2.2924502362204722
11
3.4477620866141732
21
-2.2902412992125982
0
LINE
8
BLACK
6
CONTINUOUS
10
3.4477620866141732
20
-2.2902412992125982
11
3.4477620866141732
21
-2.2618083858267717
0
LINE
8
BLACK
6
CONTINUOUS
10
3.4477620866141732
20
-2.2618083858267717
11
3.3830481889763777
21
-2.1970944881889762
0
LINE
8
BLACK
6
CONTINUOUS
10
3.3830481889763777
20
-2.1970944881889762
11
3.3825215354330709
21
-2.1963909842519684
0
LINE
8
BLACK
6
CONTINUOUS
10
3.3825215354330709
20
-2.1963909842519684
11
3.3823879921259841
21
-2.1962752755905512
0
LINE
8
BLACK
6
CONTINUOUS
10
3.3823879921259841
20
-2.1962752755905512
11
3.3823576771653543
21
-2.1961721259842517
0
LINE
8
BLACK
6
CONTINUOUS
10
3.3823576771653543
20
-2.1961721259842517
11
3.3822087401574801
21
-2.1959731496062993
0
LINE
8
BLACK
6
CONTINUOUS
10
3.3822087401574801
20
-2.1959731496062993
11
3.3819498425196848
21
-2.1947830314960628
0
LINE
8
BLACK
6
CONTINUOUS
10
3.3819498425196848
20
-2.1947830314960628
11
3.3816067716535434
21
-2.1936146456692911
0
LINE
8
BLACK
6
CONTINUOUS
10
3.3816067716535434
20
-2.1936146456692911
11
3.3816067716535434
21
-2.1785591338582675
0
LINE
8
BLACK
6
CONTINUOUS
10
3.3816067716535434
20
-2.1785591338582675
11
3.3784017322834643
21
-2.1775625984251969
0
LINE
8
BLACK
6
CONTINUOUS
10
3.3784017322834643
20
-2.1775625984251969
11
3.3737368503937009
21
-2.1744589763779527
0
LINE
8
BLACK
6
CONTINUOUS
10
3.3737368503937009
20
-2.1744589763779527
11
3.3719361023622048
21
-2.1723129527559055
0
LINE
8
BLACK
6
CONTINUOUS
10
3.3719361023622048
20
-2.1723129527559055
11
3.3717826377952753
21
-2.1724417322834646
0
LINE
8
BLACK
6
CONTINUOUS
10
3.3717826377952753
20
-2.1724417322834646
11
3.3591293307086612
21
-2.1573620866141732
0
LINE
8
BLACK
6
CONTINUOUS
10
3.3591293307086612
20
-2.1573620866141732
11
3.3727009842519684
21
-2.1459740944881891
0
LINE
8
BLACK
6
CONTINUOUS
10
3.3727009842519684
20
-2.1459740944881891
11
3.3651089763779525
21
-2.1369263385826773
0
LINE
8
BLACK
6
CONTINUOUS
10
3.3651089763779525
20
-2.1369263385826773
11
3.3515373228346457
21
-2.1483143307086614
0
LINE
8
BLACK
6
CONTINUOUS
10
3.3515373228346457
20
-2.1483143307086614
11
3.3513929527559054
21
-2.1481422440944882
0
LINE
8
BLACK
6
CONTINUOUS
10
3.3513929527559054
20
-2.1481422440944882
11
3.3509023622047245
21
-2.1485941338582677
0
LINE
8
BLACK
6
CONTINUOUS
10
3.3509023622047245
20
-2.1485941338582677
11
3.3505754724409447
21
-2.1488952362204725
0
LINE
8
BLACK
6
CONTINUOUS
10
3.3505754724409447
20
-2.1488952362204725
11
3.3505751181102363
21
-2.1488956299212596
0
LINE
8
BLACK
6
CONTINUOUS
10
3.3505751181102363
20
-2.1488956299212596
11
3.348094409448819
21
-2.1525571259842518
0
LINE
8
BLACK
6
CONTINUOUS
10
3.348094409448819
20
-2.1525571259842518
11
3.3480943307086615
21
-2.1525572834645668
0
LINE
8
BLACK
6
CONTINUOUS
10
3.3480943307086615
20
-2.1525572834645668
11
3.3471038582677166
21
-2.1568677559055116
0
LINE
8
BLACK
6
CONTINUOUS
10
3.3471038582677166
20
-2.1568677559055116
11
3.3471038582677166
21
-2.1568680314960629
0
LINE
8
BLACK
6
CONTINUOUS
10
3.3471038582677166
20
-2.1568680314960629
11
3.3473776377952755
21
-2.158759842519685
0
LINE
8
BLACK
6
CONTINUOUS
10
3.3473776377952755
20
-2.158759842519685
11
3.3477374015748032
21
-2.1612453937007872
0
LINE
8
BLACK
6
CONTINUOUS
10
3.3477374015748032
20
-2.1612453937007872
11
3.3487131102362202
21
-2.1629762204724408
0
LINE
8
BLACK
6
CONTINUOUS
10
3.3487131102362202
20
-2.1629762204724408
11
3.3499095275590549
21
-2.1650985433070864
0
LINE
8
BLACK
6
CONTINUOUS
10
3.3499095275590549
20
-2.1650985433070864
11
3.3604025984251966
21
-2.1776037007874014
0
LINE
8
BLACK
6
CONTINUOUS
10
3.3604025984251966
20
-2.1776037007874014
11
3.3607435039370079
21
-2.1780099606299212
0
LINE
8
BLACK
6
CONTINUOUS
10
3.3607435039370079
20
-2.1780099606299212
11
3.3643820866141732
21
-2.1823462204724411
0
LINE
8
BLACK
6
CONTINUOUS
10
3.3643820866141732
20
-2.1823462204724411
11
3.3643822047244094
21
-2.1823462992125986
0
LINE
8
BLACK
6
CONTINUOUS
10
3.3643822047244094
20
-2.1823462992125986
11
3.3643823622047244
21
-2.1823464960629919
0
LINE
8
BLACK
6
CONTINUOUS
10
3.3643823622047244
20
-2.1823464960629919
11
3.366934960629921
21
-2.1846302362204724
0
LINE
8
BLACK
6
CONTINUOUS
10
3.366934960629921
20
-2.1846302362204724
11
3.3669350393700785
21
-2.1846302755905511
0
LINE
8
BLACK
6
CONTINUOUS
10
3.3669350393700785
20
-2.1846302755905511
11
3.366935118110236
21
-2.1846303543307086
0
LINE
8
BLACK
6
CONTINUOUS
10
3.366935118110236
20
-2.1846303543307086
11
3.3695559448818897
21
-2.1863740157480316
0
LINE
8
BLACK
6
CONTINUOUS
10
3.3695559448818897
20
-2.1863740157480316
11
3.3716480314960631
21
-2.187765905511811
0
LINE
8
BLACK
6
CONTINUOUS
10
3.3716480314960631
20
-2.187765905511811
11
3.3717372440944882
21
-2.1878164566929135
0
LINE
8
BLACK
6
CONTINUOUS
10
3.3717372440944882
20
-2.1878164566929135
11
3.3717577952755904
21
-2.1878388976377954
0
LINE
8
BLACK
6
CONTINUOUS
10
3.3717577952755904
20
-2.1878388976377954
11
3.3717638582677165
21
-2.1878429527559056
0
LINE
8
BLACK
6
CONTINUOUS
10
3.3717638582677165
20
-2.1878429527559056
11
3.3717628346456694
21
-2.1878444488188977
0
LINE
8
BLACK
6
CONTINUOUS
10
3.3717628346456694
20
-2.1878444488188977
11
3.373363346456693
21
-2.1895936614173226
0
LINE
8
BLACK
6
CONTINUOUS
10
3.373363346456693
20
-2.1895936614173226
11
3.3737130708661418
21
-2.1912073622047243
0
LINE
8
BLACK
6
CONTINUOUS
10
3.3737130708661418
20
-2.1912073622047243
11
3.3737130708661418
21
-2.1929699606299211
0
LINE
8
BLACK
6
CONTINUOUS
10
3.3737130708661418
20
-2.1929699606299211
11
3.3737056692913385
21
-2.1931393307086613
0
LINE
8
BLACK
6
CONTINUOUS
10
3.3737056692913385
20
-2.1931393307086613
11
3.3735921653543306
21
-2.1944367716535433
0
LINE
8
BLACK
6
CONTINUOUS
10
3.3735921653543306
20
-2.1944367716535433
11
3.3735648818897639
21
-2.1947487401574803
0
LINE
8
BLACK
6
CONTINUOUS
10
3.3735648818897639
20
-2.1947487401574803
11
3.3739829133858268
21
-2.1963089763779529
0
LINE
8
BLACK
6
CONTINUOUS
10
3.3739829133858268
20
-2.1963089763779529
11
3.3740197244094485
21
-2.1964749606299212
0
LINE
8
BLACK
6
CONTINUOUS
10
3.3740197244094485
20
-2.1964749606299212
11
3.3743001181102361
21
-2.1980652362204722
0
LINE
8
BLACK
6
CONTINUOUS
10
3.3743001181102361
20
-2.1980652362204722
11
3.3743297637795275
21
-2.198116535433071
0
LINE
8
BLACK
6
CONTINUOUS
10
3.3743297637795275
20
-2.198116535433071
11
3.3747191338582678
21
-2.1990565354330709
0
LINE
8
BLACK
6
CONTINUOUS
10
3.3747191338582678
20
-2.1990565354330709
11
3.3747344488188977
21
-2.1991138188976378
0
LINE
8
BLACK
6
CONTINUOUS
10
3.3747344488188977
20
-2.1991138188976378
11
3.374734566929134
21
-2.1991140157480316
0
LINE
8
BLACK
6
CONTINUOUS
10
3.374734566929134
20
-2.1991140157480316
11
3.3756607480314962
21
-2.2004367322834644
0
LINE
8
BLACK
6
CONTINUOUS
10
3.3756607480314962
20
-2.2004367322834644
11
3.3757521259842518
21
-2.200580157480315
0
LINE
8
BLACK
6
CONTINUOUS
10
3.3757521259842518
20
-2.200580157480315
11
3.3765597637795275
21
-2.2019790157480315
0
LINE
8
BLACK
6
CONTINUOUS
10
3.3765597637795275
20
-2.2019790157480315
11
3.3777966929133858
21
-2.2030169291338582
0
LINE
8
BLACK
6
CONTINUOUS
10
3.3777966929133858
20
-2.2030169291338582
11
3.3779221259842518
21
-2.2031318503937007
0
LINE
8
BLACK
6
CONTINUOUS
10
3.3779221259842518
20
-2.2031318503937007
11
3.438726811023622
21
-2.2639364960629922
0
LINE
8
BLACK
6
CONTINUOUS
10
3.438726811023622
20
-2.2639364960629922
11
3.4398203937007872
21
-2.2660828346456694
0
LINE
8
BLACK
6
CONTINUOUS
10
3.4398203937007872
20
-2.2660828346456694
11
3.4398683858267716
21
-2.2666925590551181
0
LINE
8
BLACK
6
CONTINUOUS
10
3.4398683858267716
20
-2.2666925590551181
11
3.4398683858267716
21
-2.2833020078740156
0
LINE
8
BLACK
6
CONTINUOUS
10
3.4398683858267716
20
-2.2833020078740156
11
3.4391240157480314
21
-2.2855929921259843
0
LINE
8
BLACK
6
CONTINUOUS
10
3.4391240157480314
20
-2.2855929921259843
11
3.4383435039370078
21
-2.2863942125984251
0
LINE
8
BLACK
6
CONTINUOUS
10
3.4383435039370078
20
-2.2863942125984251
11
3.4358218503937006
21
-2.2883291338582676
0
LINE
8
BLACK
6
CONTINUOUS
10
3.4358218503937006
20
-2.2883291338582676
11
3.4320322440944881
21
-2.2932678346456692
0
LINE
8
BLACK
6
CONTINUOUS
10
3.4320322440944881
20
-2.2932678346456692
11
3.4320322440944881
21
-2.2932678740157479
0
LINE
8
BLACK
6
CONTINUOUS
10
3.4320322440944881
20
-2.2932678740157479
11
3.4296501574803151
21
-2.2990187401574804
0
LINE
8
BLACK
6
CONTINUOUS
10
3.4296501574803151
20
-2.2990187401574804
11
3.4296500787401576
21
-2.29901905511811
0
LINE
8
BLACK
6
CONTINUOUS
10
3.4296500787401576
20
-2.29901905511811
11
3.4288375984251966
21
-2.3051906299212597
0
LINE
8
BLACK
6
CONTINUOUS
10
3.4288375984251966
20
-2.3051906299212597
11
3.4288375984251966
21
-2.3051906692913384
0
LINE
8
BLACK
6
CONTINUOUS
10
3.4288375984251966
20
-2.3051906692913384
11
3.4296500787401576
21
-2.3113622440944881
0
LINE
8
BLACK
6
CONTINUOUS
10
3.4296500787401576
20
-2.3113622440944881
11
3.4296501574803151
21
-2.3113625590551181
0
LINE
8
BLACK
6
CONTINUOUS
10
3.4296501574803151
20
-2.3113625590551181
11
3.4320322440944881
21
-2.3171134251968502
0
LINE
8
BLACK
6
CONTINUOUS
10
3.4320322440944881
20
-2.3171134251968502
11
3.4320322440944881
21
-2.3171134645669289
0
LINE
8
BLACK
6
CONTINUOUS
10
3.4320322440944881
20
-2.3171134645669289
11
3.4358216535433068
21
-2.3220519291338584
0
LINE
8
BLACK
6
CONTINUOUS
10
3.4358216535433068
20
-2.3220519291338584
11
3.4358218503937006
21
-2.3220521653543305
0
LINE
8
BLACK
6
CONTINUOUS
10
3.4358218503937006
20
-2.3220521653543305
11
3.4407604724409446
21
-2.3258416929133858
0
LINE
8
BLACK
6
CONTINUOUS
10
3.4407604724409446
20
-2.3258416929133858
11
3.4407605118110234
21
-2.3258416929133858
0
LINE
8
BLACK
6
CONTINUOUS
10
3.4407605118110234
20
-2.3258416929133858
11
3.4407605511811021
21
-2.3258417322834646
0
LINE
8
BLACK
6
CONTINUOUS
10
3.4407605511811021
20
-2.3258417322834646
11
3.4465114173228346
21
-2.3282238188976376
0
LINE
8
BLACK
6
CONTINUOUS
10
3.4465114173228346
20
-2.3282238188976376
11
3.4465116141732284
21
-2.3282238976377951
0
LINE
8
BLACK
6
CONTINUOUS
10
3.4465116141732284
20
-2.3282238976377951
11
3.4511403937007872
21
-2.3288332677165355
0
LINE
8
BLACK
6
CONTINUOUS
10
3.4511403937007872
20
-2.3288332677165355
11
3.4526833070866143
21
-2.3290364173228344
0
LINE
8
BLACK
6
CONTINUOUS
10
3.4526833070866143
20
-2.3290364173228344
11
3.4526833464566926
21
-2.3290364173228344
0
LINE
8
BLACK
6
CONTINUOUS
10
3.4526833464566926
20
-2.3290364173228344
11
3.4526833858267714
21
-2.3290364173228344
0
LINE
8
BLACK
6
CONTINUOUS
10
3.4526833858267714
20
-2.3290364173228344
11
3.4539176771653541
21
-2.3288738976377954
0
LINE
8
BLACK
6
CONTINUOUS
10
3.4539176771653541
20
-2.3288738976377954
11
3.4588550787401573
21
-2.3282238976377951
0
LINE
8
BLACK
6
CONTINUOUS
10
3.4588550787401573
20
-2.3282238976377951
11
3.464606220472441
21
-2.3258416929133858
0
LINE
8
BLACK
6
CONTINUOUS
10
3.464606220472441
20
-2.3258416929133858
11
3.4695448425196851
21
-2.3220521653543305
0
LINE
8
BLACK
6
CONTINUOUS
10
3.4695448425196851
20
-2.3220521653543305
11
3.47333437007874
21
-2.3171135433070864
0
LINE
8
BLACK
6
CONTINUOUS
10
3.47333437007874
20
-2.3171135433070864
11
3.4757165748031493
21
-2.3113624015748031
0
LINE
8
BLACK
6
CONTINUOUS
10
3.4757165748031493
20
-2.3113624015748031
11
3.476529094488189
21
-2.3051906692913384
0
LINE
8
BLACK
6
CONTINUOUS
10
3.476529094488189
20
-2.3051906692913384
11
3.4765128740157478
21
-2.3050675984251967
0
LINE
8
BLACK
6
CONTINUOUS
10
3.4765128740157478
20
-2.3050675984251967
11
3.476529094488189
21
-2.304980157480315
0
LINE
8
BLACK
6
CONTINUOUS
10
3.476529094488189
20
-2.304980157480315
11
3.476529094488189
21
-2.3049351968503937
0
LINE
8
BLACK
6
CONTINUOUS
10
3.476529094488189
20
-2.3049351968503937
11
3.4765374409448819
21
-2.3049351968503937
0
LINE
8
BLACK
6
CONTINUOUS
10
3.4765374409448819
20
-2.3049351968503937
11
3.4769516535433072
21
-2.3026991732283464
0
LINE
8
BLACK
6
CONTINUOUS
10
3.4769516535433072
20
-2.3026991732283464
11
3.4786988188976378
21
-2.3010408661417321
0
LINE
8
BLACK
6
CONTINUOUS
10
3.4786988188976378
20
-2.3010408661417321
11
3.4810870866141732
21
-2.3007262204724408
0
LINE
8
BLACK
6
CONTINUOUS
10
3.4810870866141732
20
-2.3007262204724408
11
3.4811375590551181
21
-2.3007359448818896
0
LINE
8
BLACK
6
CONTINUOUS
10
3.4811375590551181
20
-2.3007359448818896
11
3.4834740551181103
21
-2.3012007086614172
0
LINE
8
BLACK
6
CONTINUOUS
10
3.4834740551181103
20
-2.3012007086614172
11
3.483474251968504
21
-2.3012007086614172
0
LINE
8
BLACK
6
CONTINUOUS
10
3.483474251968504
20
-2.3012007086614172
11
3.4834744881889761
21
-2.3012007874015747
0
LINE
8
BLACK
6
CONTINUOUS
10
3.4834744881889761
20
-2.3012007874015747
11
3.4872244094488187
21
-2.3012007874015747
0
LINE
8
BLACK
6
CONTINUOUS
10
3.4872244094488187
20
-2.3012007874015747
11
3.4895153937007874
21
-2.3019451574803149
0
LINE
8
BLACK
6
CONTINUOUS
10
3.4895153937007874
20
-2.3019451574803149
11
3.4909312992125985
21
-2.3038939763779527
0
LINE
8
BLACK
6
CONTINUOUS
10
3.4909312992125985
20
-2.3038939763779527
11
3.4911220472440943
21
-2.3050984251968503
0
LINE
8
BLACK
6
CONTINUOUS
10
3.4911220472440943
20
-2.3050984251968503
11
3.4911220472440943
21
-2.3927362204724409
0
LINE
8
BLACK
6
CONTINUOUS
10
3.4911220472440943
20
-2.3927362204724409
11
3.4903776771653541
21
-2.3950272047244092
0
LINE
8
BLACK
6
CONTINUOUS
10
3.4903776771653541
20
-2.3950272047244092
11
3.4884288582677163
21
-2.3964431102362203
0
LINE
8
BLACK
6
CONTINUOUS
10
3.4884288582677163
20
-2.3964431102362203
11
3.4872244094488187
21
-2.3966338582677165
0
LINE
8
BLACK
6
CONTINUOUS
10
3.4872244094488187
20
-2.3966338582677165
11
3.4844226771653544
21
-2.3966338582677165
0
LINE
8
BLACK
6
CONTINUOUS
10
3.4844226771653544
20
-2.3966338582677165
11
3.4821316929133856
21
-2.3958894881889763
0
LINE
8
BLACK
6
CONTINUOUS
10
3.4821316929133856
20
-2.3958894881889763
11
3.4813305511811024
21
-2.3951090157480315
0
LINE
8
BLACK
6
CONTINUOUS
10
3.4813305511811024
20
-2.3951090157480315
11
3.4778851181102359
21
-2.3906188188976376
0
LINE
8
BLACK
6
CONTINUOUS
10
3.4778851181102359
20
-2.3906188188976376
11
3.4778849212598426
21
-2.3906186614173226
0
LINE
8
BLACK
6
CONTINUOUS
10
3.4778849212598426
20
-2.3906186614173226
11
3.4778848818897639
21
-2.3906186220472438
0
LINE
8
BLACK
6
CONTINUOUS
10
3.4778848818897639
20
-2.3906186220472438
11
3.4729463779527556
21
-2.3868292125984252
0
LINE
8
BLACK
6
CONTINUOUS
10
3.4729463779527556
20
-2.3868292125984252
11
3.4671955118110236
21
-2.3844471259842521
0
LINE
8
BLACK
6
CONTINUOUS
10
3.4671955118110236
20
-2.3844471259842521
11
3.4671951968503936
21
-2.3844470472440946
0
LINE
8
BLACK
6
CONTINUOUS
10
3.4671951968503936
20
-2.3844470472440946
11
3.4610236614173226
21
-2.3836345669291337
0
LINE
8
BLACK
6
CONTINUOUS
10
3.4610236614173226
20
-2.3836345669291337
11
3.4610235826771651
21
-2.3836345669291337
0
LINE
8
BLACK
6
CONTINUOUS
10
3.4610235826771651
20
-2.3836345669291337
11
3.4548520078740155
21
-2.3844470472440946
0
LINE
8
BLACK
6
CONTINUOUS
10
3.4548520078740155
20
-2.3844470472440946
11
3.4548516929133859
21
-2.3844471259842521
0
LINE
8
BLACK
6
CONTINUOUS
10
3.4548516929133859
20
-2.3844471259842521
11
3.4491008267716534
21
-2.3868292125984252
0
LINE
8
BLACK
6
CONTINUOUS
10
3.4491008267716534
20
-2.3868292125984252
11
3.4491007874015747
21
-2.3868292125984252
0
LINE
8
BLACK
6
CONTINUOUS
10
3.4491007874015747
20
-2.3868292125984252
11
3.4441623228346456
21
-2.3906186220472438
0
LINE
8
BLACK
6
CONTINUOUS
10
3.4441623228346456
20
-2.3906186220472438
11
3.4441619291338581
21
-2.3906190157480314
0
LINE
8
BLACK
6
CONTINUOUS
10
3.4441619291338581
20
-2.3906190157480314
11
3.4403725196850394
21
-2.3955574803149604
0
LINE
8
BLACK
6
CONTINUOUS
10
3.4403725196850394
20
-2.3955574803149604
11
3.4403725196850394
21
-2.3955575196850392
0
LINE
8
BLACK
6
CONTINUOUS
10
3.4403725196850394
20
-2.3955575196850392
11
3.4379904330708659
21
-2.4013083858267716
0
LINE
8
BLACK
6
CONTINUOUS
10
3.4379904330708659
20
-2.4013083858267716
11
3.4379903543307084
21
-2.4013087007874017
0
LINE
8
BLACK
6
CONTINUOUS
10
3.4379903543307084
20
-2.4013087007874017
11
3.4371778740157479
21
-2.4074802755905513
0
LINE
8
BLACK
6
CONTINUOUS
10
3.4371778740157479
20
-2.4074802755905513
11
3.4371778740157479
21
-2.4074803149606301
0
LINE
8
BLACK
6
CONTINUOUS
10
3.4371778740157479
20
-2.4074803149606301
11
3.4379903543307084
21
-2.4136518897637793
0
LINE
8
BLACK
6
CONTINUOUS
10
3.4379903543307084
20
-2.4136518897637793
11
3.4379904330708659
21
-2.4136522047244093
0
LINE
8
BLACK
6
CONTINUOUS
10
3.4379904330708659
20
-2.4136522047244093
11
3.4403725196850394
21
-2.4194030708661418
0
LINE
8
BLACK
6
CONTINUOUS
10
3.4403725196850394
20
-2.4194030708661418
11
3.4403725196850394
21
-2.4194031102362206
0
LINE
8
BLACK
6
CONTINUOUS
10
3.4403725196850394
20
-2.4194031102362206
11
3.4435120078740158
21
-2.4234945669291337
0
LINE
8
BLACK
6
CONTINUOUS
10
3.4435120078740158
20
-2.4234945669291337
11
3.4441621259842519
21
-2.4243418110236221
0
LINE
8
BLACK
6
CONTINUOUS
10
3.4441621259842519
20
-2.4243418110236221
11
3.4491007480314959
21
-2.428131338582677
0
LINE
8
BLACK
6
CONTINUOUS
10
3.4491007480314959
20
-2.428131338582677
11
3.4491007874015747
21
-2.428131338582677
0
LINE
8
BLACK
6
CONTINUOUS
10
3.4491007874015747
20
-2.428131338582677
11
3.4491008267716534
21
-2.4281313779527558
0
LINE
8
BLACK
6
CONTINUOUS
10
3.4491008267716534
20
-2.4281313779527558
11
3.4548516929133859
21
-2.4305134645669293
0
LINE
8
BLACK
6
CONTINUOUS
10
3.4548516929133859
20
-2.4305134645669293
11
3.4548518897637797
21
-2.4305135433070864
0
LINE
8
BLACK
6
CONTINUOUS
10
3.4548518897637797
20
-2.4305135433070864
11
3.4594806692913385
21
-2.4311229133858268
0
LINE
8
BLACK
6
CONTINUOUS
10
3.4594806692913385
20
-2.4311229133858268
11
3.4610235826771651
21
-2.4313260629921261
0
LINE
8
BLACK
6
CONTINUOUS
10
3.4610235826771651
20
-2.4313260629921261
11
3.4610236220472439
21
-2.4313260629921261
0
LINE
8
BLACK
6
CONTINUOUS
10
3.4610236220472439
20
-2.4313260629921261
11
3.4610236614173226
21
-2.4313260629921261
0
LINE
8
BLACK
6
CONTINUOUS
10
3.4610236614173226
20
-2.4313260629921261
11
3.4622579527559054
21
-2.4311635433070866
0
LINE
8
BLACK
6
CONTINUOUS
10
3.4622579527559054
20
-2.4311635433070866
11
3.4671953543307086
21
-2.4305135433070864
0
LINE
8
BLACK
6
CONTINUOUS
10
3.4671953543307086
20
-2.4305135433070864
11
3.4709691338582678
21
-2.4289503543307087
0
LINE
8
BLACK
6
CONTINUOUS
10
3.4709691338582678
20
-2.4289503543307087
11
3.4733705118110234
21
-2.4287613779527559
0
LINE
8
BLACK
6
CONTINUOUS
10
3.4733705118110234
20
-2.4287613779527559
11
3.4754244094488187
21
-2.4300199999999998
0
LINE
8
BLACK
6
CONTINUOUS
10
3.4754244094488187
20
-2.4300199999999998
11
3.4763462598425194
21
-2.4322455118110238
0
LINE
8
BLACK
6
CONTINUOUS
10
3.4763462598425194
20
-2.4322455118110238
11
3.4763582677165354
21
-2.4325513385826771
0
LINE
8
BLACK
6
CONTINUOUS
10
3.4763582677165354
20
-2.4325513385826771
11
3.4763582677165354
21
-2.4695078740157479
0
LINE
8
BLACK
6
CONTINUOUS
10
3.4763582677165354
20
-2.4695078740157479
11
3.4756138976377953
21
-2.4717988582677166
0
LINE
8
BLACK
6
CONTINUOUS
10
3.4756138976377953
20
-2.4717988582677166
11
3.4736650787401575
21
-2.4732147637795276
0
LINE
8
BLACK
6
CONTINUOUS
10
3.4736650787401575
20
-2.4732147637795276
11
3.4724606299212599
21
-2.4734055118110234
0
LINE
8
BLACK
6
CONTINUOUS
10
3.4724606299212599
20
-2.4734055118110234
11
3.4451169291338584
21
-2.4734055118110234
0
LINE
8
BLACK
6
CONTINUOUS
10
3.4451169291338584
20
-2.4734055118110234
11
3.4428259448818896
21
-2.4726611417322832
0
LINE
8
BLACK
6
CONTINUOUS
10
3.4428259448818896
20
-2.4726611417322832
11
3.4420247244094488
21
-2.4718805905511809
0
LINE
8
BLACK
6
CONTINUOUS
10
3.4420247244094488
20
-2.4718805905511809
11
3.4400899606299213
21
-2.4693591338582674
0
LINE
8
BLACK
6
CONTINUOUS
10
3.4400899606299213
20
-2.4693591338582674
11
3.4400898425196851
21
-2.4693589763779529
0
LINE
8
BLACK
6
CONTINUOUS
10
3.4400898425196851
20
-2.4693589763779529
11
3.4400896456692913
21
-2.4693588188976379
0
LINE
8
BLACK
6
CONTINUOUS
10
3.4400896456692913
20
-2.4693588188976379
11
3.4400896062992126
21
-2.4693587795275591
0
LINE
8
BLACK
6
CONTINUOUS
10
3.4400896062992126
20
-2.4693587795275591
11
3.4351511023622048
21
-2.46556937007874
0
LINE
8
BLACK
6
CONTINUOUS
10
3.4351511023622048
20
-2.46556937007874
11
3.4294002362204723
21
-2.4631872834645669
0
LINE
8
BLACK
6
CONTINUOUS
10
3.4294002362204723
20
-2.4631872834645669
11
3.4293999212598423
21
-2.4631872047244094
0
LINE
8
BLACK
6
CONTINUOUS
10
3.4293999212598423
20
-2.4631872047244094
11
3.4232283858267714
21
-2.4623747244094489
0
LINE
8
BLACK
6
CONTINUOUS
10
3.4232283858267714
20
-2.4623747244094489
11
3.4232283070866143
21
-2.4623747244094489
0
LINE
8
BLACK
6
CONTINUOUS
10
3.4232283070866143
20
-2.4623747244094489
11
3.4170567322834646
21
-2.4631872047244094
0
LINE
8
BLACK
6
CONTINUOUS
10
3.4170567322834646
20
-2.4631872047244094
11
3.4170564173228346
21
-2.4631872834645669
0
LINE
8
BLACK
6
CONTINUOUS
10
3.4170564173228346
20
-2.4631872834645669
11
3.4113055511811021
21
-2.46556937007874
0
LINE
8
BLACK
6
CONTINUOUS
10
3.4113055511811021
20
-2.46556937007874
11
3.4113055118110234
21
-2.46556937007874
0
LINE
8
BLACK
6
CONTINUOUS
10
3.4113055118110234
20
-2.46556937007874
11
3.4063670472440943
21
-2.4693587795275591
0
LINE
8
BLACK
6
CONTINUOUS
10
3.4063670472440943
20
-2.4693587795275591
11
3.4063666535433068
21
-2.4693591732283462
0
LINE
8
BLACK
6
CONTINUOUS
10
3.4063666535433068
20
-2.4693591732283462
11
3.4025772440944881
21
-2.4742976377952757
0
LINE
8
BLACK
6
CONTINUOUS
10
3.4025772440944881
20
-2.4742976377952757
11
3.4025772440944881
21
-2.4742976771653544
0
LINE
8
BLACK
6
CONTINUOUS
10
3.4025772440944881
20
-2.4742976771653544
11
3.4001951574803151
21
-2.4800485433070865
0
LINE
8
BLACK
6
CONTINUOUS
10
3.4001951574803151
20
-2.4800485433070865
11
3.4001950787401576
21
-2.4800488582677165
0
LINE
8
BLACK
6
CONTINUOUS
10
3.4001950787401576
20
-2.4800488582677165
11
3.3993825984251966
21
-2.4862204330708662
0
LINE
8
BLACK
6
CONTINUOUS
10
3.3993825984251966
20
-2.4862204330708662
11
3.3993825984251966
21
-2.4862204724409449
0
LINE
8
BLACK
6
CONTINUOUS
10
3.3993825984251966
20
-2.4862204724409449
11
3.4001950787401576
21
-2.4923920472440946
0
LINE
8
BLACK
6
CONTINUOUS
10
3.4001950787401576
20
-2.4923920472440946
11
3.4001951574803151
21
-2.4923923622047242
0
LINE
8
BLACK
6
CONTINUOUS
10
3.4001951574803151
20
-2.4923923622047242
11
3.4025772440944881
21
-2.4981432283464566
0
LINE
8
BLACK
6
CONTINUOUS
10
3.4025772440944881
20
-2.4981432283464566
11
3.4025772440944881
21
-2.4981432677165354
0
LINE
8
BLACK
6
CONTINUOUS
10
3.4025772440944881
20
-2.4981432677165354
11
3.4053283858267718
21
-2.5017286220472439
0
LINE
8
BLACK
6
CONTINUOUS
10
3.4053283858267718
20
-2.5017286220472439
11
3.4063668503937006
21
-2.5030819685039369
0
LINE
8
BLACK
6
CONTINUOUS
10
3.4063668503937006
20
-2.5030819685039369
11
3.4063670078740156
21
-2.5030820866141732
0
LINE
8
BLACK
6
CONTINUOUS
10
3.4063670078740156
20
-2.5030820866141732
11
3.4063670472440943
21
-2.5030821259842519
0
LINE
8
BLACK
6
CONTINUOUS
10
3.4063670472440943
20
-2.5030821259842519
11
3.4075229133858267
21
-2.5039690157480314
0
LINE
8
BLACK
6
CONTINUOUS
10
3.4075229133858267
20
-2.5039690157480314
11
3.4113054724409446
21
-2.5068714960629919
0
LINE
8
BLACK
6
CONTINUOUS
10
3.4113054724409446
20
-2.5068714960629919
11
3.4170566141732284
21
-2.5092537007874016
0
LINE
8
BLACK
6
CONTINUOUS
10
3.4170566141732284
20
-2.5092537007874016
11
3.4216853937007872
21
-2.5098630708661416
0
LINE
8
BLACK
6
CONTINUOUS
10
3.4216853937007872
20
-2.5098630708661416
11
3.4232283070866143
21
-2.5100662204724409
0
LINE
8
BLACK
6
CONTINUOUS
10
3.4232283070866143
20
-2.5100662204724409
11
3.423228346456693
21
-2.5100662204724409
0
LINE
8
BLACK
6
CONTINUOUS
10
3.423228346456693
20
-2.5100662204724409
11
3.4232283858267714
21
-2.5100662204724409
0
LINE
8
BLACK
6
CONTINUOUS
10
3.4232283858267714
20
-2.5100662204724409
11
3.4244626771653541
21
-2.5099037007874014
0
LINE
8
BLACK
6
CONTINUOUS
10
3.4244626771653541
20
-2.5099037007874014
11
3.4294000787401573
21
-2.5092537007874016
0
LINE
8
BLACK
6
CONTINUOUS
10
3.4294000787401573
20
-2.5092537007874016
11
3.435151220472441
21
-2.5068714960629919
0
LINE
8
BLACK
6
CONTINUOUS
10
3.435151220472441
20
-2.5068714960629919
11
3.4400898425196851
21
-2.5030819685039369
0
LINE
8
BLACK
6
CONTINUOUS
10
3.4400898425196851
20
-2.5030819685039369
11
3.4420247244094488
21
-2.5005603149606297
0
LINE
8
BLACK
6
CONTINUOUS
10
3.4420247244094488
20
-2.5005603149606297
11
3.4440099212598425
21
-2.4991959448818899
0
LINE
8
BLACK
6
CONTINUOUS
10
3.4440099212598425
20
-2.4991959448818899
11
3.4451169291338584
21
-2.499035433070866
0
LINE
8
BLACK
6
CONTINUOUS
10
3.4451169291338584
20
-2.499035433070866
11
3.4724606299212599
21
-2.499035433070866
0
LINE
8
BLACK
6
CONTINUOUS
10
3.4724606299212599
20
-2.499035433070866
11
3.4747516141732282
21
-2.4997798031496061
0
LINE
8
BLACK
6
CONTINUOUS
10
3.4747516141732282
20
-2.4997798031496061
11
3.4761675196850392
21
-2.5017286220472439
0
LINE
8
BLACK
6
CONTINUOUS
10
3.4761675196850392
20
-2.5017286220472439
11
3.4763582677165354
21
-2.5029330708661415
0
LINE
8
BLACK
6
CONTINUOUS
10
3.4763582677165354
20
-2.5029330708661415
11
3.4763582677165354
21
-2.5401474803149604
0
LINE
8
BLACK
6
CONTINUOUS
10
3.4763582677165354
20
-2.5401474803149604
11
3.4763583070866142
21
-2.5401479527559054
0
LINE
8
BLACK
6
CONTINUOUS
10
3.4763583070866142
20
-2.5401479527559054
11
3.4768162204724407
21
-2.5424498818897638
0
LINE
8
BLACK
6
CONTINUOUS
10
3.4768162204724407
20
-2.5424498818897638
11
3.4768162992125982
21
-2.5424501181102364
0
LINE
8
BLACK
6
CONTINUOUS
10
3.4768162992125982
20
-2.5424501181102364
11
3.4785608267716537
21
-2.5450609448818895
0
LINE
8
BLACK
6
CONTINUOUS
10
3.4785608267716537
20
-2.5450609448818895
11
3.4785609448818895
21
-2.5450611023622045
0
LINE
8
BLACK
6
CONTINUOUS
10
3.4785609448818895
20
-2.5450611023622045
11
3.4811720078740156
21
-2.5468057874015746
0
LINE
8
BLACK
6
CONTINUOUS
10
3.4811720078740156
20
-2.5468057874015746
11
3.4829224803149605
21
-2.5471539763779525
0
LINE
8
BLACK
6
CONTINUOUS
10
3.4829224803149605
20
-2.5471539763779525
11
3.4834740551181103
21
-2.5472637007874015
0
LINE
8
BLACK
6
CONTINUOUS
10
3.4834740551181103
20
-2.5472637007874015
11
3.483474251968504
21
-2.5472637007874015
0
LINE
8
BLACK
6
CONTINUOUS
10
3.483474251968504
20
-2.5472637007874015
11
3.4834744881889761
21
-2.547263779527559
0
LINE
8
BLACK
6
CONTINUOUS
10
3.4834744881889761
20
-2.547263779527559
11
3.4834745275590548
21
-2.547263779527559
0
LINE
8
BLACK
6
CONTINUOUS
10
3.4834745275590548
20
-2.547263779527559
11
3.5243994881889762
21
-2.547263779527559
0
LINE
8
BLACK
6
CONTINUOUS
10
3.5243994881889762
20
-2.547263779527559
11
3.5243995275590549
21
-2.547263779527559
0
LINE
8
BLACK
6
CONTINUOUS
10
3.5243995275590549
20
-2.547263779527559
11
3.5267020078740159
21
-2.5468057874015746
0
LINE
8
BLACK
6
CONTINUOUS
10
3.5267020078740159
20
-2.5468057874015746
11
3.5293130708661415
21
-2.5450611023622045
0
LINE
8
BLACK
6
CONTINUOUS
10
3.5293130708661415
20
-2.5450611023622045
11
3.5293130708661415
21
-2.5450610629921258
0
LINE
8
BLACK
6
CONTINUOUS
10
3.5293130708661415
20
-2.5450610629921258
11
3.5296322440944881
21
-2.5448478346456693
0
LINE
8
BLACK
6
CONTINUOUS
10
3.5296322440944881
20
-2.5448478346456693
11
3.529682559055118
21
-2.5449231496062992
0
LINE
8
BLACK
6
CONTINUOUS
10
3.529682559055118
20
-2.5449231496062992
11
3.5313564566929134
21
-2.5440700393700788
0
LINE
8
BLACK
6
CONTINUOUS
10
3.5313564566929134
20
-2.5440700393700788
11
3.5337357086614172
21
-2.5444465748031497
0
LINE
8
BLACK
6
CONTINUOUS
10
3.5337357086614172
20
-2.5444465748031497
11
3.5354392125984253
21
-2.5461497244094486
0
LINE
8
BLACK
6
CONTINUOUS
10
3.5354392125984253
20
-2.5461497244094486
11
3.5358309055118111
21
-2.548428346456693
0
LINE
8
BLACK
6
CONTINUOUS
10
3.5358309055118111
20
-2.548428346456693
11
3.5352093700787401
21
-2.5531495669291338
0
LINE
8
BLACK
6
CONTINUOUS
10
3.5352093700787401
20
-2.5531495669291338
11
3.5352093700787401
21
-2.5531496062992125
0
LINE
8
BLACK
6
CONTINUOUS
10
3.5352093700787401
20
-2.5531496062992125
11
3.5360218503937006
21
-2.5593211811023622
0
LINE
8
BLACK
6
CONTINUOUS
10
3.5360218503937006
20
-2.5593211811023622
11
3.5360219291338582
21
-2.5593214960629922
0
LINE
8
BLACK
6
CONTINUOUS
10
3.5360219291338582
20
-2.5593214960629922
11
3.5384040157480312
21
-2.5650723622047242
0
LINE
8
BLACK
6
CONTINUOUS
10
3.5384040157480312
20
-2.5650723622047242
11
3.5384040157480312
21
-2.565072401574803
0
LINE
8
BLACK
6
CONTINUOUS
10
3.5384040157480312
20
-2.565072401574803
11
3.5384040944881887
21
-2.5650724803149605
0
LINE
8
BLACK
6
CONTINUOUS
10
3.5384040944881887
20
-2.5650724803149605
11
3.5421936220472441
21
-2.5700111023622045
0
LINE
8
BLACK
6
CONTINUOUS
10
3.5421936220472441
20
-2.5700111023622045
11
3.5471322440944881
21
-2.5738006299212599
0
LINE
8
BLACK
6
CONTINUOUS
10
3.5471322440944881
20
-2.5738006299212599
11
3.5528833858267714
21
-2.5761828346456692
0
LINE
8
BLACK
6
CONTINUOUS
10
3.5528833858267714
20
-2.5761828346456692
11
3.5575121653543307
21
-2.5767922047244092
0
LINE
8
BLACK
6
CONTINUOUS
10
3.5575121653543307
20
-2.5767922047244092
11
3.5590550787401574
21
-2.5769953543307085
0
LINE
8
BLACK
6
CONTINUOUS
10
3.5590550787401574
20
-2.5769953543307085
11
3.5590551181102361
21
-2.5769953543307085
0
LINE
8
BLACK
6
CONTINUOUS
10
3.5590551181102361
20
-2.5769953543307085
11
3.5590551574803149
21
-2.5769953543307085
0
LINE
8
BLACK
6
CONTINUOUS
10
3.5590551574803149
20
-2.5769953543307085
11
3.5602894488188976
21
-2.576832834645669
0
LINE
8
BLACK
6
CONTINUOUS
10
3.5602894488188976
20
-2.576832834645669
11
3.5652268503937008
21
-2.5761828346456692
0
LINE
8
BLACK
6
CONTINUOUS
10
3.5652268503937008
20
-2.5761828346456692
11
3.5709779921259841
21
-2.5738006299212599
0
LINE
8
BLACK
6
CONTINUOUS
10
3.5709779921259841
20
-2.5738006299212599
11
3.5714461023622048
21
-2.5734413779527556
0
LINE
8
BLACK
6
CONTINUOUS
10
3.5714461023622048
20
-2.5734413779527556
11
3.5737168110236222
21
-2.5726372834645668
0
LINE
8
BLACK
6
CONTINUOUS
10
3.5737168110236222
20
-2.5726372834645668
11
3.5760264960629922
21
-2.5733213779527557
0
LINE
8
BLACK
6
CONTINUOUS
10
3.5760264960629922
20
-2.5733213779527557
11
3.5761912598425196
21
-2.5734411023622048
0
LINE
8
BLACK
6
CONTINUOUS
10
3.5761912598425196
20
-2.5734411023622048
11
3.5766598031496062
21
-2.5738006299212599
0
LINE
8
BLACK
6
CONTINUOUS
10
3.5766598031496062
20
-2.5738006299212599
11
3.5824109448818895
21
-2.5761828346456692
0
LINE
8
BLACK
6
CONTINUOUS
10
3.5824109448818895
20
-2.5761828346456692
11
3.5885826771653542
21
-2.5769953543307085
0
LINE
8
BLACK
6
CONTINUOUS
10
3.5885826771653542
20
-2.5769953543307085
11
3.5885827165354329
21
-2.5769953149606297
0
LINE
8
BLACK
6
CONTINUOUS
10
3.5885827165354329
20
-2.5769953149606297
11
3.5887565354330708
21
-2.5770182283464567
0
LINE
8
BLACK
6
CONTINUOUS
10
3.5887565354330708
20
-2.5770182283464567
11
3.590930748031496
21
-2.5780552755905513
0
LINE
8
BLACK
6
CONTINUOUS
10
3.590930748031496
20
-2.5780552755905513
11
3.5920801574803147
21
-2.5801722047244096
0
LINE
8
BLACK
6
CONTINUOUS
10
3.5920801574803147
20
-2.5801722047244096
11
3.591765748031496
21
-2.582560472440945
0
LINE
8
BLACK
6
CONTINUOUS
10
3.591765748031496
20
-2.582560472440945
11
3.5906710236220474
21
-2.5839353149606299
0
LINE
8
BLACK
6
CONTINUOUS
10
3.5906710236220474
20
-2.5839353149606299
11
3.5464944881889764
21
-2.6190011417322836
0
LINE
8
BLACK
6
CONTINUOUS
10
3.5464944881889764
20
-2.6190011417322836
11
3.5459811811023623
21
-2.6192434645669289
0
LINE
8
BLACK
6
CONTINUOUS
10
3.5459811811023623
20
-2.6192434645669289
11
3.5458210236220471
21
-2.6194900393700786
0
LINE
8
BLACK
6
CONTINUOUS
10
3.5458210236220471
20
-2.6194900393700786
11
3.5457714173228347
21
-2.6195575984251969
0
LINE
8
BLACK
6
CONTINUOUS
10
3.5457714173228347
20
-2.6195575984251969
11
3.5457068897637796
21
-2.6196611023622047
0
LINE
8
BLACK
6
CONTINUOUS
10
3.5457068897637796
20
-2.6196611023622047
11
3.5388767322834647
21
-2.6295638188976378
0
LINE
8
BLACK
6
CONTINUOUS
10
3.5388767322834647
20
-2.6295638188976378
11
3.5307085039370079
21
-2.6413653543307087
0
LINE
8
BLACK
6
CONTINUOUS
10
3.5307085039370079
20
-2.6413653543307087
11
3.5306467716535432
21
-2.6414496850393698
0
LINE
8
BLACK
6
CONTINUOUS
10
3.5306467716535432
20
-2.6414496850393698
11
3.5225116141732284
21
-2.651952283464567
0
LINE
8
BLACK
6
CONTINUOUS
10
3.5225116141732284
20
-2.651952283464567
11
3.5142027559055116
21
-2.6625716929133856
0
LINE
8
BLACK
6
CONTINUOUS
10
3.5142027559055116
20
-2.6625716929133856
11
3.5141403149606298
21
-2.6626474409448817
0
LINE
8
BLACK
6
CONTINUOUS
10
3.5141403149606298
20
-2.6626474409448817
11
3.5053211023622048
21
-2.6728189763779526
0
LINE
8
BLACK
6
CONTINUOUS
10
3.5053211023622048
20
-2.6728189763779526
11
3.4965189763779527
21
-2.6828055511811022
0
LINE
8
BLACK
6
CONTINUOUS
10
3.4965189763779527
20
-2.6828055511811022
11
3.4964566535433068
21
-2.6828730314960629
0
LINE
8
BLACK
6
CONTINUOUS
10
3.4964566535433068
20
-2.6828730314960629
11
3.487037992125984
21
-2.6925947637795273
0
LINE
8
BLACK
6
CONTINUOUS
10
3.487037992125984
20
-2.6925947637795273
11
3.477683503937008
21
-2.702032992125984
0
LINE
8
BLACK
6
CONTINUOUS
10
3.477683503937008
20
-2.702032992125984
11
3.4676822047244094
21
-2.7112751181102364
0
LINE
8
BLACK
6
CONTINUOUS
10
3.4676822047244094
20
-2.7112751181102364
11
3.457819094488189
21
-2.7201257086614175
0
LINE
8
BLACK
6
CONTINUOUS
10
3.457819094488189
20
-2.7201257086614175
11
3.4473053149606296
21
-2.7288157086614171
0
LINE
8
BLACK
6
CONTINUOUS
10
3.4473053149606296
20
-2.7288157086614171
11
3.4369600393700788
21
-2.7370596456692913
0
LINE
8
BLACK
6
CONTINUOUS
10
3.4369600393700788
20
-2.7370596456692913
11
3.4259690944881891
21
-2.7451655511811022
0
LINE
8
BLACK
6
CONTINUOUS
10
3.4259690944881891
20
-2.7451655511811022
11
3.4151725196850391
21
-2.7527812204724409
0
LINE
8
BLACK
6
CONTINUOUS
10
3.4151725196850391
20
-2.7527812204724409
11
3.4037437401574802
21
-2.7602722440944882
0
LINE
8
BLACK
6
CONTINUOUS
10
3.4037437401574802
20
-2.7602722440944882
11
3.3925253937007875
21
-2.7672404724409447
0
LINE
8
BLACK
6
CONTINUOUS
10
3.3925253937007875
20
-2.7672404724409447
11
3.3806980314960628
21
-2.7740902362204722
0
LINE
8
BLACK
6
CONTINUOUS
10
3.3806980314960628
20
-2.7740902362204722
11
3.3690931102362205
21
-2.7803896062992126
0
LINE
8
BLACK
6
CONTINUOUS
10
3.3690931102362205
20
-2.7803896062992126
11
3.3569053937007873
21
-2.7865757086614171
0
LINE
8
BLACK
6
CONTINUOUS
10
3.3569053937007873
20
-2.7865757086614171
11
3.3449495275590548
21
-2.7921868503937008
0
LINE
8
BLACK
6
CONTINUOUS
10
3.3449495275590548
20
-2.7921868503937008
11
3.3324429527559056
21
-2.7976885826771651
0
LINE
8
BLACK
6
CONTINUOUS
10
3.3324429527559056
20
-2.7976885826771651
11
3.3201731889763777
21
-2.8025935433070868
0
LINE
8
BLACK
6
CONTINUOUS
10
3.3201731889763777
20
-2.8025935433070868
11
3.3073881102362206
21
-2.8073938188976379
0
LINE
8
BLACK
6
CONTINUOUS
10
3.3073881102362206
20
-2.8073938188976379
11
3.2948404724409448
21
-2.8115768897637796
0
LINE
8
BLACK
6
CONTINUOUS
10
3.2948404724409448
20
-2.8115768897637796
11
3.2818231496062991
21
-2.8156595275590552
0
LINE
8
BLACK
6
CONTINUOUS
10
3.2818231496062991
20
-2.8156595275590552
11
3.2690311023622045
21
-2.8191074803149605
0
LINE
8
BLACK
6
CONTINUOUS
10
3.2690311023622045
20
-2.8191074803149605
11
3.2558291732283462
21
-2.8224596062992124
0
LINE
8
BLACK
6
CONTINUOUS
10
3.2558291732283462
20
-2.8224596062992124
11
3.2428206299212596
21
-2.825161338582677
0
LINE
8
BLACK
6
CONTINUOUS
10
3.2428206299212596
20
-2.825161338582677
11
3.2295362598425195
21
-2.8277630314960631
0
LINE
8
BLACK
6
CONTINUOUS
10
3.2295362598425195
20
-2.8277630314960631
11
3.2294457086614172
21
-2.8277785826771651
0
LINE
8
BLACK
6
CONTINUOUS
10
3.2294457086614172
20
-2.8277785826771651
11
3.2162759055118109
21
-2.8297187795275591
0
LINE
8
BLACK
6
CONTINUOUS
10
3.2162759055118109
20
-2.8297187795275591
11
3.2029407480314962
21
-2.8315727165354332
0
LINE
8
BLACK
6
CONTINUOUS
10
3.2029407480314962
20
-2.8315727165354332
11
3.2028432283464565
21
-2.8315837795275591
0
LINE
8
BLACK
6
CONTINUOUS
10
3.2028432283464565
20
-2.8315837795275591
11
3.1894132677165352
21
-2.8327654724409448
0
LINE
8
BLACK
6
CONTINUOUS
10
3.1894132677165352
20
-2.8327654724409448
11
3.1761726771653542
21
-2.8338654330708661
0
LINE
8
BLACK
6
CONTINUOUS
10
3.1761726771653542
20
-2.8338654330708661
11
3.176068346456693
21
-2.8338712992125985
0
LINE
8
BLACK
6
CONTINUOUS
10
3.176068346456693
20
-2.8338712992125985
11
3.1617116141732282
21
-2.8342914173228344
0
LINE
8
BLACK
6
CONTINUOUS
10
3.1617116141732282
20
-2.8342914173228344
11
3.1496614566929133
21
-2.8346244488188974
0
LINE
8
BLACK
6
CONTINUOUS
10
3.1496614566929133
20
-2.8346244488188974
11
3.1495519291338581
21
-2.8346243700787399
0
LINE
8
BLACK
6
CONTINUOUS
10
3.1495519291338581
20
-2.8346243700787399
11
3.1226918503937009
21
-2.8338570472440945
0
LINE
8
BLACK
6
CONTINUOUS
10
3.1226918503937009
20
-2.8338570472440945
11
3.1225807086614172
21
-2.8338507086614171
0
LINE
8
BLACK
6
CONTINUOUS
10
3.1225807086614172
20
-2.8338507086614171
11
3.1009910629921258
21
-2.8319963779527559
0
LINE
8
BLACK
6
CONTINUOUS
10
3.1009910629921258
20
-2.8319963779527559
11
3.09565937007874
21
-2.8315298818897636
0
LINE
8
BLACK
6
CONTINUOUS
10
3.09565937007874
20
-2.8315298818897636
11
3.0955518503937007
21
-2.8315174803149605
0
LINE
8
BLACK
6
CONTINUOUS
10
3.0955518503937007
20
-2.8315174803149605
11
3.0771114173228344
21
-2.8288661417322833
0
LINE
8
BLACK
6
CONTINUOUS
10
3.0771114173228344
20
-2.8288661417322833
11
3.0687124409448816
21
-2.8276358267716533
0
LINE
8
BLACK
6
CONTINUOUS
10
3.0687124409448816
20
-2.8276358267716533
11
3.0686078740157479
21
-2.827617598425197
0
LINE
8
BLACK
6
CONTINUOUS
10
3.0686078740157479
20
-2.827617598425197
11
3.05166905511811
21
-2.8241853937007875
0
LINE
8
BLACK
6
CONTINUOUS
10
3.05166905511811
20
-2.8241853937007875
11
3.0420350393700786
21
-2.8221960629921261
0
LINE
8
BLACK
6
CONTINUOUS
10
3.0420350393700786
20
-2.8221960629921261
11
3.0419337007874017
21
-2.8221723228346458
0
LINE
8
BLACK
6
CONTINUOUS
10
3.0419337007874017
20
-2.8221723228346458
11
3.0259381496062994
21
-2.8179678740157481
0
LINE
8
BLACK
6
CONTINUOUS
10
3.0259381496062994
20
-2.8179678740157481
11
3.0157161023622048
21
-2.8152288188976375
0
LINE
8
BLACK
6
CONTINUOUS
10
3.0157161023622048
20
-2.8152288188976375
11
3.0156182677165355
21
-2.8151998425196849
0
LINE
8
BLACK
6
CONTINUOUS
10
3.0156182677165355
20
-2.8151998425196849
11
3.0003340551181101
21
-2.8102337401574804
0
LINE
8
BLACK
6
CONTINUOUS
10
3.0003340551181101
20
-2.8102337401574804
11
2.9898428740157481
21
-2.8067573228346454
0
LINE
8
BLACK
6
CONTINUOUS
10
2.9898428740157481
20
-2.8067573228346454
11
2.9897488188976378
21
-2.8067234251968505
0
LINE
8
BLACK
6
CONTINUOUS
10
2.9897488188976378
20
-2.8067234251968505
11
2.9750751181102362
21
-2.8010105118110236
0
LINE
8
BLACK
6
CONTINUOUS
10
2.9750751181102362
20
-2.8010105118110236
11
2.9645009842519685
21
-2.7968096456692915
0
LINE
8
BLACK
6
CONTINUOUS
10
2.9645009842519685
20
-2.7968096456692915
11
2.9644109055118109
21
-2.7967712204724409
0
LINE
8
BLACK
6
CONTINUOUS
10
2.9644109055118109
20
-2.7967712204724409
11
2.9560173622047246
21
-2.7929380708661418
0
LINE
8
BLACK
6
CONTINUOUS
10
2.9560173622047246
20
-2.7929380708661418
11
2.9502994488188974
21
-2.7903268110236219
0
LINE
8
BLACK
6
CONTINUOUS
10
2.9502994488188974
20
-2.7903268110236219
11
2.939774212598425
21
-2.7854187795275589
0
LINE
8
BLACK
6
CONTINUOUS
10
2.939774212598425
20
-2.7854187795275589
11
2.9396888976377951
21
-2.7853764173228344
0
LINE
8
BLACK
6
CONTINUOUS
10
2.9396888976377951
20
-2.7853764173228344
11
2.9261275590551179
21
-2.7782208661417322
0
LINE
8
BLACK
6
CONTINUOUS
10
2.9261275590551179
20
-2.7782208661417322
11
2.9245186220472439
21
-2.7773533464566929
0
LINE
8
BLACK
6
CONTINUOUS
10
2.9245186220472439
20
-2.7773533464566929
11
2.9157436220472439
21
-2.7726218897637795
0
LINE
8
BLACK
6
CONTINUOUS
10
2.9157436220472439
20
-2.7726218897637795
11
2.9156649999999997
21
-2.7725770078740157
0
LINE
8
BLACK
6
CONTINUOUS
10
2.9156649999999997
20
-2.7725770078740157
11
2.9051174015748029
21
-2.7662165748031495
0
LINE
8
BLACK
6
CONTINUOUS
10
2.9051174015748029
20
-2.7662165748031495
11
2.9026529921259843
21
-2.7647304724409447
0
LINE
8
BLACK
6
CONTINUOUS
10
2.9026529921259843
20
-2.7647304724409447
11
2.8924941732283465
21
-2.7584644094488189
0
LINE
8
BLACK
6
CONTINUOUS
10
2.8924941732283465
20
-2.7584644094488189
11
2.8924172440944882
21
-2.758414409448819
0
LINE
8
BLACK
6
CONTINUOUS
10
2.8924172440944882
20
-2.758414409448819
11
2.8799669685039371
21
-2.7499011417322836
0
LINE
8
BLACK
6
CONTINUOUS
10
2.8799669685039371
20
-2.7499011417322836
11
2.8700973622047243
21
-2.7429903543307086
0
LINE
8
BLACK
6
CONTINUOUS
10
2.8700973622047243
20
-2.7429903543307086
11
2.8700251181102363
21
-2.7429372440944881
0
LINE
8
BLACK
6
CONTINUOUS
10
2.8700251181102363
20
-2.7429372440944881
11
2.8581544488188975
21
-2.7337835826771655
0
LINE
8
BLACK
6
CONTINUOUS
10
2.8581544488188975
20
-2.7337835826771655
11
2.8486296456692912
21
-2.7262523228346458
0
LINE
8
BLACK
6
CONTINUOUS
10
2.8486296456692912
20
-2.7262523228346458
11
2.8485621653543305
21
-2.7261964566929131
0
LINE
8
BLACK
6
CONTINUOUS
10
2.8485621653543305
20
-2.7261964566929131
11
2.8372897637795274
21
-2.7164288976377953
0
LINE
8
BLACK
6
CONTINUOUS
10
2.8372897637795274
20
-2.7164288976377953
11
2.8281307086614174
21
-2.7082780314960631
0
LINE
8
BLACK
6
CONTINUOUS
10
2.8281307086614174
20
-2.7082780314960631
11
2.8174465748031494
21
-2.6978947637795274
0
LINE
8
BLACK
6
CONTINUOUS
10
2.8174465748031494
20
-2.6978947637795274
11
2.8087341338582679
21
-2.6891823228346454
0
LINE
8
BLACK
6
CONTINUOUS
10
2.8087341338582679
20
-2.6891823228346454
11
2.8028815748031497
21
-2.6828055511811022
0
LINE
8
BLACK
6
CONTINUOUS
10
2.8028815748031497
20
-2.6828055511811022
11
2.7986964173228346
21
-2.6782455118110238
0
LINE
8
BLACK
6
CONTINUOUS
10
2.7986964173228346
20
-2.6782455118110238
11
2.7904697244094487
21
-2.6690012204724409
0
LINE
8
BLACK
6
CONTINUOUS
10
2.7904697244094487
20
-2.6690012204724409
11
2.7811021259842521
21
-2.6575451968503936
0
LINE
8
BLACK
6
CONTINUOUS
10
2.7811021259842521
20
-2.6575451968503936
11
2.7733980314960629
21
-2.6478017322834644
0
LINE
8
BLACK
6
CONTINUOUS
10
2.7733980314960629
20
-2.6478017322834644
11
2.7647226377952756
21
-2.635861062992126
0
LINE
8
BLACK
6
CONTINUOUS
10
2.7647226377952756
20
-2.635861062992126
11
2.7575768897637793
21
-2.6256558661417322
0
LINE
8
BLACK
6
CONTINUOUS
10
2.7575768897637793
20
-2.6256558661417322
11
2.7496141732283466
21
-2.6132657086614173
0
LINE
8
BLACK
6
CONTINUOUS
10
2.7496141732283466
20
-2.6132657086614173
11
2.7430574803149606
21
-2.6026356299212599
0
LINE
8
BLACK
6
CONTINUOUS
10
2.7430574803149606
20
-2.6026356299212599
11
2.7358293700787399
21
-2.5898363779527558
0
LINE
8
BLACK
6
CONTINUOUS
10
2.7358293700787399
20
-2.5898363779527558
11
2.7322696062992127
21
-2.5832344094488189
0
LINE
8
BLACK
6
CONTINUOUS
10
2.7322696062992127
20
-2.5832344094488189
11
2.7298881496062992
21
-2.5788176771653544
0
LINE
8
BLACK
6
CONTINUOUS
10
2.7298881496062992
20
-2.5788176771653544
11
2.7285926377952756
21
-2.5761827559055117
0
LINE
8
BLACK
6
CONTINUOUS
10
2.7285926377952756
20
-2.5761827559055117
11
2.7234127559055117
21
-2.565647401574803
0
LINE
8
BLACK
6
CONTINUOUS
10
2.7234127559055117
20
-2.565647401574803
11
2.7181133070866141
21
-2.5542826377952754
0
LINE
8
BLACK
6
CONTINUOUS
10
2.7181133070866141
20
-2.5542826377952754
11
2.7124081102362205
21
-2.5407825590551179
0
LINE
8
BLACK
6
CONTINUOUS
10
2.7124081102362205
20
-2.5407825590551179
11
2.7077707086614171
21
-2.5291094488188977
0
LINE
8
BLACK
6
CONTINUOUS
10
2.7077707086614171
20
-2.5291094488188977
11
2.7068733858267717
21
-2.5265945275590549
0
LINE
8
BLACK
6
CONTINUOUS
10
2.7068733858267717
20
-2.5265945275590549
11
2.7028515748031494
21
-2.515322716535433
0
LINE
8
BLACK
6
CONTINUOUS
10
2.7028515748031494
20
-2.515322716535433
11
2.6988954724409449
21
-2.5033837795275589
0
LINE
8
BLACK
6
CONTINUOUS
10
2.6988954724409449
20
-2.5033837795275589
11
2.6985662204724408
21
-2.5022625196850394
0
LINE
8
BLACK
6
CONTINUOUS
10
2.6985662204724408
20
-2.5022625196850394
11
2.6947752362204724
21
-2.4893515748031496
0
LINE
8
BLACK
6
CONTINUOUS
10
2.6947752362204724
20
-2.4893515748031496
11
2.6915168897637796
21
-2.4771912598425194
0
LINE
8
BLACK
6
CONTINUOUS
10
2.6915168897637796
20
-2.4771912598425194
11
2.6882069291338584
21
-2.4629573622047243
0
LINE
8
BLACK
6
CONTINUOUS
10
2.6882069291338584
20
-2.4629573622047243
11
2.6856589763779528
21
-2.450617559055118
0
LINE
8
BLACK
6
CONTINUOUS
10
2.6856589763779528
20
-2.450617559055118
11
2.6854097244094488
21
-2.4491773622047242
0
LINE
8
BLACK
6
CONTINUOUS
10
2.6854097244094488
20
-2.4491773622047242
11
2.6831683464566929
21
-2.4362255905511812
0
LINE
8
BLACK
6
CONTINUOUS
10
2.6831683464566929
20
-2.4362255905511812
11
2.682869409448819
21
-2.4341844881889765
0
LINE
8
BLACK
6
CONTINUOUS
10
2.682869409448819
20
-2.4341844881889765
11
2.681341377952756
21
-2.4237529133858269
0
LINE
8
BLACK
6
CONTINUOUS
10
2.681341377952756
20
-2.4237529133858269
11
2.6796770078740155
21
-2.4092475590551179
0
LINE
8
BLACK
6
CONTINUOUS
10
2.6796770078740155
20
-2.4092475590551179
11
2.6789824803149607
21
-2.4013087007874017
0
LINE
8
BLACK
6
CONTINUOUS
10
2.6789824803149607
20
-2.4013087007874017
11
2.6785778346456692
21
-2.3966840944881889
0
LINE
8
BLACK
6
CONTINUOUS
10
2.6785778346456692
20
-2.3966840944881889
11
2.6777445275590552
21
-2.3821110629921258
0
LINE
8
BLACK
6
CONTINUOUS
10
2.6777445275590552
20
-2.3821110629921258
11
2.6773776771653544
21
-2.3695018110236221
0
LINE
8
BLACK
6
CONTINUOUS
10
2.6773776771653544
20
-2.3695018110236221
11
2.6773776771653544
21
-2.3622047244094486
0
LINE
8
BLACK
6
CONTINUOUS
10
2.6773776771653544
20
-2.3622047244094486
11
2.6773776771653544
21
-2.3549075984251968
0
LINE
8
BLACK
6
CONTINUOUS
10
2.6773776771653544
20
-2.3549075984251968
11
2.6773906692913387
21
-2.3544612992125984
0
LINE
8
BLACK
6
CONTINUOUS
10
2.6773906692913387
20
-2.3544612992125984
11
2.6777444881889765
21
-2.3422990551181102
0
LINE
8
BLACK
6
CONTINUOUS
10
2.6777444881889765
20
-2.3422990551181102
11
2.6785778346456692
21
-2.3277254330708659
0
LINE
8
BLACK
6
CONTINUOUS
10
2.6785778346456692
20
-2.3277254330708659
11
2.679676929133858
21
-2.3151625590551181
0
LINE
8
BLACK
6
CONTINUOUS
10
2.679676929133858
20
-2.3151625590551181
11
2.6813414566929135
21
-2.3006557874015749
0
LINE
8
BLACK
6
CONTINUOUS
10
2.6813414566929135
20
-2.3006557874015749
11
2.6831683070866141
21
-2.288184094488189
0
LINE
8
BLACK
6
CONTINUOUS
10
2.6831683070866141
20
-2.288184094488189
11
2.6856591732283466
21
-2.2737907874015746
0
LINE
8
BLACK
6
CONTINUOUS
10
2.6856591732283466
20
-2.2737907874015746
11
2.6882067322834646
21
-2.2614529133858268
0
LINE
8
BLACK
6
CONTINUOUS
10
2.6882067322834646
20
-2.2614529133858268
11
2.6915167716535433
21
-2.2472186614173228
0
LINE
8
BLACK
6
CONTINUOUS
10
2.6915167716535433
20
-2.2472186614173228
11
2.6947751181102362
21
-2.2350581496062993
0
LINE
8
BLACK
6
CONTINUOUS
10
2.6947751181102362
20
-2.2350581496062993
11
2.6988955118110236
21
-2.2210254330708663
0
LINE
8
BLACK
6
CONTINUOUS
10
2.6988955118110236
20
-2.2210254330708663
11
2.6999632677165355
21
-2.2178031889763781
0
LINE
8
BLACK
6
CONTINUOUS
10
2.6999632677165355
20
-2.2178031889763781
11
2.7028510629921261
21
-2.2090881496062993
0
LINE
8
BLACK
6
CONTINUOUS
10
2.7028510629921261
20
-2.2090881496062993
11
2.7077709055118109
21
-2.19529937007874
0
LINE
8
BLACK
6
CONTINUOUS
10
2.7077709055118109
20
-2.19529937007874
11
2.7124075984251967
21
-2.1836280314960628
0
LINE
8
BLACK
6
CONTINUOUS
10
2.7124075984251967
20
-2.1836280314960628
11
2.7181132283464566
21
-2.1701269685039368
0
LINE
8
BLACK
6
CONTINUOUS
10
2.7181132283464566
20
-2.1701269685039368
11
2.7234122047244096
21
-2.1587631102362206
0
LINE
8
BLACK
6
CONTINUOUS
10
2.7234122047244096
20
-2.1587631102362206
11
2.7298884251968505
21
-2.1455911417322833
0
LINE
8
BLACK
6
CONTINUOUS
10
2.7298884251968505
20
-2.1455911417322833
11
2.7358283464566928
21
-2.1345748425196849
0
LINE
8
BLACK
6
CONTINUOUS
10
2.7358283464566928
20
-2.1345748425196849
11
2.7430575590551181
21
-2.1217735826771653
0
LINE
8
BLACK
6
CONTINUOUS
10
2.7430575590551181
20
-2.1217735826771653
11
2.7496138582677165
21
-2.111144212598425
0
LINE
8
BLACK
6
CONTINUOUS
10
2.7496138582677165
20
-2.111144212598425
11
2.7568938582677163
21
-2.0998163779527559
0
LINE
8
BLACK
6
CONTINUOUS
10
2.7568938582677163
20
-2.0998163779527559
11
2.7575768897637793
21
-2.0987535433070867
0
LINE
8
BLACK
6
CONTINUOUS
10
2.7575768897637793
20
-2.0987535433070867
11
2.7647226377952756
21
-2.088548346456693
0
LINE
8
BLACK
6
CONTINUOUS
10
2.7647226377952756
20
-2.088548346456693
11
2.7647624803149604
21
-2.0884935039370078
0
LINE
8
BLACK
6
CONTINUOUS
10
2.7647624803149604
20
-2.0884935039370078
11
2.7733985826771654
21
-2.0766068897637795
0
LINE
8
BLACK
6
CONTINUOUS
10
2.7733985826771654
20
-2.0766068897637795
11
2.7811009448818895
21
-2.0668656692913387
0
LINE
8
BLACK
6
CONTINUOUS
10
2.7811009448818895
20
-2.0668656692913387
11
2.7904698031496062
21
-2.0554080708661417
0
LINE
8
BLACK
6
CONTINUOUS
10
2.7904698031496062
20
-2.0554080708661417
11
2.7986948031496062
21
-2.0461656692913386
0
LINE
8
BLACK
6
CONTINUOUS
10
2.7986948031496062
20
-2.0461656692913386
11
2.8087345669291337
21
-2.0352266141732285
0
LINE
8
BLACK
6
CONTINUOUS
10
2.8087345669291337
20
-2.0352266141732285
11
2.8174451574803148
21
-2.0265160236220474
0
LINE
8
BLACK
6
CONTINUOUS
10
2.8174451574803148
20
-2.0265160236220474
11
2.8281310629921261
21
-2.0161310236220471
0
LINE
8
BLACK
6
CONTINUOUS
10
2.8281310629921261
20
-2.0161310236220471
11
2.8372890551181102
21
-2.0079811417322833
0
LINE
8
BLACK
6
CONTINUOUS
10
2.8372890551181102
20
-2.0079811417322833
11
2.8485635826771651
21
-1.9982116929133857
0
LINE
8
BLACK
6
CONTINUOUS
10
2.8485635826771651
20
-1.9982116929133857
11
2.8486281889763778
21
-1.998158188976378
0
LINE
8
BLACK
6
CONTINUOUS
10
2.8486281889763778
20
-1.998158188976378
11
2.8581516535433069
21
-1.9906279921259842
0
LINE
8
BLACK
6
CONTINUOUS
10
2.8581516535433069
20
-1.9906279921259842
11
2.8700275196850393
21
-1.9814703149606299
0
LINE
8
BLACK
6
CONTINUOUS
10
2.8700275196850393
20
-1.9814703149606299
11
2.8700951574803151
21
-1.981420590551181
0
LINE
8
BLACK
6
CONTINUOUS
10
2.8700951574803151
20
-1.981420590551181
11
2.8799669291338583
21
-1.9745083070866141
0
LINE
8
BLACK
6
CONTINUOUS
10
2.8799669291338583
20
-1.9745083070866141
11
2.8924188582677166
21
-1.9659938976377953
0
LINE
8
BLACK
6
CONTINUOUS
10
2.8924188582677166
20
-1.9659938976377953
11
2.8924925984251968
21
-1.9659459448818897
0
LINE
8
BLACK
6
CONTINUOUS
10
2.8924925984251968
20
-1.9659459448818897
11
2.9026505511811025
21
-1.9596803937007874
0
LINE
8
BLACK
6
CONTINUOUS
10
2.9026505511811025
20
-1.9596803937007874
11
2.9156682283464566
21
-1.9518304724409448
0
LINE
8
BLACK
6
CONTINUOUS
10
2.9156682283464566
20
-1.9518304724409448
11
2.9157411023622046
21
-1.9517888582677165
0
LINE
8
BLACK
6
CONTINUOUS
10
2.9157411023622046
20
-1.9517888582677165
11
2.9261257086614174
21
-1.9461895275590551
0
LINE
8
BLACK
6
CONTINUOUS
10
2.9261257086614174
20
-1.9461895275590551
11
2.939690590551181
21
-1.9390320866141733
0
LINE
8
BLACK
6
CONTINUOUS
10
2.939690590551181
20
-1.9390320866141733
11
2.9397722440944882
21
-1.9389915354330709
0
LINE
8
BLACK
6
CONTINUOUS
10
2.9397722440944882
20
-1.9389915354330709
11
2.9502974015748031
21
-1.9340835433070867
0
LINE
8
BLACK
6
CONTINUOUS
10
2.9502974015748031
20
-1.9340835433070867
11
2.9644112204724409
21
-1.9276379921259843
0
LINE
8
BLACK
6
CONTINUOUS
10
2.9644112204724409
20
-1.9276379921259843
11
2.9644996850393701
21
-1.927600275590551
0
LINE
8
BLACK
6
CONTINUOUS
10
2.9644996850393701
20
-1.927600275590551
11
2.9750700787401576
21
-1.9234008661417323
0
LINE
8
BLACK
6
CONTINUOUS
10
2.9750700787401576
20
-1.9234008661417323
11
2.989749094488189
21
-1.9176857874015747
0
LINE
8
BLACK
6
CONTINUOUS
10
2.989749094488189
20
-1.9176857874015747
11
2.9898414173228347
21
-1.9176525590551181
0
LINE
8
BLACK
6
CONTINUOUS
10
2.9898414173228347
20
-1.9176525590551181
11
3.0003306692913383
21
-1.9141767716535432
0
LINE
8
BLACK
6
CONTINUOUS
10
3.0003306692913383
20
-1.9141767716535432
11
3.0156184645669293
21
-1.9092094488188975
0
LINE
8
BLACK
6
CONTINUOUS
10
3.0156184645669293
20
-1.9092094488188975
11
3.0157157874015748
21
-1.9091806299212597
0
LINE
8
BLACK
6
CONTINUOUS
10
3.0157157874015748
20
-1.9091806299212597
11
3.0259341732283462
21
-1.9064425984251967
0
LINE
8
BLACK
6
CONTINUOUS
10
3.0259341732283462
20
-1.9064425984251967
11
3.0419350393700788
21
-1.9022366929133858
0
LINE
8
BLACK
6
CONTINUOUS
10
3.0419350393700788
20
-1.9022366929133858
11
3.0420346062992127
21
-1.9022133858267716
0
LINE
8
BLACK
6
CONTINUOUS
10
3.0420346062992127
20
-1.9022133858267716
11
3.051662086614173
21
-1.9002254330708661
0
LINE
8
BLACK
6
CONTINUOUS
10
3.051662086614173
20
-1.9002254330708661
11
3.0686094881889763
21
-1.8967914566929134
0
LINE
8
BLACK
6
CONTINUOUS
10
3.0686094881889763
20
-1.8967914566929134
11
3.0687122440944883
21
-1.8967735433070865
0
LINE
8
BLACK
6
CONTINUOUS
10
3.0687122440944883
20
-1.8967735433070865
11
3.0771057480314958
21
-1.8955440944881889
0
LINE
8
BLACK
6
CONTINUOUS
10
3.0771057480314958
20
-1.8955440944881889
11
3.0955538582677167
21
-1.8928916535433071
0
LINE
8
BLACK
6
CONTINUOUS
10
3.0955538582677167
20
-1.8928916535433071
11
3.0956583070866142
21
-1.8928796062992126
0
LINE
8
BLACK
6
CONTINUOUS
10
3.0956583070866142
20
-1.8928796062992126
11
3.1009679133858268
21
-1.892415
0
LINE
8
BLACK
6
CONTINUOUS
10
3.1009679133858268
20
-1.892415
11
3.1225811811023623
21
-1.8905586614173229
0
LINE
8
BLACK
6
CONTINUOUS
10
3.1225811811023623
20
-1.8905586614173229
11
3.1226918503937009
21
-1.8905523622047244
0
LINE
8
BLACK
6
CONTINUOUS
10
3.1226918503937009
20
-1.8905523622047244
11
3.1376405905511811
21
-1.8901252755905511
0
LINE
8
BLACK
6
CONTINUOUS
10
3.1376405905511811
20
-1.8901252755905511
11
3.1495525590551181
21
-1.8897849606299213
0
LINE
8
BLACK
6
CONTINUOUS
10
3.1495525590551181
20
-1.8897849606299213
11
3.1496597244094486
21
-1.8897849212598425
0
LINE
8
BLACK
6
CONTINUOUS
10
3.1496597244094486
20
-1.8897849212598425
11
3.1625846062992125
21
-1.8901375196850394
0
LINE
8
BLACK
6
CONTINUOUS
10
3.5885826771653542
20
-2.1732283858267718
11
3.5885826771653542
21
-2.1850393700787403
0
LINE
8
BLACK
6
CONTINUOUS
10
3.5885826771653542
20
-2.1850393700787403
11
3.6023622047244093
21
-2.1850393700787403
0
LINE
8
BLACK
6
CONTINUOUS
10
3.6023622047244093
20
-2.1850393700787403
11
3.6023622047244093
21
-2.2332677165354329
0
LINE
8
BLACK
6
CONTINUOUS
10
3.6023622047244093
20
-2.2332677165354329
11
3.614173149606299
21
-2.2332677165354329
0
LINE
8
BLACK
6
CONTINUOUS
10
3.614173149606299
20
-2.2332677165354329
11
3.6141731889763777
21
-2.2332676771653541
0
LINE
8
BLACK
6
CONTINUOUS
10
3.6141731889763777
20
-2.2332676771653541
11
3.6141731889763777
21
-2.1832759842519684
0
LINE
8
BLACK
6
CONTINUOUS
10
3.6141731889763777
20
-2.1832759842519684
11
3.614173149606299
21
-2.1832759055118109
0
LINE
8
BLACK
6
CONTINUOUS
10
3.614173149606299
20
-2.1832759055118109
11
3.6140586614173227
21
-2.1822883858267716
0
LINE
8
BLACK
6
CONTINUOUS
10
3.6140586614173227
20
-2.1822883858267716
11
3.6122750393700787
21
-2.1782488976377952
0
LINE
8
BLACK
6
CONTINUOUS
10
3.6122750393700787
20
-2.1782488976377952
11
3.6091526377952756
21
-2.1751264960629921
0
LINE
8
BLACK
6
CONTINUOUS
10
3.6091526377952756
20
-2.1751264960629921
11
3.6051130708661416
21
-2.1733428740157481
0
LINE
8
BLACK
6
CONTINUOUS
10
3.6051130708661416
20
-2.1733428740157481
11
3.6041258661417324
21
-2.173228346456693
0
LINE
8
BLACK
6
CONTINUOUS
10
3.6041258661417324
20
-2.173228346456693
11
3.5885827165354329
21
-2.173228346456693
0
LINE
8
BLACK
6
CONTINUOUS
10
3.5885827165354329
20
-2.173228346456693
11
3.5885826771653542
21
-2.1732283858267718
0
LINE
8
BLACK
6
CONTINUOUS
10
3.5612286220472442
20
-2.1732283858267718
11
3.5602411417322832
21
-2.1733428740157481
0
LINE
8
BLACK
6
CONTINUOUS
10
3.5602411417322832
20
-2.1733428740157481
11
3.5562016535433072
21
-2.1751264960629921
0
LINE
8
BLACK
6
CONTINUOUS
10
3.5562016535433072
20
-2.1751264960629921
11
3.5530792519685037
21
-2.1782488976377952
0
LINE
8
BLACK
6
CONTINUOUS
10
3.5530792519685037
20
-2.1782488976377952
11
3.5512956299212597
21
-2.1822884645669292
0
LINE
8
BLACK
6
CONTINUOUS
10
3.5512956299212597
20
-2.1822884645669292
11
3.5511811023622046
21
-2.1832756692913384
0
LINE
8
BLACK
6
CONTINUOUS
10
3.5511811023622046
20
-2.1832756692913384
11
3.5511811023622046
21
-2.2153182677165355
0
LINE
8
BLACK
6
CONTINUOUS
10
3.5511811023622046
20
-2.2153182677165355
11
3.551303503937008
21
-2.2153376771653543
0
LINE
8
BLACK
6
CONTINUOUS
10
3.551303503937008
20
-2.2153376771653543
11
3.5556935433070866
21
-2.217574527559055
0
LINE
8
BLACK
6
CONTINUOUS
10
3.5556935433070866
20
-2.217574527559055
11
3.5591775196850395
21
-2.2210585039370079
0
LINE
8
BLACK
6
CONTINUOUS
10
3.5591775196850395
20
-2.2210585039370079
11
3.5614143700787402
21
-2.2254485433070865
0
LINE
8
BLACK
6
CONTINUOUS
10
3.5614143700787402
20
-2.2254485433070865
11
3.5621851181102362
21
-2.2303149606299213
0
LINE
8
BLACK
6
CONTINUOUS
10
3.5621851181102362
20
-2.2303149606299213
11
3.5617174409448817
21
-2.2332677165354329
0
LINE
8
BLACK
6
CONTINUOUS
10
3.5617174409448817
20
-2.2332677165354329
11
3.5629921259842519
21
-2.2332677165354329
0
LINE
8
BLACK
6
CONTINUOUS
10
3.5629921259842519
20
-2.2332677165354329
11
3.5629921259842519
21
-2.1850393700787403
0
LINE
8
BLACK
6
CONTINUOUS
10
3.5629921259842519
20
-2.1850393700787403
11
3.576771653543307
21
-2.1850393700787403
0
LINE
8
BLACK
6
CONTINUOUS
10
3.576771653543307
20
-2.1850393700787403
11
3.576771653543307
21
-2.1732283858267718
0
LINE
8
BLACK
6
CONTINUOUS
10
3.576771653543307
20
-2.1732283858267718
11
3.5767716141732282
21
-2.173228346456693
0
LINE
8
BLACK
6
CONTINUOUS
10
3.5767716141732282
20
-2.173228346456693
11
3.56122874015748
21
-2.173228346456693
0
LINE
8
BLACK
6
CONTINUOUS
10
3.56122874015748
20
-2.173228346456693
11
3.5612286220472442
21
-2.1732283858267718
0
LINE
8
BLACK
6
CONTINUOUS
10
2.9095202755905509
20
-2.3693048031496065
11
2.9095462204724409
21
-2.3699481102362205
0
LINE
8
BLACK
6
CONTINUOUS
10
2.9095462204724409
20
-2.3699481102362205
11
2.9095462204724409
21
-2.3718786220472441
0
LINE
8
BLACK
6
CONTINUOUS
10
2.9095462204724409
20
-2.3718786220472441
11
2.9097015748031496
21
-2.3738032677165353
0
LINE
8
BLACK
6
CONTINUOUS
10
2.9097015748031496
20
-2.3738032677165353
11
2.9100136220472441
21
-2.3815466535433072
0
LINE
8
BLACK
6
CONTINUOUS
10
2.9100136220472441
20
-2.3815466535433072
11
2.9100136220472441
21
-2.3815468897637793
0
LINE
8
BLACK
6
CONTINUOUS
10
2.9100136220472441
20
-2.3815468897637793
11
2.9100136614173229
21
-2.381547086614173
0
LINE
8
BLACK
6
CONTINUOUS
10
2.9100136614173229
20
-2.381547086614173
11
2.9109476377952754
21
-2.3892391338582675
0
LINE
8
BLACK
6
CONTINUOUS
10
2.9109476377952754
20
-2.3892391338582675
11
2.9111031102362204
21
-2.3911645669291337
0
LINE
8
BLACK
6
CONTINUOUS
10
2.9111031102362204
20
-2.3911645669291337
11
2.9111031102362204
21
-2.3911646062992125
0
LINE
8
BLACK
6
CONTINUOUS
10
2.9111031102362204
20
-2.3911646062992125
11
2.9114128740157481
21
-2.3930705511811023
0
LINE
8
BLACK
6
CONTINUOUS
10
2.9114128740157481
20
-2.3930705511811023
11
2.9123468897637794
21
-2.4007629527559056
0
LINE
8
BLACK
6
CONTINUOUS
10
2.9123468897637794
20
-2.4007629527559056
11
2.9138970472440944
21
-2.4083561811023619
0
LINE
8
BLACK
6
CONTINUOUS
10
2.9138970472440944
20
-2.4083561811023619
11
2.9142067322834646
21
-2.410261692913386
0
LINE
8
BLACK
6
CONTINUOUS
10
2.9142067322834646
20
-2.410261692913386
11
2.9146687795275592
21
-2.4121363385826773
0
LINE
8
BLACK
6
CONTINUOUS
10
2.9146687795275592
20
-2.4121363385826773
11
2.9147343307086615
21
-2.4124574409448818
0
LINE
8
BLACK
6
CONTINUOUS
10
2.9147343307086615
20
-2.4124574409448818
11
2.9162188582677167
21
-2.4197292125984253
0
LINE
8
BLACK
6
CONTINUOUS
10
2.9162188582677167
20
-2.4197292125984253
11
2.9162189763779529
21
-2.4197296850393699
0
LINE
8
BLACK
6
CONTINUOUS
10
2.9162189763779529
20
-2.4197296850393699
11
2.9183750393700785
21
-2.4271733464566929
0
LINE
8
BLACK
6
CONTINUOUS
10
2.9183750393700785
20
-2.4271733464566929
11
2.9188370866141731
21
-2.429047874015748
0
LINE
8
BLACK
6
CONTINUOUS
10
2.9188370866141731
20
-2.429047874015748
11
2.9194484251968502
21
-2.4308790944881888
0
LINE
8
BLACK
6
CONTINUOUS
10
2.9194484251968502
20
-2.4308790944881888
11
2.9203745275590549
21
-2.4340763385826771
0
LINE
8
BLACK
6
CONTINUOUS
10
2.9203745275590549
20
-2.4340763385826771
11
2.9216045669291337
21
-2.4383228740157481
0
LINE
8
BLACK
6
CONTINUOUS
10
2.9216045669291337
20
-2.4383228740157481
11
2.92160468503937
21
-2.4383232283464564
0
LINE
8
BLACK
6
CONTINUOUS
10
2.92160468503937
20
-2.4383232283464564
11
2.9216047244094487
21
-2.4383233070866139
0
LINE
8
BLACK
6
CONTINUOUS
10
2.9216047244094487
20
-2.4383233070866139
11
2.9243523228346455
21
-2.4455681889763778
0
LINE
8
BLACK
6
CONTINUOUS
10
2.9243523228346455
20
-2.4455681889763778
11
2.9249640551181102
21
-2.4474003937007875
0
LINE
8
BLACK
6
CONTINUOUS
10
2.9249640551181102
20
-2.4474003937007875
11
2.9249640551181102
21
-2.4474004330708663
0
LINE
8
BLACK
6
CONTINUOUS
10
2.9249640551181102
20
-2.4474004330708663
11
2.9257211417322835
21
-2.4491773622047242
0
LINE
8
BLACK
6
CONTINUOUS
10
2.9257211417322835
20
-2.4491773622047242
11
2.9284687401574803
21
-2.4564222047244093
0
LINE
8
BLACK
6
CONTINUOUS
10
2.9284687401574803
20
-2.4564222047244093
11
2.9284688976377953
21
-2.4564225590551181
0
LINE
8
BLACK
6
CONTINUOUS
10
2.9284688976377953
20
-2.4564225590551181
11
2.9304288188976377
21
-2.4605530314960631
0
LINE
8
BLACK
6
CONTINUOUS
10
2.9304288188976377
20
-2.4605530314960631
11
2.9317907874015749
21
-2.4634233464566928
0
LINE
8
BLACK
6
CONTINUOUS
10
2.9317907874015749
20
-2.4634233464566928
11
2.9325479133858265
21
-2.4652003149606299
0
LINE
8
BLACK
6
CONTINUOUS
10
2.9325479133858265
20
-2.4652003149606299
11
2.9334453937007874
21
-2.4669103543307087
0
LINE
8
BLACK
6
CONTINUOUS
10
2.9334453937007874
20
-2.4669103543307087
11
2.9367674015748029
21
-2.4739112992125984
0
LINE
8
BLACK
6
CONTINUOUS
10
2.9367674015748029
20
-2.4739112992125984
11
2.9406416535433069
21
-2.4806217322834647
0
LINE
8
BLACK
6
CONTINUOUS
10
2.9406416535433069
20
-2.4806217322834647
11
2.9415395275590552
21
-2.4823324409448819
0
LINE
8
BLACK
6
CONTINUOUS
10
2.9415395275590552
20
-2.4823324409448819
11
2.9425718503937008
21
-2.4839649606299212
0
LINE
8
BLACK
6
CONTINUOUS
10
2.9425718503937008
20
-2.4839649606299212
11
2.9453397637795273
21
-2.48875905511811
0
LINE
8
BLACK
6
CONTINUOUS
10
2.9453397637795273
20
-2.48875905511811
11
2.9464461811023623
21
-2.4906753937007875
0
LINE
8
BLACK
6
CONTINUOUS
10
2.9464461811023623
20
-2.4906753937007875
11
2.9464462992125982
21
-2.4906755511811025
0
LINE
8
BLACK
6
CONTINUOUS
10
2.9464462992125982
20
-2.4906755511811025
11
2.9464463385826769
21
-2.4906756299212596
0
LINE
8
BLACK
6
CONTINUOUS
10
2.9464463385826769
20
-2.4906756299212596
11
2.9508477165354332
21
-2.497052125984252
0
LINE
8
BLACK
6
CONTINUOUS
10
2.9508477165354332
20
-2.497052125984252
11
2.9518802755905513
21
-2.4986849606299213
0
LINE
8
BLACK
6
CONTINUOUS
10
2.9518802755905513
20
-2.4986849606299213
11
2.9518805905511809
21
-2.4986854330708659
0
LINE
8
BLACK
6
CONTINUOUS
10
2.9518805905511809
20
-2.4986854330708659
11
2.9530405511811022
21
-2.5002290157480314
0
LINE
8
BLACK
6
CONTINUOUS
10
2.9530405511811022
20
-2.5002290157480314
11
2.9574425590551181
21
-2.5066064173228346
0
LINE
8
BLACK
6
CONTINUOUS
10
2.9574425590551181
20
-2.5066064173228346
11
2.9587362598425195
21
-2.5081909055118108
0
LINE
8
BLACK
6
CONTINUOUS
10
2.9587362598425195
20
-2.5081909055118108
11
2.9623434251968503
21
-2.5126088976377954
0
LINE
8
BLACK
6
CONTINUOUS
10
2.9623434251968503
20
-2.5126088976377954
11
2.9635036220472442
21
-2.5141528346456692
0
LINE
8
BLACK
6
CONTINUOUS
10
2.9635036220472442
20
-2.5141528346456692
11
2.9642583464566927
21
-2.5150047244094487
0
LINE
8
BLACK
6
CONTINUOUS
10
2.9642583464566927
20
-2.5150047244094487
11
2.9647841732283462
21
-2.5155983070866141
0
LINE
8
BLACK
6
CONTINUOUS
10
2.9647841732283462
20
-2.5155983070866141
11
2.9696850787401572
21
-2.5216008267716536
0
LINE
8
BLACK
6
CONTINUOUS
10
2.9696850787401572
20
-2.5216008267716536
11
2.9750535039370076
21
-2.5271899606299213
0
LINE
8
BLACK
6
CONTINUOUS
10
2.9750535039370076
20
-2.5271899606299213
11
2.9763337401574801
21
-2.5286350393700787
0
LINE
8
BLACK
6
CONTINUOUS
10
2.9763337401574801
20
-2.5286350393700787
11
2.9777263779527559
21
-2.5299727165354331
0
LINE
8
BLACK
6
CONTINUOUS
10
2.9777263779527559
20
-2.5299727165354331
11
2.9830945669291338
21
-2.5355615748031495
0
LINE
8
BLACK
6
CONTINUOUS
10
2.9830945669291338
20
-2.5355615748031495
11
2.9888945275590553
21
-2.5406999212598427
0
LINE
8
BLACK
6
CONTINUOUS
10
2.9888945275590553
20
-2.5406999212598427
11
2.9902877952755906
21
-2.5420381496062991
0
LINE
8
BLACK
6
CONTINUOUS
10
2.9902877952755906
20
-2.5420381496062991
11
2.9917836220472442
21
-2.5432594094488188
0
LINE
8
BLACK
6
CONTINUOUS
10
2.9917836220472442
20
-2.5432594094488188
11
2.9950461023622048
21
-2.5461497244094486
0
LINE
8
BLACK
6
CONTINUOUS
10
2.9950461023622048
20
-2.5461497244094486
11
2.9975840157480316
21
-2.5483981496062991
0
LINE
8
BLACK
6
CONTINUOUS
10
2.9975840157480316
20
-2.5483981496062991
11
2.9975840157480316
21
-2.5483981102362203
0
LINE
8
BLACK
6
CONTINUOUS
10
2.9975840157480316
20
-2.5483981102362203
11
3.003778779527559
21
-2.5530531889763779
0
LINE
8
BLACK
6
CONTINUOUS
10
3.003778779527559
20
-2.5530531889763779
11
3.0038968897637797
21
-2.5531496062992125
0
LINE
8
BLACK
6
CONTINUOUS
10
3.0038968897637797
20
-2.5531496062992125
11
3.0052750000000001
21
-2.5542748031496063
0
LINE
8
BLACK
6
CONTINUOUS
10
3.0052750000000001
20
-2.5542748031496063
11
3.005275118110236
21
-2.5542748818897638
0
LINE
8
BLACK
6
CONTINUOUS
10
3.005275118110236
20
-2.5542748818897638
11
3.0068644881889761
21
-2.5553719291338584
0
LINE
8
BLACK
6
CONTINUOUS
10
3.0068644881889761
20
-2.5553719291338584
11
3.0080197637795276
21
-2.5562400787401574
0
LINE
8
BLACK
6
CONTINUOUS
10
3.0080197637795276
20
-2.5562400787401574
11
3.0130592125984252
21
-2.5600270078740155
0
LINE
8
BLACK
6
CONTINUOUS
10
3.0130592125984252
20
-2.5600270078740155
11
3.0196085826771655
21
-2.5641685826771652
0
LINE
8
BLACK
6
CONTINUOUS
10
3.0196085826771655
20
-2.5641685826771652
11
3.0211982283464565
21
-2.5652658267716535
0
LINE
8
BLACK
6
CONTINUOUS
10
3.0211982283464565
20
-2.5652658267716535
11
3.0228707086614173
21
-2.5662314173228347
0
LINE
8
BLACK
6
CONTINUOUS
10
3.0228707086614173
20
-2.5662314173228347
11
3.0294202362204725
21
-2.5703731102362206
0
LINE
8
BLACK
6
CONTINUOUS
10
3.0294202362204725
20
-2.5703731102362206
11
3.0362820472440943
21
-2.5739744488188974
0
LINE
8
BLACK
6
CONTINUOUS
10
3.0362820472440943
20
-2.5739744488188974
11
3.0379542519685039
21
-2.5749399212598423
0
LINE
8
BLACK
6
CONTINUOUS
10
3.0379542519685039
20
-2.5749399212598423
11
3.0396990551181102
21
-2.5757678346456694
0
LINE
8
BLACK
6
CONTINUOUS
10
3.0396990551181102
20
-2.5757678346456694
11
3.0404896062992126
21
-2.5761827559055117
0
LINE
8
BLACK
6
CONTINUOUS
10
3.0404896062992126
20
-2.5761827559055117
11
3.04656031496063
21
-2.5793688976377953
0
LINE
8
BLACK
6
CONTINUOUS
10
3.04656031496063
20
-2.5793688976377953
11
3.0465602755905512
21
-2.5793688976377953
0
LINE
8
BLACK
6
CONTINUOUS
10
3.0465602755905512
20
-2.5793688976377953
11
3.0465605118110237
21
-2.5793689763779528
0
LINE
8
BLACK
6
CONTINUOUS
10
3.0465605118110237
20
-2.5793689763779528
11
3.0465605511811025
21
-2.5793690157480316
0
LINE
8
BLACK
6
CONTINUOUS
10
3.0465605511811025
20
-2.5793690157480316
11
3.0536896456692912
21
-2.5824064173228347
0
LINE
8
BLACK
6
CONTINUOUS
10
3.0536896456692912
20
-2.5824064173228347
11
3.0554343700787401
21
-2.5832343307086614
0
LINE
8
BLACK
6
CONTINUOUS
10
3.0554343700787401
20
-2.5832343307086614
11
3.057240275590551
21
-2.5839192125984249
0
LINE
8
BLACK
6
CONTINUOUS
10
3.057240275590551
20
-2.5839192125984249
11
3.0643691732283465
21
-2.5869565748031493
0
LINE
8
BLACK
6
CONTINUOUS
10
3.0643691732283465
20
-2.5869565748031493
11
3.0643693307086615
21
-2.5869566141732281
0
LINE
8
BLACK
6
CONTINUOUS
10
3.0643693307086615
20
-2.5869566141732281
11
3.0643693700787402
21
-2.5869566535433068
0
LINE
8
BLACK
6
CONTINUOUS
10
3.0643693700787402
20
-2.5869566535433068
11
3.0666295669291337
21
-2.5877111811023621
0
LINE
8
BLACK
6
CONTINUOUS
10
3.0666295669291337
20
-2.5877111811023621
11
3.0717203543307088
21
-2.5894107480314958
0
LINE
8
BLACK
6
CONTINUOUS
10
3.0717203543307088
20
-2.5894107480314958
11
3.0735252362204726
21
-2.5900952755905511
0
LINE
8
BLACK
6
CONTINUOUS
10
3.0735252362204726
20
-2.5900952755905511
11
3.0740288188976379
21
-2.5902411417322835
0
LINE
8
BLACK
6
CONTINUOUS
10
3.0740288188976379
20
-2.5902411417322835
11
3.0753800393700788
21
-2.590632559055118
0
LINE
8
BLACK
6
CONTINUOUS
10
3.0753800393700788
20
-2.590632559055118
11
3.082730275590551
21
-2.5930864173228345
0
LINE
8
BLACK
6
CONTINUOUS
10
3.082730275590551
20
-2.5930864173228345
11
3.0827303149606298
21
-2.5930864173228345
0
LINE
8
BLACK
6
CONTINUOUS
10
3.0827303149606298
20
-2.5930864173228345
11
3.082730433070866
21
-2.5930864173228345
0
LINE
8
BLACK
6
CONTINUOUS
10
3.082730433070866
20
-2.5930864173228345
11
3.082730590551181
21
-2.593086496062992
0
LINE
8
BLACK
6
CONTINUOUS
10
3.082730590551181
20
-2.593086496062992
11
3.0902547637795275
21
-2.5949410236220474
0
LINE
8
BLACK
6
CONTINUOUS
10
3.0902547637795275
20
-2.5949410236220474
11
3.0913381102362205
21
-2.5952548425196849
0
LINE
8
BLACK
6
CONTINUOUS
10
3.0913381102362205
20
-2.5952548425196849
11
3.0921096062992124
21
-2.5954783464566931
0
LINE
8
BLACK
6
CONTINUOUS
10
3.0921096062992124
20
-2.5954783464566931
11
3.0929721653543307
21
-2.595654409448819
0
LINE
8
BLACK
6
CONTINUOUS
10
3.0929721653543307
20
-2.595654409448819
11
3.0940019291338583
21
-2.5958646456692911
0
LINE
8
BLACK
6
CONTINUOUS
10
3.0940019291338583
20
-2.5958646456692911
11
3.1015257086614172
21
-2.5977190944881889
0
LINE
8
BLACK
6
CONTINUOUS
10
3.1015257086614172
20
-2.5977190944881889
11
3.1015257874015747
21
-2.5977190944881889
0
LINE
8
BLACK
6
CONTINUOUS
10
3.1015257874015747
20
-2.5977190944881889
11
3.101525905511811
21
-2.5977191338582677
0
LINE
8
BLACK
6
CONTINUOUS
10
3.101525905511811
20
-2.5977191338582677
11
3.1015258661417322
21
-2.5977191338582677
0
LINE
8
BLACK
6
CONTINUOUS
10
3.1015258661417322
20
-2.5977191338582677
11
3.1030448031496061
21
-2.5979659448818899
0
LINE
8
BLACK
6
CONTINUOUS
10
3.1030448031496061
20
-2.5979659448818899
11
3.1091753543307088
21
-2.598962244094488
0
LINE
8
BLACK
6
CONTINUOUS
10
3.1091753543307088
20
-2.598962244094488
11
3.1110666929133859
21
-2.5993484251968502
0
LINE
8
BLACK
6
CONTINUOUS
10
3.1110666929133859
20
-2.5993484251968502
11
3.1129833464566929
21
-2.5995811023622046
0
LINE
8
BLACK
6
CONTINUOUS
10
3.1129833464566929
20
-2.5995811023622046
11
3.1176835039370077
21
-2.6003449606299212
0
LINE
8
BLACK
6
CONTINUOUS
10
3.1176835039370077
20
-2.6003449606299212
11
3.1206327165354328
21
-2.6008242913385828
0
LINE
8
BLACK
6
CONTINUOUS
10
3.1206327165354328
20
-2.6008242913385828
11
3.1226629133858266
21
-2.600988149606299
0
LINE
8
BLACK
6
CONTINUOUS
10
3.1226629133858266
20
-2.600988149606299
11
3.128357086614173
21
-2.6014478346456693
0
LINE
8
BLACK
6
CONTINUOUS
10
3.128357086614173
20
-2.6014478346456693
11
3.1302738188976376
21
-2.6016805905511808
0
LINE
8
BLACK
6
CONTINUOUS
10
3.1302738188976376
20
-2.6016805905511808
11
3.1322028346456694
21
-2.6017582677165354
0
LINE
8
BLACK
6
CONTINUOUS
10
3.1322028346456694
20
-2.6017582677165354
11
3.1399274803149604
21
-2.6023818897637794
0
LINE
8
BLACK
6
CONTINUOUS
10
3.1399274803149604
20
-2.6023818897637794
11
3.1399276771653541
21
-2.6023818897637794
0
LINE
8
BLACK
6
CONTINUOUS
10
3.1399276771653541
20
-2.6023818897637794
11
3.1476758661417321
21
-2.6023818897637794
0
LINE
8
BLACK
6
CONTINUOUS
10
3.1476758661417321
20
-2.6023818897637794
11
3.1496062992125982
21
-2.6024596850393702
0
LINE
8
BLACK
6
CONTINUOUS
10
3.1496062992125982
20
-2.6024596850393702
11
3.1515367322834646
21
-2.6023818897637794
0
LINE
8
BLACK
6
CONTINUOUS
10
3.1515367322834646
20
-2.6023818897637794
11
3.1592849212598426
21
-2.6023818897637794
0
LINE
8
BLACK
6
CONTINUOUS
10
3.1592849212598426
20
-2.6023818897637794
11
3.1592851181102359
21
-2.6023818897637794
0
LINE
8
BLACK
6
CONTINUOUS
10
3.1592851181102359
20
-2.6023818897637794
11
3.1670098425196849
21
-2.6017582677165354
0
LINE
8
BLACK
6
CONTINUOUS
10
3.1670098425196849
20
-2.6017582677165354
11
3.1689387795275592
21
-2.6016805905511808
0
LINE
8
BLACK
6
CONTINUOUS
10
3.1689387795275592
20
-2.6016805905511808
11
3.1708555905511808
21
-2.6014477952755906
0
LINE
8
BLACK
6
CONTINUOUS
10
3.1708555905511808
20
-2.6014477952755906
11
3.1764969291338581
21
-2.6009924015748029
0
LINE
8
BLACK
6
CONTINUOUS
10
3.1764969291338581
20
-2.6009924015748029
11
3.1785798818897639
21
-2.6008242913385828
0
LINE
8
BLACK
6
CONTINUOUS
10
3.1785798818897639
20
-2.6008242913385828
11
3.1818826377952756
21
-2.6002874803149605
0
LINE
8
BLACK
6
CONTINUOUS
10
3.1818826377952756
20
-2.6002874803149605
11
3.1862288188976375
21
-2.5995811811023621
0
LINE
8
BLACK
6
CONTINUOUS
10
3.1862288188976375
20
-2.5995811811023621
11
3.1881459055118109
21
-2.5993484251968502
0
LINE
8
BLACK
6
CONTINUOUS
10
3.1881459055118109
20
-2.5993484251968502
11
3.1900377559055118
21
-2.5989621653543304
0
LINE
8
BLACK
6
CONTINUOUS
10
3.1900377559055118
20
-2.5989621653543304
11
3.1976868897637796
21
-2.5977190944881889
0
LINE
8
BLACK
6
CONTINUOUS
10
3.1976868897637796
20
-2.5977190944881889
11
3.2052110236220472
21
-2.5958645275590553
0
LINE
8
BLACK
6
CONTINUOUS
10
3.2052110236220472
20
-2.5958645275590553
11
3.2063575984251966
21
-2.5956304724409449
0
LINE
8
BLACK
6
CONTINUOUS
10
3.2063575984251966
20
-2.5956304724409449
11
3.2071029921259844
21
-2.5954783464566931
0
LINE
8
BLACK
6
CONTINUOUS
10
3.2071029921259844
20
-2.5954783464566931
11
3.207702716535433
21
-2.5953046062992127
0
LINE
8
BLACK
6
CONTINUOUS
10
3.207702716535433
20
-2.5953046062992127
11
3.2089572834645668
21
-2.5949411417322832
0
LINE
8
BLACK
6
CONTINUOUS
10
3.2089572834645668
20
-2.5949411417322832
11
3.2164820078740157
21
-2.593086496062992
0
LINE
8
BLACK
6
CONTINUOUS
10
3.2164820078740157
20
-2.593086496062992
11
3.216482125984252
21
-2.5930864173228345
0
LINE
8
BLACK
6
CONTINUOUS
10
3.216482125984252
20
-2.5930864173228345
11
3.216482283464567
21
-2.5930864173228345
0
LINE
8
BLACK
6
CONTINUOUS
10
3.216482283464567
20
-2.5930864173228345
11
3.2164823228346457
21
-2.5930864173228345
0
LINE
8
BLACK
6
CONTINUOUS
10
3.2164823228346457
20
-2.5930864173228345
11
3.2190381889763779
21
-2.5922331102362204
0
LINE
8
BLACK
6
CONTINUOUS
10
3.2190381889763779
20
-2.5922331102362204
11
3.2238334251968501
21
-2.5906322047244092
0
LINE
8
BLACK
6
CONTINUOUS
10
3.2238334251968501
20
-2.5906322047244092
11
3.2242310629921258
21
-2.5905170866141733
0
LINE
8
BLACK
6
CONTINUOUS
10
3.2242310629921258
20
-2.5905170866141733
11
3.2256869291338583
21
-2.5900954330708661
0
LINE
8
BLACK
6
CONTINUOUS
10
3.2256869291338583
20
-2.5900954330708661
11
3.2256873622047242
21
-2.5900952755905511
0
LINE
8
BLACK
6
CONTINUOUS
10
3.2256873622047242
20
-2.5900952755905511
11
3.2274924409448817
21
-2.5894106692913383
0
LINE
8
BLACK
6
CONTINUOUS
10
3.2274924409448817
20
-2.5894106692913383
11
3.2325765354330707
21
-2.587713346456693
0
LINE
8
BLACK
6
CONTINUOUS
10
3.2325765354330707
20
-2.587713346456693
11
3.2348432283464565
21
-2.5869566535433068
0
LINE
8
BLACK
6
CONTINUOUS
10
3.2348432283464565
20
-2.5869566535433068
11
3.2348432283464565
21
-2.5869566141732281
0
LINE
8
BLACK
6
CONTINUOUS
10
3.2348432283464565
20
-2.5869566141732281
11
3.2348434251968503
21
-2.5869565748031493
0
LINE
8
BLACK
6
CONTINUOUS
10
3.2348434251968503
20
-2.5869565748031493
11
3.2419729527559054
21
-2.5839189370078741
0
LINE
8
BLACK
6
CONTINUOUS
10
3.2419729527559054
20
-2.5839189370078741
11
3.2433605905511809
21
-2.5833926771653544
0
LINE
8
BLACK
6
CONTINUOUS
10
3.2433605905511809
20
-2.5833926771653544
11
3.2437782677165354
21
-2.5832343307086614
0
LINE
8
BLACK
6
CONTINUOUS
10
3.2437782677165354
20
-2.5832343307086614
11
3.2443930314960627
21
-2.5829425984251966
0
LINE
8
BLACK
6
CONTINUOUS
10
3.2443930314960627
20
-2.5829425984251966
11
3.2455227559055118
21
-2.5824064960629922
0
LINE
8
BLACK
6
CONTINUOUS
10
3.2455227559055118
20
-2.5824064960629922
11
3.2526520472440943
21
-2.5793690157480316
0
LINE
8
BLACK
6
CONTINUOUS
10
3.2526520472440943
20
-2.5793690157480316
11
3.2526520472440943
21
-2.5793689763779528
0
LINE
8
BLACK
6
CONTINUOUS
10
3.2526520472440943
20
-2.5793689763779528
11
3.2526523228346456
21
-2.5793688976377953
0
LINE
8
BLACK
6
CONTINUOUS
10
3.2526523228346456
20
-2.5793688976377953
11
3.2526522834645668
21
-2.5793688976377953
0
LINE
8
BLACK
6
CONTINUOUS
10
3.2526522834645668
20
-2.5793688976377953
11
3.2595140551181103
21
-2.5757675590551181
0
LINE
8
BLACK
6
CONTINUOUS
10
3.2595140551181103
20
-2.5757675590551181
11
3.2612583464566929
21
-2.5749399212598423
0
LINE
8
BLACK
6
CONTINUOUS
10
3.2612583464566929
20
-2.5749399212598423
11
3.2629300787401574
21
-2.5739746850393699
0
LINE
8
BLACK
6
CONTINUOUS
10
3.2629300787401574
20
-2.5739746850393699
11
3.2697923622047242
21
-2.5703731102362206
0
LINE
8
BLACK
6
CONTINUOUS
10
3.2697923622047242
20
-2.5703731102362206
11
3.2763425196850391
21
-2.5662309842519684
0
LINE
8
BLACK
6
CONTINUOUS
10
3.2763425196850391
20
-2.5662309842519684
11
3.2780143700787403
21
-2.5652658267716535
0
LINE
8
BLACK
6
CONTINUOUS
10
3.2780143700787403
20
-2.5652658267716535
11
3.2796040157480313
21
-2.5641685826771652
0
LINE
8
BLACK
6
CONTINUOUS
10
3.2796040157480313
20
-2.5641685826771652
11
3.2826325590551182
21
-2.5622534251968503
0
LINE
8
BLACK
6
CONTINUOUS
10
3.2826325590551182
20
-2.5622534251968503
11
3.2861532283464565
21
-2.560027086614173
0
LINE
8
BLACK
6
CONTINUOUS
10
3.2861532283464565
20
-2.560027086614173
11
3.286153307086614
21
-2.5600270078740155
0
LINE
8
BLACK
6
CONTINUOUS
10
3.286153307086614
20
-2.5600270078740155
11
3.2861535826771653
21
-2.5600268503937009
0
LINE
8
BLACK
6
CONTINUOUS
10
3.2861535826771653
20
-2.5600268503937009
11
3.2879301574803148
21
-2.5586918110236221
0
LINE
8
BLACK
6
CONTINUOUS
10
3.2879301574803148
20
-2.5586918110236221
11
3.2923485433070865
21
-2.5553715748031496
0
LINE
8
BLACK
6
CONTINUOUS
10
3.2923485433070865
20
-2.5553715748031496
11
3.2938278346456693
21
-2.5543505118110237
0
LINE
8
BLACK
6
CONTINUOUS
10
3.2938278346456693
20
-2.5543505118110237
11
3.2939377165354329
21
-2.5542747244094488
0
LINE
8
BLACK
6
CONTINUOUS
10
3.2939377165354329
20
-2.5542747244094488
11
3.2953157480314959
21
-2.5531495669291338
0
LINE
8
BLACK
6
CONTINUOUS
10
3.2953157480314959
20
-2.5531495669291338
11
3.295433149606299
21
-2.5530536220472442
0
LINE
8
BLACK
6
CONTINUOUS
10
3.295433149606299
20
-2.5530536220472442
11
3.3016285433070864
21
-2.5483981496062991
0
LINE
8
BLACK
6
CONTINUOUS
10
3.3016285433070864
20
-2.5483981496062991
11
3.3016285826771652
21
-2.5483981102362203
0
LINE
8
BLACK
6
CONTINUOUS
10
3.3016285826771652
20
-2.5483981102362203
11
3.3016285826771652
21
-2.5483981496062991
0
LINE
8
BLACK
6
CONTINUOUS
10
3.3016285826771652
20
-2.5483981496062991
11
3.3032316929133856
21
-2.5469778740157478
0
LINE
8
BLACK
6
CONTINUOUS
10
3.3032316929133856
20
-2.5469778740157478
11
3.30742905511811
21
-2.5432592913385825
0
LINE
8
BLACK
6
CONTINUOUS
10
3.30742905511811
20
-2.5432592913385825
11
3.3084867322834643
21
-2.5423958267716533
0
LINE
8
BLACK
6
CONTINUOUS
10
3.3084867322834643
20
-2.5423958267716533
11
3.3089246456692911
21
-2.5420383070866142
0
LINE
8
BLACK
6
CONTINUOUS
10
3.3089246456692911
20
-2.5420383070866142
11
3.3089246062992124
21
-2.5420383070866142
0
LINE
8
BLACK
6
CONTINUOUS
10
3.3089246062992124
20
-2.5420383070866142
11
3.3089248031496061
21
-2.5420381496062991
0
LINE
8
BLACK
6
CONTINUOUS
10
3.3089248031496061
20
-2.5420381496062991
11
3.3103170472440944
21
-2.5407007874015748
0
LINE
8
BLACK
6
CONTINUOUS
10
3.3103170472440944
20
-2.5407007874015748
11
3.3161179133858267
21
-2.5355616929133857
0
LINE
8
BLACK
6
CONTINUOUS
10
3.3161179133858267
20
-2.5355616929133857
11
3.3161179921259842
21
-2.5355616141732282
0
LINE
8
BLACK
6
CONTINUOUS
10
3.3161179921259842
20
-2.5355616141732282
11
3.316118031496063
21
-2.5355616141732282
0
LINE
8
BLACK
6
CONTINUOUS
10
3.316118031496063
20
-2.5355616141732282
11
3.3197654330708661
21
-2.5317641732283462
0
LINE
8
BLACK
6
CONTINUOUS
10
3.3197654330708661
20
-2.5317641732283462
11
3.3214864173228347
21
-2.5299724409448818
0
LINE
8
BLACK
6
CONTINUOUS
10
3.3214864173228347
20
-2.5299724409448818
11
3.3226181102362204
21
-2.5288855118110236
0
LINE
8
BLACK
6
CONTINUOUS
10
3.3226181102362204
20
-2.5288855118110236
11
3.3228786614173229
21
-2.5286352755905512
0
LINE
8
BLACK
6
CONTINUOUS
10
3.3228786614173229
20
-2.5286352755905512
11
3.3232698031496062
21
-2.5281937007874014
0
LINE
8
BLACK
6
CONTINUOUS
10
3.3232698031496062
20
-2.5281937007874014
11
3.3241584645669291
21
-2.5271905511811021
0
LINE
8
BLACK
6
CONTINUOUS
10
3.3241584645669291
20
-2.5271905511811021
11
3.3295274015748029
21
-2.5216009448818899
0
LINE
8
BLACK
6
CONTINUOUS
10
3.3295274015748029
20
-2.5216009448818899
11
3.3295273622047241
21
-2.5216009448818899
0
LINE
8
BLACK
6
CONTINUOUS
10
3.3295273622047241
20
-2.5216009448818899
11
3.3295275196850391
21
-2.5216008267716536
0
LINE
8
BLACK
6
CONTINUOUS
10
3.3295275196850391
20
-2.5216008267716536
11
3.3344283858267714
21
-2.5155983070866141
0
LINE
8
BLACK
6
CONTINUOUS
10
3.3344283858267714
20
-2.5155983070866141
11
3.3357090157480314
21
-2.5141527952755904
0
LINE
8
BLACK
6
CONTINUOUS
10
3.3357090157480314
20
-2.5141527952755904
11
3.3357090157480314
21
-2.5141528346456692
0
LINE
8
BLACK
6
CONTINUOUS
10
3.3357090157480314
20
-2.5141528346456692
11
3.3361062204724408
21
-2.5136241338582677
0
LINE
8
BLACK
6
CONTINUOUS
10
3.3361062204724408
20
-2.5136241338582677
11
3.3368688976377952
21
-2.5126091732283462
0
LINE
8
BLACK
6
CONTINUOUS
10
3.3368688976377952
20
-2.5126091732283462
11
3.3417700393700787
21
-2.5066064173228346
0
LINE
8
BLACK
6
CONTINUOUS
10
3.3417700393700787
20
-2.5066064173228346
11
3.3461720866141733
21
-2.5002288582677163
0
LINE
8
BLACK
6
CONTINUOUS
10
3.3461720866141733
20
-2.5002288582677163
11
3.3473322440944879
21
-2.4986850787401576
0
LINE
8
BLACK
6
CONTINUOUS
10
3.3473322440944879
20
-2.4986850787401576
11
3.3483643700787402
21
-2.4970527952755903
0
LINE
8
BLACK
6
CONTINUOUS
10
3.3483643700787402
20
-2.4970527952755903
11
3.3527662598425194
21
-2.4906756299212596
0
LINE
8
BLACK
6
CONTINUOUS
10
3.3527662598425194
20
-2.4906756299212596
11
3.3527664960629919
21
-2.49067531496063
0
LINE
8
BLACK
6
CONTINUOUS
10
3.3527664960629919
20
-2.49067531496063
11
3.3539346062992124
21
-2.488651968503937
0
LINE
8
BLACK
6
CONTINUOUS
10
3.3539346062992124
20
-2.488651968503937
11
3.3566409842519684
21
-2.4839644094488187
0
LINE
8
BLACK
6
CONTINUOUS
10
3.3566409842519684
20
-2.4839644094488187
11
3.3572989763779528
21
-2.4829239370078739
0
LINE
8
BLACK
6
CONTINUOUS
10
3.3572989763779528
20
-2.4829239370078739
11
3.3576732677165353
21
-2.4823321259842519
0
LINE
8
BLACK
6
CONTINUOUS
10
3.3576732677165353
20
-2.4823321259842519
11
3.3585709055118111
21
-2.4806217322834647
0
LINE
8
BLACK
6
CONTINUOUS
10
3.3585709055118111
20
-2.4806217322834647
11
3.3605520078740159
21
-2.4771903543307086
0
LINE
8
BLACK
6
CONTINUOUS
10
3.3605520078740159
20
-2.4771903543307086
11
3.3624452362204722
21
-2.4739112204724409
0
LINE
8
BLACK
6
CONTINUOUS
10
3.3624452362204722
20
-2.4739112204724409
11
3.362496929133858
21
-2.4738023228346457
0
LINE
8
BLACK
6
CONTINUOUS
10
3.362496929133858
20
-2.4738023228346457
11
3.3634475590551181
21
-2.4717988582677166
0
LINE
8
BLACK
6
CONTINUOUS
10
3.3634475590551181
20
-2.4717988582677166
11
3.3657676377952757
21
-2.4669093700787399
0
LINE
8
BLACK
6
CONTINUOUS
10
3.3657676377952757
20
-2.4669093700787399
11
3.3666647244094485
21
-2.4652002362204724
0
LINE
8
BLACK
6
CONTINUOUS
10
3.3666647244094485
20
-2.4652002362204724
11
3.366664803149606
21
-2.4652000787401573
0
LINE
8
BLACK
6
CONTINUOUS
10
3.366664803149606
20
-2.4652000787401573
11
3.366664803149606
21
-2.4652001181102361
0
LINE
8
BLACK
6
CONTINUOUS
10
3.366664803149606
20
-2.4652001181102361
11
3.3674217716535431
21
-2.4634233464566928
0
LINE
8
BLACK
6
CONTINUOUS
10
3.3674217716535431
20
-2.4634233464566928
11
3.3707437007874015
21
-2.4564225590551181
0
LINE
8
BLACK
6
CONTINUOUS
10
3.3707437007874015
20
-2.4564225590551181
11
3.3734916929133858
21
-2.449176653543307
0
LINE
8
BLACK
6
CONTINUOUS
10
3.3734916929133858
20
-2.449176653543307
11
3.3742485826771653
21
-2.44740031496063
0
LINE
8
BLACK
6
CONTINUOUS
10
3.3742485826771653
20
-2.44740031496063
11
3.3748597637795275
21
-2.4455693307086612
0
LINE
8
BLACK
6
CONTINUOUS
10
3.3748597637795275
20
-2.4455693307086612
11
3.3767263779527559
21
-2.4406476377952755
0
LINE
8
BLACK
6
CONTINUOUS
10
3.3767263779527559
20
-2.4406476377952755
11
3.3776080708661418
21
-2.4383228740157481
0
LINE
8
BLACK
6
CONTINUOUS
10
3.3776080708661418
20
-2.4383228740157481
11
3.3782992913385828
21
-2.4359362204724411
0
LINE
8
BLACK
6
CONTINUOUS
10
3.3782992913385828
20
-2.4359362204724411
11
3.3797642913385828
21
-2.4308784645669292
0
LINE
8
BLACK
6
CONTINUOUS
10
3.3797642913385828
20
-2.4308784645669292
11
3.3803755118110237
21
-2.4290478346456692
0
LINE
8
BLACK
6
CONTINUOUS
10
3.3803755118110237
20
-2.4290478346456692
11
3.3808372440944883
21
-2.4271742913385825
0
LINE
8
BLACK
6
CONTINUOUS
10
3.3808372440944883
20
-2.4271742913385825
11
3.3829936614173226
21
-2.4197295275590549
0
LINE
8
BLACK
6
CONTINUOUS
10
3.3829936614173226
20
-2.4197295275590549
11
3.3829936614173226
21
-2.4197293700787399
0
LINE
8
BLACK
6
CONTINUOUS
10
3.3829936614173226
20
-2.4197293700787399
11
3.3829937401574801
21
-2.4197292125984253
0
LINE
8
BLACK
6
CONTINUOUS
10
3.3829937401574801
20
-2.4197292125984253
11
3.3829937401574801
21
-2.4197292519685041
0
LINE
8
BLACK
6
CONTINUOUS
10
3.3829937401574801
20
-2.4197292519685041
11
3.3835861417322834
21
-2.416827283464567
0
LINE
8
BLACK
6
CONTINUOUS
10
3.3835861417322834
20
-2.416827283464567
11
3.3845438976377951
21
-2.4121358267716535
0
LINE
8
BLACK
6
CONTINUOUS
10
3.3845438976377951
20
-2.4121358267716535
11
3.3850058267716534
21
-2.4102618897637793
0
LINE
8
BLACK
6
CONTINUOUS
10
3.3850058267716534
20
-2.4102618897637793
11
3.3853154724409449
21
-2.4083564173228345
0
LINE
8
BLACK
6
CONTINUOUS
10
3.3853154724409449
20
-2.4083564173228345
11
3.3868656692913386
21
-2.4007631102362206
0
LINE
8
BLACK
6
CONTINUOUS
10
3.3868656692913386
20
-2.4007631102362206
11
3.3877998031496062
21
-2.3930696456692915
0
LINE
8
BLACK
6
CONTINUOUS
10
3.3877998031496062
20
-2.3930696456692915
11
3.3881095275590551
21
-2.3911642519685037
0
LINE
8
BLACK
6
CONTINUOUS
10
3.3881095275590551
20
-2.3911642519685037
11
3.3882649212598426
21
-2.3892391338582675
0
LINE
8
BLACK
6
CONTINUOUS
10
3.3882649212598426
20
-2.3892391338582675
11
3.3891989763779526
21
-2.3815466535433072
0
LINE
8
BLACK
6
CONTINUOUS
10
3.3891989763779526
20
-2.3815466535433072
11
3.3895110236220471
21
-2.3738032283464565
0
LINE
8
BLACK
6
CONTINUOUS
10
3.3895110236220471
20
-2.3738032283464565
11
3.3896663779527558
21
-2.3718788188976379
0
LINE
8
BLACK
6
CONTINUOUS
10
3.3896663779527558
20
-2.3718788188976379
11
3.3896922440944883
21
-2.3693054330708661
0
LINE
8
BLACK
6
CONTINUOUS
10
3.3896922440944883
20
-2.3693054330708661
11
3.3899784251968503
21
-2.3622047244094486
0
LINE
8
BLACK
6
CONTINUOUS
10
3.3899784251968503
20
-2.3622047244094486
11
3.3896922440944883
21
-2.3551040551181104
0
LINE
8
BLACK
6
CONTINUOUS
10
3.3896922440944883
20
-2.3551040551181104
11
3.3896663779527558
21
-2.3525305905511811
0
LINE
8
BLACK
6
CONTINUOUS
10
3.3896663779527558
20
-2.3525305905511811
11
3.3896537401574802
21
-2.3523745275590549
0
LINE
8
BLACK
6
CONTINUOUS
10
3.3896537401574802
20
-2.3523745275590549
11
3.3895110236220471
21
-2.3506061023622045
0
LINE
8
BLACK
6
CONTINUOUS
10
3.3895110236220471
20
-2.3506061023622045
11
3.3891989763779526
21
-2.3428627952755905
0
LINE
8
BLACK
6
CONTINUOUS
10
3.3891989763779526
20
-2.3428627952755905
11
3.3882648818897638
21
-2.335169960629921
0
LINE
8
BLACK
6
CONTINUOUS
10
3.3882648818897638
20
-2.335169960629921
11
3.3881095669291339
21
-2.3332452755905511
0
LINE
8
BLACK
6
CONTINUOUS
10
3.3881095669291339
20
-2.3332452755905511
11
3.387942401574803
21
-2.3322170472440944
0
LINE
8
BLACK
6
CONTINUOUS
10
3.387942401574803
20
-2.3322170472440944
11
3.3877997244094487
21
-2.3313389370078741
0
LINE
8
BLACK
6
CONTINUOUS
10
3.3877997244094487
20
-2.3313389370078741
11
3.3868656692913386
21
-2.3236463385826771
0
LINE
8
BLACK
6
CONTINUOUS
10
3.3868656692913386
20
-2.3236463385826771
11
3.3853154330708661
21
-2.316052755905512
0
LINE
8
BLACK
6
CONTINUOUS
10
3.3853154330708661
20
-2.316052755905512
11
3.3850058267716534
21
-2.3141476377952754
0
LINE
8
BLACK
6
CONTINUOUS
10
3.3850058267716534
20
-2.3141476377952754
11
3.3845439370078738
21
-2.3122737401574804
0
LINE
8
BLACK
6
CONTINUOUS
10
3.3845439370078738
20
-2.3122737401574804
11
3.3830979527559055
21
-2.3051907480314959
0
LINE
8
BLACK
6
CONTINUOUS
10
3.3830979527559055
20
-2.3051907480314959
11
3.3829937401574801
21
-2.3046801968503936
0
LINE
8
BLACK
6
CONTINUOUS
10
3.3829937401574801
20
-2.3046801968503936
11
3.3829937401574801
21
-2.3046802362204724
0
LINE
8
BLACK
6
CONTINUOUS
10
3.3829937401574801
20
-2.3046802362204724
11
3.3829937007874014
21
-2.3046801968503936
0
LINE
8
BLACK
6
CONTINUOUS
10
3.3829937007874014
20
-2.3046801968503936
11
3.3827659842519684
21
-2.3038939763779527
0
LINE
8
BLACK
6
CONTINUOUS
10
3.3827659842519684
20
-2.3038939763779527
11
3.3808374803149603
21
-2.2972360236220473
0
LINE
8
BLACK
6
CONTINUOUS
10
3.3808374803149603
20
-2.2972360236220473
11
3.3803754724409449
21
-2.2953615748031497
0
LINE
8
BLACK
6
CONTINUOUS
10
3.3803754724409449
20
-2.2953615748031497
11
3.3803754330708662
21
-2.2953613385826772
0
LINE
8
BLACK
6
CONTINUOUS
10
3.3803754330708662
20
-2.2953613385826772
11
3.3803754330708662
21
-2.2953612992125985
0
LINE
8
BLACK
6
CONTINUOUS
10
3.3803754330708662
20
-2.2953612992125985
11
3.3797641338582678
21
-2.2935303149606301
0
LINE
8
BLACK
6
CONTINUOUS
10
3.3797641338582678
20
-2.2935303149606301
11
3.3776080708661418
21
-2.2860865748031496
0
LINE
8
BLACK
6
CONTINUOUS
10
3.3776080708661418
20
-2.2860865748031496
11
3.3748601968503937
21
-2.2788411811023623
0
LINE
8
BLACK
6
CONTINUOUS
10
3.3748601968503937
20
-2.2788411811023623
11
3.3742486614173228
21
-2.2770093307086614
0
LINE
8
BLACK
6
CONTINUOUS
10
3.3742486614173228
20
-2.2770093307086614
11
3.3742486614173228
21
-2.2770092913385827
0
LINE
8
BLACK
6
CONTINUOUS
10
3.3742486614173228
20
-2.2770092913385827
11
3.3740564173228345
21
-2.276558149606299
0
LINE
8
BLACK
6
CONTINUOUS
10
3.3740564173228345
20
-2.276558149606299
11
3.3734916929133858
21
-2.2752327165354331
0
LINE
8
BLACK
6
CONTINUOUS
10
3.3734916929133858
20
-2.2752327165354331
11
3.3717509842519684
21
-2.2706428740157478
0
LINE
8
BLACK
6
CONTINUOUS
10
3.3717509842519684
20
-2.2706428740157478
11
3.3707438582677165
21
-2.2679872047244092
0
LINE
8
BLACK
6
CONTINUOUS
10
3.3707438582677165
20
-2.2679872047244092
11
3.3707438188976377
21
-2.2679872047244092
0
LINE
8
BLACK
6
CONTINUOUS
10
3.3707438188976377
20
-2.2679872047244092
11
3.3707437007874015
21
-2.2679868897637796
0
LINE
8
BLACK
6
CONTINUOUS
10
3.3707437007874015
20
-2.2679868897637796
11
3.3674217716535431
21
-2.2609860629921261
0
LINE
8
BLACK
6
CONTINUOUS
10
3.3674217716535431
20
-2.2609860629921261
11
3.3666646062992127
21
-2.2592089370078741
0
LINE
8
BLACK
6
CONTINUOUS
10
3.3666646062992127
20
-2.2592089370078741
11
3.3666646062992127
21
-2.2592089763779528
0
LINE
8
BLACK
6
CONTINUOUS
10
3.3666646062992127
20
-2.2592089763779528
11
3.3657671653543306
21
-2.2574990551181102
0
LINE
8
BLACK
6
CONTINUOUS
10
3.3657671653543306
20
-2.2574990551181102
11
3.3624452362204722
21
-2.2504982283464567
0
LINE
8
BLACK
6
CONTINUOUS
10
3.3624452362204722
20
-2.2504982283464567
11
3.3623380708661417
21
-2.2503126377952754
0
LINE
8
BLACK
6
CONTINUOUS
10
3.3623380708661417
20
-2.2503126377952754
11
3.3593162992125984
21
-2.2450787795275589
0
LINE
8
BLACK
6
CONTINUOUS
10
3.3593162992125984
20
-2.2450787795275589
11
3.3585709055118111
21
-2.2437876771653542
0
LINE
8
BLACK
6
CONTINUOUS
10
3.3585709055118111
20
-2.2437876771653542
11
3.3576731889763778
21
-2.2420772440944883
0
LINE
8
BLACK
6
CONTINUOUS
10
3.3576731889763778
20
-2.2420772440944883
11
3.3566406692913384
21
-2.2404444488188977
0
LINE
8
BLACK
6
CONTINUOUS
10
3.3566406692913384
20
-2.2404444488188977
11
3.3527664173228344
21
-2.2337340551181102
0
LINE
8
BLACK
6
CONTINUOUS
10
3.3527664173228344
20
-2.2337340551181102
11
3.3483646456692915
21
-2.2273569685039369
0
LINE
8
BLACK
6
CONTINUOUS
10
3.3483646456692915
20
-2.2273569685039369
11
3.3476705118110237
21
-2.2262592913385828
0
LINE
8
BLACK
6
CONTINUOUS
10
3.3476705118110237
20
-2.2262592913385828
11
3.3473324409448817
21
-2.2257246456692914
0
LINE
8
BLACK
6
CONTINUOUS
10
3.3473324409448817
20
-2.2257246456692914
11
3.3473321259842517
21
-2.2257242519685039
0
LINE
8
BLACK
6
CONTINUOUS
10
3.3473321259842517
20
-2.2257242519685039
11
3.3461718503937008
21
-2.2241801574803151
0
LINE
8
BLACK
6
CONTINUOUS
10
3.3461718503937008
20
-2.2241801574803151
11
3.3417701181102362
21
-2.2178031496062993
0
LINE
8
BLACK
6
CONTINUOUS
10
3.3417701181102362
20
-2.2178031496062993
11
3.3368691338582677
21
-2.2118005118110236
0
LINE
8
BLACK
6
CONTINUOUS
10
3.3368691338582677
20
-2.2118005118110236
11
3.3357089763779526
21
-2.2102566141732285
0
LINE
8
BLACK
6
CONTINUOUS
10
3.3357089763779526
20
-2.2102566141732285
11
3.3348998031496064
21
-2.2093432677165352
0
LINE
8
BLACK
6
CONTINUOUS
10
3.3348998031496064
20
-2.2093432677165352
11
3.3344283858267714
21
-2.2088111023622048
0
LINE
8
BLACK
6
CONTINUOUS
10
3.3344283858267714
20
-2.2088111023622048
11
3.3295275196850391
21
-2.202808622047244
0
LINE
8
BLACK
6
CONTINUOUS
10
3.3295275196850391
20
-2.202808622047244
11
3.3241590551181099
21
-2.1972194488188976
0
LINE
8
BLACK
6
CONTINUOUS
10
3.3241590551181099
20
-2.1972194488188976
11
3.3228788582677167
21
-2.195774409448819
0
LINE
8
BLACK
6
CONTINUOUS
10
3.3228788582677167
20
-2.195774409448819
11
3.3228787401574804
21
-2.1957742913385827
0
LINE
8
BLACK
6
CONTINUOUS
10
3.3228787401574804
20
-2.1957742913385827
11
3.3214862598425197
21
-2.1944367716535433
0
LINE
8
BLACK
6
CONTINUOUS
10
3.3214862598425197
20
-2.1944367716535433
11
3.3214862204724409
21
-2.1944367322834646
0
LINE
8
BLACK
6
CONTINUOUS
10
3.3214862204724409
20
-2.1944367322834646
11
3.316118031496063
21
-2.1888478740157478
0
LINE
8
BLACK
6
CONTINUOUS
10
3.316118031496063
20
-2.1888478740157478
11
3.3160062598425197
21
-2.1887488582677164
0
LINE
8
BLACK
6
CONTINUOUS
10
3.3160062598425197
20
-2.1887488582677164
11
3.3103178346456694
21
-2.1837093307086612
0
LINE
8
BLACK
6
CONTINUOUS
10
3.3103178346456694
20
-2.1837093307086612
11
3.3102317716535432
21
-2.1836266535433069
0
LINE
8
BLACK
6
CONTINUOUS
10
3.3102317716535432
20
-2.1836266535433069
11
3.3089248031496061
21
-2.1823712992125985
0
LINE
8
BLACK
6
CONTINUOUS
10
3.3089248031496061
20
-2.1823712992125985
11
3.3074282677165354
21
-2.1811493700787401
0
LINE
8
BLACK
6
CONTINUOUS
10
3.3074282677165354
20
-2.1811493700787401
11
3.3038845669291339
21
-2.1780099606299212
0
LINE
8
BLACK
6
CONTINUOUS
10
3.3038845669291339
20
-2.1780099606299212
11
3.3016285826771652
21
-2.1760112992125982
0
LINE
8
BLACK
6
CONTINUOUS
10
3.3016285826771652
20
-2.1760112992125982
11
3.3016285826771652
21
-2.1760113385826769
0
LINE
8
BLACK
6
CONTINUOUS
10
3.3016285826771652
20
-2.1760113385826769
11
3.3016285433070864
21
-2.1760112992125982
0
LINE
8
BLACK
6
CONTINUOUS
10
3.3016285433070864
20
-2.1760112992125982
11
3.2972827952755903
21
-2.1727456692913387
0
LINE
8
BLACK
6
CONTINUOUS
10
3.2972827952755903
20
-2.1727456692913387
11
3.295433779527559
21
-2.171356220472441
0
LINE
8
BLACK
6
CONTINUOUS
10
3.295433779527559
20
-2.171356220472441
11
3.2942561417322835
21
-2.1703947244094488
0
LINE
8
BLACK
6
CONTINUOUS
10
3.2942561417322835
20
-2.1703947244094488
11
3.2939375984251966
21
-2.1701346456692914
0
LINE
8
BLACK
6
CONTINUOUS
10
3.2939375984251966
20
-2.1701346456692914
11
3.2923479133858269
21
-2.1690373622047243
0
LINE
8
BLACK
6
CONTINUOUS
10
3.2923479133858269
20
-2.1690373622047243
11
3.2884335826771651
21
-2.1660959448818895
0
LINE
8
BLACK
6
CONTINUOUS
10
3.2884335826771651
20
-2.1660959448818895
11
3.2861532283464565
21
-2.1643823622047242
0
LINE
8
BLACK
6
CONTINUOUS
10
3.2861532283464565
20
-2.1643823622047242
11
3.2861531102362203
21
-2.1643822834645667
0
LINE
8
BLACK
6
CONTINUOUS
10
3.2861531102362203
20
-2.1643822834645667
11
3.286153149606299
21
-2.1643822834645667
0
LINE
8
BLACK
6
CONTINUOUS
10
3.286153149606299
20
-2.1643822834645667
11
3.2796039370078738
21
-2.1602408267716533
0
LINE
8
BLACK
6
CONTINUOUS
10
3.2796039370078738
20
-2.1602408267716533
11
3.2780145669291336
21
-2.1591437401574805
0
LINE
8
BLACK
6
CONTINUOUS
10
3.2780145669291336
20
-2.1591437401574805
11
3.2763416929133857
21
-2.158177874015748
0
LINE
8
BLACK
6
CONTINUOUS
10
3.2763416929133857
20
-2.158177874015748
11
3.2712241732283465
21
-2.1549417716535433
0
LINE
8
BLACK
6
CONTINUOUS
10
3.2712241732283465
20
-2.1549417716535433
11
3.2697923622047242
21
-2.1540363385826771
0
LINE
8
BLACK
6
CONTINUOUS
10
3.2697923622047242
20
-2.1540363385826771
11
3.2697922047244092
21
-2.1540362204724408
0
LINE
8
BLACK
6
CONTINUOUS
10
3.2697922047244092
20
-2.1540362204724408
11
3.269792086614173
21
-2.1540361811023621
0
LINE
8
BLACK
6
CONTINUOUS
10
3.269792086614173
20
-2.1540361811023621
11
3.2697920472440942
21
-2.1540361417322833
0
LINE
8
BLACK
6
CONTINUOUS
10
3.2697920472440942
20
-2.1540361417322833
11
3.2629309055118108
21
-2.1504351574803149
0
LINE
8
BLACK
6
CONTINUOUS
10
3.2629309055118108
20
-2.1504351574803149
11
3.2622938188976378
21
-2.1500673228346456
0
LINE
8
BLACK
6
CONTINUOUS
10
3.2622938188976378
20
-2.1500673228346456
11
3.2612583464566929
21
-2.149469527559055
0
LINE
8
BLACK
6
CONTINUOUS
10
3.2612583464566929
20
-2.149469527559055
11
3.2612579527559054
21
-2.1494693307086612
0
LINE
8
BLACK
6
CONTINUOUS
10
3.2612579527559054
20
-2.1494693307086612
11
3.2612578740157478
21
-2.1494692913385824
0
LINE
8
BLACK
6
CONTINUOUS
10
3.2612578740157478
20
-2.1494692913385824
11
3.2595134251968503
21
-2.1486415354330708
0
LINE
8
BLACK
6
CONTINUOUS
10
3.2595134251968503
20
-2.1486415354330708
11
3.2526523228346456
21
-2.1450405511811024
0
LINE
8
BLACK
6
CONTINUOUS
10
3.2526523228346456
20
-2.1450405511811024
11
3.2526522834645668
21
-2.1450405511811024
0
LINE
8
BLACK
6
CONTINUOUS
10
3.2526522834645668
20
-2.1450405511811024
11
3.2526520472440943
21
-2.1450404330708661
0
LINE
8
BLACK
6
CONTINUOUS
10
3.2526520472440943
20
-2.1450404330708661
11
3.245523031496063
21
-2.142003031496063
0
LINE
8
BLACK
6
CONTINUOUS
10
3.245523031496063
20
-2.142003031496063
11
3.2447863779527557
21
-2.1416535039370079
0
LINE
8
BLACK
6
CONTINUOUS
10
3.2447863779527557
20
-2.1416535039370079
11
3.2437782677165354
21
-2.1411751181102363
0
LINE
8
BLACK
6
CONTINUOUS
10
3.2437782677165354
20
-2.1411751181102363
11
3.2437783070866142
21
-2.1411751574803151
0
LINE
8
BLACK
6
CONTINUOUS
10
3.2437783070866142
20
-2.1411751574803151
11
3.2437782283464567
21
-2.1411751181102363
0
LINE
8
BLACK
6
CONTINUOUS
10
3.2437782283464567
20
-2.1411751181102363
11
3.241972283464567
21
-2.1404901968503935
0
LINE
8
BLACK
6
CONTINUOUS
10
3.241972283464567
20
-2.1404901968503935
11
3.2404953543307085
21
-2.1398609448818897
0
LINE
8
BLACK
6
CONTINUOUS
10
3.2404953543307085
20
-2.1398609448818897
11
3.2348434251968503
21
-2.1374528740157479
0
LINE
8
BLACK
6
CONTINUOUS
10
3.2348434251968503
20
-2.1374528740157479
11
3.2348431889763778
21
-2.1374527952755904
0
LINE
8
BLACK
6
CONTINUOUS
10
3.2348431889763778
20
-2.1374527952755904
11
3.2348429133858265
21
-2.1374526771653541
0
LINE
8
BLACK
6
CONTINUOUS
10
3.2348429133858265
20
-2.1374526771653541
11
3.2348429527559053
21
-2.1374526771653541
0
LINE
8
BLACK
6
CONTINUOUS
10
3.2348429527559053
20
-2.1374526771653541
11
3.227492716535433
21
-2.1349988582677164
0
LINE
8
BLACK
6
CONTINUOUS
10
3.227492716535433
20
-2.1349988582677164
11
3.2256876377952755
21
-2.1343142519685041
0
LINE
8
BLACK
6
CONTINUOUS
10
3.2256876377952755
20
-2.1343142519685041
11
3.2256876771653542
21
-2.1343142519685041
0
LINE
8
BLACK
6
CONTINUOUS
10
3.2256876771653542
20
-2.1343142519685041
11
3.223832559055118
21
-2.1337768897637797
0
LINE
8
BLACK
6
CONTINUOUS
10
3.223832559055118
20
-2.1337768897637797
11
3.2164821653543307
21
-2.1313229921259844
0
LINE
8
BLACK
6
CONTINUOUS
10
3.2164821653543307
20
-2.1313229921259844
11
3.2089582677165351
21
-2.1294685039370078
0
LINE
8
BLACK
6
CONTINUOUS
10
3.2089582677165351
20
-2.1294685039370078
11
3.2071032283464564
21
-2.1289311811023621
0
LINE
8
BLACK
6
CONTINUOUS
10
3.2071032283464564
20
-2.1289311811023621
11
3.2071031496062989
21
-2.1289311417322834
0
LINE
8
BLACK
6
CONTINUOUS
10
3.2071031496062989
20
-2.1289311417322834
11
3.2071030708661419
21
-2.1289311417322834
0
LINE
8
BLACK
6
CONTINUOUS
10
3.2071030708661419
20
-2.1289311417322834
11
3.2052106692913385
21
-2.1285448031496061
0
LINE
8
BLACK
6
CONTINUOUS
10
3.2052106692913385
20
-2.1285448031496061
11
3.2031557874015748
21
-2.128038307086614
0
LINE
8
BLACK
6
CONTINUOUS
10
3.2031557874015748
20
-2.128038307086614
11
3.1976868897637796
21
-2.1266903543307087
0
LINE
8
BLACK
6
CONTINUOUS
10
3.1976868897637796
20
-2.1266903543307087
11
3.1976867716535433
21
-2.12669031496063
0
LINE
8
BLACK
6
CONTINUOUS
10
3.1976867716535433
20
-2.12669031496063
11
3.1976867322834646
21
-2.12669031496063
0
LINE
8
BLACK
6
CONTINUOUS
10
3.1976867322834646
20
-2.12669031496063
11
3.1900379921259843
21
-2.1254472834645668
0
LINE
8
BLACK
6
CONTINUOUS
10
3.1900379921259843
20
-2.1254472834645668
11
3.1881457480314959
21
-2.1250609842519683
0
LINE
8
BLACK
6
CONTINUOUS
10
3.1881457480314959
20
-2.1250609842519683
11
3.18622874015748
21
-2.1248282283464568
0
LINE
8
BLACK
6
CONTINUOUS
10
3.18622874015748
20
-2.1248282283464568
11
3.1785797637795277
21
-2.1235851574803148
0
LINE
8
BLACK
6
CONTINUOUS
10
3.1785797637795277
20
-2.1235851574803148
11
3.1708561023622046
21
-2.1229616535433071
0
LINE
8
BLACK
6
CONTINUOUS
10
3.1708561023622046
20
-2.1229616535433071
11
3.168939212598425
21
-2.1227288976377952
0
LINE
8
BLACK
6
CONTINUOUS
10
3.168939212598425
20
-2.1227288976377952
11
3.1689390157480313
21
-2.1227288582677164
0
LINE
8
BLACK
6
CONTINUOUS
10
3.1689390157480313
20
-2.1227288582677164
11
3.1689387795275592
21
-2.1227288582677164
0
LINE
8
BLACK
6
CONTINUOUS
10
3.1689387795275592
20
-2.1227288582677164
11
3.1680742913385824
21
-2.1226940157480314
0
LINE
8
BLACK
6
CONTINUOUS
10
3.1680742913385824
20
-2.1226940157480314
11
3.167008937007874
21
-2.122651062992126
0
LINE
8
BLACK
6
CONTINUOUS
10
3.167008937007874
20
-2.122651062992126
11
3.1625518897637797
21
-2.1222912598425197
0
LINE
8
BLACK
6
CONTINUOUS
10
3.1625518897637797
20
-2.1222912598425197
11
3.1592851181102359
21
-2.1220275590551179
0
LINE
8
BLACK
6
CONTINUOUS
10
3.1592851181102359
20
-2.1220275590551179
11
3.1515358267716533
21
-2.1220275590551179
0
LINE
8
BLACK
6
CONTINUOUS
10
3.1515358267716533
20
-2.1220275590551179
11
3.1496062992125982
21
-2.1219498031496062
0
LINE
8
BLACK
6
CONTINUOUS
10
3.1496062992125982
20
-2.1219498031496062
11
3.1476767716535434
21
-2.1220275590551179
0
LINE
8
BLACK
6
CONTINUOUS
10
3.1476767716535434
20
-2.1220275590551179
11
3.1399274803149604
21
-2.1220275590551179
0
LINE
8
BLACK
6
CONTINUOUS
10
3.1399274803149604
20
-2.1220275590551179
11
3.1370272047244092
21
-2.1222616929133857
0
LINE
8
BLACK
6
CONTINUOUS
10
3.1370272047244092
20
-2.1222616929133857
11
3.132203622047244
21
-2.122651062992126
0
LINE
8
BLACK
6
CONTINUOUS
10
3.132203622047244
20
-2.122651062992126
11
3.13114437007874
21
-2.1226937401574801
0
LINE
8
BLACK
6
CONTINUOUS
10
3.13114437007874
20
-2.1226937401574801
11
3.1302738188976376
21
-2.1227288582677164
0
LINE
8
BLACK
6
CONTINUOUS
10
3.1302738188976376
20
-2.1227288582677164
11
3.130273503937008
21
-2.1227288582677164
0
LINE
8
BLACK
6
CONTINUOUS
10
3.130273503937008
20
-2.1227288582677164
11
3.1302734251968505
21
-2.1227288976377952
0
LINE
8
BLACK
6
CONTINUOUS
10
3.1302734251968505
20
-2.1227288976377952
11
3.1302734645669292
21
-2.1227288976377952
0
LINE
8
BLACK
6
CONTINUOUS
10
3.1302734645669292
20
-2.1227288976377952
11
3.1283564566929134
21
-2.1229616535433071
0
LINE
8
BLACK
6
CONTINUOUS
10
3.1283564566929134
20
-2.1229616535433071
11
3.1206328346456691
21
-2.1235851574803148
0
LINE
8
BLACK
6
CONTINUOUS
10
3.1206328346456691
20
-2.1235851574803148
11
3.1129838188976375
21
-2.1248282283464568
0
LINE
8
BLACK
6
CONTINUOUS
10
3.1129838188976375
20
-2.1248282283464568
11
3.1110669291338584
21
-2.1250609842519683
0
LINE
8
BLACK
6
CONTINUOUS
10
3.1110669291338584
20
-2.1250609842519683
11
3.1110667716535434
21
-2.1250609842519683
0
LINE
8
BLACK
6
CONTINUOUS
10
3.1110667716535434
20
-2.1250609842519683
11
3.1110666929133859
21
-2.1250610236220471
0
LINE
8
BLACK
6
CONTINUOUS
10
3.1110666929133859
20
-2.1250610236220471
11
3.11046437007874
21
-2.1251839763779525
0
LINE
8
BLACK
6
CONTINUOUS
10
3.11046437007874
20
-2.1251839763779525
11
3.1091745669291337
21
-2.1254472834645668
0
LINE
8
BLACK
6
CONTINUOUS
10
3.1091745669291337
20
-2.1254472834645668
11
3.1015258661417322
21
-2.12669031496063
0
LINE
8
BLACK
6
CONTINUOUS
10
3.1015258661417322
20
-2.12669031496063
11
3.1015257874015747
21
-2.12669031496063
0
LINE
8
BLACK
6
CONTINUOUS
10
3.1015257874015747
20
-2.12669031496063
11
3.1015257086614172
21
-2.1266903543307087
0
LINE
8
BLACK
6
CONTINUOUS
10
3.1015257086614172
20
-2.1266903543307087
11
3.1005941732283464
21
-2.1269199606299214
0
LINE
8
BLACK
6
CONTINUOUS
10
3.1005941732283464
20
-2.1269199606299214
11
3.0940018897637795
21
-2.1285448031496061
0
LINE
8
BLACK
6
CONTINUOUS
10
3.0940018897637795
20
-2.1285448031496061
11
3.092836929133858
21
-2.1287825984251967
0
LINE
8
BLACK
6
CONTINUOUS
10
3.092836929133858
20
-2.1287825984251967
11
3.0921095275590549
21
-2.1289311417322834
0
LINE
8
BLACK
6
CONTINUOUS
10
3.0921095275590549
20
-2.1289311417322834
11
3.0921094094488186
21
-2.1289311417322834
0
LINE
8
BLACK
6
CONTINUOUS
10
3.0921094094488186
20
-2.1289311417322834
11
3.0921093700787399
21
-2.1289311811023621
0
LINE
8
BLACK
6
CONTINUOUS
10
3.0921093700787399
20
-2.1289311811023621
11
3.0902542913385824
21
-2.1294685039370078
0
LINE
8
BLACK
6
CONTINUOUS
10
3.0902542913385824
20
-2.1294685039370078
11
3.082730433070866
21
-2.1313229921259844
0
LINE
8
BLACK
6
CONTINUOUS
10
3.082730433070866
20
-2.1313229921259844
11
3.07538
21
-2.1337768897637797
0
LINE
8
BLACK
6
CONTINUOUS
10
3.07538
20
-2.1337768897637797
11
3.0735251181102363
21
-2.1343142125984254
0
LINE
8
BLACK
6
CONTINUOUS
10
3.0735251181102363
20
-2.1343142125984254
11
3.0717198031496062
21
-2.1349988582677164
0
LINE
8
BLACK
6
CONTINUOUS
10
3.0717198031496062
20
-2.1349988582677164
11
3.0643692125984252
21
-2.1374528346456692
0
LINE
8
BLACK
6
CONTINUOUS
10
3.0643692125984252
20
-2.1374528346456692
11
3.064369251968504
21
-2.1374528346456692
0
LINE
8
BLACK
6
CONTINUOUS
10
3.064369251968504
20
-2.1374528346456692
11
3.0572400393700785
21
-2.1404903149606298
0
LINE
8
BLACK
6
CONTINUOUS
10
3.0572400393700785
20
-2.1404903149606298
11
3.0554344881889763
21
-2.1411750787401576
0
LINE
8
BLACK
6
CONTINUOUS
10
3.0554344881889763
20
-2.1411750787401576
11
3.0554344488188976
21
-2.1411750787401576
0
LINE
8
BLACK
6
CONTINUOUS
10
3.0554344488188976
20
-2.1411750787401576
11
3.053689527559055
21
-2.142003031496063
0
LINE
8
BLACK
6
CONTINUOUS
10
3.053689527559055
20
-2.142003031496063
11
3.0496468897637796
21
-2.1437254330708662
0
LINE
8
BLACK
6
CONTINUOUS
10
3.0496468897637796
20
-2.1437254330708662
11
3.0465605511811025
21
-2.1450404330708661
0
LINE
8
BLACK
6
CONTINUOUS
10
3.0465605511811025
20
-2.1450404330708661
11
3.04656031496063
21
-2.1450405511811024
0
LINE
8
BLACK
6
CONTINUOUS
10
3.04656031496063
20
-2.1450405511811024
11
3.0465602755905512
21
-2.1450405511811024
0
LINE
8
BLACK
6
CONTINUOUS
10
3.0465602755905512
20
-2.1450405511811024
11
3.0396991338582677
21
-2.148641496062992
0
LINE
8
BLACK
6
CONTINUOUS
10
3.0396991338582677
20
-2.148641496062992
11
3.0379540157480314
21
-2.1494696456692912
0
LINE
8
BLACK
6
CONTINUOUS
10
3.0379540157480314
20
-2.1494696456692912
11
3.0379539763779526
21
-2.14946968503937
0
LINE
8
BLACK
6
CONTINUOUS
10
3.0379539763779526
20
-2.14946968503937
11
3.0362816929133856
21
-2.1504351574803149
0
LINE
8
BLACK
6
CONTINUOUS
10
3.0362816929133856
20
-2.1504351574803149
11
3.032641968503937
21
-2.1523454330708662
0
LINE
8
BLACK
6
CONTINUOUS
10
3.032641968503937
20
-2.1523454330708662
11
3.0294202362204725
21
-2.1540363385826771
0
LINE
8
BLACK
6
CONTINUOUS
10
3.0294202362204725
20
-2.1540363385826771
11
3.029420157480315
21
-2.1540363779527558
0
LINE
8
BLACK
6
CONTINUOUS
10
3.029420157480315
20
-2.1540363779527558
11
3.022870905511811
21
-2.158177874015748
0
LINE
8
BLACK
6
CONTINUOUS
10
3.022870905511811
20
-2.158177874015748
11
3.0211984251968502
21
-2.1591435039370079
0
LINE
8
BLACK
6
CONTINUOUS
10
3.0211984251968502
20
-2.1591435039370079
11
3.021198464566929
21
-2.1591434645669292
0
LINE
8
BLACK
6
CONTINUOUS
10
3.021198464566929
20
-2.1591434645669292
11
3.0196085826771655
21
-2.1602408267716533
0
LINE
8
BLACK
6
CONTINUOUS
10
3.0196085826771655
20
-2.1602408267716533
11
3.0130594488188978
21
-2.1643822834645667
0
LINE
8
BLACK
6
CONTINUOUS
10
3.0130594488188978
20
-2.1643822834645667
11
3.0130594881889765
21
-2.1643822834645667
0
LINE
8
BLACK
6
CONTINUOUS
10
3.0130594881889765
20
-2.1643822834645667
11
3.0068646456692911
21
-2.1690373622047243
0
LINE
8
BLACK
6
CONTINUOUS
10
3.0068646456692911
20
-2.1690373622047243
11
3.0052747244094489
21
-2.1701348425196851
0
LINE
8
BLACK
6
CONTINUOUS
10
3.0052747244094489
20
-2.1701348425196851
11
3.0052747637795276
21
-2.1701348425196851
0
LINE
8
BLACK
6
CONTINUOUS
10
3.0052747637795276
20
-2.1701348425196851
11
3.003778779527559
21
-2.171356220472441
0
LINE
8
BLACK
6
CONTINUOUS
10
3.003778779527559
20
-2.171356220472441
11
2.9975840157480316
21
-2.1760112992125982
0
LINE
8
BLACK
6
CONTINUOUS
10
2.9975840157480316
20
-2.1760112992125982
11
2.9917841338582676
21
-2.1811495669291339
0
LINE
8
BLACK
6
CONTINUOUS
10
2.9917841338582676
20
-2.1811495669291339
11
2.9902879133858269
21
-2.1823711811023623
0
LINE
8
BLACK
6
CONTINUOUS
10
2.9902879133858269
20
-2.1823711811023623
11
2.9888946456692911
21
-2.1837094094488188
0
LINE
8
BLACK
6
CONTINUOUS
10
2.9888946456692911
20
-2.1837094094488188
11
2.9871554724409446
21
-2.1852501968503937
0
LINE
8
BLACK
6
CONTINUOUS
10
2.9871554724409446
20
-2.1852501968503937
11
2.983206338582677
21
-2.1887488582677164
0
LINE
8
BLACK
6
CONTINUOUS
10
2.983206338582677
20
-2.1887488582677164
11
2.9830945669291338
21
-2.1888478740157478
0
LINE
8
BLACK
6
CONTINUOUS
10
2.9830945669291338
20
-2.1888478740157478
11
2.9777263385826771
21
-2.1944367716535433
0
LINE
8
BLACK
6
CONTINUOUS
10
2.9777263385826771
20
-2.1944367716535433
11
2.9763339370078739
21
-2.1957741732283464
0
LINE
8
BLACK
6
CONTINUOUS
10
2.9763339370078739
20
-2.1957741732283464
11
2.9750535039370076
21
-2.1972194488188976
0
LINE
8
BLACK
6
CONTINUOUS
10
2.9750535039370076
20
-2.1972194488188976
11
2.9725240157480313
21
-2.1998529133858269
0
LINE
8
BLACK
6
CONTINUOUS
10
2.9725240157480313
20
-2.1998529133858269
11
2.9696851968503934
21
-2.2028085039370078
0
LINE
8
BLACK
6
CONTINUOUS
10
2.9696851968503934
20
-2.2028085039370078
11
2.9696848818897639
21
-2.2028088976377953
0
LINE
8
BLACK
6
CONTINUOUS
10
2.9696848818897639
20
-2.2028088976377953
11
2.9696848425196851
21
-2.2028088976377953
0
LINE
8
BLACK
6
CONTINUOUS
10
2.9696848425196851
20
-2.2028088976377953
11
2.9647841732283462
21
-2.2088111023622048
0
LINE
8
BLACK
6
CONTINUOUS
10
2.9647841732283462
20
-2.2088111023622048
11
2.9635036614173229
21
-2.210256535433071
0
LINE
8
BLACK
6
CONTINUOUS
10
2.9635036614173229
20
-2.210256535433071
11
2.9623434251968503
21
-2.2118005118110236
0
LINE
8
BLACK
6
CONTINUOUS
10
2.9623434251968503
20
-2.2118005118110236
11
2.9591371653543308
21
-2.2157274409448817
0
LINE
8
BLACK
6
CONTINUOUS
10
2.9591371653543308
20
-2.2157274409448817
11
2.9574425590551181
21
-2.2178030314960631
0
LINE
8
BLACK
6
CONTINUOUS
10
2.9574425590551181
20
-2.2178030314960631
11
2.9535883858267717
21
-2.2233867322834646
0
LINE
8
BLACK
6
CONTINUOUS
10
2.9535883858267717
20
-2.2233867322834646
11
2.953040748031496
21
-2.2241801574803151
0
LINE
8
BLACK
6
CONTINUOUS
10
2.953040748031496
20
-2.2241801574803151
11
2.9518803543307084
21
-2.2257243700787401
0
LINE
8
BLACK
6
CONTINUOUS
10
2.9518803543307084
20
-2.2257243700787401
11
2.9518801968503938
21
-2.2257246456692914
0
LINE
8
BLACK
6
CONTINUOUS
10
2.9518801968503938
20
-2.2257246456692914
11
2.9508479527559053
21
-2.2273569685039369
0
LINE
8
BLACK
6
CONTINUOUS
10
2.9508479527559053
20
-2.2273569685039369
11
2.9464461811023623
21
-2.2337340551181102
0
LINE
8
BLACK
6
CONTINUOUS
10
2.9464461811023623
20
-2.2337340551181102
11
2.9456833464566929
21
-2.2350553543307088
0
LINE
8
BLACK
6
CONTINUOUS
10
2.9456833464566929
20
-2.2350553543307088
11
2.9425718897637796
21
-2.2404444488188977
0
LINE
8
BLACK
6
CONTINUOUS
10
2.9425718897637796
20
-2.2404444488188977
11
2.941539409448819
21
-2.2420772440944883
0
LINE
8
BLACK
6
CONTINUOUS
10
2.941539409448819
20
-2.2420772440944883
11
2.9406416535433069
21
-2.2437876771653542
0
LINE
8
BLACK
6
CONTINUOUS
10
2.9406416535433069
20
-2.2437876771653542
11
2.9367674015748029
21
-2.2504981496062992
0
LINE
8
BLACK
6
CONTINUOUS
10
2.9367674015748029
20
-2.2504981496062992
11
2.9334453937007874
21
-2.2574990551181102
0
LINE
8
BLACK
6
CONTINUOUS
10
2.9334453937007874
20
-2.2574990551181102
11
2.9328790157480316
21
-2.2585781889763781
0
LINE
8
BLACK
6
CONTINUOUS
10
2.9328790157480316
20
-2.2585781889763781
11
2.9325478740157478
21
-2.2592092125984253
0
LINE
8
BLACK
6
CONTINUOUS
10
2.9325478740157478
20
-2.2592092125984253
11
2.932547834645669
21
-2.2592093307086611
0
LINE
8
BLACK
6
CONTINUOUS
10
2.932547834645669
20
-2.2592093307086611
11
2.9317907874015749
21
-2.2609860629921261
0
LINE
8
BLACK
6
CONTINUOUS
10
2.9317907874015749
20
-2.2609860629921261
11
2.9284688976377953
21
-2.2679868110236221
0
LINE
8
BLACK
6
CONTINUOUS
10
2.9284688976377953
20
-2.2679868110236221
11
2.9257211417322835
21
-2.2752320472440943
0
LINE
8
BLACK
6
CONTINUOUS
10
2.9257211417322835
20
-2.2752320472440943
11
2.9257211417322835
21
-2.2752320866141731
0
LINE
8
BLACK
6
CONTINUOUS
10
2.9257211417322835
20
-2.2752320866141731
11
2.9249640157480314
21
-2.2770091338582676
0
LINE
8
BLACK
6
CONTINUOUS
10
2.9249640157480314
20
-2.2770091338582676
11
2.9246742519685038
21
-2.2778770078740158
0
LINE
8
BLACK
6
CONTINUOUS
10
2.9246742519685038
20
-2.2778770078740158
11
2.9243523622047243
21
-2.2788411811023623
0
LINE
8
BLACK
6
CONTINUOUS
10
2.9243523622047243
20
-2.2788411811023623
11
2.9216046456692912
21
-2.2860863385826771
0
LINE
8
BLACK
6
CONTINUOUS
10
2.9216046456692912
20
-2.2860863385826771
11
2.9216046456692912
21
-2.2860862992125983
0
LINE
8
BLACK
6
CONTINUOUS
10
2.9216046456692912
20
-2.2860862992125983
11
2.9194484251968502
21
-2.2935303149606301
0
LINE
8
BLACK
6
CONTINUOUS
10
2.9194484251968502
20
-2.2935303149606301
11
2.9188370866141731
21
-2.2953615748031497
0
LINE
8
BLACK
6
CONTINUOUS
10
2.9188370866141731
20
-2.2953615748031497
11
2.9183750393700785
21
-2.297236062992126
0
LINE
8
BLACK
6
CONTINUOUS
10
2.9183750393700785
20
-2.297236062992126
11
2.9164465748031496
21
-2.3038939763779527
0
LINE
8
BLACK
6
CONTINUOUS
10
2.9164465748031496
20
-2.3038939763779527
11
2.9162189370078742
21
-2.3046799212598423
0
LINE
8
BLACK
6
CONTINUOUS
10
2.9162189370078742
20
-2.3046799212598423
11
2.9162074803149607
21
-2.3047359842519684
0
LINE
8
BLACK
6
CONTINUOUS
10
2.9162074803149607
20
-2.3047359842519684
11
2.9146687795275592
21
-2.3122730708661416
0
LINE
8
BLACK
6
CONTINUOUS
10
2.9146687795275592
20
-2.3122730708661416
11
2.9142067716535434
21
-2.3141475590551179
0
LINE
8
BLACK
6
CONTINUOUS
10
2.9142067716535434
20
-2.3141475590551179
11
2.9142067322834646
21
-2.3141478346456692
0
LINE
8
BLACK
6
CONTINUOUS
10
2.9142067322834646
20
-2.3141478346456692
11
2.9142067322834646
21
-2.3141477952755904
0
LINE
8
BLACK
6
CONTINUOUS
10
2.9142067322834646
20
-2.3141477952755904
11
2.9138970472440944
21
-2.3160532283464565
0
LINE
8
BLACK
6
CONTINUOUS
10
2.9138970472440944
20
-2.3160532283464565
11
2.9123468897637794
21
-2.3236464960629921
0
LINE
8
BLACK
6
CONTINUOUS
10
2.9123468897637794
20
-2.3236464960629921
11
2.9114128740157481
21
-2.3313388188976378
0
LINE
8
BLACK
6
CONTINUOUS
10
2.9114128740157481
20
-2.3313388188976378
11
2.9111031102362204
21
-2.3332449212598423
0
LINE
8
BLACK
6
CONTINUOUS
10
2.9111031102362204
20
-2.3332449212598423
11
2.9109476377952754
21
-2.335170275590551
0
LINE
8
BLACK
6
CONTINUOUS
10
2.9109476377952754
20
-2.335170275590551
11
2.9100136614173229
21
-2.342862401574803
0
LINE
8
BLACK
6
CONTINUOUS
10
2.9100136614173229
20
-2.342862401574803
11
2.9100136220472441
21
-2.3428627952755905
0
LINE
8
BLACK
6
CONTINUOUS
10
2.9100136220472441
20
-2.3428627952755905
11
2.9100128740157478
21
-2.3428816535433072
0
LINE
8
BLACK
6
CONTINUOUS
10
2.9100128740157478
20
-2.3428816535433072
11
2.9097015748031496
21
-2.3506061023622045
0
LINE
8
BLACK
6
CONTINUOUS
10
2.9097015748031496
20
-2.3506061023622045
11
2.9095462598425197
21
-2.3525305905511811
0
LINE
8
BLACK
6
CONTINUOUS
10
2.9095462598425197
20
-2.3525305905511811
11
2.9095462204724409
21
-2.3525308661417323
0
LINE
8
BLACK
6
CONTINUOUS
10
2.9095462204724409
20
-2.3525308661417323
11
2.9095462204724409
21
-2.3544612992125984
0
LINE
8
BLACK
6
CONTINUOUS
10
2.9095462204724409
20
-2.3544612992125984
11
2.9092341732283464
21
-2.3622047244094486
0
LINE
8
BLACK
6
CONTINUOUS
10
2.9092341732283464
20
-2.3622047244094486
11
2.9095202755905509
21
-2.3693048031496065
0
LINE
8
BLACK
6
CONTINUOUS
10
3.5885827165354329
20
-2.3051180708661416
11
3.6041255905511811
21
-2.3051180708661416
0
LINE
8
BLACK
6
CONTINUOUS
10
3.6041255905511811
20
-2.3051180708661416
11
3.6041256299212598
21
-2.3051180314960629
0
LINE
8
BLACK
6
CONTINUOUS
10
3.6041256299212598
20
-2.3051180314960629
11
3.6051131496062991
21
-2.3050035433070866
0
LINE
8
BLACK
6
CONTINUOUS
10
3.6051131496062991
20
-2.3050035433070866
11
3.6091526377952756
21
-2.3032199212598425
0
LINE
8
BLACK
6
CONTINUOUS
10
3.6091526377952756
20
-2.3032199212598425
11
3.6122750393700787
21
-2.3000975196850395
0
LINE
8
BLACK
6
CONTINUOUS
10
3.6122750393700787
20
-2.3000975196850395
11
3.6140586614173227
21
-2.2960579527559055
0
LINE
8
BLACK
6
CONTINUOUS
10
3.6140586614173227
20
-2.2960579527559055
11
3.6141731889763777
21
-2.2950707480314958
0
LINE
8
BLACK
6
CONTINUOUS
10
3.6141731889763777
20
-2.2950707480314958
11
3.6141732283464565
21
-2.2950706692913387
0
LINE
8
BLACK
6
CONTINUOUS
10
3.6141732283464565
20
-2.2950706692913387
11
3.6141732283464565
21
-2.2450787795275589
0
LINE
8
BLACK
6
CONTINUOUS
10
3.6141732283464565
20
-2.2450787795275589
11
3.6141731889763777
21
-2.2450787401574801
0
LINE
8
BLACK
6
CONTINUOUS
10
3.6141731889763777
20
-2.2450787401574801
11
3.6023622047244093
21
-2.2450787401574801
0
LINE
8
BLACK
6
CONTINUOUS
10
3.6023622047244093
20
-2.2450787401574801
11
3.6023622047244093
21
-2.2933070866141732
0
LINE
8
BLACK
6
CONTINUOUS
10
3.6023622047244093
20
-2.2933070866141732
11
3.5885826771653542
21
-2.2933070866141732
0
LINE
8
BLACK
6
CONTINUOUS
10
3.5885826771653542
20
-2.2933070866141732
11
3.5885826771653542
21
-2.3051180314960629
0
LINE
8
BLACK
6
CONTINUOUS
10
3.5885826771653542
20
-2.3051180314960629
11
3.5885827165354329
21
-2.3051180708661416
0
LINE
8
BLACK
6
CONTINUOUS
10
3.5512956299212597
20
-2.296058031496063
11
3.5530792519685037
21
-2.3000975196850395
0
LINE
8
BLACK
6
CONTINUOUS
10
3.5530792519685037
20
-2.3000975196850395
11
3.5562016535433072
21
-2.3032199212598425
0
LINE
8
BLACK
6
CONTINUOUS
10
3.5562016535433072
20
-2.3032199212598425
11
3.5602412204724407
21
-2.3050035433070866
0
LINE
8
BLACK
6
CONTINUOUS
10
3.5602412204724407
20
-2.3050035433070866
11
3.5612284645669292
21
-2.3051180708661416
0
LINE
8
BLACK
6
CONTINUOUS
10
3.5612284645669292
20
-2.3051180708661416
11
3.5767715748031494
21
-2.3051180708661416
0
LINE
8
BLACK
6
CONTINUOUS
10
3.5767715748031494
20
-2.3051180708661416
11
3.576771653543307
21
-2.3051180314960629
0
LINE
8
BLACK
6
CONTINUOUS
10
3.576771653543307
20
-2.3051180314960629
11
3.576771653543307
21
-2.2933070866141732
0
LINE
8
BLACK
6
CONTINUOUS
10
3.576771653543307
20
-2.2933070866141732
11
3.5629921259842519
21
-2.2933070866141732
0
LINE
8
BLACK
6
CONTINUOUS
10
3.5629921259842519
20
-2.2933070866141732
11
3.5629921259842519
21
-2.2450787401574801
0
LINE
8
BLACK
6
CONTINUOUS
10
3.5629921259842519
20
-2.2450787401574801
11
3.5517225196850393
21
-2.2450787401574801
0
LINE
8
BLACK
6
CONTINUOUS
10
3.5517225196850393
20
-2.2450787401574801
11
3.551303503937008
21
-2.2452922440944882
0
LINE
8
BLACK
6
CONTINUOUS
10
3.551303503937008
20
-2.2452922440944882
11
3.5511811417322834
21
-2.2453116141732283
0
LINE
8
BLACK
6
CONTINUOUS
10
3.5511811417322834
20
-2.2453116141732283
11
3.5511811417322834
21
-2.2950705118110237
0
LINE
8
BLACK
6
CONTINUOUS
10
3.5511811417322834
20
-2.2950705118110237
11
3.5512956299212597
21
-2.296058031496063
0
LINE
8
BLACK
6
CONTINUOUS
10
3.5934490944881889
20
-2.4023455511811025
11
3.5978391338582676
21
-2.4045824015748032
0
LINE
8
BLACK
6
CONTINUOUS
10
3.5978391338582676
20
-2.4045824015748032
11
3.6013231102362204
21
-2.408066377952756
0
LINE
8
BLACK
6
CONTINUOUS
10
3.6013231102362204
20
-2.408066377952756
11
3.6035599606299211
21
-2.4124564173228347
0
LINE
8
BLACK
6
CONTINUOUS
10
3.6035599606299211
20
-2.4124564173228347
11
3.6043307086614171
21
-2.4173228346456694
0
LINE
8
BLACK
6
CONTINUOUS
10
3.6043307086614171
20
-2.4173228346456694
11
3.6035599606299211
21
-2.4221892519685038
0
LINE
8
BLACK
6
CONTINUOUS
10
3.6035599606299211
20
-2.4221892519685038
11
3.6013231102362204
21
-2.4265792913385824
0
LINE
8
BLACK
6
CONTINUOUS
10
3.6013231102362204
20
-2.4265792913385824
11
3.5978391338582676
21
-2.4300632677165352
0
LINE
8
BLACK
6
CONTINUOUS
10
3.5978391338582676
20
-2.4300632677165352
11
3.5957998031496063
21
-2.4311023622047245
0
LINE
8
BLACK
6
CONTINUOUS
10
3.5957998031496063
20
-2.4311023622047245
11
3.6023622047244093
21
-2.4311023622047245
0
LINE
8
BLACK
6
CONTINUOUS
10
3.6023622047244093
20
-2.4311023622047245
11
3.6023622047244093
21
-2.5393700787401574
0
LINE
8
BLACK
6
CONTINUOUS
10
3.6023622047244093
20
-2.5393700787401574
11
3.5957998031496063
21
-2.5393700787401574
0
LINE
8
BLACK
6
CONTINUOUS
10
3.5957998031496063
20
-2.5393700787401574
11
3.5978391338582676
21
-2.5404091732283463
0
LINE
8
BLACK
6
CONTINUOUS
10
3.5978391338582676
20
-2.5404091732283463
11
3.6013231102362204
21
-2.5438931496062991
0
LINE
8
BLACK
6
CONTINUOUS
10
3.6013231102362204
20
-2.5438931496062991
11
3.6035599606299211
21
-2.5482831889763777
0
LINE
8
BLACK
6
CONTINUOUS
10
3.6035599606299211
20
-2.5482831889763777
11
3.6043307086614171
21
-2.5531496062992125
0
LINE
8
BLACK
6
CONTINUOUS
10
3.6043307086614171
20
-2.5531496062992125
11
3.6035599606299211
21
-2.5580160236220473
0
LINE
8
BLACK
6
CONTINUOUS
10
3.6035599606299211
20
-2.5580160236220473
11
3.6013231102362204
21
-2.5624060629921259
0
LINE
8
BLACK
6
CONTINUOUS
10
3.6013231102362204
20
-2.5624060629921259
11
3.5978391338582676
21
-2.5658900393700788
0
LINE
8
BLACK
6
CONTINUOUS
10
3.5978391338582676
20
-2.5658900393700788
11
3.5934490944881889
21
-2.5681268897637795
0
LINE
8
BLACK
6
CONTINUOUS
10
3.5934490944881889
20
-2.5681268897637795
11
3.5885826771653542
21
-2.5688976377952755
0
LINE
8
BLACK
6
CONTINUOUS
10
3.5885826771653542
20
-2.5688976377952755
11
3.5837162598425194
21
-2.5681268897637795
0
LINE
8
BLACK
6
CONTINUOUS
10
3.5837162598425194
20
-2.5681268897637795
11
3.5793262204724408
21
-2.5658900393700788
0
LINE
8
BLACK
6
CONTINUOUS
10
3.5793262204724408
20
-2.5658900393700788
11
3.5758422440944879
21
-2.5624060629921259
0
LINE
8
BLACK
6
CONTINUOUS
10
3.5758422440944879
20
-2.5624060629921259
11
3.5746363385826769
21
-2.5600393700787403
0
LINE
8
BLACK
6
CONTINUOUS
10
3.5746363385826769
20
-2.5600393700787403
11
3.5730014566929134
21
-2.5600393700787403
0
LINE
8
BLACK
6
CONTINUOUS
10
3.5730014566929134
20
-2.5600393700787403
11
3.5717955511811024
21
-2.5624060629921259
0
LINE
8
BLACK
6
CONTINUOUS
10
3.5717955511811024
20
-2.5624060629921259
11
3.5683115748031495
21
-2.5658900393700788
0
LINE
8
BLACK
6
CONTINUOUS
10
3.5683115748031495
20
-2.5658900393700788
11
3.5639215354330709
21
-2.5681268897637795
0
LINE
8
BLACK
6
CONTINUOUS
10
3.5639215354330709
20
-2.5681268897637795
11
3.5590551181102361
21
-2.5688976377952755
0
LINE
8
BLACK
6
CONTINUOUS
10
3.5590551181102361
20
-2.5688976377952755
11
3.5541887007874013
21
-2.5681268897637795
0
LINE
8
BLACK
6
CONTINUOUS
10
3.5541887007874013
20
-2.5681268897637795
11
3.5497986614173227
21
-2.5658900393700788
0
LINE
8
BLACK
6
CONTINUOUS
10
3.5497986614173227
20
-2.5658900393700788
11
3.5463146850393699
21
-2.5624060629921259
0
LINE
8
BLACK
6
CONTINUOUS
10
3.5463146850393699
20
-2.5624060629921259
11
3.5440778346456692
21
-2.5580160236220473
0
LINE
8
BLACK
6
CONTINUOUS
10
3.5440778346456692
20
-2.5580160236220473
11
3.5433070866141732
21
-2.5531496062992125
0
LINE
8
BLACK
6
CONTINUOUS
10
3.5433070866141732
20
-2.5531496062992125
11
3.5440778346456692
21
-2.5482831889763777
0
LINE
8
BLACK
6
CONTINUOUS
10
3.5440778346456692
20
-2.5482831889763777
11
3.5463146850393699
21
-2.5438931496062991
0
LINE
8
BLACK
6
CONTINUOUS
10
3.5463146850393699
20
-2.5438931496062991
11
3.5497986614173227
21
-2.5404091732283463
0
LINE
8
BLACK
6
CONTINUOUS
10
3.5497986614173227
20
-2.5404091732283463
11
3.5541887007874013
21
-2.5381723228346456
0
LINE
8
BLACK
6
CONTINUOUS
10
3.5541887007874013
20
-2.5381723228346456
11
3.5590551181102361
21
-2.5374015748031495
0
LINE
8
BLACK
6
CONTINUOUS
10
3.5590551181102361
20
-2.5374015748031495
11
3.5629921259842519
21
-2.538025118110236
0
LINE
8
BLACK
6
CONTINUOUS
10
3.5629921259842519
20
-2.538025118110236
11
3.5629921259842519
21
-2.4324472834645667
0
LINE
8
BLACK
6
CONTINUOUS
10
3.5629921259842519
20
-2.4324472834645667
11
3.5590551181102361
21
-2.4330708661417324
0
LINE
8
BLACK
6
CONTINUOUS
10
3.5590551181102361
20
-2.4330708661417324
11
3.5541887007874013
21
-2.4323001181102364
0
LINE
8
BLACK
6
CONTINUOUS
10
3.5541887007874013
20
-2.4323001181102364
11
3.5497986614173227
21
-2.4300632677165352
0
LINE
8
BLACK
6
CONTINUOUS
10
3.5497986614173227
20
-2.4300632677165352
11
3.5463146850393699
21
-2.4265792913385824
0
LINE
8
BLACK
6
CONTINUOUS
10
3.5463146850393699
20
-2.4265792913385824
11
3.5440778346456692
21
-2.4221892519685038
0
LINE
8
BLACK
6
CONTINUOUS
10
3.5440778346456692
20
-2.4221892519685038
11
3.5433070866141732
21
-2.4173228346456694
0
LINE
8
BLACK
6
CONTINUOUS
10
3.5433070866141732
20
-2.4173228346456694
11
3.5440778346456692
21
-2.4124564173228347
0
LINE
8
BLACK
6
CONTINUOUS
10
3.5440778346456692
20
-2.4124564173228347
11
3.5463146850393699
21
-2.408066377952756
0
LINE
8
BLACK
6
CONTINUOUS
10
3.5463146850393699
20
-2.408066377952756
11
3.5497986614173227
21
-2.4045824015748032
0
LINE
8
BLACK
6
CONTINUOUS
10
3.5497986614173227
20
-2.4045824015748032
11
3.5541887007874013
21
-2.4023455511811025
0
LINE
8
BLACK
6
CONTINUOUS
10
3.5541887007874013
20
-2.4023455511811025
11
3.5590551181102361
21
-2.401574803149606
0
LINE
8
BLACK
6
CONTINUOUS
10
3.5590551181102361
20
-2.401574803149606
11
3.5639215354330709
21
-2.4023455511811025
0
LINE
8
BLACK
6
CONTINUOUS
10
3.5639215354330709
20
-2.4023455511811025
11
3.5683115748031495
21
-2.4045824015748032
0
LINE
8
BLACK
6
CONTINUOUS
10
3.5683115748031495
20
-2.4045824015748032
11
3.5717955511811024
21
-2.408066377952756
0
LINE
8
BLACK
6
CONTINUOUS
10
3.5717955511811024
20
-2.408066377952756
11
3.5738188976377954
21
-2.4120373622047242
0
LINE
8
BLACK
6
CONTINUOUS
10
3.5738188976377954
20
-2.4120373622047242
11
3.5758422440944879
21
-2.408066377952756
0
LINE
8
BLACK
6
CONTINUOUS
10
3.5758422440944879
20
-2.408066377952756
11
3.5793262204724408
21
-2.4045824015748032
0
LINE
8
BLACK
6
CONTINUOUS
10
3.5793262204724408
20
-2.4045824015748032
11
3.5837162598425194
21
-2.4023455511811025
0
LINE
8
BLACK
6
CONTINUOUS
10
3.5837162598425194
20
-2.4023455511811025
11
3.5885826771653542
21
-2.401574803149606
0
LINE
8
BLACK
6
CONTINUOUS
10
3.5885826771653542
20
-2.401574803149606
11
3.5934490944881889
21
-2.4023455511811025
0
LINE
8
BLACK
6
CONTINUOUS
10
3.5729687401574801
20
-2.5461956299212596
11
3.5738188976377954
21
-2.5478641338582677
0
LINE
8
BLACK
6
CONTINUOUS
10
3.5738188976377954
20
-2.5478641338582677
11
3.5758422440944879
21
-2.5438931496062991
0
LINE
8
BLACK
6
CONTINUOUS
10
3.5758422440944879
20
-2.5438931496062991
11
3.5777559055118111
21
-2.5419794881889763
0
LINE
8
BLACK
6
CONTINUOUS
10
3.5777559055118111
20
-2.5419794881889763
11
3.5777559055118111
21
-2.5414085039370078
0
LINE
8
BLACK
6
CONTINUOUS
10
3.5777559055118111
20
-2.5414085039370078
11
3.5729687401574801
21
-2.5461956299212596
0
LINE
8
BLACK
6
CONTINUOUS
10
3.5729687401574801
20
-2.4242767716535432
11
3.5777559055118111
21
-2.4290639370078742
0
LINE
8
BLACK
6
CONTINUOUS
10
3.5777559055118111
20
-2.4290639370078742
11
3.5777559055118111
21
-2.4284929527559056
0
LINE
8
BLACK
6
CONTINUOUS
10
3.5777559055118111
20
-2.4284929527559056
11
3.5758422440944879
21
-2.4265792913385824
0
LINE
8
BLACK
6
CONTINUOUS
10
3.5758422440944879
20
-2.4265792913385824
11
3.5738188976377954
21
-2.4226082677165355
0
LINE
8
BLACK
6
CONTINUOUS
10
3.5738188976377954
20
-2.4226082677165355
11
3.5729687401574801
21
-2.4242767716535432
0
LINE
8
BLACK
6
CONTINUOUS
10
3.5236220472440944
20
-2.5393700787401574
11
3.484251968503937
21
-2.5393700787401574
0
LINE
8
BLACK
6
CONTINUOUS
10
3.484251968503937
20
-2.5393700787401574
11
3.484251968503937
21
-2.4911417322834644
0
LINE
8
BLACK
6
CONTINUOUS
10
3.484251968503937
20
-2.4911417322834644
11
3.4381776771653541
21
-2.4911417322834644
0
LINE
8
BLACK
6
CONTINUOUS
10
3.4381776771653541
20
-2.4911417322834644
11
3.4359687795275589
21
-2.4954769291338583
0
LINE
8
BLACK
6
CONTINUOUS
10
3.4359687795275589
20
-2.4954769291338583
11
3.432484803149606
21
-2.4989609055118112
0
LINE
8
BLACK
6
CONTINUOUS
10
3.432484803149606
20
-2.4989609055118112
11
3.4280947637795274
21
-2.5011977559055119
0
LINE
8
BLACK
6
CONTINUOUS
10
3.4280947637795274
20
-2.5011977559055119
11
3.423228346456693
21
-2.5019685039370079
0
LINE
8
BLACK
6
CONTINUOUS
10
3.423228346456693
20
-2.5019685039370079
11
3.4183619291338583
21
-2.5011977559055119
0
LINE
8
BLACK
6
CONTINUOUS
10
3.4183619291338583
20
-2.5011977559055119
11
3.4139718897637796
21
-2.4989609055118112
0
LINE
8
BLACK
6
CONTINUOUS
10
3.4139718897637796
20
-2.4989609055118112
11
3.4104879133858268
21
-2.4954769291338583
0
LINE
8
BLACK
6
CONTINUOUS
10
3.4104879133858268
20
-2.4954769291338583
11
3.4082510629921261
21
-2.4910868897637797
0
LINE
8
BLACK
6
CONTINUOUS
10
3.4082510629921261
20
-2.4910868897637797
11
3.4074803149606296
21
-2.4862204724409449
0
LINE
8
BLACK
6
CONTINUOUS
10
3.4074803149606296
20
-2.4862204724409449
11
3.4082510629921261
21
-2.4813540551181101
0
LINE
8
BLACK
6
CONTINUOUS
10
3.4082510629921261
20
-2.4813540551181101
11
3.4104879133858268
21
-2.4769640157480315
0
LINE
8
BLACK
6
CONTINUOUS
10
3.4104879133858268
20
-2.4769640157480315
11
3.4139718897637796
21
-2.4734800393700787
0
LINE
8
BLACK
6
CONTINUOUS
10
3.4139718897637796
20
-2.4734800393700787
11
3.4183619291338583
21
-2.471243188976378
0
LINE
8
BLACK
6
CONTINUOUS
10
3.4183619291338583
20
-2.471243188976378
11
3.423228346456693
21
-2.4704724409448819
0
LINE
8
BLACK
6
CONTINUOUS
10
3.423228346456693
20
-2.4704724409448819
11
3.4280947637795274
21
-2.471243188976378
0
LINE
8
BLACK
6
CONTINUOUS
10
3.4280947637795274
20
-2.471243188976378
11
3.432484803149606
21
-2.4734800393700787
0
LINE
8
BLACK
6
CONTINUOUS
10
3.432484803149606
20
-2.4734800393700787
11
3.4359687795275589
21
-2.4769640157480315
0
LINE
8
BLACK
6
CONTINUOUS
10
3.4359687795275589
20
-2.4769640157480315
11
3.4381776771653541
21
-2.481299212598425
0
LINE
8
BLACK
6
CONTINUOUS
10
3.4381776771653541
20
-2.481299212598425
11
3.484251968503937
21
-2.481299212598425
0
LINE
8
BLACK
6
CONTINUOUS
10
3.484251968503937
20
-2.481299212598425
11
3.484251968503937
21
-2.4311023622047245
0
LINE
8
BLACK
6
CONTINUOUS
10
3.484251968503937
20
-2.4311023622047245
11
3.5236220472440944
21
-2.4311023622047245
0
LINE
8
BLACK
6
CONTINUOUS
10
3.5236220472440944
20
-2.4311023622047245
11
3.5236220472440944
21
-2.5393700787401574
0
LINE
8
BLACK
6
CONTINUOUS
10
3.5236220472440944
20
-2.2933070866141732
11
3.5088582677165352
21
-2.2933070866141732
0
LINE
8
BLACK
6
CONTINUOUS
10
3.5088582677165352
20
-2.2933070866141732
11
3.5088582677165352
21
-2.409448818897638
0
LINE
8
BLACK
6
CONTINUOUS
10
3.5088582677165352
20
-2.409448818897638
11
3.508658937007874
21
-2.4108353149606301
0
LINE
8
BLACK
6
CONTINUOUS
10
3.508658937007874
20
-2.4108353149606301
11
3.5084646456692914
21
-2.4111375590551178
0
LINE
8
BLACK
6
CONTINUOUS
10
3.5084646456692914
20
-2.4111375590551178
11
3.5084135433070864
21
-2.4114931889763778
0
LINE
8
BLACK
6
CONTINUOUS
10
3.5084135433070864
20
-2.4114931889763778
11
3.5077268110236219
21
-2.4122856692913386
0
LINE
8
BLACK
6
CONTINUOUS
10
3.5077268110236219
20
-2.4122856692913386
11
3.5071597637795273
21
-2.4131680708661416
0
LINE
8
BLACK
6
CONTINUOUS
10
3.5071597637795273
20
-2.4131680708661416
11
3.5068328740157479
21
-2.4133173228346454
0
LINE
8
BLACK
6
CONTINUOUS
10
3.5068328740157479
20
-2.4133173228346454
11
3.5065976377952754
21
-2.4135888582677163
0
LINE
8
BLACK
6
CONTINUOUS
10
3.5065976377952754
20
-2.4135888582677163
11
3.5055913779527557
21
-2.4138842913385825
0
LINE
8
BLACK
6
CONTINUOUS
10
3.5055913779527557
20
-2.4138842913385825
11
3.5046373622047242
21
-2.41432
0
LINE
8
BLACK
6
CONTINUOUS
10
3.5046373622047242
20
-2.41432
11
3.5042816929133855
21
-2.4142688582677163
0
LINE
8
BLACK
6
CONTINUOUS
10
3.5042816929133855
20
-2.4142688582677163
11
3.5039370078740157
21
-2.4143700787401574
0
LINE
8
BLACK
6
CONTINUOUS
10
3.5039370078740157
20
-2.4143700787401574
11
3.4749699606299211
21
-2.4143700787401574
0
LINE
8
BLACK
6
CONTINUOUS
10
3.4749699606299211
20
-2.4143700787401574
11
3.4737640551181102
21
-2.4167367716535431
0
LINE
8
BLACK
6
CONTINUOUS
10
3.4737640551181102
20
-2.4167367716535431
11
3.4702800787401573
21
-2.4202207480314959
0
LINE
8
BLACK
6
CONTINUOUS
10
3.4702800787401573
20
-2.4202207480314959
11
3.4658900393700787
21
-2.4224575984251966
0
LINE
8
BLACK
6
CONTINUOUS
10
3.4658900393700787
20
-2.4224575984251966
11
3.4610236220472439
21
-2.423228346456693
0
LINE
8
BLACK
6
CONTINUOUS
10
3.4610236220472439
20
-2.423228346456693
11
3.4561572047244096
21
-2.4224575984251966
0
LINE
8
BLACK
6
CONTINUOUS
10
3.4561572047244096
20
-2.4224575984251966
11
3.4517671653543305
21
-2.4202207480314959
0
LINE
8
BLACK
6
CONTINUOUS
10
3.4517671653543305
20
-2.4202207480314959
11
3.4482831889763781
21
-2.4167367716535431
0
LINE
8
BLACK
6
CONTINUOUS
10
3.4482831889763781
20
-2.4167367716535431
11
3.4460463385826769
21
-2.4123467322834644
0
LINE
8
BLACK
6
CONTINUOUS
10
3.4460463385826769
20
-2.4123467322834644
11
3.4452755905511809
21
-2.4074803149606301
0
LINE
8
BLACK
6
CONTINUOUS
10
3.4452755905511809
20
-2.4074803149606301
11
3.4460463385826769
21
-2.4026138976377953
0
LINE
8
BLACK
6
CONTINUOUS
10
3.4460463385826769
20
-2.4026138976377953
11
3.4482831889763781
21
-2.3982238582677167
0
LINE
8
BLACK
6
CONTINUOUS
10
3.4482831889763781
20
-2.3982238582677167
11
3.4517671653543305
21
-2.3947398818897638
0
LINE
8
BLACK
6
CONTINUOUS
10
3.4517671653543305
20
-2.3947398818897638
11
3.4561572047244096
21
-2.3925030314960631
0
LINE
8
BLACK
6
CONTINUOUS
10
3.4561572047244096
20
-2.3925030314960631
11
3.4610236220472439
21
-2.3917322834645667
0
LINE
8
BLACK
6
CONTINUOUS
10
3.4610236220472439
20
-2.3917322834645667
11
3.4658900393700787
21
-2.3925030314960631
0
LINE
8
BLACK
6
CONTINUOUS
10
3.4658900393700787
20
-2.3925030314960631
11
3.4702800787401573
21
-2.3947398818897638
0
LINE
8
BLACK
6
CONTINUOUS
10
3.4702800787401573
20
-2.3947398818897638
11
3.4737640551181102
21
-2.3982238582677167
0
LINE
8
BLACK
6
CONTINUOUS
10
3.4737640551181102
20
-2.3982238582677167
11
3.4760009055118108
21
-2.4026138976377953
0
LINE
8
BLACK
6
CONTINUOUS
10
3.4760009055118108
20
-2.4026138976377953
11
3.4763039763779529
21
-2.4045275590551181
0
LINE
8
BLACK
6
CONTINUOUS
10
3.4763039763779529
20
-2.4045275590551181
11
3.4990157480314958
21
-2.4045275590551181
0
LINE
8
BLACK
6
CONTINUOUS
10
3.4990157480314958
20
-2.4045275590551181
11
3.4990157480314958
21
-2.2933070866141732
0
LINE
8
BLACK
6
CONTINUOUS
10
3.4990157480314958
20
-2.2933070866141732
11
3.484251968503937
21
-2.2933070866141732
0
LINE
8
BLACK
6
CONTINUOUS
10
3.484251968503937
20
-2.2933070866141732
11
3.484251968503937
21
-2.1850393700787403
0
LINE
8
BLACK
6
CONTINUOUS
10
3.484251968503937
20
-2.1850393700787403
11
3.5236220472440944
21
-2.1850393700787403
0
LINE
8
BLACK
6
CONTINUOUS
10
3.5236220472440944
20
-2.1850393700787403
11
3.5236220472440944
21
-2.2933070866141732
0
CIRCLE
8
BLACK
10
3.423228346456693
20
-2.4862204724409449
40
0.0078740157480315
0
CIRCLE
8
BLACK
10
2.9133858267716537
20
-2.0472440944881889
40
0.0078740157480315
0
CIRCLE
8
BLACK
10
2.7587321653543309
20
-2.4092973228346457
40
0.0078740157480315
0
CIRCLE
8
BLACK
10
2.9949526377952753
20
-2.7242579527559054
40
0.0078740157480315
0
CIRCLE
8
BLACK
10
3.5464370866141732
20
-2.2303149606299213
40
0.0078740157480315
0
CIRCLE
8
BLACK
10
3.1966988976377952
20
-2.7530788582677164
40
0.0078740157480315
0
CIRCLE
8
BLACK
10
3.304259960629921
20
-2.0001514960629923
40
0.0078740157480315
0
CIRCLE
8
BLACK
10
2.8346456692913384
20
-2.5984251968503935
40
0.0078740157480315
0
CIRCLE
8
BLACK
10
3.3858267716535431
20
-2.6748031496062992
40
0.0078740157480315
0
CIRCLE
8
BLACK
10
2.7875530708661418
20
-2.2075510629921258
40
0.0078740157480315
0
CIRCLE
8
BLACK
10
3.4645669291338583
20
-2.1259842519685037
40
0.0078740157480315
0
CIRCLE
8
BLACK
10
3.474803149606299
20
-2.5992125984251966
40
0.0078740157480315
0
CIRCLE
8
BLACK
10
3.1025137007874015
20
-1.9713305905511811
40
0.0078740157480315
0
CIRCLE
8
BLACK
10
3.5590551181102361
20
-2.4173228346456694
40
0.0078740157480315
0
CIRCLE
8
BLACK
10
3.5885826771653542
20
-2.4173228346456694
40
0.0078740157480315
0
CIRCLE
8
BLACK
10
3.5885826771653542
20
-2.5531496062992125
40
0.0078740157480315
0
CIRCLE
8
BLACK
10
3.5590551181102361
20
-2.5531496062992125
40
0.0078740157480315
0
CIRCLE
8
BLACK
10
3.4526833464566926
20
-2.3051906692913384
40
0.0078740157480315
0
CIRCLE
8
BLACK
10
3.4610236220472439
20
-2.4074803149606301
40
0.0078740157480315
  0
ENDSEC
  0
EOF
