  0
SECTION
  2
HEADER
  9
$ANGBASE
  50
0.0
  9
$ANGDIR
  70
1
  9
$MEASUREMENT
  70
0
  0
ENDSEC
  0
SECTION
  2
TABLES
  0
TABLE
  2
LTYPE
  70
4
  0
LTYPE
  5
40F
  2
CONTINUOUS
  70
0
  3
Solid line
  72
65
  73
0
  40
0.0
  0
LTYPE
  5
410
  2
DASHDOT
 70
0
  3
Dash Dot ____ _ ____ _
 72
65
 73
4
 40
2.0
 49
1.25
 49
-0.25
 49
0.25
 49
-0.25
  0
LTYPE
  5
411
  2
DASHED
 70
0
  3
Dashed __ __ __ __ __
 72
65
 73
2
 40
0.75
 49
0.5
 49
-0.25
  0
LTYPE
  5
43B
  2
DOTTED
 70
0
  3
Dotted .  .  .  .
 72
65
 73
2
 40
0.2
 49
0.0
 49
-0.2
  0
ENDTAB
  0
TABLE
  2
STYLE
  70
4
  0
STYLE
  2
KICAD
  70
0
  40
0
  41
1
  42
1
  50
0
  71
0
  3
isocp.shx
  0
STYLE
  2
KICADB
  70
0
  40
0
  41
1
  42
1
  50
0
  71
0
  3
isocp.shx
  0
STYLE
  2
KICADI
  70
0
  40
0
  41
1
  42
1
  50
15
  71
0
  3
isocp.shx
  0
STYLE
  2
KICADBI
  70
0
  40
0
  41
1
  42
1
  50
15
  71
0
  3
isocp.shx
  0
ENDTAB
  0
TABLE
  2
LAYER
  70
1
  0
LAYER
  2
BLACK
  70
0
  62
7
  6
CONTINUOUS
  0
ENDTAB
  0
ENDSEC
  0
SECTION
  2
ENTITIES
0
LINE
8
BLACK
6
CONTINUOUS
10
3.17929
20
-2.10505
11
3.19889
21
-2.10808
0
LINE
8
BLACK
6
CONTINUOUS
10
3.19889
20
-2.10808
11
3.2182
21
-2.1126
0
LINE
8
BLACK
6
CONTINUOUS
10
3.2182
20
-2.1126
11
3.2371
21
-2.11858
0
LINE
8
BLACK
6
CONTINUOUS
10
3.2371
20
-2.11858
11
3.2555
21
-2.126
0
LINE
8
BLACK
6
CONTINUOUS
10
3.2555
20
-2.126
11
3.27327
21
-2.13479
0
LINE
8
BLACK
6
CONTINUOUS
10
3.27327
20
-2.13479
11
3.29031
21
-2.14493
0
LINE
8
BLACK
6
CONTINUOUS
10
3.29031
20
-2.14493
11
3.30653
21
-2.15634
0
LINE
8
BLACK
6
CONTINUOUS
10
3.30653
20
-2.15634
11
3.32183
21
-2.16895
0
LINE
8
BLACK
6
CONTINUOUS
10
3.32183
20
-2.16895
11
3.33612
21
-2.1827
0
LINE
8
BLACK
6
CONTINUOUS
10
3.33612
20
-2.1827
11
3.34931
21
-2.19751
0
LINE
8
BLACK
6
CONTINUOUS
10
3.34931
20
-2.19751
11
3.36133
21
-2.21328
0
LINE
8
BLACK
6
CONTINUOUS
10
3.36133
20
-2.21328
11
3.37211
21
-2.22992
0
LINE
8
BLACK
6
CONTINUOUS
10
3.37211
20
-2.22992
11
3.38159
21
-2.24734
0
LINE
8
BLACK
6
CONTINUOUS
10
3.38159
20
-2.24734
11
3.3897
21
-2.26544
0
LINE
8
BLACK
6
CONTINUOUS
10
3.3897
20
-2.26544
11
3.3964
21
-2.2841
0
LINE
8
BLACK
6
CONTINUOUS
10
3.3964
20
-2.2841
11
3.40166
21
-2.30322
0
LINE
8
BLACK
6
CONTINUOUS
10
3.40166
20
-2.30322
11
3.40543
21
-2.32269
0
LINE
8
BLACK
6
CONTINUOUS
10
3.40543
20
-2.32269
11
3.40771
21
-2.34239
0
LINE
8
BLACK
6
CONTINUOUS
10
3.40771
20
-2.34239
11
3.40846
21
-2.3622
0
LINE
8
BLACK
6
CONTINUOUS
10
3.40846
20
-2.3622
11
3.40771
21
-2.38202
0
LINE
8
BLACK
6
CONTINUOUS
10
3.40771
20
-2.38202
11
3.40543
21
-2.40172
0
LINE
8
BLACK
6
CONTINUOUS
10
3.40543
20
-2.40172
11
3.40166
21
-2.42119
0
LINE
8
BLACK
6
CONTINUOUS
10
3.40166
20
-2.42119
11
3.3964
21
-2.44031
0
LINE
8
BLACK
6
CONTINUOUS
10
3.3964
20
-2.44031
11
3.3897
21
-2.45897
0
LINE
8
BLACK
6
CONTINUOUS
10
3.3897
20
-2.45897
11
3.38159
21
-2.47707
0
LINE
8
BLACK
6
CONTINUOUS
10
3.38159
20
-2.47707
11
3.37211
21
-2.49449
0
LINE
8
BLACK
6
CONTINUOUS
10
3.37211
20
-2.49449
11
3.36133
21
-2.51113
0
LINE
8
BLACK
6
CONTINUOUS
10
3.36133
20
-2.51113
11
3.34931
21
-2.5269
0
LINE
8
BLACK
6
CONTINUOUS
10
3.34931
20
-2.5269
11
3.33612
21
-2.54171
0
LINE
8
BLACK
6
CONTINUOUS
10
3.33612
20
-2.54171
11
3.32183
21
-2.55546
0
LINE
8
BLACK
6
CONTINUOUS
10
3.32183
20
-2.55546
11
3.30653
21
-2.56807
0
LINE
8
BLACK
6
CONTINUOUS
10
3.30653
20
-2.56807
11
3.29031
21
-2.57948
0
LINE
8
BLACK
6
CONTINUOUS
10
3.29031
20
-2.57948
11
3.27327
21
-2.58961
0
LINE
8
BLACK
6
CONTINUOUS
10
3.27327
20
-2.58961
11
3.2555
21
-2.59841
0
LINE
8
BLACK
6
CONTINUOUS
10
3.2555
20
-2.59841
11
3.2371
21
-2.60583
0
LINE
8
BLACK
6
CONTINUOUS
10
3.2371
20
-2.60583
11
3.2182
21
-2.61181
0
LINE
8
BLACK
6
CONTINUOUS
10
3.2182
20
-2.61181
11
3.19889
21
-2.61633
0
LINE
8
BLACK
6
CONTINUOUS
10
3.19889
20
-2.61633
11
3.17929
21
-2.61936
0
LINE
8
BLACK
6
CONTINUOUS
10
3.17929
20
-2.61936
11
3.15952
21
-2.62087
0
LINE
8
BLACK
6
CONTINUOUS
10
3.15952
20
-2.62087
11
3.13969
21
-2.62087
0
LINE
8
BLACK
6
CONTINUOUS
10
3.13969
20
-2.62087
11
3.11992
21
-2.61936
0
LINE
8
BLACK
6
CONTINUOUS
10
3.11992
20
-2.61936
11
3.10032
21
-2.61633
0
LINE
8
BLACK
6
CONTINUOUS
10
3.10032
20
-2.61633
11
3.08101
21
-2.61181
0
LINE
8
BLACK
6
CONTINUOUS
10
3.08101
20
-2.61181
11
3.06211
21
-2.60583
0
LINE
8
BLACK
6
CONTINUOUS
10
3.06211
20
-2.60583
11
3.04372
21
-2.59841
0
LINE
8
BLACK
6
CONTINUOUS
10
3.04372
20
-2.59841
11
3.02594
21
-2.58961
0
LINE
8
BLACK
6
CONTINUOUS
10
3.02594
20
-2.58961
11
3.0089
21
-2.57948
0
LINE
8
BLACK
6
CONTINUOUS
10
3.0089
20
-2.57948
11
2.99268
21
-2.56807
0
LINE
8
BLACK
6
CONTINUOUS
10
2.99268
20
-2.56807
11
2.97738
21
-2.55546
0
LINE
8
BLACK
6
CONTINUOUS
10
2.97738
20
-2.55546
11
2.96309
21
-2.54171
0
LINE
8
BLACK
6
CONTINUOUS
10
2.96309
20
-2.54171
11
2.9499
21
-2.5269
0
LINE
8
BLACK
6
CONTINUOUS
10
2.9499
20
-2.5269
11
2.93788
21
-2.51113
0
LINE
8
BLACK
6
CONTINUOUS
10
2.93788
20
-2.51113
11
2.9271
21
-2.49449
0
LINE
8
BLACK
6
CONTINUOUS
10
2.9271
20
-2.49449
11
2.91763
21
-2.47707
0
LINE
8
BLACK
6
CONTINUOUS
10
2.91763
20
-2.47707
11
2.90951
21
-2.45897
0
LINE
8
BLACK
6
CONTINUOUS
10
2.90951
20
-2.45897
11
2.90281
21
-2.44031
0
LINE
8
BLACK
6
CONTINUOUS
10
2.90281
20
-2.44031
11
2.89756
21
-2.42119
0
LINE
8
BLACK
6
CONTINUOUS
10
2.89756
20
-2.42119
11
2.89378
21
-2.40172
0
LINE
8
BLACK
6
CONTINUOUS
10
2.89378
20
-2.40172
11
2.89151
21
-2.38202
0
LINE
8
BLACK
6
CONTINUOUS
10
2.89151
20
-2.38202
11
2.89075
21
-2.3622
0
LINE
8
BLACK
6
CONTINUOUS
10
2.89075
20
-2.3622
11
2.89151
21
-2.34239
0
LINE
8
BLACK
6
CONTINUOUS
10
2.89151
20
-2.34239
11
2.89378
21
-2.32269
0
LINE
8
BLACK
6
CONTINUOUS
10
2.89378
20
-2.32269
11
2.89756
21
-2.30322
0
LINE
8
BLACK
6
CONTINUOUS
10
2.89756
20
-2.30322
11
2.90281
21
-2.2841
0
LINE
8
BLACK
6
CONTINUOUS
10
2.90281
20
-2.2841
11
2.90951
21
-2.26544
0
LINE
8
BLACK
6
CONTINUOUS
10
2.90951
20
-2.26544
11
2.91763
21
-2.24734
0
LINE
8
BLACK
6
CONTINUOUS
10
2.91763
20
-2.24734
11
2.9271
21
-2.22992
0
LINE
8
BLACK
6
CONTINUOUS
10
2.9271
20
-2.22992
11
2.93788
21
-2.21328
0
LINE
8
BLACK
6
CONTINUOUS
10
2.93788
20
-2.21328
11
2.9499
21
-2.19751
0
LINE
8
BLACK
6
CONTINUOUS
10
2.9499
20
-2.19751
11
2.96309
21
-2.1827
0
LINE
8
BLACK
6
CONTINUOUS
10
2.96309
20
-2.1827
11
2.97738
21
-2.16895
0
LINE
8
BLACK
6
CONTINUOUS
10
2.97738
20
-2.16895
11
2.99268
21
-2.15634
0
LINE
8
BLACK
6
CONTINUOUS
10
2.99268
20
-2.15634
11
3.0089
21
-2.14493
0
LINE
8
BLACK
6
CONTINUOUS
10
3.0089
20
-2.14493
11
3.02594
21
-2.13479
0
LINE
8
BLACK
6
CONTINUOUS
10
3.02594
20
-2.13479
11
3.04372
21
-2.126
0
LINE
8
BLACK
6
CONTINUOUS
10
3.04372
20
-2.126
11
3.06211
21
-2.11858
0
LINE
8
BLACK
6
CONTINUOUS
10
3.06211
20
-2.11858
11
3.08101
21
-2.1126
0
LINE
8
BLACK
6
CONTINUOUS
10
3.08101
20
-2.1126
11
3.10032
21
-2.10808
0
LINE
8
BLACK
6
CONTINUOUS
10
3.10032
20
-2.10808
11
3.11992
21
-2.10505
0
LINE
8
BLACK
6
CONTINUOUS
10
3.11992
20
-2.10505
11
3.13969
21
-2.10354
0
LINE
8
BLACK
6
CONTINUOUS
10
3.13969
20
-2.10354
11
3.15952
21
-2.10354
0
LINE
8
BLACK
6
CONTINUOUS
10
3.15952
20
-2.10354
11
3.17929
21
-2.10505
0
LINE
8
BLACK
6
CONTINUOUS
10
2.89724
20
-2.38207
11
2.89958
21
-2.40181
0
LINE
8
BLACK
6
CONTINUOUS
10
2.89958
20
-2.40181
11
2.90345
21
-2.4213
0
LINE
8
BLACK
6
CONTINUOUS
10
2.90345
20
-2.4213
11
2.90885
21
-2.44043
0
LINE
8
BLACK
6
CONTINUOUS
10
2.90885
20
-2.44043
11
2.91573
21
-2.45908
0
LINE
8
BLACK
6
CONTINUOUS
10
2.91573
20
-2.45908
11
2.92405
21
-2.47713
0
LINE
8
BLACK
6
CONTINUOUS
10
2.92405
20
-2.47713
11
2.93376
21
-2.49447
0
LINE
8
BLACK
6
CONTINUOUS
10
2.93376
20
-2.49447
11
2.94481
21
-2.511
0
LINE
8
BLACK
6
CONTINUOUS
10
2.94481
20
-2.511
11
2.95711
21
-2.52661
0
LINE
8
BLACK
6
CONTINUOUS
10
2.95711
20
-2.52661
11
2.9706
21
-2.54121
0
LINE
8
BLACK
6
CONTINUOUS
10
2.9706
20
-2.54121
11
2.9852
21
-2.5547
0
LINE
8
BLACK
6
CONTINUOUS
10
2.9852
20
-2.5547
11
3.00081
21
-2.56701
0
LINE
8
BLACK
6
CONTINUOUS
10
3.00081
20
-2.56701
11
3.01734
21
-2.57805
0
LINE
8
BLACK
6
CONTINUOUS
10
3.01734
20
-2.57805
11
3.03468
21
-2.58776
0
LINE
8
BLACK
6
CONTINUOUS
10
3.03468
20
-2.58776
11
3.05273
21
-2.59608
0
LINE
8
BLACK
6
CONTINUOUS
10
3.05273
20
-2.59608
11
3.07138
21
-2.60296
0
LINE
8
BLACK
6
CONTINUOUS
10
3.07138
20
-2.60296
11
3.09051
21
-2.60836
0
LINE
8
BLACK
6
CONTINUOUS
10
3.09051
20
-2.60836
11
3.11001
21
-2.61224
0
LINE
8
BLACK
6
CONTINUOUS
10
3.11001
20
-2.61224
11
3.12974
21
-2.61457
0
LINE
8
BLACK
6
CONTINUOUS
10
3.12974
20
-2.61457
11
3.14961
21
-2.61535
0
LINE
8
BLACK
6
CONTINUOUS
10
3.14961
20
-2.61535
11
3.16947
21
-2.61457
0
LINE
8
BLACK
6
CONTINUOUS
10
3.16947
20
-2.61457
11
3.18921
21
-2.61224
0
LINE
8
BLACK
6
CONTINUOUS
10
3.18921
20
-2.61224
11
3.2087
21
-2.60836
0
LINE
8
BLACK
6
CONTINUOUS
10
3.2087
20
-2.60836
11
3.22783
21
-2.60296
0
LINE
8
BLACK
6
CONTINUOUS
10
3.22783
20
-2.60296
11
3.24648
21
-2.59608
0
LINE
8
BLACK
6
CONTINUOUS
10
3.24648
20
-2.59608
11
3.26453
21
-2.58776
0
LINE
8
BLACK
6
CONTINUOUS
10
3.26453
20
-2.58776
11
3.28188
21
-2.57805
0
LINE
8
BLACK
6
CONTINUOUS
10
3.28188
20
-2.57805
11
3.2984
21
-2.56701
0
LINE
8
BLACK
6
CONTINUOUS
10
3.2984
20
-2.56701
11
3.31401
21
-2.5547
0
LINE
8
BLACK
6
CONTINUOUS
10
3.31401
20
-2.5547
11
3.32861
21
-2.54121
0
LINE
8
BLACK
6
CONTINUOUS
10
3.32861
20
-2.54121
11
3.3421
21
-2.52661
0
LINE
8
BLACK
6
CONTINUOUS
10
3.3421
20
-2.52661
11
3.35441
21
-2.511
0
LINE
8
BLACK
6
CONTINUOUS
10
3.35441
20
-2.511
11
3.36545
21
-2.49447
0
LINE
8
BLACK
6
CONTINUOUS
10
3.36545
20
-2.49447
11
3.37516
21
-2.47713
0
LINE
8
BLACK
6
CONTINUOUS
10
3.37516
20
-2.47713
11
3.38348
21
-2.45908
0
LINE
8
BLACK
6
CONTINUOUS
10
3.38348
20
-2.45908
11
3.39036
21
-2.44043
0
LINE
8
BLACK
6
CONTINUOUS
10
3.39036
20
-2.44043
11
3.39576
21
-2.4213
0
LINE
8
BLACK
6
CONTINUOUS
10
3.39576
20
-2.4213
11
3.39964
21
-2.40181
0
LINE
8
BLACK
6
CONTINUOUS
10
3.39964
20
-2.40181
11
3.40197
21
-2.38207
0
LINE
8
BLACK
6
CONTINUOUS
10
3.40197
20
-2.38207
11
3.40275
21
-2.3622
0
LINE
8
BLACK
6
CONTINUOUS
10
3.40275
20
-2.3622
11
3.40197
21
-2.34234
0
LINE
8
BLACK
6
CONTINUOUS
10
3.40197
20
-2.34234
11
3.39964
21
-2.3226
0
LINE
8
BLACK
6
CONTINUOUS
10
3.39964
20
-2.3226
11
3.39576
21
-2.30311
0
LINE
8
BLACK
6
CONTINUOUS
10
3.39576
20
-2.30311
11
3.39036
21
-2.28398
0
LINE
8
BLACK
6
CONTINUOUS
10
3.39036
20
-2.28398
11
3.38348
21
-2.26533
0
LINE
8
BLACK
6
CONTINUOUS
10
3.38348
20
-2.26533
11
3.37516
21
-2.24728
0
LINE
8
BLACK
6
CONTINUOUS
10
3.37516
20
-2.24728
11
3.36545
21
-2.22994
0
LINE
8
BLACK
6
CONTINUOUS
10
3.36545
20
-2.22994
11
3.35441
21
-2.21341
0
LINE
8
BLACK
6
CONTINUOUS
10
3.35441
20
-2.21341
11
3.3421
21
-2.1978
0
LINE
8
BLACK
6
CONTINUOUS
10
3.3421
20
-2.1978
11
3.32861
21
-2.1832
0
LINE
8
BLACK
6
CONTINUOUS
10
3.32861
20
-2.1832
11
3.31401
21
-2.16971
0
LINE
8
BLACK
6
CONTINUOUS
10
3.31401
20
-2.16971
11
3.2984
21
-2.1574
0
LINE
8
BLACK
6
CONTINUOUS
10
3.2984
20
-2.1574
11
3.28188
21
-2.14636
0
LINE
8
BLACK
6
CONTINUOUS
10
3.28188
20
-2.14636
11
3.26453
21
-2.13665
0
LINE
8
BLACK
6
CONTINUOUS
10
3.26453
20
-2.13665
11
3.24648
21
-2.12833
0
LINE
8
BLACK
6
CONTINUOUS
10
3.24648
20
-2.12833
11
3.22783
21
-2.12145
0
LINE
8
BLACK
6
CONTINUOUS
10
3.22783
20
-2.12145
11
3.2087
21
-2.11605
0
LINE
8
BLACK
6
CONTINUOUS
10
3.2087
20
-2.11605
11
3.18921
21
-2.11217
0
LINE
8
BLACK
6
CONTINUOUS
10
3.18921
20
-2.11217
11
3.16947
21
-2.10984
0
LINE
8
BLACK
6
CONTINUOUS
10
3.16947
20
-2.10984
11
3.14961
21
-2.10906
0
LINE
8
BLACK
6
CONTINUOUS
10
3.14961
20
-2.10906
11
3.12974
21
-2.10984
0
LINE
8
BLACK
6
CONTINUOUS
10
3.12974
20
-2.10984
11
3.11001
21
-2.11217
0
LINE
8
BLACK
6
CONTINUOUS
10
3.11001
20
-2.11217
11
3.09051
21
-2.11605
0
LINE
8
BLACK
6
CONTINUOUS
10
3.09051
20
-2.11605
11
3.07138
21
-2.12145
0
LINE
8
BLACK
6
CONTINUOUS
10
3.07138
20
-2.12145
11
3.05273
21
-2.12833
0
LINE
8
BLACK
6
CONTINUOUS
10
3.05273
20
-2.12833
11
3.03468
21
-2.13665
0
LINE
8
BLACK
6
CONTINUOUS
10
3.03468
20
-2.13665
11
3.01734
21
-2.14636
0
LINE
8
BLACK
6
CONTINUOUS
10
3.01734
20
-2.14636
11
3.00081
21
-2.1574
0
LINE
8
BLACK
6
CONTINUOUS
10
3.00081
20
-2.1574
11
2.9852
21
-2.16971
0
LINE
8
BLACK
6
CONTINUOUS
10
2.9852
20
-2.16971
11
2.9706
21
-2.1832
0
LINE
8
BLACK
6
CONTINUOUS
10
2.9706
20
-2.1832
11
2.95711
21
-2.1978
0
LINE
8
BLACK
6
CONTINUOUS
10
2.95711
20
-2.1978
11
2.94481
21
-2.21341
0
LINE
8
BLACK
6
CONTINUOUS
10
2.94481
20
-2.21341
11
2.93376
21
-2.22994
0
LINE
8
BLACK
6
CONTINUOUS
10
2.93376
20
-2.22994
11
2.92405
21
-2.24728
0
LINE
8
BLACK
6
CONTINUOUS
10
2.92405
20
-2.24728
11
2.91573
21
-2.26533
0
LINE
8
BLACK
6
CONTINUOUS
10
2.91573
20
-2.26533
11
2.90885
21
-2.28398
0
LINE
8
BLACK
6
CONTINUOUS
10
2.90885
20
-2.28398
11
2.90345
21
-2.30311
0
LINE
8
BLACK
6
CONTINUOUS
10
2.90345
20
-2.30311
11
2.89958
21
-2.3226
0
LINE
8
BLACK
6
CONTINUOUS
10
2.89958
20
-2.3226
11
2.89724
21
-2.34234
0
LINE
8
BLACK
6
CONTINUOUS
10
2.89724
20
-2.34234
11
2.89646
21
-2.3622
0
LINE
8
BLACK
6
CONTINUOUS
10
2.89646
20
-2.3622
11
2.89724
21
-2.38207
0
LINE
8
BLACK
6
CONTINUOUS
10
3.30884
20
-2.08568
11
3.30897
21
-2.08566
0
LINE
8
BLACK
6
CONTINUOUS
10
3.30897
20
-2.08566
11
3.30918
21
-2.08582
0
LINE
8
BLACK
6
CONTINUOUS
10
3.30918
20
-2.08582
11
3.30941
21
-2.08592
0
LINE
8
BLACK
6
CONTINUOUS
10
3.30941
20
-2.08592
11
3.30947
21
-2.08604
0
LINE
8
BLACK
6
CONTINUOUS
10
3.30947
20
-2.08604
11
3.30957
21
-2.08612
0
LINE
8
BLACK
6
CONTINUOUS
10
3.30957
20
-2.08612
11
3.46868
21
-2.36171
0
LINE
8
BLACK
6
CONTINUOUS
10
3.46868
20
-2.36171
11
3.4687
21
-2.36184
0
LINE
8
BLACK
6
CONTINUOUS
10
3.4687
20
-2.36184
11
3.46878
21
-2.36195
0
LINE
8
BLACK
6
CONTINUOUS
10
3.46878
20
-2.36195
11
3.46875
21
-2.3622
0
LINE
8
BLACK
6
CONTINUOUS
10
3.46875
20
-2.3622
11
3.46878
21
-2.36246
0
LINE
8
BLACK
6
CONTINUOUS
10
3.46878
20
-2.36246
11
3.4687
21
-2.36257
0
LINE
8
BLACK
6
CONTINUOUS
10
3.4687
20
-2.36257
11
3.46868
21
-2.3627
0
LINE
8
BLACK
6
CONTINUOUS
10
3.46868
20
-2.3627
11
3.30957
21
-2.63829
0
LINE
8
BLACK
6
CONTINUOUS
10
3.30957
20
-2.63829
11
3.30947
21
-2.63837
0
LINE
8
BLACK
6
CONTINUOUS
10
3.30947
20
-2.63837
11
3.30941
21
-2.63849
0
LINE
8
BLACK
6
CONTINUOUS
10
3.30941
20
-2.63849
11
3.30918
21
-2.63859
0
LINE
8
BLACK
6
CONTINUOUS
10
3.30918
20
-2.63859
11
3.30897
21
-2.63875
0
LINE
8
BLACK
6
CONTINUOUS
10
3.30897
20
-2.63875
11
3.30884
21
-2.63873
0
LINE
8
BLACK
6
CONTINUOUS
10
3.30884
20
-2.63873
11
3.30872
21
-2.63878
0
LINE
8
BLACK
6
CONTINUOUS
10
3.30872
20
-2.63878
11
2.99049
21
-2.63878
0
LINE
8
BLACK
6
CONTINUOUS
10
2.99049
20
-2.63878
11
2.99037
21
-2.63873
0
LINE
8
BLACK
6
CONTINUOUS
10
2.99037
20
-2.63873
11
2.99024
21
-2.63875
0
LINE
8
BLACK
6
CONTINUOUS
10
2.99024
20
-2.63875
11
2.99004
21
-2.63859
0
LINE
8
BLACK
6
CONTINUOUS
10
2.99004
20
-2.63859
11
2.9898
21
-2.63849
0
LINE
8
BLACK
6
CONTINUOUS
10
2.9898
20
-2.63849
11
2.98975
21
-2.63837
0
LINE
8
BLACK
6
CONTINUOUS
10
2.98975
20
-2.63837
11
2.98964
21
-2.63829
0
LINE
8
BLACK
6
CONTINUOUS
10
2.98964
20
-2.63829
11
2.83053
21
-2.3627
0
LINE
8
BLACK
6
CONTINUOUS
10
2.83053
20
-2.3627
11
2.83051
21
-2.36257
0
LINE
8
BLACK
6
CONTINUOUS
10
2.83051
20
-2.36257
11
2.83043
21
-2.36246
0
LINE
8
BLACK
6
CONTINUOUS
10
2.83043
20
-2.36246
11
2.83046
21
-2.3622
0
LINE
8
BLACK
6
CONTINUOUS
10
2.83046
20
-2.3622
11
2.83043
21
-2.36195
0
LINE
8
BLACK
6
CONTINUOUS
10
2.83043
20
-2.36195
11
2.83051
21
-2.36184
0
LINE
8
BLACK
6
CONTINUOUS
10
2.83051
20
-2.36184
11
2.83053
21
-2.36171
0
LINE
8
BLACK
6
CONTINUOUS
10
2.83053
20
-2.36171
11
2.98964
21
-2.08612
0
LINE
8
BLACK
6
CONTINUOUS
10
2.98964
20
-2.08612
11
2.98975
21
-2.08604
0
LINE
8
BLACK
6
CONTINUOUS
10
2.98975
20
-2.08604
11
2.9898
21
-2.08592
0
LINE
8
BLACK
6
CONTINUOUS
10
2.9898
20
-2.08592
11
2.99004
21
-2.08582
0
LINE
8
BLACK
6
CONTINUOUS
10
2.99004
20
-2.08582
11
2.99024
21
-2.08566
0
LINE
8
BLACK
6
CONTINUOUS
10
2.99024
20
-2.08566
11
2.99037
21
-2.08568
0
LINE
8
BLACK
6
CONTINUOUS
10
2.99037
20
-2.08568
11
2.99049
21
-2.08563
0
LINE
8
BLACK
6
CONTINUOUS
10
2.99049
20
-2.08563
11
3.30872
21
-2.08563
0
LINE
8
BLACK
6
CONTINUOUS
10
3.30872
20
-2.08563
11
3.30884
21
-2.08568
0
LINE
8
BLACK
6
CONTINUOUS
10
2.99106
20
-2.0876
11
2.83252
21
-2.3622
0
LINE
8
BLACK
6
CONTINUOUS
10
2.83252
20
-2.3622
11
2.99106
21
-2.63681
0
LINE
8
BLACK
6
CONTINUOUS
10
2.99106
20
-2.63681
11
3.30815
21
-2.63681
0
LINE
8
BLACK
6
CONTINUOUS
10
3.30815
20
-2.63681
11
3.46669
21
-2.3622
0
LINE
8
BLACK
6
CONTINUOUS
10
3.46669
20
-2.3622
11
3.30815
21
-2.0876
0
LINE
8
BLACK
6
CONTINUOUS
10
3.30815
20
-2.0876
11
2.99106
21
-2.0876
0
LINE
8
BLACK
6
CONTINUOUS
10
3.18513
20
-2.00907
11
3.20864
21
-2.01223
0
LINE
8
BLACK
6
CONTINUOUS
10
3.20864
20
-2.01223
11
3.23188
21
-2.01695
0
LINE
8
BLACK
6
CONTINUOUS
10
3.23188
20
-2.01695
11
3.25476
21
-2.02322
0
LINE
8
BLACK
6
CONTINUOUS
10
3.25476
20
-2.02322
11
3.27717
21
-2.031
0
LINE
8
BLACK
6
CONTINUOUS
10
3.27717
20
-2.031
11
3.299
21
-2.04026
0
LINE
8
BLACK
6
CONTINUOUS
10
3.299
20
-2.04026
11
3.32017
21
-2.05096
0
LINE
8
BLACK
6
CONTINUOUS
10
3.32017
20
-2.05096
11
3.34058
21
-2.06304
0
LINE
8
BLACK
6
CONTINUOUS
10
3.34058
20
-2.06304
11
3.36014
21
-2.07647
0
LINE
8
BLACK
6
CONTINUOUS
10
3.36014
20
-2.07647
11
3.37875
21
-2.09117
0
LINE
8
BLACK
6
CONTINUOUS
10
3.37875
20
-2.09117
11
3.39634
21
-2.10708
0
LINE
8
BLACK
6
CONTINUOUS
10
3.39634
20
-2.10708
11
3.41283
21
-2.12413
0
LINE
8
BLACK
6
CONTINUOUS
10
3.41283
20
-2.12413
11
3.42815
21
-2.14224
0
LINE
8
BLACK
6
CONTINUOUS
10
3.42815
20
-2.14224
11
3.44222
21
-2.16134
0
LINE
8
BLACK
6
CONTINUOUS
10
3.44222
20
-2.16134
11
3.45498
21
-2.18133
0
LINE
8
BLACK
6
CONTINUOUS
10
3.45498
20
-2.18133
11
3.46638
21
-2.20213
0
LINE
8
BLACK
6
CONTINUOUS
10
3.46638
20
-2.20213
11
3.47636
21
-2.22365
0
LINE
8
BLACK
6
CONTINUOUS
10
3.47636
20
-2.22365
11
3.48489
21
-2.24578
0
LINE
8
BLACK
6
CONTINUOUS
10
3.48489
20
-2.24578
11
3.49192
21
-2.26844
0
LINE
8
BLACK
6
CONTINUOUS
10
3.49192
20
-2.26844
11
3.49742
21
-2.29151
0
LINE
8
BLACK
6
CONTINUOUS
10
3.49742
20
-2.29151
11
3.50136
21
-2.3149
0
LINE
8
BLACK
6
CONTINUOUS
10
3.50136
20
-2.3149
11
3.50373
21
-2.3385
0
LINE
8
BLACK
6
CONTINUOUS
10
3.50373
20
-2.3385
11
3.50453
21
-2.3622
0
LINE
8
BLACK
6
CONTINUOUS
10
3.50453
20
-2.3622
11
3.50373
21
-2.38591
0
LINE
8
BLACK
6
CONTINUOUS
10
3.50373
20
-2.38591
11
3.50136
21
-2.40951
0
LINE
8
BLACK
6
CONTINUOUS
10
3.50136
20
-2.40951
11
3.49742
21
-2.4329
0
LINE
8
BLACK
6
CONTINUOUS
10
3.49742
20
-2.4329
11
3.49192
21
-2.45597
0
LINE
8
BLACK
6
CONTINUOUS
10
3.49192
20
-2.45597
11
3.48489
21
-2.47863
0
LINE
8
BLACK
6
CONTINUOUS
10
3.48489
20
-2.47863
11
3.47636
21
-2.50076
0
LINE
8
BLACK
6
CONTINUOUS
10
3.47636
20
-2.50076
11
3.46638
21
-2.52228
0
LINE
8
BLACK
6
CONTINUOUS
10
3.46638
20
-2.52228
11
3.45498
21
-2.54308
0
LINE
8
BLACK
6
CONTINUOUS
10
3.45498
20
-2.54308
11
3.44222
21
-2.56307
0
LINE
8
BLACK
6
CONTINUOUS
10
3.44222
20
-2.56307
11
3.42815
21
-2.58217
0
LINE
8
BLACK
6
CONTINUOUS
10
3.42815
20
-2.58217
11
3.41283
21
-2.60028
0
LINE
8
BLACK
6
CONTINUOUS
10
3.41283
20
-2.60028
11
3.39634
21
-2.61733
0
LINE
8
BLACK
6
CONTINUOUS
10
3.39634
20
-2.61733
11
3.37875
21
-2.63324
0
LINE
8
BLACK
6
CONTINUOUS
10
3.37875
20
-2.63324
11
3.36014
21
-2.64794
0
LINE
8
BLACK
6
CONTINUOUS
10
3.36014
20
-2.64794
11
3.34058
21
-2.66137
0
LINE
8
BLACK
6
CONTINUOUS
10
3.34058
20
-2.66137
11
3.32017
21
-2.67345
0
LINE
8
BLACK
6
CONTINUOUS
10
3.32017
20
-2.67345
11
3.299
21
-2.68415
0
LINE
8
BLACK
6
CONTINUOUS
10
3.299
20
-2.68415
11
3.27717
21
-2.69341
0
LINE
8
BLACK
6
CONTINUOUS
10
3.27717
20
-2.69341
11
3.25476
21
-2.70119
0
LINE
8
BLACK
6
CONTINUOUS
10
3.25476
20
-2.70119
11
3.23188
21
-2.70746
0
LINE
8
BLACK
6
CONTINUOUS
10
3.23188
20
-2.70746
11
3.20864
21
-2.71218
0
LINE
8
BLACK
6
CONTINUOUS
10
3.20864
20
-2.71218
11
3.18513
21
-2.71534
0
LINE
8
BLACK
6
CONTINUOUS
10
3.18513
20
-2.71534
11
3.16147
21
-2.71693
0
LINE
8
BLACK
6
CONTINUOUS
10
3.16147
20
-2.71693
11
3.13775
21
-2.71693
0
LINE
8
BLACK
6
CONTINUOUS
10
3.13775
20
-2.71693
11
3.11408
21
-2.71534
0
LINE
8
BLACK
6
CONTINUOUS
10
3.11408
20
-2.71534
11
3.09057
21
-2.71218
0
LINE
8
BLACK
6
CONTINUOUS
10
3.09057
20
-2.71218
11
3.06733
21
-2.70746
0
LINE
8
BLACK
6
CONTINUOUS
10
3.06733
20
-2.70746
11
3.04445
21
-2.70119
0
LINE
8
BLACK
6
CONTINUOUS
10
3.04445
20
-2.70119
11
3.02204
21
-2.69341
0
LINE
8
BLACK
6
CONTINUOUS
10
3.02204
20
-2.69341
11
3.00021
21
-2.68415
0
LINE
8
BLACK
6
CONTINUOUS
10
3.00021
20
-2.68415
11
2.97904
21
-2.67345
0
LINE
8
BLACK
6
CONTINUOUS
10
2.97904
20
-2.67345
11
2.95863
21
-2.66137
0
LINE
8
BLACK
6
CONTINUOUS
10
2.95863
20
-2.66137
11
2.93907
21
-2.64794
0
LINE
8
BLACK
6
CONTINUOUS
10
2.93907
20
-2.64794
11
2.92046
21
-2.63324
0
LINE
8
BLACK
6
CONTINUOUS
10
2.92046
20
-2.63324
11
2.90287
21
-2.61733
0
LINE
8
BLACK
6
CONTINUOUS
10
2.90287
20
-2.61733
11
2.88638
21
-2.60028
0
LINE
8
BLACK
6
CONTINUOUS
10
2.88638
20
-2.60028
11
2.87106
21
-2.58217
0
LINE
8
BLACK
6
CONTINUOUS
10
2.87106
20
-2.58217
11
2.85699
21
-2.56307
0
LINE
8
BLACK
6
CONTINUOUS
10
2.85699
20
-2.56307
11
2.84423
21
-2.54308
0
LINE
8
BLACK
6
CONTINUOUS
10
2.84423
20
-2.54308
11
2.83283
21
-2.52228
0
LINE
8
BLACK
6
CONTINUOUS
10
2.83283
20
-2.52228
11
2.82285
21
-2.50076
0
LINE
8
BLACK
6
CONTINUOUS
10
2.82285
20
-2.50076
11
2.81432
21
-2.47863
0
LINE
8
BLACK
6
CONTINUOUS
10
2.81432
20
-2.47863
11
2.8073
21
-2.45597
0
LINE
8
BLACK
6
CONTINUOUS
10
2.8073
20
-2.45597
11
2.8018
21
-2.4329
0
LINE
8
BLACK
6
CONTINUOUS
10
2.8018
20
-2.4329
11
2.79785
21
-2.40951
0
LINE
8
BLACK
6
CONTINUOUS
10
2.79785
20
-2.40951
11
2.79548
21
-2.38591
0
LINE
8
BLACK
6
CONTINUOUS
10
2.79548
20
-2.38591
11
2.79469
21
-2.3622
0
LINE
8
BLACK
6
CONTINUOUS
10
2.79469
20
-2.3622
11
2.79548
21
-2.3385
0
LINE
8
BLACK
6
CONTINUOUS
10
2.79548
20
-2.3385
11
2.79785
21
-2.3149
0
LINE
8
BLACK
6
CONTINUOUS
10
2.79785
20
-2.3149
11
2.8018
21
-2.29151
0
LINE
8
BLACK
6
CONTINUOUS
10
2.8018
20
-2.29151
11
2.8073
21
-2.26844
0
LINE
8
BLACK
6
CONTINUOUS
10
2.8073
20
-2.26844
11
2.81432
21
-2.24578
0
LINE
8
BLACK
6
CONTINUOUS
10
2.81432
20
-2.24578
11
2.82285
21
-2.22365
0
LINE
8
BLACK
6
CONTINUOUS
10
2.82285
20
-2.22365
11
2.83283
21
-2.20213
0
LINE
8
BLACK
6
CONTINUOUS
10
2.83283
20
-2.20213
11
2.84423
21
-2.18133
0
LINE
8
BLACK
6
CONTINUOUS
10
2.84423
20
-2.18133
11
2.85699
21
-2.16134
0
LINE
8
BLACK
6
CONTINUOUS
10
2.85699
20
-2.16134
11
2.87106
21
-2.14224
0
LINE
8
BLACK
6
CONTINUOUS
10
2.87106
20
-2.14224
11
2.88638
21
-2.12413
0
LINE
8
BLACK
6
CONTINUOUS
10
2.88638
20
-2.12413
11
2.90287
21
-2.10708
0
LINE
8
BLACK
6
CONTINUOUS
10
2.90287
20
-2.10708
11
2.92046
21
-2.09117
0
LINE
8
BLACK
6
CONTINUOUS
10
2.92046
20
-2.09117
11
2.93907
21
-2.07647
0
LINE
8
BLACK
6
CONTINUOUS
10
2.93907
20
-2.07647
11
2.95863
21
-2.06304
0
LINE
8
BLACK
6
CONTINUOUS
10
2.95863
20
-2.06304
11
2.97904
21
-2.05096
0
LINE
8
BLACK
6
CONTINUOUS
10
2.97904
20
-2.05096
11
3.00021
21
-2.04026
0
LINE
8
BLACK
6
CONTINUOUS
10
3.00021
20
-2.04026
11
3.02204
21
-2.031
0
LINE
8
BLACK
6
CONTINUOUS
10
3.02204
20
-2.031
11
3.04445
21
-2.02322
0
LINE
8
BLACK
6
CONTINUOUS
10
3.04445
20
-2.02322
11
3.06733
21
-2.01695
0
LINE
8
BLACK
6
CONTINUOUS
10
3.06733
20
-2.01695
11
3.09057
21
-2.01223
0
LINE
8
BLACK
6
CONTINUOUS
10
3.09057
20
-2.01223
11
3.11408
21
-2.00907
0
LINE
8
BLACK
6
CONTINUOUS
10
3.11408
20
-2.00907
11
3.13775
21
-2.00748
0
LINE
8
BLACK
6
CONTINUOUS
10
3.13775
20
-2.00748
11
3.16147
21
-2.00748
0
LINE
8
BLACK
6
CONTINUOUS
10
3.16147
20
-2.00748
11
3.18513
21
-2.00907
0
LINE
8
BLACK
6
CONTINUOUS
10
2.79646
20
-2.38585
11
2.79883
21
-2.40938
0
LINE
8
BLACK
6
CONTINUOUS
10
2.79883
20
-2.40938
11
2.80276
21
-2.4327
0
LINE
8
BLACK
6
CONTINUOUS
10
2.80276
20
-2.4327
11
2.80824
21
-2.45571
0
LINE
8
BLACK
6
CONTINUOUS
10
2.80824
20
-2.45571
11
2.81525
21
-2.47831
0
LINE
8
BLACK
6
CONTINUOUS
10
2.81525
20
-2.47831
11
2.82375
21
-2.50038
0
LINE
8
BLACK
6
CONTINUOUS
10
2.82375
20
-2.50038
11
2.83371
21
-2.52183
0
LINE
8
BLACK
6
CONTINUOUS
10
2.83371
20
-2.52183
11
2.84508
21
-2.54258
0
LINE
8
BLACK
6
CONTINUOUS
10
2.84508
20
-2.54258
11
2.85781
21
-2.56251
0
LINE
8
BLACK
6
CONTINUOUS
10
2.85781
20
-2.56251
11
2.87184
21
-2.58156
0
LINE
8
BLACK
6
CONTINUOUS
10
2.87184
20
-2.58156
11
2.88711
21
-2.59962
0
LINE
8
BLACK
6
CONTINUOUS
10
2.88711
20
-2.59962
11
2.90355
21
-2.61662
0
LINE
8
BLACK
6
CONTINUOUS
10
2.90355
20
-2.61662
11
2.92109
21
-2.63249
0
LINE
8
BLACK
6
CONTINUOUS
10
2.92109
20
-2.63249
11
2.93966
21
-2.64715
0
LINE
8
BLACK
6
CONTINUOUS
10
2.93966
20
-2.64715
11
2.95916
21
-2.66054
0
LINE
8
BLACK
6
CONTINUOUS
10
2.95916
20
-2.66054
11
2.97951
21
-2.67259
0
LINE
8
BLACK
6
CONTINUOUS
10
2.97951
20
-2.67259
11
3.00062
21
-2.68326
0
LINE
8
BLACK
6
CONTINUOUS
10
3.00062
20
-2.68326
11
3.0224
21
-2.69249
0
LINE
8
BLACK
6
CONTINUOUS
10
3.0224
20
-2.69249
11
3.04474
21
-2.70025
0
LINE
8
BLACK
6
CONTINUOUS
10
3.04474
20
-2.70025
11
3.06756
21
-2.7065
0
LINE
8
BLACK
6
CONTINUOUS
10
3.06756
20
-2.7065
11
3.09074
21
-2.71121
0
LINE
8
BLACK
6
CONTINUOUS
10
3.09074
20
-2.71121
11
3.11418
21
-2.71436
0
LINE
8
BLACK
6
CONTINUOUS
10
3.11418
20
-2.71436
11
3.13778
21
-2.71594
0
LINE
8
BLACK
6
CONTINUOUS
10
3.13778
20
-2.71594
11
3.16143
21
-2.71594
0
LINE
8
BLACK
6
CONTINUOUS
10
3.16143
20
-2.71594
11
3.18503
21
-2.71436
0
LINE
8
BLACK
6
CONTINUOUS
10
3.18503
20
-2.71436
11
3.20848
21
-2.71121
0
LINE
8
BLACK
6
CONTINUOUS
10
3.20848
20
-2.71121
11
3.23166
21
-2.7065
0
LINE
8
BLACK
6
CONTINUOUS
10
3.23166
20
-2.7065
11
3.25447
21
-2.70025
0
LINE
8
BLACK
6
CONTINUOUS
10
3.25447
20
-2.70025
11
3.27681
21
-2.69249
0
LINE
8
BLACK
6
CONTINUOUS
10
3.27681
20
-2.69249
11
3.29859
21
-2.68326
0
LINE
8
BLACK
6
CONTINUOUS
10
3.29859
20
-2.68326
11
3.3197
21
-2.67259
0
LINE
8
BLACK
6
CONTINUOUS
10
3.3197
20
-2.67259
11
3.34005
21
-2.66054
0
LINE
8
BLACK
6
CONTINUOUS
10
3.34005
20
-2.66054
11
3.35956
21
-2.64715
0
LINE
8
BLACK
6
CONTINUOUS
10
3.35956
20
-2.64715
11
3.37812
21
-2.63249
0
LINE
8
BLACK
6
CONTINUOUS
10
3.37812
20
-2.63249
11
3.39566
21
-2.61662
0
LINE
8
BLACK
6
CONTINUOUS
10
3.39566
20
-2.61662
11
3.4121
21
-2.59962
0
LINE
8
BLACK
6
CONTINUOUS
10
3.4121
20
-2.59962
11
3.42738
21
-2.58156
0
LINE
8
BLACK
6
CONTINUOUS
10
3.42738
20
-2.58156
11
3.44141
21
-2.56251
0
LINE
8
BLACK
6
CONTINUOUS
10
3.44141
20
-2.56251
11
3.45413
21
-2.54258
0
LINE
8
BLACK
6
CONTINUOUS
10
3.45413
20
-2.54258
11
3.4655
21
-2.52183
0
LINE
8
BLACK
6
CONTINUOUS
10
3.4655
20
-2.52183
11
3.47546
21
-2.50038
0
LINE
8
BLACK
6
CONTINUOUS
10
3.47546
20
-2.50038
11
3.48396
21
-2.47831
0
LINE
8
BLACK
6
CONTINUOUS
10
3.48396
20
-2.47831
11
3.49097
21
-2.45571
0
LINE
8
BLACK
6
CONTINUOUS
10
3.49097
20
-2.45571
11
3.49645
21
-2.4327
0
LINE
8
BLACK
6
CONTINUOUS
10
3.49645
20
-2.4327
11
3.50039
21
-2.40938
0
LINE
8
BLACK
6
CONTINUOUS
10
3.50039
20
-2.40938
11
3.50275
21
-2.38585
0
LINE
8
BLACK
6
CONTINUOUS
10
3.50275
20
-2.38585
11
3.50354
21
-2.3622
0
LINE
8
BLACK
6
CONTINUOUS
10
3.50354
20
-2.3622
11
3.50275
21
-2.33856
0
LINE
8
BLACK
6
CONTINUOUS
10
3.50275
20
-2.33856
11
3.50039
21
-2.31503
0
LINE
8
BLACK
6
CONTINUOUS
10
3.50039
20
-2.31503
11
3.49645
21
-2.29171
0
LINE
8
BLACK
6
CONTINUOUS
10
3.49645
20
-2.29171
11
3.49097
21
-2.2687
0
LINE
8
BLACK
6
CONTINUOUS
10
3.49097
20
-2.2687
11
3.48396
21
-2.2461
0
LINE
8
BLACK
6
CONTINUOUS
10
3.48396
20
-2.2461
11
3.47546
21
-2.22403
0
LINE
8
BLACK
6
CONTINUOUS
10
3.47546
20
-2.22403
11
3.4655
21
-2.20258
0
LINE
8
BLACK
6
CONTINUOUS
10
3.4655
20
-2.20258
11
3.45413
21
-2.18183
0
LINE
8
BLACK
6
CONTINUOUS
10
3.45413
20
-2.18183
11
3.44141
21
-2.16189
0
LINE
8
BLACK
6
CONTINUOUS
10
3.44141
20
-2.16189
11
3.42738
21
-2.14285
0
LINE
8
BLACK
6
CONTINUOUS
10
3.42738
20
-2.14285
11
3.4121
21
-2.12479
0
LINE
8
BLACK
6
CONTINUOUS
10
3.4121
20
-2.12479
11
3.39566
21
-2.10779
0
LINE
8
BLACK
6
CONTINUOUS
10
3.39566
20
-2.10779
11
3.37812
21
-2.09192
0
LINE
8
BLACK
6
CONTINUOUS
10
3.37812
20
-2.09192
11
3.35956
21
-2.07726
0
LINE
8
BLACK
6
CONTINUOUS
10
3.35956
20
-2.07726
11
3.34005
21
-2.06387
0
LINE
8
BLACK
6
CONTINUOUS
10
3.34005
20
-2.06387
11
3.3197
21
-2.05182
0
LINE
8
BLACK
6
CONTINUOUS
10
3.3197
20
-2.05182
11
3.29859
21
-2.04115
0
LINE
8
BLACK
6
CONTINUOUS
10
3.29859
20
-2.04115
11
3.27681
21
-2.03192
0
LINE
8
BLACK
6
CONTINUOUS
10
3.27681
20
-2.03192
11
3.25447
21
-2.02416
0
LINE
8
BLACK
6
CONTINUOUS
10
3.25447
20
-2.02416
11
3.23166
21
-2.01791
0
LINE
8
BLACK
6
CONTINUOUS
10
3.23166
20
-2.01791
11
3.20848
21
-2.0132
0
LINE
8
BLACK
6
CONTINUOUS
10
3.20848
20
-2.0132
11
3.18503
21
-2.01004
0
LINE
8
BLACK
6
CONTINUOUS
10
3.18503
20
-2.01004
11
3.16143
21
-2.00846
0
LINE
8
BLACK
6
CONTINUOUS
10
3.16143
20
-2.00846
11
3.13778
21
-2.00846
0
LINE
8
BLACK
6
CONTINUOUS
10
3.13778
20
-2.00846
11
3.11418
21
-2.01004
0
LINE
8
BLACK
6
CONTINUOUS
10
3.11418
20
-2.01004
11
3.09074
21
-2.0132
0
LINE
8
BLACK
6
CONTINUOUS
10
3.09074
20
-2.0132
11
3.06756
21
-2.01791
0
LINE
8
BLACK
6
CONTINUOUS
10
3.06756
20
-2.01791
11
3.04474
21
-2.02416
0
LINE
8
BLACK
6
CONTINUOUS
10
3.04474
20
-2.02416
11
3.0224
21
-2.03192
0
LINE
8
BLACK
6
CONTINUOUS
10
3.0224
20
-2.03192
11
3.00062
21
-2.04115
0
LINE
8
BLACK
6
CONTINUOUS
10
3.00062
20
-2.04115
11
2.97951
21
-2.05182
0
LINE
8
BLACK
6
CONTINUOUS
10
2.97951
20
-2.05182
11
2.95916
21
-2.06387
0
LINE
8
BLACK
6
CONTINUOUS
10
2.95916
20
-2.06387
11
2.93966
21
-2.07726
0
LINE
8
BLACK
6
CONTINUOUS
10
2.93966
20
-2.07726
11
2.92109
21
-2.09192
0
LINE
8
BLACK
6
CONTINUOUS
10
2.92109
20
-2.09192
11
2.90355
21
-2.10779
0
LINE
8
BLACK
6
CONTINUOUS
10
2.90355
20
-2.10779
11
2.88711
21
-2.12479
0
LINE
8
BLACK
6
CONTINUOUS
10
2.88711
20
-2.12479
11
2.87184
21
-2.14285
0
LINE
8
BLACK
6
CONTINUOUS
10
2.87184
20
-2.14285
11
2.85781
21
-2.16189
0
LINE
8
BLACK
6
CONTINUOUS
10
2.85781
20
-2.16189
11
2.84508
21
-2.18183
0
LINE
8
BLACK
6
CONTINUOUS
10
2.84508
20
-2.18183
11
2.83371
21
-2.20258
0
LINE
8
BLACK
6
CONTINUOUS
10
2.83371
20
-2.20258
11
2.82375
21
-2.22403
0
LINE
8
BLACK
6
CONTINUOUS
10
2.82375
20
-2.22403
11
2.81525
21
-2.2461
0
LINE
8
BLACK
6
CONTINUOUS
10
2.81525
20
-2.2461
11
2.80824
21
-2.2687
0
LINE
8
BLACK
6
CONTINUOUS
10
2.80824
20
-2.2687
11
2.80276
21
-2.29171
0
LINE
8
BLACK
6
CONTINUOUS
10
2.80276
20
-2.29171
11
2.79883
21
-2.31503
0
LINE
8
BLACK
6
CONTINUOUS
10
2.79883
20
-2.31503
11
2.79646
21
-2.33856
0
LINE
8
BLACK
6
CONTINUOUS
10
2.79646
20
-2.33856
11
2.79567
21
-2.3622
0
LINE
8
BLACK
6
CONTINUOUS
10
2.79567
20
-2.3622
11
2.79646
21
-2.38585
0
LINE
8
BLACK
6
CONTINUOUS
10
3.17581
20
-1.92894
11
3.20193
21
-1.93131
0
LINE
8
BLACK
6
CONTINUOUS
10
3.20193
20
-1.93131
11
3.22785
21
-1.93526
0
LINE
8
BLACK
6
CONTINUOUS
10
3.22785
20
-1.93526
11
3.25348
21
-1.94076
0
LINE
8
BLACK
6
CONTINUOUS
10
3.25348
20
-1.94076
11
3.27874
21
-1.9478
0
LINE
8
BLACK
6
CONTINUOUS
10
3.27874
20
-1.9478
11
3.30352
21
-1.95636
0
LINE
8
BLACK
6
CONTINUOUS
10
3.30352
20
-1.95636
11
3.32775
21
-1.96639
0
LINE
8
BLACK
6
CONTINUOUS
10
3.32775
20
-1.96639
11
3.35132
21
-1.97787
0
LINE
8
BLACK
6
CONTINUOUS
10
3.35132
20
-1.97787
11
3.37416
21
-1.99075
0
LINE
8
BLACK
6
CONTINUOUS
10
3.37416
20
-1.99075
11
3.39618
21
-2.00498
0
LINE
8
BLACK
6
CONTINUOUS
10
3.39618
20
-2.00498
11
3.4173
21
-2.02052
0
LINE
8
BLACK
6
CONTINUOUS
10
3.4173
20
-2.02052
11
3.43744
21
-2.03731
0
LINE
8
BLACK
6
CONTINUOUS
10
3.43744
20
-2.03731
11
3.45653
21
-2.05528
0
LINE
8
BLACK
6
CONTINUOUS
10
3.45653
20
-2.05528
11
3.4745
21
-2.07437
0
LINE
8
BLACK
6
CONTINUOUS
10
3.4745
20
-2.07437
11
3.49129
21
-2.09451
0
LINE
8
BLACK
6
CONTINUOUS
10
3.49129
20
-2.09451
11
3.50683
21
-2.11563
0
LINE
8
BLACK
6
CONTINUOUS
10
3.50683
20
-2.11563
11
3.52106
21
-2.13765
0
LINE
8
BLACK
6
CONTINUOUS
10
3.52106
20
-2.13765
11
3.53394
21
-2.16049
0
LINE
8
BLACK
6
CONTINUOUS
10
3.53394
20
-2.16049
11
3.54542
21
-2.18406
0
LINE
8
BLACK
6
CONTINUOUS
10
3.54542
20
-2.18406
11
3.55545
21
-2.20829
0
LINE
8
BLACK
6
CONTINUOUS
10
3.55545
20
-2.20829
11
3.56401
21
-2.23307
0
LINE
8
BLACK
6
CONTINUOUS
10
3.56401
20
-2.23307
11
3.57105
21
-2.25833
0
LINE
8
BLACK
6
CONTINUOUS
10
3.57105
20
-2.25833
11
3.57655
21
-2.28396
0
LINE
8
BLACK
6
CONTINUOUS
10
3.57655
20
-2.28396
11
3.5805
21
-2.30989
0
LINE
8
BLACK
6
CONTINUOUS
10
3.5805
20
-2.30989
11
3.58287
21
-2.336
0
LINE
8
BLACK
6
CONTINUOUS
10
3.58287
20
-2.336
11
3.58366
21
-2.3622
0
LINE
8
BLACK
6
CONTINUOUS
10
3.58366
20
-2.3622
11
3.58287
21
-2.38841
0
LINE
8
BLACK
6
CONTINUOUS
10
3.58287
20
-2.38841
11
3.5805
21
-2.41452
0
LINE
8
BLACK
6
CONTINUOUS
10
3.5805
20
-2.41452
11
3.57655
21
-2.44045
0
LINE
8
BLACK
6
CONTINUOUS
10
3.57655
20
-2.44045
11
3.57105
21
-2.46608
0
LINE
8
BLACK
6
CONTINUOUS
10
3.57105
20
-2.46608
11
3.56401
21
-2.49134
0
LINE
8
BLACK
6
CONTINUOUS
10
3.56401
20
-2.49134
11
3.55545
21
-2.51612
0
LINE
8
BLACK
6
CONTINUOUS
10
3.55545
20
-2.51612
11
3.54542
21
-2.54035
0
LINE
8
BLACK
6
CONTINUOUS
10
3.54542
20
-2.54035
11
3.53394
21
-2.56392
0
LINE
8
BLACK
6
CONTINUOUS
10
3.53394
20
-2.56392
11
3.52106
21
-2.58676
0
LINE
8
BLACK
6
CONTINUOUS
10
3.52106
20
-2.58676
11
3.50683
21
-2.60878
0
LINE
8
BLACK
6
CONTINUOUS
10
3.50683
20
-2.60878
11
3.49129
21
-2.62989
0
LINE
8
BLACK
6
CONTINUOUS
10
3.49129
20
-2.62989
11
3.4745
21
-2.65004
0
LINE
8
BLACK
6
CONTINUOUS
10
3.4745
20
-2.65004
11
3.45653
21
-2.66913
0
LINE
8
BLACK
6
CONTINUOUS
10
3.45653
20
-2.66913
11
3.43744
21
-2.6871
0
LINE
8
BLACK
6
CONTINUOUS
10
3.43744
20
-2.6871
11
3.4173
21
-2.70389
0
LINE
8
BLACK
6
CONTINUOUS
10
3.4173
20
-2.70389
11
3.39618
21
-2.71943
0
LINE
8
BLACK
6
CONTINUOUS
10
3.39618
20
-2.71943
11
3.37416
21
-2.73366
0
LINE
8
BLACK
6
CONTINUOUS
10
3.37416
20
-2.73366
11
3.35132
21
-2.74654
0
LINE
8
BLACK
6
CONTINUOUS
10
3.35132
20
-2.74654
11
3.32775
21
-2.75802
0
LINE
8
BLACK
6
CONTINUOUS
10
3.32775
20
-2.75802
11
3.30352
21
-2.76805
0
LINE
8
BLACK
6
CONTINUOUS
10
3.30352
20
-2.76805
11
3.27874
21
-2.77661
0
LINE
8
BLACK
6
CONTINUOUS
10
3.27874
20
-2.77661
11
3.25348
21
-2.78365
0
LINE
8
BLACK
6
CONTINUOUS
10
3.25348
20
-2.78365
11
3.22785
21
-2.78915
0
LINE
8
BLACK
6
CONTINUOUS
10
3.22785
20
-2.78915
11
3.20193
21
-2.7931
0
LINE
8
BLACK
6
CONTINUOUS
10
3.20193
20
-2.7931
11
3.17581
21
-2.79547
0
LINE
8
BLACK
6
CONTINUOUS
10
3.17581
20
-2.79547
11
3.14961
21
-2.79626
0
LINE
8
BLACK
6
CONTINUOUS
10
3.14961
20
-2.79626
11
3.1234
21
-2.79547
0
LINE
8
BLACK
6
CONTINUOUS
10
3.1234
20
-2.79547
11
3.09729
21
-2.7931
0
LINE
8
BLACK
6
CONTINUOUS
10
3.09729
20
-2.7931
11
3.07137
21
-2.78915
0
LINE
8
BLACK
6
CONTINUOUS
10
3.07137
20
-2.78915
11
3.04573
21
-2.78365
0
LINE
8
BLACK
6
CONTINUOUS
10
3.04573
20
-2.78365
11
3.02047
21
-2.77661
0
LINE
8
BLACK
6
CONTINUOUS
10
3.02047
20
-2.77661
11
2.99569
21
-2.76805
0
LINE
8
BLACK
6
CONTINUOUS
10
2.99569
20
-2.76805
11
2.97146
21
-2.75802
0
LINE
8
BLACK
6
CONTINUOUS
10
2.97146
20
-2.75802
11
2.94789
21
-2.74654
0
LINE
8
BLACK
6
CONTINUOUS
10
2.94789
20
-2.74654
11
2.92505
21
-2.73366
0
LINE
8
BLACK
6
CONTINUOUS
10
2.92505
20
-2.73366
11
2.90303
21
-2.71943
0
LINE
8
BLACK
6
CONTINUOUS
10
2.90303
20
-2.71943
11
2.88192
21
-2.70389
0
LINE
8
BLACK
6
CONTINUOUS
10
2.88192
20
-2.70389
11
2.86177
21
-2.6871
0
LINE
8
BLACK
6
CONTINUOUS
10
2.86177
20
-2.6871
11
2.84268
21
-2.66913
0
LINE
8
BLACK
6
CONTINUOUS
10
2.84268
20
-2.66913
11
2.82471
21
-2.65004
0
LINE
8
BLACK
6
CONTINUOUS
10
2.82471
20
-2.65004
11
2.80793
21
-2.62989
0
LINE
8
BLACK
6
CONTINUOUS
10
2.80793
20
-2.62989
11
2.79239
21
-2.60878
0
LINE
8
BLACK
6
CONTINUOUS
10
2.79239
20
-2.60878
11
2.77815
21
-2.58676
0
LINE
8
BLACK
6
CONTINUOUS
10
2.77815
20
-2.58676
11
2.76527
21
-2.56392
0
LINE
8
BLACK
6
CONTINUOUS
10
2.76527
20
-2.56392
11
2.75379
21
-2.54035
0
LINE
8
BLACK
6
CONTINUOUS
10
2.75379
20
-2.54035
11
2.74376
21
-2.51612
0
LINE
8
BLACK
6
CONTINUOUS
10
2.74376
20
-2.51612
11
2.7352
21
-2.49134
0
LINE
8
BLACK
6
CONTINUOUS
10
2.7352
20
-2.49134
11
2.72816
21
-2.46608
0
LINE
8
BLACK
6
CONTINUOUS
10
2.72816
20
-2.46608
11
2.72266
21
-2.44045
0
LINE
8
BLACK
6
CONTINUOUS
10
2.72266
20
-2.44045
11
2.71872
21
-2.41452
0
LINE
8
BLACK
6
CONTINUOUS
10
2.71872
20
-2.41452
11
2.71634
21
-2.38841
0
LINE
8
BLACK
6
CONTINUOUS
10
2.71634
20
-2.38841
11
2.71555
21
-2.3622
0
LINE
8
BLACK
6
CONTINUOUS
10
2.71555
20
-2.3622
11
2.71634
21
-2.336
0
LINE
8
BLACK
6
CONTINUOUS
10
2.71634
20
-2.336
11
2.71872
21
-2.30989
0
LINE
8
BLACK
6
CONTINUOUS
10
2.71872
20
-2.30989
11
2.72266
21
-2.28396
0
LINE
8
BLACK
6
CONTINUOUS
10
2.72266
20
-2.28396
11
2.72816
21
-2.25833
0
LINE
8
BLACK
6
CONTINUOUS
10
2.72816
20
-2.25833
11
2.7352
21
-2.23307
0
LINE
8
BLACK
6
CONTINUOUS
10
2.7352
20
-2.23307
11
2.74376
21
-2.20829
0
LINE
8
BLACK
6
CONTINUOUS
10
2.74376
20
-2.20829
11
2.75379
21
-2.18406
0
LINE
8
BLACK
6
CONTINUOUS
10
2.75379
20
-2.18406
11
2.76527
21
-2.16049
0
LINE
8
BLACK
6
CONTINUOUS
10
2.76527
20
-2.16049
11
2.77815
21
-2.13765
0
LINE
8
BLACK
6
CONTINUOUS
10
2.77815
20
-2.13765
11
2.79239
21
-2.11563
0
LINE
8
BLACK
6
CONTINUOUS
10
2.79239
20
-2.11563
11
2.80793
21
-2.09451
0
LINE
8
BLACK
6
CONTINUOUS
10
2.80793
20
-2.09451
11
2.82471
21
-2.07437
0
LINE
8
BLACK
6
CONTINUOUS
10
2.82471
20
-2.07437
11
2.84268
21
-2.05528
0
LINE
8
BLACK
6
CONTINUOUS
10
2.84268
20
-2.05528
11
2.86177
21
-2.03731
0
LINE
8
BLACK
6
CONTINUOUS
10
2.86177
20
-2.03731
11
2.88192
21
-2.02052
0
LINE
8
BLACK
6
CONTINUOUS
10
2.88192
20
-2.02052
11
2.90303
21
-2.00498
0
LINE
8
BLACK
6
CONTINUOUS
10
2.90303
20
-2.00498
11
2.92505
21
-1.99075
0
LINE
8
BLACK
6
CONTINUOUS
10
2.92505
20
-1.99075
11
2.94789
21
-1.97787
0
LINE
8
BLACK
6
CONTINUOUS
10
2.94789
20
-1.97787
11
2.97146
21
-1.96639
0
LINE
8
BLACK
6
CONTINUOUS
10
2.97146
20
-1.96639
11
2.99569
21
-1.95636
0
LINE
8
BLACK
6
CONTINUOUS
10
2.99569
20
-1.95636
11
3.02047
21
-1.9478
0
LINE
8
BLACK
6
CONTINUOUS
10
3.02047
20
-1.9478
11
3.04573
21
-1.94076
0
LINE
8
BLACK
6
CONTINUOUS
10
3.04573
20
-1.94076
11
3.07137
21
-1.93526
0
LINE
8
BLACK
6
CONTINUOUS
10
3.07137
20
-1.93526
11
3.09729
21
-1.93131
0
LINE
8
BLACK
6
CONTINUOUS
10
3.09729
20
-1.93131
11
3.1234
21
-1.92894
0
LINE
8
BLACK
6
CONTINUOUS
10
3.1234
20
-1.92894
11
3.14961
21
-1.92815
0
LINE
8
BLACK
6
CONTINUOUS
10
3.14961
20
-1.92815
11
3.17581
21
-1.92894
0
LINE
8
BLACK
6
CONTINUOUS
10
2.71811
20
-2.38831
11
2.72047
21
-2.41431
0
LINE
8
BLACK
6
CONTINUOUS
10
2.72047
20
-2.41431
11
2.7244
21
-2.44013
0
LINE
8
BLACK
6
CONTINUOUS
10
2.7244
20
-2.44013
11
2.72988
21
-2.46566
0
LINE
8
BLACK
6
CONTINUOUS
10
2.72988
20
-2.46566
11
2.7369
21
-2.49081
0
LINE
8
BLACK
6
CONTINUOUS
10
2.7369
20
-2.49081
11
2.74541
21
-2.51549
0
LINE
8
BLACK
6
CONTINUOUS
10
2.74541
20
-2.51549
11
2.75541
21
-2.53962
0
LINE
8
BLACK
6
CONTINUOUS
10
2.75541
20
-2.53962
11
2.76684
21
-2.5631
0
LINE
8
BLACK
6
CONTINUOUS
10
2.76684
20
-2.5631
11
2.77967
21
-2.58584
0
LINE
8
BLACK
6
CONTINUOUS
10
2.77967
20
-2.58584
11
2.79384
21
-2.60777
0
LINE
8
BLACK
6
CONTINUOUS
10
2.79384
20
-2.60777
11
2.80932
21
-2.6288
0
LINE
8
BLACK
6
CONTINUOUS
10
2.80932
20
-2.6288
11
2.82604
21
-2.64886
0
LINE
8
BLACK
6
CONTINUOUS
10
2.82604
20
-2.64886
11
2.84394
21
-2.66788
0
LINE
8
BLACK
6
CONTINUOUS
10
2.84394
20
-2.66788
11
2.86295
21
-2.68577
0
LINE
8
BLACK
6
CONTINUOUS
10
2.86295
20
-2.68577
11
2.88301
21
-2.70249
0
LINE
8
BLACK
6
CONTINUOUS
10
2.88301
20
-2.70249
11
2.90404
21
-2.71797
0
LINE
8
BLACK
6
CONTINUOUS
10
2.90404
20
-2.71797
11
2.92597
21
-2.73215
0
LINE
8
BLACK
6
CONTINUOUS
10
2.92597
20
-2.73215
11
2.94871
21
-2.74497
0
LINE
8
BLACK
6
CONTINUOUS
10
2.94871
20
-2.74497
11
2.97219
21
-2.7564
0
LINE
8
BLACK
6
CONTINUOUS
10
2.97219
20
-2.7564
11
2.99632
21
-2.7664
0
LINE
8
BLACK
6
CONTINUOUS
10
2.99632
20
-2.7664
11
3.021
21
-2.77492
0
LINE
8
BLACK
6
CONTINUOUS
10
3.021
20
-2.77492
11
3.04615
21
-2.78193
0
LINE
8
BLACK
6
CONTINUOUS
10
3.04615
20
-2.78193
11
3.07168
21
-2.78741
0
LINE
8
BLACK
6
CONTINUOUS
10
3.07168
20
-2.78741
11
3.0975
21
-2.79134
0
LINE
8
BLACK
6
CONTINUOUS
10
3.0975
20
-2.79134
11
3.12351
21
-2.7937
0
LINE
8
BLACK
6
CONTINUOUS
10
3.12351
20
-2.7937
11
3.14961
21
-2.79449
0
LINE
8
BLACK
6
CONTINUOUS
10
3.14961
20
-2.79449
11
3.17571
21
-2.7937
0
LINE
8
BLACK
6
CONTINUOUS
10
3.17571
20
-2.7937
11
3.20171
21
-2.79134
0
LINE
8
BLACK
6
CONTINUOUS
10
3.20171
20
-2.79134
11
3.22753
21
-2.78741
0
LINE
8
BLACK
6
CONTINUOUS
10
3.22753
20
-2.78741
11
3.25306
21
-2.78193
0
LINE
8
BLACK
6
CONTINUOUS
10
3.25306
20
-2.78193
11
3.27821
21
-2.77492
0
LINE
8
BLACK
6
CONTINUOUS
10
3.27821
20
-2.77492
11
3.3029
21
-2.7664
0
LINE
8
BLACK
6
CONTINUOUS
10
3.3029
20
-2.7664
11
3.32702
21
-2.7564
0
LINE
8
BLACK
6
CONTINUOUS
10
3.32702
20
-2.7564
11
3.3505
21
-2.74497
0
LINE
8
BLACK
6
CONTINUOUS
10
3.3505
20
-2.74497
11
3.37324
21
-2.73215
0
LINE
8
BLACK
6
CONTINUOUS
10
3.37324
20
-2.73215
11
3.39517
21
-2.71797
0
LINE
8
BLACK
6
CONTINUOUS
10
3.39517
20
-2.71797
11
3.4162
21
-2.70249
0
LINE
8
BLACK
6
CONTINUOUS
10
3.4162
20
-2.70249
11
3.43626
21
-2.68577
0
LINE
8
BLACK
6
CONTINUOUS
10
3.43626
20
-2.68577
11
3.45528
21
-2.66788
0
LINE
8
BLACK
6
CONTINUOUS
10
3.45528
20
-2.66788
11
3.47318
21
-2.64886
0
LINE
8
BLACK
6
CONTINUOUS
10
3.47318
20
-2.64886
11
3.48989
21
-2.6288
0
LINE
8
BLACK
6
CONTINUOUS
10
3.48989
20
-2.6288
11
3.50537
21
-2.60777
0
LINE
8
BLACK
6
CONTINUOUS
10
3.50537
20
-2.60777
11
3.51955
21
-2.58584
0
LINE
8
BLACK
6
CONTINUOUS
10
3.51955
20
-2.58584
11
3.53237
21
-2.5631
0
LINE
8
BLACK
6
CONTINUOUS
10
3.53237
20
-2.5631
11
3.54381
21
-2.53962
0
LINE
8
BLACK
6
CONTINUOUS
10
3.54381
20
-2.53962
11
3.5538
21
-2.51549
0
LINE
8
BLACK
6
CONTINUOUS
10
3.5538
20
-2.51549
11
3.56232
21
-2.49081
0
LINE
8
BLACK
6
CONTINUOUS
10
3.56232
20
-2.49081
11
3.56933
21
-2.46566
0
LINE
8
BLACK
6
CONTINUOUS
10
3.56933
20
-2.46566
11
3.57481
21
-2.44013
0
LINE
8
BLACK
6
CONTINUOUS
10
3.57481
20
-2.44013
11
3.57874
21
-2.41431
0
LINE
8
BLACK
6
CONTINUOUS
10
3.57874
20
-2.41431
11
3.5811
21
-2.38831
0
LINE
8
BLACK
6
CONTINUOUS
10
3.5811
20
-2.38831
11
3.58189
21
-2.3622
0
LINE
8
BLACK
6
CONTINUOUS
10
3.58189
20
-2.3622
11
3.5811
21
-2.3361
0
LINE
8
BLACK
6
CONTINUOUS
10
3.5811
20
-2.3361
11
3.57874
21
-2.3101
0
LINE
8
BLACK
6
CONTINUOUS
10
3.57874
20
-2.3101
11
3.57481
21
-2.28428
0
LINE
8
BLACK
6
CONTINUOUS
10
3.57481
20
-2.28428
11
3.56933
21
-2.25875
0
LINE
8
BLACK
6
CONTINUOUS
10
3.56933
20
-2.25875
11
3.56232
21
-2.2336
0
LINE
8
BLACK
6
CONTINUOUS
10
3.56232
20
-2.2336
11
3.5538
21
-2.20891
0
LINE
8
BLACK
6
CONTINUOUS
10
3.5538
20
-2.20891
11
3.54381
21
-2.18479
0
LINE
8
BLACK
6
CONTINUOUS
10
3.54381
20
-2.18479
11
3.53237
21
-2.16131
0
LINE
8
BLACK
6
CONTINUOUS
10
3.53237
20
-2.16131
11
3.51955
21
-2.13857
0
LINE
8
BLACK
6
CONTINUOUS
10
3.51955
20
-2.13857
11
3.50537
21
-2.11664
0
LINE
8
BLACK
6
CONTINUOUS
10
3.50537
20
-2.11664
11
3.48989
21
-2.09561
0
LINE
8
BLACK
6
CONTINUOUS
10
3.48989
20
-2.09561
11
3.47318
21
-2.07555
0
LINE
8
BLACK
6
CONTINUOUS
10
3.47318
20
-2.07555
11
3.45528
21
-2.05653
0
LINE
8
BLACK
6
CONTINUOUS
10
3.45528
20
-2.05653
11
3.43626
21
-2.03864
0
LINE
8
BLACK
6
CONTINUOUS
10
3.43626
20
-2.03864
11
3.4162
21
-2.02192
0
LINE
8
BLACK
6
CONTINUOUS
10
3.4162
20
-2.02192
11
3.39517
21
-2.00644
0
LINE
8
BLACK
6
CONTINUOUS
10
3.39517
20
-2.00644
11
3.37324
21
-1.99226
0
LINE
8
BLACK
6
CONTINUOUS
10
3.37324
20
-1.99226
11
3.3505
21
-1.97944
0
LINE
8
BLACK
6
CONTINUOUS
10
3.3505
20
-1.97944
11
3.32702
21
-1.96801
0
LINE
8
BLACK
6
CONTINUOUS
10
3.32702
20
-1.96801
11
3.3029
21
-1.95801
0
LINE
8
BLACK
6
CONTINUOUS
10
3.3029
20
-1.95801
11
3.27821
21
-1.94949
0
LINE
8
BLACK
6
CONTINUOUS
10
3.27821
20
-1.94949
11
3.25306
21
-1.94248
0
LINE
8
BLACK
6
CONTINUOUS
10
3.25306
20
-1.94248
11
3.22753
21
-1.937
0
LINE
8
BLACK
6
CONTINUOUS
10
3.22753
20
-1.937
11
3.20171
21
-1.93307
0
LINE
8
BLACK
6
CONTINUOUS
10
3.20171
20
-1.93307
11
3.17571
21
-1.93071
0
LINE
8
BLACK
6
CONTINUOUS
10
3.17571
20
-1.93071
11
3.14961
21
-1.92992
0
LINE
8
BLACK
6
CONTINUOUS
10
3.14961
20
-1.92992
11
3.12351
21
-1.93071
0
LINE
8
BLACK
6
CONTINUOUS
10
3.12351
20
-1.93071
11
3.0975
21
-1.93307
0
LINE
8
BLACK
6
CONTINUOUS
10
3.0975
20
-1.93307
11
3.07168
21
-1.937
0
LINE
8
BLACK
6
CONTINUOUS
10
3.07168
20
-1.937
11
3.04615
21
-1.94248
0
LINE
8
BLACK
6
CONTINUOUS
10
3.04615
20
-1.94248
11
3.021
21
-1.94949
0
LINE
8
BLACK
6
CONTINUOUS
10
3.021
20
-1.94949
11
2.99632
21
-1.95801
0
LINE
8
BLACK
6
CONTINUOUS
10
2.99632
20
-1.95801
11
2.97219
21
-1.96801
0
LINE
8
BLACK
6
CONTINUOUS
10
2.97219
20
-1.96801
11
2.94871
21
-1.97944
0
LINE
8
BLACK
6
CONTINUOUS
10
2.94871
20
-1.97944
11
2.92597
21
-1.99226
0
LINE
8
BLACK
6
CONTINUOUS
10
2.92597
20
-1.99226
11
2.90404
21
-2.00644
0
LINE
8
BLACK
6
CONTINUOUS
10
2.90404
20
-2.00644
11
2.88301
21
-2.02192
0
LINE
8
BLACK
6
CONTINUOUS
10
2.88301
20
-2.02192
11
2.86295
21
-2.03864
0
LINE
8
BLACK
6
CONTINUOUS
10
2.86295
20
-2.03864
11
2.84394
21
-2.05653
0
LINE
8
BLACK
6
CONTINUOUS
10
2.84394
20
-2.05653
11
2.82604
21
-2.07555
0
LINE
8
BLACK
6
CONTINUOUS
10
2.82604
20
-2.07555
11
2.80932
21
-2.09561
0
LINE
8
BLACK
6
CONTINUOUS
10
2.80932
20
-2.09561
11
2.79384
21
-2.11664
0
LINE
8
BLACK
6
CONTINUOUS
10
2.79384
20
-2.11664
11
2.77967
21
-2.13857
0
LINE
8
BLACK
6
CONTINUOUS
10
2.77967
20
-2.13857
11
2.76684
21
-2.16131
0
LINE
8
BLACK
6
CONTINUOUS
10
2.76684
20
-2.16131
11
2.75541
21
-2.18479
0
LINE
8
BLACK
6
CONTINUOUS
10
2.75541
20
-2.18479
11
2.74541
21
-2.20891
0
LINE
8
BLACK
6
CONTINUOUS
10
2.74541
20
-2.20891
11
2.7369
21
-2.2336
0
LINE
8
BLACK
6
CONTINUOUS
10
2.7369
20
-2.2336
11
2.72988
21
-2.25875
0
LINE
8
BLACK
6
CONTINUOUS
10
2.72988
20
-2.25875
11
2.7244
21
-2.28428
0
LINE
8
BLACK
6
CONTINUOUS
10
2.7244
20
-2.28428
11
2.72047
21
-2.3101
0
LINE
8
BLACK
6
CONTINUOUS
10
2.72047
20
-2.3101
11
2.71811
21
-2.3361
0
LINE
8
BLACK
6
CONTINUOUS
10
2.71811
20
-2.3361
11
2.71732
21
-2.3622
0
LINE
8
BLACK
6
CONTINUOUS
10
2.71732
20
-2.3622
11
2.71811
21
-2.38831
0
LINE
8
BLACK
6
CONTINUOUS
10
3.19029
20
-1.88855
11
3.21726
21
-1.89165
0
LINE
8
BLACK
6
CONTINUOUS
10
3.21726
20
-1.89165
11
3.24401
21
-1.89628
0
LINE
8
BLACK
6
CONTINUOUS
10
3.24401
20
-1.89628
11
3.27046
21
-1.90243
0
LINE
8
BLACK
6
CONTINUOUS
10
3.27046
20
-1.90243
11
3.29651
21
-1.91008
0
LINE
8
BLACK
6
CONTINUOUS
10
3.29651
20
-1.91008
11
3.32208
21
-1.9192
0
LINE
8
BLACK
6
CONTINUOUS
10
3.32208
20
-1.9192
11
3.34709
21
-1.92977
0
LINE
8
BLACK
6
CONTINUOUS
10
3.34709
20
-1.92977
11
3.37146
21
-1.94175
0
LINE
8
BLACK
6
CONTINUOUS
10
3.37146
20
-1.94175
11
3.3951
21
-1.9551
0
LINE
8
BLACK
6
CONTINUOUS
10
3.3951
20
-1.9551
11
3.41794
21
-1.96978
0
LINE
8
BLACK
6
CONTINUOUS
10
3.41794
20
-1.96978
11
3.4399
21
-1.98574
0
LINE
8
BLACK
6
CONTINUOUS
10
3.4399
20
-1.98574
11
3.46092
21
-2.00293
0
LINE
8
BLACK
6
CONTINUOUS
10
3.46092
20
-2.00293
11
3.48093
21
-2.02128
0
LINE
8
BLACK
6
CONTINUOUS
10
3.48093
20
-2.02128
11
3.49985
21
-2.04076
0
LINE
8
BLACK
6
CONTINUOUS
10
3.49985
20
-2.04076
11
3.51763
21
-2.06127
0
LINE
8
BLACK
6
CONTINUOUS
10
3.51763
20
-2.06127
11
3.53421
21
-2.08278
0
LINE
8
BLACK
6
CONTINUOUS
10
3.53421
20
-2.08278
11
3.54953
21
-2.10519
0
LINE
8
BLACK
6
CONTINUOUS
10
3.54953
20
-2.10519
11
3.56355
21
-2.12844
0
LINE
8
BLACK
6
CONTINUOUS
10
3.56355
20
-2.12844
11
3.57622
21
-2.15245
0
LINE
8
BLACK
6
CONTINUOUS
10
3.57622
20
-2.15245
11
3.5875
21
-2.17715
0
LINE
8
BLACK
6
CONTINUOUS
10
3.5875
20
-2.17715
11
3.59735
21
-2.20245
0
LINE
8
BLACK
6
CONTINUOUS
10
3.59735
20
-2.20245
11
3.60574
21
-2.22827
0
LINE
8
BLACK
6
CONTINUOUS
10
3.60574
20
-2.22827
11
3.61265
21
-2.25453
0
LINE
8
BLACK
6
CONTINUOUS
10
3.61265
20
-2.25453
11
3.61804
21
-2.28114
0
LINE
8
BLACK
6
CONTINUOUS
10
3.61804
20
-2.28114
11
3.6219
21
-2.30801
0
LINE
8
BLACK
6
CONTINUOUS
10
3.6219
20
-2.30801
11
3.62422
21
-2.33507
0
LINE
8
BLACK
6
CONTINUOUS
10
3.62422
20
-2.33507
11
3.625
21
-2.3622
0
LINE
8
BLACK
6
CONTINUOUS
10
3.625
20
-2.3622
11
3.62422
21
-2.38934
0
LINE
8
BLACK
6
CONTINUOUS
10
3.62422
20
-2.38934
11
3.6219
21
-2.4164
0
LINE
8
BLACK
6
CONTINUOUS
10
3.6219
20
-2.4164
11
3.61804
21
-2.44327
0
LINE
8
BLACK
6
CONTINUOUS
10
3.61804
20
-2.44327
11
3.61265
21
-2.46988
0
LINE
8
BLACK
6
CONTINUOUS
10
3.61265
20
-2.46988
11
3.60574
21
-2.49614
0
LINE
8
BLACK
6
CONTINUOUS
10
3.60574
20
-2.49614
11
3.59735
21
-2.52196
0
LINE
8
BLACK
6
CONTINUOUS
10
3.59735
20
-2.52196
11
3.5875
21
-2.54726
0
LINE
8
BLACK
6
CONTINUOUS
10
3.5875
20
-2.54726
11
3.57622
21
-2.57196
0
LINE
8
BLACK
6
CONTINUOUS
10
3.57622
20
-2.57196
11
3.56355
21
-2.59597
0
LINE
8
BLACK
6
CONTINUOUS
10
3.56355
20
-2.59597
11
3.54953
21
-2.61922
0
LINE
8
BLACK
6
CONTINUOUS
10
3.54953
20
-2.61922
11
3.53421
21
-2.64163
0
LINE
8
BLACK
6
CONTINUOUS
10
3.53421
20
-2.64163
11
3.51763
21
-2.66313
0
LINE
8
BLACK
6
CONTINUOUS
10
3.51763
20
-2.66313
11
3.49985
21
-2.68365
0
LINE
8
BLACK
6
CONTINUOUS
10
3.49985
20
-2.68365
11
3.48093
21
-2.70312
0
LINE
8
BLACK
6
CONTINUOUS
10
3.48093
20
-2.70312
11
3.46092
21
-2.72148
0
LINE
8
BLACK
6
CONTINUOUS
10
3.46092
20
-2.72148
11
3.4399
21
-2.73867
0
LINE
8
BLACK
6
CONTINUOUS
10
3.4399
20
-2.73867
11
3.41794
21
-2.75463
0
LINE
8
BLACK
6
CONTINUOUS
10
3.41794
20
-2.75463
11
3.3951
21
-2.76931
0
LINE
8
BLACK
6
CONTINUOUS
10
3.3951
20
-2.76931
11
3.37146
21
-2.78266
0
LINE
8
BLACK
6
CONTINUOUS
10
3.37146
20
-2.78266
11
3.34709
21
-2.79464
0
LINE
8
BLACK
6
CONTINUOUS
10
3.34709
20
-2.79464
11
3.32208
21
-2.80521
0
LINE
8
BLACK
6
CONTINUOUS
10
3.32208
20
-2.80521
11
3.29651
21
-2.81433
0
LINE
8
BLACK
6
CONTINUOUS
10
3.29651
20
-2.81433
11
3.27046
21
-2.82198
0
LINE
8
BLACK
6
CONTINUOUS
10
3.27046
20
-2.82198
11
3.24401
21
-2.82813
0
LINE
8
BLACK
6
CONTINUOUS
10
3.24401
20
-2.82813
11
3.21726
21
-2.83276
0
LINE
8
BLACK
6
CONTINUOUS
10
3.21726
20
-2.83276
11
3.19029
21
-2.83585
0
LINE
8
BLACK
6
CONTINUOUS
10
3.19029
20
-2.83585
11
3.16318
21
-2.8374
0
LINE
8
BLACK
6
CONTINUOUS
10
3.16318
20
-2.8374
11
3.13603
21
-2.8374
0
LINE
8
BLACK
6
CONTINUOUS
10
3.13603
20
-2.8374
11
3.10892
21
-2.83585
0
LINE
8
BLACK
6
CONTINUOUS
10
3.10892
20
-2.83585
11
3.08195
21
-2.83276
0
LINE
8
BLACK
6
CONTINUOUS
10
3.08195
20
-2.83276
11
3.0552
21
-2.82813
0
LINE
8
BLACK
6
CONTINUOUS
10
3.0552
20
-2.82813
11
3.02875
21
-2.82198
0
LINE
8
BLACK
6
CONTINUOUS
10
3.02875
20
-2.82198
11
3.0027
21
-2.81433
0
LINE
8
BLACK
6
CONTINUOUS
10
3.0027
20
-2.81433
11
2.97713
21
-2.80521
0
LINE
8
BLACK
6
CONTINUOUS
10
2.97713
20
-2.80521
11
2.95212
21
-2.79464
0
LINE
8
BLACK
6
CONTINUOUS
10
2.95212
20
-2.79464
11
2.92776
21
-2.78266
0
LINE
8
BLACK
6
CONTINUOUS
10
2.92776
20
-2.78266
11
2.90411
21
-2.76931
0
LINE
8
BLACK
6
CONTINUOUS
10
2.90411
20
-2.76931
11
2.88127
21
-2.75463
0
LINE
8
BLACK
6
CONTINUOUS
10
2.88127
20
-2.75463
11
2.85931
21
-2.73867
0
LINE
8
BLACK
6
CONTINUOUS
10
2.85931
20
-2.73867
11
2.83829
21
-2.72148
0
LINE
8
BLACK
6
CONTINUOUS
10
2.83829
20
-2.72148
11
2.81829
21
-2.70312
0
LINE
8
BLACK
6
CONTINUOUS
10
2.81829
20
-2.70312
11
2.79936
21
-2.68365
0
LINE
8
BLACK
6
CONTINUOUS
10
2.79936
20
-2.68365
11
2.78158
21
-2.66313
0
LINE
8
BLACK
6
CONTINUOUS
10
2.78158
20
-2.66313
11
2.765
21
-2.64163
0
LINE
8
BLACK
6
CONTINUOUS
10
2.765
20
-2.64163
11
2.74968
21
-2.61922
0
LINE
8
BLACK
6
CONTINUOUS
10
2.74968
20
-2.61922
11
2.73566
21
-2.59597
0
LINE
8
BLACK
6
CONTINUOUS
10
2.73566
20
-2.59597
11
2.72299
21
-2.57196
0
LINE
8
BLACK
6
CONTINUOUS
10
2.72299
20
-2.57196
11
2.71171
21
-2.54726
0
LINE
8
BLACK
6
CONTINUOUS
10
2.71171
20
-2.54726
11
2.70186
21
-2.52196
0
LINE
8
BLACK
6
CONTINUOUS
10
2.70186
20
-2.52196
11
2.69347
21
-2.49614
0
LINE
8
BLACK
6
CONTINUOUS
10
2.69347
20
-2.49614
11
2.68657
21
-2.46988
0
LINE
8
BLACK
6
CONTINUOUS
10
2.68657
20
-2.46988
11
2.68118
21
-2.44327
0
LINE
8
BLACK
6
CONTINUOUS
10
2.68118
20
-2.44327
11
2.67731
21
-2.4164
0
LINE
8
BLACK
6
CONTINUOUS
10
2.67731
20
-2.4164
11
2.67499
21
-2.38934
0
LINE
8
BLACK
6
CONTINUOUS
10
2.67499
20
-2.38934
11
2.67421
21
-2.3622
0
LINE
8
BLACK
6
CONTINUOUS
10
2.67421
20
-2.3622
11
2.67499
21
-2.33507
0
LINE
8
BLACK
6
CONTINUOUS
10
2.67499
20
-2.33507
11
2.67731
21
-2.30801
0
LINE
8
BLACK
6
CONTINUOUS
10
2.67731
20
-2.30801
11
2.68118
21
-2.28114
0
LINE
8
BLACK
6
CONTINUOUS
10
2.68118
20
-2.28114
11
2.68657
21
-2.25453
0
LINE
8
BLACK
6
CONTINUOUS
10
2.68657
20
-2.25453
11
2.69347
21
-2.22827
0
LINE
8
BLACK
6
CONTINUOUS
10
2.69347
20
-2.22827
11
2.70186
21
-2.20245
0
LINE
8
BLACK
6
CONTINUOUS
10
2.70186
20
-2.20245
11
2.71171
21
-2.17715
0
LINE
8
BLACK
6
CONTINUOUS
10
2.71171
20
-2.17715
11
2.72299
21
-2.15245
0
LINE
8
BLACK
6
CONTINUOUS
10
2.72299
20
-2.15245
11
2.73566
21
-2.12844
0
LINE
8
BLACK
6
CONTINUOUS
10
2.73566
20
-2.12844
11
2.74968
21
-2.10519
0
LINE
8
BLACK
6
CONTINUOUS
10
2.74968
20
-2.10519
11
2.765
21
-2.08278
0
LINE
8
BLACK
6
CONTINUOUS
10
2.765
20
-2.08278
11
2.78158
21
-2.06127
0
LINE
8
BLACK
6
CONTINUOUS
10
2.78158
20
-2.06127
11
2.79936
21
-2.04076
0
LINE
8
BLACK
6
CONTINUOUS
10
2.79936
20
-2.04076
11
2.81829
21
-2.02128
0
LINE
8
BLACK
6
CONTINUOUS
10
2.81829
20
-2.02128
11
2.83829
21
-2.00293
0
LINE
8
BLACK
6
CONTINUOUS
10
2.83829
20
-2.00293
11
2.85931
21
-1.98574
0
LINE
8
BLACK
6
CONTINUOUS
10
2.85931
20
-1.98574
11
2.88127
21
-1.96978
0
LINE
8
BLACK
6
CONTINUOUS
10
2.88127
20
-1.96978
11
2.90411
21
-1.9551
0
LINE
8
BLACK
6
CONTINUOUS
10
2.90411
20
-1.9551
11
2.92776
21
-1.94175
0
LINE
8
BLACK
6
CONTINUOUS
10
2.92776
20
-1.94175
11
2.95212
21
-1.92977
0
LINE
8
BLACK
6
CONTINUOUS
10
2.95212
20
-1.92977
11
2.97713
21
-1.9192
0
LINE
8
BLACK
6
CONTINUOUS
10
2.97713
20
-1.9192
11
3.0027
21
-1.91008
0
LINE
8
BLACK
6
CONTINUOUS
10
3.0027
20
-1.91008
11
3.02875
21
-1.90243
0
LINE
8
BLACK
6
CONTINUOUS
10
3.02875
20
-1.90243
11
3.0552
21
-1.89628
0
LINE
8
BLACK
6
CONTINUOUS
10
3.0552
20
-1.89628
11
3.08195
21
-1.89165
0
LINE
8
BLACK
6
CONTINUOUS
10
3.08195
20
-1.89165
11
3.10892
21
-1.88855
0
LINE
8
BLACK
6
CONTINUOUS
10
3.10892
20
-1.88855
11
3.13603
21
-1.887
0
LINE
8
BLACK
6
CONTINUOUS
10
3.13603
20
-1.887
11
3.16318
21
-1.887
0
LINE
8
BLACK
6
CONTINUOUS
10
3.16318
20
-1.887
11
3.19029
21
-1.88855
0
LINE
8
BLACK
6
CONTINUOUS
10
2.68071
20
-2.38951
11
2.6831
21
-2.41673
0
LINE
8
BLACK
6
CONTINUOUS
10
2.6831
20
-2.41673
11
2.68705
21
-2.44376
0
LINE
8
BLACK
6
CONTINUOUS
10
2.68705
20
-2.44376
11
2.69258
21
-2.47052
0
LINE
8
BLACK
6
CONTINUOUS
10
2.69258
20
-2.47052
11
2.69965
21
-2.49691
0
LINE
8
BLACK
6
CONTINUOUS
10
2.69965
20
-2.49691
11
2.70824
21
-2.52285
0
LINE
8
BLACK
6
CONTINUOUS
10
2.70824
20
-2.52285
11
2.71833
21
-2.54824
0
LINE
8
BLACK
6
CONTINUOUS
10
2.71833
20
-2.54824
11
2.72988
21
-2.573
0
LINE
8
BLACK
6
CONTINUOUS
10
2.72988
20
-2.573
11
2.74285
21
-2.59705
0
LINE
8
BLACK
6
CONTINUOUS
10
2.74285
20
-2.59705
11
2.75719
21
-2.6203
0
LINE
8
BLACK
6
CONTINUOUS
10
2.75719
20
-2.6203
11
2.77286
21
-2.64268
0
LINE
8
BLACK
6
CONTINUOUS
10
2.77286
20
-2.64268
11
2.78981
21
-2.66411
0
LINE
8
BLACK
6
CONTINUOUS
10
2.78981
20
-2.66411
11
2.80797
21
-2.68452
0
LINE
8
BLACK
6
CONTINUOUS
10
2.80797
20
-2.68452
11
2.82729
21
-2.70384
0
LINE
8
BLACK
6
CONTINUOUS
10
2.82729
20
-2.70384
11
2.8477
21
-2.72201
0
LINE
8
BLACK
6
CONTINUOUS
10
2.8477
20
-2.72201
11
2.86913
21
-2.73895
0
LINE
8
BLACK
6
CONTINUOUS
10
2.86913
20
-2.73895
11
2.89151
21
-2.75462
0
LINE
8
BLACK
6
CONTINUOUS
10
2.89151
20
-2.75462
11
2.91476
21
-2.76897
0
LINE
8
BLACK
6
CONTINUOUS
10
2.91476
20
-2.76897
11
2.93881
21
-2.78193
0
LINE
8
BLACK
6
CONTINUOUS
10
2.93881
20
-2.78193
11
2.96357
21
-2.79348
0
LINE
8
BLACK
6
CONTINUOUS
10
2.96357
20
-2.79348
11
2.98896
21
-2.80357
0
LINE
8
BLACK
6
CONTINUOUS
10
2.98896
20
-2.80357
11
3.0149
21
-2.81216
0
LINE
8
BLACK
6
CONTINUOUS
10
3.0149
20
-2.81216
11
3.04129
21
-2.81923
0
LINE
8
BLACK
6
CONTINUOUS
10
3.04129
20
-2.81923
11
3.06805
21
-2.82476
0
LINE
8
BLACK
6
CONTINUOUS
10
3.06805
20
-2.82476
11
3.09508
21
-2.82872
0
LINE
8
BLACK
6
CONTINUOUS
10
3.09508
20
-2.82872
11
3.1223
21
-2.8311
0
LINE
8
BLACK
6
CONTINUOUS
10
3.1223
20
-2.8311
11
3.14961
21
-2.83189
0
LINE
8
BLACK
6
CONTINUOUS
10
3.14961
20
-2.83189
11
3.17692
21
-2.8311
0
LINE
8
BLACK
6
CONTINUOUS
10
3.17692
20
-2.8311
11
3.20413
21
-2.82872
0
LINE
8
BLACK
6
CONTINUOUS
10
3.20413
20
-2.82872
11
3.23117
21
-2.82476
0
LINE
8
BLACK
6
CONTINUOUS
10
3.23117
20
-2.82476
11
3.25792
21
-2.81923
0
LINE
8
BLACK
6
CONTINUOUS
10
3.25792
20
-2.81923
11
3.28431
21
-2.81216
0
LINE
8
BLACK
6
CONTINUOUS
10
3.28431
20
-2.81216
11
3.31025
21
-2.80357
0
LINE
8
BLACK
6
CONTINUOUS
10
3.31025
20
-2.80357
11
3.33564
21
-2.79348
0
LINE
8
BLACK
6
CONTINUOUS
10
3.33564
20
-2.79348
11
3.3604
21
-2.78193
0
LINE
8
BLACK
6
CONTINUOUS
10
3.3604
20
-2.78193
11
3.38445
21
-2.76897
0
LINE
8
BLACK
6
CONTINUOUS
10
3.38445
20
-2.76897
11
3.4077
21
-2.75462
0
LINE
8
BLACK
6
CONTINUOUS
10
3.4077
20
-2.75462
11
3.43008
21
-2.73895
0
LINE
8
BLACK
6
CONTINUOUS
10
3.43008
20
-2.73895
11
3.45152
21
-2.72201
0
LINE
8
BLACK
6
CONTINUOUS
10
3.45152
20
-2.72201
11
3.47192
21
-2.70384
0
LINE
8
BLACK
6
CONTINUOUS
10
3.47192
20
-2.70384
11
3.49124
21
-2.68452
0
LINE
8
BLACK
6
CONTINUOUS
10
3.49124
20
-2.68452
11
3.50941
21
-2.66411
0
LINE
8
BLACK
6
CONTINUOUS
10
3.50941
20
-2.66411
11
3.52635
21
-2.64268
0
LINE
8
BLACK
6
CONTINUOUS
10
3.52635
20
-2.64268
11
3.54202
21
-2.6203
0
LINE
8
BLACK
6
CONTINUOUS
10
3.54202
20
-2.6203
11
3.55637
21
-2.59705
0
LINE
8
BLACK
6
CONTINUOUS
10
3.55637
20
-2.59705
11
3.56933
21
-2.573
0
LINE
8
BLACK
6
CONTINUOUS
10
3.56933
20
-2.573
11
3.58088
21
-2.54824
0
LINE
8
BLACK
6
CONTINUOUS
10
3.58088
20
-2.54824
11
3.59097
21
-2.52285
0
LINE
8
BLACK
6
CONTINUOUS
10
3.59097
20
-2.52285
11
3.59956
21
-2.49691
0
LINE
8
BLACK
6
CONTINUOUS
10
3.59956
20
-2.49691
11
3.60663
21
-2.47052
0
LINE
8
BLACK
6
CONTINUOUS
10
3.60663
20
-2.47052
11
3.61216
21
-2.44376
0
LINE
8
BLACK
6
CONTINUOUS
10
3.61216
20
-2.44376
11
3.61612
21
-2.41673
0
LINE
8
BLACK
6
CONTINUOUS
10
3.61612
20
-2.41673
11
3.6185
21
-2.38951
0
LINE
8
BLACK
6
CONTINUOUS
10
3.6185
20
-2.38951
11
3.61929
21
-2.3622
0
LINE
8
BLACK
6
CONTINUOUS
10
3.61929
20
-2.3622
11
3.6185
21
-2.33489
0
LINE
8
BLACK
6
CONTINUOUS
10
3.6185
20
-2.33489
11
3.61612
21
-2.30768
0
LINE
8
BLACK
6
CONTINUOUS
10
3.61612
20
-2.30768
11
3.61216
21
-2.28064
0
LINE
8
BLACK
6
CONTINUOUS
10
3.61216
20
-2.28064
11
3.60663
21
-2.25389
0
LINE
8
BLACK
6
CONTINUOUS
10
3.60663
20
-2.25389
11
3.59956
21
-2.2275
0
LINE
8
BLACK
6
CONTINUOUS
10
3.59956
20
-2.2275
11
3.59097
21
-2.20156
0
LINE
8
BLACK
6
CONTINUOUS
10
3.59097
20
-2.20156
11
3.58088
21
-2.17617
0
LINE
8
BLACK
6
CONTINUOUS
10
3.58088
20
-2.17617
11
3.56933
21
-2.15141
0
LINE
8
BLACK
6
CONTINUOUS
10
3.56933
20
-2.15141
11
3.55637
21
-2.12736
0
LINE
8
BLACK
6
CONTINUOUS
10
3.55637
20
-2.12736
11
3.54202
21
-2.10411
0
LINE
8
BLACK
6
CONTINUOUS
10
3.54202
20
-2.10411
11
3.52635
21
-2.08173
0
LINE
8
BLACK
6
CONTINUOUS
10
3.52635
20
-2.08173
11
3.50941
21
-2.0603
0
LINE
8
BLACK
6
CONTINUOUS
10
3.50941
20
-2.0603
11
3.49124
21
-2.03989
0
LINE
8
BLACK
6
CONTINUOUS
10
3.49124
20
-2.03989
11
3.47192
21
-2.02057
0
LINE
8
BLACK
6
CONTINUOUS
10
3.47192
20
-2.02057
11
3.45152
21
-2.0024
0
LINE
8
BLACK
6
CONTINUOUS
10
3.45152
20
-2.0024
11
3.43008
21
-1.98546
0
LINE
8
BLACK
6
CONTINUOUS
10
3.43008
20
-1.98546
11
3.4077
21
-1.96979
0
LINE
8
BLACK
6
CONTINUOUS
10
3.4077
20
-1.96979
11
3.38445
21
-1.95544
0
LINE
8
BLACK
6
CONTINUOUS
10
3.38445
20
-1.95544
11
3.3604
21
-1.94248
0
LINE
8
BLACK
6
CONTINUOUS
10
3.3604
20
-1.94248
11
3.33564
21
-1.93093
0
LINE
8
BLACK
6
CONTINUOUS
10
3.33564
20
-1.93093
11
3.31025
21
-1.92084
0
LINE
8
BLACK
6
CONTINUOUS
10
3.31025
20
-1.92084
11
3.28431
21
-1.91225
0
LINE
8
BLACK
6
CONTINUOUS
10
3.28431
20
-1.91225
11
3.25792
21
-1.90518
0
LINE
8
BLACK
6
CONTINUOUS
10
3.25792
20
-1.90518
11
3.23117
21
-1.89965
0
LINE
8
BLACK
6
CONTINUOUS
10
3.23117
20
-1.89965
11
3.20413
21
-1.89569
0
LINE
8
BLACK
6
CONTINUOUS
10
3.20413
20
-1.89569
11
3.17692
21
-1.89331
0
LINE
8
BLACK
6
CONTINUOUS
10
3.17692
20
-1.89331
11
3.14961
21
-1.89252
0
LINE
8
BLACK
6
CONTINUOUS
10
3.14961
20
-1.89252
11
3.1223
21
-1.89331
0
LINE
8
BLACK
6
CONTINUOUS
10
3.1223
20
-1.89331
11
3.09508
21
-1.89569
0
LINE
8
BLACK
6
CONTINUOUS
10
3.09508
20
-1.89569
11
3.06805
21
-1.89965
0
LINE
8
BLACK
6
CONTINUOUS
10
3.06805
20
-1.89965
11
3.04129
21
-1.90518
0
LINE
8
BLACK
6
CONTINUOUS
10
3.04129
20
-1.90518
11
3.0149
21
-1.91225
0
LINE
8
BLACK
6
CONTINUOUS
10
3.0149
20
-1.91225
11
2.98896
21
-1.92084
0
LINE
8
BLACK
6
CONTINUOUS
10
2.98896
20
-1.92084
11
2.96357
21
-1.93093
0
LINE
8
BLACK
6
CONTINUOUS
10
2.96357
20
-1.93093
11
2.93881
21
-1.94248
0
LINE
8
BLACK
6
CONTINUOUS
10
2.93881
20
-1.94248
11
2.91476
21
-1.95544
0
LINE
8
BLACK
6
CONTINUOUS
10
2.91476
20
-1.95544
11
2.89151
21
-1.96979
0
LINE
8
BLACK
6
CONTINUOUS
10
2.89151
20
-1.96979
11
2.86913
21
-1.98546
0
LINE
8
BLACK
6
CONTINUOUS
10
2.86913
20
-1.98546
11
2.8477
21
-2.0024
0
LINE
8
BLACK
6
CONTINUOUS
10
2.8477
20
-2.0024
11
2.82729
21
-2.02057
0
LINE
8
BLACK
6
CONTINUOUS
10
2.82729
20
-2.02057
11
2.80797
21
-2.03989
0
LINE
8
BLACK
6
CONTINUOUS
10
2.80797
20
-2.03989
11
2.78981
21
-2.0603
0
LINE
8
BLACK
6
CONTINUOUS
10
2.78981
20
-2.0603
11
2.77286
21
-2.08173
0
LINE
8
BLACK
6
CONTINUOUS
10
2.77286
20
-2.08173
11
2.75719
21
-2.10411
0
LINE
8
BLACK
6
CONTINUOUS
10
2.75719
20
-2.10411
11
2.74285
21
-2.12736
0
LINE
8
BLACK
6
CONTINUOUS
10
2.74285
20
-2.12736
11
2.72988
21
-2.15141
0
LINE
8
BLACK
6
CONTINUOUS
10
2.72988
20
-2.15141
11
2.71833
21
-2.17617
0
LINE
8
BLACK
6
CONTINUOUS
10
2.71833
20
-2.17617
11
2.70824
21
-2.20156
0
LINE
8
BLACK
6
CONTINUOUS
10
2.70824
20
-2.20156
11
2.69965
21
-2.2275
0
LINE
8
BLACK
6
CONTINUOUS
10
2.69965
20
-2.2275
11
2.69258
21
-2.25389
0
LINE
8
BLACK
6
CONTINUOUS
10
2.69258
20
-2.25389
11
2.68705
21
-2.28064
0
LINE
8
BLACK
6
CONTINUOUS
10
2.68705
20
-2.28064
11
2.6831
21
-2.30768
0
LINE
8
BLACK
6
CONTINUOUS
10
2.6831
20
-2.30768
11
2.68071
21
-2.33489
0
LINE
8
BLACK
6
CONTINUOUS
10
2.68071
20
-2.33489
11
2.67992
21
-2.3622
0
LINE
8
BLACK
6
CONTINUOUS
10
2.67992
20
-2.3622
11
2.68071
21
-2.38951
  0
ENDSEC
  0
EOF
