  0
SECTION
  2
HEADER
  9
$ANGBASE
  50
0.0
  9
$ANGDIR
  70
1
  9
$MEASUREMENT
  70
0
  0
ENDSEC
  0
SECTION
  2
TABLES
  0
TABLE
  2
LTYPE
  70
4
  0
LTYPE
  5
40F
  2
CONTINUOUS
  70
0
  3
Solid line
  72
65
  73
0
  40
0.0
  0
LTYPE
  5
410
  2
DASHDOT
 70
0
  3
Dash Dot ____ _ ____ _
 72
65
 73
4
 40
2.0
 49
1.25
 49
-0.25
 49
0.25
 49
-0.25
  0
LTYPE
  5
411
  2
DASHED
 70
0
  3
Dashed __ __ __ __ __
 72
65
 73
2
 40
0.75
 49
0.5
 49
-0.25
  0
LTYPE
  5
43B
  2
DOTTED
 70
0
  3
Dotted .  .  .  .
 72
65
 73
2
 40
0.2
 49
0.0
 49
-0.2
  0
ENDTAB
  0
TABLE
  2
STYLE
  70
4
  0
STYLE
  2
KICAD
  70
0
  40
0
  41
1
  42
1
  50
0
  71
0
  3
isocp.shx
  0
STYLE
  2
KICADB
  70
0
  40
0
  41
1
  42
1
  50
0
  71
0
  3
isocp.shx
  0
STYLE
  2
KICADI
  70
0
  40
0
  41
1
  42
1
  50
15
  71
0
  3
isocp.shx
  0
STYLE
  2
KICADBI
  70
0
  40
0
  41
1
  42
1
  50
15
  71
0
  3
isocp.shx
  0
ENDTAB
  0
TABLE
  2
LAYER
  70
1
  0
LAYER
  2
BLACK
  70
0
  62
7
  6
CONTINUOUS
  0
ENDTAB
  0
ENDSEC
  0
SECTION
  2
ENTITIES
0
LINE
8
BLACK
6
CONTINUOUS
10
3.1564
20
-2.76553
11
3.16284
21
-2.76779
0
LINE
8
BLACK
6
CONTINUOUS
10
3.16284
20
-2.76779
11
3.16863
21
-2.77142
0
LINE
8
BLACK
6
CONTINUOUS
10
3.16863
20
-2.77142
11
3.17346
21
-2.77625
0
LINE
8
BLACK
6
CONTINUOUS
10
3.17346
20
-2.77625
11
3.1771
21
-2.78204
0
LINE
8
BLACK
6
CONTINUOUS
10
3.1771
20
-2.78204
11
3.17935
21
-2.78849
0
LINE
8
BLACK
6
CONTINUOUS
10
3.17935
20
-2.78849
11
3.18012
21
-2.79528
0
LINE
8
BLACK
6
CONTINUOUS
10
3.18012
20
-2.79528
11
3.17935
21
-2.80207
0
LINE
8
BLACK
6
CONTINUOUS
10
3.17935
20
-2.80207
11
3.1771
21
-2.80851
0
LINE
8
BLACK
6
CONTINUOUS
10
3.1771
20
-2.80851
11
3.17346
21
-2.8143
0
LINE
8
BLACK
6
CONTINUOUS
10
3.17346
20
-2.8143
11
3.16863
21
-2.81913
0
LINE
8
BLACK
6
CONTINUOUS
10
3.16863
20
-2.81913
11
3.16284
21
-2.82277
0
LINE
8
BLACK
6
CONTINUOUS
10
3.16284
20
-2.82277
11
3.1564
21
-2.82502
0
LINE
8
BLACK
6
CONTINUOUS
10
3.1564
20
-2.82502
11
3.14961
21
-2.82579
0
LINE
8
BLACK
6
CONTINUOUS
10
3.14961
20
-2.82579
11
3.14282
21
-2.82502
0
LINE
8
BLACK
6
CONTINUOUS
10
3.14282
20
-2.82502
11
3.13637
21
-2.82277
0
LINE
8
BLACK
6
CONTINUOUS
10
3.13637
20
-2.82277
11
3.13058
21
-2.81913
0
LINE
8
BLACK
6
CONTINUOUS
10
3.13058
20
-2.81913
11
3.12575
21
-2.8143
0
LINE
8
BLACK
6
CONTINUOUS
10
3.12575
20
-2.8143
11
3.12212
21
-2.80851
0
LINE
8
BLACK
6
CONTINUOUS
10
3.12212
20
-2.80851
11
3.11986
21
-2.80207
0
LINE
8
BLACK
6
CONTINUOUS
10
3.11986
20
-2.80207
11
3.11909
21
-2.79528
0
LINE
8
BLACK
6
CONTINUOUS
10
3.11909
20
-2.79528
11
3.11986
21
-2.78849
0
LINE
8
BLACK
6
CONTINUOUS
10
3.11986
20
-2.78849
11
3.12212
21
-2.78204
0
LINE
8
BLACK
6
CONTINUOUS
10
3.12212
20
-2.78204
11
3.12575
21
-2.77625
0
LINE
8
BLACK
6
CONTINUOUS
10
3.12575
20
-2.77625
11
3.13058
21
-2.77142
0
LINE
8
BLACK
6
CONTINUOUS
10
3.13058
20
-2.77142
11
3.13637
21
-2.76779
0
LINE
8
BLACK
6
CONTINUOUS
10
3.13637
20
-2.76779
11
3.14282
21
-2.76553
0
LINE
8
BLACK
6
CONTINUOUS
10
3.14282
20
-2.76553
11
3.14961
21
-2.76476
0
LINE
8
BLACK
6
CONTINUOUS
10
3.14961
20
-2.76476
11
3.1564
21
-2.76553
0
LINE
8
BLACK
6
CONTINUOUS
10
3.1216
20
-2.80167
11
3.12373
21
-2.80774
0
LINE
8
BLACK
6
CONTINUOUS
10
3.12373
20
-2.80774
11
3.12715
21
-2.81318
0
LINE
8
BLACK
6
CONTINUOUS
10
3.12715
20
-2.81318
11
3.1317
21
-2.81773
0
LINE
8
BLACK
6
CONTINUOUS
10
3.1317
20
-2.81773
11
3.13714
21
-2.82115
0
LINE
8
BLACK
6
CONTINUOUS
10
3.13714
20
-2.82115
11
3.14321
21
-2.82328
0
LINE
8
BLACK
6
CONTINUOUS
10
3.14321
20
-2.82328
11
3.14961
21
-2.824
0
LINE
8
BLACK
6
CONTINUOUS
10
3.14961
20
-2.824
11
3.156
21
-2.82328
0
LINE
8
BLACK
6
CONTINUOUS
10
3.156
20
-2.82328
11
3.16207
21
-2.82115
0
LINE
8
BLACK
6
CONTINUOUS
10
3.16207
20
-2.82115
11
3.16752
21
-2.81773
0
LINE
8
BLACK
6
CONTINUOUS
10
3.16752
20
-2.81773
11
3.17206
21
-2.81318
0
LINE
8
BLACK
6
CONTINUOUS
10
3.17206
20
-2.81318
11
3.17549
21
-2.80774
0
LINE
8
BLACK
6
CONTINUOUS
10
3.17549
20
-2.80774
11
3.17761
21
-2.80167
0
LINE
8
BLACK
6
CONTINUOUS
10
3.17761
20
-2.80167
11
3.17833
21
-2.79528
0
LINE
8
BLACK
6
CONTINUOUS
10
3.17833
20
-2.79528
11
3.17761
21
-2.78888
0
LINE
8
BLACK
6
CONTINUOUS
10
3.17761
20
-2.78888
11
3.17549
21
-2.78281
0
LINE
8
BLACK
6
CONTINUOUS
10
3.17549
20
-2.78281
11
3.17206
21
-2.77737
0
LINE
8
BLACK
6
CONTINUOUS
10
3.17206
20
-2.77737
11
3.16752
21
-2.77282
0
LINE
8
BLACK
6
CONTINUOUS
10
3.16752
20
-2.77282
11
3.16207
21
-2.7694
0
LINE
8
BLACK
6
CONTINUOUS
10
3.16207
20
-2.7694
11
3.156
21
-2.76727
0
LINE
8
BLACK
6
CONTINUOUS
10
3.156
20
-2.76727
11
3.14961
21
-2.76655
0
LINE
8
BLACK
6
CONTINUOUS
10
3.14961
20
-2.76655
11
3.14321
21
-2.76727
0
LINE
8
BLACK
6
CONTINUOUS
10
3.14321
20
-2.76727
11
3.13714
21
-2.7694
0
LINE
8
BLACK
6
CONTINUOUS
10
3.13714
20
-2.7694
11
3.1317
21
-2.77282
0
LINE
8
BLACK
6
CONTINUOUS
10
3.1317
20
-2.77282
11
3.12715
21
-2.77737
0
LINE
8
BLACK
6
CONTINUOUS
10
3.12715
20
-2.77737
11
3.12373
21
-2.78281
0
LINE
8
BLACK
6
CONTINUOUS
10
3.12373
20
-2.78281
11
3.1216
21
-2.78888
0
LINE
8
BLACK
6
CONTINUOUS
10
3.1216
20
-2.78888
11
3.12088
21
-2.79528
0
LINE
8
BLACK
6
CONTINUOUS
10
3.12088
20
-2.79528
11
3.1216
21
-2.80167
0
LINE
8
BLACK
6
CONTINUOUS
10
3.18898
20
-2.67618
11
3.18967
21
-2.67647
0
LINE
8
BLACK
6
CONTINUOUS
10
3.18967
20
-2.67647
11
3.18996
21
-2.67717
0
LINE
8
BLACK
6
CONTINUOUS
10
3.18996
20
-2.67717
11
3.18996
21
-2.68115
0
LINE
8
BLACK
6
CONTINUOUS
10
3.18996
20
-2.68115
11
3.19055
21
-2.68091
0
LINE
8
BLACK
6
CONTINUOUS
10
3.19055
20
-2.68091
11
3.22677
21
-2.68091
0
LINE
8
BLACK
6
CONTINUOUS
10
3.22677
20
-2.68091
11
3.22747
21
-2.68119
0
LINE
8
BLACK
6
CONTINUOUS
10
3.22747
20
-2.68119
11
3.22776
21
-2.68189
0
LINE
8
BLACK
6
CONTINUOUS
10
3.22776
20
-2.68189
11
3.22776
21
-2.75354
0
LINE
8
BLACK
6
CONTINUOUS
10
3.22776
20
-2.75354
11
3.22747
21
-2.75424
0
LINE
8
BLACK
6
CONTINUOUS
10
3.22747
20
-2.75424
11
3.22677
21
-2.75453
0
LINE
8
BLACK
6
CONTINUOUS
10
3.22677
20
-2.75453
11
3.19055
21
-2.75453
0
LINE
8
BLACK
6
CONTINUOUS
10
3.19055
20
-2.75453
11
3.18996
21
-2.75428
0
LINE
8
BLACK
6
CONTINUOUS
10
3.18996
20
-2.75428
11
3.18996
21
-2.75591
0
LINE
8
BLACK
6
CONTINUOUS
10
3.18996
20
-2.75591
11
3.18967
21
-2.7566
0
LINE
8
BLACK
6
CONTINUOUS
10
3.18967
20
-2.7566
11
3.18898
21
-2.75689
0
LINE
8
BLACK
6
CONTINUOUS
10
3.18898
20
-2.75689
11
3.11024
21
-2.75689
0
LINE
8
BLACK
6
CONTINUOUS
10
3.11024
20
-2.75689
11
3.10954
21
-2.7566
0
LINE
8
BLACK
6
CONTINUOUS
10
3.10954
20
-2.7566
11
3.10925
21
-2.75591
0
LINE
8
BLACK
6
CONTINUOUS
10
3.10925
20
-2.75591
11
3.10925
21
-2.67717
0
LINE
8
BLACK
6
CONTINUOUS
10
3.10925
20
-2.67717
11
3.10954
21
-2.67647
0
LINE
8
BLACK
6
CONTINUOUS
10
3.10954
20
-2.67647
11
3.11024
21
-2.67618
0
LINE
8
BLACK
6
CONTINUOUS
10
3.11024
20
-2.67618
11
3.18898
21
-2.67618
0
LINE
8
BLACK
6
CONTINUOUS
10
3.11122
20
-2.67815
11
3.11122
21
-2.75492
0
LINE
8
BLACK
6
CONTINUOUS
10
3.11122
20
-2.75492
11
3.18799
21
-2.75492
0
LINE
8
BLACK
6
CONTINUOUS
10
3.18799
20
-2.75492
11
3.18799
21
-2.67815
0
LINE
8
BLACK
6
CONTINUOUS
10
3.18799
20
-2.67815
11
3.11122
21
-2.67815
0
LINE
8
BLACK
6
CONTINUOUS
10
3.19154
20
-2.68287
11
3.19154
21
-2.75256
0
LINE
8
BLACK
6
CONTINUOUS
10
3.19154
20
-2.75256
11
3.22579
21
-2.75256
0
LINE
8
BLACK
6
CONTINUOUS
10
3.22579
20
-2.75256
11
3.22579
21
-2.68287
0
LINE
8
BLACK
6
CONTINUOUS
10
3.22579
20
-2.68287
11
3.19154
21
-2.68287
0
LINE
8
BLACK
6
CONTINUOUS
10
2.95852
20
-2.61443
11
3.02671
21
-2.6538
0
LINE
8
BLACK
6
CONTINUOUS
10
3.02671
20
-2.6538
11
3.02717
21
-2.6544
0
LINE
8
BLACK
6
CONTINUOUS
10
3.02717
20
-2.6544
11
3.02717
21
-2.6544
0
LINE
8
BLACK
6
CONTINUOUS
10
3.02717
20
-2.6544
11
3.02717
21
-2.6544
0
LINE
8
BLACK
6
CONTINUOUS
10
3.02717
20
-2.6544
11
3.02707
21
-2.65515
0
LINE
8
BLACK
6
CONTINUOUS
10
3.02707
20
-2.65515
11
3.02656
21
-2.65604
0
LINE
8
BLACK
6
CONTINUOUS
10
3.02656
20
-2.65604
11
3.05771
21
-2.67403
0
LINE
8
BLACK
6
CONTINUOUS
10
3.05771
20
-2.67403
11
3.05771
21
-2.67403
0
LINE
8
BLACK
6
CONTINUOUS
10
3.05771
20
-2.67403
11
3.05817
21
-2.67462
0
LINE
8
BLACK
6
CONTINUOUS
10
3.05817
20
-2.67462
11
3.05807
21
-2.67537
0
LINE
8
BLACK
6
CONTINUOUS
10
3.05807
20
-2.67537
11
3.02224
21
-2.73742
0
LINE
8
BLACK
6
CONTINUOUS
10
3.02224
20
-2.73742
11
3.02165
21
-2.73788
0
LINE
8
BLACK
6
CONTINUOUS
10
3.02165
20
-2.73788
11
3.0209
21
-2.73778
0
LINE
8
BLACK
6
CONTINUOUS
10
3.0209
20
-2.73778
11
2.98975
21
-2.7198
0
LINE
8
BLACK
6
CONTINUOUS
10
2.98975
20
-2.7198
11
2.9877
21
-2.72334
0
LINE
8
BLACK
6
CONTINUOUS
10
2.9877
20
-2.72334
11
2.98711
21
-2.7238
0
LINE
8
BLACK
6
CONTINUOUS
10
2.98711
20
-2.7238
11
2.98636
21
-2.7237
0
LINE
8
BLACK
6
CONTINUOUS
10
2.98636
20
-2.7237
11
2.98636
21
-2.7237
0
LINE
8
BLACK
6
CONTINUOUS
10
2.98636
20
-2.7237
11
2.91817
21
-2.68433
0
LINE
8
BLACK
6
CONTINUOUS
10
2.91817
20
-2.68433
11
2.91771
21
-2.68373
0
LINE
8
BLACK
6
CONTINUOUS
10
2.91771
20
-2.68373
11
2.91781
21
-2.68298
0
LINE
8
BLACK
6
CONTINUOUS
10
2.91781
20
-2.68298
11
2.95718
21
-2.61479
0
LINE
8
BLACK
6
CONTINUOUS
10
2.95718
20
-2.61479
11
2.95778
21
-2.61433
0
LINE
8
BLACK
6
CONTINUOUS
10
2.95778
20
-2.61433
11
2.95852
21
-2.61443
0
LINE
8
BLACK
6
CONTINUOUS
10
2.99137
20
-2.71846
11
3.02103
21
-2.73559
0
LINE
8
BLACK
6
CONTINUOUS
10
3.02103
20
-2.73559
11
3.05587
21
-2.67524
0
LINE
8
BLACK
6
CONTINUOUS
10
3.05587
20
-2.67524
11
3.02621
21
-2.65811
0
LINE
8
BLACK
6
CONTINUOUS
10
3.02621
20
-2.65811
11
2.99137
21
-2.71846
0
LINE
8
BLACK
6
CONTINUOUS
10
2.92
20
-2.68311
11
2.98649
21
-2.7215
0
LINE
8
BLACK
6
CONTINUOUS
10
2.98649
20
-2.7215
11
3.02488
21
-2.65501
0
LINE
8
BLACK
6
CONTINUOUS
10
3.02488
20
-2.65501
11
2.95839
21
-2.61663
0
LINE
8
BLACK
6
CONTINUOUS
10
2.95839
20
-2.61663
11
2.92
21
-2.68311
0
LINE
8
BLACK
6
CONTINUOUS
10
3.37658
20
-2.59987
11
3.4124
21
-2.66192
0
LINE
8
BLACK
6
CONTINUOUS
10
3.4124
20
-2.66192
11
3.4125
21
-2.66267
0
LINE
8
BLACK
6
CONTINUOUS
10
3.4125
20
-2.66267
11
3.41204
21
-2.66327
0
LINE
8
BLACK
6
CONTINUOUS
10
3.41204
20
-2.66327
11
3.41204
21
-2.66327
0
LINE
8
BLACK
6
CONTINUOUS
10
3.41204
20
-2.66327
11
3.38067
21
-2.68138
0
LINE
8
BLACK
6
CONTINUOUS
10
3.38067
20
-2.68138
11
3.38049
21
-2.6814
0
LINE
8
BLACK
6
CONTINUOUS
10
3.38049
20
-2.6814
11
3.3814
21
-2.68298
0
LINE
8
BLACK
6
CONTINUOUS
10
3.3814
20
-2.68298
11
3.3815
21
-2.68373
0
LINE
8
BLACK
6
CONTINUOUS
10
3.3815
20
-2.68373
11
3.38104
21
-2.68433
0
LINE
8
BLACK
6
CONTINUOUS
10
3.38104
20
-2.68433
11
3.31285
21
-2.7237
0
LINE
8
BLACK
6
CONTINUOUS
10
3.31285
20
-2.7237
11
3.31211
21
-2.7238
0
LINE
8
BLACK
6
CONTINUOUS
10
3.31211
20
-2.7238
11
3.31151
21
-2.72334
0
LINE
8
BLACK
6
CONTINUOUS
10
3.31151
20
-2.72334
11
3.27214
21
-2.65515
0
LINE
8
BLACK
6
CONTINUOUS
10
3.27214
20
-2.65515
11
3.27204
21
-2.6544
0
LINE
8
BLACK
6
CONTINUOUS
10
3.27204
20
-2.6544
11
3.2725
21
-2.6538
0
LINE
8
BLACK
6
CONTINUOUS
10
3.2725
20
-2.6538
11
3.34069
21
-2.61443
0
LINE
8
BLACK
6
CONTINUOUS
10
3.34069
20
-2.61443
11
3.34069
21
-2.61443
0
LINE
8
BLACK
6
CONTINUOUS
10
3.34069
20
-2.61443
11
3.34144
21
-2.61433
0
LINE
8
BLACK
6
CONTINUOUS
10
3.34144
20
-2.61433
11
3.34203
21
-2.61479
0
LINE
8
BLACK
6
CONTINUOUS
10
3.34203
20
-2.61479
11
3.34375
21
-2.61777
0
LINE
8
BLACK
6
CONTINUOUS
10
3.34375
20
-2.61777
11
3.34386
21
-2.61762
0
LINE
8
BLACK
6
CONTINUOUS
10
3.34386
20
-2.61762
11
3.37523
21
-2.59951
0
LINE
8
BLACK
6
CONTINUOUS
10
3.37523
20
-2.59951
11
3.37598
21
-2.59941
0
LINE
8
BLACK
6
CONTINUOUS
10
3.37598
20
-2.59941
11
3.37658
21
-2.59987
0
LINE
8
BLACK
6
CONTINUOUS
10
3.27434
20
-2.65501
11
3.31272
21
-2.7215
0
LINE
8
BLACK
6
CONTINUOUS
10
3.31272
20
-2.7215
11
3.37921
21
-2.68311
0
LINE
8
BLACK
6
CONTINUOUS
10
3.37921
20
-2.68311
11
3.34082
21
-2.61663
0
LINE
8
BLACK
6
CONTINUOUS
10
3.34082
20
-2.61663
11
3.27434
21
-2.65501
0
LINE
8
BLACK
6
CONTINUOUS
10
3.3457
20
-2.61883
11
3.38054
21
-2.67918
0
LINE
8
BLACK
6
CONTINUOUS
10
3.38054
20
-2.67918
11
3.41021
21
-2.66206
0
LINE
8
BLACK
6
CONTINUOUS
10
3.41021
20
-2.66206
11
3.37536
21
-2.60171
0
LINE
8
BLACK
6
CONTINUOUS
10
3.37536
20
-2.60171
11
3.3457
21
-2.61883
0
LINE
8
BLACK
6
CONTINUOUS
10
2.85801
20
-2.4851
11
2.89738
21
-2.55329
0
LINE
8
BLACK
6
CONTINUOUS
10
2.89738
20
-2.55329
11
2.89748
21
-2.55404
0
LINE
8
BLACK
6
CONTINUOUS
10
2.89748
20
-2.55404
11
2.89702
21
-2.55463
0
LINE
8
BLACK
6
CONTINUOUS
10
2.89702
20
-2.55463
11
2.89695
21
-2.55468
0
LINE
8
BLACK
6
CONTINUOUS
10
2.89695
20
-2.55468
11
2.91495
21
-2.58586
0
LINE
8
BLACK
6
CONTINUOUS
10
2.91495
20
-2.58586
11
2.91505
21
-2.58661
0
LINE
8
BLACK
6
CONTINUOUS
10
2.91505
20
-2.58661
11
2.91487
21
-2.58685
0
LINE
8
BLACK
6
CONTINUOUS
10
2.91487
20
-2.58685
11
2.91459
21
-2.58721
0
LINE
8
BLACK
6
CONTINUOUS
10
2.91459
20
-2.58721
11
2.85254
21
-2.62303
0
LINE
8
BLACK
6
CONTINUOUS
10
2.85254
20
-2.62303
11
2.85179
21
-2.62313
0
LINE
8
BLACK
6
CONTINUOUS
10
2.85179
20
-2.62313
11
2.85179
21
-2.62313
0
LINE
8
BLACK
6
CONTINUOUS
10
2.85179
20
-2.62313
11
2.85179
21
-2.62313
0
LINE
8
BLACK
6
CONTINUOUS
10
2.85179
20
-2.62313
11
2.85119
21
-2.62267
0
LINE
8
BLACK
6
CONTINUOUS
10
2.85119
20
-2.62267
11
2.85119
21
-2.62267
0
LINE
8
BLACK
6
CONTINUOUS
10
2.85119
20
-2.62267
11
2.83319
21
-2.59149
0
LINE
8
BLACK
6
CONTINUOUS
10
2.83319
20
-2.59149
11
2.82883
21
-2.594
0
LINE
8
BLACK
6
CONTINUOUS
10
2.82883
20
-2.594
11
2.82808
21
-2.5941
0
LINE
8
BLACK
6
CONTINUOUS
10
2.82808
20
-2.5941
11
2.82748
21
-2.59364
0
LINE
8
BLACK
6
CONTINUOUS
10
2.82748
20
-2.59364
11
2.78811
21
-2.52545
0
LINE
8
BLACK
6
CONTINUOUS
10
2.78811
20
-2.52545
11
2.78802
21
-2.5247
0
LINE
8
BLACK
6
CONTINUOUS
10
2.78802
20
-2.5247
11
2.78847
21
-2.52411
0
LINE
8
BLACK
6
CONTINUOUS
10
2.78847
20
-2.52411
11
2.85667
21
-2.48474
0
LINE
8
BLACK
6
CONTINUOUS
10
2.85667
20
-2.48474
11
2.85667
21
-2.48474
0
LINE
8
BLACK
6
CONTINUOUS
10
2.85667
20
-2.48474
11
2.85741
21
-2.48464
0
LINE
8
BLACK
6
CONTINUOUS
10
2.85741
20
-2.48464
11
2.85801
21
-2.4851
0
LINE
8
BLACK
6
CONTINUOUS
10
2.83528
20
-2.59117
11
2.8524
21
-2.62084
0
LINE
8
BLACK
6
CONTINUOUS
10
2.8524
20
-2.62084
11
2.91275
21
-2.58599
0
LINE
8
BLACK
6
CONTINUOUS
10
2.91275
20
-2.58599
11
2.89563
21
-2.55633
0
LINE
8
BLACK
6
CONTINUOUS
10
2.89563
20
-2.55633
11
2.83528
21
-2.59117
0
LINE
8
BLACK
6
CONTINUOUS
10
2.79031
20
-2.52532
11
2.8287
21
-2.59181
0
LINE
8
BLACK
6
CONTINUOUS
10
2.8287
20
-2.59181
11
2.89518
21
-2.55342
0
LINE
8
BLACK
6
CONTINUOUS
10
2.89518
20
-2.55342
11
2.8568
21
-2.48693
0
LINE
8
BLACK
6
CONTINUOUS
10
2.8568
20
-2.48693
11
2.79031
21
-2.52532
0
LINE
8
BLACK
6
CONTINUOUS
10
3.46474
20
-2.45571
11
3.52679
21
-2.49153
0
LINE
8
BLACK
6
CONTINUOUS
10
3.52679
20
-2.49153
11
3.52725
21
-2.49213
0
LINE
8
BLACK
6
CONTINUOUS
10
3.52725
20
-2.49213
11
3.52715
21
-2.49288
0
LINE
8
BLACK
6
CONTINUOUS
10
3.52715
20
-2.49288
11
3.50953
21
-2.52341
0
LINE
8
BLACK
6
CONTINUOUS
10
3.50953
20
-2.52341
11
3.51074
21
-2.52411
0
LINE
8
BLACK
6
CONTINUOUS
10
3.51074
20
-2.52411
11
3.5112
21
-2.5247
0
LINE
8
BLACK
6
CONTINUOUS
10
3.5112
20
-2.5247
11
3.5112
21
-2.5247
0
LINE
8
BLACK
6
CONTINUOUS
10
3.5112
20
-2.5247
11
3.5112
21
-2.5247
0
LINE
8
BLACK
6
CONTINUOUS
10
3.5112
20
-2.5247
11
3.5111
21
-2.52545
0
LINE
8
BLACK
6
CONTINUOUS
10
3.5111
20
-2.52545
11
3.47173
21
-2.59364
0
LINE
8
BLACK
6
CONTINUOUS
10
3.47173
20
-2.59364
11
3.47113
21
-2.5941
0
LINE
8
BLACK
6
CONTINUOUS
10
3.47113
20
-2.5941
11
3.47038
21
-2.594
0
LINE
8
BLACK
6
CONTINUOUS
10
3.47038
20
-2.594
11
3.47038
21
-2.594
0
LINE
8
BLACK
6
CONTINUOUS
10
3.47038
20
-2.594
11
3.40219
21
-2.55463
0
LINE
8
BLACK
6
CONTINUOUS
10
3.40219
20
-2.55463
11
3.40173
21
-2.55404
0
LINE
8
BLACK
6
CONTINUOUS
10
3.40173
20
-2.55404
11
3.40183
21
-2.55329
0
LINE
8
BLACK
6
CONTINUOUS
10
3.40183
20
-2.55329
11
3.4412
21
-2.4851
0
LINE
8
BLACK
6
CONTINUOUS
10
3.4412
20
-2.4851
11
3.4418
21
-2.48464
0
LINE
8
BLACK
6
CONTINUOUS
10
3.4418
20
-2.48464
11
3.44255
21
-2.48474
0
LINE
8
BLACK
6
CONTINUOUS
10
3.44255
20
-2.48474
11
3.44577
21
-2.4866
0
LINE
8
BLACK
6
CONTINUOUS
10
3.44577
20
-2.4866
11
3.4634
21
-2.45607
0
LINE
8
BLACK
6
CONTINUOUS
10
3.4634
20
-2.45607
11
3.4634
21
-2.45607
0
LINE
8
BLACK
6
CONTINUOUS
10
3.4634
20
-2.45607
11
3.46399
21
-2.45561
0
LINE
8
BLACK
6
CONTINUOUS
10
3.46399
20
-2.45561
11
3.46399
21
-2.45561
0
LINE
8
BLACK
6
CONTINUOUS
10
3.46399
20
-2.45561
11
3.46474
21
-2.45571
0
LINE
8
BLACK
6
CONTINUOUS
10
3.40403
20
-2.55342
11
3.47052
21
-2.59181
0
LINE
8
BLACK
6
CONTINUOUS
10
3.47052
20
-2.59181
11
3.5089
21
-2.52532
0
LINE
8
BLACK
6
CONTINUOUS
10
3.5089
20
-2.52532
11
3.44242
21
-2.48693
0
LINE
8
BLACK
6
CONTINUOUS
10
3.44242
20
-2.48693
11
3.40403
21
-2.55342
0
LINE
8
BLACK
6
CONTINUOUS
10
3.44748
20
-2.48757
11
3.50783
21
-2.52241
0
LINE
8
BLACK
6
CONTINUOUS
10
3.50783
20
-2.52241
11
3.52496
21
-2.49275
0
LINE
8
BLACK
6
CONTINUOUS
10
3.52496
20
-2.49275
11
3.46461
21
-2.4579
0
LINE
8
BLACK
6
CONTINUOUS
10
3.46461
20
-2.4579
11
3.44748
21
-2.48757
0
LINE
8
BLACK
6
CONTINUOUS
10
3.53701
20
-2.40768
11
3.5377
21
-2.40797
0
LINE
8
BLACK
6
CONTINUOUS
10
3.5377
20
-2.40797
11
3.53799
21
-2.40866
0
LINE
8
BLACK
6
CONTINUOUS
10
3.53799
20
-2.40866
11
3.53799
21
-2.44567
0
LINE
8
BLACK
6
CONTINUOUS
10
3.53799
20
-2.44567
11
3.5377
21
-2.44637
0
LINE
8
BLACK
6
CONTINUOUS
10
3.5377
20
-2.44637
11
3.53701
21
-2.44665
0
LINE
8
BLACK
6
CONTINUOUS
10
3.53701
20
-2.44665
11
3.46378
21
-2.44665
0
LINE
8
BLACK
6
CONTINUOUS
10
3.46378
20
-2.44665
11
3.46308
21
-2.44637
0
LINE
8
BLACK
6
CONTINUOUS
10
3.46308
20
-2.44637
11
3.4628
21
-2.44567
0
LINE
8
BLACK
6
CONTINUOUS
10
3.4628
20
-2.44567
11
3.4628
21
-2.40866
0
LINE
8
BLACK
6
CONTINUOUS
10
3.4628
20
-2.40866
11
3.46308
21
-2.40797
0
LINE
8
BLACK
6
CONTINUOUS
10
3.46308
20
-2.40797
11
3.46378
21
-2.40768
0
LINE
8
BLACK
6
CONTINUOUS
10
3.46378
20
-2.40768
11
3.53701
21
-2.40768
0
LINE
8
BLACK
6
CONTINUOUS
10
3.46476
20
-2.40965
11
3.46476
21
-2.44469
0
LINE
8
BLACK
6
CONTINUOUS
10
3.46476
20
-2.44469
11
3.53602
21
-2.44469
0
LINE
8
BLACK
6
CONTINUOUS
10
3.53602
20
-2.44469
11
3.53602
21
-2.40965
0
LINE
8
BLACK
6
CONTINUOUS
10
3.53602
20
-2.40965
11
3.46476
21
-2.40965
0
LINE
8
BLACK
6
CONTINUOUS
10
2.83465
20
-2.32185
11
2.83534
21
-2.32214
0
LINE
8
BLACK
6
CONTINUOUS
10
2.83534
20
-2.32214
11
2.83563
21
-2.32283
0
LINE
8
BLACK
6
CONTINUOUS
10
2.83563
20
-2.32283
11
2.83563
21
-2.40157
0
LINE
8
BLACK
6
CONTINUOUS
10
2.83563
20
-2.40157
11
2.83534
21
-2.40227
0
LINE
8
BLACK
6
CONTINUOUS
10
2.83534
20
-2.40227
11
2.83465
21
-2.40256
0
LINE
8
BLACK
6
CONTINUOUS
10
2.83465
20
-2.40256
11
2.83184
21
-2.40256
0
LINE
8
BLACK
6
CONTINUOUS
10
2.83184
20
-2.40256
11
2.83209
21
-2.40315
0
LINE
8
BLACK
6
CONTINUOUS
10
2.83209
20
-2.40315
11
2.83209
21
-2.43937
0
LINE
8
BLACK
6
CONTINUOUS
10
2.83209
20
-2.43937
11
2.8318
21
-2.44007
0
LINE
8
BLACK
6
CONTINUOUS
10
2.8318
20
-2.44007
11
2.8311
21
-2.44035
0
LINE
8
BLACK
6
CONTINUOUS
10
2.8311
20
-2.44035
11
2.75945
21
-2.44035
0
LINE
8
BLACK
6
CONTINUOUS
10
2.75945
20
-2.44035
11
2.75875
21
-2.44007
0
LINE
8
BLACK
6
CONTINUOUS
10
2.75875
20
-2.44007
11
2.75846
21
-2.43937
0
LINE
8
BLACK
6
CONTINUOUS
10
2.75846
20
-2.43937
11
2.75846
21
-2.40315
0
LINE
8
BLACK
6
CONTINUOUS
10
2.75846
20
-2.40315
11
2.75871
21
-2.40256
0
LINE
8
BLACK
6
CONTINUOUS
10
2.75871
20
-2.40256
11
2.75591
21
-2.40256
0
LINE
8
BLACK
6
CONTINUOUS
10
2.75591
20
-2.40256
11
2.75521
21
-2.40227
0
LINE
8
BLACK
6
CONTINUOUS
10
2.75521
20
-2.40227
11
2.75492
21
-2.40157
0
LINE
8
BLACK
6
CONTINUOUS
10
2.75492
20
-2.40157
11
2.75492
21
-2.32283
0
LINE
8
BLACK
6
CONTINUOUS
10
2.75492
20
-2.32283
11
2.75521
21
-2.32214
0
LINE
8
BLACK
6
CONTINUOUS
10
2.75521
20
-2.32214
11
2.75591
21
-2.32185
0
LINE
8
BLACK
6
CONTINUOUS
10
2.75591
20
-2.32185
11
2.83465
21
-2.32185
0
LINE
8
BLACK
6
CONTINUOUS
10
2.76043
20
-2.40413
11
2.76043
21
-2.43839
0
LINE
8
BLACK
6
CONTINUOUS
10
2.76043
20
-2.43839
11
2.83012
21
-2.43839
0
LINE
8
BLACK
6
CONTINUOUS
10
2.83012
20
-2.43839
11
2.83012
21
-2.40413
0
LINE
8
BLACK
6
CONTINUOUS
10
2.83012
20
-2.40413
11
2.76043
21
-2.40413
0
LINE
8
BLACK
6
CONTINUOUS
10
2.75689
20
-2.32382
11
2.75689
21
-2.40059
0
LINE
8
BLACK
6
CONTINUOUS
10
2.75689
20
-2.40059
11
2.83366
21
-2.40059
0
LINE
8
BLACK
6
CONTINUOUS
10
2.83366
20
-2.40059
11
2.83366
21
-2.32382
0
LINE
8
BLACK
6
CONTINUOUS
10
2.83366
20
-2.32382
11
2.75689
21
-2.32382
0
LINE
8
BLACK
6
CONTINUOUS
10
3.54567
20
-2.28524
11
3.54637
21
-2.28552
0
LINE
8
BLACK
6
CONTINUOUS
10
3.54637
20
-2.28552
11
3.54665
21
-2.28622
0
LINE
8
BLACK
6
CONTINUOUS
10
3.54665
20
-2.28622
11
3.54665
21
-2.32244
0
LINE
8
BLACK
6
CONTINUOUS
10
3.54665
20
-2.32244
11
3.54637
21
-2.32314
0
LINE
8
BLACK
6
CONTINUOUS
10
3.54637
20
-2.32314
11
3.54567
21
-2.32343
0
LINE
8
BLACK
6
CONTINUOUS
10
3.54567
20
-2.32343
11
3.54429
21
-2.32343
0
LINE
8
BLACK
6
CONTINUOUS
10
3.54429
20
-2.32343
11
3.54429
21
-2.40157
0
LINE
8
BLACK
6
CONTINUOUS
10
3.54429
20
-2.40157
11
3.544
21
-2.40227
0
LINE
8
BLACK
6
CONTINUOUS
10
3.544
20
-2.40227
11
3.54331
21
-2.40256
0
LINE
8
BLACK
6
CONTINUOUS
10
3.54331
20
-2.40256
11
3.46457
21
-2.40256
0
LINE
8
BLACK
6
CONTINUOUS
10
3.46457
20
-2.40256
11
3.46387
21
-2.40227
0
LINE
8
BLACK
6
CONTINUOUS
10
3.46387
20
-2.40227
11
3.46358
21
-2.40157
0
LINE
8
BLACK
6
CONTINUOUS
10
3.46358
20
-2.40157
11
3.46358
21
-2.32283
0
LINE
8
BLACK
6
CONTINUOUS
10
3.46358
20
-2.32283
11
3.46387
21
-2.32214
0
LINE
8
BLACK
6
CONTINUOUS
10
3.46387
20
-2.32214
11
3.46457
21
-2.32185
0
LINE
8
BLACK
6
CONTINUOUS
10
3.46457
20
-2.32185
11
3.47303
21
-2.32185
0
LINE
8
BLACK
6
CONTINUOUS
10
3.47303
20
-2.32185
11
3.47303
21
-2.28622
0
LINE
8
BLACK
6
CONTINUOUS
10
3.47303
20
-2.28622
11
3.47332
21
-2.28552
0
LINE
8
BLACK
6
CONTINUOUS
10
3.47332
20
-2.28552
11
3.47402
21
-2.28524
0
LINE
8
BLACK
6
CONTINUOUS
10
3.47402
20
-2.28524
11
3.54567
21
-2.28524
0
LINE
8
BLACK
6
CONTINUOUS
10
3.46555
20
-2.32382
11
3.46555
21
-2.40059
0
LINE
8
BLACK
6
CONTINUOUS
10
3.46555
20
-2.40059
11
3.54232
21
-2.40059
0
LINE
8
BLACK
6
CONTINUOUS
10
3.54232
20
-2.40059
11
3.54232
21
-2.32382
0
LINE
8
BLACK
6
CONTINUOUS
10
3.54232
20
-2.32382
11
3.46555
21
-2.32382
0
LINE
8
BLACK
6
CONTINUOUS
10
3.475
20
-2.2872
11
3.475
21
-2.32146
0
LINE
8
BLACK
6
CONTINUOUS
10
3.475
20
-2.32146
11
3.54469
21
-2.32146
0
LINE
8
BLACK
6
CONTINUOUS
10
3.54469
20
-2.32146
11
3.54469
21
-2.2872
0
LINE
8
BLACK
6
CONTINUOUS
10
3.54469
20
-2.2872
11
3.475
21
-2.2872
0
LINE
8
BLACK
6
CONTINUOUS
10
2.72332
20
-2.33246
11
2.72977
21
-2.33471
0
LINE
8
BLACK
6
CONTINUOUS
10
2.72977
20
-2.33471
11
2.73556
21
-2.33835
0
LINE
8
BLACK
6
CONTINUOUS
10
2.73556
20
-2.33835
11
2.74039
21
-2.34318
0
LINE
8
BLACK
6
CONTINUOUS
10
2.74039
20
-2.34318
11
2.74403
21
-2.34897
0
LINE
8
BLACK
6
CONTINUOUS
10
2.74403
20
-2.34897
11
2.74628
21
-2.35542
0
LINE
8
BLACK
6
CONTINUOUS
10
2.74628
20
-2.35542
11
2.74705
21
-2.3622
0
LINE
8
BLACK
6
CONTINUOUS
10
2.74705
20
-2.3622
11
2.74628
21
-2.36899
0
LINE
8
BLACK
6
CONTINUOUS
10
2.74628
20
-2.36899
11
2.74403
21
-2.37544
0
LINE
8
BLACK
6
CONTINUOUS
10
2.74403
20
-2.37544
11
2.74039
21
-2.38123
0
LINE
8
BLACK
6
CONTINUOUS
10
2.74039
20
-2.38123
11
2.73556
21
-2.38606
0
LINE
8
BLACK
6
CONTINUOUS
10
2.73556
20
-2.38606
11
2.72977
21
-2.38969
0
LINE
8
BLACK
6
CONTINUOUS
10
2.72977
20
-2.38969
11
2.72332
21
-2.39195
0
LINE
8
BLACK
6
CONTINUOUS
10
2.72332
20
-2.39195
11
2.71654
21
-2.39272
0
LINE
8
BLACK
6
CONTINUOUS
10
2.71654
20
-2.39272
11
2.70975
21
-2.39195
0
LINE
8
BLACK
6
CONTINUOUS
10
2.70975
20
-2.39195
11
2.7033
21
-2.38969
0
LINE
8
BLACK
6
CONTINUOUS
10
2.7033
20
-2.38969
11
2.69751
21
-2.38606
0
LINE
8
BLACK
6
CONTINUOUS
10
2.69751
20
-2.38606
11
2.69268
21
-2.38123
0
LINE
8
BLACK
6
CONTINUOUS
10
2.69268
20
-2.38123
11
2.68905
21
-2.37544
0
LINE
8
BLACK
6
CONTINUOUS
10
2.68905
20
-2.37544
11
2.68679
21
-2.36899
0
LINE
8
BLACK
6
CONTINUOUS
10
2.68679
20
-2.36899
11
2.68602
21
-2.3622
0
LINE
8
BLACK
6
CONTINUOUS
10
2.68602
20
-2.3622
11
2.68679
21
-2.35542
0
LINE
8
BLACK
6
CONTINUOUS
10
2.68679
20
-2.35542
11
2.68905
21
-2.34897
0
LINE
8
BLACK
6
CONTINUOUS
10
2.68905
20
-2.34897
11
2.69268
21
-2.34318
0
LINE
8
BLACK
6
CONTINUOUS
10
2.69268
20
-2.34318
11
2.69751
21
-2.33835
0
LINE
8
BLACK
6
CONTINUOUS
10
2.69751
20
-2.33835
11
2.7033
21
-2.33471
0
LINE
8
BLACK
6
CONTINUOUS
10
2.7033
20
-2.33471
11
2.70975
21
-2.33246
0
LINE
8
BLACK
6
CONTINUOUS
10
2.70975
20
-2.33246
11
2.71654
21
-2.33169
0
LINE
8
BLACK
6
CONTINUOUS
10
2.71654
20
-2.33169
11
2.72332
21
-2.33246
0
LINE
8
BLACK
6
CONTINUOUS
10
2.68853
20
-2.3686
11
2.69066
21
-2.37467
0
LINE
8
BLACK
6
CONTINUOUS
10
2.69066
20
-2.37467
11
2.69408
21
-2.38011
0
LINE
8
BLACK
6
CONTINUOUS
10
2.69408
20
-2.38011
11
2.69863
21
-2.38466
0
LINE
8
BLACK
6
CONTINUOUS
10
2.69863
20
-2.38466
11
2.70407
21
-2.38808
0
LINE
8
BLACK
6
CONTINUOUS
10
2.70407
20
-2.38808
11
2.71014
21
-2.39021
0
LINE
8
BLACK
6
CONTINUOUS
10
2.71014
20
-2.39021
11
2.71654
21
-2.39093
0
LINE
8
BLACK
6
CONTINUOUS
10
2.71654
20
-2.39093
11
2.72293
21
-2.39021
0
LINE
8
BLACK
6
CONTINUOUS
10
2.72293
20
-2.39021
11
2.729
21
-2.38808
0
LINE
8
BLACK
6
CONTINUOUS
10
2.729
20
-2.38808
11
2.73444
21
-2.38466
0
LINE
8
BLACK
6
CONTINUOUS
10
2.73444
20
-2.38466
11
2.73899
21
-2.38011
0
LINE
8
BLACK
6
CONTINUOUS
10
2.73899
20
-2.38011
11
2.74241
21
-2.37467
0
LINE
8
BLACK
6
CONTINUOUS
10
2.74241
20
-2.37467
11
2.74454
21
-2.3686
0
LINE
8
BLACK
6
CONTINUOUS
10
2.74454
20
-2.3686
11
2.74526
21
-2.3622
0
LINE
8
BLACK
6
CONTINUOUS
10
2.74526
20
-2.3622
11
2.74454
21
-2.35581
0
LINE
8
BLACK
6
CONTINUOUS
10
2.74454
20
-2.35581
11
2.74241
21
-2.34974
0
LINE
8
BLACK
6
CONTINUOUS
10
2.74241
20
-2.34974
11
2.73899
21
-2.3443
0
LINE
8
BLACK
6
CONTINUOUS
10
2.73899
20
-2.3443
11
2.73444
21
-2.33975
0
LINE
8
BLACK
6
CONTINUOUS
10
2.73444
20
-2.33975
11
2.729
21
-2.33633
0
LINE
8
BLACK
6
CONTINUOUS
10
2.729
20
-2.33633
11
2.72293
21
-2.3342
0
LINE
8
BLACK
6
CONTINUOUS
10
2.72293
20
-2.3342
11
2.71654
21
-2.33348
0
LINE
8
BLACK
6
CONTINUOUS
10
2.71654
20
-2.33348
11
2.71014
21
-2.3342
0
LINE
8
BLACK
6
CONTINUOUS
10
2.71014
20
-2.3342
11
2.70407
21
-2.33633
0
LINE
8
BLACK
6
CONTINUOUS
10
2.70407
20
-2.33633
11
2.69863
21
-2.33975
0
LINE
8
BLACK
6
CONTINUOUS
10
2.69863
20
-2.33975
11
2.69408
21
-2.3443
0
LINE
8
BLACK
6
CONTINUOUS
10
2.69408
20
-2.3443
11
2.69066
21
-2.34974
0
LINE
8
BLACK
6
CONTINUOUS
10
2.69066
20
-2.34974
11
2.68853
21
-2.35581
0
LINE
8
BLACK
6
CONTINUOUS
10
2.68853
20
-2.35581
11
2.68781
21
-2.3622
0
LINE
8
BLACK
6
CONTINUOUS
10
2.68781
20
-2.3622
11
2.68853
21
-2.3686
0
LINE
8
BLACK
6
CONTINUOUS
10
3.50906
20
-2.21949
11
3.50975
21
-2.21978
0
LINE
8
BLACK
6
CONTINUOUS
10
3.50975
20
-2.21978
11
3.51004
21
-2.22047
0
LINE
8
BLACK
6
CONTINUOUS
10
3.51004
20
-2.22047
11
3.51004
21
-2.22736
0
LINE
8
BLACK
6
CONTINUOUS
10
3.51004
20
-2.22736
11
3.51575
21
-2.22736
0
LINE
8
BLACK
6
CONTINUOUS
10
3.51575
20
-2.22736
11
3.51644
21
-2.22765
0
LINE
8
BLACK
6
CONTINUOUS
10
3.51644
20
-2.22765
11
3.51673
21
-2.22835
0
LINE
8
BLACK
6
CONTINUOUS
10
3.51673
20
-2.22835
11
3.51673
21
-2.27165
0
LINE
8
BLACK
6
CONTINUOUS
10
3.51673
20
-2.27165
11
3.51644
21
-2.27235
0
LINE
8
BLACK
6
CONTINUOUS
10
3.51644
20
-2.27235
11
3.51575
21
-2.27264
0
LINE
8
BLACK
6
CONTINUOUS
10
3.51575
20
-2.27264
11
3.51004
21
-2.27264
0
LINE
8
BLACK
6
CONTINUOUS
10
3.51004
20
-2.27264
11
3.51004
21
-2.27953
0
LINE
8
BLACK
6
CONTINUOUS
10
3.51004
20
-2.27953
11
3.50975
21
-2.28022
0
LINE
8
BLACK
6
CONTINUOUS
10
3.50975
20
-2.28022
11
3.50906
21
-2.28051
0
LINE
8
BLACK
6
CONTINUOUS
10
3.50906
20
-2.28051
11
3.48701
21
-2.28051
0
LINE
8
BLACK
6
CONTINUOUS
10
3.48701
20
-2.28051
11
3.48631
21
-2.28022
0
LINE
8
BLACK
6
CONTINUOUS
10
3.48631
20
-2.28022
11
3.48602
21
-2.27953
0
LINE
8
BLACK
6
CONTINUOUS
10
3.48602
20
-2.27953
11
3.48602
21
-2.27264
0
LINE
8
BLACK
6
CONTINUOUS
10
3.48602
20
-2.27264
11
3.48031
21
-2.27264
0
LINE
8
BLACK
6
CONTINUOUS
10
3.48031
20
-2.27264
11
3.47962
21
-2.27235
0
LINE
8
BLACK
6
CONTINUOUS
10
3.47962
20
-2.27235
11
3.47933
21
-2.27165
0
LINE
8
BLACK
6
CONTINUOUS
10
3.47933
20
-2.27165
11
3.47933
21
-2.22835
0
LINE
8
BLACK
6
CONTINUOUS
10
3.47933
20
-2.22835
11
3.47962
21
-2.22765
0
LINE
8
BLACK
6
CONTINUOUS
10
3.47962
20
-2.22765
11
3.48031
21
-2.22736
0
LINE
8
BLACK
6
CONTINUOUS
10
3.48031
20
-2.22736
11
3.48602
21
-2.22736
0
LINE
8
BLACK
6
CONTINUOUS
10
3.48602
20
-2.22736
11
3.48602
21
-2.22047
0
LINE
8
BLACK
6
CONTINUOUS
10
3.48602
20
-2.22047
11
3.48631
21
-2.21978
0
LINE
8
BLACK
6
CONTINUOUS
10
3.48631
20
-2.21978
11
3.48701
21
-2.21949
0
LINE
8
BLACK
6
CONTINUOUS
10
3.48701
20
-2.21949
11
3.50906
21
-2.21949
0
LINE
8
BLACK
6
CONTINUOUS
10
3.48799
20
-2.22146
11
3.48799
21
-2.22835
0
LINE
8
BLACK
6
CONTINUOUS
10
3.48799
20
-2.22835
11
3.4877
21
-2.22904
0
LINE
8
BLACK
6
CONTINUOUS
10
3.4877
20
-2.22904
11
3.48701
21
-2.22933
0
LINE
8
BLACK
6
CONTINUOUS
10
3.48701
20
-2.22933
11
3.4813
21
-2.22933
0
LINE
8
BLACK
6
CONTINUOUS
10
3.4813
20
-2.22933
11
3.4813
21
-2.27067
0
LINE
8
BLACK
6
CONTINUOUS
10
3.4813
20
-2.27067
11
3.48701
21
-2.27067
0
LINE
8
BLACK
6
CONTINUOUS
10
3.48701
20
-2.27067
11
3.4877
21
-2.27096
0
LINE
8
BLACK
6
CONTINUOUS
10
3.4877
20
-2.27096
11
3.48799
21
-2.27165
0
LINE
8
BLACK
6
CONTINUOUS
10
3.48799
20
-2.27165
11
3.48799
21
-2.27854
0
LINE
8
BLACK
6
CONTINUOUS
10
3.48799
20
-2.27854
11
3.50807
21
-2.27854
0
LINE
8
BLACK
6
CONTINUOUS
10
3.50807
20
-2.27854
11
3.50807
21
-2.27165
0
LINE
8
BLACK
6
CONTINUOUS
10
3.50807
20
-2.27165
11
3.50836
21
-2.27096
0
LINE
8
BLACK
6
CONTINUOUS
10
3.50836
20
-2.27096
11
3.50906
21
-2.27067
0
LINE
8
BLACK
6
CONTINUOUS
10
3.50906
20
-2.27067
11
3.51476
21
-2.27067
0
LINE
8
BLACK
6
CONTINUOUS
10
3.51476
20
-2.27067
11
3.51476
21
-2.22933
0
LINE
8
BLACK
6
CONTINUOUS
10
3.51476
20
-2.22933
11
3.50906
21
-2.22933
0
LINE
8
BLACK
6
CONTINUOUS
10
3.50906
20
-2.22933
11
3.50836
21
-2.22904
0
LINE
8
BLACK
6
CONTINUOUS
10
3.50836
20
-2.22904
11
3.50807
21
-2.22835
0
LINE
8
BLACK
6
CONTINUOUS
10
3.50807
20
-2.22835
11
3.50807
21
-2.22146
0
LINE
8
BLACK
6
CONTINUOUS
10
3.50807
20
-2.22146
11
3.48799
21
-2.22146
0
LINE
8
BLACK
6
CONTINUOUS
10
2.82883
20
-2.13041
11
2.89702
21
-2.16978
0
LINE
8
BLACK
6
CONTINUOUS
10
2.89702
20
-2.16978
11
2.89748
21
-2.17037
0
LINE
8
BLACK
6
CONTINUOUS
10
2.89748
20
-2.17037
11
2.89748
21
-2.17037
0
LINE
8
BLACK
6
CONTINUOUS
10
2.89748
20
-2.17037
11
2.89748
21
-2.17037
0
LINE
8
BLACK
6
CONTINUOUS
10
2.89748
20
-2.17037
11
2.89738
21
-2.17112
0
LINE
8
BLACK
6
CONTINUOUS
10
2.89738
20
-2.17112
11
2.85801
21
-2.23931
0
LINE
8
BLACK
6
CONTINUOUS
10
2.85801
20
-2.23931
11
2.85741
21
-2.23977
0
LINE
8
BLACK
6
CONTINUOUS
10
2.85741
20
-2.23977
11
2.85667
21
-2.23967
0
LINE
8
BLACK
6
CONTINUOUS
10
2.85667
20
-2.23967
11
2.85667
21
-2.23967
0
LINE
8
BLACK
6
CONTINUOUS
10
2.85667
20
-2.23967
11
2.85577
21
-2.23916
0
LINE
8
BLACK
6
CONTINUOUS
10
2.85577
20
-2.23916
11
2.83778
21
-2.27031
0
LINE
8
BLACK
6
CONTINUOUS
10
2.83778
20
-2.27031
11
2.83719
21
-2.27077
0
LINE
8
BLACK
6
CONTINUOUS
10
2.83719
20
-2.27077
11
2.83644
21
-2.27067
0
LINE
8
BLACK
6
CONTINUOUS
10
2.83644
20
-2.27067
11
2.77439
21
-2.23484
0
LINE
8
BLACK
6
CONTINUOUS
10
2.77439
20
-2.23484
11
2.77393
21
-2.23425
0
LINE
8
BLACK
6
CONTINUOUS
10
2.77393
20
-2.23425
11
2.77403
21
-2.2335
0
LINE
8
BLACK
6
CONTINUOUS
10
2.77403
20
-2.2335
11
2.79201
21
-2.20235
0
LINE
8
BLACK
6
CONTINUOUS
10
2.79201
20
-2.20235
11
2.78847
21
-2.2003
0
LINE
8
BLACK
6
CONTINUOUS
10
2.78847
20
-2.2003
11
2.78802
21
-2.1997
0
LINE
8
BLACK
6
CONTINUOUS
10
2.78802
20
-2.1997
11
2.78811
21
-2.19896
0
LINE
8
BLACK
6
CONTINUOUS
10
2.78811
20
-2.19896
11
2.82748
21
-2.13077
0
LINE
8
BLACK
6
CONTINUOUS
10
2.82748
20
-2.13077
11
2.82808
21
-2.13031
0
LINE
8
BLACK
6
CONTINUOUS
10
2.82808
20
-2.13031
11
2.82883
21
-2.13041
0
LINE
8
BLACK
6
CONTINUOUS
10
2.77622
20
-2.23363
11
2.83657
21
-2.26847
0
LINE
8
BLACK
6
CONTINUOUS
10
2.83657
20
-2.26847
11
2.8537
21
-2.23881
0
LINE
8
BLACK
6
CONTINUOUS
10
2.8537
20
-2.23881
11
2.79335
21
-2.20397
0
LINE
8
BLACK
6
CONTINUOUS
10
2.79335
20
-2.20397
11
2.77622
21
-2.23363
0
LINE
8
BLACK
6
CONTINUOUS
10
2.79031
20
-2.19909
11
2.8568
21
-2.23748
0
LINE
8
BLACK
6
CONTINUOUS
10
2.8568
20
-2.23748
11
2.89518
21
-2.17099
0
LINE
8
BLACK
6
CONTINUOUS
10
2.89518
20
-2.17099
11
2.8287
21
-2.1326
0
LINE
8
BLACK
6
CONTINUOUS
10
2.8287
20
-2.1326
11
2.79031
21
-2.19909
0
LINE
8
BLACK
6
CONTINUOUS
10
3.44802
20
-2.10174
11
3.46603
21
-2.13292
0
LINE
8
BLACK
6
CONTINUOUS
10
3.46603
20
-2.13292
11
3.47038
21
-2.13041
0
LINE
8
BLACK
6
CONTINUOUS
10
3.47038
20
-2.13041
11
3.47038
21
-2.13041
0
LINE
8
BLACK
6
CONTINUOUS
10
3.47038
20
-2.13041
11
3.47113
21
-2.13031
0
LINE
8
BLACK
6
CONTINUOUS
10
3.47113
20
-2.13031
11
3.47173
21
-2.13077
0
LINE
8
BLACK
6
CONTINUOUS
10
3.47173
20
-2.13077
11
3.5111
21
-2.19896
0
LINE
8
BLACK
6
CONTINUOUS
10
3.5111
20
-2.19896
11
3.5112
21
-2.1997
0
LINE
8
BLACK
6
CONTINUOUS
10
3.5112
20
-2.1997
11
3.51074
21
-2.2003
0
LINE
8
BLACK
6
CONTINUOUS
10
3.51074
20
-2.2003
11
3.44255
21
-2.23967
0
LINE
8
BLACK
6
CONTINUOUS
10
3.44255
20
-2.23967
11
3.4418
21
-2.23977
0
LINE
8
BLACK
6
CONTINUOUS
10
3.4418
20
-2.23977
11
3.4412
21
-2.23931
0
LINE
8
BLACK
6
CONTINUOUS
10
3.4412
20
-2.23931
11
3.40183
21
-2.17112
0
LINE
8
BLACK
6
CONTINUOUS
10
3.40183
20
-2.17112
11
3.40173
21
-2.17037
0
LINE
8
BLACK
6
CONTINUOUS
10
3.40173
20
-2.17037
11
3.40219
21
-2.16978
0
LINE
8
BLACK
6
CONTINUOUS
10
3.40219
20
-2.16978
11
3.40227
21
-2.16973
0
LINE
8
BLACK
6
CONTINUOUS
10
3.40227
20
-2.16973
11
3.38426
21
-2.13855
0
LINE
8
BLACK
6
CONTINUOUS
10
3.38426
20
-2.13855
11
3.38416
21
-2.1378
0
LINE
8
BLACK
6
CONTINUOUS
10
3.38416
20
-2.1378
11
3.38462
21
-2.1372
0
LINE
8
BLACK
6
CONTINUOUS
10
3.38462
20
-2.1372
11
3.44668
21
-2.10138
0
LINE
8
BLACK
6
CONTINUOUS
10
3.44668
20
-2.10138
11
3.44742
21
-2.10128
0
LINE
8
BLACK
6
CONTINUOUS
10
3.44742
20
-2.10128
11
3.44802
21
-2.10174
0
LINE
8
BLACK
6
CONTINUOUS
10
3.40403
20
-2.17099
11
3.44242
21
-2.23748
0
LINE
8
BLACK
6
CONTINUOUS
10
3.44242
20
-2.23748
11
3.5089
21
-2.19909
0
LINE
8
BLACK
6
CONTINUOUS
10
3.5089
20
-2.19909
11
3.47052
21
-2.1326
0
LINE
8
BLACK
6
CONTINUOUS
10
3.47052
20
-2.1326
11
3.40403
21
-2.17099
0
LINE
8
BLACK
6
CONTINUOUS
10
3.38646
20
-2.13842
11
3.40359
21
-2.16808
0
LINE
8
BLACK
6
CONTINUOUS
10
3.40359
20
-2.16808
11
3.46393
21
-2.13324
0
LINE
8
BLACK
6
CONTINUOUS
10
3.46393
20
-2.13324
11
3.44681
21
-2.10357
0
LINE
8
BLACK
6
CONTINUOUS
10
3.44681
20
-2.10357
11
3.38646
21
-2.13842
0
LINE
8
BLACK
6
CONTINUOUS
10
2.9877
20
-2.00107
11
3.02707
21
-2.06926
0
LINE
8
BLACK
6
CONTINUOUS
10
3.02707
20
-2.06926
11
3.02717
21
-2.07001
0
LINE
8
BLACK
6
CONTINUOUS
10
3.02717
20
-2.07001
11
3.02671
21
-2.07061
0
LINE
8
BLACK
6
CONTINUOUS
10
3.02671
20
-2.07061
11
2.95852
21
-2.10998
0
LINE
8
BLACK
6
CONTINUOUS
10
2.95852
20
-2.10998
11
2.95778
21
-2.11008
0
LINE
8
BLACK
6
CONTINUOUS
10
2.95778
20
-2.11008
11
2.95718
21
-2.10962
0
LINE
8
BLACK
6
CONTINUOUS
10
2.95718
20
-2.10962
11
2.95529
21
-2.10635
0
LINE
8
BLACK
6
CONTINUOUS
10
2.95529
20
-2.10635
11
2.95496
21
-2.10679
0
LINE
8
BLACK
6
CONTINUOUS
10
2.95496
20
-2.10679
11
2.95496
21
-2.10679
0
LINE
8
BLACK
6
CONTINUOUS
10
2.95496
20
-2.10679
11
2.92359
21
-2.1249
0
LINE
8
BLACK
6
CONTINUOUS
10
2.92359
20
-2.1249
11
2.92284
21
-2.125
0
LINE
8
BLACK
6
CONTINUOUS
10
2.92284
20
-2.125
11
2.92284
21
-2.125
0
LINE
8
BLACK
6
CONTINUOUS
10
2.92284
20
-2.125
11
2.92284
21
-2.125
0
LINE
8
BLACK
6
CONTINUOUS
10
2.92284
20
-2.125
11
2.92224
21
-2.12454
0
LINE
8
BLACK
6
CONTINUOUS
10
2.92224
20
-2.12454
11
2.88642
21
-2.06249
0
LINE
8
BLACK
6
CONTINUOUS
10
2.88642
20
-2.06249
11
2.88632
21
-2.06174
0
LINE
8
BLACK
6
CONTINUOUS
10
2.88632
20
-2.06174
11
2.88678
21
-2.06114
0
LINE
8
BLACK
6
CONTINUOUS
10
2.88678
20
-2.06114
11
2.91814
21
-2.04303
0
LINE
8
BLACK
6
CONTINUOUS
10
2.91814
20
-2.04303
11
2.91869
21
-2.04296
0
LINE
8
BLACK
6
CONTINUOUS
10
2.91869
20
-2.04296
11
2.91781
21
-2.04143
0
LINE
8
BLACK
6
CONTINUOUS
10
2.91781
20
-2.04143
11
2.91771
21
-2.04068
0
LINE
8
BLACK
6
CONTINUOUS
10
2.91771
20
-2.04068
11
2.91817
21
-2.04008
0
LINE
8
BLACK
6
CONTINUOUS
10
2.91817
20
-2.04008
11
2.98636
21
-2.00071
0
LINE
8
BLACK
6
CONTINUOUS
10
2.98636
20
-2.00071
11
2.98636
21
-2.00071
0
LINE
8
BLACK
6
CONTINUOUS
10
2.98636
20
-2.00071
11
2.98711
21
-2.00061
0
LINE
8
BLACK
6
CONTINUOUS
10
2.98711
20
-2.00061
11
2.9877
21
-2.00107
0
LINE
8
BLACK
6
CONTINUOUS
10
2.88861
20
-2.06235
11
2.92346
21
-2.1227
0
LINE
8
BLACK
6
CONTINUOUS
10
2.92346
20
-2.1227
11
2.95312
21
-2.10558
0
LINE
8
BLACK
6
CONTINUOUS
10
2.95312
20
-2.10558
11
2.91828
21
-2.04523
0
LINE
8
BLACK
6
CONTINUOUS
10
2.91828
20
-2.04523
11
2.88861
21
-2.06235
0
LINE
8
BLACK
6
CONTINUOUS
10
2.92
20
-2.0413
11
2.95839
21
-2.10778
0
LINE
8
BLACK
6
CONTINUOUS
10
2.95839
20
-2.10778
11
3.02488
21
-2.0694
0
LINE
8
BLACK
6
CONTINUOUS
10
3.02488
20
-2.0694
11
2.98649
21
-2.00291
0
LINE
8
BLACK
6
CONTINUOUS
10
2.98649
20
-2.00291
11
2.92
21
-2.0413
0
LINE
8
BLACK
6
CONTINUOUS
10
3.27831
20
-1.98662
11
3.30947
21
-2.00461
0
LINE
8
BLACK
6
CONTINUOUS
10
3.30947
20
-2.00461
11
3.31151
21
-2.00107
0
LINE
8
BLACK
6
CONTINUOUS
10
3.31151
20
-2.00107
11
3.31211
21
-2.00061
0
LINE
8
BLACK
6
CONTINUOUS
10
3.31211
20
-2.00061
11
3.31285
21
-2.00071
0
LINE
8
BLACK
6
CONTINUOUS
10
3.31285
20
-2.00071
11
3.38104
21
-2.04008
0
LINE
8
BLACK
6
CONTINUOUS
10
3.38104
20
-2.04008
11
3.3815
21
-2.04068
0
LINE
8
BLACK
6
CONTINUOUS
10
3.3815
20
-2.04068
11
3.3815
21
-2.04068
0
LINE
8
BLACK
6
CONTINUOUS
10
3.3815
20
-2.04068
11
3.3815
21
-2.04068
0
LINE
8
BLACK
6
CONTINUOUS
10
3.3815
20
-2.04068
11
3.3814
21
-2.04143
0
LINE
8
BLACK
6
CONTINUOUS
10
3.3814
20
-2.04143
11
3.34203
21
-2.10962
0
LINE
8
BLACK
6
CONTINUOUS
10
3.34203
20
-2.10962
11
3.34144
21
-2.11008
0
LINE
8
BLACK
6
CONTINUOUS
10
3.34144
20
-2.11008
11
3.34069
21
-2.10998
0
LINE
8
BLACK
6
CONTINUOUS
10
3.34069
20
-2.10998
11
3.34069
21
-2.10998
0
LINE
8
BLACK
6
CONTINUOUS
10
3.34069
20
-2.10998
11
3.2725
21
-2.07061
0
LINE
8
BLACK
6
CONTINUOUS
10
3.2725
20
-2.07061
11
3.27204
21
-2.07001
0
LINE
8
BLACK
6
CONTINUOUS
10
3.27204
20
-2.07001
11
3.27214
21
-2.06926
0
LINE
8
BLACK
6
CONTINUOUS
10
3.27214
20
-2.06926
11
3.27265
21
-2.06837
0
LINE
8
BLACK
6
CONTINUOUS
10
3.27265
20
-2.06837
11
3.2415
21
-2.05038
0
LINE
8
BLACK
6
CONTINUOUS
10
3.2415
20
-2.05038
11
3.24104
21
-2.04979
0
LINE
8
BLACK
6
CONTINUOUS
10
3.24104
20
-2.04979
11
3.24114
21
-2.04904
0
LINE
8
BLACK
6
CONTINUOUS
10
3.24114
20
-2.04904
11
3.27697
21
-1.98698
0
LINE
8
BLACK
6
CONTINUOUS
10
3.27697
20
-1.98698
11
3.27757
21
-1.98653
0
LINE
8
BLACK
6
CONTINUOUS
10
3.27757
20
-1.98653
11
3.27757
21
-1.98653
0
LINE
8
BLACK
6
CONTINUOUS
10
3.27757
20
-1.98653
11
3.27831
21
-1.98662
0
LINE
8
BLACK
6
CONTINUOUS
10
3.27434
20
-2.0694
11
3.34082
21
-2.10778
0
LINE
8
BLACK
6
CONTINUOUS
10
3.34082
20
-2.10778
11
3.37921
21
-2.0413
0
LINE
8
BLACK
6
CONTINUOUS
10
3.37921
20
-2.0413
11
3.31272
21
-2.00291
0
LINE
8
BLACK
6
CONTINUOUS
10
3.31272
20
-2.00291
11
3.27434
21
-2.0694
0
LINE
8
BLACK
6
CONTINUOUS
10
3.24334
20
-2.04917
11
3.273
21
-2.0663
0
LINE
8
BLACK
6
CONTINUOUS
10
3.273
20
-2.0663
11
3.30784
21
-2.00595
0
LINE
8
BLACK
6
CONTINUOUS
10
3.30784
20
-2.00595
11
3.27818
21
-1.98882
0
LINE
8
BLACK
6
CONTINUOUS
10
3.27818
20
-1.98882
11
3.24334
21
-2.04917
0
LINE
8
BLACK
6
CONTINUOUS
10
3.18898
20
-1.96752
11
3.18967
21
-1.96781
0
LINE
8
BLACK
6
CONTINUOUS
10
3.18967
20
-1.96781
11
3.18996
21
-1.9685
0
LINE
8
BLACK
6
CONTINUOUS
10
3.18996
20
-1.9685
11
3.18996
21
-2.04724
0
LINE
8
BLACK
6
CONTINUOUS
10
3.18996
20
-2.04724
11
3.18967
21
-2.04794
0
LINE
8
BLACK
6
CONTINUOUS
10
3.18967
20
-2.04794
11
3.18898
21
-2.04823
0
LINE
8
BLACK
6
CONTINUOUS
10
3.18898
20
-2.04823
11
3.11024
21
-2.04823
0
LINE
8
BLACK
6
CONTINUOUS
10
3.11024
20
-2.04823
11
3.10954
21
-2.04794
0
LINE
8
BLACK
6
CONTINUOUS
10
3.10954
20
-2.04794
11
3.10925
21
-2.04724
0
LINE
8
BLACK
6
CONTINUOUS
10
3.10925
20
-2.04724
11
3.10925
21
-2.0468
0
LINE
8
BLACK
6
CONTINUOUS
10
3.10925
20
-2.0468
11
3.10866
21
-2.04705
0
LINE
8
BLACK
6
CONTINUOUS
10
3.10866
20
-2.04705
11
3.07244
21
-2.04705
0
LINE
8
BLACK
6
CONTINUOUS
10
3.07244
20
-2.04705
11
3.07174
21
-2.04676
0
LINE
8
BLACK
6
CONTINUOUS
10
3.07174
20
-2.04676
11
3.07146
21
-2.04606
0
LINE
8
BLACK
6
CONTINUOUS
10
3.07146
20
-2.04606
11
3.07146
21
-1.97441
0
LINE
8
BLACK
6
CONTINUOUS
10
3.07146
20
-1.97441
11
3.07174
21
-1.97371
0
LINE
8
BLACK
6
CONTINUOUS
10
3.07174
20
-1.97371
11
3.07244
21
-1.97343
0
LINE
8
BLACK
6
CONTINUOUS
10
3.07244
20
-1.97343
11
3.10866
21
-1.97343
0
LINE
8
BLACK
6
CONTINUOUS
10
3.10866
20
-1.97343
11
3.10925
21
-1.97367
0
LINE
8
BLACK
6
CONTINUOUS
10
3.10925
20
-1.97367
11
3.10925
21
-1.9685
0
LINE
8
BLACK
6
CONTINUOUS
10
3.10925
20
-1.9685
11
3.10954
21
-1.96781
0
LINE
8
BLACK
6
CONTINUOUS
10
3.10954
20
-1.96781
11
3.11024
21
-1.96752
0
LINE
8
BLACK
6
CONTINUOUS
10
3.11024
20
-1.96752
11
3.18898
21
-1.96752
0
LINE
8
BLACK
6
CONTINUOUS
10
3.11122
20
-1.96949
11
3.11122
21
-2.04626
0
LINE
8
BLACK
6
CONTINUOUS
10
3.11122
20
-2.04626
11
3.18799
21
-2.04626
0
LINE
8
BLACK
6
CONTINUOUS
10
3.18799
20
-2.04626
11
3.18799
21
-1.96949
0
LINE
8
BLACK
6
CONTINUOUS
10
3.18799
20
-1.96949
11
3.11122
21
-1.96949
0
LINE
8
BLACK
6
CONTINUOUS
10
3.07343
20
-1.97539
11
3.07343
21
-2.04508
0
LINE
8
BLACK
6
CONTINUOUS
10
3.07343
20
-2.04508
11
3.10768
21
-2.04508
0
LINE
8
BLACK
6
CONTINUOUS
10
3.10768
20
-2.04508
11
3.10768
21
-1.97539
0
LINE
8
BLACK
6
CONTINUOUS
10
3.10768
20
-1.97539
11
3.07343
21
-1.97539
0
LINE
8
BLACK
6
CONTINUOUS
10
3.1564
20
-1.89939
11
3.16284
21
-1.90164
0
LINE
8
BLACK
6
CONTINUOUS
10
3.16284
20
-1.90164
11
3.16863
21
-1.90528
0
LINE
8
BLACK
6
CONTINUOUS
10
3.16863
20
-1.90528
11
3.17346
21
-1.91011
0
LINE
8
BLACK
6
CONTINUOUS
10
3.17346
20
-1.91011
11
3.1771
21
-1.9159
0
LINE
8
BLACK
6
CONTINUOUS
10
3.1771
20
-1.9159
11
3.17935
21
-1.92234
0
LINE
8
BLACK
6
CONTINUOUS
10
3.17935
20
-1.92234
11
3.18012
21
-1.92913
0
LINE
8
BLACK
6
CONTINUOUS
10
3.18012
20
-1.92913
11
3.17935
21
-1.93592
0
LINE
8
BLACK
6
CONTINUOUS
10
3.17935
20
-1.93592
11
3.1771
21
-1.94237
0
LINE
8
BLACK
6
CONTINUOUS
10
3.1771
20
-1.94237
11
3.17346
21
-1.94816
0
LINE
8
BLACK
6
CONTINUOUS
10
3.17346
20
-1.94816
11
3.16863
21
-1.95299
0
LINE
8
BLACK
6
CONTINUOUS
10
3.16863
20
-1.95299
11
3.16284
21
-1.95662
0
LINE
8
BLACK
6
CONTINUOUS
10
3.16284
20
-1.95662
11
3.1564
21
-1.95888
0
LINE
8
BLACK
6
CONTINUOUS
10
3.1564
20
-1.95888
11
3.14961
21
-1.95965
0
LINE
8
BLACK
6
CONTINUOUS
10
3.14961
20
-1.95965
11
3.14282
21
-1.95888
0
LINE
8
BLACK
6
CONTINUOUS
10
3.14282
20
-1.95888
11
3.13637
21
-1.95662
0
LINE
8
BLACK
6
CONTINUOUS
10
3.13637
20
-1.95662
11
3.13058
21
-1.95299
0
LINE
8
BLACK
6
CONTINUOUS
10
3.13058
20
-1.95299
11
3.12575
21
-1.94816
0
LINE
8
BLACK
6
CONTINUOUS
10
3.12575
20
-1.94816
11
3.12212
21
-1.94237
0
LINE
8
BLACK
6
CONTINUOUS
10
3.12212
20
-1.94237
11
3.11986
21
-1.93592
0
LINE
8
BLACK
6
CONTINUOUS
10
3.11986
20
-1.93592
11
3.11909
21
-1.92913
0
LINE
8
BLACK
6
CONTINUOUS
10
3.11909
20
-1.92913
11
3.11986
21
-1.92234
0
LINE
8
BLACK
6
CONTINUOUS
10
3.11986
20
-1.92234
11
3.12212
21
-1.9159
0
LINE
8
BLACK
6
CONTINUOUS
10
3.12212
20
-1.9159
11
3.12575
21
-1.91011
0
LINE
8
BLACK
6
CONTINUOUS
10
3.12575
20
-1.91011
11
3.13058
21
-1.90528
0
LINE
8
BLACK
6
CONTINUOUS
10
3.13058
20
-1.90528
11
3.13637
21
-1.90164
0
LINE
8
BLACK
6
CONTINUOUS
10
3.13637
20
-1.90164
11
3.14282
21
-1.89939
0
LINE
8
BLACK
6
CONTINUOUS
10
3.14282
20
-1.89939
11
3.14961
21
-1.89862
0
LINE
8
BLACK
6
CONTINUOUS
10
3.14961
20
-1.89862
11
3.1564
21
-1.89939
0
LINE
8
BLACK
6
CONTINUOUS
10
3.1216
20
-1.93553
11
3.12373
21
-1.9416
0
LINE
8
BLACK
6
CONTINUOUS
10
3.12373
20
-1.9416
11
3.12715
21
-1.94704
0
LINE
8
BLACK
6
CONTINUOUS
10
3.12715
20
-1.94704
11
3.1317
21
-1.95159
0
LINE
8
BLACK
6
CONTINUOUS
10
3.1317
20
-1.95159
11
3.13714
21
-1.95501
0
LINE
8
BLACK
6
CONTINUOUS
10
3.13714
20
-1.95501
11
3.14321
21
-1.95714
0
LINE
8
BLACK
6
CONTINUOUS
10
3.14321
20
-1.95714
11
3.14961
21
-1.95786
0
LINE
8
BLACK
6
CONTINUOUS
10
3.14961
20
-1.95786
11
3.156
21
-1.95714
0
LINE
8
BLACK
6
CONTINUOUS
10
3.156
20
-1.95714
11
3.16207
21
-1.95501
0
LINE
8
BLACK
6
CONTINUOUS
10
3.16207
20
-1.95501
11
3.16752
21
-1.95159
0
LINE
8
BLACK
6
CONTINUOUS
10
3.16752
20
-1.95159
11
3.17206
21
-1.94704
0
LINE
8
BLACK
6
CONTINUOUS
10
3.17206
20
-1.94704
11
3.17549
21
-1.9416
0
LINE
8
BLACK
6
CONTINUOUS
10
3.17549
20
-1.9416
11
3.17761
21
-1.93553
0
LINE
8
BLACK
6
CONTINUOUS
10
3.17761
20
-1.93553
11
3.17833
21
-1.92913
0
LINE
8
BLACK
6
CONTINUOUS
10
3.17833
20
-1.92913
11
3.17761
21
-1.92274
0
LINE
8
BLACK
6
CONTINUOUS
10
3.17761
20
-1.92274
11
3.17549
21
-1.91667
0
LINE
8
BLACK
6
CONTINUOUS
10
3.17549
20
-1.91667
11
3.17206
21
-1.91122
0
LINE
8
BLACK
6
CONTINUOUS
10
3.17206
20
-1.91122
11
3.16752
21
-1.90668
0
LINE
8
BLACK
6
CONTINUOUS
10
3.16752
20
-1.90668
11
3.16207
21
-1.90325
0
LINE
8
BLACK
6
CONTINUOUS
10
3.16207
20
-1.90325
11
3.156
21
-1.90113
0
LINE
8
BLACK
6
CONTINUOUS
10
3.156
20
-1.90113
11
3.14961
21
-1.90041
0
LINE
8
BLACK
6
CONTINUOUS
10
3.14961
20
-1.90041
11
3.14321
21
-1.90113
0
LINE
8
BLACK
6
CONTINUOUS
10
3.14321
20
-1.90113
11
3.13714
21
-1.90325
0
LINE
8
BLACK
6
CONTINUOUS
10
3.13714
20
-1.90325
11
3.1317
21
-1.90668
0
LINE
8
BLACK
6
CONTINUOUS
10
3.1317
20
-1.90668
11
3.12715
21
-1.91122
0
LINE
8
BLACK
6
CONTINUOUS
10
3.12715
20
-1.91122
11
3.12373
21
-1.91667
0
LINE
8
BLACK
6
CONTINUOUS
10
3.12373
20
-1.91667
11
3.1216
21
-1.92274
0
LINE
8
BLACK
6
CONTINUOUS
10
3.1216
20
-1.92274
11
3.12088
21
-1.92913
0
LINE
8
BLACK
6
CONTINUOUS
10
3.12088
20
-1.92913
11
3.1216
21
-1.93553
  0
ENDSEC
  0
EOF
