  0
SECTION
  2
HEADER
  9
$ANGBASE
  50
0.0
  9
$ANGDIR
  70
1
  9
$MEASUREMENT
  70
0
  0
ENDSEC
  0
SECTION
  2
TABLES
  0
TABLE
  2
LTYPE
  70
4
  0
LTYPE
  5
40F
  2
CONTINUOUS
  70
0
  3
Solid line
  72
65
  73
0
  40
0.0
  0
LTYPE
  5
410
  2
DASHDOT
 70
0
  3
Dash Dot ____ _ ____ _
 72
65
 73
4
 40
2.0
 49
1.25
 49
-0.25
 49
0.25
 49
-0.25
  0
LTYPE
  5
411
  2
DASHED
 70
0
  3
Dashed __ __ __ __ __
 72
65
 73
2
 40
0.75
 49
0.5
 49
-0.25
  0
LTYPE
  5
43B
  2
DOTTED
 70
0
  3
Dotted .  .  .  .
 72
65
 73
2
 40
0.2
 49
0.0
 49
-0.2
  0
ENDTAB
  0
TABLE
  2
STYLE
  70
4
  0
STYLE
  2
KICAD
  70
0
  40
0
  41
1
  42
1
  50
0
  71
0
  3
isocp.shx
  0
STYLE
  2
KICADB
  70
0
  40
0
  41
1
  42
1
  50
0
  71
0
  3
isocp.shx
  0
STYLE
  2
KICADI
  70
0
  40
0
  41
1
  42
1
  50
15
  71
0
  3
isocp.shx
  0
STYLE
  2
KICADBI
  70
0
  40
0
  41
1
  42
1
  50
15
  71
0
  3
isocp.shx
  0
ENDTAB
  0
TABLE
  2
LAYER
  70
1
  0
LAYER
  2
BLACK
  70
0
  62
7
  6
CONTINUOUS
  0
ENDTAB
  0
ENDSEC
  0
SECTION
  2
ENTITIES
0
LINE
8
BLACK
6
CONTINUOUS
10
3.15778
20
-2.77737
11
3.1625
21
-2.7804
0
LINE
8
BLACK
6
CONTINUOUS
10
3.1625
20
-2.7804
11
3.16617
21
-2.78463
0
LINE
8
BLACK
6
CONTINUOUS
10
3.16617
20
-2.78463
11
3.16849
21
-2.78973
0
LINE
8
BLACK
6
CONTINUOUS
10
3.16849
20
-2.78973
11
3.16929
21
-2.79528
0
LINE
8
BLACK
6
CONTINUOUS
10
3.16929
20
-2.79528
11
3.16849
21
-2.80082
0
LINE
8
BLACK
6
CONTINUOUS
10
3.16849
20
-2.80082
11
3.16617
21
-2.80592
0
LINE
8
BLACK
6
CONTINUOUS
10
3.16617
20
-2.80592
11
3.1625
21
-2.81015
0
LINE
8
BLACK
6
CONTINUOUS
10
3.1625
20
-2.81015
11
3.15778
21
-2.81318
0
LINE
8
BLACK
6
CONTINUOUS
10
3.15778
20
-2.81318
11
3.15241
21
-2.81476
0
LINE
8
BLACK
6
CONTINUOUS
10
3.15241
20
-2.81476
11
3.1468
21
-2.81476
0
LINE
8
BLACK
6
CONTINUOUS
10
3.1468
20
-2.81476
11
3.14143
21
-2.81318
0
LINE
8
BLACK
6
CONTINUOUS
10
3.14143
20
-2.81318
11
3.13672
21
-2.81015
0
LINE
8
BLACK
6
CONTINUOUS
10
3.13672
20
-2.81015
11
3.13305
21
-2.80592
0
LINE
8
BLACK
6
CONTINUOUS
10
3.13305
20
-2.80592
11
3.13072
21
-2.80082
0
LINE
8
BLACK
6
CONTINUOUS
10
3.13072
20
-2.80082
11
3.12992
21
-2.79528
0
LINE
8
BLACK
6
CONTINUOUS
10
3.12992
20
-2.79528
11
3.13072
21
-2.78973
0
LINE
8
BLACK
6
CONTINUOUS
10
3.13072
20
-2.78973
11
3.13305
21
-2.78463
0
LINE
8
BLACK
6
CONTINUOUS
10
3.13305
20
-2.78463
11
3.13672
21
-2.7804
0
LINE
8
BLACK
6
CONTINUOUS
10
3.13672
20
-2.7804
11
3.14143
21
-2.77737
0
LINE
8
BLACK
6
CONTINUOUS
10
3.14143
20
-2.77737
11
3.1468
21
-2.77579
0
LINE
8
BLACK
6
CONTINUOUS
10
3.1468
20
-2.77579
11
3.15241
21
-2.77579
0
LINE
8
BLACK
6
CONTINUOUS
10
3.15241
20
-2.77579
11
3.15778
21
-2.77737
0
LINE
8
BLACK
6
CONTINUOUS
10
3.21746
20
-2.72601
11
3.21925
21
-2.7272
0
LINE
8
BLACK
6
CONTINUOUS
10
3.21925
20
-2.7272
11
3.22045
21
-2.72899
0
LINE
8
BLACK
6
CONTINUOUS
10
3.22045
20
-2.72899
11
3.22087
21
-2.7311
0
LINE
8
BLACK
6
CONTINUOUS
10
3.22087
20
-2.7311
11
3.22087
21
-2.74213
0
LINE
8
BLACK
6
CONTINUOUS
10
3.22087
20
-2.74213
11
3.22045
21
-2.74424
0
LINE
8
BLACK
6
CONTINUOUS
10
3.22045
20
-2.74424
11
3.21925
21
-2.74602
0
LINE
8
BLACK
6
CONTINUOUS
10
3.21925
20
-2.74602
11
3.21746
21
-2.74722
0
LINE
8
BLACK
6
CONTINUOUS
10
3.21746
20
-2.74722
11
3.21535
21
-2.74764
0
LINE
8
BLACK
6
CONTINUOUS
10
3.21535
20
-2.74764
11
3.20197
21
-2.74764
0
LINE
8
BLACK
6
CONTINUOUS
10
3.20197
20
-2.74764
11
3.19986
21
-2.74722
0
LINE
8
BLACK
6
CONTINUOUS
10
3.19986
20
-2.74722
11
3.19807
21
-2.74602
0
LINE
8
BLACK
6
CONTINUOUS
10
3.19807
20
-2.74602
11
3.19688
21
-2.74424
0
LINE
8
BLACK
6
CONTINUOUS
10
3.19688
20
-2.74424
11
3.19646
21
-2.74213
0
LINE
8
BLACK
6
CONTINUOUS
10
3.19646
20
-2.74213
11
3.19646
21
-2.7311
0
LINE
8
BLACK
6
CONTINUOUS
10
3.19646
20
-2.7311
11
3.19688
21
-2.72899
0
LINE
8
BLACK
6
CONTINUOUS
10
3.19688
20
-2.72899
11
3.19807
21
-2.7272
0
LINE
8
BLACK
6
CONTINUOUS
10
3.19807
20
-2.7272
11
3.19986
21
-2.72601
0
LINE
8
BLACK
6
CONTINUOUS
10
3.19986
20
-2.72601
11
3.20197
21
-2.72559
0
LINE
8
BLACK
6
CONTINUOUS
10
3.20197
20
-2.72559
11
3.21535
21
-2.72559
0
LINE
8
BLACK
6
CONTINUOUS
10
3.21535
20
-2.72559
11
3.21746
21
-2.72601
0
LINE
8
BLACK
6
CONTINUOUS
10
3.14173
20
-2.74409
11
3.12205
21
-2.74409
0
LINE
8
BLACK
6
CONTINUOUS
10
3.12205
20
-2.74409
11
3.12205
21
-2.72441
0
LINE
8
BLACK
6
CONTINUOUS
10
3.12205
20
-2.72441
11
3.14173
21
-2.72441
0
LINE
8
BLACK
6
CONTINUOUS
10
3.14173
20
-2.72441
11
3.14173
21
-2.74409
0
LINE
8
BLACK
6
CONTINUOUS
10
3.17717
20
-2.74409
11
3.15748
21
-2.74409
0
LINE
8
BLACK
6
CONTINUOUS
10
3.15748
20
-2.74409
11
3.15748
21
-2.72441
0
LINE
8
BLACK
6
CONTINUOUS
10
3.15748
20
-2.72441
11
3.17717
21
-2.72441
0
LINE
8
BLACK
6
CONTINUOUS
10
3.17717
20
-2.72441
11
3.17717
21
-2.74409
0
LINE
8
BLACK
6
CONTINUOUS
10
3.01389
20
-2.70032
11
3.02548
21
-2.70702
0
LINE
8
BLACK
6
CONTINUOUS
10
3.02548
20
-2.70702
11
3.0271
21
-2.70843
0
LINE
8
BLACK
6
CONTINUOUS
10
3.0271
20
-2.70843
11
3.02805
21
-2.71036
0
LINE
8
BLACK
6
CONTINUOUS
10
3.02805
20
-2.71036
11
3.02819
21
-2.71251
0
LINE
8
BLACK
6
CONTINUOUS
10
3.02819
20
-2.71251
11
3.0275
21
-2.71455
0
LINE
8
BLACK
6
CONTINUOUS
10
3.0275
20
-2.71455
11
3.02199
21
-2.72409
0
LINE
8
BLACK
6
CONTINUOUS
10
3.02199
20
-2.72409
11
3.02057
21
-2.72571
0
LINE
8
BLACK
6
CONTINUOUS
10
3.02057
20
-2.72571
11
3.01864
21
-2.72666
0
LINE
8
BLACK
6
CONTINUOUS
10
3.01864
20
-2.72666
11
3.01649
21
-2.7268
0
LINE
8
BLACK
6
CONTINUOUS
10
3.01649
20
-2.7268
11
3.01446
21
-2.72611
0
LINE
8
BLACK
6
CONTINUOUS
10
3.01446
20
-2.72611
11
3.00287
21
-2.71942
0
LINE
8
BLACK
6
CONTINUOUS
10
3.00287
20
-2.71942
11
3.00125
21
-2.718
0
LINE
8
BLACK
6
CONTINUOUS
10
3.00125
20
-2.718
11
3.0003
21
-2.71607
0
LINE
8
BLACK
6
CONTINUOUS
10
3.0003
20
-2.71607
11
3.00016
21
-2.71392
0
LINE
8
BLACK
6
CONTINUOUS
10
3.00016
20
-2.71392
11
3.00085
21
-2.71189
0
LINE
8
BLACK
6
CONTINUOUS
10
3.00085
20
-2.71189
11
3.00636
21
-2.70234
0
LINE
8
BLACK
6
CONTINUOUS
10
3.00636
20
-2.70234
11
3.00778
21
-2.70072
0
LINE
8
BLACK
6
CONTINUOUS
10
3.00778
20
-2.70072
11
3.00971
21
-2.69977
0
LINE
8
BLACK
6
CONTINUOUS
10
3.00971
20
-2.69977
11
3.01185
21
-2.69963
0
LINE
8
BLACK
6
CONTINUOUS
10
3.01185
20
-2.69963
11
3.01389
21
-2.70032
0
LINE
8
BLACK
6
CONTINUOUS
10
3.21746
20
-2.68821
11
3.21925
21
-2.68941
0
LINE
8
BLACK
6
CONTINUOUS
10
3.21925
20
-2.68941
11
3.22045
21
-2.6912
0
LINE
8
BLACK
6
CONTINUOUS
10
3.22045
20
-2.6912
11
3.22087
21
-2.69331
0
LINE
8
BLACK
6
CONTINUOUS
10
3.22087
20
-2.69331
11
3.22087
21
-2.70433
0
LINE
8
BLACK
6
CONTINUOUS
10
3.22087
20
-2.70433
11
3.22045
21
-2.70644
0
LINE
8
BLACK
6
CONTINUOUS
10
3.22045
20
-2.70644
11
3.21925
21
-2.70823
0
LINE
8
BLACK
6
CONTINUOUS
10
3.21925
20
-2.70823
11
3.21746
21
-2.70942
0
LINE
8
BLACK
6
CONTINUOUS
10
3.21746
20
-2.70942
11
3.21535
21
-2.70984
0
LINE
8
BLACK
6
CONTINUOUS
10
3.21535
20
-2.70984
11
3.20197
21
-2.70984
0
LINE
8
BLACK
6
CONTINUOUS
10
3.20197
20
-2.70984
11
3.19986
21
-2.70942
0
LINE
8
BLACK
6
CONTINUOUS
10
3.19986
20
-2.70942
11
3.19807
21
-2.70823
0
LINE
8
BLACK
6
CONTINUOUS
10
3.19807
20
-2.70823
11
3.19688
21
-2.70644
0
LINE
8
BLACK
6
CONTINUOUS
10
3.19688
20
-2.70644
11
3.19646
21
-2.70433
0
LINE
8
BLACK
6
CONTINUOUS
10
3.19646
20
-2.70433
11
3.19646
21
-2.69331
0
LINE
8
BLACK
6
CONTINUOUS
10
3.19646
20
-2.69331
11
3.19688
21
-2.6912
0
LINE
8
BLACK
6
CONTINUOUS
10
3.19688
20
-2.6912
11
3.19807
21
-2.68941
0
LINE
8
BLACK
6
CONTINUOUS
10
3.19807
20
-2.68941
11
3.19986
21
-2.68821
0
LINE
8
BLACK
6
CONTINUOUS
10
3.19986
20
-2.68821
11
3.20197
21
-2.6878
0
LINE
8
BLACK
6
CONTINUOUS
10
3.20197
20
-2.6878
11
3.21535
21
-2.6878
0
LINE
8
BLACK
6
CONTINUOUS
10
3.21535
20
-2.6878
11
3.21746
21
-2.68821
0
LINE
8
BLACK
6
CONTINUOUS
10
3.14173
20
-2.70866
11
3.12205
21
-2.70866
0
LINE
8
BLACK
6
CONTINUOUS
10
3.12205
20
-2.70866
11
3.12205
21
-2.68898
0
LINE
8
BLACK
6
CONTINUOUS
10
3.12205
20
-2.68898
11
3.14173
21
-2.68898
0
LINE
8
BLACK
6
CONTINUOUS
10
3.14173
20
-2.68898
11
3.14173
21
-2.70866
0
LINE
8
BLACK
6
CONTINUOUS
10
3.17717
20
-2.70866
11
3.15748
21
-2.70866
0
LINE
8
BLACK
6
CONTINUOUS
10
3.15748
20
-2.70866
11
3.15748
21
-2.68898
0
LINE
8
BLACK
6
CONTINUOUS
10
3.15748
20
-2.68898
11
3.17717
21
-2.68898
0
LINE
8
BLACK
6
CONTINUOUS
10
3.17717
20
-2.68898
11
3.17717
21
-2.70866
0
LINE
8
BLACK
6
CONTINUOUS
10
2.99237
20
-2.68966
11
2.98253
21
-2.70671
0
LINE
8
BLACK
6
CONTINUOUS
10
2.98253
20
-2.70671
11
2.96548
21
-2.69687
0
LINE
8
BLACK
6
CONTINUOUS
10
2.96548
20
-2.69687
11
2.97532
21
-2.67982
0
LINE
8
BLACK
6
CONTINUOUS
10
2.97532
20
-2.67982
11
2.99237
21
-2.68966
0
LINE
8
BLACK
6
CONTINUOUS
10
3.33373
20
-2.69687
11
3.31668
21
-2.70671
0
LINE
8
BLACK
6
CONTINUOUS
10
3.31668
20
-2.70671
11
3.30684
21
-2.68966
0
LINE
8
BLACK
6
CONTINUOUS
10
3.30684
20
-2.68966
11
3.32389
21
-2.67982
0
LINE
8
BLACK
6
CONTINUOUS
10
3.32389
20
-2.67982
11
3.33373
21
-2.69687
0
LINE
8
BLACK
6
CONTINUOUS
10
3.03279
20
-2.66759
11
3.04438
21
-2.67428
0
LINE
8
BLACK
6
CONTINUOUS
10
3.04438
20
-2.67428
11
3.046
21
-2.6757
0
LINE
8
BLACK
6
CONTINUOUS
10
3.046
20
-2.6757
11
3.04695
21
-2.67763
0
LINE
8
BLACK
6
CONTINUOUS
10
3.04695
20
-2.67763
11
3.04709
21
-2.67978
0
LINE
8
BLACK
6
CONTINUOUS
10
3.04709
20
-2.67978
11
3.0464
21
-2.68181
0
LINE
8
BLACK
6
CONTINUOUS
10
3.0464
20
-2.68181
11
3.04088
21
-2.69136
0
LINE
8
BLACK
6
CONTINUOUS
10
3.04088
20
-2.69136
11
3.03947
21
-2.69298
0
LINE
8
BLACK
6
CONTINUOUS
10
3.03947
20
-2.69298
11
3.03754
21
-2.69393
0
LINE
8
BLACK
6
CONTINUOUS
10
3.03754
20
-2.69393
11
3.03539
21
-2.69407
0
LINE
8
BLACK
6
CONTINUOUS
10
3.03539
20
-2.69407
11
3.03336
21
-2.69338
0
LINE
8
BLACK
6
CONTINUOUS
10
3.03336
20
-2.69338
11
3.02176
21
-2.68668
0
LINE
8
BLACK
6
CONTINUOUS
10
3.02176
20
-2.68668
11
3.02015
21
-2.68527
0
LINE
8
BLACK
6
CONTINUOUS
10
3.02015
20
-2.68527
11
3.01919
21
-2.68334
0
LINE
8
BLACK
6
CONTINUOUS
10
3.01919
20
-2.68334
11
3.01905
21
-2.68119
0
LINE
8
BLACK
6
CONTINUOUS
10
3.01905
20
-2.68119
11
3.01975
21
-2.67916
0
LINE
8
BLACK
6
CONTINUOUS
10
3.01975
20
-2.67916
11
3.02526
21
-2.66961
0
LINE
8
BLACK
6
CONTINUOUS
10
3.02526
20
-2.66961
11
3.02668
21
-2.66799
0
LINE
8
BLACK
6
CONTINUOUS
10
3.02668
20
-2.66799
11
3.0286
21
-2.66704
0
LINE
8
BLACK
6
CONTINUOUS
10
3.0286
20
-2.66704
11
3.03075
21
-2.6669
0
LINE
8
BLACK
6
CONTINUOUS
10
3.03075
20
-2.6669
11
3.03279
21
-2.66759
0
LINE
8
BLACK
6
CONTINUOUS
10
2.96168
20
-2.67195
11
2.95184
21
-2.68899
0
LINE
8
BLACK
6
CONTINUOUS
10
2.95184
20
-2.68899
11
2.93479
21
-2.67915
0
LINE
8
BLACK
6
CONTINUOUS
10
2.93479
20
-2.67915
11
2.94464
21
-2.6621
0
LINE
8
BLACK
6
CONTINUOUS
10
2.94464
20
-2.6621
11
2.96168
21
-2.67195
0
LINE
8
BLACK
6
CONTINUOUS
10
3.36442
20
-2.67915
11
3.34737
21
-2.68899
0
LINE
8
BLACK
6
CONTINUOUS
10
3.34737
20
-2.68899
11
3.33753
21
-2.67195
0
LINE
8
BLACK
6
CONTINUOUS
10
3.33753
20
-2.67195
11
3.35458
21
-2.6621
0
LINE
8
BLACK
6
CONTINUOUS
10
3.35458
20
-2.6621
11
3.36442
21
-2.67915
0
LINE
8
BLACK
6
CONTINUOUS
10
3.01009
20
-2.65898
11
3.00024
21
-2.67602
0
LINE
8
BLACK
6
CONTINUOUS
10
3.00024
20
-2.67602
11
2.9832
21
-2.66618
0
LINE
8
BLACK
6
CONTINUOUS
10
2.9832
20
-2.66618
11
2.99304
21
-2.64913
0
LINE
8
BLACK
6
CONTINUOUS
10
2.99304
20
-2.64913
11
3.01009
21
-2.65898
0
LINE
8
BLACK
6
CONTINUOUS
10
3.31602
20
-2.66618
11
3.29897
21
-2.67602
0
LINE
8
BLACK
6
CONTINUOUS
10
3.29897
20
-2.67602
11
3.28913
21
-2.65898
0
LINE
8
BLACK
6
CONTINUOUS
10
3.28913
20
-2.65898
11
3.30617
21
-2.64913
0
LINE
8
BLACK
6
CONTINUOUS
10
3.30617
20
-2.64913
11
3.31602
21
-2.66618
0
LINE
8
BLACK
6
CONTINUOUS
10
3.39187
20
-2.64337
11
3.3938
21
-2.64432
0
LINE
8
BLACK
6
CONTINUOUS
10
3.3938
20
-2.64432
11
3.39522
21
-2.64593
0
LINE
8
BLACK
6
CONTINUOUS
10
3.39522
20
-2.64593
11
3.40073
21
-2.65548
0
LINE
8
BLACK
6
CONTINUOUS
10
3.40073
20
-2.65548
11
3.40142
21
-2.65752
0
LINE
8
BLACK
6
CONTINUOUS
10
3.40142
20
-2.65752
11
3.40128
21
-2.65966
0
LINE
8
BLACK
6
CONTINUOUS
10
3.40128
20
-2.65966
11
3.40033
21
-2.66159
0
LINE
8
BLACK
6
CONTINUOUS
10
3.40033
20
-2.66159
11
3.39871
21
-2.66301
0
LINE
8
BLACK
6
CONTINUOUS
10
3.39871
20
-2.66301
11
3.38712
21
-2.6697
0
LINE
8
BLACK
6
CONTINUOUS
10
3.38712
20
-2.6697
11
3.38508
21
-2.67039
0
LINE
8
BLACK
6
CONTINUOUS
10
3.38508
20
-2.67039
11
3.38293
21
-2.67025
0
LINE
8
BLACK
6
CONTINUOUS
10
3.38293
20
-2.67025
11
3.38101
21
-2.6693
0
LINE
8
BLACK
6
CONTINUOUS
10
3.38101
20
-2.6693
11
3.37959
21
-2.66769
0
LINE
8
BLACK
6
CONTINUOUS
10
3.37959
20
-2.66769
11
3.37408
21
-2.65814
0
LINE
8
BLACK
6
CONTINUOUS
10
3.37408
20
-2.65814
11
3.37338
21
-2.6561
0
LINE
8
BLACK
6
CONTINUOUS
10
3.37338
20
-2.6561
11
3.37353
21
-2.65396
0
LINE
8
BLACK
6
CONTINUOUS
10
3.37353
20
-2.65396
11
3.37448
21
-2.65203
0
LINE
8
BLACK
6
CONTINUOUS
10
3.37448
20
-2.65203
11
3.37609
21
-2.65061
0
LINE
8
BLACK
6
CONTINUOUS
10
3.37609
20
-2.65061
11
3.38769
21
-2.64392
0
LINE
8
BLACK
6
CONTINUOUS
10
3.38769
20
-2.64392
11
3.38972
21
-2.64322
0
LINE
8
BLACK
6
CONTINUOUS
10
3.38972
20
-2.64322
11
3.39187
21
-2.64337
0
LINE
8
BLACK
6
CONTINUOUS
10
2.9794
20
-2.64126
11
2.96956
21
-2.65831
0
LINE
8
BLACK
6
CONTINUOUS
10
2.96956
20
-2.65831
11
2.95251
21
-2.64847
0
LINE
8
BLACK
6
CONTINUOUS
10
2.95251
20
-2.64847
11
2.96235
21
-2.63142
0
LINE
8
BLACK
6
CONTINUOUS
10
2.96235
20
-2.63142
11
2.9794
21
-2.64126
0
LINE
8
BLACK
6
CONTINUOUS
10
3.3467
20
-2.64847
11
3.32965
21
-2.65831
0
LINE
8
BLACK
6
CONTINUOUS
10
3.32965
20
-2.65831
11
3.31981
21
-2.64126
0
LINE
8
BLACK
6
CONTINUOUS
10
3.31981
20
-2.64126
11
3.33686
21
-2.63142
0
LINE
8
BLACK
6
CONTINUOUS
10
3.33686
20
-2.63142
11
3.3467
21
-2.64847
0
LINE
8
BLACK
6
CONTINUOUS
10
3.37297
20
-2.61063
11
3.3749
21
-2.61159
0
LINE
8
BLACK
6
CONTINUOUS
10
3.3749
20
-2.61159
11
3.37632
21
-2.6132
0
LINE
8
BLACK
6
CONTINUOUS
10
3.37632
20
-2.6132
11
3.38183
21
-2.62275
0
LINE
8
BLACK
6
CONTINUOUS
10
3.38183
20
-2.62275
11
3.38252
21
-2.62479
0
LINE
8
BLACK
6
CONTINUOUS
10
3.38252
20
-2.62479
11
3.38238
21
-2.62693
0
LINE
8
BLACK
6
CONTINUOUS
10
3.38238
20
-2.62693
11
3.38143
21
-2.62886
0
LINE
8
BLACK
6
CONTINUOUS
10
3.38143
20
-2.62886
11
3.37981
21
-2.63028
0
LINE
8
BLACK
6
CONTINUOUS
10
3.37981
20
-2.63028
11
3.36822
21
-2.63697
0
LINE
8
BLACK
6
CONTINUOUS
10
3.36822
20
-2.63697
11
3.36618
21
-2.63766
0
LINE
8
BLACK
6
CONTINUOUS
10
3.36618
20
-2.63766
11
3.36404
21
-2.63752
0
LINE
8
BLACK
6
CONTINUOUS
10
3.36404
20
-2.63752
11
3.36211
21
-2.63657
0
LINE
8
BLACK
6
CONTINUOUS
10
3.36211
20
-2.63657
11
3.36069
21
-2.63495
0
LINE
8
BLACK
6
CONTINUOUS
10
3.36069
20
-2.63495
11
3.35518
21
-2.62541
0
LINE
8
BLACK
6
CONTINUOUS
10
3.35518
20
-2.62541
11
3.35449
21
-2.62337
0
LINE
8
BLACK
6
CONTINUOUS
10
3.35449
20
-2.62337
11
3.35463
21
-2.62122
0
LINE
8
BLACK
6
CONTINUOUS
10
3.35463
20
-2.62122
11
3.35558
21
-2.6193
0
LINE
8
BLACK
6
CONTINUOUS
10
3.35558
20
-2.6193
11
3.3572
21
-2.61788
0
LINE
8
BLACK
6
CONTINUOUS
10
3.3572
20
-2.61788
11
3.36879
21
-2.61118
0
LINE
8
BLACK
6
CONTINUOUS
10
3.36879
20
-2.61118
11
3.37082
21
-2.61049
0
LINE
8
BLACK
6
CONTINUOUS
10
3.37082
20
-2.61049
11
3.37297
21
-2.61063
0
LINE
8
BLACK
6
CONTINUOUS
10
2.8605
20
-2.58416
11
2.86243
21
-2.58511
0
LINE
8
BLACK
6
CONTINUOUS
10
2.86243
20
-2.58511
11
2.86385
21
-2.58672
0
LINE
8
BLACK
6
CONTINUOUS
10
2.86385
20
-2.58672
11
2.87054
21
-2.59832
0
LINE
8
BLACK
6
CONTINUOUS
10
2.87054
20
-2.59832
11
2.87123
21
-2.60035
0
LINE
8
BLACK
6
CONTINUOUS
10
2.87123
20
-2.60035
11
2.87109
21
-2.6025
0
LINE
8
BLACK
6
CONTINUOUS
10
2.87109
20
-2.6025
11
2.87014
21
-2.60443
0
LINE
8
BLACK
6
CONTINUOUS
10
2.87014
20
-2.60443
11
2.86853
21
-2.60585
0
LINE
8
BLACK
6
CONTINUOUS
10
2.86853
20
-2.60585
11
2.85898
21
-2.61136
0
LINE
8
BLACK
6
CONTINUOUS
10
2.85898
20
-2.61136
11
2.85694
21
-2.61205
0
LINE
8
BLACK
6
CONTINUOUS
10
2.85694
20
-2.61205
11
2.8548
21
-2.61191
0
LINE
8
BLACK
6
CONTINUOUS
10
2.8548
20
-2.61191
11
2.85287
21
-2.61096
0
LINE
8
BLACK
6
CONTINUOUS
10
2.85287
20
-2.61096
11
2.85145
21
-2.60934
0
LINE
8
BLACK
6
CONTINUOUS
10
2.85145
20
-2.60934
11
2.84476
21
-2.59775
0
LINE
8
BLACK
6
CONTINUOUS
10
2.84476
20
-2.59775
11
2.84407
21
-2.59571
0
LINE
8
BLACK
6
CONTINUOUS
10
2.84407
20
-2.59571
11
2.84421
21
-2.59356
0
LINE
8
BLACK
6
CONTINUOUS
10
2.84421
20
-2.59356
11
2.84516
21
-2.59164
0
LINE
8
BLACK
6
CONTINUOUS
10
2.84516
20
-2.59164
11
2.84677
21
-2.59022
0
LINE
8
BLACK
6
CONTINUOUS
10
2.84677
20
-2.59022
11
2.85632
21
-2.58471
0
LINE
8
BLACK
6
CONTINUOUS
10
2.85632
20
-2.58471
11
2.85836
21
-2.58401
0
LINE
8
BLACK
6
CONTINUOUS
10
2.85836
20
-2.58401
11
2.8605
21
-2.58416
0
LINE
8
BLACK
6
CONTINUOUS
10
2.89324
20
-2.56526
11
2.89516
21
-2.56621
0
LINE
8
BLACK
6
CONTINUOUS
10
2.89516
20
-2.56621
11
2.89658
21
-2.56783
0
LINE
8
BLACK
6
CONTINUOUS
10
2.89658
20
-2.56783
11
2.90327
21
-2.57942
0
LINE
8
BLACK
6
CONTINUOUS
10
2.90327
20
-2.57942
11
2.90397
21
-2.58145
0
LINE
8
BLACK
6
CONTINUOUS
10
2.90397
20
-2.58145
11
2.90383
21
-2.5836
0
LINE
8
BLACK
6
CONTINUOUS
10
2.90383
20
-2.5836
11
2.90287
21
-2.58553
0
LINE
8
BLACK
6
CONTINUOUS
10
2.90287
20
-2.58553
11
2.90126
21
-2.58695
0
LINE
8
BLACK
6
CONTINUOUS
10
2.90126
20
-2.58695
11
2.89171
21
-2.59246
0
LINE
8
BLACK
6
CONTINUOUS
10
2.89171
20
-2.59246
11
2.88967
21
-2.59315
0
LINE
8
BLACK
6
CONTINUOUS
10
2.88967
20
-2.59315
11
2.88753
21
-2.59301
0
LINE
8
BLACK
6
CONTINUOUS
10
2.88753
20
-2.59301
11
2.8856
21
-2.59206
0
LINE
8
BLACK
6
CONTINUOUS
10
2.8856
20
-2.59206
11
2.88418
21
-2.59044
0
LINE
8
BLACK
6
CONTINUOUS
10
2.88418
20
-2.59044
11
2.87749
21
-2.57885
0
LINE
8
BLACK
6
CONTINUOUS
10
2.87749
20
-2.57885
11
2.8768
21
-2.57681
0
LINE
8
BLACK
6
CONTINUOUS
10
2.8768
20
-2.57681
11
2.87694
21
-2.57467
0
LINE
8
BLACK
6
CONTINUOUS
10
2.87694
20
-2.57467
11
2.87789
21
-2.57274
0
LINE
8
BLACK
6
CONTINUOUS
10
2.87789
20
-2.57274
11
2.87951
21
-2.57132
0
LINE
8
BLACK
6
CONTINUOUS
10
2.87951
20
-2.57132
11
2.88905
21
-2.56581
0
LINE
8
BLACK
6
CONTINUOUS
10
2.88905
20
-2.56581
11
2.89109
21
-2.56512
0
LINE
8
BLACK
6
CONTINUOUS
10
2.89109
20
-2.56512
11
2.89324
21
-2.56526
0
LINE
8
BLACK
6
CONTINUOUS
10
2.84971
20
-2.56717
11
2.83266
21
-2.57702
0
LINE
8
BLACK
6
CONTINUOUS
10
2.83266
20
-2.57702
11
2.82282
21
-2.55997
0
LINE
8
BLACK
6
CONTINUOUS
10
2.82282
20
-2.55997
11
2.83986
21
-2.55013
0
LINE
8
BLACK
6
CONTINUOUS
10
2.83986
20
-2.55013
11
2.84971
21
-2.56717
0
LINE
8
BLACK
6
CONTINUOUS
10
3.4764
20
-2.55997
11
3.46655
21
-2.57702
0
LINE
8
BLACK
6
CONTINUOUS
10
3.46655
20
-2.57702
11
3.44951
21
-2.56717
0
LINE
8
BLACK
6
CONTINUOUS
10
3.44951
20
-2.56717
11
3.45935
21
-2.55013
0
LINE
8
BLACK
6
CONTINUOUS
10
3.45935
20
-2.55013
11
3.4764
21
-2.55997
0
LINE
8
BLACK
6
CONTINUOUS
10
2.88039
20
-2.54946
11
2.86335
21
-2.5593
0
LINE
8
BLACK
6
CONTINUOUS
10
2.86335
20
-2.5593
11
2.8535
21
-2.54225
0
LINE
8
BLACK
6
CONTINUOUS
10
2.8535
20
-2.54225
11
2.87055
21
-2.53241
0
LINE
8
BLACK
6
CONTINUOUS
10
2.87055
20
-2.53241
11
2.88039
21
-2.54946
0
LINE
8
BLACK
6
CONTINUOUS
10
3.44571
20
-2.54225
11
3.43587
21
-2.5593
0
LINE
8
BLACK
6
CONTINUOUS
10
3.43587
20
-2.5593
11
3.41882
21
-2.54946
0
LINE
8
BLACK
6
CONTINUOUS
10
3.41882
20
-2.54946
11
3.42866
21
-2.53241
0
LINE
8
BLACK
6
CONTINUOUS
10
3.42866
20
-2.53241
11
3.44571
21
-2.54225
0
LINE
8
BLACK
6
CONTINUOUS
10
2.83199
20
-2.53649
11
2.81494
21
-2.54633
0
LINE
8
BLACK
6
CONTINUOUS
10
2.81494
20
-2.54633
11
2.8051
21
-2.52928
0
LINE
8
BLACK
6
CONTINUOUS
10
2.8051
20
-2.52928
11
2.82215
21
-2.51944
0
LINE
8
BLACK
6
CONTINUOUS
10
2.82215
20
-2.51944
11
2.83199
21
-2.53649
0
LINE
8
BLACK
6
CONTINUOUS
10
3.49411
20
-2.52928
11
3.48427
21
-2.54633
0
LINE
8
BLACK
6
CONTINUOUS
10
3.48427
20
-2.54633
11
3.46722
21
-2.53649
0
LINE
8
BLACK
6
CONTINUOUS
10
3.46722
20
-2.53649
11
3.47706
21
-2.51944
0
LINE
8
BLACK
6
CONTINUOUS
10
3.47706
20
-2.51944
11
3.49411
21
-2.52928
0
LINE
8
BLACK
6
CONTINUOUS
10
2.86268
20
-2.51877
11
2.84563
21
-2.52861
0
LINE
8
BLACK
6
CONTINUOUS
10
2.84563
20
-2.52861
11
2.83579
21
-2.51157
0
LINE
8
BLACK
6
CONTINUOUS
10
2.83579
20
-2.51157
11
2.85283
21
-2.50172
0
LINE
8
BLACK
6
CONTINUOUS
10
2.85283
20
-2.50172
11
2.86268
21
-2.51877
0
LINE
8
BLACK
6
CONTINUOUS
10
3.46343
20
-2.51157
11
3.45358
21
-2.52861
0
LINE
8
BLACK
6
CONTINUOUS
10
3.45358
20
-2.52861
11
3.43654
21
-2.51877
0
LINE
8
BLACK
6
CONTINUOUS
10
3.43654
20
-2.51877
11
3.44638
21
-2.50172
0
LINE
8
BLACK
6
CONTINUOUS
10
3.44638
20
-2.50172
11
3.46343
21
-2.51157
0
LINE
8
BLACK
6
CONTINUOUS
10
3.50392
20
-2.48628
11
3.51346
21
-2.49179
0
LINE
8
BLACK
6
CONTINUOUS
10
3.51346
20
-2.49179
11
3.51508
21
-2.49321
0
LINE
8
BLACK
6
CONTINUOUS
10
3.51508
20
-2.49321
11
3.51603
21
-2.49514
0
LINE
8
BLACK
6
CONTINUOUS
10
3.51603
20
-2.49514
11
3.51617
21
-2.49729
0
LINE
8
BLACK
6
CONTINUOUS
10
3.51617
20
-2.49729
11
3.51548
21
-2.49932
0
LINE
8
BLACK
6
CONTINUOUS
10
3.51548
20
-2.49932
11
3.50879
21
-2.51091
0
LINE
8
BLACK
6
CONTINUOUS
10
3.50879
20
-2.51091
11
3.50737
21
-2.51253
0
LINE
8
BLACK
6
CONTINUOUS
10
3.50737
20
-2.51253
11
3.50544
21
-2.51348
0
LINE
8
BLACK
6
CONTINUOUS
10
3.50544
20
-2.51348
11
3.50329
21
-2.51362
0
LINE
8
BLACK
6
CONTINUOUS
10
3.50329
20
-2.51362
11
3.50126
21
-2.51293
0
LINE
8
BLACK
6
CONTINUOUS
10
3.50126
20
-2.51293
11
3.49171
21
-2.50742
0
LINE
8
BLACK
6
CONTINUOUS
10
3.49171
20
-2.50742
11
3.49009
21
-2.506
0
LINE
8
BLACK
6
CONTINUOUS
10
3.49009
20
-2.506
11
3.48914
21
-2.50407
0
LINE
8
BLACK
6
CONTINUOUS
10
3.48914
20
-2.50407
11
3.489
21
-2.50193
0
LINE
8
BLACK
6
CONTINUOUS
10
3.489
20
-2.50193
11
3.48969
21
-2.49989
0
LINE
8
BLACK
6
CONTINUOUS
10
3.48969
20
-2.49989
11
3.49639
21
-2.4883
0
LINE
8
BLACK
6
CONTINUOUS
10
3.49639
20
-2.4883
11
3.4978
21
-2.48668
0
LINE
8
BLACK
6
CONTINUOUS
10
3.4978
20
-2.48668
11
3.49973
21
-2.48573
0
LINE
8
BLACK
6
CONTINUOUS
10
3.49973
20
-2.48573
11
3.50188
21
-2.48559
0
LINE
8
BLACK
6
CONTINUOUS
10
3.50188
20
-2.48559
11
3.50392
21
-2.48628
0
LINE
8
BLACK
6
CONTINUOUS
10
3.47118
20
-2.46738
11
3.48073
21
-2.47289
0
LINE
8
BLACK
6
CONTINUOUS
10
3.48073
20
-2.47289
11
3.48235
21
-2.47431
0
LINE
8
BLACK
6
CONTINUOUS
10
3.48235
20
-2.47431
11
3.4833
21
-2.47624
0
LINE
8
BLACK
6
CONTINUOUS
10
3.4833
20
-2.47624
11
3.48344
21
-2.47839
0
LINE
8
BLACK
6
CONTINUOUS
10
3.48344
20
-2.47839
11
3.48275
21
-2.48042
0
LINE
8
BLACK
6
CONTINUOUS
10
3.48275
20
-2.48042
11
3.47605
21
-2.49202
0
LINE
8
BLACK
6
CONTINUOUS
10
3.47605
20
-2.49202
11
3.47464
21
-2.49363
0
LINE
8
BLACK
6
CONTINUOUS
10
3.47464
20
-2.49363
11
3.47271
21
-2.49458
0
LINE
8
BLACK
6
CONTINUOUS
10
3.47271
20
-2.49458
11
3.47056
21
-2.49473
0
LINE
8
BLACK
6
CONTINUOUS
10
3.47056
20
-2.49473
11
3.46853
21
-2.49403
0
LINE
8
BLACK
6
CONTINUOUS
10
3.46853
20
-2.49403
11
3.45898
21
-2.48852
0
LINE
8
BLACK
6
CONTINUOUS
10
3.45898
20
-2.48852
11
3.45736
21
-2.4871
0
LINE
8
BLACK
6
CONTINUOUS
10
3.45736
20
-2.4871
11
3.45641
21
-2.48518
0
LINE
8
BLACK
6
CONTINUOUS
10
3.45641
20
-2.48518
11
3.45627
21
-2.48303
0
LINE
8
BLACK
6
CONTINUOUS
10
3.45627
20
-2.48303
11
3.45696
21
-2.48099
0
LINE
8
BLACK
6
CONTINUOUS
10
3.45696
20
-2.48099
11
3.46365
21
-2.4694
0
LINE
8
BLACK
6
CONTINUOUS
10
3.46365
20
-2.4694
11
3.46507
21
-2.46778
0
LINE
8
BLACK
6
CONTINUOUS
10
3.46507
20
-2.46778
11
3.467
21
-2.46683
0
LINE
8
BLACK
6
CONTINUOUS
10
3.467
20
-2.46683
11
3.46915
21
-2.46669
0
LINE
8
BLACK
6
CONTINUOUS
10
3.46915
20
-2.46669
11
3.47118
21
-2.46738
0
LINE
8
BLACK
6
CONTINUOUS
10
3.48766
20
-2.41497
11
3.48939
21
-2.41612
0
LINE
8
BLACK
6
CONTINUOUS
10
3.48939
20
-2.41612
11
3.49054
21
-2.41785
0
LINE
8
BLACK
6
CONTINUOUS
10
3.49054
20
-2.41785
11
3.49094
21
-2.41988
0
LINE
8
BLACK
6
CONTINUOUS
10
3.49094
20
-2.41988
11
3.49094
21
-2.43445
0
LINE
8
BLACK
6
CONTINUOUS
10
3.49094
20
-2.43445
11
3.49054
21
-2.43648
0
LINE
8
BLACK
6
CONTINUOUS
10
3.49054
20
-2.43648
11
3.48939
21
-2.43821
0
LINE
8
BLACK
6
CONTINUOUS
10
3.48939
20
-2.43821
11
3.48766
21
-2.43936
0
LINE
8
BLACK
6
CONTINUOUS
10
3.48766
20
-2.43936
11
3.48563
21
-2.43976
0
LINE
8
BLACK
6
CONTINUOUS
10
3.48563
20
-2.43976
11
3.475
21
-2.43976
0
LINE
8
BLACK
6
CONTINUOUS
10
3.475
20
-2.43976
11
3.47297
21
-2.43936
0
LINE
8
BLACK
6
CONTINUOUS
10
3.47297
20
-2.43936
11
3.47124
21
-2.43821
0
LINE
8
BLACK
6
CONTINUOUS
10
3.47124
20
-2.43821
11
3.47009
21
-2.43648
0
LINE
8
BLACK
6
CONTINUOUS
10
3.47009
20
-2.43648
11
3.46969
21
-2.43445
0
LINE
8
BLACK
6
CONTINUOUS
10
3.46969
20
-2.43445
11
3.46969
21
-2.41988
0
LINE
8
BLACK
6
CONTINUOUS
10
3.46969
20
-2.41988
11
3.47009
21
-2.41785
0
LINE
8
BLACK
6
CONTINUOUS
10
3.47009
20
-2.41785
11
3.47124
21
-2.41612
0
LINE
8
BLACK
6
CONTINUOUS
10
3.47124
20
-2.41612
11
3.47297
21
-2.41497
0
LINE
8
BLACK
6
CONTINUOUS
10
3.47297
20
-2.41497
11
3.475
21
-2.41457
0
LINE
8
BLACK
6
CONTINUOUS
10
3.475
20
-2.41457
11
3.48563
21
-2.41457
0
LINE
8
BLACK
6
CONTINUOUS
10
3.48563
20
-2.41457
11
3.48766
21
-2.41497
0
LINE
8
BLACK
6
CONTINUOUS
10
3.52782
20
-2.41497
11
3.52955
21
-2.41612
0
LINE
8
BLACK
6
CONTINUOUS
10
3.52955
20
-2.41612
11
3.5307
21
-2.41785
0
LINE
8
BLACK
6
CONTINUOUS
10
3.5307
20
-2.41785
11
3.5311
21
-2.41988
0
LINE
8
BLACK
6
CONTINUOUS
10
3.5311
20
-2.41988
11
3.5311
21
-2.43445
0
LINE
8
BLACK
6
CONTINUOUS
10
3.5311
20
-2.43445
11
3.5307
21
-2.43648
0
LINE
8
BLACK
6
CONTINUOUS
10
3.5307
20
-2.43648
11
3.52955
21
-2.43821
0
LINE
8
BLACK
6
CONTINUOUS
10
3.52955
20
-2.43821
11
3.52782
21
-2.43936
0
LINE
8
BLACK
6
CONTINUOUS
10
3.52782
20
-2.43936
11
3.52579
21
-2.43976
0
LINE
8
BLACK
6
CONTINUOUS
10
3.52579
20
-2.43976
11
3.51516
21
-2.43976
0
LINE
8
BLACK
6
CONTINUOUS
10
3.51516
20
-2.43976
11
3.51312
21
-2.43936
0
LINE
8
BLACK
6
CONTINUOUS
10
3.51312
20
-2.43936
11
3.5114
21
-2.43821
0
LINE
8
BLACK
6
CONTINUOUS
10
3.5114
20
-2.43821
11
3.51025
21
-2.43648
0
LINE
8
BLACK
6
CONTINUOUS
10
3.51025
20
-2.43648
11
3.50984
21
-2.43445
0
LINE
8
BLACK
6
CONTINUOUS
10
3.50984
20
-2.43445
11
3.50984
21
-2.41988
0
LINE
8
BLACK
6
CONTINUOUS
10
3.50984
20
-2.41988
11
3.51025
21
-2.41785
0
LINE
8
BLACK
6
CONTINUOUS
10
3.51025
20
-2.41785
11
3.5114
21
-2.41612
0
LINE
8
BLACK
6
CONTINUOUS
10
3.5114
20
-2.41612
11
3.51312
21
-2.41497
0
LINE
8
BLACK
6
CONTINUOUS
10
3.51312
20
-2.41497
11
3.51516
21
-2.41457
0
LINE
8
BLACK
6
CONTINUOUS
10
3.51516
20
-2.41457
11
3.52579
21
-2.41457
0
LINE
8
BLACK
6
CONTINUOUS
10
3.52579
20
-2.41457
11
3.52782
21
-2.41497
0
LINE
8
BLACK
6
CONTINUOUS
10
2.784
20
-2.40947
11
2.78579
21
-2.41067
0
LINE
8
BLACK
6
CONTINUOUS
10
2.78579
20
-2.41067
11
2.78698
21
-2.41246
0
LINE
8
BLACK
6
CONTINUOUS
10
2.78698
20
-2.41246
11
2.7874
21
-2.41457
0
LINE
8
BLACK
6
CONTINUOUS
10
2.7874
20
-2.41457
11
2.7874
21
-2.42795
0
LINE
8
BLACK
6
CONTINUOUS
10
2.7874
20
-2.42795
11
2.78698
21
-2.43006
0
LINE
8
BLACK
6
CONTINUOUS
10
2.78698
20
-2.43006
11
2.78579
21
-2.43185
0
LINE
8
BLACK
6
CONTINUOUS
10
2.78579
20
-2.43185
11
2.784
21
-2.43304
0
LINE
8
BLACK
6
CONTINUOUS
10
2.784
20
-2.43304
11
2.78189
21
-2.43346
0
LINE
8
BLACK
6
CONTINUOUS
10
2.78189
20
-2.43346
11
2.77087
21
-2.43346
0
LINE
8
BLACK
6
CONTINUOUS
10
2.77087
20
-2.43346
11
2.76876
21
-2.43304
0
LINE
8
BLACK
6
CONTINUOUS
10
2.76876
20
-2.43304
11
2.76697
21
-2.43185
0
LINE
8
BLACK
6
CONTINUOUS
10
2.76697
20
-2.43185
11
2.76577
21
-2.43006
0
LINE
8
BLACK
6
CONTINUOUS
10
2.76577
20
-2.43006
11
2.76535
21
-2.42795
0
LINE
8
BLACK
6
CONTINUOUS
10
2.76535
20
-2.42795
11
2.76535
21
-2.41457
0
LINE
8
BLACK
6
CONTINUOUS
10
2.76535
20
-2.41457
11
2.76577
21
-2.41246
0
LINE
8
BLACK
6
CONTINUOUS
10
2.76577
20
-2.41246
11
2.76697
21
-2.41067
0
LINE
8
BLACK
6
CONTINUOUS
10
2.76697
20
-2.41067
11
2.76876
21
-2.40947
0
LINE
8
BLACK
6
CONTINUOUS
10
2.76876
20
-2.40947
11
2.77087
21
-2.40906
0
LINE
8
BLACK
6
CONTINUOUS
10
2.77087
20
-2.40906
11
2.78189
21
-2.40906
0
LINE
8
BLACK
6
CONTINUOUS
10
2.78189
20
-2.40906
11
2.784
21
-2.40947
0
LINE
8
BLACK
6
CONTINUOUS
10
2.82179
20
-2.40947
11
2.82358
21
-2.41067
0
LINE
8
BLACK
6
CONTINUOUS
10
2.82358
20
-2.41067
11
2.82478
21
-2.41246
0
LINE
8
BLACK
6
CONTINUOUS
10
2.82478
20
-2.41246
11
2.8252
21
-2.41457
0
LINE
8
BLACK
6
CONTINUOUS
10
2.8252
20
-2.41457
11
2.8252
21
-2.42795
0
LINE
8
BLACK
6
CONTINUOUS
10
2.8252
20
-2.42795
11
2.82478
21
-2.43006
0
LINE
8
BLACK
6
CONTINUOUS
10
2.82478
20
-2.43006
11
2.82358
21
-2.43185
0
LINE
8
BLACK
6
CONTINUOUS
10
2.82358
20
-2.43185
11
2.82179
21
-2.43304
0
LINE
8
BLACK
6
CONTINUOUS
10
2.82179
20
-2.43304
11
2.81969
21
-2.43346
0
LINE
8
BLACK
6
CONTINUOUS
10
2.81969
20
-2.43346
11
2.80866
21
-2.43346
0
LINE
8
BLACK
6
CONTINUOUS
10
2.80866
20
-2.43346
11
2.80655
21
-2.43304
0
LINE
8
BLACK
6
CONTINUOUS
10
2.80655
20
-2.43304
11
2.80476
21
-2.43185
0
LINE
8
BLACK
6
CONTINUOUS
10
2.80476
20
-2.43185
11
2.80357
21
-2.43006
0
LINE
8
BLACK
6
CONTINUOUS
10
2.80357
20
-2.43006
11
2.80315
21
-2.42795
0
LINE
8
BLACK
6
CONTINUOUS
10
2.80315
20
-2.42795
11
2.80315
21
-2.41457
0
LINE
8
BLACK
6
CONTINUOUS
10
2.80315
20
-2.41457
11
2.80357
21
-2.41246
0
LINE
8
BLACK
6
CONTINUOUS
10
2.80357
20
-2.41246
11
2.80476
21
-2.41067
0
LINE
8
BLACK
6
CONTINUOUS
10
2.80476
20
-2.41067
11
2.80655
21
-2.40947
0
LINE
8
BLACK
6
CONTINUOUS
10
2.80655
20
-2.40947
11
2.80866
21
-2.40906
0
LINE
8
BLACK
6
CONTINUOUS
10
2.80866
20
-2.40906
11
2.81969
21
-2.40906
0
LINE
8
BLACK
6
CONTINUOUS
10
2.81969
20
-2.40906
11
2.82179
21
-2.40947
0
LINE
8
BLACK
6
CONTINUOUS
10
2.7874
20
-2.38976
11
2.76772
21
-2.38976
0
LINE
8
BLACK
6
CONTINUOUS
10
2.76772
20
-2.38976
11
2.76772
21
-2.37008
0
LINE
8
BLACK
6
CONTINUOUS
10
2.76772
20
-2.37008
11
2.7874
21
-2.37008
0
LINE
8
BLACK
6
CONTINUOUS
10
2.7874
20
-2.37008
11
2.7874
21
-2.38976
0
LINE
8
BLACK
6
CONTINUOUS
10
2.82283
20
-2.38976
11
2.80315
21
-2.38976
0
LINE
8
BLACK
6
CONTINUOUS
10
2.80315
20
-2.38976
11
2.80315
21
-2.37008
0
LINE
8
BLACK
6
CONTINUOUS
10
2.80315
20
-2.37008
11
2.82283
21
-2.37008
0
LINE
8
BLACK
6
CONTINUOUS
10
2.82283
20
-2.37008
11
2.82283
21
-2.38976
0
LINE
8
BLACK
6
CONTINUOUS
10
3.49606
20
-2.38976
11
3.47638
21
-2.38976
0
LINE
8
BLACK
6
CONTINUOUS
10
3.47638
20
-2.38976
11
3.47638
21
-2.37008
0
LINE
8
BLACK
6
CONTINUOUS
10
3.47638
20
-2.37008
11
3.49606
21
-2.37008
0
LINE
8
BLACK
6
CONTINUOUS
10
3.49606
20
-2.37008
11
3.49606
21
-2.38976
0
LINE
8
BLACK
6
CONTINUOUS
10
3.5315
20
-2.38976
11
3.51181
21
-2.38976
0
LINE
8
BLACK
6
CONTINUOUS
10
3.51181
20
-2.38976
11
3.51181
21
-2.37008
0
LINE
8
BLACK
6
CONTINUOUS
10
3.51181
20
-2.37008
11
3.5315
21
-2.37008
0
LINE
8
BLACK
6
CONTINUOUS
10
3.5315
20
-2.37008
11
3.5315
21
-2.38976
0
LINE
8
BLACK
6
CONTINUOUS
10
2.7874
20
-2.35433
11
2.76772
21
-2.35433
0
LINE
8
BLACK
6
CONTINUOUS
10
2.76772
20
-2.35433
11
2.76772
21
-2.33465
0
LINE
8
BLACK
6
CONTINUOUS
10
2.76772
20
-2.33465
11
2.7874
21
-2.33465
0
LINE
8
BLACK
6
CONTINUOUS
10
2.7874
20
-2.33465
11
2.7874
21
-2.35433
0
LINE
8
BLACK
6
CONTINUOUS
10
2.82283
20
-2.35433
11
2.80315
21
-2.35433
0
LINE
8
BLACK
6
CONTINUOUS
10
2.80315
20
-2.35433
11
2.80315
21
-2.33465
0
LINE
8
BLACK
6
CONTINUOUS
10
2.80315
20
-2.33465
11
2.82283
21
-2.33465
0
LINE
8
BLACK
6
CONTINUOUS
10
2.82283
20
-2.33465
11
2.82283
21
-2.35433
0
LINE
8
BLACK
6
CONTINUOUS
10
3.49606
20
-2.35433
11
3.47638
21
-2.35433
0
LINE
8
BLACK
6
CONTINUOUS
10
3.47638
20
-2.35433
11
3.47638
21
-2.33465
0
LINE
8
BLACK
6
CONTINUOUS
10
3.47638
20
-2.33465
11
3.49606
21
-2.33465
0
LINE
8
BLACK
6
CONTINUOUS
10
3.49606
20
-2.33465
11
3.49606
21
-2.35433
0
LINE
8
BLACK
6
CONTINUOUS
10
3.5315
20
-2.35433
11
3.51181
21
-2.35433
0
LINE
8
BLACK
6
CONTINUOUS
10
3.51181
20
-2.35433
11
3.51181
21
-2.33465
0
LINE
8
BLACK
6
CONTINUOUS
10
3.51181
20
-2.33465
11
3.5315
21
-2.33465
0
LINE
8
BLACK
6
CONTINUOUS
10
3.5315
20
-2.33465
11
3.5315
21
-2.35433
0
LINE
8
BLACK
6
CONTINUOUS
10
3.49857
20
-2.29255
11
3.50035
21
-2.29374
0
LINE
8
BLACK
6
CONTINUOUS
10
3.50035
20
-2.29374
11
3.50155
21
-2.29553
0
LINE
8
BLACK
6
CONTINUOUS
10
3.50155
20
-2.29553
11
3.50197
21
-2.29764
0
LINE
8
BLACK
6
CONTINUOUS
10
3.50197
20
-2.29764
11
3.50197
21
-2.31102
0
LINE
8
BLACK
6
CONTINUOUS
10
3.50197
20
-2.31102
11
3.50155
21
-2.31313
0
LINE
8
BLACK
6
CONTINUOUS
10
3.50155
20
-2.31313
11
3.50035
21
-2.31492
0
LINE
8
BLACK
6
CONTINUOUS
10
3.50035
20
-2.31492
11
3.49857
21
-2.31612
0
LINE
8
BLACK
6
CONTINUOUS
10
3.49857
20
-2.31612
11
3.49646
21
-2.31654
0
LINE
8
BLACK
6
CONTINUOUS
10
3.49646
20
-2.31654
11
3.48543
21
-2.31654
0
LINE
8
BLACK
6
CONTINUOUS
10
3.48543
20
-2.31654
11
3.48332
21
-2.31612
0
LINE
8
BLACK
6
CONTINUOUS
10
3.48332
20
-2.31612
11
3.48154
21
-2.31492
0
LINE
8
BLACK
6
CONTINUOUS
10
3.48154
20
-2.31492
11
3.48034
21
-2.31313
0
LINE
8
BLACK
6
CONTINUOUS
10
3.48034
20
-2.31313
11
3.47992
21
-2.31102
0
LINE
8
BLACK
6
CONTINUOUS
10
3.47992
20
-2.31102
11
3.47992
21
-2.29764
0
LINE
8
BLACK
6
CONTINUOUS
10
3.47992
20
-2.29764
11
3.48034
21
-2.29553
0
LINE
8
BLACK
6
CONTINUOUS
10
3.48034
20
-2.29553
11
3.48154
21
-2.29374
0
LINE
8
BLACK
6
CONTINUOUS
10
3.48154
20
-2.29374
11
3.48332
21
-2.29255
0
LINE
8
BLACK
6
CONTINUOUS
10
3.48332
20
-2.29255
11
3.48543
21
-2.29213
0
LINE
8
BLACK
6
CONTINUOUS
10
3.48543
20
-2.29213
11
3.49646
21
-2.29213
0
LINE
8
BLACK
6
CONTINUOUS
10
3.49646
20
-2.29213
11
3.49857
21
-2.29255
0
LINE
8
BLACK
6
CONTINUOUS
10
3.53636
20
-2.29255
11
3.53815
21
-2.29374
0
LINE
8
BLACK
6
CONTINUOUS
10
3.53815
20
-2.29374
11
3.53934
21
-2.29553
0
LINE
8
BLACK
6
CONTINUOUS
10
3.53934
20
-2.29553
11
3.53976
21
-2.29764
0
LINE
8
BLACK
6
CONTINUOUS
10
3.53976
20
-2.29764
11
3.53976
21
-2.31102
0
LINE
8
BLACK
6
CONTINUOUS
10
3.53976
20
-2.31102
11
3.53934
21
-2.31313
0
LINE
8
BLACK
6
CONTINUOUS
10
3.53934
20
-2.31313
11
3.53815
21
-2.31492
0
LINE
8
BLACK
6
CONTINUOUS
10
3.53815
20
-2.31492
11
3.53636
21
-2.31612
0
LINE
8
BLACK
6
CONTINUOUS
10
3.53636
20
-2.31612
11
3.53425
21
-2.31654
0
LINE
8
BLACK
6
CONTINUOUS
10
3.53425
20
-2.31654
11
3.52323
21
-2.31654
0
LINE
8
BLACK
6
CONTINUOUS
10
3.52323
20
-2.31654
11
3.52112
21
-2.31612
0
LINE
8
BLACK
6
CONTINUOUS
10
3.52112
20
-2.31612
11
3.51933
21
-2.31492
0
LINE
8
BLACK
6
CONTINUOUS
10
3.51933
20
-2.31492
11
3.51814
21
-2.31313
0
LINE
8
BLACK
6
CONTINUOUS
10
3.51814
20
-2.31313
11
3.51772
21
-2.31102
0
LINE
8
BLACK
6
CONTINUOUS
10
3.51772
20
-2.31102
11
3.51772
21
-2.29764
0
LINE
8
BLACK
6
CONTINUOUS
10
3.51772
20
-2.29764
11
3.51814
21
-2.29553
0
LINE
8
BLACK
6
CONTINUOUS
10
3.51814
20
-2.29553
11
3.51933
21
-2.29374
0
LINE
8
BLACK
6
CONTINUOUS
10
3.51933
20
-2.29374
11
3.52112
21
-2.29255
0
LINE
8
BLACK
6
CONTINUOUS
10
3.52112
20
-2.29255
11
3.52323
21
-2.29213
0
LINE
8
BLACK
6
CONTINUOUS
10
3.52323
20
-2.29213
11
3.53425
21
-2.29213
0
LINE
8
BLACK
6
CONTINUOUS
10
3.53425
20
-2.29213
11
3.53636
21
-2.29255
0
LINE
8
BLACK
6
CONTINUOUS
10
3.50143
20
-2.25964
11
3.50223
21
-2.26017
0
LINE
8
BLACK
6
CONTINUOUS
10
3.50223
20
-2.26017
11
3.50277
21
-2.26097
0
LINE
8
BLACK
6
CONTINUOUS
10
3.50277
20
-2.26097
11
3.50295
21
-2.26191
0
LINE
8
BLACK
6
CONTINUOUS
10
3.50295
20
-2.26191
11
3.50295
21
-2.27116
0
LINE
8
BLACK
6
CONTINUOUS
10
3.50295
20
-2.27116
11
3.50277
21
-2.2721
0
LINE
8
BLACK
6
CONTINUOUS
10
3.50277
20
-2.2721
11
3.50223
21
-2.2729
0
LINE
8
BLACK
6
CONTINUOUS
10
3.50223
20
-2.2729
11
3.50143
21
-2.27343
0
LINE
8
BLACK
6
CONTINUOUS
10
3.50143
20
-2.27343
11
3.50049
21
-2.27362
0
LINE
8
BLACK
6
CONTINUOUS
10
3.50049
20
-2.27362
11
3.49557
21
-2.27362
0
LINE
8
BLACK
6
CONTINUOUS
10
3.49557
20
-2.27362
11
3.49463
21
-2.27343
0
LINE
8
BLACK
6
CONTINUOUS
10
3.49463
20
-2.27343
11
3.49383
21
-2.2729
0
LINE
8
BLACK
6
CONTINUOUS
10
3.49383
20
-2.2729
11
3.4933
21
-2.2721
0
LINE
8
BLACK
6
CONTINUOUS
10
3.4933
20
-2.2721
11
3.49311
21
-2.27116
0
LINE
8
BLACK
6
CONTINUOUS
10
3.49311
20
-2.27116
11
3.49311
21
-2.26191
0
LINE
8
BLACK
6
CONTINUOUS
10
3.49311
20
-2.26191
11
3.4933
21
-2.26097
0
LINE
8
BLACK
6
CONTINUOUS
10
3.4933
20
-2.26097
11
3.49383
21
-2.26017
0
LINE
8
BLACK
6
CONTINUOUS
10
3.49383
20
-2.26017
11
3.49463
21
-2.25964
0
LINE
8
BLACK
6
CONTINUOUS
10
3.49463
20
-2.25964
11
3.49557
21
-2.25945
0
LINE
8
BLACK
6
CONTINUOUS
10
3.49557
20
-2.25945
11
3.50049
21
-2.25945
0
LINE
8
BLACK
6
CONTINUOUS
10
3.50049
20
-2.25945
11
3.50143
21
-2.25964
0
LINE
8
BLACK
6
CONTINUOUS
10
2.83266
20
-2.23234
11
2.8422
21
-2.23786
0
LINE
8
BLACK
6
CONTINUOUS
10
2.8422
20
-2.23786
11
2.84382
21
-2.23927
0
LINE
8
BLACK
6
CONTINUOUS
10
2.84382
20
-2.23927
11
2.84477
21
-2.2412
0
LINE
8
BLACK
6
CONTINUOUS
10
2.84477
20
-2.2412
11
2.84491
21
-2.24335
0
LINE
8
BLACK
6
CONTINUOUS
10
2.84491
20
-2.24335
11
2.84422
21
-2.24538
0
LINE
8
BLACK
6
CONTINUOUS
10
2.84422
20
-2.24538
11
2.83753
21
-2.25698
0
LINE
8
BLACK
6
CONTINUOUS
10
2.83753
20
-2.25698
11
2.83611
21
-2.25859
0
LINE
8
BLACK
6
CONTINUOUS
10
2.83611
20
-2.25859
11
2.83418
21
-2.25955
0
LINE
8
BLACK
6
CONTINUOUS
10
2.83418
20
-2.25955
11
2.83203
21
-2.25969
0
LINE
8
BLACK
6
CONTINUOUS
10
2.83203
20
-2.25969
11
2.83
21
-2.25899
0
LINE
8
BLACK
6
CONTINUOUS
10
2.83
20
-2.25899
11
2.82045
21
-2.25348
0
LINE
8
BLACK
6
CONTINUOUS
10
2.82045
20
-2.25348
11
2.81883
21
-2.25206
0
LINE
8
BLACK
6
CONTINUOUS
10
2.81883
20
-2.25206
11
2.81788
21
-2.25014
0
LINE
8
BLACK
6
CONTINUOUS
10
2.81788
20
-2.25014
11
2.81774
21
-2.24799
0
LINE
8
BLACK
6
CONTINUOUS
10
2.81774
20
-2.24799
11
2.81843
21
-2.24595
0
LINE
8
BLACK
6
CONTINUOUS
10
2.81843
20
-2.24595
11
2.82513
21
-2.23436
0
LINE
8
BLACK
6
CONTINUOUS
10
2.82513
20
-2.23436
11
2.82654
21
-2.23274
0
LINE
8
BLACK
6
CONTINUOUS
10
2.82654
20
-2.23274
11
2.82847
21
-2.23179
0
LINE
8
BLACK
6
CONTINUOUS
10
2.82847
20
-2.23179
11
2.83062
21
-2.23165
0
LINE
8
BLACK
6
CONTINUOUS
10
2.83062
20
-2.23165
11
2.83266
21
-2.23234
0
LINE
8
BLACK
6
CONTINUOUS
10
2.79992
20
-2.21345
11
2.80947
21
-2.21896
0
LINE
8
BLACK
6
CONTINUOUS
10
2.80947
20
-2.21896
11
2.81109
21
-2.22038
0
LINE
8
BLACK
6
CONTINUOUS
10
2.81109
20
-2.22038
11
2.81204
21
-2.2223
0
LINE
8
BLACK
6
CONTINUOUS
10
2.81204
20
-2.2223
11
2.81218
21
-2.22445
0
LINE
8
BLACK
6
CONTINUOUS
10
2.81218
20
-2.22445
11
2.81149
21
-2.22649
0
LINE
8
BLACK
6
CONTINUOUS
10
2.81149
20
-2.22649
11
2.8048
21
-2.23808
0
LINE
8
BLACK
6
CONTINUOUS
10
2.8048
20
-2.23808
11
2.80338
21
-2.2397
0
LINE
8
BLACK
6
CONTINUOUS
10
2.80338
20
-2.2397
11
2.80145
21
-2.24065
0
LINE
8
BLACK
6
CONTINUOUS
10
2.80145
20
-2.24065
11
2.7993
21
-2.24079
0
LINE
8
BLACK
6
CONTINUOUS
10
2.7993
20
-2.24079
11
2.79727
21
-2.2401
0
LINE
8
BLACK
6
CONTINUOUS
10
2.79727
20
-2.2401
11
2.78772
21
-2.23459
0
LINE
8
BLACK
6
CONTINUOUS
10
2.78772
20
-2.23459
11
2.7861
21
-2.23317
0
LINE
8
BLACK
6
CONTINUOUS
10
2.7861
20
-2.23317
11
2.78515
21
-2.23124
0
LINE
8
BLACK
6
CONTINUOUS
10
2.78515
20
-2.23124
11
2.78501
21
-2.22909
0
LINE
8
BLACK
6
CONTINUOUS
10
2.78501
20
-2.22909
11
2.7857
21
-2.22706
0
LINE
8
BLACK
6
CONTINUOUS
10
2.7857
20
-2.22706
11
2.79239
21
-2.21546
0
LINE
8
BLACK
6
CONTINUOUS
10
2.79239
20
-2.21546
11
2.79381
21
-2.21385
0
LINE
8
BLACK
6
CONTINUOUS
10
2.79381
20
-2.21385
11
2.79574
21
-2.2129
0
LINE
8
BLACK
6
CONTINUOUS
10
2.79574
20
-2.2129
11
2.79789
21
-2.21275
0
LINE
8
BLACK
6
CONTINUOUS
10
2.79789
20
-2.21275
11
2.79992
21
-2.21345
0
LINE
8
BLACK
6
CONTINUOUS
10
3.50143
20
-2.22657
11
3.50223
21
-2.2271
0
LINE
8
BLACK
6
CONTINUOUS
10
3.50223
20
-2.2271
11
3.50277
21
-2.2279
0
LINE
8
BLACK
6
CONTINUOUS
10
3.50277
20
-2.2279
11
3.50295
21
-2.22884
0
LINE
8
BLACK
6
CONTINUOUS
10
3.50295
20
-2.22884
11
3.50295
21
-2.23809
0
LINE
8
BLACK
6
CONTINUOUS
10
3.50295
20
-2.23809
11
3.50277
21
-2.23903
0
LINE
8
BLACK
6
CONTINUOUS
10
3.50277
20
-2.23903
11
3.50223
21
-2.23983
0
LINE
8
BLACK
6
CONTINUOUS
10
3.50223
20
-2.23983
11
3.50143
21
-2.24036
0
LINE
8
BLACK
6
CONTINUOUS
10
3.50143
20
-2.24036
11
3.50049
21
-2.24055
0
LINE
8
BLACK
6
CONTINUOUS
10
3.50049
20
-2.24055
11
3.49557
21
-2.24055
0
LINE
8
BLACK
6
CONTINUOUS
10
3.49557
20
-2.24055
11
3.49463
21
-2.24036
0
LINE
8
BLACK
6
CONTINUOUS
10
3.49463
20
-2.24036
11
3.49383
21
-2.23983
0
LINE
8
BLACK
6
CONTINUOUS
10
3.49383
20
-2.23983
11
3.4933
21
-2.23903
0
LINE
8
BLACK
6
CONTINUOUS
10
3.4933
20
-2.23903
11
3.49311
21
-2.23809
0
LINE
8
BLACK
6
CONTINUOUS
10
3.49311
20
-2.23809
11
3.49311
21
-2.22884
0
LINE
8
BLACK
6
CONTINUOUS
10
3.49311
20
-2.22884
11
3.4933
21
-2.2279
0
LINE
8
BLACK
6
CONTINUOUS
10
3.4933
20
-2.2279
11
3.49383
21
-2.2271
0
LINE
8
BLACK
6
CONTINUOUS
10
3.49383
20
-2.2271
11
3.49463
21
-2.22657
0
LINE
8
BLACK
6
CONTINUOUS
10
3.49463
20
-2.22657
11
3.49557
21
-2.22638
0
LINE
8
BLACK
6
CONTINUOUS
10
3.49557
20
-2.22638
11
3.50049
21
-2.22638
0
LINE
8
BLACK
6
CONTINUOUS
10
3.50049
20
-2.22638
11
3.50143
21
-2.22657
0
LINE
8
BLACK
6
CONTINUOUS
10
2.86268
20
-2.20564
11
2.85283
21
-2.22269
0
LINE
8
BLACK
6
CONTINUOUS
10
2.85283
20
-2.22269
11
2.83579
21
-2.21284
0
LINE
8
BLACK
6
CONTINUOUS
10
2.83579
20
-2.21284
11
2.84563
21
-2.1958
0
LINE
8
BLACK
6
CONTINUOUS
10
2.84563
20
-2.1958
11
2.86268
21
-2.20564
0
LINE
8
BLACK
6
CONTINUOUS
10
3.46343
20
-2.21284
11
3.44638
21
-2.22269
0
LINE
8
BLACK
6
CONTINUOUS
10
3.44638
20
-2.22269
11
3.43654
21
-2.20564
0
LINE
8
BLACK
6
CONTINUOUS
10
3.43654
20
-2.20564
11
3.45358
21
-2.1958
0
LINE
8
BLACK
6
CONTINUOUS
10
3.45358
20
-2.1958
11
3.46343
21
-2.21284
0
LINE
8
BLACK
6
CONTINUOUS
10
2.83199
20
-2.18792
11
2.82215
21
-2.20497
0
LINE
8
BLACK
6
CONTINUOUS
10
2.82215
20
-2.20497
11
2.8051
21
-2.19513
0
LINE
8
BLACK
6
CONTINUOUS
10
2.8051
20
-2.19513
11
2.81494
21
-2.17808
0
LINE
8
BLACK
6
CONTINUOUS
10
2.81494
20
-2.17808
11
2.83199
21
-2.18792
0
LINE
8
BLACK
6
CONTINUOUS
10
3.49411
20
-2.19513
11
3.47706
21
-2.20497
0
LINE
8
BLACK
6
CONTINUOUS
10
3.47706
20
-2.20497
11
3.46722
21
-2.18792
0
LINE
8
BLACK
6
CONTINUOUS
10
3.46722
20
-2.18792
11
3.48427
21
-2.17808
0
LINE
8
BLACK
6
CONTINUOUS
10
3.48427
20
-2.17808
11
3.49411
21
-2.19513
0
LINE
8
BLACK
6
CONTINUOUS
10
2.88039
20
-2.17495
11
2.87055
21
-2.192
0
LINE
8
BLACK
6
CONTINUOUS
10
2.87055
20
-2.192
11
2.8535
21
-2.18216
0
LINE
8
BLACK
6
CONTINUOUS
10
2.8535
20
-2.18216
11
2.86335
21
-2.16511
0
LINE
8
BLACK
6
CONTINUOUS
10
2.86335
20
-2.16511
11
2.88039
21
-2.17495
0
LINE
8
BLACK
6
CONTINUOUS
10
3.44571
20
-2.18216
11
3.42866
21
-2.192
0
LINE
8
BLACK
6
CONTINUOUS
10
3.42866
20
-2.192
11
3.41882
21
-2.17495
0
LINE
8
BLACK
6
CONTINUOUS
10
3.41882
20
-2.17495
11
3.43587
21
-2.16511
0
LINE
8
BLACK
6
CONTINUOUS
10
3.43587
20
-2.16511
11
3.44571
21
-2.18216
0
LINE
8
BLACK
6
CONTINUOUS
10
2.84971
20
-2.15724
11
2.83986
21
-2.17428
0
LINE
8
BLACK
6
CONTINUOUS
10
2.83986
20
-2.17428
11
2.82282
21
-2.16444
0
LINE
8
BLACK
6
CONTINUOUS
10
2.82282
20
-2.16444
11
2.83266
21
-2.14739
0
LINE
8
BLACK
6
CONTINUOUS
10
2.83266
20
-2.14739
11
2.84971
21
-2.15724
0
LINE
8
BLACK
6
CONTINUOUS
10
3.4764
20
-2.16444
11
3.45935
21
-2.17428
0
LINE
8
BLACK
6
CONTINUOUS
10
3.45935
20
-2.17428
11
3.44951
21
-2.15724
0
LINE
8
BLACK
6
CONTINUOUS
10
3.44951
20
-2.15724
11
3.46655
21
-2.14739
0
LINE
8
BLACK
6
CONTINUOUS
10
3.46655
20
-2.14739
11
3.4764
21
-2.16444
0
LINE
8
BLACK
6
CONTINUOUS
10
3.41168
20
-2.1314
11
3.41361
21
-2.13235
0
LINE
8
BLACK
6
CONTINUOUS
10
3.41361
20
-2.13235
11
3.41503
21
-2.13397
0
LINE
8
BLACK
6
CONTINUOUS
10
3.41503
20
-2.13397
11
3.42172
21
-2.14556
0
LINE
8
BLACK
6
CONTINUOUS
10
3.42172
20
-2.14556
11
3.42242
21
-2.1476
0
LINE
8
BLACK
6
CONTINUOUS
10
3.42242
20
-2.1476
11
3.42227
21
-2.14974
0
LINE
8
BLACK
6
CONTINUOUS
10
3.42227
20
-2.14974
11
3.42132
21
-2.15167
0
LINE
8
BLACK
6
CONTINUOUS
10
3.42132
20
-2.15167
11
3.41971
21
-2.15309
0
LINE
8
BLACK
6
CONTINUOUS
10
3.41971
20
-2.15309
11
3.41016
21
-2.1586
0
LINE
8
BLACK
6
CONTINUOUS
10
3.41016
20
-2.1586
11
3.40812
21
-2.15929
0
LINE
8
BLACK
6
CONTINUOUS
10
3.40812
20
-2.15929
11
3.40598
21
-2.15915
0
LINE
8
BLACK
6
CONTINUOUS
10
3.40598
20
-2.15915
11
3.40405
21
-2.1582
0
LINE
8
BLACK
6
CONTINUOUS
10
3.40405
20
-2.1582
11
3.40263
21
-2.15658
0
LINE
8
BLACK
6
CONTINUOUS
10
3.40263
20
-2.15658
11
3.39594
21
-2.14499
0
LINE
8
BLACK
6
CONTINUOUS
10
3.39594
20
-2.14499
11
3.39525
21
-2.14295
0
LINE
8
BLACK
6
CONTINUOUS
10
3.39525
20
-2.14295
11
3.39539
21
-2.14081
0
LINE
8
BLACK
6
CONTINUOUS
10
3.39539
20
-2.14081
11
3.39634
21
-2.13888
0
LINE
8
BLACK
6
CONTINUOUS
10
3.39634
20
-2.13888
11
3.39796
21
-2.13746
0
LINE
8
BLACK
6
CONTINUOUS
10
3.39796
20
-2.13746
11
3.4075
21
-2.13195
0
LINE
8
BLACK
6
CONTINUOUS
10
3.4075
20
-2.13195
11
3.40954
21
-2.13126
0
LINE
8
BLACK
6
CONTINUOUS
10
3.40954
20
-2.13126
11
3.41168
21
-2.1314
0
LINE
8
BLACK
6
CONTINUOUS
10
3.44442
20
-2.1125
11
3.44634
21
-2.11345
0
LINE
8
BLACK
6
CONTINUOUS
10
3.44634
20
-2.11345
11
3.44776
21
-2.11507
0
LINE
8
BLACK
6
CONTINUOUS
10
3.44776
20
-2.11507
11
3.45446
21
-2.12666
0
LINE
8
BLACK
6
CONTINUOUS
10
3.45446
20
-2.12666
11
3.45515
21
-2.1287
0
LINE
8
BLACK
6
CONTINUOUS
10
3.45515
20
-2.1287
11
3.45501
21
-2.13084
0
LINE
8
BLACK
6
CONTINUOUS
10
3.45501
20
-2.13084
11
3.45406
21
-2.13277
0
LINE
8
BLACK
6
CONTINUOUS
10
3.45406
20
-2.13277
11
3.45244
21
-2.13419
0
LINE
8
BLACK
6
CONTINUOUS
10
3.45244
20
-2.13419
11
3.44289
21
-2.1397
0
LINE
8
BLACK
6
CONTINUOUS
10
3.44289
20
-2.1397
11
3.44086
21
-2.14039
0
LINE
8
BLACK
6
CONTINUOUS
10
3.44086
20
-2.14039
11
3.43871
21
-2.14025
0
LINE
8
BLACK
6
CONTINUOUS
10
3.43871
20
-2.14025
11
3.43678
21
-2.1393
0
LINE
8
BLACK
6
CONTINUOUS
10
3.43678
20
-2.1393
11
3.43536
21
-2.13769
0
LINE
8
BLACK
6
CONTINUOUS
10
3.43536
20
-2.13769
11
3.42867
21
-2.12609
0
LINE
8
BLACK
6
CONTINUOUS
10
3.42867
20
-2.12609
11
3.42798
21
-2.12406
0
LINE
8
BLACK
6
CONTINUOUS
10
3.42798
20
-2.12406
11
3.42812
21
-2.12191
0
LINE
8
BLACK
6
CONTINUOUS
10
3.42812
20
-2.12191
11
3.42907
21
-2.11998
0
LINE
8
BLACK
6
CONTINUOUS
10
3.42907
20
-2.11998
11
3.43069
21
-2.11856
0
LINE
8
BLACK
6
CONTINUOUS
10
3.43069
20
-2.11856
11
3.44023
21
-2.11305
0
LINE
8
BLACK
6
CONTINUOUS
10
3.44023
20
-2.11305
11
3.44227
21
-2.11236
0
LINE
8
BLACK
6
CONTINUOUS
10
3.44227
20
-2.11236
11
3.44442
21
-2.1125
0
LINE
8
BLACK
6
CONTINUOUS
10
2.93478
20
-2.08689
11
2.93671
21
-2.08784
0
LINE
8
BLACK
6
CONTINUOUS
10
2.93671
20
-2.08784
11
2.93813
21
-2.08946
0
LINE
8
BLACK
6
CONTINUOUS
10
2.93813
20
-2.08946
11
2.94364
21
-2.099
0
LINE
8
BLACK
6
CONTINUOUS
10
2.94364
20
-2.099
11
2.94433
21
-2.10104
0
LINE
8
BLACK
6
CONTINUOUS
10
2.94433
20
-2.10104
11
2.94419
21
-2.10319
0
LINE
8
BLACK
6
CONTINUOUS
10
2.94419
20
-2.10319
11
2.94324
21
-2.10511
0
LINE
8
BLACK
6
CONTINUOUS
10
2.94324
20
-2.10511
11
2.94162
21
-2.10653
0
LINE
8
BLACK
6
CONTINUOUS
10
2.94162
20
-2.10653
11
2.93003
21
-2.11322
0
LINE
8
BLACK
6
CONTINUOUS
10
2.93003
20
-2.11322
11
2.92799
21
-2.11392
0
LINE
8
BLACK
6
CONTINUOUS
10
2.92799
20
-2.11392
11
2.92585
21
-2.11378
0
LINE
8
BLACK
6
CONTINUOUS
10
2.92585
20
-2.11378
11
2.92392
21
-2.11282
0
LINE
8
BLACK
6
CONTINUOUS
10
2.92392
20
-2.11282
11
2.9225
21
-2.11121
0
LINE
8
BLACK
6
CONTINUOUS
10
2.9225
20
-2.11121
11
2.91699
21
-2.10166
0
LINE
8
BLACK
6
CONTINUOUS
10
2.91699
20
-2.10166
11
2.9163
21
-2.09962
0
LINE
8
BLACK
6
CONTINUOUS
10
2.9163
20
-2.09962
11
2.91644
21
-2.09748
0
LINE
8
BLACK
6
CONTINUOUS
10
2.91644
20
-2.09748
11
2.91739
21
-2.09555
0
LINE
8
BLACK
6
CONTINUOUS
10
2.91739
20
-2.09555
11
2.91901
21
-2.09413
0
LINE
8
BLACK
6
CONTINUOUS
10
2.91901
20
-2.09413
11
2.9306
21
-2.08744
0
LINE
8
BLACK
6
CONTINUOUS
10
2.9306
20
-2.08744
11
2.93264
21
-2.08675
0
LINE
8
BLACK
6
CONTINUOUS
10
2.93264
20
-2.08675
11
2.93478
21
-2.08689
0
LINE
8
BLACK
6
CONTINUOUS
10
2.9794
20
-2.08315
11
2.96235
21
-2.09299
0
LINE
8
BLACK
6
CONTINUOUS
10
2.96235
20
-2.09299
11
2.95251
21
-2.07594
0
LINE
8
BLACK
6
CONTINUOUS
10
2.95251
20
-2.07594
11
2.96956
21
-2.0661
0
LINE
8
BLACK
6
CONTINUOUS
10
2.96956
20
-2.0661
11
2.9794
21
-2.08315
0
LINE
8
BLACK
6
CONTINUOUS
10
3.3467
20
-2.07594
11
3.33686
21
-2.09299
0
LINE
8
BLACK
6
CONTINUOUS
10
3.33686
20
-2.09299
11
3.31981
21
-2.08315
0
LINE
8
BLACK
6
CONTINUOUS
10
3.31981
20
-2.08315
11
3.32965
21
-2.0661
0
LINE
8
BLACK
6
CONTINUOUS
10
3.32965
20
-2.0661
11
3.3467
21
-2.07594
0
LINE
8
BLACK
6
CONTINUOUS
10
2.91588
20
-2.05416
11
2.91781
21
-2.05511
0
LINE
8
BLACK
6
CONTINUOUS
10
2.91781
20
-2.05511
11
2.91923
21
-2.05672
0
LINE
8
BLACK
6
CONTINUOUS
10
2.91923
20
-2.05672
11
2.92474
21
-2.06627
0
LINE
8
BLACK
6
CONTINUOUS
10
2.92474
20
-2.06627
11
2.92543
21
-2.06831
0
LINE
8
BLACK
6
CONTINUOUS
10
2.92543
20
-2.06831
11
2.92529
21
-2.07045
0
LINE
8
BLACK
6
CONTINUOUS
10
2.92529
20
-2.07045
11
2.92434
21
-2.07238
0
LINE
8
BLACK
6
CONTINUOUS
10
2.92434
20
-2.07238
11
2.92273
21
-2.0738
0
LINE
8
BLACK
6
CONTINUOUS
10
2.92273
20
-2.0738
11
2.91113
21
-2.08049
0
LINE
8
BLACK
6
CONTINUOUS
10
2.91113
20
-2.08049
11
2.9091
21
-2.08118
0
LINE
8
BLACK
6
CONTINUOUS
10
2.9091
20
-2.08118
11
2.90695
21
-2.08104
0
LINE
8
BLACK
6
CONTINUOUS
10
2.90695
20
-2.08104
11
2.90502
21
-2.08009
0
LINE
8
BLACK
6
CONTINUOUS
10
2.90502
20
-2.08009
11
2.9036
21
-2.07848
0
LINE
8
BLACK
6
CONTINUOUS
10
2.9036
20
-2.07848
11
2.89809
21
-2.06893
0
LINE
8
BLACK
6
CONTINUOUS
10
2.89809
20
-2.06893
11
2.8974
21
-2.06689
0
LINE
8
BLACK
6
CONTINUOUS
10
2.8974
20
-2.06689
11
2.89754
21
-2.06475
0
LINE
8
BLACK
6
CONTINUOUS
10
2.89754
20
-2.06475
11
2.89849
21
-2.06282
0
LINE
8
BLACK
6
CONTINUOUS
10
2.89849
20
-2.06282
11
2.90011
21
-2.0614
0
LINE
8
BLACK
6
CONTINUOUS
10
2.90011
20
-2.0614
11
2.9117
21
-2.05471
0
LINE
8
BLACK
6
CONTINUOUS
10
2.9117
20
-2.05471
11
2.91374
21
-2.05402
0
LINE
8
BLACK
6
CONTINUOUS
10
2.91374
20
-2.05402
11
2.91588
21
-2.05416
0
LINE
8
BLACK
6
CONTINUOUS
10
3.01009
20
-2.06543
11
2.99304
21
-2.07528
0
LINE
8
BLACK
6
CONTINUOUS
10
2.99304
20
-2.07528
11
2.9832
21
-2.05823
0
LINE
8
BLACK
6
CONTINUOUS
10
2.9832
20
-2.05823
11
3.00024
21
-2.04838
0
LINE
8
BLACK
6
CONTINUOUS
10
3.00024
20
-2.04838
11
3.01009
21
-2.06543
0
LINE
8
BLACK
6
CONTINUOUS
10
3.31602
20
-2.05823
11
3.30617
21
-2.07528
0
LINE
8
BLACK
6
CONTINUOUS
10
3.30617
20
-2.07528
11
3.28913
21
-2.06543
0
LINE
8
BLACK
6
CONTINUOUS
10
3.28913
20
-2.06543
11
3.29897
21
-2.04838
0
LINE
8
BLACK
6
CONTINUOUS
10
3.29897
20
-2.04838
11
3.31602
21
-2.05823
0
LINE
8
BLACK
6
CONTINUOUS
10
2.96168
20
-2.05246
11
2.94464
21
-2.06231
0
LINE
8
BLACK
6
CONTINUOUS
10
2.94464
20
-2.06231
11
2.93479
21
-2.04526
0
LINE
8
BLACK
6
CONTINUOUS
10
2.93479
20
-2.04526
11
2.95184
21
-2.03542
0
LINE
8
BLACK
6
CONTINUOUS
10
2.95184
20
-2.03542
11
2.96168
21
-2.05246
0
LINE
8
BLACK
6
CONTINUOUS
10
3.36442
20
-2.04526
11
3.35458
21
-2.06231
0
LINE
8
BLACK
6
CONTINUOUS
10
3.35458
20
-2.06231
11
3.33753
21
-2.05246
0
LINE
8
BLACK
6
CONTINUOUS
10
3.33753
20
-2.05246
11
3.34737
21
-2.03542
0
LINE
8
BLACK
6
CONTINUOUS
10
3.34737
20
-2.03542
11
3.36442
21
-2.04526
0
LINE
8
BLACK
6
CONTINUOUS
10
3.26586
20
-2.03103
11
3.27745
21
-2.03772
0
LINE
8
BLACK
6
CONTINUOUS
10
3.27745
20
-2.03772
11
3.27907
21
-2.03914
0
LINE
8
BLACK
6
CONTINUOUS
10
3.27907
20
-2.03914
11
3.28002
21
-2.04107
0
LINE
8
BLACK
6
CONTINUOUS
10
3.28002
20
-2.04107
11
3.28016
21
-2.04322
0
LINE
8
BLACK
6
CONTINUOUS
10
3.28016
20
-2.04322
11
3.27947
21
-2.04525
0
LINE
8
BLACK
6
CONTINUOUS
10
3.27947
20
-2.04525
11
3.27396
21
-2.0548
0
LINE
8
BLACK
6
CONTINUOUS
10
3.27396
20
-2.0548
11
3.27254
21
-2.05642
0
LINE
8
BLACK
6
CONTINUOUS
10
3.27254
20
-2.05642
11
3.27061
21
-2.05737
0
LINE
8
BLACK
6
CONTINUOUS
10
3.27061
20
-2.05737
11
3.26846
21
-2.05751
0
LINE
8
BLACK
6
CONTINUOUS
10
3.26846
20
-2.05751
11
3.26643
21
-2.05682
0
LINE
8
BLACK
6
CONTINUOUS
10
3.26643
20
-2.05682
11
3.25483
21
-2.05013
0
LINE
8
BLACK
6
CONTINUOUS
10
3.25483
20
-2.05013
11
3.25322
21
-2.04871
0
LINE
8
BLACK
6
CONTINUOUS
10
3.25322
20
-2.04871
11
3.25227
21
-2.04678
0
LINE
8
BLACK
6
CONTINUOUS
10
3.25227
20
-2.04678
11
3.25212
21
-2.04463
0
LINE
8
BLACK
6
CONTINUOUS
10
3.25212
20
-2.04463
11
3.25282
21
-2.0426
0
LINE
8
BLACK
6
CONTINUOUS
10
3.25282
20
-2.0426
11
3.25833
21
-2.03305
0
LINE
8
BLACK
6
CONTINUOUS
10
3.25833
20
-2.03305
11
3.25975
21
-2.03143
0
LINE
8
BLACK
6
CONTINUOUS
10
3.25975
20
-2.03143
11
3.26167
21
-2.03048
0
LINE
8
BLACK
6
CONTINUOUS
10
3.26167
20
-2.03048
11
3.26382
21
-2.03034
0
LINE
8
BLACK
6
CONTINUOUS
10
3.26382
20
-2.03034
11
3.26586
21
-2.03103
0
LINE
8
BLACK
6
CONTINUOUS
10
2.99237
20
-2.03475
11
2.97532
21
-2.04459
0
LINE
8
BLACK
6
CONTINUOUS
10
2.97532
20
-2.04459
11
2.96548
21
-2.02754
0
LINE
8
BLACK
6
CONTINUOUS
10
2.96548
20
-2.02754
11
2.98253
21
-2.0177
0
LINE
8
BLACK
6
CONTINUOUS
10
2.98253
20
-2.0177
11
2.99237
21
-2.03475
0
LINE
8
BLACK
6
CONTINUOUS
10
3.33373
20
-2.02754
11
3.32389
21
-2.04459
0
LINE
8
BLACK
6
CONTINUOUS
10
3.32389
20
-2.04459
11
3.30684
21
-2.03475
0
LINE
8
BLACK
6
CONTINUOUS
10
3.30684
20
-2.03475
11
3.31668
21
-2.0177
0
LINE
8
BLACK
6
CONTINUOUS
10
3.31668
20
-2.0177
11
3.33373
21
-2.02754
0
LINE
8
BLACK
6
CONTINUOUS
10
3.09935
20
-2.01853
11
3.10114
21
-2.01972
0
LINE
8
BLACK
6
CONTINUOUS
10
3.10114
20
-2.01972
11
3.10234
21
-2.02151
0
LINE
8
BLACK
6
CONTINUOUS
10
3.10234
20
-2.02151
11
3.10276
21
-2.02362
0
LINE
8
BLACK
6
CONTINUOUS
10
3.10276
20
-2.02362
11
3.10276
21
-2.03465
0
LINE
8
BLACK
6
CONTINUOUS
10
3.10276
20
-2.03465
11
3.10234
21
-2.03675
0
LINE
8
BLACK
6
CONTINUOUS
10
3.10234
20
-2.03675
11
3.10114
21
-2.03854
0
LINE
8
BLACK
6
CONTINUOUS
10
3.10114
20
-2.03854
11
3.09935
21
-2.03974
0
LINE
8
BLACK
6
CONTINUOUS
10
3.09935
20
-2.03974
11
3.09724
21
-2.04016
0
LINE
8
BLACK
6
CONTINUOUS
10
3.09724
20
-2.04016
11
3.08386
21
-2.04016
0
LINE
8
BLACK
6
CONTINUOUS
10
3.08386
20
-2.04016
11
3.08175
21
-2.03974
0
LINE
8
BLACK
6
CONTINUOUS
10
3.08175
20
-2.03974
11
3.07996
21
-2.03854
0
LINE
8
BLACK
6
CONTINUOUS
10
3.07996
20
-2.03854
11
3.07877
21
-2.03675
0
LINE
8
BLACK
6
CONTINUOUS
10
3.07877
20
-2.03675
11
3.07835
21
-2.03465
0
LINE
8
BLACK
6
CONTINUOUS
10
3.07835
20
-2.03465
11
3.07835
21
-2.02362
0
LINE
8
BLACK
6
CONTINUOUS
10
3.07835
20
-2.02362
11
3.07877
21
-2.02151
0
LINE
8
BLACK
6
CONTINUOUS
10
3.07877
20
-2.02151
11
3.07996
21
-2.01972
0
LINE
8
BLACK
6
CONTINUOUS
10
3.07996
20
-2.01972
11
3.08175
21
-2.01853
0
LINE
8
BLACK
6
CONTINUOUS
10
3.08175
20
-2.01853
11
3.08386
21
-2.01811
0
LINE
8
BLACK
6
CONTINUOUS
10
3.08386
20
-2.01811
11
3.09724
21
-2.01811
0
LINE
8
BLACK
6
CONTINUOUS
10
3.09724
20
-2.01811
11
3.09935
21
-2.01853
0
LINE
8
BLACK
6
CONTINUOUS
10
3.14173
20
-2.03543
11
3.12205
21
-2.03543
0
LINE
8
BLACK
6
CONTINUOUS
10
3.12205
20
-2.03543
11
3.12205
21
-2.01575
0
LINE
8
BLACK
6
CONTINUOUS
10
3.12205
20
-2.01575
11
3.14173
21
-2.01575
0
LINE
8
BLACK
6
CONTINUOUS
10
3.14173
20
-2.01575
11
3.14173
21
-2.03543
0
LINE
8
BLACK
6
CONTINUOUS
10
3.17717
20
-2.03543
11
3.15748
21
-2.03543
0
LINE
8
BLACK
6
CONTINUOUS
10
3.15748
20
-2.03543
11
3.15748
21
-2.01575
0
LINE
8
BLACK
6
CONTINUOUS
10
3.15748
20
-2.01575
11
3.17717
21
-2.01575
0
LINE
8
BLACK
6
CONTINUOUS
10
3.17717
20
-2.01575
11
3.17717
21
-2.03543
0
LINE
8
BLACK
6
CONTINUOUS
10
3.28475
20
-1.9983
11
3.29635
21
-2.00499
0
LINE
8
BLACK
6
CONTINUOUS
10
3.29635
20
-2.00499
11
3.29796
21
-2.00641
0
LINE
8
BLACK
6
CONTINUOUS
10
3.29796
20
-2.00641
11
3.29892
21
-2.00834
0
LINE
8
BLACK
6
CONTINUOUS
10
3.29892
20
-2.00834
11
3.29906
21
-2.01049
0
LINE
8
BLACK
6
CONTINUOUS
10
3.29906
20
-2.01049
11
3.29836
21
-2.01252
0
LINE
8
BLACK
6
CONTINUOUS
10
3.29836
20
-2.01252
11
3.29285
21
-2.02207
0
LINE
8
BLACK
6
CONTINUOUS
10
3.29285
20
-2.02207
11
3.29144
21
-2.02369
0
LINE
8
BLACK
6
CONTINUOUS
10
3.29144
20
-2.02369
11
3.28951
21
-2.02464
0
LINE
8
BLACK
6
CONTINUOUS
10
3.28951
20
-2.02464
11
3.28736
21
-2.02478
0
LINE
8
BLACK
6
CONTINUOUS
10
3.28736
20
-2.02478
11
3.28532
21
-2.02409
0
LINE
8
BLACK
6
CONTINUOUS
10
3.28532
20
-2.02409
11
3.27373
21
-2.01739
0
LINE
8
BLACK
6
CONTINUOUS
10
3.27373
20
-2.01739
11
3.27211
21
-2.01598
0
LINE
8
BLACK
6
CONTINUOUS
10
3.27211
20
-2.01598
11
3.27116
21
-2.01405
0
LINE
8
BLACK
6
CONTINUOUS
10
3.27116
20
-2.01405
11
3.27102
21
-2.0119
0
LINE
8
BLACK
6
CONTINUOUS
10
3.27102
20
-2.0119
11
3.27171
21
-2.00986
0
LINE
8
BLACK
6
CONTINUOUS
10
3.27171
20
-2.00986
11
3.27723
21
-2.00032
0
LINE
8
BLACK
6
CONTINUOUS
10
3.27723
20
-2.00032
11
3.27864
21
-1.9987
0
LINE
8
BLACK
6
CONTINUOUS
10
3.27864
20
-1.9987
11
3.28057
21
-1.99775
0
LINE
8
BLACK
6
CONTINUOUS
10
3.28057
20
-1.99775
11
3.28272
21
-1.99761
0
LINE
8
BLACK
6
CONTINUOUS
10
3.28272
20
-1.99761
11
3.28475
21
-1.9983
0
LINE
8
BLACK
6
CONTINUOUS
10
3.09935
20
-1.98073
11
3.10114
21
-1.98193
0
LINE
8
BLACK
6
CONTINUOUS
10
3.10114
20
-1.98193
11
3.10234
21
-1.98372
0
LINE
8
BLACK
6
CONTINUOUS
10
3.10234
20
-1.98372
11
3.10276
21
-1.98583
0
LINE
8
BLACK
6
CONTINUOUS
10
3.10276
20
-1.98583
11
3.10276
21
-1.99685
0
LINE
8
BLACK
6
CONTINUOUS
10
3.10276
20
-1.99685
11
3.10234
21
-1.99896
0
LINE
8
BLACK
6
CONTINUOUS
10
3.10234
20
-1.99896
11
3.10114
21
-2.00075
0
LINE
8
BLACK
6
CONTINUOUS
10
3.10114
20
-2.00075
11
3.09935
21
-2.00194
0
LINE
8
BLACK
6
CONTINUOUS
10
3.09935
20
-2.00194
11
3.09724
21
-2.00236
0
LINE
8
BLACK
6
CONTINUOUS
10
3.09724
20
-2.00236
11
3.08386
21
-2.00236
0
LINE
8
BLACK
6
CONTINUOUS
10
3.08386
20
-2.00236
11
3.08175
21
-2.00194
0
LINE
8
BLACK
6
CONTINUOUS
10
3.08175
20
-2.00194
11
3.07996
21
-2.00075
0
LINE
8
BLACK
6
CONTINUOUS
10
3.07996
20
-2.00075
11
3.07877
21
-1.99896
0
LINE
8
BLACK
6
CONTINUOUS
10
3.07877
20
-1.99896
11
3.07835
21
-1.99685
0
LINE
8
BLACK
6
CONTINUOUS
10
3.07835
20
-1.99685
11
3.07835
21
-1.98583
0
LINE
8
BLACK
6
CONTINUOUS
10
3.07835
20
-1.98583
11
3.07877
21
-1.98372
0
LINE
8
BLACK
6
CONTINUOUS
10
3.07877
20
-1.98372
11
3.07996
21
-1.98193
0
LINE
8
BLACK
6
CONTINUOUS
10
3.07996
20
-1.98193
11
3.08175
21
-1.98073
0
LINE
8
BLACK
6
CONTINUOUS
10
3.08175
20
-1.98073
11
3.08386
21
-1.98031
0
LINE
8
BLACK
6
CONTINUOUS
10
3.08386
20
-1.98031
11
3.09724
21
-1.98031
0
LINE
8
BLACK
6
CONTINUOUS
10
3.09724
20
-1.98031
11
3.09935
21
-1.98073
0
LINE
8
BLACK
6
CONTINUOUS
10
3.14173
20
-2
11
3.12205
21
-2
0
LINE
8
BLACK
6
CONTINUOUS
10
3.12205
20
-2
11
3.12205
21
-1.98031
0
LINE
8
BLACK
6
CONTINUOUS
10
3.12205
20
-1.98031
11
3.14173
21
-1.98031
0
LINE
8
BLACK
6
CONTINUOUS
10
3.14173
20
-1.98031
11
3.14173
21
-2
0
LINE
8
BLACK
6
CONTINUOUS
10
3.17717
20
-2
11
3.15748
21
-2
0
LINE
8
BLACK
6
CONTINUOUS
10
3.15748
20
-2
11
3.15748
21
-1.98031
0
LINE
8
BLACK
6
CONTINUOUS
10
3.15748
20
-1.98031
11
3.17717
21
-1.98031
0
LINE
8
BLACK
6
CONTINUOUS
10
3.17717
20
-1.98031
11
3.17717
21
-2
0
LINE
8
BLACK
6
CONTINUOUS
10
3.15778
20
-1.91123
11
3.1625
21
-1.91426
0
LINE
8
BLACK
6
CONTINUOUS
10
3.1625
20
-1.91426
11
3.16617
21
-1.91849
0
LINE
8
BLACK
6
CONTINUOUS
10
3.16617
20
-1.91849
11
3.16849
21
-1.92359
0
LINE
8
BLACK
6
CONTINUOUS
10
3.16849
20
-1.92359
11
3.16929
21
-1.92913
0
LINE
8
BLACK
6
CONTINUOUS
10
3.16929
20
-1.92913
11
3.16849
21
-1.93468
0
LINE
8
BLACK
6
CONTINUOUS
10
3.16849
20
-1.93468
11
3.16617
21
-1.93978
0
LINE
8
BLACK
6
CONTINUOUS
10
3.16617
20
-1.93978
11
3.1625
21
-1.94401
0
LINE
8
BLACK
6
CONTINUOUS
10
3.1625
20
-1.94401
11
3.15778
21
-1.94704
0
LINE
8
BLACK
6
CONTINUOUS
10
3.15778
20
-1.94704
11
3.15241
21
-1.94862
0
LINE
8
BLACK
6
CONTINUOUS
10
3.15241
20
-1.94862
11
3.1468
21
-1.94862
0
LINE
8
BLACK
6
CONTINUOUS
10
3.1468
20
-1.94862
11
3.14143
21
-1.94704
0
LINE
8
BLACK
6
CONTINUOUS
10
3.14143
20
-1.94704
11
3.13672
21
-1.94401
0
LINE
8
BLACK
6
CONTINUOUS
10
3.13672
20
-1.94401
11
3.13305
21
-1.93978
0
LINE
8
BLACK
6
CONTINUOUS
10
3.13305
20
-1.93978
11
3.13072
21
-1.93468
0
LINE
8
BLACK
6
CONTINUOUS
10
3.13072
20
-1.93468
11
3.12992
21
-1.92913
0
LINE
8
BLACK
6
CONTINUOUS
10
3.12992
20
-1.92913
11
3.13072
21
-1.92359
0
LINE
8
BLACK
6
CONTINUOUS
10
3.13072
20
-1.92359
11
3.13305
21
-1.91849
0
LINE
8
BLACK
6
CONTINUOUS
10
3.13305
20
-1.91849
11
3.13672
21
-1.91426
0
LINE
8
BLACK
6
CONTINUOUS
10
3.13672
20
-1.91426
11
3.14143
21
-1.91123
0
LINE
8
BLACK
6
CONTINUOUS
10
3.14143
20
-1.91123
11
3.1468
21
-1.90965
0
LINE
8
BLACK
6
CONTINUOUS
10
3.1468
20
-1.90965
11
3.15241
21
-1.90965
0
LINE
8
BLACK
6
CONTINUOUS
10
3.15241
20
-1.90965
11
3.15778
21
-1.91123
  0
ENDSEC
  0
EOF
