<?xml version="1.0" standalone="no"?>
 <!DOCTYPE svg PUBLIC "-//W3C//DTD SVG 1.1//EN" 
 "http://www.w3.org/Graphics/SVG/1.1/DTD/svg11.dtd"> 
<svg
  xmlns:svg="http://www.w3.org/2000/svg"
  xmlns="http://www.w3.org/2000/svg"
  xmlns:xlink="http://www.w3.org/1999/xlink"
  version="1.1"
  width="297.0022mm" height="210.0072mm" viewBox="0.0000 0.0000 297.0022 210.0072">
<title>SVG Image created as pedalboard-led-ring-User_Drawings.svg date 2023/05/26 17:23:39 </title>
  <desc>Image generated by PCBNEW </desc>
<g style="fill:#000000; fill-opacity:1.0000;stroke:#000000; stroke-opacity:1.0000;
stroke-linecap:round; stroke-linejoin:round;"
 transform="translate(0 0) scale(1 1)">
</g>
<g style="fill:#000000; fill-opacity:0.0; 
stroke:#000000; stroke-width:0.0000; stroke-opacity:1; 
stroke-linecap:round; stroke-linejoin:round;">
</g>
<g style="fill:#000000; fill-opacity:0.0; 
stroke:#000000; stroke-width:0.1500; stroke-opacity:1; 
stroke-linecap:round; stroke-linejoin:round;">
<circle cx="80.0000" cy="60.0000" r="6.5000" /> 
</g>
<g style="fill:#000000; fill-opacity:0.0; 
stroke:#000000; stroke-width:0.0500; stroke-opacity:1; 
stroke-linecap:round; stroke-linejoin:round;">
<path d="M71.9171 60.0000
L72.1921 59.5237
" />
<path d="M72.2921 59.3505
L72.5671 58.8742
" />
<path d="M72.6671 58.7010
L72.9421 58.2246
" />
<path d="M73.0421 58.0514
L73.3171 57.5751
" />
<path d="M73.4171 57.4019
L73.6921 56.9256
" />
<path d="M73.7921 56.7524
L74.0671 56.2761
" />
<path d="M74.1671 56.1029
L74.4421 55.6266
" />
<path d="M74.5421 55.4534
L74.8171 54.9771
" />
<path d="M74.9171 54.8038
L75.1921 54.3275
" />
<path d="M75.2921 54.1543
L75.5671 53.6780
" />
<path d="M75.6671 53.5048
L75.9421 53.0285
" />
<path d="M91.0000 60.0000
L90.9863 60.5498
" />
<path d="M90.9744 60.7494
L90.9233 61.2970
" />
<path d="M90.8979 61.4954
L90.8095 62.0382
" />
<path d="M90.7707 62.2343
L90.6456 62.7699
" />
<path d="M90.5934 62.9629
L90.4321 63.4887
" />
<path d="M90.3670 63.6778
L90.1702 64.1913
" />
<path d="M90.0923 64.3755
L89.8610 64.8745
" />
<path d="M89.7708 65.0529
L89.5060 65.5350
" />
<path d="M89.4038 65.7069
L89.1068 66.1697
" />
<path d="M88.9932 66.3343
L88.6653 66.7758
" />
<path d="M88.5407 66.9323
L88.1836 67.3505
" />
<path d="M88.0486 67.4980
L87.6638 67.8909
" />
<path d="M87.5190 68.0289
L87.1084 68.3947
" />
<path d="M86.9546 68.5226
L86.5199 68.8595
" />
<path d="M86.3578 68.9766
L85.9012 69.2831
" />
<path d="M85.7314 69.3889
L85.2550 69.6636
" />
<path d="M85.0785 69.7575
L84.5845 69.9991
" />
<path d="M84.4019 70.0808
L83.8926 70.2882
" />
<path d="M83.7049 70.3573
L83.1826 70.5295
" />
<path d="M82.9906 70.5857
L82.4578 70.7219
" />
<path d="M82.2625 70.7648
L81.7217 70.8644
" />
<path d="M81.5238 70.8939
L80.9775 70.9565
" />
<path d="M80.7781 70.9724
L80.2287 70.9976
" />
<path d="M80.0288 71.0000
L79.4790 70.9877
" />
<path d="M79.2793 70.9764
L78.7316 70.9266
" />
<path d="M78.5331 70.9018
L77.9901 70.8148
" />
<path d="M77.7938 70.7765
L77.2580 70.6528
" />
<path d="M77.0648 70.6011
L76.5386 70.4412
" />
<path d="M76.3493 70.3765
L75.8353 70.1811
" />
<path d="M75.6509 70.1037
L75.1513 69.8737
" />
<path d="M74.9726 69.7839
L74.4899 69.5204
" />
<path d="M74.3177 69.4187
L73.8541 69.1229
" />
<path d="M73.6892 69.0097
L73.2468 68.6830
" />
<path d="M73.0901 68.5588
L72.6710 68.2028
" />
<path d="M72.5230 68.0682
L72.1291 67.6844
" />
<path d="M71.9907 67.5400
L71.6239 67.1303
" />
<path d="M71.4957 66.9768
L71.1576 66.5431
" />
<path d="M71.0401 66.3812
L70.7324 65.9254
" />
<path d="M70.6262 65.7560
L70.3502 65.2803
" />
<path d="M70.2558 65.1040
L70.0129 64.6106
" />
<path d="M69.9307 64.4282
L69.7220 63.9195
" />
<path d="M69.6524 63.7319
L69.4788 63.2101
" />
<path d="M69.4222 63.0183
L69.2846 62.4859
" />
<path d="M69.2411 62.2906
L69.1401 61.7501
" />
<path d="M69.1101 61.5523
L69.0461 61.0061
" />
<path d="M69.0296 60.8068
L69.0030 60.2575
" />
<path d="M69.0001 60.0575
L69.0110 59.5077
" />
<path d="M69.0218 59.3080
L69.0701 58.7602
" />
<path d="M69.0944 58.5616
L69.1800 58.0184
" />
<path d="M69.2178 57.8220
L69.3401 57.2858
" />
<path d="M69.3912 57.0925
L69.5498 56.5659
" />
<path d="M69.6139 56.3765
L69.8080 55.8619
" />
<path d="M69.8849 55.6773
L70.1136 55.1772
" />
<path d="M70.2030 54.9982
L70.4652 54.5148
" />
<path d="M70.5665 54.3424
L70.8610 53.8780
" />
<path d="M70.9738 53.7128
L71.2994 53.2696
" />
<path d="M71.4232 53.1125
L71.7781 52.6924
" />
<path d="M71.9123 52.5442
L72.2951 52.1493
" />
<path d="M72.4391 52.0105
L72.8478 51.6426
" />
<path d="M73.0010 51.5139
L73.4338 51.1747
" />
<path d="M73.5954 51.0568
L74.0503 50.7479
" />
<path d="M74.2195 50.6412
L74.6945 50.3640
" />
<path d="M74.8706 50.2692
L75.3633 50.0250
" />
<path d="M75.5454 49.9423
L76.0537 49.7323
" />
<path d="M76.2410 49.6622
L76.7624 49.4873
" />
<path d="M76.9541 49.4301
L77.4861 49.2911
" />
<path d="M77.6812 49.2472
L78.2216 49.1447
" />
<path d="M78.4192 49.1142
L78.9653 49.0488
" />
<path d="M79.1645 49.0318
L79.7138 49.0037
" />
<path d="M79.9137 49.0003
L80.4636 49.0098
" />
<path d="M80.6633 49.0200
L81.2113 49.0669
" />
<path d="M81.4098 49.0907
L81.9533 49.1748
" />
<path d="M82.1498 49.2121
L82.6863 49.3330
" />
<path d="M82.8798 49.3836
L83.4068 49.5408
" />
<path d="M83.5964 49.6045
L84.1114 49.7972
" />
<path d="M84.2962 49.8737
L84.7970 50.1011
" />
<path d="M84.9761 50.1899
L85.4602 50.4509
" />
<path d="M85.6329 50.5517
L86.0981 50.8451
" />
<path d="M86.2636 50.9574
L86.7077 51.2818
" />
<path d="M86.8651 51.4052
L87.2860 51.7590
" />
<path d="M87.4347 51.8929
L87.8306 52.2746
" />
<path d="M87.9697 52.4182
L88.3387 52.8260
" />
<path d="M88.4677 52.9788
L88.8081 53.4108
" />
<path d="M88.9264 53.5720
L89.2365 54.0262
" />
<path d="M89.3436 54.1951
L89.6221 54.6693
" />
<path d="M89.7174 54.8452
L89.9629 55.3373
" />
<path d="M90.0460 55.5192
L90.2574 56.0269
" />
<path d="M90.3279 56.2140
L90.5042 56.7349
" />
<path d="M90.5619 56.9264
L90.7023 57.4581
" />
<path d="M90.7467 57.6531
L90.8506 58.1932
" />
<path d="M90.8817 58.3908
L90.9485 58.9366
" />
<path d="M90.9660 59.1359
L90.9955 59.6850
" />
<path d="M90.9994 59.8850
L91.0000 60.0000
" />
<path d="M75.9585 67.0000
L76.5085 67.0000
" />
<path d="M76.7085 67.0000
L77.2585 67.0000
" />
<path d="M77.4585 67.0000
L78.0085 67.0000
" />
<path d="M78.2085 67.0000
L78.7585 67.0000
" />
<path d="M78.9585 67.0000
L79.5085 67.0000
" />
<path d="M79.7085 67.0000
L80.2585 67.0000
" />
<path d="M80.4585 67.0000
L81.0085 67.0000
" />
<path d="M81.2085 67.0000
L81.7585 67.0000
" />
<path d="M81.9585 67.0000
L82.5085 67.0000
" />
<path d="M82.7085 67.0000
L83.2585 67.0000
" />
<path d="M83.4585 67.0000
L84.0085 67.0000
" />
</g>
<g style="fill:#000000; fill-opacity:0.0; 
stroke:#000000; stroke-width:0.1500; stroke-opacity:1; 
stroke-linecap:round; stroke-linejoin:round;">
<circle cx="80.0000" cy="60.0000" r="12.0000" /> 
</g>
<g style="fill:#000000; fill-opacity:0.0; 
stroke:#000000; stroke-width:0.0500; stroke-opacity:1; 
stroke-linecap:round; stroke-linejoin:round;">
<path d="M88.0829 60.0000
L87.8079 59.5237
" />
<path d="M87.7079 59.3505
L87.4329 58.8742
" />
<path d="M87.3329 58.7010
L87.0579 58.2246
" />
<path d="M86.9579 58.0514
L86.6829 57.5751
" />
<path d="M86.5829 57.4019
L86.3079 56.9256
" />
<path d="M86.2079 56.7524
L85.9329 56.2761
" />
<path d="M85.8329 56.1029
L85.5579 55.6266
" />
<path d="M85.4579 55.4534
L85.1829 54.9771
" />
<path d="M85.0829 54.8038
L84.8079 54.3275
" />
<path d="M84.7079 54.1543
L84.4329 53.6780
" />
<path d="M84.3329 53.5048
L84.0579 53.0285
" />
<path d="M75.9585 67.0000
L75.6835 66.5237
" />
<path d="M75.5835 66.3505
L75.3085 65.8742
" />
<path d="M75.2085 65.7010
L74.9335 65.2246
" />
<path d="M74.8335 65.0514
L74.5585 64.5751
" />
<path d="M74.4585 64.4019
L74.1835 63.9256
" />
<path d="M74.0835 63.7524
L73.8085 63.2761
" />
<path d="M73.7085 63.1029
L73.4335 62.6266
" />
<path d="M73.3335 62.4534
L73.0585 61.9771
" />
<path d="M72.9585 61.8038
L72.6835 61.3275
" />
<path d="M72.5835 61.1543
L72.3085 60.6780
" />
<path d="M72.2085 60.5048
L71.9335 60.0285
" />
<path d="M75.9585 53.0000
L76.5085 53.0000
" />
<path d="M76.7085 53.0000
L77.2585 53.0000
" />
<path d="M77.4585 53.0000
L78.0085 53.0000
" />
<path d="M78.2085 53.0000
L78.7585 53.0000
" />
<path d="M78.9585 53.0000
L79.5085 53.0000
" />
<path d="M79.7085 53.0000
L80.2585 53.0000
" />
<path d="M80.4585 53.0000
L81.0085 53.0000
" />
<path d="M81.2085 53.0000
L81.7585 53.0000
" />
<path d="M81.9585 53.0000
L82.5085 53.0000
" />
<path d="M82.7085 53.0000
L83.2585 53.0000
" />
<path d="M83.4585 53.0000
L84.0085 53.0000
" />
</g>
<g style="fill:#000000; fill-opacity:1.0000; 
stroke:#000000; stroke-width:0.0000; stroke-opacity:1; 
stroke-linecap:round; stroke-linejoin:round;">
<circle cx="89.0000" cy="60.0000" r="0.0150" /> 
<circle cx="88.9992" cy="60.1200" r="0.0150" /> 
<circle cx="88.9968" cy="60.2400" r="0.0150" /> 
<circle cx="88.9928" cy="60.3599" r="0.0150" /> 
<circle cx="88.9872" cy="60.4798" r="0.0150" /> 
<circle cx="88.9800" cy="60.5996" r="0.0150" /> 
<circle cx="88.9712" cy="60.7192" r="0.0150" /> 
<circle cx="88.9608" cy="60.8388" r="0.0150" /> 
<circle cx="88.9488" cy="60.9582" r="0.0150" /> 
<circle cx="88.9353" cy="61.0774" r="0.0150" /> 
<circle cx="88.9201" cy="61.1964" r="0.0150" /> 
<circle cx="88.9034" cy="61.3153" r="0.0150" /> 
<circle cx="88.8850" cy="61.4339" r="0.0150" /> 
<circle cx="88.8651" cy="61.5522" r="0.0150" /> 
<circle cx="88.8437" cy="61.6703" r="0.0150" /> 
<circle cx="88.8206" cy="61.7880" r="0.0150" /> 
<circle cx="88.7960" cy="61.9055" r="0.0150" /> 
<circle cx="88.7698" cy="62.0226" r="0.0150" /> 
<circle cx="88.7420" cy="62.1393" r="0.0150" /> 
<circle cx="88.7127" cy="62.2557" r="0.0150" /> 
<circle cx="88.6819" cy="62.3717" r="0.0150" /> 
<circle cx="88.6495" cy="62.4872" r="0.0150" /> 
<circle cx="88.6156" cy="62.6023" r="0.0150" /> 
<circle cx="88.5801" cy="62.7169" r="0.0150" /> 
<circle cx="88.5431" cy="62.8311" r="0.0150" /> 
<circle cx="88.5046" cy="62.9448" r="0.0150" /> 
<circle cx="88.4646" cy="63.0579" r="0.0150" /> 
<circle cx="88.4231" cy="63.1705" r="0.0150" /> 
<circle cx="88.3801" cy="63.2825" r="0.0150" /> 
<circle cx="88.3355" cy="63.3939" r="0.0150" /> 
<circle cx="88.2895" cy="63.5048" r="0.0150" /> 
<circle cx="88.2421" cy="63.6150" r="0.0150" /> 
<circle cx="88.1932" cy="63.7245" r="0.0150" /> 
<circle cx="88.1428" cy="63.8335" r="0.0150" /> 
<circle cx="88.0909" cy="63.9417" r="0.0150" /> 
<circle cx="88.0377" cy="64.0492" r="0.0150" /> 
<circle cx="87.9830" cy="64.1560" r="0.0150" /> 
<circle cx="87.9268" cy="64.2621" r="0.0150" /> 
<circle cx="87.8693" cy="64.3674" r="0.0150" /> 
<circle cx="87.8104" cy="64.4719" r="0.0150" /> 
<circle cx="87.7501" cy="64.5757" r="0.0150" /> 
<circle cx="87.6884" cy="64.6786" r="0.0150" /> 
<circle cx="87.6253" cy="64.7807" r="0.0150" /> 
<circle cx="87.5609" cy="64.8819" r="0.0150" /> 
<circle cx="87.4951" cy="64.9823" r="0.0150" /> 
<circle cx="87.4280" cy="65.0818" r="0.0150" /> 
<circle cx="87.3596" cy="65.1804" r="0.0150" /> 
<circle cx="87.2899" cy="65.2780" r="0.0150" /> 
<circle cx="87.2189" cy="65.3748" r="0.0150" /> 
<circle cx="87.1466" cy="65.4705" r="0.0150" /> 
<circle cx="87.0730" cy="65.5653" r="0.0150" /> 
<circle cx="86.9982" cy="65.6591" r="0.0150" /> 
<circle cx="86.9221" cy="65.7519" r="0.0150" /> 
<circle cx="86.8448" cy="65.8437" r="0.0150" /> 
<circle cx="86.7663" cy="65.9345" r="0.0150" /> 
<circle cx="86.6865" cy="66.0241" r="0.0150" /> 
<circle cx="86.6056" cy="66.1128" r="0.0150" /> 
<circle cx="86.5235" cy="66.2003" r="0.0150" /> 
<circle cx="86.4403" cy="66.2867" r="0.0150" /> 
<circle cx="86.3559" cy="66.3720" r="0.0150" /> 
<circle cx="86.2704" cy="66.4562" r="0.0150" /> 
<circle cx="86.1837" cy="66.5392" r="0.0150" /> 
<circle cx="86.0960" cy="66.6211" r="0.0150" /> 
<circle cx="86.0072" cy="66.7018" r="0.0150" /> 
<circle cx="85.9173" cy="66.7813" r="0.0150" /> 
<circle cx="85.8263" cy="66.8596" r="0.0150" /> 
<circle cx="85.7344" cy="66.9366" r="0.0150" /> 
<circle cx="85.6414" cy="67.0125" r="0.0150" /> 
<circle cx="85.5474" cy="67.0871" r="0.0150" /> 
<circle cx="85.4524" cy="67.1604" r="0.0150" /> 
<circle cx="85.3564" cy="67.2325" r="0.0150" /> 
<circle cx="85.2595" cy="67.3032" r="0.0150" /> 
<circle cx="85.1617" cy="67.3727" r="0.0150" /> 
<circle cx="85.0629" cy="67.4409" r="0.0150" /> 
<circle cx="84.9633" cy="67.5077" r="0.0150" /> 
<circle cx="84.8627" cy="67.5732" r="0.0150" /> 
<circle cx="84.7613" cy="67.6374" r="0.0150" /> 
<circle cx="84.6591" cy="67.7002" r="0.0150" /> 
<circle cx="84.5560" cy="67.7616" r="0.0150" /> 
<circle cx="84.4521" cy="67.8217" r="0.0150" /> 
<circle cx="84.3474" cy="67.8804" r="0.0150" /> 
<circle cx="84.2420" cy="67.9376" r="0.0150" /> 
<circle cx="84.1357" cy="67.9935" r="0.0150" /> 
<circle cx="84.0288" cy="68.0479" r="0.0150" /> 
<circle cx="83.9211" cy="68.1009" r="0.0150" /> 
<circle cx="83.8128" cy="68.1525" r="0.0150" /> 
<circle cx="83.7037" cy="68.2026" r="0.0150" /> 
<circle cx="83.5941" cy="68.2512" r="0.0150" /> 
<circle cx="83.4837" cy="68.2984" r="0.0150" /> 
<circle cx="83.3728" cy="68.3441" r="0.0150" /> 
<circle cx="83.2612" cy="68.3884" r="0.0150" /> 
<circle cx="83.1491" cy="68.4311" r="0.0150" /> 
<circle cx="83.0364" cy="68.4723" r="0.0150" /> 
<circle cx="82.9232" cy="68.5121" r="0.0150" /> 
<circle cx="82.8094" cy="68.5503" r="0.0150" /> 
<circle cx="82.6952" cy="68.5870" r="0.0150" /> 
<circle cx="82.5804" cy="68.6221" r="0.0150" /> 
<circle cx="82.4652" cy="68.6558" r="0.0150" /> 
<circle cx="82.3496" cy="68.6879" r="0.0150" /> 
<circle cx="82.2336" cy="68.7184" r="0.0150" /> 
<circle cx="82.1171" cy="68.7474" r="0.0150" /> 
<circle cx="82.0003" cy="68.7749" r="0.0150" /> 
<circle cx="81.8831" cy="68.8008" r="0.0150" /> 
<circle cx="81.7656" cy="68.8251" r="0.0150" /> 
<circle cx="81.6478" cy="68.8479" r="0.0150" /> 
<circle cx="81.5297" cy="68.8690" r="0.0150" /> 
<circle cx="81.4113" cy="68.8887" r="0.0150" /> 
<circle cx="81.2927" cy="68.9067" r="0.0150" /> 
<circle cx="81.1738" cy="68.9231" r="0.0150" /> 
<circle cx="81.0547" cy="68.9380" r="0.0150" /> 
<circle cx="80.9355" cy="68.9513" r="0.0150" /> 
<circle cx="80.8160" cy="68.9629" r="0.0150" /> 
<circle cx="80.6965" cy="68.9730" r="0.0150" /> 
<circle cx="80.5768" cy="68.9815" r="0.0150" /> 
<circle cx="80.4570" cy="68.9884" r="0.0150" /> 
<circle cx="80.3371" cy="68.9937" r="0.0150" /> 
<circle cx="80.2171" cy="68.9974" r="0.0150" /> 
<circle cx="80.0972" cy="68.9995" r="0.0150" /> 
<circle cx="79.9772" cy="69.0000" r="0.0150" /> 
<circle cx="79.8572" cy="68.9989" r="0.0150" /> 
<circle cx="79.7372" cy="68.9962" r="0.0150" /> 
<circle cx="79.6173" cy="68.9919" r="0.0150" /> 
<circle cx="79.4974" cy="68.9860" r="0.0150" /> 
<circle cx="79.3777" cy="68.9785" r="0.0150" /> 
<circle cx="79.2580" cy="68.9694" r="0.0150" /> 
<circle cx="79.1385" cy="68.9587" r="0.0150" /> 
<circle cx="79.0191" cy="68.9464" r="0.0150" /> 
<circle cx="78.8999" cy="68.9325" r="0.0150" /> 
<circle cx="78.7809" cy="68.9171" r="0.0150" /> 
<circle cx="78.6621" cy="68.9000" r="0.0150" /> 
<circle cx="78.5436" cy="68.8814" r="0.0150" /> 
<circle cx="78.4253" cy="68.8612" r="0.0150" /> 
<circle cx="78.3073" cy="68.8394" r="0.0150" /> 
<circle cx="78.1896" cy="68.8160" r="0.0150" /> 
<circle cx="78.0722" cy="68.7911" r="0.0150" /> 
<circle cx="77.9552" cy="68.7646" r="0.0150" /> 
<circle cx="77.8385" cy="68.7366" r="0.0150" /> 
<circle cx="77.7222" cy="68.7070" r="0.0150" /> 
<circle cx="77.6063" cy="68.6758" r="0.0150" /> 
<circle cx="77.4909" cy="68.6432" r="0.0150" /> 
<circle cx="77.3758" cy="68.6089" r="0.0150" /> 
<circle cx="77.2613" cy="68.5732" r="0.0150" /> 
<circle cx="77.1472" cy="68.5359" r="0.0150" /> 
<circle cx="77.0337" cy="68.4971" r="0.0150" /> 
<circle cx="76.9207" cy="68.4568" r="0.0150" /> 
<circle cx="76.8082" cy="68.4150" r="0.0150" /> 
<circle cx="76.6963" cy="68.3717" r="0.0150" /> 
<circle cx="76.5849" cy="68.3269" r="0.0150" /> 
<circle cx="76.4742" cy="68.2806" r="0.0150" /> 
<circle cx="76.3641" cy="68.2329" r="0.0150" /> 
<circle cx="76.2547" cy="68.1837" r="0.0150" /> 
<circle cx="76.1459" cy="68.1330" r="0.0150" /> 
<circle cx="76.0378" cy="68.0809" r="0.0150" /> 
<circle cx="75.9304" cy="68.0274" r="0.0150" /> 
<circle cx="75.8237" cy="67.9724" r="0.0150" /> 
<circle cx="75.7178" cy="67.9160" r="0.0150" /> 
<circle cx="75.6127" cy="67.8582" r="0.0150" /> 
<circle cx="75.5083" cy="67.7990" r="0.0150" /> 
<circle cx="75.4047" cy="67.7384" r="0.0150" /> 
<circle cx="75.3019" cy="67.6765" r="0.0150" /> 
<circle cx="75.2000" cy="67.6131" r="0.0150" /> 
<circle cx="75.0989" cy="67.5485" r="0.0150" /> 
<circle cx="74.9987" cy="67.4825" r="0.0150" /> 
<circle cx="74.8994" cy="67.4151" r="0.0150" /> 
<circle cx="74.8010" cy="67.3464" r="0.0150" /> 
<circle cx="74.7035" cy="67.2765" r="0.0150" /> 
<circle cx="74.6069" cy="67.2052" r="0.0150" /> 
<circle cx="74.5114" cy="67.1327" r="0.0150" /> 
<circle cx="74.4167" cy="67.0588" r="0.0150" /> 
<circle cx="74.3231" cy="66.9838" r="0.0150" /> 
<circle cx="74.2305" cy="66.9075" r="0.0150" /> 
<circle cx="74.1389" cy="66.8299" r="0.0150" /> 
<circle cx="74.0484" cy="66.7512" r="0.0150" /> 
<circle cx="73.9589" cy="66.6712" r="0.0150" /> 
<circle cx="73.8705" cy="66.5901" r="0.0150" /> 
<circle cx="73.7832" cy="66.5078" r="0.0150" /> 
<circle cx="73.6970" cy="66.4243" r="0.0150" /> 
<circle cx="73.6119" cy="66.3397" r="0.0150" /> 
<circle cx="73.5279" cy="66.2540" r="0.0150" /> 
<circle cx="73.4451" cy="66.1671" r="0.0150" /> 
<circle cx="73.3635" cy="66.0792" r="0.0150" /> 
<circle cx="73.2830" cy="65.9901" r="0.0150" /> 
<circle cx="73.2037" cy="65.9001" r="0.0150" /> 
<circle cx="73.1257" cy="65.8089" r="0.0150" /> 
<circle cx="73.0488" cy="65.7167" r="0.0150" /> 
<circle cx="72.9732" cy="65.6236" r="0.0150" /> 
<circle cx="72.8989" cy="65.5294" r="0.0150" /> 
<circle cx="72.8258" cy="65.4342" r="0.0150" /> 
<circle cx="72.7540" cy="65.3381" r="0.0150" /> 
<circle cx="72.6834" cy="65.2410" r="0.0150" /> 
<circle cx="72.6142" cy="65.1430" r="0.0150" /> 
<circle cx="72.5463" cy="65.0440" r="0.0150" /> 
<circle cx="72.4797" cy="64.9442" r="0.0150" /> 
<circle cx="72.4144" cy="64.8435" r="0.0150" /> 
<circle cx="72.3505" cy="64.7419" r="0.0150" /> 
<circle cx="72.2880" cy="64.6395" r="0.0150" /> 
<circle cx="72.2268" cy="64.5363" r="0.0150" /> 
<circle cx="72.1670" cy="64.4322" r="0.0150" /> 
<circle cx="72.1086" cy="64.3274" r="0.0150" /> 
<circle cx="72.0516" cy="64.2218" r="0.0150" /> 
<circle cx="71.9961" cy="64.1155" r="0.0150" /> 
<circle cx="71.9419" cy="64.0084" r="0.0150" /> 
<circle cx="71.8892" cy="63.9006" r="0.0150" /> 
<circle cx="71.8379" cy="63.7921" r="0.0150" /> 
<circle cx="71.7881" cy="63.6829" r="0.0150" /> 
<circle cx="71.7397" cy="63.5731" r="0.0150" /> 
<circle cx="71.6928" cy="63.4627" r="0.0150" /> 
<circle cx="71.6473" cy="63.3516" r="0.0150" /> 
<circle cx="71.6034" cy="63.2399" r="0.0150" /> 
<circle cx="71.5609" cy="63.1277" r="0.0150" /> 
<circle cx="71.5200" cy="63.0149" r="0.0150" /> 
<circle cx="71.4806" cy="62.9016" r="0.0150" /> 
<circle cx="71.4426" cy="62.7877" r="0.0150" /> 
<circle cx="71.4062" cy="62.6734" r="0.0150" /> 
<circle cx="71.3713" cy="62.5586" r="0.0150" /> 
<circle cx="71.3380" cy="62.4433" r="0.0150" /> 
<circle cx="71.3062" cy="62.3276" r="0.0150" /> 
<circle cx="71.2759" cy="62.2115" r="0.0150" /> 
<circle cx="71.2472" cy="62.0949" r="0.0150" /> 
<circle cx="71.2201" cy="61.9781" r="0.0150" /> 
<circle cx="71.1945" cy="61.8608" r="0.0150" /> 
<circle cx="71.1704" cy="61.7432" r="0.0150" /> 
<circle cx="71.1480" cy="61.6254" r="0.0150" /> 
<circle cx="71.1271" cy="61.5072" r="0.0150" /> 
<circle cx="71.1078" cy="61.3888" r="0.0150" /> 
<circle cx="71.0901" cy="61.2701" r="0.0150" /> 
<circle cx="71.0739" cy="61.1512" r="0.0150" /> 
<circle cx="71.0594" cy="61.0321" r="0.0150" /> 
<circle cx="71.0464" cy="60.9128" r="0.0150" /> 
<circle cx="71.0350" cy="60.7933" r="0.0150" /> 
<circle cx="71.0252" cy="60.6737" r="0.0150" /> 
<circle cx="71.0171" cy="60.5540" r="0.0150" /> 
<circle cx="71.0105" cy="60.4342" r="0.0150" /> 
<circle cx="71.0055" cy="60.3143" r="0.0150" /> 
<circle cx="71.0021" cy="60.1943" r="0.0150" /> 
<circle cx="71.0003" cy="60.0743" r="0.0150" /> 
<circle cx="71.0001" cy="59.9543" r="0.0150" /> 
<circle cx="71.0015" cy="59.8343" r="0.0150" /> 
<circle cx="71.0045" cy="59.7144" r="0.0150" /> 
<circle cx="71.0091" cy="59.5945" r="0.0150" /> 
<circle cx="71.0153" cy="59.4746" r="0.0150" /> 
<circle cx="71.0232" cy="59.3549" r="0.0150" /> 
<circle cx="71.0325" cy="59.2353" r="0.0150" /> 
<circle cx="71.0435" cy="59.1158" r="0.0150" /> 
<circle cx="71.0561" cy="58.9964" r="0.0150" /> 
<circle cx="71.0703" cy="58.8773" r="0.0150" /> 
<circle cx="71.0861" cy="58.7583" r="0.0150" /> 
<circle cx="71.1034" cy="58.6396" r="0.0150" /> 
<circle cx="71.1223" cy="58.5211" r="0.0150" /> 
<circle cx="71.1429" cy="58.4028" r="0.0150" /> 
<circle cx="71.1649" cy="58.2849" r="0.0150" /> 
<circle cx="71.1886" cy="58.1672" r="0.0150" /> 
<circle cx="71.2138" cy="58.0499" r="0.0150" /> 
<circle cx="71.2406" cy="57.9330" r="0.0150" /> 
<circle cx="71.2689" cy="57.8163" r="0.0150" /> 
<circle cx="71.2988" cy="57.7001" r="0.0150" /> 
<circle cx="71.3303" cy="57.5843" r="0.0150" /> 
<circle cx="71.3632" cy="57.4689" r="0.0150" /> 
<circle cx="71.3977" cy="57.3540" r="0.0150" /> 
<circle cx="71.4338" cy="57.2396" r="0.0150" /> 
<circle cx="71.4714" cy="57.1256" r="0.0150" /> 
<circle cx="71.5104" cy="57.0121" r="0.0150" /> 
<circle cx="71.5510" cy="56.8992" r="0.0150" /> 
<circle cx="71.5931" cy="56.7868" r="0.0150" /> 
<circle cx="71.6367" cy="56.6750" r="0.0150" /> 
<circle cx="71.6818" cy="56.5638" r="0.0150" /> 
<circle cx="71.7283" cy="56.4532" r="0.0150" /> 
<circle cx="71.7764" cy="56.3432" r="0.0150" /> 
<circle cx="71.8259" cy="56.2339" r="0.0150" /> 
<circle cx="71.8768" cy="56.1253" r="0.0150" /> 
<circle cx="71.9292" cy="56.0173" r="0.0150" /> 
<circle cx="71.9830" cy="55.9101" r="0.0150" /> 
<circle cx="72.0382" cy="55.8035" r="0.0150" /> 
<circle cx="72.0949" cy="55.6978" r="0.0150" /> 
<circle cx="72.1530" cy="55.5927" r="0.0150" /> 
<circle cx="72.2124" cy="55.4885" r="0.0150" /> 
<circle cx="72.2733" cy="55.3851" r="0.0150" /> 
<circle cx="72.3355" cy="55.2825" r="0.0150" /> 
<circle cx="72.3991" cy="55.1807" r="0.0150" /> 
<circle cx="72.4640" cy="55.0798" r="0.0150" /> 
<circle cx="72.5303" cy="54.9797" r="0.0150" /> 
<circle cx="72.5979" cy="54.8806" r="0.0150" /> 
<circle cx="72.6668" cy="54.7824" r="0.0150" /> 
<circle cx="72.7370" cy="54.6850" r="0.0150" /> 
<circle cx="72.8085" cy="54.5887" r="0.0150" /> 
<circle cx="72.8813" cy="54.4933" r="0.0150" /> 
<circle cx="72.9553" cy="54.3989" r="0.0150" /> 
<circle cx="73.0306" cy="54.3054" r="0.0150" /> 
<circle cx="73.1072" cy="54.2130" r="0.0150" /> 
<circle cx="73.1850" cy="54.1216" r="0.0150" /> 
<circle cx="73.2639" cy="54.0313" r="0.0150" /> 
<circle cx="73.3441" cy="53.9420" r="0.0150" /> 
<circle cx="73.4255" cy="53.8538" r="0.0150" /> 
<circle cx="73.5080" cy="53.7667" r="0.0150" /> 
<circle cx="73.5917" cy="53.6807" r="0.0150" /> 
<circle cx="73.6765" cy="53.5958" r="0.0150" /> 
<circle cx="73.7625" cy="53.5121" r="0.0150" /> 
<circle cx="73.8495" cy="53.4295" r="0.0150" /> 
<circle cx="73.9377" cy="53.3481" r="0.0150" /> 
<circle cx="74.0269" cy="53.2678" r="0.0150" /> 
<circle cx="74.1172" cy="53.1888" r="0.0150" /> 
<circle cx="74.2085" cy="53.1109" r="0.0150" /> 
<circle cx="74.3009" cy="53.0343" r="0.0150" /> 
<circle cx="74.3943" cy="52.9590" r="0.0150" /> 
<circle cx="74.4887" cy="52.8849" r="0.0150" /> 
<circle cx="74.5840" cy="52.8120" r="0.0150" /> 
<circle cx="74.6803" cy="52.7404" r="0.0150" /> 
<circle cx="74.7776" cy="52.6702" r="0.0150" /> 
<circle cx="74.8758" cy="52.6012" r="0.0150" /> 
<circle cx="74.9749" cy="52.5335" r="0.0150" /> 
<circle cx="75.0749" cy="52.4672" r="0.0150" /> 
<circle cx="75.1758" cy="52.4022" r="0.0150" /> 
<circle cx="75.2775" cy="52.3385" r="0.0150" /> 
<circle cx="75.3801" cy="52.2763" r="0.0150" /> 
<circle cx="75.4835" cy="52.2153" r="0.0150" /> 
<circle cx="75.5877" cy="52.1558" r="0.0150" /> 
<circle cx="75.6926" cy="52.0977" r="0.0150" /> 
<circle cx="75.7984" cy="52.0410" r="0.0150" /> 
<circle cx="75.9049" cy="51.9856" r="0.0150" /> 
<circle cx="76.0121" cy="51.9318" r="0.0150" /> 
<circle cx="76.1200" cy="51.8793" r="0.0150" /> 
<circle cx="76.2286" cy="51.8283" r="0.0150" /> 
<circle cx="76.3379" cy="51.7787" r="0.0150" /> 
<circle cx="76.4479" cy="51.7306" r="0.0150" /> 
<circle cx="76.5584" cy="51.6840" r="0.0150" /> 
<circle cx="76.6696" cy="51.6389" r="0.0150" /> 
<circle cx="76.7814" cy="51.5952" r="0.0150" /> 
<circle cx="76.8937" cy="51.5530" r="0.0150" /> 
<circle cx="77.0066" cy="51.5124" r="0.0150" /> 
<circle cx="77.1201" cy="51.4732" r="0.0150" /> 
<circle cx="77.2340" cy="51.4356" r="0.0150" /> 
<circle cx="77.3484" cy="51.3995" r="0.0150" /> 
<circle cx="77.4633" cy="51.3649" r="0.0150" /> 
<circle cx="77.5787" cy="51.3318" r="0.0150" /> 
<circle cx="77.6945" cy="51.3003" r="0.0150" /> 
<circle cx="77.8107" cy="51.2703" r="0.0150" /> 
<circle cx="77.9273" cy="51.2419" r="0.0150" /> 
<circle cx="78.0442" cy="51.2151" r="0.0150" /> 
<circle cx="78.1615" cy="51.1898" r="0.0150" /> 
<circle cx="78.2792" cy="51.1660" r="0.0150" /> 
<circle cx="78.3971" cy="51.1439" r="0.0150" /> 
<circle cx="78.5153" cy="51.1233" r="0.0150" /> 
<circle cx="78.6338" cy="51.1043" r="0.0150" /> 
<circle cx="78.7525" cy="51.0869" r="0.0150" /> 
<circle cx="78.8715" cy="51.0710" r="0.0150" /> 
<circle cx="78.9906" cy="51.0568" r="0.0150" /> 
<circle cx="79.1100" cy="51.0441" r="0.0150" /> 
<circle cx="79.2294" cy="51.0330" r="0.0150" /> 
<circle cx="79.3491" cy="51.0236" r="0.0150" /> 
<circle cx="79.4688" cy="51.0157" r="0.0150" /> 
<circle cx="79.5886" cy="51.0094" r="0.0150" /> 
<circle cx="79.7086" cy="51.0047" r="0.0150" /> 
<circle cx="79.8285" cy="51.0016" r="0.0150" /> 
<circle cx="79.9485" cy="51.0001" r="0.0150" /> 
<circle cx="80.0685" cy="51.0003" r="0.0150" /> 
<circle cx="80.1885" cy="51.0020" r="0.0150" /> 
<circle cx="80.3084" cy="51.0053" r="0.0150" /> 
<circle cx="80.4283" cy="51.0102" r="0.0150" /> 
<circle cx="80.5482" cy="51.0167" r="0.0150" /> 
<circle cx="80.6679" cy="51.0248" r="0.0150" /> 
<circle cx="80.7875" cy="51.0345" r="0.0150" /> 
<circle cx="80.9070" cy="51.0458" r="0.0150" /> 
<circle cx="81.0263" cy="51.0587" r="0.0150" /> 
<circle cx="81.1454" cy="51.0732" r="0.0150" /> 
<circle cx="81.2643" cy="51.0892" r="0.0150" /> 
<circle cx="81.3830" cy="51.1069" r="0.0150" /> 
<circle cx="81.5014" cy="51.1261" r="0.0150" /> 
<circle cx="81.6196" cy="51.1469" r="0.0150" /> 
<circle cx="81.7375" cy="51.1693" r="0.0150" /> 
<circle cx="81.8551" cy="51.1933" r="0.0150" /> 
<circle cx="81.9724" cy="51.2188" r="0.0150" /> 
<circle cx="82.0893" cy="51.2459" r="0.0150" /> 
<circle cx="82.2058" cy="51.2745" r="0.0150" /> 
<circle cx="82.3219" cy="51.3047" r="0.0150" /> 
<circle cx="82.4377" cy="51.3364" r="0.0150" /> 
<circle cx="82.5530" cy="51.3697" r="0.0150" /> 
<circle cx="82.6678" cy="51.4045" r="0.0150" /> 
<circle cx="82.7822" cy="51.4408" r="0.0150" /> 
<circle cx="82.8960" cy="51.4787" r="0.0150" /> 
<circle cx="83.0094" cy="51.5180" r="0.0150" /> 
<circle cx="83.1222" cy="51.5589" r="0.0150" /> 
<circle cx="83.2345" cy="51.6013" r="0.0150" /> 
<circle cx="83.3462" cy="51.6452" r="0.0150" /> 
<circle cx="83.4573" cy="51.6905" r="0.0150" /> 
<circle cx="83.5678" cy="51.7374" r="0.0150" /> 
<circle cx="83.6776" cy="51.7857" r="0.0150" /> 
<circle cx="83.7868" cy="51.8354" r="0.0150" /> 
<circle cx="83.8953" cy="51.8866" r="0.0150" /> 
<circle cx="84.0031" cy="51.9393" r="0.0150" /> 
<circle cx="84.1103" cy="51.9934" r="0.0150" /> 
<circle cx="84.2167" cy="52.0489" r="0.0150" /> 
<circle cx="84.3223" cy="52.1058" r="0.0150" /> 
<circle cx="84.4272" cy="52.1642" r="0.0150" /> 
<circle cx="84.5312" cy="52.2239" r="0.0150" /> 
<circle cx="84.6345" cy="52.2850" r="0.0150" /> 
<circle cx="84.7370" cy="52.3475" r="0.0150" /> 
<circle cx="84.8386" cy="52.4113" r="0.0150" /> 
<circle cx="84.9393" cy="52.4765" r="0.0150" /> 
<circle cx="85.0392" cy="52.5430" r="0.0150" /> 
<circle cx="85.1382" cy="52.6109" r="0.0150" /> 
<circle cx="85.2362" cy="52.6800" r="0.0150" /> 
<circle cx="85.3334" cy="52.7505" r="0.0150" /> 
<circle cx="85.4295" cy="52.8223" r="0.0150" /> 
<circle cx="85.5248" cy="52.8953" r="0.0150" /> 
<circle cx="85.6190" cy="52.9696" r="0.0150" /> 
<circle cx="85.7122" cy="53.0451" r="0.0150" /> 
<circle cx="85.8045" cy="53.1219" r="0.0150" /> 
<circle cx="85.8956" cy="53.1999" r="0.0150" /> 
<circle cx="85.9858" cy="53.2791" r="0.0150" /> 
<circle cx="86.0749" cy="53.3595" r="0.0150" /> 
<circle cx="86.1629" cy="53.4411" r="0.0150" /> 
<circle cx="86.2498" cy="53.5239" r="0.0150" /> 
<circle cx="86.3356" cy="53.6078" r="0.0150" /> 
<circle cx="86.4202" cy="53.6928" r="0.0150" /> 
<circle cx="86.5037" cy="53.7790" r="0.0150" /> 
<circle cx="86.5861" cy="53.8662" r="0.0150" /> 
<circle cx="86.6673" cy="53.9546" r="0.0150" /> 
<circle cx="86.7473" cy="54.0440" r="0.0150" /> 
<circle cx="86.8261" cy="54.1345" r="0.0150" /> 
<circle cx="86.9037" cy="54.2260" r="0.0150" /> 
<circle cx="86.9801" cy="54.3186" r="0.0150" /> 
<circle cx="87.0552" cy="54.4122" r="0.0150" /> 
<circle cx="87.1291" cy="54.5067" r="0.0150" /> 
<circle cx="87.2017" cy="54.6023" r="0.0150" /> 
<circle cx="87.2730" cy="54.6988" r="0.0150" /> 
<circle cx="87.3431" cy="54.7962" r="0.0150" /> 
<circle cx="87.4118" cy="54.8946" r="0.0150" /> 
<circle cx="87.4792" cy="54.9939" r="0.0150" /> 
<circle cx="87.5453" cy="55.0940" r="0.0150" /> 
<circle cx="87.6100" cy="55.1951" r="0.0150" /> 
<circle cx="87.6734" cy="55.2969" r="0.0150" /> 
<circle cx="87.7354" cy="55.3997" r="0.0150" /> 
<circle cx="87.7961" cy="55.5032" r="0.0150" /> 
<circle cx="87.8554" cy="55.6076" r="0.0150" /> 
<circle cx="87.9132" cy="55.7127" r="0.0150" /> 
<circle cx="87.9697" cy="55.8186" r="0.0150" /> 
<circle cx="88.0247" cy="55.9252" r="0.0150" /> 
<circle cx="88.0783" cy="56.0326" r="0.0150" /> 
<circle cx="88.1305" cy="56.1406" r="0.0150" /> 
<circle cx="88.1812" cy="56.2494" r="0.0150" /> 
<circle cx="88.2305" cy="56.3588" r="0.0150" /> 
<circle cx="88.2783" cy="56.4688" r="0.0150" /> 
<circle cx="88.3247" cy="56.5795" r="0.0150" /> 
<circle cx="88.3696" cy="56.6908" r="0.0150" /> 
<circle cx="88.4129" cy="56.8027" r="0.0150" /> 
<circle cx="88.4548" cy="56.9152" r="0.0150" /> 
<circle cx="88.4952" cy="57.0282" r="0.0150" /> 
<circle cx="88.5341" cy="57.1417" r="0.0150" /> 
<circle cx="88.5714" cy="57.2557" r="0.0150" /> 
<circle cx="88.6072" cy="57.3703" r="0.0150" /> 
<circle cx="88.6415" cy="57.4853" r="0.0150" /> 
<circle cx="88.6743" cy="57.6007" r="0.0150" /> 
<circle cx="88.7055" cy="57.7166" r="0.0150" /> 
<circle cx="88.7352" cy="57.8328" r="0.0150" /> 
<circle cx="88.7633" cy="57.9495" r="0.0150" /> 
<circle cx="88.7899" cy="58.0665" r="0.0150" /> 
<circle cx="88.8149" cy="58.1839" r="0.0150" /> 
<circle cx="88.8383" cy="58.3016" r="0.0150" /> 
<circle cx="88.8601" cy="58.4196" r="0.0150" /> 
<circle cx="88.8804" cy="58.5378" r="0.0150" /> 
<circle cx="88.8991" cy="58.6564" r="0.0150" /> 
<circle cx="88.9163" cy="58.7751" r="0.0150" /> 
<circle cx="88.9318" cy="58.8941" r="0.0150" /> 
<circle cx="88.9458" cy="59.0133" r="0.0150" /> 
<circle cx="88.9581" cy="59.1327" r="0.0150" /> 
<circle cx="88.9689" cy="59.2522" r="0.0150" /> 
<circle cx="88.9781" cy="59.3718" r="0.0150" /> 
<circle cx="88.9856" cy="59.4916" r="0.0150" /> 
<circle cx="88.9916" cy="59.6115" r="0.0150" /> 
<circle cx="88.9960" cy="59.7314" r="0.0150" /> 
<circle cx="88.9988" cy="59.8513" r="0.0150" /> 
<circle cx="89.0000" cy="59.9713" r="0.0150" /> 
</g>
<g style="fill:#000000; fill-opacity:1.0000; 
stroke:#000000; stroke-width:0.0500; stroke-opacity:1; 
stroke-linecap:round; stroke-linejoin:round;">
</g>
<g style="fill:#000000; fill-opacity:0.0; 
stroke:#000000; stroke-width:0.0500; stroke-opacity:1; 
stroke-linecap:round; stroke-linejoin:round;">
<path d="M84.0415 67.0000
L84.3165 66.5237
" />
<path d="M84.4165 66.3505
L84.6915 65.8742
" />
<path d="M84.7915 65.7010
L85.0665 65.2246
" />
<path d="M85.1665 65.0514
L85.4415 64.5751
" />
<path d="M85.5415 64.4019
L85.8165 63.9256
" />
<path d="M85.9165 63.7524
L86.1915 63.2761
" />
<path d="M86.2915 63.1029
L86.5665 62.6266
" />
<path d="M86.6665 62.4534
L86.9415 61.9771
" />
<path d="M87.0415 61.8038
L87.3165 61.3275
" />
<path d="M87.4165 61.1543
L87.6915 60.6780
" />
<path d="M87.7915 60.5048
L88.0665 60.0285
" />
<g >
</g>
<g >
</g>
<g >
</g>
<g >
</g>
<g >
</g>
<g >
</g>
<g >
</g>
<g >
</g>
<g >
</g>
<g >
</g>
<g >
</g>
<g >
</g>
<g >
</g>
<g >
</g>
<g >
</g>
<g >
</g>
<g >
</g>
<g >
</g>
<g >
</g>
</g> 
</svg>
