  0
SECTION
  2
HEADER
  9
$ANGBASE
  50
0.0
  9
$ANGDIR
  70
1
  9
$MEASUREMENT
  70
0
  0
ENDSEC
  0
SECTION
  2
TABLES
  0
TABLE
  2
LTYPE
  70
4
  0
LTYPE
  5
40F
  2
CONTINUOUS
  70
0
  3
Solid line
  72
65
  73
0
  40
0.0
  0
LTYPE
  5
410
  2
DASHDOT
 70
0
  3
Dash Dot ____ _ ____ _
 72
65
 73
4
 40
2.0
 49
1.25
 49
-0.25
 49
0.25
 49
-0.25
  0
LTYPE
  5
411
  2
DASHED
 70
0
  3
Dashed __ __ __ __ __
 72
65
 73
2
 40
0.75
 49
0.5
 49
-0.25
  0
LTYPE
  5
43B
  2
DOTTED
 70
0
  3
Dotted .  .  .  .
 72
65
 73
2
 40
0.2
 49
0.0
 49
-0.2
  0
ENDTAB
  0
TABLE
  2
STYLE
  70
4
  0
STYLE
  2
KICAD
  70
0
  40
0
  41
1
  42
1
  50
0
  71
0
  3
isocp.shx
  0
STYLE
  2
KICADB
  70
0
  40
0
  41
1
  42
1
  50
0
  71
0
  3
isocp.shx
  0
STYLE
  2
KICADI
  70
0
  40
0
  41
1
  42
1
  50
15
  71
0
  3
isocp.shx
  0
STYLE
  2
KICADBI
  70
0
  40
0
  41
1
  42
1
  50
15
  71
0
  3
isocp.shx
  0
ENDTAB
  0
TABLE
  2
LAYER
  70
1
  0
LAYER
  2
BLACK
  70
0
  62
7
  6
CONTINUOUS
  0
ENDTAB
  0
ENDSEC
  0
SECTION
  2
ENTITIES
0
LINE
8
BLACK
6
CONTINUOUS
10
3.20246
20
-2.67156
11
3.20315
21
-2.67323
0
LINE
8
BLACK
6
CONTINUOUS
10
3.20315
20
-2.67323
11
3.20315
21
-2.75984
0
LINE
8
BLACK
6
CONTINUOUS
10
3.20315
20
-2.75984
11
3.20246
21
-2.76151
0
LINE
8
BLACK
6
CONTINUOUS
10
3.20246
20
-2.76151
11
3.20079
21
-2.7622
0
LINE
8
BLACK
6
CONTINUOUS
10
3.20079
20
-2.7622
11
3.19912
21
-2.76151
0
LINE
8
BLACK
6
CONTINUOUS
10
3.19912
20
-2.76151
11
3.19843
21
-2.75984
0
LINE
8
BLACK
6
CONTINUOUS
10
3.19843
20
-2.75984
11
3.19843
21
-2.67323
0
LINE
8
BLACK
6
CONTINUOUS
10
3.19843
20
-2.67323
11
3.19912
21
-2.67156
0
LINE
8
BLACK
6
CONTINUOUS
10
3.19912
20
-2.67156
11
3.20079
21
-2.67087
0
LINE
8
BLACK
6
CONTINUOUS
10
3.20079
20
-2.67087
11
3.20246
21
-2.67156
0
LINE
8
BLACK
6
CONTINUOUS
10
3.04543
20
-2.73653
11
3.04559
21
-2.73652
0
LINE
8
BLACK
6
CONTINUOUS
10
3.04559
20
-2.73652
11
3.0484
21
-2.73746
0
LINE
8
BLACK
6
CONTINUOUS
10
3.0484
20
-2.73746
11
3.04857
21
-2.73761
0
LINE
8
BLACK
6
CONTINUOUS
10
3.04857
20
-2.73761
11
3.04878
21
-2.73769
0
LINE
8
BLACK
6
CONTINUOUS
10
3.04878
20
-2.73769
11
3.05066
21
-2.73957
0
LINE
8
BLACK
6
CONTINUOUS
10
3.05066
20
-2.73957
11
3.05072
21
-2.73972
0
LINE
8
BLACK
6
CONTINUOUS
10
3.05072
20
-2.73972
11
3.05084
21
-2.73983
0
LINE
8
BLACK
6
CONTINUOUS
10
3.05084
20
-2.73983
11
3.05178
21
-2.7417
0
LINE
8
BLACK
6
CONTINUOUS
10
3.05178
20
-2.7417
11
3.05179
21
-2.74181
0
LINE
8
BLACK
6
CONTINUOUS
10
3.05179
20
-2.74181
11
3.05185
21
-2.7419
0
LINE
8
BLACK
6
CONTINUOUS
10
3.05185
20
-2.7419
11
3.05279
21
-2.74565
0
LINE
8
BLACK
6
CONTINUOUS
10
3.05279
20
-2.74565
11
3.05277
21
-2.74577
0
LINE
8
BLACK
6
CONTINUOUS
10
3.05277
20
-2.74577
11
3.05282
21
-2.74589
0
LINE
8
BLACK
6
CONTINUOUS
10
3.05282
20
-2.74589
11
3.05282
21
-2.7487
0
LINE
8
BLACK
6
CONTINUOUS
10
3.05282
20
-2.7487
11
3.05277
21
-2.74882
0
LINE
8
BLACK
6
CONTINUOUS
10
3.05277
20
-2.74882
11
3.05279
21
-2.74894
0
LINE
8
BLACK
6
CONTINUOUS
10
3.05279
20
-2.74894
11
3.05185
21
-2.75269
0
LINE
8
BLACK
6
CONTINUOUS
10
3.05185
20
-2.75269
11
3.05179
21
-2.75278
0
LINE
8
BLACK
6
CONTINUOUS
10
3.05179
20
-2.75278
11
3.05178
21
-2.75289
0
LINE
8
BLACK
6
CONTINUOUS
10
3.05178
20
-2.75289
11
3.05084
21
-2.75477
0
LINE
8
BLACK
6
CONTINUOUS
10
3.05084
20
-2.75477
11
3.05072
21
-2.75487
0
LINE
8
BLACK
6
CONTINUOUS
10
3.05072
20
-2.75487
11
3.05066
21
-2.75502
0
LINE
8
BLACK
6
CONTINUOUS
10
3.05066
20
-2.75502
11
3.04878
21
-2.7569
0
LINE
8
BLACK
6
CONTINUOUS
10
3.04878
20
-2.7569
11
3.04857
21
-2.75698
0
LINE
8
BLACK
6
CONTINUOUS
10
3.04857
20
-2.75698
11
3.0484
21
-2.75713
0
LINE
8
BLACK
6
CONTINUOUS
10
3.0484
20
-2.75713
11
3.04559
21
-2.75807
0
LINE
8
BLACK
6
CONTINUOUS
10
3.04559
20
-2.75807
11
3.04543
21
-2.75806
0
LINE
8
BLACK
6
CONTINUOUS
10
3.04543
20
-2.75806
11
3.04528
21
-2.75812
0
LINE
8
BLACK
6
CONTINUOUS
10
3.04528
20
-2.75812
11
3.04059
21
-2.75812
0
LINE
8
BLACK
6
CONTINUOUS
10
3.04059
20
-2.75812
11
3.03989
21
-2.75783
0
LINE
8
BLACK
6
CONTINUOUS
10
3.03989
20
-2.75783
11
3.0396
21
-2.75714
0
LINE
8
BLACK
6
CONTINUOUS
10
3.0396
20
-2.75714
11
3.0396
21
-2.75714
0
LINE
8
BLACK
6
CONTINUOUS
10
3.0396
20
-2.75714
11
3.0396
21
-2.73745
0
LINE
8
BLACK
6
CONTINUOUS
10
3.0396
20
-2.73745
11
3.03989
21
-2.73676
0
LINE
8
BLACK
6
CONTINUOUS
10
3.03989
20
-2.73676
11
3.04059
21
-2.73647
0
LINE
8
BLACK
6
CONTINUOUS
10
3.04059
20
-2.73647
11
3.04528
21
-2.73647
0
LINE
8
BLACK
6
CONTINUOUS
10
3.04528
20
-2.73647
11
3.04543
21
-2.73653
0
LINE
8
BLACK
6
CONTINUOUS
10
3.04157
20
-2.75615
11
3.04512
21
-2.75615
0
LINE
8
BLACK
6
CONTINUOUS
10
3.04512
20
-2.75615
11
3.04756
21
-2.75534
0
LINE
8
BLACK
6
CONTINUOUS
10
3.04756
20
-2.75534
11
3.04915
21
-2.75374
0
LINE
8
BLACK
6
CONTINUOUS
10
3.04915
20
-2.75374
11
3.04997
21
-2.75211
0
LINE
8
BLACK
6
CONTINUOUS
10
3.04997
20
-2.75211
11
3.05085
21
-2.74858
0
LINE
8
BLACK
6
CONTINUOUS
10
3.05085
20
-2.74858
11
3.05085
21
-2.74601
0
LINE
8
BLACK
6
CONTINUOUS
10
3.05085
20
-2.74601
11
3.04997
21
-2.74248
0
LINE
8
BLACK
6
CONTINUOUS
10
3.04997
20
-2.74248
11
3.04915
21
-2.74085
0
LINE
8
BLACK
6
CONTINUOUS
10
3.04915
20
-2.74085
11
3.04756
21
-2.73925
0
LINE
8
BLACK
6
CONTINUOUS
10
3.04756
20
-2.73925
11
3.04512
21
-2.73844
0
LINE
8
BLACK
6
CONTINUOUS
10
3.04512
20
-2.73844
11
3.04157
21
-2.73844
0
LINE
8
BLACK
6
CONTINUOUS
10
3.04157
20
-2.73844
11
3.04157
21
-2.75615
0
LINE
8
BLACK
6
CONTINUOUS
10
3.06705
20
-2.73656
11
3.06728
21
-2.73657
0
LINE
8
BLACK
6
CONTINUOUS
10
3.06728
20
-2.73657
11
3.06915
21
-2.73751
0
LINE
8
BLACK
6
CONTINUOUS
10
3.06915
20
-2.73751
11
3.06926
21
-2.73763
0
LINE
8
BLACK
6
CONTINUOUS
10
3.06926
20
-2.73763
11
3.06941
21
-2.73769
0
LINE
8
BLACK
6
CONTINUOUS
10
3.06941
20
-2.73769
11
3.07034
21
-2.73863
0
LINE
8
BLACK
6
CONTINUOUS
10
3.07034
20
-2.73863
11
3.07041
21
-2.73878
0
LINE
8
BLACK
6
CONTINUOUS
10
3.07041
20
-2.73878
11
3.07053
21
-2.73889
0
LINE
8
BLACK
6
CONTINUOUS
10
3.07053
20
-2.73889
11
3.07147
21
-2.74076
0
LINE
8
BLACK
6
CONTINUOUS
10
3.07147
20
-2.74076
11
3.07148
21
-2.74099
0
LINE
8
BLACK
6
CONTINUOUS
10
3.07148
20
-2.74099
11
3.07157
21
-2.7412
0
LINE
8
BLACK
6
CONTINUOUS
10
3.07157
20
-2.7412
11
3.07157
21
-2.74308
0
LINE
8
BLACK
6
CONTINUOUS
10
3.07157
20
-2.74308
11
3.07151
21
-2.74323
0
LINE
8
BLACK
6
CONTINUOUS
10
3.07151
20
-2.74323
11
3.07152
21
-2.74339
0
LINE
8
BLACK
6
CONTINUOUS
10
3.07152
20
-2.74339
11
3.07058
21
-2.7462
0
LINE
8
BLACK
6
CONTINUOUS
10
3.07058
20
-2.7462
11
3.07043
21
-2.74637
0
LINE
8
BLACK
6
CONTINUOUS
10
3.07043
20
-2.74637
11
3.07034
21
-2.74659
0
LINE
8
BLACK
6
CONTINUOUS
10
3.07034
20
-2.74659
11
3.06078
21
-2.75615
0
LINE
8
BLACK
6
CONTINUOUS
10
3.06078
20
-2.75615
11
3.07058
21
-2.75615
0
LINE
8
BLACK
6
CONTINUOUS
10
3.07058
20
-2.75615
11
3.07128
21
-2.75644
0
LINE
8
BLACK
6
CONTINUOUS
10
3.07128
20
-2.75644
11
3.07157
21
-2.75714
0
LINE
8
BLACK
6
CONTINUOUS
10
3.07157
20
-2.75714
11
3.07128
21
-2.75783
0
LINE
8
BLACK
6
CONTINUOUS
10
3.07128
20
-2.75783
11
3.07058
21
-2.75812
0
LINE
8
BLACK
6
CONTINUOUS
10
3.07058
20
-2.75812
11
3.0584
21
-2.75812
0
LINE
8
BLACK
6
CONTINUOUS
10
3.0584
20
-2.75812
11
3.0577
21
-2.75783
0
LINE
8
BLACK
6
CONTINUOUS
10
3.0577
20
-2.75783
11
3.05741
21
-2.75714
0
LINE
8
BLACK
6
CONTINUOUS
10
3.05741
20
-2.75714
11
3.0577
21
-2.75644
0
LINE
8
BLACK
6
CONTINUOUS
10
3.0577
20
-2.75644
11
3.06879
21
-2.74536
0
LINE
8
BLACK
6
CONTINUOUS
10
3.06879
20
-2.74536
11
3.0696
21
-2.74292
0
LINE
8
BLACK
6
CONTINUOUS
10
3.0696
20
-2.74292
11
3.0696
21
-2.74144
0
LINE
8
BLACK
6
CONTINUOUS
10
3.0696
20
-2.74144
11
3.06884
21
-2.73991
0
LINE
8
BLACK
6
CONTINUOUS
10
3.06884
20
-2.73991
11
3.06813
21
-2.7392
0
LINE
8
BLACK
6
CONTINUOUS
10
3.06813
20
-2.7392
11
3.0666
21
-2.73844
0
LINE
8
BLACK
6
CONTINUOUS
10
3.0666
20
-2.73844
11
3.06238
21
-2.73844
0
LINE
8
BLACK
6
CONTINUOUS
10
3.06238
20
-2.73844
11
3.06086
21
-2.7392
0
LINE
8
BLACK
6
CONTINUOUS
10
3.06086
20
-2.7392
11
3.06003
21
-2.74002
0
LINE
8
BLACK
6
CONTINUOUS
10
3.06003
20
-2.74002
11
3.05934
21
-2.74031
0
LINE
8
BLACK
6
CONTINUOUS
10
3.05934
20
-2.74031
11
3.05864
21
-2.74002
0
LINE
8
BLACK
6
CONTINUOUS
10
3.05864
20
-2.74002
11
3.05835
21
-2.73933
0
LINE
8
BLACK
6
CONTINUOUS
10
3.05835
20
-2.73933
11
3.05864
21
-2.73863
0
LINE
8
BLACK
6
CONTINUOUS
10
3.05864
20
-2.73863
11
3.05958
21
-2.73769
0
LINE
8
BLACK
6
CONTINUOUS
10
3.05958
20
-2.73769
11
3.05973
21
-2.73763
0
LINE
8
BLACK
6
CONTINUOUS
10
3.05973
20
-2.73763
11
3.05983
21
-2.73751
0
LINE
8
BLACK
6
CONTINUOUS
10
3.05983
20
-2.73751
11
3.06171
21
-2.73657
0
LINE
8
BLACK
6
CONTINUOUS
10
3.06171
20
-2.73657
11
3.06194
21
-2.73656
0
LINE
8
BLACK
6
CONTINUOUS
10
3.06194
20
-2.73656
11
3.06215
21
-2.73647
0
LINE
8
BLACK
6
CONTINUOUS
10
3.06215
20
-2.73647
11
3.06684
21
-2.73647
0
LINE
8
BLACK
6
CONTINUOUS
10
3.06684
20
-2.73647
11
3.06705
21
-2.73656
0
LINE
8
BLACK
6
CONTINUOUS
10
3.1001
20
-2.68337
11
3.10079
21
-2.68504
0
LINE
8
BLACK
6
CONTINUOUS
10
3.10079
20
-2.68504
11
3.10079
21
-2.74803
0
LINE
8
BLACK
6
CONTINUOUS
10
3.10079
20
-2.74803
11
3.1001
21
-2.7497
0
LINE
8
BLACK
6
CONTINUOUS
10
3.1001
20
-2.7497
11
3.09843
21
-2.75039
0
LINE
8
BLACK
6
CONTINUOUS
10
3.09843
20
-2.75039
11
3.09675
21
-2.7497
0
LINE
8
BLACK
6
CONTINUOUS
10
3.09675
20
-2.7497
11
3.09606
21
-2.74803
0
LINE
8
BLACK
6
CONTINUOUS
10
3.09606
20
-2.74803
11
3.09606
21
-2.68504
0
LINE
8
BLACK
6
CONTINUOUS
10
3.09606
20
-2.68504
11
3.09675
21
-2.68337
0
LINE
8
BLACK
6
CONTINUOUS
10
3.09675
20
-2.68337
11
3.09843
21
-2.68268
0
LINE
8
BLACK
6
CONTINUOUS
10
3.09843
20
-2.68268
11
3.1001
21
-2.68337
0
LINE
8
BLACK
6
CONTINUOUS
10
3.43942
20
-2.61797
11
3.43952
21
-2.61802
0
LINE
8
BLACK
6
CONTINUOUS
10
3.43952
20
-2.61802
11
3.43963
21
-2.61801
0
LINE
8
BLACK
6
CONTINUOUS
10
3.43963
20
-2.61801
11
3.44334
21
-2.61907
0
LINE
8
BLACK
6
CONTINUOUS
10
3.44334
20
-2.61907
11
3.44344
21
-2.61915
0
LINE
8
BLACK
6
CONTINUOUS
10
3.44344
20
-2.61915
11
3.44356
21
-2.61916
0
LINE
8
BLACK
6
CONTINUOUS
10
3.44356
20
-2.61916
11
3.446
21
-2.62057
0
LINE
8
BLACK
6
CONTINUOUS
10
3.446
20
-2.62057
11
3.44608
21
-2.62067
0
LINE
8
BLACK
6
CONTINUOUS
10
3.44608
20
-2.62067
11
3.44619
21
-2.62072
0
LINE
8
BLACK
6
CONTINUOUS
10
3.44619
20
-2.62072
11
3.44897
21
-2.6234
0
LINE
8
BLACK
6
CONTINUOUS
10
3.44897
20
-2.6234
11
3.44901
21
-2.6235
0
LINE
8
BLACK
6
CONTINUOUS
10
3.44901
20
-2.6235
11
3.44911
21
-2.62357
0
LINE
8
BLACK
6
CONTINUOUS
10
3.44911
20
-2.62357
11
3.45026
21
-2.62532
0
LINE
8
BLACK
6
CONTINUOUS
10
3.45026
20
-2.62532
11
3.45029
21
-2.62548
0
LINE
8
BLACK
6
CONTINUOUS
10
3.45029
20
-2.62548
11
3.45039
21
-2.6256
0
LINE
8
BLACK
6
CONTINUOUS
10
3.45039
20
-2.6256
11
3.45108
21
-2.62816
0
LINE
8
BLACK
6
CONTINUOUS
10
3.45108
20
-2.62816
11
3.45105
21
-2.62839
0
LINE
8
BLACK
6
CONTINUOUS
10
3.45105
20
-2.62839
11
3.45109
21
-2.62862
0
LINE
8
BLACK
6
CONTINUOUS
10
3.45109
20
-2.62862
11
3.4505
21
-2.63152
0
LINE
8
BLACK
6
CONTINUOUS
10
3.4505
20
-2.63152
11
3.45041
21
-2.63166
0
LINE
8
BLACK
6
CONTINUOUS
10
3.45041
20
-2.63166
11
3.45039
21
-2.63182
0
LINE
8
BLACK
6
CONTINUOUS
10
3.45039
20
-2.63182
11
3.44804
21
-2.63587
0
LINE
8
BLACK
6
CONTINUOUS
10
3.44804
20
-2.63587
11
3.44744
21
-2.63633
0
LINE
8
BLACK
6
CONTINUOUS
10
3.44744
20
-2.63633
11
3.4467
21
-2.63624
0
LINE
8
BLACK
6
CONTINUOUS
10
3.4467
20
-2.63624
11
3.42965
21
-2.62639
0
LINE
8
BLACK
6
CONTINUOUS
10
3.42965
20
-2.62639
11
3.42919
21
-2.62579
0
LINE
8
BLACK
6
CONTINUOUS
10
3.42919
20
-2.62579
11
3.42929
21
-2.62505
0
LINE
8
BLACK
6
CONTINUOUS
10
3.42929
20
-2.62505
11
3.43163
21
-2.62099
0
LINE
8
BLACK
6
CONTINUOUS
10
3.43163
20
-2.62099
11
3.43176
21
-2.62089
0
LINE
8
BLACK
6
CONTINUOUS
10
3.43176
20
-2.62089
11
3.43183
21
-2.62074
0
LINE
8
BLACK
6
CONTINUOUS
10
3.43183
20
-2.62074
11
3.43405
21
-2.61878
0
LINE
8
BLACK
6
CONTINUOUS
10
3.43405
20
-2.61878
11
3.43427
21
-2.6187
0
LINE
8
BLACK
6
CONTINUOUS
10
3.43427
20
-2.6187
11
3.43445
21
-2.61856
0
LINE
8
BLACK
6
CONTINUOUS
10
3.43445
20
-2.61856
11
3.43701
21
-2.61788
0
LINE
8
BLACK
6
CONTINUOUS
10
3.43701
20
-2.61788
11
3.43717
21
-2.6179
0
LINE
8
BLACK
6
CONTINUOUS
10
3.43717
20
-2.6179
11
3.43732
21
-2.61785
0
LINE
8
BLACK
6
CONTINUOUS
10
3.43732
20
-2.61785
11
3.43942
21
-2.61797
0
LINE
8
BLACK
6
CONTINUOUS
10
3.43518
20
-2.6204
11
3.43326
21
-2.62211
0
LINE
8
BLACK
6
CONTINUOUS
10
3.43326
20
-2.62211
11
3.43149
21
-2.62518
0
LINE
8
BLACK
6
CONTINUOUS
10
3.43149
20
-2.62518
11
3.44683
21
-2.63404
0
LINE
8
BLACK
6
CONTINUOUS
10
3.44683
20
-2.63404
11
3.4486
21
-2.63097
0
LINE
8
BLACK
6
CONTINUOUS
10
3.4486
20
-2.63097
11
3.44912
21
-2.62845
0
LINE
8
BLACK
6
CONTINUOUS
10
3.44912
20
-2.62845
11
3.44853
21
-2.62627
0
LINE
8
BLACK
6
CONTINUOUS
10
3.44853
20
-2.62627
11
3.44752
21
-2.62474
0
LINE
8
BLACK
6
CONTINUOUS
10
3.44752
20
-2.62474
11
3.44491
21
-2.62221
0
LINE
8
BLACK
6
CONTINUOUS
10
3.44491
20
-2.62221
11
3.44269
21
-2.62093
0
LINE
8
BLACK
6
CONTINUOUS
10
3.44269
20
-2.62093
11
3.43919
21
-2.61993
0
LINE
8
BLACK
6
CONTINUOUS
10
3.43919
20
-2.61993
11
3.43736
21
-2.61982
0
LINE
8
BLACK
6
CONTINUOUS
10
3.43736
20
-2.61982
11
3.43518
21
-2.6204
0
LINE
8
BLACK
6
CONTINUOUS
10
3.44236
20
-2.60352
11
3.44264
21
-2.6035
0
LINE
8
BLACK
6
CONTINUOUS
10
3.44264
20
-2.6035
11
3.44272
21
-2.60357
0
LINE
8
BLACK
6
CONTINUOUS
10
3.44272
20
-2.60357
11
3.44282
21
-2.60358
0
LINE
8
BLACK
6
CONTINUOUS
10
3.44282
20
-2.60358
11
3.45902
21
-2.61293
0
LINE
8
BLACK
6
CONTINUOUS
10
3.45902
20
-2.61293
11
3.46134
21
-2.60891
0
LINE
8
BLACK
6
CONTINUOUS
10
3.46134
20
-2.60891
11
3.46193
21
-2.60845
0
LINE
8
BLACK
6
CONTINUOUS
10
3.46193
20
-2.60845
11
3.46268
21
-2.60855
0
LINE
8
BLACK
6
CONTINUOUS
10
3.46268
20
-2.60855
11
3.46314
21
-2.60915
0
LINE
8
BLACK
6
CONTINUOUS
10
3.46314
20
-2.60915
11
3.46304
21
-2.6099
0
LINE
8
BLACK
6
CONTINUOUS
10
3.46304
20
-2.6099
11
3.45742
21
-2.61964
0
LINE
8
BLACK
6
CONTINUOUS
10
3.45742
20
-2.61964
11
3.45682
21
-2.6201
0
LINE
8
BLACK
6
CONTINUOUS
10
3.45682
20
-2.6201
11
3.45607
21
-2.62
0
LINE
8
BLACK
6
CONTINUOUS
10
3.45607
20
-2.62
11
3.45561
21
-2.6194
0
LINE
8
BLACK
6
CONTINUOUS
10
3.45561
20
-2.6194
11
3.45571
21
-2.61865
0
LINE
8
BLACK
6
CONTINUOUS
10
3.45571
20
-2.61865
11
3.45803
21
-2.61464
0
LINE
8
BLACK
6
CONTINUOUS
10
3.45803
20
-2.61464
11
3.44465
21
-2.60691
0
LINE
8
BLACK
6
CONTINUOUS
10
3.44465
20
-2.60691
11
3.44471
21
-2.60703
0
LINE
8
BLACK
6
CONTINUOUS
10
3.44471
20
-2.60703
11
3.44471
21
-2.60713
0
LINE
8
BLACK
6
CONTINUOUS
10
3.44471
20
-2.60713
11
3.44478
21
-2.60721
0
LINE
8
BLACK
6
CONTINUOUS
10
3.44478
20
-2.60721
11
3.44546
21
-2.60977
0
LINE
8
BLACK
6
CONTINUOUS
10
3.44546
20
-2.60977
11
3.44544
21
-2.60993
0
LINE
8
BLACK
6
CONTINUOUS
10
3.44544
20
-2.60993
11
3.44549
21
-2.61008
0
LINE
8
BLACK
6
CONTINUOUS
10
3.44549
20
-2.61008
11
3.44537
21
-2.61218
0
LINE
8
BLACK
6
CONTINUOUS
10
3.44537
20
-2.61218
11
3.44504
21
-2.61285
0
LINE
8
BLACK
6
CONTINUOUS
10
3.44504
20
-2.61285
11
3.44433
21
-2.6131
0
LINE
8
BLACK
6
CONTINUOUS
10
3.44433
20
-2.6131
11
3.44365
21
-2.61277
0
LINE
8
BLACK
6
CONTINUOUS
10
3.44365
20
-2.61277
11
3.4434
21
-2.61206
0
LINE
8
BLACK
6
CONTINUOUS
10
3.4434
20
-2.61206
11
3.44352
21
-2.61012
0
LINE
8
BLACK
6
CONTINUOUS
10
3.44352
20
-2.61012
11
3.4429
21
-2.60781
0
LINE
8
BLACK
6
CONTINUOUS
10
3.4429
20
-2.60781
11
3.44145
21
-2.60487
0
LINE
8
BLACK
6
CONTINUOUS
10
3.44145
20
-2.60487
11
3.44144
21
-2.60477
0
LINE
8
BLACK
6
CONTINUOUS
10
3.44144
20
-2.60477
11
3.44138
21
-2.60469
0
LINE
8
BLACK
6
CONTINUOUS
10
3.44138
20
-2.60469
11
3.44141
21
-2.6044
0
LINE
8
BLACK
6
CONTINUOUS
10
3.44141
20
-2.6044
11
3.4414
21
-2.60412
0
LINE
8
BLACK
6
CONTINUOUS
10
3.4414
20
-2.60412
11
3.44146
21
-2.60404
0
LINE
8
BLACK
6
CONTINUOUS
10
3.44146
20
-2.60404
11
3.44148
21
-2.60394
0
LINE
8
BLACK
6
CONTINUOUS
10
3.44148
20
-2.60394
11
3.4417
21
-2.60377
0
LINE
8
BLACK
6
CONTINUOUS
10
3.4417
20
-2.60377
11
3.44189
21
-2.60355
0
LINE
8
BLACK
6
CONTINUOUS
10
3.44189
20
-2.60355
11
3.44199
21
-2.60354
0
LINE
8
BLACK
6
CONTINUOUS
10
3.44199
20
-2.60354
11
3.44207
21
-2.60348
0
LINE
8
BLACK
6
CONTINUOUS
10
3.44207
20
-2.60348
11
3.44236
21
-2.60352
0
LINE
8
BLACK
6
CONTINUOUS
10
2.89782
20
-2.54216
11
2.89805
21
-2.54395
0
LINE
8
BLACK
6
CONTINUOUS
10
2.89805
20
-2.54395
11
2.89695
21
-2.54539
0
LINE
8
BLACK
6
CONTINUOUS
10
2.89695
20
-2.54539
11
2.82194
21
-2.58869
0
LINE
8
BLACK
6
CONTINUOUS
10
2.82194
20
-2.58869
11
2.82015
21
-2.58893
0
LINE
8
BLACK
6
CONTINUOUS
10
2.82015
20
-2.58893
11
2.81872
21
-2.58783
0
LINE
8
BLACK
6
CONTINUOUS
10
2.81872
20
-2.58783
11
2.81848
21
-2.58604
0
LINE
8
BLACK
6
CONTINUOUS
10
2.81848
20
-2.58604
11
2.81958
21
-2.5846
0
LINE
8
BLACK
6
CONTINUOUS
10
2.81958
20
-2.5846
11
2.89459
21
-2.54129
0
LINE
8
BLACK
6
CONTINUOUS
10
2.89459
20
-2.54129
11
2.89638
21
-2.54106
0
LINE
8
BLACK
6
CONTINUOUS
10
2.89638
20
-2.54106
11
2.89782
21
-2.54216
0
LINE
8
BLACK
6
CONTINUOUS
10
3.41485
20
-2.5472
11
3.4694
21
-2.5787
0
LINE
8
BLACK
6
CONTINUOUS
10
3.4694
20
-2.5787
11
3.4705
21
-2.58013
0
LINE
8
BLACK
6
CONTINUOUS
10
3.4705
20
-2.58013
11
3.47027
21
-2.58192
0
LINE
8
BLACK
6
CONTINUOUS
10
3.47027
20
-2.58192
11
3.46883
21
-2.58302
0
LINE
8
BLACK
6
CONTINUOUS
10
3.46883
20
-2.58302
11
3.46704
21
-2.58279
0
LINE
8
BLACK
6
CONTINUOUS
10
3.46704
20
-2.58279
11
3.41249
21
-2.55129
0
LINE
8
BLACK
6
CONTINUOUS
10
3.41249
20
-2.55129
11
3.41139
21
-2.54986
0
LINE
8
BLACK
6
CONTINUOUS
10
3.41139
20
-2.54986
11
3.41162
21
-2.54806
0
LINE
8
BLACK
6
CONTINUOUS
10
3.41162
20
-2.54806
11
3.41306
21
-2.54696
0
LINE
8
BLACK
6
CONTINUOUS
10
3.41306
20
-2.54696
11
3.41485
21
-2.5472
0
LINE
8
BLACK
6
CONTINUOUS
10
2.76091
20
-2.43622
11
2.76325
21
-2.44028
0
LINE
8
BLACK
6
CONTINUOUS
10
2.76325
20
-2.44028
11
2.76327
21
-2.44044
0
LINE
8
BLACK
6
CONTINUOUS
10
2.76327
20
-2.44044
11
2.76336
21
-2.44058
0
LINE
8
BLACK
6
CONTINUOUS
10
2.76336
20
-2.44058
11
2.76396
21
-2.44348
0
LINE
8
BLACK
6
CONTINUOUS
10
2.76396
20
-2.44348
11
2.76391
21
-2.44371
0
LINE
8
BLACK
6
CONTINUOUS
10
2.76391
20
-2.44371
11
2.76394
21
-2.44393
0
LINE
8
BLACK
6
CONTINUOUS
10
2.76394
20
-2.44393
11
2.76326
21
-2.44649
0
LINE
8
BLACK
6
CONTINUOUS
10
2.76326
20
-2.44649
11
2.76316
21
-2.44662
0
LINE
8
BLACK
6
CONTINUOUS
10
2.76316
20
-2.44662
11
2.76313
21
-2.44678
0
LINE
8
BLACK
6
CONTINUOUS
10
2.76313
20
-2.44678
11
2.76197
21
-2.44853
0
LINE
8
BLACK
6
CONTINUOUS
10
2.76197
20
-2.44853
11
2.76188
21
-2.44859
0
LINE
8
BLACK
6
CONTINUOUS
10
2.76188
20
-2.44859
11
2.76183
21
-2.4487
0
LINE
8
BLACK
6
CONTINUOUS
10
2.76183
20
-2.4487
11
2.75906
21
-2.45138
0
LINE
8
BLACK
6
CONTINUOUS
10
2.75906
20
-2.45138
11
2.75894
21
-2.45143
0
LINE
8
BLACK
6
CONTINUOUS
10
2.75894
20
-2.45143
11
2.75886
21
-2.45153
0
LINE
8
BLACK
6
CONTINUOUS
10
2.75886
20
-2.45153
11
2.75643
21
-2.45293
0
LINE
8
BLACK
6
CONTINUOUS
10
2.75643
20
-2.45293
11
2.7563
21
-2.45295
0
LINE
8
BLACK
6
CONTINUOUS
10
2.7563
20
-2.45295
11
2.75621
21
-2.45303
0
LINE
8
BLACK
6
CONTINUOUS
10
2.75621
20
-2.45303
11
2.75249
21
-2.45409
0
LINE
8
BLACK
6
CONTINUOUS
10
2.75249
20
-2.45409
11
2.75238
21
-2.45408
0
LINE
8
BLACK
6
CONTINUOUS
10
2.75238
20
-2.45408
11
2.75228
21
-2.45413
0
LINE
8
BLACK
6
CONTINUOUS
10
2.75228
20
-2.45413
11
2.75019
21
-2.45425
0
LINE
8
BLACK
6
CONTINUOUS
10
2.75019
20
-2.45425
11
2.75003
21
-2.4542
0
LINE
8
BLACK
6
CONTINUOUS
10
2.75003
20
-2.4542
11
2.74987
21
-2.45422
0
LINE
8
BLACK
6
CONTINUOUS
10
2.74987
20
-2.45422
11
2.74731
21
-2.45354
0
LINE
8
BLACK
6
CONTINUOUS
10
2.74731
20
-2.45354
11
2.74713
21
-2.4534
0
LINE
8
BLACK
6
CONTINUOUS
10
2.74713
20
-2.4534
11
2.74691
21
-2.45332
0
LINE
8
BLACK
6
CONTINUOUS
10
2.74691
20
-2.45332
11
2.7447
21
-2.45135
0
LINE
8
BLACK
6
CONTINUOUS
10
2.7447
20
-2.45135
11
2.74462
21
-2.45121
0
LINE
8
BLACK
6
CONTINUOUS
10
2.74462
20
-2.45121
11
2.7445
21
-2.45111
0
LINE
8
BLACK
6
CONTINUOUS
10
2.7445
20
-2.45111
11
2.74215
21
-2.44705
0
LINE
8
BLACK
6
CONTINUOUS
10
2.74215
20
-2.44705
11
2.74205
21
-2.4463
0
LINE
8
BLACK
6
CONTINUOUS
10
2.74205
20
-2.4463
11
2.74251
21
-2.44571
0
LINE
8
BLACK
6
CONTINUOUS
10
2.74251
20
-2.44571
11
2.75956
21
-2.43586
0
LINE
8
BLACK
6
CONTINUOUS
10
2.75956
20
-2.43586
11
2.75956
21
-2.43586
0
LINE
8
BLACK
6
CONTINUOUS
10
2.75956
20
-2.43586
11
2.76031
21
-2.43577
0
LINE
8
BLACK
6
CONTINUOUS
10
2.76031
20
-2.43577
11
2.76091
21
-2.43622
0
LINE
8
BLACK
6
CONTINUOUS
10
2.74435
20
-2.44692
11
2.74612
21
-2.44999
0
LINE
8
BLACK
6
CONTINUOUS
10
2.74612
20
-2.44999
11
2.74805
21
-2.45169
0
LINE
8
BLACK
6
CONTINUOUS
10
2.74805
20
-2.45169
11
2.75023
21
-2.45228
0
LINE
8
BLACK
6
CONTINUOUS
10
2.75023
20
-2.45228
11
2.75205
21
-2.45217
0
LINE
8
BLACK
6
CONTINUOUS
10
2.75205
20
-2.45217
11
2.75555
21
-2.45117
0
LINE
8
BLACK
6
CONTINUOUS
10
2.75555
20
-2.45117
11
2.75777
21
-2.44988
0
LINE
8
BLACK
6
CONTINUOUS
10
2.75777
20
-2.44988
11
2.76039
21
-2.44736
0
LINE
8
BLACK
6
CONTINUOUS
10
2.76039
20
-2.44736
11
2.7614
21
-2.44583
0
LINE
8
BLACK
6
CONTINUOUS
10
2.7614
20
-2.44583
11
2.76198
21
-2.44365
0
LINE
8
BLACK
6
CONTINUOUS
10
2.76198
20
-2.44365
11
2.76146
21
-2.44113
0
LINE
8
BLACK
6
CONTINUOUS
10
2.76146
20
-2.44113
11
2.75969
21
-2.43806
0
LINE
8
BLACK
6
CONTINUOUS
10
2.75969
20
-2.43806
11
2.74435
21
-2.44692
0
LINE
8
BLACK
6
CONTINUOUS
10
2.76981
20
-2.45165
11
2.7759
21
-2.4622
0
LINE
8
BLACK
6
CONTINUOUS
10
2.7759
20
-2.4622
11
2.77595
21
-2.46254
0
LINE
8
BLACK
6
CONTINUOUS
10
2.77595
20
-2.46254
11
2.77602
21
-2.46288
0
LINE
8
BLACK
6
CONTINUOUS
10
2.77602
20
-2.46288
11
2.776
21
-2.46291
0
LINE
8
BLACK
6
CONTINUOUS
10
2.776
20
-2.46291
11
2.776
21
-2.46295
0
LINE
8
BLACK
6
CONTINUOUS
10
2.776
20
-2.46295
11
2.77579
21
-2.46322
0
LINE
8
BLACK
6
CONTINUOUS
10
2.77579
20
-2.46322
11
2.7756
21
-2.46351
0
LINE
8
BLACK
6
CONTINUOUS
10
2.7756
20
-2.46351
11
2.77556
21
-2.46352
0
LINE
8
BLACK
6
CONTINUOUS
10
2.77556
20
-2.46352
11
2.77554
21
-2.46355
0
LINE
8
BLACK
6
CONTINUOUS
10
2.77554
20
-2.46355
11
2.7752
21
-2.46359
0
LINE
8
BLACK
6
CONTINUOUS
10
2.7752
20
-2.46359
11
2.77486
21
-2.46366
0
LINE
8
BLACK
6
CONTINUOUS
10
2.77486
20
-2.46366
11
2.76721
21
-2.46215
0
LINE
8
BLACK
6
CONTINUOUS
10
2.76721
20
-2.46215
11
2.76753
21
-2.4627
0
LINE
8
BLACK
6
CONTINUOUS
10
2.76753
20
-2.4627
11
2.76756
21
-2.46293
0
LINE
8
BLACK
6
CONTINUOUS
10
2.76756
20
-2.46293
11
2.76766
21
-2.46314
0
LINE
8
BLACK
6
CONTINUOUS
10
2.76766
20
-2.46314
11
2.76779
21
-2.46523
0
LINE
8
BLACK
6
CONTINUOUS
10
2.76779
20
-2.46523
11
2.76774
21
-2.46538
0
LINE
8
BLACK
6
CONTINUOUS
10
2.76774
20
-2.46538
11
2.76776
21
-2.46554
0
LINE
8
BLACK
6
CONTINUOUS
10
2.76776
20
-2.46554
11
2.76742
21
-2.46682
0
LINE
8
BLACK
6
CONTINUOUS
10
2.76742
20
-2.46682
11
2.76732
21
-2.46695
0
LINE
8
BLACK
6
CONTINUOUS
10
2.76732
20
-2.46695
11
2.76729
21
-2.46711
0
LINE
8
BLACK
6
CONTINUOUS
10
2.76729
20
-2.46711
11
2.76613
21
-2.46886
0
LINE
8
BLACK
6
CONTINUOUS
10
2.76613
20
-2.46886
11
2.76594
21
-2.46899
0
LINE
8
BLACK
6
CONTINUOUS
10
2.76594
20
-2.46899
11
2.7658
21
-2.46917
0
LINE
8
BLACK
6
CONTINUOUS
10
2.7658
20
-2.46917
11
2.76174
21
-2.47151
0
LINE
8
BLACK
6
CONTINUOUS
10
2.76174
20
-2.47151
11
2.76152
21
-2.47154
0
LINE
8
BLACK
6
CONTINUOUS
10
2.76152
20
-2.47154
11
2.76131
21
-2.47164
0
LINE
8
BLACK
6
CONTINUOUS
10
2.76131
20
-2.47164
11
2.75922
21
-2.47177
0
LINE
8
BLACK
6
CONTINUOUS
10
2.75922
20
-2.47177
11
2.75906
21
-2.47172
0
LINE
8
BLACK
6
CONTINUOUS
10
2.75906
20
-2.47172
11
2.7589
21
-2.47174
0
LINE
8
BLACK
6
CONTINUOUS
10
2.7589
20
-2.47174
11
2.75762
21
-2.47139
0
LINE
8
BLACK
6
CONTINUOUS
10
2.75762
20
-2.47139
11
2.75749
21
-2.4713
0
LINE
8
BLACK
6
CONTINUOUS
10
2.75749
20
-2.4713
11
2.75734
21
-2.47127
0
LINE
8
BLACK
6
CONTINUOUS
10
2.75734
20
-2.47127
11
2.75559
21
-2.47011
0
LINE
8
BLACK
6
CONTINUOUS
10
2.75559
20
-2.47011
11
2.75546
21
-2.46992
0
LINE
8
BLACK
6
CONTINUOUS
10
2.75546
20
-2.46992
11
2.75528
21
-2.46978
0
LINE
8
BLACK
6
CONTINUOUS
10
2.75528
20
-2.46978
11
2.75246
21
-2.46491
0
LINE
8
BLACK
6
CONTINUOUS
10
2.75246
20
-2.46491
11
2.75243
21
-2.46468
0
LINE
8
BLACK
6
CONTINUOUS
10
2.75243
20
-2.46468
11
2.75233
21
-2.46448
0
LINE
8
BLACK
6
CONTINUOUS
10
2.75233
20
-2.46448
11
2.75221
21
-2.46238
0
LINE
8
BLACK
6
CONTINUOUS
10
2.75221
20
-2.46238
11
2.75226
21
-2.46223
0
LINE
8
BLACK
6
CONTINUOUS
10
2.75226
20
-2.46223
11
2.75224
21
-2.46207
0
LINE
8
BLACK
6
CONTINUOUS
10
2.75224
20
-2.46207
11
2.75258
21
-2.46079
0
LINE
8
BLACK
6
CONTINUOUS
10
2.75258
20
-2.46079
11
2.75304
21
-2.46019
0
LINE
8
BLACK
6
CONTINUOUS
10
2.75304
20
-2.46019
11
2.75379
21
-2.46009
0
LINE
8
BLACK
6
CONTINUOUS
10
2.75379
20
-2.46009
11
2.75439
21
-2.46055
0
LINE
8
BLACK
6
CONTINUOUS
10
2.75439
20
-2.46055
11
2.75448
21
-2.4613
0
LINE
8
BLACK
6
CONTINUOUS
10
2.75448
20
-2.4613
11
2.75418
21
-2.46243
0
LINE
8
BLACK
6
CONTINUOUS
10
2.75418
20
-2.46243
11
2.75429
21
-2.46413
0
LINE
8
BLACK
6
CONTINUOUS
10
2.75429
20
-2.46413
11
2.75686
21
-2.4686
0
LINE
8
BLACK
6
CONTINUOUS
10
2.75686
20
-2.4686
11
2.75829
21
-2.46953
0
LINE
8
BLACK
6
CONTINUOUS
10
2.75829
20
-2.46953
11
2.75926
21
-2.46979
0
LINE
8
BLACK
6
CONTINUOUS
10
2.75926
20
-2.46979
11
2.76096
21
-2.46969
0
LINE
8
BLACK
6
CONTINUOUS
10
2.76096
20
-2.46969
11
2.76462
21
-2.46758
0
LINE
8
BLACK
6
CONTINUOUS
10
2.76462
20
-2.46758
11
2.76556
21
-2.46616
0
LINE
8
BLACK
6
CONTINUOUS
10
2.76556
20
-2.46616
11
2.76582
21
-2.46519
0
LINE
8
BLACK
6
CONTINUOUS
10
2.76582
20
-2.46519
11
2.76571
21
-2.46349
0
LINE
8
BLACK
6
CONTINUOUS
10
2.76571
20
-2.46349
11
2.76442
21
-2.46125
0
LINE
8
BLACK
6
CONTINUOUS
10
2.76442
20
-2.46125
11
2.76438
21
-2.46091
0
LINE
8
BLACK
6
CONTINUOUS
10
2.76438
20
-2.46091
11
2.76431
21
-2.46057
0
LINE
8
BLACK
6
CONTINUOUS
10
2.76431
20
-2.46057
11
2.76433
21
-2.46054
0
LINE
8
BLACK
6
CONTINUOUS
10
2.76433
20
-2.46054
11
2.76433
21
-2.46051
0
LINE
8
BLACK
6
CONTINUOUS
10
2.76433
20
-2.46051
11
2.76454
21
-2.46023
0
LINE
8
BLACK
6
CONTINUOUS
10
2.76454
20
-2.46023
11
2.76473
21
-2.45994
0
LINE
8
BLACK
6
CONTINUOUS
10
2.76473
20
-2.45994
11
2.76476
21
-2.45994
0
LINE
8
BLACK
6
CONTINUOUS
10
2.76476
20
-2.45994
11
2.76478
21
-2.45991
0
LINE
8
BLACK
6
CONTINUOUS
10
2.76478
20
-2.45991
11
2.76513
21
-2.45986
0
LINE
8
BLACK
6
CONTINUOUS
10
2.76513
20
-2.45986
11
2.76547
21
-2.45979
0
LINE
8
BLACK
6
CONTINUOUS
10
2.76547
20
-2.45979
11
2.77311
21
-2.46131
0
LINE
8
BLACK
6
CONTINUOUS
10
2.77311
20
-2.46131
11
2.76811
21
-2.45263
0
LINE
8
BLACK
6
CONTINUOUS
10
2.76811
20
-2.45263
11
2.76801
21
-2.45189
0
LINE
8
BLACK
6
CONTINUOUS
10
2.76801
20
-2.45189
11
2.76847
21
-2.45129
0
LINE
8
BLACK
6
CONTINUOUS
10
2.76847
20
-2.45129
11
2.76921
21
-2.45119
0
LINE
8
BLACK
6
CONTINUOUS
10
2.76921
20
-2.45119
11
2.76981
21
-2.45165
0
LINE
8
BLACK
6
CONTINUOUS
10
3.4558
20
-2.45265
11
3.53081
21
-2.49595
0
LINE
8
BLACK
6
CONTINUOUS
10
3.53081
20
-2.49595
11
3.53191
21
-2.49739
0
LINE
8
BLACK
6
CONTINUOUS
10
3.53191
20
-2.49739
11
3.53168
21
-2.49918
0
LINE
8
BLACK
6
CONTINUOUS
10
3.53168
20
-2.49918
11
3.53024
21
-2.50028
0
LINE
8
BLACK
6
CONTINUOUS
10
3.53024
20
-2.50028
11
3.52845
21
-2.50004
0
LINE
8
BLACK
6
CONTINUOUS
10
3.52845
20
-2.50004
11
3.45344
21
-2.45674
0
LINE
8
BLACK
6
CONTINUOUS
10
3.45344
20
-2.45674
11
3.45234
21
-2.4553
0
LINE
8
BLACK
6
CONTINUOUS
10
3.45234
20
-2.4553
11
3.45258
21
-2.45351
0
LINE
8
BLACK
6
CONTINUOUS
10
3.45258
20
-2.45351
11
3.45401
21
-2.45241
0
LINE
8
BLACK
6
CONTINUOUS
10
3.45401
20
-2.45241
11
3.4558
21
-2.45265
0
LINE
8
BLACK
6
CONTINUOUS
10
2.83641
20
-2.45942
11
2.83664
21
-2.46121
0
LINE
8
BLACK
6
CONTINUOUS
10
2.83664
20
-2.46121
11
2.83554
21
-2.46264
0
LINE
8
BLACK
6
CONTINUOUS
10
2.83554
20
-2.46264
11
2.78099
21
-2.49414
0
LINE
8
BLACK
6
CONTINUOUS
10
2.78099
20
-2.49414
11
2.7792
21
-2.49437
0
LINE
8
BLACK
6
CONTINUOUS
10
2.7792
20
-2.49437
11
2.77776
21
-2.49327
0
LINE
8
BLACK
6
CONTINUOUS
10
2.77776
20
-2.49327
11
2.77753
21
-2.49148
0
LINE
8
BLACK
6
CONTINUOUS
10
2.77753
20
-2.49148
11
2.77863
21
-2.49005
0
LINE
8
BLACK
6
CONTINUOUS
10
2.77863
20
-2.49005
11
2.83318
21
-2.45855
0
LINE
8
BLACK
6
CONTINUOUS
10
2.83318
20
-2.45855
11
2.83497
21
-2.45832
0
LINE
8
BLACK
6
CONTINUOUS
10
2.83497
20
-2.45832
11
2.83641
21
-2.45942
0
LINE
8
BLACK
6
CONTINUOUS
10
2.77076
20
-2.22437
11
2.84577
21
-2.26767
0
LINE
8
BLACK
6
CONTINUOUS
10
2.84577
20
-2.26767
11
2.84687
21
-2.26911
0
LINE
8
BLACK
6
CONTINUOUS
10
2.84687
20
-2.26911
11
2.84664
21
-2.2709
0
LINE
8
BLACK
6
CONTINUOUS
10
2.84664
20
-2.2709
11
2.8452
21
-2.272
0
LINE
8
BLACK
6
CONTINUOUS
10
2.8452
20
-2.272
11
2.84341
21
-2.27176
0
LINE
8
BLACK
6
CONTINUOUS
10
2.84341
20
-2.27176
11
2.7684
21
-2.22846
0
LINE
8
BLACK
6
CONTINUOUS
10
2.7684
20
-2.22846
11
2.7673
21
-2.22702
0
LINE
8
BLACK
6
CONTINUOUS
10
2.7673
20
-2.22702
11
2.76754
21
-2.22523
0
LINE
8
BLACK
6
CONTINUOUS
10
2.76754
20
-2.22523
11
2.76897
21
-2.22413
0
LINE
8
BLACK
6
CONTINUOUS
10
2.76897
20
-2.22413
11
2.77076
21
-2.22437
0
LINE
8
BLACK
6
CONTINUOUS
10
3.55217
20
-2.27058
11
3.55226
21
-2.27062
0
LINE
8
BLACK
6
CONTINUOUS
10
3.55226
20
-2.27062
11
3.55236
21
-2.27061
0
LINE
8
BLACK
6
CONTINUOUS
10
3.55236
20
-2.27061
11
3.55364
21
-2.27095
0
LINE
8
BLACK
6
CONTINUOUS
10
3.55364
20
-2.27095
11
3.55377
21
-2.27105
0
LINE
8
BLACK
6
CONTINUOUS
10
3.55377
20
-2.27105
11
3.55393
21
-2.27108
0
LINE
8
BLACK
6
CONTINUOUS
10
3.55393
20
-2.27108
11
3.55568
21
-2.27223
0
LINE
8
BLACK
6
CONTINUOUS
10
3.55568
20
-2.27223
11
3.55581
21
-2.27242
0
LINE
8
BLACK
6
CONTINUOUS
10
3.55581
20
-2.27242
11
3.55599
21
-2.27256
0
LINE
8
BLACK
6
CONTINUOUS
10
3.55599
20
-2.27256
11
3.55787
21
-2.27581
0
LINE
8
BLACK
6
CONTINUOUS
10
3.55787
20
-2.27581
11
3.55796
21
-2.27656
0
LINE
8
BLACK
6
CONTINUOUS
10
3.55796
20
-2.27656
11
3.55751
21
-2.27716
0
LINE
8
BLACK
6
CONTINUOUS
10
3.55751
20
-2.27716
11
3.55676
21
-2.27725
0
LINE
8
BLACK
6
CONTINUOUS
10
3.55676
20
-2.27725
11
3.55616
21
-2.2768
0
LINE
8
BLACK
6
CONTINUOUS
10
3.55616
20
-2.2768
11
3.5544
21
-2.27375
0
LINE
8
BLACK
6
CONTINUOUS
10
3.5544
20
-2.27375
11
3.55298
21
-2.27281
0
LINE
8
BLACK
6
CONTINUOUS
10
3.55298
20
-2.27281
11
3.55195
21
-2.27253
0
LINE
8
BLACK
6
CONTINUOUS
10
3.55195
20
-2.27253
11
3.54884
21
-2.27233
0
LINE
8
BLACK
6
CONTINUOUS
10
3.54884
20
-2.27233
11
3.54622
21
-2.27308
0
LINE
8
BLACK
6
CONTINUOUS
10
3.54622
20
-2.27308
11
3.54634
21
-2.27317
0
LINE
8
BLACK
6
CONTINUOUS
10
3.54634
20
-2.27317
11
3.5465
21
-2.27321
0
LINE
8
BLACK
6
CONTINUOUS
10
3.5465
20
-2.27321
11
3.54825
21
-2.27436
0
LINE
8
BLACK
6
CONTINUOUS
10
3.54825
20
-2.27436
11
3.54838
21
-2.27455
0
LINE
8
BLACK
6
CONTINUOUS
10
3.54838
20
-2.27455
11
3.54856
21
-2.27469
0
LINE
8
BLACK
6
CONTINUOUS
10
3.54856
20
-2.27469
11
3.55043
21
-2.27794
0
LINE
8
BLACK
6
CONTINUOUS
10
3.55043
20
-2.27794
11
3.55046
21
-2.27816
0
LINE
8
BLACK
6
CONTINUOUS
10
3.55046
20
-2.27816
11
3.55056
21
-2.27837
0
LINE
8
BLACK
6
CONTINUOUS
10
3.55056
20
-2.27837
11
3.55069
21
-2.28046
0
LINE
8
BLACK
6
CONTINUOUS
10
3.55069
20
-2.28046
11
3.55064
21
-2.28062
0
LINE
8
BLACK
6
CONTINUOUS
10
3.55064
20
-2.28062
11
3.55066
21
-2.28078
0
LINE
8
BLACK
6
CONTINUOUS
10
3.55066
20
-2.28078
11
3.55031
21
-2.28206
0
LINE
8
BLACK
6
CONTINUOUS
10
3.55031
20
-2.28206
11
3.55022
21
-2.28219
0
LINE
8
BLACK
6
CONTINUOUS
10
3.55022
20
-2.28219
11
3.55019
21
-2.28234
0
LINE
8
BLACK
6
CONTINUOUS
10
3.55019
20
-2.28234
11
3.54903
21
-2.28409
0
LINE
8
BLACK
6
CONTINUOUS
10
3.54903
20
-2.28409
11
3.54884
21
-2.28422
0
LINE
8
BLACK
6
CONTINUOUS
10
3.54884
20
-2.28422
11
3.5487
21
-2.2844
0
LINE
8
BLACK
6
CONTINUOUS
10
3.5487
20
-2.2844
11
3.54464
21
-2.28675
0
LINE
8
BLACK
6
CONTINUOUS
10
3.54464
20
-2.28675
11
3.54441
21
-2.28678
0
LINE
8
BLACK
6
CONTINUOUS
10
3.54441
20
-2.28678
11
3.54421
21
-2.28688
0
LINE
8
BLACK
6
CONTINUOUS
10
3.54421
20
-2.28688
11
3.54212
21
-2.287
0
LINE
8
BLACK
6
CONTINUOUS
10
3.54212
20
-2.287
11
3.54196
21
-2.28695
0
LINE
8
BLACK
6
CONTINUOUS
10
3.54196
20
-2.28695
11
3.5418
21
-2.28697
0
LINE
8
BLACK
6
CONTINUOUS
10
3.5418
20
-2.28697
11
3.54052
21
-2.28663
0
LINE
8
BLACK
6
CONTINUOUS
10
3.54052
20
-2.28663
11
3.54039
21
-2.28653
0
LINE
8
BLACK
6
CONTINUOUS
10
3.54039
20
-2.28653
11
3.54023
21
-2.2865
0
LINE
8
BLACK
6
CONTINUOUS
10
3.54023
20
-2.2865
11
3.53849
21
-2.28534
0
LINE
8
BLACK
6
CONTINUOUS
10
3.53849
20
-2.28534
11
3.53836
21
-2.28515
0
LINE
8
BLACK
6
CONTINUOUS
10
3.53836
20
-2.28515
11
3.53818
21
-2.28501
0
LINE
8
BLACK
6
CONTINUOUS
10
3.53818
20
-2.28501
11
3.5363
21
-2.28177
0
LINE
8
BLACK
6
CONTINUOUS
10
3.5363
20
-2.28177
11
3.53627
21
-2.28154
0
LINE
8
BLACK
6
CONTINUOUS
10
3.53627
20
-2.28154
11
3.53617
21
-2.28133
0
LINE
8
BLACK
6
CONTINUOUS
10
3.53617
20
-2.28133
11
3.53605
21
-2.27924
0
LINE
8
BLACK
6
CONTINUOUS
10
3.53605
20
-2.27924
11
3.5361
21
-2.27909
0
LINE
8
BLACK
6
CONTINUOUS
10
3.5361
20
-2.27909
11
3.53608
21
-2.27893
0
LINE
8
BLACK
6
CONTINUOUS
10
3.53608
20
-2.27893
11
3.53642
21
-2.27765
0
LINE
8
BLACK
6
CONTINUOUS
10
3.53642
20
-2.27765
11
3.53652
21
-2.27752
0
LINE
8
BLACK
6
CONTINUOUS
10
3.53652
20
-2.27752
11
3.53655
21
-2.27736
0
LINE
8
BLACK
6
CONTINUOUS
10
3.53655
20
-2.27736
11
3.5377
21
-2.27561
0
LINE
8
BLACK
6
CONTINUOUS
10
3.5377
20
-2.27561
11
3.53789
21
-2.27548
0
LINE
8
BLACK
6
CONTINUOUS
10
3.53789
20
-2.27548
11
3.53803
21
-2.2753
0
LINE
8
BLACK
6
CONTINUOUS
10
3.53803
20
-2.2753
11
3.54453
21
-2.27155
0
LINE
8
BLACK
6
CONTINUOUS
10
3.54453
20
-2.27155
11
3.54465
21
-2.27153
0
LINE
8
BLACK
6
CONTINUOUS
10
3.54465
20
-2.27153
11
3.54475
21
-2.27146
0
LINE
8
BLACK
6
CONTINUOUS
10
3.54475
20
-2.27146
11
3.54847
21
-2.27039
0
LINE
8
BLACK
6
CONTINUOUS
10
3.54847
20
-2.27039
11
3.54864
21
-2.27041
0
LINE
8
BLACK
6
CONTINUOUS
10
3.54864
20
-2.27041
11
3.5488
21
-2.27036
0
LINE
8
BLACK
6
CONTINUOUS
10
3.5488
20
-2.27036
11
3.55217
21
-2.27058
0
LINE
8
BLACK
6
CONTINUOUS
10
3.54288
20
-2.27478
11
3.53922
21
-2.27689
0
LINE
8
BLACK
6
CONTINUOUS
10
3.53922
20
-2.27689
11
3.53828
21
-2.27831
0
LINE
8
BLACK
6
CONTINUOUS
10
3.53828
20
-2.27831
11
3.53802
21
-2.27928
0
LINE
8
BLACK
6
CONTINUOUS
10
3.53802
20
-2.27928
11
3.53812
21
-2.28098
0
LINE
8
BLACK
6
CONTINUOUS
10
3.53812
20
-2.28098
11
3.53976
21
-2.28383
0
LINE
8
BLACK
6
CONTINUOUS
10
3.53976
20
-2.28383
11
3.54119
21
-2.28477
0
LINE
8
BLACK
6
CONTINUOUS
10
3.54119
20
-2.28477
11
3.54216
21
-2.28503
0
LINE
8
BLACK
6
CONTINUOUS
10
3.54216
20
-2.28503
11
3.54386
21
-2.28493
0
LINE
8
BLACK
6
CONTINUOUS
10
3.54386
20
-2.28493
11
3.54752
21
-2.28281
0
LINE
8
BLACK
6
CONTINUOUS
10
3.54752
20
-2.28281
11
3.54845
21
-2.28139
0
LINE
8
BLACK
6
CONTINUOUS
10
3.54845
20
-2.28139
11
3.54871
21
-2.28042
0
LINE
8
BLACK
6
CONTINUOUS
10
3.54871
20
-2.28042
11
3.54861
21
-2.27872
0
LINE
8
BLACK
6
CONTINUOUS
10
3.54861
20
-2.27872
11
3.54697
21
-2.27588
0
LINE
8
BLACK
6
CONTINUOUS
10
3.54697
20
-2.27588
11
3.54555
21
-2.27494
0
LINE
8
BLACK
6
CONTINUOUS
10
3.54555
20
-2.27494
11
3.54458
21
-2.27468
0
LINE
8
BLACK
6
CONTINUOUS
10
3.54458
20
-2.27468
11
3.54288
21
-2.27478
0
LINE
8
BLACK
6
CONTINUOUS
10
3.52145
20
-2.23114
11
3.52168
21
-2.23293
0
LINE
8
BLACK
6
CONTINUOUS
10
3.52168
20
-2.23293
11
3.52058
21
-2.23436
0
LINE
8
BLACK
6
CONTINUOUS
10
3.52058
20
-2.23436
11
3.46603
21
-2.26586
0
LINE
8
BLACK
6
CONTINUOUS
10
3.46603
20
-2.26586
11
3.46424
21
-2.26609
0
LINE
8
BLACK
6
CONTINUOUS
10
3.46424
20
-2.26609
11
3.4628
21
-2.26499
0
LINE
8
BLACK
6
CONTINUOUS
10
3.4628
20
-2.26499
11
3.46257
21
-2.2632
0
LINE
8
BLACK
6
CONTINUOUS
10
3.46257
20
-2.2632
11
3.46367
21
-2.26177
0
LINE
8
BLACK
6
CONTINUOUS
10
3.46367
20
-2.26177
11
3.51822
21
-2.23027
0
LINE
8
BLACK
6
CONTINUOUS
10
3.51822
20
-2.23027
11
3.52001
21
-2.23003
0
LINE
8
BLACK
6
CONTINUOUS
10
3.52001
20
-2.23003
11
3.52145
21
-2.23114
0
LINE
8
BLACK
6
CONTINUOUS
10
3.5438
20
-2.25146
11
3.54615
21
-2.25552
0
LINE
8
BLACK
6
CONTINUOUS
10
3.54615
20
-2.25552
11
3.54617
21
-2.25568
0
LINE
8
BLACK
6
CONTINUOUS
10
3.54617
20
-2.25568
11
3.54626
21
-2.25581
0
LINE
8
BLACK
6
CONTINUOUS
10
3.54626
20
-2.25581
11
3.54685
21
-2.25872
0
LINE
8
BLACK
6
CONTINUOUS
10
3.54685
20
-2.25872
11
3.54681
21
-2.25894
0
LINE
8
BLACK
6
CONTINUOUS
10
3.54681
20
-2.25894
11
3.54684
21
-2.25917
0
LINE
8
BLACK
6
CONTINUOUS
10
3.54684
20
-2.25917
11
3.54615
21
-2.26173
0
LINE
8
BLACK
6
CONTINUOUS
10
3.54615
20
-2.26173
11
3.54606
21
-2.26186
0
LINE
8
BLACK
6
CONTINUOUS
10
3.54606
20
-2.26186
11
3.54603
21
-2.26202
0
LINE
8
BLACK
6
CONTINUOUS
10
3.54603
20
-2.26202
11
3.54487
21
-2.26376
0
LINE
8
BLACK
6
CONTINUOUS
10
3.54487
20
-2.26376
11
3.54478
21
-2.26383
0
LINE
8
BLACK
6
CONTINUOUS
10
3.54478
20
-2.26383
11
3.54473
21
-2.26393
0
LINE
8
BLACK
6
CONTINUOUS
10
3.54473
20
-2.26393
11
3.54195
21
-2.26662
0
LINE
8
BLACK
6
CONTINUOUS
10
3.54195
20
-2.26662
11
3.54184
21
-2.26666
0
LINE
8
BLACK
6
CONTINUOUS
10
3.54184
20
-2.26666
11
3.54176
21
-2.26676
0
LINE
8
BLACK
6
CONTINUOUS
10
3.54176
20
-2.26676
11
3.53933
21
-2.26817
0
LINE
8
BLACK
6
CONTINUOUS
10
3.53933
20
-2.26817
11
3.5392
21
-2.26818
0
LINE
8
BLACK
6
CONTINUOUS
10
3.5392
20
-2.26818
11
3.53911
21
-2.26826
0
LINE
8
BLACK
6
CONTINUOUS
10
3.53911
20
-2.26826
11
3.53539
21
-2.26932
0
LINE
8
BLACK
6
CONTINUOUS
10
3.53539
20
-2.26932
11
3.53528
21
-2.26931
0
LINE
8
BLACK
6
CONTINUOUS
10
3.53528
20
-2.26931
11
3.53518
21
-2.26936
0
LINE
8
BLACK
6
CONTINUOUS
10
3.53518
20
-2.26936
11
3.53309
21
-2.26949
0
LINE
8
BLACK
6
CONTINUOUS
10
3.53309
20
-2.26949
11
3.53293
21
-2.26943
0
LINE
8
BLACK
6
CONTINUOUS
10
3.53293
20
-2.26943
11
3.53277
21
-2.26945
0
LINE
8
BLACK
6
CONTINUOUS
10
3.53277
20
-2.26945
11
3.53021
21
-2.26877
0
LINE
8
BLACK
6
CONTINUOUS
10
3.53021
20
-2.26877
11
3.53003
21
-2.26863
0
LINE
8
BLACK
6
CONTINUOUS
10
3.53003
20
-2.26863
11
3.52981
21
-2.26855
0
LINE
8
BLACK
6
CONTINUOUS
10
3.52981
20
-2.26855
11
3.52759
21
-2.26659
0
LINE
8
BLACK
6
CONTINUOUS
10
3.52759
20
-2.26659
11
3.52752
21
-2.26644
0
LINE
8
BLACK
6
CONTINUOUS
10
3.52752
20
-2.26644
11
3.5274
21
-2.26634
0
LINE
8
BLACK
6
CONTINUOUS
10
3.5274
20
-2.26634
11
3.52505
21
-2.26228
0
LINE
8
BLACK
6
CONTINUOUS
10
3.52505
20
-2.26228
11
3.52495
21
-2.26154
0
LINE
8
BLACK
6
CONTINUOUS
10
3.52495
20
-2.26154
11
3.52541
21
-2.26094
0
LINE
8
BLACK
6
CONTINUOUS
10
3.52541
20
-2.26094
11
3.54246
21
-2.2511
0
LINE
8
BLACK
6
CONTINUOUS
10
3.54246
20
-2.2511
11
3.54246
21
-2.2511
0
LINE
8
BLACK
6
CONTINUOUS
10
3.54246
20
-2.2511
11
3.54321
21
-2.251
0
LINE
8
BLACK
6
CONTINUOUS
10
3.54321
20
-2.251
11
3.5438
21
-2.25146
0
LINE
8
BLACK
6
CONTINUOUS
10
3.52725
20
-2.26215
11
3.52902
21
-2.26522
0
LINE
8
BLACK
6
CONTINUOUS
10
3.52902
20
-2.26522
11
3.53095
21
-2.26693
0
LINE
8
BLACK
6
CONTINUOUS
10
3.53095
20
-2.26693
11
3.53313
21
-2.26751
0
LINE
8
BLACK
6
CONTINUOUS
10
3.53313
20
-2.26751
11
3.53495
21
-2.2674
0
LINE
8
BLACK
6
CONTINUOUS
10
3.53495
20
-2.2674
11
3.53845
21
-2.2664
0
LINE
8
BLACK
6
CONTINUOUS
10
3.53845
20
-2.2664
11
3.54067
21
-2.26512
0
LINE
8
BLACK
6
CONTINUOUS
10
3.54067
20
-2.26512
11
3.54329
21
-2.26259
0
LINE
8
BLACK
6
CONTINUOUS
10
3.54329
20
-2.26259
11
3.54429
21
-2.26106
0
LINE
8
BLACK
6
CONTINUOUS
10
3.54429
20
-2.26106
11
3.54488
21
-2.25888
0
LINE
8
BLACK
6
CONTINUOUS
10
3.54488
20
-2.25888
11
3.54436
21
-2.25636
0
LINE
8
BLACK
6
CONTINUOUS
10
3.54436
20
-2.25636
11
3.54259
21
-2.25329
0
LINE
8
BLACK
6
CONTINUOUS
10
3.54259
20
-2.25329
11
3.52725
21
-2.26215
0
LINE
8
BLACK
6
CONTINUOUS
10
3.4805
20
-2.13658
11
3.48073
21
-2.13837
0
LINE
8
BLACK
6
CONTINUOUS
10
3.48073
20
-2.13837
11
3.47963
21
-2.13981
0
LINE
8
BLACK
6
CONTINUOUS
10
3.47963
20
-2.13981
11
3.40462
21
-2.18312
0
LINE
8
BLACK
6
CONTINUOUS
10
3.40462
20
-2.18312
11
3.40283
21
-2.18335
0
LINE
8
BLACK
6
CONTINUOUS
10
3.40283
20
-2.18335
11
3.40139
21
-2.18225
0
LINE
8
BLACK
6
CONTINUOUS
10
3.40139
20
-2.18225
11
3.40116
21
-2.18046
0
LINE
8
BLACK
6
CONTINUOUS
10
3.40116
20
-2.18046
11
3.40226
21
-2.17902
0
LINE
8
BLACK
6
CONTINUOUS
10
3.40226
20
-2.17902
11
3.47727
21
-2.13572
0
LINE
8
BLACK
6
CONTINUOUS
10
3.47727
20
-2.13572
11
3.47906
21
-2.13548
0
LINE
8
BLACK
6
CONTINUOUS
10
3.47906
20
-2.13548
11
3.4805
21
-2.13658
0
LINE
8
BLACK
6
CONTINUOUS
10
2.83217
20
-2.14162
11
2.88673
21
-2.17312
0
LINE
8
BLACK
6
CONTINUOUS
10
2.88673
20
-2.17312
11
2.88783
21
-2.17455
0
LINE
8
BLACK
6
CONTINUOUS
10
2.88783
20
-2.17455
11
2.88759
21
-2.17635
0
LINE
8
BLACK
6
CONTINUOUS
10
2.88759
20
-2.17635
11
2.88616
21
-2.17745
0
LINE
8
BLACK
6
CONTINUOUS
10
2.88616
20
-2.17745
11
2.88436
21
-2.17721
0
LINE
8
BLACK
6
CONTINUOUS
10
2.88436
20
-2.17721
11
2.82981
21
-2.14571
0
LINE
8
BLACK
6
CONTINUOUS
10
2.82981
20
-2.14571
11
2.82871
21
-2.14428
0
LINE
8
BLACK
6
CONTINUOUS
10
2.82871
20
-2.14428
11
2.82895
21
-2.14249
0
LINE
8
BLACK
6
CONTINUOUS
10
2.82895
20
-2.14249
11
2.83038
21
-2.14139
0
LINE
8
BLACK
6
CONTINUOUS
10
2.83038
20
-2.14139
11
2.83217
21
-2.14162
0
LINE
8
BLACK
6
CONTINUOUS
10
2.84549
20
-2.10589
11
2.84559
21
-2.10594
0
LINE
8
BLACK
6
CONTINUOUS
10
2.84559
20
-2.10594
11
2.8457
21
-2.10592
0
LINE
8
BLACK
6
CONTINUOUS
10
2.8457
20
-2.10592
11
2.84942
21
-2.10699
0
LINE
8
BLACK
6
CONTINUOUS
10
2.84942
20
-2.10699
11
2.84952
21
-2.10706
0
LINE
8
BLACK
6
CONTINUOUS
10
2.84952
20
-2.10706
11
2.84964
21
-2.10708
0
LINE
8
BLACK
6
CONTINUOUS
10
2.84964
20
-2.10708
11
2.85208
21
-2.10849
0
LINE
8
BLACK
6
CONTINUOUS
10
2.85208
20
-2.10849
11
2.85215
21
-2.10859
0
LINE
8
BLACK
6
CONTINUOUS
10
2.85215
20
-2.10859
11
2.85227
21
-2.10863
0
LINE
8
BLACK
6
CONTINUOUS
10
2.85227
20
-2.10863
11
2.85505
21
-2.11132
0
LINE
8
BLACK
6
CONTINUOUS
10
2.85505
20
-2.11132
11
2.85509
21
-2.11142
0
LINE
8
BLACK
6
CONTINUOUS
10
2.85509
20
-2.11142
11
2.85518
21
-2.11148
0
LINE
8
BLACK
6
CONTINUOUS
10
2.85518
20
-2.11148
11
2.85634
21
-2.11323
0
LINE
8
BLACK
6
CONTINUOUS
10
2.85634
20
-2.11323
11
2.85637
21
-2.11339
0
LINE
8
BLACK
6
CONTINUOUS
10
2.85637
20
-2.11339
11
2.85647
21
-2.11352
0
LINE
8
BLACK
6
CONTINUOUS
10
2.85647
20
-2.11352
11
2.85716
21
-2.11608
0
LINE
8
BLACK
6
CONTINUOUS
10
2.85716
20
-2.11608
11
2.85713
21
-2.11631
0
LINE
8
BLACK
6
CONTINUOUS
10
2.85713
20
-2.11631
11
2.85717
21
-2.11653
0
LINE
8
BLACK
6
CONTINUOUS
10
2.85717
20
-2.11653
11
2.85657
21
-2.11944
0
LINE
8
BLACK
6
CONTINUOUS
10
2.85657
20
-2.11944
11
2.85648
21
-2.11957
0
LINE
8
BLACK
6
CONTINUOUS
10
2.85648
20
-2.11957
11
2.85646
21
-2.11973
0
LINE
8
BLACK
6
CONTINUOUS
10
2.85646
20
-2.11973
11
2.85412
21
-2.12379
0
LINE
8
BLACK
6
CONTINUOUS
10
2.85412
20
-2.12379
11
2.85352
21
-2.12425
0
LINE
8
BLACK
6
CONTINUOUS
10
2.85352
20
-2.12425
11
2.85277
21
-2.12415
0
LINE
8
BLACK
6
CONTINUOUS
10
2.85277
20
-2.12415
11
2.83573
21
-2.11431
0
LINE
8
BLACK
6
CONTINUOUS
10
2.83573
20
-2.11431
11
2.83527
21
-2.11371
0
LINE
8
BLACK
6
CONTINUOUS
10
2.83527
20
-2.11371
11
2.83537
21
-2.11296
0
LINE
8
BLACK
6
CONTINUOUS
10
2.83537
20
-2.11296
11
2.83771
21
-2.10891
0
LINE
8
BLACK
6
CONTINUOUS
10
2.83771
20
-2.10891
11
2.83784
21
-2.10881
0
LINE
8
BLACK
6
CONTINUOUS
10
2.83784
20
-2.10881
11
2.83791
21
-2.10866
0
LINE
8
BLACK
6
CONTINUOUS
10
2.83791
20
-2.10866
11
2.84013
21
-2.10669
0
LINE
8
BLACK
6
CONTINUOUS
10
2.84013
20
-2.10669
11
2.84034
21
-2.10662
0
LINE
8
BLACK
6
CONTINUOUS
10
2.84034
20
-2.10662
11
2.84053
21
-2.10648
0
LINE
8
BLACK
6
CONTINUOUS
10
2.84053
20
-2.10648
11
2.84309
21
-2.10579
0
LINE
8
BLACK
6
CONTINUOUS
10
2.84309
20
-2.10579
11
2.84325
21
-2.10582
0
LINE
8
BLACK
6
CONTINUOUS
10
2.84325
20
-2.10582
11
2.8434
21
-2.10576
0
LINE
8
BLACK
6
CONTINUOUS
10
2.8434
20
-2.10576
11
2.84549
21
-2.10589
0
LINE
8
BLACK
6
CONTINUOUS
10
2.84126
20
-2.10832
11
2.83933
21
-2.11003
0
LINE
8
BLACK
6
CONTINUOUS
10
2.83933
20
-2.11003
11
2.83756
21
-2.1131
0
LINE
8
BLACK
6
CONTINUOUS
10
2.83756
20
-2.1131
11
2.85291
21
-2.12195
0
LINE
8
BLACK
6
CONTINUOUS
10
2.85291
20
-2.12195
11
2.85468
21
-2.11889
0
LINE
8
BLACK
6
CONTINUOUS
10
2.85468
20
-2.11889
11
2.85519
21
-2.11637
0
LINE
8
BLACK
6
CONTINUOUS
10
2.85519
20
-2.11637
11
2.85461
21
-2.11418
0
LINE
8
BLACK
6
CONTINUOUS
10
2.85461
20
-2.11418
11
2.8536
21
-2.11266
0
LINE
8
BLACK
6
CONTINUOUS
10
2.8536
20
-2.11266
11
2.85099
21
-2.11013
0
LINE
8
BLACK
6
CONTINUOUS
10
2.85099
20
-2.11013
11
2.84876
21
-2.10885
0
LINE
8
BLACK
6
CONTINUOUS
10
2.84876
20
-2.10885
11
2.84527
21
-2.10785
0
LINE
8
BLACK
6
CONTINUOUS
10
2.84527
20
-2.10785
11
2.84344
21
-2.10774
0
LINE
8
BLACK
6
CONTINUOUS
10
2.84344
20
-2.10774
11
2.84126
21
-2.10832
0
LINE
8
BLACK
6
CONTINUOUS
10
2.85645
20
-2.09153
11
2.86128
21
-2.09432
0
LINE
8
BLACK
6
CONTINUOUS
10
2.86128
20
-2.09432
11
2.8622
21
-2.09274
0
LINE
8
BLACK
6
CONTINUOUS
10
2.8622
20
-2.09274
11
2.8628
21
-2.09228
0
LINE
8
BLACK
6
CONTINUOUS
10
2.8628
20
-2.09228
11
2.86354
21
-2.09238
0
LINE
8
BLACK
6
CONTINUOUS
10
2.86354
20
-2.09238
11
2.864
21
-2.09297
0
LINE
8
BLACK
6
CONTINUOUS
10
2.864
20
-2.09297
11
2.8639
21
-2.09372
0
LINE
8
BLACK
6
CONTINUOUS
10
2.8639
20
-2.09372
11
2.86299
21
-2.0953
0
LINE
8
BLACK
6
CONTINUOUS
10
2.86299
20
-2.0953
11
2.86782
21
-2.09809
0
LINE
8
BLACK
6
CONTINUOUS
10
2.86782
20
-2.09809
11
2.86828
21
-2.09869
0
LINE
8
BLACK
6
CONTINUOUS
10
2.86828
20
-2.09869
11
2.86818
21
-2.09944
0
LINE
8
BLACK
6
CONTINUOUS
10
2.86818
20
-2.09944
11
2.86758
21
-2.0999
0
LINE
8
BLACK
6
CONTINUOUS
10
2.86758
20
-2.0999
11
2.86684
21
-2.0998
0
LINE
8
BLACK
6
CONTINUOUS
10
2.86684
20
-2.0998
11
2.86201
21
-2.09701
0
LINE
8
BLACK
6
CONTINUOUS
10
2.86201
20
-2.09701
11
2.85781
21
-2.10427
0
LINE
8
BLACK
6
CONTINUOUS
10
2.85781
20
-2.10427
11
2.85768
21
-2.10437
0
LINE
8
BLACK
6
CONTINUOUS
10
2.85768
20
-2.10437
11
2.85761
21
-2.10452
0
LINE
8
BLACK
6
CONTINUOUS
10
2.85761
20
-2.10452
11
2.85739
21
-2.10459
0
LINE
8
BLACK
6
CONTINUOUS
10
2.85739
20
-2.10459
11
2.85721
21
-2.10473
0
LINE
8
BLACK
6
CONTINUOUS
10
2.85721
20
-2.10473
11
2.85705
21
-2.10471
0
LINE
8
BLACK
6
CONTINUOUS
10
2.85705
20
-2.10471
11
2.8569
21
-2.10476
0
LINE
8
BLACK
6
CONTINUOUS
10
2.8569
20
-2.10476
11
2.85669
21
-2.10466
0
LINE
8
BLACK
6
CONTINUOUS
10
2.85669
20
-2.10466
11
2.85647
21
-2.10463
0
LINE
8
BLACK
6
CONTINUOUS
10
2.85647
20
-2.10463
11
2.85637
21
-2.10451
0
LINE
8
BLACK
6
CONTINUOUS
10
2.85637
20
-2.10451
11
2.85622
21
-2.10444
0
LINE
8
BLACK
6
CONTINUOUS
10
2.85622
20
-2.10444
11
2.84639
21
-2.09335
0
LINE
8
BLACK
6
CONTINUOUS
10
2.84639
20
-2.09335
11
2.84614
21
-2.09263
0
LINE
8
BLACK
6
CONTINUOUS
10
2.84614
20
-2.09263
11
2.84647
21
-2.09196
0
LINE
8
BLACK
6
CONTINUOUS
10
2.84647
20
-2.09196
11
2.84718
21
-2.09171
0
LINE
8
BLACK
6
CONTINUOUS
10
2.84718
20
-2.09171
11
2.84786
21
-2.09204
0
LINE
8
BLACK
6
CONTINUOUS
10
2.84786
20
-2.09204
11
2.85679
21
-2.10211
0
LINE
8
BLACK
6
CONTINUOUS
10
2.85679
20
-2.10211
11
2.8603
21
-2.09602
0
LINE
8
BLACK
6
CONTINUOUS
10
2.8603
20
-2.09602
11
2.85547
21
-2.09324
0
LINE
8
BLACK
6
CONTINUOUS
10
2.85547
20
-2.09324
11
2.85501
21
-2.09264
0
LINE
8
BLACK
6
CONTINUOUS
10
2.85501
20
-2.09264
11
2.85511
21
-2.09189
0
LINE
8
BLACK
6
CONTINUOUS
10
2.85511
20
-2.09189
11
2.85571
21
-2.09143
0
LINE
8
BLACK
6
CONTINUOUS
10
2.85571
20
-2.09143
11
2.85645
21
-2.09153
0
LINE
8
BLACK
6
CONTINUOUS
10
3.1001
20
-1.9629
11
3.10079
21
-1.96457
0
LINE
8
BLACK
6
CONTINUOUS
10
3.10079
20
-1.96457
11
3.10079
21
-2.05118
0
LINE
8
BLACK
6
CONTINUOUS
10
3.10079
20
-2.05118
11
3.1001
21
-2.05285
0
LINE
8
BLACK
6
CONTINUOUS
10
3.1001
20
-2.05285
11
3.09843
21
-2.05354
0
LINE
8
BLACK
6
CONTINUOUS
10
3.09843
20
-2.05354
11
3.09675
21
-2.05285
0
LINE
8
BLACK
6
CONTINUOUS
10
3.09675
20
-2.05285
11
3.09606
21
-2.05118
0
LINE
8
BLACK
6
CONTINUOUS
10
3.09606
20
-2.05118
11
3.09606
21
-1.96457
0
LINE
8
BLACK
6
CONTINUOUS
10
3.09606
20
-1.96457
11
3.09675
21
-1.9629
0
LINE
8
BLACK
6
CONTINUOUS
10
3.09675
20
-1.9629
11
3.09843
21
-1.9622
0
LINE
8
BLACK
6
CONTINUOUS
10
3.09843
20
-1.9622
11
3.1001
21
-1.9629
0
LINE
8
BLACK
6
CONTINUOUS
10
3.20246
20
-1.97471
11
3.20315
21
-1.97638
0
LINE
8
BLACK
6
CONTINUOUS
10
3.20315
20
-1.97638
11
3.20315
21
-2.03937
0
LINE
8
BLACK
6
CONTINUOUS
10
3.20315
20
-2.03937
11
3.20246
21
-2.04104
0
LINE
8
BLACK
6
CONTINUOUS
10
3.20246
20
-2.04104
11
3.20079
21
-2.04173
0
LINE
8
BLACK
6
CONTINUOUS
10
3.20079
20
-2.04173
11
3.19912
21
-2.04104
0
LINE
8
BLACK
6
CONTINUOUS
10
3.19912
20
-2.04104
11
3.19843
21
-2.03937
0
LINE
8
BLACK
6
CONTINUOUS
10
3.19843
20
-2.03937
11
3.19843
21
-1.97638
0
LINE
8
BLACK
6
CONTINUOUS
10
3.19843
20
-1.97638
11
3.19912
21
-1.97471
0
LINE
8
BLACK
6
CONTINUOUS
10
3.19912
20
-1.97471
11
3.20079
21
-1.97402
0
LINE
8
BLACK
6
CONTINUOUS
10
3.20079
20
-1.97402
11
3.20246
21
-1.97471
0
LINE
8
BLACK
6
CONTINUOUS
10
3.22692
20
-1.9694
11
3.22708
21
-1.96939
0
LINE
8
BLACK
6
CONTINUOUS
10
3.22708
20
-1.96939
11
3.2299
21
-1.97033
0
LINE
8
BLACK
6
CONTINUOUS
10
3.2299
20
-1.97033
11
3.23007
21
-1.97048
0
LINE
8
BLACK
6
CONTINUOUS
10
3.23007
20
-1.97048
11
3.23028
21
-1.97057
0
LINE
8
BLACK
6
CONTINUOUS
10
3.23028
20
-1.97057
11
3.23215
21
-1.97244
0
LINE
8
BLACK
6
CONTINUOUS
10
3.23215
20
-1.97244
11
3.23222
21
-1.97259
0
LINE
8
BLACK
6
CONTINUOUS
10
3.23222
20
-1.97259
11
3.23234
21
-1.9727
0
LINE
8
BLACK
6
CONTINUOUS
10
3.23234
20
-1.9727
11
3.23328
21
-1.97457
0
LINE
8
BLACK
6
CONTINUOUS
10
3.23328
20
-1.97457
11
3.23328
21
-1.97469
0
LINE
8
BLACK
6
CONTINUOUS
10
3.23328
20
-1.97469
11
3.23335
21
-1.97478
0
LINE
8
BLACK
6
CONTINUOUS
10
3.23335
20
-1.97478
11
3.23429
21
-1.97852
0
LINE
8
BLACK
6
CONTINUOUS
10
3.23429
20
-1.97852
11
3.23427
21
-1.97865
0
LINE
8
BLACK
6
CONTINUOUS
10
3.23427
20
-1.97865
11
3.23432
21
-1.97876
0
LINE
8
BLACK
6
CONTINUOUS
10
3.23432
20
-1.97876
11
3.23432
21
-1.98158
0
LINE
8
BLACK
6
CONTINUOUS
10
3.23432
20
-1.98158
11
3.23427
21
-1.98169
0
LINE
8
BLACK
6
CONTINUOUS
10
3.23427
20
-1.98169
11
3.23429
21
-1.98181
0
LINE
8
BLACK
6
CONTINUOUS
10
3.23429
20
-1.98181
11
3.23335
21
-1.98556
0
LINE
8
BLACK
6
CONTINUOUS
10
3.23335
20
-1.98556
11
3.23328
21
-1.98565
0
LINE
8
BLACK
6
CONTINUOUS
10
3.23328
20
-1.98565
11
3.23328
21
-1.98577
0
LINE
8
BLACK
6
CONTINUOUS
10
3.23328
20
-1.98577
11
3.23234
21
-1.98764
0
LINE
8
BLACK
6
CONTINUOUS
10
3.23234
20
-1.98764
11
3.23222
21
-1.98775
0
LINE
8
BLACK
6
CONTINUOUS
10
3.23222
20
-1.98775
11
3.23215
21
-1.9879
0
LINE
8
BLACK
6
CONTINUOUS
10
3.23215
20
-1.9879
11
3.23028
21
-1.98977
0
LINE
8
BLACK
6
CONTINUOUS
10
3.23028
20
-1.98977
11
3.23007
21
-1.98986
0
LINE
8
BLACK
6
CONTINUOUS
10
3.23007
20
-1.98986
11
3.2299
21
-1.99001
0
LINE
8
BLACK
6
CONTINUOUS
10
3.2299
20
-1.99001
11
3.22708
21
-1.99095
0
LINE
8
BLACK
6
CONTINUOUS
10
3.22708
20
-1.99095
11
3.22692
21
-1.99093
0
LINE
8
BLACK
6
CONTINUOUS
10
3.22692
20
-1.99093
11
3.22677
21
-1.991
0
LINE
8
BLACK
6
CONTINUOUS
10
3.22677
20
-1.991
11
3.22208
21
-1.991
0
LINE
8
BLACK
6
CONTINUOUS
10
3.22208
20
-1.991
11
3.22139
21
-1.99071
0
LINE
8
BLACK
6
CONTINUOUS
10
3.22139
20
-1.99071
11
3.2211
21
-1.99001
0
LINE
8
BLACK
6
CONTINUOUS
10
3.2211
20
-1.99001
11
3.2211
21
-1.99001
0
LINE
8
BLACK
6
CONTINUOUS
10
3.2211
20
-1.99001
11
3.2211
21
-1.97033
0
LINE
8
BLACK
6
CONTINUOUS
10
3.2211
20
-1.97033
11
3.22139
21
-1.96963
0
LINE
8
BLACK
6
CONTINUOUS
10
3.22139
20
-1.96963
11
3.22208
21
-1.96934
0
LINE
8
BLACK
6
CONTINUOUS
10
3.22208
20
-1.96934
11
3.22677
21
-1.96934
0
LINE
8
BLACK
6
CONTINUOUS
10
3.22677
20
-1.96934
11
3.22692
21
-1.9694
0
LINE
8
BLACK
6
CONTINUOUS
10
3.22307
20
-1.98903
11
3.22661
21
-1.98903
0
LINE
8
BLACK
6
CONTINUOUS
10
3.22661
20
-1.98903
11
3.22905
21
-1.98821
0
LINE
8
BLACK
6
CONTINUOUS
10
3.22905
20
-1.98821
11
3.23065
21
-1.98662
0
LINE
8
BLACK
6
CONTINUOUS
10
3.23065
20
-1.98662
11
3.23147
21
-1.98498
0
LINE
8
BLACK
6
CONTINUOUS
10
3.23147
20
-1.98498
11
3.23235
21
-1.98145
0
LINE
8
BLACK
6
CONTINUOUS
10
3.23235
20
-1.98145
11
3.23235
21
-1.97888
0
LINE
8
BLACK
6
CONTINUOUS
10
3.23235
20
-1.97888
11
3.23147
21
-1.97536
0
LINE
8
BLACK
6
CONTINUOUS
10
3.23147
20
-1.97536
11
3.23065
21
-1.97372
0
LINE
8
BLACK
6
CONTINUOUS
10
3.23065
20
-1.97372
11
3.22905
21
-1.97212
0
LINE
8
BLACK
6
CONTINUOUS
10
3.22905
20
-1.97212
11
3.22661
21
-1.97131
0
LINE
8
BLACK
6
CONTINUOUS
10
3.22661
20
-1.97131
11
3.22307
21
-1.97131
0
LINE
8
BLACK
6
CONTINUOUS
10
3.22307
20
-1.97131
11
3.22307
21
-1.98903
0
LINE
8
BLACK
6
CONTINUOUS
10
3.25184
20
-1.96963
11
3.25213
21
-1.97033
0
LINE
8
BLACK
6
CONTINUOUS
10
3.25213
20
-1.97033
11
3.25184
21
-1.97102
0
LINE
8
BLACK
6
CONTINUOUS
10
3.25184
20
-1.97102
11
3.25114
21
-1.97131
0
LINE
8
BLACK
6
CONTINUOUS
10
3.25114
20
-1.97131
11
3.24266
21
-1.97131
0
LINE
8
BLACK
6
CONTINUOUS
10
3.24266
20
-1.97131
11
3.24204
21
-1.97753
0
LINE
8
BLACK
6
CONTINUOUS
10
3.24204
20
-1.97753
11
3.2432
21
-1.97695
0
LINE
8
BLACK
6
CONTINUOUS
10
3.2432
20
-1.97695
11
3.24343
21
-1.97693
0
LINE
8
BLACK
6
CONTINUOUS
10
3.24343
20
-1.97693
11
3.24364
21
-1.97684
0
LINE
8
BLACK
6
CONTINUOUS
10
3.24364
20
-1.97684
11
3.24833
21
-1.97684
0
LINE
8
BLACK
6
CONTINUOUS
10
3.24833
20
-1.97684
11
3.24854
21
-1.97693
0
LINE
8
BLACK
6
CONTINUOUS
10
3.24854
20
-1.97693
11
3.24877
21
-1.97695
0
LINE
8
BLACK
6
CONTINUOUS
10
3.24877
20
-1.97695
11
3.25065
21
-1.97788
0
LINE
8
BLACK
6
CONTINUOUS
10
3.25065
20
-1.97788
11
3.25075
21
-1.97801
0
LINE
8
BLACK
6
CONTINUOUS
10
3.25075
20
-1.97801
11
3.2509
21
-1.97807
0
LINE
8
BLACK
6
CONTINUOUS
10
3.2509
20
-1.97807
11
3.25184
21
-1.979
0
LINE
8
BLACK
6
CONTINUOUS
10
3.25184
20
-1.979
11
3.2519
21
-1.97915
0
LINE
8
BLACK
6
CONTINUOUS
10
3.2519
20
-1.97915
11
3.25202
21
-1.97926
0
LINE
8
BLACK
6
CONTINUOUS
10
3.25202
20
-1.97926
11
3.25296
21
-1.98114
0
LINE
8
BLACK
6
CONTINUOUS
10
3.25296
20
-1.98114
11
3.25298
21
-1.98136
0
LINE
8
BLACK
6
CONTINUOUS
10
3.25298
20
-1.98136
11
3.25307
21
-1.98158
0
LINE
8
BLACK
6
CONTINUOUS
10
3.25307
20
-1.98158
11
3.25307
21
-1.98626
0
LINE
8
BLACK
6
CONTINUOUS
10
3.25307
20
-1.98626
11
3.25298
21
-1.98647
0
LINE
8
BLACK
6
CONTINUOUS
10
3.25298
20
-1.98647
11
3.25296
21
-1.9867
0
LINE
8
BLACK
6
CONTINUOUS
10
3.25296
20
-1.9867
11
3.25202
21
-1.98858
0
LINE
8
BLACK
6
CONTINUOUS
10
3.25202
20
-1.98858
11
3.2519
21
-1.98868
0
LINE
8
BLACK
6
CONTINUOUS
10
3.2519
20
-1.98868
11
3.25184
21
-1.98883
0
LINE
8
BLACK
6
CONTINUOUS
10
3.25184
20
-1.98883
11
3.2509
21
-1.98977
0
LINE
8
BLACK
6
CONTINUOUS
10
3.2509
20
-1.98977
11
3.25075
21
-1.98983
0
LINE
8
BLACK
6
CONTINUOUS
10
3.25075
20
-1.98983
11
3.25065
21
-1.98996
0
LINE
8
BLACK
6
CONTINUOUS
10
3.25065
20
-1.98996
11
3.24877
21
-1.99089
0
LINE
8
BLACK
6
CONTINUOUS
10
3.24877
20
-1.99089
11
3.24854
21
-1.99091
0
LINE
8
BLACK
6
CONTINUOUS
10
3.24854
20
-1.99091
11
3.24833
21
-1.991
0
LINE
8
BLACK
6
CONTINUOUS
10
3.24833
20
-1.991
11
3.24364
21
-1.991
0
LINE
8
BLACK
6
CONTINUOUS
10
3.24364
20
-1.991
11
3.24343
21
-1.99091
0
LINE
8
BLACK
6
CONTINUOUS
10
3.24343
20
-1.99091
11
3.2432
21
-1.99089
0
LINE
8
BLACK
6
CONTINUOUS
10
3.2432
20
-1.99089
11
3.24133
21
-1.98996
0
LINE
8
BLACK
6
CONTINUOUS
10
3.24133
20
-1.98996
11
3.24122
21
-1.98983
0
LINE
8
BLACK
6
CONTINUOUS
10
3.24122
20
-1.98983
11
3.24107
21
-1.98977
0
LINE
8
BLACK
6
CONTINUOUS
10
3.24107
20
-1.98977
11
3.24014
21
-1.98883
0
LINE
8
BLACK
6
CONTINUOUS
10
3.24014
20
-1.98883
11
3.23985
21
-1.98814
0
LINE
8
BLACK
6
CONTINUOUS
10
3.23985
20
-1.98814
11
3.24014
21
-1.98744
0
LINE
8
BLACK
6
CONTINUOUS
10
3.24014
20
-1.98744
11
3.24083
21
-1.98715
0
LINE
8
BLACK
6
CONTINUOUS
10
3.24083
20
-1.98715
11
3.24153
21
-1.98744
0
LINE
8
BLACK
6
CONTINUOUS
10
3.24153
20
-1.98744
11
3.24235
21
-1.98827
0
LINE
8
BLACK
6
CONTINUOUS
10
3.24235
20
-1.98827
11
3.24388
21
-1.98903
0
LINE
8
BLACK
6
CONTINUOUS
10
3.24388
20
-1.98903
11
3.2481
21
-1.98903
0
LINE
8
BLACK
6
CONTINUOUS
10
3.2481
20
-1.98903
11
3.24962
21
-1.98827
0
LINE
8
BLACK
6
CONTINUOUS
10
3.24962
20
-1.98827
11
3.25033
21
-1.98755
0
LINE
8
BLACK
6
CONTINUOUS
10
3.25033
20
-1.98755
11
3.2511
21
-1.98603
0
LINE
8
BLACK
6
CONTINUOUS
10
3.2511
20
-1.98603
11
3.2511
21
-1.98181
0
LINE
8
BLACK
6
CONTINUOUS
10
3.2511
20
-1.98181
11
3.25033
21
-1.98028
0
LINE
8
BLACK
6
CONTINUOUS
10
3.25033
20
-1.98028
11
3.24962
21
-1.97957
0
LINE
8
BLACK
6
CONTINUOUS
10
3.24962
20
-1.97957
11
3.2481
21
-1.97881
0
LINE
8
BLACK
6
CONTINUOUS
10
3.2481
20
-1.97881
11
3.24388
21
-1.97881
0
LINE
8
BLACK
6
CONTINUOUS
10
3.24388
20
-1.97881
11
3.24235
21
-1.97957
0
LINE
8
BLACK
6
CONTINUOUS
10
3.24235
20
-1.97957
11
3.24153
21
-1.9804
0
LINE
8
BLACK
6
CONTINUOUS
10
3.24153
20
-1.9804
11
3.24148
21
-1.98042
0
LINE
8
BLACK
6
CONTINUOUS
10
3.24148
20
-1.98042
11
3.24146
21
-1.98046
0
LINE
8
BLACK
6
CONTINUOUS
10
3.24146
20
-1.98046
11
3.24114
21
-1.98056
0
LINE
8
BLACK
6
CONTINUOUS
10
3.24114
20
-1.98056
11
3.24083
21
-1.98069
0
LINE
8
BLACK
6
CONTINUOUS
10
3.24083
20
-1.98069
11
3.24078
21
-1.98067
0
LINE
8
BLACK
6
CONTINUOUS
10
3.24078
20
-1.98067
11
3.24073
21
-1.98068
0
LINE
8
BLACK
6
CONTINUOUS
10
3.24073
20
-1.98068
11
3.24044
21
-1.98052
0
LINE
8
BLACK
6
CONTINUOUS
10
3.24044
20
-1.98052
11
3.24014
21
-1.9804
0
LINE
8
BLACK
6
CONTINUOUS
10
3.24014
20
-1.9804
11
3.24012
21
-1.98035
0
LINE
8
BLACK
6
CONTINUOUS
10
3.24012
20
-1.98035
11
3.24007
21
-1.98032
0
LINE
8
BLACK
6
CONTINUOUS
10
3.24007
20
-1.98032
11
3.23997
21
-1.98001
0
LINE
8
BLACK
6
CONTINUOUS
10
3.23997
20
-1.98001
11
3.23985
21
-1.9797
0
LINE
8
BLACK
6
CONTINUOUS
10
3.23985
20
-1.9797
11
3.23987
21
-1.97965
0
LINE
8
BLACK
6
CONTINUOUS
10
3.23987
20
-1.97965
11
3.23985
21
-1.9796
0
LINE
8
BLACK
6
CONTINUOUS
10
3.23985
20
-1.9796
11
3.24079
21
-1.97023
0
LINE
8
BLACK
6
CONTINUOUS
10
3.24079
20
-1.97023
11
3.24095
21
-1.96994
0
LINE
8
BLACK
6
CONTINUOUS
10
3.24095
20
-1.96994
11
3.24107
21
-1.96963
0
LINE
8
BLACK
6
CONTINUOUS
10
3.24107
20
-1.96963
11
3.24112
21
-1.96961
0
LINE
8
BLACK
6
CONTINUOUS
10
3.24112
20
-1.96961
11
3.24115
21
-1.96957
0
LINE
8
BLACK
6
CONTINUOUS
10
3.24115
20
-1.96957
11
3.24146
21
-1.96947
0
LINE
8
BLACK
6
CONTINUOUS
10
3.24146
20
-1.96947
11
3.24177
21
-1.96934
0
LINE
8
BLACK
6
CONTINUOUS
10
3.24177
20
-1.96934
11
3.25114
21
-1.96934
0
LINE
8
BLACK
6
CONTINUOUS
10
3.25114
20
-1.96934
11
3.25184
21
-1.96963
  0
ENDSEC
  0
EOF
