  0
SECTION
  2
HEADER
  9
$ANGBASE
  50
0.0
  9
$ANGDIR
  70
1
  9
$MEASUREMENT
  70
0
  0
ENDSEC
  0
SECTION
  2
TABLES
  0
TABLE
  2
LTYPE
  70
4
  0
LTYPE
  5
40F
  2
CONTINUOUS
  70
0
  3
Solid line
  72
65
  73
0
  40
0.0
  0
LTYPE
  5
410
  2
DASHDOT
 70
0
  3
Dash Dot ____ _ ____ _
 72
65
 73
4
 40
2.0
 49
1.25
 49
-0.25
 49
0.25
 49
-0.25
  0
LTYPE
  5
411
  2
DASHED
 70
0
  3
Dashed __ __ __ __ __
 72
65
 73
2
 40
0.75
 49
0.5
 49
-0.25
  0
LTYPE
  5
43B
  2
DOTTED
 70
0
  3
Dotted .  .  .  .
 72
65
 73
2
 40
0.2
 49
0.0
 49
-0.2
  0
ENDTAB
  0
TABLE
  2
STYLE
  70
4
  0
STYLE
  2
KICAD
  70
0
  40
0
  41
1
  42
1
  50
0
  71
0
  3
isocp.shx
  0
STYLE
  2
KICADB
  70
0
  40
0
  41
1
  42
1
  50
0
  71
0
  3
isocp.shx
  0
STYLE
  2
KICADI
  70
0
  40
0
  41
1
  42
1
  50
15
  71
0
  3
isocp.shx
  0
STYLE
  2
KICADBI
  70
0
  40
0
  41
1
  42
1
  50
15
  71
0
  3
isocp.shx
  0
ENDTAB
  0
TABLE
  2
LAYER
  70
1
  0
LAYER
  2
BLACK
  70
0
  62
7
  6
CONTINUOUS
  0
ENDTAB
  0
ENDSEC
  0
SECTION
  2
ENTITIES
0
LINE
8
BLACK
6
CONTINUOUS
10
3.70089
20
-1.77168
11
3.70258
21
-1.77183
0
LINE
8
BLACK
6
CONTINUOUS
10
3.70258
20
-1.77183
11
3.70755
21
-1.77232
0
LINE
8
BLACK
6
CONTINUOUS
10
3.70755
20
-1.77232
11
3.70833
21
-1.77246
0
LINE
8
BLACK
6
CONTINUOUS
10
3.70833
20
-1.77246
11
3.71092
21
-1.77316
0
LINE
8
BLACK
6
CONTINUOUS
10
3.71092
20
-1.77316
11
3.71099
21
-1.77318
0
LINE
8
BLACK
6
CONTINUOUS
10
3.71099
20
-1.77318
11
3.71463
21
-1.77428
0
LINE
8
BLACK
6
CONTINUOUS
10
3.71463
20
-1.77428
11
3.71527
21
-1.77453
0
LINE
8
BLACK
6
CONTINUOUS
10
3.71527
20
-1.77453
11
3.71793
21
-1.77576
0
LINE
8
BLACK
6
CONTINUOUS
10
3.71793
20
-1.77576
11
3.71805
21
-1.77582
0
LINE
8
BLACK
6
CONTINUOUS
10
3.71805
20
-1.77582
11
3.71953
21
-1.77661
0
LINE
8
BLACK
6
CONTINUOUS
10
3.71953
20
-1.77661
11
3.72135
21
-1.77759
0
LINE
8
BLACK
6
CONTINUOUS
10
3.72135
20
-1.77759
11
3.7216
21
-1.77774
0
LINE
8
BLACK
6
CONTINUOUS
10
3.7216
20
-1.77774
11
3.72421
21
-1.77957
0
LINE
8
BLACK
6
CONTINUOUS
10
3.72421
20
-1.77957
11
3.72435
21
-1.77968
0
LINE
8
BLACK
6
CONTINUOUS
10
3.72435
20
-1.77968
11
3.7272
21
-1.78201
0
LINE
8
BLACK
6
CONTINUOUS
10
3.7272
20
-1.78201
11
3.72737
21
-1.78217
0
LINE
8
BLACK
6
CONTINUOUS
10
3.72737
20
-1.78217
11
3.72964
21
-1.78444
0
LINE
8
BLACK
6
CONTINUOUS
10
3.72964
20
-1.78444
11
3.7298
21
-1.78461
0
LINE
8
BLACK
6
CONTINUOUS
10
3.7298
20
-1.78461
11
3.73213
21
-1.78746
0
LINE
8
BLACK
6
CONTINUOUS
10
3.73213
20
-1.78746
11
3.73224
21
-1.78761
0
LINE
8
BLACK
6
CONTINUOUS
10
3.73224
20
-1.78761
11
3.73407
21
-1.79021
0
LINE
8
BLACK
6
CONTINUOUS
10
3.73407
20
-1.79021
11
3.73422
21
-1.79046
0
LINE
8
BLACK
6
CONTINUOUS
10
3.73422
20
-1.79046
11
3.73599
21
-1.79376
0
LINE
8
BLACK
6
CONTINUOUS
10
3.73599
20
-1.79376
11
3.73605
21
-1.79388
0
LINE
8
BLACK
6
CONTINUOUS
10
3.73605
20
-1.79388
11
3.73729
21
-1.79654
0
LINE
8
BLACK
6
CONTINUOUS
10
3.73729
20
-1.79654
11
3.73753
21
-1.79718
0
LINE
8
BLACK
6
CONTINUOUS
10
3.73753
20
-1.79718
11
3.73863
21
-1.80081
0
LINE
8
BLACK
6
CONTINUOUS
10
3.73863
20
-1.80081
11
3.73866
21
-1.80089
0
LINE
8
BLACK
6
CONTINUOUS
10
3.73866
20
-1.80089
11
3.73935
21
-1.80348
0
LINE
8
BLACK
6
CONTINUOUS
10
3.73935
20
-1.80348
11
3.73949
21
-1.80426
0
LINE
8
BLACK
6
CONTINUOUS
10
3.73949
20
-1.80426
11
3.73998
21
-1.80923
0
LINE
8
BLACK
6
CONTINUOUS
10
3.73998
20
-1.80923
11
3.74013
21
-1.81092
0
LINE
8
BLACK
6
CONTINUOUS
10
3.74013
20
-1.81092
11
3.74014
21
-1.81113
0
LINE
8
BLACK
6
CONTINUOUS
10
3.74014
20
-1.81113
11
3.74014
21
-2.75597
0
LINE
8
BLACK
6
CONTINUOUS
10
3.74014
20
-2.75597
11
3.73936
21
-2.75861
0
LINE
8
BLACK
6
CONTINUOUS
10
3.73936
20
-2.75861
11
3.73728
21
-2.76041
0
LINE
8
BLACK
6
CONTINUOUS
10
3.73728
20
-2.76041
11
3.73456
21
-2.7608
0
LINE
8
BLACK
6
CONTINUOUS
10
3.73456
20
-2.7608
11
3.73233
21
-2.75988
0
LINE
8
BLACK
6
CONTINUOUS
10
3.73233
20
-2.75988
11
3.73
21
-2.75814
0
LINE
8
BLACK
6
CONTINUOUS
10
3.73
20
-2.75814
11
3.73
21
-2.75814
0
LINE
8
BLACK
6
CONTINUOUS
10
3.73
20
-2.75814
11
3.7247
21
-2.75616
0
LINE
8
BLACK
6
CONTINUOUS
10
3.7247
20
-2.75616
11
3.7247
21
-2.75616
0
LINE
8
BLACK
6
CONTINUOUS
10
3.7247
20
-2.75616
11
3.72236
21
-2.75591
0
LINE
8
BLACK
6
CONTINUOUS
10
3.72236
20
-2.75591
11
3.67618
21
-2.75591
0
LINE
8
BLACK
6
CONTINUOUS
10
3.67618
20
-2.75591
11
3.67618
21
-2.77559
0
LINE
8
BLACK
6
CONTINUOUS
10
3.67618
20
-2.77559
11
3.72047
21
-2.77559
0
LINE
8
BLACK
6
CONTINUOUS
10
3.72047
20
-2.77559
11
3.72047
21
-2.81496
0
LINE
8
BLACK
6
CONTINUOUS
10
3.72047
20
-2.81496
11
3.67618
21
-2.81496
0
LINE
8
BLACK
6
CONTINUOUS
10
3.67618
20
-2.81496
11
3.67618
21
-2.83465
0
LINE
8
BLACK
6
CONTINUOUS
10
3.67618
20
-2.83465
11
3.72236
21
-2.83465
0
LINE
8
BLACK
6
CONTINUOUS
10
3.72236
20
-2.83465
11
3.72236
21
-2.83465
0
LINE
8
BLACK
6
CONTINUOUS
10
3.72236
20
-2.83465
11
3.7247
21
-2.83439
0
LINE
8
BLACK
6
CONTINUOUS
10
3.7247
20
-2.83439
11
3.7247
21
-2.83439
0
LINE
8
BLACK
6
CONTINUOUS
10
3.7247
20
-2.83439
11
3.73
21
-2.83242
0
LINE
8
BLACK
6
CONTINUOUS
10
3.73
20
-2.83242
11
3.73
21
-2.83242
0
LINE
8
BLACK
6
CONTINUOUS
10
3.73
20
-2.83242
11
3.73233
21
-2.83067
0
LINE
8
BLACK
6
CONTINUOUS
10
3.73233
20
-2.83067
11
3.73491
21
-2.82971
0
LINE
8
BLACK
6
CONTINUOUS
10
3.73491
20
-2.82971
11
3.7376
21
-2.8303
0
LINE
8
BLACK
6
CONTINUOUS
10
3.7376
20
-2.8303
11
3.73954
21
-2.83224
0
LINE
8
BLACK
6
CONTINUOUS
10
3.73954
20
-2.83224
11
3.74014
21
-2.83458
0
LINE
8
BLACK
6
CONTINUOUS
10
3.74014
20
-2.83458
11
3.74014
21
-2.91328
0
LINE
8
BLACK
6
CONTINUOUS
10
3.74014
20
-2.91328
11
3.74013
21
-2.91349
0
LINE
8
BLACK
6
CONTINUOUS
10
3.74013
20
-2.91349
11
3.73998
21
-2.91518
0
LINE
8
BLACK
6
CONTINUOUS
10
3.73998
20
-2.91518
11
3.73949
21
-2.92015
0
LINE
8
BLACK
6
CONTINUOUS
10
3.73949
20
-2.92015
11
3.73935
21
-2.92093
0
LINE
8
BLACK
6
CONTINUOUS
10
3.73935
20
-2.92093
11
3.73866
21
-2.92352
0
LINE
8
BLACK
6
CONTINUOUS
10
3.73866
20
-2.92352
11
3.73863
21
-2.9236
0
LINE
8
BLACK
6
CONTINUOUS
10
3.73863
20
-2.9236
11
3.73753
21
-2.92723
0
LINE
8
BLACK
6
CONTINUOUS
10
3.73753
20
-2.92723
11
3.73729
21
-2.92787
0
LINE
8
BLACK
6
CONTINUOUS
10
3.73729
20
-2.92787
11
3.73605
21
-2.93053
0
LINE
8
BLACK
6
CONTINUOUS
10
3.73605
20
-2.93053
11
3.73599
21
-2.93065
0
LINE
8
BLACK
6
CONTINUOUS
10
3.73599
20
-2.93065
11
3.73422
21
-2.93395
0
LINE
8
BLACK
6
CONTINUOUS
10
3.73422
20
-2.93395
11
3.73407
21
-2.9342
0
LINE
8
BLACK
6
CONTINUOUS
10
3.73407
20
-2.9342
11
3.73224
21
-2.9368
0
LINE
8
BLACK
6
CONTINUOUS
10
3.73224
20
-2.9368
11
3.73213
21
-2.93695
0
LINE
8
BLACK
6
CONTINUOUS
10
3.73213
20
-2.93695
11
3.7298
21
-2.9398
0
LINE
8
BLACK
6
CONTINUOUS
10
3.7298
20
-2.9398
11
3.72964
21
-2.93997
0
LINE
8
BLACK
6
CONTINUOUS
10
3.72964
20
-2.93997
11
3.72737
21
-2.94224
0
LINE
8
BLACK
6
CONTINUOUS
10
3.72737
20
-2.94224
11
3.7272
21
-2.9424
0
LINE
8
BLACK
6
CONTINUOUS
10
3.7272
20
-2.9424
11
3.72435
21
-2.94473
0
LINE
8
BLACK
6
CONTINUOUS
10
3.72435
20
-2.94473
11
3.72421
21
-2.94484
0
LINE
8
BLACK
6
CONTINUOUS
10
3.72421
20
-2.94484
11
3.7216
21
-2.94667
0
LINE
8
BLACK
6
CONTINUOUS
10
3.7216
20
-2.94667
11
3.72135
21
-2.94682
0
LINE
8
BLACK
6
CONTINUOUS
10
3.72135
20
-2.94682
11
3.71805
21
-2.94859
0
LINE
8
BLACK
6
CONTINUOUS
10
3.71805
20
-2.94859
11
3.71793
21
-2.94865
0
LINE
8
BLACK
6
CONTINUOUS
10
3.71793
20
-2.94865
11
3.71527
21
-2.94988
0
LINE
8
BLACK
6
CONTINUOUS
10
3.71527
20
-2.94988
11
3.71463
21
-2.95013
0
LINE
8
BLACK
6
CONTINUOUS
10
3.71463
20
-2.95013
11
3.711
21
-2.95123
0
LINE
8
BLACK
6
CONTINUOUS
10
3.711
20
-2.95123
11
3.71092
21
-2.95125
0
LINE
8
BLACK
6
CONTINUOUS
10
3.71092
20
-2.95125
11
3.70833
21
-2.95195
0
LINE
8
BLACK
6
CONTINUOUS
10
3.70833
20
-2.95195
11
3.70755
21
-2.95209
0
LINE
8
BLACK
6
CONTINUOUS
10
3.70755
20
-2.95209
11
3.70258
21
-2.95258
0
LINE
8
BLACK
6
CONTINUOUS
10
3.70258
20
-2.95258
11
3.70107
21
-2.95271
0
LINE
8
BLACK
6
CONTINUOUS
10
3.70107
20
-2.95271
11
3.70089
21
-2.95273
0
LINE
8
BLACK
6
CONTINUOUS
10
3.70089
20
-2.95273
11
3.70068
21
-2.95274
0
LINE
8
BLACK
6
CONTINUOUS
10
3.70068
20
-2.95274
11
2.59853
21
-2.95274
0
LINE
8
BLACK
6
CONTINUOUS
10
2.59853
20
-2.95274
11
2.59832
21
-2.95273
0
LINE
8
BLACK
6
CONTINUOUS
10
2.59832
20
-2.95273
11
2.59812
21
-2.95271
0
LINE
8
BLACK
6
CONTINUOUS
10
2.59812
20
-2.95271
11
2.59664
21
-2.95258
0
LINE
8
BLACK
6
CONTINUOUS
10
2.59664
20
-2.95258
11
2.59166
21
-2.95209
0
LINE
8
BLACK
6
CONTINUOUS
10
2.59166
20
-2.95209
11
2.59088
21
-2.95195
0
LINE
8
BLACK
6
CONTINUOUS
10
2.59088
20
-2.95195
11
2.58829
21
-2.95125
0
LINE
8
BLACK
6
CONTINUOUS
10
2.58829
20
-2.95125
11
2.58822
21
-2.95123
0
LINE
8
BLACK
6
CONTINUOUS
10
2.58822
20
-2.95123
11
2.58674
21
-2.95078
0
LINE
8
BLACK
6
CONTINUOUS
10
2.58674
20
-2.95078
11
2.58458
21
-2.95013
0
LINE
8
BLACK
6
CONTINUOUS
10
2.58458
20
-2.95013
11
2.58394
21
-2.94988
0
LINE
8
BLACK
6
CONTINUOUS
10
2.58394
20
-2.94988
11
2.58128
21
-2.94865
0
LINE
8
BLACK
6
CONTINUOUS
10
2.58128
20
-2.94865
11
2.58117
21
-2.94859
0
LINE
8
BLACK
6
CONTINUOUS
10
2.58117
20
-2.94859
11
2.57786
21
-2.94682
0
LINE
8
BLACK
6
CONTINUOUS
10
2.57786
20
-2.94682
11
2.57761
21
-2.94667
0
LINE
8
BLACK
6
CONTINUOUS
10
2.57761
20
-2.94667
11
2.57501
21
-2.94484
0
LINE
8
BLACK
6
CONTINUOUS
10
2.57501
20
-2.94484
11
2.57486
21
-2.94473
0
LINE
8
BLACK
6
CONTINUOUS
10
2.57486
20
-2.94473
11
2.57202
21
-2.9424
0
LINE
8
BLACK
6
CONTINUOUS
10
2.57202
20
-2.9424
11
2.57184
21
-2.94224
0
LINE
8
BLACK
6
CONTINUOUS
10
2.57184
20
-2.94224
11
2.56957
21
-2.93997
0
LINE
8
BLACK
6
CONTINUOUS
10
2.56957
20
-2.93997
11
2.56941
21
-2.9398
0
LINE
8
BLACK
6
CONTINUOUS
10
2.56941
20
-2.9398
11
2.56708
21
-2.93695
0
LINE
8
BLACK
6
CONTINUOUS
10
2.56708
20
-2.93695
11
2.56697
21
-2.9368
0
LINE
8
BLACK
6
CONTINUOUS
10
2.56697
20
-2.9368
11
2.56514
21
-2.9342
0
LINE
8
BLACK
6
CONTINUOUS
10
2.56514
20
-2.9342
11
2.56499
21
-2.93395
0
LINE
8
BLACK
6
CONTINUOUS
10
2.56499
20
-2.93395
11
2.56402
21
-2.93212
0
LINE
8
BLACK
6
CONTINUOUS
10
2.56402
20
-2.93212
11
2.56322
21
-2.93064
0
LINE
8
BLACK
6
CONTINUOUS
10
2.56322
20
-2.93064
11
2.56317
21
-2.93053
0
LINE
8
BLACK
6
CONTINUOUS
10
2.56317
20
-2.93053
11
2.56193
21
-2.92787
0
LINE
8
BLACK
6
CONTINUOUS
10
2.56193
20
-2.92787
11
2.56168
21
-2.92723
0
LINE
8
BLACK
6
CONTINUOUS
10
2.56168
20
-2.92723
11
2.56058
21
-2.92359
0
LINE
8
BLACK
6
CONTINUOUS
10
2.56058
20
-2.92359
11
2.56056
21
-2.92352
0
LINE
8
BLACK
6
CONTINUOUS
10
2.56056
20
-2.92352
11
2.55986
21
-2.92093
0
LINE
8
BLACK
6
CONTINUOUS
10
2.55986
20
-2.92093
11
2.55972
21
-2.92015
0
LINE
8
BLACK
6
CONTINUOUS
10
2.55972
20
-2.92015
11
2.55923
21
-2.91518
0
LINE
8
BLACK
6
CONTINUOUS
10
2.55923
20
-2.91518
11
2.55908
21
-2.91349
0
LINE
8
BLACK
6
CONTINUOUS
10
2.55908
20
-2.91349
11
2.55907
21
-2.91328
0
LINE
8
BLACK
6
CONTINUOUS
10
2.55907
20
-2.91328
11
2.55907
21
-2.83465
0
LINE
8
BLACK
6
CONTINUOUS
10
2.55907
20
-2.83465
11
2.55907
21
-2.69229
0
LINE
8
BLACK
6
CONTINUOUS
10
2.55907
20
-2.69229
11
2.55907
21
-2.36221
0
LINE
8
BLACK
6
CONTINUOUS
10
2.55907
20
-2.36221
11
2.55907
21
-1.81113
0
LINE
8
BLACK
6
CONTINUOUS
10
2.55907
20
-1.81113
11
2.55908
21
-1.81092
0
LINE
8
BLACK
6
CONTINUOUS
10
2.55908
20
-1.81092
11
2.55923
21
-1.80923
0
LINE
8
BLACK
6
CONTINUOUS
10
2.55923
20
-1.80923
11
2.55972
21
-1.80426
0
LINE
8
BLACK
6
CONTINUOUS
10
2.55972
20
-1.80426
11
2.55986
21
-1.80348
0
LINE
8
BLACK
6
CONTINUOUS
10
2.55986
20
-1.80348
11
2.56056
21
-1.80089
0
LINE
8
BLACK
6
CONTINUOUS
10
2.56056
20
-1.80089
11
2.56058
21
-1.80082
0
LINE
8
BLACK
6
CONTINUOUS
10
2.56058
20
-1.80082
11
2.56168
21
-1.79718
0
LINE
8
BLACK
6
CONTINUOUS
10
2.56168
20
-1.79718
11
2.56193
21
-1.79654
0
LINE
8
BLACK
6
CONTINUOUS
10
2.56193
20
-1.79654
11
2.56317
21
-1.79388
0
LINE
8
BLACK
6
CONTINUOUS
10
2.56317
20
-1.79388
11
2.56322
21
-1.79377
0
LINE
8
BLACK
6
CONTINUOUS
10
2.56322
20
-1.79377
11
2.56499
21
-1.79046
0
LINE
8
BLACK
6
CONTINUOUS
10
2.56499
20
-1.79046
11
2.56514
21
-1.79021
0
LINE
8
BLACK
6
CONTINUOUS
10
2.56514
20
-1.79021
11
2.56645
21
-1.78834
0
LINE
8
BLACK
6
CONTINUOUS
10
2.56645
20
-1.78834
11
2.56697
21
-1.7876
0
LINE
8
BLACK
6
CONTINUOUS
10
2.56697
20
-1.7876
11
2.56708
21
-1.78746
0
LINE
8
BLACK
6
CONTINUOUS
10
2.56708
20
-1.78746
11
2.56941
21
-1.78461
0
LINE
8
BLACK
6
CONTINUOUS
10
2.56941
20
-1.78461
11
2.56957
21
-1.78444
0
LINE
8
BLACK
6
CONTINUOUS
10
2.56957
20
-1.78444
11
2.57184
21
-1.78217
0
LINE
8
BLACK
6
CONTINUOUS
10
2.57184
20
-1.78217
11
2.57201
21
-1.78201
0
LINE
8
BLACK
6
CONTINUOUS
10
2.57201
20
-1.78201
11
2.57486
21
-1.77968
0
LINE
8
BLACK
6
CONTINUOUS
10
2.57486
20
-1.77968
11
2.57501
21
-1.77957
0
LINE
8
BLACK
6
CONTINUOUS
10
2.57501
20
-1.77957
11
2.57761
21
-1.77774
0
LINE
8
BLACK
6
CONTINUOUS
10
2.57761
20
-1.77774
11
2.57786
21
-1.77759
0
LINE
8
BLACK
6
CONTINUOUS
10
2.57786
20
-1.77759
11
2.58117
21
-1.77582
0
LINE
8
BLACK
6
CONTINUOUS
10
2.58117
20
-1.77582
11
2.58128
21
-1.77576
0
LINE
8
BLACK
6
CONTINUOUS
10
2.58128
20
-1.77576
11
2.58394
21
-1.77453
0
LINE
8
BLACK
6
CONTINUOUS
10
2.58394
20
-1.77453
11
2.58458
21
-1.77428
0
LINE
8
BLACK
6
CONTINUOUS
10
2.58458
20
-1.77428
11
2.58822
21
-1.77318
0
LINE
8
BLACK
6
CONTINUOUS
10
2.58822
20
-1.77318
11
2.58829
21
-1.77316
0
LINE
8
BLACK
6
CONTINUOUS
10
2.58829
20
-1.77316
11
2.59088
21
-1.77246
0
LINE
8
BLACK
6
CONTINUOUS
10
2.59088
20
-1.77246
11
2.59166
21
-1.77232
0
LINE
8
BLACK
6
CONTINUOUS
10
2.59166
20
-1.77232
11
2.59613
21
-1.77188
0
LINE
8
BLACK
6
CONTINUOUS
10
2.59613
20
-1.77188
11
2.59664
21
-1.77183
0
LINE
8
BLACK
6
CONTINUOUS
10
2.59664
20
-1.77183
11
2.59832
21
-1.77168
0
LINE
8
BLACK
6
CONTINUOUS
10
2.59832
20
-1.77168
11
2.59853
21
-1.77167
0
LINE
8
BLACK
6
CONTINUOUS
10
2.59853
20
-1.77167
11
3.70068
21
-1.77167
0
LINE
8
BLACK
6
CONTINUOUS
10
3.70068
20
-1.77167
11
3.70089
21
-1.77168
0
LINE
8
BLACK
6
CONTINUOUS
10
3.47441
20
-2.81496
11
3.4479
21
-2.81496
0
LINE
8
BLACK
6
CONTINUOUS
10
3.4479
20
-2.81496
11
3.45368
21
-2.82073
0
LINE
8
BLACK
6
CONTINUOUS
10
3.45368
20
-2.82073
11
3.45576
21
-2.81967
0
LINE
8
BLACK
6
CONTINUOUS
10
3.45576
20
-2.81967
11
3.46063
21
-2.8189
0
LINE
8
BLACK
6
CONTINUOUS
10
3.46063
20
-2.8189
11
3.4655
21
-2.81967
0
LINE
8
BLACK
6
CONTINUOUS
10
3.4655
20
-2.81967
11
3.46989
21
-2.82191
0
LINE
8
BLACK
6
CONTINUOUS
10
3.46989
20
-2.82191
11
3.47337
21
-2.82539
0
LINE
8
BLACK
6
CONTINUOUS
10
3.47337
20
-2.82539
11
3.47561
21
-2.82978
0
LINE
8
BLACK
6
CONTINUOUS
10
3.47561
20
-2.82978
11
3.47638
21
-2.83465
0
LINE
8
BLACK
6
CONTINUOUS
10
3.47638
20
-2.83465
11
3.47561
21
-2.83951
0
LINE
8
BLACK
6
CONTINUOUS
10
3.47561
20
-2.83951
11
3.47337
21
-2.8439
0
LINE
8
BLACK
6
CONTINUOUS
10
3.47337
20
-2.8439
11
3.46989
21
-2.84739
0
LINE
8
BLACK
6
CONTINUOUS
10
3.46989
20
-2.84739
11
3.4655
21
-2.84962
0
LINE
8
BLACK
6
CONTINUOUS
10
3.4655
20
-2.84962
11
3.46063
21
-2.85039
0
LINE
8
BLACK
6
CONTINUOUS
10
3.46063
20
-2.85039
11
3.45576
21
-2.84962
0
LINE
8
BLACK
6
CONTINUOUS
10
3.45576
20
-2.84962
11
3.45137
21
-2.84739
0
LINE
8
BLACK
6
CONTINUOUS
10
3.45137
20
-2.84739
11
3.44789
21
-2.8439
0
LINE
8
BLACK
6
CONTINUOUS
10
3.44789
20
-2.8439
11
3.44565
21
-2.83951
0
LINE
8
BLACK
6
CONTINUOUS
10
3.44565
20
-2.83951
11
3.44488
21
-2.83465
0
LINE
8
BLACK
6
CONTINUOUS
10
3.44488
20
-2.83465
11
3.44565
21
-2.82978
0
LINE
8
BLACK
6
CONTINUOUS
10
3.44565
20
-2.82978
11
3.44672
21
-2.82769
0
LINE
8
BLACK
6
CONTINUOUS
10
3.44672
20
-2.82769
11
3.43399
21
-2.81496
0
LINE
8
BLACK
6
CONTINUOUS
10
3.43399
20
-2.81496
11
3.4252
21
-2.81496
0
LINE
8
BLACK
6
CONTINUOUS
10
3.4252
20
-2.81496
11
3.4252
21
-2.81952
0
LINE
8
BLACK
6
CONTINUOUS
10
3.4252
20
-2.81952
11
3.42613
21
-2.81967
0
LINE
8
BLACK
6
CONTINUOUS
10
3.42613
20
-2.81967
11
3.43052
21
-2.82191
0
LINE
8
BLACK
6
CONTINUOUS
10
3.43052
20
-2.82191
11
3.434
21
-2.82539
0
LINE
8
BLACK
6
CONTINUOUS
10
3.434
20
-2.82539
11
3.43624
21
-2.82978
0
LINE
8
BLACK
6
CONTINUOUS
10
3.43624
20
-2.82978
11
3.43701
21
-2.83465
0
LINE
8
BLACK
6
CONTINUOUS
10
3.43701
20
-2.83465
11
3.43624
21
-2.83951
0
LINE
8
BLACK
6
CONTINUOUS
10
3.43624
20
-2.83951
11
3.434
21
-2.8439
0
LINE
8
BLACK
6
CONTINUOUS
10
3.434
20
-2.8439
11
3.43052
21
-2.84739
0
LINE
8
BLACK
6
CONTINUOUS
10
3.43052
20
-2.84739
11
3.42613
21
-2.84962
0
LINE
8
BLACK
6
CONTINUOUS
10
3.42613
20
-2.84962
11
3.42126
21
-2.85039
0
LINE
8
BLACK
6
CONTINUOUS
10
3.42126
20
-2.85039
11
3.41639
21
-2.84962
0
LINE
8
BLACK
6
CONTINUOUS
10
3.41639
20
-2.84962
11
3.412
21
-2.84739
0
LINE
8
BLACK
6
CONTINUOUS
10
3.412
20
-2.84739
11
3.40852
21
-2.8439
0
LINE
8
BLACK
6
CONTINUOUS
10
3.40852
20
-2.8439
11
3.40628
21
-2.83951
0
LINE
8
BLACK
6
CONTINUOUS
10
3.40628
20
-2.83951
11
3.40551
21
-2.83465
0
LINE
8
BLACK
6
CONTINUOUS
10
3.40551
20
-2.83465
11
3.40628
21
-2.82978
0
LINE
8
BLACK
6
CONTINUOUS
10
3.40628
20
-2.82978
11
3.40852
21
-2.82539
0
LINE
8
BLACK
6
CONTINUOUS
10
3.40852
20
-2.82539
11
3.412
21
-2.82191
0
LINE
8
BLACK
6
CONTINUOUS
10
3.412
20
-2.82191
11
3.41535
21
-2.8202
0
LINE
8
BLACK
6
CONTINUOUS
10
3.41535
20
-2.8202
11
3.41535
21
-2.81496
0
LINE
8
BLACK
6
CONTINUOUS
10
3.41535
20
-2.81496
11
3.40853
21
-2.81496
0
LINE
8
BLACK
6
CONTINUOUS
10
3.40853
20
-2.81496
11
3.3958
21
-2.82769
0
LINE
8
BLACK
6
CONTINUOUS
10
3.3958
20
-2.82769
11
3.39687
21
-2.82978
0
LINE
8
BLACK
6
CONTINUOUS
10
3.39687
20
-2.82978
11
3.39764
21
-2.83465
0
LINE
8
BLACK
6
CONTINUOUS
10
3.39764
20
-2.83465
11
3.39687
21
-2.83951
0
LINE
8
BLACK
6
CONTINUOUS
10
3.39687
20
-2.83951
11
3.39463
21
-2.8439
0
LINE
8
BLACK
6
CONTINUOUS
10
3.39463
20
-2.8439
11
3.39115
21
-2.84739
0
LINE
8
BLACK
6
CONTINUOUS
10
3.39115
20
-2.84739
11
3.38676
21
-2.84962
0
LINE
8
BLACK
6
CONTINUOUS
10
3.38676
20
-2.84962
11
3.38189
21
-2.85039
0
LINE
8
BLACK
6
CONTINUOUS
10
3.38189
20
-2.85039
11
3.37702
21
-2.84962
0
LINE
8
BLACK
6
CONTINUOUS
10
3.37702
20
-2.84962
11
3.37263
21
-2.84739
0
LINE
8
BLACK
6
CONTINUOUS
10
3.37263
20
-2.84739
11
3.36915
21
-2.8439
0
LINE
8
BLACK
6
CONTINUOUS
10
3.36915
20
-2.8439
11
3.36691
21
-2.83951
0
LINE
8
BLACK
6
CONTINUOUS
10
3.36691
20
-2.83951
11
3.36614
21
-2.83465
0
LINE
8
BLACK
6
CONTINUOUS
10
3.36614
20
-2.83465
11
3.36691
21
-2.82978
0
LINE
8
BLACK
6
CONTINUOUS
10
3.36691
20
-2.82978
11
3.36915
21
-2.82539
0
LINE
8
BLACK
6
CONTINUOUS
10
3.36915
20
-2.82539
11
3.37263
21
-2.82191
0
LINE
8
BLACK
6
CONTINUOUS
10
3.37263
20
-2.82191
11
3.37702
21
-2.81967
0
LINE
8
BLACK
6
CONTINUOUS
10
3.37702
20
-2.81967
11
3.38189
21
-2.8189
0
LINE
8
BLACK
6
CONTINUOUS
10
3.38189
20
-2.8189
11
3.38676
21
-2.81967
0
LINE
8
BLACK
6
CONTINUOUS
10
3.38676
20
-2.81967
11
3.38884
21
-2.82073
0
LINE
8
BLACK
6
CONTINUOUS
10
3.38884
20
-2.82073
11
3.39462
21
-2.81496
0
LINE
8
BLACK
6
CONTINUOUS
10
3.39462
20
-2.81496
11
3.36614
21
-2.81496
0
LINE
8
BLACK
6
CONTINUOUS
10
3.36614
20
-2.81496
11
3.36614
21
-2.77559
0
LINE
8
BLACK
6
CONTINUOUS
10
3.36614
20
-2.77559
11
3.47441
21
-2.77559
0
LINE
8
BLACK
6
CONTINUOUS
10
3.47441
20
-2.77559
11
3.47441
21
-2.81496
0
LINE
8
BLACK
6
CONTINUOUS
10
3.59252
20
-2.81684
11
3.59277
21
-2.81919
0
LINE
8
BLACK
6
CONTINUOUS
10
3.59277
20
-2.81919
11
3.59277
21
-2.81919
0
LINE
8
BLACK
6
CONTINUOUS
10
3.59277
20
-2.81919
11
3.59475
21
-2.82449
0
LINE
8
BLACK
6
CONTINUOUS
10
3.59475
20
-2.82449
11
3.59475
21
-2.82449
0
LINE
8
BLACK
6
CONTINUOUS
10
3.59475
20
-2.82449
11
3.59814
21
-2.82902
0
LINE
8
BLACK
6
CONTINUOUS
10
3.59814
20
-2.82902
11
3.59814
21
-2.82902
0
LINE
8
BLACK
6
CONTINUOUS
10
3.59814
20
-2.82902
11
3.60267
21
-2.83242
0
LINE
8
BLACK
6
CONTINUOUS
10
3.60267
20
-2.83242
11
3.60267
21
-2.83242
0
LINE
8
BLACK
6
CONTINUOUS
10
3.60267
20
-2.83242
11
3.60798
21
-2.83439
0
LINE
8
BLACK
6
CONTINUOUS
10
3.60798
20
-2.83439
11
3.60798
21
-2.83439
0
LINE
8
BLACK
6
CONTINUOUS
10
3.60798
20
-2.83439
11
3.61032
21
-2.83465
0
LINE
8
BLACK
6
CONTINUOUS
10
3.61032
20
-2.83465
11
3.61032
21
-2.83465
0
LINE
8
BLACK
6
CONTINUOUS
10
3.61032
20
-2.83465
11
3.6565
21
-2.83465
0
LINE
8
BLACK
6
CONTINUOUS
10
3.6565
20
-2.83465
11
3.6565
21
-2.81496
0
LINE
8
BLACK
6
CONTINUOUS
10
3.6565
20
-2.81496
11
3.6122
21
-2.81496
0
LINE
8
BLACK
6
CONTINUOUS
10
3.6122
20
-2.81496
11
3.6122
21
-2.80512
0
LINE
8
BLACK
6
CONTINUOUS
10
3.6122
20
-2.80512
11
3.59252
21
-2.80512
0
LINE
8
BLACK
6
CONTINUOUS
10
3.59252
20
-2.80512
11
3.59252
21
-2.81684
0
LINE
8
BLACK
6
CONTINUOUS
10
3.52362
20
-2.53937
11
3.48425
21
-2.53937
0
LINE
8
BLACK
6
CONTINUOUS
10
3.48425
20
-2.53937
11
3.48425
21
-2.51188
0
LINE
8
BLACK
6
CONTINUOUS
10
3.48425
20
-2.51188
11
3.47297
21
-2.52316
0
LINE
8
BLACK
6
CONTINUOUS
10
3.47297
20
-2.52316
11
3.47226
21
-2.52369
0
LINE
8
BLACK
6
CONTINUOUS
10
3.47226
20
-2.52369
11
3.47215
21
-2.52383
0
LINE
8
BLACK
6
CONTINUOUS
10
3.47215
20
-2.52383
11
3.47205
21
-2.52386
0
LINE
8
BLACK
6
CONTINUOUS
10
3.47205
20
-2.52386
11
3.47185
21
-2.524
0
LINE
8
BLACK
6
CONTINUOUS
10
3.47185
20
-2.524
11
3.47066
21
-2.52426
0
LINE
8
BLACK
6
CONTINUOUS
10
3.47066
20
-2.52426
11
3.46949
21
-2.52461
0
LINE
8
BLACK
6
CONTINUOUS
10
3.46949
20
-2.52461
11
3.43307
21
-2.52461
0
LINE
8
BLACK
6
CONTINUOUS
10
3.43307
20
-2.52461
11
3.4322
21
-2.52448
0
LINE
8
BLACK
6
CONTINUOUS
10
3.4322
20
-2.52448
11
3.43202
21
-2.52449
0
LINE
8
BLACK
6
CONTINUOUS
10
3.43202
20
-2.52449
11
3.43193
21
-2.52444
0
LINE
8
BLACK
6
CONTINUOUS
10
3.43193
20
-2.52444
11
3.43168
21
-2.52441
0
LINE
8
BLACK
6
CONTINUOUS
10
3.43168
20
-2.52441
11
3.43066
21
-2.52375
0
LINE
8
BLACK
6
CONTINUOUS
10
3.43066
20
-2.52375
11
3.42959
21
-2.52316
0
LINE
8
BLACK
6
CONTINUOUS
10
3.42959
20
-2.52316
11
3.42428
21
-2.51785
0
LINE
8
BLACK
6
CONTINUOUS
10
3.42428
20
-2.51785
11
3.42224
21
-2.51889
0
LINE
8
BLACK
6
CONTINUOUS
10
3.42224
20
-2.51889
11
3.42224
21
-2.56299
0
LINE
8
BLACK
6
CONTINUOUS
10
3.42224
20
-2.56299
11
3.42212
21
-2.56386
0
LINE
8
BLACK
6
CONTINUOUS
10
3.42212
20
-2.56386
11
3.42213
21
-2.56404
0
LINE
8
BLACK
6
CONTINUOUS
10
3.42213
20
-2.56404
11
3.42208
21
-2.56413
0
LINE
8
BLACK
6
CONTINUOUS
10
3.42208
20
-2.56413
11
3.42204
21
-2.56438
0
LINE
8
BLACK
6
CONTINUOUS
10
3.42204
20
-2.56438
11
3.42139
21
-2.5654
0
LINE
8
BLACK
6
CONTINUOUS
10
3.42139
20
-2.5654
11
3.4208
21
-2.56647
0
LINE
8
BLACK
6
CONTINUOUS
10
3.4208
20
-2.56647
11
3.3435
21
-2.64377
0
LINE
8
BLACK
6
CONTINUOUS
10
3.3435
20
-2.64377
11
3.3435
21
-2.69087
0
LINE
8
BLACK
6
CONTINUOUS
10
3.3435
20
-2.69087
11
3.36424
21
-2.71161
0
LINE
8
BLACK
6
CONTINUOUS
10
3.36424
20
-2.71161
11
3.36614
21
-2.71161
0
LINE
8
BLACK
6
CONTINUOUS
10
3.36614
20
-2.71161
11
3.36614
21
-2.69685
0
LINE
8
BLACK
6
CONTINUOUS
10
3.36614
20
-2.69685
11
3.47441
21
-2.69685
0
LINE
8
BLACK
6
CONTINUOUS
10
3.47441
20
-2.69685
11
3.47441
21
-2.73622
0
LINE
8
BLACK
6
CONTINUOUS
10
3.47441
20
-2.73622
11
3.36614
21
-2.73622
0
LINE
8
BLACK
6
CONTINUOUS
10
3.36614
20
-2.73622
11
3.36614
21
-2.72146
0
LINE
8
BLACK
6
CONTINUOUS
10
3.36614
20
-2.72146
11
3.3622
21
-2.72146
0
LINE
8
BLACK
6
CONTINUOUS
10
3.3622
20
-2.72146
11
3.36133
21
-2.72133
0
LINE
8
BLACK
6
CONTINUOUS
10
3.36133
20
-2.72133
11
3.36116
21
-2.72134
0
LINE
8
BLACK
6
CONTINUOUS
10
3.36116
20
-2.72134
11
3.36106
21
-2.72129
0
LINE
8
BLACK
6
CONTINUOUS
10
3.36106
20
-2.72129
11
3.36082
21
-2.72126
0
LINE
8
BLACK
6
CONTINUOUS
10
3.36082
20
-2.72126
11
3.35979
21
-2.7206
0
LINE
8
BLACK
6
CONTINUOUS
10
3.35979
20
-2.7206
11
3.35872
21
-2.72002
0
LINE
8
BLACK
6
CONTINUOUS
10
3.35872
20
-2.72002
11
3.3351
21
-2.69639
0
LINE
8
BLACK
6
CONTINUOUS
10
3.3351
20
-2.69639
11
3.33458
21
-2.69569
0
LINE
8
BLACK
6
CONTINUOUS
10
3.33458
20
-2.69569
11
3.33444
21
-2.69557
0
LINE
8
BLACK
6
CONTINUOUS
10
3.33444
20
-2.69557
11
3.33441
21
-2.69547
0
LINE
8
BLACK
6
CONTINUOUS
10
3.33441
20
-2.69547
11
3.33426
21
-2.69527
0
LINE
8
BLACK
6
CONTINUOUS
10
3.33426
20
-2.69527
11
3.334
21
-2.69408
0
LINE
8
BLACK
6
CONTINUOUS
10
3.334
20
-2.69408
11
3.33366
21
-2.69291
0
LINE
8
BLACK
6
CONTINUOUS
10
3.33366
20
-2.69291
11
3.33366
21
-2.64173
0
LINE
8
BLACK
6
CONTINUOUS
10
3.33366
20
-2.64173
11
3.33379
21
-2.64086
0
LINE
8
BLACK
6
CONTINUOUS
10
3.33379
20
-2.64086
11
3.33377
21
-2.64069
0
LINE
8
BLACK
6
CONTINUOUS
10
3.33377
20
-2.64069
11
3.33383
21
-2.64059
0
LINE
8
BLACK
6
CONTINUOUS
10
3.33383
20
-2.64059
11
3.33386
21
-2.64035
0
LINE
8
BLACK
6
CONTINUOUS
10
3.33386
20
-2.64035
11
3.33452
21
-2.63932
0
LINE
8
BLACK
6
CONTINUOUS
10
3.33452
20
-2.63932
11
3.3351
21
-2.63825
0
LINE
8
BLACK
6
CONTINUOUS
10
3.3351
20
-2.63825
11
3.4124
21
-2.56095
0
LINE
8
BLACK
6
CONTINUOUS
10
3.4124
20
-2.56095
11
3.4124
21
-2.51889
0
LINE
8
BLACK
6
CONTINUOUS
10
3.4124
20
-2.51889
11
3.40807
21
-2.51668
0
LINE
8
BLACK
6
CONTINUOUS
10
3.40807
20
-2.51668
11
3.40458
21
-2.51319
0
LINE
8
BLACK
6
CONTINUOUS
10
3.40458
20
-2.51319
11
3.40235
21
-2.5088
0
LINE
8
BLACK
6
CONTINUOUS
10
3.40235
20
-2.5088
11
3.40157
21
-2.50394
0
LINE
8
BLACK
6
CONTINUOUS
10
3.40157
20
-2.50394
11
3.40235
21
-2.49907
0
LINE
8
BLACK
6
CONTINUOUS
10
3.40235
20
-2.49907
11
3.40458
21
-2.49468
0
LINE
8
BLACK
6
CONTINUOUS
10
3.40458
20
-2.49468
11
3.40807
21
-2.4912
0
LINE
8
BLACK
6
CONTINUOUS
10
3.40807
20
-2.4912
11
3.41246
21
-2.48896
0
LINE
8
BLACK
6
CONTINUOUS
10
3.41246
20
-2.48896
11
3.41732
21
-2.48819
0
LINE
8
BLACK
6
CONTINUOUS
10
3.41732
20
-2.48819
11
3.42219
21
-2.48896
0
LINE
8
BLACK
6
CONTINUOUS
10
3.42219
20
-2.48896
11
3.42658
21
-2.4912
0
LINE
8
BLACK
6
CONTINUOUS
10
3.42658
20
-2.4912
11
3.43006
21
-2.49468
0
LINE
8
BLACK
6
CONTINUOUS
10
3.43006
20
-2.49468
11
3.4323
21
-2.49907
0
LINE
8
BLACK
6
CONTINUOUS
10
3.4323
20
-2.49907
11
3.43307
21
-2.50394
0
LINE
8
BLACK
6
CONTINUOUS
10
3.43307
20
-2.50394
11
3.4323
21
-2.5088
0
LINE
8
BLACK
6
CONTINUOUS
10
3.4323
20
-2.5088
11
3.43124
21
-2.51089
0
LINE
8
BLACK
6
CONTINUOUS
10
3.43124
20
-2.51089
11
3.43511
21
-2.51476
0
LINE
8
BLACK
6
CONTINUOUS
10
3.43511
20
-2.51476
11
3.46745
21
-2.51476
0
LINE
8
BLACK
6
CONTINUOUS
10
3.46745
20
-2.51476
11
3.48425
21
-2.49796
0
LINE
8
BLACK
6
CONTINUOUS
10
3.48425
20
-2.49796
11
3.48425
21
-2.4311
0
LINE
8
BLACK
6
CONTINUOUS
10
3.48425
20
-2.4311
11
3.52362
21
-2.4311
0
LINE
8
BLACK
6
CONTINUOUS
10
3.52362
20
-2.4311
11
3.52362
21
-2.53937
0
LINE
8
BLACK
6
CONTINUOUS
10
3.52362
20
-2.29331
11
3.48425
21
-2.29331
0
LINE
8
BLACK
6
CONTINUOUS
10
3.48425
20
-2.29331
11
3.48425
21
-2.24409
0
LINE
8
BLACK
6
CONTINUOUS
10
3.48425
20
-2.24409
11
3.47153
21
-2.24409
0
LINE
8
BLACK
6
CONTINUOUS
10
3.47153
20
-2.24409
11
3.46949
21
-2.24613
0
LINE
8
BLACK
6
CONTINUOUS
10
3.46949
20
-2.24613
11
3.46949
21
-2.41843
0
LINE
8
BLACK
6
CONTINUOUS
10
3.46949
20
-2.41843
11
3.47802
21
-2.40991
0
LINE
8
BLACK
6
CONTINUOUS
10
3.47802
20
-2.40991
11
3.47872
21
-2.40938
0
LINE
8
BLACK
6
CONTINUOUS
10
3.47872
20
-2.40938
11
3.47884
21
-2.40925
0
LINE
8
BLACK
6
CONTINUOUS
10
3.47884
20
-2.40925
11
3.47894
21
-2.40922
0
LINE
8
BLACK
6
CONTINUOUS
10
3.47894
20
-2.40922
11
3.47914
21
-2.40907
0
LINE
8
BLACK
6
CONTINUOUS
10
3.47914
20
-2.40907
11
3.48033
21
-2.40881
0
LINE
8
BLACK
6
CONTINUOUS
10
3.48033
20
-2.40881
11
3.4815
21
-2.40846
0
LINE
8
BLACK
6
CONTINUOUS
10
3.4815
20
-2.40846
11
3.65354
21
-2.40846
0
LINE
8
BLACK
6
CONTINUOUS
10
3.65354
20
-2.40846
11
3.65493
21
-2.40866
0
LINE
8
BLACK
6
CONTINUOUS
10
3.65493
20
-2.40866
11
3.65523
21
-2.40886
0
LINE
8
BLACK
6
CONTINUOUS
10
3.65523
20
-2.40886
11
3.65559
21
-2.40891
0
LINE
8
BLACK
6
CONTINUOUS
10
3.65559
20
-2.40891
11
3.65638
21
-2.4096
0
LINE
8
BLACK
6
CONTINUOUS
10
3.65638
20
-2.4096
11
3.65726
21
-2.41016
0
LINE
8
BLACK
6
CONTINUOUS
10
3.65726
20
-2.41016
11
3.65741
21
-2.41049
0
LINE
8
BLACK
6
CONTINUOUS
10
3.65741
20
-2.41049
11
3.65768
21
-2.41073
0
LINE
8
BLACK
6
CONTINUOUS
10
3.65768
20
-2.41073
11
3.65798
21
-2.41173
0
LINE
8
BLACK
6
CONTINUOUS
10
3.65798
20
-2.41173
11
3.65841
21
-2.41269
0
LINE
8
BLACK
6
CONTINUOUS
10
3.65841
20
-2.41269
11
3.65836
21
-2.41304
0
LINE
8
BLACK
6
CONTINUOUS
10
3.65836
20
-2.41304
11
3.65846
21
-2.41339
0
LINE
8
BLACK
6
CONTINUOUS
10
3.65846
20
-2.41339
11
3.65846
21
-2.69685
0
LINE
8
BLACK
6
CONTINUOUS
10
3.65846
20
-2.69685
11
3.72047
21
-2.69685
0
LINE
8
BLACK
6
CONTINUOUS
10
3.72047
20
-2.69685
11
3.72047
21
-2.73622
0
LINE
8
BLACK
6
CONTINUOUS
10
3.72047
20
-2.73622
11
3.6122
21
-2.73622
0
LINE
8
BLACK
6
CONTINUOUS
10
3.6122
20
-2.73622
11
3.6122
21
-2.69685
0
LINE
8
BLACK
6
CONTINUOUS
10
3.6122
20
-2.69685
11
3.64862
21
-2.69685
0
LINE
8
BLACK
6
CONTINUOUS
10
3.64862
20
-2.69685
11
3.64862
21
-2.41831
0
LINE
8
BLACK
6
CONTINUOUS
10
3.64862
20
-2.41831
11
3.48353
21
-2.41831
0
LINE
8
BLACK
6
CONTINUOUS
10
3.48353
20
-2.41831
11
3.47494
21
-2.4269
0
LINE
8
BLACK
6
CONTINUOUS
10
3.47494
20
-2.4269
11
3.476
21
-2.42899
0
LINE
8
BLACK
6
CONTINUOUS
10
3.476
20
-2.42899
11
3.47677
21
-2.43386
0
LINE
8
BLACK
6
CONTINUOUS
10
3.47677
20
-2.43386
11
3.476
21
-2.43872
0
LINE
8
BLACK
6
CONTINUOUS
10
3.476
20
-2.43872
11
3.47376
21
-2.44311
0
LINE
8
BLACK
6
CONTINUOUS
10
3.47376
20
-2.44311
11
3.47028
21
-2.4466
0
LINE
8
BLACK
6
CONTINUOUS
10
3.47028
20
-2.4466
11
3.46589
21
-2.44884
0
LINE
8
BLACK
6
CONTINUOUS
10
3.46589
20
-2.44884
11
3.46102
21
-2.44961
0
LINE
8
BLACK
6
CONTINUOUS
10
3.46102
20
-2.44961
11
3.45616
21
-2.44884
0
LINE
8
BLACK
6
CONTINUOUS
10
3.45616
20
-2.44884
11
3.45177
21
-2.4466
0
LINE
8
BLACK
6
CONTINUOUS
10
3.45177
20
-2.4466
11
3.44828
21
-2.44311
0
LINE
8
BLACK
6
CONTINUOUS
10
3.44828
20
-2.44311
11
3.44605
21
-2.43872
0
LINE
8
BLACK
6
CONTINUOUS
10
3.44605
20
-2.43872
11
3.44528
21
-2.43386
0
LINE
8
BLACK
6
CONTINUOUS
10
3.44528
20
-2.43386
11
3.44605
21
-2.42899
0
LINE
8
BLACK
6
CONTINUOUS
10
3.44605
20
-2.42899
11
3.44828
21
-2.4246
0
LINE
8
BLACK
6
CONTINUOUS
10
3.44828
20
-2.4246
11
3.45177
21
-2.42112
0
LINE
8
BLACK
6
CONTINUOUS
10
3.45177
20
-2.42112
11
3.45616
21
-2.41888
0
LINE
8
BLACK
6
CONTINUOUS
10
3.45616
20
-2.41888
11
3.45965
21
-2.41833
0
LINE
8
BLACK
6
CONTINUOUS
10
3.45965
20
-2.41833
11
3.45965
21
-2.24409
0
LINE
8
BLACK
6
CONTINUOUS
10
3.45965
20
-2.24409
11
3.45977
21
-2.24322
0
LINE
8
BLACK
6
CONTINUOUS
10
3.45977
20
-2.24322
11
3.45976
21
-2.24305
0
LINE
8
BLACK
6
CONTINUOUS
10
3.45976
20
-2.24305
11
3.45981
21
-2.24295
0
LINE
8
BLACK
6
CONTINUOUS
10
3.45981
20
-2.24295
11
3.45985
21
-2.24271
0
LINE
8
BLACK
6
CONTINUOUS
10
3.45985
20
-2.24271
11
3.4605
21
-2.24168
0
LINE
8
BLACK
6
CONTINUOUS
10
3.4605
20
-2.24168
11
3.46109
21
-2.24061
0
LINE
8
BLACK
6
CONTINUOUS
10
3.46109
20
-2.24061
11
3.46601
21
-2.23569
0
LINE
8
BLACK
6
CONTINUOUS
10
3.46601
20
-2.23569
11
3.46671
21
-2.23517
0
LINE
8
BLACK
6
CONTINUOUS
10
3.46671
20
-2.23517
11
3.46683
21
-2.23503
0
LINE
8
BLACK
6
CONTINUOUS
10
3.46683
20
-2.23503
11
3.46693
21
-2.235
0
LINE
8
BLACK
6
CONTINUOUS
10
3.46693
20
-2.235
11
3.46713
21
-2.23485
0
LINE
8
BLACK
6
CONTINUOUS
10
3.46713
20
-2.23485
11
3.46832
21
-2.23459
0
LINE
8
BLACK
6
CONTINUOUS
10
3.46832
20
-2.23459
11
3.46949
21
-2.23425
0
LINE
8
BLACK
6
CONTINUOUS
10
3.46949
20
-2.23425
11
3.48425
21
-2.23425
0
LINE
8
BLACK
6
CONTINUOUS
10
3.48425
20
-2.23425
11
3.48425
21
-2.18504
0
LINE
8
BLACK
6
CONTINUOUS
10
3.48425
20
-2.18504
11
3.52362
21
-2.18504
0
LINE
8
BLACK
6
CONTINUOUS
10
3.52362
20
-2.18504
11
3.52362
21
-2.29331
0
LINE
8
BLACK
6
CONTINUOUS
10
3.62691
20
-2.4299
11
3.6313
21
-2.43214
0
LINE
8
BLACK
6
CONTINUOUS
10
3.6313
20
-2.43214
11
3.63479
21
-2.43563
0
LINE
8
BLACK
6
CONTINUOUS
10
3.63479
20
-2.43563
11
3.63702
21
-2.44002
0
LINE
8
BLACK
6
CONTINUOUS
10
3.63702
20
-2.44002
11
3.6378
21
-2.44488
0
LINE
8
BLACK
6
CONTINUOUS
10
3.6378
20
-2.44488
11
3.63702
21
-2.44975
0
LINE
8
BLACK
6
CONTINUOUS
10
3.63702
20
-2.44975
11
3.63479
21
-2.45414
0
LINE
8
BLACK
6
CONTINUOUS
10
3.63479
20
-2.45414
11
3.6313
21
-2.45762
0
LINE
8
BLACK
6
CONTINUOUS
10
3.6313
20
-2.45762
11
3.62691
21
-2.45986
0
LINE
8
BLACK
6
CONTINUOUS
10
3.62691
20
-2.45986
11
3.62205
21
-2.46063
0
LINE
8
BLACK
6
CONTINUOUS
10
3.62205
20
-2.46063
11
3.61718
21
-2.45986
0
LINE
8
BLACK
6
CONTINUOUS
10
3.61718
20
-2.45986
11
3.61509
21
-2.4588
0
LINE
8
BLACK
6
CONTINUOUS
10
3.61509
20
-2.4588
11
3.60236
21
-2.47153
0
LINE
8
BLACK
6
CONTINUOUS
10
3.60236
20
-2.47153
11
3.60236
21
-2.48031
0
LINE
8
BLACK
6
CONTINUOUS
10
3.60236
20
-2.48031
11
3.60692
21
-2.48031
0
LINE
8
BLACK
6
CONTINUOUS
10
3.60692
20
-2.48031
11
3.60707
21
-2.47939
0
LINE
8
BLACK
6
CONTINUOUS
10
3.60707
20
-2.47939
11
3.60931
21
-2.475
0
LINE
8
BLACK
6
CONTINUOUS
10
3.60931
20
-2.475
11
3.61279
21
-2.47151
0
LINE
8
BLACK
6
CONTINUOUS
10
3.61279
20
-2.47151
11
3.61718
21
-2.46927
0
LINE
8
BLACK
6
CONTINUOUS
10
3.61718
20
-2.46927
11
3.62205
21
-2.4685
0
LINE
8
BLACK
6
CONTINUOUS
10
3.62205
20
-2.4685
11
3.62691
21
-2.46927
0
LINE
8
BLACK
6
CONTINUOUS
10
3.62691
20
-2.46927
11
3.6313
21
-2.47151
0
LINE
8
BLACK
6
CONTINUOUS
10
3.6313
20
-2.47151
11
3.63479
21
-2.475
0
LINE
8
BLACK
6
CONTINUOUS
10
3.63479
20
-2.475
11
3.63702
21
-2.47939
0
LINE
8
BLACK
6
CONTINUOUS
10
3.63702
20
-2.47939
11
3.6378
21
-2.48425
0
LINE
8
BLACK
6
CONTINUOUS
10
3.6378
20
-2.48425
11
3.63702
21
-2.48912
0
LINE
8
BLACK
6
CONTINUOUS
10
3.63702
20
-2.48912
11
3.63479
21
-2.49351
0
LINE
8
BLACK
6
CONTINUOUS
10
3.63479
20
-2.49351
11
3.6313
21
-2.49699
0
LINE
8
BLACK
6
CONTINUOUS
10
3.6313
20
-2.49699
11
3.62691
21
-2.49923
0
LINE
8
BLACK
6
CONTINUOUS
10
3.62691
20
-2.49923
11
3.62205
21
-2.5
0
LINE
8
BLACK
6
CONTINUOUS
10
3.62205
20
-2.5
11
3.61718
21
-2.49923
0
LINE
8
BLACK
6
CONTINUOUS
10
3.61718
20
-2.49923
11
3.61279
21
-2.49699
0
LINE
8
BLACK
6
CONTINUOUS
10
3.61279
20
-2.49699
11
3.60931
21
-2.49351
0
LINE
8
BLACK
6
CONTINUOUS
10
3.60931
20
-2.49351
11
3.6076
21
-2.49016
0
LINE
8
BLACK
6
CONTINUOUS
10
3.6076
20
-2.49016
11
3.60236
21
-2.49016
0
LINE
8
BLACK
6
CONTINUOUS
10
3.60236
20
-2.49016
11
3.60236
21
-2.49698
0
LINE
8
BLACK
6
CONTINUOUS
10
3.60236
20
-2.49698
11
3.61509
21
-2.50971
0
LINE
8
BLACK
6
CONTINUOUS
10
3.61509
20
-2.50971
11
3.61718
21
-2.50864
0
LINE
8
BLACK
6
CONTINUOUS
10
3.61718
20
-2.50864
11
3.62205
21
-2.50787
0
LINE
8
BLACK
6
CONTINUOUS
10
3.62205
20
-2.50787
11
3.62691
21
-2.50864
0
LINE
8
BLACK
6
CONTINUOUS
10
3.62691
20
-2.50864
11
3.6313
21
-2.51088
0
LINE
8
BLACK
6
CONTINUOUS
10
3.6313
20
-2.51088
11
3.63479
21
-2.51437
0
LINE
8
BLACK
6
CONTINUOUS
10
3.63479
20
-2.51437
11
3.63702
21
-2.51876
0
LINE
8
BLACK
6
CONTINUOUS
10
3.63702
20
-2.51876
11
3.6378
21
-2.52362
0
LINE
8
BLACK
6
CONTINUOUS
10
3.6378
20
-2.52362
11
3.63702
21
-2.52849
0
LINE
8
BLACK
6
CONTINUOUS
10
3.63702
20
-2.52849
11
3.63479
21
-2.53288
0
LINE
8
BLACK
6
CONTINUOUS
10
3.63479
20
-2.53288
11
3.6313
21
-2.53636
0
LINE
8
BLACK
6
CONTINUOUS
10
3.6313
20
-2.53636
11
3.62691
21
-2.5386
0
LINE
8
BLACK
6
CONTINUOUS
10
3.62691
20
-2.5386
11
3.62205
21
-2.53937
0
LINE
8
BLACK
6
CONTINUOUS
10
3.62205
20
-2.53937
11
3.61718
21
-2.5386
0
LINE
8
BLACK
6
CONTINUOUS
10
3.61718
20
-2.5386
11
3.61279
21
-2.53636
0
LINE
8
BLACK
6
CONTINUOUS
10
3.61279
20
-2.53636
11
3.60931
21
-2.53288
0
LINE
8
BLACK
6
CONTINUOUS
10
3.60931
20
-2.53288
11
3.60707
21
-2.52849
0
LINE
8
BLACK
6
CONTINUOUS
10
3.60707
20
-2.52849
11
3.6063
21
-2.52362
0
LINE
8
BLACK
6
CONTINUOUS
10
3.6063
20
-2.52362
11
3.60707
21
-2.51876
0
LINE
8
BLACK
6
CONTINUOUS
10
3.60707
20
-2.51876
11
3.60813
21
-2.51667
0
LINE
8
BLACK
6
CONTINUOUS
10
3.60813
20
-2.51667
11
3.60236
21
-2.5109
0
LINE
8
BLACK
6
CONTINUOUS
10
3.60236
20
-2.5109
11
3.60236
21
-2.53937
0
LINE
8
BLACK
6
CONTINUOUS
10
3.60236
20
-2.53937
11
3.56299
21
-2.53937
0
LINE
8
BLACK
6
CONTINUOUS
10
3.56299
20
-2.53937
11
3.56299
21
-2.4311
0
LINE
8
BLACK
6
CONTINUOUS
10
3.56299
20
-2.4311
11
3.60236
21
-2.4311
0
LINE
8
BLACK
6
CONTINUOUS
10
3.60236
20
-2.4311
11
3.60236
21
-2.45761
0
LINE
8
BLACK
6
CONTINUOUS
10
3.60236
20
-2.45761
11
3.60813
21
-2.45184
0
LINE
8
BLACK
6
CONTINUOUS
10
3.60813
20
-2.45184
11
3.60707
21
-2.44975
0
LINE
8
BLACK
6
CONTINUOUS
10
3.60707
20
-2.44975
11
3.6063
21
-2.44488
0
LINE
8
BLACK
6
CONTINUOUS
10
3.6063
20
-2.44488
11
3.60707
21
-2.44002
0
LINE
8
BLACK
6
CONTINUOUS
10
3.60707
20
-2.44002
11
3.60931
21
-2.43563
0
LINE
8
BLACK
6
CONTINUOUS
10
3.60931
20
-2.43563
11
3.61279
21
-2.43214
0
LINE
8
BLACK
6
CONTINUOUS
10
3.61279
20
-2.43214
11
3.61718
21
-2.4299
0
LINE
8
BLACK
6
CONTINUOUS
10
3.61718
20
-2.4299
11
3.62205
21
-2.42913
0
LINE
8
BLACK
6
CONTINUOUS
10
3.62205
20
-2.42913
11
3.62691
21
-2.4299
0
LINE
8
BLACK
6
CONTINUOUS
10
3.54331
20
-2.29519
11
3.54356
21
-2.29753
0
LINE
8
BLACK
6
CONTINUOUS
10
3.54356
20
-2.29753
11
3.54356
21
-2.29753
0
LINE
8
BLACK
6
CONTINUOUS
10
3.54356
20
-2.29753
11
3.54448
21
-2.3
0
LINE
8
BLACK
6
CONTINUOUS
10
3.54448
20
-2.3
11
3.54535
21
-2.30013
0
LINE
8
BLACK
6
CONTINUOUS
10
3.54535
20
-2.30013
11
3.54974
21
-2.30237
0
LINE
8
BLACK
6
CONTINUOUS
10
3.54974
20
-2.30237
11
3.55322
21
-2.30586
0
LINE
8
BLACK
6
CONTINUOUS
10
3.55322
20
-2.30586
11
3.55546
21
-2.31025
0
LINE
8
BLACK
6
CONTINUOUS
10
3.55546
20
-2.31025
11
3.55567
21
-2.31159
0
LINE
8
BLACK
6
CONTINUOUS
10
3.55567
20
-2.31159
11
3.55876
21
-2.31274
0
LINE
8
BLACK
6
CONTINUOUS
10
3.55876
20
-2.31274
11
3.55876
21
-2.31274
0
LINE
8
BLACK
6
CONTINUOUS
10
3.55876
20
-2.31274
11
3.56111
21
-2.31299
0
LINE
8
BLACK
6
CONTINUOUS
10
3.56111
20
-2.31299
11
3.56111
21
-2.31299
0
LINE
8
BLACK
6
CONTINUOUS
10
3.56111
20
-2.31299
11
3.57283
21
-2.31299
0
LINE
8
BLACK
6
CONTINUOUS
10
3.57283
20
-2.31299
11
3.57283
21
-2.29331
0
LINE
8
BLACK
6
CONTINUOUS
10
3.57283
20
-2.29331
11
3.56299
21
-2.29331
0
LINE
8
BLACK
6
CONTINUOUS
10
3.56299
20
-2.29331
11
3.56299
21
-2.24902
0
LINE
8
BLACK
6
CONTINUOUS
10
3.56299
20
-2.24902
11
3.54331
21
-2.24902
0
LINE
8
BLACK
6
CONTINUOUS
10
3.54331
20
-2.24902
11
3.54331
21
-2.29519
0
LINE
8
BLACK
6
CONTINUOUS
10
3.60236
20
-2.29331
11
3.59252
21
-2.29331
0
LINE
8
BLACK
6
CONTINUOUS
10
3.59252
20
-2.29331
11
3.59252
21
-2.31299
0
LINE
8
BLACK
6
CONTINUOUS
10
3.59252
20
-2.31299
11
3.60425
21
-2.31299
0
LINE
8
BLACK
6
CONTINUOUS
10
3.60425
20
-2.31299
11
3.60425
21
-2.31299
0
LINE
8
BLACK
6
CONTINUOUS
10
3.60425
20
-2.31299
11
3.60659
21
-2.31274
0
LINE
8
BLACK
6
CONTINUOUS
10
3.60659
20
-2.31274
11
3.60659
21
-2.31274
0
LINE
8
BLACK
6
CONTINUOUS
10
3.60659
20
-2.31274
11
3.61189
21
-2.31076
0
LINE
8
BLACK
6
CONTINUOUS
10
3.61189
20
-2.31076
11
3.61189
21
-2.31076
0
LINE
8
BLACK
6
CONTINUOUS
10
3.61189
20
-2.31076
11
3.61642
21
-2.30737
0
LINE
8
BLACK
6
CONTINUOUS
10
3.61642
20
-2.30737
11
3.61642
21
-2.30737
0
LINE
8
BLACK
6
CONTINUOUS
10
3.61642
20
-2.30737
11
3.61982
21
-2.30284
0
LINE
8
BLACK
6
CONTINUOUS
10
3.61982
20
-2.30284
11
3.61982
21
-2.30284
0
LINE
8
BLACK
6
CONTINUOUS
10
3.61982
20
-2.30284
11
3.6218
21
-2.29753
0
LINE
8
BLACK
6
CONTINUOUS
10
3.6218
20
-2.29753
11
3.6218
21
-2.29753
0
LINE
8
BLACK
6
CONTINUOUS
10
3.6218
20
-2.29753
11
3.62205
21
-2.29519
0
LINE
8
BLACK
6
CONTINUOUS
10
3.62205
20
-2.29519
11
3.62205
21
-2.29519
0
LINE
8
BLACK
6
CONTINUOUS
10
3.62205
20
-2.29519
11
3.62205
21
-2.24902
0
LINE
8
BLACK
6
CONTINUOUS
10
3.62205
20
-2.24902
11
3.60236
21
-2.24902
0
LINE
8
BLACK
6
CONTINUOUS
10
3.60236
20
-2.24902
11
3.60236
21
-2.29331
0
LINE
8
BLACK
6
CONTINUOUS
10
3.59252
20
-2.18504
11
3.60236
21
-2.18504
0
LINE
8
BLACK
6
CONTINUOUS
10
3.60236
20
-2.18504
11
3.60236
21
-2.22933
0
LINE
8
BLACK
6
CONTINUOUS
10
3.60236
20
-2.22933
11
3.62205
21
-2.22933
0
LINE
8
BLACK
6
CONTINUOUS
10
3.62205
20
-2.22933
11
3.62205
21
-2.18316
0
LINE
8
BLACK
6
CONTINUOUS
10
3.62205
20
-2.18316
11
3.62205
21
-2.18316
0
LINE
8
BLACK
6
CONTINUOUS
10
3.62205
20
-2.18316
11
3.6218
21
-2.18081
0
LINE
8
BLACK
6
CONTINUOUS
10
3.6218
20
-2.18081
11
3.6218
21
-2.18081
0
LINE
8
BLACK
6
CONTINUOUS
10
3.6218
20
-2.18081
11
3.61982
21
-2.17551
0
LINE
8
BLACK
6
CONTINUOUS
10
3.61982
20
-2.17551
11
3.61982
21
-2.17551
0
LINE
8
BLACK
6
CONTINUOUS
10
3.61982
20
-2.17551
11
3.61642
21
-2.17098
0
LINE
8
BLACK
6
CONTINUOUS
10
3.61642
20
-2.17098
11
3.61642
21
-2.17098
0
LINE
8
BLACK
6
CONTINUOUS
10
3.61642
20
-2.17098
11
3.61189
21
-2.16758
0
LINE
8
BLACK
6
CONTINUOUS
10
3.61189
20
-2.16758
11
3.61189
21
-2.16758
0
LINE
8
BLACK
6
CONTINUOUS
10
3.61189
20
-2.16758
11
3.60659
21
-2.16561
0
LINE
8
BLACK
6
CONTINUOUS
10
3.60659
20
-2.16561
11
3.60659
21
-2.16561
0
LINE
8
BLACK
6
CONTINUOUS
10
3.60659
20
-2.16561
11
3.60425
21
-2.16535
0
LINE
8
BLACK
6
CONTINUOUS
10
3.60425
20
-2.16535
11
3.59252
21
-2.16535
0
LINE
8
BLACK
6
CONTINUOUS
10
3.59252
20
-2.16535
11
3.59252
21
-2.18504
0
LINE
8
BLACK
6
CONTINUOUS
10
3.35684
20
-2.84082
11
3.35905
21
-2.84663
0
LINE
8
BLACK
6
CONTINUOUS
10
3.35905
20
-2.84663
11
3.36258
21
-2.85175
0
LINE
8
BLACK
6
CONTINUOUS
10
3.36258
20
-2.85175
11
3.36723
21
-2.85588
0
LINE
8
BLACK
6
CONTINUOUS
10
3.36723
20
-2.85588
11
3.36723
21
-2.85588
0
LINE
8
BLACK
6
CONTINUOUS
10
3.36723
20
-2.85588
11
3.37274
21
-2.85877
0
LINE
8
BLACK
6
CONTINUOUS
10
3.37274
20
-2.85877
11
3.37878
21
-2.86026
0
LINE
8
BLACK
6
CONTINUOUS
10
3.37878
20
-2.86026
11
3.37878
21
-2.86026
0
LINE
8
BLACK
6
CONTINUOUS
10
3.37878
20
-2.86026
11
3.385
21
-2.86026
0
LINE
8
BLACK
6
CONTINUOUS
10
3.385
20
-2.86026
11
3.39104
21
-2.85877
0
LINE
8
BLACK
6
CONTINUOUS
10
3.39104
20
-2.85877
11
3.39654
21
-2.85588
0
LINE
8
BLACK
6
CONTINUOUS
10
3.39654
20
-2.85588
11
3.39654
21
-2.85588
0
LINE
8
BLACK
6
CONTINUOUS
10
3.39654
20
-2.85588
11
3.39654
21
-2.85588
0
LINE
8
BLACK
6
CONTINUOUS
10
3.39654
20
-2.85588
11
3.39834
21
-2.85429
0
LINE
8
BLACK
6
CONTINUOUS
10
3.39834
20
-2.85429
11
3.40083
21
-2.85312
0
LINE
8
BLACK
6
CONTINUOUS
10
3.40083
20
-2.85312
11
3.40355
21
-2.85348
0
LINE
8
BLACK
6
CONTINUOUS
10
3.40355
20
-2.85348
11
3.40481
21
-2.85429
0
LINE
8
BLACK
6
CONTINUOUS
10
3.40481
20
-2.85429
11
3.40618
21
-2.8555
0
LINE
8
BLACK
6
CONTINUOUS
10
3.40618
20
-2.8555
11
3.4066
21
-2.85588
0
LINE
8
BLACK
6
CONTINUOUS
10
3.4066
20
-2.85588
11
3.41211
21
-2.85877
0
LINE
8
BLACK
6
CONTINUOUS
10
3.41211
20
-2.85877
11
3.41815
21
-2.86026
0
LINE
8
BLACK
6
CONTINUOUS
10
3.41815
20
-2.86026
11
3.41815
21
-2.86026
0
LINE
8
BLACK
6
CONTINUOUS
10
3.41815
20
-2.86026
11
3.42437
21
-2.86026
0
LINE
8
BLACK
6
CONTINUOUS
10
3.42437
20
-2.86026
11
3.43041
21
-2.85877
0
LINE
8
BLACK
6
CONTINUOUS
10
3.43041
20
-2.85877
11
3.43591
21
-2.85588
0
LINE
8
BLACK
6
CONTINUOUS
10
3.43591
20
-2.85588
11
3.43591
21
-2.85588
0
LINE
8
BLACK
6
CONTINUOUS
10
3.43591
20
-2.85588
11
3.43591
21
-2.85588
0
LINE
8
BLACK
6
CONTINUOUS
10
3.43591
20
-2.85588
11
3.43771
21
-2.85429
0
LINE
8
BLACK
6
CONTINUOUS
10
3.43771
20
-2.85429
11
3.4402
21
-2.85312
0
LINE
8
BLACK
6
CONTINUOUS
10
3.4402
20
-2.85312
11
3.44292
21
-2.85348
0
LINE
8
BLACK
6
CONTINUOUS
10
3.44292
20
-2.85348
11
3.44418
21
-2.85429
0
LINE
8
BLACK
6
CONTINUOUS
10
3.44418
20
-2.85429
11
3.44555
21
-2.8555
0
LINE
8
BLACK
6
CONTINUOUS
10
3.44555
20
-2.8555
11
3.44597
21
-2.85588
0
LINE
8
BLACK
6
CONTINUOUS
10
3.44597
20
-2.85588
11
3.45148
21
-2.85877
0
LINE
8
BLACK
6
CONTINUOUS
10
3.45148
20
-2.85877
11
3.45752
21
-2.86026
0
LINE
8
BLACK
6
CONTINUOUS
10
3.45752
20
-2.86026
11
3.45752
21
-2.86026
0
LINE
8
BLACK
6
CONTINUOUS
10
3.45752
20
-2.86026
11
3.46374
21
-2.86026
0
LINE
8
BLACK
6
CONTINUOUS
10
3.46374
20
-2.86026
11
3.46978
21
-2.85877
0
LINE
8
BLACK
6
CONTINUOUS
10
3.46978
20
-2.85877
11
3.46978
21
-2.85877
0
LINE
8
BLACK
6
CONTINUOUS
10
3.46978
20
-2.85877
11
3.47529
21
-2.85588
0
LINE
8
BLACK
6
CONTINUOUS
10
3.47529
20
-2.85588
11
3.47994
21
-2.85175
0
LINE
8
BLACK
6
CONTINUOUS
10
3.47994
20
-2.85175
11
3.48347
21
-2.84663
0
LINE
8
BLACK
6
CONTINUOUS
10
3.48347
20
-2.84663
11
3.48568
21
-2.84082
0
LINE
8
BLACK
6
CONTINUOUS
10
3.48568
20
-2.84082
11
3.48643
21
-2.83465
0
LINE
8
BLACK
6
CONTINUOUS
10
3.48643
20
-2.83465
11
3.4864
21
-2.83439
0
LINE
8
BLACK
6
CONTINUOUS
10
3.4864
20
-2.83439
11
3.48568
21
-2.82847
0
LINE
8
BLACK
6
CONTINUOUS
10
3.48568
20
-2.82847
11
3.48568
21
-2.82847
0
LINE
8
BLACK
6
CONTINUOUS
10
3.48568
20
-2.82847
11
3.48351
21
-2.82274
0
LINE
8
BLACK
6
CONTINUOUS
10
3.48351
20
-2.82274
11
3.48329
21
-2.82
0
LINE
8
BLACK
6
CONTINUOUS
10
3.48329
20
-2.82
11
3.48356
21
-2.81914
0
LINE
8
BLACK
6
CONTINUOUS
10
3.48356
20
-2.81914
11
3.4837
21
-2.81881
0
LINE
8
BLACK
6
CONTINUOUS
10
3.4837
20
-2.81881
11
3.4837
21
-2.81881
0
LINE
8
BLACK
6
CONTINUOUS
10
3.4837
20
-2.81881
11
3.48427
21
-2.81593
0
LINE
8
BLACK
6
CONTINUOUS
10
3.48427
20
-2.81593
11
3.48427
21
-2.80512
0
LINE
8
BLACK
6
CONTINUOUS
10
3.48427
20
-2.80512
11
3.48427
21
-2.78543
0
LINE
8
BLACK
6
CONTINUOUS
10
3.48427
20
-2.78543
11
3.48427
21
-2.77462
0
LINE
8
BLACK
6
CONTINUOUS
10
3.48427
20
-2.77462
11
3.48427
21
-2.77462
0
LINE
8
BLACK
6
CONTINUOUS
10
3.48427
20
-2.77462
11
3.48427
21
-2.77462
0
LINE
8
BLACK
6
CONTINUOUS
10
3.48427
20
-2.77462
11
3.4837
21
-2.77174
0
LINE
8
BLACK
6
CONTINUOUS
10
3.4837
20
-2.77174
11
3.4837
21
-2.77174
0
LINE
8
BLACK
6
CONTINUOUS
10
3.4837
20
-2.77174
11
3.4837
21
-2.77174
0
LINE
8
BLACK
6
CONTINUOUS
10
3.4837
20
-2.77174
11
3.48152
21
-2.76848
0
LINE
8
BLACK
6
CONTINUOUS
10
3.48152
20
-2.76848
11
3.47826
21
-2.7663
0
LINE
8
BLACK
6
CONTINUOUS
10
3.47826
20
-2.7663
11
3.47826
21
-2.7663
0
LINE
8
BLACK
6
CONTINUOUS
10
3.47826
20
-2.7663
11
3.47826
21
-2.7663
0
LINE
8
BLACK
6
CONTINUOUS
10
3.47826
20
-2.7663
11
3.47538
21
-2.76573
0
LINE
8
BLACK
6
CONTINUOUS
10
3.47538
20
-2.76573
11
3.47538
21
-2.76573
0
LINE
8
BLACK
6
CONTINUOUS
10
3.47538
20
-2.76573
11
3.36517
21
-2.76573
0
LINE
8
BLACK
6
CONTINUOUS
10
3.36517
20
-2.76573
11
3.36517
21
-2.76573
0
LINE
8
BLACK
6
CONTINUOUS
10
3.36517
20
-2.76573
11
3.36229
21
-2.7663
0
LINE
8
BLACK
6
CONTINUOUS
10
3.36229
20
-2.7663
11
3.36229
21
-2.7663
0
LINE
8
BLACK
6
CONTINUOUS
10
3.36229
20
-2.7663
11
3.35903
21
-2.76848
0
LINE
8
BLACK
6
CONTINUOUS
10
3.35903
20
-2.76848
11
3.35685
21
-2.77174
0
LINE
8
BLACK
6
CONTINUOUS
10
3.35685
20
-2.77174
11
3.35685
21
-2.77174
0
LINE
8
BLACK
6
CONTINUOUS
10
3.35685
20
-2.77174
11
3.35628
21
-2.77462
0
LINE
8
BLACK
6
CONTINUOUS
10
3.35628
20
-2.77462
11
3.35628
21
-2.81593
0
LINE
8
BLACK
6
CONTINUOUS
10
3.35628
20
-2.81593
11
3.35685
21
-2.81881
0
LINE
8
BLACK
6
CONTINUOUS
10
3.35685
20
-2.81881
11
3.35685
21
-2.81881
0
LINE
8
BLACK
6
CONTINUOUS
10
3.35685
20
-2.81881
11
3.35779
21
-2.82021
0
LINE
8
BLACK
6
CONTINUOUS
10
3.35779
20
-2.82021
11
3.35861
21
-2.82283
0
LINE
8
BLACK
6
CONTINUOUS
10
3.35861
20
-2.82283
11
3.35829
21
-2.82465
0
LINE
8
BLACK
6
CONTINUOUS
10
3.35829
20
-2.82465
11
3.35684
21
-2.82847
0
LINE
8
BLACK
6
CONTINUOUS
10
3.35684
20
-2.82847
11
3.35609
21
-2.83465
0
LINE
8
BLACK
6
CONTINUOUS
10
3.35609
20
-2.83465
11
3.35609
21
-2.83465
0
LINE
8
BLACK
6
CONTINUOUS
10
3.35609
20
-2.83465
11
3.35684
21
-2.84082
0
LINE
8
BLACK
6
CONTINUOUS
10
3.6122
20
-2.78543
11
3.6122
21
-2.77559
0
LINE
8
BLACK
6
CONTINUOUS
10
3.6122
20
-2.77559
11
3.6565
21
-2.77559
0
LINE
8
BLACK
6
CONTINUOUS
10
3.6565
20
-2.77559
11
3.6565
21
-2.75591
0
LINE
8
BLACK
6
CONTINUOUS
10
3.6565
20
-2.75591
11
3.61032
21
-2.75591
0
LINE
8
BLACK
6
CONTINUOUS
10
3.61032
20
-2.75591
11
3.60798
21
-2.75616
0
LINE
8
BLACK
6
CONTINUOUS
10
3.60798
20
-2.75616
11
3.60798
21
-2.75616
0
LINE
8
BLACK
6
CONTINUOUS
10
3.60798
20
-2.75616
11
3.60267
21
-2.75814
0
LINE
8
BLACK
6
CONTINUOUS
10
3.60267
20
-2.75814
11
3.60267
21
-2.75814
0
LINE
8
BLACK
6
CONTINUOUS
10
3.60267
20
-2.75814
11
3.59814
21
-2.76153
0
LINE
8
BLACK
6
CONTINUOUS
10
3.59814
20
-2.76153
11
3.59814
21
-2.76153
0
LINE
8
BLACK
6
CONTINUOUS
10
3.59814
20
-2.76153
11
3.59475
21
-2.76606
0
LINE
8
BLACK
6
CONTINUOUS
10
3.59475
20
-2.76606
11
3.59475
21
-2.76606
0
LINE
8
BLACK
6
CONTINUOUS
10
3.59475
20
-2.76606
11
3.59277
21
-2.77136
0
LINE
8
BLACK
6
CONTINUOUS
10
3.59277
20
-2.77136
11
3.59277
21
-2.77136
0
LINE
8
BLACK
6
CONTINUOUS
10
3.59277
20
-2.77136
11
3.59252
21
-2.77371
0
LINE
8
BLACK
6
CONTINUOUS
10
3.59252
20
-2.77371
11
3.59252
21
-2.78543
0
LINE
8
BLACK
6
CONTINUOUS
10
3.59252
20
-2.78543
11
3.6122
21
-2.78543
0
LINE
8
BLACK
6
CONTINUOUS
10
3.32378
20
-2.69368
11
3.3238
21
-2.69398
0
LINE
8
BLACK
6
CONTINUOUS
10
3.3238
20
-2.69398
11
3.3238
21
-2.69414
0
LINE
8
BLACK
6
CONTINUOUS
10
3.3238
20
-2.69414
11
3.32394
21
-2.69499
0
LINE
8
BLACK
6
CONTINUOUS
10
3.32394
20
-2.69499
11
3.32396
21
-2.69509
0
LINE
8
BLACK
6
CONTINUOUS
10
3.32396
20
-2.69509
11
3.32422
21
-2.69719
0
LINE
8
BLACK
6
CONTINUOUS
10
3.32422
20
-2.69719
11
3.32431
21
-2.69749
0
LINE
8
BLACK
6
CONTINUOUS
10
3.32431
20
-2.69749
11
3.32441
21
-2.69778
0
LINE
8
BLACK
6
CONTINUOUS
10
3.32441
20
-2.69778
11
3.32491
21
-2.69871
0
LINE
8
BLACK
6
CONTINUOUS
10
3.32491
20
-2.69871
11
3.32541
21
-2.69964
0
LINE
8
BLACK
6
CONTINUOUS
10
3.32541
20
-2.69964
11
3.32546
21
-2.69972
0
LINE
8
BLACK
6
CONTINUOUS
10
3.32546
20
-2.69972
11
3.32638
21
-2.70162
0
LINE
8
BLACK
6
CONTINUOUS
10
3.32638
20
-2.70162
11
3.32656
21
-2.70187
0
LINE
8
BLACK
6
CONTINUOUS
10
3.32656
20
-2.70187
11
3.32676
21
-2.70212
0
LINE
8
BLACK
6
CONTINUOUS
10
3.32676
20
-2.70212
11
3.32831
21
-2.70355
0
LINE
8
BLACK
6
CONTINUOUS
10
3.32831
20
-2.70355
11
3.32838
21
-2.70362
0
LINE
8
BLACK
6
CONTINUOUS
10
3.32838
20
-2.70362
11
3.35031
21
-2.72555
0
LINE
8
BLACK
6
CONTINUOUS
10
3.35031
20
-2.72555
11
3.35094
21
-2.72633
0
LINE
8
BLACK
6
CONTINUOUS
10
3.35094
20
-2.72633
11
3.35118
21
-2.72669
0
LINE
8
BLACK
6
CONTINUOUS
10
3.35118
20
-2.72669
11
3.35228
21
-2.72754
0
LINE
8
BLACK
6
CONTINUOUS
10
3.35228
20
-2.72754
11
3.35251
21
-2.72775
0
LINE
8
BLACK
6
CONTINUOUS
10
3.35251
20
-2.72775
11
3.35262
21
-2.72786
0
LINE
8
BLACK
6
CONTINUOUS
10
3.35262
20
-2.72786
11
3.35332
21
-2.72836
0
LINE
8
BLACK
6
CONTINUOUS
10
3.35332
20
-2.72836
11
3.35341
21
-2.72842
0
LINE
8
BLACK
6
CONTINUOUS
10
3.35341
20
-2.72842
11
3.3544
21
-2.72919
0
LINE
8
BLACK
6
CONTINUOUS
10
3.3544
20
-2.72919
11
3.356
21
-2.73142
0
LINE
8
BLACK
6
CONTINUOUS
10
3.356
20
-2.73142
11
3.35628
21
-2.73304
0
LINE
8
BLACK
6
CONTINUOUS
10
3.35628
20
-2.73304
11
3.35628
21
-2.73719
0
LINE
8
BLACK
6
CONTINUOUS
10
3.35628
20
-2.73719
11
3.35685
21
-2.74007
0
LINE
8
BLACK
6
CONTINUOUS
10
3.35685
20
-2.74007
11
3.35685
21
-2.74007
0
LINE
8
BLACK
6
CONTINUOUS
10
3.35685
20
-2.74007
11
3.35685
21
-2.74007
0
LINE
8
BLACK
6
CONTINUOUS
10
3.35685
20
-2.74007
11
3.35903
21
-2.74333
0
LINE
8
BLACK
6
CONTINUOUS
10
3.35903
20
-2.74333
11
3.36229
21
-2.74551
0
LINE
8
BLACK
6
CONTINUOUS
10
3.36229
20
-2.74551
11
3.36229
21
-2.74551
0
LINE
8
BLACK
6
CONTINUOUS
10
3.36229
20
-2.74551
11
3.36517
21
-2.74608
0
LINE
8
BLACK
6
CONTINUOUS
10
3.36517
20
-2.74608
11
3.36517
21
-2.74608
0
LINE
8
BLACK
6
CONTINUOUS
10
3.36517
20
-2.74608
11
3.36517
21
-2.74608
0
LINE
8
BLACK
6
CONTINUOUS
10
3.36517
20
-2.74608
11
3.47538
21
-2.74608
0
LINE
8
BLACK
6
CONTINUOUS
10
3.47538
20
-2.74608
11
3.47538
21
-2.74608
0
LINE
8
BLACK
6
CONTINUOUS
10
3.47538
20
-2.74608
11
3.47826
21
-2.74551
0
LINE
8
BLACK
6
CONTINUOUS
10
3.47826
20
-2.74551
11
3.48152
21
-2.74333
0
LINE
8
BLACK
6
CONTINUOUS
10
3.48152
20
-2.74333
11
3.4837
21
-2.74007
0
LINE
8
BLACK
6
CONTINUOUS
10
3.4837
20
-2.74007
11
3.48427
21
-2.73719
0
LINE
8
BLACK
6
CONTINUOUS
10
3.48427
20
-2.73719
11
3.48427
21
-2.69588
0
LINE
8
BLACK
6
CONTINUOUS
10
3.48427
20
-2.69588
11
3.48427
21
-2.69588
0
LINE
8
BLACK
6
CONTINUOUS
10
3.48427
20
-2.69588
11
3.48427
21
-2.69588
0
LINE
8
BLACK
6
CONTINUOUS
10
3.48427
20
-2.69588
11
3.48427
21
-2.69588
0
LINE
8
BLACK
6
CONTINUOUS
10
3.48427
20
-2.69588
11
3.4837
21
-2.693
0
LINE
8
BLACK
6
CONTINUOUS
10
3.4837
20
-2.693
11
3.4837
21
-2.693
0
LINE
8
BLACK
6
CONTINUOUS
10
3.4837
20
-2.693
11
3.48295
21
-2.69188
0
LINE
8
BLACK
6
CONTINUOUS
10
3.48295
20
-2.69188
11
3.48152
21
-2.68974
0
LINE
8
BLACK
6
CONTINUOUS
10
3.48152
20
-2.68974
11
3.47826
21
-2.68756
0
LINE
8
BLACK
6
CONTINUOUS
10
3.47826
20
-2.68756
11
3.47826
21
-2.68756
0
LINE
8
BLACK
6
CONTINUOUS
10
3.47826
20
-2.68756
11
3.47826
21
-2.68756
0
LINE
8
BLACK
6
CONTINUOUS
10
3.47826
20
-2.68756
11
3.47538
21
-2.68699
0
LINE
8
BLACK
6
CONTINUOUS
10
3.47538
20
-2.68699
11
3.47538
21
-2.68699
0
LINE
8
BLACK
6
CONTINUOUS
10
3.47538
20
-2.68699
11
3.36517
21
-2.68699
0
LINE
8
BLACK
6
CONTINUOUS
10
3.36517
20
-2.68699
11
3.36517
21
-2.68699
0
LINE
8
BLACK
6
CONTINUOUS
10
3.36517
20
-2.68699
11
3.36229
21
-2.68756
0
LINE
8
BLACK
6
CONTINUOUS
10
3.36229
20
-2.68756
11
3.36229
21
-2.68756
0
LINE
8
BLACK
6
CONTINUOUS
10
3.36229
20
-2.68756
11
3.36096
21
-2.68845
0
LINE
8
BLACK
6
CONTINUOUS
10
3.36096
20
-2.68845
11
3.35834
21
-2.68927
0
LINE
8
BLACK
6
CONTINUOUS
10
3.35834
20
-2.68927
11
3.35568
21
-2.68855
0
LINE
8
BLACK
6
CONTINUOUS
10
3.35568
20
-2.68855
11
3.35384
21
-2.6865
0
LINE
8
BLACK
6
CONTINUOUS
10
3.35384
20
-2.6865
11
3.35337
21
-2.68439
0
LINE
8
BLACK
6
CONTINUOUS
10
3.35337
20
-2.68439
11
3.35337
21
-2.68211
0
LINE
8
BLACK
6
CONTINUOUS
10
3.35337
20
-2.68211
11
3.35337
21
-2.64988
0
LINE
8
BLACK
6
CONTINUOUS
10
3.35337
20
-2.64988
11
3.35414
21
-2.64724
0
LINE
8
BLACK
6
CONTINUOUS
10
3.35414
20
-2.64724
11
3.3548
21
-2.64643
0
LINE
8
BLACK
6
CONTINUOUS
10
3.3548
20
-2.64643
11
3.42633
21
-2.57489
0
LINE
8
BLACK
6
CONTINUOUS
10
3.42633
20
-2.57489
11
3.42712
21
-2.57425
0
LINE
8
BLACK
6
CONTINUOUS
10
3.42712
20
-2.57425
11
3.42747
21
-2.57402
0
LINE
8
BLACK
6
CONTINUOUS
10
3.42747
20
-2.57402
11
3.42833
21
-2.57292
0
LINE
8
BLACK
6
CONTINUOUS
10
3.42833
20
-2.57292
11
3.42853
21
-2.57269
0
LINE
8
BLACK
6
CONTINUOUS
10
3.42853
20
-2.57269
11
3.42864
21
-2.57258
0
LINE
8
BLACK
6
CONTINUOUS
10
3.42864
20
-2.57258
11
3.42915
21
-2.57187
0
LINE
8
BLACK
6
CONTINUOUS
10
3.42915
20
-2.57187
11
3.42921
21
-2.57179
0
LINE
8
BLACK
6
CONTINUOUS
10
3.42921
20
-2.57179
11
3.4305
21
-2.57013
0
LINE
8
BLACK
6
CONTINUOUS
10
3.4305
20
-2.57013
11
3.4305
21
-2.57013
0
LINE
8
BLACK
6
CONTINUOUS
10
3.4305
20
-2.57013
11
3.43065
21
-2.56985
0
LINE
8
BLACK
6
CONTINUOUS
10
3.43065
20
-2.56985
11
3.43079
21
-2.56957
0
LINE
8
BLACK
6
CONTINUOUS
10
3.43079
20
-2.56957
11
3.43079
21
-2.56957
0
LINE
8
BLACK
6
CONTINUOUS
10
3.43079
20
-2.56957
11
3.43139
21
-2.56755
0
LINE
8
BLACK
6
CONTINUOUS
10
3.43139
20
-2.56755
11
3.43142
21
-2.56746
0
LINE
8
BLACK
6
CONTINUOUS
10
3.43142
20
-2.56746
11
3.43211
21
-2.56546
0
LINE
8
BLACK
6
CONTINUOUS
10
3.43211
20
-2.56546
11
3.43211
21
-2.56546
0
LINE
8
BLACK
6
CONTINUOUS
10
3.43211
20
-2.56546
11
3.43216
21
-2.56515
0
LINE
8
BLACK
6
CONTINUOUS
10
3.43216
20
-2.56515
11
3.4322
21
-2.56485
0
LINE
8
BLACK
6
CONTINUOUS
10
3.4322
20
-2.56485
11
3.43211
21
-2.56274
0
LINE
8
BLACK
6
CONTINUOUS
10
3.43211
20
-2.56274
11
3.43211
21
-2.56264
0
LINE
8
BLACK
6
CONTINUOUS
10
3.43211
20
-2.56264
11
3.43211
21
-2.53935
0
LINE
8
BLACK
6
CONTINUOUS
10
3.43211
20
-2.53935
11
3.43288
21
-2.53671
0
LINE
8
BLACK
6
CONTINUOUS
10
3.43288
20
-2.53671
11
3.43496
21
-2.53491
0
LINE
8
BLACK
6
CONTINUOUS
10
3.43496
20
-2.53491
11
3.43699
21
-2.53447
0
LINE
8
BLACK
6
CONTINUOUS
10
3.43699
20
-2.53447
11
3.46745
21
-2.53447
0
LINE
8
BLACK
6
CONTINUOUS
10
3.46745
20
-2.53447
11
3.46845
21
-2.53457
0
LINE
8
BLACK
6
CONTINUOUS
10
3.46845
20
-2.53457
11
3.46857
21
-2.5346
0
LINE
8
BLACK
6
CONTINUOUS
10
3.46857
20
-2.5346
11
3.46887
21
-2.53466
0
LINE
8
BLACK
6
CONTINUOUS
10
3.46887
20
-2.53466
11
3.4689
21
-2.53466
0
LINE
8
BLACK
6
CONTINUOUS
10
3.4689
20
-2.53466
11
3.46895
21
-2.53466
0
LINE
8
BLACK
6
CONTINUOUS
10
3.46895
20
-2.53466
11
3.46927
21
-2.53468
0
LINE
8
BLACK
6
CONTINUOUS
10
3.46927
20
-2.53468
11
3.46927
21
-2.53472
0
LINE
8
BLACK
6
CONTINUOUS
10
3.46927
20
-2.53472
11
3.47162
21
-2.5351
0
LINE
8
BLACK
6
CONTINUOUS
10
3.47162
20
-2.5351
11
3.47366
21
-2.53694
0
LINE
8
BLACK
6
CONTINUOUS
10
3.47366
20
-2.53694
11
3.47439
21
-2.5395
0
LINE
8
BLACK
6
CONTINUOUS
10
3.47439
20
-2.5395
11
3.47439
21
-2.54034
0
LINE
8
BLACK
6
CONTINUOUS
10
3.47439
20
-2.54034
11
3.47496
21
-2.54322
0
LINE
8
BLACK
6
CONTINUOUS
10
3.47496
20
-2.54322
11
3.47496
21
-2.54322
0
LINE
8
BLACK
6
CONTINUOUS
10
3.47496
20
-2.54322
11
3.47496
21
-2.54322
0
LINE
8
BLACK
6
CONTINUOUS
10
3.47496
20
-2.54322
11
3.47714
21
-2.54648
0
LINE
8
BLACK
6
CONTINUOUS
10
3.47714
20
-2.54648
11
3.48001
21
-2.5484
0
LINE
8
BLACK
6
CONTINUOUS
10
3.48001
20
-2.5484
11
3.4804
21
-2.54866
0
LINE
8
BLACK
6
CONTINUOUS
10
3.4804
20
-2.54866
11
3.4804
21
-2.54866
0
LINE
8
BLACK
6
CONTINUOUS
10
3.4804
20
-2.54866
11
3.48328
21
-2.54923
0
LINE
8
BLACK
6
CONTINUOUS
10
3.48328
20
-2.54923
11
3.48328
21
-2.54923
0
LINE
8
BLACK
6
CONTINUOUS
10
3.48328
20
-2.54923
11
3.48328
21
-2.54923
0
LINE
8
BLACK
6
CONTINUOUS
10
3.48328
20
-2.54923
11
3.52459
21
-2.54923
0
LINE
8
BLACK
6
CONTINUOUS
10
3.52459
20
-2.54923
11
3.52459
21
-2.54923
0
LINE
8
BLACK
6
CONTINUOUS
10
3.52459
20
-2.54923
11
3.52747
21
-2.54866
0
LINE
8
BLACK
6
CONTINUOUS
10
3.52747
20
-2.54866
11
3.53073
21
-2.54648
0
LINE
8
BLACK
6
CONTINUOUS
10
3.53073
20
-2.54648
11
3.53291
21
-2.54322
0
LINE
8
BLACK
6
CONTINUOUS
10
3.53291
20
-2.54322
11
3.53348
21
-2.54034
0
LINE
8
BLACK
6
CONTINUOUS
10
3.53348
20
-2.54034
11
3.53348
21
-2.43305
0
LINE
8
BLACK
6
CONTINUOUS
10
3.53348
20
-2.43305
11
3.53426
21
-2.43041
0
LINE
8
BLACK
6
CONTINUOUS
10
3.53426
20
-2.43041
11
3.53634
21
-2.42861
0
LINE
8
BLACK
6
CONTINUOUS
10
3.53634
20
-2.42861
11
3.53837
21
-2.42817
0
LINE
8
BLACK
6
CONTINUOUS
10
3.53837
20
-2.42817
11
3.54825
21
-2.42817
0
LINE
8
BLACK
6
CONTINUOUS
10
3.54825
20
-2.42817
11
3.55089
21
-2.42894
0
LINE
8
BLACK
6
CONTINUOUS
10
3.55089
20
-2.42894
11
3.55269
21
-2.43102
0
LINE
8
BLACK
6
CONTINUOUS
10
3.55269
20
-2.43102
11
3.55313
21
-2.43305
0
LINE
8
BLACK
6
CONTINUOUS
10
3.55313
20
-2.43305
11
3.55313
21
-2.54034
0
LINE
8
BLACK
6
CONTINUOUS
10
3.55313
20
-2.54034
11
3.5537
21
-2.54322
0
LINE
8
BLACK
6
CONTINUOUS
10
3.5537
20
-2.54322
11
3.5537
21
-2.54322
0
LINE
8
BLACK
6
CONTINUOUS
10
3.5537
20
-2.54322
11
3.5537
21
-2.54322
0
LINE
8
BLACK
6
CONTINUOUS
10
3.5537
20
-2.54322
11
3.55588
21
-2.54648
0
LINE
8
BLACK
6
CONTINUOUS
10
3.55588
20
-2.54648
11
3.55875
21
-2.5484
0
LINE
8
BLACK
6
CONTINUOUS
10
3.55875
20
-2.5484
11
3.55914
21
-2.54866
0
LINE
8
BLACK
6
CONTINUOUS
10
3.55914
20
-2.54866
11
3.55914
21
-2.54866
0
LINE
8
BLACK
6
CONTINUOUS
10
3.55914
20
-2.54866
11
3.56202
21
-2.54923
0
LINE
8
BLACK
6
CONTINUOUS
10
3.56202
20
-2.54923
11
3.56202
21
-2.54923
0
LINE
8
BLACK
6
CONTINUOUS
10
3.56202
20
-2.54923
11
3.56202
21
-2.54923
0
LINE
8
BLACK
6
CONTINUOUS
10
3.56202
20
-2.54923
11
3.60333
21
-2.54923
0
LINE
8
BLACK
6
CONTINUOUS
10
3.60333
20
-2.54923
11
3.60333
21
-2.54923
0
LINE
8
BLACK
6
CONTINUOUS
10
3.60333
20
-2.54923
11
3.60621
21
-2.54866
0
LINE
8
BLACK
6
CONTINUOUS
10
3.60621
20
-2.54866
11
3.60751
21
-2.54779
0
LINE
8
BLACK
6
CONTINUOUS
10
3.60751
20
-2.54779
11
3.61013
21
-2.54697
0
LINE
8
BLACK
6
CONTINUOUS
10
3.61013
20
-2.54697
11
3.61249
21
-2.54753
0
LINE
8
BLACK
6
CONTINUOUS
10
3.61249
20
-2.54753
11
3.6129
21
-2.54774
0
LINE
8
BLACK
6
CONTINUOUS
10
3.6129
20
-2.54774
11
3.61662
21
-2.54866
0
LINE
8
BLACK
6
CONTINUOUS
10
3.61662
20
-2.54866
11
3.61894
21
-2.54923
0
LINE
8
BLACK
6
CONTINUOUS
10
3.61894
20
-2.54923
11
3.61894
21
-2.54923
0
LINE
8
BLACK
6
CONTINUOUS
10
3.61894
20
-2.54923
11
3.62516
21
-2.54923
0
LINE
8
BLACK
6
CONTINUOUS
10
3.62516
20
-2.54923
11
3.6312
21
-2.54774
0
LINE
8
BLACK
6
CONTINUOUS
10
3.6312
20
-2.54774
11
3.63161
21
-2.54753
0
LINE
8
BLACK
6
CONTINUOUS
10
3.63161
20
-2.54753
11
3.63431
21
-2.54699
0
LINE
8
BLACK
6
CONTINUOUS
10
3.63431
20
-2.54699
11
3.63687
21
-2.54799
0
LINE
8
BLACK
6
CONTINUOUS
10
3.63687
20
-2.54799
11
3.63848
21
-2.55022
0
LINE
8
BLACK
6
CONTINUOUS
10
3.63848
20
-2.55022
11
3.63876
21
-2.55185
0
LINE
8
BLACK
6
CONTINUOUS
10
3.63876
20
-2.55185
11
3.63876
21
-2.68211
0
LINE
8
BLACK
6
CONTINUOUS
10
3.63876
20
-2.68211
11
3.63798
21
-2.68475
0
LINE
8
BLACK
6
CONTINUOUS
10
3.63798
20
-2.68475
11
3.63591
21
-2.68655
0
LINE
8
BLACK
6
CONTINUOUS
10
3.63591
20
-2.68655
11
3.63388
21
-2.68699
0
LINE
8
BLACK
6
CONTINUOUS
10
3.63388
20
-2.68699
11
3.61123
21
-2.68699
0
LINE
8
BLACK
6
CONTINUOUS
10
3.61123
20
-2.68699
11
3.60836
21
-2.68756
0
LINE
8
BLACK
6
CONTINUOUS
10
3.60836
20
-2.68756
11
3.60836
21
-2.68756
0
LINE
8
BLACK
6
CONTINUOUS
10
3.60836
20
-2.68756
11
3.60509
21
-2.68974
0
LINE
8
BLACK
6
CONTINUOUS
10
3.60509
20
-2.68974
11
3.60291
21
-2.693
0
LINE
8
BLACK
6
CONTINUOUS
10
3.60291
20
-2.693
11
3.60291
21
-2.693
0
LINE
8
BLACK
6
CONTINUOUS
10
3.60291
20
-2.693
11
3.60234
21
-2.69588
0
LINE
8
BLACK
6
CONTINUOUS
10
3.60234
20
-2.69588
11
3.60234
21
-2.73719
0
LINE
8
BLACK
6
CONTINUOUS
10
3.60234
20
-2.73719
11
3.60291
21
-2.74007
0
LINE
8
BLACK
6
CONTINUOUS
10
3.60291
20
-2.74007
11
3.60291
21
-2.74007
0
LINE
8
BLACK
6
CONTINUOUS
10
3.60291
20
-2.74007
11
3.60291
21
-2.74007
0
LINE
8
BLACK
6
CONTINUOUS
10
3.60291
20
-2.74007
11
3.60509
21
-2.74333
0
LINE
8
BLACK
6
CONTINUOUS
10
3.60509
20
-2.74333
11
3.60836
21
-2.74551
0
LINE
8
BLACK
6
CONTINUOUS
10
3.60836
20
-2.74551
11
3.60836
21
-2.74551
0
LINE
8
BLACK
6
CONTINUOUS
10
3.60836
20
-2.74551
11
3.60836
21
-2.74551
0
LINE
8
BLACK
6
CONTINUOUS
10
3.60836
20
-2.74551
11
3.61123
21
-2.74608
0
LINE
8
BLACK
6
CONTINUOUS
10
3.61123
20
-2.74608
11
3.61123
21
-2.74608
0
LINE
8
BLACK
6
CONTINUOUS
10
3.61123
20
-2.74608
11
3.61123
21
-2.74608
0
LINE
8
BLACK
6
CONTINUOUS
10
3.61123
20
-2.74608
11
3.72144
21
-2.74608
0
LINE
8
BLACK
6
CONTINUOUS
10
3.72144
20
-2.74608
11
3.72144
21
-2.74608
0
LINE
8
BLACK
6
CONTINUOUS
10
3.72144
20
-2.74608
11
3.72432
21
-2.74551
0
LINE
8
BLACK
6
CONTINUOUS
10
3.72432
20
-2.74551
11
3.72758
21
-2.74333
0
LINE
8
BLACK
6
CONTINUOUS
10
3.72758
20
-2.74333
11
3.72976
21
-2.74007
0
LINE
8
BLACK
6
CONTINUOUS
10
3.72976
20
-2.74007
11
3.73033
21
-2.73719
0
LINE
8
BLACK
6
CONTINUOUS
10
3.73033
20
-2.73719
11
3.73033
21
-2.69588
0
LINE
8
BLACK
6
CONTINUOUS
10
3.73033
20
-2.69588
11
3.73033
21
-2.69588
0
LINE
8
BLACK
6
CONTINUOUS
10
3.73033
20
-2.69588
11
3.73033
21
-2.69588
0
LINE
8
BLACK
6
CONTINUOUS
10
3.73033
20
-2.69588
11
3.73033
21
-2.69588
0
LINE
8
BLACK
6
CONTINUOUS
10
3.73033
20
-2.69588
11
3.72976
21
-2.693
0
LINE
8
BLACK
6
CONTINUOUS
10
3.72976
20
-2.693
11
3.72976
21
-2.693
0
LINE
8
BLACK
6
CONTINUOUS
10
3.72976
20
-2.693
11
3.72901
21
-2.69188
0
LINE
8
BLACK
6
CONTINUOUS
10
3.72901
20
-2.69188
11
3.72758
21
-2.68974
0
LINE
8
BLACK
6
CONTINUOUS
10
3.72758
20
-2.68974
11
3.72432
21
-2.68756
0
LINE
8
BLACK
6
CONTINUOUS
10
3.72432
20
-2.68756
11
3.72432
21
-2.68756
0
LINE
8
BLACK
6
CONTINUOUS
10
3.72432
20
-2.68756
11
3.72432
21
-2.68756
0
LINE
8
BLACK
6
CONTINUOUS
10
3.72432
20
-2.68756
11
3.72144
21
-2.68699
0
LINE
8
BLACK
6
CONTINUOUS
10
3.72144
20
-2.68699
11
3.72144
21
-2.68699
0
LINE
8
BLACK
6
CONTINUOUS
10
3.72144
20
-2.68699
11
3.67321
21
-2.68699
0
LINE
8
BLACK
6
CONTINUOUS
10
3.67321
20
-2.68699
11
3.67057
21
-2.68621
0
LINE
8
BLACK
6
CONTINUOUS
10
3.67057
20
-2.68621
11
3.66877
21
-2.68413
0
LINE
8
BLACK
6
CONTINUOUS
10
3.66877
20
-2.68413
11
3.66833
21
-2.68211
0
LINE
8
BLACK
6
CONTINUOUS
10
3.66833
20
-2.68211
11
3.66833
21
-2.4141
0
LINE
8
BLACK
6
CONTINUOUS
10
3.66833
20
-2.4141
11
3.66834
21
-2.4139
0
LINE
8
BLACK
6
CONTINUOUS
10
3.66834
20
-2.4139
11
3.66848
21
-2.41215
0
LINE
8
BLACK
6
CONTINUOUS
10
3.66848
20
-2.41215
11
3.66805
21
-2.41045
0
LINE
8
BLACK
6
CONTINUOUS
10
3.66805
20
-2.41045
11
3.66801
21
-2.41025
0
LINE
8
BLACK
6
CONTINUOUS
10
3.66801
20
-2.41025
11
3.66772
21
-2.40852
0
LINE
8
BLACK
6
CONTINUOUS
10
3.66772
20
-2.40852
11
3.66771
21
-2.40851
0
LINE
8
BLACK
6
CONTINUOUS
10
3.66771
20
-2.40851
11
3.66727
21
-2.40738
0
LINE
8
BLACK
6
CONTINUOUS
10
3.66727
20
-2.40738
11
3.66727
21
-2.40737
0
LINE
8
BLACK
6
CONTINUOUS
10
3.66727
20
-2.40737
11
3.66727
21
-2.40737
0
LINE
8
BLACK
6
CONTINUOUS
10
3.66727
20
-2.40737
11
3.66631
21
-2.4059
0
LINE
8
BLACK
6
CONTINUOUS
10
3.66631
20
-2.4059
11
3.66621
21
-2.40572
0
LINE
8
BLACK
6
CONTINUOUS
10
3.66621
20
-2.40572
11
3.66537
21
-2.40418
0
LINE
8
BLACK
6
CONTINUOUS
10
3.66537
20
-2.40418
11
3.66536
21
-2.40417
0
LINE
8
BLACK
6
CONTINUOUS
10
3.66536
20
-2.40417
11
3.66458
21
-2.40325
0
LINE
8
BLACK
6
CONTINUOUS
10
3.66458
20
-2.40325
11
3.66457
21
-2.40323
0
LINE
8
BLACK
6
CONTINUOUS
10
3.66457
20
-2.40323
11
3.66457
21
-2.40323
0
LINE
8
BLACK
6
CONTINUOUS
10
3.66457
20
-2.40323
11
3.66319
21
-2.40216
0
LINE
8
BLACK
6
CONTINUOUS
10
3.66319
20
-2.40216
11
3.66303
21
-2.40203
0
LINE
8
BLACK
6
CONTINUOUS
10
3.66303
20
-2.40203
11
3.66261
21
-2.40164
0
LINE
8
BLACK
6
CONTINUOUS
10
3.66261
20
-2.40164
11
3.66174
21
-2.40084
0
LINE
8
BLACK
6
CONTINUOUS
10
3.66174
20
-2.40084
11
3.66173
21
-2.40083
0
LINE
8
BLACK
6
CONTINUOUS
10
3.66173
20
-2.40083
11
3.66069
21
-2.40021
0
LINE
8
BLACK
6
CONTINUOUS
10
3.66069
20
-2.40021
11
3.66068
21
-2.4002
0
LINE
8
BLACK
6
CONTINUOUS
10
3.66068
20
-2.4002
11
3.65902
21
-2.39963
0
LINE
8
BLACK
6
CONTINUOUS
10
3.65902
20
-2.39963
11
3.65883
21
-2.39956
0
LINE
8
BLACK
6
CONTINUOUS
10
3.65883
20
-2.39956
11
3.65722
21
-2.39886
0
LINE
8
BLACK
6
CONTINUOUS
10
3.65722
20
-2.39886
11
3.65722
21
-2.39886
0
LINE
8
BLACK
6
CONTINUOUS
10
3.65722
20
-2.39886
11
3.65721
21
-2.39886
0
LINE
8
BLACK
6
CONTINUOUS
10
3.65721
20
-2.39886
11
3.65603
21
-2.39861
0
LINE
8
BLACK
6
CONTINUOUS
10
3.65603
20
-2.39861
11
3.65601
21
-2.3986
0
LINE
8
BLACK
6
CONTINUOUS
10
3.65601
20
-2.3986
11
3.65426
21
-2.3986
0
LINE
8
BLACK
6
CONTINUOUS
10
3.65426
20
-2.3986
11
3.65405
21
-2.39859
0
LINE
8
BLACK
6
CONTINUOUS
10
3.65405
20
-2.39859
11
3.6537
21
-2.39856
0
LINE
8
BLACK
6
CONTINUOUS
10
3.6537
20
-2.39856
11
3.65231
21
-2.39845
0
LINE
8
BLACK
6
CONTINUOUS
10
3.65231
20
-2.39845
11
3.6523
21
-2.39845
0
LINE
8
BLACK
6
CONTINUOUS
10
3.6523
20
-2.39845
11
3.65229
21
-2.39845
0
LINE
8
BLACK
6
CONTINUOUS
10
3.65229
20
-2.39845
11
3.65109
21
-2.3986
0
LINE
8
BLACK
6
CONTINUOUS
10
3.65109
20
-2.3986
11
3.48423
21
-2.3986
0
LINE
8
BLACK
6
CONTINUOUS
10
3.48423
20
-2.3986
11
3.48159
21
-2.39783
0
LINE
8
BLACK
6
CONTINUOUS
10
3.48159
20
-2.39783
11
3.47979
21
-2.39575
0
LINE
8
BLACK
6
CONTINUOUS
10
3.47979
20
-2.39575
11
3.47935
21
-2.39372
0
LINE
8
BLACK
6
CONTINUOUS
10
3.47935
20
-2.39372
11
3.47935
21
-2.30805
0
LINE
8
BLACK
6
CONTINUOUS
10
3.47935
20
-2.30805
11
3.48013
21
-2.30541
0
LINE
8
BLACK
6
CONTINUOUS
10
3.48013
20
-2.30541
11
3.4822
21
-2.30361
0
LINE
8
BLACK
6
CONTINUOUS
10
3.4822
20
-2.30361
11
3.48423
21
-2.30317
0
LINE
8
BLACK
6
CONTINUOUS
10
3.48423
20
-2.30317
11
3.52459
21
-2.30317
0
LINE
8
BLACK
6
CONTINUOUS
10
3.52459
20
-2.30317
11
3.52459
21
-2.30317
0
LINE
8
BLACK
6
CONTINUOUS
10
3.52459
20
-2.30317
11
3.52747
21
-2.3026
0
LINE
8
BLACK
6
CONTINUOUS
10
3.52747
20
-2.3026
11
3.53073
21
-2.30042
0
LINE
8
BLACK
6
CONTINUOUS
10
3.53073
20
-2.30042
11
3.53291
21
-2.29716
0
LINE
8
BLACK
6
CONTINUOUS
10
3.53291
20
-2.29716
11
3.53348
21
-2.29428
0
LINE
8
BLACK
6
CONTINUOUS
10
3.53348
20
-2.29428
11
3.53348
21
-2.24902
0
LINE
8
BLACK
6
CONTINUOUS
10
3.53348
20
-2.24902
11
3.53348
21
-2.22933
0
LINE
8
BLACK
6
CONTINUOUS
10
3.53348
20
-2.22933
11
3.53348
21
-2.18407
0
LINE
8
BLACK
6
CONTINUOUS
10
3.53348
20
-2.18407
11
3.53348
21
-2.18407
0
LINE
8
BLACK
6
CONTINUOUS
10
3.53348
20
-2.18407
11
3.53348
21
-2.18407
0
LINE
8
BLACK
6
CONTINUOUS
10
3.53348
20
-2.18407
11
3.53291
21
-2.18119
0
LINE
8
BLACK
6
CONTINUOUS
10
3.53291
20
-2.18119
11
3.53291
21
-2.18119
0
LINE
8
BLACK
6
CONTINUOUS
10
3.53291
20
-2.18119
11
3.53291
21
-2.18119
0
LINE
8
BLACK
6
CONTINUOUS
10
3.53291
20
-2.18119
11
3.53073
21
-2.17793
0
LINE
8
BLACK
6
CONTINUOUS
10
3.53073
20
-2.17793
11
3.52747
21
-2.17575
0
LINE
8
BLACK
6
CONTINUOUS
10
3.52747
20
-2.17575
11
3.52747
21
-2.17575
0
LINE
8
BLACK
6
CONTINUOUS
10
3.52747
20
-2.17575
11
3.52747
21
-2.17575
0
LINE
8
BLACK
6
CONTINUOUS
10
3.52747
20
-2.17575
11
3.52459
21
-2.17518
0
LINE
8
BLACK
6
CONTINUOUS
10
3.52459
20
-2.17518
11
3.52459
21
-2.17518
0
LINE
8
BLACK
6
CONTINUOUS
10
3.52459
20
-2.17518
11
3.48328
21
-2.17518
0
LINE
8
BLACK
6
CONTINUOUS
10
3.48328
20
-2.17518
11
3.48328
21
-2.17518
0
LINE
8
BLACK
6
CONTINUOUS
10
3.48328
20
-2.17518
11
3.4804
21
-2.17575
0
LINE
8
BLACK
6
CONTINUOUS
10
3.4804
20
-2.17575
11
3.4804
21
-2.17575
0
LINE
8
BLACK
6
CONTINUOUS
10
3.4804
20
-2.17575
11
3.47714
21
-2.17793
0
LINE
8
BLACK
6
CONTINUOUS
10
3.47714
20
-2.17793
11
3.47496
21
-2.18119
0
LINE
8
BLACK
6
CONTINUOUS
10
3.47496
20
-2.18119
11
3.47496
21
-2.18119
0
LINE
8
BLACK
6
CONTINUOUS
10
3.47496
20
-2.18119
11
3.47439
21
-2.18407
0
LINE
8
BLACK
6
CONTINUOUS
10
3.47439
20
-2.18407
11
3.47439
21
-2.21935
0
LINE
8
BLACK
6
CONTINUOUS
10
3.47439
20
-2.21935
11
3.47361
21
-2.22199
0
LINE
8
BLACK
6
CONTINUOUS
10
3.47361
20
-2.22199
11
3.47154
21
-2.22379
0
LINE
8
BLACK
6
CONTINUOUS
10
3.47154
20
-2.22379
11
3.47011
21
-2.2242
0
LINE
8
BLACK
6
CONTINUOUS
10
3.47011
20
-2.2242
11
3.46872
21
-2.22437
0
LINE
8
BLACK
6
CONTINUOUS
10
3.46872
20
-2.22437
11
3.46842
21
-2.22439
0
LINE
8
BLACK
6
CONTINUOUS
10
3.46842
20
-2.22439
11
3.46826
21
-2.22439
0
LINE
8
BLACK
6
CONTINUOUS
10
3.46826
20
-2.22439
11
3.46741
21
-2.22453
0
LINE
8
BLACK
6
CONTINUOUS
10
3.46741
20
-2.22453
11
3.46731
21
-2.22455
0
LINE
8
BLACK
6
CONTINUOUS
10
3.46731
20
-2.22455
11
3.46521
21
-2.22481
0
LINE
8
BLACK
6
CONTINUOUS
10
3.46521
20
-2.22481
11
3.46492
21
-2.2249
0
LINE
8
BLACK
6
CONTINUOUS
10
3.46492
20
-2.2249
11
3.46462
21
-2.225
0
LINE
8
BLACK
6
CONTINUOUS
10
3.46462
20
-2.225
11
3.46277
21
-2.226
0
LINE
8
BLACK
6
CONTINUOUS
10
3.46277
20
-2.226
11
3.46268
21
-2.22605
0
LINE
8
BLACK
6
CONTINUOUS
10
3.46268
20
-2.22605
11
3.46078
21
-2.22698
0
LINE
8
BLACK
6
CONTINUOUS
10
3.46078
20
-2.22698
11
3.46053
21
-2.22716
0
LINE
8
BLACK
6
CONTINUOUS
10
3.46053
20
-2.22716
11
3.46028
21
-2.22735
0
LINE
8
BLACK
6
CONTINUOUS
10
3.46028
20
-2.22735
11
3.45885
21
-2.2289
0
LINE
8
BLACK
6
CONTINUOUS
10
3.45885
20
-2.2289
11
3.45878
21
-2.22897
0
LINE
8
BLACK
6
CONTINUOUS
10
3.45878
20
-2.22897
11
3.45556
21
-2.2322
0
LINE
8
BLACK
6
CONTINUOUS
10
3.45556
20
-2.2322
11
3.45477
21
-2.23283
0
LINE
8
BLACK
6
CONTINUOUS
10
3.45477
20
-2.23283
11
3.45442
21
-2.23307
0
LINE
8
BLACK
6
CONTINUOUS
10
3.45442
20
-2.23307
11
3.45442
21
-2.23307
0
LINE
8
BLACK
6
CONTINUOUS
10
3.45442
20
-2.23307
11
3.45356
21
-2.23417
0
LINE
8
BLACK
6
CONTINUOUS
10
3.45356
20
-2.23417
11
3.45336
21
-2.2344
0
LINE
8
BLACK
6
CONTINUOUS
10
3.45336
20
-2.2344
11
3.45325
21
-2.23451
0
LINE
8
BLACK
6
CONTINUOUS
10
3.45325
20
-2.23451
11
3.45325
21
-2.23451
0
LINE
8
BLACK
6
CONTINUOUS
10
3.45325
20
-2.23451
11
3.45274
21
-2.23521
0
LINE
8
BLACK
6
CONTINUOUS
10
3.45274
20
-2.23521
11
3.45268
21
-2.23529
0
LINE
8
BLACK
6
CONTINUOUS
10
3.45268
20
-2.23529
11
3.45139
21
-2.23696
0
LINE
8
BLACK
6
CONTINUOUS
10
3.45139
20
-2.23696
11
3.45124
21
-2.23723
0
LINE
8
BLACK
6
CONTINUOUS
10
3.45124
20
-2.23723
11
3.4511
21
-2.23751
0
LINE
8
BLACK
6
CONTINUOUS
10
3.4511
20
-2.23751
11
3.4505
21
-2.23953
0
LINE
8
BLACK
6
CONTINUOUS
10
3.4505
20
-2.23953
11
3.45047
21
-2.23963
0
LINE
8
BLACK
6
CONTINUOUS
10
3.45047
20
-2.23963
11
3.44978
21
-2.24163
0
LINE
8
BLACK
6
CONTINUOUS
10
3.44978
20
-2.24163
11
3.44973
21
-2.24193
0
LINE
8
BLACK
6
CONTINUOUS
10
3.44973
20
-2.24193
11
3.44969
21
-2.24224
0
LINE
8
BLACK
6
CONTINUOUS
10
3.44969
20
-2.24224
11
3.44978
21
-2.24435
0
LINE
8
BLACK
6
CONTINUOUS
10
3.44978
20
-2.24435
11
3.44978
21
-2.24445
0
LINE
8
BLACK
6
CONTINUOUS
10
3.44978
20
-2.24445
11
3.44978
21
-2.40788
0
LINE
8
BLACK
6
CONTINUOUS
10
3.44978
20
-2.40788
11
3.44901
21
-2.41052
0
LINE
8
BLACK
6
CONTINUOUS
10
3.44901
20
-2.41052
11
3.44717
21
-2.41221
0
LINE
8
BLACK
6
CONTINUOUS
10
3.44717
20
-2.41221
11
3.44637
21
-2.41263
0
LINE
8
BLACK
6
CONTINUOUS
10
3.44637
20
-2.41263
11
3.44637
21
-2.41263
0
LINE
8
BLACK
6
CONTINUOUS
10
3.44637
20
-2.41263
11
3.44171
21
-2.41675
0
LINE
8
BLACK
6
CONTINUOUS
10
3.44171
20
-2.41675
11
3.43818
21
-2.42187
0
LINE
8
BLACK
6
CONTINUOUS
10
3.43818
20
-2.42187
11
3.43818
21
-2.42187
0
LINE
8
BLACK
6
CONTINUOUS
10
3.43818
20
-2.42187
11
3.43597
21
-2.42768
0
LINE
8
BLACK
6
CONTINUOUS
10
3.43597
20
-2.42768
11
3.43523
21
-2.43386
0
LINE
8
BLACK
6
CONTINUOUS
10
3.43523
20
-2.43386
11
3.43523
21
-2.43386
0
LINE
8
BLACK
6
CONTINUOUS
10
3.43523
20
-2.43386
11
3.43597
21
-2.44003
0
LINE
8
BLACK
6
CONTINUOUS
10
3.43597
20
-2.44003
11
3.43818
21
-2.44585
0
LINE
8
BLACK
6
CONTINUOUS
10
3.43818
20
-2.44585
11
3.43818
21
-2.44585
0
LINE
8
BLACK
6
CONTINUOUS
10
3.43818
20
-2.44585
11
3.44171
21
-2.45097
0
LINE
8
BLACK
6
CONTINUOUS
10
3.44171
20
-2.45097
11
3.44637
21
-2.45509
0
LINE
8
BLACK
6
CONTINUOUS
10
3.44637
20
-2.45509
11
3.44637
21
-2.45509
0
LINE
8
BLACK
6
CONTINUOUS
10
3.44637
20
-2.45509
11
3.45188
21
-2.45798
0
LINE
8
BLACK
6
CONTINUOUS
10
3.45188
20
-2.45798
11
3.45791
21
-2.45947
0
LINE
8
BLACK
6
CONTINUOUS
10
3.45791
20
-2.45947
11
3.45791
21
-2.45947
0
LINE
8
BLACK
6
CONTINUOUS
10
3.45791
20
-2.45947
11
3.46413
21
-2.45947
0
LINE
8
BLACK
6
CONTINUOUS
10
3.46413
20
-2.45947
11
3.46834
21
-2.45843
0
LINE
8
BLACK
6
CONTINUOUS
10
3.46834
20
-2.45843
11
3.47109
21
-2.45855
0
LINE
8
BLACK
6
CONTINUOUS
10
3.47109
20
-2.45855
11
3.47333
21
-2.46014
0
LINE
8
BLACK
6
CONTINUOUS
10
3.47333
20
-2.46014
11
3.47437
21
-2.46269
0
LINE
8
BLACK
6
CONTINUOUS
10
3.47437
20
-2.46269
11
3.47439
21
-2.46317
0
LINE
8
BLACK
6
CONTINUOUS
10
3.47439
20
-2.46317
11
3.47439
21
-2.49185
0
LINE
8
BLACK
6
CONTINUOUS
10
3.47439
20
-2.49185
11
3.47361
21
-2.49449
0
LINE
8
BLACK
6
CONTINUOUS
10
3.47361
20
-2.49449
11
3.47296
21
-2.49531
0
LINE
8
BLACK
6
CONTINUOUS
10
3.47296
20
-2.49531
11
3.46479
21
-2.50347
0
LINE
8
BLACK
6
CONTINUOUS
10
3.46479
20
-2.50347
11
3.46238
21
-2.50479
0
LINE
8
BLACK
6
CONTINUOUS
10
3.46238
20
-2.50479
11
3.46134
21
-2.5049
0
LINE
8
BLACK
6
CONTINUOUS
10
3.46134
20
-2.5049
11
3.44756
21
-2.5049
0
LINE
8
BLACK
6
CONTINUOUS
10
3.44756
20
-2.5049
11
3.44492
21
-2.50413
0
LINE
8
BLACK
6
CONTINUOUS
10
3.44492
20
-2.50413
11
3.44312
21
-2.50205
0
LINE
8
BLACK
6
CONTINUOUS
10
3.44312
20
-2.50205
11
3.44272
21
-2.50061
0
LINE
8
BLACK
6
CONTINUOUS
10
3.44272
20
-2.50061
11
3.44237
21
-2.49776
0
LINE
8
BLACK
6
CONTINUOUS
10
3.44237
20
-2.49776
11
3.44017
21
-2.49195
0
LINE
8
BLACK
6
CONTINUOUS
10
3.44017
20
-2.49195
11
3.43663
21
-2.48683
0
LINE
8
BLACK
6
CONTINUOUS
10
3.43663
20
-2.48683
11
3.43198
21
-2.48271
0
LINE
8
BLACK
6
CONTINUOUS
10
3.43198
20
-2.48271
11
3.43198
21
-2.48271
0
LINE
8
BLACK
6
CONTINUOUS
10
3.43198
20
-2.48271
11
3.43198
21
-2.48271
0
LINE
8
BLACK
6
CONTINUOUS
10
3.43198
20
-2.48271
11
3.42647
21
-2.47982
0
LINE
8
BLACK
6
CONTINUOUS
10
3.42647
20
-2.47982
11
3.42043
21
-2.47833
0
LINE
8
BLACK
6
CONTINUOUS
10
3.42043
20
-2.47833
11
3.42043
21
-2.47833
0
LINE
8
BLACK
6
CONTINUOUS
10
3.42043
20
-2.47833
11
3.41421
21
-2.47833
0
LINE
8
BLACK
6
CONTINUOUS
10
3.41421
20
-2.47833
11
3.41421
21
-2.47833
0
LINE
8
BLACK
6
CONTINUOUS
10
3.41421
20
-2.47833
11
3.40817
21
-2.47982
0
LINE
8
BLACK
6
CONTINUOUS
10
3.40817
20
-2.47982
11
3.40267
21
-2.48271
0
LINE
8
BLACK
6
CONTINUOUS
10
3.40267
20
-2.48271
11
3.39801
21
-2.48683
0
LINE
8
BLACK
6
CONTINUOUS
10
3.39801
20
-2.48683
11
3.39448
21
-2.49195
0
LINE
8
BLACK
6
CONTINUOUS
10
3.39448
20
-2.49195
11
3.39448
21
-2.49195
0
LINE
8
BLACK
6
CONTINUOUS
10
3.39448
20
-2.49195
11
3.39227
21
-2.49776
0
LINE
8
BLACK
6
CONTINUOUS
10
3.39227
20
-2.49776
11
3.39152
21
-2.50394
0
LINE
8
BLACK
6
CONTINUOUS
10
3.39152
20
-2.50394
11
3.39152
21
-2.50394
0
LINE
8
BLACK
6
CONTINUOUS
10
3.39152
20
-2.50394
11
3.39227
21
-2.51011
0
LINE
8
BLACK
6
CONTINUOUS
10
3.39227
20
-2.51011
11
3.39448
21
-2.51593
0
LINE
8
BLACK
6
CONTINUOUS
10
3.39448
20
-2.51593
11
3.39448
21
-2.51593
0
LINE
8
BLACK
6
CONTINUOUS
10
3.39448
20
-2.51593
11
3.39801
21
-2.52104
0
LINE
8
BLACK
6
CONTINUOUS
10
3.39801
20
-2.52104
11
3.40089
21
-2.5236
0
LINE
8
BLACK
6
CONTINUOUS
10
3.40089
20
-2.5236
11
3.40236
21
-2.52593
0
LINE
8
BLACK
6
CONTINUOUS
10
3.40236
20
-2.52593
11
3.40254
21
-2.52725
0
LINE
8
BLACK
6
CONTINUOUS
10
3.40254
20
-2.52725
11
3.40254
21
-2.55485
0
LINE
8
BLACK
6
CONTINUOUS
10
3.40254
20
-2.55485
11
3.40176
21
-2.55749
0
LINE
8
BLACK
6
CONTINUOUS
10
3.40176
20
-2.55749
11
3.40111
21
-2.5583
0
LINE
8
BLACK
6
CONTINUOUS
10
3.40111
20
-2.5583
11
3.32957
21
-2.62984
0
LINE
8
BLACK
6
CONTINUOUS
10
3.32957
20
-2.62984
11
3.32879
21
-2.63047
0
LINE
8
BLACK
6
CONTINUOUS
10
3.32879
20
-2.63047
11
3.32843
21
-2.63071
0
LINE
8
BLACK
6
CONTINUOUS
10
3.32843
20
-2.63071
11
3.32843
21
-2.63071
0
LINE
8
BLACK
6
CONTINUOUS
10
3.32843
20
-2.63071
11
3.32757
21
-2.63181
0
LINE
8
BLACK
6
CONTINUOUS
10
3.32757
20
-2.63181
11
3.32737
21
-2.63203
0
LINE
8
BLACK
6
CONTINUOUS
10
3.32737
20
-2.63203
11
3.32726
21
-2.63214
0
LINE
8
BLACK
6
CONTINUOUS
10
3.32726
20
-2.63214
11
3.32726
21
-2.63215
0
LINE
8
BLACK
6
CONTINUOUS
10
3.32726
20
-2.63215
11
3.32676
21
-2.63285
0
LINE
8
BLACK
6
CONTINUOUS
10
3.32676
20
-2.63285
11
3.3267
21
-2.63293
0
LINE
8
BLACK
6
CONTINUOUS
10
3.3267
20
-2.63293
11
3.3254
21
-2.6346
0
LINE
8
BLACK
6
CONTINUOUS
10
3.3254
20
-2.6346
11
3.32525
21
-2.63487
0
LINE
8
BLACK
6
CONTINUOUS
10
3.32525
20
-2.63487
11
3.32512
21
-2.63515
0
LINE
8
BLACK
6
CONTINUOUS
10
3.32512
20
-2.63515
11
3.32452
21
-2.63717
0
LINE
8
BLACK
6
CONTINUOUS
10
3.32452
20
-2.63717
11
3.32448
21
-2.63727
0
LINE
8
BLACK
6
CONTINUOUS
10
3.32448
20
-2.63727
11
3.3238
21
-2.63927
0
LINE
8
BLACK
6
CONTINUOUS
10
3.3238
20
-2.63927
11
3.32375
21
-2.63957
0
LINE
8
BLACK
6
CONTINUOUS
10
3.32375
20
-2.63957
11
3.32371
21
-2.63988
0
LINE
8
BLACK
6
CONTINUOUS
10
3.32371
20
-2.63988
11
3.3238
21
-2.64199
0
LINE
8
BLACK
6
CONTINUOUS
10
3.3238
20
-2.64199
11
3.3238
21
-2.64209
0
LINE
8
BLACK
6
CONTINUOUS
10
3.3238
20
-2.64209
11
3.3238
21
-2.69087
0
LINE
8
BLACK
6
CONTINUOUS
10
3.3238
20
-2.69087
11
3.3237
21
-2.69188
0
LINE
8
BLACK
6
CONTINUOUS
10
3.3237
20
-2.69188
11
3.32361
21
-2.69229
0
LINE
8
BLACK
6
CONTINUOUS
10
3.32361
20
-2.69229
11
3.32361
21
-2.69229
0
LINE
8
BLACK
6
CONTINUOUS
10
3.32361
20
-2.69229
11
3.32361
21
-2.69229
0
LINE
8
BLACK
6
CONTINUOUS
10
3.32361
20
-2.69229
11
3.32378
21
-2.69368
0
LINE
8
BLACK
6
CONTINUOUS
10
2.91001
20
-2.38155
11
2.91001
21
-2.38155
0
LINE
8
BLACK
6
CONTINUOUS
10
2.91001
20
-2.38155
11
2.91235
21
-2.40076
0
LINE
8
BLACK
6
CONTINUOUS
10
2.91235
20
-2.40076
11
2.91622
21
-2.41973
0
LINE
8
BLACK
6
CONTINUOUS
10
2.91622
20
-2.41973
11
2.9216
21
-2.43832
0
LINE
8
BLACK
6
CONTINUOUS
10
2.9216
20
-2.43832
11
2.92847
21
-2.45642
0
LINE
8
BLACK
6
CONTINUOUS
10
2.92847
20
-2.45642
11
2.93677
21
-2.47391
0
LINE
8
BLACK
6
CONTINUOUS
10
2.93677
20
-2.47391
11
2.94645
21
-2.49068
0
LINE
8
BLACK
6
CONTINUOUS
10
2.94645
20
-2.49068
11
2.94645
21
-2.49068
0
LINE
8
BLACK
6
CONTINUOUS
10
2.94645
20
-2.49068
11
2.94732
21
-2.49195
0
LINE
8
BLACK
6
CONTINUOUS
10
2.94732
20
-2.49195
11
2.95579
21
-2.50421
0
LINE
8
BLACK
6
CONTINUOUS
10
2.95579
20
-2.50421
11
2.95744
21
-2.50661
0
LINE
8
BLACK
6
CONTINUOUS
10
2.95744
20
-2.50661
11
2.96968
21
-2.5216
0
LINE
8
BLACK
6
CONTINUOUS
10
2.96968
20
-2.5216
11
2.96969
21
-2.5216
0
LINE
8
BLACK
6
CONTINUOUS
10
2.96969
20
-2.5216
11
2.96969
21
-2.5216
0
LINE
8
BLACK
6
CONTINUOUS
10
2.96969
20
-2.5216
11
2.98228
21
-2.53472
0
LINE
8
BLACK
6
CONTINUOUS
10
2.98228
20
-2.53472
11
2.98309
21
-2.53556
0
LINE
8
BLACK
6
CONTINUOUS
10
2.98309
20
-2.53556
11
2.98309
21
-2.53556
0
LINE
8
BLACK
6
CONTINUOUS
10
2.98309
20
-2.53556
11
2.99758
21
-2.5484
0
LINE
8
BLACK
6
CONTINUOUS
10
2.99758
20
-2.5484
11
3.00218
21
-2.55185
0
LINE
8
BLACK
6
CONTINUOUS
10
3.00218
20
-2.55185
11
3.01306
21
-2.56003
0
LINE
8
BLACK
6
CONTINUOUS
10
3.01306
20
-2.56003
11
3.02942
21
-2.57037
0
LINE
8
BLACK
6
CONTINUOUS
10
3.02942
20
-2.57037
11
3.02942
21
-2.57037
0
LINE
8
BLACK
6
CONTINUOUS
10
3.02942
20
-2.57037
11
3.02942
21
-2.57037
0
LINE
8
BLACK
6
CONTINUOUS
10
3.02942
20
-2.57037
11
3.0353
21
-2.57346
0
LINE
8
BLACK
6
CONTINUOUS
10
3.0353
20
-2.57346
11
3.04656
21
-2.57937
0
LINE
8
BLACK
6
CONTINUOUS
10
3.04656
20
-2.57937
11
3.06437
21
-2.58696
0
LINE
8
BLACK
6
CONTINUOUS
10
3.06437
20
-2.58696
11
3.08273
21
-2.59309
0
LINE
8
BLACK
6
CONTINUOUS
10
3.08273
20
-2.59309
11
3.10153
21
-2.59772
0
LINE
8
BLACK
6
CONTINUOUS
10
3.10153
20
-2.59772
11
3.10153
21
-2.59772
0
LINE
8
BLACK
6
CONTINUOUS
10
3.10153
20
-2.59772
11
3.10153
21
-2.59772
0
LINE
8
BLACK
6
CONTINUOUS
10
3.10153
20
-2.59772
11
3.1192
21
-2.60059
0
LINE
8
BLACK
6
CONTINUOUS
10
3.1192
20
-2.60059
11
3.12063
21
-2.60082
0
LINE
8
BLACK
6
CONTINUOUS
10
3.12063
20
-2.60082
11
3.13993
21
-2.60238
0
LINE
8
BLACK
6
CONTINUOUS
10
3.13993
20
-2.60238
11
3.13993
21
-2.60238
0
LINE
8
BLACK
6
CONTINUOUS
10
3.13993
20
-2.60238
11
3.15928
21
-2.60238
0
LINE
8
BLACK
6
CONTINUOUS
10
3.15928
20
-2.60238
11
3.15929
21
-2.60238
0
LINE
8
BLACK
6
CONTINUOUS
10
3.15929
20
-2.60238
11
3.17858
21
-2.60082
0
LINE
8
BLACK
6
CONTINUOUS
10
3.17858
20
-2.60082
11
3.18443
21
-2.59987
0
LINE
8
BLACK
6
CONTINUOUS
10
3.18443
20
-2.59987
11
3.19769
21
-2.59772
0
LINE
8
BLACK
6
CONTINUOUS
10
3.19769
20
-2.59772
11
3.19769
21
-2.59772
0
LINE
8
BLACK
6
CONTINUOUS
10
3.19769
20
-2.59772
11
3.19769
21
-2.59772
0
LINE
8
BLACK
6
CONTINUOUS
10
3.19769
20
-2.59772
11
3.21648
21
-2.59309
0
LINE
8
BLACK
6
CONTINUOUS
10
3.21648
20
-2.59309
11
3.23484
21
-2.58696
0
LINE
8
BLACK
6
CONTINUOUS
10
3.23484
20
-2.58696
11
3.25265
21
-2.57937
0
LINE
8
BLACK
6
CONTINUOUS
10
3.25265
20
-2.57937
11
3.26979
21
-2.57037
0
LINE
8
BLACK
6
CONTINUOUS
10
3.26979
20
-2.57037
11
3.28615
21
-2.56003
0
LINE
8
BLACK
6
CONTINUOUS
10
3.28615
20
-2.56003
11
3.30163
21
-2.5484
0
LINE
8
BLACK
6
CONTINUOUS
10
3.30163
20
-2.5484
11
3.30163
21
-2.5484
0
LINE
8
BLACK
6
CONTINUOUS
10
3.30163
20
-2.5484
11
3.30163
21
-2.5484
0
LINE
8
BLACK
6
CONTINUOUS
10
3.30163
20
-2.5484
11
3.31612
21
-2.53556
0
LINE
8
BLACK
6
CONTINUOUS
10
3.31612
20
-2.53556
11
3.31612
21
-2.53556
0
LINE
8
BLACK
6
CONTINUOUS
10
3.31612
20
-2.53556
11
3.31612
21
-2.53556
0
LINE
8
BLACK
6
CONTINUOUS
10
3.31612
20
-2.53556
11
3.32953
21
-2.5216
0
LINE
8
BLACK
6
CONTINUOUS
10
3.32953
20
-2.5216
11
3.34177
21
-2.50661
0
LINE
8
BLACK
6
CONTINUOUS
10
3.34177
20
-2.50661
11
3.35277
21
-2.49068
0
LINE
8
BLACK
6
CONTINUOUS
10
3.35277
20
-2.49068
11
3.36245
21
-2.47391
0
LINE
8
BLACK
6
CONTINUOUS
10
3.36245
20
-2.47391
11
3.37074
21
-2.45642
0
LINE
8
BLACK
6
CONTINUOUS
10
3.37074
20
-2.45642
11
3.37761
21
-2.43832
0
LINE
8
BLACK
6
CONTINUOUS
10
3.37761
20
-2.43832
11
3.38299
21
-2.41973
0
LINE
8
BLACK
6
CONTINUOUS
10
3.38299
20
-2.41973
11
3.38687
21
-2.40076
0
LINE
8
BLACK
6
CONTINUOUS
10
3.38687
20
-2.40076
11
3.3892
21
-2.38155
0
LINE
8
BLACK
6
CONTINUOUS
10
3.3892
20
-2.38155
11
3.3892
21
-2.38155
0
LINE
8
BLACK
6
CONTINUOUS
10
3.3892
20
-2.38155
11
3.38998
21
-2.36221
0
LINE
8
BLACK
6
CONTINUOUS
10
3.38998
20
-2.36221
11
3.38998
21
-2.3622
0
LINE
8
BLACK
6
CONTINUOUS
10
3.38998
20
-2.3622
11
3.3892
21
-2.34286
0
LINE
8
BLACK
6
CONTINUOUS
10
3.3892
20
-2.34286
11
3.3892
21
-2.34286
0
LINE
8
BLACK
6
CONTINUOUS
10
3.3892
20
-2.34286
11
3.3892
21
-2.34286
0
LINE
8
BLACK
6
CONTINUOUS
10
3.3892
20
-2.34286
11
3.38687
21
-2.32365
0
LINE
8
BLACK
6
CONTINUOUS
10
3.38687
20
-2.32365
11
3.38299
21
-2.30468
0
LINE
8
BLACK
6
CONTINUOUS
10
3.38299
20
-2.30468
11
3.38176
21
-2.30042
0
LINE
8
BLACK
6
CONTINUOUS
10
3.38176
20
-2.30042
11
3.37761
21
-2.28609
0
LINE
8
BLACK
6
CONTINUOUS
10
3.37761
20
-2.28609
11
3.37458
21
-2.27809
0
LINE
8
BLACK
6
CONTINUOUS
10
3.37458
20
-2.27809
11
3.37074
21
-2.26799
0
LINE
8
BLACK
6
CONTINUOUS
10
3.37074
20
-2.26799
11
3.36245
21
-2.2505
0
LINE
8
BLACK
6
CONTINUOUS
10
3.36245
20
-2.2505
11
3.35732
21
-2.24163
0
LINE
8
BLACK
6
CONTINUOUS
10
3.35732
20
-2.24163
11
3.35277
21
-2.23373
0
LINE
8
BLACK
6
CONTINUOUS
10
3.35277
20
-2.23373
11
3.35277
21
-2.23373
0
LINE
8
BLACK
6
CONTINUOUS
10
3.35277
20
-2.23373
11
3.35214
21
-2.23283
0
LINE
8
BLACK
6
CONTINUOUS
10
3.35214
20
-2.23283
11
3.34177
21
-2.2178
0
LINE
8
BLACK
6
CONTINUOUS
10
3.34177
20
-2.2178
11
3.34177
21
-2.2178
0
LINE
8
BLACK
6
CONTINUOUS
10
3.34177
20
-2.2178
11
3.34177
21
-2.2178
0
LINE
8
BLACK
6
CONTINUOUS
10
3.34177
20
-2.2178
11
3.32953
21
-2.20281
0
LINE
8
BLACK
6
CONTINUOUS
10
3.32953
20
-2.20281
11
3.32953
21
-2.20281
0
LINE
8
BLACK
6
CONTINUOUS
10
3.32953
20
-2.20281
11
3.31612
21
-2.18885
0
LINE
8
BLACK
6
CONTINUOUS
10
3.31612
20
-2.18885
11
3.31612
21
-2.18885
0
LINE
8
BLACK
6
CONTINUOUS
10
3.31612
20
-2.18885
11
3.30163
21
-2.17601
0
LINE
8
BLACK
6
CONTINUOUS
10
3.30163
20
-2.17601
11
3.29389
21
-2.1702
0
LINE
8
BLACK
6
CONTINUOUS
10
3.29389
20
-2.1702
11
3.28615
21
-2.16438
0
LINE
8
BLACK
6
CONTINUOUS
10
3.28615
20
-2.16438
11
3.26979
21
-2.15404
0
LINE
8
BLACK
6
CONTINUOUS
10
3.26979
20
-2.15404
11
3.26979
21
-2.15404
0
LINE
8
BLACK
6
CONTINUOUS
10
3.26979
20
-2.15404
11
3.26979
21
-2.15404
0
LINE
8
BLACK
6
CONTINUOUS
10
3.26979
20
-2.15404
11
3.25265
21
-2.14504
0
LINE
8
BLACK
6
CONTINUOUS
10
3.25265
20
-2.14504
11
3.24566
21
-2.14206
0
LINE
8
BLACK
6
CONTINUOUS
10
3.24566
20
-2.14206
11
3.23484
21
-2.13745
0
LINE
8
BLACK
6
CONTINUOUS
10
3.23484
20
-2.13745
11
3.23484
21
-2.13745
0
LINE
8
BLACK
6
CONTINUOUS
10
3.23484
20
-2.13745
11
3.23484
21
-2.13745
0
LINE
8
BLACK
6
CONTINUOUS
10
3.23484
20
-2.13745
11
3.22577
21
-2.13442
0
LINE
8
BLACK
6
CONTINUOUS
10
3.22577
20
-2.13442
11
3.21648
21
-2.13132
0
LINE
8
BLACK
6
CONTINUOUS
10
3.21648
20
-2.13132
11
3.21648
21
-2.13132
0
LINE
8
BLACK
6
CONTINUOUS
10
3.21648
20
-2.13132
11
3.21648
21
-2.13132
0
LINE
8
BLACK
6
CONTINUOUS
10
3.21648
20
-2.13132
11
3.20928
21
-2.12955
0
LINE
8
BLACK
6
CONTINUOUS
10
3.20928
20
-2.12955
11
3.19769
21
-2.12669
0
LINE
8
BLACK
6
CONTINUOUS
10
3.19769
20
-2.12669
11
3.19769
21
-2.12669
0
LINE
8
BLACK
6
CONTINUOUS
10
3.19769
20
-2.12669
11
3.19769
21
-2.12669
0
LINE
8
BLACK
6
CONTINUOUS
10
3.19769
20
-2.12669
11
3.19769
21
-2.12669
0
LINE
8
BLACK
6
CONTINUOUS
10
3.19769
20
-2.12669
11
3.17858
21
-2.12359
0
LINE
8
BLACK
6
CONTINUOUS
10
3.17858
20
-2.12359
11
3.15929
21
-2.12203
0
LINE
8
BLACK
6
CONTINUOUS
10
3.15929
20
-2.12203
11
3.15929
21
-2.12203
0
LINE
8
BLACK
6
CONTINUOUS
10
3.15929
20
-2.12203
11
3.13993
21
-2.12203
0
LINE
8
BLACK
6
CONTINUOUS
10
3.13993
20
-2.12203
11
3.13993
21
-2.12203
0
LINE
8
BLACK
6
CONTINUOUS
10
3.13993
20
-2.12203
11
3.12063
21
-2.12359
0
LINE
8
BLACK
6
CONTINUOUS
10
3.12063
20
-2.12359
11
3.10153
21
-2.12669
0
LINE
8
BLACK
6
CONTINUOUS
10
3.10153
20
-2.12669
11
3.10153
21
-2.12669
0
LINE
8
BLACK
6
CONTINUOUS
10
3.10153
20
-2.12669
11
3.10153
21
-2.12669
0
LINE
8
BLACK
6
CONTINUOUS
10
3.10153
20
-2.12669
11
3.10153
21
-2.12669
0
LINE
8
BLACK
6
CONTINUOUS
10
3.10153
20
-2.12669
11
3.10059
21
-2.12692
0
LINE
8
BLACK
6
CONTINUOUS
10
3.10059
20
-2.12692
11
3.08273
21
-2.13132
0
LINE
8
BLACK
6
CONTINUOUS
10
3.08273
20
-2.13132
11
3.08273
21
-2.13132
0
LINE
8
BLACK
6
CONTINUOUS
10
3.08273
20
-2.13132
11
3.06437
21
-2.13745
0
LINE
8
BLACK
6
CONTINUOUS
10
3.06437
20
-2.13745
11
3.06437
21
-2.13745
0
LINE
8
BLACK
6
CONTINUOUS
10
3.06437
20
-2.13745
11
3.06437
21
-2.13745
0
LINE
8
BLACK
6
CONTINUOUS
10
3.06437
20
-2.13745
11
3.06026
21
-2.1392
0
LINE
8
BLACK
6
CONTINUOUS
10
3.06026
20
-2.1392
11
3.04656
21
-2.14504
0
LINE
8
BLACK
6
CONTINUOUS
10
3.04656
20
-2.14504
11
3.02942
21
-2.15404
0
LINE
8
BLACK
6
CONTINUOUS
10
3.02942
20
-2.15404
11
3.01306
21
-2.16438
0
LINE
8
BLACK
6
CONTINUOUS
10
3.01306
20
-2.16438
11
3.01306
21
-2.16438
0
LINE
8
BLACK
6
CONTINUOUS
10
3.01306
20
-2.16438
11
2.99758
21
-2.17601
0
LINE
8
BLACK
6
CONTINUOUS
10
2.99758
20
-2.17601
11
2.98309
21
-2.18885
0
LINE
8
BLACK
6
CONTINUOUS
10
2.98309
20
-2.18885
11
2.98309
21
-2.18885
0
LINE
8
BLACK
6
CONTINUOUS
10
2.98309
20
-2.18885
11
2.96969
21
-2.20281
0
LINE
8
BLACK
6
CONTINUOUS
10
2.96969
20
-2.20281
11
2.96968
21
-2.20281
0
LINE
8
BLACK
6
CONTINUOUS
10
2.96968
20
-2.20281
11
2.95744
21
-2.2178
0
LINE
8
BLACK
6
CONTINUOUS
10
2.95744
20
-2.2178
11
2.94645
21
-2.23373
0
LINE
8
BLACK
6
CONTINUOUS
10
2.94645
20
-2.23373
11
2.94645
21
-2.23373
0
LINE
8
BLACK
6
CONTINUOUS
10
2.94645
20
-2.23373
11
2.93677
21
-2.2505
0
LINE
8
BLACK
6
CONTINUOUS
10
2.93677
20
-2.2505
11
2.92847
21
-2.26799
0
LINE
8
BLACK
6
CONTINUOUS
10
2.92847
20
-2.26799
11
2.9216
21
-2.28609
0
LINE
8
BLACK
6
CONTINUOUS
10
2.9216
20
-2.28609
11
2.91622
21
-2.30468
0
LINE
8
BLACK
6
CONTINUOUS
10
2.91622
20
-2.30468
11
2.91235
21
-2.32365
0
LINE
8
BLACK
6
CONTINUOUS
10
2.91235
20
-2.32365
11
2.91001
21
-2.34286
0
LINE
8
BLACK
6
CONTINUOUS
10
2.91001
20
-2.34286
11
2.91001
21
-2.34286
0
LINE
8
BLACK
6
CONTINUOUS
10
2.91001
20
-2.34286
11
2.90923
21
-2.3622
0
LINE
8
BLACK
6
CONTINUOUS
10
2.90923
20
-2.3622
11
2.90923
21
-2.36221
0
LINE
8
BLACK
6
CONTINUOUS
10
2.90923
20
-2.36221
11
2.91001
21
-2.38155
0
LINE
8
BLACK
6
CONTINUOUS
10
3.56299
20
-2.22933
11
3.56299
21
-2.18504
0
LINE
8
BLACK
6
CONTINUOUS
10
3.56299
20
-2.18504
11
3.57283
21
-2.18504
0
LINE
8
BLACK
6
CONTINUOUS
10
3.57283
20
-2.18504
11
3.57283
21
-2.16535
0
LINE
8
BLACK
6
CONTINUOUS
10
3.57283
20
-2.16535
11
3.56111
21
-2.16535
0
LINE
8
BLACK
6
CONTINUOUS
10
3.56111
20
-2.16535
11
3.55876
21
-2.16561
0
LINE
8
BLACK
6
CONTINUOUS
10
3.55876
20
-2.16561
11
3.55876
21
-2.16561
0
LINE
8
BLACK
6
CONTINUOUS
10
3.55876
20
-2.16561
11
3.55346
21
-2.16758
0
LINE
8
BLACK
6
CONTINUOUS
10
3.55346
20
-2.16758
11
3.55346
21
-2.16758
0
LINE
8
BLACK
6
CONTINUOUS
10
3.55346
20
-2.16758
11
3.54893
21
-2.17098
0
LINE
8
BLACK
6
CONTINUOUS
10
3.54893
20
-2.17098
11
3.54893
21
-2.17098
0
LINE
8
BLACK
6
CONTINUOUS
10
3.54893
20
-2.17098
11
3.54554
21
-2.17551
0
LINE
8
BLACK
6
CONTINUOUS
10
3.54554
20
-2.17551
11
3.54554
21
-2.17551
0
LINE
8
BLACK
6
CONTINUOUS
10
3.54554
20
-2.17551
11
3.54356
21
-2.18081
0
LINE
8
BLACK
6
CONTINUOUS
10
3.54356
20
-2.18081
11
3.54356
21
-2.18081
0
LINE
8
BLACK
6
CONTINUOUS
10
3.54356
20
-2.18081
11
3.54331
21
-2.18316
0
LINE
8
BLACK
6
CONTINUOUS
10
3.54331
20
-2.18316
11
3.54331
21
-2.22933
0
LINE
8
BLACK
6
CONTINUOUS
10
3.54331
20
-2.22933
11
3.56299
21
-2.22933
0
CIRCLE
8
BLACK
10
3.41732
20
-2.50394
40
0.00787402
0
CIRCLE
8
BLACK
10
2.91339
20
-2.04724
40
0.00787402
0
CIRCLE
8
BLACK
10
3.54048
20
-2.31511
40
0.00787402
0
CIRCLE
8
BLACK
10
2.75873
20
-2.4093
40
0.00787402
0
CIRCLE
8
BLACK
10
2.99495
20
-2.72426
40
0.00787402
0
CIRCLE
8
BLACK
10
3.1967
20
-2.75308
40
0.00787402
0
CIRCLE
8
BLACK
10
3.30426
20
-2.00015
40
0.00787402
0
CIRCLE
8
BLACK
10
2.83465
20
-2.59843
40
0.00787402
0
CIRCLE
8
BLACK
10
3.40157
20
-2.66535
40
0.00787402
0
CIRCLE
8
BLACK
10
2.78755
20
-2.20755
40
0.00787402
0
CIRCLE
8
BLACK
10
3.46457
20
-2.12598
40
0.00787402
0
CIRCLE
8
BLACK
10
3.48425
20
-2.59843
40
0.00787402
0
CIRCLE
8
BLACK
10
3.10251
20
-1.97133
40
0.00787402
0
CIRCLE
8
BLACK
10
3.62205
20
-2.44488
40
0.00787402
0
CIRCLE
8
BLACK
10
3.38189
20
-2.83465
40
0.00787402
0
CIRCLE
8
BLACK
10
3.62205
20
-2.48425
40
0.00787402
0
CIRCLE
8
BLACK
10
3.62205
20
-2.52362
40
0.00787402
0
CIRCLE
8
BLACK
10
3.46063
20
-2.83465
40
0.00787402
0
CIRCLE
8
BLACK
10
3.42126
20
-2.83465
40
0.00787402
0
CIRCLE
8
BLACK
10
3.46102
20
-2.43386
40
0.00787402
  0
ENDSEC
  0
EOF
