  0
SECTION
  2
HEADER
  9
$ANGBASE
  50
0.0
  9
$ANGDIR
  70
1
  9
$MEASUREMENT
  70
0
  0
ENDSEC
  0
SECTION
  2
TABLES
  0
TABLE
  2
LTYPE
  70
4
  0
LTYPE
  5
40F
  2
CONTINUOUS
  70
0
  3
Solid line
  72
65
  73
0
  40
0.0
  0
LTYPE
  5
410
  2
DASHDOT
 70
0
  3
Dash Dot ____ _ ____ _
 72
65
 73
4
 40
2.0
 49
1.25
 49
-0.25
 49
0.25
 49
-0.25
  0
LTYPE
  5
411
  2
DASHED
 70
0
  3
Dashed __ __ __ __ __
 72
65
 73
2
 40
0.75
 49
0.5
 49
-0.25
  0
LTYPE
  5
43B
  2
DOTTED
 70
0
  3
Dotted .  .  .  .
 72
65
 73
2
 40
0.2
 49
0.0
 49
-0.2
  0
ENDTAB
  0
TABLE
  2
STYLE
  70
4
  0
STYLE
  2
KICAD
  70
0
  40
0
  41
1
  42
1
  50
0
  71
0
  3
isocp.shx
  0
STYLE
  2
KICADB
  70
0
  40
0
  41
1
  42
1
  50
0
  71
0
  3
isocp.shx
  0
STYLE
  2
KICADI
  70
0
  40
0
  41
1
  42
1
  50
15
  71
0
  3
isocp.shx
  0
STYLE
  2
KICADBI
  70
0
  40
0
  41
1
  42
1
  50
15
  71
0
  3
isocp.shx
  0
ENDTAB
  0
TABLE
  2
LAYER
  70
1
  0
LAYER
  2
BLACK
  70
0
  62
7
  6
CONTINUOUS
  0
ENDTAB
  0
ENDSEC
  0
SECTION
  2
ENTITIES
0
LINE
8
BLACK
6
CONTINUOUS
10
3.32677
20
-2.82087
11
3.2874
21
-2.82087
0
LINE
8
BLACK
6
CONTINUOUS
10
3.2874
20
-2.82087
11
3.2874
21
-2.7815
0
LINE
8
BLACK
6
CONTINUOUS
10
3.2874
20
-2.7815
11
3.32677
21
-2.7815
0
LINE
8
BLACK
6
CONTINUOUS
10
3.32677
20
-2.7815
11
3.32677
21
-2.82087
0
LINE
8
BLACK
6
CONTINUOUS
10
3.41358
20
-2.87795
11
3.38957
21
-2.87795
0
LINE
8
BLACK
6
CONTINUOUS
10
3.38957
20
-2.87795
11
3.38957
21
-2.79134
0
LINE
8
BLACK
6
CONTINUOUS
10
3.38957
20
-2.79134
11
3.41358
21
-2.79134
0
LINE
8
BLACK
6
CONTINUOUS
10
3.41358
20
-2.79134
11
3.41358
21
-2.87795
0
LINE
8
BLACK
6
CONTINUOUS
10
3.57266
20
-2.85114
11
3.57586
21
-2.85328
0
LINE
8
BLACK
6
CONTINUOUS
10
3.57586
20
-2.85328
11
3.57799
21
-2.85647
0
LINE
8
BLACK
6
CONTINUOUS
10
3.57799
20
-2.85647
11
3.57874
21
-2.86024
0
LINE
8
BLACK
6
CONTINUOUS
10
3.57874
20
-2.86024
11
3.57874
21
-2.89272
0
LINE
8
BLACK
6
CONTINUOUS
10
3.57874
20
-2.89272
11
3.57799
21
-2.89648
0
LINE
8
BLACK
6
CONTINUOUS
10
3.57799
20
-2.89648
11
3.57586
21
-2.89968
0
LINE
8
BLACK
6
CONTINUOUS
10
3.57586
20
-2.89968
11
3.57266
21
-2.90181
0
LINE
8
BLACK
6
CONTINUOUS
10
3.57266
20
-2.90181
11
3.5689
21
-2.90256
0
LINE
8
BLACK
6
CONTINUOUS
10
3.5689
20
-2.90256
11
3.51772
21
-2.90256
0
LINE
8
BLACK
6
CONTINUOUS
10
3.51772
20
-2.90256
11
3.51395
21
-2.90181
0
LINE
8
BLACK
6
CONTINUOUS
10
3.51395
20
-2.90181
11
3.51076
21
-2.89968
0
LINE
8
BLACK
6
CONTINUOUS
10
3.51076
20
-2.89968
11
3.50862
21
-2.89648
0
LINE
8
BLACK
6
CONTINUOUS
10
3.50862
20
-2.89648
11
3.50787
21
-2.89272
0
LINE
8
BLACK
6
CONTINUOUS
10
3.50787
20
-2.89272
11
3.50787
21
-2.86024
0
LINE
8
BLACK
6
CONTINUOUS
10
3.50787
20
-2.86024
11
3.50862
21
-2.85647
0
LINE
8
BLACK
6
CONTINUOUS
10
3.50862
20
-2.85647
11
3.51076
21
-2.85328
0
LINE
8
BLACK
6
CONTINUOUS
10
3.51076
20
-2.85328
11
3.51395
21
-2.85114
0
LINE
8
BLACK
6
CONTINUOUS
10
3.51395
20
-2.85114
11
3.51772
21
-2.85039
0
LINE
8
BLACK
6
CONTINUOUS
10
3.51772
20
-2.85039
11
3.5689
21
-2.85039
0
LINE
8
BLACK
6
CONTINUOUS
10
3.5689
20
-2.85039
11
3.57266
21
-2.85114
0
LINE
8
BLACK
6
CONTINUOUS
10
3.32677
20
-2.8878
11
3.2874
21
-2.8878
0
LINE
8
BLACK
6
CONTINUOUS
10
3.2874
20
-2.8878
11
3.2874
21
-2.84843
0
LINE
8
BLACK
6
CONTINUOUS
10
3.2874
20
-2.84843
11
3.32677
21
-2.84843
0
LINE
8
BLACK
6
CONTINUOUS
10
3.32677
20
-2.84843
11
3.32677
21
-2.8878
0
LINE
8
BLACK
6
CONTINUOUS
10
3.37894
20
-2.86909
11
3.35138
21
-2.86909
0
LINE
8
BLACK
6
CONTINUOUS
10
3.35138
20
-2.86909
11
3.35138
21
-2.85925
0
LINE
8
BLACK
6
CONTINUOUS
10
3.35138
20
-2.85925
11
3.37894
21
-2.85925
0
LINE
8
BLACK
6
CONTINUOUS
10
3.37894
20
-2.85925
11
3.37894
21
-2.86909
0
LINE
8
BLACK
6
CONTINUOUS
10
3.45177
20
-2.86909
11
3.42421
21
-2.86909
0
LINE
8
BLACK
6
CONTINUOUS
10
3.42421
20
-2.86909
11
3.42421
21
-2.85925
0
LINE
8
BLACK
6
CONTINUOUS
10
3.42421
20
-2.85925
11
3.45177
21
-2.85925
0
LINE
8
BLACK
6
CONTINUOUS
10
3.45177
20
-2.85925
11
3.45177
21
-2.86909
0
LINE
8
BLACK
6
CONTINUOUS
10
3.37894
20
-2.84941
11
3.35138
21
-2.84941
0
LINE
8
BLACK
6
CONTINUOUS
10
3.35138
20
-2.84941
11
3.35138
21
-2.83957
0
LINE
8
BLACK
6
CONTINUOUS
10
3.35138
20
-2.83957
11
3.37894
21
-2.83957
0
LINE
8
BLACK
6
CONTINUOUS
10
3.37894
20
-2.83957
11
3.37894
21
-2.84941
0
LINE
8
BLACK
6
CONTINUOUS
10
3.45177
20
-2.84941
11
3.42421
21
-2.84941
0
LINE
8
BLACK
6
CONTINUOUS
10
3.42421
20
-2.84941
11
3.42421
21
-2.83957
0
LINE
8
BLACK
6
CONTINUOUS
10
3.42421
20
-2.83957
11
3.45177
21
-2.83957
0
LINE
8
BLACK
6
CONTINUOUS
10
3.45177
20
-2.83957
11
3.45177
21
-2.84941
0
LINE
8
BLACK
6
CONTINUOUS
10
3.24392
20
-2.70055
11
3.24712
21
-2.70269
0
LINE
8
BLACK
6
CONTINUOUS
10
3.24712
20
-2.70269
11
3.24925
21
-2.70588
0
LINE
8
BLACK
6
CONTINUOUS
10
3.24925
20
-2.70588
11
3.25
21
-2.70965
0
LINE
8
BLACK
6
CONTINUOUS
10
3.25
20
-2.70965
11
3.25
21
-2.74705
0
LINE
8
BLACK
6
CONTINUOUS
10
3.25
20
-2.74705
11
3.24925
21
-2.75081
0
LINE
8
BLACK
6
CONTINUOUS
10
3.24925
20
-2.75081
11
3.24712
21
-2.75401
0
LINE
8
BLACK
6
CONTINUOUS
10
3.24712
20
-2.75401
11
3.24392
21
-2.75614
0
LINE
8
BLACK
6
CONTINUOUS
10
3.24392
20
-2.75614
11
3.24016
21
-2.75689
0
LINE
8
BLACK
6
CONTINUOUS
10
3.24016
20
-2.75689
11
3.21358
21
-2.75689
0
LINE
8
BLACK
6
CONTINUOUS
10
3.21358
20
-2.75689
11
3.20982
21
-2.75614
0
LINE
8
BLACK
6
CONTINUOUS
10
3.20982
20
-2.75614
11
3.20662
21
-2.75401
0
LINE
8
BLACK
6
CONTINUOUS
10
3.20662
20
-2.75401
11
3.20449
21
-2.75081
0
LINE
8
BLACK
6
CONTINUOUS
10
3.20449
20
-2.75081
11
3.20374
21
-2.74705
0
LINE
8
BLACK
6
CONTINUOUS
10
3.20374
20
-2.74705
11
3.20374
21
-2.70965
0
LINE
8
BLACK
6
CONTINUOUS
10
3.20374
20
-2.70965
11
3.20449
21
-2.70588
0
LINE
8
BLACK
6
CONTINUOUS
10
3.20449
20
-2.70588
11
3.20662
21
-2.70269
0
LINE
8
BLACK
6
CONTINUOUS
10
3.20662
20
-2.70269
11
3.20982
21
-2.70055
0
LINE
8
BLACK
6
CONTINUOUS
10
3.20982
20
-2.70055
11
3.21358
21
-2.6998
0
LINE
8
BLACK
6
CONTINUOUS
10
3.21358
20
-2.6998
11
3.24016
21
-2.6998
0
LINE
8
BLACK
6
CONTINUOUS
10
3.24016
20
-2.6998
11
3.24392
21
-2.70055
0
LINE
8
BLACK
6
CONTINUOUS
10
3.32562
20
-2.70055
11
3.32881
21
-2.70269
0
LINE
8
BLACK
6
CONTINUOUS
10
3.32881
20
-2.70269
11
3.33094
21
-2.70588
0
LINE
8
BLACK
6
CONTINUOUS
10
3.33094
20
-2.70588
11
3.33169
21
-2.70965
0
LINE
8
BLACK
6
CONTINUOUS
10
3.33169
20
-2.70965
11
3.33169
21
-2.74705
0
LINE
8
BLACK
6
CONTINUOUS
10
3.33169
20
-2.74705
11
3.33094
21
-2.75081
0
LINE
8
BLACK
6
CONTINUOUS
10
3.33094
20
-2.75081
11
3.32881
21
-2.75401
0
LINE
8
BLACK
6
CONTINUOUS
10
3.32881
20
-2.75401
11
3.32562
21
-2.75614
0
LINE
8
BLACK
6
CONTINUOUS
10
3.32562
20
-2.75614
11
3.32185
21
-2.75689
0
LINE
8
BLACK
6
CONTINUOUS
10
3.32185
20
-2.75689
11
3.29528
21
-2.75689
0
LINE
8
BLACK
6
CONTINUOUS
10
3.29528
20
-2.75689
11
3.29151
21
-2.75614
0
LINE
8
BLACK
6
CONTINUOUS
10
3.29151
20
-2.75614
11
3.28832
21
-2.75401
0
LINE
8
BLACK
6
CONTINUOUS
10
3.28832
20
-2.75401
11
3.28618
21
-2.75081
0
LINE
8
BLACK
6
CONTINUOUS
10
3.28618
20
-2.75081
11
3.28543
21
-2.74705
0
LINE
8
BLACK
6
CONTINUOUS
10
3.28543
20
-2.74705
11
3.28543
21
-2.70965
0
LINE
8
BLACK
6
CONTINUOUS
10
3.28543
20
-2.70965
11
3.28618
21
-2.70588
0
LINE
8
BLACK
6
CONTINUOUS
10
3.28618
20
-2.70588
11
3.28832
21
-2.70269
0
LINE
8
BLACK
6
CONTINUOUS
10
3.28832
20
-2.70269
11
3.29151
21
-2.70055
0
LINE
8
BLACK
6
CONTINUOUS
10
3.29151
20
-2.70055
11
3.29528
21
-2.6998
0
LINE
8
BLACK
6
CONTINUOUS
10
3.29528
20
-2.6998
11
3.32185
21
-2.6998
0
LINE
8
BLACK
6
CONTINUOUS
10
3.32185
20
-2.6998
11
3.32562
21
-2.70055
0
LINE
8
BLACK
6
CONTINUOUS
10
3.68346
20
-2.83543
11
3.64409
21
-2.83543
0
LINE
8
BLACK
6
CONTINUOUS
10
3.64409
20
-2.83543
11
3.64409
21
-2.71732
0
LINE
8
BLACK
6
CONTINUOUS
10
3.64409
20
-2.71732
11
3.68346
21
-2.71732
0
LINE
8
BLACK
6
CONTINUOUS
10
3.68346
20
-2.71732
11
3.68346
21
-2.83543
0
LINE
8
BLACK
6
CONTINUOUS
10
3.78346
20
-2.83543
11
3.74409
21
-2.83543
0
LINE
8
BLACK
6
CONTINUOUS
10
3.74409
20
-2.83543
11
3.74409
21
-2.71732
0
LINE
8
BLACK
6
CONTINUOUS
10
3.74409
20
-2.71732
11
3.78346
21
-2.71732
0
LINE
8
BLACK
6
CONTINUOUS
10
3.78346
20
-2.71732
11
3.78346
21
-2.83543
0
LINE
8
BLACK
6
CONTINUOUS
10
3.88346
20
-2.83543
11
3.84409
21
-2.83543
0
LINE
8
BLACK
6
CONTINUOUS
10
3.84409
20
-2.83543
11
3.84409
21
-2.71732
0
LINE
8
BLACK
6
CONTINUOUS
10
3.84409
20
-2.71732
11
3.88346
21
-2.71732
0
LINE
8
BLACK
6
CONTINUOUS
10
3.88346
20
-2.71732
11
3.88346
21
-2.83543
0
LINE
8
BLACK
6
CONTINUOUS
10
3.37894
20
-2.82972
11
3.35138
21
-2.82972
0
LINE
8
BLACK
6
CONTINUOUS
10
3.35138
20
-2.82972
11
3.35138
21
-2.81988
0
LINE
8
BLACK
6
CONTINUOUS
10
3.35138
20
-2.81988
11
3.37894
21
-2.81988
0
LINE
8
BLACK
6
CONTINUOUS
10
3.37894
20
-2.81988
11
3.37894
21
-2.82972
0
LINE
8
BLACK
6
CONTINUOUS
10
3.45177
20
-2.82972
11
3.42421
21
-2.82972
0
LINE
8
BLACK
6
CONTINUOUS
10
3.42421
20
-2.82972
11
3.42421
21
-2.81988
0
LINE
8
BLACK
6
CONTINUOUS
10
3.42421
20
-2.81988
11
3.45177
21
-2.81988
0
LINE
8
BLACK
6
CONTINUOUS
10
3.45177
20
-2.81988
11
3.45177
21
-2.82972
0
LINE
8
BLACK
6
CONTINUOUS
10
3.37894
20
-2.81004
11
3.35138
21
-2.81004
0
LINE
8
BLACK
6
CONTINUOUS
10
3.35138
20
-2.81004
11
3.35138
21
-2.8002
0
LINE
8
BLACK
6
CONTINUOUS
10
3.35138
20
-2.8002
11
3.37894
21
-2.8002
0
LINE
8
BLACK
6
CONTINUOUS
10
3.37894
20
-2.8002
11
3.37894
21
-2.81004
0
LINE
8
BLACK
6
CONTINUOUS
10
3.45177
20
-2.81004
11
3.42421
21
-2.81004
0
LINE
8
BLACK
6
CONTINUOUS
10
3.42421
20
-2.81004
11
3.42421
21
-2.8002
0
LINE
8
BLACK
6
CONTINUOUS
10
3.42421
20
-2.8002
11
3.45177
21
-2.8002
0
LINE
8
BLACK
6
CONTINUOUS
10
3.45177
20
-2.8002
11
3.45177
21
-2.81004
0
LINE
8
BLACK
6
CONTINUOUS
10
3.57266
20
-2.72811
11
3.57586
21
-2.73025
0
LINE
8
BLACK
6
CONTINUOUS
10
3.57586
20
-2.73025
11
3.57799
21
-2.73344
0
LINE
8
BLACK
6
CONTINUOUS
10
3.57799
20
-2.73344
11
3.57874
21
-2.7372
0
LINE
8
BLACK
6
CONTINUOUS
10
3.57874
20
-2.7372
11
3.57874
21
-2.76969
0
LINE
8
BLACK
6
CONTINUOUS
10
3.57874
20
-2.76969
11
3.57799
21
-2.77345
0
LINE
8
BLACK
6
CONTINUOUS
10
3.57799
20
-2.77345
11
3.57586
21
-2.77664
0
LINE
8
BLACK
6
CONTINUOUS
10
3.57586
20
-2.77664
11
3.57266
21
-2.77878
0
LINE
8
BLACK
6
CONTINUOUS
10
3.57266
20
-2.77878
11
3.5689
21
-2.77953
0
LINE
8
BLACK
6
CONTINUOUS
10
3.5689
20
-2.77953
11
3.51772
21
-2.77953
0
LINE
8
BLACK
6
CONTINUOUS
10
3.51772
20
-2.77953
11
3.51395
21
-2.77878
0
LINE
8
BLACK
6
CONTINUOUS
10
3.51395
20
-2.77878
11
3.51076
21
-2.77664
0
LINE
8
BLACK
6
CONTINUOUS
10
3.51076
20
-2.77664
11
3.50862
21
-2.77345
0
LINE
8
BLACK
6
CONTINUOUS
10
3.50862
20
-2.77345
11
3.50787
21
-2.76969
0
LINE
8
BLACK
6
CONTINUOUS
10
3.50787
20
-2.76969
11
3.50787
21
-2.7372
0
LINE
8
BLACK
6
CONTINUOUS
10
3.50787
20
-2.7372
11
3.50862
21
-2.73344
0
LINE
8
BLACK
6
CONTINUOUS
10
3.50862
20
-2.73344
11
3.51076
21
-2.73025
0
LINE
8
BLACK
6
CONTINUOUS
10
3.51076
20
-2.73025
11
3.51395
21
-2.72811
0
LINE
8
BLACK
6
CONTINUOUS
10
3.51395
20
-2.72811
11
3.51772
21
-2.72736
0
LINE
8
BLACK
6
CONTINUOUS
10
3.51772
20
-2.72736
11
3.5689
21
-2.72736
0
LINE
8
BLACK
6
CONTINUOUS
10
3.5689
20
-2.72736
11
3.57266
21
-2.72811
0
LINE
8
BLACK
6
CONTINUOUS
10
3.45276
20
-2.57854
11
3.4529
21
-2.5786
0
LINE
8
BLACK
6
CONTINUOUS
10
3.4529
20
-2.5786
11
3.45295
21
-2.57874
0
LINE
8
BLACK
6
CONTINUOUS
10
3.45295
20
-2.57874
11
3.45295
21
-2.66535
0
LINE
8
BLACK
6
CONTINUOUS
10
3.45295
20
-2.66535
11
3.4529
21
-2.66549
0
LINE
8
BLACK
6
CONTINUOUS
10
3.4529
20
-2.66549
11
3.45276
21
-2.66555
0
LINE
8
BLACK
6
CONTINUOUS
10
3.45276
20
-2.66555
11
3.40551
21
-2.66555
0
LINE
8
BLACK
6
CONTINUOUS
10
3.40551
20
-2.66555
11
3.40537
21
-2.66549
0
LINE
8
BLACK
6
CONTINUOUS
10
3.40537
20
-2.66549
11
3.40531
21
-2.66535
0
LINE
8
BLACK
6
CONTINUOUS
10
3.40531
20
-2.66535
11
3.40531
21
-2.64587
0
LINE
8
BLACK
6
CONTINUOUS
10
3.40531
20
-2.64587
11
3.3622
21
-2.64587
0
LINE
8
BLACK
6
CONTINUOUS
10
3.3622
20
-2.64587
11
3.36207
21
-2.64581
0
LINE
8
BLACK
6
CONTINUOUS
10
3.36207
20
-2.64581
11
3.36201
21
-2.64567
0
LINE
8
BLACK
6
CONTINUOUS
10
3.36201
20
-2.64567
11
3.36201
21
-2.59843
0
LINE
8
BLACK
6
CONTINUOUS
10
3.36201
20
-2.59843
11
3.36207
21
-2.59829
0
LINE
8
BLACK
6
CONTINUOUS
10
3.36207
20
-2.59829
11
3.3622
21
-2.59823
0
LINE
8
BLACK
6
CONTINUOUS
10
3.3622
20
-2.59823
11
3.40531
21
-2.59823
0
LINE
8
BLACK
6
CONTINUOUS
10
3.40531
20
-2.59823
11
3.40531
21
-2.57874
0
LINE
8
BLACK
6
CONTINUOUS
10
3.40531
20
-2.57874
11
3.40537
21
-2.5786
0
LINE
8
BLACK
6
CONTINUOUS
10
3.40537
20
-2.5786
11
3.40551
21
-2.57854
0
LINE
8
BLACK
6
CONTINUOUS
10
3.40551
20
-2.57854
11
3.45276
21
-2.57854
0
LINE
8
BLACK
6
CONTINUOUS
10
3.54331
20
-2.57854
11
3.54345
21
-2.5786
0
LINE
8
BLACK
6
CONTINUOUS
10
3.54345
20
-2.5786
11
3.5435
21
-2.57874
0
LINE
8
BLACK
6
CONTINUOUS
10
3.5435
20
-2.57874
11
3.5435
21
-2.59823
0
LINE
8
BLACK
6
CONTINUOUS
10
3.5435
20
-2.59823
11
3.58661
21
-2.59823
0
LINE
8
BLACK
6
CONTINUOUS
10
3.58661
20
-2.59823
11
3.58675
21
-2.59829
0
LINE
8
BLACK
6
CONTINUOUS
10
3.58675
20
-2.59829
11
3.58681
21
-2.59843
0
LINE
8
BLACK
6
CONTINUOUS
10
3.58681
20
-2.59843
11
3.58681
21
-2.64567
0
LINE
8
BLACK
6
CONTINUOUS
10
3.58681
20
-2.64567
11
3.58675
21
-2.64581
0
LINE
8
BLACK
6
CONTINUOUS
10
3.58675
20
-2.64581
11
3.58661
21
-2.64587
0
LINE
8
BLACK
6
CONTINUOUS
10
3.58661
20
-2.64587
11
3.5435
21
-2.64587
0
LINE
8
BLACK
6
CONTINUOUS
10
3.5435
20
-2.64587
11
3.5435
21
-2.66535
0
LINE
8
BLACK
6
CONTINUOUS
10
3.5435
20
-2.66535
11
3.54345
21
-2.66549
0
LINE
8
BLACK
6
CONTINUOUS
10
3.54345
20
-2.66549
11
3.54331
21
-2.66555
0
LINE
8
BLACK
6
CONTINUOUS
10
3.54331
20
-2.66555
11
3.49606
21
-2.66555
0
LINE
8
BLACK
6
CONTINUOUS
10
3.49606
20
-2.66555
11
3.49592
21
-2.66549
0
LINE
8
BLACK
6
CONTINUOUS
10
3.49592
20
-2.66549
11
3.49587
21
-2.66535
0
LINE
8
BLACK
6
CONTINUOUS
10
3.49587
20
-2.66535
11
3.49587
21
-2.57874
0
LINE
8
BLACK
6
CONTINUOUS
10
3.49587
20
-2.57874
11
3.49592
21
-2.5786
0
LINE
8
BLACK
6
CONTINUOUS
10
3.49592
20
-2.5786
11
3.49606
21
-2.57854
0
LINE
8
BLACK
6
CONTINUOUS
10
3.49606
20
-2.57854
11
3.54331
21
-2.57854
0
LINE
8
BLACK
6
CONTINUOUS
10
3.68346
20
-2.63701
11
3.64409
21
-2.63701
0
LINE
8
BLACK
6
CONTINUOUS
10
3.64409
20
-2.63701
11
3.64409
21
-2.5189
0
LINE
8
BLACK
6
CONTINUOUS
10
3.64409
20
-2.5189
11
3.68346
21
-2.5189
0
LINE
8
BLACK
6
CONTINUOUS
10
3.68346
20
-2.5189
11
3.68346
21
-2.63701
0
LINE
8
BLACK
6
CONTINUOUS
10
3.78346
20
-2.63701
11
3.74409
21
-2.63701
0
LINE
8
BLACK
6
CONTINUOUS
10
3.74409
20
-2.63701
11
3.74409
21
-2.5189
0
LINE
8
BLACK
6
CONTINUOUS
10
3.74409
20
-2.5189
11
3.78346
21
-2.5189
0
LINE
8
BLACK
6
CONTINUOUS
10
3.78346
20
-2.5189
11
3.78346
21
-2.63701
0
LINE
8
BLACK
6
CONTINUOUS
10
3.88346
20
-2.63701
11
3.84409
21
-2.63701
0
LINE
8
BLACK
6
CONTINUOUS
10
3.84409
20
-2.63701
11
3.84409
21
-2.5189
0
LINE
8
BLACK
6
CONTINUOUS
10
3.84409
20
-2.5189
11
3.88346
21
-2.5189
0
LINE
8
BLACK
6
CONTINUOUS
10
3.88346
20
-2.5189
11
3.88346
21
-2.63701
0
LINE
8
BLACK
6
CONTINUOUS
10
3.5766
20
-2.31177
11
3.57979
21
-2.31391
0
LINE
8
BLACK
6
CONTINUOUS
10
3.57979
20
-2.31391
11
3.58193
21
-2.3171
0
LINE
8
BLACK
6
CONTINUOUS
10
3.58193
20
-2.3171
11
3.58268
21
-2.32087
0
LINE
8
BLACK
6
CONTINUOUS
10
3.58268
20
-2.32087
11
3.58268
21
-2.37205
0
LINE
8
BLACK
6
CONTINUOUS
10
3.58268
20
-2.37205
11
3.58193
21
-2.37581
0
LINE
8
BLACK
6
CONTINUOUS
10
3.58193
20
-2.37581
11
3.57979
21
-2.37901
0
LINE
8
BLACK
6
CONTINUOUS
10
3.57979
20
-2.37901
11
3.5766
21
-2.38114
0
LINE
8
BLACK
6
CONTINUOUS
10
3.5766
20
-2.38114
11
3.57283
21
-2.38189
0
LINE
8
BLACK
6
CONTINUOUS
10
3.57283
20
-2.38189
11
3.54035
21
-2.38189
0
LINE
8
BLACK
6
CONTINUOUS
10
3.54035
20
-2.38189
11
3.53659
21
-2.38114
0
LINE
8
BLACK
6
CONTINUOUS
10
3.53659
20
-2.38114
11
3.53339
21
-2.37901
0
LINE
8
BLACK
6
CONTINUOUS
10
3.53339
20
-2.37901
11
3.53126
21
-2.37581
0
LINE
8
BLACK
6
CONTINUOUS
10
3.53126
20
-2.37581
11
3.53051
21
-2.37205
0
LINE
8
BLACK
6
CONTINUOUS
10
3.53051
20
-2.37205
11
3.53051
21
-2.32087
0
LINE
8
BLACK
6
CONTINUOUS
10
3.53051
20
-2.32087
11
3.53126
21
-2.3171
0
LINE
8
BLACK
6
CONTINUOUS
10
3.53126
20
-2.3171
11
3.53339
21
-2.31391
0
LINE
8
BLACK
6
CONTINUOUS
10
3.53339
20
-2.31391
11
3.53659
21
-2.31177
0
LINE
8
BLACK
6
CONTINUOUS
10
3.53659
20
-2.31177
11
3.54035
21
-2.31102
0
LINE
8
BLACK
6
CONTINUOUS
10
3.54035
20
-2.31102
11
3.57283
21
-2.31102
0
LINE
8
BLACK
6
CONTINUOUS
10
3.57283
20
-2.31102
11
3.5766
21
-2.31177
0
LINE
8
BLACK
6
CONTINUOUS
10
3.69963
20
-2.31177
11
3.70283
21
-2.31391
0
LINE
8
BLACK
6
CONTINUOUS
10
3.70283
20
-2.31391
11
3.70496
21
-2.3171
0
LINE
8
BLACK
6
CONTINUOUS
10
3.70496
20
-2.3171
11
3.70571
21
-2.32087
0
LINE
8
BLACK
6
CONTINUOUS
10
3.70571
20
-2.32087
11
3.70571
21
-2.37205
0
LINE
8
BLACK
6
CONTINUOUS
10
3.70571
20
-2.37205
11
3.70496
21
-2.37581
0
LINE
8
BLACK
6
CONTINUOUS
10
3.70496
20
-2.37581
11
3.70283
21
-2.37901
0
LINE
8
BLACK
6
CONTINUOUS
10
3.70283
20
-2.37901
11
3.69963
21
-2.38114
0
LINE
8
BLACK
6
CONTINUOUS
10
3.69963
20
-2.38114
11
3.69587
21
-2.38189
0
LINE
8
BLACK
6
CONTINUOUS
10
3.69587
20
-2.38189
11
3.66339
21
-2.38189
0
LINE
8
BLACK
6
CONTINUOUS
10
3.66339
20
-2.38189
11
3.65962
21
-2.38114
0
LINE
8
BLACK
6
CONTINUOUS
10
3.65962
20
-2.38114
11
3.65643
21
-2.37901
0
LINE
8
BLACK
6
CONTINUOUS
10
3.65643
20
-2.37901
11
3.65429
21
-2.37581
0
LINE
8
BLACK
6
CONTINUOUS
10
3.65429
20
-2.37581
11
3.65354
21
-2.37205
0
LINE
8
BLACK
6
CONTINUOUS
10
3.65354
20
-2.37205
11
3.65354
21
-2.32087
0
LINE
8
BLACK
6
CONTINUOUS
10
3.65354
20
-2.32087
11
3.65429
21
-2.3171
0
LINE
8
BLACK
6
CONTINUOUS
10
3.65429
20
-2.3171
11
3.65643
21
-2.31391
0
LINE
8
BLACK
6
CONTINUOUS
10
3.65643
20
-2.31391
11
3.65962
21
-2.31177
0
LINE
8
BLACK
6
CONTINUOUS
10
3.65962
20
-2.31177
11
3.66339
21
-2.31102
0
LINE
8
BLACK
6
CONTINUOUS
10
3.66339
20
-2.31102
11
3.69587
21
-2.31102
0
LINE
8
BLACK
6
CONTINUOUS
10
3.69587
20
-2.31102
11
3.69963
21
-2.31177
0
LINE
8
BLACK
6
CONTINUOUS
10
3.87286
20
-2.28225
11
3.87605
21
-2.28438
0
LINE
8
BLACK
6
CONTINUOUS
10
3.87605
20
-2.28438
11
3.87819
21
-2.28757
0
LINE
8
BLACK
6
CONTINUOUS
10
3.87819
20
-2.28757
11
3.87894
21
-2.29134
0
LINE
8
BLACK
6
CONTINUOUS
10
3.87894
20
-2.29134
11
3.87894
21
-2.31791
0
LINE
8
BLACK
6
CONTINUOUS
10
3.87894
20
-2.31791
11
3.87819
21
-2.32168
0
LINE
8
BLACK
6
CONTINUOUS
10
3.87819
20
-2.32168
11
3.87605
21
-2.32487
0
LINE
8
BLACK
6
CONTINUOUS
10
3.87605
20
-2.32487
11
3.87286
21
-2.32701
0
LINE
8
BLACK
6
CONTINUOUS
10
3.87286
20
-2.32701
11
3.86909
21
-2.32776
0
LINE
8
BLACK
6
CONTINUOUS
10
3.86909
20
-2.32776
11
3.83169
21
-2.32776
0
LINE
8
BLACK
6
CONTINUOUS
10
3.83169
20
-2.32776
11
3.82793
21
-2.32701
0
LINE
8
BLACK
6
CONTINUOUS
10
3.82793
20
-2.32701
11
3.82473
21
-2.32487
0
LINE
8
BLACK
6
CONTINUOUS
10
3.82473
20
-2.32487
11
3.8226
21
-2.32168
0
LINE
8
BLACK
6
CONTINUOUS
10
3.8226
20
-2.32168
11
3.82185
21
-2.31791
0
LINE
8
BLACK
6
CONTINUOUS
10
3.82185
20
-2.31791
11
3.82185
21
-2.29134
0
LINE
8
BLACK
6
CONTINUOUS
10
3.82185
20
-2.29134
11
3.8226
21
-2.28757
0
LINE
8
BLACK
6
CONTINUOUS
10
3.8226
20
-2.28757
11
3.82473
21
-2.28438
0
LINE
8
BLACK
6
CONTINUOUS
10
3.82473
20
-2.28438
11
3.82793
21
-2.28225
0
LINE
8
BLACK
6
CONTINUOUS
10
3.82793
20
-2.28225
11
3.83169
21
-2.2815
0
LINE
8
BLACK
6
CONTINUOUS
10
3.83169
20
-2.2815
11
3.86909
21
-2.2815
0
LINE
8
BLACK
6
CONTINUOUS
10
3.86909
20
-2.2815
11
3.87286
21
-2.28225
0
LINE
8
BLACK
6
CONTINUOUS
10
3.87286
20
-2.20055
11
3.87605
21
-2.20269
0
LINE
8
BLACK
6
CONTINUOUS
10
3.87605
20
-2.20269
11
3.87819
21
-2.20588
0
LINE
8
BLACK
6
CONTINUOUS
10
3.87819
20
-2.20588
11
3.87894
21
-2.20965
0
LINE
8
BLACK
6
CONTINUOUS
10
3.87894
20
-2.20965
11
3.87894
21
-2.23622
0
LINE
8
BLACK
6
CONTINUOUS
10
3.87894
20
-2.23622
11
3.87819
21
-2.23999
0
LINE
8
BLACK
6
CONTINUOUS
10
3.87819
20
-2.23999
11
3.87605
21
-2.24318
0
LINE
8
BLACK
6
CONTINUOUS
10
3.87605
20
-2.24318
11
3.87286
21
-2.24531
0
LINE
8
BLACK
6
CONTINUOUS
10
3.87286
20
-2.24531
11
3.86909
21
-2.24606
0
LINE
8
BLACK
6
CONTINUOUS
10
3.86909
20
-2.24606
11
3.83169
21
-2.24606
0
LINE
8
BLACK
6
CONTINUOUS
10
3.83169
20
-2.24606
11
3.82793
21
-2.24531
0
LINE
8
BLACK
6
CONTINUOUS
10
3.82793
20
-2.24531
11
3.82473
21
-2.24318
0
LINE
8
BLACK
6
CONTINUOUS
10
3.82473
20
-2.24318
11
3.8226
21
-2.23999
0
LINE
8
BLACK
6
CONTINUOUS
10
3.8226
20
-2.23999
11
3.82185
21
-2.23622
0
LINE
8
BLACK
6
CONTINUOUS
10
3.82185
20
-2.23622
11
3.82185
21
-2.20965
0
LINE
8
BLACK
6
CONTINUOUS
10
3.82185
20
-2.20965
11
3.8226
21
-2.20588
0
LINE
8
BLACK
6
CONTINUOUS
10
3.8226
20
-2.20588
11
3.82473
21
-2.20269
0
LINE
8
BLACK
6
CONTINUOUS
10
3.82473
20
-2.20269
11
3.82793
21
-2.20055
0
LINE
8
BLACK
6
CONTINUOUS
10
3.82793
20
-2.20055
11
3.83169
21
-2.1998
0
LINE
8
BLACK
6
CONTINUOUS
10
3.83169
20
-2.1998
11
3.86909
21
-2.1998
0
LINE
8
BLACK
6
CONTINUOUS
10
3.86909
20
-2.1998
11
3.87286
21
-2.20055
0
LINE
8
BLACK
6
CONTINUOUS
10
3.67352
20
-2.14238
11
3.67544
21
-2.14366
0
LINE
8
BLACK
6
CONTINUOUS
10
3.67544
20
-2.14366
11
3.67672
21
-2.14557
0
LINE
8
BLACK
6
CONTINUOUS
10
3.67672
20
-2.14557
11
3.67717
21
-2.14783
0
LINE
8
BLACK
6
CONTINUOUS
10
3.67717
20
-2.14783
11
3.67717
21
-2.15965
0
LINE
8
BLACK
6
CONTINUOUS
10
3.67717
20
-2.15965
11
3.67672
21
-2.16191
0
LINE
8
BLACK
6
CONTINUOUS
10
3.67672
20
-2.16191
11
3.67544
21
-2.16382
0
LINE
8
BLACK
6
CONTINUOUS
10
3.67544
20
-2.16382
11
3.67352
21
-2.1651
0
LINE
8
BLACK
6
CONTINUOUS
10
3.67352
20
-2.1651
11
3.67126
21
-2.16555
0
LINE
8
BLACK
6
CONTINUOUS
10
3.67126
20
-2.16555
11
3.6063
21
-2.16555
0
LINE
8
BLACK
6
CONTINUOUS
10
3.6063
20
-2.16555
11
3.60404
21
-2.1651
0
LINE
8
BLACK
6
CONTINUOUS
10
3.60404
20
-2.1651
11
3.60212
21
-2.16382
0
LINE
8
BLACK
6
CONTINUOUS
10
3.60212
20
-2.16382
11
3.60084
21
-2.16191
0
LINE
8
BLACK
6
CONTINUOUS
10
3.60084
20
-2.16191
11
3.60039
21
-2.15965
0
LINE
8
BLACK
6
CONTINUOUS
10
3.60039
20
-2.15965
11
3.60039
21
-2.14783
0
LINE
8
BLACK
6
CONTINUOUS
10
3.60039
20
-2.14783
11
3.60084
21
-2.14557
0
LINE
8
BLACK
6
CONTINUOUS
10
3.60084
20
-2.14557
11
3.60212
21
-2.14366
0
LINE
8
BLACK
6
CONTINUOUS
10
3.60212
20
-2.14366
11
3.60404
21
-2.14238
0
LINE
8
BLACK
6
CONTINUOUS
10
3.60404
20
-2.14238
11
3.6063
21
-2.14193
0
LINE
8
BLACK
6
CONTINUOUS
10
3.6063
20
-2.14193
11
3.67126
21
-2.14193
0
LINE
8
BLACK
6
CONTINUOUS
10
3.67126
20
-2.14193
11
3.67352
21
-2.14238
0
LINE
8
BLACK
6
CONTINUOUS
10
3.8684
20
-2.14238
11
3.87032
21
-2.14366
0
LINE
8
BLACK
6
CONTINUOUS
10
3.87032
20
-2.14366
11
3.8716
21
-2.14557
0
LINE
8
BLACK
6
CONTINUOUS
10
3.8716
20
-2.14557
11
3.87205
21
-2.14783
0
LINE
8
BLACK
6
CONTINUOUS
10
3.87205
20
-2.14783
11
3.87205
21
-2.15965
0
LINE
8
BLACK
6
CONTINUOUS
10
3.87205
20
-2.15965
11
3.8716
21
-2.16191
0
LINE
8
BLACK
6
CONTINUOUS
10
3.8716
20
-2.16191
11
3.87032
21
-2.16382
0
LINE
8
BLACK
6
CONTINUOUS
10
3.87032
20
-2.16382
11
3.8684
21
-2.1651
0
LINE
8
BLACK
6
CONTINUOUS
10
3.8684
20
-2.1651
11
3.86614
21
-2.16555
0
LINE
8
BLACK
6
CONTINUOUS
10
3.86614
20
-2.16555
11
3.80118
21
-2.16555
0
LINE
8
BLACK
6
CONTINUOUS
10
3.80118
20
-2.16555
11
3.79892
21
-2.1651
0
LINE
8
BLACK
6
CONTINUOUS
10
3.79892
20
-2.1651
11
3.79701
21
-2.16382
0
LINE
8
BLACK
6
CONTINUOUS
10
3.79701
20
-2.16382
11
3.79573
21
-2.16191
0
LINE
8
BLACK
6
CONTINUOUS
10
3.79573
20
-2.16191
11
3.79528
21
-2.15965
0
LINE
8
BLACK
6
CONTINUOUS
10
3.79528
20
-2.15965
11
3.79528
21
-2.14783
0
LINE
8
BLACK
6
CONTINUOUS
10
3.79528
20
-2.14783
11
3.79573
21
-2.14557
0
LINE
8
BLACK
6
CONTINUOUS
10
3.79573
20
-2.14557
11
3.79701
21
-2.14366
0
LINE
8
BLACK
6
CONTINUOUS
10
3.79701
20
-2.14366
11
3.79892
21
-2.14238
0
LINE
8
BLACK
6
CONTINUOUS
10
3.79892
20
-2.14238
11
3.80118
21
-2.14193
0
LINE
8
BLACK
6
CONTINUOUS
10
3.80118
20
-2.14193
11
3.86614
21
-2.14193
0
LINE
8
BLACK
6
CONTINUOUS
10
3.86614
20
-2.14193
11
3.8684
21
-2.14238
0
LINE
8
BLACK
6
CONTINUOUS
10
3.94882
20
-2.12402
11
3.90945
21
-2.12402
0
LINE
8
BLACK
6
CONTINUOUS
10
3.90945
20
-2.12402
11
3.90945
21
-2.08465
0
LINE
8
BLACK
6
CONTINUOUS
10
3.90945
20
-2.08465
11
3.94882
21
-2.08465
0
LINE
8
BLACK
6
CONTINUOUS
10
3.94882
20
-2.08465
11
3.94882
21
-2.12402
0
LINE
8
BLACK
6
CONTINUOUS
10
3.67352
20
-2.09238
11
3.67544
21
-2.09366
0
LINE
8
BLACK
6
CONTINUOUS
10
3.67544
20
-2.09366
11
3.67672
21
-2.09557
0
LINE
8
BLACK
6
CONTINUOUS
10
3.67672
20
-2.09557
11
3.67717
21
-2.09783
0
LINE
8
BLACK
6
CONTINUOUS
10
3.67717
20
-2.09783
11
3.67717
21
-2.10965
0
LINE
8
BLACK
6
CONTINUOUS
10
3.67717
20
-2.10965
11
3.67672
21
-2.11191
0
LINE
8
BLACK
6
CONTINUOUS
10
3.67672
20
-2.11191
11
3.67544
21
-2.11382
0
LINE
8
BLACK
6
CONTINUOUS
10
3.67544
20
-2.11382
11
3.67352
21
-2.1151
0
LINE
8
BLACK
6
CONTINUOUS
10
3.67352
20
-2.1151
11
3.67126
21
-2.11555
0
LINE
8
BLACK
6
CONTINUOUS
10
3.67126
20
-2.11555
11
3.6063
21
-2.11555
0
LINE
8
BLACK
6
CONTINUOUS
10
3.6063
20
-2.11555
11
3.60404
21
-2.1151
0
LINE
8
BLACK
6
CONTINUOUS
10
3.60404
20
-2.1151
11
3.60212
21
-2.11382
0
LINE
8
BLACK
6
CONTINUOUS
10
3.60212
20
-2.11382
11
3.60084
21
-2.11191
0
LINE
8
BLACK
6
CONTINUOUS
10
3.60084
20
-2.11191
11
3.60039
21
-2.10965
0
LINE
8
BLACK
6
CONTINUOUS
10
3.60039
20
-2.10965
11
3.60039
21
-2.09783
0
LINE
8
BLACK
6
CONTINUOUS
10
3.60039
20
-2.09783
11
3.60084
21
-2.09557
0
LINE
8
BLACK
6
CONTINUOUS
10
3.60084
20
-2.09557
11
3.60212
21
-2.09366
0
LINE
8
BLACK
6
CONTINUOUS
10
3.60212
20
-2.09366
11
3.60404
21
-2.09238
0
LINE
8
BLACK
6
CONTINUOUS
10
3.60404
20
-2.09238
11
3.6063
21
-2.09193
0
LINE
8
BLACK
6
CONTINUOUS
10
3.6063
20
-2.09193
11
3.67126
21
-2.09193
0
LINE
8
BLACK
6
CONTINUOUS
10
3.67126
20
-2.09193
11
3.67352
21
-2.09238
0
LINE
8
BLACK
6
CONTINUOUS
10
3.8684
20
-2.09238
11
3.87032
21
-2.09366
0
LINE
8
BLACK
6
CONTINUOUS
10
3.87032
20
-2.09366
11
3.8716
21
-2.09557
0
LINE
8
BLACK
6
CONTINUOUS
10
3.8716
20
-2.09557
11
3.87205
21
-2.09783
0
LINE
8
BLACK
6
CONTINUOUS
10
3.87205
20
-2.09783
11
3.87205
21
-2.10965
0
LINE
8
BLACK
6
CONTINUOUS
10
3.87205
20
-2.10965
11
3.8716
21
-2.11191
0
LINE
8
BLACK
6
CONTINUOUS
10
3.8716
20
-2.11191
11
3.87032
21
-2.11382
0
LINE
8
BLACK
6
CONTINUOUS
10
3.87032
20
-2.11382
11
3.8684
21
-2.1151
0
LINE
8
BLACK
6
CONTINUOUS
10
3.8684
20
-2.1151
11
3.86614
21
-2.11555
0
LINE
8
BLACK
6
CONTINUOUS
10
3.86614
20
-2.11555
11
3.80118
21
-2.11555
0
LINE
8
BLACK
6
CONTINUOUS
10
3.80118
20
-2.11555
11
3.79892
21
-2.1151
0
LINE
8
BLACK
6
CONTINUOUS
10
3.79892
20
-2.1151
11
3.79701
21
-2.11382
0
LINE
8
BLACK
6
CONTINUOUS
10
3.79701
20
-2.11382
11
3.79573
21
-2.11191
0
LINE
8
BLACK
6
CONTINUOUS
10
3.79573
20
-2.11191
11
3.79528
21
-2.10965
0
LINE
8
BLACK
6
CONTINUOUS
10
3.79528
20
-2.10965
11
3.79528
21
-2.09783
0
LINE
8
BLACK
6
CONTINUOUS
10
3.79528
20
-2.09783
11
3.79573
21
-2.09557
0
LINE
8
BLACK
6
CONTINUOUS
10
3.79573
20
-2.09557
11
3.79701
21
-2.09366
0
LINE
8
BLACK
6
CONTINUOUS
10
3.79701
20
-2.09366
11
3.79892
21
-2.09238
0
LINE
8
BLACK
6
CONTINUOUS
10
3.79892
20
-2.09238
11
3.80118
21
-2.09193
0
LINE
8
BLACK
6
CONTINUOUS
10
3.80118
20
-2.09193
11
3.86614
21
-2.09193
0
LINE
8
BLACK
6
CONTINUOUS
10
3.86614
20
-2.09193
11
3.8684
21
-2.09238
0
LINE
8
BLACK
6
CONTINUOUS
10
3.67352
20
-2.04238
11
3.67544
21
-2.04366
0
LINE
8
BLACK
6
CONTINUOUS
10
3.67544
20
-2.04366
11
3.67672
21
-2.04557
0
LINE
8
BLACK
6
CONTINUOUS
10
3.67672
20
-2.04557
11
3.67717
21
-2.04783
0
LINE
8
BLACK
6
CONTINUOUS
10
3.67717
20
-2.04783
11
3.67717
21
-2.05965
0
LINE
8
BLACK
6
CONTINUOUS
10
3.67717
20
-2.05965
11
3.67672
21
-2.06191
0
LINE
8
BLACK
6
CONTINUOUS
10
3.67672
20
-2.06191
11
3.67544
21
-2.06382
0
LINE
8
BLACK
6
CONTINUOUS
10
3.67544
20
-2.06382
11
3.67352
21
-2.0651
0
LINE
8
BLACK
6
CONTINUOUS
10
3.67352
20
-2.0651
11
3.67126
21
-2.06555
0
LINE
8
BLACK
6
CONTINUOUS
10
3.67126
20
-2.06555
11
3.6063
21
-2.06555
0
LINE
8
BLACK
6
CONTINUOUS
10
3.6063
20
-2.06555
11
3.60404
21
-2.0651
0
LINE
8
BLACK
6
CONTINUOUS
10
3.60404
20
-2.0651
11
3.60212
21
-2.06382
0
LINE
8
BLACK
6
CONTINUOUS
10
3.60212
20
-2.06382
11
3.60084
21
-2.06191
0
LINE
8
BLACK
6
CONTINUOUS
10
3.60084
20
-2.06191
11
3.60039
21
-2.05965
0
LINE
8
BLACK
6
CONTINUOUS
10
3.60039
20
-2.05965
11
3.60039
21
-2.04783
0
LINE
8
BLACK
6
CONTINUOUS
10
3.60039
20
-2.04783
11
3.60084
21
-2.04557
0
LINE
8
BLACK
6
CONTINUOUS
10
3.60084
20
-2.04557
11
3.60212
21
-2.04366
0
LINE
8
BLACK
6
CONTINUOUS
10
3.60212
20
-2.04366
11
3.60404
21
-2.04238
0
LINE
8
BLACK
6
CONTINUOUS
10
3.60404
20
-2.04238
11
3.6063
21
-2.04193
0
LINE
8
BLACK
6
CONTINUOUS
10
3.6063
20
-2.04193
11
3.67126
21
-2.04193
0
LINE
8
BLACK
6
CONTINUOUS
10
3.67126
20
-2.04193
11
3.67352
21
-2.04238
0
LINE
8
BLACK
6
CONTINUOUS
10
3.8684
20
-2.04238
11
3.87032
21
-2.04366
0
LINE
8
BLACK
6
CONTINUOUS
10
3.87032
20
-2.04366
11
3.8716
21
-2.04557
0
LINE
8
BLACK
6
CONTINUOUS
10
3.8716
20
-2.04557
11
3.87205
21
-2.04783
0
LINE
8
BLACK
6
CONTINUOUS
10
3.87205
20
-2.04783
11
3.87205
21
-2.05965
0
LINE
8
BLACK
6
CONTINUOUS
10
3.87205
20
-2.05965
11
3.8716
21
-2.06191
0
LINE
8
BLACK
6
CONTINUOUS
10
3.8716
20
-2.06191
11
3.87032
21
-2.06382
0
LINE
8
BLACK
6
CONTINUOUS
10
3.87032
20
-2.06382
11
3.8684
21
-2.0651
0
LINE
8
BLACK
6
CONTINUOUS
10
3.8684
20
-2.0651
11
3.86614
21
-2.06555
0
LINE
8
BLACK
6
CONTINUOUS
10
3.86614
20
-2.06555
11
3.80118
21
-2.06555
0
LINE
8
BLACK
6
CONTINUOUS
10
3.80118
20
-2.06555
11
3.79892
21
-2.0651
0
LINE
8
BLACK
6
CONTINUOUS
10
3.79892
20
-2.0651
11
3.79701
21
-2.06382
0
LINE
8
BLACK
6
CONTINUOUS
10
3.79701
20
-2.06382
11
3.79573
21
-2.06191
0
LINE
8
BLACK
6
CONTINUOUS
10
3.79573
20
-2.06191
11
3.79528
21
-2.05965
0
LINE
8
BLACK
6
CONTINUOUS
10
3.79528
20
-2.05965
11
3.79528
21
-2.04783
0
LINE
8
BLACK
6
CONTINUOUS
10
3.79528
20
-2.04783
11
3.79573
21
-2.04557
0
LINE
8
BLACK
6
CONTINUOUS
10
3.79573
20
-2.04557
11
3.79701
21
-2.04366
0
LINE
8
BLACK
6
CONTINUOUS
10
3.79701
20
-2.04366
11
3.79892
21
-2.04238
0
LINE
8
BLACK
6
CONTINUOUS
10
3.79892
20
-2.04238
11
3.80118
21
-2.04193
0
LINE
8
BLACK
6
CONTINUOUS
10
3.80118
20
-2.04193
11
3.86614
21
-2.04193
0
LINE
8
BLACK
6
CONTINUOUS
10
3.86614
20
-2.04193
11
3.8684
21
-2.04238
0
LINE
8
BLACK
6
CONTINUOUS
10
3.94882
20
-2.05709
11
3.90945
21
-2.05709
0
LINE
8
BLACK
6
CONTINUOUS
10
3.90945
20
-2.05709
11
3.90945
21
-2.01772
0
LINE
8
BLACK
6
CONTINUOUS
10
3.90945
20
-2.01772
11
3.94882
21
-2.01772
0
LINE
8
BLACK
6
CONTINUOUS
10
3.94882
20
-2.01772
11
3.94882
21
-2.05709
0
LINE
8
BLACK
6
CONTINUOUS
10
3.67352
20
-1.99238
11
3.67544
21
-1.99366
0
LINE
8
BLACK
6
CONTINUOUS
10
3.67544
20
-1.99366
11
3.67672
21
-1.99557
0
LINE
8
BLACK
6
CONTINUOUS
10
3.67672
20
-1.99557
11
3.67717
21
-1.99783
0
LINE
8
BLACK
6
CONTINUOUS
10
3.67717
20
-1.99783
11
3.67717
21
-2.00965
0
LINE
8
BLACK
6
CONTINUOUS
10
3.67717
20
-2.00965
11
3.67672
21
-2.01191
0
LINE
8
BLACK
6
CONTINUOUS
10
3.67672
20
-2.01191
11
3.67544
21
-2.01382
0
LINE
8
BLACK
6
CONTINUOUS
10
3.67544
20
-2.01382
11
3.67352
21
-2.0151
0
LINE
8
BLACK
6
CONTINUOUS
10
3.67352
20
-2.0151
11
3.67126
21
-2.01555
0
LINE
8
BLACK
6
CONTINUOUS
10
3.67126
20
-2.01555
11
3.6063
21
-2.01555
0
LINE
8
BLACK
6
CONTINUOUS
10
3.6063
20
-2.01555
11
3.60404
21
-2.0151
0
LINE
8
BLACK
6
CONTINUOUS
10
3.60404
20
-2.0151
11
3.60212
21
-2.01382
0
LINE
8
BLACK
6
CONTINUOUS
10
3.60212
20
-2.01382
11
3.60084
21
-2.01191
0
LINE
8
BLACK
6
CONTINUOUS
10
3.60084
20
-2.01191
11
3.60039
21
-2.00965
0
LINE
8
BLACK
6
CONTINUOUS
10
3.60039
20
-2.00965
11
3.60039
21
-1.99783
0
LINE
8
BLACK
6
CONTINUOUS
10
3.60039
20
-1.99783
11
3.60084
21
-1.99557
0
LINE
8
BLACK
6
CONTINUOUS
10
3.60084
20
-1.99557
11
3.60212
21
-1.99366
0
LINE
8
BLACK
6
CONTINUOUS
10
3.60212
20
-1.99366
11
3.60404
21
-1.99238
0
LINE
8
BLACK
6
CONTINUOUS
10
3.60404
20
-1.99238
11
3.6063
21
-1.99193
0
LINE
8
BLACK
6
CONTINUOUS
10
3.6063
20
-1.99193
11
3.67126
21
-1.99193
0
LINE
8
BLACK
6
CONTINUOUS
10
3.67126
20
-1.99193
11
3.67352
21
-1.99238
0
LINE
8
BLACK
6
CONTINUOUS
10
3.8684
20
-1.99238
11
3.87032
21
-1.99366
0
LINE
8
BLACK
6
CONTINUOUS
10
3.87032
20
-1.99366
11
3.8716
21
-1.99557
0
LINE
8
BLACK
6
CONTINUOUS
10
3.8716
20
-1.99557
11
3.87205
21
-1.99783
0
LINE
8
BLACK
6
CONTINUOUS
10
3.87205
20
-1.99783
11
3.87205
21
-2.00965
0
LINE
8
BLACK
6
CONTINUOUS
10
3.87205
20
-2.00965
11
3.8716
21
-2.01191
0
LINE
8
BLACK
6
CONTINUOUS
10
3.8716
20
-2.01191
11
3.87032
21
-2.01382
0
LINE
8
BLACK
6
CONTINUOUS
10
3.87032
20
-2.01382
11
3.8684
21
-2.0151
0
LINE
8
BLACK
6
CONTINUOUS
10
3.8684
20
-2.0151
11
3.86614
21
-2.01555
0
LINE
8
BLACK
6
CONTINUOUS
10
3.86614
20
-2.01555
11
3.80118
21
-2.01555
0
LINE
8
BLACK
6
CONTINUOUS
10
3.80118
20
-2.01555
11
3.79892
21
-2.0151
0
LINE
8
BLACK
6
CONTINUOUS
10
3.79892
20
-2.0151
11
3.79701
21
-2.01382
0
LINE
8
BLACK
6
CONTINUOUS
10
3.79701
20
-2.01382
11
3.79573
21
-2.01191
0
LINE
8
BLACK
6
CONTINUOUS
10
3.79573
20
-2.01191
11
3.79528
21
-2.00965
0
LINE
8
BLACK
6
CONTINUOUS
10
3.79528
20
-2.00965
11
3.79528
21
-1.99783
0
LINE
8
BLACK
6
CONTINUOUS
10
3.79528
20
-1.99783
11
3.79573
21
-1.99557
0
LINE
8
BLACK
6
CONTINUOUS
10
3.79573
20
-1.99557
11
3.79701
21
-1.99366
0
LINE
8
BLACK
6
CONTINUOUS
10
3.79701
20
-1.99366
11
3.79892
21
-1.99238
0
LINE
8
BLACK
6
CONTINUOUS
10
3.79892
20
-1.99238
11
3.80118
21
-1.99193
0
LINE
8
BLACK
6
CONTINUOUS
10
3.80118
20
-1.99193
11
3.86614
21
-1.99193
0
LINE
8
BLACK
6
CONTINUOUS
10
3.86614
20
-1.99193
11
3.8684
21
-1.99238
  0
ENDSEC
  0
EOF
