  0
SECTION
  2
HEADER
  9
$ANGBASE
  50
0.0
  9
$ANGDIR
  70
1
  9
$MEASUREMENT
  70
0
  0
ENDSEC
  0
SECTION
  2
TABLES
  0
TABLE
  2
LTYPE
  70
4
  0
LTYPE
  5
40F
  2
CONTINUOUS
  70
0
  3
Solid line
  72
65
  73
0
  40
0.0
  0
LTYPE
  5
410
  2
DASHDOT
 70
0
  3
Dash Dot ____ _ ____ _
 72
65
 73
4
 40
2.0
 49
1.25
 49
-0.25
 49
0.25
 49
-0.25
  0
LTYPE
  5
411
  2
DASHED
 70
0
  3
Dashed __ __ __ __ __
 72
65
 73
2
 40
0.75
 49
0.5
 49
-0.25
  0
LTYPE
  5
43B
  2
DOTTED
 70
0
  3
Dotted .  .  .  .
 72
65
 73
2
 40
0.2
 49
0.0
 49
-0.2
  0
ENDTAB
  0
TABLE
  2
STYLE
  70
4
  0
STYLE
  2
KICAD
  70
0
  40
0
  41
1
  42
1
  50
0
  71
0
  3
isocp.shx
  0
STYLE
  2
KICADB
  70
0
  40
0
  41
1
  42
1
  50
0
  71
0
  3
isocp.shx
  0
STYLE
  2
KICADI
  70
0
  40
0
  41
1
  42
1
  50
15
  71
0
  3
isocp.shx
  0
STYLE
  2
KICADBI
  70
0
  40
0
  41
1
  42
1
  50
15
  71
0
  3
isocp.shx
  0
ENDTAB
  0
TABLE
  2
LAYER
  70
1
  0
LAYER
  2
BLACK
  70
0
  62
7
  6
CONTINUOUS
  0
ENDTAB
  0
ENDSEC
  0
SECTION
  2
ENTITIES
0
LINE
8
BLACK
6
CONTINUOUS
10
3.17879
20
-2.12184
11
3.19804
21
-2.12497
0
LINE
8
BLACK
6
CONTINUOUS
10
3.19804
20
-2.12497
11
3.21697
21
-2.12964
0
LINE
8
BLACK
6
CONTINUOUS
10
3.21697
20
-2.12964
11
3.23547
21
-2.13581
0
LINE
8
BLACK
6
CONTINUOUS
10
3.23547
20
-2.13581
11
3.2534
21
-2.14346
0
LINE
8
BLACK
6
CONTINUOUS
10
3.2534
20
-2.14346
11
3.27067
21
-2.15252
0
LINE
8
BLACK
6
CONTINUOUS
10
3.27067
20
-2.15252
11
3.28715
21
-2.16294
0
LINE
8
BLACK
6
CONTINUOUS
10
3.28715
20
-2.16294
11
3.30274
21
-2.17465
0
LINE
8
BLACK
6
CONTINUOUS
10
3.30274
20
-2.17465
11
3.31733
21
-2.18758
0
LINE
8
BLACK
6
CONTINUOUS
10
3.31733
20
-2.18758
11
3.33084
21
-2.20165
0
LINE
8
BLACK
6
CONTINUOUS
10
3.33084
20
-2.20165
11
3.34317
21
-2.21675
0
LINE
8
BLACK
6
CONTINUOUS
10
3.34317
20
-2.21675
11
3.35425
21
-2.2328
0
LINE
8
BLACK
6
CONTINUOUS
10
3.35425
20
-2.2328
11
3.364
21
-2.24968
0
LINE
8
BLACK
6
CONTINUOUS
10
3.364
20
-2.24968
11
3.37236
21
-2.2673
0
LINE
8
BLACK
6
CONTINUOUS
10
3.37236
20
-2.2673
11
3.37927
21
-2.28553
0
LINE
8
BLACK
6
CONTINUOUS
10
3.37927
20
-2.28553
11
3.3847
21
-2.30426
0
LINE
8
BLACK
6
CONTINUOUS
10
3.3847
20
-2.30426
11
3.3886
21
-2.32336
0
LINE
8
BLACK
6
CONTINUOUS
10
3.3886
20
-2.32336
11
3.39095
21
-2.34272
0
LINE
8
BLACK
6
CONTINUOUS
10
3.39095
20
-2.34272
11
3.39173
21
-2.3622
0
LINE
8
BLACK
6
CONTINUOUS
10
3.39173
20
-2.3622
11
3.39095
21
-2.38169
0
LINE
8
BLACK
6
CONTINUOUS
10
3.39095
20
-2.38169
11
3.3886
21
-2.40104
0
LINE
8
BLACK
6
CONTINUOUS
10
3.3886
20
-2.40104
11
3.3847
21
-2.42015
0
LINE
8
BLACK
6
CONTINUOUS
10
3.3847
20
-2.42015
11
3.37927
21
-2.43888
0
LINE
8
BLACK
6
CONTINUOUS
10
3.37927
20
-2.43888
11
3.37236
21
-2.45711
0
LINE
8
BLACK
6
CONTINUOUS
10
3.37236
20
-2.45711
11
3.364
21
-2.47473
0
LINE
8
BLACK
6
CONTINUOUS
10
3.364
20
-2.47473
11
3.35425
21
-2.49161
0
LINE
8
BLACK
6
CONTINUOUS
10
3.35425
20
-2.49161
11
3.34317
21
-2.50766
0
LINE
8
BLACK
6
CONTINUOUS
10
3.34317
20
-2.50766
11
3.33084
21
-2.52276
0
LINE
8
BLACK
6
CONTINUOUS
10
3.33084
20
-2.52276
11
3.31733
21
-2.53683
0
LINE
8
BLACK
6
CONTINUOUS
10
3.31733
20
-2.53683
11
3.30274
21
-2.54976
0
LINE
8
BLACK
6
CONTINUOUS
10
3.30274
20
-2.54976
11
3.28715
21
-2.56147
0
LINE
8
BLACK
6
CONTINUOUS
10
3.28715
20
-2.56147
11
3.27067
21
-2.57189
0
LINE
8
BLACK
6
CONTINUOUS
10
3.27067
20
-2.57189
11
3.2534
21
-2.58095
0
LINE
8
BLACK
6
CONTINUOUS
10
3.2534
20
-2.58095
11
3.23547
21
-2.5886
0
LINE
8
BLACK
6
CONTINUOUS
10
3.23547
20
-2.5886
11
3.21697
21
-2.59477
0
LINE
8
BLACK
6
CONTINUOUS
10
3.21697
20
-2.59477
11
3.19804
21
-2.59944
0
LINE
8
BLACK
6
CONTINUOUS
10
3.19804
20
-2.59944
11
3.17879
21
-2.60257
0
LINE
8
BLACK
6
CONTINUOUS
10
3.17879
20
-2.60257
11
3.15936
21
-2.60413
0
LINE
8
BLACK
6
CONTINUOUS
10
3.15936
20
-2.60413
11
3.13986
21
-2.60413
0
LINE
8
BLACK
6
CONTINUOUS
10
3.13986
20
-2.60413
11
3.12042
21
-2.60257
0
LINE
8
BLACK
6
CONTINUOUS
10
3.12042
20
-2.60257
11
3.10117
21
-2.59944
0
LINE
8
BLACK
6
CONTINUOUS
10
3.10117
20
-2.59944
11
3.08224
21
-2.59477
0
LINE
8
BLACK
6
CONTINUOUS
10
3.08224
20
-2.59477
11
3.06375
21
-2.5886
0
LINE
8
BLACK
6
CONTINUOUS
10
3.06375
20
-2.5886
11
3.04581
21
-2.58095
0
LINE
8
BLACK
6
CONTINUOUS
10
3.04581
20
-2.58095
11
3.02854
21
-2.57189
0
LINE
8
BLACK
6
CONTINUOUS
10
3.02854
20
-2.57189
11
3.01206
21
-2.56147
0
LINE
8
BLACK
6
CONTINUOUS
10
3.01206
20
-2.56147
11
2.99647
21
-2.54976
0
LINE
8
BLACK
6
CONTINUOUS
10
2.99647
20
-2.54976
11
2.98188
21
-2.53683
0
LINE
8
BLACK
6
CONTINUOUS
10
2.98188
20
-2.53683
11
2.96837
21
-2.52276
0
LINE
8
BLACK
6
CONTINUOUS
10
2.96837
20
-2.52276
11
2.95604
21
-2.50766
0
LINE
8
BLACK
6
CONTINUOUS
10
2.95604
20
-2.50766
11
2.94496
21
-2.49161
0
LINE
8
BLACK
6
CONTINUOUS
10
2.94496
20
-2.49161
11
2.93521
21
-2.47473
0
LINE
8
BLACK
6
CONTINUOUS
10
2.93521
20
-2.47473
11
2.92686
21
-2.45711
0
LINE
8
BLACK
6
CONTINUOUS
10
2.92686
20
-2.45711
11
2.91994
21
-2.43888
0
LINE
8
BLACK
6
CONTINUOUS
10
2.91994
20
-2.43888
11
2.91452
21
-2.42015
0
LINE
8
BLACK
6
CONTINUOUS
10
2.91452
20
-2.42015
11
2.91062
21
-2.40104
0
LINE
8
BLACK
6
CONTINUOUS
10
2.91062
20
-2.40104
11
2.90827
21
-2.38169
0
LINE
8
BLACK
6
CONTINUOUS
10
2.90827
20
-2.38169
11
2.90748
21
-2.3622
0
LINE
8
BLACK
6
CONTINUOUS
10
2.90748
20
-2.3622
11
2.90827
21
-2.34272
0
LINE
8
BLACK
6
CONTINUOUS
10
2.90827
20
-2.34272
11
2.91062
21
-2.32336
0
LINE
8
BLACK
6
CONTINUOUS
10
2.91062
20
-2.32336
11
2.91452
21
-2.30426
0
LINE
8
BLACK
6
CONTINUOUS
10
2.91452
20
-2.30426
11
2.91994
21
-2.28553
0
LINE
8
BLACK
6
CONTINUOUS
10
2.91994
20
-2.28553
11
2.92686
21
-2.2673
0
LINE
8
BLACK
6
CONTINUOUS
10
2.92686
20
-2.2673
11
2.93521
21
-2.24968
0
LINE
8
BLACK
6
CONTINUOUS
10
2.93521
20
-2.24968
11
2.94496
21
-2.2328
0
LINE
8
BLACK
6
CONTINUOUS
10
2.94496
20
-2.2328
11
2.95604
21
-2.21675
0
LINE
8
BLACK
6
CONTINUOUS
10
2.95604
20
-2.21675
11
2.96837
21
-2.20165
0
LINE
8
BLACK
6
CONTINUOUS
10
2.96837
20
-2.20165
11
2.98188
21
-2.18758
0
LINE
8
BLACK
6
CONTINUOUS
10
2.98188
20
-2.18758
11
2.99647
21
-2.17465
0
LINE
8
BLACK
6
CONTINUOUS
10
2.99647
20
-2.17465
11
3.01206
21
-2.16294
0
LINE
8
BLACK
6
CONTINUOUS
10
3.01206
20
-2.16294
11
3.02854
21
-2.15252
0
LINE
8
BLACK
6
CONTINUOUS
10
3.02854
20
-2.15252
11
3.04581
21
-2.14346
0
LINE
8
BLACK
6
CONTINUOUS
10
3.04581
20
-2.14346
11
3.06375
21
-2.13581
0
LINE
8
BLACK
6
CONTINUOUS
10
3.06375
20
-2.13581
11
3.08224
21
-2.12964
0
LINE
8
BLACK
6
CONTINUOUS
10
3.08224
20
-2.12964
11
3.10117
21
-2.12497
0
LINE
8
BLACK
6
CONTINUOUS
10
3.10117
20
-2.12497
11
3.12042
21
-2.12184
0
LINE
8
BLACK
6
CONTINUOUS
10
3.12042
20
-2.12184
11
3.13986
21
-2.12028
0
LINE
8
BLACK
6
CONTINUOUS
10
3.13986
20
-2.12028
11
3.15936
21
-2.12028
0
LINE
8
BLACK
6
CONTINUOUS
10
3.15936
20
-2.12028
11
3.17879
21
-2.12184
0
LINE
8
BLACK
6
CONTINUOUS
10
2.912
20
-2.38139
11
2.91431
21
-2.40044
0
LINE
8
BLACK
6
CONTINUOUS
10
2.91431
20
-2.40044
11
2.91815
21
-2.41925
0
LINE
8
BLACK
6
CONTINUOUS
10
2.91815
20
-2.41925
11
2.92349
21
-2.43769
0
LINE
8
BLACK
6
CONTINUOUS
10
2.92349
20
-2.43769
11
2.9303
21
-2.45564
0
LINE
8
BLACK
6
CONTINUOUS
10
2.9303
20
-2.45564
11
2.93853
21
-2.47299
0
LINE
8
BLACK
6
CONTINUOUS
10
2.93853
20
-2.47299
11
2.94813
21
-2.48961
0
LINE
8
BLACK
6
CONTINUOUS
10
2.94813
20
-2.48961
11
2.95903
21
-2.50541
0
LINE
8
BLACK
6
CONTINUOUS
10
2.95903
20
-2.50541
11
2.97117
21
-2.52028
0
LINE
8
BLACK
6
CONTINUOUS
10
2.97117
20
-2.52028
11
2.98447
21
-2.53413
0
LINE
8
BLACK
6
CONTINUOUS
10
2.98447
20
-2.53413
11
2.99884
21
-2.54686
0
LINE
8
BLACK
6
CONTINUOUS
10
2.99884
20
-2.54686
11
3.01419
21
-2.55839
0
LINE
8
BLACK
6
CONTINUOUS
10
3.01419
20
-2.55839
11
3.03042
21
-2.56865
0
LINE
8
BLACK
6
CONTINUOUS
10
3.03042
20
-2.56865
11
3.04741
21
-2.57757
0
LINE
8
BLACK
6
CONTINUOUS
10
3.04741
20
-2.57757
11
3.06507
21
-2.5851
0
LINE
8
BLACK
6
CONTINUOUS
10
3.06507
20
-2.5851
11
3.08328
21
-2.59118
0
LINE
8
BLACK
6
CONTINUOUS
10
3.08328
20
-2.59118
11
3.10192
21
-2.59577
0
LINE
8
BLACK
6
CONTINUOUS
10
3.10192
20
-2.59577
11
3.12087
21
-2.59885
0
LINE
8
BLACK
6
CONTINUOUS
10
3.12087
20
-2.59885
11
3.14001
21
-2.60039
0
LINE
8
BLACK
6
CONTINUOUS
10
3.14001
20
-2.60039
11
3.15921
21
-2.60039
0
LINE
8
BLACK
6
CONTINUOUS
10
3.15921
20
-2.60039
11
3.17834
21
-2.59885
0
LINE
8
BLACK
6
CONTINUOUS
10
3.17834
20
-2.59885
11
3.19729
21
-2.59577
0
LINE
8
BLACK
6
CONTINUOUS
10
3.19729
20
-2.59577
11
3.21593
21
-2.59118
0
LINE
8
BLACK
6
CONTINUOUS
10
3.21593
20
-2.59118
11
3.23414
21
-2.5851
0
LINE
8
BLACK
6
CONTINUOUS
10
3.23414
20
-2.5851
11
3.2518
21
-2.57757
0
LINE
8
BLACK
6
CONTINUOUS
10
3.2518
20
-2.57757
11
3.2688
21
-2.56865
0
LINE
8
BLACK
6
CONTINUOUS
10
3.2688
20
-2.56865
11
3.28502
21
-2.55839
0
LINE
8
BLACK
6
CONTINUOUS
10
3.28502
20
-2.55839
11
3.30037
21
-2.54686
0
LINE
8
BLACK
6
CONTINUOUS
10
3.30037
20
-2.54686
11
3.31474
21
-2.53413
0
LINE
8
BLACK
6
CONTINUOUS
10
3.31474
20
-2.53413
11
3.32804
21
-2.52028
0
LINE
8
BLACK
6
CONTINUOUS
10
3.32804
20
-2.52028
11
3.34018
21
-2.50541
0
LINE
8
BLACK
6
CONTINUOUS
10
3.34018
20
-2.50541
11
3.35108
21
-2.48961
0
LINE
8
BLACK
6
CONTINUOUS
10
3.35108
20
-2.48961
11
3.36068
21
-2.47299
0
LINE
8
BLACK
6
CONTINUOUS
10
3.36068
20
-2.47299
11
3.36891
21
-2.45564
0
LINE
8
BLACK
6
CONTINUOUS
10
3.36891
20
-2.45564
11
3.37572
21
-2.43769
0
LINE
8
BLACK
6
CONTINUOUS
10
3.37572
20
-2.43769
11
3.38106
21
-2.41925
0
LINE
8
BLACK
6
CONTINUOUS
10
3.38106
20
-2.41925
11
3.3849
21
-2.40044
0
LINE
8
BLACK
6
CONTINUOUS
10
3.3849
20
-2.40044
11
3.38722
21
-2.38139
0
LINE
8
BLACK
6
CONTINUOUS
10
3.38722
20
-2.38139
11
3.38799
21
-2.3622
0
LINE
8
BLACK
6
CONTINUOUS
10
3.38799
20
-2.3622
11
3.38722
21
-2.34302
0
LINE
8
BLACK
6
CONTINUOUS
10
3.38722
20
-2.34302
11
3.3849
21
-2.32397
0
LINE
8
BLACK
6
CONTINUOUS
10
3.3849
20
-2.32397
11
3.38106
21
-2.30516
0
LINE
8
BLACK
6
CONTINUOUS
10
3.38106
20
-2.30516
11
3.37572
21
-2.28672
0
LINE
8
BLACK
6
CONTINUOUS
10
3.37572
20
-2.28672
11
3.36891
21
-2.26877
0
LINE
8
BLACK
6
CONTINUOUS
10
3.36891
20
-2.26877
11
3.36068
21
-2.25142
0
LINE
8
BLACK
6
CONTINUOUS
10
3.36068
20
-2.25142
11
3.35108
21
-2.2348
0
LINE
8
BLACK
6
CONTINUOUS
10
3.35108
20
-2.2348
11
3.34018
21
-2.219
0
LINE
8
BLACK
6
CONTINUOUS
10
3.34018
20
-2.219
11
3.32804
21
-2.20413
0
LINE
8
BLACK
6
CONTINUOUS
10
3.32804
20
-2.20413
11
3.31474
21
-2.19028
0
LINE
8
BLACK
6
CONTINUOUS
10
3.31474
20
-2.19028
11
3.30037
21
-2.17755
0
LINE
8
BLACK
6
CONTINUOUS
10
3.30037
20
-2.17755
11
3.28502
21
-2.16602
0
LINE
8
BLACK
6
CONTINUOUS
10
3.28502
20
-2.16602
11
3.2688
21
-2.15576
0
LINE
8
BLACK
6
CONTINUOUS
10
3.2688
20
-2.15576
11
3.2518
21
-2.14684
0
LINE
8
BLACK
6
CONTINUOUS
10
3.2518
20
-2.14684
11
3.23414
21
-2.13931
0
LINE
8
BLACK
6
CONTINUOUS
10
3.23414
20
-2.13931
11
3.21593
21
-2.13323
0
LINE
8
BLACK
6
CONTINUOUS
10
3.21593
20
-2.13323
11
3.19729
21
-2.12864
0
LINE
8
BLACK
6
CONTINUOUS
10
3.19729
20
-2.12864
11
3.17834
21
-2.12556
0
LINE
8
BLACK
6
CONTINUOUS
10
3.17834
20
-2.12556
11
3.15921
21
-2.12402
0
LINE
8
BLACK
6
CONTINUOUS
10
3.15921
20
-2.12402
11
3.14001
21
-2.12402
0
LINE
8
BLACK
6
CONTINUOUS
10
3.14001
20
-2.12402
11
3.12087
21
-2.12556
0
LINE
8
BLACK
6
CONTINUOUS
10
3.12087
20
-2.12556
11
3.10192
21
-2.12864
0
LINE
8
BLACK
6
CONTINUOUS
10
3.10192
20
-2.12864
11
3.08328
21
-2.13323
0
LINE
8
BLACK
6
CONTINUOUS
10
3.08328
20
-2.13323
11
3.06507
21
-2.13931
0
LINE
8
BLACK
6
CONTINUOUS
10
3.06507
20
-2.13931
11
3.04741
21
-2.14684
0
LINE
8
BLACK
6
CONTINUOUS
10
3.04741
20
-2.14684
11
3.03042
21
-2.15576
0
LINE
8
BLACK
6
CONTINUOUS
10
3.03042
20
-2.15576
11
3.01419
21
-2.16602
0
LINE
8
BLACK
6
CONTINUOUS
10
3.01419
20
-2.16602
11
2.99884
21
-2.17755
0
LINE
8
BLACK
6
CONTINUOUS
10
2.99884
20
-2.17755
11
2.98447
21
-2.19028
0
LINE
8
BLACK
6
CONTINUOUS
10
2.98447
20
-2.19028
11
2.97117
21
-2.20413
0
LINE
8
BLACK
6
CONTINUOUS
10
2.97117
20
-2.20413
11
2.95903
21
-2.219
0
LINE
8
BLACK
6
CONTINUOUS
10
2.95903
20
-2.219
11
2.94813
21
-2.2348
0
LINE
8
BLACK
6
CONTINUOUS
10
2.94813
20
-2.2348
11
2.93853
21
-2.25142
0
LINE
8
BLACK
6
CONTINUOUS
10
2.93853
20
-2.25142
11
2.9303
21
-2.26877
0
LINE
8
BLACK
6
CONTINUOUS
10
2.9303
20
-2.26877
11
2.92349
21
-2.28672
0
LINE
8
BLACK
6
CONTINUOUS
10
2.92349
20
-2.28672
11
2.91815
21
-2.30516
0
LINE
8
BLACK
6
CONTINUOUS
10
2.91815
20
-2.30516
11
2.91431
21
-2.32397
0
LINE
8
BLACK
6
CONTINUOUS
10
2.91431
20
-2.32397
11
2.912
21
-2.34302
0
LINE
8
BLACK
6
CONTINUOUS
10
2.912
20
-2.34302
11
2.91122
21
-2.3622
0
LINE
8
BLACK
6
CONTINUOUS
10
2.91122
20
-2.3622
11
2.912
21
-2.38139
0
LINE
8
BLACK
6
CONTINUOUS
10
3.66142
20
-1.80906
11
3.6686
21
-1.80968
0
LINE
8
BLACK
6
CONTINUOUS
10
3.6686
20
-1.80968
11
3.67556
21
-1.81155
0
LINE
8
BLACK
6
CONTINUOUS
10
3.67556
20
-1.81155
11
3.68209
21
-1.81459
0
LINE
8
BLACK
6
CONTINUOUS
10
3.68209
20
-1.81459
11
3.68799
21
-1.81873
0
LINE
8
BLACK
6
CONTINUOUS
10
3.68799
20
-1.81873
11
3.69308
21
-1.82382
0
LINE
8
BLACK
6
CONTINUOUS
10
3.69308
20
-1.82382
11
3.69722
21
-1.82972
0
LINE
8
BLACK
6
CONTINUOUS
10
3.69722
20
-1.82972
11
3.70026
21
-1.83626
0
LINE
8
BLACK
6
CONTINUOUS
10
3.70026
20
-1.83626
11
3.70213
21
-1.84322
0
LINE
8
BLACK
6
CONTINUOUS
10
3.70213
20
-1.84322
11
3.70276
21
-1.85039
0
LINE
8
BLACK
6
CONTINUOUS
10
3.70276
20
-1.85039
11
3.70276
21
-2.87402
0
LINE
8
BLACK
6
CONTINUOUS
10
3.70276
20
-2.87402
11
3.70276
21
-2.87402
0
LINE
8
BLACK
6
CONTINUOUS
10
3.70276
20
-2.87402
11
3.70213
21
-2.88119
0
LINE
8
BLACK
6
CONTINUOUS
10
3.70213
20
-2.88119
11
3.70026
21
-2.88815
0
LINE
8
BLACK
6
CONTINUOUS
10
3.70026
20
-2.88815
11
3.69722
21
-2.89469
0
LINE
8
BLACK
6
CONTINUOUS
10
3.69722
20
-2.89469
11
3.69308
21
-2.90059
0
LINE
8
BLACK
6
CONTINUOUS
10
3.69308
20
-2.90059
11
3.68799
21
-2.90568
0
LINE
8
BLACK
6
CONTINUOUS
10
3.68799
20
-2.90568
11
3.68209
21
-2.90982
0
LINE
8
BLACK
6
CONTINUOUS
10
3.68209
20
-2.90982
11
3.67556
21
-2.91286
0
LINE
8
BLACK
6
CONTINUOUS
10
3.67556
20
-2.91286
11
3.6686
21
-2.91473
0
LINE
8
BLACK
6
CONTINUOUS
10
3.6686
20
-2.91473
11
3.66142
21
-2.91535
0
LINE
8
BLACK
6
CONTINUOUS
10
3.66142
20
-2.91535
11
2.6378
21
-2.91535
0
LINE
8
BLACK
6
CONTINUOUS
10
2.6378
20
-2.91535
11
2.63062
21
-2.91473
0
LINE
8
BLACK
6
CONTINUOUS
10
2.63062
20
-2.91473
11
2.62366
21
-2.91286
0
LINE
8
BLACK
6
CONTINUOUS
10
2.62366
20
-2.91286
11
2.61713
21
-2.90982
0
LINE
8
BLACK
6
CONTINUOUS
10
2.61713
20
-2.90982
11
2.61122
21
-2.90568
0
LINE
8
BLACK
6
CONTINUOUS
10
2.61122
20
-2.90568
11
2.60613
21
-2.90059
0
LINE
8
BLACK
6
CONTINUOUS
10
2.60613
20
-2.90059
11
2.602
21
-2.89469
0
LINE
8
BLACK
6
CONTINUOUS
10
2.602
20
-2.89469
11
2.59895
21
-2.88815
0
LINE
8
BLACK
6
CONTINUOUS
10
2.59895
20
-2.88815
11
2.59708
21
-2.88119
0
LINE
8
BLACK
6
CONTINUOUS
10
2.59708
20
-2.88119
11
2.59646
21
-2.87402
0
LINE
8
BLACK
6
CONTINUOUS
10
2.59646
20
-2.87402
11
2.59646
21
-1.85039
0
LINE
8
BLACK
6
CONTINUOUS
10
2.59646
20
-1.85039
11
2.59646
21
-1.85039
0
LINE
8
BLACK
6
CONTINUOUS
10
2.59646
20
-1.85039
11
2.59708
21
-1.84322
0
LINE
8
BLACK
6
CONTINUOUS
10
2.59708
20
-1.84322
11
2.59895
21
-1.83626
0
LINE
8
BLACK
6
CONTINUOUS
10
2.59895
20
-1.83626
11
2.602
21
-1.82972
0
LINE
8
BLACK
6
CONTINUOUS
10
2.602
20
-1.82972
11
2.60613
21
-1.82382
0
LINE
8
BLACK
6
CONTINUOUS
10
2.60613
20
-1.82382
11
2.61122
21
-1.81873
0
LINE
8
BLACK
6
CONTINUOUS
10
2.61122
20
-1.81873
11
2.61713
21
-1.81459
0
LINE
8
BLACK
6
CONTINUOUS
10
2.61713
20
-1.81459
11
2.62366
21
-1.81155
0
LINE
8
BLACK
6
CONTINUOUS
10
2.62366
20
-1.81155
11
2.63062
21
-1.80968
0
LINE
8
BLACK
6
CONTINUOUS
10
2.63062
20
-1.80968
11
2.6378
21
-1.80906
0
LINE
8
BLACK
6
CONTINUOUS
10
2.6378
20
-1.80906
11
3.66142
21
-1.80906
0
LINE
8
BLACK
6
CONTINUOUS
10
2.6378
20
-1.81299
11
2.63452
21
-1.81299
0
LINE
8
BLACK
6
CONTINUOUS
10
2.63452
20
-1.81299
11
2.62808
21
-1.81413
0
LINE
8
BLACK
6
CONTINUOUS
10
2.62808
20
-1.81413
11
2.62193
21
-1.81637
0
LINE
8
BLACK
6
CONTINUOUS
10
2.62193
20
-1.81637
11
2.61626
21
-1.81964
0
LINE
8
BLACK
6
CONTINUOUS
10
2.61626
20
-1.81964
11
2.61125
21
-1.82385
0
LINE
8
BLACK
6
CONTINUOUS
10
2.61125
20
-1.82385
11
2.60704
21
-1.82886
0
LINE
8
BLACK
6
CONTINUOUS
10
2.60704
20
-1.82886
11
2.60377
21
-1.83453
0
LINE
8
BLACK
6
CONTINUOUS
10
2.60377
20
-1.83453
11
2.60153
21
-1.84068
0
LINE
8
BLACK
6
CONTINUOUS
10
2.60153
20
-1.84068
11
2.60039
21
-1.84712
0
LINE
8
BLACK
6
CONTINUOUS
10
2.60039
20
-1.84712
11
2.60039
21
-1.85039
0
LINE
8
BLACK
6
CONTINUOUS
10
2.60039
20
-1.85039
11
2.60039
21
-2.87402
0
LINE
8
BLACK
6
CONTINUOUS
10
2.60039
20
-2.87402
11
2.60039
21
-2.87729
0
LINE
8
BLACK
6
CONTINUOUS
10
2.60039
20
-2.87729
11
2.60153
21
-2.88373
0
LINE
8
BLACK
6
CONTINUOUS
10
2.60153
20
-2.88373
11
2.60377
21
-2.88988
0
LINE
8
BLACK
6
CONTINUOUS
10
2.60377
20
-2.88988
11
2.60704
21
-2.89555
0
LINE
8
BLACK
6
CONTINUOUS
10
2.60704
20
-2.89555
11
2.61125
21
-2.90056
0
LINE
8
BLACK
6
CONTINUOUS
10
2.61125
20
-2.90056
11
2.61626
21
-2.90477
0
LINE
8
BLACK
6
CONTINUOUS
10
2.61626
20
-2.90477
11
2.62193
21
-2.90804
0
LINE
8
BLACK
6
CONTINUOUS
10
2.62193
20
-2.90804
11
2.62808
21
-2.91028
0
LINE
8
BLACK
6
CONTINUOUS
10
2.62808
20
-2.91028
11
2.63452
21
-2.91142
0
LINE
8
BLACK
6
CONTINUOUS
10
2.63452
20
-2.91142
11
2.6378
21
-2.91142
0
LINE
8
BLACK
6
CONTINUOUS
10
2.6378
20
-2.91142
11
3.66142
21
-2.91142
0
LINE
8
BLACK
6
CONTINUOUS
10
3.66142
20
-2.91142
11
3.66469
21
-2.91142
0
LINE
8
BLACK
6
CONTINUOUS
10
3.66469
20
-2.91142
11
3.67113
21
-2.91028
0
LINE
8
BLACK
6
CONTINUOUS
10
3.67113
20
-2.91028
11
3.67728
21
-2.90804
0
LINE
8
BLACK
6
CONTINUOUS
10
3.67728
20
-2.90804
11
3.68295
21
-2.90477
0
LINE
8
BLACK
6
CONTINUOUS
10
3.68295
20
-2.90477
11
3.68797
21
-2.90056
0
LINE
8
BLACK
6
CONTINUOUS
10
3.68797
20
-2.90056
11
3.69217
21
-2.89555
0
LINE
8
BLACK
6
CONTINUOUS
10
3.69217
20
-2.89555
11
3.69544
21
-2.88988
0
LINE
8
BLACK
6
CONTINUOUS
10
3.69544
20
-2.88988
11
3.69768
21
-2.88373
0
LINE
8
BLACK
6
CONTINUOUS
10
3.69768
20
-2.88373
11
3.69882
21
-2.87729
0
LINE
8
BLACK
6
CONTINUOUS
10
3.69882
20
-2.87729
11
3.69882
21
-2.87402
0
LINE
8
BLACK
6
CONTINUOUS
10
3.69882
20
-2.87402
11
3.69882
21
-1.85039
0
LINE
8
BLACK
6
CONTINUOUS
10
3.69882
20
-1.85039
11
3.69882
21
-1.85039
0
LINE
8
BLACK
6
CONTINUOUS
10
3.69882
20
-1.85039
11
3.69882
21
-1.84712
0
LINE
8
BLACK
6
CONTINUOUS
10
3.69882
20
-1.84712
11
3.69768
21
-1.84068
0
LINE
8
BLACK
6
CONTINUOUS
10
3.69768
20
-1.84068
11
3.69544
21
-1.83453
0
LINE
8
BLACK
6
CONTINUOUS
10
3.69544
20
-1.83453
11
3.69217
21
-1.82886
0
LINE
8
BLACK
6
CONTINUOUS
10
3.69217
20
-1.82886
11
3.68797
21
-1.82385
0
LINE
8
BLACK
6
CONTINUOUS
10
3.68797
20
-1.82385
11
3.68295
21
-1.81964
0
LINE
8
BLACK
6
CONTINUOUS
10
3.68295
20
-1.81964
11
3.67728
21
-1.81637
0
LINE
8
BLACK
6
CONTINUOUS
10
3.67728
20
-1.81637
11
3.67113
21
-1.81413
0
LINE
8
BLACK
6
CONTINUOUS
10
3.67113
20
-1.81413
11
3.66469
21
-1.81299
0
LINE
8
BLACK
6
CONTINUOUS
10
3.66469
20
-1.81299
11
3.66142
21
-1.81299
0
LINE
8
BLACK
6
CONTINUOUS
10
3.66142
20
-1.81299
11
2.6378
21
-1.81299
  0
ENDSEC
  0
EOF
