  0
SECTION
  2
HEADER
  9
$ANGBASE
  50
0.0
  9
$ANGDIR
  70
1
  9
$MEASUREMENT
  70
0
  0
ENDSEC
  0
SECTION
  2
TABLES
  0
TABLE
  2
LTYPE
  70
4
  0
LTYPE
  5
40F
  2
CONTINUOUS
  70
0
  3
Solid line
  72
65
  73
0
  40
0.0
  0
LTYPE
  5
410
  2
DASHDOT
 70
0
  3
Dash Dot ____ _ ____ _
 72
65
 73
4
 40
2.0
 49
1.25
 49
-0.25
 49
0.25
 49
-0.25
  0
LTYPE
  5
411
  2
DASHED
 70
0
  3
Dashed __ __ __ __ __
 72
65
 73
2
 40
0.75
 49
0.5
 49
-0.25
  0
LTYPE
  5
43B
  2
DOTTED
 70
0
  3
Dotted .  .  .  .
 72
65
 73
2
 40
0.2
 49
0.0
 49
-0.2
  0
ENDTAB
  0
TABLE
  2
STYLE
  70
4
  0
STYLE
  2
KICAD
  70
0
  40
0
  41
1
  42
1
  50
0
  71
0
  3
isocp.shx
  0
STYLE
  2
KICADB
  70
0
  40
0
  41
1
  42
1
  50
0
  71
0
  3
isocp.shx
  0
STYLE
  2
KICADI
  70
0
  40
0
  41
1
  42
1
  50
15
  71
0
  3
isocp.shx
  0
STYLE
  2
KICADBI
  70
0
  40
0
  41
1
  42
1
  50
15
  71
0
  3
isocp.shx
  0
ENDTAB
  0
TABLE
  2
LAYER
  70
1
  0
LAYER
  2
BLACK
  70
0
  62
7
  6
CONTINUOUS
  0
ENDTAB
  0
ENDSEC
  0
SECTION
  2
ENTITIES
0
LINE
8
BLACK
6
CONTINUOUS
10
3.58276
20
-1.88979
11
3.58447
21
-1.88994
0
LINE
8
BLACK
6
CONTINUOUS
10
3.58447
20
-1.88994
11
3.58952
21
-1.89044
0
LINE
8
BLACK
6
CONTINUOUS
10
3.58952
20
-1.89044
11
3.59015
21
-1.89055
0
LINE
8
BLACK
6
CONTINUOUS
10
3.59015
20
-1.89055
11
3.59282
21
-1.89127
0
LINE
8
BLACK
6
CONTINUOUS
10
3.59282
20
-1.89127
11
3.59288
21
-1.89128
0
LINE
8
BLACK
6
CONTINUOUS
10
3.59288
20
-1.89128
11
3.59659
21
-1.89241
0
LINE
8
BLACK
6
CONTINUOUS
10
3.59659
20
-1.89241
11
3.5971
21
-1.89261
0
LINE
8
BLACK
6
CONTINUOUS
10
3.5971
20
-1.89261
11
3.59983
21
-1.89388
0
LINE
8
BLACK
6
CONTINUOUS
10
3.59983
20
-1.89388
11
3.59992
21
-1.89393
0
LINE
8
BLACK
6
CONTINUOUS
10
3.59992
20
-1.89393
11
3.60327
21
-1.89571
0
LINE
8
BLACK
6
CONTINUOUS
10
3.60327
20
-1.89571
11
3.60347
21
-1.89584
0
LINE
8
BLACK
6
CONTINUOUS
10
3.60347
20
-1.89584
11
3.60611
21
-1.89769
0
LINE
8
BLACK
6
CONTINUOUS
10
3.60611
20
-1.89769
11
3.60623
21
-1.89778
0
LINE
8
BLACK
6
CONTINUOUS
10
3.60623
20
-1.89778
11
3.60759
21
-1.8989
0
LINE
8
BLACK
6
CONTINUOUS
10
3.60759
20
-1.8989
11
3.60911
21
-1.90014
0
LINE
8
BLACK
6
CONTINUOUS
10
3.60911
20
-1.90014
11
3.60925
21
-1.90027
0
LINE
8
BLACK
6
CONTINUOUS
10
3.60925
20
-1.90027
11
3.61155
21
-1.90256
0
LINE
8
BLACK
6
CONTINUOUS
10
3.61155
20
-1.90256
11
3.61167
21
-1.90271
0
LINE
8
BLACK
6
CONTINUOUS
10
3.61167
20
-1.90271
11
3.61403
21
-1.90558
0
LINE
8
BLACK
6
CONTINUOUS
10
3.61403
20
-1.90558
11
3.61412
21
-1.9057
0
LINE
8
BLACK
6
CONTINUOUS
10
3.61412
20
-1.9057
11
3.61598
21
-1.90834
0
LINE
8
BLACK
6
CONTINUOUS
10
3.61598
20
-1.90834
11
3.6161
21
-1.90854
0
LINE
8
BLACK
6
CONTINUOUS
10
3.6161
20
-1.90854
11
3.61788
21
-1.91189
0
LINE
8
BLACK
6
CONTINUOUS
10
3.61788
20
-1.91189
11
3.61793
21
-1.91198
0
LINE
8
BLACK
6
CONTINUOUS
10
3.61793
20
-1.91198
11
3.6192
21
-1.91471
0
LINE
8
BLACK
6
CONTINUOUS
10
3.6192
20
-1.91471
11
3.6194
21
-1.91523
0
LINE
8
BLACK
6
CONTINUOUS
10
3.6194
20
-1.91523
11
3.62053
21
-1.91893
0
LINE
8
BLACK
6
CONTINUOUS
10
3.62053
20
-1.91893
11
3.62054
21
-1.91899
0
LINE
8
BLACK
6
CONTINUOUS
10
3.62054
20
-1.91899
11
3.62126
21
-1.92166
0
LINE
8
BLACK
6
CONTINUOUS
10
3.62126
20
-1.92166
11
3.62137
21
-1.92229
0
LINE
8
BLACK
6
CONTINUOUS
10
3.62137
20
-1.92229
11
3.62187
21
-1.92734
0
LINE
8
BLACK
6
CONTINUOUS
10
3.62187
20
-1.92734
11
3.62202
21
-1.92905
0
LINE
8
BLACK
6
CONTINUOUS
10
3.62202
20
-1.92905
11
3.62203
21
-1.92922
0
LINE
8
BLACK
6
CONTINUOUS
10
3.62203
20
-1.92922
11
3.62203
21
-2.39186
0
LINE
8
BLACK
6
CONTINUOUS
10
3.62203
20
-2.39186
11
3.62128
21
-2.39415
0
LINE
8
BLACK
6
CONTINUOUS
10
3.62128
20
-2.39415
11
3.61933
21
-2.39556
0
LINE
8
BLACK
6
CONTINUOUS
10
3.61933
20
-2.39556
11
3.61693
21
-2.39556
0
LINE
8
BLACK
6
CONTINUOUS
10
3.61693
20
-2.39556
11
3.61537
21
-2.39461
0
LINE
8
BLACK
6
CONTINUOUS
10
3.61537
20
-2.39461
11
3.59641
21
-2.37565
0
LINE
8
BLACK
6
CONTINUOUS
10
3.59641
20
-2.37565
11
3.59629
21
-2.37552
0
LINE
8
BLACK
6
CONTINUOUS
10
3.59629
20
-2.37552
11
3.59525
21
-2.37428
0
LINE
8
BLACK
6
CONTINUOUS
10
3.59525
20
-2.37428
11
3.59436
21
-2.37377
0
LINE
8
BLACK
6
CONTINUOUS
10
3.59436
20
-2.37377
11
3.59386
21
-2.37348
0
LINE
8
BLACK
6
CONTINUOUS
10
3.59386
20
-2.37348
11
3.59371
21
-2.37338
0
LINE
8
BLACK
6
CONTINUOUS
10
3.59371
20
-2.37338
11
3.59239
21
-2.37246
0
LINE
8
BLACK
6
CONTINUOUS
10
3.59239
20
-2.37246
11
3.59239
21
-2.37246
0
LINE
8
BLACK
6
CONTINUOUS
10
3.59239
20
-2.37246
11
3.59233
21
-2.37244
0
LINE
8
BLACK
6
CONTINUOUS
10
3.59233
20
-2.37244
11
3.59139
21
-2.37205
0
LINE
8
BLACK
6
CONTINUOUS
10
3.59139
20
-2.37205
11
3.59134
21
-2.37202
0
LINE
8
BLACK
6
CONTINUOUS
10
3.59134
20
-2.37202
11
3.58975
21
-2.37174
0
LINE
8
BLACK
6
CONTINUOUS
10
3.58975
20
-2.37174
11
3.58958
21
-2.37171
0
LINE
8
BLACK
6
CONTINUOUS
10
3.58958
20
-2.37171
11
3.58855
21
-2.37143
0
LINE
8
BLACK
6
CONTINUOUS
10
3.58855
20
-2.37143
11
3.58802
21
-2.37129
0
LINE
8
BLACK
6
CONTINUOUS
10
3.58802
20
-2.37129
11
3.58802
21
-2.37129
0
LINE
8
BLACK
6
CONTINUOUS
10
3.58802
20
-2.37129
11
3.58785
21
-2.3713
0
LINE
8
BLACK
6
CONTINUOUS
10
3.58785
20
-2.3713
11
3.58642
21
-2.37143
0
LINE
8
BLACK
6
CONTINUOUS
10
3.58642
20
-2.37143
11
3.58625
21
-2.37144
0
LINE
8
BLACK
6
CONTINUOUS
10
3.58625
20
-2.37144
11
3.50096
21
-2.37144
0
LINE
8
BLACK
6
CONTINUOUS
10
3.50096
20
-2.37144
11
3.49867
21
-2.37069
0
LINE
8
BLACK
6
CONTINUOUS
10
3.49867
20
-2.37069
11
3.49726
21
-2.36874
0
LINE
8
BLACK
6
CONTINUOUS
10
3.49726
20
-2.36874
11
3.49707
21
-2.36754
0
LINE
8
BLACK
6
CONTINUOUS
10
3.49707
20
-2.36754
11
3.49707
21
-2.3051
0
LINE
8
BLACK
6
CONTINUOUS
10
3.49707
20
-2.3051
11
3.49781
21
-2.30281
0
LINE
8
BLACK
6
CONTINUOUS
10
3.49781
20
-2.30281
11
3.49976
21
-2.30139
0
LINE
8
BLACK
6
CONTINUOUS
10
3.49976
20
-2.30139
11
3.50096
21
-2.3012
0
LINE
8
BLACK
6
CONTINUOUS
10
3.50096
20
-2.3012
11
3.50471
21
-2.3012
0
LINE
8
BLACK
6
CONTINUOUS
10
3.50471
20
-2.3012
11
3.50471
21
-2.3012
0
LINE
8
BLACK
6
CONTINUOUS
10
3.50471
20
-2.3012
11
3.50702
21
-2.30074
0
LINE
8
BLACK
6
CONTINUOUS
10
3.50702
20
-2.30074
11
3.50963
21
-2.299
0
LINE
8
BLACK
6
CONTINUOUS
10
3.50963
20
-2.299
11
3.51137
21
-2.29639
0
LINE
8
BLACK
6
CONTINUOUS
10
3.51137
20
-2.29639
11
3.51183
21
-2.29408
0
LINE
8
BLACK
6
CONTINUOUS
10
3.51183
20
-2.29408
11
3.51183
21
-2.24508
0
LINE
8
BLACK
6
CONTINUOUS
10
3.51183
20
-2.24508
11
3.51183
21
-2.23327
0
LINE
8
BLACK
6
CONTINUOUS
10
3.51183
20
-2.23327
11
3.51183
21
-2.18426
0
LINE
8
BLACK
6
CONTINUOUS
10
3.51183
20
-2.18426
11
3.51137
21
-2.18196
0
LINE
8
BLACK
6
CONTINUOUS
10
3.51137
20
-2.18196
11
3.50963
21
-2.17935
0
LINE
8
BLACK
6
CONTINUOUS
10
3.50963
20
-2.17935
11
3.50963
21
-2.17935
0
LINE
8
BLACK
6
CONTINUOUS
10
3.50963
20
-2.17935
11
3.50702
21
-2.1776
0
LINE
8
BLACK
6
CONTINUOUS
10
3.50702
20
-2.1776
11
3.50702
21
-2.1776
0
LINE
8
BLACK
6
CONTINUOUS
10
3.50702
20
-2.1776
11
3.50702
21
-2.1776
0
LINE
8
BLACK
6
CONTINUOUS
10
3.50702
20
-2.1776
11
3.50702
21
-2.1776
0
LINE
8
BLACK
6
CONTINUOUS
10
3.50702
20
-2.1776
11
3.50471
21
-2.17715
0
LINE
8
BLACK
6
CONTINUOUS
10
3.50471
20
-2.17715
11
3.50471
21
-2.17715
0
LINE
8
BLACK
6
CONTINUOUS
10
3.50471
20
-2.17715
11
3.46379
21
-2.17715
0
LINE
8
BLACK
6
CONTINUOUS
10
3.46379
20
-2.17715
11
3.46379
21
-2.17715
0
LINE
8
BLACK
6
CONTINUOUS
10
3.46379
20
-2.17715
11
3.46379
21
-2.17715
0
LINE
8
BLACK
6
CONTINUOUS
10
3.46379
20
-2.17715
11
3.46149
21
-2.1776
0
LINE
8
BLACK
6
CONTINUOUS
10
3.46149
20
-2.1776
11
3.46149
21
-2.1776
0
LINE
8
BLACK
6
CONTINUOUS
10
3.46149
20
-2.1776
11
3.45888
21
-2.17935
0
LINE
8
BLACK
6
CONTINUOUS
10
3.45888
20
-2.17935
11
3.45888
21
-2.17935
0
LINE
8
BLACK
6
CONTINUOUS
10
3.45888
20
-2.17935
11
3.45713
21
-2.18196
0
LINE
8
BLACK
6
CONTINUOUS
10
3.45713
20
-2.18196
11
3.45713
21
-2.18196
0
LINE
8
BLACK
6
CONTINUOUS
10
3.45713
20
-2.18196
11
3.45667
21
-2.18426
0
LINE
8
BLACK
6
CONTINUOUS
10
3.45667
20
-2.18426
11
3.45667
21
-2.18426
0
LINE
8
BLACK
6
CONTINUOUS
10
3.45667
20
-2.18426
11
3.45667
21
-2.29408
0
LINE
8
BLACK
6
CONTINUOUS
10
3.45667
20
-2.29408
11
3.45667
21
-2.29408
0
LINE
8
BLACK
6
CONTINUOUS
10
3.45667
20
-2.29408
11
3.45713
21
-2.29639
0
LINE
8
BLACK
6
CONTINUOUS
10
3.45713
20
-2.29639
11
3.45713
21
-2.29639
0
LINE
8
BLACK
6
CONTINUOUS
10
3.45713
20
-2.29639
11
3.45888
21
-2.299
0
LINE
8
BLACK
6
CONTINUOUS
10
3.45888
20
-2.299
11
3.46149
21
-2.30074
0
LINE
8
BLACK
6
CONTINUOUS
10
3.46149
20
-2.30074
11
3.46324
21
-2.30109
0
LINE
8
BLACK
6
CONTINUOUS
10
3.46324
20
-2.30109
11
3.46379
21
-2.3012
0
LINE
8
BLACK
6
CONTINUOUS
10
3.46379
20
-2.3012
11
3.46379
21
-2.3012
0
LINE
8
BLACK
6
CONTINUOUS
10
3.46379
20
-2.3012
11
3.46379
21
-2.3012
0
LINE
8
BLACK
6
CONTINUOUS
10
3.46379
20
-2.3012
11
3.46754
21
-2.3012
0
LINE
8
BLACK
6
CONTINUOUS
10
3.46754
20
-2.3012
11
3.46983
21
-2.30195
0
LINE
8
BLACK
6
CONTINUOUS
10
3.46983
20
-2.30195
11
3.47125
21
-2.30389
0
LINE
8
BLACK
6
CONTINUOUS
10
3.47125
20
-2.30389
11
3.47144
21
-2.3051
0
LINE
8
BLACK
6
CONTINUOUS
10
3.47144
20
-2.3051
11
3.47144
21
-2.3793
0
LINE
8
BLACK
6
CONTINUOUS
10
3.47144
20
-2.3793
11
3.47069
21
-2.38159
0
LINE
8
BLACK
6
CONTINUOUS
10
3.47069
20
-2.38159
11
3.4703
21
-2.38205
0
LINE
8
BLACK
6
CONTINUOUS
10
3.4703
20
-2.38205
11
3.46918
21
-2.38317
0
LINE
8
BLACK
6
CONTINUOUS
10
3.46918
20
-2.38317
11
3.46703
21
-2.38426
0
LINE
8
BLACK
6
CONTINUOUS
10
3.46703
20
-2.38426
11
3.46591
21
-2.38428
0
LINE
8
BLACK
6
CONTINUOUS
10
3.46591
20
-2.38428
11
3.46102
21
-2.38363
0
LINE
8
BLACK
6
CONTINUOUS
10
3.46102
20
-2.38363
11
3.46102
21
-2.38363
0
LINE
8
BLACK
6
CONTINUOUS
10
3.46102
20
-2.38363
11
3.45485
21
-2.38445
0
LINE
8
BLACK
6
CONTINUOUS
10
3.45485
20
-2.38445
11
3.45485
21
-2.38445
0
LINE
8
BLACK
6
CONTINUOUS
10
3.45485
20
-2.38445
11
3.4491
21
-2.38683
0
LINE
8
BLACK
6
CONTINUOUS
10
3.4491
20
-2.38683
11
3.4491
21
-2.38683
0
LINE
8
BLACK
6
CONTINUOUS
10
3.4491
20
-2.38683
11
3.44416
21
-2.39062
0
LINE
8
BLACK
6
CONTINUOUS
10
3.44416
20
-2.39062
11
3.44416
21
-2.39062
0
LINE
8
BLACK
6
CONTINUOUS
10
3.44416
20
-2.39062
11
3.44037
21
-2.39556
0
LINE
8
BLACK
6
CONTINUOUS
10
3.44037
20
-2.39556
11
3.44037
21
-2.39556
0
LINE
8
BLACK
6
CONTINUOUS
10
3.44037
20
-2.39556
11
3.43799
21
-2.40131
0
LINE
8
BLACK
6
CONTINUOUS
10
3.43799
20
-2.40131
11
3.43799
21
-2.40131
0
LINE
8
BLACK
6
CONTINUOUS
10
3.43799
20
-2.40131
11
3.43718
21
-2.40748
0
LINE
8
BLACK
6
CONTINUOUS
10
3.43718
20
-2.40748
11
3.43718
21
-2.40748
0
LINE
8
BLACK
6
CONTINUOUS
10
3.43718
20
-2.40748
11
3.43799
21
-2.41365
0
LINE
8
BLACK
6
CONTINUOUS
10
3.43799
20
-2.41365
11
3.43799
21
-2.41365
0
LINE
8
BLACK
6
CONTINUOUS
10
3.43799
20
-2.41365
11
3.44037
21
-2.4194
0
LINE
8
BLACK
6
CONTINUOUS
10
3.44037
20
-2.4194
11
3.44037
21
-2.4194
0
LINE
8
BLACK
6
CONTINUOUS
10
3.44037
20
-2.4194
11
3.44351
21
-2.42349
0
LINE
8
BLACK
6
CONTINUOUS
10
3.44351
20
-2.42349
11
3.44416
21
-2.42434
0
LINE
8
BLACK
6
CONTINUOUS
10
3.44416
20
-2.42434
11
3.4491
21
-2.42813
0
LINE
8
BLACK
6
CONTINUOUS
10
3.4491
20
-2.42813
11
3.45427
21
-2.43027
0
LINE
8
BLACK
6
CONTINUOUS
10
3.45427
20
-2.43027
11
3.4561
21
-2.43184
0
LINE
8
BLACK
6
CONTINUOUS
10
3.4561
20
-2.43184
11
3.45667
21
-2.43387
0
LINE
8
BLACK
6
CONTINUOUS
10
3.45667
20
-2.43387
11
3.45667
21
-2.48329
0
LINE
8
BLACK
6
CONTINUOUS
10
3.45667
20
-2.48329
11
3.45593
21
-2.48558
0
LINE
8
BLACK
6
CONTINUOUS
10
3.45593
20
-2.48558
11
3.45398
21
-2.48699
0
LINE
8
BLACK
6
CONTINUOUS
10
3.45398
20
-2.48699
11
3.45278
21
-2.48719
0
LINE
8
BLACK
6
CONTINUOUS
10
3.45278
20
-2.48719
11
3.43565
21
-2.48719
0
LINE
8
BLACK
6
CONTINUOUS
10
3.43565
20
-2.48719
11
3.43336
21
-2.48644
0
LINE
8
BLACK
6
CONTINUOUS
10
3.43336
20
-2.48644
11
3.43328
21
-2.48638
0
LINE
8
BLACK
6
CONTINUOUS
10
3.43328
20
-2.48638
11
3.42925
21
-2.48329
0
LINE
8
BLACK
6
CONTINUOUS
10
3.42925
20
-2.48329
11
3.42349
21
-2.4809
0
LINE
8
BLACK
6
CONTINUOUS
10
3.42349
20
-2.4809
11
3.42349
21
-2.4809
0
LINE
8
BLACK
6
CONTINUOUS
10
3.42349
20
-2.4809
11
3.41732
21
-2.48009
0
LINE
8
BLACK
6
CONTINUOUS
10
3.41732
20
-2.48009
11
3.41732
21
-2.48009
0
LINE
8
BLACK
6
CONTINUOUS
10
3.41732
20
-2.48009
11
3.41115
21
-2.4809
0
LINE
8
BLACK
6
CONTINUOUS
10
3.41115
20
-2.4809
11
3.41115
21
-2.4809
0
LINE
8
BLACK
6
CONTINUOUS
10
3.41115
20
-2.4809
11
3.4054
21
-2.48329
0
LINE
8
BLACK
6
CONTINUOUS
10
3.4054
20
-2.48329
11
3.4054
21
-2.48329
0
LINE
8
BLACK
6
CONTINUOUS
10
3.4054
20
-2.48329
11
3.40046
21
-2.48708
0
LINE
8
BLACK
6
CONTINUOUS
10
3.40046
20
-2.48708
11
3.40046
21
-2.48708
0
LINE
8
BLACK
6
CONTINUOUS
10
3.40046
20
-2.48708
11
3.39667
21
-2.49201
0
LINE
8
BLACK
6
CONTINUOUS
10
3.39667
20
-2.49201
11
3.39667
21
-2.49201
0
LINE
8
BLACK
6
CONTINUOUS
10
3.39667
20
-2.49201
11
3.39429
21
-2.49777
0
LINE
8
BLACK
6
CONTINUOUS
10
3.39429
20
-2.49777
11
3.39429
21
-2.49777
0
LINE
8
BLACK
6
CONTINUOUS
10
3.39429
20
-2.49777
11
3.39348
21
-2.50394
0
LINE
8
BLACK
6
CONTINUOUS
10
3.39348
20
-2.50394
11
3.39348
21
-2.50394
0
LINE
8
BLACK
6
CONTINUOUS
10
3.39348
20
-2.50394
11
3.39429
21
-2.51011
0
LINE
8
BLACK
6
CONTINUOUS
10
3.39429
20
-2.51011
11
3.39429
21
-2.51011
0
LINE
8
BLACK
6
CONTINUOUS
10
3.39429
20
-2.51011
11
3.39667
21
-2.51586
0
LINE
8
BLACK
6
CONTINUOUS
10
3.39667
20
-2.51586
11
3.39667
21
-2.51586
0
LINE
8
BLACK
6
CONTINUOUS
10
3.39667
20
-2.51586
11
3.39667
21
-2.51586
0
LINE
8
BLACK
6
CONTINUOUS
10
3.39667
20
-2.51586
11
3.40046
21
-2.5208
0
LINE
8
BLACK
6
CONTINUOUS
10
3.40046
20
-2.5208
11
3.40151
21
-2.5216
0
LINE
8
BLACK
6
CONTINUOUS
10
3.40151
20
-2.5216
11
3.40298
21
-2.52273
0
LINE
8
BLACK
6
CONTINUOUS
10
3.40298
20
-2.52273
11
3.40435
21
-2.52472
0
LINE
8
BLACK
6
CONTINUOUS
10
3.40435
20
-2.52472
11
3.40451
21
-2.52583
0
LINE
8
BLACK
6
CONTINUOUS
10
3.40451
20
-2.52583
11
3.40451
21
-2.53953
0
LINE
8
BLACK
6
CONTINUOUS
10
3.40451
20
-2.53953
11
3.40376
21
-2.54183
0
LINE
8
BLACK
6
CONTINUOUS
10
3.40376
20
-2.54183
11
3.40337
21
-2.54229
0
LINE
8
BLACK
6
CONTINUOUS
10
3.40337
20
-2.54229
11
3.29356
21
-2.6521
0
LINE
8
BLACK
6
CONTINUOUS
10
3.29356
20
-2.6521
11
3.29343
21
-2.65221
0
LINE
8
BLACK
6
CONTINUOUS
10
3.29343
20
-2.65221
11
3.2922
21
-2.65325
0
LINE
8
BLACK
6
CONTINUOUS
10
3.2922
20
-2.65325
11
3.2922
21
-2.65325
0
LINE
8
BLACK
6
CONTINUOUS
10
3.2922
20
-2.65325
11
3.29139
21
-2.65465
0
LINE
8
BLACK
6
CONTINUOUS
10
3.29139
20
-2.65465
11
3.2913
21
-2.65479
0
LINE
8
BLACK
6
CONTINUOUS
10
3.2913
20
-2.65479
11
3.29037
21
-2.65611
0
LINE
8
BLACK
6
CONTINUOUS
10
3.29037
20
-2.65611
11
3.29037
21
-2.65612
0
LINE
8
BLACK
6
CONTINUOUS
10
3.29037
20
-2.65612
11
3.29036
21
-2.65617
0
LINE
8
BLACK
6
CONTINUOUS
10
3.29036
20
-2.65617
11
3.28997
21
-2.65711
0
LINE
8
BLACK
6
CONTINUOUS
10
3.28997
20
-2.65711
11
3.28994
21
-2.65716
0
LINE
8
BLACK
6
CONTINUOUS
10
3.28994
20
-2.65716
11
3.28994
21
-2.65716
0
LINE
8
BLACK
6
CONTINUOUS
10
3.28994
20
-2.65716
11
3.28966
21
-2.65875
0
LINE
8
BLACK
6
CONTINUOUS
10
3.28966
20
-2.65875
11
3.28962
21
-2.65892
0
LINE
8
BLACK
6
CONTINUOUS
10
3.28962
20
-2.65892
11
3.2892
21
-2.66048
0
LINE
8
BLACK
6
CONTINUOUS
10
3.2892
20
-2.66048
11
3.2892
21
-2.66048
0
LINE
8
BLACK
6
CONTINUOUS
10
3.2892
20
-2.66048
11
3.28934
21
-2.66209
0
LINE
8
BLACK
6
CONTINUOUS
10
3.28934
20
-2.66209
11
3.28935
21
-2.66226
0
LINE
8
BLACK
6
CONTINUOUS
10
3.28935
20
-2.66226
11
3.28935
21
-2.66537
0
LINE
8
BLACK
6
CONTINUOUS
10
3.28935
20
-2.66537
11
3.28861
21
-2.66766
0
LINE
8
BLACK
6
CONTINUOUS
10
3.28861
20
-2.66766
11
3.28666
21
-2.66908
0
LINE
8
BLACK
6
CONTINUOUS
10
3.28666
20
-2.66908
11
3.28545
21
-2.66927
0
LINE
8
BLACK
6
CONTINUOUS
10
3.28545
20
-2.66927
11
3.24725
21
-2.66927
0
LINE
8
BLACK
6
CONTINUOUS
10
3.24725
20
-2.66927
11
3.24725
21
-2.66927
0
LINE
8
BLACK
6
CONTINUOUS
10
3.24725
20
-2.66927
11
3.24725
21
-2.66927
0
LINE
8
BLACK
6
CONTINUOUS
10
3.24725
20
-2.66927
11
3.24495
21
-2.66973
0
LINE
8
BLACK
6
CONTINUOUS
10
3.24495
20
-2.66973
11
3.24495
21
-2.66973
0
LINE
8
BLACK
6
CONTINUOUS
10
3.24495
20
-2.66973
11
3.24234
21
-2.67147
0
LINE
8
BLACK
6
CONTINUOUS
10
3.24234
20
-2.67147
11
3.24234
21
-2.67147
0
LINE
8
BLACK
6
CONTINUOUS
10
3.24234
20
-2.67147
11
3.2406
21
-2.67409
0
LINE
8
BLACK
6
CONTINUOUS
10
3.2406
20
-2.67409
11
3.2406
21
-2.67409
0
LINE
8
BLACK
6
CONTINUOUS
10
3.2406
20
-2.67409
11
3.24014
21
-2.67639
0
LINE
8
BLACK
6
CONTINUOUS
10
3.24014
20
-2.67639
11
3.24014
21
-2.67639
0
LINE
8
BLACK
6
CONTINUOUS
10
3.24014
20
-2.67639
11
3.24014
21
-2.71731
0
LINE
8
BLACK
6
CONTINUOUS
10
3.24014
20
-2.71731
11
3.24014
21
-2.71731
0
LINE
8
BLACK
6
CONTINUOUS
10
3.24014
20
-2.71731
11
3.2406
21
-2.71962
0
LINE
8
BLACK
6
CONTINUOUS
10
3.2406
20
-2.71962
11
3.2406
21
-2.71962
0
LINE
8
BLACK
6
CONTINUOUS
10
3.2406
20
-2.71962
11
3.24234
21
-2.72223
0
LINE
8
BLACK
6
CONTINUOUS
10
3.24234
20
-2.72223
11
3.24495
21
-2.72397
0
LINE
8
BLACK
6
CONTINUOUS
10
3.24495
20
-2.72397
11
3.2467
21
-2.72432
0
LINE
8
BLACK
6
CONTINUOUS
10
3.2467
20
-2.72432
11
3.24725
21
-2.72443
0
LINE
8
BLACK
6
CONTINUOUS
10
3.24725
20
-2.72443
11
3.24725
21
-2.72443
0
LINE
8
BLACK
6
CONTINUOUS
10
3.24725
20
-2.72443
11
3.24725
21
-2.72443
0
LINE
8
BLACK
6
CONTINUOUS
10
3.24725
20
-2.72443
11
3.24725
21
-2.72443
0
LINE
8
BLACK
6
CONTINUOUS
10
3.24725
20
-2.72443
11
3.35708
21
-2.72443
0
LINE
8
BLACK
6
CONTINUOUS
10
3.35708
20
-2.72443
11
3.35708
21
-2.72443
0
LINE
8
BLACK
6
CONTINUOUS
10
3.35708
20
-2.72443
11
3.35938
21
-2.72397
0
LINE
8
BLACK
6
CONTINUOUS
10
3.35938
20
-2.72397
11
3.36199
21
-2.72223
0
LINE
8
BLACK
6
CONTINUOUS
10
3.36199
20
-2.72223
11
3.36373
21
-2.71962
0
LINE
8
BLACK
6
CONTINUOUS
10
3.36373
20
-2.71962
11
3.36419
21
-2.71731
0
LINE
8
BLACK
6
CONTINUOUS
10
3.36419
20
-2.71731
11
3.36419
21
-2.67639
0
LINE
8
BLACK
6
CONTINUOUS
10
3.36419
20
-2.67639
11
3.36373
21
-2.67409
0
LINE
8
BLACK
6
CONTINUOUS
10
3.36373
20
-2.67409
11
3.36199
21
-2.67147
0
LINE
8
BLACK
6
CONTINUOUS
10
3.36199
20
-2.67147
11
3.36019
21
-2.67027
0
LINE
8
BLACK
6
CONTINUOUS
10
3.36019
20
-2.67027
11
3.35938
21
-2.66973
0
LINE
8
BLACK
6
CONTINUOUS
10
3.35938
20
-2.66973
11
3.35938
21
-2.66973
0
LINE
8
BLACK
6
CONTINUOUS
10
3.35938
20
-2.66973
11
3.35938
21
-2.66973
0
LINE
8
BLACK
6
CONTINUOUS
10
3.35938
20
-2.66973
11
3.35938
21
-2.66973
0
LINE
8
BLACK
6
CONTINUOUS
10
3.35938
20
-2.66973
11
3.35708
21
-2.66927
0
LINE
8
BLACK
6
CONTINUOUS
10
3.35708
20
-2.66927
11
3.35708
21
-2.66927
0
LINE
8
BLACK
6
CONTINUOUS
10
3.35708
20
-2.66927
11
3.35708
21
-2.66927
0
LINE
8
BLACK
6
CONTINUOUS
10
3.35708
20
-2.66927
11
3.32204
21
-2.66927
0
LINE
8
BLACK
6
CONTINUOUS
10
3.32204
20
-2.66927
11
3.31975
21
-2.66853
0
LINE
8
BLACK
6
CONTINUOUS
10
3.31975
20
-2.66853
11
3.31833
21
-2.66658
0
LINE
8
BLACK
6
CONTINUOUS
10
3.31833
20
-2.66658
11
3.31833
21
-2.66417
0
LINE
8
BLACK
6
CONTINUOUS
10
3.31833
20
-2.66417
11
3.31928
21
-2.66262
0
LINE
8
BLACK
6
CONTINUOUS
10
3.31928
20
-2.66262
11
3.42593
21
-2.55597
0
LINE
8
BLACK
6
CONTINUOUS
10
3.42593
20
-2.55597
11
3.42605
21
-2.55586
0
LINE
8
BLACK
6
CONTINUOUS
10
3.42605
20
-2.55586
11
3.42729
21
-2.55482
0
LINE
8
BLACK
6
CONTINUOUS
10
3.42729
20
-2.55482
11
3.4281
21
-2.55342
0
LINE
8
BLACK
6
CONTINUOUS
10
3.4281
20
-2.55342
11
3.42819
21
-2.55328
0
LINE
8
BLACK
6
CONTINUOUS
10
3.42819
20
-2.55328
11
3.42912
21
-2.55196
0
LINE
8
BLACK
6
CONTINUOUS
10
3.42912
20
-2.55196
11
3.42913
21
-2.5519
0
LINE
8
BLACK
6
CONTINUOUS
10
3.42913
20
-2.5519
11
3.42952
21
-2.55096
0
LINE
8
BLACK
6
CONTINUOUS
10
3.42952
20
-2.55096
11
3.42955
21
-2.55091
0
LINE
8
BLACK
6
CONTINUOUS
10
3.42955
20
-2.55091
11
3.42983
21
-2.54932
0
LINE
8
BLACK
6
CONTINUOUS
10
3.42983
20
-2.54932
11
3.42987
21
-2.54915
0
LINE
8
BLACK
6
CONTINUOUS
10
3.42987
20
-2.54915
11
3.43029
21
-2.54759
0
LINE
8
BLACK
6
CONTINUOUS
10
3.43029
20
-2.54759
11
3.43015
21
-2.54598
0
LINE
8
BLACK
6
CONTINUOUS
10
3.43015
20
-2.54598
11
3.43014
21
-2.54581
0
LINE
8
BLACK
6
CONTINUOUS
10
3.43014
20
-2.54581
11
3.43014
21
-2.52583
0
LINE
8
BLACK
6
CONTINUOUS
10
3.43014
20
-2.52583
11
3.43088
21
-2.52353
0
LINE
8
BLACK
6
CONTINUOUS
10
3.43088
20
-2.52353
11
3.43166
21
-2.52273
0
LINE
8
BLACK
6
CONTINUOUS
10
3.43166
20
-2.52273
11
3.43418
21
-2.5208
0
LINE
8
BLACK
6
CONTINUOUS
10
3.43418
20
-2.5208
11
3.43797
21
-2.51586
0
LINE
8
BLACK
6
CONTINUOUS
10
3.43797
20
-2.51586
11
3.43824
21
-2.51522
0
LINE
8
BLACK
6
CONTINUOUS
10
3.43824
20
-2.51522
11
3.4398
21
-2.51339
0
LINE
8
BLACK
6
CONTINUOUS
10
3.4398
20
-2.51339
11
3.44184
21
-2.51281
0
LINE
8
BLACK
6
CONTINUOUS
10
3.44184
20
-2.51281
11
3.45278
21
-2.51281
0
LINE
8
BLACK
6
CONTINUOUS
10
3.45278
20
-2.51281
11
3.45507
21
-2.51356
0
LINE
8
BLACK
6
CONTINUOUS
10
3.45507
20
-2.51356
11
3.45648
21
-2.51551
0
LINE
8
BLACK
6
CONTINUOUS
10
3.45648
20
-2.51551
11
3.45667
21
-2.51671
0
LINE
8
BLACK
6
CONTINUOUS
10
3.45667
20
-2.51671
11
3.45667
21
-2.54015
0
LINE
8
BLACK
6
CONTINUOUS
10
3.45667
20
-2.54015
11
3.45667
21
-2.54015
0
LINE
8
BLACK
6
CONTINUOUS
10
3.45667
20
-2.54015
11
3.45713
21
-2.54245
0
LINE
8
BLACK
6
CONTINUOUS
10
3.45713
20
-2.54245
11
3.45713
21
-2.54245
0
LINE
8
BLACK
6
CONTINUOUS
10
3.45713
20
-2.54245
11
3.45888
21
-2.54506
0
LINE
8
BLACK
6
CONTINUOUS
10
3.45888
20
-2.54506
11
3.45888
21
-2.54506
0
LINE
8
BLACK
6
CONTINUOUS
10
3.45888
20
-2.54506
11
3.46149
21
-2.54681
0
LINE
8
BLACK
6
CONTINUOUS
10
3.46149
20
-2.54681
11
3.46324
21
-2.54715
0
LINE
8
BLACK
6
CONTINUOUS
10
3.46324
20
-2.54715
11
3.46379
21
-2.54726
0
LINE
8
BLACK
6
CONTINUOUS
10
3.46379
20
-2.54726
11
3.46379
21
-2.54726
0
LINE
8
BLACK
6
CONTINUOUS
10
3.46379
20
-2.54726
11
3.46379
21
-2.54726
0
LINE
8
BLACK
6
CONTINUOUS
10
3.46379
20
-2.54726
11
3.46379
21
-2.54726
0
LINE
8
BLACK
6
CONTINUOUS
10
3.46379
20
-2.54726
11
3.50471
21
-2.54726
0
LINE
8
BLACK
6
CONTINUOUS
10
3.50471
20
-2.54726
11
3.50471
21
-2.54726
0
LINE
8
BLACK
6
CONTINUOUS
10
3.50471
20
-2.54726
11
3.50702
21
-2.54681
0
LINE
8
BLACK
6
CONTINUOUS
10
3.50702
20
-2.54681
11
3.50963
21
-2.54506
0
LINE
8
BLACK
6
CONTINUOUS
10
3.50963
20
-2.54506
11
3.51137
21
-2.54245
0
LINE
8
BLACK
6
CONTINUOUS
10
3.51137
20
-2.54245
11
3.51183
21
-2.54015
0
LINE
8
BLACK
6
CONTINUOUS
10
3.51183
20
-2.54015
11
3.51183
21
-2.43032
0
LINE
8
BLACK
6
CONTINUOUS
10
3.51183
20
-2.43032
11
3.51137
21
-2.42802
0
LINE
8
BLACK
6
CONTINUOUS
10
3.51137
20
-2.42802
11
3.50963
21
-2.42541
0
LINE
8
BLACK
6
CONTINUOUS
10
3.50963
20
-2.42541
11
3.50803
21
-2.42434
0
LINE
8
BLACK
6
CONTINUOUS
10
3.50803
20
-2.42434
11
3.50702
21
-2.42367
0
LINE
8
BLACK
6
CONTINUOUS
10
3.50702
20
-2.42367
11
3.50702
21
-2.42367
0
LINE
8
BLACK
6
CONTINUOUS
10
3.50702
20
-2.42367
11
3.50702
21
-2.42367
0
LINE
8
BLACK
6
CONTINUOUS
10
3.50702
20
-2.42367
11
3.50702
21
-2.42367
0
LINE
8
BLACK
6
CONTINUOUS
10
3.50702
20
-2.42367
11
3.50471
21
-2.42321
0
LINE
8
BLACK
6
CONTINUOUS
10
3.50471
20
-2.42321
11
3.50471
21
-2.42321
0
LINE
8
BLACK
6
CONTINUOUS
10
3.50471
20
-2.42321
11
3.50471
21
-2.42321
0
LINE
8
BLACK
6
CONTINUOUS
10
3.50471
20
-2.42321
11
3.48593
21
-2.42321
0
LINE
8
BLACK
6
CONTINUOUS
10
3.48593
20
-2.42321
11
3.48364
21
-2.42246
0
LINE
8
BLACK
6
CONTINUOUS
10
3.48364
20
-2.42246
11
3.48222
21
-2.42052
0
LINE
8
BLACK
6
CONTINUOUS
10
3.48222
20
-2.42052
11
3.48222
21
-2.41811
0
LINE
8
BLACK
6
CONTINUOUS
10
3.48222
20
-2.41811
11
3.48233
21
-2.41782
0
LINE
8
BLACK
6
CONTINUOUS
10
3.48233
20
-2.41782
11
3.48406
21
-2.41365
0
LINE
8
BLACK
6
CONTINUOUS
10
3.48406
20
-2.41365
11
3.48406
21
-2.41365
0
LINE
8
BLACK
6
CONTINUOUS
10
3.48406
20
-2.41365
11
3.48406
21
-2.41365
0
LINE
8
BLACK
6
CONTINUOUS
10
3.48406
20
-2.41365
11
3.48487
21
-2.40748
0
LINE
8
BLACK
6
CONTINUOUS
10
3.48487
20
-2.40748
11
3.48468
21
-2.40607
0
LINE
8
BLACK
6
CONTINUOUS
10
3.48468
20
-2.40607
11
3.48512
21
-2.4037
0
LINE
8
BLACK
6
CONTINUOUS
10
3.48512
20
-2.4037
11
3.48579
21
-2.4028
0
LINE
8
BLACK
6
CONTINUOUS
10
3.48579
20
-2.4028
11
3.49039
21
-2.39821
0
LINE
8
BLACK
6
CONTINUOUS
10
3.49039
20
-2.39821
11
3.49253
21
-2.39711
0
LINE
8
BLACK
6
CONTINUOUS
10
3.49253
20
-2.39711
11
3.49314
21
-2.39707
0
LINE
8
BLACK
6
CONTINUOUS
10
3.49314
20
-2.39707
11
3.52902
21
-2.39707
0
LINE
8
BLACK
6
CONTINUOUS
10
3.52902
20
-2.39707
11
3.53131
21
-2.39781
0
LINE
8
BLACK
6
CONTINUOUS
10
3.53131
20
-2.39781
11
3.53273
21
-2.39976
0
LINE
8
BLACK
6
CONTINUOUS
10
3.53273
20
-2.39976
11
3.53273
21
-2.40217
0
LINE
8
BLACK
6
CONTINUOUS
10
3.53273
20
-2.40217
11
3.53211
21
-2.40334
0
LINE
8
BLACK
6
CONTINUOUS
10
3.53211
20
-2.40334
11
3.53053
21
-2.4054
0
LINE
8
BLACK
6
CONTINUOUS
10
3.53053
20
-2.4054
11
3.52815
21
-2.41115
0
LINE
8
BLACK
6
CONTINUOUS
10
3.52815
20
-2.41115
11
3.52815
21
-2.41115
0
LINE
8
BLACK
6
CONTINUOUS
10
3.52815
20
-2.41115
11
3.52734
21
-2.41732
0
LINE
8
BLACK
6
CONTINUOUS
10
3.52734
20
-2.41732
11
3.52734
21
-2.41732
0
LINE
8
BLACK
6
CONTINUOUS
10
3.52734
20
-2.41732
11
3.52815
21
-2.42349
0
LINE
8
BLACK
6
CONTINUOUS
10
3.52815
20
-2.42349
11
3.52815
21
-2.42349
0
LINE
8
BLACK
6
CONTINUOUS
10
3.52815
20
-2.42349
11
3.53053
21
-2.42925
0
LINE
8
BLACK
6
CONTINUOUS
10
3.53053
20
-2.42925
11
3.53053
21
-2.42925
0
LINE
8
BLACK
6
CONTINUOUS
10
3.53053
20
-2.42925
11
3.53448
21
-2.43439
0
LINE
8
BLACK
6
CONTINUOUS
10
3.53448
20
-2.43439
11
3.53442
21
-2.43443
0
LINE
8
BLACK
6
CONTINUOUS
10
3.53442
20
-2.43443
11
3.53537
21
-2.43628
0
LINE
8
BLACK
6
CONTINUOUS
10
3.53537
20
-2.43628
11
3.53541
21
-2.43689
0
LINE
8
BLACK
6
CONTINUOUS
10
3.53541
20
-2.43689
11
3.53541
21
-2.53398
0
LINE
8
BLACK
6
CONTINUOUS
10
3.53541
20
-2.53398
11
3.53467
21
-2.53628
0
LINE
8
BLACK
6
CONTINUOUS
10
3.53467
20
-2.53628
11
3.53389
21
-2.53708
0
LINE
8
BLACK
6
CONTINUOUS
10
3.53389
20
-2.53708
11
3.53235
21
-2.53826
0
LINE
8
BLACK
6
CONTINUOUS
10
3.53235
20
-2.53826
11
3.53235
21
-2.53826
0
LINE
8
BLACK
6
CONTINUOUS
10
3.53235
20
-2.53826
11
3.52856
21
-2.5432
0
LINE
8
BLACK
6
CONTINUOUS
10
3.52856
20
-2.5432
11
3.52856
21
-2.5432
0
LINE
8
BLACK
6
CONTINUOUS
10
3.52856
20
-2.5432
11
3.52618
21
-2.54895
0
LINE
8
BLACK
6
CONTINUOUS
10
3.52618
20
-2.54895
11
3.52618
21
-2.54895
0
LINE
8
BLACK
6
CONTINUOUS
10
3.52618
20
-2.54895
11
3.52537
21
-2.55512
0
LINE
8
BLACK
6
CONTINUOUS
10
3.52537
20
-2.55512
11
3.52537
21
-2.55512
0
LINE
8
BLACK
6
CONTINUOUS
10
3.52537
20
-2.55512
11
3.52618
21
-2.56129
0
LINE
8
BLACK
6
CONTINUOUS
10
3.52618
20
-2.56129
11
3.52618
21
-2.56129
0
LINE
8
BLACK
6
CONTINUOUS
10
3.52618
20
-2.56129
11
3.52856
21
-2.56704
0
LINE
8
BLACK
6
CONTINUOUS
10
3.52856
20
-2.56704
11
3.52856
21
-2.56704
0
LINE
8
BLACK
6
CONTINUOUS
10
3.52856
20
-2.56704
11
3.5323
21
-2.57192
0
LINE
8
BLACK
6
CONTINUOUS
10
3.5323
20
-2.57192
11
3.53235
21
-2.57198
0
LINE
8
BLACK
6
CONTINUOUS
10
3.53235
20
-2.57198
11
3.53729
21
-2.57577
0
LINE
8
BLACK
6
CONTINUOUS
10
3.53729
20
-2.57577
11
3.53729
21
-2.57577
0
LINE
8
BLACK
6
CONTINUOUS
10
3.53729
20
-2.57577
11
3.53729
21
-2.57577
0
LINE
8
BLACK
6
CONTINUOUS
10
3.53729
20
-2.57577
11
3.54027
21
-2.57701
0
LINE
8
BLACK
6
CONTINUOUS
10
3.54027
20
-2.57701
11
3.54304
21
-2.57815
0
LINE
8
BLACK
6
CONTINUOUS
10
3.54304
20
-2.57815
11
3.54767
21
-2.57876
0
LINE
8
BLACK
6
CONTINUOUS
10
3.54767
20
-2.57876
11
3.54921
21
-2.57896
0
LINE
8
BLACK
6
CONTINUOUS
10
3.54921
20
-2.57896
11
3.54921
21
-2.57896
0
LINE
8
BLACK
6
CONTINUOUS
10
3.54921
20
-2.57896
11
3.54921
21
-2.57896
0
LINE
8
BLACK
6
CONTINUOUS
10
3.54921
20
-2.57896
11
3.55045
21
-2.5788
0
LINE
8
BLACK
6
CONTINUOUS
10
3.55045
20
-2.5788
11
3.55538
21
-2.57815
0
LINE
8
BLACK
6
CONTINUOUS
10
3.55538
20
-2.57815
11
3.56114
21
-2.57577
0
LINE
8
BLACK
6
CONTINUOUS
10
3.56114
20
-2.57577
11
3.5616
21
-2.57541
0
LINE
8
BLACK
6
CONTINUOUS
10
3.5616
20
-2.57541
11
3.56387
21
-2.57461
0
LINE
8
BLACK
6
CONTINUOUS
10
3.56387
20
-2.57461
11
3.56618
21
-2.57529
0
LINE
8
BLACK
6
CONTINUOUS
10
3.56618
20
-2.57529
11
3.56635
21
-2.57541
0
LINE
8
BLACK
6
CONTINUOUS
10
3.56635
20
-2.57541
11
3.56682
21
-2.57577
0
LINE
8
BLACK
6
CONTINUOUS
10
3.56682
20
-2.57577
11
3.56682
21
-2.57577
0
LINE
8
BLACK
6
CONTINUOUS
10
3.56682
20
-2.57577
11
3.56682
21
-2.57577
0
LINE
8
BLACK
6
CONTINUOUS
10
3.56682
20
-2.57577
11
3.5698
21
-2.57701
0
LINE
8
BLACK
6
CONTINUOUS
10
3.5698
20
-2.57701
11
3.57257
21
-2.57815
0
LINE
8
BLACK
6
CONTINUOUS
10
3.57257
20
-2.57815
11
3.5772
21
-2.57876
0
LINE
8
BLACK
6
CONTINUOUS
10
3.5772
20
-2.57876
11
3.57874
21
-2.57896
0
LINE
8
BLACK
6
CONTINUOUS
10
3.57874
20
-2.57896
11
3.57874
21
-2.57896
0
LINE
8
BLACK
6
CONTINUOUS
10
3.57874
20
-2.57896
11
3.57874
21
-2.57896
0
LINE
8
BLACK
6
CONTINUOUS
10
3.57874
20
-2.57896
11
3.57997
21
-2.5788
0
LINE
8
BLACK
6
CONTINUOUS
10
3.57997
20
-2.5788
11
3.58491
21
-2.57815
0
LINE
8
BLACK
6
CONTINUOUS
10
3.58491
20
-2.57815
11
3.59026
21
-2.57594
0
LINE
8
BLACK
6
CONTINUOUS
10
3.59026
20
-2.57594
11
3.59266
21
-2.57575
0
LINE
8
BLACK
6
CONTINUOUS
10
3.59266
20
-2.57575
11
3.59472
21
-2.57701
0
LINE
8
BLACK
6
CONTINUOUS
10
3.59472
20
-2.57701
11
3.59564
21
-2.57923
0
LINE
8
BLACK
6
CONTINUOUS
10
3.59564
20
-2.57923
11
3.59565
21
-2.57954
0
LINE
8
BLACK
6
CONTINUOUS
10
3.59565
20
-2.57954
11
3.59565
21
-2.64938
0
LINE
8
BLACK
6
CONTINUOUS
10
3.59565
20
-2.64938
11
3.59491
21
-2.65167
0
LINE
8
BLACK
6
CONTINUOUS
10
3.59491
20
-2.65167
11
3.59451
21
-2.65213
0
LINE
8
BLACK
6
CONTINUOUS
10
3.59451
20
-2.65213
11
3.58616
21
-2.66048
0
LINE
8
BLACK
6
CONTINUOUS
10
3.58616
20
-2.66048
11
3.57851
21
-2.66813
0
LINE
8
BLACK
6
CONTINUOUS
10
3.57851
20
-2.66813
11
3.57636
21
-2.66922
0
LINE
8
BLACK
6
CONTINUOUS
10
3.57636
20
-2.66922
11
3.57575
21
-2.66927
0
LINE
8
BLACK
6
CONTINUOUS
10
3.57575
20
-2.66927
11
3.49332
21
-2.66927
0
LINE
8
BLACK
6
CONTINUOUS
10
3.49332
20
-2.66927
11
3.49332
21
-2.66927
0
LINE
8
BLACK
6
CONTINUOUS
10
3.49332
20
-2.66927
11
3.49332
21
-2.66927
0
LINE
8
BLACK
6
CONTINUOUS
10
3.49332
20
-2.66927
11
3.49101
21
-2.66973
0
LINE
8
BLACK
6
CONTINUOUS
10
3.49101
20
-2.66973
11
3.49101
21
-2.66973
0
LINE
8
BLACK
6
CONTINUOUS
10
3.49101
20
-2.66973
11
3.4884
21
-2.67147
0
LINE
8
BLACK
6
CONTINUOUS
10
3.4884
20
-2.67147
11
3.4884
21
-2.67147
0
LINE
8
BLACK
6
CONTINUOUS
10
3.4884
20
-2.67147
11
3.48666
21
-2.67409
0
LINE
8
BLACK
6
CONTINUOUS
10
3.48666
20
-2.67409
11
3.48666
21
-2.67409
0
LINE
8
BLACK
6
CONTINUOUS
10
3.48666
20
-2.67409
11
3.4862
21
-2.67639
0
LINE
8
BLACK
6
CONTINUOUS
10
3.4862
20
-2.67639
11
3.4862
21
-2.67639
0
LINE
8
BLACK
6
CONTINUOUS
10
3.4862
20
-2.67639
11
3.4862
21
-2.71731
0
LINE
8
BLACK
6
CONTINUOUS
10
3.4862
20
-2.71731
11
3.4862
21
-2.71731
0
LINE
8
BLACK
6
CONTINUOUS
10
3.4862
20
-2.71731
11
3.48666
21
-2.71962
0
LINE
8
BLACK
6
CONTINUOUS
10
3.48666
20
-2.71962
11
3.48666
21
-2.71962
0
LINE
8
BLACK
6
CONTINUOUS
10
3.48666
20
-2.71962
11
3.4884
21
-2.72223
0
LINE
8
BLACK
6
CONTINUOUS
10
3.4884
20
-2.72223
11
3.49101
21
-2.72397
0
LINE
8
BLACK
6
CONTINUOUS
10
3.49101
20
-2.72397
11
3.49276
21
-2.72432
0
LINE
8
BLACK
6
CONTINUOUS
10
3.49276
20
-2.72432
11
3.49332
21
-2.72443
0
LINE
8
BLACK
6
CONTINUOUS
10
3.49332
20
-2.72443
11
3.49332
21
-2.72443
0
LINE
8
BLACK
6
CONTINUOUS
10
3.49332
20
-2.72443
11
3.49332
21
-2.72443
0
LINE
8
BLACK
6
CONTINUOUS
10
3.49332
20
-2.72443
11
3.49332
21
-2.72443
0
LINE
8
BLACK
6
CONTINUOUS
10
3.49332
20
-2.72443
11
3.60314
21
-2.72443
0
LINE
8
BLACK
6
CONTINUOUS
10
3.60314
20
-2.72443
11
3.60314
21
-2.72443
0
LINE
8
BLACK
6
CONTINUOUS
10
3.60314
20
-2.72443
11
3.60544
21
-2.72397
0
LINE
8
BLACK
6
CONTINUOUS
10
3.60544
20
-2.72397
11
3.60805
21
-2.72223
0
LINE
8
BLACK
6
CONTINUOUS
10
3.60805
20
-2.72223
11
3.6098
21
-2.71962
0
LINE
8
BLACK
6
CONTINUOUS
10
3.6098
20
-2.71962
11
3.61026
21
-2.71731
0
LINE
8
BLACK
6
CONTINUOUS
10
3.61026
20
-2.71731
11
3.61026
21
-2.67639
0
LINE
8
BLACK
6
CONTINUOUS
10
3.61026
20
-2.67639
11
3.61004
21
-2.6753
0
LINE
8
BLACK
6
CONTINUOUS
10
3.61004
20
-2.6753
11
3.61032
21
-2.67291
0
LINE
8
BLACK
6
CONTINUOUS
10
3.61032
20
-2.67291
11
3.61111
21
-2.67178
0
LINE
8
BLACK
6
CONTINUOUS
10
3.61111
20
-2.67178
11
3.61537
21
-2.66751
0
LINE
8
BLACK
6
CONTINUOUS
10
3.61537
20
-2.66751
11
3.61752
21
-2.66642
0
LINE
8
BLACK
6
CONTINUOUS
10
3.61752
20
-2.66642
11
3.6199
21
-2.6668
0
LINE
8
BLACK
6
CONTINUOUS
10
3.6199
20
-2.6668
11
3.6216
21
-2.6685
0
LINE
8
BLACK
6
CONTINUOUS
10
3.6216
20
-2.6685
11
3.62203
21
-2.67027
0
LINE
8
BLACK
6
CONTINUOUS
10
3.62203
20
-2.67027
11
3.62203
21
-2.79519
0
LINE
8
BLACK
6
CONTINUOUS
10
3.62203
20
-2.79519
11
3.62202
21
-2.79536
0
LINE
8
BLACK
6
CONTINUOUS
10
3.62202
20
-2.79536
11
3.62195
21
-2.79612
0
LINE
8
BLACK
6
CONTINUOUS
10
3.62195
20
-2.79612
11
3.62118
21
-2.79793
0
LINE
8
BLACK
6
CONTINUOUS
10
3.62118
20
-2.79793
11
3.62154
21
-2.79854
0
LINE
8
BLACK
6
CONTINUOUS
10
3.62154
20
-2.79854
11
3.62161
21
-2.79975
0
LINE
8
BLACK
6
CONTINUOUS
10
3.62161
20
-2.79975
11
3.62137
21
-2.80212
0
LINE
8
BLACK
6
CONTINUOUS
10
3.62137
20
-2.80212
11
3.62126
21
-2.80274
0
LINE
8
BLACK
6
CONTINUOUS
10
3.62126
20
-2.80274
11
3.62054
21
-2.80542
0
LINE
8
BLACK
6
CONTINUOUS
10
3.62054
20
-2.80542
11
3.62053
21
-2.80548
0
LINE
8
BLACK
6
CONTINUOUS
10
3.62053
20
-2.80548
11
3.6194
21
-2.80918
0
LINE
8
BLACK
6
CONTINUOUS
10
3.6194
20
-2.80918
11
3.6192
21
-2.8097
0
LINE
8
BLACK
6
CONTINUOUS
10
3.6192
20
-2.8097
11
3.61793
21
-2.81243
0
LINE
8
BLACK
6
CONTINUOUS
10
3.61793
20
-2.81243
11
3.61788
21
-2.81252
0
LINE
8
BLACK
6
CONTINUOUS
10
3.61788
20
-2.81252
11
3.6161
21
-2.81587
0
LINE
8
BLACK
6
CONTINUOUS
10
3.6161
20
-2.81587
11
3.61598
21
-2.81607
0
LINE
8
BLACK
6
CONTINUOUS
10
3.61598
20
-2.81607
11
3.61412
21
-2.81871
0
LINE
8
BLACK
6
CONTINUOUS
10
3.61412
20
-2.81871
11
3.61403
21
-2.81883
0
LINE
8
BLACK
6
CONTINUOUS
10
3.61403
20
-2.81883
11
3.61167
21
-2.8217
0
LINE
8
BLACK
6
CONTINUOUS
10
3.61167
20
-2.8217
11
3.61155
21
-2.82185
0
LINE
8
BLACK
6
CONTINUOUS
10
3.61155
20
-2.82185
11
3.60925
21
-2.82414
0
LINE
8
BLACK
6
CONTINUOUS
10
3.60925
20
-2.82414
11
3.60911
21
-2.82427
0
LINE
8
BLACK
6
CONTINUOUS
10
3.60911
20
-2.82427
11
3.60623
21
-2.82663
0
LINE
8
BLACK
6
CONTINUOUS
10
3.60623
20
-2.82663
11
3.60611
21
-2.82672
0
LINE
8
BLACK
6
CONTINUOUS
10
3.60611
20
-2.82672
11
3.60347
21
-2.82857
0
LINE
8
BLACK
6
CONTINUOUS
10
3.60347
20
-2.82857
11
3.60327
21
-2.8287
0
LINE
8
BLACK
6
CONTINUOUS
10
3.60327
20
-2.8287
11
3.59993
21
-2.83048
0
LINE
8
BLACK
6
CONTINUOUS
10
3.59993
20
-2.83048
11
3.59983
21
-2.83053
0
LINE
8
BLACK
6
CONTINUOUS
10
3.59983
20
-2.83053
11
3.5971
21
-2.8318
0
LINE
8
BLACK
6
CONTINUOUS
10
3.5971
20
-2.8318
11
3.59658
21
-2.832
0
LINE
8
BLACK
6
CONTINUOUS
10
3.59658
20
-2.832
11
3.59288
21
-2.83312
0
LINE
8
BLACK
6
CONTINUOUS
10
3.59288
20
-2.83312
11
3.59282
21
-2.83314
0
LINE
8
BLACK
6
CONTINUOUS
10
3.59282
20
-2.83314
11
3.59015
21
-2.83386
0
LINE
8
BLACK
6
CONTINUOUS
10
3.59015
20
-2.83386
11
3.58952
21
-2.83397
0
LINE
8
BLACK
6
CONTINUOUS
10
3.58952
20
-2.83397
11
3.58447
21
-2.83447
0
LINE
8
BLACK
6
CONTINUOUS
10
3.58447
20
-2.83447
11
3.58276
21
-2.83462
0
LINE
8
BLACK
6
CONTINUOUS
10
3.58276
20
-2.83462
11
3.58259
21
-2.83463
0
LINE
8
BLACK
6
CONTINUOUS
10
3.58259
20
-2.83463
11
3.36205
21
-2.83463
0
LINE
8
BLACK
6
CONTINUOUS
10
3.36205
20
-2.83463
11
3.35976
21
-2.83388
0
LINE
8
BLACK
6
CONTINUOUS
10
3.35976
20
-2.83388
11
3.35834
21
-2.83193
0
LINE
8
BLACK
6
CONTINUOUS
10
3.35834
20
-2.83193
11
3.35834
21
-2.82952
0
LINE
8
BLACK
6
CONTINUOUS
10
3.35834
20
-2.82952
11
3.35929
21
-2.82797
0
LINE
8
BLACK
6
CONTINUOUS
10
3.35929
20
-2.82797
11
3.35938
21
-2.82789
0
LINE
8
BLACK
6
CONTINUOUS
10
3.35938
20
-2.82789
11
3.35938
21
-2.82789
0
LINE
8
BLACK
6
CONTINUOUS
10
3.35938
20
-2.82789
11
3.36317
21
-2.82295
0
LINE
8
BLACK
6
CONTINUOUS
10
3.36317
20
-2.82295
11
3.36555
21
-2.8172
0
LINE
8
BLACK
6
CONTINUOUS
10
3.36555
20
-2.8172
11
3.36637
21
-2.81102
0
LINE
8
BLACK
6
CONTINUOUS
10
3.36637
20
-2.81102
11
3.36555
21
-2.80485
0
LINE
8
BLACK
6
CONTINUOUS
10
3.36555
20
-2.80485
11
3.36528
21
-2.80418
0
LINE
8
BLACK
6
CONTINUOUS
10
3.36528
20
-2.80418
11
3.36509
21
-2.80178
0
LINE
8
BLACK
6
CONTINUOUS
10
3.36509
20
-2.80178
11
3.36635
21
-2.79973
0
LINE
8
BLACK
6
CONTINUOUS
10
3.36635
20
-2.79973
11
3.36857
21
-2.79881
0
LINE
8
BLACK
6
CONTINUOUS
10
3.36857
20
-2.79881
11
3.36939
21
-2.79883
0
LINE
8
BLACK
6
CONTINUOUS
10
3.36939
20
-2.79883
11
3.37402
21
-2.79944
0
LINE
8
BLACK
6
CONTINUOUS
10
3.37402
20
-2.79944
11
3.37402
21
-2.79944
0
LINE
8
BLACK
6
CONTINUOUS
10
3.37402
20
-2.79944
11
3.37402
21
-2.79944
0
LINE
8
BLACK
6
CONTINUOUS
10
3.37402
20
-2.79944
11
3.3761
21
-2.79916
0
LINE
8
BLACK
6
CONTINUOUS
10
3.3761
20
-2.79916
11
3.38019
21
-2.79862
0
LINE
8
BLACK
6
CONTINUOUS
10
3.38019
20
-2.79862
11
3.38401
21
-2.79704
0
LINE
8
BLACK
6
CONTINUOUS
10
3.38401
20
-2.79704
11
3.38594
21
-2.79624
0
LINE
8
BLACK
6
CONTINUOUS
10
3.38594
20
-2.79624
11
3.39088
21
-2.79245
0
LINE
8
BLACK
6
CONTINUOUS
10
3.39088
20
-2.79245
11
3.39467
21
-2.78751
0
LINE
8
BLACK
6
CONTINUOUS
10
3.39467
20
-2.78751
11
3.39705
21
-2.78176
0
LINE
8
BLACK
6
CONTINUOUS
10
3.39705
20
-2.78176
11
3.39786
21
-2.77559
0
LINE
8
BLACK
6
CONTINUOUS
10
3.39786
20
-2.77559
11
3.39708
21
-2.76968
0
LINE
8
BLACK
6
CONTINUOUS
10
3.39708
20
-2.76968
11
3.39705
21
-2.76942
0
LINE
8
BLACK
6
CONTINUOUS
10
3.39705
20
-2.76942
11
3.39467
21
-2.76367
0
LINE
8
BLACK
6
CONTINUOUS
10
3.39467
20
-2.76367
11
3.39467
21
-2.76367
0
LINE
8
BLACK
6
CONTINUOUS
10
3.39467
20
-2.76367
11
3.39088
21
-2.75873
0
LINE
8
BLACK
6
CONTINUOUS
10
3.39088
20
-2.75873
11
3.39088
21
-2.75873
0
LINE
8
BLACK
6
CONTINUOUS
10
3.39088
20
-2.75873
11
3.39088
21
-2.75873
0
LINE
8
BLACK
6
CONTINUOUS
10
3.39088
20
-2.75873
11
3.39088
21
-2.75873
0
LINE
8
BLACK
6
CONTINUOUS
10
3.39088
20
-2.75873
11
3.39088
21
-2.75873
0
LINE
8
BLACK
6
CONTINUOUS
10
3.39088
20
-2.75873
11
3.3872
21
-2.75591
0
LINE
8
BLACK
6
CONTINUOUS
10
3.3872
20
-2.75591
11
3.38594
21
-2.75494
0
LINE
8
BLACK
6
CONTINUOUS
10
3.38594
20
-2.75494
11
3.38594
21
-2.75494
0
LINE
8
BLACK
6
CONTINUOUS
10
3.38594
20
-2.75494
11
3.38594
21
-2.75494
0
LINE
8
BLACK
6
CONTINUOUS
10
3.38594
20
-2.75494
11
3.38019
21
-2.75256
0
LINE
8
BLACK
6
CONTINUOUS
10
3.38019
20
-2.75256
11
3.38019
21
-2.75256
0
LINE
8
BLACK
6
CONTINUOUS
10
3.38019
20
-2.75256
11
3.37402
21
-2.75174
0
LINE
8
BLACK
6
CONTINUOUS
10
3.37402
20
-2.75174
11
3.37402
21
-2.75174
0
LINE
8
BLACK
6
CONTINUOUS
10
3.37402
20
-2.75174
11
3.36784
21
-2.75256
0
LINE
8
BLACK
6
CONTINUOUS
10
3.36784
20
-2.75256
11
3.36784
21
-2.75256
0
LINE
8
BLACK
6
CONTINUOUS
10
3.36784
20
-2.75256
11
3.36744
21
-2.75272
0
LINE
8
BLACK
6
CONTINUOUS
10
3.36744
20
-2.75272
11
3.36504
21
-2.75291
0
LINE
8
BLACK
6
CONTINUOUS
10
3.36504
20
-2.75291
11
3.36299
21
-2.75165
0
LINE
8
BLACK
6
CONTINUOUS
10
3.36299
20
-2.75165
11
3.36271
21
-2.75129
0
LINE
8
BLACK
6
CONTINUOUS
10
3.36271
20
-2.75129
11
3.36199
21
-2.75021
0
LINE
8
BLACK
6
CONTINUOUS
10
3.36199
20
-2.75021
11
3.36199
21
-2.75021
0
LINE
8
BLACK
6
CONTINUOUS
10
3.36199
20
-2.75021
11
3.35938
21
-2.74847
0
LINE
8
BLACK
6
CONTINUOUS
10
3.35938
20
-2.74847
11
3.35938
21
-2.74847
0
LINE
8
BLACK
6
CONTINUOUS
10
3.35938
20
-2.74847
11
3.35938
21
-2.74847
0
LINE
8
BLACK
6
CONTINUOUS
10
3.35938
20
-2.74847
11
3.35938
21
-2.74847
0
LINE
8
BLACK
6
CONTINUOUS
10
3.35938
20
-2.74847
11
3.35708
21
-2.74801
0
LINE
8
BLACK
6
CONTINUOUS
10
3.35708
20
-2.74801
11
3.35708
21
-2.74801
0
LINE
8
BLACK
6
CONTINUOUS
10
3.35708
20
-2.74801
11
3.24725
21
-2.74801
0
LINE
8
BLACK
6
CONTINUOUS
10
3.24725
20
-2.74801
11
3.24725
21
-2.74801
0
LINE
8
BLACK
6
CONTINUOUS
10
3.24725
20
-2.74801
11
3.24725
21
-2.74801
0
LINE
8
BLACK
6
CONTINUOUS
10
3.24725
20
-2.74801
11
3.24495
21
-2.74847
0
LINE
8
BLACK
6
CONTINUOUS
10
3.24495
20
-2.74847
11
3.24495
21
-2.74847
0
LINE
8
BLACK
6
CONTINUOUS
10
3.24495
20
-2.74847
11
3.24234
21
-2.75021
0
LINE
8
BLACK
6
CONTINUOUS
10
3.24234
20
-2.75021
11
3.24234
21
-2.75021
0
LINE
8
BLACK
6
CONTINUOUS
10
3.24234
20
-2.75021
11
3.2406
21
-2.75283
0
LINE
8
BLACK
6
CONTINUOUS
10
3.2406
20
-2.75283
11
3.2406
21
-2.75283
0
LINE
8
BLACK
6
CONTINUOUS
10
3.2406
20
-2.75283
11
3.24014
21
-2.75513
0
LINE
8
BLACK
6
CONTINUOUS
10
3.24014
20
-2.75513
11
3.24014
21
-2.75513
0
LINE
8
BLACK
6
CONTINUOUS
10
3.24014
20
-2.75513
11
3.24014
21
-2.79605
0
LINE
8
BLACK
6
CONTINUOUS
10
3.24014
20
-2.79605
11
3.24014
21
-2.79605
0
LINE
8
BLACK
6
CONTINUOUS
10
3.24014
20
-2.79605
11
3.2406
21
-2.79836
0
LINE
8
BLACK
6
CONTINUOUS
10
3.2406
20
-2.79836
11
3.2406
21
-2.79836
0
LINE
8
BLACK
6
CONTINUOUS
10
3.2406
20
-2.79836
11
3.24119
21
-2.79925
0
LINE
8
BLACK
6
CONTINUOUS
10
3.24119
20
-2.79925
11
3.24185
21
-2.80157
0
LINE
8
BLACK
6
CONTINUOUS
10
3.24185
20
-2.80157
11
3.24155
21
-2.80291
0
LINE
8
BLACK
6
CONTINUOUS
10
3.24155
20
-2.80291
11
3.24075
21
-2.80485
0
LINE
8
BLACK
6
CONTINUOUS
10
3.24075
20
-2.80485
11
3.24075
21
-2.80485
0
LINE
8
BLACK
6
CONTINUOUS
10
3.24075
20
-2.80485
11
3.23993
21
-2.81102
0
LINE
8
BLACK
6
CONTINUOUS
10
3.23993
20
-2.81102
11
3.23993
21
-2.81102
0
LINE
8
BLACK
6
CONTINUOUS
10
3.23993
20
-2.81102
11
3.24075
21
-2.8172
0
LINE
8
BLACK
6
CONTINUOUS
10
3.24075
20
-2.8172
11
3.24075
21
-2.8172
0
LINE
8
BLACK
6
CONTINUOUS
10
3.24075
20
-2.8172
11
3.24313
21
-2.82295
0
LINE
8
BLACK
6
CONTINUOUS
10
3.24313
20
-2.82295
11
3.24313
21
-2.82295
0
LINE
8
BLACK
6
CONTINUOUS
10
3.24313
20
-2.82295
11
3.24692
21
-2.82788
0
LINE
8
BLACK
6
CONTINUOUS
10
3.24692
20
-2.82788
11
3.24692
21
-2.82789
0
LINE
8
BLACK
6
CONTINUOUS
10
3.24692
20
-2.82789
11
3.24692
21
-2.82789
0
LINE
8
BLACK
6
CONTINUOUS
10
3.24692
20
-2.82789
11
3.24701
21
-2.82797
0
LINE
8
BLACK
6
CONTINUOUS
10
3.24701
20
-2.82797
11
3.24705
21
-2.82805
0
LINE
8
BLACK
6
CONTINUOUS
10
3.24705
20
-2.82805
11
3.24707
21
-2.82809
0
LINE
8
BLACK
6
CONTINUOUS
10
3.24707
20
-2.82809
11
3.24707
21
-2.82809
0
LINE
8
BLACK
6
CONTINUOUS
10
3.24707
20
-2.82809
11
3.2481
21
-2.83012
0
LINE
8
BLACK
6
CONTINUOUS
10
3.2481
20
-2.83012
11
3.24772
21
-2.8325
0
LINE
8
BLACK
6
CONTINUOUS
10
3.24772
20
-2.8325
11
3.24602
21
-2.8342
0
LINE
8
BLACK
6
CONTINUOUS
10
3.24602
20
-2.8342
11
3.24425
21
-2.83463
0
LINE
8
BLACK
6
CONTINUOUS
10
3.24425
20
-2.83463
11
2.71662
21
-2.83463
0
LINE
8
BLACK
6
CONTINUOUS
10
2.71662
20
-2.83463
11
2.71645
21
-2.83462
0
LINE
8
BLACK
6
CONTINUOUS
10
2.71645
20
-2.83462
11
2.71475
21
-2.83447
0
LINE
8
BLACK
6
CONTINUOUS
10
2.71475
20
-2.83447
11
2.70969
21
-2.83397
0
LINE
8
BLACK
6
CONTINUOUS
10
2.70969
20
-2.83397
11
2.70907
21
-2.83386
0
LINE
8
BLACK
6
CONTINUOUS
10
2.70907
20
-2.83386
11
2.70761
21
-2.83347
0
LINE
8
BLACK
6
CONTINUOUS
10
2.70761
20
-2.83347
11
2.7064
21
-2.83314
0
LINE
8
BLACK
6
CONTINUOUS
10
2.7064
20
-2.83314
11
2.70633
21
-2.83312
0
LINE
8
BLACK
6
CONTINUOUS
10
2.70633
20
-2.83312
11
2.70263
21
-2.832
0
LINE
8
BLACK
6
CONTINUOUS
10
2.70263
20
-2.832
11
2.70211
21
-2.8318
0
LINE
8
BLACK
6
CONTINUOUS
10
2.70211
20
-2.8318
11
2.69938
21
-2.83053
0
LINE
8
BLACK
6
CONTINUOUS
10
2.69938
20
-2.83053
11
2.69929
21
-2.83048
0
LINE
8
BLACK
6
CONTINUOUS
10
2.69929
20
-2.83048
11
2.69595
21
-2.8287
0
LINE
8
BLACK
6
CONTINUOUS
10
2.69595
20
-2.8287
11
2.69575
21
-2.82857
0
LINE
8
BLACK
6
CONTINUOUS
10
2.69575
20
-2.82857
11
2.6931
21
-2.82672
0
LINE
8
BLACK
6
CONTINUOUS
10
2.6931
20
-2.82672
11
2.69298
21
-2.82663
0
LINE
8
BLACK
6
CONTINUOUS
10
2.69298
20
-2.82663
11
2.69011
21
-2.82427
0
LINE
8
BLACK
6
CONTINUOUS
10
2.69011
20
-2.82427
11
2.68997
21
-2.82414
0
LINE
8
BLACK
6
CONTINUOUS
10
2.68997
20
-2.82414
11
2.68767
21
-2.82185
0
LINE
8
BLACK
6
CONTINUOUS
10
2.68767
20
-2.82185
11
2.68754
21
-2.8217
0
LINE
8
BLACK
6
CONTINUOUS
10
2.68754
20
-2.8217
11
2.68518
21
-2.81883
0
LINE
8
BLACK
6
CONTINUOUS
10
2.68518
20
-2.81883
11
2.68509
21
-2.81871
0
LINE
8
BLACK
6
CONTINUOUS
10
2.68509
20
-2.81871
11
2.68403
21
-2.8172
0
LINE
8
BLACK
6
CONTINUOUS
10
2.68403
20
-2.8172
11
2.68324
21
-2.81606
0
LINE
8
BLACK
6
CONTINUOUS
10
2.68324
20
-2.81606
11
2.68311
21
-2.81587
0
LINE
8
BLACK
6
CONTINUOUS
10
2.68311
20
-2.81587
11
2.68133
21
-2.81252
0
LINE
8
BLACK
6
CONTINUOUS
10
2.68133
20
-2.81252
11
2.68128
21
-2.81243
0
LINE
8
BLACK
6
CONTINUOUS
10
2.68128
20
-2.81243
11
2.68001
21
-2.8097
0
LINE
8
BLACK
6
CONTINUOUS
10
2.68001
20
-2.8097
11
2.67981
21
-2.80918
0
LINE
8
BLACK
6
CONTINUOUS
10
2.67981
20
-2.80918
11
2.67869
21
-2.80547
0
LINE
8
BLACK
6
CONTINUOUS
10
2.67869
20
-2.80547
11
2.67867
21
-2.80542
0
LINE
8
BLACK
6
CONTINUOUS
10
2.67867
20
-2.80542
11
2.67795
21
-2.80274
0
LINE
8
BLACK
6
CONTINUOUS
10
2.67795
20
-2.80274
11
2.67784
21
-2.80212
0
LINE
8
BLACK
6
CONTINUOUS
10
2.67784
20
-2.80212
11
2.67734
21
-2.79706
0
LINE
8
BLACK
6
CONTINUOUS
10
2.67734
20
-2.79706
11
2.67734
21
-2.79704
0
LINE
8
BLACK
6
CONTINUOUS
10
2.67734
20
-2.79704
11
2.67719
21
-2.79536
0
LINE
8
BLACK
6
CONTINUOUS
10
2.67719
20
-2.79536
11
2.67719
21
-2.79519
0
LINE
8
BLACK
6
CONTINUOUS
10
2.67719
20
-2.79519
11
2.67719
21
-2.75591
0
LINE
8
BLACK
6
CONTINUOUS
10
2.67719
20
-2.75591
11
2.67719
21
-2.3622
0
LINE
8
BLACK
6
CONTINUOUS
10
2.67719
20
-2.3622
11
2.67719
21
-1.9685
0
LINE
8
BLACK
6
CONTINUOUS
10
2.67719
20
-1.9685
11
2.67719
21
-1.92922
0
LINE
8
BLACK
6
CONTINUOUS
10
2.67719
20
-1.92922
11
2.67719
21
-1.92905
0
LINE
8
BLACK
6
CONTINUOUS
10
2.67719
20
-1.92905
11
2.67734
21
-1.92734
0
LINE
8
BLACK
6
CONTINUOUS
10
2.67734
20
-1.92734
11
2.67784
21
-1.92229
0
LINE
8
BLACK
6
CONTINUOUS
10
2.67784
20
-1.92229
11
2.67795
21
-1.92167
0
LINE
8
BLACK
6
CONTINUOUS
10
2.67795
20
-1.92167
11
2.67867
21
-1.91899
0
LINE
8
BLACK
6
CONTINUOUS
10
2.67867
20
-1.91899
11
2.67869
21
-1.91894
0
LINE
8
BLACK
6
CONTINUOUS
10
2.67869
20
-1.91894
11
2.67981
21
-1.91523
0
LINE
8
BLACK
6
CONTINUOUS
10
2.67981
20
-1.91523
11
2.68001
21
-1.91471
0
LINE
8
BLACK
6
CONTINUOUS
10
2.68001
20
-1.91471
11
2.68107
21
-1.91242
0
LINE
8
BLACK
6
CONTINUOUS
10
2.68107
20
-1.91242
11
2.68128
21
-1.91198
0
LINE
8
BLACK
6
CONTINUOUS
10
2.68128
20
-1.91198
11
2.68133
21
-1.91189
0
LINE
8
BLACK
6
CONTINUOUS
10
2.68133
20
-1.91189
11
2.68312
21
-1.90854
0
LINE
8
BLACK
6
CONTINUOUS
10
2.68312
20
-1.90854
11
2.68324
21
-1.90835
0
LINE
8
BLACK
6
CONTINUOUS
10
2.68324
20
-1.90835
11
2.68509
21
-1.9057
0
LINE
8
BLACK
6
CONTINUOUS
10
2.68509
20
-1.9057
11
2.68518
21
-1.90558
0
LINE
8
BLACK
6
CONTINUOUS
10
2.68518
20
-1.90558
11
2.68754
21
-1.9027
0
LINE
8
BLACK
6
CONTINUOUS
10
2.68754
20
-1.9027
11
2.68767
21
-1.90256
0
LINE
8
BLACK
6
CONTINUOUS
10
2.68767
20
-1.90256
11
2.68997
21
-1.90027
0
LINE
8
BLACK
6
CONTINUOUS
10
2.68997
20
-1.90027
11
2.69011
21
-1.90014
0
LINE
8
BLACK
6
CONTINUOUS
10
2.69011
20
-1.90014
11
2.69298
21
-1.89778
0
LINE
8
BLACK
6
CONTINUOUS
10
2.69298
20
-1.89778
11
2.6931
21
-1.89769
0
LINE
8
BLACK
6
CONTINUOUS
10
2.6931
20
-1.89769
11
2.69575
21
-1.89584
0
LINE
8
BLACK
6
CONTINUOUS
10
2.69575
20
-1.89584
11
2.69594
21
-1.89571
0
LINE
8
BLACK
6
CONTINUOUS
10
2.69594
20
-1.89571
11
2.69929
21
-1.89393
0
LINE
8
BLACK
6
CONTINUOUS
10
2.69929
20
-1.89393
11
2.69938
21
-1.89388
0
LINE
8
BLACK
6
CONTINUOUS
10
2.69938
20
-1.89388
11
2.70211
21
-1.89261
0
LINE
8
BLACK
6
CONTINUOUS
10
2.70211
20
-1.89261
11
2.70263
21
-1.89241
0
LINE
8
BLACK
6
CONTINUOUS
10
2.70263
20
-1.89241
11
2.70634
21
-1.89128
0
LINE
8
BLACK
6
CONTINUOUS
10
2.70634
20
-1.89128
11
2.70639
21
-1.89127
0
LINE
8
BLACK
6
CONTINUOUS
10
2.70639
20
-1.89127
11
2.70907
21
-1.89055
0
LINE
8
BLACK
6
CONTINUOUS
10
2.70907
20
-1.89055
11
2.70969
21
-1.89044
0
LINE
8
BLACK
6
CONTINUOUS
10
2.70969
20
-1.89044
11
2.71474
21
-1.88994
0
LINE
8
BLACK
6
CONTINUOUS
10
2.71474
20
-1.88994
11
2.71645
21
-1.88979
0
LINE
8
BLACK
6
CONTINUOUS
10
2.71645
20
-1.88979
11
2.71662
21
-1.88978
0
LINE
8
BLACK
6
CONTINUOUS
10
2.71662
20
-1.88978
11
3.58259
21
-1.88978
0
LINE
8
BLACK
6
CONTINUOUS
10
3.58259
20
-1.88978
11
3.58276
21
-1.88979
0
LINE
8
BLACK
6
CONTINUOUS
10
3.55413
20
-2.74409
11
3.55413
21
-2.75591
0
LINE
8
BLACK
6
CONTINUOUS
10
3.55413
20
-2.75591
11
3.60236
21
-2.75591
0
LINE
8
BLACK
6
CONTINUOUS
10
3.60236
20
-2.75591
11
3.60236
21
-2.76969
0
LINE
8
BLACK
6
CONTINUOUS
10
3.60236
20
-2.76969
11
3.61417
21
-2.76969
0
LINE
8
BLACK
6
CONTINUOUS
10
3.61417
20
-2.76969
11
3.61417
21
-2.76968
0
LINE
8
BLACK
6
CONTINUOUS
10
3.61417
20
-2.76968
11
3.61417
21
-2.75414
0
LINE
8
BLACK
6
CONTINUOUS
10
3.61417
20
-2.75414
11
3.61417
21
-2.75414
0
LINE
8
BLACK
6
CONTINUOUS
10
3.61417
20
-2.75414
11
3.61406
21
-2.75315
0
LINE
8
BLACK
6
CONTINUOUS
10
3.61406
20
-2.75315
11
3.61228
21
-2.74912
0
LINE
8
BLACK
6
CONTINUOUS
10
3.61228
20
-2.74912
11
3.60915
21
-2.74599
0
LINE
8
BLACK
6
CONTINUOUS
10
3.60915
20
-2.74599
11
3.60511
21
-2.74421
0
LINE
8
BLACK
6
CONTINUOUS
10
3.60511
20
-2.74421
11
3.60413
21
-2.74409
0
LINE
8
BLACK
6
CONTINUOUS
10
3.60413
20
-2.74409
11
3.55413
21
-2.74409
0
LINE
8
BLACK
6
CONTINUOUS
10
3.55413
20
-2.74409
11
3.55413
21
-2.74409
0
LINE
8
BLACK
6
CONTINUOUS
10
3.5315
20
-2.29507
11
3.53161
21
-2.29606
0
LINE
8
BLACK
6
CONTINUOUS
10
3.53161
20
-2.29606
11
3.53339
21
-2.3001
0
LINE
8
BLACK
6
CONTINUOUS
10
3.53339
20
-2.3001
11
3.53417
21
-2.30087
0
LINE
8
BLACK
6
CONTINUOUS
10
3.53417
20
-2.30087
11
3.53561
21
-2.30013
0
LINE
8
BLACK
6
CONTINUOUS
10
3.53561
20
-2.30013
11
3.54048
21
-2.29936
0
LINE
8
BLACK
6
CONTINUOUS
10
3.54048
20
-2.29936
11
3.54535
21
-2.30013
0
LINE
8
BLACK
6
CONTINUOUS
10
3.54535
20
-2.30013
11
3.54974
21
-2.30237
0
LINE
8
BLACK
6
CONTINUOUS
10
3.54974
20
-2.30237
11
3.55248
21
-2.30512
0
LINE
8
BLACK
6
CONTINUOUS
10
3.55248
20
-2.30512
11
3.55709
21
-2.30512
0
LINE
8
BLACK
6
CONTINUOUS
10
3.55709
20
-2.30512
11
3.55709
21
-2.30512
0
LINE
8
BLACK
6
CONTINUOUS
10
3.55709
20
-2.30512
11
3.55709
21
-2.29331
0
LINE
8
BLACK
6
CONTINUOUS
10
3.55709
20
-2.29331
11
3.54331
21
-2.29331
0
LINE
8
BLACK
6
CONTINUOUS
10
3.54331
20
-2.29331
11
3.54331
21
-2.24508
0
LINE
8
BLACK
6
CONTINUOUS
10
3.54331
20
-2.24508
11
3.5315
21
-2.24508
0
LINE
8
BLACK
6
CONTINUOUS
10
3.5315
20
-2.24508
11
3.5315
21
-2.29507
0
LINE
8
BLACK
6
CONTINUOUS
10
3.5689
20
-2.18504
11
3.58268
21
-2.18504
0
LINE
8
BLACK
6
CONTINUOUS
10
3.58268
20
-2.18504
11
3.58268
21
-2.23327
0
LINE
8
BLACK
6
CONTINUOUS
10
3.58268
20
-2.23327
11
3.59449
21
-2.23327
0
LINE
8
BLACK
6
CONTINUOUS
10
3.59449
20
-2.23327
11
3.59449
21
-2.23327
0
LINE
8
BLACK
6
CONTINUOUS
10
3.59449
20
-2.23327
11
3.59449
21
-2.18328
0
LINE
8
BLACK
6
CONTINUOUS
10
3.59449
20
-2.18328
11
3.59449
21
-2.18328
0
LINE
8
BLACK
6
CONTINUOUS
10
3.59449
20
-2.18328
11
3.59437
21
-2.18229
0
LINE
8
BLACK
6
CONTINUOUS
10
3.59437
20
-2.18229
11
3.59259
21
-2.17825
0
LINE
8
BLACK
6
CONTINUOUS
10
3.59259
20
-2.17825
11
3.58947
21
-2.17513
0
LINE
8
BLACK
6
CONTINUOUS
10
3.58947
20
-2.17513
11
3.58543
21
-2.17334
0
LINE
8
BLACK
6
CONTINUOUS
10
3.58543
20
-2.17334
11
3.58444
21
-2.17323
0
LINE
8
BLACK
6
CONTINUOUS
10
3.58444
20
-2.17323
11
3.5689
21
-2.17323
0
LINE
8
BLACK
6
CONTINUOUS
10
3.5689
20
-2.17323
11
3.5689
21
-2.18504
0
LINE
8
BLACK
6
CONTINUOUS
10
3.53404
20
-1.91594
11
3.52505
21
-1.91835
0
LINE
8
BLACK
6
CONTINUOUS
10
3.52505
20
-1.91835
11
3.51662
21
-1.92228
0
LINE
8
BLACK
6
CONTINUOUS
10
3.51662
20
-1.92228
11
3.51662
21
-1.92228
0
LINE
8
BLACK
6
CONTINUOUS
10
3.51662
20
-1.92228
11
3.509
21
-1.92762
0
LINE
8
BLACK
6
CONTINUOUS
10
3.509
20
-1.92762
11
3.50242
21
-1.9342
0
LINE
8
BLACK
6
CONTINUOUS
10
3.50242
20
-1.9342
11
3.49709
21
-1.94182
0
LINE
8
BLACK
6
CONTINUOUS
10
3.49709
20
-1.94182
11
3.49315
21
-1.95025
0
LINE
8
BLACK
6
CONTINUOUS
10
3.49315
20
-1.95025
11
3.49075
21
-1.95924
0
LINE
8
BLACK
6
CONTINUOUS
10
3.49075
20
-1.95924
11
3.48993
21
-1.9685
0
LINE
8
BLACK
6
CONTINUOUS
10
3.48993
20
-1.9685
11
3.48993
21
-1.9685
0
LINE
8
BLACK
6
CONTINUOUS
10
3.48993
20
-1.9685
11
3.49075
21
-1.97777
0
LINE
8
BLACK
6
CONTINUOUS
10
3.49075
20
-1.97777
11
3.49315
21
-1.98676
0
LINE
8
BLACK
6
CONTINUOUS
10
3.49315
20
-1.98676
11
3.49708
21
-1.99519
0
LINE
8
BLACK
6
CONTINUOUS
10
3.49708
20
-1.99519
11
3.49709
21
-1.99519
0
LINE
8
BLACK
6
CONTINUOUS
10
3.49709
20
-1.99519
11
3.49709
21
-1.99519
0
LINE
8
BLACK
6
CONTINUOUS
10
3.49709
20
-1.99519
11
3.49709
21
-1.99519
0
LINE
8
BLACK
6
CONTINUOUS
10
3.49709
20
-1.99519
11
3.50242
21
-2.00281
0
LINE
8
BLACK
6
CONTINUOUS
10
3.50242
20
-2.00281
11
3.509
21
-2.00939
0
LINE
8
BLACK
6
CONTINUOUS
10
3.509
20
-2.00939
11
3.51662
21
-2.01473
0
LINE
8
BLACK
6
CONTINUOUS
10
3.51662
20
-2.01473
11
3.51662
21
-2.01473
0
LINE
8
BLACK
6
CONTINUOUS
10
3.51662
20
-2.01473
11
3.51662
21
-2.01473
0
LINE
8
BLACK
6
CONTINUOUS
10
3.51662
20
-2.01473
11
3.51662
21
-2.01473
0
LINE
8
BLACK
6
CONTINUOUS
10
3.51662
20
-2.01473
11
3.52505
21
-2.01866
0
LINE
8
BLACK
6
CONTINUOUS
10
3.52505
20
-2.01866
11
3.52505
21
-2.01866
0
LINE
8
BLACK
6
CONTINUOUS
10
3.52505
20
-2.01866
11
3.53404
21
-2.02107
0
LINE
8
BLACK
6
CONTINUOUS
10
3.53404
20
-2.02107
11
3.53404
21
-2.02107
0
LINE
8
BLACK
6
CONTINUOUS
10
3.53404
20
-2.02107
11
3.53404
21
-2.02107
0
LINE
8
BLACK
6
CONTINUOUS
10
3.53404
20
-2.02107
11
3.54099
21
-2.02167
0
LINE
8
BLACK
6
CONTINUOUS
10
3.54099
20
-2.02167
11
3.54099
21
-2.02167
0
LINE
8
BLACK
6
CONTINUOUS
10
3.54099
20
-2.02167
11
3.54563
21
-2.02167
0
LINE
8
BLACK
6
CONTINUOUS
10
3.54563
20
-2.02167
11
3.55257
21
-2.02107
0
LINE
8
BLACK
6
CONTINUOUS
10
3.55257
20
-2.02107
11
3.55257
21
-2.02107
0
LINE
8
BLACK
6
CONTINUOUS
10
3.55257
20
-2.02107
11
3.55258
21
-2.02107
0
LINE
8
BLACK
6
CONTINUOUS
10
3.55258
20
-2.02107
11
3.56156
21
-2.01866
0
LINE
8
BLACK
6
CONTINUOUS
10
3.56156
20
-2.01866
11
3.56999
21
-2.01473
0
LINE
8
BLACK
6
CONTINUOUS
10
3.56999
20
-2.01473
11
3.57761
21
-2.00939
0
LINE
8
BLACK
6
CONTINUOUS
10
3.57761
20
-2.00939
11
3.58419
21
-2.00281
0
LINE
8
BLACK
6
CONTINUOUS
10
3.58419
20
-2.00281
11
3.58953
21
-1.99519
0
LINE
8
BLACK
6
CONTINUOUS
10
3.58953
20
-1.99519
11
3.59346
21
-1.98676
0
LINE
8
BLACK
6
CONTINUOUS
10
3.59346
20
-1.98676
11
3.59587
21
-1.97777
0
LINE
8
BLACK
6
CONTINUOUS
10
3.59587
20
-1.97777
11
3.59668
21
-1.9685
0
LINE
8
BLACK
6
CONTINUOUS
10
3.59668
20
-1.9685
11
3.59587
21
-1.95924
0
LINE
8
BLACK
6
CONTINUOUS
10
3.59587
20
-1.95924
11
3.59346
21
-1.95025
0
LINE
8
BLACK
6
CONTINUOUS
10
3.59346
20
-1.95025
11
3.58953
21
-1.94182
0
LINE
8
BLACK
6
CONTINUOUS
10
3.58953
20
-1.94182
11
3.58419
21
-1.9342
0
LINE
8
BLACK
6
CONTINUOUS
10
3.58419
20
-1.9342
11
3.57761
21
-1.92762
0
LINE
8
BLACK
6
CONTINUOUS
10
3.57761
20
-1.92762
11
3.57761
21
-1.92762
0
LINE
8
BLACK
6
CONTINUOUS
10
3.57761
20
-1.92762
11
3.57761
21
-1.92762
0
LINE
8
BLACK
6
CONTINUOUS
10
3.57761
20
-1.92762
11
3.57001
21
-1.92229
0
LINE
8
BLACK
6
CONTINUOUS
10
3.57001
20
-1.92229
11
3.56999
21
-1.92228
0
LINE
8
BLACK
6
CONTINUOUS
10
3.56999
20
-1.92228
11
3.56999
21
-1.92228
0
LINE
8
BLACK
6
CONTINUOUS
10
3.56999
20
-1.92228
11
3.56999
21
-1.92228
0
LINE
8
BLACK
6
CONTINUOUS
10
3.56999
20
-1.92228
11
3.56999
21
-1.92228
0
LINE
8
BLACK
6
CONTINUOUS
10
3.56999
20
-1.92228
11
3.56156
21
-1.91835
0
LINE
8
BLACK
6
CONTINUOUS
10
3.56156
20
-1.91835
11
3.56156
21
-1.91835
0
LINE
8
BLACK
6
CONTINUOUS
10
3.56156
20
-1.91835
11
3.55857
21
-1.91755
0
LINE
8
BLACK
6
CONTINUOUS
10
3.55857
20
-1.91755
11
3.55258
21
-1.91594
0
LINE
8
BLACK
6
CONTINUOUS
10
3.55258
20
-1.91594
11
3.55258
21
-1.91594
0
LINE
8
BLACK
6
CONTINUOUS
10
3.55258
20
-1.91594
11
3.55257
21
-1.91594
0
LINE
8
BLACK
6
CONTINUOUS
10
3.55257
20
-1.91594
11
3.54563
21
-1.91533
0
LINE
8
BLACK
6
CONTINUOUS
10
3.54563
20
-1.91533
11
3.54563
21
-1.91533
0
LINE
8
BLACK
6
CONTINUOUS
10
3.54563
20
-1.91533
11
3.54099
21
-1.91533
0
LINE
8
BLACK
6
CONTINUOUS
10
3.54099
20
-1.91533
11
3.54099
21
-1.91533
0
LINE
8
BLACK
6
CONTINUOUS
10
3.54099
20
-1.91533
11
3.53404
21
-1.91594
0
LINE
8
BLACK
6
CONTINUOUS
10
3.55413
20
-2.80709
11
3.60413
21
-2.80709
0
LINE
8
BLACK
6
CONTINUOUS
10
3.60413
20
-2.80709
11
3.60413
21
-2.80709
0
LINE
8
BLACK
6
CONTINUOUS
10
3.60413
20
-2.80709
11
3.60511
21
-2.80697
0
LINE
8
BLACK
6
CONTINUOUS
10
3.60511
20
-2.80697
11
3.60915
21
-2.80519
0
LINE
8
BLACK
6
CONTINUOUS
10
3.60915
20
-2.80519
11
3.61228
21
-2.80207
0
LINE
8
BLACK
6
CONTINUOUS
10
3.61228
20
-2.80207
11
3.61416
21
-2.79779
0
LINE
8
BLACK
6
CONTINUOUS
10
3.61416
20
-2.79779
11
3.6146
21
-2.79731
0
LINE
8
BLACK
6
CONTINUOUS
10
3.6146
20
-2.79731
11
3.61417
21
-2.79578
0
LINE
8
BLACK
6
CONTINUOUS
10
3.61417
20
-2.79578
11
3.61417
21
-2.7815
0
LINE
8
BLACK
6
CONTINUOUS
10
3.61417
20
-2.7815
11
3.61417
21
-2.7815
0
LINE
8
BLACK
6
CONTINUOUS
10
3.61417
20
-2.7815
11
3.60236
21
-2.7815
0
LINE
8
BLACK
6
CONTINUOUS
10
3.60236
20
-2.7815
11
3.60236
21
-2.79528
0
LINE
8
BLACK
6
CONTINUOUS
10
3.60236
20
-2.79528
11
3.55413
21
-2.79528
0
LINE
8
BLACK
6
CONTINUOUS
10
3.55413
20
-2.79528
11
3.55413
21
-2.80709
0
LINE
8
BLACK
6
CONTINUOUS
10
3.55413
20
-2.80709
11
3.55413
21
-2.80709
0
LINE
8
BLACK
6
CONTINUOUS
10
3.4824
20
-2.79803
11
3.48418
21
-2.80207
0
LINE
8
BLACK
6
CONTINUOUS
10
3.48418
20
-2.80207
11
3.4873
21
-2.80519
0
LINE
8
BLACK
6
CONTINUOUS
10
3.4873
20
-2.80519
11
3.49134
21
-2.80697
0
LINE
8
BLACK
6
CONTINUOUS
10
3.49134
20
-2.80697
11
3.49233
21
-2.80709
0
LINE
8
BLACK
6
CONTINUOUS
10
3.49233
20
-2.80709
11
3.54232
21
-2.80709
0
LINE
8
BLACK
6
CONTINUOUS
10
3.54232
20
-2.80709
11
3.54232
21
-2.80709
0
LINE
8
BLACK
6
CONTINUOUS
10
3.54232
20
-2.80709
11
3.54232
21
-2.80709
0
LINE
8
BLACK
6
CONTINUOUS
10
3.54232
20
-2.80709
11
3.54232
21
-2.79528
0
LINE
8
BLACK
6
CONTINUOUS
10
3.54232
20
-2.79528
11
3.49409
21
-2.79528
0
LINE
8
BLACK
6
CONTINUOUS
10
3.49409
20
-2.79528
11
3.49409
21
-2.7815
0
LINE
8
BLACK
6
CONTINUOUS
10
3.49409
20
-2.7815
11
3.48228
21
-2.7815
0
LINE
8
BLACK
6
CONTINUOUS
10
3.48228
20
-2.7815
11
3.48228
21
-2.7815
0
LINE
8
BLACK
6
CONTINUOUS
10
3.48228
20
-2.7815
11
3.48228
21
-2.79704
0
LINE
8
BLACK
6
CONTINUOUS
10
3.48228
20
-2.79704
11
3.4824
21
-2.79803
0
LINE
8
BLACK
6
CONTINUOUS
10
3.48228
20
-2.76969
11
3.49409
21
-2.76969
0
LINE
8
BLACK
6
CONTINUOUS
10
3.49409
20
-2.76969
11
3.49409
21
-2.75591
0
LINE
8
BLACK
6
CONTINUOUS
10
3.49409
20
-2.75591
11
3.54232
21
-2.75591
0
LINE
8
BLACK
6
CONTINUOUS
10
3.54232
20
-2.75591
11
3.54232
21
-2.74409
0
LINE
8
BLACK
6
CONTINUOUS
10
3.54232
20
-2.74409
11
3.54232
21
-2.74409
0
LINE
8
BLACK
6
CONTINUOUS
10
3.54232
20
-2.74409
11
3.49233
21
-2.74409
0
LINE
8
BLACK
6
CONTINUOUS
10
3.49233
20
-2.74409
11
3.49233
21
-2.74409
0
LINE
8
BLACK
6
CONTINUOUS
10
3.49233
20
-2.74409
11
3.49134
21
-2.74421
0
LINE
8
BLACK
6
CONTINUOUS
10
3.49134
20
-2.74421
11
3.4873
21
-2.74599
0
LINE
8
BLACK
6
CONTINUOUS
10
3.4873
20
-2.74599
11
3.48418
21
-2.74912
0
LINE
8
BLACK
6
CONTINUOUS
10
3.48418
20
-2.74912
11
3.4824
21
-2.75315
0
LINE
8
BLACK
6
CONTINUOUS
10
3.4824
20
-2.75315
11
3.48228
21
-2.75414
0
LINE
8
BLACK
6
CONTINUOUS
10
3.48228
20
-2.75414
11
3.48228
21
-2.76968
0
LINE
8
BLACK
6
CONTINUOUS
10
3.48228
20
-2.76968
11
3.48228
21
-2.76969
0
LINE
8
BLACK
6
CONTINUOUS
10
2.70334
20
-2.76517
11
2.70575
21
-2.77416
0
LINE
8
BLACK
6
CONTINUOUS
10
2.70575
20
-2.77416
11
2.70968
21
-2.78259
0
LINE
8
BLACK
6
CONTINUOUS
10
2.70968
20
-2.78259
11
2.70968
21
-2.78259
0
LINE
8
BLACK
6
CONTINUOUS
10
2.70968
20
-2.78259
11
2.71313
21
-2.78751
0
LINE
8
BLACK
6
CONTINUOUS
10
2.71313
20
-2.78751
11
2.71502
21
-2.79021
0
LINE
8
BLACK
6
CONTINUOUS
10
2.71502
20
-2.79021
11
2.7216
21
-2.79679
0
LINE
8
BLACK
6
CONTINUOUS
10
2.7216
20
-2.79679
11
2.7216
21
-2.79679
0
LINE
8
BLACK
6
CONTINUOUS
10
2.7216
20
-2.79679
11
2.7216
21
-2.79679
0
LINE
8
BLACK
6
CONTINUOUS
10
2.7216
20
-2.79679
11
2.72233
21
-2.79731
0
LINE
8
BLACK
6
CONTINUOUS
10
2.72233
20
-2.79731
11
2.72922
21
-2.80213
0
LINE
8
BLACK
6
CONTINUOUS
10
2.72922
20
-2.80213
11
2.72922
21
-2.80213
0
LINE
8
BLACK
6
CONTINUOUS
10
2.72922
20
-2.80213
11
2.72922
21
-2.80213
0
LINE
8
BLACK
6
CONTINUOUS
10
2.72922
20
-2.80213
11
2.72922
21
-2.80213
0
LINE
8
BLACK
6
CONTINUOUS
10
2.72922
20
-2.80213
11
2.73765
21
-2.80606
0
LINE
8
BLACK
6
CONTINUOUS
10
2.73765
20
-2.80606
11
2.73765
21
-2.80606
0
LINE
8
BLACK
6
CONTINUOUS
10
2.73765
20
-2.80606
11
2.74664
21
-2.80847
0
LINE
8
BLACK
6
CONTINUOUS
10
2.74664
20
-2.80847
11
2.74664
21
-2.80847
0
LINE
8
BLACK
6
CONTINUOUS
10
2.74664
20
-2.80847
11
2.74664
21
-2.80847
0
LINE
8
BLACK
6
CONTINUOUS
10
2.74664
20
-2.80847
11
2.75358
21
-2.80907
0
LINE
8
BLACK
6
CONTINUOUS
10
2.75358
20
-2.80907
11
2.75358
21
-2.80907
0
LINE
8
BLACK
6
CONTINUOUS
10
2.75358
20
-2.80907
11
2.75823
21
-2.80907
0
LINE
8
BLACK
6
CONTINUOUS
10
2.75823
20
-2.80907
11
2.76517
21
-2.80847
0
LINE
8
BLACK
6
CONTINUOUS
10
2.76517
20
-2.80847
11
2.76517
21
-2.80847
0
LINE
8
BLACK
6
CONTINUOUS
10
2.76517
20
-2.80847
11
2.76517
21
-2.80847
0
LINE
8
BLACK
6
CONTINUOUS
10
2.76517
20
-2.80847
11
2.77416
21
-2.80606
0
LINE
8
BLACK
6
CONTINUOUS
10
2.77416
20
-2.80606
11
2.78259
21
-2.80213
0
LINE
8
BLACK
6
CONTINUOUS
10
2.78259
20
-2.80213
11
2.79021
21
-2.79679
0
LINE
8
BLACK
6
CONTINUOUS
10
2.79021
20
-2.79679
11
2.79679
21
-2.79021
0
LINE
8
BLACK
6
CONTINUOUS
10
2.79679
20
-2.79021
11
2.80213
21
-2.78259
0
LINE
8
BLACK
6
CONTINUOUS
10
2.80213
20
-2.78259
11
2.80606
21
-2.77416
0
LINE
8
BLACK
6
CONTINUOUS
10
2.80606
20
-2.77416
11
2.80847
21
-2.76517
0
LINE
8
BLACK
6
CONTINUOUS
10
2.80847
20
-2.76517
11
2.80847
21
-2.76517
0
LINE
8
BLACK
6
CONTINUOUS
10
2.80847
20
-2.76517
11
2.80928
21
-2.75591
0
LINE
8
BLACK
6
CONTINUOUS
10
2.80928
20
-2.75591
11
2.80928
21
-2.75591
0
LINE
8
BLACK
6
CONTINUOUS
10
2.80928
20
-2.75591
11
2.80847
21
-2.74664
0
LINE
8
BLACK
6
CONTINUOUS
10
2.80847
20
-2.74664
11
2.80847
21
-2.74664
0
LINE
8
BLACK
6
CONTINUOUS
10
2.80847
20
-2.74664
11
2.80847
21
-2.74664
0
LINE
8
BLACK
6
CONTINUOUS
10
2.80847
20
-2.74664
11
2.80606
21
-2.73765
0
LINE
8
BLACK
6
CONTINUOUS
10
2.80606
20
-2.73765
11
2.80213
21
-2.72922
0
LINE
8
BLACK
6
CONTINUOUS
10
2.80213
20
-2.72922
11
2.79723
21
-2.72223
0
LINE
8
BLACK
6
CONTINUOUS
10
2.79723
20
-2.72223
11
2.79679
21
-2.7216
0
LINE
8
BLACK
6
CONTINUOUS
10
2.79679
20
-2.7216
11
2.79679
21
-2.7216
0
LINE
8
BLACK
6
CONTINUOUS
10
2.79679
20
-2.7216
11
2.79679
21
-2.7216
0
LINE
8
BLACK
6
CONTINUOUS
10
2.79679
20
-2.7216
11
2.79021
21
-2.71502
0
LINE
8
BLACK
6
CONTINUOUS
10
2.79021
20
-2.71502
11
2.79021
21
-2.71502
0
LINE
8
BLACK
6
CONTINUOUS
10
2.79021
20
-2.71502
11
2.79021
21
-2.71502
0
LINE
8
BLACK
6
CONTINUOUS
10
2.79021
20
-2.71502
11
2.78259
21
-2.70968
0
LINE
8
BLACK
6
CONTINUOUS
10
2.78259
20
-2.70968
11
2.78259
21
-2.70968
0
LINE
8
BLACK
6
CONTINUOUS
10
2.78259
20
-2.70968
11
2.77416
21
-2.70575
0
LINE
8
BLACK
6
CONTINUOUS
10
2.77416
20
-2.70575
11
2.77416
21
-2.70575
0
LINE
8
BLACK
6
CONTINUOUS
10
2.77416
20
-2.70575
11
2.77116
21
-2.70495
0
LINE
8
BLACK
6
CONTINUOUS
10
2.77116
20
-2.70495
11
2.76517
21
-2.70334
0
LINE
8
BLACK
6
CONTINUOUS
10
2.76517
20
-2.70334
11
2.76517
21
-2.70334
0
LINE
8
BLACK
6
CONTINUOUS
10
2.76517
20
-2.70334
11
2.76517
21
-2.70334
0
LINE
8
BLACK
6
CONTINUOUS
10
2.76517
20
-2.70334
11
2.75823
21
-2.70274
0
LINE
8
BLACK
6
CONTINUOUS
10
2.75823
20
-2.70274
11
2.75823
21
-2.70274
0
LINE
8
BLACK
6
CONTINUOUS
10
2.75823
20
-2.70274
11
2.75358
21
-2.70274
0
LINE
8
BLACK
6
CONTINUOUS
10
2.75358
20
-2.70274
11
2.75358
21
-2.70274
0
LINE
8
BLACK
6
CONTINUOUS
10
2.75358
20
-2.70274
11
2.74664
21
-2.70334
0
LINE
8
BLACK
6
CONTINUOUS
10
2.74664
20
-2.70334
11
2.73765
21
-2.70575
0
LINE
8
BLACK
6
CONTINUOUS
10
2.73765
20
-2.70575
11
2.72922
21
-2.70968
0
LINE
8
BLACK
6
CONTINUOUS
10
2.72922
20
-2.70968
11
2.72922
21
-2.70968
0
LINE
8
BLACK
6
CONTINUOUS
10
2.72922
20
-2.70968
11
2.7216
21
-2.71502
0
LINE
8
BLACK
6
CONTINUOUS
10
2.7216
20
-2.71502
11
2.71502
21
-2.7216
0
LINE
8
BLACK
6
CONTINUOUS
10
2.71502
20
-2.7216
11
2.70968
21
-2.72922
0
LINE
8
BLACK
6
CONTINUOUS
10
2.70968
20
-2.72922
11
2.70575
21
-2.73765
0
LINE
8
BLACK
6
CONTINUOUS
10
2.70575
20
-2.73765
11
2.70334
21
-2.74664
0
LINE
8
BLACK
6
CONTINUOUS
10
2.70334
20
-2.74664
11
2.70253
21
-2.75591
0
LINE
8
BLACK
6
CONTINUOUS
10
2.70253
20
-2.75591
11
2.70253
21
-2.75591
0
LINE
8
BLACK
6
CONTINUOUS
10
2.70253
20
-2.75591
11
2.70334
21
-2.76517
0
LINE
8
BLACK
6
CONTINUOUS
10
2.91001
20
-2.38155
11
2.91001
21
-2.38155
0
LINE
8
BLACK
6
CONTINUOUS
10
2.91001
20
-2.38155
11
2.91001
21
-2.38155
0
LINE
8
BLACK
6
CONTINUOUS
10
2.91001
20
-2.38155
11
2.91001
21
-2.38155
0
LINE
8
BLACK
6
CONTINUOUS
10
2.91001
20
-2.38155
11
2.91235
21
-2.40076
0
LINE
8
BLACK
6
CONTINUOUS
10
2.91235
20
-2.40076
11
2.91235
21
-2.40076
0
LINE
8
BLACK
6
CONTINUOUS
10
2.91235
20
-2.40076
11
2.91622
21
-2.41973
0
LINE
8
BLACK
6
CONTINUOUS
10
2.91622
20
-2.41973
11
2.91622
21
-2.41973
0
LINE
8
BLACK
6
CONTINUOUS
10
2.91622
20
-2.41973
11
2.9216
21
-2.43832
0
LINE
8
BLACK
6
CONTINUOUS
10
2.9216
20
-2.43832
11
2.9216
21
-2.43832
0
LINE
8
BLACK
6
CONTINUOUS
10
2.9216
20
-2.43832
11
2.92658
21
-2.45144
0
LINE
8
BLACK
6
CONTINUOUS
10
2.92658
20
-2.45144
11
2.92847
21
-2.45642
0
LINE
8
BLACK
6
CONTINUOUS
10
2.92847
20
-2.45642
11
2.93457
21
-2.46927
0
LINE
8
BLACK
6
CONTINUOUS
10
2.93457
20
-2.46927
11
2.93672
21
-2.4738
0
LINE
8
BLACK
6
CONTINUOUS
10
2.93672
20
-2.4738
11
2.93677
21
-2.47391
0
LINE
8
BLACK
6
CONTINUOUS
10
2.93677
20
-2.47391
11
2.94645
21
-2.49068
0
LINE
8
BLACK
6
CONTINUOUS
10
2.94645
20
-2.49068
11
2.94645
21
-2.49068
0
LINE
8
BLACK
6
CONTINUOUS
10
2.94645
20
-2.49068
11
2.95744
21
-2.50661
0
LINE
8
BLACK
6
CONTINUOUS
10
2.95744
20
-2.50661
11
2.96969
21
-2.5216
0
LINE
8
BLACK
6
CONTINUOUS
10
2.96969
20
-2.5216
11
2.98309
21
-2.53556
0
LINE
8
BLACK
6
CONTINUOUS
10
2.98309
20
-2.53556
11
2.98309
21
-2.53556
0
LINE
8
BLACK
6
CONTINUOUS
10
2.98309
20
-2.53556
11
2.99069
21
-2.54229
0
LINE
8
BLACK
6
CONTINUOUS
10
2.99069
20
-2.54229
11
2.99758
21
-2.5484
0
LINE
8
BLACK
6
CONTINUOUS
10
2.99758
20
-2.5484
11
2.99758
21
-2.5484
0
LINE
8
BLACK
6
CONTINUOUS
10
2.99758
20
-2.5484
11
3.01306
21
-2.56003
0
LINE
8
BLACK
6
CONTINUOUS
10
3.01306
20
-2.56003
11
3.02031
21
-2.56461
0
LINE
8
BLACK
6
CONTINUOUS
10
3.02031
20
-2.56461
11
3.02942
21
-2.57037
0
LINE
8
BLACK
6
CONTINUOUS
10
3.02942
20
-2.57037
11
3.02942
21
-2.57037
0
LINE
8
BLACK
6
CONTINUOUS
10
3.02942
20
-2.57037
11
3.02942
21
-2.57037
0
LINE
8
BLACK
6
CONTINUOUS
10
3.02942
20
-2.57037
11
3.02942
21
-2.57037
0
LINE
8
BLACK
6
CONTINUOUS
10
3.02942
20
-2.57037
11
3.04467
21
-2.57838
0
LINE
8
BLACK
6
CONTINUOUS
10
3.04467
20
-2.57838
11
3.04656
21
-2.57937
0
LINE
8
BLACK
6
CONTINUOUS
10
3.04656
20
-2.57937
11
3.06437
21
-2.58696
0
LINE
8
BLACK
6
CONTINUOUS
10
3.06437
20
-2.58696
11
3.07344
21
-2.58999
0
LINE
8
BLACK
6
CONTINUOUS
10
3.07344
20
-2.58999
11
3.08273
21
-2.59309
0
LINE
8
BLACK
6
CONTINUOUS
10
3.08273
20
-2.59309
11
3.08273
21
-2.59309
0
LINE
8
BLACK
6
CONTINUOUS
10
3.08273
20
-2.59309
11
3.08273
21
-2.59309
0
LINE
8
BLACK
6
CONTINUOUS
10
3.08273
20
-2.59309
11
3.10153
21
-2.59772
0
LINE
8
BLACK
6
CONTINUOUS
10
3.10153
20
-2.59772
11
3.12063
21
-2.60082
0
LINE
8
BLACK
6
CONTINUOUS
10
3.12063
20
-2.60082
11
3.13993
21
-2.60238
0
LINE
8
BLACK
6
CONTINUOUS
10
3.13993
20
-2.60238
11
3.13993
21
-2.60238
0
LINE
8
BLACK
6
CONTINUOUS
10
3.13993
20
-2.60238
11
3.15928
21
-2.60238
0
LINE
8
BLACK
6
CONTINUOUS
10
3.15928
20
-2.60238
11
3.15929
21
-2.60238
0
LINE
8
BLACK
6
CONTINUOUS
10
3.15929
20
-2.60238
11
3.17858
21
-2.60082
0
LINE
8
BLACK
6
CONTINUOUS
10
3.17858
20
-2.60082
11
3.19769
21
-2.59772
0
LINE
8
BLACK
6
CONTINUOUS
10
3.19769
20
-2.59772
11
3.21648
21
-2.59309
0
LINE
8
BLACK
6
CONTINUOUS
10
3.21648
20
-2.59309
11
3.23484
21
-2.58696
0
LINE
8
BLACK
6
CONTINUOUS
10
3.23484
20
-2.58696
11
3.25265
21
-2.57937
0
LINE
8
BLACK
6
CONTINUOUS
10
3.25265
20
-2.57937
11
3.26673
21
-2.57198
0
LINE
8
BLACK
6
CONTINUOUS
10
3.26673
20
-2.57198
11
3.26979
21
-2.57037
0
LINE
8
BLACK
6
CONTINUOUS
10
3.26979
20
-2.57037
11
3.26979
21
-2.57037
0
LINE
8
BLACK
6
CONTINUOUS
10
3.26979
20
-2.57037
11
3.26979
21
-2.57037
0
LINE
8
BLACK
6
CONTINUOUS
10
3.26979
20
-2.57037
11
3.28615
21
-2.56003
0
LINE
8
BLACK
6
CONTINUOUS
10
3.28615
20
-2.56003
11
3.30163
21
-2.5484
0
LINE
8
BLACK
6
CONTINUOUS
10
3.30163
20
-2.5484
11
3.31612
21
-2.53556
0
LINE
8
BLACK
6
CONTINUOUS
10
3.31612
20
-2.53556
11
3.32953
21
-2.5216
0
LINE
8
BLACK
6
CONTINUOUS
10
3.32953
20
-2.5216
11
3.34177
21
-2.50661
0
LINE
8
BLACK
6
CONTINUOUS
10
3.34177
20
-2.50661
11
3.35277
21
-2.49068
0
LINE
8
BLACK
6
CONTINUOUS
10
3.35277
20
-2.49068
11
3.36245
21
-2.47391
0
LINE
8
BLACK
6
CONTINUOUS
10
3.36245
20
-2.47391
11
3.37074
21
-2.45642
0
LINE
8
BLACK
6
CONTINUOUS
10
3.37074
20
-2.45642
11
3.37761
21
-2.43832
0
LINE
8
BLACK
6
CONTINUOUS
10
3.37761
20
-2.43832
11
3.37761
21
-2.43832
0
LINE
8
BLACK
6
CONTINUOUS
10
3.37761
20
-2.43832
11
3.37761
21
-2.43832
0
LINE
8
BLACK
6
CONTINUOUS
10
3.37761
20
-2.43832
11
3.38299
21
-2.41973
0
LINE
8
BLACK
6
CONTINUOUS
10
3.38299
20
-2.41973
11
3.38299
21
-2.41973
0
LINE
8
BLACK
6
CONTINUOUS
10
3.38299
20
-2.41973
11
3.38299
21
-2.41973
0
LINE
8
BLACK
6
CONTINUOUS
10
3.38299
20
-2.41973
11
3.38687
21
-2.40076
0
LINE
8
BLACK
6
CONTINUOUS
10
3.38687
20
-2.40076
11
3.38767
21
-2.39415
0
LINE
8
BLACK
6
CONTINUOUS
10
3.38767
20
-2.39415
11
3.3892
21
-2.38155
0
LINE
8
BLACK
6
CONTINUOUS
10
3.3892
20
-2.38155
11
3.3892
21
-2.38155
0
LINE
8
BLACK
6
CONTINUOUS
10
3.3892
20
-2.38155
11
3.3892
21
-2.38155
0
LINE
8
BLACK
6
CONTINUOUS
10
3.3892
20
-2.38155
11
3.38998
21
-2.3622
0
LINE
8
BLACK
6
CONTINUOUS
10
3.38998
20
-2.3622
11
3.3892
21
-2.34286
0
LINE
8
BLACK
6
CONTINUOUS
10
3.3892
20
-2.34286
11
3.3892
21
-2.34286
0
LINE
8
BLACK
6
CONTINUOUS
10
3.3892
20
-2.34286
11
3.3892
21
-2.34286
0
LINE
8
BLACK
6
CONTINUOUS
10
3.3892
20
-2.34286
11
3.38687
21
-2.32365
0
LINE
8
BLACK
6
CONTINUOUS
10
3.38687
20
-2.32365
11
3.38687
21
-2.32365
0
LINE
8
BLACK
6
CONTINUOUS
10
3.38687
20
-2.32365
11
3.38299
21
-2.30468
0
LINE
8
BLACK
6
CONTINUOUS
10
3.38299
20
-2.30468
11
3.38277
21
-2.30389
0
LINE
8
BLACK
6
CONTINUOUS
10
3.38277
20
-2.30389
11
3.37761
21
-2.28609
0
LINE
8
BLACK
6
CONTINUOUS
10
3.37761
20
-2.28609
11
3.37761
21
-2.28609
0
LINE
8
BLACK
6
CONTINUOUS
10
3.37761
20
-2.28609
11
3.3769
21
-2.28421
0
LINE
8
BLACK
6
CONTINUOUS
10
3.3769
20
-2.28421
11
3.37074
21
-2.26799
0
LINE
8
BLACK
6
CONTINUOUS
10
3.37074
20
-2.26799
11
3.36245
21
-2.2505
0
LINE
8
BLACK
6
CONTINUOUS
10
3.36245
20
-2.2505
11
3.35277
21
-2.23373
0
LINE
8
BLACK
6
CONTINUOUS
10
3.35277
20
-2.23373
11
3.34727
21
-2.22577
0
LINE
8
BLACK
6
CONTINUOUS
10
3.34727
20
-2.22577
11
3.34177
21
-2.2178
0
LINE
8
BLACK
6
CONTINUOUS
10
3.34177
20
-2.2178
11
3.32953
21
-2.20281
0
LINE
8
BLACK
6
CONTINUOUS
10
3.32953
20
-2.20281
11
3.31612
21
-2.18885
0
LINE
8
BLACK
6
CONTINUOUS
10
3.31612
20
-2.18885
11
3.31094
21
-2.18426
0
LINE
8
BLACK
6
CONTINUOUS
10
3.31094
20
-2.18426
11
3.30525
21
-2.17922
0
LINE
8
BLACK
6
CONTINUOUS
10
3.30525
20
-2.17922
11
3.30163
21
-2.17601
0
LINE
8
BLACK
6
CONTINUOUS
10
3.30163
20
-2.17601
11
3.30163
21
-2.17601
0
LINE
8
BLACK
6
CONTINUOUS
10
3.30163
20
-2.17601
11
3.28615
21
-2.16438
0
LINE
8
BLACK
6
CONTINUOUS
10
3.28615
20
-2.16438
11
3.27468
21
-2.15713
0
LINE
8
BLACK
6
CONTINUOUS
10
3.27468
20
-2.15713
11
3.26979
21
-2.15404
0
LINE
8
BLACK
6
CONTINUOUS
10
3.26979
20
-2.15404
11
3.26979
21
-2.15404
0
LINE
8
BLACK
6
CONTINUOUS
10
3.26979
20
-2.15404
11
3.26979
21
-2.15404
0
LINE
8
BLACK
6
CONTINUOUS
10
3.26979
20
-2.15404
11
3.26979
21
-2.15404
0
LINE
8
BLACK
6
CONTINUOUS
10
3.26979
20
-2.15404
11
3.25265
21
-2.14504
0
LINE
8
BLACK
6
CONTINUOUS
10
3.25265
20
-2.14504
11
3.25265
21
-2.14504
0
LINE
8
BLACK
6
CONTINUOUS
10
3.25265
20
-2.14504
11
3.25265
21
-2.14504
0
LINE
8
BLACK
6
CONTINUOUS
10
3.25265
20
-2.14504
11
3.25265
21
-2.14504
0
LINE
8
BLACK
6
CONTINUOUS
10
3.25265
20
-2.14504
11
3.23484
21
-2.13745
0
LINE
8
BLACK
6
CONTINUOUS
10
3.23484
20
-2.13745
11
3.23484
21
-2.13745
0
LINE
8
BLACK
6
CONTINUOUS
10
3.23484
20
-2.13745
11
3.23484
21
-2.13745
0
LINE
8
BLACK
6
CONTINUOUS
10
3.23484
20
-2.13745
11
3.21648
21
-2.13132
0
LINE
8
BLACK
6
CONTINUOUS
10
3.21648
20
-2.13132
11
3.21648
21
-2.13132
0
LINE
8
BLACK
6
CONTINUOUS
10
3.21648
20
-2.13132
11
3.20226
21
-2.12782
0
LINE
8
BLACK
6
CONTINUOUS
10
3.20226
20
-2.12782
11
3.19769
21
-2.12669
0
LINE
8
BLACK
6
CONTINUOUS
10
3.19769
20
-2.12669
11
3.17858
21
-2.12359
0
LINE
8
BLACK
6
CONTINUOUS
10
3.17858
20
-2.12359
11
3.17858
21
-2.12359
0
LINE
8
BLACK
6
CONTINUOUS
10
3.17858
20
-2.12359
11
3.16776
21
-2.12271
0
LINE
8
BLACK
6
CONTINUOUS
10
3.16776
20
-2.12271
11
3.15929
21
-2.12203
0
LINE
8
BLACK
6
CONTINUOUS
10
3.15929
20
-2.12203
11
3.13993
21
-2.12203
0
LINE
8
BLACK
6
CONTINUOUS
10
3.13993
20
-2.12203
11
3.13214
21
-2.12266
0
LINE
8
BLACK
6
CONTINUOUS
10
3.13214
20
-2.12266
11
3.12063
21
-2.12359
0
LINE
8
BLACK
6
CONTINUOUS
10
3.12063
20
-2.12359
11
3.10153
21
-2.12669
0
LINE
8
BLACK
6
CONTINUOUS
10
3.10153
20
-2.12669
11
3.08273
21
-2.13132
0
LINE
8
BLACK
6
CONTINUOUS
10
3.08273
20
-2.13132
11
3.08273
21
-2.13132
0
LINE
8
BLACK
6
CONTINUOUS
10
3.08273
20
-2.13132
11
3.06437
21
-2.13745
0
LINE
8
BLACK
6
CONTINUOUS
10
3.06437
20
-2.13745
11
3.05285
21
-2.14236
0
LINE
8
BLACK
6
CONTINUOUS
10
3.05285
20
-2.14236
11
3.04656
21
-2.14504
0
LINE
8
BLACK
6
CONTINUOUS
10
3.04656
20
-2.14504
11
3.04656
21
-2.14504
0
LINE
8
BLACK
6
CONTINUOUS
10
3.04656
20
-2.14504
11
3.04656
21
-2.14504
0
LINE
8
BLACK
6
CONTINUOUS
10
3.04656
20
-2.14504
11
3.04656
21
-2.14504
0
LINE
8
BLACK
6
CONTINUOUS
10
3.04656
20
-2.14504
11
3.02942
21
-2.15404
0
LINE
8
BLACK
6
CONTINUOUS
10
3.02942
20
-2.15404
11
3.02942
21
-2.15404
0
LINE
8
BLACK
6
CONTINUOUS
10
3.02942
20
-2.15404
11
3.01306
21
-2.16438
0
LINE
8
BLACK
6
CONTINUOUS
10
3.01306
20
-2.16438
11
2.99758
21
-2.17601
0
LINE
8
BLACK
6
CONTINUOUS
10
2.99758
20
-2.17601
11
2.99758
21
-2.17601
0
LINE
8
BLACK
6
CONTINUOUS
10
2.99758
20
-2.17601
11
2.98309
21
-2.18885
0
LINE
8
BLACK
6
CONTINUOUS
10
2.98309
20
-2.18885
11
2.96969
21
-2.20281
0
LINE
8
BLACK
6
CONTINUOUS
10
2.96969
20
-2.20281
11
2.95744
21
-2.2178
0
LINE
8
BLACK
6
CONTINUOUS
10
2.95744
20
-2.2178
11
2.94645
21
-2.23373
0
LINE
8
BLACK
6
CONTINUOUS
10
2.94645
20
-2.23373
11
2.93677
21
-2.2505
0
LINE
8
BLACK
6
CONTINUOUS
10
2.93677
20
-2.2505
11
2.92847
21
-2.26799
0
LINE
8
BLACK
6
CONTINUOUS
10
2.92847
20
-2.26799
11
2.9216
21
-2.28609
0
LINE
8
BLACK
6
CONTINUOUS
10
2.9216
20
-2.28609
11
2.9216
21
-2.28609
0
LINE
8
BLACK
6
CONTINUOUS
10
2.9216
20
-2.28609
11
2.91622
21
-2.30468
0
LINE
8
BLACK
6
CONTINUOUS
10
2.91622
20
-2.30468
11
2.91622
21
-2.30468
0
LINE
8
BLACK
6
CONTINUOUS
10
2.91622
20
-2.30468
11
2.91235
21
-2.32365
0
LINE
8
BLACK
6
CONTINUOUS
10
2.91235
20
-2.32365
11
2.91235
21
-2.32365
0
LINE
8
BLACK
6
CONTINUOUS
10
2.91235
20
-2.32365
11
2.91001
21
-2.34286
0
LINE
8
BLACK
6
CONTINUOUS
10
2.91001
20
-2.34286
11
2.91001
21
-2.34286
0
LINE
8
BLACK
6
CONTINUOUS
10
2.91001
20
-2.34286
11
2.91001
21
-2.34286
0
LINE
8
BLACK
6
CONTINUOUS
10
2.91001
20
-2.34286
11
2.91001
21
-2.34286
0
LINE
8
BLACK
6
CONTINUOUS
10
2.91001
20
-2.34286
11
2.90923
21
-2.3622
0
LINE
8
BLACK
6
CONTINUOUS
10
2.90923
20
-2.3622
11
2.91001
21
-2.38155
0
LINE
8
BLACK
6
CONTINUOUS
10
3.5689
20
-2.30512
11
3.58444
21
-2.30512
0
LINE
8
BLACK
6
CONTINUOUS
10
3.58444
20
-2.30512
11
3.58444
21
-2.30512
0
LINE
8
BLACK
6
CONTINUOUS
10
3.58444
20
-2.30512
11
3.58543
21
-2.305
0
LINE
8
BLACK
6
CONTINUOUS
10
3.58543
20
-2.305
11
3.58947
21
-2.30322
0
LINE
8
BLACK
6
CONTINUOUS
10
3.58947
20
-2.30322
11
3.59259
21
-2.3001
0
LINE
8
BLACK
6
CONTINUOUS
10
3.59259
20
-2.3001
11
3.59437
21
-2.29606
0
LINE
8
BLACK
6
CONTINUOUS
10
3.59437
20
-2.29606
11
3.59449
21
-2.29507
0
LINE
8
BLACK
6
CONTINUOUS
10
3.59449
20
-2.29507
11
3.59449
21
-2.29507
0
LINE
8
BLACK
6
CONTINUOUS
10
3.59449
20
-2.29507
11
3.59449
21
-2.24508
0
LINE
8
BLACK
6
CONTINUOUS
10
3.59449
20
-2.24508
11
3.59449
21
-2.24508
0
LINE
8
BLACK
6
CONTINUOUS
10
3.59449
20
-2.24508
11
3.58268
21
-2.24508
0
LINE
8
BLACK
6
CONTINUOUS
10
3.58268
20
-2.24508
11
3.58268
21
-2.29331
0
LINE
8
BLACK
6
CONTINUOUS
10
3.58268
20
-2.29331
11
3.5689
21
-2.29331
0
LINE
8
BLACK
6
CONTINUOUS
10
3.5689
20
-2.29331
11
3.5689
21
-2.30512
0
LINE
8
BLACK
6
CONTINUOUS
10
3.5689
20
-2.30512
11
3.5689
21
-2.30512
0
LINE
8
BLACK
6
CONTINUOUS
10
3.5315
20
-2.23327
11
3.54331
21
-2.23327
0
LINE
8
BLACK
6
CONTINUOUS
10
3.54331
20
-2.23327
11
3.54331
21
-2.18504
0
LINE
8
BLACK
6
CONTINUOUS
10
3.54331
20
-2.18504
11
3.55709
21
-2.18504
0
LINE
8
BLACK
6
CONTINUOUS
10
3.55709
20
-2.18504
11
3.55709
21
-2.17323
0
LINE
8
BLACK
6
CONTINUOUS
10
3.55709
20
-2.17323
11
3.54154
21
-2.17323
0
LINE
8
BLACK
6
CONTINUOUS
10
3.54154
20
-2.17323
11
3.54154
21
-2.17323
0
LINE
8
BLACK
6
CONTINUOUS
10
3.54154
20
-2.17323
11
3.54056
21
-2.17334
0
LINE
8
BLACK
6
CONTINUOUS
10
3.54056
20
-2.17334
11
3.53652
21
-2.17513
0
LINE
8
BLACK
6
CONTINUOUS
10
3.53652
20
-2.17513
11
3.53339
21
-2.17825
0
LINE
8
BLACK
6
CONTINUOUS
10
3.53339
20
-2.17825
11
3.53161
21
-2.18229
0
LINE
8
BLACK
6
CONTINUOUS
10
3.53161
20
-2.18229
11
3.5315
21
-2.18328
0
LINE
8
BLACK
6
CONTINUOUS
10
3.5315
20
-2.18328
11
3.5315
21
-2.23327
0
LINE
8
BLACK
6
CONTINUOUS
10
3.5315
20
-2.23327
11
3.5315
21
-2.23327
0
LINE
8
BLACK
6
CONTINUOUS
10
2.70334
20
-1.97777
11
2.70575
21
-1.98676
0
LINE
8
BLACK
6
CONTINUOUS
10
2.70575
20
-1.98676
11
2.70968
21
-1.99519
0
LINE
8
BLACK
6
CONTINUOUS
10
2.70968
20
-1.99519
11
2.70968
21
-1.99519
0
LINE
8
BLACK
6
CONTINUOUS
10
2.70968
20
-1.99519
11
2.70968
21
-1.99519
0
LINE
8
BLACK
6
CONTINUOUS
10
2.70968
20
-1.99519
11
2.70968
21
-1.99519
0
LINE
8
BLACK
6
CONTINUOUS
10
2.70968
20
-1.99519
11
2.71502
21
-2.00281
0
LINE
8
BLACK
6
CONTINUOUS
10
2.71502
20
-2.00281
11
2.7216
21
-2.00939
0
LINE
8
BLACK
6
CONTINUOUS
10
2.7216
20
-2.00939
11
2.72922
21
-2.01473
0
LINE
8
BLACK
6
CONTINUOUS
10
2.72922
20
-2.01473
11
2.72922
21
-2.01473
0
LINE
8
BLACK
6
CONTINUOUS
10
2.72922
20
-2.01473
11
2.72922
21
-2.01473
0
LINE
8
BLACK
6
CONTINUOUS
10
2.72922
20
-2.01473
11
2.72922
21
-2.01473
0
LINE
8
BLACK
6
CONTINUOUS
10
2.72922
20
-2.01473
11
2.73765
21
-2.01866
0
LINE
8
BLACK
6
CONTINUOUS
10
2.73765
20
-2.01866
11
2.73765
21
-2.01866
0
LINE
8
BLACK
6
CONTINUOUS
10
2.73765
20
-2.01866
11
2.74664
21
-2.02107
0
LINE
8
BLACK
6
CONTINUOUS
10
2.74664
20
-2.02107
11
2.74664
21
-2.02107
0
LINE
8
BLACK
6
CONTINUOUS
10
2.74664
20
-2.02107
11
2.74664
21
-2.02107
0
LINE
8
BLACK
6
CONTINUOUS
10
2.74664
20
-2.02107
11
2.75358
21
-2.02167
0
LINE
8
BLACK
6
CONTINUOUS
10
2.75358
20
-2.02167
11
2.75358
21
-2.02167
0
LINE
8
BLACK
6
CONTINUOUS
10
2.75358
20
-2.02167
11
2.75823
21
-2.02167
0
LINE
8
BLACK
6
CONTINUOUS
10
2.75823
20
-2.02167
11
2.76517
21
-2.02107
0
LINE
8
BLACK
6
CONTINUOUS
10
2.76517
20
-2.02107
11
2.76517
21
-2.02107
0
LINE
8
BLACK
6
CONTINUOUS
10
2.76517
20
-2.02107
11
2.76517
21
-2.02107
0
LINE
8
BLACK
6
CONTINUOUS
10
2.76517
20
-2.02107
11
2.77416
21
-2.01866
0
LINE
8
BLACK
6
CONTINUOUS
10
2.77416
20
-2.01866
11
2.78259
21
-2.01473
0
LINE
8
BLACK
6
CONTINUOUS
10
2.78259
20
-2.01473
11
2.79021
21
-2.00939
0
LINE
8
BLACK
6
CONTINUOUS
10
2.79021
20
-2.00939
11
2.79679
21
-2.00281
0
LINE
8
BLACK
6
CONTINUOUS
10
2.79679
20
-2.00281
11
2.80213
21
-1.99519
0
LINE
8
BLACK
6
CONTINUOUS
10
2.80213
20
-1.99519
11
2.80606
21
-1.98676
0
LINE
8
BLACK
6
CONTINUOUS
10
2.80606
20
-1.98676
11
2.80847
21
-1.97777
0
LINE
8
BLACK
6
CONTINUOUS
10
2.80847
20
-1.97777
11
2.80928
21
-1.9685
0
LINE
8
BLACK
6
CONTINUOUS
10
2.80928
20
-1.9685
11
2.80928
21
-1.9685
0
LINE
8
BLACK
6
CONTINUOUS
10
2.80928
20
-1.9685
11
2.80847
21
-1.95924
0
LINE
8
BLACK
6
CONTINUOUS
10
2.80847
20
-1.95924
11
2.80606
21
-1.95025
0
LINE
8
BLACK
6
CONTINUOUS
10
2.80606
20
-1.95025
11
2.80213
21
-1.94182
0
LINE
8
BLACK
6
CONTINUOUS
10
2.80213
20
-1.94182
11
2.79679
21
-1.9342
0
LINE
8
BLACK
6
CONTINUOUS
10
2.79679
20
-1.9342
11
2.79021
21
-1.92762
0
LINE
8
BLACK
6
CONTINUOUS
10
2.79021
20
-1.92762
11
2.79021
21
-1.92762
0
LINE
8
BLACK
6
CONTINUOUS
10
2.79021
20
-1.92762
11
2.79021
21
-1.92762
0
LINE
8
BLACK
6
CONTINUOUS
10
2.79021
20
-1.92762
11
2.7826
21
-1.92229
0
LINE
8
BLACK
6
CONTINUOUS
10
2.7826
20
-1.92229
11
2.78259
21
-1.92228
0
LINE
8
BLACK
6
CONTINUOUS
10
2.78259
20
-1.92228
11
2.78259
21
-1.92228
0
LINE
8
BLACK
6
CONTINUOUS
10
2.78259
20
-1.92228
11
2.78259
21
-1.92228
0
LINE
8
BLACK
6
CONTINUOUS
10
2.78259
20
-1.92228
11
2.78259
21
-1.92228
0
LINE
8
BLACK
6
CONTINUOUS
10
2.78259
20
-1.92228
11
2.77416
21
-1.91835
0
LINE
8
BLACK
6
CONTINUOUS
10
2.77416
20
-1.91835
11
2.77416
21
-1.91835
0
LINE
8
BLACK
6
CONTINUOUS
10
2.77416
20
-1.91835
11
2.77116
21
-1.91755
0
LINE
8
BLACK
6
CONTINUOUS
10
2.77116
20
-1.91755
11
2.76517
21
-1.91594
0
LINE
8
BLACK
6
CONTINUOUS
10
2.76517
20
-1.91594
11
2.76517
21
-1.91594
0
LINE
8
BLACK
6
CONTINUOUS
10
2.76517
20
-1.91594
11
2.76517
21
-1.91594
0
LINE
8
BLACK
6
CONTINUOUS
10
2.76517
20
-1.91594
11
2.75823
21
-1.91533
0
LINE
8
BLACK
6
CONTINUOUS
10
2.75823
20
-1.91533
11
2.75823
21
-1.91533
0
LINE
8
BLACK
6
CONTINUOUS
10
2.75823
20
-1.91533
11
2.75358
21
-1.91533
0
LINE
8
BLACK
6
CONTINUOUS
10
2.75358
20
-1.91533
11
2.75358
21
-1.91533
0
LINE
8
BLACK
6
CONTINUOUS
10
2.75358
20
-1.91533
11
2.74664
21
-1.91594
0
LINE
8
BLACK
6
CONTINUOUS
10
2.74664
20
-1.91594
11
2.73765
21
-1.91835
0
LINE
8
BLACK
6
CONTINUOUS
10
2.73765
20
-1.91835
11
2.72922
21
-1.92228
0
LINE
8
BLACK
6
CONTINUOUS
10
2.72922
20
-1.92228
11
2.72922
21
-1.92228
0
LINE
8
BLACK
6
CONTINUOUS
10
2.72922
20
-1.92228
11
2.7216
21
-1.92762
0
LINE
8
BLACK
6
CONTINUOUS
10
2.7216
20
-1.92762
11
2.71502
21
-1.9342
0
LINE
8
BLACK
6
CONTINUOUS
10
2.71502
20
-1.9342
11
2.70968
21
-1.94182
0
LINE
8
BLACK
6
CONTINUOUS
10
2.70968
20
-1.94182
11
2.70575
21
-1.95025
0
LINE
8
BLACK
6
CONTINUOUS
10
2.70575
20
-1.95025
11
2.70334
21
-1.95924
0
LINE
8
BLACK
6
CONTINUOUS
10
2.70334
20
-1.95924
11
2.70253
21
-1.9685
0
LINE
8
BLACK
6
CONTINUOUS
10
2.70253
20
-1.9685
11
2.70253
21
-1.9685
0
LINE
8
BLACK
6
CONTINUOUS
10
2.70253
20
-1.9685
11
2.70334
21
-1.97777
0
LINE
8
BLACK
6
CONTINUOUS
10
3.3563
20
-2.77067
11
3.35907
21
-2.77067
0
LINE
8
BLACK
6
CONTINUOUS
10
3.35907
20
-2.77067
11
3.36128
21
-2.76633
0
LINE
8
BLACK
6
CONTINUOUS
10
3.36128
20
-2.76633
11
3.36476
21
-2.76285
0
LINE
8
BLACK
6
CONTINUOUS
10
3.36476
20
-2.76285
11
3.36915
21
-2.76061
0
LINE
8
BLACK
6
CONTINUOUS
10
3.36915
20
-2.76061
11
3.37402
21
-2.75984
0
LINE
8
BLACK
6
CONTINUOUS
10
3.37402
20
-2.75984
11
3.37888
21
-2.76061
0
LINE
8
BLACK
6
CONTINUOUS
10
3.37888
20
-2.76061
11
3.38327
21
-2.76285
0
LINE
8
BLACK
6
CONTINUOUS
10
3.38327
20
-2.76285
11
3.38676
21
-2.76633
0
LINE
8
BLACK
6
CONTINUOUS
10
3.38676
20
-2.76633
11
3.38899
21
-2.77072
0
LINE
8
BLACK
6
CONTINUOUS
10
3.38899
20
-2.77072
11
3.38976
21
-2.77559
0
LINE
8
BLACK
6
CONTINUOUS
10
3.38976
20
-2.77559
11
3.38899
21
-2.78046
0
LINE
8
BLACK
6
CONTINUOUS
10
3.38899
20
-2.78046
11
3.38676
21
-2.78485
0
LINE
8
BLACK
6
CONTINUOUS
10
3.38676
20
-2.78485
11
3.38327
21
-2.78833
0
LINE
8
BLACK
6
CONTINUOUS
10
3.38327
20
-2.78833
11
3.37888
21
-2.79057
0
LINE
8
BLACK
6
CONTINUOUS
10
3.37888
20
-2.79057
11
3.37402
21
-2.79134
0
LINE
8
BLACK
6
CONTINUOUS
10
3.37402
20
-2.79134
11
3.36915
21
-2.79057
0
LINE
8
BLACK
6
CONTINUOUS
10
3.36915
20
-2.79057
11
3.36476
21
-2.78833
0
LINE
8
BLACK
6
CONTINUOUS
10
3.36476
20
-2.78833
11
3.36128
21
-2.78485
0
LINE
8
BLACK
6
CONTINUOUS
10
3.36128
20
-2.78485
11
3.35907
21
-2.78051
0
LINE
8
BLACK
6
CONTINUOUS
10
3.35907
20
-2.78051
11
3.3563
21
-2.78051
0
LINE
8
BLACK
6
CONTINUOUS
10
3.3563
20
-2.78051
11
3.3563
21
-2.79528
0
LINE
8
BLACK
6
CONTINUOUS
10
3.3563
20
-2.79528
11
3.33373
21
-2.79528
0
LINE
8
BLACK
6
CONTINUOUS
10
3.33373
20
-2.79528
11
3.33557
21
-2.79711
0
LINE
8
BLACK
6
CONTINUOUS
10
3.33557
20
-2.79711
11
3.33765
21
-2.79605
0
LINE
8
BLACK
6
CONTINUOUS
10
3.33765
20
-2.79605
11
3.34252
21
-2.79528
0
LINE
8
BLACK
6
CONTINUOUS
10
3.34252
20
-2.79528
11
3.34739
21
-2.79605
0
LINE
8
BLACK
6
CONTINUOUS
10
3.34739
20
-2.79605
11
3.35178
21
-2.79828
0
LINE
8
BLACK
6
CONTINUOUS
10
3.35178
20
-2.79828
11
3.35526
21
-2.80177
0
LINE
8
BLACK
6
CONTINUOUS
10
3.35526
20
-2.80177
11
3.3575
21
-2.80616
0
LINE
8
BLACK
6
CONTINUOUS
10
3.3575
20
-2.80616
11
3.35827
21
-2.81102
0
LINE
8
BLACK
6
CONTINUOUS
10
3.35827
20
-2.81102
11
3.3575
21
-2.81589
0
LINE
8
BLACK
6
CONTINUOUS
10
3.3575
20
-2.81589
11
3.35526
21
-2.82028
0
LINE
8
BLACK
6
CONTINUOUS
10
3.35526
20
-2.82028
11
3.35178
21
-2.82376
0
LINE
8
BLACK
6
CONTINUOUS
10
3.35178
20
-2.82376
11
3.34739
21
-2.826
0
LINE
8
BLACK
6
CONTINUOUS
10
3.34739
20
-2.826
11
3.34252
21
-2.82677
0
LINE
8
BLACK
6
CONTINUOUS
10
3.34252
20
-2.82677
11
3.33765
21
-2.826
0
LINE
8
BLACK
6
CONTINUOUS
10
3.33765
20
-2.826
11
3.33326
21
-2.82376
0
LINE
8
BLACK
6
CONTINUOUS
10
3.33326
20
-2.82376
11
3.32978
21
-2.82028
0
LINE
8
BLACK
6
CONTINUOUS
10
3.32978
20
-2.82028
11
3.32754
21
-2.81589
0
LINE
8
BLACK
6
CONTINUOUS
10
3.32754
20
-2.81589
11
3.32677
21
-2.81102
0
LINE
8
BLACK
6
CONTINUOUS
10
3.32677
20
-2.81102
11
3.32754
21
-2.80616
0
LINE
8
BLACK
6
CONTINUOUS
10
3.32754
20
-2.80616
11
3.32861
21
-2.80407
0
LINE
8
BLACK
6
CONTINUOUS
10
3.32861
20
-2.80407
11
3.31981
21
-2.79528
0
LINE
8
BLACK
6
CONTINUOUS
10
3.31981
20
-2.79528
11
3.30709
21
-2.79528
0
LINE
8
BLACK
6
CONTINUOUS
10
3.30709
20
-2.79528
11
3.30709
21
-2.7959
0
LINE
8
BLACK
6
CONTINUOUS
10
3.30709
20
-2.7959
11
3.30802
21
-2.79605
0
LINE
8
BLACK
6
CONTINUOUS
10
3.30802
20
-2.79605
11
3.31241
21
-2.79828
0
LINE
8
BLACK
6
CONTINUOUS
10
3.31241
20
-2.79828
11
3.31589
21
-2.80177
0
LINE
8
BLACK
6
CONTINUOUS
10
3.31589
20
-2.80177
11
3.31813
21
-2.80616
0
LINE
8
BLACK
6
CONTINUOUS
10
3.31813
20
-2.80616
11
3.3189
21
-2.81102
0
LINE
8
BLACK
6
CONTINUOUS
10
3.3189
20
-2.81102
11
3.31813
21
-2.81589
0
LINE
8
BLACK
6
CONTINUOUS
10
3.31813
20
-2.81589
11
3.31589
21
-2.82028
0
LINE
8
BLACK
6
CONTINUOUS
10
3.31589
20
-2.82028
11
3.31241
21
-2.82376
0
LINE
8
BLACK
6
CONTINUOUS
10
3.31241
20
-2.82376
11
3.30802
21
-2.826
0
LINE
8
BLACK
6
CONTINUOUS
10
3.30802
20
-2.826
11
3.30315
21
-2.82677
0
LINE
8
BLACK
6
CONTINUOUS
10
3.30315
20
-2.82677
11
3.29828
21
-2.826
0
LINE
8
BLACK
6
CONTINUOUS
10
3.29828
20
-2.826
11
3.29389
21
-2.82376
0
LINE
8
BLACK
6
CONTINUOUS
10
3.29389
20
-2.82376
11
3.29041
21
-2.82028
0
LINE
8
BLACK
6
CONTINUOUS
10
3.29041
20
-2.82028
11
3.28817
21
-2.81589
0
LINE
8
BLACK
6
CONTINUOUS
10
3.28817
20
-2.81589
11
3.2874
21
-2.81102
0
LINE
8
BLACK
6
CONTINUOUS
10
3.2874
20
-2.81102
11
3.28817
21
-2.80616
0
LINE
8
BLACK
6
CONTINUOUS
10
3.28817
20
-2.80616
11
3.29041
21
-2.80177
0
LINE
8
BLACK
6
CONTINUOUS
10
3.29041
20
-2.80177
11
3.29389
21
-2.79828
0
LINE
8
BLACK
6
CONTINUOUS
10
3.29389
20
-2.79828
11
3.29724
21
-2.79658
0
LINE
8
BLACK
6
CONTINUOUS
10
3.29724
20
-2.79658
11
3.29724
21
-2.79528
0
LINE
8
BLACK
6
CONTINUOUS
10
3.29724
20
-2.79528
11
3.28649
21
-2.79528
0
LINE
8
BLACK
6
CONTINUOUS
10
3.28649
20
-2.79528
11
3.27769
21
-2.80407
0
LINE
8
BLACK
6
CONTINUOUS
10
3.27769
20
-2.80407
11
3.27876
21
-2.80616
0
LINE
8
BLACK
6
CONTINUOUS
10
3.27876
20
-2.80616
11
3.27953
21
-2.81102
0
LINE
8
BLACK
6
CONTINUOUS
10
3.27953
20
-2.81102
11
3.27876
21
-2.81589
0
LINE
8
BLACK
6
CONTINUOUS
10
3.27876
20
-2.81589
11
3.27652
21
-2.82028
0
LINE
8
BLACK
6
CONTINUOUS
10
3.27652
20
-2.82028
11
3.27304
21
-2.82376
0
LINE
8
BLACK
6
CONTINUOUS
10
3.27304
20
-2.82376
11
3.26865
21
-2.826
0
LINE
8
BLACK
6
CONTINUOUS
10
3.26865
20
-2.826
11
3.26378
21
-2.82677
0
LINE
8
BLACK
6
CONTINUOUS
10
3.26378
20
-2.82677
11
3.25891
21
-2.826
0
LINE
8
BLACK
6
CONTINUOUS
10
3.25891
20
-2.826
11
3.25452
21
-2.82376
0
LINE
8
BLACK
6
CONTINUOUS
10
3.25452
20
-2.82376
11
3.25104
21
-2.82028
0
LINE
8
BLACK
6
CONTINUOUS
10
3.25104
20
-2.82028
11
3.2488
21
-2.81589
0
LINE
8
BLACK
6
CONTINUOUS
10
3.2488
20
-2.81589
11
3.24803
21
-2.81102
0
LINE
8
BLACK
6
CONTINUOUS
10
3.24803
20
-2.81102
11
3.2488
21
-2.80616
0
LINE
8
BLACK
6
CONTINUOUS
10
3.2488
20
-2.80616
11
3.25104
21
-2.80177
0
LINE
8
BLACK
6
CONTINUOUS
10
3.25104
20
-2.80177
11
3.25452
21
-2.79828
0
LINE
8
BLACK
6
CONTINUOUS
10
3.25452
20
-2.79828
11
3.25891
21
-2.79605
0
LINE
8
BLACK
6
CONTINUOUS
10
3.25891
20
-2.79605
11
3.26378
21
-2.79528
0
LINE
8
BLACK
6
CONTINUOUS
10
3.26378
20
-2.79528
11
3.26865
21
-2.79605
0
LINE
8
BLACK
6
CONTINUOUS
10
3.26865
20
-2.79605
11
3.27073
21
-2.79711
0
LINE
8
BLACK
6
CONTINUOUS
10
3.27073
20
-2.79711
11
3.27257
21
-2.79528
0
LINE
8
BLACK
6
CONTINUOUS
10
3.27257
20
-2.79528
11
3.24803
21
-2.79528
0
LINE
8
BLACK
6
CONTINUOUS
10
3.24803
20
-2.79528
11
3.24803
21
-2.75591
0
LINE
8
BLACK
6
CONTINUOUS
10
3.24803
20
-2.75591
11
3.3563
21
-2.75591
0
LINE
8
BLACK
6
CONTINUOUS
10
3.3563
20
-2.75591
11
3.3563
21
-2.77067
0
LINE
8
BLACK
6
CONTINUOUS
10
3.50394
20
-2.53937
11
3.46457
21
-2.53937
0
LINE
8
BLACK
6
CONTINUOUS
10
3.46457
20
-2.53937
11
3.46457
21
-2.50492
0
LINE
8
BLACK
6
CONTINUOUS
10
3.46457
20
-2.50492
11
3.43291
21
-2.50492
0
LINE
8
BLACK
6
CONTINUOUS
10
3.43291
20
-2.50492
11
3.4323
21
-2.5088
0
LINE
8
BLACK
6
CONTINUOUS
10
3.4323
20
-2.5088
11
3.43006
21
-2.51319
0
LINE
8
BLACK
6
CONTINUOUS
10
3.43006
20
-2.51319
11
3.42658
21
-2.51668
0
LINE
8
BLACK
6
CONTINUOUS
10
3.42658
20
-2.51668
11
3.42224
21
-2.51889
0
LINE
8
BLACK
6
CONTINUOUS
10
3.42224
20
-2.51889
11
3.42224
21
-2.54646
0
LINE
8
BLACK
6
CONTINUOUS
10
3.42224
20
-2.54646
11
3.42212
21
-2.54733
0
LINE
8
BLACK
6
CONTINUOUS
10
3.42212
20
-2.54733
11
3.42213
21
-2.5475
0
LINE
8
BLACK
6
CONTINUOUS
10
3.42213
20
-2.5475
11
3.42208
21
-2.5476
0
LINE
8
BLACK
6
CONTINUOUS
10
3.42208
20
-2.5476
11
3.42204
21
-2.54784
0
LINE
8
BLACK
6
CONTINUOUS
10
3.42204
20
-2.54784
11
3.42139
21
-2.54887
0
LINE
8
BLACK
6
CONTINUOUS
10
3.42139
20
-2.54887
11
3.4208
21
-2.54994
0
LINE
8
BLACK
6
CONTINUOUS
10
3.4208
20
-2.54994
11
3.30709
21
-2.66365
0
LINE
8
BLACK
6
CONTINUOUS
10
3.30709
20
-2.66365
11
3.30709
21
-2.67717
0
LINE
8
BLACK
6
CONTINUOUS
10
3.30709
20
-2.67717
11
3.3563
21
-2.67717
0
LINE
8
BLACK
6
CONTINUOUS
10
3.3563
20
-2.67717
11
3.3563
21
-2.71654
0
LINE
8
BLACK
6
CONTINUOUS
10
3.3563
20
-2.71654
11
3.24803
21
-2.71654
0
LINE
8
BLACK
6
CONTINUOUS
10
3.24803
20
-2.71654
11
3.24803
21
-2.67717
0
LINE
8
BLACK
6
CONTINUOUS
10
3.24803
20
-2.67717
11
3.29724
21
-2.67717
0
LINE
8
BLACK
6
CONTINUOUS
10
3.29724
20
-2.67717
11
3.29724
21
-2.66161
0
LINE
8
BLACK
6
CONTINUOUS
10
3.29724
20
-2.66161
11
3.29737
21
-2.66074
0
LINE
8
BLACK
6
CONTINUOUS
10
3.29737
20
-2.66074
11
3.29736
21
-2.66057
0
LINE
8
BLACK
6
CONTINUOUS
10
3.29736
20
-2.66057
11
3.29741
21
-2.66047
0
LINE
8
BLACK
6
CONTINUOUS
10
3.29741
20
-2.66047
11
3.29744
21
-2.66023
0
LINE
8
BLACK
6
CONTINUOUS
10
3.29744
20
-2.66023
11
3.2981
21
-2.6592
0
LINE
8
BLACK
6
CONTINUOUS
10
3.2981
20
-2.6592
11
3.29869
21
-2.65813
0
LINE
8
BLACK
6
CONTINUOUS
10
3.29869
20
-2.65813
11
3.4124
21
-2.54442
0
LINE
8
BLACK
6
CONTINUOUS
10
3.4124
20
-2.54442
11
3.4124
21
-2.51889
0
LINE
8
BLACK
6
CONTINUOUS
10
3.4124
20
-2.51889
11
3.40807
21
-2.51668
0
LINE
8
BLACK
6
CONTINUOUS
10
3.40807
20
-2.51668
11
3.40458
21
-2.51319
0
LINE
8
BLACK
6
CONTINUOUS
10
3.40458
20
-2.51319
11
3.40235
21
-2.5088
0
LINE
8
BLACK
6
CONTINUOUS
10
3.40235
20
-2.5088
11
3.40157
21
-2.50394
0
LINE
8
BLACK
6
CONTINUOUS
10
3.40157
20
-2.50394
11
3.40235
21
-2.49907
0
LINE
8
BLACK
6
CONTINUOUS
10
3.40235
20
-2.49907
11
3.40458
21
-2.49468
0
LINE
8
BLACK
6
CONTINUOUS
10
3.40458
20
-2.49468
11
3.40807
21
-2.4912
0
LINE
8
BLACK
6
CONTINUOUS
10
3.40807
20
-2.4912
11
3.41246
21
-2.48896
0
LINE
8
BLACK
6
CONTINUOUS
10
3.41246
20
-2.48896
11
3.41732
21
-2.48819
0
LINE
8
BLACK
6
CONTINUOUS
10
3.41732
20
-2.48819
11
3.42219
21
-2.48896
0
LINE
8
BLACK
6
CONTINUOUS
10
3.42219
20
-2.48896
11
3.42658
21
-2.4912
0
LINE
8
BLACK
6
CONTINUOUS
10
3.42658
20
-2.4912
11
3.43006
21
-2.49468
0
LINE
8
BLACK
6
CONTINUOUS
10
3.43006
20
-2.49468
11
3.43027
21
-2.49508
0
LINE
8
BLACK
6
CONTINUOUS
10
3.43027
20
-2.49508
11
3.46457
21
-2.49508
0
LINE
8
BLACK
6
CONTINUOUS
10
3.46457
20
-2.49508
11
3.46457
21
-2.4311
0
LINE
8
BLACK
6
CONTINUOUS
10
3.46457
20
-2.4311
11
3.50394
21
-2.4311
0
LINE
8
BLACK
6
CONTINUOUS
10
3.50394
20
-2.4311
11
3.50394
21
-2.53937
0
LINE
8
BLACK
6
CONTINUOUS
10
3.50394
20
-2.29331
11
3.48917
21
-2.29331
0
LINE
8
BLACK
6
CONTINUOUS
10
3.48917
20
-2.29331
11
3.48917
21
-2.37933
0
LINE
8
BLACK
6
CONTINUOUS
10
3.48917
20
-2.37933
11
3.58689
21
-2.37933
0
LINE
8
BLACK
6
CONTINUOUS
10
3.58689
20
-2.37933
11
3.58776
21
-2.37946
0
LINE
8
BLACK
6
CONTINUOUS
10
3.58776
20
-2.37946
11
3.58794
21
-2.37944
0
LINE
8
BLACK
6
CONTINUOUS
10
3.58794
20
-2.37944
11
3.58803
21
-2.37949
0
LINE
8
BLACK
6
CONTINUOUS
10
3.58803
20
-2.37949
11
3.58828
21
-2.37953
0
LINE
8
BLACK
6
CONTINUOUS
10
3.58828
20
-2.37953
11
3.5893
21
-2.38019
0
LINE
8
BLACK
6
CONTINUOUS
10
3.5893
20
-2.38019
11
3.59037
21
-2.38077
0
LINE
8
BLACK
6
CONTINUOUS
10
3.59037
20
-2.38077
11
3.61194
21
-2.40235
0
LINE
8
BLACK
6
CONTINUOUS
10
3.61194
20
-2.40235
11
3.61247
21
-2.40305
0
LINE
8
BLACK
6
CONTINUOUS
10
3.61247
20
-2.40305
11
3.6126
21
-2.40317
0
LINE
8
BLACK
6
CONTINUOUS
10
3.6126
20
-2.40317
11
3.61263
21
-2.40327
0
LINE
8
BLACK
6
CONTINUOUS
10
3.61263
20
-2.40327
11
3.61278
21
-2.40347
0
LINE
8
BLACK
6
CONTINUOUS
10
3.61278
20
-2.40347
11
3.61304
21
-2.40466
0
LINE
8
BLACK
6
CONTINUOUS
10
3.61304
20
-2.40466
11
3.61339
21
-2.40583
0
LINE
8
BLACK
6
CONTINUOUS
10
3.61339
20
-2.40583
11
3.61339
21
-2.6563
0
LINE
8
BLACK
6
CONTINUOUS
10
3.61339
20
-2.6563
11
3.61326
21
-2.65717
0
LINE
8
BLACK
6
CONTINUOUS
10
3.61326
20
-2.65717
11
3.61327
21
-2.65735
0
LINE
8
BLACK
6
CONTINUOUS
10
3.61327
20
-2.65735
11
3.61322
21
-2.65744
0
LINE
8
BLACK
6
CONTINUOUS
10
3.61322
20
-2.65744
11
3.61319
21
-2.65769
0
LINE
8
BLACK
6
CONTINUOUS
10
3.61319
20
-2.65769
11
3.61253
21
-2.65871
0
LINE
8
BLACK
6
CONTINUOUS
10
3.61253
20
-2.65871
11
3.61194
21
-2.65978
0
LINE
8
BLACK
6
CONTINUOUS
10
3.61194
20
-2.65978
11
3.59456
21
-2.67717
0
LINE
8
BLACK
6
CONTINUOUS
10
3.59456
20
-2.67717
11
3.60236
21
-2.67717
0
LINE
8
BLACK
6
CONTINUOUS
10
3.60236
20
-2.67717
11
3.60236
21
-2.71654
0
LINE
8
BLACK
6
CONTINUOUS
10
3.60236
20
-2.71654
11
3.49409
21
-2.71654
0
LINE
8
BLACK
6
CONTINUOUS
10
3.49409
20
-2.71654
11
3.49409
21
-2.67717
0
LINE
8
BLACK
6
CONTINUOUS
10
3.49409
20
-2.67717
11
3.58286
21
-2.67717
0
LINE
8
BLACK
6
CONTINUOUS
10
3.58286
20
-2.67717
11
3.58279
21
-2.67612
0
LINE
8
BLACK
6
CONTINUOUS
10
3.58279
20
-2.67612
11
3.58412
21
-2.67369
0
LINE
8
BLACK
6
CONTINUOUS
10
3.58412
20
-2.67369
11
3.60354
21
-2.65426
0
LINE
8
BLACK
6
CONTINUOUS
10
3.60354
20
-2.65426
11
3.60354
21
-2.40786
0
LINE
8
BLACK
6
CONTINUOUS
10
3.60354
20
-2.40786
11
3.58485
21
-2.38917
0
LINE
8
BLACK
6
CONTINUOUS
10
3.58485
20
-2.38917
11
3.48826
21
-2.38917
0
LINE
8
BLACK
6
CONTINUOUS
10
3.48826
20
-2.38917
11
3.4756
21
-2.40183
0
LINE
8
BLACK
6
CONTINUOUS
10
3.4756
20
-2.40183
11
3.476
21
-2.40261
0
LINE
8
BLACK
6
CONTINUOUS
10
3.476
20
-2.40261
11
3.47677
21
-2.40748
0
LINE
8
BLACK
6
CONTINUOUS
10
3.47677
20
-2.40748
11
3.476
21
-2.41235
0
LINE
8
BLACK
6
CONTINUOUS
10
3.476
20
-2.41235
11
3.47376
21
-2.41674
0
LINE
8
BLACK
6
CONTINUOUS
10
3.47376
20
-2.41674
11
3.47028
21
-2.42022
0
LINE
8
BLACK
6
CONTINUOUS
10
3.47028
20
-2.42022
11
3.46589
21
-2.42246
0
LINE
8
BLACK
6
CONTINUOUS
10
3.46589
20
-2.42246
11
3.46102
21
-2.42323
0
LINE
8
BLACK
6
CONTINUOUS
10
3.46102
20
-2.42323
11
3.45616
21
-2.42246
0
LINE
8
BLACK
6
CONTINUOUS
10
3.45616
20
-2.42246
11
3.45177
21
-2.42022
0
LINE
8
BLACK
6
CONTINUOUS
10
3.45177
20
-2.42022
11
3.44828
21
-2.41674
0
LINE
8
BLACK
6
CONTINUOUS
10
3.44828
20
-2.41674
11
3.44605
21
-2.41235
0
LINE
8
BLACK
6
CONTINUOUS
10
3.44605
20
-2.41235
11
3.44528
21
-2.40748
0
LINE
8
BLACK
6
CONTINUOUS
10
3.44528
20
-2.40748
11
3.44605
21
-2.40261
0
LINE
8
BLACK
6
CONTINUOUS
10
3.44605
20
-2.40261
11
3.44828
21
-2.39822
0
LINE
8
BLACK
6
CONTINUOUS
10
3.44828
20
-2.39822
11
3.45177
21
-2.39474
0
LINE
8
BLACK
6
CONTINUOUS
10
3.45177
20
-2.39474
11
3.45616
21
-2.3925
0
LINE
8
BLACK
6
CONTINUOUS
10
3.45616
20
-2.3925
11
3.46102
21
-2.39173
0
LINE
8
BLACK
6
CONTINUOUS
10
3.46102
20
-2.39173
11
3.46589
21
-2.3925
0
LINE
8
BLACK
6
CONTINUOUS
10
3.46589
20
-2.3925
11
3.46928
21
-2.39423
0
LINE
8
BLACK
6
CONTINUOUS
10
3.46928
20
-2.39423
11
3.47933
21
-2.38418
0
LINE
8
BLACK
6
CONTINUOUS
10
3.47933
20
-2.38418
11
3.47933
21
-2.29331
0
LINE
8
BLACK
6
CONTINUOUS
10
3.47933
20
-2.29331
11
3.46457
21
-2.29331
0
LINE
8
BLACK
6
CONTINUOUS
10
3.46457
20
-2.29331
11
3.46457
21
-2.18504
0
LINE
8
BLACK
6
CONTINUOUS
10
3.46457
20
-2.18504
11
3.50394
21
-2.18504
0
LINE
8
BLACK
6
CONTINUOUS
10
3.50394
20
-2.18504
11
3.50394
21
-2.29331
0
LINE
8
BLACK
6
CONTINUOUS
10
3.58361
20
-2.54014
11
3.588
21
-2.54238
0
LINE
8
BLACK
6
CONTINUOUS
10
3.588
20
-2.54238
11
3.59148
21
-2.54586
0
LINE
8
BLACK
6
CONTINUOUS
10
3.59148
20
-2.54586
11
3.59372
21
-2.55025
0
LINE
8
BLACK
6
CONTINUOUS
10
3.59372
20
-2.55025
11
3.59449
21
-2.55512
0
LINE
8
BLACK
6
CONTINUOUS
10
3.59449
20
-2.55512
11
3.59372
21
-2.55998
0
LINE
8
BLACK
6
CONTINUOUS
10
3.59372
20
-2.55998
11
3.59148
21
-2.56437
0
LINE
8
BLACK
6
CONTINUOUS
10
3.59148
20
-2.56437
11
3.588
21
-2.56786
0
LINE
8
BLACK
6
CONTINUOUS
10
3.588
20
-2.56786
11
3.58361
21
-2.5701
0
LINE
8
BLACK
6
CONTINUOUS
10
3.58361
20
-2.5701
11
3.57874
21
-2.57087
0
LINE
8
BLACK
6
CONTINUOUS
10
3.57874
20
-2.57087
11
3.57387
21
-2.5701
0
LINE
8
BLACK
6
CONTINUOUS
10
3.57387
20
-2.5701
11
3.56948
21
-2.56786
0
LINE
8
BLACK
6
CONTINUOUS
10
3.56948
20
-2.56786
11
3.566
21
-2.56437
0
LINE
8
BLACK
6
CONTINUOUS
10
3.566
20
-2.56437
11
3.56398
21
-2.5604
0
LINE
8
BLACK
6
CONTINUOUS
10
3.56398
20
-2.5604
11
3.56195
21
-2.56437
0
LINE
8
BLACK
6
CONTINUOUS
10
3.56195
20
-2.56437
11
3.55847
21
-2.56786
0
LINE
8
BLACK
6
CONTINUOUS
10
3.55847
20
-2.56786
11
3.55408
21
-2.5701
0
LINE
8
BLACK
6
CONTINUOUS
10
3.55408
20
-2.5701
11
3.54921
21
-2.57087
0
LINE
8
BLACK
6
CONTINUOUS
10
3.54921
20
-2.57087
11
3.54435
21
-2.5701
0
LINE
8
BLACK
6
CONTINUOUS
10
3.54435
20
-2.5701
11
3.53996
21
-2.56786
0
LINE
8
BLACK
6
CONTINUOUS
10
3.53996
20
-2.56786
11
3.53647
21
-2.56437
0
LINE
8
BLACK
6
CONTINUOUS
10
3.53647
20
-2.56437
11
3.53424
21
-2.55998
0
LINE
8
BLACK
6
CONTINUOUS
10
3.53424
20
-2.55998
11
3.53346
21
-2.55512
0
LINE
8
BLACK
6
CONTINUOUS
10
3.53346
20
-2.55512
11
3.53424
21
-2.55025
0
LINE
8
BLACK
6
CONTINUOUS
10
3.53424
20
-2.55025
11
3.53647
21
-2.54586
0
LINE
8
BLACK
6
CONTINUOUS
10
3.53647
20
-2.54586
11
3.53996
21
-2.54238
0
LINE
8
BLACK
6
CONTINUOUS
10
3.53996
20
-2.54238
11
3.54435
21
-2.54014
0
LINE
8
BLACK
6
CONTINUOUS
10
3.54435
20
-2.54014
11
3.54921
21
-2.53937
0
LINE
8
BLACK
6
CONTINUOUS
10
3.54921
20
-2.53937
11
3.55408
21
-2.54014
0
LINE
8
BLACK
6
CONTINUOUS
10
3.55408
20
-2.54014
11
3.55847
21
-2.54238
0
LINE
8
BLACK
6
CONTINUOUS
10
3.55847
20
-2.54238
11
3.56195
21
-2.54586
0
LINE
8
BLACK
6
CONTINUOUS
10
3.56195
20
-2.54586
11
3.56398
21
-2.54983
0
LINE
8
BLACK
6
CONTINUOUS
10
3.56398
20
-2.54983
11
3.566
21
-2.54586
0
LINE
8
BLACK
6
CONTINUOUS
10
3.566
20
-2.54586
11
3.56948
21
-2.54238
0
LINE
8
BLACK
6
CONTINUOUS
10
3.56948
20
-2.54238
11
3.57387
21
-2.54014
0
LINE
8
BLACK
6
CONTINUOUS
10
3.57387
20
-2.54014
11
3.57874
21
-2.53937
0
LINE
8
BLACK
6
CONTINUOUS
10
3.57874
20
-2.53937
11
3.58361
21
-2.54014
0
LINE
8
BLACK
6
CONTINUOUS
10
3.58558
20
-2.40235
11
3.58997
21
-2.40458
0
LINE
8
BLACK
6
CONTINUOUS
10
3.58997
20
-2.40458
11
3.59345
21
-2.40807
0
LINE
8
BLACK
6
CONTINUOUS
10
3.59345
20
-2.40807
11
3.59569
21
-2.41246
0
LINE
8
BLACK
6
CONTINUOUS
10
3.59569
20
-2.41246
11
3.59646
21
-2.41732
0
LINE
8
BLACK
6
CONTINUOUS
10
3.59646
20
-2.41732
11
3.59569
21
-2.42219
0
LINE
8
BLACK
6
CONTINUOUS
10
3.59569
20
-2.42219
11
3.59345
21
-2.42658
0
LINE
8
BLACK
6
CONTINUOUS
10
3.59345
20
-2.42658
11
3.58997
21
-2.43006
0
LINE
8
BLACK
6
CONTINUOUS
10
3.58997
20
-2.43006
11
3.58558
21
-2.4323
0
LINE
8
BLACK
6
CONTINUOUS
10
3.58558
20
-2.4323
11
3.58268
21
-2.43276
0
LINE
8
BLACK
6
CONTINUOUS
10
3.58268
20
-2.43276
11
3.58268
21
-2.53937
0
LINE
8
BLACK
6
CONTINUOUS
10
3.58268
20
-2.53937
11
3.54331
21
-2.53937
0
LINE
8
BLACK
6
CONTINUOUS
10
3.54331
20
-2.53937
11
3.54331
21
-2.4311
0
LINE
8
BLACK
6
CONTINUOUS
10
3.54331
20
-2.4311
11
3.54396
21
-2.4311
0
LINE
8
BLACK
6
CONTINUOUS
10
3.54396
20
-2.4311
11
3.54192
21
-2.43006
0
LINE
8
BLACK
6
CONTINUOUS
10
3.54192
20
-2.43006
11
3.53844
21
-2.42658
0
LINE
8
BLACK
6
CONTINUOUS
10
3.53844
20
-2.42658
11
3.5362
21
-2.42219
0
LINE
8
BLACK
6
CONTINUOUS
10
3.5362
20
-2.42219
11
3.53543
21
-2.41732
0
LINE
8
BLACK
6
CONTINUOUS
10
3.53543
20
-2.41732
11
3.5362
21
-2.41246
0
LINE
8
BLACK
6
CONTINUOUS
10
3.5362
20
-2.41246
11
3.53844
21
-2.40807
0
LINE
8
BLACK
6
CONTINUOUS
10
3.53844
20
-2.40807
11
3.54192
21
-2.40458
0
LINE
8
BLACK
6
CONTINUOUS
10
3.54192
20
-2.40458
11
3.54631
21
-2.40235
0
LINE
8
BLACK
6
CONTINUOUS
10
3.54631
20
-2.40235
11
3.55118
21
-2.40157
0
LINE
8
BLACK
6
CONTINUOUS
10
3.55118
20
-2.40157
11
3.55605
21
-2.40235
0
LINE
8
BLACK
6
CONTINUOUS
10
3.55605
20
-2.40235
11
3.56044
21
-2.40458
0
LINE
8
BLACK
6
CONTINUOUS
10
3.56044
20
-2.40458
11
3.56392
21
-2.40807
0
LINE
8
BLACK
6
CONTINUOUS
10
3.56392
20
-2.40807
11
3.56594
21
-2.41204
0
LINE
8
BLACK
6
CONTINUOUS
10
3.56594
20
-2.41204
11
3.56797
21
-2.40807
0
LINE
8
BLACK
6
CONTINUOUS
10
3.56797
20
-2.40807
11
3.57145
21
-2.40458
0
LINE
8
BLACK
6
CONTINUOUS
10
3.57145
20
-2.40458
11
3.57584
21
-2.40235
0
LINE
8
BLACK
6
CONTINUOUS
10
3.57584
20
-2.40235
11
3.58071
21
-2.40157
0
LINE
8
BLACK
6
CONTINUOUS
10
3.58071
20
-2.40157
11
3.58558
21
-2.40235
0
LINE
8
BLACK
6
CONTINUOUS
10
3.56392
20
-2.42658
11
3.56044
21
-2.43006
0
LINE
8
BLACK
6
CONTINUOUS
10
3.56044
20
-2.43006
11
3.5584
21
-2.4311
0
LINE
8
BLACK
6
CONTINUOUS
10
3.5584
20
-2.4311
11
3.57349
21
-2.4311
0
LINE
8
BLACK
6
CONTINUOUS
10
3.57349
20
-2.4311
11
3.57145
21
-2.43006
0
LINE
8
BLACK
6
CONTINUOUS
10
3.57145
20
-2.43006
11
3.56797
21
-2.42658
0
LINE
8
BLACK
6
CONTINUOUS
10
3.56797
20
-2.42658
11
3.56594
21
-2.42261
0
LINE
8
BLACK
6
CONTINUOUS
10
3.56594
20
-2.42261
11
3.56392
21
-2.42658
0
CIRCLE
8
BLACK
10
3.54331
20
-1.9685
40
0.0433071
0
CIRCLE
8
BLACK
10
2.75591
20
-1.9685
40
0.0433071
0
CIRCLE
8
BLACK
10
2.75591
20
-2.75591
40
0.0433071
0
CIRCLE
8
BLACK
10
3.41732
20
-2.50394
40
0.00787402
0
CIRCLE
8
BLACK
10
2.91339
20
-2.04724
40
0.00787402
0
CIRCLE
8
BLACK
10
3.54048
20
-2.31511
40
0.00787402
0
CIRCLE
8
BLACK
10
2.75873
20
-2.4093
40
0.00787402
0
CIRCLE
8
BLACK
10
2.99495
20
-2.72426
40
0.00787402
0
CIRCLE
8
BLACK
10
3.1967
20
-2.75308
40
0.00787402
0
CIRCLE
8
BLACK
10
3.30426
20
-2.00015
40
0.00787402
0
CIRCLE
8
BLACK
10
2.83465
20
-2.59843
40
0.00787402
0
CIRCLE
8
BLACK
10
3.38583
20
-2.6748
40
0.00787402
0
CIRCLE
8
BLACK
10
2.78755
20
-2.20755
40
0.00787402
0
CIRCLE
8
BLACK
10
3.46457
20
-2.12598
40
0.00787402
0
CIRCLE
8
BLACK
10
3.4748
20
-2.59921
40
0.00787402
0
CIRCLE
8
BLACK
10
3.10251
20
-1.97133
40
0.00787402
0
CIRCLE
8
BLACK
10
3.55118
20
-2.41732
40
0.00787402
0
CIRCLE
8
BLACK
10
3.26378
20
-2.81102
40
0.00787402
0
CIRCLE
8
BLACK
10
3.58071
20
-2.41732
40
0.00787402
0
CIRCLE
8
BLACK
10
3.57874
20
-2.55512
40
0.00787402
0
CIRCLE
8
BLACK
10
3.54921
20
-2.55512
40
0.00787402
0
CIRCLE
8
BLACK
10
3.34252
20
-2.81102
40
0.00787402
0
CIRCLE
8
BLACK
10
3.37402
20
-2.77559
40
0.00787402
0
CIRCLE
8
BLACK
10
3.30315
20
-2.81102
40
0.00787402
0
CIRCLE
8
BLACK
10
3.46102
20
-2.40748
40
0.00787402
  0
ENDSEC
  0
EOF
