  0
SECTION
  2
HEADER
  9
$ANGBASE
  50
0.0
  9
$ANGDIR
  70
1
  9
$MEASUREMENT
  70
0
  0
ENDSEC
  0
SECTION
  2
TABLES
  0
TABLE
  2
LTYPE
  70
4
  0
LTYPE
  5
40F
  2
CONTINUOUS
  70
0
  3
Solid line
  72
65
  73
0
  40
0.0
  0
LTYPE
  5
410
  2
DASHDOT
 70
0
  3
Dash Dot ____ _ ____ _
 72
65
 73
4
 40
2.0
 49
1.25
 49
-0.25
 49
0.25
 49
-0.25
  0
LTYPE
  5
411
  2
DASHED
 70
0
  3
Dashed __ __ __ __ __
 72
65
 73
2
 40
0.75
 49
0.5
 49
-0.25
  0
LTYPE
  5
43B
  2
DOTTED
 70
0
  3
Dotted .  .  .  .
 72
65
 73
2
 40
0.2
 49
0.0
 49
-0.2
  0
ENDTAB
  0
TABLE
  2
STYLE
  70
4
  0
STYLE
  2
KICAD
  70
0
  40
0
  41
1
  42
1
  50
0
  71
0
  3
isocp.shx
  0
STYLE
  2
KICADB
  70
0
  40
0
  41
1
  42
1
  50
0
  71
0
  3
isocp.shx
  0
STYLE
  2
KICADI
  70
0
  40
0
  41
1
  42
1
  50
15
  71
0
  3
isocp.shx
  0
STYLE
  2
KICADBI
  70
0
  40
0
  41
1
  42
1
  50
15
  71
0
  3
isocp.shx
  0
ENDTAB
  0
TABLE
  2
LAYER
  70
1
  0
LAYER
  2
BLACK
  70
0
  62
7
  6
CONTINUOUS
  0
ENDTAB
  0
ENDSEC
  0
SECTION
  2
ENTITIES
0
LINE
8
BLACK
6
CONTINUOUS
10
3.1705
20
-2.08346
11
3.19127
21
-2.0858
0
LINE
8
BLACK
6
CONTINUOUS
10
3.19127
20
-2.0858
11
3.21181
21
-2.08969
0
LINE
8
BLACK
6
CONTINUOUS
10
3.21181
20
-2.08969
11
3.232
21
-2.0951
0
LINE
8
BLACK
6
CONTINUOUS
10
3.232
20
-2.0951
11
3.25173
21
-2.102
0
LINE
8
BLACK
6
CONTINUOUS
10
3.25173
20
-2.102
11
3.27089
21
-2.11036
0
LINE
8
BLACK
6
CONTINUOUS
10
3.27089
20
-2.11036
11
3.28937
21
-2.12013
0
LINE
8
BLACK
6
CONTINUOUS
10
3.28937
20
-2.12013
11
3.30707
21
-2.13125
0
LINE
8
BLACK
6
CONTINUOUS
10
3.30707
20
-2.13125
11
3.32389
21
-2.14366
0
LINE
8
BLACK
6
CONTINUOUS
10
3.32389
20
-2.14366
11
3.33973
21
-2.1573
0
LINE
8
BLACK
6
CONTINUOUS
10
3.33973
20
-2.1573
11
3.35451
21
-2.17208
0
LINE
8
BLACK
6
CONTINUOUS
10
3.35451
20
-2.17208
11
3.36815
21
-2.18792
0
LINE
8
BLACK
6
CONTINUOUS
10
3.36815
20
-2.18792
11
3.38056
21
-2.20474
0
LINE
8
BLACK
6
CONTINUOUS
10
3.38056
20
-2.20474
11
3.39168
21
-2.22244
0
LINE
8
BLACK
6
CONTINUOUS
10
3.39168
20
-2.22244
11
3.40145
21
-2.24092
0
LINE
8
BLACK
6
CONTINUOUS
10
3.40145
20
-2.24092
11
3.40981
21
-2.26008
0
LINE
8
BLACK
6
CONTINUOUS
10
3.40981
20
-2.26008
11
3.41672
21
-2.27981
0
LINE
8
BLACK
6
CONTINUOUS
10
3.41672
20
-2.27981
11
3.42213
21
-2.3
0
LINE
8
BLACK
6
CONTINUOUS
10
3.42213
20
-2.3
11
3.42601
21
-2.32054
0
LINE
8
BLACK
6
CONTINUOUS
10
3.42601
20
-2.32054
11
3.42835
21
-2.34132
0
LINE
8
BLACK
6
CONTINUOUS
10
3.42835
20
-2.34132
11
3.42913
21
-2.3622
0
LINE
8
BLACK
6
CONTINUOUS
10
3.42913
20
-2.3622
11
3.42835
21
-2.38309
0
LINE
8
BLACK
6
CONTINUOUS
10
3.42835
20
-2.38309
11
3.42601
21
-2.40387
0
LINE
8
BLACK
6
CONTINUOUS
10
3.42601
20
-2.40387
11
3.42213
21
-2.42441
0
LINE
8
BLACK
6
CONTINUOUS
10
3.42213
20
-2.42441
11
3.41672
21
-2.4446
0
LINE
8
BLACK
6
CONTINUOUS
10
3.41672
20
-2.4446
11
3.40981
21
-2.46433
0
LINE
8
BLACK
6
CONTINUOUS
10
3.40981
20
-2.46433
11
3.40145
21
-2.48349
0
LINE
8
BLACK
6
CONTINUOUS
10
3.40145
20
-2.48349
11
3.39168
21
-2.50197
0
LINE
8
BLACK
6
CONTINUOUS
10
3.39168
20
-2.50197
11
3.38056
21
-2.51967
0
LINE
8
BLACK
6
CONTINUOUS
10
3.38056
20
-2.51967
11
3.36815
21
-2.53649
0
LINE
8
BLACK
6
CONTINUOUS
10
3.36815
20
-2.53649
11
3.35451
21
-2.55233
0
LINE
8
BLACK
6
CONTINUOUS
10
3.35451
20
-2.55233
11
3.33973
21
-2.56711
0
LINE
8
BLACK
6
CONTINUOUS
10
3.33973
20
-2.56711
11
3.32389
21
-2.58075
0
LINE
8
BLACK
6
CONTINUOUS
10
3.32389
20
-2.58075
11
3.30707
21
-2.59316
0
LINE
8
BLACK
6
CONTINUOUS
10
3.30707
20
-2.59316
11
3.28937
21
-2.60428
0
LINE
8
BLACK
6
CONTINUOUS
10
3.28937
20
-2.60428
11
3.27089
21
-2.61405
0
LINE
8
BLACK
6
CONTINUOUS
10
3.27089
20
-2.61405
11
3.25173
21
-2.62241
0
LINE
8
BLACK
6
CONTINUOUS
10
3.25173
20
-2.62241
11
3.232
21
-2.62931
0
LINE
8
BLACK
6
CONTINUOUS
10
3.232
20
-2.62931
11
3.21181
21
-2.63472
0
LINE
8
BLACK
6
CONTINUOUS
10
3.21181
20
-2.63472
11
3.19127
21
-2.63861
0
LINE
8
BLACK
6
CONTINUOUS
10
3.19127
20
-2.63861
11
3.1705
21
-2.64095
0
LINE
8
BLACK
6
CONTINUOUS
10
3.1705
20
-2.64095
11
3.14961
21
-2.64173
0
LINE
8
BLACK
6
CONTINUOUS
10
3.14961
20
-2.64173
11
3.12872
21
-2.64095
0
LINE
8
BLACK
6
CONTINUOUS
10
3.12872
20
-2.64095
11
3.10794
21
-2.63861
0
LINE
8
BLACK
6
CONTINUOUS
10
3.10794
20
-2.63861
11
3.08741
21
-2.63472
0
LINE
8
BLACK
6
CONTINUOUS
10
3.08741
20
-2.63472
11
3.06721
21
-2.62931
0
LINE
8
BLACK
6
CONTINUOUS
10
3.06721
20
-2.62931
11
3.04748
21
-2.62241
0
LINE
8
BLACK
6
CONTINUOUS
10
3.04748
20
-2.62241
11
3.02832
21
-2.61405
0
LINE
8
BLACK
6
CONTINUOUS
10
3.02832
20
-2.61405
11
3.00984
21
-2.60428
0
LINE
8
BLACK
6
CONTINUOUS
10
3.00984
20
-2.60428
11
2.99214
21
-2.59316
0
LINE
8
BLACK
6
CONTINUOUS
10
2.99214
20
-2.59316
11
2.97532
21
-2.58075
0
LINE
8
BLACK
6
CONTINUOUS
10
2.97532
20
-2.58075
11
2.95948
21
-2.56711
0
LINE
8
BLACK
6
CONTINUOUS
10
2.95948
20
-2.56711
11
2.9447
21
-2.55233
0
LINE
8
BLACK
6
CONTINUOUS
10
2.9447
20
-2.55233
11
2.93106
21
-2.53649
0
LINE
8
BLACK
6
CONTINUOUS
10
2.93106
20
-2.53649
11
2.91865
21
-2.51967
0
LINE
8
BLACK
6
CONTINUOUS
10
2.91865
20
-2.51967
11
2.90753
21
-2.50197
0
LINE
8
BLACK
6
CONTINUOUS
10
2.90753
20
-2.50197
11
2.89776
21
-2.48349
0
LINE
8
BLACK
6
CONTINUOUS
10
2.89776
20
-2.48349
11
2.8894
21
-2.46433
0
LINE
8
BLACK
6
CONTINUOUS
10
2.8894
20
-2.46433
11
2.8825
21
-2.4446
0
LINE
8
BLACK
6
CONTINUOUS
10
2.8825
20
-2.4446
11
2.87709
21
-2.42441
0
LINE
8
BLACK
6
CONTINUOUS
10
2.87709
20
-2.42441
11
2.8732
21
-2.40387
0
LINE
8
BLACK
6
CONTINUOUS
10
2.8732
20
-2.40387
11
2.87086
21
-2.38309
0
LINE
8
BLACK
6
CONTINUOUS
10
2.87086
20
-2.38309
11
2.87008
21
-2.3622
0
LINE
8
BLACK
6
CONTINUOUS
10
2.87008
20
-2.3622
11
2.87086
21
-2.34132
0
LINE
8
BLACK
6
CONTINUOUS
10
2.87086
20
-2.34132
11
2.8732
21
-2.32054
0
LINE
8
BLACK
6
CONTINUOUS
10
2.8732
20
-2.32054
11
2.87709
21
-2.3
0
LINE
8
BLACK
6
CONTINUOUS
10
2.87709
20
-2.3
11
2.8825
21
-2.27981
0
LINE
8
BLACK
6
CONTINUOUS
10
2.8825
20
-2.27981
11
2.8894
21
-2.26008
0
LINE
8
BLACK
6
CONTINUOUS
10
2.8894
20
-2.26008
11
2.89776
21
-2.24092
0
LINE
8
BLACK
6
CONTINUOUS
10
2.89776
20
-2.24092
11
2.90753
21
-2.22244
0
LINE
8
BLACK
6
CONTINUOUS
10
2.90753
20
-2.22244
11
2.91865
21
-2.20474
0
LINE
8
BLACK
6
CONTINUOUS
10
2.91865
20
-2.20474
11
2.93106
21
-2.18792
0
LINE
8
BLACK
6
CONTINUOUS
10
2.93106
20
-2.18792
11
2.9447
21
-2.17208
0
LINE
8
BLACK
6
CONTINUOUS
10
2.9447
20
-2.17208
11
2.95948
21
-2.1573
0
LINE
8
BLACK
6
CONTINUOUS
10
2.95948
20
-2.1573
11
2.97532
21
-2.14366
0
LINE
8
BLACK
6
CONTINUOUS
10
2.97532
20
-2.14366
11
2.99214
21
-2.13125
0
LINE
8
BLACK
6
CONTINUOUS
10
2.99214
20
-2.13125
11
3.00984
21
-2.12013
0
LINE
8
BLACK
6
CONTINUOUS
10
3.00984
20
-2.12013
11
3.02832
21
-2.11036
0
LINE
8
BLACK
6
CONTINUOUS
10
3.02832
20
-2.11036
11
3.04748
21
-2.102
0
LINE
8
BLACK
6
CONTINUOUS
10
3.04748
20
-2.102
11
3.06721
21
-2.0951
0
LINE
8
BLACK
6
CONTINUOUS
10
3.06721
20
-2.0951
11
3.08741
21
-2.08969
0
LINE
8
BLACK
6
CONTINUOUS
10
3.08741
20
-2.08969
11
3.10794
21
-2.0858
0
LINE
8
BLACK
6
CONTINUOUS
10
3.10794
20
-2.0858
11
3.12872
21
-2.08346
0
LINE
8
BLACK
6
CONTINUOUS
10
3.12872
20
-2.08346
11
3.14961
21
-2.08268
0
LINE
8
BLACK
6
CONTINUOUS
10
3.14961
20
-2.08268
11
3.1705
21
-2.08346
0
LINE
8
BLACK
6
CONTINUOUS
10
2.87459
20
-2.38281
11
2.8769
21
-2.40331
0
LINE
8
BLACK
6
CONTINUOUS
10
2.8769
20
-2.40331
11
2.88074
21
-2.42357
0
LINE
8
BLACK
6
CONTINUOUS
10
2.88074
20
-2.42357
11
2.88608
21
-2.44349
0
LINE
8
BLACK
6
CONTINUOUS
10
2.88608
20
-2.44349
11
2.89289
21
-2.46296
0
LINE
8
BLACK
6
CONTINUOUS
10
2.89289
20
-2.46296
11
2.90113
21
-2.48186
0
LINE
8
BLACK
6
CONTINUOUS
10
2.90113
20
-2.48186
11
2.91077
21
-2.5001
0
LINE
8
BLACK
6
CONTINUOUS
10
2.91077
20
-2.5001
11
2.92174
21
-2.51756
0
LINE
8
BLACK
6
CONTINUOUS
10
2.92174
20
-2.51756
11
2.93399
21
-2.53415
0
LINE
8
BLACK
6
CONTINUOUS
10
2.93399
20
-2.53415
11
2.94744
21
-2.54979
0
LINE
8
BLACK
6
CONTINUOUS
10
2.94744
20
-2.54979
11
2.96203
21
-2.56437
0
LINE
8
BLACK
6
CONTINUOUS
10
2.96203
20
-2.56437
11
2.97766
21
-2.57782
0
LINE
8
BLACK
6
CONTINUOUS
10
2.97766
20
-2.57782
11
2.99425
21
-2.59007
0
LINE
8
BLACK
6
CONTINUOUS
10
2.99425
20
-2.59007
11
3.01171
21
-2.60104
0
LINE
8
BLACK
6
CONTINUOUS
10
3.01171
20
-2.60104
11
3.02995
21
-2.61068
0
LINE
8
BLACK
6
CONTINUOUS
10
3.02995
20
-2.61068
11
3.04885
21
-2.61892
0
LINE
8
BLACK
6
CONTINUOUS
10
3.04885
20
-2.61892
11
3.06832
21
-2.62574
0
LINE
8
BLACK
6
CONTINUOUS
10
3.06832
20
-2.62574
11
3.08824
21
-2.63107
0
LINE
8
BLACK
6
CONTINUOUS
10
3.08824
20
-2.63107
11
3.1085
21
-2.63491
0
LINE
8
BLACK
6
CONTINUOUS
10
3.1085
20
-2.63491
11
3.129
21
-2.63722
0
LINE
8
BLACK
6
CONTINUOUS
10
3.129
20
-2.63722
11
3.14961
21
-2.63799
0
LINE
8
BLACK
6
CONTINUOUS
10
3.14961
20
-2.63799
11
3.17022
21
-2.63722
0
LINE
8
BLACK
6
CONTINUOUS
10
3.17022
20
-2.63722
11
3.19071
21
-2.63491
0
LINE
8
BLACK
6
CONTINUOUS
10
3.19071
20
-2.63491
11
3.21097
21
-2.63107
0
LINE
8
BLACK
6
CONTINUOUS
10
3.21097
20
-2.63107
11
3.23089
21
-2.62574
0
LINE
8
BLACK
6
CONTINUOUS
10
3.23089
20
-2.62574
11
3.25036
21
-2.61892
0
LINE
8
BLACK
6
CONTINUOUS
10
3.25036
20
-2.61892
11
3.26926
21
-2.61068
0
LINE
8
BLACK
6
CONTINUOUS
10
3.26926
20
-2.61068
11
3.2875
21
-2.60104
0
LINE
8
BLACK
6
CONTINUOUS
10
3.2875
20
-2.60104
11
3.30496
21
-2.59007
0
LINE
8
BLACK
6
CONTINUOUS
10
3.30496
20
-2.59007
11
3.32155
21
-2.57782
0
LINE
8
BLACK
6
CONTINUOUS
10
3.32155
20
-2.57782
11
3.33719
21
-2.56437
0
LINE
8
BLACK
6
CONTINUOUS
10
3.33719
20
-2.56437
11
3.35177
21
-2.54979
0
LINE
8
BLACK
6
CONTINUOUS
10
3.35177
20
-2.54979
11
3.36522
21
-2.53415
0
LINE
8
BLACK
6
CONTINUOUS
10
3.36522
20
-2.53415
11
3.37747
21
-2.51756
0
LINE
8
BLACK
6
CONTINUOUS
10
3.37747
20
-2.51756
11
3.38844
21
-2.5001
0
LINE
8
BLACK
6
CONTINUOUS
10
3.38844
20
-2.5001
11
3.39808
21
-2.48186
0
LINE
8
BLACK
6
CONTINUOUS
10
3.39808
20
-2.48186
11
3.40633
21
-2.46296
0
LINE
8
BLACK
6
CONTINUOUS
10
3.40633
20
-2.46296
11
3.41314
21
-2.44349
0
LINE
8
BLACK
6
CONTINUOUS
10
3.41314
20
-2.44349
11
3.41848
21
-2.42357
0
LINE
8
BLACK
6
CONTINUOUS
10
3.41848
20
-2.42357
11
3.42231
21
-2.40331
0
LINE
8
BLACK
6
CONTINUOUS
10
3.42231
20
-2.40331
11
3.42462
21
-2.38281
0
LINE
8
BLACK
6
CONTINUOUS
10
3.42462
20
-2.38281
11
3.42539
21
-2.3622
0
LINE
8
BLACK
6
CONTINUOUS
10
3.42539
20
-2.3622
11
3.42462
21
-2.3416
0
LINE
8
BLACK
6
CONTINUOUS
10
3.42462
20
-2.3416
11
3.42231
21
-2.3211
0
LINE
8
BLACK
6
CONTINUOUS
10
3.42231
20
-2.3211
11
3.41848
21
-2.30084
0
LINE
8
BLACK
6
CONTINUOUS
10
3.41848
20
-2.30084
11
3.41314
21
-2.28092
0
LINE
8
BLACK
6
CONTINUOUS
10
3.41314
20
-2.28092
11
3.40633
21
-2.26145
0
LINE
8
BLACK
6
CONTINUOUS
10
3.40633
20
-2.26145
11
3.39808
21
-2.24255
0
LINE
8
BLACK
6
CONTINUOUS
10
3.39808
20
-2.24255
11
3.38844
21
-2.22431
0
LINE
8
BLACK
6
CONTINUOUS
10
3.38844
20
-2.22431
11
3.37747
21
-2.20685
0
LINE
8
BLACK
6
CONTINUOUS
10
3.37747
20
-2.20685
11
3.36522
21
-2.19026
0
LINE
8
BLACK
6
CONTINUOUS
10
3.36522
20
-2.19026
11
3.35177
21
-2.17462
0
LINE
8
BLACK
6
CONTINUOUS
10
3.35177
20
-2.17462
11
3.33719
21
-2.16004
0
LINE
8
BLACK
6
CONTINUOUS
10
3.33719
20
-2.16004
11
3.32155
21
-2.14659
0
LINE
8
BLACK
6
CONTINUOUS
10
3.32155
20
-2.14659
11
3.30496
21
-2.13434
0
LINE
8
BLACK
6
CONTINUOUS
10
3.30496
20
-2.13434
11
3.2875
21
-2.12337
0
LINE
8
BLACK
6
CONTINUOUS
10
3.2875
20
-2.12337
11
3.26926
21
-2.11373
0
LINE
8
BLACK
6
CONTINUOUS
10
3.26926
20
-2.11373
11
3.25036
21
-2.10549
0
LINE
8
BLACK
6
CONTINUOUS
10
3.25036
20
-2.10549
11
3.23089
21
-2.09867
0
LINE
8
BLACK
6
CONTINUOUS
10
3.23089
20
-2.09867
11
3.21097
21
-2.09334
0
LINE
8
BLACK
6
CONTINUOUS
10
3.21097
20
-2.09334
11
3.19071
21
-2.0895
0
LINE
8
BLACK
6
CONTINUOUS
10
3.19071
20
-2.0895
11
3.17022
21
-2.08719
0
LINE
8
BLACK
6
CONTINUOUS
10
3.17022
20
-2.08719
11
3.14961
21
-2.08642
0
LINE
8
BLACK
6
CONTINUOUS
10
3.14961
20
-2.08642
11
3.129
21
-2.08719
0
LINE
8
BLACK
6
CONTINUOUS
10
3.129
20
-2.08719
11
3.1085
21
-2.0895
0
LINE
8
BLACK
6
CONTINUOUS
10
3.1085
20
-2.0895
11
3.08824
21
-2.09334
0
LINE
8
BLACK
6
CONTINUOUS
10
3.08824
20
-2.09334
11
3.06832
21
-2.09867
0
LINE
8
BLACK
6
CONTINUOUS
10
3.06832
20
-2.09867
11
3.04885
21
-2.10549
0
LINE
8
BLACK
6
CONTINUOUS
10
3.04885
20
-2.10549
11
3.02995
21
-2.11373
0
LINE
8
BLACK
6
CONTINUOUS
10
3.02995
20
-2.11373
11
3.01171
21
-2.12337
0
LINE
8
BLACK
6
CONTINUOUS
10
3.01171
20
-2.12337
11
2.99425
21
-2.13434
0
LINE
8
BLACK
6
CONTINUOUS
10
2.99425
20
-2.13434
11
2.97766
21
-2.14659
0
LINE
8
BLACK
6
CONTINUOUS
10
2.97766
20
-2.14659
11
2.96203
21
-2.16004
0
LINE
8
BLACK
6
CONTINUOUS
10
2.96203
20
-2.16004
11
2.94744
21
-2.17462
0
LINE
8
BLACK
6
CONTINUOUS
10
2.94744
20
-2.17462
11
2.93399
21
-2.19026
0
LINE
8
BLACK
6
CONTINUOUS
10
2.93399
20
-2.19026
11
2.92174
21
-2.20685
0
LINE
8
BLACK
6
CONTINUOUS
10
2.92174
20
-2.20685
11
2.91077
21
-2.22431
0
LINE
8
BLACK
6
CONTINUOUS
10
2.91077
20
-2.22431
11
2.90113
21
-2.24255
0
LINE
8
BLACK
6
CONTINUOUS
10
2.90113
20
-2.24255
11
2.89289
21
-2.26145
0
LINE
8
BLACK
6
CONTINUOUS
10
2.89289
20
-2.26145
11
2.88608
21
-2.28092
0
LINE
8
BLACK
6
CONTINUOUS
10
2.88608
20
-2.28092
11
2.88074
21
-2.30084
0
LINE
8
BLACK
6
CONTINUOUS
10
2.88074
20
-2.30084
11
2.8769
21
-2.3211
0
LINE
8
BLACK
6
CONTINUOUS
10
2.8769
20
-2.3211
11
2.87459
21
-2.3416
0
LINE
8
BLACK
6
CONTINUOUS
10
2.87459
20
-2.3416
11
2.87382
21
-2.3622
0
LINE
8
BLACK
6
CONTINUOUS
10
2.87382
20
-2.3622
11
2.87459
21
-2.38281
0
LINE
8
BLACK
6
CONTINUOUS
10
3.63553
20
-2.51644
11
3.63622
21
-2.51811
0
LINE
8
BLACK
6
CONTINUOUS
10
3.63622
20
-2.51811
11
3.63622
21
-2.5748
0
LINE
8
BLACK
6
CONTINUOUS
10
3.63622
20
-2.5748
11
3.63553
21
-2.57647
0
LINE
8
BLACK
6
CONTINUOUS
10
3.63553
20
-2.57647
11
3.63386
21
-2.57717
0
LINE
8
BLACK
6
CONTINUOUS
10
3.63386
20
-2.57717
11
3.61378
21
-2.57717
0
LINE
8
BLACK
6
CONTINUOUS
10
3.61378
20
-2.57717
11
3.61378
21
-2.77717
0
LINE
8
BLACK
6
CONTINUOUS
10
3.61378
20
-2.77717
11
3.63386
21
-2.77717
0
LINE
8
BLACK
6
CONTINUOUS
10
3.63386
20
-2.77717
11
3.63553
21
-2.77786
0
LINE
8
BLACK
6
CONTINUOUS
10
3.63553
20
-2.77786
11
3.63622
21
-2.77953
0
LINE
8
BLACK
6
CONTINUOUS
10
3.63622
20
-2.77953
11
3.63553
21
-2.7812
0
LINE
8
BLACK
6
CONTINUOUS
10
3.63553
20
-2.7812
11
3.63386
21
-2.78189
0
LINE
8
BLACK
6
CONTINUOUS
10
3.63386
20
-2.78189
11
3.61142
21
-2.78189
0
LINE
8
BLACK
6
CONTINUOUS
10
3.61142
20
-2.78189
11
3.60975
21
-2.7812
0
LINE
8
BLACK
6
CONTINUOUS
10
3.60975
20
-2.7812
11
3.60906
21
-2.77953
0
LINE
8
BLACK
6
CONTINUOUS
10
3.60906
20
-2.77953
11
3.60906
21
-2.5748
0
LINE
8
BLACK
6
CONTINUOUS
10
3.60906
20
-2.5748
11
3.60975
21
-2.57313
0
LINE
8
BLACK
6
CONTINUOUS
10
3.60975
20
-2.57313
11
3.61142
21
-2.57244
0
LINE
8
BLACK
6
CONTINUOUS
10
3.61142
20
-2.57244
11
3.6315
21
-2.57244
0
LINE
8
BLACK
6
CONTINUOUS
10
3.6315
20
-2.57244
11
3.6315
21
-2.51811
0
LINE
8
BLACK
6
CONTINUOUS
10
3.6315
20
-2.51811
11
3.63219
21
-2.51644
0
LINE
8
BLACK
6
CONTINUOUS
10
3.63219
20
-2.51644
11
3.63386
21
-2.51575
0
LINE
8
BLACK
6
CONTINUOUS
10
3.63386
20
-2.51575
11
3.63553
21
-2.51644
0
LINE
8
BLACK
6
CONTINUOUS
10
3.73553
20
-2.77786
11
3.73622
21
-2.77953
0
LINE
8
BLACK
6
CONTINUOUS
10
3.73622
20
-2.77953
11
3.73553
21
-2.7812
0
LINE
8
BLACK
6
CONTINUOUS
10
3.73553
20
-2.7812
11
3.73386
21
-2.78189
0
LINE
8
BLACK
6
CONTINUOUS
10
3.73386
20
-2.78189
11
3.6937
21
-2.78189
0
LINE
8
BLACK
6
CONTINUOUS
10
3.6937
20
-2.78189
11
3.69203
21
-2.7812
0
LINE
8
BLACK
6
CONTINUOUS
10
3.69203
20
-2.7812
11
3.69134
21
-2.77953
0
LINE
8
BLACK
6
CONTINUOUS
10
3.69134
20
-2.77953
11
3.69203
21
-2.77786
0
LINE
8
BLACK
6
CONTINUOUS
10
3.69203
20
-2.77786
11
3.6937
21
-2.77717
0
LINE
8
BLACK
6
CONTINUOUS
10
3.6937
20
-2.77717
11
3.73386
21
-2.77717
0
LINE
8
BLACK
6
CONTINUOUS
10
3.73386
20
-2.77717
11
3.73553
21
-2.77786
0
LINE
8
BLACK
6
CONTINUOUS
10
3.83553
20
-2.77786
11
3.83622
21
-2.77953
0
LINE
8
BLACK
6
CONTINUOUS
10
3.83622
20
-2.77953
11
3.83553
21
-2.7812
0
LINE
8
BLACK
6
CONTINUOUS
10
3.83553
20
-2.7812
11
3.83386
21
-2.78189
0
LINE
8
BLACK
6
CONTINUOUS
10
3.83386
20
-2.78189
11
3.7937
21
-2.78189
0
LINE
8
BLACK
6
CONTINUOUS
10
3.7937
20
-2.78189
11
3.79203
21
-2.7812
0
LINE
8
BLACK
6
CONTINUOUS
10
3.79203
20
-2.7812
11
3.79134
21
-2.77953
0
LINE
8
BLACK
6
CONTINUOUS
10
3.79134
20
-2.77953
11
3.79203
21
-2.77786
0
LINE
8
BLACK
6
CONTINUOUS
10
3.79203
20
-2.77786
11
3.7937
21
-2.77717
0
LINE
8
BLACK
6
CONTINUOUS
10
3.7937
20
-2.77717
11
3.83386
21
-2.77717
0
LINE
8
BLACK
6
CONTINUOUS
10
3.83386
20
-2.77717
11
3.83553
21
-2.77786
0
LINE
8
BLACK
6
CONTINUOUS
10
3.73553
20
-2.57313
11
3.73622
21
-2.5748
0
LINE
8
BLACK
6
CONTINUOUS
10
3.73622
20
-2.5748
11
3.73553
21
-2.57647
0
LINE
8
BLACK
6
CONTINUOUS
10
3.73553
20
-2.57647
11
3.73386
21
-2.57717
0
LINE
8
BLACK
6
CONTINUOUS
10
3.73386
20
-2.57717
11
3.6937
21
-2.57717
0
LINE
8
BLACK
6
CONTINUOUS
10
3.6937
20
-2.57717
11
3.69203
21
-2.57647
0
LINE
8
BLACK
6
CONTINUOUS
10
3.69203
20
-2.57647
11
3.69134
21
-2.5748
0
LINE
8
BLACK
6
CONTINUOUS
10
3.69134
20
-2.5748
11
3.69203
21
-2.57313
0
LINE
8
BLACK
6
CONTINUOUS
10
3.69203
20
-2.57313
11
3.6937
21
-2.57244
0
LINE
8
BLACK
6
CONTINUOUS
10
3.6937
20
-2.57244
11
3.73386
21
-2.57244
0
LINE
8
BLACK
6
CONTINUOUS
10
3.73386
20
-2.57244
11
3.73553
21
-2.57313
0
LINE
8
BLACK
6
CONTINUOUS
10
3.83553
20
-2.57313
11
3.83622
21
-2.5748
0
LINE
8
BLACK
6
CONTINUOUS
10
3.83622
20
-2.5748
11
3.83553
21
-2.57647
0
LINE
8
BLACK
6
CONTINUOUS
10
3.83553
20
-2.57647
11
3.83386
21
-2.57717
0
LINE
8
BLACK
6
CONTINUOUS
10
3.83386
20
-2.57717
11
3.7937
21
-2.57717
0
LINE
8
BLACK
6
CONTINUOUS
10
3.7937
20
-2.57717
11
3.79203
21
-2.57647
0
LINE
8
BLACK
6
CONTINUOUS
10
3.79203
20
-2.57647
11
3.79134
21
-2.5748
0
LINE
8
BLACK
6
CONTINUOUS
10
3.79134
20
-2.5748
11
3.79203
21
-2.57313
0
LINE
8
BLACK
6
CONTINUOUS
10
3.79203
20
-2.57313
11
3.7937
21
-2.57244
0
LINE
8
BLACK
6
CONTINUOUS
10
3.7937
20
-2.57244
11
3.83386
21
-2.57244
0
LINE
8
BLACK
6
CONTINUOUS
10
3.83386
20
-2.57244
11
3.83553
21
-2.57313
0
LINE
8
BLACK
6
CONTINUOUS
10
3.91614
20
-2.57244
11
3.91781
21
-2.57313
0
LINE
8
BLACK
6
CONTINUOUS
10
3.91781
20
-2.57313
11
3.9185
21
-2.5748
0
LINE
8
BLACK
6
CONTINUOUS
10
3.9185
20
-2.5748
11
3.9185
21
-2.77953
0
LINE
8
BLACK
6
CONTINUOUS
10
3.9185
20
-2.77953
11
3.91781
21
-2.7812
0
LINE
8
BLACK
6
CONTINUOUS
10
3.91781
20
-2.7812
11
3.91614
21
-2.78189
0
LINE
8
BLACK
6
CONTINUOUS
10
3.91614
20
-2.78189
11
3.8937
21
-2.78189
0
LINE
8
BLACK
6
CONTINUOUS
10
3.8937
20
-2.78189
11
3.89203
21
-2.7812
0
LINE
8
BLACK
6
CONTINUOUS
10
3.89203
20
-2.7812
11
3.89134
21
-2.77953
0
LINE
8
BLACK
6
CONTINUOUS
10
3.89134
20
-2.77953
11
3.89203
21
-2.77786
0
LINE
8
BLACK
6
CONTINUOUS
10
3.89203
20
-2.77786
11
3.8937
21
-2.77717
0
LINE
8
BLACK
6
CONTINUOUS
10
3.8937
20
-2.77717
11
3.91378
21
-2.77717
0
LINE
8
BLACK
6
CONTINUOUS
10
3.91378
20
-2.77717
11
3.91378
21
-2.57717
0
LINE
8
BLACK
6
CONTINUOUS
10
3.91378
20
-2.57717
11
3.8937
21
-2.57717
0
LINE
8
BLACK
6
CONTINUOUS
10
3.8937
20
-2.57717
11
3.89203
21
-2.57647
0
LINE
8
BLACK
6
CONTINUOUS
10
3.89203
20
-2.57647
11
3.89134
21
-2.5748
0
LINE
8
BLACK
6
CONTINUOUS
10
3.89134
20
-2.5748
11
3.89203
21
-2.57313
0
LINE
8
BLACK
6
CONTINUOUS
10
3.89203
20
-2.57313
11
3.8937
21
-2.57244
0
LINE
8
BLACK
6
CONTINUOUS
10
3.8937
20
-2.57244
11
3.91614
21
-2.57244
0
LINE
8
BLACK
6
CONTINUOUS
10
3.5639
20
-2.67854
11
3.56501
21
-2.68023
0
LINE
8
BLACK
6
CONTINUOUS
10
3.56501
20
-2.68023
11
3.56478
21
-2.68224
0
LINE
8
BLACK
6
CONTINUOUS
10
3.56478
20
-2.68224
11
3.56291
21
-2.68598
0
LINE
8
BLACK
6
CONTINUOUS
10
3.56291
20
-2.68598
11
3.56238
21
-2.68669
0
LINE
8
BLACK
6
CONTINUOUS
10
3.56238
20
-2.68669
11
3.56235
21
-2.68675
0
LINE
8
BLACK
6
CONTINUOUS
10
3.56235
20
-2.68675
11
3.55989
21
-2.68921
0
LINE
8
BLACK
6
CONTINUOUS
10
3.55989
20
-2.68921
11
3.58731
21
-2.68921
0
LINE
8
BLACK
6
CONTINUOUS
10
3.58731
20
-2.68921
11
3.58731
21
-2.68091
0
LINE
8
BLACK
6
CONTINUOUS
10
3.58731
20
-2.68091
11
3.58749
21
-2.6799
0
LINE
8
BLACK
6
CONTINUOUS
10
3.58749
20
-2.6799
11
3.58878
21
-2.67836
0
LINE
8
BLACK
6
CONTINUOUS
10
3.58878
20
-2.67836
11
3.59077
21
-2.67801
0
LINE
8
BLACK
6
CONTINUOUS
10
3.59077
20
-2.67801
11
3.59252
21
-2.67902
0
LINE
8
BLACK
6
CONTINUOUS
10
3.59252
20
-2.67902
11
3.59321
21
-2.68091
0
LINE
8
BLACK
6
CONTINUOUS
10
3.59321
20
-2.68091
11
3.59321
21
-2.70341
0
LINE
8
BLACK
6
CONTINUOUS
10
3.59321
20
-2.70341
11
3.59304
21
-2.70442
0
LINE
8
BLACK
6
CONTINUOUS
10
3.59304
20
-2.70442
11
3.59174
21
-2.70597
0
LINE
8
BLACK
6
CONTINUOUS
10
3.59174
20
-2.70597
11
3.58975
21
-2.70632
0
LINE
8
BLACK
6
CONTINUOUS
10
3.58975
20
-2.70632
11
3.588
21
-2.70531
0
LINE
8
BLACK
6
CONTINUOUS
10
3.588
20
-2.70531
11
3.58731
21
-2.70341
0
LINE
8
BLACK
6
CONTINUOUS
10
3.58731
20
-2.70341
11
3.58731
21
-2.69512
0
LINE
8
BLACK
6
CONTINUOUS
10
3.58731
20
-2.69512
11
3.55089
21
-2.69512
0
LINE
8
BLACK
6
CONTINUOUS
10
3.55089
20
-2.69512
11
3.54988
21
-2.69494
0
LINE
8
BLACK
6
CONTINUOUS
10
3.54988
20
-2.69494
11
3.54975
21
-2.69483
0
LINE
8
BLACK
6
CONTINUOUS
10
3.54975
20
-2.69483
11
3.54958
21
-2.69481
0
LINE
8
BLACK
6
CONTINUOUS
10
3.54958
20
-2.69481
11
3.54899
21
-2.69419
0
LINE
8
BLACK
6
CONTINUOUS
10
3.54899
20
-2.69419
11
3.54833
21
-2.69364
0
LINE
8
BLACK
6
CONTINUOUS
10
3.54833
20
-2.69364
11
3.5483
21
-2.69347
0
LINE
8
BLACK
6
CONTINUOUS
10
3.5483
20
-2.69347
11
3.54819
21
-2.69335
0
LINE
8
BLACK
6
CONTINUOUS
10
3.54819
20
-2.69335
11
3.54813
21
-2.69249
0
LINE
8
BLACK
6
CONTINUOUS
10
3.54813
20
-2.69249
11
3.54798
21
-2.69165
0
LINE
8
BLACK
6
CONTINUOUS
10
3.54798
20
-2.69165
11
3.54807
21
-2.6915
0
LINE
8
BLACK
6
CONTINUOUS
10
3.54807
20
-2.6915
11
3.54806
21
-2.69133
0
LINE
8
BLACK
6
CONTINUOUS
10
3.54806
20
-2.69133
11
3.54856
21
-2.69064
0
LINE
8
BLACK
6
CONTINUOUS
10
3.54856
20
-2.69064
11
3.54899
21
-2.6899
0
LINE
8
BLACK
6
CONTINUOUS
10
3.54899
20
-2.6899
11
3.54915
21
-2.68984
0
LINE
8
BLACK
6
CONTINUOUS
10
3.54915
20
-2.68984
11
3.54925
21
-2.68971
0
LINE
8
BLACK
6
CONTINUOUS
10
3.54925
20
-2.68971
11
3.55463
21
-2.68612
0
LINE
8
BLACK
6
CONTINUOUS
10
3.55463
20
-2.68612
11
3.55784
21
-2.68292
0
LINE
8
BLACK
6
CONTINUOUS
10
3.55784
20
-2.68292
11
3.5595
21
-2.67959
0
LINE
8
BLACK
6
CONTINUOUS
10
3.5595
20
-2.67959
11
3.56011
21
-2.67877
0
LINE
8
BLACK
6
CONTINUOUS
10
3.56011
20
-2.67877
11
3.56196
21
-2.67797
0
LINE
8
BLACK
6
CONTINUOUS
10
3.56196
20
-2.67797
11
3.5639
21
-2.67854
0
LINE
8
BLACK
6
CONTINUOUS
10
3.59252
20
-2.64715
11
3.59321
21
-2.64904
0
LINE
8
BLACK
6
CONTINUOUS
10
3.59321
20
-2.64904
11
3.59321
21
-2.65279
0
LINE
8
BLACK
6
CONTINUOUS
10
3.59321
20
-2.65279
11
3.59306
21
-2.65366
0
LINE
8
BLACK
6
CONTINUOUS
10
3.59306
20
-2.65366
11
3.59306
21
-2.65373
0
LINE
8
BLACK
6
CONTINUOUS
10
3.59306
20
-2.65373
11
3.59119
21
-2.65935
0
LINE
8
BLACK
6
CONTINUOUS
10
3.59119
20
-2.65935
11
3.5907
21
-2.66025
0
LINE
8
BLACK
6
CONTINUOUS
10
3.5907
20
-2.66025
11
3.59055
21
-2.66035
0
LINE
8
BLACK
6
CONTINUOUS
10
3.59055
20
-2.66035
11
3.59047
21
-2.66051
0
LINE
8
BLACK
6
CONTINUOUS
10
3.59047
20
-2.66051
11
3.58672
21
-2.66426
0
LINE
8
BLACK
6
CONTINUOUS
10
3.58672
20
-2.66426
11
3.58588
21
-2.66484
0
LINE
8
BLACK
6
CONTINUOUS
10
3.58588
20
-2.66484
11
3.58571
21
-2.66486
0
LINE
8
BLACK
6
CONTINUOUS
10
3.58571
20
-2.66486
11
3.58557
21
-2.66497
0
LINE
8
BLACK
6
CONTINUOUS
10
3.58557
20
-2.66497
11
3.57995
21
-2.66684
0
LINE
8
BLACK
6
CONTINUOUS
10
3.57995
20
-2.66684
11
3.57907
21
-2.66697
0
LINE
8
BLACK
6
CONTINUOUS
10
3.57907
20
-2.66697
11
3.57901
21
-2.66699
0
LINE
8
BLACK
6
CONTINUOUS
10
3.57901
20
-2.66699
11
3.55089
21
-2.66699
0
LINE
8
BLACK
6
CONTINUOUS
10
3.55089
20
-2.66699
11
3.54988
21
-2.66682
0
LINE
8
BLACK
6
CONTINUOUS
10
3.54988
20
-2.66682
11
3.54833
21
-2.66552
0
LINE
8
BLACK
6
CONTINUOUS
10
3.54833
20
-2.66552
11
3.54798
21
-2.66353
0
LINE
8
BLACK
6
CONTINUOUS
10
3.54798
20
-2.66353
11
3.54899
21
-2.66178
0
LINE
8
BLACK
6
CONTINUOUS
10
3.54899
20
-2.66178
11
3.55089
21
-2.66109
0
LINE
8
BLACK
6
CONTINUOUS
10
3.55089
20
-2.66109
11
3.57853
21
-2.66109
0
LINE
8
BLACK
6
CONTINUOUS
10
3.57853
20
-2.66109
11
3.58304
21
-2.65959
0
LINE
8
BLACK
6
CONTINUOUS
10
3.58304
20
-2.65959
11
3.58581
21
-2.65682
0
LINE
8
BLACK
6
CONTINUOUS
10
3.58581
20
-2.65682
11
3.58731
21
-2.65231
0
LINE
8
BLACK
6
CONTINUOUS
10
3.58731
20
-2.65231
11
3.58731
21
-2.64904
0
LINE
8
BLACK
6
CONTINUOUS
10
3.58731
20
-2.64904
11
3.58749
21
-2.64803
0
LINE
8
BLACK
6
CONTINUOUS
10
3.58749
20
-2.64803
11
3.58878
21
-2.64649
0
LINE
8
BLACK
6
CONTINUOUS
10
3.58878
20
-2.64649
11
3.59077
21
-2.64614
0
LINE
8
BLACK
6
CONTINUOUS
10
3.59077
20
-2.64614
11
3.59252
21
-2.64715
0
LINE
8
BLACK
6
CONTINUOUS
10
3.79528
20
-2.20236
11
3.79695
21
-2.20305
0
LINE
8
BLACK
6
CONTINUOUS
10
3.79695
20
-2.20305
11
3.79764
21
-2.20472
0
LINE
8
BLACK
6
CONTINUOUS
10
3.79764
20
-2.20472
11
3.79764
21
-2.27717
0
LINE
8
BLACK
6
CONTINUOUS
10
3.79764
20
-2.27717
11
3.82677
21
-2.27717
0
LINE
8
BLACK
6
CONTINUOUS
10
3.82677
20
-2.27717
11
3.82844
21
-2.27786
0
LINE
8
BLACK
6
CONTINUOUS
10
3.82844
20
-2.27786
11
3.82913
21
-2.27953
0
LINE
8
BLACK
6
CONTINUOUS
10
3.82913
20
-2.27953
11
3.82913
21
-2.36614
0
LINE
8
BLACK
6
CONTINUOUS
10
3.82913
20
-2.36614
11
3.82844
21
-2.36781
0
LINE
8
BLACK
6
CONTINUOUS
10
3.82844
20
-2.36781
11
3.82677
21
-2.3685
0
LINE
8
BLACK
6
CONTINUOUS
10
3.82677
20
-2.3685
11
3.79764
21
-2.3685
0
LINE
8
BLACK
6
CONTINUOUS
10
3.79764
20
-2.3685
11
3.79764
21
-2.44094
0
LINE
8
BLACK
6
CONTINUOUS
10
3.79764
20
-2.44094
11
3.79695
21
-2.44262
0
LINE
8
BLACK
6
CONTINUOUS
10
3.79695
20
-2.44262
11
3.79528
21
-2.44331
0
LINE
8
BLACK
6
CONTINUOUS
10
3.79528
20
-2.44331
11
3.6063
21
-2.44331
0
LINE
8
BLACK
6
CONTINUOUS
10
3.6063
20
-2.44331
11
3.60512
21
-2.44282
0
LINE
8
BLACK
6
CONTINUOUS
10
3.60512
20
-2.44282
11
3.60463
21
-2.44262
0
LINE
8
BLACK
6
CONTINUOUS
10
3.60463
20
-2.44262
11
3.55738
21
-2.39537
0
LINE
8
BLACK
6
CONTINUOUS
10
3.55738
20
-2.39537
11
3.55711
21
-2.39472
0
LINE
8
BLACK
6
CONTINUOUS
10
3.55711
20
-2.39472
11
3.55669
21
-2.3937
0
LINE
8
BLACK
6
CONTINUOUS
10
3.55669
20
-2.3937
11
3.55669
21
-2.38976
0
LINE
8
BLACK
6
CONTINUOUS
10
3.55669
20
-2.38976
11
3.55669
21
-2.3685
0
LINE
8
BLACK
6
CONTINUOUS
10
3.55669
20
-2.3685
11
3.52756
21
-2.3685
0
LINE
8
BLACK
6
CONTINUOUS
10
3.52756
20
-2.3685
11
3.52589
21
-2.36781
0
LINE
8
BLACK
6
CONTINUOUS
10
3.52589
20
-2.36781
11
3.5252
21
-2.36614
0
LINE
8
BLACK
6
CONTINUOUS
10
3.5252
20
-2.36614
11
3.5252
21
-2.27953
0
LINE
8
BLACK
6
CONTINUOUS
10
3.5252
20
-2.27953
11
3.52589
21
-2.27786
0
LINE
8
BLACK
6
CONTINUOUS
10
3.52589
20
-2.27786
11
3.52756
21
-2.27717
0
LINE
8
BLACK
6
CONTINUOUS
10
3.52756
20
-2.27717
11
3.55669
21
-2.27717
0
LINE
8
BLACK
6
CONTINUOUS
10
3.55669
20
-2.27717
11
3.55669
21
-2.25197
0
LINE
8
BLACK
6
CONTINUOUS
10
3.55669
20
-2.25197
11
3.55738
21
-2.2503
0
LINE
8
BLACK
6
CONTINUOUS
10
3.55738
20
-2.2503
11
3.60463
21
-2.20305
0
LINE
8
BLACK
6
CONTINUOUS
10
3.60463
20
-2.20305
11
3.60512
21
-2.20285
0
LINE
8
BLACK
6
CONTINUOUS
10
3.60512
20
-2.20285
11
3.6063
21
-2.20236
0
LINE
8
BLACK
6
CONTINUOUS
10
3.6063
20
-2.20236
11
3.79528
21
-2.20236
0
LINE
8
BLACK
6
CONTINUOUS
10
3.60728
20
-2.20709
11
3.56142
21
-2.25295
0
LINE
8
BLACK
6
CONTINUOUS
10
3.56142
20
-2.25295
11
3.56142
21
-2.27953
0
LINE
8
BLACK
6
CONTINUOUS
10
3.56142
20
-2.27953
11
3.56073
21
-2.2812
0
LINE
8
BLACK
6
CONTINUOUS
10
3.56073
20
-2.2812
11
3.55906
21
-2.28189
0
LINE
8
BLACK
6
CONTINUOUS
10
3.55906
20
-2.28189
11
3.52992
21
-2.28189
0
LINE
8
BLACK
6
CONTINUOUS
10
3.52992
20
-2.28189
11
3.52992
21
-2.36378
0
LINE
8
BLACK
6
CONTINUOUS
10
3.52992
20
-2.36378
11
3.55906
21
-2.36378
0
LINE
8
BLACK
6
CONTINUOUS
10
3.55906
20
-2.36378
11
3.56073
21
-2.36447
0
LINE
8
BLACK
6
CONTINUOUS
10
3.56073
20
-2.36447
11
3.56142
21
-2.36614
0
LINE
8
BLACK
6
CONTINUOUS
10
3.56142
20
-2.36614
11
3.56142
21
-2.38976
0
LINE
8
BLACK
6
CONTINUOUS
10
3.56142
20
-2.38976
11
3.56142
21
-2.39272
0
LINE
8
BLACK
6
CONTINUOUS
10
3.56142
20
-2.39272
11
3.60728
21
-2.43858
0
LINE
8
BLACK
6
CONTINUOUS
10
3.60728
20
-2.43858
11
3.79291
21
-2.43858
0
LINE
8
BLACK
6
CONTINUOUS
10
3.79291
20
-2.43858
11
3.79291
21
-2.36614
0
LINE
8
BLACK
6
CONTINUOUS
10
3.79291
20
-2.36614
11
3.79361
21
-2.36447
0
LINE
8
BLACK
6
CONTINUOUS
10
3.79361
20
-2.36447
11
3.79528
21
-2.36378
0
LINE
8
BLACK
6
CONTINUOUS
10
3.79528
20
-2.36378
11
3.82441
21
-2.36378
0
LINE
8
BLACK
6
CONTINUOUS
10
3.82441
20
-2.36378
11
3.82441
21
-2.28189
0
LINE
8
BLACK
6
CONTINUOUS
10
3.82441
20
-2.28189
11
3.79528
21
-2.28189
0
LINE
8
BLACK
6
CONTINUOUS
10
3.79528
20
-2.28189
11
3.79361
21
-2.2812
0
LINE
8
BLACK
6
CONTINUOUS
10
3.79361
20
-2.2812
11
3.79291
21
-2.27953
0
LINE
8
BLACK
6
CONTINUOUS
10
3.79291
20
-2.27953
11
3.79291
21
-2.20709
0
LINE
8
BLACK
6
CONTINUOUS
10
3.79291
20
-2.20709
11
3.60728
21
-2.20709
0
LINE
8
BLACK
6
CONTINUOUS
10
3.81956
20
-2.38744
11
3.81973
21
-2.38743
0
LINE
8
BLACK
6
CONTINUOUS
10
3.81973
20
-2.38743
11
3.82042
21
-2.38793
0
LINE
8
BLACK
6
CONTINUOUS
10
3.82042
20
-2.38793
11
3.82116
21
-2.38836
0
LINE
8
BLACK
6
CONTINUOUS
10
3.82116
20
-2.38836
11
3.82122
21
-2.38852
0
LINE
8
BLACK
6
CONTINUOUS
10
3.82122
20
-2.38852
11
3.82135
21
-2.38862
0
LINE
8
BLACK
6
CONTINUOUS
10
3.82135
20
-2.38862
11
3.82494
21
-2.394
0
LINE
8
BLACK
6
CONTINUOUS
10
3.82494
20
-2.394
11
3.82815
21
-2.39721
0
LINE
8
BLACK
6
CONTINUOUS
10
3.82815
20
-2.39721
11
3.83147
21
-2.39887
0
LINE
8
BLACK
6
CONTINUOUS
10
3.83147
20
-2.39887
11
3.83229
21
-2.39948
0
LINE
8
BLACK
6
CONTINUOUS
10
3.83229
20
-2.39948
11
3.83309
21
-2.40133
0
LINE
8
BLACK
6
CONTINUOUS
10
3.83309
20
-2.40133
11
3.83252
21
-2.40327
0
LINE
8
BLACK
6
CONTINUOUS
10
3.83252
20
-2.40327
11
3.83083
21
-2.40438
0
LINE
8
BLACK
6
CONTINUOUS
10
3.83083
20
-2.40438
11
3.82883
21
-2.40415
0
LINE
8
BLACK
6
CONTINUOUS
10
3.82883
20
-2.40415
11
3.82508
21
-2.40228
0
LINE
8
BLACK
6
CONTINUOUS
10
3.82508
20
-2.40228
11
3.82437
21
-2.40175
0
LINE
8
BLACK
6
CONTINUOUS
10
3.82437
20
-2.40175
11
3.82431
21
-2.40172
0
LINE
8
BLACK
6
CONTINUOUS
10
3.82431
20
-2.40172
11
3.82185
21
-2.39926
0
LINE
8
BLACK
6
CONTINUOUS
10
3.82185
20
-2.39926
11
3.82185
21
-2.42668
0
LINE
8
BLACK
6
CONTINUOUS
10
3.82185
20
-2.42668
11
3.83015
21
-2.42668
0
LINE
8
BLACK
6
CONTINUOUS
10
3.83015
20
-2.42668
11
3.83116
21
-2.42686
0
LINE
8
BLACK
6
CONTINUOUS
10
3.83116
20
-2.42686
11
3.8327
21
-2.42815
0
LINE
8
BLACK
6
CONTINUOUS
10
3.8327
20
-2.42815
11
3.83305
21
-2.43014
0
LINE
8
BLACK
6
CONTINUOUS
10
3.83305
20
-2.43014
11
3.83204
21
-2.43189
0
LINE
8
BLACK
6
CONTINUOUS
10
3.83204
20
-2.43189
11
3.83015
21
-2.43258
0
LINE
8
BLACK
6
CONTINUOUS
10
3.83015
20
-2.43258
11
3.80765
21
-2.43258
0
LINE
8
BLACK
6
CONTINUOUS
10
3.80765
20
-2.43258
11
3.80664
21
-2.43241
0
LINE
8
BLACK
6
CONTINUOUS
10
3.80664
20
-2.43241
11
3.80509
21
-2.43111
0
LINE
8
BLACK
6
CONTINUOUS
10
3.80509
20
-2.43111
11
3.80474
21
-2.42912
0
LINE
8
BLACK
6
CONTINUOUS
10
3.80474
20
-2.42912
11
3.80575
21
-2.42737
0
LINE
8
BLACK
6
CONTINUOUS
10
3.80575
20
-2.42737
11
3.80765
21
-2.42668
0
LINE
8
BLACK
6
CONTINUOUS
10
3.80765
20
-2.42668
11
3.81594
21
-2.42668
0
LINE
8
BLACK
6
CONTINUOUS
10
3.81594
20
-2.42668
11
3.81594
21
-2.39026
0
LINE
8
BLACK
6
CONTINUOUS
10
3.81594
20
-2.39026
11
3.81612
21
-2.38925
0
LINE
8
BLACK
6
CONTINUOUS
10
3.81612
20
-2.38925
11
3.81623
21
-2.38912
0
LINE
8
BLACK
6
CONTINUOUS
10
3.81623
20
-2.38912
11
3.81625
21
-2.38895
0
LINE
8
BLACK
6
CONTINUOUS
10
3.81625
20
-2.38895
11
3.81687
21
-2.38836
0
LINE
8
BLACK
6
CONTINUOUS
10
3.81687
20
-2.38836
11
3.81742
21
-2.3877
0
LINE
8
BLACK
6
CONTINUOUS
10
3.81742
20
-2.3877
11
3.81759
21
-2.38767
0
LINE
8
BLACK
6
CONTINUOUS
10
3.81759
20
-2.38767
11
3.81771
21
-2.38756
0
LINE
8
BLACK
6
CONTINUOUS
10
3.81771
20
-2.38756
11
3.81857
21
-2.3875
0
LINE
8
BLACK
6
CONTINUOUS
10
3.81857
20
-2.3875
11
3.81941
21
-2.38735
0
LINE
8
BLACK
6
CONTINUOUS
10
3.81941
20
-2.38735
11
3.81956
21
-2.38744
0
LINE
8
BLACK
6
CONTINUOUS
10
3.85726
20
-2.38746
11
3.85733
21
-2.38746
0
LINE
8
BLACK
6
CONTINUOUS
10
3.85733
20
-2.38746
11
3.86295
21
-2.38933
0
LINE
8
BLACK
6
CONTINUOUS
10
3.86295
20
-2.38933
11
3.86385
21
-2.38982
0
LINE
8
BLACK
6
CONTINUOUS
10
3.86385
20
-2.38982
11
3.86395
21
-2.38997
0
LINE
8
BLACK
6
CONTINUOUS
10
3.86395
20
-2.38997
11
3.86411
21
-2.39005
0
LINE
8
BLACK
6
CONTINUOUS
10
3.86411
20
-2.39005
11
3.86785
21
-2.3938
0
LINE
8
BLACK
6
CONTINUOUS
10
3.86785
20
-2.3938
11
3.86836
21
-2.39452
0
LINE
8
BLACK
6
CONTINUOUS
10
3.86836
20
-2.39452
11
3.86841
21
-2.39456
0
LINE
8
BLACK
6
CONTINUOUS
10
3.86841
20
-2.39456
11
3.87028
21
-2.39831
0
LINE
8
BLACK
6
CONTINUOUS
10
3.87028
20
-2.39831
11
3.87043
21
-2.3988
0
LINE
8
BLACK
6
CONTINUOUS
10
3.87043
20
-2.3988
11
3.87051
21
-2.39892
0
LINE
8
BLACK
6
CONTINUOUS
10
3.87051
20
-2.39892
11
3.87238
21
-2.40642
0
LINE
8
BLACK
6
CONTINUOUS
10
3.87238
20
-2.40642
11
3.87242
21
-2.40701
0
LINE
8
BLACK
6
CONTINUOUS
10
3.87242
20
-2.40701
11
3.87247
21
-2.40713
0
LINE
8
BLACK
6
CONTINUOUS
10
3.87247
20
-2.40713
11
3.87247
21
-2.41276
0
LINE
8
BLACK
6
CONTINUOUS
10
3.87247
20
-2.41276
11
3.87237
21
-2.41334
0
LINE
8
BLACK
6
CONTINUOUS
10
3.87237
20
-2.41334
11
3.87238
21
-2.41347
0
LINE
8
BLACK
6
CONTINUOUS
10
3.87238
20
-2.41347
11
3.87051
21
-2.42097
0
LINE
8
BLACK
6
CONTINUOUS
10
3.87051
20
-2.42097
11
3.8703
21
-2.42144
0
LINE
8
BLACK
6
CONTINUOUS
10
3.8703
20
-2.42144
11
3.87028
21
-2.42158
0
LINE
8
BLACK
6
CONTINUOUS
10
3.87028
20
-2.42158
11
3.86841
21
-2.42533
0
LINE
8
BLACK
6
CONTINUOUS
10
3.86841
20
-2.42533
11
3.86788
21
-2.42604
0
LINE
8
BLACK
6
CONTINUOUS
10
3.86788
20
-2.42604
11
3.86785
21
-2.42609
0
LINE
8
BLACK
6
CONTINUOUS
10
3.86785
20
-2.42609
11
3.86411
21
-2.42984
0
LINE
8
BLACK
6
CONTINUOUS
10
3.86411
20
-2.42984
11
3.86327
21
-2.43043
0
LINE
8
BLACK
6
CONTINUOUS
10
3.86327
20
-2.43043
11
3.86309
21
-2.43045
0
LINE
8
BLACK
6
CONTINUOUS
10
3.86309
20
-2.43045
11
3.86295
21
-2.43056
0
LINE
8
BLACK
6
CONTINUOUS
10
3.86295
20
-2.43056
11
3.85733
21
-2.43243
0
LINE
8
BLACK
6
CONTINUOUS
10
3.85733
20
-2.43243
11
3.85645
21
-2.43256
0
LINE
8
BLACK
6
CONTINUOUS
10
3.85645
20
-2.43256
11
3.85639
21
-2.43258
0
LINE
8
BLACK
6
CONTINUOUS
10
3.85639
20
-2.43258
11
3.85264
21
-2.43258
0
LINE
8
BLACK
6
CONTINUOUS
10
3.85264
20
-2.43258
11
3.85177
21
-2.43243
0
LINE
8
BLACK
6
CONTINUOUS
10
3.85177
20
-2.43243
11
3.85171
21
-2.43243
0
LINE
8
BLACK
6
CONTINUOUS
10
3.85171
20
-2.43243
11
3.84609
21
-2.43056
0
LINE
8
BLACK
6
CONTINUOUS
10
3.84609
20
-2.43056
11
3.84518
21
-2.43007
0
LINE
8
BLACK
6
CONTINUOUS
10
3.84518
20
-2.43007
11
3.84509
21
-2.42992
0
LINE
8
BLACK
6
CONTINUOUS
10
3.84509
20
-2.42992
11
3.84493
21
-2.42984
0
LINE
8
BLACK
6
CONTINUOUS
10
3.84493
20
-2.42984
11
3.84306
21
-2.42797
0
LINE
8
BLACK
6
CONTINUOUS
10
3.84306
20
-2.42797
11
3.84247
21
-2.42713
0
LINE
8
BLACK
6
CONTINUOUS
10
3.84247
20
-2.42713
11
3.84229
21
-2.42512
0
LINE
8
BLACK
6
CONTINUOUS
10
3.84229
20
-2.42512
11
3.84345
21
-2.42346
0
LINE
8
BLACK
6
CONTINUOUS
10
3.84345
20
-2.42346
11
3.8454
21
-2.42294
0
LINE
8
BLACK
6
CONTINUOUS
10
3.8454
20
-2.42294
11
3.84723
21
-2.42379
0
LINE
8
BLACK
6
CONTINUOUS
10
3.84723
20
-2.42379
11
3.84861
21
-2.42518
0
LINE
8
BLACK
6
CONTINUOUS
10
3.84861
20
-2.42518
11
3.85312
21
-2.42668
0
LINE
8
BLACK
6
CONTINUOUS
10
3.85312
20
-2.42668
11
3.85591
21
-2.42668
0
LINE
8
BLACK
6
CONTINUOUS
10
3.85591
20
-2.42668
11
3.86042
21
-2.42518
0
LINE
8
BLACK
6
CONTINUOUS
10
3.86042
20
-2.42518
11
3.86334
21
-2.42226
0
LINE
8
BLACK
6
CONTINUOUS
10
3.86334
20
-2.42226
11
3.86486
21
-2.41923
0
LINE
8
BLACK
6
CONTINUOUS
10
3.86486
20
-2.41923
11
3.86656
21
-2.41239
0
LINE
8
BLACK
6
CONTINUOUS
10
3.86656
20
-2.41239
11
3.86656
21
-2.4075
0
LINE
8
BLACK
6
CONTINUOUS
10
3.86656
20
-2.4075
11
3.86486
21
-2.40066
0
LINE
8
BLACK
6
CONTINUOUS
10
3.86486
20
-2.40066
11
3.86334
21
-2.39763
0
LINE
8
BLACK
6
CONTINUOUS
10
3.86334
20
-2.39763
11
3.86042
21
-2.39472
0
LINE
8
BLACK
6
CONTINUOUS
10
3.86042
20
-2.39472
11
3.85591
21
-2.39321
0
LINE
8
BLACK
6
CONTINUOUS
10
3.85591
20
-2.39321
11
3.85312
21
-2.39321
0
LINE
8
BLACK
6
CONTINUOUS
10
3.85312
20
-2.39321
11
3.84861
21
-2.39472
0
LINE
8
BLACK
6
CONTINUOUS
10
3.84861
20
-2.39472
11
3.84723
21
-2.3961
0
LINE
8
BLACK
6
CONTINUOUS
10
3.84723
20
-2.3961
11
3.84639
21
-2.39669
0
LINE
8
BLACK
6
CONTINUOUS
10
3.84639
20
-2.39669
11
3.84438
21
-2.39686
0
LINE
8
BLACK
6
CONTINUOUS
10
3.84438
20
-2.39686
11
3.84273
21
-2.3957
0
LINE
8
BLACK
6
CONTINUOUS
10
3.84273
20
-2.3957
11
3.8422
21
-2.39375
0
LINE
8
BLACK
6
CONTINUOUS
10
3.8422
20
-2.39375
11
3.84306
21
-2.39192
0
LINE
8
BLACK
6
CONTINUOUS
10
3.84306
20
-2.39192
11
3.84493
21
-2.39005
0
LINE
8
BLACK
6
CONTINUOUS
10
3.84493
20
-2.39005
11
3.84577
21
-2.38946
0
LINE
8
BLACK
6
CONTINUOUS
10
3.84577
20
-2.38946
11
3.84595
21
-2.38944
0
LINE
8
BLACK
6
CONTINUOUS
10
3.84595
20
-2.38944
11
3.84609
21
-2.38933
0
LINE
8
BLACK
6
CONTINUOUS
10
3.84609
20
-2.38933
11
3.85171
21
-2.38746
0
LINE
8
BLACK
6
CONTINUOUS
10
3.85171
20
-2.38746
11
3.85258
21
-2.38733
0
LINE
8
BLACK
6
CONTINUOUS
10
3.85258
20
-2.38733
11
3.85264
21
-2.38731
0
LINE
8
BLACK
6
CONTINUOUS
10
3.85264
20
-2.38731
11
3.85639
21
-2.38731
0
LINE
8
BLACK
6
CONTINUOUS
10
3.85639
20
-2.38731
11
3.85726
21
-2.38746
0
LINE
8
BLACK
6
CONTINUOUS
10
3.93947
20
-2.17542
11
3.94016
21
-2.17709
0
LINE
8
BLACK
6
CONTINUOUS
10
3.94016
20
-2.17709
11
3.94016
21
-2.18512
0
LINE
8
BLACK
6
CONTINUOUS
10
3.94016
20
-2.18512
11
3.93947
21
-2.18679
0
LINE
8
BLACK
6
CONTINUOUS
10
3.93947
20
-2.18679
11
3.9378
21
-2.18748
0
LINE
8
BLACK
6
CONTINUOUS
10
3.9378
20
-2.18748
11
3.93612
21
-2.18679
0
LINE
8
BLACK
6
CONTINUOUS
10
3.93612
20
-2.18679
11
3.93543
21
-2.18512
0
LINE
8
BLACK
6
CONTINUOUS
10
3.93543
20
-2.18512
11
3.93543
21
-2.17709
0
LINE
8
BLACK
6
CONTINUOUS
10
3.93543
20
-2.17709
11
3.93612
21
-2.17542
0
LINE
8
BLACK
6
CONTINUOUS
10
3.93612
20
-2.17542
11
3.9378
21
-2.17473
0
LINE
8
BLACK
6
CONTINUOUS
10
3.9378
20
-2.17473
11
3.93947
21
-2.17542
0
LINE
8
BLACK
6
CONTINUOUS
10
3.98097
20
-2.17662
11
3.98111
21
-2.17661
0
LINE
8
BLACK
6
CONTINUOUS
10
3.98111
20
-2.17661
11
3.98183
21
-2.17712
0
LINE
8
BLACK
6
CONTINUOUS
10
3.98183
20
-2.17712
11
3.9826
21
-2.17756
0
LINE
8
BLACK
6
CONTINUOUS
10
3.9826
20
-2.17756
11
3.98265
21
-2.17769
0
LINE
8
BLACK
6
CONTINUOUS
10
3.98265
20
-2.17769
11
3.98276
21
-2.17777
0
LINE
8
BLACK
6
CONTINUOUS
10
3.98276
20
-2.17777
11
3.98299
21
-2.17863
0
LINE
8
BLACK
6
CONTINUOUS
10
3.98299
20
-2.17863
11
3.9833
21
-2.17946
0
LINE
8
BLACK
6
CONTINUOUS
10
3.9833
20
-2.17946
11
3.9833
21
-2.1953
0
LINE
8
BLACK
6
CONTINUOUS
10
3.9833
20
-2.1953
11
3.98312
21
-2.19631
0
LINE
8
BLACK
6
CONTINUOUS
10
3.98312
20
-2.19631
11
3.98182
21
-2.19786
0
LINE
8
BLACK
6
CONTINUOUS
10
3.98182
20
-2.19786
11
3.97983
21
-2.19821
0
LINE
8
BLACK
6
CONTINUOUS
10
3.97983
20
-2.19821
11
3.97808
21
-2.1972
0
LINE
8
BLACK
6
CONTINUOUS
10
3.97808
20
-2.1972
11
3.97739
21
-2.1953
0
LINE
8
BLACK
6
CONTINUOUS
10
3.97739
20
-2.1953
11
3.97739
21
-2.18659
0
LINE
8
BLACK
6
CONTINUOUS
10
3.97739
20
-2.18659
11
3.96781
21
-2.19617
0
LINE
8
BLACK
6
CONTINUOUS
10
3.96781
20
-2.19617
11
3.96697
21
-2.19676
0
LINE
8
BLACK
6
CONTINUOUS
10
3.96697
20
-2.19676
11
3.96679
21
-2.19678
0
LINE
8
BLACK
6
CONTINUOUS
10
3.96679
20
-2.19678
11
3.96665
21
-2.19689
0
LINE
8
BLACK
6
CONTINUOUS
10
3.96665
20
-2.19689
11
3.963
21
-2.1981
0
LINE
8
BLACK
6
CONTINUOUS
10
3.963
20
-2.1981
11
3.96212
21
-2.19823
0
LINE
8
BLACK
6
CONTINUOUS
10
3.96212
20
-2.19823
11
3.96206
21
-2.19826
0
LINE
8
BLACK
6
CONTINUOUS
10
3.96206
20
-2.19826
11
3.95963
21
-2.19826
0
LINE
8
BLACK
6
CONTINUOUS
10
3.95963
20
-2.19826
11
3.95862
21
-2.19808
0
LINE
8
BLACK
6
CONTINUOUS
10
3.95862
20
-2.19808
11
3.95848
21
-2.19796
0
LINE
8
BLACK
6
CONTINUOUS
10
3.95848
20
-2.19796
11
3.95831
21
-2.19794
0
LINE
8
BLACK
6
CONTINUOUS
10
3.95831
20
-2.19794
11
3.95587
21
-2.19673
0
LINE
8
BLACK
6
CONTINUOUS
10
3.95587
20
-2.19673
11
3.95516
21
-2.1962
0
LINE
8
BLACK
6
CONTINUOUS
10
3.95516
20
-2.1962
11
3.9551
21
-2.19617
0
LINE
8
BLACK
6
CONTINUOUS
10
3.9551
20
-2.19617
11
3.95388
21
-2.19495
0
LINE
8
BLACK
6
CONTINUOUS
10
3.95388
20
-2.19495
11
3.95338
21
-2.19423
0
LINE
8
BLACK
6
CONTINUOUS
10
3.95338
20
-2.19423
11
3.95333
21
-2.19419
0
LINE
8
BLACK
6
CONTINUOUS
10
3.95333
20
-2.19419
11
3.95211
21
-2.19175
0
LINE
8
BLACK
6
CONTINUOUS
10
3.95211
20
-2.19175
11
3.95182
21
-2.19077
0
LINE
8
BLACK
6
CONTINUOUS
10
3.95182
20
-2.19077
11
3.95186
21
-2.1906
0
LINE
8
BLACK
6
CONTINUOUS
10
3.95186
20
-2.1906
11
3.9518
21
-2.19043
0
LINE
8
BLACK
6
CONTINUOUS
10
3.9518
20
-2.19043
11
3.9518
21
-2.18434
0
LINE
8
BLACK
6
CONTINUOUS
10
3.9518
20
-2.18434
11
3.95198
21
-2.18333
0
LINE
8
BLACK
6
CONTINUOUS
10
3.95198
20
-2.18333
11
3.95209
21
-2.18319
0
LINE
8
BLACK
6
CONTINUOUS
10
3.95209
20
-2.18319
11
3.95211
21
-2.18302
0
LINE
8
BLACK
6
CONTINUOUS
10
3.95211
20
-2.18302
11
3.95333
21
-2.18058
0
LINE
8
BLACK
6
CONTINUOUS
10
3.95333
20
-2.18058
11
3.95386
21
-2.17987
0
LINE
8
BLACK
6
CONTINUOUS
10
3.95386
20
-2.17987
11
3.95388
21
-2.17981
0
LINE
8
BLACK
6
CONTINUOUS
10
3.95388
20
-2.17981
11
3.9551
21
-2.17859
0
LINE
8
BLACK
6
CONTINUOUS
10
3.9551
20
-2.17859
11
3.95594
21
-2.178
0
LINE
8
BLACK
6
CONTINUOUS
10
3.95594
20
-2.178
11
3.95795
21
-2.17783
0
LINE
8
BLACK
6
CONTINUOUS
10
3.95795
20
-2.17783
11
3.95961
21
-2.17899
0
LINE
8
BLACK
6
CONTINUOUS
10
3.95961
20
-2.17899
11
3.96013
21
-2.18094
0
LINE
8
BLACK
6
CONTINUOUS
10
3.96013
20
-2.18094
11
3.95928
21
-2.18277
0
LINE
8
BLACK
6
CONTINUOUS
10
3.95928
20
-2.18277
11
3.9584
21
-2.18365
0
LINE
8
BLACK
6
CONTINUOUS
10
3.9584
20
-2.18365
11
3.9577
21
-2.18503
0
LINE
8
BLACK
6
CONTINUOUS
10
3.9577
20
-2.18503
11
3.9577
21
-2.18973
0
LINE
8
BLACK
6
CONTINUOUS
10
3.9577
20
-2.18973
11
3.9584
21
-2.19112
0
LINE
8
BLACK
6
CONTINUOUS
10
3.9584
20
-2.19112
11
3.95894
21
-2.19166
0
LINE
8
BLACK
6
CONTINUOUS
10
3.95894
20
-2.19166
11
3.96032
21
-2.19235
0
LINE
8
BLACK
6
CONTINUOUS
10
3.96032
20
-2.19235
11
3.96158
21
-2.19235
0
LINE
8
BLACK
6
CONTINUOUS
10
3.96158
20
-2.19235
11
3.96412
21
-2.1915
0
LINE
8
BLACK
6
CONTINUOUS
10
3.96412
20
-2.1915
11
3.97825
21
-2.17737
0
LINE
8
BLACK
6
CONTINUOUS
10
3.97825
20
-2.17737
11
3.97878
21
-2.177
0
LINE
8
BLACK
6
CONTINUOUS
10
3.97878
20
-2.177
11
3.97887
21
-2.1769
0
LINE
8
BLACK
6
CONTINUOUS
10
3.97887
20
-2.1769
11
3.97894
21
-2.17689
0
LINE
8
BLACK
6
CONTINUOUS
10
3.97894
20
-2.17689
11
3.97909
21
-2.17679
0
LINE
8
BLACK
6
CONTINUOUS
10
3.97909
20
-2.17679
11
3.97998
21
-2.17671
0
LINE
8
BLACK
6
CONTINUOUS
10
3.97998
20
-2.17671
11
3.98086
21
-2.17655
0
LINE
8
BLACK
6
CONTINUOUS
10
3.98086
20
-2.17655
11
3.98097
21
-2.17662
0
LINE
8
BLACK
6
CONTINUOUS
10
3.89065
20
-2.17542
11
3.89134
21
-2.17709
0
LINE
8
BLACK
6
CONTINUOUS
10
3.89134
20
-2.17709
11
3.89134
21
-2.18512
0
LINE
8
BLACK
6
CONTINUOUS
10
3.89134
20
-2.18512
11
3.89065
21
-2.18679
0
LINE
8
BLACK
6
CONTINUOUS
10
3.89065
20
-2.18679
11
3.88898
21
-2.18748
0
LINE
8
BLACK
6
CONTINUOUS
10
3.88898
20
-2.18748
11
3.88731
21
-2.18679
0
LINE
8
BLACK
6
CONTINUOUS
10
3.88731
20
-2.18679
11
3.88661
21
-2.18512
0
LINE
8
BLACK
6
CONTINUOUS
10
3.88661
20
-2.18512
11
3.88661
21
-2.17709
0
LINE
8
BLACK
6
CONTINUOUS
10
3.88661
20
-2.17709
11
3.88731
21
-2.17542
0
LINE
8
BLACK
6
CONTINUOUS
10
3.88731
20
-2.17542
11
3.88898
21
-2.17473
0
LINE
8
BLACK
6
CONTINUOUS
10
3.88898
20
-2.17473
11
3.89065
21
-2.17542
0
LINE
8
BLACK
6
CONTINUOUS
10
3.73622
20
-2.17717
11
3.81299
21
-2.17717
0
LINE
8
BLACK
6
CONTINUOUS
10
3.81299
20
-2.17717
11
3.81466
21
-2.17786
0
LINE
8
BLACK
6
CONTINUOUS
10
3.81466
20
-2.17786
11
3.81535
21
-2.17953
0
LINE
8
BLACK
6
CONTINUOUS
10
3.81535
20
-2.17953
11
3.81466
21
-2.1812
0
LINE
8
BLACK
6
CONTINUOUS
10
3.81466
20
-2.1812
11
3.81299
21
-2.18189
0
LINE
8
BLACK
6
CONTINUOUS
10
3.81299
20
-2.18189
11
3.73622
21
-2.18189
0
LINE
8
BLACK
6
CONTINUOUS
10
3.73622
20
-2.18189
11
3.60039
21
-2.18189
0
LINE
8
BLACK
6
CONTINUOUS
10
3.60039
20
-2.18189
11
3.59872
21
-2.1812
0
LINE
8
BLACK
6
CONTINUOUS
10
3.59872
20
-2.1812
11
3.59803
21
-2.17953
0
LINE
8
BLACK
6
CONTINUOUS
10
3.59803
20
-2.17953
11
3.59872
21
-2.17786
0
LINE
8
BLACK
6
CONTINUOUS
10
3.59872
20
-2.17786
11
3.60039
21
-2.17717
0
LINE
8
BLACK
6
CONTINUOUS
10
3.60039
20
-2.17717
11
3.73622
21
-2.17717
0
LINE
8
BLACK
6
CONTINUOUS
10
3.96996
20
-2.15224
11
3.97009
21
-2.15223
0
LINE
8
BLACK
6
CONTINUOUS
10
3.97009
20
-2.15223
11
3.97497
21
-2.15344
0
LINE
8
BLACK
6
CONTINUOUS
10
3.97497
20
-2.15344
11
3.97543
21
-2.15365
0
LINE
8
BLACK
6
CONTINUOUS
10
3.97543
20
-2.15365
11
3.97557
21
-2.15367
0
LINE
8
BLACK
6
CONTINUOUS
10
3.97557
20
-2.15367
11
3.97801
21
-2.15489
0
LINE
8
BLACK
6
CONTINUOUS
10
3.97801
20
-2.15489
11
3.97872
21
-2.15541
0
LINE
8
BLACK
6
CONTINUOUS
10
3.97872
20
-2.15541
11
3.97877
21
-2.15544
0
LINE
8
BLACK
6
CONTINUOUS
10
3.97877
20
-2.15544
11
3.98121
21
-2.15788
0
LINE
8
BLACK
6
CONTINUOUS
10
3.98121
20
-2.15788
11
3.9818
21
-2.15872
0
LINE
8
BLACK
6
CONTINUOUS
10
3.9818
20
-2.15872
11
3.98182
21
-2.15889
0
LINE
8
BLACK
6
CONTINUOUS
10
3.98182
20
-2.15889
11
3.98193
21
-2.15903
0
LINE
8
BLACK
6
CONTINUOUS
10
3.98193
20
-2.15903
11
3.98314
21
-2.16269
0
LINE
8
BLACK
6
CONTINUOUS
10
3.98314
20
-2.16269
11
3.98327
21
-2.16356
0
LINE
8
BLACK
6
CONTINUOUS
10
3.98327
20
-2.16356
11
3.9833
21
-2.16362
0
LINE
8
BLACK
6
CONTINUOUS
10
3.9833
20
-2.16362
11
3.9833
21
-2.16606
0
LINE
8
BLACK
6
CONTINUOUS
10
3.9833
20
-2.16606
11
3.98314
21
-2.16693
0
LINE
8
BLACK
6
CONTINUOUS
10
3.98314
20
-2.16693
11
3.98314
21
-2.16699
0
LINE
8
BLACK
6
CONTINUOUS
10
3.98314
20
-2.16699
11
3.98193
21
-2.17065
0
LINE
8
BLACK
6
CONTINUOUS
10
3.98193
20
-2.17065
11
3.98144
21
-2.17155
0
LINE
8
BLACK
6
CONTINUOUS
10
3.98144
20
-2.17155
11
3.98129
21
-2.17164
0
LINE
8
BLACK
6
CONTINUOUS
10
3.98129
20
-2.17164
11
3.98121
21
-2.1718
0
LINE
8
BLACK
6
CONTINUOUS
10
3.98121
20
-2.1718
11
3.97999
21
-2.17302
0
LINE
8
BLACK
6
CONTINUOUS
10
3.97999
20
-2.17302
11
3.97915
21
-2.17361
0
LINE
8
BLACK
6
CONTINUOUS
10
3.97915
20
-2.17361
11
3.97714
21
-2.17378
0
LINE
8
BLACK
6
CONTINUOUS
10
3.97714
20
-2.17378
11
3.97549
21
-2.17263
0
LINE
8
BLACK
6
CONTINUOUS
10
3.97549
20
-2.17263
11
3.97496
21
-2.17067
0
LINE
8
BLACK
6
CONTINUOUS
10
3.97496
20
-2.17067
11
3.97582
21
-2.16884
0
LINE
8
BLACK
6
CONTINUOUS
10
3.97582
20
-2.16884
11
3.97654
21
-2.16812
0
LINE
8
BLACK
6
CONTINUOUS
10
3.97654
20
-2.16812
11
3.97739
21
-2.16558
0
LINE
8
BLACK
6
CONTINUOUS
10
3.97739
20
-2.16558
11
3.97739
21
-2.1641
0
LINE
8
BLACK
6
CONTINUOUS
10
3.97739
20
-2.1641
11
3.97654
21
-2.16156
0
LINE
8
BLACK
6
CONTINUOUS
10
3.97654
20
-2.16156
11
3.97494
21
-2.15995
0
LINE
8
BLACK
6
CONTINUOUS
10
3.97494
20
-2.15995
11
3.97322
21
-2.15909
0
LINE
8
BLACK
6
CONTINUOUS
10
3.97322
20
-2.15909
11
3.96901
21
-2.15804
0
LINE
8
BLACK
6
CONTINUOUS
10
3.96901
20
-2.15804
11
3.96608
21
-2.15804
0
LINE
8
BLACK
6
CONTINUOUS
10
3.96608
20
-2.15804
11
3.96188
21
-2.15909
0
LINE
8
BLACK
6
CONTINUOUS
10
3.96188
20
-2.15909
11
3.96016
21
-2.15995
0
LINE
8
BLACK
6
CONTINUOUS
10
3.96016
20
-2.15995
11
3.95855
21
-2.16156
0
LINE
8
BLACK
6
CONTINUOUS
10
3.95855
20
-2.16156
11
3.9577
21
-2.1641
0
LINE
8
BLACK
6
CONTINUOUS
10
3.9577
20
-2.1641
11
3.9577
21
-2.16558
0
LINE
8
BLACK
6
CONTINUOUS
10
3.9577
20
-2.16558
11
3.95855
21
-2.16812
0
LINE
8
BLACK
6
CONTINUOUS
10
3.95855
20
-2.16812
11
3.95928
21
-2.16884
0
LINE
8
BLACK
6
CONTINUOUS
10
3.95928
20
-2.16884
11
3.95987
21
-2.16968
0
LINE
8
BLACK
6
CONTINUOUS
10
3.95987
20
-2.16968
11
3.96004
21
-2.1717
0
LINE
8
BLACK
6
CONTINUOUS
10
3.96004
20
-2.1717
11
3.95888
21
-2.17335
0
LINE
8
BLACK
6
CONTINUOUS
10
3.95888
20
-2.17335
11
3.95693
21
-2.17387
0
LINE
8
BLACK
6
CONTINUOUS
10
3.95693
20
-2.17387
11
3.9551
21
-2.17302
0
LINE
8
BLACK
6
CONTINUOUS
10
3.9551
20
-2.17302
11
3.95388
21
-2.1718
0
LINE
8
BLACK
6
CONTINUOUS
10
3.95388
20
-2.1718
11
3.95329
21
-2.17096
0
LINE
8
BLACK
6
CONTINUOUS
10
3.95329
20
-2.17096
11
3.95328
21
-2.17079
0
LINE
8
BLACK
6
CONTINUOUS
10
3.95328
20
-2.17079
11
3.95317
21
-2.17065
0
LINE
8
BLACK
6
CONTINUOUS
10
3.95317
20
-2.17065
11
3.95195
21
-2.16699
0
LINE
8
BLACK
6
CONTINUOUS
10
3.95195
20
-2.16699
11
3.95182
21
-2.16612
0
LINE
8
BLACK
6
CONTINUOUS
10
3.95182
20
-2.16612
11
3.9518
21
-2.16606
0
LINE
8
BLACK
6
CONTINUOUS
10
3.9518
20
-2.16606
11
3.9518
21
-2.16362
0
LINE
8
BLACK
6
CONTINUOUS
10
3.9518
20
-2.16362
11
3.95195
21
-2.16275
0
LINE
8
BLACK
6
CONTINUOUS
10
3.95195
20
-2.16275
11
3.95195
21
-2.16269
0
LINE
8
BLACK
6
CONTINUOUS
10
3.95195
20
-2.16269
11
3.95317
21
-2.15903
0
LINE
8
BLACK
6
CONTINUOUS
10
3.95317
20
-2.15903
11
3.95366
21
-2.15813
0
LINE
8
BLACK
6
CONTINUOUS
10
3.95366
20
-2.15813
11
3.95381
21
-2.15804
0
LINE
8
BLACK
6
CONTINUOUS
10
3.95381
20
-2.15804
11
3.95388
21
-2.15788
0
LINE
8
BLACK
6
CONTINUOUS
10
3.95388
20
-2.15788
11
3.95632
21
-2.15544
0
LINE
8
BLACK
6
CONTINUOUS
10
3.95632
20
-2.15544
11
3.95704
21
-2.15493
0
LINE
8
BLACK
6
CONTINUOUS
10
3.95704
20
-2.15493
11
3.95709
21
-2.15489
0
LINE
8
BLACK
6
CONTINUOUS
10
3.95709
20
-2.15489
11
3.95952
21
-2.15367
0
LINE
8
BLACK
6
CONTINUOUS
10
3.95952
20
-2.15367
11
3.96001
21
-2.15352
0
LINE
8
BLACK
6
CONTINUOUS
10
3.96001
20
-2.15352
11
3.96013
21
-2.15344
0
LINE
8
BLACK
6
CONTINUOUS
10
3.96013
20
-2.15344
11
3.965
21
-2.15223
0
LINE
8
BLACK
6
CONTINUOUS
10
3.965
20
-2.15223
11
3.96559
21
-2.15218
0
LINE
8
BLACK
6
CONTINUOUS
10
3.96559
20
-2.15218
11
3.96572
21
-2.15214
0
LINE
8
BLACK
6
CONTINUOUS
10
3.96572
20
-2.15214
11
3.96938
21
-2.15214
0
LINE
8
BLACK
6
CONTINUOUS
10
3.96938
20
-2.15214
11
3.96996
21
-2.15224
0
LINE
8
BLACK
6
CONTINUOUS
10
3.94321
20
-2.0355
11
3.9439
21
-2.0374
0
LINE
8
BLACK
6
CONTINUOUS
10
3.9439
20
-2.0374
11
3.9439
21
-2.10433
0
LINE
8
BLACK
6
CONTINUOUS
10
3.9439
20
-2.10433
11
3.94372
21
-2.10534
0
LINE
8
BLACK
6
CONTINUOUS
10
3.94372
20
-2.10534
11
3.94242
21
-2.10689
0
LINE
8
BLACK
6
CONTINUOUS
10
3.94242
20
-2.10689
11
3.94043
21
-2.10724
0
LINE
8
BLACK
6
CONTINUOUS
10
3.94043
20
-2.10724
11
3.93868
21
-2.10623
0
LINE
8
BLACK
6
CONTINUOUS
10
3.93868
20
-2.10623
11
3.93799
21
-2.10433
0
LINE
8
BLACK
6
CONTINUOUS
10
3.93799
20
-2.10433
11
3.93799
21
-2.0374
0
LINE
8
BLACK
6
CONTINUOUS
10
3.93799
20
-2.0374
11
3.93817
21
-2.03639
0
LINE
8
BLACK
6
CONTINUOUS
10
3.93817
20
-2.03639
11
3.93947
21
-2.03484
0
LINE
8
BLACK
6
CONTINUOUS
10
3.93947
20
-2.03484
11
3.94146
21
-2.03449
0
LINE
8
BLACK
6
CONTINUOUS
10
3.94146
20
-2.03449
11
3.94321
21
-2.0355
0
LINE
8
BLACK
6
CONTINUOUS
10
3.96776
20
-2.09366
11
3.96887
21
-2.09535
0
LINE
8
BLACK
6
CONTINUOUS
10
3.96887
20
-2.09535
11
3.96864
21
-2.09736
0
LINE
8
BLACK
6
CONTINUOUS
10
3.96864
20
-2.09736
11
3.96742
21
-2.09979
0
LINE
8
BLACK
6
CONTINUOUS
10
3.96742
20
-2.09979
11
3.96698
21
-2.10039
0
LINE
8
BLACK
6
CONTINUOUS
10
3.96698
20
-2.10039
11
3.98133
21
-2.10039
0
LINE
8
BLACK
6
CONTINUOUS
10
3.98133
20
-2.10039
11
3.98133
21
-2.09603
0
LINE
8
BLACK
6
CONTINUOUS
10
3.98133
20
-2.09603
11
3.9815
21
-2.09502
0
LINE
8
BLACK
6
CONTINUOUS
10
3.9815
20
-2.09502
11
3.9828
21
-2.09348
0
LINE
8
BLACK
6
CONTINUOUS
10
3.9828
20
-2.09348
11
3.98479
21
-2.09313
0
LINE
8
BLACK
6
CONTINUOUS
10
3.98479
20
-2.09313
11
3.98654
21
-2.09414
0
LINE
8
BLACK
6
CONTINUOUS
10
3.98654
20
-2.09414
11
3.98723
21
-2.09603
0
LINE
8
BLACK
6
CONTINUOUS
10
3.98723
20
-2.09603
11
3.98723
21
-2.11066
0
LINE
8
BLACK
6
CONTINUOUS
10
3.98723
20
-2.11066
11
3.98705
21
-2.11167
0
LINE
8
BLACK
6
CONTINUOUS
10
3.98705
20
-2.11167
11
3.98576
21
-2.11322
0
LINE
8
BLACK
6
CONTINUOUS
10
3.98576
20
-2.11322
11
3.98377
21
-2.11357
0
LINE
8
BLACK
6
CONTINUOUS
10
3.98377
20
-2.11357
11
3.98202
21
-2.11256
0
LINE
8
BLACK
6
CONTINUOUS
10
3.98202
20
-2.11256
11
3.98133
21
-2.11066
0
LINE
8
BLACK
6
CONTINUOUS
10
3.98133
20
-2.11066
11
3.98133
21
-2.1063
0
LINE
8
BLACK
6
CONTINUOUS
10
3.98133
20
-2.1063
11
3.95869
21
-2.1063
0
LINE
8
BLACK
6
CONTINUOUS
10
3.95869
20
-2.1063
11
3.95768
21
-2.10612
0
LINE
8
BLACK
6
CONTINUOUS
10
3.95768
20
-2.10612
11
3.95755
21
-2.10601
0
LINE
8
BLACK
6
CONTINUOUS
10
3.95755
20
-2.10601
11
3.95738
21
-2.10599
0
LINE
8
BLACK
6
CONTINUOUS
10
3.95738
20
-2.10599
11
3.95679
21
-2.10537
0
LINE
8
BLACK
6
CONTINUOUS
10
3.95679
20
-2.10537
11
3.95613
21
-2.10482
0
LINE
8
BLACK
6
CONTINUOUS
10
3.95613
20
-2.10482
11
3.9561
21
-2.10466
0
LINE
8
BLACK
6
CONTINUOUS
10
3.9561
20
-2.10466
11
3.95599
21
-2.10453
0
LINE
8
BLACK
6
CONTINUOUS
10
3.95599
20
-2.10453
11
3.95593
21
-2.10368
0
LINE
8
BLACK
6
CONTINUOUS
10
3.95593
20
-2.10368
11
3.95578
21
-2.10283
0
LINE
8
BLACK
6
CONTINUOUS
10
3.95578
20
-2.10283
11
3.95587
21
-2.10269
0
LINE
8
BLACK
6
CONTINUOUS
10
3.95587
20
-2.10269
11
3.95586
21
-2.10252
0
LINE
8
BLACK
6
CONTINUOUS
10
3.95586
20
-2.10252
11
3.95636
21
-2.10183
0
LINE
8
BLACK
6
CONTINUOUS
10
3.95636
20
-2.10183
11
3.95679
21
-2.10108
0
LINE
8
BLACK
6
CONTINUOUS
10
3.95679
20
-2.10108
11
3.95695
21
-2.10103
0
LINE
8
BLACK
6
CONTINUOUS
10
3.95695
20
-2.10103
11
3.95705
21
-2.10089
0
LINE
8
BLACK
6
CONTINUOUS
10
3.95705
20
-2.10089
11
3.96046
21
-2.09861
0
LINE
8
BLACK
6
CONTINUOUS
10
3.96046
20
-2.09861
11
3.96236
21
-2.09672
0
LINE
8
BLACK
6
CONTINUOUS
10
3.96236
20
-2.09672
11
3.96336
21
-2.09471
0
LINE
8
BLACK
6
CONTINUOUS
10
3.96336
20
-2.09471
11
3.96397
21
-2.09389
0
LINE
8
BLACK
6
CONTINUOUS
10
3.96397
20
-2.09389
11
3.96582
21
-2.09309
0
LINE
8
BLACK
6
CONTINUOUS
10
3.96582
20
-2.09309
11
3.96776
21
-2.09366
0
LINE
8
BLACK
6
CONTINUOUS
10
3.88809
20
-2.0355
11
3.88878
21
-2.0374
0
LINE
8
BLACK
6
CONTINUOUS
10
3.88878
20
-2.0374
11
3.88878
21
-2.10433
0
LINE
8
BLACK
6
CONTINUOUS
10
3.88878
20
-2.10433
11
3.8886
21
-2.10534
0
LINE
8
BLACK
6
CONTINUOUS
10
3.8886
20
-2.10534
11
3.8873
21
-2.10689
0
LINE
8
BLACK
6
CONTINUOUS
10
3.8873
20
-2.10689
11
3.88531
21
-2.10724
0
LINE
8
BLACK
6
CONTINUOUS
10
3.88531
20
-2.10724
11
3.88356
21
-2.10623
0
LINE
8
BLACK
6
CONTINUOUS
10
3.88356
20
-2.10623
11
3.88287
21
-2.10433
0
LINE
8
BLACK
6
CONTINUOUS
10
3.88287
20
-2.10433
11
3.88287
21
-2.0374
0
LINE
8
BLACK
6
CONTINUOUS
10
3.88287
20
-2.0374
11
3.88305
21
-2.03639
0
LINE
8
BLACK
6
CONTINUOUS
10
3.88305
20
-2.03639
11
3.88435
21
-2.03484
0
LINE
8
BLACK
6
CONTINUOUS
10
3.88435
20
-2.03484
11
3.88634
21
-2.03449
0
LINE
8
BLACK
6
CONTINUOUS
10
3.88634
20
-2.03449
11
3.88809
21
-2.0355
0
LINE
8
BLACK
6
CONTINUOUS
10
3.98529
20
-2.06889
11
3.98684
21
-2.07019
0
LINE
8
BLACK
6
CONTINUOUS
10
3.98684
20
-2.07019
11
3.98719
21
-2.07218
0
LINE
8
BLACK
6
CONTINUOUS
10
3.98719
20
-2.07218
11
3.98618
21
-2.07392
0
LINE
8
BLACK
6
CONTINUOUS
10
3.98618
20
-2.07392
11
3.98428
21
-2.07462
0
LINE
8
BLACK
6
CONTINUOUS
10
3.98428
20
-2.07462
11
3.97505
21
-2.07462
0
LINE
8
BLACK
6
CONTINUOUS
10
3.97505
20
-2.07462
11
3.97505
21
-2.07622
0
LINE
8
BLACK
6
CONTINUOUS
10
3.97505
20
-2.07622
11
3.98597
21
-2.08387
0
LINE
8
BLACK
6
CONTINUOUS
10
3.98597
20
-2.08387
11
3.9867
21
-2.08459
0
LINE
8
BLACK
6
CONTINUOUS
10
3.9867
20
-2.08459
11
3.98722
21
-2.08654
0
LINE
8
BLACK
6
CONTINUOUS
10
3.98722
20
-2.08654
11
3.98637
21
-2.08837
0
LINE
8
BLACK
6
CONTINUOUS
10
3.98637
20
-2.08837
11
3.98454
21
-2.08923
0
LINE
8
BLACK
6
CONTINUOUS
10
3.98454
20
-2.08923
11
3.98259
21
-2.08871
0
LINE
8
BLACK
6
CONTINUOUS
10
3.98259
20
-2.08871
11
3.97456
21
-2.08309
0
LINE
8
BLACK
6
CONTINUOUS
10
3.97456
20
-2.08309
11
3.97352
21
-2.08517
0
LINE
8
BLACK
6
CONTINUOUS
10
3.97352
20
-2.08517
11
3.97299
21
-2.08588
0
LINE
8
BLACK
6
CONTINUOUS
10
3.97299
20
-2.08588
11
3.97296
21
-2.08594
0
LINE
8
BLACK
6
CONTINUOUS
10
3.97296
20
-2.08594
11
3.97174
21
-2.08716
0
LINE
8
BLACK
6
CONTINUOUS
10
3.97174
20
-2.08716
11
3.97102
21
-2.08766
0
LINE
8
BLACK
6
CONTINUOUS
10
3.97102
20
-2.08766
11
3.97098
21
-2.08771
0
LINE
8
BLACK
6
CONTINUOUS
10
3.97098
20
-2.08771
11
3.96854
21
-2.08893
0
LINE
8
BLACK
6
CONTINUOUS
10
3.96854
20
-2.08893
11
3.96756
21
-2.08922
0
LINE
8
BLACK
6
CONTINUOUS
10
3.96756
20
-2.08922
11
3.96739
21
-2.08918
0
LINE
8
BLACK
6
CONTINUOUS
10
3.96739
20
-2.08918
11
3.96722
21
-2.08924
0
LINE
8
BLACK
6
CONTINUOUS
10
3.96722
20
-2.08924
11
3.96356
21
-2.08924
0
LINE
8
BLACK
6
CONTINUOUS
10
3.96356
20
-2.08924
11
3.96255
21
-2.08906
0
LINE
8
BLACK
6
CONTINUOUS
10
3.96255
20
-2.08906
11
3.96242
21
-2.08895
0
LINE
8
BLACK
6
CONTINUOUS
10
3.96242
20
-2.08895
11
3.96224
21
-2.08893
0
LINE
8
BLACK
6
CONTINUOUS
10
3.96224
20
-2.08893
11
3.95981
21
-2.08771
0
LINE
8
BLACK
6
CONTINUOUS
10
3.95981
20
-2.08771
11
3.9591
21
-2.08718
0
LINE
8
BLACK
6
CONTINUOUS
10
3.9591
20
-2.08718
11
3.95904
21
-2.08716
0
LINE
8
BLACK
6
CONTINUOUS
10
3.95904
20
-2.08716
11
3.95782
21
-2.08594
0
LINE
8
BLACK
6
CONTINUOUS
10
3.95782
20
-2.08594
11
3.95731
21
-2.08521
0
LINE
8
BLACK
6
CONTINUOUS
10
3.95731
20
-2.08521
11
3.95727
21
-2.08517
0
LINE
8
BLACK
6
CONTINUOUS
10
3.95727
20
-2.08517
11
3.95605
21
-2.08273
0
LINE
8
BLACK
6
CONTINUOUS
10
3.95605
20
-2.08273
11
3.95576
21
-2.08175
0
LINE
8
BLACK
6
CONTINUOUS
10
3.95576
20
-2.08175
11
3.9558
21
-2.08158
0
LINE
8
BLACK
6
CONTINUOUS
10
3.9558
20
-2.08158
11
3.95574
21
-2.08141
0
LINE
8
BLACK
6
CONTINUOUS
10
3.95574
20
-2.08141
11
3.95574
21
-2.07166
0
LINE
8
BLACK
6
CONTINUOUS
10
3.95574
20
-2.07166
11
3.9558
21
-2.07128
0
LINE
8
BLACK
6
CONTINUOUS
10
3.9558
20
-2.07128
11
3.95578
21
-2.07115
0
LINE
8
BLACK
6
CONTINUOUS
10
3.95578
20
-2.07115
11
3.95585
21
-2.07104
0
LINE
8
BLACK
6
CONTINUOUS
10
3.95585
20
-2.07104
11
3.95591
21
-2.07065
0
LINE
8
BLACK
6
CONTINUOUS
10
3.95591
20
-2.07065
11
3.95641
21
-2.07007
0
LINE
8
BLACK
6
CONTINUOUS
10
3.95641
20
-2.07007
11
3.95679
21
-2.0694
0
LINE
8
BLACK
6
CONTINUOUS
10
3.95679
20
-2.0694
11
3.95704
21
-2.06931
0
LINE
8
BLACK
6
CONTINUOUS
10
3.95704
20
-2.06931
11
3.95721
21
-2.06911
0
LINE
8
BLACK
6
CONTINUOUS
10
3.95721
20
-2.06911
11
3.95797
21
-2.06897
0
LINE
8
BLACK
6
CONTINUOUS
10
3.95797
20
-2.06897
11
3.95869
21
-2.06871
0
LINE
8
BLACK
6
CONTINUOUS
10
3.95869
20
-2.06871
11
3.98428
21
-2.06871
0
LINE
8
BLACK
6
CONTINUOUS
10
3.98428
20
-2.06871
11
3.98529
21
-2.06889
0
LINE
8
BLACK
6
CONTINUOUS
10
3.96164
20
-2.08071
11
3.96233
21
-2.0821
0
LINE
8
BLACK
6
CONTINUOUS
10
3.96233
20
-2.0821
11
3.96288
21
-2.08264
0
LINE
8
BLACK
6
CONTINUOUS
10
3.96288
20
-2.08264
11
3.96426
21
-2.08333
0
LINE
8
BLACK
6
CONTINUOUS
10
3.96426
20
-2.08333
11
3.96652
21
-2.08333
0
LINE
8
BLACK
6
CONTINUOUS
10
3.96652
20
-2.08333
11
3.96791
21
-2.08264
0
LINE
8
BLACK
6
CONTINUOUS
10
3.96791
20
-2.08264
11
3.96845
21
-2.0821
0
LINE
8
BLACK
6
CONTINUOUS
10
3.96845
20
-2.0821
11
3.96914
21
-2.08071
0
LINE
8
BLACK
6
CONTINUOUS
10
3.96914
20
-2.08071
11
3.96914
21
-2.07462
0
LINE
8
BLACK
6
CONTINUOUS
10
3.96914
20
-2.07462
11
3.96164
21
-2.07462
0
LINE
8
BLACK
6
CONTINUOUS
10
3.96164
20
-2.07462
11
3.96164
21
-2.08071
0
LINE
8
BLACK
6
CONTINUOUS
10
3.73622
20
-1.97559
11
3.81299
21
-1.97559
0
LINE
8
BLACK
6
CONTINUOUS
10
3.81299
20
-1.97559
11
3.81466
21
-1.97628
0
LINE
8
BLACK
6
CONTINUOUS
10
3.81466
20
-1.97628
11
3.81535
21
-1.97795
0
LINE
8
BLACK
6
CONTINUOUS
10
3.81535
20
-1.97795
11
3.81466
21
-1.97962
0
LINE
8
BLACK
6
CONTINUOUS
10
3.81466
20
-1.97962
11
3.81299
21
-1.98031
0
LINE
8
BLACK
6
CONTINUOUS
10
3.81299
20
-1.98031
11
3.73622
21
-1.98031
0
LINE
8
BLACK
6
CONTINUOUS
10
3.73622
20
-1.98031
11
3.65945
21
-1.98031
0
LINE
8
BLACK
6
CONTINUOUS
10
3.65945
20
-1.98031
11
3.65778
21
-1.97962
0
LINE
8
BLACK
6
CONTINUOUS
10
3.65778
20
-1.97962
11
3.65709
21
-1.97795
0
LINE
8
BLACK
6
CONTINUOUS
10
3.65709
20
-1.97795
11
3.65778
21
-1.97628
0
LINE
8
BLACK
6
CONTINUOUS
10
3.65778
20
-1.97628
11
3.65945
21
-1.97559
0
LINE
8
BLACK
6
CONTINUOUS
10
3.65945
20
-1.97559
11
3.73622
21
-1.97559
0
LINE
8
BLACK
6
CONTINUOUS
10
3.60602
20
-1.91697
11
3.60619
21
-1.91695
0
LINE
8
BLACK
6
CONTINUOUS
10
3.60619
20
-1.91695
11
3.60688
21
-1.91746
0
LINE
8
BLACK
6
CONTINUOUS
10
3.60688
20
-1.91746
11
3.60762
21
-1.91789
0
LINE
8
BLACK
6
CONTINUOUS
10
3.60762
20
-1.91789
11
3.60768
21
-1.91805
0
LINE
8
BLACK
6
CONTINUOUS
10
3.60768
20
-1.91805
11
3.60782
21
-1.91815
0
LINE
8
BLACK
6
CONTINUOUS
10
3.60782
20
-1.91815
11
3.61141
21
-1.92353
0
LINE
8
BLACK
6
CONTINUOUS
10
3.61141
20
-1.92353
11
3.61461
21
-1.92674
0
LINE
8
BLACK
6
CONTINUOUS
10
3.61461
20
-1.92674
11
3.61793
21
-1.9284
0
LINE
8
BLACK
6
CONTINUOUS
10
3.61793
20
-1.9284
11
3.61875
21
-1.92901
0
LINE
8
BLACK
6
CONTINUOUS
10
3.61875
20
-1.92901
11
3.61956
21
-1.93086
0
LINE
8
BLACK
6
CONTINUOUS
10
3.61956
20
-1.93086
11
3.61898
21
-1.9328
0
LINE
8
BLACK
6
CONTINUOUS
10
3.61898
20
-1.9328
11
3.6173
21
-1.93391
0
LINE
8
BLACK
6
CONTINUOUS
10
3.6173
20
-1.93391
11
3.61529
21
-1.93368
0
LINE
8
BLACK
6
CONTINUOUS
10
3.61529
20
-1.93368
11
3.61154
21
-1.9318
0
LINE
8
BLACK
6
CONTINUOUS
10
3.61154
20
-1.9318
11
3.61083
21
-1.93128
0
LINE
8
BLACK
6
CONTINUOUS
10
3.61083
20
-1.93128
11
3.61077
21
-1.93125
0
LINE
8
BLACK
6
CONTINUOUS
10
3.61077
20
-1.93125
11
3.60831
21
-1.92879
0
LINE
8
BLACK
6
CONTINUOUS
10
3.60831
20
-1.92879
11
3.60831
21
-1.95621
0
LINE
8
BLACK
6
CONTINUOUS
10
3.60831
20
-1.95621
11
3.61661
21
-1.95621
0
LINE
8
BLACK
6
CONTINUOUS
10
3.61661
20
-1.95621
11
3.61762
21
-1.95638
0
LINE
8
BLACK
6
CONTINUOUS
10
3.61762
20
-1.95638
11
3.61917
21
-1.95768
0
LINE
8
BLACK
6
CONTINUOUS
10
3.61917
20
-1.95768
11
3.61952
21
-1.95967
0
LINE
8
BLACK
6
CONTINUOUS
10
3.61952
20
-1.95967
11
3.61851
21
-1.96142
0
LINE
8
BLACK
6
CONTINUOUS
10
3.61851
20
-1.96142
11
3.61661
21
-1.96211
0
LINE
8
BLACK
6
CONTINUOUS
10
3.61661
20
-1.96211
11
3.59411
21
-1.96211
0
LINE
8
BLACK
6
CONTINUOUS
10
3.59411
20
-1.96211
11
3.5931
21
-1.96193
0
LINE
8
BLACK
6
CONTINUOUS
10
3.5931
20
-1.96193
11
3.59156
21
-1.96063
0
LINE
8
BLACK
6
CONTINUOUS
10
3.59156
20
-1.96063
11
3.59121
21
-1.95865
0
LINE
8
BLACK
6
CONTINUOUS
10
3.59121
20
-1.95865
11
3.59222
21
-1.9569
0
LINE
8
BLACK
6
CONTINUOUS
10
3.59222
20
-1.9569
11
3.59411
21
-1.95621
0
LINE
8
BLACK
6
CONTINUOUS
10
3.59411
20
-1.95621
11
3.60241
21
-1.95621
0
LINE
8
BLACK
6
CONTINUOUS
10
3.60241
20
-1.95621
11
3.60241
21
-1.91979
0
LINE
8
BLACK
6
CONTINUOUS
10
3.60241
20
-1.91979
11
3.60259
21
-1.91878
0
LINE
8
BLACK
6
CONTINUOUS
10
3.60259
20
-1.91878
11
3.6027
21
-1.91865
0
LINE
8
BLACK
6
CONTINUOUS
10
3.6027
20
-1.91865
11
3.60271
21
-1.91848
0
LINE
8
BLACK
6
CONTINUOUS
10
3.60271
20
-1.91848
11
3.60333
21
-1.91789
0
LINE
8
BLACK
6
CONTINUOUS
10
3.60333
20
-1.91789
11
3.60389
21
-1.91723
0
LINE
8
BLACK
6
CONTINUOUS
10
3.60389
20
-1.91723
11
3.60405
21
-1.9172
0
LINE
8
BLACK
6
CONTINUOUS
10
3.60405
20
-1.9172
11
3.60418
21
-1.91708
0
LINE
8
BLACK
6
CONTINUOUS
10
3.60418
20
-1.91708
11
3.60503
21
-1.91703
0
LINE
8
BLACK
6
CONTINUOUS
10
3.60503
20
-1.91703
11
3.60587
21
-1.91688
0
LINE
8
BLACK
6
CONTINUOUS
10
3.60587
20
-1.91688
11
3.60602
21
-1.91697
0
LINE
8
BLACK
6
CONTINUOUS
10
3.65824
20
-1.91789
11
3.65893
21
-1.91979
0
LINE
8
BLACK
6
CONTINUOUS
10
3.65893
20
-1.91979
11
3.65893
21
-1.95166
0
LINE
8
BLACK
6
CONTINUOUS
10
3.65893
20
-1.95166
11
3.65876
21
-1.95267
0
LINE
8
BLACK
6
CONTINUOUS
10
3.65876
20
-1.95267
11
3.65864
21
-1.9528
0
LINE
8
BLACK
6
CONTINUOUS
10
3.65864
20
-1.9528
11
3.65862
21
-1.95298
0
LINE
8
BLACK
6
CONTINUOUS
10
3.65862
20
-1.95298
11
3.65675
21
-1.95673
0
LINE
8
BLACK
6
CONTINUOUS
10
3.65675
20
-1.95673
11
3.65622
21
-1.95744
0
LINE
8
BLACK
6
CONTINUOUS
10
3.65622
20
-1.95744
11
3.65619
21
-1.9575
0
LINE
8
BLACK
6
CONTINUOUS
10
3.65619
20
-1.9575
11
3.65432
21
-1.95937
0
LINE
8
BLACK
6
CONTINUOUS
10
3.65432
20
-1.95937
11
3.6536
21
-1.95988
0
LINE
8
BLACK
6
CONTINUOUS
10
3.6536
20
-1.95988
11
3.65355
21
-1.95992
0
LINE
8
BLACK
6
CONTINUOUS
10
3.65355
20
-1.95992
11
3.6498
21
-1.9618
0
LINE
8
BLACK
6
CONTINUOUS
10
3.6498
20
-1.9618
11
3.64882
21
-1.96209
0
LINE
8
BLACK
6
CONTINUOUS
10
3.64882
20
-1.96209
11
3.64865
21
-1.96205
0
LINE
8
BLACK
6
CONTINUOUS
10
3.64865
20
-1.96205
11
3.64848
21
-1.96211
0
LINE
8
BLACK
6
CONTINUOUS
10
3.64848
20
-1.96211
11
3.64098
21
-1.96211
0
LINE
8
BLACK
6
CONTINUOUS
10
3.64098
20
-1.96211
11
3.63997
21
-1.96193
0
LINE
8
BLACK
6
CONTINUOUS
10
3.63997
20
-1.96193
11
3.63984
21
-1.96182
0
LINE
8
BLACK
6
CONTINUOUS
10
3.63984
20
-1.96182
11
3.63966
21
-1.9618
0
LINE
8
BLACK
6
CONTINUOUS
10
3.63966
20
-1.9618
11
3.63591
21
-1.95992
0
LINE
8
BLACK
6
CONTINUOUS
10
3.63591
20
-1.95992
11
3.6352
21
-1.9594
0
LINE
8
BLACK
6
CONTINUOUS
10
3.6352
20
-1.9594
11
3.63514
21
-1.95937
0
LINE
8
BLACK
6
CONTINUOUS
10
3.63514
20
-1.95937
11
3.63327
21
-1.9575
0
LINE
8
BLACK
6
CONTINUOUS
10
3.63327
20
-1.9575
11
3.63276
21
-1.95677
0
LINE
8
BLACK
6
CONTINUOUS
10
3.63276
20
-1.95677
11
3.63272
21
-1.95673
0
LINE
8
BLACK
6
CONTINUOUS
10
3.63272
20
-1.95673
11
3.63084
21
-1.95298
0
LINE
8
BLACK
6
CONTINUOUS
10
3.63084
20
-1.95298
11
3.63055
21
-1.952
0
LINE
8
BLACK
6
CONTINUOUS
10
3.63055
20
-1.952
11
3.63059
21
-1.95182
0
LINE
8
BLACK
6
CONTINUOUS
10
3.63059
20
-1.95182
11
3.63053
21
-1.95166
0
LINE
8
BLACK
6
CONTINUOUS
10
3.63053
20
-1.95166
11
3.63053
21
-1.91979
0
LINE
8
BLACK
6
CONTINUOUS
10
3.63053
20
-1.91979
11
3.63071
21
-1.91878
0
LINE
8
BLACK
6
CONTINUOUS
10
3.63071
20
-1.91878
11
3.63201
21
-1.91723
0
LINE
8
BLACK
6
CONTINUOUS
10
3.63201
20
-1.91723
11
3.634
21
-1.91688
0
LINE
8
BLACK
6
CONTINUOUS
10
3.634
20
-1.91688
11
3.63575
21
-1.91789
0
LINE
8
BLACK
6
CONTINUOUS
10
3.63575
20
-1.91789
11
3.63644
21
-1.91979
0
LINE
8
BLACK
6
CONTINUOUS
10
3.63644
20
-1.91979
11
3.63644
21
-1.95096
0
LINE
8
BLACK
6
CONTINUOUS
10
3.63644
20
-1.95096
11
3.63778
21
-1.95366
0
LINE
8
BLACK
6
CONTINUOUS
10
3.63778
20
-1.95366
11
3.63898
21
-1.95486
0
LINE
8
BLACK
6
CONTINUOUS
10
3.63898
20
-1.95486
11
3.64168
21
-1.95621
0
LINE
8
BLACK
6
CONTINUOUS
10
3.64168
20
-1.95621
11
3.64778
21
-1.95621
0
LINE
8
BLACK
6
CONTINUOUS
10
3.64778
20
-1.95621
11
3.65048
21
-1.95486
0
LINE
8
BLACK
6
CONTINUOUS
10
3.65048
20
-1.95486
11
3.65168
21
-1.95366
0
LINE
8
BLACK
6
CONTINUOUS
10
3.65168
20
-1.95366
11
3.65303
21
-1.95096
0
LINE
8
BLACK
6
CONTINUOUS
10
3.65303
20
-1.95096
11
3.65303
21
-1.91979
0
LINE
8
BLACK
6
CONTINUOUS
10
3.65303
20
-1.91979
11
3.65321
21
-1.91878
0
LINE
8
BLACK
6
CONTINUOUS
10
3.65321
20
-1.91878
11
3.6545
21
-1.91723
0
LINE
8
BLACK
6
CONTINUOUS
10
3.6545
20
-1.91723
11
3.65649
21
-1.91688
0
LINE
8
BLACK
6
CONTINUOUS
10
3.65649
20
-1.91688
11
3.65824
21
-1.91789
  0
ENDSEC
  0
EOF
