  0
SECTION
  2
HEADER
  9
$ANGBASE
  50
0.0
  9
$ANGDIR
  70
1
  9
$MEASUREMENT
  70
0
  0
ENDSEC
  0
SECTION
  2
TABLES
  0
TABLE
  2
LTYPE
  70
4
  0
LTYPE
  5
40F
  2
CONTINUOUS
  70
0
  3
Solid line
  72
65
  73
0
  40
0.0
  0
LTYPE
  5
410
  2
DASHDOT
 70
0
  3
Dash Dot ____ _ ____ _
 72
65
 73
4
 40
2.0
 49
1.25
 49
-0.25
 49
0.25
 49
-0.25
  0
LTYPE
  5
411
  2
DASHED
 70
0
  3
Dashed __ __ __ __ __
 72
65
 73
2
 40
0.75
 49
0.5
 49
-0.25
  0
LTYPE
  5
43B
  2
DOTTED
 70
0
  3
Dotted .  .  .  .
 72
65
 73
2
 40
0.2
 49
0.0
 49
-0.2
  0
ENDTAB
  0
TABLE
  2
STYLE
  70
4
  0
STYLE
  2
KICAD
  70
0
  40
0
  41
1
  42
1
  50
0
  71
0
  3
isocp.shx
  0
STYLE
  2
KICADB
  70
0
  40
0
  41
1
  42
1
  50
0
  71
0
  3
isocp.shx
  0
STYLE
  2
KICADI
  70
0
  40
0
  41
1
  42
1
  50
15
  71
0
  3
isocp.shx
  0
STYLE
  2
KICADBI
  70
0
  40
0
  41
1
  42
1
  50
15
  71
0
  3
isocp.shx
  0
ENDTAB
  0
TABLE
  2
LAYER
  70
1
  0
LAYER
  2
BLACK
  70
0
  62
7
  6
CONTINUOUS
  0
ENDTAB
  0
ENDSEC
  0
SECTION
  2
ENTITIES
0
LINE
8
BLACK
6
CONTINUOUS
10
3.57579
20
-2.53937
11
3.57579
21
-2.54017
0
LINE
8
BLACK
6
CONTINUOUS
10
3.57579
20
-2.54017
11
3.58012
21
-2.54238
0
LINE
8
BLACK
6
CONTINUOUS
10
3.58012
20
-2.54238
11
3.58361
21
-2.54586
0
LINE
8
BLACK
6
CONTINUOUS
10
3.58361
20
-2.54586
11
3.58465
21
-2.5479
0
LINE
8
BLACK
6
CONTINUOUS
10
3.58465
20
-2.5479
11
3.58568
21
-2.54586
0
LINE
8
BLACK
6
CONTINUOUS
10
3.58568
20
-2.54586
11
3.58917
21
-2.54238
0
LINE
8
BLACK
6
CONTINUOUS
10
3.58917
20
-2.54238
11
3.5935
21
-2.54017
0
LINE
8
BLACK
6
CONTINUOUS
10
3.5935
20
-2.54017
11
3.5935
21
-2.53937
0
LINE
8
BLACK
6
CONTINUOUS
10
3.5935
20
-2.53937
11
3.57579
21
-2.53937
0
LINE
8
BLACK
6
CONTINUOUS
10
3.58188
20
-2.42224
11
3.57967
21
-2.42658
0
LINE
8
BLACK
6
CONTINUOUS
10
3.57967
20
-2.42658
11
3.57619
21
-2.43006
0
LINE
8
BLACK
6
CONTINUOUS
10
3.57619
20
-2.43006
11
3.57579
21
-2.43027
0
LINE
8
BLACK
6
CONTINUOUS
10
3.57579
20
-2.43027
11
3.57579
21
-2.4311
0
LINE
8
BLACK
6
CONTINUOUS
10
3.57579
20
-2.4311
11
3.59121
21
-2.4311
0
LINE
8
BLACK
6
CONTINUOUS
10
3.59121
20
-2.4311
11
3.58917
21
-2.43006
0
LINE
8
BLACK
6
CONTINUOUS
10
3.58917
20
-2.43006
11
3.58568
21
-2.42658
0
LINE
8
BLACK
6
CONTINUOUS
10
3.58568
20
-2.42658
11
3.58348
21
-2.42224
0
LINE
8
BLACK
6
CONTINUOUS
10
3.58348
20
-2.42224
11
3.58188
21
-2.42224
0
LINE
8
BLACK
6
CONTINUOUS
10
3.70087
20
-1.88979
11
3.70258
21
-1.88994
0
LINE
8
BLACK
6
CONTINUOUS
10
3.70258
20
-1.88994
11
3.70763
21
-1.89044
0
LINE
8
BLACK
6
CONTINUOUS
10
3.70763
20
-1.89044
11
3.70826
21
-1.89055
0
LINE
8
BLACK
6
CONTINUOUS
10
3.70826
20
-1.89055
11
3.71093
21
-1.89127
0
LINE
8
BLACK
6
CONTINUOUS
10
3.71093
20
-1.89127
11
3.71099
21
-1.89128
0
LINE
8
BLACK
6
CONTINUOUS
10
3.71099
20
-1.89128
11
3.7147
21
-1.89241
0
LINE
8
BLACK
6
CONTINUOUS
10
3.7147
20
-1.89241
11
3.71521
21
-1.89261
0
LINE
8
BLACK
6
CONTINUOUS
10
3.71521
20
-1.89261
11
3.71794
21
-1.89388
0
LINE
8
BLACK
6
CONTINUOUS
10
3.71794
20
-1.89388
11
3.71803
21
-1.89393
0
LINE
8
BLACK
6
CONTINUOUS
10
3.71803
20
-1.89393
11
3.72138
21
-1.89571
0
LINE
8
BLACK
6
CONTINUOUS
10
3.72138
20
-1.89571
11
3.72158
21
-1.89584
0
LINE
8
BLACK
6
CONTINUOUS
10
3.72158
20
-1.89584
11
3.72422
21
-1.89769
0
LINE
8
BLACK
6
CONTINUOUS
10
3.72422
20
-1.89769
11
3.72434
21
-1.89778
0
LINE
8
BLACK
6
CONTINUOUS
10
3.72434
20
-1.89778
11
3.7257
21
-1.8989
0
LINE
8
BLACK
6
CONTINUOUS
10
3.7257
20
-1.8989
11
3.72722
21
-1.90014
0
LINE
8
BLACK
6
CONTINUOUS
10
3.72722
20
-1.90014
11
3.72736
21
-1.90027
0
LINE
8
BLACK
6
CONTINUOUS
10
3.72736
20
-1.90027
11
3.72966
21
-1.90256
0
LINE
8
BLACK
6
CONTINUOUS
10
3.72966
20
-1.90256
11
3.72978
21
-1.90271
0
LINE
8
BLACK
6
CONTINUOUS
10
3.72978
20
-1.90271
11
3.73214
21
-1.90558
0
LINE
8
BLACK
6
CONTINUOUS
10
3.73214
20
-1.90558
11
3.73223
21
-1.9057
0
LINE
8
BLACK
6
CONTINUOUS
10
3.73223
20
-1.9057
11
3.73409
21
-1.90834
0
LINE
8
BLACK
6
CONTINUOUS
10
3.73409
20
-1.90834
11
3.73421
21
-1.90854
0
LINE
8
BLACK
6
CONTINUOUS
10
3.73421
20
-1.90854
11
3.73599
21
-1.91189
0
LINE
8
BLACK
6
CONTINUOUS
10
3.73599
20
-1.91189
11
3.73604
21
-1.91198
0
LINE
8
BLACK
6
CONTINUOUS
10
3.73604
20
-1.91198
11
3.73731
21
-1.91471
0
LINE
8
BLACK
6
CONTINUOUS
10
3.73731
20
-1.91471
11
3.73751
21
-1.91523
0
LINE
8
BLACK
6
CONTINUOUS
10
3.73751
20
-1.91523
11
3.73864
21
-1.91893
0
LINE
8
BLACK
6
CONTINUOUS
10
3.73864
20
-1.91893
11
3.73865
21
-1.91899
0
LINE
8
BLACK
6
CONTINUOUS
10
3.73865
20
-1.91899
11
3.73937
21
-1.92166
0
LINE
8
BLACK
6
CONTINUOUS
10
3.73937
20
-1.92166
11
3.73948
21
-1.92229
0
LINE
8
BLACK
6
CONTINUOUS
10
3.73948
20
-1.92229
11
3.73998
21
-1.92734
0
LINE
8
BLACK
6
CONTINUOUS
10
3.73998
20
-1.92734
11
3.74013
21
-1.92905
0
LINE
8
BLACK
6
CONTINUOUS
10
3.74013
20
-1.92905
11
3.74014
21
-1.92922
0
LINE
8
BLACK
6
CONTINUOUS
10
3.74014
20
-1.92922
11
3.74014
21
-2.79519
0
LINE
8
BLACK
6
CONTINUOUS
10
3.74014
20
-2.79519
11
3.74013
21
-2.79536
0
LINE
8
BLACK
6
CONTINUOUS
10
3.74013
20
-2.79536
11
3.73998
21
-2.79707
0
LINE
8
BLACK
6
CONTINUOUS
10
3.73998
20
-2.79707
11
3.73973
21
-2.79962
0
LINE
8
BLACK
6
CONTINUOUS
10
3.73973
20
-2.79962
11
3.73876
21
-2.80183
0
LINE
8
BLACK
6
CONTINUOUS
10
3.73876
20
-2.80183
11
3.73669
21
-2.80304
0
LINE
8
BLACK
6
CONTINUOUS
10
3.73669
20
-2.80304
11
3.73429
21
-2.80281
0
LINE
8
BLACK
6
CONTINUOUS
10
3.73429
20
-2.80281
11
3.73309
21
-2.80199
0
LINE
8
BLACK
6
CONTINUOUS
10
3.73309
20
-2.80199
11
3.73228
21
-2.80118
0
LINE
8
BLACK
6
CONTINUOUS
10
3.73228
20
-2.80118
11
3.72047
21
-2.80118
0
LINE
8
BLACK
6
CONTINUOUS
10
3.72047
20
-2.80118
11
3.72047
21
-2.81496
0
LINE
8
BLACK
6
CONTINUOUS
10
3.72047
20
-2.81496
11
3.67224
21
-2.81496
0
LINE
8
BLACK
6
CONTINUOUS
10
3.67224
20
-2.81496
11
3.67224
21
-2.82677
0
LINE
8
BLACK
6
CONTINUOUS
10
3.67224
20
-2.82677
11
3.67224
21
-2.82677
0
LINE
8
BLACK
6
CONTINUOUS
10
3.67224
20
-2.82677
11
3.70129
21
-2.82677
0
LINE
8
BLACK
6
CONTINUOUS
10
3.70129
20
-2.82677
11
3.70358
21
-2.82752
0
LINE
8
BLACK
6
CONTINUOUS
10
3.70358
20
-2.82752
11
3.705
21
-2.82946
0
LINE
8
BLACK
6
CONTINUOUS
10
3.705
20
-2.82946
11
3.705
21
-2.83187
0
LINE
8
BLACK
6
CONTINUOUS
10
3.705
20
-2.83187
11
3.70358
21
-2.83382
0
LINE
8
BLACK
6
CONTINUOUS
10
3.70358
20
-2.83382
11
3.70163
21
-2.83455
0
LINE
8
BLACK
6
CONTINUOUS
10
3.70163
20
-2.83455
11
3.70087
21
-2.83462
0
LINE
8
BLACK
6
CONTINUOUS
10
3.70087
20
-2.83462
11
3.7007
21
-2.83463
0
LINE
8
BLACK
6
CONTINUOUS
10
3.7007
20
-2.83463
11
3.50772
21
-2.83463
0
LINE
8
BLACK
6
CONTINUOUS
10
3.50772
20
-2.83463
11
3.50543
21
-2.83388
0
LINE
8
BLACK
6
CONTINUOUS
10
3.50543
20
-2.83388
11
3.50401
21
-2.83193
0
LINE
8
BLACK
6
CONTINUOUS
10
3.50401
20
-2.83193
11
3.50401
21
-2.82952
0
LINE
8
BLACK
6
CONTINUOUS
10
3.50401
20
-2.82952
11
3.50496
21
-2.82797
0
LINE
8
BLACK
6
CONTINUOUS
10
3.50496
20
-2.82797
11
3.50505
21
-2.82789
0
LINE
8
BLACK
6
CONTINUOUS
10
3.50505
20
-2.82789
11
3.50505
21
-2.82789
0
LINE
8
BLACK
6
CONTINUOUS
10
3.50505
20
-2.82789
11
3.50884
21
-2.82295
0
LINE
8
BLACK
6
CONTINUOUS
10
3.50884
20
-2.82295
11
3.51122
21
-2.8172
0
LINE
8
BLACK
6
CONTINUOUS
10
3.51122
20
-2.8172
11
3.51203
21
-2.81102
0
LINE
8
BLACK
6
CONTINUOUS
10
3.51203
20
-2.81102
11
3.51122
21
-2.80485
0
LINE
8
BLACK
6
CONTINUOUS
10
3.51122
20
-2.80485
11
3.51122
21
-2.80485
0
LINE
8
BLACK
6
CONTINUOUS
10
3.51122
20
-2.80485
11
3.5097
21
-2.80118
0
LINE
8
BLACK
6
CONTINUOUS
10
3.5097
20
-2.80118
11
3.50884
21
-2.7991
0
LINE
8
BLACK
6
CONTINUOUS
10
3.50884
20
-2.7991
11
3.50884
21
-2.7991
0
LINE
8
BLACK
6
CONTINUOUS
10
3.50884
20
-2.7991
11
3.50884
21
-2.7991
0
LINE
8
BLACK
6
CONTINUOUS
10
3.50884
20
-2.7991
11
3.50773
21
-2.79765
0
LINE
8
BLACK
6
CONTINUOUS
10
3.50773
20
-2.79765
11
3.50692
21
-2.79538
0
LINE
8
BLACK
6
CONTINUOUS
10
3.50692
20
-2.79538
11
3.50761
21
-2.79307
0
LINE
8
BLACK
6
CONTINUOUS
10
3.50761
20
-2.79307
11
3.50773
21
-2.7929
0
LINE
8
BLACK
6
CONTINUOUS
10
3.50773
20
-2.7929
11
3.50773
21
-2.7929
0
LINE
8
BLACK
6
CONTINUOUS
10
3.50773
20
-2.7929
11
3.50884
21
-2.79145
0
LINE
8
BLACK
6
CONTINUOUS
10
3.50884
20
-2.79145
11
3.5097
21
-2.78937
0
LINE
8
BLACK
6
CONTINUOUS
10
3.5097
20
-2.78937
11
3.51122
21
-2.7857
0
LINE
8
BLACK
6
CONTINUOUS
10
3.51122
20
-2.7857
11
3.51203
21
-2.77953
0
LINE
8
BLACK
6
CONTINUOUS
10
3.51203
20
-2.77953
11
3.51122
21
-2.77336
0
LINE
8
BLACK
6
CONTINUOUS
10
3.51122
20
-2.77336
11
3.50884
21
-2.7676
0
LINE
8
BLACK
6
CONTINUOUS
10
3.50884
20
-2.7676
11
3.50884
21
-2.7676
0
LINE
8
BLACK
6
CONTINUOUS
10
3.50884
20
-2.7676
11
3.50505
21
-2.76267
0
LINE
8
BLACK
6
CONTINUOUS
10
3.50505
20
-2.76267
11
3.50505
21
-2.76267
0
LINE
8
BLACK
6
CONTINUOUS
10
3.50505
20
-2.76267
11
3.50505
21
-2.76267
0
LINE
8
BLACK
6
CONTINUOUS
10
3.50505
20
-2.76267
11
3.50505
21
-2.76267
0
LINE
8
BLACK
6
CONTINUOUS
10
3.50505
20
-2.76267
11
3.50505
21
-2.76267
0
LINE
8
BLACK
6
CONTINUOUS
10
3.50505
20
-2.76267
11
3.50011
21
-2.75888
0
LINE
8
BLACK
6
CONTINUOUS
10
3.50011
20
-2.75888
11
3.49436
21
-2.75649
0
LINE
8
BLACK
6
CONTINUOUS
10
3.49436
20
-2.75649
11
3.49436
21
-2.75649
0
LINE
8
BLACK
6
CONTINUOUS
10
3.49436
20
-2.75649
11
3.48819
21
-2.75568
0
LINE
8
BLACK
6
CONTINUOUS
10
3.48819
20
-2.75568
11
3.48819
21
-2.75568
0
LINE
8
BLACK
6
CONTINUOUS
10
3.48819
20
-2.75568
11
3.48202
21
-2.75649
0
LINE
8
BLACK
6
CONTINUOUS
10
3.48202
20
-2.75649
11
3.48202
21
-2.75649
0
LINE
8
BLACK
6
CONTINUOUS
10
3.48202
20
-2.75649
11
3.47627
21
-2.75888
0
LINE
8
BLACK
6
CONTINUOUS
10
3.47627
20
-2.75888
11
3.47627
21
-2.75888
0
LINE
8
BLACK
6
CONTINUOUS
10
3.47627
20
-2.75888
11
3.47133
21
-2.76267
0
LINE
8
BLACK
6
CONTINUOUS
10
3.47133
20
-2.76267
11
3.47133
21
-2.76267
0
LINE
8
BLACK
6
CONTINUOUS
10
3.47133
20
-2.76267
11
3.47039
21
-2.76389
0
LINE
8
BLACK
6
CONTINUOUS
10
3.47039
20
-2.76389
11
3.4694
21
-2.76517
0
LINE
8
BLACK
6
CONTINUOUS
10
3.4694
20
-2.76517
11
3.46939
21
-2.76519
0
LINE
8
BLACK
6
CONTINUOUS
10
3.46939
20
-2.76519
11
3.46741
21
-2.76655
0
LINE
8
BLACK
6
CONTINUOUS
10
3.46741
20
-2.76655
11
3.4663
21
-2.76671
0
LINE
8
BLACK
6
CONTINUOUS
10
3.4663
20
-2.76671
11
3.37228
21
-2.76671
0
LINE
8
BLACK
6
CONTINUOUS
10
3.37228
20
-2.76671
11
3.36999
21
-2.76597
0
LINE
8
BLACK
6
CONTINUOUS
10
3.36999
20
-2.76597
11
3.36919
21
-2.76519
0
LINE
8
BLACK
6
CONTINUOUS
10
3.36919
20
-2.76519
11
3.36918
21
-2.76517
0
LINE
8
BLACK
6
CONTINUOUS
10
3.36918
20
-2.76517
11
3.36726
21
-2.76267
0
LINE
8
BLACK
6
CONTINUOUS
10
3.36726
20
-2.76267
11
3.36726
21
-2.76267
0
LINE
8
BLACK
6
CONTINUOUS
10
3.36726
20
-2.76267
11
3.36725
21
-2.76267
0
LINE
8
BLACK
6
CONTINUOUS
10
3.36725
20
-2.76267
11
3.36232
21
-2.75888
0
LINE
8
BLACK
6
CONTINUOUS
10
3.36232
20
-2.75888
11
3.35657
21
-2.75649
0
LINE
8
BLACK
6
CONTINUOUS
10
3.35657
20
-2.75649
11
3.35657
21
-2.75649
0
LINE
8
BLACK
6
CONTINUOUS
10
3.35657
20
-2.75649
11
3.35039
21
-2.75568
0
LINE
8
BLACK
6
CONTINUOUS
10
3.35039
20
-2.75568
11
3.35039
21
-2.75568
0
LINE
8
BLACK
6
CONTINUOUS
10
3.35039
20
-2.75568
11
3.34422
21
-2.75649
0
LINE
8
BLACK
6
CONTINUOUS
10
3.34422
20
-2.75649
11
3.34422
21
-2.75649
0
LINE
8
BLACK
6
CONTINUOUS
10
3.34422
20
-2.75649
11
3.33847
21
-2.75888
0
LINE
8
BLACK
6
CONTINUOUS
10
3.33847
20
-2.75888
11
3.33847
21
-2.75888
0
LINE
8
BLACK
6
CONTINUOUS
10
3.33847
20
-2.75888
11
3.33353
21
-2.76267
0
LINE
8
BLACK
6
CONTINUOUS
10
3.33353
20
-2.76267
11
3.33353
21
-2.76267
0
LINE
8
BLACK
6
CONTINUOUS
10
3.33353
20
-2.76267
11
3.32974
21
-2.7676
0
LINE
8
BLACK
6
CONTINUOUS
10
3.32974
20
-2.7676
11
3.32974
21
-2.7676
0
LINE
8
BLACK
6
CONTINUOUS
10
3.32974
20
-2.7676
11
3.32736
21
-2.77336
0
LINE
8
BLACK
6
CONTINUOUS
10
3.32736
20
-2.77336
11
3.32736
21
-2.77336
0
LINE
8
BLACK
6
CONTINUOUS
10
3.32736
20
-2.77336
11
3.32725
21
-2.77416
0
LINE
8
BLACK
6
CONTINUOUS
10
3.32725
20
-2.77416
11
3.32655
21
-2.77953
0
LINE
8
BLACK
6
CONTINUOUS
10
3.32655
20
-2.77953
11
3.32736
21
-2.7857
0
LINE
8
BLACK
6
CONTINUOUS
10
3.32736
20
-2.7857
11
3.32974
21
-2.79145
0
LINE
8
BLACK
6
CONTINUOUS
10
3.32974
20
-2.79145
11
3.33086
21
-2.7929
0
LINE
8
BLACK
6
CONTINUOUS
10
3.33086
20
-2.7929
11
3.33166
21
-2.79517
0
LINE
8
BLACK
6
CONTINUOUS
10
3.33166
20
-2.79517
11
3.33098
21
-2.79748
0
LINE
8
BLACK
6
CONTINUOUS
10
3.33098
20
-2.79748
11
3.33086
21
-2.79765
0
LINE
8
BLACK
6
CONTINUOUS
10
3.33086
20
-2.79765
11
3.32974
21
-2.7991
0
LINE
8
BLACK
6
CONTINUOUS
10
3.32974
20
-2.7991
11
3.32974
21
-2.7991
0
LINE
8
BLACK
6
CONTINUOUS
10
3.32974
20
-2.7991
11
3.32736
21
-2.80485
0
LINE
8
BLACK
6
CONTINUOUS
10
3.32736
20
-2.80485
11
3.32736
21
-2.80485
0
LINE
8
BLACK
6
CONTINUOUS
10
3.32736
20
-2.80485
11
3.32655
21
-2.81102
0
LINE
8
BLACK
6
CONTINUOUS
10
3.32655
20
-2.81102
11
3.32655
21
-2.81102
0
LINE
8
BLACK
6
CONTINUOUS
10
3.32655
20
-2.81102
11
3.32736
21
-2.8172
0
LINE
8
BLACK
6
CONTINUOUS
10
3.32736
20
-2.8172
11
3.32736
21
-2.8172
0
LINE
8
BLACK
6
CONTINUOUS
10
3.32736
20
-2.8172
11
3.32974
21
-2.82295
0
LINE
8
BLACK
6
CONTINUOUS
10
3.32974
20
-2.82295
11
3.32974
21
-2.82295
0
LINE
8
BLACK
6
CONTINUOUS
10
3.32974
20
-2.82295
11
3.33353
21
-2.82788
0
LINE
8
BLACK
6
CONTINUOUS
10
3.33353
20
-2.82788
11
3.33353
21
-2.82789
0
LINE
8
BLACK
6
CONTINUOUS
10
3.33353
20
-2.82789
11
3.33353
21
-2.82789
0
LINE
8
BLACK
6
CONTINUOUS
10
3.33353
20
-2.82789
11
3.33362
21
-2.82797
0
LINE
8
BLACK
6
CONTINUOUS
10
3.33362
20
-2.82797
11
3.33366
21
-2.82805
0
LINE
8
BLACK
6
CONTINUOUS
10
3.33366
20
-2.82805
11
3.33369
21
-2.82809
0
LINE
8
BLACK
6
CONTINUOUS
10
3.33369
20
-2.82809
11
3.33368
21
-2.82809
0
LINE
8
BLACK
6
CONTINUOUS
10
3.33368
20
-2.82809
11
3.33471
21
-2.83012
0
LINE
8
BLACK
6
CONTINUOUS
10
3.33471
20
-2.83012
11
3.33434
21
-2.8325
0
LINE
8
BLACK
6
CONTINUOUS
10
3.33434
20
-2.8325
11
3.33263
21
-2.8342
0
LINE
8
BLACK
6
CONTINUOUS
10
3.33263
20
-2.8342
11
3.33086
21
-2.83463
0
LINE
8
BLACK
6
CONTINUOUS
10
3.33086
20
-2.83463
11
2.71662
21
-2.83463
0
LINE
8
BLACK
6
CONTINUOUS
10
2.71662
20
-2.83463
11
2.71645
21
-2.83462
0
LINE
8
BLACK
6
CONTINUOUS
10
2.71645
20
-2.83462
11
2.71475
21
-2.83447
0
LINE
8
BLACK
6
CONTINUOUS
10
2.71475
20
-2.83447
11
2.70969
21
-2.83397
0
LINE
8
BLACK
6
CONTINUOUS
10
2.70969
20
-2.83397
11
2.70907
21
-2.83386
0
LINE
8
BLACK
6
CONTINUOUS
10
2.70907
20
-2.83386
11
2.70761
21
-2.83347
0
LINE
8
BLACK
6
CONTINUOUS
10
2.70761
20
-2.83347
11
2.7064
21
-2.83314
0
LINE
8
BLACK
6
CONTINUOUS
10
2.7064
20
-2.83314
11
2.70633
21
-2.83312
0
LINE
8
BLACK
6
CONTINUOUS
10
2.70633
20
-2.83312
11
2.70263
21
-2.832
0
LINE
8
BLACK
6
CONTINUOUS
10
2.70263
20
-2.832
11
2.70211
21
-2.8318
0
LINE
8
BLACK
6
CONTINUOUS
10
2.70211
20
-2.8318
11
2.69938
21
-2.83053
0
LINE
8
BLACK
6
CONTINUOUS
10
2.69938
20
-2.83053
11
2.69929
21
-2.83048
0
LINE
8
BLACK
6
CONTINUOUS
10
2.69929
20
-2.83048
11
2.69595
21
-2.8287
0
LINE
8
BLACK
6
CONTINUOUS
10
2.69595
20
-2.8287
11
2.69575
21
-2.82857
0
LINE
8
BLACK
6
CONTINUOUS
10
2.69575
20
-2.82857
11
2.6931
21
-2.82672
0
LINE
8
BLACK
6
CONTINUOUS
10
2.6931
20
-2.82672
11
2.69298
21
-2.82663
0
LINE
8
BLACK
6
CONTINUOUS
10
2.69298
20
-2.82663
11
2.69011
21
-2.82427
0
LINE
8
BLACK
6
CONTINUOUS
10
2.69011
20
-2.82427
11
2.68997
21
-2.82414
0
LINE
8
BLACK
6
CONTINUOUS
10
2.68997
20
-2.82414
11
2.68767
21
-2.82185
0
LINE
8
BLACK
6
CONTINUOUS
10
2.68767
20
-2.82185
11
2.68754
21
-2.8217
0
LINE
8
BLACK
6
CONTINUOUS
10
2.68754
20
-2.8217
11
2.68518
21
-2.81883
0
LINE
8
BLACK
6
CONTINUOUS
10
2.68518
20
-2.81883
11
2.68509
21
-2.81871
0
LINE
8
BLACK
6
CONTINUOUS
10
2.68509
20
-2.81871
11
2.68403
21
-2.8172
0
LINE
8
BLACK
6
CONTINUOUS
10
2.68403
20
-2.8172
11
2.68324
21
-2.81606
0
LINE
8
BLACK
6
CONTINUOUS
10
2.68324
20
-2.81606
11
2.68311
21
-2.81587
0
LINE
8
BLACK
6
CONTINUOUS
10
2.68311
20
-2.81587
11
2.68133
21
-2.81252
0
LINE
8
BLACK
6
CONTINUOUS
10
2.68133
20
-2.81252
11
2.68128
21
-2.81243
0
LINE
8
BLACK
6
CONTINUOUS
10
2.68128
20
-2.81243
11
2.68001
21
-2.8097
0
LINE
8
BLACK
6
CONTINUOUS
10
2.68001
20
-2.8097
11
2.67981
21
-2.80918
0
LINE
8
BLACK
6
CONTINUOUS
10
2.67981
20
-2.80918
11
2.67869
21
-2.80547
0
LINE
8
BLACK
6
CONTINUOUS
10
2.67869
20
-2.80547
11
2.67867
21
-2.80542
0
LINE
8
BLACK
6
CONTINUOUS
10
2.67867
20
-2.80542
11
2.67795
21
-2.80274
0
LINE
8
BLACK
6
CONTINUOUS
10
2.67795
20
-2.80274
11
2.67784
21
-2.80212
0
LINE
8
BLACK
6
CONTINUOUS
10
2.67784
20
-2.80212
11
2.67734
21
-2.79706
0
LINE
8
BLACK
6
CONTINUOUS
10
2.67734
20
-2.79706
11
2.67732
21
-2.79679
0
LINE
8
BLACK
6
CONTINUOUS
10
2.67732
20
-2.79679
11
2.67719
21
-2.79536
0
LINE
8
BLACK
6
CONTINUOUS
10
2.67719
20
-2.79536
11
2.67719
21
-2.79519
0
LINE
8
BLACK
6
CONTINUOUS
10
2.67719
20
-2.79519
11
2.67719
21
-2.75591
0
LINE
8
BLACK
6
CONTINUOUS
10
2.67719
20
-2.75591
11
2.67719
21
-2.69405
0
LINE
8
BLACK
6
CONTINUOUS
10
2.67719
20
-2.69405
11
2.67719
21
-2.3622
0
LINE
8
BLACK
6
CONTINUOUS
10
2.67719
20
-2.3622
11
2.67719
21
-1.9685
0
LINE
8
BLACK
6
CONTINUOUS
10
2.67719
20
-1.9685
11
2.67719
21
-1.92922
0
LINE
8
BLACK
6
CONTINUOUS
10
2.67719
20
-1.92922
11
2.67719
21
-1.92905
0
LINE
8
BLACK
6
CONTINUOUS
10
2.67719
20
-1.92905
11
2.67734
21
-1.92734
0
LINE
8
BLACK
6
CONTINUOUS
10
2.67734
20
-1.92734
11
2.67784
21
-1.92229
0
LINE
8
BLACK
6
CONTINUOUS
10
2.67784
20
-1.92229
11
2.67795
21
-1.92167
0
LINE
8
BLACK
6
CONTINUOUS
10
2.67795
20
-1.92167
11
2.67867
21
-1.91899
0
LINE
8
BLACK
6
CONTINUOUS
10
2.67867
20
-1.91899
11
2.67869
21
-1.91894
0
LINE
8
BLACK
6
CONTINUOUS
10
2.67869
20
-1.91894
11
2.67981
21
-1.91523
0
LINE
8
BLACK
6
CONTINUOUS
10
2.67981
20
-1.91523
11
2.68001
21
-1.91471
0
LINE
8
BLACK
6
CONTINUOUS
10
2.68001
20
-1.91471
11
2.68107
21
-1.91242
0
LINE
8
BLACK
6
CONTINUOUS
10
2.68107
20
-1.91242
11
2.68128
21
-1.91198
0
LINE
8
BLACK
6
CONTINUOUS
10
2.68128
20
-1.91198
11
2.68133
21
-1.91189
0
LINE
8
BLACK
6
CONTINUOUS
10
2.68133
20
-1.91189
11
2.68312
21
-1.90854
0
LINE
8
BLACK
6
CONTINUOUS
10
2.68312
20
-1.90854
11
2.68324
21
-1.90835
0
LINE
8
BLACK
6
CONTINUOUS
10
2.68324
20
-1.90835
11
2.68509
21
-1.9057
0
LINE
8
BLACK
6
CONTINUOUS
10
2.68509
20
-1.9057
11
2.68518
21
-1.90558
0
LINE
8
BLACK
6
CONTINUOUS
10
2.68518
20
-1.90558
11
2.68754
21
-1.9027
0
LINE
8
BLACK
6
CONTINUOUS
10
2.68754
20
-1.9027
11
2.68767
21
-1.90256
0
LINE
8
BLACK
6
CONTINUOUS
10
2.68767
20
-1.90256
11
2.68997
21
-1.90027
0
LINE
8
BLACK
6
CONTINUOUS
10
2.68997
20
-1.90027
11
2.69011
21
-1.90014
0
LINE
8
BLACK
6
CONTINUOUS
10
2.69011
20
-1.90014
11
2.69298
21
-1.89778
0
LINE
8
BLACK
6
CONTINUOUS
10
2.69298
20
-1.89778
11
2.6931
21
-1.89769
0
LINE
8
BLACK
6
CONTINUOUS
10
2.6931
20
-1.89769
11
2.69575
21
-1.89584
0
LINE
8
BLACK
6
CONTINUOUS
10
2.69575
20
-1.89584
11
2.69594
21
-1.89571
0
LINE
8
BLACK
6
CONTINUOUS
10
2.69594
20
-1.89571
11
2.69929
21
-1.89393
0
LINE
8
BLACK
6
CONTINUOUS
10
2.69929
20
-1.89393
11
2.69938
21
-1.89388
0
LINE
8
BLACK
6
CONTINUOUS
10
2.69938
20
-1.89388
11
2.70211
21
-1.89261
0
LINE
8
BLACK
6
CONTINUOUS
10
2.70211
20
-1.89261
11
2.70263
21
-1.89241
0
LINE
8
BLACK
6
CONTINUOUS
10
2.70263
20
-1.89241
11
2.70634
21
-1.89128
0
LINE
8
BLACK
6
CONTINUOUS
10
2.70634
20
-1.89128
11
2.70639
21
-1.89127
0
LINE
8
BLACK
6
CONTINUOUS
10
2.70639
20
-1.89127
11
2.70907
21
-1.89055
0
LINE
8
BLACK
6
CONTINUOUS
10
2.70907
20
-1.89055
11
2.70969
21
-1.89044
0
LINE
8
BLACK
6
CONTINUOUS
10
2.70969
20
-1.89044
11
2.71474
21
-1.88994
0
LINE
8
BLACK
6
CONTINUOUS
10
2.71474
20
-1.88994
11
2.71645
21
-1.88979
0
LINE
8
BLACK
6
CONTINUOUS
10
2.71645
20
-1.88979
11
2.71662
21
-1.88978
0
LINE
8
BLACK
6
CONTINUOUS
10
2.71662
20
-1.88978
11
3.7007
21
-1.88978
0
LINE
8
BLACK
6
CONTINUOUS
10
3.7007
20
-1.88978
11
3.70087
21
-1.88979
0
LINE
8
BLACK
6
CONTINUOUS
10
3.60039
20
-2.81672
11
3.60051
21
-2.81771
0
LINE
8
BLACK
6
CONTINUOUS
10
3.60051
20
-2.81771
11
3.60229
21
-2.82175
0
LINE
8
BLACK
6
CONTINUOUS
10
3.60229
20
-2.82175
11
3.60541
21
-2.82487
0
LINE
8
BLACK
6
CONTINUOUS
10
3.60541
20
-2.82487
11
3.60945
21
-2.82666
0
LINE
8
BLACK
6
CONTINUOUS
10
3.60945
20
-2.82666
11
3.61044
21
-2.82677
0
LINE
8
BLACK
6
CONTINUOUS
10
3.61044
20
-2.82677
11
3.66043
21
-2.82677
0
LINE
8
BLACK
6
CONTINUOUS
10
3.66043
20
-2.82677
11
3.66043
21
-2.82677
0
LINE
8
BLACK
6
CONTINUOUS
10
3.66043
20
-2.82677
11
3.66043
21
-2.81496
0
LINE
8
BLACK
6
CONTINUOUS
10
3.66043
20
-2.81496
11
3.6122
21
-2.81496
0
LINE
8
BLACK
6
CONTINUOUS
10
3.6122
20
-2.81496
11
3.6122
21
-2.80118
0
LINE
8
BLACK
6
CONTINUOUS
10
3.6122
20
-2.80118
11
3.60039
21
-2.80118
0
LINE
8
BLACK
6
CONTINUOUS
10
3.60039
20
-2.80118
11
3.60039
21
-2.81672
0
LINE
8
BLACK
6
CONTINUOUS
10
3.67224
20
-2.76378
11
3.67224
21
-2.77559
0
LINE
8
BLACK
6
CONTINUOUS
10
3.67224
20
-2.77559
11
3.72047
21
-2.77559
0
LINE
8
BLACK
6
CONTINUOUS
10
3.72047
20
-2.77559
11
3.72047
21
-2.78937
0
LINE
8
BLACK
6
CONTINUOUS
10
3.72047
20
-2.78937
11
3.73228
21
-2.78937
0
LINE
8
BLACK
6
CONTINUOUS
10
3.73228
20
-2.78937
11
3.73228
21
-2.78937
0
LINE
8
BLACK
6
CONTINUOUS
10
3.73228
20
-2.78937
11
3.73228
21
-2.77383
0
LINE
8
BLACK
6
CONTINUOUS
10
3.73228
20
-2.77383
11
3.73228
21
-2.77383
0
LINE
8
BLACK
6
CONTINUOUS
10
3.73228
20
-2.77383
11
3.73217
21
-2.77284
0
LINE
8
BLACK
6
CONTINUOUS
10
3.73217
20
-2.77284
11
3.73039
21
-2.7688
0
LINE
8
BLACK
6
CONTINUOUS
10
3.73039
20
-2.7688
11
3.72726
21
-2.76568
0
LINE
8
BLACK
6
CONTINUOUS
10
3.72726
20
-2.76568
11
3.72322
21
-2.76389
0
LINE
8
BLACK
6
CONTINUOUS
10
3.72322
20
-2.76389
11
3.72224
21
-2.76378
0
LINE
8
BLACK
6
CONTINUOUS
10
3.72224
20
-2.76378
11
3.67224
21
-2.76378
0
LINE
8
BLACK
6
CONTINUOUS
10
3.67224
20
-2.76378
11
3.67224
21
-2.76378
0
LINE
8
BLACK
6
CONTINUOUS
10
3.52362
20
-2.53937
11
3.48425
21
-2.53937
0
LINE
8
BLACK
6
CONTINUOUS
10
3.48425
20
-2.53937
11
3.48425
21
-2.51188
0
LINE
8
BLACK
6
CONTINUOUS
10
3.48425
20
-2.51188
11
3.47297
21
-2.52316
0
LINE
8
BLACK
6
CONTINUOUS
10
3.47297
20
-2.52316
11
3.47226
21
-2.52369
0
LINE
8
BLACK
6
CONTINUOUS
10
3.47226
20
-2.52369
11
3.47215
21
-2.52383
0
LINE
8
BLACK
6
CONTINUOUS
10
3.47215
20
-2.52383
11
3.47205
21
-2.52386
0
LINE
8
BLACK
6
CONTINUOUS
10
3.47205
20
-2.52386
11
3.47185
21
-2.524
0
LINE
8
BLACK
6
CONTINUOUS
10
3.47185
20
-2.524
11
3.47066
21
-2.52426
0
LINE
8
BLACK
6
CONTINUOUS
10
3.47066
20
-2.52426
11
3.46949
21
-2.52461
0
LINE
8
BLACK
6
CONTINUOUS
10
3.46949
20
-2.52461
11
3.43307
21
-2.52461
0
LINE
8
BLACK
6
CONTINUOUS
10
3.43307
20
-2.52461
11
3.4322
21
-2.52448
0
LINE
8
BLACK
6
CONTINUOUS
10
3.4322
20
-2.52448
11
3.43202
21
-2.52449
0
LINE
8
BLACK
6
CONTINUOUS
10
3.43202
20
-2.52449
11
3.43193
21
-2.52444
0
LINE
8
BLACK
6
CONTINUOUS
10
3.43193
20
-2.52444
11
3.43168
21
-2.52441
0
LINE
8
BLACK
6
CONTINUOUS
10
3.43168
20
-2.52441
11
3.43066
21
-2.52375
0
LINE
8
BLACK
6
CONTINUOUS
10
3.43066
20
-2.52375
11
3.42959
21
-2.52316
0
LINE
8
BLACK
6
CONTINUOUS
10
3.42959
20
-2.52316
11
3.42428
21
-2.51785
0
LINE
8
BLACK
6
CONTINUOUS
10
3.42428
20
-2.51785
11
3.42224
21
-2.51889
0
LINE
8
BLACK
6
CONTINUOUS
10
3.42224
20
-2.51889
11
3.42224
21
-2.56299
0
LINE
8
BLACK
6
CONTINUOUS
10
3.42224
20
-2.56299
11
3.42212
21
-2.56386
0
LINE
8
BLACK
6
CONTINUOUS
10
3.42212
20
-2.56386
11
3.42213
21
-2.56404
0
LINE
8
BLACK
6
CONTINUOUS
10
3.42213
20
-2.56404
11
3.42208
21
-2.56413
0
LINE
8
BLACK
6
CONTINUOUS
10
3.42208
20
-2.56413
11
3.42204
21
-2.56438
0
LINE
8
BLACK
6
CONTINUOUS
10
3.42204
20
-2.56438
11
3.42139
21
-2.5654
0
LINE
8
BLACK
6
CONTINUOUS
10
3.42139
20
-2.5654
11
3.4208
21
-2.56647
0
LINE
8
BLACK
6
CONTINUOUS
10
3.4208
20
-2.56647
11
3.3435
21
-2.64377
0
LINE
8
BLACK
6
CONTINUOUS
10
3.3435
20
-2.64377
11
3.3435
21
-2.69087
0
LINE
8
BLACK
6
CONTINUOUS
10
3.3435
20
-2.69087
11
3.36424
21
-2.71161
0
LINE
8
BLACK
6
CONTINUOUS
10
3.36424
20
-2.71161
11
3.36614
21
-2.71161
0
LINE
8
BLACK
6
CONTINUOUS
10
3.36614
20
-2.71161
11
3.36614
21
-2.69685
0
LINE
8
BLACK
6
CONTINUOUS
10
3.36614
20
-2.69685
11
3.47441
21
-2.69685
0
LINE
8
BLACK
6
CONTINUOUS
10
3.47441
20
-2.69685
11
3.47441
21
-2.73622
0
LINE
8
BLACK
6
CONTINUOUS
10
3.47441
20
-2.73622
11
3.36614
21
-2.73622
0
LINE
8
BLACK
6
CONTINUOUS
10
3.36614
20
-2.73622
11
3.36614
21
-2.72146
0
LINE
8
BLACK
6
CONTINUOUS
10
3.36614
20
-2.72146
11
3.3622
21
-2.72146
0
LINE
8
BLACK
6
CONTINUOUS
10
3.3622
20
-2.72146
11
3.36133
21
-2.72133
0
LINE
8
BLACK
6
CONTINUOUS
10
3.36133
20
-2.72133
11
3.36116
21
-2.72134
0
LINE
8
BLACK
6
CONTINUOUS
10
3.36116
20
-2.72134
11
3.36106
21
-2.72129
0
LINE
8
BLACK
6
CONTINUOUS
10
3.36106
20
-2.72129
11
3.36082
21
-2.72126
0
LINE
8
BLACK
6
CONTINUOUS
10
3.36082
20
-2.72126
11
3.35979
21
-2.7206
0
LINE
8
BLACK
6
CONTINUOUS
10
3.35979
20
-2.7206
11
3.35872
21
-2.72002
0
LINE
8
BLACK
6
CONTINUOUS
10
3.35872
20
-2.72002
11
3.3351
21
-2.69639
0
LINE
8
BLACK
6
CONTINUOUS
10
3.3351
20
-2.69639
11
3.33458
21
-2.69569
0
LINE
8
BLACK
6
CONTINUOUS
10
3.33458
20
-2.69569
11
3.33444
21
-2.69557
0
LINE
8
BLACK
6
CONTINUOUS
10
3.33444
20
-2.69557
11
3.33441
21
-2.69547
0
LINE
8
BLACK
6
CONTINUOUS
10
3.33441
20
-2.69547
11
3.33426
21
-2.69527
0
LINE
8
BLACK
6
CONTINUOUS
10
3.33426
20
-2.69527
11
3.334
21
-2.69408
0
LINE
8
BLACK
6
CONTINUOUS
10
3.334
20
-2.69408
11
3.33366
21
-2.69291
0
LINE
8
BLACK
6
CONTINUOUS
10
3.33366
20
-2.69291
11
3.33366
21
-2.64173
0
LINE
8
BLACK
6
CONTINUOUS
10
3.33366
20
-2.64173
11
3.33379
21
-2.64086
0
LINE
8
BLACK
6
CONTINUOUS
10
3.33379
20
-2.64086
11
3.33377
21
-2.64069
0
LINE
8
BLACK
6
CONTINUOUS
10
3.33377
20
-2.64069
11
3.33383
21
-2.64059
0
LINE
8
BLACK
6
CONTINUOUS
10
3.33383
20
-2.64059
11
3.33386
21
-2.64035
0
LINE
8
BLACK
6
CONTINUOUS
10
3.33386
20
-2.64035
11
3.33452
21
-2.63932
0
LINE
8
BLACK
6
CONTINUOUS
10
3.33452
20
-2.63932
11
3.3351
21
-2.63825
0
LINE
8
BLACK
6
CONTINUOUS
10
3.3351
20
-2.63825
11
3.4124
21
-2.56095
0
LINE
8
BLACK
6
CONTINUOUS
10
3.4124
20
-2.56095
11
3.4124
21
-2.51889
0
LINE
8
BLACK
6
CONTINUOUS
10
3.4124
20
-2.51889
11
3.40807
21
-2.51668
0
LINE
8
BLACK
6
CONTINUOUS
10
3.40807
20
-2.51668
11
3.40458
21
-2.51319
0
LINE
8
BLACK
6
CONTINUOUS
10
3.40458
20
-2.51319
11
3.40235
21
-2.5088
0
LINE
8
BLACK
6
CONTINUOUS
10
3.40235
20
-2.5088
11
3.40157
21
-2.50394
0
LINE
8
BLACK
6
CONTINUOUS
10
3.40157
20
-2.50394
11
3.40235
21
-2.49907
0
LINE
8
BLACK
6
CONTINUOUS
10
3.40235
20
-2.49907
11
3.40458
21
-2.49468
0
LINE
8
BLACK
6
CONTINUOUS
10
3.40458
20
-2.49468
11
3.40807
21
-2.4912
0
LINE
8
BLACK
6
CONTINUOUS
10
3.40807
20
-2.4912
11
3.41246
21
-2.48896
0
LINE
8
BLACK
6
CONTINUOUS
10
3.41246
20
-2.48896
11
3.41732
21
-2.48819
0
LINE
8
BLACK
6
CONTINUOUS
10
3.41732
20
-2.48819
11
3.42219
21
-2.48896
0
LINE
8
BLACK
6
CONTINUOUS
10
3.42219
20
-2.48896
11
3.42658
21
-2.4912
0
LINE
8
BLACK
6
CONTINUOUS
10
3.42658
20
-2.4912
11
3.43006
21
-2.49468
0
LINE
8
BLACK
6
CONTINUOUS
10
3.43006
20
-2.49468
11
3.4323
21
-2.49907
0
LINE
8
BLACK
6
CONTINUOUS
10
3.4323
20
-2.49907
11
3.43307
21
-2.50394
0
LINE
8
BLACK
6
CONTINUOUS
10
3.43307
20
-2.50394
11
3.4323
21
-2.5088
0
LINE
8
BLACK
6
CONTINUOUS
10
3.4323
20
-2.5088
11
3.43124
21
-2.51089
0
LINE
8
BLACK
6
CONTINUOUS
10
3.43124
20
-2.51089
11
3.43511
21
-2.51476
0
LINE
8
BLACK
6
CONTINUOUS
10
3.43511
20
-2.51476
11
3.46745
21
-2.51476
0
LINE
8
BLACK
6
CONTINUOUS
10
3.46745
20
-2.51476
11
3.48425
21
-2.49796
0
LINE
8
BLACK
6
CONTINUOUS
10
3.48425
20
-2.49796
11
3.48425
21
-2.4311
0
LINE
8
BLACK
6
CONTINUOUS
10
3.48425
20
-2.4311
11
3.52362
21
-2.4311
0
LINE
8
BLACK
6
CONTINUOUS
10
3.52362
20
-2.4311
11
3.52362
21
-2.53937
0
LINE
8
BLACK
6
CONTINUOUS
10
3.52362
20
-2.29331
11
3.48425
21
-2.29331
0
LINE
8
BLACK
6
CONTINUOUS
10
3.48425
20
-2.29331
11
3.48425
21
-2.24409
0
LINE
8
BLACK
6
CONTINUOUS
10
3.48425
20
-2.24409
11
3.47153
21
-2.24409
0
LINE
8
BLACK
6
CONTINUOUS
10
3.47153
20
-2.24409
11
3.46949
21
-2.24613
0
LINE
8
BLACK
6
CONTINUOUS
10
3.46949
20
-2.24613
11
3.46949
21
-2.41843
0
LINE
8
BLACK
6
CONTINUOUS
10
3.46949
20
-2.41843
11
3.50951
21
-2.37841
0
LINE
8
BLACK
6
CONTINUOUS
10
3.50951
20
-2.37841
11
3.51022
21
-2.37788
0
LINE
8
BLACK
6
CONTINUOUS
10
3.51022
20
-2.37788
11
3.51033
21
-2.37775
0
LINE
8
BLACK
6
CONTINUOUS
10
3.51033
20
-2.37775
11
3.51043
21
-2.37772
0
LINE
8
BLACK
6
CONTINUOUS
10
3.51043
20
-2.37772
11
3.51063
21
-2.37757
0
LINE
8
BLACK
6
CONTINUOUS
10
3.51063
20
-2.37757
11
3.51182
21
-2.37731
0
LINE
8
BLACK
6
CONTINUOUS
10
3.51182
20
-2.37731
11
3.51299
21
-2.37697
0
LINE
8
BLACK
6
CONTINUOUS
10
3.51299
20
-2.37697
11
3.65354
21
-2.37697
0
LINE
8
BLACK
6
CONTINUOUS
10
3.65354
20
-2.37697
11
3.65493
21
-2.37717
0
LINE
8
BLACK
6
CONTINUOUS
10
3.65493
20
-2.37717
11
3.65523
21
-2.37736
0
LINE
8
BLACK
6
CONTINUOUS
10
3.65523
20
-2.37736
11
3.65559
21
-2.37741
0
LINE
8
BLACK
6
CONTINUOUS
10
3.65559
20
-2.37741
11
3.65638
21
-2.3781
0
LINE
8
BLACK
6
CONTINUOUS
10
3.65638
20
-2.3781
11
3.65726
21
-2.37867
0
LINE
8
BLACK
6
CONTINUOUS
10
3.65726
20
-2.37867
11
3.65741
21
-2.37899
0
LINE
8
BLACK
6
CONTINUOUS
10
3.65741
20
-2.37899
11
3.65768
21
-2.37923
0
LINE
8
BLACK
6
CONTINUOUS
10
3.65768
20
-2.37923
11
3.65798
21
-2.38024
0
LINE
8
BLACK
6
CONTINUOUS
10
3.65798
20
-2.38024
11
3.65841
21
-2.38119
0
LINE
8
BLACK
6
CONTINUOUS
10
3.65841
20
-2.38119
11
3.65836
21
-2.38155
0
LINE
8
BLACK
6
CONTINUOUS
10
3.65836
20
-2.38155
11
3.65846
21
-2.38189
0
LINE
8
BLACK
6
CONTINUOUS
10
3.65846
20
-2.38189
11
3.65846
21
-2.69685
0
LINE
8
BLACK
6
CONTINUOUS
10
3.65846
20
-2.69685
11
3.72047
21
-2.69685
0
LINE
8
BLACK
6
CONTINUOUS
10
3.72047
20
-2.69685
11
3.72047
21
-2.73622
0
LINE
8
BLACK
6
CONTINUOUS
10
3.72047
20
-2.73622
11
3.6122
21
-2.73622
0
LINE
8
BLACK
6
CONTINUOUS
10
3.6122
20
-2.73622
11
3.6122
21
-2.69685
0
LINE
8
BLACK
6
CONTINUOUS
10
3.6122
20
-2.69685
11
3.64862
21
-2.69685
0
LINE
8
BLACK
6
CONTINUOUS
10
3.64862
20
-2.69685
11
3.64862
21
-2.38681
0
LINE
8
BLACK
6
CONTINUOUS
10
3.64862
20
-2.38681
11
3.51503
21
-2.38681
0
LINE
8
BLACK
6
CONTINUOUS
10
3.51503
20
-2.38681
11
3.47494
21
-2.4269
0
LINE
8
BLACK
6
CONTINUOUS
10
3.47494
20
-2.4269
11
3.476
21
-2.42899
0
LINE
8
BLACK
6
CONTINUOUS
10
3.476
20
-2.42899
11
3.47677
21
-2.43386
0
LINE
8
BLACK
6
CONTINUOUS
10
3.47677
20
-2.43386
11
3.476
21
-2.43872
0
LINE
8
BLACK
6
CONTINUOUS
10
3.476
20
-2.43872
11
3.47376
21
-2.44311
0
LINE
8
BLACK
6
CONTINUOUS
10
3.47376
20
-2.44311
11
3.47028
21
-2.4466
0
LINE
8
BLACK
6
CONTINUOUS
10
3.47028
20
-2.4466
11
3.46589
21
-2.44884
0
LINE
8
BLACK
6
CONTINUOUS
10
3.46589
20
-2.44884
11
3.46102
21
-2.44961
0
LINE
8
BLACK
6
CONTINUOUS
10
3.46102
20
-2.44961
11
3.45616
21
-2.44884
0
LINE
8
BLACK
6
CONTINUOUS
10
3.45616
20
-2.44884
11
3.45177
21
-2.4466
0
LINE
8
BLACK
6
CONTINUOUS
10
3.45177
20
-2.4466
11
3.44828
21
-2.44311
0
LINE
8
BLACK
6
CONTINUOUS
10
3.44828
20
-2.44311
11
3.44605
21
-2.43872
0
LINE
8
BLACK
6
CONTINUOUS
10
3.44605
20
-2.43872
11
3.44528
21
-2.43386
0
LINE
8
BLACK
6
CONTINUOUS
10
3.44528
20
-2.43386
11
3.44605
21
-2.42899
0
LINE
8
BLACK
6
CONTINUOUS
10
3.44605
20
-2.42899
11
3.44828
21
-2.4246
0
LINE
8
BLACK
6
CONTINUOUS
10
3.44828
20
-2.4246
11
3.45177
21
-2.42112
0
LINE
8
BLACK
6
CONTINUOUS
10
3.45177
20
-2.42112
11
3.45616
21
-2.41888
0
LINE
8
BLACK
6
CONTINUOUS
10
3.45616
20
-2.41888
11
3.45965
21
-2.41833
0
LINE
8
BLACK
6
CONTINUOUS
10
3.45965
20
-2.41833
11
3.45965
21
-2.24409
0
LINE
8
BLACK
6
CONTINUOUS
10
3.45965
20
-2.24409
11
3.45977
21
-2.24322
0
LINE
8
BLACK
6
CONTINUOUS
10
3.45977
20
-2.24322
11
3.45976
21
-2.24305
0
LINE
8
BLACK
6
CONTINUOUS
10
3.45976
20
-2.24305
11
3.45981
21
-2.24295
0
LINE
8
BLACK
6
CONTINUOUS
10
3.45981
20
-2.24295
11
3.45985
21
-2.24271
0
LINE
8
BLACK
6
CONTINUOUS
10
3.45985
20
-2.24271
11
3.4605
21
-2.24168
0
LINE
8
BLACK
6
CONTINUOUS
10
3.4605
20
-2.24168
11
3.46109
21
-2.24061
0
LINE
8
BLACK
6
CONTINUOUS
10
3.46109
20
-2.24061
11
3.46601
21
-2.23569
0
LINE
8
BLACK
6
CONTINUOUS
10
3.46601
20
-2.23569
11
3.46671
21
-2.23517
0
LINE
8
BLACK
6
CONTINUOUS
10
3.46671
20
-2.23517
11
3.46683
21
-2.23503
0
LINE
8
BLACK
6
CONTINUOUS
10
3.46683
20
-2.23503
11
3.46693
21
-2.235
0
LINE
8
BLACK
6
CONTINUOUS
10
3.46693
20
-2.235
11
3.46713
21
-2.23485
0
LINE
8
BLACK
6
CONTINUOUS
10
3.46713
20
-2.23485
11
3.46832
21
-2.23459
0
LINE
8
BLACK
6
CONTINUOUS
10
3.46832
20
-2.23459
11
3.46949
21
-2.23425
0
LINE
8
BLACK
6
CONTINUOUS
10
3.46949
20
-2.23425
11
3.48425
21
-2.23425
0
LINE
8
BLACK
6
CONTINUOUS
10
3.48425
20
-2.23425
11
3.48425
21
-2.18504
0
LINE
8
BLACK
6
CONTINUOUS
10
3.48425
20
-2.18504
11
3.52362
21
-2.18504
0
LINE
8
BLACK
6
CONTINUOUS
10
3.52362
20
-2.18504
11
3.52362
21
-2.29331
0
LINE
8
BLACK
6
CONTINUOUS
10
3.60329
20
-2.40235
11
3.60768
21
-2.40458
0
LINE
8
BLACK
6
CONTINUOUS
10
3.60768
20
-2.40458
11
3.61117
21
-2.40807
0
LINE
8
BLACK
6
CONTINUOUS
10
3.61117
20
-2.40807
11
3.6134
21
-2.41246
0
LINE
8
BLACK
6
CONTINUOUS
10
3.6134
20
-2.41246
11
3.61417
21
-2.41732
0
LINE
8
BLACK
6
CONTINUOUS
10
3.61417
20
-2.41732
11
3.6134
21
-2.42219
0
LINE
8
BLACK
6
CONTINUOUS
10
3.6134
20
-2.42219
11
3.61117
21
-2.42658
0
LINE
8
BLACK
6
CONTINUOUS
10
3.61117
20
-2.42658
11
3.60768
21
-2.43006
0
LINE
8
BLACK
6
CONTINUOUS
10
3.60768
20
-2.43006
11
3.60335
21
-2.43227
0
LINE
8
BLACK
6
CONTINUOUS
10
3.60335
20
-2.43227
11
3.60335
21
-2.54017
0
LINE
8
BLACK
6
CONTINUOUS
10
3.60335
20
-2.54017
11
3.60768
21
-2.54238
0
LINE
8
BLACK
6
CONTINUOUS
10
3.60768
20
-2.54238
11
3.61117
21
-2.54586
0
LINE
8
BLACK
6
CONTINUOUS
10
3.61117
20
-2.54586
11
3.6134
21
-2.55025
0
LINE
8
BLACK
6
CONTINUOUS
10
3.6134
20
-2.55025
11
3.61417
21
-2.55512
0
LINE
8
BLACK
6
CONTINUOUS
10
3.61417
20
-2.55512
11
3.6134
21
-2.55998
0
LINE
8
BLACK
6
CONTINUOUS
10
3.6134
20
-2.55998
11
3.61117
21
-2.56437
0
LINE
8
BLACK
6
CONTINUOUS
10
3.61117
20
-2.56437
11
3.60768
21
-2.56786
0
LINE
8
BLACK
6
CONTINUOUS
10
3.60768
20
-2.56786
11
3.60329
21
-2.5701
0
LINE
8
BLACK
6
CONTINUOUS
10
3.60329
20
-2.5701
11
3.59843
21
-2.57087
0
LINE
8
BLACK
6
CONTINUOUS
10
3.59843
20
-2.57087
11
3.59356
21
-2.5701
0
LINE
8
BLACK
6
CONTINUOUS
10
3.59356
20
-2.5701
11
3.58917
21
-2.56786
0
LINE
8
BLACK
6
CONTINUOUS
10
3.58917
20
-2.56786
11
3.58568
21
-2.56437
0
LINE
8
BLACK
6
CONTINUOUS
10
3.58568
20
-2.56437
11
3.58465
21
-2.56234
0
LINE
8
BLACK
6
CONTINUOUS
10
3.58465
20
-2.56234
11
3.58361
21
-2.56437
0
LINE
8
BLACK
6
CONTINUOUS
10
3.58361
20
-2.56437
11
3.58012
21
-2.56786
0
LINE
8
BLACK
6
CONTINUOUS
10
3.58012
20
-2.56786
11
3.57573
21
-2.5701
0
LINE
8
BLACK
6
CONTINUOUS
10
3.57573
20
-2.5701
11
3.57087
21
-2.57087
0
LINE
8
BLACK
6
CONTINUOUS
10
3.57087
20
-2.57087
11
3.566
21
-2.5701
0
LINE
8
BLACK
6
CONTINUOUS
10
3.566
20
-2.5701
11
3.56161
21
-2.56786
0
LINE
8
BLACK
6
CONTINUOUS
10
3.56161
20
-2.56786
11
3.55813
21
-2.56437
0
LINE
8
BLACK
6
CONTINUOUS
10
3.55813
20
-2.56437
11
3.55589
21
-2.55998
0
LINE
8
BLACK
6
CONTINUOUS
10
3.55589
20
-2.55998
11
3.55512
21
-2.55512
0
LINE
8
BLACK
6
CONTINUOUS
10
3.55512
20
-2.55512
11
3.55589
21
-2.55025
0
LINE
8
BLACK
6
CONTINUOUS
10
3.55589
20
-2.55025
11
3.55813
21
-2.54586
0
LINE
8
BLACK
6
CONTINUOUS
10
3.55813
20
-2.54586
11
3.56161
21
-2.54238
0
LINE
8
BLACK
6
CONTINUOUS
10
3.56161
20
-2.54238
11
3.56594
21
-2.54017
0
LINE
8
BLACK
6
CONTINUOUS
10
3.56594
20
-2.54017
11
3.56594
21
-2.53937
0
LINE
8
BLACK
6
CONTINUOUS
10
3.56594
20
-2.53937
11
3.56299
21
-2.53937
0
LINE
8
BLACK
6
CONTINUOUS
10
3.56299
20
-2.53937
11
3.56299
21
-2.43245
0
LINE
8
BLACK
6
CONTINUOUS
10
3.56299
20
-2.43245
11
3.56206
21
-2.4323
0
LINE
8
BLACK
6
CONTINUOUS
10
3.56206
20
-2.4323
11
3.55767
21
-2.43006
0
LINE
8
BLACK
6
CONTINUOUS
10
3.55767
20
-2.43006
11
3.55419
21
-2.42658
0
LINE
8
BLACK
6
CONTINUOUS
10
3.55419
20
-2.42658
11
3.55195
21
-2.42219
0
LINE
8
BLACK
6
CONTINUOUS
10
3.55195
20
-2.42219
11
3.55118
21
-2.41732
0
LINE
8
BLACK
6
CONTINUOUS
10
3.55118
20
-2.41732
11
3.55195
21
-2.41246
0
LINE
8
BLACK
6
CONTINUOUS
10
3.55195
20
-2.41246
11
3.55419
21
-2.40807
0
LINE
8
BLACK
6
CONTINUOUS
10
3.55419
20
-2.40807
11
3.55767
21
-2.40458
0
LINE
8
BLACK
6
CONTINUOUS
10
3.55767
20
-2.40458
11
3.56206
21
-2.40235
0
LINE
8
BLACK
6
CONTINUOUS
10
3.56206
20
-2.40235
11
3.56693
21
-2.40157
0
LINE
8
BLACK
6
CONTINUOUS
10
3.56693
20
-2.40157
11
3.5718
21
-2.40235
0
LINE
8
BLACK
6
CONTINUOUS
10
3.5718
20
-2.40235
11
3.57619
21
-2.40458
0
LINE
8
BLACK
6
CONTINUOUS
10
3.57619
20
-2.40458
11
3.57967
21
-2.40807
0
LINE
8
BLACK
6
CONTINUOUS
10
3.57967
20
-2.40807
11
3.58188
21
-2.4124
0
LINE
8
BLACK
6
CONTINUOUS
10
3.58188
20
-2.4124
11
3.58348
21
-2.4124
0
LINE
8
BLACK
6
CONTINUOUS
10
3.58348
20
-2.4124
11
3.58568
21
-2.40807
0
LINE
8
BLACK
6
CONTINUOUS
10
3.58568
20
-2.40807
11
3.58917
21
-2.40458
0
LINE
8
BLACK
6
CONTINUOUS
10
3.58917
20
-2.40458
11
3.59356
21
-2.40235
0
LINE
8
BLACK
6
CONTINUOUS
10
3.59356
20
-2.40235
11
3.59843
21
-2.40157
0
LINE
8
BLACK
6
CONTINUOUS
10
3.59843
20
-2.40157
11
3.60329
21
-2.40235
0
LINE
8
BLACK
6
CONTINUOUS
10
3.55118
20
-2.29507
11
3.5513
21
-2.29606
0
LINE
8
BLACK
6
CONTINUOUS
10
3.5513
20
-2.29606
11
3.55308
21
-2.3001
0
LINE
8
BLACK
6
CONTINUOUS
10
3.55308
20
-2.3001
11
3.5562
21
-2.30322
0
LINE
8
BLACK
6
CONTINUOUS
10
3.5562
20
-2.30322
11
3.56024
21
-2.305
0
LINE
8
BLACK
6
CONTINUOUS
10
3.56024
20
-2.305
11
3.56123
21
-2.30512
0
LINE
8
BLACK
6
CONTINUOUS
10
3.56123
20
-2.30512
11
3.57677
21
-2.30512
0
LINE
8
BLACK
6
CONTINUOUS
10
3.57677
20
-2.30512
11
3.57677
21
-2.30512
0
LINE
8
BLACK
6
CONTINUOUS
10
3.57677
20
-2.30512
11
3.57677
21
-2.29331
0
LINE
8
BLACK
6
CONTINUOUS
10
3.57677
20
-2.29331
11
3.56299
21
-2.29331
0
LINE
8
BLACK
6
CONTINUOUS
10
3.56299
20
-2.29331
11
3.56299
21
-2.24508
0
LINE
8
BLACK
6
CONTINUOUS
10
3.56299
20
-2.24508
11
3.55118
21
-2.24508
0
LINE
8
BLACK
6
CONTINUOUS
10
3.55118
20
-2.24508
11
3.55118
21
-2.29507
0
LINE
8
BLACK
6
CONTINUOUS
10
3.58858
20
-2.18504
11
3.60236
21
-2.18504
0
LINE
8
BLACK
6
CONTINUOUS
10
3.60236
20
-2.18504
11
3.60236
21
-2.23327
0
LINE
8
BLACK
6
CONTINUOUS
10
3.60236
20
-2.23327
11
3.61417
21
-2.23327
0
LINE
8
BLACK
6
CONTINUOUS
10
3.61417
20
-2.23327
11
3.61417
21
-2.23327
0
LINE
8
BLACK
6
CONTINUOUS
10
3.61417
20
-2.23327
11
3.61417
21
-2.18328
0
LINE
8
BLACK
6
CONTINUOUS
10
3.61417
20
-2.18328
11
3.61417
21
-2.18328
0
LINE
8
BLACK
6
CONTINUOUS
10
3.61417
20
-2.18328
11
3.61406
21
-2.18229
0
LINE
8
BLACK
6
CONTINUOUS
10
3.61406
20
-2.18229
11
3.61228
21
-2.17825
0
LINE
8
BLACK
6
CONTINUOUS
10
3.61228
20
-2.17825
11
3.60915
21
-2.17513
0
LINE
8
BLACK
6
CONTINUOUS
10
3.60915
20
-2.17513
11
3.60511
21
-2.17334
0
LINE
8
BLACK
6
CONTINUOUS
10
3.60511
20
-2.17334
11
3.60413
21
-2.17323
0
LINE
8
BLACK
6
CONTINUOUS
10
3.60413
20
-2.17323
11
3.58858
21
-2.17323
0
LINE
8
BLACK
6
CONTINUOUS
10
3.58858
20
-2.17323
11
3.58858
21
-2.18504
0
LINE
8
BLACK
6
CONTINUOUS
10
3.53404
20
-1.91594
11
3.52505
21
-1.91835
0
LINE
8
BLACK
6
CONTINUOUS
10
3.52505
20
-1.91835
11
3.51662
21
-1.92228
0
LINE
8
BLACK
6
CONTINUOUS
10
3.51662
20
-1.92228
11
3.51662
21
-1.92228
0
LINE
8
BLACK
6
CONTINUOUS
10
3.51662
20
-1.92228
11
3.509
21
-1.92762
0
LINE
8
BLACK
6
CONTINUOUS
10
3.509
20
-1.92762
11
3.50242
21
-1.9342
0
LINE
8
BLACK
6
CONTINUOUS
10
3.50242
20
-1.9342
11
3.49709
21
-1.94182
0
LINE
8
BLACK
6
CONTINUOUS
10
3.49709
20
-1.94182
11
3.49315
21
-1.95025
0
LINE
8
BLACK
6
CONTINUOUS
10
3.49315
20
-1.95025
11
3.49075
21
-1.95924
0
LINE
8
BLACK
6
CONTINUOUS
10
3.49075
20
-1.95924
11
3.48993
21
-1.9685
0
LINE
8
BLACK
6
CONTINUOUS
10
3.48993
20
-1.9685
11
3.48993
21
-1.9685
0
LINE
8
BLACK
6
CONTINUOUS
10
3.48993
20
-1.9685
11
3.49075
21
-1.97777
0
LINE
8
BLACK
6
CONTINUOUS
10
3.49075
20
-1.97777
11
3.49315
21
-1.98676
0
LINE
8
BLACK
6
CONTINUOUS
10
3.49315
20
-1.98676
11
3.49708
21
-1.99519
0
LINE
8
BLACK
6
CONTINUOUS
10
3.49708
20
-1.99519
11
3.49709
21
-1.99519
0
LINE
8
BLACK
6
CONTINUOUS
10
3.49709
20
-1.99519
11
3.49709
21
-1.99519
0
LINE
8
BLACK
6
CONTINUOUS
10
3.49709
20
-1.99519
11
3.49709
21
-1.99519
0
LINE
8
BLACK
6
CONTINUOUS
10
3.49709
20
-1.99519
11
3.50242
21
-2.00281
0
LINE
8
BLACK
6
CONTINUOUS
10
3.50242
20
-2.00281
11
3.509
21
-2.00939
0
LINE
8
BLACK
6
CONTINUOUS
10
3.509
20
-2.00939
11
3.51662
21
-2.01473
0
LINE
8
BLACK
6
CONTINUOUS
10
3.51662
20
-2.01473
11
3.51662
21
-2.01473
0
LINE
8
BLACK
6
CONTINUOUS
10
3.51662
20
-2.01473
11
3.51662
21
-2.01473
0
LINE
8
BLACK
6
CONTINUOUS
10
3.51662
20
-2.01473
11
3.51662
21
-2.01473
0
LINE
8
BLACK
6
CONTINUOUS
10
3.51662
20
-2.01473
11
3.52505
21
-2.01866
0
LINE
8
BLACK
6
CONTINUOUS
10
3.52505
20
-2.01866
11
3.52505
21
-2.01866
0
LINE
8
BLACK
6
CONTINUOUS
10
3.52505
20
-2.01866
11
3.53404
21
-2.02107
0
LINE
8
BLACK
6
CONTINUOUS
10
3.53404
20
-2.02107
11
3.53404
21
-2.02107
0
LINE
8
BLACK
6
CONTINUOUS
10
3.53404
20
-2.02107
11
3.53404
21
-2.02107
0
LINE
8
BLACK
6
CONTINUOUS
10
3.53404
20
-2.02107
11
3.54099
21
-2.02167
0
LINE
8
BLACK
6
CONTINUOUS
10
3.54099
20
-2.02167
11
3.54099
21
-2.02167
0
LINE
8
BLACK
6
CONTINUOUS
10
3.54099
20
-2.02167
11
3.54563
21
-2.02167
0
LINE
8
BLACK
6
CONTINUOUS
10
3.54563
20
-2.02167
11
3.55257
21
-2.02107
0
LINE
8
BLACK
6
CONTINUOUS
10
3.55257
20
-2.02107
11
3.55257
21
-2.02107
0
LINE
8
BLACK
6
CONTINUOUS
10
3.55257
20
-2.02107
11
3.55258
21
-2.02107
0
LINE
8
BLACK
6
CONTINUOUS
10
3.55258
20
-2.02107
11
3.56156
21
-2.01866
0
LINE
8
BLACK
6
CONTINUOUS
10
3.56156
20
-2.01866
11
3.56999
21
-2.01473
0
LINE
8
BLACK
6
CONTINUOUS
10
3.56999
20
-2.01473
11
3.57761
21
-2.00939
0
LINE
8
BLACK
6
CONTINUOUS
10
3.57761
20
-2.00939
11
3.58419
21
-2.00281
0
LINE
8
BLACK
6
CONTINUOUS
10
3.58419
20
-2.00281
11
3.58953
21
-1.99519
0
LINE
8
BLACK
6
CONTINUOUS
10
3.58953
20
-1.99519
11
3.59346
21
-1.98676
0
LINE
8
BLACK
6
CONTINUOUS
10
3.59346
20
-1.98676
11
3.59587
21
-1.97777
0
LINE
8
BLACK
6
CONTINUOUS
10
3.59587
20
-1.97777
11
3.59668
21
-1.9685
0
LINE
8
BLACK
6
CONTINUOUS
10
3.59668
20
-1.9685
11
3.59587
21
-1.95924
0
LINE
8
BLACK
6
CONTINUOUS
10
3.59587
20
-1.95924
11
3.59346
21
-1.95025
0
LINE
8
BLACK
6
CONTINUOUS
10
3.59346
20
-1.95025
11
3.58953
21
-1.94182
0
LINE
8
BLACK
6
CONTINUOUS
10
3.58953
20
-1.94182
11
3.58419
21
-1.9342
0
LINE
8
BLACK
6
CONTINUOUS
10
3.58419
20
-1.9342
11
3.57761
21
-1.92762
0
LINE
8
BLACK
6
CONTINUOUS
10
3.57761
20
-1.92762
11
3.57761
21
-1.92762
0
LINE
8
BLACK
6
CONTINUOUS
10
3.57761
20
-1.92762
11
3.57761
21
-1.92762
0
LINE
8
BLACK
6
CONTINUOUS
10
3.57761
20
-1.92762
11
3.57001
21
-1.92229
0
LINE
8
BLACK
6
CONTINUOUS
10
3.57001
20
-1.92229
11
3.56999
21
-1.92228
0
LINE
8
BLACK
6
CONTINUOUS
10
3.56999
20
-1.92228
11
3.56999
21
-1.92228
0
LINE
8
BLACK
6
CONTINUOUS
10
3.56999
20
-1.92228
11
3.56999
21
-1.92228
0
LINE
8
BLACK
6
CONTINUOUS
10
3.56999
20
-1.92228
11
3.56999
21
-1.92228
0
LINE
8
BLACK
6
CONTINUOUS
10
3.56999
20
-1.92228
11
3.56156
21
-1.91835
0
LINE
8
BLACK
6
CONTINUOUS
10
3.56156
20
-1.91835
11
3.56156
21
-1.91835
0
LINE
8
BLACK
6
CONTINUOUS
10
3.56156
20
-1.91835
11
3.55857
21
-1.91755
0
LINE
8
BLACK
6
CONTINUOUS
10
3.55857
20
-1.91755
11
3.55258
21
-1.91594
0
LINE
8
BLACK
6
CONTINUOUS
10
3.55258
20
-1.91594
11
3.55258
21
-1.91594
0
LINE
8
BLACK
6
CONTINUOUS
10
3.55258
20
-1.91594
11
3.55257
21
-1.91594
0
LINE
8
BLACK
6
CONTINUOUS
10
3.55257
20
-1.91594
11
3.54563
21
-1.91533
0
LINE
8
BLACK
6
CONTINUOUS
10
3.54563
20
-1.91533
11
3.54563
21
-1.91533
0
LINE
8
BLACK
6
CONTINUOUS
10
3.54563
20
-1.91533
11
3.54099
21
-1.91533
0
LINE
8
BLACK
6
CONTINUOUS
10
3.54099
20
-1.91533
11
3.54099
21
-1.91533
0
LINE
8
BLACK
6
CONTINUOUS
10
3.54099
20
-1.91533
11
3.53404
21
-1.91594
0
LINE
8
BLACK
6
CONTINUOUS
10
3.60039
20
-2.78937
11
3.6122
21
-2.78937
0
LINE
8
BLACK
6
CONTINUOUS
10
3.6122
20
-2.78937
11
3.6122
21
-2.77559
0
LINE
8
BLACK
6
CONTINUOUS
10
3.6122
20
-2.77559
11
3.66043
21
-2.77559
0
LINE
8
BLACK
6
CONTINUOUS
10
3.66043
20
-2.77559
11
3.66043
21
-2.76378
0
LINE
8
BLACK
6
CONTINUOUS
10
3.66043
20
-2.76378
11
3.66043
21
-2.76378
0
LINE
8
BLACK
6
CONTINUOUS
10
3.66043
20
-2.76378
11
3.61044
21
-2.76378
0
LINE
8
BLACK
6
CONTINUOUS
10
3.61044
20
-2.76378
11
3.61044
21
-2.76378
0
LINE
8
BLACK
6
CONTINUOUS
10
3.61044
20
-2.76378
11
3.60945
21
-2.76389
0
LINE
8
BLACK
6
CONTINUOUS
10
3.60945
20
-2.76389
11
3.60541
21
-2.76568
0
LINE
8
BLACK
6
CONTINUOUS
10
3.60541
20
-2.76568
11
3.60229
21
-2.7688
0
LINE
8
BLACK
6
CONTINUOUS
10
3.60229
20
-2.7688
11
3.60051
21
-2.77284
0
LINE
8
BLACK
6
CONTINUOUS
10
3.60051
20
-2.77284
11
3.60039
21
-2.77383
0
LINE
8
BLACK
6
CONTINUOUS
10
3.60039
20
-2.77383
11
3.60039
21
-2.78937
0
LINE
8
BLACK
6
CONTINUOUS
10
3.60039
20
-2.78937
11
3.60039
21
-2.78937
0
LINE
8
BLACK
6
CONTINUOUS
10
2.70334
20
-2.76517
11
2.70334
21
-2.76517
0
LINE
8
BLACK
6
CONTINUOUS
10
2.70334
20
-2.76517
11
2.70334
21
-2.76517
0
LINE
8
BLACK
6
CONTINUOUS
10
2.70334
20
-2.76517
11
2.70432
21
-2.7688
0
LINE
8
BLACK
6
CONTINUOUS
10
2.70432
20
-2.7688
11
2.70575
21
-2.77416
0
LINE
8
BLACK
6
CONTINUOUS
10
2.70575
20
-2.77416
11
2.70968
21
-2.78259
0
LINE
8
BLACK
6
CONTINUOUS
10
2.70968
20
-2.78259
11
2.70968
21
-2.78259
0
LINE
8
BLACK
6
CONTINUOUS
10
2.70968
20
-2.78259
11
2.71443
21
-2.78937
0
LINE
8
BLACK
6
CONTINUOUS
10
2.71443
20
-2.78937
11
2.71502
21
-2.79021
0
LINE
8
BLACK
6
CONTINUOUS
10
2.71502
20
-2.79021
11
2.7216
21
-2.79679
0
LINE
8
BLACK
6
CONTINUOUS
10
2.7216
20
-2.79679
11
2.7216
21
-2.79679
0
LINE
8
BLACK
6
CONTINUOUS
10
2.7216
20
-2.79679
11
2.7216
21
-2.79679
0
LINE
8
BLACK
6
CONTINUOUS
10
2.7216
20
-2.79679
11
2.72259
21
-2.79748
0
LINE
8
BLACK
6
CONTINUOUS
10
2.72259
20
-2.79748
11
2.72922
21
-2.80213
0
LINE
8
BLACK
6
CONTINUOUS
10
2.72922
20
-2.80213
11
2.72922
21
-2.80213
0
LINE
8
BLACK
6
CONTINUOUS
10
2.72922
20
-2.80213
11
2.72922
21
-2.80213
0
LINE
8
BLACK
6
CONTINUOUS
10
2.72922
20
-2.80213
11
2.72922
21
-2.80213
0
LINE
8
BLACK
6
CONTINUOUS
10
2.72922
20
-2.80213
11
2.73765
21
-2.80606
0
LINE
8
BLACK
6
CONTINUOUS
10
2.73765
20
-2.80606
11
2.73765
21
-2.80606
0
LINE
8
BLACK
6
CONTINUOUS
10
2.73765
20
-2.80606
11
2.74664
21
-2.80847
0
LINE
8
BLACK
6
CONTINUOUS
10
2.74664
20
-2.80847
11
2.74664
21
-2.80847
0
LINE
8
BLACK
6
CONTINUOUS
10
2.74664
20
-2.80847
11
2.74664
21
-2.80847
0
LINE
8
BLACK
6
CONTINUOUS
10
2.74664
20
-2.80847
11
2.75358
21
-2.80907
0
LINE
8
BLACK
6
CONTINUOUS
10
2.75358
20
-2.80907
11
2.75358
21
-2.80907
0
LINE
8
BLACK
6
CONTINUOUS
10
2.75358
20
-2.80907
11
2.75823
21
-2.80907
0
LINE
8
BLACK
6
CONTINUOUS
10
2.75823
20
-2.80907
11
2.76517
21
-2.80847
0
LINE
8
BLACK
6
CONTINUOUS
10
2.76517
20
-2.80847
11
2.76517
21
-2.80847
0
LINE
8
BLACK
6
CONTINUOUS
10
2.76517
20
-2.80847
11
2.76517
21
-2.80847
0
LINE
8
BLACK
6
CONTINUOUS
10
2.76517
20
-2.80847
11
2.77416
21
-2.80606
0
LINE
8
BLACK
6
CONTINUOUS
10
2.77416
20
-2.80606
11
2.78259
21
-2.80213
0
LINE
8
BLACK
6
CONTINUOUS
10
2.78259
20
-2.80213
11
2.79021
21
-2.79679
0
LINE
8
BLACK
6
CONTINUOUS
10
2.79021
20
-2.79679
11
2.79679
21
-2.79021
0
LINE
8
BLACK
6
CONTINUOUS
10
2.79679
20
-2.79021
11
2.80213
21
-2.78259
0
LINE
8
BLACK
6
CONTINUOUS
10
2.80213
20
-2.78259
11
2.80606
21
-2.77416
0
LINE
8
BLACK
6
CONTINUOUS
10
2.80606
20
-2.77416
11
2.80847
21
-2.76517
0
LINE
8
BLACK
6
CONTINUOUS
10
2.80847
20
-2.76517
11
2.80847
21
-2.76517
0
LINE
8
BLACK
6
CONTINUOUS
10
2.80847
20
-2.76517
11
2.80928
21
-2.75591
0
LINE
8
BLACK
6
CONTINUOUS
10
2.80928
20
-2.75591
11
2.80928
21
-2.75591
0
LINE
8
BLACK
6
CONTINUOUS
10
2.80928
20
-2.75591
11
2.80847
21
-2.74664
0
LINE
8
BLACK
6
CONTINUOUS
10
2.80847
20
-2.74664
11
2.80847
21
-2.74664
0
LINE
8
BLACK
6
CONTINUOUS
10
2.80847
20
-2.74664
11
2.80847
21
-2.74664
0
LINE
8
BLACK
6
CONTINUOUS
10
2.80847
20
-2.74664
11
2.80606
21
-2.73765
0
LINE
8
BLACK
6
CONTINUOUS
10
2.80606
20
-2.73765
11
2.80575
21
-2.737
0
LINE
8
BLACK
6
CONTINUOUS
10
2.80575
20
-2.737
11
2.80213
21
-2.72922
0
LINE
8
BLACK
6
CONTINUOUS
10
2.80213
20
-2.72922
11
2.80213
21
-2.72922
0
LINE
8
BLACK
6
CONTINUOUS
10
2.80213
20
-2.72922
11
2.80181
21
-2.72876
0
LINE
8
BLACK
6
CONTINUOUS
10
2.80181
20
-2.72876
11
2.79679
21
-2.7216
0
LINE
8
BLACK
6
CONTINUOUS
10
2.79679
20
-2.7216
11
2.79021
21
-2.71502
0
LINE
8
BLACK
6
CONTINUOUS
10
2.79021
20
-2.71502
11
2.79021
21
-2.71502
0
LINE
8
BLACK
6
CONTINUOUS
10
2.79021
20
-2.71502
11
2.79021
21
-2.71502
0
LINE
8
BLACK
6
CONTINUOUS
10
2.79021
20
-2.71502
11
2.78259
21
-2.70968
0
LINE
8
BLACK
6
CONTINUOUS
10
2.78259
20
-2.70968
11
2.78259
21
-2.70968
0
LINE
8
BLACK
6
CONTINUOUS
10
2.78259
20
-2.70968
11
2.77416
21
-2.70575
0
LINE
8
BLACK
6
CONTINUOUS
10
2.77416
20
-2.70575
11
2.77416
21
-2.70575
0
LINE
8
BLACK
6
CONTINUOUS
10
2.77416
20
-2.70575
11
2.77116
21
-2.70495
0
LINE
8
BLACK
6
CONTINUOUS
10
2.77116
20
-2.70495
11
2.76517
21
-2.70334
0
LINE
8
BLACK
6
CONTINUOUS
10
2.76517
20
-2.70334
11
2.76517
21
-2.70334
0
LINE
8
BLACK
6
CONTINUOUS
10
2.76517
20
-2.70334
11
2.76517
21
-2.70334
0
LINE
8
BLACK
6
CONTINUOUS
10
2.76517
20
-2.70334
11
2.75823
21
-2.70274
0
LINE
8
BLACK
6
CONTINUOUS
10
2.75823
20
-2.70274
11
2.75823
21
-2.70274
0
LINE
8
BLACK
6
CONTINUOUS
10
2.75823
20
-2.70274
11
2.75358
21
-2.70274
0
LINE
8
BLACK
6
CONTINUOUS
10
2.75358
20
-2.70274
11
2.75358
21
-2.70274
0
LINE
8
BLACK
6
CONTINUOUS
10
2.75358
20
-2.70274
11
2.74664
21
-2.70334
0
LINE
8
BLACK
6
CONTINUOUS
10
2.74664
20
-2.70334
11
2.73765
21
-2.70575
0
LINE
8
BLACK
6
CONTINUOUS
10
2.73765
20
-2.70575
11
2.72922
21
-2.70968
0
LINE
8
BLACK
6
CONTINUOUS
10
2.72922
20
-2.70968
11
2.72922
21
-2.70968
0
LINE
8
BLACK
6
CONTINUOUS
10
2.72922
20
-2.70968
11
2.7216
21
-2.71502
0
LINE
8
BLACK
6
CONTINUOUS
10
2.7216
20
-2.71502
11
2.71502
21
-2.7216
0
LINE
8
BLACK
6
CONTINUOUS
10
2.71502
20
-2.7216
11
2.70968
21
-2.72922
0
LINE
8
BLACK
6
CONTINUOUS
10
2.70968
20
-2.72922
11
2.70575
21
-2.73765
0
LINE
8
BLACK
6
CONTINUOUS
10
2.70575
20
-2.73765
11
2.70334
21
-2.74664
0
LINE
8
BLACK
6
CONTINUOUS
10
2.70334
20
-2.74664
11
2.70253
21
-2.75591
0
LINE
8
BLACK
6
CONTINUOUS
10
2.70253
20
-2.75591
11
2.70253
21
-2.75591
0
LINE
8
BLACK
6
CONTINUOUS
10
2.70253
20
-2.75591
11
2.70334
21
-2.76517
0
LINE
8
BLACK
6
CONTINUOUS
10
3.32604
20
-2.69561
11
3.32607
21
-2.69577
0
LINE
8
BLACK
6
CONTINUOUS
10
3.32607
20
-2.69577
11
3.32635
21
-2.69736
0
LINE
8
BLACK
6
CONTINUOUS
10
3.32635
20
-2.69736
11
3.32638
21
-2.69742
0
LINE
8
BLACK
6
CONTINUOUS
10
3.32638
20
-2.69742
11
3.32677
21
-2.69836
0
LINE
8
BLACK
6
CONTINUOUS
10
3.32677
20
-2.69836
11
3.32679
21
-2.69841
0
LINE
8
BLACK
6
CONTINUOUS
10
3.32679
20
-2.69841
11
3.32679
21
-2.69841
0
LINE
8
BLACK
6
CONTINUOUS
10
3.32679
20
-2.69841
11
3.32772
21
-2.69974
0
LINE
8
BLACK
6
CONTINUOUS
10
3.32772
20
-2.69974
11
3.32781
21
-2.69988
0
LINE
8
BLACK
6
CONTINUOUS
10
3.32781
20
-2.69988
11
3.32861
21
-2.70128
0
LINE
8
BLACK
6
CONTINUOUS
10
3.32861
20
-2.70128
11
3.32985
21
-2.70232
0
LINE
8
BLACK
6
CONTINUOUS
10
3.32985
20
-2.70232
11
3.32998
21
-2.70243
0
LINE
8
BLACK
6
CONTINUOUS
10
3.32998
20
-2.70243
11
3.35269
21
-2.72514
0
LINE
8
BLACK
6
CONTINUOUS
10
3.35269
20
-2.72514
11
3.3528
21
-2.72527
0
LINE
8
BLACK
6
CONTINUOUS
10
3.3528
20
-2.72527
11
3.35384
21
-2.7265
0
LINE
8
BLACK
6
CONTINUOUS
10
3.35384
20
-2.7265
11
3.35384
21
-2.7265
0
LINE
8
BLACK
6
CONTINUOUS
10
3.35384
20
-2.7265
11
3.35524
21
-2.72731
0
LINE
8
BLACK
6
CONTINUOUS
10
3.35524
20
-2.72731
11
3.35538
21
-2.7274
0
LINE
8
BLACK
6
CONTINUOUS
10
3.35538
20
-2.7274
11
3.35659
21
-2.72825
0
LINE
8
BLACK
6
CONTINUOUS
10
3.35659
20
-2.72825
11
3.35804
21
-2.73017
0
LINE
8
BLACK
6
CONTINUOUS
10
3.35804
20
-2.73017
11
3.35825
21
-2.73144
0
LINE
8
BLACK
6
CONTINUOUS
10
3.35825
20
-2.73144
11
3.35825
21
-2.737
0
LINE
8
BLACK
6
CONTINUOUS
10
3.35825
20
-2.737
11
3.35825
21
-2.737
0
LINE
8
BLACK
6
CONTINUOUS
10
3.35825
20
-2.737
11
3.35871
21
-2.7393
0
LINE
8
BLACK
6
CONTINUOUS
10
3.35871
20
-2.7393
11
3.35871
21
-2.7393
0
LINE
8
BLACK
6
CONTINUOUS
10
3.35871
20
-2.7393
11
3.36045
21
-2.74191
0
LINE
8
BLACK
6
CONTINUOUS
10
3.36045
20
-2.74191
11
3.36306
21
-2.74366
0
LINE
8
BLACK
6
CONTINUOUS
10
3.36306
20
-2.74366
11
3.36481
21
-2.744
0
LINE
8
BLACK
6
CONTINUOUS
10
3.36481
20
-2.744
11
3.36536
21
-2.74411
0
LINE
8
BLACK
6
CONTINUOUS
10
3.36536
20
-2.74411
11
3.36536
21
-2.74411
0
LINE
8
BLACK
6
CONTINUOUS
10
3.36536
20
-2.74411
11
3.36536
21
-2.74411
0
LINE
8
BLACK
6
CONTINUOUS
10
3.36536
20
-2.74411
11
3.36536
21
-2.74411
0
LINE
8
BLACK
6
CONTINUOUS
10
3.36536
20
-2.74411
11
3.47519
21
-2.74411
0
LINE
8
BLACK
6
CONTINUOUS
10
3.47519
20
-2.74411
11
3.47519
21
-2.74411
0
LINE
8
BLACK
6
CONTINUOUS
10
3.47519
20
-2.74411
11
3.47749
21
-2.74366
0
LINE
8
BLACK
6
CONTINUOUS
10
3.47749
20
-2.74366
11
3.4801
21
-2.74191
0
LINE
8
BLACK
6
CONTINUOUS
10
3.4801
20
-2.74191
11
3.48185
21
-2.7393
0
LINE
8
BLACK
6
CONTINUOUS
10
3.48185
20
-2.7393
11
3.4823
21
-2.737
0
LINE
8
BLACK
6
CONTINUOUS
10
3.4823
20
-2.737
11
3.4823
21
-2.69607
0
LINE
8
BLACK
6
CONTINUOUS
10
3.4823
20
-2.69607
11
3.48185
21
-2.69377
0
LINE
8
BLACK
6
CONTINUOUS
10
3.48185
20
-2.69377
11
3.4801
21
-2.69116
0
LINE
8
BLACK
6
CONTINUOUS
10
3.4801
20
-2.69116
11
3.4801
21
-2.69116
0
LINE
8
BLACK
6
CONTINUOUS
10
3.4801
20
-2.69116
11
3.47749
21
-2.68941
0
LINE
8
BLACK
6
CONTINUOUS
10
3.47749
20
-2.68941
11
3.47749
21
-2.68941
0
LINE
8
BLACK
6
CONTINUOUS
10
3.47749
20
-2.68941
11
3.47749
21
-2.68941
0
LINE
8
BLACK
6
CONTINUOUS
10
3.47749
20
-2.68941
11
3.47749
21
-2.68941
0
LINE
8
BLACK
6
CONTINUOUS
10
3.47749
20
-2.68941
11
3.47519
21
-2.68896
0
LINE
8
BLACK
6
CONTINUOUS
10
3.47519
20
-2.68896
11
3.47519
21
-2.68896
0
LINE
8
BLACK
6
CONTINUOUS
10
3.47519
20
-2.68896
11
3.36536
21
-2.68896
0
LINE
8
BLACK
6
CONTINUOUS
10
3.36536
20
-2.68896
11
3.36536
21
-2.68896
0
LINE
8
BLACK
6
CONTINUOUS
10
3.36536
20
-2.68896
11
3.36536
21
-2.68896
0
LINE
8
BLACK
6
CONTINUOUS
10
3.36536
20
-2.68896
11
3.36306
21
-2.68941
0
LINE
8
BLACK
6
CONTINUOUS
10
3.36306
20
-2.68941
11
3.36306
21
-2.68941
0
LINE
8
BLACK
6
CONTINUOUS
10
3.36306
20
-2.68941
11
3.36013
21
-2.69137
0
LINE
8
BLACK
6
CONTINUOUS
10
3.36013
20
-2.69137
11
3.3601
21
-2.69133
0
LINE
8
BLACK
6
CONTINUOUS
10
3.3601
20
-2.69133
11
3.35831
21
-2.69225
0
LINE
8
BLACK
6
CONTINUOUS
10
3.35831
20
-2.69225
11
3.35593
21
-2.69187
0
LINE
8
BLACK
6
CONTINUOUS
10
3.35593
20
-2.69187
11
3.35495
21
-2.69115
0
LINE
8
BLACK
6
CONTINUOUS
10
3.35495
20
-2.69115
11
3.35254
21
-2.68875
0
LINE
8
BLACK
6
CONTINUOUS
10
3.35254
20
-2.68875
11
3.35145
21
-2.6866
0
LINE
8
BLACK
6
CONTINUOUS
10
3.35145
20
-2.6866
11
3.3514
21
-2.68599
0
LINE
8
BLACK
6
CONTINUOUS
10
3.3514
20
-2.68599
11
3.3514
21
-2.64865
0
LINE
8
BLACK
6
CONTINUOUS
10
3.3514
20
-2.64865
11
3.35214
21
-2.64636
0
LINE
8
BLACK
6
CONTINUOUS
10
3.35214
20
-2.64636
11
3.35254
21
-2.6459
0
LINE
8
BLACK
6
CONTINUOUS
10
3.35254
20
-2.6459
11
3.42593
21
-2.57251
0
LINE
8
BLACK
6
CONTINUOUS
10
3.42593
20
-2.57251
11
3.42605
21
-2.57239
0
LINE
8
BLACK
6
CONTINUOUS
10
3.42605
20
-2.57239
11
3.42729
21
-2.57136
0
LINE
8
BLACK
6
CONTINUOUS
10
3.42729
20
-2.57136
11
3.4281
21
-2.56996
0
LINE
8
BLACK
6
CONTINUOUS
10
3.4281
20
-2.56996
11
3.42819
21
-2.56982
0
LINE
8
BLACK
6
CONTINUOUS
10
3.42819
20
-2.56982
11
3.42912
21
-2.56849
0
LINE
8
BLACK
6
CONTINUOUS
10
3.42912
20
-2.56849
11
3.42913
21
-2.56843
0
LINE
8
BLACK
6
CONTINUOUS
10
3.42913
20
-2.56843
11
3.42952
21
-2.56749
0
LINE
8
BLACK
6
CONTINUOUS
10
3.42952
20
-2.56749
11
3.42955
21
-2.56744
0
LINE
8
BLACK
6
CONTINUOUS
10
3.42955
20
-2.56744
11
3.42955
21
-2.56744
0
LINE
8
BLACK
6
CONTINUOUS
10
3.42955
20
-2.56744
11
3.42955
21
-2.56744
0
LINE
8
BLACK
6
CONTINUOUS
10
3.42955
20
-2.56744
11
3.42983
21
-2.56585
0
LINE
8
BLACK
6
CONTINUOUS
10
3.42983
20
-2.56585
11
3.42987
21
-2.56569
0
LINE
8
BLACK
6
CONTINUOUS
10
3.42987
20
-2.56569
11
3.43029
21
-2.56413
0
LINE
8
BLACK
6
CONTINUOUS
10
3.43029
20
-2.56413
11
3.43015
21
-2.56252
0
LINE
8
BLACK
6
CONTINUOUS
10
3.43015
20
-2.56252
11
3.43014
21
-2.56235
0
LINE
8
BLACK
6
CONTINUOUS
10
3.43014
20
-2.56235
11
3.43014
21
-2.5364
0
LINE
8
BLACK
6
CONTINUOUS
10
3.43014
20
-2.5364
11
3.43088
21
-2.53411
0
LINE
8
BLACK
6
CONTINUOUS
10
3.43088
20
-2.53411
11
3.43283
21
-2.53269
0
LINE
8
BLACK
6
CONTINUOUS
10
3.43283
20
-2.53269
11
3.43404
21
-2.5325
0
LINE
8
BLACK
6
CONTINUOUS
10
3.43404
20
-2.5325
11
3.46884
21
-2.5325
0
LINE
8
BLACK
6
CONTINUOUS
10
3.46884
20
-2.5325
11
3.46901
21
-2.53251
0
LINE
8
BLACK
6
CONTINUOUS
10
3.46901
20
-2.53251
11
3.47062
21
-2.53265
0
LINE
8
BLACK
6
CONTINUOUS
10
3.47062
20
-2.53265
11
3.47145
21
-2.53243
0
LINE
8
BLACK
6
CONTINUOUS
10
3.47145
20
-2.53243
11
3.47386
21
-2.53255
0
LINE
8
BLACK
6
CONTINUOUS
10
3.47386
20
-2.53255
11
3.47573
21
-2.53407
0
LINE
8
BLACK
6
CONTINUOUS
10
3.47573
20
-2.53407
11
3.47636
21
-2.53619
0
LINE
8
BLACK
6
CONTINUOUS
10
3.47636
20
-2.53619
11
3.47636
21
-2.54015
0
LINE
8
BLACK
6
CONTINUOUS
10
3.47636
20
-2.54015
11
3.47636
21
-2.54015
0
LINE
8
BLACK
6
CONTINUOUS
10
3.47636
20
-2.54015
11
3.47682
21
-2.54245
0
LINE
8
BLACK
6
CONTINUOUS
10
3.47682
20
-2.54245
11
3.47682
21
-2.54245
0
LINE
8
BLACK
6
CONTINUOUS
10
3.47682
20
-2.54245
11
3.47856
21
-2.54506
0
LINE
8
BLACK
6
CONTINUOUS
10
3.47856
20
-2.54506
11
3.47856
21
-2.54506
0
LINE
8
BLACK
6
CONTINUOUS
10
3.47856
20
-2.54506
11
3.48117
21
-2.54681
0
LINE
8
BLACK
6
CONTINUOUS
10
3.48117
20
-2.54681
11
3.48292
21
-2.54715
0
LINE
8
BLACK
6
CONTINUOUS
10
3.48292
20
-2.54715
11
3.48347
21
-2.54726
0
LINE
8
BLACK
6
CONTINUOUS
10
3.48347
20
-2.54726
11
3.48347
21
-2.54726
0
LINE
8
BLACK
6
CONTINUOUS
10
3.48347
20
-2.54726
11
3.48347
21
-2.54726
0
LINE
8
BLACK
6
CONTINUOUS
10
3.48347
20
-2.54726
11
3.48347
21
-2.54726
0
LINE
8
BLACK
6
CONTINUOUS
10
3.48347
20
-2.54726
11
3.5244
21
-2.54726
0
LINE
8
BLACK
6
CONTINUOUS
10
3.5244
20
-2.54726
11
3.5244
21
-2.54726
0
LINE
8
BLACK
6
CONTINUOUS
10
3.5244
20
-2.54726
11
3.5267
21
-2.54681
0
LINE
8
BLACK
6
CONTINUOUS
10
3.5267
20
-2.54681
11
3.52931
21
-2.54506
0
LINE
8
BLACK
6
CONTINUOUS
10
3.52931
20
-2.54506
11
3.53106
21
-2.54245
0
LINE
8
BLACK
6
CONTINUOUS
10
3.53106
20
-2.54245
11
3.53152
21
-2.54015
0
LINE
8
BLACK
6
CONTINUOUS
10
3.53152
20
-2.54015
11
3.53152
21
-2.43032
0
LINE
8
BLACK
6
CONTINUOUS
10
3.53152
20
-2.43032
11
3.53106
21
-2.42802
0
LINE
8
BLACK
6
CONTINUOUS
10
3.53106
20
-2.42802
11
3.52931
21
-2.42541
0
LINE
8
BLACK
6
CONTINUOUS
10
3.52931
20
-2.42541
11
3.52931
21
-2.42541
0
LINE
8
BLACK
6
CONTINUOUS
10
3.52931
20
-2.42541
11
3.5267
21
-2.42367
0
LINE
8
BLACK
6
CONTINUOUS
10
3.5267
20
-2.42367
11
3.5267
21
-2.42367
0
LINE
8
BLACK
6
CONTINUOUS
10
3.5267
20
-2.42367
11
3.5267
21
-2.42367
0
LINE
8
BLACK
6
CONTINUOUS
10
3.5267
20
-2.42367
11
3.5267
21
-2.42367
0
LINE
8
BLACK
6
CONTINUOUS
10
3.5267
20
-2.42367
11
3.5244
21
-2.42321
0
LINE
8
BLACK
6
CONTINUOUS
10
3.5244
20
-2.42321
11
3.5244
21
-2.42321
0
LINE
8
BLACK
6
CONTINUOUS
10
3.5244
20
-2.42321
11
3.5244
21
-2.42321
0
LINE
8
BLACK
6
CONTINUOUS
10
3.5244
20
-2.42321
11
3.49921
21
-2.42321
0
LINE
8
BLACK
6
CONTINUOUS
10
3.49921
20
-2.42321
11
3.49692
21
-2.42246
0
LINE
8
BLACK
6
CONTINUOUS
10
3.49692
20
-2.42246
11
3.4955
21
-2.42052
0
LINE
8
BLACK
6
CONTINUOUS
10
3.4955
20
-2.42052
11
3.4955
21
-2.41811
0
LINE
8
BLACK
6
CONTINUOUS
10
3.4955
20
-2.41811
11
3.49645
21
-2.41655
0
LINE
8
BLACK
6
CONTINUOUS
10
3.49645
20
-2.41655
11
3.51716
21
-2.39585
0
LINE
8
BLACK
6
CONTINUOUS
10
3.51716
20
-2.39585
11
3.51931
21
-2.39475
0
LINE
8
BLACK
6
CONTINUOUS
10
3.51931
20
-2.39475
11
3.51991
21
-2.3947
0
LINE
8
BLACK
6
CONTINUOUS
10
3.51991
20
-2.3947
11
3.54658
21
-2.3947
0
LINE
8
BLACK
6
CONTINUOUS
10
3.54658
20
-2.3947
11
3.54887
21
-2.39545
0
LINE
8
BLACK
6
CONTINUOUS
10
3.54887
20
-2.39545
11
3.55029
21
-2.3974
0
LINE
8
BLACK
6
CONTINUOUS
10
3.55029
20
-2.3974
11
3.55029
21
-2.39981
0
LINE
8
BLACK
6
CONTINUOUS
10
3.55029
20
-2.39981
11
3.54967
21
-2.40098
0
LINE
8
BLACK
6
CONTINUOUS
10
3.54967
20
-2.40098
11
3.54628
21
-2.4054
0
LINE
8
BLACK
6
CONTINUOUS
10
3.54628
20
-2.4054
11
3.54628
21
-2.4054
0
LINE
8
BLACK
6
CONTINUOUS
10
3.54628
20
-2.4054
11
3.5439
21
-2.41115
0
LINE
8
BLACK
6
CONTINUOUS
10
3.5439
20
-2.41115
11
3.5439
21
-2.41115
0
LINE
8
BLACK
6
CONTINUOUS
10
3.5439
20
-2.41115
11
3.54308
21
-2.41732
0
LINE
8
BLACK
6
CONTINUOUS
10
3.54308
20
-2.41732
11
3.54308
21
-2.41732
0
LINE
8
BLACK
6
CONTINUOUS
10
3.54308
20
-2.41732
11
3.5439
21
-2.42349
0
LINE
8
BLACK
6
CONTINUOUS
10
3.5439
20
-2.42349
11
3.5439
21
-2.42349
0
LINE
8
BLACK
6
CONTINUOUS
10
3.5439
20
-2.42349
11
3.54628
21
-2.42925
0
LINE
8
BLACK
6
CONTINUOUS
10
3.54628
20
-2.42925
11
3.54628
21
-2.42925
0
LINE
8
BLACK
6
CONTINUOUS
10
3.54628
20
-2.42925
11
3.54982
21
-2.43386
0
LINE
8
BLACK
6
CONTINUOUS
10
3.54982
20
-2.43386
11
3.55007
21
-2.43418
0
LINE
8
BLACK
6
CONTINUOUS
10
3.55007
20
-2.43418
11
3.55007
21
-2.43418
0
LINE
8
BLACK
6
CONTINUOUS
10
3.55007
20
-2.43418
11
3.55007
21
-2.43418
0
LINE
8
BLACK
6
CONTINUOUS
10
3.55007
20
-2.43418
11
3.55357
21
-2.43687
0
LINE
8
BLACK
6
CONTINUOUS
10
3.55357
20
-2.43687
11
3.55494
21
-2.43886
0
LINE
8
BLACK
6
CONTINUOUS
10
3.55494
20
-2.43886
11
3.5551
21
-2.43997
0
LINE
8
BLACK
6
CONTINUOUS
10
3.5551
20
-2.43997
11
3.5551
21
-2.53555
0
LINE
8
BLACK
6
CONTINUOUS
10
3.5551
20
-2.53555
11
3.55435
21
-2.53784
0
LINE
8
BLACK
6
CONTINUOUS
10
3.55435
20
-2.53784
11
3.55407
21
-2.53818
0
LINE
8
BLACK
6
CONTINUOUS
10
3.55407
20
-2.53818
11
3.55022
21
-2.5432
0
LINE
8
BLACK
6
CONTINUOUS
10
3.55022
20
-2.5432
11
3.55022
21
-2.5432
0
LINE
8
BLACK
6
CONTINUOUS
10
3.55022
20
-2.5432
11
3.54783
21
-2.54895
0
LINE
8
BLACK
6
CONTINUOUS
10
3.54783
20
-2.54895
11
3.54783
21
-2.54895
0
LINE
8
BLACK
6
CONTINUOUS
10
3.54783
20
-2.54895
11
3.54702
21
-2.55512
0
LINE
8
BLACK
6
CONTINUOUS
10
3.54702
20
-2.55512
11
3.54702
21
-2.55512
0
LINE
8
BLACK
6
CONTINUOUS
10
3.54702
20
-2.55512
11
3.54783
21
-2.56129
0
LINE
8
BLACK
6
CONTINUOUS
10
3.54783
20
-2.56129
11
3.54783
21
-2.56129
0
LINE
8
BLACK
6
CONTINUOUS
10
3.54783
20
-2.56129
11
3.55022
21
-2.56704
0
LINE
8
BLACK
6
CONTINUOUS
10
3.55022
20
-2.56704
11
3.55022
21
-2.56704
0
LINE
8
BLACK
6
CONTINUOUS
10
3.55022
20
-2.56704
11
3.554
21
-2.57198
0
LINE
8
BLACK
6
CONTINUOUS
10
3.554
20
-2.57198
11
3.554
21
-2.57198
0
LINE
8
BLACK
6
CONTINUOUS
10
3.554
20
-2.57198
11
3.55894
21
-2.57577
0
LINE
8
BLACK
6
CONTINUOUS
10
3.55894
20
-2.57577
11
3.56469
21
-2.57815
0
LINE
8
BLACK
6
CONTINUOUS
10
3.56469
20
-2.57815
11
3.56932
21
-2.57876
0
LINE
8
BLACK
6
CONTINUOUS
10
3.56932
20
-2.57876
11
3.57087
21
-2.57896
0
LINE
8
BLACK
6
CONTINUOUS
10
3.57087
20
-2.57896
11
3.57087
21
-2.57896
0
LINE
8
BLACK
6
CONTINUOUS
10
3.57087
20
-2.57896
11
3.57087
21
-2.57896
0
LINE
8
BLACK
6
CONTINUOUS
10
3.57087
20
-2.57896
11
3.5721
21
-2.5788
0
LINE
8
BLACK
6
CONTINUOUS
10
3.5721
20
-2.5788
11
3.57704
21
-2.57815
0
LINE
8
BLACK
6
CONTINUOUS
10
3.57704
20
-2.57815
11
3.57915
21
-2.57728
0
LINE
8
BLACK
6
CONTINUOUS
10
3.57915
20
-2.57728
11
3.58303
21
-2.57567
0
LINE
8
BLACK
6
CONTINUOUS
10
3.58303
20
-2.57567
11
3.58306
21
-2.57575
0
LINE
8
BLACK
6
CONTINUOUS
10
3.58306
20
-2.57575
11
3.58505
21
-2.57532
0
LINE
8
BLACK
6
CONTINUOUS
10
3.58505
20
-2.57532
11
3.58625
21
-2.57571
0
LINE
8
BLACK
6
CONTINUOUS
10
3.58625
20
-2.57571
11
3.58627
21
-2.57567
0
LINE
8
BLACK
6
CONTINUOUS
10
3.58627
20
-2.57567
11
3.59225
21
-2.57815
0
LINE
8
BLACK
6
CONTINUOUS
10
3.59225
20
-2.57815
11
3.59225
21
-2.57815
0
LINE
8
BLACK
6
CONTINUOUS
10
3.59225
20
-2.57815
11
3.59688
21
-2.57876
0
LINE
8
BLACK
6
CONTINUOUS
10
3.59688
20
-2.57876
11
3.59843
21
-2.57896
0
LINE
8
BLACK
6
CONTINUOUS
10
3.59843
20
-2.57896
11
3.59843
21
-2.57896
0
LINE
8
BLACK
6
CONTINUOUS
10
3.59843
20
-2.57896
11
3.59843
21
-2.57896
0
LINE
8
BLACK
6
CONTINUOUS
10
3.59843
20
-2.57896
11
3.59966
21
-2.5788
0
LINE
8
BLACK
6
CONTINUOUS
10
3.59966
20
-2.5788
11
3.6046
21
-2.57815
0
LINE
8
BLACK
6
CONTINUOUS
10
3.6046
20
-2.57815
11
3.61035
21
-2.57577
0
LINE
8
BLACK
6
CONTINUOUS
10
3.61035
20
-2.57577
11
3.61529
21
-2.57198
0
LINE
8
BLACK
6
CONTINUOUS
10
3.61529
20
-2.57198
11
3.61908
21
-2.56704
0
LINE
8
BLACK
6
CONTINUOUS
10
3.61908
20
-2.56704
11
3.62146
21
-2.56129
0
LINE
8
BLACK
6
CONTINUOUS
10
3.62146
20
-2.56129
11
3.62227
21
-2.55512
0
LINE
8
BLACK
6
CONTINUOUS
10
3.62227
20
-2.55512
11
3.62146
21
-2.54895
0
LINE
8
BLACK
6
CONTINUOUS
10
3.62146
20
-2.54895
11
3.62076
21
-2.54726
0
LINE
8
BLACK
6
CONTINUOUS
10
3.62076
20
-2.54726
11
3.61908
21
-2.5432
0
LINE
8
BLACK
6
CONTINUOUS
10
3.61908
20
-2.5432
11
3.61908
21
-2.5432
0
LINE
8
BLACK
6
CONTINUOUS
10
3.61908
20
-2.5432
11
3.61529
21
-2.53826
0
LINE
8
BLACK
6
CONTINUOUS
10
3.61529
20
-2.53826
11
3.61277
21
-2.53632
0
LINE
8
BLACK
6
CONTINUOUS
10
3.61277
20
-2.53632
11
3.6114
21
-2.53434
0
LINE
8
BLACK
6
CONTINUOUS
10
3.6114
20
-2.53434
11
3.61124
21
-2.53323
0
LINE
8
BLACK
6
CONTINUOUS
10
3.61124
20
-2.53323
11
3.61124
21
-2.43921
0
LINE
8
BLACK
6
CONTINUOUS
10
3.61124
20
-2.43921
11
3.61198
21
-2.43692
0
LINE
8
BLACK
6
CONTINUOUS
10
3.61198
20
-2.43692
11
3.61277
21
-2.43612
0
LINE
8
BLACK
6
CONTINUOUS
10
3.61277
20
-2.43612
11
3.61529
21
-2.43418
0
LINE
8
BLACK
6
CONTINUOUS
10
3.61529
20
-2.43418
11
3.61908
21
-2.42925
0
LINE
8
BLACK
6
CONTINUOUS
10
3.61908
20
-2.42925
11
3.62146
21
-2.42349
0
LINE
8
BLACK
6
CONTINUOUS
10
3.62146
20
-2.42349
11
3.62227
21
-2.41732
0
LINE
8
BLACK
6
CONTINUOUS
10
3.62227
20
-2.41732
11
3.62146
21
-2.41115
0
LINE
8
BLACK
6
CONTINUOUS
10
3.62146
20
-2.41115
11
3.61908
21
-2.4054
0
LINE
8
BLACK
6
CONTINUOUS
10
3.61908
20
-2.4054
11
3.61908
21
-2.4054
0
LINE
8
BLACK
6
CONTINUOUS
10
3.61908
20
-2.4054
11
3.61568
21
-2.40098
0
LINE
8
BLACK
6
CONTINUOUS
10
3.61568
20
-2.40098
11
3.61488
21
-2.3987
0
LINE
8
BLACK
6
CONTINUOUS
10
3.61488
20
-2.3987
11
3.61556
21
-2.39639
0
LINE
8
BLACK
6
CONTINUOUS
10
3.61556
20
-2.39639
11
3.61747
21
-2.39493
0
LINE
8
BLACK
6
CONTINUOUS
10
3.61747
20
-2.39493
11
3.61877
21
-2.3947
0
LINE
8
BLACK
6
CONTINUOUS
10
3.61877
20
-2.3947
11
3.63683
21
-2.3947
0
LINE
8
BLACK
6
CONTINUOUS
10
3.63683
20
-2.3947
11
3.63912
21
-2.39545
0
LINE
8
BLACK
6
CONTINUOUS
10
3.63912
20
-2.39545
11
3.64054
21
-2.3974
0
LINE
8
BLACK
6
CONTINUOUS
10
3.64054
20
-2.3974
11
3.64073
21
-2.3986
0
LINE
8
BLACK
6
CONTINUOUS
10
3.64073
20
-2.3986
11
3.64073
21
-2.68506
0
LINE
8
BLACK
6
CONTINUOUS
10
3.64073
20
-2.68506
11
3.63998
21
-2.68735
0
LINE
8
BLACK
6
CONTINUOUS
10
3.63998
20
-2.68735
11
3.63804
21
-2.68877
0
LINE
8
BLACK
6
CONTINUOUS
10
3.63804
20
-2.68877
11
3.63683
21
-2.68896
0
LINE
8
BLACK
6
CONTINUOUS
10
3.63683
20
-2.68896
11
3.61143
21
-2.68896
0
LINE
8
BLACK
6
CONTINUOUS
10
3.61143
20
-2.68896
11
3.61143
21
-2.68896
0
LINE
8
BLACK
6
CONTINUOUS
10
3.61143
20
-2.68896
11
3.61143
21
-2.68896
0
LINE
8
BLACK
6
CONTINUOUS
10
3.61143
20
-2.68896
11
3.60912
21
-2.68941
0
LINE
8
BLACK
6
CONTINUOUS
10
3.60912
20
-2.68941
11
3.60912
21
-2.68941
0
LINE
8
BLACK
6
CONTINUOUS
10
3.60912
20
-2.68941
11
3.60651
21
-2.69116
0
LINE
8
BLACK
6
CONTINUOUS
10
3.60651
20
-2.69116
11
3.60651
21
-2.69116
0
LINE
8
BLACK
6
CONTINUOUS
10
3.60651
20
-2.69116
11
3.60477
21
-2.69377
0
LINE
8
BLACK
6
CONTINUOUS
10
3.60477
20
-2.69377
11
3.60477
21
-2.69377
0
LINE
8
BLACK
6
CONTINUOUS
10
3.60477
20
-2.69377
11
3.60431
21
-2.69607
0
LINE
8
BLACK
6
CONTINUOUS
10
3.60431
20
-2.69607
11
3.60431
21
-2.69607
0
LINE
8
BLACK
6
CONTINUOUS
10
3.60431
20
-2.69607
11
3.60431
21
-2.737
0
LINE
8
BLACK
6
CONTINUOUS
10
3.60431
20
-2.737
11
3.60431
21
-2.737
0
LINE
8
BLACK
6
CONTINUOUS
10
3.60431
20
-2.737
11
3.60477
21
-2.7393
0
LINE
8
BLACK
6
CONTINUOUS
10
3.60477
20
-2.7393
11
3.60477
21
-2.7393
0
LINE
8
BLACK
6
CONTINUOUS
10
3.60477
20
-2.7393
11
3.60651
21
-2.74191
0
LINE
8
BLACK
6
CONTINUOUS
10
3.60651
20
-2.74191
11
3.60912
21
-2.74366
0
LINE
8
BLACK
6
CONTINUOUS
10
3.60912
20
-2.74366
11
3.61088
21
-2.744
0
LINE
8
BLACK
6
CONTINUOUS
10
3.61088
20
-2.744
11
3.61143
21
-2.74411
0
LINE
8
BLACK
6
CONTINUOUS
10
3.61143
20
-2.74411
11
3.61143
21
-2.74411
0
LINE
8
BLACK
6
CONTINUOUS
10
3.61143
20
-2.74411
11
3.61143
21
-2.74411
0
LINE
8
BLACK
6
CONTINUOUS
10
3.61143
20
-2.74411
11
3.61143
21
-2.74411
0
LINE
8
BLACK
6
CONTINUOUS
10
3.61143
20
-2.74411
11
3.72125
21
-2.74411
0
LINE
8
BLACK
6
CONTINUOUS
10
3.72125
20
-2.74411
11
3.72125
21
-2.74411
0
LINE
8
BLACK
6
CONTINUOUS
10
3.72125
20
-2.74411
11
3.72355
21
-2.74366
0
LINE
8
BLACK
6
CONTINUOUS
10
3.72355
20
-2.74366
11
3.72616
21
-2.74191
0
LINE
8
BLACK
6
CONTINUOUS
10
3.72616
20
-2.74191
11
3.72791
21
-2.7393
0
LINE
8
BLACK
6
CONTINUOUS
10
3.72791
20
-2.7393
11
3.72837
21
-2.737
0
LINE
8
BLACK
6
CONTINUOUS
10
3.72837
20
-2.737
11
3.72837
21
-2.69607
0
LINE
8
BLACK
6
CONTINUOUS
10
3.72837
20
-2.69607
11
3.72791
21
-2.69377
0
LINE
8
BLACK
6
CONTINUOUS
10
3.72791
20
-2.69377
11
3.72616
21
-2.69116
0
LINE
8
BLACK
6
CONTINUOUS
10
3.72616
20
-2.69116
11
3.72616
21
-2.69116
0
LINE
8
BLACK
6
CONTINUOUS
10
3.72616
20
-2.69116
11
3.72355
21
-2.68941
0
LINE
8
BLACK
6
CONTINUOUS
10
3.72355
20
-2.68941
11
3.72355
21
-2.68941
0
LINE
8
BLACK
6
CONTINUOUS
10
3.72355
20
-2.68941
11
3.72355
21
-2.68941
0
LINE
8
BLACK
6
CONTINUOUS
10
3.72355
20
-2.68941
11
3.72355
21
-2.68941
0
LINE
8
BLACK
6
CONTINUOUS
10
3.72355
20
-2.68941
11
3.72125
21
-2.68896
0
LINE
8
BLACK
6
CONTINUOUS
10
3.72125
20
-2.68896
11
3.72125
21
-2.68896
0
LINE
8
BLACK
6
CONTINUOUS
10
3.72125
20
-2.68896
11
3.72125
21
-2.68896
0
LINE
8
BLACK
6
CONTINUOUS
10
3.72125
20
-2.68896
11
3.67026
21
-2.68896
0
LINE
8
BLACK
6
CONTINUOUS
10
3.67026
20
-2.68896
11
3.66796
21
-2.68821
0
LINE
8
BLACK
6
CONTINUOUS
10
3.66796
20
-2.68821
11
3.66655
21
-2.68626
0
LINE
8
BLACK
6
CONTINUOUS
10
3.66655
20
-2.68626
11
3.66636
21
-2.68506
0
LINE
8
BLACK
6
CONTINUOUS
10
3.66636
20
-2.68506
11
3.66636
21
-2.37963
0
LINE
8
BLACK
6
CONTINUOUS
10
3.66636
20
-2.37963
11
3.66609
21
-2.37888
0
LINE
8
BLACK
6
CONTINUOUS
10
3.66609
20
-2.37888
11
3.66591
21
-2.37822
0
LINE
8
BLACK
6
CONTINUOUS
10
3.66591
20
-2.37822
11
3.66577
21
-2.37744
0
LINE
8
BLACK
6
CONTINUOUS
10
3.66577
20
-2.37744
11
3.66537
21
-2.37675
0
LINE
8
BLACK
6
CONTINUOUS
10
3.66537
20
-2.37675
11
3.66509
21
-2.37613
0
LINE
8
BLACK
6
CONTINUOUS
10
3.66509
20
-2.37613
11
3.66481
21
-2.37538
0
LINE
8
BLACK
6
CONTINUOUS
10
3.66481
20
-2.37538
11
3.66481
21
-2.37538
0
LINE
8
BLACK
6
CONTINUOUS
10
3.66481
20
-2.37538
11
3.6643
21
-2.37477
0
LINE
8
BLACK
6
CONTINUOUS
10
3.6643
20
-2.37477
11
3.66391
21
-2.37422
0
LINE
8
BLACK
6
CONTINUOUS
10
3.66391
20
-2.37422
11
3.66351
21
-2.37353
0
LINE
8
BLACK
6
CONTINUOUS
10
3.66351
20
-2.37353
11
3.6629
21
-2.37301
0
LINE
8
BLACK
6
CONTINUOUS
10
3.6629
20
-2.37301
11
3.66242
21
-2.37253
0
LINE
8
BLACK
6
CONTINUOUS
10
3.66242
20
-2.37253
11
3.66191
21
-2.37192
0
LINE
8
BLACK
6
CONTINUOUS
10
3.66191
20
-2.37192
11
3.66122
21
-2.37152
0
LINE
8
BLACK
6
CONTINUOUS
10
3.66122
20
-2.37152
11
3.66066
21
-2.37113
0
LINE
8
BLACK
6
CONTINUOUS
10
3.66066
20
-2.37113
11
3.66005
21
-2.37062
0
LINE
8
BLACK
6
CONTINUOUS
10
3.66005
20
-2.37062
11
3.66005
21
-2.37062
0
LINE
8
BLACK
6
CONTINUOUS
10
3.66005
20
-2.37062
11
3.6593
21
-2.37035
0
LINE
8
BLACK
6
CONTINUOUS
10
3.6593
20
-2.37035
11
3.65868
21
-2.37006
0
LINE
8
BLACK
6
CONTINUOUS
10
3.65868
20
-2.37006
11
3.65799
21
-2.36966
0
LINE
8
BLACK
6
CONTINUOUS
10
3.65799
20
-2.36966
11
3.65721
21
-2.36952
0
LINE
8
BLACK
6
CONTINUOUS
10
3.65721
20
-2.36952
11
3.65655
21
-2.36935
0
LINE
8
BLACK
6
CONTINUOUS
10
3.65655
20
-2.36935
11
3.6558
21
-2.36907
0
LINE
8
BLACK
6
CONTINUOUS
10
3.6558
20
-2.36907
11
3.6558
21
-2.36907
0
LINE
8
BLACK
6
CONTINUOUS
10
3.6558
20
-2.36907
11
3.65466
21
-2.36907
0
LINE
8
BLACK
6
CONTINUOUS
10
3.65466
20
-2.36907
11
3.51364
21
-2.36907
0
LINE
8
BLACK
6
CONTINUOUS
10
3.51364
20
-2.36907
11
3.51347
21
-2.36907
0
LINE
8
BLACK
6
CONTINUOUS
10
3.51347
20
-2.36907
11
3.51186
21
-2.36893
0
LINE
8
BLACK
6
CONTINUOUS
10
3.51186
20
-2.36893
11
3.51186
21
-2.36893
0
LINE
8
BLACK
6
CONTINUOUS
10
3.51186
20
-2.36893
11
3.5103
21
-2.36934
0
LINE
8
BLACK
6
CONTINUOUS
10
3.5103
20
-2.36934
11
3.51013
21
-2.36938
0
LINE
8
BLACK
6
CONTINUOUS
10
3.51013
20
-2.36938
11
3.50854
21
-2.36966
0
LINE
8
BLACK
6
CONTINUOUS
10
3.50854
20
-2.36966
11
3.50854
21
-2.36966
0
LINE
8
BLACK
6
CONTINUOUS
10
3.50854
20
-2.36966
11
3.50849
21
-2.36969
0
LINE
8
BLACK
6
CONTINUOUS
10
3.50849
20
-2.36969
11
3.50755
21
-2.37008
0
LINE
8
BLACK
6
CONTINUOUS
10
3.50755
20
-2.37008
11
3.50749
21
-2.3701
0
LINE
8
BLACK
6
CONTINUOUS
10
3.50749
20
-2.3701
11
3.50749
21
-2.3701
0
LINE
8
BLACK
6
CONTINUOUS
10
3.50749
20
-2.3701
11
3.50617
21
-2.37102
0
LINE
8
BLACK
6
CONTINUOUS
10
3.50617
20
-2.37102
11
3.50603
21
-2.37111
0
LINE
8
BLACK
6
CONTINUOUS
10
3.50603
20
-2.37111
11
3.50599
21
-2.37113
0
LINE
8
BLACK
6
CONTINUOUS
10
3.50599
20
-2.37113
11
3.50463
21
-2.37192
0
LINE
8
BLACK
6
CONTINUOUS
10
3.50463
20
-2.37192
11
3.50359
21
-2.37316
0
LINE
8
BLACK
6
CONTINUOUS
10
3.50359
20
-2.37316
11
3.50347
21
-2.37328
0
LINE
8
BLACK
6
CONTINUOUS
10
3.50347
20
-2.37328
11
3.48404
21
-2.39272
0
LINE
8
BLACK
6
CONTINUOUS
10
3.48404
20
-2.39272
11
3.48189
21
-2.39382
0
LINE
8
BLACK
6
CONTINUOUS
10
3.48189
20
-2.39382
11
3.47951
21
-2.39344
0
LINE
8
BLACK
6
CONTINUOUS
10
3.47951
20
-2.39344
11
3.47781
21
-2.39174
0
LINE
8
BLACK
6
CONTINUOUS
10
3.47781
20
-2.39174
11
3.47738
21
-2.38997
0
LINE
8
BLACK
6
CONTINUOUS
10
3.47738
20
-2.38997
11
3.47738
21
-2.30474
0
LINE
8
BLACK
6
CONTINUOUS
10
3.47738
20
-2.30474
11
3.47813
21
-2.30245
0
LINE
8
BLACK
6
CONTINUOUS
10
3.47813
20
-2.30245
11
3.48008
21
-2.30103
0
LINE
8
BLACK
6
CONTINUOUS
10
3.48008
20
-2.30103
11
3.48204
21
-2.30092
0
LINE
8
BLACK
6
CONTINUOUS
10
3.48204
20
-2.30092
11
3.48313
21
-2.30113
0
LINE
8
BLACK
6
CONTINUOUS
10
3.48313
20
-2.30113
11
3.48347
21
-2.3012
0
LINE
8
BLACK
6
CONTINUOUS
10
3.48347
20
-2.3012
11
3.48347
21
-2.3012
0
LINE
8
BLACK
6
CONTINUOUS
10
3.48347
20
-2.3012
11
3.48347
21
-2.3012
0
LINE
8
BLACK
6
CONTINUOUS
10
3.48347
20
-2.3012
11
3.48347
21
-2.3012
0
LINE
8
BLACK
6
CONTINUOUS
10
3.48347
20
-2.3012
11
3.5244
21
-2.3012
0
LINE
8
BLACK
6
CONTINUOUS
10
3.5244
20
-2.3012
11
3.5244
21
-2.3012
0
LINE
8
BLACK
6
CONTINUOUS
10
3.5244
20
-2.3012
11
3.5267
21
-2.30074
0
LINE
8
BLACK
6
CONTINUOUS
10
3.5267
20
-2.30074
11
3.52931
21
-2.299
0
LINE
8
BLACK
6
CONTINUOUS
10
3.52931
20
-2.299
11
3.53106
21
-2.29639
0
LINE
8
BLACK
6
CONTINUOUS
10
3.53106
20
-2.29639
11
3.53152
21
-2.29408
0
LINE
8
BLACK
6
CONTINUOUS
10
3.53152
20
-2.29408
11
3.53152
21
-2.24508
0
LINE
8
BLACK
6
CONTINUOUS
10
3.53152
20
-2.24508
11
3.53152
21
-2.23327
0
LINE
8
BLACK
6
CONTINUOUS
10
3.53152
20
-2.23327
11
3.53152
21
-2.18426
0
LINE
8
BLACK
6
CONTINUOUS
10
3.53152
20
-2.18426
11
3.53106
21
-2.18196
0
LINE
8
BLACK
6
CONTINUOUS
10
3.53106
20
-2.18196
11
3.52931
21
-2.17935
0
LINE
8
BLACK
6
CONTINUOUS
10
3.52931
20
-2.17935
11
3.52931
21
-2.17935
0
LINE
8
BLACK
6
CONTINUOUS
10
3.52931
20
-2.17935
11
3.5267
21
-2.1776
0
LINE
8
BLACK
6
CONTINUOUS
10
3.5267
20
-2.1776
11
3.5267
21
-2.1776
0
LINE
8
BLACK
6
CONTINUOUS
10
3.5267
20
-2.1776
11
3.5267
21
-2.1776
0
LINE
8
BLACK
6
CONTINUOUS
10
3.5267
20
-2.1776
11
3.5267
21
-2.1776
0
LINE
8
BLACK
6
CONTINUOUS
10
3.5267
20
-2.1776
11
3.5244
21
-2.17715
0
LINE
8
BLACK
6
CONTINUOUS
10
3.5244
20
-2.17715
11
3.5244
21
-2.17715
0
LINE
8
BLACK
6
CONTINUOUS
10
3.5244
20
-2.17715
11
3.48347
21
-2.17715
0
LINE
8
BLACK
6
CONTINUOUS
10
3.48347
20
-2.17715
11
3.48347
21
-2.17715
0
LINE
8
BLACK
6
CONTINUOUS
10
3.48347
20
-2.17715
11
3.48347
21
-2.17715
0
LINE
8
BLACK
6
CONTINUOUS
10
3.48347
20
-2.17715
11
3.48117
21
-2.1776
0
LINE
8
BLACK
6
CONTINUOUS
10
3.48117
20
-2.1776
11
3.48117
21
-2.1776
0
LINE
8
BLACK
6
CONTINUOUS
10
3.48117
20
-2.1776
11
3.47856
21
-2.17935
0
LINE
8
BLACK
6
CONTINUOUS
10
3.47856
20
-2.17935
11
3.47856
21
-2.17935
0
LINE
8
BLACK
6
CONTINUOUS
10
3.47856
20
-2.17935
11
3.47682
21
-2.18196
0
LINE
8
BLACK
6
CONTINUOUS
10
3.47682
20
-2.18196
11
3.47682
21
-2.18196
0
LINE
8
BLACK
6
CONTINUOUS
10
3.47682
20
-2.18196
11
3.47636
21
-2.18426
0
LINE
8
BLACK
6
CONTINUOUS
10
3.47636
20
-2.18426
11
3.47636
21
-2.18426
0
LINE
8
BLACK
6
CONTINUOUS
10
3.47636
20
-2.18426
11
3.47636
21
-2.22246
0
LINE
8
BLACK
6
CONTINUOUS
10
3.47636
20
-2.22246
11
3.47561
21
-2.22475
0
LINE
8
BLACK
6
CONTINUOUS
10
3.47561
20
-2.22475
11
3.47367
21
-2.22617
0
LINE
8
BLACK
6
CONTINUOUS
10
3.47367
20
-2.22617
11
3.47246
21
-2.22636
0
LINE
8
BLACK
6
CONTINUOUS
10
3.47246
20
-2.22636
11
3.47013
21
-2.22636
0
LINE
8
BLACK
6
CONTINUOUS
10
3.47013
20
-2.22636
11
3.46996
21
-2.22635
0
LINE
8
BLACK
6
CONTINUOUS
10
3.46996
20
-2.22635
11
3.46835
21
-2.22621
0
LINE
8
BLACK
6
CONTINUOUS
10
3.46835
20
-2.22621
11
3.46835
21
-2.22621
0
LINE
8
BLACK
6
CONTINUOUS
10
3.46835
20
-2.22621
11
3.46679
21
-2.22663
0
LINE
8
BLACK
6
CONTINUOUS
10
3.46679
20
-2.22663
11
3.46663
21
-2.22666
0
LINE
8
BLACK
6
CONTINUOUS
10
3.46663
20
-2.22666
11
3.46504
21
-2.22695
0
LINE
8
BLACK
6
CONTINUOUS
10
3.46504
20
-2.22695
11
3.46504
21
-2.22695
0
LINE
8
BLACK
6
CONTINUOUS
10
3.46504
20
-2.22695
11
3.46499
21
-2.22698
0
LINE
8
BLACK
6
CONTINUOUS
10
3.46499
20
-2.22698
11
3.46405
21
-2.22736
0
LINE
8
BLACK
6
CONTINUOUS
10
3.46405
20
-2.22736
11
3.46399
21
-2.22738
0
LINE
8
BLACK
6
CONTINUOUS
10
3.46399
20
-2.22738
11
3.46399
21
-2.22738
0
LINE
8
BLACK
6
CONTINUOUS
10
3.46399
20
-2.22738
11
3.46267
21
-2.22831
0
LINE
8
BLACK
6
CONTINUOUS
10
3.46267
20
-2.22831
11
3.46252
21
-2.2284
0
LINE
8
BLACK
6
CONTINUOUS
10
3.46252
20
-2.2284
11
3.4622
21
-2.22858
0
LINE
8
BLACK
6
CONTINUOUS
10
3.4622
20
-2.22858
11
3.46112
21
-2.2292
0
LINE
8
BLACK
6
CONTINUOUS
10
3.46112
20
-2.2292
11
3.46009
21
-2.23044
0
LINE
8
BLACK
6
CONTINUOUS
10
3.46009
20
-2.23044
11
3.45997
21
-2.23057
0
LINE
8
BLACK
6
CONTINUOUS
10
3.45997
20
-2.23057
11
3.45596
21
-2.23458
0
LINE
8
BLACK
6
CONTINUOUS
10
3.45596
20
-2.23458
11
3.45584
21
-2.23469
0
LINE
8
BLACK
6
CONTINUOUS
10
3.45584
20
-2.23469
11
3.4546
21
-2.23573
0
LINE
8
BLACK
6
CONTINUOUS
10
3.4546
20
-2.23573
11
3.4546
21
-2.23573
0
LINE
8
BLACK
6
CONTINUOUS
10
3.4546
20
-2.23573
11
3.45379
21
-2.23713
0
LINE
8
BLACK
6
CONTINUOUS
10
3.45379
20
-2.23713
11
3.4537
21
-2.23727
0
LINE
8
BLACK
6
CONTINUOUS
10
3.4537
20
-2.23727
11
3.45277
21
-2.2386
0
LINE
8
BLACK
6
CONTINUOUS
10
3.45277
20
-2.2386
11
3.45277
21
-2.2386
0
LINE
8
BLACK
6
CONTINUOUS
10
3.45277
20
-2.2386
11
3.45276
21
-2.23865
0
LINE
8
BLACK
6
CONTINUOUS
10
3.45276
20
-2.23865
11
3.45237
21
-2.23959
0
LINE
8
BLACK
6
CONTINUOUS
10
3.45237
20
-2.23959
11
3.45234
21
-2.23964
0
LINE
8
BLACK
6
CONTINUOUS
10
3.45234
20
-2.23964
11
3.45234
21
-2.23964
0
LINE
8
BLACK
6
CONTINUOUS
10
3.45234
20
-2.23964
11
3.45206
21
-2.24123
0
LINE
8
BLACK
6
CONTINUOUS
10
3.45206
20
-2.24123
11
3.45202
21
-2.2414
0
LINE
8
BLACK
6
CONTINUOUS
10
3.45202
20
-2.2414
11
3.4516
21
-2.24296
0
LINE
8
BLACK
6
CONTINUOUS
10
3.4516
20
-2.24296
11
3.4516
21
-2.24296
0
LINE
8
BLACK
6
CONTINUOUS
10
3.4516
20
-2.24296
11
3.45174
21
-2.24457
0
LINE
8
BLACK
6
CONTINUOUS
10
3.45174
20
-2.24457
11
3.45175
21
-2.24474
0
LINE
8
BLACK
6
CONTINUOUS
10
3.45175
20
-2.24474
11
3.45175
21
-2.4095
0
LINE
8
BLACK
6
CONTINUOUS
10
3.45175
20
-2.4095
11
3.45101
21
-2.4118
0
LINE
8
BLACK
6
CONTINUOUS
10
3.45101
20
-2.4118
11
3.44935
21
-2.41311
0
LINE
8
BLACK
6
CONTINUOUS
10
3.44935
20
-2.41311
11
3.4491
21
-2.41321
0
LINE
8
BLACK
6
CONTINUOUS
10
3.4491
20
-2.41321
11
3.44416
21
-2.417
0
LINE
8
BLACK
6
CONTINUOUS
10
3.44416
20
-2.417
11
3.44416
21
-2.417
0
LINE
8
BLACK
6
CONTINUOUS
10
3.44416
20
-2.417
11
3.44037
21
-2.42194
0
LINE
8
BLACK
6
CONTINUOUS
10
3.44037
20
-2.42194
11
3.44037
21
-2.42194
0
LINE
8
BLACK
6
CONTINUOUS
10
3.44037
20
-2.42194
11
3.43799
21
-2.42769
0
LINE
8
BLACK
6
CONTINUOUS
10
3.43799
20
-2.42769
11
3.43799
21
-2.42769
0
LINE
8
BLACK
6
CONTINUOUS
10
3.43799
20
-2.42769
11
3.43718
21
-2.43386
0
LINE
8
BLACK
6
CONTINUOUS
10
3.43718
20
-2.43386
11
3.43718
21
-2.43386
0
LINE
8
BLACK
6
CONTINUOUS
10
3.43718
20
-2.43386
11
3.43799
21
-2.44003
0
LINE
8
BLACK
6
CONTINUOUS
10
3.43799
20
-2.44003
11
3.43799
21
-2.44003
0
LINE
8
BLACK
6
CONTINUOUS
10
3.43799
20
-2.44003
11
3.44037
21
-2.44578
0
LINE
8
BLACK
6
CONTINUOUS
10
3.44037
20
-2.44578
11
3.44037
21
-2.44578
0
LINE
8
BLACK
6
CONTINUOUS
10
3.44037
20
-2.44578
11
3.44037
21
-2.44578
0
LINE
8
BLACK
6
CONTINUOUS
10
3.44037
20
-2.44578
11
3.44416
21
-2.45072
0
LINE
8
BLACK
6
CONTINUOUS
10
3.44416
20
-2.45072
11
3.4491
21
-2.45451
0
LINE
8
BLACK
6
CONTINUOUS
10
3.4491
20
-2.45451
11
3.4491
21
-2.45451
0
LINE
8
BLACK
6
CONTINUOUS
10
3.4491
20
-2.45451
11
3.4491
21
-2.45451
0
LINE
8
BLACK
6
CONTINUOUS
10
3.4491
20
-2.45451
11
3.45108
21
-2.45533
0
LINE
8
BLACK
6
CONTINUOUS
10
3.45108
20
-2.45533
11
3.45485
21
-2.45689
0
LINE
8
BLACK
6
CONTINUOUS
10
3.45485
20
-2.45689
11
3.45948
21
-2.4575
0
LINE
8
BLACK
6
CONTINUOUS
10
3.45948
20
-2.4575
11
3.46102
21
-2.4577
0
LINE
8
BLACK
6
CONTINUOUS
10
3.46102
20
-2.4577
11
3.46102
21
-2.4577
0
LINE
8
BLACK
6
CONTINUOUS
10
3.46102
20
-2.4577
11
3.46102
21
-2.4577
0
LINE
8
BLACK
6
CONTINUOUS
10
3.46102
20
-2.4577
11
3.46226
21
-2.45754
0
LINE
8
BLACK
6
CONTINUOUS
10
3.46226
20
-2.45754
11
3.4672
21
-2.45689
0
LINE
8
BLACK
6
CONTINUOUS
10
3.4672
20
-2.45689
11
3.47097
21
-2.45533
0
LINE
8
BLACK
6
CONTINUOUS
10
3.47097
20
-2.45533
11
3.47337
21
-2.45514
0
LINE
8
BLACK
6
CONTINUOUS
10
3.47337
20
-2.45514
11
3.47542
21
-2.4564
0
LINE
8
BLACK
6
CONTINUOUS
10
3.47542
20
-2.4564
11
3.47635
21
-2.45862
0
LINE
8
BLACK
6
CONTINUOUS
10
3.47635
20
-2.45862
11
3.47636
21
-2.45893
0
LINE
8
BLACK
6
CONTINUOUS
10
3.47636
20
-2.45893
11
3.47636
21
-2.49308
0
LINE
8
BLACK
6
CONTINUOUS
10
3.47636
20
-2.49308
11
3.47561
21
-2.49537
0
LINE
8
BLACK
6
CONTINUOUS
10
3.47561
20
-2.49537
11
3.47522
21
-2.49583
0
LINE
8
BLACK
6
CONTINUOUS
10
3.47522
20
-2.49583
11
3.46532
21
-2.50573
0
LINE
8
BLACK
6
CONTINUOUS
10
3.46532
20
-2.50573
11
3.46318
21
-2.50682
0
LINE
8
BLACK
6
CONTINUOUS
10
3.46318
20
-2.50682
11
3.46257
21
-2.50687
0
LINE
8
BLACK
6
CONTINUOUS
10
3.46257
20
-2.50687
11
3.44497
21
-2.50687
0
LINE
8
BLACK
6
CONTINUOUS
10
3.44497
20
-2.50687
11
3.44268
21
-2.50613
0
LINE
8
BLACK
6
CONTINUOUS
10
3.44268
20
-2.50613
11
3.44127
21
-2.50418
0
LINE
8
BLACK
6
CONTINUOUS
10
3.44127
20
-2.50418
11
3.44111
21
-2.50348
0
LINE
8
BLACK
6
CONTINUOUS
10
3.44111
20
-2.50348
11
3.44036
21
-2.49777
0
LINE
8
BLACK
6
CONTINUOUS
10
3.44036
20
-2.49777
11
3.44036
21
-2.49777
0
LINE
8
BLACK
6
CONTINUOUS
10
3.44036
20
-2.49777
11
3.43797
21
-2.49201
0
LINE
8
BLACK
6
CONTINUOUS
10
3.43797
20
-2.49201
11
3.43797
21
-2.49201
0
LINE
8
BLACK
6
CONTINUOUS
10
3.43797
20
-2.49201
11
3.43418
21
-2.48708
0
LINE
8
BLACK
6
CONTINUOUS
10
3.43418
20
-2.48708
11
3.43418
21
-2.48708
0
LINE
8
BLACK
6
CONTINUOUS
10
3.43418
20
-2.48708
11
3.43418
21
-2.48708
0
LINE
8
BLACK
6
CONTINUOUS
10
3.43418
20
-2.48708
11
3.43418
21
-2.48708
0
LINE
8
BLACK
6
CONTINUOUS
10
3.43418
20
-2.48708
11
3.43418
21
-2.48708
0
LINE
8
BLACK
6
CONTINUOUS
10
3.43418
20
-2.48708
11
3.42925
21
-2.48329
0
LINE
8
BLACK
6
CONTINUOUS
10
3.42925
20
-2.48329
11
3.42349
21
-2.4809
0
LINE
8
BLACK
6
CONTINUOUS
10
3.42349
20
-2.4809
11
3.42349
21
-2.4809
0
LINE
8
BLACK
6
CONTINUOUS
10
3.42349
20
-2.4809
11
3.41732
21
-2.48009
0
LINE
8
BLACK
6
CONTINUOUS
10
3.41732
20
-2.48009
11
3.41732
21
-2.48009
0
LINE
8
BLACK
6
CONTINUOUS
10
3.41732
20
-2.48009
11
3.41115
21
-2.4809
0
LINE
8
BLACK
6
CONTINUOUS
10
3.41115
20
-2.4809
11
3.41115
21
-2.4809
0
LINE
8
BLACK
6
CONTINUOUS
10
3.41115
20
-2.4809
11
3.4054
21
-2.48329
0
LINE
8
BLACK
6
CONTINUOUS
10
3.4054
20
-2.48329
11
3.4054
21
-2.48329
0
LINE
8
BLACK
6
CONTINUOUS
10
3.4054
20
-2.48329
11
3.40046
21
-2.48708
0
LINE
8
BLACK
6
CONTINUOUS
10
3.40046
20
-2.48708
11
3.40046
21
-2.48708
0
LINE
8
BLACK
6
CONTINUOUS
10
3.40046
20
-2.48708
11
3.39667
21
-2.49201
0
LINE
8
BLACK
6
CONTINUOUS
10
3.39667
20
-2.49201
11
3.39667
21
-2.49201
0
LINE
8
BLACK
6
CONTINUOUS
10
3.39667
20
-2.49201
11
3.39429
21
-2.49777
0
LINE
8
BLACK
6
CONTINUOUS
10
3.39429
20
-2.49777
11
3.39429
21
-2.49777
0
LINE
8
BLACK
6
CONTINUOUS
10
3.39429
20
-2.49777
11
3.39348
21
-2.50394
0
LINE
8
BLACK
6
CONTINUOUS
10
3.39348
20
-2.50394
11
3.39348
21
-2.50394
0
LINE
8
BLACK
6
CONTINUOUS
10
3.39348
20
-2.50394
11
3.39429
21
-2.51011
0
LINE
8
BLACK
6
CONTINUOUS
10
3.39429
20
-2.51011
11
3.39429
21
-2.51011
0
LINE
8
BLACK
6
CONTINUOUS
10
3.39429
20
-2.51011
11
3.39667
21
-2.51586
0
LINE
8
BLACK
6
CONTINUOUS
10
3.39667
20
-2.51586
11
3.39667
21
-2.51586
0
LINE
8
BLACK
6
CONTINUOUS
10
3.39667
20
-2.51586
11
3.39667
21
-2.51586
0
LINE
8
BLACK
6
CONTINUOUS
10
3.39667
20
-2.51586
11
3.40046
21
-2.5208
0
LINE
8
BLACK
6
CONTINUOUS
10
3.40046
20
-2.5208
11
3.40151
21
-2.5216
0
LINE
8
BLACK
6
CONTINUOUS
10
3.40151
20
-2.5216
11
3.40298
21
-2.52273
0
LINE
8
BLACK
6
CONTINUOUS
10
3.40298
20
-2.52273
11
3.40435
21
-2.52472
0
LINE
8
BLACK
6
CONTINUOUS
10
3.40435
20
-2.52472
11
3.40451
21
-2.52583
0
LINE
8
BLACK
6
CONTINUOUS
10
3.40451
20
-2.52583
11
3.40451
21
-2.55607
0
LINE
8
BLACK
6
CONTINUOUS
10
3.40451
20
-2.55607
11
3.40376
21
-2.55836
0
LINE
8
BLACK
6
CONTINUOUS
10
3.40376
20
-2.55836
11
3.40337
21
-2.55883
0
LINE
8
BLACK
6
CONTINUOUS
10
3.40337
20
-2.55883
11
3.32998
21
-2.63221
0
LINE
8
BLACK
6
CONTINUOUS
10
3.32998
20
-2.63221
11
3.32985
21
-2.63233
0
LINE
8
BLACK
6
CONTINUOUS
10
3.32985
20
-2.63233
11
3.32861
21
-2.63337
0
LINE
8
BLACK
6
CONTINUOUS
10
3.32861
20
-2.63337
11
3.32861
21
-2.63337
0
LINE
8
BLACK
6
CONTINUOUS
10
3.32861
20
-2.63337
11
3.32781
21
-2.63477
0
LINE
8
BLACK
6
CONTINUOUS
10
3.32781
20
-2.63477
11
3.32772
21
-2.63491
0
LINE
8
BLACK
6
CONTINUOUS
10
3.32772
20
-2.63491
11
3.32679
21
-2.63623
0
LINE
8
BLACK
6
CONTINUOUS
10
3.32679
20
-2.63623
11
3.32679
21
-2.63623
0
LINE
8
BLACK
6
CONTINUOUS
10
3.32679
20
-2.63623
11
3.32677
21
-2.63629
0
LINE
8
BLACK
6
CONTINUOUS
10
3.32677
20
-2.63629
11
3.32638
21
-2.63723
0
LINE
8
BLACK
6
CONTINUOUS
10
3.32638
20
-2.63723
11
3.32635
21
-2.63728
0
LINE
8
BLACK
6
CONTINUOUS
10
3.32635
20
-2.63728
11
3.32635
21
-2.63728
0
LINE
8
BLACK
6
CONTINUOUS
10
3.32635
20
-2.63728
11
3.32607
21
-2.63887
0
LINE
8
BLACK
6
CONTINUOUS
10
3.32607
20
-2.63887
11
3.32604
21
-2.63904
0
LINE
8
BLACK
6
CONTINUOUS
10
3.32604
20
-2.63904
11
3.32562
21
-2.6406
0
LINE
8
BLACK
6
CONTINUOUS
10
3.32562
20
-2.6406
11
3.32562
21
-2.6406
0
LINE
8
BLACK
6
CONTINUOUS
10
3.32562
20
-2.6406
11
3.32576
21
-2.64221
0
LINE
8
BLACK
6
CONTINUOUS
10
3.32576
20
-2.64221
11
3.32577
21
-2.64238
0
LINE
8
BLACK
6
CONTINUOUS
10
3.32577
20
-2.64238
11
3.32577
21
-2.69227
0
LINE
8
BLACK
6
CONTINUOUS
10
3.32577
20
-2.69227
11
3.32576
21
-2.69244
0
LINE
8
BLACK
6
CONTINUOUS
10
3.32576
20
-2.69244
11
3.32564
21
-2.69377
0
LINE
8
BLACK
6
CONTINUOUS
10
3.32564
20
-2.69377
11
3.32562
21
-2.69405
0
LINE
8
BLACK
6
CONTINUOUS
10
3.32562
20
-2.69405
11
3.32604
21
-2.69561
0
LINE
8
BLACK
6
CONTINUOUS
10
2.91001
20
-2.38155
11
2.91001
21
-2.38155
0
LINE
8
BLACK
6
CONTINUOUS
10
2.91001
20
-2.38155
11
2.91001
21
-2.38155
0
LINE
8
BLACK
6
CONTINUOUS
10
2.91001
20
-2.38155
11
2.91001
21
-2.38155
0
LINE
8
BLACK
6
CONTINUOUS
10
2.91001
20
-2.38155
11
2.91235
21
-2.40076
0
LINE
8
BLACK
6
CONTINUOUS
10
2.91235
20
-2.40076
11
2.91235
21
-2.40076
0
LINE
8
BLACK
6
CONTINUOUS
10
2.91235
20
-2.40076
11
2.91622
21
-2.41973
0
LINE
8
BLACK
6
CONTINUOUS
10
2.91622
20
-2.41973
11
2.91622
21
-2.41973
0
LINE
8
BLACK
6
CONTINUOUS
10
2.91622
20
-2.41973
11
2.9216
21
-2.43832
0
LINE
8
BLACK
6
CONTINUOUS
10
2.9216
20
-2.43832
11
2.9216
21
-2.43832
0
LINE
8
BLACK
6
CONTINUOUS
10
2.9216
20
-2.43832
11
2.92443
21
-2.44578
0
LINE
8
BLACK
6
CONTINUOUS
10
2.92443
20
-2.44578
11
2.92847
21
-2.45642
0
LINE
8
BLACK
6
CONTINUOUS
10
2.92847
20
-2.45642
11
2.93457
21
-2.46927
0
LINE
8
BLACK
6
CONTINUOUS
10
2.93457
20
-2.46927
11
2.93672
21
-2.4738
0
LINE
8
BLACK
6
CONTINUOUS
10
2.93672
20
-2.4738
11
2.93677
21
-2.47391
0
LINE
8
BLACK
6
CONTINUOUS
10
2.93677
20
-2.47391
11
2.94645
21
-2.49068
0
LINE
8
BLACK
6
CONTINUOUS
10
2.94645
20
-2.49068
11
2.94645
21
-2.49068
0
LINE
8
BLACK
6
CONTINUOUS
10
2.94645
20
-2.49068
11
2.95744
21
-2.50661
0
LINE
8
BLACK
6
CONTINUOUS
10
2.95744
20
-2.50661
11
2.96969
21
-2.5216
0
LINE
8
BLACK
6
CONTINUOUS
10
2.96969
20
-2.5216
11
2.98308
21
-2.53555
0
LINE
8
BLACK
6
CONTINUOUS
10
2.98308
20
-2.53555
11
2.98309
21
-2.53556
0
LINE
8
BLACK
6
CONTINUOUS
10
2.98309
20
-2.53556
11
2.99087
21
-2.54245
0
LINE
8
BLACK
6
CONTINUOUS
10
2.99087
20
-2.54245
11
2.99758
21
-2.5484
0
LINE
8
BLACK
6
CONTINUOUS
10
2.99758
20
-2.5484
11
2.99758
21
-2.5484
0
LINE
8
BLACK
6
CONTINUOUS
10
2.99758
20
-2.5484
11
3.01306
21
-2.56003
0
LINE
8
BLACK
6
CONTINUOUS
10
3.01306
20
-2.56003
11
3.01673
21
-2.56235
0
LINE
8
BLACK
6
CONTINUOUS
10
3.01673
20
-2.56235
11
3.02942
21
-2.57037
0
LINE
8
BLACK
6
CONTINUOUS
10
3.02942
20
-2.57037
11
3.02942
21
-2.57037
0
LINE
8
BLACK
6
CONTINUOUS
10
3.02942
20
-2.57037
11
3.02942
21
-2.57037
0
LINE
8
BLACK
6
CONTINUOUS
10
3.02942
20
-2.57037
11
3.02942
21
-2.57037
0
LINE
8
BLACK
6
CONTINUOUS
10
3.02942
20
-2.57037
11
3.04467
21
-2.57838
0
LINE
8
BLACK
6
CONTINUOUS
10
3.04467
20
-2.57838
11
3.04656
21
-2.57937
0
LINE
8
BLACK
6
CONTINUOUS
10
3.04656
20
-2.57937
11
3.06437
21
-2.58696
0
LINE
8
BLACK
6
CONTINUOUS
10
3.06437
20
-2.58696
11
3.07344
21
-2.58999
0
LINE
8
BLACK
6
CONTINUOUS
10
3.07344
20
-2.58999
11
3.08273
21
-2.59309
0
LINE
8
BLACK
6
CONTINUOUS
10
3.08273
20
-2.59309
11
3.08273
21
-2.59309
0
LINE
8
BLACK
6
CONTINUOUS
10
3.08273
20
-2.59309
11
3.08273
21
-2.59309
0
LINE
8
BLACK
6
CONTINUOUS
10
3.08273
20
-2.59309
11
3.10153
21
-2.59772
0
LINE
8
BLACK
6
CONTINUOUS
10
3.10153
20
-2.59772
11
3.12063
21
-2.60082
0
LINE
8
BLACK
6
CONTINUOUS
10
3.12063
20
-2.60082
11
3.13993
21
-2.60238
0
LINE
8
BLACK
6
CONTINUOUS
10
3.13993
20
-2.60238
11
3.13993
21
-2.60238
0
LINE
8
BLACK
6
CONTINUOUS
10
3.13993
20
-2.60238
11
3.15928
21
-2.60238
0
LINE
8
BLACK
6
CONTINUOUS
10
3.15928
20
-2.60238
11
3.15929
21
-2.60238
0
LINE
8
BLACK
6
CONTINUOUS
10
3.15929
20
-2.60238
11
3.17858
21
-2.60082
0
LINE
8
BLACK
6
CONTINUOUS
10
3.17858
20
-2.60082
11
3.19769
21
-2.59772
0
LINE
8
BLACK
6
CONTINUOUS
10
3.19769
20
-2.59772
11
3.21648
21
-2.59309
0
LINE
8
BLACK
6
CONTINUOUS
10
3.21648
20
-2.59309
11
3.23484
21
-2.58696
0
LINE
8
BLACK
6
CONTINUOUS
10
3.23484
20
-2.58696
11
3.25265
21
-2.57937
0
LINE
8
BLACK
6
CONTINUOUS
10
3.25265
20
-2.57937
11
3.26233
21
-2.57429
0
LINE
8
BLACK
6
CONTINUOUS
10
3.26233
20
-2.57429
11
3.26979
21
-2.57037
0
LINE
8
BLACK
6
CONTINUOUS
10
3.26979
20
-2.57037
11
3.26979
21
-2.57037
0
LINE
8
BLACK
6
CONTINUOUS
10
3.26979
20
-2.57037
11
3.26979
21
-2.57037
0
LINE
8
BLACK
6
CONTINUOUS
10
3.26979
20
-2.57037
11
3.28615
21
-2.56003
0
LINE
8
BLACK
6
CONTINUOUS
10
3.28615
20
-2.56003
11
3.30163
21
-2.5484
0
LINE
8
BLACK
6
CONTINUOUS
10
3.30163
20
-2.5484
11
3.31612
21
-2.53556
0
LINE
8
BLACK
6
CONTINUOUS
10
3.31612
20
-2.53556
11
3.32953
21
-2.5216
0
LINE
8
BLACK
6
CONTINUOUS
10
3.32953
20
-2.5216
11
3.34177
21
-2.50661
0
LINE
8
BLACK
6
CONTINUOUS
10
3.34177
20
-2.50661
11
3.35277
21
-2.49068
0
LINE
8
BLACK
6
CONTINUOUS
10
3.35277
20
-2.49068
11
3.36245
21
-2.47391
0
LINE
8
BLACK
6
CONTINUOUS
10
3.36245
20
-2.47391
11
3.37074
21
-2.45642
0
LINE
8
BLACK
6
CONTINUOUS
10
3.37074
20
-2.45642
11
3.37761
21
-2.43832
0
LINE
8
BLACK
6
CONTINUOUS
10
3.37761
20
-2.43832
11
3.37761
21
-2.43832
0
LINE
8
BLACK
6
CONTINUOUS
10
3.37761
20
-2.43832
11
3.37761
21
-2.43832
0
LINE
8
BLACK
6
CONTINUOUS
10
3.37761
20
-2.43832
11
3.38299
21
-2.41973
0
LINE
8
BLACK
6
CONTINUOUS
10
3.38299
20
-2.41973
11
3.38299
21
-2.41973
0
LINE
8
BLACK
6
CONTINUOUS
10
3.38299
20
-2.41973
11
3.38299
21
-2.41973
0
LINE
8
BLACK
6
CONTINUOUS
10
3.38299
20
-2.41973
11
3.38687
21
-2.40076
0
LINE
8
BLACK
6
CONTINUOUS
10
3.38687
20
-2.40076
11
3.38818
21
-2.38997
0
LINE
8
BLACK
6
CONTINUOUS
10
3.38818
20
-2.38997
11
3.3892
21
-2.38155
0
LINE
8
BLACK
6
CONTINUOUS
10
3.3892
20
-2.38155
11
3.3892
21
-2.38155
0
LINE
8
BLACK
6
CONTINUOUS
10
3.3892
20
-2.38155
11
3.3892
21
-2.38155
0
LINE
8
BLACK
6
CONTINUOUS
10
3.3892
20
-2.38155
11
3.38998
21
-2.3622
0
LINE
8
BLACK
6
CONTINUOUS
10
3.38998
20
-2.3622
11
3.3892
21
-2.34286
0
LINE
8
BLACK
6
CONTINUOUS
10
3.3892
20
-2.34286
11
3.3892
21
-2.34286
0
LINE
8
BLACK
6
CONTINUOUS
10
3.3892
20
-2.34286
11
3.3892
21
-2.34286
0
LINE
8
BLACK
6
CONTINUOUS
10
3.3892
20
-2.34286
11
3.38687
21
-2.32365
0
LINE
8
BLACK
6
CONTINUOUS
10
3.38687
20
-2.32365
11
3.38687
21
-2.32365
0
LINE
8
BLACK
6
CONTINUOUS
10
3.38687
20
-2.32365
11
3.38299
21
-2.30468
0
LINE
8
BLACK
6
CONTINUOUS
10
3.38299
20
-2.30468
11
3.38299
21
-2.30468
0
LINE
8
BLACK
6
CONTINUOUS
10
3.38299
20
-2.30468
11
3.37761
21
-2.28609
0
LINE
8
BLACK
6
CONTINUOUS
10
3.37761
20
-2.28609
11
3.37761
21
-2.28609
0
LINE
8
BLACK
6
CONTINUOUS
10
3.37761
20
-2.28609
11
3.3769
21
-2.28421
0
LINE
8
BLACK
6
CONTINUOUS
10
3.3769
20
-2.28421
11
3.37074
21
-2.26799
0
LINE
8
BLACK
6
CONTINUOUS
10
3.37074
20
-2.26799
11
3.36245
21
-2.2505
0
LINE
8
BLACK
6
CONTINUOUS
10
3.36245
20
-2.2505
11
3.35277
21
-2.23373
0
LINE
8
BLACK
6
CONTINUOUS
10
3.35277
20
-2.23373
11
3.34498
21
-2.22246
0
LINE
8
BLACK
6
CONTINUOUS
10
3.34498
20
-2.22246
11
3.34177
21
-2.2178
0
LINE
8
BLACK
6
CONTINUOUS
10
3.34177
20
-2.2178
11
3.32953
21
-2.20281
0
LINE
8
BLACK
6
CONTINUOUS
10
3.32953
20
-2.20281
11
3.31612
21
-2.18885
0
LINE
8
BLACK
6
CONTINUOUS
10
3.31612
20
-2.18885
11
3.31094
21
-2.18426
0
LINE
8
BLACK
6
CONTINUOUS
10
3.31094
20
-2.18426
11
3.30525
21
-2.17922
0
LINE
8
BLACK
6
CONTINUOUS
10
3.30525
20
-2.17922
11
3.30163
21
-2.17601
0
LINE
8
BLACK
6
CONTINUOUS
10
3.30163
20
-2.17601
11
3.30163
21
-2.17601
0
LINE
8
BLACK
6
CONTINUOUS
10
3.30163
20
-2.17601
11
3.28615
21
-2.16438
0
LINE
8
BLACK
6
CONTINUOUS
10
3.28615
20
-2.16438
11
3.27468
21
-2.15713
0
LINE
8
BLACK
6
CONTINUOUS
10
3.27468
20
-2.15713
11
3.26979
21
-2.15404
0
LINE
8
BLACK
6
CONTINUOUS
10
3.26979
20
-2.15404
11
3.26979
21
-2.15404
0
LINE
8
BLACK
6
CONTINUOUS
10
3.26979
20
-2.15404
11
3.26979
21
-2.15404
0
LINE
8
BLACK
6
CONTINUOUS
10
3.26979
20
-2.15404
11
3.26979
21
-2.15404
0
LINE
8
BLACK
6
CONTINUOUS
10
3.26979
20
-2.15404
11
3.25265
21
-2.14504
0
LINE
8
BLACK
6
CONTINUOUS
10
3.25265
20
-2.14504
11
3.25265
21
-2.14504
0
LINE
8
BLACK
6
CONTINUOUS
10
3.25265
20
-2.14504
11
3.25265
21
-2.14504
0
LINE
8
BLACK
6
CONTINUOUS
10
3.25265
20
-2.14504
11
3.25265
21
-2.14504
0
LINE
8
BLACK
6
CONTINUOUS
10
3.25265
20
-2.14504
11
3.23484
21
-2.13745
0
LINE
8
BLACK
6
CONTINUOUS
10
3.23484
20
-2.13745
11
3.23484
21
-2.13745
0
LINE
8
BLACK
6
CONTINUOUS
10
3.23484
20
-2.13745
11
3.23484
21
-2.13745
0
LINE
8
BLACK
6
CONTINUOUS
10
3.23484
20
-2.13745
11
3.21648
21
-2.13132
0
LINE
8
BLACK
6
CONTINUOUS
10
3.21648
20
-2.13132
11
3.21648
21
-2.13132
0
LINE
8
BLACK
6
CONTINUOUS
10
3.21648
20
-2.13132
11
3.20226
21
-2.12782
0
LINE
8
BLACK
6
CONTINUOUS
10
3.20226
20
-2.12782
11
3.19769
21
-2.12669
0
LINE
8
BLACK
6
CONTINUOUS
10
3.19769
20
-2.12669
11
3.17858
21
-2.12359
0
LINE
8
BLACK
6
CONTINUOUS
10
3.17858
20
-2.12359
11
3.17858
21
-2.12359
0
LINE
8
BLACK
6
CONTINUOUS
10
3.17858
20
-2.12359
11
3.16776
21
-2.12271
0
LINE
8
BLACK
6
CONTINUOUS
10
3.16776
20
-2.12271
11
3.15929
21
-2.12203
0
LINE
8
BLACK
6
CONTINUOUS
10
3.15929
20
-2.12203
11
3.13993
21
-2.12203
0
LINE
8
BLACK
6
CONTINUOUS
10
3.13993
20
-2.12203
11
3.13214
21
-2.12266
0
LINE
8
BLACK
6
CONTINUOUS
10
3.13214
20
-2.12266
11
3.12063
21
-2.12359
0
LINE
8
BLACK
6
CONTINUOUS
10
3.12063
20
-2.12359
11
3.10153
21
-2.12669
0
LINE
8
BLACK
6
CONTINUOUS
10
3.10153
20
-2.12669
11
3.08273
21
-2.13132
0
LINE
8
BLACK
6
CONTINUOUS
10
3.08273
20
-2.13132
11
3.08273
21
-2.13132
0
LINE
8
BLACK
6
CONTINUOUS
10
3.08273
20
-2.13132
11
3.06437
21
-2.13745
0
LINE
8
BLACK
6
CONTINUOUS
10
3.06437
20
-2.13745
11
3.05285
21
-2.14236
0
LINE
8
BLACK
6
CONTINUOUS
10
3.05285
20
-2.14236
11
3.04656
21
-2.14504
0
LINE
8
BLACK
6
CONTINUOUS
10
3.04656
20
-2.14504
11
3.04656
21
-2.14504
0
LINE
8
BLACK
6
CONTINUOUS
10
3.04656
20
-2.14504
11
3.04656
21
-2.14504
0
LINE
8
BLACK
6
CONTINUOUS
10
3.04656
20
-2.14504
11
3.04656
21
-2.14504
0
LINE
8
BLACK
6
CONTINUOUS
10
3.04656
20
-2.14504
11
3.02942
21
-2.15404
0
LINE
8
BLACK
6
CONTINUOUS
10
3.02942
20
-2.15404
11
3.02942
21
-2.15404
0
LINE
8
BLACK
6
CONTINUOUS
10
3.02942
20
-2.15404
11
3.01306
21
-2.16438
0
LINE
8
BLACK
6
CONTINUOUS
10
3.01306
20
-2.16438
11
2.99758
21
-2.17601
0
LINE
8
BLACK
6
CONTINUOUS
10
2.99758
20
-2.17601
11
2.99758
21
-2.17601
0
LINE
8
BLACK
6
CONTINUOUS
10
2.99758
20
-2.17601
11
2.98309
21
-2.18885
0
LINE
8
BLACK
6
CONTINUOUS
10
2.98309
20
-2.18885
11
2.96969
21
-2.20281
0
LINE
8
BLACK
6
CONTINUOUS
10
2.96969
20
-2.20281
11
2.95744
21
-2.2178
0
LINE
8
BLACK
6
CONTINUOUS
10
2.95744
20
-2.2178
11
2.94645
21
-2.23373
0
LINE
8
BLACK
6
CONTINUOUS
10
2.94645
20
-2.23373
11
2.93677
21
-2.2505
0
LINE
8
BLACK
6
CONTINUOUS
10
2.93677
20
-2.2505
11
2.92847
21
-2.26799
0
LINE
8
BLACK
6
CONTINUOUS
10
2.92847
20
-2.26799
11
2.9216
21
-2.28609
0
LINE
8
BLACK
6
CONTINUOUS
10
2.9216
20
-2.28609
11
2.9216
21
-2.28609
0
LINE
8
BLACK
6
CONTINUOUS
10
2.9216
20
-2.28609
11
2.91622
21
-2.30468
0
LINE
8
BLACK
6
CONTINUOUS
10
2.91622
20
-2.30468
11
2.91622
21
-2.30468
0
LINE
8
BLACK
6
CONTINUOUS
10
2.91622
20
-2.30468
11
2.91235
21
-2.32365
0
LINE
8
BLACK
6
CONTINUOUS
10
2.91235
20
-2.32365
11
2.91235
21
-2.32365
0
LINE
8
BLACK
6
CONTINUOUS
10
2.91235
20
-2.32365
11
2.91001
21
-2.34286
0
LINE
8
BLACK
6
CONTINUOUS
10
2.91001
20
-2.34286
11
2.91001
21
-2.34286
0
LINE
8
BLACK
6
CONTINUOUS
10
2.91001
20
-2.34286
11
2.91001
21
-2.34286
0
LINE
8
BLACK
6
CONTINUOUS
10
2.91001
20
-2.34286
11
2.91001
21
-2.34286
0
LINE
8
BLACK
6
CONTINUOUS
10
2.91001
20
-2.34286
11
2.90923
21
-2.3622
0
LINE
8
BLACK
6
CONTINUOUS
10
2.90923
20
-2.3622
11
2.91001
21
-2.38155
0
LINE
8
BLACK
6
CONTINUOUS
10
3.58858
20
-2.30512
11
3.60413
21
-2.30512
0
LINE
8
BLACK
6
CONTINUOUS
10
3.60413
20
-2.30512
11
3.60413
21
-2.30512
0
LINE
8
BLACK
6
CONTINUOUS
10
3.60413
20
-2.30512
11
3.60511
21
-2.305
0
LINE
8
BLACK
6
CONTINUOUS
10
3.60511
20
-2.305
11
3.60915
21
-2.30322
0
LINE
8
BLACK
6
CONTINUOUS
10
3.60915
20
-2.30322
11
3.61228
21
-2.3001
0
LINE
8
BLACK
6
CONTINUOUS
10
3.61228
20
-2.3001
11
3.61406
21
-2.29606
0
LINE
8
BLACK
6
CONTINUOUS
10
3.61406
20
-2.29606
11
3.61417
21
-2.29507
0
LINE
8
BLACK
6
CONTINUOUS
10
3.61417
20
-2.29507
11
3.61417
21
-2.29507
0
LINE
8
BLACK
6
CONTINUOUS
10
3.61417
20
-2.29507
11
3.61417
21
-2.24508
0
LINE
8
BLACK
6
CONTINUOUS
10
3.61417
20
-2.24508
11
3.61417
21
-2.24508
0
LINE
8
BLACK
6
CONTINUOUS
10
3.61417
20
-2.24508
11
3.60236
21
-2.24508
0
LINE
8
BLACK
6
CONTINUOUS
10
3.60236
20
-2.24508
11
3.60236
21
-2.29331
0
LINE
8
BLACK
6
CONTINUOUS
10
3.60236
20
-2.29331
11
3.58858
21
-2.29331
0
LINE
8
BLACK
6
CONTINUOUS
10
3.58858
20
-2.29331
11
3.58858
21
-2.30512
0
LINE
8
BLACK
6
CONTINUOUS
10
3.58858
20
-2.30512
11
3.58858
21
-2.30512
0
LINE
8
BLACK
6
CONTINUOUS
10
3.55118
20
-2.23327
11
3.56299
21
-2.23327
0
LINE
8
BLACK
6
CONTINUOUS
10
3.56299
20
-2.23327
11
3.56299
21
-2.18504
0
LINE
8
BLACK
6
CONTINUOUS
10
3.56299
20
-2.18504
11
3.57677
21
-2.18504
0
LINE
8
BLACK
6
CONTINUOUS
10
3.57677
20
-2.18504
11
3.57677
21
-2.17323
0
LINE
8
BLACK
6
CONTINUOUS
10
3.57677
20
-2.17323
11
3.56123
21
-2.17323
0
LINE
8
BLACK
6
CONTINUOUS
10
3.56123
20
-2.17323
11
3.56123
21
-2.17323
0
LINE
8
BLACK
6
CONTINUOUS
10
3.56123
20
-2.17323
11
3.56024
21
-2.17334
0
LINE
8
BLACK
6
CONTINUOUS
10
3.56024
20
-2.17334
11
3.5562
21
-2.17513
0
LINE
8
BLACK
6
CONTINUOUS
10
3.5562
20
-2.17513
11
3.55308
21
-2.17825
0
LINE
8
BLACK
6
CONTINUOUS
10
3.55308
20
-2.17825
11
3.5513
21
-2.18229
0
LINE
8
BLACK
6
CONTINUOUS
10
3.5513
20
-2.18229
11
3.55118
21
-2.18328
0
LINE
8
BLACK
6
CONTINUOUS
10
3.55118
20
-2.18328
11
3.55118
21
-2.23327
0
LINE
8
BLACK
6
CONTINUOUS
10
3.55118
20
-2.23327
11
3.55118
21
-2.23327
0
LINE
8
BLACK
6
CONTINUOUS
10
2.70334
20
-1.97777
11
2.70575
21
-1.98676
0
LINE
8
BLACK
6
CONTINUOUS
10
2.70575
20
-1.98676
11
2.70968
21
-1.99519
0
LINE
8
BLACK
6
CONTINUOUS
10
2.70968
20
-1.99519
11
2.70968
21
-1.99519
0
LINE
8
BLACK
6
CONTINUOUS
10
2.70968
20
-1.99519
11
2.70968
21
-1.99519
0
LINE
8
BLACK
6
CONTINUOUS
10
2.70968
20
-1.99519
11
2.70968
21
-1.99519
0
LINE
8
BLACK
6
CONTINUOUS
10
2.70968
20
-1.99519
11
2.71502
21
-2.00281
0
LINE
8
BLACK
6
CONTINUOUS
10
2.71502
20
-2.00281
11
2.7216
21
-2.00939
0
LINE
8
BLACK
6
CONTINUOUS
10
2.7216
20
-2.00939
11
2.72922
21
-2.01473
0
LINE
8
BLACK
6
CONTINUOUS
10
2.72922
20
-2.01473
11
2.72922
21
-2.01473
0
LINE
8
BLACK
6
CONTINUOUS
10
2.72922
20
-2.01473
11
2.72922
21
-2.01473
0
LINE
8
BLACK
6
CONTINUOUS
10
2.72922
20
-2.01473
11
2.72922
21
-2.01473
0
LINE
8
BLACK
6
CONTINUOUS
10
2.72922
20
-2.01473
11
2.73765
21
-2.01866
0
LINE
8
BLACK
6
CONTINUOUS
10
2.73765
20
-2.01866
11
2.73765
21
-2.01866
0
LINE
8
BLACK
6
CONTINUOUS
10
2.73765
20
-2.01866
11
2.74664
21
-2.02107
0
LINE
8
BLACK
6
CONTINUOUS
10
2.74664
20
-2.02107
11
2.74664
21
-2.02107
0
LINE
8
BLACK
6
CONTINUOUS
10
2.74664
20
-2.02107
11
2.74664
21
-2.02107
0
LINE
8
BLACK
6
CONTINUOUS
10
2.74664
20
-2.02107
11
2.75358
21
-2.02167
0
LINE
8
BLACK
6
CONTINUOUS
10
2.75358
20
-2.02167
11
2.75358
21
-2.02167
0
LINE
8
BLACK
6
CONTINUOUS
10
2.75358
20
-2.02167
11
2.75823
21
-2.02167
0
LINE
8
BLACK
6
CONTINUOUS
10
2.75823
20
-2.02167
11
2.76517
21
-2.02107
0
LINE
8
BLACK
6
CONTINUOUS
10
2.76517
20
-2.02107
11
2.76517
21
-2.02107
0
LINE
8
BLACK
6
CONTINUOUS
10
2.76517
20
-2.02107
11
2.76517
21
-2.02107
0
LINE
8
BLACK
6
CONTINUOUS
10
2.76517
20
-2.02107
11
2.77416
21
-2.01866
0
LINE
8
BLACK
6
CONTINUOUS
10
2.77416
20
-2.01866
11
2.78259
21
-2.01473
0
LINE
8
BLACK
6
CONTINUOUS
10
2.78259
20
-2.01473
11
2.79021
21
-2.00939
0
LINE
8
BLACK
6
CONTINUOUS
10
2.79021
20
-2.00939
11
2.79679
21
-2.00281
0
LINE
8
BLACK
6
CONTINUOUS
10
2.79679
20
-2.00281
11
2.80213
21
-1.99519
0
LINE
8
BLACK
6
CONTINUOUS
10
2.80213
20
-1.99519
11
2.80606
21
-1.98676
0
LINE
8
BLACK
6
CONTINUOUS
10
2.80606
20
-1.98676
11
2.80847
21
-1.97777
0
LINE
8
BLACK
6
CONTINUOUS
10
2.80847
20
-1.97777
11
2.80928
21
-1.9685
0
LINE
8
BLACK
6
CONTINUOUS
10
2.80928
20
-1.9685
11
2.80928
21
-1.9685
0
LINE
8
BLACK
6
CONTINUOUS
10
2.80928
20
-1.9685
11
2.80847
21
-1.95924
0
LINE
8
BLACK
6
CONTINUOUS
10
2.80847
20
-1.95924
11
2.80606
21
-1.95025
0
LINE
8
BLACK
6
CONTINUOUS
10
2.80606
20
-1.95025
11
2.80213
21
-1.94182
0
LINE
8
BLACK
6
CONTINUOUS
10
2.80213
20
-1.94182
11
2.79679
21
-1.9342
0
LINE
8
BLACK
6
CONTINUOUS
10
2.79679
20
-1.9342
11
2.79021
21
-1.92762
0
LINE
8
BLACK
6
CONTINUOUS
10
2.79021
20
-1.92762
11
2.79021
21
-1.92762
0
LINE
8
BLACK
6
CONTINUOUS
10
2.79021
20
-1.92762
11
2.79021
21
-1.92762
0
LINE
8
BLACK
6
CONTINUOUS
10
2.79021
20
-1.92762
11
2.7826
21
-1.92229
0
LINE
8
BLACK
6
CONTINUOUS
10
2.7826
20
-1.92229
11
2.78259
21
-1.92228
0
LINE
8
BLACK
6
CONTINUOUS
10
2.78259
20
-1.92228
11
2.78259
21
-1.92228
0
LINE
8
BLACK
6
CONTINUOUS
10
2.78259
20
-1.92228
11
2.78259
21
-1.92228
0
LINE
8
BLACK
6
CONTINUOUS
10
2.78259
20
-1.92228
11
2.78259
21
-1.92228
0
LINE
8
BLACK
6
CONTINUOUS
10
2.78259
20
-1.92228
11
2.77416
21
-1.91835
0
LINE
8
BLACK
6
CONTINUOUS
10
2.77416
20
-1.91835
11
2.77416
21
-1.91835
0
LINE
8
BLACK
6
CONTINUOUS
10
2.77416
20
-1.91835
11
2.77116
21
-1.91755
0
LINE
8
BLACK
6
CONTINUOUS
10
2.77116
20
-1.91755
11
2.76517
21
-1.91594
0
LINE
8
BLACK
6
CONTINUOUS
10
2.76517
20
-1.91594
11
2.76517
21
-1.91594
0
LINE
8
BLACK
6
CONTINUOUS
10
2.76517
20
-1.91594
11
2.76517
21
-1.91594
0
LINE
8
BLACK
6
CONTINUOUS
10
2.76517
20
-1.91594
11
2.75823
21
-1.91533
0
LINE
8
BLACK
6
CONTINUOUS
10
2.75823
20
-1.91533
11
2.75823
21
-1.91533
0
LINE
8
BLACK
6
CONTINUOUS
10
2.75823
20
-1.91533
11
2.75358
21
-1.91533
0
LINE
8
BLACK
6
CONTINUOUS
10
2.75358
20
-1.91533
11
2.75358
21
-1.91533
0
LINE
8
BLACK
6
CONTINUOUS
10
2.75358
20
-1.91533
11
2.74664
21
-1.91594
0
LINE
8
BLACK
6
CONTINUOUS
10
2.74664
20
-1.91594
11
2.73765
21
-1.91835
0
LINE
8
BLACK
6
CONTINUOUS
10
2.73765
20
-1.91835
11
2.72922
21
-1.92228
0
LINE
8
BLACK
6
CONTINUOUS
10
2.72922
20
-1.92228
11
2.72922
21
-1.92228
0
LINE
8
BLACK
6
CONTINUOUS
10
2.72922
20
-1.92228
11
2.7216
21
-1.92762
0
LINE
8
BLACK
6
CONTINUOUS
10
2.7216
20
-1.92762
11
2.71502
21
-1.9342
0
LINE
8
BLACK
6
CONTINUOUS
10
2.71502
20
-1.9342
11
2.70968
21
-1.94182
0
LINE
8
BLACK
6
CONTINUOUS
10
2.70968
20
-1.94182
11
2.70575
21
-1.95025
0
LINE
8
BLACK
6
CONTINUOUS
10
2.70575
20
-1.95025
11
2.70334
21
-1.95924
0
LINE
8
BLACK
6
CONTINUOUS
10
2.70334
20
-1.95924
11
2.70253
21
-1.9685
0
LINE
8
BLACK
6
CONTINUOUS
10
2.70253
20
-1.9685
11
2.70253
21
-1.9685
0
LINE
8
BLACK
6
CONTINUOUS
10
2.70253
20
-1.9685
11
2.70334
21
-1.97777
0
LINE
8
BLACK
6
CONTINUOUS
10
3.49306
20
-2.76455
11
3.49745
21
-2.76679
0
LINE
8
BLACK
6
CONTINUOUS
10
3.49745
20
-2.76679
11
3.50093
21
-2.77027
0
LINE
8
BLACK
6
CONTINUOUS
10
3.50093
20
-2.77027
11
3.50317
21
-2.77466
0
LINE
8
BLACK
6
CONTINUOUS
10
3.50317
20
-2.77466
11
3.50394
21
-2.77953
0
LINE
8
BLACK
6
CONTINUOUS
10
3.50394
20
-2.77953
11
3.50317
21
-2.78439
0
LINE
8
BLACK
6
CONTINUOUS
10
3.50317
20
-2.78439
11
3.50093
21
-2.78878
0
LINE
8
BLACK
6
CONTINUOUS
10
3.50093
20
-2.78878
11
3.49745
21
-2.79227
0
LINE
8
BLACK
6
CONTINUOUS
10
3.49745
20
-2.79227
11
3.49311
21
-2.79448
0
LINE
8
BLACK
6
CONTINUOUS
10
3.49311
20
-2.79448
11
3.49311
21
-2.79607
0
LINE
8
BLACK
6
CONTINUOUS
10
3.49311
20
-2.79607
11
3.49745
21
-2.79828
0
LINE
8
BLACK
6
CONTINUOUS
10
3.49745
20
-2.79828
11
3.50093
21
-2.80177
0
LINE
8
BLACK
6
CONTINUOUS
10
3.50093
20
-2.80177
11
3.50317
21
-2.80616
0
LINE
8
BLACK
6
CONTINUOUS
10
3.50317
20
-2.80616
11
3.50394
21
-2.81102
0
LINE
8
BLACK
6
CONTINUOUS
10
3.50394
20
-2.81102
11
3.50317
21
-2.81589
0
LINE
8
BLACK
6
CONTINUOUS
10
3.50317
20
-2.81589
11
3.50093
21
-2.82028
0
LINE
8
BLACK
6
CONTINUOUS
10
3.50093
20
-2.82028
11
3.49745
21
-2.82376
0
LINE
8
BLACK
6
CONTINUOUS
10
3.49745
20
-2.82376
11
3.49306
21
-2.826
0
LINE
8
BLACK
6
CONTINUOUS
10
3.49306
20
-2.826
11
3.48819
21
-2.82677
0
LINE
8
BLACK
6
CONTINUOUS
10
3.48819
20
-2.82677
11
3.48332
21
-2.826
0
LINE
8
BLACK
6
CONTINUOUS
10
3.48332
20
-2.826
11
3.47893
21
-2.82376
0
LINE
8
BLACK
6
CONTINUOUS
10
3.47893
20
-2.82376
11
3.47545
21
-2.82028
0
LINE
8
BLACK
6
CONTINUOUS
10
3.47545
20
-2.82028
11
3.47324
21
-2.81594
0
LINE
8
BLACK
6
CONTINUOUS
10
3.47324
20
-2.81594
11
3.36534
21
-2.81594
0
LINE
8
BLACK
6
CONTINUOUS
10
3.36534
20
-2.81594
11
3.36313
21
-2.82028
0
LINE
8
BLACK
6
CONTINUOUS
10
3.36313
20
-2.82028
11
3.35965
21
-2.82376
0
LINE
8
BLACK
6
CONTINUOUS
10
3.35965
20
-2.82376
11
3.35526
21
-2.826
0
LINE
8
BLACK
6
CONTINUOUS
10
3.35526
20
-2.826
11
3.35039
21
-2.82677
0
LINE
8
BLACK
6
CONTINUOUS
10
3.35039
20
-2.82677
11
3.34553
21
-2.826
0
LINE
8
BLACK
6
CONTINUOUS
10
3.34553
20
-2.826
11
3.34114
21
-2.82376
0
LINE
8
BLACK
6
CONTINUOUS
10
3.34114
20
-2.82376
11
3.33765
21
-2.82028
0
LINE
8
BLACK
6
CONTINUOUS
10
3.33765
20
-2.82028
11
3.33542
21
-2.81589
0
LINE
8
BLACK
6
CONTINUOUS
10
3.33542
20
-2.81589
11
3.33465
21
-2.81102
0
LINE
8
BLACK
6
CONTINUOUS
10
3.33465
20
-2.81102
11
3.33542
21
-2.80616
0
LINE
8
BLACK
6
CONTINUOUS
10
3.33542
20
-2.80616
11
3.33765
21
-2.80177
0
LINE
8
BLACK
6
CONTINUOUS
10
3.33765
20
-2.80177
11
3.34114
21
-2.79828
0
LINE
8
BLACK
6
CONTINUOUS
10
3.34114
20
-2.79828
11
3.34547
21
-2.79607
0
LINE
8
BLACK
6
CONTINUOUS
10
3.34547
20
-2.79607
11
3.34547
21
-2.79448
0
LINE
8
BLACK
6
CONTINUOUS
10
3.34547
20
-2.79448
11
3.34114
21
-2.79227
0
LINE
8
BLACK
6
CONTINUOUS
10
3.34114
20
-2.79227
11
3.33765
21
-2.78878
0
LINE
8
BLACK
6
CONTINUOUS
10
3.33765
20
-2.78878
11
3.33542
21
-2.78439
0
LINE
8
BLACK
6
CONTINUOUS
10
3.33542
20
-2.78439
11
3.33465
21
-2.77953
0
LINE
8
BLACK
6
CONTINUOUS
10
3.33465
20
-2.77953
11
3.33542
21
-2.77466
0
LINE
8
BLACK
6
CONTINUOUS
10
3.33542
20
-2.77466
11
3.33765
21
-2.77027
0
LINE
8
BLACK
6
CONTINUOUS
10
3.33765
20
-2.77027
11
3.34114
21
-2.76679
0
LINE
8
BLACK
6
CONTINUOUS
10
3.34114
20
-2.76679
11
3.34553
21
-2.76455
0
LINE
8
BLACK
6
CONTINUOUS
10
3.34553
20
-2.76455
11
3.35039
21
-2.76378
0
LINE
8
BLACK
6
CONTINUOUS
10
3.35039
20
-2.76378
11
3.35526
21
-2.76455
0
LINE
8
BLACK
6
CONTINUOUS
10
3.35526
20
-2.76455
11
3.35965
21
-2.76679
0
LINE
8
BLACK
6
CONTINUOUS
10
3.35965
20
-2.76679
11
3.36313
21
-2.77027
0
LINE
8
BLACK
6
CONTINUOUS
10
3.36313
20
-2.77027
11
3.36534
21
-2.77461
0
LINE
8
BLACK
6
CONTINUOUS
10
3.36534
20
-2.77461
11
3.47324
21
-2.77461
0
LINE
8
BLACK
6
CONTINUOUS
10
3.47324
20
-2.77461
11
3.47545
21
-2.77027
0
LINE
8
BLACK
6
CONTINUOUS
10
3.47545
20
-2.77027
11
3.47893
21
-2.76679
0
LINE
8
BLACK
6
CONTINUOUS
10
3.47893
20
-2.76679
11
3.48332
21
-2.76455
0
LINE
8
BLACK
6
CONTINUOUS
10
3.48332
20
-2.76455
11
3.48819
21
-2.76378
0
LINE
8
BLACK
6
CONTINUOUS
10
3.48819
20
-2.76378
11
3.49306
21
-2.76455
0
LINE
8
BLACK
6
CONTINUOUS
10
3.36534
20
-2.78445
11
3.36313
21
-2.78878
0
LINE
8
BLACK
6
CONTINUOUS
10
3.36313
20
-2.78878
11
3.35965
21
-2.79227
0
LINE
8
BLACK
6
CONTINUOUS
10
3.35965
20
-2.79227
11
3.35531
21
-2.79448
0
LINE
8
BLACK
6
CONTINUOUS
10
3.35531
20
-2.79448
11
3.35531
21
-2.79607
0
LINE
8
BLACK
6
CONTINUOUS
10
3.35531
20
-2.79607
11
3.35965
21
-2.79828
0
LINE
8
BLACK
6
CONTINUOUS
10
3.35965
20
-2.79828
11
3.36313
21
-2.80177
0
LINE
8
BLACK
6
CONTINUOUS
10
3.36313
20
-2.80177
11
3.36534
21
-2.8061
0
LINE
8
BLACK
6
CONTINUOUS
10
3.36534
20
-2.8061
11
3.36614
21
-2.8061
0
LINE
8
BLACK
6
CONTINUOUS
10
3.36614
20
-2.8061
11
3.36614
21
-2.78445
0
LINE
8
BLACK
6
CONTINUOUS
10
3.36614
20
-2.78445
11
3.36534
21
-2.78445
0
LINE
8
BLACK
6
CONTINUOUS
10
3.47441
20
-2.80381
11
3.47545
21
-2.80177
0
LINE
8
BLACK
6
CONTINUOUS
10
3.47545
20
-2.80177
11
3.47893
21
-2.79828
0
LINE
8
BLACK
6
CONTINUOUS
10
3.47893
20
-2.79828
11
3.48327
21
-2.79607
0
LINE
8
BLACK
6
CONTINUOUS
10
3.48327
20
-2.79607
11
3.48327
21
-2.79448
0
LINE
8
BLACK
6
CONTINUOUS
10
3.48327
20
-2.79448
11
3.47893
21
-2.79227
0
LINE
8
BLACK
6
CONTINUOUS
10
3.47893
20
-2.79227
11
3.47545
21
-2.78878
0
LINE
8
BLACK
6
CONTINUOUS
10
3.47545
20
-2.78878
11
3.47441
21
-2.78674
0
LINE
8
BLACK
6
CONTINUOUS
10
3.47441
20
-2.78674
11
3.47441
21
-2.80381
0
CIRCLE
8
BLACK
10
3.54331
20
-1.9685
40
0.0433071
0
CIRCLE
8
BLACK
10
2.75591
20
-1.9685
40
0.0433071
0
CIRCLE
8
BLACK
10
2.75591
20
-2.75591
40
0.0433071
0
CIRCLE
8
BLACK
10
3.41732
20
-2.50394
40
0.00787402
0
CIRCLE
8
BLACK
10
2.91339
20
-2.04724
40
0.00787402
0
CIRCLE
8
BLACK
10
3.54048
20
-2.31511
40
0.00787402
0
CIRCLE
8
BLACK
10
2.75873
20
-2.4093
40
0.00787402
0
CIRCLE
8
BLACK
10
2.99495
20
-2.72426
40
0.00787402
0
CIRCLE
8
BLACK
10
3.1967
20
-2.75308
40
0.00787402
0
CIRCLE
8
BLACK
10
3.30426
20
-2.00015
40
0.00787402
0
CIRCLE
8
BLACK
10
2.83465
20
-2.59843
40
0.00787402
0
CIRCLE
8
BLACK
10
3.40157
20
-2.66535
40
0.00787402
0
CIRCLE
8
BLACK
10
2.78755
20
-2.20755
40
0.00787402
0
CIRCLE
8
BLACK
10
3.46457
20
-2.12598
40
0.00787402
0
CIRCLE
8
BLACK
10
3.48425
20
-2.59843
40
0.00787402
0
CIRCLE
8
BLACK
10
3.10251
20
-1.97133
40
0.00787402
0
CIRCLE
8
BLACK
10
3.56693
20
-2.41732
40
0.00787402
0
CIRCLE
8
BLACK
10
3.35039
20
-2.77953
40
0.00787402
0
CIRCLE
8
BLACK
10
3.59843
20
-2.41732
40
0.00787402
0
CIRCLE
8
BLACK
10
3.59843
20
-2.55512
40
0.00787402
0
CIRCLE
8
BLACK
10
3.57087
20
-2.55512
40
0.00787402
0
CIRCLE
8
BLACK
10
3.48819
20
-2.77953
40
0.00787402
0
CIRCLE
8
BLACK
10
3.48819
20
-2.81102
40
0.00787402
0
CIRCLE
8
BLACK
10
3.35039
20
-2.81102
40
0.00787402
0
CIRCLE
8
BLACK
10
3.46102
20
-2.43386
40
0.00787402
  0
ENDSEC
  0
EOF
