  0
SECTION
  2
HEADER
  9
$ANGBASE
  50
0.0
  9
$ANGDIR
  70
1
  9
$MEASUREMENT
  70
0
  0
ENDSEC
  0
SECTION
  2
TABLES
  0
TABLE
  2
LTYPE
  70
4
  0
LTYPE
  5
40F
  2
CONTINUOUS
  70
0
  3
Solid line
  72
65
  73
0
  40
0.0
  0
LTYPE
  5
410
  2
DASHDOT
 70
0
  3
Dash Dot ____ _ ____ _
 72
65
 73
4
 40
2.0
 49
1.25
 49
-0.25
 49
0.25
 49
-0.25
  0
LTYPE
  5
411
  2
DASHED
 70
0
  3
Dashed __ __ __ __ __
 72
65
 73
2
 40
0.75
 49
0.5
 49
-0.25
  0
LTYPE
  5
43B
  2
DOTTED
 70
0
  3
Dotted .  .  .  .
 72
65
 73
2
 40
0.2
 49
0.0
 49
-0.2
  0
ENDTAB
  0
TABLE
  2
STYLE
  70
4
  0
STYLE
  2
KICAD
  70
0
  40
0
  41
1
  42
1
  50
0
  71
0
  3
isocp.shx
  0
STYLE
  2
KICADB
  70
0
  40
0
  41
1
  42
1
  50
0
  71
0
  3
isocp.shx
  0
STYLE
  2
KICADI
  70
0
  40
0
  41
1
  42
1
  50
15
  71
0
  3
isocp.shx
  0
STYLE
  2
KICADBI
  70
0
  40
0
  41
1
  42
1
  50
15
  71
0
  3
isocp.shx
  0
ENDTAB
  0
TABLE
  2
LAYER
  70
1
  0
LAYER
  2
BLACK
  70
0
  62
7
  6
CONTINUOUS
  0
ENDTAB
  0
ENDSEC
  0
SECTION
  2
ENTITIES
0
LINE
8
BLACK
6
CONTINUOUS
10
3.22012
20
-2.73899
11
3.22025
21
-2.73898
0
LINE
8
BLACK
6
CONTINUOUS
10
3.22025
20
-2.73898
11
3.22775
21
-2.74085
0
LINE
8
BLACK
6
CONTINUOUS
10
3.22775
20
-2.74085
11
3.22822
21
-2.74106
0
LINE
8
BLACK
6
CONTINUOUS
10
3.22822
20
-2.74106
11
3.22836
21
-2.74108
0
LINE
8
BLACK
6
CONTINUOUS
10
3.22836
20
-2.74108
11
3.23211
21
-2.74295
0
LINE
8
BLACK
6
CONTINUOUS
10
3.23211
20
-2.74295
11
3.23282
21
-2.74348
0
LINE
8
BLACK
6
CONTINUOUS
10
3.23282
20
-2.74348
11
3.23287
21
-2.74351
0
LINE
8
BLACK
6
CONTINUOUS
10
3.23287
20
-2.74351
11
3.23662
21
-2.74726
0
LINE
8
BLACK
6
CONTINUOUS
10
3.23662
20
-2.74726
11
3.23721
21
-2.7481
0
LINE
8
BLACK
6
CONTINUOUS
10
3.23721
20
-2.7481
11
3.23723
21
-2.74827
0
LINE
8
BLACK
6
CONTINUOUS
10
3.23723
20
-2.74827
11
3.23734
21
-2.74841
0
LINE
8
BLACK
6
CONTINUOUS
10
3.23734
20
-2.74841
11
3.23921
21
-2.75403
0
LINE
8
BLACK
6
CONTINUOUS
10
3.23921
20
-2.75403
11
3.23934
21
-2.75491
0
LINE
8
BLACK
6
CONTINUOUS
10
3.23934
20
-2.75491
11
3.23936
21
-2.75497
0
LINE
8
BLACK
6
CONTINUOUS
10
3.23936
20
-2.75497
11
3.23936
21
-2.76434
0
LINE
8
BLACK
6
CONTINUOUS
10
3.23936
20
-2.76434
11
3.2393
21
-2.76473
0
LINE
8
BLACK
6
CONTINUOUS
10
3.2393
20
-2.76473
11
3.23932
21
-2.76485
0
LINE
8
BLACK
6
CONTINUOUS
10
3.23932
20
-2.76485
11
3.23925
21
-2.76497
0
LINE
8
BLACK
6
CONTINUOUS
10
3.23925
20
-2.76497
11
3.23918
21
-2.76535
0
LINE
8
BLACK
6
CONTINUOUS
10
3.23918
20
-2.76535
11
3.23869
21
-2.76594
0
LINE
8
BLACK
6
CONTINUOUS
10
3.23869
20
-2.76594
11
3.23831
21
-2.7666
0
LINE
8
BLACK
6
CONTINUOUS
10
3.23831
20
-2.7666
11
3.23806
21
-2.76669
0
LINE
8
BLACK
6
CONTINUOUS
10
3.23806
20
-2.76669
11
3.23789
21
-2.7669
0
LINE
8
BLACK
6
CONTINUOUS
10
3.23789
20
-2.7669
11
3.23713
21
-2.76703
0
LINE
8
BLACK
6
CONTINUOUS
10
3.23713
20
-2.76703
11
3.23641
21
-2.76729
0
LINE
8
BLACK
6
CONTINUOUS
10
3.23641
20
-2.76729
11
3.19704
21
-2.76729
0
LINE
8
BLACK
6
CONTINUOUS
10
3.19704
20
-2.76729
11
3.19666
21
-2.76723
0
LINE
8
BLACK
6
CONTINUOUS
10
3.19666
20
-2.76723
11
3.19653
21
-2.76725
0
LINE
8
BLACK
6
CONTINUOUS
10
3.19653
20
-2.76725
11
3.19641
21
-2.76718
0
LINE
8
BLACK
6
CONTINUOUS
10
3.19641
20
-2.76718
11
3.19603
21
-2.76712
0
LINE
8
BLACK
6
CONTINUOUS
10
3.19603
20
-2.76712
11
3.19544
21
-2.76662
0
LINE
8
BLACK
6
CONTINUOUS
10
3.19544
20
-2.76662
11
3.19478
21
-2.76624
0
LINE
8
BLACK
6
CONTINUOUS
10
3.19478
20
-2.76624
11
3.19469
21
-2.76599
0
LINE
8
BLACK
6
CONTINUOUS
10
3.19469
20
-2.76599
11
3.19448
21
-2.76582
0
LINE
8
BLACK
6
CONTINUOUS
10
3.19448
20
-2.76582
11
3.19435
21
-2.76506
0
LINE
8
BLACK
6
CONTINUOUS
10
3.19435
20
-2.76506
11
3.19409
21
-2.76434
0
LINE
8
BLACK
6
CONTINUOUS
10
3.19409
20
-2.76434
11
3.19409
21
-2.75497
0
LINE
8
BLACK
6
CONTINUOUS
10
3.19409
20
-2.75497
11
3.19424
21
-2.7541
0
LINE
8
BLACK
6
CONTINUOUS
10
3.19424
20
-2.7541
11
3.19424
21
-2.75403
0
LINE
8
BLACK
6
CONTINUOUS
10
3.19424
20
-2.75403
11
3.19611
21
-2.74841
0
LINE
8
BLACK
6
CONTINUOUS
10
3.19611
20
-2.74841
11
3.1966
21
-2.74751
0
LINE
8
BLACK
6
CONTINUOUS
10
3.1966
20
-2.74751
11
3.19675
21
-2.74742
0
LINE
8
BLACK
6
CONTINUOUS
10
3.19675
20
-2.74742
11
3.19683
21
-2.74726
0
LINE
8
BLACK
6
CONTINUOUS
10
3.19683
20
-2.74726
11
3.20058
21
-2.74351
0
LINE
8
BLACK
6
CONTINUOUS
10
3.20058
20
-2.74351
11
3.2013
21
-2.743
0
LINE
8
BLACK
6
CONTINUOUS
10
3.2013
20
-2.743
11
3.20134
21
-2.74295
0
LINE
8
BLACK
6
CONTINUOUS
10
3.20134
20
-2.74295
11
3.20509
21
-2.74108
0
LINE
8
BLACK
6
CONTINUOUS
10
3.20509
20
-2.74108
11
3.20558
21
-2.74093
0
LINE
8
BLACK
6
CONTINUOUS
10
3.20558
20
-2.74093
11
3.2057
21
-2.74085
0
LINE
8
BLACK
6
CONTINUOUS
10
3.2057
20
-2.74085
11
3.2132
21
-2.73898
0
LINE
8
BLACK
6
CONTINUOUS
10
3.2132
20
-2.73898
11
3.21378
21
-2.73894
0
LINE
8
BLACK
6
CONTINUOUS
10
3.21378
20
-2.73894
11
3.21391
21
-2.73889
0
LINE
8
BLACK
6
CONTINUOUS
10
3.21391
20
-2.73889
11
3.21954
21
-2.73889
0
LINE
8
BLACK
6
CONTINUOUS
10
3.21954
20
-2.73889
11
3.22012
21
-2.73899
0
LINE
8
BLACK
6
CONTINUOUS
10
3.20744
20
-2.74651
11
3.20441
21
-2.74802
0
LINE
8
BLACK
6
CONTINUOUS
10
3.20441
20
-2.74802
11
3.2015
21
-2.75094
0
LINE
8
BLACK
6
CONTINUOUS
10
3.2015
20
-2.75094
11
3.19999
21
-2.75545
0
LINE
8
BLACK
6
CONTINUOUS
10
3.19999
20
-2.75545
11
3.19999
21
-2.76139
0
LINE
8
BLACK
6
CONTINUOUS
10
3.19999
20
-2.76139
11
3.23346
21
-2.76139
0
LINE
8
BLACK
6
CONTINUOUS
10
3.23346
20
-2.76139
11
3.23346
21
-2.75545
0
LINE
8
BLACK
6
CONTINUOUS
10
3.23346
20
-2.75545
11
3.23195
21
-2.75094
0
LINE
8
BLACK
6
CONTINUOUS
10
3.23195
20
-2.75094
11
3.22904
21
-2.74802
0
LINE
8
BLACK
6
CONTINUOUS
10
3.22904
20
-2.74802
11
3.22601
21
-2.74651
0
LINE
8
BLACK
6
CONTINUOUS
10
3.22601
20
-2.74651
11
3.21917
21
-2.7448
0
LINE
8
BLACK
6
CONTINUOUS
10
3.21917
20
-2.7448
11
3.21428
21
-2.7448
0
LINE
8
BLACK
6
CONTINUOUS
10
3.21428
20
-2.7448
11
3.20744
21
-2.74651
0
LINE
8
BLACK
6
CONTINUOUS
10
3.18446
20
-2.72302
11
3.18504
21
-2.72441
0
LINE
8
BLACK
6
CONTINUOUS
10
3.18504
20
-2.72441
11
3.18504
21
-2.75
0
LINE
8
BLACK
6
CONTINUOUS
10
3.18504
20
-2.75
11
3.18446
21
-2.75139
0
LINE
8
BLACK
6
CONTINUOUS
10
3.18446
20
-2.75139
11
3.18307
21
-2.75197
0
LINE
8
BLACK
6
CONTINUOUS
10
3.18307
20
-2.75197
11
3.15748
21
-2.75197
0
LINE
8
BLACK
6
CONTINUOUS
10
3.15748
20
-2.75197
11
3.15609
21
-2.75139
0
LINE
8
BLACK
6
CONTINUOUS
10
3.15609
20
-2.75139
11
3.15551
21
-2.75
0
LINE
8
BLACK
6
CONTINUOUS
10
3.15551
20
-2.75
11
3.15609
21
-2.74861
0
LINE
8
BLACK
6
CONTINUOUS
10
3.15609
20
-2.74861
11
3.15748
21
-2.74803
0
LINE
8
BLACK
6
CONTINUOUS
10
3.15748
20
-2.74803
11
3.1811
21
-2.74803
0
LINE
8
BLACK
6
CONTINUOUS
10
3.1811
20
-2.74803
11
3.1811
21
-2.72441
0
LINE
8
BLACK
6
CONTINUOUS
10
3.1811
20
-2.72441
11
3.18168
21
-2.72302
0
LINE
8
BLACK
6
CONTINUOUS
10
3.18168
20
-2.72302
11
3.18307
21
-2.72244
0
LINE
8
BLACK
6
CONTINUOUS
10
3.18307
20
-2.72244
11
3.18446
21
-2.72302
0
LINE
8
BLACK
6
CONTINUOUS
10
3.0176
20
-2.70183
11
3.01809
21
-2.70195
0
LINE
8
BLACK
6
CONTINUOUS
10
3.01809
20
-2.70195
11
3.01823
21
-2.70194
0
LINE
8
BLACK
6
CONTINUOUS
10
3.01823
20
-2.70194
11
3.02566
21
-2.70406
0
LINE
8
BLACK
6
CONTINUOUS
10
3.02566
20
-2.70406
11
3.02619
21
-2.70432
0
LINE
8
BLACK
6
CONTINUOUS
10
3.02619
20
-2.70432
11
3.02633
21
-2.70434
0
LINE
8
BLACK
6
CONTINUOUS
10
3.02633
20
-2.70434
11
3.0312
21
-2.70715
0
LINE
8
BLACK
6
CONTINUOUS
10
3.0312
20
-2.70715
11
3.03165
21
-2.70753
0
LINE
8
BLACK
6
CONTINUOUS
10
3.03165
20
-2.70753
11
3.03177
21
-2.70759
0
LINE
8
BLACK
6
CONTINUOUS
10
3.03177
20
-2.70759
11
3.03733
21
-2.71296
0
LINE
8
BLACK
6
CONTINUOUS
10
3.03733
20
-2.71296
11
3.03763
21
-2.71338
0
LINE
8
BLACK
6
CONTINUOUS
10
3.03763
20
-2.71338
11
3.03774
21
-2.71346
0
LINE
8
BLACK
6
CONTINUOUS
10
3.03774
20
-2.71346
11
3.04005
21
-2.71696
0
LINE
8
BLACK
6
CONTINUOUS
10
3.04005
20
-2.71696
11
3.0404
21
-2.71777
0
LINE
8
BLACK
6
CONTINUOUS
10
3.0404
20
-2.71777
11
3.04044
21
-2.71782
0
LINE
8
BLACK
6
CONTINUOUS
10
3.04044
20
-2.71782
11
3.04181
21
-2.72294
0
LINE
8
BLACK
6
CONTINUOUS
10
3.04181
20
-2.72294
11
3.0419
21
-2.72396
0
LINE
8
BLACK
6
CONTINUOUS
10
3.0419
20
-2.72396
11
3.04183
21
-2.72412
0
LINE
8
BLACK
6
CONTINUOUS
10
3.04183
20
-2.72412
11
3.04185
21
-2.7243
0
LINE
8
BLACK
6
CONTINUOUS
10
3.04185
20
-2.7243
11
3.04067
21
-2.73011
0
LINE
8
BLACK
6
CONTINUOUS
10
3.04067
20
-2.73011
11
3.04034
21
-2.73093
0
LINE
8
BLACK
6
CONTINUOUS
10
3.04034
20
-2.73093
11
3.04033
21
-2.73099
0
LINE
8
BLACK
6
CONTINUOUS
10
3.04033
20
-2.73099
11
3.03564
21
-2.73911
0
LINE
8
BLACK
6
CONTINUOUS
10
3.03564
20
-2.73911
11
3.03539
21
-2.73941
0
LINE
8
BLACK
6
CONTINUOUS
10
3.03539
20
-2.73941
11
3.03535
21
-2.73953
0
LINE
8
BLACK
6
CONTINUOUS
10
3.03535
20
-2.73953
11
3.03523
21
-2.7396
0
LINE
8
BLACK
6
CONTINUOUS
10
3.03523
20
-2.7396
11
3.03498
21
-2.73989
0
LINE
8
BLACK
6
CONTINUOUS
10
3.03498
20
-2.73989
11
3.03426
21
-2.74016
0
LINE
8
BLACK
6
CONTINUOUS
10
3.03426
20
-2.74016
11
3.0336
21
-2.74054
0
LINE
8
BLACK
6
CONTINUOUS
10
3.0336
20
-2.74054
11
3.03334
21
-2.74049
0
LINE
8
BLACK
6
CONTINUOUS
10
3.03334
20
-2.74049
11
3.03309
21
-2.74058
0
LINE
8
BLACK
6
CONTINUOUS
10
3.03309
20
-2.74058
11
3.03236
21
-2.74032
0
LINE
8
BLACK
6
CONTINUOUS
10
3.03236
20
-2.74032
11
3.03161
21
-2.74019
0
LINE
8
BLACK
6
CONTINUOUS
10
3.03161
20
-2.74019
11
2.99751
21
-2.7205
0
LINE
8
BLACK
6
CONTINUOUS
10
2.99751
20
-2.7205
11
2.99722
21
-2.72025
0
LINE
8
BLACK
6
CONTINUOUS
10
2.99722
20
-2.72025
11
2.99709
21
-2.72021
0
LINE
8
BLACK
6
CONTINUOUS
10
2.99709
20
-2.72021
11
2.99703
21
-2.7201
0
LINE
8
BLACK
6
CONTINUOUS
10
2.99703
20
-2.7201
11
2.99673
21
-2.71984
0
LINE
8
BLACK
6
CONTINUOUS
10
2.99673
20
-2.71984
11
2.99647
21
-2.71912
0
LINE
8
BLACK
6
CONTINUOUS
10
2.99647
20
-2.71912
11
2.99608
21
-2.71846
0
LINE
8
BLACK
6
CONTINUOUS
10
2.99608
20
-2.71846
11
2.99613
21
-2.7182
0
LINE
8
BLACK
6
CONTINUOUS
10
2.99613
20
-2.7182
11
2.99604
21
-2.71795
0
LINE
8
BLACK
6
CONTINUOUS
10
2.99604
20
-2.71795
11
2.9963
21
-2.71723
0
LINE
8
BLACK
6
CONTINUOUS
10
2.9963
20
-2.71723
11
2.99643
21
-2.71647
0
LINE
8
BLACK
6
CONTINUOUS
10
2.99643
20
-2.71647
11
3.00112
21
-2.70835
0
LINE
8
BLACK
6
CONTINUOUS
10
3.00112
20
-2.70835
11
3.00169
21
-2.70768
0
LINE
8
BLACK
6
CONTINUOUS
10
3.00169
20
-2.70768
11
3.00172
21
-2.70762
0
LINE
8
BLACK
6
CONTINUOUS
10
3.00172
20
-2.70762
11
3.00615
21
-2.70369
0
LINE
8
BLACK
6
CONTINUOUS
10
3.00615
20
-2.70369
11
3.00703
21
-2.70315
0
LINE
8
BLACK
6
CONTINUOUS
10
3.00703
20
-2.70315
11
3.0072
21
-2.70314
0
LINE
8
BLACK
6
CONTINUOUS
10
3.0072
20
-2.70314
11
3.00735
21
-2.70304
0
LINE
8
BLACK
6
CONTINUOUS
10
3.00735
20
-2.70304
11
3.01247
21
-2.70167
0
LINE
8
BLACK
6
CONTINUOUS
10
3.01247
20
-2.70167
11
3.01335
21
-2.70159
0
LINE
8
BLACK
6
CONTINUOUS
10
3.01335
20
-2.70159
11
3.01341
21
-2.70158
0
LINE
8
BLACK
6
CONTINUOUS
10
3.01341
20
-2.70158
11
3.0176
21
-2.70183
0
LINE
8
BLACK
6
CONTINUOUS
10
3.00955
20
-2.70857
11
3.00599
21
-2.71172
0
LINE
8
BLACK
6
CONTINUOUS
10
3.00599
20
-2.71172
11
3.00302
21
-2.71687
0
LINE
8
BLACK
6
CONTINUOUS
10
3.00302
20
-2.71687
11
3.03201
21
-2.7336
0
LINE
8
BLACK
6
CONTINUOUS
10
3.03201
20
-2.7336
11
3.03498
21
-2.72845
0
LINE
8
BLACK
6
CONTINUOUS
10
3.03498
20
-2.72845
11
3.03593
21
-2.7238
0
LINE
8
BLACK
6
CONTINUOUS
10
3.03593
20
-2.7238
11
3.03486
21
-2.71981
0
LINE
8
BLACK
6
CONTINUOUS
10
3.03486
20
-2.71981
11
3.03299
21
-2.71698
0
LINE
8
BLACK
6
CONTINUOUS
10
3.03299
20
-2.71698
11
3.02793
21
-2.71209
0
LINE
8
BLACK
6
CONTINUOUS
10
3.02793
20
-2.71209
11
3.02369
21
-2.70964
0
LINE
8
BLACK
6
CONTINUOUS
10
3.02369
20
-2.70964
11
3.01692
21
-2.7077
0
LINE
8
BLACK
6
CONTINUOUS
10
3.01692
20
-2.7077
11
3.01354
21
-2.7075
0
LINE
8
BLACK
6
CONTINUOUS
10
3.01354
20
-2.7075
11
3.00955
21
-2.70857
0
LINE
8
BLACK
6
CONTINUOUS
10
3.23867
20
-2.70245
11
3.23936
21
-2.70435
0
LINE
8
BLACK
6
CONTINUOUS
10
3.23936
20
-2.70435
11
3.23936
21
-2.72685
0
LINE
8
BLACK
6
CONTINUOUS
10
3.23936
20
-2.72685
11
3.23918
21
-2.72786
0
LINE
8
BLACK
6
CONTINUOUS
10
3.23918
20
-2.72786
11
3.23789
21
-2.7294
0
LINE
8
BLACK
6
CONTINUOUS
10
3.23789
20
-2.7294
11
3.2359
21
-2.72975
0
LINE
8
BLACK
6
CONTINUOUS
10
3.2359
20
-2.72975
11
3.23415
21
-2.72874
0
LINE
8
BLACK
6
CONTINUOUS
10
3.23415
20
-2.72874
11
3.23346
21
-2.72685
0
LINE
8
BLACK
6
CONTINUOUS
10
3.23346
20
-2.72685
11
3.23346
21
-2.71855
0
LINE
8
BLACK
6
CONTINUOUS
10
3.23346
20
-2.71855
11
3.20604
21
-2.71855
0
LINE
8
BLACK
6
CONTINUOUS
10
3.20604
20
-2.71855
11
3.2085
21
-2.72101
0
LINE
8
BLACK
6
CONTINUOUS
10
3.2085
20
-2.72101
11
3.20901
21
-2.72173
0
LINE
8
BLACK
6
CONTINUOUS
10
3.20901
20
-2.72173
11
3.20905
21
-2.72178
0
LINE
8
BLACK
6
CONTINUOUS
10
3.20905
20
-2.72178
11
3.21093
21
-2.72553
0
LINE
8
BLACK
6
CONTINUOUS
10
3.21093
20
-2.72553
11
3.21122
21
-2.72651
0
LINE
8
BLACK
6
CONTINUOUS
10
3.21122
20
-2.72651
11
3.21075
21
-2.72847
0
LINE
8
BLACK
6
CONTINUOUS
10
3.21075
20
-2.72847
11
3.20913
21
-2.72968
0
LINE
8
BLACK
6
CONTINUOUS
10
3.20913
20
-2.72968
11
3.20711
21
-2.72956
0
LINE
8
BLACK
6
CONTINUOUS
10
3.20711
20
-2.72956
11
3.20565
21
-2.72817
0
LINE
8
BLACK
6
CONTINUOUS
10
3.20565
20
-2.72817
11
3.20399
21
-2.72485
0
LINE
8
BLACK
6
CONTINUOUS
10
3.20399
20
-2.72485
11
3.20078
21
-2.72164
0
LINE
8
BLACK
6
CONTINUOUS
10
3.20078
20
-2.72164
11
3.1954
21
-2.71805
0
LINE
8
BLACK
6
CONTINUOUS
10
3.1954
20
-2.71805
11
3.19466
21
-2.71735
0
LINE
8
BLACK
6
CONTINUOUS
10
3.19466
20
-2.71735
11
3.19461
21
-2.71718
0
LINE
8
BLACK
6
CONTINUOUS
10
3.19461
20
-2.71718
11
3.19448
21
-2.71707
0
LINE
8
BLACK
6
CONTINUOUS
10
3.19448
20
-2.71707
11
3.19433
21
-2.71623
0
LINE
8
BLACK
6
CONTINUOUS
10
3.19433
20
-2.71623
11
3.19409
21
-2.71541
0
LINE
8
BLACK
6
CONTINUOUS
10
3.19409
20
-2.71541
11
3.19416
21
-2.71525
0
LINE
8
BLACK
6
CONTINUOUS
10
3.19416
20
-2.71525
11
3.19413
21
-2.71509
0
LINE
8
BLACK
6
CONTINUOUS
10
3.19413
20
-2.71509
11
3.19456
21
-2.71434
0
LINE
8
BLACK
6
CONTINUOUS
10
3.19456
20
-2.71434
11
3.1949
21
-2.71356
0
LINE
8
BLACK
6
CONTINUOUS
10
3.1949
20
-2.71356
11
3.19506
21
-2.71348
0
LINE
8
BLACK
6
CONTINUOUS
10
3.19506
20
-2.71348
11
3.19514
21
-2.71334
0
LINE
8
BLACK
6
CONTINUOUS
10
3.19514
20
-2.71334
11
3.19595
21
-2.71304
0
LINE
8
BLACK
6
CONTINUOUS
10
3.19595
20
-2.71304
11
3.19672
21
-2.71266
0
LINE
8
BLACK
6
CONTINUOUS
10
3.19672
20
-2.71266
11
3.19688
21
-2.7127
0
LINE
8
BLACK
6
CONTINUOUS
10
3.19688
20
-2.7127
11
3.19704
21
-2.71265
0
LINE
8
BLACK
6
CONTINUOUS
10
3.19704
20
-2.71265
11
3.23346
21
-2.71265
0
LINE
8
BLACK
6
CONTINUOUS
10
3.23346
20
-2.71265
11
3.23346
21
-2.70435
0
LINE
8
BLACK
6
CONTINUOUS
10
3.23346
20
-2.70435
11
3.23364
21
-2.70334
0
LINE
8
BLACK
6
CONTINUOUS
10
3.23364
20
-2.70334
11
3.23493
21
-2.70179
0
LINE
8
BLACK
6
CONTINUOUS
10
3.23493
20
-2.70179
11
3.23692
21
-2.70144
0
LINE
8
BLACK
6
CONTINUOUS
10
3.23692
20
-2.70144
11
3.23867
21
-2.70245
0
LINE
8
BLACK
6
CONTINUOUS
10
2.99847
20
-2.69091
11
2.99939
21
-2.69211
0
LINE
8
BLACK
6
CONTINUOUS
10
2.99939
20
-2.69211
11
2.99919
21
-2.6936
0
LINE
8
BLACK
6
CONTINUOUS
10
2.99919
20
-2.6936
11
2.98639
21
-2.71576
0
LINE
8
BLACK
6
CONTINUOUS
10
2.98639
20
-2.71576
11
2.9852
21
-2.71668
0
LINE
8
BLACK
6
CONTINUOUS
10
2.9852
20
-2.71668
11
2.9852
21
-2.71668
0
LINE
8
BLACK
6
CONTINUOUS
10
2.9852
20
-2.71668
11
2.9852
21
-2.71668
0
LINE
8
BLACK
6
CONTINUOUS
10
2.9852
20
-2.71668
11
2.98371
21
-2.71648
0
LINE
8
BLACK
6
CONTINUOUS
10
2.98371
20
-2.71648
11
2.96154
21
-2.70369
0
LINE
8
BLACK
6
CONTINUOUS
10
2.96154
20
-2.70369
11
2.96063
21
-2.70249
0
LINE
8
BLACK
6
CONTINUOUS
10
2.96063
20
-2.70249
11
2.96082
21
-2.701
0
LINE
8
BLACK
6
CONTINUOUS
10
2.96082
20
-2.701
11
2.96202
21
-2.70008
0
LINE
8
BLACK
6
CONTINUOUS
10
2.96202
20
-2.70008
11
2.96351
21
-2.70028
0
LINE
8
BLACK
6
CONTINUOUS
10
2.96351
20
-2.70028
11
2.98397
21
-2.71209
0
LINE
8
BLACK
6
CONTINUOUS
10
2.98397
20
-2.71209
11
2.99578
21
-2.69163
0
LINE
8
BLACK
6
CONTINUOUS
10
2.99578
20
-2.69163
11
2.99698
21
-2.69071
0
LINE
8
BLACK
6
CONTINUOUS
10
2.99698
20
-2.69071
11
2.99847
21
-2.69091
0
LINE
8
BLACK
6
CONTINUOUS
10
3.03566
20
-2.66679
11
3.03666
21
-2.66703
0
LINE
8
BLACK
6
CONTINUOUS
10
3.03666
20
-2.66703
11
3.03678
21
-2.66715
0
LINE
8
BLACK
6
CONTINUOUS
10
3.03678
20
-2.66715
11
3.03696
21
-2.66718
0
LINE
8
BLACK
6
CONTINUOUS
10
3.03696
20
-2.66718
11
3.04995
21
-2.67468
0
LINE
8
BLACK
6
CONTINUOUS
10
3.04995
20
-2.67468
11
3.0504
21
-2.67506
0
LINE
8
BLACK
6
CONTINUOUS
10
3.0504
20
-2.67506
11
3.05052
21
-2.67512
0
LINE
8
BLACK
6
CONTINUOUS
10
3.05052
20
-2.67512
11
3.05608
21
-2.68049
0
LINE
8
BLACK
6
CONTINUOUS
10
3.05608
20
-2.68049
11
3.05666
21
-2.68129
0
LINE
8
BLACK
6
CONTINUOUS
10
3.05666
20
-2.68129
11
3.05667
21
-2.6813
0
LINE
8
BLACK
6
CONTINUOUS
10
3.05667
20
-2.6813
11
3.05967
21
-2.68736
0
LINE
8
BLACK
6
CONTINUOUS
10
3.05967
20
-2.68736
11
3.0598
21
-2.6878
0
LINE
8
BLACK
6
CONTINUOUS
10
3.0598
20
-2.6878
11
3.05987
21
-2.68791
0
LINE
8
BLACK
6
CONTINUOUS
10
3.05987
20
-2.68791
11
3.06056
21
-2.69047
0
LINE
8
BLACK
6
CONTINUOUS
10
3.06056
20
-2.69047
11
3.06064
21
-2.69135
0
LINE
8
BLACK
6
CONTINUOUS
10
3.06064
20
-2.69135
11
3.06066
21
-2.69141
0
LINE
8
BLACK
6
CONTINUOUS
10
3.06066
20
-2.69141
11
3.06041
21
-2.6956
0
LINE
8
BLACK
6
CONTINUOUS
10
3.06041
20
-2.6956
11
3.06017
21
-2.69659
0
LINE
8
BLACK
6
CONTINUOUS
10
3.06017
20
-2.69659
11
3.06005
21
-2.69672
0
LINE
8
BLACK
6
CONTINUOUS
10
3.06005
20
-2.69672
11
3.06001
21
-2.69689
0
LINE
8
BLACK
6
CONTINUOUS
10
3.06001
20
-2.69689
11
3.05627
21
-2.70339
0
LINE
8
BLACK
6
CONTINUOUS
10
3.05627
20
-2.70339
11
3.05561
21
-2.70417
0
LINE
8
BLACK
6
CONTINUOUS
10
3.05561
20
-2.70417
11
3.05371
21
-2.70487
0
LINE
8
BLACK
6
CONTINUOUS
10
3.05371
20
-2.70487
11
3.05181
21
-2.70417
0
LINE
8
BLACK
6
CONTINUOUS
10
3.05181
20
-2.70417
11
3.0508
21
-2.70243
0
LINE
8
BLACK
6
CONTINUOUS
10
3.0508
20
-2.70243
11
3.05115
21
-2.70044
0
LINE
8
BLACK
6
CONTINUOUS
10
3.05115
20
-2.70044
11
3.05455
21
-2.69455
0
LINE
8
BLACK
6
CONTINUOUS
10
3.05455
20
-2.69455
11
3.05473
21
-2.69154
0
LINE
8
BLACK
6
CONTINUOUS
10
3.05473
20
-2.69154
11
3.05425
21
-2.68972
0
LINE
8
BLACK
6
CONTINUOUS
10
3.05425
20
-2.68972
11
3.05161
21
-2.68438
0
LINE
8
BLACK
6
CONTINUOUS
10
3.05161
20
-2.68438
11
3.04944
21
-2.68229
0
LINE
8
BLACK
6
CONTINUOUS
10
3.04944
20
-2.68229
11
3.04929
21
-2.68485
0
LINE
8
BLACK
6
CONTINUOUS
10
3.04929
20
-2.68485
11
3.04905
21
-2.68585
0
LINE
8
BLACK
6
CONTINUOUS
10
3.04905
20
-2.68585
11
3.04893
21
-2.68597
0
LINE
8
BLACK
6
CONTINUOUS
10
3.04893
20
-2.68597
11
3.0489
21
-2.68615
0
LINE
8
BLACK
6
CONTINUOUS
10
3.0489
20
-2.68615
11
3.04515
21
-2.69264
0
LINE
8
BLACK
6
CONTINUOUS
10
3.04515
20
-2.69264
11
3.04449
21
-2.69343
0
LINE
8
BLACK
6
CONTINUOUS
10
3.04449
20
-2.69343
11
3.04433
21
-2.69349
0
LINE
8
BLACK
6
CONTINUOUS
10
3.04433
20
-2.69349
11
3.04422
21
-2.69363
0
LINE
8
BLACK
6
CONTINUOUS
10
3.04422
20
-2.69363
11
3.04072
21
-2.69594
0
LINE
8
BLACK
6
CONTINUOUS
10
3.04072
20
-2.69594
11
3.03991
21
-2.69629
0
LINE
8
BLACK
6
CONTINUOUS
10
3.03991
20
-2.69629
11
3.03986
21
-2.69633
0
LINE
8
BLACK
6
CONTINUOUS
10
3.03986
20
-2.69633
11
3.0373
21
-2.69701
0
LINE
8
BLACK
6
CONTINUOUS
10
3.0373
20
-2.69701
11
3.03642
21
-2.69709
0
LINE
8
BLACK
6
CONTINUOUS
10
3.03642
20
-2.69709
11
3.03636
21
-2.69711
0
LINE
8
BLACK
6
CONTINUOUS
10
3.03636
20
-2.69711
11
3.03217
21
-2.69686
0
LINE
8
BLACK
6
CONTINUOUS
10
3.03217
20
-2.69686
11
3.03118
21
-2.69662
0
LINE
8
BLACK
6
CONTINUOUS
10
3.03118
20
-2.69662
11
3.03105
21
-2.6965
0
LINE
8
BLACK
6
CONTINUOUS
10
3.03105
20
-2.6965
11
3.03087
21
-2.69647
0
LINE
8
BLACK
6
CONTINUOUS
10
3.03087
20
-2.69647
11
3.02276
21
-2.69178
0
LINE
8
BLACK
6
CONTINUOUS
10
3.02276
20
-2.69178
11
3.02197
21
-2.69112
0
LINE
8
BLACK
6
CONTINUOUS
10
3.02197
20
-2.69112
11
3.02191
21
-2.69096
0
LINE
8
BLACK
6
CONTINUOUS
10
3.02191
20
-2.69096
11
3.02177
21
-2.69085
0
LINE
8
BLACK
6
CONTINUOUS
10
3.02177
20
-2.69085
11
3.01946
21
-2.68735
0
LINE
8
BLACK
6
CONTINUOUS
10
3.01946
20
-2.68735
11
3.01911
21
-2.68654
0
LINE
8
BLACK
6
CONTINUOUS
10
3.01911
20
-2.68654
11
3.01907
21
-2.68649
0
LINE
8
BLACK
6
CONTINUOUS
10
3.01907
20
-2.68649
11
3.01838
21
-2.68393
0
LINE
8
BLACK
6
CONTINUOUS
10
3.01838
20
-2.68393
11
3.01831
21
-2.68305
0
LINE
8
BLACK
6
CONTINUOUS
10
3.01831
20
-2.68305
11
3.01829
21
-2.68299
0
LINE
8
BLACK
6
CONTINUOUS
10
3.01829
20
-2.68299
11
3.01854
21
-2.6788
0
LINE
8
BLACK
6
CONTINUOUS
10
3.01854
20
-2.6788
11
3.01878
21
-2.67781
0
LINE
8
BLACK
6
CONTINUOUS
10
3.01878
20
-2.67781
11
3.0189
21
-2.67768
0
LINE
8
BLACK
6
CONTINUOUS
10
3.0189
20
-2.67768
11
3.01893
21
-2.6775
0
LINE
8
BLACK
6
CONTINUOUS
10
3.01893
20
-2.6775
11
3.02268
21
-2.67101
0
LINE
8
BLACK
6
CONTINUOUS
10
3.02268
20
-2.67101
11
3.02334
21
-2.67022
0
LINE
8
BLACK
6
CONTINUOUS
10
3.02334
20
-2.67022
11
3.0235
21
-2.67016
0
LINE
8
BLACK
6
CONTINUOUS
10
3.0235
20
-2.67016
11
3.02361
21
-2.67002
0
LINE
8
BLACK
6
CONTINUOUS
10
3.02361
20
-2.67002
11
3.02711
21
-2.66771
0
LINE
8
BLACK
6
CONTINUOUS
10
3.02711
20
-2.66771
11
3.02792
21
-2.66736
0
LINE
8
BLACK
6
CONTINUOUS
10
3.02792
20
-2.66736
11
3.02797
21
-2.66732
0
LINE
8
BLACK
6
CONTINUOUS
10
3.02797
20
-2.66732
11
3.03053
21
-2.66664
0
LINE
8
BLACK
6
CONTINUOUS
10
3.03053
20
-2.66664
11
3.03141
21
-2.66656
0
LINE
8
BLACK
6
CONTINUOUS
10
3.03141
20
-2.66656
11
3.03147
21
-2.66654
0
LINE
8
BLACK
6
CONTINUOUS
10
3.03147
20
-2.66654
11
3.03566
21
-2.66679
0
LINE
8
BLACK
6
CONTINUOUS
10
3.02996
20
-2.6729
11
3.02745
21
-2.67457
0
LINE
8
BLACK
6
CONTINUOUS
10
3.02745
20
-2.67457
11
3.02439
21
-2.67985
0
LINE
8
BLACK
6
CONTINUOUS
10
3.02439
20
-2.67985
11
3.02421
21
-2.68286
0
LINE
8
BLACK
6
CONTINUOUS
10
3.02421
20
-2.68286
11
3.02465
21
-2.6845
0
LINE
8
BLACK
6
CONTINUOUS
10
3.02465
20
-2.6845
11
3.02631
21
-2.68702
0
LINE
8
BLACK
6
CONTINUOUS
10
3.02631
20
-2.68702
11
3.03322
21
-2.69101
0
LINE
8
BLACK
6
CONTINUOUS
10
3.03322
20
-2.69101
11
3.03623
21
-2.69119
0
LINE
8
BLACK
6
CONTINUOUS
10
3.03623
20
-2.69119
11
3.03787
21
-2.69075
0
LINE
8
BLACK
6
CONTINUOUS
10
3.03787
20
-2.69075
11
3.04039
21
-2.68909
0
LINE
8
BLACK
6
CONTINUOUS
10
3.04039
20
-2.68909
11
3.04344
21
-2.6838
0
LINE
8
BLACK
6
CONTINUOUS
10
3.04344
20
-2.6838
11
3.04362
21
-2.68079
0
LINE
8
BLACK
6
CONTINUOUS
10
3.04362
20
-2.68079
11
3.04318
21
-2.67915
0
LINE
8
BLACK
6
CONTINUOUS
10
3.04318
20
-2.67915
11
3.04152
21
-2.67664
0
LINE
8
BLACK
6
CONTINUOUS
10
3.04152
20
-2.67664
11
3.03461
21
-2.67265
0
LINE
8
BLACK
6
CONTINUOUS
10
3.03461
20
-2.67265
11
3.0316
21
-2.67247
0
LINE
8
BLACK
6
CONTINUOUS
10
3.0316
20
-2.67247
11
3.02996
21
-2.6729
0
LINE
8
BLACK
6
CONTINUOUS
10
3.36139
20
-2.65817
11
3.37419
21
-2.68033
0
LINE
8
BLACK
6
CONTINUOUS
10
3.37419
20
-2.68033
11
3.37439
21
-2.68182
0
LINE
8
BLACK
6
CONTINUOUS
10
3.37439
20
-2.68182
11
3.37402
21
-2.6823
0
LINE
8
BLACK
6
CONTINUOUS
10
3.37402
20
-2.6823
11
3.37347
21
-2.68302
0
LINE
8
BLACK
6
CONTINUOUS
10
3.37347
20
-2.68302
11
3.35131
21
-2.69581
0
LINE
8
BLACK
6
CONTINUOUS
10
3.35131
20
-2.69581
11
3.34981
21
-2.69601
0
LINE
8
BLACK
6
CONTINUOUS
10
3.34981
20
-2.69601
11
3.34862
21
-2.69509
0
LINE
8
BLACK
6
CONTINUOUS
10
3.34862
20
-2.69509
11
3.34842
21
-2.6936
0
LINE
8
BLACK
6
CONTINUOUS
10
3.34842
20
-2.6936
11
3.34934
21
-2.6924
0
LINE
8
BLACK
6
CONTINUOUS
10
3.34934
20
-2.6924
11
3.3698
21
-2.68059
0
LINE
8
BLACK
6
CONTINUOUS
10
3.3698
20
-2.68059
11
3.35799
21
-2.66014
0
LINE
8
BLACK
6
CONTINUOUS
10
3.35799
20
-2.66014
11
3.35779
21
-2.65864
0
LINE
8
BLACK
6
CONTINUOUS
10
3.35779
20
-2.65864
11
3.35871
21
-2.65745
0
LINE
8
BLACK
6
CONTINUOUS
10
3.35871
20
-2.65745
11
3.3602
21
-2.65725
0
LINE
8
BLACK
6
CONTINUOUS
10
3.3602
20
-2.65725
11
3.36139
21
-2.65817
0
LINE
8
BLACK
6
CONTINUOUS
10
3.22199
20
-2.664
11
3.22213
21
-2.66399
0
LINE
8
BLACK
6
CONTINUOUS
10
3.22213
20
-2.66399
11
3.22963
21
-2.66586
0
LINE
8
BLACK
6
CONTINUOUS
10
3.22963
20
-2.66586
11
3.23009
21
-2.66607
0
LINE
8
BLACK
6
CONTINUOUS
10
3.23009
20
-2.66607
11
3.23023
21
-2.66609
0
LINE
8
BLACK
6
CONTINUOUS
10
3.23023
20
-2.66609
11
3.23398
21
-2.66796
0
LINE
8
BLACK
6
CONTINUOUS
10
3.23398
20
-2.66796
11
3.23469
21
-2.66849
0
LINE
8
BLACK
6
CONTINUOUS
10
3.23469
20
-2.66849
11
3.23475
21
-2.66852
0
LINE
8
BLACK
6
CONTINUOUS
10
3.23475
20
-2.66852
11
3.23662
21
-2.67039
0
LINE
8
BLACK
6
CONTINUOUS
10
3.23662
20
-2.67039
11
3.23713
21
-2.67111
0
LINE
8
BLACK
6
CONTINUOUS
10
3.23713
20
-2.67111
11
3.23718
21
-2.67116
0
LINE
8
BLACK
6
CONTINUOUS
10
3.23718
20
-2.67116
11
3.23905
21
-2.67491
0
LINE
8
BLACK
6
CONTINUOUS
10
3.23905
20
-2.67491
11
3.23934
21
-2.67589
0
LINE
8
BLACK
6
CONTINUOUS
10
3.23934
20
-2.67589
11
3.2393
21
-2.67606
0
LINE
8
BLACK
6
CONTINUOUS
10
3.2393
20
-2.67606
11
3.23936
21
-2.67623
0
LINE
8
BLACK
6
CONTINUOUS
10
3.23936
20
-2.67623
11
3.23936
21
-2.67998
0
LINE
8
BLACK
6
CONTINUOUS
10
3.23936
20
-2.67998
11
3.23918
21
-2.68099
0
LINE
8
BLACK
6
CONTINUOUS
10
3.23918
20
-2.68099
11
3.23907
21
-2.68112
0
LINE
8
BLACK
6
CONTINUOUS
10
3.23907
20
-2.68112
11
3.23905
21
-2.6813
0
LINE
8
BLACK
6
CONTINUOUS
10
3.23905
20
-2.6813
11
3.23718
21
-2.68505
0
LINE
8
BLACK
6
CONTINUOUS
10
3.23718
20
-2.68505
11
3.23665
21
-2.68576
0
LINE
8
BLACK
6
CONTINUOUS
10
3.23665
20
-2.68576
11
3.23662
21
-2.68581
0
LINE
8
BLACK
6
CONTINUOUS
10
3.23662
20
-2.68581
11
3.23475
21
-2.68769
0
LINE
8
BLACK
6
CONTINUOUS
10
3.23475
20
-2.68769
11
3.23403
21
-2.6882
0
LINE
8
BLACK
6
CONTINUOUS
10
3.23403
20
-2.6882
11
3.23398
21
-2.68824
0
LINE
8
BLACK
6
CONTINUOUS
10
3.23398
20
-2.68824
11
3.23023
21
-2.69012
0
LINE
8
BLACK
6
CONTINUOUS
10
3.23023
20
-2.69012
11
3.22974
21
-2.69026
0
LINE
8
BLACK
6
CONTINUOUS
10
3.22974
20
-2.69026
11
3.22963
21
-2.69034
0
LINE
8
BLACK
6
CONTINUOUS
10
3.22963
20
-2.69034
11
3.22213
21
-2.69222
0
LINE
8
BLACK
6
CONTINUOUS
10
3.22213
20
-2.69222
11
3.22154
21
-2.69226
0
LINE
8
BLACK
6
CONTINUOUS
10
3.22154
20
-2.69226
11
3.22141
21
-2.6923
0
LINE
8
BLACK
6
CONTINUOUS
10
3.22141
20
-2.6923
11
3.21204
21
-2.6923
0
LINE
8
BLACK
6
CONTINUOUS
10
3.21204
20
-2.6923
11
3.21146
21
-2.6922
0
LINE
8
BLACK
6
CONTINUOUS
10
3.21146
20
-2.6922
11
3.21132
21
-2.69222
0
LINE
8
BLACK
6
CONTINUOUS
10
3.21132
20
-2.69222
11
3.20382
21
-2.69034
0
LINE
8
BLACK
6
CONTINUOUS
10
3.20382
20
-2.69034
11
3.20336
21
-2.69013
0
LINE
8
BLACK
6
CONTINUOUS
10
3.20336
20
-2.69013
11
3.20322
21
-2.69012
0
LINE
8
BLACK
6
CONTINUOUS
10
3.20322
20
-2.69012
11
3.19947
21
-2.68824
0
LINE
8
BLACK
6
CONTINUOUS
10
3.19947
20
-2.68824
11
3.19876
21
-2.68772
0
LINE
8
BLACK
6
CONTINUOUS
10
3.19876
20
-2.68772
11
3.1987
21
-2.68769
0
LINE
8
BLACK
6
CONTINUOUS
10
3.1987
20
-2.68769
11
3.19683
21
-2.68581
0
LINE
8
BLACK
6
CONTINUOUS
10
3.19683
20
-2.68581
11
3.19632
21
-2.68509
0
LINE
8
BLACK
6
CONTINUOUS
10
3.19632
20
-2.68509
11
3.19627
21
-2.68505
0
LINE
8
BLACK
6
CONTINUOUS
10
3.19627
20
-2.68505
11
3.1944
21
-2.6813
0
LINE
8
BLACK
6
CONTINUOUS
10
3.1944
20
-2.6813
11
3.19411
21
-2.68032
0
LINE
8
BLACK
6
CONTINUOUS
10
3.19411
20
-2.68032
11
3.19415
21
-2.68014
0
LINE
8
BLACK
6
CONTINUOUS
10
3.19415
20
-2.68014
11
3.19409
21
-2.67998
0
LINE
8
BLACK
6
CONTINUOUS
10
3.19409
20
-2.67998
11
3.19409
21
-2.67623
0
LINE
8
BLACK
6
CONTINUOUS
10
3.19409
20
-2.67623
11
3.19427
21
-2.67522
0
LINE
8
BLACK
6
CONTINUOUS
10
3.19427
20
-2.67522
11
3.19438
21
-2.67508
0
LINE
8
BLACK
6
CONTINUOUS
10
3.19438
20
-2.67508
11
3.1944
21
-2.67491
0
LINE
8
BLACK
6
CONTINUOUS
10
3.1944
20
-2.67491
11
3.19627
21
-2.67116
0
LINE
8
BLACK
6
CONTINUOUS
10
3.19627
20
-2.67116
11
3.1968
21
-2.67045
0
LINE
8
BLACK
6
CONTINUOUS
10
3.1968
20
-2.67045
11
3.19683
21
-2.67039
0
LINE
8
BLACK
6
CONTINUOUS
10
3.19683
20
-2.67039
11
3.1987
21
-2.66852
0
LINE
8
BLACK
6
CONTINUOUS
10
3.1987
20
-2.66852
11
3.19942
21
-2.66801
0
LINE
8
BLACK
6
CONTINUOUS
10
3.19942
20
-2.66801
11
3.19947
21
-2.66796
0
LINE
8
BLACK
6
CONTINUOUS
10
3.19947
20
-2.66796
11
3.20322
21
-2.66609
0
LINE
8
BLACK
6
CONTINUOUS
10
3.20322
20
-2.66609
11
3.20371
21
-2.66594
0
LINE
8
BLACK
6
CONTINUOUS
10
3.20371
20
-2.66594
11
3.20382
21
-2.66586
0
LINE
8
BLACK
6
CONTINUOUS
10
3.20382
20
-2.66586
11
3.21132
21
-2.66399
0
LINE
8
BLACK
6
CONTINUOUS
10
3.21132
20
-2.66399
11
3.21191
21
-2.66395
0
LINE
8
BLACK
6
CONTINUOUS
10
3.21191
20
-2.66395
11
3.21204
21
-2.6639
0
LINE
8
BLACK
6
CONTINUOUS
10
3.21204
20
-2.6639
11
3.22141
21
-2.6639
0
LINE
8
BLACK
6
CONTINUOUS
10
3.22141
20
-2.6639
11
3.22199
21
-2.664
0
LINE
8
BLACK
6
CONTINUOUS
10
3.20557
20
-2.67151
11
3.20254
21
-2.67303
0
LINE
8
BLACK
6
CONTINUOUS
10
3.20254
20
-2.67303
11
3.20134
21
-2.67423
0
LINE
8
BLACK
6
CONTINUOUS
10
3.20134
20
-2.67423
11
3.19999
21
-2.67692
0
LINE
8
BLACK
6
CONTINUOUS
10
3.19999
20
-2.67692
11
3.19999
21
-2.67928
0
LINE
8
BLACK
6
CONTINUOUS
10
3.19999
20
-2.67928
11
3.20134
21
-2.68198
0
LINE
8
BLACK
6
CONTINUOUS
10
3.20134
20
-2.68198
11
3.20254
21
-2.68318
0
LINE
8
BLACK
6
CONTINUOUS
10
3.20254
20
-2.68318
11
3.20557
21
-2.68469
0
LINE
8
BLACK
6
CONTINUOUS
10
3.20557
20
-2.68469
11
3.2124
21
-2.6864
0
LINE
8
BLACK
6
CONTINUOUS
10
3.2124
20
-2.6864
11
3.22105
21
-2.6864
0
LINE
8
BLACK
6
CONTINUOUS
10
3.22105
20
-2.6864
11
3.22788
21
-2.68469
0
LINE
8
BLACK
6
CONTINUOUS
10
3.22788
20
-2.68469
11
3.23091
21
-2.68317
0
LINE
8
BLACK
6
CONTINUOUS
10
3.23091
20
-2.68317
11
3.23211
21
-2.68198
0
LINE
8
BLACK
6
CONTINUOUS
10
3.23211
20
-2.68198
11
3.23346
21
-2.67928
0
LINE
8
BLACK
6
CONTINUOUS
10
3.23346
20
-2.67928
11
3.23346
21
-2.67692
0
LINE
8
BLACK
6
CONTINUOUS
10
3.23346
20
-2.67692
11
3.23211
21
-2.67423
0
LINE
8
BLACK
6
CONTINUOUS
10
3.23211
20
-2.67423
11
3.23091
21
-2.67303
0
LINE
8
BLACK
6
CONTINUOUS
10
3.23091
20
-2.67303
11
3.22788
21
-2.67151
0
LINE
8
BLACK
6
CONTINUOUS
10
3.22788
20
-2.67151
11
3.22105
21
-2.66981
0
LINE
8
BLACK
6
CONTINUOUS
10
3.22105
20
-2.66981
11
3.2124
21
-2.66981
0
LINE
8
BLACK
6
CONTINUOUS
10
3.2124
20
-2.66981
11
3.20557
21
-2.67151
0
LINE
8
BLACK
6
CONTINUOUS
10
3.4105
20
-2.65059
11
3.4136
21
-2.65263
0
LINE
8
BLACK
6
CONTINUOUS
10
3.4136
20
-2.65263
11
3.41798
21
-2.6538
0
LINE
8
BLACK
6
CONTINUOUS
10
3.41798
20
-2.6538
11
3.42443
21
-2.65422
0
LINE
8
BLACK
6
CONTINUOUS
10
3.42443
20
-2.65422
11
3.42543
21
-2.65446
0
LINE
8
BLACK
6
CONTINUOUS
10
3.42543
20
-2.65446
11
3.42555
21
-2.65458
0
LINE
8
BLACK
6
CONTINUOUS
10
3.42555
20
-2.65458
11
3.42572
21
-2.65461
0
LINE
8
BLACK
6
CONTINUOUS
10
3.42572
20
-2.65461
11
3.42627
21
-2.65527
0
LINE
8
BLACK
6
CONTINUOUS
10
3.42627
20
-2.65527
11
3.42689
21
-2.65586
0
LINE
8
BLACK
6
CONTINUOUS
10
3.42689
20
-2.65586
11
3.42691
21
-2.65603
0
LINE
8
BLACK
6
CONTINUOUS
10
3.42691
20
-2.65603
11
3.42702
21
-2.65616
0
LINE
8
BLACK
6
CONTINUOUS
10
3.42702
20
-2.65616
11
3.42702
21
-2.65701
0
LINE
8
BLACK
6
CONTINUOUS
10
3.42702
20
-2.65701
11
3.42711
21
-2.65787
0
LINE
8
BLACK
6
CONTINUOUS
10
3.42711
20
-2.65787
11
3.42702
21
-2.65801
0
LINE
8
BLACK
6
CONTINUOUS
10
3.42702
20
-2.65801
11
3.42702
21
-2.65818
0
LINE
8
BLACK
6
CONTINUOUS
10
3.42702
20
-2.65818
11
3.42647
21
-2.65883
0
LINE
8
BLACK
6
CONTINUOUS
10
3.42647
20
-2.65883
11
3.42599
21
-2.65955
0
LINE
8
BLACK
6
CONTINUOUS
10
3.42599
20
-2.65955
11
3.42583
21
-2.65959
0
LINE
8
BLACK
6
CONTINUOUS
10
3.42583
20
-2.65959
11
3.42572
21
-2.65972
0
LINE
8
BLACK
6
CONTINUOUS
10
3.42572
20
-2.65972
11
3.39418
21
-2.67793
0
LINE
8
BLACK
6
CONTINUOUS
10
3.39418
20
-2.67793
11
3.39833
21
-2.68512
0
LINE
8
BLACK
6
CONTINUOUS
10
3.39833
20
-2.68512
11
3.39868
21
-2.68608
0
LINE
8
BLACK
6
CONTINUOUS
10
3.39868
20
-2.68608
11
3.39833
21
-2.68807
0
LINE
8
BLACK
6
CONTINUOUS
10
3.39833
20
-2.68807
11
3.39678
21
-2.68937
0
LINE
8
BLACK
6
CONTINUOUS
10
3.39678
20
-2.68937
11
3.39476
21
-2.68937
0
LINE
8
BLACK
6
CONTINUOUS
10
3.39476
20
-2.68937
11
3.39321
21
-2.68807
0
LINE
8
BLACK
6
CONTINUOUS
10
3.39321
20
-2.68807
11
3.38197
21
-2.66859
0
LINE
8
BLACK
6
CONTINUOUS
10
3.38197
20
-2.66859
11
3.38162
21
-2.66762
0
LINE
8
BLACK
6
CONTINUOUS
10
3.38162
20
-2.66762
11
3.38197
21
-2.66563
0
LINE
8
BLACK
6
CONTINUOUS
10
3.38197
20
-2.66563
11
3.38351
21
-2.66434
0
LINE
8
BLACK
6
CONTINUOUS
10
3.38351
20
-2.66434
11
3.38553
21
-2.66434
0
LINE
8
BLACK
6
CONTINUOUS
10
3.38553
20
-2.66434
11
3.38708
21
-2.66563
0
LINE
8
BLACK
6
CONTINUOUS
10
3.38708
20
-2.66563
11
3.39123
21
-2.67282
0
LINE
8
BLACK
6
CONTINUOUS
10
3.39123
20
-2.67282
11
3.41497
21
-2.65911
0
LINE
8
BLACK
6
CONTINUOUS
10
3.41497
20
-2.65911
11
3.41161
21
-2.65821
0
LINE
8
BLACK
6
CONTINUOUS
10
3.41161
20
-2.65821
11
3.41081
21
-2.65784
0
LINE
8
BLACK
6
CONTINUOUS
10
3.41081
20
-2.65784
11
3.41075
21
-2.65782
0
LINE
8
BLACK
6
CONTINUOUS
10
3.41075
20
-2.65782
11
3.40725
21
-2.65551
0
LINE
8
BLACK
6
CONTINUOUS
10
3.40725
20
-2.65551
11
3.40651
21
-2.65481
0
LINE
8
BLACK
6
CONTINUOUS
10
3.40651
20
-2.65481
11
3.40593
21
-2.65287
0
LINE
8
BLACK
6
CONTINUOUS
10
3.40593
20
-2.65287
11
3.40673
21
-2.65102
0
LINE
8
BLACK
6
CONTINUOUS
10
3.40673
20
-2.65102
11
3.40854
21
-2.65012
0
LINE
8
BLACK
6
CONTINUOUS
10
3.40854
20
-2.65012
11
3.4105
21
-2.65059
0
LINE
8
BLACK
6
CONTINUOUS
10
3.17368
20
-2.6757
11
3.17411
21
-2.67674
0
LINE
8
BLACK
6
CONTINUOUS
10
3.17411
20
-2.67674
11
3.17411
21
-2.68349
0
LINE
8
BLACK
6
CONTINUOUS
10
3.17411
20
-2.68349
11
3.17368
21
-2.68454
0
LINE
8
BLACK
6
CONTINUOUS
10
3.17368
20
-2.68454
11
3.17263
21
-2.68497
0
LINE
8
BLACK
6
CONTINUOUS
10
3.17263
20
-2.68497
11
3.17159
21
-2.68454
0
LINE
8
BLACK
6
CONTINUOUS
10
3.17159
20
-2.68454
11
3.17116
21
-2.68349
0
LINE
8
BLACK
6
CONTINUOUS
10
3.17116
20
-2.68349
11
3.17116
21
-2.68159
0
LINE
8
BLACK
6
CONTINUOUS
10
3.17116
20
-2.68159
11
3.16482
21
-2.68159
0
LINE
8
BLACK
6
CONTINUOUS
10
3.16482
20
-2.68159
11
3.16495
21
-2.68171
0
LINE
8
BLACK
6
CONTINUOUS
10
3.16495
20
-2.68171
11
3.16552
21
-2.68283
0
LINE
8
BLACK
6
CONTINUOUS
10
3.16552
20
-2.68283
11
3.1656
21
-2.68396
0
LINE
8
BLACK
6
CONTINUOUS
10
3.1656
20
-2.68396
11
3.16486
21
-2.68481
0
LINE
8
BLACK
6
CONTINUOUS
10
3.16486
20
-2.68481
11
3.16373
21
-2.68489
0
LINE
8
BLACK
6
CONTINUOUS
10
3.16373
20
-2.68489
11
3.16288
21
-2.68415
0
LINE
8
BLACK
6
CONTINUOUS
10
3.16288
20
-2.68415
11
3.16242
21
-2.68324
0
LINE
8
BLACK
6
CONTINUOUS
10
3.16242
20
-2.68324
11
3.16157
21
-2.68239
0
LINE
8
BLACK
6
CONTINUOUS
10
3.16157
20
-2.68239
11
3.16
21
-2.68135
0
LINE
8
BLACK
6
CONTINUOUS
10
3.16
20
-2.68135
11
3.15992
21
-2.68122
0
LINE
8
BLACK
6
CONTINUOUS
10
3.15992
20
-2.68122
11
3.15978
21
-2.68116
0
LINE
8
BLACK
6
CONTINUOUS
10
3.15978
20
-2.68116
11
3.15961
21
-2.68076
0
LINE
8
BLACK
6
CONTINUOUS
10
3.15961
20
-2.68076
11
3.15937
21
-2.68041
0
LINE
8
BLACK
6
CONTINUOUS
10
3.15937
20
-2.68041
11
3.1594
21
-2.68026
0
LINE
8
BLACK
6
CONTINUOUS
10
3.1594
20
-2.68026
11
3.15935
21
-2.68012
0
LINE
8
BLACK
6
CONTINUOUS
10
3.15935
20
-2.68012
11
3.15951
21
-2.67972
0
LINE
8
BLACK
6
CONTINUOUS
10
3.15951
20
-2.67972
11
3.15959
21
-2.6793
0
LINE
8
BLACK
6
CONTINUOUS
10
3.15959
20
-2.6793
11
3.15972
21
-2.67921
0
LINE
8
BLACK
6
CONTINUOUS
10
3.15972
20
-2.67921
11
3.15978
21
-2.67907
0
LINE
8
BLACK
6
CONTINUOUS
10
3.15978
20
-2.67907
11
3.16018
21
-2.67891
0
LINE
8
BLACK
6
CONTINUOUS
10
3.16018
20
-2.67891
11
3.16053
21
-2.67867
0
LINE
8
BLACK
6
CONTINUOUS
10
3.16053
20
-2.67867
11
3.16068
21
-2.6787
0
LINE
8
BLACK
6
CONTINUOUS
10
3.16068
20
-2.6787
11
3.16082
21
-2.67864
0
LINE
8
BLACK
6
CONTINUOUS
10
3.16082
20
-2.67864
11
3.17116
21
-2.67864
0
LINE
8
BLACK
6
CONTINUOUS
10
3.17116
20
-2.67864
11
3.17116
21
-2.67674
0
LINE
8
BLACK
6
CONTINUOUS
10
3.17116
20
-2.67674
11
3.17159
21
-2.6757
0
LINE
8
BLACK
6
CONTINUOUS
10
3.17159
20
-2.6757
11
3.17263
21
-2.67527
0
LINE
8
BLACK
6
CONTINUOUS
10
3.17263
20
-2.67527
11
3.17368
21
-2.6757
0
LINE
8
BLACK
6
CONTINUOUS
10
3.39176
20
-2.61811
11
3.39486
21
-2.62016
0
LINE
8
BLACK
6
CONTINUOUS
10
3.39486
20
-2.62016
11
3.39923
21
-2.62133
0
LINE
8
BLACK
6
CONTINUOUS
10
3.39923
20
-2.62133
11
3.40569
21
-2.62175
0
LINE
8
BLACK
6
CONTINUOUS
10
3.40569
20
-2.62175
11
3.40668
21
-2.62199
0
LINE
8
BLACK
6
CONTINUOUS
10
3.40668
20
-2.62199
11
3.4068
21
-2.62211
0
LINE
8
BLACK
6
CONTINUOUS
10
3.4068
20
-2.62211
11
3.40697
21
-2.62214
0
LINE
8
BLACK
6
CONTINUOUS
10
3.40697
20
-2.62214
11
3.40752
21
-2.62279
0
LINE
8
BLACK
6
CONTINUOUS
10
3.40752
20
-2.62279
11
3.40814
21
-2.62339
0
LINE
8
BLACK
6
CONTINUOUS
10
3.40814
20
-2.62339
11
3.40816
21
-2.62356
0
LINE
8
BLACK
6
CONTINUOUS
10
3.40816
20
-2.62356
11
3.40827
21
-2.62369
0
LINE
8
BLACK
6
CONTINUOUS
10
3.40827
20
-2.62369
11
3.40827
21
-2.62454
0
LINE
8
BLACK
6
CONTINUOUS
10
3.40827
20
-2.62454
11
3.40836
21
-2.62539
0
LINE
8
BLACK
6
CONTINUOUS
10
3.40836
20
-2.62539
11
3.40827
21
-2.62554
0
LINE
8
BLACK
6
CONTINUOUS
10
3.40827
20
-2.62554
11
3.40827
21
-2.62571
0
LINE
8
BLACK
6
CONTINUOUS
10
3.40827
20
-2.62571
11
3.40772
21
-2.62636
0
LINE
8
BLACK
6
CONTINUOUS
10
3.40772
20
-2.62636
11
3.40724
21
-2.62707
0
LINE
8
BLACK
6
CONTINUOUS
10
3.40724
20
-2.62707
11
3.40708
21
-2.62712
0
LINE
8
BLACK
6
CONTINUOUS
10
3.40708
20
-2.62712
11
3.40697
21
-2.62725
0
LINE
8
BLACK
6
CONTINUOUS
10
3.40697
20
-2.62725
11
3.37543
21
-2.64546
0
LINE
8
BLACK
6
CONTINUOUS
10
3.37543
20
-2.64546
11
3.37958
21
-2.65265
0
LINE
8
BLACK
6
CONTINUOUS
10
3.37958
20
-2.65265
11
3.37993
21
-2.65361
0
LINE
8
BLACK
6
CONTINUOUS
10
3.37993
20
-2.65361
11
3.37958
21
-2.6556
0
LINE
8
BLACK
6
CONTINUOUS
10
3.37958
20
-2.6556
11
3.37803
21
-2.6569
0
LINE
8
BLACK
6
CONTINUOUS
10
3.37803
20
-2.6569
11
3.37601
21
-2.6569
0
LINE
8
BLACK
6
CONTINUOUS
10
3.37601
20
-2.6569
11
3.37447
21
-2.6556
0
LINE
8
BLACK
6
CONTINUOUS
10
3.37447
20
-2.6556
11
3.36322
21
-2.63612
0
LINE
8
BLACK
6
CONTINUOUS
10
3.36322
20
-2.63612
11
3.36287
21
-2.63515
0
LINE
8
BLACK
6
CONTINUOUS
10
3.36287
20
-2.63515
11
3.36322
21
-2.63316
0
LINE
8
BLACK
6
CONTINUOUS
10
3.36322
20
-2.63316
11
3.36477
21
-2.63186
0
LINE
8
BLACK
6
CONTINUOUS
10
3.36477
20
-2.63186
11
3.36679
21
-2.63186
0
LINE
8
BLACK
6
CONTINUOUS
10
3.36679
20
-2.63186
11
3.36833
21
-2.63316
0
LINE
8
BLACK
6
CONTINUOUS
10
3.36833
20
-2.63316
11
3.37248
21
-2.64035
0
LINE
8
BLACK
6
CONTINUOUS
10
3.37248
20
-2.64035
11
3.39622
21
-2.62664
0
LINE
8
BLACK
6
CONTINUOUS
10
3.39622
20
-2.62664
11
3.39286
21
-2.62574
0
LINE
8
BLACK
6
CONTINUOUS
10
3.39286
20
-2.62574
11
3.39206
21
-2.62537
0
LINE
8
BLACK
6
CONTINUOUS
10
3.39206
20
-2.62537
11
3.392
21
-2.62535
0
LINE
8
BLACK
6
CONTINUOUS
10
3.392
20
-2.62535
11
3.3885
21
-2.62304
0
LINE
8
BLACK
6
CONTINUOUS
10
3.3885
20
-2.62304
11
3.38776
21
-2.62234
0
LINE
8
BLACK
6
CONTINUOUS
10
3.38776
20
-2.62234
11
3.38718
21
-2.6204
0
LINE
8
BLACK
6
CONTINUOUS
10
3.38718
20
-2.6204
11
3.38799
21
-2.61855
0
LINE
8
BLACK
6
CONTINUOUS
10
3.38799
20
-2.61855
11
3.38979
21
-2.61764
0
LINE
8
BLACK
6
CONTINUOUS
10
3.38979
20
-2.61764
11
3.39176
21
-2.61811
0
LINE
8
BLACK
6
CONTINUOUS
10
3.00041
20
-2.64176
11
3.00084
21
-2.64174
0
LINE
8
BLACK
6
CONTINUOUS
10
3.00084
20
-2.64174
11
3.00095
21
-2.64184
0
LINE
8
BLACK
6
CONTINUOUS
10
3.00095
20
-2.64184
11
3.0011
21
-2.64186
0
LINE
8
BLACK
6
CONTINUOUS
10
3.0011
20
-2.64186
11
3.01005
21
-2.64702
0
LINE
8
BLACK
6
CONTINUOUS
10
3.01005
20
-2.64702
11
3.011
21
-2.64538
0
LINE
8
BLACK
6
CONTINUOUS
10
3.011
20
-2.64538
11
3.0119
21
-2.64469
0
LINE
8
BLACK
6
CONTINUOUS
10
3.0119
20
-2.64469
11
3.01302
21
-2.64484
0
LINE
8
BLACK
6
CONTINUOUS
10
3.01302
20
-2.64484
11
3.0137
21
-2.64573
0
LINE
8
BLACK
6
CONTINUOUS
10
3.0137
20
-2.64573
11
3.01356
21
-2.64685
0
LINE
8
BLACK
6
CONTINUOUS
10
3.01356
20
-2.64685
11
3.01018
21
-2.6527
0
LINE
8
BLACK
6
CONTINUOUS
10
3.01018
20
-2.6527
11
3.00929
21
-2.65339
0
LINE
8
BLACK
6
CONTINUOUS
10
3.00929
20
-2.65339
11
3.00817
21
-2.65324
0
LINE
8
BLACK
6
CONTINUOUS
10
3.00817
20
-2.65324
11
3.00748
21
-2.65234
0
LINE
8
BLACK
6
CONTINUOUS
10
3.00748
20
-2.65234
11
3.00763
21
-2.65122
0
LINE
8
BLACK
6
CONTINUOUS
10
3.00763
20
-2.65122
11
3.00857
21
-2.64958
0
LINE
8
BLACK
6
CONTINUOUS
10
3.00857
20
-2.64958
11
3.00309
21
-2.64641
0
LINE
8
BLACK
6
CONTINUOUS
10
3.00309
20
-2.64641
11
3.00315
21
-2.64658
0
LINE
8
BLACK
6
CONTINUOUS
10
3.00315
20
-2.64658
11
3.00307
21
-2.64783
0
LINE
8
BLACK
6
CONTINUOUS
10
3.00307
20
-2.64783
11
3.00258
21
-2.64885
0
LINE
8
BLACK
6
CONTINUOUS
10
3.00258
20
-2.64885
11
3.00151
21
-2.64922
0
LINE
8
BLACK
6
CONTINUOUS
10
3.00151
20
-2.64922
11
3.00049
21
-2.64872
0
LINE
8
BLACK
6
CONTINUOUS
10
3.00049
20
-2.64872
11
3.00012
21
-2.64766
0
LINE
8
BLACK
6
CONTINUOUS
10
3.00012
20
-2.64766
11
3.00019
21
-2.64664
0
LINE
8
BLACK
6
CONTINUOUS
10
3.00019
20
-2.64664
11
2.99987
21
-2.64547
0
LINE
8
BLACK
6
CONTINUOUS
10
2.99987
20
-2.64547
11
2.99904
21
-2.64379
0
LINE
8
BLACK
6
CONTINUOUS
10
2.99904
20
-2.64379
11
2.99903
21
-2.64364
0
LINE
8
BLACK
6
CONTINUOUS
10
2.99903
20
-2.64364
11
2.99894
21
-2.64352
0
LINE
8
BLACK
6
CONTINUOUS
10
2.99894
20
-2.64352
11
2.99899
21
-2.64309
0
LINE
8
BLACK
6
CONTINUOUS
10
2.99899
20
-2.64309
11
2.99896
21
-2.64266
0
LINE
8
BLACK
6
CONTINUOUS
10
2.99896
20
-2.64266
11
2.99906
21
-2.64255
0
LINE
8
BLACK
6
CONTINUOUS
10
2.99906
20
-2.64255
11
2.99908
21
-2.6424
0
LINE
8
BLACK
6
CONTINUOUS
10
2.99908
20
-2.6424
11
2.99943
21
-2.64213
0
LINE
8
BLACK
6
CONTINUOUS
10
2.99943
20
-2.64213
11
2.99971
21
-2.64181
0
LINE
8
BLACK
6
CONTINUOUS
10
2.99971
20
-2.64181
11
2.99986
21
-2.6418
0
LINE
8
BLACK
6
CONTINUOUS
10
2.99986
20
-2.6418
11
2.99998
21
-2.64171
0
LINE
8
BLACK
6
CONTINUOUS
10
2.99998
20
-2.64171
11
3.00041
21
-2.64176
0
LINE
8
BLACK
6
CONTINUOUS
10
3.32574
20
-2.62295
11
3.32659
21
-2.62351
0
LINE
8
BLACK
6
CONTINUOUS
10
3.32659
20
-2.62351
11
3.32775
21
-2.62382
0
LINE
8
BLACK
6
CONTINUOUS
10
3.32775
20
-2.62382
11
3.32963
21
-2.62394
0
LINE
8
BLACK
6
CONTINUOUS
10
3.32963
20
-2.62394
11
3.32977
21
-2.62401
0
LINE
8
BLACK
6
CONTINUOUS
10
3.32977
20
-2.62401
11
3.32992
21
-2.62399
0
LINE
8
BLACK
6
CONTINUOUS
10
3.32992
20
-2.62399
11
3.33026
21
-2.62425
0
LINE
8
BLACK
6
CONTINUOUS
10
3.33026
20
-2.62425
11
3.33064
21
-2.62444
0
LINE
8
BLACK
6
CONTINUOUS
10
3.33064
20
-2.62444
11
3.33069
21
-2.62459
0
LINE
8
BLACK
6
CONTINUOUS
10
3.33069
20
-2.62459
11
3.33081
21
-2.62468
0
LINE
8
BLACK
6
CONTINUOUS
10
3.33081
20
-2.62468
11
3.33087
21
-2.62511
0
LINE
8
BLACK
6
CONTINUOUS
10
3.33087
20
-2.62511
11
3.33101
21
-2.62551
0
LINE
8
BLACK
6
CONTINUOUS
10
3.33101
20
-2.62551
11
3.33094
21
-2.62565
0
LINE
8
BLACK
6
CONTINUOUS
10
3.33094
20
-2.62565
11
3.33096
21
-2.6258
0
LINE
8
BLACK
6
CONTINUOUS
10
3.33096
20
-2.6258
11
3.3307
21
-2.62614
0
LINE
8
BLACK
6
CONTINUOUS
10
3.3307
20
-2.62614
11
3.33051
21
-2.62653
0
LINE
8
BLACK
6
CONTINUOUS
10
3.33051
20
-2.62653
11
3.33037
21
-2.62658
0
LINE
8
BLACK
6
CONTINUOUS
10
3.33037
20
-2.62658
11
3.33027
21
-2.6267
0
LINE
8
BLACK
6
CONTINUOUS
10
3.33027
20
-2.6267
11
3.32132
21
-2.63186
0
LINE
8
BLACK
6
CONTINUOUS
10
3.32132
20
-2.63186
11
3.32227
21
-2.63351
0
LINE
8
BLACK
6
CONTINUOUS
10
3.32227
20
-2.63351
11
3.32242
21
-2.63463
0
LINE
8
BLACK
6
CONTINUOUS
10
3.32242
20
-2.63463
11
3.32173
21
-2.63552
0
LINE
8
BLACK
6
CONTINUOUS
10
3.32173
20
-2.63552
11
3.32061
21
-2.63567
0
LINE
8
BLACK
6
CONTINUOUS
10
3.32061
20
-2.63567
11
3.31972
21
-2.63498
0
LINE
8
BLACK
6
CONTINUOUS
10
3.31972
20
-2.63498
11
3.31634
21
-2.62914
0
LINE
8
BLACK
6
CONTINUOUS
10
3.31634
20
-2.62914
11
3.31619
21
-2.62802
0
LINE
8
BLACK
6
CONTINUOUS
10
3.31619
20
-2.62802
11
3.31688
21
-2.62712
0
LINE
8
BLACK
6
CONTINUOUS
10
3.31688
20
-2.62712
11
3.318
21
-2.62697
0
LINE
8
BLACK
6
CONTINUOUS
10
3.318
20
-2.62697
11
3.3189
21
-2.62766
0
LINE
8
BLACK
6
CONTINUOUS
10
3.3189
20
-2.62766
11
3.31985
21
-2.62931
0
LINE
8
BLACK
6
CONTINUOUS
10
3.31985
20
-2.62931
11
3.32533
21
-2.62614
0
LINE
8
BLACK
6
CONTINUOUS
10
3.32533
20
-2.62614
11
3.32516
21
-2.62611
0
LINE
8
BLACK
6
CONTINUOUS
10
3.32516
20
-2.62611
11
3.32411
21
-2.62541
0
LINE
8
BLACK
6
CONTINUOUS
10
3.32411
20
-2.62541
11
3.32348
21
-2.62448
0
LINE
8
BLACK
6
CONTINUOUS
10
3.32348
20
-2.62448
11
3.32369
21
-2.62337
0
LINE
8
BLACK
6
CONTINUOUS
10
3.32369
20
-2.62337
11
3.32463
21
-2.62274
0
LINE
8
BLACK
6
CONTINUOUS
10
3.32463
20
-2.62274
11
3.32574
21
-2.62295
0
LINE
8
BLACK
6
CONTINUOUS
10
2.85581
20
-2.58627
11
2.85599
21
-2.58625
0
LINE
8
BLACK
6
CONTINUOUS
10
2.85599
20
-2.58625
11
2.86111
21
-2.58762
0
LINE
8
BLACK
6
CONTINUOUS
10
2.86111
20
-2.58762
11
2.86191
21
-2.588
0
LINE
8
BLACK
6
CONTINUOUS
10
2.86191
20
-2.588
11
2.86197
21
-2.58801
0
LINE
8
BLACK
6
CONTINUOUS
10
2.86197
20
-2.58801
11
2.86547
21
-2.59032
0
LINE
8
BLACK
6
CONTINUOUS
10
2.86547
20
-2.59032
11
2.86584
21
-2.59067
0
LINE
8
BLACK
6
CONTINUOUS
10
2.86584
20
-2.59067
11
2.86597
21
-2.59073
0
LINE
8
BLACK
6
CONTINUOUS
10
2.86597
20
-2.59073
11
2.87134
21
-2.59629
0
LINE
8
BLACK
6
CONTINUOUS
10
2.87134
20
-2.59629
11
2.87167
21
-2.59678
0
LINE
8
BLACK
6
CONTINUOUS
10
2.87167
20
-2.59678
11
2.87177
21
-2.59687
0
LINE
8
BLACK
6
CONTINUOUS
10
2.87177
20
-2.59687
11
2.87459
21
-2.60174
0
LINE
8
BLACK
6
CONTINUOUS
10
2.87459
20
-2.60174
11
2.87479
21
-2.60229
0
LINE
8
BLACK
6
CONTINUOUS
10
2.87479
20
-2.60229
11
2.87487
21
-2.6024
0
LINE
8
BLACK
6
CONTINUOUS
10
2.87487
20
-2.6024
11
2.87699
21
-2.60983
0
LINE
8
BLACK
6
CONTINUOUS
10
2.87699
20
-2.60983
11
2.87705
21
-2.61034
0
LINE
8
BLACK
6
CONTINUOUS
10
2.87705
20
-2.61034
11
2.8771
21
-2.61047
0
LINE
8
BLACK
6
CONTINUOUS
10
2.8771
20
-2.61047
11
2.87735
21
-2.61465
0
LINE
8
BLACK
6
CONTINUOUS
10
2.87735
20
-2.61465
11
2.87725
21
-2.61553
0
LINE
8
BLACK
6
CONTINUOUS
10
2.87725
20
-2.61553
11
2.87726
21
-2.61559
0
LINE
8
BLACK
6
CONTINUOUS
10
2.87726
20
-2.61559
11
2.87589
21
-2.62072
0
LINE
8
BLACK
6
CONTINUOUS
10
2.87589
20
-2.62072
11
2.87545
21
-2.62164
0
LINE
8
BLACK
6
CONTINUOUS
10
2.87545
20
-2.62164
11
2.87531
21
-2.62175
0
LINE
8
BLACK
6
CONTINUOUS
10
2.87531
20
-2.62175
11
2.87524
21
-2.62191
0
LINE
8
BLACK
6
CONTINUOUS
10
2.87524
20
-2.62191
11
2.87131
21
-2.62635
0
LINE
8
BLACK
6
CONTINUOUS
10
2.87131
20
-2.62635
11
2.87062
21
-2.62689
0
LINE
8
BLACK
6
CONTINUOUS
10
2.87062
20
-2.62689
11
2.87058
21
-2.62694
0
LINE
8
BLACK
6
CONTINUOUS
10
2.87058
20
-2.62694
11
2.86246
21
-2.63163
0
LINE
8
BLACK
6
CONTINUOUS
10
2.86246
20
-2.63163
11
2.86209
21
-2.63176
0
LINE
8
BLACK
6
CONTINUOUS
10
2.86209
20
-2.63176
11
2.86199
21
-2.63185
0
LINE
8
BLACK
6
CONTINUOUS
10
2.86199
20
-2.63185
11
2.86186
21
-2.63185
0
LINE
8
BLACK
6
CONTINUOUS
10
2.86186
20
-2.63185
11
2.8615
21
-2.63198
0
LINE
8
BLACK
6
CONTINUOUS
10
2.8615
20
-2.63198
11
2.86074
21
-2.63185
0
LINE
8
BLACK
6
CONTINUOUS
10
2.86074
20
-2.63185
11
2.85997
21
-2.63185
0
LINE
8
BLACK
6
CONTINUOUS
10
2.85997
20
-2.63185
11
2.85977
21
-2.63168
0
LINE
8
BLACK
6
CONTINUOUS
10
2.85977
20
-2.63168
11
2.85951
21
-2.63163
0
LINE
8
BLACK
6
CONTINUOUS
10
2.85951
20
-2.63163
11
2.85901
21
-2.63104
0
LINE
8
BLACK
6
CONTINUOUS
10
2.85901
20
-2.63104
11
2.85843
21
-2.63055
0
LINE
8
BLACK
6
CONTINUOUS
10
2.85843
20
-2.63055
11
2.83874
21
-2.59645
0
LINE
8
BLACK
6
CONTINUOUS
10
2.83874
20
-2.59645
11
2.83861
21
-2.59609
0
LINE
8
BLACK
6
CONTINUOUS
10
2.83861
20
-2.59609
11
2.83852
21
-2.59599
0
LINE
8
BLACK
6
CONTINUOUS
10
2.83852
20
-2.59599
11
2.83852
21
-2.59586
0
LINE
8
BLACK
6
CONTINUOUS
10
2.83852
20
-2.59586
11
2.83839
21
-2.59549
0
LINE
8
BLACK
6
CONTINUOUS
10
2.83839
20
-2.59549
11
2.83852
21
-2.59474
0
LINE
8
BLACK
6
CONTINUOUS
10
2.83852
20
-2.59474
11
2.83852
21
-2.59397
0
LINE
8
BLACK
6
CONTINUOUS
10
2.83852
20
-2.59397
11
2.83869
21
-2.59376
0
LINE
8
BLACK
6
CONTINUOUS
10
2.83869
20
-2.59376
11
2.83874
21
-2.5935
0
LINE
8
BLACK
6
CONTINUOUS
10
2.83874
20
-2.5935
11
2.83933
21
-2.59301
0
LINE
8
BLACK
6
CONTINUOUS
10
2.83933
20
-2.59301
11
2.83982
21
-2.59242
0
LINE
8
BLACK
6
CONTINUOUS
10
2.83982
20
-2.59242
11
2.84794
21
-2.58773
0
LINE
8
BLACK
6
CONTINUOUS
10
2.84794
20
-2.58773
11
2.84877
21
-2.58743
0
LINE
8
BLACK
6
CONTINUOUS
10
2.84877
20
-2.58743
11
2.84882
21
-2.5874
0
LINE
8
BLACK
6
CONTINUOUS
10
2.84882
20
-2.5874
11
2.85463
21
-2.58621
0
LINE
8
BLACK
6
CONTINUOUS
10
2.85463
20
-2.58621
11
2.85566
21
-2.58618
0
LINE
8
BLACK
6
CONTINUOUS
10
2.85566
20
-2.58618
11
2.85581
21
-2.58627
0
LINE
8
BLACK
6
CONTINUOUS
10
2.85048
20
-2.59309
11
2.84533
21
-2.59606
0
LINE
8
BLACK
6
CONTINUOUS
10
2.84533
20
-2.59606
11
2.86206
21
-2.62504
0
LINE
8
BLACK
6
CONTINUOUS
10
2.86206
20
-2.62504
11
2.86721
21
-2.62207
0
LINE
8
BLACK
6
CONTINUOUS
10
2.86721
20
-2.62207
11
2.87036
21
-2.61851
0
LINE
8
BLACK
6
CONTINUOUS
10
2.87036
20
-2.61851
11
2.87143
21
-2.61453
0
LINE
8
BLACK
6
CONTINUOUS
10
2.87143
20
-2.61453
11
2.87123
21
-2.61115
0
LINE
8
BLACK
6
CONTINUOUS
10
2.87123
20
-2.61115
11
2.86929
21
-2.60437
0
LINE
8
BLACK
6
CONTINUOUS
10
2.86929
20
-2.60437
11
2.86684
21
-2.60013
0
LINE
8
BLACK
6
CONTINUOUS
10
2.86684
20
-2.60013
11
2.86195
21
-2.59507
0
LINE
8
BLACK
6
CONTINUOUS
10
2.86195
20
-2.59507
11
2.85912
21
-2.5932
0
LINE
8
BLACK
6
CONTINUOUS
10
2.85912
20
-2.5932
11
2.85513
21
-2.59214
0
LINE
8
BLACK
6
CONTINUOUS
10
2.85513
20
-2.59214
11
2.85048
21
-2.59309
0
LINE
8
BLACK
6
CONTINUOUS
10
3.38137
20
-2.57971
11
3.38213
21
-2.57971
0
LINE
8
BLACK
6
CONTINUOUS
10
3.38213
20
-2.57971
11
3.38234
21
-2.57988
0
LINE
8
BLACK
6
CONTINUOUS
10
3.38234
20
-2.57988
11
3.3826
21
-2.57992
0
LINE
8
BLACK
6
CONTINUOUS
10
3.3826
20
-2.57992
11
3.38309
21
-2.58051
0
LINE
8
BLACK
6
CONTINUOUS
10
3.38309
20
-2.58051
11
3.38368
21
-2.58101
0
LINE
8
BLACK
6
CONTINUOUS
10
3.38368
20
-2.58101
11
3.38837
21
-2.58912
0
LINE
8
BLACK
6
CONTINUOUS
10
3.38837
20
-2.58912
11
3.38867
21
-2.58995
0
LINE
8
BLACK
6
CONTINUOUS
10
3.38867
20
-2.58995
11
3.3887
21
-2.59001
0
LINE
8
BLACK
6
CONTINUOUS
10
3.3887
20
-2.59001
11
3.38989
21
-2.59582
0
LINE
8
BLACK
6
CONTINUOUS
10
3.38989
20
-2.59582
11
3.38992
21
-2.59684
0
LINE
8
BLACK
6
CONTINUOUS
10
3.38992
20
-2.59684
11
3.38984
21
-2.597
0
LINE
8
BLACK
6
CONTINUOUS
10
3.38984
20
-2.597
11
3.38985
21
-2.59717
0
LINE
8
BLACK
6
CONTINUOUS
10
3.38985
20
-2.59717
11
3.38848
21
-2.60229
0
LINE
8
BLACK
6
CONTINUOUS
10
3.38848
20
-2.60229
11
3.38811
21
-2.60309
0
LINE
8
BLACK
6
CONTINUOUS
10
3.38811
20
-2.60309
11
3.38809
21
-2.60316
0
LINE
8
BLACK
6
CONTINUOUS
10
3.38809
20
-2.60316
11
3.38578
21
-2.60666
0
LINE
8
BLACK
6
CONTINUOUS
10
3.38578
20
-2.60666
11
3.38543
21
-2.60703
0
LINE
8
BLACK
6
CONTINUOUS
10
3.38543
20
-2.60703
11
3.38537
21
-2.60715
0
LINE
8
BLACK
6
CONTINUOUS
10
3.38537
20
-2.60715
11
3.37981
21
-2.61252
0
LINE
8
BLACK
6
CONTINUOUS
10
3.37981
20
-2.61252
11
3.37932
21
-2.61285
0
LINE
8
BLACK
6
CONTINUOUS
10
3.37932
20
-2.61285
11
3.37924
21
-2.61296
0
LINE
8
BLACK
6
CONTINUOUS
10
3.37924
20
-2.61296
11
3.37437
21
-2.61577
0
LINE
8
BLACK
6
CONTINUOUS
10
3.37437
20
-2.61577
11
3.37381
21
-2.61597
0
LINE
8
BLACK
6
CONTINUOUS
10
3.37381
20
-2.61597
11
3.3737
21
-2.61605
0
LINE
8
BLACK
6
CONTINUOUS
10
3.3737
20
-2.61605
11
3.36627
21
-2.61818
0
LINE
8
BLACK
6
CONTINUOUS
10
3.36627
20
-2.61818
11
3.36576
21
-2.61823
0
LINE
8
BLACK
6
CONTINUOUS
10
3.36576
20
-2.61823
11
3.36563
21
-2.61829
0
LINE
8
BLACK
6
CONTINUOUS
10
3.36563
20
-2.61829
11
3.36145
21
-2.61854
0
LINE
8
BLACK
6
CONTINUOUS
10
3.36145
20
-2.61854
11
3.36057
21
-2.61844
0
LINE
8
BLACK
6
CONTINUOUS
10
3.36057
20
-2.61844
11
3.36051
21
-2.61844
0
LINE
8
BLACK
6
CONTINUOUS
10
3.36051
20
-2.61844
11
3.35539
21
-2.61707
0
LINE
8
BLACK
6
CONTINUOUS
10
3.35539
20
-2.61707
11
3.35446
21
-2.61664
0
LINE
8
BLACK
6
CONTINUOUS
10
3.35446
20
-2.61664
11
3.35436
21
-2.61649
0
LINE
8
BLACK
6
CONTINUOUS
10
3.35436
20
-2.61649
11
3.35419
21
-2.61643
0
LINE
8
BLACK
6
CONTINUOUS
10
3.35419
20
-2.61643
11
3.34976
21
-2.61249
0
LINE
8
BLACK
6
CONTINUOUS
10
3.34976
20
-2.61249
11
3.34921
21
-2.6118
0
LINE
8
BLACK
6
CONTINUOUS
10
3.34921
20
-2.6118
11
3.34916
21
-2.61176
0
LINE
8
BLACK
6
CONTINUOUS
10
3.34916
20
-2.61176
11
3.34447
21
-2.60364
0
LINE
8
BLACK
6
CONTINUOUS
10
3.34447
20
-2.60364
11
3.34434
21
-2.60328
0
LINE
8
BLACK
6
CONTINUOUS
10
3.34434
20
-2.60328
11
3.34425
21
-2.60318
0
LINE
8
BLACK
6
CONTINUOUS
10
3.34425
20
-2.60318
11
3.34425
21
-2.60305
0
LINE
8
BLACK
6
CONTINUOUS
10
3.34425
20
-2.60305
11
3.34412
21
-2.60268
0
LINE
8
BLACK
6
CONTINUOUS
10
3.34412
20
-2.60268
11
3.34425
21
-2.60192
0
LINE
8
BLACK
6
CONTINUOUS
10
3.34425
20
-2.60192
11
3.34425
21
-2.60116
0
LINE
8
BLACK
6
CONTINUOUS
10
3.34425
20
-2.60116
11
3.34442
21
-2.60095
0
LINE
8
BLACK
6
CONTINUOUS
10
3.34442
20
-2.60095
11
3.34447
21
-2.60069
0
LINE
8
BLACK
6
CONTINUOUS
10
3.34447
20
-2.60069
11
3.34506
21
-2.6002
0
LINE
8
BLACK
6
CONTINUOUS
10
3.34506
20
-2.6002
11
3.34555
21
-2.59961
0
LINE
8
BLACK
6
CONTINUOUS
10
3.34555
20
-2.59961
11
3.37965
21
-2.57992
0
LINE
8
BLACK
6
CONTINUOUS
10
3.37965
20
-2.57992
11
3.38001
21
-2.57979
0
LINE
8
BLACK
6
CONTINUOUS
10
3.38001
20
-2.57979
11
3.38011
21
-2.57971
0
LINE
8
BLACK
6
CONTINUOUS
10
3.38011
20
-2.57971
11
3.38024
21
-2.57971
0
LINE
8
BLACK
6
CONTINUOUS
10
3.38024
20
-2.57971
11
3.38061
21
-2.57957
0
LINE
8
BLACK
6
CONTINUOUS
10
3.38061
20
-2.57957
11
3.38137
21
-2.57971
0
LINE
8
BLACK
6
CONTINUOUS
10
3.35106
20
-2.60325
11
3.35403
21
-2.60839
0
LINE
8
BLACK
6
CONTINUOUS
10
3.35403
20
-2.60839
11
3.35759
21
-2.61155
0
LINE
8
BLACK
6
CONTINUOUS
10
3.35759
20
-2.61155
11
3.36157
21
-2.61261
0
LINE
8
BLACK
6
CONTINUOUS
10
3.36157
20
-2.61261
11
3.36496
21
-2.61241
0
LINE
8
BLACK
6
CONTINUOUS
10
3.36496
20
-2.61241
11
3.37173
21
-2.61047
0
LINE
8
BLACK
6
CONTINUOUS
10
3.37173
20
-2.61047
11
3.37597
21
-2.60803
0
LINE
8
BLACK
6
CONTINUOUS
10
3.37597
20
-2.60803
11
3.38103
21
-2.60313
0
LINE
8
BLACK
6
CONTINUOUS
10
3.38103
20
-2.60313
11
3.3829
21
-2.6003
0
LINE
8
BLACK
6
CONTINUOUS
10
3.3829
20
-2.6003
11
3.38397
21
-2.59632
0
LINE
8
BLACK
6
CONTINUOUS
10
3.38397
20
-2.59632
11
3.38301
21
-2.59166
0
LINE
8
BLACK
6
CONTINUOUS
10
3.38301
20
-2.59166
11
3.38004
21
-2.58652
0
LINE
8
BLACK
6
CONTINUOUS
10
3.38004
20
-2.58652
11
3.35106
21
-2.60325
0
LINE
8
BLACK
6
CONTINUOUS
10
2.89164
20
-2.56563
11
2.89171
21
-2.56563
0
LINE
8
BLACK
6
CONTINUOUS
10
2.89171
20
-2.56563
11
2.89427
21
-2.56631
0
LINE
8
BLACK
6
CONTINUOUS
10
2.89427
20
-2.56631
11
2.89507
21
-2.56669
0
LINE
8
BLACK
6
CONTINUOUS
10
2.89507
20
-2.56669
11
2.89513
21
-2.5667
0
LINE
8
BLACK
6
CONTINUOUS
10
2.89513
20
-2.5667
11
2.89863
21
-2.56901
0
LINE
8
BLACK
6
CONTINUOUS
10
2.89863
20
-2.56901
11
2.89937
21
-2.56972
0
LINE
8
BLACK
6
CONTINUOUS
10
2.89937
20
-2.56972
11
2.89942
21
-2.56989
0
LINE
8
BLACK
6
CONTINUOUS
10
2.89942
20
-2.56989
11
2.89956
21
-2.57
0
LINE
8
BLACK
6
CONTINUOUS
10
2.89956
20
-2.57
11
2.9005
21
-2.57162
0
LINE
8
BLACK
6
CONTINUOUS
10
2.9005
20
-2.57162
11
2.90085
21
-2.57259
0
LINE
8
BLACK
6
CONTINUOUS
10
2.90085
20
-2.57259
11
2.90082
21
-2.57276
0
LINE
8
BLACK
6
CONTINUOUS
10
2.90082
20
-2.57276
11
2.90089
21
-2.57292
0
LINE
8
BLACK
6
CONTINUOUS
10
2.90089
20
-2.57292
11
2.90114
21
-2.57711
0
LINE
8
BLACK
6
CONTINUOUS
10
2.90114
20
-2.57711
11
2.90104
21
-2.57798
0
LINE
8
BLACK
6
CONTINUOUS
10
2.90104
20
-2.57798
11
2.90104
21
-2.57805
0
LINE
8
BLACK
6
CONTINUOUS
10
2.90104
20
-2.57805
11
2.90044
21
-2.58032
0
LINE
8
BLACK
6
CONTINUOUS
10
2.90044
20
-2.58032
11
2.9027
21
-2.58093
0
LINE
8
BLACK
6
CONTINUOUS
10
2.9027
20
-2.58093
11
2.90351
21
-2.5813
0
LINE
8
BLACK
6
CONTINUOUS
10
2.90351
20
-2.5813
11
2.90357
21
-2.58131
0
LINE
8
BLACK
6
CONTINUOUS
10
2.90357
20
-2.58131
11
2.90707
21
-2.58362
0
LINE
8
BLACK
6
CONTINUOUS
10
2.90707
20
-2.58362
11
2.90781
21
-2.58433
0
LINE
8
BLACK
6
CONTINUOUS
10
2.90781
20
-2.58433
11
2.90786
21
-2.5845
0
LINE
8
BLACK
6
CONTINUOUS
10
2.90786
20
-2.5845
11
2.908
21
-2.58461
0
LINE
8
BLACK
6
CONTINUOUS
10
2.908
20
-2.58461
11
2.91175
21
-2.59111
0
LINE
8
BLACK
6
CONTINUOUS
10
2.91175
20
-2.59111
11
2.9121
21
-2.59207
0
LINE
8
BLACK
6
CONTINUOUS
10
2.9121
20
-2.59207
11
2.91207
21
-2.59224
0
LINE
8
BLACK
6
CONTINUOUS
10
2.91207
20
-2.59224
11
2.91214
21
-2.59241
0
LINE
8
BLACK
6
CONTINUOUS
10
2.91214
20
-2.59241
11
2.91239
21
-2.59659
0
LINE
8
BLACK
6
CONTINUOUS
10
2.91239
20
-2.59659
11
2.91229
21
-2.59747
0
LINE
8
BLACK
6
CONTINUOUS
10
2.91229
20
-2.59747
11
2.91229
21
-2.59753
0
LINE
8
BLACK
6
CONTINUOUS
10
2.91229
20
-2.59753
11
2.91161
21
-2.60009
0
LINE
8
BLACK
6
CONTINUOUS
10
2.91161
20
-2.60009
11
2.91123
21
-2.60089
0
LINE
8
BLACK
6
CONTINUOUS
10
2.91123
20
-2.60089
11
2.91122
21
-2.60096
0
LINE
8
BLACK
6
CONTINUOUS
10
2.91122
20
-2.60096
11
2.90891
21
-2.60445
0
LINE
8
BLACK
6
CONTINUOUS
10
2.90891
20
-2.60445
11
2.9082
21
-2.6052
0
LINE
8
BLACK
6
CONTINUOUS
10
2.9082
20
-2.6052
11
2.90803
21
-2.60525
0
LINE
8
BLACK
6
CONTINUOUS
10
2.90803
20
-2.60525
11
2.90792
21
-2.60538
0
LINE
8
BLACK
6
CONTINUOUS
10
2.90792
20
-2.60538
11
2.90143
21
-2.60913
0
LINE
8
BLACK
6
CONTINUOUS
10
2.90143
20
-2.60913
11
2.90046
21
-2.60948
0
LINE
8
BLACK
6
CONTINUOUS
10
2.90046
20
-2.60948
11
2.90029
21
-2.60945
0
LINE
8
BLACK
6
CONTINUOUS
10
2.90029
20
-2.60945
11
2.90013
21
-2.60952
0
LINE
8
BLACK
6
CONTINUOUS
10
2.90013
20
-2.60952
11
2.89594
21
-2.60978
0
LINE
8
BLACK
6
CONTINUOUS
10
2.89594
20
-2.60978
11
2.89506
21
-2.60967
0
LINE
8
BLACK
6
CONTINUOUS
10
2.89506
20
-2.60967
11
2.895
21
-2.60968
0
LINE
8
BLACK
6
CONTINUOUS
10
2.895
20
-2.60968
11
2.89244
21
-2.60899
0
LINE
8
BLACK
6
CONTINUOUS
10
2.89244
20
-2.60899
11
2.89164
21
-2.60862
0
LINE
8
BLACK
6
CONTINUOUS
10
2.89164
20
-2.60862
11
2.89158
21
-2.60861
0
LINE
8
BLACK
6
CONTINUOUS
10
2.89158
20
-2.60861
11
2.88808
21
-2.6063
0
LINE
8
BLACK
6
CONTINUOUS
10
2.88808
20
-2.6063
11
2.88733
21
-2.60559
0
LINE
8
BLACK
6
CONTINUOUS
10
2.88733
20
-2.60559
11
2.88728
21
-2.60542
0
LINE
8
BLACK
6
CONTINUOUS
10
2.88728
20
-2.60542
11
2.88715
21
-2.60531
0
LINE
8
BLACK
6
CONTINUOUS
10
2.88715
20
-2.60531
11
2.8834
21
-2.59881
0
LINE
8
BLACK
6
CONTINUOUS
10
2.8834
20
-2.59881
11
2.88305
21
-2.59785
0
LINE
8
BLACK
6
CONTINUOUS
10
2.88305
20
-2.59785
11
2.88308
21
-2.59768
0
LINE
8
BLACK
6
CONTINUOUS
10
2.88308
20
-2.59768
11
2.88301
21
-2.59751
0
LINE
8
BLACK
6
CONTINUOUS
10
2.88301
20
-2.59751
11
2.88276
21
-2.59333
0
LINE
8
BLACK
6
CONTINUOUS
10
2.88276
20
-2.59333
11
2.88286
21
-2.59245
0
LINE
8
BLACK
6
CONTINUOUS
10
2.88286
20
-2.59245
11
2.88285
21
-2.59239
0
LINE
8
BLACK
6
CONTINUOUS
10
2.88285
20
-2.59239
11
2.88346
21
-2.59012
0
LINE
8
BLACK
6
CONTINUOUS
10
2.88346
20
-2.59012
11
2.88119
21
-2.58951
0
LINE
8
BLACK
6
CONTINUOUS
10
2.88119
20
-2.58951
11
2.88039
21
-2.58914
0
LINE
8
BLACK
6
CONTINUOUS
10
2.88039
20
-2.58914
11
2.88033
21
-2.58912
0
LINE
8
BLACK
6
CONTINUOUS
10
2.88033
20
-2.58912
11
2.87683
21
-2.58681
0
LINE
8
BLACK
6
CONTINUOUS
10
2.87683
20
-2.58681
11
2.87609
21
-2.58611
0
LINE
8
BLACK
6
CONTINUOUS
10
2.87609
20
-2.58611
11
2.87603
21
-2.58594
0
LINE
8
BLACK
6
CONTINUOUS
10
2.87603
20
-2.58594
11
2.8759
21
-2.58583
0
LINE
8
BLACK
6
CONTINUOUS
10
2.8759
20
-2.58583
11
2.87496
21
-2.5842
0
LINE
8
BLACK
6
CONTINUOUS
10
2.87496
20
-2.5842
11
2.87461
21
-2.58324
0
LINE
8
BLACK
6
CONTINUOUS
10
2.87461
20
-2.58324
11
2.87464
21
-2.58306
0
LINE
8
BLACK
6
CONTINUOUS
10
2.87464
20
-2.58306
11
2.87457
21
-2.5829
0
LINE
8
BLACK
6
CONTINUOUS
10
2.87457
20
-2.5829
11
2.87432
21
-2.57872
0
LINE
8
BLACK
6
CONTINUOUS
10
2.87432
20
-2.57872
11
2.87442
21
-2.57784
0
LINE
8
BLACK
6
CONTINUOUS
10
2.87442
20
-2.57784
11
2.87442
21
-2.57778
0
LINE
8
BLACK
6
CONTINUOUS
10
2.87442
20
-2.57778
11
2.8751
21
-2.57522
0
LINE
8
BLACK
6
CONTINUOUS
10
2.8751
20
-2.57522
11
2.87548
21
-2.57442
0
LINE
8
BLACK
6
CONTINUOUS
10
2.87548
20
-2.57442
11
2.87549
21
-2.57435
0
LINE
8
BLACK
6
CONTINUOUS
10
2.87549
20
-2.57435
11
2.8778
21
-2.57085
0
LINE
8
BLACK
6
CONTINUOUS
10
2.8778
20
-2.57085
11
2.87851
21
-2.57011
0
LINE
8
BLACK
6
CONTINUOUS
10
2.87851
20
-2.57011
11
2.87867
21
-2.57006
0
LINE
8
BLACK
6
CONTINUOUS
10
2.87867
20
-2.57006
11
2.87879
21
-2.56992
0
LINE
8
BLACK
6
CONTINUOUS
10
2.87879
20
-2.56992
11
2.88528
21
-2.56617
0
LINE
8
BLACK
6
CONTINUOUS
10
2.88528
20
-2.56617
11
2.88625
21
-2.56582
0
LINE
8
BLACK
6
CONTINUOUS
10
2.88625
20
-2.56582
11
2.88642
21
-2.56585
0
LINE
8
BLACK
6
CONTINUOUS
10
2.88642
20
-2.56585
11
2.88658
21
-2.56578
0
LINE
8
BLACK
6
CONTINUOUS
10
2.88658
20
-2.56578
11
2.89077
21
-2.56553
0
LINE
8
BLACK
6
CONTINUOUS
10
2.89077
20
-2.56553
11
2.89164
21
-2.56563
0
LINE
8
BLACK
6
CONTINUOUS
10
2.89607
20
-2.58625
11
2.89078
21
-2.5893
0
LINE
8
BLACK
6
CONTINUOUS
10
2.89078
20
-2.5893
11
2.88912
21
-2.59182
0
LINE
8
BLACK
6
CONTINUOUS
10
2.88912
20
-2.59182
11
2.88868
21
-2.59345
0
LINE
8
BLACK
6
CONTINUOUS
10
2.88868
20
-2.59345
11
2.88886
21
-2.59646
0
LINE
8
BLACK
6
CONTINUOUS
10
2.88886
20
-2.59646
11
2.89191
21
-2.60175
0
LINE
8
BLACK
6
CONTINUOUS
10
2.89191
20
-2.60175
11
2.89443
21
-2.60341
0
LINE
8
BLACK
6
CONTINUOUS
10
2.89443
20
-2.60341
11
2.89607
21
-2.60385
0
LINE
8
BLACK
6
CONTINUOUS
10
2.89607
20
-2.60385
11
2.89908
21
-2.60367
0
LINE
8
BLACK
6
CONTINUOUS
10
2.89908
20
-2.60367
11
2.90436
21
-2.60062
0
LINE
8
BLACK
6
CONTINUOUS
10
2.90436
20
-2.60062
11
2.90603
21
-2.5981
0
LINE
8
BLACK
6
CONTINUOUS
10
2.90603
20
-2.5981
11
2.90646
21
-2.59647
0
LINE
8
BLACK
6
CONTINUOUS
10
2.90646
20
-2.59647
11
2.90628
21
-2.59346
0
LINE
8
BLACK
6
CONTINUOUS
10
2.90628
20
-2.59346
11
2.90323
21
-2.58817
0
LINE
8
BLACK
6
CONTINUOUS
10
2.90323
20
-2.58817
11
2.90071
21
-2.58651
0
LINE
8
BLACK
6
CONTINUOUS
10
2.90071
20
-2.58651
11
2.89908
21
-2.58607
0
LINE
8
BLACK
6
CONTINUOUS
10
2.89908
20
-2.58607
11
2.89607
21
-2.58625
0
LINE
8
BLACK
6
CONTINUOUS
10
2.88763
20
-2.57164
11
2.88234
21
-2.57469
0
LINE
8
BLACK
6
CONTINUOUS
10
2.88234
20
-2.57469
11
2.88068
21
-2.57721
0
LINE
8
BLACK
6
CONTINUOUS
10
2.88068
20
-2.57721
11
2.88024
21
-2.57884
0
LINE
8
BLACK
6
CONTINUOUS
10
2.88024
20
-2.57884
11
2.88043
21
-2.58185
0
LINE
8
BLACK
6
CONTINUOUS
10
2.88043
20
-2.58185
11
2.88067
21
-2.58227
0
LINE
8
BLACK
6
CONTINUOUS
10
2.88067
20
-2.58227
11
2.88318
21
-2.58393
0
LINE
8
BLACK
6
CONTINUOUS
10
2.88318
20
-2.58393
11
2.88482
21
-2.58437
0
LINE
8
BLACK
6
CONTINUOUS
10
2.88482
20
-2.58437
11
2.88783
21
-2.58419
0
LINE
8
BLACK
6
CONTINUOUS
10
2.88783
20
-2.58419
11
2.89312
21
-2.58114
0
LINE
8
BLACK
6
CONTINUOUS
10
2.89312
20
-2.58114
11
2.89478
21
-2.57862
0
LINE
8
BLACK
6
CONTINUOUS
10
2.89478
20
-2.57862
11
2.89521
21
-2.57698
0
LINE
8
BLACK
6
CONTINUOUS
10
2.89521
20
-2.57698
11
2.89503
21
-2.57397
0
LINE
8
BLACK
6
CONTINUOUS
10
2.89503
20
-2.57397
11
2.89479
21
-2.57356
0
LINE
8
BLACK
6
CONTINUOUS
10
2.89479
20
-2.57356
11
2.89228
21
-2.57189
0
LINE
8
BLACK
6
CONTINUOUS
10
2.89228
20
-2.57189
11
2.89064
21
-2.57146
0
LINE
8
BLACK
6
CONTINUOUS
10
2.89064
20
-2.57146
11
2.88763
21
-2.57164
0
LINE
8
BLACK
6
CONTINUOUS
10
2.81941
20
-2.56194
11
2.83122
21
-2.58239
0
LINE
8
BLACK
6
CONTINUOUS
10
2.83122
20
-2.58239
11
2.85168
21
-2.57058
0
LINE
8
BLACK
6
CONTINUOUS
10
2.85168
20
-2.57058
11
2.85317
21
-2.57039
0
LINE
8
BLACK
6
CONTINUOUS
10
2.85317
20
-2.57039
11
2.85436
21
-2.5713
0
LINE
8
BLACK
6
CONTINUOUS
10
2.85436
20
-2.5713
11
2.85456
21
-2.5728
0
LINE
8
BLACK
6
CONTINUOUS
10
2.85456
20
-2.5728
11
2.85364
21
-2.57399
0
LINE
8
BLACK
6
CONTINUOUS
10
2.85364
20
-2.57399
11
2.83148
21
-2.58679
0
LINE
8
BLACK
6
CONTINUOUS
10
2.83148
20
-2.58679
11
2.82999
21
-2.58698
0
LINE
8
BLACK
6
CONTINUOUS
10
2.82999
20
-2.58698
11
2.82879
21
-2.58607
0
LINE
8
BLACK
6
CONTINUOUS
10
2.82879
20
-2.58607
11
2.816
21
-2.56391
0
LINE
8
BLACK
6
CONTINUOUS
10
2.816
20
-2.56391
11
2.8158
21
-2.56241
0
LINE
8
BLACK
6
CONTINUOUS
10
2.8158
20
-2.56241
11
2.81672
21
-2.56122
0
LINE
8
BLACK
6
CONTINUOUS
10
2.81672
20
-2.56122
11
2.81821
21
-2.56102
0
LINE
8
BLACK
6
CONTINUOUS
10
2.81821
20
-2.56102
11
2.81941
21
-2.56194
0
LINE
8
BLACK
6
CONTINUOUS
10
3.57515
20
-2.50432
11
3.57615
21
-2.50456
0
LINE
8
BLACK
6
CONTINUOUS
10
3.57615
20
-2.50456
11
3.57627
21
-2.50468
0
LINE
8
BLACK
6
CONTINUOUS
10
3.57627
20
-2.50468
11
3.57645
21
-2.50471
0
LINE
8
BLACK
6
CONTINUOUS
10
3.57645
20
-2.50471
11
3.58457
21
-2.50939
0
LINE
8
BLACK
6
CONTINUOUS
10
3.58457
20
-2.50939
11
3.58535
21
-2.51005
0
LINE
8
BLACK
6
CONTINUOUS
10
3.58535
20
-2.51005
11
3.58541
21
-2.51022
0
LINE
8
BLACK
6
CONTINUOUS
10
3.58541
20
-2.51022
11
3.58555
21
-2.51032
0
LINE
8
BLACK
6
CONTINUOUS
10
3.58555
20
-2.51032
11
3.58786
21
-2.51382
0
LINE
8
BLACK
6
CONTINUOUS
10
3.58786
20
-2.51382
11
3.58821
21
-2.51463
0
LINE
8
BLACK
6
CONTINUOUS
10
3.58821
20
-2.51463
11
3.58825
21
-2.51469
0
LINE
8
BLACK
6
CONTINUOUS
10
3.58825
20
-2.51469
11
3.58894
21
-2.51725
0
LINE
8
BLACK
6
CONTINUOUS
10
3.58894
20
-2.51725
11
3.58901
21
-2.51813
0
LINE
8
BLACK
6
CONTINUOUS
10
3.58901
20
-2.51813
11
3.58903
21
-2.51819
0
LINE
8
BLACK
6
CONTINUOUS
10
3.58903
20
-2.51819
11
3.58878
21
-2.52237
0
LINE
8
BLACK
6
CONTINUOUS
10
3.58878
20
-2.52237
11
3.58854
21
-2.52337
0
LINE
8
BLACK
6
CONTINUOUS
10
3.58854
20
-2.52337
11
3.58842
21
-2.5235
0
LINE
8
BLACK
6
CONTINUOUS
10
3.58842
20
-2.5235
11
3.58839
21
-2.52367
0
LINE
8
BLACK
6
CONTINUOUS
10
3.58839
20
-2.52367
11
3.58652
21
-2.52692
0
LINE
8
BLACK
6
CONTINUOUS
10
3.58652
20
-2.52692
11
3.58595
21
-2.5276
0
LINE
8
BLACK
6
CONTINUOUS
10
3.58595
20
-2.5276
11
3.58592
21
-2.52765
0
LINE
8
BLACK
6
CONTINUOUS
10
3.58592
20
-2.52765
11
3.58148
21
-2.53159
0
LINE
8
BLACK
6
CONTINUOUS
10
3.58148
20
-2.53159
11
3.58061
21
-2.53212
0
LINE
8
BLACK
6
CONTINUOUS
10
3.58061
20
-2.53212
11
3.58043
21
-2.53213
0
LINE
8
BLACK
6
CONTINUOUS
10
3.58043
20
-2.53213
11
3.58029
21
-2.53223
0
LINE
8
BLACK
6
CONTINUOUS
10
3.58029
20
-2.53223
11
3.55644
21
-2.53862
0
LINE
8
BLACK
6
CONTINUOUS
10
3.55644
20
-2.53862
11
3.57138
21
-2.54724
0
LINE
8
BLACK
6
CONTINUOUS
10
3.57138
20
-2.54724
11
3.57216
21
-2.5479
0
LINE
8
BLACK
6
CONTINUOUS
10
3.57216
20
-2.5479
11
3.57285
21
-2.5498
0
LINE
8
BLACK
6
CONTINUOUS
10
3.57285
20
-2.5498
11
3.57216
21
-2.55169
0
LINE
8
BLACK
6
CONTINUOUS
10
3.57216
20
-2.55169
11
3.57041
21
-2.5527
0
LINE
8
BLACK
6
CONTINUOUS
10
3.57041
20
-2.5527
11
3.56842
21
-2.55235
0
LINE
8
BLACK
6
CONTINUOUS
10
3.56842
20
-2.55235
11
3.54732
21
-2.54017
0
LINE
8
BLACK
6
CONTINUOUS
10
3.54732
20
-2.54017
11
3.54682
21
-2.53975
0
LINE
8
BLACK
6
CONTINUOUS
10
3.54682
20
-2.53975
11
3.5467
21
-2.5397
0
LINE
8
BLACK
6
CONTINUOUS
10
3.5467
20
-2.5397
11
3.54667
21
-2.53963
0
LINE
8
BLACK
6
CONTINUOUS
10
3.54667
20
-2.53963
11
3.54653
21
-2.53951
0
LINE
8
BLACK
6
CONTINUOUS
10
3.54653
20
-2.53951
11
3.54623
21
-2.53867
0
LINE
8
BLACK
6
CONTINUOUS
10
3.54623
20
-2.53867
11
3.54585
21
-2.53787
0
LINE
8
BLACK
6
CONTINUOUS
10
3.54585
20
-2.53787
11
3.54589
21
-2.53774
0
LINE
8
BLACK
6
CONTINUOUS
10
3.54589
20
-2.53774
11
3.54584
21
-2.53761
0
LINE
8
BLACK
6
CONTINUOUS
10
3.54584
20
-2.53761
11
3.54614
21
-2.53678
0
LINE
8
BLACK
6
CONTINUOUS
10
3.54614
20
-2.53678
11
3.54637
21
-2.53592
0
LINE
8
BLACK
6
CONTINUOUS
10
3.54637
20
-2.53592
11
3.54648
21
-2.53584
0
LINE
8
BLACK
6
CONTINUOUS
10
3.54648
20
-2.53584
11
3.54653
21
-2.53571
0
LINE
8
BLACK
6
CONTINUOUS
10
3.54653
20
-2.53571
11
3.5473
21
-2.53527
0
LINE
8
BLACK
6
CONTINUOUS
10
3.5473
20
-2.53527
11
3.54803
21
-2.53476
0
LINE
8
BLACK
6
CONTINUOUS
10
3.54803
20
-2.53476
11
3.57809
21
-2.5267
0
LINE
8
BLACK
6
CONTINUOUS
10
3.57809
20
-2.5267
11
3.58164
21
-2.52355
0
LINE
8
BLACK
6
CONTINUOUS
10
3.58164
20
-2.52355
11
3.58293
21
-2.52132
0
LINE
8
BLACK
6
CONTINUOUS
10
3.58293
20
-2.52132
11
3.58311
21
-2.51831
0
LINE
8
BLACK
6
CONTINUOUS
10
3.58311
20
-2.51831
11
3.58267
21
-2.51668
0
LINE
8
BLACK
6
CONTINUOUS
10
3.58267
20
-2.51668
11
3.58101
21
-2.51416
0
LINE
8
BLACK
6
CONTINUOUS
10
3.58101
20
-2.51416
11
3.5741
21
-2.51017
0
LINE
8
BLACK
6
CONTINUOUS
10
3.5741
20
-2.51017
11
3.57109
21
-2.50999
0
LINE
8
BLACK
6
CONTINUOUS
10
3.57109
20
-2.50999
11
3.56899
21
-2.51055
0
LINE
8
BLACK
6
CONTINUOUS
10
3.56899
20
-2.51055
11
3.56797
21
-2.51064
0
LINE
8
BLACK
6
CONTINUOUS
10
3.56797
20
-2.51064
11
3.56614
21
-2.50979
0
LINE
8
BLACK
6
CONTINUOUS
10
3.56614
20
-2.50979
11
3.56528
21
-2.50796
0
LINE
8
BLACK
6
CONTINUOUS
10
3.56528
20
-2.50796
11
3.56581
21
-2.50601
0
LINE
8
BLACK
6
CONTINUOUS
10
3.56581
20
-2.50601
11
3.56746
21
-2.50485
0
LINE
8
BLACK
6
CONTINUOUS
10
3.56746
20
-2.50485
11
3.57002
21
-2.50416
0
LINE
8
BLACK
6
CONTINUOUS
10
3.57002
20
-2.50416
11
3.5709
21
-2.50408
0
LINE
8
BLACK
6
CONTINUOUS
10
3.5709
20
-2.50408
11
3.57096
21
-2.50407
0
LINE
8
BLACK
6
CONTINUOUS
10
3.57096
20
-2.50407
11
3.57515
21
-2.50432
0
LINE
8
BLACK
6
CONTINUOUS
10
3.481
20
-2.51262
11
3.50316
21
-2.52542
0
LINE
8
BLACK
6
CONTINUOUS
10
3.50316
20
-2.52542
11
3.50408
21
-2.52661
0
LINE
8
BLACK
6
CONTINUOUS
10
3.50408
20
-2.52661
11
3.50388
21
-2.52811
0
LINE
8
BLACK
6
CONTINUOUS
10
3.50388
20
-2.52811
11
3.49109
21
-2.55027
0
LINE
8
BLACK
6
CONTINUOUS
10
3.49109
20
-2.55027
11
3.48989
21
-2.55118
0
LINE
8
BLACK
6
CONTINUOUS
10
3.48989
20
-2.55118
11
3.4884
21
-2.55099
0
LINE
8
BLACK
6
CONTINUOUS
10
3.4884
20
-2.55099
11
3.48748
21
-2.54979
0
LINE
8
BLACK
6
CONTINUOUS
10
3.48748
20
-2.54979
11
3.48768
21
-2.5483
0
LINE
8
BLACK
6
CONTINUOUS
10
3.48768
20
-2.5483
11
3.49949
21
-2.52784
0
LINE
8
BLACK
6
CONTINUOUS
10
3.49949
20
-2.52784
11
3.47903
21
-2.51603
0
LINE
8
BLACK
6
CONTINUOUS
10
3.47903
20
-2.51603
11
3.47812
21
-2.51484
0
LINE
8
BLACK
6
CONTINUOUS
10
3.47812
20
-2.51484
11
3.47831
21
-2.51334
0
LINE
8
BLACK
6
CONTINUOUS
10
3.47831
20
-2.51334
11
3.47951
21
-2.51242
0
LINE
8
BLACK
6
CONTINUOUS
10
3.47951
20
-2.51242
11
3.481
21
-2.51262
0
LINE
8
BLACK
6
CONTINUOUS
10
2.88012
20
-2.52947
11
2.88028
21
-2.52945
0
LINE
8
BLACK
6
CONTINUOUS
10
2.88028
20
-2.52945
11
2.88062
21
-2.52971
0
LINE
8
BLACK
6
CONTINUOUS
10
2.88062
20
-2.52971
11
2.881
21
-2.5299
0
LINE
8
BLACK
6
CONTINUOUS
10
2.881
20
-2.5299
11
2.88105
21
-2.53004
0
LINE
8
BLACK
6
CONTINUOUS
10
2.88105
20
-2.53004
11
2.88117
21
-2.53014
0
LINE
8
BLACK
6
CONTINUOUS
10
2.88117
20
-2.53014
11
2.88634
21
-2.53909
0
LINE
8
BLACK
6
CONTINUOUS
10
2.88634
20
-2.53909
11
2.88798
21
-2.53814
0
LINE
8
BLACK
6
CONTINUOUS
10
2.88798
20
-2.53814
11
2.8891
21
-2.53799
0
LINE
8
BLACK
6
CONTINUOUS
10
2.8891
20
-2.53799
11
2.89
21
-2.53868
0
LINE
8
BLACK
6
CONTINUOUS
10
2.89
20
-2.53868
11
2.89015
21
-2.5398
0
LINE
8
BLACK
6
CONTINUOUS
10
2.89015
20
-2.5398
11
2.88946
21
-2.54069
0
LINE
8
BLACK
6
CONTINUOUS
10
2.88946
20
-2.54069
11
2.88361
21
-2.54407
0
LINE
8
BLACK
6
CONTINUOUS
10
2.88361
20
-2.54407
11
2.88249
21
-2.54422
0
LINE
8
BLACK
6
CONTINUOUS
10
2.88249
20
-2.54422
11
2.8816
21
-2.54353
0
LINE
8
BLACK
6
CONTINUOUS
10
2.8816
20
-2.54353
11
2.88145
21
-2.54241
0
LINE
8
BLACK
6
CONTINUOUS
10
2.88145
20
-2.54241
11
2.88214
21
-2.54151
0
LINE
8
BLACK
6
CONTINUOUS
10
2.88214
20
-2.54151
11
2.88378
21
-2.54056
0
LINE
8
BLACK
6
CONTINUOUS
10
2.88378
20
-2.54056
11
2.88062
21
-2.53508
0
LINE
8
BLACK
6
CONTINUOUS
10
2.88062
20
-2.53508
11
2.88058
21
-2.53525
0
LINE
8
BLACK
6
CONTINUOUS
10
2.88058
20
-2.53525
11
2.87989
21
-2.5363
0
LINE
8
BLACK
6
CONTINUOUS
10
2.87989
20
-2.5363
11
2.87895
21
-2.53693
0
LINE
8
BLACK
6
CONTINUOUS
10
2.87895
20
-2.53693
11
2.87784
21
-2.53672
0
LINE
8
BLACK
6
CONTINUOUS
10
2.87784
20
-2.53672
11
2.87721
21
-2.53578
0
LINE
8
BLACK
6
CONTINUOUS
10
2.87721
20
-2.53578
11
2.87743
21
-2.53467
0
LINE
8
BLACK
6
CONTINUOUS
10
2.87743
20
-2.53467
11
2.87799
21
-2.53382
0
LINE
8
BLACK
6
CONTINUOUS
10
2.87799
20
-2.53382
11
2.8783
21
-2.53266
0
LINE
8
BLACK
6
CONTINUOUS
10
2.8783
20
-2.53266
11
2.87842
21
-2.53078
0
LINE
8
BLACK
6
CONTINUOUS
10
2.87842
20
-2.53078
11
2.87849
21
-2.53064
0
LINE
8
BLACK
6
CONTINUOUS
10
2.87849
20
-2.53064
11
2.87847
21
-2.53049
0
LINE
8
BLACK
6
CONTINUOUS
10
2.87847
20
-2.53049
11
2.87873
21
-2.53015
0
LINE
8
BLACK
6
CONTINUOUS
10
2.87873
20
-2.53015
11
2.87892
21
-2.52977
0
LINE
8
BLACK
6
CONTINUOUS
10
2.87892
20
-2.52977
11
2.87906
21
-2.52972
0
LINE
8
BLACK
6
CONTINUOUS
10
2.87906
20
-2.52972
11
2.87915
21
-2.5296
0
LINE
8
BLACK
6
CONTINUOUS
10
2.87915
20
-2.5296
11
2.87958
21
-2.52954
0
LINE
8
BLACK
6
CONTINUOUS
10
2.87958
20
-2.52954
11
2.87999
21
-2.5294
0
LINE
8
BLACK
6
CONTINUOUS
10
2.87999
20
-2.5294
11
2.88012
21
-2.52947
0
LINE
8
BLACK
6
CONTINUOUS
10
3.54818
20
-2.48867
11
3.54901
21
-2.48887
0
LINE
8
BLACK
6
CONTINUOUS
10
3.54901
20
-2.48887
11
3.54911
21
-2.48901
0
LINE
8
BLACK
6
CONTINUOUS
10
3.54911
20
-2.48901
11
3.54927
21
-2.48907
0
LINE
8
BLACK
6
CONTINUOUS
10
3.54927
20
-2.48907
11
3.5497
21
-2.48981
0
LINE
8
BLACK
6
CONTINUOUS
10
3.5497
20
-2.48981
11
3.5502
21
-2.4905
0
LINE
8
BLACK
6
CONTINUOUS
10
3.5502
20
-2.4905
11
3.55019
21
-2.49067
0
LINE
8
BLACK
6
CONTINUOUS
10
3.55019
20
-2.49067
11
3.55028
21
-2.49082
0
LINE
8
BLACK
6
CONTINUOUS
10
3.55028
20
-2.49082
11
3.55013
21
-2.49166
0
LINE
8
BLACK
6
CONTINUOUS
10
3.55013
20
-2.49166
11
3.55007
21
-2.49252
0
LINE
8
BLACK
6
CONTINUOUS
10
3.55007
20
-2.49252
11
3.54996
21
-2.49264
0
LINE
8
BLACK
6
CONTINUOUS
10
3.54996
20
-2.49264
11
3.54993
21
-2.49281
0
LINE
8
BLACK
6
CONTINUOUS
10
3.54993
20
-2.49281
11
3.53172
21
-2.52434
0
LINE
8
BLACK
6
CONTINUOUS
10
3.53172
20
-2.52434
11
3.5389
21
-2.52849
0
LINE
8
BLACK
6
CONTINUOUS
10
3.5389
20
-2.52849
11
3.53969
21
-2.52915
0
LINE
8
BLACK
6
CONTINUOUS
10
3.53969
20
-2.52915
11
3.54038
21
-2.53105
0
LINE
8
BLACK
6
CONTINUOUS
10
3.54038
20
-2.53105
11
3.53969
21
-2.53295
0
LINE
8
BLACK
6
CONTINUOUS
10
3.53969
20
-2.53295
11
3.53794
21
-2.53396
0
LINE
8
BLACK
6
CONTINUOUS
10
3.53794
20
-2.53396
11
3.53595
21
-2.53361
0
LINE
8
BLACK
6
CONTINUOUS
10
3.53595
20
-2.53361
11
3.51647
21
-2.52236
0
LINE
8
BLACK
6
CONTINUOUS
10
3.51647
20
-2.52236
11
3.51568
21
-2.5217
0
LINE
8
BLACK
6
CONTINUOUS
10
3.51568
20
-2.5217
11
3.51499
21
-2.5198
0
LINE
8
BLACK
6
CONTINUOUS
10
3.51499
20
-2.5198
11
3.51568
21
-2.5179
0
LINE
8
BLACK
6
CONTINUOUS
10
3.51568
20
-2.5179
11
3.51743
21
-2.51689
0
LINE
8
BLACK
6
CONTINUOUS
10
3.51743
20
-2.51689
11
3.51942
21
-2.51724
0
LINE
8
BLACK
6
CONTINUOUS
10
3.51942
20
-2.51724
11
3.5266
21
-2.52139
0
LINE
8
BLACK
6
CONTINUOUS
10
3.5266
20
-2.52139
11
3.54031
21
-2.49765
0
LINE
8
BLACK
6
CONTINUOUS
10
3.54031
20
-2.49765
11
3.53695
21
-2.49855
0
LINE
8
BLACK
6
CONTINUOUS
10
3.53695
20
-2.49855
11
3.53607
21
-2.49863
0
LINE
8
BLACK
6
CONTINUOUS
10
3.53607
20
-2.49863
11
3.53601
21
-2.49865
0
LINE
8
BLACK
6
CONTINUOUS
10
3.53601
20
-2.49865
11
3.53183
21
-2.49839
0
LINE
8
BLACK
6
CONTINUOUS
10
3.53183
20
-2.49839
11
3.53083
21
-2.49816
0
LINE
8
BLACK
6
CONTINUOUS
10
3.53083
20
-2.49816
11
3.52936
21
-2.49677
0
LINE
8
BLACK
6
CONTINUOUS
10
3.52936
20
-2.49677
11
3.52913
21
-2.49476
0
LINE
8
BLACK
6
CONTINUOUS
10
3.52913
20
-2.49476
11
3.53025
21
-2.49307
0
LINE
8
BLACK
6
CONTINUOUS
10
3.53025
20
-2.49307
11
3.53218
21
-2.4925
0
LINE
8
BLACK
6
CONTINUOUS
10
3.53218
20
-2.4925
11
3.53589
21
-2.49272
0
LINE
8
BLACK
6
CONTINUOUS
10
3.53589
20
-2.49272
11
3.54026
21
-2.49155
0
LINE
8
BLACK
6
CONTINUOUS
10
3.54026
20
-2.49155
11
3.54606
21
-2.48868
0
LINE
8
BLACK
6
CONTINUOUS
10
3.54606
20
-2.48868
11
3.54705
21
-2.48839
0
LINE
8
BLACK
6
CONTINUOUS
10
3.54705
20
-2.48839
11
3.54721
21
-2.48843
0
LINE
8
BLACK
6
CONTINUOUS
10
3.54721
20
-2.48843
11
3.54737
21
-2.48838
0
LINE
8
BLACK
6
CONTINUOUS
10
3.54737
20
-2.48838
11
3.54818
21
-2.48867
0
LINE
8
BLACK
6
CONTINUOUS
10
3.43708
20
-2.49882
11
3.43751
21
-2.49879
0
LINE
8
BLACK
6
CONTINUOUS
10
3.43751
20
-2.49879
11
3.43762
21
-2.49889
0
LINE
8
BLACK
6
CONTINUOUS
10
3.43762
20
-2.49889
11
3.43777
21
-2.49891
0
LINE
8
BLACK
6
CONTINUOUS
10
3.43777
20
-2.49891
11
3.43804
21
-2.49925
0
LINE
8
BLACK
6
CONTINUOUS
10
3.43804
20
-2.49925
11
3.43836
21
-2.49953
0
LINE
8
BLACK
6
CONTINUOUS
10
3.43836
20
-2.49953
11
3.43837
21
-2.49969
0
LINE
8
BLACK
6
CONTINUOUS
10
3.43837
20
-2.49969
11
3.43846
21
-2.49981
0
LINE
8
BLACK
6
CONTINUOUS
10
3.43846
20
-2.49981
11
3.43841
21
-2.50023
0
LINE
8
BLACK
6
CONTINUOUS
10
3.43841
20
-2.50023
11
3.43843
21
-2.50066
0
LINE
8
BLACK
6
CONTINUOUS
10
3.43843
20
-2.50066
11
3.43833
21
-2.50078
0
LINE
8
BLACK
6
CONTINUOUS
10
3.43833
20
-2.50078
11
3.43831
21
-2.50093
0
LINE
8
BLACK
6
CONTINUOUS
10
3.43831
20
-2.50093
11
3.43315
21
-2.50988
0
LINE
8
BLACK
6
CONTINUOUS
10
3.43315
20
-2.50988
11
3.43479
21
-2.51083
0
LINE
8
BLACK
6
CONTINUOUS
10
3.43479
20
-2.51083
11
3.43548
21
-2.51172
0
LINE
8
BLACK
6
CONTINUOUS
10
3.43548
20
-2.51172
11
3.43533
21
-2.51284
0
LINE
8
BLACK
6
CONTINUOUS
10
3.43533
20
-2.51284
11
3.43444
21
-2.51353
0
LINE
8
BLACK
6
CONTINUOUS
10
3.43444
20
-2.51353
11
3.43331
21
-2.51338
0
LINE
8
BLACK
6
CONTINUOUS
10
3.43331
20
-2.51338
11
3.42747
21
-2.51001
0
LINE
8
BLACK
6
CONTINUOUS
10
3.42747
20
-2.51001
11
3.42678
21
-2.50911
0
LINE
8
BLACK
6
CONTINUOUS
10
3.42678
20
-2.50911
11
3.42693
21
-2.50799
0
LINE
8
BLACK
6
CONTINUOUS
10
3.42693
20
-2.50799
11
3.42783
21
-2.5073
0
LINE
8
BLACK
6
CONTINUOUS
10
3.42783
20
-2.5073
11
3.42895
21
-2.50745
0
LINE
8
BLACK
6
CONTINUOUS
10
3.42895
20
-2.50745
11
3.43059
21
-2.5084
0
LINE
8
BLACK
6
CONTINUOUS
10
3.43059
20
-2.5084
11
3.43376
21
-2.50292
0
LINE
8
BLACK
6
CONTINUOUS
10
3.43376
20
-2.50292
11
3.43359
21
-2.50297
0
LINE
8
BLACK
6
CONTINUOUS
10
3.43359
20
-2.50297
11
3.43234
21
-2.5029
0
LINE
8
BLACK
6
CONTINUOUS
10
3.43234
20
-2.5029
11
3.43132
21
-2.5024
0
LINE
8
BLACK
6
CONTINUOUS
10
3.43132
20
-2.5024
11
3.43095
21
-2.50134
0
LINE
8
BLACK
6
CONTINUOUS
10
3.43095
20
-2.50134
11
3.43145
21
-2.50032
0
LINE
8
BLACK
6
CONTINUOUS
10
3.43145
20
-2.50032
11
3.43251
21
-2.49995
0
LINE
8
BLACK
6
CONTINUOUS
10
3.43251
20
-2.49995
11
3.43353
21
-2.50001
0
LINE
8
BLACK
6
CONTINUOUS
10
3.43353
20
-2.50001
11
3.43469
21
-2.4997
0
LINE
8
BLACK
6
CONTINUOUS
10
3.43469
20
-2.4997
11
3.43638
21
-2.49887
0
LINE
8
BLACK
6
CONTINUOUS
10
3.43638
20
-2.49887
11
3.43653
21
-2.49886
0
LINE
8
BLACK
6
CONTINUOUS
10
3.43653
20
-2.49886
11
3.43665
21
-2.49876
0
LINE
8
BLACK
6
CONTINUOUS
10
3.43665
20
-2.49876
11
3.43708
21
-2.49882
0
LINE
8
BLACK
6
CONTINUOUS
10
3.50588
20
-2.46427
11
3.50663
21
-2.4644
0
LINE
8
BLACK
6
CONTINUOUS
10
3.50663
20
-2.4644
11
3.51475
21
-2.46909
0
LINE
8
BLACK
6
CONTINUOUS
10
3.51475
20
-2.46909
11
3.51543
21
-2.46965
0
LINE
8
BLACK
6
CONTINUOUS
10
3.51543
20
-2.46965
11
3.51548
21
-2.46969
0
LINE
8
BLACK
6
CONTINUOUS
10
3.51548
20
-2.46969
11
3.51942
21
-2.47412
0
LINE
8
BLACK
6
CONTINUOUS
10
3.51942
20
-2.47412
11
3.51995
21
-2.47499
0
LINE
8
BLACK
6
CONTINUOUS
10
3.51995
20
-2.47499
11
3.51996
21
-2.47517
0
LINE
8
BLACK
6
CONTINUOUS
10
3.51996
20
-2.47517
11
3.52006
21
-2.47532
0
LINE
8
BLACK
6
CONTINUOUS
10
3.52006
20
-2.47532
11
3.52143
21
-2.48044
0
LINE
8
BLACK
6
CONTINUOUS
10
3.52143
20
-2.48044
11
3.52151
21
-2.48132
0
LINE
8
BLACK
6
CONTINUOUS
10
3.52151
20
-2.48132
11
3.52153
21
-2.48138
0
LINE
8
BLACK
6
CONTINUOUS
10
3.52153
20
-2.48138
11
3.52128
21
-2.48556
0
LINE
8
BLACK
6
CONTINUOUS
10
3.52128
20
-2.48556
11
3.52116
21
-2.48606
0
LINE
8
BLACK
6
CONTINUOUS
10
3.52116
20
-2.48606
11
3.52117
21
-2.4862
0
LINE
8
BLACK
6
CONTINUOUS
10
3.52117
20
-2.4862
11
3.51904
21
-2.49363
0
LINE
8
BLACK
6
CONTINUOUS
10
3.51904
20
-2.49363
11
3.51878
21
-2.49416
0
LINE
8
BLACK
6
CONTINUOUS
10
3.51878
20
-2.49416
11
3.51876
21
-2.49429
0
LINE
8
BLACK
6
CONTINUOUS
10
3.51876
20
-2.49429
11
3.51595
21
-2.49917
0
LINE
8
BLACK
6
CONTINUOUS
10
3.51595
20
-2.49917
11
3.51557
21
-2.49962
0
LINE
8
BLACK
6
CONTINUOUS
10
3.51557
20
-2.49962
11
3.51551
21
-2.49974
0
LINE
8
BLACK
6
CONTINUOUS
10
3.51551
20
-2.49974
11
3.51014
21
-2.5053
0
LINE
8
BLACK
6
CONTINUOUS
10
3.51014
20
-2.5053
11
3.50973
21
-2.5056
0
LINE
8
BLACK
6
CONTINUOUS
10
3.50973
20
-2.5056
11
3.50965
21
-2.50571
0
LINE
8
BLACK
6
CONTINUOUS
10
3.50965
20
-2.50571
11
3.50615
21
-2.50802
0
LINE
8
BLACK
6
CONTINUOUS
10
3.50615
20
-2.50802
11
3.50534
21
-2.50837
0
LINE
8
BLACK
6
CONTINUOUS
10
3.50534
20
-2.50837
11
3.50528
21
-2.50841
0
LINE
8
BLACK
6
CONTINUOUS
10
3.50528
20
-2.50841
11
3.50016
21
-2.50978
0
LINE
8
BLACK
6
CONTINUOUS
10
3.50016
20
-2.50978
11
3.49914
21
-2.50987
0
LINE
8
BLACK
6
CONTINUOUS
10
3.49914
20
-2.50987
11
3.49898
21
-2.5098
0
LINE
8
BLACK
6
CONTINUOUS
10
3.49898
20
-2.5098
11
3.49881
21
-2.50982
0
LINE
8
BLACK
6
CONTINUOUS
10
3.49881
20
-2.50982
11
3.493
21
-2.50863
0
LINE
8
BLACK
6
CONTINUOUS
10
3.493
20
-2.50863
11
3.49218
21
-2.50831
0
LINE
8
BLACK
6
CONTINUOUS
10
3.49218
20
-2.50831
11
3.49211
21
-2.5083
0
LINE
8
BLACK
6
CONTINUOUS
10
3.49211
20
-2.5083
11
3.484
21
-2.50361
0
LINE
8
BLACK
6
CONTINUOUS
10
3.484
20
-2.50361
11
3.4837
21
-2.50336
0
LINE
8
BLACK
6
CONTINUOUS
10
3.4837
20
-2.50336
11
3.48357
21
-2.50331
0
LINE
8
BLACK
6
CONTINUOUS
10
3.48357
20
-2.50331
11
3.48351
21
-2.5032
0
LINE
8
BLACK
6
CONTINUOUS
10
3.48351
20
-2.5032
11
3.48321
21
-2.50295
0
LINE
8
BLACK
6
CONTINUOUS
10
3.48321
20
-2.50295
11
3.48295
21
-2.50223
0
LINE
8
BLACK
6
CONTINUOUS
10
3.48295
20
-2.50223
11
3.48256
21
-2.50157
0
LINE
8
BLACK
6
CONTINUOUS
10
3.48256
20
-2.50157
11
3.48261
21
-2.5013
0
LINE
8
BLACK
6
CONTINUOUS
10
3.48261
20
-2.5013
11
3.48252
21
-2.50105
0
LINE
8
BLACK
6
CONTINUOUS
10
3.48252
20
-2.50105
11
3.48278
21
-2.50033
0
LINE
8
BLACK
6
CONTINUOUS
10
3.48278
20
-2.50033
11
3.48291
21
-2.49958
0
LINE
8
BLACK
6
CONTINUOUS
10
3.48291
20
-2.49958
11
3.5026
21
-2.46548
0
LINE
8
BLACK
6
CONTINUOUS
10
3.5026
20
-2.46548
11
3.50285
21
-2.46518
0
LINE
8
BLACK
6
CONTINUOUS
10
3.50285
20
-2.46518
11
3.5029
21
-2.46506
0
LINE
8
BLACK
6
CONTINUOUS
10
3.5029
20
-2.46506
11
3.50301
21
-2.46499
0
LINE
8
BLACK
6
CONTINUOUS
10
3.50301
20
-2.46499
11
3.50326
21
-2.4647
0
LINE
8
BLACK
6
CONTINUOUS
10
3.50326
20
-2.4647
11
3.50398
21
-2.46443
0
LINE
8
BLACK
6
CONTINUOUS
10
3.50398
20
-2.46443
11
3.50464
21
-2.46405
0
LINE
8
BLACK
6
CONTINUOUS
10
3.50464
20
-2.46405
11
3.50491
21
-2.4641
0
LINE
8
BLACK
6
CONTINUOUS
10
3.50491
20
-2.4641
11
3.50516
21
-2.464
0
LINE
8
BLACK
6
CONTINUOUS
10
3.50516
20
-2.464
11
3.50588
21
-2.46427
0
LINE
8
BLACK
6
CONTINUOUS
10
3.48951
20
-2.49997
11
3.49465
21
-2.50294
0
LINE
8
BLACK
6
CONTINUOUS
10
3.49465
20
-2.50294
11
3.49931
21
-2.5039
0
LINE
8
BLACK
6
CONTINUOUS
10
3.49931
20
-2.5039
11
3.50329
21
-2.50283
0
LINE
8
BLACK
6
CONTINUOUS
10
3.50329
20
-2.50283
11
3.50612
21
-2.50096
0
LINE
8
BLACK
6
CONTINUOUS
10
3.50612
20
-2.50096
11
3.51102
21
-2.4959
0
LINE
8
BLACK
6
CONTINUOUS
10
3.51102
20
-2.4959
11
3.51346
21
-2.49166
0
LINE
8
BLACK
6
CONTINUOUS
10
3.51346
20
-2.49166
11
3.5154
21
-2.48489
0
LINE
8
BLACK
6
CONTINUOUS
10
3.5154
20
-2.48489
11
3.5156
21
-2.4815
0
LINE
8
BLACK
6
CONTINUOUS
10
3.5156
20
-2.4815
11
3.51454
21
-2.47752
0
LINE
8
BLACK
6
CONTINUOUS
10
3.51454
20
-2.47752
11
3.51138
21
-2.47396
0
LINE
8
BLACK
6
CONTINUOUS
10
3.51138
20
-2.47396
11
3.50624
21
-2.47099
0
LINE
8
BLACK
6
CONTINUOUS
10
3.50624
20
-2.47099
11
3.48951
21
-2.49997
0
LINE
8
BLACK
6
CONTINUOUS
10
2.77646
20
-2.40684
11
2.77652
21
-2.40684
0
LINE
8
BLACK
6
CONTINUOUS
10
2.77652
20
-2.40684
11
2.78215
21
-2.40871
0
LINE
8
BLACK
6
CONTINUOUS
10
2.78215
20
-2.40871
11
2.78305
21
-2.4092
0
LINE
8
BLACK
6
CONTINUOUS
10
2.78305
20
-2.4092
11
2.78314
21
-2.40935
0
LINE
8
BLACK
6
CONTINUOUS
10
2.78314
20
-2.40935
11
2.7833
21
-2.40943
0
LINE
8
BLACK
6
CONTINUOUS
10
2.7833
20
-2.40943
11
2.78705
21
-2.41317
0
LINE
8
BLACK
6
CONTINUOUS
10
2.78705
20
-2.41317
11
2.78756
21
-2.4139
0
LINE
8
BLACK
6
CONTINUOUS
10
2.78756
20
-2.4139
11
2.78761
21
-2.41394
0
LINE
8
BLACK
6
CONTINUOUS
10
2.78761
20
-2.41394
11
2.78948
21
-2.41769
0
LINE
8
BLACK
6
CONTINUOUS
10
2.78948
20
-2.41769
11
2.78963
21
-2.41818
0
LINE
8
BLACK
6
CONTINUOUS
10
2.78963
20
-2.41818
11
2.7897
21
-2.4183
0
LINE
8
BLACK
6
CONTINUOUS
10
2.7897
20
-2.4183
11
2.79158
21
-2.4258
0
LINE
8
BLACK
6
CONTINUOUS
10
2.79158
20
-2.4258
11
2.79162
21
-2.42638
0
LINE
8
BLACK
6
CONTINUOUS
10
2.79162
20
-2.42638
11
2.79167
21
-2.42651
0
LINE
8
BLACK
6
CONTINUOUS
10
2.79167
20
-2.42651
11
2.79167
21
-2.43214
0
LINE
8
BLACK
6
CONTINUOUS
10
2.79167
20
-2.43214
11
2.79156
21
-2.43272
0
LINE
8
BLACK
6
CONTINUOUS
10
2.79156
20
-2.43272
11
2.79158
21
-2.43285
0
LINE
8
BLACK
6
CONTINUOUS
10
2.79158
20
-2.43285
11
2.7897
21
-2.44035
0
LINE
8
BLACK
6
CONTINUOUS
10
2.7897
20
-2.44035
11
2.7895
21
-2.44082
0
LINE
8
BLACK
6
CONTINUOUS
10
2.7895
20
-2.44082
11
2.78948
21
-2.44096
0
LINE
8
BLACK
6
CONTINUOUS
10
2.78948
20
-2.44096
11
2.78761
21
-2.4447
0
LINE
8
BLACK
6
CONTINUOUS
10
2.78761
20
-2.4447
11
2.78708
21
-2.44541
0
LINE
8
BLACK
6
CONTINUOUS
10
2.78708
20
-2.44541
11
2.78705
21
-2.44547
0
LINE
8
BLACK
6
CONTINUOUS
10
2.78705
20
-2.44547
11
2.7833
21
-2.44922
0
LINE
8
BLACK
6
CONTINUOUS
10
2.7833
20
-2.44922
11
2.78246
21
-2.44981
0
LINE
8
BLACK
6
CONTINUOUS
10
2.78246
20
-2.44981
11
2.78229
21
-2.44983
0
LINE
8
BLACK
6
CONTINUOUS
10
2.78229
20
-2.44983
11
2.78215
21
-2.44994
0
LINE
8
BLACK
6
CONTINUOUS
10
2.78215
20
-2.44994
11
2.77652
21
-2.45181
0
LINE
8
BLACK
6
CONTINUOUS
10
2.77652
20
-2.45181
11
2.77565
21
-2.45194
0
LINE
8
BLACK
6
CONTINUOUS
10
2.77565
20
-2.45194
11
2.77559
21
-2.45196
0
LINE
8
BLACK
6
CONTINUOUS
10
2.77559
20
-2.45196
11
2.76622
21
-2.45196
0
LINE
8
BLACK
6
CONTINUOUS
10
2.76622
20
-2.45196
11
2.76583
21
-2.45189
0
LINE
8
BLACK
6
CONTINUOUS
10
2.76583
20
-2.45189
11
2.7657
21
-2.45192
0
LINE
8
BLACK
6
CONTINUOUS
10
2.7657
20
-2.45192
11
2.76559
21
-2.45185
0
LINE
8
BLACK
6
CONTINUOUS
10
2.76559
20
-2.45185
11
2.76521
21
-2.45178
0
LINE
8
BLACK
6
CONTINUOUS
10
2.76521
20
-2.45178
11
2.76462
21
-2.45129
0
LINE
8
BLACK
6
CONTINUOUS
10
2.76462
20
-2.45129
11
2.76395
21
-2.45091
0
LINE
8
BLACK
6
CONTINUOUS
10
2.76395
20
-2.45091
11
2.76386
21
-2.45066
0
LINE
8
BLACK
6
CONTINUOUS
10
2.76386
20
-2.45066
11
2.76366
21
-2.45049
0
LINE
8
BLACK
6
CONTINUOUS
10
2.76366
20
-2.45049
11
2.76353
21
-2.44973
0
LINE
8
BLACK
6
CONTINUOUS
10
2.76353
20
-2.44973
11
2.76326
21
-2.44901
0
LINE
8
BLACK
6
CONTINUOUS
10
2.76326
20
-2.44901
11
2.76326
21
-2.40964
0
LINE
8
BLACK
6
CONTINUOUS
10
2.76326
20
-2.40964
11
2.76333
21
-2.40925
0
LINE
8
BLACK
6
CONTINUOUS
10
2.76333
20
-2.40925
11
2.76331
21
-2.40913
0
LINE
8
BLACK
6
CONTINUOUS
10
2.76331
20
-2.40913
11
2.76337
21
-2.40901
0
LINE
8
BLACK
6
CONTINUOUS
10
2.76337
20
-2.40901
11
2.76344
21
-2.40863
0
LINE
8
BLACK
6
CONTINUOUS
10
2.76344
20
-2.40863
11
2.76394
21
-2.40804
0
LINE
8
BLACK
6
CONTINUOUS
10
2.76394
20
-2.40804
11
2.76432
21
-2.40738
0
LINE
8
BLACK
6
CONTINUOUS
10
2.76432
20
-2.40738
11
2.76457
21
-2.40729
0
LINE
8
BLACK
6
CONTINUOUS
10
2.76457
20
-2.40729
11
2.76474
21
-2.40708
0
LINE
8
BLACK
6
CONTINUOUS
10
2.76474
20
-2.40708
11
2.7655
21
-2.40695
0
LINE
8
BLACK
6
CONTINUOUS
10
2.7655
20
-2.40695
11
2.76622
21
-2.40669
0
LINE
8
BLACK
6
CONTINUOUS
10
2.76622
20
-2.40669
11
2.77559
21
-2.40669
0
LINE
8
BLACK
6
CONTINUOUS
10
2.77559
20
-2.40669
11
2.77646
21
-2.40684
0
LINE
8
BLACK
6
CONTINUOUS
10
2.76917
20
-2.44606
11
2.77511
21
-2.44606
0
LINE
8
BLACK
6
CONTINUOUS
10
2.77511
20
-2.44606
11
2.77962
21
-2.44455
0
LINE
8
BLACK
6
CONTINUOUS
10
2.77962
20
-2.44455
11
2.78254
21
-2.44164
0
LINE
8
BLACK
6
CONTINUOUS
10
2.78254
20
-2.44164
11
2.78405
21
-2.4386
0
LINE
8
BLACK
6
CONTINUOUS
10
2.78405
20
-2.4386
11
2.78576
21
-2.43177
0
LINE
8
BLACK
6
CONTINUOUS
10
2.78576
20
-2.43177
11
2.78576
21
-2.42687
0
LINE
8
BLACK
6
CONTINUOUS
10
2.78576
20
-2.42687
11
2.78405
21
-2.42004
0
LINE
8
BLACK
6
CONTINUOUS
10
2.78405
20
-2.42004
11
2.78254
21
-2.41701
0
LINE
8
BLACK
6
CONTINUOUS
10
2.78254
20
-2.41701
11
2.77962
21
-2.41409
0
LINE
8
BLACK
6
CONTINUOUS
10
2.77962
20
-2.41409
11
2.77511
21
-2.41259
0
LINE
8
BLACK
6
CONTINUOUS
10
2.77511
20
-2.41259
11
2.76917
21
-2.41259
0
LINE
8
BLACK
6
CONTINUOUS
10
2.76917
20
-2.41259
11
2.76917
21
-2.44606
0
LINE
8
BLACK
6
CONTINUOUS
10
2.82909
20
-2.40686
11
2.82936
21
-2.40709
0
LINE
8
BLACK
6
CONTINUOUS
10
2.82936
20
-2.40709
11
2.8297
21
-2.40717
0
LINE
8
BLACK
6
CONTINUOUS
10
2.8297
20
-2.40717
11
2.83011
21
-2.40772
0
LINE
8
BLACK
6
CONTINUOUS
10
2.83011
20
-2.40772
11
2.83064
21
-2.40816
0
LINE
8
BLACK
6
CONTINUOUS
10
2.83064
20
-2.40816
11
2.8307
21
-2.40851
0
LINE
8
BLACK
6
CONTINUOUS
10
2.8307
20
-2.40851
11
2.83091
21
-2.40879
0
LINE
8
BLACK
6
CONTINUOUS
10
2.83091
20
-2.40879
11
2.83087
21
-2.40947
0
LINE
8
BLACK
6
CONTINUOUS
10
2.83087
20
-2.40947
11
2.83099
21
-2.41015
0
LINE
8
BLACK
6
CONTINUOUS
10
2.83099
20
-2.41015
11
2.83082
21
-2.41045
0
LINE
8
BLACK
6
CONTINUOUS
10
2.83082
20
-2.41045
11
2.8308
21
-2.4108
0
LINE
8
BLACK
6
CONTINUOUS
10
2.8308
20
-2.4108
11
2.81393
21
-2.45017
0
LINE
8
BLACK
6
CONTINUOUS
10
2.81393
20
-2.45017
11
2.81336
21
-2.45103
0
LINE
8
BLACK
6
CONTINUOUS
10
2.81336
20
-2.45103
11
2.81156
21
-2.45194
0
LINE
8
BLACK
6
CONTINUOUS
10
2.81156
20
-2.45194
11
2.80959
21
-2.45148
0
LINE
8
BLACK
6
CONTINUOUS
10
2.80959
20
-2.45148
11
2.80838
21
-2.44986
0
LINE
8
BLACK
6
CONTINUOUS
10
2.80838
20
-2.44986
11
2.8085
21
-2.44785
0
LINE
8
BLACK
6
CONTINUOUS
10
2.8085
20
-2.44785
11
2.82361
21
-2.41259
0
LINE
8
BLACK
6
CONTINUOUS
10
2.82361
20
-2.41259
11
2.80184
21
-2.41259
0
LINE
8
BLACK
6
CONTINUOUS
10
2.80184
20
-2.41259
11
2.80083
21
-2.41241
0
LINE
8
BLACK
6
CONTINUOUS
10
2.80083
20
-2.41241
11
2.79928
21
-2.41111
0
LINE
8
BLACK
6
CONTINUOUS
10
2.79928
20
-2.41111
11
2.79893
21
-2.40913
0
LINE
8
BLACK
6
CONTINUOUS
10
2.79893
20
-2.40913
11
2.79994
21
-2.40738
0
LINE
8
BLACK
6
CONTINUOUS
10
2.79994
20
-2.40738
11
2.80184
21
-2.40669
0
LINE
8
BLACK
6
CONTINUOUS
10
2.80184
20
-2.40669
11
2.82808
21
-2.40669
0
LINE
8
BLACK
6
CONTINUOUS
10
2.82808
20
-2.40669
11
2.82909
21
-2.40686
0
LINE
8
BLACK
6
CONTINUOUS
10
3.59168
20
-2.40597
11
3.59185
21
-2.40594
0
LINE
8
BLACK
6
CONTINUOUS
10
3.59185
20
-2.40594
11
3.59259
21
-2.40637
0
LINE
8
BLACK
6
CONTINUOUS
10
3.59259
20
-2.40637
11
3.59338
21
-2.40672
0
LINE
8
BLACK
6
CONTINUOUS
10
3.59338
20
-2.40672
11
3.59345
21
-2.40687
0
LINE
8
BLACK
6
CONTINUOUS
10
3.59345
20
-2.40687
11
3.5936
21
-2.40695
0
LINE
8
BLACK
6
CONTINUOUS
10
3.5936
20
-2.40695
11
3.59389
21
-2.40776
0
LINE
8
BLACK
6
CONTINUOUS
10
3.59389
20
-2.40776
11
3.59427
21
-2.40853
0
LINE
8
BLACK
6
CONTINUOUS
10
3.59427
20
-2.40853
11
3.59423
21
-2.40869
0
LINE
8
BLACK
6
CONTINUOUS
10
3.59423
20
-2.40869
11
3.59429
21
-2.40885
0
LINE
8
BLACK
6
CONTINUOUS
10
3.59429
20
-2.40885
11
3.59429
21
-2.44527
0
LINE
8
BLACK
6
CONTINUOUS
10
3.59429
20
-2.44527
11
3.60259
21
-2.44527
0
LINE
8
BLACK
6
CONTINUOUS
10
3.60259
20
-2.44527
11
3.6036
21
-2.44545
0
LINE
8
BLACK
6
CONTINUOUS
10
3.6036
20
-2.44545
11
3.60514
21
-2.44674
0
LINE
8
BLACK
6
CONTINUOUS
10
3.60514
20
-2.44674
11
3.6055
21
-2.44873
0
LINE
8
BLACK
6
CONTINUOUS
10
3.6055
20
-2.44873
11
3.60449
21
-2.45048
0
LINE
8
BLACK
6
CONTINUOUS
10
3.60449
20
-2.45048
11
3.60259
21
-2.45117
0
LINE
8
BLACK
6
CONTINUOUS
10
3.60259
20
-2.45117
11
3.58009
21
-2.45117
0
LINE
8
BLACK
6
CONTINUOUS
10
3.58009
20
-2.45117
11
3.57908
21
-2.451
0
LINE
8
BLACK
6
CONTINUOUS
10
3.57908
20
-2.451
11
3.57753
21
-2.4497
0
LINE
8
BLACK
6
CONTINUOUS
10
3.57753
20
-2.4497
11
3.57718
21
-2.44771
0
LINE
8
BLACK
6
CONTINUOUS
10
3.57718
20
-2.44771
11
3.57819
21
-2.44596
0
LINE
8
BLACK
6
CONTINUOUS
10
3.57819
20
-2.44596
11
3.58009
21
-2.44527
0
LINE
8
BLACK
6
CONTINUOUS
10
3.58009
20
-2.44527
11
3.58839
21
-2.44527
0
LINE
8
BLACK
6
CONTINUOUS
10
3.58839
20
-2.44527
11
3.58839
21
-2.41785
0
LINE
8
BLACK
6
CONTINUOUS
10
3.58839
20
-2.41785
11
3.58593
21
-2.42031
0
LINE
8
BLACK
6
CONTINUOUS
10
3.58593
20
-2.42031
11
3.5852
21
-2.42082
0
LINE
8
BLACK
6
CONTINUOUS
10
3.5852
20
-2.42082
11
3.58516
21
-2.42087
0
LINE
8
BLACK
6
CONTINUOUS
10
3.58516
20
-2.42087
11
3.58141
21
-2.42274
0
LINE
8
BLACK
6
CONTINUOUS
10
3.58141
20
-2.42274
11
3.58043
21
-2.42303
0
LINE
8
BLACK
6
CONTINUOUS
10
3.58043
20
-2.42303
11
3.57846
21
-2.42256
0
LINE
8
BLACK
6
CONTINUOUS
10
3.57846
20
-2.42256
11
3.57726
21
-2.42094
0
LINE
8
BLACK
6
CONTINUOUS
10
3.57726
20
-2.42094
11
3.57738
21
-2.41893
0
LINE
8
BLACK
6
CONTINUOUS
10
3.57738
20
-2.41893
11
3.57877
21
-2.41746
0
LINE
8
BLACK
6
CONTINUOUS
10
3.57877
20
-2.41746
11
3.58209
21
-2.4158
0
LINE
8
BLACK
6
CONTINUOUS
10
3.58209
20
-2.4158
11
3.58529
21
-2.41259
0
LINE
8
BLACK
6
CONTINUOUS
10
3.58529
20
-2.41259
11
3.58888
21
-2.40721
0
LINE
8
BLACK
6
CONTINUOUS
10
3.58888
20
-2.40721
11
3.58959
21
-2.40647
0
LINE
8
BLACK
6
CONTINUOUS
10
3.58959
20
-2.40647
11
3.58975
21
-2.40642
0
LINE
8
BLACK
6
CONTINUOUS
10
3.58975
20
-2.40642
11
3.58986
21
-2.40629
0
LINE
8
BLACK
6
CONTINUOUS
10
3.58986
20
-2.40629
11
3.59071
21
-2.40615
0
LINE
8
BLACK
6
CONTINUOUS
10
3.59071
20
-2.40615
11
3.59153
21
-2.4059
0
LINE
8
BLACK
6
CONTINUOUS
10
3.59153
20
-2.4059
11
3.59168
21
-2.40597
0
LINE
8
BLACK
6
CONTINUOUS
10
3.5586
20
-2.40608
11
3.55874
21
-2.40619
0
LINE
8
BLACK
6
CONTINUOUS
10
3.55874
20
-2.40619
11
3.55891
21
-2.40621
0
LINE
8
BLACK
6
CONTINUOUS
10
3.55891
20
-2.40621
11
3.56266
21
-2.40808
0
LINE
8
BLACK
6
CONTINUOUS
10
3.56266
20
-2.40808
11
3.56337
21
-2.40861
0
LINE
8
BLACK
6
CONTINUOUS
10
3.56337
20
-2.40861
11
3.56343
21
-2.40864
0
LINE
8
BLACK
6
CONTINUOUS
10
3.56343
20
-2.40864
11
3.5653
21
-2.41051
0
LINE
8
BLACK
6
CONTINUOUS
10
3.5653
20
-2.41051
11
3.56581
21
-2.41124
0
LINE
8
BLACK
6
CONTINUOUS
10
3.56581
20
-2.41124
11
3.56586
21
-2.41128
0
LINE
8
BLACK
6
CONTINUOUS
10
3.56586
20
-2.41128
11
3.56773
21
-2.41503
0
LINE
8
BLACK
6
CONTINUOUS
10
3.56773
20
-2.41503
11
3.56803
21
-2.41601
0
LINE
8
BLACK
6
CONTINUOUS
10
3.56803
20
-2.41601
11
3.56798
21
-2.41618
0
LINE
8
BLACK
6
CONTINUOUS
10
3.56798
20
-2.41618
11
3.56804
21
-2.41635
0
LINE
8
BLACK
6
CONTINUOUS
10
3.56804
20
-2.41635
11
3.56804
21
-2.42197
0
LINE
8
BLACK
6
CONTINUOUS
10
3.56804
20
-2.42197
11
3.56787
21
-2.42298
0
LINE
8
BLACK
6
CONTINUOUS
10
3.56787
20
-2.42298
11
3.56775
21
-2.42312
0
LINE
8
BLACK
6
CONTINUOUS
10
3.56775
20
-2.42312
11
3.56773
21
-2.42329
0
LINE
8
BLACK
6
CONTINUOUS
10
3.56773
20
-2.42329
11
3.56586
21
-2.42704
0
LINE
8
BLACK
6
CONTINUOUS
10
3.56586
20
-2.42704
11
3.56533
21
-2.42775
0
LINE
8
BLACK
6
CONTINUOUS
10
3.56533
20
-2.42775
11
3.5653
21
-2.42781
0
LINE
8
BLACK
6
CONTINUOUS
10
3.5653
20
-2.42781
11
3.56343
21
-2.42969
0
LINE
8
BLACK
6
CONTINUOUS
10
3.56343
20
-2.42969
11
3.56271
21
-2.43019
0
LINE
8
BLACK
6
CONTINUOUS
10
3.56271
20
-2.43019
11
3.56266
21
-2.43024
0
LINE
8
BLACK
6
CONTINUOUS
10
3.56266
20
-2.43024
11
3.55891
21
-2.43211
0
LINE
8
BLACK
6
CONTINUOUS
10
3.55891
20
-2.43211
11
3.55793
21
-2.43241
0
LINE
8
BLACK
6
CONTINUOUS
10
3.55793
20
-2.43241
11
3.55776
21
-2.43237
0
LINE
8
BLACK
6
CONTINUOUS
10
3.55776
20
-2.43237
11
3.55763
21
-2.43241
0
LINE
8
BLACK
6
CONTINUOUS
10
3.55763
20
-2.43241
11
3.56751
21
-2.44653
0
LINE
8
BLACK
6
CONTINUOUS
10
3.56751
20
-2.44653
11
3.56794
21
-2.44746
0
LINE
8
BLACK
6
CONTINUOUS
10
3.56794
20
-2.44746
11
3.56777
21
-2.44947
0
LINE
8
BLACK
6
CONTINUOUS
10
3.56777
20
-2.44947
11
3.56634
21
-2.4509
0
LINE
8
BLACK
6
CONTINUOUS
10
3.56634
20
-2.4509
11
3.56433
21
-2.45107
0
LINE
8
BLACK
6
CONTINUOUS
10
3.56433
20
-2.45107
11
3.56267
21
-2.44991
0
LINE
8
BLACK
6
CONTINUOUS
10
3.56267
20
-2.44991
11
3.55043
21
-2.43243
0
LINE
8
BLACK
6
CONTINUOUS
10
3.55043
20
-2.43243
11
3.54555
21
-2.43243
0
LINE
8
BLACK
6
CONTINUOUS
10
3.54555
20
-2.43243
11
3.54555
21
-2.44822
0
LINE
8
BLACK
6
CONTINUOUS
10
3.54555
20
-2.44822
11
3.54537
21
-2.44923
0
LINE
8
BLACK
6
CONTINUOUS
10
3.54537
20
-2.44923
11
3.54407
21
-2.45078
0
LINE
8
BLACK
6
CONTINUOUS
10
3.54407
20
-2.45078
11
3.54208
21
-2.45113
0
LINE
8
BLACK
6
CONTINUOUS
10
3.54208
20
-2.45113
11
3.54033
21
-2.45012
0
LINE
8
BLACK
6
CONTINUOUS
10
3.54033
20
-2.45012
11
3.53964
21
-2.44822
0
LINE
8
BLACK
6
CONTINUOUS
10
3.53964
20
-2.44822
11
3.53964
21
-2.40885
0
LINE
8
BLACK
6
CONTINUOUS
10
3.53964
20
-2.40885
11
3.53971
21
-2.40847
0
LINE
8
BLACK
6
CONTINUOUS
10
3.53971
20
-2.40847
11
3.53969
21
-2.40834
0
LINE
8
BLACK
6
CONTINUOUS
10
3.53969
20
-2.40834
11
3.53975
21
-2.40822
0
LINE
8
BLACK
6
CONTINUOUS
10
3.53975
20
-2.40822
11
3.53982
21
-2.40784
0
LINE
8
BLACK
6
CONTINUOUS
10
3.53982
20
-2.40784
11
3.54031
21
-2.40725
0
LINE
8
BLACK
6
CONTINUOUS
10
3.54031
20
-2.40725
11
3.5407
21
-2.40659
0
LINE
8
BLACK
6
CONTINUOUS
10
3.5407
20
-2.40659
11
3.54095
21
-2.4065
0
LINE
8
BLACK
6
CONTINUOUS
10
3.54095
20
-2.4065
11
3.54112
21
-2.40629
0
LINE
8
BLACK
6
CONTINUOUS
10
3.54112
20
-2.40629
11
3.54187
21
-2.40616
0
LINE
8
BLACK
6
CONTINUOUS
10
3.54187
20
-2.40616
11
3.54259
21
-2.4059
0
LINE
8
BLACK
6
CONTINUOUS
10
3.54259
20
-2.4059
11
3.55759
21
-2.4059
0
LINE
8
BLACK
6
CONTINUOUS
10
3.55759
20
-2.4059
11
3.5586
21
-2.40608
0
LINE
8
BLACK
6
CONTINUOUS
10
3.54555
20
-2.42652
11
3.5569
21
-2.42652
0
LINE
8
BLACK
6
CONTINUOUS
10
3.5569
20
-2.42652
11
3.55959
21
-2.42517
0
LINE
8
BLACK
6
CONTINUOUS
10
3.55959
20
-2.42517
11
3.56079
21
-2.42397
0
LINE
8
BLACK
6
CONTINUOUS
10
3.56079
20
-2.42397
11
3.56214
21
-2.42128
0
LINE
8
BLACK
6
CONTINUOUS
10
3.56214
20
-2.42128
11
3.56214
21
-2.41705
0
LINE
8
BLACK
6
CONTINUOUS
10
3.56214
20
-2.41705
11
3.56079
21
-2.41435
0
LINE
8
BLACK
6
CONTINUOUS
10
3.56079
20
-2.41435
11
3.55959
21
-2.41315
0
LINE
8
BLACK
6
CONTINUOUS
10
3.55959
20
-2.41315
11
3.5569
21
-2.4118
0
LINE
8
BLACK
6
CONTINUOUS
10
3.5569
20
-2.4118
11
3.54555
21
-2.4118
0
LINE
8
BLACK
6
CONTINUOUS
10
3.54555
20
-2.4118
11
3.54555
21
-2.42652
0
LINE
8
BLACK
6
CONTINUOUS
10
2.7632
20
-2.36869
11
2.76378
21
-2.37008
0
LINE
8
BLACK
6
CONTINUOUS
10
2.76378
20
-2.37008
11
2.76378
21
-2.3937
0
LINE
8
BLACK
6
CONTINUOUS
10
2.76378
20
-2.3937
11
2.7874
21
-2.3937
0
LINE
8
BLACK
6
CONTINUOUS
10
2.7874
20
-2.3937
11
2.78879
21
-2.39428
0
LINE
8
BLACK
6
CONTINUOUS
10
2.78879
20
-2.39428
11
2.78937
21
-2.39567
0
LINE
8
BLACK
6
CONTINUOUS
10
2.78937
20
-2.39567
11
2.78879
21
-2.39706
0
LINE
8
BLACK
6
CONTINUOUS
10
2.78879
20
-2.39706
11
2.7874
21
-2.39764
0
LINE
8
BLACK
6
CONTINUOUS
10
2.7874
20
-2.39764
11
2.76181
21
-2.39764
0
LINE
8
BLACK
6
CONTINUOUS
10
2.76181
20
-2.39764
11
2.76042
21
-2.39706
0
LINE
8
BLACK
6
CONTINUOUS
10
2.76042
20
-2.39706
11
2.75984
21
-2.39567
0
LINE
8
BLACK
6
CONTINUOUS
10
2.75984
20
-2.39567
11
2.75984
21
-2.37008
0
LINE
8
BLACK
6
CONTINUOUS
10
2.75984
20
-2.37008
11
2.76042
21
-2.36869
0
LINE
8
BLACK
6
CONTINUOUS
10
2.76042
20
-2.36869
11
2.76181
21
-2.36811
0
LINE
8
BLACK
6
CONTINUOUS
10
2.76181
20
-2.36811
11
2.7632
21
-2.36869
0
LINE
8
BLACK
6
CONTINUOUS
10
2.83209
20
-2.37211
11
2.83251
21
-2.37219
0
LINE
8
BLACK
6
CONTINUOUS
10
2.83251
20
-2.37219
11
2.8326
21
-2.37232
0
LINE
8
BLACK
6
CONTINUOUS
10
2.8326
20
-2.37232
11
2.83274
21
-2.37238
0
LINE
8
BLACK
6
CONTINUOUS
10
2.83274
20
-2.37238
11
2.8329
21
-2.37277
0
LINE
8
BLACK
6
CONTINUOUS
10
2.8329
20
-2.37277
11
2.83314
21
-2.37313
0
LINE
8
BLACK
6
CONTINUOUS
10
2.83314
20
-2.37313
11
2.83311
21
-2.37328
0
LINE
8
BLACK
6
CONTINUOUS
10
2.83311
20
-2.37328
11
2.83317
21
-2.37342
0
LINE
8
BLACK
6
CONTINUOUS
10
2.83317
20
-2.37342
11
2.83317
21
-2.38376
0
LINE
8
BLACK
6
CONTINUOUS
10
2.83317
20
-2.38376
11
2.83507
21
-2.38376
0
LINE
8
BLACK
6
CONTINUOUS
10
2.83507
20
-2.38376
11
2.83611
21
-2.38419
0
LINE
8
BLACK
6
CONTINUOUS
10
2.83611
20
-2.38419
11
2.83654
21
-2.38523
0
LINE
8
BLACK
6
CONTINUOUS
10
2.83654
20
-2.38523
11
2.83611
21
-2.38628
0
LINE
8
BLACK
6
CONTINUOUS
10
2.83611
20
-2.38628
11
2.83507
21
-2.38671
0
LINE
8
BLACK
6
CONTINUOUS
10
2.83507
20
-2.38671
11
2.83169
21
-2.38671
0
LINE
8
BLACK
6
CONTINUOUS
10
2.83169
20
-2.38671
11
2.82832
21
-2.38671
0
LINE
8
BLACK
6
CONTINUOUS
10
2.82832
20
-2.38671
11
2.82727
21
-2.38628
0
LINE
8
BLACK
6
CONTINUOUS
10
2.82727
20
-2.38628
11
2.82684
21
-2.38523
0
LINE
8
BLACK
6
CONTINUOUS
10
2.82684
20
-2.38523
11
2.82727
21
-2.38419
0
LINE
8
BLACK
6
CONTINUOUS
10
2.82727
20
-2.38419
11
2.82832
21
-2.38376
0
LINE
8
BLACK
6
CONTINUOUS
10
2.82832
20
-2.38376
11
2.83022
21
-2.38376
0
LINE
8
BLACK
6
CONTINUOUS
10
2.83022
20
-2.38376
11
2.83022
21
-2.37742
0
LINE
8
BLACK
6
CONTINUOUS
10
2.83022
20
-2.37742
11
2.8301
21
-2.37755
0
LINE
8
BLACK
6
CONTINUOUS
10
2.8301
20
-2.37755
11
2.82898
21
-2.37812
0
LINE
8
BLACK
6
CONTINUOUS
10
2.82898
20
-2.37812
11
2.82785
21
-2.3782
0
LINE
8
BLACK
6
CONTINUOUS
10
2.82785
20
-2.3782
11
2.827
21
-2.37746
0
LINE
8
BLACK
6
CONTINUOUS
10
2.827
20
-2.37746
11
2.82692
21
-2.37633
0
LINE
8
BLACK
6
CONTINUOUS
10
2.82692
20
-2.37633
11
2.82766
21
-2.37547
0
LINE
8
BLACK
6
CONTINUOUS
10
2.82766
20
-2.37547
11
2.82857
21
-2.37502
0
LINE
8
BLACK
6
CONTINUOUS
10
2.82857
20
-2.37502
11
2.82942
21
-2.37417
0
LINE
8
BLACK
6
CONTINUOUS
10
2.82942
20
-2.37417
11
2.83046
21
-2.3726
0
LINE
8
BLACK
6
CONTINUOUS
10
2.83046
20
-2.3726
11
2.83059
21
-2.37252
0
LINE
8
BLACK
6
CONTINUOUS
10
2.83059
20
-2.37252
11
2.83065
21
-2.37238
0
LINE
8
BLACK
6
CONTINUOUS
10
2.83065
20
-2.37238
11
2.83105
21
-2.37221
0
LINE
8
BLACK
6
CONTINUOUS
10
2.83105
20
-2.37221
11
2.8314
21
-2.37197
0
LINE
8
BLACK
6
CONTINUOUS
10
2.8314
20
-2.37197
11
2.83155
21
-2.372
0
LINE
8
BLACK
6
CONTINUOUS
10
2.83155
20
-2.372
11
2.83169
21
-2.37194
0
LINE
8
BLACK
6
CONTINUOUS
10
2.83169
20
-2.37194
11
2.83209
21
-2.37211
0
LINE
8
BLACK
6
CONTINUOUS
10
3.5374
20
-2.32677
11
3.53879
21
-2.32735
0
LINE
8
BLACK
6
CONTINUOUS
10
3.53879
20
-2.32735
11
3.53937
21
-2.32874
0
LINE
8
BLACK
6
CONTINUOUS
10
3.53937
20
-2.32874
11
3.53937
21
-2.35433
0
LINE
8
BLACK
6
CONTINUOUS
10
3.53937
20
-2.35433
11
3.53879
21
-2.35572
0
LINE
8
BLACK
6
CONTINUOUS
10
3.53879
20
-2.35572
11
3.5374
21
-2.3563
0
LINE
8
BLACK
6
CONTINUOUS
10
3.5374
20
-2.3563
11
3.53601
21
-2.35572
0
LINE
8
BLACK
6
CONTINUOUS
10
3.53601
20
-2.35572
11
3.53543
21
-2.35433
0
LINE
8
BLACK
6
CONTINUOUS
10
3.53543
20
-2.35433
11
3.53543
21
-2.33071
0
LINE
8
BLACK
6
CONTINUOUS
10
3.53543
20
-2.33071
11
3.51181
21
-2.33071
0
LINE
8
BLACK
6
CONTINUOUS
10
3.51181
20
-2.33071
11
3.51042
21
-2.33013
0
LINE
8
BLACK
6
CONTINUOUS
10
3.51042
20
-2.33013
11
3.50984
21
-2.32874
0
LINE
8
BLACK
6
CONTINUOUS
10
3.50984
20
-2.32874
11
3.51042
21
-2.32735
0
LINE
8
BLACK
6
CONTINUOUS
10
3.51042
20
-2.32735
11
3.51181
21
-2.32677
0
LINE
8
BLACK
6
CONTINUOUS
10
3.51181
20
-2.32677
11
3.5374
21
-2.32677
0
LINE
8
BLACK
6
CONTINUOUS
10
3.46792
20
-2.33668
11
3.46834
21
-2.33676
0
LINE
8
BLACK
6
CONTINUOUS
10
3.46834
20
-2.33676
11
3.46842
21
-2.33689
0
LINE
8
BLACK
6
CONTINUOUS
10
3.46842
20
-2.33689
11
3.46856
21
-2.33694
0
LINE
8
BLACK
6
CONTINUOUS
10
3.46856
20
-2.33694
11
3.46873
21
-2.33734
0
LINE
8
BLACK
6
CONTINUOUS
10
3.46873
20
-2.33734
11
3.46897
21
-2.3377
0
LINE
8
BLACK
6
CONTINUOUS
10
3.46897
20
-2.3377
11
3.46894
21
-2.33785
0
LINE
8
BLACK
6
CONTINUOUS
10
3.46894
20
-2.33785
11
3.469
21
-2.33799
0
LINE
8
BLACK
6
CONTINUOUS
10
3.469
20
-2.33799
11
3.469
21
-2.34832
0
LINE
8
BLACK
6
CONTINUOUS
10
3.469
20
-2.34832
11
3.47089
21
-2.34832
0
LINE
8
BLACK
6
CONTINUOUS
10
3.47089
20
-2.34832
11
3.47194
21
-2.34875
0
LINE
8
BLACK
6
CONTINUOUS
10
3.47194
20
-2.34875
11
3.47237
21
-2.3498
0
LINE
8
BLACK
6
CONTINUOUS
10
3.47237
20
-2.3498
11
3.47194
21
-2.35084
0
LINE
8
BLACK
6
CONTINUOUS
10
3.47194
20
-2.35084
11
3.47089
21
-2.35127
0
LINE
8
BLACK
6
CONTINUOUS
10
3.47089
20
-2.35127
11
3.46752
21
-2.35127
0
LINE
8
BLACK
6
CONTINUOUS
10
3.46752
20
-2.35127
11
3.46415
21
-2.35127
0
LINE
8
BLACK
6
CONTINUOUS
10
3.46415
20
-2.35127
11
3.4631
21
-2.35084
0
LINE
8
BLACK
6
CONTINUOUS
10
3.4631
20
-2.35084
11
3.46267
21
-2.3498
0
LINE
8
BLACK
6
CONTINUOUS
10
3.46267
20
-2.3498
11
3.4631
21
-2.34875
0
LINE
8
BLACK
6
CONTINUOUS
10
3.4631
20
-2.34875
11
3.46415
21
-2.34832
0
LINE
8
BLACK
6
CONTINUOUS
10
3.46415
20
-2.34832
11
3.46604
21
-2.34832
0
LINE
8
BLACK
6
CONTINUOUS
10
3.46604
20
-2.34832
11
3.46604
21
-2.34199
0
LINE
8
BLACK
6
CONTINUOUS
10
3.46604
20
-2.34199
11
3.46593
21
-2.34212
0
LINE
8
BLACK
6
CONTINUOUS
10
3.46593
20
-2.34212
11
3.46481
21
-2.34268
0
LINE
8
BLACK
6
CONTINUOUS
10
3.46481
20
-2.34268
11
3.46368
21
-2.34276
0
LINE
8
BLACK
6
CONTINUOUS
10
3.46368
20
-2.34276
11
3.46282
21
-2.34202
0
LINE
8
BLACK
6
CONTINUOUS
10
3.46282
20
-2.34202
11
3.46274
21
-2.3409
0
LINE
8
BLACK
6
CONTINUOUS
10
3.46274
20
-2.3409
11
3.46348
21
-2.34004
0
LINE
8
BLACK
6
CONTINUOUS
10
3.46348
20
-2.34004
11
3.4644
21
-2.33959
0
LINE
8
BLACK
6
CONTINUOUS
10
3.4644
20
-2.33959
11
3.46525
21
-2.33873
0
LINE
8
BLACK
6
CONTINUOUS
10
3.46525
20
-2.33873
11
3.46629
21
-2.33717
0
LINE
8
BLACK
6
CONTINUOUS
10
3.46629
20
-2.33717
11
3.46642
21
-2.33708
0
LINE
8
BLACK
6
CONTINUOUS
10
3.46642
20
-2.33708
11
3.46648
21
-2.33694
0
LINE
8
BLACK
6
CONTINUOUS
10
3.46648
20
-2.33694
11
3.46687
21
-2.33678
0
LINE
8
BLACK
6
CONTINUOUS
10
3.46687
20
-2.33678
11
3.46723
21
-2.33654
0
LINE
8
BLACK
6
CONTINUOUS
10
3.46723
20
-2.33654
11
3.46738
21
-2.33657
0
LINE
8
BLACK
6
CONTINUOUS
10
3.46738
20
-2.33657
11
3.46752
21
-2.33651
0
LINE
8
BLACK
6
CONTINUOUS
10
3.46752
20
-2.33651
11
3.46792
21
-2.33668
0
LINE
8
BLACK
6
CONTINUOUS
10
3.48512
20
-2.26904
11
3.48519
21
-2.26904
0
LINE
8
BLACK
6
CONTINUOUS
10
3.48519
20
-2.26904
11
3.49081
21
-2.27092
0
LINE
8
BLACK
6
CONTINUOUS
10
3.49081
20
-2.27092
11
3.49171
21
-2.27141
0
LINE
8
BLACK
6
CONTINUOUS
10
3.49171
20
-2.27141
11
3.4918
21
-2.27156
0
LINE
8
BLACK
6
CONTINUOUS
10
3.4918
20
-2.27156
11
3.49196
21
-2.27163
0
LINE
8
BLACK
6
CONTINUOUS
10
3.49196
20
-2.27163
11
3.49571
21
-2.27538
0
LINE
8
BLACK
6
CONTINUOUS
10
3.49571
20
-2.27538
11
3.49622
21
-2.2761
0
LINE
8
BLACK
6
CONTINUOUS
10
3.49622
20
-2.2761
11
3.49627
21
-2.27615
0
LINE
8
BLACK
6
CONTINUOUS
10
3.49627
20
-2.27615
11
3.49814
21
-2.2799
0
LINE
8
BLACK
6
CONTINUOUS
10
3.49814
20
-2.2799
11
3.49829
21
-2.28038
0
LINE
8
BLACK
6
CONTINUOUS
10
3.49829
20
-2.28038
11
3.49837
21
-2.2805
0
LINE
8
BLACK
6
CONTINUOUS
10
3.49837
20
-2.2805
11
3.50024
21
-2.288
0
LINE
8
BLACK
6
CONTINUOUS
10
3.50024
20
-2.288
11
3.50028
21
-2.28859
0
LINE
8
BLACK
6
CONTINUOUS
10
3.50028
20
-2.28859
11
3.50033
21
-2.28872
0
LINE
8
BLACK
6
CONTINUOUS
10
3.50033
20
-2.28872
11
3.50033
21
-2.29434
0
LINE
8
BLACK
6
CONTINUOUS
10
3.50033
20
-2.29434
11
3.50023
21
-2.29492
0
LINE
8
BLACK
6
CONTINUOUS
10
3.50023
20
-2.29492
11
3.50024
21
-2.29506
0
LINE
8
BLACK
6
CONTINUOUS
10
3.50024
20
-2.29506
11
3.49837
21
-2.30256
0
LINE
8
BLACK
6
CONTINUOUS
10
3.49837
20
-2.30256
11
3.49816
21
-2.30302
0
LINE
8
BLACK
6
CONTINUOUS
10
3.49816
20
-2.30302
11
3.49814
21
-2.30316
0
LINE
8
BLACK
6
CONTINUOUS
10
3.49814
20
-2.30316
11
3.49627
21
-2.30691
0
LINE
8
BLACK
6
CONTINUOUS
10
3.49627
20
-2.30691
11
3.49574
21
-2.30762
0
LINE
8
BLACK
6
CONTINUOUS
10
3.49574
20
-2.30762
11
3.49571
21
-2.30768
0
LINE
8
BLACK
6
CONTINUOUS
10
3.49571
20
-2.30768
11
3.49196
21
-2.31143
0
LINE
8
BLACK
6
CONTINUOUS
10
3.49196
20
-2.31143
11
3.49112
21
-2.31201
0
LINE
8
BLACK
6
CONTINUOUS
10
3.49112
20
-2.31201
11
3.49095
21
-2.31203
0
LINE
8
BLACK
6
CONTINUOUS
10
3.49095
20
-2.31203
11
3.49081
21
-2.31214
0
LINE
8
BLACK
6
CONTINUOUS
10
3.49081
20
-2.31214
11
3.48519
21
-2.31401
0
LINE
8
BLACK
6
CONTINUOUS
10
3.48519
20
-2.31401
11
3.48431
21
-2.31414
0
LINE
8
BLACK
6
CONTINUOUS
10
3.48431
20
-2.31414
11
3.48425
21
-2.31417
0
LINE
8
BLACK
6
CONTINUOUS
10
3.48425
20
-2.31417
11
3.47488
21
-2.31417
0
LINE
8
BLACK
6
CONTINUOUS
10
3.47488
20
-2.31417
11
3.47449
21
-2.3141
0
LINE
8
BLACK
6
CONTINUOUS
10
3.47449
20
-2.3141
11
3.47437
21
-2.31412
0
LINE
8
BLACK
6
CONTINUOUS
10
3.47437
20
-2.31412
11
3.47425
21
-2.31406
0
LINE
8
BLACK
6
CONTINUOUS
10
3.47425
20
-2.31406
11
3.47387
21
-2.31399
0
LINE
8
BLACK
6
CONTINUOUS
10
3.47387
20
-2.31399
11
3.47328
21
-2.31349
0
LINE
8
BLACK
6
CONTINUOUS
10
3.47328
20
-2.31349
11
3.47262
21
-2.31311
0
LINE
8
BLACK
6
CONTINUOUS
10
3.47262
20
-2.31311
11
3.47253
21
-2.31286
0
LINE
8
BLACK
6
CONTINUOUS
10
3.47253
20
-2.31286
11
3.47232
21
-2.31269
0
LINE
8
BLACK
6
CONTINUOUS
10
3.47232
20
-2.31269
11
3.47219
21
-2.31193
0
LINE
8
BLACK
6
CONTINUOUS
10
3.47219
20
-2.31193
11
3.47193
21
-2.31121
0
LINE
8
BLACK
6
CONTINUOUS
10
3.47193
20
-2.31121
11
3.47193
21
-2.27184
0
LINE
8
BLACK
6
CONTINUOUS
10
3.47193
20
-2.27184
11
3.47199
21
-2.27146
0
LINE
8
BLACK
6
CONTINUOUS
10
3.47199
20
-2.27146
11
3.47197
21
-2.27133
0
LINE
8
BLACK
6
CONTINUOUS
10
3.47197
20
-2.27133
11
3.47204
21
-2.27122
0
LINE
8
BLACK
6
CONTINUOUS
10
3.47204
20
-2.27122
11
3.4721
21
-2.27083
0
LINE
8
BLACK
6
CONTINUOUS
10
3.4721
20
-2.27083
11
3.4726
21
-2.27025
0
LINE
8
BLACK
6
CONTINUOUS
10
3.4726
20
-2.27025
11
3.47298
21
-2.26958
0
LINE
8
BLACK
6
CONTINUOUS
10
3.47298
20
-2.26958
11
3.47323
21
-2.26949
0
LINE
8
BLACK
6
CONTINUOUS
10
3.47323
20
-2.26949
11
3.4734
21
-2.26929
0
LINE
8
BLACK
6
CONTINUOUS
10
3.4734
20
-2.26929
11
3.47416
21
-2.26915
0
LINE
8
BLACK
6
CONTINUOUS
10
3.47416
20
-2.26915
11
3.47488
21
-2.26889
0
LINE
8
BLACK
6
CONTINUOUS
10
3.47488
20
-2.26889
11
3.48425
21
-2.26889
0
LINE
8
BLACK
6
CONTINUOUS
10
3.48425
20
-2.26889
11
3.48512
21
-2.26904
0
LINE
8
BLACK
6
CONTINUOUS
10
3.47783
20
-2.30826
11
3.48377
21
-2.30826
0
LINE
8
BLACK
6
CONTINUOUS
10
3.48377
20
-2.30826
11
3.48828
21
-2.30676
0
LINE
8
BLACK
6
CONTINUOUS
10
3.48828
20
-2.30676
11
3.4912
21
-2.30384
0
LINE
8
BLACK
6
CONTINUOUS
10
3.4912
20
-2.30384
11
3.49271
21
-2.30081
0
LINE
8
BLACK
6
CONTINUOUS
10
3.49271
20
-2.30081
11
3.49442
21
-2.29398
0
LINE
8
BLACK
6
CONTINUOUS
10
3.49442
20
-2.29398
11
3.49442
21
-2.28908
0
LINE
8
BLACK
6
CONTINUOUS
10
3.49442
20
-2.28908
11
3.49271
21
-2.28225
0
LINE
8
BLACK
6
CONTINUOUS
10
3.49271
20
-2.28225
11
3.4912
21
-2.27922
0
LINE
8
BLACK
6
CONTINUOUS
10
3.4912
20
-2.27922
11
3.48828
21
-2.2763
0
LINE
8
BLACK
6
CONTINUOUS
10
3.48828
20
-2.2763
11
3.48377
21
-2.2748
0
LINE
8
BLACK
6
CONTINUOUS
10
3.48377
20
-2.2748
11
3.47783
21
-2.2748
0
LINE
8
BLACK
6
CONTINUOUS
10
3.47783
20
-2.2748
11
3.47783
21
-2.30826
0
LINE
8
BLACK
6
CONTINUOUS
10
3.52397
20
-2.26896
11
3.52413
21
-2.26894
0
LINE
8
BLACK
6
CONTINUOUS
10
3.52413
20
-2.26894
11
3.52488
21
-2.26936
0
LINE
8
BLACK
6
CONTINUOUS
10
3.52488
20
-2.26936
11
3.52566
21
-2.26971
0
LINE
8
BLACK
6
CONTINUOUS
10
3.52566
20
-2.26971
11
3.52574
21
-2.26986
0
LINE
8
BLACK
6
CONTINUOUS
10
3.52574
20
-2.26986
11
3.52588
21
-2.26995
0
LINE
8
BLACK
6
CONTINUOUS
10
3.52588
20
-2.26995
11
3.52618
21
-2.27075
0
LINE
8
BLACK
6
CONTINUOUS
10
3.52618
20
-2.27075
11
3.52656
21
-2.27152
0
LINE
8
BLACK
6
CONTINUOUS
10
3.52656
20
-2.27152
11
3.52652
21
-2.27168
0
LINE
8
BLACK
6
CONTINUOUS
10
3.52652
20
-2.27168
11
3.52657
21
-2.27184
0
LINE
8
BLACK
6
CONTINUOUS
10
3.52657
20
-2.27184
11
3.52657
21
-2.30826
0
LINE
8
BLACK
6
CONTINUOUS
10
3.52657
20
-2.30826
11
3.53487
21
-2.30826
0
LINE
8
BLACK
6
CONTINUOUS
10
3.53487
20
-2.30826
11
3.53588
21
-2.30844
0
LINE
8
BLACK
6
CONTINUOUS
10
3.53588
20
-2.30844
11
3.53743
21
-2.30974
0
LINE
8
BLACK
6
CONTINUOUS
10
3.53743
20
-2.30974
11
3.53778
21
-2.31173
0
LINE
8
BLACK
6
CONTINUOUS
10
3.53778
20
-2.31173
11
3.53677
21
-2.31348
0
LINE
8
BLACK
6
CONTINUOUS
10
3.53677
20
-2.31348
11
3.53487
21
-2.31417
0
LINE
8
BLACK
6
CONTINUOUS
10
3.53487
20
-2.31417
11
3.51237
21
-2.31417
0
LINE
8
BLACK
6
CONTINUOUS
10
3.51237
20
-2.31417
11
3.51136
21
-2.31399
0
LINE
8
BLACK
6
CONTINUOUS
10
3.51136
20
-2.31399
11
3.50982
21
-2.31269
0
LINE
8
BLACK
6
CONTINUOUS
10
3.50982
20
-2.31269
11
3.50947
21
-2.3107
0
LINE
8
BLACK
6
CONTINUOUS
10
3.50947
20
-2.3107
11
3.51048
21
-2.30895
0
LINE
8
BLACK
6
CONTINUOUS
10
3.51048
20
-2.30895
11
3.51237
21
-2.30826
0
LINE
8
BLACK
6
CONTINUOUS
10
3.51237
20
-2.30826
11
3.52067
21
-2.30826
0
LINE
8
BLACK
6
CONTINUOUS
10
3.52067
20
-2.30826
11
3.52067
21
-2.28085
0
LINE
8
BLACK
6
CONTINUOUS
10
3.52067
20
-2.28085
11
3.51821
21
-2.2833
0
LINE
8
BLACK
6
CONTINUOUS
10
3.51821
20
-2.2833
11
3.51749
21
-2.28381
0
LINE
8
BLACK
6
CONTINUOUS
10
3.51749
20
-2.28381
11
3.51744
21
-2.28386
0
LINE
8
BLACK
6
CONTINUOUS
10
3.51744
20
-2.28386
11
3.51369
21
-2.28573
0
LINE
8
BLACK
6
CONTINUOUS
10
3.51369
20
-2.28573
11
3.51271
21
-2.28603
0
LINE
8
BLACK
6
CONTINUOUS
10
3.51271
20
-2.28603
11
3.51075
21
-2.28556
0
LINE
8
BLACK
6
CONTINUOUS
10
3.51075
20
-2.28556
11
3.50954
21
-2.28393
0
LINE
8
BLACK
6
CONTINUOUS
10
3.50954
20
-2.28393
11
3.50966
21
-2.28192
0
LINE
8
BLACK
6
CONTINUOUS
10
3.50966
20
-2.28192
11
3.51105
21
-2.28045
0
LINE
8
BLACK
6
CONTINUOUS
10
3.51105
20
-2.28045
11
3.51437
21
-2.27879
0
LINE
8
BLACK
6
CONTINUOUS
10
3.51437
20
-2.27879
11
3.51758
21
-2.27559
0
LINE
8
BLACK
6
CONTINUOUS
10
3.51758
20
-2.27559
11
3.52117
21
-2.27021
0
LINE
8
BLACK
6
CONTINUOUS
10
3.52117
20
-2.27021
11
3.52187
21
-2.26946
0
LINE
8
BLACK
6
CONTINUOUS
10
3.52187
20
-2.26946
11
3.52204
21
-2.26942
0
LINE
8
BLACK
6
CONTINUOUS
10
3.52204
20
-2.26942
11
3.52215
21
-2.26929
0
LINE
8
BLACK
6
CONTINUOUS
10
3.52215
20
-2.26929
11
3.52299
21
-2.26914
0
LINE
8
BLACK
6
CONTINUOUS
10
3.52299
20
-2.26914
11
3.52381
21
-2.2689
0
LINE
8
BLACK
6
CONTINUOUS
10
3.52381
20
-2.2689
11
3.52397
21
-2.26896
0
LINE
8
BLACK
6
CONTINUOUS
10
2.83625
20
-2.23301
11
2.83725
21
-2.23325
0
LINE
8
BLACK
6
CONTINUOUS
10
2.83725
20
-2.23325
11
2.83738
21
-2.23337
0
LINE
8
BLACK
6
CONTINUOUS
10
2.83738
20
-2.23337
11
2.83755
21
-2.2334
0
LINE
8
BLACK
6
CONTINUOUS
10
2.83755
20
-2.2334
11
2.84405
21
-2.23715
0
LINE
8
BLACK
6
CONTINUOUS
10
2.84405
20
-2.23715
11
2.84483
21
-2.23781
0
LINE
8
BLACK
6
CONTINUOUS
10
2.84483
20
-2.23781
11
2.84552
21
-2.23971
0
LINE
8
BLACK
6
CONTINUOUS
10
2.84552
20
-2.23971
11
2.84483
21
-2.24161
0
LINE
8
BLACK
6
CONTINUOUS
10
2.84483
20
-2.24161
11
2.84308
21
-2.24262
0
LINE
8
BLACK
6
CONTINUOUS
10
2.84308
20
-2.24262
11
2.8411
21
-2.24227
0
LINE
8
BLACK
6
CONTINUOUS
10
2.8411
20
-2.24227
11
2.8352
21
-2.23887
0
LINE
8
BLACK
6
CONTINUOUS
10
2.8352
20
-2.23887
11
2.83219
21
-2.23869
0
LINE
8
BLACK
6
CONTINUOUS
10
2.83219
20
-2.23869
11
2.83038
21
-2.23917
0
LINE
8
BLACK
6
CONTINUOUS
10
2.83038
20
-2.23917
11
2.82504
21
-2.24181
0
LINE
8
BLACK
6
CONTINUOUS
10
2.82504
20
-2.24181
11
2.82295
21
-2.24397
0
LINE
8
BLACK
6
CONTINUOUS
10
2.82295
20
-2.24397
11
2.82551
21
-2.24413
0
LINE
8
BLACK
6
CONTINUOUS
10
2.82551
20
-2.24413
11
2.82651
21
-2.24437
0
LINE
8
BLACK
6
CONTINUOUS
10
2.82651
20
-2.24437
11
2.82663
21
-2.24449
0
LINE
8
BLACK
6
CONTINUOUS
10
2.82663
20
-2.24449
11
2.82681
21
-2.24452
0
LINE
8
BLACK
6
CONTINUOUS
10
2.82681
20
-2.24452
11
2.8333
21
-2.24827
0
LINE
8
BLACK
6
CONTINUOUS
10
2.8333
20
-2.24827
11
2.83409
21
-2.24893
0
LINE
8
BLACK
6
CONTINUOUS
10
2.83409
20
-2.24893
11
2.83415
21
-2.24909
0
LINE
8
BLACK
6
CONTINUOUS
10
2.83415
20
-2.24909
11
2.83429
21
-2.2492
0
LINE
8
BLACK
6
CONTINUOUS
10
2.83429
20
-2.2492
11
2.8366
21
-2.2527
0
LINE
8
BLACK
6
CONTINUOUS
10
2.8366
20
-2.2527
11
2.83695
21
-2.25351
0
LINE
8
BLACK
6
CONTINUOUS
10
2.83695
20
-2.25351
11
2.83699
21
-2.25356
0
LINE
8
BLACK
6
CONTINUOUS
10
2.83699
20
-2.25356
11
2.83767
21
-2.25612
0
LINE
8
BLACK
6
CONTINUOUS
10
2.83767
20
-2.25612
11
2.83775
21
-2.257
0
LINE
8
BLACK
6
CONTINUOUS
10
2.83775
20
-2.257
11
2.83777
21
-2.25706
0
LINE
8
BLACK
6
CONTINUOUS
10
2.83777
20
-2.25706
11
2.83752
21
-2.26125
0
LINE
8
BLACK
6
CONTINUOUS
10
2.83752
20
-2.26125
11
2.83728
21
-2.26224
0
LINE
8
BLACK
6
CONTINUOUS
10
2.83728
20
-2.26224
11
2.83716
21
-2.26237
0
LINE
8
BLACK
6
CONTINUOUS
10
2.83716
20
-2.26237
11
2.83713
21
-2.26254
0
LINE
8
BLACK
6
CONTINUOUS
10
2.83713
20
-2.26254
11
2.83244
21
-2.27066
0
LINE
8
BLACK
6
CONTINUOUS
10
2.83244
20
-2.27066
11
2.83178
21
-2.27145
0
LINE
8
BLACK
6
CONTINUOUS
10
2.83178
20
-2.27145
11
2.83162
21
-2.27151
0
LINE
8
BLACK
6
CONTINUOUS
10
2.83162
20
-2.27151
11
2.83151
21
-2.27165
0
LINE
8
BLACK
6
CONTINUOUS
10
2.83151
20
-2.27165
11
2.82801
21
-2.27396
0
LINE
8
BLACK
6
CONTINUOUS
10
2.82801
20
-2.27396
11
2.8272
21
-2.27431
0
LINE
8
BLACK
6
CONTINUOUS
10
2.8272
20
-2.27431
11
2.82715
21
-2.27435
0
LINE
8
BLACK
6
CONTINUOUS
10
2.82715
20
-2.27435
11
2.82459
21
-2.27503
0
LINE
8
BLACK
6
CONTINUOUS
10
2.82459
20
-2.27503
11
2.82371
21
-2.27511
0
LINE
8
BLACK
6
CONTINUOUS
10
2.82371
20
-2.27511
11
2.82365
21
-2.27513
0
LINE
8
BLACK
6
CONTINUOUS
10
2.82365
20
-2.27513
11
2.81946
21
-2.27488
0
LINE
8
BLACK
6
CONTINUOUS
10
2.81946
20
-2.27488
11
2.81847
21
-2.27464
0
LINE
8
BLACK
6
CONTINUOUS
10
2.81847
20
-2.27464
11
2.81834
21
-2.27452
0
LINE
8
BLACK
6
CONTINUOUS
10
2.81834
20
-2.27452
11
2.81816
21
-2.27449
0
LINE
8
BLACK
6
CONTINUOUS
10
2.81816
20
-2.27449
11
2.81167
21
-2.27074
0
LINE
8
BLACK
6
CONTINUOUS
10
2.81167
20
-2.27074
11
2.81088
21
-2.27008
0
LINE
8
BLACK
6
CONTINUOUS
10
2.81088
20
-2.27008
11
2.81082
21
-2.26991
0
LINE
8
BLACK
6
CONTINUOUS
10
2.81082
20
-2.26991
11
2.81068
21
-2.26981
0
LINE
8
BLACK
6
CONTINUOUS
10
2.81068
20
-2.26981
11
2.80837
21
-2.26631
0
LINE
8
BLACK
6
CONTINUOUS
10
2.80837
20
-2.26631
11
2.80802
21
-2.2655
0
LINE
8
BLACK
6
CONTINUOUS
10
2.80802
20
-2.2655
11
2.80798
21
-2.26545
0
LINE
8
BLACK
6
CONTINUOUS
10
2.80798
20
-2.26545
11
2.8073
21
-2.26289
0
LINE
8
BLACK
6
CONTINUOUS
10
2.8073
20
-2.26289
11
2.80722
21
-2.26201
0
LINE
8
BLACK
6
CONTINUOUS
10
2.80722
20
-2.26201
11
2.8072
21
-2.26195
0
LINE
8
BLACK
6
CONTINUOUS
10
2.8072
20
-2.26195
11
2.80745
21
-2.25776
0
LINE
8
BLACK
6
CONTINUOUS
10
2.80745
20
-2.25776
11
2.80769
21
-2.25676
0
LINE
8
BLACK
6
CONTINUOUS
10
2.80769
20
-2.25676
11
2.80781
21
-2.25664
0
LINE
8
BLACK
6
CONTINUOUS
10
2.80781
20
-2.25664
11
2.80784
21
-2.25646
0
LINE
8
BLACK
6
CONTINUOUS
10
2.80784
20
-2.25646
11
2.81534
21
-2.24347
0
LINE
8
BLACK
6
CONTINUOUS
10
2.81534
20
-2.24347
11
2.81572
21
-2.24302
0
LINE
8
BLACK
6
CONTINUOUS
10
2.81572
20
-2.24302
11
2.81578
21
-2.2429
0
LINE
8
BLACK
6
CONTINUOUS
10
2.81578
20
-2.2429
11
2.82115
21
-2.23734
0
LINE
8
BLACK
6
CONTINUOUS
10
2.82115
20
-2.23734
11
2.82195
21
-2.23676
0
LINE
8
BLACK
6
CONTINUOUS
10
2.82195
20
-2.23676
11
2.82196
21
-2.23674
0
LINE
8
BLACK
6
CONTINUOUS
10
2.82196
20
-2.23674
11
2.82802
21
-2.23375
0
LINE
8
BLACK
6
CONTINUOUS
10
2.82802
20
-2.23375
11
2.82846
21
-2.23362
0
LINE
8
BLACK
6
CONTINUOUS
10
2.82846
20
-2.23362
11
2.82857
21
-2.23354
0
LINE
8
BLACK
6
CONTINUOUS
10
2.82857
20
-2.23354
11
2.83113
21
-2.23286
0
LINE
8
BLACK
6
CONTINUOUS
10
2.83113
20
-2.23286
11
2.83201
21
-2.23278
0
LINE
8
BLACK
6
CONTINUOUS
10
2.83201
20
-2.23278
11
2.83207
21
-2.23276
0
LINE
8
BLACK
6
CONTINUOUS
10
2.83207
20
-2.23276
11
2.83625
21
-2.23301
0
LINE
8
BLACK
6
CONTINUOUS
10
2.81981
20
-2.25024
11
2.8173
21
-2.2519
0
LINE
8
BLACK
6
CONTINUOUS
10
2.8173
20
-2.2519
11
2.81331
21
-2.25881
0
LINE
8
BLACK
6
CONTINUOUS
10
2.81331
20
-2.25881
11
2.81313
21
-2.26182
0
LINE
8
BLACK
6
CONTINUOUS
10
2.81313
20
-2.26182
11
2.81356
21
-2.26346
0
LINE
8
BLACK
6
CONTINUOUS
10
2.81356
20
-2.26346
11
2.81523
21
-2.26597
0
LINE
8
BLACK
6
CONTINUOUS
10
2.81523
20
-2.26597
11
2.82051
21
-2.26903
0
LINE
8
BLACK
6
CONTINUOUS
10
2.82051
20
-2.26903
11
2.82352
21
-2.26921
0
LINE
8
BLACK
6
CONTINUOUS
10
2.82352
20
-2.26921
11
2.82516
21
-2.26877
0
LINE
8
BLACK
6
CONTINUOUS
10
2.82516
20
-2.26877
11
2.82768
21
-2.26711
0
LINE
8
BLACK
6
CONTINUOUS
10
2.82768
20
-2.26711
11
2.83167
21
-2.2602
0
LINE
8
BLACK
6
CONTINUOUS
10
2.83167
20
-2.2602
11
2.83185
21
-2.25719
0
LINE
8
BLACK
6
CONTINUOUS
10
2.83185
20
-2.25719
11
2.83141
21
-2.25555
0
LINE
8
BLACK
6
CONTINUOUS
10
2.83141
20
-2.25555
11
2.82975
21
-2.25303
0
LINE
8
BLACK
6
CONTINUOUS
10
2.82975
20
-2.25303
11
2.82446
21
-2.24998
0
LINE
8
BLACK
6
CONTINUOUS
10
2.82446
20
-2.24998
11
2.82145
21
-2.2498
0
LINE
8
BLACK
6
CONTINUOUS
10
2.82145
20
-2.2498
11
2.81981
21
-2.25024
0
LINE
8
BLACK
6
CONTINUOUS
10
2.79459
20
-2.2089
11
2.79534
21
-2.20903
0
LINE
8
BLACK
6
CONTINUOUS
10
2.79534
20
-2.20903
11
2.80346
21
-2.21372
0
LINE
8
BLACK
6
CONTINUOUS
10
2.80346
20
-2.21372
11
2.80413
21
-2.21429
0
LINE
8
BLACK
6
CONTINUOUS
10
2.80413
20
-2.21429
11
2.80419
21
-2.21432
0
LINE
8
BLACK
6
CONTINUOUS
10
2.80419
20
-2.21432
11
2.80812
21
-2.21875
0
LINE
8
BLACK
6
CONTINUOUS
10
2.80812
20
-2.21875
11
2.80866
21
-2.21963
0
LINE
8
BLACK
6
CONTINUOUS
10
2.80866
20
-2.21963
11
2.80867
21
-2.2198
0
LINE
8
BLACK
6
CONTINUOUS
10
2.80867
20
-2.2198
11
2.80877
21
-2.21995
0
LINE
8
BLACK
6
CONTINUOUS
10
2.80877
20
-2.21995
11
2.81014
21
-2.22507
0
LINE
8
BLACK
6
CONTINUOUS
10
2.81014
20
-2.22507
11
2.81022
21
-2.22595
0
LINE
8
BLACK
6
CONTINUOUS
10
2.81022
20
-2.22595
11
2.81024
21
-2.22601
0
LINE
8
BLACK
6
CONTINUOUS
10
2.81024
20
-2.22601
11
2.80998
21
-2.23019
0
LINE
8
BLACK
6
CONTINUOUS
10
2.80998
20
-2.23019
11
2.80987
21
-2.23069
0
LINE
8
BLACK
6
CONTINUOUS
10
2.80987
20
-2.23069
11
2.80988
21
-2.23083
0
LINE
8
BLACK
6
CONTINUOUS
10
2.80988
20
-2.23083
11
2.80775
21
-2.23826
0
LINE
8
BLACK
6
CONTINUOUS
10
2.80775
20
-2.23826
11
2.80749
21
-2.23879
0
LINE
8
BLACK
6
CONTINUOUS
10
2.80749
20
-2.23879
11
2.80747
21
-2.23893
0
LINE
8
BLACK
6
CONTINUOUS
10
2.80747
20
-2.23893
11
2.80466
21
-2.2438
0
LINE
8
BLACK
6
CONTINUOUS
10
2.80466
20
-2.2438
11
2.80428
21
-2.24425
0
LINE
8
BLACK
6
CONTINUOUS
10
2.80428
20
-2.24425
11
2.80422
21
-2.24437
0
LINE
8
BLACK
6
CONTINUOUS
10
2.80422
20
-2.24437
11
2.79885
21
-2.24993
0
LINE
8
BLACK
6
CONTINUOUS
10
2.79885
20
-2.24993
11
2.79844
21
-2.25023
0
LINE
8
BLACK
6
CONTINUOUS
10
2.79844
20
-2.25023
11
2.79835
21
-2.25034
0
LINE
8
BLACK
6
CONTINUOUS
10
2.79835
20
-2.25034
11
2.79485
21
-2.25265
0
LINE
8
BLACK
6
CONTINUOUS
10
2.79485
20
-2.25265
11
2.79404
21
-2.253
0
LINE
8
BLACK
6
CONTINUOUS
10
2.79404
20
-2.253
11
2.79399
21
-2.25304
0
LINE
8
BLACK
6
CONTINUOUS
10
2.79399
20
-2.25304
11
2.78887
21
-2.25441
0
LINE
8
BLACK
6
CONTINUOUS
10
2.78887
20
-2.25441
11
2.78785
21
-2.2545
0
LINE
8
BLACK
6
CONTINUOUS
10
2.78785
20
-2.2545
11
2.78769
21
-2.25443
0
LINE
8
BLACK
6
CONTINUOUS
10
2.78769
20
-2.25443
11
2.78751
21
-2.25445
0
LINE
8
BLACK
6
CONTINUOUS
10
2.78751
20
-2.25445
11
2.78171
21
-2.25326
0
LINE
8
BLACK
6
CONTINUOUS
10
2.78171
20
-2.25326
11
2.78088
21
-2.25294
0
LINE
8
BLACK
6
CONTINUOUS
10
2.78088
20
-2.25294
11
2.78082
21
-2.25293
0
LINE
8
BLACK
6
CONTINUOUS
10
2.78082
20
-2.25293
11
2.7727
21
-2.24824
0
LINE
8
BLACK
6
CONTINUOUS
10
2.7727
20
-2.24824
11
2.7724
21
-2.24799
0
LINE
8
BLACK
6
CONTINUOUS
10
2.7724
20
-2.24799
11
2.77228
21
-2.24795
0
LINE
8
BLACK
6
CONTINUOUS
10
2.77228
20
-2.24795
11
2.77222
21
-2.24783
0
LINE
8
BLACK
6
CONTINUOUS
10
2.77222
20
-2.24783
11
2.77192
21
-2.24758
0
LINE
8
BLACK
6
CONTINUOUS
10
2.77192
20
-2.24758
11
2.77165
21
-2.24686
0
LINE
8
BLACK
6
CONTINUOUS
10
2.77165
20
-2.24686
11
2.77127
21
-2.2462
0
LINE
8
BLACK
6
CONTINUOUS
10
2.77127
20
-2.2462
11
2.77132
21
-2.24593
0
LINE
8
BLACK
6
CONTINUOUS
10
2.77132
20
-2.24593
11
2.77123
21
-2.24568
0
LINE
8
BLACK
6
CONTINUOUS
10
2.77123
20
-2.24568
11
2.77149
21
-2.24496
0
LINE
8
BLACK
6
CONTINUOUS
10
2.77149
20
-2.24496
11
2.77162
21
-2.24421
0
LINE
8
BLACK
6
CONTINUOUS
10
2.77162
20
-2.24421
11
2.79131
21
-2.21011
0
LINE
8
BLACK
6
CONTINUOUS
10
2.79131
20
-2.21011
11
2.79156
21
-2.20981
0
LINE
8
BLACK
6
CONTINUOUS
10
2.79156
20
-2.20981
11
2.7916
21
-2.20969
0
LINE
8
BLACK
6
CONTINUOUS
10
2.7916
20
-2.20969
11
2.79172
21
-2.20963
0
LINE
8
BLACK
6
CONTINUOUS
10
2.79172
20
-2.20963
11
2.79197
21
-2.20933
0
LINE
8
BLACK
6
CONTINUOUS
10
2.79197
20
-2.20933
11
2.79269
21
-2.20906
0
LINE
8
BLACK
6
CONTINUOUS
10
2.79269
20
-2.20906
11
2.79335
21
-2.20868
0
LINE
8
BLACK
6
CONTINUOUS
10
2.79335
20
-2.20868
11
2.79361
21
-2.20873
0
LINE
8
BLACK
6
CONTINUOUS
10
2.79361
20
-2.20873
11
2.79386
21
-2.20864
0
LINE
8
BLACK
6
CONTINUOUS
10
2.79386
20
-2.20864
11
2.79459
21
-2.2089
0
LINE
8
BLACK
6
CONTINUOUS
10
2.77821
20
-2.2446
11
2.78336
21
-2.24757
0
LINE
8
BLACK
6
CONTINUOUS
10
2.78336
20
-2.24757
11
2.78801
21
-2.24853
0
LINE
8
BLACK
6
CONTINUOUS
10
2.78801
20
-2.24853
11
2.792
21
-2.24746
0
LINE
8
BLACK
6
CONTINUOUS
10
2.792
20
-2.24746
11
2.79483
21
-2.24559
0
LINE
8
BLACK
6
CONTINUOUS
10
2.79483
20
-2.24559
11
2.79972
21
-2.24053
0
LINE
8
BLACK
6
CONTINUOUS
10
2.79972
20
-2.24053
11
2.80217
21
-2.23629
0
LINE
8
BLACK
6
CONTINUOUS
10
2.80217
20
-2.23629
11
2.80411
21
-2.22952
0
LINE
8
BLACK
6
CONTINUOUS
10
2.80411
20
-2.22952
11
2.80431
21
-2.22613
0
LINE
8
BLACK
6
CONTINUOUS
10
2.80431
20
-2.22613
11
2.80324
21
-2.22215
0
LINE
8
BLACK
6
CONTINUOUS
10
2.80324
20
-2.22215
11
2.80009
21
-2.21859
0
LINE
8
BLACK
6
CONTINUOUS
10
2.80009
20
-2.21859
11
2.79495
21
-2.21562
0
LINE
8
BLACK
6
CONTINUOUS
10
2.79495
20
-2.21562
11
2.77821
21
-2.2446
0
LINE
8
BLACK
6
CONTINUOUS
10
2.86872
20
-2.21159
11
2.86915
21
-2.21156
0
LINE
8
BLACK
6
CONTINUOUS
10
2.86915
20
-2.21156
11
2.86926
21
-2.21166
0
LINE
8
BLACK
6
CONTINUOUS
10
2.86926
20
-2.21166
11
2.86942
21
-2.21168
0
LINE
8
BLACK
6
CONTINUOUS
10
2.86942
20
-2.21168
11
2.86968
21
-2.21202
0
LINE
8
BLACK
6
CONTINUOUS
10
2.86968
20
-2.21202
11
2.87
21
-2.21231
0
LINE
8
BLACK
6
CONTINUOUS
10
2.87
20
-2.21231
11
2.87001
21
-2.21246
0
LINE
8
BLACK
6
CONTINUOUS
10
2.87001
20
-2.21246
11
2.8701
21
-2.21258
0
LINE
8
BLACK
6
CONTINUOUS
10
2.8701
20
-2.21258
11
2.87005
21
-2.21301
0
LINE
8
BLACK
6
CONTINUOUS
10
2.87005
20
-2.21301
11
2.87008
21
-2.21343
0
LINE
8
BLACK
6
CONTINUOUS
10
2.87008
20
-2.21343
11
2.86998
21
-2.21355
0
LINE
8
BLACK
6
CONTINUOUS
10
2.86998
20
-2.21355
11
2.86996
21
-2.2137
0
LINE
8
BLACK
6
CONTINUOUS
10
2.86996
20
-2.2137
11
2.86479
21
-2.22265
0
LINE
8
BLACK
6
CONTINUOUS
10
2.86479
20
-2.22265
11
2.86643
21
-2.2236
0
LINE
8
BLACK
6
CONTINUOUS
10
2.86643
20
-2.2236
11
2.86712
21
-2.2245
0
LINE
8
BLACK
6
CONTINUOUS
10
2.86712
20
-2.2245
11
2.86697
21
-2.22562
0
LINE
8
BLACK
6
CONTINUOUS
10
2.86697
20
-2.22562
11
2.86608
21
-2.2263
0
LINE
8
BLACK
6
CONTINUOUS
10
2.86608
20
-2.2263
11
2.86496
21
-2.22616
0
LINE
8
BLACK
6
CONTINUOUS
10
2.86496
20
-2.22616
11
2.85911
21
-2.22278
0
LINE
8
BLACK
6
CONTINUOUS
10
2.85911
20
-2.22278
11
2.85842
21
-2.22188
0
LINE
8
BLACK
6
CONTINUOUS
10
2.85842
20
-2.22188
11
2.85857
21
-2.22076
0
LINE
8
BLACK
6
CONTINUOUS
10
2.85857
20
-2.22076
11
2.85947
21
-2.22008
0
LINE
8
BLACK
6
CONTINUOUS
10
2.85947
20
-2.22008
11
2.86059
21
-2.22022
0
LINE
8
BLACK
6
CONTINUOUS
10
2.86059
20
-2.22022
11
2.86223
21
-2.22117
0
LINE
8
BLACK
6
CONTINUOUS
10
2.86223
20
-2.22117
11
2.8654
21
-2.21569
0
LINE
8
BLACK
6
CONTINUOUS
10
2.8654
20
-2.21569
11
2.86523
21
-2.21575
0
LINE
8
BLACK
6
CONTINUOUS
10
2.86523
20
-2.21575
11
2.86398
21
-2.21567
0
LINE
8
BLACK
6
CONTINUOUS
10
2.86398
20
-2.21567
11
2.86296
21
-2.21518
0
LINE
8
BLACK
6
CONTINUOUS
10
2.86296
20
-2.21518
11
2.86259
21
-2.21411
0
LINE
8
BLACK
6
CONTINUOUS
10
2.86259
20
-2.21411
11
2.86309
21
-2.21309
0
LINE
8
BLACK
6
CONTINUOUS
10
2.86309
20
-2.21309
11
2.86416
21
-2.21272
0
LINE
8
BLACK
6
CONTINUOUS
10
2.86416
20
-2.21272
11
2.86517
21
-2.21278
0
LINE
8
BLACK
6
CONTINUOUS
10
2.86517
20
-2.21278
11
2.86634
21
-2.21247
0
LINE
8
BLACK
6
CONTINUOUS
10
2.86634
20
-2.21247
11
2.86802
21
-2.21164
0
LINE
8
BLACK
6
CONTINUOUS
10
2.86802
20
-2.21164
11
2.86817
21
-2.21163
0
LINE
8
BLACK
6
CONTINUOUS
10
2.86817
20
-2.21163
11
2.8683
21
-2.21154
0
LINE
8
BLACK
6
CONTINUOUS
10
2.8683
20
-2.21154
11
2.86872
21
-2.21159
0
LINE
8
BLACK
6
CONTINUOUS
10
2.81081
20
-2.17342
11
2.81173
21
-2.17462
0
LINE
8
BLACK
6
CONTINUOUS
10
2.81173
20
-2.17462
11
2.81153
21
-2.17611
0
LINE
8
BLACK
6
CONTINUOUS
10
2.81153
20
-2.17611
11
2.79972
21
-2.19657
0
LINE
8
BLACK
6
CONTINUOUS
10
2.79972
20
-2.19657
11
2.82018
21
-2.20838
0
LINE
8
BLACK
6
CONTINUOUS
10
2.82018
20
-2.20838
11
2.8211
21
-2.20957
0
LINE
8
BLACK
6
CONTINUOUS
10
2.8211
20
-2.20957
11
2.8209
21
-2.21107
0
LINE
8
BLACK
6
CONTINUOUS
10
2.8209
20
-2.21107
11
2.8197
21
-2.21198
0
LINE
8
BLACK
6
CONTINUOUS
10
2.8197
20
-2.21198
11
2.81821
21
-2.21179
0
LINE
8
BLACK
6
CONTINUOUS
10
2.81821
20
-2.21179
11
2.79605
21
-2.19899
0
LINE
8
BLACK
6
CONTINUOUS
10
2.79605
20
-2.19899
11
2.79513
21
-2.1978
0
LINE
8
BLACK
6
CONTINUOUS
10
2.79513
20
-2.1978
11
2.79533
21
-2.1963
0
LINE
8
BLACK
6
CONTINUOUS
10
2.79533
20
-2.1963
11
2.79533
21
-2.1963
0
LINE
8
BLACK
6
CONTINUOUS
10
2.79533
20
-2.1963
11
2.80812
21
-2.17414
0
LINE
8
BLACK
6
CONTINUOUS
10
2.80812
20
-2.17414
11
2.80932
21
-2.17322
0
LINE
8
BLACK
6
CONTINUOUS
10
2.80932
20
-2.17322
11
2.81081
21
-2.17342
0
LINE
8
BLACK
6
CONTINUOUS
10
3.41305
20
-2.18087
11
3.4132
21
-2.18085
0
LINE
8
BLACK
6
CONTINUOUS
10
3.4132
20
-2.18085
11
3.41354
21
-2.18111
0
LINE
8
BLACK
6
CONTINUOUS
10
3.41354
20
-2.18111
11
3.41393
21
-2.1813
0
LINE
8
BLACK
6
CONTINUOUS
10
3.41393
20
-2.1813
11
3.41398
21
-2.18144
0
LINE
8
BLACK
6
CONTINUOUS
10
3.41398
20
-2.18144
11
3.4141
21
-2.18154
0
LINE
8
BLACK
6
CONTINUOUS
10
3.4141
20
-2.18154
11
3.41926
21
-2.19049
0
LINE
8
BLACK
6
CONTINUOUS
10
3.41926
20
-2.19049
11
3.42091
21
-2.18954
0
LINE
8
BLACK
6
CONTINUOUS
10
3.42091
20
-2.18954
11
3.42203
21
-2.18939
0
LINE
8
BLACK
6
CONTINUOUS
10
3.42203
20
-2.18939
11
3.42293
21
-2.19008
0
LINE
8
BLACK
6
CONTINUOUS
10
3.42293
20
-2.19008
11
3.42307
21
-2.1912
0
LINE
8
BLACK
6
CONTINUOUS
10
3.42307
20
-2.1912
11
3.42238
21
-2.1921
0
LINE
8
BLACK
6
CONTINUOUS
10
3.42238
20
-2.1921
11
3.41654
21
-2.19547
0
LINE
8
BLACK
6
CONTINUOUS
10
3.41654
20
-2.19547
11
3.41542
21
-2.19562
0
LINE
8
BLACK
6
CONTINUOUS
10
3.41542
20
-2.19562
11
3.41452
21
-2.19493
0
LINE
8
BLACK
6
CONTINUOUS
10
3.41452
20
-2.19493
11
3.41438
21
-2.19381
0
LINE
8
BLACK
6
CONTINUOUS
10
3.41438
20
-2.19381
11
3.41506
21
-2.19291
0
LINE
8
BLACK
6
CONTINUOUS
10
3.41506
20
-2.19291
11
3.41671
21
-2.19196
0
LINE
8
BLACK
6
CONTINUOUS
10
3.41671
20
-2.19196
11
3.41354
21
-2.18648
0
LINE
8
BLACK
6
CONTINUOUS
10
3.41354
20
-2.18648
11
3.41351
21
-2.18665
0
LINE
8
BLACK
6
CONTINUOUS
10
3.41351
20
-2.18665
11
3.41282
21
-2.1877
0
LINE
8
BLACK
6
CONTINUOUS
10
3.41282
20
-2.1877
11
3.41188
21
-2.18833
0
LINE
8
BLACK
6
CONTINUOUS
10
3.41188
20
-2.18833
11
3.41077
21
-2.18812
0
LINE
8
BLACK
6
CONTINUOUS
10
3.41077
20
-2.18812
11
3.41014
21
-2.18718
0
LINE
8
BLACK
6
CONTINUOUS
10
3.41014
20
-2.18718
11
3.41035
21
-2.18607
0
LINE
8
BLACK
6
CONTINUOUS
10
3.41035
20
-2.18607
11
3.41091
21
-2.18522
0
LINE
8
BLACK
6
CONTINUOUS
10
3.41091
20
-2.18522
11
3.41122
21
-2.18406
0
LINE
8
BLACK
6
CONTINUOUS
10
3.41122
20
-2.18406
11
3.41135
21
-2.18218
0
LINE
8
BLACK
6
CONTINUOUS
10
3.41135
20
-2.18218
11
3.41141
21
-2.18204
0
LINE
8
BLACK
6
CONTINUOUS
10
3.41141
20
-2.18204
11
3.41139
21
-2.18189
0
LINE
8
BLACK
6
CONTINUOUS
10
3.41139
20
-2.18189
11
3.41165
21
-2.18155
0
LINE
8
BLACK
6
CONTINUOUS
10
3.41165
20
-2.18155
11
3.41184
21
-2.18117
0
LINE
8
BLACK
6
CONTINUOUS
10
3.41184
20
-2.18117
11
3.41199
21
-2.18112
0
LINE
8
BLACK
6
CONTINUOUS
10
3.41199
20
-2.18112
11
3.41208
21
-2.181
0
LINE
8
BLACK
6
CONTINUOUS
10
3.41208
20
-2.181
11
3.41251
21
-2.18094
0
LINE
8
BLACK
6
CONTINUOUS
10
3.41251
20
-2.18094
11
3.41291
21
-2.1808
0
LINE
8
BLACK
6
CONTINUOUS
10
3.41291
20
-2.1808
11
3.41305
21
-2.18087
0
LINE
8
BLACK
6
CONTINUOUS
10
3.47042
20
-2.13834
11
3.48321
21
-2.1605
0
LINE
8
BLACK
6
CONTINUOUS
10
3.48321
20
-2.1605
11
3.48341
21
-2.162
0
LINE
8
BLACK
6
CONTINUOUS
10
3.48341
20
-2.162
11
3.48249
21
-2.16319
0
LINE
8
BLACK
6
CONTINUOUS
10
3.48249
20
-2.16319
11
3.481
21
-2.16339
0
LINE
8
BLACK
6
CONTINUOUS
10
3.481
20
-2.16339
11
3.47981
21
-2.16247
0
LINE
8
BLACK
6
CONTINUOUS
10
3.47981
20
-2.16247
11
3.46799
21
-2.14201
0
LINE
8
BLACK
6
CONTINUOUS
10
3.46799
20
-2.14201
11
3.44754
21
-2.15383
0
LINE
8
BLACK
6
CONTINUOUS
10
3.44754
20
-2.15383
11
3.44604
21
-2.15402
0
LINE
8
BLACK
6
CONTINUOUS
10
3.44604
20
-2.15402
11
3.44485
21
-2.15311
0
LINE
8
BLACK
6
CONTINUOUS
10
3.44485
20
-2.15311
11
3.44465
21
-2.15161
0
LINE
8
BLACK
6
CONTINUOUS
10
3.44465
20
-2.15161
11
3.44557
21
-2.15042
0
LINE
8
BLACK
6
CONTINUOUS
10
3.44557
20
-2.15042
11
3.46773
21
-2.13762
0
LINE
8
BLACK
6
CONTINUOUS
10
3.46773
20
-2.13762
11
3.46922
21
-2.13742
0
LINE
8
BLACK
6
CONTINUOUS
10
3.46922
20
-2.13742
11
3.46922
21
-2.13742
0
LINE
8
BLACK
6
CONTINUOUS
10
3.46922
20
-2.13742
11
3.47042
21
-2.13834
0
LINE
8
BLACK
6
CONTINUOUS
10
3.40063
20
-2.1126
11
3.40081
21
-2.11259
0
LINE
8
BLACK
6
CONTINUOUS
10
3.40081
20
-2.11259
11
3.40593
21
-2.11396
0
LINE
8
BLACK
6
CONTINUOUS
10
3.40593
20
-2.11396
11
3.40673
21
-2.11433
0
LINE
8
BLACK
6
CONTINUOUS
10
3.40673
20
-2.11433
11
3.40679
21
-2.11435
0
LINE
8
BLACK
6
CONTINUOUS
10
3.40679
20
-2.11435
11
3.41029
21
-2.11666
0
LINE
8
BLACK
6
CONTINUOUS
10
3.41029
20
-2.11666
11
3.41066
21
-2.11701
0
LINE
8
BLACK
6
CONTINUOUS
10
3.41066
20
-2.11701
11
3.41079
21
-2.11707
0
LINE
8
BLACK
6
CONTINUOUS
10
3.41079
20
-2.11707
11
3.41616
21
-2.12262
0
LINE
8
BLACK
6
CONTINUOUS
10
3.41616
20
-2.12262
11
3.41649
21
-2.12311
0
LINE
8
BLACK
6
CONTINUOUS
10
3.41649
20
-2.12311
11
3.4166
21
-2.1232
0
LINE
8
BLACK
6
CONTINUOUS
10
3.4166
20
-2.1232
11
3.41941
21
-2.12807
0
LINE
8
BLACK
6
CONTINUOUS
10
3.41941
20
-2.12807
11
3.41961
21
-2.12863
0
LINE
8
BLACK
6
CONTINUOUS
10
3.41961
20
-2.12863
11
3.41969
21
-2.12874
0
LINE
8
BLACK
6
CONTINUOUS
10
3.41969
20
-2.12874
11
3.42182
21
-2.13617
0
LINE
8
BLACK
6
CONTINUOUS
10
3.42182
20
-2.13617
11
3.42187
21
-2.13667
0
LINE
8
BLACK
6
CONTINUOUS
10
3.42187
20
-2.13667
11
3.42192
21
-2.1368
0
LINE
8
BLACK
6
CONTINUOUS
10
3.42192
20
-2.1368
11
3.42218
21
-2.14099
0
LINE
8
BLACK
6
CONTINUOUS
10
3.42218
20
-2.14099
11
3.42207
21
-2.14186
0
LINE
8
BLACK
6
CONTINUOUS
10
3.42207
20
-2.14186
11
3.42208
21
-2.14193
0
LINE
8
BLACK
6
CONTINUOUS
10
3.42208
20
-2.14193
11
3.42071
21
-2.14705
0
LINE
8
BLACK
6
CONTINUOUS
10
3.42071
20
-2.14705
11
3.42027
21
-2.14798
0
LINE
8
BLACK
6
CONTINUOUS
10
3.42027
20
-2.14798
11
3.42013
21
-2.14808
0
LINE
8
BLACK
6
CONTINUOUS
10
3.42013
20
-2.14808
11
3.42006
21
-2.14825
0
LINE
8
BLACK
6
CONTINUOUS
10
3.42006
20
-2.14825
11
3.41613
21
-2.15268
0
LINE
8
BLACK
6
CONTINUOUS
10
3.41613
20
-2.15268
11
3.41544
21
-2.15323
0
LINE
8
BLACK
6
CONTINUOUS
10
3.41544
20
-2.15323
11
3.4154
21
-2.15328
0
LINE
8
BLACK
6
CONTINUOUS
10
3.4154
20
-2.15328
11
3.40728
21
-2.15797
0
LINE
8
BLACK
6
CONTINUOUS
10
3.40728
20
-2.15797
11
3.40691
21
-2.1581
0
LINE
8
BLACK
6
CONTINUOUS
10
3.40691
20
-2.1581
11
3.40681
21
-2.15818
0
LINE
8
BLACK
6
CONTINUOUS
10
3.40681
20
-2.15818
11
3.40668
21
-2.15818
0
LINE
8
BLACK
6
CONTINUOUS
10
3.40668
20
-2.15818
11
3.40632
21
-2.15832
0
LINE
8
BLACK
6
CONTINUOUS
10
3.40632
20
-2.15832
11
3.40556
21
-2.15818
0
LINE
8
BLACK
6
CONTINUOUS
10
3.40556
20
-2.15818
11
3.40479
21
-2.15818
0
LINE
8
BLACK
6
CONTINUOUS
10
3.40479
20
-2.15818
11
3.40459
21
-2.15801
0
LINE
8
BLACK
6
CONTINUOUS
10
3.40459
20
-2.15801
11
3.40433
21
-2.15797
0
LINE
8
BLACK
6
CONTINUOUS
10
3.40433
20
-2.15797
11
3.40383
21
-2.15738
0
LINE
8
BLACK
6
CONTINUOUS
10
3.40383
20
-2.15738
11
3.40325
21
-2.15689
0
LINE
8
BLACK
6
CONTINUOUS
10
3.40325
20
-2.15689
11
3.38356
21
-2.12279
0
LINE
8
BLACK
6
CONTINUOUS
10
3.38356
20
-2.12279
11
3.38343
21
-2.12242
0
LINE
8
BLACK
6
CONTINUOUS
10
3.38343
20
-2.12242
11
3.38334
21
-2.12232
0
LINE
8
BLACK
6
CONTINUOUS
10
3.38334
20
-2.12232
11
3.38334
21
-2.12219
0
LINE
8
BLACK
6
CONTINUOUS
10
3.38334
20
-2.12219
11
3.38321
21
-2.12183
0
LINE
8
BLACK
6
CONTINUOUS
10
3.38321
20
-2.12183
11
3.38334
21
-2.12107
0
LINE
8
BLACK
6
CONTINUOUS
10
3.38334
20
-2.12107
11
3.38334
21
-2.1203
0
LINE
8
BLACK
6
CONTINUOUS
10
3.38334
20
-2.1203
11
3.38352
21
-2.1201
0
LINE
8
BLACK
6
CONTINUOUS
10
3.38352
20
-2.1201
11
3.38356
21
-2.11984
0
LINE
8
BLACK
6
CONTINUOUS
10
3.38356
20
-2.11984
11
3.38415
21
-2.11934
0
LINE
8
BLACK
6
CONTINUOUS
10
3.38415
20
-2.11934
11
3.38464
21
-2.11876
0
LINE
8
BLACK
6
CONTINUOUS
10
3.38464
20
-2.11876
11
3.39276
21
-2.11407
0
LINE
8
BLACK
6
CONTINUOUS
10
3.39276
20
-2.11407
11
3.39359
21
-2.11377
0
LINE
8
BLACK
6
CONTINUOUS
10
3.39359
20
-2.11377
11
3.39365
21
-2.11373
0
LINE
8
BLACK
6
CONTINUOUS
10
3.39365
20
-2.11373
11
3.39945
21
-2.11255
0
LINE
8
BLACK
6
CONTINUOUS
10
3.39945
20
-2.11255
11
3.40048
21
-2.11252
0
LINE
8
BLACK
6
CONTINUOUS
10
3.40048
20
-2.11252
11
3.40063
21
-2.1126
0
LINE
8
BLACK
6
CONTINUOUS
10
3.3953
20
-2.11942
11
3.39015
21
-2.12239
0
LINE
8
BLACK
6
CONTINUOUS
10
3.39015
20
-2.12239
11
3.40689
21
-2.15138
0
LINE
8
BLACK
6
CONTINUOUS
10
3.40689
20
-2.15138
11
3.41203
21
-2.1484
0
LINE
8
BLACK
6
CONTINUOUS
10
3.41203
20
-2.1484
11
3.41518
21
-2.14485
0
LINE
8
BLACK
6
CONTINUOUS
10
3.41518
20
-2.14485
11
3.41625
21
-2.14086
0
LINE
8
BLACK
6
CONTINUOUS
10
3.41625
20
-2.14086
11
3.41605
21
-2.13748
0
LINE
8
BLACK
6
CONTINUOUS
10
3.41605
20
-2.13748
11
3.41411
21
-2.13071
0
LINE
8
BLACK
6
CONTINUOUS
10
3.41411
20
-2.13071
11
3.41166
21
-2.12647
0
LINE
8
BLACK
6
CONTINUOUS
10
3.41166
20
-2.12647
11
3.40677
21
-2.12141
0
LINE
8
BLACK
6
CONTINUOUS
10
3.40677
20
-2.12141
11
3.40394
21
-2.11954
0
LINE
8
BLACK
6
CONTINUOUS
10
3.40394
20
-2.11954
11
3.39995
21
-2.11847
0
LINE
8
BLACK
6
CONTINUOUS
10
3.39995
20
-2.11847
11
3.3953
21
-2.11942
0
LINE
8
BLACK
6
CONTINUOUS
10
3.43646
20
-2.09197
11
3.43653
21
-2.09196
0
LINE
8
BLACK
6
CONTINUOUS
10
3.43653
20
-2.09196
11
3.43909
21
-2.09265
0
LINE
8
BLACK
6
CONTINUOUS
10
3.43909
20
-2.09265
11
3.43989
21
-2.09302
0
LINE
8
BLACK
6
CONTINUOUS
10
3.43989
20
-2.09302
11
3.43995
21
-2.09304
0
LINE
8
BLACK
6
CONTINUOUS
10
3.43995
20
-2.09304
11
3.44345
21
-2.09535
0
LINE
8
BLACK
6
CONTINUOUS
10
3.44345
20
-2.09535
11
3.4442
21
-2.09605
0
LINE
8
BLACK
6
CONTINUOUS
10
3.4442
20
-2.09605
11
3.44425
21
-2.09622
0
LINE
8
BLACK
6
CONTINUOUS
10
3.44425
20
-2.09622
11
3.44438
21
-2.09634
0
LINE
8
BLACK
6
CONTINUOUS
10
3.44438
20
-2.09634
11
3.44626
21
-2.09958
0
LINE
8
BLACK
6
CONTINUOUS
10
3.44626
20
-2.09958
11
3.44656
21
-2.10041
0
LINE
8
BLACK
6
CONTINUOUS
10
3.44656
20
-2.10041
11
3.44659
21
-2.10047
0
LINE
8
BLACK
6
CONTINUOUS
10
3.44659
20
-2.10047
11
3.44778
21
-2.10628
0
LINE
8
BLACK
6
CONTINUOUS
10
3.44778
20
-2.10628
11
3.44781
21
-2.1073
0
LINE
8
BLACK
6
CONTINUOUS
10
3.44781
20
-2.1073
11
3.44772
21
-2.10746
0
LINE
8
BLACK
6
CONTINUOUS
10
3.44772
20
-2.10746
11
3.44774
21
-2.10763
0
LINE
8
BLACK
6
CONTINUOUS
10
3.44774
20
-2.10763
11
3.44135
21
-2.13148
0
LINE
8
BLACK
6
CONTINUOUS
10
3.44135
20
-2.13148
11
3.45628
21
-2.12286
0
LINE
8
BLACK
6
CONTINUOUS
10
3.45628
20
-2.12286
11
3.45725
21
-2.1225
0
LINE
8
BLACK
6
CONTINUOUS
10
3.45725
20
-2.1225
11
3.45924
21
-2.12286
0
LINE
8
BLACK
6
CONTINUOUS
10
3.45924
20
-2.12286
11
3.46053
21
-2.1244
0
LINE
8
BLACK
6
CONTINUOUS
10
3.46053
20
-2.1244
11
3.46053
21
-2.12642
0
LINE
8
BLACK
6
CONTINUOUS
10
3.46053
20
-2.12642
11
3.45924
21
-2.12797
0
LINE
8
BLACK
6
CONTINUOUS
10
3.45924
20
-2.12797
11
3.43813
21
-2.14016
0
LINE
8
BLACK
6
CONTINUOUS
10
3.43813
20
-2.14016
11
3.43752
21
-2.14038
0
LINE
8
BLACK
6
CONTINUOUS
10
3.43752
20
-2.14038
11
3.43742
21
-2.14045
0
LINE
8
BLACK
6
CONTINUOUS
10
3.43742
20
-2.14045
11
3.43734
21
-2.14044
0
LINE
8
BLACK
6
CONTINUOUS
10
3.43734
20
-2.14044
11
3.43717
21
-2.14051
0
LINE
8
BLACK
6
CONTINUOUS
10
3.43717
20
-2.14051
11
3.43629
21
-2.14035
0
LINE
8
BLACK
6
CONTINUOUS
10
3.43629
20
-2.14035
11
3.4354
21
-2.14027
0
LINE
8
BLACK
6
CONTINUOUS
10
3.4354
20
-2.14027
11
3.43531
21
-2.14018
0
LINE
8
BLACK
6
CONTINUOUS
10
3.43531
20
-2.14018
11
3.43518
21
-2.14016
0
LINE
8
BLACK
6
CONTINUOUS
10
3.43518
20
-2.14016
11
3.4346
21
-2.13948
0
LINE
8
BLACK
6
CONTINUOUS
10
3.4346
20
-2.13948
11
3.43398
21
-2.13885
0
LINE
8
BLACK
6
CONTINUOUS
10
3.43398
20
-2.13885
11
3.43396
21
-2.13871
0
LINE
8
BLACK
6
CONTINUOUS
10
3.43396
20
-2.13871
11
3.43388
21
-2.13861
0
LINE
8
BLACK
6
CONTINUOUS
10
3.43388
20
-2.13861
11
3.43388
21
-2.13772
0
LINE
8
BLACK
6
CONTINUOUS
10
3.43388
20
-2.13772
11
3.4338
21
-2.13683
0
LINE
8
BLACK
6
CONTINUOUS
10
3.4338
20
-2.13683
11
3.44185
21
-2.10678
0
LINE
8
BLACK
6
CONTINUOUS
10
3.44185
20
-2.10678
11
3.4409
21
-2.10212
0
LINE
8
BLACK
6
CONTINUOUS
10
3.4409
20
-2.10212
11
3.43962
21
-2.09989
0
LINE
8
BLACK
6
CONTINUOUS
10
3.43962
20
-2.09989
11
3.4371
21
-2.09823
0
LINE
8
BLACK
6
CONTINUOUS
10
3.4371
20
-2.09823
11
3.43546
21
-2.09779
0
LINE
8
BLACK
6
CONTINUOUS
10
3.43546
20
-2.09779
11
3.43245
21
-2.09797
0
LINE
8
BLACK
6
CONTINUOUS
10
3.43245
20
-2.09797
11
3.42554
21
-2.10196
0
LINE
8
BLACK
6
CONTINUOUS
10
3.42554
20
-2.10196
11
3.42388
21
-2.10448
0
LINE
8
BLACK
6
CONTINUOUS
10
3.42388
20
-2.10448
11
3.42332
21
-2.10658
0
LINE
8
BLACK
6
CONTINUOUS
10
3.42332
20
-2.10658
11
3.42288
21
-2.10751
0
LINE
8
BLACK
6
CONTINUOUS
10
3.42288
20
-2.10751
11
3.42123
21
-2.10867
0
LINE
8
BLACK
6
CONTINUOUS
10
3.42123
20
-2.10867
11
3.41922
21
-2.10849
0
LINE
8
BLACK
6
CONTINUOUS
10
3.41922
20
-2.10849
11
3.41779
21
-2.10706
0
LINE
8
BLACK
6
CONTINUOUS
10
3.41779
20
-2.10706
11
3.41761
21
-2.10505
0
LINE
8
BLACK
6
CONTINUOUS
10
3.41761
20
-2.10505
11
3.4183
21
-2.10249
0
LINE
8
BLACK
6
CONTINUOUS
10
3.4183
20
-2.10249
11
3.41867
21
-2.10169
0
LINE
8
BLACK
6
CONTINUOUS
10
3.41867
20
-2.10169
11
3.41869
21
-2.10163
0
LINE
8
BLACK
6
CONTINUOUS
10
3.41869
20
-2.10163
11
3.421
21
-2.09813
0
LINE
8
BLACK
6
CONTINUOUS
10
3.421
20
-2.09813
11
3.4217
21
-2.09738
0
LINE
8
BLACK
6
CONTINUOUS
10
3.4217
20
-2.09738
11
3.42187
21
-2.09733
0
LINE
8
BLACK
6
CONTINUOUS
10
3.42187
20
-2.09733
11
3.42199
21
-2.0972
0
LINE
8
BLACK
6
CONTINUOUS
10
3.42199
20
-2.0972
11
3.4301
21
-2.09251
0
LINE
8
BLACK
6
CONTINUOUS
10
3.4301
20
-2.09251
11
3.43107
21
-2.09216
0
LINE
8
BLACK
6
CONTINUOUS
10
3.43107
20
-2.09216
11
3.43124
21
-2.09219
0
LINE
8
BLACK
6
CONTINUOUS
10
3.43124
20
-2.09219
11
3.4314
21
-2.09212
0
LINE
8
BLACK
6
CONTINUOUS
10
3.4314
20
-2.09212
11
3.43559
21
-2.09187
0
LINE
8
BLACK
6
CONTINUOUS
10
3.43559
20
-2.09187
11
3.43646
21
-2.09197
0
LINE
8
BLACK
6
CONTINUOUS
10
2.9369
20
-2.08522
11
2.93753
21
-2.08522
0
LINE
8
BLACK
6
CONTINUOUS
10
2.93753
20
-2.08522
11
2.93784
21
-2.08548
0
LINE
8
BLACK
6
CONTINUOUS
10
2.93784
20
-2.08548
11
2.93824
21
-2.08559
0
LINE
8
BLACK
6
CONTINUOUS
10
2.93824
20
-2.08559
11
2.93859
21
-2.08611
0
LINE
8
BLACK
6
CONTINUOUS
10
2.93859
20
-2.08611
11
2.93907
21
-2.08652
0
LINE
8
BLACK
6
CONTINUOUS
10
2.93907
20
-2.08652
11
2.94845
21
-2.10275
0
LINE
8
BLACK
6
CONTINUOUS
10
2.94845
20
-2.10275
11
2.9488
21
-2.10372
0
LINE
8
BLACK
6
CONTINUOUS
10
2.9488
20
-2.10372
11
2.94845
21
-2.1057
0
LINE
8
BLACK
6
CONTINUOUS
10
2.94845
20
-2.1057
11
2.9469
21
-2.107
0
LINE
8
BLACK
6
CONTINUOUS
10
2.9469
20
-2.107
11
2.94488
21
-2.107
0
LINE
8
BLACK
6
CONTINUOUS
10
2.94488
20
-2.107
11
2.94333
21
-2.1057
0
LINE
8
BLACK
6
CONTINUOUS
10
2.94333
20
-2.1057
11
2.9353
21
-2.09178
0
LINE
8
BLACK
6
CONTINUOUS
10
2.9353
20
-2.09178
11
2.92635
21
-2.09582
0
LINE
8
BLACK
6
CONTINUOUS
10
2.92635
20
-2.09582
11
2.92703
21
-2.09627
0
LINE
8
BLACK
6
CONTINUOUS
10
2.92703
20
-2.09627
11
2.92778
21
-2.09698
0
LINE
8
BLACK
6
CONTINUOUS
10
2.92778
20
-2.09698
11
2.92783
21
-2.09715
0
LINE
8
BLACK
6
CONTINUOUS
10
2.92783
20
-2.09715
11
2.92796
21
-2.09726
0
LINE
8
BLACK
6
CONTINUOUS
10
2.92796
20
-2.09726
11
2.93265
21
-2.10538
0
LINE
8
BLACK
6
CONTINUOUS
10
2.93265
20
-2.10538
11
2.933
21
-2.10634
0
LINE
8
BLACK
6
CONTINUOUS
10
2.933
20
-2.10634
11
2.93297
21
-2.10652
0
LINE
8
BLACK
6
CONTINUOUS
10
2.93297
20
-2.10652
11
2.93304
21
-2.10668
0
LINE
8
BLACK
6
CONTINUOUS
10
2.93304
20
-2.10668
11
2.93329
21
-2.11086
0
LINE
8
BLACK
6
CONTINUOUS
10
2.93329
20
-2.11086
11
2.93319
21
-2.11174
0
LINE
8
BLACK
6
CONTINUOUS
10
2.93319
20
-2.11174
11
2.93319
21
-2.1118
0
LINE
8
BLACK
6
CONTINUOUS
10
2.93319
20
-2.1118
11
2.93251
21
-2.11437
0
LINE
8
BLACK
6
CONTINUOUS
10
2.93251
20
-2.11437
11
2.93213
21
-2.11517
0
LINE
8
BLACK
6
CONTINUOUS
10
2.93213
20
-2.11517
11
2.93212
21
-2.11523
0
LINE
8
BLACK
6
CONTINUOUS
10
2.93212
20
-2.11523
11
2.92981
21
-2.11873
0
LINE
8
BLACK
6
CONTINUOUS
10
2.92981
20
-2.11873
11
2.9291
21
-2.11947
0
LINE
8
BLACK
6
CONTINUOUS
10
2.9291
20
-2.11947
11
2.92894
21
-2.11952
0
LINE
8
BLACK
6
CONTINUOUS
10
2.92894
20
-2.11952
11
2.92882
21
-2.11966
0
LINE
8
BLACK
6
CONTINUOUS
10
2.92882
20
-2.11966
11
2.9207
21
-2.12434
0
LINE
8
BLACK
6
CONTINUOUS
10
2.9207
20
-2.12434
11
2.91974
21
-2.12469
0
LINE
8
BLACK
6
CONTINUOUS
10
2.91974
20
-2.12469
11
2.91957
21
-2.12466
0
LINE
8
BLACK
6
CONTINUOUS
10
2.91957
20
-2.12466
11
2.9194
21
-2.12473
0
LINE
8
BLACK
6
CONTINUOUS
10
2.9194
20
-2.12473
11
2.91522
21
-2.12499
0
LINE
8
BLACK
6
CONTINUOUS
10
2.91522
20
-2.12499
11
2.91434
21
-2.12488
0
LINE
8
BLACK
6
CONTINUOUS
10
2.91434
20
-2.12488
11
2.91428
21
-2.12489
0
LINE
8
BLACK
6
CONTINUOUS
10
2.91428
20
-2.12489
11
2.91172
21
-2.1242
0
LINE
8
BLACK
6
CONTINUOUS
10
2.91172
20
-2.1242
11
2.91092
21
-2.12383
0
LINE
8
BLACK
6
CONTINUOUS
10
2.91092
20
-2.12383
11
2.91086
21
-2.12382
0
LINE
8
BLACK
6
CONTINUOUS
10
2.91086
20
-2.12382
11
2.90736
21
-2.12151
0
LINE
8
BLACK
6
CONTINUOUS
10
2.90736
20
-2.12151
11
2.90661
21
-2.1208
0
LINE
8
BLACK
6
CONTINUOUS
10
2.90661
20
-2.1208
11
2.90656
21
-2.12063
0
LINE
8
BLACK
6
CONTINUOUS
10
2.90656
20
-2.12063
11
2.90643
21
-2.12052
0
LINE
8
BLACK
6
CONTINUOUS
10
2.90643
20
-2.12052
11
2.90174
21
-2.1124
0
LINE
8
BLACK
6
CONTINUOUS
10
2.90174
20
-2.1124
11
2.90139
21
-2.11144
0
LINE
8
BLACK
6
CONTINUOUS
10
2.90139
20
-2.11144
11
2.90142
21
-2.11126
0
LINE
8
BLACK
6
CONTINUOUS
10
2.90142
20
-2.11126
11
2.90135
21
-2.1111
0
LINE
8
BLACK
6
CONTINUOUS
10
2.90135
20
-2.1111
11
2.9011
21
-2.10692
0
LINE
8
BLACK
6
CONTINUOUS
10
2.9011
20
-2.10692
11
2.9012
21
-2.10604
0
LINE
8
BLACK
6
CONTINUOUS
10
2.9012
20
-2.10604
11
2.90119
21
-2.10598
0
LINE
8
BLACK
6
CONTINUOUS
10
2.90119
20
-2.10598
11
2.90188
21
-2.10341
0
LINE
8
BLACK
6
CONTINUOUS
10
2.90188
20
-2.10341
11
2.90231
21
-2.10249
0
LINE
8
BLACK
6
CONTINUOUS
10
2.90231
20
-2.10249
11
2.90397
21
-2.10133
0
LINE
8
BLACK
6
CONTINUOUS
10
2.90397
20
-2.10133
11
2.90598
21
-2.1015
0
LINE
8
BLACK
6
CONTINUOUS
10
2.90598
20
-2.1015
11
2.90741
21
-2.10293
0
LINE
8
BLACK
6
CONTINUOUS
10
2.90741
20
-2.10293
11
2.90758
21
-2.10494
0
LINE
8
BLACK
6
CONTINUOUS
10
2.90758
20
-2.10494
11
2.90702
21
-2.10704
0
LINE
8
BLACK
6
CONTINUOUS
10
2.90702
20
-2.10704
11
2.9072
21
-2.11005
0
LINE
8
BLACK
6
CONTINUOUS
10
2.9072
20
-2.11005
11
2.91119
21
-2.11696
0
LINE
8
BLACK
6
CONTINUOUS
10
2.91119
20
-2.11696
11
2.91371
21
-2.11862
0
LINE
8
BLACK
6
CONTINUOUS
10
2.91371
20
-2.11862
11
2.91534
21
-2.11906
0
LINE
8
BLACK
6
CONTINUOUS
10
2.91534
20
-2.11906
11
2.91836
21
-2.11888
0
LINE
8
BLACK
6
CONTINUOUS
10
2.91836
20
-2.11888
11
2.92527
21
-2.11489
0
LINE
8
BLACK
6
CONTINUOUS
10
2.92527
20
-2.11489
11
2.92693
21
-2.11237
0
LINE
8
BLACK
6
CONTINUOUS
10
2.92693
20
-2.11237
11
2.92737
21
-2.11074
0
LINE
8
BLACK
6
CONTINUOUS
10
2.92737
20
-2.11074
11
2.92718
21
-2.10773
0
LINE
8
BLACK
6
CONTINUOUS
10
2.92718
20
-2.10773
11
2.92319
21
-2.10082
0
LINE
8
BLACK
6
CONTINUOUS
10
2.92319
20
-2.10082
11
2.92068
21
-2.09916
0
LINE
8
BLACK
6
CONTINUOUS
10
2.92068
20
-2.09916
11
2.91858
21
-2.09859
0
LINE
8
BLACK
6
CONTINUOUS
10
2.91858
20
-2.09859
11
2.91765
21
-2.09816
0
LINE
8
BLACK
6
CONTINUOUS
10
2.91765
20
-2.09816
11
2.91764
21
-2.09815
0
LINE
8
BLACK
6
CONTINUOUS
10
2.91764
20
-2.09815
11
2.91762
21
-2.09814
0
LINE
8
BLACK
6
CONTINUOUS
10
2.91762
20
-2.09814
11
2.91706
21
-2.09732
0
LINE
8
BLACK
6
CONTINUOUS
10
2.91706
20
-2.09732
11
2.91649
21
-2.09651
0
LINE
8
BLACK
6
CONTINUOUS
10
2.91649
20
-2.09651
11
2.91649
21
-2.09649
0
LINE
8
BLACK
6
CONTINUOUS
10
2.91649
20
-2.09649
11
2.91648
21
-2.09647
0
LINE
8
BLACK
6
CONTINUOUS
10
2.91648
20
-2.09647
11
2.91658
21
-2.09548
0
LINE
8
BLACK
6
CONTINUOUS
10
2.91658
20
-2.09548
11
2.91667
21
-2.09449
0
LINE
8
BLACK
6
CONTINUOUS
10
2.91667
20
-2.09449
11
2.91668
21
-2.09448
0
LINE
8
BLACK
6
CONTINUOUS
10
2.91668
20
-2.09448
11
2.91668
21
-2.09446
0
LINE
8
BLACK
6
CONTINUOUS
10
2.91668
20
-2.09446
11
2.91739
21
-2.09377
0
LINE
8
BLACK
6
CONTINUOUS
10
2.91739
20
-2.09377
11
2.9181
21
-2.09307
0
LINE
8
BLACK
6
CONTINUOUS
10
2.9181
20
-2.09307
11
2.91812
21
-2.09306
0
LINE
8
BLACK
6
CONTINUOUS
10
2.91812
20
-2.09306
11
2.91813
21
-2.09305
0
LINE
8
BLACK
6
CONTINUOUS
10
2.91813
20
-2.09305
11
2.9353
21
-2.0853
0
LINE
8
BLACK
6
CONTINUOUS
10
2.9353
20
-2.0853
11
2.93545
21
-2.08526
0
LINE
8
BLACK
6
CONTINUOUS
10
2.93545
20
-2.08526
11
2.93551
21
-2.08522
0
LINE
8
BLACK
6
CONTINUOUS
10
2.93551
20
-2.08522
11
2.93563
21
-2.08522
0
LINE
8
BLACK
6
CONTINUOUS
10
2.93563
20
-2.08522
11
2.9363
21
-2.08505
0
LINE
8
BLACK
6
CONTINUOUS
10
2.9363
20
-2.08505
11
2.9369
21
-2.08522
0
LINE
8
BLACK
6
CONTINUOUS
10
2.97714
20
-2.09002
11
2.97799
21
-2.09059
0
LINE
8
BLACK
6
CONTINUOUS
10
2.97799
20
-2.09059
11
2.97915
21
-2.0909
0
LINE
8
BLACK
6
CONTINUOUS
10
2.97915
20
-2.0909
11
2.98103
21
-2.09102
0
LINE
8
BLACK
6
CONTINUOUS
10
2.98103
20
-2.09102
11
2.98117
21
-2.09109
0
LINE
8
BLACK
6
CONTINUOUS
10
2.98117
20
-2.09109
11
2.98132
21
-2.09107
0
LINE
8
BLACK
6
CONTINUOUS
10
2.98132
20
-2.09107
11
2.98166
21
-2.09133
0
LINE
8
BLACK
6
CONTINUOUS
10
2.98166
20
-2.09133
11
2.98205
21
-2.09152
0
LINE
8
BLACK
6
CONTINUOUS
10
2.98205
20
-2.09152
11
2.98209
21
-2.09166
0
LINE
8
BLACK
6
CONTINUOUS
10
2.98209
20
-2.09166
11
2.98221
21
-2.09175
0
LINE
8
BLACK
6
CONTINUOUS
10
2.98221
20
-2.09175
11
2.98227
21
-2.09218
0
LINE
8
BLACK
6
CONTINUOUS
10
2.98227
20
-2.09218
11
2.98241
21
-2.09259
0
LINE
8
BLACK
6
CONTINUOUS
10
2.98241
20
-2.09259
11
2.98234
21
-2.09272
0
LINE
8
BLACK
6
CONTINUOUS
10
2.98234
20
-2.09272
11
2.98236
21
-2.09287
0
LINE
8
BLACK
6
CONTINUOUS
10
2.98236
20
-2.09287
11
2.9821
21
-2.09321
0
LINE
8
BLACK
6
CONTINUOUS
10
2.9821
20
-2.09321
11
2.98191
21
-2.0936
0
LINE
8
BLACK
6
CONTINUOUS
10
2.98191
20
-2.0936
11
2.98177
21
-2.09365
0
LINE
8
BLACK
6
CONTINUOUS
10
2.98177
20
-2.09365
11
2.98167
21
-2.09377
0
LINE
8
BLACK
6
CONTINUOUS
10
2.98167
20
-2.09377
11
2.97272
21
-2.09894
0
LINE
8
BLACK
6
CONTINUOUS
10
2.97272
20
-2.09894
11
2.97367
21
-2.10058
0
LINE
8
BLACK
6
CONTINUOUS
10
2.97367
20
-2.10058
11
2.97382
21
-2.1017
0
LINE
8
BLACK
6
CONTINUOUS
10
2.97382
20
-2.1017
11
2.97313
21
-2.1026
0
LINE
8
BLACK
6
CONTINUOUS
10
2.97313
20
-2.1026
11
2.97201
21
-2.10275
0
LINE
8
BLACK
6
CONTINUOUS
10
2.97201
20
-2.10275
11
2.97112
21
-2.10206
0
LINE
8
BLACK
6
CONTINUOUS
10
2.97112
20
-2.10206
11
2.96774
21
-2.09621
0
LINE
8
BLACK
6
CONTINUOUS
10
2.96774
20
-2.09621
11
2.96759
21
-2.09509
0
LINE
8
BLACK
6
CONTINUOUS
10
2.96759
20
-2.09509
11
2.96828
21
-2.0942
0
LINE
8
BLACK
6
CONTINUOUS
10
2.96828
20
-2.0942
11
2.9694
21
-2.09405
0
LINE
8
BLACK
6
CONTINUOUS
10
2.9694
20
-2.09405
11
2.9703
21
-2.09474
0
LINE
8
BLACK
6
CONTINUOUS
10
2.9703
20
-2.09474
11
2.97125
21
-2.09638
0
LINE
8
BLACK
6
CONTINUOUS
10
2.97125
20
-2.09638
11
2.97673
21
-2.09321
0
LINE
8
BLACK
6
CONTINUOUS
10
2.97673
20
-2.09321
11
2.97656
21
-2.09318
0
LINE
8
BLACK
6
CONTINUOUS
10
2.97656
20
-2.09318
11
2.97551
21
-2.09249
0
LINE
8
BLACK
6
CONTINUOUS
10
2.97551
20
-2.09249
11
2.97488
21
-2.09155
0
LINE
8
BLACK
6
CONTINUOUS
10
2.97488
20
-2.09155
11
2.97509
21
-2.09044
0
LINE
8
BLACK
6
CONTINUOUS
10
2.97509
20
-2.09044
11
2.97603
21
-2.08981
0
LINE
8
BLACK
6
CONTINUOUS
10
2.97603
20
-2.08981
11
2.97714
21
-2.09002
0
LINE
8
BLACK
6
CONTINUOUS
10
2.91708
20
-2.05112
11
2.91784
21
-2.05112
0
LINE
8
BLACK
6
CONTINUOUS
10
2.91784
20
-2.05112
11
2.91805
21
-2.05129
0
LINE
8
BLACK
6
CONTINUOUS
10
2.91805
20
-2.05129
11
2.91831
21
-2.05134
0
LINE
8
BLACK
6
CONTINUOUS
10
2.91831
20
-2.05134
11
2.9188
21
-2.05193
0
LINE
8
BLACK
6
CONTINUOUS
10
2.9188
20
-2.05193
11
2.91939
21
-2.05242
0
LINE
8
BLACK
6
CONTINUOUS
10
2.91939
20
-2.05242
11
2.92408
21
-2.06054
0
LINE
8
BLACK
6
CONTINUOUS
10
2.92408
20
-2.06054
11
2.92438
21
-2.06137
0
LINE
8
BLACK
6
CONTINUOUS
10
2.92438
20
-2.06137
11
2.92441
21
-2.06142
0
LINE
8
BLACK
6
CONTINUOUS
10
2.92441
20
-2.06142
11
2.9256
21
-2.06723
0
LINE
8
BLACK
6
CONTINUOUS
10
2.9256
20
-2.06723
11
2.92563
21
-2.06826
0
LINE
8
BLACK
6
CONTINUOUS
10
2.92563
20
-2.06826
11
2.92554
21
-2.06841
0
LINE
8
BLACK
6
CONTINUOUS
10
2.92554
20
-2.06841
11
2.92556
21
-2.06859
0
LINE
8
BLACK
6
CONTINUOUS
10
2.92556
20
-2.06859
11
2.92419
21
-2.07371
0
LINE
8
BLACK
6
CONTINUOUS
10
2.92419
20
-2.07371
11
2.92381
21
-2.07451
0
LINE
8
BLACK
6
CONTINUOUS
10
2.92381
20
-2.07451
11
2.9238
21
-2.07457
0
LINE
8
BLACK
6
CONTINUOUS
10
2.9238
20
-2.07457
11
2.92149
21
-2.07807
0
LINE
8
BLACK
6
CONTINUOUS
10
2.92149
20
-2.07807
11
2.92114
21
-2.07844
0
LINE
8
BLACK
6
CONTINUOUS
10
2.92114
20
-2.07844
11
2.92108
21
-2.07857
0
LINE
8
BLACK
6
CONTINUOUS
10
2.92108
20
-2.07857
11
2.91552
21
-2.08394
0
LINE
8
BLACK
6
CONTINUOUS
10
2.91552
20
-2.08394
11
2.91503
21
-2.08427
0
LINE
8
BLACK
6
CONTINUOUS
10
2.91503
20
-2.08427
11
2.91495
21
-2.08437
0
LINE
8
BLACK
6
CONTINUOUS
10
2.91495
20
-2.08437
11
2.91007
21
-2.08719
0
LINE
8
BLACK
6
CONTINUOUS
10
2.91007
20
-2.08719
11
2.90952
21
-2.08739
0
LINE
8
BLACK
6
CONTINUOUS
10
2.90952
20
-2.08739
11
2.90941
21
-2.08747
0
LINE
8
BLACK
6
CONTINUOUS
10
2.90941
20
-2.08747
11
2.90198
21
-2.08959
0
LINE
8
BLACK
6
CONTINUOUS
10
2.90198
20
-2.08959
11
2.90147
21
-2.08965
0
LINE
8
BLACK
6
CONTINUOUS
10
2.90147
20
-2.08965
11
2.90134
21
-2.0897
0
LINE
8
BLACK
6
CONTINUOUS
10
2.90134
20
-2.0897
11
2.89716
21
-2.08995
0
LINE
8
BLACK
6
CONTINUOUS
10
2.89716
20
-2.08995
11
2.89628
21
-2.08985
0
LINE
8
BLACK
6
CONTINUOUS
10
2.89628
20
-2.08985
11
2.89622
21
-2.08986
0
LINE
8
BLACK
6
CONTINUOUS
10
2.89622
20
-2.08986
11
2.8911
21
-2.08849
0
LINE
8
BLACK
6
CONTINUOUS
10
2.8911
20
-2.08849
11
2.89017
21
-2.08805
0
LINE
8
BLACK
6
CONTINUOUS
10
2.89017
20
-2.08805
11
2.89006
21
-2.08791
0
LINE
8
BLACK
6
CONTINUOUS
10
2.89006
20
-2.08791
11
2.8899
21
-2.08784
0
LINE
8
BLACK
6
CONTINUOUS
10
2.8899
20
-2.08784
11
2.88546
21
-2.08391
0
LINE
8
BLACK
6
CONTINUOUS
10
2.88546
20
-2.08391
11
2.88492
21
-2.08322
0
LINE
8
BLACK
6
CONTINUOUS
10
2.88492
20
-2.08322
11
2.88487
21
-2.08318
0
LINE
8
BLACK
6
CONTINUOUS
10
2.88487
20
-2.08318
11
2.88018
21
-2.07506
0
LINE
8
BLACK
6
CONTINUOUS
10
2.88018
20
-2.07506
11
2.88005
21
-2.07469
0
LINE
8
BLACK
6
CONTINUOUS
10
2.88005
20
-2.07469
11
2.87996
21
-2.07459
0
LINE
8
BLACK
6
CONTINUOUS
10
2.87996
20
-2.07459
11
2.87996
21
-2.07446
0
LINE
8
BLACK
6
CONTINUOUS
10
2.87996
20
-2.07446
11
2.87983
21
-2.07409
0
LINE
8
BLACK
6
CONTINUOUS
10
2.87983
20
-2.07409
11
2.87996
21
-2.07334
0
LINE
8
BLACK
6
CONTINUOUS
10
2.87996
20
-2.07334
11
2.87996
21
-2.07257
0
LINE
8
BLACK
6
CONTINUOUS
10
2.87996
20
-2.07257
11
2.88013
21
-2.07237
0
LINE
8
BLACK
6
CONTINUOUS
10
2.88013
20
-2.07237
11
2.88018
21
-2.07211
0
LINE
8
BLACK
6
CONTINUOUS
10
2.88018
20
-2.07211
11
2.88077
21
-2.07161
0
LINE
8
BLACK
6
CONTINUOUS
10
2.88077
20
-2.07161
11
2.88126
21
-2.07102
0
LINE
8
BLACK
6
CONTINUOUS
10
2.88126
20
-2.07102
11
2.91536
21
-2.05134
0
LINE
8
BLACK
6
CONTINUOUS
10
2.91536
20
-2.05134
11
2.91572
21
-2.05121
0
LINE
8
BLACK
6
CONTINUOUS
10
2.91572
20
-2.05121
11
2.91582
21
-2.05112
0
LINE
8
BLACK
6
CONTINUOUS
10
2.91582
20
-2.05112
11
2.91595
21
-2.05112
0
LINE
8
BLACK
6
CONTINUOUS
10
2.91595
20
-2.05112
11
2.91632
21
-2.05099
0
LINE
8
BLACK
6
CONTINUOUS
10
2.91632
20
-2.05099
11
2.91708
21
-2.05112
0
LINE
8
BLACK
6
CONTINUOUS
10
2.88677
20
-2.07466
11
2.88974
21
-2.07981
0
LINE
8
BLACK
6
CONTINUOUS
10
2.88974
20
-2.07981
11
2.8933
21
-2.08296
0
LINE
8
BLACK
6
CONTINUOUS
10
2.8933
20
-2.08296
11
2.89728
21
-2.08403
0
LINE
8
BLACK
6
CONTINUOUS
10
2.89728
20
-2.08403
11
2.90067
21
-2.08383
0
LINE
8
BLACK
6
CONTINUOUS
10
2.90067
20
-2.08383
11
2.90744
21
-2.08189
0
LINE
8
BLACK
6
CONTINUOUS
10
2.90744
20
-2.08189
11
2.91168
21
-2.07944
0
LINE
8
BLACK
6
CONTINUOUS
10
2.91168
20
-2.07944
11
2.91674
21
-2.07455
0
LINE
8
BLACK
6
CONTINUOUS
10
2.91674
20
-2.07455
11
2.91861
21
-2.07172
0
LINE
8
BLACK
6
CONTINUOUS
10
2.91861
20
-2.07172
11
2.91968
21
-2.06773
0
LINE
8
BLACK
6
CONTINUOUS
10
2.91968
20
-2.06773
11
2.91872
21
-2.06308
0
LINE
8
BLACK
6
CONTINUOUS
10
2.91872
20
-2.06308
11
2.91575
21
-2.05793
0
LINE
8
BLACK
6
CONTINUOUS
10
2.91575
20
-2.05793
11
2.88677
21
-2.07466
0
LINE
8
BLACK
6
CONTINUOUS
10
3.28763
20
-2.07341
11
3.28806
21
-2.07338
0
LINE
8
BLACK
6
CONTINUOUS
10
3.28806
20
-2.07338
11
3.28818
21
-2.07348
0
LINE
8
BLACK
6
CONTINUOUS
10
3.28818
20
-2.07348
11
3.28833
21
-2.0735
0
LINE
8
BLACK
6
CONTINUOUS
10
3.28833
20
-2.0735
11
3.29728
21
-2.07866
0
LINE
8
BLACK
6
CONTINUOUS
10
3.29728
20
-2.07866
11
3.29823
21
-2.07702
0
LINE
8
BLACK
6
CONTINUOUS
10
3.29823
20
-2.07702
11
3.29912
21
-2.07633
0
LINE
8
BLACK
6
CONTINUOUS
10
3.29912
20
-2.07633
11
3.30024
21
-2.07648
0
LINE
8
BLACK
6
CONTINUOUS
10
3.30024
20
-2.07648
11
3.30093
21
-2.07738
0
LINE
8
BLACK
6
CONTINUOUS
10
3.30093
20
-2.07738
11
3.30078
21
-2.0785
0
LINE
8
BLACK
6
CONTINUOUS
10
3.30078
20
-2.0785
11
3.29741
21
-2.08434
0
LINE
8
BLACK
6
CONTINUOUS
10
3.29741
20
-2.08434
11
3.29651
21
-2.08503
0
LINE
8
BLACK
6
CONTINUOUS
10
3.29651
20
-2.08503
11
3.29539
21
-2.08488
0
LINE
8
BLACK
6
CONTINUOUS
10
3.29539
20
-2.08488
11
3.29471
21
-2.08399
0
LINE
8
BLACK
6
CONTINUOUS
10
3.29471
20
-2.08399
11
3.29485
21
-2.08286
0
LINE
8
BLACK
6
CONTINUOUS
10
3.29485
20
-2.08286
11
3.2958
21
-2.08122
0
LINE
8
BLACK
6
CONTINUOUS
10
3.2958
20
-2.08122
11
3.29032
21
-2.07805
0
LINE
8
BLACK
6
CONTINUOUS
10
3.29032
20
-2.07805
11
3.29037
21
-2.07822
0
LINE
8
BLACK
6
CONTINUOUS
10
3.29037
20
-2.07822
11
3.2903
21
-2.07947
0
LINE
8
BLACK
6
CONTINUOUS
10
3.2903
20
-2.07947
11
3.28981
21
-2.08049
0
LINE
8
BLACK
6
CONTINUOUS
10
3.28981
20
-2.08049
11
3.28874
21
-2.08086
0
LINE
8
BLACK
6
CONTINUOUS
10
3.28874
20
-2.08086
11
3.28772
21
-2.08036
0
LINE
8
BLACK
6
CONTINUOUS
10
3.28772
20
-2.08036
11
3.28735
21
-2.0793
0
LINE
8
BLACK
6
CONTINUOUS
10
3.28735
20
-2.0793
11
3.28741
21
-2.07828
0
LINE
8
BLACK
6
CONTINUOUS
10
3.28741
20
-2.07828
11
3.2871
21
-2.07712
0
LINE
8
BLACK
6
CONTINUOUS
10
3.2871
20
-2.07712
11
3.28627
21
-2.07543
0
LINE
8
BLACK
6
CONTINUOUS
10
3.28627
20
-2.07543
11
3.28626
21
-2.07528
0
LINE
8
BLACK
6
CONTINUOUS
10
3.28626
20
-2.07528
11
3.28616
21
-2.07516
0
LINE
8
BLACK
6
CONTINUOUS
10
3.28616
20
-2.07516
11
3.28622
21
-2.07473
0
LINE
8
BLACK
6
CONTINUOUS
10
3.28622
20
-2.07473
11
3.28619
21
-2.0743
0
LINE
8
BLACK
6
CONTINUOUS
10
3.28619
20
-2.0743
11
3.28629
21
-2.07419
0
LINE
8
BLACK
6
CONTINUOUS
10
3.28629
20
-2.07419
11
3.28631
21
-2.07404
0
LINE
8
BLACK
6
CONTINUOUS
10
3.28631
20
-2.07404
11
3.28665
21
-2.07378
0
LINE
8
BLACK
6
CONTINUOUS
10
3.28665
20
-2.07378
11
3.28694
21
-2.07345
0
LINE
8
BLACK
6
CONTINUOUS
10
3.28694
20
-2.07345
11
3.28709
21
-2.07344
0
LINE
8
BLACK
6
CONTINUOUS
10
3.28709
20
-2.07344
11
3.28721
21
-2.07335
0
LINE
8
BLACK
6
CONTINUOUS
10
3.28721
20
-2.07335
11
3.28763
21
-2.07341
0
LINE
8
BLACK
6
CONTINUOUS
10
2.95059
20
-2.02932
11
2.95079
21
-2.03081
0
LINE
8
BLACK
6
CONTINUOUS
10
2.95079
20
-2.03081
11
2.94987
21
-2.03201
0
LINE
8
BLACK
6
CONTINUOUS
10
2.94987
20
-2.03201
11
2.92942
21
-2.04382
0
LINE
8
BLACK
6
CONTINUOUS
10
2.92942
20
-2.04382
11
2.94123
21
-2.06427
0
LINE
8
BLACK
6
CONTINUOUS
10
2.94123
20
-2.06427
11
2.94142
21
-2.06577
0
LINE
8
BLACK
6
CONTINUOUS
10
2.94142
20
-2.06577
11
2.94051
21
-2.06696
0
LINE
8
BLACK
6
CONTINUOUS
10
2.94051
20
-2.06696
11
2.93901
21
-2.06716
0
LINE
8
BLACK
6
CONTINUOUS
10
2.93901
20
-2.06716
11
2.93782
21
-2.06624
0
LINE
8
BLACK
6
CONTINUOUS
10
2.93782
20
-2.06624
11
2.92502
21
-2.04408
0
LINE
8
BLACK
6
CONTINUOUS
10
2.92502
20
-2.04408
11
2.92483
21
-2.04259
0
LINE
8
BLACK
6
CONTINUOUS
10
2.92483
20
-2.04259
11
2.92574
21
-2.04139
0
LINE
8
BLACK
6
CONTINUOUS
10
2.92574
20
-2.04139
11
2.92574
21
-2.04139
0
LINE
8
BLACK
6
CONTINUOUS
10
2.92574
20
-2.04139
11
2.94791
21
-2.0286
0
LINE
8
BLACK
6
CONTINUOUS
10
2.94791
20
-2.0286
11
2.9494
21
-2.0284
0
LINE
8
BLACK
6
CONTINUOUS
10
2.9494
20
-2.0284
11
2.95059
21
-2.02932
0
LINE
8
BLACK
6
CONTINUOUS
10
3.25259
20
-2.01921
11
3.25309
21
-2.01933
0
LINE
8
BLACK
6
CONTINUOUS
10
3.25309
20
-2.01933
11
3.25323
21
-2.01932
0
LINE
8
BLACK
6
CONTINUOUS
10
3.25323
20
-2.01932
11
3.26066
21
-2.02144
0
LINE
8
BLACK
6
CONTINUOUS
10
3.26066
20
-2.02144
11
3.26119
21
-2.0217
0
LINE
8
BLACK
6
CONTINUOUS
10
3.26119
20
-2.0217
11
3.26132
21
-2.02173
0
LINE
8
BLACK
6
CONTINUOUS
10
3.26132
20
-2.02173
11
3.2662
21
-2.02454
0
LINE
8
BLACK
6
CONTINUOUS
10
3.2662
20
-2.02454
11
3.26665
21
-2.02492
0
LINE
8
BLACK
6
CONTINUOUS
10
3.26665
20
-2.02492
11
3.26677
21
-2.02497
0
LINE
8
BLACK
6
CONTINUOUS
10
3.26677
20
-2.02497
11
3.27233
21
-2.03035
0
LINE
8
BLACK
6
CONTINUOUS
10
3.27233
20
-2.03035
11
3.27263
21
-2.03076
0
LINE
8
BLACK
6
CONTINUOUS
10
3.27263
20
-2.03076
11
3.27274
21
-2.03084
0
LINE
8
BLACK
6
CONTINUOUS
10
3.27274
20
-2.03084
11
3.27505
21
-2.03434
0
LINE
8
BLACK
6
CONTINUOUS
10
3.27505
20
-2.03434
11
3.2754
21
-2.03515
0
LINE
8
BLACK
6
CONTINUOUS
10
3.2754
20
-2.03515
11
3.27544
21
-2.0352
0
LINE
8
BLACK
6
CONTINUOUS
10
3.27544
20
-2.0352
11
3.27681
21
-2.04032
0
LINE
8
BLACK
6
CONTINUOUS
10
3.27681
20
-2.04032
11
3.2769
21
-2.04135
0
LINE
8
BLACK
6
CONTINUOUS
10
3.2769
20
-2.04135
11
3.27682
21
-2.04151
0
LINE
8
BLACK
6
CONTINUOUS
10
3.27682
20
-2.04151
11
3.27685
21
-2.04168
0
LINE
8
BLACK
6
CONTINUOUS
10
3.27685
20
-2.04168
11
3.27566
21
-2.04749
0
LINE
8
BLACK
6
CONTINUOUS
10
3.27566
20
-2.04749
11
3.27534
21
-2.04831
0
LINE
8
BLACK
6
CONTINUOUS
10
3.27534
20
-2.04831
11
3.27533
21
-2.04837
0
LINE
8
BLACK
6
CONTINUOUS
10
3.27533
20
-2.04837
11
3.27064
21
-2.05649
0
LINE
8
BLACK
6
CONTINUOUS
10
3.27064
20
-2.05649
11
3.27039
21
-2.05679
0
LINE
8
BLACK
6
CONTINUOUS
10
3.27039
20
-2.05679
11
3.27034
21
-2.05691
0
LINE
8
BLACK
6
CONTINUOUS
10
3.27034
20
-2.05691
11
3.27023
21
-2.05698
0
LINE
8
BLACK
6
CONTINUOUS
10
3.27023
20
-2.05698
11
3.26998
21
-2.05728
0
LINE
8
BLACK
6
CONTINUOUS
10
3.26998
20
-2.05728
11
3.26926
21
-2.05754
0
LINE
8
BLACK
6
CONTINUOUS
10
3.26926
20
-2.05754
11
3.2686
21
-2.05792
0
LINE
8
BLACK
6
CONTINUOUS
10
3.2686
20
-2.05792
11
3.26833
21
-2.05788
0
LINE
8
BLACK
6
CONTINUOUS
10
3.26833
20
-2.05788
11
3.26808
21
-2.05797
0
LINE
8
BLACK
6
CONTINUOUS
10
3.26808
20
-2.05797
11
3.26736
21
-2.05771
0
LINE
8
BLACK
6
CONTINUOUS
10
3.26736
20
-2.05771
11
3.26661
21
-2.05757
0
LINE
8
BLACK
6
CONTINUOUS
10
3.26661
20
-2.05757
11
3.23251
21
-2.03789
0
LINE
8
BLACK
6
CONTINUOUS
10
3.23251
20
-2.03789
11
3.23221
21
-2.03764
0
LINE
8
BLACK
6
CONTINUOUS
10
3.23221
20
-2.03764
11
3.23209
21
-2.03759
0
LINE
8
BLACK
6
CONTINUOUS
10
3.23209
20
-2.03759
11
3.23202
21
-2.03748
0
LINE
8
BLACK
6
CONTINUOUS
10
3.23202
20
-2.03748
11
3.23172
21
-2.03723
0
LINE
8
BLACK
6
CONTINUOUS
10
3.23172
20
-2.03723
11
3.23146
21
-2.03651
0
LINE
8
BLACK
6
CONTINUOUS
10
3.23146
20
-2.03651
11
3.23108
21
-2.03584
0
LINE
8
BLACK
6
CONTINUOUS
10
3.23108
20
-2.03584
11
3.23113
21
-2.03558
0
LINE
8
BLACK
6
CONTINUOUS
10
3.23113
20
-2.03558
11
3.23103
21
-2.03533
0
LINE
8
BLACK
6
CONTINUOUS
10
3.23103
20
-2.03533
11
3.2313
21
-2.03461
0
LINE
8
BLACK
6
CONTINUOUS
10
3.2313
20
-2.03461
11
3.23143
21
-2.03385
0
LINE
8
BLACK
6
CONTINUOUS
10
3.23143
20
-2.03385
11
3.23612
21
-2.02574
0
LINE
8
BLACK
6
CONTINUOUS
10
3.23612
20
-2.02574
11
3.23668
21
-2.02506
0
LINE
8
BLACK
6
CONTINUOUS
10
3.23668
20
-2.02506
11
3.23671
21
-2.025
0
LINE
8
BLACK
6
CONTINUOUS
10
3.23671
20
-2.025
11
3.24115
21
-2.02107
0
LINE
8
BLACK
6
CONTINUOUS
10
3.24115
20
-2.02107
11
3.24202
21
-2.02053
0
LINE
8
BLACK
6
CONTINUOUS
10
3.24202
20
-2.02053
11
3.2422
21
-2.02053
0
LINE
8
BLACK
6
CONTINUOUS
10
3.2422
20
-2.02053
11
3.24235
21
-2.02043
0
LINE
8
BLACK
6
CONTINUOUS
10
3.24235
20
-2.02043
11
3.24747
21
-2.01905
0
LINE
8
BLACK
6
CONTINUOUS
10
3.24747
20
-2.01905
11
3.24835
21
-2.01898
0
LINE
8
BLACK
6
CONTINUOUS
10
3.24835
20
-2.01898
11
3.24841
21
-2.01896
0
LINE
8
BLACK
6
CONTINUOUS
10
3.24841
20
-2.01896
11
3.25259
21
-2.01921
0
LINE
8
BLACK
6
CONTINUOUS
10
3.24455
20
-2.02595
11
3.24099
21
-2.0291
0
LINE
8
BLACK
6
CONTINUOUS
10
3.24099
20
-2.0291
11
3.23802
21
-2.03425
0
LINE
8
BLACK
6
CONTINUOUS
10
3.23802
20
-2.03425
11
3.267
21
-2.05098
0
LINE
8
BLACK
6
CONTINUOUS
10
3.267
20
-2.05098
11
3.26997
21
-2.04584
0
LINE
8
BLACK
6
CONTINUOUS
10
3.26997
20
-2.04584
11
3.27093
21
-2.04118
0
LINE
8
BLACK
6
CONTINUOUS
10
3.27093
20
-2.04118
11
3.26986
21
-2.03719
0
LINE
8
BLACK
6
CONTINUOUS
10
3.26986
20
-2.03719
11
3.26799
21
-2.03437
0
LINE
8
BLACK
6
CONTINUOUS
10
3.26799
20
-2.03437
11
3.26293
21
-2.02947
0
LINE
8
BLACK
6
CONTINUOUS
10
3.26293
20
-2.02947
11
3.25869
21
-2.02702
0
LINE
8
BLACK
6
CONTINUOUS
10
3.25869
20
-2.02702
11
3.25192
21
-2.02509
0
LINE
8
BLACK
6
CONTINUOUS
10
3.25192
20
-2.02509
11
3.24853
21
-2.02488
0
LINE
8
BLACK
6
CONTINUOUS
10
3.24853
20
-2.02488
11
3.24455
21
-2.02595
0
LINE
8
BLACK
6
CONTINUOUS
10
3.13824
20
-2.03987
11
3.13868
21
-2.04092
0
LINE
8
BLACK
6
CONTINUOUS
10
3.13868
20
-2.04092
11
3.13868
21
-2.04767
0
LINE
8
BLACK
6
CONTINUOUS
10
3.13868
20
-2.04767
11
3.13824
21
-2.04871
0
LINE
8
BLACK
6
CONTINUOUS
10
3.13824
20
-2.04871
11
3.1372
21
-2.04914
0
LINE
8
BLACK
6
CONTINUOUS
10
3.1372
20
-2.04914
11
3.13616
21
-2.04871
0
LINE
8
BLACK
6
CONTINUOUS
10
3.13616
20
-2.04871
11
3.13572
21
-2.04767
0
LINE
8
BLACK
6
CONTINUOUS
10
3.13572
20
-2.04767
11
3.13572
21
-2.04577
0
LINE
8
BLACK
6
CONTINUOUS
10
3.13572
20
-2.04577
11
3.12939
21
-2.04577
0
LINE
8
BLACK
6
CONTINUOUS
10
3.12939
20
-2.04577
11
3.12952
21
-2.04588
0
LINE
8
BLACK
6
CONTINUOUS
10
3.12952
20
-2.04588
11
3.13008
21
-2.04701
0
LINE
8
BLACK
6
CONTINUOUS
10
3.13008
20
-2.04701
11
3.13016
21
-2.04813
0
LINE
8
BLACK
6
CONTINUOUS
10
3.13016
20
-2.04813
11
3.12942
21
-2.04899
0
LINE
8
BLACK
6
CONTINUOUS
10
3.12942
20
-2.04899
11
3.1283
21
-2.04907
0
LINE
8
BLACK
6
CONTINUOUS
10
3.1283
20
-2.04907
11
3.12744
21
-2.04833
0
LINE
8
BLACK
6
CONTINUOUS
10
3.12744
20
-2.04833
11
3.12699
21
-2.04742
0
LINE
8
BLACK
6
CONTINUOUS
10
3.12699
20
-2.04742
11
3.12614
21
-2.04656
0
LINE
8
BLACK
6
CONTINUOUS
10
3.12614
20
-2.04656
11
3.12457
21
-2.04552
0
LINE
8
BLACK
6
CONTINUOUS
10
3.12457
20
-2.04552
11
3.12449
21
-2.04539
0
LINE
8
BLACK
6
CONTINUOUS
10
3.12449
20
-2.04539
11
3.12435
21
-2.04534
0
LINE
8
BLACK
6
CONTINUOUS
10
3.12435
20
-2.04534
11
3.12418
21
-2.04494
0
LINE
8
BLACK
6
CONTINUOUS
10
3.12418
20
-2.04494
11
3.12394
21
-2.04458
0
LINE
8
BLACK
6
CONTINUOUS
10
3.12394
20
-2.04458
11
3.12397
21
-2.04443
0
LINE
8
BLACK
6
CONTINUOUS
10
3.12397
20
-2.04443
11
3.12391
21
-2.04429
0
LINE
8
BLACK
6
CONTINUOUS
10
3.12391
20
-2.04429
11
3.12408
21
-2.04389
0
LINE
8
BLACK
6
CONTINUOUS
10
3.12408
20
-2.04389
11
3.12416
21
-2.04347
0
LINE
8
BLACK
6
CONTINUOUS
10
3.12416
20
-2.04347
11
3.12429
21
-2.04339
0
LINE
8
BLACK
6
CONTINUOUS
10
3.12429
20
-2.04339
11
3.12435
21
-2.04325
0
LINE
8
BLACK
6
CONTINUOUS
10
3.12435
20
-2.04325
11
3.12474
21
-2.04308
0
LINE
8
BLACK
6
CONTINUOUS
10
3.12474
20
-2.04308
11
3.1251
21
-2.04284
0
LINE
8
BLACK
6
CONTINUOUS
10
3.1251
20
-2.04284
11
3.12525
21
-2.04287
0
LINE
8
BLACK
6
CONTINUOUS
10
3.12525
20
-2.04287
11
3.12539
21
-2.04281
0
LINE
8
BLACK
6
CONTINUOUS
10
3.12539
20
-2.04281
11
3.13572
21
-2.04281
0
LINE
8
BLACK
6
CONTINUOUS
10
3.13572
20
-2.04281
11
3.13572
21
-2.04092
0
LINE
8
BLACK
6
CONTINUOUS
10
3.13572
20
-2.04092
11
3.13616
21
-2.03987
0
LINE
8
BLACK
6
CONTINUOUS
10
3.13616
20
-2.03987
11
3.1372
21
-2.03944
0
LINE
8
BLACK
6
CONTINUOUS
10
3.1372
20
-2.03944
11
3.13824
21
-2.03987
0
LINE
8
BLACK
6
CONTINUOUS
10
3.08232
20
-2.01159
11
3.08246
21
-2.01157
0
LINE
8
BLACK
6
CONTINUOUS
10
3.08246
20
-2.01157
11
3.08996
21
-2.01345
0
LINE
8
BLACK
6
CONTINUOUS
10
3.08996
20
-2.01345
11
3.09042
21
-2.01365
0
LINE
8
BLACK
6
CONTINUOUS
10
3.09042
20
-2.01365
11
3.09056
21
-2.01367
0
LINE
8
BLACK
6
CONTINUOUS
10
3.09056
20
-2.01367
11
3.09431
21
-2.01554
0
LINE
8
BLACK
6
CONTINUOUS
10
3.09431
20
-2.01554
11
3.09502
21
-2.01607
0
LINE
8
BLACK
6
CONTINUOUS
10
3.09502
20
-2.01607
11
3.09508
21
-2.0161
0
LINE
8
BLACK
6
CONTINUOUS
10
3.09508
20
-2.0161
11
3.09883
21
-2.01985
0
LINE
8
BLACK
6
CONTINUOUS
10
3.09883
20
-2.01985
11
3.09942
21
-2.02069
0
LINE
8
BLACK
6
CONTINUOUS
10
3.09942
20
-2.02069
11
3.09943
21
-2.02086
0
LINE
8
BLACK
6
CONTINUOUS
10
3.09943
20
-2.02086
11
3.09954
21
-2.021
0
LINE
8
BLACK
6
CONTINUOUS
10
3.09954
20
-2.021
11
3.10142
21
-2.02663
0
LINE
8
BLACK
6
CONTINUOUS
10
3.10142
20
-2.02663
11
3.10155
21
-2.0275
0
LINE
8
BLACK
6
CONTINUOUS
10
3.10155
20
-2.0275
11
3.10157
21
-2.02756
0
LINE
8
BLACK
6
CONTINUOUS
10
3.10157
20
-2.02756
11
3.10157
21
-2.03693
0
LINE
8
BLACK
6
CONTINUOUS
10
3.10157
20
-2.03693
11
3.1015
21
-2.03732
0
LINE
8
BLACK
6
CONTINUOUS
10
3.1015
20
-2.03732
11
3.10152
21
-2.03745
0
LINE
8
BLACK
6
CONTINUOUS
10
3.10152
20
-2.03745
11
3.10146
21
-2.03756
0
LINE
8
BLACK
6
CONTINUOUS
10
3.10146
20
-2.03756
11
3.10139
21
-2.03794
0
LINE
8
BLACK
6
CONTINUOUS
10
3.10139
20
-2.03794
11
3.1009
21
-2.03853
0
LINE
8
BLACK
6
CONTINUOUS
10
3.1009
20
-2.03853
11
3.10051
21
-2.03919
0
LINE
8
BLACK
6
CONTINUOUS
10
3.10051
20
-2.03919
11
3.10026
21
-2.03929
0
LINE
8
BLACK
6
CONTINUOUS
10
3.10026
20
-2.03929
11
3.10009
21
-2.03949
0
LINE
8
BLACK
6
CONTINUOUS
10
3.10009
20
-2.03949
11
3.09934
21
-2.03962
0
LINE
8
BLACK
6
CONTINUOUS
10
3.09934
20
-2.03962
11
3.09861
21
-2.03989
0
LINE
8
BLACK
6
CONTINUOUS
10
3.09861
20
-2.03989
11
3.05924
21
-2.03989
0
LINE
8
BLACK
6
CONTINUOUS
10
3.05924
20
-2.03989
11
3.05886
21
-2.03982
0
LINE
8
BLACK
6
CONTINUOUS
10
3.05886
20
-2.03982
11
3.05873
21
-2.03984
0
LINE
8
BLACK
6
CONTINUOUS
10
3.05873
20
-2.03984
11
3.05862
21
-2.03978
0
LINE
8
BLACK
6
CONTINUOUS
10
3.05862
20
-2.03978
11
3.05823
21
-2.03971
0
LINE
8
BLACK
6
CONTINUOUS
10
3.05823
20
-2.03971
11
3.05765
21
-2.03921
0
LINE
8
BLACK
6
CONTINUOUS
10
3.05765
20
-2.03921
11
3.05698
21
-2.03883
0
LINE
8
BLACK
6
CONTINUOUS
10
3.05698
20
-2.03883
11
3.05689
21
-2.03858
0
LINE
8
BLACK
6
CONTINUOUS
10
3.05689
20
-2.03858
11
3.05669
21
-2.03841
0
LINE
8
BLACK
6
CONTINUOUS
10
3.05669
20
-2.03841
11
3.05655
21
-2.03765
0
LINE
8
BLACK
6
CONTINUOUS
10
3.05655
20
-2.03765
11
3.05629
21
-2.03693
0
LINE
8
BLACK
6
CONTINUOUS
10
3.05629
20
-2.03693
11
3.05629
21
-2.02756
0
LINE
8
BLACK
6
CONTINUOUS
10
3.05629
20
-2.02756
11
3.05645
21
-2.02669
0
LINE
8
BLACK
6
CONTINUOUS
10
3.05645
20
-2.02669
11
3.05644
21
-2.02663
0
LINE
8
BLACK
6
CONTINUOUS
10
3.05644
20
-2.02663
11
3.05832
21
-2.021
0
LINE
8
BLACK
6
CONTINUOUS
10
3.05832
20
-2.021
11
3.05881
21
-2.0201
0
LINE
8
BLACK
6
CONTINUOUS
10
3.05881
20
-2.0201
11
3.05896
21
-2.02001
0
LINE
8
BLACK
6
CONTINUOUS
10
3.05896
20
-2.02001
11
3.05903
21
-2.01985
0
LINE
8
BLACK
6
CONTINUOUS
10
3.05903
20
-2.01985
11
3.06278
21
-2.0161
0
LINE
8
BLACK
6
CONTINUOUS
10
3.06278
20
-2.0161
11
3.0635
21
-2.01559
0
LINE
8
BLACK
6
CONTINUOUS
10
3.0635
20
-2.01559
11
3.06355
21
-2.01554
0
LINE
8
BLACK
6
CONTINUOUS
10
3.06355
20
-2.01554
11
3.0673
21
-2.01367
0
LINE
8
BLACK
6
CONTINUOUS
10
3.0673
20
-2.01367
11
3.06779
21
-2.01352
0
LINE
8
BLACK
6
CONTINUOUS
10
3.06779
20
-2.01352
11
3.0679
21
-2.01345
0
LINE
8
BLACK
6
CONTINUOUS
10
3.0679
20
-2.01345
11
3.0754
21
-2.01157
0
LINE
8
BLACK
6
CONTINUOUS
10
3.0754
20
-2.01157
11
3.07599
21
-2.01153
0
LINE
8
BLACK
6
CONTINUOUS
10
3.07599
20
-2.01153
11
3.07612
21
-2.01148
0
LINE
8
BLACK
6
CONTINUOUS
10
3.07612
20
-2.01148
11
3.08174
21
-2.01148
0
LINE
8
BLACK
6
CONTINUOUS
10
3.08174
20
-2.01148
11
3.08232
21
-2.01159
0
LINE
8
BLACK
6
CONTINUOUS
10
3.06965
20
-2.0191
11
3.06662
21
-2.02061
0
LINE
8
BLACK
6
CONTINUOUS
10
3.06662
20
-2.02061
11
3.0637
21
-2.02353
0
LINE
8
BLACK
6
CONTINUOUS
10
3.0637
20
-2.02353
11
3.0622
21
-2.02804
0
LINE
8
BLACK
6
CONTINUOUS
10
3.0622
20
-2.02804
11
3.0622
21
-2.03398
0
LINE
8
BLACK
6
CONTINUOUS
10
3.0622
20
-2.03398
11
3.09566
21
-2.03398
0
LINE
8
BLACK
6
CONTINUOUS
10
3.09566
20
-2.03398
11
3.09566
21
-2.02804
0
LINE
8
BLACK
6
CONTINUOUS
10
3.09566
20
-2.02804
11
3.09416
21
-2.02353
0
LINE
8
BLACK
6
CONTINUOUS
10
3.09416
20
-2.02353
11
3.09124
21
-2.02061
0
LINE
8
BLACK
6
CONTINUOUS
10
3.09124
20
-2.02061
11
3.08821
21
-2.0191
0
LINE
8
BLACK
6
CONTINUOUS
10
3.08821
20
-2.0191
11
3.08138
21
-2.01739
0
LINE
8
BLACK
6
CONTINUOUS
10
3.08138
20
-2.01739
11
3.07648
21
-2.01739
0
LINE
8
BLACK
6
CONTINUOUS
10
3.07648
20
-2.01739
11
3.06965
21
-2.0191
0
LINE
8
BLACK
6
CONTINUOUS
10
3.31551
20
-2.00793
11
3.33767
21
-2.02072
0
LINE
8
BLACK
6
CONTINUOUS
10
3.33767
20
-2.02072
11
3.33859
21
-2.02192
0
LINE
8
BLACK
6
CONTINUOUS
10
3.33859
20
-2.02192
11
3.33839
21
-2.02341
0
LINE
8
BLACK
6
CONTINUOUS
10
3.33839
20
-2.02341
11
3.33719
21
-2.02433
0
LINE
8
BLACK
6
CONTINUOUS
10
3.33719
20
-2.02433
11
3.3357
21
-2.02413
0
LINE
8
BLACK
6
CONTINUOUS
10
3.3357
20
-2.02413
11
3.31524
21
-2.01232
0
LINE
8
BLACK
6
CONTINUOUS
10
3.31524
20
-2.01232
11
3.30343
21
-2.03278
0
LINE
8
BLACK
6
CONTINUOUS
10
3.30343
20
-2.03278
11
3.30224
21
-2.0337
0
LINE
8
BLACK
6
CONTINUOUS
10
3.30224
20
-2.0337
11
3.30074
21
-2.0335
0
LINE
8
BLACK
6
CONTINUOUS
10
3.30074
20
-2.0335
11
3.29983
21
-2.0323
0
LINE
8
BLACK
6
CONTINUOUS
10
3.29983
20
-2.0323
11
3.30002
21
-2.03081
0
LINE
8
BLACK
6
CONTINUOUS
10
3.30002
20
-2.03081
11
3.31282
21
-2.00865
0
LINE
8
BLACK
6
CONTINUOUS
10
3.31282
20
-2.00865
11
3.31401
21
-2.00773
0
LINE
8
BLACK
6
CONTINUOUS
10
3.31401
20
-2.00773
11
3.31551
21
-2.00793
0
LINE
8
BLACK
6
CONTINUOUS
10
3.26473
20
-1.98069
11
3.26551
21
-1.98085
0
LINE
8
BLACK
6
CONTINUOUS
10
3.26551
20
-1.98085
11
3.26566
21
-1.98103
0
LINE
8
BLACK
6
CONTINUOUS
10
3.26566
20
-1.98103
11
3.26588
21
-1.98111
0
LINE
8
BLACK
6
CONTINUOUS
10
3.26588
20
-1.98111
11
3.26628
21
-1.9818
0
LINE
8
BLACK
6
CONTINUOUS
10
3.26628
20
-1.9818
11
3.26678
21
-1.98242
0
LINE
8
BLACK
6
CONTINUOUS
10
3.26678
20
-1.98242
11
3.27116
21
-1.9953
0
LINE
8
BLACK
6
CONTINUOUS
10
3.27116
20
-1.9953
11
3.27132
21
-1.99511
0
LINE
8
BLACK
6
CONTINUOUS
10
3.27132
20
-1.99511
11
3.27149
21
-1.99505
0
LINE
8
BLACK
6
CONTINUOUS
10
3.27149
20
-1.99505
11
3.2716
21
-1.9949
0
LINE
8
BLACK
6
CONTINUOUS
10
3.2716
20
-1.9949
11
3.27509
21
-1.99259
0
LINE
8
BLACK
6
CONTINUOUS
10
3.27509
20
-1.99259
11
3.2759
21
-1.99224
0
LINE
8
BLACK
6
CONTINUOUS
10
3.2759
20
-1.99224
11
3.27596
21
-1.99221
0
LINE
8
BLACK
6
CONTINUOUS
10
3.27596
20
-1.99221
11
3.27852
21
-1.99152
0
LINE
8
BLACK
6
CONTINUOUS
10
3.27852
20
-1.99152
11
3.2794
21
-1.99144
0
LINE
8
BLACK
6
CONTINUOUS
10
3.2794
20
-1.99144
11
3.27946
21
-1.99143
0
LINE
8
BLACK
6
CONTINUOUS
10
3.27946
20
-1.99143
11
3.28364
21
-1.99168
0
LINE
8
BLACK
6
CONTINUOUS
10
3.28364
20
-1.99168
11
3.28464
21
-1.99191
0
LINE
8
BLACK
6
CONTINUOUS
10
3.28464
20
-1.99191
11
3.28477
21
-1.99204
0
LINE
8
BLACK
6
CONTINUOUS
10
3.28477
20
-1.99204
11
3.28494
21
-1.99207
0
LINE
8
BLACK
6
CONTINUOUS
10
3.28494
20
-1.99207
11
3.29306
21
-1.99675
0
LINE
8
BLACK
6
CONTINUOUS
10
3.29306
20
-1.99675
11
3.29385
21
-1.99741
0
LINE
8
BLACK
6
CONTINUOUS
10
3.29385
20
-1.99741
11
3.29391
21
-1.99758
0
LINE
8
BLACK
6
CONTINUOUS
10
3.29391
20
-1.99758
11
3.29405
21
-1.99768
0
LINE
8
BLACK
6
CONTINUOUS
10
3.29405
20
-1.99768
11
3.29636
21
-2.00118
0
LINE
8
BLACK
6
CONTINUOUS
10
3.29636
20
-2.00118
11
3.29671
21
-2.00199
0
LINE
8
BLACK
6
CONTINUOUS
10
3.29671
20
-2.00199
11
3.29675
21
-2.00204
0
LINE
8
BLACK
6
CONTINUOUS
10
3.29675
20
-2.00204
11
3.29743
21
-2.00461
0
LINE
8
BLACK
6
CONTINUOUS
10
3.29743
20
-2.00461
11
3.29751
21
-2.00549
0
LINE
8
BLACK
6
CONTINUOUS
10
3.29751
20
-2.00549
11
3.29753
21
-2.00555
0
LINE
8
BLACK
6
CONTINUOUS
10
3.29753
20
-2.00555
11
3.29728
21
-2.00973
0
LINE
8
BLACK
6
CONTINUOUS
10
3.29728
20
-2.00973
11
3.29704
21
-2.01073
0
LINE
8
BLACK
6
CONTINUOUS
10
3.29704
20
-2.01073
11
3.29692
21
-2.01086
0
LINE
8
BLACK
6
CONTINUOUS
10
3.29692
20
-2.01086
11
3.29689
21
-2.01103
0
LINE
8
BLACK
6
CONTINUOUS
10
3.29689
20
-2.01103
11
3.29126
21
-2.02077
0
LINE
8
BLACK
6
CONTINUOUS
10
3.29126
20
-2.02077
11
3.2906
21
-2.02156
0
LINE
8
BLACK
6
CONTINUOUS
10
3.2906
20
-2.02156
11
3.29044
21
-2.02162
0
LINE
8
BLACK
6
CONTINUOUS
10
3.29044
20
-2.02162
11
3.29033
21
-2.02176
0
LINE
8
BLACK
6
CONTINUOUS
10
3.29033
20
-2.02176
11
3.28683
21
-2.02407
0
LINE
8
BLACK
6
CONTINUOUS
10
3.28683
20
-2.02407
11
3.28602
21
-2.02442
0
LINE
8
BLACK
6
CONTINUOUS
10
3.28602
20
-2.02442
11
3.28597
21
-2.02446
0
LINE
8
BLACK
6
CONTINUOUS
10
3.28597
20
-2.02446
11
3.28341
21
-2.02514
0
LINE
8
BLACK
6
CONTINUOUS
10
3.28341
20
-2.02514
11
3.28239
21
-2.02523
0
LINE
8
BLACK
6
CONTINUOUS
10
3.28239
20
-2.02523
11
3.28056
21
-2.02438
0
LINE
8
BLACK
6
CONTINUOUS
10
3.28056
20
-2.02438
11
3.2797
21
-2.02255
0
LINE
8
BLACK
6
CONTINUOUS
10
3.2797
20
-2.02255
11
3.28023
21
-2.0206
0
LINE
8
BLACK
6
CONTINUOUS
10
3.28023
20
-2.0206
11
3.28188
21
-2.01944
0
LINE
8
BLACK
6
CONTINUOUS
10
3.28188
20
-2.01944
11
3.28398
21
-2.01888
0
LINE
8
BLACK
6
CONTINUOUS
10
3.28398
20
-2.01888
11
3.2865
21
-2.01722
0
LINE
8
BLACK
6
CONTINUOUS
10
3.2865
20
-2.01722
11
3.29142
21
-2.00868
0
LINE
8
BLACK
6
CONTINUOUS
10
3.29142
20
-2.00868
11
3.2916
21
-2.00567
0
LINE
8
BLACK
6
CONTINUOUS
10
3.2916
20
-2.00567
11
3.29117
21
-2.00404
0
LINE
8
BLACK
6
CONTINUOUS
10
3.29117
20
-2.00404
11
3.2895
21
-2.00152
0
LINE
8
BLACK
6
CONTINUOUS
10
3.2895
20
-2.00152
11
3.28259
21
-1.99753
0
LINE
8
BLACK
6
CONTINUOUS
10
3.28259
20
-1.99753
11
3.27958
21
-1.99735
0
LINE
8
BLACK
6
CONTINUOUS
10
3.27958
20
-1.99735
11
3.27795
21
-1.99779
0
LINE
8
BLACK
6
CONTINUOUS
10
3.27795
20
-1.99779
11
3.27543
21
-1.99945
0
LINE
8
BLACK
6
CONTINUOUS
10
3.27543
20
-1.99945
11
3.27297
21
-2.00372
0
LINE
8
BLACK
6
CONTINUOUS
10
3.27297
20
-2.00372
11
3.27268
21
-2.00406
0
LINE
8
BLACK
6
CONTINUOUS
10
3.27268
20
-2.00406
11
3.27263
21
-2.00418
0
LINE
8
BLACK
6
CONTINUOUS
10
3.27263
20
-2.00418
11
3.27253
21
-2.00424
0
LINE
8
BLACK
6
CONTINUOUS
10
3.27253
20
-2.00424
11
3.27231
21
-2.0045
0
LINE
8
BLACK
6
CONTINUOUS
10
3.27231
20
-2.0045
11
3.27156
21
-2.00477
0
LINE
8
BLACK
6
CONTINUOUS
10
3.27156
20
-2.00477
11
3.27086
21
-2.00516
0
LINE
8
BLACK
6
CONTINUOUS
10
3.27086
20
-2.00516
11
3.27063
21
-2.00511
0
LINE
8
BLACK
6
CONTINUOUS
10
3.27063
20
-2.00511
11
3.27041
21
-2.00519
0
LINE
8
BLACK
6
CONTINUOUS
10
3.27041
20
-2.00519
11
3.26966
21
-2.00492
0
LINE
8
BLACK
6
CONTINUOUS
10
3.26966
20
-2.00492
11
3.26888
21
-2.00477
0
LINE
8
BLACK
6
CONTINUOUS
10
3.26888
20
-2.00477
11
3.26873
21
-2.00458
0
LINE
8
BLACK
6
CONTINUOUS
10
3.26873
20
-2.00458
11
3.26851
21
-2.0045
0
LINE
8
BLACK
6
CONTINUOUS
10
3.26851
20
-2.0045
11
3.26811
21
-2.00381
0
LINE
8
BLACK
6
CONTINUOUS
10
3.26811
20
-2.00381
11
3.26762
21
-2.00319
0
LINE
8
BLACK
6
CONTINUOUS
10
3.26762
20
-2.00319
11
3.26329
21
-1.99049
0
LINE
8
BLACK
6
CONTINUOUS
10
3.26329
20
-1.99049
11
3.25435
21
-2.00596
0
LINE
8
BLACK
6
CONTINUOUS
10
3.25435
20
-2.00596
11
3.2537
21
-2.00674
0
LINE
8
BLACK
6
CONTINUOUS
10
3.2537
20
-2.00674
11
3.2518
21
-2.00743
0
LINE
8
BLACK
6
CONTINUOUS
10
3.2518
20
-2.00743
11
3.2499
21
-2.00674
0
LINE
8
BLACK
6
CONTINUOUS
10
3.2499
20
-2.00674
11
3.24889
21
-2.00499
0
LINE
8
BLACK
6
CONTINUOUS
10
3.24889
20
-2.00499
11
3.24924
21
-2.00301
0
LINE
8
BLACK
6
CONTINUOUS
10
3.24924
20
-2.00301
11
3.26143
21
-1.9819
0
LINE
8
BLACK
6
CONTINUOUS
10
3.26143
20
-1.9819
11
3.26171
21
-1.98156
0
LINE
8
BLACK
6
CONTINUOUS
10
3.26171
20
-1.98156
11
3.26176
21
-1.98143
0
LINE
8
BLACK
6
CONTINUOUS
10
3.26176
20
-1.98143
11
3.26187
21
-1.98137
0
LINE
8
BLACK
6
CONTINUOUS
10
3.26187
20
-1.98137
11
3.26209
21
-1.98111
0
LINE
8
BLACK
6
CONTINUOUS
10
3.26209
20
-1.98111
11
3.26283
21
-1.98084
0
LINE
8
BLACK
6
CONTINUOUS
10
3.26283
20
-1.98084
11
3.26353
21
-1.98046
0
LINE
8
BLACK
6
CONTINUOUS
10
3.26353
20
-1.98046
11
3.26376
21
-1.9805
0
LINE
8
BLACK
6
CONTINUOUS
10
3.26376
20
-1.9805
11
3.26398
21
-1.98042
0
LINE
8
BLACK
6
CONTINUOUS
10
3.26398
20
-1.98042
11
3.26473
21
-1.98069
0
LINE
8
BLACK
6
CONTINUOUS
10
3.08775
20
-1.97317
11
3.08844
21
-1.97507
0
LINE
8
BLACK
6
CONTINUOUS
10
3.08844
20
-1.97507
11
3.08844
21
-1.97774
0
LINE
8
BLACK
6
CONTINUOUS
10
3.08844
20
-1.97774
11
3.09861
21
-1.97774
0
LINE
8
BLACK
6
CONTINUOUS
10
3.09861
20
-1.97774
11
3.09962
21
-1.97792
0
LINE
8
BLACK
6
CONTINUOUS
10
3.09962
20
-1.97792
11
3.10117
21
-1.97921
0
LINE
8
BLACK
6
CONTINUOUS
10
3.10117
20
-1.97921
11
3.10152
21
-1.9812
0
LINE
8
BLACK
6
CONTINUOUS
10
3.10152
20
-1.9812
11
3.10051
21
-1.98295
0
LINE
8
BLACK
6
CONTINUOUS
10
3.10051
20
-1.98295
11
3.09861
21
-1.98364
0
LINE
8
BLACK
6
CONTINUOUS
10
3.09861
20
-1.98364
11
3.08844
21
-1.98364
0
LINE
8
BLACK
6
CONTINUOUS
10
3.08844
20
-1.98364
11
3.08844
21
-1.99944
0
LINE
8
BLACK
6
CONTINUOUS
10
3.08844
20
-1.99944
11
3.08827
21
-2.00045
0
LINE
8
BLACK
6
CONTINUOUS
10
3.08827
20
-2.00045
11
3.08812
21
-2.00062
0
LINE
8
BLACK
6
CONTINUOUS
10
3.08812
20
-2.00062
11
3.08809
21
-2.00084
0
LINE
8
BLACK
6
CONTINUOUS
10
3.08809
20
-2.00084
11
3.08749
21
-2.00138
0
LINE
8
BLACK
6
CONTINUOUS
10
3.08749
20
-2.00138
11
3.08697
21
-2.00199
0
LINE
8
BLACK
6
CONTINUOUS
10
3.08697
20
-2.00199
11
3.08675
21
-2.00203
0
LINE
8
BLACK
6
CONTINUOUS
10
3.08675
20
-2.00203
11
3.08658
21
-2.00218
0
LINE
8
BLACK
6
CONTINUOUS
10
3.08658
20
-2.00218
11
3.08577
21
-2.00221
0
LINE
8
BLACK
6
CONTINUOUS
10
3.08577
20
-2.00221
11
3.08498
21
-2.00235
0
LINE
8
BLACK
6
CONTINUOUS
10
3.08498
20
-2.00235
11
3.08478
21
-2.00223
0
LINE
8
BLACK
6
CONTINUOUS
10
3.08478
20
-2.00223
11
3.08456
21
-2.00224
0
LINE
8
BLACK
6
CONTINUOUS
10
3.08456
20
-2.00224
11
3.05644
21
-1.99286
0
LINE
8
BLACK
6
CONTINUOUS
10
3.05644
20
-1.99286
11
3.05553
21
-1.99238
0
LINE
8
BLACK
6
CONTINUOUS
10
3.05553
20
-1.99238
11
3.05448
21
-1.99066
0
LINE
8
BLACK
6
CONTINUOUS
10
3.05448
20
-1.99066
11
3.05477
21
-1.98866
0
LINE
8
BLACK
6
CONTINUOUS
10
3.05477
20
-1.98866
11
3.05628
21
-1.98732
0
LINE
8
BLACK
6
CONTINUOUS
10
3.05628
20
-1.98732
11
3.0583
21
-1.98726
0
LINE
8
BLACK
6
CONTINUOUS
10
3.0583
20
-1.98726
11
3.08254
21
-1.99534
0
LINE
8
BLACK
6
CONTINUOUS
10
3.08254
20
-1.99534
11
3.08254
21
-1.98364
0
LINE
8
BLACK
6
CONTINUOUS
10
3.08254
20
-1.98364
11
3.07237
21
-1.98364
0
LINE
8
BLACK
6
CONTINUOUS
10
3.07237
20
-1.98364
11
3.07136
21
-1.98346
0
LINE
8
BLACK
6
CONTINUOUS
10
3.07136
20
-1.98346
11
3.06981
21
-1.98217
0
LINE
8
BLACK
6
CONTINUOUS
10
3.06981
20
-1.98217
11
3.06946
21
-1.98018
0
LINE
8
BLACK
6
CONTINUOUS
10
3.06946
20
-1.98018
11
3.07047
21
-1.97843
0
LINE
8
BLACK
6
CONTINUOUS
10
3.07047
20
-1.97843
11
3.07237
21
-1.97774
0
LINE
8
BLACK
6
CONTINUOUS
10
3.07237
20
-1.97774
11
3.08254
21
-1.97774
0
LINE
8
BLACK
6
CONTINUOUS
10
3.08254
20
-1.97774
11
3.08254
21
-1.97507
0
LINE
8
BLACK
6
CONTINUOUS
10
3.08254
20
-1.97507
11
3.08272
21
-1.97406
0
LINE
8
BLACK
6
CONTINUOUS
10
3.08272
20
-1.97406
11
3.08402
21
-1.97251
0
LINE
8
BLACK
6
CONTINUOUS
10
3.08402
20
-1.97251
11
3.086
21
-1.97216
0
LINE
8
BLACK
6
CONTINUOUS
10
3.086
20
-1.97216
11
3.08775
21
-1.97317
0
LINE
8
BLACK
6
CONTINUOUS
10
3.14312
20
-1.97302
11
3.1437
21
-1.97441
0
LINE
8
BLACK
6
CONTINUOUS
10
3.1437
20
-1.97441
11
3.14312
21
-1.9758
0
LINE
8
BLACK
6
CONTINUOUS
10
3.14312
20
-1.9758
11
3.14173
21
-1.97638
0
LINE
8
BLACK
6
CONTINUOUS
10
3.14173
20
-1.97638
11
3.11811
21
-1.97638
0
LINE
8
BLACK
6
CONTINUOUS
10
3.11811
20
-1.97638
11
3.11811
21
-2
0
LINE
8
BLACK
6
CONTINUOUS
10
3.11811
20
-2
11
3.11753
21
-2.00139
0
LINE
8
BLACK
6
CONTINUOUS
10
3.11753
20
-2.00139
11
3.11614
21
-2.00197
0
LINE
8
BLACK
6
CONTINUOUS
10
3.11614
20
-2.00197
11
3.11475
21
-2.00139
0
LINE
8
BLACK
6
CONTINUOUS
10
3.11475
20
-2.00139
11
3.11417
21
-2
0
LINE
8
BLACK
6
CONTINUOUS
10
3.11417
20
-2
11
3.11417
21
-1.97441
0
LINE
8
BLACK
6
CONTINUOUS
10
3.11417
20
-1.97441
11
3.11475
21
-1.97302
0
LINE
8
BLACK
6
CONTINUOUS
10
3.11475
20
-1.97302
11
3.11614
21
-1.97244
0
LINE
8
BLACK
6
CONTINUOUS
10
3.11614
20
-1.97244
11
3.14173
21
-1.97244
0
LINE
8
BLACK
6
CONTINUOUS
10
3.14173
20
-1.97244
11
3.14312
21
-1.97302
  0
ENDSEC
  0
EOF
