  0
SECTION
  2
HEADER
  9
$ANGBASE
  50
0.0
  9
$ANGDIR
  70
1
  9
$MEASUREMENT
  70
0
  0
ENDSEC
  0
SECTION
  2
TABLES
  0
TABLE
  2
LTYPE
  70
4
  0
LTYPE
  5
40F
  2
CONTINUOUS
  70
0
  3
Solid line
  72
65
  73
0
  40
0.0
  0
LTYPE
  5
410
  2
DASHDOT
 70
0
  3
Dash Dot ____ _ ____ _
 72
65
 73
4
 40
2.0
 49
1.25
 49
-0.25
 49
0.25
 49
-0.25
  0
LTYPE
  5
411
  2
DASHED
 70
0
  3
Dashed __ __ __ __ __
 72
65
 73
2
 40
0.75
 49
0.5
 49
-0.25
  0
LTYPE
  5
43B
  2
DOTTED
 70
0
  3
Dotted .  .  .  .
 72
65
 73
2
 40
0.2
 49
0.0
 49
-0.2
  0
ENDTAB
  0
TABLE
  2
STYLE
  70
4
  0
STYLE
  2
KICAD
  70
0
  40
0
  41
1
  42
1
  50
0
  71
0
  3
isocp.shx
  0
STYLE
  2
KICADB
  70
0
  40
0
  41
1
  42
1
  50
0
  71
0
  3
isocp.shx
  0
STYLE
  2
KICADI
  70
0
  40
0
  41
1
  42
1
  50
15
  71
0
  3
isocp.shx
  0
STYLE
  2
KICADBI
  70
0
  40
0
  41
1
  42
1
  50
15
  71
0
  3
isocp.shx
  0
ENDTAB
  0
TABLE
  2
LAYER
  70
1
  0
LAYER
  2
BLACK
  70
0
  62
7
  6
CONTINUOUS
  0
ENDTAB
  0
ENDSEC
  0
SECTION
  2
ENTITIES
0
LINE
8
BLACK
6
CONTINUOUS
10
3.52165
20
-2.34633
11
3.52167
21
-2.34658
0
LINE
8
BLACK
6
CONTINUOUS
10
3.52167
20
-2.34658
11
3.52207
21
-2.3505
0
LINE
8
BLACK
6
CONTINUOUS
10
3.52207
20
-2.3505
11
3.52424
21
-2.35705
0
LINE
8
BLACK
6
CONTINUOUS
10
3.52424
20
-2.35705
11
3.52786
21
-2.36293
0
LINE
8
BLACK
6
CONTINUOUS
10
3.52786
20
-2.36293
11
3.53274
21
-2.36781
0
LINE
8
BLACK
6
CONTINUOUS
10
3.53274
20
-2.36781
11
3.53862
21
-2.37143
0
LINE
8
BLACK
6
CONTINUOUS
10
3.53862
20
-2.37143
11
3.54517
21
-2.3736
0
LINE
8
BLACK
6
CONTINUOUS
10
3.54517
20
-2.3736
11
3.54909
21
-2.374
0
LINE
8
BLACK
6
CONTINUOUS
10
3.54909
20
-2.374
11
3.54934
21
-2.37402
0
LINE
8
BLACK
6
CONTINUOUS
10
3.54934
20
-2.37402
11
3.58612
21
-2.37402
0
LINE
8
BLACK
6
CONTINUOUS
10
3.58612
20
-2.37402
11
3.58612
21
-2.37402
0
LINE
8
BLACK
6
CONTINUOUS
10
3.58612
20
-2.37402
11
3.58612
21
-2.35433
0
LINE
8
BLACK
6
CONTINUOUS
10
3.58612
20
-2.35433
11
3.55118
21
-2.35433
0
LINE
8
BLACK
6
CONTINUOUS
10
3.55118
20
-2.35433
11
3.54741
21
-2.35358
0
LINE
8
BLACK
6
CONTINUOUS
10
3.54741
20
-2.35358
11
3.54422
21
-2.35145
0
LINE
8
BLACK
6
CONTINUOUS
10
3.54422
20
-2.35145
11
3.54209
21
-2.34825
0
LINE
8
BLACK
6
CONTINUOUS
10
3.54209
20
-2.34825
11
3.54134
21
-2.34449
0
LINE
8
BLACK
6
CONTINUOUS
10
3.54134
20
-2.34449
11
3.54134
21
-2.33268
0
LINE
8
BLACK
6
CONTINUOUS
10
3.54134
20
-2.33268
11
3.52165
21
-2.33268
0
LINE
8
BLACK
6
CONTINUOUS
10
3.52165
20
-2.33268
11
3.52165
21
-2.34633
0
LINE
8
BLACK
6
CONTINUOUS
10
3.74409
20
-2.56791
11
3.74409
21
-2.51575
0
LINE
8
BLACK
6
CONTINUOUS
10
3.74409
20
-2.51575
11
3.75394
21
-2.51575
0
LINE
8
BLACK
6
CONTINUOUS
10
3.75394
20
-2.51575
11
3.75394
21
-2.49606
0
LINE
8
BLACK
6
CONTINUOUS
10
3.75394
20
-2.49606
11
3.74234
21
-2.49606
0
LINE
8
BLACK
6
CONTINUOUS
10
3.74234
20
-2.49606
11
3.74208
21
-2.49608
0
LINE
8
BLACK
6
CONTINUOUS
10
3.74208
20
-2.49608
11
3.73987
21
-2.49631
0
LINE
8
BLACK
6
CONTINUOUS
10
3.73987
20
-2.49631
11
3.73456
21
-2.49829
0
LINE
8
BLACK
6
CONTINUOUS
10
3.73456
20
-2.49829
11
3.73003
21
-2.50169
0
LINE
8
BLACK
6
CONTINUOUS
10
3.73003
20
-2.50169
11
3.72664
21
-2.50622
0
LINE
8
BLACK
6
CONTINUOUS
10
3.72664
20
-2.50622
11
3.72466
21
-2.51152
0
LINE
8
BLACK
6
CONTINUOUS
10
3.72466
20
-2.51152
11
3.72442
21
-2.51373
0
LINE
8
BLACK
6
CONTINUOUS
10
3.72442
20
-2.51373
11
3.72441
21
-2.514
0
LINE
8
BLACK
6
CONTINUOUS
10
3.72441
20
-2.514
11
3.72441
21
-2.56791
0
LINE
8
BLACK
6
CONTINUOUS
10
3.72441
20
-2.56791
11
3.74409
21
-2.56791
0
LINE
8
BLACK
6
CONTINUOUS
10
3.97659
20
-1.81106
11
3.97817
21
-1.8112
0
LINE
8
BLACK
6
CONTINUOUS
10
3.97817
20
-1.8112
11
3.98314
21
-1.81169
0
LINE
8
BLACK
6
CONTINUOUS
10
3.98314
20
-1.81169
11
3.98392
21
-1.81183
0
LINE
8
BLACK
6
CONTINUOUS
10
3.98392
20
-1.81183
11
3.98648
21
-1.81252
0
LINE
8
BLACK
6
CONTINUOUS
10
3.98648
20
-1.81252
11
3.98662
21
-1.81256
0
LINE
8
BLACK
6
CONTINUOUS
10
3.98662
20
-1.81256
11
3.99022
21
-1.81365
0
LINE
8
BLACK
6
CONTINUOUS
10
3.99022
20
-1.81365
11
3.99086
21
-1.8139
0
LINE
8
BLACK
6
CONTINUOUS
10
3.99086
20
-1.8139
11
3.99346
21
-1.81511
0
LINE
8
BLACK
6
CONTINUOUS
10
3.99346
20
-1.81511
11
3.9937
21
-1.81522
0
LINE
8
BLACK
6
CONTINUOUS
10
3.9937
20
-1.81522
11
3.99538
21
-1.81612
0
LINE
8
BLACK
6
CONTINUOUS
10
3.99538
20
-1.81612
11
3.99681
21
-1.81689
0
LINE
8
BLACK
6
CONTINUOUS
10
3.99681
20
-1.81689
11
3.99731
21
-1.8172
0
LINE
8
BLACK
6
CONTINUOUS
10
3.99731
20
-1.8172
11
3.99972
21
-1.81888
0
LINE
8
BLACK
6
CONTINUOUS
10
3.99972
20
-1.81888
11
4.00002
21
-1.81911
0
LINE
8
BLACK
6
CONTINUOUS
10
4.00002
20
-1.81911
11
4.0027
21
-1.82131
0
LINE
8
BLACK
6
CONTINUOUS
10
4.0027
20
-1.82131
11
4.00305
21
-1.82163
0
LINE
8
BLACK
6
CONTINUOUS
10
4.00305
20
-1.82163
11
4.00514
21
-1.82372
0
LINE
8
BLACK
6
CONTINUOUS
10
4.00514
20
-1.82372
11
4.00547
21
-1.82408
0
LINE
8
BLACK
6
CONTINUOUS
10
4.00547
20
-1.82408
11
4.00766
21
-1.82675
0
LINE
8
BLACK
6
CONTINUOUS
10
4.00766
20
-1.82675
11
4.00789
21
-1.82705
0
LINE
8
BLACK
6
CONTINUOUS
10
4.00789
20
-1.82705
11
4.00958
21
-1.82946
0
LINE
8
BLACK
6
CONTINUOUS
10
4.00958
20
-1.82946
11
4.00988
21
-1.82996
0
LINE
8
BLACK
6
CONTINUOUS
10
4.00988
20
-1.82996
11
4.01155
21
-1.83308
0
LINE
8
BLACK
6
CONTINUOUS
10
4.01155
20
-1.83308
11
4.01167
21
-1.83331
0
LINE
8
BLACK
6
CONTINUOUS
10
4.01167
20
-1.83331
11
4.01185
21
-1.8337
0
LINE
8
BLACK
6
CONTINUOUS
10
4.01185
20
-1.8337
11
4.01288
21
-1.83591
0
LINE
8
BLACK
6
CONTINUOUS
10
4.01288
20
-1.83591
11
4.01312
21
-1.83655
0
LINE
8
BLACK
6
CONTINUOUS
10
4.01312
20
-1.83655
11
4.01421
21
-1.84015
0
LINE
8
BLACK
6
CONTINUOUS
10
4.01421
20
-1.84015
11
4.01426
21
-1.8403
0
LINE
8
BLACK
6
CONTINUOUS
10
4.01426
20
-1.8403
11
4.01494
21
-1.84285
0
LINE
8
BLACK
6
CONTINUOUS
10
4.01494
20
-1.84285
11
4.01508
21
-1.84363
0
LINE
8
BLACK
6
CONTINUOUS
10
4.01508
20
-1.84363
11
4.01557
21
-1.8486
0
LINE
8
BLACK
6
CONTINUOUS
10
4.01557
20
-1.8486
11
4.01564
21
-1.84936
0
LINE
8
BLACK
6
CONTINUOUS
10
4.01564
20
-1.84936
11
4.01571
21
-1.85018
0
LINE
8
BLACK
6
CONTINUOUS
10
4.01571
20
-1.85018
11
4.01573
21
-1.85061
0
LINE
8
BLACK
6
CONTINUOUS
10
4.01573
20
-1.85061
11
4.01573
21
-2.8738
0
LINE
8
BLACK
6
CONTINUOUS
10
4.01573
20
-2.8738
11
4.01571
21
-2.87423
0
LINE
8
BLACK
6
CONTINUOUS
10
4.01571
20
-2.87423
11
4.01557
21
-2.8758
0
LINE
8
BLACK
6
CONTINUOUS
10
4.01557
20
-2.8758
11
4.01508
21
-2.88078
0
LINE
8
BLACK
6
CONTINUOUS
10
4.01508
20
-2.88078
11
4.01494
21
-2.88156
0
LINE
8
BLACK
6
CONTINUOUS
10
4.01494
20
-2.88156
11
4.01426
21
-2.88411
0
LINE
8
BLACK
6
CONTINUOUS
10
4.01426
20
-2.88411
11
4.01421
21
-2.88426
0
LINE
8
BLACK
6
CONTINUOUS
10
4.01421
20
-2.88426
11
4.01312
21
-2.88786
0
LINE
8
BLACK
6
CONTINUOUS
10
4.01312
20
-2.88786
11
4.01288
21
-2.8885
0
LINE
8
BLACK
6
CONTINUOUS
10
4.01288
20
-2.8885
11
4.01167
21
-2.8911
0
LINE
8
BLACK
6
CONTINUOUS
10
4.01167
20
-2.8911
11
4.01155
21
-2.89133
0
LINE
8
BLACK
6
CONTINUOUS
10
4.01155
20
-2.89133
11
4.00988
21
-2.89445
0
LINE
8
BLACK
6
CONTINUOUS
10
4.00988
20
-2.89445
11
4.00958
21
-2.89495
0
LINE
8
BLACK
6
CONTINUOUS
10
4.00958
20
-2.89495
11
4.00789
21
-2.89736
0
LINE
8
BLACK
6
CONTINUOUS
10
4.00789
20
-2.89736
11
4.00766
21
-2.89765
0
LINE
8
BLACK
6
CONTINUOUS
10
4.00766
20
-2.89765
11
4.00547
21
-2.90033
0
LINE
8
BLACK
6
CONTINUOUS
10
4.00547
20
-2.90033
11
4.00514
21
-2.90069
0
LINE
8
BLACK
6
CONTINUOUS
10
4.00514
20
-2.90069
11
4.00305
21
-2.90278
0
LINE
8
BLACK
6
CONTINUOUS
10
4.00305
20
-2.90278
11
4.0027
21
-2.9031
0
LINE
8
BLACK
6
CONTINUOUS
10
4.0027
20
-2.9031
11
4.00002
21
-2.9053
0
LINE
8
BLACK
6
CONTINUOUS
10
4.00002
20
-2.9053
11
3.99972
21
-2.90553
0
LINE
8
BLACK
6
CONTINUOUS
10
3.99972
20
-2.90553
11
3.99731
21
-2.90721
0
LINE
8
BLACK
6
CONTINUOUS
10
3.99731
20
-2.90721
11
3.99681
21
-2.90752
0
LINE
8
BLACK
6
CONTINUOUS
10
3.99681
20
-2.90752
11
3.9937
21
-2.90919
0
LINE
8
BLACK
6
CONTINUOUS
10
3.9937
20
-2.90919
11
3.99346
21
-2.9093
0
LINE
8
BLACK
6
CONTINUOUS
10
3.99346
20
-2.9093
11
3.99086
21
-2.91051
0
LINE
8
BLACK
6
CONTINUOUS
10
3.99086
20
-2.91051
11
3.99022
21
-2.91076
0
LINE
8
BLACK
6
CONTINUOUS
10
3.99022
20
-2.91076
11
3.98663
21
-2.91185
0
LINE
8
BLACK
6
CONTINUOUS
10
3.98663
20
-2.91185
11
3.98647
21
-2.91189
0
LINE
8
BLACK
6
CONTINUOUS
10
3.98647
20
-2.91189
11
3.98393
21
-2.91258
0
LINE
8
BLACK
6
CONTINUOUS
10
3.98393
20
-2.91258
11
3.98314
21
-2.91272
0
LINE
8
BLACK
6
CONTINUOUS
10
3.98314
20
-2.91272
11
3.97817
21
-2.91321
0
LINE
8
BLACK
6
CONTINUOUS
10
3.97817
20
-2.91321
11
3.97741
21
-2.91328
0
LINE
8
BLACK
6
CONTINUOUS
10
3.97741
20
-2.91328
11
3.97659
21
-2.91335
0
LINE
8
BLACK
6
CONTINUOUS
10
3.97659
20
-2.91335
11
3.97617
21
-2.91337
0
LINE
8
BLACK
6
CONTINUOUS
10
3.97617
20
-2.91337
11
2.63801
21
-2.91337
0
LINE
8
BLACK
6
CONTINUOUS
10
2.63801
20
-2.91337
11
2.63758
21
-2.91335
0
LINE
8
BLACK
6
CONTINUOUS
10
2.63758
20
-2.91335
11
2.63601
21
-2.91321
0
LINE
8
BLACK
6
CONTINUOUS
10
2.63601
20
-2.91321
11
2.63103
21
-2.91272
0
LINE
8
BLACK
6
CONTINUOUS
10
2.63103
20
-2.91272
11
2.63025
21
-2.91258
0
LINE
8
BLACK
6
CONTINUOUS
10
2.63025
20
-2.91258
11
2.6277
21
-2.91189
0
LINE
8
BLACK
6
CONTINUOUS
10
2.6277
20
-2.91189
11
2.62755
21
-2.91185
0
LINE
8
BLACK
6
CONTINUOUS
10
2.62755
20
-2.91185
11
2.62395
21
-2.91076
0
LINE
8
BLACK
6
CONTINUOUS
10
2.62395
20
-2.91076
11
2.62331
21
-2.91051
0
LINE
8
BLACK
6
CONTINUOUS
10
2.62331
20
-2.91051
11
2.62072
21
-2.9093
0
LINE
8
BLACK
6
CONTINUOUS
10
2.62072
20
-2.9093
11
2.62048
21
-2.90919
0
LINE
8
BLACK
6
CONTINUOUS
10
2.62048
20
-2.90919
11
2.61736
21
-2.90752
0
LINE
8
BLACK
6
CONTINUOUS
10
2.61736
20
-2.90752
11
2.61686
21
-2.90721
0
LINE
8
BLACK
6
CONTINUOUS
10
2.61686
20
-2.90721
11
2.61445
21
-2.90553
0
LINE
8
BLACK
6
CONTINUOUS
10
2.61445
20
-2.90553
11
2.61416
21
-2.9053
0
LINE
8
BLACK
6
CONTINUOUS
10
2.61416
20
-2.9053
11
2.61148
21
-2.9031
0
LINE
8
BLACK
6
CONTINUOUS
10
2.61148
20
-2.9031
11
2.61112
21
-2.90278
0
LINE
8
BLACK
6
CONTINUOUS
10
2.61112
20
-2.90278
11
2.60903
21
-2.90069
0
LINE
8
BLACK
6
CONTINUOUS
10
2.60903
20
-2.90069
11
2.60871
21
-2.90033
0
LINE
8
BLACK
6
CONTINUOUS
10
2.60871
20
-2.90033
11
2.60651
21
-2.89765
0
LINE
8
BLACK
6
CONTINUOUS
10
2.60651
20
-2.89765
11
2.60628
21
-2.89736
0
LINE
8
BLACK
6
CONTINUOUS
10
2.60628
20
-2.89736
11
2.6046
21
-2.89495
0
LINE
8
BLACK
6
CONTINUOUS
10
2.6046
20
-2.89495
11
2.60429
21
-2.89445
0
LINE
8
BLACK
6
CONTINUOUS
10
2.60429
20
-2.89445
11
2.60353
21
-2.89302
0
LINE
8
BLACK
6
CONTINUOUS
10
2.60353
20
-2.89302
11
2.60263
21
-2.89133
0
LINE
8
BLACK
6
CONTINUOUS
10
2.60263
20
-2.89133
11
2.60251
21
-2.8911
0
LINE
8
BLACK
6
CONTINUOUS
10
2.60251
20
-2.8911
11
2.6013
21
-2.8885
0
LINE
8
BLACK
6
CONTINUOUS
10
2.6013
20
-2.8885
11
2.60105
21
-2.88786
0
LINE
8
BLACK
6
CONTINUOUS
10
2.60105
20
-2.88786
11
2.59996
21
-2.88426
0
LINE
8
BLACK
6
CONTINUOUS
10
2.59996
20
-2.88426
11
2.59992
21
-2.88411
0
LINE
8
BLACK
6
CONTINUOUS
10
2.59992
20
-2.88411
11
2.59923
21
-2.88156
0
LINE
8
BLACK
6
CONTINUOUS
10
2.59923
20
-2.88156
11
2.59909
21
-2.88078
0
LINE
8
BLACK
6
CONTINUOUS
10
2.59909
20
-2.88078
11
2.5986
21
-2.8758
0
LINE
8
BLACK
6
CONTINUOUS
10
2.5986
20
-2.8758
11
2.59858
21
-2.87551
0
LINE
8
BLACK
6
CONTINUOUS
10
2.59858
20
-2.87551
11
2.59846
21
-2.87423
0
LINE
8
BLACK
6
CONTINUOUS
10
2.59846
20
-2.87423
11
2.59844
21
-2.8738
0
LINE
8
BLACK
6
CONTINUOUS
10
2.59844
20
-2.8738
11
2.59844
21
-2.3622
0
LINE
8
BLACK
6
CONTINUOUS
10
2.59844
20
-2.3622
11
2.59844
21
-1.94562
0
LINE
8
BLACK
6
CONTINUOUS
10
2.59844
20
-1.94562
11
2.59844
21
-1.85061
0
LINE
8
BLACK
6
CONTINUOUS
10
2.59844
20
-1.85061
11
2.59846
21
-1.85018
0
LINE
8
BLACK
6
CONTINUOUS
10
2.59846
20
-1.85018
11
2.5986
21
-1.8486
0
LINE
8
BLACK
6
CONTINUOUS
10
2.5986
20
-1.8486
11
2.59909
21
-1.84363
0
LINE
8
BLACK
6
CONTINUOUS
10
2.59909
20
-1.84363
11
2.59923
21
-1.84285
0
LINE
8
BLACK
6
CONTINUOUS
10
2.59923
20
-1.84285
11
2.59992
21
-1.8403
0
LINE
8
BLACK
6
CONTINUOUS
10
2.59992
20
-1.8403
11
2.59996
21
-1.84015
0
LINE
8
BLACK
6
CONTINUOUS
10
2.59996
20
-1.84015
11
2.60105
21
-1.83655
0
LINE
8
BLACK
6
CONTINUOUS
10
2.60105
20
-1.83655
11
2.6013
21
-1.83591
0
LINE
8
BLACK
6
CONTINUOUS
10
2.6013
20
-1.83591
11
2.60251
21
-1.83331
0
LINE
8
BLACK
6
CONTINUOUS
10
2.60251
20
-1.83331
11
2.60262
21
-1.83308
0
LINE
8
BLACK
6
CONTINUOUS
10
2.60262
20
-1.83308
11
2.60429
21
-1.82996
0
LINE
8
BLACK
6
CONTINUOUS
10
2.60429
20
-1.82996
11
2.6046
21
-1.82946
0
LINE
8
BLACK
6
CONTINUOUS
10
2.6046
20
-1.82946
11
2.60628
21
-1.82705
0
LINE
8
BLACK
6
CONTINUOUS
10
2.60628
20
-1.82705
11
2.60651
21
-1.82676
0
LINE
8
BLACK
6
CONTINUOUS
10
2.60651
20
-1.82676
11
2.60871
21
-1.82408
0
LINE
8
BLACK
6
CONTINUOUS
10
2.60871
20
-1.82408
11
2.60903
21
-1.82372
0
LINE
8
BLACK
6
CONTINUOUS
10
2.60903
20
-1.82372
11
2.61112
21
-1.82163
0
LINE
8
BLACK
6
CONTINUOUS
10
2.61112
20
-1.82163
11
2.61148
21
-1.82131
0
LINE
8
BLACK
6
CONTINUOUS
10
2.61148
20
-1.82131
11
2.61416
21
-1.81911
0
LINE
8
BLACK
6
CONTINUOUS
10
2.61416
20
-1.81911
11
2.61445
21
-1.81888
0
LINE
8
BLACK
6
CONTINUOUS
10
2.61445
20
-1.81888
11
2.61686
21
-1.8172
0
LINE
8
BLACK
6
CONTINUOUS
10
2.61686
20
-1.8172
11
2.61736
21
-1.81689
0
LINE
8
BLACK
6
CONTINUOUS
10
2.61736
20
-1.81689
11
2.62048
21
-1.81522
0
LINE
8
BLACK
6
CONTINUOUS
10
2.62048
20
-1.81522
11
2.62071
21
-1.81511
0
LINE
8
BLACK
6
CONTINUOUS
10
2.62071
20
-1.81511
11
2.62331
21
-1.8139
0
LINE
8
BLACK
6
CONTINUOUS
10
2.62331
20
-1.8139
11
2.62395
21
-1.81365
0
LINE
8
BLACK
6
CONTINUOUS
10
2.62395
20
-1.81365
11
2.62755
21
-1.81256
0
LINE
8
BLACK
6
CONTINUOUS
10
2.62755
20
-1.81256
11
2.6277
21
-1.81252
0
LINE
8
BLACK
6
CONTINUOUS
10
2.6277
20
-1.81252
11
2.63025
21
-1.81183
0
LINE
8
BLACK
6
CONTINUOUS
10
2.63025
20
-1.81183
11
2.63103
21
-1.81169
0
LINE
8
BLACK
6
CONTINUOUS
10
2.63103
20
-1.81169
11
2.636
21
-1.8112
0
LINE
8
BLACK
6
CONTINUOUS
10
2.636
20
-1.8112
11
2.63758
21
-1.81106
0
LINE
8
BLACK
6
CONTINUOUS
10
2.63758
20
-1.81106
11
2.63801
21
-1.81104
0
LINE
8
BLACK
6
CONTINUOUS
10
2.63801
20
-1.81104
11
3.97616
21
-1.81104
0
LINE
8
BLACK
6
CONTINUOUS
10
3.97616
20
-1.81104
11
3.97659
21
-1.81106
0
LINE
8
BLACK
6
CONTINUOUS
10
3.78346
20
-2.83858
11
3.77953
21
-2.83858
0
LINE
8
BLACK
6
CONTINUOUS
10
3.77953
20
-2.83858
11
3.77953
21
-2.8622
0
LINE
8
BLACK
6
CONTINUOUS
10
3.77953
20
-2.8622
11
3.77876
21
-2.86707
0
LINE
8
BLACK
6
CONTINUOUS
10
3.77876
20
-2.86707
11
3.77652
21
-2.87146
0
LINE
8
BLACK
6
CONTINUOUS
10
3.77652
20
-2.87146
11
3.77304
21
-2.87495
0
LINE
8
BLACK
6
CONTINUOUS
10
3.77304
20
-2.87495
11
3.76865
21
-2.87718
0
LINE
8
BLACK
6
CONTINUOUS
10
3.76865
20
-2.87718
11
3.76378
21
-2.87795
0
LINE
8
BLACK
6
CONTINUOUS
10
3.76378
20
-2.87795
11
3.75891
21
-2.87718
0
LINE
8
BLACK
6
CONTINUOUS
10
3.75891
20
-2.87718
11
3.75452
21
-2.87495
0
LINE
8
BLACK
6
CONTINUOUS
10
3.75452
20
-2.87495
11
3.75104
21
-2.87146
0
LINE
8
BLACK
6
CONTINUOUS
10
3.75104
20
-2.87146
11
3.7488
21
-2.86707
0
LINE
8
BLACK
6
CONTINUOUS
10
3.7488
20
-2.86707
11
3.74803
21
-2.8622
0
LINE
8
BLACK
6
CONTINUOUS
10
3.74803
20
-2.8622
11
3.74803
21
-2.83858
0
LINE
8
BLACK
6
CONTINUOUS
10
3.74803
20
-2.83858
11
3.74409
21
-2.83858
0
LINE
8
BLACK
6
CONTINUOUS
10
3.74409
20
-2.83858
11
3.74409
21
-2.71457
0
LINE
8
BLACK
6
CONTINUOUS
10
3.74409
20
-2.71457
11
3.78346
21
-2.71457
0
LINE
8
BLACK
6
CONTINUOUS
10
3.78346
20
-2.71457
11
3.78346
21
-2.83858
0
LINE
8
BLACK
6
CONTINUOUS
10
3.82441
20
-2.84034
11
3.82442
21
-2.8406
0
LINE
8
BLACK
6
CONTINUOUS
10
3.82442
20
-2.8406
11
3.82466
21
-2.84281
0
LINE
8
BLACK
6
CONTINUOUS
10
3.82466
20
-2.84281
11
3.82664
21
-2.84811
0
LINE
8
BLACK
6
CONTINUOUS
10
3.82664
20
-2.84811
11
3.83003
21
-2.85265
0
LINE
8
BLACK
6
CONTINUOUS
10
3.83003
20
-2.85265
11
3.83456
21
-2.85604
0
LINE
8
BLACK
6
CONTINUOUS
10
3.83456
20
-2.85604
11
3.83987
21
-2.85802
0
LINE
8
BLACK
6
CONTINUOUS
10
3.83987
20
-2.85802
11
3.84208
21
-2.85825
0
LINE
8
BLACK
6
CONTINUOUS
10
3.84208
20
-2.85825
11
3.84234
21
-2.85827
0
LINE
8
BLACK
6
CONTINUOUS
10
3.84234
20
-2.85827
11
3.85394
21
-2.85827
0
LINE
8
BLACK
6
CONTINUOUS
10
3.85394
20
-2.85827
11
3.85394
21
-2.83858
0
LINE
8
BLACK
6
CONTINUOUS
10
3.85394
20
-2.83858
11
3.84409
21
-2.83858
0
LINE
8
BLACK
6
CONTINUOUS
10
3.84409
20
-2.83858
11
3.84409
21
-2.78642
0
LINE
8
BLACK
6
CONTINUOUS
10
3.84409
20
-2.78642
11
3.82441
21
-2.78642
0
LINE
8
BLACK
6
CONTINUOUS
10
3.82441
20
-2.78642
11
3.82441
21
-2.84034
0
LINE
8
BLACK
6
CONTINUOUS
10
3.88346
20
-2.83858
11
3.87362
21
-2.83858
0
LINE
8
BLACK
6
CONTINUOUS
10
3.87362
20
-2.83858
11
3.87362
21
-2.85827
0
LINE
8
BLACK
6
CONTINUOUS
10
3.87362
20
-2.85827
11
3.88522
21
-2.85827
0
LINE
8
BLACK
6
CONTINUOUS
10
3.88522
20
-2.85827
11
3.88548
21
-2.85825
0
LINE
8
BLACK
6
CONTINUOUS
10
3.88548
20
-2.85825
11
3.88769
21
-2.85802
0
LINE
8
BLACK
6
CONTINUOUS
10
3.88769
20
-2.85802
11
3.893
21
-2.85604
0
LINE
8
BLACK
6
CONTINUOUS
10
3.893
20
-2.85604
11
3.89753
21
-2.85265
0
LINE
8
BLACK
6
CONTINUOUS
10
3.89753
20
-2.85265
11
3.90092
21
-2.84811
0
LINE
8
BLACK
6
CONTINUOUS
10
3.90092
20
-2.84811
11
3.9029
21
-2.84281
0
LINE
8
BLACK
6
CONTINUOUS
10
3.9029
20
-2.84281
11
3.90314
21
-2.8406
0
LINE
8
BLACK
6
CONTINUOUS
10
3.90314
20
-2.8406
11
3.90315
21
-2.84034
0
LINE
8
BLACK
6
CONTINUOUS
10
3.90315
20
-2.84034
11
3.90315
21
-2.78642
0
LINE
8
BLACK
6
CONTINUOUS
10
3.90315
20
-2.78642
11
3.88346
21
-2.78642
0
LINE
8
BLACK
6
CONTINUOUS
10
3.88346
20
-2.78642
11
3.88346
21
-2.83858
0
LINE
8
BLACK
6
CONTINUOUS
10
3.79167
20
-1.85347
11
3.79185
21
-1.85346
0
LINE
8
BLACK
6
CONTINUOUS
10
3.79185
20
-1.85346
11
3.79194
21
-1.85351
0
LINE
8
BLACK
6
CONTINUOUS
10
3.79194
20
-1.85351
11
3.79219
21
-1.85355
0
LINE
8
BLACK
6
CONTINUOUS
10
3.79219
20
-1.85355
11
3.79321
21
-1.8542
0
LINE
8
BLACK
6
CONTINUOUS
10
3.79321
20
-1.8542
11
3.79428
21
-1.85479
0
LINE
8
BLACK
6
CONTINUOUS
10
3.79428
20
-1.85479
11
3.82238
21
-1.88288
0
LINE
8
BLACK
6
CONTINUOUS
10
3.82238
20
-1.88288
11
3.8229
21
-1.88359
0
LINE
8
BLACK
6
CONTINUOUS
10
3.8229
20
-1.88359
11
3.82304
21
-1.8837
0
LINE
8
BLACK
6
CONTINUOUS
10
3.82304
20
-1.8837
11
3.82307
21
-1.8838
0
LINE
8
BLACK
6
CONTINUOUS
10
3.82307
20
-1.8838
11
3.82322
21
-1.884
0
LINE
8
BLACK
6
CONTINUOUS
10
3.82322
20
-1.884
11
3.82348
21
-1.88519
0
LINE
8
BLACK
6
CONTINUOUS
10
3.82348
20
-1.88519
11
3.82382
21
-1.88636
0
LINE
8
BLACK
6
CONTINUOUS
10
3.82382
20
-1.88636
11
3.82382
21
-1.98694
0
LINE
8
BLACK
6
CONTINUOUS
10
3.82382
20
-1.98694
11
3.82881
21
-1.99193
0
LINE
8
BLACK
6
CONTINUOUS
10
3.82881
20
-1.99193
11
3.86614
21
-1.99193
0
LINE
8
BLACK
6
CONTINUOUS
10
3.86614
20
-1.99193
11
3.8684
21
-1.99238
0
LINE
8
BLACK
6
CONTINUOUS
10
3.8684
20
-1.99238
11
3.87032
21
-1.99366
0
LINE
8
BLACK
6
CONTINUOUS
10
3.87032
20
-1.99366
11
3.8716
21
-1.99557
0
LINE
8
BLACK
6
CONTINUOUS
10
3.8716
20
-1.99557
11
3.87205
21
-1.99783
0
LINE
8
BLACK
6
CONTINUOUS
10
3.87205
20
-1.99783
11
3.87205
21
-2.00965
0
LINE
8
BLACK
6
CONTINUOUS
10
3.87205
20
-2.00965
11
3.8716
21
-2.01191
0
LINE
8
BLACK
6
CONTINUOUS
10
3.8716
20
-2.01191
11
3.87032
21
-2.01382
0
LINE
8
BLACK
6
CONTINUOUS
10
3.87032
20
-2.01382
11
3.8684
21
-2.0151
0
LINE
8
BLACK
6
CONTINUOUS
10
3.8684
20
-2.0151
11
3.86614
21
-2.01555
0
LINE
8
BLACK
6
CONTINUOUS
10
3.86614
20
-2.01555
11
3.80118
21
-2.01555
0
LINE
8
BLACK
6
CONTINUOUS
10
3.80118
20
-2.01555
11
3.79892
21
-2.0151
0
LINE
8
BLACK
6
CONTINUOUS
10
3.79892
20
-2.0151
11
3.79701
21
-2.01382
0
LINE
8
BLACK
6
CONTINUOUS
10
3.79701
20
-2.01382
11
3.79573
21
-2.01191
0
LINE
8
BLACK
6
CONTINUOUS
10
3.79573
20
-2.01191
11
3.79528
21
-2.00965
0
LINE
8
BLACK
6
CONTINUOUS
10
3.79528
20
-2.00965
11
3.79528
21
-1.99783
0
LINE
8
BLACK
6
CONTINUOUS
10
3.79528
20
-1.99783
11
3.79573
21
-1.99557
0
LINE
8
BLACK
6
CONTINUOUS
10
3.79573
20
-1.99557
11
3.79701
21
-1.99366
0
LINE
8
BLACK
6
CONTINUOUS
10
3.79701
20
-1.99366
11
3.79892
21
-1.99238
0
LINE
8
BLACK
6
CONTINUOUS
10
3.79892
20
-1.99238
11
3.80118
21
-1.99193
0
LINE
8
BLACK
6
CONTINUOUS
10
3.80118
20
-1.99193
11
3.81502
21
-1.99193
0
LINE
8
BLACK
6
CONTINUOUS
10
3.81502
20
-1.99193
11
3.81489
21
-1.99175
0
LINE
8
BLACK
6
CONTINUOUS
10
3.81489
20
-1.99175
11
3.81476
21
-1.99164
0
LINE
8
BLACK
6
CONTINUOUS
10
3.81476
20
-1.99164
11
3.81473
21
-1.99153
0
LINE
8
BLACK
6
CONTINUOUS
10
3.81473
20
-1.99153
11
3.81458
21
-1.99133
0
LINE
8
BLACK
6
CONTINUOUS
10
3.81458
20
-1.99133
11
3.81432
21
-1.99014
0
LINE
8
BLACK
6
CONTINUOUS
10
3.81432
20
-1.99014
11
3.81398
21
-1.98898
0
LINE
8
BLACK
6
CONTINUOUS
10
3.81398
20
-1.98898
11
3.81398
21
-1.8884
0
LINE
8
BLACK
6
CONTINUOUS
10
3.81398
20
-1.8884
11
3.78876
21
-1.86319
0
LINE
8
BLACK
6
CONTINUOUS
10
3.78876
20
-1.86319
11
3.53702
21
-1.86319
0
LINE
8
BLACK
6
CONTINUOUS
10
3.53702
20
-1.86319
11
3.45177
21
-1.94844
0
LINE
8
BLACK
6
CONTINUOUS
10
3.45177
20
-1.94844
11
3.45177
21
-2.52499
0
LINE
8
BLACK
6
CONTINUOUS
10
3.45177
20
-2.52499
11
3.49667
21
-2.56988
0
LINE
8
BLACK
6
CONTINUOUS
10
3.49667
20
-2.56988
11
3.6162
21
-2.56988
0
LINE
8
BLACK
6
CONTINUOUS
10
3.6162
20
-2.56988
11
3.61707
21
-2.57001
0
LINE
8
BLACK
6
CONTINUOUS
10
3.61707
20
-2.57001
11
3.61724
21
-2.56999
0
LINE
8
BLACK
6
CONTINUOUS
10
3.61724
20
-2.56999
11
3.61734
21
-2.57005
0
LINE
8
BLACK
6
CONTINUOUS
10
3.61734
20
-2.57005
11
3.61758
21
-2.57008
0
LINE
8
BLACK
6
CONTINUOUS
10
3.61758
20
-2.57008
11
3.61861
21
-2.57074
0
LINE
8
BLACK
6
CONTINUOUS
10
3.61861
20
-2.57074
11
3.61968
21
-2.57132
0
LINE
8
BLACK
6
CONTINUOUS
10
3.61968
20
-2.57132
11
3.62946
21
-2.58111
0
LINE
8
BLACK
6
CONTINUOUS
10
3.62946
20
-2.58111
11
3.62999
21
-2.58181
0
LINE
8
BLACK
6
CONTINUOUS
10
3.62999
20
-2.58181
11
3.63012
21
-2.58193
0
LINE
8
BLACK
6
CONTINUOUS
10
3.63012
20
-2.58193
11
3.63015
21
-2.58203
0
LINE
8
BLACK
6
CONTINUOUS
10
3.63015
20
-2.58203
11
3.6303
21
-2.58223
0
LINE
8
BLACK
6
CONTINUOUS
10
3.6303
20
-2.58223
11
3.63056
21
-2.58342
0
LINE
8
BLACK
6
CONTINUOUS
10
3.63056
20
-2.58342
11
3.63091
21
-2.58459
0
LINE
8
BLACK
6
CONTINUOUS
10
3.63091
20
-2.58459
11
3.63091
21
-2.73674
0
LINE
8
BLACK
6
CONTINUOUS
10
3.63091
20
-2.73674
11
3.64409
21
-2.74993
0
LINE
8
BLACK
6
CONTINUOUS
10
3.64409
20
-2.74993
11
3.64409
21
-2.71457
0
LINE
8
BLACK
6
CONTINUOUS
10
3.64409
20
-2.71457
11
3.68346
21
-2.71457
0
LINE
8
BLACK
6
CONTINUOUS
10
3.68346
20
-2.71457
11
3.68346
21
-2.83858
0
LINE
8
BLACK
6
CONTINUOUS
10
3.68346
20
-2.83858
11
3.64409
21
-2.83858
0
LINE
8
BLACK
6
CONTINUOUS
10
3.64409
20
-2.83858
11
3.64409
21
-2.76385
0
LINE
8
BLACK
6
CONTINUOUS
10
3.64409
20
-2.76385
11
3.6225
21
-2.74226
0
LINE
8
BLACK
6
CONTINUOUS
10
3.6225
20
-2.74226
11
3.62198
21
-2.74156
0
LINE
8
BLACK
6
CONTINUOUS
10
3.62198
20
-2.74156
11
3.62184
21
-2.74144
0
LINE
8
BLACK
6
CONTINUOUS
10
3.62184
20
-2.74144
11
3.62181
21
-2.74134
0
LINE
8
BLACK
6
CONTINUOUS
10
3.62181
20
-2.74134
11
3.62166
21
-2.74114
0
LINE
8
BLACK
6
CONTINUOUS
10
3.62166
20
-2.74114
11
3.62141
21
-2.73995
0
LINE
8
BLACK
6
CONTINUOUS
10
3.62141
20
-2.73995
11
3.62106
21
-2.73878
0
LINE
8
BLACK
6
CONTINUOUS
10
3.62106
20
-2.73878
11
3.62106
21
-2.58663
0
LINE
8
BLACK
6
CONTINUOUS
10
3.62106
20
-2.58663
11
3.61416
21
-2.57972
0
LINE
8
BLACK
6
CONTINUOUS
10
3.61416
20
-2.57972
11
3.49463
21
-2.57972
0
LINE
8
BLACK
6
CONTINUOUS
10
3.49463
20
-2.57972
11
3.49376
21
-2.5796
0
LINE
8
BLACK
6
CONTINUOUS
10
3.49376
20
-2.5796
11
3.49358
21
-2.57961
0
LINE
8
BLACK
6
CONTINUOUS
10
3.49358
20
-2.57961
11
3.49349
21
-2.57956
0
LINE
8
BLACK
6
CONTINUOUS
10
3.49349
20
-2.57956
11
3.49324
21
-2.57953
0
LINE
8
BLACK
6
CONTINUOUS
10
3.49324
20
-2.57953
11
3.49222
21
-2.57887
0
LINE
8
BLACK
6
CONTINUOUS
10
3.49222
20
-2.57887
11
3.49115
21
-2.57828
0
LINE
8
BLACK
6
CONTINUOUS
10
3.49115
20
-2.57828
11
3.44337
21
-2.5305
0
LINE
8
BLACK
6
CONTINUOUS
10
3.44337
20
-2.5305
11
3.44284
21
-2.5298
0
LINE
8
BLACK
6
CONTINUOUS
10
3.44284
20
-2.5298
11
3.44271
21
-2.52968
0
LINE
8
BLACK
6
CONTINUOUS
10
3.44271
20
-2.52968
11
3.44268
21
-2.52958
0
LINE
8
BLACK
6
CONTINUOUS
10
3.44268
20
-2.52958
11
3.44253
21
-2.52938
0
LINE
8
BLACK
6
CONTINUOUS
10
3.44253
20
-2.52938
11
3.44227
21
-2.52819
0
LINE
8
BLACK
6
CONTINUOUS
10
3.44227
20
-2.52819
11
3.44193
21
-2.52702
0
LINE
8
BLACK
6
CONTINUOUS
10
3.44193
20
-2.52702
11
3.44193
21
-1.9464
0
LINE
8
BLACK
6
CONTINUOUS
10
3.44193
20
-1.9464
11
3.44205
21
-1.94553
0
LINE
8
BLACK
6
CONTINUOUS
10
3.44205
20
-1.94553
11
3.44204
21
-1.94536
0
LINE
8
BLACK
6
CONTINUOUS
10
3.44204
20
-1.94536
11
3.44209
21
-1.94526
0
LINE
8
BLACK
6
CONTINUOUS
10
3.44209
20
-1.94526
11
3.44213
21
-1.94502
0
LINE
8
BLACK
6
CONTINUOUS
10
3.44213
20
-1.94502
11
3.44279
21
-1.94399
0
LINE
8
BLACK
6
CONTINUOUS
10
3.44279
20
-1.94399
11
3.44337
21
-1.94292
0
LINE
8
BLACK
6
CONTINUOUS
10
3.44337
20
-1.94292
11
3.5315
21
-1.85479
0
LINE
8
BLACK
6
CONTINUOUS
10
3.5315
20
-1.85479
11
3.53221
21
-1.85426
0
LINE
8
BLACK
6
CONTINUOUS
10
3.53221
20
-1.85426
11
3.53232
21
-1.85413
0
LINE
8
BLACK
6
CONTINUOUS
10
3.53232
20
-1.85413
11
3.53243
21
-1.8541
0
LINE
8
BLACK
6
CONTINUOUS
10
3.53243
20
-1.8541
11
3.53263
21
-1.85395
0
LINE
8
BLACK
6
CONTINUOUS
10
3.53263
20
-1.85395
11
3.53382
21
-1.85369
0
LINE
8
BLACK
6
CONTINUOUS
10
3.53382
20
-1.85369
11
3.53498
21
-1.85335
0
LINE
8
BLACK
6
CONTINUOUS
10
3.53498
20
-1.85335
11
3.7908
21
-1.85335
0
LINE
8
BLACK
6
CONTINUOUS
10
3.7908
20
-1.85335
11
3.79167
21
-1.85347
0
LINE
8
BLACK
6
CONTINUOUS
10
3.87362
20
-2.71457
11
3.88346
21
-2.71457
0
LINE
8
BLACK
6
CONTINUOUS
10
3.88346
20
-2.71457
11
3.88346
21
-2.76673
0
LINE
8
BLACK
6
CONTINUOUS
10
3.88346
20
-2.76673
11
3.90315
21
-2.76673
0
LINE
8
BLACK
6
CONTINUOUS
10
3.90315
20
-2.76673
11
3.90315
21
-2.71281
0
LINE
8
BLACK
6
CONTINUOUS
10
3.90315
20
-2.71281
11
3.90314
21
-2.71255
0
LINE
8
BLACK
6
CONTINUOUS
10
3.90314
20
-2.71255
11
3.9029
21
-2.71034
0
LINE
8
BLACK
6
CONTINUOUS
10
3.9029
20
-2.71034
11
3.90092
21
-2.70504
0
LINE
8
BLACK
6
CONTINUOUS
10
3.90092
20
-2.70504
11
3.89753
21
-2.7005
0
LINE
8
BLACK
6
CONTINUOUS
10
3.89753
20
-2.7005
11
3.893
21
-2.69711
0
LINE
8
BLACK
6
CONTINUOUS
10
3.893
20
-2.69711
11
3.88769
21
-2.69513
0
LINE
8
BLACK
6
CONTINUOUS
10
3.88769
20
-2.69513
11
3.88548
21
-2.6949
0
LINE
8
BLACK
6
CONTINUOUS
10
3.88548
20
-2.6949
11
3.88522
21
-2.69488
0
LINE
8
BLACK
6
CONTINUOUS
10
3.88522
20
-2.69488
11
3.87362
21
-2.69488
0
LINE
8
BLACK
6
CONTINUOUS
10
3.87362
20
-2.69488
11
3.87362
21
-2.71457
0
LINE
8
BLACK
6
CONTINUOUS
10
3.82441
20
-2.64152
11
3.82442
21
-2.64178
0
LINE
8
BLACK
6
CONTINUOUS
10
3.82442
20
-2.64178
11
3.82466
21
-2.64399
0
LINE
8
BLACK
6
CONTINUOUS
10
3.82466
20
-2.64399
11
3.82664
21
-2.64929
0
LINE
8
BLACK
6
CONTINUOUS
10
3.82664
20
-2.64929
11
3.83003
21
-2.65383
0
LINE
8
BLACK
6
CONTINUOUS
10
3.83003
20
-2.65383
11
3.83456
21
-2.65722
0
LINE
8
BLACK
6
CONTINUOUS
10
3.83456
20
-2.65722
11
3.83987
21
-2.6592
0
LINE
8
BLACK
6
CONTINUOUS
10
3.83987
20
-2.6592
11
3.84208
21
-2.65943
0
LINE
8
BLACK
6
CONTINUOUS
10
3.84208
20
-2.65943
11
3.84234
21
-2.65945
0
LINE
8
BLACK
6
CONTINUOUS
10
3.84234
20
-2.65945
11
3.85394
21
-2.65945
0
LINE
8
BLACK
6
CONTINUOUS
10
3.85394
20
-2.65945
11
3.85394
21
-2.63976
0
LINE
8
BLACK
6
CONTINUOUS
10
3.85394
20
-2.63976
11
3.84409
21
-2.63976
0
LINE
8
BLACK
6
CONTINUOUS
10
3.84409
20
-2.63976
11
3.84409
21
-2.5876
0
LINE
8
BLACK
6
CONTINUOUS
10
3.84409
20
-2.5876
11
3.82441
21
-2.5876
0
LINE
8
BLACK
6
CONTINUOUS
10
3.82441
20
-2.5876
11
3.82441
21
-2.64152
0
LINE
8
BLACK
6
CONTINUOUS
10
3.88346
20
-2.63976
11
3.87362
21
-2.63976
0
LINE
8
BLACK
6
CONTINUOUS
10
3.87362
20
-2.63976
11
3.87362
21
-2.65945
0
LINE
8
BLACK
6
CONTINUOUS
10
3.87362
20
-2.65945
11
3.88522
21
-2.65945
0
LINE
8
BLACK
6
CONTINUOUS
10
3.88522
20
-2.65945
11
3.88548
21
-2.65943
0
LINE
8
BLACK
6
CONTINUOUS
10
3.88548
20
-2.65943
11
3.88769
21
-2.6592
0
LINE
8
BLACK
6
CONTINUOUS
10
3.88769
20
-2.6592
11
3.893
21
-2.65722
0
LINE
8
BLACK
6
CONTINUOUS
10
3.893
20
-2.65722
11
3.89753
21
-2.65383
0
LINE
8
BLACK
6
CONTINUOUS
10
3.89753
20
-2.65383
11
3.90092
21
-2.64929
0
LINE
8
BLACK
6
CONTINUOUS
10
3.90092
20
-2.64929
11
3.9029
21
-2.64399
0
LINE
8
BLACK
6
CONTINUOUS
10
3.9029
20
-2.64399
11
3.90314
21
-2.64178
0
LINE
8
BLACK
6
CONTINUOUS
10
3.90314
20
-2.64178
11
3.90315
21
-2.64152
0
LINE
8
BLACK
6
CONTINUOUS
10
3.90315
20
-2.64152
11
3.90315
21
-2.5876
0
LINE
8
BLACK
6
CONTINUOUS
10
3.90315
20
-2.5876
11
3.88346
21
-2.5876
0
LINE
8
BLACK
6
CONTINUOUS
10
3.88346
20
-2.5876
11
3.88346
21
-2.63976
0
LINE
8
BLACK
6
CONTINUOUS
10
3.78433
20
-1.87119
11
3.78451
21
-1.87118
0
LINE
8
BLACK
6
CONTINUOUS
10
3.78451
20
-1.87118
11
3.7846
21
-1.87123
0
LINE
8
BLACK
6
CONTINUOUS
10
3.7846
20
-1.87123
11
3.78485
21
-1.87126
0
LINE
8
BLACK
6
CONTINUOUS
10
3.78485
20
-1.87126
11
3.78588
21
-1.87192
0
LINE
8
BLACK
6
CONTINUOUS
10
3.78588
20
-1.87192
11
3.78694
21
-1.8725
0
LINE
8
BLACK
6
CONTINUOUS
10
3.78694
20
-1.8725
11
3.80466
21
-1.89022
0
LINE
8
BLACK
6
CONTINUOUS
10
3.80466
20
-1.89022
11
3.80519
21
-1.89092
0
LINE
8
BLACK
6
CONTINUOUS
10
3.80519
20
-1.89092
11
3.80532
21
-1.89104
0
LINE
8
BLACK
6
CONTINUOUS
10
3.80532
20
-1.89104
11
3.80535
21
-1.89114
0
LINE
8
BLACK
6
CONTINUOUS
10
3.80535
20
-1.89114
11
3.8055
21
-1.89134
0
LINE
8
BLACK
6
CONTINUOUS
10
3.8055
20
-1.89134
11
3.80576
21
-1.89253
0
LINE
8
BLACK
6
CONTINUOUS
10
3.80576
20
-1.89253
11
3.8061
21
-1.8937
0
LINE
8
BLACK
6
CONTINUOUS
10
3.8061
20
-1.8937
11
3.8061
21
-1.97139
0
LINE
8
BLACK
6
CONTINUOUS
10
3.8061
20
-1.97139
11
3.80598
21
-1.97226
0
LINE
8
BLACK
6
CONTINUOUS
10
3.80598
20
-1.97226
11
3.80599
21
-1.97243
0
LINE
8
BLACK
6
CONTINUOUS
10
3.80599
20
-1.97243
11
3.80594
21
-1.97253
0
LINE
8
BLACK
6
CONTINUOUS
10
3.80594
20
-1.97253
11
3.8059
21
-1.97277
0
LINE
8
BLACK
6
CONTINUOUS
10
3.8059
20
-1.97277
11
3.80524
21
-1.9738
0
LINE
8
BLACK
6
CONTINUOUS
10
3.80524
20
-1.9738
11
3.80466
21
-1.97487
0
LINE
8
BLACK
6
CONTINUOUS
10
3.80466
20
-1.97487
11
3.7874
21
-1.99213
0
LINE
8
BLACK
6
CONTINUOUS
10
3.7874
20
-1.99213
11
3.7874
21
-2.01535
0
LINE
8
BLACK
6
CONTINUOUS
10
3.7874
20
-2.01535
11
3.81398
21
-2.04193
0
LINE
8
BLACK
6
CONTINUOUS
10
3.81398
20
-2.04193
11
3.86614
21
-2.04193
0
LINE
8
BLACK
6
CONTINUOUS
10
3.86614
20
-2.04193
11
3.8684
21
-2.04238
0
LINE
8
BLACK
6
CONTINUOUS
10
3.8684
20
-2.04238
11
3.87032
21
-2.04366
0
LINE
8
BLACK
6
CONTINUOUS
10
3.87032
20
-2.04366
11
3.8716
21
-2.04557
0
LINE
8
BLACK
6
CONTINUOUS
10
3.8716
20
-2.04557
11
3.87205
21
-2.04783
0
LINE
8
BLACK
6
CONTINUOUS
10
3.87205
20
-2.04783
11
3.87205
21
-2.05965
0
LINE
8
BLACK
6
CONTINUOUS
10
3.87205
20
-2.05965
11
3.8716
21
-2.06191
0
LINE
8
BLACK
6
CONTINUOUS
10
3.8716
20
-2.06191
11
3.87032
21
-2.06382
0
LINE
8
BLACK
6
CONTINUOUS
10
3.87032
20
-2.06382
11
3.8684
21
-2.0651
0
LINE
8
BLACK
6
CONTINUOUS
10
3.8684
20
-2.0651
11
3.86614
21
-2.06555
0
LINE
8
BLACK
6
CONTINUOUS
10
3.86614
20
-2.06555
11
3.80118
21
-2.06555
0
LINE
8
BLACK
6
CONTINUOUS
10
3.80118
20
-2.06555
11
3.79892
21
-2.0651
0
LINE
8
BLACK
6
CONTINUOUS
10
3.79892
20
-2.0651
11
3.79701
21
-2.06382
0
LINE
8
BLACK
6
CONTINUOUS
10
3.79701
20
-2.06382
11
3.79573
21
-2.06191
0
LINE
8
BLACK
6
CONTINUOUS
10
3.79573
20
-2.06191
11
3.79528
21
-2.05965
0
LINE
8
BLACK
6
CONTINUOUS
10
3.79528
20
-2.05965
11
3.79528
21
-2.04783
0
LINE
8
BLACK
6
CONTINUOUS
10
3.79528
20
-2.04783
11
3.79573
21
-2.04557
0
LINE
8
BLACK
6
CONTINUOUS
10
3.79573
20
-2.04557
11
3.79701
21
-2.04366
0
LINE
8
BLACK
6
CONTINUOUS
10
3.79701
20
-2.04366
11
3.79892
21
-2.04238
0
LINE
8
BLACK
6
CONTINUOUS
10
3.79892
20
-2.04238
11
3.80024
21
-2.04212
0
LINE
8
BLACK
6
CONTINUOUS
10
3.80024
20
-2.04212
11
3.779
21
-2.02087
0
LINE
8
BLACK
6
CONTINUOUS
10
3.779
20
-2.02087
11
3.77847
21
-2.02017
0
LINE
8
BLACK
6
CONTINUOUS
10
3.77847
20
-2.02017
11
3.77834
21
-2.02005
0
LINE
8
BLACK
6
CONTINUOUS
10
3.77834
20
-2.02005
11
3.77831
21
-2.01995
0
LINE
8
BLACK
6
CONTINUOUS
10
3.77831
20
-2.01995
11
3.77816
21
-2.01975
0
LINE
8
BLACK
6
CONTINUOUS
10
3.77816
20
-2.01975
11
3.7779
21
-2.01856
0
LINE
8
BLACK
6
CONTINUOUS
10
3.7779
20
-2.01856
11
3.77756
21
-2.01739
0
LINE
8
BLACK
6
CONTINUOUS
10
3.77756
20
-2.01739
11
3.77756
21
-1.99009
0
LINE
8
BLACK
6
CONTINUOUS
10
3.77756
20
-1.99009
11
3.77768
21
-1.98922
0
LINE
8
BLACK
6
CONTINUOUS
10
3.77768
20
-1.98922
11
3.77767
21
-1.98904
0
LINE
8
BLACK
6
CONTINUOUS
10
3.77767
20
-1.98904
11
3.77772
21
-1.98895
0
LINE
8
BLACK
6
CONTINUOUS
10
3.77772
20
-1.98895
11
3.77776
21
-1.9887
0
LINE
8
BLACK
6
CONTINUOUS
10
3.77776
20
-1.9887
11
3.77842
21
-1.98768
0
LINE
8
BLACK
6
CONTINUOUS
10
3.77842
20
-1.98768
11
3.779
21
-1.98661
0
LINE
8
BLACK
6
CONTINUOUS
10
3.779
20
-1.98661
11
3.79626
21
-1.96935
0
LINE
8
BLACK
6
CONTINUOUS
10
3.79626
20
-1.96935
11
3.79626
21
-1.89574
0
LINE
8
BLACK
6
CONTINUOUS
10
3.79626
20
-1.89574
11
3.78143
21
-1.88091
0
LINE
8
BLACK
6
CONTINUOUS
10
3.78143
20
-1.88091
11
3.54436
21
-1.88091
0
LINE
8
BLACK
6
CONTINUOUS
10
3.54436
20
-1.88091
11
3.46949
21
-1.95578
0
LINE
8
BLACK
6
CONTINUOUS
10
3.46949
20
-1.95578
11
3.46949
21
-2.51765
0
LINE
8
BLACK
6
CONTINUOUS
10
3.46949
20
-2.51765
11
3.50479
21
-2.55295
0
LINE
8
BLACK
6
CONTINUOUS
10
3.50479
20
-2.55295
11
3.6439
21
-2.55295
0
LINE
8
BLACK
6
CONTINUOUS
10
3.6439
20
-2.55295
11
3.64409
21
-2.55298
0
LINE
8
BLACK
6
CONTINUOUS
10
3.64409
20
-2.55298
11
3.64409
21
-2.51575
0
LINE
8
BLACK
6
CONTINUOUS
10
3.64409
20
-2.51575
11
3.68346
21
-2.51575
0
LINE
8
BLACK
6
CONTINUOUS
10
3.68346
20
-2.51575
11
3.68346
21
-2.63976
0
LINE
8
BLACK
6
CONTINUOUS
10
3.68346
20
-2.63976
11
3.64409
21
-2.63976
0
LINE
8
BLACK
6
CONTINUOUS
10
3.64409
20
-2.63976
11
3.64409
21
-2.56503
0
LINE
8
BLACK
6
CONTINUOUS
10
3.64409
20
-2.56503
11
3.64186
21
-2.5628
0
LINE
8
BLACK
6
CONTINUOUS
10
3.64186
20
-2.5628
11
3.50276
21
-2.5628
0
LINE
8
BLACK
6
CONTINUOUS
10
3.50276
20
-2.5628
11
3.50189
21
-2.56267
0
LINE
8
BLACK
6
CONTINUOUS
10
3.50189
20
-2.56267
11
3.50171
21
-2.56268
0
LINE
8
BLACK
6
CONTINUOUS
10
3.50171
20
-2.56268
11
3.50162
21
-2.56263
0
LINE
8
BLACK
6
CONTINUOUS
10
3.50162
20
-2.56263
11
3.50137
21
-2.5626
0
LINE
8
BLACK
6
CONTINUOUS
10
3.50137
20
-2.5626
11
3.50034
21
-2.56194
0
LINE
8
BLACK
6
CONTINUOUS
10
3.50034
20
-2.56194
11
3.49928
21
-2.56135
0
LINE
8
BLACK
6
CONTINUOUS
10
3.49928
20
-2.56135
11
3.46109
21
-2.52316
0
LINE
8
BLACK
6
CONTINUOUS
10
3.46109
20
-2.52316
11
3.46056
21
-2.52246
0
LINE
8
BLACK
6
CONTINUOUS
10
3.46056
20
-2.52246
11
3.46043
21
-2.52235
0
LINE
8
BLACK
6
CONTINUOUS
10
3.46043
20
-2.52235
11
3.4604
21
-2.52224
0
LINE
8
BLACK
6
CONTINUOUS
10
3.4604
20
-2.52224
11
3.46025
21
-2.52204
0
LINE
8
BLACK
6
CONTINUOUS
10
3.46025
20
-2.52204
11
3.45999
21
-2.52085
0
LINE
8
BLACK
6
CONTINUOUS
10
3.45999
20
-2.52085
11
3.45965
21
-2.51969
0
LINE
8
BLACK
6
CONTINUOUS
10
3.45965
20
-2.51969
11
3.45965
21
-1.95374
0
LINE
8
BLACK
6
CONTINUOUS
10
3.45965
20
-1.95374
11
3.45977
21
-1.95287
0
LINE
8
BLACK
6
CONTINUOUS
10
3.45977
20
-1.95287
11
3.45976
21
-1.95269
0
LINE
8
BLACK
6
CONTINUOUS
10
3.45976
20
-1.95269
11
3.45981
21
-1.9526
0
LINE
8
BLACK
6
CONTINUOUS
10
3.45981
20
-1.9526
11
3.45985
21
-1.95235
0
LINE
8
BLACK
6
CONTINUOUS
10
3.45985
20
-1.95235
11
3.4605
21
-1.95133
0
LINE
8
BLACK
6
CONTINUOUS
10
3.4605
20
-1.95133
11
3.46109
21
-1.95026
0
LINE
8
BLACK
6
CONTINUOUS
10
3.46109
20
-1.95026
11
3.53884
21
-1.8725
0
LINE
8
BLACK
6
CONTINUOUS
10
3.53884
20
-1.8725
11
3.53955
21
-1.87198
0
LINE
8
BLACK
6
CONTINUOUS
10
3.53955
20
-1.87198
11
3.53966
21
-1.87184
0
LINE
8
BLACK
6
CONTINUOUS
10
3.53966
20
-1.87184
11
3.53977
21
-1.87181
0
LINE
8
BLACK
6
CONTINUOUS
10
3.53977
20
-1.87181
11
3.53996
21
-1.87166
0
LINE
8
BLACK
6
CONTINUOUS
10
3.53996
20
-1.87166
11
3.54115
21
-1.87141
0
LINE
8
BLACK
6
CONTINUOUS
10
3.54115
20
-1.87141
11
3.54232
21
-1.87106
0
LINE
8
BLACK
6
CONTINUOUS
10
3.54232
20
-1.87106
11
3.78346
21
-1.87106
0
LINE
8
BLACK
6
CONTINUOUS
10
3.78346
20
-1.87106
11
3.78433
21
-1.87119
0
LINE
8
BLACK
6
CONTINUOUS
10
3.64451
20
-2.29209
11
3.64771
21
-2.29422
0
LINE
8
BLACK
6
CONTINUOUS
10
3.64771
20
-2.29422
11
3.64984
21
-2.29741
0
LINE
8
BLACK
6
CONTINUOUS
10
3.64984
20
-2.29741
11
3.65059
21
-2.30118
0
LINE
8
BLACK
6
CONTINUOUS
10
3.65059
20
-2.30118
11
3.65059
21
-2.34449
0
LINE
8
BLACK
6
CONTINUOUS
10
3.65059
20
-2.34449
11
3.64984
21
-2.34825
0
LINE
8
BLACK
6
CONTINUOUS
10
3.64984
20
-2.34825
11
3.64771
21
-2.35145
0
LINE
8
BLACK
6
CONTINUOUS
10
3.64771
20
-2.35145
11
3.64451
21
-2.35358
0
LINE
8
BLACK
6
CONTINUOUS
10
3.64451
20
-2.35358
11
3.64075
21
-2.35433
0
LINE
8
BLACK
6
CONTINUOUS
10
3.64075
20
-2.35433
11
3.60581
21
-2.35433
0
LINE
8
BLACK
6
CONTINUOUS
10
3.60581
20
-2.35433
11
3.60581
21
-2.37402
0
LINE
8
BLACK
6
CONTINUOUS
10
3.60581
20
-2.37402
11
3.60581
21
-2.37402
0
LINE
8
BLACK
6
CONTINUOUS
10
3.60581
20
-2.37402
11
3.60929
21
-2.37402
0
LINE
8
BLACK
6
CONTINUOUS
10
3.60929
20
-2.37402
11
3.61193
21
-2.37479
0
LINE
8
BLACK
6
CONTINUOUS
10
3.61193
20
-2.37479
11
3.61373
21
-2.37687
0
LINE
8
BLACK
6
CONTINUOUS
10
3.61373
20
-2.37687
11
3.61417
21
-2.3789
0
LINE
8
BLACK
6
CONTINUOUS
10
3.61417
20
-2.3789
11
3.61417
21
-2.42126
0
LINE
8
BLACK
6
CONTINUOUS
10
3.61417
20
-2.42126
11
3.76689
21
-2.42126
0
LINE
8
BLACK
6
CONTINUOUS
10
3.76689
20
-2.42126
11
3.76953
21
-2.42203
0
LINE
8
BLACK
6
CONTINUOUS
10
3.76953
20
-2.42203
11
3.77133
21
-2.42411
0
LINE
8
BLACK
6
CONTINUOUS
10
3.77133
20
-2.42411
11
3.77177
21
-2.42602
0
LINE
8
BLACK
6
CONTINUOUS
10
3.77177
20
-2.42602
11
3.77347
21
-2.49557
0
LINE
8
BLACK
6
CONTINUOUS
10
3.77347
20
-2.49557
11
3.77347
21
-2.49557
0
LINE
8
BLACK
6
CONTINUOUS
10
3.77347
20
-2.49557
11
3.77362
21
-2.50197
0
LINE
8
BLACK
6
CONTINUOUS
10
3.77362
20
-2.50197
11
3.77362
21
-2.51575
0
LINE
8
BLACK
6
CONTINUOUS
10
3.77362
20
-2.51575
11
3.78346
21
-2.51575
0
LINE
8
BLACK
6
CONTINUOUS
10
3.78346
20
-2.51575
11
3.78346
21
-2.63976
0
LINE
8
BLACK
6
CONTINUOUS
10
3.78346
20
-2.63976
11
3.74409
21
-2.63976
0
LINE
8
BLACK
6
CONTINUOUS
10
3.74409
20
-2.63976
11
3.74409
21
-2.58268
0
LINE
8
BLACK
6
CONTINUOUS
10
3.74409
20
-2.58268
11
3.70805
21
-2.58268
0
LINE
8
BLACK
6
CONTINUOUS
10
3.70805
20
-2.58268
11
3.70541
21
-2.5819
0
LINE
8
BLACK
6
CONTINUOUS
10
3.70541
20
-2.5819
11
3.70361
21
-2.57982
0
LINE
8
BLACK
6
CONTINUOUS
10
3.70361
20
-2.57982
11
3.70317
21
-2.5778
0
LINE
8
BLACK
6
CONTINUOUS
10
3.70317
20
-2.5778
11
3.70317
21
-2.56791
0
LINE
8
BLACK
6
CONTINUOUS
10
3.70317
20
-2.56791
11
3.70317
21
-2.51399
0
LINE
8
BLACK
6
CONTINUOUS
10
3.70317
20
-2.51399
11
3.70317
21
-2.51386
0
LINE
8
BLACK
6
CONTINUOUS
10
3.70317
20
-2.51386
11
3.70292
21
-2.51152
0
LINE
8
BLACK
6
CONTINUOUS
10
3.70292
20
-2.51152
11
3.70094
21
-2.50621
0
LINE
8
BLACK
6
CONTINUOUS
10
3.70094
20
-2.50621
11
3.69754
21
-2.50167
0
LINE
8
BLACK
6
CONTINUOUS
10
3.69754
20
-2.50167
11
3.69301
21
-2.49828
0
LINE
8
BLACK
6
CONTINUOUS
10
3.69301
20
-2.49828
11
3.6877
21
-2.4963
0
LINE
8
BLACK
6
CONTINUOUS
10
3.6877
20
-2.4963
11
3.68566
21
-2.49608
0
LINE
8
BLACK
6
CONTINUOUS
10
3.68566
20
-2.49608
11
3.68548
21
-2.49606
0
LINE
8
BLACK
6
CONTINUOUS
10
3.68548
20
-2.49606
11
3.68548
21
-2.49606
0
LINE
8
BLACK
6
CONTINUOUS
10
3.68548
20
-2.49606
11
3.68535
21
-2.49604
0
LINE
8
BLACK
6
CONTINUOUS
10
3.68535
20
-2.49604
11
3.68522
21
-2.49604
0
LINE
8
BLACK
6
CONTINUOUS
10
3.68522
20
-2.49604
11
3.64234
21
-2.49604
0
LINE
8
BLACK
6
CONTINUOUS
10
3.64234
20
-2.49604
11
3.64234
21
-2.49604
0
LINE
8
BLACK
6
CONTINUOUS
10
3.64234
20
-2.49604
11
3.64221
21
-2.49604
0
LINE
8
BLACK
6
CONTINUOUS
10
3.64221
20
-2.49604
11
3.64208
21
-2.49606
0
LINE
8
BLACK
6
CONTINUOUS
10
3.64208
20
-2.49606
11
3.64208
21
-2.49606
0
LINE
8
BLACK
6
CONTINUOUS
10
3.64208
20
-2.49606
11
3.63986
21
-2.4963
0
LINE
8
BLACK
6
CONTINUOUS
10
3.63986
20
-2.4963
11
3.63455
21
-2.49828
0
LINE
8
BLACK
6
CONTINUOUS
10
3.63455
20
-2.49828
11
3.63002
21
-2.50167
0
LINE
8
BLACK
6
CONTINUOUS
10
3.63002
20
-2.50167
11
3.62662
21
-2.50621
0
LINE
8
BLACK
6
CONTINUOUS
10
3.62662
20
-2.50621
11
3.62464
21
-2.51152
0
LINE
8
BLACK
6
CONTINUOUS
10
3.62464
20
-2.51152
11
3.62464
21
-2.51152
0
LINE
8
BLACK
6
CONTINUOUS
10
3.62464
20
-2.51152
11
3.62439
21
-2.51386
0
LINE
8
BLACK
6
CONTINUOUS
10
3.62439
20
-2.51386
11
3.62439
21
-2.51399
0
LINE
8
BLACK
6
CONTINUOUS
10
3.62439
20
-2.51399
11
3.62439
21
-2.52837
0
LINE
8
BLACK
6
CONTINUOUS
10
3.62439
20
-2.52837
11
3.62361
21
-2.53101
0
LINE
8
BLACK
6
CONTINUOUS
10
3.62361
20
-2.53101
11
3.62154
21
-2.53281
0
LINE
8
BLACK
6
CONTINUOUS
10
3.62154
20
-2.53281
11
3.61951
21
-2.53325
0
LINE
8
BLACK
6
CONTINUOUS
10
3.61951
20
-2.53325
11
3.51498
21
-2.53325
0
LINE
8
BLACK
6
CONTINUOUS
10
3.51498
20
-2.53325
11
3.51234
21
-2.53247
0
LINE
8
BLACK
6
CONTINUOUS
10
3.51234
20
-2.53247
11
3.51153
21
-2.53182
0
LINE
8
BLACK
6
CONTINUOUS
10
3.51153
20
-2.53182
11
3.49062
21
-2.51091
0
LINE
8
BLACK
6
CONTINUOUS
10
3.49062
20
-2.51091
11
3.4893
21
-2.5085
0
LINE
8
BLACK
6
CONTINUOUS
10
3.4893
20
-2.5085
11
3.48919
21
-2.50746
0
LINE
8
BLACK
6
CONTINUOUS
10
3.48919
20
-2.50746
11
3.48919
21
-2.33268
0
LINE
8
BLACK
6
CONTINUOUS
10
3.48919
20
-2.33268
11
3.48919
21
-2.31591
0
LINE
8
BLACK
6
CONTINUOUS
10
3.48919
20
-2.31591
11
3.48997
21
-2.31327
0
LINE
8
BLACK
6
CONTINUOUS
10
3.48997
20
-2.31327
11
3.49205
21
-2.31146
0
LINE
8
BLACK
6
CONTINUOUS
10
3.49205
20
-2.31146
11
3.49407
21
-2.31102
0
LINE
8
BLACK
6
CONTINUOUS
10
3.49407
20
-2.31102
11
3.51766
21
-2.31102
0
LINE
8
BLACK
6
CONTINUOUS
10
3.51766
20
-2.31102
11
3.5203
21
-2.3118
0
LINE
8
BLACK
6
CONTINUOUS
10
3.5203
20
-2.3118
11
3.52111
21
-2.31245
0
LINE
8
BLACK
6
CONTINUOUS
10
3.52111
20
-2.31245
11
3.52165
21
-2.31299
0
LINE
8
BLACK
6
CONTINUOUS
10
3.52165
20
-2.31299
11
3.54134
21
-2.31299
0
LINE
8
BLACK
6
CONTINUOUS
10
3.54134
20
-2.31299
11
3.54134
21
-2.30118
0
LINE
8
BLACK
6
CONTINUOUS
10
3.54134
20
-2.30118
11
3.54209
21
-2.29741
0
LINE
8
BLACK
6
CONTINUOUS
10
3.54209
20
-2.29741
11
3.54422
21
-2.29422
0
LINE
8
BLACK
6
CONTINUOUS
10
3.54422
20
-2.29422
11
3.54741
21
-2.29209
0
LINE
8
BLACK
6
CONTINUOUS
10
3.54741
20
-2.29209
11
3.55118
21
-2.29134
0
LINE
8
BLACK
6
CONTINUOUS
10
3.55118
20
-2.29134
11
3.64075
21
-2.29134
0
LINE
8
BLACK
6
CONTINUOUS
10
3.64075
20
-2.29134
11
3.64451
21
-2.29209
0
LINE
8
BLACK
6
CONTINUOUS
10
3.87362
20
-2.51575
11
3.88346
21
-2.51575
0
LINE
8
BLACK
6
CONTINUOUS
10
3.88346
20
-2.51575
11
3.88346
21
-2.56791
0
LINE
8
BLACK
6
CONTINUOUS
10
3.88346
20
-2.56791
11
3.90315
21
-2.56791
0
LINE
8
BLACK
6
CONTINUOUS
10
3.90315
20
-2.56791
11
3.90315
21
-2.514
0
LINE
8
BLACK
6
CONTINUOUS
10
3.90315
20
-2.514
11
3.90314
21
-2.51373
0
LINE
8
BLACK
6
CONTINUOUS
10
3.90314
20
-2.51373
11
3.9029
21
-2.51152
0
LINE
8
BLACK
6
CONTINUOUS
10
3.9029
20
-2.51152
11
3.90092
21
-2.50622
0
LINE
8
BLACK
6
CONTINUOUS
10
3.90092
20
-2.50622
11
3.89753
21
-2.50169
0
LINE
8
BLACK
6
CONTINUOUS
10
3.89753
20
-2.50169
11
3.893
21
-2.49829
0
LINE
8
BLACK
6
CONTINUOUS
10
3.893
20
-2.49829
11
3.88769
21
-2.49631
0
LINE
8
BLACK
6
CONTINUOUS
10
3.88769
20
-2.49631
11
3.88548
21
-2.49608
0
LINE
8
BLACK
6
CONTINUOUS
10
3.88548
20
-2.49608
11
3.88522
21
-2.49606
0
LINE
8
BLACK
6
CONTINUOUS
10
3.88522
20
-2.49606
11
3.87362
21
-2.49606
0
LINE
8
BLACK
6
CONTINUOUS
10
3.87362
20
-2.49606
11
3.87362
21
-2.51575
0
LINE
8
BLACK
6
CONTINUOUS
10
3.68406
20
-2.34633
11
3.68407
21
-2.34658
0
LINE
8
BLACK
6
CONTINUOUS
10
3.68407
20
-2.34658
11
3.68447
21
-2.3505
0
LINE
8
BLACK
6
CONTINUOUS
10
3.68447
20
-2.3505
11
3.68664
21
-2.35705
0
LINE
8
BLACK
6
CONTINUOUS
10
3.68664
20
-2.35705
11
3.69026
21
-2.36293
0
LINE
8
BLACK
6
CONTINUOUS
10
3.69026
20
-2.36293
11
3.69514
21
-2.36781
0
LINE
8
BLACK
6
CONTINUOUS
10
3.69514
20
-2.36781
11
3.70102
21
-2.37143
0
LINE
8
BLACK
6
CONTINUOUS
10
3.70102
20
-2.37143
11
3.70757
21
-2.3736
0
LINE
8
BLACK
6
CONTINUOUS
10
3.70757
20
-2.3736
11
3.71149
21
-2.374
0
LINE
8
BLACK
6
CONTINUOUS
10
3.71149
20
-2.374
11
3.71174
21
-2.37402
0
LINE
8
BLACK
6
CONTINUOUS
10
3.71174
20
-2.37402
11
3.74852
21
-2.37402
0
LINE
8
BLACK
6
CONTINUOUS
10
3.74852
20
-2.37402
11
3.74852
21
-2.37402
0
LINE
8
BLACK
6
CONTINUOUS
10
3.74852
20
-2.37402
11
3.74852
21
-2.35433
0
LINE
8
BLACK
6
CONTINUOUS
10
3.74852
20
-2.35433
11
3.71358
21
-2.35433
0
LINE
8
BLACK
6
CONTINUOUS
10
3.71358
20
-2.35433
11
3.70982
21
-2.35358
0
LINE
8
BLACK
6
CONTINUOUS
10
3.70982
20
-2.35358
11
3.70662
21
-2.35145
0
LINE
8
BLACK
6
CONTINUOUS
10
3.70662
20
-2.35145
11
3.70449
21
-2.34825
0
LINE
8
BLACK
6
CONTINUOUS
10
3.70449
20
-2.34825
11
3.70374
21
-2.34449
0
LINE
8
BLACK
6
CONTINUOUS
10
3.70374
20
-2.34449
11
3.70374
21
-2.33268
0
LINE
8
BLACK
6
CONTINUOUS
10
3.70374
20
-2.33268
11
3.68406
21
-2.33268
0
LINE
8
BLACK
6
CONTINUOUS
10
3.68406
20
-2.33268
11
3.68406
21
-2.34633
0
LINE
8
BLACK
6
CONTINUOUS
10
3.81299
20
-2.34449
11
3.81224
21
-2.34825
0
LINE
8
BLACK
6
CONTINUOUS
10
3.81224
20
-2.34825
11
3.81011
21
-2.35145
0
LINE
8
BLACK
6
CONTINUOUS
10
3.81011
20
-2.35145
11
3.80692
21
-2.35358
0
LINE
8
BLACK
6
CONTINUOUS
10
3.80692
20
-2.35358
11
3.80315
21
-2.35433
0
LINE
8
BLACK
6
CONTINUOUS
10
3.80315
20
-2.35433
11
3.76821
21
-2.35433
0
LINE
8
BLACK
6
CONTINUOUS
10
3.76821
20
-2.35433
11
3.76821
21
-2.37402
0
LINE
8
BLACK
6
CONTINUOUS
10
3.76821
20
-2.37402
11
3.76821
21
-2.37402
0
LINE
8
BLACK
6
CONTINUOUS
10
3.76821
20
-2.37402
11
3.80499
21
-2.37402
0
LINE
8
BLACK
6
CONTINUOUS
10
3.80499
20
-2.37402
11
3.80524
21
-2.374
0
LINE
8
BLACK
6
CONTINUOUS
10
3.80524
20
-2.374
11
3.80916
21
-2.3736
0
LINE
8
BLACK
6
CONTINUOUS
10
3.80916
20
-2.3736
11
3.81571
21
-2.37143
0
LINE
8
BLACK
6
CONTINUOUS
10
3.81571
20
-2.37143
11
3.82159
21
-2.36781
0
LINE
8
BLACK
6
CONTINUOUS
10
3.82159
20
-2.36781
11
3.82647
21
-2.36293
0
LINE
8
BLACK
6
CONTINUOUS
10
3.82647
20
-2.36293
11
3.83009
21
-2.35705
0
LINE
8
BLACK
6
CONTINUOUS
10
3.83009
20
-2.35705
11
3.83226
21
-2.3505
0
LINE
8
BLACK
6
CONTINUOUS
10
3.83226
20
-2.3505
11
3.83266
21
-2.34658
0
LINE
8
BLACK
6
CONTINUOUS
10
3.83266
20
-2.34658
11
3.83268
21
-2.34633
0
LINE
8
BLACK
6
CONTINUOUS
10
3.83268
20
-2.34633
11
3.83268
21
-2.33268
0
LINE
8
BLACK
6
CONTINUOUS
10
3.83268
20
-2.33268
11
3.81299
21
-2.33268
0
LINE
8
BLACK
6
CONTINUOUS
10
3.81299
20
-2.33268
11
3.81299
21
-2.34449
0
LINE
8
BLACK
6
CONTINUOUS
10
3.76821
20
-2.29134
11
3.80315
21
-2.29134
0
LINE
8
BLACK
6
CONTINUOUS
10
3.80315
20
-2.29134
11
3.80692
21
-2.29209
0
LINE
8
BLACK
6
CONTINUOUS
10
3.80692
20
-2.29209
11
3.81011
21
-2.29422
0
LINE
8
BLACK
6
CONTINUOUS
10
3.81011
20
-2.29422
11
3.81224
21
-2.29741
0
LINE
8
BLACK
6
CONTINUOUS
10
3.81224
20
-2.29741
11
3.81299
21
-2.30118
0
LINE
8
BLACK
6
CONTINUOUS
10
3.81299
20
-2.30118
11
3.81299
21
-2.31299
0
LINE
8
BLACK
6
CONTINUOUS
10
3.81299
20
-2.31299
11
3.83268
21
-2.31299
0
LINE
8
BLACK
6
CONTINUOUS
10
3.83268
20
-2.31299
11
3.83268
21
-2.29934
0
LINE
8
BLACK
6
CONTINUOUS
10
3.83268
20
-2.29934
11
3.83266
21
-2.29909
0
LINE
8
BLACK
6
CONTINUOUS
10
3.83266
20
-2.29909
11
3.83226
21
-2.29517
0
LINE
8
BLACK
6
CONTINUOUS
10
3.83226
20
-2.29517
11
3.83009
21
-2.28862
0
LINE
8
BLACK
6
CONTINUOUS
10
3.83009
20
-2.28862
11
3.82647
21
-2.28274
0
LINE
8
BLACK
6
CONTINUOUS
10
3.82647
20
-2.28274
11
3.82159
21
-2.27786
0
LINE
8
BLACK
6
CONTINUOUS
10
3.82159
20
-2.27786
11
3.81571
21
-2.27424
0
LINE
8
BLACK
6
CONTINUOUS
10
3.81571
20
-2.27424
11
3.80916
21
-2.27207
0
LINE
8
BLACK
6
CONTINUOUS
10
3.80916
20
-2.27207
11
3.80524
21
-2.27167
0
LINE
8
BLACK
6
CONTINUOUS
10
3.80524
20
-2.27167
11
3.80499
21
-2.27165
0
LINE
8
BLACK
6
CONTINUOUS
10
3.80499
20
-2.27165
11
3.76821
21
-2.27165
0
LINE
8
BLACK
6
CONTINUOUS
10
3.76821
20
-2.27165
11
3.76821
21
-2.29134
0
LINE
8
BLACK
6
CONTINUOUS
10
3.83489
20
-2.13819
11
3.83612
21
-2.13819
0
LINE
8
BLACK
6
CONTINUOUS
10
3.83612
20
-2.13819
11
3.8373
21
-2.13857
0
LINE
8
BLACK
6
CONTINUOUS
10
3.8373
20
-2.13857
11
3.83853
21
-2.13876
0
LINE
8
BLACK
6
CONTINUOUS
10
3.83853
20
-2.13876
11
3.83963
21
-2.13933
0
LINE
8
BLACK
6
CONTINUOUS
10
3.83963
20
-2.13933
11
3.84081
21
-2.13971
0
LINE
8
BLACK
6
CONTINUOUS
10
3.84081
20
-2.13971
11
3.84181
21
-2.14044
0
LINE
8
BLACK
6
CONTINUOUS
10
3.84181
20
-2.14044
11
3.84223
21
-2.14065
0
LINE
8
BLACK
6
CONTINUOUS
10
3.84223
20
-2.14065
11
3.89317
21
-2.14065
0
LINE
8
BLACK
6
CONTINUOUS
10
3.89317
20
-2.14065
11
3.89326
21
-2.14059
0
LINE
8
BLACK
6
CONTINUOUS
10
3.89326
20
-2.14059
11
3.89641
21
-2.13996
0
LINE
8
BLACK
6
CONTINUOUS
10
3.89641
20
-2.13996
11
3.93036
21
-2.13996
0
LINE
8
BLACK
6
CONTINUOUS
10
3.93036
20
-2.13996
11
3.93351
21
-2.14059
0
LINE
8
BLACK
6
CONTINUOUS
10
3.93351
20
-2.14059
11
3.93618
21
-2.14237
0
LINE
8
BLACK
6
CONTINUOUS
10
3.93618
20
-2.14237
11
3.93796
21
-2.14503
0
LINE
8
BLACK
6
CONTINUOUS
10
3.93796
20
-2.14503
11
3.93858
21
-2.14818
0
LINE
8
BLACK
6
CONTINUOUS
10
3.93858
20
-2.14818
11
3.93858
21
-2.16462
0
LINE
8
BLACK
6
CONTINUOUS
10
3.93858
20
-2.16462
11
3.93796
21
-2.16776
0
LINE
8
BLACK
6
CONTINUOUS
10
3.93796
20
-2.16776
11
3.93618
21
-2.17043
0
LINE
8
BLACK
6
CONTINUOUS
10
3.93618
20
-2.17043
11
3.93351
21
-2.17221
0
LINE
8
BLACK
6
CONTINUOUS
10
3.93351
20
-2.17221
11
3.93036
21
-2.17283
0
LINE
8
BLACK
6
CONTINUOUS
10
3.93036
20
-2.17283
11
3.89641
21
-2.17283
0
LINE
8
BLACK
6
CONTINUOUS
10
3.89641
20
-2.17283
11
3.89326
21
-2.17221
0
LINE
8
BLACK
6
CONTINUOUS
10
3.89326
20
-2.17221
11
3.89317
21
-2.17215
0
LINE
8
BLACK
6
CONTINUOUS
10
3.89317
20
-2.17215
11
3.84941
21
-2.17215
0
LINE
8
BLACK
6
CONTINUOUS
10
3.84941
20
-2.17215
11
3.84941
21
-2.18898
0
LINE
8
BLACK
6
CONTINUOUS
10
3.84941
20
-2.18898
11
3.84864
21
-2.19384
0
LINE
8
BLACK
6
CONTINUOUS
10
3.84864
20
-2.19384
11
3.8464
21
-2.19823
0
LINE
8
BLACK
6
CONTINUOUS
10
3.8464
20
-2.19823
11
3.84292
21
-2.20172
0
LINE
8
BLACK
6
CONTINUOUS
10
3.84292
20
-2.20172
11
3.83853
21
-2.20395
0
LINE
8
BLACK
6
CONTINUOUS
10
3.83853
20
-2.20395
11
3.83366
21
-2.20472
0
LINE
8
BLACK
6
CONTINUOUS
10
3.83366
20
-2.20472
11
3.82879
21
-2.20395
0
LINE
8
BLACK
6
CONTINUOUS
10
3.82879
20
-2.20395
11
3.8244
21
-2.20172
0
LINE
8
BLACK
6
CONTINUOUS
10
3.8244
20
-2.20172
11
3.82092
21
-2.19823
0
LINE
8
BLACK
6
CONTINUOUS
10
3.82092
20
-2.19823
11
3.81868
21
-2.19384
0
LINE
8
BLACK
6
CONTINUOUS
10
3.81868
20
-2.19384
11
3.81791
21
-2.18898
0
LINE
8
BLACK
6
CONTINUOUS
10
3.81791
20
-2.18898
11
3.81791
21
-2.18898
0
LINE
8
BLACK
6
CONTINUOUS
10
3.81791
20
-2.18898
11
3.81791
21
-2.16555
0
LINE
8
BLACK
6
CONTINUOUS
10
3.81791
20
-2.16555
11
3.80118
21
-2.16555
0
LINE
8
BLACK
6
CONTINUOUS
10
3.80118
20
-2.16555
11
3.79892
21
-2.1651
0
LINE
8
BLACK
6
CONTINUOUS
10
3.79892
20
-2.1651
11
3.79701
21
-2.16382
0
LINE
8
BLACK
6
CONTINUOUS
10
3.79701
20
-2.16382
11
3.79573
21
-2.16191
0
LINE
8
BLACK
6
CONTINUOUS
10
3.79573
20
-2.16191
11
3.79528
21
-2.15965
0
LINE
8
BLACK
6
CONTINUOUS
10
3.79528
20
-2.15965
11
3.79528
21
-2.14783
0
LINE
8
BLACK
6
CONTINUOUS
10
3.79528
20
-2.14783
11
3.79573
21
-2.14557
0
LINE
8
BLACK
6
CONTINUOUS
10
3.79573
20
-2.14557
11
3.79701
21
-2.14366
0
LINE
8
BLACK
6
CONTINUOUS
10
3.79701
20
-2.14366
11
3.79892
21
-2.14238
0
LINE
8
BLACK
6
CONTINUOUS
10
3.79892
20
-2.14238
11
3.80118
21
-2.14193
0
LINE
8
BLACK
6
CONTINUOUS
10
3.80118
20
-2.14193
11
3.82346
21
-2.14193
0
LINE
8
BLACK
6
CONTINUOUS
10
3.82346
20
-2.14193
11
3.82353
21
-2.14188
0
LINE
8
BLACK
6
CONTINUOUS
10
3.82353
20
-2.14188
11
3.8244
21
-2.141
0
LINE
8
BLACK
6
CONTINUOUS
10
3.8244
20
-2.141
11
3.82551
21
-2.14044
0
LINE
8
BLACK
6
CONTINUOUS
10
3.82551
20
-2.14044
11
3.82651
21
-2.13971
0
LINE
8
BLACK
6
CONTINUOUS
10
3.82651
20
-2.13971
11
3.82769
21
-2.13933
0
LINE
8
BLACK
6
CONTINUOUS
10
3.82769
20
-2.13933
11
3.82879
21
-2.13876
0
LINE
8
BLACK
6
CONTINUOUS
10
3.82879
20
-2.13876
11
3.83002
21
-2.13857
0
LINE
8
BLACK
6
CONTINUOUS
10
3.83002
20
-2.13857
11
3.8312
21
-2.13819
0
LINE
8
BLACK
6
CONTINUOUS
10
3.8312
20
-2.13819
11
3.83244
21
-2.13819
0
LINE
8
BLACK
6
CONTINUOUS
10
3.83244
20
-2.13819
11
3.83366
21
-2.13799
0
LINE
8
BLACK
6
CONTINUOUS
10
3.83366
20
-2.13799
11
3.83489
21
-2.13819
0
LINE
8
BLACK
6
CONTINUOUS
10
3.67352
20
-2.14238
11
3.67544
21
-2.14366
0
LINE
8
BLACK
6
CONTINUOUS
10
3.67544
20
-2.14366
11
3.67672
21
-2.14557
0
LINE
8
BLACK
6
CONTINUOUS
10
3.67672
20
-2.14557
11
3.67717
21
-2.14783
0
LINE
8
BLACK
6
CONTINUOUS
10
3.67717
20
-2.14783
11
3.67717
21
-2.15965
0
LINE
8
BLACK
6
CONTINUOUS
10
3.67717
20
-2.15965
11
3.67672
21
-2.16191
0
LINE
8
BLACK
6
CONTINUOUS
10
3.67672
20
-2.16191
11
3.67544
21
-2.16382
0
LINE
8
BLACK
6
CONTINUOUS
10
3.67544
20
-2.16382
11
3.67352
21
-2.1651
0
LINE
8
BLACK
6
CONTINUOUS
10
3.67352
20
-2.1651
11
3.67126
21
-2.16555
0
LINE
8
BLACK
6
CONTINUOUS
10
3.67126
20
-2.16555
11
3.6437
21
-2.16555
0
LINE
8
BLACK
6
CONTINUOUS
10
3.6437
20
-2.16555
11
3.6437
21
-2.17059
0
LINE
8
BLACK
6
CONTINUOUS
10
3.6437
20
-2.17059
11
3.64705
21
-2.1723
0
LINE
8
BLACK
6
CONTINUOUS
10
3.64705
20
-2.1723
11
3.65054
21
-2.17578
0
LINE
8
BLACK
6
CONTINUOUS
10
3.65054
20
-2.17578
11
3.65277
21
-2.18017
0
LINE
8
BLACK
6
CONTINUOUS
10
3.65277
20
-2.18017
11
3.65354
21
-2.18504
0
LINE
8
BLACK
6
CONTINUOUS
10
3.65354
20
-2.18504
11
3.65277
21
-2.18991
0
LINE
8
BLACK
6
CONTINUOUS
10
3.65277
20
-2.18991
11
3.65054
21
-2.1943
0
LINE
8
BLACK
6
CONTINUOUS
10
3.65054
20
-2.1943
11
3.64705
21
-2.19778
0
LINE
8
BLACK
6
CONTINUOUS
10
3.64705
20
-2.19778
11
3.64266
21
-2.20002
0
LINE
8
BLACK
6
CONTINUOUS
10
3.64266
20
-2.20002
11
3.6378
21
-2.20079
0
LINE
8
BLACK
6
CONTINUOUS
10
3.6378
20
-2.20079
11
3.63293
21
-2.20002
0
LINE
8
BLACK
6
CONTINUOUS
10
3.63293
20
-2.20002
11
3.62854
21
-2.19778
0
LINE
8
BLACK
6
CONTINUOUS
10
3.62854
20
-2.19778
11
3.62505
21
-2.1943
0
LINE
8
BLACK
6
CONTINUOUS
10
3.62505
20
-2.1943
11
3.62282
21
-2.18991
0
LINE
8
BLACK
6
CONTINUOUS
10
3.62282
20
-2.18991
11
3.62205
21
-2.18504
0
LINE
8
BLACK
6
CONTINUOUS
10
3.62205
20
-2.18504
11
3.62282
21
-2.18017
0
LINE
8
BLACK
6
CONTINUOUS
10
3.62282
20
-2.18017
11
3.62505
21
-2.17578
0
LINE
8
BLACK
6
CONTINUOUS
10
3.62505
20
-2.17578
11
3.62854
21
-2.1723
0
LINE
8
BLACK
6
CONTINUOUS
10
3.62854
20
-2.1723
11
3.63293
21
-2.17006
0
LINE
8
BLACK
6
CONTINUOUS
10
3.63293
20
-2.17006
11
3.63386
21
-2.16991
0
LINE
8
BLACK
6
CONTINUOUS
10
3.63386
20
-2.16991
11
3.63386
21
-2.16555
0
LINE
8
BLACK
6
CONTINUOUS
10
3.63386
20
-2.16555
11
3.6063
21
-2.16555
0
LINE
8
BLACK
6
CONTINUOUS
10
3.6063
20
-2.16555
11
3.60404
21
-2.1651
0
LINE
8
BLACK
6
CONTINUOUS
10
3.60404
20
-2.1651
11
3.60212
21
-2.16382
0
LINE
8
BLACK
6
CONTINUOUS
10
3.60212
20
-2.16382
11
3.60084
21
-2.16191
0
LINE
8
BLACK
6
CONTINUOUS
10
3.60084
20
-2.16191
11
3.60039
21
-2.15965
0
LINE
8
BLACK
6
CONTINUOUS
10
3.60039
20
-2.15965
11
3.60039
21
-2.14783
0
LINE
8
BLACK
6
CONTINUOUS
10
3.60039
20
-2.14783
11
3.60084
21
-2.14557
0
LINE
8
BLACK
6
CONTINUOUS
10
3.60084
20
-2.14557
11
3.60212
21
-2.14366
0
LINE
8
BLACK
6
CONTINUOUS
10
3.60212
20
-2.14366
11
3.60404
21
-2.14238
0
LINE
8
BLACK
6
CONTINUOUS
10
3.60404
20
-2.14238
11
3.6063
21
-2.14193
0
LINE
8
BLACK
6
CONTINUOUS
10
3.6063
20
-2.14193
11
3.67126
21
-2.14193
0
LINE
8
BLACK
6
CONTINUOUS
10
3.67126
20
-2.14193
11
3.67352
21
-2.14238
0
LINE
8
BLACK
6
CONTINUOUS
10
3.93307
20
-2.12402
11
3.8937
21
-2.12402
0
LINE
8
BLACK
6
CONTINUOUS
10
3.8937
20
-2.12402
11
3.8937
21
-2.10925
0
LINE
8
BLACK
6
CONTINUOUS
10
3.8937
20
-2.10925
11
3.87205
21
-2.10925
0
LINE
8
BLACK
6
CONTINUOUS
10
3.87205
20
-2.10925
11
3.87205
21
-2.10965
0
LINE
8
BLACK
6
CONTINUOUS
10
3.87205
20
-2.10965
11
3.8716
21
-2.11191
0
LINE
8
BLACK
6
CONTINUOUS
10
3.8716
20
-2.11191
11
3.87032
21
-2.11382
0
LINE
8
BLACK
6
CONTINUOUS
10
3.87032
20
-2.11382
11
3.8684
21
-2.1151
0
LINE
8
BLACK
6
CONTINUOUS
10
3.8684
20
-2.1151
11
3.86614
21
-2.11555
0
LINE
8
BLACK
6
CONTINUOUS
10
3.86614
20
-2.11555
11
3.80118
21
-2.11555
0
LINE
8
BLACK
6
CONTINUOUS
10
3.80118
20
-2.11555
11
3.79892
21
-2.1151
0
LINE
8
BLACK
6
CONTINUOUS
10
3.79892
20
-2.1151
11
3.79701
21
-2.11382
0
LINE
8
BLACK
6
CONTINUOUS
10
3.79701
20
-2.11382
11
3.79573
21
-2.11191
0
LINE
8
BLACK
6
CONTINUOUS
10
3.79573
20
-2.11191
11
3.79528
21
-2.10965
0
LINE
8
BLACK
6
CONTINUOUS
10
3.79528
20
-2.10965
11
3.79528
21
-2.09783
0
LINE
8
BLACK
6
CONTINUOUS
10
3.79528
20
-2.09783
11
3.79573
21
-2.09557
0
LINE
8
BLACK
6
CONTINUOUS
10
3.79573
20
-2.09557
11
3.79701
21
-2.09366
0
LINE
8
BLACK
6
CONTINUOUS
10
3.79701
20
-2.09366
11
3.79892
21
-2.09238
0
LINE
8
BLACK
6
CONTINUOUS
10
3.79892
20
-2.09238
11
3.80118
21
-2.09193
0
LINE
8
BLACK
6
CONTINUOUS
10
3.80118
20
-2.09193
11
3.86614
21
-2.09193
0
LINE
8
BLACK
6
CONTINUOUS
10
3.86614
20
-2.09193
11
3.8684
21
-2.09238
0
LINE
8
BLACK
6
CONTINUOUS
10
3.8684
20
-2.09238
11
3.87032
21
-2.09366
0
LINE
8
BLACK
6
CONTINUOUS
10
3.87032
20
-2.09366
11
3.8716
21
-2.09557
0
LINE
8
BLACK
6
CONTINUOUS
10
3.8716
20
-2.09557
11
3.87205
21
-2.09783
0
LINE
8
BLACK
6
CONTINUOUS
10
3.87205
20
-2.09783
11
3.87205
21
-2.09941
0
LINE
8
BLACK
6
CONTINUOUS
10
3.87205
20
-2.09941
11
3.8937
21
-2.09941
0
LINE
8
BLACK
6
CONTINUOUS
10
3.8937
20
-2.09941
11
3.8937
21
-2.08465
0
LINE
8
BLACK
6
CONTINUOUS
10
3.8937
20
-2.08465
11
3.93307
21
-2.08465
0
LINE
8
BLACK
6
CONTINUOUS
10
3.93307
20
-2.08465
11
3.93307
21
-2.12402
0
LINE
8
BLACK
6
CONTINUOUS
10
3.57967
20
-2.08738
11
3.58406
21
-2.08962
0
LINE
8
BLACK
6
CONTINUOUS
10
3.58406
20
-2.08962
11
3.58754
21
-2.09311
0
LINE
8
BLACK
6
CONTINUOUS
10
3.58754
20
-2.09311
11
3.58978
21
-2.0975
0
LINE
8
BLACK
6
CONTINUOUS
10
3.58978
20
-2.0975
11
3.58999
21
-2.09882
0
LINE
8
BLACK
6
CONTINUOUS
10
3.58999
20
-2.09882
11
3.60039
21
-2.09882
0
LINE
8
BLACK
6
CONTINUOUS
10
3.60039
20
-2.09882
11
3.60039
21
-2.09783
0
LINE
8
BLACK
6
CONTINUOUS
10
3.60039
20
-2.09783
11
3.60084
21
-2.09557
0
LINE
8
BLACK
6
CONTINUOUS
10
3.60084
20
-2.09557
11
3.60212
21
-2.09366
0
LINE
8
BLACK
6
CONTINUOUS
10
3.60212
20
-2.09366
11
3.60404
21
-2.09238
0
LINE
8
BLACK
6
CONTINUOUS
10
3.60404
20
-2.09238
11
3.6063
21
-2.09193
0
LINE
8
BLACK
6
CONTINUOUS
10
3.6063
20
-2.09193
11
3.67126
21
-2.09193
0
LINE
8
BLACK
6
CONTINUOUS
10
3.67126
20
-2.09193
11
3.67352
21
-2.09238
0
LINE
8
BLACK
6
CONTINUOUS
10
3.67352
20
-2.09238
11
3.67544
21
-2.09366
0
LINE
8
BLACK
6
CONTINUOUS
10
3.67544
20
-2.09366
11
3.67672
21
-2.09557
0
LINE
8
BLACK
6
CONTINUOUS
10
3.67672
20
-2.09557
11
3.67717
21
-2.09783
0
LINE
8
BLACK
6
CONTINUOUS
10
3.67717
20
-2.09783
11
3.67717
21
-2.10965
0
LINE
8
BLACK
6
CONTINUOUS
10
3.67717
20
-2.10965
11
3.67672
21
-2.11191
0
LINE
8
BLACK
6
CONTINUOUS
10
3.67672
20
-2.11191
11
3.67544
21
-2.11382
0
LINE
8
BLACK
6
CONTINUOUS
10
3.67544
20
-2.11382
11
3.67352
21
-2.1151
0
LINE
8
BLACK
6
CONTINUOUS
10
3.67352
20
-2.1151
11
3.67126
21
-2.11555
0
LINE
8
BLACK
6
CONTINUOUS
10
3.67126
20
-2.11555
11
3.6063
21
-2.11555
0
LINE
8
BLACK
6
CONTINUOUS
10
3.6063
20
-2.11555
11
3.60404
21
-2.1151
0
LINE
8
BLACK
6
CONTINUOUS
10
3.60404
20
-2.1151
11
3.60212
21
-2.11382
0
LINE
8
BLACK
6
CONTINUOUS
10
3.60212
20
-2.11382
11
3.60084
21
-2.11191
0
LINE
8
BLACK
6
CONTINUOUS
10
3.60084
20
-2.11191
11
3.60039
21
-2.10965
0
LINE
8
BLACK
6
CONTINUOUS
10
3.60039
20
-2.10965
11
3.60039
21
-2.10866
0
LINE
8
BLACK
6
CONTINUOUS
10
3.60039
20
-2.10866
11
3.58905
21
-2.10866
0
LINE
8
BLACK
6
CONTINUOUS
10
3.58905
20
-2.10866
11
3.58754
21
-2.11162
0
LINE
8
BLACK
6
CONTINUOUS
10
3.58754
20
-2.11162
11
3.58406
21
-2.1151
0
LINE
8
BLACK
6
CONTINUOUS
10
3.58406
20
-2.1151
11
3.57967
21
-2.11734
0
LINE
8
BLACK
6
CONTINUOUS
10
3.57967
20
-2.11734
11
3.5748
21
-2.11811
0
LINE
8
BLACK
6
CONTINUOUS
10
3.5748
20
-2.11811
11
3.56994
21
-2.11734
0
LINE
8
BLACK
6
CONTINUOUS
10
3.56994
20
-2.11734
11
3.56555
21
-2.1151
0
LINE
8
BLACK
6
CONTINUOUS
10
3.56555
20
-2.1151
11
3.56206
21
-2.11162
0
LINE
8
BLACK
6
CONTINUOUS
10
3.56206
20
-2.11162
11
3.55983
21
-2.10723
0
LINE
8
BLACK
6
CONTINUOUS
10
3.55983
20
-2.10723
11
3.55906
21
-2.10236
0
LINE
8
BLACK
6
CONTINUOUS
10
3.55906
20
-2.10236
11
3.55983
21
-2.0975
0
LINE
8
BLACK
6
CONTINUOUS
10
3.55983
20
-2.0975
11
3.56206
21
-2.09311
0
LINE
8
BLACK
6
CONTINUOUS
10
3.56206
20
-2.09311
11
3.56555
21
-2.08962
0
LINE
8
BLACK
6
CONTINUOUS
10
3.56555
20
-2.08962
11
3.56994
21
-2.08738
0
LINE
8
BLACK
6
CONTINUOUS
10
3.56994
20
-2.08738
11
3.5748
21
-2.08661
0
LINE
8
BLACK
6
CONTINUOUS
10
3.5748
20
-2.08661
11
3.57967
21
-2.08738
0
LINE
8
BLACK
6
CONTINUOUS
10
3.57967
20
-2.04014
11
3.58406
21
-2.04238
0
LINE
8
BLACK
6
CONTINUOUS
10
3.58406
20
-2.04238
11
3.58754
21
-2.04586
0
LINE
8
BLACK
6
CONTINUOUS
10
3.58754
20
-2.04586
11
3.58905
21
-2.04882
0
LINE
8
BLACK
6
CONTINUOUS
10
3.58905
20
-2.04882
11
3.60039
21
-2.04882
0
LINE
8
BLACK
6
CONTINUOUS
10
3.60039
20
-2.04882
11
3.60039
21
-2.04783
0
LINE
8
BLACK
6
CONTINUOUS
10
3.60039
20
-2.04783
11
3.60084
21
-2.04557
0
LINE
8
BLACK
6
CONTINUOUS
10
3.60084
20
-2.04557
11
3.60212
21
-2.04366
0
LINE
8
BLACK
6
CONTINUOUS
10
3.60212
20
-2.04366
11
3.60404
21
-2.04238
0
LINE
8
BLACK
6
CONTINUOUS
10
3.60404
20
-2.04238
11
3.6063
21
-2.04193
0
LINE
8
BLACK
6
CONTINUOUS
10
3.6063
20
-2.04193
11
3.67126
21
-2.04193
0
LINE
8
BLACK
6
CONTINUOUS
10
3.67126
20
-2.04193
11
3.67352
21
-2.04238
0
LINE
8
BLACK
6
CONTINUOUS
10
3.67352
20
-2.04238
11
3.67544
21
-2.04366
0
LINE
8
BLACK
6
CONTINUOUS
10
3.67544
20
-2.04366
11
3.67672
21
-2.04557
0
LINE
8
BLACK
6
CONTINUOUS
10
3.67672
20
-2.04557
11
3.67717
21
-2.04783
0
LINE
8
BLACK
6
CONTINUOUS
10
3.67717
20
-2.04783
11
3.67717
21
-2.05965
0
LINE
8
BLACK
6
CONTINUOUS
10
3.67717
20
-2.05965
11
3.67672
21
-2.06191
0
LINE
8
BLACK
6
CONTINUOUS
10
3.67672
20
-2.06191
11
3.67544
21
-2.06382
0
LINE
8
BLACK
6
CONTINUOUS
10
3.67544
20
-2.06382
11
3.67352
21
-2.0651
0
LINE
8
BLACK
6
CONTINUOUS
10
3.67352
20
-2.0651
11
3.67126
21
-2.06555
0
LINE
8
BLACK
6
CONTINUOUS
10
3.67126
20
-2.06555
11
3.6063
21
-2.06555
0
LINE
8
BLACK
6
CONTINUOUS
10
3.6063
20
-2.06555
11
3.60404
21
-2.0651
0
LINE
8
BLACK
6
CONTINUOUS
10
3.60404
20
-2.0651
11
3.60212
21
-2.06382
0
LINE
8
BLACK
6
CONTINUOUS
10
3.60212
20
-2.06382
11
3.60084
21
-2.06191
0
LINE
8
BLACK
6
CONTINUOUS
10
3.60084
20
-2.06191
11
3.60039
21
-2.05965
0
LINE
8
BLACK
6
CONTINUOUS
10
3.60039
20
-2.05965
11
3.60039
21
-2.05866
0
LINE
8
BLACK
6
CONTINUOUS
10
3.60039
20
-2.05866
11
3.58999
21
-2.05866
0
LINE
8
BLACK
6
CONTINUOUS
10
3.58999
20
-2.05866
11
3.58978
21
-2.05998
0
LINE
8
BLACK
6
CONTINUOUS
10
3.58978
20
-2.05998
11
3.58754
21
-2.06437
0
LINE
8
BLACK
6
CONTINUOUS
10
3.58754
20
-2.06437
11
3.58406
21
-2.06786
0
LINE
8
BLACK
6
CONTINUOUS
10
3.58406
20
-2.06786
11
3.57967
21
-2.0701
0
LINE
8
BLACK
6
CONTINUOUS
10
3.57967
20
-2.0701
11
3.5748
21
-2.07087
0
LINE
8
BLACK
6
CONTINUOUS
10
3.5748
20
-2.07087
11
3.56994
21
-2.0701
0
LINE
8
BLACK
6
CONTINUOUS
10
3.56994
20
-2.0701
11
3.56555
21
-2.06786
0
LINE
8
BLACK
6
CONTINUOUS
10
3.56555
20
-2.06786
11
3.56206
21
-2.06437
0
LINE
8
BLACK
6
CONTINUOUS
10
3.56206
20
-2.06437
11
3.55983
21
-2.05998
0
LINE
8
BLACK
6
CONTINUOUS
10
3.55983
20
-2.05998
11
3.55906
21
-2.05512
0
LINE
8
BLACK
6
CONTINUOUS
10
3.55906
20
-2.05512
11
3.55983
21
-2.05025
0
LINE
8
BLACK
6
CONTINUOUS
10
3.55983
20
-2.05025
11
3.56206
21
-2.04586
0
LINE
8
BLACK
6
CONTINUOUS
10
3.56206
20
-2.04586
11
3.56555
21
-2.04238
0
LINE
8
BLACK
6
CONTINUOUS
10
3.56555
20
-2.04238
11
3.56994
21
-2.04014
0
LINE
8
BLACK
6
CONTINUOUS
10
3.56994
20
-2.04014
11
3.5748
21
-2.03937
0
LINE
8
BLACK
6
CONTINUOUS
10
3.5748
20
-2.03937
11
3.57967
21
-2.04014
0
LINE
8
BLACK
6
CONTINUOUS
10
3.92323
20
-2.01772
11
3.93307
21
-2.01772
0
LINE
8
BLACK
6
CONTINUOUS
10
3.93307
20
-2.01772
11
3.93307
21
-2.02756
0
LINE
8
BLACK
6
CONTINUOUS
10
3.93307
20
-2.02756
11
3.95276
21
-2.02756
0
LINE
8
BLACK
6
CONTINUOUS
10
3.95276
20
-2.02756
11
3.95276
21
-2.01596
0
LINE
8
BLACK
6
CONTINUOUS
10
3.95276
20
-2.01596
11
3.95274
21
-2.0157
0
LINE
8
BLACK
6
CONTINUOUS
10
3.95274
20
-2.0157
11
3.9525
21
-2.01349
0
LINE
8
BLACK
6
CONTINUOUS
10
3.9525
20
-2.01349
11
3.95053
21
-2.00819
0
LINE
8
BLACK
6
CONTINUOUS
10
3.95053
20
-2.00819
11
3.94713
21
-2.00365
0
LINE
8
BLACK
6
CONTINUOUS
10
3.94713
20
-2.00365
11
3.9426
21
-2.00026
0
LINE
8
BLACK
6
CONTINUOUS
10
3.9426
20
-2.00026
11
3.9373
21
-1.99828
0
LINE
8
BLACK
6
CONTINUOUS
10
3.9373
20
-1.99828
11
3.93508
21
-1.99805
0
LINE
8
BLACK
6
CONTINUOUS
10
3.93508
20
-1.99805
11
3.93482
21
-1.99803
0
LINE
8
BLACK
6
CONTINUOUS
10
3.93482
20
-1.99803
11
3.92323
21
-1.99803
0
LINE
8
BLACK
6
CONTINUOUS
10
3.92323
20
-1.99803
11
3.92323
21
-2.01772
0
LINE
8
BLACK
6
CONTINUOUS
10
3.64862
20
-1.99193
11
3.67126
21
-1.99193
0
LINE
8
BLACK
6
CONTINUOUS
10
3.67126
20
-1.99193
11
3.67352
21
-1.99238
0
LINE
8
BLACK
6
CONTINUOUS
10
3.67352
20
-1.99238
11
3.67544
21
-1.99366
0
LINE
8
BLACK
6
CONTINUOUS
10
3.67544
20
-1.99366
11
3.6756
21
-1.9939
0
LINE
8
BLACK
6
CONTINUOUS
10
3.6756
20
-1.9939
11
3.69674
21
-1.9939
0
LINE
8
BLACK
6
CONTINUOUS
10
3.69674
20
-1.9939
11
3.69674
21
-1.9939
0
LINE
8
BLACK
6
CONTINUOUS
10
3.69674
20
-1.9939
11
3.69674
21
-1.9938
0
LINE
8
BLACK
6
CONTINUOUS
10
3.69674
20
-1.9938
11
3.69493
21
-1.98759
0
LINE
8
BLACK
6
CONTINUOUS
10
3.69493
20
-1.98759
11
3.69164
21
-1.98203
0
LINE
8
BLACK
6
CONTINUOUS
10
3.69164
20
-1.98203
11
3.68707
21
-1.97745
0
LINE
8
BLACK
6
CONTINUOUS
10
3.68707
20
-1.97745
11
3.6815
21
-1.97416
0
LINE
8
BLACK
6
CONTINUOUS
10
3.6815
20
-1.97416
11
3.67529
21
-1.97236
0
LINE
8
BLACK
6
CONTINUOUS
10
3.67529
20
-1.97236
11
3.67394
21
-1.97225
0
LINE
8
BLACK
6
CONTINUOUS
10
3.67394
20
-1.97225
11
3.67375
21
-1.97224
0
LINE
8
BLACK
6
CONTINUOUS
10
3.67375
20
-1.97224
11
3.64862
21
-1.97224
0
LINE
8
BLACK
6
CONTINUOUS
10
3.64862
20
-1.97224
11
3.64862
21
-1.99193
0
LINE
8
BLACK
6
CONTINUOUS
10
3.72439
20
-2.84047
11
3.7244
21
-2.8406
0
LINE
8
BLACK
6
CONTINUOUS
10
3.7244
20
-2.8406
11
3.7244
21
-2.8406
0
LINE
8
BLACK
6
CONTINUOUS
10
3.7244
20
-2.8406
11
3.72464
21
-2.84281
0
LINE
8
BLACK
6
CONTINUOUS
10
3.72464
20
-2.84281
11
3.72563
21
-2.84547
0
LINE
8
BLACK
6
CONTINUOUS
10
3.72563
20
-2.84547
11
3.72662
21
-2.84812
0
LINE
8
BLACK
6
CONTINUOUS
10
3.72662
20
-2.84812
11
3.72735
21
-2.8491
0
LINE
8
BLACK
6
CONTINUOUS
10
3.72735
20
-2.8491
11
3.72831
21
-2.85168
0
LINE
8
BLACK
6
CONTINUOUS
10
3.72831
20
-2.85168
11
3.72833
21
-2.85203
0
LINE
8
BLACK
6
CONTINUOUS
10
3.72833
20
-2.85203
11
3.72833
21
-2.86009
0
LINE
8
BLACK
6
CONTINUOUS
10
3.72833
20
-2.86009
11
3.7283
21
-2.8606
0
LINE
8
BLACK
6
CONTINUOUS
10
3.7283
20
-2.8606
11
3.72813
21
-2.8622
0
LINE
8
BLACK
6
CONTINUOUS
10
3.72813
20
-2.8622
11
3.72891
21
-2.86962
0
LINE
8
BLACK
6
CONTINUOUS
10
3.72891
20
-2.86962
11
3.73121
21
-2.8767
0
LINE
8
BLACK
6
CONTINUOUS
10
3.73121
20
-2.8767
11
3.73494
21
-2.88316
0
LINE
8
BLACK
6
CONTINUOUS
10
3.73494
20
-2.88316
11
3.73993
21
-2.8887
0
LINE
8
BLACK
6
CONTINUOUS
10
3.73993
20
-2.8887
11
3.74596
21
-2.89308
0
LINE
8
BLACK
6
CONTINUOUS
10
3.74596
20
-2.89308
11
3.75276
21
-2.89611
0
LINE
8
BLACK
6
CONTINUOUS
10
3.75276
20
-2.89611
11
3.76005
21
-2.89766
0
LINE
8
BLACK
6
CONTINUOUS
10
3.76005
20
-2.89766
11
3.76005
21
-2.89766
0
LINE
8
BLACK
6
CONTINUOUS
10
3.76005
20
-2.89766
11
3.76751
21
-2.89766
0
LINE
8
BLACK
6
CONTINUOUS
10
3.76751
20
-2.89766
11
3.77237
21
-2.89662
0
LINE
8
BLACK
6
CONTINUOUS
10
3.77237
20
-2.89662
11
3.7748
21
-2.89611
0
LINE
8
BLACK
6
CONTINUOUS
10
3.7748
20
-2.89611
11
3.7816
21
-2.89308
0
LINE
8
BLACK
6
CONTINUOUS
10
3.7816
20
-2.89308
11
3.78763
21
-2.8887
0
LINE
8
BLACK
6
CONTINUOUS
10
3.78763
20
-2.8887
11
3.79262
21
-2.88316
0
LINE
8
BLACK
6
CONTINUOUS
10
3.79262
20
-2.88316
11
3.79635
21
-2.8767
0
LINE
8
BLACK
6
CONTINUOUS
10
3.79635
20
-2.8767
11
3.79865
21
-2.86962
0
LINE
8
BLACK
6
CONTINUOUS
10
3.79865
20
-2.86962
11
3.79943
21
-2.8622
0
LINE
8
BLACK
6
CONTINUOUS
10
3.79943
20
-2.8622
11
3.79926
21
-2.8606
0
LINE
8
BLACK
6
CONTINUOUS
10
3.79926
20
-2.8606
11
3.79923
21
-2.86009
0
LINE
8
BLACK
6
CONTINUOUS
10
3.79923
20
-2.86009
11
3.79923
21
-2.85203
0
LINE
8
BLACK
6
CONTINUOUS
10
3.79923
20
-2.85203
11
3.80001
21
-2.84939
0
LINE
8
BLACK
6
CONTINUOUS
10
3.80001
20
-2.84939
11
3.80021
21
-2.8491
0
LINE
8
BLACK
6
CONTINUOUS
10
3.80021
20
-2.8491
11
3.80094
21
-2.84812
0
LINE
8
BLACK
6
CONTINUOUS
10
3.80094
20
-2.84812
11
3.80292
21
-2.84281
0
LINE
8
BLACK
6
CONTINUOUS
10
3.80292
20
-2.84281
11
3.80317
21
-2.84047
0
LINE
8
BLACK
6
CONTINUOUS
10
3.80317
20
-2.84047
11
3.80317
21
-2.78642
0
LINE
8
BLACK
6
CONTINUOUS
10
3.80317
20
-2.78642
11
3.80317
21
-2.76673
0
LINE
8
BLACK
6
CONTINUOUS
10
3.80317
20
-2.76673
11
3.80317
21
-2.71268
0
LINE
8
BLACK
6
CONTINUOUS
10
3.80317
20
-2.71268
11
3.80292
21
-2.71034
0
LINE
8
BLACK
6
CONTINUOUS
10
3.80292
20
-2.71034
11
3.80094
21
-2.70503
0
LINE
8
BLACK
6
CONTINUOUS
10
3.80094
20
-2.70503
11
3.79754
21
-2.70049
0
LINE
8
BLACK
6
CONTINUOUS
10
3.79754
20
-2.70049
11
3.79301
21
-2.69709
0
LINE
8
BLACK
6
CONTINUOUS
10
3.79301
20
-2.69709
11
3.7877
21
-2.69511
0
LINE
8
BLACK
6
CONTINUOUS
10
3.7877
20
-2.69511
11
3.78566
21
-2.6949
0
LINE
8
BLACK
6
CONTINUOUS
10
3.78566
20
-2.6949
11
3.78548
21
-2.69488
0
LINE
8
BLACK
6
CONTINUOUS
10
3.78548
20
-2.69488
11
3.78548
21
-2.69488
0
LINE
8
BLACK
6
CONTINUOUS
10
3.78548
20
-2.69488
11
3.78535
21
-2.69486
0
LINE
8
BLACK
6
CONTINUOUS
10
3.78535
20
-2.69486
11
3.78522
21
-2.69486
0
LINE
8
BLACK
6
CONTINUOUS
10
3.78522
20
-2.69486
11
3.74234
21
-2.69486
0
LINE
8
BLACK
6
CONTINUOUS
10
3.74234
20
-2.69486
11
3.74234
21
-2.69486
0
LINE
8
BLACK
6
CONTINUOUS
10
3.74234
20
-2.69486
11
3.74221
21
-2.69486
0
LINE
8
BLACK
6
CONTINUOUS
10
3.74221
20
-2.69486
11
3.74208
21
-2.69488
0
LINE
8
BLACK
6
CONTINUOUS
10
3.74208
20
-2.69488
11
3.74208
21
-2.69488
0
LINE
8
BLACK
6
CONTINUOUS
10
3.74208
20
-2.69488
11
3.73986
21
-2.69511
0
LINE
8
BLACK
6
CONTINUOUS
10
3.73986
20
-2.69511
11
3.73455
21
-2.69709
0
LINE
8
BLACK
6
CONTINUOUS
10
3.73455
20
-2.69709
11
3.73002
21
-2.70049
0
LINE
8
BLACK
6
CONTINUOUS
10
3.73002
20
-2.70049
11
3.72662
21
-2.70503
0
LINE
8
BLACK
6
CONTINUOUS
10
3.72662
20
-2.70503
11
3.72464
21
-2.71034
0
LINE
8
BLACK
6
CONTINUOUS
10
3.72464
20
-2.71034
11
3.72464
21
-2.71034
0
LINE
8
BLACK
6
CONTINUOUS
10
3.72464
20
-2.71034
11
3.72439
21
-2.71268
0
LINE
8
BLACK
6
CONTINUOUS
10
3.72439
20
-2.71268
11
3.72439
21
-2.71281
0
LINE
8
BLACK
6
CONTINUOUS
10
3.72439
20
-2.71281
11
3.72439
21
-2.71281
0
LINE
8
BLACK
6
CONTINUOUS
10
3.72439
20
-2.71281
11
3.72439
21
-2.84034
0
LINE
8
BLACK
6
CONTINUOUS
10
3.72439
20
-2.84034
11
3.72439
21
-2.84034
0
LINE
8
BLACK
6
CONTINUOUS
10
3.72439
20
-2.84034
11
3.72439
21
-2.84047
0
LINE
8
BLACK
6
CONTINUOUS
10
3.84409
20
-2.76673
11
3.84409
21
-2.71457
0
LINE
8
BLACK
6
CONTINUOUS
10
3.84409
20
-2.71457
11
3.85394
21
-2.71457
0
LINE
8
BLACK
6
CONTINUOUS
10
3.85394
20
-2.71457
11
3.85394
21
-2.69488
0
LINE
8
BLACK
6
CONTINUOUS
10
3.85394
20
-2.69488
11
3.84234
21
-2.69488
0
LINE
8
BLACK
6
CONTINUOUS
10
3.84234
20
-2.69488
11
3.84208
21
-2.6949
0
LINE
8
BLACK
6
CONTINUOUS
10
3.84208
20
-2.6949
11
3.83987
21
-2.69513
0
LINE
8
BLACK
6
CONTINUOUS
10
3.83987
20
-2.69513
11
3.83456
21
-2.69711
0
LINE
8
BLACK
6
CONTINUOUS
10
3.83456
20
-2.69711
11
3.83003
21
-2.7005
0
LINE
8
BLACK
6
CONTINUOUS
10
3.83003
20
-2.7005
11
3.82664
21
-2.70504
0
LINE
8
BLACK
6
CONTINUOUS
10
3.82664
20
-2.70504
11
3.82466
21
-2.71034
0
LINE
8
BLACK
6
CONTINUOUS
10
3.82466
20
-2.71034
11
3.82442
21
-2.71255
0
LINE
8
BLACK
6
CONTINUOUS
10
3.82442
20
-2.71255
11
3.82441
21
-2.71281
0
LINE
8
BLACK
6
CONTINUOUS
10
3.82441
20
-2.71281
11
3.82441
21
-2.76673
0
LINE
8
BLACK
6
CONTINUOUS
10
3.82441
20
-2.76673
11
3.84409
21
-2.76673
0
LINE
8
BLACK
6
CONTINUOUS
10
3.84409
20
-2.56791
11
3.84409
21
-2.51575
0
LINE
8
BLACK
6
CONTINUOUS
10
3.84409
20
-2.51575
11
3.85394
21
-2.51575
0
LINE
8
BLACK
6
CONTINUOUS
10
3.85394
20
-2.51575
11
3.85394
21
-2.49606
0
LINE
8
BLACK
6
CONTINUOUS
10
3.85394
20
-2.49606
11
3.84234
21
-2.49606
0
LINE
8
BLACK
6
CONTINUOUS
10
3.84234
20
-2.49606
11
3.84208
21
-2.49608
0
LINE
8
BLACK
6
CONTINUOUS
10
3.84208
20
-2.49608
11
3.83987
21
-2.49631
0
LINE
8
BLACK
6
CONTINUOUS
10
3.83987
20
-2.49631
11
3.83456
21
-2.49829
0
LINE
8
BLACK
6
CONTINUOUS
10
3.83456
20
-2.49829
11
3.83003
21
-2.50169
0
LINE
8
BLACK
6
CONTINUOUS
10
3.83003
20
-2.50169
11
3.82664
21
-2.50622
0
LINE
8
BLACK
6
CONTINUOUS
10
3.82664
20
-2.50622
11
3.82466
21
-2.51152
0
LINE
8
BLACK
6
CONTINUOUS
10
3.82466
20
-2.51152
11
3.82442
21
-2.51373
0
LINE
8
BLACK
6
CONTINUOUS
10
3.82442
20
-2.51373
11
3.82441
21
-2.514
0
LINE
8
BLACK
6
CONTINUOUS
10
3.82441
20
-2.514
11
3.82441
21
-2.56791
0
LINE
8
BLACK
6
CONTINUOUS
10
3.82441
20
-2.56791
11
3.84409
21
-2.56791
0
LINE
8
BLACK
6
CONTINUOUS
10
2.90924
20
-2.3623
11
2.91001
21
-2.38145
0
LINE
8
BLACK
6
CONTINUOUS
10
2.91001
20
-2.38145
11
2.91001
21
-2.38145
0
LINE
8
BLACK
6
CONTINUOUS
10
2.91001
20
-2.38145
11
2.91001
21
-2.38155
0
LINE
8
BLACK
6
CONTINUOUS
10
2.91001
20
-2.38155
11
2.91003
21
-2.38164
0
LINE
8
BLACK
6
CONTINUOUS
10
2.91003
20
-2.38164
11
2.91003
21
-2.38164
0
LINE
8
BLACK
6
CONTINUOUS
10
2.91003
20
-2.38164
11
2.91234
21
-2.40067
0
LINE
8
BLACK
6
CONTINUOUS
10
2.91234
20
-2.40067
11
2.91234
21
-2.40067
0
LINE
8
BLACK
6
CONTINUOUS
10
2.91234
20
-2.40067
11
2.91235
21
-2.40076
0
LINE
8
BLACK
6
CONTINUOUS
10
2.91235
20
-2.40076
11
2.91237
21
-2.40086
0
LINE
8
BLACK
6
CONTINUOUS
10
2.91237
20
-2.40086
11
2.91237
21
-2.40086
0
LINE
8
BLACK
6
CONTINUOUS
10
2.91237
20
-2.40086
11
2.91543
21
-2.41585
0
LINE
8
BLACK
6
CONTINUOUS
10
2.91543
20
-2.41585
11
2.91622
21
-2.41973
0
LINE
8
BLACK
6
CONTINUOUS
10
2.91622
20
-2.41973
11
2.91625
21
-2.41982
0
LINE
8
BLACK
6
CONTINUOUS
10
2.91625
20
-2.41982
11
2.91625
21
-2.41982
0
LINE
8
BLACK
6
CONTINUOUS
10
2.91625
20
-2.41982
11
2.91787
21
-2.42542
0
LINE
8
BLACK
6
CONTINUOUS
10
2.91787
20
-2.42542
11
2.9216
21
-2.43832
0
LINE
8
BLACK
6
CONTINUOUS
10
2.9216
20
-2.43832
11
2.92847
21
-2.45642
0
LINE
8
BLACK
6
CONTINUOUS
10
2.92847
20
-2.45642
11
2.92851
21
-2.45651
0
LINE
8
BLACK
6
CONTINUOUS
10
2.92851
20
-2.45651
11
2.92851
21
-2.45651
0
LINE
8
BLACK
6
CONTINUOUS
10
2.92851
20
-2.45651
11
2.93673
21
-2.47382
0
LINE
8
BLACK
6
CONTINUOUS
10
2.93673
20
-2.47382
11
2.93673
21
-2.47382
0
LINE
8
BLACK
6
CONTINUOUS
10
2.93673
20
-2.47382
11
2.93677
21
-2.47391
0
LINE
8
BLACK
6
CONTINUOUS
10
2.93677
20
-2.47391
11
2.94645
21
-2.49068
0
LINE
8
BLACK
6
CONTINUOUS
10
2.94645
20
-2.49068
11
2.9465
21
-2.49076
0
LINE
8
BLACK
6
CONTINUOUS
10
2.9465
20
-2.49076
11
2.9465
21
-2.49076
0
LINE
8
BLACK
6
CONTINUOUS
10
2.9465
20
-2.49076
11
2.95739
21
-2.50653
0
LINE
8
BLACK
6
CONTINUOUS
10
2.95739
20
-2.50653
11
2.95744
21
-2.50661
0
LINE
8
BLACK
6
CONTINUOUS
10
2.95744
20
-2.50661
11
2.96969
21
-2.5216
0
LINE
8
BLACK
6
CONTINUOUS
10
2.96969
20
-2.5216
11
2.98309
21
-2.53556
0
LINE
8
BLACK
6
CONTINUOUS
10
2.98309
20
-2.53556
11
2.98317
21
-2.53563
0
LINE
8
BLACK
6
CONTINUOUS
10
2.98317
20
-2.53563
11
2.98317
21
-2.53563
0
LINE
8
BLACK
6
CONTINUOUS
10
2.98317
20
-2.53563
11
2.99157
21
-2.54307
0
LINE
8
BLACK
6
CONTINUOUS
10
2.99157
20
-2.54307
11
2.99758
21
-2.5484
0
LINE
8
BLACK
6
CONTINUOUS
10
2.99758
20
-2.5484
11
2.99766
21
-2.54846
0
LINE
8
BLACK
6
CONTINUOUS
10
2.99766
20
-2.54846
11
2.99766
21
-2.54846
0
LINE
8
BLACK
6
CONTINUOUS
10
2.99766
20
-2.54846
11
3.01298
21
-2.55997
0
LINE
8
BLACK
6
CONTINUOUS
10
3.01298
20
-2.55997
11
3.01298
21
-2.55997
0
LINE
8
BLACK
6
CONTINUOUS
10
3.01298
20
-2.55997
11
3.01306
21
-2.56003
0
LINE
8
BLACK
6
CONTINUOUS
10
3.01306
20
-2.56003
11
3.02942
21
-2.57037
0
LINE
8
BLACK
6
CONTINUOUS
10
3.02942
20
-2.57037
11
3.04656
21
-2.57937
0
LINE
8
BLACK
6
CONTINUOUS
10
3.04656
20
-2.57937
11
3.06437
21
-2.58696
0
LINE
8
BLACK
6
CONTINUOUS
10
3.06437
20
-2.58696
11
3.08273
21
-2.59309
0
LINE
8
BLACK
6
CONTINUOUS
10
3.08273
20
-2.59309
11
3.10153
21
-2.59772
0
LINE
8
BLACK
6
CONTINUOUS
10
3.10153
20
-2.59772
11
3.12063
21
-2.60082
0
LINE
8
BLACK
6
CONTINUOUS
10
3.12063
20
-2.60082
11
3.13993
21
-2.60238
0
LINE
8
BLACK
6
CONTINUOUS
10
3.13993
20
-2.60238
11
3.14003
21
-2.60238
0
LINE
8
BLACK
6
CONTINUOUS
10
3.14003
20
-2.60238
11
3.15919
21
-2.60238
0
LINE
8
BLACK
6
CONTINUOUS
10
3.15919
20
-2.60238
11
3.15929
21
-2.60238
0
LINE
8
BLACK
6
CONTINUOUS
10
3.15929
20
-2.60238
11
3.17858
21
-2.60082
0
LINE
8
BLACK
6
CONTINUOUS
10
3.17858
20
-2.60082
11
3.19769
21
-2.59772
0
LINE
8
BLACK
6
CONTINUOUS
10
3.19769
20
-2.59772
11
3.21648
21
-2.59309
0
LINE
8
BLACK
6
CONTINUOUS
10
3.21648
20
-2.59309
11
3.23484
21
-2.58696
0
LINE
8
BLACK
6
CONTINUOUS
10
3.23484
20
-2.58696
11
3.25265
21
-2.57937
0
LINE
8
BLACK
6
CONTINUOUS
10
3.25265
20
-2.57937
11
3.26979
21
-2.57037
0
LINE
8
BLACK
6
CONTINUOUS
10
3.26979
20
-2.57037
11
3.28615
21
-2.56003
0
LINE
8
BLACK
6
CONTINUOUS
10
3.28615
20
-2.56003
11
3.30163
21
-2.5484
0
LINE
8
BLACK
6
CONTINUOUS
10
3.30163
20
-2.5484
11
3.31612
21
-2.53556
0
LINE
8
BLACK
6
CONTINUOUS
10
3.31612
20
-2.53556
11
3.32953
21
-2.5216
0
LINE
8
BLACK
6
CONTINUOUS
10
3.32953
20
-2.5216
11
3.34177
21
-2.50661
0
LINE
8
BLACK
6
CONTINUOUS
10
3.34177
20
-2.50661
11
3.35277
21
-2.49068
0
LINE
8
BLACK
6
CONTINUOUS
10
3.35277
20
-2.49068
11
3.36245
21
-2.47391
0
LINE
8
BLACK
6
CONTINUOUS
10
3.36245
20
-2.47391
11
3.37074
21
-2.45642
0
LINE
8
BLACK
6
CONTINUOUS
10
3.37074
20
-2.45642
11
3.37761
21
-2.43832
0
LINE
8
BLACK
6
CONTINUOUS
10
3.37761
20
-2.43832
11
3.38299
21
-2.41973
0
LINE
8
BLACK
6
CONTINUOUS
10
3.38299
20
-2.41973
11
3.38687
21
-2.40076
0
LINE
8
BLACK
6
CONTINUOUS
10
3.38687
20
-2.40076
11
3.3892
21
-2.38155
0
LINE
8
BLACK
6
CONTINUOUS
10
3.3892
20
-2.38155
11
3.38998
21
-2.3622
0
LINE
8
BLACK
6
CONTINUOUS
10
3.38998
20
-2.3622
11
3.3892
21
-2.34286
0
LINE
8
BLACK
6
CONTINUOUS
10
3.3892
20
-2.34286
11
3.38687
21
-2.32365
0
LINE
8
BLACK
6
CONTINUOUS
10
3.38687
20
-2.32365
11
3.38299
21
-2.30468
0
LINE
8
BLACK
6
CONTINUOUS
10
3.38299
20
-2.30468
11
3.37761
21
-2.28609
0
LINE
8
BLACK
6
CONTINUOUS
10
3.37761
20
-2.28609
11
3.37074
21
-2.26799
0
LINE
8
BLACK
6
CONTINUOUS
10
3.37074
20
-2.26799
11
3.3625
21
-2.25061
0
LINE
8
BLACK
6
CONTINUOUS
10
3.3625
20
-2.25061
11
3.36249
21
-2.25059
0
LINE
8
BLACK
6
CONTINUOUS
10
3.36249
20
-2.25059
11
3.36249
21
-2.25059
0
LINE
8
BLACK
6
CONTINUOUS
10
3.36249
20
-2.25059
11
3.36245
21
-2.2505
0
LINE
8
BLACK
6
CONTINUOUS
10
3.36245
20
-2.2505
11
3.35277
21
-2.23373
0
LINE
8
BLACK
6
CONTINUOUS
10
3.35277
20
-2.23373
11
3.34177
21
-2.2178
0
LINE
8
BLACK
6
CONTINUOUS
10
3.34177
20
-2.2178
11
3.32953
21
-2.20281
0
LINE
8
BLACK
6
CONTINUOUS
10
3.32953
20
-2.20281
11
3.31612
21
-2.18885
0
LINE
8
BLACK
6
CONTINUOUS
10
3.31612
20
-2.18885
11
3.31536
21
-2.18817
0
LINE
8
BLACK
6
CONTINUOUS
10
3.31536
20
-2.18817
11
3.3017
21
-2.17608
0
LINE
8
BLACK
6
CONTINUOUS
10
3.3017
20
-2.17608
11
3.3017
21
-2.17608
0
LINE
8
BLACK
6
CONTINUOUS
10
3.3017
20
-2.17608
11
3.30163
21
-2.17601
0
LINE
8
BLACK
6
CONTINUOUS
10
3.30163
20
-2.17601
11
3.30155
21
-2.17595
0
LINE
8
BLACK
6
CONTINUOUS
10
3.30155
20
-2.17595
11
3.30155
21
-2.17595
0
LINE
8
BLACK
6
CONTINUOUS
10
3.30155
20
-2.17595
11
3.28623
21
-2.16444
0
LINE
8
BLACK
6
CONTINUOUS
10
3.28623
20
-2.16444
11
3.28623
21
-2.16444
0
LINE
8
BLACK
6
CONTINUOUS
10
3.28623
20
-2.16444
11
3.28615
21
-2.16438
0
LINE
8
BLACK
6
CONTINUOUS
10
3.28615
20
-2.16438
11
3.28607
21
-2.16433
0
LINE
8
BLACK
6
CONTINUOUS
10
3.28607
20
-2.16433
11
3.28607
21
-2.16433
0
LINE
8
BLACK
6
CONTINUOUS
10
3.28607
20
-2.16433
11
3.26988
21
-2.15409
0
LINE
8
BLACK
6
CONTINUOUS
10
3.26988
20
-2.15409
11
3.26979
21
-2.15404
0
LINE
8
BLACK
6
CONTINUOUS
10
3.26979
20
-2.15404
11
3.26971
21
-2.15399
0
LINE
8
BLACK
6
CONTINUOUS
10
3.26971
20
-2.15399
11
3.26971
21
-2.15399
0
LINE
8
BLACK
6
CONTINUOUS
10
3.26971
20
-2.15399
11
3.25274
21
-2.14509
0
LINE
8
BLACK
6
CONTINUOUS
10
3.25274
20
-2.14509
11
3.25274
21
-2.14509
0
LINE
8
BLACK
6
CONTINUOUS
10
3.25274
20
-2.14509
11
3.25265
21
-2.14504
0
LINE
8
BLACK
6
CONTINUOUS
10
3.25265
20
-2.14504
11
3.25256
21
-2.145
0
LINE
8
BLACK
6
CONTINUOUS
10
3.25256
20
-2.145
11
3.25256
21
-2.145
0
LINE
8
BLACK
6
CONTINUOUS
10
3.25256
20
-2.145
11
3.23493
21
-2.13749
0
LINE
8
BLACK
6
CONTINUOUS
10
3.23493
20
-2.13749
11
3.23493
21
-2.13749
0
LINE
8
BLACK
6
CONTINUOUS
10
3.23493
20
-2.13749
11
3.23484
21
-2.13745
0
LINE
8
BLACK
6
CONTINUOUS
10
3.23484
20
-2.13745
11
3.22221
21
-2.13323
0
LINE
8
BLACK
6
CONTINUOUS
10
3.22221
20
-2.13323
11
3.21657
21
-2.13135
0
LINE
8
BLACK
6
CONTINUOUS
10
3.21657
20
-2.13135
11
3.21657
21
-2.13135
0
LINE
8
BLACK
6
CONTINUOUS
10
3.21657
20
-2.13135
11
3.21648
21
-2.13132
0
LINE
8
BLACK
6
CONTINUOUS
10
3.21648
20
-2.13132
11
3.21449
21
-2.13083
0
LINE
8
BLACK
6
CONTINUOUS
10
3.21449
20
-2.13083
11
3.19778
21
-2.12671
0
LINE
8
BLACK
6
CONTINUOUS
10
3.19778
20
-2.12671
11
3.19778
21
-2.12671
0
LINE
8
BLACK
6
CONTINUOUS
10
3.19778
20
-2.12671
11
3.19769
21
-2.12669
0
LINE
8
BLACK
6
CONTINUOUS
10
3.19769
20
-2.12669
11
3.19759
21
-2.12667
0
LINE
8
BLACK
6
CONTINUOUS
10
3.19759
20
-2.12667
11
3.19759
21
-2.12667
0
LINE
8
BLACK
6
CONTINUOUS
10
3.19759
20
-2.12667
11
3.17868
21
-2.1236
0
LINE
8
BLACK
6
CONTINUOUS
10
3.17868
20
-2.1236
11
3.17868
21
-2.1236
0
LINE
8
BLACK
6
CONTINUOUS
10
3.17868
20
-2.1236
11
3.17858
21
-2.12359
0
LINE
8
BLACK
6
CONTINUOUS
10
3.17858
20
-2.12359
11
3.17848
21
-2.12358
0
LINE
8
BLACK
6
CONTINUOUS
10
3.17848
20
-2.12358
11
3.17848
21
-2.12358
0
LINE
8
BLACK
6
CONTINUOUS
10
3.17848
20
-2.12358
11
3.15938
21
-2.12204
0
LINE
8
BLACK
6
CONTINUOUS
10
3.15938
20
-2.12204
11
3.15938
21
-2.12204
0
LINE
8
BLACK
6
CONTINUOUS
10
3.15938
20
-2.12204
11
3.15929
21
-2.12203
0
LINE
8
BLACK
6
CONTINUOUS
10
3.15929
20
-2.12203
11
3.13993
21
-2.12203
0
LINE
8
BLACK
6
CONTINUOUS
10
3.13993
20
-2.12203
11
3.13983
21
-2.12204
0
LINE
8
BLACK
6
CONTINUOUS
10
3.13983
20
-2.12204
11
3.13983
21
-2.12204
0
LINE
8
BLACK
6
CONTINUOUS
10
3.13983
20
-2.12204
11
3.12073
21
-2.12358
0
LINE
8
BLACK
6
CONTINUOUS
10
3.12073
20
-2.12358
11
3.12073
21
-2.12358
0
LINE
8
BLACK
6
CONTINUOUS
10
3.12073
20
-2.12358
11
3.12063
21
-2.12359
0
LINE
8
BLACK
6
CONTINUOUS
10
3.12063
20
-2.12359
11
3.12054
21
-2.1236
0
LINE
8
BLACK
6
CONTINUOUS
10
3.12054
20
-2.1236
11
3.12054
21
-2.1236
0
LINE
8
BLACK
6
CONTINUOUS
10
3.12054
20
-2.1236
11
3.10162
21
-2.12667
0
LINE
8
BLACK
6
CONTINUOUS
10
3.10162
20
-2.12667
11
3.10162
21
-2.12667
0
LINE
8
BLACK
6
CONTINUOUS
10
3.10162
20
-2.12667
11
3.10153
21
-2.12669
0
LINE
8
BLACK
6
CONTINUOUS
10
3.10153
20
-2.12669
11
3.10143
21
-2.12671
0
LINE
8
BLACK
6
CONTINUOUS
10
3.10143
20
-2.12671
11
3.10143
21
-2.12671
0
LINE
8
BLACK
6
CONTINUOUS
10
3.10143
20
-2.12671
11
3.08283
21
-2.1313
0
LINE
8
BLACK
6
CONTINUOUS
10
3.08283
20
-2.1313
11
3.08283
21
-2.1313
0
LINE
8
BLACK
6
CONTINUOUS
10
3.08283
20
-2.1313
11
3.08273
21
-2.13132
0
LINE
8
BLACK
6
CONTINUOUS
10
3.08273
20
-2.13132
11
3.08264
21
-2.13135
0
LINE
8
BLACK
6
CONTINUOUS
10
3.08264
20
-2.13135
11
3.08264
21
-2.13135
0
LINE
8
BLACK
6
CONTINUOUS
10
3.08264
20
-2.13135
11
3.06446
21
-2.13742
0
LINE
8
BLACK
6
CONTINUOUS
10
3.06446
20
-2.13742
11
3.06437
21
-2.13745
0
LINE
8
BLACK
6
CONTINUOUS
10
3.06437
20
-2.13745
11
3.06428
21
-2.13749
0
LINE
8
BLACK
6
CONTINUOUS
10
3.06428
20
-2.13749
11
3.06428
21
-2.13749
0
LINE
8
BLACK
6
CONTINUOUS
10
3.06428
20
-2.13749
11
3.04665
21
-2.145
0
LINE
8
BLACK
6
CONTINUOUS
10
3.04665
20
-2.145
11
3.04665
21
-2.145
0
LINE
8
BLACK
6
CONTINUOUS
10
3.04665
20
-2.145
11
3.04656
21
-2.14504
0
LINE
8
BLACK
6
CONTINUOUS
10
3.04656
20
-2.14504
11
3.04647
21
-2.14509
0
LINE
8
BLACK
6
CONTINUOUS
10
3.04647
20
-2.14509
11
3.04647
21
-2.14509
0
LINE
8
BLACK
6
CONTINUOUS
10
3.04647
20
-2.14509
11
3.02951
21
-2.15399
0
LINE
8
BLACK
6
CONTINUOUS
10
3.02951
20
-2.15399
11
3.02951
21
-2.15399
0
LINE
8
BLACK
6
CONTINUOUS
10
3.02951
20
-2.15399
11
3.02942
21
-2.15404
0
LINE
8
BLACK
6
CONTINUOUS
10
3.02942
20
-2.15404
11
3.02934
21
-2.15409
0
LINE
8
BLACK
6
CONTINUOUS
10
3.02934
20
-2.15409
11
3.02934
21
-2.15409
0
LINE
8
BLACK
6
CONTINUOUS
10
3.02934
20
-2.15409
11
3.01314
21
-2.16433
0
LINE
8
BLACK
6
CONTINUOUS
10
3.01314
20
-2.16433
11
3.01314
21
-2.16433
0
LINE
8
BLACK
6
CONTINUOUS
10
3.01314
20
-2.16433
11
3.01306
21
-2.16438
0
LINE
8
BLACK
6
CONTINUOUS
10
3.01306
20
-2.16438
11
3.01298
21
-2.16444
0
LINE
8
BLACK
6
CONTINUOUS
10
3.01298
20
-2.16444
11
3.01298
21
-2.16444
0
LINE
8
BLACK
6
CONTINUOUS
10
3.01298
20
-2.16444
11
2.99766
21
-2.17595
0
LINE
8
BLACK
6
CONTINUOUS
10
2.99766
20
-2.17595
11
2.99766
21
-2.17595
0
LINE
8
BLACK
6
CONTINUOUS
10
2.99766
20
-2.17595
11
2.99758
21
-2.17601
0
LINE
8
BLACK
6
CONTINUOUS
10
2.99758
20
-2.17601
11
2.99751
21
-2.17608
0
LINE
8
BLACK
6
CONTINUOUS
10
2.99751
20
-2.17608
11
2.99751
21
-2.17608
0
LINE
8
BLACK
6
CONTINUOUS
10
2.99751
20
-2.17608
11
2.98317
21
-2.18878
0
LINE
8
BLACK
6
CONTINUOUS
10
2.98317
20
-2.18878
11
2.98317
21
-2.18878
0
LINE
8
BLACK
6
CONTINUOUS
10
2.98317
20
-2.18878
11
2.98309
21
-2.18885
0
LINE
8
BLACK
6
CONTINUOUS
10
2.98309
20
-2.18885
11
2.98303
21
-2.18892
0
LINE
8
BLACK
6
CONTINUOUS
10
2.98303
20
-2.18892
11
2.98303
21
-2.18892
0
LINE
8
BLACK
6
CONTINUOUS
10
2.98303
20
-2.18892
11
2.96975
21
-2.20274
0
LINE
8
BLACK
6
CONTINUOUS
10
2.96975
20
-2.20274
11
2.96975
21
-2.20274
0
LINE
8
BLACK
6
CONTINUOUS
10
2.96975
20
-2.20274
11
2.96969
21
-2.20281
0
LINE
8
BLACK
6
CONTINUOUS
10
2.96969
20
-2.20281
11
2.96962
21
-2.20288
0
LINE
8
BLACK
6
CONTINUOUS
10
2.96962
20
-2.20288
11
2.96962
21
-2.20288
0
LINE
8
BLACK
6
CONTINUOUS
10
2.96962
20
-2.20288
11
2.9575
21
-2.21773
0
LINE
8
BLACK
6
CONTINUOUS
10
2.9575
20
-2.21773
11
2.9575
21
-2.21773
0
LINE
8
BLACK
6
CONTINUOUS
10
2.9575
20
-2.21773
11
2.95744
21
-2.2178
0
LINE
8
BLACK
6
CONTINUOUS
10
2.95744
20
-2.2178
11
2.95739
21
-2.21788
0
LINE
8
BLACK
6
CONTINUOUS
10
2.95739
20
-2.21788
11
2.95739
21
-2.21788
0
LINE
8
BLACK
6
CONTINUOUS
10
2.95739
20
-2.21788
11
2.9465
21
-2.23365
0
LINE
8
BLACK
6
CONTINUOUS
10
2.9465
20
-2.23365
11
2.9465
21
-2.23365
0
LINE
8
BLACK
6
CONTINUOUS
10
2.9465
20
-2.23365
11
2.94645
21
-2.23373
0
LINE
8
BLACK
6
CONTINUOUS
10
2.94645
20
-2.23373
11
2.9464
21
-2.23382
0
LINE
8
BLACK
6
CONTINUOUS
10
2.9464
20
-2.23382
11
2.9464
21
-2.23382
0
LINE
8
BLACK
6
CONTINUOUS
10
2.9464
20
-2.23382
11
2.93682
21
-2.25041
0
LINE
8
BLACK
6
CONTINUOUS
10
2.93682
20
-2.25041
11
2.93682
21
-2.25041
0
LINE
8
BLACK
6
CONTINUOUS
10
2.93682
20
-2.25041
11
2.93677
21
-2.2505
0
LINE
8
BLACK
6
CONTINUOUS
10
2.93677
20
-2.2505
11
2.93673
21
-2.25059
0
LINE
8
BLACK
6
CONTINUOUS
10
2.93673
20
-2.25059
11
2.93673
21
-2.25059
0
LINE
8
BLACK
6
CONTINUOUS
10
2.93673
20
-2.25059
11
2.92851
21
-2.2679
0
LINE
8
BLACK
6
CONTINUOUS
10
2.92851
20
-2.2679
11
2.92851
21
-2.2679
0
LINE
8
BLACK
6
CONTINUOUS
10
2.92851
20
-2.2679
11
2.92847
21
-2.26799
0
LINE
8
BLACK
6
CONTINUOUS
10
2.92847
20
-2.26799
11
2.92843
21
-2.26808
0
LINE
8
BLACK
6
CONTINUOUS
10
2.92843
20
-2.26808
11
2.92843
21
-2.26808
0
LINE
8
BLACK
6
CONTINUOUS
10
2.92843
20
-2.26808
11
2.92164
21
-2.28599
0
LINE
8
BLACK
6
CONTINUOUS
10
2.92164
20
-2.28599
11
2.92164
21
-2.286
0
LINE
8
BLACK
6
CONTINUOUS
10
2.92164
20
-2.286
11
2.9216
21
-2.28609
0
LINE
8
BLACK
6
CONTINUOUS
10
2.9216
20
-2.28609
11
2.92158
21
-2.28618
0
LINE
8
BLACK
6
CONTINUOUS
10
2.92158
20
-2.28618
11
2.92158
21
-2.28618
0
LINE
8
BLACK
6
CONTINUOUS
10
2.92158
20
-2.28618
11
2.91625
21
-2.30459
0
LINE
8
BLACK
6
CONTINUOUS
10
2.91625
20
-2.30459
11
2.91625
21
-2.30459
0
LINE
8
BLACK
6
CONTINUOUS
10
2.91625
20
-2.30459
11
2.91622
21
-2.30468
0
LINE
8
BLACK
6
CONTINUOUS
10
2.91622
20
-2.30468
11
2.9162
21
-2.30478
0
LINE
8
BLACK
6
CONTINUOUS
10
2.9162
20
-2.30478
11
2.9162
21
-2.30478
0
LINE
8
BLACK
6
CONTINUOUS
10
2.9162
20
-2.30478
11
2.91237
21
-2.32355
0
LINE
8
BLACK
6
CONTINUOUS
10
2.91237
20
-2.32355
11
2.91237
21
-2.32355
0
LINE
8
BLACK
6
CONTINUOUS
10
2.91237
20
-2.32355
11
2.91235
21
-2.32365
0
LINE
8
BLACK
6
CONTINUOUS
10
2.91235
20
-2.32365
11
2.91234
21
-2.32374
0
LINE
8
BLACK
6
CONTINUOUS
10
2.91234
20
-2.32374
11
2.91234
21
-2.32374
0
LINE
8
BLACK
6
CONTINUOUS
10
2.91234
20
-2.32374
11
2.91003
21
-2.34277
0
LINE
8
BLACK
6
CONTINUOUS
10
2.91003
20
-2.34277
11
2.91003
21
-2.34277
0
LINE
8
BLACK
6
CONTINUOUS
10
2.91003
20
-2.34277
11
2.91001
21
-2.34286
0
LINE
8
BLACK
6
CONTINUOUS
10
2.91001
20
-2.34286
11
2.91001
21
-2.34296
0
LINE
8
BLACK
6
CONTINUOUS
10
2.91001
20
-2.34296
11
2.91001
21
-2.34296
0
LINE
8
BLACK
6
CONTINUOUS
10
2.91001
20
-2.34296
11
2.90924
21
-2.36211
0
LINE
8
BLACK
6
CONTINUOUS
10
2.90924
20
-2.36211
11
2.90923
21
-2.3622
0
LINE
8
BLACK
6
CONTINUOUS
10
2.90923
20
-2.3622
11
2.90924
21
-2.3623
0
LINE
8
BLACK
6
CONTINUOUS
10
3.70374
20
-2.31299
11
3.70374
21
-2.30118
0
LINE
8
BLACK
6
CONTINUOUS
10
3.70374
20
-2.30118
11
3.70449
21
-2.29741
0
LINE
8
BLACK
6
CONTINUOUS
10
3.70449
20
-2.29741
11
3.70662
21
-2.29422
0
LINE
8
BLACK
6
CONTINUOUS
10
3.70662
20
-2.29422
11
3.70982
21
-2.29209
0
LINE
8
BLACK
6
CONTINUOUS
10
3.70982
20
-2.29209
11
3.71358
21
-2.29134
0
LINE
8
BLACK
6
CONTINUOUS
10
3.71358
20
-2.29134
11
3.74852
21
-2.29134
0
LINE
8
BLACK
6
CONTINUOUS
10
3.74852
20
-2.29134
11
3.74852
21
-2.27165
0
LINE
8
BLACK
6
CONTINUOUS
10
3.74852
20
-2.27165
11
3.71174
21
-2.27165
0
LINE
8
BLACK
6
CONTINUOUS
10
3.71174
20
-2.27165
11
3.71149
21
-2.27167
0
LINE
8
BLACK
6
CONTINUOUS
10
3.71149
20
-2.27167
11
3.70757
21
-2.27207
0
LINE
8
BLACK
6
CONTINUOUS
10
3.70757
20
-2.27207
11
3.70102
21
-2.27424
0
LINE
8
BLACK
6
CONTINUOUS
10
3.70102
20
-2.27424
11
3.69514
21
-2.27786
0
LINE
8
BLACK
6
CONTINUOUS
10
3.69514
20
-2.27786
11
3.69026
21
-2.28274
0
LINE
8
BLACK
6
CONTINUOUS
10
3.69026
20
-2.28274
11
3.68664
21
-2.28862
0
LINE
8
BLACK
6
CONTINUOUS
10
3.68664
20
-2.28862
11
3.68447
21
-2.29517
0
LINE
8
BLACK
6
CONTINUOUS
10
3.68447
20
-2.29517
11
3.68407
21
-2.29909
0
LINE
8
BLACK
6
CONTINUOUS
10
3.68407
20
-2.29909
11
3.68406
21
-2.29934
0
LINE
8
BLACK
6
CONTINUOUS
10
3.68406
20
-2.29934
11
3.68406
21
-2.31299
0
LINE
8
BLACK
6
CONTINUOUS
10
3.68406
20
-2.31299
11
3.70374
21
-2.31299
0
LINE
8
BLACK
6
CONTINUOUS
10
3.92323
20
-2.24193
11
3.93251
21
-2.24193
0
LINE
8
BLACK
6
CONTINUOUS
10
3.93251
20
-2.24193
11
3.93273
21
-2.24192
0
LINE
8
BLACK
6
CONTINUOUS
10
3.93273
20
-2.24192
11
3.93543
21
-2.24167
0
LINE
8
BLACK
6
CONTINUOUS
10
3.93543
20
-2.24167
11
3.9419
21
-2.23966
0
LINE
8
BLACK
6
CONTINUOUS
10
3.9419
20
-2.23966
11
3.9477
21
-2.23615
0
LINE
8
BLACK
6
CONTINUOUS
10
3.9477
20
-2.23615
11
3.95249
21
-2.23136
0
LINE
8
BLACK
6
CONTINUOUS
10
3.95249
20
-2.23136
11
3.956
21
-2.22556
0
LINE
8
BLACK
6
CONTINUOUS
10
3.956
20
-2.22556
11
3.95801
21
-2.21909
0
LINE
8
BLACK
6
CONTINUOUS
10
3.95801
20
-2.21909
11
3.95826
21
-2.21639
0
LINE
8
BLACK
6
CONTINUOUS
10
3.95826
20
-2.21639
11
3.95827
21
-2.21617
0
LINE
8
BLACK
6
CONTINUOUS
10
3.95827
20
-2.21617
11
3.95827
21
-2.21565
0
LINE
8
BLACK
6
CONTINUOUS
10
3.95827
20
-2.21565
11
3.93826
21
-2.21565
0
LINE
8
BLACK
6
CONTINUOUS
10
3.93826
20
-2.21565
11
3.93796
21
-2.21717
0
LINE
8
BLACK
6
CONTINUOUS
10
3.93796
20
-2.21717
11
3.93618
21
-2.21984
0
LINE
8
BLACK
6
CONTINUOUS
10
3.93618
20
-2.21984
11
3.93351
21
-2.22162
0
LINE
8
BLACK
6
CONTINUOUS
10
3.93351
20
-2.22162
11
3.93036
21
-2.22224
0
LINE
8
BLACK
6
CONTINUOUS
10
3.93036
20
-2.22224
11
3.92323
21
-2.22224
0
LINE
8
BLACK
6
CONTINUOUS
10
3.92323
20
-2.22224
11
3.92323
21
-2.24193
0
LINE
8
BLACK
6
CONTINUOUS
10
3.92323
20
-2.24193
11
3.92323
21
-2.24193
0
LINE
8
BLACK
6
CONTINUOUS
10
3.53993
20
-2.10977
11
3.54224
21
-2.11686
0
LINE
8
BLACK
6
CONTINUOUS
10
3.54224
20
-2.11686
11
3.54596
21
-2.12332
0
LINE
8
BLACK
6
CONTINUOUS
10
3.54596
20
-2.12332
11
3.55095
21
-2.12885
0
LINE
8
BLACK
6
CONTINUOUS
10
3.55095
20
-2.12885
11
3.55698
21
-2.13323
0
LINE
8
BLACK
6
CONTINUOUS
10
3.55698
20
-2.13323
11
3.56379
21
-2.13627
0
LINE
8
BLACK
6
CONTINUOUS
10
3.56379
20
-2.13627
11
3.57108
21
-2.13781
0
LINE
8
BLACK
6
CONTINUOUS
10
3.57108
20
-2.13781
11
3.57604
21
-2.13781
0
LINE
8
BLACK
6
CONTINUOUS
10
3.57604
20
-2.13781
11
3.57868
21
-2.13859
0
LINE
8
BLACK
6
CONTINUOUS
10
3.57868
20
-2.13859
11
3.58048
21
-2.14067
0
LINE
8
BLACK
6
CONTINUOUS
10
3.58048
20
-2.14067
11
3.58087
21
-2.14339
0
LINE
8
BLACK
6
CONTINUOUS
10
3.58087
20
-2.14339
11
3.58081
21
-2.14365
0
LINE
8
BLACK
6
CONTINUOUS
10
3.58081
20
-2.14365
11
3.5807
21
-2.14515
0
LINE
8
BLACK
6
CONTINUOUS
10
3.5807
20
-2.14515
11
3.5807
21
-2.14515
0
LINE
8
BLACK
6
CONTINUOUS
10
3.5807
20
-2.14515
11
3.58069
21
-2.14525
0
LINE
8
BLACK
6
CONTINUOUS
10
3.58069
20
-2.14525
11
3.58069
21
-2.16223
0
LINE
8
BLACK
6
CONTINUOUS
10
3.58069
20
-2.16223
11
3.5807
21
-2.16233
0
LINE
8
BLACK
6
CONTINUOUS
10
3.5807
20
-2.16233
11
3.5807
21
-2.16233
0
LINE
8
BLACK
6
CONTINUOUS
10
3.5807
20
-2.16233
11
3.5808
21
-2.16368
0
LINE
8
BLACK
6
CONTINUOUS
10
3.5808
20
-2.16368
11
3.58261
21
-2.1699
0
LINE
8
BLACK
6
CONTINUOUS
10
3.58261
20
-2.1699
11
3.58261
21
-2.1699
0
LINE
8
BLACK
6
CONTINUOUS
10
3.58261
20
-2.1699
11
3.5859
21
-2.17547
0
LINE
8
BLACK
6
CONTINUOUS
10
3.5859
20
-2.17547
11
3.59048
21
-2.18004
0
LINE
8
BLACK
6
CONTINUOUS
10
3.59048
20
-2.18004
11
3.59605
21
-2.18334
0
LINE
8
BLACK
6
CONTINUOUS
10
3.59605
20
-2.18334
11
3.599
21
-2.1842
0
LINE
8
BLACK
6
CONTINUOUS
10
3.599
20
-2.1842
11
3.60132
21
-2.18568
0
LINE
8
BLACK
6
CONTINUOUS
10
3.60132
20
-2.18568
11
3.60247
21
-2.18817
0
LINE
8
BLACK
6
CONTINUOUS
10
3.60247
20
-2.18817
11
3.6025
21
-2.18837
0
LINE
8
BLACK
6
CONTINUOUS
10
3.6025
20
-2.18837
11
3.60293
21
-2.19245
0
LINE
8
BLACK
6
CONTINUOUS
10
3.60293
20
-2.19245
11
3.60523
21
-2.19954
0
LINE
8
BLACK
6
CONTINUOUS
10
3.60523
20
-2.19954
11
3.60896
21
-2.20599
0
LINE
8
BLACK
6
CONTINUOUS
10
3.60896
20
-2.20599
11
3.61394
21
-2.21153
0
LINE
8
BLACK
6
CONTINUOUS
10
3.61394
20
-2.21153
11
3.61997
21
-2.21591
0
LINE
8
BLACK
6
CONTINUOUS
10
3.61997
20
-2.21591
11
3.62678
21
-2.21894
0
LINE
8
BLACK
6
CONTINUOUS
10
3.62678
20
-2.21894
11
3.63407
21
-2.22049
0
LINE
8
BLACK
6
CONTINUOUS
10
3.63407
20
-2.22049
11
3.63407
21
-2.22049
0
LINE
8
BLACK
6
CONTINUOUS
10
3.63407
20
-2.22049
11
3.64152
21
-2.22049
0
LINE
8
BLACK
6
CONTINUOUS
10
3.64152
20
-2.22049
11
3.64638
21
-2.21946
0
LINE
8
BLACK
6
CONTINUOUS
10
3.64638
20
-2.21946
11
3.64881
21
-2.21894
0
LINE
8
BLACK
6
CONTINUOUS
10
3.64881
20
-2.21894
11
3.65562
21
-2.21591
0
LINE
8
BLACK
6
CONTINUOUS
10
3.65562
20
-2.21591
11
3.66165
21
-2.21153
0
LINE
8
BLACK
6
CONTINUOUS
10
3.66165
20
-2.21153
11
3.66664
21
-2.20599
0
LINE
8
BLACK
6
CONTINUOUS
10
3.66664
20
-2.20599
11
3.67036
21
-2.19954
0
LINE
8
BLACK
6
CONTINUOUS
10
3.67036
20
-2.19954
11
3.67266
21
-2.19245
0
LINE
8
BLACK
6
CONTINUOUS
10
3.67266
20
-2.19245
11
3.67303
21
-2.18896
0
LINE
8
BLACK
6
CONTINUOUS
10
3.67303
20
-2.18896
11
3.67408
21
-2.18642
0
LINE
8
BLACK
6
CONTINUOUS
10
3.67408
20
-2.18642
11
3.67633
21
-2.18485
0
LINE
8
BLACK
6
CONTINUOUS
10
3.67633
20
-2.18485
11
3.67652
21
-2.18479
0
LINE
8
BLACK
6
CONTINUOUS
10
3.67652
20
-2.18479
11
3.68151
21
-2.18334
0
LINE
8
BLACK
6
CONTINUOUS
10
3.68151
20
-2.18334
11
3.68708
21
-2.18004
0
LINE
8
BLACK
6
CONTINUOUS
10
3.68708
20
-2.18004
11
3.69166
21
-2.17547
0
LINE
8
BLACK
6
CONTINUOUS
10
3.69166
20
-2.17547
11
3.69495
21
-2.1699
0
LINE
8
BLACK
6
CONTINUOUS
10
3.69495
20
-2.1699
11
3.69676
21
-2.16368
0
LINE
8
BLACK
6
CONTINUOUS
10
3.69676
20
-2.16368
11
3.69687
21
-2.16223
0
LINE
8
BLACK
6
CONTINUOUS
10
3.69687
20
-2.16223
11
3.69687
21
-2.14525
0
LINE
8
BLACK
6
CONTINUOUS
10
3.69687
20
-2.14525
11
3.69676
21
-2.1438
0
LINE
8
BLACK
6
CONTINUOUS
10
3.69676
20
-2.1438
11
3.69495
21
-2.13758
0
LINE
8
BLACK
6
CONTINUOUS
10
3.69495
20
-2.13758
11
3.69166
21
-2.13201
0
LINE
8
BLACK
6
CONTINUOUS
10
3.69166
20
-2.13201
11
3.69134
21
-2.13148
0
LINE
8
BLACK
6
CONTINUOUS
10
3.69134
20
-2.13148
11
3.69142
21
-2.13144
0
LINE
8
BLACK
6
CONTINUOUS
10
3.69142
20
-2.13144
11
3.69052
21
-2.12978
0
LINE
8
BLACK
6
CONTINUOUS
10
3.69052
20
-2.12978
11
3.69071
21
-2.12703
0
LINE
8
BLACK
6
CONTINUOUS
10
3.69071
20
-2.12703
11
3.69137
21
-2.12601
0
LINE
8
BLACK
6
CONTINUOUS
10
3.69137
20
-2.12601
11
3.69134
21
-2.126
0
LINE
8
BLACK
6
CONTINUOUS
10
3.69134
20
-2.126
11
3.69355
21
-2.12226
0
LINE
8
BLACK
6
CONTINUOUS
10
3.69355
20
-2.12226
11
3.69495
21
-2.1199
0
LINE
8
BLACK
6
CONTINUOUS
10
3.69495
20
-2.1199
11
3.69676
21
-2.11368
0
LINE
8
BLACK
6
CONTINUOUS
10
3.69676
20
-2.11368
11
3.69687
21
-2.11223
0
LINE
8
BLACK
6
CONTINUOUS
10
3.69687
20
-2.11223
11
3.69687
21
-2.09525
0
LINE
8
BLACK
6
CONTINUOUS
10
3.69687
20
-2.09525
11
3.69676
21
-2.0938
0
LINE
8
BLACK
6
CONTINUOUS
10
3.69676
20
-2.0938
11
3.69495
21
-2.08758
0
LINE
8
BLACK
6
CONTINUOUS
10
3.69495
20
-2.08758
11
3.69495
21
-2.08758
0
LINE
8
BLACK
6
CONTINUOUS
10
3.69495
20
-2.08758
11
3.69134
21
-2.08148
0
LINE
8
BLACK
6
CONTINUOUS
10
3.69134
20
-2.08148
11
3.69142
21
-2.08144
0
LINE
8
BLACK
6
CONTINUOUS
10
3.69142
20
-2.08144
11
3.69052
21
-2.07978
0
LINE
8
BLACK
6
CONTINUOUS
10
3.69052
20
-2.07978
11
3.69071
21
-2.07703
0
LINE
8
BLACK
6
CONTINUOUS
10
3.69071
20
-2.07703
11
3.69137
21
-2.07601
0
LINE
8
BLACK
6
CONTINUOUS
10
3.69137
20
-2.07601
11
3.69134
21
-2.076
0
LINE
8
BLACK
6
CONTINUOUS
10
3.69134
20
-2.076
11
3.69455
21
-2.07057
0
LINE
8
BLACK
6
CONTINUOUS
10
3.69455
20
-2.07057
11
3.69495
21
-2.0699
0
LINE
8
BLACK
6
CONTINUOUS
10
3.69495
20
-2.0699
11
3.69676
21
-2.06368
0
LINE
8
BLACK
6
CONTINUOUS
10
3.69676
20
-2.06368
11
3.69687
21
-2.06223
0
LINE
8
BLACK
6
CONTINUOUS
10
3.69687
20
-2.06223
11
3.69687
21
-2.04525
0
LINE
8
BLACK
6
CONTINUOUS
10
3.69687
20
-2.04525
11
3.69676
21
-2.0438
0
LINE
8
BLACK
6
CONTINUOUS
10
3.69676
20
-2.0438
11
3.69495
21
-2.03758
0
LINE
8
BLACK
6
CONTINUOUS
10
3.69495
20
-2.03758
11
3.69166
21
-2.03201
0
LINE
8
BLACK
6
CONTINUOUS
10
3.69166
20
-2.03201
11
3.69166
21
-2.03201
0
LINE
8
BLACK
6
CONTINUOUS
10
3.69166
20
-2.03201
11
3.69134
21
-2.03148
0
LINE
8
BLACK
6
CONTINUOUS
10
3.69134
20
-2.03148
11
3.69142
21
-2.03144
0
LINE
8
BLACK
6
CONTINUOUS
10
3.69142
20
-2.03144
11
3.6905
21
-2.02976
0
LINE
8
BLACK
6
CONTINUOUS
10
3.6905
20
-2.02976
11
3.6907
21
-2.02702
0
LINE
8
BLACK
6
CONTINUOUS
10
3.6907
20
-2.02702
11
3.69135
21
-2.026
0
LINE
8
BLACK
6
CONTINUOUS
10
3.69135
20
-2.026
11
3.69133
21
-2.02599
0
LINE
8
BLACK
6
CONTINUOUS
10
3.69133
20
-2.02599
11
3.69493
21
-2.01989
0
LINE
8
BLACK
6
CONTINUOUS
10
3.69493
20
-2.01989
11
3.69674
21
-2.01368
0
LINE
8
BLACK
6
CONTINUOUS
10
3.69674
20
-2.01368
11
3.69674
21
-2.01358
0
LINE
8
BLACK
6
CONTINUOUS
10
3.69674
20
-2.01358
11
3.6756
21
-2.01358
0
LINE
8
BLACK
6
CONTINUOUS
10
3.6756
20
-2.01358
11
3.67544
21
-2.01382
0
LINE
8
BLACK
6
CONTINUOUS
10
3.67544
20
-2.01382
11
3.67352
21
-2.0151
0
LINE
8
BLACK
6
CONTINUOUS
10
3.67352
20
-2.0151
11
3.67126
21
-2.01555
0
LINE
8
BLACK
6
CONTINUOUS
10
3.67126
20
-2.01555
11
3.6063
21
-2.01555
0
LINE
8
BLACK
6
CONTINUOUS
10
3.6063
20
-2.01555
11
3.60404
21
-2.0151
0
LINE
8
BLACK
6
CONTINUOUS
10
3.60404
20
-2.0151
11
3.60212
21
-2.01382
0
LINE
8
BLACK
6
CONTINUOUS
10
3.60212
20
-2.01382
11
3.60196
21
-2.01358
0
LINE
8
BLACK
6
CONTINUOUS
10
3.60196
20
-2.01358
11
3.58082
21
-2.01358
0
LINE
8
BLACK
6
CONTINUOUS
10
3.58082
20
-2.01358
11
3.58086
21
-2.01418
0
LINE
8
BLACK
6
CONTINUOUS
10
3.58086
20
-2.01418
11
3.58075
21
-2.01419
0
LINE
8
BLACK
6
CONTINUOUS
10
3.58075
20
-2.01419
11
3.58074
21
-2.01617
0
LINE
8
BLACK
6
CONTINUOUS
10
3.58074
20
-2.01617
11
3.57925
21
-2.01848
0
LINE
8
BLACK
6
CONTINUOUS
10
3.57925
20
-2.01848
11
3.57674
21
-2.01962
0
LINE
8
BLACK
6
CONTINUOUS
10
3.57674
20
-2.01962
11
3.57606
21
-2.01967
0
LINE
8
BLACK
6
CONTINUOUS
10
3.57606
20
-2.01967
11
3.57108
21
-2.01967
0
LINE
8
BLACK
6
CONTINUOUS
10
3.57108
20
-2.01967
11
3.56379
21
-2.02121
0
LINE
8
BLACK
6
CONTINUOUS
10
3.56379
20
-2.02121
11
3.55698
21
-2.02425
0
LINE
8
BLACK
6
CONTINUOUS
10
3.55698
20
-2.02425
11
3.55095
21
-2.02863
0
LINE
8
BLACK
6
CONTINUOUS
10
3.55095
20
-2.02863
11
3.54596
21
-2.03416
0
LINE
8
BLACK
6
CONTINUOUS
10
3.54596
20
-2.03416
11
3.54224
21
-2.04062
0
LINE
8
BLACK
6
CONTINUOUS
10
3.54224
20
-2.04062
11
3.53993
21
-2.04771
0
LINE
8
BLACK
6
CONTINUOUS
10
3.53993
20
-2.04771
11
3.53916
21
-2.05512
0
LINE
8
BLACK
6
CONTINUOUS
10
3.53916
20
-2.05512
11
3.53993
21
-2.06253
0
LINE
8
BLACK
6
CONTINUOUS
10
3.53993
20
-2.06253
11
3.54224
21
-2.06962
0
LINE
8
BLACK
6
CONTINUOUS
10
3.54224
20
-2.06962
11
3.54609
21
-2.0763
0
LINE
8
BLACK
6
CONTINUOUS
10
3.54609
20
-2.0763
11
3.54674
21
-2.07897
0
LINE
8
BLACK
6
CONTINUOUS
10
3.54674
20
-2.07897
11
3.54609
21
-2.08118
0
LINE
8
BLACK
6
CONTINUOUS
10
3.54609
20
-2.08118
11
3.54224
21
-2.08786
0
LINE
8
BLACK
6
CONTINUOUS
10
3.54224
20
-2.08786
11
3.53993
21
-2.09495
0
LINE
8
BLACK
6
CONTINUOUS
10
3.53993
20
-2.09495
11
3.53916
21
-2.10236
0
LINE
8
BLACK
6
CONTINUOUS
10
3.53916
20
-2.10236
11
3.53993
21
-2.10977
0
LINE
8
BLACK
6
CONTINUOUS
10
3.58082
20
-1.9939
11
3.60196
21
-1.9939
0
LINE
8
BLACK
6
CONTINUOUS
10
3.60196
20
-1.9939
11
3.60212
21
-1.99366
0
LINE
8
BLACK
6
CONTINUOUS
10
3.60212
20
-1.99366
11
3.60404
21
-1.99238
0
LINE
8
BLACK
6
CONTINUOUS
10
3.60404
20
-1.99238
11
3.6063
21
-1.99193
0
LINE
8
BLACK
6
CONTINUOUS
10
3.6063
20
-1.99193
11
3.62894
21
-1.99193
0
LINE
8
BLACK
6
CONTINUOUS
10
3.62894
20
-1.99193
11
3.62894
21
-1.97224
0
LINE
8
BLACK
6
CONTINUOUS
10
3.62894
20
-1.97224
11
3.60381
21
-1.97224
0
LINE
8
BLACK
6
CONTINUOUS
10
3.60381
20
-1.97224
11
3.60362
21
-1.97225
0
LINE
8
BLACK
6
CONTINUOUS
10
3.60362
20
-1.97225
11
3.60226
21
-1.97236
0
LINE
8
BLACK
6
CONTINUOUS
10
3.60226
20
-1.97236
11
3.59606
21
-1.97416
0
LINE
8
BLACK
6
CONTINUOUS
10
3.59606
20
-1.97416
11
3.59049
21
-1.97745
0
LINE
8
BLACK
6
CONTINUOUS
10
3.59049
20
-1.97745
11
3.58592
21
-1.98203
0
LINE
8
BLACK
6
CONTINUOUS
10
3.58592
20
-1.98203
11
3.58263
21
-1.98759
0
LINE
8
BLACK
6
CONTINUOUS
10
3.58263
20
-1.98759
11
3.58082
21
-1.9938
0
LINE
8
BLACK
6
CONTINUOUS
10
3.58082
20
-1.9938
11
3.58082
21
-1.9939
0
LINE
8
BLACK
6
CONTINUOUS
10
3.58082
20
-1.9939
11
3.58082
21
-1.9939
0
LINE
8
BLACK
6
CONTINUOUS
10
3.4222
20
-1.94733
11
3.42222
21
-1.94779
0
LINE
8
BLACK
6
CONTINUOUS
10
3.42222
20
-1.94779
11
3.42222
21
-2.52377
0
LINE
8
BLACK
6
CONTINUOUS
10
3.42222
20
-2.52377
11
3.42214
21
-2.52457
0
LINE
8
BLACK
6
CONTINUOUS
10
3.42214
20
-2.52457
11
3.42222
21
-2.52733
0
LINE
8
BLACK
6
CONTINUOUS
10
3.42222
20
-2.52733
11
3.42222
21
-2.52749
0
LINE
8
BLACK
6
CONTINUOUS
10
3.42222
20
-2.52749
11
3.42222
21
-2.52857
0
LINE
8
BLACK
6
CONTINUOUS
10
3.42222
20
-2.52857
11
3.42224
21
-2.52873
0
LINE
8
BLACK
6
CONTINUOUS
10
3.42224
20
-2.52873
11
3.42224
21
-2.52873
0
LINE
8
BLACK
6
CONTINUOUS
10
3.42224
20
-2.52873
11
3.42224
21
-2.52873
0
LINE
8
BLACK
6
CONTINUOUS
10
3.42224
20
-2.52873
11
3.42228
21
-2.52919
0
LINE
8
BLACK
6
CONTINUOUS
10
3.42228
20
-2.52919
11
3.42233
21
-2.53091
0
LINE
8
BLACK
6
CONTINUOUS
10
3.42233
20
-2.53091
11
3.42255
21
-2.53166
0
LINE
8
BLACK
6
CONTINUOUS
10
3.42255
20
-2.53166
11
3.42271
21
-2.53241
0
LINE
8
BLACK
6
CONTINUOUS
10
3.42271
20
-2.53241
11
3.42281
21
-2.5332
0
LINE
8
BLACK
6
CONTINUOUS
10
3.42281
20
-2.5332
11
3.42344
21
-2.5348
0
LINE
8
BLACK
6
CONTINUOUS
10
3.42344
20
-2.5348
11
3.42359
21
-2.53523
0
LINE
8
BLACK
6
CONTINUOUS
10
3.42359
20
-2.53523
11
3.42407
21
-2.53688
0
LINE
8
BLACK
6
CONTINUOUS
10
3.42407
20
-2.53688
11
3.42447
21
-2.53756
0
LINE
8
BLACK
6
CONTINUOUS
10
3.42447
20
-2.53756
11
3.42481
21
-2.53825
0
LINE
8
BLACK
6
CONTINUOUS
10
3.42481
20
-2.53825
11
3.4251
21
-2.53898
0
LINE
8
BLACK
6
CONTINUOUS
10
3.4251
20
-2.53898
11
3.4251
21
-2.53898
0
LINE
8
BLACK
6
CONTINUOUS
10
3.4251
20
-2.53898
11
3.42611
21
-2.54037
0
LINE
8
BLACK
6
CONTINUOUS
10
3.42611
20
-2.54037
11
3.42636
21
-2.54076
0
LINE
8
BLACK
6
CONTINUOUS
10
3.42636
20
-2.54076
11
3.42724
21
-2.54224
0
LINE
8
BLACK
6
CONTINUOUS
10
3.42724
20
-2.54224
11
3.42724
21
-2.54224
0
LINE
8
BLACK
6
CONTINUOUS
10
3.42724
20
-2.54224
11
3.42724
21
-2.54224
0
LINE
8
BLACK
6
CONTINUOUS
10
3.42724
20
-2.54224
11
3.4278
21
-2.54279
0
LINE
8
BLACK
6
CONTINUOUS
10
3.4278
20
-2.54279
11
3.42829
21
-2.54338
0
LINE
8
BLACK
6
CONTINUOUS
10
3.42829
20
-2.54338
11
3.42876
21
-2.54402
0
LINE
8
BLACK
6
CONTINUOUS
10
3.42876
20
-2.54402
11
3.43008
21
-2.54511
0
LINE
8
BLACK
6
CONTINUOUS
10
3.43008
20
-2.54511
11
3.43042
21
-2.54542
0
LINE
8
BLACK
6
CONTINUOUS
10
3.43042
20
-2.54542
11
3.47491
21
-2.58991
0
LINE
8
BLACK
6
CONTINUOUS
10
3.47491
20
-2.58991
11
3.47542
21
-2.59055
0
LINE
8
BLACK
6
CONTINUOUS
10
3.47542
20
-2.59055
11
3.47743
21
-2.59244
0
LINE
8
BLACK
6
CONTINUOUS
10
3.47743
20
-2.59244
11
3.47754
21
-2.59254
0
LINE
8
BLACK
6
CONTINUOUS
10
3.47754
20
-2.59254
11
3.47831
21
-2.59331
0
LINE
8
BLACK
6
CONTINUOUS
10
3.47831
20
-2.59331
11
3.47844
21
-2.59341
0
LINE
8
BLACK
6
CONTINUOUS
10
3.47844
20
-2.59341
11
3.47879
21
-2.59371
0
LINE
8
BLACK
6
CONTINUOUS
10
3.47879
20
-2.59371
11
3.48004
21
-2.59488
0
LINE
8
BLACK
6
CONTINUOUS
10
3.48004
20
-2.59488
11
3.48073
21
-2.59526
0
LINE
8
BLACK
6
CONTINUOUS
10
3.48073
20
-2.59526
11
3.48137
21
-2.59568
0
LINE
8
BLACK
6
CONTINUOUS
10
3.48137
20
-2.59568
11
3.48199
21
-2.59617
0
LINE
8
BLACK
6
CONTINUOUS
10
3.48199
20
-2.59617
11
3.48357
21
-2.59685
0
LINE
8
BLACK
6
CONTINUOUS
10
3.48357
20
-2.59685
11
3.48399
21
-2.59705
0
LINE
8
BLACK
6
CONTINUOUS
10
3.48399
20
-2.59705
11
3.48549
21
-2.59788
0
LINE
8
BLACK
6
CONTINUOUS
10
3.48549
20
-2.59788
11
3.48583
21
-2.59797
0
LINE
8
BLACK
6
CONTINUOUS
10
3.48583
20
-2.59797
11
3.48626
21
-2.59808
0
LINE
8
BLACK
6
CONTINUOUS
10
3.48626
20
-2.59808
11
3.48698
21
-2.59833
0
LINE
8
BLACK
6
CONTINUOUS
10
3.48698
20
-2.59833
11
3.48771
21
-2.59864
0
LINE
8
BLACK
6
CONTINUOUS
10
3.48771
20
-2.59864
11
3.4894
21
-2.59891
0
LINE
8
BLACK
6
CONTINUOUS
10
3.4894
20
-2.59891
11
3.48985
21
-2.599
0
LINE
8
BLACK
6
CONTINUOUS
10
3.48985
20
-2.599
11
3.49152
21
-2.59943
0
LINE
8
BLACK
6
CONTINUOUS
10
3.49152
20
-2.59943
11
3.49231
21
-2.59943
0
LINE
8
BLACK
6
CONTINUOUS
10
3.49231
20
-2.59943
11
3.49307
21
-2.59949
0
LINE
8
BLACK
6
CONTINUOUS
10
3.49307
20
-2.59949
11
3.49385
21
-2.59961
0
LINE
8
BLACK
6
CONTINUOUS
10
3.49385
20
-2.59961
11
3.49556
21
-2.59945
0
LINE
8
BLACK
6
CONTINUOUS
10
3.49556
20
-2.59945
11
3.49602
21
-2.59943
0
LINE
8
BLACK
6
CONTINUOUS
10
3.49602
20
-2.59943
11
3.59648
21
-2.59943
0
LINE
8
BLACK
6
CONTINUOUS
10
3.59648
20
-2.59943
11
3.59912
21
-2.6002
0
LINE
8
BLACK
6
CONTINUOUS
10
3.59912
20
-2.6002
11
3.60092
21
-2.60228
0
LINE
8
BLACK
6
CONTINUOUS
10
3.60092
20
-2.60228
11
3.60136
21
-2.60431
0
LINE
8
BLACK
6
CONTINUOUS
10
3.60136
20
-2.60431
11
3.60136
21
-2.73552
0
LINE
8
BLACK
6
CONTINUOUS
10
3.60136
20
-2.73552
11
3.60127
21
-2.73633
0
LINE
8
BLACK
6
CONTINUOUS
10
3.60127
20
-2.73633
11
3.60136
21
-2.73909
0
LINE
8
BLACK
6
CONTINUOUS
10
3.60136
20
-2.73909
11
3.60136
21
-2.73924
0
LINE
8
BLACK
6
CONTINUOUS
10
3.60136
20
-2.73924
11
3.60136
21
-2.74033
0
LINE
8
BLACK
6
CONTINUOUS
10
3.60136
20
-2.74033
11
3.60138
21
-2.74048
0
LINE
8
BLACK
6
CONTINUOUS
10
3.60138
20
-2.74048
11
3.60138
21
-2.74048
0
LINE
8
BLACK
6
CONTINUOUS
10
3.60138
20
-2.74048
11
3.60138
21
-2.74049
0
LINE
8
BLACK
6
CONTINUOUS
10
3.60138
20
-2.74049
11
3.60141
21
-2.74094
0
LINE
8
BLACK
6
CONTINUOUS
10
3.60141
20
-2.74094
11
3.60147
21
-2.74266
0
LINE
8
BLACK
6
CONTINUOUS
10
3.60147
20
-2.74266
11
3.60169
21
-2.74342
0
LINE
8
BLACK
6
CONTINUOUS
10
3.60169
20
-2.74342
11
3.60184
21
-2.74417
0
LINE
8
BLACK
6
CONTINUOUS
10
3.60184
20
-2.74417
11
3.60194
21
-2.74495
0
LINE
8
BLACK
6
CONTINUOUS
10
3.60194
20
-2.74495
11
3.60258
21
-2.74655
0
LINE
8
BLACK
6
CONTINUOUS
10
3.60258
20
-2.74655
11
3.60272
21
-2.74699
0
LINE
8
BLACK
6
CONTINUOUS
10
3.60272
20
-2.74699
11
3.6032
21
-2.74864
0
LINE
8
BLACK
6
CONTINUOUS
10
3.6032
20
-2.74864
11
3.60361
21
-2.74932
0
LINE
8
BLACK
6
CONTINUOUS
10
3.60361
20
-2.74932
11
3.60394
21
-2.75
0
LINE
8
BLACK
6
CONTINUOUS
10
3.60394
20
-2.75
11
3.60423
21
-2.75074
0
LINE
8
BLACK
6
CONTINUOUS
10
3.60423
20
-2.75074
11
3.60423
21
-2.75074
0
LINE
8
BLACK
6
CONTINUOUS
10
3.60423
20
-2.75074
11
3.60524
21
-2.75213
0
LINE
8
BLACK
6
CONTINUOUS
10
3.60524
20
-2.75213
11
3.6055
21
-2.75251
0
LINE
8
BLACK
6
CONTINUOUS
10
3.6055
20
-2.75251
11
3.60637
21
-2.75399
0
LINE
8
BLACK
6
CONTINUOUS
10
3.60637
20
-2.75399
11
3.60637
21
-2.75399
0
LINE
8
BLACK
6
CONTINUOUS
10
3.60637
20
-2.75399
11
3.60637
21
-2.75399
0
LINE
8
BLACK
6
CONTINUOUS
10
3.60637
20
-2.75399
11
3.60693
21
-2.75455
0
LINE
8
BLACK
6
CONTINUOUS
10
3.60693
20
-2.75455
11
3.60743
21
-2.75513
0
LINE
8
BLACK
6
CONTINUOUS
10
3.60743
20
-2.75513
11
3.60789
21
-2.75577
0
LINE
8
BLACK
6
CONTINUOUS
10
3.60789
20
-2.75577
11
3.60921
21
-2.75687
0
LINE
8
BLACK
6
CONTINUOUS
10
3.60921
20
-2.75687
11
3.60956
21
-2.75718
0
LINE
8
BLACK
6
CONTINUOUS
10
3.60956
20
-2.75718
11
3.62296
21
-2.77058
0
LINE
8
BLACK
6
CONTINUOUS
10
3.62296
20
-2.77058
11
3.62428
21
-2.773
0
LINE
8
BLACK
6
CONTINUOUS
10
3.62428
20
-2.773
11
3.62439
21
-2.77403
0
LINE
8
BLACK
6
CONTINUOUS
10
3.62439
20
-2.77403
11
3.62439
21
-2.84034
0
LINE
8
BLACK
6
CONTINUOUS
10
3.62439
20
-2.84034
11
3.62439
21
-2.84034
0
LINE
8
BLACK
6
CONTINUOUS
10
3.62439
20
-2.84034
11
3.62439
21
-2.84047
0
LINE
8
BLACK
6
CONTINUOUS
10
3.62439
20
-2.84047
11
3.6244
21
-2.8406
0
LINE
8
BLACK
6
CONTINUOUS
10
3.6244
20
-2.8406
11
3.6244
21
-2.8406
0
LINE
8
BLACK
6
CONTINUOUS
10
3.6244
20
-2.8406
11
3.62464
21
-2.84281
0
LINE
8
BLACK
6
CONTINUOUS
10
3.62464
20
-2.84281
11
3.62563
21
-2.84547
0
LINE
8
BLACK
6
CONTINUOUS
10
3.62563
20
-2.84547
11
3.62662
21
-2.84812
0
LINE
8
BLACK
6
CONTINUOUS
10
3.62662
20
-2.84812
11
3.63002
21
-2.85266
0
LINE
8
BLACK
6
CONTINUOUS
10
3.63002
20
-2.85266
11
3.63455
21
-2.85605
0
LINE
8
BLACK
6
CONTINUOUS
10
3.63455
20
-2.85605
11
3.63986
21
-2.85804
0
LINE
8
BLACK
6
CONTINUOUS
10
3.63986
20
-2.85804
11
3.64221
21
-2.85829
0
LINE
8
BLACK
6
CONTINUOUS
10
3.64221
20
-2.85829
11
3.68535
21
-2.85829
0
LINE
8
BLACK
6
CONTINUOUS
10
3.68535
20
-2.85829
11
3.6877
21
-2.85804
0
LINE
8
BLACK
6
CONTINUOUS
10
3.6877
20
-2.85804
11
3.69301
21
-2.85605
0
LINE
8
BLACK
6
CONTINUOUS
10
3.69301
20
-2.85605
11
3.69754
21
-2.85266
0
LINE
8
BLACK
6
CONTINUOUS
10
3.69754
20
-2.85266
11
3.70094
21
-2.84812
0
LINE
8
BLACK
6
CONTINUOUS
10
3.70094
20
-2.84812
11
3.70292
21
-2.84281
0
LINE
8
BLACK
6
CONTINUOUS
10
3.70292
20
-2.84281
11
3.70317
21
-2.84047
0
LINE
8
BLACK
6
CONTINUOUS
10
3.70317
20
-2.84047
11
3.70317
21
-2.84034
0
LINE
8
BLACK
6
CONTINUOUS
10
3.70317
20
-2.84034
11
3.70317
21
-2.71268
0
LINE
8
BLACK
6
CONTINUOUS
10
3.70317
20
-2.71268
11
3.70292
21
-2.71034
0
LINE
8
BLACK
6
CONTINUOUS
10
3.70292
20
-2.71034
11
3.70094
21
-2.70503
0
LINE
8
BLACK
6
CONTINUOUS
10
3.70094
20
-2.70503
11
3.69754
21
-2.70049
0
LINE
8
BLACK
6
CONTINUOUS
10
3.69754
20
-2.70049
11
3.69301
21
-2.69709
0
LINE
8
BLACK
6
CONTINUOUS
10
3.69301
20
-2.69709
11
3.6877
21
-2.69511
0
LINE
8
BLACK
6
CONTINUOUS
10
3.6877
20
-2.69511
11
3.68566
21
-2.6949
0
LINE
8
BLACK
6
CONTINUOUS
10
3.68566
20
-2.6949
11
3.68548
21
-2.69488
0
LINE
8
BLACK
6
CONTINUOUS
10
3.68548
20
-2.69488
11
3.68548
21
-2.69488
0
LINE
8
BLACK
6
CONTINUOUS
10
3.68548
20
-2.69488
11
3.68535
21
-2.69486
0
LINE
8
BLACK
6
CONTINUOUS
10
3.68535
20
-2.69486
11
3.68522
21
-2.69486
0
LINE
8
BLACK
6
CONTINUOUS
10
3.68522
20
-2.69486
11
3.65549
21
-2.69486
0
LINE
8
BLACK
6
CONTINUOUS
10
3.65549
20
-2.69486
11
3.65285
21
-2.69409
0
LINE
8
BLACK
6
CONTINUOUS
10
3.65285
20
-2.69409
11
3.65105
21
-2.69201
0
LINE
8
BLACK
6
CONTINUOUS
10
3.65105
20
-2.69201
11
3.65061
21
-2.68998
0
LINE
8
BLACK
6
CONTINUOUS
10
3.65061
20
-2.68998
11
3.65061
21
-2.66435
0
LINE
8
BLACK
6
CONTINUOUS
10
3.65061
20
-2.66435
11
3.65139
21
-2.66171
0
LINE
8
BLACK
6
CONTINUOUS
10
3.65139
20
-2.66171
11
3.65346
21
-2.65991
0
LINE
8
BLACK
6
CONTINUOUS
10
3.65346
20
-2.65991
11
3.65549
21
-2.65947
0
LINE
8
BLACK
6
CONTINUOUS
10
3.65549
20
-2.65947
11
3.68522
21
-2.65947
0
LINE
8
BLACK
6
CONTINUOUS
10
3.68522
20
-2.65947
11
3.68535
21
-2.65947
0
LINE
8
BLACK
6
CONTINUOUS
10
3.68535
20
-2.65947
11
3.6877
21
-2.65922
0
LINE
8
BLACK
6
CONTINUOUS
10
3.6877
20
-2.65922
11
3.69301
21
-2.65724
0
LINE
8
BLACK
6
CONTINUOUS
10
3.69301
20
-2.65724
11
3.69754
21
-2.65384
0
LINE
8
BLACK
6
CONTINUOUS
10
3.69754
20
-2.65384
11
3.70094
21
-2.6493
0
LINE
8
BLACK
6
CONTINUOUS
10
3.70094
20
-2.6493
11
3.70292
21
-2.644
0
LINE
8
BLACK
6
CONTINUOUS
10
3.70292
20
-2.644
11
3.70317
21
-2.64165
0
LINE
8
BLACK
6
CONTINUOUS
10
3.70317
20
-2.64165
11
3.70317
21
-2.60746
0
LINE
8
BLACK
6
CONTINUOUS
10
3.70317
20
-2.60746
11
3.70394
21
-2.60482
0
LINE
8
BLACK
6
CONTINUOUS
10
3.70394
20
-2.60482
11
3.70602
21
-2.60302
0
LINE
8
BLACK
6
CONTINUOUS
10
3.70602
20
-2.60302
11
3.70805
21
-2.60258
0
LINE
8
BLACK
6
CONTINUOUS
10
3.70805
20
-2.60258
11
3.70805
21
-2.60258
0
LINE
8
BLACK
6
CONTINUOUS
10
3.70805
20
-2.60258
11
3.71951
21
-2.60258
0
LINE
8
BLACK
6
CONTINUOUS
10
3.71951
20
-2.60258
11
3.72215
21
-2.60335
0
LINE
8
BLACK
6
CONTINUOUS
10
3.72215
20
-2.60335
11
3.72395
21
-2.60543
0
LINE
8
BLACK
6
CONTINUOUS
10
3.72395
20
-2.60543
11
3.72439
21
-2.60746
0
LINE
8
BLACK
6
CONTINUOUS
10
3.72439
20
-2.60746
11
3.72439
21
-2.64165
0
LINE
8
BLACK
6
CONTINUOUS
10
3.72439
20
-2.64165
11
3.72464
21
-2.644
0
LINE
8
BLACK
6
CONTINUOUS
10
3.72464
20
-2.644
11
3.72662
21
-2.6493
0
LINE
8
BLACK
6
CONTINUOUS
10
3.72662
20
-2.6493
11
3.73002
21
-2.65384
0
LINE
8
BLACK
6
CONTINUOUS
10
3.73002
20
-2.65384
11
3.73455
21
-2.65724
0
LINE
8
BLACK
6
CONTINUOUS
10
3.73455
20
-2.65724
11
3.73986
21
-2.65922
0
LINE
8
BLACK
6
CONTINUOUS
10
3.73986
20
-2.65922
11
3.74221
21
-2.65947
0
LINE
8
BLACK
6
CONTINUOUS
10
3.74221
20
-2.65947
11
3.78535
21
-2.65947
0
LINE
8
BLACK
6
CONTINUOUS
10
3.78535
20
-2.65947
11
3.7877
21
-2.65922
0
LINE
8
BLACK
6
CONTINUOUS
10
3.7877
20
-2.65922
11
3.79301
21
-2.65724
0
LINE
8
BLACK
6
CONTINUOUS
10
3.79301
20
-2.65724
11
3.79754
21
-2.65384
0
LINE
8
BLACK
6
CONTINUOUS
10
3.79754
20
-2.65384
11
3.80094
21
-2.6493
0
LINE
8
BLACK
6
CONTINUOUS
10
3.80094
20
-2.6493
11
3.80292
21
-2.644
0
LINE
8
BLACK
6
CONTINUOUS
10
3.80292
20
-2.644
11
3.80317
21
-2.64165
0
LINE
8
BLACK
6
CONTINUOUS
10
3.80317
20
-2.64165
11
3.80317
21
-2.5876
0
LINE
8
BLACK
6
CONTINUOUS
10
3.80317
20
-2.5876
11
3.80317
21
-2.56791
0
LINE
8
BLACK
6
CONTINUOUS
10
3.80317
20
-2.56791
11
3.80317
21
-2.51386
0
LINE
8
BLACK
6
CONTINUOUS
10
3.80317
20
-2.51386
11
3.80292
21
-2.51152
0
LINE
8
BLACK
6
CONTINUOUS
10
3.80292
20
-2.51152
11
3.80094
21
-2.50621
0
LINE
8
BLACK
6
CONTINUOUS
10
3.80094
20
-2.50621
11
3.79867
21
-2.50318
0
LINE
8
BLACK
6
CONTINUOUS
10
3.79867
20
-2.50318
11
3.79754
21
-2.50167
0
LINE
8
BLACK
6
CONTINUOUS
10
3.79754
20
-2.50167
11
3.79534
21
-2.50003
0
LINE
8
BLACK
6
CONTINUOUS
10
3.79534
20
-2.50003
11
3.7937
21
-2.49782
0
LINE
8
BLACK
6
CONTINUOUS
10
3.7937
20
-2.49782
11
3.79339
21
-2.49624
0
LINE
8
BLACK
6
CONTINUOUS
10
3.79339
20
-2.49624
11
3.79339
21
-2.49608
0
LINE
8
BLACK
6
CONTINUOUS
10
3.79339
20
-2.49608
11
3.79167
21
-2.42554
0
LINE
8
BLACK
6
CONTINUOUS
10
3.79167
20
-2.42554
11
3.79116
21
-2.42156
0
LINE
8
BLACK
6
CONTINUOUS
10
3.79116
20
-2.42156
11
3.79072
21
-2.41965
0
LINE
8
BLACK
6
CONTINUOUS
10
3.79072
20
-2.41965
11
3.78943
21
-2.41585
0
LINE
8
BLACK
6
CONTINUOUS
10
3.78943
20
-2.41585
11
3.78637
21
-2.41108
0
LINE
8
BLACK
6
CONTINUOUS
10
3.78637
20
-2.41108
11
3.78457
21
-2.409
0
LINE
8
BLACK
6
CONTINUOUS
10
3.78457
20
-2.409
11
3.78029
21
-2.40529
0
LINE
8
BLACK
6
CONTINUOUS
10
3.78029
20
-2.40529
11
3.78029
21
-2.40529
0
LINE
8
BLACK
6
CONTINUOUS
10
3.78029
20
-2.40529
11
3.77514
21
-2.40294
0
LINE
8
BLACK
6
CONTINUOUS
10
3.77514
20
-2.40294
11
3.77256
21
-2.40218
0
LINE
8
BLACK
6
CONTINUOUS
10
3.77256
20
-2.40218
11
3.77256
21
-2.40218
0
LINE
8
BLACK
6
CONTINUOUS
10
3.77256
20
-2.40218
11
3.7725
21
-2.40216
0
LINE
8
BLACK
6
CONTINUOUS
10
3.7725
20
-2.40216
11
3.7725
21
-2.40216
0
LINE
8
BLACK
6
CONTINUOUS
10
3.7725
20
-2.40216
11
3.77237
21
-2.40215
0
LINE
8
BLACK
6
CONTINUOUS
10
3.77237
20
-2.40215
11
3.77237
21
-2.40215
0
LINE
8
BLACK
6
CONTINUOUS
10
3.77237
20
-2.40215
11
3.76689
21
-2.40136
0
LINE
8
BLACK
6
CONTINUOUS
10
3.76689
20
-2.40136
11
3.63896
21
-2.40136
0
LINE
8
BLACK
6
CONTINUOUS
10
3.63896
20
-2.40136
11
3.63632
21
-2.40058
0
LINE
8
BLACK
6
CONTINUOUS
10
3.63632
20
-2.40058
11
3.63452
21
-2.3985
0
LINE
8
BLACK
6
CONTINUOUS
10
3.63452
20
-2.3985
11
3.63407
21
-2.39648
0
LINE
8
BLACK
6
CONTINUOUS
10
3.63407
20
-2.39648
11
3.63407
21
-2.37892
0
LINE
8
BLACK
6
CONTINUOUS
10
3.63407
20
-2.37892
11
3.63485
21
-2.37628
0
LINE
8
BLACK
6
CONTINUOUS
10
3.63485
20
-2.37628
11
3.63693
21
-2.37448
0
LINE
8
BLACK
6
CONTINUOUS
10
3.63693
20
-2.37448
11
3.63896
21
-2.37404
0
LINE
8
BLACK
6
CONTINUOUS
10
3.63896
20
-2.37404
11
3.64259
21
-2.37404
0
LINE
8
BLACK
6
CONTINUOUS
10
3.64259
20
-2.37404
11
3.64272
21
-2.37404
0
LINE
8
BLACK
6
CONTINUOUS
10
3.64272
20
-2.37404
11
3.64676
21
-2.37362
0
LINE
8
BLACK
6
CONTINUOUS
10
3.64676
20
-2.37362
11
3.65332
21
-2.37145
0
LINE
8
BLACK
6
CONTINUOUS
10
3.65332
20
-2.37145
11
3.6592
21
-2.36782
0
LINE
8
BLACK
6
CONTINUOUS
10
3.6592
20
-2.36782
11
3.66408
21
-2.36294
0
LINE
8
BLACK
6
CONTINUOUS
10
3.66408
20
-2.36294
11
3.66771
21
-2.35706
0
LINE
8
BLACK
6
CONTINUOUS
10
3.66771
20
-2.35706
11
3.66988
21
-2.3505
0
LINE
8
BLACK
6
CONTINUOUS
10
3.66988
20
-2.3505
11
3.6703
21
-2.34646
0
LINE
8
BLACK
6
CONTINUOUS
10
3.6703
20
-2.34646
11
3.6703
21
-2.33268
0
LINE
8
BLACK
6
CONTINUOUS
10
3.6703
20
-2.33268
11
3.6703
21
-2.31299
0
LINE
8
BLACK
6
CONTINUOUS
10
3.6703
20
-2.31299
11
3.6703
21
-2.29921
0
LINE
8
BLACK
6
CONTINUOUS
10
3.6703
20
-2.29921
11
3.66988
21
-2.29517
0
LINE
8
BLACK
6
CONTINUOUS
10
3.66988
20
-2.29517
11
3.66771
21
-2.28861
0
LINE
8
BLACK
6
CONTINUOUS
10
3.66771
20
-2.28861
11
3.66408
21
-2.28273
0
LINE
8
BLACK
6
CONTINUOUS
10
3.66408
20
-2.28273
11
3.66408
21
-2.28273
0
LINE
8
BLACK
6
CONTINUOUS
10
3.66408
20
-2.28273
11
3.6592
21
-2.27785
0
LINE
8
BLACK
6
CONTINUOUS
10
3.6592
20
-2.27785
11
3.65332
21
-2.27422
0
LINE
8
BLACK
6
CONTINUOUS
10
3.65332
20
-2.27422
11
3.64676
21
-2.27205
0
LINE
8
BLACK
6
CONTINUOUS
10
3.64676
20
-2.27205
11
3.64284
21
-2.27165
0
LINE
8
BLACK
6
CONTINUOUS
10
3.64284
20
-2.27165
11
3.64284
21
-2.27165
0
LINE
8
BLACK
6
CONTINUOUS
10
3.64284
20
-2.27165
11
3.64272
21
-2.27163
0
LINE
8
BLACK
6
CONTINUOUS
10
3.64272
20
-2.27163
11
3.64259
21
-2.27163
0
LINE
8
BLACK
6
CONTINUOUS
10
3.64259
20
-2.27163
11
3.54934
21
-2.27163
0
LINE
8
BLACK
6
CONTINUOUS
10
3.54934
20
-2.27163
11
3.54934
21
-2.27163
0
LINE
8
BLACK
6
CONTINUOUS
10
3.54934
20
-2.27163
11
3.54921
21
-2.27163
0
LINE
8
BLACK
6
CONTINUOUS
10
3.54921
20
-2.27163
11
3.54909
21
-2.27165
0
LINE
8
BLACK
6
CONTINUOUS
10
3.54909
20
-2.27165
11
3.54909
21
-2.27165
0
LINE
8
BLACK
6
CONTINUOUS
10
3.54909
20
-2.27165
11
3.54517
21
-2.27205
0
LINE
8
BLACK
6
CONTINUOUS
10
3.54517
20
-2.27205
11
3.53861
21
-2.27422
0
LINE
8
BLACK
6
CONTINUOUS
10
3.53861
20
-2.27422
11
3.53273
21
-2.27785
0
LINE
8
BLACK
6
CONTINUOUS
10
3.53273
20
-2.27785
11
3.52785
21
-2.28273
0
LINE
8
BLACK
6
CONTINUOUS
10
3.52785
20
-2.28273
11
3.52394
21
-2.28906
0
LINE
8
BLACK
6
CONTINUOUS
10
3.52394
20
-2.28906
11
3.5219
21
-2.2909
0
LINE
8
BLACK
6
CONTINUOUS
10
3.5219
20
-2.2909
11
3.51918
21
-2.29134
0
LINE
8
BLACK
6
CONTINUOUS
10
3.51918
20
-2.29134
11
3.51909
21
-2.29133
0
LINE
8
BLACK
6
CONTINUOUS
10
3.51909
20
-2.29133
11
3.51766
21
-2.29112
0
LINE
8
BLACK
6
CONTINUOUS
10
3.51766
20
-2.29112
11
3.49407
21
-2.29112
0
LINE
8
BLACK
6
CONTINUOUS
10
3.49407
20
-2.29112
11
3.49144
21
-2.29035
0
LINE
8
BLACK
6
CONTINUOUS
10
3.49144
20
-2.29035
11
3.48963
21
-2.28827
0
LINE
8
BLACK
6
CONTINUOUS
10
3.48963
20
-2.28827
11
3.48919
21
-2.28624
0
LINE
8
BLACK
6
CONTINUOUS
10
3.48919
20
-2.28624
11
3.48919
21
-2.10236
0
LINE
8
BLACK
6
CONTINUOUS
10
3.48919
20
-2.10236
11
3.48919
21
-1.9939
0
LINE
8
BLACK
6
CONTINUOUS
10
3.48919
20
-1.9939
11
3.48919
21
-1.96596
0
LINE
8
BLACK
6
CONTINUOUS
10
3.48919
20
-1.96596
11
3.48997
21
-1.96332
0
LINE
8
BLACK
6
CONTINUOUS
10
3.48997
20
-1.96332
11
3.49062
21
-1.96251
0
LINE
8
BLACK
6
CONTINUOUS
10
3.49062
20
-1.96251
11
3.55109
21
-1.90204
0
LINE
8
BLACK
6
CONTINUOUS
10
3.55109
20
-1.90204
11
3.55351
21
-1.90072
0
LINE
8
BLACK
6
CONTINUOUS
10
3.55351
20
-1.90072
11
3.55455
21
-1.90061
0
LINE
8
BLACK
6
CONTINUOUS
10
3.55455
20
-1.90061
11
3.77124
21
-1.90061
0
LINE
8
BLACK
6
CONTINUOUS
10
3.77124
20
-1.90061
11
3.77388
21
-1.90139
0
LINE
8
BLACK
6
CONTINUOUS
10
3.77388
20
-1.90139
11
3.77469
21
-1.90204
0
LINE
8
BLACK
6
CONTINUOUS
10
3.77469
20
-1.90204
11
3.77513
21
-1.90247
0
LINE
8
BLACK
6
CONTINUOUS
10
3.77513
20
-1.90247
11
3.77644
21
-1.90489
0
LINE
8
BLACK
6
CONTINUOUS
10
3.77644
20
-1.90489
11
3.77656
21
-1.90592
0
LINE
8
BLACK
6
CONTINUOUS
10
3.77656
20
-1.90592
11
3.77656
21
-1.95917
0
LINE
8
BLACK
6
CONTINUOUS
10
3.77656
20
-1.95917
11
3.77578
21
-1.9618
0
LINE
8
BLACK
6
CONTINUOUS
10
3.77578
20
-1.9618
11
3.77513
21
-1.96262
0
LINE
8
BLACK
6
CONTINUOUS
10
3.77513
20
-1.96262
11
3.76737
21
-1.97037
0
LINE
8
BLACK
6
CONTINUOUS
10
3.76737
20
-1.97037
11
3.76674
21
-1.97088
0
LINE
8
BLACK
6
CONTINUOUS
10
3.76674
20
-1.97088
11
3.76485
21
-1.97289
0
LINE
8
BLACK
6
CONTINUOUS
10
3.76485
20
-1.97289
11
3.76474
21
-1.973
0
LINE
8
BLACK
6
CONTINUOUS
10
3.76474
20
-1.973
11
3.76408
21
-1.97366
0
LINE
8
BLACK
6
CONTINUOUS
10
3.76408
20
-1.97366
11
3.76408
21
-1.97366
0
LINE
8
BLACK
6
CONTINUOUS
10
3.76408
20
-1.97366
11
3.76397
21
-1.97377
0
LINE
8
BLACK
6
CONTINUOUS
10
3.76397
20
-1.97377
11
3.76388
21
-1.97389
0
LINE
8
BLACK
6
CONTINUOUS
10
3.76388
20
-1.97389
11
3.76388
21
-1.97389
0
LINE
8
BLACK
6
CONTINUOUS
10
3.76388
20
-1.97389
11
3.76387
21
-1.9739
0
LINE
8
BLACK
6
CONTINUOUS
10
3.76387
20
-1.9739
11
3.76358
21
-1.97424
0
LINE
8
BLACK
6
CONTINUOUS
10
3.76358
20
-1.97424
11
3.7624
21
-1.9755
0
LINE
8
BLACK
6
CONTINUOUS
10
3.7624
20
-1.9755
11
3.76202
21
-1.97619
0
LINE
8
BLACK
6
CONTINUOUS
10
3.76202
20
-1.97619
11
3.7616
21
-1.97683
0
LINE
8
BLACK
6
CONTINUOUS
10
3.7616
20
-1.97683
11
3.76112
21
-1.97745
0
LINE
8
BLACK
6
CONTINUOUS
10
3.76112
20
-1.97745
11
3.76043
21
-1.97903
0
LINE
8
BLACK
6
CONTINUOUS
10
3.76043
20
-1.97903
11
3.76023
21
-1.97944
0
LINE
8
BLACK
6
CONTINUOUS
10
3.76023
20
-1.97944
11
3.7594
21
-1.98095
0
LINE
8
BLACK
6
CONTINUOUS
10
3.7594
20
-1.98095
11
3.75921
21
-1.98171
0
LINE
8
BLACK
6
CONTINUOUS
10
3.75921
20
-1.98171
11
3.75896
21
-1.98244
0
LINE
8
BLACK
6
CONTINUOUS
10
3.75896
20
-1.98244
11
3.75864
21
-1.98316
0
LINE
8
BLACK
6
CONTINUOUS
10
3.75864
20
-1.98316
11
3.75838
21
-1.98486
0
LINE
8
BLACK
6
CONTINUOUS
10
3.75838
20
-1.98486
11
3.75828
21
-1.98531
0
LINE
8
BLACK
6
CONTINUOUS
10
3.75828
20
-1.98531
11
3.75785
21
-1.98698
0
LINE
8
BLACK
6
CONTINUOUS
10
3.75785
20
-1.98698
11
3.75785
21
-1.98777
0
LINE
8
BLACK
6
CONTINUOUS
10
3.75785
20
-1.98777
11
3.75779
21
-1.98853
0
LINE
8
BLACK
6
CONTINUOUS
10
3.75779
20
-1.98853
11
3.75767
21
-1.98931
0
LINE
8
BLACK
6
CONTINUOUS
10
3.75767
20
-1.98931
11
3.75783
21
-1.99102
0
LINE
8
BLACK
6
CONTINUOUS
10
3.75783
20
-1.99102
11
3.75785
21
-1.99148
0
LINE
8
BLACK
6
CONTINUOUS
10
3.75785
20
-1.99148
11
3.75785
21
-2.01413
0
LINE
8
BLACK
6
CONTINUOUS
10
3.75785
20
-2.01413
11
3.75777
21
-2.01494
0
LINE
8
BLACK
6
CONTINUOUS
10
3.75777
20
-2.01494
11
3.75785
21
-2.0177
0
LINE
8
BLACK
6
CONTINUOUS
10
3.75785
20
-2.0177
11
3.75785
21
-2.01786
0
LINE
8
BLACK
6
CONTINUOUS
10
3.75785
20
-2.01786
11
3.75785
21
-2.01894
0
LINE
8
BLACK
6
CONTINUOUS
10
3.75785
20
-2.01894
11
3.75787
21
-2.01909
0
LINE
8
BLACK
6
CONTINUOUS
10
3.75787
20
-2.01909
11
3.75787
21
-2.01909
0
LINE
8
BLACK
6
CONTINUOUS
10
3.75787
20
-2.01909
11
3.75787
21
-2.0191
0
LINE
8
BLACK
6
CONTINUOUS
10
3.75787
20
-2.0191
11
3.75791
21
-2.01956
0
LINE
8
BLACK
6
CONTINUOUS
10
3.75791
20
-2.01956
11
3.75796
21
-2.02127
0
LINE
8
BLACK
6
CONTINUOUS
10
3.75796
20
-2.02127
11
3.75818
21
-2.02203
0
LINE
8
BLACK
6
CONTINUOUS
10
3.75818
20
-2.02203
11
3.75834
21
-2.02278
0
LINE
8
BLACK
6
CONTINUOUS
10
3.75834
20
-2.02278
11
3.75844
21
-2.02356
0
LINE
8
BLACK
6
CONTINUOUS
10
3.75844
20
-2.02356
11
3.75907
21
-2.02516
0
LINE
8
BLACK
6
CONTINUOUS
10
3.75907
20
-2.02516
11
3.75922
21
-2.0256
0
LINE
8
BLACK
6
CONTINUOUS
10
3.75922
20
-2.0256
11
3.7597
21
-2.02725
0
LINE
8
BLACK
6
CONTINUOUS
10
3.7597
20
-2.02725
11
3.7601
21
-2.02793
0
LINE
8
BLACK
6
CONTINUOUS
10
3.7601
20
-2.02793
11
3.76044
21
-2.02862
0
LINE
8
BLACK
6
CONTINUOUS
10
3.76044
20
-2.02862
11
3.76073
21
-2.02935
0
LINE
8
BLACK
6
CONTINUOUS
10
3.76073
20
-2.02935
11
3.76073
21
-2.02935
0
LINE
8
BLACK
6
CONTINUOUS
10
3.76073
20
-2.02935
11
3.76174
21
-2.03074
0
LINE
8
BLACK
6
CONTINUOUS
10
3.76174
20
-2.03074
11
3.76199
21
-2.03112
0
LINE
8
BLACK
6
CONTINUOUS
10
3.76199
20
-2.03112
11
3.76287
21
-2.0326
0
LINE
8
BLACK
6
CONTINUOUS
10
3.76287
20
-2.0326
11
3.76287
21
-2.03261
0
LINE
8
BLACK
6
CONTINUOUS
10
3.76287
20
-2.03261
11
3.76287
21
-2.03261
0
LINE
8
BLACK
6
CONTINUOUS
10
3.76287
20
-2.03261
11
3.76342
21
-2.03316
0
LINE
8
BLACK
6
CONTINUOUS
10
3.76342
20
-2.03316
11
3.76392
21
-2.03375
0
LINE
8
BLACK
6
CONTINUOUS
10
3.76392
20
-2.03375
11
3.76439
21
-2.03438
0
LINE
8
BLACK
6
CONTINUOUS
10
3.76439
20
-2.03438
11
3.76571
21
-2.03548
0
LINE
8
BLACK
6
CONTINUOUS
10
3.76571
20
-2.03548
11
3.76605
21
-2.03579
0
LINE
8
BLACK
6
CONTINUOUS
10
3.76605
20
-2.03579
11
3.77414
21
-2.04388
0
LINE
8
BLACK
6
CONTINUOUS
10
3.77414
20
-2.04388
11
3.77546
21
-2.04629
0
LINE
8
BLACK
6
CONTINUOUS
10
3.77546
20
-2.04629
11
3.77557
21
-2.04733
0
LINE
8
BLACK
6
CONTINUOUS
10
3.77557
20
-2.04733
11
3.77557
21
-2.06214
0
LINE
8
BLACK
6
CONTINUOUS
10
3.77557
20
-2.06214
11
3.77557
21
-2.06214
0
LINE
8
BLACK
6
CONTINUOUS
10
3.77557
20
-2.06214
11
3.77557
21
-2.06223
0
LINE
8
BLACK
6
CONTINUOUS
10
3.77557
20
-2.06223
11
3.77558
21
-2.06233
0
LINE
8
BLACK
6
CONTINUOUS
10
3.77558
20
-2.06233
11
3.77558
21
-2.06233
0
LINE
8
BLACK
6
CONTINUOUS
10
3.77558
20
-2.06233
11
3.77569
21
-2.06368
0
LINE
8
BLACK
6
CONTINUOUS
10
3.77569
20
-2.06368
11
3.77749
21
-2.0699
0
LINE
8
BLACK
6
CONTINUOUS
10
3.77749
20
-2.0699
11
3.7811
21
-2.076
0
LINE
8
BLACK
6
CONTINUOUS
10
3.7811
20
-2.076
11
3.78102
21
-2.07605
0
LINE
8
BLACK
6
CONTINUOUS
10
3.78102
20
-2.07605
11
3.78192
21
-2.0777
0
LINE
8
BLACK
6
CONTINUOUS
10
3.78192
20
-2.0777
11
3.78173
21
-2.08045
0
LINE
8
BLACK
6
CONTINUOUS
10
3.78173
20
-2.08045
11
3.78107
21
-2.08147
0
LINE
8
BLACK
6
CONTINUOUS
10
3.78107
20
-2.08147
11
3.7811
21
-2.08148
0
LINE
8
BLACK
6
CONTINUOUS
10
3.7811
20
-2.08148
11
3.77749
21
-2.08758
0
LINE
8
BLACK
6
CONTINUOUS
10
3.77749
20
-2.08758
11
3.77569
21
-2.0938
0
LINE
8
BLACK
6
CONTINUOUS
10
3.77569
20
-2.0938
11
3.77558
21
-2.09515
0
LINE
8
BLACK
6
CONTINUOUS
10
3.77558
20
-2.09515
11
3.77558
21
-2.09515
0
LINE
8
BLACK
6
CONTINUOUS
10
3.77558
20
-2.09515
11
3.77557
21
-2.09525
0
LINE
8
BLACK
6
CONTINUOUS
10
3.77557
20
-2.09525
11
3.77557
21
-2.11223
0
LINE
8
BLACK
6
CONTINUOUS
10
3.77557
20
-2.11223
11
3.77558
21
-2.11233
0
LINE
8
BLACK
6
CONTINUOUS
10
3.77558
20
-2.11233
11
3.77558
21
-2.11233
0
LINE
8
BLACK
6
CONTINUOUS
10
3.77558
20
-2.11233
11
3.77569
21
-2.11368
0
LINE
8
BLACK
6
CONTINUOUS
10
3.77569
20
-2.11368
11
3.77749
21
-2.1199
0
LINE
8
BLACK
6
CONTINUOUS
10
3.77749
20
-2.1199
11
3.7811
21
-2.126
0
LINE
8
BLACK
6
CONTINUOUS
10
3.7811
20
-2.126
11
3.78102
21
-2.12604
0
LINE
8
BLACK
6
CONTINUOUS
10
3.78102
20
-2.12604
11
3.78192
21
-2.1277
0
LINE
8
BLACK
6
CONTINUOUS
10
3.78192
20
-2.1277
11
3.78173
21
-2.13045
0
LINE
8
BLACK
6
CONTINUOUS
10
3.78173
20
-2.13045
11
3.78107
21
-2.13147
0
LINE
8
BLACK
6
CONTINUOUS
10
3.78107
20
-2.13147
11
3.7811
21
-2.13148
0
LINE
8
BLACK
6
CONTINUOUS
10
3.7811
20
-2.13148
11
3.77749
21
-2.13758
0
LINE
8
BLACK
6
CONTINUOUS
10
3.77749
20
-2.13758
11
3.77569
21
-2.1438
0
LINE
8
BLACK
6
CONTINUOUS
10
3.77569
20
-2.1438
11
3.77558
21
-2.14515
0
LINE
8
BLACK
6
CONTINUOUS
10
3.77558
20
-2.14515
11
3.77558
21
-2.14515
0
LINE
8
BLACK
6
CONTINUOUS
10
3.77558
20
-2.14515
11
3.77557
21
-2.14525
0
LINE
8
BLACK
6
CONTINUOUS
10
3.77557
20
-2.14525
11
3.77557
21
-2.16223
0
LINE
8
BLACK
6
CONTINUOUS
10
3.77557
20
-2.16223
11
3.77558
21
-2.16233
0
LINE
8
BLACK
6
CONTINUOUS
10
3.77558
20
-2.16233
11
3.77558
21
-2.16233
0
LINE
8
BLACK
6
CONTINUOUS
10
3.77558
20
-2.16233
11
3.77569
21
-2.16368
0
LINE
8
BLACK
6
CONTINUOUS
10
3.77569
20
-2.16368
11
3.77749
21
-2.1699
0
LINE
8
BLACK
6
CONTINUOUS
10
3.77749
20
-2.1699
11
3.77749
21
-2.1699
0
LINE
8
BLACK
6
CONTINUOUS
10
3.77749
20
-2.1699
11
3.78078
21
-2.17547
0
LINE
8
BLACK
6
CONTINUOUS
10
3.78078
20
-2.17547
11
3.78536
21
-2.18004
0
LINE
8
BLACK
6
CONTINUOUS
10
3.78536
20
-2.18004
11
3.78861
21
-2.18196
0
LINE
8
BLACK
6
CONTINUOUS
10
3.78861
20
-2.18196
11
3.79093
21
-2.18334
0
LINE
8
BLACK
6
CONTINUOUS
10
3.79093
20
-2.18334
11
3.79447
21
-2.18437
0
LINE
8
BLACK
6
CONTINUOUS
10
3.79447
20
-2.18437
11
3.79679
21
-2.18585
0
LINE
8
BLACK
6
CONTINUOUS
10
3.79679
20
-2.18585
11
3.79794
21
-2.18835
0
LINE
8
BLACK
6
CONTINUOUS
10
3.79794
20
-2.18835
11
3.79797
21
-2.18854
0
LINE
8
BLACK
6
CONTINUOUS
10
3.79797
20
-2.18854
11
3.79879
21
-2.19639
0
LINE
8
BLACK
6
CONTINUOUS
10
3.79879
20
-2.19639
11
3.8011
21
-2.20348
0
LINE
8
BLACK
6
CONTINUOUS
10
3.8011
20
-2.20348
11
3.80482
21
-2.20993
0
LINE
8
BLACK
6
CONTINUOUS
10
3.80482
20
-2.20993
11
3.80981
21
-2.21547
0
LINE
8
BLACK
6
CONTINUOUS
10
3.80981
20
-2.21547
11
3.81584
21
-2.21985
0
LINE
8
BLACK
6
CONTINUOUS
10
3.81584
20
-2.21985
11
3.82265
21
-2.22288
0
LINE
8
BLACK
6
CONTINUOUS
10
3.82265
20
-2.22288
11
3.82994
21
-2.22443
0
LINE
8
BLACK
6
CONTINUOUS
10
3.82994
20
-2.22443
11
3.82994
21
-2.22443
0
LINE
8
BLACK
6
CONTINUOUS
10
3.82994
20
-2.22443
11
3.83739
21
-2.22443
0
LINE
8
BLACK
6
CONTINUOUS
10
3.83739
20
-2.22443
11
3.84225
21
-2.2234
0
LINE
8
BLACK
6
CONTINUOUS
10
3.84225
20
-2.2234
11
3.84468
21
-2.22288
0
LINE
8
BLACK
6
CONTINUOUS
10
3.84468
20
-2.22288
11
3.85149
21
-2.21985
0
LINE
8
BLACK
6
CONTINUOUS
10
3.85149
20
-2.21985
11
3.85441
21
-2.21773
0
LINE
8
BLACK
6
CONTINUOUS
10
3.85441
20
-2.21773
11
3.85751
21
-2.21547
0
LINE
8
BLACK
6
CONTINUOUS
10
3.85751
20
-2.21547
11
3.85999
21
-2.21271
0
LINE
8
BLACK
6
CONTINUOUS
10
3.85999
20
-2.21271
11
3.86234
21
-2.21127
0
LINE
8
BLACK
6
CONTINUOUS
10
3.86234
20
-2.21127
11
3.86509
21
-2.21132
0
LINE
8
BLACK
6
CONTINUOUS
10
3.86509
20
-2.21132
11
3.86737
21
-2.21285
0
LINE
8
BLACK
6
CONTINUOUS
10
3.86737
20
-2.21285
11
3.86847
21
-2.21538
0
LINE
8
BLACK
6
CONTINUOUS
10
3.86847
20
-2.21538
11
3.8685
21
-2.21598
0
LINE
8
BLACK
6
CONTINUOUS
10
3.8685
20
-2.21598
11
3.8685
21
-2.21617
0
LINE
8
BLACK
6
CONTINUOUS
10
3.8685
20
-2.21617
11
3.86851
21
-2.21639
0
LINE
8
BLACK
6
CONTINUOUS
10
3.86851
20
-2.21639
11
3.86876
21
-2.21909
0
LINE
8
BLACK
6
CONTINUOUS
10
3.86876
20
-2.21909
11
3.87078
21
-2.22556
0
LINE
8
BLACK
6
CONTINUOUS
10
3.87078
20
-2.22556
11
3.87428
21
-2.23136
0
LINE
8
BLACK
6
CONTINUOUS
10
3.87428
20
-2.23136
11
3.87907
21
-2.23615
0
LINE
8
BLACK
6
CONTINUOUS
10
3.87907
20
-2.23615
11
3.88487
21
-2.23966
0
LINE
8
BLACK
6
CONTINUOUS
10
3.88487
20
-2.23966
11
3.89134
21
-2.24167
0
LINE
8
BLACK
6
CONTINUOUS
10
3.89134
20
-2.24167
11
3.89404
21
-2.24192
0
LINE
8
BLACK
6
CONTINUOUS
10
3.89404
20
-2.24192
11
3.89426
21
-2.24193
0
LINE
8
BLACK
6
CONTINUOUS
10
3.89426
20
-2.24193
11
3.90354
21
-2.24193
0
LINE
8
BLACK
6
CONTINUOUS
10
3.90354
20
-2.24193
11
3.90354
21
-2.24193
0
LINE
8
BLACK
6
CONTINUOUS
10
3.90354
20
-2.24193
11
3.90354
21
-2.22224
0
LINE
8
BLACK
6
CONTINUOUS
10
3.90354
20
-2.22224
11
3.89641
21
-2.22224
0
LINE
8
BLACK
6
CONTINUOUS
10
3.89641
20
-2.22224
11
3.89326
21
-2.22162
0
LINE
8
BLACK
6
CONTINUOUS
10
3.89326
20
-2.22162
11
3.8906
21
-2.21984
0
LINE
8
BLACK
6
CONTINUOUS
10
3.8906
20
-2.21984
11
3.88881
21
-2.21717
0
LINE
8
BLACK
6
CONTINUOUS
10
3.88881
20
-2.21717
11
3.88819
21
-2.21403
0
LINE
8
BLACK
6
CONTINUOUS
10
3.88819
20
-2.21403
11
3.88819
21
-2.19759
0
LINE
8
BLACK
6
CONTINUOUS
10
3.88819
20
-2.19759
11
3.88881
21
-2.19444
0
LINE
8
BLACK
6
CONTINUOUS
10
3.88881
20
-2.19444
11
3.8906
21
-2.19178
0
LINE
8
BLACK
6
CONTINUOUS
10
3.8906
20
-2.19178
11
3.89326
21
-2.19
0
LINE
8
BLACK
6
CONTINUOUS
10
3.89326
20
-2.19
11
3.89641
21
-2.18937
0
LINE
8
BLACK
6
CONTINUOUS
10
3.89641
20
-2.18937
11
3.93036
21
-2.18937
0
LINE
8
BLACK
6
CONTINUOUS
10
3.93036
20
-2.18937
11
3.93351
21
-2.19
0
LINE
8
BLACK
6
CONTINUOUS
10
3.93351
20
-2.19
11
3.93618
21
-2.19178
0
LINE
8
BLACK
6
CONTINUOUS
10
3.93618
20
-2.19178
11
3.93796
21
-2.19444
0
LINE
8
BLACK
6
CONTINUOUS
10
3.93796
20
-2.19444
11
3.93826
21
-2.19596
0
LINE
8
BLACK
6
CONTINUOUS
10
3.93826
20
-2.19596
11
3.95827
21
-2.19596
0
LINE
8
BLACK
6
CONTINUOUS
10
3.95827
20
-2.19596
11
3.95827
21
-2.19544
0
LINE
8
BLACK
6
CONTINUOUS
10
3.95827
20
-2.19544
11
3.95826
21
-2.19522
0
LINE
8
BLACK
6
CONTINUOUS
10
3.95826
20
-2.19522
11
3.95801
21
-2.19252
0
LINE
8
BLACK
6
CONTINUOUS
10
3.95801
20
-2.19252
11
3.956
21
-2.18605
0
LINE
8
BLACK
6
CONTINUOUS
10
3.956
20
-2.18605
11
3.95454
21
-2.18365
0
LINE
8
BLACK
6
CONTINUOUS
10
3.95454
20
-2.18365
11
3.95384
21
-2.18099
0
LINE
8
BLACK
6
CONTINUOUS
10
3.95384
20
-2.18099
11
3.95454
21
-2.1786
0
LINE
8
BLACK
6
CONTINUOUS
10
3.95454
20
-2.1786
11
3.95601
21
-2.17616
0
LINE
8
BLACK
6
CONTINUOUS
10
3.95601
20
-2.17616
11
3.95803
21
-2.16969
0
LINE
8
BLACK
6
CONTINUOUS
10
3.95803
20
-2.16969
11
3.95829
21
-2.16687
0
LINE
8
BLACK
6
CONTINUOUS
10
3.95829
20
-2.16687
11
3.95829
21
-2.14592
0
LINE
8
BLACK
6
CONTINUOUS
10
3.95829
20
-2.14592
11
3.95803
21
-2.14311
0
LINE
8
BLACK
6
CONTINUOUS
10
3.95803
20
-2.14311
11
3.95601
21
-2.13663
0
LINE
8
BLACK
6
CONTINUOUS
10
3.95601
20
-2.13663
11
3.95314
21
-2.13188
0
LINE
8
BLACK
6
CONTINUOUS
10
3.95314
20
-2.13188
11
3.95243
21
-2.12922
0
LINE
8
BLACK
6
CONTINUOUS
10
3.95243
20
-2.12922
11
3.95246
21
-2.12883
0
LINE
8
BLACK
6
CONTINUOUS
10
3.95246
20
-2.12883
11
3.95265
21
-2.12703
0
LINE
8
BLACK
6
CONTINUOUS
10
3.95265
20
-2.12703
11
3.95278
21
-2.1259
0
LINE
8
BLACK
6
CONTINUOUS
10
3.95278
20
-2.1259
11
3.95278
21
-2.08276
0
LINE
8
BLACK
6
CONTINUOUS
10
3.95278
20
-2.08276
11
3.95252
21
-2.08041
0
LINE
8
BLACK
6
CONTINUOUS
10
3.95252
20
-2.08041
11
3.95054
21
-2.07511
0
LINE
8
BLACK
6
CONTINUOUS
10
3.95054
20
-2.07511
11
3.94955
21
-2.07378
0
LINE
8
BLACK
6
CONTINUOUS
10
3.94955
20
-2.07378
11
3.94859
21
-2.0712
0
LINE
8
BLACK
6
CONTINUOUS
10
3.94859
20
-2.0712
11
3.94917
21
-2.06851
0
LINE
8
BLACK
6
CONTINUOUS
10
3.94917
20
-2.06851
11
3.94955
21
-2.06792
0
LINE
8
BLACK
6
CONTINUOUS
10
3.94955
20
-2.06792
11
3.95053
21
-2.06662
0
LINE
8
BLACK
6
CONTINUOUS
10
3.95053
20
-2.06662
11
3.9525
21
-2.06131
0
LINE
8
BLACK
6
CONTINUOUS
10
3.9525
20
-2.06131
11
3.95274
21
-2.0591
0
LINE
8
BLACK
6
CONTINUOUS
10
3.95274
20
-2.0591
11
3.95276
21
-2.05884
0
LINE
8
BLACK
6
CONTINUOUS
10
3.95276
20
-2.05884
11
3.95276
21
-2.04724
0
LINE
8
BLACK
6
CONTINUOUS
10
3.95276
20
-2.04724
11
3.93307
21
-2.04724
0
LINE
8
BLACK
6
CONTINUOUS
10
3.93307
20
-2.04724
11
3.93307
21
-2.05709
0
LINE
8
BLACK
6
CONTINUOUS
10
3.93307
20
-2.05709
11
3.8937
21
-2.05709
0
LINE
8
BLACK
6
CONTINUOUS
10
3.8937
20
-2.05709
11
3.8937
21
-2.01772
0
LINE
8
BLACK
6
CONTINUOUS
10
3.8937
20
-2.01772
11
3.90354
21
-2.01772
0
LINE
8
BLACK
6
CONTINUOUS
10
3.90354
20
-2.01772
11
3.90354
21
-1.99803
0
LINE
8
BLACK
6
CONTINUOUS
10
3.90354
20
-1.99803
11
3.89648
21
-1.99803
0
LINE
8
BLACK
6
CONTINUOUS
10
3.89648
20
-1.99803
11
3.89384
21
-1.99726
0
LINE
8
BLACK
6
CONTINUOUS
10
3.89384
20
-1.99726
11
3.89204
21
-1.99518
0
LINE
8
BLACK
6
CONTINUOUS
10
3.89204
20
-1.99518
11
3.89181
21
-1.99427
0
LINE
8
BLACK
6
CONTINUOUS
10
3.89181
20
-1.99427
11
3.89178
21
-1.99428
0
LINE
8
BLACK
6
CONTINUOUS
10
3.89178
20
-1.99428
11
3.88983
21
-1.98758
0
LINE
8
BLACK
6
CONTINUOUS
10
3.88983
20
-1.98758
11
3.88722
21
-1.98316
0
LINE
8
BLACK
6
CONTINUOUS
10
3.88722
20
-1.98316
11
3.88654
21
-1.98201
0
LINE
8
BLACK
6
CONTINUOUS
10
3.88654
20
-1.98201
11
3.88196
21
-1.97744
0
LINE
8
BLACK
6
CONTINUOUS
10
3.88196
20
-1.97744
11
3.87985
21
-1.97619
0
LINE
8
BLACK
6
CONTINUOUS
10
3.87985
20
-1.97619
11
3.87639
21
-1.97414
0
LINE
8
BLACK
6
CONTINUOUS
10
3.87639
20
-1.97414
11
3.87018
21
-1.97234
0
LINE
8
BLACK
6
CONTINUOUS
10
3.87018
20
-1.97234
11
3.86882
21
-1.97223
0
LINE
8
BLACK
6
CONTINUOUS
10
3.86882
20
-1.97223
11
3.86882
21
-1.97223
0
LINE
8
BLACK
6
CONTINUOUS
10
3.86882
20
-1.97223
11
3.86873
21
-1.97222
0
LINE
8
BLACK
6
CONTINUOUS
10
3.86873
20
-1.97222
11
3.86863
21
-1.97222
0
LINE
8
BLACK
6
CONTINUOUS
10
3.86863
20
-1.97222
11
3.84841
21
-1.97222
0
LINE
8
BLACK
6
CONTINUOUS
10
3.84841
20
-1.97222
11
3.84577
21
-1.97145
0
LINE
8
BLACK
6
CONTINUOUS
10
3.84577
20
-1.97145
11
3.84396
21
-1.96937
0
LINE
8
BLACK
6
CONTINUOUS
10
3.84396
20
-1.96937
11
3.84352
21
-1.96734
0
LINE
8
BLACK
6
CONTINUOUS
10
3.84352
20
-1.96734
11
3.84352
21
-1.88962
0
LINE
8
BLACK
6
CONTINUOUS
10
3.84352
20
-1.88962
11
3.84361
21
-1.88881
0
LINE
8
BLACK
6
CONTINUOUS
10
3.84361
20
-1.88881
11
3.84353
21
-1.88605
0
LINE
8
BLACK
6
CONTINUOUS
10
3.84353
20
-1.88605
11
3.84352
21
-1.8859
0
LINE
8
BLACK
6
CONTINUOUS
10
3.84352
20
-1.8859
11
3.84352
21
-1.88497
0
LINE
8
BLACK
6
CONTINUOUS
10
3.84352
20
-1.88497
11
3.84352
21
-1.88481
0
LINE
8
BLACK
6
CONTINUOUS
10
3.84352
20
-1.88481
11
3.8435
21
-1.88466
0
LINE
8
BLACK
6
CONTINUOUS
10
3.8435
20
-1.88466
11
3.84347
21
-1.8842
0
LINE
8
BLACK
6
CONTINUOUS
10
3.84347
20
-1.8842
11
3.84341
21
-1.88248
0
LINE
8
BLACK
6
CONTINUOUS
10
3.84341
20
-1.88248
11
3.84319
21
-1.88172
0
LINE
8
BLACK
6
CONTINUOUS
10
3.84319
20
-1.88172
11
3.84304
21
-1.88097
0
LINE
8
BLACK
6
CONTINUOUS
10
3.84304
20
-1.88097
11
3.84294
21
-1.88019
0
LINE
8
BLACK
6
CONTINUOUS
10
3.84294
20
-1.88019
11
3.84231
21
-1.87859
0
LINE
8
BLACK
6
CONTINUOUS
10
3.84231
20
-1.87859
11
3.84216
21
-1.87816
0
LINE
8
BLACK
6
CONTINUOUS
10
3.84216
20
-1.87816
11
3.84168
21
-1.8765
0
LINE
8
BLACK
6
CONTINUOUS
10
3.84168
20
-1.8765
11
3.84128
21
-1.87583
0
LINE
8
BLACK
6
CONTINUOUS
10
3.84128
20
-1.87583
11
3.84094
21
-1.87514
0
LINE
8
BLACK
6
CONTINUOUS
10
3.84094
20
-1.87514
11
3.84065
21
-1.8744
0
LINE
8
BLACK
6
CONTINUOUS
10
3.84065
20
-1.8744
11
3.83964
21
-1.87301
0
LINE
8
BLACK
6
CONTINUOUS
10
3.83964
20
-1.87301
11
3.83939
21
-1.87263
0
LINE
8
BLACK
6
CONTINUOUS
10
3.83939
20
-1.87263
11
3.83851
21
-1.87115
0
LINE
8
BLACK
6
CONTINUOUS
10
3.83851
20
-1.87115
11
3.83795
21
-1.87059
0
LINE
8
BLACK
6
CONTINUOUS
10
3.83795
20
-1.87059
11
3.83746
21
-1.87001
0
LINE
8
BLACK
6
CONTINUOUS
10
3.83746
20
-1.87001
11
3.83699
21
-1.86937
0
LINE
8
BLACK
6
CONTINUOUS
10
3.83699
20
-1.86937
11
3.83699
21
-1.86937
0
LINE
8
BLACK
6
CONTINUOUS
10
3.83699
20
-1.86937
11
3.83567
21
-1.86827
0
LINE
8
BLACK
6
CONTINUOUS
10
3.83567
20
-1.86827
11
3.83533
21
-1.86797
0
LINE
8
BLACK
6
CONTINUOUS
10
3.83533
20
-1.86797
11
3.81052
21
-1.84316
0
LINE
8
BLACK
6
CONTINUOUS
10
3.81052
20
-1.84316
11
3.81001
21
-1.84252
0
LINE
8
BLACK
6
CONTINUOUS
10
3.81001
20
-1.84252
11
3.808
21
-1.84063
0
LINE
8
BLACK
6
CONTINUOUS
10
3.808
20
-1.84063
11
3.80789
21
-1.84053
0
LINE
8
BLACK
6
CONTINUOUS
10
3.80789
20
-1.84053
11
3.80723
21
-1.83987
0
LINE
8
BLACK
6
CONTINUOUS
10
3.80723
20
-1.83987
11
3.80712
21
-1.83976
0
LINE
8
BLACK
6
CONTINUOUS
10
3.80712
20
-1.83976
11
3.807
21
-1.83966
0
LINE
8
BLACK
6
CONTINUOUS
10
3.807
20
-1.83966
11
3.80665
21
-1.83936
0
LINE
8
BLACK
6
CONTINUOUS
10
3.80665
20
-1.83936
11
3.80539
21
-1.83819
0
LINE
8
BLACK
6
CONTINUOUS
10
3.80539
20
-1.83819
11
3.8047
21
-1.83781
0
LINE
8
BLACK
6
CONTINUOUS
10
3.8047
20
-1.83781
11
3.80406
21
-1.83739
0
LINE
8
BLACK
6
CONTINUOUS
10
3.80406
20
-1.83739
11
3.80344
21
-1.8369
0
LINE
8
BLACK
6
CONTINUOUS
10
3.80344
20
-1.8369
11
3.80186
21
-1.83622
0
LINE
8
BLACK
6
CONTINUOUS
10
3.80186
20
-1.83622
11
3.80145
21
-1.83602
0
LINE
8
BLACK
6
CONTINUOUS
10
3.80145
20
-1.83602
11
3.79994
21
-1.83519
0
LINE
8
BLACK
6
CONTINUOUS
10
3.79994
20
-1.83519
11
3.79918
21
-1.83499
0
LINE
8
BLACK
6
CONTINUOUS
10
3.79918
20
-1.83499
11
3.79845
21
-1.83474
0
LINE
8
BLACK
6
CONTINUOUS
10
3.79845
20
-1.83474
11
3.79773
21
-1.83443
0
LINE
8
BLACK
6
CONTINUOUS
10
3.79773
20
-1.83443
11
3.79603
21
-1.83416
0
LINE
8
BLACK
6
CONTINUOUS
10
3.79603
20
-1.83416
11
3.79558
21
-1.83407
0
LINE
8
BLACK
6
CONTINUOUS
10
3.79558
20
-1.83407
11
3.79391
21
-1.83364
0
LINE
8
BLACK
6
CONTINUOUS
10
3.79391
20
-1.83364
11
3.79313
21
-1.83364
0
LINE
8
BLACK
6
CONTINUOUS
10
3.79313
20
-1.83364
11
3.79236
21
-1.83358
0
LINE
8
BLACK
6
CONTINUOUS
10
3.79236
20
-1.83358
11
3.79207
21
-1.83354
0
LINE
8
BLACK
6
CONTINUOUS
10
3.79207
20
-1.83354
11
3.79158
21
-1.83346
0
LINE
8
BLACK
6
CONTINUOUS
10
3.79158
20
-1.83346
11
3.79158
21
-1.83346
0
LINE
8
BLACK
6
CONTINUOUS
10
3.79158
20
-1.83346
11
3.79055
21
-1.83356
0
LINE
8
BLACK
6
CONTINUOUS
10
3.79055
20
-1.83356
11
3.78987
21
-1.83362
0
LINE
8
BLACK
6
CONTINUOUS
10
3.78987
20
-1.83362
11
3.78941
21
-1.83364
0
LINE
8
BLACK
6
CONTINUOUS
10
3.78941
20
-1.83364
11
3.53824
21
-1.83364
0
LINE
8
BLACK
6
CONTINUOUS
10
3.53824
20
-1.83364
11
3.53743
21
-1.83355
0
LINE
8
BLACK
6
CONTINUOUS
10
3.53743
20
-1.83355
11
3.53468
21
-1.83364
0
LINE
8
BLACK
6
CONTINUOUS
10
3.53468
20
-1.83364
11
3.53452
21
-1.83364
0
LINE
8
BLACK
6
CONTINUOUS
10
3.53452
20
-1.83364
11
3.53344
21
-1.83364
0
LINE
8
BLACK
6
CONTINUOUS
10
3.53344
20
-1.83364
11
3.53328
21
-1.83366
0
LINE
8
BLACK
6
CONTINUOUS
10
3.53328
20
-1.83366
11
3.53328
21
-1.83366
0
LINE
8
BLACK
6
CONTINUOUS
10
3.53328
20
-1.83366
11
3.53328
21
-1.83366
0
LINE
8
BLACK
6
CONTINUOUS
10
3.53328
20
-1.83366
11
3.53282
21
-1.8337
0
LINE
8
BLACK
6
CONTINUOUS
10
3.53282
20
-1.8337
11
3.5311
21
-1.83375
0
LINE
8
BLACK
6
CONTINUOUS
10
3.5311
20
-1.83375
11
3.53034
21
-1.83397
0
LINE
8
BLACK
6
CONTINUOUS
10
3.53034
20
-1.83397
11
3.52959
21
-1.83413
0
LINE
8
BLACK
6
CONTINUOUS
10
3.52959
20
-1.83413
11
3.52881
21
-1.83423
0
LINE
8
BLACK
6
CONTINUOUS
10
3.52881
20
-1.83423
11
3.52721
21
-1.83486
0
LINE
8
BLACK
6
CONTINUOUS
10
3.52721
20
-1.83486
11
3.52678
21
-1.83501
0
LINE
8
BLACK
6
CONTINUOUS
10
3.52678
20
-1.83501
11
3.52513
21
-1.83549
0
LINE
8
BLACK
6
CONTINUOUS
10
3.52513
20
-1.83549
11
3.52445
21
-1.83589
0
LINE
8
BLACK
6
CONTINUOUS
10
3.52445
20
-1.83589
11
3.52376
21
-1.83623
0
LINE
8
BLACK
6
CONTINUOUS
10
3.52376
20
-1.83623
11
3.52303
21
-1.83652
0
LINE
8
BLACK
6
CONTINUOUS
10
3.52303
20
-1.83652
11
3.52164
21
-1.83753
0
LINE
8
BLACK
6
CONTINUOUS
10
3.52164
20
-1.83753
11
3.52125
21
-1.83778
0
LINE
8
BLACK
6
CONTINUOUS
10
3.52125
20
-1.83778
11
3.51977
21
-1.83865
0
LINE
8
BLACK
6
CONTINUOUS
10
3.51977
20
-1.83865
11
3.51921
21
-1.83921
0
LINE
8
BLACK
6
CONTINUOUS
10
3.51921
20
-1.83921
11
3.51863
21
-1.83971
0
LINE
8
BLACK
6
CONTINUOUS
10
3.51863
20
-1.83971
11
3.51799
21
-1.84017
0
LINE
8
BLACK
6
CONTINUOUS
10
3.51799
20
-1.84017
11
3.5169
21
-1.8415
0
LINE
8
BLACK
6
CONTINUOUS
10
3.5169
20
-1.8415
11
3.51659
21
-1.84184
0
LINE
8
BLACK
6
CONTINUOUS
10
3.51659
20
-1.84184
11
3.43174
21
-1.92669
0
LINE
8
BLACK
6
CONTINUOUS
10
3.43174
20
-1.92669
11
3.43111
21
-1.92719
0
LINE
8
BLACK
6
CONTINUOUS
10
3.43111
20
-1.92719
11
3.42922
21
-1.92921
0
LINE
8
BLACK
6
CONTINUOUS
10
3.42922
20
-1.92921
11
3.42911
21
-1.92932
0
LINE
8
BLACK
6
CONTINUOUS
10
3.42911
20
-1.92932
11
3.42845
21
-1.92998
0
LINE
8
BLACK
6
CONTINUOUS
10
3.42845
20
-1.92998
11
3.42845
21
-1.92998
0
LINE
8
BLACK
6
CONTINUOUS
10
3.42845
20
-1.92998
11
3.42834
21
-1.93008
0
LINE
8
BLACK
6
CONTINUOUS
10
3.42834
20
-1.93008
11
3.42825
21
-1.9302
0
LINE
8
BLACK
6
CONTINUOUS
10
3.42825
20
-1.9302
11
3.42825
21
-1.93021
0
LINE
8
BLACK
6
CONTINUOUS
10
3.42825
20
-1.93021
11
3.42824
21
-1.93021
0
LINE
8
BLACK
6
CONTINUOUS
10
3.42824
20
-1.93021
11
3.42795
21
-1.93056
0
LINE
8
BLACK
6
CONTINUOUS
10
3.42795
20
-1.93056
11
3.42677
21
-1.93181
0
LINE
8
BLACK
6
CONTINUOUS
10
3.42677
20
-1.93181
11
3.42639
21
-1.9325
0
LINE
8
BLACK
6
CONTINUOUS
10
3.42639
20
-1.9325
11
3.42597
21
-1.93314
0
LINE
8
BLACK
6
CONTINUOUS
10
3.42597
20
-1.93314
11
3.42549
21
-1.93377
0
LINE
8
BLACK
6
CONTINUOUS
10
3.42549
20
-1.93377
11
3.4248
21
-1.93534
0
LINE
8
BLACK
6
CONTINUOUS
10
3.4248
20
-1.93534
11
3.4246
21
-1.93576
0
LINE
8
BLACK
6
CONTINUOUS
10
3.4246
20
-1.93576
11
3.42377
21
-1.93726
0
LINE
8
BLACK
6
CONTINUOUS
10
3.42377
20
-1.93726
11
3.42358
21
-1.93803
0
LINE
8
BLACK
6
CONTINUOUS
10
3.42358
20
-1.93803
11
3.42333
21
-1.93875
0
LINE
8
BLACK
6
CONTINUOUS
10
3.42333
20
-1.93875
11
3.42301
21
-1.93948
0
LINE
8
BLACK
6
CONTINUOUS
10
3.42301
20
-1.93948
11
3.42275
21
-1.94118
0
LINE
8
BLACK
6
CONTINUOUS
10
3.42275
20
-1.94118
11
3.42265
21
-1.94163
0
LINE
8
BLACK
6
CONTINUOUS
10
3.42265
20
-1.94163
11
3.42222
21
-1.94329
0
LINE
8
BLACK
6
CONTINUOUS
10
3.42222
20
-1.94329
11
3.42222
21
-1.94408
0
LINE
8
BLACK
6
CONTINUOUS
10
3.42222
20
-1.94408
11
3.42216
21
-1.94484
0
LINE
8
BLACK
6
CONTINUOUS
10
3.42216
20
-1.94484
11
3.42204
21
-1.94562
0
LINE
8
BLACK
6
CONTINUOUS
10
3.42204
20
-1.94562
11
3.4222
21
-1.94733
0
CIRCLE
8
BLACK
10
3.52362
20
-2.41732
40
0.00787402
0
CIRCLE
8
BLACK
10
3.56299
20
-2.41732
40
0.00787402
0
CIRCLE
8
BLACK
10
3.56299
20
-2.45669
40
0.00787402
0
CIRCLE
8
BLACK
10
3.76378
20
-2.8622
40
0.00787402
0
CIRCLE
8
BLACK
10
3.83366
20
-2.18898
40
0.00787402
0
CIRCLE
8
BLACK
10
3.6378
20
-2.18504
40
0.00787402
0
CIRCLE
8
BLACK
10
3.5748
20
-2.10236
40
0.00787402
0
CIRCLE
8
BLACK
10
3.5748
20
-2.05512
40
0.00787402
  0
ENDSEC
  0
EOF
