  0
SECTION
  2
HEADER
  9
$ANGBASE
  50
0.0
  9
$ANGDIR
  70
1
  9
$MEASUREMENT
  70
0
  0
ENDSEC
  0
SECTION
  2
TABLES
  0
TABLE
  2
LTYPE
  70
4
  0
LTYPE
  5
40F
  2
CONTINUOUS
  70
0
  3
Solid line
  72
65
  73
0
  40
0.0
  0
LTYPE
  5
410
  2
DASHDOT
 70
0
  3
Dash Dot ____ _ ____ _
 72
65
 73
4
 40
2.0
 49
1.25
 49
-0.25
 49
0.25
 49
-0.25
  0
LTYPE
  5
411
  2
DASHED
 70
0
  3
Dashed __ __ __ __ __
 72
65
 73
2
 40
0.75
 49
0.5
 49
-0.25
  0
LTYPE
  5
43B
  2
DOTTED
 70
0
  3
Dotted .  .  .  .
 72
65
 73
2
 40
0.2
 49
0.0
 49
-0.2
  0
ENDTAB
  0
TABLE
  2
STYLE
  70
4
  0
STYLE
  2
KICAD
  70
0
  40
0
  41
1
  42
1
  50
0
  71
0
  3
isocp.shx
  0
STYLE
  2
KICADB
  70
0
  40
0
  41
1
  42
1
  50
0
  71
0
  3
isocp.shx
  0
STYLE
  2
KICADI
  70
0
  40
0
  41
1
  42
1
  50
15
  71
0
  3
isocp.shx
  0
STYLE
  2
KICADBI
  70
0
  40
0
  41
1
  42
1
  50
15
  71
0
  3
isocp.shx
  0
ENDTAB
  0
TABLE
  2
LAYER
  70
1
  0
LAYER
  2
BLACK
  70
0
  62
7
  6
CONTINUOUS
  0
ENDTAB
  0
ENDSEC
  0
SECTION
  2
ENTITIES
0
LINE
8
BLACK
6
CONTINUOUS
10
3.46707
20
-2.4662
11
3.47559
21
-2.47112
0
LINE
8
BLACK
6
CONTINUOUS
10
3.47559
20
-2.47112
11
3.46989
21
-2.48101
0
LINE
8
BLACK
6
CONTINUOUS
10
3.46989
20
-2.48101
11
3.47602
21
-2.48455
0
LINE
8
BLACK
6
CONTINUOUS
10
3.47602
20
-2.48455
11
3.48173
21
-2.47466
0
LINE
8
BLACK
6
CONTINUOUS
10
3.48173
20
-2.47466
11
3.48599
21
-2.47712
0
LINE
8
BLACK
6
CONTINUOUS
10
3.48599
20
-2.47712
11
3.49092
21
-2.4686
0
LINE
8
BLACK
6
CONTINUOUS
10
3.49092
20
-2.4686
11
3.49092
21
-2.4686
0
LINE
8
BLACK
6
CONTINUOUS
10
3.49092
20
-2.4686
11
3.48581
21
-2.46565
0
LINE
8
BLACK
6
CONTINUOUS
10
3.48581
20
-2.46565
11
3.48425
21
-2.46512
0
LINE
8
BLACK
6
CONTINUOUS
10
3.48425
20
-2.46512
11
3.4826
21
-2.46417
0
LINE
8
BLACK
6
CONTINUOUS
10
3.4826
20
-2.46417
11
3.48136
21
-2.46308
0
LINE
8
BLACK
6
CONTINUOUS
10
3.48136
20
-2.46308
11
3.47199
21
-2.45767
0
LINE
8
BLACK
6
CONTINUOUS
10
3.47199
20
-2.45767
11
3.47199
21
-2.45767
0
LINE
8
BLACK
6
CONTINUOUS
10
3.47199
20
-2.45767
11
3.46707
21
-2.4662
0
LINE
8
BLACK
6
CONTINUOUS
10
3.49452
20
-2.48204
11
3.49878
21
-2.48451
0
LINE
8
BLACK
6
CONTINUOUS
10
3.49878
20
-2.48451
11
3.49307
21
-2.49439
0
LINE
8
BLACK
6
CONTINUOUS
10
3.49307
20
-2.49439
11
3.49921
21
-2.49794
0
LINE
8
BLACK
6
CONTINUOUS
10
3.49921
20
-2.49794
11
3.50492
21
-2.48805
0
LINE
8
BLACK
6
CONTINUOUS
10
3.50492
20
-2.48805
11
3.51344
21
-2.49297
0
LINE
8
BLACK
6
CONTINUOUS
10
3.51344
20
-2.49297
11
3.51836
21
-2.48445
0
LINE
8
BLACK
6
CONTINUOUS
10
3.51836
20
-2.48445
11
3.51836
21
-2.48445
0
LINE
8
BLACK
6
CONTINUOUS
10
3.51836
20
-2.48445
11
3.509
21
-2.47904
0
LINE
8
BLACK
6
CONTINUOUS
10
3.509
20
-2.47904
11
3.50743
21
-2.47851
0
LINE
8
BLACK
6
CONTINUOUS
10
3.50743
20
-2.47851
11
3.50578
21
-2.47756
0
LINE
8
BLACK
6
CONTINUOUS
10
3.50578
20
-2.47756
11
3.50454
21
-2.47647
0
LINE
8
BLACK
6
CONTINUOUS
10
3.50454
20
-2.47647
11
3.49944
21
-2.47352
0
LINE
8
BLACK
6
CONTINUOUS
10
3.49944
20
-2.47352
11
3.49944
21
-2.47352
0
LINE
8
BLACK
6
CONTINUOUS
10
3.49944
20
-2.47352
11
3.49452
21
-2.48204
0
LINE
8
BLACK
6
CONTINUOUS
10
3.52196
20
-2.49789
11
3.53049
21
-2.50281
0
LINE
8
BLACK
6
CONTINUOUS
10
3.53049
20
-2.50281
11
3.52478
21
-2.5127
0
LINE
8
BLACK
6
CONTINUOUS
10
3.52478
20
-2.5127
11
3.5333
21
-2.51762
0
LINE
8
BLACK
6
CONTINUOUS
10
3.5333
20
-2.51762
11
3.5333
21
-2.51762
0
LINE
8
BLACK
6
CONTINUOUS
10
3.5333
20
-2.51762
11
3.5395
21
-2.50689
0
LINE
8
BLACK
6
CONTINUOUS
10
3.5395
20
-2.50689
11
3.54044
21
-2.50412
0
LINE
8
BLACK
6
CONTINUOUS
10
3.54044
20
-2.50412
11
3.54018
21
-2.50022
0
LINE
8
BLACK
6
CONTINUOUS
10
3.54018
20
-2.50022
11
3.53845
21
-2.4967
0
LINE
8
BLACK
6
CONTINUOUS
10
3.53845
20
-2.4967
11
3.53625
21
-2.49477
0
LINE
8
BLACK
6
CONTINUOUS
10
3.53625
20
-2.49477
11
3.52689
21
-2.48937
0
LINE
8
BLACK
6
CONTINUOUS
10
3.52689
20
-2.48937
11
3.52689
21
-2.48937
0
LINE
8
BLACK
6
CONTINUOUS
10
3.52689
20
-2.48937
11
3.52196
21
-2.49789
0
LINE
8
BLACK
6
CONTINUOUS
10
3.47836
20
-2.52181
11
3.47992
21
-2.52234
0
LINE
8
BLACK
6
CONTINUOUS
10
3.47992
20
-2.52234
11
3.48157
21
-2.5233
0
LINE
8
BLACK
6
CONTINUOUS
10
3.48157
20
-2.5233
11
3.48282
21
-2.52439
0
LINE
8
BLACK
6
CONTINUOUS
10
3.48282
20
-2.52439
11
3.51007
21
-2.54012
0
LINE
8
BLACK
6
CONTINUOUS
10
3.51007
20
-2.54012
11
3.51284
21
-2.54106
0
LINE
8
BLACK
6
CONTINUOUS
10
3.51284
20
-2.54106
11
3.51675
21
-2.54081
0
LINE
8
BLACK
6
CONTINUOUS
10
3.51675
20
-2.54081
11
3.52026
21
-2.53907
0
LINE
8
BLACK
6
CONTINUOUS
10
3.52026
20
-2.53907
11
3.52219
21
-2.53687
0
LINE
8
BLACK
6
CONTINUOUS
10
3.52219
20
-2.53687
11
3.52838
21
-2.52615
0
LINE
8
BLACK
6
CONTINUOUS
10
3.52838
20
-2.52615
11
3.52838
21
-2.52615
0
LINE
8
BLACK
6
CONTINUOUS
10
3.52838
20
-2.52615
11
3.51986
21
-2.52122
0
LINE
8
BLACK
6
CONTINUOUS
10
3.51986
20
-2.52122
11
3.51415
21
-2.53111
0
LINE
8
BLACK
6
CONTINUOUS
10
3.51415
20
-2.53111
11
3.48858
21
-2.51635
0
LINE
8
BLACK
6
CONTINUOUS
10
3.48858
20
-2.51635
11
3.49429
21
-2.50646
0
LINE
8
BLACK
6
CONTINUOUS
10
3.49429
20
-2.50646
11
3.48815
21
-2.50292
0
LINE
8
BLACK
6
CONTINUOUS
10
3.48815
20
-2.50292
11
3.48244
21
-2.5128
0
LINE
8
BLACK
6
CONTINUOUS
10
3.48244
20
-2.5128
11
3.47818
21
-2.51034
0
LINE
8
BLACK
6
CONTINUOUS
10
3.47818
20
-2.51034
11
3.47326
21
-2.51887
0
LINE
8
BLACK
6
CONTINUOUS
10
3.47326
20
-2.51887
11
3.47326
21
-2.51887
0
LINE
8
BLACK
6
CONTINUOUS
10
3.47326
20
-2.51887
11
3.47836
21
-2.52181
0
LINE
8
BLACK
6
CONTINUOUS
10
3.42399
20
-2.48725
11
3.42572
21
-2.49076
0
LINE
8
BLACK
6
CONTINUOUS
10
3.42572
20
-2.49076
11
3.42792
21
-2.49269
0
LINE
8
BLACK
6
CONTINUOUS
10
3.42792
20
-2.49269
11
3.45517
21
-2.50843
0
LINE
8
BLACK
6
CONTINUOUS
10
3.45517
20
-2.50843
11
3.45674
21
-2.50896
0
LINE
8
BLACK
6
CONTINUOUS
10
3.45674
20
-2.50896
11
3.45839
21
-2.50991
0
LINE
8
BLACK
6
CONTINUOUS
10
3.45839
20
-2.50991
11
3.45963
21
-2.511
0
LINE
8
BLACK
6
CONTINUOUS
10
3.45963
20
-2.511
11
3.46473
21
-2.51395
0
LINE
8
BLACK
6
CONTINUOUS
10
3.46473
20
-2.51395
11
3.46473
21
-2.51395
0
LINE
8
BLACK
6
CONTINUOUS
10
3.46473
20
-2.51395
11
3.46966
21
-2.50542
0
LINE
8
BLACK
6
CONTINUOUS
10
3.46966
20
-2.50542
11
3.46539
21
-2.50296
0
LINE
8
BLACK
6
CONTINUOUS
10
3.46539
20
-2.50296
11
3.4711
21
-2.49307
0
LINE
8
BLACK
6
CONTINUOUS
10
3.4711
20
-2.49307
11
3.46905
21
-2.49189
0
LINE
8
BLACK
6
CONTINUOUS
10
3.46905
20
-2.49189
11
3.46496
21
-2.48953
0
LINE
8
BLACK
6
CONTINUOUS
10
3.46496
20
-2.48953
11
3.45926
21
-2.49942
0
LINE
8
BLACK
6
CONTINUOUS
10
3.45926
20
-2.49942
11
3.43368
21
-2.48466
0
LINE
8
BLACK
6
CONTINUOUS
10
3.43368
20
-2.48466
11
3.43939
21
-2.47477
0
LINE
8
BLACK
6
CONTINUOUS
10
3.43939
20
-2.47477
11
3.43087
21
-2.46985
0
LINE
8
BLACK
6
CONTINUOUS
10
3.43087
20
-2.46985
11
3.43087
21
-2.46985
0
LINE
8
BLACK
6
CONTINUOUS
10
3.43087
20
-2.46985
11
3.42468
21
-2.48057
0
LINE
8
BLACK
6
CONTINUOUS
10
3.42468
20
-2.48057
11
3.42374
21
-2.48335
0
LINE
8
BLACK
6
CONTINUOUS
10
3.42374
20
-2.48335
11
3.42399
21
-2.48725
0
LINE
8
BLACK
6
CONTINUOUS
10
3.44431
20
-2.46624
11
3.45002
21
-2.45636
0
LINE
8
BLACK
6
CONTINUOUS
10
3.45002
20
-2.45636
11
3.45855
21
-2.46128
0
LINE
8
BLACK
6
CONTINUOUS
10
3.45855
20
-2.46128
11
3.46347
21
-2.45275
0
LINE
8
BLACK
6
CONTINUOUS
10
3.46347
20
-2.45275
11
3.46347
21
-2.45275
0
LINE
8
BLACK
6
CONTINUOUS
10
3.46347
20
-2.45275
11
3.4541
21
-2.44735
0
LINE
8
BLACK
6
CONTINUOUS
10
3.4541
20
-2.44735
11
3.45133
21
-2.44641
0
LINE
8
BLACK
6
CONTINUOUS
10
3.45133
20
-2.44641
11
3.44743
21
-2.44666
0
LINE
8
BLACK
6
CONTINUOUS
10
3.44743
20
-2.44666
11
3.44391
21
-2.44839
0
LINE
8
BLACK
6
CONTINUOUS
10
3.44391
20
-2.44839
11
3.44198
21
-2.4506
0
LINE
8
BLACK
6
CONTINUOUS
10
3.44198
20
-2.4506
11
3.43579
21
-2.46132
0
LINE
8
BLACK
6
CONTINUOUS
10
3.43579
20
-2.46132
11
3.43579
21
-2.46132
0
LINE
8
BLACK
6
CONTINUOUS
10
3.43579
20
-2.46132
11
3.44431
21
-2.46624
0
LINE
8
BLACK
6
CONTINUOUS
10
3.97659
20
-1.81106
11
3.97817
21
-1.8112
0
LINE
8
BLACK
6
CONTINUOUS
10
3.97817
20
-1.8112
11
3.98314
21
-1.81169
0
LINE
8
BLACK
6
CONTINUOUS
10
3.98314
20
-1.81169
11
3.98392
21
-1.81183
0
LINE
8
BLACK
6
CONTINUOUS
10
3.98392
20
-1.81183
11
3.98648
21
-1.81252
0
LINE
8
BLACK
6
CONTINUOUS
10
3.98648
20
-1.81252
11
3.98662
21
-1.81256
0
LINE
8
BLACK
6
CONTINUOUS
10
3.98662
20
-1.81256
11
3.99022
21
-1.81365
0
LINE
8
BLACK
6
CONTINUOUS
10
3.99022
20
-1.81365
11
3.99086
21
-1.8139
0
LINE
8
BLACK
6
CONTINUOUS
10
3.99086
20
-1.8139
11
3.99346
21
-1.81511
0
LINE
8
BLACK
6
CONTINUOUS
10
3.99346
20
-1.81511
11
3.9937
21
-1.81522
0
LINE
8
BLACK
6
CONTINUOUS
10
3.9937
20
-1.81522
11
3.99538
21
-1.81612
0
LINE
8
BLACK
6
CONTINUOUS
10
3.99538
20
-1.81612
11
3.99681
21
-1.81689
0
LINE
8
BLACK
6
CONTINUOUS
10
3.99681
20
-1.81689
11
3.99731
21
-1.8172
0
LINE
8
BLACK
6
CONTINUOUS
10
3.99731
20
-1.8172
11
3.99972
21
-1.81888
0
LINE
8
BLACK
6
CONTINUOUS
10
3.99972
20
-1.81888
11
4.00002
21
-1.81911
0
LINE
8
BLACK
6
CONTINUOUS
10
4.00002
20
-1.81911
11
4.0027
21
-1.82131
0
LINE
8
BLACK
6
CONTINUOUS
10
4.0027
20
-1.82131
11
4.00305
21
-1.82163
0
LINE
8
BLACK
6
CONTINUOUS
10
4.00305
20
-1.82163
11
4.00514
21
-1.82372
0
LINE
8
BLACK
6
CONTINUOUS
10
4.00514
20
-1.82372
11
4.00547
21
-1.82408
0
LINE
8
BLACK
6
CONTINUOUS
10
4.00547
20
-1.82408
11
4.00766
21
-1.82675
0
LINE
8
BLACK
6
CONTINUOUS
10
4.00766
20
-1.82675
11
4.00789
21
-1.82705
0
LINE
8
BLACK
6
CONTINUOUS
10
4.00789
20
-1.82705
11
4.00958
21
-1.82946
0
LINE
8
BLACK
6
CONTINUOUS
10
4.00958
20
-1.82946
11
4.00988
21
-1.82996
0
LINE
8
BLACK
6
CONTINUOUS
10
4.00988
20
-1.82996
11
4.01155
21
-1.83308
0
LINE
8
BLACK
6
CONTINUOUS
10
4.01155
20
-1.83308
11
4.01167
21
-1.83331
0
LINE
8
BLACK
6
CONTINUOUS
10
4.01167
20
-1.83331
11
4.01288
21
-1.83591
0
LINE
8
BLACK
6
CONTINUOUS
10
4.01288
20
-1.83591
11
4.01312
21
-1.83655
0
LINE
8
BLACK
6
CONTINUOUS
10
4.01312
20
-1.83655
11
4.01421
21
-1.84015
0
LINE
8
BLACK
6
CONTINUOUS
10
4.01421
20
-1.84015
11
4.01426
21
-1.8403
0
LINE
8
BLACK
6
CONTINUOUS
10
4.01426
20
-1.8403
11
4.01494
21
-1.84285
0
LINE
8
BLACK
6
CONTINUOUS
10
4.01494
20
-1.84285
11
4.01508
21
-1.84363
0
LINE
8
BLACK
6
CONTINUOUS
10
4.01508
20
-1.84363
11
4.01557
21
-1.8486
0
LINE
8
BLACK
6
CONTINUOUS
10
4.01557
20
-1.8486
11
4.01564
21
-1.84936
0
LINE
8
BLACK
6
CONTINUOUS
10
4.01564
20
-1.84936
11
4.01571
21
-1.85018
0
LINE
8
BLACK
6
CONTINUOUS
10
4.01571
20
-1.85018
11
4.01573
21
-1.85061
0
LINE
8
BLACK
6
CONTINUOUS
10
4.01573
20
-1.85061
11
4.01573
21
-2.13865
0
LINE
8
BLACK
6
CONTINUOUS
10
4.01573
20
-2.13865
11
4.01495
21
-2.14129
0
LINE
8
BLACK
6
CONTINUOUS
10
4.01495
20
-2.14129
11
4.01287
21
-2.14309
0
LINE
8
BLACK
6
CONTINUOUS
10
4.01287
20
-2.14309
11
4.0109
21
-2.14354
0
LINE
8
BLACK
6
CONTINUOUS
10
4.0109
20
-2.14354
11
4.01069
21
-2.14354
0
LINE
8
BLACK
6
CONTINUOUS
10
4.01069
20
-2.14354
11
4.01069
21
-2.14354
0
LINE
8
BLACK
6
CONTINUOUS
10
4.01069
20
-2.14354
11
3.95061
21
-2.14418
0
LINE
8
BLACK
6
CONTINUOUS
10
3.95061
20
-2.14418
11
3.83753
21
-2.1454
0
LINE
8
BLACK
6
CONTINUOUS
10
3.83753
20
-2.1454
11
3.83752
21
-2.1454
0
LINE
8
BLACK
6
CONTINUOUS
10
3.83752
20
-2.1454
11
3.8374
21
-2.1454
0
LINE
8
BLACK
6
CONTINUOUS
10
3.8374
20
-2.1454
11
3.83727
21
-2.14542
0
LINE
8
BLACK
6
CONTINUOUS
10
3.83727
20
-2.14542
11
3.83727
21
-2.14542
0
LINE
8
BLACK
6
CONTINUOUS
10
3.83727
20
-2.14542
11
3.83544
21
-2.14563
0
LINE
8
BLACK
6
CONTINUOUS
10
3.83544
20
-2.14563
11
3.83544
21
-2.14563
0
LINE
8
BLACK
6
CONTINUOUS
10
3.83544
20
-2.14563
11
3.83532
21
-2.14564
0
LINE
8
BLACK
6
CONTINUOUS
10
3.83532
20
-2.14564
11
3.83519
21
-2.14567
0
LINE
8
BLACK
6
CONTINUOUS
10
3.83519
20
-2.14567
11
3.83519
21
-2.14567
0
LINE
8
BLACK
6
CONTINUOUS
10
3.83519
20
-2.14567
11
3.8334
21
-2.14607
0
LINE
8
BLACK
6
CONTINUOUS
10
3.8334
20
-2.14607
11
3.8334
21
-2.14607
0
LINE
8
BLACK
6
CONTINUOUS
10
3.8334
20
-2.14607
11
3.83334
21
-2.14608
0
LINE
8
BLACK
6
CONTINUOUS
10
3.83334
20
-2.14608
11
3.83328
21
-2.1461
0
LINE
8
BLACK
6
CONTINUOUS
10
3.83328
20
-2.1461
11
3.83328
21
-2.1461
0
LINE
8
BLACK
6
CONTINUOUS
10
3.83328
20
-2.1461
11
3.83235
21
-2.14636
0
LINE
8
BLACK
6
CONTINUOUS
10
3.83235
20
-2.14636
11
3.82894
21
-2.1483
0
LINE
8
BLACK
6
CONTINUOUS
10
3.82894
20
-2.1483
11
3.82695
21
-2.15003
0
LINE
8
BLACK
6
CONTINUOUS
10
3.82695
20
-2.15003
11
3.82695
21
-2.15003
0
LINE
8
BLACK
6
CONTINUOUS
10
3.82695
20
-2.15003
11
3.82686
21
-2.1501
0
LINE
8
BLACK
6
CONTINUOUS
10
3.82686
20
-2.1501
11
3.82679
21
-2.15018
0
LINE
8
BLACK
6
CONTINUOUS
10
3.82679
20
-2.15018
11
3.82562
21
-2.15139
0
LINE
8
BLACK
6
CONTINUOUS
10
3.82562
20
-2.15139
11
3.8238
21
-2.15487
0
LINE
8
BLACK
6
CONTINUOUS
10
3.8238
20
-2.15487
11
3.82303
21
-2.15751
0
LINE
8
BLACK
6
CONTINUOUS
10
3.82303
20
-2.15751
11
3.82262
21
-2.16034
0
LINE
8
BLACK
6
CONTINUOUS
10
3.82262
20
-2.16034
11
3.82262
21
-2.90848
0
LINE
8
BLACK
6
CONTINUOUS
10
3.82262
20
-2.90848
11
3.82184
21
-2.91112
0
LINE
8
BLACK
6
CONTINUOUS
10
3.82184
20
-2.91112
11
3.81976
21
-2.91292
0
LINE
8
BLACK
6
CONTINUOUS
10
3.81976
20
-2.91292
11
3.81774
21
-2.91337
0
LINE
8
BLACK
6
CONTINUOUS
10
3.81774
20
-2.91337
11
2.63801
21
-2.91337
0
LINE
8
BLACK
6
CONTINUOUS
10
2.63801
20
-2.91337
11
2.63758
21
-2.91335
0
LINE
8
BLACK
6
CONTINUOUS
10
2.63758
20
-2.91335
11
2.63601
21
-2.91321
0
LINE
8
BLACK
6
CONTINUOUS
10
2.63601
20
-2.91321
11
2.63103
21
-2.91272
0
LINE
8
BLACK
6
CONTINUOUS
10
2.63103
20
-2.91272
11
2.63025
21
-2.91258
0
LINE
8
BLACK
6
CONTINUOUS
10
2.63025
20
-2.91258
11
2.6277
21
-2.91189
0
LINE
8
BLACK
6
CONTINUOUS
10
2.6277
20
-2.91189
11
2.62755
21
-2.91185
0
LINE
8
BLACK
6
CONTINUOUS
10
2.62755
20
-2.91185
11
2.62395
21
-2.91076
0
LINE
8
BLACK
6
CONTINUOUS
10
2.62395
20
-2.91076
11
2.62331
21
-2.91051
0
LINE
8
BLACK
6
CONTINUOUS
10
2.62331
20
-2.91051
11
2.62072
21
-2.9093
0
LINE
8
BLACK
6
CONTINUOUS
10
2.62072
20
-2.9093
11
2.62048
21
-2.90919
0
LINE
8
BLACK
6
CONTINUOUS
10
2.62048
20
-2.90919
11
2.61736
21
-2.90752
0
LINE
8
BLACK
6
CONTINUOUS
10
2.61736
20
-2.90752
11
2.61686
21
-2.90721
0
LINE
8
BLACK
6
CONTINUOUS
10
2.61686
20
-2.90721
11
2.61445
21
-2.90553
0
LINE
8
BLACK
6
CONTINUOUS
10
2.61445
20
-2.90553
11
2.61416
21
-2.9053
0
LINE
8
BLACK
6
CONTINUOUS
10
2.61416
20
-2.9053
11
2.61148
21
-2.9031
0
LINE
8
BLACK
6
CONTINUOUS
10
2.61148
20
-2.9031
11
2.61112
21
-2.90278
0
LINE
8
BLACK
6
CONTINUOUS
10
2.61112
20
-2.90278
11
2.60903
21
-2.90069
0
LINE
8
BLACK
6
CONTINUOUS
10
2.60903
20
-2.90069
11
2.60871
21
-2.90033
0
LINE
8
BLACK
6
CONTINUOUS
10
2.60871
20
-2.90033
11
2.60651
21
-2.89765
0
LINE
8
BLACK
6
CONTINUOUS
10
2.60651
20
-2.89765
11
2.60628
21
-2.89736
0
LINE
8
BLACK
6
CONTINUOUS
10
2.60628
20
-2.89736
11
2.6046
21
-2.89495
0
LINE
8
BLACK
6
CONTINUOUS
10
2.6046
20
-2.89495
11
2.60429
21
-2.89445
0
LINE
8
BLACK
6
CONTINUOUS
10
2.60429
20
-2.89445
11
2.60353
21
-2.89302
0
LINE
8
BLACK
6
CONTINUOUS
10
2.60353
20
-2.89302
11
2.60263
21
-2.89133
0
LINE
8
BLACK
6
CONTINUOUS
10
2.60263
20
-2.89133
11
2.60251
21
-2.8911
0
LINE
8
BLACK
6
CONTINUOUS
10
2.60251
20
-2.8911
11
2.6013
21
-2.8885
0
LINE
8
BLACK
6
CONTINUOUS
10
2.6013
20
-2.8885
11
2.60105
21
-2.88786
0
LINE
8
BLACK
6
CONTINUOUS
10
2.60105
20
-2.88786
11
2.59996
21
-2.88426
0
LINE
8
BLACK
6
CONTINUOUS
10
2.59996
20
-2.88426
11
2.59992
21
-2.88411
0
LINE
8
BLACK
6
CONTINUOUS
10
2.59992
20
-2.88411
11
2.59923
21
-2.88156
0
LINE
8
BLACK
6
CONTINUOUS
10
2.59923
20
-2.88156
11
2.59909
21
-2.88078
0
LINE
8
BLACK
6
CONTINUOUS
10
2.59909
20
-2.88078
11
2.5986
21
-2.8758
0
LINE
8
BLACK
6
CONTINUOUS
10
2.5986
20
-2.8758
11
2.59859
21
-2.87571
0
LINE
8
BLACK
6
CONTINUOUS
10
2.59859
20
-2.87571
11
2.59846
21
-2.87423
0
LINE
8
BLACK
6
CONTINUOUS
10
2.59846
20
-2.87423
11
2.59844
21
-2.8738
0
LINE
8
BLACK
6
CONTINUOUS
10
2.59844
20
-2.8738
11
2.59844
21
-2.558
0
LINE
8
BLACK
6
CONTINUOUS
10
2.59844
20
-2.558
11
2.59844
21
-2.50413
0
LINE
8
BLACK
6
CONTINUOUS
10
2.59844
20
-2.50413
11
2.59844
21
-2.16641
0
LINE
8
BLACK
6
CONTINUOUS
10
2.59844
20
-2.16641
11
2.59844
21
-1.85061
0
LINE
8
BLACK
6
CONTINUOUS
10
2.59844
20
-1.85061
11
2.59846
21
-1.85018
0
LINE
8
BLACK
6
CONTINUOUS
10
2.59846
20
-1.85018
11
2.5986
21
-1.8486
0
LINE
8
BLACK
6
CONTINUOUS
10
2.5986
20
-1.8486
11
2.59909
21
-1.84363
0
LINE
8
BLACK
6
CONTINUOUS
10
2.59909
20
-1.84363
11
2.59923
21
-1.84285
0
LINE
8
BLACK
6
CONTINUOUS
10
2.59923
20
-1.84285
11
2.59992
21
-1.8403
0
LINE
8
BLACK
6
CONTINUOUS
10
2.59992
20
-1.8403
11
2.59996
21
-1.84015
0
LINE
8
BLACK
6
CONTINUOUS
10
2.59996
20
-1.84015
11
2.60105
21
-1.83655
0
LINE
8
BLACK
6
CONTINUOUS
10
2.60105
20
-1.83655
11
2.6013
21
-1.83591
0
LINE
8
BLACK
6
CONTINUOUS
10
2.6013
20
-1.83591
11
2.60251
21
-1.83331
0
LINE
8
BLACK
6
CONTINUOUS
10
2.60251
20
-1.83331
11
2.60262
21
-1.83308
0
LINE
8
BLACK
6
CONTINUOUS
10
2.60262
20
-1.83308
11
2.60429
21
-1.82996
0
LINE
8
BLACK
6
CONTINUOUS
10
2.60429
20
-1.82996
11
2.6046
21
-1.82946
0
LINE
8
BLACK
6
CONTINUOUS
10
2.6046
20
-1.82946
11
2.60628
21
-1.82705
0
LINE
8
BLACK
6
CONTINUOUS
10
2.60628
20
-1.82705
11
2.60651
21
-1.82676
0
LINE
8
BLACK
6
CONTINUOUS
10
2.60651
20
-1.82676
11
2.60871
21
-1.82408
0
LINE
8
BLACK
6
CONTINUOUS
10
2.60871
20
-1.82408
11
2.60903
21
-1.82372
0
LINE
8
BLACK
6
CONTINUOUS
10
2.60903
20
-1.82372
11
2.61112
21
-1.82163
0
LINE
8
BLACK
6
CONTINUOUS
10
2.61112
20
-1.82163
11
2.61148
21
-1.82131
0
LINE
8
BLACK
6
CONTINUOUS
10
2.61148
20
-1.82131
11
2.61416
21
-1.81911
0
LINE
8
BLACK
6
CONTINUOUS
10
2.61416
20
-1.81911
11
2.61445
21
-1.81888
0
LINE
8
BLACK
6
CONTINUOUS
10
2.61445
20
-1.81888
11
2.61686
21
-1.8172
0
LINE
8
BLACK
6
CONTINUOUS
10
2.61686
20
-1.8172
11
2.61736
21
-1.81689
0
LINE
8
BLACK
6
CONTINUOUS
10
2.61736
20
-1.81689
11
2.62048
21
-1.81522
0
LINE
8
BLACK
6
CONTINUOUS
10
2.62048
20
-1.81522
11
2.62071
21
-1.81511
0
LINE
8
BLACK
6
CONTINUOUS
10
2.62071
20
-1.81511
11
2.62331
21
-1.8139
0
LINE
8
BLACK
6
CONTINUOUS
10
2.62331
20
-1.8139
11
2.62395
21
-1.81365
0
LINE
8
BLACK
6
CONTINUOUS
10
2.62395
20
-1.81365
11
2.62755
21
-1.81256
0
LINE
8
BLACK
6
CONTINUOUS
10
2.62755
20
-1.81256
11
2.6277
21
-1.81252
0
LINE
8
BLACK
6
CONTINUOUS
10
2.6277
20
-1.81252
11
2.63025
21
-1.81183
0
LINE
8
BLACK
6
CONTINUOUS
10
2.63025
20
-1.81183
11
2.63103
21
-1.81169
0
LINE
8
BLACK
6
CONTINUOUS
10
2.63103
20
-1.81169
11
2.636
21
-1.8112
0
LINE
8
BLACK
6
CONTINUOUS
10
2.636
20
-1.8112
11
2.63758
21
-1.81106
0
LINE
8
BLACK
6
CONTINUOUS
10
2.63758
20
-1.81106
11
2.63801
21
-1.81104
0
LINE
8
BLACK
6
CONTINUOUS
10
2.63801
20
-1.81104
11
3.97616
21
-1.81104
0
LINE
8
BLACK
6
CONTINUOUS
10
3.97616
20
-1.81104
11
3.97659
21
-1.81106
0
LINE
8
BLACK
6
CONTINUOUS
10
3.58379
20
-2.3877
11
3.58642
21
-2.38853
0
LINE
8
BLACK
6
CONTINUOUS
10
3.58642
20
-2.38853
11
3.58818
21
-2.39064
0
LINE
8
BLACK
6
CONTINUOUS
10
3.58818
20
-2.39064
11
3.58858
21
-2.39259
0
LINE
8
BLACK
6
CONTINUOUS
10
3.58858
20
-2.39259
11
3.58858
21
-2.5785
0
LINE
8
BLACK
6
CONTINUOUS
10
3.58858
20
-2.5785
11
3.58842
21
-2.57907
0
LINE
8
BLACK
6
CONTINUOUS
10
3.58842
20
-2.57907
11
3.58842
21
-2.57907
0
LINE
8
BLACK
6
CONTINUOUS
10
3.58842
20
-2.57907
11
3.58665
21
-2.81208
0
LINE
8
BLACK
6
CONTINUOUS
10
3.58665
20
-2.81208
11
3.58586
21
-2.81472
0
LINE
8
BLACK
6
CONTINUOUS
10
3.58586
20
-2.81472
11
3.58376
21
-2.8165
0
LINE
8
BLACK
6
CONTINUOUS
10
3.58376
20
-2.8165
11
3.58177
21
-2.81693
0
LINE
8
BLACK
6
CONTINUOUS
10
3.58177
20
-2.81693
11
3.27493
21
-2.81693
0
LINE
8
BLACK
6
CONTINUOUS
10
3.27493
20
-2.81693
11
3.27258
21
-2.81813
0
LINE
8
BLACK
6
CONTINUOUS
10
3.27258
20
-2.81813
11
3.26772
21
-2.8189
0
LINE
8
BLACK
6
CONTINUOUS
10
3.26772
20
-2.8189
11
3.26285
21
-2.81813
0
LINE
8
BLACK
6
CONTINUOUS
10
3.26285
20
-2.81813
11
3.2605
21
-2.81693
0
LINE
8
BLACK
6
CONTINUOUS
10
3.2605
20
-2.81693
11
3.25094
21
-2.81693
0
LINE
8
BLACK
6
CONTINUOUS
10
3.25094
20
-2.81693
11
3.24831
21
-2.81615
0
LINE
8
BLACK
6
CONTINUOUS
10
3.24831
20
-2.81615
11
3.2465
21
-2.81408
0
LINE
8
BLACK
6
CONTINUOUS
10
3.2465
20
-2.81408
11
3.24606
21
-2.81205
0
LINE
8
BLACK
6
CONTINUOUS
10
3.24606
20
-2.81205
11
3.24606
21
-2.7785
0
LINE
8
BLACK
6
CONTINUOUS
10
3.24606
20
-2.7785
11
3.24684
21
-2.77586
0
LINE
8
BLACK
6
CONTINUOUS
10
3.24684
20
-2.77586
11
3.24892
21
-2.77406
0
LINE
8
BLACK
6
CONTINUOUS
10
3.24892
20
-2.77406
11
3.25094
21
-2.77362
0
LINE
8
BLACK
6
CONTINUOUS
10
3.25094
20
-2.77362
11
3.49016
21
-2.77362
0
LINE
8
BLACK
6
CONTINUOUS
10
3.49016
20
-2.77362
11
3.49016
21
-2.77362
0
LINE
8
BLACK
6
CONTINUOUS
10
3.49016
20
-2.77362
11
3.49182
21
-2.59078
0
LINE
8
BLACK
6
CONTINUOUS
10
3.49182
20
-2.59078
11
3.49247
21
-2.58838
0
LINE
8
BLACK
6
CONTINUOUS
10
3.49247
20
-2.58838
11
3.50841
21
-2.56077
0
LINE
8
BLACK
6
CONTINUOUS
10
3.50841
20
-2.56077
11
3.50936
21
-2.558
0
LINE
8
BLACK
6
CONTINUOUS
10
3.50936
20
-2.558
11
3.5093
21
-2.55709
0
LINE
8
BLACK
6
CONTINUOUS
10
3.5093
20
-2.55709
11
3.5091
21
-2.55408
0
LINE
8
BLACK
6
CONTINUOUS
10
3.5091
20
-2.55408
11
3.50736
21
-2.55056
0
LINE
8
BLACK
6
CONTINUOUS
10
3.50736
20
-2.55056
11
3.50516
21
-2.54863
0
LINE
8
BLACK
6
CONTINUOUS
10
3.50516
20
-2.54863
11
3.50516
21
-2.54863
0
LINE
8
BLACK
6
CONTINUOUS
10
3.50516
20
-2.54863
11
3.4779
21
-2.53289
0
LINE
8
BLACK
6
CONTINUOUS
10
3.4779
20
-2.53289
11
3.47634
21
-2.53236
0
LINE
8
BLACK
6
CONTINUOUS
10
3.47634
20
-2.53236
11
3.47469
21
-2.53141
0
LINE
8
BLACK
6
CONTINUOUS
10
3.47469
20
-2.53141
11
3.47345
21
-2.53032
0
LINE
8
BLACK
6
CONTINUOUS
10
3.47345
20
-2.53032
11
3.45472
21
-2.51951
0
LINE
8
BLACK
6
CONTINUOUS
10
3.45472
20
-2.51951
11
3.45316
21
-2.51898
0
LINE
8
BLACK
6
CONTINUOUS
10
3.45316
20
-2.51898
11
3.45297
21
-2.51887
0
LINE
8
BLACK
6
CONTINUOUS
10
3.45297
20
-2.51887
11
3.45151
21
-2.51802
0
LINE
8
BLACK
6
CONTINUOUS
10
3.45151
20
-2.51802
11
3.45026
21
-2.51694
0
LINE
8
BLACK
6
CONTINUOUS
10
3.45026
20
-2.51694
11
3.42301
21
-2.5012
0
LINE
8
BLACK
6
CONTINUOUS
10
3.42301
20
-2.5012
11
3.42162
21
-2.50073
0
LINE
8
BLACK
6
CONTINUOUS
10
3.42162
20
-2.50073
11
3.42023
21
-2.50026
0
LINE
8
BLACK
6
CONTINUOUS
10
3.42023
20
-2.50026
11
3.42023
21
-2.50026
0
LINE
8
BLACK
6
CONTINUOUS
10
3.42023
20
-2.50026
11
3.41812
21
-2.5004
0
LINE
8
BLACK
6
CONTINUOUS
10
3.41812
20
-2.5004
11
3.41544
21
-2.4998
0
LINE
8
BLACK
6
CONTINUOUS
10
3.41544
20
-2.4998
11
3.41537
21
-2.49976
0
LINE
8
BLACK
6
CONTINUOUS
10
3.41537
20
-2.49976
11
3.40942
21
-2.49634
0
LINE
8
BLACK
6
CONTINUOUS
10
3.40942
20
-2.49634
11
3.40752
21
-2.49435
0
LINE
8
BLACK
6
CONTINUOUS
10
3.40752
20
-2.49435
11
3.40699
21
-2.49165
0
LINE
8
BLACK
6
CONTINUOUS
10
3.40699
20
-2.49165
11
3.40744
21
-2.49002
0
LINE
8
BLACK
6
CONTINUOUS
10
3.40744
20
-2.49002
11
3.41059
21
-2.48335
0
LINE
8
BLACK
6
CONTINUOUS
10
3.41059
20
-2.48335
11
3.421
21
-2.46132
0
LINE
8
BLACK
6
CONTINUOUS
10
3.421
20
-2.46132
11
3.45537
21
-2.38862
0
LINE
8
BLACK
6
CONTINUOUS
10
3.45537
20
-2.38862
11
3.4572
21
-2.38657
0
LINE
8
BLACK
6
CONTINUOUS
10
3.4572
20
-2.38657
11
3.45979
21
-2.38583
0
LINE
8
BLACK
6
CONTINUOUS
10
3.45979
20
-2.38583
11
3.48425
21
-2.38583
0
LINE
8
BLACK
6
CONTINUOUS
10
3.48425
20
-2.38583
11
3.58379
21
-2.3877
0
LINE
8
BLACK
6
CONTINUOUS
10
2.84174
20
-2.57022
11
2.83715
21
-2.57286
0
LINE
8
BLACK
6
CONTINUOUS
10
2.83715
20
-2.57286
11
3.0076
21
-2.74331
0
LINE
8
BLACK
6
CONTINUOUS
10
3.0076
20
-2.74331
11
3.10217
21
-2.74331
0
LINE
8
BLACK
6
CONTINUOUS
10
3.10217
20
-2.74331
11
3.10217
21
-2.73346
0
LINE
8
BLACK
6
CONTINUOUS
10
3.10217
20
-2.73346
11
3.13484
21
-2.73346
0
LINE
8
BLACK
6
CONTINUOUS
10
3.13484
20
-2.73346
11
3.13484
21
-2.76299
0
LINE
8
BLACK
6
CONTINUOUS
10
3.13484
20
-2.76299
11
3.10217
21
-2.76299
0
LINE
8
BLACK
6
CONTINUOUS
10
3.10217
20
-2.76299
11
3.10217
21
-2.75315
0
LINE
8
BLACK
6
CONTINUOUS
10
3.10217
20
-2.75315
11
3.00556
21
-2.75315
0
LINE
8
BLACK
6
CONTINUOUS
10
3.00556
20
-2.75315
11
3.00469
21
-2.75302
0
LINE
8
BLACK
6
CONTINUOUS
10
3.00469
20
-2.75302
11
3.00451
21
-2.75304
0
LINE
8
BLACK
6
CONTINUOUS
10
3.00451
20
-2.75304
11
3.00442
21
-2.75299
0
LINE
8
BLACK
6
CONTINUOUS
10
3.00442
20
-2.75299
11
3.00417
21
-2.75295
0
LINE
8
BLACK
6
CONTINUOUS
10
3.00417
20
-2.75295
11
3.00315
21
-2.75229
0
LINE
8
BLACK
6
CONTINUOUS
10
3.00315
20
-2.75229
11
3.00208
21
-2.75171
0
LINE
8
BLACK
6
CONTINUOUS
10
3.00208
20
-2.75171
11
2.82833
21
-2.57796
0
LINE
8
BLACK
6
CONTINUOUS
10
2.82833
20
-2.57796
11
2.81616
21
-2.58498
0
LINE
8
BLACK
6
CONTINUOUS
10
2.81616
20
-2.58498
11
2.79983
21
-2.55668
0
LINE
8
BLACK
6
CONTINUOUS
10
2.79983
20
-2.55668
11
2.8254
21
-2.54192
0
LINE
8
BLACK
6
CONTINUOUS
10
2.8254
20
-2.54192
11
2.84174
21
-2.57022
0
LINE
8
BLACK
6
CONTINUOUS
10
3.44449
20
-2.52499
11
3.42815
21
-2.55329
0
LINE
8
BLACK
6
CONTINUOUS
10
3.42815
20
-2.55329
11
3.41687
21
-2.54678
0
LINE
8
BLACK
6
CONTINUOUS
10
3.41687
20
-2.54678
11
3.32238
21
-2.64128
0
LINE
8
BLACK
6
CONTINUOUS
10
3.32238
20
-2.64128
11
3.32167
21
-2.6418
0
LINE
8
BLACK
6
CONTINUOUS
10
3.32167
20
-2.6418
11
3.32156
21
-2.64194
0
LINE
8
BLACK
6
CONTINUOUS
10
3.32156
20
-2.64194
11
3.32146
21
-2.64197
0
LINE
8
BLACK
6
CONTINUOUS
10
3.32146
20
-2.64197
11
3.32126
21
-2.64211
0
LINE
8
BLACK
6
CONTINUOUS
10
3.32126
20
-2.64211
11
3.32007
21
-2.64237
0
LINE
8
BLACK
6
CONTINUOUS
10
3.32007
20
-2.64237
11
3.3189
21
-2.64272
0
LINE
8
BLACK
6
CONTINUOUS
10
3.3189
20
-2.64272
11
3.22979
21
-2.64272
0
LINE
8
BLACK
6
CONTINUOUS
10
3.22979
20
-2.64272
11
3.19705
21
-2.67546
0
LINE
8
BLACK
6
CONTINUOUS
10
3.19705
20
-2.67546
11
3.19705
21
-2.69961
0
LINE
8
BLACK
6
CONTINUOUS
10
3.19705
20
-2.69961
11
3.16437
21
-2.69961
0
LINE
8
BLACK
6
CONTINUOUS
10
3.16437
20
-2.69961
11
3.16437
21
-2.67008
0
LINE
8
BLACK
6
CONTINUOUS
10
3.16437
20
-2.67008
11
3.18851
21
-2.67008
0
LINE
8
BLACK
6
CONTINUOUS
10
3.18851
20
-2.67008
11
3.22428
21
-2.63432
0
LINE
8
BLACK
6
CONTINUOUS
10
3.22428
20
-2.63432
11
3.22498
21
-2.63379
0
LINE
8
BLACK
6
CONTINUOUS
10
3.22498
20
-2.63379
11
3.2251
21
-2.63366
0
LINE
8
BLACK
6
CONTINUOUS
10
3.2251
20
-2.63366
11
3.2252
21
-2.63362
0
LINE
8
BLACK
6
CONTINUOUS
10
3.2252
20
-2.63362
11
3.2254
21
-2.63348
0
LINE
8
BLACK
6
CONTINUOUS
10
3.2254
20
-2.63348
11
3.22659
21
-2.63322
0
LINE
8
BLACK
6
CONTINUOUS
10
3.22659
20
-2.63322
11
3.22776
21
-2.63287
0
LINE
8
BLACK
6
CONTINUOUS
10
3.22776
20
-2.63287
11
3.31686
21
-2.63287
0
LINE
8
BLACK
6
CONTINUOUS
10
3.31686
20
-2.63287
11
3.40805
21
-2.54168
0
LINE
8
BLACK
6
CONTINUOUS
10
3.40805
20
-2.54168
11
3.40258
21
-2.53853
0
LINE
8
BLACK
6
CONTINUOUS
10
3.40258
20
-2.53853
11
3.41892
21
-2.51023
0
LINE
8
BLACK
6
CONTINUOUS
10
3.41892
20
-2.51023
11
3.44449
21
-2.52499
0
LINE
8
BLACK
6
CONTINUOUS
10
3.46768
20
-2.53838
11
3.45134
21
-2.56668
0
LINE
8
BLACK
6
CONTINUOUS
10
3.45134
20
-2.56668
11
3.44433
21
-2.56263
0
LINE
8
BLACK
6
CONTINUOUS
10
3.44433
20
-2.56263
11
3.34009
21
-2.66687
0
LINE
8
BLACK
6
CONTINUOUS
10
3.34009
20
-2.66687
11
3.33939
21
-2.66739
0
LINE
8
BLACK
6
CONTINUOUS
10
3.33939
20
-2.66739
11
3.33927
21
-2.66753
0
LINE
8
BLACK
6
CONTINUOUS
10
3.33927
20
-2.66753
11
3.33917
21
-2.66756
0
LINE
8
BLACK
6
CONTINUOUS
10
3.33917
20
-2.66756
11
3.33897
21
-2.66771
0
LINE
8
BLACK
6
CONTINUOUS
10
3.33897
20
-2.66771
11
3.33778
21
-2.66796
0
LINE
8
BLACK
6
CONTINUOUS
10
3.33778
20
-2.66796
11
3.33661
21
-2.66831
0
LINE
8
BLACK
6
CONTINUOUS
10
3.33661
20
-2.66831
11
3.25932
21
-2.66831
0
LINE
8
BLACK
6
CONTINUOUS
10
3.25932
20
-2.66831
11
3.20761
21
-2.72002
0
LINE
8
BLACK
6
CONTINUOUS
10
3.20761
20
-2.72002
11
3.20691
21
-2.72054
0
LINE
8
BLACK
6
CONTINUOUS
10
3.20691
20
-2.72054
11
3.20679
21
-2.72068
0
LINE
8
BLACK
6
CONTINUOUS
10
3.20679
20
-2.72068
11
3.20669
21
-2.72071
0
LINE
8
BLACK
6
CONTINUOUS
10
3.20669
20
-2.72071
11
3.20649
21
-2.72085
0
LINE
8
BLACK
6
CONTINUOUS
10
3.20649
20
-2.72085
11
3.2053
21
-2.72111
0
LINE
8
BLACK
6
CONTINUOUS
10
3.2053
20
-2.72111
11
3.20413
21
-2.72146
0
LINE
8
BLACK
6
CONTINUOUS
10
3.20413
20
-2.72146
11
3.19705
21
-2.72146
0
LINE
8
BLACK
6
CONTINUOUS
10
3.19705
20
-2.72146
11
3.19705
21
-2.72638
0
LINE
8
BLACK
6
CONTINUOUS
10
3.19705
20
-2.72638
11
3.16437
21
-2.72638
0
LINE
8
BLACK
6
CONTINUOUS
10
3.16437
20
-2.72638
11
3.16437
21
-2.70669
0
LINE
8
BLACK
6
CONTINUOUS
10
3.16437
20
-2.70669
11
3.19705
21
-2.70669
0
LINE
8
BLACK
6
CONTINUOUS
10
3.19705
20
-2.70669
11
3.19705
21
-2.71161
0
LINE
8
BLACK
6
CONTINUOUS
10
3.19705
20
-2.71161
11
3.2021
21
-2.71161
0
LINE
8
BLACK
6
CONTINUOUS
10
3.2021
20
-2.71161
11
3.2538
21
-2.65991
0
LINE
8
BLACK
6
CONTINUOUS
10
3.2538
20
-2.65991
11
3.25451
21
-2.65938
0
LINE
8
BLACK
6
CONTINUOUS
10
3.25451
20
-2.65938
11
3.25462
21
-2.65925
0
LINE
8
BLACK
6
CONTINUOUS
10
3.25462
20
-2.65925
11
3.25473
21
-2.65922
0
LINE
8
BLACK
6
CONTINUOUS
10
3.25473
20
-2.65922
11
3.25492
21
-2.65907
0
LINE
8
BLACK
6
CONTINUOUS
10
3.25492
20
-2.65907
11
3.25612
21
-2.65881
0
LINE
8
BLACK
6
CONTINUOUS
10
3.25612
20
-2.65881
11
3.25728
21
-2.65846
0
LINE
8
BLACK
6
CONTINUOUS
10
3.25728
20
-2.65846
11
3.33458
21
-2.65846
0
LINE
8
BLACK
6
CONTINUOUS
10
3.33458
20
-2.65846
11
3.43551
21
-2.55753
0
LINE
8
BLACK
6
CONTINUOUS
10
3.43551
20
-2.55753
11
3.43429
21
-2.55683
0
LINE
8
BLACK
6
CONTINUOUS
10
3.43429
20
-2.55683
11
3.45063
21
-2.52853
0
LINE
8
BLACK
6
CONTINUOUS
10
3.45063
20
-2.52853
11
3.46768
21
-2.53838
0
LINE
8
BLACK
6
CONTINUOUS
10
3.49939
20
-2.55668
11
3.48305
21
-2.58498
0
LINE
8
BLACK
6
CONTINUOUS
10
3.48305
20
-2.58498
11
3.47088
21
-2.57796
0
LINE
8
BLACK
6
CONTINUOUS
10
3.47088
20
-2.57796
11
3.35245
21
-2.69639
0
LINE
8
BLACK
6
CONTINUOUS
10
3.35245
20
-2.69639
11
3.35175
21
-2.69692
0
LINE
8
BLACK
6
CONTINUOUS
10
3.35175
20
-2.69692
11
3.35163
21
-2.69705
0
LINE
8
BLACK
6
CONTINUOUS
10
3.35163
20
-2.69705
11
3.35153
21
-2.69708
0
LINE
8
BLACK
6
CONTINUOUS
10
3.35153
20
-2.69708
11
3.35133
21
-2.69723
0
LINE
8
BLACK
6
CONTINUOUS
10
3.35133
20
-2.69723
11
3.35014
21
-2.69749
0
LINE
8
BLACK
6
CONTINUOUS
10
3.35014
20
-2.69749
11
3.34897
21
-2.69783
0
LINE
8
BLACK
6
CONTINUOUS
10
3.34897
20
-2.69783
11
3.25374
21
-2.69783
0
LINE
8
BLACK
6
CONTINUOUS
10
3.25374
20
-2.69783
11
3.19986
21
-2.75171
0
LINE
8
BLACK
6
CONTINUOUS
10
3.19986
20
-2.75171
11
3.19916
21
-2.75223
0
LINE
8
BLACK
6
CONTINUOUS
10
3.19916
20
-2.75223
11
3.19904
21
-2.75237
0
LINE
8
BLACK
6
CONTINUOUS
10
3.19904
20
-2.75237
11
3.19894
21
-2.7524
0
LINE
8
BLACK
6
CONTINUOUS
10
3.19894
20
-2.7524
11
3.19874
21
-2.75255
0
LINE
8
BLACK
6
CONTINUOUS
10
3.19874
20
-2.75255
11
3.19755
21
-2.75281
0
LINE
8
BLACK
6
CONTINUOUS
10
3.19755
20
-2.75281
11
3.19705
21
-2.75295
0
LINE
8
BLACK
6
CONTINUOUS
10
3.19705
20
-2.75295
11
3.19705
21
-2.76299
0
LINE
8
BLACK
6
CONTINUOUS
10
3.19705
20
-2.76299
11
3.16437
21
-2.76299
0
LINE
8
BLACK
6
CONTINUOUS
10
3.16437
20
-2.76299
11
3.16437
21
-2.73346
0
LINE
8
BLACK
6
CONTINUOUS
10
3.16437
20
-2.73346
11
3.19705
21
-2.73346
0
LINE
8
BLACK
6
CONTINUOUS
10
3.19705
20
-2.73346
11
3.19705
21
-2.7406
0
LINE
8
BLACK
6
CONTINUOUS
10
3.19705
20
-2.7406
11
3.24822
21
-2.68943
0
LINE
8
BLACK
6
CONTINUOUS
10
3.24822
20
-2.68943
11
3.24892
21
-2.68891
0
LINE
8
BLACK
6
CONTINUOUS
10
3.24892
20
-2.68891
11
3.24904
21
-2.68877
0
LINE
8
BLACK
6
CONTINUOUS
10
3.24904
20
-2.68877
11
3.24914
21
-2.68874
0
LINE
8
BLACK
6
CONTINUOUS
10
3.24914
20
-2.68874
11
3.24934
21
-2.68859
0
LINE
8
BLACK
6
CONTINUOUS
10
3.24934
20
-2.68859
11
3.25053
21
-2.68834
0
LINE
8
BLACK
6
CONTINUOUS
10
3.25053
20
-2.68834
11
3.2517
21
-2.68799
0
LINE
8
BLACK
6
CONTINUOUS
10
3.2517
20
-2.68799
11
3.34693
21
-2.68799
0
LINE
8
BLACK
6
CONTINUOUS
10
3.34693
20
-2.68799
11
3.46206
21
-2.57286
0
LINE
8
BLACK
6
CONTINUOUS
10
3.46206
20
-2.57286
11
3.45748
21
-2.57022
0
LINE
8
BLACK
6
CONTINUOUS
10
3.45748
20
-2.57022
11
3.47381
21
-2.54192
0
LINE
8
BLACK
6
CONTINUOUS
10
3.47381
20
-2.54192
11
3.49939
21
-2.55668
0
LINE
8
BLACK
6
CONTINUOUS
10
2.86492
20
-2.55683
11
2.86121
21
-2.55898
0
LINE
8
BLACK
6
CONTINUOUS
10
2.86121
20
-2.55898
11
3.01385
21
-2.71161
0
LINE
8
BLACK
6
CONTINUOUS
10
3.01385
20
-2.71161
11
3.10217
21
-2.71161
0
LINE
8
BLACK
6
CONTINUOUS
10
3.10217
20
-2.71161
11
3.10217
21
-2.70669
0
LINE
8
BLACK
6
CONTINUOUS
10
3.10217
20
-2.70669
11
3.13484
21
-2.70669
0
LINE
8
BLACK
6
CONTINUOUS
10
3.13484
20
-2.70669
11
3.13484
21
-2.72638
0
LINE
8
BLACK
6
CONTINUOUS
10
3.13484
20
-2.72638
11
3.10217
21
-2.72638
0
LINE
8
BLACK
6
CONTINUOUS
10
3.10217
20
-2.72638
11
3.10217
21
-2.72146
0
LINE
8
BLACK
6
CONTINUOUS
10
3.10217
20
-2.72146
11
3.01181
21
-2.72146
0
LINE
8
BLACK
6
CONTINUOUS
10
3.01181
20
-2.72146
11
3.01094
21
-2.72133
0
LINE
8
BLACK
6
CONTINUOUS
10
3.01094
20
-2.72133
11
3.01076
21
-2.72134
0
LINE
8
BLACK
6
CONTINUOUS
10
3.01076
20
-2.72134
11
3.01067
21
-2.72129
0
LINE
8
BLACK
6
CONTINUOUS
10
3.01067
20
-2.72129
11
3.01042
21
-2.72126
0
LINE
8
BLACK
6
CONTINUOUS
10
3.01042
20
-2.72126
11
3.0094
21
-2.7206
0
LINE
8
BLACK
6
CONTINUOUS
10
3.0094
20
-2.7206
11
3.00833
21
-2.72002
0
LINE
8
BLACK
6
CONTINUOUS
10
3.00833
20
-2.72002
11
2.85239
21
-2.56407
0
LINE
8
BLACK
6
CONTINUOUS
10
2.85239
20
-2.56407
11
2.84787
21
-2.56668
0
LINE
8
BLACK
6
CONTINUOUS
10
2.84787
20
-2.56668
11
2.83154
21
-2.53838
0
LINE
8
BLACK
6
CONTINUOUS
10
2.83154
20
-2.53838
11
2.84858
21
-2.52853
0
LINE
8
BLACK
6
CONTINUOUS
10
2.84858
20
-2.52853
11
2.86492
21
-2.55683
0
LINE
8
BLACK
6
CONTINUOUS
10
2.89663
20
-2.53853
11
2.88867
21
-2.54312
0
LINE
8
BLACK
6
CONTINUOUS
10
2.88867
20
-2.54312
11
3.02546
21
-2.67992
0
LINE
8
BLACK
6
CONTINUOUS
10
3.02546
20
-2.67992
11
3.10217
21
-2.67992
0
LINE
8
BLACK
6
CONTINUOUS
10
3.10217
20
-2.67992
11
3.10217
21
-2.67008
0
LINE
8
BLACK
6
CONTINUOUS
10
3.10217
20
-2.67008
11
3.13484
21
-2.67008
0
LINE
8
BLACK
6
CONTINUOUS
10
3.13484
20
-2.67008
11
3.13484
21
-2.69961
0
LINE
8
BLACK
6
CONTINUOUS
10
3.13484
20
-2.69961
11
3.10217
21
-2.69961
0
LINE
8
BLACK
6
CONTINUOUS
10
3.10217
20
-2.69961
11
3.10217
21
-2.68976
0
LINE
8
BLACK
6
CONTINUOUS
10
3.10217
20
-2.68976
11
3.02343
21
-2.68976
0
LINE
8
BLACK
6
CONTINUOUS
10
3.02343
20
-2.68976
11
3.02256
21
-2.68964
0
LINE
8
BLACK
6
CONTINUOUS
10
3.02256
20
-2.68964
11
3.02238
21
-2.68965
0
LINE
8
BLACK
6
CONTINUOUS
10
3.02238
20
-2.68965
11
3.02228
21
-2.6896
0
LINE
8
BLACK
6
CONTINUOUS
10
3.02228
20
-2.6896
11
3.02204
21
-2.68956
0
LINE
8
BLACK
6
CONTINUOUS
10
3.02204
20
-2.68956
11
3.02101
21
-2.68891
0
LINE
8
BLACK
6
CONTINUOUS
10
3.02101
20
-2.68891
11
3.01995
21
-2.68832
0
LINE
8
BLACK
6
CONTINUOUS
10
3.01995
20
-2.68832
11
2.87984
21
-2.54822
0
LINE
8
BLACK
6
CONTINUOUS
10
2.87984
20
-2.54822
11
2.87106
21
-2.55329
0
LINE
8
BLACK
6
CONTINUOUS
10
2.87106
20
-2.55329
11
2.85472
21
-2.52499
0
LINE
8
BLACK
6
CONTINUOUS
10
2.85472
20
-2.52499
11
2.88029
21
-2.51023
0
LINE
8
BLACK
6
CONTINUOUS
10
2.88029
20
-2.51023
11
2.89663
21
-2.53853
0
LINE
8
BLACK
6
CONTINUOUS
10
2.81063
20
-2.20806
11
2.7943
21
-2.23636
0
LINE
8
BLACK
6
CONTINUOUS
10
2.7943
20
-2.23636
11
2.78445
21
-2.23068
0
LINE
8
BLACK
6
CONTINUOUS
10
2.78445
20
-2.23068
11
2.78445
21
-2.49373
0
LINE
8
BLACK
6
CONTINUOUS
10
2.78445
20
-2.49373
11
2.7943
21
-2.48805
0
LINE
8
BLACK
6
CONTINUOUS
10
2.7943
20
-2.48805
11
2.81063
21
-2.51635
0
LINE
8
BLACK
6
CONTINUOUS
10
2.81063
20
-2.51635
11
2.78506
21
-2.53111
0
LINE
8
BLACK
6
CONTINUOUS
10
2.78506
20
-2.53111
11
2.76872
21
-2.50281
0
LINE
8
BLACK
6
CONTINUOUS
10
2.76872
20
-2.50281
11
2.77461
21
-2.49942
0
LINE
8
BLACK
6
CONTINUOUS
10
2.77461
20
-2.49942
11
2.77461
21
-2.22499
0
LINE
8
BLACK
6
CONTINUOUS
10
2.77461
20
-2.22499
11
2.76872
21
-2.2216
0
LINE
8
BLACK
6
CONTINUOUS
10
2.76872
20
-2.2216
11
2.78506
21
-2.1933
0
LINE
8
BLACK
6
CONTINUOUS
10
2.78506
20
-2.1933
11
2.81063
21
-2.20806
0
LINE
8
BLACK
6
CONTINUOUS
10
2.83382
20
-2.22145
11
2.81748
21
-2.24975
0
LINE
8
BLACK
6
CONTINUOUS
10
2.81748
20
-2.24975
11
2.81201
21
-2.24659
0
LINE
8
BLACK
6
CONTINUOUS
10
2.81201
20
-2.24659
11
2.81201
21
-2.47782
0
LINE
8
BLACK
6
CONTINUOUS
10
2.81201
20
-2.47782
11
2.81748
21
-2.47466
0
LINE
8
BLACK
6
CONTINUOUS
10
2.81748
20
-2.47466
11
2.83382
21
-2.50296
0
LINE
8
BLACK
6
CONTINUOUS
10
2.83382
20
-2.50296
11
2.81677
21
-2.5128
0
LINE
8
BLACK
6
CONTINUOUS
10
2.81677
20
-2.5128
11
2.80043
21
-2.48451
0
LINE
8
BLACK
6
CONTINUOUS
10
2.80043
20
-2.48451
11
2.80217
21
-2.48351
0
LINE
8
BLACK
6
CONTINUOUS
10
2.80217
20
-2.48351
11
2.80217
21
-2.2409
0
LINE
8
BLACK
6
CONTINUOUS
10
2.80217
20
-2.2409
11
2.80043
21
-2.2399
0
LINE
8
BLACK
6
CONTINUOUS
10
2.80043
20
-2.2399
11
2.81677
21
-2.2116
0
LINE
8
BLACK
6
CONTINUOUS
10
2.81677
20
-2.2116
11
2.83382
21
-2.22145
0
LINE
8
BLACK
6
CONTINUOUS
10
2.86553
20
-2.23975
11
2.84919
21
-2.26805
0
LINE
8
BLACK
6
CONTINUOUS
10
2.84919
20
-2.26805
11
2.8435
21
-2.26477
0
LINE
8
BLACK
6
CONTINUOUS
10
2.8435
20
-2.26477
11
2.8435
21
-2.45964
0
LINE
8
BLACK
6
CONTINUOUS
10
2.8435
20
-2.45964
11
2.84919
21
-2.45636
0
LINE
8
BLACK
6
CONTINUOUS
10
2.84919
20
-2.45636
11
2.86553
21
-2.48466
0
LINE
8
BLACK
6
CONTINUOUS
10
2.86553
20
-2.48466
11
2.83996
21
-2.49942
0
LINE
8
BLACK
6
CONTINUOUS
10
2.83996
20
-2.49942
11
2.82362
21
-2.47112
0
LINE
8
BLACK
6
CONTINUOUS
10
2.82362
20
-2.47112
11
2.83366
21
-2.46532
0
LINE
8
BLACK
6
CONTINUOUS
10
2.83366
20
-2.46532
11
2.83366
21
-2.25909
0
LINE
8
BLACK
6
CONTINUOUS
10
2.83366
20
-2.25909
11
2.82362
21
-2.25329
0
LINE
8
BLACK
6
CONTINUOUS
10
2.82362
20
-2.25329
11
2.83996
21
-2.22499
0
LINE
8
BLACK
6
CONTINUOUS
10
2.83996
20
-2.22499
11
2.86553
21
-2.23975
0
LINE
8
BLACK
6
CONTINUOUS
10
3.64266
20
-2.17006
11
3.64705
21
-2.1723
0
LINE
8
BLACK
6
CONTINUOUS
10
3.64705
20
-2.1723
11
3.65054
21
-2.17578
0
LINE
8
BLACK
6
CONTINUOUS
10
3.65054
20
-2.17578
11
3.65277
21
-2.18017
0
LINE
8
BLACK
6
CONTINUOUS
10
3.65277
20
-2.18017
11
3.65354
21
-2.18504
0
LINE
8
BLACK
6
CONTINUOUS
10
3.65354
20
-2.18504
11
3.65277
21
-2.18991
0
LINE
8
BLACK
6
CONTINUOUS
10
3.65277
20
-2.18991
11
3.65054
21
-2.1943
0
LINE
8
BLACK
6
CONTINUOUS
10
3.65054
20
-2.1943
11
3.64705
21
-2.19778
0
LINE
8
BLACK
6
CONTINUOUS
10
3.64705
20
-2.19778
11
3.64266
21
-2.20002
0
LINE
8
BLACK
6
CONTINUOUS
10
3.64266
20
-2.20002
11
3.6378
21
-2.20079
0
LINE
8
BLACK
6
CONTINUOUS
10
3.6378
20
-2.20079
11
3.63293
21
-2.20002
0
LINE
8
BLACK
6
CONTINUOUS
10
3.63293
20
-2.20002
11
3.63084
21
-2.19895
0
LINE
8
BLACK
6
CONTINUOUS
10
3.63084
20
-2.19895
11
3.55072
21
-2.27907
0
LINE
8
BLACK
6
CONTINUOUS
10
3.55072
20
-2.27907
11
3.55002
21
-2.2796
0
LINE
8
BLACK
6
CONTINUOUS
10
3.55002
20
-2.2796
11
3.5499
21
-2.27973
0
LINE
8
BLACK
6
CONTINUOUS
10
3.5499
20
-2.27973
11
3.5498
21
-2.27976
0
LINE
8
BLACK
6
CONTINUOUS
10
3.5498
20
-2.27976
11
3.5496
21
-2.27991
0
LINE
8
BLACK
6
CONTINUOUS
10
3.5496
20
-2.27991
11
3.54841
21
-2.28017
0
LINE
8
BLACK
6
CONTINUOUS
10
3.54841
20
-2.28017
11
3.54724
21
-2.28051
0
LINE
8
BLACK
6
CONTINUOUS
10
3.54724
20
-2.28051
11
3.47638
21
-2.28051
0
LINE
8
BLACK
6
CONTINUOUS
10
3.47638
20
-2.28051
11
3.47551
21
-2.28039
0
LINE
8
BLACK
6
CONTINUOUS
10
3.47551
20
-2.28039
11
3.47533
21
-2.2804
0
LINE
8
BLACK
6
CONTINUOUS
10
3.47533
20
-2.2804
11
3.47524
21
-2.28035
0
LINE
8
BLACK
6
CONTINUOUS
10
3.47524
20
-2.28035
11
3.47499
21
-2.28031
0
LINE
8
BLACK
6
CONTINUOUS
10
3.47499
20
-2.28031
11
3.47397
21
-2.27965
0
LINE
8
BLACK
6
CONTINUOUS
10
3.47397
20
-2.27965
11
3.4729
21
-2.27907
0
LINE
8
BLACK
6
CONTINUOUS
10
3.4729
20
-2.27907
11
3.47093
21
-2.2771
0
LINE
8
BLACK
6
CONTINUOUS
10
3.47093
20
-2.2771
11
3.4704
21
-2.2764
0
LINE
8
BLACK
6
CONTINUOUS
10
3.4704
20
-2.2764
11
3.47027
21
-2.27628
0
LINE
8
BLACK
6
CONTINUOUS
10
3.47027
20
-2.27628
11
3.47024
21
-2.27618
0
LINE
8
BLACK
6
CONTINUOUS
10
3.47024
20
-2.27618
11
3.47009
21
-2.27598
0
LINE
8
BLACK
6
CONTINUOUS
10
3.47009
20
-2.27598
11
3.46983
21
-2.27479
0
LINE
8
BLACK
6
CONTINUOUS
10
3.46983
20
-2.27479
11
3.46949
21
-2.27362
0
LINE
8
BLACK
6
CONTINUOUS
10
3.46949
20
-2.27362
11
3.46949
21
-2.26833
0
LINE
8
BLACK
6
CONTINUOUS
10
3.46949
20
-2.26833
11
3.46219
21
-2.26103
0
LINE
8
BLACK
6
CONTINUOUS
10
3.46219
20
-2.26103
11
3.45002
21
-2.26805
0
LINE
8
BLACK
6
CONTINUOUS
10
3.45002
20
-2.26805
11
3.43368
21
-2.23975
0
LINE
8
BLACK
6
CONTINUOUS
10
3.43368
20
-2.23975
11
3.45926
21
-2.22499
0
LINE
8
BLACK
6
CONTINUOUS
10
3.45926
20
-2.22499
11
3.47559
21
-2.25329
0
LINE
8
BLACK
6
CONTINUOUS
10
3.47559
20
-2.25329
11
3.47101
21
-2.25594
0
LINE
8
BLACK
6
CONTINUOUS
10
3.47101
20
-2.25594
11
3.47789
21
-2.26281
0
LINE
8
BLACK
6
CONTINUOUS
10
3.47789
20
-2.26281
11
3.47842
21
-2.26352
0
LINE
8
BLACK
6
CONTINUOUS
10
3.47842
20
-2.26352
11
3.47855
21
-2.26363
0
LINE
8
BLACK
6
CONTINUOUS
10
3.47855
20
-2.26363
11
3.47858
21
-2.26373
0
LINE
8
BLACK
6
CONTINUOUS
10
3.47858
20
-2.26373
11
3.47873
21
-2.26393
0
LINE
8
BLACK
6
CONTINUOUS
10
3.47873
20
-2.26393
11
3.47899
21
-2.26512
0
LINE
8
BLACK
6
CONTINUOUS
10
3.47899
20
-2.26512
11
3.47933
21
-2.26629
0
LINE
8
BLACK
6
CONTINUOUS
10
3.47933
20
-2.26629
11
3.47933
21
-2.27067
0
LINE
8
BLACK
6
CONTINUOUS
10
3.47933
20
-2.27067
11
3.54521
21
-2.27067
0
LINE
8
BLACK
6
CONTINUOUS
10
3.54521
20
-2.27067
11
3.62388
21
-2.19199
0
LINE
8
BLACK
6
CONTINUOUS
10
3.62388
20
-2.19199
11
3.62282
21
-2.18991
0
LINE
8
BLACK
6
CONTINUOUS
10
3.62282
20
-2.18991
11
3.62205
21
-2.18504
0
LINE
8
BLACK
6
CONTINUOUS
10
3.62205
20
-2.18504
11
3.62282
21
-2.18017
0
LINE
8
BLACK
6
CONTINUOUS
10
3.62282
20
-2.18017
11
3.62505
21
-2.17578
0
LINE
8
BLACK
6
CONTINUOUS
10
3.62505
20
-2.17578
11
3.62854
21
-2.1723
0
LINE
8
BLACK
6
CONTINUOUS
10
3.62854
20
-2.1723
11
3.63293
21
-2.17006
0
LINE
8
BLACK
6
CONTINUOUS
10
3.63293
20
-2.17006
11
3.6378
21
-2.16929
0
LINE
8
BLACK
6
CONTINUOUS
10
3.6378
20
-2.16929
11
3.64266
21
-2.17006
0
LINE
8
BLACK
6
CONTINUOUS
10
3.57967
20
-2.04014
11
3.58406
21
-2.04238
0
LINE
8
BLACK
6
CONTINUOUS
10
3.58406
20
-2.04238
11
3.58754
21
-2.04586
0
LINE
8
BLACK
6
CONTINUOUS
10
3.58754
20
-2.04586
11
3.58978
21
-2.05025
0
LINE
8
BLACK
6
CONTINUOUS
10
3.58978
20
-2.05025
11
3.59055
21
-2.05512
0
LINE
8
BLACK
6
CONTINUOUS
10
3.59055
20
-2.05512
11
3.58978
21
-2.05998
0
LINE
8
BLACK
6
CONTINUOUS
10
3.58978
20
-2.05998
11
3.58754
21
-2.06437
0
LINE
8
BLACK
6
CONTINUOUS
10
3.58754
20
-2.06437
11
3.58406
21
-2.06786
0
LINE
8
BLACK
6
CONTINUOUS
10
3.58406
20
-2.06786
11
3.57967
21
-2.0701
0
LINE
8
BLACK
6
CONTINUOUS
10
3.57967
20
-2.0701
11
3.5748
21
-2.07087
0
LINE
8
BLACK
6
CONTINUOUS
10
3.5748
20
-2.07087
11
3.56994
21
-2.0701
0
LINE
8
BLACK
6
CONTINUOUS
10
3.56994
20
-2.0701
11
3.56785
21
-2.06903
0
LINE
8
BLACK
6
CONTINUOUS
10
3.56785
20
-2.06903
11
3.55118
21
-2.0857
0
LINE
8
BLACK
6
CONTINUOUS
10
3.55118
20
-2.0857
11
3.55118
21
-2.18217
0
LINE
8
BLACK
6
CONTINUOUS
10
3.55118
20
-2.18217
11
3.55156
21
-2.18268
0
LINE
8
BLACK
6
CONTINUOUS
10
3.55156
20
-2.18268
11
3.55164
21
-2.18303
0
LINE
8
BLACK
6
CONTINUOUS
10
3.55164
20
-2.18303
11
3.55186
21
-2.18332
0
LINE
8
BLACK
6
CONTINUOUS
10
3.55186
20
-2.18332
11
3.55193
21
-2.18437
0
LINE
8
BLACK
6
CONTINUOUS
10
3.55193
20
-2.18437
11
3.55215
21
-2.18539
0
LINE
8
BLACK
6
CONTINUOUS
10
3.55215
20
-2.18539
11
3.55203
21
-2.18573
0
LINE
8
BLACK
6
CONTINUOUS
10
3.55203
20
-2.18573
11
3.55205
21
-2.18609
0
LINE
8
BLACK
6
CONTINUOUS
10
3.55205
20
-2.18609
11
3.55155
21
-2.18701
0
LINE
8
BLACK
6
CONTINUOUS
10
3.55155
20
-2.18701
11
3.55118
21
-2.18799
0
LINE
8
BLACK
6
CONTINUOUS
10
3.55118
20
-2.18799
11
3.5509
21
-2.1882
0
LINE
8
BLACK
6
CONTINUOUS
10
3.5509
20
-2.1882
11
3.55072
21
-2.18852
0
LINE
8
BLACK
6
CONTINUOUS
10
3.55072
20
-2.18852
11
3.53104
21
-2.2082
0
LINE
8
BLACK
6
CONTINUOUS
10
3.53104
20
-2.2082
11
3.53034
21
-2.20873
0
LINE
8
BLACK
6
CONTINUOUS
10
3.53034
20
-2.20873
11
3.53022
21
-2.20886
0
LINE
8
BLACK
6
CONTINUOUS
10
3.53022
20
-2.20886
11
3.53012
21
-2.20889
0
LINE
8
BLACK
6
CONTINUOUS
10
3.53012
20
-2.20889
11
3.52992
21
-2.20904
0
LINE
8
BLACK
6
CONTINUOUS
10
3.52992
20
-2.20904
11
3.52873
21
-2.2093
0
LINE
8
BLACK
6
CONTINUOUS
10
3.52873
20
-2.2093
11
3.52756
21
-2.20965
0
LINE
8
BLACK
6
CONTINUOUS
10
3.52756
20
-2.20965
11
3.52359
21
-2.20965
0
LINE
8
BLACK
6
CONTINUOUS
10
3.52359
20
-2.20965
11
3.53049
21
-2.2216
0
LINE
8
BLACK
6
CONTINUOUS
10
3.53049
20
-2.2216
11
3.50492
21
-2.23636
0
LINE
8
BLACK
6
CONTINUOUS
10
3.50492
20
-2.23636
11
3.48858
21
-2.20806
0
LINE
8
BLACK
6
CONTINUOUS
10
3.48858
20
-2.20806
11
3.51415
21
-2.1933
0
LINE
8
BLACK
6
CONTINUOUS
10
3.51415
20
-2.1933
11
3.51814
21
-2.20022
0
LINE
8
BLACK
6
CONTINUOUS
10
3.51814
20
-2.20022
11
3.51847
21
-2.20015
0
LINE
8
BLACK
6
CONTINUOUS
10
3.51847
20
-2.20015
11
3.51964
21
-2.1998
0
LINE
8
BLACK
6
CONTINUOUS
10
3.51964
20
-2.1998
11
3.52552
21
-2.1998
0
LINE
8
BLACK
6
CONTINUOUS
10
3.52552
20
-2.1998
11
3.54134
21
-2.18399
0
LINE
8
BLACK
6
CONTINUOUS
10
3.54134
20
-2.18399
11
3.54134
21
-2.08366
0
LINE
8
BLACK
6
CONTINUOUS
10
3.54134
20
-2.08366
11
3.54146
21
-2.08279
0
LINE
8
BLACK
6
CONTINUOUS
10
3.54146
20
-2.08279
11
3.54145
21
-2.08262
0
LINE
8
BLACK
6
CONTINUOUS
10
3.54145
20
-2.08262
11
3.5415
21
-2.08252
0
LINE
8
BLACK
6
CONTINUOUS
10
3.5415
20
-2.08252
11
3.54154
21
-2.08227
0
LINE
8
BLACK
6
CONTINUOUS
10
3.54154
20
-2.08227
11
3.5422
21
-2.08125
0
LINE
8
BLACK
6
CONTINUOUS
10
3.5422
20
-2.08125
11
3.54278
21
-2.08018
0
LINE
8
BLACK
6
CONTINUOUS
10
3.54278
20
-2.08018
11
3.56089
21
-2.06207
0
LINE
8
BLACK
6
CONTINUOUS
10
3.56089
20
-2.06207
11
3.55983
21
-2.05998
0
LINE
8
BLACK
6
CONTINUOUS
10
3.55983
20
-2.05998
11
3.55906
21
-2.05512
0
LINE
8
BLACK
6
CONTINUOUS
10
3.55906
20
-2.05512
11
3.55983
21
-2.05025
0
LINE
8
BLACK
6
CONTINUOUS
10
3.55983
20
-2.05025
11
3.56206
21
-2.04586
0
LINE
8
BLACK
6
CONTINUOUS
10
3.56206
20
-2.04586
11
3.56555
21
-2.04238
0
LINE
8
BLACK
6
CONTINUOUS
10
3.56555
20
-2.04238
11
3.56994
21
-2.04014
0
LINE
8
BLACK
6
CONTINUOUS
10
3.56994
20
-2.04014
11
3.5748
21
-2.03937
0
LINE
8
BLACK
6
CONTINUOUS
10
3.5748
20
-2.03937
11
3.57967
21
-2.04014
0
LINE
8
BLACK
6
CONTINUOUS
10
3.57967
20
-2.08738
11
3.58406
21
-2.08962
0
LINE
8
BLACK
6
CONTINUOUS
10
3.58406
20
-2.08962
11
3.58754
21
-2.09311
0
LINE
8
BLACK
6
CONTINUOUS
10
3.58754
20
-2.09311
11
3.58978
21
-2.0975
0
LINE
8
BLACK
6
CONTINUOUS
10
3.58978
20
-2.0975
11
3.59055
21
-2.10236
0
LINE
8
BLACK
6
CONTINUOUS
10
3.59055
20
-2.10236
11
3.58978
21
-2.10723
0
LINE
8
BLACK
6
CONTINUOUS
10
3.58978
20
-2.10723
11
3.58754
21
-2.11162
0
LINE
8
BLACK
6
CONTINUOUS
10
3.58754
20
-2.11162
11
3.58406
21
-2.1151
0
LINE
8
BLACK
6
CONTINUOUS
10
3.58406
20
-2.1151
11
3.57972
21
-2.11731
0
LINE
8
BLACK
6
CONTINUOUS
10
3.57972
20
-2.11731
11
3.57972
21
-2.20866
0
LINE
8
BLACK
6
CONTINUOUS
10
3.57972
20
-2.20866
11
3.5796
21
-2.20953
0
LINE
8
BLACK
6
CONTINUOUS
10
3.5796
20
-2.20953
11
3.57961
21
-2.20971
0
LINE
8
BLACK
6
CONTINUOUS
10
3.57961
20
-2.20971
11
3.57956
21
-2.2098
0
LINE
8
BLACK
6
CONTINUOUS
10
3.57956
20
-2.2098
11
3.57953
21
-2.21005
0
LINE
8
BLACK
6
CONTINUOUS
10
3.57953
20
-2.21005
11
3.57887
21
-2.21107
0
LINE
8
BLACK
6
CONTINUOUS
10
3.57887
20
-2.21107
11
3.57828
21
-2.21214
0
LINE
8
BLACK
6
CONTINUOUS
10
3.57828
20
-2.21214
11
3.53104
21
-2.25939
0
LINE
8
BLACK
6
CONTINUOUS
10
3.53104
20
-2.25939
11
3.53034
21
-2.25991
0
LINE
8
BLACK
6
CONTINUOUS
10
3.53034
20
-2.25991
11
3.53022
21
-2.26005
0
LINE
8
BLACK
6
CONTINUOUS
10
3.53022
20
-2.26005
11
3.53012
21
-2.26008
0
LINE
8
BLACK
6
CONTINUOUS
10
3.53012
20
-2.26008
11
3.52992
21
-2.26022
0
LINE
8
BLACK
6
CONTINUOUS
10
3.52992
20
-2.26022
11
3.52873
21
-2.26048
0
LINE
8
BLACK
6
CONTINUOUS
10
3.52873
20
-2.26048
11
3.52756
21
-2.26083
0
LINE
8
BLACK
6
CONTINUOUS
10
3.52756
20
-2.26083
11
3.50637
21
-2.26083
0
LINE
8
BLACK
6
CONTINUOUS
10
3.50637
20
-2.26083
11
3.5055
21
-2.2607
0
LINE
8
BLACK
6
CONTINUOUS
10
3.5055
20
-2.2607
11
3.50532
21
-2.26071
0
LINE
8
BLACK
6
CONTINUOUS
10
3.50532
20
-2.26071
11
3.50523
21
-2.26066
0
LINE
8
BLACK
6
CONTINUOUS
10
3.50523
20
-2.26066
11
3.50498
21
-2.26063
0
LINE
8
BLACK
6
CONTINUOUS
10
3.50498
20
-2.26063
11
3.50396
21
-2.25997
0
LINE
8
BLACK
6
CONTINUOUS
10
3.50396
20
-2.25997
11
3.50289
21
-2.25939
0
LINE
8
BLACK
6
CONTINUOUS
10
3.50289
20
-2.25939
11
3.48903
21
-2.24553
0
LINE
8
BLACK
6
CONTINUOUS
10
3.48903
20
-2.24553
11
3.48173
21
-2.24975
0
LINE
8
BLACK
6
CONTINUOUS
10
3.48173
20
-2.24975
11
3.46539
21
-2.22145
0
LINE
8
BLACK
6
CONTINUOUS
10
3.46539
20
-2.22145
11
3.48244
21
-2.2116
0
LINE
8
BLACK
6
CONTINUOUS
10
3.48244
20
-2.2116
11
3.49878
21
-2.2399
0
LINE
8
BLACK
6
CONTINUOUS
10
3.49878
20
-2.2399
11
3.49786
21
-2.24044
0
LINE
8
BLACK
6
CONTINUOUS
10
3.49786
20
-2.24044
11
3.5084
21
-2.25098
0
LINE
8
BLACK
6
CONTINUOUS
10
3.5084
20
-2.25098
11
3.52552
21
-2.25098
0
LINE
8
BLACK
6
CONTINUOUS
10
3.52552
20
-2.25098
11
3.56988
21
-2.20662
0
LINE
8
BLACK
6
CONTINUOUS
10
3.56988
20
-2.20662
11
3.56988
21
-2.11731
0
LINE
8
BLACK
6
CONTINUOUS
10
3.56988
20
-2.11731
11
3.56555
21
-2.1151
0
LINE
8
BLACK
6
CONTINUOUS
10
3.56555
20
-2.1151
11
3.56206
21
-2.11162
0
LINE
8
BLACK
6
CONTINUOUS
10
3.56206
20
-2.11162
11
3.55983
21
-2.10723
0
LINE
8
BLACK
6
CONTINUOUS
10
3.55983
20
-2.10723
11
3.55906
21
-2.10236
0
LINE
8
BLACK
6
CONTINUOUS
10
3.55906
20
-2.10236
11
3.55983
21
-2.0975
0
LINE
8
BLACK
6
CONTINUOUS
10
3.55983
20
-2.0975
11
3.56206
21
-2.09311
0
LINE
8
BLACK
6
CONTINUOUS
10
3.56206
20
-2.09311
11
3.56555
21
-2.08962
0
LINE
8
BLACK
6
CONTINUOUS
10
3.56555
20
-2.08962
11
3.56994
21
-2.08738
0
LINE
8
BLACK
6
CONTINUOUS
10
3.56994
20
-2.08738
11
3.5748
21
-2.08661
0
LINE
8
BLACK
6
CONTINUOUS
10
3.5748
20
-2.08661
11
3.57967
21
-2.08738
0
LINE
8
BLACK
6
CONTINUOUS
10
3.13484
20
-1.99094
11
3.10217
21
-1.99094
0
LINE
8
BLACK
6
CONTINUOUS
10
3.10217
20
-1.99094
11
3.10217
21
-1.9811
0
LINE
8
BLACK
6
CONTINUOUS
10
3.10217
20
-1.9811
11
3.0076
21
-1.9811
0
LINE
8
BLACK
6
CONTINUOUS
10
3.0076
20
-1.9811
11
2.83715
21
-2.15155
0
LINE
8
BLACK
6
CONTINUOUS
10
2.83715
20
-2.15155
11
2.84174
21
-2.15419
0
LINE
8
BLACK
6
CONTINUOUS
10
2.84174
20
-2.15419
11
2.8254
21
-2.18249
0
LINE
8
BLACK
6
CONTINUOUS
10
2.8254
20
-2.18249
11
2.79983
21
-2.16773
0
LINE
8
BLACK
6
CONTINUOUS
10
2.79983
20
-2.16773
11
2.81616
21
-2.13943
0
LINE
8
BLACK
6
CONTINUOUS
10
2.81616
20
-2.13943
11
2.82833
21
-2.14645
0
LINE
8
BLACK
6
CONTINUOUS
10
2.82833
20
-2.14645
11
3.00208
21
-1.9727
0
LINE
8
BLACK
6
CONTINUOUS
10
3.00208
20
-1.9727
11
3.00278
21
-1.97217
0
LINE
8
BLACK
6
CONTINUOUS
10
3.00278
20
-1.97217
11
3.0029
21
-1.97204
0
LINE
8
BLACK
6
CONTINUOUS
10
3.0029
20
-1.97204
11
3.003
21
-1.97201
0
LINE
8
BLACK
6
CONTINUOUS
10
3.003
20
-1.97201
11
3.0032
21
-1.97186
0
LINE
8
BLACK
6
CONTINUOUS
10
3.0032
20
-1.97186
11
3.00439
21
-1.9716
0
LINE
8
BLACK
6
CONTINUOUS
10
3.00439
20
-1.9716
11
3.00556
21
-1.97126
0
LINE
8
BLACK
6
CONTINUOUS
10
3.00556
20
-1.97126
11
3.10217
21
-1.97126
0
LINE
8
BLACK
6
CONTINUOUS
10
3.10217
20
-1.97126
11
3.10217
21
-1.96142
0
LINE
8
BLACK
6
CONTINUOUS
10
3.10217
20
-1.96142
11
3.13484
21
-1.96142
0
LINE
8
BLACK
6
CONTINUOUS
10
3.13484
20
-1.96142
11
3.13484
21
-1.99094
0
LINE
8
BLACK
6
CONTINUOUS
10
3.13484
20
-2.01772
11
3.10217
21
-2.01772
0
LINE
8
BLACK
6
CONTINUOUS
10
3.10217
20
-2.01772
11
3.10217
21
-2.0128
0
LINE
8
BLACK
6
CONTINUOUS
10
3.10217
20
-2.0128
11
3.01825
21
-2.0128
0
LINE
8
BLACK
6
CONTINUOUS
10
3.01825
20
-2.0128
11
2.864
21
-2.16704
0
LINE
8
BLACK
6
CONTINUOUS
10
2.864
20
-2.16704
11
2.86492
21
-2.16758
0
LINE
8
BLACK
6
CONTINUOUS
10
2.86492
20
-2.16758
11
2.84858
21
-2.19588
0
LINE
8
BLACK
6
CONTINUOUS
10
2.84858
20
-2.19588
11
2.83154
21
-2.18603
0
LINE
8
BLACK
6
CONTINUOUS
10
2.83154
20
-2.18603
11
2.84787
21
-2.15773
0
LINE
8
BLACK
6
CONTINUOUS
10
2.84787
20
-2.15773
11
2.85517
21
-2.16195
0
LINE
8
BLACK
6
CONTINUOUS
10
2.85517
20
-2.16195
11
3.01273
21
-2.00439
0
LINE
8
BLACK
6
CONTINUOUS
10
3.01273
20
-2.00439
11
3.01343
21
-2.00387
0
LINE
8
BLACK
6
CONTINUOUS
10
3.01343
20
-2.00387
11
3.01355
21
-2.00373
0
LINE
8
BLACK
6
CONTINUOUS
10
3.01355
20
-2.00373
11
3.01365
21
-2.0037
0
LINE
8
BLACK
6
CONTINUOUS
10
3.01365
20
-2.0037
11
3.01385
21
-2.00355
0
LINE
8
BLACK
6
CONTINUOUS
10
3.01385
20
-2.00355
11
3.01504
21
-2.0033
0
LINE
8
BLACK
6
CONTINUOUS
10
3.01504
20
-2.0033
11
3.01621
21
-2.00295
0
LINE
8
BLACK
6
CONTINUOUS
10
3.01621
20
-2.00295
11
3.10217
21
-2.00295
0
LINE
8
BLACK
6
CONTINUOUS
10
3.10217
20
-2.00295
11
3.10217
21
-1.99803
0
LINE
8
BLACK
6
CONTINUOUS
10
3.10217
20
-1.99803
11
3.13484
21
-1.99803
0
LINE
8
BLACK
6
CONTINUOUS
10
3.13484
20
-1.99803
11
3.13484
21
-2.01772
0
LINE
8
BLACK
6
CONTINUOUS
10
3.13484
20
-2.05433
11
3.10217
21
-2.05433
0
LINE
8
BLACK
6
CONTINUOUS
10
3.10217
20
-2.05433
11
3.10217
21
-2.04449
0
LINE
8
BLACK
6
CONTINUOUS
10
3.10217
20
-2.04449
11
3.0308
21
-2.04449
0
LINE
8
BLACK
6
CONTINUOUS
10
3.0308
20
-2.04449
11
2.89205
21
-2.18324
0
LINE
8
BLACK
6
CONTINUOUS
10
2.89205
20
-2.18324
11
2.89663
21
-2.18588
0
LINE
8
BLACK
6
CONTINUOUS
10
2.89663
20
-2.18588
11
2.88029
21
-2.21418
0
LINE
8
BLACK
6
CONTINUOUS
10
2.88029
20
-2.21418
11
2.85472
21
-2.19942
0
LINE
8
BLACK
6
CONTINUOUS
10
2.85472
20
-2.19942
11
2.87106
21
-2.17112
0
LINE
8
BLACK
6
CONTINUOUS
10
2.87106
20
-2.17112
11
2.88322
21
-2.17814
0
LINE
8
BLACK
6
CONTINUOUS
10
2.88322
20
-2.17814
11
3.02528
21
-2.03609
0
LINE
8
BLACK
6
CONTINUOUS
10
3.02528
20
-2.03609
11
3.02598
21
-2.03556
0
LINE
8
BLACK
6
CONTINUOUS
10
3.02598
20
-2.03556
11
3.0261
21
-2.03543
0
LINE
8
BLACK
6
CONTINUOUS
10
3.0261
20
-2.03543
11
3.0262
21
-2.0354
0
LINE
8
BLACK
6
CONTINUOUS
10
3.0262
20
-2.0354
11
3.0264
21
-2.03525
0
LINE
8
BLACK
6
CONTINUOUS
10
3.0264
20
-2.03525
11
3.02759
21
-2.03499
0
LINE
8
BLACK
6
CONTINUOUS
10
3.02759
20
-2.03499
11
3.02876
21
-2.03465
0
LINE
8
BLACK
6
CONTINUOUS
10
3.02876
20
-2.03465
11
3.10217
21
-2.03465
0
LINE
8
BLACK
6
CONTINUOUS
10
3.10217
20
-2.03465
11
3.10217
21
-2.0248
0
LINE
8
BLACK
6
CONTINUOUS
10
3.10217
20
-2.0248
11
3.13484
21
-2.0248
0
LINE
8
BLACK
6
CONTINUOUS
10
3.13484
20
-2.0248
11
3.13484
21
-2.05433
0
LINE
8
BLACK
6
CONTINUOUS
10
3.19705
20
-2.03465
11
3.27045
21
-2.03465
0
LINE
8
BLACK
6
CONTINUOUS
10
3.27045
20
-2.03465
11
3.27132
21
-2.03477
0
LINE
8
BLACK
6
CONTINUOUS
10
3.27132
20
-2.03477
11
3.2715
21
-2.03476
0
LINE
8
BLACK
6
CONTINUOUS
10
3.2715
20
-2.03476
11
3.27159
21
-2.03481
0
LINE
8
BLACK
6
CONTINUOUS
10
3.27159
20
-2.03481
11
3.27184
21
-2.03484
0
LINE
8
BLACK
6
CONTINUOUS
10
3.27184
20
-2.03484
11
3.27286
21
-2.0355
0
LINE
8
BLACK
6
CONTINUOUS
10
3.27286
20
-2.0355
11
3.27393
21
-2.03609
0
LINE
8
BLACK
6
CONTINUOUS
10
3.27393
20
-2.03609
11
3.41599
21
-2.17814
0
LINE
8
BLACK
6
CONTINUOUS
10
3.41599
20
-2.17814
11
3.42815
21
-2.17112
0
LINE
8
BLACK
6
CONTINUOUS
10
3.42815
20
-2.17112
11
3.44449
21
-2.19942
0
LINE
8
BLACK
6
CONTINUOUS
10
3.44449
20
-2.19942
11
3.41892
21
-2.21418
0
LINE
8
BLACK
6
CONTINUOUS
10
3.41892
20
-2.21418
11
3.40258
21
-2.18588
0
LINE
8
BLACK
6
CONTINUOUS
10
3.40258
20
-2.18588
11
3.40716
21
-2.18324
0
LINE
8
BLACK
6
CONTINUOUS
10
3.40716
20
-2.18324
11
3.26841
21
-2.04449
0
LINE
8
BLACK
6
CONTINUOUS
10
3.26841
20
-2.04449
11
3.19705
21
-2.04449
0
LINE
8
BLACK
6
CONTINUOUS
10
3.19705
20
-2.04449
11
3.19705
21
-2.05433
0
LINE
8
BLACK
6
CONTINUOUS
10
3.19705
20
-2.05433
11
3.16437
21
-2.05433
0
LINE
8
BLACK
6
CONTINUOUS
10
3.16437
20
-2.05433
11
3.16437
21
-2.0248
0
LINE
8
BLACK
6
CONTINUOUS
10
3.16437
20
-2.0248
11
3.19705
21
-2.0248
0
LINE
8
BLACK
6
CONTINUOUS
10
3.19705
20
-2.0248
11
3.19705
21
-2.03465
0
LINE
8
BLACK
6
CONTINUOUS
10
3.19705
20
-2.00295
11
3.28346
21
-2.00295
0
LINE
8
BLACK
6
CONTINUOUS
10
3.28346
20
-2.00295
11
3.28433
21
-2.00308
0
LINE
8
BLACK
6
CONTINUOUS
10
3.28433
20
-2.00308
11
3.28451
21
-2.00307
0
LINE
8
BLACK
6
CONTINUOUS
10
3.28451
20
-2.00307
11
3.2846
21
-2.00312
0
LINE
8
BLACK
6
CONTINUOUS
10
3.2846
20
-2.00312
11
3.28485
21
-2.00315
0
LINE
8
BLACK
6
CONTINUOUS
10
3.28485
20
-2.00315
11
3.28588
21
-2.00381
0
LINE
8
BLACK
6
CONTINUOUS
10
3.28588
20
-2.00381
11
3.28694
21
-2.00439
0
LINE
8
BLACK
6
CONTINUOUS
10
3.28694
20
-2.00439
11
3.37356
21
-2.09101
0
LINE
8
BLACK
6
CONTINUOUS
10
3.37356
20
-2.09101
11
3.37409
21
-2.09171
0
LINE
8
BLACK
6
CONTINUOUS
10
3.37409
20
-2.09171
11
3.37422
21
-2.09183
0
LINE
8
BLACK
6
CONTINUOUS
10
3.37422
20
-2.09183
11
3.37425
21
-2.09193
0
LINE
8
BLACK
6
CONTINUOUS
10
3.37425
20
-2.09193
11
3.3744
21
-2.09213
0
LINE
8
BLACK
6
CONTINUOUS
10
3.3744
20
-2.09213
11
3.37445
21
-2.09236
0
LINE
8
BLACK
6
CONTINUOUS
10
3.37445
20
-2.09236
11
3.44404
21
-2.16195
0
LINE
8
BLACK
6
CONTINUOUS
10
3.44404
20
-2.16195
11
3.45134
21
-2.15773
0
LINE
8
BLACK
6
CONTINUOUS
10
3.45134
20
-2.15773
11
3.46768
21
-2.18603
0
LINE
8
BLACK
6
CONTINUOUS
10
3.46768
20
-2.18603
11
3.45063
21
-2.19588
0
LINE
8
BLACK
6
CONTINUOUS
10
3.45063
20
-2.19588
11
3.43429
21
-2.16758
0
LINE
8
BLACK
6
CONTINUOUS
10
3.43429
20
-2.16758
11
3.43521
21
-2.16704
0
LINE
8
BLACK
6
CONTINUOUS
10
3.43521
20
-2.16704
11
3.3666
21
-2.09843
0
LINE
8
BLACK
6
CONTINUOUS
10
3.3666
20
-2.09843
11
3.36607
21
-2.09773
0
LINE
8
BLACK
6
CONTINUOUS
10
3.36607
20
-2.09773
11
3.36594
21
-2.09761
0
LINE
8
BLACK
6
CONTINUOUS
10
3.36594
20
-2.09761
11
3.36591
21
-2.09751
0
LINE
8
BLACK
6
CONTINUOUS
10
3.36591
20
-2.09751
11
3.36576
21
-2.09731
0
LINE
8
BLACK
6
CONTINUOUS
10
3.36576
20
-2.09731
11
3.36571
21
-2.09708
0
LINE
8
BLACK
6
CONTINUOUS
10
3.36571
20
-2.09708
11
3.28143
21
-2.0128
0
LINE
8
BLACK
6
CONTINUOUS
10
3.28143
20
-2.0128
11
3.19705
21
-2.0128
0
LINE
8
BLACK
6
CONTINUOUS
10
3.19705
20
-2.0128
11
3.19705
21
-2.01772
0
LINE
8
BLACK
6
CONTINUOUS
10
3.19705
20
-2.01772
11
3.16437
21
-2.01772
0
LINE
8
BLACK
6
CONTINUOUS
10
3.16437
20
-2.01772
11
3.16437
21
-1.99803
0
LINE
8
BLACK
6
CONTINUOUS
10
3.16437
20
-1.99803
11
3.19705
21
-1.99803
0
LINE
8
BLACK
6
CONTINUOUS
10
3.19705
20
-1.99803
11
3.19705
21
-2.00295
0
LINE
8
BLACK
6
CONTINUOUS
10
3.19705
20
-1.97126
11
3.29365
21
-1.97126
0
LINE
8
BLACK
6
CONTINUOUS
10
3.29365
20
-1.97126
11
3.29452
21
-1.97138
0
LINE
8
BLACK
6
CONTINUOUS
10
3.29452
20
-1.97138
11
3.2947
21
-1.97137
0
LINE
8
BLACK
6
CONTINUOUS
10
3.2947
20
-1.97137
11
3.29479
21
-1.97142
0
LINE
8
BLACK
6
CONTINUOUS
10
3.29479
20
-1.97142
11
3.29504
21
-1.97146
0
LINE
8
BLACK
6
CONTINUOUS
10
3.29504
20
-1.97146
11
3.29607
21
-1.97212
0
LINE
8
BLACK
6
CONTINUOUS
10
3.29607
20
-1.97212
11
3.29713
21
-1.9727
0
LINE
8
BLACK
6
CONTINUOUS
10
3.29713
20
-1.9727
11
3.47088
21
-2.14645
0
LINE
8
BLACK
6
CONTINUOUS
10
3.47088
20
-2.14645
11
3.48305
21
-2.13943
0
LINE
8
BLACK
6
CONTINUOUS
10
3.48305
20
-2.13943
11
3.49939
21
-2.16773
0
LINE
8
BLACK
6
CONTINUOUS
10
3.49939
20
-2.16773
11
3.47381
21
-2.18249
0
LINE
8
BLACK
6
CONTINUOUS
10
3.47381
20
-2.18249
11
3.45748
21
-2.15419
0
LINE
8
BLACK
6
CONTINUOUS
10
3.45748
20
-2.15419
11
3.46206
21
-2.15155
0
LINE
8
BLACK
6
CONTINUOUS
10
3.46206
20
-2.15155
11
3.29162
21
-1.9811
0
LINE
8
BLACK
6
CONTINUOUS
10
3.29162
20
-1.9811
11
3.19705
21
-1.9811
0
LINE
8
BLACK
6
CONTINUOUS
10
3.19705
20
-1.9811
11
3.19705
21
-1.99094
0
LINE
8
BLACK
6
CONTINUOUS
10
3.19705
20
-1.99094
11
3.16437
21
-1.99094
0
LINE
8
BLACK
6
CONTINUOUS
10
3.16437
20
-1.99094
11
3.16437
21
-1.96142
0
LINE
8
BLACK
6
CONTINUOUS
10
3.16437
20
-1.96142
11
3.19705
21
-1.96142
0
LINE
8
BLACK
6
CONTINUOUS
10
3.19705
20
-1.96142
11
3.19705
21
-1.97126
0
LINE
8
BLACK
6
CONTINUOUS
10
3.15508
20
-2.76684
11
3.15508
21
-2.76684
0
LINE
8
BLACK
6
CONTINUOUS
10
3.15508
20
-2.76684
11
3.15508
21
-2.76684
0
LINE
8
BLACK
6
CONTINUOUS
10
3.15508
20
-2.76684
11
3.15726
21
-2.7701
0
LINE
8
BLACK
6
CONTINUOUS
10
3.15726
20
-2.7701
11
3.16052
21
-2.77228
0
LINE
8
BLACK
6
CONTINUOUS
10
3.16052
20
-2.77228
11
3.16196
21
-2.77257
0
LINE
8
BLACK
6
CONTINUOUS
10
3.16196
20
-2.77257
11
3.1634
21
-2.77285
0
LINE
8
BLACK
6
CONTINUOUS
10
3.1634
20
-2.77285
11
3.1634
21
-2.77285
0
LINE
8
BLACK
6
CONTINUOUS
10
3.1634
20
-2.77285
11
3.19311
21
-2.77285
0
LINE
8
BLACK
6
CONTINUOUS
10
3.19311
20
-2.77285
11
3.19395
21
-2.77242
0
LINE
8
BLACK
6
CONTINUOUS
10
3.19395
20
-2.77242
11
3.19882
21
-2.77165
0
LINE
8
BLACK
6
CONTINUOUS
10
3.19882
20
-2.77165
11
3.20126
21
-2.77204
0
LINE
8
BLACK
6
CONTINUOUS
10
3.20126
20
-2.77204
11
3.20416
21
-2.7701
0
LINE
8
BLACK
6
CONTINUOUS
10
3.20416
20
-2.7701
11
3.20634
21
-2.76684
0
LINE
8
BLACK
6
CONTINUOUS
10
3.20634
20
-2.76684
11
3.20691
21
-2.76396
0
LINE
8
BLACK
6
CONTINUOUS
10
3.20691
20
-2.76396
11
3.20691
21
-2.76063
0
LINE
8
BLACK
6
CONTINUOUS
10
3.20691
20
-2.76063
11
3.20768
21
-2.75799
0
LINE
8
BLACK
6
CONTINUOUS
10
3.20768
20
-2.75799
11
3.20834
21
-2.75718
0
LINE
8
BLACK
6
CONTINUOUS
10
3.20834
20
-2.75718
11
3.25639
21
-2.70913
0
LINE
8
BLACK
6
CONTINUOUS
10
3.25639
20
-2.70913
11
3.25881
21
-2.70781
0
LINE
8
BLACK
6
CONTINUOUS
10
3.25881
20
-2.70781
11
3.25984
21
-2.7077
0
LINE
8
BLACK
6
CONTINUOUS
10
3.25984
20
-2.7077
11
3.34693
21
-2.7077
0
LINE
8
BLACK
6
CONTINUOUS
10
3.34693
20
-2.7077
11
3.34793
21
-2.7078
0
LINE
8
BLACK
6
CONTINUOUS
10
3.34793
20
-2.7078
11
3.34808
21
-2.70783
0
LINE
8
BLACK
6
CONTINUOUS
10
3.34808
20
-2.70783
11
3.34835
21
-2.70789
0
LINE
8
BLACK
6
CONTINUOUS
10
3.34835
20
-2.70789
11
3.34953
21
-2.70774
0
LINE
8
BLACK
6
CONTINUOUS
10
3.34953
20
-2.70774
11
3.34959
21
-2.70773
0
LINE
8
BLACK
6
CONTINUOUS
10
3.34959
20
-2.70773
11
3.35019
21
-2.7077
0
LINE
8
BLACK
6
CONTINUOUS
10
3.35019
20
-2.7077
11
3.35019
21
-2.7077
0
LINE
8
BLACK
6
CONTINUOUS
10
3.35019
20
-2.7077
11
3.35019
21
-2.7077
0
LINE
8
BLACK
6
CONTINUOUS
10
3.35019
20
-2.7077
11
3.351
21
-2.70756
0
LINE
8
BLACK
6
CONTINUOUS
10
3.351
20
-2.70756
11
3.3512
21
-2.70753
0
LINE
8
BLACK
6
CONTINUOUS
10
3.3512
20
-2.70753
11
3.35325
21
-2.70728
0
LINE
8
BLACK
6
CONTINUOUS
10
3.35325
20
-2.70728
11
3.35325
21
-2.70728
0
LINE
8
BLACK
6
CONTINUOUS
10
3.35325
20
-2.70728
11
3.35355
21
-2.70724
0
LINE
8
BLACK
6
CONTINUOUS
10
3.35355
20
-2.70724
11
3.35356
21
-2.70724
0
LINE
8
BLACK
6
CONTINUOUS
10
3.35356
20
-2.70724
11
3.35384
21
-2.70709
0
LINE
8
BLACK
6
CONTINUOUS
10
3.35384
20
-2.70709
11
3.35384
21
-2.70709
0
LINE
8
BLACK
6
CONTINUOUS
10
3.35384
20
-2.70709
11
3.35565
21
-2.70611
0
LINE
8
BLACK
6
CONTINUOUS
10
3.35565
20
-2.70611
11
3.35582
21
-2.70602
0
LINE
8
BLACK
6
CONTINUOUS
10
3.35582
20
-2.70602
11
3.35768
21
-2.70511
0
LINE
8
BLACK
6
CONTINUOUS
10
3.35768
20
-2.70511
11
3.35768
21
-2.70511
0
LINE
8
BLACK
6
CONTINUOUS
10
3.35768
20
-2.70511
11
3.35796
21
-2.70497
0
LINE
8
BLACK
6
CONTINUOUS
10
3.35796
20
-2.70497
11
3.35796
21
-2.70497
0
LINE
8
BLACK
6
CONTINUOUS
10
3.35796
20
-2.70497
11
3.35817
21
-2.70474
0
LINE
8
BLACK
6
CONTINUOUS
10
3.35817
20
-2.70474
11
3.35817
21
-2.70474
0
LINE
8
BLACK
6
CONTINUOUS
10
3.35817
20
-2.70474
11
3.35957
21
-2.70322
0
LINE
8
BLACK
6
CONTINUOUS
10
3.35957
20
-2.70322
11
3.35971
21
-2.70308
0
LINE
8
BLACK
6
CONTINUOUS
10
3.35971
20
-2.70308
11
3.46986
21
-2.59293
0
LINE
8
BLACK
6
CONTINUOUS
10
3.46986
20
-2.59293
11
3.47227
21
-2.59161
0
LINE
8
BLACK
6
CONTINUOUS
10
3.47227
20
-2.59161
11
3.47501
21
-2.59181
0
LINE
8
BLACK
6
CONTINUOUS
10
3.47501
20
-2.59181
11
3.47575
21
-2.59216
0
LINE
8
BLACK
6
CONTINUOUS
10
3.47575
20
-2.59216
11
3.47896
21
-2.59401
0
LINE
8
BLACK
6
CONTINUOUS
10
3.47896
20
-2.59401
11
3.47896
21
-2.59401
0
LINE
8
BLACK
6
CONTINUOUS
10
3.47896
20
-2.59401
11
3.47925
21
-2.59418
0
LINE
8
BLACK
6
CONTINUOUS
10
3.47925
20
-2.59418
11
3.48115
21
-2.59617
0
LINE
8
BLACK
6
CONTINUOUS
10
3.48115
20
-2.59617
11
3.48169
21
-2.59845
0
LINE
8
BLACK
6
CONTINUOUS
10
3.48169
20
-2.59845
11
3.48023
21
-2.75873
0
LINE
8
BLACK
6
CONTINUOUS
10
3.48023
20
-2.75873
11
3.47943
21
-2.76136
0
LINE
8
BLACK
6
CONTINUOUS
10
3.47943
20
-2.76136
11
3.47734
21
-2.76314
0
LINE
8
BLACK
6
CONTINUOUS
10
3.47734
20
-2.76314
11
3.47535
21
-2.76356
0
LINE
8
BLACK
6
CONTINUOUS
10
3.47535
20
-2.76356
11
3.25094
21
-2.76356
0
LINE
8
BLACK
6
CONTINUOUS
10
3.25094
20
-2.76356
11
3.25082
21
-2.76358
0
LINE
8
BLACK
6
CONTINUOUS
10
3.25082
20
-2.76358
11
3.25082
21
-2.76358
0
LINE
8
BLACK
6
CONTINUOUS
10
3.25082
20
-2.76358
11
3.24894
21
-2.76378
0
LINE
8
BLACK
6
CONTINUOUS
10
3.24894
20
-2.76378
11
3.24894
21
-2.76378
0
LINE
8
BLACK
6
CONTINUOUS
10
3.24894
20
-2.76378
11
3.24881
21
-2.76379
0
LINE
8
BLACK
6
CONTINUOUS
10
3.24881
20
-2.76379
11
3.24868
21
-2.76382
0
LINE
8
BLACK
6
CONTINUOUS
10
3.24868
20
-2.76382
11
3.24868
21
-2.76382
0
LINE
8
BLACK
6
CONTINUOUS
10
3.24868
20
-2.76382
11
3.24684
21
-2.76422
0
LINE
8
BLACK
6
CONTINUOUS
10
3.24684
20
-2.76422
11
3.24684
21
-2.76422
0
LINE
8
BLACK
6
CONTINUOUS
10
3.24684
20
-2.76422
11
3.24678
21
-2.76423
0
LINE
8
BLACK
6
CONTINUOUS
10
3.24678
20
-2.76423
11
3.24672
21
-2.76425
0
LINE
8
BLACK
6
CONTINUOUS
10
3.24672
20
-2.76425
11
3.24672
21
-2.76425
0
LINE
8
BLACK
6
CONTINUOUS
10
3.24672
20
-2.76425
11
3.24604
21
-2.76444
0
LINE
8
BLACK
6
CONTINUOUS
10
3.24604
20
-2.76444
11
3.24574
21
-2.76452
0
LINE
8
BLACK
6
CONTINUOUS
10
3.24574
20
-2.76452
11
3.24574
21
-2.76452
0
LINE
8
BLACK
6
CONTINUOUS
10
3.24574
20
-2.76452
11
3.24574
21
-2.76452
0
LINE
8
BLACK
6
CONTINUOUS
10
3.24574
20
-2.76452
11
3.24233
21
-2.76646
0
LINE
8
BLACK
6
CONTINUOUS
10
3.24233
20
-2.76646
11
3.24033
21
-2.76819
0
LINE
8
BLACK
6
CONTINUOUS
10
3.24033
20
-2.76819
11
3.24033
21
-2.76819
0
LINE
8
BLACK
6
CONTINUOUS
10
3.24033
20
-2.76819
11
3.24025
21
-2.76826
0
LINE
8
BLACK
6
CONTINUOUS
10
3.24025
20
-2.76826
11
3.24018
21
-2.76834
0
LINE
8
BLACK
6
CONTINUOUS
10
3.24018
20
-2.76834
11
3.23901
21
-2.76955
0
LINE
8
BLACK
6
CONTINUOUS
10
3.23901
20
-2.76955
11
3.23719
21
-2.77303
0
LINE
8
BLACK
6
CONTINUOUS
10
3.23719
20
-2.77303
11
3.23641
21
-2.77567
0
LINE
8
BLACK
6
CONTINUOUS
10
3.23641
20
-2.77567
11
3.236
21
-2.7785
0
LINE
8
BLACK
6
CONTINUOUS
10
3.236
20
-2.7785
11
3.236
21
-2.81205
0
LINE
8
BLACK
6
CONTINUOUS
10
3.236
20
-2.81205
11
3.23623
21
-2.81419
0
LINE
8
BLACK
6
CONTINUOUS
10
3.23623
20
-2.81419
11
3.23626
21
-2.81431
0
LINE
8
BLACK
6
CONTINUOUS
10
3.23626
20
-2.81431
11
3.23626
21
-2.81431
0
LINE
8
BLACK
6
CONTINUOUS
10
3.23626
20
-2.81431
11
3.23666
21
-2.81615
0
LINE
8
BLACK
6
CONTINUOUS
10
3.23666
20
-2.81615
11
3.23666
21
-2.81615
0
LINE
8
BLACK
6
CONTINUOUS
10
3.23666
20
-2.81615
11
3.23667
21
-2.81621
0
LINE
8
BLACK
6
CONTINUOUS
10
3.23667
20
-2.81621
11
3.23669
21
-2.81628
0
LINE
8
BLACK
6
CONTINUOUS
10
3.23669
20
-2.81628
11
3.23669
21
-2.81628
0
LINE
8
BLACK
6
CONTINUOUS
10
3.23669
20
-2.81628
11
3.23696
21
-2.81725
0
LINE
8
BLACK
6
CONTINUOUS
10
3.23696
20
-2.81725
11
3.2389
21
-2.82066
0
LINE
8
BLACK
6
CONTINUOUS
10
3.2389
20
-2.82066
11
3.24063
21
-2.82266
0
LINE
8
BLACK
6
CONTINUOUS
10
3.24063
20
-2.82266
11
3.2407
21
-2.82274
0
LINE
8
BLACK
6
CONTINUOUS
10
3.2407
20
-2.82274
11
3.24199
21
-2.82399
0
LINE
8
BLACK
6
CONTINUOUS
10
3.24199
20
-2.82399
11
3.24547
21
-2.82581
0
LINE
8
BLACK
6
CONTINUOUS
10
3.24547
20
-2.82581
11
3.24811
21
-2.82658
0
LINE
8
BLACK
6
CONTINUOUS
10
3.24811
20
-2.82658
11
3.25094
21
-2.82699
0
LINE
8
BLACK
6
CONTINUOUS
10
3.25094
20
-2.82699
11
3.25683
21
-2.82699
0
LINE
8
BLACK
6
CONTINUOUS
10
3.25683
20
-2.82699
11
3.25799
21
-2.82713
0
LINE
8
BLACK
6
CONTINUOUS
10
3.25799
20
-2.82713
11
3.25857
21
-2.82727
0
LINE
8
BLACK
6
CONTINUOUS
10
3.25857
20
-2.82727
11
3.25857
21
-2.82727
0
LINE
8
BLACK
6
CONTINUOUS
10
3.25857
20
-2.82727
11
3.26461
21
-2.82876
0
LINE
8
BLACK
6
CONTINUOUS
10
3.26461
20
-2.82876
11
3.26461
21
-2.82876
0
LINE
8
BLACK
6
CONTINUOUS
10
3.26461
20
-2.82876
11
3.27083
21
-2.82876
0
LINE
8
BLACK
6
CONTINUOUS
10
3.27083
20
-2.82876
11
3.27083
21
-2.82876
0
LINE
8
BLACK
6
CONTINUOUS
10
3.27083
20
-2.82876
11
3.27686
21
-2.82727
0
LINE
8
BLACK
6
CONTINUOUS
10
3.27686
20
-2.82727
11
3.27686
21
-2.82727
0
LINE
8
BLACK
6
CONTINUOUS
10
3.27686
20
-2.82727
11
3.27744
21
-2.82713
0
LINE
8
BLACK
6
CONTINUOUS
10
3.27744
20
-2.82713
11
3.27861
21
-2.82699
0
LINE
8
BLACK
6
CONTINUOUS
10
3.27861
20
-2.82699
11
3.58164
21
-2.82699
0
LINE
8
BLACK
6
CONTINUOUS
10
3.58164
20
-2.82699
11
3.58177
21
-2.82699
0
LINE
8
BLACK
6
CONTINUOUS
10
3.58177
20
-2.82699
11
3.58387
21
-2.82677
0
LINE
8
BLACK
6
CONTINUOUS
10
3.58387
20
-2.82677
11
3.58586
21
-2.82634
0
LINE
8
BLACK
6
CONTINUOUS
10
3.58586
20
-2.82634
11
3.58687
21
-2.82607
0
LINE
8
BLACK
6
CONTINUOUS
10
3.58687
20
-2.82607
11
3.59029
21
-2.82416
0
LINE
8
BLACK
6
CONTINUOUS
10
3.59029
20
-2.82416
11
3.59239
21
-2.82237
0
LINE
8
BLACK
6
CONTINUOUS
10
3.59239
20
-2.82237
11
3.59364
21
-2.82109
0
LINE
8
BLACK
6
CONTINUOUS
10
3.59364
20
-2.82109
11
3.59549
21
-2.81762
0
LINE
8
BLACK
6
CONTINUOUS
10
3.59549
20
-2.81762
11
3.59628
21
-2.81499
0
LINE
8
BLACK
6
CONTINUOUS
10
3.59628
20
-2.81499
11
3.59671
21
-2.81216
0
LINE
8
BLACK
6
CONTINUOUS
10
3.59671
20
-2.81216
11
3.59846
21
-2.58071
0
LINE
8
BLACK
6
CONTINUOUS
10
3.59846
20
-2.58071
11
3.59847
21
-2.58002
0
LINE
8
BLACK
6
CONTINUOUS
10
3.59847
20
-2.58002
11
3.59852
21
-2.57936
0
LINE
8
BLACK
6
CONTINUOUS
10
3.59852
20
-2.57936
11
3.59864
21
-2.5785
0
LINE
8
BLACK
6
CONTINUOUS
10
3.59864
20
-2.5785
11
3.59864
21
-2.39259
0
LINE
8
BLACK
6
CONTINUOUS
10
3.59864
20
-2.39259
11
3.59843
21
-2.39054
0
LINE
8
BLACK
6
CONTINUOUS
10
3.59843
20
-2.39054
11
3.59803
21
-2.3886
0
LINE
8
BLACK
6
CONTINUOUS
10
3.59803
20
-2.3886
11
3.59778
21
-2.38765
0
LINE
8
BLACK
6
CONTINUOUS
10
3.59778
20
-2.38765
11
3.5959
21
-2.3842
0
LINE
8
BLACK
6
CONTINUOUS
10
3.5959
20
-2.3842
11
3.59554
21
-2.38377
0
LINE
8
BLACK
6
CONTINUOUS
10
3.59554
20
-2.38377
11
3.59421
21
-2.38217
0
LINE
8
BLACK
6
CONTINUOUS
10
3.59421
20
-2.38217
11
3.59421
21
-2.38217
0
LINE
8
BLACK
6
CONTINUOUS
10
3.59421
20
-2.38217
11
3.59414
21
-2.38209
0
LINE
8
BLACK
6
CONTINUOUS
10
3.59414
20
-2.38209
11
3.59407
21
-2.38201
0
LINE
8
BLACK
6
CONTINUOUS
10
3.59407
20
-2.38201
11
3.59407
21
-2.38201
0
LINE
8
BLACK
6
CONTINUOUS
10
3.59407
20
-2.38201
11
3.59288
21
-2.38082
0
LINE
8
BLACK
6
CONTINUOUS
10
3.59288
20
-2.38082
11
3.58943
21
-2.37893
0
LINE
8
BLACK
6
CONTINUOUS
10
3.58943
20
-2.37893
11
3.58856
21
-2.37866
0
LINE
8
BLACK
6
CONTINUOUS
10
3.58856
20
-2.37866
11
3.58681
21
-2.37811
0
LINE
8
BLACK
6
CONTINUOUS
10
3.58681
20
-2.37811
11
3.58589
21
-2.37796
0
LINE
8
BLACK
6
CONTINUOUS
10
3.58589
20
-2.37796
11
3.58398
21
-2.37765
0
LINE
8
BLACK
6
CONTINUOUS
10
3.58398
20
-2.37765
11
3.48425
21
-2.37577
0
LINE
8
BLACK
6
CONTINUOUS
10
3.48425
20
-2.37577
11
3.45979
21
-2.37577
0
LINE
8
BLACK
6
CONTINUOUS
10
3.45979
20
-2.37577
11
3.45962
21
-2.37579
0
LINE
8
BLACK
6
CONTINUOUS
10
3.45962
20
-2.37579
11
3.45962
21
-2.37579
0
LINE
8
BLACK
6
CONTINUOUS
10
3.45962
20
-2.37579
11
3.45718
21
-2.37613
0
LINE
8
BLACK
6
CONTINUOUS
10
3.45718
20
-2.37613
11
3.45718
21
-2.37613
0
LINE
8
BLACK
6
CONTINUOUS
10
3.45718
20
-2.37613
11
3.45701
21
-2.37616
0
LINE
8
BLACK
6
CONTINUOUS
10
3.45701
20
-2.37616
11
3.45685
21
-2.3762
0
LINE
8
BLACK
6
CONTINUOUS
10
3.45685
20
-2.3762
11
3.45685
21
-2.3762
0
LINE
8
BLACK
6
CONTINUOUS
10
3.45685
20
-2.3762
11
3.45453
21
-2.37687
0
LINE
8
BLACK
6
CONTINUOUS
10
3.45453
20
-2.37687
11
3.45453
21
-2.37687
0
LINE
8
BLACK
6
CONTINUOUS
10
3.45453
20
-2.37687
11
3.45443
21
-2.3769
0
LINE
8
BLACK
6
CONTINUOUS
10
3.45443
20
-2.3769
11
3.45364
21
-2.3772
0
LINE
8
BLACK
6
CONTINUOUS
10
3.45364
20
-2.3772
11
3.45282
21
-2.37751
0
LINE
8
BLACK
6
CONTINUOUS
10
3.45282
20
-2.37751
11
3.44969
21
-2.37988
0
LINE
8
BLACK
6
CONTINUOUS
10
3.44969
20
-2.37988
11
3.44786
21
-2.38194
0
LINE
8
BLACK
6
CONTINUOUS
10
3.44786
20
-2.38194
11
3.44628
21
-2.38432
0
LINE
8
BLACK
6
CONTINUOUS
10
3.44628
20
-2.38432
11
3.41634
21
-2.44765
0
LINE
8
BLACK
6
CONTINUOUS
10
3.41634
20
-2.44765
11
3.41191
21
-2.45702
0
LINE
8
BLACK
6
CONTINUOUS
10
3.41191
20
-2.45702
11
3.40464
21
-2.4724
0
LINE
8
BLACK
6
CONTINUOUS
10
3.40464
20
-2.4724
11
3.4015
21
-2.47905
0
LINE
8
BLACK
6
CONTINUOUS
10
3.4015
20
-2.47905
11
3.39889
21
-2.48458
0
LINE
8
BLACK
6
CONTINUOUS
10
3.39889
20
-2.48458
11
3.39834
21
-2.48572
0
LINE
8
BLACK
6
CONTINUOUS
10
3.39834
20
-2.48572
11
3.39831
21
-2.48582
0
LINE
8
BLACK
6
CONTINUOUS
10
3.39831
20
-2.48582
11
3.39831
21
-2.48582
0
LINE
8
BLACK
6
CONTINUOUS
10
3.39831
20
-2.48582
11
3.39777
21
-2.48726
0
LINE
8
BLACK
6
CONTINUOUS
10
3.39777
20
-2.48726
11
3.39777
21
-2.48726
0
LINE
8
BLACK
6
CONTINUOUS
10
3.39777
20
-2.48726
11
3.39774
21
-2.48736
0
LINE
8
BLACK
6
CONTINUOUS
10
3.39774
20
-2.48736
11
3.39771
21
-2.48747
0
LINE
8
BLACK
6
CONTINUOUS
10
3.39771
20
-2.48747
11
3.39771
21
-2.48747
0
LINE
8
BLACK
6
CONTINUOUS
10
3.39771
20
-2.48747
11
3.39729
21
-2.489
0
LINE
8
BLACK
6
CONTINUOUS
10
3.39729
20
-2.489
11
3.39727
21
-2.48908
0
LINE
8
BLACK
6
CONTINUOUS
10
3.39727
20
-2.48908
11
3.39713
21
-2.48965
0
LINE
8
BLACK
6
CONTINUOUS
10
3.39713
20
-2.48965
11
3.39712
21
-2.49358
0
LINE
8
BLACK
6
CONTINUOUS
10
3.39712
20
-2.49358
11
3.39762
21
-2.49617
0
LINE
8
BLACK
6
CONTINUOUS
10
3.39762
20
-2.49617
11
3.39762
21
-2.49617
0
LINE
8
BLACK
6
CONTINUOUS
10
3.39762
20
-2.49617
11
3.39764
21
-2.49628
0
LINE
8
BLACK
6
CONTINUOUS
10
3.39764
20
-2.49628
11
3.39814
21
-2.498
0
LINE
8
BLACK
6
CONTINUOUS
10
3.39814
20
-2.498
11
3.40025
21
-2.50131
0
LINE
8
BLACK
6
CONTINUOUS
10
3.40025
20
-2.50131
11
3.40025
21
-2.50131
0
LINE
8
BLACK
6
CONTINUOUS
10
3.40025
20
-2.50131
11
3.40215
21
-2.5033
0
LINE
8
BLACK
6
CONTINUOUS
10
3.40215
20
-2.5033
11
3.40441
21
-2.50506
0
LINE
8
BLACK
6
CONTINUOUS
10
3.40441
20
-2.50506
11
3.40475
21
-2.50526
0
LINE
8
BLACK
6
CONTINUOUS
10
3.40475
20
-2.50526
11
3.40665
21
-2.50725
0
LINE
8
BLACK
6
CONTINUOUS
10
3.40665
20
-2.50725
11
3.40718
21
-2.50995
0
LINE
8
BLACK
6
CONTINUOUS
10
3.40718
20
-2.50995
11
3.40655
21
-2.51193
0
LINE
8
BLACK
6
CONTINUOUS
10
3.40655
20
-2.51193
11
3.39356
21
-2.53444
0
LINE
8
BLACK
6
CONTINUOUS
10
3.39356
20
-2.53444
11
3.39261
21
-2.53721
0
LINE
8
BLACK
6
CONTINUOUS
10
3.39261
20
-2.53721
11
3.39283
21
-2.5406
0
LINE
8
BLACK
6
CONTINUOUS
10
3.39283
20
-2.5406
11
3.39223
21
-2.54328
0
LINE
8
BLACK
6
CONTINUOUS
10
3.39223
20
-2.54328
11
3.39142
21
-2.54437
0
LINE
8
BLACK
6
CONTINUOUS
10
3.39142
20
-2.54437
11
3.3142
21
-2.62158
0
LINE
8
BLACK
6
CONTINUOUS
10
3.3142
20
-2.62158
11
3.31179
21
-2.6229
0
LINE
8
BLACK
6
CONTINUOUS
10
3.31179
20
-2.6229
11
3.31075
21
-2.62301
0
LINE
8
BLACK
6
CONTINUOUS
10
3.31075
20
-2.62301
11
3.2298
21
-2.62301
0
LINE
8
BLACK
6
CONTINUOUS
10
3.2298
20
-2.62301
11
3.22879
21
-2.62291
0
LINE
8
BLACK
6
CONTINUOUS
10
3.22879
20
-2.62291
11
3.22838
21
-2.62282
0
LINE
8
BLACK
6
CONTINUOUS
10
3.22838
20
-2.62282
11
3.22838
21
-2.62282
0
LINE
8
BLACK
6
CONTINUOUS
10
3.22838
20
-2.62282
11
3.22773
21
-2.6229
0
LINE
8
BLACK
6
CONTINUOUS
10
3.22773
20
-2.6229
11
3.22714
21
-2.62297
0
LINE
8
BLACK
6
CONTINUOUS
10
3.22714
20
-2.62297
11
3.22653
21
-2.62301
0
LINE
8
BLACK
6
CONTINUOUS
10
3.22653
20
-2.62301
11
3.22653
21
-2.62301
0
LINE
8
BLACK
6
CONTINUOUS
10
3.22653
20
-2.62301
11
3.22572
21
-2.62315
0
LINE
8
BLACK
6
CONTINUOUS
10
3.22572
20
-2.62315
11
3.22552
21
-2.62318
0
LINE
8
BLACK
6
CONTINUOUS
10
3.22552
20
-2.62318
11
3.22317
21
-2.62347
0
LINE
8
BLACK
6
CONTINUOUS
10
3.22317
20
-2.62347
11
3.22316
21
-2.62347
0
LINE
8
BLACK
6
CONTINUOUS
10
3.22316
20
-2.62347
11
3.22108
21
-2.6246
0
LINE
8
BLACK
6
CONTINUOUS
10
3.22108
20
-2.6246
11
3.2209
21
-2.62469
0
LINE
8
BLACK
6
CONTINUOUS
10
3.2209
20
-2.62469
11
3.21877
21
-2.62573
0
LINE
8
BLACK
6
CONTINUOUS
10
3.21877
20
-2.62573
11
3.21876
21
-2.62574
0
LINE
8
BLACK
6
CONTINUOUS
10
3.21876
20
-2.62574
11
3.21715
21
-2.62748
0
LINE
8
BLACK
6
CONTINUOUS
10
3.21715
20
-2.62748
11
3.21701
21
-2.62763
0
LINE
8
BLACK
6
CONTINUOUS
10
3.21701
20
-2.62763
11
3.18586
21
-2.65879
0
LINE
8
BLACK
6
CONTINUOUS
10
3.18586
20
-2.65879
11
3.18344
21
-2.6601
0
LINE
8
BLACK
6
CONTINUOUS
10
3.18344
20
-2.6601
11
3.18241
21
-2.66022
0
LINE
8
BLACK
6
CONTINUOUS
10
3.18241
20
-2.66022
11
3.1634
21
-2.66022
0
LINE
8
BLACK
6
CONTINUOUS
10
3.1634
20
-2.66022
11
3.16052
21
-2.66079
0
LINE
8
BLACK
6
CONTINUOUS
10
3.16052
20
-2.66079
11
3.15726
21
-2.66297
0
LINE
8
BLACK
6
CONTINUOUS
10
3.15726
20
-2.66297
11
3.15508
21
-2.66623
0
LINE
8
BLACK
6
CONTINUOUS
10
3.15508
20
-2.66623
11
3.15451
21
-2.66911
0
LINE
8
BLACK
6
CONTINUOUS
10
3.15451
20
-2.66911
11
3.15451
21
-2.70058
0
LINE
8
BLACK
6
CONTINUOUS
10
3.15451
20
-2.70058
11
3.15483
21
-2.7022
0
LINE
8
BLACK
6
CONTINUOUS
10
3.15483
20
-2.7022
11
3.15483
21
-2.7041
0
LINE
8
BLACK
6
CONTINUOUS
10
3.15483
20
-2.7041
11
3.15451
21
-2.70572
0
LINE
8
BLACK
6
CONTINUOUS
10
3.15451
20
-2.70572
11
3.15451
21
-2.72735
0
LINE
8
BLACK
6
CONTINUOUS
10
3.15451
20
-2.72735
11
3.15483
21
-2.72897
0
LINE
8
BLACK
6
CONTINUOUS
10
3.15483
20
-2.72897
11
3.15483
21
-2.73087
0
LINE
8
BLACK
6
CONTINUOUS
10
3.15483
20
-2.73087
11
3.15451
21
-2.73249
0
LINE
8
BLACK
6
CONTINUOUS
10
3.15451
20
-2.73249
11
3.15451
21
-2.76396
0
LINE
8
BLACK
6
CONTINUOUS
10
3.15451
20
-2.76396
11
3.15508
21
-2.76684
0
LINE
8
BLACK
6
CONTINUOUS
10
2.7908
20
-2.56077
11
2.80811
21
-2.59076
0
LINE
8
BLACK
6
CONTINUOUS
10
2.80811
20
-2.59076
11
2.80811
21
-2.59076
0
LINE
8
BLACK
6
CONTINUOUS
10
2.80811
20
-2.59076
11
2.81004
21
-2.59296
0
LINE
8
BLACK
6
CONTINUOUS
10
2.81004
20
-2.59296
11
2.81356
21
-2.5947
0
LINE
8
BLACK
6
CONTINUOUS
10
2.81356
20
-2.5947
11
2.81748
21
-2.59495
0
LINE
8
BLACK
6
CONTINUOUS
10
2.81748
20
-2.59495
11
2.82025
21
-2.59401
0
LINE
8
BLACK
6
CONTINUOUS
10
2.82025
20
-2.59401
11
2.82346
21
-2.59216
0
LINE
8
BLACK
6
CONTINUOUS
10
2.82346
20
-2.59216
11
2.82614
21
-2.59151
0
LINE
8
BLACK
6
CONTINUOUS
10
2.82614
20
-2.59151
11
2.82874
21
-2.59241
0
LINE
8
BLACK
6
CONTINUOUS
10
2.82874
20
-2.59241
11
2.82936
21
-2.59293
0
LINE
8
BLACK
6
CONTINUOUS
10
2.82936
20
-2.59293
11
2.99366
21
-2.75724
0
LINE
8
BLACK
6
CONTINUOUS
10
2.99366
20
-2.75724
11
2.9943
21
-2.75802
0
LINE
8
BLACK
6
CONTINUOUS
10
2.9943
20
-2.75802
11
2.99453
21
-2.75838
0
LINE
8
BLACK
6
CONTINUOUS
10
2.99453
20
-2.75838
11
2.99498
21
-2.75873
0
LINE
8
BLACK
6
CONTINUOUS
10
2.99498
20
-2.75873
11
2.99552
21
-2.75914
0
LINE
8
BLACK
6
CONTINUOUS
10
2.99552
20
-2.75914
11
2.99597
21
-2.75955
0
LINE
8
BLACK
6
CONTINUOUS
10
2.99597
20
-2.75955
11
2.99597
21
-2.75955
0
LINE
8
BLACK
6
CONTINUOUS
10
2.99597
20
-2.75955
11
2.99664
21
-2.76002
0
LINE
8
BLACK
6
CONTINUOUS
10
2.99664
20
-2.76002
11
2.9968
21
-2.76014
0
LINE
8
BLACK
6
CONTINUOUS
10
2.9968
20
-2.76014
11
2.99843
21
-2.76141
0
LINE
8
BLACK
6
CONTINUOUS
10
2.99843
20
-2.76141
11
2.99843
21
-2.76141
0
LINE
8
BLACK
6
CONTINUOUS
10
2.99843
20
-2.76141
11
2.99867
21
-2.7616
0
LINE
8
BLACK
6
CONTINUOUS
10
2.99867
20
-2.7616
11
2.99868
21
-2.7616
0
LINE
8
BLACK
6
CONTINUOUS
10
2.99868
20
-2.7616
11
2.99898
21
-2.76169
0
LINE
8
BLACK
6
CONTINUOUS
10
2.99898
20
-2.76169
11
2.99898
21
-2.76169
0
LINE
8
BLACK
6
CONTINUOUS
10
2.99898
20
-2.76169
11
3.00095
21
-2.76228
0
LINE
8
BLACK
6
CONTINUOUS
10
3.00095
20
-2.76228
11
3.00114
21
-2.76234
0
LINE
8
BLACK
6
CONTINUOUS
10
3.00114
20
-2.76234
11
3.00309
21
-2.76301
0
LINE
8
BLACK
6
CONTINUOUS
10
3.00309
20
-2.76301
11
3.00339
21
-2.76311
0
LINE
8
BLACK
6
CONTINUOUS
10
3.00339
20
-2.76311
11
3.00339
21
-2.76311
0
LINE
8
BLACK
6
CONTINUOUS
10
3.00339
20
-2.76311
11
3.0037
21
-2.7631
0
LINE
8
BLACK
6
CONTINUOUS
10
3.0037
20
-2.7631
11
3.0037
21
-2.7631
0
LINE
8
BLACK
6
CONTINUOUS
10
3.0037
20
-2.7631
11
3.00576
21
-2.76302
0
LINE
8
BLACK
6
CONTINUOUS
10
3.00576
20
-2.76302
11
3.00596
21
-2.76301
0
LINE
8
BLACK
6
CONTINUOUS
10
3.00596
20
-2.76301
11
3.08811
21
-2.76301
0
LINE
8
BLACK
6
CONTINUOUS
10
3.08811
20
-2.76301
11
3.09075
21
-2.76379
0
LINE
8
BLACK
6
CONTINUOUS
10
3.09075
20
-2.76379
11
3.09255
21
-2.76587
0
LINE
8
BLACK
6
CONTINUOUS
10
3.09255
20
-2.76587
11
3.09285
21
-2.7668
0
LINE
8
BLACK
6
CONTINUOUS
10
3.09285
20
-2.7668
11
3.09288
21
-2.76684
0
LINE
8
BLACK
6
CONTINUOUS
10
3.09288
20
-2.76684
11
3.09288
21
-2.76684
0
LINE
8
BLACK
6
CONTINUOUS
10
3.09288
20
-2.76684
11
3.09506
21
-2.7701
0
LINE
8
BLACK
6
CONTINUOUS
10
3.09506
20
-2.7701
11
3.09832
21
-2.77228
0
LINE
8
BLACK
6
CONTINUOUS
10
3.09832
20
-2.77228
11
3.09976
21
-2.77257
0
LINE
8
BLACK
6
CONTINUOUS
10
3.09976
20
-2.77257
11
3.10119
21
-2.77285
0
LINE
8
BLACK
6
CONTINUOUS
10
3.10119
20
-2.77285
11
3.10119
21
-2.77285
0
LINE
8
BLACK
6
CONTINUOUS
10
3.10119
20
-2.77285
11
3.13581
21
-2.77285
0
LINE
8
BLACK
6
CONTINUOUS
10
3.13581
20
-2.77285
11
3.13677
21
-2.77266
0
LINE
8
BLACK
6
CONTINUOUS
10
3.13677
20
-2.77266
11
3.13869
21
-2.77228
0
LINE
8
BLACK
6
CONTINUOUS
10
3.13869
20
-2.77228
11
3.14195
21
-2.7701
0
LINE
8
BLACK
6
CONTINUOUS
10
3.14195
20
-2.7701
11
3.14413
21
-2.76684
0
LINE
8
BLACK
6
CONTINUOUS
10
3.14413
20
-2.76684
11
3.1447
21
-2.76396
0
LINE
8
BLACK
6
CONTINUOUS
10
3.1447
20
-2.76396
11
3.1447
21
-2.73249
0
LINE
8
BLACK
6
CONTINUOUS
10
3.1447
20
-2.73249
11
3.14438
21
-2.73087
0
LINE
8
BLACK
6
CONTINUOUS
10
3.14438
20
-2.73087
11
3.14438
21
-2.72897
0
LINE
8
BLACK
6
CONTINUOUS
10
3.14438
20
-2.72897
11
3.1447
21
-2.72735
0
LINE
8
BLACK
6
CONTINUOUS
10
3.1447
20
-2.72735
11
3.1447
21
-2.70572
0
LINE
8
BLACK
6
CONTINUOUS
10
3.1447
20
-2.70572
11
3.14438
21
-2.7041
0
LINE
8
BLACK
6
CONTINUOUS
10
3.14438
20
-2.7041
11
3.14438
21
-2.7022
0
LINE
8
BLACK
6
CONTINUOUS
10
3.14438
20
-2.7022
11
3.1447
21
-2.70058
0
LINE
8
BLACK
6
CONTINUOUS
10
3.1447
20
-2.70058
11
3.1447
21
-2.66911
0
LINE
8
BLACK
6
CONTINUOUS
10
3.1447
20
-2.66911
11
3.14413
21
-2.66623
0
LINE
8
BLACK
6
CONTINUOUS
10
3.14413
20
-2.66623
11
3.14195
21
-2.66297
0
LINE
8
BLACK
6
CONTINUOUS
10
3.14195
20
-2.66297
11
3.13869
21
-2.66079
0
LINE
8
BLACK
6
CONTINUOUS
10
3.13869
20
-2.66079
11
3.13869
21
-2.66079
0
LINE
8
BLACK
6
CONTINUOUS
10
3.13869
20
-2.66079
11
3.13869
21
-2.66079
0
LINE
8
BLACK
6
CONTINUOUS
10
3.13869
20
-2.66079
11
3.13581
21
-2.66022
0
LINE
8
BLACK
6
CONTINUOUS
10
3.13581
20
-2.66022
11
3.13581
21
-2.66022
0
LINE
8
BLACK
6
CONTINUOUS
10
3.13581
20
-2.66022
11
3.10119
21
-2.66022
0
LINE
8
BLACK
6
CONTINUOUS
10
3.10119
20
-2.66022
11
3.10119
21
-2.66022
0
LINE
8
BLACK
6
CONTINUOUS
10
3.10119
20
-2.66022
11
3.09832
21
-2.66079
0
LINE
8
BLACK
6
CONTINUOUS
10
3.09832
20
-2.66079
11
3.09832
21
-2.66079
0
LINE
8
BLACK
6
CONTINUOUS
10
3.09832
20
-2.66079
11
3.09832
21
-2.66079
0
LINE
8
BLACK
6
CONTINUOUS
10
3.09832
20
-2.66079
11
3.09506
21
-2.66297
0
LINE
8
BLACK
6
CONTINUOUS
10
3.09506
20
-2.66297
11
3.09288
21
-2.66623
0
LINE
8
BLACK
6
CONTINUOUS
10
3.09288
20
-2.66623
11
3.09288
21
-2.66623
0
LINE
8
BLACK
6
CONTINUOUS
10
3.09288
20
-2.66623
11
3.09272
21
-2.66646
0
LINE
8
BLACK
6
CONTINUOUS
10
3.09272
20
-2.66646
11
3.09162
21
-2.66857
0
LINE
8
BLACK
6
CONTINUOUS
10
3.09162
20
-2.66857
11
3.08923
21
-2.66993
0
LINE
8
BLACK
6
CONTINUOUS
10
3.08923
20
-2.66993
11
3.08811
21
-2.67006
0
LINE
8
BLACK
6
CONTINUOUS
10
3.08811
20
-2.67006
11
3.03157
21
-2.67006
0
LINE
8
BLACK
6
CONTINUOUS
10
3.03157
20
-2.67006
11
3.02893
21
-2.66928
0
LINE
8
BLACK
6
CONTINUOUS
10
3.02893
20
-2.66928
11
3.02812
21
-2.66863
0
LINE
8
BLACK
6
CONTINUOUS
10
3.02812
20
-2.66863
11
2.90693
21
-2.54744
0
LINE
8
BLACK
6
CONTINUOUS
10
2.90693
20
-2.54744
11
2.90561
21
-2.54502
0
LINE
8
BLACK
6
CONTINUOUS
10
2.90561
20
-2.54502
11
2.9058
21
-2.54228
0
LINE
8
BLACK
6
CONTINUOUS
10
2.9058
20
-2.54228
11
2.906
21
-2.54183
0
LINE
8
BLACK
6
CONTINUOUS
10
2.906
20
-2.54183
11
2.90634
21
-2.54113
0
LINE
8
BLACK
6
CONTINUOUS
10
2.90634
20
-2.54113
11
2.9066
21
-2.53721
0
LINE
8
BLACK
6
CONTINUOUS
10
2.9066
20
-2.53721
11
2.90566
21
-2.53444
0
LINE
8
BLACK
6
CONTINUOUS
10
2.90566
20
-2.53444
11
2.89986
21
-2.5244
0
LINE
8
BLACK
6
CONTINUOUS
10
2.89986
20
-2.5244
11
2.88835
21
-2.50445
0
LINE
8
BLACK
6
CONTINUOUS
10
2.88835
20
-2.50445
11
2.88641
21
-2.50225
0
LINE
8
BLACK
6
CONTINUOUS
10
2.88641
20
-2.50225
11
2.88451
21
-2.50131
0
LINE
8
BLACK
6
CONTINUOUS
10
2.88451
20
-2.50131
11
2.88289
21
-2.50051
0
LINE
8
BLACK
6
CONTINUOUS
10
2.88289
20
-2.50051
11
2.87898
21
-2.50026
0
LINE
8
BLACK
6
CONTINUOUS
10
2.87898
20
-2.50026
11
2.87898
21
-2.50026
0
LINE
8
BLACK
6
CONTINUOUS
10
2.87898
20
-2.50026
11
2.8762
21
-2.5012
0
LINE
8
BLACK
6
CONTINUOUS
10
2.8762
20
-2.5012
11
2.84895
21
-2.51694
0
LINE
8
BLACK
6
CONTINUOUS
10
2.84895
20
-2.51694
11
2.84771
21
-2.51802
0
LINE
8
BLACK
6
CONTINUOUS
10
2.84771
20
-2.51802
11
2.84606
21
-2.51898
0
LINE
8
BLACK
6
CONTINUOUS
10
2.84606
20
-2.51898
11
2.84449
21
-2.51951
0
LINE
8
BLACK
6
CONTINUOUS
10
2.84449
20
-2.51951
11
2.82576
21
-2.53032
0
LINE
8
BLACK
6
CONTINUOUS
10
2.82576
20
-2.53032
11
2.82452
21
-2.53141
0
LINE
8
BLACK
6
CONTINUOUS
10
2.82452
20
-2.53141
11
2.82287
21
-2.53236
0
LINE
8
BLACK
6
CONTINUOUS
10
2.82287
20
-2.53236
11
2.82131
21
-2.53289
0
LINE
8
BLACK
6
CONTINUOUS
10
2.82131
20
-2.53289
11
2.79405
21
-2.54863
0
LINE
8
BLACK
6
CONTINUOUS
10
2.79405
20
-2.54863
11
2.79185
21
-2.55056
0
LINE
8
BLACK
6
CONTINUOUS
10
2.79185
20
-2.55056
11
2.79011
21
-2.55408
0
LINE
8
BLACK
6
CONTINUOUS
10
2.79011
20
-2.55408
11
2.78986
21
-2.558
0
LINE
8
BLACK
6
CONTINUOUS
10
2.78986
20
-2.558
11
2.7908
21
-2.56077
0
LINE
8
BLACK
6
CONTINUOUS
10
2.7597
20
-2.5069
11
2.77701
21
-2.53688
0
LINE
8
BLACK
6
CONTINUOUS
10
2.77701
20
-2.53688
11
2.77701
21
-2.53688
0
LINE
8
BLACK
6
CONTINUOUS
10
2.77701
20
-2.53688
11
2.77894
21
-2.53909
0
LINE
8
BLACK
6
CONTINUOUS
10
2.77894
20
-2.53909
11
2.78246
21
-2.54082
0
LINE
8
BLACK
6
CONTINUOUS
10
2.78246
20
-2.54082
11
2.78638
21
-2.54108
0
LINE
8
BLACK
6
CONTINUOUS
10
2.78638
20
-2.54108
11
2.78915
21
-2.54014
0
LINE
8
BLACK
6
CONTINUOUS
10
2.78915
20
-2.54014
11
2.81641
21
-2.5244
0
LINE
8
BLACK
6
CONTINUOUS
10
2.81641
20
-2.5244
11
2.81765
21
-2.52331
0
LINE
8
BLACK
6
CONTINUOUS
10
2.81765
20
-2.52331
11
2.8193
21
-2.52236
0
LINE
8
BLACK
6
CONTINUOUS
10
2.8193
20
-2.52236
11
2.82086
21
-2.52183
0
LINE
8
BLACK
6
CONTINUOUS
10
2.82086
20
-2.52183
11
2.83959
21
-2.51102
0
LINE
8
BLACK
6
CONTINUOUS
10
2.83959
20
-2.51102
11
2.84083
21
-2.50993
0
LINE
8
BLACK
6
CONTINUOUS
10
2.84083
20
-2.50993
11
2.84248
21
-2.50898
0
LINE
8
BLACK
6
CONTINUOUS
10
2.84248
20
-2.50898
11
2.84405
21
-2.50845
0
LINE
8
BLACK
6
CONTINUOUS
10
2.84405
20
-2.50845
11
2.8713
21
-2.49271
0
LINE
8
BLACK
6
CONTINUOUS
10
2.8713
20
-2.49271
11
2.87351
21
-2.49078
0
LINE
8
BLACK
6
CONTINUOUS
10
2.87351
20
-2.49078
11
2.87524
21
-2.48726
0
LINE
8
BLACK
6
CONTINUOUS
10
2.87524
20
-2.48726
11
2.8755
21
-2.48334
0
LINE
8
BLACK
6
CONTINUOUS
10
2.8755
20
-2.48334
11
2.87455
21
-2.48057
0
LINE
8
BLACK
6
CONTINUOUS
10
2.87455
20
-2.48057
11
2.85724
21
-2.45058
0
LINE
8
BLACK
6
CONTINUOUS
10
2.85724
20
-2.45058
11
2.85531
21
-2.44838
0
LINE
8
BLACK
6
CONTINUOUS
10
2.85531
20
-2.44838
11
2.85531
21
-2.44838
0
LINE
8
BLACK
6
CONTINUOUS
10
2.85531
20
-2.44838
11
2.85467
21
-2.44765
0
LINE
8
BLACK
6
CONTINUOUS
10
2.85467
20
-2.44765
11
2.85478
21
-2.44755
0
LINE
8
BLACK
6
CONTINUOUS
10
2.85478
20
-2.44755
11
2.85406
21
-2.4469
0
LINE
8
BLACK
6
CONTINUOUS
10
2.85406
20
-2.4469
11
2.85337
21
-2.44438
0
LINE
8
BLACK
6
CONTINUOUS
10
2.85337
20
-2.44438
11
2.85337
21
-2.3622
0
LINE
8
BLACK
6
CONTINUOUS
10
2.85337
20
-2.3622
11
2.85337
21
-2.28003
0
LINE
8
BLACK
6
CONTINUOUS
10
2.85337
20
-2.28003
11
2.85414
21
-2.27739
0
LINE
8
BLACK
6
CONTINUOUS
10
2.85414
20
-2.27739
11
2.85476
21
-2.27684
0
LINE
8
BLACK
6
CONTINUOUS
10
2.85476
20
-2.27684
11
2.85467
21
-2.27676
0
LINE
8
BLACK
6
CONTINUOUS
10
2.85467
20
-2.27676
11
2.85635
21
-2.27485
0
LINE
8
BLACK
6
CONTINUOUS
10
2.85635
20
-2.27485
11
2.85724
21
-2.27383
0
LINE
8
BLACK
6
CONTINUOUS
10
2.85724
20
-2.27383
11
2.87455
21
-2.24384
0
LINE
8
BLACK
6
CONTINUOUS
10
2.87455
20
-2.24384
11
2.8755
21
-2.24107
0
LINE
8
BLACK
6
CONTINUOUS
10
2.8755
20
-2.24107
11
2.87524
21
-2.23715
0
LINE
8
BLACK
6
CONTINUOUS
10
2.87524
20
-2.23715
11
2.87351
21
-2.23363
0
LINE
8
BLACK
6
CONTINUOUS
10
2.87351
20
-2.23363
11
2.8713
21
-2.2317
0
LINE
8
BLACK
6
CONTINUOUS
10
2.8713
20
-2.2317
11
2.8713
21
-2.2317
0
LINE
8
BLACK
6
CONTINUOUS
10
2.8713
20
-2.2317
11
2.84405
21
-2.21596
0
LINE
8
BLACK
6
CONTINUOUS
10
2.84405
20
-2.21596
11
2.84248
21
-2.21543
0
LINE
8
BLACK
6
CONTINUOUS
10
2.84248
20
-2.21543
11
2.84083
21
-2.21448
0
LINE
8
BLACK
6
CONTINUOUS
10
2.84083
20
-2.21448
11
2.83959
21
-2.21339
0
LINE
8
BLACK
6
CONTINUOUS
10
2.83959
20
-2.21339
11
2.82086
21
-2.20258
0
LINE
8
BLACK
6
CONTINUOUS
10
2.82086
20
-2.20258
11
2.8193
21
-2.20205
0
LINE
8
BLACK
6
CONTINUOUS
10
2.8193
20
-2.20205
11
2.81765
21
-2.20109
0
LINE
8
BLACK
6
CONTINUOUS
10
2.81765
20
-2.20109
11
2.81641
21
-2.20001
0
LINE
8
BLACK
6
CONTINUOUS
10
2.81641
20
-2.20001
11
2.78915
21
-2.18427
0
LINE
8
BLACK
6
CONTINUOUS
10
2.78915
20
-2.18427
11
2.78638
21
-2.18333
0
LINE
8
BLACK
6
CONTINUOUS
10
2.78638
20
-2.18333
11
2.78246
21
-2.18358
0
LINE
8
BLACK
6
CONTINUOUS
10
2.78246
20
-2.18358
11
2.77894
21
-2.18532
0
LINE
8
BLACK
6
CONTINUOUS
10
2.77894
20
-2.18532
11
2.77701
21
-2.18753
0
LINE
8
BLACK
6
CONTINUOUS
10
2.77701
20
-2.18753
11
2.7597
21
-2.21751
0
LINE
8
BLACK
6
CONTINUOUS
10
2.7597
20
-2.21751
11
2.75957
21
-2.21788
0
LINE
8
BLACK
6
CONTINUOUS
10
2.75957
20
-2.21788
11
2.75875
21
-2.22028
0
LINE
8
BLACK
6
CONTINUOUS
10
2.75875
20
-2.22028
11
2.75888
21
-2.22216
0
LINE
8
BLACK
6
CONTINUOUS
10
2.75888
20
-2.22216
11
2.75901
21
-2.2242
0
LINE
8
BLACK
6
CONTINUOUS
10
2.75901
20
-2.2242
11
2.76075
21
-2.22772
0
LINE
8
BLACK
6
CONTINUOUS
10
2.76075
20
-2.22772
11
2.76308
21
-2.22977
0
LINE
8
BLACK
6
CONTINUOUS
10
2.76308
20
-2.22977
11
2.76455
21
-2.23209
0
LINE
8
BLACK
6
CONTINUOUS
10
2.76455
20
-2.23209
11
2.76474
21
-2.23344
0
LINE
8
BLACK
6
CONTINUOUS
10
2.76474
20
-2.23344
11
2.76474
21
-2.49097
0
LINE
8
BLACK
6
CONTINUOUS
10
2.76474
20
-2.49097
11
2.76397
21
-2.49361
0
LINE
8
BLACK
6
CONTINUOUS
10
2.76397
20
-2.49361
11
2.76308
21
-2.49464
0
LINE
8
BLACK
6
CONTINUOUS
10
2.76308
20
-2.49464
11
2.76075
21
-2.49669
0
LINE
8
BLACK
6
CONTINUOUS
10
2.76075
20
-2.49669
11
2.75901
21
-2.50021
0
LINE
8
BLACK
6
CONTINUOUS
10
2.75901
20
-2.50021
11
2.75875
21
-2.50413
0
LINE
8
BLACK
6
CONTINUOUS
10
2.75875
20
-2.50413
11
2.7597
21
-2.5069
0
LINE
8
BLACK
6
CONTINUOUS
10
2.90924
20
-2.3623
11
2.91001
21
-2.38145
0
LINE
8
BLACK
6
CONTINUOUS
10
2.91001
20
-2.38145
11
2.91001
21
-2.38145
0
LINE
8
BLACK
6
CONTINUOUS
10
2.91001
20
-2.38145
11
2.91001
21
-2.38155
0
LINE
8
BLACK
6
CONTINUOUS
10
2.91001
20
-2.38155
11
2.91003
21
-2.38164
0
LINE
8
BLACK
6
CONTINUOUS
10
2.91003
20
-2.38164
11
2.91003
21
-2.38164
0
LINE
8
BLACK
6
CONTINUOUS
10
2.91003
20
-2.38164
11
2.91234
21
-2.40067
0
LINE
8
BLACK
6
CONTINUOUS
10
2.91234
20
-2.40067
11
2.91234
21
-2.40067
0
LINE
8
BLACK
6
CONTINUOUS
10
2.91234
20
-2.40067
11
2.91235
21
-2.40076
0
LINE
8
BLACK
6
CONTINUOUS
10
2.91235
20
-2.40076
11
2.91237
21
-2.40086
0
LINE
8
BLACK
6
CONTINUOUS
10
2.91237
20
-2.40086
11
2.91237
21
-2.40086
0
LINE
8
BLACK
6
CONTINUOUS
10
2.91237
20
-2.40086
11
2.9162
21
-2.41963
0
LINE
8
BLACK
6
CONTINUOUS
10
2.9162
20
-2.41963
11
2.91622
21
-2.41973
0
LINE
8
BLACK
6
CONTINUOUS
10
2.91622
20
-2.41973
11
2.91625
21
-2.41982
0
LINE
8
BLACK
6
CONTINUOUS
10
2.91625
20
-2.41982
11
2.91625
21
-2.41982
0
LINE
8
BLACK
6
CONTINUOUS
10
2.91625
20
-2.41982
11
2.9207
21
-2.43521
0
LINE
8
BLACK
6
CONTINUOUS
10
2.9207
20
-2.43521
11
2.9216
21
-2.43832
0
LINE
8
BLACK
6
CONTINUOUS
10
2.9216
20
-2.43832
11
2.92164
21
-2.43841
0
LINE
8
BLACK
6
CONTINUOUS
10
2.92164
20
-2.43841
11
2.92164
21
-2.43841
0
LINE
8
BLACK
6
CONTINUOUS
10
2.92164
20
-2.43841
11
2.92542
21
-2.44838
0
LINE
8
BLACK
6
CONTINUOUS
10
2.92542
20
-2.44838
11
2.92847
21
-2.45642
0
LINE
8
BLACK
6
CONTINUOUS
10
2.92847
20
-2.45642
11
2.92851
21
-2.45651
0
LINE
8
BLACK
6
CONTINUOUS
10
2.92851
20
-2.45651
11
2.92851
21
-2.45651
0
LINE
8
BLACK
6
CONTINUOUS
10
2.92851
20
-2.45651
11
2.93673
21
-2.47382
0
LINE
8
BLACK
6
CONTINUOUS
10
2.93673
20
-2.47382
11
2.93673
21
-2.47382
0
LINE
8
BLACK
6
CONTINUOUS
10
2.93673
20
-2.47382
11
2.93677
21
-2.47391
0
LINE
8
BLACK
6
CONTINUOUS
10
2.93677
20
-2.47391
11
2.93682
21
-2.474
0
LINE
8
BLACK
6
CONTINUOUS
10
2.93682
20
-2.474
11
2.93682
21
-2.474
0
LINE
8
BLACK
6
CONTINUOUS
10
2.93682
20
-2.474
11
2.94447
21
-2.48726
0
LINE
8
BLACK
6
CONTINUOUS
10
2.94447
20
-2.48726
11
2.94645
21
-2.49068
0
LINE
8
BLACK
6
CONTINUOUS
10
2.94645
20
-2.49068
11
2.9465
21
-2.49076
0
LINE
8
BLACK
6
CONTINUOUS
10
2.9465
20
-2.49076
11
2.9465
21
-2.49076
0
LINE
8
BLACK
6
CONTINUOUS
10
2.9465
20
-2.49076
11
2.95739
21
-2.50653
0
LINE
8
BLACK
6
CONTINUOUS
10
2.95739
20
-2.50653
11
2.95744
21
-2.50661
0
LINE
8
BLACK
6
CONTINUOUS
10
2.95744
20
-2.50661
11
2.96969
21
-2.5216
0
LINE
8
BLACK
6
CONTINUOUS
10
2.96969
20
-2.5216
11
2.98309
21
-2.53556
0
LINE
8
BLACK
6
CONTINUOUS
10
2.98309
20
-2.53556
11
2.98317
21
-2.53563
0
LINE
8
BLACK
6
CONTINUOUS
10
2.98317
20
-2.53563
11
2.98317
21
-2.53563
0
LINE
8
BLACK
6
CONTINUOUS
10
2.98317
20
-2.53563
11
2.99068
21
-2.54228
0
LINE
8
BLACK
6
CONTINUOUS
10
2.99068
20
-2.54228
11
2.99758
21
-2.5484
0
LINE
8
BLACK
6
CONTINUOUS
10
2.99758
20
-2.5484
11
2.99766
21
-2.54846
0
LINE
8
BLACK
6
CONTINUOUS
10
2.99766
20
-2.54846
11
2.99766
21
-2.54846
0
LINE
8
BLACK
6
CONTINUOUS
10
2.99766
20
-2.54846
11
3.01298
21
-2.55997
0
LINE
8
BLACK
6
CONTINUOUS
10
3.01298
20
-2.55997
11
3.01298
21
-2.55997
0
LINE
8
BLACK
6
CONTINUOUS
10
3.01298
20
-2.55997
11
3.01306
21
-2.56003
0
LINE
8
BLACK
6
CONTINUOUS
10
3.01306
20
-2.56003
11
3.02942
21
-2.57037
0
LINE
8
BLACK
6
CONTINUOUS
10
3.02942
20
-2.57037
11
3.04656
21
-2.57937
0
LINE
8
BLACK
6
CONTINUOUS
10
3.04656
20
-2.57937
11
3.06437
21
-2.58696
0
LINE
8
BLACK
6
CONTINUOUS
10
3.06437
20
-2.58696
11
3.08273
21
-2.59309
0
LINE
8
BLACK
6
CONTINUOUS
10
3.08273
20
-2.59309
11
3.10153
21
-2.59772
0
LINE
8
BLACK
6
CONTINUOUS
10
3.10153
20
-2.59772
11
3.12063
21
-2.60082
0
LINE
8
BLACK
6
CONTINUOUS
10
3.12063
20
-2.60082
11
3.13993
21
-2.60238
0
LINE
8
BLACK
6
CONTINUOUS
10
3.13993
20
-2.60238
11
3.14003
21
-2.60238
0
LINE
8
BLACK
6
CONTINUOUS
10
3.14003
20
-2.60238
11
3.15919
21
-2.60238
0
LINE
8
BLACK
6
CONTINUOUS
10
3.15919
20
-2.60238
11
3.15929
21
-2.60238
0
LINE
8
BLACK
6
CONTINUOUS
10
3.15929
20
-2.60238
11
3.17858
21
-2.60082
0
LINE
8
BLACK
6
CONTINUOUS
10
3.17858
20
-2.60082
11
3.19769
21
-2.59772
0
LINE
8
BLACK
6
CONTINUOUS
10
3.19769
20
-2.59772
11
3.21648
21
-2.59309
0
LINE
8
BLACK
6
CONTINUOUS
10
3.21648
20
-2.59309
11
3.23484
21
-2.58696
0
LINE
8
BLACK
6
CONTINUOUS
10
3.23484
20
-2.58696
11
3.25265
21
-2.57937
0
LINE
8
BLACK
6
CONTINUOUS
10
3.25265
20
-2.57937
11
3.26979
21
-2.57037
0
LINE
8
BLACK
6
CONTINUOUS
10
3.26979
20
-2.57037
11
3.28615
21
-2.56003
0
LINE
8
BLACK
6
CONTINUOUS
10
3.28615
20
-2.56003
11
3.30163
21
-2.5484
0
LINE
8
BLACK
6
CONTINUOUS
10
3.30163
20
-2.5484
11
3.31612
21
-2.53556
0
LINE
8
BLACK
6
CONTINUOUS
10
3.31612
20
-2.53556
11
3.32953
21
-2.5216
0
LINE
8
BLACK
6
CONTINUOUS
10
3.32953
20
-2.5216
11
3.34177
21
-2.50661
0
LINE
8
BLACK
6
CONTINUOUS
10
3.34177
20
-2.50661
11
3.35277
21
-2.49068
0
LINE
8
BLACK
6
CONTINUOUS
10
3.35277
20
-2.49068
11
3.36245
21
-2.47391
0
LINE
8
BLACK
6
CONTINUOUS
10
3.36245
20
-2.47391
11
3.37074
21
-2.45642
0
LINE
8
BLACK
6
CONTINUOUS
10
3.37074
20
-2.45642
11
3.37761
21
-2.43832
0
LINE
8
BLACK
6
CONTINUOUS
10
3.37761
20
-2.43832
11
3.38299
21
-2.41973
0
LINE
8
BLACK
6
CONTINUOUS
10
3.38299
20
-2.41973
11
3.38687
21
-2.40076
0
LINE
8
BLACK
6
CONTINUOUS
10
3.38687
20
-2.40076
11
3.3892
21
-2.38155
0
LINE
8
BLACK
6
CONTINUOUS
10
3.3892
20
-2.38155
11
3.38998
21
-2.3622
0
LINE
8
BLACK
6
CONTINUOUS
10
3.38998
20
-2.3622
11
3.3892
21
-2.34286
0
LINE
8
BLACK
6
CONTINUOUS
10
3.3892
20
-2.34286
11
3.38687
21
-2.32365
0
LINE
8
BLACK
6
CONTINUOUS
10
3.38687
20
-2.32365
11
3.38299
21
-2.30468
0
LINE
8
BLACK
6
CONTINUOUS
10
3.38299
20
-2.30468
11
3.37761
21
-2.28609
0
LINE
8
BLACK
6
CONTINUOUS
10
3.37761
20
-2.28609
11
3.37074
21
-2.26799
0
LINE
8
BLACK
6
CONTINUOUS
10
3.37074
20
-2.26799
11
3.3625
21
-2.25061
0
LINE
8
BLACK
6
CONTINUOUS
10
3.3625
20
-2.25061
11
3.36249
21
-2.25059
0
LINE
8
BLACK
6
CONTINUOUS
10
3.36249
20
-2.25059
11
3.36249
21
-2.25059
0
LINE
8
BLACK
6
CONTINUOUS
10
3.36249
20
-2.25059
11
3.36245
21
-2.2505
0
LINE
8
BLACK
6
CONTINUOUS
10
3.36245
20
-2.2505
11
3.357
21
-2.24107
0
LINE
8
BLACK
6
CONTINUOUS
10
3.357
20
-2.24107
11
3.35277
21
-2.23373
0
LINE
8
BLACK
6
CONTINUOUS
10
3.35277
20
-2.23373
11
3.3527
21
-2.23363
0
LINE
8
BLACK
6
CONTINUOUS
10
3.3527
20
-2.23363
11
3.34183
21
-2.21788
0
LINE
8
BLACK
6
CONTINUOUS
10
3.34183
20
-2.21788
11
3.34177
21
-2.2178
0
LINE
8
BLACK
6
CONTINUOUS
10
3.34177
20
-2.2178
11
3.32953
21
-2.20281
0
LINE
8
BLACK
6
CONTINUOUS
10
3.32953
20
-2.20281
11
3.31612
21
-2.18885
0
LINE
8
BLACK
6
CONTINUOUS
10
3.31612
20
-2.18885
11
3.31463
21
-2.18753
0
LINE
8
BLACK
6
CONTINUOUS
10
3.31463
20
-2.18753
11
3.3017
21
-2.17608
0
LINE
8
BLACK
6
CONTINUOUS
10
3.3017
20
-2.17608
11
3.3017
21
-2.17608
0
LINE
8
BLACK
6
CONTINUOUS
10
3.3017
20
-2.17608
11
3.30163
21
-2.17601
0
LINE
8
BLACK
6
CONTINUOUS
10
3.30163
20
-2.17601
11
3.30155
21
-2.17595
0
LINE
8
BLACK
6
CONTINUOUS
10
3.30155
20
-2.17595
11
3.30155
21
-2.17595
0
LINE
8
BLACK
6
CONTINUOUS
10
3.30155
20
-2.17595
11
3.28623
21
-2.16444
0
LINE
8
BLACK
6
CONTINUOUS
10
3.28623
20
-2.16444
11
3.28623
21
-2.16444
0
LINE
8
BLACK
6
CONTINUOUS
10
3.28623
20
-2.16444
11
3.28615
21
-2.16438
0
LINE
8
BLACK
6
CONTINUOUS
10
3.28615
20
-2.16438
11
3.28607
21
-2.16433
0
LINE
8
BLACK
6
CONTINUOUS
10
3.28607
20
-2.16433
11
3.28607
21
-2.16433
0
LINE
8
BLACK
6
CONTINUOUS
10
3.28607
20
-2.16433
11
3.27011
21
-2.15424
0
LINE
8
BLACK
6
CONTINUOUS
10
3.27011
20
-2.15424
11
3.26979
21
-2.15404
0
LINE
8
BLACK
6
CONTINUOUS
10
3.26979
20
-2.15404
11
3.26971
21
-2.15399
0
LINE
8
BLACK
6
CONTINUOUS
10
3.26971
20
-2.15399
11
3.26971
21
-2.15399
0
LINE
8
BLACK
6
CONTINUOUS
10
3.26971
20
-2.15399
11
3.25274
21
-2.14509
0
LINE
8
BLACK
6
CONTINUOUS
10
3.25274
20
-2.14509
11
3.25274
21
-2.14509
0
LINE
8
BLACK
6
CONTINUOUS
10
3.25274
20
-2.14509
11
3.25265
21
-2.14504
0
LINE
8
BLACK
6
CONTINUOUS
10
3.25265
20
-2.14504
11
3.25256
21
-2.145
0
LINE
8
BLACK
6
CONTINUOUS
10
3.25256
20
-2.145
11
3.25256
21
-2.145
0
LINE
8
BLACK
6
CONTINUOUS
10
3.25256
20
-2.145
11
3.23493
21
-2.13749
0
LINE
8
BLACK
6
CONTINUOUS
10
3.23493
20
-2.13749
11
3.23493
21
-2.13749
0
LINE
8
BLACK
6
CONTINUOUS
10
3.23493
20
-2.13749
11
3.23484
21
-2.13745
0
LINE
8
BLACK
6
CONTINUOUS
10
3.23484
20
-2.13745
11
3.22488
21
-2.13413
0
LINE
8
BLACK
6
CONTINUOUS
10
3.22488
20
-2.13413
11
3.21657
21
-2.13135
0
LINE
8
BLACK
6
CONTINUOUS
10
3.21657
20
-2.13135
11
3.21657
21
-2.13135
0
LINE
8
BLACK
6
CONTINUOUS
10
3.21657
20
-2.13135
11
3.21648
21
-2.13132
0
LINE
8
BLACK
6
CONTINUOUS
10
3.21648
20
-2.13132
11
3.20995
21
-2.12971
0
LINE
8
BLACK
6
CONTINUOUS
10
3.20995
20
-2.12971
11
3.19778
21
-2.12671
0
LINE
8
BLACK
6
CONTINUOUS
10
3.19778
20
-2.12671
11
3.19778
21
-2.12671
0
LINE
8
BLACK
6
CONTINUOUS
10
3.19778
20
-2.12671
11
3.19769
21
-2.12669
0
LINE
8
BLACK
6
CONTINUOUS
10
3.19769
20
-2.12669
11
3.19759
21
-2.12667
0
LINE
8
BLACK
6
CONTINUOUS
10
3.19759
20
-2.12667
11
3.19759
21
-2.12667
0
LINE
8
BLACK
6
CONTINUOUS
10
3.19759
20
-2.12667
11
3.17868
21
-2.1236
0
LINE
8
BLACK
6
CONTINUOUS
10
3.17868
20
-2.1236
11
3.17868
21
-2.1236
0
LINE
8
BLACK
6
CONTINUOUS
10
3.17868
20
-2.1236
11
3.17858
21
-2.12359
0
LINE
8
BLACK
6
CONTINUOUS
10
3.17858
20
-2.12359
11
3.17848
21
-2.12358
0
LINE
8
BLACK
6
CONTINUOUS
10
3.17848
20
-2.12358
11
3.17848
21
-2.12358
0
LINE
8
BLACK
6
CONTINUOUS
10
3.17848
20
-2.12358
11
3.15938
21
-2.12204
0
LINE
8
BLACK
6
CONTINUOUS
10
3.15938
20
-2.12204
11
3.15938
21
-2.12204
0
LINE
8
BLACK
6
CONTINUOUS
10
3.15938
20
-2.12204
11
3.15929
21
-2.12203
0
LINE
8
BLACK
6
CONTINUOUS
10
3.15929
20
-2.12203
11
3.13993
21
-2.12203
0
LINE
8
BLACK
6
CONTINUOUS
10
3.13993
20
-2.12203
11
3.13983
21
-2.12204
0
LINE
8
BLACK
6
CONTINUOUS
10
3.13983
20
-2.12204
11
3.13983
21
-2.12204
0
LINE
8
BLACK
6
CONTINUOUS
10
3.13983
20
-2.12204
11
3.12073
21
-2.12358
0
LINE
8
BLACK
6
CONTINUOUS
10
3.12073
20
-2.12358
11
3.12073
21
-2.12358
0
LINE
8
BLACK
6
CONTINUOUS
10
3.12073
20
-2.12358
11
3.12063
21
-2.12359
0
LINE
8
BLACK
6
CONTINUOUS
10
3.12063
20
-2.12359
11
3.12054
21
-2.1236
0
LINE
8
BLACK
6
CONTINUOUS
10
3.12054
20
-2.1236
11
3.12054
21
-2.1236
0
LINE
8
BLACK
6
CONTINUOUS
10
3.12054
20
-2.1236
11
3.10162
21
-2.12667
0
LINE
8
BLACK
6
CONTINUOUS
10
3.10162
20
-2.12667
11
3.10162
21
-2.12667
0
LINE
8
BLACK
6
CONTINUOUS
10
3.10162
20
-2.12667
11
3.10153
21
-2.12669
0
LINE
8
BLACK
6
CONTINUOUS
10
3.10153
20
-2.12669
11
3.10143
21
-2.12671
0
LINE
8
BLACK
6
CONTINUOUS
10
3.10143
20
-2.12671
11
3.10143
21
-2.12671
0
LINE
8
BLACK
6
CONTINUOUS
10
3.10143
20
-2.12671
11
3.08283
21
-2.1313
0
LINE
8
BLACK
6
CONTINUOUS
10
3.08283
20
-2.1313
11
3.08283
21
-2.1313
0
LINE
8
BLACK
6
CONTINUOUS
10
3.08283
20
-2.1313
11
3.08273
21
-2.13132
0
LINE
8
BLACK
6
CONTINUOUS
10
3.08273
20
-2.13132
11
3.08264
21
-2.13135
0
LINE
8
BLACK
6
CONTINUOUS
10
3.08264
20
-2.13135
11
3.08264
21
-2.13135
0
LINE
8
BLACK
6
CONTINUOUS
10
3.08264
20
-2.13135
11
3.06446
21
-2.13742
0
LINE
8
BLACK
6
CONTINUOUS
10
3.06446
20
-2.13742
11
3.06437
21
-2.13745
0
LINE
8
BLACK
6
CONTINUOUS
10
3.06437
20
-2.13745
11
3.06428
21
-2.13749
0
LINE
8
BLACK
6
CONTINUOUS
10
3.06428
20
-2.13749
11
3.06428
21
-2.13749
0
LINE
8
BLACK
6
CONTINUOUS
10
3.06428
20
-2.13749
11
3.04665
21
-2.145
0
LINE
8
BLACK
6
CONTINUOUS
10
3.04665
20
-2.145
11
3.04665
21
-2.145
0
LINE
8
BLACK
6
CONTINUOUS
10
3.04665
20
-2.145
11
3.04656
21
-2.14504
0
LINE
8
BLACK
6
CONTINUOUS
10
3.04656
20
-2.14504
11
3.04647
21
-2.14509
0
LINE
8
BLACK
6
CONTINUOUS
10
3.04647
20
-2.14509
11
3.04647
21
-2.14509
0
LINE
8
BLACK
6
CONTINUOUS
10
3.04647
20
-2.14509
11
3.02951
21
-2.15399
0
LINE
8
BLACK
6
CONTINUOUS
10
3.02951
20
-2.15399
11
3.02951
21
-2.15399
0
LINE
8
BLACK
6
CONTINUOUS
10
3.02951
20
-2.15399
11
3.02942
21
-2.15404
0
LINE
8
BLACK
6
CONTINUOUS
10
3.02942
20
-2.15404
11
3.02934
21
-2.15409
0
LINE
8
BLACK
6
CONTINUOUS
10
3.02934
20
-2.15409
11
3.02934
21
-2.15409
0
LINE
8
BLACK
6
CONTINUOUS
10
3.02934
20
-2.15409
11
3.01314
21
-2.16433
0
LINE
8
BLACK
6
CONTINUOUS
10
3.01314
20
-2.16433
11
3.01314
21
-2.16433
0
LINE
8
BLACK
6
CONTINUOUS
10
3.01314
20
-2.16433
11
3.01306
21
-2.16438
0
LINE
8
BLACK
6
CONTINUOUS
10
3.01306
20
-2.16438
11
3.01298
21
-2.16444
0
LINE
8
BLACK
6
CONTINUOUS
10
3.01298
20
-2.16444
11
3.01298
21
-2.16444
0
LINE
8
BLACK
6
CONTINUOUS
10
3.01298
20
-2.16444
11
2.99766
21
-2.17595
0
LINE
8
BLACK
6
CONTINUOUS
10
2.99766
20
-2.17595
11
2.99766
21
-2.17595
0
LINE
8
BLACK
6
CONTINUOUS
10
2.99766
20
-2.17595
11
2.99758
21
-2.17601
0
LINE
8
BLACK
6
CONTINUOUS
10
2.99758
20
-2.17601
11
2.99751
21
-2.17608
0
LINE
8
BLACK
6
CONTINUOUS
10
2.99751
20
-2.17608
11
2.99751
21
-2.17608
0
LINE
8
BLACK
6
CONTINUOUS
10
2.99751
20
-2.17608
11
2.98317
21
-2.18878
0
LINE
8
BLACK
6
CONTINUOUS
10
2.98317
20
-2.18878
11
2.98317
21
-2.18878
0
LINE
8
BLACK
6
CONTINUOUS
10
2.98317
20
-2.18878
11
2.98309
21
-2.18885
0
LINE
8
BLACK
6
CONTINUOUS
10
2.98309
20
-2.18885
11
2.98303
21
-2.18892
0
LINE
8
BLACK
6
CONTINUOUS
10
2.98303
20
-2.18892
11
2.98303
21
-2.18892
0
LINE
8
BLACK
6
CONTINUOUS
10
2.98303
20
-2.18892
11
2.96975
21
-2.20274
0
LINE
8
BLACK
6
CONTINUOUS
10
2.96975
20
-2.20274
11
2.96975
21
-2.20274
0
LINE
8
BLACK
6
CONTINUOUS
10
2.96975
20
-2.20274
11
2.96969
21
-2.20281
0
LINE
8
BLACK
6
CONTINUOUS
10
2.96969
20
-2.20281
11
2.96962
21
-2.20288
0
LINE
8
BLACK
6
CONTINUOUS
10
2.96962
20
-2.20288
11
2.96962
21
-2.20288
0
LINE
8
BLACK
6
CONTINUOUS
10
2.96962
20
-2.20288
11
2.9575
21
-2.21773
0
LINE
8
BLACK
6
CONTINUOUS
10
2.9575
20
-2.21773
11
2.9575
21
-2.21773
0
LINE
8
BLACK
6
CONTINUOUS
10
2.9575
20
-2.21773
11
2.95744
21
-2.2178
0
LINE
8
BLACK
6
CONTINUOUS
10
2.95744
20
-2.2178
11
2.95739
21
-2.21788
0
LINE
8
BLACK
6
CONTINUOUS
10
2.95739
20
-2.21788
11
2.95739
21
-2.21788
0
LINE
8
BLACK
6
CONTINUOUS
10
2.95739
20
-2.21788
11
2.9465
21
-2.23365
0
LINE
8
BLACK
6
CONTINUOUS
10
2.9465
20
-2.23365
11
2.9465
21
-2.23365
0
LINE
8
BLACK
6
CONTINUOUS
10
2.9465
20
-2.23365
11
2.94645
21
-2.23373
0
LINE
8
BLACK
6
CONTINUOUS
10
2.94645
20
-2.23373
11
2.9464
21
-2.23382
0
LINE
8
BLACK
6
CONTINUOUS
10
2.9464
20
-2.23382
11
2.9464
21
-2.23382
0
LINE
8
BLACK
6
CONTINUOUS
10
2.9464
20
-2.23382
11
2.93682
21
-2.25041
0
LINE
8
BLACK
6
CONTINUOUS
10
2.93682
20
-2.25041
11
2.93682
21
-2.25041
0
LINE
8
BLACK
6
CONTINUOUS
10
2.93682
20
-2.25041
11
2.93677
21
-2.2505
0
LINE
8
BLACK
6
CONTINUOUS
10
2.93677
20
-2.2505
11
2.93673
21
-2.25059
0
LINE
8
BLACK
6
CONTINUOUS
10
2.93673
20
-2.25059
11
2.93673
21
-2.25059
0
LINE
8
BLACK
6
CONTINUOUS
10
2.93673
20
-2.25059
11
2.92851
21
-2.2679
0
LINE
8
BLACK
6
CONTINUOUS
10
2.92851
20
-2.2679
11
2.92851
21
-2.2679
0
LINE
8
BLACK
6
CONTINUOUS
10
2.92851
20
-2.2679
11
2.92847
21
-2.26799
0
LINE
8
BLACK
6
CONTINUOUS
10
2.92847
20
-2.26799
11
2.92843
21
-2.26808
0
LINE
8
BLACK
6
CONTINUOUS
10
2.92843
20
-2.26808
11
2.92843
21
-2.26808
0
LINE
8
BLACK
6
CONTINUOUS
10
2.92843
20
-2.26808
11
2.92164
21
-2.28599
0
LINE
8
BLACK
6
CONTINUOUS
10
2.92164
20
-2.28599
11
2.92164
21
-2.286
0
LINE
8
BLACK
6
CONTINUOUS
10
2.92164
20
-2.286
11
2.9216
21
-2.28609
0
LINE
8
BLACK
6
CONTINUOUS
10
2.9216
20
-2.28609
11
2.92158
21
-2.28618
0
LINE
8
BLACK
6
CONTINUOUS
10
2.92158
20
-2.28618
11
2.92158
21
-2.28618
0
LINE
8
BLACK
6
CONTINUOUS
10
2.92158
20
-2.28618
11
2.91625
21
-2.30459
0
LINE
8
BLACK
6
CONTINUOUS
10
2.91625
20
-2.30459
11
2.91625
21
-2.30459
0
LINE
8
BLACK
6
CONTINUOUS
10
2.91625
20
-2.30459
11
2.91622
21
-2.30468
0
LINE
8
BLACK
6
CONTINUOUS
10
2.91622
20
-2.30468
11
2.9162
21
-2.30478
0
LINE
8
BLACK
6
CONTINUOUS
10
2.9162
20
-2.30478
11
2.9162
21
-2.30478
0
LINE
8
BLACK
6
CONTINUOUS
10
2.9162
20
-2.30478
11
2.91237
21
-2.32355
0
LINE
8
BLACK
6
CONTINUOUS
10
2.91237
20
-2.32355
11
2.91237
21
-2.32355
0
LINE
8
BLACK
6
CONTINUOUS
10
2.91237
20
-2.32355
11
2.91235
21
-2.32365
0
LINE
8
BLACK
6
CONTINUOUS
10
2.91235
20
-2.32365
11
2.91234
21
-2.32374
0
LINE
8
BLACK
6
CONTINUOUS
10
2.91234
20
-2.32374
11
2.91234
21
-2.32374
0
LINE
8
BLACK
6
CONTINUOUS
10
2.91234
20
-2.32374
11
2.91003
21
-2.34277
0
LINE
8
BLACK
6
CONTINUOUS
10
2.91003
20
-2.34277
11
2.91003
21
-2.34277
0
LINE
8
BLACK
6
CONTINUOUS
10
2.91003
20
-2.34277
11
2.91001
21
-2.34286
0
LINE
8
BLACK
6
CONTINUOUS
10
2.91001
20
-2.34286
11
2.91001
21
-2.34296
0
LINE
8
BLACK
6
CONTINUOUS
10
2.91001
20
-2.34296
11
2.91001
21
-2.34296
0
LINE
8
BLACK
6
CONTINUOUS
10
2.91001
20
-2.34296
11
2.90924
21
-2.36211
0
LINE
8
BLACK
6
CONTINUOUS
10
2.90924
20
-2.36211
11
2.90923
21
-2.3622
0
LINE
8
BLACK
6
CONTINUOUS
10
2.90923
20
-2.3622
11
2.90924
21
-2.3623
0
LINE
8
BLACK
6
CONTINUOUS
10
3.42466
20
-2.24384
11
3.43865
21
-2.26808
0
LINE
8
BLACK
6
CONTINUOUS
10
3.43865
20
-2.26808
11
3.44197
21
-2.27383
0
LINE
8
BLACK
6
CONTINUOUS
10
3.44197
20
-2.27383
11
3.4439
21
-2.27603
0
LINE
8
BLACK
6
CONTINUOUS
10
3.4439
20
-2.27603
11
3.44742
21
-2.27777
0
LINE
8
BLACK
6
CONTINUOUS
10
3.44742
20
-2.27777
11
3.45134
21
-2.27802
0
LINE
8
BLACK
6
CONTINUOUS
10
3.45134
20
-2.27802
11
3.45411
21
-2.27708
0
LINE
8
BLACK
6
CONTINUOUS
10
3.45411
20
-2.27708
11
3.45411
21
-2.27708
0
LINE
8
BLACK
6
CONTINUOUS
10
3.45411
20
-2.27708
11
3.45457
21
-2.27693
0
LINE
8
BLACK
6
CONTINUOUS
10
3.45457
20
-2.27693
11
3.45461
21
-2.27705
0
LINE
8
BLACK
6
CONTINUOUS
10
3.45461
20
-2.27705
11
3.45652
21
-2.27658
0
LINE
8
BLACK
6
CONTINUOUS
10
3.45652
20
-2.27658
11
3.45912
21
-2.27748
0
LINE
8
BLACK
6
CONTINUOUS
10
3.45912
20
-2.27748
11
3.46058
21
-2.27914
0
LINE
8
BLACK
6
CONTINUOUS
10
3.46058
20
-2.27914
11
3.46107
21
-2.28003
0
LINE
8
BLACK
6
CONTINUOUS
10
3.46107
20
-2.28003
11
3.46121
21
-2.2803
0
LINE
8
BLACK
6
CONTINUOUS
10
3.46121
20
-2.2803
11
3.46131
21
-2.28048
0
LINE
8
BLACK
6
CONTINUOUS
10
3.46131
20
-2.28048
11
3.46235
21
-2.28261
0
LINE
8
BLACK
6
CONTINUOUS
10
3.46235
20
-2.28261
11
3.46235
21
-2.28262
0
LINE
8
BLACK
6
CONTINUOUS
10
3.46235
20
-2.28262
11
3.46258
21
-2.28283
0
LINE
8
BLACK
6
CONTINUOUS
10
3.46258
20
-2.28283
11
3.46258
21
-2.28283
0
LINE
8
BLACK
6
CONTINUOUS
10
3.46258
20
-2.28283
11
3.4641
21
-2.28422
0
LINE
8
BLACK
6
CONTINUOUS
10
3.4641
20
-2.28422
11
3.46424
21
-2.28436
0
LINE
8
BLACK
6
CONTINUOUS
10
3.46424
20
-2.28436
11
3.46448
21
-2.2846
0
LINE
8
BLACK
6
CONTINUOUS
10
3.46448
20
-2.2846
11
3.46512
21
-2.28538
0
LINE
8
BLACK
6
CONTINUOUS
10
3.46512
20
-2.28538
11
3.46535
21
-2.28574
0
LINE
8
BLACK
6
CONTINUOUS
10
3.46535
20
-2.28574
11
3.46633
21
-2.28651
0
LINE
8
BLACK
6
CONTINUOUS
10
3.46633
20
-2.28651
11
3.46679
21
-2.28691
0
LINE
8
BLACK
6
CONTINUOUS
10
3.46679
20
-2.28691
11
3.46679
21
-2.28691
0
LINE
8
BLACK
6
CONTINUOUS
10
3.46679
20
-2.28691
11
3.46746
21
-2.28739
0
LINE
8
BLACK
6
CONTINUOUS
10
3.46746
20
-2.28739
11
3.46762
21
-2.28751
0
LINE
8
BLACK
6
CONTINUOUS
10
3.46762
20
-2.28751
11
3.46949
21
-2.28896
0
LINE
8
BLACK
6
CONTINUOUS
10
3.46949
20
-2.28896
11
3.4695
21
-2.28897
0
LINE
8
BLACK
6
CONTINUOUS
10
3.4695
20
-2.28897
11
3.47085
21
-2.28937
0
LINE
8
BLACK
6
CONTINUOUS
10
3.47085
20
-2.28937
11
3.47177
21
-2.28964
0
LINE
8
BLACK
6
CONTINUOUS
10
3.47177
20
-2.28964
11
3.47196
21
-2.2897
0
LINE
8
BLACK
6
CONTINUOUS
10
3.47196
20
-2.2897
11
3.47391
21
-2.29037
0
LINE
8
BLACK
6
CONTINUOUS
10
3.47391
20
-2.29037
11
3.4742
21
-2.29047
0
LINE
8
BLACK
6
CONTINUOUS
10
3.4742
20
-2.29047
11
3.47421
21
-2.29048
0
LINE
8
BLACK
6
CONTINUOUS
10
3.47421
20
-2.29048
11
3.47452
21
-2.29046
0
LINE
8
BLACK
6
CONTINUOUS
10
3.47452
20
-2.29046
11
3.47452
21
-2.29046
0
LINE
8
BLACK
6
CONTINUOUS
10
3.47452
20
-2.29046
11
3.47658
21
-2.29038
0
LINE
8
BLACK
6
CONTINUOUS
10
3.47658
20
-2.29038
11
3.47678
21
-2.29037
0
LINE
8
BLACK
6
CONTINUOUS
10
3.47678
20
-2.29037
11
3.5452
21
-2.29037
0
LINE
8
BLACK
6
CONTINUOUS
10
3.5452
20
-2.29037
11
3.54621
21
-2.29048
0
LINE
8
BLACK
6
CONTINUOUS
10
3.54621
20
-2.29048
11
3.54636
21
-2.29051
0
LINE
8
BLACK
6
CONTINUOUS
10
3.54636
20
-2.29051
11
3.54662
21
-2.29057
0
LINE
8
BLACK
6
CONTINUOUS
10
3.54662
20
-2.29057
11
3.5478
21
-2.29042
0
LINE
8
BLACK
6
CONTINUOUS
10
3.5478
20
-2.29042
11
3.54786
21
-2.29041
0
LINE
8
BLACK
6
CONTINUOUS
10
3.54786
20
-2.29041
11
3.54847
21
-2.29037
0
LINE
8
BLACK
6
CONTINUOUS
10
3.54847
20
-2.29037
11
3.54847
21
-2.29037
0
LINE
8
BLACK
6
CONTINUOUS
10
3.54847
20
-2.29037
11
3.54847
21
-2.29037
0
LINE
8
BLACK
6
CONTINUOUS
10
3.54847
20
-2.29037
11
3.54928
21
-2.29024
0
LINE
8
BLACK
6
CONTINUOUS
10
3.54928
20
-2.29024
11
3.54947
21
-2.29021
0
LINE
8
BLACK
6
CONTINUOUS
10
3.54947
20
-2.29021
11
3.55152
21
-2.28996
0
LINE
8
BLACK
6
CONTINUOUS
10
3.55152
20
-2.28996
11
3.55152
21
-2.28996
0
LINE
8
BLACK
6
CONTINUOUS
10
3.55152
20
-2.28996
11
3.55183
21
-2.28992
0
LINE
8
BLACK
6
CONTINUOUS
10
3.55183
20
-2.28992
11
3.55184
21
-2.28991
0
LINE
8
BLACK
6
CONTINUOUS
10
3.55184
20
-2.28991
11
3.55211
21
-2.28977
0
LINE
8
BLACK
6
CONTINUOUS
10
3.55211
20
-2.28977
11
3.55211
21
-2.28977
0
LINE
8
BLACK
6
CONTINUOUS
10
3.55211
20
-2.28977
11
3.55392
21
-2.28879
0
LINE
8
BLACK
6
CONTINUOUS
10
3.55392
20
-2.28879
11
3.5541
21
-2.28869
0
LINE
8
BLACK
6
CONTINUOUS
10
3.5541
20
-2.28869
11
3.55595
21
-2.28779
0
LINE
8
BLACK
6
CONTINUOUS
10
3.55595
20
-2.28779
11
3.55595
21
-2.28779
0
LINE
8
BLACK
6
CONTINUOUS
10
3.55595
20
-2.28779
11
3.55623
21
-2.28765
0
LINE
8
BLACK
6
CONTINUOUS
10
3.55623
20
-2.28765
11
3.55624
21
-2.28765
0
LINE
8
BLACK
6
CONTINUOUS
10
3.55624
20
-2.28765
11
3.55645
21
-2.28742
0
LINE
8
BLACK
6
CONTINUOUS
10
3.55645
20
-2.28742
11
3.55645
21
-2.28742
0
LINE
8
BLACK
6
CONTINUOUS
10
3.55645
20
-2.28742
11
3.55785
21
-2.2859
0
LINE
8
BLACK
6
CONTINUOUS
10
3.55785
20
-2.2859
11
3.55798
21
-2.28576
0
LINE
8
BLACK
6
CONTINUOUS
10
3.55798
20
-2.28576
11
3.63166
21
-2.21208
0
LINE
8
BLACK
6
CONTINUOUS
10
3.63166
20
-2.21208
11
3.63408
21
-2.21076
0
LINE
8
BLACK
6
CONTINUOUS
10
3.63408
20
-2.21076
11
3.63511
21
-2.21065
0
LINE
8
BLACK
6
CONTINUOUS
10
3.63511
20
-2.21065
11
3.6409
21
-2.21065
0
LINE
8
BLACK
6
CONTINUOUS
10
3.6409
20
-2.21065
11
3.64694
21
-2.20916
0
LINE
8
BLACK
6
CONTINUOUS
10
3.64694
20
-2.20916
11
3.65245
21
-2.20627
0
LINE
8
BLACK
6
CONTINUOUS
10
3.65245
20
-2.20627
11
3.65711
21
-2.20215
0
LINE
8
BLACK
6
CONTINUOUS
10
3.65711
20
-2.20215
11
3.66064
21
-2.19703
0
LINE
8
BLACK
6
CONTINUOUS
10
3.66064
20
-2.19703
11
3.66284
21
-2.19121
0
LINE
8
BLACK
6
CONTINUOUS
10
3.66284
20
-2.19121
11
3.66359
21
-2.18504
0
LINE
8
BLACK
6
CONTINUOUS
10
3.66359
20
-2.18504
11
3.66284
21
-2.17887
0
LINE
8
BLACK
6
CONTINUOUS
10
3.66284
20
-2.17887
11
3.66064
21
-2.17305
0
LINE
8
BLACK
6
CONTINUOUS
10
3.66064
20
-2.17305
11
3.65711
21
-2.16793
0
LINE
8
BLACK
6
CONTINUOUS
10
3.65711
20
-2.16793
11
3.65245
21
-2.16381
0
LINE
8
BLACK
6
CONTINUOUS
10
3.65245
20
-2.16381
11
3.65193
21
-2.16353
0
LINE
8
BLACK
6
CONTINUOUS
10
3.65193
20
-2.16353
11
3.64694
21
-2.16092
0
LINE
8
BLACK
6
CONTINUOUS
10
3.64694
20
-2.16092
11
3.6409
21
-2.15943
0
LINE
8
BLACK
6
CONTINUOUS
10
3.6409
20
-2.15943
11
3.63469
21
-2.15943
0
LINE
8
BLACK
6
CONTINUOUS
10
3.63469
20
-2.15943
11
3.62865
21
-2.16092
0
LINE
8
BLACK
6
CONTINUOUS
10
3.62865
20
-2.16092
11
3.62314
21
-2.16381
0
LINE
8
BLACK
6
CONTINUOUS
10
3.62314
20
-2.16381
11
3.61848
21
-2.16793
0
LINE
8
BLACK
6
CONTINUOUS
10
3.61848
20
-2.16793
11
3.61495
21
-2.17305
0
LINE
8
BLACK
6
CONTINUOUS
10
3.61495
20
-2.17305
11
3.61275
21
-2.17887
0
LINE
8
BLACK
6
CONTINUOUS
10
3.61275
20
-2.17887
11
3.612
21
-2.18504
0
LINE
8
BLACK
6
CONTINUOUS
10
3.612
20
-2.18504
11
3.61224
21
-2.18704
0
LINE
8
BLACK
6
CONTINUOUS
10
3.61224
20
-2.18704
11
3.61179
21
-2.18975
0
LINE
8
BLACK
6
CONTINUOUS
10
3.61179
20
-2.18975
11
3.61085
21
-2.19108
0
LINE
8
BLACK
6
CONTINUOUS
10
3.61085
20
-2.19108
11
3.59792
21
-2.20401
0
LINE
8
BLACK
6
CONTINUOUS
10
3.59792
20
-2.20401
11
3.59551
21
-2.20533
0
LINE
8
BLACK
6
CONTINUOUS
10
3.59551
20
-2.20533
11
3.59276
21
-2.20513
0
LINE
8
BLACK
6
CONTINUOUS
10
3.59276
20
-2.20513
11
3.59056
21
-2.20348
0
LINE
8
BLACK
6
CONTINUOUS
10
3.59056
20
-2.20348
11
3.5896
21
-2.2009
0
LINE
8
BLACK
6
CONTINUOUS
10
3.5896
20
-2.2009
11
3.58959
21
-2.20056
0
LINE
8
BLACK
6
CONTINUOUS
10
3.58959
20
-2.20056
11
3.58959
21
-2.12568
0
LINE
8
BLACK
6
CONTINUOUS
10
3.58959
20
-2.12568
11
3.59036
21
-2.12304
0
LINE
8
BLACK
6
CONTINUOUS
10
3.59036
20
-2.12304
11
3.59123
21
-2.12202
0
LINE
8
BLACK
6
CONTINUOUS
10
3.59123
20
-2.12202
11
3.59411
21
-2.11947
0
LINE
8
BLACK
6
CONTINUOUS
10
3.59411
20
-2.11947
11
3.59765
21
-2.11435
0
LINE
8
BLACK
6
CONTINUOUS
10
3.59765
20
-2.11435
11
3.59985
21
-2.10854
0
LINE
8
BLACK
6
CONTINUOUS
10
3.59985
20
-2.10854
11
3.6006
21
-2.10236
0
LINE
8
BLACK
6
CONTINUOUS
10
3.6006
20
-2.10236
11
3.59985
21
-2.09619
0
LINE
8
BLACK
6
CONTINUOUS
10
3.59985
20
-2.09619
11
3.59765
21
-2.09037
0
LINE
8
BLACK
6
CONTINUOUS
10
3.59765
20
-2.09037
11
3.5951
21
-2.08668
0
LINE
8
BLACK
6
CONTINUOUS
10
3.5951
20
-2.08668
11
3.59411
21
-2.08525
0
LINE
8
BLACK
6
CONTINUOUS
10
3.59411
20
-2.08525
11
3.59339
21
-2.08461
0
LINE
8
BLACK
6
CONTINUOUS
10
3.59339
20
-2.08461
11
3.59088
21
-2.08239
0
LINE
8
BLACK
6
CONTINUOUS
10
3.59088
20
-2.08239
11
3.58942
21
-2.08006
0
LINE
8
BLACK
6
CONTINUOUS
10
3.58942
20
-2.08006
11
3.58945
21
-2.07731
0
LINE
8
BLACK
6
CONTINUOUS
10
3.58945
20
-2.07731
11
3.59088
21
-2.07509
0
LINE
8
BLACK
6
CONTINUOUS
10
3.59088
20
-2.07509
11
3.59411
21
-2.07223
0
LINE
8
BLACK
6
CONTINUOUS
10
3.59411
20
-2.07223
11
3.59765
21
-2.06711
0
LINE
8
BLACK
6
CONTINUOUS
10
3.59765
20
-2.06711
11
3.59985
21
-2.06129
0
LINE
8
BLACK
6
CONTINUOUS
10
3.59985
20
-2.06129
11
3.6006
21
-2.05512
0
LINE
8
BLACK
6
CONTINUOUS
10
3.6006
20
-2.05512
11
3.59985
21
-2.04894
0
LINE
8
BLACK
6
CONTINUOUS
10
3.59985
20
-2.04894
11
3.59765
21
-2.04313
0
LINE
8
BLACK
6
CONTINUOUS
10
3.59765
20
-2.04313
11
3.59411
21
-2.03801
0
LINE
8
BLACK
6
CONTINUOUS
10
3.59411
20
-2.03801
11
3.58946
21
-2.03389
0
LINE
8
BLACK
6
CONTINUOUS
10
3.58946
20
-2.03389
11
3.58894
21
-2.03361
0
LINE
8
BLACK
6
CONTINUOUS
10
3.58894
20
-2.03361
11
3.58395
21
-2.031
0
LINE
8
BLACK
6
CONTINUOUS
10
3.58395
20
-2.031
11
3.57791
21
-2.02951
0
LINE
8
BLACK
6
CONTINUOUS
10
3.57791
20
-2.02951
11
3.57169
21
-2.02951
0
LINE
8
BLACK
6
CONTINUOUS
10
3.57169
20
-2.02951
11
3.56565
21
-2.031
0
LINE
8
BLACK
6
CONTINUOUS
10
3.56565
20
-2.031
11
3.56015
21
-2.03389
0
LINE
8
BLACK
6
CONTINUOUS
10
3.56015
20
-2.03389
11
3.55549
21
-2.03801
0
LINE
8
BLACK
6
CONTINUOUS
10
3.55549
20
-2.03801
11
3.55196
21
-2.04313
0
LINE
8
BLACK
6
CONTINUOUS
10
3.55196
20
-2.04313
11
3.54975
21
-2.04894
0
LINE
8
BLACK
6
CONTINUOUS
10
3.54975
20
-2.04894
11
3.549
21
-2.05512
0
LINE
8
BLACK
6
CONTINUOUS
10
3.549
20
-2.05512
11
3.54925
21
-2.05712
0
LINE
8
BLACK
6
CONTINUOUS
10
3.54925
20
-2.05712
11
3.5488
21
-2.05983
0
LINE
8
BLACK
6
CONTINUOUS
10
3.5488
20
-2.05983
11
3.54785
21
-2.06116
0
LINE
8
BLACK
6
CONTINUOUS
10
3.54785
20
-2.06116
11
3.53725
21
-2.07177
0
LINE
8
BLACK
6
CONTINUOUS
10
3.53725
20
-2.07177
11
3.53647
21
-2.0724
0
LINE
8
BLACK
6
CONTINUOUS
10
3.53647
20
-2.0724
11
3.53611
21
-2.07263
0
LINE
8
BLACK
6
CONTINUOUS
10
3.53611
20
-2.07263
11
3.53534
21
-2.07362
0
LINE
8
BLACK
6
CONTINUOUS
10
3.53534
20
-2.07362
11
3.53494
21
-2.07407
0
LINE
8
BLACK
6
CONTINUOUS
10
3.53494
20
-2.07407
11
3.53494
21
-2.07407
0
LINE
8
BLACK
6
CONTINUOUS
10
3.53494
20
-2.07407
11
3.53494
21
-2.07407
0
LINE
8
BLACK
6
CONTINUOUS
10
3.53494
20
-2.07407
11
3.53494
21
-2.07407
0
LINE
8
BLACK
6
CONTINUOUS
10
3.53494
20
-2.07407
11
3.53446
21
-2.07474
0
LINE
8
BLACK
6
CONTINUOUS
10
3.53446
20
-2.07474
11
3.53434
21
-2.0749
0
LINE
8
BLACK
6
CONTINUOUS
10
3.53434
20
-2.0749
11
3.53289
21
-2.07677
0
LINE
8
BLACK
6
CONTINUOUS
10
3.53289
20
-2.07677
11
3.53288
21
-2.07678
0
LINE
8
BLACK
6
CONTINUOUS
10
3.53288
20
-2.07678
11
3.53221
21
-2.07905
0
LINE
8
BLACK
6
CONTINUOUS
10
3.53221
20
-2.07905
11
3.53215
21
-2.07925
0
LINE
8
BLACK
6
CONTINUOUS
10
3.53215
20
-2.07925
11
3.53138
21
-2.08149
0
LINE
8
BLACK
6
CONTINUOUS
10
3.53138
20
-2.08149
11
3.53137
21
-2.0815
0
LINE
8
BLACK
6
CONTINUOUS
10
3.53137
20
-2.0815
11
3.53147
21
-2.08387
0
LINE
8
BLACK
6
CONTINUOUS
10
3.53147
20
-2.08387
11
3.53148
21
-2.08407
0
LINE
8
BLACK
6
CONTINUOUS
10
3.53148
20
-2.08407
11
3.53148
21
-2.17788
0
LINE
8
BLACK
6
CONTINUOUS
10
3.53148
20
-2.17788
11
3.5307
21
-2.18052
0
LINE
8
BLACK
6
CONTINUOUS
10
3.5307
20
-2.18052
11
3.53005
21
-2.18133
0
LINE
8
BLACK
6
CONTINUOUS
10
3.53005
20
-2.18133
11
3.5281
21
-2.18328
0
LINE
8
BLACK
6
CONTINUOUS
10
3.5281
20
-2.18328
11
3.52662
21
-2.18476
0
LINE
8
BLACK
6
CONTINUOUS
10
3.52662
20
-2.18476
11
3.52421
21
-2.18608
0
LINE
8
BLACK
6
CONTINUOUS
10
3.52421
20
-2.18608
11
3.52146
21
-2.18588
0
LINE
8
BLACK
6
CONTINUOUS
10
3.52146
20
-2.18588
11
3.52101
21
-2.18568
0
LINE
8
BLACK
6
CONTINUOUS
10
3.52101
20
-2.18568
11
3.51675
21
-2.18358
0
LINE
8
BLACK
6
CONTINUOUS
10
3.51675
20
-2.18358
11
3.51284
21
-2.18333
0
LINE
8
BLACK
6
CONTINUOUS
10
3.51284
20
-2.18333
11
3.51284
21
-2.18333
0
LINE
8
BLACK
6
CONTINUOUS
10
3.51284
20
-2.18333
11
3.51006
21
-2.18427
0
LINE
8
BLACK
6
CONTINUOUS
10
3.51006
20
-2.18427
11
3.48281
21
-2.20001
0
LINE
8
BLACK
6
CONTINUOUS
10
3.48281
20
-2.20001
11
3.48156
21
-2.20109
0
LINE
8
BLACK
6
CONTINUOUS
10
3.48156
20
-2.20109
11
3.47991
21
-2.20205
0
LINE
8
BLACK
6
CONTINUOUS
10
3.47991
20
-2.20205
11
3.47835
21
-2.20258
0
LINE
8
BLACK
6
CONTINUOUS
10
3.47835
20
-2.20258
11
3.45962
21
-2.21339
0
LINE
8
BLACK
6
CONTINUOUS
10
3.45962
20
-2.21339
11
3.45838
21
-2.21448
0
LINE
8
BLACK
6
CONTINUOUS
10
3.45838
20
-2.21448
11
3.45673
21
-2.21543
0
LINE
8
BLACK
6
CONTINUOUS
10
3.45673
20
-2.21543
11
3.45517
21
-2.21596
0
LINE
8
BLACK
6
CONTINUOUS
10
3.45517
20
-2.21596
11
3.42791
21
-2.2317
0
LINE
8
BLACK
6
CONTINUOUS
10
3.42791
20
-2.2317
11
3.42571
21
-2.23363
0
LINE
8
BLACK
6
CONTINUOUS
10
3.42571
20
-2.23363
11
3.42397
21
-2.23715
0
LINE
8
BLACK
6
CONTINUOUS
10
3.42397
20
-2.23715
11
3.42372
21
-2.24107
0
LINE
8
BLACK
6
CONTINUOUS
10
3.42372
20
-2.24107
11
3.42466
21
-2.24384
0
LINE
8
BLACK
6
CONTINUOUS
10
2.79011
20
-2.17033
11
2.79185
21
-2.17385
0
LINE
8
BLACK
6
CONTINUOUS
10
2.79185
20
-2.17385
11
2.79405
21
-2.17578
0
LINE
8
BLACK
6
CONTINUOUS
10
2.79405
20
-2.17578
11
2.82131
21
-2.19152
0
LINE
8
BLACK
6
CONTINUOUS
10
2.82131
20
-2.19152
11
2.82287
21
-2.19205
0
LINE
8
BLACK
6
CONTINUOUS
10
2.82287
20
-2.19205
11
2.82452
21
-2.193
0
LINE
8
BLACK
6
CONTINUOUS
10
2.82452
20
-2.193
11
2.82576
21
-2.19409
0
LINE
8
BLACK
6
CONTINUOUS
10
2.82576
20
-2.19409
11
2.84449
21
-2.2049
0
LINE
8
BLACK
6
CONTINUOUS
10
2.84449
20
-2.2049
11
2.84606
21
-2.20543
0
LINE
8
BLACK
6
CONTINUOUS
10
2.84606
20
-2.20543
11
2.84771
21
-2.20639
0
LINE
8
BLACK
6
CONTINUOUS
10
2.84771
20
-2.20639
11
2.84895
21
-2.20747
0
LINE
8
BLACK
6
CONTINUOUS
10
2.84895
20
-2.20747
11
2.87057
21
-2.21996
0
LINE
8
BLACK
6
CONTINUOUS
10
2.87057
20
-2.21996
11
2.87438
21
-2.22216
0
LINE
8
BLACK
6
CONTINUOUS
10
2.87438
20
-2.22216
11
2.8762
21
-2.22321
0
LINE
8
BLACK
6
CONTINUOUS
10
2.8762
20
-2.22321
11
2.87898
21
-2.22415
0
LINE
8
BLACK
6
CONTINUOUS
10
2.87898
20
-2.22415
11
2.88289
21
-2.2239
0
LINE
8
BLACK
6
CONTINUOUS
10
2.88289
20
-2.2239
11
2.88641
21
-2.22216
0
LINE
8
BLACK
6
CONTINUOUS
10
2.88641
20
-2.22216
11
2.88835
21
-2.21996
0
LINE
8
BLACK
6
CONTINUOUS
10
2.88835
20
-2.21996
11
2.90566
21
-2.18997
0
LINE
8
BLACK
6
CONTINUOUS
10
2.90566
20
-2.18997
11
2.9066
21
-2.1872
0
LINE
8
BLACK
6
CONTINUOUS
10
2.9066
20
-2.1872
11
2.90646
21
-2.18512
0
LINE
8
BLACK
6
CONTINUOUS
10
2.90646
20
-2.18512
11
2.90706
21
-2.18244
0
LINE
8
BLACK
6
CONTINUOUS
10
2.90706
20
-2.18244
11
2.90788
21
-2.18135
0
LINE
8
BLACK
6
CONTINUOUS
10
2.90788
20
-2.18135
11
3.03345
21
-2.05578
0
LINE
8
BLACK
6
CONTINUOUS
10
3.03345
20
-2.05578
11
3.03587
21
-2.05446
0
LINE
8
BLACK
6
CONTINUOUS
10
3.03587
20
-2.05446
11
3.03691
21
-2.05435
0
LINE
8
BLACK
6
CONTINUOUS
10
3.03691
20
-2.05435
11
3.08811
21
-2.05435
0
LINE
8
BLACK
6
CONTINUOUS
10
3.08811
20
-2.05435
11
3.09075
21
-2.05513
0
LINE
8
BLACK
6
CONTINUOUS
10
3.09075
20
-2.05513
11
3.09255
21
-2.0572
0
LINE
8
BLACK
6
CONTINUOUS
10
3.09255
20
-2.0572
11
3.09285
21
-2.05814
0
LINE
8
BLACK
6
CONTINUOUS
10
3.09285
20
-2.05814
11
3.09288
21
-2.05818
0
LINE
8
BLACK
6
CONTINUOUS
10
3.09288
20
-2.05818
11
3.09288
21
-2.05818
0
LINE
8
BLACK
6
CONTINUOUS
10
3.09288
20
-2.05818
11
3.09506
21
-2.06144
0
LINE
8
BLACK
6
CONTINUOUS
10
3.09506
20
-2.06144
11
3.09832
21
-2.06362
0
LINE
8
BLACK
6
CONTINUOUS
10
3.09832
20
-2.06362
11
3.09976
21
-2.06391
0
LINE
8
BLACK
6
CONTINUOUS
10
3.09976
20
-2.06391
11
3.10119
21
-2.06419
0
LINE
8
BLACK
6
CONTINUOUS
10
3.10119
20
-2.06419
11
3.10119
21
-2.06419
0
LINE
8
BLACK
6
CONTINUOUS
10
3.10119
20
-2.06419
11
3.13581
21
-2.06419
0
LINE
8
BLACK
6
CONTINUOUS
10
3.13581
20
-2.06419
11
3.13677
21
-2.064
0
LINE
8
BLACK
6
CONTINUOUS
10
3.13677
20
-2.064
11
3.13869
21
-2.06362
0
LINE
8
BLACK
6
CONTINUOUS
10
3.13869
20
-2.06362
11
3.14195
21
-2.06144
0
LINE
8
BLACK
6
CONTINUOUS
10
3.14195
20
-2.06144
11
3.14413
21
-2.05818
0
LINE
8
BLACK
6
CONTINUOUS
10
3.14413
20
-2.05818
11
3.1447
21
-2.0553
0
LINE
8
BLACK
6
CONTINUOUS
10
3.1447
20
-2.0553
11
3.1447
21
-2.02383
0
LINE
8
BLACK
6
CONTINUOUS
10
3.1447
20
-2.02383
11
3.14438
21
-2.02221
0
LINE
8
BLACK
6
CONTINUOUS
10
3.14438
20
-2.02221
11
3.14438
21
-2.02031
0
LINE
8
BLACK
6
CONTINUOUS
10
3.14438
20
-2.02031
11
3.1447
21
-2.01869
0
LINE
8
BLACK
6
CONTINUOUS
10
3.1447
20
-2.01869
11
3.1447
21
-1.99706
0
LINE
8
BLACK
6
CONTINUOUS
10
3.1447
20
-1.99706
11
3.14438
21
-1.99544
0
LINE
8
BLACK
6
CONTINUOUS
10
3.14438
20
-1.99544
11
3.14438
21
-1.99354
0
LINE
8
BLACK
6
CONTINUOUS
10
3.14438
20
-1.99354
11
3.1447
21
-1.99192
0
LINE
8
BLACK
6
CONTINUOUS
10
3.1447
20
-1.99192
11
3.1447
21
-1.96045
0
LINE
8
BLACK
6
CONTINUOUS
10
3.1447
20
-1.96045
11
3.14413
21
-1.95757
0
LINE
8
BLACK
6
CONTINUOUS
10
3.14413
20
-1.95757
11
3.14195
21
-1.95431
0
LINE
8
BLACK
6
CONTINUOUS
10
3.14195
20
-1.95431
11
3.13869
21
-1.95213
0
LINE
8
BLACK
6
CONTINUOUS
10
3.13869
20
-1.95213
11
3.13869
21
-1.95213
0
LINE
8
BLACK
6
CONTINUOUS
10
3.13869
20
-1.95213
11
3.13869
21
-1.95213
0
LINE
8
BLACK
6
CONTINUOUS
10
3.13869
20
-1.95213
11
3.13581
21
-1.95156
0
LINE
8
BLACK
6
CONTINUOUS
10
3.13581
20
-1.95156
11
3.13581
21
-1.95156
0
LINE
8
BLACK
6
CONTINUOUS
10
3.13581
20
-1.95156
11
3.10119
21
-1.95156
0
LINE
8
BLACK
6
CONTINUOUS
10
3.10119
20
-1.95156
11
3.10119
21
-1.95156
0
LINE
8
BLACK
6
CONTINUOUS
10
3.10119
20
-1.95156
11
3.09832
21
-1.95213
0
LINE
8
BLACK
6
CONTINUOUS
10
3.09832
20
-1.95213
11
3.09832
21
-1.95213
0
LINE
8
BLACK
6
CONTINUOUS
10
3.09832
20
-1.95213
11
3.09832
21
-1.95213
0
LINE
8
BLACK
6
CONTINUOUS
10
3.09832
20
-1.95213
11
3.09506
21
-1.95431
0
LINE
8
BLACK
6
CONTINUOUS
10
3.09506
20
-1.95431
11
3.09288
21
-1.95757
0
LINE
8
BLACK
6
CONTINUOUS
10
3.09288
20
-1.95757
11
3.09288
21
-1.95757
0
LINE
8
BLACK
6
CONTINUOUS
10
3.09288
20
-1.95757
11
3.09272
21
-1.9578
0
LINE
8
BLACK
6
CONTINUOUS
10
3.09272
20
-1.9578
11
3.09162
21
-1.95991
0
LINE
8
BLACK
6
CONTINUOUS
10
3.09162
20
-1.95991
11
3.08923
21
-1.96127
0
LINE
8
BLACK
6
CONTINUOUS
10
3.08923
20
-1.96127
11
3.08811
21
-1.9614
0
LINE
8
BLACK
6
CONTINUOUS
10
3.08811
20
-1.9614
11
3.0076
21
-1.9614
0
LINE
8
BLACK
6
CONTINUOUS
10
3.0076
20
-1.9614
11
3.0066
21
-1.96129
0
LINE
8
BLACK
6
CONTINUOUS
10
3.0066
20
-1.96129
11
3.00618
21
-1.96121
0
LINE
8
BLACK
6
CONTINUOUS
10
3.00618
20
-1.96121
11
3.00618
21
-1.96121
0
LINE
8
BLACK
6
CONTINUOUS
10
3.00618
20
-1.96121
11
3.00547
21
-1.96129
0
LINE
8
BLACK
6
CONTINUOUS
10
3.00547
20
-1.96129
11
3.00494
21
-1.96136
0
LINE
8
BLACK
6
CONTINUOUS
10
3.00494
20
-1.96136
11
3.00434
21
-1.9614
0
LINE
8
BLACK
6
CONTINUOUS
10
3.00434
20
-1.9614
11
3.00433
21
-1.9614
0
LINE
8
BLACK
6
CONTINUOUS
10
3.00433
20
-1.9614
11
3.00353
21
-1.96153
0
LINE
8
BLACK
6
CONTINUOUS
10
3.00353
20
-1.96153
11
3.00333
21
-1.96156
0
LINE
8
BLACK
6
CONTINUOUS
10
3.00333
20
-1.96156
11
3.00097
21
-1.96185
0
LINE
8
BLACK
6
CONTINUOUS
10
3.00097
20
-1.96185
11
3.00096
21
-1.96186
0
LINE
8
BLACK
6
CONTINUOUS
10
3.00096
20
-1.96186
11
2.99888
21
-1.96299
0
LINE
8
BLACK
6
CONTINUOUS
10
2.99888
20
-1.96299
11
2.9987
21
-1.96308
0
LINE
8
BLACK
6
CONTINUOUS
10
2.9987
20
-1.96308
11
2.99657
21
-1.96412
0
LINE
8
BLACK
6
CONTINUOUS
10
2.99657
20
-1.96412
11
2.99656
21
-1.96413
0
LINE
8
BLACK
6
CONTINUOUS
10
2.99656
20
-1.96413
11
2.99496
21
-1.96587
0
LINE
8
BLACK
6
CONTINUOUS
10
2.99496
20
-1.96587
11
2.99482
21
-1.96602
0
LINE
8
BLACK
6
CONTINUOUS
10
2.99482
20
-1.96602
11
2.82936
21
-2.13148
0
LINE
8
BLACK
6
CONTINUOUS
10
2.82936
20
-2.13148
11
2.82694
21
-2.13279
0
LINE
8
BLACK
6
CONTINUOUS
10
2.82694
20
-2.13279
11
2.8242
21
-2.1326
0
LINE
8
BLACK
6
CONTINUOUS
10
2.8242
20
-2.1326
11
2.82346
21
-2.13225
0
LINE
8
BLACK
6
CONTINUOUS
10
2.82346
20
-2.13225
11
2.82025
21
-2.1304
0
LINE
8
BLACK
6
CONTINUOUS
10
2.82025
20
-2.1304
11
2.81748
21
-2.12946
0
LINE
8
BLACK
6
CONTINUOUS
10
2.81748
20
-2.12946
11
2.81356
21
-2.12971
0
LINE
8
BLACK
6
CONTINUOUS
10
2.81356
20
-2.12971
11
2.81004
21
-2.13145
0
LINE
8
BLACK
6
CONTINUOUS
10
2.81004
20
-2.13145
11
2.80811
21
-2.13365
0
LINE
8
BLACK
6
CONTINUOUS
10
2.80811
20
-2.13365
11
2.7908
21
-2.16364
0
LINE
8
BLACK
6
CONTINUOUS
10
2.7908
20
-2.16364
11
2.79006
21
-2.16582
0
LINE
8
BLACK
6
CONTINUOUS
10
2.79006
20
-2.16582
11
2.78986
21
-2.16641
0
LINE
8
BLACK
6
CONTINUOUS
10
2.78986
20
-2.16641
11
2.79011
21
-2.17033
0
LINE
8
BLACK
6
CONTINUOUS
10
3.15508
20
-2.05818
11
3.15508
21
-2.05818
0
LINE
8
BLACK
6
CONTINUOUS
10
3.15508
20
-2.05818
11
3.15508
21
-2.05818
0
LINE
8
BLACK
6
CONTINUOUS
10
3.15508
20
-2.05818
11
3.15726
21
-2.06144
0
LINE
8
BLACK
6
CONTINUOUS
10
3.15726
20
-2.06144
11
3.16052
21
-2.06362
0
LINE
8
BLACK
6
CONTINUOUS
10
3.16052
20
-2.06362
11
3.16196
21
-2.06391
0
LINE
8
BLACK
6
CONTINUOUS
10
3.16196
20
-2.06391
11
3.1634
21
-2.06419
0
LINE
8
BLACK
6
CONTINUOUS
10
3.1634
20
-2.06419
11
3.1634
21
-2.06419
0
LINE
8
BLACK
6
CONTINUOUS
10
3.1634
20
-2.06419
11
3.19802
21
-2.06419
0
LINE
8
BLACK
6
CONTINUOUS
10
3.19802
20
-2.06419
11
3.19898
21
-2.064
0
LINE
8
BLACK
6
CONTINUOUS
10
3.19898
20
-2.064
11
3.2009
21
-2.06362
0
LINE
8
BLACK
6
CONTINUOUS
10
3.2009
20
-2.06362
11
3.20416
21
-2.06144
0
LINE
8
BLACK
6
CONTINUOUS
10
3.20416
20
-2.06144
11
3.20634
21
-2.05818
0
LINE
8
BLACK
6
CONTINUOUS
10
3.20634
20
-2.05818
11
3.20634
21
-2.05818
0
LINE
8
BLACK
6
CONTINUOUS
10
3.20634
20
-2.05818
11
3.20649
21
-2.05795
0
LINE
8
BLACK
6
CONTINUOUS
10
3.20649
20
-2.05795
11
3.20759
21
-2.05584
0
LINE
8
BLACK
6
CONTINUOUS
10
3.20759
20
-2.05584
11
3.20998
21
-2.05448
0
LINE
8
BLACK
6
CONTINUOUS
10
3.20998
20
-2.05448
11
3.21111
21
-2.05435
0
LINE
8
BLACK
6
CONTINUOUS
10
3.21111
20
-2.05435
11
3.26231
21
-2.05435
0
LINE
8
BLACK
6
CONTINUOUS
10
3.26231
20
-2.05435
11
3.26495
21
-2.05513
0
LINE
8
BLACK
6
CONTINUOUS
10
3.26495
20
-2.05513
11
3.26576
21
-2.05578
0
LINE
8
BLACK
6
CONTINUOUS
10
3.26576
20
-2.05578
11
3.39133
21
-2.18135
0
LINE
8
BLACK
6
CONTINUOUS
10
3.39133
20
-2.18135
11
3.39265
21
-2.18376
0
LINE
8
BLACK
6
CONTINUOUS
10
3.39265
20
-2.18376
11
3.39275
21
-2.18512
0
LINE
8
BLACK
6
CONTINUOUS
10
3.39275
20
-2.18512
11
3.39261
21
-2.1872
0
LINE
8
BLACK
6
CONTINUOUS
10
3.39261
20
-2.1872
11
3.39356
21
-2.18997
0
LINE
8
BLACK
6
CONTINUOUS
10
3.39356
20
-2.18997
11
3.40967
21
-2.21788
0
LINE
8
BLACK
6
CONTINUOUS
10
3.40967
20
-2.21788
11
3.41087
21
-2.21996
0
LINE
8
BLACK
6
CONTINUOUS
10
3.41087
20
-2.21996
11
3.4128
21
-2.22216
0
LINE
8
BLACK
6
CONTINUOUS
10
3.4128
20
-2.22216
11
3.41632
21
-2.2239
0
LINE
8
BLACK
6
CONTINUOUS
10
3.41632
20
-2.2239
11
3.42023
21
-2.22415
0
LINE
8
BLACK
6
CONTINUOUS
10
3.42023
20
-2.22415
11
3.42301
21
-2.22321
0
LINE
8
BLACK
6
CONTINUOUS
10
3.42301
20
-2.22321
11
3.45026
21
-2.20747
0
LINE
8
BLACK
6
CONTINUOUS
10
3.45026
20
-2.20747
11
3.45151
21
-2.20639
0
LINE
8
BLACK
6
CONTINUOUS
10
3.45151
20
-2.20639
11
3.45316
21
-2.20543
0
LINE
8
BLACK
6
CONTINUOUS
10
3.45316
20
-2.20543
11
3.45472
21
-2.2049
0
LINE
8
BLACK
6
CONTINUOUS
10
3.45472
20
-2.2049
11
3.47345
21
-2.19409
0
LINE
8
BLACK
6
CONTINUOUS
10
3.47345
20
-2.19409
11
3.47469
21
-2.193
0
LINE
8
BLACK
6
CONTINUOUS
10
3.47469
20
-2.193
11
3.47634
21
-2.19205
0
LINE
8
BLACK
6
CONTINUOUS
10
3.47634
20
-2.19205
11
3.4779
21
-2.19152
0
LINE
8
BLACK
6
CONTINUOUS
10
3.4779
20
-2.19152
11
3.50516
21
-2.17578
0
LINE
8
BLACK
6
CONTINUOUS
10
3.50516
20
-2.17578
11
3.50736
21
-2.17385
0
LINE
8
BLACK
6
CONTINUOUS
10
3.50736
20
-2.17385
11
3.5091
21
-2.17033
0
LINE
8
BLACK
6
CONTINUOUS
10
3.5091
20
-2.17033
11
3.50936
21
-2.16641
0
LINE
8
BLACK
6
CONTINUOUS
10
3.50936
20
-2.16641
11
3.50841
21
-2.16364
0
LINE
8
BLACK
6
CONTINUOUS
10
3.50841
20
-2.16364
11
3.49956
21
-2.1483
0
LINE
8
BLACK
6
CONTINUOUS
10
3.49956
20
-2.1483
11
3.4911
21
-2.13365
0
LINE
8
BLACK
6
CONTINUOUS
10
3.4911
20
-2.13365
11
3.48917
21
-2.13145
0
LINE
8
BLACK
6
CONTINUOUS
10
3.48917
20
-2.13145
11
3.48887
21
-2.1313
0
LINE
8
BLACK
6
CONTINUOUS
10
3.48887
20
-2.1313
11
3.48565
21
-2.12971
0
LINE
8
BLACK
6
CONTINUOUS
10
3.48565
20
-2.12971
11
3.48174
21
-2.12946
0
LINE
8
BLACK
6
CONTINUOUS
10
3.48174
20
-2.12946
11
3.48174
21
-2.12946
0
LINE
8
BLACK
6
CONTINUOUS
10
3.48174
20
-2.12946
11
3.47896
21
-2.1304
0
LINE
8
BLACK
6
CONTINUOUS
10
3.47896
20
-2.1304
11
3.47575
21
-2.13225
0
LINE
8
BLACK
6
CONTINUOUS
10
3.47575
20
-2.13225
11
3.47308
21
-2.1329
0
LINE
8
BLACK
6
CONTINUOUS
10
3.47308
20
-2.1329
11
3.47048
21
-2.132
0
LINE
8
BLACK
6
CONTINUOUS
10
3.47048
20
-2.132
11
3.46986
21
-2.13148
0
LINE
8
BLACK
6
CONTINUOUS
10
3.46986
20
-2.13148
11
3.30555
21
-1.96717
0
LINE
8
BLACK
6
CONTINUOUS
10
3.30555
20
-1.96717
11
3.30491
21
-1.96639
0
LINE
8
BLACK
6
CONTINUOUS
10
3.30491
20
-1.96639
11
3.30468
21
-1.96603
0
LINE
8
BLACK
6
CONTINUOUS
10
3.30468
20
-1.96603
11
3.3037
21
-1.96526
0
LINE
8
BLACK
6
CONTINUOUS
10
3.3037
20
-1.96526
11
3.30324
21
-1.96486
0
LINE
8
BLACK
6
CONTINUOUS
10
3.30324
20
-1.96486
11
3.30324
21
-1.96486
0
LINE
8
BLACK
6
CONTINUOUS
10
3.30324
20
-1.96486
11
3.30257
21
-1.96439
0
LINE
8
BLACK
6
CONTINUOUS
10
3.30257
20
-1.96439
11
3.30241
21
-1.96426
0
LINE
8
BLACK
6
CONTINUOUS
10
3.30241
20
-1.96426
11
3.30079
21
-1.963
0
LINE
8
BLACK
6
CONTINUOUS
10
3.30079
20
-1.963
11
3.30079
21
-1.963
0
LINE
8
BLACK
6
CONTINUOUS
10
3.30079
20
-1.963
11
3.30054
21
-1.96281
0
LINE
8
BLACK
6
CONTINUOUS
10
3.30054
20
-1.96281
11
3.30053
21
-1.9628
0
LINE
8
BLACK
6
CONTINUOUS
10
3.30053
20
-1.9628
11
3.30024
21
-1.96272
0
LINE
8
BLACK
6
CONTINUOUS
10
3.30024
20
-1.96272
11
3.30024
21
-1.96272
0
LINE
8
BLACK
6
CONTINUOUS
10
3.30024
20
-1.96272
11
3.29826
21
-1.96213
0
LINE
8
BLACK
6
CONTINUOUS
10
3.29826
20
-1.96213
11
3.29807
21
-1.96207
0
LINE
8
BLACK
6
CONTINUOUS
10
3.29807
20
-1.96207
11
3.29734
21
-1.96182
0
LINE
8
BLACK
6
CONTINUOUS
10
3.29734
20
-1.96182
11
3.29583
21
-1.9613
0
LINE
8
BLACK
6
CONTINUOUS
10
3.29583
20
-1.9613
11
3.29582
21
-1.9613
0
LINE
8
BLACK
6
CONTINUOUS
10
3.29582
20
-1.9613
11
3.29425
21
-1.96136
0
LINE
8
BLACK
6
CONTINUOUS
10
3.29425
20
-1.96136
11
3.29345
21
-1.96139
0
LINE
8
BLACK
6
CONTINUOUS
10
3.29345
20
-1.96139
11
3.29325
21
-1.9614
0
LINE
8
BLACK
6
CONTINUOUS
10
3.29325
20
-1.9614
11
3.21111
21
-1.9614
0
LINE
8
BLACK
6
CONTINUOUS
10
3.21111
20
-1.9614
11
3.20847
21
-1.96062
0
LINE
8
BLACK
6
CONTINUOUS
10
3.20847
20
-1.96062
11
3.20666
21
-1.95854
0
LINE
8
BLACK
6
CONTINUOUS
10
3.20666
20
-1.95854
11
3.20636
21
-1.95761
0
LINE
8
BLACK
6
CONTINUOUS
10
3.20636
20
-1.95761
11
3.20634
21
-1.95757
0
LINE
8
BLACK
6
CONTINUOUS
10
3.20634
20
-1.95757
11
3.20634
21
-1.95757
0
LINE
8
BLACK
6
CONTINUOUS
10
3.20634
20
-1.95757
11
3.20416
21
-1.95431
0
LINE
8
BLACK
6
CONTINUOUS
10
3.20416
20
-1.95431
11
3.2009
21
-1.95213
0
LINE
8
BLACK
6
CONTINUOUS
10
3.2009
20
-1.95213
11
3.2009
21
-1.95213
0
LINE
8
BLACK
6
CONTINUOUS
10
3.2009
20
-1.95213
11
3.2009
21
-1.95213
0
LINE
8
BLACK
6
CONTINUOUS
10
3.2009
20
-1.95213
11
3.19802
21
-1.95156
0
LINE
8
BLACK
6
CONTINUOUS
10
3.19802
20
-1.95156
11
3.19802
21
-1.95156
0
LINE
8
BLACK
6
CONTINUOUS
10
3.19802
20
-1.95156
11
3.1634
21
-1.95156
0
LINE
8
BLACK
6
CONTINUOUS
10
3.1634
20
-1.95156
11
3.1634
21
-1.95156
0
LINE
8
BLACK
6
CONTINUOUS
10
3.1634
20
-1.95156
11
3.16052
21
-1.95213
0
LINE
8
BLACK
6
CONTINUOUS
10
3.16052
20
-1.95213
11
3.15726
21
-1.95431
0
LINE
8
BLACK
6
CONTINUOUS
10
3.15726
20
-1.95431
11
3.15508
21
-1.95757
0
LINE
8
BLACK
6
CONTINUOUS
10
3.15508
20
-1.95757
11
3.15451
21
-1.96045
0
LINE
8
BLACK
6
CONTINUOUS
10
3.15451
20
-1.96045
11
3.15451
21
-1.99192
0
LINE
8
BLACK
6
CONTINUOUS
10
3.15451
20
-1.99192
11
3.15483
21
-1.99354
0
LINE
8
BLACK
6
CONTINUOUS
10
3.15483
20
-1.99354
11
3.15483
21
-1.99544
0
LINE
8
BLACK
6
CONTINUOUS
10
3.15483
20
-1.99544
11
3.15451
21
-1.99706
0
LINE
8
BLACK
6
CONTINUOUS
10
3.15451
20
-1.99706
11
3.15451
21
-2.01869
0
LINE
8
BLACK
6
CONTINUOUS
10
3.15451
20
-2.01869
11
3.15483
21
-2.02031
0
LINE
8
BLACK
6
CONTINUOUS
10
3.15483
20
-2.02031
11
3.15483
21
-2.02221
0
LINE
8
BLACK
6
CONTINUOUS
10
3.15483
20
-2.02221
11
3.15451
21
-2.02383
0
LINE
8
BLACK
6
CONTINUOUS
10
3.15451
20
-2.02383
11
3.15451
21
-2.0553
0
LINE
8
BLACK
6
CONTINUOUS
10
3.15451
20
-2.0553
11
3.15508
21
-2.05818
0
LINE
8
BLACK
6
CONTINUOUS
10
4.01344
20
-2.15434
11
4.01527
21
-2.1564
0
LINE
8
BLACK
6
CONTINUOUS
10
4.01527
20
-2.1564
11
4.01573
21
-2.15848
0
LINE
8
BLACK
6
CONTINUOUS
10
4.01573
20
-2.15848
11
4.01573
21
-2.8738
0
LINE
8
BLACK
6
CONTINUOUS
10
4.01573
20
-2.8738
11
4.01571
21
-2.87423
0
LINE
8
BLACK
6
CONTINUOUS
10
4.01571
20
-2.87423
11
4.01557
21
-2.8758
0
LINE
8
BLACK
6
CONTINUOUS
10
4.01557
20
-2.8758
11
4.01508
21
-2.88078
0
LINE
8
BLACK
6
CONTINUOUS
10
4.01508
20
-2.88078
11
4.01494
21
-2.88156
0
LINE
8
BLACK
6
CONTINUOUS
10
4.01494
20
-2.88156
11
4.01426
21
-2.88411
0
LINE
8
BLACK
6
CONTINUOUS
10
4.01426
20
-2.88411
11
4.01421
21
-2.88426
0
LINE
8
BLACK
6
CONTINUOUS
10
4.01421
20
-2.88426
11
4.01312
21
-2.88786
0
LINE
8
BLACK
6
CONTINUOUS
10
4.01312
20
-2.88786
11
4.01288
21
-2.8885
0
LINE
8
BLACK
6
CONTINUOUS
10
4.01288
20
-2.8885
11
4.01167
21
-2.8911
0
LINE
8
BLACK
6
CONTINUOUS
10
4.01167
20
-2.8911
11
4.01155
21
-2.89133
0
LINE
8
BLACK
6
CONTINUOUS
10
4.01155
20
-2.89133
11
4.00988
21
-2.89445
0
LINE
8
BLACK
6
CONTINUOUS
10
4.00988
20
-2.89445
11
4.00958
21
-2.89495
0
LINE
8
BLACK
6
CONTINUOUS
10
4.00958
20
-2.89495
11
4.00789
21
-2.89736
0
LINE
8
BLACK
6
CONTINUOUS
10
4.00789
20
-2.89736
11
4.00766
21
-2.89765
0
LINE
8
BLACK
6
CONTINUOUS
10
4.00766
20
-2.89765
11
4.00547
21
-2.90033
0
LINE
8
BLACK
6
CONTINUOUS
10
4.00547
20
-2.90033
11
4.00514
21
-2.90069
0
LINE
8
BLACK
6
CONTINUOUS
10
4.00514
20
-2.90069
11
4.00305
21
-2.90278
0
LINE
8
BLACK
6
CONTINUOUS
10
4.00305
20
-2.90278
11
4.0027
21
-2.9031
0
LINE
8
BLACK
6
CONTINUOUS
10
4.0027
20
-2.9031
11
4.00002
21
-2.9053
0
LINE
8
BLACK
6
CONTINUOUS
10
4.00002
20
-2.9053
11
3.99972
21
-2.90553
0
LINE
8
BLACK
6
CONTINUOUS
10
3.99972
20
-2.90553
11
3.99731
21
-2.90721
0
LINE
8
BLACK
6
CONTINUOUS
10
3.99731
20
-2.90721
11
3.99681
21
-2.90752
0
LINE
8
BLACK
6
CONTINUOUS
10
3.99681
20
-2.90752
11
3.9937
21
-2.90919
0
LINE
8
BLACK
6
CONTINUOUS
10
3.9937
20
-2.90919
11
3.99346
21
-2.9093
0
LINE
8
BLACK
6
CONTINUOUS
10
3.99346
20
-2.9093
11
3.99086
21
-2.91051
0
LINE
8
BLACK
6
CONTINUOUS
10
3.99086
20
-2.91051
11
3.99022
21
-2.91076
0
LINE
8
BLACK
6
CONTINUOUS
10
3.99022
20
-2.91076
11
3.98663
21
-2.91185
0
LINE
8
BLACK
6
CONTINUOUS
10
3.98663
20
-2.91185
11
3.98647
21
-2.91189
0
LINE
8
BLACK
6
CONTINUOUS
10
3.98647
20
-2.91189
11
3.98393
21
-2.91258
0
LINE
8
BLACK
6
CONTINUOUS
10
3.98393
20
-2.91258
11
3.98314
21
-2.91272
0
LINE
8
BLACK
6
CONTINUOUS
10
3.98314
20
-2.91272
11
3.97817
21
-2.91321
0
LINE
8
BLACK
6
CONTINUOUS
10
3.97817
20
-2.91321
11
3.97741
21
-2.91328
0
LINE
8
BLACK
6
CONTINUOUS
10
3.97741
20
-2.91328
11
3.97659
21
-2.91335
0
LINE
8
BLACK
6
CONTINUOUS
10
3.97659
20
-2.91335
11
3.97617
21
-2.91337
0
LINE
8
BLACK
6
CONTINUOUS
10
3.97617
20
-2.91337
11
3.83756
21
-2.91337
0
LINE
8
BLACK
6
CONTINUOUS
10
3.83756
20
-2.91337
11
3.83492
21
-2.91259
0
LINE
8
BLACK
6
CONTINUOUS
10
3.83492
20
-2.91259
11
3.83312
21
-2.91051
0
LINE
8
BLACK
6
CONTINUOUS
10
3.83312
20
-2.91051
11
3.83268
21
-2.90848
0
LINE
8
BLACK
6
CONTINUOUS
10
3.83268
20
-2.90848
11
3.83268
21
-2.16034
0
LINE
8
BLACK
6
CONTINUOUS
10
3.83268
20
-2.16034
11
3.83345
21
-2.1577
0
LINE
8
BLACK
6
CONTINUOUS
10
3.83345
20
-2.1577
11
3.83553
21
-2.1559
0
LINE
8
BLACK
6
CONTINUOUS
10
3.83553
20
-2.1559
11
3.83751
21
-2.15546
0
LINE
8
BLACK
6
CONTINUOUS
10
3.83751
20
-2.15546
11
4.01079
21
-2.1536
0
LINE
8
BLACK
6
CONTINUOUS
10
4.01079
20
-2.1536
11
4.01344
21
-2.15434
0
CIRCLE
8
BLACK
10
3.52362
20
-2.41732
40
0.00787402
0
CIRCLE
8
BLACK
10
3.56299
20
-2.41732
40
0.00787402
0
CIRCLE
8
BLACK
10
3.26772
20
-2.80315
40
0.00787402
0
CIRCLE
8
BLACK
10
3.40157
20
-2.74606
40
0.00787402
0
CIRCLE
8
BLACK
10
3.46063
20
-2.74606
40
0.00787402
0
CIRCLE
8
BLACK
10
3.19882
20
-2.7874
40
0.00787402
0
CIRCLE
8
BLACK
10
3.80118
20
-2.30315
40
0.00787402
0
CIRCLE
8
BLACK
10
3.61417
20
-2.73622
40
0.00787402
0
CIRCLE
8
BLACK
10
3.97835
20
-2.0374
40
0.00787402
0
CIRCLE
8
BLACK
10
3.79921
20
-2.8563
40
0.00787402
0
CIRCLE
8
BLACK
10
3.79921
20
-2.69291
40
0.00787402
0
CIRCLE
8
BLACK
10
3.5748
20
-2.00197
40
0.00787402
0
CIRCLE
8
BLACK
10
3.67913
20
-2.28543
40
0.00787402
0
CIRCLE
8
BLACK
10
3.89921
20
-2.85591
40
0.00787402
0
CIRCLE
8
BLACK
10
3.90551
20
-2.17323
40
0.00787402
0
CIRCLE
8
BLACK
10
3.6378
20
-2.18504
40
0.00787402
0
CIRCLE
8
BLACK
10
3.5748
20
-2.10236
40
0.00787402
0
CIRCLE
8
BLACK
10
3.5748
20
-2.05512
40
0.00787402
  0
ENDSEC
  0
EOF
