  0
SECTION
  2
HEADER
  9
$ANGBASE
  50
0.0
  9
$ANGDIR
  70
1
  9
$MEASUREMENT
  70
0
  0
ENDSEC
  0
SECTION
  2
TABLES
  0
TABLE
  2
LTYPE
  70
4
  0
LTYPE
  5
40F
  2
CONTINUOUS
  70
0
  3
Solid line
  72
65
  73
0
  40
0.0
  0
LTYPE
  5
410
  2
DASHDOT
 70
0
  3
Dash Dot ____ _ ____ _
 72
65
 73
4
 40
2.0
 49
1.25
 49
-0.25
 49
0.25
 49
-0.25
  0
LTYPE
  5
411
  2
DASHED
 70
0
  3
Dashed __ __ __ __ __
 72
65
 73
2
 40
0.75
 49
0.5
 49
-0.25
  0
LTYPE
  5
43B
  2
DOTTED
 70
0
  3
Dotted .  .  .  .
 72
65
 73
2
 40
0.2
 49
0.0
 49
-0.2
  0
ENDTAB
  0
TABLE
  2
STYLE
  70
4
  0
STYLE
  2
KICAD
  70
0
  40
0
  41
1
  42
1
  50
0
  71
0
  3
isocp.shx
  0
STYLE
  2
KICADB
  70
0
  40
0
  41
1
  42
1
  50
0
  71
0
  3
isocp.shx
  0
STYLE
  2
KICADI
  70
0
  40
0
  41
1
  42
1
  50
15
  71
0
  3
isocp.shx
  0
STYLE
  2
KICADBI
  70
0
  40
0
  41
1
  42
1
  50
15
  71
0
  3
isocp.shx
  0
ENDTAB
  0
TABLE
  2
LAYER
  70
1
  0
LAYER
  2
BLACK
  70
0
  62
7
  6
CONTINUOUS
  0
ENDTAB
  0
ENDSEC
  0
SECTION
  2
ENTITIES
0
LINE
8
BLACK
6
CONTINUOUS
10
3.26837
20
-2.86757
11
3.26851
21
-2.86755
0
LINE
8
BLACK
6
CONTINUOUS
10
3.26851
20
-2.86755
11
3.26924
21
-2.86806
0
LINE
8
BLACK
6
CONTINUOUS
10
3.26924
20
-2.86806
11
3.27001
21
-2.86851
0
LINE
8
BLACK
6
CONTINUOUS
10
3.27001
20
-2.86851
11
3.27005
21
-2.86864
0
LINE
8
BLACK
6
CONTINUOUS
10
3.27005
20
-2.86864
11
3.27016
21
-2.86871
0
LINE
8
BLACK
6
CONTINUOUS
10
3.27016
20
-2.86871
11
3.27039
21
-2.86957
0
LINE
8
BLACK
6
CONTINUOUS
10
3.27039
20
-2.86957
11
3.2707
21
-2.87041
0
LINE
8
BLACK
6
CONTINUOUS
10
3.2707
20
-2.87041
11
3.2707
21
-2.88625
0
LINE
8
BLACK
6
CONTINUOUS
10
3.2707
20
-2.88625
11
3.27052
21
-2.88726
0
LINE
8
BLACK
6
CONTINUOUS
10
3.27052
20
-2.88726
11
3.26922
21
-2.88881
0
LINE
8
BLACK
6
CONTINUOUS
10
3.26922
20
-2.88881
11
3.26723
21
-2.88916
0
LINE
8
BLACK
6
CONTINUOUS
10
3.26723
20
-2.88916
11
3.26548
21
-2.88815
0
LINE
8
BLACK
6
CONTINUOUS
10
3.26548
20
-2.88815
11
3.26479
21
-2.88625
0
LINE
8
BLACK
6
CONTINUOUS
10
3.26479
20
-2.88625
11
3.26479
21
-2.87754
0
LINE
8
BLACK
6
CONTINUOUS
10
3.26479
20
-2.87754
11
3.25521
21
-2.88712
0
LINE
8
BLACK
6
CONTINUOUS
10
3.25521
20
-2.88712
11
3.25437
21
-2.88771
0
LINE
8
BLACK
6
CONTINUOUS
10
3.25437
20
-2.88771
11
3.25419
21
-2.88772
0
LINE
8
BLACK
6
CONTINUOUS
10
3.25419
20
-2.88772
11
3.25405
21
-2.88783
0
LINE
8
BLACK
6
CONTINUOUS
10
3.25405
20
-2.88783
11
3.2504
21
-2.88905
0
LINE
8
BLACK
6
CONTINUOUS
10
3.2504
20
-2.88905
11
3.24953
21
-2.88918
0
LINE
8
BLACK
6
CONTINUOUS
10
3.24953
20
-2.88918
11
3.24947
21
-2.8892
0
LINE
8
BLACK
6
CONTINUOUS
10
3.24947
20
-2.8892
11
3.24703
21
-2.8892
0
LINE
8
BLACK
6
CONTINUOUS
10
3.24703
20
-2.8892
11
3.24602
21
-2.88902
0
LINE
8
BLACK
6
CONTINUOUS
10
3.24602
20
-2.88902
11
3.24588
21
-2.88891
0
LINE
8
BLACK
6
CONTINUOUS
10
3.24588
20
-2.88891
11
3.24571
21
-2.88889
0
LINE
8
BLACK
6
CONTINUOUS
10
3.24571
20
-2.88889
11
3.24327
21
-2.88767
0
LINE
8
BLACK
6
CONTINUOUS
10
3.24327
20
-2.88767
11
3.24256
21
-2.88715
0
LINE
8
BLACK
6
CONTINUOUS
10
3.24256
20
-2.88715
11
3.2425
21
-2.88712
0
LINE
8
BLACK
6
CONTINUOUS
10
3.2425
20
-2.88712
11
3.24128
21
-2.8859
0
LINE
8
BLACK
6
CONTINUOUS
10
3.24128
20
-2.8859
11
3.24078
21
-2.88518
0
LINE
8
BLACK
6
CONTINUOUS
10
3.24078
20
-2.88518
11
3.24073
21
-2.88513
0
LINE
8
BLACK
6
CONTINUOUS
10
3.24073
20
-2.88513
11
3.23951
21
-2.88269
0
LINE
8
BLACK
6
CONTINUOUS
10
3.23951
20
-2.88269
11
3.23922
21
-2.88171
0
LINE
8
BLACK
6
CONTINUOUS
10
3.23922
20
-2.88171
11
3.23926
21
-2.88154
0
LINE
8
BLACK
6
CONTINUOUS
10
3.23926
20
-2.88154
11
3.2392
21
-2.88137
0
LINE
8
BLACK
6
CONTINUOUS
10
3.2392
20
-2.88137
11
3.2392
21
-2.87528
0
LINE
8
BLACK
6
CONTINUOUS
10
3.2392
20
-2.87528
11
3.23938
21
-2.87427
0
LINE
8
BLACK
6
CONTINUOUS
10
3.23938
20
-2.87427
11
3.23949
21
-2.87414
0
LINE
8
BLACK
6
CONTINUOUS
10
3.23949
20
-2.87414
11
3.23951
21
-2.87396
0
LINE
8
BLACK
6
CONTINUOUS
10
3.23951
20
-2.87396
11
3.24073
21
-2.87152
0
LINE
8
BLACK
6
CONTINUOUS
10
3.24073
20
-2.87152
11
3.24126
21
-2.87081
0
LINE
8
BLACK
6
CONTINUOUS
10
3.24126
20
-2.87081
11
3.24128
21
-2.87076
0
LINE
8
BLACK
6
CONTINUOUS
10
3.24128
20
-2.87076
11
3.2425
21
-2.86954
0
LINE
8
BLACK
6
CONTINUOUS
10
3.2425
20
-2.86954
11
3.24334
21
-2.86895
0
LINE
8
BLACK
6
CONTINUOUS
10
3.24334
20
-2.86895
11
3.24536
21
-2.86877
0
LINE
8
BLACK
6
CONTINUOUS
10
3.24536
20
-2.86877
11
3.24701
21
-2.86993
0
LINE
8
BLACK
6
CONTINUOUS
10
3.24701
20
-2.86993
11
3.24753
21
-2.87188
0
LINE
8
BLACK
6
CONTINUOUS
10
3.24753
20
-2.87188
11
3.24668
21
-2.87371
0
LINE
8
BLACK
6
CONTINUOUS
10
3.24668
20
-2.87371
11
3.2458
21
-2.87459
0
LINE
8
BLACK
6
CONTINUOUS
10
3.2458
20
-2.87459
11
3.24511
21
-2.87598
0
LINE
8
BLACK
6
CONTINUOUS
10
3.24511
20
-2.87598
11
3.24511
21
-2.88068
0
LINE
8
BLACK
6
CONTINUOUS
10
3.24511
20
-2.88068
11
3.2458
21
-2.88206
0
LINE
8
BLACK
6
CONTINUOUS
10
3.2458
20
-2.88206
11
3.24634
21
-2.8826
0
LINE
8
BLACK
6
CONTINUOUS
10
3.24634
20
-2.8826
11
3.24773
21
-2.8833
0
LINE
8
BLACK
6
CONTINUOUS
10
3.24773
20
-2.8833
11
3.24899
21
-2.8833
0
LINE
8
BLACK
6
CONTINUOUS
10
3.24899
20
-2.8833
11
3.25153
21
-2.88245
0
LINE
8
BLACK
6
CONTINUOUS
10
3.25153
20
-2.88245
11
3.26566
21
-2.86832
0
LINE
8
BLACK
6
CONTINUOUS
10
3.26566
20
-2.86832
11
3.26618
21
-2.86795
0
LINE
8
BLACK
6
CONTINUOUS
10
3.26618
20
-2.86795
11
3.26627
21
-2.86785
0
LINE
8
BLACK
6
CONTINUOUS
10
3.26627
20
-2.86785
11
3.26635
21
-2.86784
0
LINE
8
BLACK
6
CONTINUOUS
10
3.26635
20
-2.86784
11
3.2665
21
-2.86773
0
LINE
8
BLACK
6
CONTINUOUS
10
3.2665
20
-2.86773
11
3.26738
21
-2.86765
0
LINE
8
BLACK
6
CONTINUOUS
10
3.26738
20
-2.86765
11
3.26826
21
-2.8675
0
LINE
8
BLACK
6
CONTINUOUS
10
3.26826
20
-2.8675
11
3.26837
21
-2.86757
0
LINE
8
BLACK
6
CONTINUOUS
10
3.46886
20
-2.87808
11
3.46899
21
-2.8782
0
LINE
8
BLACK
6
CONTINUOUS
10
3.46899
20
-2.8782
11
3.46917
21
-2.87822
0
LINE
8
BLACK
6
CONTINUOUS
10
3.46917
20
-2.87822
11
3.47179
21
-2.87953
0
LINE
8
BLACK
6
CONTINUOUS
10
3.47179
20
-2.87953
11
3.4725
21
-2.88006
0
LINE
8
BLACK
6
CONTINUOUS
10
3.4725
20
-2.88006
11
3.47256
21
-2.88008
0
LINE
8
BLACK
6
CONTINUOUS
10
3.47256
20
-2.88008
11
3.47387
21
-2.8814
0
LINE
8
BLACK
6
CONTINUOUS
10
3.47387
20
-2.8814
11
3.47446
21
-2.88224
0
LINE
8
BLACK
6
CONTINUOUS
10
3.47446
20
-2.88224
11
3.47464
21
-2.88425
0
LINE
8
BLACK
6
CONTINUOUS
10
3.47464
20
-2.88425
11
3.47348
21
-2.8859
0
LINE
8
BLACK
6
CONTINUOUS
10
3.47348
20
-2.8859
11
3.47153
21
-2.88643
0
LINE
8
BLACK
6
CONTINUOUS
10
3.47153
20
-2.88643
11
3.4697
21
-2.88557
0
LINE
8
BLACK
6
CONTINUOUS
10
3.4697
20
-2.88557
11
3.46872
21
-2.8846
0
LINE
8
BLACK
6
CONTINUOUS
10
3.46872
20
-2.8846
11
3.46715
21
-2.88381
0
LINE
8
BLACK
6
CONTINUOUS
10
3.46715
20
-2.88381
11
3.46198
21
-2.88381
0
LINE
8
BLACK
6
CONTINUOUS
10
3.46198
20
-2.88381
11
3.46041
21
-2.8846
0
LINE
8
BLACK
6
CONTINUOUS
10
3.46041
20
-2.8846
11
3.45978
21
-2.88523
0
LINE
8
BLACK
6
CONTINUOUS
10
3.45978
20
-2.88523
11
3.45899
21
-2.88681
0
LINE
8
BLACK
6
CONTINUOUS
10
3.45899
20
-2.88681
11
3.45899
21
-2.88825
0
LINE
8
BLACK
6
CONTINUOUS
10
3.45899
20
-2.88825
11
3.45993
21
-2.89108
0
LINE
8
BLACK
6
CONTINUOUS
10
3.45993
20
-2.89108
11
3.47519
21
-2.90633
0
LINE
8
BLACK
6
CONTINUOUS
10
3.47519
20
-2.90633
11
3.47555
21
-2.90686
0
LINE
8
BLACK
6
CONTINUOUS
10
3.47555
20
-2.90686
11
3.47565
21
-2.90694
0
LINE
8
BLACK
6
CONTINUOUS
10
3.47565
20
-2.90694
11
3.47567
21
-2.90702
0
LINE
8
BLACK
6
CONTINUOUS
10
3.47567
20
-2.90702
11
3.47577
21
-2.90717
0
LINE
8
BLACK
6
CONTINUOUS
10
3.47577
20
-2.90717
11
3.47585
21
-2.90806
0
LINE
8
BLACK
6
CONTINUOUS
10
3.47585
20
-2.90806
11
3.47601
21
-2.90893
0
LINE
8
BLACK
6
CONTINUOUS
10
3.47601
20
-2.90893
11
3.47594
21
-2.90905
0
LINE
8
BLACK
6
CONTINUOUS
10
3.47594
20
-2.90905
11
3.47595
21
-2.90918
0
LINE
8
BLACK
6
CONTINUOUS
10
3.47595
20
-2.90918
11
3.47544
21
-2.90991
0
LINE
8
BLACK
6
CONTINUOUS
10
3.47544
20
-2.90991
11
3.475
21
-2.91068
0
LINE
8
BLACK
6
CONTINUOUS
10
3.475
20
-2.91068
11
3.47487
21
-2.91073
0
LINE
8
BLACK
6
CONTINUOUS
10
3.47487
20
-2.91073
11
3.47479
21
-2.91084
0
LINE
8
BLACK
6
CONTINUOUS
10
3.47479
20
-2.91084
11
3.47393
21
-2.91107
0
LINE
8
BLACK
6
CONTINUOUS
10
3.47393
20
-2.91107
11
3.4731
21
-2.91137
0
LINE
8
BLACK
6
CONTINUOUS
10
3.4731
20
-2.91137
11
3.45604
21
-2.91137
0
LINE
8
BLACK
6
CONTINUOUS
10
3.45604
20
-2.91137
11
3.45503
21
-2.91119
0
LINE
8
BLACK
6
CONTINUOUS
10
3.45503
20
-2.91119
11
3.45348
21
-2.9099
0
LINE
8
BLACK
6
CONTINUOUS
10
3.45348
20
-2.9099
11
3.45313
21
-2.90791
0
LINE
8
BLACK
6
CONTINUOUS
10
3.45313
20
-2.90791
11
3.45414
21
-2.90616
0
LINE
8
BLACK
6
CONTINUOUS
10
3.45414
20
-2.90616
11
3.45604
21
-2.90547
0
LINE
8
BLACK
6
CONTINUOUS
10
3.45604
20
-2.90547
11
3.46597
21
-2.90547
0
LINE
8
BLACK
6
CONTINUOUS
10
3.46597
20
-2.90547
11
3.45526
21
-2.89476
0
LINE
8
BLACK
6
CONTINUOUS
10
3.45526
20
-2.89476
11
3.45467
21
-2.89392
0
LINE
8
BLACK
6
CONTINUOUS
10
3.45467
20
-2.89392
11
3.45466
21
-2.89374
0
LINE
8
BLACK
6
CONTINUOUS
10
3.45466
20
-2.89374
11
3.45455
21
-2.8936
0
LINE
8
BLACK
6
CONTINUOUS
10
3.45455
20
-2.8936
11
3.45324
21
-2.88967
0
LINE
8
BLACK
6
CONTINUOUS
10
3.45324
20
-2.88967
11
3.45311
21
-2.88879
0
LINE
8
BLACK
6
CONTINUOUS
10
3.45311
20
-2.88879
11
3.45308
21
-2.88873
0
LINE
8
BLACK
6
CONTINUOUS
10
3.45308
20
-2.88873
11
3.45308
21
-2.88611
0
LINE
8
BLACK
6
CONTINUOUS
10
3.45308
20
-2.88611
11
3.45326
21
-2.8851
0
LINE
8
BLACK
6
CONTINUOUS
10
3.45326
20
-2.8851
11
3.45338
21
-2.88496
0
LINE
8
BLACK
6
CONTINUOUS
10
3.45338
20
-2.88496
11
3.4534
21
-2.88479
0
LINE
8
BLACK
6
CONTINUOUS
10
3.4534
20
-2.88479
11
3.45471
21
-2.88216
0
LINE
8
BLACK
6
CONTINUOUS
10
3.45471
20
-2.88216
11
3.45523
21
-2.88145
0
LINE
8
BLACK
6
CONTINUOUS
10
3.45523
20
-2.88145
11
3.45526
21
-2.8814
0
LINE
8
BLACK
6
CONTINUOUS
10
3.45526
20
-2.8814
11
3.45657
21
-2.88008
0
LINE
8
BLACK
6
CONTINUOUS
10
3.45657
20
-2.88008
11
3.4573
21
-2.87958
0
LINE
8
BLACK
6
CONTINUOUS
10
3.4573
20
-2.87958
11
3.45734
21
-2.87953
0
LINE
8
BLACK
6
CONTINUOUS
10
3.45734
20
-2.87953
11
3.45997
21
-2.87822
0
LINE
8
BLACK
6
CONTINUOUS
10
3.45997
20
-2.87822
11
3.46095
21
-2.87793
0
LINE
8
BLACK
6
CONTINUOUS
10
3.46095
20
-2.87793
11
3.46112
21
-2.87797
0
LINE
8
BLACK
6
CONTINUOUS
10
3.46112
20
-2.87797
11
3.46129
21
-2.87791
0
LINE
8
BLACK
6
CONTINUOUS
10
3.46129
20
-2.87791
11
3.46785
21
-2.87791
0
LINE
8
BLACK
6
CONTINUOUS
10
3.46785
20
-2.87791
11
3.46886
21
-2.87808
0
LINE
8
BLACK
6
CONTINUOUS
10
3.50161
20
-2.87896
11
3.5023
21
-2.88086
0
LINE
8
BLACK
6
CONTINUOUS
10
3.5023
20
-2.88086
11
3.5023
21
-2.90317
0
LINE
8
BLACK
6
CONTINUOUS
10
3.5023
20
-2.90317
11
3.50212
21
-2.90418
0
LINE
8
BLACK
6
CONTINUOUS
10
3.50212
20
-2.90418
11
3.50201
21
-2.90431
0
LINE
8
BLACK
6
CONTINUOUS
10
3.50201
20
-2.90431
11
3.50198
21
-2.90449
0
LINE
8
BLACK
6
CONTINUOUS
10
3.50198
20
-2.90449
11
3.50067
21
-2.90711
0
LINE
8
BLACK
6
CONTINUOUS
10
3.50067
20
-2.90711
11
3.50015
21
-2.90782
0
LINE
8
BLACK
6
CONTINUOUS
10
3.50015
20
-2.90782
11
3.50012
21
-2.90788
0
LINE
8
BLACK
6
CONTINUOUS
10
3.50012
20
-2.90788
11
3.49881
21
-2.90919
0
LINE
8
BLACK
6
CONTINUOUS
10
3.49881
20
-2.90919
11
3.49808
21
-2.9097
0
LINE
8
BLACK
6
CONTINUOUS
10
3.49808
20
-2.9097
11
3.49804
21
-2.90975
0
LINE
8
BLACK
6
CONTINUOUS
10
3.49804
20
-2.90975
11
3.49541
21
-2.91106
0
LINE
8
BLACK
6
CONTINUOUS
10
3.49541
20
-2.91106
11
3.49443
21
-2.91135
0
LINE
8
BLACK
6
CONTINUOUS
10
3.49443
20
-2.91135
11
3.49426
21
-2.91131
0
LINE
8
BLACK
6
CONTINUOUS
10
3.49426
20
-2.91131
11
3.49409
21
-2.91137
0
LINE
8
BLACK
6
CONTINUOUS
10
3.49409
20
-2.91137
11
3.48885
21
-2.91137
0
LINE
8
BLACK
6
CONTINUOUS
10
3.48885
20
-2.91137
11
3.48784
21
-2.91119
0
LINE
8
BLACK
6
CONTINUOUS
10
3.48784
20
-2.91119
11
3.4877
21
-2.91108
0
LINE
8
BLACK
6
CONTINUOUS
10
3.4877
20
-2.91108
11
3.48752
21
-2.91106
0
LINE
8
BLACK
6
CONTINUOUS
10
3.48752
20
-2.91106
11
3.4849
21
-2.90975
0
LINE
8
BLACK
6
CONTINUOUS
10
3.4849
20
-2.90975
11
3.48419
21
-2.90922
0
LINE
8
BLACK
6
CONTINUOUS
10
3.48419
20
-2.90922
11
3.48413
21
-2.90919
0
LINE
8
BLACK
6
CONTINUOUS
10
3.48413
20
-2.90919
11
3.48282
21
-2.90788
0
LINE
8
BLACK
6
CONTINUOUS
10
3.48282
20
-2.90788
11
3.48231
21
-2.90716
0
LINE
8
BLACK
6
CONTINUOUS
10
3.48231
20
-2.90716
11
3.48227
21
-2.90711
0
LINE
8
BLACK
6
CONTINUOUS
10
3.48227
20
-2.90711
11
3.48095
21
-2.90449
0
LINE
8
BLACK
6
CONTINUOUS
10
3.48095
20
-2.90449
11
3.48066
21
-2.90351
0
LINE
8
BLACK
6
CONTINUOUS
10
3.48066
20
-2.90351
11
3.4807
21
-2.90334
0
LINE
8
BLACK
6
CONTINUOUS
10
3.4807
20
-2.90334
11
3.48064
21
-2.90317
0
LINE
8
BLACK
6
CONTINUOUS
10
3.48064
20
-2.90317
11
3.48064
21
-2.88086
0
LINE
8
BLACK
6
CONTINUOUS
10
3.48064
20
-2.88086
11
3.48082
21
-2.87985
0
LINE
8
BLACK
6
CONTINUOUS
10
3.48082
20
-2.87985
11
3.48212
21
-2.8783
0
LINE
8
BLACK
6
CONTINUOUS
10
3.48212
20
-2.8783
11
3.48411
21
-2.87795
0
LINE
8
BLACK
6
CONTINUOUS
10
3.48411
20
-2.87795
11
3.48586
21
-2.87896
0
LINE
8
BLACK
6
CONTINUOUS
10
3.48586
20
-2.87896
11
3.48655
21
-2.88086
0
LINE
8
BLACK
6
CONTINUOUS
10
3.48655
20
-2.88086
11
3.48655
21
-2.90247
0
LINE
8
BLACK
6
CONTINUOUS
10
3.48655
20
-2.90247
11
3.48733
21
-2.90404
0
LINE
8
BLACK
6
CONTINUOUS
10
3.48733
20
-2.90404
11
3.48797
21
-2.90468
0
LINE
8
BLACK
6
CONTINUOUS
10
3.48797
20
-2.90468
11
3.48954
21
-2.90547
0
LINE
8
BLACK
6
CONTINUOUS
10
3.48954
20
-2.90547
11
3.4934
21
-2.90547
0
LINE
8
BLACK
6
CONTINUOUS
10
3.4934
20
-2.90547
11
3.49497
21
-2.90468
0
LINE
8
BLACK
6
CONTINUOUS
10
3.49497
20
-2.90468
11
3.4956
21
-2.90404
0
LINE
8
BLACK
6
CONTINUOUS
10
3.4956
20
-2.90404
11
3.49639
21
-2.90247
0
LINE
8
BLACK
6
CONTINUOUS
10
3.49639
20
-2.90247
11
3.49639
21
-2.88086
0
LINE
8
BLACK
6
CONTINUOUS
10
3.49639
20
-2.88086
11
3.49657
21
-2.87985
0
LINE
8
BLACK
6
CONTINUOUS
10
3.49657
20
-2.87985
11
3.49787
21
-2.8783
0
LINE
8
BLACK
6
CONTINUOUS
10
3.49787
20
-2.8783
11
3.49986
21
-2.87795
0
LINE
8
BLACK
6
CONTINUOUS
10
3.49986
20
-2.87795
11
3.50161
21
-2.87896
0
LINE
8
BLACK
6
CONTINUOUS
10
3.33691
20
-2.79928
11
3.3376
21
-2.80118
0
LINE
8
BLACK
6
CONTINUOUS
10
3.3376
20
-2.80118
11
3.3376
21
-2.86811
0
LINE
8
BLACK
6
CONTINUOUS
10
3.3376
20
-2.86811
11
3.33742
21
-2.86912
0
LINE
8
BLACK
6
CONTINUOUS
10
3.33742
20
-2.86912
11
3.33612
21
-2.87067
0
LINE
8
BLACK
6
CONTINUOUS
10
3.33612
20
-2.87067
11
3.33413
21
-2.87102
0
LINE
8
BLACK
6
CONTINUOUS
10
3.33413
20
-2.87102
11
3.33238
21
-2.87001
0
LINE
8
BLACK
6
CONTINUOUS
10
3.33238
20
-2.87001
11
3.33169
21
-2.86811
0
LINE
8
BLACK
6
CONTINUOUS
10
3.33169
20
-2.86811
11
3.33169
21
-2.80118
0
LINE
8
BLACK
6
CONTINUOUS
10
3.33169
20
-2.80118
11
3.33187
21
-2.80017
0
LINE
8
BLACK
6
CONTINUOUS
10
3.33187
20
-2.80017
11
3.33317
21
-2.79862
0
LINE
8
BLACK
6
CONTINUOUS
10
3.33317
20
-2.79862
11
3.33516
21
-2.79827
0
LINE
8
BLACK
6
CONTINUOUS
10
3.33516
20
-2.79827
11
3.33691
21
-2.79928
0
LINE
8
BLACK
6
CONTINUOUS
10
3.62831
20
-2.85796
11
3.62985
21
-2.85926
0
LINE
8
BLACK
6
CONTINUOUS
10
3.62985
20
-2.85926
11
3.6302
21
-2.86125
0
LINE
8
BLACK
6
CONTINUOUS
10
3.6302
20
-2.86125
11
3.62919
21
-2.86299
0
LINE
8
BLACK
6
CONTINUOUS
10
3.62919
20
-2.86299
11
3.6273
21
-2.86369
0
LINE
8
BLACK
6
CONTINUOUS
10
3.6273
20
-2.86369
11
3.60943
21
-2.86369
0
LINE
8
BLACK
6
CONTINUOUS
10
3.60943
20
-2.86369
11
3.61827
21
-2.87379
0
LINE
8
BLACK
6
CONTINUOUS
10
3.61827
20
-2.87379
11
3.6185
21
-2.87417
0
LINE
8
BLACK
6
CONTINUOUS
10
3.6185
20
-2.87417
11
3.61861
21
-2.87425
0
LINE
8
BLACK
6
CONTINUOUS
10
3.61861
20
-2.87425
11
3.61863
21
-2.87438
0
LINE
8
BLACK
6
CONTINUOUS
10
3.61863
20
-2.87438
11
3.6188
21
-2.87466
0
LINE
8
BLACK
6
CONTINUOUS
10
3.6188
20
-2.87466
11
3.61882
21
-2.87546
0
LINE
8
BLACK
6
CONTINUOUS
10
3.61882
20
-2.87546
11
3.61896
21
-2.87624
0
LINE
8
BLACK
6
CONTINUOUS
10
3.61896
20
-2.87624
11
3.61884
21
-2.87645
0
LINE
8
BLACK
6
CONTINUOUS
10
3.61884
20
-2.87645
11
3.61884
21
-2.87668
0
LINE
8
BLACK
6
CONTINUOUS
10
3.61884
20
-2.87668
11
3.61834
21
-2.8773
0
LINE
8
BLACK
6
CONTINUOUS
10
3.61834
20
-2.8773
11
3.61795
21
-2.87799
0
LINE
8
BLACK
6
CONTINUOUS
10
3.61795
20
-2.87799
11
3.61772
21
-2.87807
0
LINE
8
BLACK
6
CONTINUOUS
10
3.61772
20
-2.87807
11
3.61758
21
-2.87826
0
LINE
8
BLACK
6
CONTINUOUS
10
3.61758
20
-2.87826
11
3.6168
21
-2.87841
0
LINE
8
BLACK
6
CONTINUOUS
10
3.6168
20
-2.87841
11
3.61605
21
-2.87868
0
LINE
8
BLACK
6
CONTINUOUS
10
3.61605
20
-2.87868
11
3.61112
21
-2.87868
0
LINE
8
BLACK
6
CONTINUOUS
10
3.61112
20
-2.87868
11
3.60842
21
-2.88003
0
LINE
8
BLACK
6
CONTINUOUS
10
3.60842
20
-2.88003
11
3.60723
21
-2.88123
0
LINE
8
BLACK
6
CONTINUOUS
10
3.60723
20
-2.88123
11
3.60588
21
-2.88393
0
LINE
8
BLACK
6
CONTINUOUS
10
3.60588
20
-2.88393
11
3.60588
21
-2.89191
0
LINE
8
BLACK
6
CONTINUOUS
10
3.60588
20
-2.89191
11
3.60723
21
-2.8946
0
LINE
8
BLACK
6
CONTINUOUS
10
3.60723
20
-2.8946
11
3.60842
21
-2.8958
0
LINE
8
BLACK
6
CONTINUOUS
10
3.60842
20
-2.8958
11
3.61112
21
-2.89715
0
LINE
8
BLACK
6
CONTINUOUS
10
3.61112
20
-2.89715
11
3.62098
21
-2.89715
0
LINE
8
BLACK
6
CONTINUOUS
10
3.62098
20
-2.89715
11
3.62367
21
-2.8958
0
LINE
8
BLACK
6
CONTINUOUS
10
3.62367
20
-2.8958
11
3.62521
21
-2.89427
0
LINE
8
BLACK
6
CONTINUOUS
10
3.62521
20
-2.89427
11
3.62605
21
-2.89368
0
LINE
8
BLACK
6
CONTINUOUS
10
3.62605
20
-2.89368
11
3.62806
21
-2.8935
0
LINE
8
BLACK
6
CONTINUOUS
10
3.62806
20
-2.8935
11
3.62972
21
-2.89466
0
LINE
8
BLACK
6
CONTINUOUS
10
3.62972
20
-2.89466
11
3.63024
21
-2.89661
0
LINE
8
BLACK
6
CONTINUOUS
10
3.63024
20
-2.89661
11
3.62938
21
-2.89844
0
LINE
8
BLACK
6
CONTINUOUS
10
3.62938
20
-2.89844
11
3.62751
21
-2.90032
0
LINE
8
BLACK
6
CONTINUOUS
10
3.62751
20
-2.90032
11
3.62679
21
-2.90082
0
LINE
8
BLACK
6
CONTINUOUS
10
3.62679
20
-2.90082
11
3.62674
21
-2.90087
0
LINE
8
BLACK
6
CONTINUOUS
10
3.62674
20
-2.90087
11
3.62299
21
-2.90274
0
LINE
8
BLACK
6
CONTINUOUS
10
3.62299
20
-2.90274
11
3.62201
21
-2.90304
0
LINE
8
BLACK
6
CONTINUOUS
10
3.62201
20
-2.90304
11
3.62184
21
-2.903
0
LINE
8
BLACK
6
CONTINUOUS
10
3.62184
20
-2.903
11
3.62167
21
-2.90306
0
LINE
8
BLACK
6
CONTINUOUS
10
3.62167
20
-2.90306
11
3.61042
21
-2.90306
0
LINE
8
BLACK
6
CONTINUOUS
10
3.61042
20
-2.90306
11
3.60941
21
-2.90288
0
LINE
8
BLACK
6
CONTINUOUS
10
3.60941
20
-2.90288
11
3.60928
21
-2.90276
0
LINE
8
BLACK
6
CONTINUOUS
10
3.60928
20
-2.90276
11
3.6091
21
-2.90274
0
LINE
8
BLACK
6
CONTINUOUS
10
3.6091
20
-2.90274
11
3.60535
21
-2.90087
0
LINE
8
BLACK
6
CONTINUOUS
10
3.60535
20
-2.90087
11
3.60464
21
-2.90034
0
LINE
8
BLACK
6
CONTINUOUS
10
3.60464
20
-2.90034
11
3.60459
21
-2.90032
0
LINE
8
BLACK
6
CONTINUOUS
10
3.60459
20
-2.90032
11
3.60271
21
-2.89844
0
LINE
8
BLACK
6
CONTINUOUS
10
3.60271
20
-2.89844
11
3.60221
21
-2.89772
0
LINE
8
BLACK
6
CONTINUOUS
10
3.60221
20
-2.89772
11
3.60216
21
-2.89767
0
LINE
8
BLACK
6
CONTINUOUS
10
3.60216
20
-2.89767
11
3.60028
21
-2.89392
0
LINE
8
BLACK
6
CONTINUOUS
10
3.60028
20
-2.89392
11
3.59999
21
-2.89294
0
LINE
8
BLACK
6
CONTINUOUS
10
3.59999
20
-2.89294
11
3.60003
21
-2.89277
0
LINE
8
BLACK
6
CONTINUOUS
10
3.60003
20
-2.89277
11
3.59997
21
-2.8926
0
LINE
8
BLACK
6
CONTINUOUS
10
3.59997
20
-2.8926
11
3.59997
21
-2.88323
0
LINE
8
BLACK
6
CONTINUOUS
10
3.59997
20
-2.88323
11
3.60015
21
-2.88222
0
LINE
8
BLACK
6
CONTINUOUS
10
3.60015
20
-2.88222
11
3.60026
21
-2.88209
0
LINE
8
BLACK
6
CONTINUOUS
10
3.60026
20
-2.88209
11
3.60028
21
-2.88191
0
LINE
8
BLACK
6
CONTINUOUS
10
3.60028
20
-2.88191
11
3.60216
21
-2.87816
0
LINE
8
BLACK
6
CONTINUOUS
10
3.60216
20
-2.87816
11
3.60268
21
-2.87745
0
LINE
8
BLACK
6
CONTINUOUS
10
3.60268
20
-2.87745
11
3.60271
21
-2.87739
0
LINE
8
BLACK
6
CONTINUOUS
10
3.60271
20
-2.87739
11
3.60459
21
-2.87552
0
LINE
8
BLACK
6
CONTINUOUS
10
3.60459
20
-2.87552
11
3.60531
21
-2.87501
0
LINE
8
BLACK
6
CONTINUOUS
10
3.60531
20
-2.87501
11
3.60535
21
-2.87496
0
LINE
8
BLACK
6
CONTINUOUS
10
3.60535
20
-2.87496
11
3.6091
21
-2.87309
0
LINE
8
BLACK
6
CONTINUOUS
10
3.6091
20
-2.87309
11
3.60967
21
-2.87292
0
LINE
8
BLACK
6
CONTINUOUS
10
3.60967
20
-2.87292
11
3.6007
21
-2.86268
0
LINE
8
BLACK
6
CONTINUOUS
10
3.6007
20
-2.86268
11
3.60047
21
-2.8623
0
LINE
8
BLACK
6
CONTINUOUS
10
3.60047
20
-2.8623
11
3.60037
21
-2.86221
0
LINE
8
BLACK
6
CONTINUOUS
10
3.60037
20
-2.86221
11
3.60035
21
-2.86209
0
LINE
8
BLACK
6
CONTINUOUS
10
3.60035
20
-2.86209
11
3.60017
21
-2.8618
0
LINE
8
BLACK
6
CONTINUOUS
10
3.60017
20
-2.8618
11
3.60015
21
-2.861
0
LINE
8
BLACK
6
CONTINUOUS
10
3.60015
20
-2.861
11
3.60002
21
-2.86022
0
LINE
8
BLACK
6
CONTINUOUS
10
3.60002
20
-2.86022
11
3.60013
21
-2.86002
0
LINE
8
BLACK
6
CONTINUOUS
10
3.60013
20
-2.86002
11
3.60013
21
-2.85978
0
LINE
8
BLACK
6
CONTINUOUS
10
3.60013
20
-2.85978
11
3.60063
21
-2.85916
0
LINE
8
BLACK
6
CONTINUOUS
10
3.60063
20
-2.85916
11
3.60103
21
-2.85847
0
LINE
8
BLACK
6
CONTINUOUS
10
3.60103
20
-2.85847
11
3.60125
21
-2.85839
0
LINE
8
BLACK
6
CONTINUOUS
10
3.60125
20
-2.85839
11
3.6014
21
-2.85821
0
LINE
8
BLACK
6
CONTINUOUS
10
3.6014
20
-2.85821
11
3.60218
21
-2.85805
0
LINE
8
BLACK
6
CONTINUOUS
10
3.60218
20
-2.85805
11
3.60292
21
-2.85778
0
LINE
8
BLACK
6
CONTINUOUS
10
3.60292
20
-2.85778
11
3.6273
21
-2.85778
0
LINE
8
BLACK
6
CONTINUOUS
10
3.6273
20
-2.85778
11
3.62831
21
-2.85796
0
LINE
8
BLACK
6
CONTINUOUS
10
3.65254
20
-2.85793
11
3.6526
21
-2.85793
0
LINE
8
BLACK
6
CONTINUOUS
10
3.6526
20
-2.85793
11
3.65823
21
-2.85981
0
LINE
8
BLACK
6
CONTINUOUS
10
3.65823
20
-2.85981
11
3.65913
21
-2.86029
0
LINE
8
BLACK
6
CONTINUOUS
10
3.65913
20
-2.86029
11
3.65922
21
-2.86045
0
LINE
8
BLACK
6
CONTINUOUS
10
3.65922
20
-2.86045
11
3.65938
21
-2.86052
0
LINE
8
BLACK
6
CONTINUOUS
10
3.65938
20
-2.86052
11
3.66313
21
-2.86427
0
LINE
8
BLACK
6
CONTINUOUS
10
3.66313
20
-2.86427
11
3.66364
21
-2.86499
0
LINE
8
BLACK
6
CONTINUOUS
10
3.66364
20
-2.86499
11
3.66368
21
-2.86504
0
LINE
8
BLACK
6
CONTINUOUS
10
3.66368
20
-2.86504
11
3.66556
21
-2.86879
0
LINE
8
BLACK
6
CONTINUOUS
10
3.66556
20
-2.86879
11
3.6657
21
-2.86927
0
LINE
8
BLACK
6
CONTINUOUS
10
3.6657
20
-2.86927
11
3.66578
21
-2.86939
0
LINE
8
BLACK
6
CONTINUOUS
10
3.66578
20
-2.86939
11
3.66766
21
-2.87689
0
LINE
8
BLACK
6
CONTINUOUS
10
3.66766
20
-2.87689
11
3.6677
21
-2.87748
0
LINE
8
BLACK
6
CONTINUOUS
10
3.6677
20
-2.87748
11
3.66774
21
-2.87761
0
LINE
8
BLACK
6
CONTINUOUS
10
3.66774
20
-2.87761
11
3.66774
21
-2.88323
0
LINE
8
BLACK
6
CONTINUOUS
10
3.66774
20
-2.88323
11
3.66764
21
-2.88381
0
LINE
8
BLACK
6
CONTINUOUS
10
3.66764
20
-2.88381
11
3.66766
21
-2.88395
0
LINE
8
BLACK
6
CONTINUOUS
10
3.66766
20
-2.88395
11
3.66578
21
-2.89145
0
LINE
8
BLACK
6
CONTINUOUS
10
3.66578
20
-2.89145
11
3.66557
21
-2.89191
0
LINE
8
BLACK
6
CONTINUOUS
10
3.66557
20
-2.89191
11
3.66556
21
-2.89205
0
LINE
8
BLACK
6
CONTINUOUS
10
3.66556
20
-2.89205
11
3.66368
21
-2.8958
0
LINE
8
BLACK
6
CONTINUOUS
10
3.66368
20
-2.8958
11
3.66316
21
-2.89651
0
LINE
8
BLACK
6
CONTINUOUS
10
3.66316
20
-2.89651
11
3.66313
21
-2.89657
0
LINE
8
BLACK
6
CONTINUOUS
10
3.66313
20
-2.89657
11
3.65938
21
-2.90032
0
LINE
8
BLACK
6
CONTINUOUS
10
3.65938
20
-2.90032
11
3.65854
21
-2.9009
0
LINE
8
BLACK
6
CONTINUOUS
10
3.65854
20
-2.9009
11
3.65836
21
-2.90092
0
LINE
8
BLACK
6
CONTINUOUS
10
3.65836
20
-2.90092
11
3.65823
21
-2.90103
0
LINE
8
BLACK
6
CONTINUOUS
10
3.65823
20
-2.90103
11
3.6526
21
-2.9029
0
LINE
8
BLACK
6
CONTINUOUS
10
3.6526
20
-2.9029
11
3.65173
21
-2.90303
0
LINE
8
BLACK
6
CONTINUOUS
10
3.65173
20
-2.90303
11
3.65167
21
-2.90306
0
LINE
8
BLACK
6
CONTINUOUS
10
3.65167
20
-2.90306
11
3.64792
21
-2.90306
0
LINE
8
BLACK
6
CONTINUOUS
10
3.64792
20
-2.90306
11
3.64705
21
-2.9029
0
LINE
8
BLACK
6
CONTINUOUS
10
3.64705
20
-2.9029
11
3.64699
21
-2.9029
0
LINE
8
BLACK
6
CONTINUOUS
10
3.64699
20
-2.9029
11
3.64136
21
-2.90103
0
LINE
8
BLACK
6
CONTINUOUS
10
3.64136
20
-2.90103
11
3.64046
21
-2.90054
0
LINE
8
BLACK
6
CONTINUOUS
10
3.64046
20
-2.90054
11
3.64037
21
-2.90039
0
LINE
8
BLACK
6
CONTINUOUS
10
3.64037
20
-2.90039
11
3.64021
21
-2.90032
0
LINE
8
BLACK
6
CONTINUOUS
10
3.64021
20
-2.90032
11
3.63833
21
-2.89844
0
LINE
8
BLACK
6
CONTINUOUS
10
3.63833
20
-2.89844
11
3.63774
21
-2.8976
0
LINE
8
BLACK
6
CONTINUOUS
10
3.63774
20
-2.8976
11
3.63757
21
-2.89559
0
LINE
8
BLACK
6
CONTINUOUS
10
3.63757
20
-2.89559
11
3.63873
21
-2.89393
0
LINE
8
BLACK
6
CONTINUOUS
10
3.63873
20
-2.89393
11
3.64068
21
-2.89341
0
LINE
8
BLACK
6
CONTINUOUS
10
3.64068
20
-2.89341
11
3.64251
21
-2.89427
0
LINE
8
BLACK
6
CONTINUOUS
10
3.64251
20
-2.89427
11
3.64389
21
-2.89565
0
LINE
8
BLACK
6
CONTINUOUS
10
3.64389
20
-2.89565
11
3.6484
21
-2.89715
0
LINE
8
BLACK
6
CONTINUOUS
10
3.6484
20
-2.89715
11
3.65119
21
-2.89715
0
LINE
8
BLACK
6
CONTINUOUS
10
3.65119
20
-2.89715
11
3.6557
21
-2.89565
0
LINE
8
BLACK
6
CONTINUOUS
10
3.6557
20
-2.89565
11
3.65862
21
-2.89273
0
LINE
8
BLACK
6
CONTINUOUS
10
3.65862
20
-2.89273
11
3.66013
21
-2.8897
0
LINE
8
BLACK
6
CONTINUOUS
10
3.66013
20
-2.8897
11
3.66184
21
-2.88287
0
LINE
8
BLACK
6
CONTINUOUS
10
3.66184
20
-2.88287
11
3.66184
21
-2.87797
0
LINE
8
BLACK
6
CONTINUOUS
10
3.66184
20
-2.87797
11
3.66013
21
-2.87114
0
LINE
8
BLACK
6
CONTINUOUS
10
3.66013
20
-2.87114
11
3.65862
21
-2.86811
0
LINE
8
BLACK
6
CONTINUOUS
10
3.65862
20
-2.86811
11
3.6557
21
-2.86519
0
LINE
8
BLACK
6
CONTINUOUS
10
3.6557
20
-2.86519
11
3.65119
21
-2.86369
0
LINE
8
BLACK
6
CONTINUOUS
10
3.65119
20
-2.86369
11
3.6484
21
-2.86369
0
LINE
8
BLACK
6
CONTINUOUS
10
3.6484
20
-2.86369
11
3.64389
21
-2.86519
0
LINE
8
BLACK
6
CONTINUOUS
10
3.64389
20
-2.86519
11
3.64251
21
-2.86657
0
LINE
8
BLACK
6
CONTINUOUS
10
3.64251
20
-2.86657
11
3.64167
21
-2.86716
0
LINE
8
BLACK
6
CONTINUOUS
10
3.64167
20
-2.86716
11
3.63966
21
-2.86733
0
LINE
8
BLACK
6
CONTINUOUS
10
3.63966
20
-2.86733
11
3.638
21
-2.86618
0
LINE
8
BLACK
6
CONTINUOUS
10
3.638
20
-2.86618
11
3.63748
21
-2.86423
0
LINE
8
BLACK
6
CONTINUOUS
10
3.63748
20
-2.86423
11
3.63833
21
-2.86239
0
LINE
8
BLACK
6
CONTINUOUS
10
3.63833
20
-2.86239
11
3.64021
21
-2.86052
0
LINE
8
BLACK
6
CONTINUOUS
10
3.64021
20
-2.86052
11
3.64105
21
-2.85993
0
LINE
8
BLACK
6
CONTINUOUS
10
3.64105
20
-2.85993
11
3.64122
21
-2.85992
0
LINE
8
BLACK
6
CONTINUOUS
10
3.64122
20
-2.85992
11
3.64136
21
-2.85981
0
LINE
8
BLACK
6
CONTINUOUS
10
3.64136
20
-2.85981
11
3.64699
21
-2.85793
0
LINE
8
BLACK
6
CONTINUOUS
10
3.64699
20
-2.85793
11
3.64786
21
-2.8578
0
LINE
8
BLACK
6
CONTINUOUS
10
3.64786
20
-2.8578
11
3.64792
21
-2.85778
0
LINE
8
BLACK
6
CONTINUOUS
10
3.64792
20
-2.85778
11
3.65167
21
-2.85778
0
LINE
8
BLACK
6
CONTINUOUS
10
3.65167
20
-2.85778
11
3.65254
21
-2.85793
0
LINE
8
BLACK
6
CONTINUOUS
10
3.44195
20
-2.89585
11
3.4435
21
-2.89715
0
LINE
8
BLACK
6
CONTINUOUS
10
3.4435
20
-2.89715
11
3.44385
21
-2.89913
0
LINE
8
BLACK
6
CONTINUOUS
10
3.44385
20
-2.89913
11
3.44284
21
-2.90088
0
LINE
8
BLACK
6
CONTINUOUS
10
3.44284
20
-2.90088
11
3.44094
21
-2.90157
0
LINE
8
BLACK
6
CONTINUOUS
10
3.44094
20
-2.90157
11
3.3622
21
-2.90157
0
LINE
8
BLACK
6
CONTINUOUS
10
3.3622
20
-2.90157
11
3.36119
21
-2.9014
0
LINE
8
BLACK
6
CONTINUOUS
10
3.36119
20
-2.9014
11
3.35965
21
-2.9001
0
LINE
8
BLACK
6
CONTINUOUS
10
3.35965
20
-2.9001
11
3.3593
21
-2.89811
0
LINE
8
BLACK
6
CONTINUOUS
10
3.3593
20
-2.89811
11
3.36031
21
-2.89636
0
LINE
8
BLACK
6
CONTINUOUS
10
3.36031
20
-2.89636
11
3.3622
21
-2.89567
0
LINE
8
BLACK
6
CONTINUOUS
10
3.3622
20
-2.89567
11
3.44094
21
-2.89567
0
LINE
8
BLACK
6
CONTINUOUS
10
3.44094
20
-2.89567
11
3.44195
21
-2.89585
0
LINE
8
BLACK
6
CONTINUOUS
10
3.28179
20
-2.79928
11
3.28248
21
-2.80118
0
LINE
8
BLACK
6
CONTINUOUS
10
3.28248
20
-2.80118
11
3.28248
21
-2.86811
0
LINE
8
BLACK
6
CONTINUOUS
10
3.28248
20
-2.86811
11
3.2823
21
-2.86912
0
LINE
8
BLACK
6
CONTINUOUS
10
3.2823
20
-2.86912
11
3.281
21
-2.87067
0
LINE
8
BLACK
6
CONTINUOUS
10
3.281
20
-2.87067
11
3.27901
21
-2.87102
0
LINE
8
BLACK
6
CONTINUOUS
10
3.27901
20
-2.87102
11
3.27727
21
-2.87001
0
LINE
8
BLACK
6
CONTINUOUS
10
3.27727
20
-2.87001
11
3.27657
21
-2.86811
0
LINE
8
BLACK
6
CONTINUOUS
10
3.27657
20
-2.86811
11
3.27657
21
-2.80118
0
LINE
8
BLACK
6
CONTINUOUS
10
3.27657
20
-2.80118
11
3.27675
21
-2.80017
0
LINE
8
BLACK
6
CONTINUOUS
10
3.27675
20
-2.80017
11
3.27805
21
-2.79862
0
LINE
8
BLACK
6
CONTINUOUS
10
3.27805
20
-2.79862
11
3.28004
21
-2.79827
0
LINE
8
BLACK
6
CONTINUOUS
10
3.28004
20
-2.79827
11
3.28179
21
-2.79928
0
LINE
8
BLACK
6
CONTINUOUS
10
3.26875
20
-2.84448
11
3.2703
21
-2.84578
0
LINE
8
BLACK
6
CONTINUOUS
10
3.2703
20
-2.84578
11
3.27065
21
-2.84777
0
LINE
8
BLACK
6
CONTINUOUS
10
3.27065
20
-2.84777
11
3.26964
21
-2.84952
0
LINE
8
BLACK
6
CONTINUOUS
10
3.26964
20
-2.84952
11
3.26774
21
-2.85021
0
LINE
8
BLACK
6
CONTINUOUS
10
3.26774
20
-2.85021
11
3.25851
21
-2.85021
0
LINE
8
BLACK
6
CONTINUOUS
10
3.25851
20
-2.85021
11
3.25851
21
-2.85181
0
LINE
8
BLACK
6
CONTINUOUS
10
3.25851
20
-2.85181
11
3.26944
21
-2.85946
0
LINE
8
BLACK
6
CONTINUOUS
10
3.26944
20
-2.85946
11
3.27016
21
-2.86018
0
LINE
8
BLACK
6
CONTINUOUS
10
3.27016
20
-2.86018
11
3.27069
21
-2.86213
0
LINE
8
BLACK
6
CONTINUOUS
10
3.27069
20
-2.86213
11
3.26983
21
-2.86396
0
LINE
8
BLACK
6
CONTINUOUS
10
3.26983
20
-2.86396
11
3.268
21
-2.86482
0
LINE
8
BLACK
6
CONTINUOUS
10
3.268
20
-2.86482
11
3.26605
21
-2.8643
0
LINE
8
BLACK
6
CONTINUOUS
10
3.26605
20
-2.8643
11
3.25802
21
-2.85868
0
LINE
8
BLACK
6
CONTINUOUS
10
3.25802
20
-2.85868
11
3.25698
21
-2.86076
0
LINE
8
BLACK
6
CONTINUOUS
10
3.25698
20
-2.86076
11
3.25645
21
-2.86147
0
LINE
8
BLACK
6
CONTINUOUS
10
3.25645
20
-2.86147
11
3.25643
21
-2.86153
0
LINE
8
BLACK
6
CONTINUOUS
10
3.25643
20
-2.86153
11
3.25521
21
-2.86275
0
LINE
8
BLACK
6
CONTINUOUS
10
3.25521
20
-2.86275
11
3.25449
21
-2.86325
0
LINE
8
BLACK
6
CONTINUOUS
10
3.25449
20
-2.86325
11
3.25444
21
-2.8633
0
LINE
8
BLACK
6
CONTINUOUS
10
3.25444
20
-2.8633
11
3.252
21
-2.86452
0
LINE
8
BLACK
6
CONTINUOUS
10
3.252
20
-2.86452
11
3.25102
21
-2.86481
0
LINE
8
BLACK
6
CONTINUOUS
10
3.25102
20
-2.86481
11
3.25085
21
-2.86477
0
LINE
8
BLACK
6
CONTINUOUS
10
3.25085
20
-2.86477
11
3.25068
21
-2.86483
0
LINE
8
BLACK
6
CONTINUOUS
10
3.25068
20
-2.86483
11
3.24703
21
-2.86483
0
LINE
8
BLACK
6
CONTINUOUS
10
3.24703
20
-2.86483
11
3.24602
21
-2.86465
0
LINE
8
BLACK
6
CONTINUOUS
10
3.24602
20
-2.86465
11
3.24588
21
-2.86454
0
LINE
8
BLACK
6
CONTINUOUS
10
3.24588
20
-2.86454
11
3.24571
21
-2.86452
0
LINE
8
BLACK
6
CONTINUOUS
10
3.24571
20
-2.86452
11
3.24327
21
-2.8633
0
LINE
8
BLACK
6
CONTINUOUS
10
3.24327
20
-2.8633
11
3.24256
21
-2.86277
0
LINE
8
BLACK
6
CONTINUOUS
10
3.24256
20
-2.86277
11
3.2425
21
-2.86275
0
LINE
8
BLACK
6
CONTINUOUS
10
3.2425
20
-2.86275
11
3.24128
21
-2.86153
0
LINE
8
BLACK
6
CONTINUOUS
10
3.24128
20
-2.86153
11
3.24078
21
-2.8608
0
LINE
8
BLACK
6
CONTINUOUS
10
3.24078
20
-2.8608
11
3.24073
21
-2.86076
0
LINE
8
BLACK
6
CONTINUOUS
10
3.24073
20
-2.86076
11
3.23951
21
-2.85832
0
LINE
8
BLACK
6
CONTINUOUS
10
3.23951
20
-2.85832
11
3.23922
21
-2.85734
0
LINE
8
BLACK
6
CONTINUOUS
10
3.23922
20
-2.85734
11
3.23926
21
-2.85717
0
LINE
8
BLACK
6
CONTINUOUS
10
3.23926
20
-2.85717
11
3.2392
21
-2.857
0
LINE
8
BLACK
6
CONTINUOUS
10
3.2392
20
-2.857
11
3.2392
21
-2.84725
0
LINE
8
BLACK
6
CONTINUOUS
10
3.2392
20
-2.84725
11
3.23927
21
-2.84687
0
LINE
8
BLACK
6
CONTINUOUS
10
3.23927
20
-2.84687
11
3.23925
21
-2.84674
0
LINE
8
BLACK
6
CONTINUOUS
10
3.23925
20
-2.84674
11
3.23931
21
-2.84663
0
LINE
8
BLACK
6
CONTINUOUS
10
3.23931
20
-2.84663
11
3.23938
21
-2.84624
0
LINE
8
BLACK
6
CONTINUOUS
10
3.23938
20
-2.84624
11
3.23987
21
-2.84566
0
LINE
8
BLACK
6
CONTINUOUS
10
3.23987
20
-2.84566
11
3.24026
21
-2.84499
0
LINE
8
BLACK
6
CONTINUOUS
10
3.24026
20
-2.84499
11
3.24051
21
-2.8449
0
LINE
8
BLACK
6
CONTINUOUS
10
3.24051
20
-2.8449
11
3.24068
21
-2.8447
0
LINE
8
BLACK
6
CONTINUOUS
10
3.24068
20
-2.8447
11
3.24143
21
-2.84456
0
LINE
8
BLACK
6
CONTINUOUS
10
3.24143
20
-2.84456
11
3.24215
21
-2.8443
0
LINE
8
BLACK
6
CONTINUOUS
10
3.24215
20
-2.8443
11
3.26774
21
-2.8443
0
LINE
8
BLACK
6
CONTINUOUS
10
3.26774
20
-2.8443
11
3.26875
21
-2.84448
0
LINE
8
BLACK
6
CONTINUOUS
10
3.24511
20
-2.85631
11
3.2458
21
-2.85769
0
LINE
8
BLACK
6
CONTINUOUS
10
3.2458
20
-2.85769
11
3.24634
21
-2.85823
0
LINE
8
BLACK
6
CONTINUOUS
10
3.24634
20
-2.85823
11
3.24773
21
-2.85892
0
LINE
8
BLACK
6
CONTINUOUS
10
3.24773
20
-2.85892
11
3.24999
21
-2.85892
0
LINE
8
BLACK
6
CONTINUOUS
10
3.24999
20
-2.85892
11
3.25137
21
-2.85823
0
LINE
8
BLACK
6
CONTINUOUS
10
3.25137
20
-2.85823
11
3.25191
21
-2.85769
0
LINE
8
BLACK
6
CONTINUOUS
10
3.25191
20
-2.85769
11
3.25261
21
-2.85631
0
LINE
8
BLACK
6
CONTINUOUS
10
3.25261
20
-2.85631
11
3.25261
21
-2.85021
0
LINE
8
BLACK
6
CONTINUOUS
10
3.25261
20
-2.85021
11
3.24511
21
-2.85021
0
LINE
8
BLACK
6
CONTINUOUS
10
3.24511
20
-2.85021
11
3.24511
21
-2.85631
0
LINE
8
BLACK
6
CONTINUOUS
10
3.1705
20
-2.08346
11
3.19127
21
-2.0858
0
LINE
8
BLACK
6
CONTINUOUS
10
3.19127
20
-2.0858
11
3.21181
21
-2.08969
0
LINE
8
BLACK
6
CONTINUOUS
10
3.21181
20
-2.08969
11
3.232
21
-2.0951
0
LINE
8
BLACK
6
CONTINUOUS
10
3.232
20
-2.0951
11
3.25173
21
-2.102
0
LINE
8
BLACK
6
CONTINUOUS
10
3.25173
20
-2.102
11
3.27089
21
-2.11036
0
LINE
8
BLACK
6
CONTINUOUS
10
3.27089
20
-2.11036
11
3.28937
21
-2.12013
0
LINE
8
BLACK
6
CONTINUOUS
10
3.28937
20
-2.12013
11
3.30707
21
-2.13125
0
LINE
8
BLACK
6
CONTINUOUS
10
3.30707
20
-2.13125
11
3.32389
21
-2.14366
0
LINE
8
BLACK
6
CONTINUOUS
10
3.32389
20
-2.14366
11
3.33973
21
-2.1573
0
LINE
8
BLACK
6
CONTINUOUS
10
3.33973
20
-2.1573
11
3.35451
21
-2.17208
0
LINE
8
BLACK
6
CONTINUOUS
10
3.35451
20
-2.17208
11
3.36815
21
-2.18792
0
LINE
8
BLACK
6
CONTINUOUS
10
3.36815
20
-2.18792
11
3.38056
21
-2.20474
0
LINE
8
BLACK
6
CONTINUOUS
10
3.38056
20
-2.20474
11
3.39168
21
-2.22244
0
LINE
8
BLACK
6
CONTINUOUS
10
3.39168
20
-2.22244
11
3.40145
21
-2.24092
0
LINE
8
BLACK
6
CONTINUOUS
10
3.40145
20
-2.24092
11
3.40981
21
-2.26008
0
LINE
8
BLACK
6
CONTINUOUS
10
3.40981
20
-2.26008
11
3.41672
21
-2.27981
0
LINE
8
BLACK
6
CONTINUOUS
10
3.41672
20
-2.27981
11
3.42213
21
-2.3
0
LINE
8
BLACK
6
CONTINUOUS
10
3.42213
20
-2.3
11
3.42601
21
-2.32054
0
LINE
8
BLACK
6
CONTINUOUS
10
3.42601
20
-2.32054
11
3.42835
21
-2.34132
0
LINE
8
BLACK
6
CONTINUOUS
10
3.42835
20
-2.34132
11
3.42913
21
-2.3622
0
LINE
8
BLACK
6
CONTINUOUS
10
3.42913
20
-2.3622
11
3.42835
21
-2.38309
0
LINE
8
BLACK
6
CONTINUOUS
10
3.42835
20
-2.38309
11
3.42601
21
-2.40387
0
LINE
8
BLACK
6
CONTINUOUS
10
3.42601
20
-2.40387
11
3.42213
21
-2.42441
0
LINE
8
BLACK
6
CONTINUOUS
10
3.42213
20
-2.42441
11
3.41672
21
-2.4446
0
LINE
8
BLACK
6
CONTINUOUS
10
3.41672
20
-2.4446
11
3.40981
21
-2.46433
0
LINE
8
BLACK
6
CONTINUOUS
10
3.40981
20
-2.46433
11
3.40145
21
-2.48349
0
LINE
8
BLACK
6
CONTINUOUS
10
3.40145
20
-2.48349
11
3.39168
21
-2.50197
0
LINE
8
BLACK
6
CONTINUOUS
10
3.39168
20
-2.50197
11
3.38056
21
-2.51967
0
LINE
8
BLACK
6
CONTINUOUS
10
3.38056
20
-2.51967
11
3.36815
21
-2.53649
0
LINE
8
BLACK
6
CONTINUOUS
10
3.36815
20
-2.53649
11
3.35451
21
-2.55233
0
LINE
8
BLACK
6
CONTINUOUS
10
3.35451
20
-2.55233
11
3.33973
21
-2.56711
0
LINE
8
BLACK
6
CONTINUOUS
10
3.33973
20
-2.56711
11
3.32389
21
-2.58075
0
LINE
8
BLACK
6
CONTINUOUS
10
3.32389
20
-2.58075
11
3.30707
21
-2.59316
0
LINE
8
BLACK
6
CONTINUOUS
10
3.30707
20
-2.59316
11
3.28937
21
-2.60428
0
LINE
8
BLACK
6
CONTINUOUS
10
3.28937
20
-2.60428
11
3.27089
21
-2.61405
0
LINE
8
BLACK
6
CONTINUOUS
10
3.27089
20
-2.61405
11
3.25173
21
-2.62241
0
LINE
8
BLACK
6
CONTINUOUS
10
3.25173
20
-2.62241
11
3.232
21
-2.62931
0
LINE
8
BLACK
6
CONTINUOUS
10
3.232
20
-2.62931
11
3.21181
21
-2.63472
0
LINE
8
BLACK
6
CONTINUOUS
10
3.21181
20
-2.63472
11
3.19127
21
-2.63861
0
LINE
8
BLACK
6
CONTINUOUS
10
3.19127
20
-2.63861
11
3.1705
21
-2.64095
0
LINE
8
BLACK
6
CONTINUOUS
10
3.1705
20
-2.64095
11
3.14961
21
-2.64173
0
LINE
8
BLACK
6
CONTINUOUS
10
3.14961
20
-2.64173
11
3.12872
21
-2.64095
0
LINE
8
BLACK
6
CONTINUOUS
10
3.12872
20
-2.64095
11
3.10794
21
-2.63861
0
LINE
8
BLACK
6
CONTINUOUS
10
3.10794
20
-2.63861
11
3.08741
21
-2.63472
0
LINE
8
BLACK
6
CONTINUOUS
10
3.08741
20
-2.63472
11
3.06721
21
-2.62931
0
LINE
8
BLACK
6
CONTINUOUS
10
3.06721
20
-2.62931
11
3.04748
21
-2.62241
0
LINE
8
BLACK
6
CONTINUOUS
10
3.04748
20
-2.62241
11
3.02832
21
-2.61405
0
LINE
8
BLACK
6
CONTINUOUS
10
3.02832
20
-2.61405
11
3.00984
21
-2.60428
0
LINE
8
BLACK
6
CONTINUOUS
10
3.00984
20
-2.60428
11
2.99214
21
-2.59316
0
LINE
8
BLACK
6
CONTINUOUS
10
2.99214
20
-2.59316
11
2.97532
21
-2.58075
0
LINE
8
BLACK
6
CONTINUOUS
10
2.97532
20
-2.58075
11
2.95948
21
-2.56711
0
LINE
8
BLACK
6
CONTINUOUS
10
2.95948
20
-2.56711
11
2.9447
21
-2.55233
0
LINE
8
BLACK
6
CONTINUOUS
10
2.9447
20
-2.55233
11
2.93106
21
-2.53649
0
LINE
8
BLACK
6
CONTINUOUS
10
2.93106
20
-2.53649
11
2.91865
21
-2.51967
0
LINE
8
BLACK
6
CONTINUOUS
10
2.91865
20
-2.51967
11
2.90753
21
-2.50197
0
LINE
8
BLACK
6
CONTINUOUS
10
2.90753
20
-2.50197
11
2.89776
21
-2.48349
0
LINE
8
BLACK
6
CONTINUOUS
10
2.89776
20
-2.48349
11
2.8894
21
-2.46433
0
LINE
8
BLACK
6
CONTINUOUS
10
2.8894
20
-2.46433
11
2.8825
21
-2.4446
0
LINE
8
BLACK
6
CONTINUOUS
10
2.8825
20
-2.4446
11
2.87709
21
-2.42441
0
LINE
8
BLACK
6
CONTINUOUS
10
2.87709
20
-2.42441
11
2.8732
21
-2.40387
0
LINE
8
BLACK
6
CONTINUOUS
10
2.8732
20
-2.40387
11
2.87086
21
-2.38309
0
LINE
8
BLACK
6
CONTINUOUS
10
2.87086
20
-2.38309
11
2.87008
21
-2.3622
0
LINE
8
BLACK
6
CONTINUOUS
10
2.87008
20
-2.3622
11
2.87086
21
-2.34132
0
LINE
8
BLACK
6
CONTINUOUS
10
2.87086
20
-2.34132
11
2.8732
21
-2.32054
0
LINE
8
BLACK
6
CONTINUOUS
10
2.8732
20
-2.32054
11
2.87709
21
-2.3
0
LINE
8
BLACK
6
CONTINUOUS
10
2.87709
20
-2.3
11
2.8825
21
-2.27981
0
LINE
8
BLACK
6
CONTINUOUS
10
2.8825
20
-2.27981
11
2.8894
21
-2.26008
0
LINE
8
BLACK
6
CONTINUOUS
10
2.8894
20
-2.26008
11
2.89776
21
-2.24092
0
LINE
8
BLACK
6
CONTINUOUS
10
2.89776
20
-2.24092
11
2.90753
21
-2.22244
0
LINE
8
BLACK
6
CONTINUOUS
10
2.90753
20
-2.22244
11
2.91865
21
-2.20474
0
LINE
8
BLACK
6
CONTINUOUS
10
2.91865
20
-2.20474
11
2.93106
21
-2.18792
0
LINE
8
BLACK
6
CONTINUOUS
10
2.93106
20
-2.18792
11
2.9447
21
-2.17208
0
LINE
8
BLACK
6
CONTINUOUS
10
2.9447
20
-2.17208
11
2.95948
21
-2.1573
0
LINE
8
BLACK
6
CONTINUOUS
10
2.95948
20
-2.1573
11
2.97532
21
-2.14366
0
LINE
8
BLACK
6
CONTINUOUS
10
2.97532
20
-2.14366
11
2.99214
21
-2.13125
0
LINE
8
BLACK
6
CONTINUOUS
10
2.99214
20
-2.13125
11
3.00984
21
-2.12013
0
LINE
8
BLACK
6
CONTINUOUS
10
3.00984
20
-2.12013
11
3.02832
21
-2.11036
0
LINE
8
BLACK
6
CONTINUOUS
10
3.02832
20
-2.11036
11
3.04748
21
-2.102
0
LINE
8
BLACK
6
CONTINUOUS
10
3.04748
20
-2.102
11
3.06721
21
-2.0951
0
LINE
8
BLACK
6
CONTINUOUS
10
3.06721
20
-2.0951
11
3.08741
21
-2.08969
0
LINE
8
BLACK
6
CONTINUOUS
10
3.08741
20
-2.08969
11
3.10794
21
-2.0858
0
LINE
8
BLACK
6
CONTINUOUS
10
3.10794
20
-2.0858
11
3.12872
21
-2.08346
0
LINE
8
BLACK
6
CONTINUOUS
10
3.12872
20
-2.08346
11
3.14961
21
-2.08268
0
LINE
8
BLACK
6
CONTINUOUS
10
3.14961
20
-2.08268
11
3.1705
21
-2.08346
0
LINE
8
BLACK
6
CONTINUOUS
10
2.87459
20
-2.38281
11
2.8769
21
-2.40331
0
LINE
8
BLACK
6
CONTINUOUS
10
2.8769
20
-2.40331
11
2.88074
21
-2.42357
0
LINE
8
BLACK
6
CONTINUOUS
10
2.88074
20
-2.42357
11
2.88608
21
-2.44349
0
LINE
8
BLACK
6
CONTINUOUS
10
2.88608
20
-2.44349
11
2.89289
21
-2.46296
0
LINE
8
BLACK
6
CONTINUOUS
10
2.89289
20
-2.46296
11
2.90113
21
-2.48186
0
LINE
8
BLACK
6
CONTINUOUS
10
2.90113
20
-2.48186
11
2.91077
21
-2.5001
0
LINE
8
BLACK
6
CONTINUOUS
10
2.91077
20
-2.5001
11
2.92174
21
-2.51756
0
LINE
8
BLACK
6
CONTINUOUS
10
2.92174
20
-2.51756
11
2.93399
21
-2.53415
0
LINE
8
BLACK
6
CONTINUOUS
10
2.93399
20
-2.53415
11
2.94744
21
-2.54979
0
LINE
8
BLACK
6
CONTINUOUS
10
2.94744
20
-2.54979
11
2.96203
21
-2.56437
0
LINE
8
BLACK
6
CONTINUOUS
10
2.96203
20
-2.56437
11
2.97766
21
-2.57782
0
LINE
8
BLACK
6
CONTINUOUS
10
2.97766
20
-2.57782
11
2.99425
21
-2.59007
0
LINE
8
BLACK
6
CONTINUOUS
10
2.99425
20
-2.59007
11
3.01171
21
-2.60104
0
LINE
8
BLACK
6
CONTINUOUS
10
3.01171
20
-2.60104
11
3.02995
21
-2.61068
0
LINE
8
BLACK
6
CONTINUOUS
10
3.02995
20
-2.61068
11
3.04885
21
-2.61892
0
LINE
8
BLACK
6
CONTINUOUS
10
3.04885
20
-2.61892
11
3.06832
21
-2.62574
0
LINE
8
BLACK
6
CONTINUOUS
10
3.06832
20
-2.62574
11
3.08824
21
-2.63107
0
LINE
8
BLACK
6
CONTINUOUS
10
3.08824
20
-2.63107
11
3.1085
21
-2.63491
0
LINE
8
BLACK
6
CONTINUOUS
10
3.1085
20
-2.63491
11
3.129
21
-2.63722
0
LINE
8
BLACK
6
CONTINUOUS
10
3.129
20
-2.63722
11
3.14961
21
-2.63799
0
LINE
8
BLACK
6
CONTINUOUS
10
3.14961
20
-2.63799
11
3.17022
21
-2.63722
0
LINE
8
BLACK
6
CONTINUOUS
10
3.17022
20
-2.63722
11
3.19071
21
-2.63491
0
LINE
8
BLACK
6
CONTINUOUS
10
3.19071
20
-2.63491
11
3.21097
21
-2.63107
0
LINE
8
BLACK
6
CONTINUOUS
10
3.21097
20
-2.63107
11
3.23089
21
-2.62574
0
LINE
8
BLACK
6
CONTINUOUS
10
3.23089
20
-2.62574
11
3.25036
21
-2.61892
0
LINE
8
BLACK
6
CONTINUOUS
10
3.25036
20
-2.61892
11
3.26926
21
-2.61068
0
LINE
8
BLACK
6
CONTINUOUS
10
3.26926
20
-2.61068
11
3.2875
21
-2.60104
0
LINE
8
BLACK
6
CONTINUOUS
10
3.2875
20
-2.60104
11
3.30496
21
-2.59007
0
LINE
8
BLACK
6
CONTINUOUS
10
3.30496
20
-2.59007
11
3.32155
21
-2.57782
0
LINE
8
BLACK
6
CONTINUOUS
10
3.32155
20
-2.57782
11
3.33719
21
-2.56437
0
LINE
8
BLACK
6
CONTINUOUS
10
3.33719
20
-2.56437
11
3.35177
21
-2.54979
0
LINE
8
BLACK
6
CONTINUOUS
10
3.35177
20
-2.54979
11
3.36522
21
-2.53415
0
LINE
8
BLACK
6
CONTINUOUS
10
3.36522
20
-2.53415
11
3.37747
21
-2.51756
0
LINE
8
BLACK
6
CONTINUOUS
10
3.37747
20
-2.51756
11
3.38844
21
-2.5001
0
LINE
8
BLACK
6
CONTINUOUS
10
3.38844
20
-2.5001
11
3.39808
21
-2.48186
0
LINE
8
BLACK
6
CONTINUOUS
10
3.39808
20
-2.48186
11
3.40633
21
-2.46296
0
LINE
8
BLACK
6
CONTINUOUS
10
3.40633
20
-2.46296
11
3.41314
21
-2.44349
0
LINE
8
BLACK
6
CONTINUOUS
10
3.41314
20
-2.44349
11
3.41848
21
-2.42357
0
LINE
8
BLACK
6
CONTINUOUS
10
3.41848
20
-2.42357
11
3.42231
21
-2.40331
0
LINE
8
BLACK
6
CONTINUOUS
10
3.42231
20
-2.40331
11
3.42462
21
-2.38281
0
LINE
8
BLACK
6
CONTINUOUS
10
3.42462
20
-2.38281
11
3.42539
21
-2.3622
0
LINE
8
BLACK
6
CONTINUOUS
10
3.42539
20
-2.3622
11
3.42462
21
-2.3416
0
LINE
8
BLACK
6
CONTINUOUS
10
3.42462
20
-2.3416
11
3.42231
21
-2.3211
0
LINE
8
BLACK
6
CONTINUOUS
10
3.42231
20
-2.3211
11
3.41848
21
-2.30084
0
LINE
8
BLACK
6
CONTINUOUS
10
3.41848
20
-2.30084
11
3.41314
21
-2.28092
0
LINE
8
BLACK
6
CONTINUOUS
10
3.41314
20
-2.28092
11
3.40633
21
-2.26145
0
LINE
8
BLACK
6
CONTINUOUS
10
3.40633
20
-2.26145
11
3.39808
21
-2.24255
0
LINE
8
BLACK
6
CONTINUOUS
10
3.39808
20
-2.24255
11
3.38844
21
-2.22431
0
LINE
8
BLACK
6
CONTINUOUS
10
3.38844
20
-2.22431
11
3.37747
21
-2.20685
0
LINE
8
BLACK
6
CONTINUOUS
10
3.37747
20
-2.20685
11
3.36522
21
-2.19026
0
LINE
8
BLACK
6
CONTINUOUS
10
3.36522
20
-2.19026
11
3.35177
21
-2.17462
0
LINE
8
BLACK
6
CONTINUOUS
10
3.35177
20
-2.17462
11
3.33719
21
-2.16004
0
LINE
8
BLACK
6
CONTINUOUS
10
3.33719
20
-2.16004
11
3.32155
21
-2.14659
0
LINE
8
BLACK
6
CONTINUOUS
10
3.32155
20
-2.14659
11
3.30496
21
-2.13434
0
LINE
8
BLACK
6
CONTINUOUS
10
3.30496
20
-2.13434
11
3.2875
21
-2.12337
0
LINE
8
BLACK
6
CONTINUOUS
10
3.2875
20
-2.12337
11
3.26926
21
-2.11373
0
LINE
8
BLACK
6
CONTINUOUS
10
3.26926
20
-2.11373
11
3.25036
21
-2.10549
0
LINE
8
BLACK
6
CONTINUOUS
10
3.25036
20
-2.10549
11
3.23089
21
-2.09867
0
LINE
8
BLACK
6
CONTINUOUS
10
3.23089
20
-2.09867
11
3.21097
21
-2.09334
0
LINE
8
BLACK
6
CONTINUOUS
10
3.21097
20
-2.09334
11
3.19071
21
-2.0895
0
LINE
8
BLACK
6
CONTINUOUS
10
3.19071
20
-2.0895
11
3.17022
21
-2.08719
0
LINE
8
BLACK
6
CONTINUOUS
10
3.17022
20
-2.08719
11
3.14961
21
-2.08642
0
LINE
8
BLACK
6
CONTINUOUS
10
3.14961
20
-2.08642
11
3.129
21
-2.08719
0
LINE
8
BLACK
6
CONTINUOUS
10
3.129
20
-2.08719
11
3.1085
21
-2.0895
0
LINE
8
BLACK
6
CONTINUOUS
10
3.1085
20
-2.0895
11
3.08824
21
-2.09334
0
LINE
8
BLACK
6
CONTINUOUS
10
3.08824
20
-2.09334
11
3.06832
21
-2.09867
0
LINE
8
BLACK
6
CONTINUOUS
10
3.06832
20
-2.09867
11
3.04885
21
-2.10549
0
LINE
8
BLACK
6
CONTINUOUS
10
3.04885
20
-2.10549
11
3.02995
21
-2.11373
0
LINE
8
BLACK
6
CONTINUOUS
10
3.02995
20
-2.11373
11
3.01171
21
-2.12337
0
LINE
8
BLACK
6
CONTINUOUS
10
3.01171
20
-2.12337
11
2.99425
21
-2.13434
0
LINE
8
BLACK
6
CONTINUOUS
10
2.99425
20
-2.13434
11
2.97766
21
-2.14659
0
LINE
8
BLACK
6
CONTINUOUS
10
2.97766
20
-2.14659
11
2.96203
21
-2.16004
0
LINE
8
BLACK
6
CONTINUOUS
10
2.96203
20
-2.16004
11
2.94744
21
-2.17462
0
LINE
8
BLACK
6
CONTINUOUS
10
2.94744
20
-2.17462
11
2.93399
21
-2.19026
0
LINE
8
BLACK
6
CONTINUOUS
10
2.93399
20
-2.19026
11
2.92174
21
-2.20685
0
LINE
8
BLACK
6
CONTINUOUS
10
2.92174
20
-2.20685
11
2.91077
21
-2.22431
0
LINE
8
BLACK
6
CONTINUOUS
10
2.91077
20
-2.22431
11
2.90113
21
-2.24255
0
LINE
8
BLACK
6
CONTINUOUS
10
2.90113
20
-2.24255
11
2.89289
21
-2.26145
0
LINE
8
BLACK
6
CONTINUOUS
10
2.89289
20
-2.26145
11
2.88608
21
-2.28092
0
LINE
8
BLACK
6
CONTINUOUS
10
2.88608
20
-2.28092
11
2.88074
21
-2.30084
0
LINE
8
BLACK
6
CONTINUOUS
10
2.88074
20
-2.30084
11
2.8769
21
-2.3211
0
LINE
8
BLACK
6
CONTINUOUS
10
2.8769
20
-2.3211
11
2.87459
21
-2.3416
0
LINE
8
BLACK
6
CONTINUOUS
10
2.87459
20
-2.3416
11
2.87382
21
-2.3622
0
LINE
8
BLACK
6
CONTINUOUS
10
2.87382
20
-2.3622
11
2.87459
21
-2.38281
0
LINE
8
BLACK
6
CONTINUOUS
10
3.50395
20
-2.53206
11
3.50464
21
-2.53396
0
LINE
8
BLACK
6
CONTINUOUS
10
3.50464
20
-2.53396
11
3.50464
21
-2.57333
0
LINE
8
BLACK
6
CONTINUOUS
10
3.50464
20
-2.57333
11
3.50457
21
-2.57371
0
LINE
8
BLACK
6
CONTINUOUS
10
3.50457
20
-2.57371
11
3.5046
21
-2.57384
0
LINE
8
BLACK
6
CONTINUOUS
10
3.5046
20
-2.57384
11
3.50453
21
-2.57396
0
LINE
8
BLACK
6
CONTINUOUS
10
3.50453
20
-2.57396
11
3.50446
21
-2.57434
0
LINE
8
BLACK
6
CONTINUOUS
10
3.50446
20
-2.57434
11
3.50397
21
-2.57493
0
LINE
8
BLACK
6
CONTINUOUS
10
3.50397
20
-2.57493
11
3.50359
21
-2.57559
0
LINE
8
BLACK
6
CONTINUOUS
10
3.50359
20
-2.57559
11
3.50333
21
-2.57568
0
LINE
8
BLACK
6
CONTINUOUS
10
3.50333
20
-2.57568
11
3.50316
21
-2.57589
0
LINE
8
BLACK
6
CONTINUOUS
10
3.50316
20
-2.57589
11
3.50241
21
-2.57602
0
LINE
8
BLACK
6
CONTINUOUS
10
3.50241
20
-2.57602
11
3.50169
21
-2.57628
0
LINE
8
BLACK
6
CONTINUOUS
10
3.50169
20
-2.57628
11
3.48294
21
-2.57628
0
LINE
8
BLACK
6
CONTINUOUS
10
3.48294
20
-2.57628
11
3.48193
21
-2.57611
0
LINE
8
BLACK
6
CONTINUOUS
10
3.48193
20
-2.57611
11
3.48038
21
-2.57481
0
LINE
8
BLACK
6
CONTINUOUS
10
3.48038
20
-2.57481
11
3.48003
21
-2.57282
0
LINE
8
BLACK
6
CONTINUOUS
10
3.48003
20
-2.57282
11
3.48104
21
-2.57107
0
LINE
8
BLACK
6
CONTINUOUS
10
3.48104
20
-2.57107
11
3.48294
21
-2.57038
0
LINE
8
BLACK
6
CONTINUOUS
10
3.48294
20
-2.57038
11
3.49873
21
-2.57038
0
LINE
8
BLACK
6
CONTINUOUS
10
3.49873
20
-2.57038
11
3.49873
21
-2.53396
0
LINE
8
BLACK
6
CONTINUOUS
10
3.49873
20
-2.53396
11
3.49891
21
-2.53295
0
LINE
8
BLACK
6
CONTINUOUS
10
3.49891
20
-2.53295
11
3.50021
21
-2.5314
0
LINE
8
BLACK
6
CONTINUOUS
10
3.50021
20
-2.5314
11
3.5022
21
-2.53105
0
LINE
8
BLACK
6
CONTINUOUS
10
3.5022
20
-2.53105
11
3.50395
21
-2.53206
0
LINE
8
BLACK
6
CONTINUOUS
10
3.67096
20
-2.57313
11
3.67165
21
-2.5748
0
LINE
8
BLACK
6
CONTINUOUS
10
3.67165
20
-2.5748
11
3.67096
21
-2.57647
0
LINE
8
BLACK
6
CONTINUOUS
10
3.67096
20
-2.57647
11
3.66929
21
-2.57717
0
LINE
8
BLACK
6
CONTINUOUS
10
3.66929
20
-2.57717
11
3.64921
21
-2.57717
0
LINE
8
BLACK
6
CONTINUOUS
10
3.64921
20
-2.57717
11
3.64921
21
-2.77717
0
LINE
8
BLACK
6
CONTINUOUS
10
3.64921
20
-2.77717
11
3.66929
21
-2.77717
0
LINE
8
BLACK
6
CONTINUOUS
10
3.66929
20
-2.77717
11
3.67096
21
-2.77786
0
LINE
8
BLACK
6
CONTINUOUS
10
3.67096
20
-2.77786
11
3.67165
21
-2.77953
0
LINE
8
BLACK
6
CONTINUOUS
10
3.67165
20
-2.77953
11
3.67165
21
-2.83307
0
LINE
8
BLACK
6
CONTINUOUS
10
3.67165
20
-2.83307
11
3.67096
21
-2.83474
0
LINE
8
BLACK
6
CONTINUOUS
10
3.67096
20
-2.83474
11
3.66929
21
-2.83543
0
LINE
8
BLACK
6
CONTINUOUS
10
3.66929
20
-2.83543
11
3.66762
21
-2.83474
0
LINE
8
BLACK
6
CONTINUOUS
10
3.66762
20
-2.83474
11
3.66693
21
-2.83307
0
LINE
8
BLACK
6
CONTINUOUS
10
3.66693
20
-2.83307
11
3.66693
21
-2.78189
0
LINE
8
BLACK
6
CONTINUOUS
10
3.66693
20
-2.78189
11
3.64685
21
-2.78189
0
LINE
8
BLACK
6
CONTINUOUS
10
3.64685
20
-2.78189
11
3.64518
21
-2.7812
0
LINE
8
BLACK
6
CONTINUOUS
10
3.64518
20
-2.7812
11
3.64449
21
-2.77953
0
LINE
8
BLACK
6
CONTINUOUS
10
3.64449
20
-2.77953
11
3.64449
21
-2.5748
0
LINE
8
BLACK
6
CONTINUOUS
10
3.64449
20
-2.5748
11
3.64518
21
-2.57313
0
LINE
8
BLACK
6
CONTINUOUS
10
3.64518
20
-2.57313
11
3.64685
21
-2.57244
0
LINE
8
BLACK
6
CONTINUOUS
10
3.64685
20
-2.57244
11
3.66929
21
-2.57244
0
LINE
8
BLACK
6
CONTINUOUS
10
3.66929
20
-2.57244
11
3.67096
21
-2.57313
0
LINE
8
BLACK
6
CONTINUOUS
10
3.95613
20
-2.80673
11
3.9563
21
-2.80672
0
LINE
8
BLACK
6
CONTINUOUS
10
3.9563
20
-2.80672
11
3.95699
21
-2.80723
0
LINE
8
BLACK
6
CONTINUOUS
10
3.95699
20
-2.80723
11
3.95774
21
-2.80765
0
LINE
8
BLACK
6
CONTINUOUS
10
3.95774
20
-2.80765
11
3.95779
21
-2.80781
0
LINE
8
BLACK
6
CONTINUOUS
10
3.95779
20
-2.80781
11
3.95793
21
-2.80791
0
LINE
8
BLACK
6
CONTINUOUS
10
3.95793
20
-2.80791
11
3.96152
21
-2.8133
0
LINE
8
BLACK
6
CONTINUOUS
10
3.96152
20
-2.8133
11
3.96472
21
-2.8165
0
LINE
8
BLACK
6
CONTINUOUS
10
3.96472
20
-2.8165
11
3.96804
21
-2.81816
0
LINE
8
BLACK
6
CONTINUOUS
10
3.96804
20
-2.81816
11
3.96887
21
-2.81877
0
LINE
8
BLACK
6
CONTINUOUS
10
3.96887
20
-2.81877
11
3.96967
21
-2.82062
0
LINE
8
BLACK
6
CONTINUOUS
10
3.96967
20
-2.82062
11
3.96909
21
-2.82256
0
LINE
8
BLACK
6
CONTINUOUS
10
3.96909
20
-2.82256
11
3.96741
21
-2.82367
0
LINE
8
BLACK
6
CONTINUOUS
10
3.96741
20
-2.82367
11
3.9654
21
-2.82344
0
LINE
8
BLACK
6
CONTINUOUS
10
3.9654
20
-2.82344
11
3.96165
21
-2.82157
0
LINE
8
BLACK
6
CONTINUOUS
10
3.96165
20
-2.82157
11
3.96094
21
-2.82104
0
LINE
8
BLACK
6
CONTINUOUS
10
3.96094
20
-2.82104
11
3.96089
21
-2.82101
0
LINE
8
BLACK
6
CONTINUOUS
10
3.96089
20
-2.82101
11
3.95843
21
-2.81856
0
LINE
8
BLACK
6
CONTINUOUS
10
3.95843
20
-2.81856
11
3.95843
21
-2.84597
0
LINE
8
BLACK
6
CONTINUOUS
10
3.95843
20
-2.84597
11
3.96672
21
-2.84597
0
LINE
8
BLACK
6
CONTINUOUS
10
3.96672
20
-2.84597
11
3.96773
21
-2.84615
0
LINE
8
BLACK
6
CONTINUOUS
10
3.96773
20
-2.84615
11
3.96928
21
-2.84745
0
LINE
8
BLACK
6
CONTINUOUS
10
3.96928
20
-2.84745
11
3.96963
21
-2.84943
0
LINE
8
BLACK
6
CONTINUOUS
10
3.96963
20
-2.84943
11
3.96862
21
-2.85118
0
LINE
8
BLACK
6
CONTINUOUS
10
3.96862
20
-2.85118
11
3.96672
21
-2.85187
0
LINE
8
BLACK
6
CONTINUOUS
10
3.96672
20
-2.85187
11
3.94423
21
-2.85187
0
LINE
8
BLACK
6
CONTINUOUS
10
3.94423
20
-2.85187
11
3.94322
21
-2.8517
0
LINE
8
BLACK
6
CONTINUOUS
10
3.94322
20
-2.8517
11
3.94167
21
-2.8504
0
LINE
8
BLACK
6
CONTINUOUS
10
3.94167
20
-2.8504
11
3.94132
21
-2.84841
0
LINE
8
BLACK
6
CONTINUOUS
10
3.94132
20
-2.84841
11
3.94233
21
-2.84666
0
LINE
8
BLACK
6
CONTINUOUS
10
3.94233
20
-2.84666
11
3.94423
21
-2.84597
0
LINE
8
BLACK
6
CONTINUOUS
10
3.94423
20
-2.84597
11
3.95252
21
-2.84597
0
LINE
8
BLACK
6
CONTINUOUS
10
3.95252
20
-2.84597
11
3.95252
21
-2.80955
0
LINE
8
BLACK
6
CONTINUOUS
10
3.95252
20
-2.80955
11
3.9527
21
-2.80854
0
LINE
8
BLACK
6
CONTINUOUS
10
3.9527
20
-2.80854
11
3.95281
21
-2.80841
0
LINE
8
BLACK
6
CONTINUOUS
10
3.95281
20
-2.80841
11
3.95283
21
-2.80824
0
LINE
8
BLACK
6
CONTINUOUS
10
3.95283
20
-2.80824
11
3.95345
21
-2.80765
0
LINE
8
BLACK
6
CONTINUOUS
10
3.95345
20
-2.80765
11
3.954
21
-2.80699
0
LINE
8
BLACK
6
CONTINUOUS
10
3.954
20
-2.80699
11
3.95417
21
-2.80697
0
LINE
8
BLACK
6
CONTINUOUS
10
3.95417
20
-2.80697
11
3.95429
21
-2.80685
0
LINE
8
BLACK
6
CONTINUOUS
10
3.95429
20
-2.80685
11
3.95514
21
-2.80679
0
LINE
8
BLACK
6
CONTINUOUS
10
3.95514
20
-2.80679
11
3.95599
21
-2.80664
0
LINE
8
BLACK
6
CONTINUOUS
10
3.95599
20
-2.80664
11
3.95613
21
-2.80673
0
LINE
8
BLACK
6
CONTINUOUS
10
3.98586
20
-2.80765
11
3.98655
21
-2.80955
0
LINE
8
BLACK
6
CONTINUOUS
10
3.98655
20
-2.80955
11
3.98655
21
-2.83719
0
LINE
8
BLACK
6
CONTINUOUS
10
3.98655
20
-2.83719
11
3.98805
21
-2.8417
0
LINE
8
BLACK
6
CONTINUOUS
10
3.98805
20
-2.8417
11
3.99082
21
-2.84447
0
LINE
8
BLACK
6
CONTINUOUS
10
3.99082
20
-2.84447
11
3.99532
21
-2.84597
0
LINE
8
BLACK
6
CONTINUOUS
10
3.99532
20
-2.84597
11
3.99859
21
-2.84597
0
LINE
8
BLACK
6
CONTINUOUS
10
3.99859
20
-2.84597
11
3.9996
21
-2.84615
0
LINE
8
BLACK
6
CONTINUOUS
10
3.9996
20
-2.84615
11
4.00115
21
-2.84745
0
LINE
8
BLACK
6
CONTINUOUS
10
4.00115
20
-2.84745
11
4.0015
21
-2.84943
0
LINE
8
BLACK
6
CONTINUOUS
10
4.0015
20
-2.84943
11
4.00049
21
-2.85118
0
LINE
8
BLACK
6
CONTINUOUS
10
4.00049
20
-2.85118
11
3.99859
21
-2.85187
0
LINE
8
BLACK
6
CONTINUOUS
10
3.99859
20
-2.85187
11
3.99484
21
-2.85187
0
LINE
8
BLACK
6
CONTINUOUS
10
3.99484
20
-2.85187
11
3.99397
21
-2.85172
0
LINE
8
BLACK
6
CONTINUOUS
10
3.99397
20
-2.85172
11
3.99391
21
-2.85172
0
LINE
8
BLACK
6
CONTINUOUS
10
3.99391
20
-2.85172
11
3.98829
21
-2.84985
0
LINE
8
BLACK
6
CONTINUOUS
10
3.98829
20
-2.84985
11
3.98738
21
-2.84936
0
LINE
8
BLACK
6
CONTINUOUS
10
3.98738
20
-2.84936
11
3.98729
21
-2.84921
0
LINE
8
BLACK
6
CONTINUOUS
10
3.98729
20
-2.84921
11
3.98713
21
-2.84914
0
LINE
8
BLACK
6
CONTINUOUS
10
3.98713
20
-2.84914
11
3.98338
21
-2.84539
0
LINE
8
BLACK
6
CONTINUOUS
10
3.98338
20
-2.84539
11
3.98279
21
-2.84455
0
LINE
8
BLACK
6
CONTINUOUS
10
3.98279
20
-2.84455
11
3.98278
21
-2.84437
0
LINE
8
BLACK
6
CONTINUOUS
10
3.98278
20
-2.84437
11
3.98267
21
-2.84423
0
LINE
8
BLACK
6
CONTINUOUS
10
3.98267
20
-2.84423
11
3.98079
21
-2.83861
0
LINE
8
BLACK
6
CONTINUOUS
10
3.98079
20
-2.83861
11
3.98067
21
-2.83773
0
LINE
8
BLACK
6
CONTINUOUS
10
3.98067
20
-2.83773
11
3.98064
21
-2.83767
0
LINE
8
BLACK
6
CONTINUOUS
10
3.98064
20
-2.83767
11
3.98064
21
-2.80955
0
LINE
8
BLACK
6
CONTINUOUS
10
3.98064
20
-2.80955
11
3.98082
21
-2.80854
0
LINE
8
BLACK
6
CONTINUOUS
10
3.98082
20
-2.80854
11
3.98212
21
-2.80699
0
LINE
8
BLACK
6
CONTINUOUS
10
3.98212
20
-2.80699
11
3.98411
21
-2.80664
0
LINE
8
BLACK
6
CONTINUOUS
10
3.98411
20
-2.80664
11
3.98586
21
-2.80765
0
LINE
8
BLACK
6
CONTINUOUS
10
3.40258
20
-2.76789
11
3.40413
21
-2.76919
0
LINE
8
BLACK
6
CONTINUOUS
10
3.40413
20
-2.76919
11
3.40448
21
-2.77118
0
LINE
8
BLACK
6
CONTINUOUS
10
3.40448
20
-2.77118
11
3.40347
21
-2.77293
0
LINE
8
BLACK
6
CONTINUOUS
10
3.40347
20
-2.77293
11
3.40157
21
-2.77362
0
LINE
8
BLACK
6
CONTINUOUS
10
3.40157
20
-2.77362
11
3.3622
21
-2.77362
0
LINE
8
BLACK
6
CONTINUOUS
10
3.3622
20
-2.77362
11
3.36119
21
-2.77344
0
LINE
8
BLACK
6
CONTINUOUS
10
3.36119
20
-2.77344
11
3.35965
21
-2.77215
0
LINE
8
BLACK
6
CONTINUOUS
10
3.35965
20
-2.77215
11
3.3593
21
-2.77016
0
LINE
8
BLACK
6
CONTINUOUS
10
3.3593
20
-2.77016
11
3.36031
21
-2.76841
0
LINE
8
BLACK
6
CONTINUOUS
10
3.36031
20
-2.76841
11
3.3622
21
-2.76772
0
LINE
8
BLACK
6
CONTINUOUS
10
3.3622
20
-2.76772
11
3.40157
21
-2.76772
0
LINE
8
BLACK
6
CONTINUOUS
10
3.40157
20
-2.76772
11
3.40258
21
-2.76789
0
LINE
8
BLACK
6
CONTINUOUS
10
3.50915
20
-2.76954
11
3.50984
21
-2.77121
0
LINE
8
BLACK
6
CONTINUOUS
10
3.50984
20
-2.77121
11
3.50984
21
-2.82721
0
LINE
8
BLACK
6
CONTINUOUS
10
3.50984
20
-2.82721
11
3.50915
21
-2.82888
0
LINE
8
BLACK
6
CONTINUOUS
10
3.50915
20
-2.82888
11
3.50748
21
-2.82958
0
LINE
8
BLACK
6
CONTINUOUS
10
3.50748
20
-2.82958
11
3.50581
21
-2.82888
0
LINE
8
BLACK
6
CONTINUOUS
10
3.50581
20
-2.82888
11
3.50512
21
-2.82721
0
LINE
8
BLACK
6
CONTINUOUS
10
3.50512
20
-2.82721
11
3.50512
21
-2.77121
0
LINE
8
BLACK
6
CONTINUOUS
10
3.50512
20
-2.77121
11
3.50581
21
-2.76954
0
LINE
8
BLACK
6
CONTINUOUS
10
3.50581
20
-2.76954
11
3.50748
21
-2.76885
0
LINE
8
BLACK
6
CONTINUOUS
10
3.50748
20
-2.76885
11
3.50915
21
-2.76954
0
LINE
8
BLACK
6
CONTINUOUS
10
3.5808
20
-2.76954
11
3.5815
21
-2.77121
0
LINE
8
BLACK
6
CONTINUOUS
10
3.5815
20
-2.77121
11
3.5815
21
-2.82721
0
LINE
8
BLACK
6
CONTINUOUS
10
3.5815
20
-2.82721
11
3.5808
21
-2.82888
0
LINE
8
BLACK
6
CONTINUOUS
10
3.5808
20
-2.82888
11
3.57913
21
-2.82958
0
LINE
8
BLACK
6
CONTINUOUS
10
3.57913
20
-2.82958
11
3.57746
21
-2.82888
0
LINE
8
BLACK
6
CONTINUOUS
10
3.57746
20
-2.82888
11
3.57677
21
-2.82721
0
LINE
8
BLACK
6
CONTINUOUS
10
3.57677
20
-2.82721
11
3.57677
21
-2.77121
0
LINE
8
BLACK
6
CONTINUOUS
10
3.57677
20
-2.77121
11
3.57746
21
-2.76954
0
LINE
8
BLACK
6
CONTINUOUS
10
3.57746
20
-2.76954
11
3.57913
21
-2.76885
0
LINE
8
BLACK
6
CONTINUOUS
10
3.57913
20
-2.76885
11
3.5808
21
-2.76954
0
LINE
8
BLACK
6
CONTINUOUS
10
3.77096
20
-2.77786
11
3.77165
21
-2.77953
0
LINE
8
BLACK
6
CONTINUOUS
10
3.77165
20
-2.77953
11
3.77096
21
-2.7812
0
LINE
8
BLACK
6
CONTINUOUS
10
3.77096
20
-2.7812
11
3.76929
21
-2.78189
0
LINE
8
BLACK
6
CONTINUOUS
10
3.76929
20
-2.78189
11
3.72913
21
-2.78189
0
LINE
8
BLACK
6
CONTINUOUS
10
3.72913
20
-2.78189
11
3.72746
21
-2.7812
0
LINE
8
BLACK
6
CONTINUOUS
10
3.72746
20
-2.7812
11
3.72677
21
-2.77953
0
LINE
8
BLACK
6
CONTINUOUS
10
3.72677
20
-2.77953
11
3.72746
21
-2.77786
0
LINE
8
BLACK
6
CONTINUOUS
10
3.72746
20
-2.77786
11
3.72913
21
-2.77717
0
LINE
8
BLACK
6
CONTINUOUS
10
3.72913
20
-2.77717
11
3.76929
21
-2.77717
0
LINE
8
BLACK
6
CONTINUOUS
10
3.76929
20
-2.77717
11
3.77096
21
-2.77786
0
LINE
8
BLACK
6
CONTINUOUS
10
3.87096
20
-2.77786
11
3.87165
21
-2.77953
0
LINE
8
BLACK
6
CONTINUOUS
10
3.87165
20
-2.77953
11
3.87096
21
-2.7812
0
LINE
8
BLACK
6
CONTINUOUS
10
3.87096
20
-2.7812
11
3.86929
21
-2.78189
0
LINE
8
BLACK
6
CONTINUOUS
10
3.86929
20
-2.78189
11
3.82913
21
-2.78189
0
LINE
8
BLACK
6
CONTINUOUS
10
3.82913
20
-2.78189
11
3.82746
21
-2.7812
0
LINE
8
BLACK
6
CONTINUOUS
10
3.82746
20
-2.7812
11
3.82677
21
-2.77953
0
LINE
8
BLACK
6
CONTINUOUS
10
3.82677
20
-2.77953
11
3.82746
21
-2.77786
0
LINE
8
BLACK
6
CONTINUOUS
10
3.82746
20
-2.77786
11
3.82913
21
-2.77717
0
LINE
8
BLACK
6
CONTINUOUS
10
3.82913
20
-2.77717
11
3.86929
21
-2.77717
0
LINE
8
BLACK
6
CONTINUOUS
10
3.86929
20
-2.77717
11
3.87096
21
-2.77786
0
LINE
8
BLACK
6
CONTINUOUS
10
3.77096
20
-2.57313
11
3.77165
21
-2.5748
0
LINE
8
BLACK
6
CONTINUOUS
10
3.77165
20
-2.5748
11
3.77096
21
-2.57647
0
LINE
8
BLACK
6
CONTINUOUS
10
3.77096
20
-2.57647
11
3.76929
21
-2.57717
0
LINE
8
BLACK
6
CONTINUOUS
10
3.76929
20
-2.57717
11
3.72913
21
-2.57717
0
LINE
8
BLACK
6
CONTINUOUS
10
3.72913
20
-2.57717
11
3.72746
21
-2.57647
0
LINE
8
BLACK
6
CONTINUOUS
10
3.72746
20
-2.57647
11
3.72677
21
-2.5748
0
LINE
8
BLACK
6
CONTINUOUS
10
3.72677
20
-2.5748
11
3.72746
21
-2.57313
0
LINE
8
BLACK
6
CONTINUOUS
10
3.72746
20
-2.57313
11
3.72913
21
-2.57244
0
LINE
8
BLACK
6
CONTINUOUS
10
3.72913
20
-2.57244
11
3.76929
21
-2.57244
0
LINE
8
BLACK
6
CONTINUOUS
10
3.76929
20
-2.57244
11
3.77096
21
-2.57313
0
LINE
8
BLACK
6
CONTINUOUS
10
3.87096
20
-2.57313
11
3.87165
21
-2.5748
0
LINE
8
BLACK
6
CONTINUOUS
10
3.87165
20
-2.5748
11
3.87096
21
-2.57647
0
LINE
8
BLACK
6
CONTINUOUS
10
3.87096
20
-2.57647
11
3.86929
21
-2.57717
0
LINE
8
BLACK
6
CONTINUOUS
10
3.86929
20
-2.57717
11
3.82913
21
-2.57717
0
LINE
8
BLACK
6
CONTINUOUS
10
3.82913
20
-2.57717
11
3.82746
21
-2.57647
0
LINE
8
BLACK
6
CONTINUOUS
10
3.82746
20
-2.57647
11
3.82677
21
-2.5748
0
LINE
8
BLACK
6
CONTINUOUS
10
3.82677
20
-2.5748
11
3.82746
21
-2.57313
0
LINE
8
BLACK
6
CONTINUOUS
10
3.82746
20
-2.57313
11
3.82913
21
-2.57244
0
LINE
8
BLACK
6
CONTINUOUS
10
3.82913
20
-2.57244
11
3.86929
21
-2.57244
0
LINE
8
BLACK
6
CONTINUOUS
10
3.86929
20
-2.57244
11
3.87096
21
-2.57313
0
LINE
8
BLACK
6
CONTINUOUS
10
3.95157
20
-2.57244
11
3.95325
21
-2.57313
0
LINE
8
BLACK
6
CONTINUOUS
10
3.95325
20
-2.57313
11
3.95394
21
-2.5748
0
LINE
8
BLACK
6
CONTINUOUS
10
3.95394
20
-2.5748
11
3.95394
21
-2.77953
0
LINE
8
BLACK
6
CONTINUOUS
10
3.95394
20
-2.77953
11
3.95325
21
-2.7812
0
LINE
8
BLACK
6
CONTINUOUS
10
3.95325
20
-2.7812
11
3.95157
21
-2.78189
0
LINE
8
BLACK
6
CONTINUOUS
10
3.95157
20
-2.78189
11
3.92913
21
-2.78189
0
LINE
8
BLACK
6
CONTINUOUS
10
3.92913
20
-2.78189
11
3.92746
21
-2.7812
0
LINE
8
BLACK
6
CONTINUOUS
10
3.92746
20
-2.7812
11
3.92677
21
-2.77953
0
LINE
8
BLACK
6
CONTINUOUS
10
3.92677
20
-2.77953
11
3.92746
21
-2.77786
0
LINE
8
BLACK
6
CONTINUOUS
10
3.92746
20
-2.77786
11
3.92913
21
-2.77717
0
LINE
8
BLACK
6
CONTINUOUS
10
3.92913
20
-2.77717
11
3.94921
21
-2.77717
0
LINE
8
BLACK
6
CONTINUOUS
10
3.94921
20
-2.77717
11
3.94921
21
-2.57717
0
LINE
8
BLACK
6
CONTINUOUS
10
3.94921
20
-2.57717
11
3.92913
21
-2.57717
0
LINE
8
BLACK
6
CONTINUOUS
10
3.92913
20
-2.57717
11
3.92746
21
-2.57647
0
LINE
8
BLACK
6
CONTINUOUS
10
3.92746
20
-2.57647
11
3.92677
21
-2.5748
0
LINE
8
BLACK
6
CONTINUOUS
10
3.92677
20
-2.5748
11
3.92746
21
-2.57313
0
LINE
8
BLACK
6
CONTINUOUS
10
3.92746
20
-2.57313
11
3.92913
21
-2.57244
0
LINE
8
BLACK
6
CONTINUOUS
10
3.92913
20
-2.57244
11
3.95157
21
-2.57244
0
LINE
8
BLACK
6
CONTINUOUS
10
3.27574
20
-2.75561
11
3.27643
21
-2.75728
0
LINE
8
BLACK
6
CONTINUOUS
10
3.27643
20
-2.75728
11
3.27574
21
-2.75895
0
LINE
8
BLACK
6
CONTINUOUS
10
3.27574
20
-2.75895
11
3.27407
21
-2.75965
0
LINE
8
BLACK
6
CONTINUOUS
10
3.27407
20
-2.75965
11
3.25349
21
-2.75965
0
LINE
8
BLACK
6
CONTINUOUS
10
3.25349
20
-2.75965
11
3.25182
21
-2.75895
0
LINE
8
BLACK
6
CONTINUOUS
10
3.25182
20
-2.75895
11
3.25113
21
-2.75728
0
LINE
8
BLACK
6
CONTINUOUS
10
3.25113
20
-2.75728
11
3.25182
21
-2.75561
0
LINE
8
BLACK
6
CONTINUOUS
10
3.25182
20
-2.75561
11
3.25349
21
-2.75492
0
LINE
8
BLACK
6
CONTINUOUS
10
3.25349
20
-2.75492
11
3.27407
21
-2.75492
0
LINE
8
BLACK
6
CONTINUOUS
10
3.27407
20
-2.75492
11
3.27574
21
-2.75561
0
LINE
8
BLACK
6
CONTINUOUS
10
3.27574
20
-2.69774
11
3.27643
21
-2.69941
0
LINE
8
BLACK
6
CONTINUOUS
10
3.27643
20
-2.69941
11
3.27574
21
-2.70108
0
LINE
8
BLACK
6
CONTINUOUS
10
3.27574
20
-2.70108
11
3.27407
21
-2.70177
0
LINE
8
BLACK
6
CONTINUOUS
10
3.27407
20
-2.70177
11
3.25349
21
-2.70177
0
LINE
8
BLACK
6
CONTINUOUS
10
3.25349
20
-2.70177
11
3.25182
21
-2.70108
0
LINE
8
BLACK
6
CONTINUOUS
10
3.25182
20
-2.70108
11
3.25113
21
-2.69941
0
LINE
8
BLACK
6
CONTINUOUS
10
3.25113
20
-2.69941
11
3.25182
21
-2.69774
0
LINE
8
BLACK
6
CONTINUOUS
10
3.25182
20
-2.69774
11
3.25349
21
-2.69705
0
LINE
8
BLACK
6
CONTINUOUS
10
3.25349
20
-2.69705
11
3.27407
21
-2.69705
0
LINE
8
BLACK
6
CONTINUOUS
10
3.27407
20
-2.69705
11
3.27574
21
-2.69774
0
LINE
8
BLACK
6
CONTINUOUS
10
3.52539
20
-2.69168
11
3.52612
21
-2.69344
0
LINE
8
BLACK
6
CONTINUOUS
10
3.52612
20
-2.69344
11
3.52539
21
-2.69521
0
LINE
8
BLACK
6
CONTINUOUS
10
3.52539
20
-2.69521
11
3.52362
21
-2.69594
0
LINE
8
BLACK
6
CONTINUOUS
10
3.52362
20
-2.69594
11
3.39764
21
-2.69594
0
LINE
8
BLACK
6
CONTINUOUS
10
3.39764
20
-2.69594
11
3.39587
21
-2.69521
0
LINE
8
BLACK
6
CONTINUOUS
10
3.39587
20
-2.69521
11
3.39514
21
-2.69344
0
LINE
8
BLACK
6
CONTINUOUS
10
3.39514
20
-2.69344
11
3.39587
21
-2.69168
0
LINE
8
BLACK
6
CONTINUOUS
10
3.39587
20
-2.69168
11
3.39764
21
-2.69094
0
LINE
8
BLACK
6
CONTINUOUS
10
3.39764
20
-2.69094
11
3.52362
21
-2.69094
0
LINE
8
BLACK
6
CONTINUOUS
10
3.52362
20
-2.69094
11
3.52539
21
-2.69168
0
LINE
8
BLACK
6
CONTINUOUS
10
3.25539
20
-2.63193
11
3.25664
21
-2.63352
0
LINE
8
BLACK
6
CONTINUOUS
10
3.25664
20
-2.63352
11
3.26602
21
-2.66164
0
LINE
8
BLACK
6
CONTINUOUS
10
3.26602
20
-2.66164
11
3.26617
21
-2.66265
0
LINE
8
BLACK
6
CONTINUOUS
10
3.26617
20
-2.66265
11
3.26609
21
-2.66286
0
LINE
8
BLACK
6
CONTINUOUS
10
3.26609
20
-2.66286
11
3.26612
21
-2.66308
0
LINE
8
BLACK
6
CONTINUOUS
10
3.26612
20
-2.66308
11
3.26572
21
-2.66378
0
LINE
8
BLACK
6
CONTINUOUS
10
3.26572
20
-2.66378
11
3.26543
21
-2.66453
0
LINE
8
BLACK
6
CONTINUOUS
10
3.26543
20
-2.66453
11
3.26523
21
-2.66464
0
LINE
8
BLACK
6
CONTINUOUS
10
3.26523
20
-2.66464
11
3.26512
21
-2.66483
0
LINE
8
BLACK
6
CONTINUOUS
10
3.26512
20
-2.66483
11
3.26436
21
-2.66511
0
LINE
8
BLACK
6
CONTINUOUS
10
3.26436
20
-2.66511
11
3.26365
21
-2.66549
0
LINE
8
BLACK
6
CONTINUOUS
10
3.26365
20
-2.66549
11
3.26343
21
-2.66545
0
LINE
8
BLACK
6
CONTINUOUS
10
3.26343
20
-2.66545
11
3.26322
21
-2.66552
0
LINE
8
BLACK
6
CONTINUOUS
10
3.26322
20
-2.66552
11
3.24742
21
-2.66552
0
LINE
8
BLACK
6
CONTINUOUS
10
3.24742
20
-2.66552
11
3.24742
21
-2.67569
0
LINE
8
BLACK
6
CONTINUOUS
10
3.24742
20
-2.67569
11
3.24724
21
-2.6767
0
LINE
8
BLACK
6
CONTINUOUS
10
3.24724
20
-2.6767
11
3.24595
21
-2.67825
0
LINE
8
BLACK
6
CONTINUOUS
10
3.24595
20
-2.67825
11
3.24396
21
-2.6786
0
LINE
8
BLACK
6
CONTINUOUS
10
3.24396
20
-2.6786
11
3.24221
21
-2.67759
0
LINE
8
BLACK
6
CONTINUOUS
10
3.24221
20
-2.67759
11
3.24152
21
-2.67569
0
LINE
8
BLACK
6
CONTINUOUS
10
3.24152
20
-2.67569
11
3.24152
21
-2.66552
0
LINE
8
BLACK
6
CONTINUOUS
10
3.24152
20
-2.66552
11
3.23885
21
-2.66552
0
LINE
8
BLACK
6
CONTINUOUS
10
3.23885
20
-2.66552
11
3.23784
21
-2.66534
0
LINE
8
BLACK
6
CONTINUOUS
10
3.23784
20
-2.66534
11
3.23629
21
-2.66405
0
LINE
8
BLACK
6
CONTINUOUS
10
3.23629
20
-2.66405
11
3.23594
21
-2.66206
0
LINE
8
BLACK
6
CONTINUOUS
10
3.23594
20
-2.66206
11
3.23695
21
-2.66031
0
LINE
8
BLACK
6
CONTINUOUS
10
3.23695
20
-2.66031
11
3.23885
21
-2.65962
0
LINE
8
BLACK
6
CONTINUOUS
10
3.23885
20
-2.65962
11
3.24152
21
-2.65962
0
LINE
8
BLACK
6
CONTINUOUS
10
3.24152
20
-2.65962
11
3.24152
21
-2.64945
0
LINE
8
BLACK
6
CONTINUOUS
10
3.24152
20
-2.64945
11
3.24169
21
-2.64844
0
LINE
8
BLACK
6
CONTINUOUS
10
3.24169
20
-2.64844
11
3.24299
21
-2.64689
0
LINE
8
BLACK
6
CONTINUOUS
10
3.24299
20
-2.64689
11
3.24498
21
-2.64654
0
LINE
8
BLACK
6
CONTINUOUS
10
3.24498
20
-2.64654
11
3.24673
21
-2.64755
0
LINE
8
BLACK
6
CONTINUOUS
10
3.24673
20
-2.64755
11
3.24742
21
-2.64945
0
LINE
8
BLACK
6
CONTINUOUS
10
3.24742
20
-2.64945
11
3.24742
21
-2.65962
0
LINE
8
BLACK
6
CONTINUOUS
10
3.24742
20
-2.65962
11
3.25912
21
-2.65962
0
LINE
8
BLACK
6
CONTINUOUS
10
3.25912
20
-2.65962
11
3.25104
21
-2.63538
0
LINE
8
BLACK
6
CONTINUOUS
10
3.25104
20
-2.63538
11
3.25089
21
-2.63437
0
LINE
8
BLACK
6
CONTINUOUS
10
3.25089
20
-2.63437
11
3.25163
21
-2.63249
0
LINE
8
BLACK
6
CONTINUOUS
10
3.25163
20
-2.63249
11
3.25341
21
-2.63153
0
LINE
8
BLACK
6
CONTINUOUS
10
3.25341
20
-2.63153
11
3.25539
21
-2.63193
0
LINE
8
BLACK
6
CONTINUOUS
10
3.29033
20
-2.63352
11
3.2904
21
-2.63352
0
LINE
8
BLACK
6
CONTINUOUS
10
3.2904
20
-2.63352
11
3.29602
21
-2.6354
0
LINE
8
BLACK
6
CONTINUOUS
10
3.29602
20
-2.6354
11
3.29692
21
-2.63589
0
LINE
8
BLACK
6
CONTINUOUS
10
3.29692
20
-2.63589
11
3.29702
21
-2.63604
0
LINE
8
BLACK
6
CONTINUOUS
10
3.29702
20
-2.63604
11
3.29718
21
-2.63611
0
LINE
8
BLACK
6
CONTINUOUS
10
3.29718
20
-2.63611
11
3.30093
21
-2.63986
0
LINE
8
BLACK
6
CONTINUOUS
10
3.30093
20
-2.63986
11
3.30143
21
-2.64058
0
LINE
8
BLACK
6
CONTINUOUS
10
3.30143
20
-2.64058
11
3.30148
21
-2.64063
0
LINE
8
BLACK
6
CONTINUOUS
10
3.30148
20
-2.64063
11
3.30335
21
-2.64438
0
LINE
8
BLACK
6
CONTINUOUS
10
3.30335
20
-2.64438
11
3.3035
21
-2.64487
0
LINE
8
BLACK
6
CONTINUOUS
10
3.3035
20
-2.64487
11
3.30358
21
-2.64498
0
LINE
8
BLACK
6
CONTINUOUS
10
3.30358
20
-2.64498
11
3.30545
21
-2.65248
0
LINE
8
BLACK
6
CONTINUOUS
10
3.30545
20
-2.65248
11
3.30549
21
-2.65307
0
LINE
8
BLACK
6
CONTINUOUS
10
3.30549
20
-2.65307
11
3.30554
21
-2.6532
0
LINE
8
BLACK
6
CONTINUOUS
10
3.30554
20
-2.6532
11
3.30554
21
-2.65882
0
LINE
8
BLACK
6
CONTINUOUS
10
3.30554
20
-2.65882
11
3.30544
21
-2.6594
0
LINE
8
BLACK
6
CONTINUOUS
10
3.30544
20
-2.6594
11
3.30545
21
-2.65954
0
LINE
8
BLACK
6
CONTINUOUS
10
3.30545
20
-2.65954
11
3.30358
21
-2.66704
0
LINE
8
BLACK
6
CONTINUOUS
10
3.30358
20
-2.66704
11
3.30337
21
-2.6675
0
LINE
8
BLACK
6
CONTINUOUS
10
3.30337
20
-2.6675
11
3.30335
21
-2.66764
0
LINE
8
BLACK
6
CONTINUOUS
10
3.30335
20
-2.66764
11
3.30148
21
-2.67139
0
LINE
8
BLACK
6
CONTINUOUS
10
3.30148
20
-2.67139
11
3.30095
21
-2.6721
0
LINE
8
BLACK
6
CONTINUOUS
10
3.30095
20
-2.6721
11
3.30093
21
-2.67216
0
LINE
8
BLACK
6
CONTINUOUS
10
3.30093
20
-2.67216
11
3.29718
21
-2.67591
0
LINE
8
BLACK
6
CONTINUOUS
10
3.29718
20
-2.67591
11
3.29634
21
-2.6765
0
LINE
8
BLACK
6
CONTINUOUS
10
3.29634
20
-2.6765
11
3.29616
21
-2.67651
0
LINE
8
BLACK
6
CONTINUOUS
10
3.29616
20
-2.67651
11
3.29602
21
-2.67662
0
LINE
8
BLACK
6
CONTINUOUS
10
3.29602
20
-2.67662
11
3.2904
21
-2.67849
0
LINE
8
BLACK
6
CONTINUOUS
10
3.2904
20
-2.67849
11
3.28952
21
-2.67862
0
LINE
8
BLACK
6
CONTINUOUS
10
3.28952
20
-2.67862
11
3.28946
21
-2.67865
0
LINE
8
BLACK
6
CONTINUOUS
10
3.28946
20
-2.67865
11
3.28571
21
-2.67865
0
LINE
8
BLACK
6
CONTINUOUS
10
3.28571
20
-2.67865
11
3.28484
21
-2.67849
0
LINE
8
BLACK
6
CONTINUOUS
10
3.28484
20
-2.67849
11
3.28478
21
-2.67849
0
LINE
8
BLACK
6
CONTINUOUS
10
3.28478
20
-2.67849
11
3.27916
21
-2.67662
0
LINE
8
BLACK
6
CONTINUOUS
10
3.27916
20
-2.67662
11
3.27825
21
-2.67613
0
LINE
8
BLACK
6
CONTINUOUS
10
3.27825
20
-2.67613
11
3.27816
21
-2.67598
0
LINE
8
BLACK
6
CONTINUOUS
10
3.27816
20
-2.67598
11
3.278
21
-2.67591
0
LINE
8
BLACK
6
CONTINUOUS
10
3.278
20
-2.67591
11
3.27613
21
-2.67403
0
LINE
8
BLACK
6
CONTINUOUS
10
3.27613
20
-2.67403
11
3.27554
21
-2.67319
0
LINE
8
BLACK
6
CONTINUOUS
10
3.27554
20
-2.67319
11
3.27536
21
-2.67118
0
LINE
8
BLACK
6
CONTINUOUS
10
3.27536
20
-2.67118
11
3.27652
21
-2.66953
0
LINE
8
BLACK
6
CONTINUOUS
10
3.27652
20
-2.66953
11
3.27847
21
-2.669
0
LINE
8
BLACK
6
CONTINUOUS
10
3.27847
20
-2.669
11
3.2803
21
-2.66986
0
LINE
8
BLACK
6
CONTINUOUS
10
3.2803
20
-2.66986
11
3.28168
21
-2.67124
0
LINE
8
BLACK
6
CONTINUOUS
10
3.28168
20
-2.67124
11
3.28619
21
-2.67274
0
LINE
8
BLACK
6
CONTINUOUS
10
3.28619
20
-2.67274
11
3.28898
21
-2.67274
0
LINE
8
BLACK
6
CONTINUOUS
10
3.28898
20
-2.67274
11
3.29349
21
-2.67124
0
LINE
8
BLACK
6
CONTINUOUS
10
3.29349
20
-2.67124
11
3.29641
21
-2.66832
0
LINE
8
BLACK
6
CONTINUOUS
10
3.29641
20
-2.66832
11
3.29793
21
-2.66529
0
LINE
8
BLACK
6
CONTINUOUS
10
3.29793
20
-2.66529
11
3.29963
21
-2.65846
0
LINE
8
BLACK
6
CONTINUOUS
10
3.29963
20
-2.65846
11
3.29963
21
-2.65356
0
LINE
8
BLACK
6
CONTINUOUS
10
3.29963
20
-2.65356
11
3.29793
21
-2.64673
0
LINE
8
BLACK
6
CONTINUOUS
10
3.29793
20
-2.64673
11
3.29641
21
-2.6437
0
LINE
8
BLACK
6
CONTINUOUS
10
3.29641
20
-2.6437
11
3.29349
21
-2.64078
0
LINE
8
BLACK
6
CONTINUOUS
10
3.29349
20
-2.64078
11
3.28898
21
-2.63928
0
LINE
8
BLACK
6
CONTINUOUS
10
3.28898
20
-2.63928
11
3.28619
21
-2.63928
0
LINE
8
BLACK
6
CONTINUOUS
10
3.28619
20
-2.63928
11
3.28168
21
-2.64078
0
LINE
8
BLACK
6
CONTINUOUS
10
3.28168
20
-2.64078
11
3.2803
21
-2.64216
0
LINE
8
BLACK
6
CONTINUOUS
10
3.2803
20
-2.64216
11
3.27946
21
-2.64275
0
LINE
8
BLACK
6
CONTINUOUS
10
3.27946
20
-2.64275
11
3.27745
21
-2.64293
0
LINE
8
BLACK
6
CONTINUOUS
10
3.27745
20
-2.64293
11
3.2758
21
-2.64177
0
LINE
8
BLACK
6
CONTINUOUS
10
3.2758
20
-2.64177
11
3.27527
21
-2.63982
0
LINE
8
BLACK
6
CONTINUOUS
10
3.27527
20
-2.63982
11
3.27613
21
-2.63799
0
LINE
8
BLACK
6
CONTINUOUS
10
3.27613
20
-2.63799
11
3.278
21
-2.63611
0
LINE
8
BLACK
6
CONTINUOUS
10
3.278
20
-2.63611
11
3.27884
21
-2.63552
0
LINE
8
BLACK
6
CONTINUOUS
10
3.27884
20
-2.63552
11
3.27902
21
-2.63551
0
LINE
8
BLACK
6
CONTINUOUS
10
3.27902
20
-2.63551
11
3.27916
21
-2.6354
0
LINE
8
BLACK
6
CONTINUOUS
10
3.27916
20
-2.6354
11
3.28478
21
-2.63352
0
LINE
8
BLACK
6
CONTINUOUS
10
3.28478
20
-2.63352
11
3.28565
21
-2.63339
0
LINE
8
BLACK
6
CONTINUOUS
10
3.28565
20
-2.63339
11
3.28571
21
-2.63337
0
LINE
8
BLACK
6
CONTINUOUS
10
3.28571
20
-2.63337
11
3.28946
21
-2.63337
0
LINE
8
BLACK
6
CONTINUOUS
10
3.28946
20
-2.63337
11
3.29033
21
-2.63352
0
LINE
8
BLACK
6
CONTINUOUS
10
3.52539
20
-2.58825
11
3.52612
21
-2.59002
0
LINE
8
BLACK
6
CONTINUOUS
10
3.52612
20
-2.59002
11
3.52539
21
-2.59179
0
LINE
8
BLACK
6
CONTINUOUS
10
3.52539
20
-2.59179
11
3.52362
21
-2.59252
0
LINE
8
BLACK
6
CONTINUOUS
10
3.52362
20
-2.59252
11
3.39764
21
-2.59252
0
LINE
8
BLACK
6
CONTINUOUS
10
3.39764
20
-2.59252
11
3.39587
21
-2.59179
0
LINE
8
BLACK
6
CONTINUOUS
10
3.39587
20
-2.59179
11
3.39514
21
-2.59002
0
LINE
8
BLACK
6
CONTINUOUS
10
3.39514
20
-2.59002
11
3.39587
21
-2.58825
0
LINE
8
BLACK
6
CONTINUOUS
10
3.39587
20
-2.58825
11
3.39764
21
-2.58752
0
LINE
8
BLACK
6
CONTINUOUS
10
3.39764
20
-2.58752
11
3.52362
21
-2.58752
0
LINE
8
BLACK
6
CONTINUOUS
10
3.52362
20
-2.58752
11
3.52539
21
-2.58825
0
LINE
8
BLACK
6
CONTINUOUS
10
3.4611
20
-2.53114
11
3.46127
21
-2.53113
0
LINE
8
BLACK
6
CONTINUOUS
10
3.46127
20
-2.53113
11
3.46196
21
-2.53163
0
LINE
8
BLACK
6
CONTINUOUS
10
3.46196
20
-2.53163
11
3.4627
21
-2.53206
0
LINE
8
BLACK
6
CONTINUOUS
10
3.4627
20
-2.53206
11
3.46276
21
-2.53222
0
LINE
8
BLACK
6
CONTINUOUS
10
3.46276
20
-2.53222
11
3.4629
21
-2.53232
0
LINE
8
BLACK
6
CONTINUOUS
10
3.4629
20
-2.53232
11
3.46649
21
-2.5377
0
LINE
8
BLACK
6
CONTINUOUS
10
3.46649
20
-2.5377
11
3.46969
21
-2.54091
0
LINE
8
BLACK
6
CONTINUOUS
10
3.46969
20
-2.54091
11
3.47301
21
-2.54257
0
LINE
8
BLACK
6
CONTINUOUS
10
3.47301
20
-2.54257
11
3.47384
21
-2.54318
0
LINE
8
BLACK
6
CONTINUOUS
10
3.47384
20
-2.54318
11
3.47464
21
-2.54503
0
LINE
8
BLACK
6
CONTINUOUS
10
3.47464
20
-2.54503
11
3.47406
21
-2.54697
0
LINE
8
BLACK
6
CONTINUOUS
10
3.47406
20
-2.54697
11
3.47238
21
-2.54808
0
LINE
8
BLACK
6
CONTINUOUS
10
3.47238
20
-2.54808
11
3.47037
21
-2.54785
0
LINE
8
BLACK
6
CONTINUOUS
10
3.47037
20
-2.54785
11
3.46662
21
-2.54598
0
LINE
8
BLACK
6
CONTINUOUS
10
3.46662
20
-2.54598
11
3.46591
21
-2.54545
0
LINE
8
BLACK
6
CONTINUOUS
10
3.46591
20
-2.54545
11
3.46585
21
-2.54542
0
LINE
8
BLACK
6
CONTINUOUS
10
3.46585
20
-2.54542
11
3.4634
21
-2.54296
0
LINE
8
BLACK
6
CONTINUOUS
10
3.4634
20
-2.54296
11
3.4634
21
-2.57038
0
LINE
8
BLACK
6
CONTINUOUS
10
3.4634
20
-2.57038
11
3.47169
21
-2.57038
0
LINE
8
BLACK
6
CONTINUOUS
10
3.47169
20
-2.57038
11
3.4727
21
-2.57056
0
LINE
8
BLACK
6
CONTINUOUS
10
3.4727
20
-2.57056
11
3.47425
21
-2.57186
0
LINE
8
BLACK
6
CONTINUOUS
10
3.47425
20
-2.57186
11
3.4746
21
-2.57384
0
LINE
8
BLACK
6
CONTINUOUS
10
3.4746
20
-2.57384
11
3.47359
21
-2.57559
0
LINE
8
BLACK
6
CONTINUOUS
10
3.47359
20
-2.57559
11
3.47169
21
-2.57628
0
LINE
8
BLACK
6
CONTINUOUS
10
3.47169
20
-2.57628
11
3.44919
21
-2.57628
0
LINE
8
BLACK
6
CONTINUOUS
10
3.44919
20
-2.57628
11
3.44818
21
-2.57611
0
LINE
8
BLACK
6
CONTINUOUS
10
3.44818
20
-2.57611
11
3.44664
21
-2.57481
0
LINE
8
BLACK
6
CONTINUOUS
10
3.44664
20
-2.57481
11
3.44629
21
-2.57282
0
LINE
8
BLACK
6
CONTINUOUS
10
3.44629
20
-2.57282
11
3.4473
21
-2.57107
0
LINE
8
BLACK
6
CONTINUOUS
10
3.4473
20
-2.57107
11
3.44919
21
-2.57038
0
LINE
8
BLACK
6
CONTINUOUS
10
3.44919
20
-2.57038
11
3.45749
21
-2.57038
0
LINE
8
BLACK
6
CONTINUOUS
10
3.45749
20
-2.57038
11
3.45749
21
-2.53396
0
LINE
8
BLACK
6
CONTINUOUS
10
3.45749
20
-2.53396
11
3.45767
21
-2.53295
0
LINE
8
BLACK
6
CONTINUOUS
10
3.45767
20
-2.53295
11
3.45778
21
-2.53282
0
LINE
8
BLACK
6
CONTINUOUS
10
3.45778
20
-2.53282
11
3.4578
21
-2.53265
0
LINE
8
BLACK
6
CONTINUOUS
10
3.4578
20
-2.53265
11
3.45842
21
-2.53206
0
LINE
8
BLACK
6
CONTINUOUS
10
3.45842
20
-2.53206
11
3.45897
21
-2.5314
0
LINE
8
BLACK
6
CONTINUOUS
10
3.45897
20
-2.5314
11
3.45913
21
-2.53137
0
LINE
8
BLACK
6
CONTINUOUS
10
3.45913
20
-2.53137
11
3.45926
21
-2.53126
0
LINE
8
BLACK
6
CONTINUOUS
10
3.45926
20
-2.53126
11
3.46011
21
-2.5312
0
LINE
8
BLACK
6
CONTINUOUS
10
3.46011
20
-2.5312
11
3.46096
21
-2.53105
0
LINE
8
BLACK
6
CONTINUOUS
10
3.46096
20
-2.53105
11
3.4611
21
-2.53114
0
LINE
8
BLACK
6
CONTINUOUS
10
3.59908
20
-2.39531
11
3.59925
21
-2.3953
0
LINE
8
BLACK
6
CONTINUOUS
10
3.59925
20
-2.3953
11
3.59994
21
-2.39581
0
LINE
8
BLACK
6
CONTINUOUS
10
3.59994
20
-2.39581
11
3.60069
21
-2.39624
0
LINE
8
BLACK
6
CONTINUOUS
10
3.60069
20
-2.39624
11
3.60075
21
-2.3964
0
LINE
8
BLACK
6
CONTINUOUS
10
3.60075
20
-2.3964
11
3.60088
21
-2.3965
0
LINE
8
BLACK
6
CONTINUOUS
10
3.60088
20
-2.3965
11
3.60447
21
-2.40188
0
LINE
8
BLACK
6
CONTINUOUS
10
3.60447
20
-2.40188
11
3.60767
21
-2.40508
0
LINE
8
BLACK
6
CONTINUOUS
10
3.60767
20
-2.40508
11
3.61099
21
-2.40674
0
LINE
8
BLACK
6
CONTINUOUS
10
3.61099
20
-2.40674
11
3.61182
21
-2.40735
0
LINE
8
BLACK
6
CONTINUOUS
10
3.61182
20
-2.40735
11
3.61262
21
-2.40921
0
LINE
8
BLACK
6
CONTINUOUS
10
3.61262
20
-2.40921
11
3.61205
21
-2.41114
0
LINE
8
BLACK
6
CONTINUOUS
10
3.61205
20
-2.41114
11
3.61036
21
-2.41226
0
LINE
8
BLACK
6
CONTINUOUS
10
3.61036
20
-2.41226
11
3.60835
21
-2.41202
0
LINE
8
BLACK
6
CONTINUOUS
10
3.60835
20
-2.41202
11
3.6046
21
-2.41015
0
LINE
8
BLACK
6
CONTINUOUS
10
3.6046
20
-2.41015
11
3.60389
21
-2.40962
0
LINE
8
BLACK
6
CONTINUOUS
10
3.60389
20
-2.40962
11
3.60384
21
-2.4096
0
LINE
8
BLACK
6
CONTINUOUS
10
3.60384
20
-2.4096
11
3.60138
21
-2.40714
0
LINE
8
BLACK
6
CONTINUOUS
10
3.60138
20
-2.40714
11
3.60138
21
-2.43455
0
LINE
8
BLACK
6
CONTINUOUS
10
3.60138
20
-2.43455
11
3.60967
21
-2.43455
0
LINE
8
BLACK
6
CONTINUOUS
10
3.60967
20
-2.43455
11
3.61068
21
-2.43473
0
LINE
8
BLACK
6
CONTINUOUS
10
3.61068
20
-2.43473
11
3.61223
21
-2.43603
0
LINE
8
BLACK
6
CONTINUOUS
10
3.61223
20
-2.43603
11
3.61258
21
-2.43802
0
LINE
8
BLACK
6
CONTINUOUS
10
3.61258
20
-2.43802
11
3.61157
21
-2.43977
0
LINE
8
BLACK
6
CONTINUOUS
10
3.61157
20
-2.43977
11
3.60967
21
-2.44046
0
LINE
8
BLACK
6
CONTINUOUS
10
3.60967
20
-2.44046
11
3.58718
21
-2.44046
0
LINE
8
BLACK
6
CONTINUOUS
10
3.58718
20
-2.44046
11
3.58617
21
-2.44028
0
LINE
8
BLACK
6
CONTINUOUS
10
3.58617
20
-2.44028
11
3.58462
21
-2.43898
0
LINE
8
BLACK
6
CONTINUOUS
10
3.58462
20
-2.43898
11
3.58427
21
-2.43699
0
LINE
8
BLACK
6
CONTINUOUS
10
3.58427
20
-2.43699
11
3.58528
21
-2.43524
0
LINE
8
BLACK
6
CONTINUOUS
10
3.58528
20
-2.43524
11
3.58718
21
-2.43455
0
LINE
8
BLACK
6
CONTINUOUS
10
3.58718
20
-2.43455
11
3.59547
21
-2.43455
0
LINE
8
BLACK
6
CONTINUOUS
10
3.59547
20
-2.43455
11
3.59547
21
-2.39813
0
LINE
8
BLACK
6
CONTINUOUS
10
3.59547
20
-2.39813
11
3.59565
21
-2.39712
0
LINE
8
BLACK
6
CONTINUOUS
10
3.59565
20
-2.39712
11
3.59576
21
-2.39699
0
LINE
8
BLACK
6
CONTINUOUS
10
3.59576
20
-2.39699
11
3.59578
21
-2.39683
0
LINE
8
BLACK
6
CONTINUOUS
10
3.59578
20
-2.39683
11
3.5964
21
-2.39623
0
LINE
8
BLACK
6
CONTINUOUS
10
3.5964
20
-2.39623
11
3.59695
21
-2.39558
0
LINE
8
BLACK
6
CONTINUOUS
10
3.59695
20
-2.39558
11
3.59712
21
-2.39555
0
LINE
8
BLACK
6
CONTINUOUS
10
3.59712
20
-2.39555
11
3.59724
21
-2.39543
0
LINE
8
BLACK
6
CONTINUOUS
10
3.59724
20
-2.39543
11
3.59809
21
-2.39538
0
LINE
8
BLACK
6
CONTINUOUS
10
3.59809
20
-2.39538
11
3.59894
21
-2.39523
0
LINE
8
BLACK
6
CONTINUOUS
10
3.59894
20
-2.39523
11
3.59908
21
-2.39531
0
LINE
8
BLACK
6
CONTINUOUS
10
3.63679
20
-2.39534
11
3.63685
21
-2.39533
0
LINE
8
BLACK
6
CONTINUOUS
10
3.63685
20
-2.39533
11
3.64248
21
-2.39721
0
LINE
8
BLACK
6
CONTINUOUS
10
3.64248
20
-2.39721
11
3.64338
21
-2.3977
0
LINE
8
BLACK
6
CONTINUOUS
10
3.64338
20
-2.3977
11
3.64347
21
-2.39785
0
LINE
8
BLACK
6
CONTINUOUS
10
3.64347
20
-2.39785
11
3.64363
21
-2.39792
0
LINE
8
BLACK
6
CONTINUOUS
10
3.64363
20
-2.39792
11
3.64738
21
-2.40167
0
LINE
8
BLACK
6
CONTINUOUS
10
3.64738
20
-2.40167
11
3.64789
21
-2.40239
0
LINE
8
BLACK
6
CONTINUOUS
10
3.64789
20
-2.40239
11
3.64794
21
-2.40244
0
LINE
8
BLACK
6
CONTINUOUS
10
3.64794
20
-2.40244
11
3.64981
21
-2.40619
0
LINE
8
BLACK
6
CONTINUOUS
10
3.64981
20
-2.40619
11
3.64996
21
-2.40668
0
LINE
8
BLACK
6
CONTINUOUS
10
3.64996
20
-2.40668
11
3.65003
21
-2.40679
0
LINE
8
BLACK
6
CONTINUOUS
10
3.65003
20
-2.40679
11
3.65191
21
-2.41429
0
LINE
8
BLACK
6
CONTINUOUS
10
3.65191
20
-2.41429
11
3.65195
21
-2.41488
0
LINE
8
BLACK
6
CONTINUOUS
10
3.65195
20
-2.41488
11
3.652
21
-2.41501
0
LINE
8
BLACK
6
CONTINUOUS
10
3.652
20
-2.41501
11
3.652
21
-2.42063
0
LINE
8
BLACK
6
CONTINUOUS
10
3.652
20
-2.42063
11
3.65189
21
-2.42121
0
LINE
8
BLACK
6
CONTINUOUS
10
3.65189
20
-2.42121
11
3.65191
21
-2.42135
0
LINE
8
BLACK
6
CONTINUOUS
10
3.65191
20
-2.42135
11
3.65003
21
-2.42885
0
LINE
8
BLACK
6
CONTINUOUS
10
3.65003
20
-2.42885
11
3.64983
21
-2.42931
0
LINE
8
BLACK
6
CONTINUOUS
10
3.64983
20
-2.42931
11
3.64981
21
-2.42945
0
LINE
8
BLACK
6
CONTINUOUS
10
3.64981
20
-2.42945
11
3.64794
21
-2.4332
0
LINE
8
BLACK
6
CONTINUOUS
10
3.64794
20
-2.4332
11
3.64741
21
-2.43391
0
LINE
8
BLACK
6
CONTINUOUS
10
3.64741
20
-2.43391
11
3.64738
21
-2.43397
0
LINE
8
BLACK
6
CONTINUOUS
10
3.64738
20
-2.43397
11
3.64363
21
-2.43772
0
LINE
8
BLACK
6
CONTINUOUS
10
3.64363
20
-2.43772
11
3.64279
21
-2.43831
0
LINE
8
BLACK
6
CONTINUOUS
10
3.64279
20
-2.43831
11
3.64262
21
-2.43832
0
LINE
8
BLACK
6
CONTINUOUS
10
3.64262
20
-2.43832
11
3.64248
21
-2.43843
0
LINE
8
BLACK
6
CONTINUOUS
10
3.64248
20
-2.43843
11
3.63685
21
-2.44031
0
LINE
8
BLACK
6
CONTINUOUS
10
3.63685
20
-2.44031
11
3.63598
21
-2.44044
0
LINE
8
BLACK
6
CONTINUOUS
10
3.63598
20
-2.44044
11
3.63592
21
-2.44046
0
LINE
8
BLACK
6
CONTINUOUS
10
3.63592
20
-2.44046
11
3.63217
21
-2.44046
0
LINE
8
BLACK
6
CONTINUOUS
10
3.63217
20
-2.44046
11
3.6313
21
-2.4403
0
LINE
8
BLACK
6
CONTINUOUS
10
3.6313
20
-2.4403
11
3.63124
21
-2.44031
0
LINE
8
BLACK
6
CONTINUOUS
10
3.63124
20
-2.44031
11
3.62561
21
-2.43843
0
LINE
8
BLACK
6
CONTINUOUS
10
3.62561
20
-2.43843
11
3.62471
21
-2.43794
0
LINE
8
BLACK
6
CONTINUOUS
10
3.62471
20
-2.43794
11
3.62462
21
-2.43779
0
LINE
8
BLACK
6
CONTINUOUS
10
3.62462
20
-2.43779
11
3.62446
21
-2.43772
0
LINE
8
BLACK
6
CONTINUOUS
10
3.62446
20
-2.43772
11
3.62258
21
-2.43584
0
LINE
8
BLACK
6
CONTINUOUS
10
3.62258
20
-2.43584
11
3.622
21
-2.435
0
LINE
8
BLACK
6
CONTINUOUS
10
3.622
20
-2.435
11
3.62182
21
-2.43299
0
LINE
8
BLACK
6
CONTINUOUS
10
3.62182
20
-2.43299
11
3.62298
21
-2.43134
0
LINE
8
BLACK
6
CONTINUOUS
10
3.62298
20
-2.43134
11
3.62493
21
-2.43081
0
LINE
8
BLACK
6
CONTINUOUS
10
3.62493
20
-2.43081
11
3.62676
21
-2.43167
0
LINE
8
BLACK
6
CONTINUOUS
10
3.62676
20
-2.43167
11
3.62814
21
-2.43305
0
LINE
8
BLACK
6
CONTINUOUS
10
3.62814
20
-2.43305
11
3.63265
21
-2.43455
0
LINE
8
BLACK
6
CONTINUOUS
10
3.63265
20
-2.43455
11
3.63544
21
-2.43455
0
LINE
8
BLACK
6
CONTINUOUS
10
3.63544
20
-2.43455
11
3.63995
21
-2.43305
0
LINE
8
BLACK
6
CONTINUOUS
10
3.63995
20
-2.43305
11
3.64287
21
-2.43013
0
LINE
8
BLACK
6
CONTINUOUS
10
3.64287
20
-2.43013
11
3.64438
21
-2.4271
0
LINE
8
BLACK
6
CONTINUOUS
10
3.64438
20
-2.4271
11
3.64609
21
-2.42027
0
LINE
8
BLACK
6
CONTINUOUS
10
3.64609
20
-2.42027
11
3.64609
21
-2.41537
0
LINE
8
BLACK
6
CONTINUOUS
10
3.64609
20
-2.41537
11
3.64438
21
-2.40854
0
LINE
8
BLACK
6
CONTINUOUS
10
3.64438
20
-2.40854
11
3.64287
21
-2.40551
0
LINE
8
BLACK
6
CONTINUOUS
10
3.64287
20
-2.40551
11
3.63995
21
-2.40259
0
LINE
8
BLACK
6
CONTINUOUS
10
3.63995
20
-2.40259
11
3.63544
21
-2.40109
0
LINE
8
BLACK
6
CONTINUOUS
10
3.63544
20
-2.40109
11
3.63265
21
-2.40109
0
LINE
8
BLACK
6
CONTINUOUS
10
3.63265
20
-2.40109
11
3.62814
21
-2.40259
0
LINE
8
BLACK
6
CONTINUOUS
10
3.62814
20
-2.40259
11
3.62676
21
-2.40397
0
LINE
8
BLACK
6
CONTINUOUS
10
3.62676
20
-2.40397
11
3.62592
21
-2.40456
0
LINE
8
BLACK
6
CONTINUOUS
10
3.62592
20
-2.40456
11
3.62391
21
-2.40474
0
LINE
8
BLACK
6
CONTINUOUS
10
3.62391
20
-2.40474
11
3.62225
21
-2.40358
0
LINE
8
BLACK
6
CONTINUOUS
10
3.62225
20
-2.40358
11
3.62173
21
-2.40163
0
LINE
8
BLACK
6
CONTINUOUS
10
3.62173
20
-2.40163
11
3.62258
21
-2.3998
0
LINE
8
BLACK
6
CONTINUOUS
10
3.62258
20
-2.3998
11
3.62446
21
-2.39792
0
LINE
8
BLACK
6
CONTINUOUS
10
3.62446
20
-2.39792
11
3.6253
21
-2.39733
0
LINE
8
BLACK
6
CONTINUOUS
10
3.6253
20
-2.39733
11
3.62547
21
-2.39732
0
LINE
8
BLACK
6
CONTINUOUS
10
3.62547
20
-2.39732
11
3.62561
21
-2.39721
0
LINE
8
BLACK
6
CONTINUOUS
10
3.62561
20
-2.39721
11
3.63124
21
-2.39533
0
LINE
8
BLACK
6
CONTINUOUS
10
3.63124
20
-2.39533
11
3.63211
21
-2.3952
0
LINE
8
BLACK
6
CONTINUOUS
10
3.63211
20
-2.3952
11
3.63217
21
-2.39518
0
LINE
8
BLACK
6
CONTINUOUS
10
3.63217
20
-2.39518
11
3.63592
21
-2.39518
0
LINE
8
BLACK
6
CONTINUOUS
10
3.63592
20
-2.39518
11
3.63679
21
-2.39534
0
LINE
8
BLACK
6
CONTINUOUS
10
3.64778
20
-2.38061
11
3.64847
21
-2.38228
0
LINE
8
BLACK
6
CONTINUOUS
10
3.64847
20
-2.38228
11
3.64778
21
-2.38395
0
LINE
8
BLACK
6
CONTINUOUS
10
3.64778
20
-2.38395
11
3.64611
21
-2.38465
0
LINE
8
BLACK
6
CONTINUOUS
10
3.64611
20
-2.38465
11
3.59011
21
-2.38465
0
LINE
8
BLACK
6
CONTINUOUS
10
3.59011
20
-2.38465
11
3.58844
21
-2.38395
0
LINE
8
BLACK
6
CONTINUOUS
10
3.58844
20
-2.38395
11
3.58775
21
-2.38228
0
LINE
8
BLACK
6
CONTINUOUS
10
3.58775
20
-2.38228
11
3.58844
21
-2.38061
0
LINE
8
BLACK
6
CONTINUOUS
10
3.58844
20
-2.38061
11
3.59011
21
-2.37992
0
LINE
8
BLACK
6
CONTINUOUS
10
3.59011
20
-2.37992
11
3.64611
21
-2.37992
0
LINE
8
BLACK
6
CONTINUOUS
10
3.64611
20
-2.37992
11
3.64778
21
-2.38061
0
LINE
8
BLACK
6
CONTINUOUS
10
3.64778
20
-2.30896
11
3.64847
21
-2.31063
0
LINE
8
BLACK
6
CONTINUOUS
10
3.64847
20
-2.31063
11
3.64778
21
-2.3123
0
LINE
8
BLACK
6
CONTINUOUS
10
3.64778
20
-2.3123
11
3.64611
21
-2.31299
0
LINE
8
BLACK
6
CONTINUOUS
10
3.64611
20
-2.31299
11
3.59011
21
-2.31299
0
LINE
8
BLACK
6
CONTINUOUS
10
3.59011
20
-2.31299
11
3.58844
21
-2.3123
0
LINE
8
BLACK
6
CONTINUOUS
10
3.58844
20
-2.3123
11
3.58775
21
-2.31063
0
LINE
8
BLACK
6
CONTINUOUS
10
3.58775
20
-2.31063
11
3.58844
21
-2.30896
0
LINE
8
BLACK
6
CONTINUOUS
10
3.58844
20
-2.30896
11
3.59011
21
-2.30827
0
LINE
8
BLACK
6
CONTINUOUS
10
3.59011
20
-2.30827
11
3.64611
21
-2.30827
0
LINE
8
BLACK
6
CONTINUOUS
10
3.64611
20
-2.30827
11
3.64778
21
-2.30896
0
LINE
8
BLACK
6
CONTINUOUS
10
3.80309
20
-2.2675
11
3.80323
21
-2.26749
0
LINE
8
BLACK
6
CONTINUOUS
10
3.80323
20
-2.26749
11
3.80396
21
-2.268
0
LINE
8
BLACK
6
CONTINUOUS
10
3.80396
20
-2.268
11
3.80473
21
-2.26844
0
LINE
8
BLACK
6
CONTINUOUS
10
3.80473
20
-2.26844
11
3.80477
21
-2.26857
0
LINE
8
BLACK
6
CONTINUOUS
10
3.80477
20
-2.26857
11
3.80488
21
-2.26865
0
LINE
8
BLACK
6
CONTINUOUS
10
3.80488
20
-2.26865
11
3.80511
21
-2.26951
0
LINE
8
BLACK
6
CONTINUOUS
10
3.80511
20
-2.26951
11
3.80542
21
-2.27034
0
LINE
8
BLACK
6
CONTINUOUS
10
3.80542
20
-2.27034
11
3.80542
21
-2.29471
0
LINE
8
BLACK
6
CONTINUOUS
10
3.80542
20
-2.29471
11
3.80524
21
-2.29572
0
LINE
8
BLACK
6
CONTINUOUS
10
3.80524
20
-2.29572
11
3.80394
21
-2.29727
0
LINE
8
BLACK
6
CONTINUOUS
10
3.80394
20
-2.29727
11
3.80195
21
-2.29762
0
LINE
8
BLACK
6
CONTINUOUS
10
3.80195
20
-2.29762
11
3.8002
21
-2.29661
0
LINE
8
BLACK
6
CONTINUOUS
10
3.8002
20
-2.29661
11
3.79951
21
-2.29471
0
LINE
8
BLACK
6
CONTINUOUS
10
3.79951
20
-2.29471
11
3.79951
21
-2.27747
0
LINE
8
BLACK
6
CONTINUOUS
10
3.79951
20
-2.27747
11
3.78206
21
-2.29493
0
LINE
8
BLACK
6
CONTINUOUS
10
3.78206
20
-2.29493
11
3.78122
21
-2.29551
0
LINE
8
BLACK
6
CONTINUOUS
10
3.78122
20
-2.29551
11
3.78104
21
-2.29553
0
LINE
8
BLACK
6
CONTINUOUS
10
3.78104
20
-2.29553
11
3.7809
21
-2.29564
0
LINE
8
BLACK
6
CONTINUOUS
10
3.7809
20
-2.29564
11
3.77528
21
-2.29751
0
LINE
8
BLACK
6
CONTINUOUS
10
3.77528
20
-2.29751
11
3.7744
21
-2.29764
0
LINE
8
BLACK
6
CONTINUOUS
10
3.7744
20
-2.29764
11
3.77434
21
-2.29767
0
LINE
8
BLACK
6
CONTINUOUS
10
3.77434
20
-2.29767
11
3.77059
21
-2.29767
0
LINE
8
BLACK
6
CONTINUOUS
10
3.77059
20
-2.29767
11
3.76958
21
-2.29749
0
LINE
8
BLACK
6
CONTINUOUS
10
3.76958
20
-2.29749
11
3.76945
21
-2.29737
0
LINE
8
BLACK
6
CONTINUOUS
10
3.76945
20
-2.29737
11
3.76927
21
-2.29735
0
LINE
8
BLACK
6
CONTINUOUS
10
3.76927
20
-2.29735
11
3.76552
21
-2.29548
0
LINE
8
BLACK
6
CONTINUOUS
10
3.76552
20
-2.29548
11
3.76482
21
-2.29495
0
LINE
8
BLACK
6
CONTINUOUS
10
3.76482
20
-2.29495
11
3.76476
21
-2.29493
0
LINE
8
BLACK
6
CONTINUOUS
10
3.76476
20
-2.29493
11
3.76288
21
-2.29305
0
LINE
8
BLACK
6
CONTINUOUS
10
3.76288
20
-2.29305
11
3.76238
21
-2.29233
0
LINE
8
BLACK
6
CONTINUOUS
10
3.76238
20
-2.29233
11
3.76233
21
-2.29228
0
LINE
8
BLACK
6
CONTINUOUS
10
3.76233
20
-2.29228
11
3.76045
21
-2.28853
0
LINE
8
BLACK
6
CONTINUOUS
10
3.76045
20
-2.28853
11
3.76016
21
-2.28755
0
LINE
8
BLACK
6
CONTINUOUS
10
3.76016
20
-2.28755
11
3.7602
21
-2.28738
0
LINE
8
BLACK
6
CONTINUOUS
10
3.7602
20
-2.28738
11
3.76014
21
-2.28721
0
LINE
8
BLACK
6
CONTINUOUS
10
3.76014
20
-2.28721
11
3.76014
21
-2.27784
0
LINE
8
BLACK
6
CONTINUOUS
10
3.76014
20
-2.27784
11
3.76032
21
-2.27683
0
LINE
8
BLACK
6
CONTINUOUS
10
3.76032
20
-2.27683
11
3.76043
21
-2.2767
0
LINE
8
BLACK
6
CONTINUOUS
10
3.76043
20
-2.2767
11
3.76045
21
-2.27652
0
LINE
8
BLACK
6
CONTINUOUS
10
3.76045
20
-2.27652
11
3.76233
21
-2.27277
0
LINE
8
BLACK
6
CONTINUOUS
10
3.76233
20
-2.27277
11
3.76285
21
-2.27206
0
LINE
8
BLACK
6
CONTINUOUS
10
3.76285
20
-2.27206
11
3.76288
21
-2.272
0
LINE
8
BLACK
6
CONTINUOUS
10
3.76288
20
-2.272
11
3.76476
21
-2.27013
0
LINE
8
BLACK
6
CONTINUOUS
10
3.76476
20
-2.27013
11
3.7656
21
-2.26954
0
LINE
8
BLACK
6
CONTINUOUS
10
3.7656
20
-2.26954
11
3.76761
21
-2.26936
0
LINE
8
BLACK
6
CONTINUOUS
10
3.76761
20
-2.26936
11
3.76926
21
-2.27052
0
LINE
8
BLACK
6
CONTINUOUS
10
3.76926
20
-2.27052
11
3.76979
21
-2.27247
0
LINE
8
BLACK
6
CONTINUOUS
10
3.76979
20
-2.27247
11
3.76893
21
-2.2743
0
LINE
8
BLACK
6
CONTINUOUS
10
3.76893
20
-2.2743
11
3.7674
21
-2.27584
0
LINE
8
BLACK
6
CONTINUOUS
10
3.7674
20
-2.27584
11
3.76605
21
-2.27854
0
LINE
8
BLACK
6
CONTINUOUS
10
3.76605
20
-2.27854
11
3.76605
21
-2.28652
0
LINE
8
BLACK
6
CONTINUOUS
10
3.76605
20
-2.28652
11
3.7674
21
-2.28921
0
LINE
8
BLACK
6
CONTINUOUS
10
3.7674
20
-2.28921
11
3.76859
21
-2.29041
0
LINE
8
BLACK
6
CONTINUOUS
10
3.76859
20
-2.29041
11
3.77129
21
-2.29176
0
LINE
8
BLACK
6
CONTINUOUS
10
3.77129
20
-2.29176
11
3.77386
21
-2.29176
0
LINE
8
BLACK
6
CONTINUOUS
10
3.77386
20
-2.29176
11
3.77837
21
-2.29026
0
LINE
8
BLACK
6
CONTINUOUS
10
3.77837
20
-2.29026
11
3.80038
21
-2.26825
0
LINE
8
BLACK
6
CONTINUOUS
10
3.80038
20
-2.26825
11
3.80091
21
-2.26788
0
LINE
8
BLACK
6
CONTINUOUS
10
3.80091
20
-2.26788
11
3.80099
21
-2.26778
0
LINE
8
BLACK
6
CONTINUOUS
10
3.80099
20
-2.26778
11
3.80107
21
-2.26777
0
LINE
8
BLACK
6
CONTINUOUS
10
3.80107
20
-2.26777
11
3.80122
21
-2.26767
0
LINE
8
BLACK
6
CONTINUOUS
10
3.80122
20
-2.26767
11
3.8021
21
-2.26759
0
LINE
8
BLACK
6
CONTINUOUS
10
3.8021
20
-2.26759
11
3.80298
21
-2.26743
0
LINE
8
BLACK
6
CONTINUOUS
10
3.80298
20
-2.26743
11
3.80309
21
-2.2675
0
LINE
8
BLACK
6
CONTINUOUS
10
3.78617
20
-2.23
11
3.78631
21
-2.22998
0
LINE
8
BLACK
6
CONTINUOUS
10
3.78631
20
-2.22998
11
3.79381
21
-2.23186
0
LINE
8
BLACK
6
CONTINUOUS
10
3.79381
20
-2.23186
11
3.79427
21
-2.23206
0
LINE
8
BLACK
6
CONTINUOUS
10
3.79427
20
-2.23206
11
3.79441
21
-2.23208
0
LINE
8
BLACK
6
CONTINUOUS
10
3.79441
20
-2.23208
11
3.79816
21
-2.23395
0
LINE
8
BLACK
6
CONTINUOUS
10
3.79816
20
-2.23395
11
3.79887
21
-2.23448
0
LINE
8
BLACK
6
CONTINUOUS
10
3.79887
20
-2.23448
11
3.79893
21
-2.23451
0
LINE
8
BLACK
6
CONTINUOUS
10
3.79893
20
-2.23451
11
3.80268
21
-2.23826
0
LINE
8
BLACK
6
CONTINUOUS
10
3.80268
20
-2.23826
11
3.80327
21
-2.2391
0
LINE
8
BLACK
6
CONTINUOUS
10
3.80327
20
-2.2391
11
3.80328
21
-2.23927
0
LINE
8
BLACK
6
CONTINUOUS
10
3.80328
20
-2.23927
11
3.80339
21
-2.23941
0
LINE
8
BLACK
6
CONTINUOUS
10
3.80339
20
-2.23941
11
3.80527
21
-2.24504
0
LINE
8
BLACK
6
CONTINUOUS
10
3.80527
20
-2.24504
11
3.8054
21
-2.24591
0
LINE
8
BLACK
6
CONTINUOUS
10
3.8054
20
-2.24591
11
3.80542
21
-2.24597
0
LINE
8
BLACK
6
CONTINUOUS
10
3.80542
20
-2.24597
11
3.80542
21
-2.24972
0
LINE
8
BLACK
6
CONTINUOUS
10
3.80542
20
-2.24972
11
3.80526
21
-2.25059
0
LINE
8
BLACK
6
CONTINUOUS
10
3.80526
20
-2.25059
11
3.80527
21
-2.25065
0
LINE
8
BLACK
6
CONTINUOUS
10
3.80527
20
-2.25065
11
3.80339
21
-2.25628
0
LINE
8
BLACK
6
CONTINUOUS
10
3.80339
20
-2.25628
11
3.8029
21
-2.25718
0
LINE
8
BLACK
6
CONTINUOUS
10
3.8029
20
-2.25718
11
3.80275
21
-2.25727
0
LINE
8
BLACK
6
CONTINUOUS
10
3.80275
20
-2.25727
11
3.80268
21
-2.25743
0
LINE
8
BLACK
6
CONTINUOUS
10
3.80268
20
-2.25743
11
3.8008
21
-2.25931
0
LINE
8
BLACK
6
CONTINUOUS
10
3.8008
20
-2.25931
11
3.79996
21
-2.25989
0
LINE
8
BLACK
6
CONTINUOUS
10
3.79996
20
-2.25989
11
3.79795
21
-2.26007
0
LINE
8
BLACK
6
CONTINUOUS
10
3.79795
20
-2.26007
11
3.7963
21
-2.25891
0
LINE
8
BLACK
6
CONTINUOUS
10
3.7963
20
-2.25891
11
3.79577
21
-2.25696
0
LINE
8
BLACK
6
CONTINUOUS
10
3.79577
20
-2.25696
11
3.79663
21
-2.25513
0
LINE
8
BLACK
6
CONTINUOUS
10
3.79663
20
-2.25513
11
3.79801
21
-2.25375
0
LINE
8
BLACK
6
CONTINUOUS
10
3.79801
20
-2.25375
11
3.79951
21
-2.24924
0
LINE
8
BLACK
6
CONTINUOUS
10
3.79951
20
-2.24924
11
3.79951
21
-2.24645
0
LINE
8
BLACK
6
CONTINUOUS
10
3.79951
20
-2.24645
11
3.79801
21
-2.24194
0
LINE
8
BLACK
6
CONTINUOUS
10
3.79801
20
-2.24194
11
3.79509
21
-2.23902
0
LINE
8
BLACK
6
CONTINUOUS
10
3.79509
20
-2.23902
11
3.79206
21
-2.23751
0
LINE
8
BLACK
6
CONTINUOUS
10
3.79206
20
-2.23751
11
3.78523
21
-2.2358
0
LINE
8
BLACK
6
CONTINUOUS
10
3.78523
20
-2.2358
11
3.78033
21
-2.2358
0
LINE
8
BLACK
6
CONTINUOUS
10
3.78033
20
-2.2358
11
3.7735
21
-2.23751
0
LINE
8
BLACK
6
CONTINUOUS
10
3.7735
20
-2.23751
11
3.77047
21
-2.23902
0
LINE
8
BLACK
6
CONTINUOUS
10
3.77047
20
-2.23902
11
3.76755
21
-2.24194
0
LINE
8
BLACK
6
CONTINUOUS
10
3.76755
20
-2.24194
11
3.76605
21
-2.24645
0
LINE
8
BLACK
6
CONTINUOUS
10
3.76605
20
-2.24645
11
3.76605
21
-2.24924
0
LINE
8
BLACK
6
CONTINUOUS
10
3.76605
20
-2.24924
11
3.76755
21
-2.25375
0
LINE
8
BLACK
6
CONTINUOUS
10
3.76755
20
-2.25375
11
3.76893
21
-2.25513
0
LINE
8
BLACK
6
CONTINUOUS
10
3.76893
20
-2.25513
11
3.76952
21
-2.25597
0
LINE
8
BLACK
6
CONTINUOUS
10
3.76952
20
-2.25597
11
3.7697
21
-2.25798
0
LINE
8
BLACK
6
CONTINUOUS
10
3.7697
20
-2.25798
11
3.76854
21
-2.25964
0
LINE
8
BLACK
6
CONTINUOUS
10
3.76854
20
-2.25964
11
3.76659
21
-2.26016
0
LINE
8
BLACK
6
CONTINUOUS
10
3.76659
20
-2.26016
11
3.76476
21
-2.25931
0
LINE
8
BLACK
6
CONTINUOUS
10
3.76476
20
-2.25931
11
3.76288
21
-2.25743
0
LINE
8
BLACK
6
CONTINUOUS
10
3.76288
20
-2.25743
11
3.76229
21
-2.25659
0
LINE
8
BLACK
6
CONTINUOUS
10
3.76229
20
-2.25659
11
3.76228
21
-2.25642
0
LINE
8
BLACK
6
CONTINUOUS
10
3.76228
20
-2.25642
11
3.76217
21
-2.25628
0
LINE
8
BLACK
6
CONTINUOUS
10
3.76217
20
-2.25628
11
3.76029
21
-2.25065
0
LINE
8
BLACK
6
CONTINUOUS
10
3.76029
20
-2.25065
11
3.76016
21
-2.24978
0
LINE
8
BLACK
6
CONTINUOUS
10
3.76016
20
-2.24978
11
3.76014
21
-2.24972
0
LINE
8
BLACK
6
CONTINUOUS
10
3.76014
20
-2.24972
11
3.76014
21
-2.24597
0
LINE
8
BLACK
6
CONTINUOUS
10
3.76014
20
-2.24597
11
3.7603
21
-2.2451
0
LINE
8
BLACK
6
CONTINUOUS
10
3.7603
20
-2.2451
11
3.76029
21
-2.24504
0
LINE
8
BLACK
6
CONTINUOUS
10
3.76029
20
-2.24504
11
3.76217
21
-2.23941
0
LINE
8
BLACK
6
CONTINUOUS
10
3.76217
20
-2.23941
11
3.76266
21
-2.23851
0
LINE
8
BLACK
6
CONTINUOUS
10
3.76266
20
-2.23851
11
3.76281
21
-2.23842
0
LINE
8
BLACK
6
CONTINUOUS
10
3.76281
20
-2.23842
11
3.76288
21
-2.23826
0
LINE
8
BLACK
6
CONTINUOUS
10
3.76288
20
-2.23826
11
3.76663
21
-2.23451
0
LINE
8
BLACK
6
CONTINUOUS
10
3.76663
20
-2.23451
11
3.76735
21
-2.234
0
LINE
8
BLACK
6
CONTINUOUS
10
3.76735
20
-2.234
11
3.7674
21
-2.23395
0
LINE
8
BLACK
6
CONTINUOUS
10
3.7674
20
-2.23395
11
3.77115
21
-2.23208
0
LINE
8
BLACK
6
CONTINUOUS
10
3.77115
20
-2.23208
11
3.77164
21
-2.23193
0
LINE
8
BLACK
6
CONTINUOUS
10
3.77164
20
-2.23193
11
3.77175
21
-2.23186
0
LINE
8
BLACK
6
CONTINUOUS
10
3.77175
20
-2.23186
11
3.77925
21
-2.22998
0
LINE
8
BLACK
6
CONTINUOUS
10
3.77925
20
-2.22998
11
3.77984
21
-2.22994
0
LINE
8
BLACK
6
CONTINUOUS
10
3.77984
20
-2.22994
11
3.77997
21
-2.22989
0
LINE
8
BLACK
6
CONTINUOUS
10
3.77997
20
-2.22989
11
3.78559
21
-2.22989
0
LINE
8
BLACK
6
CONTINUOUS
10
3.78559
20
-2.22989
11
3.78617
21
-2.23
0
LINE
8
BLACK
6
CONTINUOUS
10
3.82313
20
-2.25182
11
3.82382
21
-2.25349
0
LINE
8
BLACK
6
CONTINUOUS
10
3.82382
20
-2.25349
11
3.82382
21
-2.27407
0
LINE
8
BLACK
6
CONTINUOUS
10
3.82382
20
-2.27407
11
3.82313
21
-2.27574
0
LINE
8
BLACK
6
CONTINUOUS
10
3.82313
20
-2.27574
11
3.82146
21
-2.27643
0
LINE
8
BLACK
6
CONTINUOUS
10
3.82146
20
-2.27643
11
3.81979
21
-2.27574
0
LINE
8
BLACK
6
CONTINUOUS
10
3.81979
20
-2.27574
11
3.81909
21
-2.27407
0
LINE
8
BLACK
6
CONTINUOUS
10
3.81909
20
-2.27407
11
3.81909
21
-2.25349
0
LINE
8
BLACK
6
CONTINUOUS
10
3.81909
20
-2.25349
11
3.81979
21
-2.25182
0
LINE
8
BLACK
6
CONTINUOUS
10
3.81979
20
-2.25182
11
3.82146
21
-2.25113
0
LINE
8
BLACK
6
CONTINUOUS
10
3.82146
20
-2.25113
11
3.82313
21
-2.25182
0
LINE
8
BLACK
6
CONTINUOUS
10
3.881
20
-2.25182
11
3.88169
21
-2.25349
0
LINE
8
BLACK
6
CONTINUOUS
10
3.88169
20
-2.25349
11
3.88169
21
-2.27407
0
LINE
8
BLACK
6
CONTINUOUS
10
3.88169
20
-2.27407
11
3.881
21
-2.27574
0
LINE
8
BLACK
6
CONTINUOUS
10
3.881
20
-2.27574
11
3.87933
21
-2.27643
0
LINE
8
BLACK
6
CONTINUOUS
10
3.87933
20
-2.27643
11
3.87766
21
-2.27574
0
LINE
8
BLACK
6
CONTINUOUS
10
3.87766
20
-2.27574
11
3.87697
21
-2.27407
0
LINE
8
BLACK
6
CONTINUOUS
10
3.87697
20
-2.27407
11
3.87697
21
-2.25349
0
LINE
8
BLACK
6
CONTINUOUS
10
3.87697
20
-2.25349
11
3.87766
21
-2.25182
0
LINE
8
BLACK
6
CONTINUOUS
10
3.87766
20
-2.25182
11
3.87933
21
-2.25113
0
LINE
8
BLACK
6
CONTINUOUS
10
3.87933
20
-2.25113
11
3.881
21
-2.25182
0
LINE
8
BLACK
6
CONTINUOUS
10
3.73622
20
-2.17717
11
3.81299
21
-2.17717
0
LINE
8
BLACK
6
CONTINUOUS
10
3.81299
20
-2.17717
11
3.81466
21
-2.17786
0
LINE
8
BLACK
6
CONTINUOUS
10
3.81466
20
-2.17786
11
3.81535
21
-2.17953
0
LINE
8
BLACK
6
CONTINUOUS
10
3.81535
20
-2.17953
11
3.81466
21
-2.1812
0
LINE
8
BLACK
6
CONTINUOUS
10
3.81466
20
-2.1812
11
3.81299
21
-2.18189
0
LINE
8
BLACK
6
CONTINUOUS
10
3.81299
20
-2.18189
11
3.73622
21
-2.18189
0
LINE
8
BLACK
6
CONTINUOUS
10
3.73622
20
-2.18189
11
3.60039
21
-2.18189
0
LINE
8
BLACK
6
CONTINUOUS
10
3.60039
20
-2.18189
11
3.59872
21
-2.1812
0
LINE
8
BLACK
6
CONTINUOUS
10
3.59872
20
-2.1812
11
3.59803
21
-2.17953
0
LINE
8
BLACK
6
CONTINUOUS
10
3.59803
20
-2.17953
11
3.59872
21
-2.17786
0
LINE
8
BLACK
6
CONTINUOUS
10
3.59872
20
-2.17786
11
3.60039
21
-2.17717
0
LINE
8
BLACK
6
CONTINUOUS
10
3.60039
20
-2.17717
11
3.73622
21
-2.17717
0
LINE
8
BLACK
6
CONTINUOUS
10
3.95895
20
-2.0355
11
3.95965
21
-2.0374
0
LINE
8
BLACK
6
CONTINUOUS
10
3.95965
20
-2.0374
11
3.95965
21
-2.10433
0
LINE
8
BLACK
6
CONTINUOUS
10
3.95965
20
-2.10433
11
3.95947
21
-2.10534
0
LINE
8
BLACK
6
CONTINUOUS
10
3.95947
20
-2.10534
11
3.95817
21
-2.10689
0
LINE
8
BLACK
6
CONTINUOUS
10
3.95817
20
-2.10689
11
3.95618
21
-2.10724
0
LINE
8
BLACK
6
CONTINUOUS
10
3.95618
20
-2.10724
11
3.95443
21
-2.10623
0
LINE
8
BLACK
6
CONTINUOUS
10
3.95443
20
-2.10623
11
3.95374
21
-2.10433
0
LINE
8
BLACK
6
CONTINUOUS
10
3.95374
20
-2.10433
11
3.95374
21
-2.0374
0
LINE
8
BLACK
6
CONTINUOUS
10
3.95374
20
-2.0374
11
3.95392
21
-2.03639
0
LINE
8
BLACK
6
CONTINUOUS
10
3.95392
20
-2.03639
11
3.95522
21
-2.03484
0
LINE
8
BLACK
6
CONTINUOUS
10
3.95522
20
-2.03484
11
3.95721
21
-2.03449
0
LINE
8
BLACK
6
CONTINUOUS
10
3.95721
20
-2.03449
11
3.95895
21
-2.0355
0
LINE
8
BLACK
6
CONTINUOUS
10
3.98351
20
-2.09366
11
3.98462
21
-2.09535
0
LINE
8
BLACK
6
CONTINUOUS
10
3.98462
20
-2.09535
11
3.98439
21
-2.09736
0
LINE
8
BLACK
6
CONTINUOUS
10
3.98439
20
-2.09736
11
3.98317
21
-2.09979
0
LINE
8
BLACK
6
CONTINUOUS
10
3.98317
20
-2.09979
11
3.98273
21
-2.10039
0
LINE
8
BLACK
6
CONTINUOUS
10
3.98273
20
-2.10039
11
3.99707
21
-2.10039
0
LINE
8
BLACK
6
CONTINUOUS
10
3.99707
20
-2.10039
11
3.99707
21
-2.09603
0
LINE
8
BLACK
6
CONTINUOUS
10
3.99707
20
-2.09603
11
3.99725
21
-2.09502
0
LINE
8
BLACK
6
CONTINUOUS
10
3.99725
20
-2.09502
11
3.99855
21
-2.09348
0
LINE
8
BLACK
6
CONTINUOUS
10
3.99855
20
-2.09348
11
4.00054
21
-2.09313
0
LINE
8
BLACK
6
CONTINUOUS
10
4.00054
20
-2.09313
11
4.00229
21
-2.09414
0
LINE
8
BLACK
6
CONTINUOUS
10
4.00229
20
-2.09414
11
4.00298
21
-2.09603
0
LINE
8
BLACK
6
CONTINUOUS
10
4.00298
20
-2.09603
11
4.00298
21
-2.11066
0
LINE
8
BLACK
6
CONTINUOUS
10
4.00298
20
-2.11066
11
4.0028
21
-2.11167
0
LINE
8
BLACK
6
CONTINUOUS
10
4.0028
20
-2.11167
11
4.0015
21
-2.11322
0
LINE
8
BLACK
6
CONTINUOUS
10
4.0015
20
-2.11322
11
3.99951
21
-2.11357
0
LINE
8
BLACK
6
CONTINUOUS
10
3.99951
20
-2.11357
11
3.99777
21
-2.11256
0
LINE
8
BLACK
6
CONTINUOUS
10
3.99777
20
-2.11256
11
3.99707
21
-2.11066
0
LINE
8
BLACK
6
CONTINUOUS
10
3.99707
20
-2.11066
11
3.99707
21
-2.1063
0
LINE
8
BLACK
6
CONTINUOUS
10
3.99707
20
-2.1063
11
3.97444
21
-2.1063
0
LINE
8
BLACK
6
CONTINUOUS
10
3.97444
20
-2.1063
11
3.97343
21
-2.10612
0
LINE
8
BLACK
6
CONTINUOUS
10
3.97343
20
-2.10612
11
3.9733
21
-2.10601
0
LINE
8
BLACK
6
CONTINUOUS
10
3.9733
20
-2.10601
11
3.97313
21
-2.10599
0
LINE
8
BLACK
6
CONTINUOUS
10
3.97313
20
-2.10599
11
3.97254
21
-2.10537
0
LINE
8
BLACK
6
CONTINUOUS
10
3.97254
20
-2.10537
11
3.97188
21
-2.10482
0
LINE
8
BLACK
6
CONTINUOUS
10
3.97188
20
-2.10482
11
3.97185
21
-2.10466
0
LINE
8
BLACK
6
CONTINUOUS
10
3.97185
20
-2.10466
11
3.97173
21
-2.10453
0
LINE
8
BLACK
6
CONTINUOUS
10
3.97173
20
-2.10453
11
3.97168
21
-2.10368
0
LINE
8
BLACK
6
CONTINUOUS
10
3.97168
20
-2.10368
11
3.97153
21
-2.10283
0
LINE
8
BLACK
6
CONTINUOUS
10
3.97153
20
-2.10283
11
3.97161
21
-2.10269
0
LINE
8
BLACK
6
CONTINUOUS
10
3.97161
20
-2.10269
11
3.9716
21
-2.10252
0
LINE
8
BLACK
6
CONTINUOUS
10
3.9716
20
-2.10252
11
3.97211
21
-2.10183
0
LINE
8
BLACK
6
CONTINUOUS
10
3.97211
20
-2.10183
11
3.97254
21
-2.10108
0
LINE
8
BLACK
6
CONTINUOUS
10
3.97254
20
-2.10108
11
3.9727
21
-2.10103
0
LINE
8
BLACK
6
CONTINUOUS
10
3.9727
20
-2.10103
11
3.9728
21
-2.10089
0
LINE
8
BLACK
6
CONTINUOUS
10
3.9728
20
-2.10089
11
3.97621
21
-2.09861
0
LINE
8
BLACK
6
CONTINUOUS
10
3.97621
20
-2.09861
11
3.9781
21
-2.09672
0
LINE
8
BLACK
6
CONTINUOUS
10
3.9781
20
-2.09672
11
3.97911
21
-2.09471
0
LINE
8
BLACK
6
CONTINUOUS
10
3.97911
20
-2.09471
11
3.97972
21
-2.09389
0
LINE
8
BLACK
6
CONTINUOUS
10
3.97972
20
-2.09389
11
3.98157
21
-2.09309
0
LINE
8
BLACK
6
CONTINUOUS
10
3.98157
20
-2.09309
11
3.98351
21
-2.09366
0
LINE
8
BLACK
6
CONTINUOUS
10
3.90384
20
-2.0355
11
3.90453
21
-2.0374
0
LINE
8
BLACK
6
CONTINUOUS
10
3.90453
20
-2.0374
11
3.90453
21
-2.10433
0
LINE
8
BLACK
6
CONTINUOUS
10
3.90453
20
-2.10433
11
3.90435
21
-2.10534
0
LINE
8
BLACK
6
CONTINUOUS
10
3.90435
20
-2.10534
11
3.90305
21
-2.10689
0
LINE
8
BLACK
6
CONTINUOUS
10
3.90305
20
-2.10689
11
3.90106
21
-2.10724
0
LINE
8
BLACK
6
CONTINUOUS
10
3.90106
20
-2.10724
11
3.89931
21
-2.10623
0
LINE
8
BLACK
6
CONTINUOUS
10
3.89931
20
-2.10623
11
3.89862
21
-2.10433
0
LINE
8
BLACK
6
CONTINUOUS
10
3.89862
20
-2.10433
11
3.89862
21
-2.0374
0
LINE
8
BLACK
6
CONTINUOUS
10
3.89862
20
-2.0374
11
3.8988
21
-2.03639
0
LINE
8
BLACK
6
CONTINUOUS
10
3.8988
20
-2.03639
11
3.9001
21
-2.03484
0
LINE
8
BLACK
6
CONTINUOUS
10
3.9001
20
-2.03484
11
3.90209
21
-2.03449
0
LINE
8
BLACK
6
CONTINUOUS
10
3.90209
20
-2.03449
11
3.90384
21
-2.0355
0
LINE
8
BLACK
6
CONTINUOUS
10
4.00104
20
-2.06889
11
4.00258
21
-2.07019
0
LINE
8
BLACK
6
CONTINUOUS
10
4.00258
20
-2.07019
11
4.00294
21
-2.07218
0
LINE
8
BLACK
6
CONTINUOUS
10
4.00294
20
-2.07218
11
4.00193
21
-2.07392
0
LINE
8
BLACK
6
CONTINUOUS
10
4.00193
20
-2.07392
11
4.00003
21
-2.07462
0
LINE
8
BLACK
6
CONTINUOUS
10
4.00003
20
-2.07462
11
3.99079
21
-2.07462
0
LINE
8
BLACK
6
CONTINUOUS
10
3.99079
20
-2.07462
11
3.99079
21
-2.07622
0
LINE
8
BLACK
6
CONTINUOUS
10
3.99079
20
-2.07622
11
4.00172
21
-2.08387
0
LINE
8
BLACK
6
CONTINUOUS
10
4.00172
20
-2.08387
11
4.00245
21
-2.08459
0
LINE
8
BLACK
6
CONTINUOUS
10
4.00245
20
-2.08459
11
4.00297
21
-2.08654
0
LINE
8
BLACK
6
CONTINUOUS
10
4.00297
20
-2.08654
11
4.00212
21
-2.08837
0
LINE
8
BLACK
6
CONTINUOUS
10
4.00212
20
-2.08837
11
4.00029
21
-2.08923
0
LINE
8
BLACK
6
CONTINUOUS
10
4.00029
20
-2.08923
11
3.99833
21
-2.08871
0
LINE
8
BLACK
6
CONTINUOUS
10
3.99833
20
-2.08871
11
3.99031
21
-2.08309
0
LINE
8
BLACK
6
CONTINUOUS
10
3.99031
20
-2.08309
11
3.98926
21
-2.08517
0
LINE
8
BLACK
6
CONTINUOUS
10
3.98926
20
-2.08517
11
3.98874
21
-2.08588
0
LINE
8
BLACK
6
CONTINUOUS
10
3.98874
20
-2.08588
11
3.98871
21
-2.08594
0
LINE
8
BLACK
6
CONTINUOUS
10
3.98871
20
-2.08594
11
3.98749
21
-2.08716
0
LINE
8
BLACK
6
CONTINUOUS
10
3.98749
20
-2.08716
11
3.98677
21
-2.08766
0
LINE
8
BLACK
6
CONTINUOUS
10
3.98677
20
-2.08766
11
3.98672
21
-2.08771
0
LINE
8
BLACK
6
CONTINUOUS
10
3.98672
20
-2.08771
11
3.98429
21
-2.08893
0
LINE
8
BLACK
6
CONTINUOUS
10
3.98429
20
-2.08893
11
3.9833
21
-2.08922
0
LINE
8
BLACK
6
CONTINUOUS
10
3.9833
20
-2.08922
11
3.98313
21
-2.08918
0
LINE
8
BLACK
6
CONTINUOUS
10
3.98313
20
-2.08918
11
3.98297
21
-2.08924
0
LINE
8
BLACK
6
CONTINUOUS
10
3.98297
20
-2.08924
11
3.97931
21
-2.08924
0
LINE
8
BLACK
6
CONTINUOUS
10
3.97931
20
-2.08924
11
3.9783
21
-2.08906
0
LINE
8
BLACK
6
CONTINUOUS
10
3.9783
20
-2.08906
11
3.97817
21
-2.08895
0
LINE
8
BLACK
6
CONTINUOUS
10
3.97817
20
-2.08895
11
3.97799
21
-2.08893
0
LINE
8
BLACK
6
CONTINUOUS
10
3.97799
20
-2.08893
11
3.97555
21
-2.08771
0
LINE
8
BLACK
6
CONTINUOUS
10
3.97555
20
-2.08771
11
3.97484
21
-2.08718
0
LINE
8
BLACK
6
CONTINUOUS
10
3.97484
20
-2.08718
11
3.97479
21
-2.08716
0
LINE
8
BLACK
6
CONTINUOUS
10
3.97479
20
-2.08716
11
3.97357
21
-2.08594
0
LINE
8
BLACK
6
CONTINUOUS
10
3.97357
20
-2.08594
11
3.97306
21
-2.08521
0
LINE
8
BLACK
6
CONTINUOUS
10
3.97306
20
-2.08521
11
3.97301
21
-2.08517
0
LINE
8
BLACK
6
CONTINUOUS
10
3.97301
20
-2.08517
11
3.9718
21
-2.08273
0
LINE
8
BLACK
6
CONTINUOUS
10
3.9718
20
-2.08273
11
3.9715
21
-2.08175
0
LINE
8
BLACK
6
CONTINUOUS
10
3.9715
20
-2.08175
11
3.97154
21
-2.08158
0
LINE
8
BLACK
6
CONTINUOUS
10
3.97154
20
-2.08158
11
3.97148
21
-2.08141
0
LINE
8
BLACK
6
CONTINUOUS
10
3.97148
20
-2.08141
11
3.97148
21
-2.07166
0
LINE
8
BLACK
6
CONTINUOUS
10
3.97148
20
-2.07166
11
3.97155
21
-2.07128
0
LINE
8
BLACK
6
CONTINUOUS
10
3.97155
20
-2.07128
11
3.97153
21
-2.07115
0
LINE
8
BLACK
6
CONTINUOUS
10
3.97153
20
-2.07115
11
3.97159
21
-2.07104
0
LINE
8
BLACK
6
CONTINUOUS
10
3.97159
20
-2.07104
11
3.97166
21
-2.07065
0
LINE
8
BLACK
6
CONTINUOUS
10
3.97166
20
-2.07065
11
3.97216
21
-2.07007
0
LINE
8
BLACK
6
CONTINUOUS
10
3.97216
20
-2.07007
11
3.97254
21
-2.0694
0
LINE
8
BLACK
6
CONTINUOUS
10
3.97254
20
-2.0694
11
3.97279
21
-2.06931
0
LINE
8
BLACK
6
CONTINUOUS
10
3.97279
20
-2.06931
11
3.97296
21
-2.06911
0
LINE
8
BLACK
6
CONTINUOUS
10
3.97296
20
-2.06911
11
3.97372
21
-2.06897
0
LINE
8
BLACK
6
CONTINUOUS
10
3.97372
20
-2.06897
11
3.97444
21
-2.06871
0
LINE
8
BLACK
6
CONTINUOUS
10
3.97444
20
-2.06871
11
4.00003
21
-2.06871
0
LINE
8
BLACK
6
CONTINUOUS
10
4.00003
20
-2.06871
11
4.00104
21
-2.06889
0
LINE
8
BLACK
6
CONTINUOUS
10
3.97739
20
-2.08071
11
3.97808
21
-2.0821
0
LINE
8
BLACK
6
CONTINUOUS
10
3.97808
20
-2.0821
11
3.97862
21
-2.08264
0
LINE
8
BLACK
6
CONTINUOUS
10
3.97862
20
-2.08264
11
3.98001
21
-2.08333
0
LINE
8
BLACK
6
CONTINUOUS
10
3.98001
20
-2.08333
11
3.98227
21
-2.08333
0
LINE
8
BLACK
6
CONTINUOUS
10
3.98227
20
-2.08333
11
3.98366
21
-2.08264
0
LINE
8
BLACK
6
CONTINUOUS
10
3.98366
20
-2.08264
11
3.9842
21
-2.0821
0
LINE
8
BLACK
6
CONTINUOUS
10
3.9842
20
-2.0821
11
3.98489
21
-2.08071
0
LINE
8
BLACK
6
CONTINUOUS
10
3.98489
20
-2.08071
11
3.98489
21
-2.07462
0
LINE
8
BLACK
6
CONTINUOUS
10
3.98489
20
-2.07462
11
3.97739
21
-2.07462
0
LINE
8
BLACK
6
CONTINUOUS
10
3.97739
20
-2.07462
11
3.97739
21
-2.08071
0
LINE
8
BLACK
6
CONTINUOUS
10
3.73622
20
-1.97559
11
3.81299
21
-1.97559
0
LINE
8
BLACK
6
CONTINUOUS
10
3.81299
20
-1.97559
11
3.81466
21
-1.97628
0
LINE
8
BLACK
6
CONTINUOUS
10
3.81466
20
-1.97628
11
3.81535
21
-1.97795
0
LINE
8
BLACK
6
CONTINUOUS
10
3.81535
20
-1.97795
11
3.81466
21
-1.97962
0
LINE
8
BLACK
6
CONTINUOUS
10
3.81466
20
-1.97962
11
3.81299
21
-1.98031
0
LINE
8
BLACK
6
CONTINUOUS
10
3.81299
20
-1.98031
11
3.73622
21
-1.98031
0
LINE
8
BLACK
6
CONTINUOUS
10
3.73622
20
-1.98031
11
3.65945
21
-1.98031
0
LINE
8
BLACK
6
CONTINUOUS
10
3.65945
20
-1.98031
11
3.65778
21
-1.97962
0
LINE
8
BLACK
6
CONTINUOUS
10
3.65778
20
-1.97962
11
3.65709
21
-1.97795
0
LINE
8
BLACK
6
CONTINUOUS
10
3.65709
20
-1.97795
11
3.65778
21
-1.97628
0
LINE
8
BLACK
6
CONTINUOUS
10
3.65778
20
-1.97628
11
3.65945
21
-1.97559
0
LINE
8
BLACK
6
CONTINUOUS
10
3.65945
20
-1.97559
11
3.73622
21
-1.97559
0
LINE
8
BLACK
6
CONTINUOUS
10
3.60602
20
-1.91697
11
3.60619
21
-1.91695
0
LINE
8
BLACK
6
CONTINUOUS
10
3.60619
20
-1.91695
11
3.60688
21
-1.91746
0
LINE
8
BLACK
6
CONTINUOUS
10
3.60688
20
-1.91746
11
3.60762
21
-1.91789
0
LINE
8
BLACK
6
CONTINUOUS
10
3.60762
20
-1.91789
11
3.60768
21
-1.91805
0
LINE
8
BLACK
6
CONTINUOUS
10
3.60768
20
-1.91805
11
3.60782
21
-1.91815
0
LINE
8
BLACK
6
CONTINUOUS
10
3.60782
20
-1.91815
11
3.61141
21
-1.92353
0
LINE
8
BLACK
6
CONTINUOUS
10
3.61141
20
-1.92353
11
3.61461
21
-1.92674
0
LINE
8
BLACK
6
CONTINUOUS
10
3.61461
20
-1.92674
11
3.61793
21
-1.9284
0
LINE
8
BLACK
6
CONTINUOUS
10
3.61793
20
-1.9284
11
3.61875
21
-1.92901
0
LINE
8
BLACK
6
CONTINUOUS
10
3.61875
20
-1.92901
11
3.61956
21
-1.93086
0
LINE
8
BLACK
6
CONTINUOUS
10
3.61956
20
-1.93086
11
3.61898
21
-1.9328
0
LINE
8
BLACK
6
CONTINUOUS
10
3.61898
20
-1.9328
11
3.6173
21
-1.93391
0
LINE
8
BLACK
6
CONTINUOUS
10
3.6173
20
-1.93391
11
3.61529
21
-1.93368
0
LINE
8
BLACK
6
CONTINUOUS
10
3.61529
20
-1.93368
11
3.61154
21
-1.9318
0
LINE
8
BLACK
6
CONTINUOUS
10
3.61154
20
-1.9318
11
3.61083
21
-1.93128
0
LINE
8
BLACK
6
CONTINUOUS
10
3.61083
20
-1.93128
11
3.61077
21
-1.93125
0
LINE
8
BLACK
6
CONTINUOUS
10
3.61077
20
-1.93125
11
3.60831
21
-1.92879
0
LINE
8
BLACK
6
CONTINUOUS
10
3.60831
20
-1.92879
11
3.60831
21
-1.95621
0
LINE
8
BLACK
6
CONTINUOUS
10
3.60831
20
-1.95621
11
3.61661
21
-1.95621
0
LINE
8
BLACK
6
CONTINUOUS
10
3.61661
20
-1.95621
11
3.61762
21
-1.95638
0
LINE
8
BLACK
6
CONTINUOUS
10
3.61762
20
-1.95638
11
3.61917
21
-1.95768
0
LINE
8
BLACK
6
CONTINUOUS
10
3.61917
20
-1.95768
11
3.61952
21
-1.95967
0
LINE
8
BLACK
6
CONTINUOUS
10
3.61952
20
-1.95967
11
3.61851
21
-1.96142
0
LINE
8
BLACK
6
CONTINUOUS
10
3.61851
20
-1.96142
11
3.61661
21
-1.96211
0
LINE
8
BLACK
6
CONTINUOUS
10
3.61661
20
-1.96211
11
3.59411
21
-1.96211
0
LINE
8
BLACK
6
CONTINUOUS
10
3.59411
20
-1.96211
11
3.5931
21
-1.96193
0
LINE
8
BLACK
6
CONTINUOUS
10
3.5931
20
-1.96193
11
3.59156
21
-1.96063
0
LINE
8
BLACK
6
CONTINUOUS
10
3.59156
20
-1.96063
11
3.59121
21
-1.95865
0
LINE
8
BLACK
6
CONTINUOUS
10
3.59121
20
-1.95865
11
3.59222
21
-1.9569
0
LINE
8
BLACK
6
CONTINUOUS
10
3.59222
20
-1.9569
11
3.59411
21
-1.95621
0
LINE
8
BLACK
6
CONTINUOUS
10
3.59411
20
-1.95621
11
3.60241
21
-1.95621
0
LINE
8
BLACK
6
CONTINUOUS
10
3.60241
20
-1.95621
11
3.60241
21
-1.91979
0
LINE
8
BLACK
6
CONTINUOUS
10
3.60241
20
-1.91979
11
3.60259
21
-1.91878
0
LINE
8
BLACK
6
CONTINUOUS
10
3.60259
20
-1.91878
11
3.6027
21
-1.91865
0
LINE
8
BLACK
6
CONTINUOUS
10
3.6027
20
-1.91865
11
3.60271
21
-1.91848
0
LINE
8
BLACK
6
CONTINUOUS
10
3.60271
20
-1.91848
11
3.60333
21
-1.91789
0
LINE
8
BLACK
6
CONTINUOUS
10
3.60333
20
-1.91789
11
3.60389
21
-1.91723
0
LINE
8
BLACK
6
CONTINUOUS
10
3.60389
20
-1.91723
11
3.60405
21
-1.9172
0
LINE
8
BLACK
6
CONTINUOUS
10
3.60405
20
-1.9172
11
3.60418
21
-1.91708
0
LINE
8
BLACK
6
CONTINUOUS
10
3.60418
20
-1.91708
11
3.60503
21
-1.91703
0
LINE
8
BLACK
6
CONTINUOUS
10
3.60503
20
-1.91703
11
3.60587
21
-1.91688
0
LINE
8
BLACK
6
CONTINUOUS
10
3.60587
20
-1.91688
11
3.60602
21
-1.91697
0
LINE
8
BLACK
6
CONTINUOUS
10
3.65824
20
-1.91789
11
3.65893
21
-1.91979
0
LINE
8
BLACK
6
CONTINUOUS
10
3.65893
20
-1.91979
11
3.65893
21
-1.95166
0
LINE
8
BLACK
6
CONTINUOUS
10
3.65893
20
-1.95166
11
3.65876
21
-1.95267
0
LINE
8
BLACK
6
CONTINUOUS
10
3.65876
20
-1.95267
11
3.65864
21
-1.9528
0
LINE
8
BLACK
6
CONTINUOUS
10
3.65864
20
-1.9528
11
3.65862
21
-1.95298
0
LINE
8
BLACK
6
CONTINUOUS
10
3.65862
20
-1.95298
11
3.65675
21
-1.95673
0
LINE
8
BLACK
6
CONTINUOUS
10
3.65675
20
-1.95673
11
3.65622
21
-1.95744
0
LINE
8
BLACK
6
CONTINUOUS
10
3.65622
20
-1.95744
11
3.65619
21
-1.9575
0
LINE
8
BLACK
6
CONTINUOUS
10
3.65619
20
-1.9575
11
3.65432
21
-1.95937
0
LINE
8
BLACK
6
CONTINUOUS
10
3.65432
20
-1.95937
11
3.6536
21
-1.95988
0
LINE
8
BLACK
6
CONTINUOUS
10
3.6536
20
-1.95988
11
3.65355
21
-1.95992
0
LINE
8
BLACK
6
CONTINUOUS
10
3.65355
20
-1.95992
11
3.6498
21
-1.9618
0
LINE
8
BLACK
6
CONTINUOUS
10
3.6498
20
-1.9618
11
3.64882
21
-1.96209
0
LINE
8
BLACK
6
CONTINUOUS
10
3.64882
20
-1.96209
11
3.64865
21
-1.96205
0
LINE
8
BLACK
6
CONTINUOUS
10
3.64865
20
-1.96205
11
3.64848
21
-1.96211
0
LINE
8
BLACK
6
CONTINUOUS
10
3.64848
20
-1.96211
11
3.64098
21
-1.96211
0
LINE
8
BLACK
6
CONTINUOUS
10
3.64098
20
-1.96211
11
3.63997
21
-1.96193
0
LINE
8
BLACK
6
CONTINUOUS
10
3.63997
20
-1.96193
11
3.63984
21
-1.96182
0
LINE
8
BLACK
6
CONTINUOUS
10
3.63984
20
-1.96182
11
3.63966
21
-1.9618
0
LINE
8
BLACK
6
CONTINUOUS
10
3.63966
20
-1.9618
11
3.63591
21
-1.95992
0
LINE
8
BLACK
6
CONTINUOUS
10
3.63591
20
-1.95992
11
3.6352
21
-1.9594
0
LINE
8
BLACK
6
CONTINUOUS
10
3.6352
20
-1.9594
11
3.63514
21
-1.95937
0
LINE
8
BLACK
6
CONTINUOUS
10
3.63514
20
-1.95937
11
3.63327
21
-1.9575
0
LINE
8
BLACK
6
CONTINUOUS
10
3.63327
20
-1.9575
11
3.63276
21
-1.95677
0
LINE
8
BLACK
6
CONTINUOUS
10
3.63276
20
-1.95677
11
3.63272
21
-1.95673
0
LINE
8
BLACK
6
CONTINUOUS
10
3.63272
20
-1.95673
11
3.63084
21
-1.95298
0
LINE
8
BLACK
6
CONTINUOUS
10
3.63084
20
-1.95298
11
3.63055
21
-1.952
0
LINE
8
BLACK
6
CONTINUOUS
10
3.63055
20
-1.952
11
3.63059
21
-1.95182
0
LINE
8
BLACK
6
CONTINUOUS
10
3.63059
20
-1.95182
11
3.63053
21
-1.95166
0
LINE
8
BLACK
6
CONTINUOUS
10
3.63053
20
-1.95166
11
3.63053
21
-1.91979
0
LINE
8
BLACK
6
CONTINUOUS
10
3.63053
20
-1.91979
11
3.63071
21
-1.91878
0
LINE
8
BLACK
6
CONTINUOUS
10
3.63071
20
-1.91878
11
3.63201
21
-1.91723
0
LINE
8
BLACK
6
CONTINUOUS
10
3.63201
20
-1.91723
11
3.634
21
-1.91688
0
LINE
8
BLACK
6
CONTINUOUS
10
3.634
20
-1.91688
11
3.63575
21
-1.91789
0
LINE
8
BLACK
6
CONTINUOUS
10
3.63575
20
-1.91789
11
3.63644
21
-1.91979
0
LINE
8
BLACK
6
CONTINUOUS
10
3.63644
20
-1.91979
11
3.63644
21
-1.95096
0
LINE
8
BLACK
6
CONTINUOUS
10
3.63644
20
-1.95096
11
3.63778
21
-1.95366
0
LINE
8
BLACK
6
CONTINUOUS
10
3.63778
20
-1.95366
11
3.63898
21
-1.95486
0
LINE
8
BLACK
6
CONTINUOUS
10
3.63898
20
-1.95486
11
3.64168
21
-1.95621
0
LINE
8
BLACK
6
CONTINUOUS
10
3.64168
20
-1.95621
11
3.64778
21
-1.95621
0
LINE
8
BLACK
6
CONTINUOUS
10
3.64778
20
-1.95621
11
3.65048
21
-1.95486
0
LINE
8
BLACK
6
CONTINUOUS
10
3.65048
20
-1.95486
11
3.65168
21
-1.95366
0
LINE
8
BLACK
6
CONTINUOUS
10
3.65168
20
-1.95366
11
3.65303
21
-1.95096
0
LINE
8
BLACK
6
CONTINUOUS
10
3.65303
20
-1.95096
11
3.65303
21
-1.91979
0
LINE
8
BLACK
6
CONTINUOUS
10
3.65303
20
-1.91979
11
3.65321
21
-1.91878
0
LINE
8
BLACK
6
CONTINUOUS
10
3.65321
20
-1.91878
11
3.6545
21
-1.91723
0
LINE
8
BLACK
6
CONTINUOUS
10
3.6545
20
-1.91723
11
3.65649
21
-1.91688
0
LINE
8
BLACK
6
CONTINUOUS
10
3.65649
20
-1.91688
11
3.65824
21
-1.91789
  0
ENDSEC
  0
EOF
