  0
SECTION
  2
HEADER
  9
$ANGBASE
  50
0.0
  9
$ANGDIR
  70
1
  9
$MEASUREMENT
  70
0
  0
ENDSEC
  0
SECTION
  2
TABLES
  0
TABLE
  2
LTYPE
  70
4
  0
LTYPE
  5
40F
  2
CONTINUOUS
  70
0
  3
Solid line
  72
65
  73
0
  40
0.0
  0
LTYPE
  5
410
  2
DASHDOT
 70
0
  3
Dash Dot ____ _ ____ _
 72
65
 73
4
 40
2.0
 49
1.25
 49
-0.25
 49
0.25
 49
-0.25
  0
LTYPE
  5
411
  2
DASHED
 70
0
  3
Dashed __ __ __ __ __
 72
65
 73
2
 40
0.75
 49
0.5
 49
-0.25
  0
LTYPE
  5
43B
  2
DOTTED
 70
0
  3
Dotted .  .  .  .
 72
65
 73
2
 40
0.2
 49
0.0
 49
-0.2
  0
ENDTAB
  0
TABLE
  2
STYLE
  70
4
  0
STYLE
  2
KICAD
  70
0
  40
0
  41
1
  42
1
  50
0
  71
0
  3
isocp.shx
  0
STYLE
  2
KICADB
  70
0
  40
0
  41
1
  42
1
  50
0
  71
0
  3
isocp.shx
  0
STYLE
  2
KICADI
  70
0
  40
0
  41
1
  42
1
  50
15
  71
0
  3
isocp.shx
  0
STYLE
  2
KICADBI
  70
0
  40
0
  41
1
  42
1
  50
15
  71
0
  3
isocp.shx
  0
ENDTAB
  0
TABLE
  2
LAYER
  70
1
  0
LAYER
  2
BLACK
  70
0
  62
7
  6
CONTINUOUS
  0
ENDTAB
  0
ENDSEC
  0
SECTION
  2
ENTITIES
0
LINE
8
BLACK
6
CONTINUOUS
10
2.68902
20
-2.79299
11
2.69647
21
-2.79588
0
LINE
8
BLACK
6
CONTINUOUS
10
2.69647
20
-2.79588
11
2.70326
21
-2.80009
0
LINE
8
BLACK
6
CONTINUOUS
10
2.70326
20
-2.80009
11
2.70917
21
-2.80547
0
LINE
8
BLACK
6
CONTINUOUS
10
2.70917
20
-2.80547
11
2.71399
21
-2.81185
0
LINE
8
BLACK
6
CONTINUOUS
10
2.71399
20
-2.81185
11
2.71755
21
-2.819
0
LINE
8
BLACK
6
CONTINUOUS
10
2.71755
20
-2.819
11
2.71974
21
-2.82669
0
LINE
8
BLACK
6
CONTINUOUS
10
2.71974
20
-2.82669
11
2.72047
21
-2.83465
0
LINE
8
BLACK
6
CONTINUOUS
10
2.72047
20
-2.83465
11
2.71974
21
-2.8426
0
LINE
8
BLACK
6
CONTINUOUS
10
2.71974
20
-2.8426
11
2.71755
21
-2.85029
0
LINE
8
BLACK
6
CONTINUOUS
10
2.71755
20
-2.85029
11
2.71399
21
-2.85744
0
LINE
8
BLACK
6
CONTINUOUS
10
2.71399
20
-2.85744
11
2.70917
21
-2.86382
0
LINE
8
BLACK
6
CONTINUOUS
10
2.70917
20
-2.86382
11
2.70326
21
-2.86921
0
LINE
8
BLACK
6
CONTINUOUS
10
2.70326
20
-2.86921
11
2.69647
21
-2.87341
0
LINE
8
BLACK
6
CONTINUOUS
10
2.69647
20
-2.87341
11
2.68902
21
-2.8763
0
LINE
8
BLACK
6
CONTINUOUS
10
2.68902
20
-2.8763
11
2.68116
21
-2.87777
0
LINE
8
BLACK
6
CONTINUOUS
10
2.68116
20
-2.87777
11
2.67317
21
-2.87777
0
LINE
8
BLACK
6
CONTINUOUS
10
2.67317
20
-2.87777
11
2.66531
21
-2.8763
0
LINE
8
BLACK
6
CONTINUOUS
10
2.66531
20
-2.8763
11
2.65786
21
-2.87341
0
LINE
8
BLACK
6
CONTINUOUS
10
2.65786
20
-2.87341
11
2.65107
21
-2.86921
0
LINE
8
BLACK
6
CONTINUOUS
10
2.65107
20
-2.86921
11
2.64516
21
-2.86382
0
LINE
8
BLACK
6
CONTINUOUS
10
2.64516
20
-2.86382
11
2.64034
21
-2.85744
0
LINE
8
BLACK
6
CONTINUOUS
10
2.64034
20
-2.85744
11
2.63678
21
-2.85029
0
LINE
8
BLACK
6
CONTINUOUS
10
2.63678
20
-2.85029
11
2.6346
21
-2.8426
0
LINE
8
BLACK
6
CONTINUOUS
10
2.6346
20
-2.8426
11
2.63386
21
-2.83465
0
LINE
8
BLACK
6
CONTINUOUS
10
2.63386
20
-2.83465
11
2.6346
21
-2.82669
0
LINE
8
BLACK
6
CONTINUOUS
10
2.6346
20
-2.82669
11
2.63678
21
-2.819
0
LINE
8
BLACK
6
CONTINUOUS
10
2.63678
20
-2.819
11
2.64034
21
-2.81185
0
LINE
8
BLACK
6
CONTINUOUS
10
2.64034
20
-2.81185
11
2.64516
21
-2.80547
0
LINE
8
BLACK
6
CONTINUOUS
10
2.64516
20
-2.80547
11
2.65107
21
-2.80009
0
LINE
8
BLACK
6
CONTINUOUS
10
2.65107
20
-2.80009
11
2.65786
21
-2.79588
0
LINE
8
BLACK
6
CONTINUOUS
10
2.65786
20
-2.79588
11
2.66531
21
-2.79299
0
LINE
8
BLACK
6
CONTINUOUS
10
2.66531
20
-2.79299
11
2.67317
21
-2.79152
0
LINE
8
BLACK
6
CONTINUOUS
10
2.67317
20
-2.79152
11
2.68116
21
-2.79152
0
LINE
8
BLACK
6
CONTINUOUS
10
2.68116
20
-2.79152
11
2.68902
21
-2.79299
0
LINE
8
BLACK
6
CONTINUOUS
10
3.47441
20
-2.81496
11
3.36614
21
-2.81496
0
LINE
8
BLACK
6
CONTINUOUS
10
3.36614
20
-2.81496
11
3.36614
21
-2.77559
0
LINE
8
BLACK
6
CONTINUOUS
10
3.36614
20
-2.77559
11
3.47441
21
-2.77559
0
LINE
8
BLACK
6
CONTINUOUS
10
3.47441
20
-2.77559
11
3.47441
21
-2.81496
0
LINE
8
BLACK
6
CONTINUOUS
10
3.72047
20
-2.81496
11
3.6122
21
-2.81496
0
LINE
8
BLACK
6
CONTINUOUS
10
3.6122
20
-2.81496
11
3.6122
21
-2.77559
0
LINE
8
BLACK
6
CONTINUOUS
10
3.6122
20
-2.77559
11
3.72047
21
-2.77559
0
LINE
8
BLACK
6
CONTINUOUS
10
3.72047
20
-2.77559
11
3.72047
21
-2.81496
0
LINE
8
BLACK
6
CONTINUOUS
10
3.47441
20
-2.73622
11
3.36614
21
-2.73622
0
LINE
8
BLACK
6
CONTINUOUS
10
3.36614
20
-2.73622
11
3.36614
21
-2.69685
0
LINE
8
BLACK
6
CONTINUOUS
10
3.36614
20
-2.69685
11
3.47441
21
-2.69685
0
LINE
8
BLACK
6
CONTINUOUS
10
3.47441
20
-2.69685
11
3.47441
21
-2.73622
0
LINE
8
BLACK
6
CONTINUOUS
10
3.72047
20
-2.73622
11
3.6122
21
-2.73622
0
LINE
8
BLACK
6
CONTINUOUS
10
3.6122
20
-2.73622
11
3.6122
21
-2.69685
0
LINE
8
BLACK
6
CONTINUOUS
10
3.6122
20
-2.69685
11
3.72047
21
-2.69685
0
LINE
8
BLACK
6
CONTINUOUS
10
3.72047
20
-2.69685
11
3.72047
21
-2.73622
0
LINE
8
BLACK
6
CONTINUOUS
10
3.52362
20
-2.53937
11
3.48425
21
-2.53937
0
LINE
8
BLACK
6
CONTINUOUS
10
3.48425
20
-2.53937
11
3.48425
21
-2.4311
0
LINE
8
BLACK
6
CONTINUOUS
10
3.48425
20
-2.4311
11
3.52362
21
-2.4311
0
LINE
8
BLACK
6
CONTINUOUS
10
3.52362
20
-2.4311
11
3.52362
21
-2.53937
0
LINE
8
BLACK
6
CONTINUOUS
10
3.60236
20
-2.53937
11
3.56299
21
-2.53937
0
LINE
8
BLACK
6
CONTINUOUS
10
3.56299
20
-2.53937
11
3.56299
21
-2.4311
0
LINE
8
BLACK
6
CONTINUOUS
10
3.56299
20
-2.4311
11
3.60236
21
-2.4311
0
LINE
8
BLACK
6
CONTINUOUS
10
3.60236
20
-2.4311
11
3.60236
21
-2.53937
0
LINE
8
BLACK
6
CONTINUOUS
10
3.52362
20
-2.29331
11
3.48425
21
-2.29331
0
LINE
8
BLACK
6
CONTINUOUS
10
3.48425
20
-2.29331
11
3.48425
21
-2.18504
0
LINE
8
BLACK
6
CONTINUOUS
10
3.48425
20
-2.18504
11
3.52362
21
-2.18504
0
LINE
8
BLACK
6
CONTINUOUS
10
3.52362
20
-2.18504
11
3.52362
21
-2.29331
0
LINE
8
BLACK
6
CONTINUOUS
10
3.60236
20
-2.29331
11
3.56299
21
-2.29331
0
LINE
8
BLACK
6
CONTINUOUS
10
3.56299
20
-2.29331
11
3.56299
21
-2.18504
0
LINE
8
BLACK
6
CONTINUOUS
10
3.56299
20
-2.18504
11
3.60236
21
-2.18504
0
LINE
8
BLACK
6
CONTINUOUS
10
3.60236
20
-2.18504
11
3.60236
21
-2.29331
0
LINE
8
BLACK
6
CONTINUOUS
10
2.68902
20
-1.84811
11
2.69647
21
-1.851
0
LINE
8
BLACK
6
CONTINUOUS
10
2.69647
20
-1.851
11
2.70326
21
-1.8552
0
LINE
8
BLACK
6
CONTINUOUS
10
2.70326
20
-1.8552
11
2.70917
21
-1.86059
0
LINE
8
BLACK
6
CONTINUOUS
10
2.70917
20
-1.86059
11
2.71399
21
-1.86697
0
LINE
8
BLACK
6
CONTINUOUS
10
2.71399
20
-1.86697
11
2.71755
21
-1.87412
0
LINE
8
BLACK
6
CONTINUOUS
10
2.71755
20
-1.87412
11
2.71974
21
-1.88181
0
LINE
8
BLACK
6
CONTINUOUS
10
2.71974
20
-1.88181
11
2.72047
21
-1.88976
0
LINE
8
BLACK
6
CONTINUOUS
10
2.72047
20
-1.88976
11
2.71974
21
-1.89772
0
LINE
8
BLACK
6
CONTINUOUS
10
2.71974
20
-1.89772
11
2.71755
21
-1.90541
0
LINE
8
BLACK
6
CONTINUOUS
10
2.71755
20
-1.90541
11
2.71399
21
-1.91256
0
LINE
8
BLACK
6
CONTINUOUS
10
2.71399
20
-1.91256
11
2.70917
21
-1.91894
0
LINE
8
BLACK
6
CONTINUOUS
10
2.70917
20
-1.91894
11
2.70326
21
-1.92432
0
LINE
8
BLACK
6
CONTINUOUS
10
2.70326
20
-1.92432
11
2.69647
21
-1.92853
0
LINE
8
BLACK
6
CONTINUOUS
10
2.69647
20
-1.92853
11
2.68902
21
-1.93142
0
LINE
8
BLACK
6
CONTINUOUS
10
2.68902
20
-1.93142
11
2.68116
21
-1.93289
0
LINE
8
BLACK
6
CONTINUOUS
10
2.68116
20
-1.93289
11
2.67317
21
-1.93289
0
LINE
8
BLACK
6
CONTINUOUS
10
2.67317
20
-1.93289
11
2.66531
21
-1.93142
0
LINE
8
BLACK
6
CONTINUOUS
10
2.66531
20
-1.93142
11
2.65786
21
-1.92853
0
LINE
8
BLACK
6
CONTINUOUS
10
2.65786
20
-1.92853
11
2.65107
21
-1.92432
0
LINE
8
BLACK
6
CONTINUOUS
10
2.65107
20
-1.92432
11
2.64516
21
-1.91894
0
LINE
8
BLACK
6
CONTINUOUS
10
2.64516
20
-1.91894
11
2.64034
21
-1.91256
0
LINE
8
BLACK
6
CONTINUOUS
10
2.64034
20
-1.91256
11
2.63678
21
-1.90541
0
LINE
8
BLACK
6
CONTINUOUS
10
2.63678
20
-1.90541
11
2.6346
21
-1.89772
0
LINE
8
BLACK
6
CONTINUOUS
10
2.6346
20
-1.89772
11
2.63386
21
-1.88976
0
LINE
8
BLACK
6
CONTINUOUS
10
2.63386
20
-1.88976
11
2.6346
21
-1.88181
0
LINE
8
BLACK
6
CONTINUOUS
10
2.6346
20
-1.88181
11
2.63678
21
-1.87412
0
LINE
8
BLACK
6
CONTINUOUS
10
2.63678
20
-1.87412
11
2.64034
21
-1.86697
0
LINE
8
BLACK
6
CONTINUOUS
10
2.64034
20
-1.86697
11
2.64516
21
-1.86059
0
LINE
8
BLACK
6
CONTINUOUS
10
2.64516
20
-1.86059
11
2.65107
21
-1.8552
0
LINE
8
BLACK
6
CONTINUOUS
10
2.65107
20
-1.8552
11
2.65786
21
-1.851
0
LINE
8
BLACK
6
CONTINUOUS
10
2.65786
20
-1.851
11
2.66531
21
-1.84811
0
LINE
8
BLACK
6
CONTINUOUS
10
2.66531
20
-1.84811
11
2.67317
21
-1.84664
0
LINE
8
BLACK
6
CONTINUOUS
10
2.67317
20
-1.84664
11
2.68116
21
-1.84664
0
LINE
8
BLACK
6
CONTINUOUS
10
2.68116
20
-1.84664
11
2.68902
21
-1.84811
0
LINE
8
BLACK
6
CONTINUOUS
10
3.6339
20
-1.84811
11
3.64135
21
-1.851
0
LINE
8
BLACK
6
CONTINUOUS
10
3.64135
20
-1.851
11
3.64815
21
-1.8552
0
LINE
8
BLACK
6
CONTINUOUS
10
3.64815
20
-1.8552
11
3.65405
21
-1.86059
0
LINE
8
BLACK
6
CONTINUOUS
10
3.65405
20
-1.86059
11
3.65887
21
-1.86697
0
LINE
8
BLACK
6
CONTINUOUS
10
3.65887
20
-1.86697
11
3.66243
21
-1.87412
0
LINE
8
BLACK
6
CONTINUOUS
10
3.66243
20
-1.87412
11
3.66462
21
-1.88181
0
LINE
8
BLACK
6
CONTINUOUS
10
3.66462
20
-1.88181
11
3.66535
21
-1.88976
0
LINE
8
BLACK
6
CONTINUOUS
10
3.66535
20
-1.88976
11
3.66462
21
-1.89772
0
LINE
8
BLACK
6
CONTINUOUS
10
3.66462
20
-1.89772
11
3.66243
21
-1.90541
0
LINE
8
BLACK
6
CONTINUOUS
10
3.66243
20
-1.90541
11
3.65887
21
-1.91256
0
LINE
8
BLACK
6
CONTINUOUS
10
3.65887
20
-1.91256
11
3.65405
21
-1.91894
0
LINE
8
BLACK
6
CONTINUOUS
10
3.65405
20
-1.91894
11
3.64815
21
-1.92432
0
LINE
8
BLACK
6
CONTINUOUS
10
3.64815
20
-1.92432
11
3.64135
21
-1.92853
0
LINE
8
BLACK
6
CONTINUOUS
10
3.64135
20
-1.92853
11
3.6339
21
-1.93142
0
LINE
8
BLACK
6
CONTINUOUS
10
3.6339
20
-1.93142
11
3.62604
21
-1.93289
0
LINE
8
BLACK
6
CONTINUOUS
10
3.62604
20
-1.93289
11
3.61805
21
-1.93289
0
LINE
8
BLACK
6
CONTINUOUS
10
3.61805
20
-1.93289
11
3.6102
21
-1.93142
0
LINE
8
BLACK
6
CONTINUOUS
10
3.6102
20
-1.93142
11
3.60274
21
-1.92853
0
LINE
8
BLACK
6
CONTINUOUS
10
3.60274
20
-1.92853
11
3.59595
21
-1.92432
0
LINE
8
BLACK
6
CONTINUOUS
10
3.59595
20
-1.92432
11
3.59004
21
-1.91894
0
LINE
8
BLACK
6
CONTINUOUS
10
3.59004
20
-1.91894
11
3.58523
21
-1.91256
0
LINE
8
BLACK
6
CONTINUOUS
10
3.58523
20
-1.91256
11
3.58166
21
-1.90541
0
LINE
8
BLACK
6
CONTINUOUS
10
3.58166
20
-1.90541
11
3.57948
21
-1.89772
0
LINE
8
BLACK
6
CONTINUOUS
10
3.57948
20
-1.89772
11
3.57874
21
-1.88976
0
LINE
8
BLACK
6
CONTINUOUS
10
3.57874
20
-1.88976
11
3.57948
21
-1.88181
0
LINE
8
BLACK
6
CONTINUOUS
10
3.57948
20
-1.88181
11
3.58166
21
-1.87412
0
LINE
8
BLACK
6
CONTINUOUS
10
3.58166
20
-1.87412
11
3.58523
21
-1.86697
0
LINE
8
BLACK
6
CONTINUOUS
10
3.58523
20
-1.86697
11
3.59004
21
-1.86059
0
LINE
8
BLACK
6
CONTINUOUS
10
3.59004
20
-1.86059
11
3.59595
21
-1.8552
0
LINE
8
BLACK
6
CONTINUOUS
10
3.59595
20
-1.8552
11
3.60274
21
-1.851
0
LINE
8
BLACK
6
CONTINUOUS
10
3.60274
20
-1.851
11
3.6102
21
-1.84811
0
LINE
8
BLACK
6
CONTINUOUS
10
3.6102
20
-1.84811
11
3.61805
21
-1.84664
0
LINE
8
BLACK
6
CONTINUOUS
10
3.61805
20
-1.84664
11
3.62604
21
-1.84664
0
LINE
8
BLACK
6
CONTINUOUS
10
3.62604
20
-1.84664
11
3.6339
21
-1.84811
  0
ENDSEC
  0
EOF
