  0
SECTION
  2
HEADER
  9
$ANGBASE
  50
0.0
  9
$ANGDIR
  70
1
  9
$MEASUREMENT
  70
0
  0
ENDSEC
  0
SECTION
  2
TABLES
  0
TABLE
  2
LTYPE
  70
4
  0
LTYPE
  5
40F
  2
CONTINUOUS
  70
0
  3
Solid line
  72
65
  73
0
  40
0.0
  0
LTYPE
  5
410
  2
DASHDOT
 70
0
  3
Dash Dot ____ _ ____ _
 72
65
 73
4
 40
2.0
 49
1.25
 49
-0.25
 49
0.25
 49
-0.25
  0
LTYPE
  5
411
  2
DASHED
 70
0
  3
Dashed __ __ __ __ __
 72
65
 73
2
 40
0.75
 49
0.5
 49
-0.25
  0
LTYPE
  5
43B
  2
DOTTED
 70
0
  3
Dotted .  .  .  .
 72
65
 73
2
 40
0.2
 49
0.0
 49
-0.2
  0
ENDTAB
  0
TABLE
  2
STYLE
  70
4
  0
STYLE
  2
KICAD
  70
0
  40
0
  41
1
  42
1
  50
0
  71
0
  3
isocp.shx
  0
STYLE
  2
KICADB
  70
0
  40
0
  41
1
  42
1
  50
0
  71
0
  3
isocp.shx
  0
STYLE
  2
KICADI
  70
0
  40
0
  41
1
  42
1
  50
15
  71
0
  3
isocp.shx
  0
STYLE
  2
KICADBI
  70
0
  40
0
  41
1
  42
1
  50
15
  71
0
  3
isocp.shx
  0
ENDTAB
  0
TABLE
  2
LAYER
  70
1
  0
LAYER
  2
BLACK
  70
0
  62
7
  6
CONTINUOUS
  0
ENDTAB
  0
ENDSEC
  0
SECTION
  2
ENTITIES
0
LINE
8
BLACK
6
CONTINUOUS
10
3.93504
20
-2.4439
11
3.93574
21
-2.44419
0
LINE
8
BLACK
6
CONTINUOUS
10
3.93574
20
-2.44419
11
3.93602
21
-2.44488
0
LINE
8
BLACK
6
CONTINUOUS
10
3.93602
20
-2.44488
11
3.93602
21
-2.90945
0
LINE
8
BLACK
6
CONTINUOUS
10
3.93602
20
-2.90945
11
3.93574
21
-2.91014
0
LINE
8
BLACK
6
CONTINUOUS
10
3.93574
20
-2.91014
11
3.93504
21
-2.91043
0
LINE
8
BLACK
6
CONTINUOUS
10
3.93504
20
-2.91043
11
3.59252
21
-2.91043
0
LINE
8
BLACK
6
CONTINUOUS
10
3.59252
20
-2.91043
11
3.59182
21
-2.91014
0
LINE
8
BLACK
6
CONTINUOUS
10
3.59182
20
-2.91014
11
3.59154
21
-2.90945
0
LINE
8
BLACK
6
CONTINUOUS
10
3.59154
20
-2.90945
11
3.59154
21
-2.44488
0
LINE
8
BLACK
6
CONTINUOUS
10
3.59154
20
-2.44488
11
3.59182
21
-2.44419
0
LINE
8
BLACK
6
CONTINUOUS
10
3.59182
20
-2.44419
11
3.59252
21
-2.4439
0
LINE
8
BLACK
6
CONTINUOUS
10
3.59252
20
-2.4439
11
3.93504
21
-2.4439
0
LINE
8
BLACK
6
CONTINUOUS
10
3.5935
20
-2.44587
11
3.5935
21
-2.90846
0
LINE
8
BLACK
6
CONTINUOUS
10
3.5935
20
-2.90846
11
3.93406
21
-2.90846
0
LINE
8
BLACK
6
CONTINUOUS
10
3.93406
20
-2.90846
11
3.93406
21
-2.44587
0
LINE
8
BLACK
6
CONTINUOUS
10
3.93406
20
-2.44587
11
3.5935
21
-2.44587
0
LINE
8
BLACK
6
CONTINUOUS
10
3.60827
20
-2.20768
11
3.79134
21
-2.20768
0
LINE
8
BLACK
6
CONTINUOUS
10
3.79134
20
-2.20768
11
3.79203
21
-2.20797
0
LINE
8
BLACK
6
CONTINUOUS
10
3.79203
20
-2.20797
11
3.79232
21
-2.20866
0
LINE
8
BLACK
6
CONTINUOUS
10
3.79232
20
-2.20866
11
3.79232
21
-2.28051
0
LINE
8
BLACK
6
CONTINUOUS
10
3.79232
20
-2.28051
11
3.82283
21
-2.28051
0
LINE
8
BLACK
6
CONTINUOUS
10
3.82283
20
-2.28051
11
3.82353
21
-2.2808
0
LINE
8
BLACK
6
CONTINUOUS
10
3.82353
20
-2.2808
11
3.82382
21
-2.2815
0
LINE
8
BLACK
6
CONTINUOUS
10
3.82382
20
-2.2815
11
3.82382
21
-2.36417
0
LINE
8
BLACK
6
CONTINUOUS
10
3.82382
20
-2.36417
11
3.82353
21
-2.36487
0
LINE
8
BLACK
6
CONTINUOUS
10
3.82353
20
-2.36487
11
3.82283
21
-2.36516
0
LINE
8
BLACK
6
CONTINUOUS
10
3.82283
20
-2.36516
11
3.79232
21
-2.36516
0
LINE
8
BLACK
6
CONTINUOUS
10
3.79232
20
-2.36516
11
3.79232
21
-2.43701
0
LINE
8
BLACK
6
CONTINUOUS
10
3.79232
20
-2.43701
11
3.79203
21
-2.4377
0
LINE
8
BLACK
6
CONTINUOUS
10
3.79203
20
-2.4377
11
3.79134
21
-2.43799
0
LINE
8
BLACK
6
CONTINUOUS
10
3.79134
20
-2.43799
11
3.60827
21
-2.43799
0
LINE
8
BLACK
6
CONTINUOUS
10
3.60827
20
-2.43799
11
3.60827
21
-2.43799
0
LINE
8
BLACK
6
CONTINUOUS
10
3.60827
20
-2.43799
11
3.60778
21
-2.43779
0
LINE
8
BLACK
6
CONTINUOUS
10
3.60778
20
-2.43779
11
3.60757
21
-2.4377
0
LINE
8
BLACK
6
CONTINUOUS
10
3.60757
20
-2.4377
11
3.60757
21
-2.4377
0
LINE
8
BLACK
6
CONTINUOUS
10
3.60757
20
-2.4377
11
3.5623
21
-2.39243
0
LINE
8
BLACK
6
CONTINUOUS
10
3.5623
20
-2.39243
11
3.56201
21
-2.39173
0
LINE
8
BLACK
6
CONTINUOUS
10
3.56201
20
-2.39173
11
3.56201
21
-2.36516
0
LINE
8
BLACK
6
CONTINUOUS
10
3.56201
20
-2.36516
11
3.5315
21
-2.36516
0
LINE
8
BLACK
6
CONTINUOUS
10
3.5315
20
-2.36516
11
3.5308
21
-2.36487
0
LINE
8
BLACK
6
CONTINUOUS
10
3.5308
20
-2.36487
11
3.53051
21
-2.36417
0
LINE
8
BLACK
6
CONTINUOUS
10
3.53051
20
-2.36417
11
3.53051
21
-2.2815
0
LINE
8
BLACK
6
CONTINUOUS
10
3.53051
20
-2.2815
11
3.5308
21
-2.2808
0
LINE
8
BLACK
6
CONTINUOUS
10
3.5308
20
-2.2808
11
3.5315
21
-2.28051
0
LINE
8
BLACK
6
CONTINUOUS
10
3.5315
20
-2.28051
11
3.56201
21
-2.28051
0
LINE
8
BLACK
6
CONTINUOUS
10
3.56201
20
-2.28051
11
3.56201
21
-2.25394
0
LINE
8
BLACK
6
CONTINUOUS
10
3.56201
20
-2.25394
11
3.5623
21
-2.25324
0
LINE
8
BLACK
6
CONTINUOUS
10
3.5623
20
-2.25324
11
3.60757
21
-2.20797
0
LINE
8
BLACK
6
CONTINUOUS
10
3.60757
20
-2.20797
11
3.60757
21
-2.20797
0
LINE
8
BLACK
6
CONTINUOUS
10
3.60757
20
-2.20797
11
3.60778
21
-2.20788
0
LINE
8
BLACK
6
CONTINUOUS
10
3.60778
20
-2.20788
11
3.60827
21
-2.20768
0
LINE
8
BLACK
6
CONTINUOUS
10
3.60827
20
-2.20768
11
3.60827
21
-2.20768
0
LINE
8
BLACK
6
CONTINUOUS
10
3.60868
20
-2.20965
11
3.56398
21
-2.25434
0
LINE
8
BLACK
6
CONTINUOUS
10
3.56398
20
-2.25434
11
3.56398
21
-2.2815
0
LINE
8
BLACK
6
CONTINUOUS
10
3.56398
20
-2.2815
11
3.56369
21
-2.28219
0
LINE
8
BLACK
6
CONTINUOUS
10
3.56369
20
-2.28219
11
3.56299
21
-2.28248
0
LINE
8
BLACK
6
CONTINUOUS
10
3.56299
20
-2.28248
11
3.53248
21
-2.28248
0
LINE
8
BLACK
6
CONTINUOUS
10
3.53248
20
-2.28248
11
3.53248
21
-2.36319
0
LINE
8
BLACK
6
CONTINUOUS
10
3.53248
20
-2.36319
11
3.56299
21
-2.36319
0
LINE
8
BLACK
6
CONTINUOUS
10
3.56299
20
-2.36319
11
3.56369
21
-2.36348
0
LINE
8
BLACK
6
CONTINUOUS
10
3.56369
20
-2.36348
11
3.56398
21
-2.36417
0
LINE
8
BLACK
6
CONTINUOUS
10
3.56398
20
-2.36417
11
3.56398
21
-2.39132
0
LINE
8
BLACK
6
CONTINUOUS
10
3.56398
20
-2.39132
11
3.60868
21
-2.43602
0
LINE
8
BLACK
6
CONTINUOUS
10
3.60868
20
-2.43602
11
3.79035
21
-2.43602
0
LINE
8
BLACK
6
CONTINUOUS
10
3.79035
20
-2.43602
11
3.79035
21
-2.36417
0
LINE
8
BLACK
6
CONTINUOUS
10
3.79035
20
-2.36417
11
3.79064
21
-2.36348
0
LINE
8
BLACK
6
CONTINUOUS
10
3.79064
20
-2.36348
11
3.79134
21
-2.36319
0
LINE
8
BLACK
6
CONTINUOUS
10
3.79134
20
-2.36319
11
3.82185
21
-2.36319
0
LINE
8
BLACK
6
CONTINUOUS
10
3.82185
20
-2.36319
11
3.82185
21
-2.28248
0
LINE
8
BLACK
6
CONTINUOUS
10
3.82185
20
-2.28248
11
3.79134
21
-2.28248
0
LINE
8
BLACK
6
CONTINUOUS
10
3.79134
20
-2.28248
11
3.79064
21
-2.28219
0
LINE
8
BLACK
6
CONTINUOUS
10
3.79064
20
-2.28219
11
3.79035
21
-2.2815
0
LINE
8
BLACK
6
CONTINUOUS
10
3.79035
20
-2.2815
11
3.79035
21
-2.20965
0
LINE
8
BLACK
6
CONTINUOUS
10
3.79035
20
-2.20965
11
3.60868
21
-2.20965
0
LINE
8
BLACK
6
CONTINUOUS
10
3.88189
20
-1.97146
11
3.88259
21
-1.97174
0
LINE
8
BLACK
6
CONTINUOUS
10
3.88259
20
-1.97174
11
3.88287
21
-1.97244
0
LINE
8
BLACK
6
CONTINUOUS
10
3.88287
20
-1.97244
11
3.88287
21
-2.00787
0
LINE
8
BLACK
6
CONTINUOUS
10
3.88287
20
-2.00787
11
3.88316
21
-2.00718
0
LINE
8
BLACK
6
CONTINUOUS
10
3.88316
20
-2.00718
11
3.88386
21
-2.00689
0
LINE
8
BLACK
6
CONTINUOUS
10
3.88386
20
-2.00689
11
3.94291
21
-2.00689
0
LINE
8
BLACK
6
CONTINUOUS
10
3.94291
20
-2.00689
11
3.94361
21
-2.00718
0
LINE
8
BLACK
6
CONTINUOUS
10
3.94361
20
-2.00718
11
3.9439
21
-2.00787
0
LINE
8
BLACK
6
CONTINUOUS
10
3.9439
20
-2.00787
11
3.9439
21
-2.13327
0
LINE
8
BLACK
6
CONTINUOUS
10
3.9439
20
-2.13327
11
3.94449
21
-2.13327
0
LINE
8
BLACK
6
CONTINUOUS
10
3.94449
20
-2.13327
11
3.94518
21
-2.13356
0
LINE
8
BLACK
6
CONTINUOUS
10
3.94518
20
-2.13356
11
3.94547
21
-2.13425
0
LINE
8
BLACK
6
CONTINUOUS
10
3.94547
20
-2.13425
11
3.94547
21
-2.22795
0
LINE
8
BLACK
6
CONTINUOUS
10
3.94547
20
-2.22795
11
3.94518
21
-2.22865
0
LINE
8
BLACK
6
CONTINUOUS
10
3.94518
20
-2.22865
11
3.94449
21
-2.22894
0
LINE
8
BLACK
6
CONTINUOUS
10
3.94449
20
-2.22894
11
3.88228
21
-2.22894
0
LINE
8
BLACK
6
CONTINUOUS
10
3.88228
20
-2.22894
11
3.88159
21
-2.22865
0
LINE
8
BLACK
6
CONTINUOUS
10
3.88159
20
-2.22865
11
3.8813
21
-2.22795
0
LINE
8
BLACK
6
CONTINUOUS
10
3.8813
20
-2.22795
11
3.8813
21
-2.18602
0
LINE
8
BLACK
6
CONTINUOUS
10
3.8813
20
-2.18602
11
3.59055
21
-2.18602
0
LINE
8
BLACK
6
CONTINUOUS
10
3.59055
20
-2.18602
11
3.58986
21
-2.18574
0
LINE
8
BLACK
6
CONTINUOUS
10
3.58986
20
-2.18574
11
3.58957
21
-2.18504
0
LINE
8
BLACK
6
CONTINUOUS
10
3.58957
20
-2.18504
11
3.58957
21
-1.97244
0
LINE
8
BLACK
6
CONTINUOUS
10
3.58957
20
-1.97244
11
3.58986
21
-1.97174
0
LINE
8
BLACK
6
CONTINUOUS
10
3.58986
20
-1.97174
11
3.59055
21
-1.97146
0
LINE
8
BLACK
6
CONTINUOUS
10
3.59055
20
-1.97146
11
3.88189
21
-1.97146
0
LINE
8
BLACK
6
CONTINUOUS
10
3.59154
20
-1.97343
11
3.59154
21
-2.18406
0
LINE
8
BLACK
6
CONTINUOUS
10
3.59154
20
-2.18406
11
3.88091
21
-2.18406
0
LINE
8
BLACK
6
CONTINUOUS
10
3.88091
20
-2.18406
11
3.88091
21
-1.97343
0
LINE
8
BLACK
6
CONTINUOUS
10
3.88091
20
-1.97343
11
3.59154
21
-1.97343
0
LINE
8
BLACK
6
CONTINUOUS
10
3.88327
20
-2.13524
11
3.88327
21
-2.22697
0
LINE
8
BLACK
6
CONTINUOUS
10
3.88327
20
-2.22697
11
3.9435
21
-2.22697
0
LINE
8
BLACK
6
CONTINUOUS
10
3.9435
20
-2.22697
11
3.9435
21
-2.13524
0
LINE
8
BLACK
6
CONTINUOUS
10
3.9435
20
-2.13524
11
3.88327
21
-2.13524
0
LINE
8
BLACK
6
CONTINUOUS
10
3.88484
20
-2.00886
11
3.88484
21
-2.13287
0
LINE
8
BLACK
6
CONTINUOUS
10
3.88484
20
-2.13287
11
3.94193
21
-2.13287
0
LINE
8
BLACK
6
CONTINUOUS
10
3.94193
20
-2.13287
11
3.94193
21
-2.00886
0
LINE
8
BLACK
6
CONTINUOUS
10
3.94193
20
-2.00886
11
3.88484
21
-2.00886
  0
ENDSEC
  0
EOF
