  0
SECTION
  2
HEADER
  9
$ANGBASE
  50
0.0
  9
$ANGDIR
  70
1
  9
$MEASUREMENT
  70
0
  0
ENDSEC
  0
SECTION
  2
TABLES
  0
TABLE
  2
LTYPE
  70
4
  0
LTYPE
  5
40F
  2
CONTINUOUS
  70
0
  3
Solid line
  72
65
  73
0
  40
0.0
  0
LTYPE
  5
410
  2
DASHDOT
 70
0
  3
Dash Dot ____ _ ____ _
 72
65
 73
4
 40
2.0
 49
1.25
 49
-0.25
 49
0.25
 49
-0.25
  0
LTYPE
  5
411
  2
DASHED
 70
0
  3
Dashed __ __ __ __ __
 72
65
 73
2
 40
0.75
 49
0.5
 49
-0.25
  0
LTYPE
  5
43B
  2
DOTTED
 70
0
  3
Dotted .  .  .  .
 72
65
 73
2
 40
0.2
 49
0.0
 49
-0.2
  0
ENDTAB
  0
TABLE
  2
STYLE
  70
4
  0
STYLE
  2
KICAD
  70
0
  40
0
  41
1
  42
1
  50
0
  71
0
  3
isocp.shx
  0
STYLE
  2
KICADB
  70
0
  40
0
  41
1
  42
1
  50
0
  71
0
  3
isocp.shx
  0
STYLE
  2
KICADI
  70
0
  40
0
  41
1
  42
1
  50
15
  71
0
  3
isocp.shx
  0
STYLE
  2
KICADBI
  70
0
  40
0
  41
1
  42
1
  50
15
  71
0
  3
isocp.shx
  0
ENDTAB
  0
TABLE
  2
LAYER
  70
1
  0
LAYER
  2
BLACK
  70
0
  62
7
  6
CONTINUOUS
  0
ENDTAB
  0
ENDSEC
  0
SECTION
  2
ENTITIES
0
LINE
8
BLACK
6
CONTINUOUS
10
2.7676
20
-2.6671
11
2.77909
21
-2.66939
0
LINE
8
BLACK
6
CONTINUOUS
10
2.77909
20
-2.66939
11
2.79018
21
-2.67316
0
LINE
8
BLACK
6
CONTINUOUS
10
2.79018
20
-2.67316
11
2.80069
21
-2.67834
0
LINE
8
BLACK
6
CONTINUOUS
10
2.80069
20
-2.67834
11
2.81043
21
-2.68485
0
LINE
8
BLACK
6
CONTINUOUS
10
2.81043
20
-2.68485
11
2.81924
21
-2.69257
0
LINE
8
BLACK
6
CONTINUOUS
10
2.81924
20
-2.69257
11
2.82696
21
-2.70138
0
LINE
8
BLACK
6
CONTINUOUS
10
2.82696
20
-2.70138
11
2.83347
21
-2.71112
0
LINE
8
BLACK
6
CONTINUOUS
10
2.83347
20
-2.71112
11
2.83865
21
-2.72163
0
LINE
8
BLACK
6
CONTINUOUS
10
2.83865
20
-2.72163
11
2.84242
21
-2.73272
0
LINE
8
BLACK
6
CONTINUOUS
10
2.84242
20
-2.73272
11
2.84471
21
-2.74421
0
LINE
8
BLACK
6
CONTINUOUS
10
2.84471
20
-2.74421
11
2.84547
21
-2.75591
0
LINE
8
BLACK
6
CONTINUOUS
10
2.84547
20
-2.75591
11
2.84471
21
-2.7676
0
LINE
8
BLACK
6
CONTINUOUS
10
2.84471
20
-2.7676
11
2.84242
21
-2.77909
0
LINE
8
BLACK
6
CONTINUOUS
10
2.84242
20
-2.77909
11
2.83865
21
-2.79018
0
LINE
8
BLACK
6
CONTINUOUS
10
2.83865
20
-2.79018
11
2.83347
21
-2.80069
0
LINE
8
BLACK
6
CONTINUOUS
10
2.83347
20
-2.80069
11
2.82696
21
-2.81043
0
LINE
8
BLACK
6
CONTINUOUS
10
2.82696
20
-2.81043
11
2.81924
21
-2.81924
0
LINE
8
BLACK
6
CONTINUOUS
10
2.81924
20
-2.81924
11
2.81043
21
-2.82696
0
LINE
8
BLACK
6
CONTINUOUS
10
2.81043
20
-2.82696
11
2.80069
21
-2.83347
0
LINE
8
BLACK
6
CONTINUOUS
10
2.80069
20
-2.83347
11
2.79018
21
-2.83865
0
LINE
8
BLACK
6
CONTINUOUS
10
2.79018
20
-2.83865
11
2.77909
21
-2.84242
0
LINE
8
BLACK
6
CONTINUOUS
10
2.77909
20
-2.84242
11
2.7676
21
-2.84471
0
LINE
8
BLACK
6
CONTINUOUS
10
2.7676
20
-2.84471
11
2.75591
21
-2.84547
0
LINE
8
BLACK
6
CONTINUOUS
10
2.75591
20
-2.84547
11
2.74421
21
-2.84471
0
LINE
8
BLACK
6
CONTINUOUS
10
2.74421
20
-2.84471
11
2.73272
21
-2.84242
0
LINE
8
BLACK
6
CONTINUOUS
10
2.73272
20
-2.84242
11
2.72163
21
-2.83865
0
LINE
8
BLACK
6
CONTINUOUS
10
2.72163
20
-2.83865
11
2.71112
21
-2.83347
0
LINE
8
BLACK
6
CONTINUOUS
10
2.71112
20
-2.83347
11
2.70138
21
-2.82696
0
LINE
8
BLACK
6
CONTINUOUS
10
2.70138
20
-2.82696
11
2.69257
21
-2.81924
0
LINE
8
BLACK
6
CONTINUOUS
10
2.69257
20
-2.81924
11
2.68485
21
-2.81043
0
LINE
8
BLACK
6
CONTINUOUS
10
2.68485
20
-2.81043
11
2.67834
21
-2.80069
0
LINE
8
BLACK
6
CONTINUOUS
10
2.67834
20
-2.80069
11
2.67316
21
-2.79018
0
LINE
8
BLACK
6
CONTINUOUS
10
2.67316
20
-2.79018
11
2.66939
21
-2.77909
0
LINE
8
BLACK
6
CONTINUOUS
10
2.66939
20
-2.77909
11
2.6671
21
-2.7676
0
LINE
8
BLACK
6
CONTINUOUS
10
2.6671
20
-2.7676
11
2.66634
21
-2.75591
0
LINE
8
BLACK
6
CONTINUOUS
10
2.66634
20
-2.75591
11
2.6671
21
-2.74421
0
LINE
8
BLACK
6
CONTINUOUS
10
2.6671
20
-2.74421
11
2.66939
21
-2.73272
0
LINE
8
BLACK
6
CONTINUOUS
10
2.66939
20
-2.73272
11
2.67316
21
-2.72163
0
LINE
8
BLACK
6
CONTINUOUS
10
2.67316
20
-2.72163
11
2.67834
21
-2.71112
0
LINE
8
BLACK
6
CONTINUOUS
10
2.67834
20
-2.71112
11
2.68485
21
-2.70138
0
LINE
8
BLACK
6
CONTINUOUS
10
2.68485
20
-2.70138
11
2.69257
21
-2.69257
0
LINE
8
BLACK
6
CONTINUOUS
10
2.69257
20
-2.69257
11
2.70138
21
-2.68485
0
LINE
8
BLACK
6
CONTINUOUS
10
2.70138
20
-2.68485
11
2.71112
21
-2.67834
0
LINE
8
BLACK
6
CONTINUOUS
10
2.71112
20
-2.67834
11
2.72163
21
-2.67316
0
LINE
8
BLACK
6
CONTINUOUS
10
2.72163
20
-2.67316
11
2.73272
21
-2.66939
0
LINE
8
BLACK
6
CONTINUOUS
10
2.73272
20
-2.66939
11
2.74421
21
-2.6671
0
LINE
8
BLACK
6
CONTINUOUS
10
2.74421
20
-2.6671
11
2.75591
21
-2.66634
0
LINE
8
BLACK
6
CONTINUOUS
10
2.75591
20
-2.66634
11
2.7676
21
-2.6671
0
LINE
8
BLACK
6
CONTINUOUS
10
2.67283
20
-2.76732
11
2.67516
21
-2.77853
0
LINE
8
BLACK
6
CONTINUOUS
10
2.67516
20
-2.77853
11
2.67899
21
-2.78931
0
LINE
8
BLACK
6
CONTINUOUS
10
2.67899
20
-2.78931
11
2.68426
21
-2.79948
0
LINE
8
BLACK
6
CONTINUOUS
10
2.68426
20
-2.79948
11
2.69086
21
-2.80883
0
LINE
8
BLACK
6
CONTINUOUS
10
2.69086
20
-2.80883
11
2.69867
21
-2.81719
0
LINE
8
BLACK
6
CONTINUOUS
10
2.69867
20
-2.81719
11
2.70755
21
-2.82441
0
LINE
8
BLACK
6
CONTINUOUS
10
2.70755
20
-2.82441
11
2.71733
21
-2.83036
0
LINE
8
BLACK
6
CONTINUOUS
10
2.71733
20
-2.83036
11
2.72782
21
-2.83492
0
LINE
8
BLACK
6
CONTINUOUS
10
2.72782
20
-2.83492
11
2.73884
21
-2.83801
0
LINE
8
BLACK
6
CONTINUOUS
10
2.73884
20
-2.83801
11
2.75018
21
-2.83957
0
LINE
8
BLACK
6
CONTINUOUS
10
2.75018
20
-2.83957
11
2.76163
21
-2.83957
0
LINE
8
BLACK
6
CONTINUOUS
10
2.76163
20
-2.83957
11
2.77297
21
-2.83801
0
LINE
8
BLACK
6
CONTINUOUS
10
2.77297
20
-2.83801
11
2.78399
21
-2.83492
0
LINE
8
BLACK
6
CONTINUOUS
10
2.78399
20
-2.83492
11
2.79449
21
-2.83036
0
LINE
8
BLACK
6
CONTINUOUS
10
2.79449
20
-2.83036
11
2.80426
21
-2.82441
0
LINE
8
BLACK
6
CONTINUOUS
10
2.80426
20
-2.82441
11
2.81314
21
-2.81719
0
LINE
8
BLACK
6
CONTINUOUS
10
2.81314
20
-2.81719
11
2.82095
21
-2.80883
0
LINE
8
BLACK
6
CONTINUOUS
10
2.82095
20
-2.80883
11
2.82755
21
-2.79948
0
LINE
8
BLACK
6
CONTINUOUS
10
2.82755
20
-2.79948
11
2.83282
21
-2.78931
0
LINE
8
BLACK
6
CONTINUOUS
10
2.83282
20
-2.78931
11
2.83665
21
-2.77853
0
LINE
8
BLACK
6
CONTINUOUS
10
2.83665
20
-2.77853
11
2.83898
21
-2.76732
0
LINE
8
BLACK
6
CONTINUOUS
10
2.83898
20
-2.76732
11
2.83976
21
-2.75591
0
LINE
8
BLACK
6
CONTINUOUS
10
2.83976
20
-2.75591
11
2.83898
21
-2.74449
0
LINE
8
BLACK
6
CONTINUOUS
10
2.83898
20
-2.74449
11
2.83665
21
-2.73328
0
LINE
8
BLACK
6
CONTINUOUS
10
2.83665
20
-2.73328
11
2.83282
21
-2.7225
0
LINE
8
BLACK
6
CONTINUOUS
10
2.83282
20
-2.7225
11
2.82755
21
-2.71233
0
LINE
8
BLACK
6
CONTINUOUS
10
2.82755
20
-2.71233
11
2.82095
21
-2.70298
0
LINE
8
BLACK
6
CONTINUOUS
10
2.82095
20
-2.70298
11
2.81314
21
-2.69462
0
LINE
8
BLACK
6
CONTINUOUS
10
2.81314
20
-2.69462
11
2.80426
21
-2.6874
0
LINE
8
BLACK
6
CONTINUOUS
10
2.80426
20
-2.6874
11
2.79449
21
-2.68145
0
LINE
8
BLACK
6
CONTINUOUS
10
2.79449
20
-2.68145
11
2.78399
21
-2.67689
0
LINE
8
BLACK
6
CONTINUOUS
10
2.78399
20
-2.67689
11
2.77297
21
-2.6738
0
LINE
8
BLACK
6
CONTINUOUS
10
2.77297
20
-2.6738
11
2.76163
21
-2.67224
0
LINE
8
BLACK
6
CONTINUOUS
10
2.76163
20
-2.67224
11
2.75018
21
-2.67224
0
LINE
8
BLACK
6
CONTINUOUS
10
2.75018
20
-2.67224
11
2.73884
21
-2.6738
0
LINE
8
BLACK
6
CONTINUOUS
10
2.73884
20
-2.6738
11
2.72782
21
-2.67689
0
LINE
8
BLACK
6
CONTINUOUS
10
2.72782
20
-2.67689
11
2.71733
21
-2.68145
0
LINE
8
BLACK
6
CONTINUOUS
10
2.71733
20
-2.68145
11
2.70755
21
-2.6874
0
LINE
8
BLACK
6
CONTINUOUS
10
2.70755
20
-2.6874
11
2.69867
21
-2.69462
0
LINE
8
BLACK
6
CONTINUOUS
10
2.69867
20
-2.69462
11
2.69086
21
-2.70298
0
LINE
8
BLACK
6
CONTINUOUS
10
2.69086
20
-2.70298
11
2.68426
21
-2.71233
0
LINE
8
BLACK
6
CONTINUOUS
10
2.68426
20
-2.71233
11
2.67899
21
-2.7225
0
LINE
8
BLACK
6
CONTINUOUS
10
2.67899
20
-2.7225
11
2.67516
21
-2.73328
0
LINE
8
BLACK
6
CONTINUOUS
10
2.67516
20
-2.73328
11
2.67283
21
-2.74449
0
LINE
8
BLACK
6
CONTINUOUS
10
2.67283
20
-2.74449
11
2.67205
21
-2.75591
0
LINE
8
BLACK
6
CONTINUOUS
10
2.67205
20
-2.75591
11
2.67283
21
-2.76732
0
LINE
8
BLACK
6
CONTINUOUS
10
2.7676
20
-1.8797
11
2.77909
21
-1.88199
0
LINE
8
BLACK
6
CONTINUOUS
10
2.77909
20
-1.88199
11
2.79018
21
-1.88575
0
LINE
8
BLACK
6
CONTINUOUS
10
2.79018
20
-1.88575
11
2.80069
21
-1.89094
0
LINE
8
BLACK
6
CONTINUOUS
10
2.80069
20
-1.89094
11
2.81043
21
-1.89745
0
LINE
8
BLACK
6
CONTINUOUS
10
2.81043
20
-1.89745
11
2.81924
21
-1.90517
0
LINE
8
BLACK
6
CONTINUOUS
10
2.81924
20
-1.90517
11
2.82696
21
-1.91398
0
LINE
8
BLACK
6
CONTINUOUS
10
2.82696
20
-1.91398
11
2.83347
21
-1.92372
0
LINE
8
BLACK
6
CONTINUOUS
10
2.83347
20
-1.92372
11
2.83865
21
-1.93423
0
LINE
8
BLACK
6
CONTINUOUS
10
2.83865
20
-1.93423
11
2.84242
21
-1.94532
0
LINE
8
BLACK
6
CONTINUOUS
10
2.84242
20
-1.94532
11
2.84471
21
-1.95681
0
LINE
8
BLACK
6
CONTINUOUS
10
2.84471
20
-1.95681
11
2.84547
21
-1.9685
0
LINE
8
BLACK
6
CONTINUOUS
10
2.84547
20
-1.9685
11
2.84471
21
-1.98019
0
LINE
8
BLACK
6
CONTINUOUS
10
2.84471
20
-1.98019
11
2.84242
21
-1.99169
0
LINE
8
BLACK
6
CONTINUOUS
10
2.84242
20
-1.99169
11
2.83865
21
-2.00278
0
LINE
8
BLACK
6
CONTINUOUS
10
2.83865
20
-2.00278
11
2.83347
21
-2.01329
0
LINE
8
BLACK
6
CONTINUOUS
10
2.83347
20
-2.01329
11
2.82696
21
-2.02303
0
LINE
8
BLACK
6
CONTINUOUS
10
2.82696
20
-2.02303
11
2.81924
21
-2.03184
0
LINE
8
BLACK
6
CONTINUOUS
10
2.81924
20
-2.03184
11
2.81043
21
-2.03956
0
LINE
8
BLACK
6
CONTINUOUS
10
2.81043
20
-2.03956
11
2.80069
21
-2.04607
0
LINE
8
BLACK
6
CONTINUOUS
10
2.80069
20
-2.04607
11
2.79018
21
-2.05125
0
LINE
8
BLACK
6
CONTINUOUS
10
2.79018
20
-2.05125
11
2.77909
21
-2.05502
0
LINE
8
BLACK
6
CONTINUOUS
10
2.77909
20
-2.05502
11
2.7676
21
-2.0573
0
LINE
8
BLACK
6
CONTINUOUS
10
2.7676
20
-2.0573
11
2.75591
21
-2.05807
0
LINE
8
BLACK
6
CONTINUOUS
10
2.75591
20
-2.05807
11
2.74421
21
-2.0573
0
LINE
8
BLACK
6
CONTINUOUS
10
2.74421
20
-2.0573
11
2.73272
21
-2.05502
0
LINE
8
BLACK
6
CONTINUOUS
10
2.73272
20
-2.05502
11
2.72163
21
-2.05125
0
LINE
8
BLACK
6
CONTINUOUS
10
2.72163
20
-2.05125
11
2.71112
21
-2.04607
0
LINE
8
BLACK
6
CONTINUOUS
10
2.71112
20
-2.04607
11
2.70138
21
-2.03956
0
LINE
8
BLACK
6
CONTINUOUS
10
2.70138
20
-2.03956
11
2.69257
21
-2.03184
0
LINE
8
BLACK
6
CONTINUOUS
10
2.69257
20
-2.03184
11
2.68485
21
-2.02303
0
LINE
8
BLACK
6
CONTINUOUS
10
2.68485
20
-2.02303
11
2.67834
21
-2.01329
0
LINE
8
BLACK
6
CONTINUOUS
10
2.67834
20
-2.01329
11
2.67316
21
-2.00278
0
LINE
8
BLACK
6
CONTINUOUS
10
2.67316
20
-2.00278
11
2.66939
21
-1.99169
0
LINE
8
BLACK
6
CONTINUOUS
10
2.66939
20
-1.99169
11
2.6671
21
-1.98019
0
LINE
8
BLACK
6
CONTINUOUS
10
2.6671
20
-1.98019
11
2.66634
21
-1.9685
0
LINE
8
BLACK
6
CONTINUOUS
10
2.66634
20
-1.9685
11
2.6671
21
-1.95681
0
LINE
8
BLACK
6
CONTINUOUS
10
2.6671
20
-1.95681
11
2.66939
21
-1.94532
0
LINE
8
BLACK
6
CONTINUOUS
10
2.66939
20
-1.94532
11
2.67316
21
-1.93423
0
LINE
8
BLACK
6
CONTINUOUS
10
2.67316
20
-1.93423
11
2.67834
21
-1.92372
0
LINE
8
BLACK
6
CONTINUOUS
10
2.67834
20
-1.92372
11
2.68485
21
-1.91398
0
LINE
8
BLACK
6
CONTINUOUS
10
2.68485
20
-1.91398
11
2.69257
21
-1.90517
0
LINE
8
BLACK
6
CONTINUOUS
10
2.69257
20
-1.90517
11
2.70138
21
-1.89745
0
LINE
8
BLACK
6
CONTINUOUS
10
2.70138
20
-1.89745
11
2.71112
21
-1.89094
0
LINE
8
BLACK
6
CONTINUOUS
10
2.71112
20
-1.89094
11
2.72163
21
-1.88575
0
LINE
8
BLACK
6
CONTINUOUS
10
2.72163
20
-1.88575
11
2.73272
21
-1.88199
0
LINE
8
BLACK
6
CONTINUOUS
10
2.73272
20
-1.88199
11
2.74421
21
-1.8797
0
LINE
8
BLACK
6
CONTINUOUS
10
2.74421
20
-1.8797
11
2.75591
21
-1.87894
0
LINE
8
BLACK
6
CONTINUOUS
10
2.75591
20
-1.87894
11
2.7676
21
-1.8797
0
LINE
8
BLACK
6
CONTINUOUS
10
2.67283
20
-1.97992
11
2.67516
21
-1.99113
0
LINE
8
BLACK
6
CONTINUOUS
10
2.67516
20
-1.99113
11
2.67899
21
-2.00191
0
LINE
8
BLACK
6
CONTINUOUS
10
2.67899
20
-2.00191
11
2.68426
21
-2.01207
0
LINE
8
BLACK
6
CONTINUOUS
10
2.68426
20
-2.01207
11
2.69086
21
-2.02142
0
LINE
8
BLACK
6
CONTINUOUS
10
2.69086
20
-2.02142
11
2.69867
21
-2.02979
0
LINE
8
BLACK
6
CONTINUOUS
10
2.69867
20
-2.02979
11
2.70755
21
-2.03701
0
LINE
8
BLACK
6
CONTINUOUS
10
2.70755
20
-2.03701
11
2.71733
21
-2.04296
0
LINE
8
BLACK
6
CONTINUOUS
10
2.71733
20
-2.04296
11
2.72782
21
-2.04752
0
LINE
8
BLACK
6
CONTINUOUS
10
2.72782
20
-2.04752
11
2.73884
21
-2.05061
0
LINE
8
BLACK
6
CONTINUOUS
10
2.73884
20
-2.05061
11
2.75018
21
-2.05217
0
LINE
8
BLACK
6
CONTINUOUS
10
2.75018
20
-2.05217
11
2.76163
21
-2.05217
0
LINE
8
BLACK
6
CONTINUOUS
10
2.76163
20
-2.05217
11
2.77297
21
-2.05061
0
LINE
8
BLACK
6
CONTINUOUS
10
2.77297
20
-2.05061
11
2.78399
21
-2.04752
0
LINE
8
BLACK
6
CONTINUOUS
10
2.78399
20
-2.04752
11
2.79449
21
-2.04296
0
LINE
8
BLACK
6
CONTINUOUS
10
2.79449
20
-2.04296
11
2.80426
21
-2.03701
0
LINE
8
BLACK
6
CONTINUOUS
10
2.80426
20
-2.03701
11
2.81314
21
-2.02979
0
LINE
8
BLACK
6
CONTINUOUS
10
2.81314
20
-2.02979
11
2.82095
21
-2.02142
0
LINE
8
BLACK
6
CONTINUOUS
10
2.82095
20
-2.02142
11
2.82755
21
-2.01207
0
LINE
8
BLACK
6
CONTINUOUS
10
2.82755
20
-2.01207
11
2.83282
21
-2.00191
0
LINE
8
BLACK
6
CONTINUOUS
10
2.83282
20
-2.00191
11
2.83665
21
-1.99113
0
LINE
8
BLACK
6
CONTINUOUS
10
2.83665
20
-1.99113
11
2.83898
21
-1.97992
0
LINE
8
BLACK
6
CONTINUOUS
10
2.83898
20
-1.97992
11
2.83976
21
-1.9685
0
LINE
8
BLACK
6
CONTINUOUS
10
2.83976
20
-1.9685
11
2.83898
21
-1.95709
0
LINE
8
BLACK
6
CONTINUOUS
10
2.83898
20
-1.95709
11
2.83665
21
-1.94588
0
LINE
8
BLACK
6
CONTINUOUS
10
2.83665
20
-1.94588
11
2.83282
21
-1.9351
0
LINE
8
BLACK
6
CONTINUOUS
10
2.83282
20
-1.9351
11
2.82755
21
-1.92493
0
LINE
8
BLACK
6
CONTINUOUS
10
2.82755
20
-1.92493
11
2.82095
21
-1.91558
0
LINE
8
BLACK
6
CONTINUOUS
10
2.82095
20
-1.91558
11
2.81314
21
-1.90722
0
LINE
8
BLACK
6
CONTINUOUS
10
2.81314
20
-1.90722
11
2.80426
21
-1.9
0
LINE
8
BLACK
6
CONTINUOUS
10
2.80426
20
-1.9
11
2.79449
21
-1.89405
0
LINE
8
BLACK
6
CONTINUOUS
10
2.79449
20
-1.89405
11
2.78399
21
-1.88949
0
LINE
8
BLACK
6
CONTINUOUS
10
2.78399
20
-1.88949
11
2.77297
21
-1.8864
0
LINE
8
BLACK
6
CONTINUOUS
10
2.77297
20
-1.8864
11
2.76163
21
-1.88484
0
LINE
8
BLACK
6
CONTINUOUS
10
2.76163
20
-1.88484
11
2.75018
21
-1.88484
0
LINE
8
BLACK
6
CONTINUOUS
10
2.75018
20
-1.88484
11
2.73884
21
-1.8864
0
LINE
8
BLACK
6
CONTINUOUS
10
2.73884
20
-1.8864
11
2.72782
21
-1.88949
0
LINE
8
BLACK
6
CONTINUOUS
10
2.72782
20
-1.88949
11
2.71733
21
-1.89405
0
LINE
8
BLACK
6
CONTINUOUS
10
2.71733
20
-1.89405
11
2.70755
21
-1.9
0
LINE
8
BLACK
6
CONTINUOUS
10
2.70755
20
-1.9
11
2.69867
21
-1.90722
0
LINE
8
BLACK
6
CONTINUOUS
10
2.69867
20
-1.90722
11
2.69086
21
-1.91558
0
LINE
8
BLACK
6
CONTINUOUS
10
2.69086
20
-1.91558
11
2.68426
21
-1.92493
0
LINE
8
BLACK
6
CONTINUOUS
10
2.68426
20
-1.92493
11
2.67899
21
-1.9351
0
LINE
8
BLACK
6
CONTINUOUS
10
2.67899
20
-1.9351
11
2.67516
21
-1.94588
0
LINE
8
BLACK
6
CONTINUOUS
10
2.67516
20
-1.94588
11
2.67283
21
-1.95709
0
LINE
8
BLACK
6
CONTINUOUS
10
2.67283
20
-1.95709
11
2.67205
21
-1.9685
0
LINE
8
BLACK
6
CONTINUOUS
10
2.67205
20
-1.9685
11
2.67283
21
-1.97992
0
LINE
8
BLACK
6
CONTINUOUS
10
3.555
20
-1.8797
11
3.56649
21
-1.88199
0
LINE
8
BLACK
6
CONTINUOUS
10
3.56649
20
-1.88199
11
3.57758
21
-1.88575
0
LINE
8
BLACK
6
CONTINUOUS
10
3.57758
20
-1.88575
11
3.58809
21
-1.89094
0
LINE
8
BLACK
6
CONTINUOUS
10
3.58809
20
-1.89094
11
3.59783
21
-1.89745
0
LINE
8
BLACK
6
CONTINUOUS
10
3.59783
20
-1.89745
11
3.60664
21
-1.90517
0
LINE
8
BLACK
6
CONTINUOUS
10
3.60664
20
-1.90517
11
3.61437
21
-1.91398
0
LINE
8
BLACK
6
CONTINUOUS
10
3.61437
20
-1.91398
11
3.62087
21
-1.92372
0
LINE
8
BLACK
6
CONTINUOUS
10
3.62087
20
-1.92372
11
3.62606
21
-1.93423
0
LINE
8
BLACK
6
CONTINUOUS
10
3.62606
20
-1.93423
11
3.62982
21
-1.94532
0
LINE
8
BLACK
6
CONTINUOUS
10
3.62982
20
-1.94532
11
3.63211
21
-1.95681
0
LINE
8
BLACK
6
CONTINUOUS
10
3.63211
20
-1.95681
11
3.63287
21
-1.9685
0
LINE
8
BLACK
6
CONTINUOUS
10
3.63287
20
-1.9685
11
3.63211
21
-1.98019
0
LINE
8
BLACK
6
CONTINUOUS
10
3.63211
20
-1.98019
11
3.62982
21
-1.99169
0
LINE
8
BLACK
6
CONTINUOUS
10
3.62982
20
-1.99169
11
3.62606
21
-2.00278
0
LINE
8
BLACK
6
CONTINUOUS
10
3.62606
20
-2.00278
11
3.62087
21
-2.01329
0
LINE
8
BLACK
6
CONTINUOUS
10
3.62087
20
-2.01329
11
3.61437
21
-2.02303
0
LINE
8
BLACK
6
CONTINUOUS
10
3.61437
20
-2.02303
11
3.60664
21
-2.03184
0
LINE
8
BLACK
6
CONTINUOUS
10
3.60664
20
-2.03184
11
3.59783
21
-2.03956
0
LINE
8
BLACK
6
CONTINUOUS
10
3.59783
20
-2.03956
11
3.58809
21
-2.04607
0
LINE
8
BLACK
6
CONTINUOUS
10
3.58809
20
-2.04607
11
3.57758
21
-2.05125
0
LINE
8
BLACK
6
CONTINUOUS
10
3.57758
20
-2.05125
11
3.56649
21
-2.05502
0
LINE
8
BLACK
6
CONTINUOUS
10
3.56649
20
-2.05502
11
3.555
21
-2.0573
0
LINE
8
BLACK
6
CONTINUOUS
10
3.555
20
-2.0573
11
3.54331
21
-2.05807
0
LINE
8
BLACK
6
CONTINUOUS
10
3.54331
20
-2.05807
11
3.53162
21
-2.0573
0
LINE
8
BLACK
6
CONTINUOUS
10
3.53162
20
-2.0573
11
3.52013
21
-2.05502
0
LINE
8
BLACK
6
CONTINUOUS
10
3.52013
20
-2.05502
11
3.50903
21
-2.05125
0
LINE
8
BLACK
6
CONTINUOUS
10
3.50903
20
-2.05125
11
3.49852
21
-2.04607
0
LINE
8
BLACK
6
CONTINUOUS
10
3.49852
20
-2.04607
11
3.48878
21
-2.03956
0
LINE
8
BLACK
6
CONTINUOUS
10
3.48878
20
-2.03956
11
3.47997
21
-2.03184
0
LINE
8
BLACK
6
CONTINUOUS
10
3.47997
20
-2.03184
11
3.47225
21
-2.02303
0
LINE
8
BLACK
6
CONTINUOUS
10
3.47225
20
-2.02303
11
3.46574
21
-2.01329
0
LINE
8
BLACK
6
CONTINUOUS
10
3.46574
20
-2.01329
11
3.46056
21
-2.00278
0
LINE
8
BLACK
6
CONTINUOUS
10
3.46056
20
-2.00278
11
3.45679
21
-1.99169
0
LINE
8
BLACK
6
CONTINUOUS
10
3.45679
20
-1.99169
11
3.45451
21
-1.98019
0
LINE
8
BLACK
6
CONTINUOUS
10
3.45451
20
-1.98019
11
3.45374
21
-1.9685
0
LINE
8
BLACK
6
CONTINUOUS
10
3.45374
20
-1.9685
11
3.45451
21
-1.95681
0
LINE
8
BLACK
6
CONTINUOUS
10
3.45451
20
-1.95681
11
3.45679
21
-1.94532
0
LINE
8
BLACK
6
CONTINUOUS
10
3.45679
20
-1.94532
11
3.46056
21
-1.93423
0
LINE
8
BLACK
6
CONTINUOUS
10
3.46056
20
-1.93423
11
3.46574
21
-1.92372
0
LINE
8
BLACK
6
CONTINUOUS
10
3.46574
20
-1.92372
11
3.47225
21
-1.91398
0
LINE
8
BLACK
6
CONTINUOUS
10
3.47225
20
-1.91398
11
3.47997
21
-1.90517
0
LINE
8
BLACK
6
CONTINUOUS
10
3.47997
20
-1.90517
11
3.48878
21
-1.89745
0
LINE
8
BLACK
6
CONTINUOUS
10
3.48878
20
-1.89745
11
3.49852
21
-1.89094
0
LINE
8
BLACK
6
CONTINUOUS
10
3.49852
20
-1.89094
11
3.50903
21
-1.88575
0
LINE
8
BLACK
6
CONTINUOUS
10
3.50903
20
-1.88575
11
3.52013
21
-1.88199
0
LINE
8
BLACK
6
CONTINUOUS
10
3.52013
20
-1.88199
11
3.53162
21
-1.8797
0
LINE
8
BLACK
6
CONTINUOUS
10
3.53162
20
-1.8797
11
3.54331
21
-1.87894
0
LINE
8
BLACK
6
CONTINUOUS
10
3.54331
20
-1.87894
11
3.555
21
-1.8797
0
LINE
8
BLACK
6
CONTINUOUS
10
3.46023
20
-1.97992
11
3.46256
21
-1.99113
0
LINE
8
BLACK
6
CONTINUOUS
10
3.46256
20
-1.99113
11
3.46639
21
-2.00191
0
LINE
8
BLACK
6
CONTINUOUS
10
3.46639
20
-2.00191
11
3.47166
21
-2.01207
0
LINE
8
BLACK
6
CONTINUOUS
10
3.47166
20
-2.01207
11
3.47826
21
-2.02142
0
LINE
8
BLACK
6
CONTINUOUS
10
3.47826
20
-2.02142
11
3.48607
21
-2.02979
0
LINE
8
BLACK
6
CONTINUOUS
10
3.48607
20
-2.02979
11
3.49495
21
-2.03701
0
LINE
8
BLACK
6
CONTINUOUS
10
3.49495
20
-2.03701
11
3.50473
21
-2.04296
0
LINE
8
BLACK
6
CONTINUOUS
10
3.50473
20
-2.04296
11
3.51523
21
-2.04752
0
LINE
8
BLACK
6
CONTINUOUS
10
3.51523
20
-2.04752
11
3.52625
21
-2.05061
0
LINE
8
BLACK
6
CONTINUOUS
10
3.52625
20
-2.05061
11
3.53758
21
-2.05217
0
LINE
8
BLACK
6
CONTINUOUS
10
3.53758
20
-2.05217
11
3.54903
21
-2.05217
0
LINE
8
BLACK
6
CONTINUOUS
10
3.54903
20
-2.05217
11
3.56037
21
-2.05061
0
LINE
8
BLACK
6
CONTINUOUS
10
3.56037
20
-2.05061
11
3.57139
21
-2.04752
0
LINE
8
BLACK
6
CONTINUOUS
10
3.57139
20
-2.04752
11
3.58189
21
-2.04296
0
LINE
8
BLACK
6
CONTINUOUS
10
3.58189
20
-2.04296
11
3.59167
21
-2.03701
0
LINE
8
BLACK
6
CONTINUOUS
10
3.59167
20
-2.03701
11
3.60054
21
-2.02979
0
LINE
8
BLACK
6
CONTINUOUS
10
3.60054
20
-2.02979
11
3.60836
21
-2.02142
0
LINE
8
BLACK
6
CONTINUOUS
10
3.60836
20
-2.02142
11
3.61496
21
-2.01207
0
LINE
8
BLACK
6
CONTINUOUS
10
3.61496
20
-2.01207
11
3.62022
21
-2.00191
0
LINE
8
BLACK
6
CONTINUOUS
10
3.62022
20
-2.00191
11
3.62405
21
-1.99113
0
LINE
8
BLACK
6
CONTINUOUS
10
3.62405
20
-1.99113
11
3.62638
21
-1.97992
0
LINE
8
BLACK
6
CONTINUOUS
10
3.62638
20
-1.97992
11
3.62716
21
-1.9685
0
LINE
8
BLACK
6
CONTINUOUS
10
3.62716
20
-1.9685
11
3.62638
21
-1.95709
0
LINE
8
BLACK
6
CONTINUOUS
10
3.62638
20
-1.95709
11
3.62405
21
-1.94588
0
LINE
8
BLACK
6
CONTINUOUS
10
3.62405
20
-1.94588
11
3.62022
21
-1.9351
0
LINE
8
BLACK
6
CONTINUOUS
10
3.62022
20
-1.9351
11
3.61496
21
-1.92493
0
LINE
8
BLACK
6
CONTINUOUS
10
3.61496
20
-1.92493
11
3.60836
21
-1.91558
0
LINE
8
BLACK
6
CONTINUOUS
10
3.60836
20
-1.91558
11
3.60054
21
-1.90722
0
LINE
8
BLACK
6
CONTINUOUS
10
3.60054
20
-1.90722
11
3.59167
21
-1.9
0
LINE
8
BLACK
6
CONTINUOUS
10
3.59167
20
-1.9
11
3.58189
21
-1.89405
0
LINE
8
BLACK
6
CONTINUOUS
10
3.58189
20
-1.89405
11
3.57139
21
-1.88949
0
LINE
8
BLACK
6
CONTINUOUS
10
3.57139
20
-1.88949
11
3.56037
21
-1.8864
0
LINE
8
BLACK
6
CONTINUOUS
10
3.56037
20
-1.8864
11
3.54903
21
-1.88484
0
LINE
8
BLACK
6
CONTINUOUS
10
3.54903
20
-1.88484
11
3.53758
21
-1.88484
0
LINE
8
BLACK
6
CONTINUOUS
10
3.53758
20
-1.88484
11
3.52625
21
-1.8864
0
LINE
8
BLACK
6
CONTINUOUS
10
3.52625
20
-1.8864
11
3.51523
21
-1.88949
0
LINE
8
BLACK
6
CONTINUOUS
10
3.51523
20
-1.88949
11
3.50473
21
-1.89405
0
LINE
8
BLACK
6
CONTINUOUS
10
3.50473
20
-1.89405
11
3.49495
21
-1.9
0
LINE
8
BLACK
6
CONTINUOUS
10
3.49495
20
-1.9
11
3.48607
21
-1.90722
0
LINE
8
BLACK
6
CONTINUOUS
10
3.48607
20
-1.90722
11
3.47826
21
-1.91558
0
LINE
8
BLACK
6
CONTINUOUS
10
3.47826
20
-1.91558
11
3.47166
21
-1.92493
0
LINE
8
BLACK
6
CONTINUOUS
10
3.47166
20
-1.92493
11
3.46639
21
-1.9351
0
LINE
8
BLACK
6
CONTINUOUS
10
3.46639
20
-1.9351
11
3.46256
21
-1.94588
0
LINE
8
BLACK
6
CONTINUOUS
10
3.46256
20
-1.94588
11
3.46023
21
-1.95709
0
LINE
8
BLACK
6
CONTINUOUS
10
3.46023
20
-1.95709
11
3.45945
21
-1.9685
0
LINE
8
BLACK
6
CONTINUOUS
10
3.45945
20
-1.9685
11
3.46023
21
-1.97992
  0
ENDSEC
  0
EOF
