  0
SECTION
  2
HEADER
  9
$ANGBASE
  50
0.0
  9
$ANGDIR
  70
1
  9
$MEASUREMENT
  70
0
  0
ENDSEC
  0
SECTION
  2
TABLES
  0
TABLE
  2
LTYPE
  70
4
  0
LTYPE
  5
40F
  2
CONTINUOUS
  70
0
  3
Solid line
  72
65
  73
0
  40
0.0
  0
LTYPE
  5
410
  2
DASHDOT
 70
0
  3
Dash Dot ____ _ ____ _
 72
65
 73
4
 40
2.0
 49
1.25
 49
-0.25
 49
0.25
 49
-0.25
  0
LTYPE
  5
411
  2
DASHED
 70
0
  3
Dashed __ __ __ __ __
 72
65
 73
2
 40
0.75
 49
0.5
 49
-0.25
  0
LTYPE
  5
43B
  2
DOTTED
 70
0
  3
Dotted .  .  .  .
 72
65
 73
2
 40
0.2
 49
0.0
 49
-0.2
  0
ENDTAB
  0
TABLE
  2
STYLE
  70
4
  0
STYLE
  2
KICAD
  70
0
  40
0
  41
1
  42
1
  50
0
  71
0
  3
isocp.shx
  0
STYLE
  2
KICADB
  70
0
  40
0
  41
1
  42
1
  50
0
  71
0
  3
isocp.shx
  0
STYLE
  2
KICADI
  70
0
  40
0
  41
1
  42
1
  50
15
  71
0
  3
isocp.shx
  0
STYLE
  2
KICADBI
  70
0
  40
0
  41
1
  42
1
  50
15
  71
0
  3
isocp.shx
  0
ENDTAB
  0
TABLE
  2
LAYER
  70
1
  0
LAYER
  2
BLACK
  70
0
  62
7
  6
CONTINUOUS
  0
ENDTAB
  0
ENDSEC
  0
SECTION
  2
ENTITIES
0
LINE
8
BLACK
6
CONTINUOUS
10
3.19685
20
-2.66831
11
3.19755
21
-2.6686
0
LINE
8
BLACK
6
CONTINUOUS
10
3.19755
20
-2.6686
11
3.19783
21
-2.66929
0
LINE
8
BLACK
6
CONTINUOUS
10
3.19783
20
-2.66929
11
3.19783
21
-2.76378
0
LINE
8
BLACK
6
CONTINUOUS
10
3.19783
20
-2.76378
11
3.19755
21
-2.76448
0
LINE
8
BLACK
6
CONTINUOUS
10
3.19755
20
-2.76448
11
3.19685
21
-2.76476
0
LINE
8
BLACK
6
CONTINUOUS
10
3.19685
20
-2.76476
11
3.10236
21
-2.76476
0
LINE
8
BLACK
6
CONTINUOUS
10
3.10236
20
-2.76476
11
3.10167
21
-2.76448
0
LINE
8
BLACK
6
CONTINUOUS
10
3.10167
20
-2.76448
11
3.10138
21
-2.76378
0
LINE
8
BLACK
6
CONTINUOUS
10
3.10138
20
-2.76378
11
3.10138
21
-2.66929
0
LINE
8
BLACK
6
CONTINUOUS
10
3.10138
20
-2.66929
11
3.10167
21
-2.6686
0
LINE
8
BLACK
6
CONTINUOUS
10
3.10167
20
-2.6686
11
3.10236
21
-2.66831
0
LINE
8
BLACK
6
CONTINUOUS
10
3.10236
20
-2.66831
11
3.19685
21
-2.66831
0
LINE
8
BLACK
6
CONTINUOUS
10
3.10335
20
-2.67028
11
3.10335
21
-2.7628
0
LINE
8
BLACK
6
CONTINUOUS
10
3.10335
20
-2.7628
11
3.19587
21
-2.7628
0
LINE
8
BLACK
6
CONTINUOUS
10
3.19587
20
-2.7628
11
3.19587
21
-2.67028
0
LINE
8
BLACK
6
CONTINUOUS
10
3.19587
20
-2.67028
11
3.10335
21
-2.67028
0
LINE
8
BLACK
6
CONTINUOUS
10
2.85082
20
-2.45564
11
2.89807
21
-2.53747
0
LINE
8
BLACK
6
CONTINUOUS
10
2.89807
20
-2.53747
11
2.89816
21
-2.53822
0
LINE
8
BLACK
6
CONTINUOUS
10
2.89816
20
-2.53822
11
2.89816
21
-2.53822
0
LINE
8
BLACK
6
CONTINUOUS
10
2.89816
20
-2.53822
11
2.89771
21
-2.53881
0
LINE
8
BLACK
6
CONTINUOUS
10
2.89771
20
-2.53881
11
2.81588
21
-2.58606
0
LINE
8
BLACK
6
CONTINUOUS
10
2.81588
20
-2.58606
11
2.81513
21
-2.58616
0
LINE
8
BLACK
6
CONTINUOUS
10
2.81513
20
-2.58616
11
2.81453
21
-2.5857
0
LINE
8
BLACK
6
CONTINUOUS
10
2.81453
20
-2.5857
11
2.81453
21
-2.5857
0
LINE
8
BLACK
6
CONTINUOUS
10
2.81453
20
-2.5857
11
2.76729
21
-2.50387
0
LINE
8
BLACK
6
CONTINUOUS
10
2.76729
20
-2.50387
11
2.76719
21
-2.50312
0
LINE
8
BLACK
6
CONTINUOUS
10
2.76719
20
-2.50312
11
2.76765
21
-2.50252
0
LINE
8
BLACK
6
CONTINUOUS
10
2.76765
20
-2.50252
11
2.84948
21
-2.45528
0
LINE
8
BLACK
6
CONTINUOUS
10
2.84948
20
-2.45528
11
2.85022
21
-2.45518
0
LINE
8
BLACK
6
CONTINUOUS
10
2.85022
20
-2.45518
11
2.85022
21
-2.45518
0
LINE
8
BLACK
6
CONTINUOUS
10
2.85022
20
-2.45518
11
2.85082
21
-2.45564
0
LINE
8
BLACK
6
CONTINUOUS
10
2.76949
20
-2.50374
11
2.81574
21
-2.58386
0
LINE
8
BLACK
6
CONTINUOUS
10
2.81574
20
-2.58386
11
2.89587
21
-2.5376
0
LINE
8
BLACK
6
CONTINUOUS
10
2.89587
20
-2.5376
11
2.84961
21
-2.45748
0
LINE
8
BLACK
6
CONTINUOUS
10
2.84961
20
-2.45748
11
2.76949
21
-2.50374
0
LINE
8
BLACK
6
CONTINUOUS
10
3.44974
20
-2.45528
11
3.53156
21
-2.50252
0
LINE
8
BLACK
6
CONTINUOUS
10
3.53156
20
-2.50252
11
3.53184
21
-2.50288
0
LINE
8
BLACK
6
CONTINUOUS
10
3.53184
20
-2.50288
11
3.53202
21
-2.50312
0
LINE
8
BLACK
6
CONTINUOUS
10
3.53202
20
-2.50312
11
3.53192
21
-2.50387
0
LINE
8
BLACK
6
CONTINUOUS
10
3.53192
20
-2.50387
11
3.48468
21
-2.5857
0
LINE
8
BLACK
6
CONTINUOUS
10
3.48468
20
-2.5857
11
3.48408
21
-2.58616
0
LINE
8
BLACK
6
CONTINUOUS
10
3.48408
20
-2.58616
11
3.48408
21
-2.58616
0
LINE
8
BLACK
6
CONTINUOUS
10
3.48408
20
-2.58616
11
3.48408
21
-2.58616
0
LINE
8
BLACK
6
CONTINUOUS
10
3.48408
20
-2.58616
11
3.48334
21
-2.58606
0
LINE
8
BLACK
6
CONTINUOUS
10
3.48334
20
-2.58606
11
3.40151
21
-2.53881
0
LINE
8
BLACK
6
CONTINUOUS
10
3.40151
20
-2.53881
11
3.40105
21
-2.53822
0
LINE
8
BLACK
6
CONTINUOUS
10
3.40105
20
-2.53822
11
3.40115
21
-2.53747
0
LINE
8
BLACK
6
CONTINUOUS
10
3.40115
20
-2.53747
11
3.44839
21
-2.45564
0
LINE
8
BLACK
6
CONTINUOUS
10
3.44839
20
-2.45564
11
3.44899
21
-2.45518
0
LINE
8
BLACK
6
CONTINUOUS
10
3.44899
20
-2.45518
11
3.44974
21
-2.45528
0
LINE
8
BLACK
6
CONTINUOUS
10
3.40334
20
-2.5376
11
3.48347
21
-2.58386
0
LINE
8
BLACK
6
CONTINUOUS
10
3.48347
20
-2.58386
11
3.52973
21
-2.50374
0
LINE
8
BLACK
6
CONTINUOUS
10
3.52973
20
-2.50374
11
3.4496
21
-2.45748
0
LINE
8
BLACK
6
CONTINUOUS
10
3.4496
20
-2.45748
11
3.40334
21
-2.5376
0
LINE
8
BLACK
6
CONTINUOUS
10
2.81588
20
-2.13835
11
2.89771
21
-2.1856
0
LINE
8
BLACK
6
CONTINUOUS
10
2.89771
20
-2.1856
11
2.89798
21
-2.18596
0
LINE
8
BLACK
6
CONTINUOUS
10
2.89798
20
-2.18596
11
2.89816
21
-2.18619
0
LINE
8
BLACK
6
CONTINUOUS
10
2.89816
20
-2.18619
11
2.89807
21
-2.18694
0
LINE
8
BLACK
6
CONTINUOUS
10
2.89807
20
-2.18694
11
2.85082
21
-2.26877
0
LINE
8
BLACK
6
CONTINUOUS
10
2.85082
20
-2.26877
11
2.85022
21
-2.26923
0
LINE
8
BLACK
6
CONTINUOUS
10
2.85022
20
-2.26923
11
2.85022
21
-2.26923
0
LINE
8
BLACK
6
CONTINUOUS
10
2.85022
20
-2.26923
11
2.85022
21
-2.26923
0
LINE
8
BLACK
6
CONTINUOUS
10
2.85022
20
-2.26923
11
2.84948
21
-2.26913
0
LINE
8
BLACK
6
CONTINUOUS
10
2.84948
20
-2.26913
11
2.76765
21
-2.22189
0
LINE
8
BLACK
6
CONTINUOUS
10
2.76765
20
-2.22189
11
2.76719
21
-2.22129
0
LINE
8
BLACK
6
CONTINUOUS
10
2.76719
20
-2.22129
11
2.76729
21
-2.22054
0
LINE
8
BLACK
6
CONTINUOUS
10
2.76729
20
-2.22054
11
2.81453
21
-2.13871
0
LINE
8
BLACK
6
CONTINUOUS
10
2.81453
20
-2.13871
11
2.81513
21
-2.13825
0
LINE
8
BLACK
6
CONTINUOUS
10
2.81513
20
-2.13825
11
2.81588
21
-2.13835
0
LINE
8
BLACK
6
CONTINUOUS
10
2.76949
20
-2.22067
11
2.84961
21
-2.26693
0
LINE
8
BLACK
6
CONTINUOUS
10
2.84961
20
-2.26693
11
2.89587
21
-2.18681
0
LINE
8
BLACK
6
CONTINUOUS
10
2.89587
20
-2.18681
11
2.81574
21
-2.14055
0
LINE
8
BLACK
6
CONTINUOUS
10
2.81574
20
-2.14055
11
2.76949
21
-2.22067
0
LINE
8
BLACK
6
CONTINUOUS
10
3.48468
20
-2.13871
11
3.53192
21
-2.22054
0
LINE
8
BLACK
6
CONTINUOUS
10
3.53192
20
-2.22054
11
3.53202
21
-2.22129
0
LINE
8
BLACK
6
CONTINUOUS
10
3.53202
20
-2.22129
11
3.53202
21
-2.22129
0
LINE
8
BLACK
6
CONTINUOUS
10
3.53202
20
-2.22129
11
3.53156
21
-2.22189
0
LINE
8
BLACK
6
CONTINUOUS
10
3.53156
20
-2.22189
11
3.44974
21
-2.26913
0
LINE
8
BLACK
6
CONTINUOUS
10
3.44974
20
-2.26913
11
3.44899
21
-2.26923
0
LINE
8
BLACK
6
CONTINUOUS
10
3.44899
20
-2.26923
11
3.44839
21
-2.26877
0
LINE
8
BLACK
6
CONTINUOUS
10
3.44839
20
-2.26877
11
3.44839
21
-2.26877
0
LINE
8
BLACK
6
CONTINUOUS
10
3.44839
20
-2.26877
11
3.40115
21
-2.18694
0
LINE
8
BLACK
6
CONTINUOUS
10
3.40115
20
-2.18694
11
3.40105
21
-2.18619
0
LINE
8
BLACK
6
CONTINUOUS
10
3.40105
20
-2.18619
11
3.40151
21
-2.1856
0
LINE
8
BLACK
6
CONTINUOUS
10
3.40151
20
-2.1856
11
3.48334
21
-2.13835
0
LINE
8
BLACK
6
CONTINUOUS
10
3.48334
20
-2.13835
11
3.48408
21
-2.13825
0
LINE
8
BLACK
6
CONTINUOUS
10
3.48408
20
-2.13825
11
3.48408
21
-2.13825
0
LINE
8
BLACK
6
CONTINUOUS
10
3.48408
20
-2.13825
11
3.48468
21
-2.13871
0
LINE
8
BLACK
6
CONTINUOUS
10
3.40334
20
-2.18681
11
3.4496
21
-2.26693
0
LINE
8
BLACK
6
CONTINUOUS
10
3.4496
20
-2.26693
11
3.52973
21
-2.22067
0
LINE
8
BLACK
6
CONTINUOUS
10
3.52973
20
-2.22067
11
3.48347
21
-2.14055
0
LINE
8
BLACK
6
CONTINUOUS
10
3.48347
20
-2.14055
11
3.40334
21
-2.18681
0
LINE
8
BLACK
6
CONTINUOUS
10
3.19685
20
-1.95965
11
3.19755
21
-1.95993
0
LINE
8
BLACK
6
CONTINUOUS
10
3.19755
20
-1.95993
11
3.19783
21
-1.96063
0
LINE
8
BLACK
6
CONTINUOUS
10
3.19783
20
-1.96063
11
3.19783
21
-2.05512
0
LINE
8
BLACK
6
CONTINUOUS
10
3.19783
20
-2.05512
11
3.19755
21
-2.05581
0
LINE
8
BLACK
6
CONTINUOUS
10
3.19755
20
-2.05581
11
3.19685
21
-2.0561
0
LINE
8
BLACK
6
CONTINUOUS
10
3.19685
20
-2.0561
11
3.10236
21
-2.0561
0
LINE
8
BLACK
6
CONTINUOUS
10
3.10236
20
-2.0561
11
3.10167
21
-2.05581
0
LINE
8
BLACK
6
CONTINUOUS
10
3.10167
20
-2.05581
11
3.10138
21
-2.05512
0
LINE
8
BLACK
6
CONTINUOUS
10
3.10138
20
-2.05512
11
3.10138
21
-1.96063
0
LINE
8
BLACK
6
CONTINUOUS
10
3.10138
20
-1.96063
11
3.10167
21
-1.95993
0
LINE
8
BLACK
6
CONTINUOUS
10
3.10167
20
-1.95993
11
3.10236
21
-1.95965
0
LINE
8
BLACK
6
CONTINUOUS
10
3.10236
20
-1.95965
11
3.19685
21
-1.95965
0
LINE
8
BLACK
6
CONTINUOUS
10
3.10335
20
-1.96161
11
3.10335
21
-2.05413
0
LINE
8
BLACK
6
CONTINUOUS
10
3.10335
20
-2.05413
11
3.19587
21
-2.05413
0
LINE
8
BLACK
6
CONTINUOUS
10
3.19587
20
-2.05413
11
3.19587
21
-1.96161
0
LINE
8
BLACK
6
CONTINUOUS
10
3.19587
20
-1.96161
11
3.10335
21
-1.96161
  0
ENDSEC
  0
EOF
