  0
SECTION
  2
HEADER
  9
$ANGBASE
  50
0.0
  9
$ANGDIR
  70
1
  9
$MEASUREMENT
  70
0
  0
ENDSEC
  0
SECTION
  2
TABLES
  0
TABLE
  2
LTYPE
  70
4
  0
LTYPE
  5
40F
  2
CONTINUOUS
  70
0
  3
Solid line
  72
65
  73
0
  40
0.0
  0
LTYPE
  5
410
  2
DASHDOT
 70
0
  3
Dash Dot ____ _ ____ _
 72
65
 73
4
 40
2.0
 49
1.25
 49
-0.25
 49
0.25
 49
-0.25
  0
LTYPE
  5
411
  2
DASHED
 70
0
  3
Dashed __ __ __ __ __
 72
65
 73
2
 40
0.75
 49
0.5
 49
-0.25
  0
LTYPE
  5
43B
  2
DOTTED
 70
0
  3
Dotted .  .  .  .
 72
65
 73
2
 40
0.2
 49
0.0
 49
-0.2
  0
ENDTAB
  0
TABLE
  2
STYLE
  70
4
  0
STYLE
  2
KICAD
  70
0
  40
0
  41
1
  42
1
  50
0
  71
0
  3
isocp.shx
  0
STYLE
  2
KICADB
  70
0
  40
0
  41
1
  42
1
  50
0
  71
0
  3
isocp.shx
  0
STYLE
  2
KICADI
  70
0
  40
0
  41
1
  42
1
  50
15
  71
0
  3
isocp.shx
  0
STYLE
  2
KICADBI
  70
0
  40
0
  41
1
  42
1
  50
15
  71
0
  3
isocp.shx
  0
ENDTAB
  0
TABLE
  2
LAYER
  70
1
  0
LAYER
  2
BLACK
  70
0
  62
7
  6
CONTINUOUS
  0
ENDTAB
  0
ENDSEC
  0
SECTION
  2
ENTITIES
0
LINE
8
BLACK
6
CONTINUOUS
10
3.56184
20
-2.75494
11
3.56198
21
-2.75493
0
LINE
8
BLACK
6
CONTINUOUS
10
3.56198
20
-2.75493
11
3.56271
21
-2.75544
0
LINE
8
BLACK
6
CONTINUOUS
10
3.56271
20
-2.75544
11
3.56348
21
-2.75588
0
LINE
8
BLACK
6
CONTINUOUS
10
3.56348
20
-2.75588
11
3.56352
21
-2.75601
0
LINE
8
BLACK
6
CONTINUOUS
10
3.56352
20
-2.75601
11
3.56363
21
-2.75609
0
LINE
8
BLACK
6
CONTINUOUS
10
3.56363
20
-2.75609
11
3.56386
21
-2.75695
0
LINE
8
BLACK
6
CONTINUOUS
10
3.56386
20
-2.75695
11
3.56417
21
-2.75778
0
LINE
8
BLACK
6
CONTINUOUS
10
3.56417
20
-2.75778
11
3.56417
21
-2.78215
0
LINE
8
BLACK
6
CONTINUOUS
10
3.56417
20
-2.78215
11
3.56399
21
-2.78316
0
LINE
8
BLACK
6
CONTINUOUS
10
3.56399
20
-2.78316
11
3.56269
21
-2.78471
0
LINE
8
BLACK
6
CONTINUOUS
10
3.56269
20
-2.78471
11
3.5607
21
-2.78506
0
LINE
8
BLACK
6
CONTINUOUS
10
3.5607
20
-2.78506
11
3.55895
21
-2.78405
0
LINE
8
BLACK
6
CONTINUOUS
10
3.55895
20
-2.78405
11
3.55826
21
-2.78215
0
LINE
8
BLACK
6
CONTINUOUS
10
3.55826
20
-2.78215
11
3.55826
21
-2.76491
0
LINE
8
BLACK
6
CONTINUOUS
10
3.55826
20
-2.76491
11
3.5408
21
-2.78237
0
LINE
8
BLACK
6
CONTINUOUS
10
3.5408
20
-2.78237
11
3.53996
21
-2.78295
0
LINE
8
BLACK
6
CONTINUOUS
10
3.53996
20
-2.78295
11
3.53979
21
-2.78297
0
LINE
8
BLACK
6
CONTINUOUS
10
3.53979
20
-2.78297
11
3.53965
21
-2.78308
0
LINE
8
BLACK
6
CONTINUOUS
10
3.53965
20
-2.78308
11
3.53403
21
-2.78495
0
LINE
8
BLACK
6
CONTINUOUS
10
3.53403
20
-2.78495
11
3.53315
21
-2.78508
0
LINE
8
BLACK
6
CONTINUOUS
10
3.53315
20
-2.78508
11
3.53309
21
-2.7851
0
LINE
8
BLACK
6
CONTINUOUS
10
3.53309
20
-2.7851
11
3.52934
21
-2.7851
0
LINE
8
BLACK
6
CONTINUOUS
10
3.52934
20
-2.7851
11
3.52833
21
-2.78493
0
LINE
8
BLACK
6
CONTINUOUS
10
3.52833
20
-2.78493
11
3.5282
21
-2.78481
0
LINE
8
BLACK
6
CONTINUOUS
10
3.5282
20
-2.78481
11
3.52802
21
-2.78479
0
LINE
8
BLACK
6
CONTINUOUS
10
3.52802
20
-2.78479
11
3.52427
21
-2.78292
0
LINE
8
BLACK
6
CONTINUOUS
10
3.52427
20
-2.78292
11
3.52356
21
-2.78239
0
LINE
8
BLACK
6
CONTINUOUS
10
3.52356
20
-2.78239
11
3.5235
21
-2.78237
0
LINE
8
BLACK
6
CONTINUOUS
10
3.5235
20
-2.78237
11
3.52163
21
-2.78049
0
LINE
8
BLACK
6
CONTINUOUS
10
3.52163
20
-2.78049
11
3.52112
21
-2.77977
0
LINE
8
BLACK
6
CONTINUOUS
10
3.52112
20
-2.77977
11
3.52108
21
-2.77972
0
LINE
8
BLACK
6
CONTINUOUS
10
3.52108
20
-2.77972
11
3.5192
21
-2.77597
0
LINE
8
BLACK
6
CONTINUOUS
10
3.5192
20
-2.77597
11
3.51891
21
-2.77499
0
LINE
8
BLACK
6
CONTINUOUS
10
3.51891
20
-2.77499
11
3.51895
21
-2.77482
0
LINE
8
BLACK
6
CONTINUOUS
10
3.51895
20
-2.77482
11
3.51889
21
-2.77465
0
LINE
8
BLACK
6
CONTINUOUS
10
3.51889
20
-2.77465
11
3.51889
21
-2.76528
0
LINE
8
BLACK
6
CONTINUOUS
10
3.51889
20
-2.76528
11
3.51907
21
-2.76427
0
LINE
8
BLACK
6
CONTINUOUS
10
3.51907
20
-2.76427
11
3.51918
21
-2.76413
0
LINE
8
BLACK
6
CONTINUOUS
10
3.51918
20
-2.76413
11
3.5192
21
-2.76396
0
LINE
8
BLACK
6
CONTINUOUS
10
3.5192
20
-2.76396
11
3.52108
21
-2.76021
0
LINE
8
BLACK
6
CONTINUOUS
10
3.52108
20
-2.76021
11
3.5216
21
-2.7595
0
LINE
8
BLACK
6
CONTINUOUS
10
3.5216
20
-2.7595
11
3.52163
21
-2.75944
0
LINE
8
BLACK
6
CONTINUOUS
10
3.52163
20
-2.75944
11
3.5235
21
-2.75757
0
LINE
8
BLACK
6
CONTINUOUS
10
3.5235
20
-2.75757
11
3.52434
21
-2.75698
0
LINE
8
BLACK
6
CONTINUOUS
10
3.52434
20
-2.75698
11
3.52636
21
-2.7568
0
LINE
8
BLACK
6
CONTINUOUS
10
3.52636
20
-2.7568
11
3.52801
21
-2.75796
0
LINE
8
BLACK
6
CONTINUOUS
10
3.52801
20
-2.75796
11
3.52853
21
-2.75991
0
LINE
8
BLACK
6
CONTINUOUS
10
3.52853
20
-2.75991
11
3.52768
21
-2.76174
0
LINE
8
BLACK
6
CONTINUOUS
10
3.52768
20
-2.76174
11
3.52614
21
-2.76328
0
LINE
8
BLACK
6
CONTINUOUS
10
3.52614
20
-2.76328
11
3.5248
21
-2.76598
0
LINE
8
BLACK
6
CONTINUOUS
10
3.5248
20
-2.76598
11
3.5248
21
-2.77396
0
LINE
8
BLACK
6
CONTINUOUS
10
3.5248
20
-2.77396
11
3.52614
21
-2.77665
0
LINE
8
BLACK
6
CONTINUOUS
10
3.52614
20
-2.77665
11
3.52734
21
-2.77785
0
LINE
8
BLACK
6
CONTINUOUS
10
3.52734
20
-2.77785
11
3.53004
21
-2.7792
0
LINE
8
BLACK
6
CONTINUOUS
10
3.53004
20
-2.7792
11
3.53261
21
-2.7792
0
LINE
8
BLACK
6
CONTINUOUS
10
3.53261
20
-2.7792
11
3.53712
21
-2.7777
0
LINE
8
BLACK
6
CONTINUOUS
10
3.53712
20
-2.7777
11
3.55913
21
-2.75569
0
LINE
8
BLACK
6
CONTINUOUS
10
3.55913
20
-2.75569
11
3.55965
21
-2.75532
0
LINE
8
BLACK
6
CONTINUOUS
10
3.55965
20
-2.75532
11
3.55974
21
-2.75522
0
LINE
8
BLACK
6
CONTINUOUS
10
3.55974
20
-2.75522
11
3.55982
21
-2.75521
0
LINE
8
BLACK
6
CONTINUOUS
10
3.55982
20
-2.75521
11
3.55997
21
-2.7551
0
LINE
8
BLACK
6
CONTINUOUS
10
3.55997
20
-2.7551
11
3.56085
21
-2.75503
0
LINE
8
BLACK
6
CONTINUOUS
10
3.56085
20
-2.75503
11
3.56173
21
-2.75487
0
LINE
8
BLACK
6
CONTINUOUS
10
3.56173
20
-2.75487
11
3.56184
21
-2.75494
0
LINE
8
BLACK
6
CONTINUOUS
10
3.56348
20
-2.72589
11
3.56417
21
-2.72778
0
LINE
8
BLACK
6
CONTINUOUS
10
3.56417
20
-2.72778
11
3.56417
21
-2.73153
0
LINE
8
BLACK
6
CONTINUOUS
10
3.56417
20
-2.73153
11
3.56401
21
-2.7324
0
LINE
8
BLACK
6
CONTINUOUS
10
3.56401
20
-2.7324
11
3.56401
21
-2.73247
0
LINE
8
BLACK
6
CONTINUOUS
10
3.56401
20
-2.73247
11
3.56214
21
-2.73809
0
LINE
8
BLACK
6
CONTINUOUS
10
3.56214
20
-2.73809
11
3.56165
21
-2.73899
0
LINE
8
BLACK
6
CONTINUOUS
10
3.56165
20
-2.73899
11
3.5615
21
-2.73909
0
LINE
8
BLACK
6
CONTINUOUS
10
3.5615
20
-2.73909
11
3.56143
21
-2.73925
0
LINE
8
BLACK
6
CONTINUOUS
10
3.56143
20
-2.73925
11
3.55768
21
-2.743
0
LINE
8
BLACK
6
CONTINUOUS
10
3.55768
20
-2.743
11
3.55684
21
-2.74358
0
LINE
8
BLACK
6
CONTINUOUS
10
3.55684
20
-2.74358
11
3.55666
21
-2.7436
0
LINE
8
BLACK
6
CONTINUOUS
10
3.55666
20
-2.7436
11
3.55652
21
-2.74371
0
LINE
8
BLACK
6
CONTINUOUS
10
3.55652
20
-2.74371
11
3.5509
21
-2.74558
0
LINE
8
BLACK
6
CONTINUOUS
10
3.5509
20
-2.74558
11
3.55003
21
-2.74571
0
LINE
8
BLACK
6
CONTINUOUS
10
3.55003
20
-2.74571
11
3.54996
21
-2.74573
0
LINE
8
BLACK
6
CONTINUOUS
10
3.54996
20
-2.74573
11
3.52184
21
-2.74573
0
LINE
8
BLACK
6
CONTINUOUS
10
3.52184
20
-2.74573
11
3.52083
21
-2.74556
0
LINE
8
BLACK
6
CONTINUOUS
10
3.52083
20
-2.74556
11
3.51929
21
-2.74426
0
LINE
8
BLACK
6
CONTINUOUS
10
3.51929
20
-2.74426
11
3.51894
21
-2.74227
0
LINE
8
BLACK
6
CONTINUOUS
10
3.51894
20
-2.74227
11
3.51995
21
-2.74052
0
LINE
8
BLACK
6
CONTINUOUS
10
3.51995
20
-2.74052
11
3.52184
21
-2.73983
0
LINE
8
BLACK
6
CONTINUOUS
10
3.52184
20
-2.73983
11
3.54949
21
-2.73983
0
LINE
8
BLACK
6
CONTINUOUS
10
3.54949
20
-2.73983
11
3.55399
21
-2.73833
0
LINE
8
BLACK
6
CONTINUOUS
10
3.55399
20
-2.73833
11
3.55676
21
-2.73556
0
LINE
8
BLACK
6
CONTINUOUS
10
3.55676
20
-2.73556
11
3.55826
21
-2.73105
0
LINE
8
BLACK
6
CONTINUOUS
10
3.55826
20
-2.73105
11
3.55826
21
-2.72778
0
LINE
8
BLACK
6
CONTINUOUS
10
3.55826
20
-2.72778
11
3.55844
21
-2.72677
0
LINE
8
BLACK
6
CONTINUOUS
10
3.55844
20
-2.72677
11
3.55974
21
-2.72523
0
LINE
8
BLACK
6
CONTINUOUS
10
3.55974
20
-2.72523
11
3.56173
21
-2.72488
0
LINE
8
BLACK
6
CONTINUOUS
10
3.56173
20
-2.72488
11
3.56348
21
-2.72589
0
LINE
8
BLACK
6
CONTINUOUS
10
3.62205
20
-2.6752
11
3.62344
21
-2.67577
0
LINE
8
BLACK
6
CONTINUOUS
10
3.62344
20
-2.67577
11
3.62402
21
-2.67717
0
LINE
8
BLACK
6
CONTINUOUS
10
3.62402
20
-2.67717
11
3.62402
21
-2.70472
0
LINE
8
BLACK
6
CONTINUOUS
10
3.62402
20
-2.70472
11
3.66142
21
-2.70472
0
LINE
8
BLACK
6
CONTINUOUS
10
3.66142
20
-2.70472
11
3.66281
21
-2.7053
0
LINE
8
BLACK
6
CONTINUOUS
10
3.66281
20
-2.7053
11
3.66339
21
-2.70669
0
LINE
8
BLACK
6
CONTINUOUS
10
3.66339
20
-2.70669
11
3.66339
21
-2.72638
0
LINE
8
BLACK
6
CONTINUOUS
10
3.66339
20
-2.72638
11
3.66281
21
-2.72777
0
LINE
8
BLACK
6
CONTINUOUS
10
3.66281
20
-2.72777
11
3.66142
21
-2.72835
0
LINE
8
BLACK
6
CONTINUOUS
10
3.66142
20
-2.72835
11
3.62402
21
-2.72835
0
LINE
8
BLACK
6
CONTINUOUS
10
3.62402
20
-2.72835
11
3.62402
21
-2.78346
0
LINE
8
BLACK
6
CONTINUOUS
10
3.62402
20
-2.78346
11
3.66142
21
-2.78346
0
LINE
8
BLACK
6
CONTINUOUS
10
3.66142
20
-2.78346
11
3.66281
21
-2.78404
0
LINE
8
BLACK
6
CONTINUOUS
10
3.66281
20
-2.78404
11
3.66339
21
-2.78543
0
LINE
8
BLACK
6
CONTINUOUS
10
3.66339
20
-2.78543
11
3.66339
21
-2.80512
0
LINE
8
BLACK
6
CONTINUOUS
10
3.66339
20
-2.80512
11
3.66281
21
-2.80651
0
LINE
8
BLACK
6
CONTINUOUS
10
3.66281
20
-2.80651
11
3.66142
21
-2.80709
0
LINE
8
BLACK
6
CONTINUOUS
10
3.66142
20
-2.80709
11
3.62205
21
-2.80709
0
LINE
8
BLACK
6
CONTINUOUS
10
3.62205
20
-2.80709
11
3.62066
21
-2.80651
0
LINE
8
BLACK
6
CONTINUOUS
10
3.62066
20
-2.80651
11
3.62008
21
-2.80512
0
LINE
8
BLACK
6
CONTINUOUS
10
3.62008
20
-2.80512
11
3.62066
21
-2.80373
0
LINE
8
BLACK
6
CONTINUOUS
10
3.62066
20
-2.80373
11
3.62205
21
-2.80315
0
LINE
8
BLACK
6
CONTINUOUS
10
3.62205
20
-2.80315
11
3.65945
21
-2.80315
0
LINE
8
BLACK
6
CONTINUOUS
10
3.65945
20
-2.80315
11
3.65945
21
-2.7874
0
LINE
8
BLACK
6
CONTINUOUS
10
3.65945
20
-2.7874
11
3.62402
21
-2.7874
0
LINE
8
BLACK
6
CONTINUOUS
10
3.62402
20
-2.7874
11
3.62402
21
-2.79528
0
LINE
8
BLACK
6
CONTINUOUS
10
3.62402
20
-2.79528
11
3.62344
21
-2.79667
0
LINE
8
BLACK
6
CONTINUOUS
10
3.62344
20
-2.79667
11
3.58407
21
-2.83604
0
LINE
8
BLACK
6
CONTINUOUS
10
3.58407
20
-2.83604
11
3.58268
21
-2.83661
0
LINE
8
BLACK
6
CONTINUOUS
10
3.58268
20
-2.83661
11
3.46457
21
-2.83661
0
LINE
8
BLACK
6
CONTINUOUS
10
3.46457
20
-2.83661
11
3.46318
21
-2.83604
0
LINE
8
BLACK
6
CONTINUOUS
10
3.46318
20
-2.83604
11
3.4626
21
-2.83465
0
LINE
8
BLACK
6
CONTINUOUS
10
3.4626
20
-2.83465
11
3.4626
21
-2.80709
0
LINE
8
BLACK
6
CONTINUOUS
10
3.4626
20
-2.80709
11
3.4252
21
-2.80709
0
LINE
8
BLACK
6
CONTINUOUS
10
3.4252
20
-2.80709
11
3.4238
21
-2.80651
0
LINE
8
BLACK
6
CONTINUOUS
10
3.4238
20
-2.80651
11
3.42323
21
-2.80512
0
LINE
8
BLACK
6
CONTINUOUS
10
3.42323
20
-2.80512
11
3.42323
21
-2.78543
0
LINE
8
BLACK
6
CONTINUOUS
10
3.42323
20
-2.78543
11
3.4238
21
-2.78404
0
LINE
8
BLACK
6
CONTINUOUS
10
3.4238
20
-2.78404
11
3.4252
21
-2.78346
0
LINE
8
BLACK
6
CONTINUOUS
10
3.4252
20
-2.78346
11
3.4626
21
-2.78346
0
LINE
8
BLACK
6
CONTINUOUS
10
3.4626
20
-2.78346
11
3.4626
21
-2.72835
0
LINE
8
BLACK
6
CONTINUOUS
10
3.4626
20
-2.72835
11
3.4252
21
-2.72835
0
LINE
8
BLACK
6
CONTINUOUS
10
3.4252
20
-2.72835
11
3.4238
21
-2.72777
0
LINE
8
BLACK
6
CONTINUOUS
10
3.4238
20
-2.72777
11
3.42323
21
-2.72638
0
LINE
8
BLACK
6
CONTINUOUS
10
3.42323
20
-2.72638
11
3.42323
21
-2.70669
0
LINE
8
BLACK
6
CONTINUOUS
10
3.42323
20
-2.70669
11
3.4238
21
-2.7053
0
LINE
8
BLACK
6
CONTINUOUS
10
3.4238
20
-2.7053
11
3.4252
21
-2.70472
0
LINE
8
BLACK
6
CONTINUOUS
10
3.4252
20
-2.70472
11
3.4626
21
-2.70472
0
LINE
8
BLACK
6
CONTINUOUS
10
3.4626
20
-2.70472
11
3.4626
21
-2.67717
0
LINE
8
BLACK
6
CONTINUOUS
10
3.4626
20
-2.67717
11
3.46318
21
-2.67577
0
LINE
8
BLACK
6
CONTINUOUS
10
3.46318
20
-2.67577
11
3.46457
21
-2.6752
0
LINE
8
BLACK
6
CONTINUOUS
10
3.46457
20
-2.6752
11
3.62205
21
-2.6752
0
LINE
8
BLACK
6
CONTINUOUS
10
3.46654
20
-2.67913
11
3.46654
21
-2.83268
0
LINE
8
BLACK
6
CONTINUOUS
10
3.46654
20
-2.83268
11
3.58186
21
-2.83268
0
LINE
8
BLACK
6
CONTINUOUS
10
3.58186
20
-2.83268
11
3.62008
21
-2.79446
0
LINE
8
BLACK
6
CONTINUOUS
10
3.62008
20
-2.79446
11
3.62008
21
-2.67913
0
LINE
8
BLACK
6
CONTINUOUS
10
3.62008
20
-2.67913
11
3.46654
21
-2.67913
0
LINE
8
BLACK
6
CONTINUOUS
10
3.42717
20
-2.7874
11
3.42717
21
-2.80315
0
LINE
8
BLACK
6
CONTINUOUS
10
3.42717
20
-2.80315
11
3.4626
21
-2.80315
0
LINE
8
BLACK
6
CONTINUOUS
10
3.4626
20
-2.80315
11
3.4626
21
-2.7874
0
LINE
8
BLACK
6
CONTINUOUS
10
3.4626
20
-2.7874
11
3.42717
21
-2.7874
0
LINE
8
BLACK
6
CONTINUOUS
10
3.62402
20
-2.70866
11
3.62402
21
-2.72441
0
LINE
8
BLACK
6
CONTINUOUS
10
3.62402
20
-2.72441
11
3.65945
21
-2.72441
0
LINE
8
BLACK
6
CONTINUOUS
10
3.65945
20
-2.72441
11
3.65945
21
-2.70866
0
LINE
8
BLACK
6
CONTINUOUS
10
3.65945
20
-2.70866
11
3.62402
21
-2.70866
0
LINE
8
BLACK
6
CONTINUOUS
10
3.42717
20
-2.70866
11
3.42717
21
-2.72441
0
LINE
8
BLACK
6
CONTINUOUS
10
3.42717
20
-2.72441
11
3.4626
21
-2.72441
0
LINE
8
BLACK
6
CONTINUOUS
10
3.4626
20
-2.72441
11
3.4626
21
-2.70866
0
LINE
8
BLACK
6
CONTINUOUS
10
3.4626
20
-2.70866
11
3.42717
21
-2.70866
0
LINE
8
BLACK
6
CONTINUOUS
10
3.52932
20
-2.607
11
3.52945
21
-2.60711
0
LINE
8
BLACK
6
CONTINUOUS
10
3.52945
20
-2.60711
11
3.52963
21
-2.60713
0
LINE
8
BLACK
6
CONTINUOUS
10
3.52963
20
-2.60713
11
3.53338
21
-2.609
0
LINE
8
BLACK
6
CONTINUOUS
10
3.53338
20
-2.609
11
3.53409
21
-2.60953
0
LINE
8
BLACK
6
CONTINUOUS
10
3.53409
20
-2.60953
11
3.53415
21
-2.60956
0
LINE
8
BLACK
6
CONTINUOUS
10
3.53415
20
-2.60956
11
3.53602
21
-2.61143
0
LINE
8
BLACK
6
CONTINUOUS
10
3.53602
20
-2.61143
11
3.53653
21
-2.61215
0
LINE
8
BLACK
6
CONTINUOUS
10
3.53653
20
-2.61215
11
3.53657
21
-2.6122
0
LINE
8
BLACK
6
CONTINUOUS
10
3.53657
20
-2.6122
11
3.53845
21
-2.61595
0
LINE
8
BLACK
6
CONTINUOUS
10
3.53845
20
-2.61595
11
3.53874
21
-2.61693
0
LINE
8
BLACK
6
CONTINUOUS
10
3.53874
20
-2.61693
11
3.5387
21
-2.6171
0
LINE
8
BLACK
6
CONTINUOUS
10
3.5387
20
-2.6171
11
3.53876
21
-2.61727
0
LINE
8
BLACK
6
CONTINUOUS
10
3.53876
20
-2.61727
11
3.53876
21
-2.62852
0
LINE
8
BLACK
6
CONTINUOUS
10
3.53876
20
-2.62852
11
3.53858
21
-2.62953
0
LINE
8
BLACK
6
CONTINUOUS
10
3.53858
20
-2.62953
11
3.53847
21
-2.62966
0
LINE
8
BLACK
6
CONTINUOUS
10
3.53847
20
-2.62966
11
3.53845
21
-2.62984
0
LINE
8
BLACK
6
CONTINUOUS
10
3.53845
20
-2.62984
11
3.53657
21
-2.63359
0
LINE
8
BLACK
6
CONTINUOUS
10
3.53657
20
-2.63359
11
3.53605
21
-2.6343
0
LINE
8
BLACK
6
CONTINUOUS
10
3.53605
20
-2.6343
11
3.53602
21
-2.63435
0
LINE
8
BLACK
6
CONTINUOUS
10
3.53602
20
-2.63435
11
3.53415
21
-2.63623
0
LINE
8
BLACK
6
CONTINUOUS
10
3.53415
20
-2.63623
11
3.53342
21
-2.63674
0
LINE
8
BLACK
6
CONTINUOUS
10
3.53342
20
-2.63674
11
3.53338
21
-2.63678
0
LINE
8
BLACK
6
CONTINUOUS
10
3.53338
20
-2.63678
11
3.52963
21
-2.63866
0
LINE
8
BLACK
6
CONTINUOUS
10
3.52963
20
-2.63866
11
3.52865
21
-2.63895
0
LINE
8
BLACK
6
CONTINUOUS
10
3.52865
20
-2.63895
11
3.52847
21
-2.63891
0
LINE
8
BLACK
6
CONTINUOUS
10
3.52847
20
-2.63891
11
3.52831
21
-2.63897
0
LINE
8
BLACK
6
CONTINUOUS
10
3.52831
20
-2.63897
11
3.52081
21
-2.63897
0
LINE
8
BLACK
6
CONTINUOUS
10
3.52081
20
-2.63897
11
3.52001
21
-2.63883
0
LINE
8
BLACK
6
CONTINUOUS
10
3.52001
20
-2.63883
11
3.52001
21
-2.64094
0
LINE
8
BLACK
6
CONTINUOUS
10
3.52001
20
-2.64094
11
3.52136
21
-2.64364
0
LINE
8
BLACK
6
CONTINUOUS
10
3.52136
20
-2.64364
11
3.52256
21
-2.64484
0
LINE
8
BLACK
6
CONTINUOUS
10
3.52256
20
-2.64484
11
3.52526
21
-2.64619
0
LINE
8
BLACK
6
CONTINUOUS
10
3.52526
20
-2.64619
11
3.52949
21
-2.64619
0
LINE
8
BLACK
6
CONTINUOUS
10
3.52949
20
-2.64619
11
3.53261
21
-2.64462
0
LINE
8
BLACK
6
CONTINUOUS
10
3.53261
20
-2.64462
11
3.5336
21
-2.64433
0
LINE
8
BLACK
6
CONTINUOUS
10
3.5336
20
-2.64433
11
3.53556
21
-2.6448
0
LINE
8
BLACK
6
CONTINUOUS
10
3.53556
20
-2.6448
11
3.53676
21
-2.64642
0
LINE
8
BLACK
6
CONTINUOUS
10
3.53676
20
-2.64642
11
3.53664
21
-2.64844
0
LINE
8
BLACK
6
CONTINUOUS
10
3.53664
20
-2.64844
11
3.53525
21
-2.64991
0
LINE
8
BLACK
6
CONTINUOUS
10
3.53525
20
-2.64991
11
3.5315
21
-2.65178
0
LINE
8
BLACK
6
CONTINUOUS
10
3.5315
20
-2.65178
11
3.53052
21
-2.65207
0
LINE
8
BLACK
6
CONTINUOUS
10
3.53052
20
-2.65207
11
3.53035
21
-2.65203
0
LINE
8
BLACK
6
CONTINUOUS
10
3.53035
20
-2.65203
11
3.53018
21
-2.65209
0
LINE
8
BLACK
6
CONTINUOUS
10
3.53018
20
-2.65209
11
3.52456
21
-2.65209
0
LINE
8
BLACK
6
CONTINUOUS
10
3.52456
20
-2.65209
11
3.52355
21
-2.65191
0
LINE
8
BLACK
6
CONTINUOUS
10
3.52355
20
-2.65191
11
3.52341
21
-2.6518
0
LINE
8
BLACK
6
CONTINUOUS
10
3.52341
20
-2.6518
11
3.52324
21
-2.65178
0
LINE
8
BLACK
6
CONTINUOUS
10
3.52324
20
-2.65178
11
3.51949
21
-2.64991
0
LINE
8
BLACK
6
CONTINUOUS
10
3.51949
20
-2.64991
11
3.51878
21
-2.64938
0
LINE
8
BLACK
6
CONTINUOUS
10
3.51878
20
-2.64938
11
3.51872
21
-2.64935
0
LINE
8
BLACK
6
CONTINUOUS
10
3.51872
20
-2.64935
11
3.51685
21
-2.64748
0
LINE
8
BLACK
6
CONTINUOUS
10
3.51685
20
-2.64748
11
3.51634
21
-2.64676
0
LINE
8
BLACK
6
CONTINUOUS
10
3.51634
20
-2.64676
11
3.51629
21
-2.64671
0
LINE
8
BLACK
6
CONTINUOUS
10
3.51629
20
-2.64671
11
3.51442
21
-2.64296
0
LINE
8
BLACK
6
CONTINUOUS
10
3.51442
20
-2.64296
11
3.51413
21
-2.64198
0
LINE
8
BLACK
6
CONTINUOUS
10
3.51413
20
-2.64198
11
3.51417
21
-2.64181
0
LINE
8
BLACK
6
CONTINUOUS
10
3.51417
20
-2.64181
11
3.51411
21
-2.64164
0
LINE
8
BLACK
6
CONTINUOUS
10
3.51411
20
-2.64164
11
3.51411
21
-2.60977
0
LINE
8
BLACK
6
CONTINUOUS
10
3.51411
20
-2.60977
11
3.51429
21
-2.60876
0
LINE
8
BLACK
6
CONTINUOUS
10
3.51429
20
-2.60876
11
3.51558
21
-2.60721
0
LINE
8
BLACK
6
CONTINUOUS
10
3.51558
20
-2.60721
11
3.51757
21
-2.60686
0
LINE
8
BLACK
6
CONTINUOUS
10
3.51757
20
-2.60686
11
3.51871
21
-2.60752
0
LINE
8
BLACK
6
CONTINUOUS
10
3.51871
20
-2.60752
11
3.51949
21
-2.60713
0
LINE
8
BLACK
6
CONTINUOUS
10
3.51949
20
-2.60713
11
3.52047
21
-2.60684
0
LINE
8
BLACK
6
CONTINUOUS
10
3.52047
20
-2.60684
11
3.52064
21
-2.60688
0
LINE
8
BLACK
6
CONTINUOUS
10
3.52064
20
-2.60688
11
3.52081
21
-2.60682
0
LINE
8
BLACK
6
CONTINUOUS
10
3.52081
20
-2.60682
11
3.52831
21
-2.60682
0
LINE
8
BLACK
6
CONTINUOUS
10
3.52831
20
-2.60682
11
3.52932
21
-2.607
0
LINE
8
BLACK
6
CONTINUOUS
10
3.52001
20
-2.61347
11
3.52001
21
-2.63232
0
LINE
8
BLACK
6
CONTINUOUS
10
3.52001
20
-2.63232
11
3.52151
21
-2.63306
0
LINE
8
BLACK
6
CONTINUOUS
10
3.52151
20
-2.63306
11
3.52761
21
-2.63306
0
LINE
8
BLACK
6
CONTINUOUS
10
3.52761
20
-2.63306
11
3.53031
21
-2.63171
0
LINE
8
BLACK
6
CONTINUOUS
10
3.53031
20
-2.63171
11
3.53151
21
-2.63052
0
LINE
8
BLACK
6
CONTINUOUS
10
3.53151
20
-2.63052
11
3.53286
21
-2.62782
0
LINE
8
BLACK
6
CONTINUOUS
10
3.53286
20
-2.62782
11
3.53286
21
-2.61797
0
LINE
8
BLACK
6
CONTINUOUS
10
3.53286
20
-2.61797
11
3.53151
21
-2.61527
0
LINE
8
BLACK
6
CONTINUOUS
10
3.53151
20
-2.61527
11
3.53031
21
-2.61407
0
LINE
8
BLACK
6
CONTINUOUS
10
3.53031
20
-2.61407
11
3.52761
21
-2.61272
0
LINE
8
BLACK
6
CONTINUOUS
10
3.52761
20
-2.61272
11
3.52151
21
-2.61272
0
LINE
8
BLACK
6
CONTINUOUS
10
3.52151
20
-2.61272
11
3.52001
21
-2.61347
0
LINE
8
BLACK
6
CONTINUOUS
10
3.49557
20
-2.607
11
3.49571
21
-2.60711
0
LINE
8
BLACK
6
CONTINUOUS
10
3.49571
20
-2.60711
11
3.49588
21
-2.60713
0
LINE
8
BLACK
6
CONTINUOUS
10
3.49588
20
-2.60713
11
3.49963
21
-2.609
0
LINE
8
BLACK
6
CONTINUOUS
10
3.49963
20
-2.609
11
3.50046
21
-2.60961
0
LINE
8
BLACK
6
CONTINUOUS
10
3.50046
20
-2.60961
11
3.50063
21
-2.61002
0
LINE
8
BLACK
6
CONTINUOUS
10
3.50063
20
-2.61002
11
3.50095
21
-2.61032
0
LINE
8
BLACK
6
CONTINUOUS
10
3.50095
20
-2.61032
11
3.50283
21
-2.61407
0
LINE
8
BLACK
6
CONTINUOUS
10
3.50283
20
-2.61407
11
3.50312
21
-2.61506
0
LINE
8
BLACK
6
CONTINUOUS
10
3.50312
20
-2.61506
11
3.50308
21
-2.61523
0
LINE
8
BLACK
6
CONTINUOUS
10
3.50308
20
-2.61523
11
3.50314
21
-2.61539
0
LINE
8
BLACK
6
CONTINUOUS
10
3.50314
20
-2.61539
11
3.50314
21
-2.63039
0
LINE
8
BLACK
6
CONTINUOUS
10
3.50314
20
-2.63039
11
3.50296
21
-2.6314
0
LINE
8
BLACK
6
CONTINUOUS
10
3.50296
20
-2.6314
11
3.50285
21
-2.63154
0
LINE
8
BLACK
6
CONTINUOUS
10
3.50285
20
-2.63154
11
3.50283
21
-2.63171
0
LINE
8
BLACK
6
CONTINUOUS
10
3.50283
20
-2.63171
11
3.50095
21
-2.63546
0
LINE
8
BLACK
6
CONTINUOUS
10
3.50095
20
-2.63546
11
3.50034
21
-2.63629
0
LINE
8
BLACK
6
CONTINUOUS
10
3.50034
20
-2.63629
11
3.49994
21
-2.63646
0
LINE
8
BLACK
6
CONTINUOUS
10
3.49994
20
-2.63646
11
3.49963
21
-2.63678
0
LINE
8
BLACK
6
CONTINUOUS
10
3.49963
20
-2.63678
11
3.49588
21
-2.63866
0
LINE
8
BLACK
6
CONTINUOUS
10
3.49588
20
-2.63866
11
3.4949
21
-2.63895
0
LINE
8
BLACK
6
CONTINUOUS
10
3.4949
20
-2.63895
11
3.49473
21
-2.63891
0
LINE
8
BLACK
6
CONTINUOUS
10
3.49473
20
-2.63891
11
3.49456
21
-2.63897
0
LINE
8
BLACK
6
CONTINUOUS
10
3.49456
20
-2.63897
11
3.48706
21
-2.63897
0
LINE
8
BLACK
6
CONTINUOUS
10
3.48706
20
-2.63897
11
3.48605
21
-2.63879
0
LINE
8
BLACK
6
CONTINUOUS
10
3.48605
20
-2.63879
11
3.48592
21
-2.63868
0
LINE
8
BLACK
6
CONTINUOUS
10
3.48592
20
-2.63868
11
3.48574
21
-2.63866
0
LINE
8
BLACK
6
CONTINUOUS
10
3.48574
20
-2.63866
11
3.48199
21
-2.63678
0
LINE
8
BLACK
6
CONTINUOUS
10
3.48199
20
-2.63678
11
3.48117
21
-2.63617
0
LINE
8
BLACK
6
CONTINUOUS
10
3.48117
20
-2.63617
11
3.48037
21
-2.63432
0
LINE
8
BLACK
6
CONTINUOUS
10
3.48037
20
-2.63432
11
3.48094
21
-2.63238
0
LINE
8
BLACK
6
CONTINUOUS
10
3.48094
20
-2.63238
11
3.48263
21
-2.63127
0
LINE
8
BLACK
6
CONTINUOUS
10
3.48263
20
-2.63127
11
3.48464
21
-2.6315
0
LINE
8
BLACK
6
CONTINUOUS
10
3.48464
20
-2.6315
11
3.48776
21
-2.63306
0
LINE
8
BLACK
6
CONTINUOUS
10
3.48776
20
-2.63306
11
3.49387
21
-2.63306
0
LINE
8
BLACK
6
CONTINUOUS
10
3.49387
20
-2.63306
11
3.49611
21
-2.63194
0
LINE
8
BLACK
6
CONTINUOUS
10
3.49611
20
-2.63194
11
3.49723
21
-2.6297
0
LINE
8
BLACK
6
CONTINUOUS
10
3.49723
20
-2.6297
11
3.49723
21
-2.62531
0
LINE
8
BLACK
6
CONTINUOUS
10
3.49723
20
-2.62531
11
3.48086
21
-2.62204
0
LINE
8
BLACK
6
CONTINUOUS
10
3.48086
20
-2.62204
11
3.47991
21
-2.62167
0
LINE
8
BLACK
6
CONTINUOUS
10
3.47991
20
-2.62167
11
3.4796
21
-2.62129
0
LINE
8
BLACK
6
CONTINUOUS
10
3.4796
20
-2.62129
11
3.47918
21
-2.62104
0
LINE
8
BLACK
6
CONTINUOUS
10
3.47918
20
-2.62104
11
3.47899
21
-2.62052
0
LINE
8
BLACK
6
CONTINUOUS
10
3.47899
20
-2.62052
11
3.47864
21
-2.62009
0
LINE
8
BLACK
6
CONTINUOUS
10
3.47864
20
-2.62009
11
3.47865
21
-2.6196
0
LINE
8
BLACK
6
CONTINUOUS
10
3.47865
20
-2.6196
11
3.47849
21
-2.61914
0
LINE
8
BLACK
6
CONTINUOUS
10
3.47849
20
-2.61914
11
3.47849
21
-2.61539
0
LINE
8
BLACK
6
CONTINUOUS
10
3.47849
20
-2.61539
11
3.47867
21
-2.61438
0
LINE
8
BLACK
6
CONTINUOUS
10
3.47867
20
-2.61438
11
3.47878
21
-2.61425
0
LINE
8
BLACK
6
CONTINUOUS
10
3.47878
20
-2.61425
11
3.4788
21
-2.61407
0
LINE
8
BLACK
6
CONTINUOUS
10
3.4788
20
-2.61407
11
3.48067
21
-2.61032
0
LINE
8
BLACK
6
CONTINUOUS
10
3.48067
20
-2.61032
11
3.48128
21
-2.6095
0
LINE
8
BLACK
6
CONTINUOUS
10
3.48128
20
-2.6095
11
3.48169
21
-2.60932
0
LINE
8
BLACK
6
CONTINUOUS
10
3.48169
20
-2.60932
11
3.48199
21
-2.609
0
LINE
8
BLACK
6
CONTINUOUS
10
3.48199
20
-2.609
11
3.48574
21
-2.60713
0
LINE
8
BLACK
6
CONTINUOUS
10
3.48574
20
-2.60713
11
3.48673
21
-2.60684
0
LINE
8
BLACK
6
CONTINUOUS
10
3.48673
20
-2.60684
11
3.4869
21
-2.60688
0
LINE
8
BLACK
6
CONTINUOUS
10
3.4869
20
-2.60688
11
3.48706
21
-2.60682
0
LINE
8
BLACK
6
CONTINUOUS
10
3.48706
20
-2.60682
11
3.49456
21
-2.60682
0
LINE
8
BLACK
6
CONTINUOUS
10
3.49456
20
-2.60682
11
3.49557
21
-2.607
0
LINE
8
BLACK
6
CONTINUOUS
10
3.48552
20
-2.61385
11
3.48439
21
-2.61609
0
LINE
8
BLACK
6
CONTINUOUS
10
3.48439
20
-2.61609
11
3.48439
21
-2.61672
0
LINE
8
BLACK
6
CONTINUOUS
10
3.48439
20
-2.61672
11
3.49723
21
-2.61929
0
LINE
8
BLACK
6
CONTINUOUS
10
3.49723
20
-2.61929
11
3.49723
21
-2.61609
0
LINE
8
BLACK
6
CONTINUOUS
10
3.49723
20
-2.61609
11
3.49611
21
-2.61385
0
LINE
8
BLACK
6
CONTINUOUS
10
3.49611
20
-2.61385
11
3.49387
21
-2.61272
0
LINE
8
BLACK
6
CONTINUOUS
10
3.49387
20
-2.61272
11
3.48776
21
-2.61272
0
LINE
8
BLACK
6
CONTINUOUS
10
3.48776
20
-2.61272
11
3.48552
21
-2.61385
0
LINE
8
BLACK
6
CONTINUOUS
10
3.55494
20
-2.59475
11
3.55563
21
-2.59665
0
LINE
8
BLACK
6
CONTINUOUS
10
3.55563
20
-2.59665
11
3.55563
21
-2.60697
0
LINE
8
BLACK
6
CONTINUOUS
10
3.55563
20
-2.60697
11
3.55609
21
-2.60684
0
LINE
8
BLACK
6
CONTINUOUS
10
3.55609
20
-2.60684
11
3.55626
21
-2.60688
0
LINE
8
BLACK
6
CONTINUOUS
10
3.55626
20
-2.60688
11
3.55643
21
-2.60682
0
LINE
8
BLACK
6
CONTINUOUS
10
3.55643
20
-2.60682
11
3.56393
21
-2.60682
0
LINE
8
BLACK
6
CONTINUOUS
10
3.56393
20
-2.60682
11
3.56494
21
-2.607
0
LINE
8
BLACK
6
CONTINUOUS
10
3.56494
20
-2.607
11
3.56507
21
-2.60711
0
LINE
8
BLACK
6
CONTINUOUS
10
3.56507
20
-2.60711
11
3.56525
21
-2.60713
0
LINE
8
BLACK
6
CONTINUOUS
10
3.56525
20
-2.60713
11
3.569
21
-2.609
0
LINE
8
BLACK
6
CONTINUOUS
10
3.569
20
-2.609
11
3.56971
21
-2.60953
0
LINE
8
BLACK
6
CONTINUOUS
10
3.56971
20
-2.60953
11
3.56977
21
-2.60956
0
LINE
8
BLACK
6
CONTINUOUS
10
3.56977
20
-2.60956
11
3.57164
21
-2.61143
0
LINE
8
BLACK
6
CONTINUOUS
10
3.57164
20
-2.61143
11
3.57215
21
-2.61215
0
LINE
8
BLACK
6
CONTINUOUS
10
3.57215
20
-2.61215
11
3.57219
21
-2.6122
0
LINE
8
BLACK
6
CONTINUOUS
10
3.57219
20
-2.6122
11
3.57407
21
-2.61595
0
LINE
8
BLACK
6
CONTINUOUS
10
3.57407
20
-2.61595
11
3.57436
21
-2.61693
0
LINE
8
BLACK
6
CONTINUOUS
10
3.57436
20
-2.61693
11
3.57432
21
-2.6171
0
LINE
8
BLACK
6
CONTINUOUS
10
3.57432
20
-2.6171
11
3.57438
21
-2.61727
0
LINE
8
BLACK
6
CONTINUOUS
10
3.57438
20
-2.61727
11
3.57438
21
-2.62852
0
LINE
8
BLACK
6
CONTINUOUS
10
3.57438
20
-2.62852
11
3.5742
21
-2.62953
0
LINE
8
BLACK
6
CONTINUOUS
10
3.5742
20
-2.62953
11
3.57409
21
-2.62966
0
LINE
8
BLACK
6
CONTINUOUS
10
3.57409
20
-2.62966
11
3.57407
21
-2.62984
0
LINE
8
BLACK
6
CONTINUOUS
10
3.57407
20
-2.62984
11
3.57219
21
-2.63359
0
LINE
8
BLACK
6
CONTINUOUS
10
3.57219
20
-2.63359
11
3.57167
21
-2.6343
0
LINE
8
BLACK
6
CONTINUOUS
10
3.57167
20
-2.6343
11
3.57164
21
-2.63435
0
LINE
8
BLACK
6
CONTINUOUS
10
3.57164
20
-2.63435
11
3.56977
21
-2.63623
0
LINE
8
BLACK
6
CONTINUOUS
10
3.56977
20
-2.63623
11
3.56904
21
-2.63674
0
LINE
8
BLACK
6
CONTINUOUS
10
3.56904
20
-2.63674
11
3.569
21
-2.63678
0
LINE
8
BLACK
6
CONTINUOUS
10
3.569
20
-2.63678
11
3.56525
21
-2.63866
0
LINE
8
BLACK
6
CONTINUOUS
10
3.56525
20
-2.63866
11
3.56427
21
-2.63895
0
LINE
8
BLACK
6
CONTINUOUS
10
3.56427
20
-2.63895
11
3.5641
21
-2.63891
0
LINE
8
BLACK
6
CONTINUOUS
10
3.5641
20
-2.63891
11
3.56393
21
-2.63897
0
LINE
8
BLACK
6
CONTINUOUS
10
3.56393
20
-2.63897
11
3.55643
21
-2.63897
0
LINE
8
BLACK
6
CONTINUOUS
10
3.55643
20
-2.63897
11
3.55542
21
-2.63879
0
LINE
8
BLACK
6
CONTINUOUS
10
3.55542
20
-2.63879
11
3.55529
21
-2.63868
0
LINE
8
BLACK
6
CONTINUOUS
10
3.55529
20
-2.63868
11
3.55511
21
-2.63866
0
LINE
8
BLACK
6
CONTINUOUS
10
3.55511
20
-2.63866
11
3.55439
21
-2.6383
0
LINE
8
BLACK
6
CONTINUOUS
10
3.55439
20
-2.6383
11
3.55416
21
-2.63857
0
LINE
8
BLACK
6
CONTINUOUS
10
3.55416
20
-2.63857
11
3.55217
21
-2.63892
0
LINE
8
BLACK
6
CONTINUOUS
10
3.55217
20
-2.63892
11
3.55042
21
-2.63791
0
LINE
8
BLACK
6
CONTINUOUS
10
3.55042
20
-2.63791
11
3.54973
21
-2.63602
0
LINE
8
BLACK
6
CONTINUOUS
10
3.54973
20
-2.63602
11
3.54973
21
-2.59665
0
LINE
8
BLACK
6
CONTINUOUS
10
3.54973
20
-2.59665
11
3.54991
21
-2.59564
0
LINE
8
BLACK
6
CONTINUOUS
10
3.54991
20
-2.59564
11
3.5512
21
-2.59409
0
LINE
8
BLACK
6
CONTINUOUS
10
3.5512
20
-2.59409
11
3.55319
21
-2.59374
0
LINE
8
BLACK
6
CONTINUOUS
10
3.55319
20
-2.59374
11
3.55494
21
-2.59475
0
LINE
8
BLACK
6
CONTINUOUS
10
3.55563
20
-2.61347
11
3.55563
21
-2.63232
0
LINE
8
BLACK
6
CONTINUOUS
10
3.55563
20
-2.63232
11
3.55713
21
-2.63306
0
LINE
8
BLACK
6
CONTINUOUS
10
3.55713
20
-2.63306
11
3.56323
21
-2.63306
0
LINE
8
BLACK
6
CONTINUOUS
10
3.56323
20
-2.63306
11
3.56593
21
-2.63171
0
LINE
8
BLACK
6
CONTINUOUS
10
3.56593
20
-2.63171
11
3.56713
21
-2.63052
0
LINE
8
BLACK
6
CONTINUOUS
10
3.56713
20
-2.63052
11
3.56848
21
-2.62782
0
LINE
8
BLACK
6
CONTINUOUS
10
3.56848
20
-2.62782
11
3.56848
21
-2.61797
0
LINE
8
BLACK
6
CONTINUOUS
10
3.56848
20
-2.61797
11
3.56713
21
-2.61527
0
LINE
8
BLACK
6
CONTINUOUS
10
3.56713
20
-2.61527
11
3.56593
21
-2.61407
0
LINE
8
BLACK
6
CONTINUOUS
10
3.56593
20
-2.61407
11
3.56323
21
-2.61272
0
LINE
8
BLACK
6
CONTINUOUS
10
3.56323
20
-2.61272
11
3.55713
21
-2.61272
0
LINE
8
BLACK
6
CONTINUOUS
10
3.55713
20
-2.61272
11
3.55563
21
-2.61347
0
LINE
8
BLACK
6
CONTINUOUS
10
3.60056
20
-2.607
11
3.6007
21
-2.60711
0
LINE
8
BLACK
6
CONTINUOUS
10
3.6007
20
-2.60711
11
3.60087
21
-2.60713
0
LINE
8
BLACK
6
CONTINUOUS
10
3.60087
20
-2.60713
11
3.60462
21
-2.609
0
LINE
8
BLACK
6
CONTINUOUS
10
3.60462
20
-2.609
11
3.60544
21
-2.60961
0
LINE
8
BLACK
6
CONTINUOUS
10
3.60544
20
-2.60961
11
3.60562
21
-2.61002
0
LINE
8
BLACK
6
CONTINUOUS
10
3.60562
20
-2.61002
11
3.60594
21
-2.61032
0
LINE
8
BLACK
6
CONTINUOUS
10
3.60594
20
-2.61032
11
3.60782
21
-2.61407
0
LINE
8
BLACK
6
CONTINUOUS
10
3.60782
20
-2.61407
11
3.60811
21
-2.61506
0
LINE
8
BLACK
6
CONTINUOUS
10
3.60811
20
-2.61506
11
3.60807
21
-2.61523
0
LINE
8
BLACK
6
CONTINUOUS
10
3.60807
20
-2.61523
11
3.60813
21
-2.61539
0
LINE
8
BLACK
6
CONTINUOUS
10
3.60813
20
-2.61539
11
3.60813
21
-2.63039
0
LINE
8
BLACK
6
CONTINUOUS
10
3.60813
20
-2.63039
11
3.60795
21
-2.6314
0
LINE
8
BLACK
6
CONTINUOUS
10
3.60795
20
-2.6314
11
3.60784
21
-2.63154
0
LINE
8
BLACK
6
CONTINUOUS
10
3.60784
20
-2.63154
11
3.60782
21
-2.63171
0
LINE
8
BLACK
6
CONTINUOUS
10
3.60782
20
-2.63171
11
3.60594
21
-2.63546
0
LINE
8
BLACK
6
CONTINUOUS
10
3.60594
20
-2.63546
11
3.60533
21
-2.63629
0
LINE
8
BLACK
6
CONTINUOUS
10
3.60533
20
-2.63629
11
3.60492
21
-2.63646
0
LINE
8
BLACK
6
CONTINUOUS
10
3.60492
20
-2.63646
11
3.60462
21
-2.63678
0
LINE
8
BLACK
6
CONTINUOUS
10
3.60462
20
-2.63678
11
3.60087
21
-2.63866
0
LINE
8
BLACK
6
CONTINUOUS
10
3.60087
20
-2.63866
11
3.59989
21
-2.63895
0
LINE
8
BLACK
6
CONTINUOUS
10
3.59989
20
-2.63895
11
3.59972
21
-2.63891
0
LINE
8
BLACK
6
CONTINUOUS
10
3.59972
20
-2.63891
11
3.59955
21
-2.63897
0
LINE
8
BLACK
6
CONTINUOUS
10
3.59955
20
-2.63897
11
3.59205
21
-2.63897
0
LINE
8
BLACK
6
CONTINUOUS
10
3.59205
20
-2.63897
11
3.59104
21
-2.63879
0
LINE
8
BLACK
6
CONTINUOUS
10
3.59104
20
-2.63879
11
3.59091
21
-2.63868
0
LINE
8
BLACK
6
CONTINUOUS
10
3.59091
20
-2.63868
11
3.59073
21
-2.63866
0
LINE
8
BLACK
6
CONTINUOUS
10
3.59073
20
-2.63866
11
3.58698
21
-2.63678
0
LINE
8
BLACK
6
CONTINUOUS
10
3.58698
20
-2.63678
11
3.58616
21
-2.63617
0
LINE
8
BLACK
6
CONTINUOUS
10
3.58616
20
-2.63617
11
3.58535
21
-2.63432
0
LINE
8
BLACK
6
CONTINUOUS
10
3.58535
20
-2.63432
11
3.58593
21
-2.63238
0
LINE
8
BLACK
6
CONTINUOUS
10
3.58593
20
-2.63238
11
3.58762
21
-2.63127
0
LINE
8
BLACK
6
CONTINUOUS
10
3.58762
20
-2.63127
11
3.58962
21
-2.6315
0
LINE
8
BLACK
6
CONTINUOUS
10
3.58962
20
-2.6315
11
3.59275
21
-2.63306
0
LINE
8
BLACK
6
CONTINUOUS
10
3.59275
20
-2.63306
11
3.59885
21
-2.63306
0
LINE
8
BLACK
6
CONTINUOUS
10
3.59885
20
-2.63306
11
3.6011
21
-2.63194
0
LINE
8
BLACK
6
CONTINUOUS
10
3.6011
20
-2.63194
11
3.60222
21
-2.6297
0
LINE
8
BLACK
6
CONTINUOUS
10
3.60222
20
-2.6297
11
3.60222
21
-2.62531
0
LINE
8
BLACK
6
CONTINUOUS
10
3.60222
20
-2.62531
11
3.58585
21
-2.62204
0
LINE
8
BLACK
6
CONTINUOUS
10
3.58585
20
-2.62204
11
3.58489
21
-2.62167
0
LINE
8
BLACK
6
CONTINUOUS
10
3.58489
20
-2.62167
11
3.58459
21
-2.62129
0
LINE
8
BLACK
6
CONTINUOUS
10
3.58459
20
-2.62129
11
3.58416
21
-2.62104
0
LINE
8
BLACK
6
CONTINUOUS
10
3.58416
20
-2.62104
11
3.58398
21
-2.62052
0
LINE
8
BLACK
6
CONTINUOUS
10
3.58398
20
-2.62052
11
3.58363
21
-2.62009
0
LINE
8
BLACK
6
CONTINUOUS
10
3.58363
20
-2.62009
11
3.58364
21
-2.6196
0
LINE
8
BLACK
6
CONTINUOUS
10
3.58364
20
-2.6196
11
3.58347
21
-2.61914
0
LINE
8
BLACK
6
CONTINUOUS
10
3.58347
20
-2.61914
11
3.58347
21
-2.61539
0
LINE
8
BLACK
6
CONTINUOUS
10
3.58347
20
-2.61539
11
3.58365
21
-2.61438
0
LINE
8
BLACK
6
CONTINUOUS
10
3.58365
20
-2.61438
11
3.58377
21
-2.61425
0
LINE
8
BLACK
6
CONTINUOUS
10
3.58377
20
-2.61425
11
3.58379
21
-2.61407
0
LINE
8
BLACK
6
CONTINUOUS
10
3.58379
20
-2.61407
11
3.58566
21
-2.61032
0
LINE
8
BLACK
6
CONTINUOUS
10
3.58566
20
-2.61032
11
3.58627
21
-2.6095
0
LINE
8
BLACK
6
CONTINUOUS
10
3.58627
20
-2.6095
11
3.58668
21
-2.60932
0
LINE
8
BLACK
6
CONTINUOUS
10
3.58668
20
-2.60932
11
3.58698
21
-2.609
0
LINE
8
BLACK
6
CONTINUOUS
10
3.58698
20
-2.609
11
3.59073
21
-2.60713
0
LINE
8
BLACK
6
CONTINUOUS
10
3.59073
20
-2.60713
11
3.59171
21
-2.60684
0
LINE
8
BLACK
6
CONTINUOUS
10
3.59171
20
-2.60684
11
3.59189
21
-2.60688
0
LINE
8
BLACK
6
CONTINUOUS
10
3.59189
20
-2.60688
11
3.59205
21
-2.60682
0
LINE
8
BLACK
6
CONTINUOUS
10
3.59205
20
-2.60682
11
3.59955
21
-2.60682
0
LINE
8
BLACK
6
CONTINUOUS
10
3.59955
20
-2.60682
11
3.60056
21
-2.607
0
LINE
8
BLACK
6
CONTINUOUS
10
3.5905
20
-2.61385
11
3.58938
21
-2.61609
0
LINE
8
BLACK
6
CONTINUOUS
10
3.58938
20
-2.61609
11
3.58938
21
-2.61672
0
LINE
8
BLACK
6
CONTINUOUS
10
3.58938
20
-2.61672
11
3.60222
21
-2.61929
0
LINE
8
BLACK
6
CONTINUOUS
10
3.60222
20
-2.61929
11
3.60222
21
-2.61609
0
LINE
8
BLACK
6
CONTINUOUS
10
3.60222
20
-2.61609
11
3.6011
21
-2.61385
0
LINE
8
BLACK
6
CONTINUOUS
10
3.6011
20
-2.61385
11
3.59885
21
-2.61272
0
LINE
8
BLACK
6
CONTINUOUS
10
3.59885
20
-2.61272
11
3.59275
21
-2.61272
0
LINE
8
BLACK
6
CONTINUOUS
10
3.59275
20
-2.61272
11
3.5905
21
-2.61385
0
LINE
8
BLACK
6
CONTINUOUS
10
3.52897
20
-2.33792
11
3.52914
21
-2.33791
0
LINE
8
BLACK
6
CONTINUOUS
10
3.52914
20
-2.33791
11
3.52983
21
-2.33841
0
LINE
8
BLACK
6
CONTINUOUS
10
3.52983
20
-2.33841
11
3.53057
21
-2.33884
0
LINE
8
BLACK
6
CONTINUOUS
10
3.53057
20
-2.33884
11
3.53063
21
-2.339
0
LINE
8
BLACK
6
CONTINUOUS
10
3.53063
20
-2.339
11
3.53077
21
-2.3391
0
LINE
8
BLACK
6
CONTINUOUS
10
3.53077
20
-2.3391
11
3.53435
21
-2.34448
0
LINE
8
BLACK
6
CONTINUOUS
10
3.53435
20
-2.34448
11
3.53756
21
-2.34769
0
LINE
8
BLACK
6
CONTINUOUS
10
3.53756
20
-2.34769
11
3.54088
21
-2.34935
0
LINE
8
BLACK
6
CONTINUOUS
10
3.54088
20
-2.34935
11
3.5417
21
-2.34996
0
LINE
8
BLACK
6
CONTINUOUS
10
3.5417
20
-2.34996
11
3.5425
21
-2.35181
0
LINE
8
BLACK
6
CONTINUOUS
10
3.5425
20
-2.35181
11
3.54193
21
-2.35375
0
LINE
8
BLACK
6
CONTINUOUS
10
3.54193
20
-2.35375
11
3.54024
21
-2.35486
0
LINE
8
BLACK
6
CONTINUOUS
10
3.54024
20
-2.35486
11
3.53824
21
-2.35463
0
LINE
8
BLACK
6
CONTINUOUS
10
3.53824
20
-2.35463
11
3.53449
21
-2.35276
0
LINE
8
BLACK
6
CONTINUOUS
10
3.53449
20
-2.35276
11
3.53378
21
-2.35223
0
LINE
8
BLACK
6
CONTINUOUS
10
3.53378
20
-2.35223
11
3.53372
21
-2.3522
0
LINE
8
BLACK
6
CONTINUOUS
10
3.53372
20
-2.3522
11
3.53126
21
-2.34974
0
LINE
8
BLACK
6
CONTINUOUS
10
3.53126
20
-2.34974
11
3.53126
21
-2.37716
0
LINE
8
BLACK
6
CONTINUOUS
10
3.53126
20
-2.37716
11
3.53956
21
-2.37716
0
LINE
8
BLACK
6
CONTINUOUS
10
3.53956
20
-2.37716
11
3.54057
21
-2.37734
0
LINE
8
BLACK
6
CONTINUOUS
10
3.54057
20
-2.37734
11
3.54211
21
-2.37863
0
LINE
8
BLACK
6
CONTINUOUS
10
3.54211
20
-2.37863
11
3.54247
21
-2.38062
0
LINE
8
BLACK
6
CONTINUOUS
10
3.54247
20
-2.38062
11
3.54146
21
-2.38237
0
LINE
8
BLACK
6
CONTINUOUS
10
3.54146
20
-2.38237
11
3.53956
21
-2.38306
0
LINE
8
BLACK
6
CONTINUOUS
10
3.53956
20
-2.38306
11
3.51706
21
-2.38306
0
LINE
8
BLACK
6
CONTINUOUS
10
3.51706
20
-2.38306
11
3.51605
21
-2.38289
0
LINE
8
BLACK
6
CONTINUOUS
10
3.51605
20
-2.38289
11
3.5145
21
-2.38159
0
LINE
8
BLACK
6
CONTINUOUS
10
3.5145
20
-2.38159
11
3.51415
21
-2.3796
0
LINE
8
BLACK
6
CONTINUOUS
10
3.51415
20
-2.3796
11
3.51516
21
-2.37785
0
LINE
8
BLACK
6
CONTINUOUS
10
3.51516
20
-2.37785
11
3.51706
21
-2.37716
0
LINE
8
BLACK
6
CONTINUOUS
10
3.51706
20
-2.37716
11
3.52536
21
-2.37716
0
LINE
8
BLACK
6
CONTINUOUS
10
3.52536
20
-2.37716
11
3.52536
21
-2.34074
0
LINE
8
BLACK
6
CONTINUOUS
10
3.52536
20
-2.34074
11
3.52553
21
-2.33973
0
LINE
8
BLACK
6
CONTINUOUS
10
3.52553
20
-2.33973
11
3.52564
21
-2.3396
0
LINE
8
BLACK
6
CONTINUOUS
10
3.52564
20
-2.3396
11
3.52566
21
-2.33943
0
LINE
8
BLACK
6
CONTINUOUS
10
3.52566
20
-2.33943
11
3.52628
21
-2.33884
0
LINE
8
BLACK
6
CONTINUOUS
10
3.52628
20
-2.33884
11
3.52683
21
-2.33818
0
LINE
8
BLACK
6
CONTINUOUS
10
3.52683
20
-2.33818
11
3.527
21
-2.33815
0
LINE
8
BLACK
6
CONTINUOUS
10
3.527
20
-2.33815
11
3.52712
21
-2.33804
0
LINE
8
BLACK
6
CONTINUOUS
10
3.52712
20
-2.33804
11
3.52798
21
-2.33798
0
LINE
8
BLACK
6
CONTINUOUS
10
3.52798
20
-2.33798
11
3.52882
21
-2.33783
0
LINE
8
BLACK
6
CONTINUOUS
10
3.52882
20
-2.33783
11
3.52897
21
-2.33792
0
LINE
8
BLACK
6
CONTINUOUS
10
3.55869
20
-2.33884
11
3.55938
21
-2.34074
0
LINE
8
BLACK
6
CONTINUOUS
10
3.55938
20
-2.34074
11
3.55938
21
-2.36838
0
LINE
8
BLACK
6
CONTINUOUS
10
3.55938
20
-2.36838
11
3.56089
21
-2.37289
0
LINE
8
BLACK
6
CONTINUOUS
10
3.56089
20
-2.37289
11
3.56365
21
-2.37566
0
LINE
8
BLACK
6
CONTINUOUS
10
3.56365
20
-2.37566
11
3.56816
21
-2.37716
0
LINE
8
BLACK
6
CONTINUOUS
10
3.56816
20
-2.37716
11
3.57143
21
-2.37716
0
LINE
8
BLACK
6
CONTINUOUS
10
3.57143
20
-2.37716
11
3.57244
21
-2.37734
0
LINE
8
BLACK
6
CONTINUOUS
10
3.57244
20
-2.37734
11
3.57399
21
-2.37863
0
LINE
8
BLACK
6
CONTINUOUS
10
3.57399
20
-2.37863
11
3.57434
21
-2.38062
0
LINE
8
BLACK
6
CONTINUOUS
10
3.57434
20
-2.38062
11
3.57333
21
-2.38237
0
LINE
8
BLACK
6
CONTINUOUS
10
3.57333
20
-2.38237
11
3.57143
21
-2.38306
0
LINE
8
BLACK
6
CONTINUOUS
10
3.57143
20
-2.38306
11
3.56768
21
-2.38306
0
LINE
8
BLACK
6
CONTINUOUS
10
3.56768
20
-2.38306
11
3.56681
21
-2.38291
0
LINE
8
BLACK
6
CONTINUOUS
10
3.56681
20
-2.38291
11
3.56675
21
-2.38291
0
LINE
8
BLACK
6
CONTINUOUS
10
3.56675
20
-2.38291
11
3.56112
21
-2.38104
0
LINE
8
BLACK
6
CONTINUOUS
10
3.56112
20
-2.38104
11
3.56022
21
-2.38055
0
LINE
8
BLACK
6
CONTINUOUS
10
3.56022
20
-2.38055
11
3.56013
21
-2.3804
0
LINE
8
BLACK
6
CONTINUOUS
10
3.56013
20
-2.3804
11
3.55997
21
-2.38032
0
LINE
8
BLACK
6
CONTINUOUS
10
3.55997
20
-2.38032
11
3.55622
21
-2.37657
0
LINE
8
BLACK
6
CONTINUOUS
10
3.55622
20
-2.37657
11
3.55563
21
-2.37573
0
LINE
8
BLACK
6
CONTINUOUS
10
3.55563
20
-2.37573
11
3.55561
21
-2.37556
0
LINE
8
BLACK
6
CONTINUOUS
10
3.55561
20
-2.37556
11
3.5555
21
-2.37542
0
LINE
8
BLACK
6
CONTINUOUS
10
3.5555
20
-2.37542
11
3.55363
21
-2.3698
0
LINE
8
BLACK
6
CONTINUOUS
10
3.55363
20
-2.3698
11
3.5535
21
-2.36892
0
LINE
8
BLACK
6
CONTINUOUS
10
3.5535
20
-2.36892
11
3.55348
21
-2.36886
0
LINE
8
BLACK
6
CONTINUOUS
10
3.55348
20
-2.36886
11
3.55348
21
-2.34074
0
LINE
8
BLACK
6
CONTINUOUS
10
3.55348
20
-2.34074
11
3.55366
21
-2.33973
0
LINE
8
BLACK
6
CONTINUOUS
10
3.55366
20
-2.33973
11
3.55495
21
-2.33818
0
LINE
8
BLACK
6
CONTINUOUS
10
3.55495
20
-2.33818
11
3.55694
21
-2.33783
0
LINE
8
BLACK
6
CONTINUOUS
10
3.55694
20
-2.33783
11
3.55869
21
-2.33884
0
LINE
8
BLACK
6
CONTINUOUS
10
3.51378
20
-2.24213
11
3.51517
21
-2.2427
0
LINE
8
BLACK
6
CONTINUOUS
10
3.51517
20
-2.2427
11
3.51575
21
-2.24409
0
LINE
8
BLACK
6
CONTINUOUS
10
3.51575
20
-2.24409
11
3.51575
21
-2.2815
0
LINE
8
BLACK
6
CONTINUOUS
10
3.51575
20
-2.2815
11
3.57087
21
-2.2815
0
LINE
8
BLACK
6
CONTINUOUS
10
3.57087
20
-2.2815
11
3.57087
21
-2.24409
0
LINE
8
BLACK
6
CONTINUOUS
10
3.57087
20
-2.24409
11
3.57144
21
-2.2427
0
LINE
8
BLACK
6
CONTINUOUS
10
3.57144
20
-2.2427
11
3.57283
21
-2.24213
0
LINE
8
BLACK
6
CONTINUOUS
10
3.57283
20
-2.24213
11
3.59252
21
-2.24213
0
LINE
8
BLACK
6
CONTINUOUS
10
3.59252
20
-2.24213
11
3.59391
21
-2.2427
0
LINE
8
BLACK
6
CONTINUOUS
10
3.59391
20
-2.2427
11
3.59449
21
-2.24409
0
LINE
8
BLACK
6
CONTINUOUS
10
3.59449
20
-2.24409
11
3.59449
21
-2.28346
0
LINE
8
BLACK
6
CONTINUOUS
10
3.59449
20
-2.28346
11
3.59391
21
-2.28486
0
LINE
8
BLACK
6
CONTINUOUS
10
3.59391
20
-2.28486
11
3.59252
21
-2.28543
0
LINE
8
BLACK
6
CONTINUOUS
10
3.59252
20
-2.28543
11
3.59113
21
-2.28486
0
LINE
8
BLACK
6
CONTINUOUS
10
3.59113
20
-2.28486
11
3.59055
21
-2.28346
0
LINE
8
BLACK
6
CONTINUOUS
10
3.59055
20
-2.28346
11
3.59055
21
-2.24606
0
LINE
8
BLACK
6
CONTINUOUS
10
3.59055
20
-2.24606
11
3.5748
21
-2.24606
0
LINE
8
BLACK
6
CONTINUOUS
10
3.5748
20
-2.24606
11
3.5748
21
-2.2815
0
LINE
8
BLACK
6
CONTINUOUS
10
3.5748
20
-2.2815
11
3.58268
21
-2.2815
0
LINE
8
BLACK
6
CONTINUOUS
10
3.58268
20
-2.2815
11
3.58407
21
-2.28207
0
LINE
8
BLACK
6
CONTINUOUS
10
3.58407
20
-2.28207
11
3.62344
21
-2.32144
0
LINE
8
BLACK
6
CONTINUOUS
10
3.62344
20
-2.32144
11
3.62354
21
-2.32168
0
LINE
8
BLACK
6
CONTINUOUS
10
3.62354
20
-2.32168
11
3.62402
21
-2.32283
0
LINE
8
BLACK
6
CONTINUOUS
10
3.62402
20
-2.32283
11
3.62402
21
-2.44094
0
LINE
8
BLACK
6
CONTINUOUS
10
3.62402
20
-2.44094
11
3.62344
21
-2.44234
0
LINE
8
BLACK
6
CONTINUOUS
10
3.62344
20
-2.44234
11
3.62205
21
-2.44291
0
LINE
8
BLACK
6
CONTINUOUS
10
3.62205
20
-2.44291
11
3.59449
21
-2.44291
0
LINE
8
BLACK
6
CONTINUOUS
10
3.59449
20
-2.44291
11
3.59449
21
-2.48031
0
LINE
8
BLACK
6
CONTINUOUS
10
3.59449
20
-2.48031
11
3.59391
21
-2.48171
0
LINE
8
BLACK
6
CONTINUOUS
10
3.59391
20
-2.48171
11
3.59252
21
-2.48228
0
LINE
8
BLACK
6
CONTINUOUS
10
3.59252
20
-2.48228
11
3.57283
21
-2.48228
0
LINE
8
BLACK
6
CONTINUOUS
10
3.57283
20
-2.48228
11
3.57144
21
-2.48171
0
LINE
8
BLACK
6
CONTINUOUS
10
3.57144
20
-2.48171
11
3.57087
21
-2.48031
0
LINE
8
BLACK
6
CONTINUOUS
10
3.57087
20
-2.48031
11
3.57087
21
-2.44291
0
LINE
8
BLACK
6
CONTINUOUS
10
3.57087
20
-2.44291
11
3.51575
21
-2.44291
0
LINE
8
BLACK
6
CONTINUOUS
10
3.51575
20
-2.44291
11
3.51575
21
-2.48031
0
LINE
8
BLACK
6
CONTINUOUS
10
3.51575
20
-2.48031
11
3.51517
21
-2.48171
0
LINE
8
BLACK
6
CONTINUOUS
10
3.51517
20
-2.48171
11
3.51378
21
-2.48228
0
LINE
8
BLACK
6
CONTINUOUS
10
3.51378
20
-2.48228
11
3.49409
21
-2.48228
0
LINE
8
BLACK
6
CONTINUOUS
10
3.49409
20
-2.48228
11
3.4927
21
-2.48171
0
LINE
8
BLACK
6
CONTINUOUS
10
3.4927
20
-2.48171
11
3.49213
21
-2.48031
0
LINE
8
BLACK
6
CONTINUOUS
10
3.49213
20
-2.48031
11
3.49213
21
-2.44291
0
LINE
8
BLACK
6
CONTINUOUS
10
3.49213
20
-2.44291
11
3.46457
21
-2.44291
0
LINE
8
BLACK
6
CONTINUOUS
10
3.46457
20
-2.44291
11
3.46318
21
-2.44234
0
LINE
8
BLACK
6
CONTINUOUS
10
3.46318
20
-2.44234
11
3.4626
21
-2.44094
0
LINE
8
BLACK
6
CONTINUOUS
10
3.4626
20
-2.44094
11
3.4626
21
-2.28346
0
LINE
8
BLACK
6
CONTINUOUS
10
3.4626
20
-2.28346
11
3.46318
21
-2.28207
0
LINE
8
BLACK
6
CONTINUOUS
10
3.46318
20
-2.28207
11
3.46457
21
-2.2815
0
LINE
8
BLACK
6
CONTINUOUS
10
3.46457
20
-2.2815
11
3.49213
21
-2.2815
0
LINE
8
BLACK
6
CONTINUOUS
10
3.49213
20
-2.2815
11
3.49213
21
-2.24409
0
LINE
8
BLACK
6
CONTINUOUS
10
3.49213
20
-2.24409
11
3.4927
21
-2.2427
0
LINE
8
BLACK
6
CONTINUOUS
10
3.4927
20
-2.2427
11
3.49409
21
-2.24213
0
LINE
8
BLACK
6
CONTINUOUS
10
3.49409
20
-2.24213
11
3.51378
21
-2.24213
0
LINE
8
BLACK
6
CONTINUOUS
10
3.5748
20
-2.44291
11
3.5748
21
-2.47835
0
LINE
8
BLACK
6
CONTINUOUS
10
3.5748
20
-2.47835
11
3.59055
21
-2.47835
0
LINE
8
BLACK
6
CONTINUOUS
10
3.59055
20
-2.47835
11
3.59055
21
-2.44291
0
LINE
8
BLACK
6
CONTINUOUS
10
3.59055
20
-2.44291
11
3.5748
21
-2.44291
0
LINE
8
BLACK
6
CONTINUOUS
10
3.49606
20
-2.44291
11
3.49606
21
-2.47835
0
LINE
8
BLACK
6
CONTINUOUS
10
3.49606
20
-2.47835
11
3.51181
21
-2.47835
0
LINE
8
BLACK
6
CONTINUOUS
10
3.51181
20
-2.47835
11
3.51181
21
-2.44291
0
LINE
8
BLACK
6
CONTINUOUS
10
3.51181
20
-2.44291
11
3.49606
21
-2.44291
0
LINE
8
BLACK
6
CONTINUOUS
10
3.57283
20
-2.28543
11
3.51378
21
-2.28543
0
LINE
8
BLACK
6
CONTINUOUS
10
3.51378
20
-2.28543
11
3.49409
21
-2.28543
0
LINE
8
BLACK
6
CONTINUOUS
10
3.49409
20
-2.28543
11
3.46654
21
-2.28543
0
LINE
8
BLACK
6
CONTINUOUS
10
3.46654
20
-2.28543
11
3.46654
21
-2.43898
0
LINE
8
BLACK
6
CONTINUOUS
10
3.46654
20
-2.43898
11
3.62008
21
-2.43898
0
LINE
8
BLACK
6
CONTINUOUS
10
3.62008
20
-2.43898
11
3.62008
21
-2.32365
0
LINE
8
BLACK
6
CONTINUOUS
10
3.62008
20
-2.32365
11
3.58186
21
-2.28543
0
LINE
8
BLACK
6
CONTINUOUS
10
3.58186
20
-2.28543
11
3.57283
21
-2.28543
0
LINE
8
BLACK
6
CONTINUOUS
10
3.49606
20
-2.24606
11
3.49606
21
-2.2815
0
LINE
8
BLACK
6
CONTINUOUS
10
3.49606
20
-2.2815
11
3.51181
21
-2.2815
0
LINE
8
BLACK
6
CONTINUOUS
10
3.51181
20
-2.2815
11
3.51181
21
-2.24606
0
LINE
8
BLACK
6
CONTINUOUS
10
3.51181
20
-2.24606
11
3.49606
21
-2.24606
0
LINE
8
BLACK
6
CONTINUOUS
10
3.4188
20
-2.43161
11
3.41894
21
-2.43172
0
LINE
8
BLACK
6
CONTINUOUS
10
3.41894
20
-2.43172
11
3.41911
21
-2.43174
0
LINE
8
BLACK
6
CONTINUOUS
10
3.41911
20
-2.43174
11
3.42286
21
-2.43362
0
LINE
8
BLACK
6
CONTINUOUS
10
3.42286
20
-2.43362
11
3.42369
21
-2.43423
0
LINE
8
BLACK
6
CONTINUOUS
10
3.42369
20
-2.43423
11
3.42386
21
-2.43463
0
LINE
8
BLACK
6
CONTINUOUS
10
3.42386
20
-2.43463
11
3.42418
21
-2.43494
0
LINE
8
BLACK
6
CONTINUOUS
10
3.42418
20
-2.43494
11
3.42606
21
-2.43869
0
LINE
8
BLACK
6
CONTINUOUS
10
3.42606
20
-2.43869
11
3.42635
21
-2.43967
0
LINE
8
BLACK
6
CONTINUOUS
10
3.42635
20
-2.43967
11
3.42631
21
-2.43984
0
LINE
8
BLACK
6
CONTINUOUS
10
3.42631
20
-2.43984
11
3.42637
21
-2.44001
0
LINE
8
BLACK
6
CONTINUOUS
10
3.42637
20
-2.44001
11
3.42637
21
-2.44751
0
LINE
8
BLACK
6
CONTINUOUS
10
3.42637
20
-2.44751
11
3.42619
21
-2.44852
0
LINE
8
BLACK
6
CONTINUOUS
10
3.42619
20
-2.44852
11
3.42608
21
-2.44865
0
LINE
8
BLACK
6
CONTINUOUS
10
3.42608
20
-2.44865
11
3.42606
21
-2.44883
0
LINE
8
BLACK
6
CONTINUOUS
10
3.42606
20
-2.44883
11
3.42418
21
-2.45258
0
LINE
8
BLACK
6
CONTINUOUS
10
3.42418
20
-2.45258
11
3.42357
21
-2.4534
0
LINE
8
BLACK
6
CONTINUOUS
10
3.42357
20
-2.4534
11
3.42172
21
-2.4542
0
LINE
8
BLACK
6
CONTINUOUS
10
3.42172
20
-2.4542
11
3.41978
21
-2.45363
0
LINE
8
BLACK
6
CONTINUOUS
10
3.41978
20
-2.45363
11
3.41867
21
-2.45194
0
LINE
8
BLACK
6
CONTINUOUS
10
3.41867
20
-2.45194
11
3.4189
21
-2.44994
0
LINE
8
BLACK
6
CONTINUOUS
10
3.4189
20
-2.44994
11
3.42047
21
-2.44681
0
LINE
8
BLACK
6
CONTINUOUS
10
3.42047
20
-2.44681
11
3.42047
21
-2.4407
0
LINE
8
BLACK
6
CONTINUOUS
10
3.42047
20
-2.4407
11
3.41934
21
-2.43846
0
LINE
8
BLACK
6
CONTINUOUS
10
3.41934
20
-2.43846
11
3.4171
21
-2.43734
0
LINE
8
BLACK
6
CONTINUOUS
10
3.4171
20
-2.43734
11
3.41272
21
-2.43734
0
LINE
8
BLACK
6
CONTINUOUS
10
3.41272
20
-2.43734
11
3.40944
21
-2.45371
0
LINE
8
BLACK
6
CONTINUOUS
10
3.40944
20
-2.45371
11
3.40907
21
-2.45467
0
LINE
8
BLACK
6
CONTINUOUS
10
3.40907
20
-2.45467
11
3.40869
21
-2.45497
0
LINE
8
BLACK
6
CONTINUOUS
10
3.40869
20
-2.45497
11
3.40844
21
-2.45539
0
LINE
8
BLACK
6
CONTINUOUS
10
3.40844
20
-2.45539
11
3.40792
21
-2.45558
0
LINE
8
BLACK
6
CONTINUOUS
10
3.40792
20
-2.45558
11
3.40749
21
-2.45593
0
LINE
8
BLACK
6
CONTINUOUS
10
3.40749
20
-2.45593
11
3.407
21
-2.45592
0
LINE
8
BLACK
6
CONTINUOUS
10
3.407
20
-2.45592
11
3.40655
21
-2.45608
0
LINE
8
BLACK
6
CONTINUOUS
10
3.40655
20
-2.45608
11
3.4028
21
-2.45608
0
LINE
8
BLACK
6
CONTINUOUS
10
3.4028
20
-2.45608
11
3.40179
21
-2.45591
0
LINE
8
BLACK
6
CONTINUOUS
10
3.40179
20
-2.45591
11
3.40165
21
-2.45579
0
LINE
8
BLACK
6
CONTINUOUS
10
3.40165
20
-2.45579
11
3.40148
21
-2.45577
0
LINE
8
BLACK
6
CONTINUOUS
10
3.40148
20
-2.45577
11
3.39773
21
-2.4539
0
LINE
8
BLACK
6
CONTINUOUS
10
3.39773
20
-2.4539
11
3.3969
21
-2.45329
0
LINE
8
BLACK
6
CONTINUOUS
10
3.3969
20
-2.45329
11
3.39673
21
-2.45288
0
LINE
8
BLACK
6
CONTINUOUS
10
3.39673
20
-2.45288
11
3.39641
21
-2.45258
0
LINE
8
BLACK
6
CONTINUOUS
10
3.39641
20
-2.45258
11
3.39453
21
-2.44883
0
LINE
8
BLACK
6
CONTINUOUS
10
3.39453
20
-2.44883
11
3.39424
21
-2.44784
0
LINE
8
BLACK
6
CONTINUOUS
10
3.39424
20
-2.44784
11
3.39428
21
-2.44767
0
LINE
8
BLACK
6
CONTINUOUS
10
3.39428
20
-2.44767
11
3.39422
21
-2.44751
0
LINE
8
BLACK
6
CONTINUOUS
10
3.39422
20
-2.44751
11
3.39422
21
-2.44001
0
LINE
8
BLACK
6
CONTINUOUS
10
3.39422
20
-2.44001
11
3.3944
21
-2.439
0
LINE
8
BLACK
6
CONTINUOUS
10
3.3944
20
-2.439
11
3.39451
21
-2.43886
0
LINE
8
BLACK
6
CONTINUOUS
10
3.39451
20
-2.43886
11
3.39453
21
-2.43869
0
LINE
8
BLACK
6
CONTINUOUS
10
3.39453
20
-2.43869
11
3.39641
21
-2.43494
0
LINE
8
BLACK
6
CONTINUOUS
10
3.39641
20
-2.43494
11
3.39702
21
-2.43411
0
LINE
8
BLACK
6
CONTINUOUS
10
3.39702
20
-2.43411
11
3.39742
21
-2.43394
0
LINE
8
BLACK
6
CONTINUOUS
10
3.39742
20
-2.43394
11
3.39773
21
-2.43362
0
LINE
8
BLACK
6
CONTINUOUS
10
3.39773
20
-2.43362
11
3.40148
21
-2.43174
0
LINE
8
BLACK
6
CONTINUOUS
10
3.40148
20
-2.43174
11
3.40246
21
-2.43145
0
LINE
8
BLACK
6
CONTINUOUS
10
3.40246
20
-2.43145
11
3.40263
21
-2.43149
0
LINE
8
BLACK
6
CONTINUOUS
10
3.40263
20
-2.43149
11
3.4028
21
-2.43143
0
LINE
8
BLACK
6
CONTINUOUS
10
3.4028
20
-2.43143
11
3.41779
21
-2.43143
0
LINE
8
BLACK
6
CONTINUOUS
10
3.41779
20
-2.43143
11
3.4188
21
-2.43161
0
LINE
8
BLACK
6
CONTINUOUS
10
3.40125
20
-2.43846
11
3.40012
21
-2.4407
0
LINE
8
BLACK
6
CONTINUOUS
10
3.40012
20
-2.4407
11
3.40012
21
-2.44681
0
LINE
8
BLACK
6
CONTINUOUS
10
3.40012
20
-2.44681
11
3.40125
21
-2.44906
0
LINE
8
BLACK
6
CONTINUOUS
10
3.40125
20
-2.44906
11
3.40349
21
-2.45018
0
LINE
8
BLACK
6
CONTINUOUS
10
3.40349
20
-2.45018
11
3.40412
21
-2.45018
0
LINE
8
BLACK
6
CONTINUOUS
10
3.40412
20
-2.45018
11
3.40669
21
-2.43734
0
LINE
8
BLACK
6
CONTINUOUS
10
3.40669
20
-2.43734
11
3.40349
21
-2.43734
0
LINE
8
BLACK
6
CONTINUOUS
10
3.40349
20
-2.43734
11
3.40125
21
-2.43846
0
LINE
8
BLACK
6
CONTINUOUS
10
3.4188
20
-2.41286
11
3.41894
21
-2.41297
0
LINE
8
BLACK
6
CONTINUOUS
10
3.41894
20
-2.41297
11
3.41911
21
-2.41299
0
LINE
8
BLACK
6
CONTINUOUS
10
3.41911
20
-2.41299
11
3.42286
21
-2.41487
0
LINE
8
BLACK
6
CONTINUOUS
10
3.42286
20
-2.41487
11
3.42369
21
-2.41548
0
LINE
8
BLACK
6
CONTINUOUS
10
3.42369
20
-2.41548
11
3.42386
21
-2.41589
0
LINE
8
BLACK
6
CONTINUOUS
10
3.42386
20
-2.41589
11
3.42418
21
-2.41619
0
LINE
8
BLACK
6
CONTINUOUS
10
3.42418
20
-2.41619
11
3.42606
21
-2.41994
0
LINE
8
BLACK
6
CONTINUOUS
10
3.42606
20
-2.41994
11
3.42635
21
-2.42092
0
LINE
8
BLACK
6
CONTINUOUS
10
3.42635
20
-2.42092
11
3.42588
21
-2.42289
0
LINE
8
BLACK
6
CONTINUOUS
10
3.42588
20
-2.42289
11
3.42426
21
-2.42409
0
LINE
8
BLACK
6
CONTINUOUS
10
3.42426
20
-2.42409
11
3.42224
21
-2.42397
0
LINE
8
BLACK
6
CONTINUOUS
10
3.42224
20
-2.42397
11
3.42078
21
-2.42258
0
LINE
8
BLACK
6
CONTINUOUS
10
3.42078
20
-2.42258
11
3.41934
21
-2.41971
0
LINE
8
BLACK
6
CONTINUOUS
10
3.41934
20
-2.41971
11
3.4171
21
-2.41859
0
LINE
8
BLACK
6
CONTINUOUS
10
3.4171
20
-2.41859
11
3.38405
21
-2.41859
0
LINE
8
BLACK
6
CONTINUOUS
10
3.38405
20
-2.41859
11
3.38304
21
-2.41841
0
LINE
8
BLACK
6
CONTINUOUS
10
3.38304
20
-2.41841
11
3.38149
21
-2.41711
0
LINE
8
BLACK
6
CONTINUOUS
10
3.38149
20
-2.41711
11
3.38114
21
-2.41512
0
LINE
8
BLACK
6
CONTINUOUS
10
3.38114
20
-2.41512
11
3.38215
21
-2.41337
0
LINE
8
BLACK
6
CONTINUOUS
10
3.38215
20
-2.41337
11
3.38405
21
-2.41268
0
LINE
8
BLACK
6
CONTINUOUS
10
3.38405
20
-2.41268
11
3.41779
21
-2.41268
0
LINE
8
BLACK
6
CONTINUOUS
10
3.41779
20
-2.41268
11
3.4188
21
-2.41286
0
LINE
8
BLACK
6
CONTINUOUS
10
3.41693
20
-2.37537
11
3.41706
21
-2.37548
0
LINE
8
BLACK
6
CONTINUOUS
10
3.41706
20
-2.37548
11
3.41724
21
-2.3755
0
LINE
8
BLACK
6
CONTINUOUS
10
3.41724
20
-2.3755
11
3.42099
21
-2.37737
0
LINE
8
BLACK
6
CONTINUOUS
10
3.42099
20
-2.37737
11
3.4217
21
-2.3779
0
LINE
8
BLACK
6
CONTINUOUS
10
3.4217
20
-2.3779
11
3.42176
21
-2.37793
0
LINE
8
BLACK
6
CONTINUOUS
10
3.42176
20
-2.37793
11
3.42363
21
-2.3798
0
LINE
8
BLACK
6
CONTINUOUS
10
3.42363
20
-2.3798
11
3.42414
21
-2.38052
0
LINE
8
BLACK
6
CONTINUOUS
10
3.42414
20
-2.38052
11
3.42418
21
-2.38057
0
LINE
8
BLACK
6
CONTINUOUS
10
3.42418
20
-2.38057
11
3.42606
21
-2.38432
0
LINE
8
BLACK
6
CONTINUOUS
10
3.42606
20
-2.38432
11
3.42635
21
-2.3853
0
LINE
8
BLACK
6
CONTINUOUS
10
3.42635
20
-2.3853
11
3.42631
21
-2.38547
0
LINE
8
BLACK
6
CONTINUOUS
10
3.42631
20
-2.38547
11
3.42637
21
-2.38564
0
LINE
8
BLACK
6
CONTINUOUS
10
3.42637
20
-2.38564
11
3.42637
21
-2.39314
0
LINE
8
BLACK
6
CONTINUOUS
10
3.42637
20
-2.39314
11
3.42619
21
-2.39415
0
LINE
8
BLACK
6
CONTINUOUS
10
3.42619
20
-2.39415
11
3.42608
21
-2.39428
0
LINE
8
BLACK
6
CONTINUOUS
10
3.42608
20
-2.39428
11
3.42606
21
-2.39446
0
LINE
8
BLACK
6
CONTINUOUS
10
3.42606
20
-2.39446
11
3.4257
21
-2.39518
0
LINE
8
BLACK
6
CONTINUOUS
10
3.4257
20
-2.39518
11
3.42598
21
-2.39541
0
LINE
8
BLACK
6
CONTINUOUS
10
3.42598
20
-2.39541
11
3.42633
21
-2.3974
0
LINE
8
BLACK
6
CONTINUOUS
10
3.42633
20
-2.3974
11
3.42532
21
-2.39915
0
LINE
8
BLACK
6
CONTINUOUS
10
3.42532
20
-2.39915
11
3.42342
21
-2.39984
0
LINE
8
BLACK
6
CONTINUOUS
10
3.42342
20
-2.39984
11
3.38405
21
-2.39984
0
LINE
8
BLACK
6
CONTINUOUS
10
3.38405
20
-2.39984
11
3.38304
21
-2.39966
0
LINE
8
BLACK
6
CONTINUOUS
10
3.38304
20
-2.39966
11
3.38149
21
-2.39836
0
LINE
8
BLACK
6
CONTINUOUS
10
3.38149
20
-2.39836
11
3.38114
21
-2.39638
0
LINE
8
BLACK
6
CONTINUOUS
10
3.38114
20
-2.39638
11
3.38215
21
-2.39463
0
LINE
8
BLACK
6
CONTINUOUS
10
3.38215
20
-2.39463
11
3.38405
21
-2.39394
0
LINE
8
BLACK
6
CONTINUOUS
10
3.38405
20
-2.39394
11
3.39437
21
-2.39394
0
LINE
8
BLACK
6
CONTINUOUS
10
3.39437
20
-2.39394
11
3.39424
21
-2.39348
0
LINE
8
BLACK
6
CONTINUOUS
10
3.39424
20
-2.39348
11
3.39428
21
-2.3933
0
LINE
8
BLACK
6
CONTINUOUS
10
3.39428
20
-2.3933
11
3.39422
21
-2.39314
0
LINE
8
BLACK
6
CONTINUOUS
10
3.39422
20
-2.39314
11
3.39422
21
-2.38564
0
LINE
8
BLACK
6
CONTINUOUS
10
3.39422
20
-2.38564
11
3.3944
21
-2.38463
0
LINE
8
BLACK
6
CONTINUOUS
10
3.3944
20
-2.38463
11
3.39451
21
-2.38449
0
LINE
8
BLACK
6
CONTINUOUS
10
3.39451
20
-2.38449
11
3.39453
21
-2.38432
0
LINE
8
BLACK
6
CONTINUOUS
10
3.39453
20
-2.38432
11
3.39641
21
-2.38057
0
LINE
8
BLACK
6
CONTINUOUS
10
3.39641
20
-2.38057
11
3.39693
21
-2.37986
0
LINE
8
BLACK
6
CONTINUOUS
10
3.39693
20
-2.37986
11
3.39696
21
-2.3798
0
LINE
8
BLACK
6
CONTINUOUS
10
3.39696
20
-2.3798
11
3.39883
21
-2.37793
0
LINE
8
BLACK
6
CONTINUOUS
10
3.39883
20
-2.37793
11
3.39956
21
-2.37742
0
LINE
8
BLACK
6
CONTINUOUS
10
3.39956
20
-2.37742
11
3.3996
21
-2.37737
0
LINE
8
BLACK
6
CONTINUOUS
10
3.3996
20
-2.37737
11
3.40335
21
-2.3755
0
LINE
8
BLACK
6
CONTINUOUS
10
3.40335
20
-2.3755
11
3.40433
21
-2.37521
0
LINE
8
BLACK
6
CONTINUOUS
10
3.40433
20
-2.37521
11
3.4045
21
-2.37525
0
LINE
8
BLACK
6
CONTINUOUS
10
3.4045
20
-2.37525
11
3.40467
21
-2.37519
0
LINE
8
BLACK
6
CONTINUOUS
10
3.40467
20
-2.37519
11
3.41592
21
-2.37519
0
LINE
8
BLACK
6
CONTINUOUS
10
3.41592
20
-2.37519
11
3.41693
21
-2.37537
0
LINE
8
BLACK
6
CONTINUOUS
10
3.40267
20
-2.38244
11
3.40147
21
-2.38364
0
LINE
8
BLACK
6
CONTINUOUS
10
3.40147
20
-2.38364
11
3.40012
21
-2.38634
0
LINE
8
BLACK
6
CONTINUOUS
10
3.40012
20
-2.38634
11
3.40012
21
-2.39244
0
LINE
8
BLACK
6
CONTINUOUS
10
3.40012
20
-2.39244
11
3.40087
21
-2.39394
0
LINE
8
BLACK
6
CONTINUOUS
10
3.40087
20
-2.39394
11
3.41972
21
-2.39394
0
LINE
8
BLACK
6
CONTINUOUS
10
3.41972
20
-2.39394
11
3.42047
21
-2.39244
0
LINE
8
BLACK
6
CONTINUOUS
10
3.42047
20
-2.39244
11
3.42047
21
-2.38634
0
LINE
8
BLACK
6
CONTINUOUS
10
3.42047
20
-2.38634
11
3.41912
21
-2.38364
0
LINE
8
BLACK
6
CONTINUOUS
10
3.41912
20
-2.38364
11
3.41792
21
-2.38244
0
LINE
8
BLACK
6
CONTINUOUS
10
3.41792
20
-2.38244
11
3.41522
21
-2.38109
0
LINE
8
BLACK
6
CONTINUOUS
10
3.41522
20
-2.38109
11
3.40537
21
-2.38109
0
LINE
8
BLACK
6
CONTINUOUS
10
3.40537
20
-2.38109
11
3.40267
21
-2.38244
0
LINE
8
BLACK
6
CONTINUOUS
10
3.41693
20
-2.33974
11
3.41706
21
-2.33986
0
LINE
8
BLACK
6
CONTINUOUS
10
3.41706
20
-2.33986
11
3.41724
21
-2.33988
0
LINE
8
BLACK
6
CONTINUOUS
10
3.41724
20
-2.33988
11
3.42099
21
-2.34175
0
LINE
8
BLACK
6
CONTINUOUS
10
3.42099
20
-2.34175
11
3.4217
21
-2.34228
0
LINE
8
BLACK
6
CONTINUOUS
10
3.4217
20
-2.34228
11
3.42176
21
-2.34231
0
LINE
8
BLACK
6
CONTINUOUS
10
3.42176
20
-2.34231
11
3.42363
21
-2.34418
0
LINE
8
BLACK
6
CONTINUOUS
10
3.42363
20
-2.34418
11
3.42414
21
-2.3449
0
LINE
8
BLACK
6
CONTINUOUS
10
3.42414
20
-2.3449
11
3.42418
21
-2.34495
0
LINE
8
BLACK
6
CONTINUOUS
10
3.42418
20
-2.34495
11
3.42606
21
-2.3487
0
LINE
8
BLACK
6
CONTINUOUS
10
3.42606
20
-2.3487
11
3.42635
21
-2.34968
0
LINE
8
BLACK
6
CONTINUOUS
10
3.42635
20
-2.34968
11
3.42631
21
-2.34985
0
LINE
8
BLACK
6
CONTINUOUS
10
3.42631
20
-2.34985
11
3.42637
21
-2.35002
0
LINE
8
BLACK
6
CONTINUOUS
10
3.42637
20
-2.35002
11
3.42637
21
-2.35752
0
LINE
8
BLACK
6
CONTINUOUS
10
3.42637
20
-2.35752
11
3.42619
21
-2.35853
0
LINE
8
BLACK
6
CONTINUOUS
10
3.42619
20
-2.35853
11
3.42608
21
-2.35866
0
LINE
8
BLACK
6
CONTINUOUS
10
3.42608
20
-2.35866
11
3.42606
21
-2.35884
0
LINE
8
BLACK
6
CONTINUOUS
10
3.42606
20
-2.35884
11
3.4257
21
-2.35956
0
LINE
8
BLACK
6
CONTINUOUS
10
3.4257
20
-2.35956
11
3.42598
21
-2.35979
0
LINE
8
BLACK
6
CONTINUOUS
10
3.42598
20
-2.35979
11
3.42633
21
-2.36178
0
LINE
8
BLACK
6
CONTINUOUS
10
3.42633
20
-2.36178
11
3.42532
21
-2.36353
0
LINE
8
BLACK
6
CONTINUOUS
10
3.42532
20
-2.36353
11
3.42342
21
-2.36422
0
LINE
8
BLACK
6
CONTINUOUS
10
3.42342
20
-2.36422
11
3.38405
21
-2.36422
0
LINE
8
BLACK
6
CONTINUOUS
10
3.38405
20
-2.36422
11
3.38304
21
-2.36404
0
LINE
8
BLACK
6
CONTINUOUS
10
3.38304
20
-2.36404
11
3.38149
21
-2.36274
0
LINE
8
BLACK
6
CONTINUOUS
10
3.38149
20
-2.36274
11
3.38114
21
-2.36075
0
LINE
8
BLACK
6
CONTINUOUS
10
3.38114
20
-2.36075
11
3.38215
21
-2.35901
0
LINE
8
BLACK
6
CONTINUOUS
10
3.38215
20
-2.35901
11
3.38405
21
-2.35831
0
LINE
8
BLACK
6
CONTINUOUS
10
3.38405
20
-2.35831
11
3.39437
21
-2.35831
0
LINE
8
BLACK
6
CONTINUOUS
10
3.39437
20
-2.35831
11
3.39424
21
-2.35786
0
LINE
8
BLACK
6
CONTINUOUS
10
3.39424
20
-2.35786
11
3.39428
21
-2.35768
0
LINE
8
BLACK
6
CONTINUOUS
10
3.39428
20
-2.35768
11
3.39422
21
-2.35752
0
LINE
8
BLACK
6
CONTINUOUS
10
3.39422
20
-2.35752
11
3.39422
21
-2.35002
0
LINE
8
BLACK
6
CONTINUOUS
10
3.39422
20
-2.35002
11
3.3944
21
-2.34901
0
LINE
8
BLACK
6
CONTINUOUS
10
3.3944
20
-2.34901
11
3.39451
21
-2.34887
0
LINE
8
BLACK
6
CONTINUOUS
10
3.39451
20
-2.34887
11
3.39453
21
-2.3487
0
LINE
8
BLACK
6
CONTINUOUS
10
3.39453
20
-2.3487
11
3.39641
21
-2.34495
0
LINE
8
BLACK
6
CONTINUOUS
10
3.39641
20
-2.34495
11
3.39693
21
-2.34424
0
LINE
8
BLACK
6
CONTINUOUS
10
3.39693
20
-2.34424
11
3.39696
21
-2.34418
0
LINE
8
BLACK
6
CONTINUOUS
10
3.39696
20
-2.34418
11
3.39883
21
-2.34231
0
LINE
8
BLACK
6
CONTINUOUS
10
3.39883
20
-2.34231
11
3.39956
21
-2.3418
0
LINE
8
BLACK
6
CONTINUOUS
10
3.39956
20
-2.3418
11
3.3996
21
-2.34175
0
LINE
8
BLACK
6
CONTINUOUS
10
3.3996
20
-2.34175
11
3.40335
21
-2.33988
0
LINE
8
BLACK
6
CONTINUOUS
10
3.40335
20
-2.33988
11
3.40433
21
-2.33959
0
LINE
8
BLACK
6
CONTINUOUS
10
3.40433
20
-2.33959
11
3.4045
21
-2.33963
0
LINE
8
BLACK
6
CONTINUOUS
10
3.4045
20
-2.33963
11
3.40467
21
-2.33957
0
LINE
8
BLACK
6
CONTINUOUS
10
3.40467
20
-2.33957
11
3.41592
21
-2.33957
0
LINE
8
BLACK
6
CONTINUOUS
10
3.41592
20
-2.33957
11
3.41693
21
-2.33974
0
LINE
8
BLACK
6
CONTINUOUS
10
3.40267
20
-2.34682
11
3.40147
21
-2.34802
0
LINE
8
BLACK
6
CONTINUOUS
10
3.40147
20
-2.34802
11
3.40012
21
-2.35072
0
LINE
8
BLACK
6
CONTINUOUS
10
3.40012
20
-2.35072
11
3.40012
21
-2.35682
0
LINE
8
BLACK
6
CONTINUOUS
10
3.40012
20
-2.35682
11
3.40087
21
-2.35831
0
LINE
8
BLACK
6
CONTINUOUS
10
3.40087
20
-2.35831
11
3.41972
21
-2.35831
0
LINE
8
BLACK
6
CONTINUOUS
10
3.41972
20
-2.35831
11
3.42047
21
-2.35682
0
LINE
8
BLACK
6
CONTINUOUS
10
3.42047
20
-2.35682
11
3.42047
21
-2.35072
0
LINE
8
BLACK
6
CONTINUOUS
10
3.42047
20
-2.35072
11
3.41912
21
-2.34802
0
LINE
8
BLACK
6
CONTINUOUS
10
3.41912
20
-2.34802
11
3.41792
21
-2.34682
0
LINE
8
BLACK
6
CONTINUOUS
10
3.41792
20
-2.34682
11
3.41522
21
-2.34547
0
LINE
8
BLACK
6
CONTINUOUS
10
3.41522
20
-2.34547
11
3.40537
21
-2.34547
0
LINE
8
BLACK
6
CONTINUOUS
10
3.40537
20
-2.34547
11
3.40267
21
-2.34682
0
LINE
8
BLACK
6
CONTINUOUS
10
3.38642
20
-2.32094
11
3.38669
21
-2.32092
0
LINE
8
BLACK
6
CONTINUOUS
10
3.38669
20
-2.32092
11
3.38732
21
-2.32136
0
LINE
8
BLACK
6
CONTINUOUS
10
3.38732
20
-2.32136
11
3.38801
21
-2.32168
0
LINE
8
BLACK
6
CONTINUOUS
10
3.38801
20
-2.32168
11
3.38989
21
-2.32356
0
LINE
8
BLACK
6
CONTINUOUS
10
3.38989
20
-2.32356
11
3.39011
21
-2.32388
0
LINE
8
BLACK
6
CONTINUOUS
10
3.39011
20
-2.32388
11
3.39022
21
-2.32395
0
LINE
8
BLACK
6
CONTINUOUS
10
3.39022
20
-2.32395
11
3.39025
21
-2.32408
0
LINE
8
BLACK
6
CONTINUOUS
10
3.39025
20
-2.32408
11
3.39026
21
-2.32409
0
LINE
8
BLACK
6
CONTINUOUS
10
3.39026
20
-2.32409
11
3.39035
21
-2.32417
0
LINE
8
BLACK
6
CONTINUOUS
10
3.39035
20
-2.32417
11
3.39037
21
-2.32425
0
LINE
8
BLACK
6
CONTINUOUS
10
3.39037
20
-2.32425
11
3.39047
21
-2.3244
0
LINE
8
BLACK
6
CONTINUOUS
10
3.39047
20
-2.3244
11
3.39054
21
-2.32516
0
LINE
8
BLACK
6
CONTINUOUS
10
3.39054
20
-2.32516
11
3.39074
21
-2.3259
0
LINE
8
BLACK
6
CONTINUOUS
10
3.39074
20
-2.3259
11
3.39068
21
-2.32603
0
LINE
8
BLACK
6
CONTINUOUS
10
3.39068
20
-2.32603
11
3.39071
21
-2.32616
0
LINE
8
BLACK
6
CONTINUOUS
10
3.39071
20
-2.32616
11
3.39064
21
-2.32628
0
LINE
8
BLACK
6
CONTINUOUS
10
3.39064
20
-2.32628
11
3.39065
21
-2.32641
0
LINE
8
BLACK
6
CONTINUOUS
10
3.39065
20
-2.32641
11
3.39021
21
-2.32704
0
LINE
8
BLACK
6
CONTINUOUS
10
3.39021
20
-2.32704
11
3.38989
21
-2.32773
0
LINE
8
BLACK
6
CONTINUOUS
10
3.38989
20
-2.32773
11
3.38801
21
-2.32961
0
LINE
8
BLACK
6
CONTINUOUS
10
3.38801
20
-2.32961
11
3.38769
21
-2.32983
0
LINE
8
BLACK
6
CONTINUOUS
10
3.38769
20
-2.32983
11
3.38762
21
-2.32994
0
LINE
8
BLACK
6
CONTINUOUS
10
3.38762
20
-2.32994
11
3.38749
21
-2.32997
0
LINE
8
BLACK
6
CONTINUOUS
10
3.38749
20
-2.32997
11
3.38717
21
-2.3302
0
LINE
8
BLACK
6
CONTINUOUS
10
3.38717
20
-2.3302
11
3.38641
21
-2.33026
0
LINE
8
BLACK
6
CONTINUOUS
10
3.38641
20
-2.33026
11
3.38567
21
-2.33046
0
LINE
8
BLACK
6
CONTINUOUS
10
3.38567
20
-2.33046
11
3.38542
21
-2.33035
0
LINE
8
BLACK
6
CONTINUOUS
10
3.38542
20
-2.33035
11
3.38516
21
-2.33037
0
LINE
8
BLACK
6
CONTINUOUS
10
3.38516
20
-2.33037
11
3.38453
21
-2.32993
0
LINE
8
BLACK
6
CONTINUOUS
10
3.38453
20
-2.32993
11
3.38383
21
-2.32961
0
LINE
8
BLACK
6
CONTINUOUS
10
3.38383
20
-2.32961
11
3.38196
21
-2.32773
0
LINE
8
BLACK
6
CONTINUOUS
10
3.38196
20
-2.32773
11
3.38174
21
-2.32742
0
LINE
8
BLACK
6
CONTINUOUS
10
3.38174
20
-2.32742
11
3.38163
21
-2.32734
0
LINE
8
BLACK
6
CONTINUOUS
10
3.38163
20
-2.32734
11
3.3816
21
-2.32721
0
LINE
8
BLACK
6
CONTINUOUS
10
3.3816
20
-2.32721
11
3.38159
21
-2.32721
0
LINE
8
BLACK
6
CONTINUOUS
10
3.38159
20
-2.32721
11
3.38149
21
-2.32712
0
LINE
8
BLACK
6
CONTINUOUS
10
3.38149
20
-2.32712
11
3.38148
21
-2.32704
0
LINE
8
BLACK
6
CONTINUOUS
10
3.38148
20
-2.32704
11
3.38137
21
-2.32689
0
LINE
8
BLACK
6
CONTINUOUS
10
3.38137
20
-2.32689
11
3.3813
21
-2.32613
0
LINE
8
BLACK
6
CONTINUOUS
10
3.3813
20
-2.32613
11
3.38111
21
-2.32539
0
LINE
8
BLACK
6
CONTINUOUS
10
3.38111
20
-2.32539
11
3.38116
21
-2.32527
0
LINE
8
BLACK
6
CONTINUOUS
10
3.38116
20
-2.32527
11
3.38114
21
-2.32513
0
LINE
8
BLACK
6
CONTINUOUS
10
3.38114
20
-2.32513
11
3.38121
21
-2.32502
0
LINE
8
BLACK
6
CONTINUOUS
10
3.38121
20
-2.32502
11
3.3812
21
-2.32488
0
LINE
8
BLACK
6
CONTINUOUS
10
3.3812
20
-2.32488
11
3.38164
21
-2.32425
0
LINE
8
BLACK
6
CONTINUOUS
10
3.38164
20
-2.32425
11
3.38196
21
-2.32356
0
LINE
8
BLACK
6
CONTINUOUS
10
3.38196
20
-2.32356
11
3.38383
21
-2.32168
0
LINE
8
BLACK
6
CONTINUOUS
10
3.38383
20
-2.32168
11
3.38415
21
-2.32146
0
LINE
8
BLACK
6
CONTINUOUS
10
3.38415
20
-2.32146
11
3.38423
21
-2.32135
0
LINE
8
BLACK
6
CONTINUOUS
10
3.38423
20
-2.32135
11
3.38436
21
-2.32132
0
LINE
8
BLACK
6
CONTINUOUS
10
3.38436
20
-2.32132
11
3.38467
21
-2.3211
0
LINE
8
BLACK
6
CONTINUOUS
10
3.38467
20
-2.3211
11
3.38544
21
-2.32103
0
LINE
8
BLACK
6
CONTINUOUS
10
3.38544
20
-2.32103
11
3.38618
21
-2.32083
0
LINE
8
BLACK
6
CONTINUOUS
10
3.38618
20
-2.32083
11
3.38642
21
-2.32094
0
LINE
8
BLACK
6
CONTINUOUS
10
3.42443
20
-2.32287
11
3.42598
21
-2.32417
0
LINE
8
BLACK
6
CONTINUOUS
10
3.42598
20
-2.32417
11
3.42633
21
-2.32616
0
LINE
8
BLACK
6
CONTINUOUS
10
3.42633
20
-2.32616
11
3.42532
21
-2.32791
0
LINE
8
BLACK
6
CONTINUOUS
10
3.42532
20
-2.32791
11
3.42342
21
-2.3286
0
LINE
8
BLACK
6
CONTINUOUS
10
3.42342
20
-2.3286
11
3.39717
21
-2.3286
0
LINE
8
BLACK
6
CONTINUOUS
10
3.39717
20
-2.3286
11
3.39616
21
-2.32842
0
LINE
8
BLACK
6
CONTINUOUS
10
3.39616
20
-2.32842
11
3.39461
21
-2.32712
0
LINE
8
BLACK
6
CONTINUOUS
10
3.39461
20
-2.32712
11
3.39426
21
-2.32513
0
LINE
8
BLACK
6
CONTINUOUS
10
3.39426
20
-2.32513
11
3.39527
21
-2.32338
0
LINE
8
BLACK
6
CONTINUOUS
10
3.39527
20
-2.32338
11
3.39717
21
-2.32269
0
LINE
8
BLACK
6
CONTINUOUS
10
3.39717
20
-2.32269
11
3.42342
21
-2.32269
0
LINE
8
BLACK
6
CONTINUOUS
10
3.42342
20
-2.32269
11
3.42443
21
-2.32287
0
LINE
8
BLACK
6
CONTINUOUS
10
3.42443
20
-2.27038
11
3.42598
21
-2.27168
0
LINE
8
BLACK
6
CONTINUOUS
10
3.42598
20
-2.27168
11
3.42633
21
-2.27367
0
LINE
8
BLACK
6
CONTINUOUS
10
3.42633
20
-2.27367
11
3.42532
21
-2.27542
0
LINE
8
BLACK
6
CONTINUOUS
10
3.42532
20
-2.27542
11
3.42342
21
-2.27611
0
LINE
8
BLACK
6
CONTINUOUS
10
3.42342
20
-2.27611
11
3.40214
21
-2.27611
0
LINE
8
BLACK
6
CONTINUOUS
10
3.40214
20
-2.27611
11
3.40147
21
-2.27678
0
LINE
8
BLACK
6
CONTINUOUS
10
3.40147
20
-2.27678
11
3.40012
21
-2.27947
0
LINE
8
BLACK
6
CONTINUOUS
10
3.40012
20
-2.27947
11
3.40012
21
-2.2837
0
LINE
8
BLACK
6
CONTINUOUS
10
3.40012
20
-2.2837
11
3.40125
21
-2.28595
0
LINE
8
BLACK
6
CONTINUOUS
10
3.40125
20
-2.28595
11
3.40349
21
-2.28707
0
LINE
8
BLACK
6
CONTINUOUS
10
3.40349
20
-2.28707
11
3.42342
21
-2.28707
0
LINE
8
BLACK
6
CONTINUOUS
10
3.42342
20
-2.28707
11
3.42443
21
-2.28725
0
LINE
8
BLACK
6
CONTINUOUS
10
3.42443
20
-2.28725
11
3.42598
21
-2.28855
0
LINE
8
BLACK
6
CONTINUOUS
10
3.42598
20
-2.28855
11
3.42633
21
-2.29054
0
LINE
8
BLACK
6
CONTINUOUS
10
3.42633
20
-2.29054
11
3.42532
21
-2.29229
0
LINE
8
BLACK
6
CONTINUOUS
10
3.42532
20
-2.29229
11
3.42342
21
-2.29298
0
LINE
8
BLACK
6
CONTINUOUS
10
3.42342
20
-2.29298
11
3.40349
21
-2.29298
0
LINE
8
BLACK
6
CONTINUOUS
10
3.40349
20
-2.29298
11
3.40125
21
-2.2941
0
LINE
8
BLACK
6
CONTINUOUS
10
3.40125
20
-2.2941
11
3.40012
21
-2.29635
0
LINE
8
BLACK
6
CONTINUOUS
10
3.40012
20
-2.29635
11
3.40012
21
-2.30058
0
LINE
8
BLACK
6
CONTINUOUS
10
3.40012
20
-2.30058
11
3.40125
21
-2.30282
0
LINE
8
BLACK
6
CONTINUOUS
10
3.40125
20
-2.30282
11
3.40349
21
-2.30395
0
LINE
8
BLACK
6
CONTINUOUS
10
3.40349
20
-2.30395
11
3.42342
21
-2.30395
0
LINE
8
BLACK
6
CONTINUOUS
10
3.42342
20
-2.30395
11
3.42443
21
-2.30412
0
LINE
8
BLACK
6
CONTINUOUS
10
3.42443
20
-2.30412
11
3.42598
21
-2.30542
0
LINE
8
BLACK
6
CONTINUOUS
10
3.42598
20
-2.30542
11
3.42633
21
-2.30741
0
LINE
8
BLACK
6
CONTINUOUS
10
3.42633
20
-2.30741
11
3.42532
21
-2.30916
0
LINE
8
BLACK
6
CONTINUOUS
10
3.42532
20
-2.30916
11
3.42342
21
-2.30985
0
LINE
8
BLACK
6
CONTINUOUS
10
3.42342
20
-2.30985
11
3.4028
21
-2.30985
0
LINE
8
BLACK
6
CONTINUOUS
10
3.4028
20
-2.30985
11
3.40179
21
-2.30967
0
LINE
8
BLACK
6
CONTINUOUS
10
3.40179
20
-2.30967
11
3.40165
21
-2.30956
0
LINE
8
BLACK
6
CONTINUOUS
10
3.40165
20
-2.30956
11
3.40148
21
-2.30954
0
LINE
8
BLACK
6
CONTINUOUS
10
3.40148
20
-2.30954
11
3.39773
21
-2.30767
0
LINE
8
BLACK
6
CONTINUOUS
10
3.39773
20
-2.30767
11
3.3969
21
-2.30705
0
LINE
8
BLACK
6
CONTINUOUS
10
3.3969
20
-2.30705
11
3.39673
21
-2.30665
0
LINE
8
BLACK
6
CONTINUOUS
10
3.39673
20
-2.30665
11
3.39641
21
-2.30634
0
LINE
8
BLACK
6
CONTINUOUS
10
3.39641
20
-2.30634
11
3.39453
21
-2.3026
0
LINE
8
BLACK
6
CONTINUOUS
10
3.39453
20
-2.3026
11
3.39424
21
-2.30161
0
LINE
8
BLACK
6
CONTINUOUS
10
3.39424
20
-2.30161
11
3.39428
21
-2.30144
0
LINE
8
BLACK
6
CONTINUOUS
10
3.39428
20
-2.30144
11
3.39422
21
-2.30127
0
LINE
8
BLACK
6
CONTINUOUS
10
3.39422
20
-2.30127
11
3.39422
21
-2.29565
0
LINE
8
BLACK
6
CONTINUOUS
10
3.39422
20
-2.29565
11
3.3944
21
-2.29464
0
LINE
8
BLACK
6
CONTINUOUS
10
3.3944
20
-2.29464
11
3.39451
21
-2.29451
0
LINE
8
BLACK
6
CONTINUOUS
10
3.39451
20
-2.29451
11
3.39453
21
-2.29433
0
LINE
8
BLACK
6
CONTINUOUS
10
3.39453
20
-2.29433
11
3.39641
21
-2.29058
0
LINE
8
BLACK
6
CONTINUOUS
10
3.39641
20
-2.29058
11
3.39683
21
-2.29001
0
LINE
8
BLACK
6
CONTINUOUS
10
3.39683
20
-2.29001
11
3.39673
21
-2.28978
0
LINE
8
BLACK
6
CONTINUOUS
10
3.39673
20
-2.28978
11
3.39641
21
-2.28947
0
LINE
8
BLACK
6
CONTINUOUS
10
3.39641
20
-2.28947
11
3.39453
21
-2.28572
0
LINE
8
BLACK
6
CONTINUOUS
10
3.39453
20
-2.28572
11
3.39424
21
-2.28474
0
LINE
8
BLACK
6
CONTINUOUS
10
3.39424
20
-2.28474
11
3.39428
21
-2.28457
0
LINE
8
BLACK
6
CONTINUOUS
10
3.39428
20
-2.28457
11
3.39422
21
-2.2844
0
LINE
8
BLACK
6
CONTINUOUS
10
3.39422
20
-2.2844
11
3.39422
21
-2.27878
0
LINE
8
BLACK
6
CONTINUOUS
10
3.39422
20
-2.27878
11
3.3944
21
-2.27777
0
LINE
8
BLACK
6
CONTINUOUS
10
3.3944
20
-2.27777
11
3.39451
21
-2.27763
0
LINE
8
BLACK
6
CONTINUOUS
10
3.39451
20
-2.27763
11
3.39453
21
-2.27746
0
LINE
8
BLACK
6
CONTINUOUS
10
3.39453
20
-2.27746
11
3.39555
21
-2.27542
0
LINE
8
BLACK
6
CONTINUOUS
10
3.39555
20
-2.27542
11
3.39461
21
-2.27463
0
LINE
8
BLACK
6
CONTINUOUS
10
3.39461
20
-2.27463
11
3.39426
21
-2.27264
0
LINE
8
BLACK
6
CONTINUOUS
10
3.39426
20
-2.27264
11
3.39527
21
-2.27089
0
LINE
8
BLACK
6
CONTINUOUS
10
3.39527
20
-2.27089
11
3.39717
21
-2.2702
0
LINE
8
BLACK
6
CONTINUOUS
10
3.39717
20
-2.2702
11
3.42342
21
-2.2702
0
LINE
8
BLACK
6
CONTINUOUS
10
3.42342
20
-2.2702
11
3.42443
21
-2.27038
  0
ENDSEC
  0
EOF
