  0
SECTION
  2
HEADER
  9
$ANGBASE
  50
0.0
  9
$ANGDIR
  70
1
  9
$MEASUREMENT
  70
0
  0
ENDSEC
  0
SECTION
  2
TABLES
  0
TABLE
  2
LTYPE
  70
4
  0
LTYPE
  5
40F
  2
CONTINUOUS
  70
0
  3
Solid line
  72
65
  73
0
  40
0.0
  0
LTYPE
  5
410
  2
DASHDOT
 70
0
  3
Dash Dot ____ _ ____ _
 72
65
 73
4
 40
2.0
 49
1.25
 49
-0.25
 49
0.25
 49
-0.25
  0
LTYPE
  5
411
  2
DASHED
 70
0
  3
Dashed __ __ __ __ __
 72
65
 73
2
 40
0.75
 49
0.5
 49
-0.25
  0
LTYPE
  5
43B
  2
DOTTED
 70
0
  3
Dotted .  .  .  .
 72
65
 73
2
 40
0.2
 49
0.0
 49
-0.2
  0
ENDTAB
  0
TABLE
  2
STYLE
  70
4
  0
STYLE
  2
KICAD
  70
0
  40
0
  41
1
  42
1
  50
0
  71
0
  3
isocp.shx
  0
STYLE
  2
KICADB
  70
0
  40
0
  41
1
  42
1
  50
0
  71
0
  3
isocp.shx
  0
STYLE
  2
KICADI
  70
0
  40
0
  41
1
  42
1
  50
15
  71
0
  3
isocp.shx
  0
STYLE
  2
KICADBI
  70
0
  40
0
  41
1
  42
1
  50
15
  71
0
  3
isocp.shx
  0
ENDTAB
  0
TABLE
  2
LAYER
  70
1
  0
LAYER
  2
BLACK
  70
0
  62
7
  6
CONTINUOUS
  0
ENDTAB
  0
ENDSEC
  0
SECTION
  2
ENTITIES
0
LINE
8
BLACK
6
CONTINUOUS
10
2.76776
20
-2.71425
11
2.77521
21
-2.71714
0
LINE
8
BLACK
6
CONTINUOUS
10
2.77521
20
-2.71714
11
2.782
21
-2.72135
0
LINE
8
BLACK
6
CONTINUOUS
10
2.782
20
-2.72135
11
2.78791
21
-2.72673
0
LINE
8
BLACK
6
CONTINUOUS
10
2.78791
20
-2.72673
11
2.79273
21
-2.73311
0
LINE
8
BLACK
6
CONTINUOUS
10
2.79273
20
-2.73311
11
2.79629
21
-2.74026
0
LINE
8
BLACK
6
CONTINUOUS
10
2.79629
20
-2.74026
11
2.79848
21
-2.74795
0
LINE
8
BLACK
6
CONTINUOUS
10
2.79848
20
-2.74795
11
2.79921
21
-2.75591
0
LINE
8
BLACK
6
CONTINUOUS
10
2.79921
20
-2.75591
11
2.79848
21
-2.76386
0
LINE
8
BLACK
6
CONTINUOUS
10
2.79848
20
-2.76386
11
2.79629
21
-2.77155
0
LINE
8
BLACK
6
CONTINUOUS
10
2.79629
20
-2.77155
11
2.79273
21
-2.7787
0
LINE
8
BLACK
6
CONTINUOUS
10
2.79273
20
-2.7787
11
2.78791
21
-2.78508
0
LINE
8
BLACK
6
CONTINUOUS
10
2.78791
20
-2.78508
11
2.782
21
-2.79047
0
LINE
8
BLACK
6
CONTINUOUS
10
2.782
20
-2.79047
11
2.77521
21
-2.79467
0
LINE
8
BLACK
6
CONTINUOUS
10
2.77521
20
-2.79467
11
2.76776
21
-2.79756
0
LINE
8
BLACK
6
CONTINUOUS
10
2.76776
20
-2.79756
11
2.7599
21
-2.79903
0
LINE
8
BLACK
6
CONTINUOUS
10
2.7599
20
-2.79903
11
2.75191
21
-2.79903
0
LINE
8
BLACK
6
CONTINUOUS
10
2.75191
20
-2.79903
11
2.74405
21
-2.79756
0
LINE
8
BLACK
6
CONTINUOUS
10
2.74405
20
-2.79756
11
2.7366
21
-2.79467
0
LINE
8
BLACK
6
CONTINUOUS
10
2.7366
20
-2.79467
11
2.72981
21
-2.79047
0
LINE
8
BLACK
6
CONTINUOUS
10
2.72981
20
-2.79047
11
2.7239
21
-2.78508
0
LINE
8
BLACK
6
CONTINUOUS
10
2.7239
20
-2.78508
11
2.71909
21
-2.7787
0
LINE
8
BLACK
6
CONTINUOUS
10
2.71909
20
-2.7787
11
2.71552
21
-2.77155
0
LINE
8
BLACK
6
CONTINUOUS
10
2.71552
20
-2.77155
11
2.71334
21
-2.76386
0
LINE
8
BLACK
6
CONTINUOUS
10
2.71334
20
-2.76386
11
2.7126
21
-2.75591
0
LINE
8
BLACK
6
CONTINUOUS
10
2.7126
20
-2.75591
11
2.71334
21
-2.74795
0
LINE
8
BLACK
6
CONTINUOUS
10
2.71334
20
-2.74795
11
2.71552
21
-2.74026
0
LINE
8
BLACK
6
CONTINUOUS
10
2.71552
20
-2.74026
11
2.71909
21
-2.73311
0
LINE
8
BLACK
6
CONTINUOUS
10
2.71909
20
-2.73311
11
2.7239
21
-2.72673
0
LINE
8
BLACK
6
CONTINUOUS
10
2.7239
20
-2.72673
11
2.72981
21
-2.72135
0
LINE
8
BLACK
6
CONTINUOUS
10
2.72981
20
-2.72135
11
2.7366
21
-2.71714
0
LINE
8
BLACK
6
CONTINUOUS
10
2.7366
20
-2.71714
11
2.74405
21
-2.71425
0
LINE
8
BLACK
6
CONTINUOUS
10
2.74405
20
-2.71425
11
2.75191
21
-2.71278
0
LINE
8
BLACK
6
CONTINUOUS
10
2.75191
20
-2.71278
11
2.7599
21
-2.71278
0
LINE
8
BLACK
6
CONTINUOUS
10
2.7599
20
-2.71278
11
2.76776
21
-2.71425
0
LINE
8
BLACK
6
CONTINUOUS
10
3.14363
20
-2.76211
11
3.14491
21
-2.76296
0
LINE
8
BLACK
6
CONTINUOUS
10
3.14491
20
-2.76296
11
3.14576
21
-2.76424
0
LINE
8
BLACK
6
CONTINUOUS
10
3.14576
20
-2.76424
11
3.14606
21
-2.76575
0
LINE
8
BLACK
6
CONTINUOUS
10
3.14606
20
-2.76575
11
3.14606
21
-2.77362
0
LINE
8
BLACK
6
CONTINUOUS
10
3.14606
20
-2.77362
11
3.14576
21
-2.77513
0
LINE
8
BLACK
6
CONTINUOUS
10
3.14576
20
-2.77513
11
3.14491
21
-2.77641
0
LINE
8
BLACK
6
CONTINUOUS
10
3.14491
20
-2.77641
11
3.14363
21
-2.77726
0
LINE
8
BLACK
6
CONTINUOUS
10
3.14363
20
-2.77726
11
3.14213
21
-2.77756
0
LINE
8
BLACK
6
CONTINUOUS
10
3.14213
20
-2.77756
11
3.125
21
-2.77756
0
LINE
8
BLACK
6
CONTINUOUS
10
3.125
20
-2.77756
11
3.12349
21
-2.77726
0
LINE
8
BLACK
6
CONTINUOUS
10
3.12349
20
-2.77726
11
3.12222
21
-2.77641
0
LINE
8
BLACK
6
CONTINUOUS
10
3.12222
20
-2.77641
11
3.12136
21
-2.77513
0
LINE
8
BLACK
6
CONTINUOUS
10
3.12136
20
-2.77513
11
3.12106
21
-2.77362
0
LINE
8
BLACK
6
CONTINUOUS
10
3.12106
20
-2.77362
11
3.12106
21
-2.76575
0
LINE
8
BLACK
6
CONTINUOUS
10
3.12106
20
-2.76575
11
3.12136
21
-2.76424
0
LINE
8
BLACK
6
CONTINUOUS
10
3.12136
20
-2.76424
11
3.12222
21
-2.76296
0
LINE
8
BLACK
6
CONTINUOUS
10
3.12222
20
-2.76296
11
3.12349
21
-2.76211
0
LINE
8
BLACK
6
CONTINUOUS
10
3.12349
20
-2.76211
11
3.125
21
-2.76181
0
LINE
8
BLACK
6
CONTINUOUS
10
3.125
20
-2.76181
11
3.14213
21
-2.76181
0
LINE
8
BLACK
6
CONTINUOUS
10
3.14213
20
-2.76181
11
3.14363
21
-2.76211
0
LINE
8
BLACK
6
CONTINUOUS
10
3.17572
20
-2.76211
11
3.177
21
-2.76296
0
LINE
8
BLACK
6
CONTINUOUS
10
3.177
20
-2.76296
11
3.17785
21
-2.76424
0
LINE
8
BLACK
6
CONTINUOUS
10
3.17785
20
-2.76424
11
3.17815
21
-2.76575
0
LINE
8
BLACK
6
CONTINUOUS
10
3.17815
20
-2.76575
11
3.17815
21
-2.77362
0
LINE
8
BLACK
6
CONTINUOUS
10
3.17815
20
-2.77362
11
3.17785
21
-2.77513
0
LINE
8
BLACK
6
CONTINUOUS
10
3.17785
20
-2.77513
11
3.177
21
-2.77641
0
LINE
8
BLACK
6
CONTINUOUS
10
3.177
20
-2.77641
11
3.17572
21
-2.77726
0
LINE
8
BLACK
6
CONTINUOUS
10
3.17572
20
-2.77726
11
3.17421
21
-2.77756
0
LINE
8
BLACK
6
CONTINUOUS
10
3.17421
20
-2.77756
11
3.15709
21
-2.77756
0
LINE
8
BLACK
6
CONTINUOUS
10
3.15709
20
-2.77756
11
3.15558
21
-2.77726
0
LINE
8
BLACK
6
CONTINUOUS
10
3.15558
20
-2.77726
11
3.1543
21
-2.77641
0
LINE
8
BLACK
6
CONTINUOUS
10
3.1543
20
-2.77641
11
3.15345
21
-2.77513
0
LINE
8
BLACK
6
CONTINUOUS
10
3.15345
20
-2.77513
11
3.15315
21
-2.77362
0
LINE
8
BLACK
6
CONTINUOUS
10
3.15315
20
-2.77362
11
3.15315
21
-2.76575
0
LINE
8
BLACK
6
CONTINUOUS
10
3.15315
20
-2.76575
11
3.15345
21
-2.76424
0
LINE
8
BLACK
6
CONTINUOUS
10
3.15345
20
-2.76424
11
3.1543
21
-2.76296
0
LINE
8
BLACK
6
CONTINUOUS
10
3.1543
20
-2.76296
11
3.15558
21
-2.76211
0
LINE
8
BLACK
6
CONTINUOUS
10
3.15558
20
-2.76211
11
3.15709
21
-2.76181
0
LINE
8
BLACK
6
CONTINUOUS
10
3.15709
20
-2.76181
11
3.17421
21
-2.76181
0
LINE
8
BLACK
6
CONTINUOUS
10
3.17421
20
-2.76181
11
3.17572
21
-2.76211
0
LINE
8
BLACK
6
CONTINUOUS
10
3.14173
20
-2.74409
11
3.12205
21
-2.74409
0
LINE
8
BLACK
6
CONTINUOUS
10
3.12205
20
-2.74409
11
3.12205
21
-2.72441
0
LINE
8
BLACK
6
CONTINUOUS
10
3.12205
20
-2.72441
11
3.14173
21
-2.72441
0
LINE
8
BLACK
6
CONTINUOUS
10
3.14173
20
-2.72441
11
3.14173
21
-2.74409
0
LINE
8
BLACK
6
CONTINUOUS
10
3.17717
20
-2.74409
11
3.15748
21
-2.74409
0
LINE
8
BLACK
6
CONTINUOUS
10
3.15748
20
-2.74409
11
3.15748
21
-2.72441
0
LINE
8
BLACK
6
CONTINUOUS
10
3.15748
20
-2.72441
11
3.17717
21
-2.72441
0
LINE
8
BLACK
6
CONTINUOUS
10
3.17717
20
-2.72441
11
3.17717
21
-2.74409
0
LINE
8
BLACK
6
CONTINUOUS
10
2.95628
20
-2.71201
11
2.97111
21
-2.72058
0
LINE
8
BLACK
6
CONTINUOUS
10
2.97111
20
-2.72058
11
2.97227
21
-2.72159
0
LINE
8
BLACK
6
CONTINUOUS
10
2.97227
20
-2.72159
11
2.97295
21
-2.72297
0
LINE
8
BLACK
6
CONTINUOUS
10
2.97295
20
-2.72297
11
2.97305
21
-2.7245
0
LINE
8
BLACK
6
CONTINUOUS
10
2.97305
20
-2.7245
11
2.97255
21
-2.72596
0
LINE
8
BLACK
6
CONTINUOUS
10
2.97255
20
-2.72596
11
2.96862
21
-2.73277
0
LINE
8
BLACK
6
CONTINUOUS
10
2.96862
20
-2.73277
11
2.9676
21
-2.73393
0
LINE
8
BLACK
6
CONTINUOUS
10
2.9676
20
-2.73393
11
2.96623
21
-2.73461
0
LINE
8
BLACK
6
CONTINUOUS
10
2.96623
20
-2.73461
11
2.96469
21
-2.73471
0
LINE
8
BLACK
6
CONTINUOUS
10
2.96469
20
-2.73471
11
2.96324
21
-2.73422
0
LINE
8
BLACK
6
CONTINUOUS
10
2.96324
20
-2.73422
11
2.94841
21
-2.72565
0
LINE
8
BLACK
6
CONTINUOUS
10
2.94841
20
-2.72565
11
2.94725
21
-2.72464
0
LINE
8
BLACK
6
CONTINUOUS
10
2.94725
20
-2.72464
11
2.94657
21
-2.72326
0
LINE
8
BLACK
6
CONTINUOUS
10
2.94657
20
-2.72326
11
2.94647
21
-2.72173
0
LINE
8
BLACK
6
CONTINUOUS
10
2.94647
20
-2.72173
11
2.94697
21
-2.72027
0
LINE
8
BLACK
6
CONTINUOUS
10
2.94697
20
-2.72027
11
2.9509
21
-2.71346
0
LINE
8
BLACK
6
CONTINUOUS
10
2.9509
20
-2.71346
11
2.95192
21
-2.7123
0
LINE
8
BLACK
6
CONTINUOUS
10
2.95192
20
-2.7123
11
2.95329
21
-2.71162
0
LINE
8
BLACK
6
CONTINUOUS
10
2.95329
20
-2.71162
11
2.95483
21
-2.71152
0
LINE
8
BLACK
6
CONTINUOUS
10
2.95483
20
-2.71152
11
2.95628
21
-2.71201
0
LINE
8
BLACK
6
CONTINUOUS
10
3.34592
20
-2.71162
11
3.3473
21
-2.7123
0
LINE
8
BLACK
6
CONTINUOUS
10
3.3473
20
-2.7123
11
3.34831
21
-2.71346
0
LINE
8
BLACK
6
CONTINUOUS
10
3.34831
20
-2.71346
11
3.35225
21
-2.72027
0
LINE
8
BLACK
6
CONTINUOUS
10
3.35225
20
-2.72027
11
3.35274
21
-2.72173
0
LINE
8
BLACK
6
CONTINUOUS
10
3.35274
20
-2.72173
11
3.35264
21
-2.72326
0
LINE
8
BLACK
6
CONTINUOUS
10
3.35264
20
-2.72326
11
3.35196
21
-2.72464
0
LINE
8
BLACK
6
CONTINUOUS
10
3.35196
20
-2.72464
11
3.35081
21
-2.72565
0
LINE
8
BLACK
6
CONTINUOUS
10
3.35081
20
-2.72565
11
3.33597
21
-2.73422
0
LINE
8
BLACK
6
CONTINUOUS
10
3.33597
20
-2.73422
11
3.33452
21
-2.73471
0
LINE
8
BLACK
6
CONTINUOUS
10
3.33452
20
-2.73471
11
3.33299
21
-2.73461
0
LINE
8
BLACK
6
CONTINUOUS
10
3.33299
20
-2.73461
11
3.33161
21
-2.73393
0
LINE
8
BLACK
6
CONTINUOUS
10
3.33161
20
-2.73393
11
3.3306
21
-2.73277
0
LINE
8
BLACK
6
CONTINUOUS
10
3.3306
20
-2.73277
11
3.32666
21
-2.72596
0
LINE
8
BLACK
6
CONTINUOUS
10
3.32666
20
-2.72596
11
3.32616
21
-2.7245
0
LINE
8
BLACK
6
CONTINUOUS
10
3.32616
20
-2.7245
11
3.32627
21
-2.72297
0
LINE
8
BLACK
6
CONTINUOUS
10
3.32627
20
-2.72297
11
3.32694
21
-2.72159
0
LINE
8
BLACK
6
CONTINUOUS
10
3.32694
20
-2.72159
11
3.3281
21
-2.72058
0
LINE
8
BLACK
6
CONTINUOUS
10
3.3281
20
-2.72058
11
3.34293
21
-2.71201
0
LINE
8
BLACK
6
CONTINUOUS
10
3.34293
20
-2.71201
11
3.34439
21
-2.71152
0
LINE
8
BLACK
6
CONTINUOUS
10
3.34439
20
-2.71152
11
3.34592
21
-2.71162
0
LINE
8
BLACK
6
CONTINUOUS
10
2.92849
20
-2.69597
11
2.94333
21
-2.70453
0
LINE
8
BLACK
6
CONTINUOUS
10
2.94333
20
-2.70453
11
2.94448
21
-2.70555
0
LINE
8
BLACK
6
CONTINUOUS
10
2.94448
20
-2.70555
11
2.94516
21
-2.70692
0
LINE
8
BLACK
6
CONTINUOUS
10
2.94516
20
-2.70692
11
2.94526
21
-2.70846
0
LINE
8
BLACK
6
CONTINUOUS
10
2.94526
20
-2.70846
11
2.94477
21
-2.70991
0
LINE
8
BLACK
6
CONTINUOUS
10
2.94477
20
-2.70991
11
2.94083
21
-2.71673
0
LINE
8
BLACK
6
CONTINUOUS
10
2.94083
20
-2.71673
11
2.93982
21
-2.71789
0
LINE
8
BLACK
6
CONTINUOUS
10
2.93982
20
-2.71789
11
2.93844
21
-2.71857
0
LINE
8
BLACK
6
CONTINUOUS
10
2.93844
20
-2.71857
11
2.93691
21
-2.71867
0
LINE
8
BLACK
6
CONTINUOUS
10
2.93691
20
-2.71867
11
2.93545
21
-2.71817
0
LINE
8
BLACK
6
CONTINUOUS
10
2.93545
20
-2.71817
11
2.92062
21
-2.70961
0
LINE
8
BLACK
6
CONTINUOUS
10
2.92062
20
-2.70961
11
2.91946
21
-2.7086
0
LINE
8
BLACK
6
CONTINUOUS
10
2.91946
20
-2.7086
11
2.91879
21
-2.70722
0
LINE
8
BLACK
6
CONTINUOUS
10
2.91879
20
-2.70722
11
2.91868
21
-2.70569
0
LINE
8
BLACK
6
CONTINUOUS
10
2.91868
20
-2.70569
11
2.91918
21
-2.70423
0
LINE
8
BLACK
6
CONTINUOUS
10
2.91918
20
-2.70423
11
2.92312
21
-2.69741
0
LINE
8
BLACK
6
CONTINUOUS
10
2.92312
20
-2.69741
11
2.92413
21
-2.69626
0
LINE
8
BLACK
6
CONTINUOUS
10
2.92413
20
-2.69626
11
2.92551
21
-2.69558
0
LINE
8
BLACK
6
CONTINUOUS
10
2.92551
20
-2.69558
11
2.92704
21
-2.69548
0
LINE
8
BLACK
6
CONTINUOUS
10
2.92704
20
-2.69548
11
2.92849
21
-2.69597
0
LINE
8
BLACK
6
CONTINUOUS
10
3.37371
20
-2.69558
11
3.37508
21
-2.69626
0
LINE
8
BLACK
6
CONTINUOUS
10
3.37508
20
-2.69626
11
3.3761
21
-2.69741
0
LINE
8
BLACK
6
CONTINUOUS
10
3.3761
20
-2.69741
11
3.38003
21
-2.70423
0
LINE
8
BLACK
6
CONTINUOUS
10
3.38003
20
-2.70423
11
3.38053
21
-2.70569
0
LINE
8
BLACK
6
CONTINUOUS
10
3.38053
20
-2.70569
11
3.38043
21
-2.70722
0
LINE
8
BLACK
6
CONTINUOUS
10
3.38043
20
-2.70722
11
3.37975
21
-2.7086
0
LINE
8
BLACK
6
CONTINUOUS
10
3.37975
20
-2.7086
11
3.37859
21
-2.70961
0
LINE
8
BLACK
6
CONTINUOUS
10
3.37859
20
-2.70961
11
3.36376
21
-2.71817
0
LINE
8
BLACK
6
CONTINUOUS
10
3.36376
20
-2.71817
11
3.36231
21
-2.71867
0
LINE
8
BLACK
6
CONTINUOUS
10
3.36231
20
-2.71867
11
3.36077
21
-2.71857
0
LINE
8
BLACK
6
CONTINUOUS
10
3.36077
20
-2.71857
11
3.3594
21
-2.71789
0
LINE
8
BLACK
6
CONTINUOUS
10
3.3594
20
-2.71789
11
3.35838
21
-2.71673
0
LINE
8
BLACK
6
CONTINUOUS
10
3.35838
20
-2.71673
11
3.35445
21
-2.70991
0
LINE
8
BLACK
6
CONTINUOUS
10
3.35445
20
-2.70991
11
3.35395
21
-2.70846
0
LINE
8
BLACK
6
CONTINUOUS
10
3.35395
20
-2.70846
11
3.35405
21
-2.70692
0
LINE
8
BLACK
6
CONTINUOUS
10
3.35405
20
-2.70692
11
3.35473
21
-2.70555
0
LINE
8
BLACK
6
CONTINUOUS
10
3.35473
20
-2.70555
11
3.35589
21
-2.70453
0
LINE
8
BLACK
6
CONTINUOUS
10
3.35589
20
-2.70453
11
3.37072
21
-2.69597
0
LINE
8
BLACK
6
CONTINUOUS
10
3.37072
20
-2.69597
11
3.37217
21
-2.69548
0
LINE
8
BLACK
6
CONTINUOUS
10
3.37217
20
-2.69548
11
3.37371
21
-2.69558
0
LINE
8
BLACK
6
CONTINUOUS
10
3.14173
20
-2.70866
11
3.12205
21
-2.70866
0
LINE
8
BLACK
6
CONTINUOUS
10
3.12205
20
-2.70866
11
3.12205
21
-2.68898
0
LINE
8
BLACK
6
CONTINUOUS
10
3.12205
20
-2.68898
11
3.14173
21
-2.68898
0
LINE
8
BLACK
6
CONTINUOUS
10
3.14173
20
-2.68898
11
3.14173
21
-2.70866
0
LINE
8
BLACK
6
CONTINUOUS
10
3.17717
20
-2.70866
11
3.15748
21
-2.70866
0
LINE
8
BLACK
6
CONTINUOUS
10
3.15748
20
-2.70866
11
3.15748
21
-2.68898
0
LINE
8
BLACK
6
CONTINUOUS
10
3.15748
20
-2.68898
11
3.17717
21
-2.68898
0
LINE
8
BLACK
6
CONTINUOUS
10
3.17717
20
-2.68898
11
3.17717
21
-2.70866
0
LINE
8
BLACK
6
CONTINUOUS
10
2.99237
20
-2.68966
11
2.98253
21
-2.70671
0
LINE
8
BLACK
6
CONTINUOUS
10
2.98253
20
-2.70671
11
2.96548
21
-2.69687
0
LINE
8
BLACK
6
CONTINUOUS
10
2.96548
20
-2.69687
11
2.97532
21
-2.67982
0
LINE
8
BLACK
6
CONTINUOUS
10
2.97532
20
-2.67982
11
2.99237
21
-2.68966
0
LINE
8
BLACK
6
CONTINUOUS
10
3.33373
20
-2.69687
11
3.31668
21
-2.70671
0
LINE
8
BLACK
6
CONTINUOUS
10
3.31668
20
-2.70671
11
3.30684
21
-2.68966
0
LINE
8
BLACK
6
CONTINUOUS
10
3.30684
20
-2.68966
11
3.32389
21
-2.67982
0
LINE
8
BLACK
6
CONTINUOUS
10
3.32389
20
-2.67982
11
3.33373
21
-2.69687
0
LINE
8
BLACK
6
CONTINUOUS
10
2.96168
20
-2.67195
11
2.95184
21
-2.68899
0
LINE
8
BLACK
6
CONTINUOUS
10
2.95184
20
-2.68899
11
2.93479
21
-2.67915
0
LINE
8
BLACK
6
CONTINUOUS
10
2.93479
20
-2.67915
11
2.94464
21
-2.6621
0
LINE
8
BLACK
6
CONTINUOUS
10
2.94464
20
-2.6621
11
2.96168
21
-2.67195
0
LINE
8
BLACK
6
CONTINUOUS
10
3.36442
20
-2.67915
11
3.34737
21
-2.68899
0
LINE
8
BLACK
6
CONTINUOUS
10
3.34737
20
-2.68899
11
3.33753
21
-2.67195
0
LINE
8
BLACK
6
CONTINUOUS
10
3.33753
20
-2.67195
11
3.35458
21
-2.6621
0
LINE
8
BLACK
6
CONTINUOUS
10
3.35458
20
-2.6621
11
3.36442
21
-2.67915
0
LINE
8
BLACK
6
CONTINUOUS
10
3.01009
20
-2.65898
11
3.00024
21
-2.67602
0
LINE
8
BLACK
6
CONTINUOUS
10
3.00024
20
-2.67602
11
2.9832
21
-2.66618
0
LINE
8
BLACK
6
CONTINUOUS
10
2.9832
20
-2.66618
11
2.99304
21
-2.64913
0
LINE
8
BLACK
6
CONTINUOUS
10
2.99304
20
-2.64913
11
3.01009
21
-2.65898
0
LINE
8
BLACK
6
CONTINUOUS
10
3.31602
20
-2.66618
11
3.29897
21
-2.67602
0
LINE
8
BLACK
6
CONTINUOUS
10
3.29897
20
-2.67602
11
3.28913
21
-2.65898
0
LINE
8
BLACK
6
CONTINUOUS
10
3.28913
20
-2.65898
11
3.30617
21
-2.64913
0
LINE
8
BLACK
6
CONTINUOUS
10
3.30617
20
-2.64913
11
3.31602
21
-2.66618
0
LINE
8
BLACK
6
CONTINUOUS
10
2.9794
20
-2.64126
11
2.96956
21
-2.65831
0
LINE
8
BLACK
6
CONTINUOUS
10
2.96956
20
-2.65831
11
2.95251
21
-2.64847
0
LINE
8
BLACK
6
CONTINUOUS
10
2.95251
20
-2.64847
11
2.96235
21
-2.63142
0
LINE
8
BLACK
6
CONTINUOUS
10
2.96235
20
-2.63142
11
2.9794
21
-2.64126
0
LINE
8
BLACK
6
CONTINUOUS
10
3.3467
20
-2.64847
11
3.32965
21
-2.65831
0
LINE
8
BLACK
6
CONTINUOUS
10
3.32965
20
-2.65831
11
3.31981
21
-2.64126
0
LINE
8
BLACK
6
CONTINUOUS
10
3.31981
20
-2.64126
11
3.33686
21
-2.63142
0
LINE
8
BLACK
6
CONTINUOUS
10
3.33686
20
-2.63142
11
3.3467
21
-2.64847
0
LINE
8
BLACK
6
CONTINUOUS
10
2.80489
20
-2.56665
11
2.80626
21
-2.56733
0
LINE
8
BLACK
6
CONTINUOUS
10
2.80626
20
-2.56733
11
2.80728
21
-2.56849
0
LINE
8
BLACK
6
CONTINUOUS
10
2.80728
20
-2.56849
11
2.81584
21
-2.58332
0
LINE
8
BLACK
6
CONTINUOUS
10
2.81584
20
-2.58332
11
2.81633
21
-2.58477
0
LINE
8
BLACK
6
CONTINUOUS
10
2.81633
20
-2.58477
11
2.81623
21
-2.58631
0
LINE
8
BLACK
6
CONTINUOUS
10
2.81623
20
-2.58631
11
2.81555
21
-2.58768
0
LINE
8
BLACK
6
CONTINUOUS
10
2.81555
20
-2.58768
11
2.8144
21
-2.5887
0
LINE
8
BLACK
6
CONTINUOUS
10
2.8144
20
-2.5887
11
2.80758
21
-2.59263
0
LINE
8
BLACK
6
CONTINUOUS
10
2.80758
20
-2.59263
11
2.80613
21
-2.59313
0
LINE
8
BLACK
6
CONTINUOUS
10
2.80613
20
-2.59313
11
2.80459
21
-2.59303
0
LINE
8
BLACK
6
CONTINUOUS
10
2.80459
20
-2.59303
11
2.80321
21
-2.59235
0
LINE
8
BLACK
6
CONTINUOUS
10
2.80321
20
-2.59235
11
2.8022
21
-2.59119
0
LINE
8
BLACK
6
CONTINUOUS
10
2.8022
20
-2.59119
11
2.79364
21
-2.57636
0
LINE
8
BLACK
6
CONTINUOUS
10
2.79364
20
-2.57636
11
2.79315
21
-2.57491
0
LINE
8
BLACK
6
CONTINUOUS
10
2.79315
20
-2.57491
11
2.79325
21
-2.57337
0
LINE
8
BLACK
6
CONTINUOUS
10
2.79325
20
-2.57337
11
2.79393
21
-2.57199
0
LINE
8
BLACK
6
CONTINUOUS
10
2.79393
20
-2.57199
11
2.79508
21
-2.57098
0
LINE
8
BLACK
6
CONTINUOUS
10
2.79508
20
-2.57098
11
2.8019
21
-2.56704
0
LINE
8
BLACK
6
CONTINUOUS
10
2.8019
20
-2.56704
11
2.80335
21
-2.56655
0
LINE
8
BLACK
6
CONTINUOUS
10
2.80335
20
-2.56655
11
2.80489
21
-2.56665
0
LINE
8
BLACK
6
CONTINUOUS
10
3.50151
20
-2.56016
11
3.50833
21
-2.56409
0
LINE
8
BLACK
6
CONTINUOUS
10
3.50833
20
-2.56409
11
3.50949
21
-2.56511
0
LINE
8
BLACK
6
CONTINUOUS
10
3.50949
20
-2.56511
11
3.51017
21
-2.56648
0
LINE
8
BLACK
6
CONTINUOUS
10
3.51017
20
-2.56648
11
3.51027
21
-2.56802
0
LINE
8
BLACK
6
CONTINUOUS
10
3.51027
20
-2.56802
11
3.50977
21
-2.56947
0
LINE
8
BLACK
6
CONTINUOUS
10
3.50977
20
-2.56947
11
3.50121
21
-2.5843
0
LINE
8
BLACK
6
CONTINUOUS
10
3.50121
20
-2.5843
11
3.5002
21
-2.58546
0
LINE
8
BLACK
6
CONTINUOUS
10
3.5002
20
-2.58546
11
3.49882
21
-2.58614
0
LINE
8
BLACK
6
CONTINUOUS
10
3.49882
20
-2.58614
11
3.49729
21
-2.58624
0
LINE
8
BLACK
6
CONTINUOUS
10
3.49729
20
-2.58624
11
3.49583
21
-2.58574
0
LINE
8
BLACK
6
CONTINUOUS
10
3.49583
20
-2.58574
11
3.48901
21
-2.58181
0
LINE
8
BLACK
6
CONTINUOUS
10
3.48901
20
-2.58181
11
3.48786
21
-2.58079
0
LINE
8
BLACK
6
CONTINUOUS
10
3.48786
20
-2.58079
11
3.48718
21
-2.57942
0
LINE
8
BLACK
6
CONTINUOUS
10
3.48718
20
-2.57942
11
3.48708
21
-2.57788
0
LINE
8
BLACK
6
CONTINUOUS
10
3.48708
20
-2.57788
11
3.48757
21
-2.57643
0
LINE
8
BLACK
6
CONTINUOUS
10
3.48757
20
-2.57643
11
3.49613
21
-2.5616
0
LINE
8
BLACK
6
CONTINUOUS
10
3.49613
20
-2.5616
11
3.49715
21
-2.56044
0
LINE
8
BLACK
6
CONTINUOUS
10
3.49715
20
-2.56044
11
3.49852
21
-2.55976
0
LINE
8
BLACK
6
CONTINUOUS
10
3.49852
20
-2.55976
11
3.50006
21
-2.55966
0
LINE
8
BLACK
6
CONTINUOUS
10
3.50006
20
-2.55966
11
3.50151
21
-2.56016
0
LINE
8
BLACK
6
CONTINUOUS
10
2.84971
20
-2.56717
11
2.83266
21
-2.57702
0
LINE
8
BLACK
6
CONTINUOUS
10
2.83266
20
-2.57702
11
2.82282
21
-2.55997
0
LINE
8
BLACK
6
CONTINUOUS
10
2.82282
20
-2.55997
11
2.83986
21
-2.55013
0
LINE
8
BLACK
6
CONTINUOUS
10
2.83986
20
-2.55013
11
2.84971
21
-2.56717
0
LINE
8
BLACK
6
CONTINUOUS
10
3.4764
20
-2.55997
11
3.46655
21
-2.57702
0
LINE
8
BLACK
6
CONTINUOUS
10
3.46655
20
-2.57702
11
3.44951
21
-2.56717
0
LINE
8
BLACK
6
CONTINUOUS
10
3.44951
20
-2.56717
11
3.45935
21
-2.55013
0
LINE
8
BLACK
6
CONTINUOUS
10
3.45935
20
-2.55013
11
3.4764
21
-2.55997
0
LINE
8
BLACK
6
CONTINUOUS
10
2.78884
20
-2.53886
11
2.79022
21
-2.53954
0
LINE
8
BLACK
6
CONTINUOUS
10
2.79022
20
-2.53954
11
2.79123
21
-2.5407
0
LINE
8
BLACK
6
CONTINUOUS
10
2.79123
20
-2.5407
11
2.7998
21
-2.55553
0
LINE
8
BLACK
6
CONTINUOUS
10
2.7998
20
-2.55553
11
2.80029
21
-2.55698
0
LINE
8
BLACK
6
CONTINUOUS
10
2.80029
20
-2.55698
11
2.80019
21
-2.55852
0
LINE
8
BLACK
6
CONTINUOUS
10
2.80019
20
-2.55852
11
2.79951
21
-2.55989
0
LINE
8
BLACK
6
CONTINUOUS
10
2.79951
20
-2.55989
11
2.79836
21
-2.56091
0
LINE
8
BLACK
6
CONTINUOUS
10
2.79836
20
-2.56091
11
2.79154
21
-2.56484
0
LINE
8
BLACK
6
CONTINUOUS
10
2.79154
20
-2.56484
11
2.79008
21
-2.56534
0
LINE
8
BLACK
6
CONTINUOUS
10
2.79008
20
-2.56534
11
2.78855
21
-2.56524
0
LINE
8
BLACK
6
CONTINUOUS
10
2.78855
20
-2.56524
11
2.78717
21
-2.56456
0
LINE
8
BLACK
6
CONTINUOUS
10
2.78717
20
-2.56456
11
2.78616
21
-2.5634
0
LINE
8
BLACK
6
CONTINUOUS
10
2.78616
20
-2.5634
11
2.7776
21
-2.54857
0
LINE
8
BLACK
6
CONTINUOUS
10
2.7776
20
-2.54857
11
2.7771
21
-2.54712
0
LINE
8
BLACK
6
CONTINUOUS
10
2.7771
20
-2.54712
11
2.7772
21
-2.54558
0
LINE
8
BLACK
6
CONTINUOUS
10
2.7772
20
-2.54558
11
2.77788
21
-2.54421
0
LINE
8
BLACK
6
CONTINUOUS
10
2.77788
20
-2.54421
11
2.77904
21
-2.54319
0
LINE
8
BLACK
6
CONTINUOUS
10
2.77904
20
-2.54319
11
2.78586
21
-2.53926
0
LINE
8
BLACK
6
CONTINUOUS
10
2.78586
20
-2.53926
11
2.78731
21
-2.53876
0
LINE
8
BLACK
6
CONTINUOUS
10
2.78731
20
-2.53876
11
2.78884
21
-2.53886
0
LINE
8
BLACK
6
CONTINUOUS
10
2.88039
20
-2.54946
11
2.86335
21
-2.5593
0
LINE
8
BLACK
6
CONTINUOUS
10
2.86335
20
-2.5593
11
2.8535
21
-2.54225
0
LINE
8
BLACK
6
CONTINUOUS
10
2.8535
20
-2.54225
11
2.87055
21
-2.53241
0
LINE
8
BLACK
6
CONTINUOUS
10
2.87055
20
-2.53241
11
2.88039
21
-2.54946
0
LINE
8
BLACK
6
CONTINUOUS
10
3.44571
20
-2.54225
11
3.43587
21
-2.5593
0
LINE
8
BLACK
6
CONTINUOUS
10
3.43587
20
-2.5593
11
3.41882
21
-2.54946
0
LINE
8
BLACK
6
CONTINUOUS
10
3.41882
20
-2.54946
11
3.42866
21
-2.53241
0
LINE
8
BLACK
6
CONTINUOUS
10
3.42866
20
-2.53241
11
3.44571
21
-2.54225
0
LINE
8
BLACK
6
CONTINUOUS
10
3.51755
20
-2.53237
11
3.52437
21
-2.5363
0
LINE
8
BLACK
6
CONTINUOUS
10
3.52437
20
-2.5363
11
3.52553
21
-2.53732
0
LINE
8
BLACK
6
CONTINUOUS
10
3.52553
20
-2.53732
11
3.52621
21
-2.53869
0
LINE
8
BLACK
6
CONTINUOUS
10
3.52621
20
-2.53869
11
3.52631
21
-2.54023
0
LINE
8
BLACK
6
CONTINUOUS
10
3.52631
20
-2.54023
11
3.52582
21
-2.54168
0
LINE
8
BLACK
6
CONTINUOUS
10
3.52582
20
-2.54168
11
3.51725
21
-2.55651
0
LINE
8
BLACK
6
CONTINUOUS
10
3.51725
20
-2.55651
11
3.51624
21
-2.55767
0
LINE
8
BLACK
6
CONTINUOUS
10
3.51624
20
-2.55767
11
3.51486
21
-2.55835
0
LINE
8
BLACK
6
CONTINUOUS
10
3.51486
20
-2.55835
11
3.51333
21
-2.55845
0
LINE
8
BLACK
6
CONTINUOUS
10
3.51333
20
-2.55845
11
3.51187
21
-2.55796
0
LINE
8
BLACK
6
CONTINUOUS
10
3.51187
20
-2.55796
11
3.50506
21
-2.55402
0
LINE
8
BLACK
6
CONTINUOUS
10
3.50506
20
-2.55402
11
3.5039
21
-2.55301
0
LINE
8
BLACK
6
CONTINUOUS
10
3.5039
20
-2.55301
11
3.50322
21
-2.55163
0
LINE
8
BLACK
6
CONTINUOUS
10
3.50322
20
-2.55163
11
3.50312
21
-2.55009
0
LINE
8
BLACK
6
CONTINUOUS
10
3.50312
20
-2.55009
11
3.50361
21
-2.54864
0
LINE
8
BLACK
6
CONTINUOUS
10
3.50361
20
-2.54864
11
3.51218
21
-2.53381
0
LINE
8
BLACK
6
CONTINUOUS
10
3.51218
20
-2.53381
11
3.51319
21
-2.53265
0
LINE
8
BLACK
6
CONTINUOUS
10
3.51319
20
-2.53265
11
3.51457
21
-2.53197
0
LINE
8
BLACK
6
CONTINUOUS
10
3.51457
20
-2.53197
11
3.5161
21
-2.53187
0
LINE
8
BLACK
6
CONTINUOUS
10
3.5161
20
-2.53187
11
3.51755
21
-2.53237
0
LINE
8
BLACK
6
CONTINUOUS
10
2.83199
20
-2.53649
11
2.81494
21
-2.54633
0
LINE
8
BLACK
6
CONTINUOUS
10
2.81494
20
-2.54633
11
2.8051
21
-2.52928
0
LINE
8
BLACK
6
CONTINUOUS
10
2.8051
20
-2.52928
11
2.82215
21
-2.51944
0
LINE
8
BLACK
6
CONTINUOUS
10
2.82215
20
-2.51944
11
2.83199
21
-2.53649
0
LINE
8
BLACK
6
CONTINUOUS
10
3.49411
20
-2.52928
11
3.48427
21
-2.54633
0
LINE
8
BLACK
6
CONTINUOUS
10
3.48427
20
-2.54633
11
3.46722
21
-2.53649
0
LINE
8
BLACK
6
CONTINUOUS
10
3.46722
20
-2.53649
11
3.47706
21
-2.51944
0
LINE
8
BLACK
6
CONTINUOUS
10
3.47706
20
-2.51944
11
3.49411
21
-2.52928
0
LINE
8
BLACK
6
CONTINUOUS
10
2.86268
20
-2.51877
11
2.84563
21
-2.52861
0
LINE
8
BLACK
6
CONTINUOUS
10
2.84563
20
-2.52861
11
2.83579
21
-2.51157
0
LINE
8
BLACK
6
CONTINUOUS
10
2.83579
20
-2.51157
11
2.85283
21
-2.50172
0
LINE
8
BLACK
6
CONTINUOUS
10
2.85283
20
-2.50172
11
2.86268
21
-2.51877
0
LINE
8
BLACK
6
CONTINUOUS
10
3.46343
20
-2.51157
11
3.45358
21
-2.52861
0
LINE
8
BLACK
6
CONTINUOUS
10
3.45358
20
-2.52861
11
3.43654
21
-2.51877
0
LINE
8
BLACK
6
CONTINUOUS
10
3.43654
20
-2.51877
11
3.44638
21
-2.50172
0
LINE
8
BLACK
6
CONTINUOUS
10
3.44638
20
-2.50172
11
3.46343
21
-2.51157
0
LINE
8
BLACK
6
CONTINUOUS
10
3.49442
20
-2.42077
11
3.4957
21
-2.42163
0
LINE
8
BLACK
6
CONTINUOUS
10
3.4957
20
-2.42163
11
3.49655
21
-2.4229
0
LINE
8
BLACK
6
CONTINUOUS
10
3.49655
20
-2.4229
11
3.49685
21
-2.42441
0
LINE
8
BLACK
6
CONTINUOUS
10
3.49685
20
-2.42441
11
3.49685
21
-2.43228
0
LINE
8
BLACK
6
CONTINUOUS
10
3.49685
20
-2.43228
11
3.49655
21
-2.43379
0
LINE
8
BLACK
6
CONTINUOUS
10
3.49655
20
-2.43379
11
3.4957
21
-2.43507
0
LINE
8
BLACK
6
CONTINUOUS
10
3.4957
20
-2.43507
11
3.49442
21
-2.43592
0
LINE
8
BLACK
6
CONTINUOUS
10
3.49442
20
-2.43592
11
3.49291
21
-2.43622
0
LINE
8
BLACK
6
CONTINUOUS
10
3.49291
20
-2.43622
11
3.47579
21
-2.43622
0
LINE
8
BLACK
6
CONTINUOUS
10
3.47579
20
-2.43622
11
3.47428
21
-2.43592
0
LINE
8
BLACK
6
CONTINUOUS
10
3.47428
20
-2.43592
11
3.473
21
-2.43507
0
LINE
8
BLACK
6
CONTINUOUS
10
3.473
20
-2.43507
11
3.47215
21
-2.43379
0
LINE
8
BLACK
6
CONTINUOUS
10
3.47215
20
-2.43379
11
3.47185
21
-2.43228
0
LINE
8
BLACK
6
CONTINUOUS
10
3.47185
20
-2.43228
11
3.47185
21
-2.42441
0
LINE
8
BLACK
6
CONTINUOUS
10
3.47185
20
-2.42441
11
3.47215
21
-2.4229
0
LINE
8
BLACK
6
CONTINUOUS
10
3.47215
20
-2.4229
11
3.473
21
-2.42163
0
LINE
8
BLACK
6
CONTINUOUS
10
3.473
20
-2.42163
11
3.47428
21
-2.42077
0
LINE
8
BLACK
6
CONTINUOUS
10
3.47428
20
-2.42077
11
3.47579
21
-2.42047
0
LINE
8
BLACK
6
CONTINUOUS
10
3.47579
20
-2.42047
11
3.49291
21
-2.42047
0
LINE
8
BLACK
6
CONTINUOUS
10
3.49291
20
-2.42047
11
3.49442
21
-2.42077
0
LINE
8
BLACK
6
CONTINUOUS
10
3.52651
20
-2.42077
11
3.52778
21
-2.42163
0
LINE
8
BLACK
6
CONTINUOUS
10
3.52778
20
-2.42163
11
3.52864
21
-2.4229
0
LINE
8
BLACK
6
CONTINUOUS
10
3.52864
20
-2.4229
11
3.52894
21
-2.42441
0
LINE
8
BLACK
6
CONTINUOUS
10
3.52894
20
-2.42441
11
3.52894
21
-2.43228
0
LINE
8
BLACK
6
CONTINUOUS
10
3.52894
20
-2.43228
11
3.52864
21
-2.43379
0
LINE
8
BLACK
6
CONTINUOUS
10
3.52864
20
-2.43379
11
3.52778
21
-2.43507
0
LINE
8
BLACK
6
CONTINUOUS
10
3.52778
20
-2.43507
11
3.52651
21
-2.43592
0
LINE
8
BLACK
6
CONTINUOUS
10
3.52651
20
-2.43592
11
3.525
21
-2.43622
0
LINE
8
BLACK
6
CONTINUOUS
10
3.525
20
-2.43622
11
3.50787
21
-2.43622
0
LINE
8
BLACK
6
CONTINUOUS
10
3.50787
20
-2.43622
11
3.50637
21
-2.43592
0
LINE
8
BLACK
6
CONTINUOUS
10
3.50637
20
-2.43592
11
3.50509
21
-2.43507
0
LINE
8
BLACK
6
CONTINUOUS
10
3.50509
20
-2.43507
11
3.50424
21
-2.43379
0
LINE
8
BLACK
6
CONTINUOUS
10
3.50424
20
-2.43379
11
3.50394
21
-2.43228
0
LINE
8
BLACK
6
CONTINUOUS
10
3.50394
20
-2.43228
11
3.50394
21
-2.42441
0
LINE
8
BLACK
6
CONTINUOUS
10
3.50394
20
-2.42441
11
3.50424
21
-2.4229
0
LINE
8
BLACK
6
CONTINUOUS
10
3.50424
20
-2.4229
11
3.50509
21
-2.42163
0
LINE
8
BLACK
6
CONTINUOUS
10
3.50509
20
-2.42163
11
3.50637
21
-2.42077
0
LINE
8
BLACK
6
CONTINUOUS
10
3.50637
20
-2.42077
11
3.50787
21
-2.42047
0
LINE
8
BLACK
6
CONTINUOUS
10
3.50787
20
-2.42047
11
3.525
21
-2.42047
0
LINE
8
BLACK
6
CONTINUOUS
10
3.525
20
-2.42047
11
3.52651
21
-2.42077
0
LINE
8
BLACK
6
CONTINUOUS
10
2.74757
20
-2.36605
11
2.74885
21
-2.3669
0
LINE
8
BLACK
6
CONTINUOUS
10
2.74885
20
-2.3669
11
2.7497
21
-2.36818
0
LINE
8
BLACK
6
CONTINUOUS
10
2.7497
20
-2.36818
11
2.75
21
-2.36969
0
LINE
8
BLACK
6
CONTINUOUS
10
2.75
20
-2.36969
11
2.75
21
-2.38681
0
LINE
8
BLACK
6
CONTINUOUS
10
2.75
20
-2.38681
11
2.7497
21
-2.38832
0
LINE
8
BLACK
6
CONTINUOUS
10
2.7497
20
-2.38832
11
2.74885
21
-2.38959
0
LINE
8
BLACK
6
CONTINUOUS
10
2.74885
20
-2.38959
11
2.74757
21
-2.39045
0
LINE
8
BLACK
6
CONTINUOUS
10
2.74757
20
-2.39045
11
2.74606
21
-2.39075
0
LINE
8
BLACK
6
CONTINUOUS
10
2.74606
20
-2.39075
11
2.73819
21
-2.39075
0
LINE
8
BLACK
6
CONTINUOUS
10
2.73819
20
-2.39075
11
2.73668
21
-2.39045
0
LINE
8
BLACK
6
CONTINUOUS
10
2.73668
20
-2.39045
11
2.73541
21
-2.38959
0
LINE
8
BLACK
6
CONTINUOUS
10
2.73541
20
-2.38959
11
2.73455
21
-2.38832
0
LINE
8
BLACK
6
CONTINUOUS
10
2.73455
20
-2.38832
11
2.73425
21
-2.38681
0
LINE
8
BLACK
6
CONTINUOUS
10
2.73425
20
-2.38681
11
2.73425
21
-2.36969
0
LINE
8
BLACK
6
CONTINUOUS
10
2.73425
20
-2.36969
11
2.73455
21
-2.36818
0
LINE
8
BLACK
6
CONTINUOUS
10
2.73455
20
-2.36818
11
2.73541
21
-2.3669
0
LINE
8
BLACK
6
CONTINUOUS
10
2.73541
20
-2.3669
11
2.73668
21
-2.36605
0
LINE
8
BLACK
6
CONTINUOUS
10
2.73668
20
-2.36605
11
2.73819
21
-2.36575
0
LINE
8
BLACK
6
CONTINUOUS
10
2.73819
20
-2.36575
11
2.74606
21
-2.36575
0
LINE
8
BLACK
6
CONTINUOUS
10
2.74606
20
-2.36575
11
2.74757
21
-2.36605
0
LINE
8
BLACK
6
CONTINUOUS
10
3.56253
20
-2.36605
11
3.56381
21
-2.3669
0
LINE
8
BLACK
6
CONTINUOUS
10
3.56381
20
-2.3669
11
3.56466
21
-2.36818
0
LINE
8
BLACK
6
CONTINUOUS
10
3.56466
20
-2.36818
11
3.56496
21
-2.36969
0
LINE
8
BLACK
6
CONTINUOUS
10
3.56496
20
-2.36969
11
3.56496
21
-2.38681
0
LINE
8
BLACK
6
CONTINUOUS
10
3.56496
20
-2.38681
11
3.56466
21
-2.38832
0
LINE
8
BLACK
6
CONTINUOUS
10
3.56466
20
-2.38832
11
3.56381
21
-2.38959
0
LINE
8
BLACK
6
CONTINUOUS
10
3.56381
20
-2.38959
11
3.56253
21
-2.39045
0
LINE
8
BLACK
6
CONTINUOUS
10
3.56253
20
-2.39045
11
3.56102
21
-2.39075
0
LINE
8
BLACK
6
CONTINUOUS
10
3.56102
20
-2.39075
11
3.55315
21
-2.39075
0
LINE
8
BLACK
6
CONTINUOUS
10
3.55315
20
-2.39075
11
3.55164
21
-2.39045
0
LINE
8
BLACK
6
CONTINUOUS
10
3.55164
20
-2.39045
11
3.55037
21
-2.38959
0
LINE
8
BLACK
6
CONTINUOUS
10
3.55037
20
-2.38959
11
3.54951
21
-2.38832
0
LINE
8
BLACK
6
CONTINUOUS
10
3.54951
20
-2.38832
11
3.54921
21
-2.38681
0
LINE
8
BLACK
6
CONTINUOUS
10
3.54921
20
-2.38681
11
3.54921
21
-2.36969
0
LINE
8
BLACK
6
CONTINUOUS
10
3.54921
20
-2.36969
11
3.54951
21
-2.36818
0
LINE
8
BLACK
6
CONTINUOUS
10
3.54951
20
-2.36818
11
3.55037
21
-2.3669
0
LINE
8
BLACK
6
CONTINUOUS
10
3.55037
20
-2.3669
11
3.55164
21
-2.36605
0
LINE
8
BLACK
6
CONTINUOUS
10
3.55164
20
-2.36605
11
3.55315
21
-2.36575
0
LINE
8
BLACK
6
CONTINUOUS
10
3.55315
20
-2.36575
11
3.56102
21
-2.36575
0
LINE
8
BLACK
6
CONTINUOUS
10
3.56102
20
-2.36575
11
3.56253
21
-2.36605
0
LINE
8
BLACK
6
CONTINUOUS
10
2.7874
20
-2.38976
11
2.76772
21
-2.38976
0
LINE
8
BLACK
6
CONTINUOUS
10
2.76772
20
-2.38976
11
2.76772
21
-2.37008
0
LINE
8
BLACK
6
CONTINUOUS
10
2.76772
20
-2.37008
11
2.7874
21
-2.37008
0
LINE
8
BLACK
6
CONTINUOUS
10
2.7874
20
-2.37008
11
2.7874
21
-2.38976
0
LINE
8
BLACK
6
CONTINUOUS
10
2.82283
20
-2.38976
11
2.80315
21
-2.38976
0
LINE
8
BLACK
6
CONTINUOUS
10
2.80315
20
-2.38976
11
2.80315
21
-2.37008
0
LINE
8
BLACK
6
CONTINUOUS
10
2.80315
20
-2.37008
11
2.82283
21
-2.37008
0
LINE
8
BLACK
6
CONTINUOUS
10
2.82283
20
-2.37008
11
2.82283
21
-2.38976
0
LINE
8
BLACK
6
CONTINUOUS
10
3.49606
20
-2.38976
11
3.47638
21
-2.38976
0
LINE
8
BLACK
6
CONTINUOUS
10
3.47638
20
-2.38976
11
3.47638
21
-2.37008
0
LINE
8
BLACK
6
CONTINUOUS
10
3.47638
20
-2.37008
11
3.49606
21
-2.37008
0
LINE
8
BLACK
6
CONTINUOUS
10
3.49606
20
-2.37008
11
3.49606
21
-2.38976
0
LINE
8
BLACK
6
CONTINUOUS
10
3.5315
20
-2.38976
11
3.51181
21
-2.38976
0
LINE
8
BLACK
6
CONTINUOUS
10
3.51181
20
-2.38976
11
3.51181
21
-2.37008
0
LINE
8
BLACK
6
CONTINUOUS
10
3.51181
20
-2.37008
11
3.5315
21
-2.37008
0
LINE
8
BLACK
6
CONTINUOUS
10
3.5315
20
-2.37008
11
3.5315
21
-2.38976
0
LINE
8
BLACK
6
CONTINUOUS
10
2.74757
20
-2.33396
11
2.74885
21
-2.33481
0
LINE
8
BLACK
6
CONTINUOUS
10
2.74885
20
-2.33481
11
2.7497
21
-2.33609
0
LINE
8
BLACK
6
CONTINUOUS
10
2.7497
20
-2.33609
11
2.75
21
-2.3376
0
LINE
8
BLACK
6
CONTINUOUS
10
2.75
20
-2.3376
11
2.75
21
-2.35472
0
LINE
8
BLACK
6
CONTINUOUS
10
2.75
20
-2.35472
11
2.7497
21
-2.35623
0
LINE
8
BLACK
6
CONTINUOUS
10
2.7497
20
-2.35623
11
2.74885
21
-2.35751
0
LINE
8
BLACK
6
CONTINUOUS
10
2.74885
20
-2.35751
11
2.74757
21
-2.35836
0
LINE
8
BLACK
6
CONTINUOUS
10
2.74757
20
-2.35836
11
2.74606
21
-2.35866
0
LINE
8
BLACK
6
CONTINUOUS
10
2.74606
20
-2.35866
11
2.73819
21
-2.35866
0
LINE
8
BLACK
6
CONTINUOUS
10
2.73819
20
-2.35866
11
2.73668
21
-2.35836
0
LINE
8
BLACK
6
CONTINUOUS
10
2.73668
20
-2.35836
11
2.73541
21
-2.35751
0
LINE
8
BLACK
6
CONTINUOUS
10
2.73541
20
-2.35751
11
2.73455
21
-2.35623
0
LINE
8
BLACK
6
CONTINUOUS
10
2.73455
20
-2.35623
11
2.73425
21
-2.35472
0
LINE
8
BLACK
6
CONTINUOUS
10
2.73425
20
-2.35472
11
2.73425
21
-2.3376
0
LINE
8
BLACK
6
CONTINUOUS
10
2.73425
20
-2.3376
11
2.73455
21
-2.33609
0
LINE
8
BLACK
6
CONTINUOUS
10
2.73455
20
-2.33609
11
2.73541
21
-2.33481
0
LINE
8
BLACK
6
CONTINUOUS
10
2.73541
20
-2.33481
11
2.73668
21
-2.33396
0
LINE
8
BLACK
6
CONTINUOUS
10
2.73668
20
-2.33396
11
2.73819
21
-2.33366
0
LINE
8
BLACK
6
CONTINUOUS
10
2.73819
20
-2.33366
11
2.74606
21
-2.33366
0
LINE
8
BLACK
6
CONTINUOUS
10
2.74606
20
-2.33366
11
2.74757
21
-2.33396
0
LINE
8
BLACK
6
CONTINUOUS
10
3.56253
20
-2.33396
11
3.56381
21
-2.33481
0
LINE
8
BLACK
6
CONTINUOUS
10
3.56381
20
-2.33481
11
3.56466
21
-2.33609
0
LINE
8
BLACK
6
CONTINUOUS
10
3.56466
20
-2.33609
11
3.56496
21
-2.3376
0
LINE
8
BLACK
6
CONTINUOUS
10
3.56496
20
-2.3376
11
3.56496
21
-2.35472
0
LINE
8
BLACK
6
CONTINUOUS
10
3.56496
20
-2.35472
11
3.56466
21
-2.35623
0
LINE
8
BLACK
6
CONTINUOUS
10
3.56466
20
-2.35623
11
3.56381
21
-2.35751
0
LINE
8
BLACK
6
CONTINUOUS
10
3.56381
20
-2.35751
11
3.56253
21
-2.35836
0
LINE
8
BLACK
6
CONTINUOUS
10
3.56253
20
-2.35836
11
3.56102
21
-2.35866
0
LINE
8
BLACK
6
CONTINUOUS
10
3.56102
20
-2.35866
11
3.55315
21
-2.35866
0
LINE
8
BLACK
6
CONTINUOUS
10
3.55315
20
-2.35866
11
3.55164
21
-2.35836
0
LINE
8
BLACK
6
CONTINUOUS
10
3.55164
20
-2.35836
11
3.55037
21
-2.35751
0
LINE
8
BLACK
6
CONTINUOUS
10
3.55037
20
-2.35751
11
3.54951
21
-2.35623
0
LINE
8
BLACK
6
CONTINUOUS
10
3.54951
20
-2.35623
11
3.54921
21
-2.35472
0
LINE
8
BLACK
6
CONTINUOUS
10
3.54921
20
-2.35472
11
3.54921
21
-2.3376
0
LINE
8
BLACK
6
CONTINUOUS
10
3.54921
20
-2.3376
11
3.54951
21
-2.33609
0
LINE
8
BLACK
6
CONTINUOUS
10
3.54951
20
-2.33609
11
3.55037
21
-2.33481
0
LINE
8
BLACK
6
CONTINUOUS
10
3.55037
20
-2.33481
11
3.55164
21
-2.33396
0
LINE
8
BLACK
6
CONTINUOUS
10
3.55164
20
-2.33396
11
3.55315
21
-2.33366
0
LINE
8
BLACK
6
CONTINUOUS
10
3.55315
20
-2.33366
11
3.56102
21
-2.33366
0
LINE
8
BLACK
6
CONTINUOUS
10
3.56102
20
-2.33366
11
3.56253
21
-2.33396
0
LINE
8
BLACK
6
CONTINUOUS
10
2.7874
20
-2.35433
11
2.76772
21
-2.35433
0
LINE
8
BLACK
6
CONTINUOUS
10
2.76772
20
-2.35433
11
2.76772
21
-2.33465
0
LINE
8
BLACK
6
CONTINUOUS
10
2.76772
20
-2.33465
11
2.7874
21
-2.33465
0
LINE
8
BLACK
6
CONTINUOUS
10
2.7874
20
-2.33465
11
2.7874
21
-2.35433
0
LINE
8
BLACK
6
CONTINUOUS
10
2.82283
20
-2.35433
11
2.80315
21
-2.35433
0
LINE
8
BLACK
6
CONTINUOUS
10
2.80315
20
-2.35433
11
2.80315
21
-2.33465
0
LINE
8
BLACK
6
CONTINUOUS
10
2.80315
20
-2.33465
11
2.82283
21
-2.33465
0
LINE
8
BLACK
6
CONTINUOUS
10
2.82283
20
-2.33465
11
2.82283
21
-2.35433
0
LINE
8
BLACK
6
CONTINUOUS
10
3.49606
20
-2.35433
11
3.47638
21
-2.35433
0
LINE
8
BLACK
6
CONTINUOUS
10
3.47638
20
-2.35433
11
3.47638
21
-2.33465
0
LINE
8
BLACK
6
CONTINUOUS
10
3.47638
20
-2.33465
11
3.49606
21
-2.33465
0
LINE
8
BLACK
6
CONTINUOUS
10
3.49606
20
-2.33465
11
3.49606
21
-2.35433
0
LINE
8
BLACK
6
CONTINUOUS
10
3.5315
20
-2.35433
11
3.51181
21
-2.35433
0
LINE
8
BLACK
6
CONTINUOUS
10
3.51181
20
-2.35433
11
3.51181
21
-2.33465
0
LINE
8
BLACK
6
CONTINUOUS
10
3.51181
20
-2.33465
11
3.5315
21
-2.33465
0
LINE
8
BLACK
6
CONTINUOUS
10
3.5315
20
-2.33465
11
3.5315
21
-2.35433
0
LINE
8
BLACK
6
CONTINUOUS
10
2.86268
20
-2.20564
11
2.85283
21
-2.22269
0
LINE
8
BLACK
6
CONTINUOUS
10
2.85283
20
-2.22269
11
2.83579
21
-2.21284
0
LINE
8
BLACK
6
CONTINUOUS
10
2.83579
20
-2.21284
11
2.84563
21
-2.1958
0
LINE
8
BLACK
6
CONTINUOUS
10
2.84563
20
-2.1958
11
2.86268
21
-2.20564
0
LINE
8
BLACK
6
CONTINUOUS
10
3.46343
20
-2.21284
11
3.44638
21
-2.22269
0
LINE
8
BLACK
6
CONTINUOUS
10
3.44638
20
-2.22269
11
3.43654
21
-2.20564
0
LINE
8
BLACK
6
CONTINUOUS
10
3.43654
20
-2.20564
11
3.45358
21
-2.1958
0
LINE
8
BLACK
6
CONTINUOUS
10
3.45358
20
-2.1958
11
3.46343
21
-2.21284
0
LINE
8
BLACK
6
CONTINUOUS
10
2.83199
20
-2.18792
11
2.82215
21
-2.20497
0
LINE
8
BLACK
6
CONTINUOUS
10
2.82215
20
-2.20497
11
2.8051
21
-2.19513
0
LINE
8
BLACK
6
CONTINUOUS
10
2.8051
20
-2.19513
11
2.81494
21
-2.17808
0
LINE
8
BLACK
6
CONTINUOUS
10
2.81494
20
-2.17808
11
2.83199
21
-2.18792
0
LINE
8
BLACK
6
CONTINUOUS
10
3.49411
20
-2.19513
11
3.47706
21
-2.20497
0
LINE
8
BLACK
6
CONTINUOUS
10
3.47706
20
-2.20497
11
3.46722
21
-2.18792
0
LINE
8
BLACK
6
CONTINUOUS
10
3.46722
20
-2.18792
11
3.48427
21
-2.17808
0
LINE
8
BLACK
6
CONTINUOUS
10
3.48427
20
-2.17808
11
3.49411
21
-2.19513
0
LINE
8
BLACK
6
CONTINUOUS
10
2.88039
20
-2.17495
11
2.87055
21
-2.192
0
LINE
8
BLACK
6
CONTINUOUS
10
2.87055
20
-2.192
11
2.8535
21
-2.18216
0
LINE
8
BLACK
6
CONTINUOUS
10
2.8535
20
-2.18216
11
2.86335
21
-2.16511
0
LINE
8
BLACK
6
CONTINUOUS
10
2.86335
20
-2.16511
11
2.88039
21
-2.17495
0
LINE
8
BLACK
6
CONTINUOUS
10
3.44571
20
-2.18216
11
3.42866
21
-2.192
0
LINE
8
BLACK
6
CONTINUOUS
10
3.42866
20
-2.192
11
3.41882
21
-2.17495
0
LINE
8
BLACK
6
CONTINUOUS
10
3.41882
20
-2.17495
11
3.43587
21
-2.16511
0
LINE
8
BLACK
6
CONTINUOUS
10
3.43587
20
-2.16511
11
3.44571
21
-2.18216
0
LINE
8
BLACK
6
CONTINUOUS
10
2.79154
20
-2.15956
11
2.79836
21
-2.1635
0
LINE
8
BLACK
6
CONTINUOUS
10
2.79836
20
-2.1635
11
2.79951
21
-2.16451
0
LINE
8
BLACK
6
CONTINUOUS
10
2.79951
20
-2.16451
11
2.80019
21
-2.16589
0
LINE
8
BLACK
6
CONTINUOUS
10
2.80019
20
-2.16589
11
2.80029
21
-2.16743
0
LINE
8
BLACK
6
CONTINUOUS
10
2.80029
20
-2.16743
11
2.7998
21
-2.16888
0
LINE
8
BLACK
6
CONTINUOUS
10
2.7998
20
-2.16888
11
2.79123
21
-2.18371
0
LINE
8
BLACK
6
CONTINUOUS
10
2.79123
20
-2.18371
11
2.79022
21
-2.18487
0
LINE
8
BLACK
6
CONTINUOUS
10
2.79022
20
-2.18487
11
2.78884
21
-2.18555
0
LINE
8
BLACK
6
CONTINUOUS
10
2.78884
20
-2.18555
11
2.78731
21
-2.18565
0
LINE
8
BLACK
6
CONTINUOUS
10
2.78731
20
-2.18565
11
2.78586
21
-2.18515
0
LINE
8
BLACK
6
CONTINUOUS
10
2.78586
20
-2.18515
11
2.77904
21
-2.18122
0
LINE
8
BLACK
6
CONTINUOUS
10
2.77904
20
-2.18122
11
2.77788
21
-2.1802
0
LINE
8
BLACK
6
CONTINUOUS
10
2.77788
20
-2.1802
11
2.7772
21
-2.17882
0
LINE
8
BLACK
6
CONTINUOUS
10
2.7772
20
-2.17882
11
2.7771
21
-2.17729
0
LINE
8
BLACK
6
CONTINUOUS
10
2.7771
20
-2.17729
11
2.7776
21
-2.17584
0
LINE
8
BLACK
6
CONTINUOUS
10
2.7776
20
-2.17584
11
2.78616
21
-2.16101
0
LINE
8
BLACK
6
CONTINUOUS
10
2.78616
20
-2.16101
11
2.78717
21
-2.15985
0
LINE
8
BLACK
6
CONTINUOUS
10
2.78717
20
-2.15985
11
2.78855
21
-2.15917
0
LINE
8
BLACK
6
CONTINUOUS
10
2.78855
20
-2.15917
11
2.79008
21
-2.15907
0
LINE
8
BLACK
6
CONTINUOUS
10
2.79008
20
-2.15907
11
2.79154
21
-2.15956
0
LINE
8
BLACK
6
CONTINUOUS
10
3.51066
20
-2.15917
11
3.51204
21
-2.15985
0
LINE
8
BLACK
6
CONTINUOUS
10
3.51204
20
-2.15985
11
3.51305
21
-2.16101
0
LINE
8
BLACK
6
CONTINUOUS
10
3.51305
20
-2.16101
11
3.52162
21
-2.17584
0
LINE
8
BLACK
6
CONTINUOUS
10
3.52162
20
-2.17584
11
3.52211
21
-2.17729
0
LINE
8
BLACK
6
CONTINUOUS
10
3.52211
20
-2.17729
11
3.52201
21
-2.17882
0
LINE
8
BLACK
6
CONTINUOUS
10
3.52201
20
-2.17882
11
3.52133
21
-2.1802
0
LINE
8
BLACK
6
CONTINUOUS
10
3.52133
20
-2.1802
11
3.52018
21
-2.18122
0
LINE
8
BLACK
6
CONTINUOUS
10
3.52018
20
-2.18122
11
3.51336
21
-2.18515
0
LINE
8
BLACK
6
CONTINUOUS
10
3.51336
20
-2.18515
11
3.5119
21
-2.18565
0
LINE
8
BLACK
6
CONTINUOUS
10
3.5119
20
-2.18565
11
3.51037
21
-2.18555
0
LINE
8
BLACK
6
CONTINUOUS
10
3.51037
20
-2.18555
11
3.50899
21
-2.18487
0
LINE
8
BLACK
6
CONTINUOUS
10
3.50899
20
-2.18487
11
3.50798
21
-2.18371
0
LINE
8
BLACK
6
CONTINUOUS
10
3.50798
20
-2.18371
11
3.49942
21
-2.16888
0
LINE
8
BLACK
6
CONTINUOUS
10
3.49942
20
-2.16888
11
3.49892
21
-2.16743
0
LINE
8
BLACK
6
CONTINUOUS
10
3.49892
20
-2.16743
11
3.49902
21
-2.16589
0
LINE
8
BLACK
6
CONTINUOUS
10
3.49902
20
-2.16589
11
3.4997
21
-2.16451
0
LINE
8
BLACK
6
CONTINUOUS
10
3.4997
20
-2.16451
11
3.50086
21
-2.1635
0
LINE
8
BLACK
6
CONTINUOUS
10
3.50086
20
-2.1635
11
3.50768
21
-2.15956
0
LINE
8
BLACK
6
CONTINUOUS
10
3.50768
20
-2.15956
11
3.50913
21
-2.15907
0
LINE
8
BLACK
6
CONTINUOUS
10
3.50913
20
-2.15907
11
3.51066
21
-2.15917
0
LINE
8
BLACK
6
CONTINUOUS
10
2.84971
20
-2.15724
11
2.83986
21
-2.17428
0
LINE
8
BLACK
6
CONTINUOUS
10
2.83986
20
-2.17428
11
2.82282
21
-2.16444
0
LINE
8
BLACK
6
CONTINUOUS
10
2.82282
20
-2.16444
11
2.83266
21
-2.14739
0
LINE
8
BLACK
6
CONTINUOUS
10
2.83266
20
-2.14739
11
2.84971
21
-2.15724
0
LINE
8
BLACK
6
CONTINUOUS
10
3.4764
20
-2.16444
11
3.45935
21
-2.17428
0
LINE
8
BLACK
6
CONTINUOUS
10
3.45935
20
-2.17428
11
3.44951
21
-2.15724
0
LINE
8
BLACK
6
CONTINUOUS
10
3.44951
20
-2.15724
11
3.46655
21
-2.14739
0
LINE
8
BLACK
6
CONTINUOUS
10
3.46655
20
-2.14739
11
3.4764
21
-2.16444
0
LINE
8
BLACK
6
CONTINUOUS
10
2.80758
20
-2.13178
11
2.8144
21
-2.13571
0
LINE
8
BLACK
6
CONTINUOUS
10
2.8144
20
-2.13571
11
2.81555
21
-2.13673
0
LINE
8
BLACK
6
CONTINUOUS
10
2.81555
20
-2.13673
11
2.81623
21
-2.1381
0
LINE
8
BLACK
6
CONTINUOUS
10
2.81623
20
-2.1381
11
2.81633
21
-2.13964
0
LINE
8
BLACK
6
CONTINUOUS
10
2.81633
20
-2.13964
11
2.81584
21
-2.14109
0
LINE
8
BLACK
6
CONTINUOUS
10
2.81584
20
-2.14109
11
2.80728
21
-2.15592
0
LINE
8
BLACK
6
CONTINUOUS
10
2.80728
20
-2.15592
11
2.80626
21
-2.15708
0
LINE
8
BLACK
6
CONTINUOUS
10
2.80626
20
-2.15708
11
2.80489
21
-2.15776
0
LINE
8
BLACK
6
CONTINUOUS
10
2.80489
20
-2.15776
11
2.80335
21
-2.15786
0
LINE
8
BLACK
6
CONTINUOUS
10
2.80335
20
-2.15786
11
2.8019
21
-2.15736
0
LINE
8
BLACK
6
CONTINUOUS
10
2.8019
20
-2.15736
11
2.79508
21
-2.15343
0
LINE
8
BLACK
6
CONTINUOUS
10
2.79508
20
-2.15343
11
2.79393
21
-2.15241
0
LINE
8
BLACK
6
CONTINUOUS
10
2.79393
20
-2.15241
11
2.79325
21
-2.15104
0
LINE
8
BLACK
6
CONTINUOUS
10
2.79325
20
-2.15104
11
2.79315
21
-2.1495
0
LINE
8
BLACK
6
CONTINUOUS
10
2.79315
20
-2.1495
11
2.79364
21
-2.14805
0
LINE
8
BLACK
6
CONTINUOUS
10
2.79364
20
-2.14805
11
2.8022
21
-2.13322
0
LINE
8
BLACK
6
CONTINUOUS
10
2.8022
20
-2.13322
11
2.80321
21
-2.13206
0
LINE
8
BLACK
6
CONTINUOUS
10
2.80321
20
-2.13206
11
2.80459
21
-2.13138
0
LINE
8
BLACK
6
CONTINUOUS
10
2.80459
20
-2.13138
11
2.80613
21
-2.13128
0
LINE
8
BLACK
6
CONTINUOUS
10
2.80613
20
-2.13128
11
2.80758
21
-2.13178
0
LINE
8
BLACK
6
CONTINUOUS
10
3.49462
20
-2.13138
11
3.496
21
-2.13206
0
LINE
8
BLACK
6
CONTINUOUS
10
3.496
20
-2.13206
11
3.49701
21
-2.13322
0
LINE
8
BLACK
6
CONTINUOUS
10
3.49701
20
-2.13322
11
3.50557
21
-2.14805
0
LINE
8
BLACK
6
CONTINUOUS
10
3.50557
20
-2.14805
11
3.50607
21
-2.1495
0
LINE
8
BLACK
6
CONTINUOUS
10
3.50607
20
-2.1495
11
3.50597
21
-2.15104
0
LINE
8
BLACK
6
CONTINUOUS
10
3.50597
20
-2.15104
11
3.50529
21
-2.15241
0
LINE
8
BLACK
6
CONTINUOUS
10
3.50529
20
-2.15241
11
3.50413
21
-2.15343
0
LINE
8
BLACK
6
CONTINUOUS
10
3.50413
20
-2.15343
11
3.49731
21
-2.15736
0
LINE
8
BLACK
6
CONTINUOUS
10
3.49731
20
-2.15736
11
3.49586
21
-2.15786
0
LINE
8
BLACK
6
CONTINUOUS
10
3.49586
20
-2.15786
11
3.49433
21
-2.15776
0
LINE
8
BLACK
6
CONTINUOUS
10
3.49433
20
-2.15776
11
3.49295
21
-2.15708
0
LINE
8
BLACK
6
CONTINUOUS
10
3.49295
20
-2.15708
11
3.49194
21
-2.15592
0
LINE
8
BLACK
6
CONTINUOUS
10
3.49194
20
-2.15592
11
3.48337
21
-2.14109
0
LINE
8
BLACK
6
CONTINUOUS
10
3.48337
20
-2.14109
11
3.48288
21
-2.13964
0
LINE
8
BLACK
6
CONTINUOUS
10
3.48288
20
-2.13964
11
3.48298
21
-2.1381
0
LINE
8
BLACK
6
CONTINUOUS
10
3.48298
20
-2.1381
11
3.48366
21
-2.13673
0
LINE
8
BLACK
6
CONTINUOUS
10
3.48366
20
-2.13673
11
3.48481
21
-2.13571
0
LINE
8
BLACK
6
CONTINUOUS
10
3.48481
20
-2.13571
11
3.49163
21
-2.13178
0
LINE
8
BLACK
6
CONTINUOUS
10
3.49163
20
-2.13178
11
3.49309
21
-2.13128
0
LINE
8
BLACK
6
CONTINUOUS
10
3.49309
20
-2.13128
11
3.49462
21
-2.13138
0
LINE
8
BLACK
6
CONTINUOUS
10
2.9794
20
-2.08315
11
2.96235
21
-2.09299
0
LINE
8
BLACK
6
CONTINUOUS
10
2.96235
20
-2.09299
11
2.95251
21
-2.07594
0
LINE
8
BLACK
6
CONTINUOUS
10
2.95251
20
-2.07594
11
2.96956
21
-2.0661
0
LINE
8
BLACK
6
CONTINUOUS
10
2.96956
20
-2.0661
11
2.9794
21
-2.08315
0
LINE
8
BLACK
6
CONTINUOUS
10
3.3467
20
-2.07594
11
3.33686
21
-2.09299
0
LINE
8
BLACK
6
CONTINUOUS
10
3.33686
20
-2.09299
11
3.31981
21
-2.08315
0
LINE
8
BLACK
6
CONTINUOUS
10
3.31981
20
-2.08315
11
3.32965
21
-2.0661
0
LINE
8
BLACK
6
CONTINUOUS
10
3.32965
20
-2.0661
11
3.3467
21
-2.07594
0
LINE
8
BLACK
6
CONTINUOUS
10
3.01009
20
-2.06543
11
2.99304
21
-2.07528
0
LINE
8
BLACK
6
CONTINUOUS
10
2.99304
20
-2.07528
11
2.9832
21
-2.05823
0
LINE
8
BLACK
6
CONTINUOUS
10
2.9832
20
-2.05823
11
3.00024
21
-2.04838
0
LINE
8
BLACK
6
CONTINUOUS
10
3.00024
20
-2.04838
11
3.01009
21
-2.06543
0
LINE
8
BLACK
6
CONTINUOUS
10
3.31602
20
-2.05823
11
3.30617
21
-2.07528
0
LINE
8
BLACK
6
CONTINUOUS
10
3.30617
20
-2.07528
11
3.28913
21
-2.06543
0
LINE
8
BLACK
6
CONTINUOUS
10
3.28913
20
-2.06543
11
3.29897
21
-2.04838
0
LINE
8
BLACK
6
CONTINUOUS
10
3.29897
20
-2.04838
11
3.31602
21
-2.05823
0
LINE
8
BLACK
6
CONTINUOUS
10
2.96168
20
-2.05246
11
2.94464
21
-2.06231
0
LINE
8
BLACK
6
CONTINUOUS
10
2.94464
20
-2.06231
11
2.93479
21
-2.04526
0
LINE
8
BLACK
6
CONTINUOUS
10
2.93479
20
-2.04526
11
2.95184
21
-2.03542
0
LINE
8
BLACK
6
CONTINUOUS
10
2.95184
20
-2.03542
11
2.96168
21
-2.05246
0
LINE
8
BLACK
6
CONTINUOUS
10
3.36442
20
-2.04526
11
3.35458
21
-2.06231
0
LINE
8
BLACK
6
CONTINUOUS
10
3.35458
20
-2.06231
11
3.33753
21
-2.05246
0
LINE
8
BLACK
6
CONTINUOUS
10
3.33753
20
-2.05246
11
3.34737
21
-2.03542
0
LINE
8
BLACK
6
CONTINUOUS
10
3.34737
20
-2.03542
11
3.36442
21
-2.04526
0
LINE
8
BLACK
6
CONTINUOUS
10
2.99237
20
-2.03475
11
2.97532
21
-2.04459
0
LINE
8
BLACK
6
CONTINUOUS
10
2.97532
20
-2.04459
11
2.96548
21
-2.02754
0
LINE
8
BLACK
6
CONTINUOUS
10
2.96548
20
-2.02754
11
2.98253
21
-2.0177
0
LINE
8
BLACK
6
CONTINUOUS
10
2.98253
20
-2.0177
11
2.99237
21
-2.03475
0
LINE
8
BLACK
6
CONTINUOUS
10
3.33373
20
-2.02754
11
3.32389
21
-2.04459
0
LINE
8
BLACK
6
CONTINUOUS
10
3.32389
20
-2.04459
11
3.30684
21
-2.03475
0
LINE
8
BLACK
6
CONTINUOUS
10
3.30684
20
-2.03475
11
3.31668
21
-2.0177
0
LINE
8
BLACK
6
CONTINUOUS
10
3.31668
20
-2.0177
11
3.33373
21
-2.02754
0
LINE
8
BLACK
6
CONTINUOUS
10
3.14173
20
-2.03543
11
3.12205
21
-2.03543
0
LINE
8
BLACK
6
CONTINUOUS
10
3.12205
20
-2.03543
11
3.12205
21
-2.01575
0
LINE
8
BLACK
6
CONTINUOUS
10
3.12205
20
-2.01575
11
3.14173
21
-2.01575
0
LINE
8
BLACK
6
CONTINUOUS
10
3.14173
20
-2.01575
11
3.14173
21
-2.03543
0
LINE
8
BLACK
6
CONTINUOUS
10
3.17717
20
-2.03543
11
3.15748
21
-2.03543
0
LINE
8
BLACK
6
CONTINUOUS
10
3.15748
20
-2.03543
11
3.15748
21
-2.01575
0
LINE
8
BLACK
6
CONTINUOUS
10
3.15748
20
-2.01575
11
3.17717
21
-2.01575
0
LINE
8
BLACK
6
CONTINUOUS
10
3.17717
20
-2.01575
11
3.17717
21
-2.03543
0
LINE
8
BLACK
6
CONTINUOUS
10
2.93844
20
-2.00584
11
2.93982
21
-2.00652
0
LINE
8
BLACK
6
CONTINUOUS
10
2.93982
20
-2.00652
11
2.94083
21
-2.00768
0
LINE
8
BLACK
6
CONTINUOUS
10
2.94083
20
-2.00768
11
2.94477
21
-2.0145
0
LINE
8
BLACK
6
CONTINUOUS
10
2.94477
20
-2.0145
11
2.94526
21
-2.01595
0
LINE
8
BLACK
6
CONTINUOUS
10
2.94526
20
-2.01595
11
2.94516
21
-2.01749
0
LINE
8
BLACK
6
CONTINUOUS
10
2.94516
20
-2.01749
11
2.94448
21
-2.01886
0
LINE
8
BLACK
6
CONTINUOUS
10
2.94448
20
-2.01886
11
2.94333
21
-2.01988
0
LINE
8
BLACK
6
CONTINUOUS
10
2.94333
20
-2.01988
11
2.92849
21
-2.02844
0
LINE
8
BLACK
6
CONTINUOUS
10
2.92849
20
-2.02844
11
2.92704
21
-2.02893
0
LINE
8
BLACK
6
CONTINUOUS
10
2.92704
20
-2.02893
11
2.92551
21
-2.02883
0
LINE
8
BLACK
6
CONTINUOUS
10
2.92551
20
-2.02883
11
2.92413
21
-2.02815
0
LINE
8
BLACK
6
CONTINUOUS
10
2.92413
20
-2.02815
11
2.92312
21
-2.027
0
LINE
8
BLACK
6
CONTINUOUS
10
2.92312
20
-2.027
11
2.91918
21
-2.02018
0
LINE
8
BLACK
6
CONTINUOUS
10
2.91918
20
-2.02018
11
2.91868
21
-2.01872
0
LINE
8
BLACK
6
CONTINUOUS
10
2.91868
20
-2.01872
11
2.91879
21
-2.01719
0
LINE
8
BLACK
6
CONTINUOUS
10
2.91879
20
-2.01719
11
2.91946
21
-2.01581
0
LINE
8
BLACK
6
CONTINUOUS
10
2.91946
20
-2.01581
11
2.92062
21
-2.0148
0
LINE
8
BLACK
6
CONTINUOUS
10
2.92062
20
-2.0148
11
2.93545
21
-2.00624
0
LINE
8
BLACK
6
CONTINUOUS
10
2.93545
20
-2.00624
11
2.93691
21
-2.00574
0
LINE
8
BLACK
6
CONTINUOUS
10
2.93691
20
-2.00574
11
2.93844
21
-2.00584
0
LINE
8
BLACK
6
CONTINUOUS
10
3.36376
20
-2.00624
11
3.37859
21
-2.0148
0
LINE
8
BLACK
6
CONTINUOUS
10
3.37859
20
-2.0148
11
3.37975
21
-2.01581
0
LINE
8
BLACK
6
CONTINUOUS
10
3.37975
20
-2.01581
11
3.38043
21
-2.01719
0
LINE
8
BLACK
6
CONTINUOUS
10
3.38043
20
-2.01719
11
3.38053
21
-2.01872
0
LINE
8
BLACK
6
CONTINUOUS
10
3.38053
20
-2.01872
11
3.38003
21
-2.02018
0
LINE
8
BLACK
6
CONTINUOUS
10
3.38003
20
-2.02018
11
3.3761
21
-2.027
0
LINE
8
BLACK
6
CONTINUOUS
10
3.3761
20
-2.027
11
3.37508
21
-2.02815
0
LINE
8
BLACK
6
CONTINUOUS
10
3.37508
20
-2.02815
11
3.37371
21
-2.02883
0
LINE
8
BLACK
6
CONTINUOUS
10
3.37371
20
-2.02883
11
3.37217
21
-2.02893
0
LINE
8
BLACK
6
CONTINUOUS
10
3.37217
20
-2.02893
11
3.37072
21
-2.02844
0
LINE
8
BLACK
6
CONTINUOUS
10
3.37072
20
-2.02844
11
3.35589
21
-2.01988
0
LINE
8
BLACK
6
CONTINUOUS
10
3.35589
20
-2.01988
11
3.35473
21
-2.01886
0
LINE
8
BLACK
6
CONTINUOUS
10
3.35473
20
-2.01886
11
3.35405
21
-2.01749
0
LINE
8
BLACK
6
CONTINUOUS
10
3.35405
20
-2.01749
11
3.35395
21
-2.01595
0
LINE
8
BLACK
6
CONTINUOUS
10
3.35395
20
-2.01595
11
3.35445
21
-2.0145
0
LINE
8
BLACK
6
CONTINUOUS
10
3.35445
20
-2.0145
11
3.35838
21
-2.00768
0
LINE
8
BLACK
6
CONTINUOUS
10
3.35838
20
-2.00768
11
3.3594
21
-2.00652
0
LINE
8
BLACK
6
CONTINUOUS
10
3.3594
20
-2.00652
11
3.36077
21
-2.00584
0
LINE
8
BLACK
6
CONTINUOUS
10
3.36077
20
-2.00584
11
3.36231
21
-2.00574
0
LINE
8
BLACK
6
CONTINUOUS
10
3.36231
20
-2.00574
11
3.36376
21
-2.00624
0
LINE
8
BLACK
6
CONTINUOUS
10
2.96623
20
-1.9898
11
2.9676
21
-1.99048
0
LINE
8
BLACK
6
CONTINUOUS
10
2.9676
20
-1.99048
11
2.96862
21
-1.99164
0
LINE
8
BLACK
6
CONTINUOUS
10
2.96862
20
-1.99164
11
2.97255
21
-1.99845
0
LINE
8
BLACK
6
CONTINUOUS
10
2.97255
20
-1.99845
11
2.97305
21
-1.99991
0
LINE
8
BLACK
6
CONTINUOUS
10
2.97305
20
-1.99991
11
2.97295
21
-2.00144
0
LINE
8
BLACK
6
CONTINUOUS
10
2.97295
20
-2.00144
11
2.97227
21
-2.00282
0
LINE
8
BLACK
6
CONTINUOUS
10
2.97227
20
-2.00282
11
2.97111
21
-2.00383
0
LINE
8
BLACK
6
CONTINUOUS
10
2.97111
20
-2.00383
11
2.95628
21
-2.0124
0
LINE
8
BLACK
6
CONTINUOUS
10
2.95628
20
-2.0124
11
2.95483
21
-2.01289
0
LINE
8
BLACK
6
CONTINUOUS
10
2.95483
20
-2.01289
11
2.95329
21
-2.01279
0
LINE
8
BLACK
6
CONTINUOUS
10
2.95329
20
-2.01279
11
2.95192
21
-2.01211
0
LINE
8
BLACK
6
CONTINUOUS
10
2.95192
20
-2.01211
11
2.9509
21
-2.01095
0
LINE
8
BLACK
6
CONTINUOUS
10
2.9509
20
-2.01095
11
2.94697
21
-2.00414
0
LINE
8
BLACK
6
CONTINUOUS
10
2.94697
20
-2.00414
11
2.94647
21
-2.00268
0
LINE
8
BLACK
6
CONTINUOUS
10
2.94647
20
-2.00268
11
2.94657
21
-2.00115
0
LINE
8
BLACK
6
CONTINUOUS
10
2.94657
20
-2.00115
11
2.94725
21
-1.99977
0
LINE
8
BLACK
6
CONTINUOUS
10
2.94725
20
-1.99977
11
2.94841
21
-1.99876
0
LINE
8
BLACK
6
CONTINUOUS
10
2.94841
20
-1.99876
11
2.96324
21
-1.99019
0
LINE
8
BLACK
6
CONTINUOUS
10
2.96324
20
-1.99019
11
2.96469
21
-1.9897
0
LINE
8
BLACK
6
CONTINUOUS
10
2.96469
20
-1.9897
11
2.96623
21
-1.9898
0
LINE
8
BLACK
6
CONTINUOUS
10
3.33597
20
-1.99019
11
3.35081
21
-1.99876
0
LINE
8
BLACK
6
CONTINUOUS
10
3.35081
20
-1.99876
11
3.35196
21
-1.99977
0
LINE
8
BLACK
6
CONTINUOUS
10
3.35196
20
-1.99977
11
3.35264
21
-2.00115
0
LINE
8
BLACK
6
CONTINUOUS
10
3.35264
20
-2.00115
11
3.35274
21
-2.00268
0
LINE
8
BLACK
6
CONTINUOUS
10
3.35274
20
-2.00268
11
3.35225
21
-2.00414
0
LINE
8
BLACK
6
CONTINUOUS
10
3.35225
20
-2.00414
11
3.34831
21
-2.01095
0
LINE
8
BLACK
6
CONTINUOUS
10
3.34831
20
-2.01095
11
3.3473
21
-2.01211
0
LINE
8
BLACK
6
CONTINUOUS
10
3.3473
20
-2.01211
11
3.34592
21
-2.01279
0
LINE
8
BLACK
6
CONTINUOUS
10
3.34592
20
-2.01279
11
3.34439
21
-2.01289
0
LINE
8
BLACK
6
CONTINUOUS
10
3.34439
20
-2.01289
11
3.34293
21
-2.0124
0
LINE
8
BLACK
6
CONTINUOUS
10
3.34293
20
-2.0124
11
3.3281
21
-2.00383
0
LINE
8
BLACK
6
CONTINUOUS
10
3.3281
20
-2.00383
11
3.32694
21
-2.00282
0
LINE
8
BLACK
6
CONTINUOUS
10
3.32694
20
-2.00282
11
3.32627
21
-2.00144
0
LINE
8
BLACK
6
CONTINUOUS
10
3.32627
20
-2.00144
11
3.32616
21
-1.99991
0
LINE
8
BLACK
6
CONTINUOUS
10
3.32616
20
-1.99991
11
3.32666
21
-1.99845
0
LINE
8
BLACK
6
CONTINUOUS
10
3.32666
20
-1.99845
11
3.3306
21
-1.99164
0
LINE
8
BLACK
6
CONTINUOUS
10
3.3306
20
-1.99164
11
3.33161
21
-1.99048
0
LINE
8
BLACK
6
CONTINUOUS
10
3.33161
20
-1.99048
11
3.33299
21
-1.9898
0
LINE
8
BLACK
6
CONTINUOUS
10
3.33299
20
-1.9898
11
3.33452
21
-1.9897
0
LINE
8
BLACK
6
CONTINUOUS
10
3.33452
20
-1.9897
11
3.33597
21
-1.99019
0
LINE
8
BLACK
6
CONTINUOUS
10
2.76776
20
-1.92685
11
2.77521
21
-1.92974
0
LINE
8
BLACK
6
CONTINUOUS
10
2.77521
20
-1.92974
11
2.782
21
-1.93394
0
LINE
8
BLACK
6
CONTINUOUS
10
2.782
20
-1.93394
11
2.78791
21
-1.93933
0
LINE
8
BLACK
6
CONTINUOUS
10
2.78791
20
-1.93933
11
2.79273
21
-1.94571
0
LINE
8
BLACK
6
CONTINUOUS
10
2.79273
20
-1.94571
11
2.79629
21
-1.95286
0
LINE
8
BLACK
6
CONTINUOUS
10
2.79629
20
-1.95286
11
2.79848
21
-1.96055
0
LINE
8
BLACK
6
CONTINUOUS
10
2.79848
20
-1.96055
11
2.79921
21
-1.9685
0
LINE
8
BLACK
6
CONTINUOUS
10
2.79921
20
-1.9685
11
2.79848
21
-1.97646
0
LINE
8
BLACK
6
CONTINUOUS
10
2.79848
20
-1.97646
11
2.79629
21
-1.98415
0
LINE
8
BLACK
6
CONTINUOUS
10
2.79629
20
-1.98415
11
2.79273
21
-1.9913
0
LINE
8
BLACK
6
CONTINUOUS
10
2.79273
20
-1.9913
11
2.78791
21
-1.99768
0
LINE
8
BLACK
6
CONTINUOUS
10
2.78791
20
-1.99768
11
2.782
21
-2.00306
0
LINE
8
BLACK
6
CONTINUOUS
10
2.782
20
-2.00306
11
2.77521
21
-2.00727
0
LINE
8
BLACK
6
CONTINUOUS
10
2.77521
20
-2.00727
11
2.76776
21
-2.01016
0
LINE
8
BLACK
6
CONTINUOUS
10
2.76776
20
-2.01016
11
2.7599
21
-2.01163
0
LINE
8
BLACK
6
CONTINUOUS
10
2.7599
20
-2.01163
11
2.75191
21
-2.01163
0
LINE
8
BLACK
6
CONTINUOUS
10
2.75191
20
-2.01163
11
2.74405
21
-2.01016
0
LINE
8
BLACK
6
CONTINUOUS
10
2.74405
20
-2.01016
11
2.7366
21
-2.00727
0
LINE
8
BLACK
6
CONTINUOUS
10
2.7366
20
-2.00727
11
2.72981
21
-2.00306
0
LINE
8
BLACK
6
CONTINUOUS
10
2.72981
20
-2.00306
11
2.7239
21
-1.99768
0
LINE
8
BLACK
6
CONTINUOUS
10
2.7239
20
-1.99768
11
2.71909
21
-1.9913
0
LINE
8
BLACK
6
CONTINUOUS
10
2.71909
20
-1.9913
11
2.71552
21
-1.98415
0
LINE
8
BLACK
6
CONTINUOUS
10
2.71552
20
-1.98415
11
2.71334
21
-1.97646
0
LINE
8
BLACK
6
CONTINUOUS
10
2.71334
20
-1.97646
11
2.7126
21
-1.9685
0
LINE
8
BLACK
6
CONTINUOUS
10
2.7126
20
-1.9685
11
2.71334
21
-1.96055
0
LINE
8
BLACK
6
CONTINUOUS
10
2.71334
20
-1.96055
11
2.71552
21
-1.95286
0
LINE
8
BLACK
6
CONTINUOUS
10
2.71552
20
-1.95286
11
2.71909
21
-1.94571
0
LINE
8
BLACK
6
CONTINUOUS
10
2.71909
20
-1.94571
11
2.7239
21
-1.93933
0
LINE
8
BLACK
6
CONTINUOUS
10
2.7239
20
-1.93933
11
2.72981
21
-1.93394
0
LINE
8
BLACK
6
CONTINUOUS
10
2.72981
20
-1.93394
11
2.7366
21
-1.92974
0
LINE
8
BLACK
6
CONTINUOUS
10
2.7366
20
-1.92974
11
2.74405
21
-1.92685
0
LINE
8
BLACK
6
CONTINUOUS
10
2.74405
20
-1.92685
11
2.75191
21
-1.92538
0
LINE
8
BLACK
6
CONTINUOUS
10
2.75191
20
-1.92538
11
2.7599
21
-1.92538
0
LINE
8
BLACK
6
CONTINUOUS
10
2.7599
20
-1.92538
11
2.76776
21
-1.92685
0
LINE
8
BLACK
6
CONTINUOUS
10
3.55516
20
-1.92685
11
3.56261
21
-1.92974
0
LINE
8
BLACK
6
CONTINUOUS
10
3.56261
20
-1.92974
11
3.56941
21
-1.93394
0
LINE
8
BLACK
6
CONTINUOUS
10
3.56941
20
-1.93394
11
3.57531
21
-1.93933
0
LINE
8
BLACK
6
CONTINUOUS
10
3.57531
20
-1.93933
11
3.58013
21
-1.94571
0
LINE
8
BLACK
6
CONTINUOUS
10
3.58013
20
-1.94571
11
3.58369
21
-1.95286
0
LINE
8
BLACK
6
CONTINUOUS
10
3.58369
20
-1.95286
11
3.58588
21
-1.96055
0
LINE
8
BLACK
6
CONTINUOUS
10
3.58588
20
-1.96055
11
3.58661
21
-1.9685
0
LINE
8
BLACK
6
CONTINUOUS
10
3.58661
20
-1.9685
11
3.58588
21
-1.97646
0
LINE
8
BLACK
6
CONTINUOUS
10
3.58588
20
-1.97646
11
3.58369
21
-1.98415
0
LINE
8
BLACK
6
CONTINUOUS
10
3.58369
20
-1.98415
11
3.58013
21
-1.9913
0
LINE
8
BLACK
6
CONTINUOUS
10
3.58013
20
-1.9913
11
3.57531
21
-1.99768
0
LINE
8
BLACK
6
CONTINUOUS
10
3.57531
20
-1.99768
11
3.56941
21
-2.00306
0
LINE
8
BLACK
6
CONTINUOUS
10
3.56941
20
-2.00306
11
3.56261
21
-2.00727
0
LINE
8
BLACK
6
CONTINUOUS
10
3.56261
20
-2.00727
11
3.55516
21
-2.01016
0
LINE
8
BLACK
6
CONTINUOUS
10
3.55516
20
-2.01016
11
3.5473
21
-2.01163
0
LINE
8
BLACK
6
CONTINUOUS
10
3.5473
20
-2.01163
11
3.53931
21
-2.01163
0
LINE
8
BLACK
6
CONTINUOUS
10
3.53931
20
-2.01163
11
3.53146
21
-2.01016
0
LINE
8
BLACK
6
CONTINUOUS
10
3.53146
20
-2.01016
11
3.524
21
-2.00727
0
LINE
8
BLACK
6
CONTINUOUS
10
3.524
20
-2.00727
11
3.51721
21
-2.00306
0
LINE
8
BLACK
6
CONTINUOUS
10
3.51721
20
-2.00306
11
3.5113
21
-1.99768
0
LINE
8
BLACK
6
CONTINUOUS
10
3.5113
20
-1.99768
11
3.50649
21
-1.9913
0
LINE
8
BLACK
6
CONTINUOUS
10
3.50649
20
-1.9913
11
3.50292
21
-1.98415
0
LINE
8
BLACK
6
CONTINUOUS
10
3.50292
20
-1.98415
11
3.50074
21
-1.97646
0
LINE
8
BLACK
6
CONTINUOUS
10
3.50074
20
-1.97646
11
3.5
21
-1.9685
0
LINE
8
BLACK
6
CONTINUOUS
10
3.5
20
-1.9685
11
3.50074
21
-1.96055
0
LINE
8
BLACK
6
CONTINUOUS
10
3.50074
20
-1.96055
11
3.50292
21
-1.95286
0
LINE
8
BLACK
6
CONTINUOUS
10
3.50292
20
-1.95286
11
3.50649
21
-1.94571
0
LINE
8
BLACK
6
CONTINUOUS
10
3.50649
20
-1.94571
11
3.5113
21
-1.93933
0
LINE
8
BLACK
6
CONTINUOUS
10
3.5113
20
-1.93933
11
3.51721
21
-1.93394
0
LINE
8
BLACK
6
CONTINUOUS
10
3.51721
20
-1.93394
11
3.524
21
-1.92974
0
LINE
8
BLACK
6
CONTINUOUS
10
3.524
20
-1.92974
11
3.53146
21
-1.92685
0
LINE
8
BLACK
6
CONTINUOUS
10
3.53146
20
-1.92685
11
3.53931
21
-1.92538
0
LINE
8
BLACK
6
CONTINUOUS
10
3.53931
20
-1.92538
11
3.5473
21
-1.92538
0
LINE
8
BLACK
6
CONTINUOUS
10
3.5473
20
-1.92538
11
3.55516
21
-1.92685
0
LINE
8
BLACK
6
CONTINUOUS
10
3.14173
20
-2
11
3.12205
21
-2
0
LINE
8
BLACK
6
CONTINUOUS
10
3.12205
20
-2
11
3.12205
21
-1.98031
0
LINE
8
BLACK
6
CONTINUOUS
10
3.12205
20
-1.98031
11
3.14173
21
-1.98031
0
LINE
8
BLACK
6
CONTINUOUS
10
3.14173
20
-1.98031
11
3.14173
21
-2
0
LINE
8
BLACK
6
CONTINUOUS
10
3.17717
20
-2
11
3.15748
21
-2
0
LINE
8
BLACK
6
CONTINUOUS
10
3.15748
20
-2
11
3.15748
21
-1.98031
0
LINE
8
BLACK
6
CONTINUOUS
10
3.15748
20
-1.98031
11
3.17717
21
-1.98031
0
LINE
8
BLACK
6
CONTINUOUS
10
3.17717
20
-1.98031
11
3.17717
21
-2
0
LINE
8
BLACK
6
CONTINUOUS
10
3.14363
20
-1.94715
11
3.14491
21
-1.948
0
LINE
8
BLACK
6
CONTINUOUS
10
3.14491
20
-1.948
11
3.14576
21
-1.94928
0
LINE
8
BLACK
6
CONTINUOUS
10
3.14576
20
-1.94928
11
3.14606
21
-1.95079
0
LINE
8
BLACK
6
CONTINUOUS
10
3.14606
20
-1.95079
11
3.14606
21
-1.95866
0
LINE
8
BLACK
6
CONTINUOUS
10
3.14606
20
-1.95866
11
3.14576
21
-1.96017
0
LINE
8
BLACK
6
CONTINUOUS
10
3.14576
20
-1.96017
11
3.14491
21
-1.96145
0
LINE
8
BLACK
6
CONTINUOUS
10
3.14491
20
-1.96145
11
3.14363
21
-1.9623
0
LINE
8
BLACK
6
CONTINUOUS
10
3.14363
20
-1.9623
11
3.14213
21
-1.9626
0
LINE
8
BLACK
6
CONTINUOUS
10
3.14213
20
-1.9626
11
3.125
21
-1.9626
0
LINE
8
BLACK
6
CONTINUOUS
10
3.125
20
-1.9626
11
3.12349
21
-1.9623
0
LINE
8
BLACK
6
CONTINUOUS
10
3.12349
20
-1.9623
11
3.12222
21
-1.96145
0
LINE
8
BLACK
6
CONTINUOUS
10
3.12222
20
-1.96145
11
3.12136
21
-1.96017
0
LINE
8
BLACK
6
CONTINUOUS
10
3.12136
20
-1.96017
11
3.12106
21
-1.95866
0
LINE
8
BLACK
6
CONTINUOUS
10
3.12106
20
-1.95866
11
3.12106
21
-1.95079
0
LINE
8
BLACK
6
CONTINUOUS
10
3.12106
20
-1.95079
11
3.12136
21
-1.94928
0
LINE
8
BLACK
6
CONTINUOUS
10
3.12136
20
-1.94928
11
3.12222
21
-1.948
0
LINE
8
BLACK
6
CONTINUOUS
10
3.12222
20
-1.948
11
3.12349
21
-1.94715
0
LINE
8
BLACK
6
CONTINUOUS
10
3.12349
20
-1.94715
11
3.125
21
-1.94685
0
LINE
8
BLACK
6
CONTINUOUS
10
3.125
20
-1.94685
11
3.14213
21
-1.94685
0
LINE
8
BLACK
6
CONTINUOUS
10
3.14213
20
-1.94685
11
3.14363
21
-1.94715
0
LINE
8
BLACK
6
CONTINUOUS
10
3.17572
20
-1.94715
11
3.177
21
-1.948
0
LINE
8
BLACK
6
CONTINUOUS
10
3.177
20
-1.948
11
3.17785
21
-1.94928
0
LINE
8
BLACK
6
CONTINUOUS
10
3.17785
20
-1.94928
11
3.17815
21
-1.95079
0
LINE
8
BLACK
6
CONTINUOUS
10
3.17815
20
-1.95079
11
3.17815
21
-1.95866
0
LINE
8
BLACK
6
CONTINUOUS
10
3.17815
20
-1.95866
11
3.17785
21
-1.96017
0
LINE
8
BLACK
6
CONTINUOUS
10
3.17785
20
-1.96017
11
3.177
21
-1.96145
0
LINE
8
BLACK
6
CONTINUOUS
10
3.177
20
-1.96145
11
3.17572
21
-1.9623
0
LINE
8
BLACK
6
CONTINUOUS
10
3.17572
20
-1.9623
11
3.17421
21
-1.9626
0
LINE
8
BLACK
6
CONTINUOUS
10
3.17421
20
-1.9626
11
3.15709
21
-1.9626
0
LINE
8
BLACK
6
CONTINUOUS
10
3.15709
20
-1.9626
11
3.15558
21
-1.9623
0
LINE
8
BLACK
6
CONTINUOUS
10
3.15558
20
-1.9623
11
3.1543
21
-1.96145
0
LINE
8
BLACK
6
CONTINUOUS
10
3.1543
20
-1.96145
11
3.15345
21
-1.96017
0
LINE
8
BLACK
6
CONTINUOUS
10
3.15345
20
-1.96017
11
3.15315
21
-1.95866
0
LINE
8
BLACK
6
CONTINUOUS
10
3.15315
20
-1.95866
11
3.15315
21
-1.95079
0
LINE
8
BLACK
6
CONTINUOUS
10
3.15315
20
-1.95079
11
3.15345
21
-1.94928
0
LINE
8
BLACK
6
CONTINUOUS
10
3.15345
20
-1.94928
11
3.1543
21
-1.948
0
LINE
8
BLACK
6
CONTINUOUS
10
3.1543
20
-1.948
11
3.15558
21
-1.94715
0
LINE
8
BLACK
6
CONTINUOUS
10
3.15558
20
-1.94715
11
3.15709
21
-1.94685
0
LINE
8
BLACK
6
CONTINUOUS
10
3.15709
20
-1.94685
11
3.17421
21
-1.94685
0
LINE
8
BLACK
6
CONTINUOUS
10
3.17421
20
-1.94685
11
3.17572
21
-1.94715
  0
ENDSEC
  0
EOF
