  0
SECTION
  2
HEADER
  9
$ANGBASE
  50
0.0
  9
$ANGDIR
  70
1
  9
$MEASUREMENT
  70
0
  0
ENDSEC
  0
SECTION
  2
TABLES
  0
TABLE
  2
LTYPE
  70
4
  0
LTYPE
  5
40F
  2
CONTINUOUS
  70
0
  3
Solid line
  72
65
  73
0
  40
0.0
  0
LTYPE
  5
410
  2
DASHDOT
 70
0
  3
Dash Dot ____ _ ____ _
 72
65
 73
4
 40
2.0
 49
1.25
 49
-0.25
 49
0.25
 49
-0.25
  0
LTYPE
  5
411
  2
DASHED
 70
0
  3
Dashed __ __ __ __ __
 72
65
 73
2
 40
0.75
 49
0.5
 49
-0.25
  0
LTYPE
  5
43B
  2
DOTTED
 70
0
  3
Dotted .  .  .  .
 72
65
 73
2
 40
0.2
 49
0.0
 49
-0.2
  0
ENDTAB
  0
TABLE
  2
STYLE
  70
4
  0
STYLE
  2
KICAD
  70
0
  40
0
  41
1
  42
1
  50
0
  71
0
  3
isocp.shx
  0
STYLE
  2
KICADB
  70
0
  40
0
  41
1
  42
1
  50
0
  71
0
  3
isocp.shx
  0
STYLE
  2
KICADI
  70
0
  40
0
  41
1
  42
1
  50
15
  71
0
  3
isocp.shx
  0
STYLE
  2
KICADBI
  70
0
  40
0
  41
1
  42
1
  50
15
  71
0
  3
isocp.shx
  0
ENDTAB
  0
TABLE
  2
LAYER
  70
1
  0
LAYER
  2
BLACK
  70
0
  62
7
  6
CONTINUOUS
  0
ENDTAB
  0
ENDSEC
  0
SECTION
  2
ENTITIES
0
LINE
8
BLACK
6
CONTINUOUS
10
3.4638
20
-2.66595
11
3.46535
21
-2.66725
0
LINE
8
BLACK
6
CONTINUOUS
10
3.46535
20
-2.66725
11
3.4657
21
-2.66924
0
LINE
8
BLACK
6
CONTINUOUS
10
3.4657
20
-2.66924
11
3.46469
21
-2.67099
0
LINE
8
BLACK
6
CONTINUOUS
10
3.46469
20
-2.67099
11
3.46279
21
-2.67168
0
LINE
8
BLACK
6
CONTINUOUS
10
3.46279
20
-2.67168
11
3.44151
21
-2.67168
0
LINE
8
BLACK
6
CONTINUOUS
10
3.44151
20
-2.67168
11
3.44084
21
-2.67235
0
LINE
8
BLACK
6
CONTINUOUS
10
3.44084
20
-2.67235
11
3.43949
21
-2.67505
0
LINE
8
BLACK
6
CONTINUOUS
10
3.43949
20
-2.67505
11
3.43949
21
-2.67928
0
LINE
8
BLACK
6
CONTINUOUS
10
3.43949
20
-2.67928
11
3.44062
21
-2.68153
0
LINE
8
BLACK
6
CONTINUOUS
10
3.44062
20
-2.68153
11
3.44286
21
-2.68265
0
LINE
8
BLACK
6
CONTINUOUS
10
3.44286
20
-2.68265
11
3.46279
21
-2.68265
0
LINE
8
BLACK
6
CONTINUOUS
10
3.46279
20
-2.68265
11
3.4638
21
-2.68283
0
LINE
8
BLACK
6
CONTINUOUS
10
3.4638
20
-2.68283
11
3.46535
21
-2.68413
0
LINE
8
BLACK
6
CONTINUOUS
10
3.46535
20
-2.68413
11
3.4657
21
-2.68611
0
LINE
8
BLACK
6
CONTINUOUS
10
3.4657
20
-2.68611
11
3.46469
21
-2.68786
0
LINE
8
BLACK
6
CONTINUOUS
10
3.46469
20
-2.68786
11
3.46279
21
-2.68855
0
LINE
8
BLACK
6
CONTINUOUS
10
3.46279
20
-2.68855
11
3.44217
21
-2.68855
0
LINE
8
BLACK
6
CONTINUOUS
10
3.44217
20
-2.68855
11
3.44116
21
-2.68838
0
LINE
8
BLACK
6
CONTINUOUS
10
3.44116
20
-2.68838
11
3.44102
21
-2.68826
0
LINE
8
BLACK
6
CONTINUOUS
10
3.44102
20
-2.68826
11
3.44085
21
-2.68824
0
LINE
8
BLACK
6
CONTINUOUS
10
3.44085
20
-2.68824
11
3.4371
21
-2.68637
0
LINE
8
BLACK
6
CONTINUOUS
10
3.4371
20
-2.68637
11
3.43627
21
-2.68576
0
LINE
8
BLACK
6
CONTINUOUS
10
3.43627
20
-2.68576
11
3.4361
21
-2.68535
0
LINE
8
BLACK
6
CONTINUOUS
10
3.4361
20
-2.68535
11
3.43578
21
-2.68505
0
LINE
8
BLACK
6
CONTINUOUS
10
3.43578
20
-2.68505
11
3.4339
21
-2.6813
0
LINE
8
BLACK
6
CONTINUOUS
10
3.4339
20
-2.6813
11
3.43361
21
-2.68032
0
LINE
8
BLACK
6
CONTINUOUS
10
3.43361
20
-2.68032
11
3.43365
21
-2.68014
0
LINE
8
BLACK
6
CONTINUOUS
10
3.43365
20
-2.68014
11
3.43359
21
-2.67998
0
LINE
8
BLACK
6
CONTINUOUS
10
3.43359
20
-2.67998
11
3.43359
21
-2.67435
0
LINE
8
BLACK
6
CONTINUOUS
10
3.43359
20
-2.67435
11
3.43377
21
-2.67334
0
LINE
8
BLACK
6
CONTINUOUS
10
3.43377
20
-2.67334
11
3.43388
21
-2.67321
0
LINE
8
BLACK
6
CONTINUOUS
10
3.43388
20
-2.67321
11
3.4339
21
-2.67303
0
LINE
8
BLACK
6
CONTINUOUS
10
3.4339
20
-2.67303
11
3.43492
21
-2.67099
0
LINE
8
BLACK
6
CONTINUOUS
10
3.43492
20
-2.67099
11
3.43398
21
-2.67021
0
LINE
8
BLACK
6
CONTINUOUS
10
3.43398
20
-2.67021
11
3.43363
21
-2.66822
0
LINE
8
BLACK
6
CONTINUOUS
10
3.43363
20
-2.66822
11
3.43464
21
-2.66647
0
LINE
8
BLACK
6
CONTINUOUS
10
3.43464
20
-2.66647
11
3.43654
21
-2.66578
0
LINE
8
BLACK
6
CONTINUOUS
10
3.43654
20
-2.66578
11
3.46279
21
-2.66578
0
LINE
8
BLACK
6
CONTINUOUS
10
3.46279
20
-2.66578
11
3.4638
21
-2.66595
0
LINE
8
BLACK
6
CONTINUOUS
10
3.45817
20
-2.63033
11
3.45831
21
-2.63045
0
LINE
8
BLACK
6
CONTINUOUS
10
3.45831
20
-2.63045
11
3.45848
21
-2.63047
0
LINE
8
BLACK
6
CONTINUOUS
10
3.45848
20
-2.63047
11
3.46223
21
-2.63234
0
LINE
8
BLACK
6
CONTINUOUS
10
3.46223
20
-2.63234
11
3.46306
21
-2.63295
0
LINE
8
BLACK
6
CONTINUOUS
10
3.46306
20
-2.63295
11
3.46323
21
-2.63336
0
LINE
8
BLACK
6
CONTINUOUS
10
3.46323
20
-2.63336
11
3.46355
21
-2.63366
0
LINE
8
BLACK
6
CONTINUOUS
10
3.46355
20
-2.63366
11
3.46543
21
-2.63741
0
LINE
8
BLACK
6
CONTINUOUS
10
3.46543
20
-2.63741
11
3.46572
21
-2.6384
0
LINE
8
BLACK
6
CONTINUOUS
10
3.46572
20
-2.6384
11
3.46568
21
-2.63857
0
LINE
8
BLACK
6
CONTINUOUS
10
3.46568
20
-2.63857
11
3.46574
21
-2.63873
0
LINE
8
BLACK
6
CONTINUOUS
10
3.46574
20
-2.63873
11
3.46574
21
-2.64623
0
LINE
8
BLACK
6
CONTINUOUS
10
3.46574
20
-2.64623
11
3.46556
21
-2.64724
0
LINE
8
BLACK
6
CONTINUOUS
10
3.46556
20
-2.64724
11
3.46545
21
-2.64738
0
LINE
8
BLACK
6
CONTINUOUS
10
3.46545
20
-2.64738
11
3.46543
21
-2.64755
0
LINE
8
BLACK
6
CONTINUOUS
10
3.46543
20
-2.64755
11
3.46355
21
-2.6513
0
LINE
8
BLACK
6
CONTINUOUS
10
3.46355
20
-2.6513
11
3.46294
21
-2.65213
0
LINE
8
BLACK
6
CONTINUOUS
10
3.46294
20
-2.65213
11
3.46109
21
-2.65293
0
LINE
8
BLACK
6
CONTINUOUS
10
3.46109
20
-2.65293
11
3.45915
21
-2.65235
0
LINE
8
BLACK
6
CONTINUOUS
10
3.45915
20
-2.65235
11
3.45804
21
-2.65067
0
LINE
8
BLACK
6
CONTINUOUS
10
3.45804
20
-2.65067
11
3.45827
21
-2.64866
0
LINE
8
BLACK
6
CONTINUOUS
10
3.45827
20
-2.64866
11
3.45984
21
-2.64553
0
LINE
8
BLACK
6
CONTINUOUS
10
3.45984
20
-2.64553
11
3.45984
21
-2.63943
0
LINE
8
BLACK
6
CONTINUOUS
10
3.45984
20
-2.63943
11
3.45871
21
-2.63718
0
LINE
8
BLACK
6
CONTINUOUS
10
3.45871
20
-2.63718
11
3.45647
21
-2.63606
0
LINE
8
BLACK
6
CONTINUOUS
10
3.45647
20
-2.63606
11
3.45209
21
-2.63606
0
LINE
8
BLACK
6
CONTINUOUS
10
3.45209
20
-2.63606
11
3.44881
21
-2.65244
0
LINE
8
BLACK
6
CONTINUOUS
10
3.44881
20
-2.65244
11
3.44844
21
-2.65339
0
LINE
8
BLACK
6
CONTINUOUS
10
3.44844
20
-2.65339
11
3.44806
21
-2.6537
0
LINE
8
BLACK
6
CONTINUOUS
10
3.44806
20
-2.6537
11
3.44781
21
-2.65412
0
LINE
8
BLACK
6
CONTINUOUS
10
3.44781
20
-2.65412
11
3.44729
21
-2.65431
0
LINE
8
BLACK
6
CONTINUOUS
10
3.44729
20
-2.65431
11
3.44686
21
-2.65465
0
LINE
8
BLACK
6
CONTINUOUS
10
3.44686
20
-2.65465
11
3.44637
21
-2.65464
0
LINE
8
BLACK
6
CONTINUOUS
10
3.44637
20
-2.65464
11
3.44592
21
-2.65481
0
LINE
8
BLACK
6
CONTINUOUS
10
3.44592
20
-2.65481
11
3.44217
21
-2.65481
0
LINE
8
BLACK
6
CONTINUOUS
10
3.44217
20
-2.65481
11
3.44116
21
-2.65463
0
LINE
8
BLACK
6
CONTINUOUS
10
3.44116
20
-2.65463
11
3.44102
21
-2.65452
0
LINE
8
BLACK
6
CONTINUOUS
10
3.44102
20
-2.65452
11
3.44085
21
-2.6545
0
LINE
8
BLACK
6
CONTINUOUS
10
3.44085
20
-2.6545
11
3.4371
21
-2.65262
0
LINE
8
BLACK
6
CONTINUOUS
10
3.4371
20
-2.65262
11
3.43627
21
-2.65201
0
LINE
8
BLACK
6
CONTINUOUS
10
3.43627
20
-2.65201
11
3.4361
21
-2.65161
0
LINE
8
BLACK
6
CONTINUOUS
10
3.4361
20
-2.65161
11
3.43578
21
-2.6513
0
LINE
8
BLACK
6
CONTINUOUS
10
3.43578
20
-2.6513
11
3.4339
21
-2.64755
0
LINE
8
BLACK
6
CONTINUOUS
10
3.4339
20
-2.64755
11
3.43361
21
-2.64657
0
LINE
8
BLACK
6
CONTINUOUS
10
3.43361
20
-2.64657
11
3.43365
21
-2.6464
0
LINE
8
BLACK
6
CONTINUOUS
10
3.43365
20
-2.6464
11
3.43359
21
-2.64623
0
LINE
8
BLACK
6
CONTINUOUS
10
3.43359
20
-2.64623
11
3.43359
21
-2.63873
0
LINE
8
BLACK
6
CONTINUOUS
10
3.43359
20
-2.63873
11
3.43377
21
-2.63772
0
LINE
8
BLACK
6
CONTINUOUS
10
3.43377
20
-2.63772
11
3.43388
21
-2.63759
0
LINE
8
BLACK
6
CONTINUOUS
10
3.43388
20
-2.63759
11
3.4339
21
-2.63741
0
LINE
8
BLACK
6
CONTINUOUS
10
3.4339
20
-2.63741
11
3.43578
21
-2.63366
0
LINE
8
BLACK
6
CONTINUOUS
10
3.43578
20
-2.63366
11
3.43639
21
-2.63284
0
LINE
8
BLACK
6
CONTINUOUS
10
3.43639
20
-2.63284
11
3.43679
21
-2.63266
0
LINE
8
BLACK
6
CONTINUOUS
10
3.43679
20
-2.63266
11
3.4371
21
-2.63234
0
LINE
8
BLACK
6
CONTINUOUS
10
3.4371
20
-2.63234
11
3.44085
21
-2.63047
0
LINE
8
BLACK
6
CONTINUOUS
10
3.44085
20
-2.63047
11
3.44183
21
-2.63017
0
LINE
8
BLACK
6
CONTINUOUS
10
3.44183
20
-2.63017
11
3.442
21
-2.63022
0
LINE
8
BLACK
6
CONTINUOUS
10
3.442
20
-2.63022
11
3.44217
21
-2.63016
0
LINE
8
BLACK
6
CONTINUOUS
10
3.44217
20
-2.63016
11
3.45716
21
-2.63016
0
LINE
8
BLACK
6
CONTINUOUS
10
3.45716
20
-2.63016
11
3.45817
21
-2.63033
0
LINE
8
BLACK
6
CONTINUOUS
10
3.44062
20
-2.63718
11
3.43949
21
-2.63943
0
LINE
8
BLACK
6
CONTINUOUS
10
3.43949
20
-2.63943
11
3.43949
21
-2.64553
0
LINE
8
BLACK
6
CONTINUOUS
10
3.43949
20
-2.64553
11
3.44062
21
-2.64778
0
LINE
8
BLACK
6
CONTINUOUS
10
3.44062
20
-2.64778
11
3.44286
21
-2.6489
0
LINE
8
BLACK
6
CONTINUOUS
10
3.44286
20
-2.6489
11
3.44349
21
-2.6489
0
LINE
8
BLACK
6
CONTINUOUS
10
3.44349
20
-2.6489
11
3.44606
21
-2.63606
0
LINE
8
BLACK
6
CONTINUOUS
10
3.44606
20
-2.63606
11
3.44286
21
-2.63606
0
LINE
8
BLACK
6
CONTINUOUS
10
3.44286
20
-2.63606
11
3.44062
21
-2.63718
0
LINE
8
BLACK
6
CONTINUOUS
10
3.46378
20
-2.60783
11
3.46467
21
-2.60834
0
LINE
8
BLACK
6
CONTINUOUS
10
3.46467
20
-2.60834
11
3.46468
21
-2.60835
0
LINE
8
BLACK
6
CONTINUOUS
10
3.46468
20
-2.60835
11
3.4647
21
-2.60836
0
LINE
8
BLACK
6
CONTINUOUS
10
3.4647
20
-2.60836
11
3.46519
21
-2.60922
0
LINE
8
BLACK
6
CONTINUOUS
10
3.46519
20
-2.60922
11
3.46569
21
-2.61008
0
LINE
8
BLACK
6
CONTINUOUS
10
3.46569
20
-2.61008
11
3.46569
21
-2.6101
0
LINE
8
BLACK
6
CONTINUOUS
10
3.46569
20
-2.6101
11
3.4657
21
-2.61012
0
LINE
8
BLACK
6
CONTINUOUS
10
3.4657
20
-2.61012
11
3.46552
21
-2.61109
0
LINE
8
BLACK
6
CONTINUOUS
10
3.46552
20
-2.61109
11
3.46535
21
-2.61207
0
LINE
8
BLACK
6
CONTINUOUS
10
3.46535
20
-2.61207
11
3.46534
21
-2.61208
0
LINE
8
BLACK
6
CONTINUOUS
10
3.46534
20
-2.61208
11
3.46534
21
-2.6121
0
LINE
8
BLACK
6
CONTINUOUS
10
3.46534
20
-2.6121
11
3.46457
21
-2.61274
0
LINE
8
BLACK
6
CONTINUOUS
10
3.46457
20
-2.61274
11
3.46381
21
-2.61338
0
LINE
8
BLACK
6
CONTINUOUS
10
3.46381
20
-2.61338
11
3.4638
21
-2.61338
0
LINE
8
BLACK
6
CONTINUOUS
10
3.4638
20
-2.61338
11
3.46378
21
-2.61339
0
LINE
8
BLACK
6
CONTINUOUS
10
3.46378
20
-2.61339
11
3.43753
21
-2.62277
0
LINE
8
BLACK
6
CONTINUOUS
10
3.43753
20
-2.62277
11
3.43652
21
-2.62294
0
LINE
8
BLACK
6
CONTINUOUS
10
3.43652
20
-2.62294
11
3.43463
21
-2.62224
0
LINE
8
BLACK
6
CONTINUOUS
10
3.43463
20
-2.62224
11
3.43363
21
-2.62048
0
LINE
8
BLACK
6
CONTINUOUS
10
3.43363
20
-2.62048
11
3.43399
21
-2.61849
0
LINE
8
BLACK
6
CONTINUOUS
10
3.43399
20
-2.61849
11
3.43555
21
-2.6172
0
LINE
8
BLACK
6
CONTINUOUS
10
3.43555
20
-2.6172
11
3.45401
21
-2.61061
0
LINE
8
BLACK
6
CONTINUOUS
10
3.45401
20
-2.61061
11
3.43555
21
-2.60402
0
LINE
8
BLACK
6
CONTINUOUS
10
3.43555
20
-2.60402
11
3.43466
21
-2.60351
0
LINE
8
BLACK
6
CONTINUOUS
10
3.43466
20
-2.60351
11
3.43364
21
-2.60177
0
LINE
8
BLACK
6
CONTINUOUS
10
3.43364
20
-2.60177
11
3.43398
21
-2.59978
0
LINE
8
BLACK
6
CONTINUOUS
10
3.43398
20
-2.59978
11
3.43551
21
-2.59847
0
LINE
8
BLACK
6
CONTINUOUS
10
3.43551
20
-2.59847
11
3.43753
21
-2.59846
0
LINE
8
BLACK
6
CONTINUOUS
10
3.43753
20
-2.59846
11
3.46378
21
-2.60783
0
LINE
8
BLACK
6
CONTINUOUS
10
3.46317
20
-2.56648
11
3.4633
21
-2.56646
0
LINE
8
BLACK
6
CONTINUOUS
10
3.4633
20
-2.56646
11
3.46341
21
-2.56652
0
LINE
8
BLACK
6
CONTINUOUS
10
3.46341
20
-2.56652
11
3.4638
21
-2.56659
0
LINE
8
BLACK
6
CONTINUOUS
10
3.4638
20
-2.56659
11
3.46439
21
-2.56708
0
LINE
8
BLACK
6
CONTINUOUS
10
3.46439
20
-2.56708
11
3.46505
21
-2.56747
0
LINE
8
BLACK
6
CONTINUOUS
10
3.46505
20
-2.56747
11
3.46514
21
-2.56772
0
LINE
8
BLACK
6
CONTINUOUS
10
3.46514
20
-2.56772
11
3.46535
21
-2.56789
0
LINE
8
BLACK
6
CONTINUOUS
10
3.46535
20
-2.56789
11
3.46548
21
-2.56865
0
LINE
8
BLACK
6
CONTINUOUS
10
3.46548
20
-2.56865
11
3.46574
21
-2.56937
0
LINE
8
BLACK
6
CONTINUOUS
10
3.46574
20
-2.56937
11
3.46574
21
-2.58811
0
LINE
8
BLACK
6
CONTINUOUS
10
3.46574
20
-2.58811
11
3.46556
21
-2.58912
0
LINE
8
BLACK
6
CONTINUOUS
10
3.46556
20
-2.58912
11
3.46426
21
-2.59067
0
LINE
8
BLACK
6
CONTINUOUS
10
3.46426
20
-2.59067
11
3.46228
21
-2.59102
0
LINE
8
BLACK
6
CONTINUOUS
10
3.46228
20
-2.59102
11
3.46053
21
-2.59001
0
LINE
8
BLACK
6
CONTINUOUS
10
3.46053
20
-2.59001
11
3.45984
21
-2.58811
0
LINE
8
BLACK
6
CONTINUOUS
10
3.45984
20
-2.58811
11
3.45984
21
-2.57232
0
LINE
8
BLACK
6
CONTINUOUS
10
3.45984
20
-2.57232
11
3.44512
21
-2.57232
0
LINE
8
BLACK
6
CONTINUOUS
10
3.44512
20
-2.57232
11
3.44512
21
-2.58249
0
LINE
8
BLACK
6
CONTINUOUS
10
3.44512
20
-2.58249
11
3.44494
21
-2.5835
0
LINE
8
BLACK
6
CONTINUOUS
10
3.44494
20
-2.5835
11
3.44364
21
-2.58505
0
LINE
8
BLACK
6
CONTINUOUS
10
3.44364
20
-2.58505
11
3.44165
21
-2.5854
0
LINE
8
BLACK
6
CONTINUOUS
10
3.44165
20
-2.5854
11
3.4399
21
-2.58439
0
LINE
8
BLACK
6
CONTINUOUS
10
3.4399
20
-2.58439
11
3.43921
21
-2.58249
0
LINE
8
BLACK
6
CONTINUOUS
10
3.43921
20
-2.58249
11
3.43921
21
-2.57232
0
LINE
8
BLACK
6
CONTINUOUS
10
3.43921
20
-2.57232
11
3.42637
21
-2.57232
0
LINE
8
BLACK
6
CONTINUOUS
10
3.42637
20
-2.57232
11
3.42637
21
-2.58811
0
LINE
8
BLACK
6
CONTINUOUS
10
3.42637
20
-2.58811
11
3.42619
21
-2.58912
0
LINE
8
BLACK
6
CONTINUOUS
10
3.42619
20
-2.58912
11
3.42489
21
-2.59067
0
LINE
8
BLACK
6
CONTINUOUS
10
3.42489
20
-2.59067
11
3.42291
21
-2.59102
0
LINE
8
BLACK
6
CONTINUOUS
10
3.42291
20
-2.59102
11
3.42116
21
-2.59001
0
LINE
8
BLACK
6
CONTINUOUS
10
3.42116
20
-2.59001
11
3.42047
21
-2.58811
0
LINE
8
BLACK
6
CONTINUOUS
10
3.42047
20
-2.58811
11
3.42047
21
-2.56937
0
LINE
8
BLACK
6
CONTINUOUS
10
3.42047
20
-2.56937
11
3.42053
21
-2.56898
0
LINE
8
BLACK
6
CONTINUOUS
10
3.42053
20
-2.56898
11
3.42051
21
-2.56885
0
LINE
8
BLACK
6
CONTINUOUS
10
3.42051
20
-2.56885
11
3.42058
21
-2.56874
0
LINE
8
BLACK
6
CONTINUOUS
10
3.42058
20
-2.56874
11
3.42064
21
-2.56836
0
LINE
8
BLACK
6
CONTINUOUS
10
3.42064
20
-2.56836
11
3.42114
21
-2.56777
0
LINE
8
BLACK
6
CONTINUOUS
10
3.42114
20
-2.56777
11
3.42152
21
-2.5671
0
LINE
8
BLACK
6
CONTINUOUS
10
3.42152
20
-2.5671
11
3.42177
21
-2.56701
0
LINE
8
BLACK
6
CONTINUOUS
10
3.42177
20
-2.56701
11
3.42194
21
-2.56681
0
LINE
8
BLACK
6
CONTINUOUS
10
3.42194
20
-2.56681
11
3.4227
21
-2.56668
0
LINE
8
BLACK
6
CONTINUOUS
10
3.4227
20
-2.56668
11
3.42342
21
-2.56641
0
LINE
8
BLACK
6
CONTINUOUS
10
3.42342
20
-2.56641
11
3.46279
21
-2.56641
0
LINE
8
BLACK
6
CONTINUOUS
10
3.46279
20
-2.56641
11
3.46317
21
-2.56648
0
LINE
8
BLACK
6
CONTINUOUS
10
3.4688
20
-2.5281
11
3.46949
21
-2.53
0
LINE
8
BLACK
6
CONTINUOUS
10
3.46949
20
-2.53
11
3.46949
21
-2.55999
0
LINE
8
BLACK
6
CONTINUOUS
10
3.46949
20
-2.55999
11
3.46931
21
-2.561
0
LINE
8
BLACK
6
CONTINUOUS
10
3.46931
20
-2.561
11
3.46801
21
-2.56255
0
LINE
8
BLACK
6
CONTINUOUS
10
3.46801
20
-2.56255
11
3.46602
21
-2.5629
0
LINE
8
BLACK
6
CONTINUOUS
10
3.46602
20
-2.5629
11
3.46428
21
-2.56189
0
LINE
8
BLACK
6
CONTINUOUS
10
3.46428
20
-2.56189
11
3.46358
21
-2.55999
0
LINE
8
BLACK
6
CONTINUOUS
10
3.46358
20
-2.55999
11
3.46358
21
-2.53
0
LINE
8
BLACK
6
CONTINUOUS
10
3.46358
20
-2.53
11
3.46376
21
-2.52899
0
LINE
8
BLACK
6
CONTINUOUS
10
3.46376
20
-2.52899
11
3.46506
21
-2.52744
0
LINE
8
BLACK
6
CONTINUOUS
10
3.46506
20
-2.52744
11
3.46705
21
-2.52709
0
LINE
8
BLACK
6
CONTINUOUS
10
3.46705
20
-2.52709
11
3.4688
21
-2.5281
0
LINE
8
BLACK
6
CONTINUOUS
10
3.4563
20
-2.4991
11
3.45643
21
-2.49921
0
LINE
8
BLACK
6
CONTINUOUS
10
3.45643
20
-2.49921
11
3.45661
21
-2.49923
0
LINE
8
BLACK
6
CONTINUOUS
10
3.45661
20
-2.49923
11
3.46036
21
-2.50111
0
LINE
8
BLACK
6
CONTINUOUS
10
3.46036
20
-2.50111
11
3.46107
21
-2.50163
0
LINE
8
BLACK
6
CONTINUOUS
10
3.46107
20
-2.50163
11
3.46113
21
-2.50166
0
LINE
8
BLACK
6
CONTINUOUS
10
3.46113
20
-2.50166
11
3.463
21
-2.50354
0
LINE
8
BLACK
6
CONTINUOUS
10
3.463
20
-2.50354
11
3.46351
21
-2.50426
0
LINE
8
BLACK
6
CONTINUOUS
10
3.46351
20
-2.50426
11
3.46355
21
-2.5043
0
LINE
8
BLACK
6
CONTINUOUS
10
3.46355
20
-2.5043
11
3.46543
21
-2.50805
0
LINE
8
BLACK
6
CONTINUOUS
10
3.46543
20
-2.50805
11
3.46572
21
-2.50904
0
LINE
8
BLACK
6
CONTINUOUS
10
3.46572
20
-2.50904
11
3.46568
21
-2.50921
0
LINE
8
BLACK
6
CONTINUOUS
10
3.46568
20
-2.50921
11
3.46574
21
-2.50937
0
LINE
8
BLACK
6
CONTINUOUS
10
3.46574
20
-2.50937
11
3.46574
21
-2.51687
0
LINE
8
BLACK
6
CONTINUOUS
10
3.46574
20
-2.51687
11
3.46556
21
-2.51788
0
LINE
8
BLACK
6
CONTINUOUS
10
3.46556
20
-2.51788
11
3.46545
21
-2.51802
0
LINE
8
BLACK
6
CONTINUOUS
10
3.46545
20
-2.51802
11
3.46543
21
-2.51819
0
LINE
8
BLACK
6
CONTINUOUS
10
3.46543
20
-2.51819
11
3.46507
21
-2.51891
0
LINE
8
BLACK
6
CONTINUOUS
10
3.46507
20
-2.51891
11
3.46535
21
-2.51915
0
LINE
8
BLACK
6
CONTINUOUS
10
3.46535
20
-2.51915
11
3.4657
21
-2.52114
0
LINE
8
BLACK
6
CONTINUOUS
10
3.4657
20
-2.52114
11
3.46469
21
-2.52288
0
LINE
8
BLACK
6
CONTINUOUS
10
3.46469
20
-2.52288
11
3.46279
21
-2.52358
0
LINE
8
BLACK
6
CONTINUOUS
10
3.46279
20
-2.52358
11
3.42342
21
-2.52358
0
LINE
8
BLACK
6
CONTINUOUS
10
3.42342
20
-2.52358
11
3.42241
21
-2.5234
0
LINE
8
BLACK
6
CONTINUOUS
10
3.42241
20
-2.5234
11
3.42086
21
-2.5221
0
LINE
8
BLACK
6
CONTINUOUS
10
3.42086
20
-2.5221
11
3.42051
21
-2.52011
0
LINE
8
BLACK
6
CONTINUOUS
10
3.42051
20
-2.52011
11
3.42152
21
-2.51836
0
LINE
8
BLACK
6
CONTINUOUS
10
3.42152
20
-2.51836
11
3.42342
21
-2.51767
0
LINE
8
BLACK
6
CONTINUOUS
10
3.42342
20
-2.51767
11
3.43374
21
-2.51767
0
LINE
8
BLACK
6
CONTINUOUS
10
3.43374
20
-2.51767
11
3.43361
21
-2.51721
0
LINE
8
BLACK
6
CONTINUOUS
10
3.43361
20
-2.51721
11
3.43365
21
-2.51704
0
LINE
8
BLACK
6
CONTINUOUS
10
3.43365
20
-2.51704
11
3.43359
21
-2.51687
0
LINE
8
BLACK
6
CONTINUOUS
10
3.43359
20
-2.51687
11
3.43359
21
-2.50937
0
LINE
8
BLACK
6
CONTINUOUS
10
3.43359
20
-2.50937
11
3.43377
21
-2.50836
0
LINE
8
BLACK
6
CONTINUOUS
10
3.43377
20
-2.50836
11
3.43388
21
-2.50823
0
LINE
8
BLACK
6
CONTINUOUS
10
3.43388
20
-2.50823
11
3.4339
21
-2.50805
0
LINE
8
BLACK
6
CONTINUOUS
10
3.4339
20
-2.50805
11
3.43578
21
-2.5043
0
LINE
8
BLACK
6
CONTINUOUS
10
3.43578
20
-2.5043
11
3.4363
21
-2.50359
0
LINE
8
BLACK
6
CONTINUOUS
10
3.4363
20
-2.50359
11
3.43633
21
-2.50354
0
LINE
8
BLACK
6
CONTINUOUS
10
3.43633
20
-2.50354
11
3.4382
21
-2.50166
0
LINE
8
BLACK
6
CONTINUOUS
10
3.4382
20
-2.50166
11
3.43893
21
-2.50116
0
LINE
8
BLACK
6
CONTINUOUS
10
3.43893
20
-2.50116
11
3.43897
21
-2.50111
0
LINE
8
BLACK
6
CONTINUOUS
10
3.43897
20
-2.50111
11
3.44272
21
-2.49923
0
LINE
8
BLACK
6
CONTINUOUS
10
3.44272
20
-2.49923
11
3.4437
21
-2.49894
0
LINE
8
BLACK
6
CONTINUOUS
10
3.4437
20
-2.49894
11
3.44387
21
-2.49898
0
LINE
8
BLACK
6
CONTINUOUS
10
3.44387
20
-2.49898
11
3.44404
21
-2.49892
0
LINE
8
BLACK
6
CONTINUOUS
10
3.44404
20
-2.49892
11
3.45529
21
-2.49892
0
LINE
8
BLACK
6
CONTINUOUS
10
3.45529
20
-2.49892
11
3.4563
21
-2.4991
0
LINE
8
BLACK
6
CONTINUOUS
10
3.44204
20
-2.50618
11
3.44084
21
-2.50737
0
LINE
8
BLACK
6
CONTINUOUS
10
3.44084
20
-2.50737
11
3.43949
21
-2.51007
0
LINE
8
BLACK
6
CONTINUOUS
10
3.43949
20
-2.51007
11
3.43949
21
-2.51618
0
LINE
8
BLACK
6
CONTINUOUS
10
3.43949
20
-2.51618
11
3.44024
21
-2.51767
0
LINE
8
BLACK
6
CONTINUOUS
10
3.44024
20
-2.51767
11
3.45909
21
-2.51767
0
LINE
8
BLACK
6
CONTINUOUS
10
3.45909
20
-2.51767
11
3.45984
21
-2.51618
0
LINE
8
BLACK
6
CONTINUOUS
10
3.45984
20
-2.51618
11
3.45984
21
-2.51007
0
LINE
8
BLACK
6
CONTINUOUS
10
3.45984
20
-2.51007
11
3.45849
21
-2.50737
0
LINE
8
BLACK
6
CONTINUOUS
10
3.45849
20
-2.50737
11
3.45729
21
-2.50618
0
LINE
8
BLACK
6
CONTINUOUS
10
3.45729
20
-2.50618
11
3.45459
21
-2.50483
0
LINE
8
BLACK
6
CONTINUOUS
10
3.45459
20
-2.50483
11
3.44474
21
-2.50483
0
LINE
8
BLACK
6
CONTINUOUS
10
3.44474
20
-2.50483
11
3.44204
21
-2.50618
0
LINE
8
BLACK
6
CONTINUOUS
10
3.4563
20
-2.46348
11
3.45643
21
-2.46359
0
LINE
8
BLACK
6
CONTINUOUS
10
3.45643
20
-2.46359
11
3.45661
21
-2.46361
0
LINE
8
BLACK
6
CONTINUOUS
10
3.45661
20
-2.46361
11
3.46036
21
-2.46549
0
LINE
8
BLACK
6
CONTINUOUS
10
3.46036
20
-2.46549
11
3.46107
21
-2.46601
0
LINE
8
BLACK
6
CONTINUOUS
10
3.46107
20
-2.46601
11
3.46113
21
-2.46604
0
LINE
8
BLACK
6
CONTINUOUS
10
3.46113
20
-2.46604
11
3.463
21
-2.46792
0
LINE
8
BLACK
6
CONTINUOUS
10
3.463
20
-2.46792
11
3.46351
21
-2.46864
0
LINE
8
BLACK
6
CONTINUOUS
10
3.46351
20
-2.46864
11
3.46355
21
-2.46868
0
LINE
8
BLACK
6
CONTINUOUS
10
3.46355
20
-2.46868
11
3.46543
21
-2.47243
0
LINE
8
BLACK
6
CONTINUOUS
10
3.46543
20
-2.47243
11
3.46572
21
-2.47342
0
LINE
8
BLACK
6
CONTINUOUS
10
3.46572
20
-2.47342
11
3.46568
21
-2.47359
0
LINE
8
BLACK
6
CONTINUOUS
10
3.46568
20
-2.47359
11
3.46574
21
-2.47375
0
LINE
8
BLACK
6
CONTINUOUS
10
3.46574
20
-2.47375
11
3.46574
21
-2.48125
0
LINE
8
BLACK
6
CONTINUOUS
10
3.46574
20
-2.48125
11
3.46556
21
-2.48226
0
LINE
8
BLACK
6
CONTINUOUS
10
3.46556
20
-2.48226
11
3.46545
21
-2.4824
0
LINE
8
BLACK
6
CONTINUOUS
10
3.46545
20
-2.4824
11
3.46543
21
-2.48257
0
LINE
8
BLACK
6
CONTINUOUS
10
3.46543
20
-2.48257
11
3.46507
21
-2.48329
0
LINE
8
BLACK
6
CONTINUOUS
10
3.46507
20
-2.48329
11
3.46535
21
-2.48353
0
LINE
8
BLACK
6
CONTINUOUS
10
3.46535
20
-2.48353
11
3.4657
21
-2.48551
0
LINE
8
BLACK
6
CONTINUOUS
10
3.4657
20
-2.48551
11
3.46469
21
-2.48726
0
LINE
8
BLACK
6
CONTINUOUS
10
3.46469
20
-2.48726
11
3.46279
21
-2.48795
0
LINE
8
BLACK
6
CONTINUOUS
10
3.46279
20
-2.48795
11
3.42342
21
-2.48795
0
LINE
8
BLACK
6
CONTINUOUS
10
3.42342
20
-2.48795
11
3.42241
21
-2.48778
0
LINE
8
BLACK
6
CONTINUOUS
10
3.42241
20
-2.48778
11
3.42086
21
-2.48648
0
LINE
8
BLACK
6
CONTINUOUS
10
3.42086
20
-2.48648
11
3.42051
21
-2.48449
0
LINE
8
BLACK
6
CONTINUOUS
10
3.42051
20
-2.48449
11
3.42152
21
-2.48274
0
LINE
8
BLACK
6
CONTINUOUS
10
3.42152
20
-2.48274
11
3.42342
21
-2.48205
0
LINE
8
BLACK
6
CONTINUOUS
10
3.42342
20
-2.48205
11
3.43374
21
-2.48205
0
LINE
8
BLACK
6
CONTINUOUS
10
3.43374
20
-2.48205
11
3.43361
21
-2.48159
0
LINE
8
BLACK
6
CONTINUOUS
10
3.43361
20
-2.48159
11
3.43365
21
-2.48142
0
LINE
8
BLACK
6
CONTINUOUS
10
3.43365
20
-2.48142
11
3.43359
21
-2.48125
0
LINE
8
BLACK
6
CONTINUOUS
10
3.43359
20
-2.48125
11
3.43359
21
-2.47375
0
LINE
8
BLACK
6
CONTINUOUS
10
3.43359
20
-2.47375
11
3.43377
21
-2.47274
0
LINE
8
BLACK
6
CONTINUOUS
10
3.43377
20
-2.47274
11
3.43388
21
-2.47261
0
LINE
8
BLACK
6
CONTINUOUS
10
3.43388
20
-2.47261
11
3.4339
21
-2.47243
0
LINE
8
BLACK
6
CONTINUOUS
10
3.4339
20
-2.47243
11
3.43578
21
-2.46868
0
LINE
8
BLACK
6
CONTINUOUS
10
3.43578
20
-2.46868
11
3.4363
21
-2.46797
0
LINE
8
BLACK
6
CONTINUOUS
10
3.4363
20
-2.46797
11
3.43633
21
-2.46792
0
LINE
8
BLACK
6
CONTINUOUS
10
3.43633
20
-2.46792
11
3.4382
21
-2.46604
0
LINE
8
BLACK
6
CONTINUOUS
10
3.4382
20
-2.46604
11
3.43893
21
-2.46553
0
LINE
8
BLACK
6
CONTINUOUS
10
3.43893
20
-2.46553
11
3.43897
21
-2.46549
0
LINE
8
BLACK
6
CONTINUOUS
10
3.43897
20
-2.46549
11
3.44272
21
-2.46361
0
LINE
8
BLACK
6
CONTINUOUS
10
3.44272
20
-2.46361
11
3.4437
21
-2.46332
0
LINE
8
BLACK
6
CONTINUOUS
10
3.4437
20
-2.46332
11
3.44387
21
-2.46336
0
LINE
8
BLACK
6
CONTINUOUS
10
3.44387
20
-2.46336
11
3.44404
21
-2.4633
0
LINE
8
BLACK
6
CONTINUOUS
10
3.44404
20
-2.4633
11
3.45529
21
-2.4633
0
LINE
8
BLACK
6
CONTINUOUS
10
3.45529
20
-2.4633
11
3.4563
21
-2.46348
0
LINE
8
BLACK
6
CONTINUOUS
10
3.44204
20
-2.47056
11
3.44084
21
-2.47175
0
LINE
8
BLACK
6
CONTINUOUS
10
3.44084
20
-2.47175
11
3.43949
21
-2.47445
0
LINE
8
BLACK
6
CONTINUOUS
10
3.43949
20
-2.47445
11
3.43949
21
-2.48056
0
LINE
8
BLACK
6
CONTINUOUS
10
3.43949
20
-2.48056
11
3.44024
21
-2.48205
0
LINE
8
BLACK
6
CONTINUOUS
10
3.44024
20
-2.48205
11
3.45909
21
-2.48205
0
LINE
8
BLACK
6
CONTINUOUS
10
3.45909
20
-2.48205
11
3.45984
21
-2.48056
0
LINE
8
BLACK
6
CONTINUOUS
10
3.45984
20
-2.48056
11
3.45984
21
-2.47445
0
LINE
8
BLACK
6
CONTINUOUS
10
3.45984
20
-2.47445
11
3.45849
21
-2.47175
0
LINE
8
BLACK
6
CONTINUOUS
10
3.45849
20
-2.47175
11
3.45729
21
-2.47056
0
LINE
8
BLACK
6
CONTINUOUS
10
3.45729
20
-2.47056
11
3.45459
21
-2.46921
0
LINE
8
BLACK
6
CONTINUOUS
10
3.45459
20
-2.46921
11
3.44474
21
-2.46921
0
LINE
8
BLACK
6
CONTINUOUS
10
3.44474
20
-2.46921
11
3.44204
21
-2.47056
0
LINE
8
BLACK
6
CONTINUOUS
10
3.56834
20
-2.33792
11
3.56851
21
-2.33791
0
LINE
8
BLACK
6
CONTINUOUS
10
3.56851
20
-2.33791
11
3.5692
21
-2.33841
0
LINE
8
BLACK
6
CONTINUOUS
10
3.5692
20
-2.33841
11
3.56994
21
-2.33884
0
LINE
8
BLACK
6
CONTINUOUS
10
3.56994
20
-2.33884
11
3.57
21
-2.339
0
LINE
8
BLACK
6
CONTINUOUS
10
3.57
20
-2.339
11
3.57014
21
-2.3391
0
LINE
8
BLACK
6
CONTINUOUS
10
3.57014
20
-2.3391
11
3.57372
21
-2.34448
0
LINE
8
BLACK
6
CONTINUOUS
10
3.57372
20
-2.34448
11
3.57693
21
-2.34769
0
LINE
8
BLACK
6
CONTINUOUS
10
3.57693
20
-2.34769
11
3.58025
21
-2.34935
0
LINE
8
BLACK
6
CONTINUOUS
10
3.58025
20
-2.34935
11
3.58107
21
-2.34996
0
LINE
8
BLACK
6
CONTINUOUS
10
3.58107
20
-2.34996
11
3.58188
21
-2.35181
0
LINE
8
BLACK
6
CONTINUOUS
10
3.58188
20
-2.35181
11
3.5813
21
-2.35375
0
LINE
8
BLACK
6
CONTINUOUS
10
3.5813
20
-2.35375
11
3.57961
21
-2.35486
0
LINE
8
BLACK
6
CONTINUOUS
10
3.57961
20
-2.35486
11
3.57761
21
-2.35463
0
LINE
8
BLACK
6
CONTINUOUS
10
3.57761
20
-2.35463
11
3.57386
21
-2.35276
0
LINE
8
BLACK
6
CONTINUOUS
10
3.57386
20
-2.35276
11
3.57315
21
-2.35223
0
LINE
8
BLACK
6
CONTINUOUS
10
3.57315
20
-2.35223
11
3.57309
21
-2.3522
0
LINE
8
BLACK
6
CONTINUOUS
10
3.57309
20
-2.3522
11
3.57063
21
-2.34974
0
LINE
8
BLACK
6
CONTINUOUS
10
3.57063
20
-2.34974
11
3.57063
21
-2.37716
0
LINE
8
BLACK
6
CONTINUOUS
10
3.57063
20
-2.37716
11
3.57893
21
-2.37716
0
LINE
8
BLACK
6
CONTINUOUS
10
3.57893
20
-2.37716
11
3.57994
21
-2.37734
0
LINE
8
BLACK
6
CONTINUOUS
10
3.57994
20
-2.37734
11
3.58148
21
-2.37863
0
LINE
8
BLACK
6
CONTINUOUS
10
3.58148
20
-2.37863
11
3.58184
21
-2.38062
0
LINE
8
BLACK
6
CONTINUOUS
10
3.58184
20
-2.38062
11
3.58083
21
-2.38237
0
LINE
8
BLACK
6
CONTINUOUS
10
3.58083
20
-2.38237
11
3.57893
21
-2.38306
0
LINE
8
BLACK
6
CONTINUOUS
10
3.57893
20
-2.38306
11
3.55643
21
-2.38306
0
LINE
8
BLACK
6
CONTINUOUS
10
3.55643
20
-2.38306
11
3.55542
21
-2.38289
0
LINE
8
BLACK
6
CONTINUOUS
10
3.55542
20
-2.38289
11
3.55387
21
-2.38159
0
LINE
8
BLACK
6
CONTINUOUS
10
3.55387
20
-2.38159
11
3.55352
21
-2.3796
0
LINE
8
BLACK
6
CONTINUOUS
10
3.55352
20
-2.3796
11
3.55453
21
-2.37785
0
LINE
8
BLACK
6
CONTINUOUS
10
3.55453
20
-2.37785
11
3.55643
21
-2.37716
0
LINE
8
BLACK
6
CONTINUOUS
10
3.55643
20
-2.37716
11
3.56473
21
-2.37716
0
LINE
8
BLACK
6
CONTINUOUS
10
3.56473
20
-2.37716
11
3.56473
21
-2.34074
0
LINE
8
BLACK
6
CONTINUOUS
10
3.56473
20
-2.34074
11
3.5649
21
-2.33973
0
LINE
8
BLACK
6
CONTINUOUS
10
3.5649
20
-2.33973
11
3.56501
21
-2.3396
0
LINE
8
BLACK
6
CONTINUOUS
10
3.56501
20
-2.3396
11
3.56503
21
-2.33943
0
LINE
8
BLACK
6
CONTINUOUS
10
3.56503
20
-2.33943
11
3.56565
21
-2.33884
0
LINE
8
BLACK
6
CONTINUOUS
10
3.56565
20
-2.33884
11
3.5662
21
-2.33818
0
LINE
8
BLACK
6
CONTINUOUS
10
3.5662
20
-2.33818
11
3.56637
21
-2.33815
0
LINE
8
BLACK
6
CONTINUOUS
10
3.56637
20
-2.33815
11
3.56649
21
-2.33804
0
LINE
8
BLACK
6
CONTINUOUS
10
3.56649
20
-2.33804
11
3.56735
21
-2.33798
0
LINE
8
BLACK
6
CONTINUOUS
10
3.56735
20
-2.33798
11
3.56819
21
-2.33783
0
LINE
8
BLACK
6
CONTINUOUS
10
3.56819
20
-2.33783
11
3.56834
21
-2.33792
0
LINE
8
BLACK
6
CONTINUOUS
10
3.59806
20
-2.33884
11
3.59875
21
-2.34074
0
LINE
8
BLACK
6
CONTINUOUS
10
3.59875
20
-2.34074
11
3.59875
21
-2.36838
0
LINE
8
BLACK
6
CONTINUOUS
10
3.59875
20
-2.36838
11
3.60026
21
-2.37289
0
LINE
8
BLACK
6
CONTINUOUS
10
3.60026
20
-2.37289
11
3.60302
21
-2.37566
0
LINE
8
BLACK
6
CONTINUOUS
10
3.60302
20
-2.37566
11
3.60753
21
-2.37716
0
LINE
8
BLACK
6
CONTINUOUS
10
3.60753
20
-2.37716
11
3.6108
21
-2.37716
0
LINE
8
BLACK
6
CONTINUOUS
10
3.6108
20
-2.37716
11
3.61181
21
-2.37734
0
LINE
8
BLACK
6
CONTINUOUS
10
3.61181
20
-2.37734
11
3.61336
21
-2.37863
0
LINE
8
BLACK
6
CONTINUOUS
10
3.61336
20
-2.37863
11
3.61371
21
-2.38062
0
LINE
8
BLACK
6
CONTINUOUS
10
3.61371
20
-2.38062
11
3.6127
21
-2.38237
0
LINE
8
BLACK
6
CONTINUOUS
10
3.6127
20
-2.38237
11
3.6108
21
-2.38306
0
LINE
8
BLACK
6
CONTINUOUS
10
3.6108
20
-2.38306
11
3.60705
21
-2.38306
0
LINE
8
BLACK
6
CONTINUOUS
10
3.60705
20
-2.38306
11
3.60618
21
-2.38291
0
LINE
8
BLACK
6
CONTINUOUS
10
3.60618
20
-2.38291
11
3.60612
21
-2.38291
0
LINE
8
BLACK
6
CONTINUOUS
10
3.60612
20
-2.38291
11
3.60049
21
-2.38104
0
LINE
8
BLACK
6
CONTINUOUS
10
3.60049
20
-2.38104
11
3.59959
21
-2.38055
0
LINE
8
BLACK
6
CONTINUOUS
10
3.59959
20
-2.38055
11
3.5995
21
-2.3804
0
LINE
8
BLACK
6
CONTINUOUS
10
3.5995
20
-2.3804
11
3.59934
21
-2.38032
0
LINE
8
BLACK
6
CONTINUOUS
10
3.59934
20
-2.38032
11
3.59559
21
-2.37657
0
LINE
8
BLACK
6
CONTINUOUS
10
3.59559
20
-2.37657
11
3.595
21
-2.37573
0
LINE
8
BLACK
6
CONTINUOUS
10
3.595
20
-2.37573
11
3.59498
21
-2.37556
0
LINE
8
BLACK
6
CONTINUOUS
10
3.59498
20
-2.37556
11
3.59487
21
-2.37542
0
LINE
8
BLACK
6
CONTINUOUS
10
3.59487
20
-2.37542
11
3.593
21
-2.3698
0
LINE
8
BLACK
6
CONTINUOUS
10
3.593
20
-2.3698
11
3.59287
21
-2.36892
0
LINE
8
BLACK
6
CONTINUOUS
10
3.59287
20
-2.36892
11
3.59285
21
-2.36886
0
LINE
8
BLACK
6
CONTINUOUS
10
3.59285
20
-2.36886
11
3.59285
21
-2.34074
0
LINE
8
BLACK
6
CONTINUOUS
10
3.59285
20
-2.34074
11
3.59303
21
-2.33973
0
LINE
8
BLACK
6
CONTINUOUS
10
3.59303
20
-2.33973
11
3.59432
21
-2.33818
0
LINE
8
BLACK
6
CONTINUOUS
10
3.59432
20
-2.33818
11
3.59631
21
-2.33783
0
LINE
8
BLACK
6
CONTINUOUS
10
3.59631
20
-2.33783
11
3.59806
21
-2.33884
0
LINE
8
BLACK
6
CONTINUOUS
10
3.55315
20
-2.24213
11
3.55454
21
-2.2427
0
LINE
8
BLACK
6
CONTINUOUS
10
3.55454
20
-2.2427
11
3.55512
21
-2.24409
0
LINE
8
BLACK
6
CONTINUOUS
10
3.55512
20
-2.24409
11
3.55512
21
-2.2815
0
LINE
8
BLACK
6
CONTINUOUS
10
3.55512
20
-2.2815
11
3.61024
21
-2.2815
0
LINE
8
BLACK
6
CONTINUOUS
10
3.61024
20
-2.2815
11
3.61024
21
-2.24409
0
LINE
8
BLACK
6
CONTINUOUS
10
3.61024
20
-2.24409
11
3.61081
21
-2.2427
0
LINE
8
BLACK
6
CONTINUOUS
10
3.61081
20
-2.2427
11
3.6122
21
-2.24213
0
LINE
8
BLACK
6
CONTINUOUS
10
3.6122
20
-2.24213
11
3.63189
21
-2.24213
0
LINE
8
BLACK
6
CONTINUOUS
10
3.63189
20
-2.24213
11
3.63328
21
-2.2427
0
LINE
8
BLACK
6
CONTINUOUS
10
3.63328
20
-2.2427
11
3.63386
21
-2.24409
0
LINE
8
BLACK
6
CONTINUOUS
10
3.63386
20
-2.24409
11
3.63386
21
-2.28346
0
LINE
8
BLACK
6
CONTINUOUS
10
3.63386
20
-2.28346
11
3.63328
21
-2.28486
0
LINE
8
BLACK
6
CONTINUOUS
10
3.63328
20
-2.28486
11
3.63189
21
-2.28543
0
LINE
8
BLACK
6
CONTINUOUS
10
3.63189
20
-2.28543
11
3.6305
21
-2.28486
0
LINE
8
BLACK
6
CONTINUOUS
10
3.6305
20
-2.28486
11
3.62992
21
-2.28346
0
LINE
8
BLACK
6
CONTINUOUS
10
3.62992
20
-2.28346
11
3.62992
21
-2.24606
0
LINE
8
BLACK
6
CONTINUOUS
10
3.62992
20
-2.24606
11
3.61417
21
-2.24606
0
LINE
8
BLACK
6
CONTINUOUS
10
3.61417
20
-2.24606
11
3.61417
21
-2.2815
0
LINE
8
BLACK
6
CONTINUOUS
10
3.61417
20
-2.2815
11
3.62205
21
-2.2815
0
LINE
8
BLACK
6
CONTINUOUS
10
3.62205
20
-2.2815
11
3.62344
21
-2.28207
0
LINE
8
BLACK
6
CONTINUOUS
10
3.62344
20
-2.28207
11
3.66281
21
-2.32144
0
LINE
8
BLACK
6
CONTINUOUS
10
3.66281
20
-2.32144
11
3.66291
21
-2.32168
0
LINE
8
BLACK
6
CONTINUOUS
10
3.66291
20
-2.32168
11
3.66339
21
-2.32283
0
LINE
8
BLACK
6
CONTINUOUS
10
3.66339
20
-2.32283
11
3.66339
21
-2.44094
0
LINE
8
BLACK
6
CONTINUOUS
10
3.66339
20
-2.44094
11
3.66281
21
-2.44234
0
LINE
8
BLACK
6
CONTINUOUS
10
3.66281
20
-2.44234
11
3.66142
21
-2.44291
0
LINE
8
BLACK
6
CONTINUOUS
10
3.66142
20
-2.44291
11
3.63386
21
-2.44291
0
LINE
8
BLACK
6
CONTINUOUS
10
3.63386
20
-2.44291
11
3.63386
21
-2.48031
0
LINE
8
BLACK
6
CONTINUOUS
10
3.63386
20
-2.48031
11
3.63328
21
-2.48171
0
LINE
8
BLACK
6
CONTINUOUS
10
3.63328
20
-2.48171
11
3.63189
21
-2.48228
0
LINE
8
BLACK
6
CONTINUOUS
10
3.63189
20
-2.48228
11
3.6122
21
-2.48228
0
LINE
8
BLACK
6
CONTINUOUS
10
3.6122
20
-2.48228
11
3.61081
21
-2.48171
0
LINE
8
BLACK
6
CONTINUOUS
10
3.61081
20
-2.48171
11
3.61024
21
-2.48031
0
LINE
8
BLACK
6
CONTINUOUS
10
3.61024
20
-2.48031
11
3.61024
21
-2.44291
0
LINE
8
BLACK
6
CONTINUOUS
10
3.61024
20
-2.44291
11
3.55512
21
-2.44291
0
LINE
8
BLACK
6
CONTINUOUS
10
3.55512
20
-2.44291
11
3.55512
21
-2.48031
0
LINE
8
BLACK
6
CONTINUOUS
10
3.55512
20
-2.48031
11
3.55454
21
-2.48171
0
LINE
8
BLACK
6
CONTINUOUS
10
3.55454
20
-2.48171
11
3.55315
21
-2.48228
0
LINE
8
BLACK
6
CONTINUOUS
10
3.55315
20
-2.48228
11
3.53346
21
-2.48228
0
LINE
8
BLACK
6
CONTINUOUS
10
3.53346
20
-2.48228
11
3.53207
21
-2.48171
0
LINE
8
BLACK
6
CONTINUOUS
10
3.53207
20
-2.48171
11
3.5315
21
-2.48031
0
LINE
8
BLACK
6
CONTINUOUS
10
3.5315
20
-2.48031
11
3.5315
21
-2.44291
0
LINE
8
BLACK
6
CONTINUOUS
10
3.5315
20
-2.44291
11
3.50394
21
-2.44291
0
LINE
8
BLACK
6
CONTINUOUS
10
3.50394
20
-2.44291
11
3.50255
21
-2.44234
0
LINE
8
BLACK
6
CONTINUOUS
10
3.50255
20
-2.44234
11
3.50197
21
-2.44094
0
LINE
8
BLACK
6
CONTINUOUS
10
3.50197
20
-2.44094
11
3.50197
21
-2.28346
0
LINE
8
BLACK
6
CONTINUOUS
10
3.50197
20
-2.28346
11
3.50255
21
-2.28207
0
LINE
8
BLACK
6
CONTINUOUS
10
3.50255
20
-2.28207
11
3.50394
21
-2.2815
0
LINE
8
BLACK
6
CONTINUOUS
10
3.50394
20
-2.2815
11
3.5315
21
-2.2815
0
LINE
8
BLACK
6
CONTINUOUS
10
3.5315
20
-2.2815
11
3.5315
21
-2.24409
0
LINE
8
BLACK
6
CONTINUOUS
10
3.5315
20
-2.24409
11
3.53207
21
-2.2427
0
LINE
8
BLACK
6
CONTINUOUS
10
3.53207
20
-2.2427
11
3.53346
21
-2.24213
0
LINE
8
BLACK
6
CONTINUOUS
10
3.53346
20
-2.24213
11
3.55315
21
-2.24213
0
LINE
8
BLACK
6
CONTINUOUS
10
3.61417
20
-2.44291
11
3.61417
21
-2.47835
0
LINE
8
BLACK
6
CONTINUOUS
10
3.61417
20
-2.47835
11
3.62992
21
-2.47835
0
LINE
8
BLACK
6
CONTINUOUS
10
3.62992
20
-2.47835
11
3.62992
21
-2.44291
0
LINE
8
BLACK
6
CONTINUOUS
10
3.62992
20
-2.44291
11
3.61417
21
-2.44291
0
LINE
8
BLACK
6
CONTINUOUS
10
3.53543
20
-2.44291
11
3.53543
21
-2.47835
0
LINE
8
BLACK
6
CONTINUOUS
10
3.53543
20
-2.47835
11
3.55118
21
-2.47835
0
LINE
8
BLACK
6
CONTINUOUS
10
3.55118
20
-2.47835
11
3.55118
21
-2.44291
0
LINE
8
BLACK
6
CONTINUOUS
10
3.55118
20
-2.44291
11
3.53543
21
-2.44291
0
LINE
8
BLACK
6
CONTINUOUS
10
3.6122
20
-2.28543
11
3.55315
21
-2.28543
0
LINE
8
BLACK
6
CONTINUOUS
10
3.55315
20
-2.28543
11
3.53346
21
-2.28543
0
LINE
8
BLACK
6
CONTINUOUS
10
3.53346
20
-2.28543
11
3.50591
21
-2.28543
0
LINE
8
BLACK
6
CONTINUOUS
10
3.50591
20
-2.28543
11
3.50591
21
-2.43898
0
LINE
8
BLACK
6
CONTINUOUS
10
3.50591
20
-2.43898
11
3.65945
21
-2.43898
0
LINE
8
BLACK
6
CONTINUOUS
10
3.65945
20
-2.43898
11
3.65945
21
-2.32365
0
LINE
8
BLACK
6
CONTINUOUS
10
3.65945
20
-2.32365
11
3.62123
21
-2.28543
0
LINE
8
BLACK
6
CONTINUOUS
10
3.62123
20
-2.28543
11
3.6122
21
-2.28543
0
LINE
8
BLACK
6
CONTINUOUS
10
3.53543
20
-2.24606
11
3.53543
21
-2.2815
0
LINE
8
BLACK
6
CONTINUOUS
10
3.53543
20
-2.2815
11
3.55118
21
-2.2815
0
LINE
8
BLACK
6
CONTINUOUS
10
3.55118
20
-2.2815
11
3.55118
21
-2.24606
0
LINE
8
BLACK
6
CONTINUOUS
10
3.55118
20
-2.24606
11
3.53543
21
-2.24606
0
LINE
8
BLACK
6
CONTINUOUS
10
3.45025
20
-2.42216
11
3.45038
21
-2.42214
0
LINE
8
BLACK
6
CONTINUOUS
10
3.45038
20
-2.42214
11
3.45788
21
-2.42402
0
LINE
8
BLACK
6
CONTINUOUS
10
3.45788
20
-2.42402
11
3.45882
21
-2.42444
0
LINE
8
BLACK
6
CONTINUOUS
10
3.45882
20
-2.42444
11
3.45899
21
-2.42467
0
LINE
8
BLACK
6
CONTINUOUS
10
3.45899
20
-2.42467
11
3.45925
21
-2.4248
0
LINE
8
BLACK
6
CONTINUOUS
10
3.45925
20
-2.4248
11
3.463
21
-2.42855
0
LINE
8
BLACK
6
CONTINUOUS
10
3.463
20
-2.42855
11
3.46351
21
-2.42927
0
LINE
8
BLACK
6
CONTINUOUS
10
3.46351
20
-2.42927
11
3.46355
21
-2.42931
0
LINE
8
BLACK
6
CONTINUOUS
10
3.46355
20
-2.42931
11
3.46543
21
-2.43306
0
LINE
8
BLACK
6
CONTINUOUS
10
3.46543
20
-2.43306
11
3.46572
21
-2.43405
0
LINE
8
BLACK
6
CONTINUOUS
10
3.46572
20
-2.43405
11
3.46568
21
-2.43422
0
LINE
8
BLACK
6
CONTINUOUS
10
3.46568
20
-2.43422
11
3.46574
21
-2.43438
0
LINE
8
BLACK
6
CONTINUOUS
10
3.46574
20
-2.43438
11
3.46574
21
-2.44188
0
LINE
8
BLACK
6
CONTINUOUS
10
3.46574
20
-2.44188
11
3.46556
21
-2.44289
0
LINE
8
BLACK
6
CONTINUOUS
10
3.46556
20
-2.44289
11
3.46545
21
-2.44303
0
LINE
8
BLACK
6
CONTINUOUS
10
3.46545
20
-2.44303
11
3.46543
21
-2.4432
0
LINE
8
BLACK
6
CONTINUOUS
10
3.46543
20
-2.4432
11
3.46355
21
-2.44695
0
LINE
8
BLACK
6
CONTINUOUS
10
3.46355
20
-2.44695
11
3.46303
21
-2.44766
0
LINE
8
BLACK
6
CONTINUOUS
10
3.46303
20
-2.44766
11
3.463
21
-2.44772
0
LINE
8
BLACK
6
CONTINUOUS
10
3.463
20
-2.44772
11
3.45925
21
-2.45147
0
LINE
8
BLACK
6
CONTINUOUS
10
3.45925
20
-2.45147
11
3.45841
21
-2.45206
0
LINE
8
BLACK
6
CONTINUOUS
10
3.45841
20
-2.45206
11
3.45812
21
-2.45208
0
LINE
8
BLACK
6
CONTINUOUS
10
3.45812
20
-2.45208
11
3.45788
21
-2.45225
0
LINE
8
BLACK
6
CONTINUOUS
10
3.45788
20
-2.45225
11
3.45038
21
-2.45412
0
LINE
8
BLACK
6
CONTINUOUS
10
3.45038
20
-2.45412
11
3.44979
21
-2.45416
0
LINE
8
BLACK
6
CONTINUOUS
10
3.44979
20
-2.45416
11
3.44966
21
-2.45421
0
LINE
8
BLACK
6
CONTINUOUS
10
3.44966
20
-2.45421
11
3.43654
21
-2.45421
0
LINE
8
BLACK
6
CONTINUOUS
10
3.43654
20
-2.45421
11
3.43596
21
-2.45411
0
LINE
8
BLACK
6
CONTINUOUS
10
3.43596
20
-2.45411
11
3.43583
21
-2.45412
0
LINE
8
BLACK
6
CONTINUOUS
10
3.43583
20
-2.45412
11
3.42833
21
-2.45225
0
LINE
8
BLACK
6
CONTINUOUS
10
3.42833
20
-2.45225
11
3.42739
21
-2.45183
0
LINE
8
BLACK
6
CONTINUOUS
10
3.42739
20
-2.45183
11
3.42722
21
-2.45159
0
LINE
8
BLACK
6
CONTINUOUS
10
3.42722
20
-2.45159
11
3.42695
21
-2.45147
0
LINE
8
BLACK
6
CONTINUOUS
10
3.42695
20
-2.45147
11
3.4232
21
-2.44772
0
LINE
8
BLACK
6
CONTINUOUS
10
3.4232
20
-2.44772
11
3.4227
21
-2.447
0
LINE
8
BLACK
6
CONTINUOUS
10
3.4227
20
-2.447
11
3.42265
21
-2.44695
0
LINE
8
BLACK
6
CONTINUOUS
10
3.42265
20
-2.44695
11
3.42078
21
-2.4432
0
LINE
8
BLACK
6
CONTINUOUS
10
3.42078
20
-2.4432
11
3.42048
21
-2.44222
0
LINE
8
BLACK
6
CONTINUOUS
10
3.42048
20
-2.44222
11
3.42053
21
-2.44205
0
LINE
8
BLACK
6
CONTINUOUS
10
3.42053
20
-2.44205
11
3.42047
21
-2.44188
0
LINE
8
BLACK
6
CONTINUOUS
10
3.42047
20
-2.44188
11
3.42047
21
-2.43438
0
LINE
8
BLACK
6
CONTINUOUS
10
3.42047
20
-2.43438
11
3.42064
21
-2.43337
0
LINE
8
BLACK
6
CONTINUOUS
10
3.42064
20
-2.43337
11
3.42076
21
-2.43324
0
LINE
8
BLACK
6
CONTINUOUS
10
3.42076
20
-2.43324
11
3.42078
21
-2.43306
0
LINE
8
BLACK
6
CONTINUOUS
10
3.42078
20
-2.43306
11
3.42265
21
-2.42931
0
LINE
8
BLACK
6
CONTINUOUS
10
3.42265
20
-2.42931
11
3.42318
21
-2.4286
0
LINE
8
BLACK
6
CONTINUOUS
10
3.42318
20
-2.4286
11
3.4232
21
-2.42855
0
LINE
8
BLACK
6
CONTINUOUS
10
3.4232
20
-2.42855
11
3.42695
21
-2.4248
0
LINE
8
BLACK
6
CONTINUOUS
10
3.42695
20
-2.4248
11
3.42779
21
-2.42421
0
LINE
8
BLACK
6
CONTINUOUS
10
3.42779
20
-2.42421
11
3.42808
21
-2.42418
0
LINE
8
BLACK
6
CONTINUOUS
10
3.42808
20
-2.42418
11
3.42833
21
-2.42402
0
LINE
8
BLACK
6
CONTINUOUS
10
3.42833
20
-2.42402
11
3.43583
21
-2.42214
0
LINE
8
BLACK
6
CONTINUOUS
10
3.43583
20
-2.42214
11
3.43641
21
-2.4221
0
LINE
8
BLACK
6
CONTINUOUS
10
3.43641
20
-2.4221
11
3.43654
21
-2.42206
0
LINE
8
BLACK
6
CONTINUOUS
10
3.43654
20
-2.42206
11
3.44966
21
-2.42206
0
LINE
8
BLACK
6
CONTINUOUS
10
3.44966
20
-2.42206
11
3.45025
21
-2.42216
0
LINE
8
BLACK
6
CONTINUOUS
10
3.43055
20
-2.42955
11
3.42772
21
-2.43238
0
LINE
8
BLACK
6
CONTINUOUS
10
3.42772
20
-2.43238
11
3.42637
21
-2.43508
0
LINE
8
BLACK
6
CONTINUOUS
10
3.42637
20
-2.43508
11
3.42637
21
-2.44119
0
LINE
8
BLACK
6
CONTINUOUS
10
3.42637
20
-2.44119
11
3.42772
21
-2.44388
0
LINE
8
BLACK
6
CONTINUOUS
10
3.42772
20
-2.44388
11
3.43055
21
-2.44672
0
LINE
8
BLACK
6
CONTINUOUS
10
3.43055
20
-2.44672
11
3.4369
21
-2.4483
0
LINE
8
BLACK
6
CONTINUOUS
10
3.4369
20
-2.4483
11
3.4493
21
-2.4483
0
LINE
8
BLACK
6
CONTINUOUS
10
3.4493
20
-2.4483
11
3.45565
21
-2.44672
0
LINE
8
BLACK
6
CONTINUOUS
10
3.45565
20
-2.44672
11
3.45849
21
-2.44388
0
LINE
8
BLACK
6
CONTINUOUS
10
3.45849
20
-2.44388
11
3.45984
21
-2.44119
0
LINE
8
BLACK
6
CONTINUOUS
10
3.45984
20
-2.44119
11
3.45984
21
-2.43508
0
LINE
8
BLACK
6
CONTINUOUS
10
3.45984
20
-2.43508
11
3.45849
21
-2.43238
0
LINE
8
BLACK
6
CONTINUOUS
10
3.45849
20
-2.43238
11
3.45565
21
-2.42955
0
LINE
8
BLACK
6
CONTINUOUS
10
3.45565
20
-2.42955
11
3.4493
21
-2.42796
0
LINE
8
BLACK
6
CONTINUOUS
10
3.4493
20
-2.42796
11
3.4369
21
-2.42796
0
LINE
8
BLACK
6
CONTINUOUS
10
3.4369
20
-2.42796
11
3.43055
21
-2.42955
0
LINE
8
BLACK
6
CONTINUOUS
10
3.4688
20
-2.38562
11
3.46949
21
-2.38751
0
LINE
8
BLACK
6
CONTINUOUS
10
3.46949
20
-2.38751
11
3.46949
21
-2.41751
0
LINE
8
BLACK
6
CONTINUOUS
10
3.46949
20
-2.41751
11
3.46931
21
-2.41852
0
LINE
8
BLACK
6
CONTINUOUS
10
3.46931
20
-2.41852
11
3.46801
21
-2.42007
0
LINE
8
BLACK
6
CONTINUOUS
10
3.46801
20
-2.42007
11
3.46602
21
-2.42042
0
LINE
8
BLACK
6
CONTINUOUS
10
3.46602
20
-2.42042
11
3.46428
21
-2.41941
0
LINE
8
BLACK
6
CONTINUOUS
10
3.46428
20
-2.41941
11
3.46358
21
-2.41751
0
LINE
8
BLACK
6
CONTINUOUS
10
3.46358
20
-2.41751
11
3.46358
21
-2.38751
0
LINE
8
BLACK
6
CONTINUOUS
10
3.46358
20
-2.38751
11
3.46376
21
-2.3865
0
LINE
8
BLACK
6
CONTINUOUS
10
3.46376
20
-2.3865
11
3.46506
21
-2.38496
0
LINE
8
BLACK
6
CONTINUOUS
10
3.46506
20
-2.38496
11
3.46705
21
-2.38461
0
LINE
8
BLACK
6
CONTINUOUS
10
3.46705
20
-2.38461
11
3.4688
21
-2.38562
0
LINE
8
BLACK
6
CONTINUOUS
10
3.46342
20
-2.3528
11
3.46355
21
-2.35279
0
LINE
8
BLACK
6
CONTINUOUS
10
3.46355
20
-2.35279
11
3.46428
21
-2.3533
0
LINE
8
BLACK
6
CONTINUOUS
10
3.46428
20
-2.3533
11
3.46505
21
-2.35375
0
LINE
8
BLACK
6
CONTINUOUS
10
3.46505
20
-2.35375
11
3.4651
21
-2.35387
0
LINE
8
BLACK
6
CONTINUOUS
10
3.4651
20
-2.35387
11
3.46521
21
-2.35395
0
LINE
8
BLACK
6
CONTINUOUS
10
3.46521
20
-2.35395
11
3.46544
21
-2.35481
0
LINE
8
BLACK
6
CONTINUOUS
10
3.46544
20
-2.35481
11
3.46574
21
-2.35564
0
LINE
8
BLACK
6
CONTINUOUS
10
3.46574
20
-2.35564
11
3.46574
21
-2.38001
0
LINE
8
BLACK
6
CONTINUOUS
10
3.46574
20
-2.38001
11
3.46556
21
-2.38102
0
LINE
8
BLACK
6
CONTINUOUS
10
3.46556
20
-2.38102
11
3.46426
21
-2.38257
0
LINE
8
BLACK
6
CONTINUOUS
10
3.46426
20
-2.38257
11
3.46228
21
-2.38292
0
LINE
8
BLACK
6
CONTINUOUS
10
3.46228
20
-2.38292
11
3.46053
21
-2.38191
0
LINE
8
BLACK
6
CONTINUOUS
10
3.46053
20
-2.38191
11
3.45984
21
-2.38001
0
LINE
8
BLACK
6
CONTINUOUS
10
3.45984
20
-2.38001
11
3.45984
21
-2.36277
0
LINE
8
BLACK
6
CONTINUOUS
10
3.45984
20
-2.36277
11
3.44238
21
-2.38023
0
LINE
8
BLACK
6
CONTINUOUS
10
3.44238
20
-2.38023
11
3.44154
21
-2.38082
0
LINE
8
BLACK
6
CONTINUOUS
10
3.44154
20
-2.38082
11
3.44136
21
-2.38083
0
LINE
8
BLACK
6
CONTINUOUS
10
3.44136
20
-2.38083
11
3.44122
21
-2.38094
0
LINE
8
BLACK
6
CONTINUOUS
10
3.44122
20
-2.38094
11
3.4356
21
-2.38282
0
LINE
8
BLACK
6
CONTINUOUS
10
3.4356
20
-2.38282
11
3.43473
21
-2.38295
0
LINE
8
BLACK
6
CONTINUOUS
10
3.43473
20
-2.38295
11
3.43467
21
-2.38297
0
LINE
8
BLACK
6
CONTINUOUS
10
3.43467
20
-2.38297
11
3.43092
21
-2.38297
0
LINE
8
BLACK
6
CONTINUOUS
10
3.43092
20
-2.38297
11
3.42991
21
-2.38279
0
LINE
8
BLACK
6
CONTINUOUS
10
3.42991
20
-2.38279
11
3.42977
21
-2.38268
0
LINE
8
BLACK
6
CONTINUOUS
10
3.42977
20
-2.38268
11
3.4296
21
-2.38266
0
LINE
8
BLACK
6
CONTINUOUS
10
3.4296
20
-2.38266
11
3.42585
21
-2.38078
0
LINE
8
BLACK
6
CONTINUOUS
10
3.42585
20
-2.38078
11
3.42514
21
-2.38026
0
LINE
8
BLACK
6
CONTINUOUS
10
3.42514
20
-2.38026
11
3.42508
21
-2.38023
0
LINE
8
BLACK
6
CONTINUOUS
10
3.42508
20
-2.38023
11
3.4232
21
-2.37835
0
LINE
8
BLACK
6
CONTINUOUS
10
3.4232
20
-2.37835
11
3.4227
21
-2.37763
0
LINE
8
BLACK
6
CONTINUOUS
10
3.4227
20
-2.37763
11
3.42265
21
-2.37759
0
LINE
8
BLACK
6
CONTINUOUS
10
3.42265
20
-2.37759
11
3.42078
21
-2.37384
0
LINE
8
BLACK
6
CONTINUOUS
10
3.42078
20
-2.37384
11
3.42048
21
-2.37285
0
LINE
8
BLACK
6
CONTINUOUS
10
3.42048
20
-2.37285
11
3.42053
21
-2.37268
0
LINE
8
BLACK
6
CONTINUOUS
10
3.42053
20
-2.37268
11
3.42047
21
-2.37252
0
LINE
8
BLACK
6
CONTINUOUS
10
3.42047
20
-2.37252
11
3.42047
21
-2.36314
0
LINE
8
BLACK
6
CONTINUOUS
10
3.42047
20
-2.36314
11
3.42064
21
-2.36213
0
LINE
8
BLACK
6
CONTINUOUS
10
3.42064
20
-2.36213
11
3.42076
21
-2.362
0
LINE
8
BLACK
6
CONTINUOUS
10
3.42076
20
-2.362
11
3.42078
21
-2.36182
0
LINE
8
BLACK
6
CONTINUOUS
10
3.42078
20
-2.36182
11
3.42265
21
-2.35807
0
LINE
8
BLACK
6
CONTINUOUS
10
3.42265
20
-2.35807
11
3.42318
21
-2.35736
0
LINE
8
BLACK
6
CONTINUOUS
10
3.42318
20
-2.35736
11
3.4232
21
-2.3573
0
LINE
8
BLACK
6
CONTINUOUS
10
3.4232
20
-2.3573
11
3.42508
21
-2.35543
0
LINE
8
BLACK
6
CONTINUOUS
10
3.42508
20
-2.35543
11
3.42592
21
-2.35484
0
LINE
8
BLACK
6
CONTINUOUS
10
3.42592
20
-2.35484
11
3.42793
21
-2.35467
0
LINE
8
BLACK
6
CONTINUOUS
10
3.42793
20
-2.35467
11
3.42959
21
-2.35582
0
LINE
8
BLACK
6
CONTINUOUS
10
3.42959
20
-2.35582
11
3.43011
21
-2.35778
0
LINE
8
BLACK
6
CONTINUOUS
10
3.43011
20
-2.35778
11
3.42926
21
-2.35961
0
LINE
8
BLACK
6
CONTINUOUS
10
3.42926
20
-2.35961
11
3.42772
21
-2.36114
0
LINE
8
BLACK
6
CONTINUOUS
10
3.42772
20
-2.36114
11
3.42637
21
-2.36384
0
LINE
8
BLACK
6
CONTINUOUS
10
3.42637
20
-2.36384
11
3.42637
21
-2.37182
0
LINE
8
BLACK
6
CONTINUOUS
10
3.42637
20
-2.37182
11
3.42772
21
-2.37452
0
LINE
8
BLACK
6
CONTINUOUS
10
3.42772
20
-2.37452
11
3.42892
21
-2.37571
0
LINE
8
BLACK
6
CONTINUOUS
10
3.42892
20
-2.37571
11
3.43161
21
-2.37706
0
LINE
8
BLACK
6
CONTINUOUS
10
3.43161
20
-2.37706
11
3.43419
21
-2.37706
0
LINE
8
BLACK
6
CONTINUOUS
10
3.43419
20
-2.37706
11
3.4387
21
-2.37556
0
LINE
8
BLACK
6
CONTINUOUS
10
3.4387
20
-2.37556
11
3.4607
21
-2.35356
0
LINE
8
BLACK
6
CONTINUOUS
10
3.4607
20
-2.35356
11
3.46123
21
-2.35319
0
LINE
8
BLACK
6
CONTINUOUS
10
3.46123
20
-2.35319
11
3.46131
21
-2.35309
0
LINE
8
BLACK
6
CONTINUOUS
10
3.46131
20
-2.35309
11
3.46139
21
-2.35307
0
LINE
8
BLACK
6
CONTINUOUS
10
3.46139
20
-2.35307
11
3.46154
21
-2.35297
0
LINE
8
BLACK
6
CONTINUOUS
10
3.46154
20
-2.35297
11
3.46243
21
-2.35289
0
LINE
8
BLACK
6
CONTINUOUS
10
3.46243
20
-2.35289
11
3.4633
21
-2.35274
0
LINE
8
BLACK
6
CONTINUOUS
10
3.4633
20
-2.35274
11
3.46342
21
-2.3528
0
LINE
8
BLACK
6
CONTINUOUS
10
3.44837
20
-2.31717
11
3.44851
21
-2.31716
0
LINE
8
BLACK
6
CONTINUOUS
10
3.44851
20
-2.31716
11
3.45601
21
-2.31903
0
LINE
8
BLACK
6
CONTINUOUS
10
3.45601
20
-2.31903
11
3.45647
21
-2.31924
0
LINE
8
BLACK
6
CONTINUOUS
10
3.45647
20
-2.31924
11
3.45661
21
-2.31926
0
LINE
8
BLACK
6
CONTINUOUS
10
3.45661
20
-2.31926
11
3.46036
21
-2.32113
0
LINE
8
BLACK
6
CONTINUOUS
10
3.46036
20
-2.32113
11
3.46107
21
-2.32166
0
LINE
8
BLACK
6
CONTINUOUS
10
3.46107
20
-2.32166
11
3.46113
21
-2.32168
0
LINE
8
BLACK
6
CONTINUOUS
10
3.46113
20
-2.32168
11
3.463
21
-2.32356
0
LINE
8
BLACK
6
CONTINUOUS
10
3.463
20
-2.32356
11
3.46351
21
-2.32428
0
LINE
8
BLACK
6
CONTINUOUS
10
3.46351
20
-2.32428
11
3.46355
21
-2.32433
0
LINE
8
BLACK
6
CONTINUOUS
10
3.46355
20
-2.32433
11
3.46543
21
-2.32808
0
LINE
8
BLACK
6
CONTINUOUS
10
3.46543
20
-2.32808
11
3.46572
21
-2.32906
0
LINE
8
BLACK
6
CONTINUOUS
10
3.46572
20
-2.32906
11
3.46568
21
-2.32923
0
LINE
8
BLACK
6
CONTINUOUS
10
3.46568
20
-2.32923
11
3.46574
21
-2.3294
0
LINE
8
BLACK
6
CONTINUOUS
10
3.46574
20
-2.3294
11
3.46574
21
-2.33315
0
LINE
8
BLACK
6
CONTINUOUS
10
3.46574
20
-2.33315
11
3.46556
21
-2.33416
0
LINE
8
BLACK
6
CONTINUOUS
10
3.46556
20
-2.33416
11
3.46545
21
-2.33429
0
LINE
8
BLACK
6
CONTINUOUS
10
3.46545
20
-2.33429
11
3.46543
21
-2.33447
0
LINE
8
BLACK
6
CONTINUOUS
10
3.46543
20
-2.33447
11
3.46355
21
-2.33822
0
LINE
8
BLACK
6
CONTINUOUS
10
3.46355
20
-2.33822
11
3.46303
21
-2.33892
0
LINE
8
BLACK
6
CONTINUOUS
10
3.46303
20
-2.33892
11
3.463
21
-2.33898
0
LINE
8
BLACK
6
CONTINUOUS
10
3.463
20
-2.33898
11
3.46113
21
-2.34086
0
LINE
8
BLACK
6
CONTINUOUS
10
3.46113
20
-2.34086
11
3.4604
21
-2.34136
0
LINE
8
BLACK
6
CONTINUOUS
10
3.4604
20
-2.34136
11
3.46036
21
-2.34141
0
LINE
8
BLACK
6
CONTINUOUS
10
3.46036
20
-2.34141
11
3.45661
21
-2.34329
0
LINE
8
BLACK
6
CONTINUOUS
10
3.45661
20
-2.34329
11
3.45612
21
-2.34343
0
LINE
8
BLACK
6
CONTINUOUS
10
3.45612
20
-2.34343
11
3.45601
21
-2.34351
0
LINE
8
BLACK
6
CONTINUOUS
10
3.45601
20
-2.34351
11
3.44851
21
-2.34538
0
LINE
8
BLACK
6
CONTINUOUS
10
3.44851
20
-2.34538
11
3.44792
21
-2.34543
0
LINE
8
BLACK
6
CONTINUOUS
10
3.44792
20
-2.34543
11
3.44779
21
-2.34547
0
LINE
8
BLACK
6
CONTINUOUS
10
3.44779
20
-2.34547
11
3.43842
21
-2.34547
0
LINE
8
BLACK
6
CONTINUOUS
10
3.43842
20
-2.34547
11
3.43784
21
-2.34537
0
LINE
8
BLACK
6
CONTINUOUS
10
3.43784
20
-2.34537
11
3.4377
21
-2.34538
0
LINE
8
BLACK
6
CONTINUOUS
10
3.4377
20
-2.34538
11
3.4302
21
-2.34351
0
LINE
8
BLACK
6
CONTINUOUS
10
3.4302
20
-2.34351
11
3.42974
21
-2.3433
0
LINE
8
BLACK
6
CONTINUOUS
10
3.42974
20
-2.3433
11
3.4296
21
-2.34329
0
LINE
8
BLACK
6
CONTINUOUS
10
3.4296
20
-2.34329
11
3.42585
21
-2.34141
0
LINE
8
BLACK
6
CONTINUOUS
10
3.42585
20
-2.34141
11
3.42514
21
-2.34089
0
LINE
8
BLACK
6
CONTINUOUS
10
3.42514
20
-2.34089
11
3.42508
21
-2.34086
0
LINE
8
BLACK
6
CONTINUOUS
10
3.42508
20
-2.34086
11
3.4232
21
-2.33898
0
LINE
8
BLACK
6
CONTINUOUS
10
3.4232
20
-2.33898
11
3.4227
21
-2.33826
0
LINE
8
BLACK
6
CONTINUOUS
10
3.4227
20
-2.33826
11
3.42265
21
-2.33822
0
LINE
8
BLACK
6
CONTINUOUS
10
3.42265
20
-2.33822
11
3.42078
21
-2.33447
0
LINE
8
BLACK
6
CONTINUOUS
10
3.42078
20
-2.33447
11
3.42048
21
-2.33348
0
LINE
8
BLACK
6
CONTINUOUS
10
3.42048
20
-2.33348
11
3.42053
21
-2.33331
0
LINE
8
BLACK
6
CONTINUOUS
10
3.42053
20
-2.33331
11
3.42047
21
-2.33315
0
LINE
8
BLACK
6
CONTINUOUS
10
3.42047
20
-2.33315
11
3.42047
21
-2.3294
0
LINE
8
BLACK
6
CONTINUOUS
10
3.42047
20
-2.3294
11
3.42064
21
-2.32839
0
LINE
8
BLACK
6
CONTINUOUS
10
3.42064
20
-2.32839
11
3.42076
21
-2.32825
0
LINE
8
BLACK
6
CONTINUOUS
10
3.42076
20
-2.32825
11
3.42078
21
-2.32808
0
LINE
8
BLACK
6
CONTINUOUS
10
3.42078
20
-2.32808
11
3.42265
21
-2.32433
0
LINE
8
BLACK
6
CONTINUOUS
10
3.42265
20
-2.32433
11
3.42318
21
-2.32362
0
LINE
8
BLACK
6
CONTINUOUS
10
3.42318
20
-2.32362
11
3.4232
21
-2.32356
0
LINE
8
BLACK
6
CONTINUOUS
10
3.4232
20
-2.32356
11
3.42508
21
-2.32168
0
LINE
8
BLACK
6
CONTINUOUS
10
3.42508
20
-2.32168
11
3.4258
21
-2.32118
0
LINE
8
BLACK
6
CONTINUOUS
10
3.4258
20
-2.32118
11
3.42585
21
-2.32113
0
LINE
8
BLACK
6
CONTINUOUS
10
3.42585
20
-2.32113
11
3.4296
21
-2.31926
0
LINE
8
BLACK
6
CONTINUOUS
10
3.4296
20
-2.31926
11
3.43009
21
-2.31911
0
LINE
8
BLACK
6
CONTINUOUS
10
3.43009
20
-2.31911
11
3.4302
21
-2.31903
0
LINE
8
BLACK
6
CONTINUOUS
10
3.4302
20
-2.31903
11
3.4377
21
-2.31716
0
LINE
8
BLACK
6
CONTINUOUS
10
3.4377
20
-2.31716
11
3.43829
21
-2.31712
0
LINE
8
BLACK
6
CONTINUOUS
10
3.43829
20
-2.31712
11
3.43842
21
-2.31707
0
LINE
8
BLACK
6
CONTINUOUS
10
3.43842
20
-2.31707
11
3.44779
21
-2.31707
0
LINE
8
BLACK
6
CONTINUOUS
10
3.44779
20
-2.31707
11
3.44837
21
-2.31717
0
LINE
8
BLACK
6
CONTINUOUS
10
3.43195
20
-2.32468
11
3.42892
21
-2.3262
0
LINE
8
BLACK
6
CONTINUOUS
10
3.42892
20
-2.3262
11
3.42772
21
-2.3274
0
LINE
8
BLACK
6
CONTINUOUS
10
3.42772
20
-2.3274
11
3.42637
21
-2.33009
0
LINE
8
BLACK
6
CONTINUOUS
10
3.42637
20
-2.33009
11
3.42637
21
-2.33245
0
LINE
8
BLACK
6
CONTINUOUS
10
3.42637
20
-2.33245
11
3.42772
21
-2.33515
0
LINE
8
BLACK
6
CONTINUOUS
10
3.42772
20
-2.33515
11
3.42892
21
-2.33634
0
LINE
8
BLACK
6
CONTINUOUS
10
3.42892
20
-2.33634
11
3.43195
21
-2.33786
0
LINE
8
BLACK
6
CONTINUOUS
10
3.43195
20
-2.33786
11
3.43878
21
-2.33957
0
LINE
8
BLACK
6
CONTINUOUS
10
3.43878
20
-2.33957
11
3.44743
21
-2.33957
0
LINE
8
BLACK
6
CONTINUOUS
10
3.44743
20
-2.33957
11
3.45426
21
-2.33786
0
LINE
8
BLACK
6
CONTINUOUS
10
3.45426
20
-2.33786
11
3.45729
21
-2.33634
0
LINE
8
BLACK
6
CONTINUOUS
10
3.45729
20
-2.33634
11
3.45849
21
-2.33515
0
LINE
8
BLACK
6
CONTINUOUS
10
3.45849
20
-2.33515
11
3.45984
21
-2.33245
0
LINE
8
BLACK
6
CONTINUOUS
10
3.45984
20
-2.33245
11
3.45984
21
-2.33009
0
LINE
8
BLACK
6
CONTINUOUS
10
3.45984
20
-2.33009
11
3.45849
21
-2.3274
0
LINE
8
BLACK
6
CONTINUOUS
10
3.45849
20
-2.3274
11
3.45729
21
-2.3262
0
LINE
8
BLACK
6
CONTINUOUS
10
3.45729
20
-2.3262
11
3.45426
21
-2.32468
0
LINE
8
BLACK
6
CONTINUOUS
10
3.45426
20
-2.32468
11
3.44743
21
-2.32298
0
LINE
8
BLACK
6
CONTINUOUS
10
3.44743
20
-2.32298
11
3.43878
21
-2.32298
0
LINE
8
BLACK
6
CONTINUOUS
10
3.43878
20
-2.32298
11
3.43195
21
-2.32468
0
LINE
8
BLACK
6
CONTINUOUS
10
3.43837
20
-2.28395
11
3.44966
21
-2.29283
0
LINE
8
BLACK
6
CONTINUOUS
10
3.44966
20
-2.29283
11
3.46096
21
-2.28395
0
LINE
8
BLACK
6
CONTINUOUS
10
3.46096
20
-2.28395
11
3.46187
21
-2.28347
0
LINE
8
BLACK
6
CONTINUOUS
10
3.46187
20
-2.28347
11
3.46389
21
-2.28354
0
LINE
8
BLACK
6
CONTINUOUS
10
3.46389
20
-2.28354
11
3.46539
21
-2.28488
0
LINE
8
BLACK
6
CONTINUOUS
10
3.46539
20
-2.28488
11
3.46568
21
-2.28688
0
LINE
8
BLACK
6
CONTINUOUS
10
3.46568
20
-2.28688
11
3.46461
21
-2.2886
0
LINE
8
BLACK
6
CONTINUOUS
10
3.46461
20
-2.2886
11
3.45444
21
-2.29659
0
LINE
8
BLACK
6
CONTINUOUS
10
3.45444
20
-2.29659
11
3.46461
21
-2.30458
0
LINE
8
BLACK
6
CONTINUOUS
10
3.46461
20
-2.30458
11
3.4653
21
-2.30534
0
LINE
8
BLACK
6
CONTINUOUS
10
3.4653
20
-2.30534
11
3.46571
21
-2.30732
0
LINE
8
BLACK
6
CONTINUOUS
10
3.46571
20
-2.30732
11
3.46476
21
-2.3091
0
LINE
8
BLACK
6
CONTINUOUS
10
3.46476
20
-2.3091
11
3.46288
21
-2.30985
0
LINE
8
BLACK
6
CONTINUOUS
10
3.46288
20
-2.30985
11
3.46096
21
-2.30922
0
LINE
8
BLACK
6
CONTINUOUS
10
3.46096
20
-2.30922
11
3.44966
21
-2.30034
0
LINE
8
BLACK
6
CONTINUOUS
10
3.44966
20
-2.30034
11
3.43837
21
-2.30922
0
LINE
8
BLACK
6
CONTINUOUS
10
3.43837
20
-2.30922
11
3.43746
21
-2.3097
0
LINE
8
BLACK
6
CONTINUOUS
10
3.43746
20
-2.3097
11
3.43544
21
-2.30964
0
LINE
8
BLACK
6
CONTINUOUS
10
3.43544
20
-2.30964
11
3.43394
21
-2.30829
0
LINE
8
BLACK
6
CONTINUOUS
10
3.43394
20
-2.30829
11
3.43365
21
-2.30629
0
LINE
8
BLACK
6
CONTINUOUS
10
3.43365
20
-2.30629
11
3.43472
21
-2.30458
0
LINE
8
BLACK
6
CONTINUOUS
10
3.43472
20
-2.30458
11
3.44489
21
-2.29659
0
LINE
8
BLACK
6
CONTINUOUS
10
3.44489
20
-2.29659
11
3.43472
21
-2.2886
0
LINE
8
BLACK
6
CONTINUOUS
10
3.43472
20
-2.2886
11
3.43403
21
-2.28783
0
LINE
8
BLACK
6
CONTINUOUS
10
3.43403
20
-2.28783
11
3.43362
21
-2.28586
0
LINE
8
BLACK
6
CONTINUOUS
10
3.43362
20
-2.28586
11
3.43457
21
-2.28408
0
LINE
8
BLACK
6
CONTINUOUS
10
3.43457
20
-2.28408
11
3.43645
21
-2.28333
0
LINE
8
BLACK
6
CONTINUOUS
10
3.43645
20
-2.28333
11
3.43837
21
-2.28395
0
LINE
8
BLACK
6
CONTINUOUS
10
3.46342
20
-2.24594
11
3.46355
21
-2.24593
0
LINE
8
BLACK
6
CONTINUOUS
10
3.46355
20
-2.24593
11
3.46428
21
-2.24644
0
LINE
8
BLACK
6
CONTINUOUS
10
3.46428
20
-2.24644
11
3.46505
21
-2.24688
0
LINE
8
BLACK
6
CONTINUOUS
10
3.46505
20
-2.24688
11
3.4651
21
-2.24701
0
LINE
8
BLACK
6
CONTINUOUS
10
3.4651
20
-2.24701
11
3.46521
21
-2.24709
0
LINE
8
BLACK
6
CONTINUOUS
10
3.46521
20
-2.24709
11
3.46544
21
-2.24795
0
LINE
8
BLACK
6
CONTINUOUS
10
3.46544
20
-2.24795
11
3.46574
21
-2.24878
0
LINE
8
BLACK
6
CONTINUOUS
10
3.46574
20
-2.24878
11
3.46574
21
-2.27315
0
LINE
8
BLACK
6
CONTINUOUS
10
3.46574
20
-2.27315
11
3.46556
21
-2.27416
0
LINE
8
BLACK
6
CONTINUOUS
10
3.46556
20
-2.27416
11
3.46426
21
-2.27571
0
LINE
8
BLACK
6
CONTINUOUS
10
3.46426
20
-2.27571
11
3.46228
21
-2.27606
0
LINE
8
BLACK
6
CONTINUOUS
10
3.46228
20
-2.27606
11
3.46053
21
-2.27505
0
LINE
8
BLACK
6
CONTINUOUS
10
3.46053
20
-2.27505
11
3.45984
21
-2.27315
0
LINE
8
BLACK
6
CONTINUOUS
10
3.45984
20
-2.27315
11
3.45984
21
-2.25591
0
LINE
8
BLACK
6
CONTINUOUS
10
3.45984
20
-2.25591
11
3.44238
21
-2.27337
0
LINE
8
BLACK
6
CONTINUOUS
10
3.44238
20
-2.27337
11
3.44154
21
-2.27395
0
LINE
8
BLACK
6
CONTINUOUS
10
3.44154
20
-2.27395
11
3.44136
21
-2.27397
0
LINE
8
BLACK
6
CONTINUOUS
10
3.44136
20
-2.27397
11
3.44122
21
-2.27408
0
LINE
8
BLACK
6
CONTINUOUS
10
3.44122
20
-2.27408
11
3.4356
21
-2.27595
0
LINE
8
BLACK
6
CONTINUOUS
10
3.4356
20
-2.27595
11
3.43473
21
-2.27608
0
LINE
8
BLACK
6
CONTINUOUS
10
3.43473
20
-2.27608
11
3.43467
21
-2.27611
0
LINE
8
BLACK
6
CONTINUOUS
10
3.43467
20
-2.27611
11
3.43092
21
-2.27611
0
LINE
8
BLACK
6
CONTINUOUS
10
3.43092
20
-2.27611
11
3.42991
21
-2.27593
0
LINE
8
BLACK
6
CONTINUOUS
10
3.42991
20
-2.27593
11
3.42977
21
-2.27581
0
LINE
8
BLACK
6
CONTINUOUS
10
3.42977
20
-2.27581
11
3.4296
21
-2.27579
0
LINE
8
BLACK
6
CONTINUOUS
10
3.4296
20
-2.27579
11
3.42585
21
-2.27392
0
LINE
8
BLACK
6
CONTINUOUS
10
3.42585
20
-2.27392
11
3.42514
21
-2.27339
0
LINE
8
BLACK
6
CONTINUOUS
10
3.42514
20
-2.27339
11
3.42508
21
-2.27337
0
LINE
8
BLACK
6
CONTINUOUS
10
3.42508
20
-2.27337
11
3.4232
21
-2.27149
0
LINE
8
BLACK
6
CONTINUOUS
10
3.4232
20
-2.27149
11
3.4227
21
-2.27077
0
LINE
8
BLACK
6
CONTINUOUS
10
3.4227
20
-2.27077
11
3.42265
21
-2.27072
0
LINE
8
BLACK
6
CONTINUOUS
10
3.42265
20
-2.27072
11
3.42078
21
-2.26697
0
LINE
8
BLACK
6
CONTINUOUS
10
3.42078
20
-2.26697
11
3.42048
21
-2.26599
0
LINE
8
BLACK
6
CONTINUOUS
10
3.42048
20
-2.26599
11
3.42053
21
-2.26582
0
LINE
8
BLACK
6
CONTINUOUS
10
3.42053
20
-2.26582
11
3.42047
21
-2.26565
0
LINE
8
BLACK
6
CONTINUOUS
10
3.42047
20
-2.26565
11
3.42047
21
-2.25628
0
LINE
8
BLACK
6
CONTINUOUS
10
3.42047
20
-2.25628
11
3.42064
21
-2.25527
0
LINE
8
BLACK
6
CONTINUOUS
10
3.42064
20
-2.25527
11
3.42076
21
-2.25514
0
LINE
8
BLACK
6
CONTINUOUS
10
3.42076
20
-2.25514
11
3.42078
21
-2.25496
0
LINE
8
BLACK
6
CONTINUOUS
10
3.42078
20
-2.25496
11
3.42265
21
-2.25121
0
LINE
8
BLACK
6
CONTINUOUS
10
3.42265
20
-2.25121
11
3.42318
21
-2.2505
0
LINE
8
BLACK
6
CONTINUOUS
10
3.42318
20
-2.2505
11
3.4232
21
-2.25044
0
LINE
8
BLACK
6
CONTINUOUS
10
3.4232
20
-2.25044
11
3.42508
21
-2.24857
0
LINE
8
BLACK
6
CONTINUOUS
10
3.42508
20
-2.24857
11
3.42592
21
-2.24798
0
LINE
8
BLACK
6
CONTINUOUS
10
3.42592
20
-2.24798
11
3.42793
21
-2.2478
0
LINE
8
BLACK
6
CONTINUOUS
10
3.42793
20
-2.2478
11
3.42959
21
-2.24896
0
LINE
8
BLACK
6
CONTINUOUS
10
3.42959
20
-2.24896
11
3.43011
21
-2.25091
0
LINE
8
BLACK
6
CONTINUOUS
10
3.43011
20
-2.25091
11
3.42926
21
-2.25274
0
LINE
8
BLACK
6
CONTINUOUS
10
3.42926
20
-2.25274
11
3.42772
21
-2.25428
0
LINE
8
BLACK
6
CONTINUOUS
10
3.42772
20
-2.25428
11
3.42637
21
-2.25698
0
LINE
8
BLACK
6
CONTINUOUS
10
3.42637
20
-2.25698
11
3.42637
21
-2.26496
0
LINE
8
BLACK
6
CONTINUOUS
10
3.42637
20
-2.26496
11
3.42772
21
-2.26765
0
LINE
8
BLACK
6
CONTINUOUS
10
3.42772
20
-2.26765
11
3.42892
21
-2.26885
0
LINE
8
BLACK
6
CONTINUOUS
10
3.42892
20
-2.26885
11
3.43161
21
-2.2702
0
LINE
8
BLACK
6
CONTINUOUS
10
3.43161
20
-2.2702
11
3.43419
21
-2.2702
0
LINE
8
BLACK
6
CONTINUOUS
10
3.43419
20
-2.2702
11
3.4387
21
-2.2687
0
LINE
8
BLACK
6
CONTINUOUS
10
3.4387
20
-2.2687
11
3.4607
21
-2.24669
0
LINE
8
BLACK
6
CONTINUOUS
10
3.4607
20
-2.24669
11
3.46123
21
-2.24632
0
LINE
8
BLACK
6
CONTINUOUS
10
3.46123
20
-2.24632
11
3.46131
21
-2.24622
0
LINE
8
BLACK
6
CONTINUOUS
10
3.46131
20
-2.24622
11
3.46139
21
-2.24621
0
LINE
8
BLACK
6
CONTINUOUS
10
3.46139
20
-2.24621
11
3.46154
21
-2.24611
0
LINE
8
BLACK
6
CONTINUOUS
10
3.46154
20
-2.24611
11
3.46243
21
-2.24603
0
LINE
8
BLACK
6
CONTINUOUS
10
3.46243
20
-2.24603
11
3.4633
21
-2.24587
0
LINE
8
BLACK
6
CONTINUOUS
10
3.4633
20
-2.24587
11
3.46342
21
-2.24594
0
LINE
8
BLACK
6
CONTINUOUS
10
3.44837
20
-2.21031
11
3.44851
21
-2.2103
0
LINE
8
BLACK
6
CONTINUOUS
10
3.44851
20
-2.2103
11
3.45601
21
-2.21217
0
LINE
8
BLACK
6
CONTINUOUS
10
3.45601
20
-2.21217
11
3.45647
21
-2.21238
0
LINE
8
BLACK
6
CONTINUOUS
10
3.45647
20
-2.21238
11
3.45661
21
-2.21239
0
LINE
8
BLACK
6
CONTINUOUS
10
3.45661
20
-2.21239
11
3.46036
21
-2.21427
0
LINE
8
BLACK
6
CONTINUOUS
10
3.46036
20
-2.21427
11
3.46107
21
-2.2148
0
LINE
8
BLACK
6
CONTINUOUS
10
3.46107
20
-2.2148
11
3.46113
21
-2.21482
0
LINE
8
BLACK
6
CONTINUOUS
10
3.46113
20
-2.21482
11
3.463
21
-2.2167
0
LINE
8
BLACK
6
CONTINUOUS
10
3.463
20
-2.2167
11
3.46351
21
-2.21742
0
LINE
8
BLACK
6
CONTINUOUS
10
3.46351
20
-2.21742
11
3.46355
21
-2.21746
0
LINE
8
BLACK
6
CONTINUOUS
10
3.46355
20
-2.21746
11
3.46543
21
-2.22121
0
LINE
8
BLACK
6
CONTINUOUS
10
3.46543
20
-2.22121
11
3.46572
21
-2.2222
0
LINE
8
BLACK
6
CONTINUOUS
10
3.46572
20
-2.2222
11
3.46568
21
-2.22237
0
LINE
8
BLACK
6
CONTINUOUS
10
3.46568
20
-2.22237
11
3.46574
21
-2.22253
0
LINE
8
BLACK
6
CONTINUOUS
10
3.46574
20
-2.22253
11
3.46574
21
-2.22628
0
LINE
8
BLACK
6
CONTINUOUS
10
3.46574
20
-2.22628
11
3.46556
21
-2.22729
0
LINE
8
BLACK
6
CONTINUOUS
10
3.46556
20
-2.22729
11
3.46545
21
-2.22743
0
LINE
8
BLACK
6
CONTINUOUS
10
3.46545
20
-2.22743
11
3.46543
21
-2.2276
0
LINE
8
BLACK
6
CONTINUOUS
10
3.46543
20
-2.2276
11
3.46355
21
-2.23135
0
LINE
8
BLACK
6
CONTINUOUS
10
3.46355
20
-2.23135
11
3.46303
21
-2.23206
0
LINE
8
BLACK
6
CONTINUOUS
10
3.46303
20
-2.23206
11
3.463
21
-2.23212
0
LINE
8
BLACK
6
CONTINUOUS
10
3.463
20
-2.23212
11
3.46113
21
-2.234
0
LINE
8
BLACK
6
CONTINUOUS
10
3.46113
20
-2.234
11
3.4604
21
-2.2345
0
LINE
8
BLACK
6
CONTINUOUS
10
3.4604
20
-2.2345
11
3.46036
21
-2.23455
0
LINE
8
BLACK
6
CONTINUOUS
10
3.46036
20
-2.23455
11
3.45661
21
-2.23642
0
LINE
8
BLACK
6
CONTINUOUS
10
3.45661
20
-2.23642
11
3.45612
21
-2.23657
0
LINE
8
BLACK
6
CONTINUOUS
10
3.45612
20
-2.23657
11
3.45601
21
-2.23665
0
LINE
8
BLACK
6
CONTINUOUS
10
3.45601
20
-2.23665
11
3.44851
21
-2.23852
0
LINE
8
BLACK
6
CONTINUOUS
10
3.44851
20
-2.23852
11
3.44792
21
-2.23856
0
LINE
8
BLACK
6
CONTINUOUS
10
3.44792
20
-2.23856
11
3.44779
21
-2.23861
0
LINE
8
BLACK
6
CONTINUOUS
10
3.44779
20
-2.23861
11
3.43842
21
-2.23861
0
LINE
8
BLACK
6
CONTINUOUS
10
3.43842
20
-2.23861
11
3.43784
21
-2.23851
0
LINE
8
BLACK
6
CONTINUOUS
10
3.43784
20
-2.23851
11
3.4377
21
-2.23852
0
LINE
8
BLACK
6
CONTINUOUS
10
3.4377
20
-2.23852
11
3.4302
21
-2.23665
0
LINE
8
BLACK
6
CONTINUOUS
10
3.4302
20
-2.23665
11
3.42974
21
-2.23644
0
LINE
8
BLACK
6
CONTINUOUS
10
3.42974
20
-2.23644
11
3.4296
21
-2.23642
0
LINE
8
BLACK
6
CONTINUOUS
10
3.4296
20
-2.23642
11
3.42585
21
-2.23455
0
LINE
8
BLACK
6
CONTINUOUS
10
3.42585
20
-2.23455
11
3.42514
21
-2.23402
0
LINE
8
BLACK
6
CONTINUOUS
10
3.42514
20
-2.23402
11
3.42508
21
-2.234
0
LINE
8
BLACK
6
CONTINUOUS
10
3.42508
20
-2.234
11
3.4232
21
-2.23212
0
LINE
8
BLACK
6
CONTINUOUS
10
3.4232
20
-2.23212
11
3.4227
21
-2.2314
0
LINE
8
BLACK
6
CONTINUOUS
10
3.4227
20
-2.2314
11
3.42265
21
-2.23135
0
LINE
8
BLACK
6
CONTINUOUS
10
3.42265
20
-2.23135
11
3.42078
21
-2.2276
0
LINE
8
BLACK
6
CONTINUOUS
10
3.42078
20
-2.2276
11
3.42048
21
-2.22662
0
LINE
8
BLACK
6
CONTINUOUS
10
3.42048
20
-2.22662
11
3.42053
21
-2.22645
0
LINE
8
BLACK
6
CONTINUOUS
10
3.42053
20
-2.22645
11
3.42047
21
-2.22628
0
LINE
8
BLACK
6
CONTINUOUS
10
3.42047
20
-2.22628
11
3.42047
21
-2.22253
0
LINE
8
BLACK
6
CONTINUOUS
10
3.42047
20
-2.22253
11
3.42064
21
-2.22152
0
LINE
8
BLACK
6
CONTINUOUS
10
3.42064
20
-2.22152
11
3.42076
21
-2.22139
0
LINE
8
BLACK
6
CONTINUOUS
10
3.42076
20
-2.22139
11
3.42078
21
-2.22121
0
LINE
8
BLACK
6
CONTINUOUS
10
3.42078
20
-2.22121
11
3.42265
21
-2.21746
0
LINE
8
BLACK
6
CONTINUOUS
10
3.42265
20
-2.21746
11
3.42318
21
-2.21676
0
LINE
8
BLACK
6
CONTINUOUS
10
3.42318
20
-2.21676
11
3.4232
21
-2.2167
0
LINE
8
BLACK
6
CONTINUOUS
10
3.4232
20
-2.2167
11
3.42508
21
-2.21482
0
LINE
8
BLACK
6
CONTINUOUS
10
3.42508
20
-2.21482
11
3.4258
21
-2.21432
0
LINE
8
BLACK
6
CONTINUOUS
10
3.4258
20
-2.21432
11
3.42585
21
-2.21427
0
LINE
8
BLACK
6
CONTINUOUS
10
3.42585
20
-2.21427
11
3.4296
21
-2.21239
0
LINE
8
BLACK
6
CONTINUOUS
10
3.4296
20
-2.21239
11
3.43009
21
-2.21225
0
LINE
8
BLACK
6
CONTINUOUS
10
3.43009
20
-2.21225
11
3.4302
21
-2.21217
0
LINE
8
BLACK
6
CONTINUOUS
10
3.4302
20
-2.21217
11
3.4377
21
-2.2103
0
LINE
8
BLACK
6
CONTINUOUS
10
3.4377
20
-2.2103
11
3.43829
21
-2.21025
0
LINE
8
BLACK
6
CONTINUOUS
10
3.43829
20
-2.21025
11
3.43842
21
-2.21021
0
LINE
8
BLACK
6
CONTINUOUS
10
3.43842
20
-2.21021
11
3.44779
21
-2.21021
0
LINE
8
BLACK
6
CONTINUOUS
10
3.44779
20
-2.21021
11
3.44837
21
-2.21031
0
LINE
8
BLACK
6
CONTINUOUS
10
3.43195
20
-2.21782
11
3.42892
21
-2.21934
0
LINE
8
BLACK
6
CONTINUOUS
10
3.42892
20
-2.21934
11
3.42772
21
-2.22053
0
LINE
8
BLACK
6
CONTINUOUS
10
3.42772
20
-2.22053
11
3.42637
21
-2.22323
0
LINE
8
BLACK
6
CONTINUOUS
10
3.42637
20
-2.22323
11
3.42637
21
-2.22559
0
LINE
8
BLACK
6
CONTINUOUS
10
3.42637
20
-2.22559
11
3.42772
21
-2.22828
0
LINE
8
BLACK
6
CONTINUOUS
10
3.42772
20
-2.22828
11
3.42892
21
-2.22948
0
LINE
8
BLACK
6
CONTINUOUS
10
3.42892
20
-2.22948
11
3.43195
21
-2.231
0
LINE
8
BLACK
6
CONTINUOUS
10
3.43195
20
-2.231
11
3.43878
21
-2.23271
0
LINE
8
BLACK
6
CONTINUOUS
10
3.43878
20
-2.23271
11
3.44743
21
-2.23271
0
LINE
8
BLACK
6
CONTINUOUS
10
3.44743
20
-2.23271
11
3.45426
21
-2.231
0
LINE
8
BLACK
6
CONTINUOUS
10
3.45426
20
-2.231
11
3.45729
21
-2.22948
0
LINE
8
BLACK
6
CONTINUOUS
10
3.45729
20
-2.22948
11
3.45849
21
-2.22828
0
LINE
8
BLACK
6
CONTINUOUS
10
3.45849
20
-2.22828
11
3.45984
21
-2.22559
0
LINE
8
BLACK
6
CONTINUOUS
10
3.45984
20
-2.22559
11
3.45984
21
-2.22323
0
LINE
8
BLACK
6
CONTINUOUS
10
3.45984
20
-2.22323
11
3.45849
21
-2.22053
0
LINE
8
BLACK
6
CONTINUOUS
10
3.45849
20
-2.22053
11
3.45729
21
-2.21934
0
LINE
8
BLACK
6
CONTINUOUS
10
3.45729
20
-2.21934
11
3.45426
21
-2.21782
0
LINE
8
BLACK
6
CONTINUOUS
10
3.45426
20
-2.21782
11
3.44743
21
-2.21611
0
LINE
8
BLACK
6
CONTINUOUS
10
3.44743
20
-2.21611
11
3.43878
21
-2.21611
0
LINE
8
BLACK
6
CONTINUOUS
10
3.43878
20
-2.21611
11
3.43195
21
-2.21782
0
LINE
8
BLACK
6
CONTINUOUS
10
3.4688
20
-2.17377
11
3.46949
21
-2.17567
0
LINE
8
BLACK
6
CONTINUOUS
10
3.46949
20
-2.17567
11
3.46949
21
-2.20566
0
LINE
8
BLACK
6
CONTINUOUS
10
3.46949
20
-2.20566
11
3.46931
21
-2.20667
0
LINE
8
BLACK
6
CONTINUOUS
10
3.46931
20
-2.20667
11
3.46801
21
-2.20822
0
LINE
8
BLACK
6
CONTINUOUS
10
3.46801
20
-2.20822
11
3.46602
21
-2.20857
0
LINE
8
BLACK
6
CONTINUOUS
10
3.46602
20
-2.20857
11
3.46428
21
-2.20756
0
LINE
8
BLACK
6
CONTINUOUS
10
3.46428
20
-2.20756
11
3.46358
21
-2.20566
0
LINE
8
BLACK
6
CONTINUOUS
10
3.46358
20
-2.20566
11
3.46358
21
-2.17567
0
LINE
8
BLACK
6
CONTINUOUS
10
3.46358
20
-2.17567
11
3.46376
21
-2.17466
0
LINE
8
BLACK
6
CONTINUOUS
10
3.46376
20
-2.17466
11
3.46506
21
-2.17311
0
LINE
8
BLACK
6
CONTINUOUS
10
3.46506
20
-2.17311
11
3.46705
21
-2.17276
0
LINE
8
BLACK
6
CONTINUOUS
10
3.46705
20
-2.17276
11
3.4688
21
-2.17377
0
LINE
8
BLACK
6
CONTINUOUS
10
3.4638
20
-2.14664
11
3.46535
21
-2.14794
0
LINE
8
BLACK
6
CONTINUOUS
10
3.46535
20
-2.14794
11
3.4657
21
-2.14993
0
LINE
8
BLACK
6
CONTINUOUS
10
3.4657
20
-2.14993
11
3.46469
21
-2.15168
0
LINE
8
BLACK
6
CONTINUOUS
10
3.46469
20
-2.15168
11
3.46279
21
-2.15237
0
LINE
8
BLACK
6
CONTINUOUS
10
3.46279
20
-2.15237
11
3.44151
21
-2.15237
0
LINE
8
BLACK
6
CONTINUOUS
10
3.44151
20
-2.15237
11
3.44084
21
-2.15304
0
LINE
8
BLACK
6
CONTINUOUS
10
3.44084
20
-2.15304
11
3.43949
21
-2.15574
0
LINE
8
BLACK
6
CONTINUOUS
10
3.43949
20
-2.15574
11
3.43949
21
-2.15997
0
LINE
8
BLACK
6
CONTINUOUS
10
3.43949
20
-2.15997
11
3.44062
21
-2.16222
0
LINE
8
BLACK
6
CONTINUOUS
10
3.44062
20
-2.16222
11
3.44286
21
-2.16334
0
LINE
8
BLACK
6
CONTINUOUS
10
3.44286
20
-2.16334
11
3.46279
21
-2.16334
0
LINE
8
BLACK
6
CONTINUOUS
10
3.46279
20
-2.16334
11
3.4638
21
-2.16352
0
LINE
8
BLACK
6
CONTINUOUS
10
3.4638
20
-2.16352
11
3.46535
21
-2.16482
0
LINE
8
BLACK
6
CONTINUOUS
10
3.46535
20
-2.16482
11
3.4657
21
-2.1668
0
LINE
8
BLACK
6
CONTINUOUS
10
3.4657
20
-2.1668
11
3.46469
21
-2.16855
0
LINE
8
BLACK
6
CONTINUOUS
10
3.46469
20
-2.16855
11
3.46279
21
-2.16924
0
LINE
8
BLACK
6
CONTINUOUS
10
3.46279
20
-2.16924
11
3.44217
21
-2.16924
0
LINE
8
BLACK
6
CONTINUOUS
10
3.44217
20
-2.16924
11
3.44116
21
-2.16907
0
LINE
8
BLACK
6
CONTINUOUS
10
3.44116
20
-2.16907
11
3.44102
21
-2.16895
0
LINE
8
BLACK
6
CONTINUOUS
10
3.44102
20
-2.16895
11
3.44085
21
-2.16893
0
LINE
8
BLACK
6
CONTINUOUS
10
3.44085
20
-2.16893
11
3.4371
21
-2.16706
0
LINE
8
BLACK
6
CONTINUOUS
10
3.4371
20
-2.16706
11
3.43627
21
-2.16645
0
LINE
8
BLACK
6
CONTINUOUS
10
3.43627
20
-2.16645
11
3.4361
21
-2.16604
0
LINE
8
BLACK
6
CONTINUOUS
10
3.4361
20
-2.16604
11
3.43578
21
-2.16574
0
LINE
8
BLACK
6
CONTINUOUS
10
3.43578
20
-2.16574
11
3.4339
21
-2.16199
0
LINE
8
BLACK
6
CONTINUOUS
10
3.4339
20
-2.16199
11
3.43361
21
-2.161
0
LINE
8
BLACK
6
CONTINUOUS
10
3.43361
20
-2.161
11
3.43365
21
-2.16083
0
LINE
8
BLACK
6
CONTINUOUS
10
3.43365
20
-2.16083
11
3.43359
21
-2.16067
0
LINE
8
BLACK
6
CONTINUOUS
10
3.43359
20
-2.16067
11
3.43359
21
-2.15504
0
LINE
8
BLACK
6
CONTINUOUS
10
3.43359
20
-2.15504
11
3.43377
21
-2.15403
0
LINE
8
BLACK
6
CONTINUOUS
10
3.43377
20
-2.15403
11
3.43388
21
-2.1539
0
LINE
8
BLACK
6
CONTINUOUS
10
3.43388
20
-2.1539
11
3.4339
21
-2.15372
0
LINE
8
BLACK
6
CONTINUOUS
10
3.4339
20
-2.15372
11
3.43492
21
-2.15168
0
LINE
8
BLACK
6
CONTINUOUS
10
3.43492
20
-2.15168
11
3.43398
21
-2.1509
0
LINE
8
BLACK
6
CONTINUOUS
10
3.43398
20
-2.1509
11
3.43363
21
-2.14891
0
LINE
8
BLACK
6
CONTINUOUS
10
3.43363
20
-2.14891
11
3.43464
21
-2.14716
0
LINE
8
BLACK
6
CONTINUOUS
10
3.43464
20
-2.14716
11
3.43654
21
-2.14647
0
LINE
8
BLACK
6
CONTINUOUS
10
3.43654
20
-2.14647
11
3.46279
21
-2.14647
0
LINE
8
BLACK
6
CONTINUOUS
10
3.46279
20
-2.14647
11
3.4638
21
-2.14664
0
LINE
8
BLACK
6
CONTINUOUS
10
3.4638
20
-2.11102
11
3.46535
21
-2.11232
0
LINE
8
BLACK
6
CONTINUOUS
10
3.46535
20
-2.11232
11
3.4657
21
-2.11431
0
LINE
8
BLACK
6
CONTINUOUS
10
3.4657
20
-2.11431
11
3.46469
21
-2.11606
0
LINE
8
BLACK
6
CONTINUOUS
10
3.46469
20
-2.11606
11
3.46279
21
-2.11675
0
LINE
8
BLACK
6
CONTINUOUS
10
3.46279
20
-2.11675
11
3.44151
21
-2.11675
0
LINE
8
BLACK
6
CONTINUOUS
10
3.44151
20
-2.11675
11
3.44084
21
-2.11742
0
LINE
8
BLACK
6
CONTINUOUS
10
3.44084
20
-2.11742
11
3.43949
21
-2.12012
0
LINE
8
BLACK
6
CONTINUOUS
10
3.43949
20
-2.12012
11
3.43949
21
-2.12435
0
LINE
8
BLACK
6
CONTINUOUS
10
3.43949
20
-2.12435
11
3.44062
21
-2.1266
0
LINE
8
BLACK
6
CONTINUOUS
10
3.44062
20
-2.1266
11
3.44286
21
-2.12772
0
LINE
8
BLACK
6
CONTINUOUS
10
3.44286
20
-2.12772
11
3.46279
21
-2.12772
0
LINE
8
BLACK
6
CONTINUOUS
10
3.46279
20
-2.12772
11
3.4638
21
-2.1279
0
LINE
8
BLACK
6
CONTINUOUS
10
3.4638
20
-2.1279
11
3.46535
21
-2.12919
0
LINE
8
BLACK
6
CONTINUOUS
10
3.46535
20
-2.12919
11
3.4657
21
-2.13118
0
LINE
8
BLACK
6
CONTINUOUS
10
3.4657
20
-2.13118
11
3.46469
21
-2.13293
0
LINE
8
BLACK
6
CONTINUOUS
10
3.46469
20
-2.13293
11
3.46279
21
-2.13362
0
LINE
8
BLACK
6
CONTINUOUS
10
3.46279
20
-2.13362
11
3.44217
21
-2.13362
0
LINE
8
BLACK
6
CONTINUOUS
10
3.44217
20
-2.13362
11
3.44116
21
-2.13345
0
LINE
8
BLACK
6
CONTINUOUS
10
3.44116
20
-2.13345
11
3.44102
21
-2.13333
0
LINE
8
BLACK
6
CONTINUOUS
10
3.44102
20
-2.13333
11
3.44085
21
-2.13331
0
LINE
8
BLACK
6
CONTINUOUS
10
3.44085
20
-2.13331
11
3.4371
21
-2.13144
0
LINE
8
BLACK
6
CONTINUOUS
10
3.4371
20
-2.13144
11
3.43627
21
-2.13083
0
LINE
8
BLACK
6
CONTINUOUS
10
3.43627
20
-2.13083
11
3.4361
21
-2.13042
0
LINE
8
BLACK
6
CONTINUOUS
10
3.4361
20
-2.13042
11
3.43578
21
-2.13012
0
LINE
8
BLACK
6
CONTINUOUS
10
3.43578
20
-2.13012
11
3.4339
21
-2.12637
0
LINE
8
BLACK
6
CONTINUOUS
10
3.4339
20
-2.12637
11
3.43361
21
-2.12538
0
LINE
8
BLACK
6
CONTINUOUS
10
3.43361
20
-2.12538
11
3.43365
21
-2.12521
0
LINE
8
BLACK
6
CONTINUOUS
10
3.43365
20
-2.12521
11
3.43359
21
-2.12505
0
LINE
8
BLACK
6
CONTINUOUS
10
3.43359
20
-2.12505
11
3.43359
21
-2.11942
0
LINE
8
BLACK
6
CONTINUOUS
10
3.43359
20
-2.11942
11
3.43377
21
-2.11841
0
LINE
8
BLACK
6
CONTINUOUS
10
3.43377
20
-2.11841
11
3.43388
21
-2.11828
0
LINE
8
BLACK
6
CONTINUOUS
10
3.43388
20
-2.11828
11
3.4339
21
-2.1181
0
LINE
8
BLACK
6
CONTINUOUS
10
3.4339
20
-2.1181
11
3.43492
21
-2.11606
0
LINE
8
BLACK
6
CONTINUOUS
10
3.43492
20
-2.11606
11
3.43398
21
-2.11527
0
LINE
8
BLACK
6
CONTINUOUS
10
3.43398
20
-2.11527
11
3.43363
21
-2.11329
0
LINE
8
BLACK
6
CONTINUOUS
10
3.43363
20
-2.11329
11
3.43464
21
-2.11154
0
LINE
8
BLACK
6
CONTINUOUS
10
3.43464
20
-2.11154
11
3.43654
21
-2.11085
0
LINE
8
BLACK
6
CONTINUOUS
10
3.43654
20
-2.11085
11
3.46279
21
-2.11085
0
LINE
8
BLACK
6
CONTINUOUS
10
3.46279
20
-2.11085
11
3.4638
21
-2.11102
0
LINE
8
BLACK
6
CONTINUOUS
10
3.4563
20
-2.07353
11
3.45643
21
-2.07364
0
LINE
8
BLACK
6
CONTINUOUS
10
3.45643
20
-2.07364
11
3.45661
21
-2.07366
0
LINE
8
BLACK
6
CONTINUOUS
10
3.45661
20
-2.07366
11
3.46036
21
-2.07554
0
LINE
8
BLACK
6
CONTINUOUS
10
3.46036
20
-2.07554
11
3.46107
21
-2.07606
0
LINE
8
BLACK
6
CONTINUOUS
10
3.46107
20
-2.07606
11
3.46113
21
-2.07609
0
LINE
8
BLACK
6
CONTINUOUS
10
3.46113
20
-2.07609
11
3.463
21
-2.07796
0
LINE
8
BLACK
6
CONTINUOUS
10
3.463
20
-2.07796
11
3.46351
21
-2.07869
0
LINE
8
BLACK
6
CONTINUOUS
10
3.46351
20
-2.07869
11
3.46355
21
-2.07873
0
LINE
8
BLACK
6
CONTINUOUS
10
3.46355
20
-2.07873
11
3.46543
21
-2.08248
0
LINE
8
BLACK
6
CONTINUOUS
10
3.46543
20
-2.08248
11
3.46572
21
-2.08346
0
LINE
8
BLACK
6
CONTINUOUS
10
3.46572
20
-2.08346
11
3.46568
21
-2.08364
0
LINE
8
BLACK
6
CONTINUOUS
10
3.46568
20
-2.08364
11
3.46574
21
-2.0838
0
LINE
8
BLACK
6
CONTINUOUS
10
3.46574
20
-2.0838
11
3.46574
21
-2.08943
0
LINE
8
BLACK
6
CONTINUOUS
10
3.46574
20
-2.08943
11
3.46556
21
-2.09044
0
LINE
8
BLACK
6
CONTINUOUS
10
3.46556
20
-2.09044
11
3.46545
21
-2.09057
0
LINE
8
BLACK
6
CONTINUOUS
10
3.46545
20
-2.09057
11
3.46543
21
-2.09075
0
LINE
8
BLACK
6
CONTINUOUS
10
3.46543
20
-2.09075
11
3.46355
21
-2.0945
0
LINE
8
BLACK
6
CONTINUOUS
10
3.46355
20
-2.0945
11
3.46303
21
-2.09521
0
LINE
8
BLACK
6
CONTINUOUS
10
3.46303
20
-2.09521
11
3.463
21
-2.09526
0
LINE
8
BLACK
6
CONTINUOUS
10
3.463
20
-2.09526
11
3.46113
21
-2.09714
0
LINE
8
BLACK
6
CONTINUOUS
10
3.46113
20
-2.09714
11
3.4604
21
-2.09764
0
LINE
8
BLACK
6
CONTINUOUS
10
3.4604
20
-2.09764
11
3.46036
21
-2.09769
0
LINE
8
BLACK
6
CONTINUOUS
10
3.46036
20
-2.09769
11
3.45661
21
-2.09957
0
LINE
8
BLACK
6
CONTINUOUS
10
3.45661
20
-2.09957
11
3.45563
21
-2.09986
0
LINE
8
BLACK
6
CONTINUOUS
10
3.45563
20
-2.09986
11
3.45545
21
-2.09982
0
LINE
8
BLACK
6
CONTINUOUS
10
3.45545
20
-2.09982
11
3.45529
21
-2.09988
0
LINE
8
BLACK
6
CONTINUOUS
10
3.45529
20
-2.09988
11
3.44404
21
-2.09988
0
LINE
8
BLACK
6
CONTINUOUS
10
3.44404
20
-2.09988
11
3.44303
21
-2.0997
0
LINE
8
BLACK
6
CONTINUOUS
10
3.44303
20
-2.0997
11
3.4429
21
-2.09959
0
LINE
8
BLACK
6
CONTINUOUS
10
3.4429
20
-2.09959
11
3.44272
21
-2.09957
0
LINE
8
BLACK
6
CONTINUOUS
10
3.44272
20
-2.09957
11
3.43897
21
-2.09769
0
LINE
8
BLACK
6
CONTINUOUS
10
3.43897
20
-2.09769
11
3.43826
21
-2.09717
0
LINE
8
BLACK
6
CONTINUOUS
10
3.43826
20
-2.09717
11
3.4382
21
-2.09714
0
LINE
8
BLACK
6
CONTINUOUS
10
3.4382
20
-2.09714
11
3.43633
21
-2.09526
0
LINE
8
BLACK
6
CONTINUOUS
10
3.43633
20
-2.09526
11
3.43582
21
-2.09454
0
LINE
8
BLACK
6
CONTINUOUS
10
3.43582
20
-2.09454
11
3.43578
21
-2.0945
0
LINE
8
BLACK
6
CONTINUOUS
10
3.43578
20
-2.0945
11
3.4339
21
-2.09075
0
LINE
8
BLACK
6
CONTINUOUS
10
3.4339
20
-2.09075
11
3.43361
21
-2.08976
0
LINE
8
BLACK
6
CONTINUOUS
10
3.43361
20
-2.08976
11
3.43365
21
-2.08959
0
LINE
8
BLACK
6
CONTINUOUS
10
3.43365
20
-2.08959
11
3.43359
21
-2.08943
0
LINE
8
BLACK
6
CONTINUOUS
10
3.43359
20
-2.08943
11
3.43359
21
-2.0838
0
LINE
8
BLACK
6
CONTINUOUS
10
3.43359
20
-2.0838
11
3.43377
21
-2.08279
0
LINE
8
BLACK
6
CONTINUOUS
10
3.43377
20
-2.08279
11
3.43388
21
-2.08266
0
LINE
8
BLACK
6
CONTINUOUS
10
3.43388
20
-2.08266
11
3.4339
21
-2.08248
0
LINE
8
BLACK
6
CONTINUOUS
10
3.4339
20
-2.08248
11
3.43578
21
-2.07873
0
LINE
8
BLACK
6
CONTINUOUS
10
3.43578
20
-2.07873
11
3.4363
21
-2.07802
0
LINE
8
BLACK
6
CONTINUOUS
10
3.4363
20
-2.07802
11
3.43633
21
-2.07796
0
LINE
8
BLACK
6
CONTINUOUS
10
3.43633
20
-2.07796
11
3.4382
21
-2.07609
0
LINE
8
BLACK
6
CONTINUOUS
10
3.4382
20
-2.07609
11
3.43893
21
-2.07558
0
LINE
8
BLACK
6
CONTINUOUS
10
3.43893
20
-2.07558
11
3.43897
21
-2.07554
0
LINE
8
BLACK
6
CONTINUOUS
10
3.43897
20
-2.07554
11
3.44272
21
-2.07366
0
LINE
8
BLACK
6
CONTINUOUS
10
3.44272
20
-2.07366
11
3.4437
21
-2.07337
0
LINE
8
BLACK
6
CONTINUOUS
10
3.4437
20
-2.07337
11
3.44387
21
-2.07341
0
LINE
8
BLACK
6
CONTINUOUS
10
3.44387
20
-2.07341
11
3.44404
21
-2.07335
0
LINE
8
BLACK
6
CONTINUOUS
10
3.44404
20
-2.07335
11
3.45529
21
-2.07335
0
LINE
8
BLACK
6
CONTINUOUS
10
3.45529
20
-2.07335
11
3.4563
21
-2.07353
0
LINE
8
BLACK
6
CONTINUOUS
10
3.44204
20
-2.0806
11
3.44084
21
-2.0818
0
LINE
8
BLACK
6
CONTINUOUS
10
3.44084
20
-2.0818
11
3.43949
21
-2.0845
0
LINE
8
BLACK
6
CONTINUOUS
10
3.43949
20
-2.0845
11
3.43949
21
-2.08873
0
LINE
8
BLACK
6
CONTINUOUS
10
3.43949
20
-2.08873
11
3.44084
21
-2.09143
0
LINE
8
BLACK
6
CONTINUOUS
10
3.44084
20
-2.09143
11
3.44204
21
-2.09262
0
LINE
8
BLACK
6
CONTINUOUS
10
3.44204
20
-2.09262
11
3.44474
21
-2.09397
0
LINE
8
BLACK
6
CONTINUOUS
10
3.44474
20
-2.09397
11
3.45459
21
-2.09397
0
LINE
8
BLACK
6
CONTINUOUS
10
3.45459
20
-2.09397
11
3.45729
21
-2.09262
0
LINE
8
BLACK
6
CONTINUOUS
10
3.45729
20
-2.09262
11
3.45849
21
-2.09143
0
LINE
8
BLACK
6
CONTINUOUS
10
3.45849
20
-2.09143
11
3.45984
21
-2.08873
0
LINE
8
BLACK
6
CONTINUOUS
10
3.45984
20
-2.08873
11
3.45984
21
-2.0845
0
LINE
8
BLACK
6
CONTINUOUS
10
3.45984
20
-2.0845
11
3.45849
21
-2.0818
0
LINE
8
BLACK
6
CONTINUOUS
10
3.45849
20
-2.0818
11
3.45729
21
-2.0806
0
LINE
8
BLACK
6
CONTINUOUS
10
3.45729
20
-2.0806
11
3.45459
21
-2.07926
0
LINE
8
BLACK
6
CONTINUOUS
10
3.45459
20
-2.07926
11
3.44474
21
-2.07926
0
LINE
8
BLACK
6
CONTINUOUS
10
3.44474
20
-2.07926
11
3.44204
21
-2.0806
0
LINE
8
BLACK
6
CONTINUOUS
10
3.4465
20
-2.03408
11
3.44663
21
-2.03407
0
LINE
8
BLACK
6
CONTINUOUS
10
3.44663
20
-2.03407
11
3.45413
21
-2.03594
0
LINE
8
BLACK
6
CONTINUOUS
10
3.45413
20
-2.03594
11
3.4546
21
-2.03615
0
LINE
8
BLACK
6
CONTINUOUS
10
3.4546
20
-2.03615
11
3.45473
21
-2.03617
0
LINE
8
BLACK
6
CONTINUOUS
10
3.45473
20
-2.03617
11
3.45848
21
-2.03804
0
LINE
8
BLACK
6
CONTINUOUS
10
3.45848
20
-2.03804
11
3.45919
21
-2.03857
0
LINE
8
BLACK
6
CONTINUOUS
10
3.45919
20
-2.03857
11
3.45925
21
-2.03859
0
LINE
8
BLACK
6
CONTINUOUS
10
3.45925
20
-2.03859
11
3.463
21
-2.04234
0
LINE
8
BLACK
6
CONTINUOUS
10
3.463
20
-2.04234
11
3.46359
21
-2.04318
0
LINE
8
BLACK
6
CONTINUOUS
10
3.46359
20
-2.04318
11
3.4636
21
-2.04336
0
LINE
8
BLACK
6
CONTINUOUS
10
3.4636
20
-2.04336
11
3.46371
21
-2.0435
0
LINE
8
BLACK
6
CONTINUOUS
10
3.46371
20
-2.0435
11
3.46559
21
-2.04912
0
LINE
8
BLACK
6
CONTINUOUS
10
3.46559
20
-2.04912
11
3.46572
21
-2.05
0
LINE
8
BLACK
6
CONTINUOUS
10
3.46572
20
-2.05
11
3.46574
21
-2.05006
0
LINE
8
BLACK
6
CONTINUOUS
10
3.46574
20
-2.05006
11
3.46574
21
-2.05381
0
LINE
8
BLACK
6
CONTINUOUS
10
3.46574
20
-2.05381
11
3.46559
21
-2.05468
0
LINE
8
BLACK
6
CONTINUOUS
10
3.46559
20
-2.05468
11
3.46559
21
-2.05474
0
LINE
8
BLACK
6
CONTINUOUS
10
3.46559
20
-2.05474
11
3.46371
21
-2.06036
0
LINE
8
BLACK
6
CONTINUOUS
10
3.46371
20
-2.06036
11
3.46323
21
-2.06127
0
LINE
8
BLACK
6
CONTINUOUS
10
3.46323
20
-2.06127
11
3.46308
21
-2.06136
0
LINE
8
BLACK
6
CONTINUOUS
10
3.46308
20
-2.06136
11
3.463
21
-2.06152
0
LINE
8
BLACK
6
CONTINUOUS
10
3.463
20
-2.06152
11
3.46113
21
-2.06339
0
LINE
8
BLACK
6
CONTINUOUS
10
3.46113
20
-2.06339
11
3.46029
21
-2.06398
0
LINE
8
BLACK
6
CONTINUOUS
10
3.46029
20
-2.06398
11
3.45827
21
-2.06416
0
LINE
8
BLACK
6
CONTINUOUS
10
3.45827
20
-2.06416
11
3.45662
21
-2.063
0
LINE
8
BLACK
6
CONTINUOUS
10
3.45662
20
-2.063
11
3.4561
21
-2.06105
0
LINE
8
BLACK
6
CONTINUOUS
10
3.4561
20
-2.06105
11
3.45695
21
-2.05922
0
LINE
8
BLACK
6
CONTINUOUS
10
3.45695
20
-2.05922
11
3.45833
21
-2.05783
0
LINE
8
BLACK
6
CONTINUOUS
10
3.45833
20
-2.05783
11
3.45984
21
-2.05333
0
LINE
8
BLACK
6
CONTINUOUS
10
3.45984
20
-2.05333
11
3.45984
21
-2.05054
0
LINE
8
BLACK
6
CONTINUOUS
10
3.45984
20
-2.05054
11
3.45833
21
-2.04603
0
LINE
8
BLACK
6
CONTINUOUS
10
3.45833
20
-2.04603
11
3.45541
21
-2.04311
0
LINE
8
BLACK
6
CONTINUOUS
10
3.45541
20
-2.04311
11
3.45238
21
-2.04159
0
LINE
8
BLACK
6
CONTINUOUS
10
3.45238
20
-2.04159
11
3.44555
21
-2.03989
0
LINE
8
BLACK
6
CONTINUOUS
10
3.44555
20
-2.03989
11
3.44065
21
-2.03989
0
LINE
8
BLACK
6
CONTINUOUS
10
3.44065
20
-2.03989
11
3.43382
21
-2.04159
0
LINE
8
BLACK
6
CONTINUOUS
10
3.43382
20
-2.04159
11
3.43079
21
-2.04311
0
LINE
8
BLACK
6
CONTINUOUS
10
3.43079
20
-2.04311
11
3.42787
21
-2.04603
0
LINE
8
BLACK
6
CONTINUOUS
10
3.42787
20
-2.04603
11
3.42637
21
-2.05054
0
LINE
8
BLACK
6
CONTINUOUS
10
3.42637
20
-2.05054
11
3.42637
21
-2.05333
0
LINE
8
BLACK
6
CONTINUOUS
10
3.42637
20
-2.05333
11
3.42787
21
-2.05783
0
LINE
8
BLACK
6
CONTINUOUS
10
3.42787
20
-2.05783
11
3.42926
21
-2.05922
0
LINE
8
BLACK
6
CONTINUOUS
10
3.42926
20
-2.05922
11
3.42984
21
-2.06006
0
LINE
8
BLACK
6
CONTINUOUS
10
3.42984
20
-2.06006
11
3.43002
21
-2.06207
0
LINE
8
BLACK
6
CONTINUOUS
10
3.43002
20
-2.06207
11
3.42886
21
-2.06372
0
LINE
8
BLACK
6
CONTINUOUS
10
3.42886
20
-2.06372
11
3.42691
21
-2.06425
0
LINE
8
BLACK
6
CONTINUOUS
10
3.42691
20
-2.06425
11
3.42508
21
-2.06339
0
LINE
8
BLACK
6
CONTINUOUS
10
3.42508
20
-2.06339
11
3.4232
21
-2.06152
0
LINE
8
BLACK
6
CONTINUOUS
10
3.4232
20
-2.06152
11
3.42262
21
-2.06068
0
LINE
8
BLACK
6
CONTINUOUS
10
3.42262
20
-2.06068
11
3.4226
21
-2.0605
0
LINE
8
BLACK
6
CONTINUOUS
10
3.4226
20
-2.0605
11
3.42249
21
-2.06036
0
LINE
8
BLACK
6
CONTINUOUS
10
3.42249
20
-2.06036
11
3.42062
21
-2.05474
0
LINE
8
BLACK
6
CONTINUOUS
10
3.42062
20
-2.05474
11
3.42049
21
-2.05387
0
LINE
8
BLACK
6
CONTINUOUS
10
3.42049
20
-2.05387
11
3.42047
21
-2.05381
0
LINE
8
BLACK
6
CONTINUOUS
10
3.42047
20
-2.05381
11
3.42047
21
-2.05006
0
LINE
8
BLACK
6
CONTINUOUS
10
3.42047
20
-2.05006
11
3.42062
21
-2.04919
0
LINE
8
BLACK
6
CONTINUOUS
10
3.42062
20
-2.04919
11
3.42062
21
-2.04912
0
LINE
8
BLACK
6
CONTINUOUS
10
3.42062
20
-2.04912
11
3.42249
21
-2.0435
0
LINE
8
BLACK
6
CONTINUOUS
10
3.42249
20
-2.0435
11
3.42298
21
-2.0426
0
LINE
8
BLACK
6
CONTINUOUS
10
3.42298
20
-2.0426
11
3.42313
21
-2.0425
0
LINE
8
BLACK
6
CONTINUOUS
10
3.42313
20
-2.0425
11
3.4232
21
-2.04234
0
LINE
8
BLACK
6
CONTINUOUS
10
3.4232
20
-2.04234
11
3.42695
21
-2.03859
0
LINE
8
BLACK
6
CONTINUOUS
10
3.42695
20
-2.03859
11
3.42768
21
-2.03809
0
LINE
8
BLACK
6
CONTINUOUS
10
3.42768
20
-2.03809
11
3.42772
21
-2.03804
0
LINE
8
BLACK
6
CONTINUOUS
10
3.42772
20
-2.03804
11
3.43147
21
-2.03617
0
LINE
8
BLACK
6
CONTINUOUS
10
3.43147
20
-2.03617
11
3.43196
21
-2.03602
0
LINE
8
BLACK
6
CONTINUOUS
10
3.43196
20
-2.03602
11
3.43208
21
-2.03594
0
LINE
8
BLACK
6
CONTINUOUS
10
3.43208
20
-2.03594
11
3.43957
21
-2.03407
0
LINE
8
BLACK
6
CONTINUOUS
10
3.43957
20
-2.03407
11
3.44016
21
-2.03403
0
LINE
8
BLACK
6
CONTINUOUS
10
3.44016
20
-2.03403
11
3.44029
21
-2.03398
0
LINE
8
BLACK
6
CONTINUOUS
10
3.44029
20
-2.03398
11
3.44592
21
-2.03398
0
LINE
8
BLACK
6
CONTINUOUS
10
3.44592
20
-2.03398
11
3.4465
21
-2.03408
  0
ENDSEC
  0
EOF
