  0
SECTION
  2
HEADER
  9
$ANGBASE
  50
0.0
  9
$ANGDIR
  70
1
  9
$MEASUREMENT
  70
0
  0
ENDSEC
  0
SECTION
  2
TABLES
  0
TABLE
  2
LTYPE
  70
4
  0
LTYPE
  5
40F
  2
CONTINUOUS
  70
0
  3
Solid line
  72
65
  73
0
  40
0.0
  0
LTYPE
  5
410
  2
DASHDOT
 70
0
  3
Dash Dot ____ _ ____ _
 72
65
 73
4
 40
2.0
 49
1.25
 49
-0.25
 49
0.25
 49
-0.25
  0
LTYPE
  5
411
  2
DASHED
 70
0
  3
Dashed __ __ __ __ __
 72
65
 73
2
 40
0.75
 49
0.5
 49
-0.25
  0
LTYPE
  5
43B
  2
DOTTED
 70
0
  3
Dotted .  .  .  .
 72
65
 73
2
 40
0.2
 49
0.0
 49
-0.2
  0
ENDTAB
  0
TABLE
  2
STYLE
  70
4
  0
STYLE
  2
KICAD
  70
0
  40
0
  41
1
  42
1
  50
0
  71
0
  3
isocp.shx
  0
STYLE
  2
KICADB
  70
0
  40
0
  41
1
  42
1
  50
0
  71
0
  3
isocp.shx
  0
STYLE
  2
KICADI
  70
0
  40
0
  41
1
  42
1
  50
15
  71
0
  3
isocp.shx
  0
STYLE
  2
KICADBI
  70
0
  40
0
  41
1
  42
1
  50
15
  71
0
  3
isocp.shx
  0
ENDTAB
  0
TABLE
  2
LAYER
  70
1
  0
LAYER
  2
BLACK
  70
0
  62
7
  6
CONTINUOUS
  0
ENDTAB
  0
ENDSEC
  0
SECTION
  2
ENTITIES
0
LINE
8
BLACK
6
CONTINUOUS
10
3.26837
20
-2.86757
11
3.26851
21
-2.86755
0
LINE
8
BLACK
6
CONTINUOUS
10
3.26851
20
-2.86755
11
3.26924
21
-2.86806
0
LINE
8
BLACK
6
CONTINUOUS
10
3.26924
20
-2.86806
11
3.27001
21
-2.86851
0
LINE
8
BLACK
6
CONTINUOUS
10
3.27001
20
-2.86851
11
3.27005
21
-2.86864
0
LINE
8
BLACK
6
CONTINUOUS
10
3.27005
20
-2.86864
11
3.27016
21
-2.86871
0
LINE
8
BLACK
6
CONTINUOUS
10
3.27016
20
-2.86871
11
3.27039
21
-2.86957
0
LINE
8
BLACK
6
CONTINUOUS
10
3.27039
20
-2.86957
11
3.2707
21
-2.87041
0
LINE
8
BLACK
6
CONTINUOUS
10
3.2707
20
-2.87041
11
3.2707
21
-2.88625
0
LINE
8
BLACK
6
CONTINUOUS
10
3.2707
20
-2.88625
11
3.27052
21
-2.88726
0
LINE
8
BLACK
6
CONTINUOUS
10
3.27052
20
-2.88726
11
3.26922
21
-2.88881
0
LINE
8
BLACK
6
CONTINUOUS
10
3.26922
20
-2.88881
11
3.26723
21
-2.88916
0
LINE
8
BLACK
6
CONTINUOUS
10
3.26723
20
-2.88916
11
3.26548
21
-2.88815
0
LINE
8
BLACK
6
CONTINUOUS
10
3.26548
20
-2.88815
11
3.26479
21
-2.88625
0
LINE
8
BLACK
6
CONTINUOUS
10
3.26479
20
-2.88625
11
3.26479
21
-2.87754
0
LINE
8
BLACK
6
CONTINUOUS
10
3.26479
20
-2.87754
11
3.25521
21
-2.88712
0
LINE
8
BLACK
6
CONTINUOUS
10
3.25521
20
-2.88712
11
3.25437
21
-2.88771
0
LINE
8
BLACK
6
CONTINUOUS
10
3.25437
20
-2.88771
11
3.25419
21
-2.88772
0
LINE
8
BLACK
6
CONTINUOUS
10
3.25419
20
-2.88772
11
3.25405
21
-2.88783
0
LINE
8
BLACK
6
CONTINUOUS
10
3.25405
20
-2.88783
11
3.2504
21
-2.88905
0
LINE
8
BLACK
6
CONTINUOUS
10
3.2504
20
-2.88905
11
3.24953
21
-2.88918
0
LINE
8
BLACK
6
CONTINUOUS
10
3.24953
20
-2.88918
11
3.24947
21
-2.8892
0
LINE
8
BLACK
6
CONTINUOUS
10
3.24947
20
-2.8892
11
3.24703
21
-2.8892
0
LINE
8
BLACK
6
CONTINUOUS
10
3.24703
20
-2.8892
11
3.24602
21
-2.88902
0
LINE
8
BLACK
6
CONTINUOUS
10
3.24602
20
-2.88902
11
3.24588
21
-2.88891
0
LINE
8
BLACK
6
CONTINUOUS
10
3.24588
20
-2.88891
11
3.24571
21
-2.88889
0
LINE
8
BLACK
6
CONTINUOUS
10
3.24571
20
-2.88889
11
3.24327
21
-2.88767
0
LINE
8
BLACK
6
CONTINUOUS
10
3.24327
20
-2.88767
11
3.24256
21
-2.88715
0
LINE
8
BLACK
6
CONTINUOUS
10
3.24256
20
-2.88715
11
3.2425
21
-2.88712
0
LINE
8
BLACK
6
CONTINUOUS
10
3.2425
20
-2.88712
11
3.24128
21
-2.8859
0
LINE
8
BLACK
6
CONTINUOUS
10
3.24128
20
-2.8859
11
3.24078
21
-2.88518
0
LINE
8
BLACK
6
CONTINUOUS
10
3.24078
20
-2.88518
11
3.24073
21
-2.88513
0
LINE
8
BLACK
6
CONTINUOUS
10
3.24073
20
-2.88513
11
3.23951
21
-2.88269
0
LINE
8
BLACK
6
CONTINUOUS
10
3.23951
20
-2.88269
11
3.23922
21
-2.88171
0
LINE
8
BLACK
6
CONTINUOUS
10
3.23922
20
-2.88171
11
3.23926
21
-2.88154
0
LINE
8
BLACK
6
CONTINUOUS
10
3.23926
20
-2.88154
11
3.2392
21
-2.88137
0
LINE
8
BLACK
6
CONTINUOUS
10
3.2392
20
-2.88137
11
3.2392
21
-2.87528
0
LINE
8
BLACK
6
CONTINUOUS
10
3.2392
20
-2.87528
11
3.23938
21
-2.87427
0
LINE
8
BLACK
6
CONTINUOUS
10
3.23938
20
-2.87427
11
3.23949
21
-2.87414
0
LINE
8
BLACK
6
CONTINUOUS
10
3.23949
20
-2.87414
11
3.23951
21
-2.87396
0
LINE
8
BLACK
6
CONTINUOUS
10
3.23951
20
-2.87396
11
3.24073
21
-2.87152
0
LINE
8
BLACK
6
CONTINUOUS
10
3.24073
20
-2.87152
11
3.24126
21
-2.87081
0
LINE
8
BLACK
6
CONTINUOUS
10
3.24126
20
-2.87081
11
3.24128
21
-2.87076
0
LINE
8
BLACK
6
CONTINUOUS
10
3.24128
20
-2.87076
11
3.2425
21
-2.86954
0
LINE
8
BLACK
6
CONTINUOUS
10
3.2425
20
-2.86954
11
3.24334
21
-2.86895
0
LINE
8
BLACK
6
CONTINUOUS
10
3.24334
20
-2.86895
11
3.24536
21
-2.86877
0
LINE
8
BLACK
6
CONTINUOUS
10
3.24536
20
-2.86877
11
3.24701
21
-2.86993
0
LINE
8
BLACK
6
CONTINUOUS
10
3.24701
20
-2.86993
11
3.24753
21
-2.87188
0
LINE
8
BLACK
6
CONTINUOUS
10
3.24753
20
-2.87188
11
3.24668
21
-2.87371
0
LINE
8
BLACK
6
CONTINUOUS
10
3.24668
20
-2.87371
11
3.2458
21
-2.87459
0
LINE
8
BLACK
6
CONTINUOUS
10
3.2458
20
-2.87459
11
3.24511
21
-2.87598
0
LINE
8
BLACK
6
CONTINUOUS
10
3.24511
20
-2.87598
11
3.24511
21
-2.88068
0
LINE
8
BLACK
6
CONTINUOUS
10
3.24511
20
-2.88068
11
3.2458
21
-2.88206
0
LINE
8
BLACK
6
CONTINUOUS
10
3.2458
20
-2.88206
11
3.24634
21
-2.8826
0
LINE
8
BLACK
6
CONTINUOUS
10
3.24634
20
-2.8826
11
3.24773
21
-2.8833
0
LINE
8
BLACK
6
CONTINUOUS
10
3.24773
20
-2.8833
11
3.24899
21
-2.8833
0
LINE
8
BLACK
6
CONTINUOUS
10
3.24899
20
-2.8833
11
3.25153
21
-2.88245
0
LINE
8
BLACK
6
CONTINUOUS
10
3.25153
20
-2.88245
11
3.26566
21
-2.86832
0
LINE
8
BLACK
6
CONTINUOUS
10
3.26566
20
-2.86832
11
3.26618
21
-2.86795
0
LINE
8
BLACK
6
CONTINUOUS
10
3.26618
20
-2.86795
11
3.26627
21
-2.86785
0
LINE
8
BLACK
6
CONTINUOUS
10
3.26627
20
-2.86785
11
3.26635
21
-2.86784
0
LINE
8
BLACK
6
CONTINUOUS
10
3.26635
20
-2.86784
11
3.2665
21
-2.86773
0
LINE
8
BLACK
6
CONTINUOUS
10
3.2665
20
-2.86773
11
3.26738
21
-2.86765
0
LINE
8
BLACK
6
CONTINUOUS
10
3.26738
20
-2.86765
11
3.26826
21
-2.8675
0
LINE
8
BLACK
6
CONTINUOUS
10
3.26826
20
-2.8675
11
3.26837
21
-2.86757
0
LINE
8
BLACK
6
CONTINUOUS
10
3.63466
20
-2.87455
11
3.63654
21
-2.87643
0
LINE
8
BLACK
6
CONTINUOUS
10
3.63654
20
-2.87643
11
3.63704
21
-2.87715
0
LINE
8
BLACK
6
CONTINUOUS
10
3.63704
20
-2.87715
11
3.63709
21
-2.87719
0
LINE
8
BLACK
6
CONTINUOUS
10
3.63709
20
-2.87719
11
3.63896
21
-2.88094
0
LINE
8
BLACK
6
CONTINUOUS
10
3.63896
20
-2.88094
11
3.63926
21
-2.88193
0
LINE
8
BLACK
6
CONTINUOUS
10
3.63926
20
-2.88193
11
3.63922
21
-2.8821
0
LINE
8
BLACK
6
CONTINUOUS
10
3.63922
20
-2.8821
11
3.63928
21
-2.88226
0
LINE
8
BLACK
6
CONTINUOUS
10
3.63928
20
-2.88226
11
3.63928
21
-2.89351
0
LINE
8
BLACK
6
CONTINUOUS
10
3.63928
20
-2.89351
11
3.6391
21
-2.89452
0
LINE
8
BLACK
6
CONTINUOUS
10
3.6391
20
-2.89452
11
3.63898
21
-2.89466
0
LINE
8
BLACK
6
CONTINUOUS
10
3.63898
20
-2.89466
11
3.63896
21
-2.89483
0
LINE
8
BLACK
6
CONTINUOUS
10
3.63896
20
-2.89483
11
3.63709
21
-2.89858
0
LINE
8
BLACK
6
CONTINUOUS
10
3.63709
20
-2.89858
11
3.63656
21
-2.89929
0
LINE
8
BLACK
6
CONTINUOUS
10
3.63656
20
-2.89929
11
3.63654
21
-2.89935
0
LINE
8
BLACK
6
CONTINUOUS
10
3.63654
20
-2.89935
11
3.63466
21
-2.90123
0
LINE
8
BLACK
6
CONTINUOUS
10
3.63466
20
-2.90123
11
3.63394
21
-2.90173
0
LINE
8
BLACK
6
CONTINUOUS
10
3.63394
20
-2.90173
11
3.63389
21
-2.90178
0
LINE
8
BLACK
6
CONTINUOUS
10
3.63389
20
-2.90178
11
3.63014
21
-2.90365
0
LINE
8
BLACK
6
CONTINUOUS
10
3.63014
20
-2.90365
11
3.62916
21
-2.90395
0
LINE
8
BLACK
6
CONTINUOUS
10
3.62916
20
-2.90395
11
3.62899
21
-2.9039
0
LINE
8
BLACK
6
CONTINUOUS
10
3.62899
20
-2.9039
11
3.62882
21
-2.90397
0
LINE
8
BLACK
6
CONTINUOUS
10
3.62882
20
-2.90397
11
3.61945
21
-2.90397
0
LINE
8
BLACK
6
CONTINUOUS
10
3.61945
20
-2.90397
11
3.61844
21
-2.90379
0
LINE
8
BLACK
6
CONTINUOUS
10
3.61844
20
-2.90379
11
3.61831
21
-2.90367
0
LINE
8
BLACK
6
CONTINUOUS
10
3.61831
20
-2.90367
11
3.61813
21
-2.90365
0
LINE
8
BLACK
6
CONTINUOUS
10
3.61813
20
-2.90365
11
3.61438
21
-2.90178
0
LINE
8
BLACK
6
CONTINUOUS
10
3.61438
20
-2.90178
11
3.61367
21
-2.90125
0
LINE
8
BLACK
6
CONTINUOUS
10
3.61367
20
-2.90125
11
3.61361
21
-2.90123
0
LINE
8
BLACK
6
CONTINUOUS
10
3.61361
20
-2.90123
11
3.61174
21
-2.89935
0
LINE
8
BLACK
6
CONTINUOUS
10
3.61174
20
-2.89935
11
3.61123
21
-2.89863
0
LINE
8
BLACK
6
CONTINUOUS
10
3.61123
20
-2.89863
11
3.61119
21
-2.89858
0
LINE
8
BLACK
6
CONTINUOUS
10
3.61119
20
-2.89858
11
3.60931
21
-2.89483
0
LINE
8
BLACK
6
CONTINUOUS
10
3.60931
20
-2.89483
11
3.60914
21
-2.89427
0
LINE
8
BLACK
6
CONTINUOUS
10
3.60914
20
-2.89427
11
3.5989
21
-2.90323
0
LINE
8
BLACK
6
CONTINUOUS
10
3.5989
20
-2.90323
11
3.59852
21
-2.90346
0
LINE
8
BLACK
6
CONTINUOUS
10
3.59852
20
-2.90346
11
3.59843
21
-2.90357
0
LINE
8
BLACK
6
CONTINUOUS
10
3.59843
20
-2.90357
11
3.59831
21
-2.90359
0
LINE
8
BLACK
6
CONTINUOUS
10
3.59831
20
-2.90359
11
3.59802
21
-2.90377
0
LINE
8
BLACK
6
CONTINUOUS
10
3.59802
20
-2.90377
11
3.59722
21
-2.90378
0
LINE
8
BLACK
6
CONTINUOUS
10
3.59722
20
-2.90378
11
3.59644
21
-2.90392
0
LINE
8
BLACK
6
CONTINUOUS
10
3.59644
20
-2.90392
11
3.59624
21
-2.9038
0
LINE
8
BLACK
6
CONTINUOUS
10
3.59624
20
-2.9038
11
3.596
21
-2.90381
0
LINE
8
BLACK
6
CONTINUOUS
10
3.596
20
-2.90381
11
3.59538
21
-2.90331
0
LINE
8
BLACK
6
CONTINUOUS
10
3.59538
20
-2.90331
11
3.59469
21
-2.90291
0
LINE
8
BLACK
6
CONTINUOUS
10
3.59469
20
-2.90291
11
3.59461
21
-2.90269
0
LINE
8
BLACK
6
CONTINUOUS
10
3.59461
20
-2.90269
11
3.59443
21
-2.90254
0
LINE
8
BLACK
6
CONTINUOUS
10
3.59443
20
-2.90254
11
3.59427
21
-2.90176
0
LINE
8
BLACK
6
CONTINUOUS
10
3.59427
20
-2.90176
11
3.594
21
-2.90101
0
LINE
8
BLACK
6
CONTINUOUS
10
3.594
20
-2.90101
11
3.594
21
-2.87664
0
LINE
8
BLACK
6
CONTINUOUS
10
3.594
20
-2.87664
11
3.59418
21
-2.87563
0
LINE
8
BLACK
6
CONTINUOUS
10
3.59418
20
-2.87563
11
3.59548
21
-2.87408
0
LINE
8
BLACK
6
CONTINUOUS
10
3.59548
20
-2.87408
11
3.59747
21
-2.87373
0
LINE
8
BLACK
6
CONTINUOUS
10
3.59747
20
-2.87373
11
3.59922
21
-2.87474
0
LINE
8
BLACK
6
CONTINUOUS
10
3.59922
20
-2.87474
11
3.59991
21
-2.87664
0
LINE
8
BLACK
6
CONTINUOUS
10
3.59991
20
-2.87664
11
3.59991
21
-2.89451
0
LINE
8
BLACK
6
CONTINUOUS
10
3.59991
20
-2.89451
11
3.61001
21
-2.88567
0
LINE
8
BLACK
6
CONTINUOUS
10
3.61001
20
-2.88567
11
3.61039
21
-2.88544
0
LINE
8
BLACK
6
CONTINUOUS
10
3.61039
20
-2.88544
11
3.61048
21
-2.88533
0
LINE
8
BLACK
6
CONTINUOUS
10
3.61048
20
-2.88533
11
3.6106
21
-2.88531
0
LINE
8
BLACK
6
CONTINUOUS
10
3.6106
20
-2.88531
11
3.61088
21
-2.88514
0
LINE
8
BLACK
6
CONTINUOUS
10
3.61088
20
-2.88514
11
3.61168
21
-2.88512
0
LINE
8
BLACK
6
CONTINUOUS
10
3.61168
20
-2.88512
11
3.61246
21
-2.88498
0
LINE
8
BLACK
6
CONTINUOUS
10
3.61246
20
-2.88498
11
3.61267
21
-2.8851
0
LINE
8
BLACK
6
CONTINUOUS
10
3.61267
20
-2.8851
11
3.6129
21
-2.88509
0
LINE
8
BLACK
6
CONTINUOUS
10
3.6129
20
-2.88509
11
3.61352
21
-2.88559
0
LINE
8
BLACK
6
CONTINUOUS
10
3.61352
20
-2.88559
11
3.61421
21
-2.88599
0
LINE
8
BLACK
6
CONTINUOUS
10
3.61421
20
-2.88599
11
3.61429
21
-2.88621
0
LINE
8
BLACK
6
CONTINUOUS
10
3.61429
20
-2.88621
11
3.61448
21
-2.88636
0
LINE
8
BLACK
6
CONTINUOUS
10
3.61448
20
-2.88636
11
3.61463
21
-2.88714
0
LINE
8
BLACK
6
CONTINUOUS
10
3.61463
20
-2.88714
11
3.6149
21
-2.88789
0
LINE
8
BLACK
6
CONTINUOUS
10
3.6149
20
-2.88789
11
3.6149
21
-2.89282
0
LINE
8
BLACK
6
CONTINUOUS
10
3.6149
20
-2.89282
11
3.61625
21
-2.89551
0
LINE
8
BLACK
6
CONTINUOUS
10
3.61625
20
-2.89551
11
3.61745
21
-2.89671
0
LINE
8
BLACK
6
CONTINUOUS
10
3.61745
20
-2.89671
11
3.62015
21
-2.89806
0
LINE
8
BLACK
6
CONTINUOUS
10
3.62015
20
-2.89806
11
3.62813
21
-2.89806
0
LINE
8
BLACK
6
CONTINUOUS
10
3.62813
20
-2.89806
11
3.63082
21
-2.89671
0
LINE
8
BLACK
6
CONTINUOUS
10
3.63082
20
-2.89671
11
3.63202
21
-2.89551
0
LINE
8
BLACK
6
CONTINUOUS
10
3.63202
20
-2.89551
11
3.63337
21
-2.89282
0
LINE
8
BLACK
6
CONTINUOUS
10
3.63337
20
-2.89282
11
3.63337
21
-2.88296
0
LINE
8
BLACK
6
CONTINUOUS
10
3.63337
20
-2.88296
11
3.63202
21
-2.88026
0
LINE
8
BLACK
6
CONTINUOUS
10
3.63202
20
-2.88026
11
3.63049
21
-2.87873
0
LINE
8
BLACK
6
CONTINUOUS
10
3.63049
20
-2.87873
11
3.6299
21
-2.87789
0
LINE
8
BLACK
6
CONTINUOUS
10
3.6299
20
-2.87789
11
3.62972
21
-2.87588
0
LINE
8
BLACK
6
CONTINUOUS
10
3.62972
20
-2.87588
11
3.63088
21
-2.87422
0
LINE
8
BLACK
6
CONTINUOUS
10
3.63088
20
-2.87422
11
3.63283
21
-2.8737
0
LINE
8
BLACK
6
CONTINUOUS
10
3.63283
20
-2.8737
11
3.63466
21
-2.87455
0
LINE
8
BLACK
6
CONTINUOUS
10
3.44195
20
-2.89585
11
3.4435
21
-2.89715
0
LINE
8
BLACK
6
CONTINUOUS
10
3.4435
20
-2.89715
11
3.44385
21
-2.89913
0
LINE
8
BLACK
6
CONTINUOUS
10
3.44385
20
-2.89913
11
3.44284
21
-2.90088
0
LINE
8
BLACK
6
CONTINUOUS
10
3.44284
20
-2.90088
11
3.44094
21
-2.90157
0
LINE
8
BLACK
6
CONTINUOUS
10
3.44094
20
-2.90157
11
3.3622
21
-2.90157
0
LINE
8
BLACK
6
CONTINUOUS
10
3.3622
20
-2.90157
11
3.36119
21
-2.9014
0
LINE
8
BLACK
6
CONTINUOUS
10
3.36119
20
-2.9014
11
3.35965
21
-2.9001
0
LINE
8
BLACK
6
CONTINUOUS
10
3.35965
20
-2.9001
11
3.3593
21
-2.89811
0
LINE
8
BLACK
6
CONTINUOUS
10
3.3593
20
-2.89811
11
3.36031
21
-2.89636
0
LINE
8
BLACK
6
CONTINUOUS
10
3.36031
20
-2.89636
11
3.3622
21
-2.89567
0
LINE
8
BLACK
6
CONTINUOUS
10
3.3622
20
-2.89567
11
3.44094
21
-2.89567
0
LINE
8
BLACK
6
CONTINUOUS
10
3.44094
20
-2.89567
11
3.44195
21
-2.89585
0
LINE
8
BLACK
6
CONTINUOUS
10
3.28179
20
-2.79928
11
3.28248
21
-2.80118
0
LINE
8
BLACK
6
CONTINUOUS
10
3.28248
20
-2.80118
11
3.28248
21
-2.86811
0
LINE
8
BLACK
6
CONTINUOUS
10
3.28248
20
-2.86811
11
3.2823
21
-2.86912
0
LINE
8
BLACK
6
CONTINUOUS
10
3.2823
20
-2.86912
11
3.281
21
-2.87067
0
LINE
8
BLACK
6
CONTINUOUS
10
3.281
20
-2.87067
11
3.27901
21
-2.87102
0
LINE
8
BLACK
6
CONTINUOUS
10
3.27901
20
-2.87102
11
3.27727
21
-2.87001
0
LINE
8
BLACK
6
CONTINUOUS
10
3.27727
20
-2.87001
11
3.27657
21
-2.86811
0
LINE
8
BLACK
6
CONTINUOUS
10
3.27657
20
-2.86811
11
3.27657
21
-2.80118
0
LINE
8
BLACK
6
CONTINUOUS
10
3.27657
20
-2.80118
11
3.27675
21
-2.80017
0
LINE
8
BLACK
6
CONTINUOUS
10
3.27675
20
-2.80017
11
3.27805
21
-2.79862
0
LINE
8
BLACK
6
CONTINUOUS
10
3.27805
20
-2.79862
11
3.28004
21
-2.79827
0
LINE
8
BLACK
6
CONTINUOUS
10
3.28004
20
-2.79827
11
3.28179
21
-2.79928
0
LINE
8
BLACK
6
CONTINUOUS
10
3.33691
20
-2.79928
11
3.3376
21
-2.80118
0
LINE
8
BLACK
6
CONTINUOUS
10
3.3376
20
-2.80118
11
3.3376
21
-2.86811
0
LINE
8
BLACK
6
CONTINUOUS
10
3.3376
20
-2.86811
11
3.33742
21
-2.86912
0
LINE
8
BLACK
6
CONTINUOUS
10
3.33742
20
-2.86912
11
3.33612
21
-2.87067
0
LINE
8
BLACK
6
CONTINUOUS
10
3.33612
20
-2.87067
11
3.33413
21
-2.87102
0
LINE
8
BLACK
6
CONTINUOUS
10
3.33413
20
-2.87102
11
3.33238
21
-2.87001
0
LINE
8
BLACK
6
CONTINUOUS
10
3.33238
20
-2.87001
11
3.33169
21
-2.86811
0
LINE
8
BLACK
6
CONTINUOUS
10
3.33169
20
-2.86811
11
3.33169
21
-2.80118
0
LINE
8
BLACK
6
CONTINUOUS
10
3.33169
20
-2.80118
11
3.33187
21
-2.80017
0
LINE
8
BLACK
6
CONTINUOUS
10
3.33187
20
-2.80017
11
3.33317
21
-2.79862
0
LINE
8
BLACK
6
CONTINUOUS
10
3.33317
20
-2.79862
11
3.33516
21
-2.79827
0
LINE
8
BLACK
6
CONTINUOUS
10
3.33516
20
-2.79827
11
3.33691
21
-2.79928
0
LINE
8
BLACK
6
CONTINUOUS
10
3.5808
20
-2.78529
11
3.5815
21
-2.78696
0
LINE
8
BLACK
6
CONTINUOUS
10
3.5815
20
-2.78696
11
3.5815
21
-2.84296
0
LINE
8
BLACK
6
CONTINUOUS
10
3.5815
20
-2.84296
11
3.5808
21
-2.84463
0
LINE
8
BLACK
6
CONTINUOUS
10
3.5808
20
-2.84463
11
3.57913
21
-2.84532
0
LINE
8
BLACK
6
CONTINUOUS
10
3.57913
20
-2.84532
11
3.57746
21
-2.84463
0
LINE
8
BLACK
6
CONTINUOUS
10
3.57746
20
-2.84463
11
3.57677
21
-2.84296
0
LINE
8
BLACK
6
CONTINUOUS
10
3.57677
20
-2.84296
11
3.57677
21
-2.78696
0
LINE
8
BLACK
6
CONTINUOUS
10
3.57677
20
-2.78696
11
3.57746
21
-2.78529
0
LINE
8
BLACK
6
CONTINUOUS
10
3.57746
20
-2.78529
11
3.57913
21
-2.7846
0
LINE
8
BLACK
6
CONTINUOUS
10
3.57913
20
-2.7846
11
3.5808
21
-2.78529
0
LINE
8
BLACK
6
CONTINUOUS
10
3.62003
20
-2.83629
11
3.62017
21
-2.83628
0
LINE
8
BLACK
6
CONTINUOUS
10
3.62017
20
-2.83628
11
3.62767
21
-2.83816
0
LINE
8
BLACK
6
CONTINUOUS
10
3.62767
20
-2.83816
11
3.62813
21
-2.83836
0
LINE
8
BLACK
6
CONTINUOUS
10
3.62813
20
-2.83836
11
3.62827
21
-2.83838
0
LINE
8
BLACK
6
CONTINUOUS
10
3.62827
20
-2.83838
11
3.63202
21
-2.84025
0
LINE
8
BLACK
6
CONTINUOUS
10
3.63202
20
-2.84025
11
3.63273
21
-2.84078
0
LINE
8
BLACK
6
CONTINUOUS
10
3.63273
20
-2.84078
11
3.63279
21
-2.84081
0
LINE
8
BLACK
6
CONTINUOUS
10
3.63279
20
-2.84081
11
3.63654
21
-2.84456
0
LINE
8
BLACK
6
CONTINUOUS
10
3.63654
20
-2.84456
11
3.63712
21
-2.8454
0
LINE
8
BLACK
6
CONTINUOUS
10
3.63712
20
-2.8454
11
3.63714
21
-2.84557
0
LINE
8
BLACK
6
CONTINUOUS
10
3.63714
20
-2.84557
11
3.63725
21
-2.84571
0
LINE
8
BLACK
6
CONTINUOUS
10
3.63725
20
-2.84571
11
3.63912
21
-2.85133
0
LINE
8
BLACK
6
CONTINUOUS
10
3.63912
20
-2.85133
11
3.63925
21
-2.85221
0
LINE
8
BLACK
6
CONTINUOUS
10
3.63925
20
-2.85221
11
3.63928
21
-2.85227
0
LINE
8
BLACK
6
CONTINUOUS
10
3.63928
20
-2.85227
11
3.63928
21
-2.85602
0
LINE
8
BLACK
6
CONTINUOUS
10
3.63928
20
-2.85602
11
3.63912
21
-2.85689
0
LINE
8
BLACK
6
CONTINUOUS
10
3.63912
20
-2.85689
11
3.63912
21
-2.85695
0
LINE
8
BLACK
6
CONTINUOUS
10
3.63912
20
-2.85695
11
3.63725
21
-2.86258
0
LINE
8
BLACK
6
CONTINUOUS
10
3.63725
20
-2.86258
11
3.63676
21
-2.86348
0
LINE
8
BLACK
6
CONTINUOUS
10
3.63676
20
-2.86348
11
3.63661
21
-2.86357
0
LINE
8
BLACK
6
CONTINUOUS
10
3.63661
20
-2.86357
11
3.63654
21
-2.86373
0
LINE
8
BLACK
6
CONTINUOUS
10
3.63654
20
-2.86373
11
3.63466
21
-2.8656
0
LINE
8
BLACK
6
CONTINUOUS
10
3.63466
20
-2.8656
11
3.63382
21
-2.86619
0
LINE
8
BLACK
6
CONTINUOUS
10
3.63382
20
-2.86619
11
3.63181
21
-2.86637
0
LINE
8
BLACK
6
CONTINUOUS
10
3.63181
20
-2.86637
11
3.63016
21
-2.86521
0
LINE
8
BLACK
6
CONTINUOUS
10
3.63016
20
-2.86521
11
3.62963
21
-2.86326
0
LINE
8
BLACK
6
CONTINUOUS
10
3.62963
20
-2.86326
11
3.63049
21
-2.86143
0
LINE
8
BLACK
6
CONTINUOUS
10
3.63049
20
-2.86143
11
3.63187
21
-2.86005
0
LINE
8
BLACK
6
CONTINUOUS
10
3.63187
20
-2.86005
11
3.63337
21
-2.85554
0
LINE
8
BLACK
6
CONTINUOUS
10
3.63337
20
-2.85554
11
3.63337
21
-2.85275
0
LINE
8
BLACK
6
CONTINUOUS
10
3.63337
20
-2.85275
11
3.63187
21
-2.84824
0
LINE
8
BLACK
6
CONTINUOUS
10
3.63187
20
-2.84824
11
3.62895
21
-2.84532
0
LINE
8
BLACK
6
CONTINUOUS
10
3.62895
20
-2.84532
11
3.62592
21
-2.84381
0
LINE
8
BLACK
6
CONTINUOUS
10
3.62592
20
-2.84381
11
3.61909
21
-2.8421
0
LINE
8
BLACK
6
CONTINUOUS
10
3.61909
20
-2.8421
11
3.61419
21
-2.8421
0
LINE
8
BLACK
6
CONTINUOUS
10
3.61419
20
-2.8421
11
3.60736
21
-2.84381
0
LINE
8
BLACK
6
CONTINUOUS
10
3.60736
20
-2.84381
11
3.60433
21
-2.84532
0
LINE
8
BLACK
6
CONTINUOUS
10
3.60433
20
-2.84532
11
3.60141
21
-2.84824
0
LINE
8
BLACK
6
CONTINUOUS
10
3.60141
20
-2.84824
11
3.59991
21
-2.85275
0
LINE
8
BLACK
6
CONTINUOUS
10
3.59991
20
-2.85275
11
3.59991
21
-2.85554
0
LINE
8
BLACK
6
CONTINUOUS
10
3.59991
20
-2.85554
11
3.60141
21
-2.86005
0
LINE
8
BLACK
6
CONTINUOUS
10
3.60141
20
-2.86005
11
3.60279
21
-2.86143
0
LINE
8
BLACK
6
CONTINUOUS
10
3.60279
20
-2.86143
11
3.60338
21
-2.86227
0
LINE
8
BLACK
6
CONTINUOUS
10
3.60338
20
-2.86227
11
3.60356
21
-2.86428
0
LINE
8
BLACK
6
CONTINUOUS
10
3.60356
20
-2.86428
11
3.6024
21
-2.86594
0
LINE
8
BLACK
6
CONTINUOUS
10
3.6024
20
-2.86594
11
3.60045
21
-2.86646
0
LINE
8
BLACK
6
CONTINUOUS
10
3.60045
20
-2.86646
11
3.59862
21
-2.8656
0
LINE
8
BLACK
6
CONTINUOUS
10
3.59862
20
-2.8656
11
3.59674
21
-2.86373
0
LINE
8
BLACK
6
CONTINUOUS
10
3.59674
20
-2.86373
11
3.59615
21
-2.86289
0
LINE
8
BLACK
6
CONTINUOUS
10
3.59615
20
-2.86289
11
3.59614
21
-2.86271
0
LINE
8
BLACK
6
CONTINUOUS
10
3.59614
20
-2.86271
11
3.59603
21
-2.86258
0
LINE
8
BLACK
6
CONTINUOUS
10
3.59603
20
-2.86258
11
3.59415
21
-2.85695
0
LINE
8
BLACK
6
CONTINUOUS
10
3.59415
20
-2.85695
11
3.59402
21
-2.85608
0
LINE
8
BLACK
6
CONTINUOUS
10
3.59402
20
-2.85608
11
3.594
21
-2.85602
0
LINE
8
BLACK
6
CONTINUOUS
10
3.594
20
-2.85602
11
3.594
21
-2.85227
0
LINE
8
BLACK
6
CONTINUOUS
10
3.594
20
-2.85227
11
3.59415
21
-2.8514
0
LINE
8
BLACK
6
CONTINUOUS
10
3.59415
20
-2.8514
11
3.59415
21
-2.85133
0
LINE
8
BLACK
6
CONTINUOUS
10
3.59415
20
-2.85133
11
3.59603
21
-2.84571
0
LINE
8
BLACK
6
CONTINUOUS
10
3.59603
20
-2.84571
11
3.59652
21
-2.84481
0
LINE
8
BLACK
6
CONTINUOUS
10
3.59652
20
-2.84481
11
3.59667
21
-2.84472
0
LINE
8
BLACK
6
CONTINUOUS
10
3.59667
20
-2.84472
11
3.59674
21
-2.84456
0
LINE
8
BLACK
6
CONTINUOUS
10
3.59674
20
-2.84456
11
3.60049
21
-2.84081
0
LINE
8
BLACK
6
CONTINUOUS
10
3.60049
20
-2.84081
11
3.60121
21
-2.8403
0
LINE
8
BLACK
6
CONTINUOUS
10
3.60121
20
-2.8403
11
3.60126
21
-2.84025
0
LINE
8
BLACK
6
CONTINUOUS
10
3.60126
20
-2.84025
11
3.60501
21
-2.83838
0
LINE
8
BLACK
6
CONTINUOUS
10
3.60501
20
-2.83838
11
3.6055
21
-2.83823
0
LINE
8
BLACK
6
CONTINUOUS
10
3.6055
20
-2.83823
11
3.60561
21
-2.83816
0
LINE
8
BLACK
6
CONTINUOUS
10
3.60561
20
-2.83816
11
3.61311
21
-2.83628
0
LINE
8
BLACK
6
CONTINUOUS
10
3.61311
20
-2.83628
11
3.6137
21
-2.83624
0
LINE
8
BLACK
6
CONTINUOUS
10
3.6137
20
-2.83624
11
3.61383
21
-2.83619
0
LINE
8
BLACK
6
CONTINUOUS
10
3.61383
20
-2.83619
11
3.61945
21
-2.83619
0
LINE
8
BLACK
6
CONTINUOUS
10
3.61945
20
-2.83619
11
3.62003
21
-2.83629
0
LINE
8
BLACK
6
CONTINUOUS
10
3.26875
20
-2.84448
11
3.2703
21
-2.84578
0
LINE
8
BLACK
6
CONTINUOUS
10
3.2703
20
-2.84578
11
3.27065
21
-2.84777
0
LINE
8
BLACK
6
CONTINUOUS
10
3.27065
20
-2.84777
11
3.26964
21
-2.84952
0
LINE
8
BLACK
6
CONTINUOUS
10
3.26964
20
-2.84952
11
3.26774
21
-2.85021
0
LINE
8
BLACK
6
CONTINUOUS
10
3.26774
20
-2.85021
11
3.25851
21
-2.85021
0
LINE
8
BLACK
6
CONTINUOUS
10
3.25851
20
-2.85021
11
3.25851
21
-2.85181
0
LINE
8
BLACK
6
CONTINUOUS
10
3.25851
20
-2.85181
11
3.26944
21
-2.85946
0
LINE
8
BLACK
6
CONTINUOUS
10
3.26944
20
-2.85946
11
3.27016
21
-2.86018
0
LINE
8
BLACK
6
CONTINUOUS
10
3.27016
20
-2.86018
11
3.27069
21
-2.86213
0
LINE
8
BLACK
6
CONTINUOUS
10
3.27069
20
-2.86213
11
3.26983
21
-2.86396
0
LINE
8
BLACK
6
CONTINUOUS
10
3.26983
20
-2.86396
11
3.268
21
-2.86482
0
LINE
8
BLACK
6
CONTINUOUS
10
3.268
20
-2.86482
11
3.26605
21
-2.8643
0
LINE
8
BLACK
6
CONTINUOUS
10
3.26605
20
-2.8643
11
3.25802
21
-2.85868
0
LINE
8
BLACK
6
CONTINUOUS
10
3.25802
20
-2.85868
11
3.25698
21
-2.86076
0
LINE
8
BLACK
6
CONTINUOUS
10
3.25698
20
-2.86076
11
3.25645
21
-2.86147
0
LINE
8
BLACK
6
CONTINUOUS
10
3.25645
20
-2.86147
11
3.25643
21
-2.86153
0
LINE
8
BLACK
6
CONTINUOUS
10
3.25643
20
-2.86153
11
3.25521
21
-2.86275
0
LINE
8
BLACK
6
CONTINUOUS
10
3.25521
20
-2.86275
11
3.25449
21
-2.86325
0
LINE
8
BLACK
6
CONTINUOUS
10
3.25449
20
-2.86325
11
3.25444
21
-2.8633
0
LINE
8
BLACK
6
CONTINUOUS
10
3.25444
20
-2.8633
11
3.252
21
-2.86452
0
LINE
8
BLACK
6
CONTINUOUS
10
3.252
20
-2.86452
11
3.25102
21
-2.86481
0
LINE
8
BLACK
6
CONTINUOUS
10
3.25102
20
-2.86481
11
3.25085
21
-2.86477
0
LINE
8
BLACK
6
CONTINUOUS
10
3.25085
20
-2.86477
11
3.25068
21
-2.86483
0
LINE
8
BLACK
6
CONTINUOUS
10
3.25068
20
-2.86483
11
3.24703
21
-2.86483
0
LINE
8
BLACK
6
CONTINUOUS
10
3.24703
20
-2.86483
11
3.24602
21
-2.86465
0
LINE
8
BLACK
6
CONTINUOUS
10
3.24602
20
-2.86465
11
3.24588
21
-2.86454
0
LINE
8
BLACK
6
CONTINUOUS
10
3.24588
20
-2.86454
11
3.24571
21
-2.86452
0
LINE
8
BLACK
6
CONTINUOUS
10
3.24571
20
-2.86452
11
3.24327
21
-2.8633
0
LINE
8
BLACK
6
CONTINUOUS
10
3.24327
20
-2.8633
11
3.24256
21
-2.86277
0
LINE
8
BLACK
6
CONTINUOUS
10
3.24256
20
-2.86277
11
3.2425
21
-2.86275
0
LINE
8
BLACK
6
CONTINUOUS
10
3.2425
20
-2.86275
11
3.24128
21
-2.86153
0
LINE
8
BLACK
6
CONTINUOUS
10
3.24128
20
-2.86153
11
3.24078
21
-2.8608
0
LINE
8
BLACK
6
CONTINUOUS
10
3.24078
20
-2.8608
11
3.24073
21
-2.86076
0
LINE
8
BLACK
6
CONTINUOUS
10
3.24073
20
-2.86076
11
3.23951
21
-2.85832
0
LINE
8
BLACK
6
CONTINUOUS
10
3.23951
20
-2.85832
11
3.23922
21
-2.85734
0
LINE
8
BLACK
6
CONTINUOUS
10
3.23922
20
-2.85734
11
3.23926
21
-2.85717
0
LINE
8
BLACK
6
CONTINUOUS
10
3.23926
20
-2.85717
11
3.2392
21
-2.857
0
LINE
8
BLACK
6
CONTINUOUS
10
3.2392
20
-2.857
11
3.2392
21
-2.84725
0
LINE
8
BLACK
6
CONTINUOUS
10
3.2392
20
-2.84725
11
3.23927
21
-2.84687
0
LINE
8
BLACK
6
CONTINUOUS
10
3.23927
20
-2.84687
11
3.23925
21
-2.84674
0
LINE
8
BLACK
6
CONTINUOUS
10
3.23925
20
-2.84674
11
3.23931
21
-2.84663
0
LINE
8
BLACK
6
CONTINUOUS
10
3.23931
20
-2.84663
11
3.23938
21
-2.84624
0
LINE
8
BLACK
6
CONTINUOUS
10
3.23938
20
-2.84624
11
3.23987
21
-2.84566
0
LINE
8
BLACK
6
CONTINUOUS
10
3.23987
20
-2.84566
11
3.24026
21
-2.84499
0
LINE
8
BLACK
6
CONTINUOUS
10
3.24026
20
-2.84499
11
3.24051
21
-2.8449
0
LINE
8
BLACK
6
CONTINUOUS
10
3.24051
20
-2.8449
11
3.24068
21
-2.8447
0
LINE
8
BLACK
6
CONTINUOUS
10
3.24068
20
-2.8447
11
3.24143
21
-2.84456
0
LINE
8
BLACK
6
CONTINUOUS
10
3.24143
20
-2.84456
11
3.24215
21
-2.8443
0
LINE
8
BLACK
6
CONTINUOUS
10
3.24215
20
-2.8443
11
3.26774
21
-2.8443
0
LINE
8
BLACK
6
CONTINUOUS
10
3.26774
20
-2.8443
11
3.26875
21
-2.84448
0
LINE
8
BLACK
6
CONTINUOUS
10
3.24511
20
-2.85631
11
3.2458
21
-2.85769
0
LINE
8
BLACK
6
CONTINUOUS
10
3.2458
20
-2.85769
11
3.24634
21
-2.85823
0
LINE
8
BLACK
6
CONTINUOUS
10
3.24634
20
-2.85823
11
3.24773
21
-2.85892
0
LINE
8
BLACK
6
CONTINUOUS
10
3.24773
20
-2.85892
11
3.24999
21
-2.85892
0
LINE
8
BLACK
6
CONTINUOUS
10
3.24999
20
-2.85892
11
3.25137
21
-2.85823
0
LINE
8
BLACK
6
CONTINUOUS
10
3.25137
20
-2.85823
11
3.25191
21
-2.85769
0
LINE
8
BLACK
6
CONTINUOUS
10
3.25191
20
-2.85769
11
3.25261
21
-2.85631
0
LINE
8
BLACK
6
CONTINUOUS
10
3.25261
20
-2.85631
11
3.25261
21
-2.85021
0
LINE
8
BLACK
6
CONTINUOUS
10
3.25261
20
-2.85021
11
3.24511
21
-2.85021
0
LINE
8
BLACK
6
CONTINUOUS
10
3.24511
20
-2.85021
11
3.24511
21
-2.85631
0
LINE
8
BLACK
6
CONTINUOUS
10
3.50915
20
-2.78529
11
3.50984
21
-2.78696
0
LINE
8
BLACK
6
CONTINUOUS
10
3.50984
20
-2.78696
11
3.50984
21
-2.84296
0
LINE
8
BLACK
6
CONTINUOUS
10
3.50984
20
-2.84296
11
3.50915
21
-2.84463
0
LINE
8
BLACK
6
CONTINUOUS
10
3.50915
20
-2.84463
11
3.50748
21
-2.84532
0
LINE
8
BLACK
6
CONTINUOUS
10
3.50748
20
-2.84532
11
3.50581
21
-2.84463
0
LINE
8
BLACK
6
CONTINUOUS
10
3.50581
20
-2.84463
11
3.50512
21
-2.84296
0
LINE
8
BLACK
6
CONTINUOUS
10
3.50512
20
-2.84296
11
3.50512
21
-2.78696
0
LINE
8
BLACK
6
CONTINUOUS
10
3.50512
20
-2.78696
11
3.50581
21
-2.78529
0
LINE
8
BLACK
6
CONTINUOUS
10
3.50581
20
-2.78529
11
3.50748
21
-2.7846
0
LINE
8
BLACK
6
CONTINUOUS
10
3.50748
20
-2.7846
11
3.50915
21
-2.78529
0
LINE
8
BLACK
6
CONTINUOUS
10
3.1705
20
-2.08346
11
3.19127
21
-2.0858
0
LINE
8
BLACK
6
CONTINUOUS
10
3.19127
20
-2.0858
11
3.21181
21
-2.08969
0
LINE
8
BLACK
6
CONTINUOUS
10
3.21181
20
-2.08969
11
3.232
21
-2.0951
0
LINE
8
BLACK
6
CONTINUOUS
10
3.232
20
-2.0951
11
3.25173
21
-2.102
0
LINE
8
BLACK
6
CONTINUOUS
10
3.25173
20
-2.102
11
3.27089
21
-2.11036
0
LINE
8
BLACK
6
CONTINUOUS
10
3.27089
20
-2.11036
11
3.28937
21
-2.12013
0
LINE
8
BLACK
6
CONTINUOUS
10
3.28937
20
-2.12013
11
3.30707
21
-2.13125
0
LINE
8
BLACK
6
CONTINUOUS
10
3.30707
20
-2.13125
11
3.32389
21
-2.14366
0
LINE
8
BLACK
6
CONTINUOUS
10
3.32389
20
-2.14366
11
3.33973
21
-2.1573
0
LINE
8
BLACK
6
CONTINUOUS
10
3.33973
20
-2.1573
11
3.35451
21
-2.17208
0
LINE
8
BLACK
6
CONTINUOUS
10
3.35451
20
-2.17208
11
3.36815
21
-2.18792
0
LINE
8
BLACK
6
CONTINUOUS
10
3.36815
20
-2.18792
11
3.38056
21
-2.20474
0
LINE
8
BLACK
6
CONTINUOUS
10
3.38056
20
-2.20474
11
3.39168
21
-2.22244
0
LINE
8
BLACK
6
CONTINUOUS
10
3.39168
20
-2.22244
11
3.40145
21
-2.24092
0
LINE
8
BLACK
6
CONTINUOUS
10
3.40145
20
-2.24092
11
3.40981
21
-2.26008
0
LINE
8
BLACK
6
CONTINUOUS
10
3.40981
20
-2.26008
11
3.41672
21
-2.27981
0
LINE
8
BLACK
6
CONTINUOUS
10
3.41672
20
-2.27981
11
3.42213
21
-2.3
0
LINE
8
BLACK
6
CONTINUOUS
10
3.42213
20
-2.3
11
3.42601
21
-2.32054
0
LINE
8
BLACK
6
CONTINUOUS
10
3.42601
20
-2.32054
11
3.42835
21
-2.34132
0
LINE
8
BLACK
6
CONTINUOUS
10
3.42835
20
-2.34132
11
3.42913
21
-2.3622
0
LINE
8
BLACK
6
CONTINUOUS
10
3.42913
20
-2.3622
11
3.42835
21
-2.38309
0
LINE
8
BLACK
6
CONTINUOUS
10
3.42835
20
-2.38309
11
3.42601
21
-2.40387
0
LINE
8
BLACK
6
CONTINUOUS
10
3.42601
20
-2.40387
11
3.42213
21
-2.42441
0
LINE
8
BLACK
6
CONTINUOUS
10
3.42213
20
-2.42441
11
3.41672
21
-2.4446
0
LINE
8
BLACK
6
CONTINUOUS
10
3.41672
20
-2.4446
11
3.40981
21
-2.46433
0
LINE
8
BLACK
6
CONTINUOUS
10
3.40981
20
-2.46433
11
3.40145
21
-2.48349
0
LINE
8
BLACK
6
CONTINUOUS
10
3.40145
20
-2.48349
11
3.39168
21
-2.50197
0
LINE
8
BLACK
6
CONTINUOUS
10
3.39168
20
-2.50197
11
3.38056
21
-2.51967
0
LINE
8
BLACK
6
CONTINUOUS
10
3.38056
20
-2.51967
11
3.36815
21
-2.53649
0
LINE
8
BLACK
6
CONTINUOUS
10
3.36815
20
-2.53649
11
3.35451
21
-2.55233
0
LINE
8
BLACK
6
CONTINUOUS
10
3.35451
20
-2.55233
11
3.33973
21
-2.56711
0
LINE
8
BLACK
6
CONTINUOUS
10
3.33973
20
-2.56711
11
3.32389
21
-2.58075
0
LINE
8
BLACK
6
CONTINUOUS
10
3.32389
20
-2.58075
11
3.30707
21
-2.59316
0
LINE
8
BLACK
6
CONTINUOUS
10
3.30707
20
-2.59316
11
3.28937
21
-2.60428
0
LINE
8
BLACK
6
CONTINUOUS
10
3.28937
20
-2.60428
11
3.27089
21
-2.61405
0
LINE
8
BLACK
6
CONTINUOUS
10
3.27089
20
-2.61405
11
3.25173
21
-2.62241
0
LINE
8
BLACK
6
CONTINUOUS
10
3.25173
20
-2.62241
11
3.232
21
-2.62931
0
LINE
8
BLACK
6
CONTINUOUS
10
3.232
20
-2.62931
11
3.21181
21
-2.63472
0
LINE
8
BLACK
6
CONTINUOUS
10
3.21181
20
-2.63472
11
3.19127
21
-2.63861
0
LINE
8
BLACK
6
CONTINUOUS
10
3.19127
20
-2.63861
11
3.1705
21
-2.64095
0
LINE
8
BLACK
6
CONTINUOUS
10
3.1705
20
-2.64095
11
3.14961
21
-2.64173
0
LINE
8
BLACK
6
CONTINUOUS
10
3.14961
20
-2.64173
11
3.12872
21
-2.64095
0
LINE
8
BLACK
6
CONTINUOUS
10
3.12872
20
-2.64095
11
3.10794
21
-2.63861
0
LINE
8
BLACK
6
CONTINUOUS
10
3.10794
20
-2.63861
11
3.08741
21
-2.63472
0
LINE
8
BLACK
6
CONTINUOUS
10
3.08741
20
-2.63472
11
3.06721
21
-2.62931
0
LINE
8
BLACK
6
CONTINUOUS
10
3.06721
20
-2.62931
11
3.04748
21
-2.62241
0
LINE
8
BLACK
6
CONTINUOUS
10
3.04748
20
-2.62241
11
3.02832
21
-2.61405
0
LINE
8
BLACK
6
CONTINUOUS
10
3.02832
20
-2.61405
11
3.00984
21
-2.60428
0
LINE
8
BLACK
6
CONTINUOUS
10
3.00984
20
-2.60428
11
2.99214
21
-2.59316
0
LINE
8
BLACK
6
CONTINUOUS
10
2.99214
20
-2.59316
11
2.97532
21
-2.58075
0
LINE
8
BLACK
6
CONTINUOUS
10
2.97532
20
-2.58075
11
2.95948
21
-2.56711
0
LINE
8
BLACK
6
CONTINUOUS
10
2.95948
20
-2.56711
11
2.9447
21
-2.55233
0
LINE
8
BLACK
6
CONTINUOUS
10
2.9447
20
-2.55233
11
2.93106
21
-2.53649
0
LINE
8
BLACK
6
CONTINUOUS
10
2.93106
20
-2.53649
11
2.91865
21
-2.51967
0
LINE
8
BLACK
6
CONTINUOUS
10
2.91865
20
-2.51967
11
2.90753
21
-2.50197
0
LINE
8
BLACK
6
CONTINUOUS
10
2.90753
20
-2.50197
11
2.89776
21
-2.48349
0
LINE
8
BLACK
6
CONTINUOUS
10
2.89776
20
-2.48349
11
2.8894
21
-2.46433
0
LINE
8
BLACK
6
CONTINUOUS
10
2.8894
20
-2.46433
11
2.8825
21
-2.4446
0
LINE
8
BLACK
6
CONTINUOUS
10
2.8825
20
-2.4446
11
2.87709
21
-2.42441
0
LINE
8
BLACK
6
CONTINUOUS
10
2.87709
20
-2.42441
11
2.8732
21
-2.40387
0
LINE
8
BLACK
6
CONTINUOUS
10
2.8732
20
-2.40387
11
2.87086
21
-2.38309
0
LINE
8
BLACK
6
CONTINUOUS
10
2.87086
20
-2.38309
11
2.87008
21
-2.3622
0
LINE
8
BLACK
6
CONTINUOUS
10
2.87008
20
-2.3622
11
2.87086
21
-2.34132
0
LINE
8
BLACK
6
CONTINUOUS
10
2.87086
20
-2.34132
11
2.8732
21
-2.32054
0
LINE
8
BLACK
6
CONTINUOUS
10
2.8732
20
-2.32054
11
2.87709
21
-2.3
0
LINE
8
BLACK
6
CONTINUOUS
10
2.87709
20
-2.3
11
2.8825
21
-2.27981
0
LINE
8
BLACK
6
CONTINUOUS
10
2.8825
20
-2.27981
11
2.8894
21
-2.26008
0
LINE
8
BLACK
6
CONTINUOUS
10
2.8894
20
-2.26008
11
2.89776
21
-2.24092
0
LINE
8
BLACK
6
CONTINUOUS
10
2.89776
20
-2.24092
11
2.90753
21
-2.22244
0
LINE
8
BLACK
6
CONTINUOUS
10
2.90753
20
-2.22244
11
2.91865
21
-2.20474
0
LINE
8
BLACK
6
CONTINUOUS
10
2.91865
20
-2.20474
11
2.93106
21
-2.18792
0
LINE
8
BLACK
6
CONTINUOUS
10
2.93106
20
-2.18792
11
2.9447
21
-2.17208
0
LINE
8
BLACK
6
CONTINUOUS
10
2.9447
20
-2.17208
11
2.95948
21
-2.1573
0
LINE
8
BLACK
6
CONTINUOUS
10
2.95948
20
-2.1573
11
2.97532
21
-2.14366
0
LINE
8
BLACK
6
CONTINUOUS
10
2.97532
20
-2.14366
11
2.99214
21
-2.13125
0
LINE
8
BLACK
6
CONTINUOUS
10
2.99214
20
-2.13125
11
3.00984
21
-2.12013
0
LINE
8
BLACK
6
CONTINUOUS
10
3.00984
20
-2.12013
11
3.02832
21
-2.11036
0
LINE
8
BLACK
6
CONTINUOUS
10
3.02832
20
-2.11036
11
3.04748
21
-2.102
0
LINE
8
BLACK
6
CONTINUOUS
10
3.04748
20
-2.102
11
3.06721
21
-2.0951
0
LINE
8
BLACK
6
CONTINUOUS
10
3.06721
20
-2.0951
11
3.08741
21
-2.08969
0
LINE
8
BLACK
6
CONTINUOUS
10
3.08741
20
-2.08969
11
3.10794
21
-2.0858
0
LINE
8
BLACK
6
CONTINUOUS
10
3.10794
20
-2.0858
11
3.12872
21
-2.08346
0
LINE
8
BLACK
6
CONTINUOUS
10
3.12872
20
-2.08346
11
3.14961
21
-2.08268
0
LINE
8
BLACK
6
CONTINUOUS
10
3.14961
20
-2.08268
11
3.1705
21
-2.08346
0
LINE
8
BLACK
6
CONTINUOUS
10
2.87459
20
-2.38281
11
2.8769
21
-2.40331
0
LINE
8
BLACK
6
CONTINUOUS
10
2.8769
20
-2.40331
11
2.88074
21
-2.42357
0
LINE
8
BLACK
6
CONTINUOUS
10
2.88074
20
-2.42357
11
2.88608
21
-2.44349
0
LINE
8
BLACK
6
CONTINUOUS
10
2.88608
20
-2.44349
11
2.89289
21
-2.46296
0
LINE
8
BLACK
6
CONTINUOUS
10
2.89289
20
-2.46296
11
2.90113
21
-2.48186
0
LINE
8
BLACK
6
CONTINUOUS
10
2.90113
20
-2.48186
11
2.91077
21
-2.5001
0
LINE
8
BLACK
6
CONTINUOUS
10
2.91077
20
-2.5001
11
2.92174
21
-2.51756
0
LINE
8
BLACK
6
CONTINUOUS
10
2.92174
20
-2.51756
11
2.93399
21
-2.53415
0
LINE
8
BLACK
6
CONTINUOUS
10
2.93399
20
-2.53415
11
2.94744
21
-2.54979
0
LINE
8
BLACK
6
CONTINUOUS
10
2.94744
20
-2.54979
11
2.96203
21
-2.56437
0
LINE
8
BLACK
6
CONTINUOUS
10
2.96203
20
-2.56437
11
2.97766
21
-2.57782
0
LINE
8
BLACK
6
CONTINUOUS
10
2.97766
20
-2.57782
11
2.99425
21
-2.59007
0
LINE
8
BLACK
6
CONTINUOUS
10
2.99425
20
-2.59007
11
3.01171
21
-2.60104
0
LINE
8
BLACK
6
CONTINUOUS
10
3.01171
20
-2.60104
11
3.02995
21
-2.61068
0
LINE
8
BLACK
6
CONTINUOUS
10
3.02995
20
-2.61068
11
3.04885
21
-2.61892
0
LINE
8
BLACK
6
CONTINUOUS
10
3.04885
20
-2.61892
11
3.06832
21
-2.62574
0
LINE
8
BLACK
6
CONTINUOUS
10
3.06832
20
-2.62574
11
3.08824
21
-2.63107
0
LINE
8
BLACK
6
CONTINUOUS
10
3.08824
20
-2.63107
11
3.1085
21
-2.63491
0
LINE
8
BLACK
6
CONTINUOUS
10
3.1085
20
-2.63491
11
3.129
21
-2.63722
0
LINE
8
BLACK
6
CONTINUOUS
10
3.129
20
-2.63722
11
3.14961
21
-2.63799
0
LINE
8
BLACK
6
CONTINUOUS
10
3.14961
20
-2.63799
11
3.17022
21
-2.63722
0
LINE
8
BLACK
6
CONTINUOUS
10
3.17022
20
-2.63722
11
3.19071
21
-2.63491
0
LINE
8
BLACK
6
CONTINUOUS
10
3.19071
20
-2.63491
11
3.21097
21
-2.63107
0
LINE
8
BLACK
6
CONTINUOUS
10
3.21097
20
-2.63107
11
3.23089
21
-2.62574
0
LINE
8
BLACK
6
CONTINUOUS
10
3.23089
20
-2.62574
11
3.25036
21
-2.61892
0
LINE
8
BLACK
6
CONTINUOUS
10
3.25036
20
-2.61892
11
3.26926
21
-2.61068
0
LINE
8
BLACK
6
CONTINUOUS
10
3.26926
20
-2.61068
11
3.2875
21
-2.60104
0
LINE
8
BLACK
6
CONTINUOUS
10
3.2875
20
-2.60104
11
3.30496
21
-2.59007
0
LINE
8
BLACK
6
CONTINUOUS
10
3.30496
20
-2.59007
11
3.32155
21
-2.57782
0
LINE
8
BLACK
6
CONTINUOUS
10
3.32155
20
-2.57782
11
3.33719
21
-2.56437
0
LINE
8
BLACK
6
CONTINUOUS
10
3.33719
20
-2.56437
11
3.35177
21
-2.54979
0
LINE
8
BLACK
6
CONTINUOUS
10
3.35177
20
-2.54979
11
3.36522
21
-2.53415
0
LINE
8
BLACK
6
CONTINUOUS
10
3.36522
20
-2.53415
11
3.37747
21
-2.51756
0
LINE
8
BLACK
6
CONTINUOUS
10
3.37747
20
-2.51756
11
3.38844
21
-2.5001
0
LINE
8
BLACK
6
CONTINUOUS
10
3.38844
20
-2.5001
11
3.39808
21
-2.48186
0
LINE
8
BLACK
6
CONTINUOUS
10
3.39808
20
-2.48186
11
3.40633
21
-2.46296
0
LINE
8
BLACK
6
CONTINUOUS
10
3.40633
20
-2.46296
11
3.41314
21
-2.44349
0
LINE
8
BLACK
6
CONTINUOUS
10
3.41314
20
-2.44349
11
3.41848
21
-2.42357
0
LINE
8
BLACK
6
CONTINUOUS
10
3.41848
20
-2.42357
11
3.42231
21
-2.40331
0
LINE
8
BLACK
6
CONTINUOUS
10
3.42231
20
-2.40331
11
3.42462
21
-2.38281
0
LINE
8
BLACK
6
CONTINUOUS
10
3.42462
20
-2.38281
11
3.42539
21
-2.3622
0
LINE
8
BLACK
6
CONTINUOUS
10
3.42539
20
-2.3622
11
3.42462
21
-2.3416
0
LINE
8
BLACK
6
CONTINUOUS
10
3.42462
20
-2.3416
11
3.42231
21
-2.3211
0
LINE
8
BLACK
6
CONTINUOUS
10
3.42231
20
-2.3211
11
3.41848
21
-2.30084
0
LINE
8
BLACK
6
CONTINUOUS
10
3.41848
20
-2.30084
11
3.41314
21
-2.28092
0
LINE
8
BLACK
6
CONTINUOUS
10
3.41314
20
-2.28092
11
3.40633
21
-2.26145
0
LINE
8
BLACK
6
CONTINUOUS
10
3.40633
20
-2.26145
11
3.39808
21
-2.24255
0
LINE
8
BLACK
6
CONTINUOUS
10
3.39808
20
-2.24255
11
3.38844
21
-2.22431
0
LINE
8
BLACK
6
CONTINUOUS
10
3.38844
20
-2.22431
11
3.37747
21
-2.20685
0
LINE
8
BLACK
6
CONTINUOUS
10
3.37747
20
-2.20685
11
3.36522
21
-2.19026
0
LINE
8
BLACK
6
CONTINUOUS
10
3.36522
20
-2.19026
11
3.35177
21
-2.17462
0
LINE
8
BLACK
6
CONTINUOUS
10
3.35177
20
-2.17462
11
3.33719
21
-2.16004
0
LINE
8
BLACK
6
CONTINUOUS
10
3.33719
20
-2.16004
11
3.32155
21
-2.14659
0
LINE
8
BLACK
6
CONTINUOUS
10
3.32155
20
-2.14659
11
3.30496
21
-2.13434
0
LINE
8
BLACK
6
CONTINUOUS
10
3.30496
20
-2.13434
11
3.2875
21
-2.12337
0
LINE
8
BLACK
6
CONTINUOUS
10
3.2875
20
-2.12337
11
3.26926
21
-2.11373
0
LINE
8
BLACK
6
CONTINUOUS
10
3.26926
20
-2.11373
11
3.25036
21
-2.10549
0
LINE
8
BLACK
6
CONTINUOUS
10
3.25036
20
-2.10549
11
3.23089
21
-2.09867
0
LINE
8
BLACK
6
CONTINUOUS
10
3.23089
20
-2.09867
11
3.21097
21
-2.09334
0
LINE
8
BLACK
6
CONTINUOUS
10
3.21097
20
-2.09334
11
3.19071
21
-2.0895
0
LINE
8
BLACK
6
CONTINUOUS
10
3.19071
20
-2.0895
11
3.17022
21
-2.08719
0
LINE
8
BLACK
6
CONTINUOUS
10
3.17022
20
-2.08719
11
3.14961
21
-2.08642
0
LINE
8
BLACK
6
CONTINUOUS
10
3.14961
20
-2.08642
11
3.129
21
-2.08719
0
LINE
8
BLACK
6
CONTINUOUS
10
3.129
20
-2.08719
11
3.1085
21
-2.0895
0
LINE
8
BLACK
6
CONTINUOUS
10
3.1085
20
-2.0895
11
3.08824
21
-2.09334
0
LINE
8
BLACK
6
CONTINUOUS
10
3.08824
20
-2.09334
11
3.06832
21
-2.09867
0
LINE
8
BLACK
6
CONTINUOUS
10
3.06832
20
-2.09867
11
3.04885
21
-2.10549
0
LINE
8
BLACK
6
CONTINUOUS
10
3.04885
20
-2.10549
11
3.02995
21
-2.11373
0
LINE
8
BLACK
6
CONTINUOUS
10
3.02995
20
-2.11373
11
3.01171
21
-2.12337
0
LINE
8
BLACK
6
CONTINUOUS
10
3.01171
20
-2.12337
11
2.99425
21
-2.13434
0
LINE
8
BLACK
6
CONTINUOUS
10
2.99425
20
-2.13434
11
2.97766
21
-2.14659
0
LINE
8
BLACK
6
CONTINUOUS
10
2.97766
20
-2.14659
11
2.96203
21
-2.16004
0
LINE
8
BLACK
6
CONTINUOUS
10
2.96203
20
-2.16004
11
2.94744
21
-2.17462
0
LINE
8
BLACK
6
CONTINUOUS
10
2.94744
20
-2.17462
11
2.93399
21
-2.19026
0
LINE
8
BLACK
6
CONTINUOUS
10
2.93399
20
-2.19026
11
2.92174
21
-2.20685
0
LINE
8
BLACK
6
CONTINUOUS
10
2.92174
20
-2.20685
11
2.91077
21
-2.22431
0
LINE
8
BLACK
6
CONTINUOUS
10
2.91077
20
-2.22431
11
2.90113
21
-2.24255
0
LINE
8
BLACK
6
CONTINUOUS
10
2.90113
20
-2.24255
11
2.89289
21
-2.26145
0
LINE
8
BLACK
6
CONTINUOUS
10
2.89289
20
-2.26145
11
2.88608
21
-2.28092
0
LINE
8
BLACK
6
CONTINUOUS
10
2.88608
20
-2.28092
11
2.88074
21
-2.30084
0
LINE
8
BLACK
6
CONTINUOUS
10
2.88074
20
-2.30084
11
2.8769
21
-2.3211
0
LINE
8
BLACK
6
CONTINUOUS
10
2.8769
20
-2.3211
11
2.87459
21
-2.3416
0
LINE
8
BLACK
6
CONTINUOUS
10
2.87459
20
-2.3416
11
2.87382
21
-2.3622
0
LINE
8
BLACK
6
CONTINUOUS
10
2.87382
20
-2.3622
11
2.87459
21
-2.38281
0
LINE
8
BLACK
6
CONTINUOUS
10
3.53917
20
-2.56857
11
3.5399
21
-2.57033
0
LINE
8
BLACK
6
CONTINUOUS
10
3.5399
20
-2.57033
11
3.53917
21
-2.5721
0
LINE
8
BLACK
6
CONTINUOUS
10
3.53917
20
-2.5721
11
3.5374
21
-2.57283
0
LINE
8
BLACK
6
CONTINUOUS
10
3.5374
20
-2.57283
11
3.41142
21
-2.57283
0
LINE
8
BLACK
6
CONTINUOUS
10
3.41142
20
-2.57283
11
3.40965
21
-2.5721
0
LINE
8
BLACK
6
CONTINUOUS
10
3.40965
20
-2.5721
11
3.40892
21
-2.57033
0
LINE
8
BLACK
6
CONTINUOUS
10
3.40892
20
-2.57033
11
3.40965
21
-2.56857
0
LINE
8
BLACK
6
CONTINUOUS
10
3.40965
20
-2.56857
11
3.41142
21
-2.56783
0
LINE
8
BLACK
6
CONTINUOUS
10
3.41142
20
-2.56783
11
3.5374
21
-2.56783
0
LINE
8
BLACK
6
CONTINUOUS
10
3.5374
20
-2.56783
11
3.53917
21
-2.56857
0
LINE
8
BLACK
6
CONTINUOUS
10
3.63553
20
-2.57313
11
3.63622
21
-2.5748
0
LINE
8
BLACK
6
CONTINUOUS
10
3.63622
20
-2.5748
11
3.63553
21
-2.57647
0
LINE
8
BLACK
6
CONTINUOUS
10
3.63553
20
-2.57647
11
3.63386
21
-2.57717
0
LINE
8
BLACK
6
CONTINUOUS
10
3.63386
20
-2.57717
11
3.61378
21
-2.57717
0
LINE
8
BLACK
6
CONTINUOUS
10
3.61378
20
-2.57717
11
3.61378
21
-2.77717
0
LINE
8
BLACK
6
CONTINUOUS
10
3.61378
20
-2.77717
11
3.63386
21
-2.77717
0
LINE
8
BLACK
6
CONTINUOUS
10
3.63386
20
-2.77717
11
3.63553
21
-2.77786
0
LINE
8
BLACK
6
CONTINUOUS
10
3.63553
20
-2.77786
11
3.63622
21
-2.77953
0
LINE
8
BLACK
6
CONTINUOUS
10
3.63622
20
-2.77953
11
3.63622
21
-2.83307
0
LINE
8
BLACK
6
CONTINUOUS
10
3.63622
20
-2.83307
11
3.63553
21
-2.83474
0
LINE
8
BLACK
6
CONTINUOUS
10
3.63553
20
-2.83474
11
3.63386
21
-2.83543
0
LINE
8
BLACK
6
CONTINUOUS
10
3.63386
20
-2.83543
11
3.63219
21
-2.83474
0
LINE
8
BLACK
6
CONTINUOUS
10
3.63219
20
-2.83474
11
3.6315
21
-2.83307
0
LINE
8
BLACK
6
CONTINUOUS
10
3.6315
20
-2.83307
11
3.6315
21
-2.78189
0
LINE
8
BLACK
6
CONTINUOUS
10
3.6315
20
-2.78189
11
3.61142
21
-2.78189
0
LINE
8
BLACK
6
CONTINUOUS
10
3.61142
20
-2.78189
11
3.60975
21
-2.7812
0
LINE
8
BLACK
6
CONTINUOUS
10
3.60975
20
-2.7812
11
3.60906
21
-2.77953
0
LINE
8
BLACK
6
CONTINUOUS
10
3.60906
20
-2.77953
11
3.60906
21
-2.5748
0
LINE
8
BLACK
6
CONTINUOUS
10
3.60906
20
-2.5748
11
3.60975
21
-2.57313
0
LINE
8
BLACK
6
CONTINUOUS
10
3.60975
20
-2.57313
11
3.61142
21
-2.57244
0
LINE
8
BLACK
6
CONTINUOUS
10
3.61142
20
-2.57244
11
3.63386
21
-2.57244
0
LINE
8
BLACK
6
CONTINUOUS
10
3.63386
20
-2.57244
11
3.63553
21
-2.57313
0
LINE
8
BLACK
6
CONTINUOUS
10
3.73553
20
-2.77786
11
3.73622
21
-2.77953
0
LINE
8
BLACK
6
CONTINUOUS
10
3.73622
20
-2.77953
11
3.73553
21
-2.7812
0
LINE
8
BLACK
6
CONTINUOUS
10
3.73553
20
-2.7812
11
3.73386
21
-2.78189
0
LINE
8
BLACK
6
CONTINUOUS
10
3.73386
20
-2.78189
11
3.6937
21
-2.78189
0
LINE
8
BLACK
6
CONTINUOUS
10
3.6937
20
-2.78189
11
3.69203
21
-2.7812
0
LINE
8
BLACK
6
CONTINUOUS
10
3.69203
20
-2.7812
11
3.69134
21
-2.77953
0
LINE
8
BLACK
6
CONTINUOUS
10
3.69134
20
-2.77953
11
3.69203
21
-2.77786
0
LINE
8
BLACK
6
CONTINUOUS
10
3.69203
20
-2.77786
11
3.6937
21
-2.77717
0
LINE
8
BLACK
6
CONTINUOUS
10
3.6937
20
-2.77717
11
3.73386
21
-2.77717
0
LINE
8
BLACK
6
CONTINUOUS
10
3.73386
20
-2.77717
11
3.73553
21
-2.77786
0
LINE
8
BLACK
6
CONTINUOUS
10
3.83553
20
-2.77786
11
3.83622
21
-2.77953
0
LINE
8
BLACK
6
CONTINUOUS
10
3.83622
20
-2.77953
11
3.83553
21
-2.7812
0
LINE
8
BLACK
6
CONTINUOUS
10
3.83553
20
-2.7812
11
3.83386
21
-2.78189
0
LINE
8
BLACK
6
CONTINUOUS
10
3.83386
20
-2.78189
11
3.7937
21
-2.78189
0
LINE
8
BLACK
6
CONTINUOUS
10
3.7937
20
-2.78189
11
3.79203
21
-2.7812
0
LINE
8
BLACK
6
CONTINUOUS
10
3.79203
20
-2.7812
11
3.79134
21
-2.77953
0
LINE
8
BLACK
6
CONTINUOUS
10
3.79134
20
-2.77953
11
3.79203
21
-2.77786
0
LINE
8
BLACK
6
CONTINUOUS
10
3.79203
20
-2.77786
11
3.7937
21
-2.77717
0
LINE
8
BLACK
6
CONTINUOUS
10
3.7937
20
-2.77717
11
3.83386
21
-2.77717
0
LINE
8
BLACK
6
CONTINUOUS
10
3.83386
20
-2.77717
11
3.83553
21
-2.77786
0
LINE
8
BLACK
6
CONTINUOUS
10
3.73553
20
-2.57313
11
3.73622
21
-2.5748
0
LINE
8
BLACK
6
CONTINUOUS
10
3.73622
20
-2.5748
11
3.73553
21
-2.57647
0
LINE
8
BLACK
6
CONTINUOUS
10
3.73553
20
-2.57647
11
3.73386
21
-2.57717
0
LINE
8
BLACK
6
CONTINUOUS
10
3.73386
20
-2.57717
11
3.6937
21
-2.57717
0
LINE
8
BLACK
6
CONTINUOUS
10
3.6937
20
-2.57717
11
3.69203
21
-2.57647
0
LINE
8
BLACK
6
CONTINUOUS
10
3.69203
20
-2.57647
11
3.69134
21
-2.5748
0
LINE
8
BLACK
6
CONTINUOUS
10
3.69134
20
-2.5748
11
3.69203
21
-2.57313
0
LINE
8
BLACK
6
CONTINUOUS
10
3.69203
20
-2.57313
11
3.6937
21
-2.57244
0
LINE
8
BLACK
6
CONTINUOUS
10
3.6937
20
-2.57244
11
3.73386
21
-2.57244
0
LINE
8
BLACK
6
CONTINUOUS
10
3.73386
20
-2.57244
11
3.73553
21
-2.57313
0
LINE
8
BLACK
6
CONTINUOUS
10
3.83553
20
-2.57313
11
3.83622
21
-2.5748
0
LINE
8
BLACK
6
CONTINUOUS
10
3.83622
20
-2.5748
11
3.83553
21
-2.57647
0
LINE
8
BLACK
6
CONTINUOUS
10
3.83553
20
-2.57647
11
3.83386
21
-2.57717
0
LINE
8
BLACK
6
CONTINUOUS
10
3.83386
20
-2.57717
11
3.7937
21
-2.57717
0
LINE
8
BLACK
6
CONTINUOUS
10
3.7937
20
-2.57717
11
3.79203
21
-2.57647
0
LINE
8
BLACK
6
CONTINUOUS
10
3.79203
20
-2.57647
11
3.79134
21
-2.5748
0
LINE
8
BLACK
6
CONTINUOUS
10
3.79134
20
-2.5748
11
3.79203
21
-2.57313
0
LINE
8
BLACK
6
CONTINUOUS
10
3.79203
20
-2.57313
11
3.7937
21
-2.57244
0
LINE
8
BLACK
6
CONTINUOUS
10
3.7937
20
-2.57244
11
3.83386
21
-2.57244
0
LINE
8
BLACK
6
CONTINUOUS
10
3.83386
20
-2.57244
11
3.83553
21
-2.57313
0
LINE
8
BLACK
6
CONTINUOUS
10
3.91614
20
-2.57244
11
3.91781
21
-2.57313
0
LINE
8
BLACK
6
CONTINUOUS
10
3.91781
20
-2.57313
11
3.9185
21
-2.5748
0
LINE
8
BLACK
6
CONTINUOUS
10
3.9185
20
-2.5748
11
3.9185
21
-2.77953
0
LINE
8
BLACK
6
CONTINUOUS
10
3.9185
20
-2.77953
11
3.91781
21
-2.7812
0
LINE
8
BLACK
6
CONTINUOUS
10
3.91781
20
-2.7812
11
3.91614
21
-2.78189
0
LINE
8
BLACK
6
CONTINUOUS
10
3.91614
20
-2.78189
11
3.8937
21
-2.78189
0
LINE
8
BLACK
6
CONTINUOUS
10
3.8937
20
-2.78189
11
3.89203
21
-2.7812
0
LINE
8
BLACK
6
CONTINUOUS
10
3.89203
20
-2.7812
11
3.89134
21
-2.77953
0
LINE
8
BLACK
6
CONTINUOUS
10
3.89134
20
-2.77953
11
3.89203
21
-2.77786
0
LINE
8
BLACK
6
CONTINUOUS
10
3.89203
20
-2.77786
11
3.8937
21
-2.77717
0
LINE
8
BLACK
6
CONTINUOUS
10
3.8937
20
-2.77717
11
3.91378
21
-2.77717
0
LINE
8
BLACK
6
CONTINUOUS
10
3.91378
20
-2.77717
11
3.91378
21
-2.57717
0
LINE
8
BLACK
6
CONTINUOUS
10
3.91378
20
-2.57717
11
3.8937
21
-2.57717
0
LINE
8
BLACK
6
CONTINUOUS
10
3.8937
20
-2.57717
11
3.89203
21
-2.57647
0
LINE
8
BLACK
6
CONTINUOUS
10
3.89203
20
-2.57647
11
3.89134
21
-2.5748
0
LINE
8
BLACK
6
CONTINUOUS
10
3.89134
20
-2.5748
11
3.89203
21
-2.57313
0
LINE
8
BLACK
6
CONTINUOUS
10
3.89203
20
-2.57313
11
3.8937
21
-2.57244
0
LINE
8
BLACK
6
CONTINUOUS
10
3.8937
20
-2.57244
11
3.91614
21
-2.57244
0
LINE
8
BLACK
6
CONTINUOUS
10
3.40258
20
-2.76789
11
3.40413
21
-2.76919
0
LINE
8
BLACK
6
CONTINUOUS
10
3.40413
20
-2.76919
11
3.40448
21
-2.77118
0
LINE
8
BLACK
6
CONTINUOUS
10
3.40448
20
-2.77118
11
3.40347
21
-2.77293
0
LINE
8
BLACK
6
CONTINUOUS
10
3.40347
20
-2.77293
11
3.40157
21
-2.77362
0
LINE
8
BLACK
6
CONTINUOUS
10
3.40157
20
-2.77362
11
3.3622
21
-2.77362
0
LINE
8
BLACK
6
CONTINUOUS
10
3.3622
20
-2.77362
11
3.36119
21
-2.77344
0
LINE
8
BLACK
6
CONTINUOUS
10
3.36119
20
-2.77344
11
3.35965
21
-2.77215
0
LINE
8
BLACK
6
CONTINUOUS
10
3.35965
20
-2.77215
11
3.3593
21
-2.77016
0
LINE
8
BLACK
6
CONTINUOUS
10
3.3593
20
-2.77016
11
3.36031
21
-2.76841
0
LINE
8
BLACK
6
CONTINUOUS
10
3.36031
20
-2.76841
11
3.3622
21
-2.76772
0
LINE
8
BLACK
6
CONTINUOUS
10
3.3622
20
-2.76772
11
3.40157
21
-2.76772
0
LINE
8
BLACK
6
CONTINUOUS
10
3.40157
20
-2.76772
11
3.40258
21
-2.76789
0
LINE
8
BLACK
6
CONTINUOUS
10
3.27967
20
-2.75561
11
3.28036
21
-2.75728
0
LINE
8
BLACK
6
CONTINUOUS
10
3.28036
20
-2.75728
11
3.27967
21
-2.75895
0
LINE
8
BLACK
6
CONTINUOUS
10
3.27967
20
-2.75895
11
3.278
21
-2.75965
0
LINE
8
BLACK
6
CONTINUOUS
10
3.278
20
-2.75965
11
3.25743
21
-2.75965
0
LINE
8
BLACK
6
CONTINUOUS
10
3.25743
20
-2.75965
11
3.25576
21
-2.75895
0
LINE
8
BLACK
6
CONTINUOUS
10
3.25576
20
-2.75895
11
3.25507
21
-2.75728
0
LINE
8
BLACK
6
CONTINUOUS
10
3.25507
20
-2.75728
11
3.25576
21
-2.75561
0
LINE
8
BLACK
6
CONTINUOUS
10
3.25576
20
-2.75561
11
3.25743
21
-2.75492
0
LINE
8
BLACK
6
CONTINUOUS
10
3.25743
20
-2.75492
11
3.278
21
-2.75492
0
LINE
8
BLACK
6
CONTINUOUS
10
3.278
20
-2.75492
11
3.27967
21
-2.75561
0
LINE
8
BLACK
6
CONTINUOUS
10
3.38759
20
-2.71032
11
3.38772
21
-2.71043
0
LINE
8
BLACK
6
CONTINUOUS
10
3.38772
20
-2.71043
11
3.3879
21
-2.71045
0
LINE
8
BLACK
6
CONTINUOUS
10
3.3879
20
-2.71045
11
3.39165
21
-2.71233
0
LINE
8
BLACK
6
CONTINUOUS
10
3.39165
20
-2.71233
11
3.39236
21
-2.71285
0
LINE
8
BLACK
6
CONTINUOUS
10
3.39236
20
-2.71285
11
3.39241
21
-2.71288
0
LINE
8
BLACK
6
CONTINUOUS
10
3.39241
20
-2.71288
11
3.39429
21
-2.71476
0
LINE
8
BLACK
6
CONTINUOUS
10
3.39429
20
-2.71476
11
3.39488
21
-2.7156
0
LINE
8
BLACK
6
CONTINUOUS
10
3.39488
20
-2.7156
11
3.39505
21
-2.71761
0
LINE
8
BLACK
6
CONTINUOUS
10
3.39505
20
-2.71761
11
3.39389
21
-2.71926
0
LINE
8
BLACK
6
CONTINUOUS
10
3.39389
20
-2.71926
11
3.39194
21
-2.71979
0
LINE
8
BLACK
6
CONTINUOUS
10
3.39194
20
-2.71979
11
3.39011
21
-2.71893
0
LINE
8
BLACK
6
CONTINUOUS
10
3.39011
20
-2.71893
11
3.38858
21
-2.7174
0
LINE
8
BLACK
6
CONTINUOUS
10
3.38858
20
-2.7174
11
3.38588
21
-2.71605
0
LINE
8
BLACK
6
CONTINUOUS
10
3.38588
20
-2.71605
11
3.3779
21
-2.71605
0
LINE
8
BLACK
6
CONTINUOUS
10
3.3779
20
-2.71605
11
3.3752
21
-2.7174
0
LINE
8
BLACK
6
CONTINUOUS
10
3.3752
20
-2.7174
11
3.37401
21
-2.71859
0
LINE
8
BLACK
6
CONTINUOUS
10
3.37401
20
-2.71859
11
3.37266
21
-2.72129
0
LINE
8
BLACK
6
CONTINUOUS
10
3.37266
20
-2.72129
11
3.37266
21
-2.72386
0
LINE
8
BLACK
6
CONTINUOUS
10
3.37266
20
-2.72386
11
3.37416
21
-2.72837
0
LINE
8
BLACK
6
CONTINUOUS
10
3.37416
20
-2.72837
11
3.39616
21
-2.75038
0
LINE
8
BLACK
6
CONTINUOUS
10
3.39616
20
-2.75038
11
3.39653
21
-2.75091
0
LINE
8
BLACK
6
CONTINUOUS
10
3.39653
20
-2.75091
11
3.39663
21
-2.75099
0
LINE
8
BLACK
6
CONTINUOUS
10
3.39663
20
-2.75099
11
3.39665
21
-2.75107
0
LINE
8
BLACK
6
CONTINUOUS
10
3.39665
20
-2.75107
11
3.39675
21
-2.75122
0
LINE
8
BLACK
6
CONTINUOUS
10
3.39675
20
-2.75122
11
3.39683
21
-2.7521
0
LINE
8
BLACK
6
CONTINUOUS
10
3.39683
20
-2.7521
11
3.39698
21
-2.75298
0
LINE
8
BLACK
6
CONTINUOUS
10
3.39698
20
-2.75298
11
3.39692
21
-2.7531
0
LINE
8
BLACK
6
CONTINUOUS
10
3.39692
20
-2.7531
11
3.39693
21
-2.75323
0
LINE
8
BLACK
6
CONTINUOUS
10
3.39693
20
-2.75323
11
3.39642
21
-2.75396
0
LINE
8
BLACK
6
CONTINUOUS
10
3.39642
20
-2.75396
11
3.39597
21
-2.75473
0
LINE
8
BLACK
6
CONTINUOUS
10
3.39597
20
-2.75473
11
3.39585
21
-2.75477
0
LINE
8
BLACK
6
CONTINUOUS
10
3.39585
20
-2.75477
11
3.39577
21
-2.75488
0
LINE
8
BLACK
6
CONTINUOUS
10
3.39577
20
-2.75488
11
3.39491
21
-2.75511
0
LINE
8
BLACK
6
CONTINUOUS
10
3.39491
20
-2.75511
11
3.39408
21
-2.75542
0
LINE
8
BLACK
6
CONTINUOUS
10
3.39408
20
-2.75542
11
3.3697
21
-2.75542
0
LINE
8
BLACK
6
CONTINUOUS
10
3.3697
20
-2.75542
11
3.36869
21
-2.75524
0
LINE
8
BLACK
6
CONTINUOUS
10
3.36869
20
-2.75524
11
3.36715
21
-2.75394
0
LINE
8
BLACK
6
CONTINUOUS
10
3.36715
20
-2.75394
11
3.3668
21
-2.75195
0
LINE
8
BLACK
6
CONTINUOUS
10
3.3668
20
-2.75195
11
3.36781
21
-2.7502
0
LINE
8
BLACK
6
CONTINUOUS
10
3.36781
20
-2.7502
11
3.3697
21
-2.74951
0
LINE
8
BLACK
6
CONTINUOUS
10
3.3697
20
-2.74951
11
3.38695
21
-2.74951
0
LINE
8
BLACK
6
CONTINUOUS
10
3.38695
20
-2.74951
11
3.36949
21
-2.73206
0
LINE
8
BLACK
6
CONTINUOUS
10
3.36949
20
-2.73206
11
3.3689
21
-2.73122
0
LINE
8
BLACK
6
CONTINUOUS
10
3.3689
20
-2.73122
11
3.36889
21
-2.73104
0
LINE
8
BLACK
6
CONTINUOUS
10
3.36889
20
-2.73104
11
3.36878
21
-2.7309
0
LINE
8
BLACK
6
CONTINUOUS
10
3.36878
20
-2.7309
11
3.3669
21
-2.72528
0
LINE
8
BLACK
6
CONTINUOUS
10
3.3669
20
-2.72528
11
3.36677
21
-2.7244
0
LINE
8
BLACK
6
CONTINUOUS
10
3.36677
20
-2.7244
11
3.36675
21
-2.72434
0
LINE
8
BLACK
6
CONTINUOUS
10
3.36675
20
-2.72434
11
3.36675
21
-2.72059
0
LINE
8
BLACK
6
CONTINUOUS
10
3.36675
20
-2.72059
11
3.36693
21
-2.71958
0
LINE
8
BLACK
6
CONTINUOUS
10
3.36693
20
-2.71958
11
3.36704
21
-2.71945
0
LINE
8
BLACK
6
CONTINUOUS
10
3.36704
20
-2.71945
11
3.36706
21
-2.71927
0
LINE
8
BLACK
6
CONTINUOUS
10
3.36706
20
-2.71927
11
3.36894
21
-2.71552
0
LINE
8
BLACK
6
CONTINUOUS
10
3.36894
20
-2.71552
11
3.36946
21
-2.71482
0
LINE
8
BLACK
6
CONTINUOUS
10
3.36946
20
-2.71482
11
3.36949
21
-2.71476
0
LINE
8
BLACK
6
CONTINUOUS
10
3.36949
20
-2.71476
11
3.37137
21
-2.71288
0
LINE
8
BLACK
6
CONTINUOUS
10
3.37137
20
-2.71288
11
3.37209
21
-2.71238
0
LINE
8
BLACK
6
CONTINUOUS
10
3.37209
20
-2.71238
11
3.37213
21
-2.71233
0
LINE
8
BLACK
6
CONTINUOUS
10
3.37213
20
-2.71233
11
3.37588
21
-2.71045
0
LINE
8
BLACK
6
CONTINUOUS
10
3.37588
20
-2.71045
11
3.37687
21
-2.71016
0
LINE
8
BLACK
6
CONTINUOUS
10
3.37687
20
-2.71016
11
3.37704
21
-2.7102
0
LINE
8
BLACK
6
CONTINUOUS
10
3.37704
20
-2.7102
11
3.3772
21
-2.71014
0
LINE
8
BLACK
6
CONTINUOUS
10
3.3772
20
-2.71014
11
3.38658
21
-2.71014
0
LINE
8
BLACK
6
CONTINUOUS
10
3.38658
20
-2.71014
11
3.38759
21
-2.71032
0
LINE
8
BLACK
6
CONTINUOUS
10
3.43383
20
-2.7112
11
3.43452
21
-2.7131
0
LINE
8
BLACK
6
CONTINUOUS
10
3.43452
20
-2.7131
11
3.43452
21
-2.74497
0
LINE
8
BLACK
6
CONTINUOUS
10
3.43452
20
-2.74497
11
3.43435
21
-2.74598
0
LINE
8
BLACK
6
CONTINUOUS
10
3.43435
20
-2.74598
11
3.43423
21
-2.74611
0
LINE
8
BLACK
6
CONTINUOUS
10
3.43423
20
-2.74611
11
3.43421
21
-2.74629
0
LINE
8
BLACK
6
CONTINUOUS
10
3.43421
20
-2.74629
11
3.43234
21
-2.75004
0
LINE
8
BLACK
6
CONTINUOUS
10
3.43234
20
-2.75004
11
3.43181
21
-2.75075
0
LINE
8
BLACK
6
CONTINUOUS
10
3.43181
20
-2.75075
11
3.43178
21
-2.7508
0
LINE
8
BLACK
6
CONTINUOUS
10
3.43178
20
-2.7508
11
3.42991
21
-2.75268
0
LINE
8
BLACK
6
CONTINUOUS
10
3.42991
20
-2.75268
11
3.42919
21
-2.75318
0
LINE
8
BLACK
6
CONTINUOUS
10
3.42919
20
-2.75318
11
3.42914
21
-2.75323
0
LINE
8
BLACK
6
CONTINUOUS
10
3.42914
20
-2.75323
11
3.42539
21
-2.75511
0
LINE
8
BLACK
6
CONTINUOUS
10
3.42539
20
-2.75511
11
3.42441
21
-2.7554
0
LINE
8
BLACK
6
CONTINUOUS
10
3.42441
20
-2.7554
11
3.42424
21
-2.75536
0
LINE
8
BLACK
6
CONTINUOUS
10
3.42424
20
-2.75536
11
3.42407
21
-2.75542
0
LINE
8
BLACK
6
CONTINUOUS
10
3.42407
20
-2.75542
11
3.41657
21
-2.75542
0
LINE
8
BLACK
6
CONTINUOUS
10
3.41657
20
-2.75542
11
3.41556
21
-2.75524
0
LINE
8
BLACK
6
CONTINUOUS
10
3.41556
20
-2.75524
11
3.41543
21
-2.75513
0
LINE
8
BLACK
6
CONTINUOUS
10
3.41543
20
-2.75513
11
3.41525
21
-2.75511
0
LINE
8
BLACK
6
CONTINUOUS
10
3.41525
20
-2.75511
11
3.4115
21
-2.75323
0
LINE
8
BLACK
6
CONTINUOUS
10
3.4115
20
-2.75323
11
3.41079
21
-2.75271
0
LINE
8
BLACK
6
CONTINUOUS
10
3.41079
20
-2.75271
11
3.41074
21
-2.75268
0
LINE
8
BLACK
6
CONTINUOUS
10
3.41074
20
-2.75268
11
3.40886
21
-2.7508
0
LINE
8
BLACK
6
CONTINUOUS
10
3.40886
20
-2.7508
11
3.40835
21
-2.75008
0
LINE
8
BLACK
6
CONTINUOUS
10
3.40835
20
-2.75008
11
3.40831
21
-2.75004
0
LINE
8
BLACK
6
CONTINUOUS
10
3.40831
20
-2.75004
11
3.40643
21
-2.74629
0
LINE
8
BLACK
6
CONTINUOUS
10
3.40643
20
-2.74629
11
3.40614
21
-2.7453
0
LINE
8
BLACK
6
CONTINUOUS
10
3.40614
20
-2.7453
11
3.40618
21
-2.74513
0
LINE
8
BLACK
6
CONTINUOUS
10
3.40618
20
-2.74513
11
3.40612
21
-2.74497
0
LINE
8
BLACK
6
CONTINUOUS
10
3.40612
20
-2.74497
11
3.40612
21
-2.7131
0
LINE
8
BLACK
6
CONTINUOUS
10
3.40612
20
-2.7131
11
3.4063
21
-2.71209
0
LINE
8
BLACK
6
CONTINUOUS
10
3.4063
20
-2.71209
11
3.4076
21
-2.71054
0
LINE
8
BLACK
6
CONTINUOUS
10
3.4076
20
-2.71054
11
3.40959
21
-2.71019
0
LINE
8
BLACK
6
CONTINUOUS
10
3.40959
20
-2.71019
11
3.41134
21
-2.7112
0
LINE
8
BLACK
6
CONTINUOUS
10
3.41134
20
-2.7112
11
3.41203
21
-2.7131
0
LINE
8
BLACK
6
CONTINUOUS
10
3.41203
20
-2.7131
11
3.41203
21
-2.74427
0
LINE
8
BLACK
6
CONTINUOUS
10
3.41203
20
-2.74427
11
3.41338
21
-2.74697
0
LINE
8
BLACK
6
CONTINUOUS
10
3.41338
20
-2.74697
11
3.41457
21
-2.74816
0
LINE
8
BLACK
6
CONTINUOUS
10
3.41457
20
-2.74816
11
3.41727
21
-2.74951
0
LINE
8
BLACK
6
CONTINUOUS
10
3.41727
20
-2.74951
11
3.42337
21
-2.74951
0
LINE
8
BLACK
6
CONTINUOUS
10
3.42337
20
-2.74951
11
3.42607
21
-2.74816
0
LINE
8
BLACK
6
CONTINUOUS
10
3.42607
20
-2.74816
11
3.42727
21
-2.74697
0
LINE
8
BLACK
6
CONTINUOUS
10
3.42727
20
-2.74697
11
3.42862
21
-2.74427
0
LINE
8
BLACK
6
CONTINUOUS
10
3.42862
20
-2.74427
11
3.42862
21
-2.7131
0
LINE
8
BLACK
6
CONTINUOUS
10
3.42862
20
-2.7131
11
3.4288
21
-2.71209
0
LINE
8
BLACK
6
CONTINUOUS
10
3.4288
20
-2.71209
11
3.43009
21
-2.71054
0
LINE
8
BLACK
6
CONTINUOUS
10
3.43009
20
-2.71054
11
3.43208
21
-2.71019
0
LINE
8
BLACK
6
CONTINUOUS
10
3.43208
20
-2.71019
11
3.43383
21
-2.7112
0
LINE
8
BLACK
6
CONTINUOUS
10
3.25933
20
-2.63193
11
3.26058
21
-2.63352
0
LINE
8
BLACK
6
CONTINUOUS
10
3.26058
20
-2.63352
11
3.26996
21
-2.66164
0
LINE
8
BLACK
6
CONTINUOUS
10
3.26996
20
-2.66164
11
3.27011
21
-2.66265
0
LINE
8
BLACK
6
CONTINUOUS
10
3.27011
20
-2.66265
11
3.27002
21
-2.66286
0
LINE
8
BLACK
6
CONTINUOUS
10
3.27002
20
-2.66286
11
3.27006
21
-2.66308
0
LINE
8
BLACK
6
CONTINUOUS
10
3.27006
20
-2.66308
11
3.26966
21
-2.66378
0
LINE
8
BLACK
6
CONTINUOUS
10
3.26966
20
-2.66378
11
3.26936
21
-2.66453
0
LINE
8
BLACK
6
CONTINUOUS
10
3.26936
20
-2.66453
11
3.26916
21
-2.66464
0
LINE
8
BLACK
6
CONTINUOUS
10
3.26916
20
-2.66464
11
3.26905
21
-2.66483
0
LINE
8
BLACK
6
CONTINUOUS
10
3.26905
20
-2.66483
11
3.2683
21
-2.66511
0
LINE
8
BLACK
6
CONTINUOUS
10
3.2683
20
-2.66511
11
3.26759
21
-2.66549
0
LINE
8
BLACK
6
CONTINUOUS
10
3.26759
20
-2.66549
11
3.26737
21
-2.66545
0
LINE
8
BLACK
6
CONTINUOUS
10
3.26737
20
-2.66545
11
3.26715
21
-2.66552
0
LINE
8
BLACK
6
CONTINUOUS
10
3.26715
20
-2.66552
11
3.25136
21
-2.66552
0
LINE
8
BLACK
6
CONTINUOUS
10
3.25136
20
-2.66552
11
3.25136
21
-2.67569
0
LINE
8
BLACK
6
CONTINUOUS
10
3.25136
20
-2.67569
11
3.25118
21
-2.6767
0
LINE
8
BLACK
6
CONTINUOUS
10
3.25118
20
-2.6767
11
3.24988
21
-2.67825
0
LINE
8
BLACK
6
CONTINUOUS
10
3.24988
20
-2.67825
11
3.24789
21
-2.6786
0
LINE
8
BLACK
6
CONTINUOUS
10
3.24789
20
-2.6786
11
3.24614
21
-2.67759
0
LINE
8
BLACK
6
CONTINUOUS
10
3.24614
20
-2.67759
11
3.24545
21
-2.67569
0
LINE
8
BLACK
6
CONTINUOUS
10
3.24545
20
-2.67569
11
3.24545
21
-2.66552
0
LINE
8
BLACK
6
CONTINUOUS
10
3.24545
20
-2.66552
11
3.24278
21
-2.66552
0
LINE
8
BLACK
6
CONTINUOUS
10
3.24278
20
-2.66552
11
3.24177
21
-2.66534
0
LINE
8
BLACK
6
CONTINUOUS
10
3.24177
20
-2.66534
11
3.24022
21
-2.66405
0
LINE
8
BLACK
6
CONTINUOUS
10
3.24022
20
-2.66405
11
3.23987
21
-2.66206
0
LINE
8
BLACK
6
CONTINUOUS
10
3.23987
20
-2.66206
11
3.24088
21
-2.66031
0
LINE
8
BLACK
6
CONTINUOUS
10
3.24088
20
-2.66031
11
3.24278
21
-2.65962
0
LINE
8
BLACK
6
CONTINUOUS
10
3.24278
20
-2.65962
11
3.24545
21
-2.65962
0
LINE
8
BLACK
6
CONTINUOUS
10
3.24545
20
-2.65962
11
3.24545
21
-2.64945
0
LINE
8
BLACK
6
CONTINUOUS
10
3.24545
20
-2.64945
11
3.24563
21
-2.64844
0
LINE
8
BLACK
6
CONTINUOUS
10
3.24563
20
-2.64844
11
3.24693
21
-2.64689
0
LINE
8
BLACK
6
CONTINUOUS
10
3.24693
20
-2.64689
11
3.24892
21
-2.64654
0
LINE
8
BLACK
6
CONTINUOUS
10
3.24892
20
-2.64654
11
3.25067
21
-2.64755
0
LINE
8
BLACK
6
CONTINUOUS
10
3.25067
20
-2.64755
11
3.25136
21
-2.64945
0
LINE
8
BLACK
6
CONTINUOUS
10
3.25136
20
-2.64945
11
3.25136
21
-2.65962
0
LINE
8
BLACK
6
CONTINUOUS
10
3.25136
20
-2.65962
11
3.26306
21
-2.65962
0
LINE
8
BLACK
6
CONTINUOUS
10
3.26306
20
-2.65962
11
3.25498
21
-2.63538
0
LINE
8
BLACK
6
CONTINUOUS
10
3.25498
20
-2.63538
11
3.25483
21
-2.63437
0
LINE
8
BLACK
6
CONTINUOUS
10
3.25483
20
-2.63437
11
3.25557
21
-2.63249
0
LINE
8
BLACK
6
CONTINUOUS
10
3.25557
20
-2.63249
11
3.25735
21
-2.63153
0
LINE
8
BLACK
6
CONTINUOUS
10
3.25735
20
-2.63153
11
3.25933
21
-2.63193
0
LINE
8
BLACK
6
CONTINUOUS
10
3.29427
20
-2.63352
11
3.29433
21
-2.63352
0
LINE
8
BLACK
6
CONTINUOUS
10
3.29433
20
-2.63352
11
3.29996
21
-2.6354
0
LINE
8
BLACK
6
CONTINUOUS
10
3.29996
20
-2.6354
11
3.30086
21
-2.63589
0
LINE
8
BLACK
6
CONTINUOUS
10
3.30086
20
-2.63589
11
3.30095
21
-2.63604
0
LINE
8
BLACK
6
CONTINUOUS
10
3.30095
20
-2.63604
11
3.30111
21
-2.63611
0
LINE
8
BLACK
6
CONTINUOUS
10
3.30111
20
-2.63611
11
3.30486
21
-2.63986
0
LINE
8
BLACK
6
CONTINUOUS
10
3.30486
20
-2.63986
11
3.30537
21
-2.64058
0
LINE
8
BLACK
6
CONTINUOUS
10
3.30537
20
-2.64058
11
3.30542
21
-2.64063
0
LINE
8
BLACK
6
CONTINUOUS
10
3.30542
20
-2.64063
11
3.30729
21
-2.64438
0
LINE
8
BLACK
6
CONTINUOUS
10
3.30729
20
-2.64438
11
3.30744
21
-2.64487
0
LINE
8
BLACK
6
CONTINUOUS
10
3.30744
20
-2.64487
11
3.30751
21
-2.64498
0
LINE
8
BLACK
6
CONTINUOUS
10
3.30751
20
-2.64498
11
3.30939
21
-2.65248
0
LINE
8
BLACK
6
CONTINUOUS
10
3.30939
20
-2.65248
11
3.30943
21
-2.65307
0
LINE
8
BLACK
6
CONTINUOUS
10
3.30943
20
-2.65307
11
3.30948
21
-2.6532
0
LINE
8
BLACK
6
CONTINUOUS
10
3.30948
20
-2.6532
11
3.30948
21
-2.65882
0
LINE
8
BLACK
6
CONTINUOUS
10
3.30948
20
-2.65882
11
3.30937
21
-2.6594
0
LINE
8
BLACK
6
CONTINUOUS
10
3.30937
20
-2.6594
11
3.30939
21
-2.65954
0
LINE
8
BLACK
6
CONTINUOUS
10
3.30939
20
-2.65954
11
3.30751
21
-2.66704
0
LINE
8
BLACK
6
CONTINUOUS
10
3.30751
20
-2.66704
11
3.30731
21
-2.6675
0
LINE
8
BLACK
6
CONTINUOUS
10
3.30731
20
-2.6675
11
3.30729
21
-2.66764
0
LINE
8
BLACK
6
CONTINUOUS
10
3.30729
20
-2.66764
11
3.30542
21
-2.67139
0
LINE
8
BLACK
6
CONTINUOUS
10
3.30542
20
-2.67139
11
3.30489
21
-2.6721
0
LINE
8
BLACK
6
CONTINUOUS
10
3.30489
20
-2.6721
11
3.30486
21
-2.67216
0
LINE
8
BLACK
6
CONTINUOUS
10
3.30486
20
-2.67216
11
3.30111
21
-2.67591
0
LINE
8
BLACK
6
CONTINUOUS
10
3.30111
20
-2.67591
11
3.30027
21
-2.6765
0
LINE
8
BLACK
6
CONTINUOUS
10
3.30027
20
-2.6765
11
3.3001
21
-2.67651
0
LINE
8
BLACK
6
CONTINUOUS
10
3.3001
20
-2.67651
11
3.29996
21
-2.67662
0
LINE
8
BLACK
6
CONTINUOUS
10
3.29996
20
-2.67662
11
3.29433
21
-2.67849
0
LINE
8
BLACK
6
CONTINUOUS
10
3.29433
20
-2.67849
11
3.29346
21
-2.67862
0
LINE
8
BLACK
6
CONTINUOUS
10
3.29346
20
-2.67862
11
3.2934
21
-2.67865
0
LINE
8
BLACK
6
CONTINUOUS
10
3.2934
20
-2.67865
11
3.28965
21
-2.67865
0
LINE
8
BLACK
6
CONTINUOUS
10
3.28965
20
-2.67865
11
3.28878
21
-2.67849
0
LINE
8
BLACK
6
CONTINUOUS
10
3.28878
20
-2.67849
11
3.28872
21
-2.67849
0
LINE
8
BLACK
6
CONTINUOUS
10
3.28872
20
-2.67849
11
3.28309
21
-2.67662
0
LINE
8
BLACK
6
CONTINUOUS
10
3.28309
20
-2.67662
11
3.28219
21
-2.67613
0
LINE
8
BLACK
6
CONTINUOUS
10
3.28219
20
-2.67613
11
3.2821
21
-2.67598
0
LINE
8
BLACK
6
CONTINUOUS
10
3.2821
20
-2.67598
11
3.28194
21
-2.67591
0
LINE
8
BLACK
6
CONTINUOUS
10
3.28194
20
-2.67591
11
3.28006
21
-2.67403
0
LINE
8
BLACK
6
CONTINUOUS
10
3.28006
20
-2.67403
11
3.27948
21
-2.67319
0
LINE
8
BLACK
6
CONTINUOUS
10
3.27948
20
-2.67319
11
3.2793
21
-2.67118
0
LINE
8
BLACK
6
CONTINUOUS
10
3.2793
20
-2.67118
11
3.28046
21
-2.66953
0
LINE
8
BLACK
6
CONTINUOUS
10
3.28046
20
-2.66953
11
3.28241
21
-2.669
0
LINE
8
BLACK
6
CONTINUOUS
10
3.28241
20
-2.669
11
3.28424
21
-2.66986
0
LINE
8
BLACK
6
CONTINUOUS
10
3.28424
20
-2.66986
11
3.28562
21
-2.67124
0
LINE
8
BLACK
6
CONTINUOUS
10
3.28562
20
-2.67124
11
3.29013
21
-2.67274
0
LINE
8
BLACK
6
CONTINUOUS
10
3.29013
20
-2.67274
11
3.29292
21
-2.67274
0
LINE
8
BLACK
6
CONTINUOUS
10
3.29292
20
-2.67274
11
3.29743
21
-2.67124
0
LINE
8
BLACK
6
CONTINUOUS
10
3.29743
20
-2.67124
11
3.30035
21
-2.66832
0
LINE
8
BLACK
6
CONTINUOUS
10
3.30035
20
-2.66832
11
3.30186
21
-2.66529
0
LINE
8
BLACK
6
CONTINUOUS
10
3.30186
20
-2.66529
11
3.30357
21
-2.65846
0
LINE
8
BLACK
6
CONTINUOUS
10
3.30357
20
-2.65846
11
3.30357
21
-2.65356
0
LINE
8
BLACK
6
CONTINUOUS
10
3.30357
20
-2.65356
11
3.30186
21
-2.64673
0
LINE
8
BLACK
6
CONTINUOUS
10
3.30186
20
-2.64673
11
3.30035
21
-2.6437
0
LINE
8
BLACK
6
CONTINUOUS
10
3.30035
20
-2.6437
11
3.29743
21
-2.64078
0
LINE
8
BLACK
6
CONTINUOUS
10
3.29743
20
-2.64078
11
3.29292
21
-2.63928
0
LINE
8
BLACK
6
CONTINUOUS
10
3.29292
20
-2.63928
11
3.29013
21
-2.63928
0
LINE
8
BLACK
6
CONTINUOUS
10
3.29013
20
-2.63928
11
3.28562
21
-2.64078
0
LINE
8
BLACK
6
CONTINUOUS
10
3.28562
20
-2.64078
11
3.28424
21
-2.64216
0
LINE
8
BLACK
6
CONTINUOUS
10
3.28424
20
-2.64216
11
3.2834
21
-2.64275
0
LINE
8
BLACK
6
CONTINUOUS
10
3.2834
20
-2.64275
11
3.28139
21
-2.64293
0
LINE
8
BLACK
6
CONTINUOUS
10
3.28139
20
-2.64293
11
3.27973
21
-2.64177
0
LINE
8
BLACK
6
CONTINUOUS
10
3.27973
20
-2.64177
11
3.27921
21
-2.63982
0
LINE
8
BLACK
6
CONTINUOUS
10
3.27921
20
-2.63982
11
3.28006
21
-2.63799
0
LINE
8
BLACK
6
CONTINUOUS
10
3.28006
20
-2.63799
11
3.28194
21
-2.63611
0
LINE
8
BLACK
6
CONTINUOUS
10
3.28194
20
-2.63611
11
3.28278
21
-2.63552
0
LINE
8
BLACK
6
CONTINUOUS
10
3.28278
20
-2.63552
11
3.28295
21
-2.63551
0
LINE
8
BLACK
6
CONTINUOUS
10
3.28295
20
-2.63551
11
3.28309
21
-2.6354
0
LINE
8
BLACK
6
CONTINUOUS
10
3.28309
20
-2.6354
11
3.28872
21
-2.63352
0
LINE
8
BLACK
6
CONTINUOUS
10
3.28872
20
-2.63352
11
3.28959
21
-2.63339
0
LINE
8
BLACK
6
CONTINUOUS
10
3.28959
20
-2.63339
11
3.28965
21
-2.63337
0
LINE
8
BLACK
6
CONTINUOUS
10
3.28965
20
-2.63337
11
3.2934
21
-2.63337
0
LINE
8
BLACK
6
CONTINUOUS
10
3.2934
20
-2.63337
11
3.29427
21
-2.63352
0
LINE
8
BLACK
6
CONTINUOUS
10
3.54658
20
-2.67854
11
3.54769
21
-2.68023
0
LINE
8
BLACK
6
CONTINUOUS
10
3.54769
20
-2.68023
11
3.54746
21
-2.68224
0
LINE
8
BLACK
6
CONTINUOUS
10
3.54746
20
-2.68224
11
3.54558
21
-2.68598
0
LINE
8
BLACK
6
CONTINUOUS
10
3.54558
20
-2.68598
11
3.54506
21
-2.68669
0
LINE
8
BLACK
6
CONTINUOUS
10
3.54506
20
-2.68669
11
3.54503
21
-2.68675
0
LINE
8
BLACK
6
CONTINUOUS
10
3.54503
20
-2.68675
11
3.54257
21
-2.68921
0
LINE
8
BLACK
6
CONTINUOUS
10
3.54257
20
-2.68921
11
3.56998
21
-2.68921
0
LINE
8
BLACK
6
CONTINUOUS
10
3.56998
20
-2.68921
11
3.56998
21
-2.68091
0
LINE
8
BLACK
6
CONTINUOUS
10
3.56998
20
-2.68091
11
3.57016
21
-2.6799
0
LINE
8
BLACK
6
CONTINUOUS
10
3.57016
20
-2.6799
11
3.57146
21
-2.67836
0
LINE
8
BLACK
6
CONTINUOUS
10
3.57146
20
-2.67836
11
3.57345
21
-2.67801
0
LINE
8
BLACK
6
CONTINUOUS
10
3.57345
20
-2.67801
11
3.5752
21
-2.67902
0
LINE
8
BLACK
6
CONTINUOUS
10
3.5752
20
-2.67902
11
3.57589
21
-2.68091
0
LINE
8
BLACK
6
CONTINUOUS
10
3.57589
20
-2.68091
11
3.57589
21
-2.70341
0
LINE
8
BLACK
6
CONTINUOUS
10
3.57589
20
-2.70341
11
3.57571
21
-2.70442
0
LINE
8
BLACK
6
CONTINUOUS
10
3.57571
20
-2.70442
11
3.57441
21
-2.70597
0
LINE
8
BLACK
6
CONTINUOUS
10
3.57441
20
-2.70597
11
3.57242
21
-2.70632
0
LINE
8
BLACK
6
CONTINUOUS
10
3.57242
20
-2.70632
11
3.57068
21
-2.70531
0
LINE
8
BLACK
6
CONTINUOUS
10
3.57068
20
-2.70531
11
3.56998
21
-2.70341
0
LINE
8
BLACK
6
CONTINUOUS
10
3.56998
20
-2.70341
11
3.56998
21
-2.69512
0
LINE
8
BLACK
6
CONTINUOUS
10
3.56998
20
-2.69512
11
3.53357
21
-2.69512
0
LINE
8
BLACK
6
CONTINUOUS
10
3.53357
20
-2.69512
11
3.53256
21
-2.69494
0
LINE
8
BLACK
6
CONTINUOUS
10
3.53256
20
-2.69494
11
3.53243
21
-2.69483
0
LINE
8
BLACK
6
CONTINUOUS
10
3.53243
20
-2.69483
11
3.53226
21
-2.69481
0
LINE
8
BLACK
6
CONTINUOUS
10
3.53226
20
-2.69481
11
3.53167
21
-2.69419
0
LINE
8
BLACK
6
CONTINUOUS
10
3.53167
20
-2.69419
11
3.53101
21
-2.69364
0
LINE
8
BLACK
6
CONTINUOUS
10
3.53101
20
-2.69364
11
3.53098
21
-2.69347
0
LINE
8
BLACK
6
CONTINUOUS
10
3.53098
20
-2.69347
11
3.53086
21
-2.69335
0
LINE
8
BLACK
6
CONTINUOUS
10
3.53086
20
-2.69335
11
3.53081
21
-2.69249
0
LINE
8
BLACK
6
CONTINUOUS
10
3.53081
20
-2.69249
11
3.53066
21
-2.69165
0
LINE
8
BLACK
6
CONTINUOUS
10
3.53066
20
-2.69165
11
3.53074
21
-2.6915
0
LINE
8
BLACK
6
CONTINUOUS
10
3.53074
20
-2.6915
11
3.53073
21
-2.69133
0
LINE
8
BLACK
6
CONTINUOUS
10
3.53073
20
-2.69133
11
3.53124
21
-2.69064
0
LINE
8
BLACK
6
CONTINUOUS
10
3.53124
20
-2.69064
11
3.53167
21
-2.6899
0
LINE
8
BLACK
6
CONTINUOUS
10
3.53167
20
-2.6899
11
3.53183
21
-2.68984
0
LINE
8
BLACK
6
CONTINUOUS
10
3.53183
20
-2.68984
11
3.53193
21
-2.68971
0
LINE
8
BLACK
6
CONTINUOUS
10
3.53193
20
-2.68971
11
3.53731
21
-2.68612
0
LINE
8
BLACK
6
CONTINUOUS
10
3.53731
20
-2.68612
11
3.54051
21
-2.68292
0
LINE
8
BLACK
6
CONTINUOUS
10
3.54051
20
-2.68292
11
3.54218
21
-2.67959
0
LINE
8
BLACK
6
CONTINUOUS
10
3.54218
20
-2.67959
11
3.54279
21
-2.67877
0
LINE
8
BLACK
6
CONTINUOUS
10
3.54279
20
-2.67877
11
3.54464
21
-2.67797
0
LINE
8
BLACK
6
CONTINUOUS
10
3.54464
20
-2.67797
11
3.54658
21
-2.67854
0
LINE
8
BLACK
6
CONTINUOUS
10
3.27967
20
-2.69774
11
3.28036
21
-2.69941
0
LINE
8
BLACK
6
CONTINUOUS
10
3.28036
20
-2.69941
11
3.27967
21
-2.70108
0
LINE
8
BLACK
6
CONTINUOUS
10
3.27967
20
-2.70108
11
3.278
21
-2.70177
0
LINE
8
BLACK
6
CONTINUOUS
10
3.278
20
-2.70177
11
3.25743
21
-2.70177
0
LINE
8
BLACK
6
CONTINUOUS
10
3.25743
20
-2.70177
11
3.25576
21
-2.70108
0
LINE
8
BLACK
6
CONTINUOUS
10
3.25576
20
-2.70108
11
3.25507
21
-2.69941
0
LINE
8
BLACK
6
CONTINUOUS
10
3.25507
20
-2.69941
11
3.25576
21
-2.69774
0
LINE
8
BLACK
6
CONTINUOUS
10
3.25576
20
-2.69774
11
3.25743
21
-2.69705
0
LINE
8
BLACK
6
CONTINUOUS
10
3.25743
20
-2.69705
11
3.278
21
-2.69705
0
LINE
8
BLACK
6
CONTINUOUS
10
3.278
20
-2.69705
11
3.27967
21
-2.69774
0
LINE
8
BLACK
6
CONTINUOUS
10
3.53917
20
-2.67199
11
3.5399
21
-2.67376
0
LINE
8
BLACK
6
CONTINUOUS
10
3.5399
20
-2.67376
11
3.53917
21
-2.67553
0
LINE
8
BLACK
6
CONTINUOUS
10
3.53917
20
-2.67553
11
3.5374
21
-2.67626
0
LINE
8
BLACK
6
CONTINUOUS
10
3.5374
20
-2.67626
11
3.41142
21
-2.67626
0
LINE
8
BLACK
6
CONTINUOUS
10
3.41142
20
-2.67626
11
3.40965
21
-2.67553
0
LINE
8
BLACK
6
CONTINUOUS
10
3.40965
20
-2.67553
11
3.40892
21
-2.67376
0
LINE
8
BLACK
6
CONTINUOUS
10
3.40892
20
-2.67376
11
3.40965
21
-2.67199
0
LINE
8
BLACK
6
CONTINUOUS
10
3.40965
20
-2.67199
11
3.41142
21
-2.67126
0
LINE
8
BLACK
6
CONTINUOUS
10
3.41142
20
-2.67126
11
3.5374
21
-2.67126
0
LINE
8
BLACK
6
CONTINUOUS
10
3.5374
20
-2.67126
11
3.53917
21
-2.67199
0
LINE
8
BLACK
6
CONTINUOUS
10
3.5752
20
-2.64715
11
3.57589
21
-2.64904
0
LINE
8
BLACK
6
CONTINUOUS
10
3.57589
20
-2.64904
11
3.57589
21
-2.65279
0
LINE
8
BLACK
6
CONTINUOUS
10
3.57589
20
-2.65279
11
3.57574
21
-2.65366
0
LINE
8
BLACK
6
CONTINUOUS
10
3.57574
20
-2.65366
11
3.57574
21
-2.65373
0
LINE
8
BLACK
6
CONTINUOUS
10
3.57574
20
-2.65373
11
3.57386
21
-2.65935
0
LINE
8
BLACK
6
CONTINUOUS
10
3.57386
20
-2.65935
11
3.57338
21
-2.66025
0
LINE
8
BLACK
6
CONTINUOUS
10
3.57338
20
-2.66025
11
3.57323
21
-2.66035
0
LINE
8
BLACK
6
CONTINUOUS
10
3.57323
20
-2.66035
11
3.57315
21
-2.66051
0
LINE
8
BLACK
6
CONTINUOUS
10
3.57315
20
-2.66051
11
3.5694
21
-2.66426
0
LINE
8
BLACK
6
CONTINUOUS
10
3.5694
20
-2.66426
11
3.56856
21
-2.66484
0
LINE
8
BLACK
6
CONTINUOUS
10
3.56856
20
-2.66484
11
3.56839
21
-2.66486
0
LINE
8
BLACK
6
CONTINUOUS
10
3.56839
20
-2.66486
11
3.56825
21
-2.66497
0
LINE
8
BLACK
6
CONTINUOUS
10
3.56825
20
-2.66497
11
3.56262
21
-2.66684
0
LINE
8
BLACK
6
CONTINUOUS
10
3.56262
20
-2.66684
11
3.56175
21
-2.66697
0
LINE
8
BLACK
6
CONTINUOUS
10
3.56175
20
-2.66697
11
3.56169
21
-2.66699
0
LINE
8
BLACK
6
CONTINUOUS
10
3.56169
20
-2.66699
11
3.53357
21
-2.66699
0
LINE
8
BLACK
6
CONTINUOUS
10
3.53357
20
-2.66699
11
3.53256
21
-2.66682
0
LINE
8
BLACK
6
CONTINUOUS
10
3.53256
20
-2.66682
11
3.53101
21
-2.66552
0
LINE
8
BLACK
6
CONTINUOUS
10
3.53101
20
-2.66552
11
3.53066
21
-2.66353
0
LINE
8
BLACK
6
CONTINUOUS
10
3.53066
20
-2.66353
11
3.53167
21
-2.66178
0
LINE
8
BLACK
6
CONTINUOUS
10
3.53167
20
-2.66178
11
3.53357
21
-2.66109
0
LINE
8
BLACK
6
CONTINUOUS
10
3.53357
20
-2.66109
11
3.56121
21
-2.66109
0
LINE
8
BLACK
6
CONTINUOUS
10
3.56121
20
-2.66109
11
3.56572
21
-2.65959
0
LINE
8
BLACK
6
CONTINUOUS
10
3.56572
20
-2.65959
11
3.56848
21
-2.65682
0
LINE
8
BLACK
6
CONTINUOUS
10
3.56848
20
-2.65682
11
3.56998
21
-2.65231
0
LINE
8
BLACK
6
CONTINUOUS
10
3.56998
20
-2.65231
11
3.56998
21
-2.64904
0
LINE
8
BLACK
6
CONTINUOUS
10
3.56998
20
-2.64904
11
3.57016
21
-2.64803
0
LINE
8
BLACK
6
CONTINUOUS
10
3.57016
20
-2.64803
11
3.57146
21
-2.64649
0
LINE
8
BLACK
6
CONTINUOUS
10
3.57146
20
-2.64649
11
3.57345
21
-2.64614
0
LINE
8
BLACK
6
CONTINUOUS
10
3.57345
20
-2.64614
11
3.5752
21
-2.64715
0
LINE
8
BLACK
6
CONTINUOUS
10
3.47488
20
-2.51145
11
3.47505
21
-2.51144
0
LINE
8
BLACK
6
CONTINUOUS
10
3.47505
20
-2.51144
11
3.47574
21
-2.51195
0
LINE
8
BLACK
6
CONTINUOUS
10
3.47574
20
-2.51195
11
3.47648
21
-2.51238
0
LINE
8
BLACK
6
CONTINUOUS
10
3.47648
20
-2.51238
11
3.47654
21
-2.51254
0
LINE
8
BLACK
6
CONTINUOUS
10
3.47654
20
-2.51254
11
3.47668
21
-2.51264
0
LINE
8
BLACK
6
CONTINUOUS
10
3.47668
20
-2.51264
11
3.48027
21
-2.51802
0
LINE
8
BLACK
6
CONTINUOUS
10
3.48027
20
-2.51802
11
3.48347
21
-2.52122
0
LINE
8
BLACK
6
CONTINUOUS
10
3.48347
20
-2.52122
11
3.48679
21
-2.52288
0
LINE
8
BLACK
6
CONTINUOUS
10
3.48679
20
-2.52288
11
3.48761
21
-2.52349
0
LINE
8
BLACK
6
CONTINUOUS
10
3.48761
20
-2.52349
11
3.48842
21
-2.52535
0
LINE
8
BLACK
6
CONTINUOUS
10
3.48842
20
-2.52535
11
3.48784
21
-2.52728
0
LINE
8
BLACK
6
CONTINUOUS
10
3.48784
20
-2.52728
11
3.48616
21
-2.5284
0
LINE
8
BLACK
6
CONTINUOUS
10
3.48616
20
-2.5284
11
3.48415
21
-2.52817
0
LINE
8
BLACK
6
CONTINUOUS
10
3.48415
20
-2.52817
11
3.4804
21
-2.52629
0
LINE
8
BLACK
6
CONTINUOUS
10
3.4804
20
-2.52629
11
3.47969
21
-2.52577
0
LINE
8
BLACK
6
CONTINUOUS
10
3.47969
20
-2.52577
11
3.47963
21
-2.52574
0
LINE
8
BLACK
6
CONTINUOUS
10
3.47963
20
-2.52574
11
3.47717
21
-2.52328
0
LINE
8
BLACK
6
CONTINUOUS
10
3.47717
20
-2.52328
11
3.47717
21
-2.55069
0
LINE
8
BLACK
6
CONTINUOUS
10
3.47717
20
-2.55069
11
3.48547
21
-2.55069
0
LINE
8
BLACK
6
CONTINUOUS
10
3.48547
20
-2.55069
11
3.48648
21
-2.55087
0
LINE
8
BLACK
6
CONTINUOUS
10
3.48648
20
-2.55087
11
3.48803
21
-2.55217
0
LINE
8
BLACK
6
CONTINUOUS
10
3.48803
20
-2.55217
11
3.48838
21
-2.55416
0
LINE
8
BLACK
6
CONTINUOUS
10
3.48838
20
-2.55416
11
3.48737
21
-2.55591
0
LINE
8
BLACK
6
CONTINUOUS
10
3.48737
20
-2.55591
11
3.48547
21
-2.5566
0
LINE
8
BLACK
6
CONTINUOUS
10
3.48547
20
-2.5566
11
3.46297
21
-2.5566
0
LINE
8
BLACK
6
CONTINUOUS
10
3.46297
20
-2.5566
11
3.46196
21
-2.55642
0
LINE
8
BLACK
6
CONTINUOUS
10
3.46196
20
-2.55642
11
3.46042
21
-2.55512
0
LINE
8
BLACK
6
CONTINUOUS
10
3.46042
20
-2.55512
11
3.46007
21
-2.55313
0
LINE
8
BLACK
6
CONTINUOUS
10
3.46007
20
-2.55313
11
3.46108
21
-2.55138
0
LINE
8
BLACK
6
CONTINUOUS
10
3.46108
20
-2.55138
11
3.46297
21
-2.55069
0
LINE
8
BLACK
6
CONTINUOUS
10
3.46297
20
-2.55069
11
3.47127
21
-2.55069
0
LINE
8
BLACK
6
CONTINUOUS
10
3.47127
20
-2.55069
11
3.47127
21
-2.51428
0
LINE
8
BLACK
6
CONTINUOUS
10
3.47127
20
-2.51428
11
3.47145
21
-2.51327
0
LINE
8
BLACK
6
CONTINUOUS
10
3.47145
20
-2.51327
11
3.47156
21
-2.51314
0
LINE
8
BLACK
6
CONTINUOUS
10
3.47156
20
-2.51314
11
3.47158
21
-2.51297
0
LINE
8
BLACK
6
CONTINUOUS
10
3.47158
20
-2.51297
11
3.47219
21
-2.51238
0
LINE
8
BLACK
6
CONTINUOUS
10
3.47219
20
-2.51238
11
3.47275
21
-2.51172
0
LINE
8
BLACK
6
CONTINUOUS
10
3.47275
20
-2.51172
11
3.47291
21
-2.51169
0
LINE
8
BLACK
6
CONTINUOUS
10
3.47291
20
-2.51169
11
3.47304
21
-2.51157
0
LINE
8
BLACK
6
CONTINUOUS
10
3.47304
20
-2.51157
11
3.47389
21
-2.51152
0
LINE
8
BLACK
6
CONTINUOUS
10
3.47389
20
-2.51152
11
3.47473
21
-2.51137
0
LINE
8
BLACK
6
CONTINUOUS
10
3.47473
20
-2.51137
11
3.47488
21
-2.51145
0
LINE
8
BLACK
6
CONTINUOUS
10
3.51773
20
-2.51238
11
3.51842
21
-2.51428
0
LINE
8
BLACK
6
CONTINUOUS
10
3.51842
20
-2.51428
11
3.51842
21
-2.55365
0
LINE
8
BLACK
6
CONTINUOUS
10
3.51842
20
-2.55365
11
3.51835
21
-2.55403
0
LINE
8
BLACK
6
CONTINUOUS
10
3.51835
20
-2.55403
11
3.51837
21
-2.55416
0
LINE
8
BLACK
6
CONTINUOUS
10
3.51837
20
-2.55416
11
3.51831
21
-2.55427
0
LINE
8
BLACK
6
CONTINUOUS
10
3.51831
20
-2.55427
11
3.51824
21
-2.55466
0
LINE
8
BLACK
6
CONTINUOUS
10
3.51824
20
-2.55466
11
3.51775
21
-2.55524
0
LINE
8
BLACK
6
CONTINUOUS
10
3.51775
20
-2.55524
11
3.51736
21
-2.55591
0
LINE
8
BLACK
6
CONTINUOUS
10
3.51736
20
-2.55591
11
3.51711
21
-2.556
0
LINE
8
BLACK
6
CONTINUOUS
10
3.51711
20
-2.556
11
3.51694
21
-2.5562
0
LINE
8
BLACK
6
CONTINUOUS
10
3.51694
20
-2.5562
11
3.51619
21
-2.55634
0
LINE
8
BLACK
6
CONTINUOUS
10
3.51619
20
-2.55634
11
3.51547
21
-2.5566
0
LINE
8
BLACK
6
CONTINUOUS
10
3.51547
20
-2.5566
11
3.49672
21
-2.5566
0
LINE
8
BLACK
6
CONTINUOUS
10
3.49672
20
-2.5566
11
3.49571
21
-2.55642
0
LINE
8
BLACK
6
CONTINUOUS
10
3.49571
20
-2.55642
11
3.49416
21
-2.55512
0
LINE
8
BLACK
6
CONTINUOUS
10
3.49416
20
-2.55512
11
3.49381
21
-2.55313
0
LINE
8
BLACK
6
CONTINUOUS
10
3.49381
20
-2.55313
11
3.49482
21
-2.55138
0
LINE
8
BLACK
6
CONTINUOUS
10
3.49482
20
-2.55138
11
3.49672
21
-2.55069
0
LINE
8
BLACK
6
CONTINUOUS
10
3.49672
20
-2.55069
11
3.51251
21
-2.55069
0
LINE
8
BLACK
6
CONTINUOUS
10
3.51251
20
-2.55069
11
3.51251
21
-2.51428
0
LINE
8
BLACK
6
CONTINUOUS
10
3.51251
20
-2.51428
11
3.51269
21
-2.51327
0
LINE
8
BLACK
6
CONTINUOUS
10
3.51269
20
-2.51327
11
3.51399
21
-2.51172
0
LINE
8
BLACK
6
CONTINUOUS
10
3.51399
20
-2.51172
11
3.51598
21
-2.51137
0
LINE
8
BLACK
6
CONTINUOUS
10
3.51598
20
-2.51137
11
3.51773
21
-2.51238
0
LINE
8
BLACK
6
CONTINUOUS
10
3.59908
20
-2.39531
11
3.59925
21
-2.3953
0
LINE
8
BLACK
6
CONTINUOUS
10
3.59925
20
-2.3953
11
3.59994
21
-2.39581
0
LINE
8
BLACK
6
CONTINUOUS
10
3.59994
20
-2.39581
11
3.60069
21
-2.39624
0
LINE
8
BLACK
6
CONTINUOUS
10
3.60069
20
-2.39624
11
3.60075
21
-2.3964
0
LINE
8
BLACK
6
CONTINUOUS
10
3.60075
20
-2.3964
11
3.60088
21
-2.3965
0
LINE
8
BLACK
6
CONTINUOUS
10
3.60088
20
-2.3965
11
3.60447
21
-2.40188
0
LINE
8
BLACK
6
CONTINUOUS
10
3.60447
20
-2.40188
11
3.60767
21
-2.40508
0
LINE
8
BLACK
6
CONTINUOUS
10
3.60767
20
-2.40508
11
3.61099
21
-2.40674
0
LINE
8
BLACK
6
CONTINUOUS
10
3.61099
20
-2.40674
11
3.61182
21
-2.40735
0
LINE
8
BLACK
6
CONTINUOUS
10
3.61182
20
-2.40735
11
3.61262
21
-2.40921
0
LINE
8
BLACK
6
CONTINUOUS
10
3.61262
20
-2.40921
11
3.61205
21
-2.41114
0
LINE
8
BLACK
6
CONTINUOUS
10
3.61205
20
-2.41114
11
3.61036
21
-2.41226
0
LINE
8
BLACK
6
CONTINUOUS
10
3.61036
20
-2.41226
11
3.60835
21
-2.41202
0
LINE
8
BLACK
6
CONTINUOUS
10
3.60835
20
-2.41202
11
3.6046
21
-2.41015
0
LINE
8
BLACK
6
CONTINUOUS
10
3.6046
20
-2.41015
11
3.60389
21
-2.40962
0
LINE
8
BLACK
6
CONTINUOUS
10
3.60389
20
-2.40962
11
3.60384
21
-2.4096
0
LINE
8
BLACK
6
CONTINUOUS
10
3.60384
20
-2.4096
11
3.60138
21
-2.40714
0
LINE
8
BLACK
6
CONTINUOUS
10
3.60138
20
-2.40714
11
3.60138
21
-2.43455
0
LINE
8
BLACK
6
CONTINUOUS
10
3.60138
20
-2.43455
11
3.60967
21
-2.43455
0
LINE
8
BLACK
6
CONTINUOUS
10
3.60967
20
-2.43455
11
3.61068
21
-2.43473
0
LINE
8
BLACK
6
CONTINUOUS
10
3.61068
20
-2.43473
11
3.61223
21
-2.43603
0
LINE
8
BLACK
6
CONTINUOUS
10
3.61223
20
-2.43603
11
3.61258
21
-2.43802
0
LINE
8
BLACK
6
CONTINUOUS
10
3.61258
20
-2.43802
11
3.61157
21
-2.43977
0
LINE
8
BLACK
6
CONTINUOUS
10
3.61157
20
-2.43977
11
3.60967
21
-2.44046
0
LINE
8
BLACK
6
CONTINUOUS
10
3.60967
20
-2.44046
11
3.58718
21
-2.44046
0
LINE
8
BLACK
6
CONTINUOUS
10
3.58718
20
-2.44046
11
3.58617
21
-2.44028
0
LINE
8
BLACK
6
CONTINUOUS
10
3.58617
20
-2.44028
11
3.58462
21
-2.43898
0
LINE
8
BLACK
6
CONTINUOUS
10
3.58462
20
-2.43898
11
3.58427
21
-2.43699
0
LINE
8
BLACK
6
CONTINUOUS
10
3.58427
20
-2.43699
11
3.58528
21
-2.43524
0
LINE
8
BLACK
6
CONTINUOUS
10
3.58528
20
-2.43524
11
3.58718
21
-2.43455
0
LINE
8
BLACK
6
CONTINUOUS
10
3.58718
20
-2.43455
11
3.59547
21
-2.43455
0
LINE
8
BLACK
6
CONTINUOUS
10
3.59547
20
-2.43455
11
3.59547
21
-2.39813
0
LINE
8
BLACK
6
CONTINUOUS
10
3.59547
20
-2.39813
11
3.59565
21
-2.39712
0
LINE
8
BLACK
6
CONTINUOUS
10
3.59565
20
-2.39712
11
3.59576
21
-2.39699
0
LINE
8
BLACK
6
CONTINUOUS
10
3.59576
20
-2.39699
11
3.59578
21
-2.39683
0
LINE
8
BLACK
6
CONTINUOUS
10
3.59578
20
-2.39683
11
3.5964
21
-2.39623
0
LINE
8
BLACK
6
CONTINUOUS
10
3.5964
20
-2.39623
11
3.59695
21
-2.39558
0
LINE
8
BLACK
6
CONTINUOUS
10
3.59695
20
-2.39558
11
3.59712
21
-2.39555
0
LINE
8
BLACK
6
CONTINUOUS
10
3.59712
20
-2.39555
11
3.59724
21
-2.39543
0
LINE
8
BLACK
6
CONTINUOUS
10
3.59724
20
-2.39543
11
3.59809
21
-2.39538
0
LINE
8
BLACK
6
CONTINUOUS
10
3.59809
20
-2.39538
11
3.59894
21
-2.39523
0
LINE
8
BLACK
6
CONTINUOUS
10
3.59894
20
-2.39523
11
3.59908
21
-2.39531
0
LINE
8
BLACK
6
CONTINUOUS
10
3.63679
20
-2.39534
11
3.63685
21
-2.39533
0
LINE
8
BLACK
6
CONTINUOUS
10
3.63685
20
-2.39533
11
3.64248
21
-2.39721
0
LINE
8
BLACK
6
CONTINUOUS
10
3.64248
20
-2.39721
11
3.64338
21
-2.3977
0
LINE
8
BLACK
6
CONTINUOUS
10
3.64338
20
-2.3977
11
3.64347
21
-2.39785
0
LINE
8
BLACK
6
CONTINUOUS
10
3.64347
20
-2.39785
11
3.64363
21
-2.39792
0
LINE
8
BLACK
6
CONTINUOUS
10
3.64363
20
-2.39792
11
3.64738
21
-2.40167
0
LINE
8
BLACK
6
CONTINUOUS
10
3.64738
20
-2.40167
11
3.64789
21
-2.40239
0
LINE
8
BLACK
6
CONTINUOUS
10
3.64789
20
-2.40239
11
3.64794
21
-2.40244
0
LINE
8
BLACK
6
CONTINUOUS
10
3.64794
20
-2.40244
11
3.64981
21
-2.40619
0
LINE
8
BLACK
6
CONTINUOUS
10
3.64981
20
-2.40619
11
3.64996
21
-2.40668
0
LINE
8
BLACK
6
CONTINUOUS
10
3.64996
20
-2.40668
11
3.65003
21
-2.40679
0
LINE
8
BLACK
6
CONTINUOUS
10
3.65003
20
-2.40679
11
3.65191
21
-2.41429
0
LINE
8
BLACK
6
CONTINUOUS
10
3.65191
20
-2.41429
11
3.65195
21
-2.41488
0
LINE
8
BLACK
6
CONTINUOUS
10
3.65195
20
-2.41488
11
3.652
21
-2.41501
0
LINE
8
BLACK
6
CONTINUOUS
10
3.652
20
-2.41501
11
3.652
21
-2.42063
0
LINE
8
BLACK
6
CONTINUOUS
10
3.652
20
-2.42063
11
3.65189
21
-2.42121
0
LINE
8
BLACK
6
CONTINUOUS
10
3.65189
20
-2.42121
11
3.65191
21
-2.42135
0
LINE
8
BLACK
6
CONTINUOUS
10
3.65191
20
-2.42135
11
3.65003
21
-2.42885
0
LINE
8
BLACK
6
CONTINUOUS
10
3.65003
20
-2.42885
11
3.64983
21
-2.42931
0
LINE
8
BLACK
6
CONTINUOUS
10
3.64983
20
-2.42931
11
3.64981
21
-2.42945
0
LINE
8
BLACK
6
CONTINUOUS
10
3.64981
20
-2.42945
11
3.64794
21
-2.4332
0
LINE
8
BLACK
6
CONTINUOUS
10
3.64794
20
-2.4332
11
3.64741
21
-2.43391
0
LINE
8
BLACK
6
CONTINUOUS
10
3.64741
20
-2.43391
11
3.64738
21
-2.43397
0
LINE
8
BLACK
6
CONTINUOUS
10
3.64738
20
-2.43397
11
3.64363
21
-2.43772
0
LINE
8
BLACK
6
CONTINUOUS
10
3.64363
20
-2.43772
11
3.64279
21
-2.43831
0
LINE
8
BLACK
6
CONTINUOUS
10
3.64279
20
-2.43831
11
3.64262
21
-2.43832
0
LINE
8
BLACK
6
CONTINUOUS
10
3.64262
20
-2.43832
11
3.64248
21
-2.43843
0
LINE
8
BLACK
6
CONTINUOUS
10
3.64248
20
-2.43843
11
3.63685
21
-2.44031
0
LINE
8
BLACK
6
CONTINUOUS
10
3.63685
20
-2.44031
11
3.63598
21
-2.44044
0
LINE
8
BLACK
6
CONTINUOUS
10
3.63598
20
-2.44044
11
3.63592
21
-2.44046
0
LINE
8
BLACK
6
CONTINUOUS
10
3.63592
20
-2.44046
11
3.63217
21
-2.44046
0
LINE
8
BLACK
6
CONTINUOUS
10
3.63217
20
-2.44046
11
3.6313
21
-2.4403
0
LINE
8
BLACK
6
CONTINUOUS
10
3.6313
20
-2.4403
11
3.63124
21
-2.44031
0
LINE
8
BLACK
6
CONTINUOUS
10
3.63124
20
-2.44031
11
3.62561
21
-2.43843
0
LINE
8
BLACK
6
CONTINUOUS
10
3.62561
20
-2.43843
11
3.62471
21
-2.43794
0
LINE
8
BLACK
6
CONTINUOUS
10
3.62471
20
-2.43794
11
3.62462
21
-2.43779
0
LINE
8
BLACK
6
CONTINUOUS
10
3.62462
20
-2.43779
11
3.62446
21
-2.43772
0
LINE
8
BLACK
6
CONTINUOUS
10
3.62446
20
-2.43772
11
3.62258
21
-2.43584
0
LINE
8
BLACK
6
CONTINUOUS
10
3.62258
20
-2.43584
11
3.622
21
-2.435
0
LINE
8
BLACK
6
CONTINUOUS
10
3.622
20
-2.435
11
3.62182
21
-2.43299
0
LINE
8
BLACK
6
CONTINUOUS
10
3.62182
20
-2.43299
11
3.62298
21
-2.43134
0
LINE
8
BLACK
6
CONTINUOUS
10
3.62298
20
-2.43134
11
3.62493
21
-2.43081
0
LINE
8
BLACK
6
CONTINUOUS
10
3.62493
20
-2.43081
11
3.62676
21
-2.43167
0
LINE
8
BLACK
6
CONTINUOUS
10
3.62676
20
-2.43167
11
3.62814
21
-2.43305
0
LINE
8
BLACK
6
CONTINUOUS
10
3.62814
20
-2.43305
11
3.63265
21
-2.43455
0
LINE
8
BLACK
6
CONTINUOUS
10
3.63265
20
-2.43455
11
3.63544
21
-2.43455
0
LINE
8
BLACK
6
CONTINUOUS
10
3.63544
20
-2.43455
11
3.63995
21
-2.43305
0
LINE
8
BLACK
6
CONTINUOUS
10
3.63995
20
-2.43305
11
3.64287
21
-2.43013
0
LINE
8
BLACK
6
CONTINUOUS
10
3.64287
20
-2.43013
11
3.64438
21
-2.4271
0
LINE
8
BLACK
6
CONTINUOUS
10
3.64438
20
-2.4271
11
3.64609
21
-2.42027
0
LINE
8
BLACK
6
CONTINUOUS
10
3.64609
20
-2.42027
11
3.64609
21
-2.41537
0
LINE
8
BLACK
6
CONTINUOUS
10
3.64609
20
-2.41537
11
3.64438
21
-2.40854
0
LINE
8
BLACK
6
CONTINUOUS
10
3.64438
20
-2.40854
11
3.64287
21
-2.40551
0
LINE
8
BLACK
6
CONTINUOUS
10
3.64287
20
-2.40551
11
3.63995
21
-2.40259
0
LINE
8
BLACK
6
CONTINUOUS
10
3.63995
20
-2.40259
11
3.63544
21
-2.40109
0
LINE
8
BLACK
6
CONTINUOUS
10
3.63544
20
-2.40109
11
3.63265
21
-2.40109
0
LINE
8
BLACK
6
CONTINUOUS
10
3.63265
20
-2.40109
11
3.62814
21
-2.40259
0
LINE
8
BLACK
6
CONTINUOUS
10
3.62814
20
-2.40259
11
3.62676
21
-2.40397
0
LINE
8
BLACK
6
CONTINUOUS
10
3.62676
20
-2.40397
11
3.62592
21
-2.40456
0
LINE
8
BLACK
6
CONTINUOUS
10
3.62592
20
-2.40456
11
3.62391
21
-2.40474
0
LINE
8
BLACK
6
CONTINUOUS
10
3.62391
20
-2.40474
11
3.62225
21
-2.40358
0
LINE
8
BLACK
6
CONTINUOUS
10
3.62225
20
-2.40358
11
3.62173
21
-2.40163
0
LINE
8
BLACK
6
CONTINUOUS
10
3.62173
20
-2.40163
11
3.62258
21
-2.3998
0
LINE
8
BLACK
6
CONTINUOUS
10
3.62258
20
-2.3998
11
3.62446
21
-2.39792
0
LINE
8
BLACK
6
CONTINUOUS
10
3.62446
20
-2.39792
11
3.6253
21
-2.39733
0
LINE
8
BLACK
6
CONTINUOUS
10
3.6253
20
-2.39733
11
3.62547
21
-2.39732
0
LINE
8
BLACK
6
CONTINUOUS
10
3.62547
20
-2.39732
11
3.62561
21
-2.39721
0
LINE
8
BLACK
6
CONTINUOUS
10
3.62561
20
-2.39721
11
3.63124
21
-2.39533
0
LINE
8
BLACK
6
CONTINUOUS
10
3.63124
20
-2.39533
11
3.63211
21
-2.3952
0
LINE
8
BLACK
6
CONTINUOUS
10
3.63211
20
-2.3952
11
3.63217
21
-2.39518
0
LINE
8
BLACK
6
CONTINUOUS
10
3.63217
20
-2.39518
11
3.63592
21
-2.39518
0
LINE
8
BLACK
6
CONTINUOUS
10
3.63592
20
-2.39518
11
3.63679
21
-2.39534
0
LINE
8
BLACK
6
CONTINUOUS
10
3.64778
20
-2.38061
11
3.64847
21
-2.38228
0
LINE
8
BLACK
6
CONTINUOUS
10
3.64847
20
-2.38228
11
3.64778
21
-2.38395
0
LINE
8
BLACK
6
CONTINUOUS
10
3.64778
20
-2.38395
11
3.64611
21
-2.38465
0
LINE
8
BLACK
6
CONTINUOUS
10
3.64611
20
-2.38465
11
3.59011
21
-2.38465
0
LINE
8
BLACK
6
CONTINUOUS
10
3.59011
20
-2.38465
11
3.58844
21
-2.38395
0
LINE
8
BLACK
6
CONTINUOUS
10
3.58844
20
-2.38395
11
3.58775
21
-2.38228
0
LINE
8
BLACK
6
CONTINUOUS
10
3.58775
20
-2.38228
11
3.58844
21
-2.38061
0
LINE
8
BLACK
6
CONTINUOUS
10
3.58844
20
-2.38061
11
3.59011
21
-2.37992
0
LINE
8
BLACK
6
CONTINUOUS
10
3.59011
20
-2.37992
11
3.64611
21
-2.37992
0
LINE
8
BLACK
6
CONTINUOUS
10
3.64611
20
-2.37992
11
3.64778
21
-2.38061
0
LINE
8
BLACK
6
CONTINUOUS
10
3.64778
20
-2.30896
11
3.64847
21
-2.31063
0
LINE
8
BLACK
6
CONTINUOUS
10
3.64847
20
-2.31063
11
3.64778
21
-2.3123
0
LINE
8
BLACK
6
CONTINUOUS
10
3.64778
20
-2.3123
11
3.64611
21
-2.31299
0
LINE
8
BLACK
6
CONTINUOUS
10
3.64611
20
-2.31299
11
3.59011
21
-2.31299
0
LINE
8
BLACK
6
CONTINUOUS
10
3.59011
20
-2.31299
11
3.58844
21
-2.3123
0
LINE
8
BLACK
6
CONTINUOUS
10
3.58844
20
-2.3123
11
3.58775
21
-2.31063
0
LINE
8
BLACK
6
CONTINUOUS
10
3.58775
20
-2.31063
11
3.58844
21
-2.30896
0
LINE
8
BLACK
6
CONTINUOUS
10
3.58844
20
-2.30896
11
3.59011
21
-2.30827
0
LINE
8
BLACK
6
CONTINUOUS
10
3.59011
20
-2.30827
11
3.64611
21
-2.30827
0
LINE
8
BLACK
6
CONTINUOUS
10
3.64611
20
-2.30827
11
3.64778
21
-2.30896
0
LINE
8
BLACK
6
CONTINUOUS
10
3.80309
20
-2.2675
11
3.80323
21
-2.26749
0
LINE
8
BLACK
6
CONTINUOUS
10
3.80323
20
-2.26749
11
3.80396
21
-2.268
0
LINE
8
BLACK
6
CONTINUOUS
10
3.80396
20
-2.268
11
3.80473
21
-2.26844
0
LINE
8
BLACK
6
CONTINUOUS
10
3.80473
20
-2.26844
11
3.80477
21
-2.26857
0
LINE
8
BLACK
6
CONTINUOUS
10
3.80477
20
-2.26857
11
3.80488
21
-2.26865
0
LINE
8
BLACK
6
CONTINUOUS
10
3.80488
20
-2.26865
11
3.80511
21
-2.26951
0
LINE
8
BLACK
6
CONTINUOUS
10
3.80511
20
-2.26951
11
3.80542
21
-2.27034
0
LINE
8
BLACK
6
CONTINUOUS
10
3.80542
20
-2.27034
11
3.80542
21
-2.29471
0
LINE
8
BLACK
6
CONTINUOUS
10
3.80542
20
-2.29471
11
3.80524
21
-2.29572
0
LINE
8
BLACK
6
CONTINUOUS
10
3.80524
20
-2.29572
11
3.80394
21
-2.29727
0
LINE
8
BLACK
6
CONTINUOUS
10
3.80394
20
-2.29727
11
3.80195
21
-2.29762
0
LINE
8
BLACK
6
CONTINUOUS
10
3.80195
20
-2.29762
11
3.8002
21
-2.29661
0
LINE
8
BLACK
6
CONTINUOUS
10
3.8002
20
-2.29661
11
3.79951
21
-2.29471
0
LINE
8
BLACK
6
CONTINUOUS
10
3.79951
20
-2.29471
11
3.79951
21
-2.27747
0
LINE
8
BLACK
6
CONTINUOUS
10
3.79951
20
-2.27747
11
3.78206
21
-2.29493
0
LINE
8
BLACK
6
CONTINUOUS
10
3.78206
20
-2.29493
11
3.78122
21
-2.29551
0
LINE
8
BLACK
6
CONTINUOUS
10
3.78122
20
-2.29551
11
3.78104
21
-2.29553
0
LINE
8
BLACK
6
CONTINUOUS
10
3.78104
20
-2.29553
11
3.7809
21
-2.29564
0
LINE
8
BLACK
6
CONTINUOUS
10
3.7809
20
-2.29564
11
3.77528
21
-2.29751
0
LINE
8
BLACK
6
CONTINUOUS
10
3.77528
20
-2.29751
11
3.7744
21
-2.29764
0
LINE
8
BLACK
6
CONTINUOUS
10
3.7744
20
-2.29764
11
3.77434
21
-2.29767
0
LINE
8
BLACK
6
CONTINUOUS
10
3.77434
20
-2.29767
11
3.77059
21
-2.29767
0
LINE
8
BLACK
6
CONTINUOUS
10
3.77059
20
-2.29767
11
3.76958
21
-2.29749
0
LINE
8
BLACK
6
CONTINUOUS
10
3.76958
20
-2.29749
11
3.76945
21
-2.29737
0
LINE
8
BLACK
6
CONTINUOUS
10
3.76945
20
-2.29737
11
3.76927
21
-2.29735
0
LINE
8
BLACK
6
CONTINUOUS
10
3.76927
20
-2.29735
11
3.76552
21
-2.29548
0
LINE
8
BLACK
6
CONTINUOUS
10
3.76552
20
-2.29548
11
3.76482
21
-2.29495
0
LINE
8
BLACK
6
CONTINUOUS
10
3.76482
20
-2.29495
11
3.76476
21
-2.29493
0
LINE
8
BLACK
6
CONTINUOUS
10
3.76476
20
-2.29493
11
3.76288
21
-2.29305
0
LINE
8
BLACK
6
CONTINUOUS
10
3.76288
20
-2.29305
11
3.76238
21
-2.29233
0
LINE
8
BLACK
6
CONTINUOUS
10
3.76238
20
-2.29233
11
3.76233
21
-2.29228
0
LINE
8
BLACK
6
CONTINUOUS
10
3.76233
20
-2.29228
11
3.76045
21
-2.28853
0
LINE
8
BLACK
6
CONTINUOUS
10
3.76045
20
-2.28853
11
3.76016
21
-2.28755
0
LINE
8
BLACK
6
CONTINUOUS
10
3.76016
20
-2.28755
11
3.7602
21
-2.28738
0
LINE
8
BLACK
6
CONTINUOUS
10
3.7602
20
-2.28738
11
3.76014
21
-2.28721
0
LINE
8
BLACK
6
CONTINUOUS
10
3.76014
20
-2.28721
11
3.76014
21
-2.27784
0
LINE
8
BLACK
6
CONTINUOUS
10
3.76014
20
-2.27784
11
3.76032
21
-2.27683
0
LINE
8
BLACK
6
CONTINUOUS
10
3.76032
20
-2.27683
11
3.76043
21
-2.2767
0
LINE
8
BLACK
6
CONTINUOUS
10
3.76043
20
-2.2767
11
3.76045
21
-2.27652
0
LINE
8
BLACK
6
CONTINUOUS
10
3.76045
20
-2.27652
11
3.76233
21
-2.27277
0
LINE
8
BLACK
6
CONTINUOUS
10
3.76233
20
-2.27277
11
3.76285
21
-2.27206
0
LINE
8
BLACK
6
CONTINUOUS
10
3.76285
20
-2.27206
11
3.76288
21
-2.272
0
LINE
8
BLACK
6
CONTINUOUS
10
3.76288
20
-2.272
11
3.76476
21
-2.27013
0
LINE
8
BLACK
6
CONTINUOUS
10
3.76476
20
-2.27013
11
3.7656
21
-2.26954
0
LINE
8
BLACK
6
CONTINUOUS
10
3.7656
20
-2.26954
11
3.76761
21
-2.26936
0
LINE
8
BLACK
6
CONTINUOUS
10
3.76761
20
-2.26936
11
3.76926
21
-2.27052
0
LINE
8
BLACK
6
CONTINUOUS
10
3.76926
20
-2.27052
11
3.76979
21
-2.27247
0
LINE
8
BLACK
6
CONTINUOUS
10
3.76979
20
-2.27247
11
3.76893
21
-2.2743
0
LINE
8
BLACK
6
CONTINUOUS
10
3.76893
20
-2.2743
11
3.7674
21
-2.27584
0
LINE
8
BLACK
6
CONTINUOUS
10
3.7674
20
-2.27584
11
3.76605
21
-2.27854
0
LINE
8
BLACK
6
CONTINUOUS
10
3.76605
20
-2.27854
11
3.76605
21
-2.28652
0
LINE
8
BLACK
6
CONTINUOUS
10
3.76605
20
-2.28652
11
3.7674
21
-2.28921
0
LINE
8
BLACK
6
CONTINUOUS
10
3.7674
20
-2.28921
11
3.76859
21
-2.29041
0
LINE
8
BLACK
6
CONTINUOUS
10
3.76859
20
-2.29041
11
3.77129
21
-2.29176
0
LINE
8
BLACK
6
CONTINUOUS
10
3.77129
20
-2.29176
11
3.77386
21
-2.29176
0
LINE
8
BLACK
6
CONTINUOUS
10
3.77386
20
-2.29176
11
3.77837
21
-2.29026
0
LINE
8
BLACK
6
CONTINUOUS
10
3.77837
20
-2.29026
11
3.80038
21
-2.26825
0
LINE
8
BLACK
6
CONTINUOUS
10
3.80038
20
-2.26825
11
3.80091
21
-2.26788
0
LINE
8
BLACK
6
CONTINUOUS
10
3.80091
20
-2.26788
11
3.80099
21
-2.26778
0
LINE
8
BLACK
6
CONTINUOUS
10
3.80099
20
-2.26778
11
3.80107
21
-2.26777
0
LINE
8
BLACK
6
CONTINUOUS
10
3.80107
20
-2.26777
11
3.80122
21
-2.26767
0
LINE
8
BLACK
6
CONTINUOUS
10
3.80122
20
-2.26767
11
3.8021
21
-2.26759
0
LINE
8
BLACK
6
CONTINUOUS
10
3.8021
20
-2.26759
11
3.80298
21
-2.26743
0
LINE
8
BLACK
6
CONTINUOUS
10
3.80298
20
-2.26743
11
3.80309
21
-2.2675
0
LINE
8
BLACK
6
CONTINUOUS
10
3.78617
20
-2.23
11
3.78631
21
-2.22998
0
LINE
8
BLACK
6
CONTINUOUS
10
3.78631
20
-2.22998
11
3.79381
21
-2.23186
0
LINE
8
BLACK
6
CONTINUOUS
10
3.79381
20
-2.23186
11
3.79427
21
-2.23206
0
LINE
8
BLACK
6
CONTINUOUS
10
3.79427
20
-2.23206
11
3.79441
21
-2.23208
0
LINE
8
BLACK
6
CONTINUOUS
10
3.79441
20
-2.23208
11
3.79816
21
-2.23395
0
LINE
8
BLACK
6
CONTINUOUS
10
3.79816
20
-2.23395
11
3.79887
21
-2.23448
0
LINE
8
BLACK
6
CONTINUOUS
10
3.79887
20
-2.23448
11
3.79893
21
-2.23451
0
LINE
8
BLACK
6
CONTINUOUS
10
3.79893
20
-2.23451
11
3.80268
21
-2.23826
0
LINE
8
BLACK
6
CONTINUOUS
10
3.80268
20
-2.23826
11
3.80327
21
-2.2391
0
LINE
8
BLACK
6
CONTINUOUS
10
3.80327
20
-2.2391
11
3.80328
21
-2.23927
0
LINE
8
BLACK
6
CONTINUOUS
10
3.80328
20
-2.23927
11
3.80339
21
-2.23941
0
LINE
8
BLACK
6
CONTINUOUS
10
3.80339
20
-2.23941
11
3.80527
21
-2.24504
0
LINE
8
BLACK
6
CONTINUOUS
10
3.80527
20
-2.24504
11
3.8054
21
-2.24591
0
LINE
8
BLACK
6
CONTINUOUS
10
3.8054
20
-2.24591
11
3.80542
21
-2.24597
0
LINE
8
BLACK
6
CONTINUOUS
10
3.80542
20
-2.24597
11
3.80542
21
-2.24972
0
LINE
8
BLACK
6
CONTINUOUS
10
3.80542
20
-2.24972
11
3.80526
21
-2.25059
0
LINE
8
BLACK
6
CONTINUOUS
10
3.80526
20
-2.25059
11
3.80527
21
-2.25065
0
LINE
8
BLACK
6
CONTINUOUS
10
3.80527
20
-2.25065
11
3.80339
21
-2.25628
0
LINE
8
BLACK
6
CONTINUOUS
10
3.80339
20
-2.25628
11
3.8029
21
-2.25718
0
LINE
8
BLACK
6
CONTINUOUS
10
3.8029
20
-2.25718
11
3.80275
21
-2.25727
0
LINE
8
BLACK
6
CONTINUOUS
10
3.80275
20
-2.25727
11
3.80268
21
-2.25743
0
LINE
8
BLACK
6
CONTINUOUS
10
3.80268
20
-2.25743
11
3.8008
21
-2.25931
0
LINE
8
BLACK
6
CONTINUOUS
10
3.8008
20
-2.25931
11
3.79996
21
-2.25989
0
LINE
8
BLACK
6
CONTINUOUS
10
3.79996
20
-2.25989
11
3.79795
21
-2.26007
0
LINE
8
BLACK
6
CONTINUOUS
10
3.79795
20
-2.26007
11
3.7963
21
-2.25891
0
LINE
8
BLACK
6
CONTINUOUS
10
3.7963
20
-2.25891
11
3.79577
21
-2.25696
0
LINE
8
BLACK
6
CONTINUOUS
10
3.79577
20
-2.25696
11
3.79663
21
-2.25513
0
LINE
8
BLACK
6
CONTINUOUS
10
3.79663
20
-2.25513
11
3.79801
21
-2.25375
0
LINE
8
BLACK
6
CONTINUOUS
10
3.79801
20
-2.25375
11
3.79951
21
-2.24924
0
LINE
8
BLACK
6
CONTINUOUS
10
3.79951
20
-2.24924
11
3.79951
21
-2.24645
0
LINE
8
BLACK
6
CONTINUOUS
10
3.79951
20
-2.24645
11
3.79801
21
-2.24194
0
LINE
8
BLACK
6
CONTINUOUS
10
3.79801
20
-2.24194
11
3.79509
21
-2.23902
0
LINE
8
BLACK
6
CONTINUOUS
10
3.79509
20
-2.23902
11
3.79206
21
-2.23751
0
LINE
8
BLACK
6
CONTINUOUS
10
3.79206
20
-2.23751
11
3.78523
21
-2.2358
0
LINE
8
BLACK
6
CONTINUOUS
10
3.78523
20
-2.2358
11
3.78033
21
-2.2358
0
LINE
8
BLACK
6
CONTINUOUS
10
3.78033
20
-2.2358
11
3.7735
21
-2.23751
0
LINE
8
BLACK
6
CONTINUOUS
10
3.7735
20
-2.23751
11
3.77047
21
-2.23902
0
LINE
8
BLACK
6
CONTINUOUS
10
3.77047
20
-2.23902
11
3.76755
21
-2.24194
0
LINE
8
BLACK
6
CONTINUOUS
10
3.76755
20
-2.24194
11
3.76605
21
-2.24645
0
LINE
8
BLACK
6
CONTINUOUS
10
3.76605
20
-2.24645
11
3.76605
21
-2.24924
0
LINE
8
BLACK
6
CONTINUOUS
10
3.76605
20
-2.24924
11
3.76755
21
-2.25375
0
LINE
8
BLACK
6
CONTINUOUS
10
3.76755
20
-2.25375
11
3.76893
21
-2.25513
0
LINE
8
BLACK
6
CONTINUOUS
10
3.76893
20
-2.25513
11
3.76952
21
-2.25597
0
LINE
8
BLACK
6
CONTINUOUS
10
3.76952
20
-2.25597
11
3.7697
21
-2.25798
0
LINE
8
BLACK
6
CONTINUOUS
10
3.7697
20
-2.25798
11
3.76854
21
-2.25964
0
LINE
8
BLACK
6
CONTINUOUS
10
3.76854
20
-2.25964
11
3.76659
21
-2.26016
0
LINE
8
BLACK
6
CONTINUOUS
10
3.76659
20
-2.26016
11
3.76476
21
-2.25931
0
LINE
8
BLACK
6
CONTINUOUS
10
3.76476
20
-2.25931
11
3.76288
21
-2.25743
0
LINE
8
BLACK
6
CONTINUOUS
10
3.76288
20
-2.25743
11
3.76229
21
-2.25659
0
LINE
8
BLACK
6
CONTINUOUS
10
3.76229
20
-2.25659
11
3.76228
21
-2.25642
0
LINE
8
BLACK
6
CONTINUOUS
10
3.76228
20
-2.25642
11
3.76217
21
-2.25628
0
LINE
8
BLACK
6
CONTINUOUS
10
3.76217
20
-2.25628
11
3.76029
21
-2.25065
0
LINE
8
BLACK
6
CONTINUOUS
10
3.76029
20
-2.25065
11
3.76016
21
-2.24978
0
LINE
8
BLACK
6
CONTINUOUS
10
3.76016
20
-2.24978
11
3.76014
21
-2.24972
0
LINE
8
BLACK
6
CONTINUOUS
10
3.76014
20
-2.24972
11
3.76014
21
-2.24597
0
LINE
8
BLACK
6
CONTINUOUS
10
3.76014
20
-2.24597
11
3.7603
21
-2.2451
0
LINE
8
BLACK
6
CONTINUOUS
10
3.7603
20
-2.2451
11
3.76029
21
-2.24504
0
LINE
8
BLACK
6
CONTINUOUS
10
3.76029
20
-2.24504
11
3.76217
21
-2.23941
0
LINE
8
BLACK
6
CONTINUOUS
10
3.76217
20
-2.23941
11
3.76266
21
-2.23851
0
LINE
8
BLACK
6
CONTINUOUS
10
3.76266
20
-2.23851
11
3.76281
21
-2.23842
0
LINE
8
BLACK
6
CONTINUOUS
10
3.76281
20
-2.23842
11
3.76288
21
-2.23826
0
LINE
8
BLACK
6
CONTINUOUS
10
3.76288
20
-2.23826
11
3.76663
21
-2.23451
0
LINE
8
BLACK
6
CONTINUOUS
10
3.76663
20
-2.23451
11
3.76735
21
-2.234
0
LINE
8
BLACK
6
CONTINUOUS
10
3.76735
20
-2.234
11
3.7674
21
-2.23395
0
LINE
8
BLACK
6
CONTINUOUS
10
3.7674
20
-2.23395
11
3.77115
21
-2.23208
0
LINE
8
BLACK
6
CONTINUOUS
10
3.77115
20
-2.23208
11
3.77164
21
-2.23193
0
LINE
8
BLACK
6
CONTINUOUS
10
3.77164
20
-2.23193
11
3.77175
21
-2.23186
0
LINE
8
BLACK
6
CONTINUOUS
10
3.77175
20
-2.23186
11
3.77925
21
-2.22998
0
LINE
8
BLACK
6
CONTINUOUS
10
3.77925
20
-2.22998
11
3.77984
21
-2.22994
0
LINE
8
BLACK
6
CONTINUOUS
10
3.77984
20
-2.22994
11
3.77997
21
-2.22989
0
LINE
8
BLACK
6
CONTINUOUS
10
3.77997
20
-2.22989
11
3.78559
21
-2.22989
0
LINE
8
BLACK
6
CONTINUOUS
10
3.78559
20
-2.22989
11
3.78617
21
-2.23
0
LINE
8
BLACK
6
CONTINUOUS
10
3.82313
20
-2.25182
11
3.82382
21
-2.25349
0
LINE
8
BLACK
6
CONTINUOUS
10
3.82382
20
-2.25349
11
3.82382
21
-2.27407
0
LINE
8
BLACK
6
CONTINUOUS
10
3.82382
20
-2.27407
11
3.82313
21
-2.27574
0
LINE
8
BLACK
6
CONTINUOUS
10
3.82313
20
-2.27574
11
3.82146
21
-2.27643
0
LINE
8
BLACK
6
CONTINUOUS
10
3.82146
20
-2.27643
11
3.81979
21
-2.27574
0
LINE
8
BLACK
6
CONTINUOUS
10
3.81979
20
-2.27574
11
3.81909
21
-2.27407
0
LINE
8
BLACK
6
CONTINUOUS
10
3.81909
20
-2.27407
11
3.81909
21
-2.25349
0
LINE
8
BLACK
6
CONTINUOUS
10
3.81909
20
-2.25349
11
3.81979
21
-2.25182
0
LINE
8
BLACK
6
CONTINUOUS
10
3.81979
20
-2.25182
11
3.82146
21
-2.25113
0
LINE
8
BLACK
6
CONTINUOUS
10
3.82146
20
-2.25113
11
3.82313
21
-2.25182
0
LINE
8
BLACK
6
CONTINUOUS
10
3.881
20
-2.25182
11
3.88169
21
-2.25349
0
LINE
8
BLACK
6
CONTINUOUS
10
3.88169
20
-2.25349
11
3.88169
21
-2.27407
0
LINE
8
BLACK
6
CONTINUOUS
10
3.88169
20
-2.27407
11
3.881
21
-2.27574
0
LINE
8
BLACK
6
CONTINUOUS
10
3.881
20
-2.27574
11
3.87933
21
-2.27643
0
LINE
8
BLACK
6
CONTINUOUS
10
3.87933
20
-2.27643
11
3.87766
21
-2.27574
0
LINE
8
BLACK
6
CONTINUOUS
10
3.87766
20
-2.27574
11
3.87697
21
-2.27407
0
LINE
8
BLACK
6
CONTINUOUS
10
3.87697
20
-2.27407
11
3.87697
21
-2.25349
0
LINE
8
BLACK
6
CONTINUOUS
10
3.87697
20
-2.25349
11
3.87766
21
-2.25182
0
LINE
8
BLACK
6
CONTINUOUS
10
3.87766
20
-2.25182
11
3.87933
21
-2.25113
0
LINE
8
BLACK
6
CONTINUOUS
10
3.87933
20
-2.25113
11
3.881
21
-2.25182
0
LINE
8
BLACK
6
CONTINUOUS
10
3.73622
20
-2.17717
11
3.81299
21
-2.17717
0
LINE
8
BLACK
6
CONTINUOUS
10
3.81299
20
-2.17717
11
3.81466
21
-2.17786
0
LINE
8
BLACK
6
CONTINUOUS
10
3.81466
20
-2.17786
11
3.81535
21
-2.17953
0
LINE
8
BLACK
6
CONTINUOUS
10
3.81535
20
-2.17953
11
3.81466
21
-2.1812
0
LINE
8
BLACK
6
CONTINUOUS
10
3.81466
20
-2.1812
11
3.81299
21
-2.18189
0
LINE
8
BLACK
6
CONTINUOUS
10
3.81299
20
-2.18189
11
3.73622
21
-2.18189
0
LINE
8
BLACK
6
CONTINUOUS
10
3.73622
20
-2.18189
11
3.60039
21
-2.18189
0
LINE
8
BLACK
6
CONTINUOUS
10
3.60039
20
-2.18189
11
3.59872
21
-2.1812
0
LINE
8
BLACK
6
CONTINUOUS
10
3.59872
20
-2.1812
11
3.59803
21
-2.17953
0
LINE
8
BLACK
6
CONTINUOUS
10
3.59803
20
-2.17953
11
3.59872
21
-2.17786
0
LINE
8
BLACK
6
CONTINUOUS
10
3.59872
20
-2.17786
11
3.60039
21
-2.17717
0
LINE
8
BLACK
6
CONTINUOUS
10
3.60039
20
-2.17717
11
3.73622
21
-2.17717
0
LINE
8
BLACK
6
CONTINUOUS
10
3.95895
20
-2.0355
11
3.95965
21
-2.0374
0
LINE
8
BLACK
6
CONTINUOUS
10
3.95965
20
-2.0374
11
3.95965
21
-2.10433
0
LINE
8
BLACK
6
CONTINUOUS
10
3.95965
20
-2.10433
11
3.95947
21
-2.10534
0
LINE
8
BLACK
6
CONTINUOUS
10
3.95947
20
-2.10534
11
3.95817
21
-2.10689
0
LINE
8
BLACK
6
CONTINUOUS
10
3.95817
20
-2.10689
11
3.95618
21
-2.10724
0
LINE
8
BLACK
6
CONTINUOUS
10
3.95618
20
-2.10724
11
3.95443
21
-2.10623
0
LINE
8
BLACK
6
CONTINUOUS
10
3.95443
20
-2.10623
11
3.95374
21
-2.10433
0
LINE
8
BLACK
6
CONTINUOUS
10
3.95374
20
-2.10433
11
3.95374
21
-2.0374
0
LINE
8
BLACK
6
CONTINUOUS
10
3.95374
20
-2.0374
11
3.95392
21
-2.03639
0
LINE
8
BLACK
6
CONTINUOUS
10
3.95392
20
-2.03639
11
3.95522
21
-2.03484
0
LINE
8
BLACK
6
CONTINUOUS
10
3.95522
20
-2.03484
11
3.95721
21
-2.03449
0
LINE
8
BLACK
6
CONTINUOUS
10
3.95721
20
-2.03449
11
3.95895
21
-2.0355
0
LINE
8
BLACK
6
CONTINUOUS
10
3.98351
20
-2.09366
11
3.98462
21
-2.09535
0
LINE
8
BLACK
6
CONTINUOUS
10
3.98462
20
-2.09535
11
3.98439
21
-2.09736
0
LINE
8
BLACK
6
CONTINUOUS
10
3.98439
20
-2.09736
11
3.98317
21
-2.09979
0
LINE
8
BLACK
6
CONTINUOUS
10
3.98317
20
-2.09979
11
3.98273
21
-2.10039
0
LINE
8
BLACK
6
CONTINUOUS
10
3.98273
20
-2.10039
11
3.99707
21
-2.10039
0
LINE
8
BLACK
6
CONTINUOUS
10
3.99707
20
-2.10039
11
3.99707
21
-2.09603
0
LINE
8
BLACK
6
CONTINUOUS
10
3.99707
20
-2.09603
11
3.99725
21
-2.09502
0
LINE
8
BLACK
6
CONTINUOUS
10
3.99725
20
-2.09502
11
3.99855
21
-2.09348
0
LINE
8
BLACK
6
CONTINUOUS
10
3.99855
20
-2.09348
11
4.00054
21
-2.09313
0
LINE
8
BLACK
6
CONTINUOUS
10
4.00054
20
-2.09313
11
4.00229
21
-2.09414
0
LINE
8
BLACK
6
CONTINUOUS
10
4.00229
20
-2.09414
11
4.00298
21
-2.09603
0
LINE
8
BLACK
6
CONTINUOUS
10
4.00298
20
-2.09603
11
4.00298
21
-2.11066
0
LINE
8
BLACK
6
CONTINUOUS
10
4.00298
20
-2.11066
11
4.0028
21
-2.11167
0
LINE
8
BLACK
6
CONTINUOUS
10
4.0028
20
-2.11167
11
4.0015
21
-2.11322
0
LINE
8
BLACK
6
CONTINUOUS
10
4.0015
20
-2.11322
11
3.99951
21
-2.11357
0
LINE
8
BLACK
6
CONTINUOUS
10
3.99951
20
-2.11357
11
3.99777
21
-2.11256
0
LINE
8
BLACK
6
CONTINUOUS
10
3.99777
20
-2.11256
11
3.99707
21
-2.11066
0
LINE
8
BLACK
6
CONTINUOUS
10
3.99707
20
-2.11066
11
3.99707
21
-2.1063
0
LINE
8
BLACK
6
CONTINUOUS
10
3.99707
20
-2.1063
11
3.97444
21
-2.1063
0
LINE
8
BLACK
6
CONTINUOUS
10
3.97444
20
-2.1063
11
3.97343
21
-2.10612
0
LINE
8
BLACK
6
CONTINUOUS
10
3.97343
20
-2.10612
11
3.9733
21
-2.10601
0
LINE
8
BLACK
6
CONTINUOUS
10
3.9733
20
-2.10601
11
3.97313
21
-2.10599
0
LINE
8
BLACK
6
CONTINUOUS
10
3.97313
20
-2.10599
11
3.97254
21
-2.10537
0
LINE
8
BLACK
6
CONTINUOUS
10
3.97254
20
-2.10537
11
3.97188
21
-2.10482
0
LINE
8
BLACK
6
CONTINUOUS
10
3.97188
20
-2.10482
11
3.97185
21
-2.10466
0
LINE
8
BLACK
6
CONTINUOUS
10
3.97185
20
-2.10466
11
3.97173
21
-2.10453
0
LINE
8
BLACK
6
CONTINUOUS
10
3.97173
20
-2.10453
11
3.97168
21
-2.10368
0
LINE
8
BLACK
6
CONTINUOUS
10
3.97168
20
-2.10368
11
3.97153
21
-2.10283
0
LINE
8
BLACK
6
CONTINUOUS
10
3.97153
20
-2.10283
11
3.97161
21
-2.10269
0
LINE
8
BLACK
6
CONTINUOUS
10
3.97161
20
-2.10269
11
3.9716
21
-2.10252
0
LINE
8
BLACK
6
CONTINUOUS
10
3.9716
20
-2.10252
11
3.97211
21
-2.10183
0
LINE
8
BLACK
6
CONTINUOUS
10
3.97211
20
-2.10183
11
3.97254
21
-2.10108
0
LINE
8
BLACK
6
CONTINUOUS
10
3.97254
20
-2.10108
11
3.9727
21
-2.10103
0
LINE
8
BLACK
6
CONTINUOUS
10
3.9727
20
-2.10103
11
3.9728
21
-2.10089
0
LINE
8
BLACK
6
CONTINUOUS
10
3.9728
20
-2.10089
11
3.97621
21
-2.09861
0
LINE
8
BLACK
6
CONTINUOUS
10
3.97621
20
-2.09861
11
3.9781
21
-2.09672
0
LINE
8
BLACK
6
CONTINUOUS
10
3.9781
20
-2.09672
11
3.97911
21
-2.09471
0
LINE
8
BLACK
6
CONTINUOUS
10
3.97911
20
-2.09471
11
3.97972
21
-2.09389
0
LINE
8
BLACK
6
CONTINUOUS
10
3.97972
20
-2.09389
11
3.98157
21
-2.09309
0
LINE
8
BLACK
6
CONTINUOUS
10
3.98157
20
-2.09309
11
3.98351
21
-2.09366
0
LINE
8
BLACK
6
CONTINUOUS
10
3.90384
20
-2.0355
11
3.90453
21
-2.0374
0
LINE
8
BLACK
6
CONTINUOUS
10
3.90453
20
-2.0374
11
3.90453
21
-2.10433
0
LINE
8
BLACK
6
CONTINUOUS
10
3.90453
20
-2.10433
11
3.90435
21
-2.10534
0
LINE
8
BLACK
6
CONTINUOUS
10
3.90435
20
-2.10534
11
3.90305
21
-2.10689
0
LINE
8
BLACK
6
CONTINUOUS
10
3.90305
20
-2.10689
11
3.90106
21
-2.10724
0
LINE
8
BLACK
6
CONTINUOUS
10
3.90106
20
-2.10724
11
3.89931
21
-2.10623
0
LINE
8
BLACK
6
CONTINUOUS
10
3.89931
20
-2.10623
11
3.89862
21
-2.10433
0
LINE
8
BLACK
6
CONTINUOUS
10
3.89862
20
-2.10433
11
3.89862
21
-2.0374
0
LINE
8
BLACK
6
CONTINUOUS
10
3.89862
20
-2.0374
11
3.8988
21
-2.03639
0
LINE
8
BLACK
6
CONTINUOUS
10
3.8988
20
-2.03639
11
3.9001
21
-2.03484
0
LINE
8
BLACK
6
CONTINUOUS
10
3.9001
20
-2.03484
11
3.90209
21
-2.03449
0
LINE
8
BLACK
6
CONTINUOUS
10
3.90209
20
-2.03449
11
3.90384
21
-2.0355
0
LINE
8
BLACK
6
CONTINUOUS
10
4.00104
20
-2.06889
11
4.00258
21
-2.07019
0
LINE
8
BLACK
6
CONTINUOUS
10
4.00258
20
-2.07019
11
4.00294
21
-2.07218
0
LINE
8
BLACK
6
CONTINUOUS
10
4.00294
20
-2.07218
11
4.00193
21
-2.07392
0
LINE
8
BLACK
6
CONTINUOUS
10
4.00193
20
-2.07392
11
4.00003
21
-2.07462
0
LINE
8
BLACK
6
CONTINUOUS
10
4.00003
20
-2.07462
11
3.99079
21
-2.07462
0
LINE
8
BLACK
6
CONTINUOUS
10
3.99079
20
-2.07462
11
3.99079
21
-2.07622
0
LINE
8
BLACK
6
CONTINUOUS
10
3.99079
20
-2.07622
11
4.00172
21
-2.08387
0
LINE
8
BLACK
6
CONTINUOUS
10
4.00172
20
-2.08387
11
4.00245
21
-2.08459
0
LINE
8
BLACK
6
CONTINUOUS
10
4.00245
20
-2.08459
11
4.00297
21
-2.08654
0
LINE
8
BLACK
6
CONTINUOUS
10
4.00297
20
-2.08654
11
4.00212
21
-2.08837
0
LINE
8
BLACK
6
CONTINUOUS
10
4.00212
20
-2.08837
11
4.00029
21
-2.08923
0
LINE
8
BLACK
6
CONTINUOUS
10
4.00029
20
-2.08923
11
3.99833
21
-2.08871
0
LINE
8
BLACK
6
CONTINUOUS
10
3.99833
20
-2.08871
11
3.99031
21
-2.08309
0
LINE
8
BLACK
6
CONTINUOUS
10
3.99031
20
-2.08309
11
3.98926
21
-2.08517
0
LINE
8
BLACK
6
CONTINUOUS
10
3.98926
20
-2.08517
11
3.98874
21
-2.08588
0
LINE
8
BLACK
6
CONTINUOUS
10
3.98874
20
-2.08588
11
3.98871
21
-2.08594
0
LINE
8
BLACK
6
CONTINUOUS
10
3.98871
20
-2.08594
11
3.98749
21
-2.08716
0
LINE
8
BLACK
6
CONTINUOUS
10
3.98749
20
-2.08716
11
3.98677
21
-2.08766
0
LINE
8
BLACK
6
CONTINUOUS
10
3.98677
20
-2.08766
11
3.98672
21
-2.08771
0
LINE
8
BLACK
6
CONTINUOUS
10
3.98672
20
-2.08771
11
3.98429
21
-2.08893
0
LINE
8
BLACK
6
CONTINUOUS
10
3.98429
20
-2.08893
11
3.9833
21
-2.08922
0
LINE
8
BLACK
6
CONTINUOUS
10
3.9833
20
-2.08922
11
3.98313
21
-2.08918
0
LINE
8
BLACK
6
CONTINUOUS
10
3.98313
20
-2.08918
11
3.98297
21
-2.08924
0
LINE
8
BLACK
6
CONTINUOUS
10
3.98297
20
-2.08924
11
3.97931
21
-2.08924
0
LINE
8
BLACK
6
CONTINUOUS
10
3.97931
20
-2.08924
11
3.9783
21
-2.08906
0
LINE
8
BLACK
6
CONTINUOUS
10
3.9783
20
-2.08906
11
3.97817
21
-2.08895
0
LINE
8
BLACK
6
CONTINUOUS
10
3.97817
20
-2.08895
11
3.97799
21
-2.08893
0
LINE
8
BLACK
6
CONTINUOUS
10
3.97799
20
-2.08893
11
3.97555
21
-2.08771
0
LINE
8
BLACK
6
CONTINUOUS
10
3.97555
20
-2.08771
11
3.97484
21
-2.08718
0
LINE
8
BLACK
6
CONTINUOUS
10
3.97484
20
-2.08718
11
3.97479
21
-2.08716
0
LINE
8
BLACK
6
CONTINUOUS
10
3.97479
20
-2.08716
11
3.97357
21
-2.08594
0
LINE
8
BLACK
6
CONTINUOUS
10
3.97357
20
-2.08594
11
3.97306
21
-2.08521
0
LINE
8
BLACK
6
CONTINUOUS
10
3.97306
20
-2.08521
11
3.97301
21
-2.08517
0
LINE
8
BLACK
6
CONTINUOUS
10
3.97301
20
-2.08517
11
3.9718
21
-2.08273
0
LINE
8
BLACK
6
CONTINUOUS
10
3.9718
20
-2.08273
11
3.9715
21
-2.08175
0
LINE
8
BLACK
6
CONTINUOUS
10
3.9715
20
-2.08175
11
3.97154
21
-2.08158
0
LINE
8
BLACK
6
CONTINUOUS
10
3.97154
20
-2.08158
11
3.97148
21
-2.08141
0
LINE
8
BLACK
6
CONTINUOUS
10
3.97148
20
-2.08141
11
3.97148
21
-2.07166
0
LINE
8
BLACK
6
CONTINUOUS
10
3.97148
20
-2.07166
11
3.97155
21
-2.07128
0
LINE
8
BLACK
6
CONTINUOUS
10
3.97155
20
-2.07128
11
3.97153
21
-2.07115
0
LINE
8
BLACK
6
CONTINUOUS
10
3.97153
20
-2.07115
11
3.97159
21
-2.07104
0
LINE
8
BLACK
6
CONTINUOUS
10
3.97159
20
-2.07104
11
3.97166
21
-2.07065
0
LINE
8
BLACK
6
CONTINUOUS
10
3.97166
20
-2.07065
11
3.97216
21
-2.07007
0
LINE
8
BLACK
6
CONTINUOUS
10
3.97216
20
-2.07007
11
3.97254
21
-2.0694
0
LINE
8
BLACK
6
CONTINUOUS
10
3.97254
20
-2.0694
11
3.97279
21
-2.06931
0
LINE
8
BLACK
6
CONTINUOUS
10
3.97279
20
-2.06931
11
3.97296
21
-2.06911
0
LINE
8
BLACK
6
CONTINUOUS
10
3.97296
20
-2.06911
11
3.97372
21
-2.06897
0
LINE
8
BLACK
6
CONTINUOUS
10
3.97372
20
-2.06897
11
3.97444
21
-2.06871
0
LINE
8
BLACK
6
CONTINUOUS
10
3.97444
20
-2.06871
11
4.00003
21
-2.06871
0
LINE
8
BLACK
6
CONTINUOUS
10
4.00003
20
-2.06871
11
4.00104
21
-2.06889
0
LINE
8
BLACK
6
CONTINUOUS
10
3.97739
20
-2.08071
11
3.97808
21
-2.0821
0
LINE
8
BLACK
6
CONTINUOUS
10
3.97808
20
-2.0821
11
3.97862
21
-2.08264
0
LINE
8
BLACK
6
CONTINUOUS
10
3.97862
20
-2.08264
11
3.98001
21
-2.08333
0
LINE
8
BLACK
6
CONTINUOUS
10
3.98001
20
-2.08333
11
3.98227
21
-2.08333
0
LINE
8
BLACK
6
CONTINUOUS
10
3.98227
20
-2.08333
11
3.98366
21
-2.08264
0
LINE
8
BLACK
6
CONTINUOUS
10
3.98366
20
-2.08264
11
3.9842
21
-2.0821
0
LINE
8
BLACK
6
CONTINUOUS
10
3.9842
20
-2.0821
11
3.98489
21
-2.08071
0
LINE
8
BLACK
6
CONTINUOUS
10
3.98489
20
-2.08071
11
3.98489
21
-2.07462
0
LINE
8
BLACK
6
CONTINUOUS
10
3.98489
20
-2.07462
11
3.97739
21
-2.07462
0
LINE
8
BLACK
6
CONTINUOUS
10
3.97739
20
-2.07462
11
3.97739
21
-2.08071
0
LINE
8
BLACK
6
CONTINUOUS
10
3.73622
20
-1.97559
11
3.81299
21
-1.97559
0
LINE
8
BLACK
6
CONTINUOUS
10
3.81299
20
-1.97559
11
3.81466
21
-1.97628
0
LINE
8
BLACK
6
CONTINUOUS
10
3.81466
20
-1.97628
11
3.81535
21
-1.97795
0
LINE
8
BLACK
6
CONTINUOUS
10
3.81535
20
-1.97795
11
3.81466
21
-1.97962
0
LINE
8
BLACK
6
CONTINUOUS
10
3.81466
20
-1.97962
11
3.81299
21
-1.98031
0
LINE
8
BLACK
6
CONTINUOUS
10
3.81299
20
-1.98031
11
3.73622
21
-1.98031
0
LINE
8
BLACK
6
CONTINUOUS
10
3.73622
20
-1.98031
11
3.65945
21
-1.98031
0
LINE
8
BLACK
6
CONTINUOUS
10
3.65945
20
-1.98031
11
3.65778
21
-1.97962
0
LINE
8
BLACK
6
CONTINUOUS
10
3.65778
20
-1.97962
11
3.65709
21
-1.97795
0
LINE
8
BLACK
6
CONTINUOUS
10
3.65709
20
-1.97795
11
3.65778
21
-1.97628
0
LINE
8
BLACK
6
CONTINUOUS
10
3.65778
20
-1.97628
11
3.65945
21
-1.97559
0
LINE
8
BLACK
6
CONTINUOUS
10
3.65945
20
-1.97559
11
3.73622
21
-1.97559
0
LINE
8
BLACK
6
CONTINUOUS
10
3.60602
20
-1.91697
11
3.60619
21
-1.91695
0
LINE
8
BLACK
6
CONTINUOUS
10
3.60619
20
-1.91695
11
3.60688
21
-1.91746
0
LINE
8
BLACK
6
CONTINUOUS
10
3.60688
20
-1.91746
11
3.60762
21
-1.91789
0
LINE
8
BLACK
6
CONTINUOUS
10
3.60762
20
-1.91789
11
3.60768
21
-1.91805
0
LINE
8
BLACK
6
CONTINUOUS
10
3.60768
20
-1.91805
11
3.60782
21
-1.91815
0
LINE
8
BLACK
6
CONTINUOUS
10
3.60782
20
-1.91815
11
3.61141
21
-1.92353
0
LINE
8
BLACK
6
CONTINUOUS
10
3.61141
20
-1.92353
11
3.61461
21
-1.92674
0
LINE
8
BLACK
6
CONTINUOUS
10
3.61461
20
-1.92674
11
3.61793
21
-1.9284
0
LINE
8
BLACK
6
CONTINUOUS
10
3.61793
20
-1.9284
11
3.61875
21
-1.92901
0
LINE
8
BLACK
6
CONTINUOUS
10
3.61875
20
-1.92901
11
3.61956
21
-1.93086
0
LINE
8
BLACK
6
CONTINUOUS
10
3.61956
20
-1.93086
11
3.61898
21
-1.9328
0
LINE
8
BLACK
6
CONTINUOUS
10
3.61898
20
-1.9328
11
3.6173
21
-1.93391
0
LINE
8
BLACK
6
CONTINUOUS
10
3.6173
20
-1.93391
11
3.61529
21
-1.93368
0
LINE
8
BLACK
6
CONTINUOUS
10
3.61529
20
-1.93368
11
3.61154
21
-1.9318
0
LINE
8
BLACK
6
CONTINUOUS
10
3.61154
20
-1.9318
11
3.61083
21
-1.93128
0
LINE
8
BLACK
6
CONTINUOUS
10
3.61083
20
-1.93128
11
3.61077
21
-1.93125
0
LINE
8
BLACK
6
CONTINUOUS
10
3.61077
20
-1.93125
11
3.60831
21
-1.92879
0
LINE
8
BLACK
6
CONTINUOUS
10
3.60831
20
-1.92879
11
3.60831
21
-1.95621
0
LINE
8
BLACK
6
CONTINUOUS
10
3.60831
20
-1.95621
11
3.61661
21
-1.95621
0
LINE
8
BLACK
6
CONTINUOUS
10
3.61661
20
-1.95621
11
3.61762
21
-1.95638
0
LINE
8
BLACK
6
CONTINUOUS
10
3.61762
20
-1.95638
11
3.61917
21
-1.95768
0
LINE
8
BLACK
6
CONTINUOUS
10
3.61917
20
-1.95768
11
3.61952
21
-1.95967
0
LINE
8
BLACK
6
CONTINUOUS
10
3.61952
20
-1.95967
11
3.61851
21
-1.96142
0
LINE
8
BLACK
6
CONTINUOUS
10
3.61851
20
-1.96142
11
3.61661
21
-1.96211
0
LINE
8
BLACK
6
CONTINUOUS
10
3.61661
20
-1.96211
11
3.59411
21
-1.96211
0
LINE
8
BLACK
6
CONTINUOUS
10
3.59411
20
-1.96211
11
3.5931
21
-1.96193
0
LINE
8
BLACK
6
CONTINUOUS
10
3.5931
20
-1.96193
11
3.59156
21
-1.96063
0
LINE
8
BLACK
6
CONTINUOUS
10
3.59156
20
-1.96063
11
3.59121
21
-1.95865
0
LINE
8
BLACK
6
CONTINUOUS
10
3.59121
20
-1.95865
11
3.59222
21
-1.9569
0
LINE
8
BLACK
6
CONTINUOUS
10
3.59222
20
-1.9569
11
3.59411
21
-1.95621
0
LINE
8
BLACK
6
CONTINUOUS
10
3.59411
20
-1.95621
11
3.60241
21
-1.95621
0
LINE
8
BLACK
6
CONTINUOUS
10
3.60241
20
-1.95621
11
3.60241
21
-1.91979
0
LINE
8
BLACK
6
CONTINUOUS
10
3.60241
20
-1.91979
11
3.60259
21
-1.91878
0
LINE
8
BLACK
6
CONTINUOUS
10
3.60259
20
-1.91878
11
3.6027
21
-1.91865
0
LINE
8
BLACK
6
CONTINUOUS
10
3.6027
20
-1.91865
11
3.60271
21
-1.91848
0
LINE
8
BLACK
6
CONTINUOUS
10
3.60271
20
-1.91848
11
3.60333
21
-1.91789
0
LINE
8
BLACK
6
CONTINUOUS
10
3.60333
20
-1.91789
11
3.60389
21
-1.91723
0
LINE
8
BLACK
6
CONTINUOUS
10
3.60389
20
-1.91723
11
3.60405
21
-1.9172
0
LINE
8
BLACK
6
CONTINUOUS
10
3.60405
20
-1.9172
11
3.60418
21
-1.91708
0
LINE
8
BLACK
6
CONTINUOUS
10
3.60418
20
-1.91708
11
3.60503
21
-1.91703
0
LINE
8
BLACK
6
CONTINUOUS
10
3.60503
20
-1.91703
11
3.60587
21
-1.91688
0
LINE
8
BLACK
6
CONTINUOUS
10
3.60587
20
-1.91688
11
3.60602
21
-1.91697
0
LINE
8
BLACK
6
CONTINUOUS
10
3.65824
20
-1.91789
11
3.65893
21
-1.91979
0
LINE
8
BLACK
6
CONTINUOUS
10
3.65893
20
-1.91979
11
3.65893
21
-1.95166
0
LINE
8
BLACK
6
CONTINUOUS
10
3.65893
20
-1.95166
11
3.65876
21
-1.95267
0
LINE
8
BLACK
6
CONTINUOUS
10
3.65876
20
-1.95267
11
3.65864
21
-1.9528
0
LINE
8
BLACK
6
CONTINUOUS
10
3.65864
20
-1.9528
11
3.65862
21
-1.95298
0
LINE
8
BLACK
6
CONTINUOUS
10
3.65862
20
-1.95298
11
3.65675
21
-1.95673
0
LINE
8
BLACK
6
CONTINUOUS
10
3.65675
20
-1.95673
11
3.65622
21
-1.95744
0
LINE
8
BLACK
6
CONTINUOUS
10
3.65622
20
-1.95744
11
3.65619
21
-1.9575
0
LINE
8
BLACK
6
CONTINUOUS
10
3.65619
20
-1.9575
11
3.65432
21
-1.95937
0
LINE
8
BLACK
6
CONTINUOUS
10
3.65432
20
-1.95937
11
3.6536
21
-1.95988
0
LINE
8
BLACK
6
CONTINUOUS
10
3.6536
20
-1.95988
11
3.65355
21
-1.95992
0
LINE
8
BLACK
6
CONTINUOUS
10
3.65355
20
-1.95992
11
3.6498
21
-1.9618
0
LINE
8
BLACK
6
CONTINUOUS
10
3.6498
20
-1.9618
11
3.64882
21
-1.96209
0
LINE
8
BLACK
6
CONTINUOUS
10
3.64882
20
-1.96209
11
3.64865
21
-1.96205
0
LINE
8
BLACK
6
CONTINUOUS
10
3.64865
20
-1.96205
11
3.64848
21
-1.96211
0
LINE
8
BLACK
6
CONTINUOUS
10
3.64848
20
-1.96211
11
3.64098
21
-1.96211
0
LINE
8
BLACK
6
CONTINUOUS
10
3.64098
20
-1.96211
11
3.63997
21
-1.96193
0
LINE
8
BLACK
6
CONTINUOUS
10
3.63997
20
-1.96193
11
3.63984
21
-1.96182
0
LINE
8
BLACK
6
CONTINUOUS
10
3.63984
20
-1.96182
11
3.63966
21
-1.9618
0
LINE
8
BLACK
6
CONTINUOUS
10
3.63966
20
-1.9618
11
3.63591
21
-1.95992
0
LINE
8
BLACK
6
CONTINUOUS
10
3.63591
20
-1.95992
11
3.6352
21
-1.9594
0
LINE
8
BLACK
6
CONTINUOUS
10
3.6352
20
-1.9594
11
3.63514
21
-1.95937
0
LINE
8
BLACK
6
CONTINUOUS
10
3.63514
20
-1.95937
11
3.63327
21
-1.9575
0
LINE
8
BLACK
6
CONTINUOUS
10
3.63327
20
-1.9575
11
3.63276
21
-1.95677
0
LINE
8
BLACK
6
CONTINUOUS
10
3.63276
20
-1.95677
11
3.63272
21
-1.95673
0
LINE
8
BLACK
6
CONTINUOUS
10
3.63272
20
-1.95673
11
3.63084
21
-1.95298
0
LINE
8
BLACK
6
CONTINUOUS
10
3.63084
20
-1.95298
11
3.63055
21
-1.952
0
LINE
8
BLACK
6
CONTINUOUS
10
3.63055
20
-1.952
11
3.63059
21
-1.95182
0
LINE
8
BLACK
6
CONTINUOUS
10
3.63059
20
-1.95182
11
3.63053
21
-1.95166
0
LINE
8
BLACK
6
CONTINUOUS
10
3.63053
20
-1.95166
11
3.63053
21
-1.91979
0
LINE
8
BLACK
6
CONTINUOUS
10
3.63053
20
-1.91979
11
3.63071
21
-1.91878
0
LINE
8
BLACK
6
CONTINUOUS
10
3.63071
20
-1.91878
11
3.63201
21
-1.91723
0
LINE
8
BLACK
6
CONTINUOUS
10
3.63201
20
-1.91723
11
3.634
21
-1.91688
0
LINE
8
BLACK
6
CONTINUOUS
10
3.634
20
-1.91688
11
3.63575
21
-1.91789
0
LINE
8
BLACK
6
CONTINUOUS
10
3.63575
20
-1.91789
11
3.63644
21
-1.91979
0
LINE
8
BLACK
6
CONTINUOUS
10
3.63644
20
-1.91979
11
3.63644
21
-1.95096
0
LINE
8
BLACK
6
CONTINUOUS
10
3.63644
20
-1.95096
11
3.63778
21
-1.95366
0
LINE
8
BLACK
6
CONTINUOUS
10
3.63778
20
-1.95366
11
3.63898
21
-1.95486
0
LINE
8
BLACK
6
CONTINUOUS
10
3.63898
20
-1.95486
11
3.64168
21
-1.95621
0
LINE
8
BLACK
6
CONTINUOUS
10
3.64168
20
-1.95621
11
3.64778
21
-1.95621
0
LINE
8
BLACK
6
CONTINUOUS
10
3.64778
20
-1.95621
11
3.65048
21
-1.95486
0
LINE
8
BLACK
6
CONTINUOUS
10
3.65048
20
-1.95486
11
3.65168
21
-1.95366
0
LINE
8
BLACK
6
CONTINUOUS
10
3.65168
20
-1.95366
11
3.65303
21
-1.95096
0
LINE
8
BLACK
6
CONTINUOUS
10
3.65303
20
-1.95096
11
3.65303
21
-1.91979
0
LINE
8
BLACK
6
CONTINUOUS
10
3.65303
20
-1.91979
11
3.65321
21
-1.91878
0
LINE
8
BLACK
6
CONTINUOUS
10
3.65321
20
-1.91878
11
3.6545
21
-1.91723
0
LINE
8
BLACK
6
CONTINUOUS
10
3.6545
20
-1.91723
11
3.65649
21
-1.91688
0
LINE
8
BLACK
6
CONTINUOUS
10
3.65649
20
-1.91688
11
3.65824
21
-1.91789
  0
ENDSEC
  0
EOF
