  0
SECTION
  2
HEADER
  9
$ANGBASE
  50
0.0
  9
$ANGDIR
  70
1
  9
$MEASUREMENT
  70
0
  0
ENDSEC
  0
SECTION
  2
TABLES
  0
TABLE
  2
LTYPE
  70
4
  0
LTYPE
  5
40F
  2
CONTINUOUS
  70
0
  3
Solid line
  72
65
  73
0
  40
0.0
  0
LTYPE
  5
410
  2
DASHDOT
 70
0
  3
Dash Dot ____ _ ____ _
 72
65
 73
4
 40
2.0
 49
1.25
 49
-0.25
 49
0.25
 49
-0.25
  0
LTYPE
  5
411
  2
DASHED
 70
0
  3
Dashed __ __ __ __ __
 72
65
 73
2
 40
0.75
 49
0.5
 49
-0.25
  0
LTYPE
  5
43B
  2
DOTTED
 70
0
  3
Dotted .  .  .  .
 72
65
 73
2
 40
0.2
 49
0.0
 49
-0.2
  0
ENDTAB
  0
TABLE
  2
STYLE
  70
4
  0
STYLE
  2
KICAD
  70
0
  40
0
  41
1
  42
1
  50
0
  71
0
  3
isocp.shx
  0
STYLE
  2
KICADB
  70
0
  40
0
  41
1
  42
1
  50
0
  71
0
  3
isocp.shx
  0
STYLE
  2
KICADI
  70
0
  40
0
  41
1
  42
1
  50
15
  71
0
  3
isocp.shx
  0
STYLE
  2
KICADBI
  70
0
  40
0
  41
1
  42
1
  50
15
  71
0
  3
isocp.shx
  0
ENDTAB
  0
TABLE
  2
LAYER
  70
1
  0
LAYER
  2
BLACK
  70
0
  62
7
  6
CONTINUOUS
  0
ENDTAB
  0
ENDSEC
  0
SECTION
  2
ENTITIES
0
LINE
8
BLACK
6
CONTINUOUS
10
3.74016
20
-2.6565
11
3.74085
21
-2.65678
0
LINE
8
BLACK
6
CONTINUOUS
10
3.74085
20
-2.65678
11
3.74114
21
-2.65748
0
LINE
8
BLACK
6
CONTINUOUS
10
3.74114
20
-2.65748
11
3.74114
21
-2.85433
0
LINE
8
BLACK
6
CONTINUOUS
10
3.74114
20
-2.85433
11
3.74085
21
-2.85503
0
LINE
8
BLACK
6
CONTINUOUS
10
3.74085
20
-2.85503
11
3.74016
21
-2.85531
0
LINE
8
BLACK
6
CONTINUOUS
10
3.74016
20
-2.85531
11
3.34646
21
-2.85531
0
LINE
8
BLACK
6
CONTINUOUS
10
3.34646
20
-2.85531
11
3.34576
21
-2.85503
0
LINE
8
BLACK
6
CONTINUOUS
10
3.34576
20
-2.85503
11
3.34547
21
-2.85433
0
LINE
8
BLACK
6
CONTINUOUS
10
3.34547
20
-2.85433
11
3.34547
21
-2.85433
0
LINE
8
BLACK
6
CONTINUOUS
10
3.34547
20
-2.85433
11
3.34547
21
-2.65748
0
LINE
8
BLACK
6
CONTINUOUS
10
3.34547
20
-2.65748
11
3.34576
21
-2.65678
0
LINE
8
BLACK
6
CONTINUOUS
10
3.34576
20
-2.65678
11
3.34646
21
-2.6565
0
LINE
8
BLACK
6
CONTINUOUS
10
3.34646
20
-2.6565
11
3.74016
21
-2.6565
0
LINE
8
BLACK
6
CONTINUOUS
10
3.34744
20
-2.65846
11
3.34744
21
-2.85335
0
LINE
8
BLACK
6
CONTINUOUS
10
3.34744
20
-2.85335
11
3.73917
21
-2.85335
0
LINE
8
BLACK
6
CONTINUOUS
10
3.73917
20
-2.85335
11
3.73917
21
-2.65846
0
LINE
8
BLACK
6
CONTINUOUS
10
3.73917
20
-2.65846
11
3.34744
21
-2.65846
0
LINE
8
BLACK
6
CONTINUOUS
10
3.64173
20
-2.16437
11
3.64243
21
-2.16466
0
LINE
8
BLACK
6
CONTINUOUS
10
3.64243
20
-2.16466
11
3.64272
21
-2.16535
0
LINE
8
BLACK
6
CONTINUOUS
10
3.64272
20
-2.16535
11
3.64272
21
-2.55906
0
LINE
8
BLACK
6
CONTINUOUS
10
3.64272
20
-2.55906
11
3.64243
21
-2.55975
0
LINE
8
BLACK
6
CONTINUOUS
10
3.64243
20
-2.55975
11
3.64173
21
-2.56004
0
LINE
8
BLACK
6
CONTINUOUS
10
3.64173
20
-2.56004
11
3.44488
21
-2.56004
0
LINE
8
BLACK
6
CONTINUOUS
10
3.44488
20
-2.56004
11
3.44419
21
-2.55975
0
LINE
8
BLACK
6
CONTINUOUS
10
3.44419
20
-2.55975
11
3.4439
21
-2.55906
0
LINE
8
BLACK
6
CONTINUOUS
10
3.4439
20
-2.55906
11
3.4439
21
-2.55906
0
LINE
8
BLACK
6
CONTINUOUS
10
3.4439
20
-2.55906
11
3.4439
21
-2.16535
0
LINE
8
BLACK
6
CONTINUOUS
10
3.4439
20
-2.16535
11
3.44419
21
-2.16466
0
LINE
8
BLACK
6
CONTINUOUS
10
3.44419
20
-2.16466
11
3.44488
21
-2.16437
0
LINE
8
BLACK
6
CONTINUOUS
10
3.44488
20
-2.16437
11
3.64173
21
-2.16437
0
LINE
8
BLACK
6
CONTINUOUS
10
3.44587
20
-2.16634
11
3.44587
21
-2.55807
0
LINE
8
BLACK
6
CONTINUOUS
10
3.44587
20
-2.55807
11
3.64075
21
-2.55807
0
LINE
8
BLACK
6
CONTINUOUS
10
3.64075
20
-2.55807
11
3.64075
21
-2.16634
0
LINE
8
BLACK
6
CONTINUOUS
10
3.64075
20
-2.16634
11
3.44587
21
-2.16634
  0
ENDSEC
  0
EOF
