  0
SECTION
  2
HEADER
  9
$ANGBASE
  50
0.0
  9
$ANGDIR
  70
1
  9
$MEASUREMENT
  70
0
  0
ENDSEC
  0
SECTION
  2
TABLES
  0
TABLE
  2
LTYPE
  70
4
  0
LTYPE
  5
40F
  2
CONTINUOUS
  70
0
  3
Solid line
  72
65
  73
0
  40
0.0
  0
LTYPE
  5
410
  2
DASHDOT
 70
0
  3
Dash Dot ____ _ ____ _
 72
65
 73
4
 40
2.0
 49
1.25
 49
-0.25
 49
0.25
 49
-0.25
  0
LTYPE
  5
411
  2
DASHED
 70
0
  3
Dashed __ __ __ __ __
 72
65
 73
2
 40
0.75
 49
0.5
 49
-0.25
  0
LTYPE
  5
43B
  2
DOTTED
 70
0
  3
Dotted .  .  .  .
 72
65
 73
2
 40
0.2
 49
0.0
 49
-0.2
  0
ENDTAB
  0
TABLE
  2
STYLE
  70
4
  0
STYLE
  2
KICAD
  70
0
  40
0
  41
1
  42
1
  50
0
  71
0
  3
isocp.shx
  0
STYLE
  2
KICADB
  70
0
  40
0
  41
1
  42
1
  50
0
  71
0
  3
isocp.shx
  0
STYLE
  2
KICADI
  70
0
  40
0
  41
1
  42
1
  50
15
  71
0
  3
isocp.shx
  0
STYLE
  2
KICADBI
  70
0
  40
0
  41
1
  42
1
  50
15
  71
0
  3
isocp.shx
  0
ENDTAB
  0
TABLE
  2
LAYER
  70
1
  0
LAYER
  2
BLACK
  70
0
  62
7
  6
CONTINUOUS
  0
ENDTAB
  0
ENDSEC
  0
SECTION
  2
ENTITIES
0
LINE
8
BLACK
6
CONTINUOUS
10
3.62205
20
-2.63681
11
3.62274
21
-2.6371
0
LINE
8
BLACK
6
CONTINUOUS
10
3.62274
20
-2.6371
11
3.62303
21
-2.6378
0
LINE
8
BLACK
6
CONTINUOUS
10
3.62303
20
-2.6378
11
3.62303
21
-2.83465
0
LINE
8
BLACK
6
CONTINUOUS
10
3.62303
20
-2.83465
11
3.62274
21
-2.83534
0
LINE
8
BLACK
6
CONTINUOUS
10
3.62274
20
-2.83534
11
3.62205
21
-2.83563
0
LINE
8
BLACK
6
CONTINUOUS
10
3.62205
20
-2.83563
11
3.22835
21
-2.83563
0
LINE
8
BLACK
6
CONTINUOUS
10
3.22835
20
-2.83563
11
3.22765
21
-2.83534
0
LINE
8
BLACK
6
CONTINUOUS
10
3.22765
20
-2.83534
11
3.22736
21
-2.83465
0
LINE
8
BLACK
6
CONTINUOUS
10
3.22736
20
-2.83465
11
3.22736
21
-2.83465
0
LINE
8
BLACK
6
CONTINUOUS
10
3.22736
20
-2.83465
11
3.22736
21
-2.6378
0
LINE
8
BLACK
6
CONTINUOUS
10
3.22736
20
-2.6378
11
3.22765
21
-2.6371
0
LINE
8
BLACK
6
CONTINUOUS
10
3.22765
20
-2.6371
11
3.22835
21
-2.63681
0
LINE
8
BLACK
6
CONTINUOUS
10
3.22835
20
-2.63681
11
3.62205
21
-2.63681
0
LINE
8
BLACK
6
CONTINUOUS
10
3.22933
20
-2.63878
11
3.22933
21
-2.83366
0
LINE
8
BLACK
6
CONTINUOUS
10
3.22933
20
-2.83366
11
3.62106
21
-2.83366
0
LINE
8
BLACK
6
CONTINUOUS
10
3.62106
20
-2.83366
11
3.62106
21
-2.63878
0
LINE
8
BLACK
6
CONTINUOUS
10
3.62106
20
-2.63878
11
3.22933
21
-2.63878
0
LINE
8
BLACK
6
CONTINUOUS
10
3.62205
20
-2.16437
11
3.62274
21
-2.16466
0
LINE
8
BLACK
6
CONTINUOUS
10
3.62274
20
-2.16466
11
3.62303
21
-2.16535
0
LINE
8
BLACK
6
CONTINUOUS
10
3.62303
20
-2.16535
11
3.62303
21
-2.55906
0
LINE
8
BLACK
6
CONTINUOUS
10
3.62303
20
-2.55906
11
3.62274
21
-2.55975
0
LINE
8
BLACK
6
CONTINUOUS
10
3.62274
20
-2.55975
11
3.62205
21
-2.56004
0
LINE
8
BLACK
6
CONTINUOUS
10
3.62205
20
-2.56004
11
3.4252
21
-2.56004
0
LINE
8
BLACK
6
CONTINUOUS
10
3.4252
20
-2.56004
11
3.4245
21
-2.55975
0
LINE
8
BLACK
6
CONTINUOUS
10
3.4245
20
-2.55975
11
3.42421
21
-2.55906
0
LINE
8
BLACK
6
CONTINUOUS
10
3.42421
20
-2.55906
11
3.42421
21
-2.55906
0
LINE
8
BLACK
6
CONTINUOUS
10
3.42421
20
-2.55906
11
3.42421
21
-2.16535
0
LINE
8
BLACK
6
CONTINUOUS
10
3.42421
20
-2.16535
11
3.4245
21
-2.16466
0
LINE
8
BLACK
6
CONTINUOUS
10
3.4245
20
-2.16466
11
3.4252
21
-2.16437
0
LINE
8
BLACK
6
CONTINUOUS
10
3.4252
20
-2.16437
11
3.62205
21
-2.16437
0
LINE
8
BLACK
6
CONTINUOUS
10
3.42618
20
-2.16634
11
3.42618
21
-2.55807
0
LINE
8
BLACK
6
CONTINUOUS
10
3.42618
20
-2.55807
11
3.62106
21
-2.55807
0
LINE
8
BLACK
6
CONTINUOUS
10
3.62106
20
-2.55807
11
3.62106
21
-2.16634
0
LINE
8
BLACK
6
CONTINUOUS
10
3.62106
20
-2.16634
11
3.42618
21
-2.16634
  0
ENDSEC
  0
EOF
