  0
SECTION
  2
HEADER
  9
$ANGBASE
  50
0.0
  9
$ANGDIR
  70
1
  9
$MEASUREMENT
  70
0
  0
ENDSEC
  0
SECTION
  2
TABLES
  0
TABLE
  2
LTYPE
  70
4
  0
LTYPE
  5
40F
  2
CONTINUOUS
  70
0
  3
Solid line
  72
65
  73
0
  40
0.0
  0
LTYPE
  5
410
  2
DASHDOT
 70
0
  3
Dash Dot ____ _ ____ _
 72
65
 73
4
 40
2.0
 49
1.25
 49
-0.25
 49
0.25
 49
-0.25
  0
LTYPE
  5
411
  2
DASHED
 70
0
  3
Dashed __ __ __ __ __
 72
65
 73
2
 40
0.75
 49
0.5
 49
-0.25
  0
LTYPE
  5
43B
  2
DOTTED
 70
0
  3
Dotted .  .  .  .
 72
65
 73
2
 40
0.2
 49
0.0
 49
-0.2
  0
ENDTAB
  0
TABLE
  2
STYLE
  70
4
  0
STYLE
  2
KICAD
  70
0
  40
0
  41
1
  42
1
  50
0
  71
0
  3
isocp.shx
  0
STYLE
  2
KICADB
  70
0
  40
0
  41
1
  42
1
  50
0
  71
0
  3
isocp.shx
  0
STYLE
  2
KICADI
  70
0
  40
0
  41
1
  42
1
  50
15
  71
0
  3
isocp.shx
  0
STYLE
  2
KICADBI
  70
0
  40
0
  41
1
  42
1
  50
15
  71
0
  3
isocp.shx
  0
ENDTAB
  0
TABLE
  2
LAYER
  70
1
  0
LAYER
  2
BLACK
  70
0
  62
7
  6
CONTINUOUS
  0
ENDTAB
  0
ENDSEC
  0
SECTION
  2
ENTITIES
0
LINE
8
BLACK
6
CONTINUOUS
10
3.13484
20
-2.76299
11
3.10217
21
-2.76299
0
LINE
8
BLACK
6
CONTINUOUS
10
3.10217
20
-2.76299
11
3.10217
21
-2.73346
0
LINE
8
BLACK
6
CONTINUOUS
10
3.10217
20
-2.73346
11
3.13484
21
-2.73346
0
LINE
8
BLACK
6
CONTINUOUS
10
3.13484
20
-2.73346
11
3.13484
21
-2.76299
0
LINE
8
BLACK
6
CONTINUOUS
10
3.19705
20
-2.76299
11
3.16437
21
-2.76299
0
LINE
8
BLACK
6
CONTINUOUS
10
3.16437
20
-2.76299
11
3.16437
21
-2.73346
0
LINE
8
BLACK
6
CONTINUOUS
10
3.16437
20
-2.73346
11
3.19705
21
-2.73346
0
LINE
8
BLACK
6
CONTINUOUS
10
3.19705
20
-2.73346
11
3.19705
21
-2.76299
0
LINE
8
BLACK
6
CONTINUOUS
10
3.13484
20
-2.72638
11
3.10217
21
-2.72638
0
LINE
8
BLACK
6
CONTINUOUS
10
3.10217
20
-2.72638
11
3.10217
21
-2.70669
0
LINE
8
BLACK
6
CONTINUOUS
10
3.10217
20
-2.70669
11
3.13484
21
-2.70669
0
LINE
8
BLACK
6
CONTINUOUS
10
3.13484
20
-2.70669
11
3.13484
21
-2.72638
0
LINE
8
BLACK
6
CONTINUOUS
10
3.19705
20
-2.72638
11
3.16437
21
-2.72638
0
LINE
8
BLACK
6
CONTINUOUS
10
3.16437
20
-2.72638
11
3.16437
21
-2.70669
0
LINE
8
BLACK
6
CONTINUOUS
10
3.16437
20
-2.70669
11
3.19705
21
-2.70669
0
LINE
8
BLACK
6
CONTINUOUS
10
3.19705
20
-2.70669
11
3.19705
21
-2.72638
0
LINE
8
BLACK
6
CONTINUOUS
10
3.13484
20
-2.69961
11
3.10217
21
-2.69961
0
LINE
8
BLACK
6
CONTINUOUS
10
3.10217
20
-2.69961
11
3.10217
21
-2.67008
0
LINE
8
BLACK
6
CONTINUOUS
10
3.10217
20
-2.67008
11
3.13484
21
-2.67008
0
LINE
8
BLACK
6
CONTINUOUS
10
3.13484
20
-2.67008
11
3.13484
21
-2.69961
0
LINE
8
BLACK
6
CONTINUOUS
10
3.19705
20
-2.69961
11
3.16437
21
-2.69961
0
LINE
8
BLACK
6
CONTINUOUS
10
3.16437
20
-2.69961
11
3.16437
21
-2.67008
0
LINE
8
BLACK
6
CONTINUOUS
10
3.16437
20
-2.67008
11
3.19705
21
-2.67008
0
LINE
8
BLACK
6
CONTINUOUS
10
3.19705
20
-2.67008
11
3.19705
21
-2.69961
0
LINE
8
BLACK
6
CONTINUOUS
10
2.84174
20
-2.57022
11
2.81616
21
-2.58498
0
LINE
8
BLACK
6
CONTINUOUS
10
2.81616
20
-2.58498
11
2.79983
21
-2.55668
0
LINE
8
BLACK
6
CONTINUOUS
10
2.79983
20
-2.55668
11
2.8254
21
-2.54192
0
LINE
8
BLACK
6
CONTINUOUS
10
2.8254
20
-2.54192
11
2.84174
21
-2.57022
0
LINE
8
BLACK
6
CONTINUOUS
10
2.83382
20
-2.50296
11
2.81677
21
-2.5128
0
LINE
8
BLACK
6
CONTINUOUS
10
2.81677
20
-2.5128
11
2.80043
21
-2.48451
0
LINE
8
BLACK
6
CONTINUOUS
10
2.80043
20
-2.48451
11
2.81748
21
-2.47466
0
LINE
8
BLACK
6
CONTINUOUS
10
2.81748
20
-2.47466
11
2.83382
21
-2.50296
0
LINE
8
BLACK
6
CONTINUOUS
10
3.44449
20
-2.52499
11
3.42815
21
-2.55329
0
LINE
8
BLACK
6
CONTINUOUS
10
3.42815
20
-2.55329
11
3.40258
21
-2.53853
0
LINE
8
BLACK
6
CONTINUOUS
10
3.40258
20
-2.53853
11
3.41892
21
-2.51023
0
LINE
8
BLACK
6
CONTINUOUS
10
3.41892
20
-2.51023
11
3.44449
21
-2.52499
0
LINE
8
BLACK
6
CONTINUOUS
10
3.46768
20
-2.53838
11
3.45134
21
-2.56668
0
LINE
8
BLACK
6
CONTINUOUS
10
3.45134
20
-2.56668
11
3.43429
21
-2.55683
0
LINE
8
BLACK
6
CONTINUOUS
10
3.43429
20
-2.55683
11
3.45063
21
-2.52853
0
LINE
8
BLACK
6
CONTINUOUS
10
3.45063
20
-2.52853
11
3.46768
21
-2.53838
0
LINE
8
BLACK
6
CONTINUOUS
10
3.49939
20
-2.55668
11
3.48305
21
-2.58498
0
LINE
8
BLACK
6
CONTINUOUS
10
3.48305
20
-2.58498
11
3.45748
21
-2.57022
0
LINE
8
BLACK
6
CONTINUOUS
10
3.45748
20
-2.57022
11
3.47381
21
-2.54192
0
LINE
8
BLACK
6
CONTINUOUS
10
3.47381
20
-2.54192
11
3.49939
21
-2.55668
0
LINE
8
BLACK
6
CONTINUOUS
10
2.81063
20
-2.51635
11
2.78506
21
-2.53111
0
LINE
8
BLACK
6
CONTINUOUS
10
2.78506
20
-2.53111
11
2.76872
21
-2.50281
0
LINE
8
BLACK
6
CONTINUOUS
10
2.76872
20
-2.50281
11
2.7943
21
-2.48805
0
LINE
8
BLACK
6
CONTINUOUS
10
2.7943
20
-2.48805
11
2.81063
21
-2.51635
0
LINE
8
BLACK
6
CONTINUOUS
10
2.86492
20
-2.55683
11
2.84787
21
-2.56668
0
LINE
8
BLACK
6
CONTINUOUS
10
2.84787
20
-2.56668
11
2.83154
21
-2.53838
0
LINE
8
BLACK
6
CONTINUOUS
10
2.83154
20
-2.53838
11
2.84858
21
-2.52853
0
LINE
8
BLACK
6
CONTINUOUS
10
2.84858
20
-2.52853
11
2.86492
21
-2.55683
0
LINE
8
BLACK
6
CONTINUOUS
10
2.89663
20
-2.53853
11
2.87106
21
-2.55329
0
LINE
8
BLACK
6
CONTINUOUS
10
2.87106
20
-2.55329
11
2.85472
21
-2.52499
0
LINE
8
BLACK
6
CONTINUOUS
10
2.85472
20
-2.52499
11
2.88029
21
-2.51023
0
LINE
8
BLACK
6
CONTINUOUS
10
2.88029
20
-2.51023
11
2.89663
21
-2.53853
0
LINE
8
BLACK
6
CONTINUOUS
10
3.47559
20
-2.47112
11
3.45926
21
-2.49942
0
LINE
8
BLACK
6
CONTINUOUS
10
3.45926
20
-2.49942
11
3.43368
21
-2.48466
0
LINE
8
BLACK
6
CONTINUOUS
10
3.43368
20
-2.48466
11
3.45002
21
-2.45636
0
LINE
8
BLACK
6
CONTINUOUS
10
3.45002
20
-2.45636
11
3.47559
21
-2.47112
0
LINE
8
BLACK
6
CONTINUOUS
10
3.49878
20
-2.48451
11
3.48244
21
-2.5128
0
LINE
8
BLACK
6
CONTINUOUS
10
3.48244
20
-2.5128
11
3.46539
21
-2.50296
0
LINE
8
BLACK
6
CONTINUOUS
10
3.46539
20
-2.50296
11
3.48173
21
-2.47466
0
LINE
8
BLACK
6
CONTINUOUS
10
3.48173
20
-2.47466
11
3.49878
21
-2.48451
0
LINE
8
BLACK
6
CONTINUOUS
10
3.53049
20
-2.50281
11
3.51415
21
-2.53111
0
LINE
8
BLACK
6
CONTINUOUS
10
3.51415
20
-2.53111
11
3.48858
21
-2.51635
0
LINE
8
BLACK
6
CONTINUOUS
10
3.48858
20
-2.51635
11
3.50492
21
-2.48805
0
LINE
8
BLACK
6
CONTINUOUS
10
3.50492
20
-2.48805
11
3.53049
21
-2.50281
0
LINE
8
BLACK
6
CONTINUOUS
10
2.86553
20
-2.48466
11
2.83996
21
-2.49942
0
LINE
8
BLACK
6
CONTINUOUS
10
2.83996
20
-2.49942
11
2.82362
21
-2.47112
0
LINE
8
BLACK
6
CONTINUOUS
10
2.82362
20
-2.47112
11
2.84919
21
-2.45636
0
LINE
8
BLACK
6
CONTINUOUS
10
2.84919
20
-2.45636
11
2.86553
21
-2.48466
0
LINE
8
BLACK
6
CONTINUOUS
10
2.81063
20
-2.20806
11
2.7943
21
-2.23636
0
LINE
8
BLACK
6
CONTINUOUS
10
2.7943
20
-2.23636
11
2.76872
21
-2.2216
0
LINE
8
BLACK
6
CONTINUOUS
10
2.76872
20
-2.2216
11
2.78506
21
-2.1933
0
LINE
8
BLACK
6
CONTINUOUS
10
2.78506
20
-2.1933
11
2.81063
21
-2.20806
0
LINE
8
BLACK
6
CONTINUOUS
10
2.83382
20
-2.22145
11
2.81748
21
-2.24975
0
LINE
8
BLACK
6
CONTINUOUS
10
2.81748
20
-2.24975
11
2.80043
21
-2.2399
0
LINE
8
BLACK
6
CONTINUOUS
10
2.80043
20
-2.2399
11
2.81677
21
-2.2116
0
LINE
8
BLACK
6
CONTINUOUS
10
2.81677
20
-2.2116
11
2.83382
21
-2.22145
0
LINE
8
BLACK
6
CONTINUOUS
10
2.86553
20
-2.23975
11
2.84919
21
-2.26805
0
LINE
8
BLACK
6
CONTINUOUS
10
2.84919
20
-2.26805
11
2.82362
21
-2.25329
0
LINE
8
BLACK
6
CONTINUOUS
10
2.82362
20
-2.25329
11
2.83996
21
-2.22499
0
LINE
8
BLACK
6
CONTINUOUS
10
2.83996
20
-2.22499
11
2.86553
21
-2.23975
0
LINE
8
BLACK
6
CONTINUOUS
10
3.47559
20
-2.25329
11
3.45002
21
-2.26805
0
LINE
8
BLACK
6
CONTINUOUS
10
3.45002
20
-2.26805
11
3.43368
21
-2.23975
0
LINE
8
BLACK
6
CONTINUOUS
10
3.43368
20
-2.23975
11
3.45926
21
-2.22499
0
LINE
8
BLACK
6
CONTINUOUS
10
3.45926
20
-2.22499
11
3.47559
21
-2.25329
0
LINE
8
BLACK
6
CONTINUOUS
10
2.84174
20
-2.15419
11
2.8254
21
-2.18249
0
LINE
8
BLACK
6
CONTINUOUS
10
2.8254
20
-2.18249
11
2.79983
21
-2.16773
0
LINE
8
BLACK
6
CONTINUOUS
10
2.79983
20
-2.16773
11
2.81616
21
-2.13943
0
LINE
8
BLACK
6
CONTINUOUS
10
2.81616
20
-2.13943
11
2.84174
21
-2.15419
0
LINE
8
BLACK
6
CONTINUOUS
10
2.86492
20
-2.16758
11
2.84858
21
-2.19588
0
LINE
8
BLACK
6
CONTINUOUS
10
2.84858
20
-2.19588
11
2.83154
21
-2.18603
0
LINE
8
BLACK
6
CONTINUOUS
10
2.83154
20
-2.18603
11
2.84787
21
-2.15773
0
LINE
8
BLACK
6
CONTINUOUS
10
2.84787
20
-2.15773
11
2.86492
21
-2.16758
0
LINE
8
BLACK
6
CONTINUOUS
10
3.44449
20
-2.19942
11
3.41892
21
-2.21418
0
LINE
8
BLACK
6
CONTINUOUS
10
3.41892
20
-2.21418
11
3.40258
21
-2.18588
0
LINE
8
BLACK
6
CONTINUOUS
10
3.40258
20
-2.18588
11
3.42815
21
-2.17112
0
LINE
8
BLACK
6
CONTINUOUS
10
3.42815
20
-2.17112
11
3.44449
21
-2.19942
0
LINE
8
BLACK
6
CONTINUOUS
10
3.49878
20
-2.2399
11
3.48173
21
-2.24975
0
LINE
8
BLACK
6
CONTINUOUS
10
3.48173
20
-2.24975
11
3.46539
21
-2.22145
0
LINE
8
BLACK
6
CONTINUOUS
10
3.46539
20
-2.22145
11
3.48244
21
-2.2116
0
LINE
8
BLACK
6
CONTINUOUS
10
3.48244
20
-2.2116
11
3.49878
21
-2.2399
0
LINE
8
BLACK
6
CONTINUOUS
10
3.46768
20
-2.18603
11
3.45063
21
-2.19588
0
LINE
8
BLACK
6
CONTINUOUS
10
3.45063
20
-2.19588
11
3.43429
21
-2.16758
0
LINE
8
BLACK
6
CONTINUOUS
10
3.43429
20
-2.16758
11
3.45134
21
-2.15773
0
LINE
8
BLACK
6
CONTINUOUS
10
3.45134
20
-2.15773
11
3.46768
21
-2.18603
0
LINE
8
BLACK
6
CONTINUOUS
10
3.53049
20
-2.2216
11
3.50492
21
-2.23636
0
LINE
8
BLACK
6
CONTINUOUS
10
3.50492
20
-2.23636
11
3.48858
21
-2.20806
0
LINE
8
BLACK
6
CONTINUOUS
10
3.48858
20
-2.20806
11
3.51415
21
-2.1933
0
LINE
8
BLACK
6
CONTINUOUS
10
3.51415
20
-2.1933
11
3.53049
21
-2.2216
0
LINE
8
BLACK
6
CONTINUOUS
10
2.89663
20
-2.18588
11
2.88029
21
-2.21418
0
LINE
8
BLACK
6
CONTINUOUS
10
2.88029
20
-2.21418
11
2.85472
21
-2.19942
0
LINE
8
BLACK
6
CONTINUOUS
10
2.85472
20
-2.19942
11
2.87106
21
-2.17112
0
LINE
8
BLACK
6
CONTINUOUS
10
2.87106
20
-2.17112
11
2.89663
21
-2.18588
0
LINE
8
BLACK
6
CONTINUOUS
10
3.49939
20
-2.16773
11
3.47381
21
-2.18249
0
LINE
8
BLACK
6
CONTINUOUS
10
3.47381
20
-2.18249
11
3.45748
21
-2.15419
0
LINE
8
BLACK
6
CONTINUOUS
10
3.45748
20
-2.15419
11
3.48305
21
-2.13943
0
LINE
8
BLACK
6
CONTINUOUS
10
3.48305
20
-2.13943
11
3.49939
21
-2.16773
0
LINE
8
BLACK
6
CONTINUOUS
10
3.13484
20
-2.05433
11
3.10217
21
-2.05433
0
LINE
8
BLACK
6
CONTINUOUS
10
3.10217
20
-2.05433
11
3.10217
21
-2.0248
0
LINE
8
BLACK
6
CONTINUOUS
10
3.10217
20
-2.0248
11
3.13484
21
-2.0248
0
LINE
8
BLACK
6
CONTINUOUS
10
3.13484
20
-2.0248
11
3.13484
21
-2.05433
0
LINE
8
BLACK
6
CONTINUOUS
10
3.19705
20
-2.05433
11
3.16437
21
-2.05433
0
LINE
8
BLACK
6
CONTINUOUS
10
3.16437
20
-2.05433
11
3.16437
21
-2.0248
0
LINE
8
BLACK
6
CONTINUOUS
10
3.16437
20
-2.0248
11
3.19705
21
-2.0248
0
LINE
8
BLACK
6
CONTINUOUS
10
3.19705
20
-2.0248
11
3.19705
21
-2.05433
0
LINE
8
BLACK
6
CONTINUOUS
10
3.13484
20
-2.01772
11
3.10217
21
-2.01772
0
LINE
8
BLACK
6
CONTINUOUS
10
3.10217
20
-2.01772
11
3.10217
21
-1.99803
0
LINE
8
BLACK
6
CONTINUOUS
10
3.10217
20
-1.99803
11
3.13484
21
-1.99803
0
LINE
8
BLACK
6
CONTINUOUS
10
3.13484
20
-1.99803
11
3.13484
21
-2.01772
0
LINE
8
BLACK
6
CONTINUOUS
10
3.19705
20
-2.01772
11
3.16437
21
-2.01772
0
LINE
8
BLACK
6
CONTINUOUS
10
3.16437
20
-2.01772
11
3.16437
21
-1.99803
0
LINE
8
BLACK
6
CONTINUOUS
10
3.16437
20
-1.99803
11
3.19705
21
-1.99803
0
LINE
8
BLACK
6
CONTINUOUS
10
3.19705
20
-1.99803
11
3.19705
21
-2.01772
0
LINE
8
BLACK
6
CONTINUOUS
10
3.13484
20
-1.99094
11
3.10217
21
-1.99094
0
LINE
8
BLACK
6
CONTINUOUS
10
3.10217
20
-1.99094
11
3.10217
21
-1.96142
0
LINE
8
BLACK
6
CONTINUOUS
10
3.10217
20
-1.96142
11
3.13484
21
-1.96142
0
LINE
8
BLACK
6
CONTINUOUS
10
3.13484
20
-1.96142
11
3.13484
21
-1.99094
0
LINE
8
BLACK
6
CONTINUOUS
10
3.19705
20
-1.99094
11
3.16437
21
-1.99094
0
LINE
8
BLACK
6
CONTINUOUS
10
3.16437
20
-1.99094
11
3.16437
21
-1.96142
0
LINE
8
BLACK
6
CONTINUOUS
10
3.16437
20
-1.96142
11
3.19705
21
-1.96142
0
LINE
8
BLACK
6
CONTINUOUS
10
3.19705
20
-1.96142
11
3.19705
21
-1.99094
  0
ENDSEC
  0
EOF
