  0
SECTION
  2
HEADER
  9
$ANGBASE
  50
0.0
  9
$ANGDIR
  70
1
  9
$MEASUREMENT
  70
0
  0
ENDSEC
  0
SECTION
  2
TABLES
  0
TABLE
  2
LTYPE
  70
4
  0
LTYPE
  5
40F
  2
CONTINUOUS
  70
0
  3
Solid line
  72
65
  73
0
  40
0.0
  0
LTYPE
  5
410
  2
DASHDOT
 70
0
  3
Dash Dot ____ _ ____ _
 72
65
 73
4
 40
2.0
 49
1.25
 49
-0.25
 49
0.25
 49
-0.25
  0
LTYPE
  5
411
  2
DASHED
 70
0
  3
Dashed __ __ __ __ __
 72
65
 73
2
 40
0.75
 49
0.5
 49
-0.25
  0
LTYPE
  5
43B
  2
DOTTED
 70
0
  3
Dotted .  .  .  .
 72
65
 73
2
 40
0.2
 49
0.0
 49
-0.2
  0
ENDTAB
  0
TABLE
  2
STYLE
  70
4
  0
STYLE
  2
KICAD
  70
0
  40
0
  41
1
  42
1
  50
0
  71
0
  3
isocp.shx
  0
STYLE
  2
KICADB
  70
0
  40
0
  41
1
  42
1
  50
0
  71
0
  3
isocp.shx
  0
STYLE
  2
KICADI
  70
0
  40
0
  41
1
  42
1
  50
15
  71
0
  3
isocp.shx
  0
STYLE
  2
KICADBI
  70
0
  40
0
  41
1
  42
1
  50
15
  71
0
  3
isocp.shx
  0
ENDTAB
  0
TABLE
  2
LAYER
  70
1
  0
LAYER
  2
BLACK
  70
0
  62
7
  6
CONTINUOUS
  0
ENDTAB
  0
ENDSEC
  0
SECTION
  2
ENTITIES
0
LINE
8
BLACK
6
CONTINUOUS
10
3.18446
20
-2.72302
11
3.18504
21
-2.72441
0
LINE
8
BLACK
6
CONTINUOUS
10
3.18504
20
-2.72441
11
3.18504
21
-2.75
0
LINE
8
BLACK
6
CONTINUOUS
10
3.18504
20
-2.75
11
3.18446
21
-2.75139
0
LINE
8
BLACK
6
CONTINUOUS
10
3.18446
20
-2.75139
11
3.18307
21
-2.75197
0
LINE
8
BLACK
6
CONTINUOUS
10
3.18307
20
-2.75197
11
3.15748
21
-2.75197
0
LINE
8
BLACK
6
CONTINUOUS
10
3.15748
20
-2.75197
11
3.15609
21
-2.75139
0
LINE
8
BLACK
6
CONTINUOUS
10
3.15609
20
-2.75139
11
3.15551
21
-2.75
0
LINE
8
BLACK
6
CONTINUOUS
10
3.15551
20
-2.75
11
3.15609
21
-2.74861
0
LINE
8
BLACK
6
CONTINUOUS
10
3.15609
20
-2.74861
11
3.15748
21
-2.74803
0
LINE
8
BLACK
6
CONTINUOUS
10
3.15748
20
-2.74803
11
3.1811
21
-2.74803
0
LINE
8
BLACK
6
CONTINUOUS
10
3.1811
20
-2.74803
11
3.1811
21
-2.72441
0
LINE
8
BLACK
6
CONTINUOUS
10
3.1811
20
-2.72441
11
3.18168
21
-2.72302
0
LINE
8
BLACK
6
CONTINUOUS
10
3.18168
20
-2.72302
11
3.18307
21
-2.72244
0
LINE
8
BLACK
6
CONTINUOUS
10
3.18307
20
-2.72244
11
3.18446
21
-2.72302
0
LINE
8
BLACK
6
CONTINUOUS
10
3.20542
20
-2.72732
11
3.20567
21
-2.72728
0
LINE
8
BLACK
6
CONTINUOUS
10
3.20567
20
-2.72728
11
3.20942
21
-2.72822
0
LINE
8
BLACK
6
CONTINUOUS
10
3.20942
20
-2.72822
11
3.2096
21
-2.72835
0
LINE
8
BLACK
6
CONTINUOUS
10
3.2096
20
-2.72835
11
3.20982
21
-2.72837
0
LINE
8
BLACK
6
CONTINUOUS
10
3.20982
20
-2.72837
11
3.21169
21
-2.7293
0
LINE
8
BLACK
6
CONTINUOUS
10
3.21169
20
-2.7293
11
3.21191
21
-2.72955
0
LINE
8
BLACK
6
CONTINUOUS
10
3.21191
20
-2.72955
11
3.21221
21
-2.72967
0
LINE
8
BLACK
6
CONTINUOUS
10
3.21221
20
-2.72967
11
3.21408
21
-2.73155
0
LINE
8
BLACK
6
CONTINUOUS
10
3.21408
20
-2.73155
11
3.21426
21
-2.73197
0
LINE
8
BLACK
6
CONTINUOUS
10
3.21426
20
-2.73197
11
3.21456
21
-2.73232
0
LINE
8
BLACK
6
CONTINUOUS
10
3.21456
20
-2.73232
11
3.21549
21
-2.73513
0
LINE
8
BLACK
6
CONTINUOUS
10
3.21549
20
-2.73513
11
3.21547
21
-2.73545
0
LINE
8
BLACK
6
CONTINUOUS
10
3.21547
20
-2.73545
11
3.21559
21
-2.73575
0
LINE
8
BLACK
6
CONTINUOUS
10
3.21559
20
-2.73575
11
3.21559
21
-2.74044
0
LINE
8
BLACK
6
CONTINUOUS
10
3.21559
20
-2.74044
11
3.21502
21
-2.74183
0
LINE
8
BLACK
6
CONTINUOUS
10
3.21502
20
-2.74183
11
3.21363
21
-2.74241
0
LINE
8
BLACK
6
CONTINUOUS
10
3.21363
20
-2.74241
11
3.19394
21
-2.74241
0
LINE
8
BLACK
6
CONTINUOUS
10
3.19394
20
-2.74241
11
3.19255
21
-2.74183
0
LINE
8
BLACK
6
CONTINUOUS
10
3.19255
20
-2.74183
11
3.19197
21
-2.74044
0
LINE
8
BLACK
6
CONTINUOUS
10
3.19197
20
-2.74044
11
3.19197
21
-2.73575
0
LINE
8
BLACK
6
CONTINUOUS
10
3.19197
20
-2.73575
11
3.1921
21
-2.73545
0
LINE
8
BLACK
6
CONTINUOUS
10
3.1921
20
-2.73545
11
3.19207
21
-2.73513
0
LINE
8
BLACK
6
CONTINUOUS
10
3.19207
20
-2.73513
11
3.19301
21
-2.73232
0
LINE
8
BLACK
6
CONTINUOUS
10
3.19301
20
-2.73232
11
3.19331
21
-2.73197
0
LINE
8
BLACK
6
CONTINUOUS
10
3.19331
20
-2.73197
11
3.19349
21
-2.73155
0
LINE
8
BLACK
6
CONTINUOUS
10
3.19349
20
-2.73155
11
3.19536
21
-2.72967
0
LINE
8
BLACK
6
CONTINUOUS
10
3.19536
20
-2.72967
11
3.19566
21
-2.72955
0
LINE
8
BLACK
6
CONTINUOUS
10
3.19566
20
-2.72955
11
3.19587
21
-2.7293
0
LINE
8
BLACK
6
CONTINUOUS
10
3.19587
20
-2.7293
11
3.19775
21
-2.72837
0
LINE
8
BLACK
6
CONTINUOUS
10
3.19775
20
-2.72837
11
3.19797
21
-2.72835
0
LINE
8
BLACK
6
CONTINUOUS
10
3.19797
20
-2.72835
11
3.19815
21
-2.72822
0
LINE
8
BLACK
6
CONTINUOUS
10
3.19815
20
-2.72822
11
3.2019
21
-2.72728
0
LINE
8
BLACK
6
CONTINUOUS
10
3.2019
20
-2.72728
11
3.20215
21
-2.72732
0
LINE
8
BLACK
6
CONTINUOUS
10
3.20215
20
-2.72732
11
3.20238
21
-2.72722
0
LINE
8
BLACK
6
CONTINUOUS
10
3.20238
20
-2.72722
11
3.20519
21
-2.72722
0
LINE
8
BLACK
6
CONTINUOUS
10
3.20519
20
-2.72722
11
3.20542
21
-2.72732
0
LINE
8
BLACK
6
CONTINUOUS
10
3.19932
20
-2.73198
11
3.19792
21
-2.73268
0
LINE
8
BLACK
6
CONTINUOUS
10
3.19792
20
-2.73268
11
3.1966
21
-2.734
0
LINE
8
BLACK
6
CONTINUOUS
10
3.1966
20
-2.734
11
3.19591
21
-2.73607
0
LINE
8
BLACK
6
CONTINUOUS
10
3.19591
20
-2.73607
11
3.19591
21
-2.73847
0
LINE
8
BLACK
6
CONTINUOUS
10
3.19591
20
-2.73847
11
3.21166
21
-2.73847
0
LINE
8
BLACK
6
CONTINUOUS
10
3.21166
20
-2.73847
11
3.21166
21
-2.73607
0
LINE
8
BLACK
6
CONTINUOUS
10
3.21166
20
-2.73607
11
3.21097
21
-2.734
0
LINE
8
BLACK
6
CONTINUOUS
10
3.21097
20
-2.734
11
3.20965
21
-2.73268
0
LINE
8
BLACK
6
CONTINUOUS
10
3.20965
20
-2.73268
11
3.20825
21
-2.73198
0
LINE
8
BLACK
6
CONTINUOUS
10
3.20825
20
-2.73198
11
3.20495
21
-2.73116
0
LINE
8
BLACK
6
CONTINUOUS
10
3.20495
20
-2.73116
11
3.20262
21
-2.73116
0
LINE
8
BLACK
6
CONTINUOUS
10
3.20262
20
-2.73116
11
3.19932
21
-2.73198
0
LINE
8
BLACK
6
CONTINUOUS
10
3.21502
20
-2.70905
11
3.21559
21
-2.71044
0
LINE
8
BLACK
6
CONTINUOUS
10
3.21559
20
-2.71044
11
3.21559
21
-2.72169
0
LINE
8
BLACK
6
CONTINUOUS
10
3.21559
20
-2.72169
11
3.21502
21
-2.72308
0
LINE
8
BLACK
6
CONTINUOUS
10
3.21502
20
-2.72308
11
3.21363
21
-2.72366
0
LINE
8
BLACK
6
CONTINUOUS
10
3.21363
20
-2.72366
11
3.21223
21
-2.72308
0
LINE
8
BLACK
6
CONTINUOUS
10
3.21223
20
-2.72308
11
3.21166
21
-2.72169
0
LINE
8
BLACK
6
CONTINUOUS
10
3.21166
20
-2.72169
11
3.21166
21
-2.71804
0
LINE
8
BLACK
6
CONTINUOUS
10
3.21166
20
-2.71804
11
3.19963
21
-2.71804
0
LINE
8
BLACK
6
CONTINUOUS
10
3.19963
20
-2.71804
11
3.20002
21
-2.71842
0
LINE
8
BLACK
6
CONTINUOUS
10
3.20002
20
-2.71842
11
3.20014
21
-2.71872
0
LINE
8
BLACK
6
CONTINUOUS
10
3.20014
20
-2.71872
11
3.20039
21
-2.71894
0
LINE
8
BLACK
6
CONTINUOUS
10
3.20039
20
-2.71894
11
3.20133
21
-2.72081
0
LINE
8
BLACK
6
CONTINUOUS
10
3.20133
20
-2.72081
11
3.20143
21
-2.72231
0
LINE
8
BLACK
6
CONTINUOUS
10
3.20143
20
-2.72231
11
3.20045
21
-2.72345
0
LINE
8
BLACK
6
CONTINUOUS
10
3.20045
20
-2.72345
11
3.19894
21
-2.72356
0
LINE
8
BLACK
6
CONTINUOUS
10
3.19894
20
-2.72356
11
3.1978
21
-2.72257
0
LINE
8
BLACK
6
CONTINUOUS
10
3.1978
20
-2.72257
11
3.19701
21
-2.72098
0
LINE
8
BLACK
6
CONTINUOUS
10
3.19701
20
-2.72098
11
3.1955
21
-2.71947
0
LINE
8
BLACK
6
CONTINUOUS
10
3.1955
20
-2.71947
11
3.19285
21
-2.7177
0
LINE
8
BLACK
6
CONTINUOUS
10
3.19285
20
-2.7177
11
3.19274
21
-2.71754
0
LINE
8
BLACK
6
CONTINUOUS
10
3.19274
20
-2.71754
11
3.19255
21
-2.71746
0
LINE
8
BLACK
6
CONTINUOUS
10
3.19255
20
-2.71746
11
3.19233
21
-2.71693
0
LINE
8
BLACK
6
CONTINUOUS
10
3.19233
20
-2.71693
11
3.19201
21
-2.71645
0
LINE
8
BLACK
6
CONTINUOUS
10
3.19201
20
-2.71645
11
3.19205
21
-2.71625
0
LINE
8
BLACK
6
CONTINUOUS
10
3.19205
20
-2.71625
11
3.19197
21
-2.71607
0
LINE
8
BLACK
6
CONTINUOUS
10
3.19197
20
-2.71607
11
3.19219
21
-2.71554
0
LINE
8
BLACK
6
CONTINUOUS
10
3.19219
20
-2.71554
11
3.1923
21
-2.71497
0
LINE
8
BLACK
6
CONTINUOUS
10
3.1923
20
-2.71497
11
3.19247
21
-2.71486
0
LINE
8
BLACK
6
CONTINUOUS
10
3.19247
20
-2.71486
11
3.19255
21
-2.71467
0
LINE
8
BLACK
6
CONTINUOUS
10
3.19255
20
-2.71467
11
3.19308
21
-2.71446
0
LINE
8
BLACK
6
CONTINUOUS
10
3.19308
20
-2.71446
11
3.19356
21
-2.71414
0
LINE
8
BLACK
6
CONTINUOUS
10
3.19356
20
-2.71414
11
3.19375
21
-2.71418
0
LINE
8
BLACK
6
CONTINUOUS
10
3.19375
20
-2.71418
11
3.19394
21
-2.7141
0
LINE
8
BLACK
6
CONTINUOUS
10
3.19394
20
-2.7141
11
3.21166
21
-2.7141
0
LINE
8
BLACK
6
CONTINUOUS
10
3.21166
20
-2.7141
11
3.21166
21
-2.71044
0
LINE
8
BLACK
6
CONTINUOUS
10
3.21166
20
-2.71044
11
3.21223
21
-2.70905
0
LINE
8
BLACK
6
CONTINUOUS
10
3.21223
20
-2.70905
11
3.21363
21
-2.70847
0
LINE
8
BLACK
6
CONTINUOUS
10
3.21363
20
-2.70847
11
3.21502
21
-2.70905
0
LINE
8
BLACK
6
CONTINUOUS
10
2.99847
20
-2.69091
11
2.99939
21
-2.69211
0
LINE
8
BLACK
6
CONTINUOUS
10
2.99939
20
-2.69211
11
2.99919
21
-2.6936
0
LINE
8
BLACK
6
CONTINUOUS
10
2.99919
20
-2.6936
11
2.98639
21
-2.71576
0
LINE
8
BLACK
6
CONTINUOUS
10
2.98639
20
-2.71576
11
2.9852
21
-2.71668
0
LINE
8
BLACK
6
CONTINUOUS
10
2.9852
20
-2.71668
11
2.9852
21
-2.71668
0
LINE
8
BLACK
6
CONTINUOUS
10
2.9852
20
-2.71668
11
2.9852
21
-2.71668
0
LINE
8
BLACK
6
CONTINUOUS
10
2.9852
20
-2.71668
11
2.98371
21
-2.71648
0
LINE
8
BLACK
6
CONTINUOUS
10
2.98371
20
-2.71648
11
2.96154
21
-2.70369
0
LINE
8
BLACK
6
CONTINUOUS
10
2.96154
20
-2.70369
11
2.96063
21
-2.70249
0
LINE
8
BLACK
6
CONTINUOUS
10
2.96063
20
-2.70249
11
2.96082
21
-2.701
0
LINE
8
BLACK
6
CONTINUOUS
10
2.96082
20
-2.701
11
2.96202
21
-2.70008
0
LINE
8
BLACK
6
CONTINUOUS
10
2.96202
20
-2.70008
11
2.96351
21
-2.70028
0
LINE
8
BLACK
6
CONTINUOUS
10
2.96351
20
-2.70028
11
2.98397
21
-2.71209
0
LINE
8
BLACK
6
CONTINUOUS
10
2.98397
20
-2.71209
11
2.99578
21
-2.69163
0
LINE
8
BLACK
6
CONTINUOUS
10
2.99578
20
-2.69163
11
2.99698
21
-2.69071
0
LINE
8
BLACK
6
CONTINUOUS
10
2.99698
20
-2.69071
11
2.99847
21
-2.69091
0
LINE
8
BLACK
6
CONTINUOUS
10
3.0129
20
-2.69526
11
3.01311
21
-2.69536
0
LINE
8
BLACK
6
CONTINUOUS
10
3.01311
20
-2.69536
11
3.01333
21
-2.69534
0
LINE
8
BLACK
6
CONTINUOUS
10
3.01333
20
-2.69534
11
3.01704
21
-2.6964
0
LINE
8
BLACK
6
CONTINUOUS
10
3.01704
20
-2.6964
11
3.01724
21
-2.69655
0
LINE
8
BLACK
6
CONTINUOUS
10
3.01724
20
-2.69655
11
3.01749
21
-2.69659
0
LINE
8
BLACK
6
CONTINUOUS
10
3.01749
20
-2.69659
11
3.01992
21
-2.69799
0
LINE
8
BLACK
6
CONTINUOUS
10
3.01992
20
-2.69799
11
3.02007
21
-2.69819
0
LINE
8
BLACK
6
CONTINUOUS
10
3.02007
20
-2.69819
11
3.02031
21
-2.69828
0
LINE
8
BLACK
6
CONTINUOUS
10
3.02031
20
-2.69828
11
3.02308
21
-2.70097
0
LINE
8
BLACK
6
CONTINUOUS
10
3.02308
20
-2.70097
11
3.02317
21
-2.70117
0
LINE
8
BLACK
6
CONTINUOUS
10
3.02317
20
-2.70117
11
3.02336
21
-2.7013
0
LINE
8
BLACK
6
CONTINUOUS
10
3.02336
20
-2.7013
11
3.02451
21
-2.70305
0
LINE
8
BLACK
6
CONTINUOUS
10
3.02451
20
-2.70305
11
3.02457
21
-2.70337
0
LINE
8
BLACK
6
CONTINUOUS
10
3.02457
20
-2.70337
11
3.02477
21
-2.70362
0
LINE
8
BLACK
6
CONTINUOUS
10
3.02477
20
-2.70362
11
3.02546
21
-2.70618
0
LINE
8
BLACK
6
CONTINUOUS
10
3.02546
20
-2.70618
11
3.0254
21
-2.70664
0
LINE
8
BLACK
6
CONTINUOUS
10
3.0254
20
-2.70664
11
3.02549
21
-2.70709
0
LINE
8
BLACK
6
CONTINUOUS
10
3.02549
20
-2.70709
11
3.02489
21
-2.70999
0
LINE
8
BLACK
6
CONTINUOUS
10
3.02489
20
-2.70999
11
3.02471
21
-2.71026
0
LINE
8
BLACK
6
CONTINUOUS
10
3.02471
20
-2.71026
11
3.02467
21
-2.71058
0
LINE
8
BLACK
6
CONTINUOUS
10
3.02467
20
-2.71058
11
3.02232
21
-2.71464
0
LINE
8
BLACK
6
CONTINUOUS
10
3.02232
20
-2.71464
11
3.02113
21
-2.71556
0
LINE
8
BLACK
6
CONTINUOUS
10
3.02113
20
-2.71556
11
3.02113
21
-2.71556
0
LINE
8
BLACK
6
CONTINUOUS
10
3.02113
20
-2.71556
11
3.02113
21
-2.71556
0
LINE
8
BLACK
6
CONTINUOUS
10
3.02113
20
-2.71556
11
3.01963
21
-2.71536
0
LINE
8
BLACK
6
CONTINUOUS
10
3.01963
20
-2.71536
11
3.00259
21
-2.70552
0
LINE
8
BLACK
6
CONTINUOUS
10
3.00259
20
-2.70552
11
3.00167
21
-2.70432
0
LINE
8
BLACK
6
CONTINUOUS
10
3.00167
20
-2.70432
11
3.00187
21
-2.70283
0
LINE
8
BLACK
6
CONTINUOUS
10
3.00187
20
-2.70283
11
3.00421
21
-2.69877
0
LINE
8
BLACK
6
CONTINUOUS
10
3.00421
20
-2.69877
11
3.00447
21
-2.69857
0
LINE
8
BLACK
6
CONTINUOUS
10
3.00447
20
-2.69857
11
3.00461
21
-2.69828
0
LINE
8
BLACK
6
CONTINUOUS
10
3.00461
20
-2.69828
11
3.00683
21
-2.69632
0
LINE
8
BLACK
6
CONTINUOUS
10
3.00683
20
-2.69632
11
3.00726
21
-2.69617
0
LINE
8
BLACK
6
CONTINUOUS
10
3.00726
20
-2.69617
11
3.00762
21
-2.69589
0
LINE
8
BLACK
6
CONTINUOUS
10
3.00762
20
-2.69589
11
3.01018
21
-2.6952
0
LINE
8
BLACK
6
CONTINUOUS
10
3.01018
20
-2.6952
11
3.01051
21
-2.69524
0
LINE
8
BLACK
6
CONTINUOUS
10
3.01051
20
-2.69524
11
3.01081
21
-2.69514
0
LINE
8
BLACK
6
CONTINUOUS
10
3.01081
20
-2.69514
11
3.0129
21
-2.69526
0
LINE
8
BLACK
6
CONTINUOUS
10
3.00909
20
-2.69957
11
3.00746
21
-2.70102
0
LINE
8
BLACK
6
CONTINUOUS
10
3.00746
20
-2.70102
11
3.00626
21
-2.70309
0
LINE
8
BLACK
6
CONTINUOUS
10
3.00626
20
-2.70309
11
3.0199
21
-2.71097
0
LINE
8
BLACK
6
CONTINUOUS
10
3.0199
20
-2.71097
11
3.0211
21
-2.70889
0
LINE
8
BLACK
6
CONTINUOUS
10
3.0211
20
-2.70889
11
3.02154
21
-2.70675
0
LINE
8
BLACK
6
CONTINUOUS
10
3.02154
20
-2.70675
11
3.02105
21
-2.70495
0
LINE
8
BLACK
6
CONTINUOUS
10
3.02105
20
-2.70495
11
3.02019
21
-2.70365
0
LINE
8
BLACK
6
CONTINUOUS
10
3.02019
20
-2.70365
11
3.01774
21
-2.70128
0
LINE
8
BLACK
6
CONTINUOUS
10
3.01774
20
-2.70128
11
3.01573
21
-2.70012
0
LINE
8
BLACK
6
CONTINUOUS
10
3.01573
20
-2.70012
11
3.01245
21
-2.69918
0
LINE
8
BLACK
6
CONTINUOUS
10
3.01245
20
-2.69918
11
3.01089
21
-2.69909
0
LINE
8
BLACK
6
CONTINUOUS
10
3.01089
20
-2.69909
11
3.00909
21
-2.69957
0
LINE
8
BLACK
6
CONTINUOUS
10
3.20636
20
-2.68982
11
3.2066
21
-2.68979
0
LINE
8
BLACK
6
CONTINUOUS
10
3.2066
20
-2.68979
11
3.21035
21
-2.69072
0
LINE
8
BLACK
6
CONTINUOUS
10
3.21035
20
-2.69072
11
3.21053
21
-2.69086
0
LINE
8
BLACK
6
CONTINUOUS
10
3.21053
20
-2.69086
11
3.21076
21
-2.69087
0
LINE
8
BLACK
6
CONTINUOUS
10
3.21076
20
-2.69087
11
3.21263
21
-2.69181
0
LINE
8
BLACK
6
CONTINUOUS
10
3.21263
20
-2.69181
11
3.21284
21
-2.69205
0
LINE
8
BLACK
6
CONTINUOUS
10
3.21284
20
-2.69205
11
3.21314
21
-2.69218
0
LINE
8
BLACK
6
CONTINUOUS
10
3.21314
20
-2.69218
11
3.21408
21
-2.69311
0
LINE
8
BLACK
6
CONTINUOUS
10
3.21408
20
-2.69311
11
3.2142
21
-2.69341
0
LINE
8
BLACK
6
CONTINUOUS
10
3.2142
20
-2.69341
11
3.21445
21
-2.69363
0
LINE
8
BLACK
6
CONTINUOUS
10
3.21445
20
-2.69363
11
3.21539
21
-2.6955
0
LINE
8
BLACK
6
CONTINUOUS
10
3.21539
20
-2.6955
11
3.21542
21
-2.69596
0
LINE
8
BLACK
6
CONTINUOUS
10
3.21542
20
-2.69596
11
3.21559
21
-2.69638
0
LINE
8
BLACK
6
CONTINUOUS
10
3.21559
20
-2.69638
11
3.21559
21
-2.69826
0
LINE
8
BLACK
6
CONTINUOUS
10
3.21559
20
-2.69826
11
3.21542
21
-2.69868
0
LINE
8
BLACK
6
CONTINUOUS
10
3.21542
20
-2.69868
11
3.21539
21
-2.69914
0
LINE
8
BLACK
6
CONTINUOUS
10
3.21539
20
-2.69914
11
3.21445
21
-2.70101
0
LINE
8
BLACK
6
CONTINUOUS
10
3.21445
20
-2.70101
11
3.2142
21
-2.70122
0
LINE
8
BLACK
6
CONTINUOUS
10
3.2142
20
-2.70122
11
3.21408
21
-2.70152
0
LINE
8
BLACK
6
CONTINUOUS
10
3.21408
20
-2.70152
11
3.21314
21
-2.70246
0
LINE
8
BLACK
6
CONTINUOUS
10
3.21314
20
-2.70246
11
3.21284
21
-2.70258
0
LINE
8
BLACK
6
CONTINUOUS
10
3.21284
20
-2.70258
11
3.21263
21
-2.70283
0
LINE
8
BLACK
6
CONTINUOUS
10
3.21263
20
-2.70283
11
3.21076
21
-2.70377
0
LINE
8
BLACK
6
CONTINUOUS
10
3.21076
20
-2.70377
11
3.21053
21
-2.70378
0
LINE
8
BLACK
6
CONTINUOUS
10
3.21053
20
-2.70378
11
3.21035
21
-2.70392
0
LINE
8
BLACK
6
CONTINUOUS
10
3.21035
20
-2.70392
11
3.2066
21
-2.70485
0
LINE
8
BLACK
6
CONTINUOUS
10
3.2066
20
-2.70485
11
3.20636
21
-2.70482
0
LINE
8
BLACK
6
CONTINUOUS
10
3.20636
20
-2.70482
11
3.20613
21
-2.70491
0
LINE
8
BLACK
6
CONTINUOUS
10
3.20613
20
-2.70491
11
3.20144
21
-2.70491
0
LINE
8
BLACK
6
CONTINUOUS
10
3.20144
20
-2.70491
11
3.20121
21
-2.70482
0
LINE
8
BLACK
6
CONTINUOUS
10
3.20121
20
-2.70482
11
3.20096
21
-2.70485
0
LINE
8
BLACK
6
CONTINUOUS
10
3.20096
20
-2.70485
11
3.19721
21
-2.70392
0
LINE
8
BLACK
6
CONTINUOUS
10
3.19721
20
-2.70392
11
3.19703
21
-2.70378
0
LINE
8
BLACK
6
CONTINUOUS
10
3.19703
20
-2.70378
11
3.19681
21
-2.70377
0
LINE
8
BLACK
6
CONTINUOUS
10
3.19681
20
-2.70377
11
3.19494
21
-2.70283
0
LINE
8
BLACK
6
CONTINUOUS
10
3.19494
20
-2.70283
11
3.19472
21
-2.70258
0
LINE
8
BLACK
6
CONTINUOUS
10
3.19472
20
-2.70258
11
3.19442
21
-2.70246
0
LINE
8
BLACK
6
CONTINUOUS
10
3.19442
20
-2.70246
11
3.19349
21
-2.70152
0
LINE
8
BLACK
6
CONTINUOUS
10
3.19349
20
-2.70152
11
3.19336
21
-2.70122
0
LINE
8
BLACK
6
CONTINUOUS
10
3.19336
20
-2.70122
11
3.19312
21
-2.70101
0
LINE
8
BLACK
6
CONTINUOUS
10
3.19312
20
-2.70101
11
3.19218
21
-2.69914
0
LINE
8
BLACK
6
CONTINUOUS
10
3.19218
20
-2.69914
11
3.19215
21
-2.69868
0
LINE
8
BLACK
6
CONTINUOUS
10
3.19215
20
-2.69868
11
3.19197
21
-2.69826
0
LINE
8
BLACK
6
CONTINUOUS
10
3.19197
20
-2.69826
11
3.19197
21
-2.69638
0
LINE
8
BLACK
6
CONTINUOUS
10
3.19197
20
-2.69638
11
3.19215
21
-2.69596
0
LINE
8
BLACK
6
CONTINUOUS
10
3.19215
20
-2.69596
11
3.19218
21
-2.6955
0
LINE
8
BLACK
6
CONTINUOUS
10
3.19218
20
-2.6955
11
3.19312
21
-2.69363
0
LINE
8
BLACK
6
CONTINUOUS
10
3.19312
20
-2.69363
11
3.19336
21
-2.69341
0
LINE
8
BLACK
6
CONTINUOUS
10
3.19336
20
-2.69341
11
3.19349
21
-2.69312
0
LINE
8
BLACK
6
CONTINUOUS
10
3.19349
20
-2.69312
11
3.19442
21
-2.69218
0
LINE
8
BLACK
6
CONTINUOUS
10
3.19442
20
-2.69218
11
3.19472
21
-2.69205
0
LINE
8
BLACK
6
CONTINUOUS
10
3.19472
20
-2.69205
11
3.19494
21
-2.69181
0
LINE
8
BLACK
6
CONTINUOUS
10
3.19494
20
-2.69181
11
3.19681
21
-2.69087
0
LINE
8
BLACK
6
CONTINUOUS
10
3.19681
20
-2.69087
11
3.19703
21
-2.69086
0
LINE
8
BLACK
6
CONTINUOUS
10
3.19703
20
-2.69086
11
3.19721
21
-2.69072
0
LINE
8
BLACK
6
CONTINUOUS
10
3.19721
20
-2.69072
11
3.20096
21
-2.68979
0
LINE
8
BLACK
6
CONTINUOUS
10
3.20096
20
-2.68979
11
3.20121
21
-2.68982
0
LINE
8
BLACK
6
CONTINUOUS
10
3.20121
20
-2.68982
11
3.20144
21
-2.68973
0
LINE
8
BLACK
6
CONTINUOUS
10
3.20144
20
-2.68973
11
3.20613
21
-2.68973
0
LINE
8
BLACK
6
CONTINUOUS
10
3.20613
20
-2.68973
11
3.20636
21
-2.68982
0
LINE
8
BLACK
6
CONTINUOUS
10
3.19838
20
-2.69449
11
3.19698
21
-2.69519
0
LINE
8
BLACK
6
CONTINUOUS
10
3.19698
20
-2.69519
11
3.1965
21
-2.69567
0
LINE
8
BLACK
6
CONTINUOUS
10
3.1965
20
-2.69567
11
3.19591
21
-2.69685
0
LINE
8
BLACK
6
CONTINUOUS
10
3.19591
20
-2.69685
11
3.19591
21
-2.69779
0
LINE
8
BLACK
6
CONTINUOUS
10
3.19591
20
-2.69779
11
3.1965
21
-2.69897
0
LINE
8
BLACK
6
CONTINUOUS
10
3.1965
20
-2.69897
11
3.19698
21
-2.69945
0
LINE
8
BLACK
6
CONTINUOUS
10
3.19698
20
-2.69945
11
3.19838
21
-2.70015
0
LINE
8
BLACK
6
CONTINUOUS
10
3.19838
20
-2.70015
11
3.20168
21
-2.70097
0
LINE
8
BLACK
6
CONTINUOUS
10
3.20168
20
-2.70097
11
3.20588
21
-2.70097
0
LINE
8
BLACK
6
CONTINUOUS
10
3.20588
20
-2.70097
11
3.20919
21
-2.70015
0
LINE
8
BLACK
6
CONTINUOUS
10
3.20919
20
-2.70015
11
3.21059
21
-2.69945
0
LINE
8
BLACK
6
CONTINUOUS
10
3.21059
20
-2.69945
11
3.21107
21
-2.69897
0
LINE
8
BLACK
6
CONTINUOUS
10
3.21107
20
-2.69897
11
3.21166
21
-2.69779
0
LINE
8
BLACK
6
CONTINUOUS
10
3.21166
20
-2.69779
11
3.21166
21
-2.69685
0
LINE
8
BLACK
6
CONTINUOUS
10
3.21166
20
-2.69685
11
3.21107
21
-2.69567
0
LINE
8
BLACK
6
CONTINUOUS
10
3.21107
20
-2.69567
11
3.21059
21
-2.69519
0
LINE
8
BLACK
6
CONTINUOUS
10
3.21059
20
-2.69519
11
3.20919
21
-2.69449
0
LINE
8
BLACK
6
CONTINUOUS
10
3.20919
20
-2.69449
11
3.20588
21
-2.69366
0
LINE
8
BLACK
6
CONTINUOUS
10
3.20588
20
-2.69366
11
3.20168
21
-2.69366
0
LINE
8
BLACK
6
CONTINUOUS
10
3.20168
20
-2.69366
11
3.19838
21
-2.69449
0
LINE
8
BLACK
6
CONTINUOUS
10
3.02193
20
-2.67775
11
3.02235
21
-2.67795
0
LINE
8
BLACK
6
CONTINUOUS
10
3.02235
20
-2.67795
11
3.0228
21
-2.67801
0
LINE
8
BLACK
6
CONTINUOUS
10
3.0228
20
-2.67801
11
3.0293
21
-2.68176
0
LINE
8
BLACK
6
CONTINUOUS
10
3.0293
20
-2.68176
11
3.02945
21
-2.68195
0
LINE
8
BLACK
6
CONTINUOUS
10
3.02945
20
-2.68195
11
3.02968
21
-2.68205
0
LINE
8
BLACK
6
CONTINUOUS
10
3.02968
20
-2.68205
11
3.03246
21
-2.68473
0
LINE
8
BLACK
6
CONTINUOUS
10
3.03246
20
-2.68473
11
3.0326
21
-2.68505
0
LINE
8
BLACK
6
CONTINUOUS
10
3.0326
20
-2.68505
11
3.03285
21
-2.68528
0
LINE
8
BLACK
6
CONTINUOUS
10
3.03285
20
-2.68528
11
3.03435
21
-2.6883
0
LINE
8
BLACK
6
CONTINUOUS
10
3.03435
20
-2.6883
11
3.03437
21
-2.68851
0
LINE
8
BLACK
6
CONTINUOUS
10
3.03437
20
-2.68851
11
3.03449
21
-2.68867
0
LINE
8
BLACK
6
CONTINUOUS
10
3.03449
20
-2.68867
11
3.03483
21
-2.68995
0
LINE
8
BLACK
6
CONTINUOUS
10
3.03483
20
-2.68995
11
3.03479
21
-2.69027
0
LINE
8
BLACK
6
CONTINUOUS
10
3.03479
20
-2.69027
11
3.0349
21
-2.69058
0
LINE
8
BLACK
6
CONTINUOUS
10
3.0349
20
-2.69058
11
3.03477
21
-2.69267
0
LINE
8
BLACK
6
CONTINUOUS
10
3.03477
20
-2.69267
11
3.03457
21
-2.69308
0
LINE
8
BLACK
6
CONTINUOUS
10
3.03457
20
-2.69308
11
3.03451
21
-2.69353
0
LINE
8
BLACK
6
CONTINUOUS
10
3.03451
20
-2.69353
11
3.03264
21
-2.69678
0
LINE
8
BLACK
6
CONTINUOUS
10
3.03264
20
-2.69678
11
3.03144
21
-2.6977
0
LINE
8
BLACK
6
CONTINUOUS
10
3.03144
20
-2.6977
11
3.02995
21
-2.6975
0
LINE
8
BLACK
6
CONTINUOUS
10
3.02995
20
-2.6975
11
3.02903
21
-2.69631
0
LINE
8
BLACK
6
CONTINUOUS
10
3.02903
20
-2.69631
11
3.02923
21
-2.69481
0
LINE
8
BLACK
6
CONTINUOUS
10
3.02923
20
-2.69481
11
3.03087
21
-2.69197
0
LINE
8
BLACK
6
CONTINUOUS
10
3.03087
20
-2.69197
11
3.03095
21
-2.69066
0
LINE
8
BLACK
6
CONTINUOUS
10
3.03095
20
-2.69066
11
3.03074
21
-2.68988
0
LINE
8
BLACK
6
CONTINUOUS
10
3.03074
20
-2.68988
11
3.02948
21
-2.68733
0
LINE
8
BLACK
6
CONTINUOUS
10
3.02948
20
-2.68733
11
3.02923
21
-2.68708
0
LINE
8
BLACK
6
CONTINUOUS
10
3.02923
20
-2.68708
11
3.02921
21
-2.6873
0
LINE
8
BLACK
6
CONTINUOUS
10
3.02921
20
-2.6873
11
3.02901
21
-2.68771
0
LINE
8
BLACK
6
CONTINUOUS
10
3.02901
20
-2.68771
11
3.02895
21
-2.68816
0
LINE
8
BLACK
6
CONTINUOUS
10
3.02895
20
-2.68816
11
3.02708
21
-2.69141
0
LINE
8
BLACK
6
CONTINUOUS
10
3.02708
20
-2.69141
11
3.02671
21
-2.69169
0
LINE
8
BLACK
6
CONTINUOUS
10
3.02671
20
-2.69169
11
3.02646
21
-2.69207
0
LINE
8
BLACK
6
CONTINUOUS
10
3.02646
20
-2.69207
11
3.02471
21
-2.69322
0
LINE
8
BLACK
6
CONTINUOUS
10
3.02471
20
-2.69322
11
3.02439
21
-2.69328
0
LINE
8
BLACK
6
CONTINUOUS
10
3.02439
20
-2.69328
11
3.02413
21
-2.69348
0
LINE
8
BLACK
6
CONTINUOUS
10
3.02413
20
-2.69348
11
3.02285
21
-2.69382
0
LINE
8
BLACK
6
CONTINUOUS
10
3.02285
20
-2.69382
11
3.02253
21
-2.69378
0
LINE
8
BLACK
6
CONTINUOUS
10
3.02253
20
-2.69378
11
3.02223
21
-2.69389
0
LINE
8
BLACK
6
CONTINUOUS
10
3.02223
20
-2.69389
11
3.02013
21
-2.69376
0
LINE
8
BLACK
6
CONTINUOUS
10
3.02013
20
-2.69376
11
3.01972
21
-2.69356
0
LINE
8
BLACK
6
CONTINUOUS
10
3.01972
20
-2.69356
11
3.01927
21
-2.6935
0
LINE
8
BLACK
6
CONTINUOUS
10
3.01927
20
-2.6935
11
3.01521
21
-2.69116
0
LINE
8
BLACK
6
CONTINUOUS
10
3.01521
20
-2.69116
11
3.01493
21
-2.69079
0
LINE
8
BLACK
6
CONTINUOUS
10
3.01493
20
-2.69079
11
3.01455
21
-2.69054
0
LINE
8
BLACK
6
CONTINUOUS
10
3.01455
20
-2.69054
11
3.01339
21
-2.68879
0
LINE
8
BLACK
6
CONTINUOUS
10
3.01339
20
-2.68879
11
3.01333
21
-2.68847
0
LINE
8
BLACK
6
CONTINUOUS
10
3.01333
20
-2.68847
11
3.01314
21
-2.68821
0
LINE
8
BLACK
6
CONTINUOUS
10
3.01314
20
-2.68821
11
3.01279
21
-2.68693
0
LINE
8
BLACK
6
CONTINUOUS
10
3.01279
20
-2.68693
11
3.01284
21
-2.68661
0
LINE
8
BLACK
6
CONTINUOUS
10
3.01284
20
-2.68661
11
3.01273
21
-2.68631
0
LINE
8
BLACK
6
CONTINUOUS
10
3.01273
20
-2.68631
11
3.01286
21
-2.68421
0
LINE
8
BLACK
6
CONTINUOUS
10
3.01286
20
-2.68421
11
3.01306
21
-2.6838
0
LINE
8
BLACK
6
CONTINUOUS
10
3.01306
20
-2.6838
11
3.01312
21
-2.68335
0
LINE
8
BLACK
6
CONTINUOUS
10
3.01312
20
-2.68335
11
3.01499
21
-2.6801
0
LINE
8
BLACK
6
CONTINUOUS
10
3.01499
20
-2.6801
11
3.01535
21
-2.67982
0
LINE
8
BLACK
6
CONTINUOUS
10
3.01535
20
-2.67982
11
3.01561
21
-2.67944
0
LINE
8
BLACK
6
CONTINUOUS
10
3.01561
20
-2.67944
11
3.01736
21
-2.67829
0
LINE
8
BLACK
6
CONTINUOUS
10
3.01736
20
-2.67829
11
3.01768
21
-2.67823
0
LINE
8
BLACK
6
CONTINUOUS
10
3.01768
20
-2.67823
11
3.01793
21
-2.67803
0
LINE
8
BLACK
6
CONTINUOUS
10
3.01793
20
-2.67803
11
3.01922
21
-2.67768
0
LINE
8
BLACK
6
CONTINUOUS
10
3.01922
20
-2.67768
11
3.01954
21
-2.67773
0
LINE
8
BLACK
6
CONTINUOUS
10
3.01954
20
-2.67773
11
3.01984
21
-2.67762
0
LINE
8
BLACK
6
CONTINUOUS
10
3.01984
20
-2.67762
11
3.02193
21
-2.67775
0
LINE
8
BLACK
6
CONTINUOUS
10
3.01926
20
-2.68175
11
3.01817
21
-2.68247
0
LINE
8
BLACK
6
CONTINUOUS
10
3.01817
20
-2.68247
11
3.01676
21
-2.68491
0
LINE
8
BLACK
6
CONTINUOUS
10
3.01676
20
-2.68491
11
3.01668
21
-2.68622
0
LINE
8
BLACK
6
CONTINUOUS
10
3.01668
20
-2.68622
11
3.01686
21
-2.68689
0
LINE
8
BLACK
6
CONTINUOUS
10
3.01686
20
-2.68689
11
3.01758
21
-2.68798
0
LINE
8
BLACK
6
CONTINUOUS
10
3.01758
20
-2.68798
11
3.02083
21
-2.68986
0
LINE
8
BLACK
6
CONTINUOUS
10
3.02083
20
-2.68986
11
3.02214
21
-2.68994
0
LINE
8
BLACK
6
CONTINUOUS
10
3.02214
20
-2.68994
11
3.02281
21
-2.68976
0
LINE
8
BLACK
6
CONTINUOUS
10
3.02281
20
-2.68976
11
3.0239
21
-2.68904
0
LINE
8
BLACK
6
CONTINUOUS
10
3.0239
20
-2.68904
11
3.02531
21
-2.6866
0
LINE
8
BLACK
6
CONTINUOUS
10
3.02531
20
-2.6866
11
3.02539
21
-2.68529
0
LINE
8
BLACK
6
CONTINUOUS
10
3.02539
20
-2.68529
11
3.02521
21
-2.68462
0
LINE
8
BLACK
6
CONTINUOUS
10
3.02521
20
-2.68462
11
3.02449
21
-2.68353
0
LINE
8
BLACK
6
CONTINUOUS
10
3.02449
20
-2.68353
11
3.02123
21
-2.68165
0
LINE
8
BLACK
6
CONTINUOUS
10
3.02123
20
-2.68165
11
3.01993
21
-2.68157
0
LINE
8
BLACK
6
CONTINUOUS
10
3.01993
20
-2.68157
11
3.01926
21
-2.68175
0
LINE
8
BLACK
6
CONTINUOUS
10
3.36139
20
-2.65817
11
3.37419
21
-2.68033
0
LINE
8
BLACK
6
CONTINUOUS
10
3.37419
20
-2.68033
11
3.37439
21
-2.68182
0
LINE
8
BLACK
6
CONTINUOUS
10
3.37439
20
-2.68182
11
3.37439
21
-2.68182
0
LINE
8
BLACK
6
CONTINUOUS
10
3.37439
20
-2.68182
11
3.37347
21
-2.68302
0
LINE
8
BLACK
6
CONTINUOUS
10
3.37347
20
-2.68302
11
3.35131
21
-2.69581
0
LINE
8
BLACK
6
CONTINUOUS
10
3.35131
20
-2.69581
11
3.34981
21
-2.69601
0
LINE
8
BLACK
6
CONTINUOUS
10
3.34981
20
-2.69601
11
3.34862
21
-2.69509
0
LINE
8
BLACK
6
CONTINUOUS
10
3.34862
20
-2.69509
11
3.34842
21
-2.6936
0
LINE
8
BLACK
6
CONTINUOUS
10
3.34842
20
-2.6936
11
3.34934
21
-2.6924
0
LINE
8
BLACK
6
CONTINUOUS
10
3.34934
20
-2.6924
11
3.3698
21
-2.68059
0
LINE
8
BLACK
6
CONTINUOUS
10
3.3698
20
-2.68059
11
3.35799
21
-2.66014
0
LINE
8
BLACK
6
CONTINUOUS
10
3.35799
20
-2.66014
11
3.35779
21
-2.65864
0
LINE
8
BLACK
6
CONTINUOUS
10
3.35779
20
-2.65864
11
3.35871
21
-2.65745
0
LINE
8
BLACK
6
CONTINUOUS
10
3.35871
20
-2.65745
11
3.3602
21
-2.65725
0
LINE
8
BLACK
6
CONTINUOUS
10
3.3602
20
-2.65725
11
3.36139
21
-2.65817
0
LINE
8
BLACK
6
CONTINUOUS
10
3.17368
20
-2.6757
11
3.17411
21
-2.67674
0
LINE
8
BLACK
6
CONTINUOUS
10
3.17411
20
-2.67674
11
3.17411
21
-2.68349
0
LINE
8
BLACK
6
CONTINUOUS
10
3.17411
20
-2.68349
11
3.17368
21
-2.68454
0
LINE
8
BLACK
6
CONTINUOUS
10
3.17368
20
-2.68454
11
3.17263
21
-2.68497
0
LINE
8
BLACK
6
CONTINUOUS
10
3.17263
20
-2.68497
11
3.17159
21
-2.68454
0
LINE
8
BLACK
6
CONTINUOUS
10
3.17159
20
-2.68454
11
3.17116
21
-2.68349
0
LINE
8
BLACK
6
CONTINUOUS
10
3.17116
20
-2.68349
11
3.17116
21
-2.68159
0
LINE
8
BLACK
6
CONTINUOUS
10
3.17116
20
-2.68159
11
3.16482
21
-2.68159
0
LINE
8
BLACK
6
CONTINUOUS
10
3.16482
20
-2.68159
11
3.16495
21
-2.68171
0
LINE
8
BLACK
6
CONTINUOUS
10
3.16495
20
-2.68171
11
3.16552
21
-2.68283
0
LINE
8
BLACK
6
CONTINUOUS
10
3.16552
20
-2.68283
11
3.1656
21
-2.68396
0
LINE
8
BLACK
6
CONTINUOUS
10
3.1656
20
-2.68396
11
3.16486
21
-2.68481
0
LINE
8
BLACK
6
CONTINUOUS
10
3.16486
20
-2.68481
11
3.16373
21
-2.68489
0
LINE
8
BLACK
6
CONTINUOUS
10
3.16373
20
-2.68489
11
3.16288
21
-2.68415
0
LINE
8
BLACK
6
CONTINUOUS
10
3.16288
20
-2.68415
11
3.16242
21
-2.68324
0
LINE
8
BLACK
6
CONTINUOUS
10
3.16242
20
-2.68324
11
3.16157
21
-2.68239
0
LINE
8
BLACK
6
CONTINUOUS
10
3.16157
20
-2.68239
11
3.16
21
-2.68135
0
LINE
8
BLACK
6
CONTINUOUS
10
3.16
20
-2.68135
11
3.15992
21
-2.68122
0
LINE
8
BLACK
6
CONTINUOUS
10
3.15992
20
-2.68122
11
3.15978
21
-2.68116
0
LINE
8
BLACK
6
CONTINUOUS
10
3.15978
20
-2.68116
11
3.15961
21
-2.68076
0
LINE
8
BLACK
6
CONTINUOUS
10
3.15961
20
-2.68076
11
3.15937
21
-2.68041
0
LINE
8
BLACK
6
CONTINUOUS
10
3.15937
20
-2.68041
11
3.1594
21
-2.68026
0
LINE
8
BLACK
6
CONTINUOUS
10
3.1594
20
-2.68026
11
3.15935
21
-2.68012
0
LINE
8
BLACK
6
CONTINUOUS
10
3.15935
20
-2.68012
11
3.15951
21
-2.67972
0
LINE
8
BLACK
6
CONTINUOUS
10
3.15951
20
-2.67972
11
3.15959
21
-2.6793
0
LINE
8
BLACK
6
CONTINUOUS
10
3.15959
20
-2.6793
11
3.15972
21
-2.67921
0
LINE
8
BLACK
6
CONTINUOUS
10
3.15972
20
-2.67921
11
3.15978
21
-2.67907
0
LINE
8
BLACK
6
CONTINUOUS
10
3.15978
20
-2.67907
11
3.16018
21
-2.67891
0
LINE
8
BLACK
6
CONTINUOUS
10
3.16018
20
-2.67891
11
3.16053
21
-2.67867
0
LINE
8
BLACK
6
CONTINUOUS
10
3.16053
20
-2.67867
11
3.16068
21
-2.6787
0
LINE
8
BLACK
6
CONTINUOUS
10
3.16068
20
-2.6787
11
3.16082
21
-2.67864
0
LINE
8
BLACK
6
CONTINUOUS
10
3.16082
20
-2.67864
11
3.17116
21
-2.67864
0
LINE
8
BLACK
6
CONTINUOUS
10
3.17116
20
-2.67864
11
3.17116
21
-2.67674
0
LINE
8
BLACK
6
CONTINUOUS
10
3.17116
20
-2.67674
11
3.17159
21
-2.6757
0
LINE
8
BLACK
6
CONTINUOUS
10
3.17159
20
-2.6757
11
3.17263
21
-2.67527
0
LINE
8
BLACK
6
CONTINUOUS
10
3.17263
20
-2.67527
11
3.17368
21
-2.6757
0
LINE
8
BLACK
6
CONTINUOUS
10
3.38685
20
-2.64905
11
3.38834
21
-2.65003
0
LINE
8
BLACK
6
CONTINUOUS
10
3.38834
20
-2.65003
11
3.3904
21
-2.65059
0
LINE
8
BLACK
6
CONTINUOUS
10
3.3904
20
-2.65059
11
3.39358
21
-2.65079
0
LINE
8
BLACK
6
CONTINUOUS
10
3.39358
20
-2.65079
11
3.39376
21
-2.65088
0
LINE
8
BLACK
6
CONTINUOUS
10
3.39376
20
-2.65088
11
3.39396
21
-2.65085
0
LINE
8
BLACK
6
CONTINUOUS
10
3.39396
20
-2.65085
11
3.39442
21
-2.6512
0
LINE
8
BLACK
6
CONTINUOUS
10
3.39442
20
-2.6512
11
3.39493
21
-2.65146
0
LINE
8
BLACK
6
CONTINUOUS
10
3.39493
20
-2.65146
11
3.395
21
-2.65165
0
LINE
8
BLACK
6
CONTINUOUS
10
3.395
20
-2.65165
11
3.39516
21
-2.65177
0
LINE
8
BLACK
6
CONTINUOUS
10
3.39516
20
-2.65177
11
3.39523
21
-2.65234
0
LINE
8
BLACK
6
CONTINUOUS
10
3.39523
20
-2.65234
11
3.39542
21
-2.65288
0
LINE
8
BLACK
6
CONTINUOUS
10
3.39542
20
-2.65288
11
3.39533
21
-2.65306
0
LINE
8
BLACK
6
CONTINUOUS
10
3.39533
20
-2.65306
11
3.39535
21
-2.65326
0
LINE
8
BLACK
6
CONTINUOUS
10
3.39535
20
-2.65326
11
3.395
21
-2.65372
0
LINE
8
BLACK
6
CONTINUOUS
10
3.395
20
-2.65372
11
3.39475
21
-2.65423
0
LINE
8
BLACK
6
CONTINUOUS
10
3.39475
20
-2.65423
11
3.39456
21
-2.6543
0
LINE
8
BLACK
6
CONTINUOUS
10
3.39456
20
-2.6543
11
3.39444
21
-2.65446
0
LINE
8
BLACK
6
CONTINUOUS
10
3.39444
20
-2.65446
11
3.37909
21
-2.66332
0
LINE
8
BLACK
6
CONTINUOUS
10
3.37909
20
-2.66332
11
3.38092
21
-2.66648
0
LINE
8
BLACK
6
CONTINUOUS
10
3.38092
20
-2.66648
11
3.38112
21
-2.66798
0
LINE
8
BLACK
6
CONTINUOUS
10
3.38112
20
-2.66798
11
3.3802
21
-2.66917
0
LINE
8
BLACK
6
CONTINUOUS
10
3.3802
20
-2.66917
11
3.37871
21
-2.66937
0
LINE
8
BLACK
6
CONTINUOUS
10
3.37871
20
-2.66937
11
3.37751
21
-2.66845
0
LINE
8
BLACK
6
CONTINUOUS
10
3.37751
20
-2.66845
11
3.37189
21
-2.65871
0
LINE
8
BLACK
6
CONTINUOUS
10
3.37189
20
-2.65871
11
3.37169
21
-2.65722
0
LINE
8
BLACK
6
CONTINUOUS
10
3.37169
20
-2.65722
11
3.37261
21
-2.65602
0
LINE
8
BLACK
6
CONTINUOUS
10
3.37261
20
-2.65602
11
3.3741
21
-2.65583
0
LINE
8
BLACK
6
CONTINUOUS
10
3.3741
20
-2.65583
11
3.3753
21
-2.65674
0
LINE
8
BLACK
6
CONTINUOUS
10
3.3753
20
-2.65674
11
3.37712
21
-2.65991
0
LINE
8
BLACK
6
CONTINUOUS
10
3.37712
20
-2.65991
11
3.38754
21
-2.6539
0
LINE
8
BLACK
6
CONTINUOUS
10
3.38754
20
-2.6539
11
3.38701
21
-2.65375
0
LINE
8
BLACK
6
CONTINUOUS
10
3.38701
20
-2.65375
11
3.38675
21
-2.65356
0
LINE
8
BLACK
6
CONTINUOUS
10
3.38675
20
-2.65356
11
3.38643
21
-2.65349
0
LINE
8
BLACK
6
CONTINUOUS
10
3.38643
20
-2.65349
11
3.38468
21
-2.65234
0
LINE
8
BLACK
6
CONTINUOUS
10
3.38468
20
-2.65234
11
3.38384
21
-2.65109
0
LINE
8
BLACK
6
CONTINUOUS
10
3.38384
20
-2.65109
11
3.38413
21
-2.64961
0
LINE
8
BLACK
6
CONTINUOUS
10
3.38413
20
-2.64961
11
3.38537
21
-2.64877
0
LINE
8
BLACK
6
CONTINUOUS
10
3.38537
20
-2.64877
11
3.38685
21
-2.64905
0
LINE
8
BLACK
6
CONTINUOUS
10
3.00041
20
-2.64176
11
3.00084
21
-2.64174
0
LINE
8
BLACK
6
CONTINUOUS
10
3.00084
20
-2.64174
11
3.00095
21
-2.64184
0
LINE
8
BLACK
6
CONTINUOUS
10
3.00095
20
-2.64184
11
3.0011
21
-2.64186
0
LINE
8
BLACK
6
CONTINUOUS
10
3.0011
20
-2.64186
11
3.01005
21
-2.64702
0
LINE
8
BLACK
6
CONTINUOUS
10
3.01005
20
-2.64702
11
3.011
21
-2.64538
0
LINE
8
BLACK
6
CONTINUOUS
10
3.011
20
-2.64538
11
3.0119
21
-2.64469
0
LINE
8
BLACK
6
CONTINUOUS
10
3.0119
20
-2.64469
11
3.01302
21
-2.64484
0
LINE
8
BLACK
6
CONTINUOUS
10
3.01302
20
-2.64484
11
3.0137
21
-2.64573
0
LINE
8
BLACK
6
CONTINUOUS
10
3.0137
20
-2.64573
11
3.01356
21
-2.64685
0
LINE
8
BLACK
6
CONTINUOUS
10
3.01356
20
-2.64685
11
3.01018
21
-2.6527
0
LINE
8
BLACK
6
CONTINUOUS
10
3.01018
20
-2.6527
11
3.00929
21
-2.65339
0
LINE
8
BLACK
6
CONTINUOUS
10
3.00929
20
-2.65339
11
3.00817
21
-2.65324
0
LINE
8
BLACK
6
CONTINUOUS
10
3.00817
20
-2.65324
11
3.00748
21
-2.65234
0
LINE
8
BLACK
6
CONTINUOUS
10
3.00748
20
-2.65234
11
3.00763
21
-2.65122
0
LINE
8
BLACK
6
CONTINUOUS
10
3.00763
20
-2.65122
11
3.00857
21
-2.64958
0
LINE
8
BLACK
6
CONTINUOUS
10
3.00857
20
-2.64958
11
3.00309
21
-2.64641
0
LINE
8
BLACK
6
CONTINUOUS
10
3.00309
20
-2.64641
11
3.00315
21
-2.64658
0
LINE
8
BLACK
6
CONTINUOUS
10
3.00315
20
-2.64658
11
3.00307
21
-2.64783
0
LINE
8
BLACK
6
CONTINUOUS
10
3.00307
20
-2.64783
11
3.00258
21
-2.64885
0
LINE
8
BLACK
6
CONTINUOUS
10
3.00258
20
-2.64885
11
3.00151
21
-2.64922
0
LINE
8
BLACK
6
CONTINUOUS
10
3.00151
20
-2.64922
11
3.00049
21
-2.64872
0
LINE
8
BLACK
6
CONTINUOUS
10
3.00049
20
-2.64872
11
3.00012
21
-2.64766
0
LINE
8
BLACK
6
CONTINUOUS
10
3.00012
20
-2.64766
11
3.00019
21
-2.64664
0
LINE
8
BLACK
6
CONTINUOUS
10
3.00019
20
-2.64664
11
2.99987
21
-2.64547
0
LINE
8
BLACK
6
CONTINUOUS
10
2.99987
20
-2.64547
11
2.99904
21
-2.64379
0
LINE
8
BLACK
6
CONTINUOUS
10
2.99904
20
-2.64379
11
2.99903
21
-2.64364
0
LINE
8
BLACK
6
CONTINUOUS
10
2.99903
20
-2.64364
11
2.99894
21
-2.64352
0
LINE
8
BLACK
6
CONTINUOUS
10
2.99894
20
-2.64352
11
2.99899
21
-2.64309
0
LINE
8
BLACK
6
CONTINUOUS
10
2.99899
20
-2.64309
11
2.99896
21
-2.64266
0
LINE
8
BLACK
6
CONTINUOUS
10
2.99896
20
-2.64266
11
2.99906
21
-2.64255
0
LINE
8
BLACK
6
CONTINUOUS
10
2.99906
20
-2.64255
11
2.99908
21
-2.6424
0
LINE
8
BLACK
6
CONTINUOUS
10
2.99908
20
-2.6424
11
2.99943
21
-2.64213
0
LINE
8
BLACK
6
CONTINUOUS
10
2.99943
20
-2.64213
11
2.99971
21
-2.64181
0
LINE
8
BLACK
6
CONTINUOUS
10
2.99971
20
-2.64181
11
2.99986
21
-2.6418
0
LINE
8
BLACK
6
CONTINUOUS
10
2.99986
20
-2.6418
11
2.99998
21
-2.64171
0
LINE
8
BLACK
6
CONTINUOUS
10
2.99998
20
-2.64171
11
3.00041
21
-2.64176
0
LINE
8
BLACK
6
CONTINUOUS
10
3.37748
20
-2.63282
11
3.37896
21
-2.6338
0
LINE
8
BLACK
6
CONTINUOUS
10
3.37896
20
-2.6338
11
3.38103
21
-2.63435
0
LINE
8
BLACK
6
CONTINUOUS
10
3.38103
20
-2.63435
11
3.3842
21
-2.63456
0
LINE
8
BLACK
6
CONTINUOUS
10
3.3842
20
-2.63456
11
3.38439
21
-2.63464
0
LINE
8
BLACK
6
CONTINUOUS
10
3.38439
20
-2.63464
11
3.38459
21
-2.63462
0
LINE
8
BLACK
6
CONTINUOUS
10
3.38459
20
-2.63462
11
3.38504
21
-2.63497
0
LINE
8
BLACK
6
CONTINUOUS
10
3.38504
20
-2.63497
11
3.38556
21
-2.63522
0
LINE
8
BLACK
6
CONTINUOUS
10
3.38556
20
-2.63522
11
3.38562
21
-2.63541
0
LINE
8
BLACK
6
CONTINUOUS
10
3.38562
20
-2.63541
11
3.38578
21
-2.63554
0
LINE
8
BLACK
6
CONTINUOUS
10
3.38578
20
-2.63554
11
3.38586
21
-2.6361
0
LINE
8
BLACK
6
CONTINUOUS
10
3.38586
20
-2.6361
11
3.38604
21
-2.63665
0
LINE
8
BLACK
6
CONTINUOUS
10
3.38604
20
-2.63665
11
3.38595
21
-2.63683
0
LINE
8
BLACK
6
CONTINUOUS
10
3.38595
20
-2.63683
11
3.38598
21
-2.63703
0
LINE
8
BLACK
6
CONTINUOUS
10
3.38598
20
-2.63703
11
3.38563
21
-2.63748
0
LINE
8
BLACK
6
CONTINUOUS
10
3.38563
20
-2.63748
11
3.38538
21
-2.638
0
LINE
8
BLACK
6
CONTINUOUS
10
3.38538
20
-2.638
11
3.38519
21
-2.63806
0
LINE
8
BLACK
6
CONTINUOUS
10
3.38519
20
-2.63806
11
3.38506
21
-2.63822
0
LINE
8
BLACK
6
CONTINUOUS
10
3.38506
20
-2.63822
11
3.36972
21
-2.64708
0
LINE
8
BLACK
6
CONTINUOUS
10
3.36972
20
-2.64708
11
3.37155
21
-2.65025
0
LINE
8
BLACK
6
CONTINUOUS
10
3.37155
20
-2.65025
11
3.37174
21
-2.65174
0
LINE
8
BLACK
6
CONTINUOUS
10
3.37174
20
-2.65174
11
3.37083
21
-2.65294
0
LINE
8
BLACK
6
CONTINUOUS
10
3.37083
20
-2.65294
11
3.36933
21
-2.65313
0
LINE
8
BLACK
6
CONTINUOUS
10
3.36933
20
-2.65313
11
3.36814
21
-2.65222
0
LINE
8
BLACK
6
CONTINUOUS
10
3.36814
20
-2.65222
11
3.36251
21
-2.64248
0
LINE
8
BLACK
6
CONTINUOUS
10
3.36251
20
-2.64248
11
3.36232
21
-2.64098
0
LINE
8
BLACK
6
CONTINUOUS
10
3.36232
20
-2.64098
11
3.36323
21
-2.63979
0
LINE
8
BLACK
6
CONTINUOUS
10
3.36323
20
-2.63979
11
3.36473
21
-2.63959
0
LINE
8
BLACK
6
CONTINUOUS
10
3.36473
20
-2.63959
11
3.36592
21
-2.64051
0
LINE
8
BLACK
6
CONTINUOUS
10
3.36592
20
-2.64051
11
3.36775
21
-2.64367
0
LINE
8
BLACK
6
CONTINUOUS
10
3.36775
20
-2.64367
11
3.37817
21
-2.63766
0
LINE
8
BLACK
6
CONTINUOUS
10
3.37817
20
-2.63766
11
3.37763
21
-2.63752
0
LINE
8
BLACK
6
CONTINUOUS
10
3.37763
20
-2.63752
11
3.37738
21
-2.63732
0
LINE
8
BLACK
6
CONTINUOUS
10
3.37738
20
-2.63732
11
3.37706
21
-2.63726
0
LINE
8
BLACK
6
CONTINUOUS
10
3.37706
20
-2.63726
11
3.37531
21
-2.6361
0
LINE
8
BLACK
6
CONTINUOUS
10
3.37531
20
-2.6361
11
3.37447
21
-2.63486
0
LINE
8
BLACK
6
CONTINUOUS
10
3.37447
20
-2.63486
11
3.37475
21
-2.63338
0
LINE
8
BLACK
6
CONTINUOUS
10
3.37475
20
-2.63338
11
3.376
21
-2.63253
0
LINE
8
BLACK
6
CONTINUOUS
10
3.376
20
-2.63253
11
3.37748
21
-2.63282
0
LINE
8
BLACK
6
CONTINUOUS
10
2.78821
20
-2.60558
11
2.78835
21
-2.60556
0
LINE
8
BLACK
6
CONTINUOUS
10
2.78835
20
-2.60556
11
2.78845
21
-2.60562
0
LINE
8
BLACK
6
CONTINUOUS
10
2.78845
20
-2.60562
11
2.78879
21
-2.60568
0
LINE
8
BLACK
6
CONTINUOUS
10
2.78879
20
-2.60568
11
2.7894
21
-2.60619
0
LINE
8
BLACK
6
CONTINUOUS
10
2.7894
20
-2.60619
11
2.79008
21
-2.60661
0
LINE
8
BLACK
6
CONTINUOUS
10
2.79008
20
-2.60661
11
2.79015
21
-2.60683
0
LINE
8
BLACK
6
CONTINUOUS
10
2.79015
20
-2.60683
11
2.79033
21
-2.60698
0
LINE
8
BLACK
6
CONTINUOUS
10
2.79033
20
-2.60698
11
2.79047
21
-2.60777
0
LINE
8
BLACK
6
CONTINUOUS
10
2.79047
20
-2.60777
11
2.79073
21
-2.60852
0
LINE
8
BLACK
6
CONTINUOUS
10
2.79073
20
-2.60852
11
2.79064
21
-2.60874
0
LINE
8
BLACK
6
CONTINUOUS
10
2.79064
20
-2.60874
11
2.79068
21
-2.60897
0
LINE
8
BLACK
6
CONTINUOUS
10
2.79068
20
-2.60897
11
2.79029
21
-2.60966
0
LINE
8
BLACK
6
CONTINUOUS
10
2.79029
20
-2.60966
11
2.79
21
-2.6104
0
LINE
8
BLACK
6
CONTINUOUS
10
2.79
20
-2.6104
11
2.78104
21
-2.62064
0
LINE
8
BLACK
6
CONTINUOUS
10
2.78104
20
-2.62064
11
2.78129
21
-2.62068
0
LINE
8
BLACK
6
CONTINUOUS
10
2.78129
20
-2.62068
11
2.78142
21
-2.62079
0
LINE
8
BLACK
6
CONTINUOUS
10
2.78142
20
-2.62079
11
2.7816
21
-2.62081
0
LINE
8
BLACK
6
CONTINUOUS
10
2.7816
20
-2.62081
11
2.78535
21
-2.62269
0
LINE
8
BLACK
6
CONTINUOUS
10
2.78535
20
-2.62269
11
2.78606
21
-2.62322
0
LINE
8
BLACK
6
CONTINUOUS
10
2.78606
20
-2.62322
11
2.78611
21
-2.62324
0
LINE
8
BLACK
6
CONTINUOUS
10
2.78611
20
-2.62324
11
2.78799
21
-2.62512
0
LINE
8
BLACK
6
CONTINUOUS
10
2.78799
20
-2.62512
11
2.7885
21
-2.62584
0
LINE
8
BLACK
6
CONTINUOUS
10
2.7885
20
-2.62584
11
2.78854
21
-2.62588
0
LINE
8
BLACK
6
CONTINUOUS
10
2.78854
20
-2.62588
11
2.79042
21
-2.62963
0
LINE
8
BLACK
6
CONTINUOUS
10
2.79042
20
-2.62963
11
2.79071
21
-2.63062
0
LINE
8
BLACK
6
CONTINUOUS
10
2.79071
20
-2.63062
11
2.79067
21
-2.63079
0
LINE
8
BLACK
6
CONTINUOUS
10
2.79067
20
-2.63079
11
2.79073
21
-2.63095
0
LINE
8
BLACK
6
CONTINUOUS
10
2.79073
20
-2.63095
11
2.79073
21
-2.64033
0
LINE
8
BLACK
6
CONTINUOUS
10
2.79073
20
-2.64033
11
2.79055
21
-2.64134
0
LINE
8
BLACK
6
CONTINUOUS
10
2.79055
20
-2.64134
11
2.79044
21
-2.64147
0
LINE
8
BLACK
6
CONTINUOUS
10
2.79044
20
-2.64147
11
2.79042
21
-2.64165
0
LINE
8
BLACK
6
CONTINUOUS
10
2.79042
20
-2.64165
11
2.78854
21
-2.6454
0
LINE
8
BLACK
6
CONTINUOUS
10
2.78854
20
-2.6454
11
2.78802
21
-2.64611
0
LINE
8
BLACK
6
CONTINUOUS
10
2.78802
20
-2.64611
11
2.78799
21
-2.64617
0
LINE
8
BLACK
6
CONTINUOUS
10
2.78799
20
-2.64617
11
2.78611
21
-2.64804
0
LINE
8
BLACK
6
CONTINUOUS
10
2.78611
20
-2.64804
11
2.78539
21
-2.64855
0
LINE
8
BLACK
6
CONTINUOUS
10
2.78539
20
-2.64855
11
2.78535
21
-2.64859
0
LINE
8
BLACK
6
CONTINUOUS
10
2.78535
20
-2.64859
11
2.7816
21
-2.65047
0
LINE
8
BLACK
6
CONTINUOUS
10
2.7816
20
-2.65047
11
2.78062
21
-2.65076
0
LINE
8
BLACK
6
CONTINUOUS
10
2.78062
20
-2.65076
11
2.78044
21
-2.65072
0
LINE
8
BLACK
6
CONTINUOUS
10
2.78044
20
-2.65072
11
2.78028
21
-2.65078
0
LINE
8
BLACK
6
CONTINUOUS
10
2.78028
20
-2.65078
11
2.76903
21
-2.65078
0
LINE
8
BLACK
6
CONTINUOUS
10
2.76903
20
-2.65078
11
2.76802
21
-2.6506
0
LINE
8
BLACK
6
CONTINUOUS
10
2.76802
20
-2.6506
11
2.76788
21
-2.65049
0
LINE
8
BLACK
6
CONTINUOUS
10
2.76788
20
-2.65049
11
2.76771
21
-2.65047
0
LINE
8
BLACK
6
CONTINUOUS
10
2.76771
20
-2.65047
11
2.76396
21
-2.64859
0
LINE
8
BLACK
6
CONTINUOUS
10
2.76396
20
-2.64859
11
2.76325
21
-2.64807
0
LINE
8
BLACK
6
CONTINUOUS
10
2.76325
20
-2.64807
11
2.76319
21
-2.64804
0
LINE
8
BLACK
6
CONTINUOUS
10
2.76319
20
-2.64804
11
2.76132
21
-2.64617
0
LINE
8
BLACK
6
CONTINUOUS
10
2.76132
20
-2.64617
11
2.76073
21
-2.64533
0
LINE
8
BLACK
6
CONTINUOUS
10
2.76073
20
-2.64533
11
2.76055
21
-2.64331
0
LINE
8
BLACK
6
CONTINUOUS
10
2.76055
20
-2.64331
11
2.76171
21
-2.64166
0
LINE
8
BLACK
6
CONTINUOUS
10
2.76171
20
-2.64166
11
2.76366
21
-2.64114
0
LINE
8
BLACK
6
CONTINUOUS
10
2.76366
20
-2.64114
11
2.76549
21
-2.64199
0
LINE
8
BLACK
6
CONTINUOUS
10
2.76549
20
-2.64199
11
2.76703
21
-2.64353
0
LINE
8
BLACK
6
CONTINUOUS
10
2.76703
20
-2.64353
11
2.76973
21
-2.64487
0
LINE
8
BLACK
6
CONTINUOUS
10
2.76973
20
-2.64487
11
2.77958
21
-2.64487
0
LINE
8
BLACK
6
CONTINUOUS
10
2.77958
20
-2.64487
11
2.78228
21
-2.64353
0
LINE
8
BLACK
6
CONTINUOUS
10
2.78228
20
-2.64353
11
2.78347
21
-2.64233
0
LINE
8
BLACK
6
CONTINUOUS
10
2.78347
20
-2.64233
11
2.78482
21
-2.63963
0
LINE
8
BLACK
6
CONTINUOUS
10
2.78482
20
-2.63963
11
2.78482
21
-2.63165
0
LINE
8
BLACK
6
CONTINUOUS
10
2.78482
20
-2.63165
11
2.78348
21
-2.62895
0
LINE
8
BLACK
6
CONTINUOUS
10
2.78348
20
-2.62895
11
2.78228
21
-2.62776
0
LINE
8
BLACK
6
CONTINUOUS
10
2.78228
20
-2.62776
11
2.77958
21
-2.62641
0
LINE
8
BLACK
6
CONTINUOUS
10
2.77958
20
-2.62641
11
2.77465
21
-2.62641
0
LINE
8
BLACK
6
CONTINUOUS
10
2.77465
20
-2.62641
11
2.77422
21
-2.62633
0
LINE
8
BLACK
6
CONTINUOUS
10
2.77422
20
-2.62633
11
2.77408
21
-2.62635
0
LINE
8
BLACK
6
CONTINUOUS
10
2.77408
20
-2.62635
11
2.77398
21
-2.62629
0
LINE
8
BLACK
6
CONTINUOUS
10
2.77398
20
-2.62629
11
2.77364
21
-2.62623
0
LINE
8
BLACK
6
CONTINUOUS
10
2.77364
20
-2.62623
11
2.77303
21
-2.62572
0
LINE
8
BLACK
6
CONTINUOUS
10
2.77303
20
-2.62572
11
2.77235
21
-2.62531
0
LINE
8
BLACK
6
CONTINUOUS
10
2.77235
20
-2.62531
11
2.77228
21
-2.62508
0
LINE
8
BLACK
6
CONTINUOUS
10
2.77228
20
-2.62508
11
2.7721
21
-2.62493
0
LINE
8
BLACK
6
CONTINUOUS
10
2.7721
20
-2.62493
11
2.77196
21
-2.62415
0
LINE
8
BLACK
6
CONTINUOUS
10
2.77196
20
-2.62415
11
2.7717
21
-2.62339
0
LINE
8
BLACK
6
CONTINUOUS
10
2.7717
20
-2.62339
11
2.77179
21
-2.62317
0
LINE
8
BLACK
6
CONTINUOUS
10
2.77179
20
-2.62317
11
2.77175
21
-2.62294
0
LINE
8
BLACK
6
CONTINUOUS
10
2.77175
20
-2.62294
11
2.77214
21
-2.62225
0
LINE
8
BLACK
6
CONTINUOUS
10
2.77214
20
-2.62225
11
2.77243
21
-2.62151
0
LINE
8
BLACK
6
CONTINUOUS
10
2.77243
20
-2.62151
11
2.78127
21
-2.61141
0
LINE
8
BLACK
6
CONTINUOUS
10
2.78127
20
-2.61141
11
2.7634
21
-2.61141
0
LINE
8
BLACK
6
CONTINUOUS
10
2.7634
20
-2.61141
11
2.76239
21
-2.61123
0
LINE
8
BLACK
6
CONTINUOUS
10
2.76239
20
-2.61123
11
2.76085
21
-2.60993
0
LINE
8
BLACK
6
CONTINUOUS
10
2.76085
20
-2.60993
11
2.7605
21
-2.60794
0
LINE
8
BLACK
6
CONTINUOUS
10
2.7605
20
-2.60794
11
2.76151
21
-2.6062
0
LINE
8
BLACK
6
CONTINUOUS
10
2.76151
20
-2.6062
11
2.7634
21
-2.6055
0
LINE
8
BLACK
6
CONTINUOUS
10
2.7634
20
-2.6055
11
2.78778
21
-2.6055
0
LINE
8
BLACK
6
CONTINUOUS
10
2.78778
20
-2.6055
11
2.78821
21
-2.60558
0
LINE
8
BLACK
6
CONTINUOUS
10
2.75067
20
-2.60656
11
2.75136
21
-2.60846
0
LINE
8
BLACK
6
CONTINUOUS
10
2.75136
20
-2.60846
11
2.75136
21
-2.64783
0
LINE
8
BLACK
6
CONTINUOUS
10
2.75136
20
-2.64783
11
2.75118
21
-2.64884
0
LINE
8
BLACK
6
CONTINUOUS
10
2.75118
20
-2.64884
11
2.74988
21
-2.65038
0
LINE
8
BLACK
6
CONTINUOUS
10
2.74988
20
-2.65038
11
2.74789
21
-2.65074
0
LINE
8
BLACK
6
CONTINUOUS
10
2.74789
20
-2.65074
11
2.74614
21
-2.64973
0
LINE
8
BLACK
6
CONTINUOUS
10
2.74614
20
-2.64973
11
2.74545
21
-2.64783
0
LINE
8
BLACK
6
CONTINUOUS
10
2.74545
20
-2.64783
11
2.74545
21
-2.63016
0
LINE
8
BLACK
6
CONTINUOUS
10
2.74545
20
-2.63016
11
2.72886
21
-2.63016
0
LINE
8
BLACK
6
CONTINUOUS
10
2.72886
20
-2.63016
11
2.72886
21
-2.64783
0
LINE
8
BLACK
6
CONTINUOUS
10
2.72886
20
-2.64783
11
2.72868
21
-2.64884
0
LINE
8
BLACK
6
CONTINUOUS
10
2.72868
20
-2.64884
11
2.72739
21
-2.65038
0
LINE
8
BLACK
6
CONTINUOUS
10
2.72739
20
-2.65038
11
2.7254
21
-2.65074
0
LINE
8
BLACK
6
CONTINUOUS
10
2.7254
20
-2.65074
11
2.72365
21
-2.64973
0
LINE
8
BLACK
6
CONTINUOUS
10
2.72365
20
-2.64973
11
2.72296
21
-2.64783
0
LINE
8
BLACK
6
CONTINUOUS
10
2.72296
20
-2.64783
11
2.72296
21
-2.60846
0
LINE
8
BLACK
6
CONTINUOUS
10
2.72296
20
-2.60846
11
2.72313
21
-2.60745
0
LINE
8
BLACK
6
CONTINUOUS
10
2.72313
20
-2.60745
11
2.72443
21
-2.6059
0
LINE
8
BLACK
6
CONTINUOUS
10
2.72443
20
-2.6059
11
2.72642
21
-2.60555
0
LINE
8
BLACK
6
CONTINUOUS
10
2.72642
20
-2.60555
11
2.72817
21
-2.60656
0
LINE
8
BLACK
6
CONTINUOUS
10
2.72817
20
-2.60656
11
2.72886
21
-2.60846
0
LINE
8
BLACK
6
CONTINUOUS
10
2.72886
20
-2.60846
11
2.72886
21
-2.62425
0
LINE
8
BLACK
6
CONTINUOUS
10
2.72886
20
-2.62425
11
2.74545
21
-2.62425
0
LINE
8
BLACK
6
CONTINUOUS
10
2.74545
20
-2.62425
11
2.74545
21
-2.60846
0
LINE
8
BLACK
6
CONTINUOUS
10
2.74545
20
-2.60846
11
2.74563
21
-2.60745
0
LINE
8
BLACK
6
CONTINUOUS
10
2.74563
20
-2.60745
11
2.74693
21
-2.6059
0
LINE
8
BLACK
6
CONTINUOUS
10
2.74693
20
-2.6059
11
2.74892
21
-2.60555
0
LINE
8
BLACK
6
CONTINUOUS
10
2.74892
20
-2.60555
11
2.75067
21
-2.60656
0
LINE
8
BLACK
6
CONTINUOUS
10
3.32574
20
-2.62295
11
3.32659
21
-2.62351
0
LINE
8
BLACK
6
CONTINUOUS
10
3.32659
20
-2.62351
11
3.32775
21
-2.62382
0
LINE
8
BLACK
6
CONTINUOUS
10
3.32775
20
-2.62382
11
3.32963
21
-2.62394
0
LINE
8
BLACK
6
CONTINUOUS
10
3.32963
20
-2.62394
11
3.32977
21
-2.62401
0
LINE
8
BLACK
6
CONTINUOUS
10
3.32977
20
-2.62401
11
3.32992
21
-2.62399
0
LINE
8
BLACK
6
CONTINUOUS
10
3.32992
20
-2.62399
11
3.33026
21
-2.62425
0
LINE
8
BLACK
6
CONTINUOUS
10
3.33026
20
-2.62425
11
3.33064
21
-2.62444
0
LINE
8
BLACK
6
CONTINUOUS
10
3.33064
20
-2.62444
11
3.33069
21
-2.62459
0
LINE
8
BLACK
6
CONTINUOUS
10
3.33069
20
-2.62459
11
3.33081
21
-2.62468
0
LINE
8
BLACK
6
CONTINUOUS
10
3.33081
20
-2.62468
11
3.33087
21
-2.62511
0
LINE
8
BLACK
6
CONTINUOUS
10
3.33087
20
-2.62511
11
3.33101
21
-2.62551
0
LINE
8
BLACK
6
CONTINUOUS
10
3.33101
20
-2.62551
11
3.33094
21
-2.62565
0
LINE
8
BLACK
6
CONTINUOUS
10
3.33094
20
-2.62565
11
3.33096
21
-2.6258
0
LINE
8
BLACK
6
CONTINUOUS
10
3.33096
20
-2.6258
11
3.3307
21
-2.62614
0
LINE
8
BLACK
6
CONTINUOUS
10
3.3307
20
-2.62614
11
3.33051
21
-2.62653
0
LINE
8
BLACK
6
CONTINUOUS
10
3.33051
20
-2.62653
11
3.33037
21
-2.62658
0
LINE
8
BLACK
6
CONTINUOUS
10
3.33037
20
-2.62658
11
3.33027
21
-2.6267
0
LINE
8
BLACK
6
CONTINUOUS
10
3.33027
20
-2.6267
11
3.32132
21
-2.63186
0
LINE
8
BLACK
6
CONTINUOUS
10
3.32132
20
-2.63186
11
3.32227
21
-2.63351
0
LINE
8
BLACK
6
CONTINUOUS
10
3.32227
20
-2.63351
11
3.32242
21
-2.63463
0
LINE
8
BLACK
6
CONTINUOUS
10
3.32242
20
-2.63463
11
3.32173
21
-2.63552
0
LINE
8
BLACK
6
CONTINUOUS
10
3.32173
20
-2.63552
11
3.32061
21
-2.63567
0
LINE
8
BLACK
6
CONTINUOUS
10
3.32061
20
-2.63567
11
3.31972
21
-2.63498
0
LINE
8
BLACK
6
CONTINUOUS
10
3.31972
20
-2.63498
11
3.31634
21
-2.62914
0
LINE
8
BLACK
6
CONTINUOUS
10
3.31634
20
-2.62914
11
3.31619
21
-2.62802
0
LINE
8
BLACK
6
CONTINUOUS
10
3.31619
20
-2.62802
11
3.31688
21
-2.62712
0
LINE
8
BLACK
6
CONTINUOUS
10
3.31688
20
-2.62712
11
3.318
21
-2.62697
0
LINE
8
BLACK
6
CONTINUOUS
10
3.318
20
-2.62697
11
3.3189
21
-2.62766
0
LINE
8
BLACK
6
CONTINUOUS
10
3.3189
20
-2.62766
11
3.31985
21
-2.62931
0
LINE
8
BLACK
6
CONTINUOUS
10
3.31985
20
-2.62931
11
3.32533
21
-2.62614
0
LINE
8
BLACK
6
CONTINUOUS
10
3.32533
20
-2.62614
11
3.32516
21
-2.62611
0
LINE
8
BLACK
6
CONTINUOUS
10
3.32516
20
-2.62611
11
3.32411
21
-2.62541
0
LINE
8
BLACK
6
CONTINUOUS
10
3.32411
20
-2.62541
11
3.32348
21
-2.62448
0
LINE
8
BLACK
6
CONTINUOUS
10
3.32348
20
-2.62448
11
3.32369
21
-2.62337
0
LINE
8
BLACK
6
CONTINUOUS
10
3.32369
20
-2.62337
11
3.32463
21
-2.62274
0
LINE
8
BLACK
6
CONTINUOUS
10
3.32463
20
-2.62274
11
3.32574
21
-2.62295
0
LINE
8
BLACK
6
CONTINUOUS
10
3.3736
20
-2.61443
11
3.37594
21
-2.61849
0
LINE
8
BLACK
6
CONTINUOUS
10
3.37594
20
-2.61849
11
3.37598
21
-2.61881
0
LINE
8
BLACK
6
CONTINUOUS
10
3.37598
20
-2.61881
11
3.37616
21
-2.61908
0
LINE
8
BLACK
6
CONTINUOUS
10
3.37616
20
-2.61908
11
3.37676
21
-2.62198
0
LINE
8
BLACK
6
CONTINUOUS
10
3.37676
20
-2.62198
11
3.37667
21
-2.62243
0
LINE
8
BLACK
6
CONTINUOUS
10
3.37667
20
-2.62243
11
3.37673
21
-2.62289
0
LINE
8
BLACK
6
CONTINUOUS
10
3.37673
20
-2.62289
11
3.37605
21
-2.62545
0
LINE
8
BLACK
6
CONTINUOUS
10
3.37605
20
-2.62545
11
3.37585
21
-2.6257
0
LINE
8
BLACK
6
CONTINUOUS
10
3.37585
20
-2.6257
11
3.37579
21
-2.62602
0
LINE
8
BLACK
6
CONTINUOUS
10
3.37579
20
-2.62602
11
3.37463
21
-2.62777
0
LINE
8
BLACK
6
CONTINUOUS
10
3.37463
20
-2.62777
11
3.37445
21
-2.6279
0
LINE
8
BLACK
6
CONTINUOUS
10
3.37445
20
-2.6279
11
3.37436
21
-2.6281
0
LINE
8
BLACK
6
CONTINUOUS
10
3.37436
20
-2.6281
11
3.37158
21
-2.63079
0
LINE
8
BLACK
6
CONTINUOUS
10
3.37158
20
-2.63079
11
3.37135
21
-2.63088
0
LINE
8
BLACK
6
CONTINUOUS
10
3.37135
20
-2.63088
11
3.37119
21
-2.63108
0
LINE
8
BLACK
6
CONTINUOUS
10
3.37119
20
-2.63108
11
3.36876
21
-2.63248
0
LINE
8
BLACK
6
CONTINUOUS
10
3.36876
20
-2.63248
11
3.36851
21
-2.63252
0
LINE
8
BLACK
6
CONTINUOUS
10
3.36851
20
-2.63252
11
3.36832
21
-2.63267
0
LINE
8
BLACK
6
CONTINUOUS
10
3.36832
20
-2.63267
11
3.3646
21
-2.63373
0
LINE
8
BLACK
6
CONTINUOUS
10
3.3646
20
-2.63373
11
3.36438
21
-2.63371
0
LINE
8
BLACK
6
CONTINUOUS
10
3.36438
20
-2.63371
11
3.36418
21
-2.63381
0
LINE
8
BLACK
6
CONTINUOUS
10
3.36418
20
-2.63381
11
3.36208
21
-2.63393
0
LINE
8
BLACK
6
CONTINUOUS
10
3.36208
20
-2.63393
11
3.36178
21
-2.63383
0
LINE
8
BLACK
6
CONTINUOUS
10
3.36178
20
-2.63383
11
3.36146
21
-2.63387
0
LINE
8
BLACK
6
CONTINUOUS
10
3.36146
20
-2.63387
11
3.3589
21
-2.63318
0
LINE
8
BLACK
6
CONTINUOUS
10
3.3589
20
-2.63318
11
3.35853
21
-2.6329
0
LINE
8
BLACK
6
CONTINUOUS
10
3.35853
20
-2.6329
11
3.3581
21
-2.63275
0
LINE
8
BLACK
6
CONTINUOUS
10
3.3581
20
-2.63275
11
3.35588
21
-2.63079
0
LINE
8
BLACK
6
CONTINUOUS
10
3.35588
20
-2.63079
11
3.35574
21
-2.6305
0
LINE
8
BLACK
6
CONTINUOUS
10
3.35574
20
-2.6305
11
3.35548
21
-2.6303
0
LINE
8
BLACK
6
CONTINUOUS
10
3.35548
20
-2.6303
11
3.35314
21
-2.62624
0
LINE
8
BLACK
6
CONTINUOUS
10
3.35314
20
-2.62624
11
3.35294
21
-2.62475
0
LINE
8
BLACK
6
CONTINUOUS
10
3.35294
20
-2.62475
11
3.35386
21
-2.62355
0
LINE
8
BLACK
6
CONTINUOUS
10
3.35386
20
-2.62355
11
3.37091
21
-2.61371
0
LINE
8
BLACK
6
CONTINUOUS
10
3.37091
20
-2.61371
11
3.3724
21
-2.61351
0
LINE
8
BLACK
6
CONTINUOUS
10
3.3724
20
-2.61351
11
3.3724
21
-2.61351
0
LINE
8
BLACK
6
CONTINUOUS
10
3.3724
20
-2.61351
11
3.3736
21
-2.61443
0
LINE
8
BLACK
6
CONTINUOUS
10
3.35753
20
-2.62598
11
3.35873
21
-2.62805
0
LINE
8
BLACK
6
CONTINUOUS
10
3.35873
20
-2.62805
11
3.36036
21
-2.6295
0
LINE
8
BLACK
6
CONTINUOUS
10
3.36036
20
-2.6295
11
3.36217
21
-2.62998
0
LINE
8
BLACK
6
CONTINUOUS
10
3.36217
20
-2.62998
11
3.36373
21
-2.62989
0
LINE
8
BLACK
6
CONTINUOUS
10
3.36373
20
-2.62989
11
3.367
21
-2.62895
0
LINE
8
BLACK
6
CONTINUOUS
10
3.367
20
-2.62895
11
3.36902
21
-2.62779
0
LINE
8
BLACK
6
CONTINUOUS
10
3.36902
20
-2.62779
11
3.37146
21
-2.62542
0
LINE
8
BLACK
6
CONTINUOUS
10
3.37146
20
-2.62542
11
3.37232
21
-2.62412
0
LINE
8
BLACK
6
CONTINUOUS
10
3.37232
20
-2.62412
11
3.37281
21
-2.62232
0
LINE
8
BLACK
6
CONTINUOUS
10
3.37281
20
-2.62232
11
3.37237
21
-2.62018
0
LINE
8
BLACK
6
CONTINUOUS
10
3.37237
20
-2.62018
11
3.37117
21
-2.6181
0
LINE
8
BLACK
6
CONTINUOUS
10
3.37117
20
-2.6181
11
3.35753
21
-2.62598
0
LINE
8
BLACK
6
CONTINUOUS
10
2.85935
20
-2.58025
11
2.8598
21
-2.58019
0
LINE
8
BLACK
6
CONTINUOUS
10
2.8598
20
-2.58019
11
2.86237
21
-2.58088
0
LINE
8
BLACK
6
CONTINUOUS
10
2.86237
20
-2.58088
11
2.86262
21
-2.58107
0
LINE
8
BLACK
6
CONTINUOUS
10
2.86262
20
-2.58107
11
2.86294
21
-2.58114
0
LINE
8
BLACK
6
CONTINUOUS
10
2.86294
20
-2.58114
11
2.86469
21
-2.58229
0
LINE
8
BLACK
6
CONTINUOUS
10
2.86469
20
-2.58229
11
2.86481
21
-2.58248
0
LINE
8
BLACK
6
CONTINUOUS
10
2.86481
20
-2.58248
11
2.86502
21
-2.58257
0
LINE
8
BLACK
6
CONTINUOUS
10
2.86502
20
-2.58257
11
2.86771
21
-2.58534
0
LINE
8
BLACK
6
CONTINUOUS
10
2.86771
20
-2.58534
11
2.8678
21
-2.58558
0
LINE
8
BLACK
6
CONTINUOUS
10
2.8678
20
-2.58558
11
2.868
21
-2.58573
0
LINE
8
BLACK
6
CONTINUOUS
10
2.868
20
-2.58573
11
2.8694
21
-2.58816
0
LINE
8
BLACK
6
CONTINUOUS
10
2.8694
20
-2.58816
11
2.86943
21
-2.58841
0
LINE
8
BLACK
6
CONTINUOUS
10
2.86943
20
-2.58841
11
2.86959
21
-2.58861
0
LINE
8
BLACK
6
CONTINUOUS
10
2.86959
20
-2.58861
11
2.87065
21
-2.59232
0
LINE
8
BLACK
6
CONTINUOUS
10
2.87065
20
-2.59232
11
2.87063
21
-2.59254
0
LINE
8
BLACK
6
CONTINUOUS
10
2.87063
20
-2.59254
11
2.87073
21
-2.59275
0
LINE
8
BLACK
6
CONTINUOUS
10
2.87073
20
-2.59275
11
2.87085
21
-2.59484
0
LINE
8
BLACK
6
CONTINUOUS
10
2.87085
20
-2.59484
11
2.87075
21
-2.59514
0
LINE
8
BLACK
6
CONTINUOUS
10
2.87075
20
-2.59514
11
2.87079
21
-2.59546
0
LINE
8
BLACK
6
CONTINUOUS
10
2.87079
20
-2.59546
11
2.8701
21
-2.59803
0
LINE
8
BLACK
6
CONTINUOUS
10
2.8701
20
-2.59803
11
2.86982
21
-2.59839
0
LINE
8
BLACK
6
CONTINUOUS
10
2.86982
20
-2.59839
11
2.86967
21
-2.59882
0
LINE
8
BLACK
6
CONTINUOUS
10
2.86967
20
-2.59882
11
2.86771
21
-2.60104
0
LINE
8
BLACK
6
CONTINUOUS
10
2.86771
20
-2.60104
11
2.86741
21
-2.60118
0
LINE
8
BLACK
6
CONTINUOUS
10
2.86741
20
-2.60118
11
2.86722
21
-2.60144
0
LINE
8
BLACK
6
CONTINUOUS
10
2.86722
20
-2.60144
11
2.86316
21
-2.60378
0
LINE
8
BLACK
6
CONTINUOUS
10
2.86316
20
-2.60378
11
2.86166
21
-2.60398
0
LINE
8
BLACK
6
CONTINUOUS
10
2.86166
20
-2.60398
11
2.86047
21
-2.60306
0
LINE
8
BLACK
6
CONTINUOUS
10
2.86047
20
-2.60306
11
2.86047
21
-2.60306
0
LINE
8
BLACK
6
CONTINUOUS
10
2.86047
20
-2.60306
11
2.85063
21
-2.58601
0
LINE
8
BLACK
6
CONTINUOUS
10
2.85063
20
-2.58601
11
2.85043
21
-2.58452
0
LINE
8
BLACK
6
CONTINUOUS
10
2.85043
20
-2.58452
11
2.85135
21
-2.58333
0
LINE
8
BLACK
6
CONTINUOUS
10
2.85135
20
-2.58333
11
2.85541
21
-2.58098
0
LINE
8
BLACK
6
CONTINUOUS
10
2.85541
20
-2.58098
11
2.85573
21
-2.58094
0
LINE
8
BLACK
6
CONTINUOUS
10
2.85573
20
-2.58094
11
2.856
21
-2.58076
0
LINE
8
BLACK
6
CONTINUOUS
10
2.856
20
-2.58076
11
2.8589
21
-2.58016
0
LINE
8
BLACK
6
CONTINUOUS
10
2.8589
20
-2.58016
11
2.85935
21
-2.58025
0
LINE
8
BLACK
6
CONTINUOUS
10
2.8571
20
-2.58455
11
2.85502
21
-2.58575
0
LINE
8
BLACK
6
CONTINUOUS
10
2.85502
20
-2.58575
11
2.86289
21
-2.59939
0
LINE
8
BLACK
6
CONTINUOUS
10
2.86289
20
-2.59939
11
2.86497
21
-2.59819
0
LINE
8
BLACK
6
CONTINUOUS
10
2.86497
20
-2.59819
11
2.86642
21
-2.59656
0
LINE
8
BLACK
6
CONTINUOUS
10
2.86642
20
-2.59656
11
2.8669
21
-2.59475
0
LINE
8
BLACK
6
CONTINUOUS
10
2.8669
20
-2.59475
11
2.86681
21
-2.5932
0
LINE
8
BLACK
6
CONTINUOUS
10
2.86681
20
-2.5932
11
2.86587
21
-2.58992
0
LINE
8
BLACK
6
CONTINUOUS
10
2.86587
20
-2.58992
11
2.86471
21
-2.58791
0
LINE
8
BLACK
6
CONTINUOUS
10
2.86471
20
-2.58791
11
2.86234
21
-2.58546
0
LINE
8
BLACK
6
CONTINUOUS
10
2.86234
20
-2.58546
11
2.86104
21
-2.5846
0
LINE
8
BLACK
6
CONTINUOUS
10
2.86104
20
-2.5846
11
2.85923
21
-2.58411
0
LINE
8
BLACK
6
CONTINUOUS
10
2.85923
20
-2.58411
11
2.8571
21
-2.58455
0
LINE
8
BLACK
6
CONTINUOUS
10
2.87734
20
-2.56992
11
2.87766
21
-2.56988
0
LINE
8
BLACK
6
CONTINUOUS
10
2.87766
20
-2.56988
11
2.87894
21
-2.57022
0
LINE
8
BLACK
6
CONTINUOUS
10
2.87894
20
-2.57022
11
2.8792
21
-2.57042
0
LINE
8
BLACK
6
CONTINUOUS
10
2.8792
20
-2.57042
11
2.87952
21
-2.57048
0
LINE
8
BLACK
6
CONTINUOUS
10
2.87952
20
-2.57048
11
2.88127
21
-2.57164
0
LINE
8
BLACK
6
CONTINUOUS
10
2.88127
20
-2.57164
11
2.88153
21
-2.57202
0
LINE
8
BLACK
6
CONTINUOUS
10
2.88153
20
-2.57202
11
2.88189
21
-2.57229
0
LINE
8
BLACK
6
CONTINUOUS
10
2.88189
20
-2.57229
11
2.88236
21
-2.57311
0
LINE
8
BLACK
6
CONTINUOUS
10
2.88236
20
-2.57311
11
2.88242
21
-2.57356
0
LINE
8
BLACK
6
CONTINUOUS
10
2.88242
20
-2.57356
11
2.88262
21
-2.57397
0
LINE
8
BLACK
6
CONTINUOUS
10
2.88262
20
-2.57397
11
2.88274
21
-2.57607
0
LINE
8
BLACK
6
CONTINUOUS
10
2.88274
20
-2.57607
11
2.88264
21
-2.57637
0
LINE
8
BLACK
6
CONTINUOUS
10
2.88264
20
-2.57637
11
2.88268
21
-2.57669
0
LINE
8
BLACK
6
CONTINUOUS
10
2.88268
20
-2.57669
11
2.8825
21
-2.57735
0
LINE
8
BLACK
6
CONTINUOUS
10
2.8825
20
-2.57735
11
2.88316
21
-2.57753
0
LINE
8
BLACK
6
CONTINUOUS
10
2.88316
20
-2.57753
11
2.88342
21
-2.57773
0
LINE
8
BLACK
6
CONTINUOUS
10
2.88342
20
-2.57773
11
2.88374
21
-2.57779
0
LINE
8
BLACK
6
CONTINUOUS
10
2.88374
20
-2.57779
11
2.88549
21
-2.57894
0
LINE
8
BLACK
6
CONTINUOUS
10
2.88549
20
-2.57894
11
2.88574
21
-2.57932
0
LINE
8
BLACK
6
CONTINUOUS
10
2.88574
20
-2.57932
11
2.88611
21
-2.5796
0
LINE
8
BLACK
6
CONTINUOUS
10
2.88611
20
-2.5796
11
2.88798
21
-2.58285
0
LINE
8
BLACK
6
CONTINUOUS
10
2.88798
20
-2.58285
11
2.88804
21
-2.5833
0
LINE
8
BLACK
6
CONTINUOUS
10
2.88804
20
-2.5833
11
2.88824
21
-2.58371
0
LINE
8
BLACK
6
CONTINUOUS
10
2.88824
20
-2.58371
11
2.88837
21
-2.58581
0
LINE
8
BLACK
6
CONTINUOUS
10
2.88837
20
-2.58581
11
2.88826
21
-2.58611
0
LINE
8
BLACK
6
CONTINUOUS
10
2.88826
20
-2.58611
11
2.8883
21
-2.58643
0
LINE
8
BLACK
6
CONTINUOUS
10
2.8883
20
-2.58643
11
2.88796
21
-2.58771
0
LINE
8
BLACK
6
CONTINUOUS
10
2.88796
20
-2.58771
11
2.88776
21
-2.58797
0
LINE
8
BLACK
6
CONTINUOUS
10
2.88776
20
-2.58797
11
2.8877
21
-2.58829
0
LINE
8
BLACK
6
CONTINUOUS
10
2.8877
20
-2.58829
11
2.88655
21
-2.59004
0
LINE
8
BLACK
6
CONTINUOUS
10
2.88655
20
-2.59004
11
2.88617
21
-2.5903
0
LINE
8
BLACK
6
CONTINUOUS
10
2.88617
20
-2.5903
11
2.88589
21
-2.59066
0
LINE
8
BLACK
6
CONTINUOUS
10
2.88589
20
-2.59066
11
2.88264
21
-2.59253
0
LINE
8
BLACK
6
CONTINUOUS
10
2.88264
20
-2.59253
11
2.88219
21
-2.59259
0
LINE
8
BLACK
6
CONTINUOUS
10
2.88219
20
-2.59259
11
2.88178
21
-2.59279
0
LINE
8
BLACK
6
CONTINUOUS
10
2.88178
20
-2.59279
11
2.87968
21
-2.59292
0
LINE
8
BLACK
6
CONTINUOUS
10
2.87968
20
-2.59292
11
2.87938
21
-2.59281
0
LINE
8
BLACK
6
CONTINUOUS
10
2.87938
20
-2.59281
11
2.87906
21
-2.59286
0
LINE
8
BLACK
6
CONTINUOUS
10
2.87906
20
-2.59286
11
2.87777
21
-2.59251
0
LINE
8
BLACK
6
CONTINUOUS
10
2.87777
20
-2.59251
11
2.87752
21
-2.59232
0
LINE
8
BLACK
6
CONTINUOUS
10
2.87752
20
-2.59232
11
2.8772
21
-2.59225
0
LINE
8
BLACK
6
CONTINUOUS
10
2.8772
20
-2.59225
11
2.87545
21
-2.5911
0
LINE
8
BLACK
6
CONTINUOUS
10
2.87545
20
-2.5911
11
2.87519
21
-2.59072
0
LINE
8
BLACK
6
CONTINUOUS
10
2.87519
20
-2.59072
11
2.87483
21
-2.59044
0
LINE
8
BLACK
6
CONTINUOUS
10
2.87483
20
-2.59044
11
2.87296
21
-2.58719
0
LINE
8
BLACK
6
CONTINUOUS
10
2.87296
20
-2.58719
11
2.8729
21
-2.58674
0
LINE
8
BLACK
6
CONTINUOUS
10
2.8729
20
-2.58674
11
2.8727
21
-2.58633
0
LINE
8
BLACK
6
CONTINUOUS
10
2.8727
20
-2.58633
11
2.87257
21
-2.58424
0
LINE
8
BLACK
6
CONTINUOUS
10
2.87257
20
-2.58424
11
2.87268
21
-2.58393
0
LINE
8
BLACK
6
CONTINUOUS
10
2.87268
20
-2.58393
11
2.87263
21
-2.58361
0
LINE
8
BLACK
6
CONTINUOUS
10
2.87263
20
-2.58361
11
2.87281
21
-2.58295
0
LINE
8
BLACK
6
CONTINUOUS
10
2.87281
20
-2.58295
11
2.87215
21
-2.58277
0
LINE
8
BLACK
6
CONTINUOUS
10
2.87215
20
-2.58277
11
2.87189
21
-2.58257
0
LINE
8
BLACK
6
CONTINUOUS
10
2.87189
20
-2.58257
11
2.87158
21
-2.58251
0
LINE
8
BLACK
6
CONTINUOUS
10
2.87158
20
-2.58251
11
2.86983
21
-2.58136
0
LINE
8
BLACK
6
CONTINUOUS
10
2.86983
20
-2.58136
11
2.86957
21
-2.58098
0
LINE
8
BLACK
6
CONTINUOUS
10
2.86957
20
-2.58098
11
2.86921
21
-2.5807
0
LINE
8
BLACK
6
CONTINUOUS
10
2.86921
20
-2.5807
11
2.86874
21
-2.57989
0
LINE
8
BLACK
6
CONTINUOUS
10
2.86874
20
-2.57989
11
2.86868
21
-2.57943
0
LINE
8
BLACK
6
CONTINUOUS
10
2.86868
20
-2.57943
11
2.86848
21
-2.57902
0
LINE
8
BLACK
6
CONTINUOUS
10
2.86848
20
-2.57902
11
2.86835
21
-2.57693
0
LINE
8
BLACK
6
CONTINUOUS
10
2.86835
20
-2.57693
11
2.86846
21
-2.57662
0
LINE
8
BLACK
6
CONTINUOUS
10
2.86846
20
-2.57662
11
2.86842
21
-2.5763
0
LINE
8
BLACK
6
CONTINUOUS
10
2.86842
20
-2.5763
11
2.86876
21
-2.57502
0
LINE
8
BLACK
6
CONTINUOUS
10
2.86876
20
-2.57502
11
2.86896
21
-2.57476
0
LINE
8
BLACK
6
CONTINUOUS
10
2.86896
20
-2.57476
11
2.86902
21
-2.57445
0
LINE
8
BLACK
6
CONTINUOUS
10
2.86902
20
-2.57445
11
2.87017
21
-2.5727
0
LINE
8
BLACK
6
CONTINUOUS
10
2.87017
20
-2.5727
11
2.87055
21
-2.57244
0
LINE
8
BLACK
6
CONTINUOUS
10
2.87055
20
-2.57244
11
2.87083
21
-2.57208
0
LINE
8
BLACK
6
CONTINUOUS
10
2.87083
20
-2.57208
11
2.87408
21
-2.5702
0
LINE
8
BLACK
6
CONTINUOUS
10
2.87408
20
-2.5702
11
2.87453
21
-2.57014
0
LINE
8
BLACK
6
CONTINUOUS
10
2.87453
20
-2.57014
11
2.87494
21
-2.56994
0
LINE
8
BLACK
6
CONTINUOUS
10
2.87494
20
-2.56994
11
2.87704
21
-2.56982
0
LINE
8
BLACK
6
CONTINUOUS
10
2.87704
20
-2.56982
11
2.87734
21
-2.56992
0
LINE
8
BLACK
6
CONTINUOUS
10
2.87986
20
-2.58115
11
2.87742
21
-2.58256
0
LINE
8
BLACK
6
CONTINUOUS
10
2.87742
20
-2.58256
11
2.8767
21
-2.58365
0
LINE
8
BLACK
6
CONTINUOUS
10
2.8767
20
-2.58365
11
2.87652
21
-2.58432
0
LINE
8
BLACK
6
CONTINUOUS
10
2.87652
20
-2.58432
11
2.8766
21
-2.58563
0
LINE
8
BLACK
6
CONTINUOUS
10
2.8766
20
-2.58563
11
2.87801
21
-2.58807
0
LINE
8
BLACK
6
CONTINUOUS
10
2.87801
20
-2.58807
11
2.8791
21
-2.58879
0
LINE
8
BLACK
6
CONTINUOUS
10
2.8791
20
-2.58879
11
2.87977
21
-2.58897
0
LINE
8
BLACK
6
CONTINUOUS
10
2.87977
20
-2.58897
11
2.88108
21
-2.58889
0
LINE
8
BLACK
6
CONTINUOUS
10
2.88108
20
-2.58889
11
2.88352
21
-2.58748
0
LINE
8
BLACK
6
CONTINUOUS
10
2.88352
20
-2.58748
11
2.88424
21
-2.58639
0
LINE
8
BLACK
6
CONTINUOUS
10
2.88424
20
-2.58639
11
2.88442
21
-2.58572
0
LINE
8
BLACK
6
CONTINUOUS
10
2.88442
20
-2.58572
11
2.88434
21
-2.58441
0
LINE
8
BLACK
6
CONTINUOUS
10
2.88434
20
-2.58441
11
2.88293
21
-2.58197
0
LINE
8
BLACK
6
CONTINUOUS
10
2.88293
20
-2.58197
11
2.88183
21
-2.58125
0
LINE
8
BLACK
6
CONTINUOUS
10
2.88183
20
-2.58125
11
2.88117
21
-2.58107
0
LINE
8
BLACK
6
CONTINUOUS
10
2.88117
20
-2.58107
11
2.87986
21
-2.58115
0
LINE
8
BLACK
6
CONTINUOUS
10
2.87564
20
-2.57384
11
2.8732
21
-2.57525
0
LINE
8
BLACK
6
CONTINUOUS
10
2.8732
20
-2.57525
11
2.87248
21
-2.57635
0
LINE
8
BLACK
6
CONTINUOUS
10
2.87248
20
-2.57635
11
2.8723
21
-2.57701
0
LINE
8
BLACK
6
CONTINUOUS
10
2.8723
20
-2.57701
11
2.87238
21
-2.57832
0
LINE
8
BLACK
6
CONTINUOUS
10
2.87238
20
-2.57832
11
2.87238
21
-2.57833
0
LINE
8
BLACK
6
CONTINUOUS
10
2.87238
20
-2.57833
11
2.87348
21
-2.57905
0
LINE
8
BLACK
6
CONTINUOUS
10
2.87348
20
-2.57905
11
2.87414
21
-2.57923
0
LINE
8
BLACK
6
CONTINUOUS
10
2.87414
20
-2.57923
11
2.87545
21
-2.57915
0
LINE
8
BLACK
6
CONTINUOUS
10
2.87545
20
-2.57915
11
2.87789
21
-2.57774
0
LINE
8
BLACK
6
CONTINUOUS
10
2.87789
20
-2.57774
11
2.87862
21
-2.57665
0
LINE
8
BLACK
6
CONTINUOUS
10
2.87862
20
-2.57665
11
2.87879
21
-2.57598
0
LINE
8
BLACK
6
CONTINUOUS
10
2.87879
20
-2.57598
11
2.87872
21
-2.57467
0
LINE
8
BLACK
6
CONTINUOUS
10
2.87872
20
-2.57467
11
2.87871
21
-2.57467
0
LINE
8
BLACK
6
CONTINUOUS
10
2.87871
20
-2.57467
11
2.87762
21
-2.57394
0
LINE
8
BLACK
6
CONTINUOUS
10
2.87762
20
-2.57394
11
2.87695
21
-2.57377
0
LINE
8
BLACK
6
CONTINUOUS
10
2.87695
20
-2.57377
11
2.87564
21
-2.57384
0
LINE
8
BLACK
6
CONTINUOUS
10
2.81941
20
-2.56194
11
2.83122
21
-2.58239
0
LINE
8
BLACK
6
CONTINUOUS
10
2.83122
20
-2.58239
11
2.85168
21
-2.57058
0
LINE
8
BLACK
6
CONTINUOUS
10
2.85168
20
-2.57058
11
2.85317
21
-2.57039
0
LINE
8
BLACK
6
CONTINUOUS
10
2.85317
20
-2.57039
11
2.85436
21
-2.5713
0
LINE
8
BLACK
6
CONTINUOUS
10
2.85436
20
-2.5713
11
2.85456
21
-2.5728
0
LINE
8
BLACK
6
CONTINUOUS
10
2.85456
20
-2.5728
11
2.85364
21
-2.57399
0
LINE
8
BLACK
6
CONTINUOUS
10
2.85364
20
-2.57399
11
2.83148
21
-2.58679
0
LINE
8
BLACK
6
CONTINUOUS
10
2.83148
20
-2.58679
11
2.82999
21
-2.58698
0
LINE
8
BLACK
6
CONTINUOUS
10
2.82999
20
-2.58698
11
2.82879
21
-2.58607
0
LINE
8
BLACK
6
CONTINUOUS
10
2.82879
20
-2.58607
11
2.816
21
-2.56391
0
LINE
8
BLACK
6
CONTINUOUS
10
2.816
20
-2.56391
11
2.8158
21
-2.56241
0
LINE
8
BLACK
6
CONTINUOUS
10
2.8158
20
-2.56241
11
2.81672
21
-2.56122
0
LINE
8
BLACK
6
CONTINUOUS
10
2.81672
20
-2.56122
11
2.81821
21
-2.56102
0
LINE
8
BLACK
6
CONTINUOUS
10
2.81821
20
-2.56102
11
2.81941
21
-2.56194
0
LINE
8
BLACK
6
CONTINUOUS
10
3.481
20
-2.51262
11
3.50316
21
-2.52542
0
LINE
8
BLACK
6
CONTINUOUS
10
3.50316
20
-2.52542
11
3.50408
21
-2.52661
0
LINE
8
BLACK
6
CONTINUOUS
10
3.50408
20
-2.52661
11
3.50388
21
-2.52811
0
LINE
8
BLACK
6
CONTINUOUS
10
3.50388
20
-2.52811
11
3.49109
21
-2.55027
0
LINE
8
BLACK
6
CONTINUOUS
10
3.49109
20
-2.55027
11
3.48989
21
-2.55118
0
LINE
8
BLACK
6
CONTINUOUS
10
3.48989
20
-2.55118
11
3.4884
21
-2.55099
0
LINE
8
BLACK
6
CONTINUOUS
10
3.4884
20
-2.55099
11
3.48748
21
-2.54979
0
LINE
8
BLACK
6
CONTINUOUS
10
3.48748
20
-2.54979
11
3.48768
21
-2.5483
0
LINE
8
BLACK
6
CONTINUOUS
10
3.48768
20
-2.5483
11
3.49949
21
-2.52784
0
LINE
8
BLACK
6
CONTINUOUS
10
3.49949
20
-2.52784
11
3.47903
21
-2.51603
0
LINE
8
BLACK
6
CONTINUOUS
10
3.47903
20
-2.51603
11
3.47812
21
-2.51484
0
LINE
8
BLACK
6
CONTINUOUS
10
3.47812
20
-2.51484
11
3.47831
21
-2.51334
0
LINE
8
BLACK
6
CONTINUOUS
10
3.47831
20
-2.51334
11
3.47951
21
-2.51242
0
LINE
8
BLACK
6
CONTINUOUS
10
3.47951
20
-2.51242
11
3.481
21
-2.51262
0
LINE
8
BLACK
6
CONTINUOUS
10
2.88012
20
-2.52947
11
2.88028
21
-2.52945
0
LINE
8
BLACK
6
CONTINUOUS
10
2.88028
20
-2.52945
11
2.88062
21
-2.52971
0
LINE
8
BLACK
6
CONTINUOUS
10
2.88062
20
-2.52971
11
2.881
21
-2.5299
0
LINE
8
BLACK
6
CONTINUOUS
10
2.881
20
-2.5299
11
2.88105
21
-2.53004
0
LINE
8
BLACK
6
CONTINUOUS
10
2.88105
20
-2.53004
11
2.88117
21
-2.53014
0
LINE
8
BLACK
6
CONTINUOUS
10
2.88117
20
-2.53014
11
2.88634
21
-2.53909
0
LINE
8
BLACK
6
CONTINUOUS
10
2.88634
20
-2.53909
11
2.88798
21
-2.53814
0
LINE
8
BLACK
6
CONTINUOUS
10
2.88798
20
-2.53814
11
2.8891
21
-2.53799
0
LINE
8
BLACK
6
CONTINUOUS
10
2.8891
20
-2.53799
11
2.89
21
-2.53868
0
LINE
8
BLACK
6
CONTINUOUS
10
2.89
20
-2.53868
11
2.89015
21
-2.5398
0
LINE
8
BLACK
6
CONTINUOUS
10
2.89015
20
-2.5398
11
2.88946
21
-2.54069
0
LINE
8
BLACK
6
CONTINUOUS
10
2.88946
20
-2.54069
11
2.88361
21
-2.54407
0
LINE
8
BLACK
6
CONTINUOUS
10
2.88361
20
-2.54407
11
2.88249
21
-2.54422
0
LINE
8
BLACK
6
CONTINUOUS
10
2.88249
20
-2.54422
11
2.8816
21
-2.54353
0
LINE
8
BLACK
6
CONTINUOUS
10
2.8816
20
-2.54353
11
2.88145
21
-2.54241
0
LINE
8
BLACK
6
CONTINUOUS
10
2.88145
20
-2.54241
11
2.88214
21
-2.54151
0
LINE
8
BLACK
6
CONTINUOUS
10
2.88214
20
-2.54151
11
2.88378
21
-2.54056
0
LINE
8
BLACK
6
CONTINUOUS
10
2.88378
20
-2.54056
11
2.88062
21
-2.53508
0
LINE
8
BLACK
6
CONTINUOUS
10
2.88062
20
-2.53508
11
2.88058
21
-2.53525
0
LINE
8
BLACK
6
CONTINUOUS
10
2.88058
20
-2.53525
11
2.87989
21
-2.5363
0
LINE
8
BLACK
6
CONTINUOUS
10
2.87989
20
-2.5363
11
2.87895
21
-2.53693
0
LINE
8
BLACK
6
CONTINUOUS
10
2.87895
20
-2.53693
11
2.87784
21
-2.53672
0
LINE
8
BLACK
6
CONTINUOUS
10
2.87784
20
-2.53672
11
2.87721
21
-2.53578
0
LINE
8
BLACK
6
CONTINUOUS
10
2.87721
20
-2.53578
11
2.87743
21
-2.53467
0
LINE
8
BLACK
6
CONTINUOUS
10
2.87743
20
-2.53467
11
2.87799
21
-2.53382
0
LINE
8
BLACK
6
CONTINUOUS
10
2.87799
20
-2.53382
11
2.8783
21
-2.53266
0
LINE
8
BLACK
6
CONTINUOUS
10
2.8783
20
-2.53266
11
2.87842
21
-2.53078
0
LINE
8
BLACK
6
CONTINUOUS
10
2.87842
20
-2.53078
11
2.87849
21
-2.53064
0
LINE
8
BLACK
6
CONTINUOUS
10
2.87849
20
-2.53064
11
2.87847
21
-2.53049
0
LINE
8
BLACK
6
CONTINUOUS
10
2.87847
20
-2.53049
11
2.87873
21
-2.53015
0
LINE
8
BLACK
6
CONTINUOUS
10
2.87873
20
-2.53015
11
2.87892
21
-2.52977
0
LINE
8
BLACK
6
CONTINUOUS
10
2.87892
20
-2.52977
11
2.87906
21
-2.52972
0
LINE
8
BLACK
6
CONTINUOUS
10
2.87906
20
-2.52972
11
2.87915
21
-2.5296
0
LINE
8
BLACK
6
CONTINUOUS
10
2.87915
20
-2.5296
11
2.87958
21
-2.52954
0
LINE
8
BLACK
6
CONTINUOUS
10
2.87958
20
-2.52954
11
2.87999
21
-2.5294
0
LINE
8
BLACK
6
CONTINUOUS
10
2.87999
20
-2.5294
11
2.88012
21
-2.52947
0
LINE
8
BLACK
6
CONTINUOUS
10
3.50374
20
-2.48854
11
3.50415
21
-2.48874
0
LINE
8
BLACK
6
CONTINUOUS
10
3.50415
20
-2.48874
11
3.50461
21
-2.4888
0
LINE
8
BLACK
6
CONTINUOUS
10
3.50461
20
-2.4888
11
3.50867
21
-2.49114
0
LINE
8
BLACK
6
CONTINUOUS
10
3.50867
20
-2.49114
11
3.50894
21
-2.4915
0
LINE
8
BLACK
6
CONTINUOUS
10
3.50894
20
-2.4915
11
3.50932
21
-2.49176
0
LINE
8
BLACK
6
CONTINUOUS
10
3.50932
20
-2.49176
11
3.51048
21
-2.49351
0
LINE
8
BLACK
6
CONTINUOUS
10
3.51048
20
-2.49351
11
3.51054
21
-2.49383
0
LINE
8
BLACK
6
CONTINUOUS
10
3.51054
20
-2.49383
11
3.51074
21
-2.49408
0
LINE
8
BLACK
6
CONTINUOUS
10
3.51074
20
-2.49408
11
3.51108
21
-2.49536
0
LINE
8
BLACK
6
CONTINUOUS
10
3.51108
20
-2.49536
11
3.51104
21
-2.49568
0
LINE
8
BLACK
6
CONTINUOUS
10
3.51104
20
-2.49568
11
3.51114
21
-2.49599
0
LINE
8
BLACK
6
CONTINUOUS
10
3.51114
20
-2.49599
11
3.51102
21
-2.49808
0
LINE
8
BLACK
6
CONTINUOUS
10
3.51102
20
-2.49808
11
3.51082
21
-2.4985
0
LINE
8
BLACK
6
CONTINUOUS
10
3.51082
20
-2.4985
11
3.51076
21
-2.49895
0
LINE
8
BLACK
6
CONTINUOUS
10
3.51076
20
-2.49895
11
3.50982
21
-2.50057
0
LINE
8
BLACK
6
CONTINUOUS
10
3.50982
20
-2.50057
11
3.50956
21
-2.50077
0
LINE
8
BLACK
6
CONTINUOUS
10
3.50956
20
-2.50077
11
3.50942
21
-2.50106
0
LINE
8
BLACK
6
CONTINUOUS
10
3.50942
20
-2.50106
11
3.5072
21
-2.50303
0
LINE
8
BLACK
6
CONTINUOUS
10
3.5072
20
-2.50303
11
3.50677
21
-2.50318
0
LINE
8
BLACK
6
CONTINUOUS
10
3.50677
20
-2.50318
11
3.50641
21
-2.50346
0
LINE
8
BLACK
6
CONTINUOUS
10
3.50641
20
-2.50346
11
3.49563
21
-2.50634
0
LINE
8
BLACK
6
CONTINUOUS
10
3.49563
20
-2.50634
11
3.50207
21
-2.51006
0
LINE
8
BLACK
6
CONTINUOUS
10
3.50207
20
-2.51006
11
3.50299
21
-2.51126
0
LINE
8
BLACK
6
CONTINUOUS
10
3.50299
20
-2.51126
11
3.50279
21
-2.51275
0
LINE
8
BLACK
6
CONTINUOUS
10
3.50279
20
-2.51275
11
3.5016
21
-2.51367
0
LINE
8
BLACK
6
CONTINUOUS
10
3.5016
20
-2.51367
11
3.5001
21
-2.51347
0
LINE
8
BLACK
6
CONTINUOUS
10
3.5001
20
-2.51347
11
3.48955
21
-2.50738
0
LINE
8
BLACK
6
CONTINUOUS
10
3.48955
20
-2.50738
11
3.48863
21
-2.50618
0
LINE
8
BLACK
6
CONTINUOUS
10
3.48863
20
-2.50618
11
3.48883
21
-2.50469
0
LINE
8
BLACK
6
CONTINUOUS
10
3.48883
20
-2.50469
11
3.49002
21
-2.50377
0
LINE
8
BLACK
6
CONTINUOUS
10
3.49002
20
-2.50377
11
3.50494
21
-2.49977
0
LINE
8
BLACK
6
CONTINUOUS
10
3.50494
20
-2.49977
11
3.50657
21
-2.49833
0
LINE
8
BLACK
6
CONTINUOUS
10
3.50657
20
-2.49833
11
3.50712
21
-2.49738
0
LINE
8
BLACK
6
CONTINUOUS
10
3.50712
20
-2.49738
11
3.5072
21
-2.49607
0
LINE
8
BLACK
6
CONTINUOUS
10
3.5072
20
-2.49607
11
3.50702
21
-2.49541
0
LINE
8
BLACK
6
CONTINUOUS
10
3.50702
20
-2.49541
11
3.50629
21
-2.49432
0
LINE
8
BLACK
6
CONTINUOUS
10
3.50629
20
-2.49432
11
3.50304
21
-2.49244
0
LINE
8
BLACK
6
CONTINUOUS
10
3.50304
20
-2.49244
11
3.50173
21
-2.49236
0
LINE
8
BLACK
6
CONTINUOUS
10
3.50173
20
-2.49236
11
3.50076
21
-2.49262
0
LINE
8
BLACK
6
CONTINUOUS
10
3.50076
20
-2.49262
11
3.49927
21
-2.49242
0
LINE
8
BLACK
6
CONTINUOUS
10
3.49927
20
-2.49242
11
3.49835
21
-2.49123
0
LINE
8
BLACK
6
CONTINUOUS
10
3.49835
20
-2.49123
11
3.49855
21
-2.48973
0
LINE
8
BLACK
6
CONTINUOUS
10
3.49855
20
-2.48973
11
3.49974
21
-2.48882
0
LINE
8
BLACK
6
CONTINUOUS
10
3.49974
20
-2.48882
11
3.50102
21
-2.48847
0
LINE
8
BLACK
6
CONTINUOUS
10
3.50102
20
-2.48847
11
3.50134
21
-2.48852
0
LINE
8
BLACK
6
CONTINUOUS
10
3.50134
20
-2.48852
11
3.50165
21
-2.48841
0
LINE
8
BLACK
6
CONTINUOUS
10
3.50165
20
-2.48841
11
3.50374
21
-2.48854
0
LINE
8
BLACK
6
CONTINUOUS
10
3.43708
20
-2.49882
11
3.43751
21
-2.49879
0
LINE
8
BLACK
6
CONTINUOUS
10
3.43751
20
-2.49879
11
3.43762
21
-2.49889
0
LINE
8
BLACK
6
CONTINUOUS
10
3.43762
20
-2.49889
11
3.43777
21
-2.49891
0
LINE
8
BLACK
6
CONTINUOUS
10
3.43777
20
-2.49891
11
3.43804
21
-2.49925
0
LINE
8
BLACK
6
CONTINUOUS
10
3.43804
20
-2.49925
11
3.43836
21
-2.49953
0
LINE
8
BLACK
6
CONTINUOUS
10
3.43836
20
-2.49953
11
3.43837
21
-2.49969
0
LINE
8
BLACK
6
CONTINUOUS
10
3.43837
20
-2.49969
11
3.43846
21
-2.49981
0
LINE
8
BLACK
6
CONTINUOUS
10
3.43846
20
-2.49981
11
3.43841
21
-2.50023
0
LINE
8
BLACK
6
CONTINUOUS
10
3.43841
20
-2.50023
11
3.43843
21
-2.50066
0
LINE
8
BLACK
6
CONTINUOUS
10
3.43843
20
-2.50066
11
3.43833
21
-2.50078
0
LINE
8
BLACK
6
CONTINUOUS
10
3.43833
20
-2.50078
11
3.43831
21
-2.50093
0
LINE
8
BLACK
6
CONTINUOUS
10
3.43831
20
-2.50093
11
3.43315
21
-2.50988
0
LINE
8
BLACK
6
CONTINUOUS
10
3.43315
20
-2.50988
11
3.43479
21
-2.51083
0
LINE
8
BLACK
6
CONTINUOUS
10
3.43479
20
-2.51083
11
3.43548
21
-2.51172
0
LINE
8
BLACK
6
CONTINUOUS
10
3.43548
20
-2.51172
11
3.43533
21
-2.51284
0
LINE
8
BLACK
6
CONTINUOUS
10
3.43533
20
-2.51284
11
3.43444
21
-2.51353
0
LINE
8
BLACK
6
CONTINUOUS
10
3.43444
20
-2.51353
11
3.43331
21
-2.51338
0
LINE
8
BLACK
6
CONTINUOUS
10
3.43331
20
-2.51338
11
3.42747
21
-2.51001
0
LINE
8
BLACK
6
CONTINUOUS
10
3.42747
20
-2.51001
11
3.42678
21
-2.50911
0
LINE
8
BLACK
6
CONTINUOUS
10
3.42678
20
-2.50911
11
3.42693
21
-2.50799
0
LINE
8
BLACK
6
CONTINUOUS
10
3.42693
20
-2.50799
11
3.42783
21
-2.5073
0
LINE
8
BLACK
6
CONTINUOUS
10
3.42783
20
-2.5073
11
3.42895
21
-2.50745
0
LINE
8
BLACK
6
CONTINUOUS
10
3.42895
20
-2.50745
11
3.43059
21
-2.5084
0
LINE
8
BLACK
6
CONTINUOUS
10
3.43059
20
-2.5084
11
3.43376
21
-2.50292
0
LINE
8
BLACK
6
CONTINUOUS
10
3.43376
20
-2.50292
11
3.43359
21
-2.50297
0
LINE
8
BLACK
6
CONTINUOUS
10
3.43359
20
-2.50297
11
3.43234
21
-2.5029
0
LINE
8
BLACK
6
CONTINUOUS
10
3.43234
20
-2.5029
11
3.43132
21
-2.5024
0
LINE
8
BLACK
6
CONTINUOUS
10
3.43132
20
-2.5024
11
3.43095
21
-2.50134
0
LINE
8
BLACK
6
CONTINUOUS
10
3.43095
20
-2.50134
11
3.43145
21
-2.50032
0
LINE
8
BLACK
6
CONTINUOUS
10
3.43145
20
-2.50032
11
3.43251
21
-2.49995
0
LINE
8
BLACK
6
CONTINUOUS
10
3.43251
20
-2.49995
11
3.43353
21
-2.50001
0
LINE
8
BLACK
6
CONTINUOUS
10
3.43353
20
-2.50001
11
3.43469
21
-2.4997
0
LINE
8
BLACK
6
CONTINUOUS
10
3.43469
20
-2.4997
11
3.43638
21
-2.49887
0
LINE
8
BLACK
6
CONTINUOUS
10
3.43638
20
-2.49887
11
3.43653
21
-2.49886
0
LINE
8
BLACK
6
CONTINUOUS
10
3.43653
20
-2.49886
11
3.43665
21
-2.49876
0
LINE
8
BLACK
6
CONTINUOUS
10
3.43665
20
-2.49876
11
3.43708
21
-2.49882
0
LINE
8
BLACK
6
CONTINUOUS
10
3.48988
20
-2.48071
11
3.49045
21
-2.48067
0
LINE
8
BLACK
6
CONTINUOUS
10
3.49045
20
-2.48067
11
3.49061
21
-2.4808
0
LINE
8
BLACK
6
CONTINUOUS
10
3.49061
20
-2.4808
11
3.49081
21
-2.48083
0
LINE
8
BLACK
6
CONTINUOUS
10
3.49081
20
-2.48083
11
3.49116
21
-2.48128
0
LINE
8
BLACK
6
CONTINUOUS
10
3.49116
20
-2.48128
11
3.49159
21
-2.48166
0
LINE
8
BLACK
6
CONTINUOUS
10
3.49159
20
-2.48166
11
3.4916
21
-2.48186
0
LINE
8
BLACK
6
CONTINUOUS
10
3.4916
20
-2.48186
11
3.49172
21
-2.48202
0
LINE
8
BLACK
6
CONTINUOUS
10
3.49172
20
-2.48202
11
3.49165
21
-2.48259
0
LINE
8
BLACK
6
CONTINUOUS
10
3.49165
20
-2.48259
11
3.49169
21
-2.48316
0
LINE
8
BLACK
6
CONTINUOUS
10
3.49169
20
-2.48316
11
3.49155
21
-2.48332
0
LINE
8
BLACK
6
CONTINUOUS
10
3.49155
20
-2.48332
11
3.49153
21
-2.48352
0
LINE
8
BLACK
6
CONTINUOUS
10
3.49153
20
-2.48352
11
3.48267
21
-2.49886
0
LINE
8
BLACK
6
CONTINUOUS
10
3.48267
20
-2.49886
11
3.48583
21
-2.50069
0
LINE
8
BLACK
6
CONTINUOUS
10
3.48583
20
-2.50069
11
3.48675
21
-2.50188
0
LINE
8
BLACK
6
CONTINUOUS
10
3.48675
20
-2.50188
11
3.48656
21
-2.50338
0
LINE
8
BLACK
6
CONTINUOUS
10
3.48656
20
-2.50338
11
3.48536
21
-2.50429
0
LINE
8
BLACK
6
CONTINUOUS
10
3.48536
20
-2.50429
11
3.48387
21
-2.5041
0
LINE
8
BLACK
6
CONTINUOUS
10
3.48387
20
-2.5041
11
3.479
21
-2.50128
0
LINE
8
BLACK
6
CONTINUOUS
10
3.479
20
-2.50128
11
3.479
21
-2.50128
0
LINE
8
BLACK
6
CONTINUOUS
10
3.479
20
-2.50128
11
3.479
21
-2.50128
0
LINE
8
BLACK
6
CONTINUOUS
10
3.479
20
-2.50128
11
3.47412
21
-2.49847
0
LINE
8
BLACK
6
CONTINUOUS
10
3.47412
20
-2.49847
11
3.47321
21
-2.49728
0
LINE
8
BLACK
6
CONTINUOUS
10
3.47321
20
-2.49728
11
3.4734
21
-2.49578
0
LINE
8
BLACK
6
CONTINUOUS
10
3.4734
20
-2.49578
11
3.4746
21
-2.49487
0
LINE
8
BLACK
6
CONTINUOUS
10
3.4746
20
-2.49487
11
3.47609
21
-2.49506
0
LINE
8
BLACK
6
CONTINUOUS
10
3.47609
20
-2.49506
11
3.47926
21
-2.49689
0
LINE
8
BLACK
6
CONTINUOUS
10
3.47926
20
-2.49689
11
3.48527
21
-2.48648
0
LINE
8
BLACK
6
CONTINUOUS
10
3.48527
20
-2.48648
11
3.48474
21
-2.48662
0
LINE
8
BLACK
6
CONTINUOUS
10
3.48474
20
-2.48662
11
3.48442
21
-2.48658
0
LINE
8
BLACK
6
CONTINUOUS
10
3.48442
20
-2.48658
11
3.48411
21
-2.48668
0
LINE
8
BLACK
6
CONTINUOUS
10
3.48411
20
-2.48668
11
3.48202
21
-2.48656
0
LINE
8
BLACK
6
CONTINUOUS
10
3.48202
20
-2.48656
11
3.48067
21
-2.4859
0
LINE
8
BLACK
6
CONTINUOUS
10
3.48067
20
-2.4859
11
3.48017
21
-2.48447
0
LINE
8
BLACK
6
CONTINUOUS
10
3.48017
20
-2.48447
11
3.48083
21
-2.48312
0
LINE
8
BLACK
6
CONTINUOUS
10
3.48083
20
-2.48312
11
3.48226
21
-2.48263
0
LINE
8
BLACK
6
CONTINUOUS
10
3.48226
20
-2.48263
11
3.48403
21
-2.48273
0
LINE
8
BLACK
6
CONTINUOUS
10
3.48403
20
-2.48273
11
3.48609
21
-2.48218
0
LINE
8
BLACK
6
CONTINUOUS
10
3.48609
20
-2.48218
11
3.48895
21
-2.48077
0
LINE
8
BLACK
6
CONTINUOUS
10
3.48895
20
-2.48077
11
3.48915
21
-2.48075
0
LINE
8
BLACK
6
CONTINUOUS
10
3.48915
20
-2.48075
11
3.48931
21
-2.48063
0
LINE
8
BLACK
6
CONTINUOUS
10
3.48931
20
-2.48063
11
3.48988
21
-2.48071
0
LINE
8
BLACK
6
CONTINUOUS
10
3.4697
20
-2.46864
11
3.47376
21
-2.47098
0
LINE
8
BLACK
6
CONTINUOUS
10
3.47376
20
-2.47098
11
3.47396
21
-2.47124
0
LINE
8
BLACK
6
CONTINUOUS
10
3.47396
20
-2.47124
11
3.47425
21
-2.47138
0
LINE
8
BLACK
6
CONTINUOUS
10
3.47425
20
-2.47138
11
3.47621
21
-2.4736
0
LINE
8
BLACK
6
CONTINUOUS
10
3.47621
20
-2.4736
11
3.47636
21
-2.47403
0
LINE
8
BLACK
6
CONTINUOUS
10
3.47636
20
-2.47403
11
3.47664
21
-2.4744
0
LINE
8
BLACK
6
CONTINUOUS
10
3.47664
20
-2.4744
11
3.47733
21
-2.47696
0
LINE
8
BLACK
6
CONTINUOUS
10
3.47733
20
-2.47696
11
3.47729
21
-2.47728
0
LINE
8
BLACK
6
CONTINUOUS
10
3.47729
20
-2.47728
11
3.47739
21
-2.47759
0
LINE
8
BLACK
6
CONTINUOUS
10
3.47739
20
-2.47759
11
3.47727
21
-2.47968
0
LINE
8
BLACK
6
CONTINUOUS
10
3.47727
20
-2.47968
11
3.47717
21
-2.47988
0
LINE
8
BLACK
6
CONTINUOUS
10
3.47717
20
-2.47988
11
3.47719
21
-2.4801
0
LINE
8
BLACK
6
CONTINUOUS
10
3.47719
20
-2.4801
11
3.47613
21
-2.48382
0
LINE
8
BLACK
6
CONTINUOUS
10
3.47613
20
-2.48382
11
3.47598
21
-2.48401
0
LINE
8
BLACK
6
CONTINUOUS
10
3.47598
20
-2.48401
11
3.47594
21
-2.48426
0
LINE
8
BLACK
6
CONTINUOUS
10
3.47594
20
-2.48426
11
3.47454
21
-2.4867
0
LINE
8
BLACK
6
CONTINUOUS
10
3.47454
20
-2.4867
11
3.47434
21
-2.48685
0
LINE
8
BLACK
6
CONTINUOUS
10
3.47434
20
-2.48685
11
3.47425
21
-2.48708
0
LINE
8
BLACK
6
CONTINUOUS
10
3.47425
20
-2.48708
11
3.47156
21
-2.48986
0
LINE
8
BLACK
6
CONTINUOUS
10
3.47156
20
-2.48986
11
3.47136
21
-2.48995
0
LINE
8
BLACK
6
CONTINUOUS
10
3.47136
20
-2.48995
11
3.47123
21
-2.49013
0
LINE
8
BLACK
6
CONTINUOUS
10
3.47123
20
-2.49013
11
3.46948
21
-2.49129
0
LINE
8
BLACK
6
CONTINUOUS
10
3.46948
20
-2.49129
11
3.46916
21
-2.49135
0
LINE
8
BLACK
6
CONTINUOUS
10
3.46916
20
-2.49135
11
3.46891
21
-2.49155
0
LINE
8
BLACK
6
CONTINUOUS
10
3.46891
20
-2.49155
11
3.46635
21
-2.49223
0
LINE
8
BLACK
6
CONTINUOUS
10
3.46635
20
-2.49223
11
3.46589
21
-2.49217
0
LINE
8
BLACK
6
CONTINUOUS
10
3.46589
20
-2.49217
11
3.46544
21
-2.49226
0
LINE
8
BLACK
6
CONTINUOUS
10
3.46544
20
-2.49226
11
3.46254
21
-2.49167
0
LINE
8
BLACK
6
CONTINUOUS
10
3.46254
20
-2.49167
11
3.46227
21
-2.49148
0
LINE
8
BLACK
6
CONTINUOUS
10
3.46227
20
-2.49148
11
3.46195
21
-2.49144
0
LINE
8
BLACK
6
CONTINUOUS
10
3.46195
20
-2.49144
11
3.45789
21
-2.4891
0
LINE
8
BLACK
6
CONTINUOUS
10
3.45789
20
-2.4891
11
3.45697
21
-2.4879
0
LINE
8
BLACK
6
CONTINUOUS
10
3.45697
20
-2.4879
11
3.45717
21
-2.48641
0
LINE
8
BLACK
6
CONTINUOUS
10
3.45717
20
-2.48641
11
3.45717
21
-2.48641
0
LINE
8
BLACK
6
CONTINUOUS
10
3.45717
20
-2.48641
11
3.46701
21
-2.46936
0
LINE
8
BLACK
6
CONTINUOUS
10
3.46701
20
-2.46936
11
3.46821
21
-2.46844
0
LINE
8
BLACK
6
CONTINUOUS
10
3.46821
20
-2.46844
11
3.4697
21
-2.46864
0
LINE
8
BLACK
6
CONTINUOUS
10
3.46156
20
-2.48667
11
3.46364
21
-2.48787
0
LINE
8
BLACK
6
CONTINUOUS
10
3.46364
20
-2.48787
11
3.46578
21
-2.48831
0
LINE
8
BLACK
6
CONTINUOUS
10
3.46578
20
-2.48831
11
3.46758
21
-2.48783
0
LINE
8
BLACK
6
CONTINUOUS
10
3.46758
20
-2.48783
11
3.46888
21
-2.48697
0
LINE
8
BLACK
6
CONTINUOUS
10
3.46888
20
-2.48697
11
3.47125
21
-2.48452
0
LINE
8
BLACK
6
CONTINUOUS
10
3.47125
20
-2.48452
11
3.47241
21
-2.4825
0
LINE
8
BLACK
6
CONTINUOUS
10
3.47241
20
-2.4825
11
3.47335
21
-2.47923
0
LINE
8
BLACK
6
CONTINUOUS
10
3.47335
20
-2.47923
11
3.47344
21
-2.47767
0
LINE
8
BLACK
6
CONTINUOUS
10
3.47344
20
-2.47767
11
3.47296
21
-2.47587
0
LINE
8
BLACK
6
CONTINUOUS
10
3.47296
20
-2.47587
11
3.47151
21
-2.47423
0
LINE
8
BLACK
6
CONTINUOUS
10
3.47151
20
-2.47423
11
3.46944
21
-2.47304
0
LINE
8
BLACK
6
CONTINUOUS
10
3.46944
20
-2.47304
11
3.46156
21
-2.48667
0
LINE
8
BLACK
6
CONTINUOUS
10
2.78573
20
-2.4047
11
2.78606
21
-2.40467
0
LINE
8
BLACK
6
CONTINUOUS
10
2.78606
20
-2.40467
11
2.78887
21
-2.40561
0
LINE
8
BLACK
6
CONTINUOUS
10
2.78887
20
-2.40561
11
2.78921
21
-2.40591
0
LINE
8
BLACK
6
CONTINUOUS
10
2.78921
20
-2.40591
11
2.78964
21
-2.40609
0
LINE
8
BLACK
6
CONTINUOUS
10
2.78964
20
-2.40609
11
2.79151
21
-2.40796
0
LINE
8
BLACK
6
CONTINUOUS
10
2.79151
20
-2.40796
11
2.79164
21
-2.40826
0
LINE
8
BLACK
6
CONTINUOUS
10
2.79164
20
-2.40826
11
2.79188
21
-2.40847
0
LINE
8
BLACK
6
CONTINUOUS
10
2.79188
20
-2.40847
11
2.79282
21
-2.41035
0
LINE
8
BLACK
6
CONTINUOUS
10
2.79282
20
-2.41035
11
2.79283
21
-2.41057
0
LINE
8
BLACK
6
CONTINUOUS
10
2.79283
20
-2.41057
11
2.79297
21
-2.41075
0
LINE
8
BLACK
6
CONTINUOUS
10
2.79297
20
-2.41075
11
2.7939
21
-2.4145
0
LINE
8
BLACK
6
CONTINUOUS
10
2.7939
20
-2.4145
11
2.79387
21
-2.41475
0
LINE
8
BLACK
6
CONTINUOUS
10
2.79387
20
-2.41475
11
2.79396
21
-2.41498
0
LINE
8
BLACK
6
CONTINUOUS
10
2.79396
20
-2.41498
11
2.79396
21
-2.41779
0
LINE
8
BLACK
6
CONTINUOUS
10
2.79396
20
-2.41779
11
2.79387
21
-2.41802
0
LINE
8
BLACK
6
CONTINUOUS
10
2.79387
20
-2.41802
11
2.7939
21
-2.41827
0
LINE
8
BLACK
6
CONTINUOUS
10
2.7939
20
-2.41827
11
2.79297
21
-2.42202
0
LINE
8
BLACK
6
CONTINUOUS
10
2.79297
20
-2.42202
11
2.79283
21
-2.42219
0
LINE
8
BLACK
6
CONTINUOUS
10
2.79283
20
-2.42219
11
2.79282
21
-2.42242
0
LINE
8
BLACK
6
CONTINUOUS
10
2.79282
20
-2.42242
11
2.79188
21
-2.42429
0
LINE
8
BLACK
6
CONTINUOUS
10
2.79188
20
-2.42429
11
2.79164
21
-2.42451
0
LINE
8
BLACK
6
CONTINUOUS
10
2.79164
20
-2.42451
11
2.79151
21
-2.4248
0
LINE
8
BLACK
6
CONTINUOUS
10
2.79151
20
-2.4248
11
2.78964
21
-2.42668
0
LINE
8
BLACK
6
CONTINUOUS
10
2.78964
20
-2.42668
11
2.78921
21
-2.42685
0
LINE
8
BLACK
6
CONTINUOUS
10
2.78921
20
-2.42685
11
2.78887
21
-2.42715
0
LINE
8
BLACK
6
CONTINUOUS
10
2.78887
20
-2.42715
11
2.78606
21
-2.42809
0
LINE
8
BLACK
6
CONTINUOUS
10
2.78606
20
-2.42809
11
2.78573
21
-2.42807
0
LINE
8
BLACK
6
CONTINUOUS
10
2.78573
20
-2.42807
11
2.78543
21
-2.42819
0
LINE
8
BLACK
6
CONTINUOUS
10
2.78543
20
-2.42819
11
2.78075
21
-2.42819
0
LINE
8
BLACK
6
CONTINUOUS
10
2.78075
20
-2.42819
11
2.77935
21
-2.42762
0
LINE
8
BLACK
6
CONTINUOUS
10
2.77935
20
-2.42762
11
2.77878
21
-2.42622
0
LINE
8
BLACK
6
CONTINUOUS
10
2.77878
20
-2.42622
11
2.77878
21
-2.42622
0
LINE
8
BLACK
6
CONTINUOUS
10
2.77878
20
-2.42622
11
2.77878
21
-2.40654
0
LINE
8
BLACK
6
CONTINUOUS
10
2.77878
20
-2.40654
11
2.77935
21
-2.40515
0
LINE
8
BLACK
6
CONTINUOUS
10
2.77935
20
-2.40515
11
2.78075
21
-2.40457
0
LINE
8
BLACK
6
CONTINUOUS
10
2.78075
20
-2.40457
11
2.78543
21
-2.40457
0
LINE
8
BLACK
6
CONTINUOUS
10
2.78543
20
-2.40457
11
2.78573
21
-2.4047
0
LINE
8
BLACK
6
CONTINUOUS
10
2.78271
20
-2.42426
11
2.78511
21
-2.42426
0
LINE
8
BLACK
6
CONTINUOUS
10
2.78511
20
-2.42426
11
2.78718
21
-2.42357
0
LINE
8
BLACK
6
CONTINUOUS
10
2.78718
20
-2.42357
11
2.7885
21
-2.42225
0
LINE
8
BLACK
6
CONTINUOUS
10
2.7885
20
-2.42225
11
2.7892
21
-2.42085
0
LINE
8
BLACK
6
CONTINUOUS
10
2.7892
20
-2.42085
11
2.79003
21
-2.41755
0
LINE
8
BLACK
6
CONTINUOUS
10
2.79003
20
-2.41755
11
2.79003
21
-2.41522
0
LINE
8
BLACK
6
CONTINUOUS
10
2.79003
20
-2.41522
11
2.7892
21
-2.41191
0
LINE
8
BLACK
6
CONTINUOUS
10
2.7892
20
-2.41191
11
2.7885
21
-2.41052
0
LINE
8
BLACK
6
CONTINUOUS
10
2.7885
20
-2.41052
11
2.78718
21
-2.4092
0
LINE
8
BLACK
6
CONTINUOUS
10
2.78718
20
-2.4092
11
2.78511
21
-2.40851
0
LINE
8
BLACK
6
CONTINUOUS
10
2.78511
20
-2.40851
11
2.78271
21
-2.40851
0
LINE
8
BLACK
6
CONTINUOUS
10
2.78271
20
-2.40851
11
2.78271
21
-2.42426
0
LINE
8
BLACK
6
CONTINUOUS
10
2.81205
20
-2.40473
11
2.81246
21
-2.40473
0
LINE
8
BLACK
6
CONTINUOUS
10
2.81246
20
-2.40473
11
2.81272
21
-2.405
0
LINE
8
BLACK
6
CONTINUOUS
10
2.81272
20
-2.405
11
2.81307
21
-2.40515
0
LINE
8
BLACK
6
CONTINUOUS
10
2.81307
20
-2.40515
11
2.81323
21
-2.40552
0
LINE
8
BLACK
6
CONTINUOUS
10
2.81323
20
-2.40552
11
2.81351
21
-2.40581
0
LINE
8
BLACK
6
CONTINUOUS
10
2.81351
20
-2.40581
11
2.8135
21
-2.40619
0
LINE
8
BLACK
6
CONTINUOUS
10
2.8135
20
-2.40619
11
2.81365
21
-2.40654
0
LINE
8
BLACK
6
CONTINUOUS
10
2.81365
20
-2.40654
11
2.81349
21
-2.40691
0
LINE
8
BLACK
6
CONTINUOUS
10
2.81349
20
-2.40691
11
2.81349
21
-2.40732
0
LINE
8
BLACK
6
CONTINUOUS
10
2.81349
20
-2.40732
11
2.80505
21
-2.427
0
LINE
8
BLACK
6
CONTINUOUS
10
2.80505
20
-2.427
11
2.80397
21
-2.42805
0
LINE
8
BLACK
6
CONTINUOUS
10
2.80397
20
-2.42805
11
2.80247
21
-2.42803
0
LINE
8
BLACK
6
CONTINUOUS
10
2.80247
20
-2.42803
11
2.80142
21
-2.42696
0
LINE
8
BLACK
6
CONTINUOUS
10
2.80142
20
-2.42696
11
2.80143
21
-2.42545
0
LINE
8
BLACK
6
CONTINUOUS
10
2.80143
20
-2.42545
11
2.80869
21
-2.40851
0
LINE
8
BLACK
6
CONTINUOUS
10
2.80869
20
-2.40851
11
2.79856
21
-2.40851
0
LINE
8
BLACK
6
CONTINUOUS
10
2.79856
20
-2.40851
11
2.79716
21
-2.40793
0
LINE
8
BLACK
6
CONTINUOUS
10
2.79716
20
-2.40793
11
2.79659
21
-2.40654
0
LINE
8
BLACK
6
CONTINUOUS
10
2.79659
20
-2.40654
11
2.79716
21
-2.40515
0
LINE
8
BLACK
6
CONTINUOUS
10
2.79716
20
-2.40515
11
2.79856
21
-2.40457
0
LINE
8
BLACK
6
CONTINUOUS
10
2.79856
20
-2.40457
11
2.81168
21
-2.40457
0
LINE
8
BLACK
6
CONTINUOUS
10
2.81168
20
-2.40457
11
2.81205
21
-2.40473
0
LINE
8
BLACK
6
CONTINUOUS
10
2.7632
20
-2.36869
11
2.76378
21
-2.37008
0
LINE
8
BLACK
6
CONTINUOUS
10
2.76378
20
-2.37008
11
2.76378
21
-2.3937
0
LINE
8
BLACK
6
CONTINUOUS
10
2.76378
20
-2.3937
11
2.7874
21
-2.3937
0
LINE
8
BLACK
6
CONTINUOUS
10
2.7874
20
-2.3937
11
2.78879
21
-2.39428
0
LINE
8
BLACK
6
CONTINUOUS
10
2.78879
20
-2.39428
11
2.78937
21
-2.39567
0
LINE
8
BLACK
6
CONTINUOUS
10
2.78937
20
-2.39567
11
2.78879
21
-2.39706
0
LINE
8
BLACK
6
CONTINUOUS
10
2.78879
20
-2.39706
11
2.7874
21
-2.39764
0
LINE
8
BLACK
6
CONTINUOUS
10
2.7874
20
-2.39764
11
2.76181
21
-2.39764
0
LINE
8
BLACK
6
CONTINUOUS
10
2.76181
20
-2.39764
11
2.76042
21
-2.39706
0
LINE
8
BLACK
6
CONTINUOUS
10
2.76042
20
-2.39706
11
2.75984
21
-2.39567
0
LINE
8
BLACK
6
CONTINUOUS
10
2.75984
20
-2.39567
11
2.75984
21
-2.37008
0
LINE
8
BLACK
6
CONTINUOUS
10
2.75984
20
-2.37008
11
2.76042
21
-2.36869
0
LINE
8
BLACK
6
CONTINUOUS
10
2.76042
20
-2.36869
11
2.76181
21
-2.36811
0
LINE
8
BLACK
6
CONTINUOUS
10
2.76181
20
-2.36811
11
2.7632
21
-2.36869
0
LINE
8
BLACK
6
CONTINUOUS
10
2.83209
20
-2.37211
11
2.83251
21
-2.37219
0
LINE
8
BLACK
6
CONTINUOUS
10
2.83251
20
-2.37219
11
2.8326
21
-2.37232
0
LINE
8
BLACK
6
CONTINUOUS
10
2.8326
20
-2.37232
11
2.83274
21
-2.37238
0
LINE
8
BLACK
6
CONTINUOUS
10
2.83274
20
-2.37238
11
2.8329
21
-2.37277
0
LINE
8
BLACK
6
CONTINUOUS
10
2.8329
20
-2.37277
11
2.83314
21
-2.37313
0
LINE
8
BLACK
6
CONTINUOUS
10
2.83314
20
-2.37313
11
2.83311
21
-2.37328
0
LINE
8
BLACK
6
CONTINUOUS
10
2.83311
20
-2.37328
11
2.83317
21
-2.37342
0
LINE
8
BLACK
6
CONTINUOUS
10
2.83317
20
-2.37342
11
2.83317
21
-2.38376
0
LINE
8
BLACK
6
CONTINUOUS
10
2.83317
20
-2.38376
11
2.83507
21
-2.38376
0
LINE
8
BLACK
6
CONTINUOUS
10
2.83507
20
-2.38376
11
2.83611
21
-2.38419
0
LINE
8
BLACK
6
CONTINUOUS
10
2.83611
20
-2.38419
11
2.83654
21
-2.38523
0
LINE
8
BLACK
6
CONTINUOUS
10
2.83654
20
-2.38523
11
2.83611
21
-2.38628
0
LINE
8
BLACK
6
CONTINUOUS
10
2.83611
20
-2.38628
11
2.83507
21
-2.38671
0
LINE
8
BLACK
6
CONTINUOUS
10
2.83507
20
-2.38671
11
2.83169
21
-2.38671
0
LINE
8
BLACK
6
CONTINUOUS
10
2.83169
20
-2.38671
11
2.82832
21
-2.38671
0
LINE
8
BLACK
6
CONTINUOUS
10
2.82832
20
-2.38671
11
2.82727
21
-2.38628
0
LINE
8
BLACK
6
CONTINUOUS
10
2.82727
20
-2.38628
11
2.82684
21
-2.38523
0
LINE
8
BLACK
6
CONTINUOUS
10
2.82684
20
-2.38523
11
2.82727
21
-2.38419
0
LINE
8
BLACK
6
CONTINUOUS
10
2.82727
20
-2.38419
11
2.82832
21
-2.38376
0
LINE
8
BLACK
6
CONTINUOUS
10
2.82832
20
-2.38376
11
2.83022
21
-2.38376
0
LINE
8
BLACK
6
CONTINUOUS
10
2.83022
20
-2.38376
11
2.83022
21
-2.37742
0
LINE
8
BLACK
6
CONTINUOUS
10
2.83022
20
-2.37742
11
2.8301
21
-2.37755
0
LINE
8
BLACK
6
CONTINUOUS
10
2.8301
20
-2.37755
11
2.82898
21
-2.37812
0
LINE
8
BLACK
6
CONTINUOUS
10
2.82898
20
-2.37812
11
2.82785
21
-2.3782
0
LINE
8
BLACK
6
CONTINUOUS
10
2.82785
20
-2.3782
11
2.827
21
-2.37746
0
LINE
8
BLACK
6
CONTINUOUS
10
2.827
20
-2.37746
11
2.82692
21
-2.37633
0
LINE
8
BLACK
6
CONTINUOUS
10
2.82692
20
-2.37633
11
2.82766
21
-2.37547
0
LINE
8
BLACK
6
CONTINUOUS
10
2.82766
20
-2.37547
11
2.82857
21
-2.37502
0
LINE
8
BLACK
6
CONTINUOUS
10
2.82857
20
-2.37502
11
2.82942
21
-2.37417
0
LINE
8
BLACK
6
CONTINUOUS
10
2.82942
20
-2.37417
11
2.83046
21
-2.3726
0
LINE
8
BLACK
6
CONTINUOUS
10
2.83046
20
-2.3726
11
2.83059
21
-2.37252
0
LINE
8
BLACK
6
CONTINUOUS
10
2.83059
20
-2.37252
11
2.83065
21
-2.37238
0
LINE
8
BLACK
6
CONTINUOUS
10
2.83065
20
-2.37238
11
2.83105
21
-2.37221
0
LINE
8
BLACK
6
CONTINUOUS
10
2.83105
20
-2.37221
11
2.8314
21
-2.37197
0
LINE
8
BLACK
6
CONTINUOUS
10
2.8314
20
-2.37197
11
2.83155
21
-2.372
0
LINE
8
BLACK
6
CONTINUOUS
10
2.83155
20
-2.372
11
2.83169
21
-2.37194
0
LINE
8
BLACK
6
CONTINUOUS
10
2.83169
20
-2.37194
11
2.83209
21
-2.37211
0
LINE
8
BLACK
6
CONTINUOUS
10
3.1435
20
-2.31977
11
3.14408
21
-2.32116
0
LINE
8
BLACK
6
CONTINUOUS
10
3.14408
20
-2.32116
11
3.14408
21
-2.36053
0
LINE
8
BLACK
6
CONTINUOUS
10
3.14408
20
-2.36053
11
3.1435
21
-2.36192
0
LINE
8
BLACK
6
CONTINUOUS
10
3.1435
20
-2.36192
11
3.14211
21
-2.3625
0
LINE
8
BLACK
6
CONTINUOUS
10
3.14211
20
-2.3625
11
3.14072
21
-2.36192
0
LINE
8
BLACK
6
CONTINUOUS
10
3.14072
20
-2.36192
11
3.14014
21
-2.36053
0
LINE
8
BLACK
6
CONTINUOUS
10
3.14014
20
-2.36053
11
3.14014
21
-2.34187
0
LINE
8
BLACK
6
CONTINUOUS
10
3.14014
20
-2.34187
11
3.12158
21
-2.34187
0
LINE
8
BLACK
6
CONTINUOUS
10
3.12158
20
-2.34187
11
3.12158
21
-2.36053
0
LINE
8
BLACK
6
CONTINUOUS
10
3.12158
20
-2.36053
11
3.121
21
-2.36192
0
LINE
8
BLACK
6
CONTINUOUS
10
3.121
20
-2.36192
11
3.11961
21
-2.3625
0
LINE
8
BLACK
6
CONTINUOUS
10
3.11961
20
-2.3625
11
3.11822
21
-2.36192
0
LINE
8
BLACK
6
CONTINUOUS
10
3.11822
20
-2.36192
11
3.11764
21
-2.36053
0
LINE
8
BLACK
6
CONTINUOUS
10
3.11764
20
-2.36053
11
3.11764
21
-2.32116
0
LINE
8
BLACK
6
CONTINUOUS
10
3.11764
20
-2.32116
11
3.11822
21
-2.31977
0
LINE
8
BLACK
6
CONTINUOUS
10
3.11822
20
-2.31977
11
3.11961
21
-2.31919
0
LINE
8
BLACK
6
CONTINUOUS
10
3.11961
20
-2.31919
11
3.121
21
-2.31977
0
LINE
8
BLACK
6
CONTINUOUS
10
3.121
20
-2.31977
11
3.12158
21
-2.32116
0
LINE
8
BLACK
6
CONTINUOUS
10
3.12158
20
-2.32116
11
3.12158
21
-2.33794
0
LINE
8
BLACK
6
CONTINUOUS
10
3.12158
20
-2.33794
11
3.14014
21
-2.33794
0
LINE
8
BLACK
6
CONTINUOUS
10
3.14014
20
-2.33794
11
3.14014
21
-2.32116
0
LINE
8
BLACK
6
CONTINUOUS
10
3.14014
20
-2.32116
11
3.14072
21
-2.31977
0
LINE
8
BLACK
6
CONTINUOUS
10
3.14072
20
-2.31977
11
3.14211
21
-2.31919
0
LINE
8
BLACK
6
CONTINUOUS
10
3.14211
20
-2.31919
11
3.1435
21
-2.31977
0
LINE
8
BLACK
6
CONTINUOUS
10
3.17011
20
-2.3184
11
3.17022
21
-2.31991
0
LINE
8
BLACK
6
CONTINUOUS
10
3.17022
20
-2.31991
11
3.16171
21
-2.34544
0
LINE
8
BLACK
6
CONTINUOUS
10
3.16171
20
-2.34544
11
3.17576
21
-2.34544
0
LINE
8
BLACK
6
CONTINUOUS
10
3.17576
20
-2.34544
11
3.17576
21
-2.33428
0
LINE
8
BLACK
6
CONTINUOUS
10
3.17576
20
-2.33428
11
3.17634
21
-2.33289
0
LINE
8
BLACK
6
CONTINUOUS
10
3.17634
20
-2.33289
11
3.17773
21
-2.33231
0
LINE
8
BLACK
6
CONTINUOUS
10
3.17773
20
-2.33231
11
3.17912
21
-2.33289
0
LINE
8
BLACK
6
CONTINUOUS
10
3.17912
20
-2.33289
11
3.1797
21
-2.33428
0
LINE
8
BLACK
6
CONTINUOUS
10
3.1797
20
-2.33428
11
3.1797
21
-2.34544
0
LINE
8
BLACK
6
CONTINUOUS
10
3.1797
20
-2.34544
11
3.18335
21
-2.34544
0
LINE
8
BLACK
6
CONTINUOUS
10
3.18335
20
-2.34544
11
3.18474
21
-2.34601
0
LINE
8
BLACK
6
CONTINUOUS
10
3.18474
20
-2.34601
11
3.18532
21
-2.3474
0
LINE
8
BLACK
6
CONTINUOUS
10
3.18532
20
-2.3474
11
3.18474
21
-2.3488
0
LINE
8
BLACK
6
CONTINUOUS
10
3.18474
20
-2.3488
11
3.18335
21
-2.34937
0
LINE
8
BLACK
6
CONTINUOUS
10
3.18335
20
-2.34937
11
3.1797
21
-2.34937
0
LINE
8
BLACK
6
CONTINUOUS
10
3.1797
20
-2.34937
11
3.1797
21
-2.36053
0
LINE
8
BLACK
6
CONTINUOUS
10
3.1797
20
-2.36053
11
3.17912
21
-2.36192
0
LINE
8
BLACK
6
CONTINUOUS
10
3.17912
20
-2.36192
11
3.17773
21
-2.3625
0
LINE
8
BLACK
6
CONTINUOUS
10
3.17773
20
-2.3625
11
3.17634
21
-2.36192
0
LINE
8
BLACK
6
CONTINUOUS
10
3.17634
20
-2.36192
11
3.17576
21
-2.36053
0
LINE
8
BLACK
6
CONTINUOUS
10
3.17576
20
-2.36053
11
3.17576
21
-2.34937
0
LINE
8
BLACK
6
CONTINUOUS
10
3.17576
20
-2.34937
11
3.15898
21
-2.34937
0
LINE
8
BLACK
6
CONTINUOUS
10
3.15898
20
-2.34937
11
3.15868
21
-2.34925
0
LINE
8
BLACK
6
CONTINUOUS
10
3.15868
20
-2.34925
11
3.15836
21
-2.34927
0
LINE
8
BLACK
6
CONTINUOUS
10
3.15836
20
-2.34927
11
3.15801
21
-2.34897
0
LINE
8
BLACK
6
CONTINUOUS
10
3.15801
20
-2.34897
11
3.15759
21
-2.3488
0
LINE
8
BLACK
6
CONTINUOUS
10
3.15759
20
-2.3488
11
3.15746
21
-2.3485
0
LINE
8
BLACK
6
CONTINUOUS
10
3.15746
20
-2.3485
11
3.15722
21
-2.34829
0
LINE
8
BLACK
6
CONTINUOUS
10
3.15722
20
-2.34829
11
3.15719
21
-2.34783
0
LINE
8
BLACK
6
CONTINUOUS
10
3.15719
20
-2.34783
11
3.15701
21
-2.3474
0
LINE
8
BLACK
6
CONTINUOUS
10
3.15701
20
-2.3474
11
3.15714
21
-2.34711
0
LINE
8
BLACK
6
CONTINUOUS
10
3.15714
20
-2.34711
11
3.15711
21
-2.34678
0
LINE
8
BLACK
6
CONTINUOUS
10
3.15711
20
-2.34678
11
3.16649
21
-2.31866
0
LINE
8
BLACK
6
CONTINUOUS
10
3.16649
20
-2.31866
11
3.16747
21
-2.31752
0
LINE
8
BLACK
6
CONTINUOUS
10
3.16747
20
-2.31752
11
3.16898
21
-2.31742
0
LINE
8
BLACK
6
CONTINUOUS
10
3.16898
20
-2.31742
11
3.17011
21
-2.3184
0
LINE
8
BLACK
6
CONTINUOUS
10
3.5374
20
-2.32677
11
3.53879
21
-2.32735
0
LINE
8
BLACK
6
CONTINUOUS
10
3.53879
20
-2.32735
11
3.53937
21
-2.32874
0
LINE
8
BLACK
6
CONTINUOUS
10
3.53937
20
-2.32874
11
3.53937
21
-2.35433
0
LINE
8
BLACK
6
CONTINUOUS
10
3.53937
20
-2.35433
11
3.53879
21
-2.35572
0
LINE
8
BLACK
6
CONTINUOUS
10
3.53879
20
-2.35572
11
3.5374
21
-2.3563
0
LINE
8
BLACK
6
CONTINUOUS
10
3.5374
20
-2.3563
11
3.53601
21
-2.35572
0
LINE
8
BLACK
6
CONTINUOUS
10
3.53601
20
-2.35572
11
3.53543
21
-2.35433
0
LINE
8
BLACK
6
CONTINUOUS
10
3.53543
20
-2.35433
11
3.53543
21
-2.33071
0
LINE
8
BLACK
6
CONTINUOUS
10
3.53543
20
-2.33071
11
3.51181
21
-2.33071
0
LINE
8
BLACK
6
CONTINUOUS
10
3.51181
20
-2.33071
11
3.51042
21
-2.33013
0
LINE
8
BLACK
6
CONTINUOUS
10
3.51042
20
-2.33013
11
3.50984
21
-2.32874
0
LINE
8
BLACK
6
CONTINUOUS
10
3.50984
20
-2.32874
11
3.51042
21
-2.32735
0
LINE
8
BLACK
6
CONTINUOUS
10
3.51042
20
-2.32735
11
3.51181
21
-2.32677
0
LINE
8
BLACK
6
CONTINUOUS
10
3.51181
20
-2.32677
11
3.5374
21
-2.32677
0
LINE
8
BLACK
6
CONTINUOUS
10
3.46792
20
-2.33668
11
3.46834
21
-2.33676
0
LINE
8
BLACK
6
CONTINUOUS
10
3.46834
20
-2.33676
11
3.46842
21
-2.33689
0
LINE
8
BLACK
6
CONTINUOUS
10
3.46842
20
-2.33689
11
3.46856
21
-2.33694
0
LINE
8
BLACK
6
CONTINUOUS
10
3.46856
20
-2.33694
11
3.46873
21
-2.33734
0
LINE
8
BLACK
6
CONTINUOUS
10
3.46873
20
-2.33734
11
3.46897
21
-2.3377
0
LINE
8
BLACK
6
CONTINUOUS
10
3.46897
20
-2.3377
11
3.46894
21
-2.33785
0
LINE
8
BLACK
6
CONTINUOUS
10
3.46894
20
-2.33785
11
3.469
21
-2.33799
0
LINE
8
BLACK
6
CONTINUOUS
10
3.469
20
-2.33799
11
3.469
21
-2.34832
0
LINE
8
BLACK
6
CONTINUOUS
10
3.469
20
-2.34832
11
3.47089
21
-2.34832
0
LINE
8
BLACK
6
CONTINUOUS
10
3.47089
20
-2.34832
11
3.47194
21
-2.34875
0
LINE
8
BLACK
6
CONTINUOUS
10
3.47194
20
-2.34875
11
3.47237
21
-2.3498
0
LINE
8
BLACK
6
CONTINUOUS
10
3.47237
20
-2.3498
11
3.47194
21
-2.35084
0
LINE
8
BLACK
6
CONTINUOUS
10
3.47194
20
-2.35084
11
3.47089
21
-2.35127
0
LINE
8
BLACK
6
CONTINUOUS
10
3.47089
20
-2.35127
11
3.46752
21
-2.35127
0
LINE
8
BLACK
6
CONTINUOUS
10
3.46752
20
-2.35127
11
3.46415
21
-2.35127
0
LINE
8
BLACK
6
CONTINUOUS
10
3.46415
20
-2.35127
11
3.4631
21
-2.35084
0
LINE
8
BLACK
6
CONTINUOUS
10
3.4631
20
-2.35084
11
3.46267
21
-2.3498
0
LINE
8
BLACK
6
CONTINUOUS
10
3.46267
20
-2.3498
11
3.4631
21
-2.34875
0
LINE
8
BLACK
6
CONTINUOUS
10
3.4631
20
-2.34875
11
3.46415
21
-2.34832
0
LINE
8
BLACK
6
CONTINUOUS
10
3.46415
20
-2.34832
11
3.46604
21
-2.34832
0
LINE
8
BLACK
6
CONTINUOUS
10
3.46604
20
-2.34832
11
3.46604
21
-2.34199
0
LINE
8
BLACK
6
CONTINUOUS
10
3.46604
20
-2.34199
11
3.46593
21
-2.34212
0
LINE
8
BLACK
6
CONTINUOUS
10
3.46593
20
-2.34212
11
3.46481
21
-2.34268
0
LINE
8
BLACK
6
CONTINUOUS
10
3.46481
20
-2.34268
11
3.46368
21
-2.34276
0
LINE
8
BLACK
6
CONTINUOUS
10
3.46368
20
-2.34276
11
3.46282
21
-2.34202
0
LINE
8
BLACK
6
CONTINUOUS
10
3.46282
20
-2.34202
11
3.46274
21
-2.3409
0
LINE
8
BLACK
6
CONTINUOUS
10
3.46274
20
-2.3409
11
3.46348
21
-2.34004
0
LINE
8
BLACK
6
CONTINUOUS
10
3.46348
20
-2.34004
11
3.4644
21
-2.33959
0
LINE
8
BLACK
6
CONTINUOUS
10
3.4644
20
-2.33959
11
3.46525
21
-2.33873
0
LINE
8
BLACK
6
CONTINUOUS
10
3.46525
20
-2.33873
11
3.46629
21
-2.33717
0
LINE
8
BLACK
6
CONTINUOUS
10
3.46629
20
-2.33717
11
3.46642
21
-2.33708
0
LINE
8
BLACK
6
CONTINUOUS
10
3.46642
20
-2.33708
11
3.46648
21
-2.33694
0
LINE
8
BLACK
6
CONTINUOUS
10
3.46648
20
-2.33694
11
3.46687
21
-2.33678
0
LINE
8
BLACK
6
CONTINUOUS
10
3.46687
20
-2.33678
11
3.46723
21
-2.33654
0
LINE
8
BLACK
6
CONTINUOUS
10
3.46723
20
-2.33654
11
3.46738
21
-2.33657
0
LINE
8
BLACK
6
CONTINUOUS
10
3.46738
20
-2.33657
11
3.46752
21
-2.33651
0
LINE
8
BLACK
6
CONTINUOUS
10
3.46752
20
-2.33651
11
3.46792
21
-2.33668
0
LINE
8
BLACK
6
CONTINUOUS
10
3.49439
20
-2.29446
11
3.49472
21
-2.29444
0
LINE
8
BLACK
6
CONTINUOUS
10
3.49472
20
-2.29444
11
3.49753
21
-2.29537
0
LINE
8
BLACK
6
CONTINUOUS
10
3.49753
20
-2.29537
11
3.49788
21
-2.29567
0
LINE
8
BLACK
6
CONTINUOUS
10
3.49788
20
-2.29567
11
3.4983
21
-2.29585
0
LINE
8
BLACK
6
CONTINUOUS
10
3.4983
20
-2.29585
11
3.50017
21
-2.29772
0
LINE
8
BLACK
6
CONTINUOUS
10
3.50017
20
-2.29772
11
3.5003
21
-2.29802
0
LINE
8
BLACK
6
CONTINUOUS
10
3.5003
20
-2.29802
11
3.50054
21
-2.29824
0
LINE
8
BLACK
6
CONTINUOUS
10
3.50054
20
-2.29824
11
3.50148
21
-2.30011
0
LINE
8
BLACK
6
CONTINUOUS
10
3.50148
20
-2.30011
11
3.5015
21
-2.30033
0
LINE
8
BLACK
6
CONTINUOUS
10
3.5015
20
-2.30033
11
3.50163
21
-2.30051
0
LINE
8
BLACK
6
CONTINUOUS
10
3.50163
20
-2.30051
11
3.50257
21
-2.30426
0
LINE
8
BLACK
6
CONTINUOUS
10
3.50257
20
-2.30426
11
3.50253
21
-2.30451
0
LINE
8
BLACK
6
CONTINUOUS
10
3.50253
20
-2.30451
11
3.50262
21
-2.30474
0
LINE
8
BLACK
6
CONTINUOUS
10
3.50262
20
-2.30474
11
3.50262
21
-2.30755
0
LINE
8
BLACK
6
CONTINUOUS
10
3.50262
20
-2.30755
11
3.50253
21
-2.30778
0
LINE
8
BLACK
6
CONTINUOUS
10
3.50253
20
-2.30778
11
3.50257
21
-2.30803
0
LINE
8
BLACK
6
CONTINUOUS
10
3.50257
20
-2.30803
11
3.50163
21
-2.31178
0
LINE
8
BLACK
6
CONTINUOUS
10
3.50163
20
-2.31178
11
3.5015
21
-2.31196
0
LINE
8
BLACK
6
CONTINUOUS
10
3.5015
20
-2.31196
11
3.50148
21
-2.31218
0
LINE
8
BLACK
6
CONTINUOUS
10
3.50148
20
-2.31218
11
3.50054
21
-2.31406
0
LINE
8
BLACK
6
CONTINUOUS
10
3.50054
20
-2.31406
11
3.5003
21
-2.31427
0
LINE
8
BLACK
6
CONTINUOUS
10
3.5003
20
-2.31427
11
3.50017
21
-2.31457
0
LINE
8
BLACK
6
CONTINUOUS
10
3.50017
20
-2.31457
11
3.4983
21
-2.31644
0
LINE
8
BLACK
6
CONTINUOUS
10
3.4983
20
-2.31644
11
3.49788
21
-2.31662
0
LINE
8
BLACK
6
CONTINUOUS
10
3.49788
20
-2.31662
11
3.49753
21
-2.31692
0
LINE
8
BLACK
6
CONTINUOUS
10
3.49753
20
-2.31692
11
3.49472
21
-2.31786
0
LINE
8
BLACK
6
CONTINUOUS
10
3.49472
20
-2.31786
11
3.49439
21
-2.31783
0
LINE
8
BLACK
6
CONTINUOUS
10
3.49439
20
-2.31783
11
3.49409
21
-2.31796
0
LINE
8
BLACK
6
CONTINUOUS
10
3.49409
20
-2.31796
11
3.48941
21
-2.31796
0
LINE
8
BLACK
6
CONTINUOUS
10
3.48941
20
-2.31796
11
3.48802
21
-2.31738
0
LINE
8
BLACK
6
CONTINUOUS
10
3.48802
20
-2.31738
11
3.48744
21
-2.31599
0
LINE
8
BLACK
6
CONTINUOUS
10
3.48744
20
-2.31599
11
3.48744
21
-2.31599
0
LINE
8
BLACK
6
CONTINUOUS
10
3.48744
20
-2.31599
11
3.48744
21
-2.2963
0
LINE
8
BLACK
6
CONTINUOUS
10
3.48744
20
-2.2963
11
3.48802
21
-2.29491
0
LINE
8
BLACK
6
CONTINUOUS
10
3.48802
20
-2.29491
11
3.48941
21
-2.29433
0
LINE
8
BLACK
6
CONTINUOUS
10
3.48941
20
-2.29433
11
3.49409
21
-2.29433
0
LINE
8
BLACK
6
CONTINUOUS
10
3.49409
20
-2.29433
11
3.49439
21
-2.29446
0
LINE
8
BLACK
6
CONTINUOUS
10
3.49138
20
-2.31402
11
3.49378
21
-2.31402
0
LINE
8
BLACK
6
CONTINUOUS
10
3.49378
20
-2.31402
11
3.49584
21
-2.31333
0
LINE
8
BLACK
6
CONTINUOUS
10
3.49584
20
-2.31333
11
3.49716
21
-2.31201
0
LINE
8
BLACK
6
CONTINUOUS
10
3.49716
20
-2.31201
11
3.49786
21
-2.31061
0
LINE
8
BLACK
6
CONTINUOUS
10
3.49786
20
-2.31061
11
3.49869
21
-2.30731
0
LINE
8
BLACK
6
CONTINUOUS
10
3.49869
20
-2.30731
11
3.49869
21
-2.30498
0
LINE
8
BLACK
6
CONTINUOUS
10
3.49869
20
-2.30498
11
3.49786
21
-2.30168
0
LINE
8
BLACK
6
CONTINUOUS
10
3.49786
20
-2.30168
11
3.49716
21
-2.30028
0
LINE
8
BLACK
6
CONTINUOUS
10
3.49716
20
-2.30028
11
3.49584
21
-2.29896
0
LINE
8
BLACK
6
CONTINUOUS
10
3.49584
20
-2.29896
11
3.49378
21
-2.29827
0
LINE
8
BLACK
6
CONTINUOUS
10
3.49378
20
-2.29827
11
3.49138
21
-2.29827
0
LINE
8
BLACK
6
CONTINUOUS
10
3.49138
20
-2.29827
11
3.49138
21
-2.31402
0
LINE
8
BLACK
6
CONTINUOUS
10
3.51431
20
-2.29455
11
3.51487
21
-2.29467
0
LINE
8
BLACK
6
CONTINUOUS
10
3.51487
20
-2.29467
11
3.51498
21
-2.29483
0
LINE
8
BLACK
6
CONTINUOUS
10
3.51498
20
-2.29483
11
3.51517
21
-2.29491
0
LINE
8
BLACK
6
CONTINUOUS
10
3.51517
20
-2.29491
11
3.51539
21
-2.29544
0
LINE
8
BLACK
6
CONTINUOUS
10
3.51539
20
-2.29544
11
3.51571
21
-2.29592
0
LINE
8
BLACK
6
CONTINUOUS
10
3.51571
20
-2.29592
11
3.51567
21
-2.29612
0
LINE
8
BLACK
6
CONTINUOUS
10
3.51567
20
-2.29612
11
3.51575
21
-2.2963
0
LINE
8
BLACK
6
CONTINUOUS
10
3.51575
20
-2.2963
11
3.51575
21
-2.31402
0
LINE
8
BLACK
6
CONTINUOUS
10
3.51575
20
-2.31402
11
3.5194
21
-2.31402
0
LINE
8
BLACK
6
CONTINUOUS
10
3.5194
20
-2.31402
11
3.5208
21
-2.3146
0
LINE
8
BLACK
6
CONTINUOUS
10
3.5208
20
-2.3146
11
3.52137
21
-2.31599
0
LINE
8
BLACK
6
CONTINUOUS
10
3.52137
20
-2.31599
11
3.5208
21
-2.31738
0
LINE
8
BLACK
6
CONTINUOUS
10
3.5208
20
-2.31738
11
3.5194
21
-2.31796
0
LINE
8
BLACK
6
CONTINUOUS
10
3.5194
20
-2.31796
11
3.51378
21
-2.31796
0
LINE
8
BLACK
6
CONTINUOUS
10
3.51378
20
-2.31796
11
3.50816
21
-2.31796
0
LINE
8
BLACK
6
CONTINUOUS
10
3.50816
20
-2.31796
11
3.50676
21
-2.31738
0
LINE
8
BLACK
6
CONTINUOUS
10
3.50676
20
-2.31738
11
3.50619
21
-2.31599
0
LINE
8
BLACK
6
CONTINUOUS
10
3.50619
20
-2.31599
11
3.50676
21
-2.3146
0
LINE
8
BLACK
6
CONTINUOUS
10
3.50676
20
-2.3146
11
3.50816
21
-2.31402
0
LINE
8
BLACK
6
CONTINUOUS
10
3.50816
20
-2.31402
11
3.51181
21
-2.31402
0
LINE
8
BLACK
6
CONTINUOUS
10
3.51181
20
-2.31402
11
3.51181
21
-2.30199
0
LINE
8
BLACK
6
CONTINUOUS
10
3.51181
20
-2.30199
11
3.51142
21
-2.30238
0
LINE
8
BLACK
6
CONTINUOUS
10
3.51142
20
-2.30238
11
3.51112
21
-2.30251
0
LINE
8
BLACK
6
CONTINUOUS
10
3.51112
20
-2.30251
11
3.51091
21
-2.30275
0
LINE
8
BLACK
6
CONTINUOUS
10
3.51091
20
-2.30275
11
3.50904
21
-2.30369
0
LINE
8
BLACK
6
CONTINUOUS
10
3.50904
20
-2.30369
11
3.50753
21
-2.3038
0
LINE
8
BLACK
6
CONTINUOUS
10
3.50753
20
-2.3038
11
3.50639
21
-2.30281
0
LINE
8
BLACK
6
CONTINUOUS
10
3.50639
20
-2.30281
11
3.50629
21
-2.30131
0
LINE
8
BLACK
6
CONTINUOUS
10
3.50629
20
-2.30131
11
3.50727
21
-2.30017
0
LINE
8
BLACK
6
CONTINUOUS
10
3.50727
20
-2.30017
11
3.50886
21
-2.29937
0
LINE
8
BLACK
6
CONTINUOUS
10
3.50886
20
-2.29937
11
3.51037
21
-2.29786
0
LINE
8
BLACK
6
CONTINUOUS
10
3.51037
20
-2.29786
11
3.51214
21
-2.29521
0
LINE
8
BLACK
6
CONTINUOUS
10
3.51214
20
-2.29521
11
3.51231
21
-2.2951
0
LINE
8
BLACK
6
CONTINUOUS
10
3.51231
20
-2.2951
11
3.51239
21
-2.29491
0
LINE
8
BLACK
6
CONTINUOUS
10
3.51239
20
-2.29491
11
3.51292
21
-2.29469
0
LINE
8
BLACK
6
CONTINUOUS
10
3.51292
20
-2.29469
11
3.51339
21
-2.29437
0
LINE
8
BLACK
6
CONTINUOUS
10
3.51339
20
-2.29437
11
3.51359
21
-2.29441
0
LINE
8
BLACK
6
CONTINUOUS
10
3.51359
20
-2.29441
11
3.51378
21
-2.29433
0
LINE
8
BLACK
6
CONTINUOUS
10
3.51378
20
-2.29433
11
3.51431
21
-2.29455
0
LINE
8
BLACK
6
CONTINUOUS
10
2.82922
20
-2.22639
11
2.82963
21
-2.22659
0
LINE
8
BLACK
6
CONTINUOUS
10
2.82963
20
-2.22659
11
2.83009
21
-2.22665
0
LINE
8
BLACK
6
CONTINUOUS
10
2.83009
20
-2.22665
11
2.83333
21
-2.22853
0
LINE
8
BLACK
6
CONTINUOUS
10
2.83333
20
-2.22853
11
2.83425
21
-2.22972
0
LINE
8
BLACK
6
CONTINUOUS
10
2.83425
20
-2.22972
11
2.83406
21
-2.23121
0
LINE
8
BLACK
6
CONTINUOUS
10
2.83406
20
-2.23121
11
2.83286
21
-2.23213
0
LINE
8
BLACK
6
CONTINUOUS
10
2.83286
20
-2.23213
11
2.83137
21
-2.23194
0
LINE
8
BLACK
6
CONTINUOUS
10
2.83137
20
-2.23194
11
2.82852
21
-2.23029
0
LINE
8
BLACK
6
CONTINUOUS
10
2.82852
20
-2.23029
11
2.82721
21
-2.23021
0
LINE
8
BLACK
6
CONTINUOUS
10
2.82721
20
-2.23021
11
2.82643
21
-2.23042
0
LINE
8
BLACK
6
CONTINUOUS
10
2.82643
20
-2.23042
11
2.82388
21
-2.23168
0
LINE
8
BLACK
6
CONTINUOUS
10
2.82388
20
-2.23168
11
2.82364
21
-2.23194
0
LINE
8
BLACK
6
CONTINUOUS
10
2.82364
20
-2.23194
11
2.82385
21
-2.23195
0
LINE
8
BLACK
6
CONTINUOUS
10
2.82385
20
-2.23195
11
2.82426
21
-2.23215
0
LINE
8
BLACK
6
CONTINUOUS
10
2.82426
20
-2.23215
11
2.82471
21
-2.23221
0
LINE
8
BLACK
6
CONTINUOUS
10
2.82471
20
-2.23221
11
2.82796
21
-2.23408
0
LINE
8
BLACK
6
CONTINUOUS
10
2.82796
20
-2.23408
11
2.82824
21
-2.23445
0
LINE
8
BLACK
6
CONTINUOUS
10
2.82824
20
-2.23445
11
2.82862
21
-2.2347
0
LINE
8
BLACK
6
CONTINUOUS
10
2.82862
20
-2.2347
11
2.82977
21
-2.23645
0
LINE
8
BLACK
6
CONTINUOUS
10
2.82977
20
-2.23645
11
2.82984
21
-2.23677
0
LINE
8
BLACK
6
CONTINUOUS
10
2.82984
20
-2.23677
11
2.83003
21
-2.23703
0
LINE
8
BLACK
6
CONTINUOUS
10
2.83003
20
-2.23703
11
2.83038
21
-2.23831
0
LINE
8
BLACK
6
CONTINUOUS
10
2.83038
20
-2.23831
11
2.83033
21
-2.23863
0
LINE
8
BLACK
6
CONTINUOUS
10
2.83033
20
-2.23863
11
2.83044
21
-2.23894
0
LINE
8
BLACK
6
CONTINUOUS
10
2.83044
20
-2.23894
11
2.83031
21
-2.24103
0
LINE
8
BLACK
6
CONTINUOUS
10
2.83031
20
-2.24103
11
2.83011
21
-2.24144
0
LINE
8
BLACK
6
CONTINUOUS
10
2.83011
20
-2.24144
11
2.83005
21
-2.24189
0
LINE
8
BLACK
6
CONTINUOUS
10
2.83005
20
-2.24189
11
2.82771
21
-2.24595
0
LINE
8
BLACK
6
CONTINUOUS
10
2.82771
20
-2.24595
11
2.82735
21
-2.24623
0
LINE
8
BLACK
6
CONTINUOUS
10
2.82735
20
-2.24623
11
2.82709
21
-2.24661
0
LINE
8
BLACK
6
CONTINUOUS
10
2.82709
20
-2.24661
11
2.82534
21
-2.24777
0
LINE
8
BLACK
6
CONTINUOUS
10
2.82534
20
-2.24777
11
2.82502
21
-2.24783
0
LINE
8
BLACK
6
CONTINUOUS
10
2.82502
20
-2.24783
11
2.82477
21
-2.24802
0
LINE
8
BLACK
6
CONTINUOUS
10
2.82477
20
-2.24802
11
2.82349
21
-2.24837
0
LINE
8
BLACK
6
CONTINUOUS
10
2.82349
20
-2.24837
11
2.82316
21
-2.24833
0
LINE
8
BLACK
6
CONTINUOUS
10
2.82316
20
-2.24833
11
2.82286
21
-2.24843
0
LINE
8
BLACK
6
CONTINUOUS
10
2.82286
20
-2.24843
11
2.82077
21
-2.24831
0
LINE
8
BLACK
6
CONTINUOUS
10
2.82077
20
-2.24831
11
2.82035
21
-2.24811
0
LINE
8
BLACK
6
CONTINUOUS
10
2.82035
20
-2.24811
11
2.8199
21
-2.24805
0
LINE
8
BLACK
6
CONTINUOUS
10
2.8199
20
-2.24805
11
2.81665
21
-2.24617
0
LINE
8
BLACK
6
CONTINUOUS
10
2.81665
20
-2.24617
11
2.81637
21
-2.24581
0
LINE
8
BLACK
6
CONTINUOUS
10
2.81637
20
-2.24581
11
2.81599
21
-2.24555
0
LINE
8
BLACK
6
CONTINUOUS
10
2.81599
20
-2.24555
11
2.81484
21
-2.2438
0
LINE
8
BLACK
6
CONTINUOUS
10
2.81484
20
-2.2438
11
2.81478
21
-2.24348
0
LINE
8
BLACK
6
CONTINUOUS
10
2.81478
20
-2.24348
11
2.81458
21
-2.24323
0
LINE
8
BLACK
6
CONTINUOUS
10
2.81458
20
-2.24323
11
2.81424
21
-2.24195
0
LINE
8
BLACK
6
CONTINUOUS
10
2.81424
20
-2.24195
11
2.81428
21
-2.24162
0
LINE
8
BLACK
6
CONTINUOUS
10
2.81428
20
-2.24162
11
2.81417
21
-2.24132
0
LINE
8
BLACK
6
CONTINUOUS
10
2.81417
20
-2.24132
11
2.8143
21
-2.23923
0
LINE
8
BLACK
6
CONTINUOUS
10
2.8143
20
-2.23923
11
2.8145
21
-2.23881
0
LINE
8
BLACK
6
CONTINUOUS
10
2.8145
20
-2.23881
11
2.81456
21
-2.23836
0
LINE
8
BLACK
6
CONTINUOUS
10
2.81456
20
-2.23836
11
2.81831
21
-2.23187
0
LINE
8
BLACK
6
CONTINUOUS
10
2.81831
20
-2.23187
11
2.81851
21
-2.23171
0
LINE
8
BLACK
6
CONTINUOUS
10
2.81851
20
-2.23171
11
2.8186
21
-2.23148
0
LINE
8
BLACK
6
CONTINUOUS
10
2.8186
20
-2.23148
11
2.82129
21
-2.2287
0
LINE
8
BLACK
6
CONTINUOUS
10
2.82129
20
-2.2287
11
2.8216
21
-2.22857
0
LINE
8
BLACK
6
CONTINUOUS
10
2.8216
20
-2.22857
11
2.82183
21
-2.22831
0
LINE
8
BLACK
6
CONTINUOUS
10
2.82183
20
-2.22831
11
2.82486
21
-2.22681
0
LINE
8
BLACK
6
CONTINUOUS
10
2.82486
20
-2.22681
11
2.82506
21
-2.2268
0
LINE
8
BLACK
6
CONTINUOUS
10
2.82506
20
-2.2268
11
2.82522
21
-2.22667
0
LINE
8
BLACK
6
CONTINUOUS
10
2.82522
20
-2.22667
11
2.8265
21
-2.22633
0
LINE
8
BLACK
6
CONTINUOUS
10
2.8265
20
-2.22633
11
2.82682
21
-2.22637
0
LINE
8
BLACK
6
CONTINUOUS
10
2.82682
20
-2.22637
11
2.82713
21
-2.22627
0
LINE
8
BLACK
6
CONTINUOUS
10
2.82713
20
-2.22627
11
2.82922
21
-2.22639
0
LINE
8
BLACK
6
CONTINUOUS
10
2.82118
20
-2.23595
11
2.82008
21
-2.23667
0
LINE
8
BLACK
6
CONTINUOUS
10
2.82008
20
-2.23667
11
2.8182
21
-2.23993
0
LINE
8
BLACK
6
CONTINUOUS
10
2.8182
20
-2.23993
11
2.81812
21
-2.24124
0
LINE
8
BLACK
6
CONTINUOUS
10
2.81812
20
-2.24124
11
2.8183
21
-2.2419
0
LINE
8
BLACK
6
CONTINUOUS
10
2.8183
20
-2.2419
11
2.81902
21
-2.24299
0
LINE
8
BLACK
6
CONTINUOUS
10
2.81902
20
-2.24299
11
2.82147
21
-2.2444
0
LINE
8
BLACK
6
CONTINUOUS
10
2.82147
20
-2.2444
11
2.82278
21
-2.24448
0
LINE
8
BLACK
6
CONTINUOUS
10
2.82278
20
-2.24448
11
2.82344
21
-2.2443
0
LINE
8
BLACK
6
CONTINUOUS
10
2.82344
20
-2.2443
11
2.82453
21
-2.24358
0
LINE
8
BLACK
6
CONTINUOUS
10
2.82453
20
-2.24358
11
2.82641
21
-2.24033
0
LINE
8
BLACK
6
CONTINUOUS
10
2.82641
20
-2.24033
11
2.82649
21
-2.23902
0
LINE
8
BLACK
6
CONTINUOUS
10
2.82649
20
-2.23902
11
2.82631
21
-2.23835
0
LINE
8
BLACK
6
CONTINUOUS
10
2.82631
20
-2.23835
11
2.82559
21
-2.23726
0
LINE
8
BLACK
6
CONTINUOUS
10
2.82559
20
-2.23726
11
2.82315
21
-2.23585
0
LINE
8
BLACK
6
CONTINUOUS
10
2.82315
20
-2.23585
11
2.82184
21
-2.23577
0
LINE
8
BLACK
6
CONTINUOUS
10
2.82184
20
-2.23577
11
2.82118
21
-2.23595
0
LINE
8
BLACK
6
CONTINUOUS
10
2.80898
20
-2.21447
11
2.81304
21
-2.21681
0
LINE
8
BLACK
6
CONTINUOUS
10
2.81304
20
-2.21681
11
2.81324
21
-2.21707
0
LINE
8
BLACK
6
CONTINUOUS
10
2.81324
20
-2.21707
11
2.81353
21
-2.21721
0
LINE
8
BLACK
6
CONTINUOUS
10
2.81353
20
-2.21721
11
2.8155
21
-2.21943
0
LINE
8
BLACK
6
CONTINUOUS
10
2.8155
20
-2.21943
11
2.81564
21
-2.21986
0
LINE
8
BLACK
6
CONTINUOUS
10
2.81564
20
-2.21986
11
2.81592
21
-2.22022
0
LINE
8
BLACK
6
CONTINUOUS
10
2.81592
20
-2.22022
11
2.81661
21
-2.22278
0
LINE
8
BLACK
6
CONTINUOUS
10
2.81661
20
-2.22278
11
2.81657
21
-2.2231
0
LINE
8
BLACK
6
CONTINUOUS
10
2.81657
20
-2.2231
11
2.81667
21
-2.22341
0
LINE
8
BLACK
6
CONTINUOUS
10
2.81667
20
-2.22341
11
2.81655
21
-2.2255
0
LINE
8
BLACK
6
CONTINUOUS
10
2.81655
20
-2.2255
11
2.81645
21
-2.2257
0
LINE
8
BLACK
6
CONTINUOUS
10
2.81645
20
-2.2257
11
2.81648
21
-2.22593
0
LINE
8
BLACK
6
CONTINUOUS
10
2.81648
20
-2.22593
11
2.81541
21
-2.22964
0
LINE
8
BLACK
6
CONTINUOUS
10
2.81541
20
-2.22964
11
2.81526
21
-2.22984
0
LINE
8
BLACK
6
CONTINUOUS
10
2.81526
20
-2.22984
11
2.81522
21
-2.23008
0
LINE
8
BLACK
6
CONTINUOUS
10
2.81522
20
-2.23008
11
2.81382
21
-2.23252
0
LINE
8
BLACK
6
CONTINUOUS
10
2.81382
20
-2.23252
11
2.81362
21
-2.23267
0
LINE
8
BLACK
6
CONTINUOUS
10
2.81362
20
-2.23267
11
2.81353
21
-2.2329
0
LINE
8
BLACK
6
CONTINUOUS
10
2.81353
20
-2.2329
11
2.81084
21
-2.23568
0
LINE
8
BLACK
6
CONTINUOUS
10
2.81084
20
-2.23568
11
2.81064
21
-2.23577
0
LINE
8
BLACK
6
CONTINUOUS
10
2.81064
20
-2.23577
11
2.81051
21
-2.23596
0
LINE
8
BLACK
6
CONTINUOUS
10
2.81051
20
-2.23596
11
2.80876
21
-2.23711
0
LINE
8
BLACK
6
CONTINUOUS
10
2.80876
20
-2.23711
11
2.80844
21
-2.23717
0
LINE
8
BLACK
6
CONTINUOUS
10
2.80844
20
-2.23717
11
2.80819
21
-2.23737
0
LINE
8
BLACK
6
CONTINUOUS
10
2.80819
20
-2.23737
11
2.80563
21
-2.23806
0
LINE
8
BLACK
6
CONTINUOUS
10
2.80563
20
-2.23806
11
2.80517
21
-2.238
0
LINE
8
BLACK
6
CONTINUOUS
10
2.80517
20
-2.238
11
2.80472
21
-2.23808
0
LINE
8
BLACK
6
CONTINUOUS
10
2.80472
20
-2.23808
11
2.80182
21
-2.23749
0
LINE
8
BLACK
6
CONTINUOUS
10
2.80182
20
-2.23749
11
2.80155
21
-2.23731
0
LINE
8
BLACK
6
CONTINUOUS
10
2.80155
20
-2.23731
11
2.80123
21
-2.23727
0
LINE
8
BLACK
6
CONTINUOUS
10
2.80123
20
-2.23727
11
2.79717
21
-2.23492
0
LINE
8
BLACK
6
CONTINUOUS
10
2.79717
20
-2.23492
11
2.79625
21
-2.23373
0
LINE
8
BLACK
6
CONTINUOUS
10
2.79625
20
-2.23373
11
2.79645
21
-2.23223
0
LINE
8
BLACK
6
CONTINUOUS
10
2.79645
20
-2.23223
11
2.80629
21
-2.21519
0
LINE
8
BLACK
6
CONTINUOUS
10
2.80629
20
-2.21519
11
2.80749
21
-2.21427
0
LINE
8
BLACK
6
CONTINUOUS
10
2.80749
20
-2.21427
11
2.80898
21
-2.21447
0
LINE
8
BLACK
6
CONTINUOUS
10
2.80084
20
-2.2325
11
2.80292
21
-2.2337
0
LINE
8
BLACK
6
CONTINUOUS
10
2.80292
20
-2.2337
11
2.80506
21
-2.23413
0
LINE
8
BLACK
6
CONTINUOUS
10
2.80506
20
-2.23413
11
2.80686
21
-2.23365
0
LINE
8
BLACK
6
CONTINUOUS
10
2.80686
20
-2.23365
11
2.80816
21
-2.23279
0
LINE
8
BLACK
6
CONTINUOUS
10
2.80816
20
-2.23279
11
2.81053
21
-2.23034
0
LINE
8
BLACK
6
CONTINUOUS
10
2.81053
20
-2.23034
11
2.81169
21
-2.22833
0
LINE
8
BLACK
6
CONTINUOUS
10
2.81169
20
-2.22833
11
2.81263
21
-2.22505
0
LINE
8
BLACK
6
CONTINUOUS
10
2.81263
20
-2.22505
11
2.81272
21
-2.22349
0
LINE
8
BLACK
6
CONTINUOUS
10
2.81272
20
-2.22349
11
2.81224
21
-2.22169
0
LINE
8
BLACK
6
CONTINUOUS
10
2.81224
20
-2.22169
11
2.81079
21
-2.22006
0
LINE
8
BLACK
6
CONTINUOUS
10
2.81079
20
-2.22006
11
2.80872
21
-2.21886
0
LINE
8
BLACK
6
CONTINUOUS
10
2.80872
20
-2.21886
11
2.80084
21
-2.2325
0
LINE
8
BLACK
6
CONTINUOUS
10
2.86872
20
-2.21159
11
2.86915
21
-2.21156
0
LINE
8
BLACK
6
CONTINUOUS
10
2.86915
20
-2.21156
11
2.86926
21
-2.21166
0
LINE
8
BLACK
6
CONTINUOUS
10
2.86926
20
-2.21166
11
2.86942
21
-2.21168
0
LINE
8
BLACK
6
CONTINUOUS
10
2.86942
20
-2.21168
11
2.86968
21
-2.21202
0
LINE
8
BLACK
6
CONTINUOUS
10
2.86968
20
-2.21202
11
2.87
21
-2.21231
0
LINE
8
BLACK
6
CONTINUOUS
10
2.87
20
-2.21231
11
2.87001
21
-2.21246
0
LINE
8
BLACK
6
CONTINUOUS
10
2.87001
20
-2.21246
11
2.8701
21
-2.21258
0
LINE
8
BLACK
6
CONTINUOUS
10
2.8701
20
-2.21258
11
2.87005
21
-2.21301
0
LINE
8
BLACK
6
CONTINUOUS
10
2.87005
20
-2.21301
11
2.87008
21
-2.21343
0
LINE
8
BLACK
6
CONTINUOUS
10
2.87008
20
-2.21343
11
2.86998
21
-2.21355
0
LINE
8
BLACK
6
CONTINUOUS
10
2.86998
20
-2.21355
11
2.86996
21
-2.2137
0
LINE
8
BLACK
6
CONTINUOUS
10
2.86996
20
-2.2137
11
2.86479
21
-2.22265
0
LINE
8
BLACK
6
CONTINUOUS
10
2.86479
20
-2.22265
11
2.86643
21
-2.2236
0
LINE
8
BLACK
6
CONTINUOUS
10
2.86643
20
-2.2236
11
2.86712
21
-2.2245
0
LINE
8
BLACK
6
CONTINUOUS
10
2.86712
20
-2.2245
11
2.86697
21
-2.22562
0
LINE
8
BLACK
6
CONTINUOUS
10
2.86697
20
-2.22562
11
2.86608
21
-2.2263
0
LINE
8
BLACK
6
CONTINUOUS
10
2.86608
20
-2.2263
11
2.86496
21
-2.22616
0
LINE
8
BLACK
6
CONTINUOUS
10
2.86496
20
-2.22616
11
2.85911
21
-2.22278
0
LINE
8
BLACK
6
CONTINUOUS
10
2.85911
20
-2.22278
11
2.85842
21
-2.22188
0
LINE
8
BLACK
6
CONTINUOUS
10
2.85842
20
-2.22188
11
2.85857
21
-2.22076
0
LINE
8
BLACK
6
CONTINUOUS
10
2.85857
20
-2.22076
11
2.85947
21
-2.22008
0
LINE
8
BLACK
6
CONTINUOUS
10
2.85947
20
-2.22008
11
2.86059
21
-2.22022
0
LINE
8
BLACK
6
CONTINUOUS
10
2.86059
20
-2.22022
11
2.86223
21
-2.22117
0
LINE
8
BLACK
6
CONTINUOUS
10
2.86223
20
-2.22117
11
2.8654
21
-2.21569
0
LINE
8
BLACK
6
CONTINUOUS
10
2.8654
20
-2.21569
11
2.86523
21
-2.21575
0
LINE
8
BLACK
6
CONTINUOUS
10
2.86523
20
-2.21575
11
2.86398
21
-2.21567
0
LINE
8
BLACK
6
CONTINUOUS
10
2.86398
20
-2.21567
11
2.86296
21
-2.21518
0
LINE
8
BLACK
6
CONTINUOUS
10
2.86296
20
-2.21518
11
2.86259
21
-2.21411
0
LINE
8
BLACK
6
CONTINUOUS
10
2.86259
20
-2.21411
11
2.86309
21
-2.21309
0
LINE
8
BLACK
6
CONTINUOUS
10
2.86309
20
-2.21309
11
2.86416
21
-2.21272
0
LINE
8
BLACK
6
CONTINUOUS
10
2.86416
20
-2.21272
11
2.86517
21
-2.21278
0
LINE
8
BLACK
6
CONTINUOUS
10
2.86517
20
-2.21278
11
2.86634
21
-2.21247
0
LINE
8
BLACK
6
CONTINUOUS
10
2.86634
20
-2.21247
11
2.86802
21
-2.21164
0
LINE
8
BLACK
6
CONTINUOUS
10
2.86802
20
-2.21164
11
2.86817
21
-2.21163
0
LINE
8
BLACK
6
CONTINUOUS
10
2.86817
20
-2.21163
11
2.8683
21
-2.21154
0
LINE
8
BLACK
6
CONTINUOUS
10
2.8683
20
-2.21154
11
2.86872
21
-2.21159
0
LINE
8
BLACK
6
CONTINUOUS
10
2.81081
20
-2.17342
11
2.81173
21
-2.17462
0
LINE
8
BLACK
6
CONTINUOUS
10
2.81173
20
-2.17462
11
2.81153
21
-2.17611
0
LINE
8
BLACK
6
CONTINUOUS
10
2.81153
20
-2.17611
11
2.79972
21
-2.19657
0
LINE
8
BLACK
6
CONTINUOUS
10
2.79972
20
-2.19657
11
2.82018
21
-2.20838
0
LINE
8
BLACK
6
CONTINUOUS
10
2.82018
20
-2.20838
11
2.8211
21
-2.20957
0
LINE
8
BLACK
6
CONTINUOUS
10
2.8211
20
-2.20957
11
2.8209
21
-2.21107
0
LINE
8
BLACK
6
CONTINUOUS
10
2.8209
20
-2.21107
11
2.8197
21
-2.21198
0
LINE
8
BLACK
6
CONTINUOUS
10
2.8197
20
-2.21198
11
2.81821
21
-2.21179
0
LINE
8
BLACK
6
CONTINUOUS
10
2.81821
20
-2.21179
11
2.79605
21
-2.19899
0
LINE
8
BLACK
6
CONTINUOUS
10
2.79605
20
-2.19899
11
2.79513
21
-2.1978
0
LINE
8
BLACK
6
CONTINUOUS
10
2.79513
20
-2.1978
11
2.79533
21
-2.1963
0
LINE
8
BLACK
6
CONTINUOUS
10
2.79533
20
-2.1963
11
2.79533
21
-2.1963
0
LINE
8
BLACK
6
CONTINUOUS
10
2.79533
20
-2.1963
11
2.80812
21
-2.17414
0
LINE
8
BLACK
6
CONTINUOUS
10
2.80812
20
-2.17414
11
2.80932
21
-2.17322
0
LINE
8
BLACK
6
CONTINUOUS
10
2.80932
20
-2.17322
11
2.81081
21
-2.17342
0
LINE
8
BLACK
6
CONTINUOUS
10
3.41305
20
-2.18087
11
3.4132
21
-2.18085
0
LINE
8
BLACK
6
CONTINUOUS
10
3.4132
20
-2.18085
11
3.41354
21
-2.18111
0
LINE
8
BLACK
6
CONTINUOUS
10
3.41354
20
-2.18111
11
3.41393
21
-2.1813
0
LINE
8
BLACK
6
CONTINUOUS
10
3.41393
20
-2.1813
11
3.41398
21
-2.18144
0
LINE
8
BLACK
6
CONTINUOUS
10
3.41398
20
-2.18144
11
3.4141
21
-2.18154
0
LINE
8
BLACK
6
CONTINUOUS
10
3.4141
20
-2.18154
11
3.41926
21
-2.19049
0
LINE
8
BLACK
6
CONTINUOUS
10
3.41926
20
-2.19049
11
3.42091
21
-2.18954
0
LINE
8
BLACK
6
CONTINUOUS
10
3.42091
20
-2.18954
11
3.42203
21
-2.18939
0
LINE
8
BLACK
6
CONTINUOUS
10
3.42203
20
-2.18939
11
3.42293
21
-2.19008
0
LINE
8
BLACK
6
CONTINUOUS
10
3.42293
20
-2.19008
11
3.42307
21
-2.1912
0
LINE
8
BLACK
6
CONTINUOUS
10
3.42307
20
-2.1912
11
3.42238
21
-2.1921
0
LINE
8
BLACK
6
CONTINUOUS
10
3.42238
20
-2.1921
11
3.41654
21
-2.19547
0
LINE
8
BLACK
6
CONTINUOUS
10
3.41654
20
-2.19547
11
3.41542
21
-2.19562
0
LINE
8
BLACK
6
CONTINUOUS
10
3.41542
20
-2.19562
11
3.41452
21
-2.19493
0
LINE
8
BLACK
6
CONTINUOUS
10
3.41452
20
-2.19493
11
3.41438
21
-2.19381
0
LINE
8
BLACK
6
CONTINUOUS
10
3.41438
20
-2.19381
11
3.41506
21
-2.19291
0
LINE
8
BLACK
6
CONTINUOUS
10
3.41506
20
-2.19291
11
3.41671
21
-2.19196
0
LINE
8
BLACK
6
CONTINUOUS
10
3.41671
20
-2.19196
11
3.41354
21
-2.18648
0
LINE
8
BLACK
6
CONTINUOUS
10
3.41354
20
-2.18648
11
3.41351
21
-2.18665
0
LINE
8
BLACK
6
CONTINUOUS
10
3.41351
20
-2.18665
11
3.41282
21
-2.1877
0
LINE
8
BLACK
6
CONTINUOUS
10
3.41282
20
-2.1877
11
3.41188
21
-2.18833
0
LINE
8
BLACK
6
CONTINUOUS
10
3.41188
20
-2.18833
11
3.41077
21
-2.18812
0
LINE
8
BLACK
6
CONTINUOUS
10
3.41077
20
-2.18812
11
3.41014
21
-2.18718
0
LINE
8
BLACK
6
CONTINUOUS
10
3.41014
20
-2.18718
11
3.41035
21
-2.18607
0
LINE
8
BLACK
6
CONTINUOUS
10
3.41035
20
-2.18607
11
3.41091
21
-2.18522
0
LINE
8
BLACK
6
CONTINUOUS
10
3.41091
20
-2.18522
11
3.41122
21
-2.18406
0
LINE
8
BLACK
6
CONTINUOUS
10
3.41122
20
-2.18406
11
3.41135
21
-2.18218
0
LINE
8
BLACK
6
CONTINUOUS
10
3.41135
20
-2.18218
11
3.41141
21
-2.18204
0
LINE
8
BLACK
6
CONTINUOUS
10
3.41141
20
-2.18204
11
3.41139
21
-2.18189
0
LINE
8
BLACK
6
CONTINUOUS
10
3.41139
20
-2.18189
11
3.41165
21
-2.18155
0
LINE
8
BLACK
6
CONTINUOUS
10
3.41165
20
-2.18155
11
3.41184
21
-2.18117
0
LINE
8
BLACK
6
CONTINUOUS
10
3.41184
20
-2.18117
11
3.41199
21
-2.18112
0
LINE
8
BLACK
6
CONTINUOUS
10
3.41199
20
-2.18112
11
3.41208
21
-2.181
0
LINE
8
BLACK
6
CONTINUOUS
10
3.41208
20
-2.181
11
3.41251
21
-2.18094
0
LINE
8
BLACK
6
CONTINUOUS
10
3.41251
20
-2.18094
11
3.41291
21
-2.1808
0
LINE
8
BLACK
6
CONTINUOUS
10
3.41291
20
-2.1808
11
3.41305
21
-2.18087
0
LINE
8
BLACK
6
CONTINUOUS
10
3.47042
20
-2.13834
11
3.48321
21
-2.1605
0
LINE
8
BLACK
6
CONTINUOUS
10
3.48321
20
-2.1605
11
3.48341
21
-2.162
0
LINE
8
BLACK
6
CONTINUOUS
10
3.48341
20
-2.162
11
3.48249
21
-2.16319
0
LINE
8
BLACK
6
CONTINUOUS
10
3.48249
20
-2.16319
11
3.481
21
-2.16339
0
LINE
8
BLACK
6
CONTINUOUS
10
3.481
20
-2.16339
11
3.47981
21
-2.16247
0
LINE
8
BLACK
6
CONTINUOUS
10
3.47981
20
-2.16247
11
3.46799
21
-2.14201
0
LINE
8
BLACK
6
CONTINUOUS
10
3.46799
20
-2.14201
11
3.44754
21
-2.15383
0
LINE
8
BLACK
6
CONTINUOUS
10
3.44754
20
-2.15383
11
3.44604
21
-2.15402
0
LINE
8
BLACK
6
CONTINUOUS
10
3.44604
20
-2.15402
11
3.44485
21
-2.15311
0
LINE
8
BLACK
6
CONTINUOUS
10
3.44485
20
-2.15311
11
3.44465
21
-2.15161
0
LINE
8
BLACK
6
CONTINUOUS
10
3.44465
20
-2.15161
11
3.44557
21
-2.15042
0
LINE
8
BLACK
6
CONTINUOUS
10
3.44557
20
-2.15042
11
3.46773
21
-2.13762
0
LINE
8
BLACK
6
CONTINUOUS
10
3.46773
20
-2.13762
11
3.46922
21
-2.13742
0
LINE
8
BLACK
6
CONTINUOUS
10
3.46922
20
-2.13742
11
3.46922
21
-2.13742
0
LINE
8
BLACK
6
CONTINUOUS
10
3.46922
20
-2.13742
11
3.47042
21
-2.13834
0
LINE
8
BLACK
6
CONTINUOUS
10
3.41795
20
-2.13045
11
3.4184
21
-2.13039
0
LINE
8
BLACK
6
CONTINUOUS
10
3.4184
20
-2.13039
11
3.42097
21
-2.13108
0
LINE
8
BLACK
6
CONTINUOUS
10
3.42097
20
-2.13108
11
3.42122
21
-2.13128
0
LINE
8
BLACK
6
CONTINUOUS
10
3.42122
20
-2.13128
11
3.42154
21
-2.13134
0
LINE
8
BLACK
6
CONTINUOUS
10
3.42154
20
-2.13134
11
3.42329
21
-2.13249
0
LINE
8
BLACK
6
CONTINUOUS
10
3.42329
20
-2.13249
11
3.42342
21
-2.13268
0
LINE
8
BLACK
6
CONTINUOUS
10
3.42342
20
-2.13268
11
3.42362
21
-2.13277
0
LINE
8
BLACK
6
CONTINUOUS
10
3.42362
20
-2.13277
11
3.42631
21
-2.13555
0
LINE
8
BLACK
6
CONTINUOUS
10
3.42631
20
-2.13555
11
3.4264
21
-2.13578
0
LINE
8
BLACK
6
CONTINUOUS
10
3.4264
20
-2.13578
11
3.4266
21
-2.13593
0
LINE
8
BLACK
6
CONTINUOUS
10
3.4266
20
-2.13593
11
3.428
21
-2.13836
0
LINE
8
BLACK
6
CONTINUOUS
10
3.428
20
-2.13836
11
3.42804
21
-2.13861
0
LINE
8
BLACK
6
CONTINUOUS
10
3.42804
20
-2.13861
11
3.42819
21
-2.13881
0
LINE
8
BLACK
6
CONTINUOUS
10
3.42819
20
-2.13881
11
3.42925
21
-2.14252
0
LINE
8
BLACK
6
CONTINUOUS
10
3.42925
20
-2.14252
11
3.42923
21
-2.14275
0
LINE
8
BLACK
6
CONTINUOUS
10
3.42923
20
-2.14275
11
3.42933
21
-2.14295
0
LINE
8
BLACK
6
CONTINUOUS
10
3.42933
20
-2.14295
11
3.42945
21
-2.14504
0
LINE
8
BLACK
6
CONTINUOUS
10
3.42945
20
-2.14504
11
3.42935
21
-2.14535
0
LINE
8
BLACK
6
CONTINUOUS
10
3.42935
20
-2.14535
11
3.42939
21
-2.14567
0
LINE
8
BLACK
6
CONTINUOUS
10
3.42939
20
-2.14567
11
3.4287
21
-2.14823
0
LINE
8
BLACK
6
CONTINUOUS
10
3.4287
20
-2.14823
11
3.42842
21
-2.14859
0
LINE
8
BLACK
6
CONTINUOUS
10
3.42842
20
-2.14859
11
3.42827
21
-2.14902
0
LINE
8
BLACK
6
CONTINUOUS
10
3.42827
20
-2.14902
11
3.42631
21
-2.15124
0
LINE
8
BLACK
6
CONTINUOUS
10
3.42631
20
-2.15124
11
3.42602
21
-2.15138
0
LINE
8
BLACK
6
CONTINUOUS
10
3.42602
20
-2.15138
11
3.42582
21
-2.15164
0
LINE
8
BLACK
6
CONTINUOUS
10
3.42582
20
-2.15164
11
3.42176
21
-2.15398
0
LINE
8
BLACK
6
CONTINUOUS
10
3.42176
20
-2.15398
11
3.42027
21
-2.15418
0
LINE
8
BLACK
6
CONTINUOUS
10
3.42027
20
-2.15418
11
3.41907
21
-2.15326
0
LINE
8
BLACK
6
CONTINUOUS
10
3.41907
20
-2.15326
11
3.41907
21
-2.15326
0
LINE
8
BLACK
6
CONTINUOUS
10
3.41907
20
-2.15326
11
3.40923
21
-2.13622
0
LINE
8
BLACK
6
CONTINUOUS
10
3.40923
20
-2.13622
11
3.40903
21
-2.13472
0
LINE
8
BLACK
6
CONTINUOUS
10
3.40903
20
-2.13472
11
3.40995
21
-2.13353
0
LINE
8
BLACK
6
CONTINUOUS
10
3.40995
20
-2.13353
11
3.40995
21
-2.13353
0
LINE
8
BLACK
6
CONTINUOUS
10
3.40995
20
-2.13353
11
3.41401
21
-2.13118
0
LINE
8
BLACK
6
CONTINUOUS
10
3.41401
20
-2.13118
11
3.41433
21
-2.13114
0
LINE
8
BLACK
6
CONTINUOUS
10
3.41433
20
-2.13114
11
3.4146
21
-2.13096
0
LINE
8
BLACK
6
CONTINUOUS
10
3.4146
20
-2.13096
11
3.4175
21
-2.13037
0
LINE
8
BLACK
6
CONTINUOUS
10
3.4175
20
-2.13037
11
3.41795
21
-2.13045
0
LINE
8
BLACK
6
CONTINUOUS
10
3.4157
20
-2.13475
11
3.41362
21
-2.13595
0
LINE
8
BLACK
6
CONTINUOUS
10
3.41362
20
-2.13595
11
3.4215
21
-2.14959
0
LINE
8
BLACK
6
CONTINUOUS
10
3.4215
20
-2.14959
11
3.42357
21
-2.14839
0
LINE
8
BLACK
6
CONTINUOUS
10
3.42357
20
-2.14839
11
3.42502
21
-2.14676
0
LINE
8
BLACK
6
CONTINUOUS
10
3.42502
20
-2.14676
11
3.4255
21
-2.14496
0
LINE
8
BLACK
6
CONTINUOUS
10
3.4255
20
-2.14496
11
3.42541
21
-2.1434
0
LINE
8
BLACK
6
CONTINUOUS
10
3.42541
20
-2.1434
11
3.42447
21
-2.14012
0
LINE
8
BLACK
6
CONTINUOUS
10
3.42447
20
-2.14012
11
3.42331
21
-2.13811
0
LINE
8
BLACK
6
CONTINUOUS
10
3.42331
20
-2.13811
11
3.42094
21
-2.13566
0
LINE
8
BLACK
6
CONTINUOUS
10
3.42094
20
-2.13566
11
3.41964
21
-2.1348
0
LINE
8
BLACK
6
CONTINUOUS
10
3.41964
20
-2.1348
11
3.41783
21
-2.13432
0
LINE
8
BLACK
6
CONTINUOUS
10
3.41783
20
-2.13432
11
3.4157
21
-2.13475
0
LINE
8
BLACK
6
CONTINUOUS
10
3.43594
20
-2.12012
11
3.43626
21
-2.12008
0
LINE
8
BLACK
6
CONTINUOUS
10
3.43626
20
-2.12008
11
3.43754
21
-2.12042
0
LINE
8
BLACK
6
CONTINUOUS
10
3.43754
20
-2.12042
11
3.4378
21
-2.12062
0
LINE
8
BLACK
6
CONTINUOUS
10
3.4378
20
-2.12062
11
3.43812
21
-2.12068
0
LINE
8
BLACK
6
CONTINUOUS
10
3.43812
20
-2.12068
11
3.43987
21
-2.12184
0
LINE
8
BLACK
6
CONTINUOUS
10
3.43987
20
-2.12184
11
3.44013
21
-2.12222
0
LINE
8
BLACK
6
CONTINUOUS
10
3.44013
20
-2.12222
11
3.44049
21
-2.1225
0
LINE
8
BLACK
6
CONTINUOUS
10
3.44049
20
-2.1225
11
3.44143
21
-2.12412
0
LINE
8
BLACK
6
CONTINUOUS
10
3.44143
20
-2.12412
11
3.44147
21
-2.12444
0
LINE
8
BLACK
6
CONTINUOUS
10
3.44147
20
-2.12444
11
3.44165
21
-2.12471
0
LINE
8
BLACK
6
CONTINUOUS
10
3.44165
20
-2.12471
11
3.44224
21
-2.12761
0
LINE
8
BLACK
6
CONTINUOUS
10
3.44224
20
-2.12761
11
3.44216
21
-2.12806
0
LINE
8
BLACK
6
CONTINUOUS
10
3.44216
20
-2.12806
11
3.44222
21
-2.12852
0
LINE
8
BLACK
6
CONTINUOUS
10
3.44222
20
-2.12852
11
3.43933
21
-2.13929
0
LINE
8
BLACK
6
CONTINUOUS
10
3.43933
20
-2.13929
11
3.44577
21
-2.13558
0
LINE
8
BLACK
6
CONTINUOUS
10
3.44577
20
-2.13558
11
3.44726
21
-2.13538
0
LINE
8
BLACK
6
CONTINUOUS
10
3.44726
20
-2.13538
11
3.44846
21
-2.1363
0
LINE
8
BLACK
6
CONTINUOUS
10
3.44846
20
-2.1363
11
3.44865
21
-2.13779
0
LINE
8
BLACK
6
CONTINUOUS
10
3.44865
20
-2.13779
11
3.44774
21
-2.13899
0
LINE
8
BLACK
6
CONTINUOUS
10
3.44774
20
-2.13899
11
3.43718
21
-2.14508
0
LINE
8
BLACK
6
CONTINUOUS
10
3.43718
20
-2.14508
11
3.43718
21
-2.14508
0
LINE
8
BLACK
6
CONTINUOUS
10
3.43718
20
-2.14508
11
3.43569
21
-2.14528
0
LINE
8
BLACK
6
CONTINUOUS
10
3.43569
20
-2.14528
11
3.43449
21
-2.14436
0
LINE
8
BLACK
6
CONTINUOUS
10
3.43449
20
-2.14436
11
3.4343
21
-2.14287
0
LINE
8
BLACK
6
CONTINUOUS
10
3.4343
20
-2.14287
11
3.43829
21
-2.12795
0
LINE
8
BLACK
6
CONTINUOUS
10
3.43829
20
-2.12795
11
3.43786
21
-2.12581
0
LINE
8
BLACK
6
CONTINUOUS
10
3.43786
20
-2.12581
11
3.43731
21
-2.12487
0
LINE
8
BLACK
6
CONTINUOUS
10
3.43731
20
-2.12487
11
3.43622
21
-2.12414
0
LINE
8
BLACK
6
CONTINUOUS
10
3.43622
20
-2.12414
11
3.43555
21
-2.12397
0
LINE
8
BLACK
6
CONTINUOUS
10
3.43555
20
-2.12397
11
3.43424
21
-2.12405
0
LINE
8
BLACK
6
CONTINUOUS
10
3.43424
20
-2.12405
11
3.43099
21
-2.12592
0
LINE
8
BLACK
6
CONTINUOUS
10
3.43099
20
-2.12592
11
3.43027
21
-2.12702
0
LINE
8
BLACK
6
CONTINUOUS
10
3.43027
20
-2.12702
11
3.43001
21
-2.12799
0
LINE
8
BLACK
6
CONTINUOUS
10
3.43001
20
-2.12799
11
3.42909
21
-2.12919
0
LINE
8
BLACK
6
CONTINUOUS
10
3.42909
20
-2.12919
11
3.4276
21
-2.12938
0
LINE
8
BLACK
6
CONTINUOUS
10
3.4276
20
-2.12938
11
3.4264
21
-2.12847
0
LINE
8
BLACK
6
CONTINUOUS
10
3.4264
20
-2.12847
11
3.4262
21
-2.12697
0
LINE
8
BLACK
6
CONTINUOUS
10
3.4262
20
-2.12697
11
3.42655
21
-2.12569
0
LINE
8
BLACK
6
CONTINUOUS
10
3.42655
20
-2.12569
11
3.42674
21
-2.12543
0
LINE
8
BLACK
6
CONTINUOUS
10
3.42674
20
-2.12543
11
3.42681
21
-2.12512
0
LINE
8
BLACK
6
CONTINUOUS
10
3.42681
20
-2.12512
11
3.42796
21
-2.12337
0
LINE
8
BLACK
6
CONTINUOUS
10
3.42796
20
-2.12337
11
3.42834
21
-2.12311
0
LINE
8
BLACK
6
CONTINUOUS
10
3.42834
20
-2.12311
11
3.42862
21
-2.12275
0
LINE
8
BLACK
6
CONTINUOUS
10
3.42862
20
-2.12275
11
3.43268
21
-2.1204
0
LINE
8
BLACK
6
CONTINUOUS
10
3.43268
20
-2.1204
11
3.43313
21
-2.12034
0
LINE
8
BLACK
6
CONTINUOUS
10
3.43313
20
-2.12034
11
3.43354
21
-2.12014
0
LINE
8
BLACK
6
CONTINUOUS
10
3.43354
20
-2.12014
11
3.43564
21
-2.12002
0
LINE
8
BLACK
6
CONTINUOUS
10
3.43564
20
-2.12002
11
3.43594
21
-2.12012
0
LINE
8
BLACK
6
CONTINUOUS
10
2.97714
20
-2.09002
11
2.97799
21
-2.09059
0
LINE
8
BLACK
6
CONTINUOUS
10
2.97799
20
-2.09059
11
2.97915
21
-2.0909
0
LINE
8
BLACK
6
CONTINUOUS
10
2.97915
20
-2.0909
11
2.98103
21
-2.09102
0
LINE
8
BLACK
6
CONTINUOUS
10
2.98103
20
-2.09102
11
2.98117
21
-2.09109
0
LINE
8
BLACK
6
CONTINUOUS
10
2.98117
20
-2.09109
11
2.98132
21
-2.09107
0
LINE
8
BLACK
6
CONTINUOUS
10
2.98132
20
-2.09107
11
2.98166
21
-2.09133
0
LINE
8
BLACK
6
CONTINUOUS
10
2.98166
20
-2.09133
11
2.98205
21
-2.09152
0
LINE
8
BLACK
6
CONTINUOUS
10
2.98205
20
-2.09152
11
2.98209
21
-2.09166
0
LINE
8
BLACK
6
CONTINUOUS
10
2.98209
20
-2.09166
11
2.98221
21
-2.09175
0
LINE
8
BLACK
6
CONTINUOUS
10
2.98221
20
-2.09175
11
2.98227
21
-2.09218
0
LINE
8
BLACK
6
CONTINUOUS
10
2.98227
20
-2.09218
11
2.98241
21
-2.09259
0
LINE
8
BLACK
6
CONTINUOUS
10
2.98241
20
-2.09259
11
2.98234
21
-2.09272
0
LINE
8
BLACK
6
CONTINUOUS
10
2.98234
20
-2.09272
11
2.98236
21
-2.09287
0
LINE
8
BLACK
6
CONTINUOUS
10
2.98236
20
-2.09287
11
2.9821
21
-2.09321
0
LINE
8
BLACK
6
CONTINUOUS
10
2.9821
20
-2.09321
11
2.98191
21
-2.0936
0
LINE
8
BLACK
6
CONTINUOUS
10
2.98191
20
-2.0936
11
2.98177
21
-2.09365
0
LINE
8
BLACK
6
CONTINUOUS
10
2.98177
20
-2.09365
11
2.98167
21
-2.09377
0
LINE
8
BLACK
6
CONTINUOUS
10
2.98167
20
-2.09377
11
2.97272
21
-2.09894
0
LINE
8
BLACK
6
CONTINUOUS
10
2.97272
20
-2.09894
11
2.97367
21
-2.10058
0
LINE
8
BLACK
6
CONTINUOUS
10
2.97367
20
-2.10058
11
2.97382
21
-2.1017
0
LINE
8
BLACK
6
CONTINUOUS
10
2.97382
20
-2.1017
11
2.97313
21
-2.1026
0
LINE
8
BLACK
6
CONTINUOUS
10
2.97313
20
-2.1026
11
2.97201
21
-2.10275
0
LINE
8
BLACK
6
CONTINUOUS
10
2.97201
20
-2.10275
11
2.97112
21
-2.10206
0
LINE
8
BLACK
6
CONTINUOUS
10
2.97112
20
-2.10206
11
2.96774
21
-2.09621
0
LINE
8
BLACK
6
CONTINUOUS
10
2.96774
20
-2.09621
11
2.96759
21
-2.09509
0
LINE
8
BLACK
6
CONTINUOUS
10
2.96759
20
-2.09509
11
2.96828
21
-2.0942
0
LINE
8
BLACK
6
CONTINUOUS
10
2.96828
20
-2.0942
11
2.9694
21
-2.09405
0
LINE
8
BLACK
6
CONTINUOUS
10
2.9694
20
-2.09405
11
2.9703
21
-2.09474
0
LINE
8
BLACK
6
CONTINUOUS
10
2.9703
20
-2.09474
11
2.97125
21
-2.09638
0
LINE
8
BLACK
6
CONTINUOUS
10
2.97125
20
-2.09638
11
2.97673
21
-2.09321
0
LINE
8
BLACK
6
CONTINUOUS
10
2.97673
20
-2.09321
11
2.97656
21
-2.09318
0
LINE
8
BLACK
6
CONTINUOUS
10
2.97656
20
-2.09318
11
2.97551
21
-2.09249
0
LINE
8
BLACK
6
CONTINUOUS
10
2.97551
20
-2.09249
11
2.97488
21
-2.09155
0
LINE
8
BLACK
6
CONTINUOUS
10
2.97488
20
-2.09155
11
2.97509
21
-2.09044
0
LINE
8
BLACK
6
CONTINUOUS
10
2.97509
20
-2.09044
11
2.97603
21
-2.08981
0
LINE
8
BLACK
6
CONTINUOUS
10
2.97603
20
-2.08981
11
2.97714
21
-2.09002
0
LINE
8
BLACK
6
CONTINUOUS
10
2.93722
20
-2.08014
11
2.93732
21
-2.08014
0
LINE
8
BLACK
6
CONTINUOUS
10
2.93732
20
-2.08014
11
2.9378
21
-2.08059
0
LINE
8
BLACK
6
CONTINUOUS
10
2.9378
20
-2.08059
11
2.93833
21
-2.08099
0
LINE
8
BLACK
6
CONTINUOUS
10
2.93833
20
-2.08099
11
2.94302
21
-2.08911
0
LINE
8
BLACK
6
CONTINUOUS
10
2.94302
20
-2.08911
11
2.94321
21
-2.09061
0
LINE
8
BLACK
6
CONTINUOUS
10
2.94321
20
-2.09061
11
2.94229
21
-2.0918
0
LINE
8
BLACK
6
CONTINUOUS
10
2.94229
20
-2.0918
11
2.9408
21
-2.092
0
LINE
8
BLACK
6
CONTINUOUS
10
2.9408
20
-2.092
11
2.93961
21
-2.09108
0
LINE
8
BLACK
6
CONTINUOUS
10
2.93961
20
-2.09108
11
2.93581
21
-2.0845
0
LINE
8
BLACK
6
CONTINUOUS
10
2.93581
20
-2.0845
11
2.93238
21
-2.08605
0
LINE
8
BLACK
6
CONTINUOUS
10
2.93238
20
-2.08605
11
2.93241
21
-2.08609
0
LINE
8
BLACK
6
CONTINUOUS
10
2.93241
20
-2.08609
11
2.93277
21
-2.08637
0
LINE
8
BLACK
6
CONTINUOUS
10
2.93277
20
-2.08637
11
2.93511
21
-2.09043
0
LINE
8
BLACK
6
CONTINUOUS
10
2.93511
20
-2.09043
11
2.93517
21
-2.09088
0
LINE
8
BLACK
6
CONTINUOUS
10
2.93517
20
-2.09088
11
2.93537
21
-2.09129
0
LINE
8
BLACK
6
CONTINUOUS
10
2.93537
20
-2.09129
11
2.9355
21
-2.09338
0
LINE
8
BLACK
6
CONTINUOUS
10
2.9355
20
-2.09338
11
2.93539
21
-2.09369
0
LINE
8
BLACK
6
CONTINUOUS
10
2.93539
20
-2.09369
11
2.93544
21
-2.09401
0
LINE
8
BLACK
6
CONTINUOUS
10
2.93544
20
-2.09401
11
2.93509
21
-2.09529
0
LINE
8
BLACK
6
CONTINUOUS
10
2.93509
20
-2.09529
11
2.9349
21
-2.09555
0
LINE
8
BLACK
6
CONTINUOUS
10
2.9349
20
-2.09555
11
2.93484
21
-2.09587
0
LINE
8
BLACK
6
CONTINUOUS
10
2.93484
20
-2.09587
11
2.93368
21
-2.09762
0
LINE
8
BLACK
6
CONTINUOUS
10
2.93368
20
-2.09762
11
2.9333
21
-2.09787
0
LINE
8
BLACK
6
CONTINUOUS
10
2.9333
20
-2.09787
11
2.93302
21
-2.09824
0
LINE
8
BLACK
6
CONTINUOUS
10
2.93302
20
-2.09824
11
2.92896
21
-2.10058
0
LINE
8
BLACK
6
CONTINUOUS
10
2.92896
20
-2.10058
11
2.92851
21
-2.10064
0
LINE
8
BLACK
6
CONTINUOUS
10
2.92851
20
-2.10064
11
2.9281
21
-2.10084
0
LINE
8
BLACK
6
CONTINUOUS
10
2.9281
20
-2.10084
11
2.926
21
-2.10097
0
LINE
8
BLACK
6
CONTINUOUS
10
2.926
20
-2.10097
11
2.9257
21
-2.10086
0
LINE
8
BLACK
6
CONTINUOUS
10
2.9257
20
-2.10086
11
2.92538
21
-2.1009
0
LINE
8
BLACK
6
CONTINUOUS
10
2.92538
20
-2.1009
11
2.9241
21
-2.10056
0
LINE
8
BLACK
6
CONTINUOUS
10
2.9241
20
-2.10056
11
2.92384
21
-2.10036
0
LINE
8
BLACK
6
CONTINUOUS
10
2.92384
20
-2.10036
11
2.92352
21
-2.1003
0
LINE
8
BLACK
6
CONTINUOUS
10
2.92352
20
-2.1003
11
2.92177
21
-2.09915
0
LINE
8
BLACK
6
CONTINUOUS
10
2.92177
20
-2.09915
11
2.92152
21
-2.09877
0
LINE
8
BLACK
6
CONTINUOUS
10
2.92152
20
-2.09877
11
2.92115
21
-2.09849
0
LINE
8
BLACK
6
CONTINUOUS
10
2.92115
20
-2.09849
11
2.91881
21
-2.09443
0
LINE
8
BLACK
6
CONTINUOUS
10
2.91881
20
-2.09443
11
2.91875
21
-2.09397
0
LINE
8
BLACK
6
CONTINUOUS
10
2.91875
20
-2.09397
11
2.91855
21
-2.09356
0
LINE
8
BLACK
6
CONTINUOUS
10
2.91855
20
-2.09356
11
2.91842
21
-2.09147
0
LINE
8
BLACK
6
CONTINUOUS
10
2.91842
20
-2.09147
11
2.91853
21
-2.09116
0
LINE
8
BLACK
6
CONTINUOUS
10
2.91853
20
-2.09116
11
2.91849
21
-2.09084
0
LINE
8
BLACK
6
CONTINUOUS
10
2.91849
20
-2.09084
11
2.91883
21
-2.08956
0
LINE
8
BLACK
6
CONTINUOUS
10
2.91883
20
-2.08956
11
2.91975
21
-2.08837
0
LINE
8
BLACK
6
CONTINUOUS
10
2.91975
20
-2.08837
11
2.92124
21
-2.08817
0
LINE
8
BLACK
6
CONTINUOUS
10
2.92124
20
-2.08817
11
2.92244
21
-2.08909
0
LINE
8
BLACK
6
CONTINUOUS
10
2.92244
20
-2.08909
11
2.92263
21
-2.09058
0
LINE
8
BLACK
6
CONTINUOUS
10
2.92263
20
-2.09058
11
2.92237
21
-2.09155
0
LINE
8
BLACK
6
CONTINUOUS
10
2.92237
20
-2.09155
11
2.92245
21
-2.09286
0
LINE
8
BLACK
6
CONTINUOUS
10
2.92245
20
-2.09286
11
2.92433
21
-2.09612
0
LINE
8
BLACK
6
CONTINUOUS
10
2.92433
20
-2.09612
11
2.92542
21
-2.09684
0
LINE
8
BLACK
6
CONTINUOUS
10
2.92542
20
-2.09684
11
2.92609
21
-2.09702
0
LINE
8
BLACK
6
CONTINUOUS
10
2.92609
20
-2.09702
11
2.9274
21
-2.09694
0
LINE
8
BLACK
6
CONTINUOUS
10
2.9274
20
-2.09694
11
2.93065
21
-2.09506
0
LINE
8
BLACK
6
CONTINUOUS
10
2.93065
20
-2.09506
11
2.93137
21
-2.09396
0
LINE
8
BLACK
6
CONTINUOUS
10
2.93137
20
-2.09396
11
2.93155
21
-2.0933
0
LINE
8
BLACK
6
CONTINUOUS
10
2.93155
20
-2.0933
11
2.93147
21
-2.09199
0
LINE
8
BLACK
6
CONTINUOUS
10
2.93147
20
-2.09199
11
2.92959
21
-2.08874
0
LINE
8
BLACK
6
CONTINUOUS
10
2.92959
20
-2.08874
11
2.9285
21
-2.08801
0
LINE
8
BLACK
6
CONTINUOUS
10
2.9285
20
-2.08801
11
2.92753
21
-2.08775
0
LINE
8
BLACK
6
CONTINUOUS
10
2.92753
20
-2.08775
11
2.92744
21
-2.08769
0
LINE
8
BLACK
6
CONTINUOUS
10
2.92744
20
-2.08769
11
2.92734
21
-2.08769
0
LINE
8
BLACK
6
CONTINUOUS
10
2.92734
20
-2.08769
11
2.92686
21
-2.08724
0
LINE
8
BLACK
6
CONTINUOUS
10
2.92686
20
-2.08724
11
2.92633
21
-2.08684
0
LINE
8
BLACK
6
CONTINUOUS
10
2.92633
20
-2.08684
11
2.92632
21
-2.08673
0
LINE
8
BLACK
6
CONTINUOUS
10
2.92632
20
-2.08673
11
2.92624
21
-2.08666
0
LINE
8
BLACK
6
CONTINUOUS
10
2.92624
20
-2.08666
11
2.92622
21
-2.086
0
LINE
8
BLACK
6
CONTINUOUS
10
2.92622
20
-2.086
11
2.92614
21
-2.08534
0
LINE
8
BLACK
6
CONTINUOUS
10
2.92614
20
-2.08534
11
2.9262
21
-2.08526
0
LINE
8
BLACK
6
CONTINUOUS
10
2.9262
20
-2.08526
11
2.9262
21
-2.08516
0
LINE
8
BLACK
6
CONTINUOUS
10
2.9262
20
-2.08516
11
2.92665
21
-2.08467
0
LINE
8
BLACK
6
CONTINUOUS
10
2.92665
20
-2.08467
11
2.92705
21
-2.08415
0
LINE
8
BLACK
6
CONTINUOUS
10
2.92705
20
-2.08415
11
2.92716
21
-2.08413
0
LINE
8
BLACK
6
CONTINUOUS
10
2.92716
20
-2.08413
11
2.92723
21
-2.08406
0
LINE
8
BLACK
6
CONTINUOUS
10
2.92723
20
-2.08406
11
2.93581
21
-2.08018
0
LINE
8
BLACK
6
CONTINUOUS
10
2.93581
20
-2.08018
11
2.93648
21
-2.08016
0
LINE
8
BLACK
6
CONTINUOUS
10
2.93648
20
-2.08016
11
2.93713
21
-2.08008
0
LINE
8
BLACK
6
CONTINUOUS
10
2.93713
20
-2.08008
11
2.93722
21
-2.08014
0
LINE
8
BLACK
6
CONTINUOUS
10
3.28763
20
-2.07341
11
3.28806
21
-2.07338
0
LINE
8
BLACK
6
CONTINUOUS
10
3.28806
20
-2.07338
11
3.28818
21
-2.07348
0
LINE
8
BLACK
6
CONTINUOUS
10
3.28818
20
-2.07348
11
3.28833
21
-2.0735
0
LINE
8
BLACK
6
CONTINUOUS
10
3.28833
20
-2.0735
11
3.29728
21
-2.07866
0
LINE
8
BLACK
6
CONTINUOUS
10
3.29728
20
-2.07866
11
3.29823
21
-2.07702
0
LINE
8
BLACK
6
CONTINUOUS
10
3.29823
20
-2.07702
11
3.29912
21
-2.07633
0
LINE
8
BLACK
6
CONTINUOUS
10
3.29912
20
-2.07633
11
3.30024
21
-2.07648
0
LINE
8
BLACK
6
CONTINUOUS
10
3.30024
20
-2.07648
11
3.30093
21
-2.07738
0
LINE
8
BLACK
6
CONTINUOUS
10
3.30093
20
-2.07738
11
3.30078
21
-2.0785
0
LINE
8
BLACK
6
CONTINUOUS
10
3.30078
20
-2.0785
11
3.29741
21
-2.08434
0
LINE
8
BLACK
6
CONTINUOUS
10
3.29741
20
-2.08434
11
3.29651
21
-2.08503
0
LINE
8
BLACK
6
CONTINUOUS
10
3.29651
20
-2.08503
11
3.29539
21
-2.08488
0
LINE
8
BLACK
6
CONTINUOUS
10
3.29539
20
-2.08488
11
3.29471
21
-2.08399
0
LINE
8
BLACK
6
CONTINUOUS
10
3.29471
20
-2.08399
11
3.29485
21
-2.08286
0
LINE
8
BLACK
6
CONTINUOUS
10
3.29485
20
-2.08286
11
3.2958
21
-2.08122
0
LINE
8
BLACK
6
CONTINUOUS
10
3.2958
20
-2.08122
11
3.29032
21
-2.07805
0
LINE
8
BLACK
6
CONTINUOUS
10
3.29032
20
-2.07805
11
3.29037
21
-2.07822
0
LINE
8
BLACK
6
CONTINUOUS
10
3.29037
20
-2.07822
11
3.2903
21
-2.07947
0
LINE
8
BLACK
6
CONTINUOUS
10
3.2903
20
-2.07947
11
3.28981
21
-2.08049
0
LINE
8
BLACK
6
CONTINUOUS
10
3.28981
20
-2.08049
11
3.28874
21
-2.08086
0
LINE
8
BLACK
6
CONTINUOUS
10
3.28874
20
-2.08086
11
3.28772
21
-2.08036
0
LINE
8
BLACK
6
CONTINUOUS
10
3.28772
20
-2.08036
11
3.28735
21
-2.0793
0
LINE
8
BLACK
6
CONTINUOUS
10
3.28735
20
-2.0793
11
3.28741
21
-2.07828
0
LINE
8
BLACK
6
CONTINUOUS
10
3.28741
20
-2.07828
11
3.2871
21
-2.07712
0
LINE
8
BLACK
6
CONTINUOUS
10
3.2871
20
-2.07712
11
3.28627
21
-2.07543
0
LINE
8
BLACK
6
CONTINUOUS
10
3.28627
20
-2.07543
11
3.28626
21
-2.07528
0
LINE
8
BLACK
6
CONTINUOUS
10
3.28626
20
-2.07528
11
3.28616
21
-2.07516
0
LINE
8
BLACK
6
CONTINUOUS
10
3.28616
20
-2.07516
11
3.28622
21
-2.07473
0
LINE
8
BLACK
6
CONTINUOUS
10
3.28622
20
-2.07473
11
3.28619
21
-2.0743
0
LINE
8
BLACK
6
CONTINUOUS
10
3.28619
20
-2.0743
11
3.28629
21
-2.07419
0
LINE
8
BLACK
6
CONTINUOUS
10
3.28629
20
-2.07419
11
3.28631
21
-2.07404
0
LINE
8
BLACK
6
CONTINUOUS
10
3.28631
20
-2.07404
11
3.28665
21
-2.07378
0
LINE
8
BLACK
6
CONTINUOUS
10
3.28665
20
-2.07378
11
3.28694
21
-2.07345
0
LINE
8
BLACK
6
CONTINUOUS
10
3.28694
20
-2.07345
11
3.28709
21
-2.07344
0
LINE
8
BLACK
6
CONTINUOUS
10
3.28709
20
-2.07344
11
3.28721
21
-2.07335
0
LINE
8
BLACK
6
CONTINUOUS
10
3.28721
20
-2.07335
11
3.28763
21
-2.07341
0
LINE
8
BLACK
6
CONTINUOUS
10
2.92849
20
-2.06395
11
2.93083
21
-2.068
0
LINE
8
BLACK
6
CONTINUOUS
10
2.93083
20
-2.068
11
2.93087
21
-2.06833
0
LINE
8
BLACK
6
CONTINUOUS
10
2.93087
20
-2.06833
11
2.93105
21
-2.06859
0
LINE
8
BLACK
6
CONTINUOUS
10
2.93105
20
-2.06859
11
2.93165
21
-2.0715
0
LINE
8
BLACK
6
CONTINUOUS
10
2.93165
20
-2.0715
11
2.93156
21
-2.07195
0
LINE
8
BLACK
6
CONTINUOUS
10
2.93156
20
-2.07195
11
2.93162
21
-2.0724
0
LINE
8
BLACK
6
CONTINUOUS
10
2.93162
20
-2.0724
11
2.93093
21
-2.07496
0
LINE
8
BLACK
6
CONTINUOUS
10
2.93093
20
-2.07496
11
2.93074
21
-2.07522
0
LINE
8
BLACK
6
CONTINUOUS
10
2.93074
20
-2.07522
11
2.93068
21
-2.07554
0
LINE
8
BLACK
6
CONTINUOUS
10
2.93068
20
-2.07554
11
2.92952
21
-2.07729
0
LINE
8
BLACK
6
CONTINUOUS
10
2.92952
20
-2.07729
11
2.92933
21
-2.07741
0
LINE
8
BLACK
6
CONTINUOUS
10
2.92933
20
-2.07741
11
2.92925
21
-2.07762
0
LINE
8
BLACK
6
CONTINUOUS
10
2.92925
20
-2.07762
11
2.92647
21
-2.0803
0
LINE
8
BLACK
6
CONTINUOUS
10
2.92647
20
-2.0803
11
2.92624
21
-2.0804
0
LINE
8
BLACK
6
CONTINUOUS
10
2.92624
20
-2.0804
11
2.92608
21
-2.08059
0
LINE
8
BLACK
6
CONTINUOUS
10
2.92608
20
-2.08059
11
2.92365
21
-2.082
0
LINE
8
BLACK
6
CONTINUOUS
10
2.92365
20
-2.082
11
2.9234
21
-2.08203
0
LINE
8
BLACK
6
CONTINUOUS
10
2.9234
20
-2.08203
11
2.92321
21
-2.08219
0
LINE
8
BLACK
6
CONTINUOUS
10
2.92321
20
-2.08219
11
2.91949
21
-2.08325
0
LINE
8
BLACK
6
CONTINUOUS
10
2.91949
20
-2.08325
11
2.91927
21
-2.08323
0
LINE
8
BLACK
6
CONTINUOUS
10
2.91927
20
-2.08323
11
2.91907
21
-2.08332
0
LINE
8
BLACK
6
CONTINUOUS
10
2.91907
20
-2.08332
11
2.91697
21
-2.08345
0
LINE
8
BLACK
6
CONTINUOUS
10
2.91697
20
-2.08345
11
2.91667
21
-2.08334
0
LINE
8
BLACK
6
CONTINUOUS
10
2.91667
20
-2.08334
11
2.91635
21
-2.08339
0
LINE
8
BLACK
6
CONTINUOUS
10
2.91635
20
-2.08339
11
2.91379
21
-2.0827
0
LINE
8
BLACK
6
CONTINUOUS
10
2.91379
20
-2.0827
11
2.91342
21
-2.08242
0
LINE
8
BLACK
6
CONTINUOUS
10
2.91342
20
-2.08242
11
2.91299
21
-2.08227
0
LINE
8
BLACK
6
CONTINUOUS
10
2.91299
20
-2.08227
11
2.91077
21
-2.0803
0
LINE
8
BLACK
6
CONTINUOUS
10
2.91077
20
-2.0803
11
2.91063
21
-2.08001
0
LINE
8
BLACK
6
CONTINUOUS
10
2.91063
20
-2.08001
11
2.91037
21
-2.07982
0
LINE
8
BLACK
6
CONTINUOUS
10
2.91037
20
-2.07982
11
2.90803
21
-2.07576
0
LINE
8
BLACK
6
CONTINUOUS
10
2.90803
20
-2.07576
11
2.90783
21
-2.07426
0
LINE
8
BLACK
6
CONTINUOUS
10
2.90783
20
-2.07426
11
2.90875
21
-2.07307
0
LINE
8
BLACK
6
CONTINUOUS
10
2.90875
20
-2.07307
11
2.9258
21
-2.06323
0
LINE
8
BLACK
6
CONTINUOUS
10
2.9258
20
-2.06323
11
2.92729
21
-2.06303
0
LINE
8
BLACK
6
CONTINUOUS
10
2.92729
20
-2.06303
11
2.92849
21
-2.06395
0
LINE
8
BLACK
6
CONTINUOUS
10
2.91242
20
-2.07549
11
2.91362
21
-2.07757
0
LINE
8
BLACK
6
CONTINUOUS
10
2.91362
20
-2.07757
11
2.91525
21
-2.07902
0
LINE
8
BLACK
6
CONTINUOUS
10
2.91525
20
-2.07902
11
2.91706
21
-2.0795
0
LINE
8
BLACK
6
CONTINUOUS
10
2.91706
20
-2.0795
11
2.91861
21
-2.07941
0
LINE
8
BLACK
6
CONTINUOUS
10
2.91861
20
-2.07941
11
2.92189
21
-2.07847
0
LINE
8
BLACK
6
CONTINUOUS
10
2.92189
20
-2.07847
11
2.9239
21
-2.07731
0
LINE
8
BLACK
6
CONTINUOUS
10
2.9239
20
-2.07731
11
2.92635
21
-2.07494
0
LINE
8
BLACK
6
CONTINUOUS
10
2.92635
20
-2.07494
11
2.92721
21
-2.07364
0
LINE
8
BLACK
6
CONTINUOUS
10
2.92721
20
-2.07364
11
2.9277
21
-2.07183
0
LINE
8
BLACK
6
CONTINUOUS
10
2.9277
20
-2.07183
11
2.92726
21
-2.0697
0
LINE
8
BLACK
6
CONTINUOUS
10
2.92726
20
-2.0697
11
2.92606
21
-2.06762
0
LINE
8
BLACK
6
CONTINUOUS
10
2.92606
20
-2.06762
11
2.91242
21
-2.07549
0
LINE
8
BLACK
6
CONTINUOUS
10
2.95059
20
-2.02932
11
2.95079
21
-2.03081
0
LINE
8
BLACK
6
CONTINUOUS
10
2.95079
20
-2.03081
11
2.94987
21
-2.03201
0
LINE
8
BLACK
6
CONTINUOUS
10
2.94987
20
-2.03201
11
2.92942
21
-2.04382
0
LINE
8
BLACK
6
CONTINUOUS
10
2.92942
20
-2.04382
11
2.94123
21
-2.06427
0
LINE
8
BLACK
6
CONTINUOUS
10
2.94123
20
-2.06427
11
2.94142
21
-2.06577
0
LINE
8
BLACK
6
CONTINUOUS
10
2.94142
20
-2.06577
11
2.94051
21
-2.06696
0
LINE
8
BLACK
6
CONTINUOUS
10
2.94051
20
-2.06696
11
2.93901
21
-2.06716
0
LINE
8
BLACK
6
CONTINUOUS
10
2.93901
20
-2.06716
11
2.93782
21
-2.06624
0
LINE
8
BLACK
6
CONTINUOUS
10
2.93782
20
-2.06624
11
2.92502
21
-2.04408
0
LINE
8
BLACK
6
CONTINUOUS
10
2.92502
20
-2.04408
11
2.92483
21
-2.04259
0
LINE
8
BLACK
6
CONTINUOUS
10
2.92483
20
-2.04259
11
2.92574
21
-2.04139
0
LINE
8
BLACK
6
CONTINUOUS
10
2.92574
20
-2.04139
11
2.92574
21
-2.04139
0
LINE
8
BLACK
6
CONTINUOUS
10
2.92574
20
-2.04139
11
2.94791
21
-2.0286
0
LINE
8
BLACK
6
CONTINUOUS
10
2.94791
20
-2.0286
11
2.9494
21
-2.0284
0
LINE
8
BLACK
6
CONTINUOUS
10
2.9494
20
-2.0284
11
2.95059
21
-2.02932
0
LINE
8
BLACK
6
CONTINUOUS
10
3.13824
20
-2.03987
11
3.13868
21
-2.04092
0
LINE
8
BLACK
6
CONTINUOUS
10
3.13868
20
-2.04092
11
3.13868
21
-2.04767
0
LINE
8
BLACK
6
CONTINUOUS
10
3.13868
20
-2.04767
11
3.13824
21
-2.04871
0
LINE
8
BLACK
6
CONTINUOUS
10
3.13824
20
-2.04871
11
3.1372
21
-2.04914
0
LINE
8
BLACK
6
CONTINUOUS
10
3.1372
20
-2.04914
11
3.13616
21
-2.04871
0
LINE
8
BLACK
6
CONTINUOUS
10
3.13616
20
-2.04871
11
3.13572
21
-2.04767
0
LINE
8
BLACK
6
CONTINUOUS
10
3.13572
20
-2.04767
11
3.13572
21
-2.04577
0
LINE
8
BLACK
6
CONTINUOUS
10
3.13572
20
-2.04577
11
3.12939
21
-2.04577
0
LINE
8
BLACK
6
CONTINUOUS
10
3.12939
20
-2.04577
11
3.12952
21
-2.04588
0
LINE
8
BLACK
6
CONTINUOUS
10
3.12952
20
-2.04588
11
3.13008
21
-2.04701
0
LINE
8
BLACK
6
CONTINUOUS
10
3.13008
20
-2.04701
11
3.13016
21
-2.04813
0
LINE
8
BLACK
6
CONTINUOUS
10
3.13016
20
-2.04813
11
3.12942
21
-2.04899
0
LINE
8
BLACK
6
CONTINUOUS
10
3.12942
20
-2.04899
11
3.1283
21
-2.04907
0
LINE
8
BLACK
6
CONTINUOUS
10
3.1283
20
-2.04907
11
3.12744
21
-2.04833
0
LINE
8
BLACK
6
CONTINUOUS
10
3.12744
20
-2.04833
11
3.12699
21
-2.04742
0
LINE
8
BLACK
6
CONTINUOUS
10
3.12699
20
-2.04742
11
3.12614
21
-2.04656
0
LINE
8
BLACK
6
CONTINUOUS
10
3.12614
20
-2.04656
11
3.12457
21
-2.04552
0
LINE
8
BLACK
6
CONTINUOUS
10
3.12457
20
-2.04552
11
3.12449
21
-2.04539
0
LINE
8
BLACK
6
CONTINUOUS
10
3.12449
20
-2.04539
11
3.12435
21
-2.04534
0
LINE
8
BLACK
6
CONTINUOUS
10
3.12435
20
-2.04534
11
3.12418
21
-2.04494
0
LINE
8
BLACK
6
CONTINUOUS
10
3.12418
20
-2.04494
11
3.12394
21
-2.04458
0
LINE
8
BLACK
6
CONTINUOUS
10
3.12394
20
-2.04458
11
3.12397
21
-2.04443
0
LINE
8
BLACK
6
CONTINUOUS
10
3.12397
20
-2.04443
11
3.12391
21
-2.04429
0
LINE
8
BLACK
6
CONTINUOUS
10
3.12391
20
-2.04429
11
3.12408
21
-2.04389
0
LINE
8
BLACK
6
CONTINUOUS
10
3.12408
20
-2.04389
11
3.12416
21
-2.04347
0
LINE
8
BLACK
6
CONTINUOUS
10
3.12416
20
-2.04347
11
3.12429
21
-2.04339
0
LINE
8
BLACK
6
CONTINUOUS
10
3.12429
20
-2.04339
11
3.12435
21
-2.04325
0
LINE
8
BLACK
6
CONTINUOUS
10
3.12435
20
-2.04325
11
3.12474
21
-2.04308
0
LINE
8
BLACK
6
CONTINUOUS
10
3.12474
20
-2.04308
11
3.1251
21
-2.04284
0
LINE
8
BLACK
6
CONTINUOUS
10
3.1251
20
-2.04284
11
3.12525
21
-2.04287
0
LINE
8
BLACK
6
CONTINUOUS
10
3.12525
20
-2.04287
11
3.12539
21
-2.04281
0
LINE
8
BLACK
6
CONTINUOUS
10
3.12539
20
-2.04281
11
3.13572
21
-2.04281
0
LINE
8
BLACK
6
CONTINUOUS
10
3.13572
20
-2.04281
11
3.13572
21
-2.04092
0
LINE
8
BLACK
6
CONTINUOUS
10
3.13572
20
-2.04092
11
3.13616
21
-2.03987
0
LINE
8
BLACK
6
CONTINUOUS
10
3.13616
20
-2.03987
11
3.1372
21
-2.03944
0
LINE
8
BLACK
6
CONTINUOUS
10
3.1372
20
-2.03944
11
3.13824
21
-2.03987
0
LINE
8
BLACK
6
CONTINUOUS
10
3.27177
20
-2.02643
11
3.27197
21
-2.02652
0
LINE
8
BLACK
6
CONTINUOUS
10
3.27197
20
-2.02652
11
3.27219
21
-2.0265
0
LINE
8
BLACK
6
CONTINUOUS
10
3.27219
20
-2.0265
11
3.27591
21
-2.02756
0
LINE
8
BLACK
6
CONTINUOUS
10
3.27591
20
-2.02756
11
3.2761
21
-2.02772
0
LINE
8
BLACK
6
CONTINUOUS
10
3.2761
20
-2.02772
11
3.27635
21
-2.02775
0
LINE
8
BLACK
6
CONTINUOUS
10
3.27635
20
-2.02775
11
3.27878
21
-2.02916
0
LINE
8
BLACK
6
CONTINUOUS
10
3.27878
20
-2.02916
11
3.27894
21
-2.02935
0
LINE
8
BLACK
6
CONTINUOUS
10
3.27894
20
-2.02935
11
3.27917
21
-2.02945
0
LINE
8
BLACK
6
CONTINUOUS
10
3.27917
20
-2.02945
11
3.28195
21
-2.03213
0
LINE
8
BLACK
6
CONTINUOUS
10
3.28195
20
-2.03213
11
3.28204
21
-2.03234
0
LINE
8
BLACK
6
CONTINUOUS
10
3.28204
20
-2.03234
11
3.28222
21
-2.03246
0
LINE
8
BLACK
6
CONTINUOUS
10
3.28222
20
-2.03246
11
3.28338
21
-2.03421
0
LINE
8
BLACK
6
CONTINUOUS
10
3.28338
20
-2.03421
11
3.28344
21
-2.03453
0
LINE
8
BLACK
6
CONTINUOUS
10
3.28344
20
-2.03453
11
3.28364
21
-2.03479
0
LINE
8
BLACK
6
CONTINUOUS
10
3.28364
20
-2.03479
11
3.28432
21
-2.03735
0
LINE
8
BLACK
6
CONTINUOUS
10
3.28432
20
-2.03735
11
3.28426
21
-2.0378
0
LINE
8
BLACK
6
CONTINUOUS
10
3.28426
20
-2.0378
11
3.28435
21
-2.03825
0
LINE
8
BLACK
6
CONTINUOUS
10
3.28435
20
-2.03825
11
3.28375
21
-2.04116
0
LINE
8
BLACK
6
CONTINUOUS
10
3.28375
20
-2.04116
11
3.28357
21
-2.04142
0
LINE
8
BLACK
6
CONTINUOUS
10
3.28357
20
-2.04142
11
3.28353
21
-2.04175
0
LINE
8
BLACK
6
CONTINUOUS
10
3.28353
20
-2.04175
11
3.28119
21
-2.0458
0
LINE
8
BLACK
6
CONTINUOUS
10
3.28119
20
-2.0458
11
3.27999
21
-2.04672
0
LINE
8
BLACK
6
CONTINUOUS
10
3.27999
20
-2.04672
11
3.27999
21
-2.04672
0
LINE
8
BLACK
6
CONTINUOUS
10
3.27999
20
-2.04672
11
3.27999
21
-2.04672
0
LINE
8
BLACK
6
CONTINUOUS
10
3.27999
20
-2.04672
11
3.2785
21
-2.04652
0
LINE
8
BLACK
6
CONTINUOUS
10
3.2785
20
-2.04652
11
3.26145
21
-2.03668
0
LINE
8
BLACK
6
CONTINUOUS
10
3.26145
20
-2.03668
11
3.26053
21
-2.03549
0
LINE
8
BLACK
6
CONTINUOUS
10
3.26053
20
-2.03549
11
3.26073
21
-2.03399
0
LINE
8
BLACK
6
CONTINUOUS
10
3.26073
20
-2.03399
11
3.26307
21
-2.02993
0
LINE
8
BLACK
6
CONTINUOUS
10
3.26307
20
-2.02993
11
3.26333
21
-2.02974
0
LINE
8
BLACK
6
CONTINUOUS
10
3.26333
20
-2.02974
11
3.26347
21
-2.02945
0
LINE
8
BLACK
6
CONTINUOUS
10
3.26347
20
-2.02945
11
3.26569
21
-2.02748
0
LINE
8
BLACK
6
CONTINUOUS
10
3.26569
20
-2.02748
11
3.26612
21
-2.02733
0
LINE
8
BLACK
6
CONTINUOUS
10
3.26612
20
-2.02733
11
3.26649
21
-2.02705
0
LINE
8
BLACK
6
CONTINUOUS
10
3.26649
20
-2.02705
11
3.26905
21
-2.02636
0
LINE
8
BLACK
6
CONTINUOUS
10
3.26905
20
-2.02636
11
3.26937
21
-2.02641
0
LINE
8
BLACK
6
CONTINUOUS
10
3.26937
20
-2.02641
11
3.26968
21
-2.0263
0
LINE
8
BLACK
6
CONTINUOUS
10
3.26968
20
-2.0263
11
3.27177
21
-2.02643
0
LINE
8
BLACK
6
CONTINUOUS
10
3.26795
20
-2.03073
11
3.26632
21
-2.03218
0
LINE
8
BLACK
6
CONTINUOUS
10
3.26632
20
-2.03218
11
3.26512
21
-2.03426
0
LINE
8
BLACK
6
CONTINUOUS
10
3.26512
20
-2.03426
11
3.27876
21
-2.04213
0
LINE
8
BLACK
6
CONTINUOUS
10
3.27876
20
-2.04213
11
3.27996
21
-2.04005
0
LINE
8
BLACK
6
CONTINUOUS
10
3.27996
20
-2.04005
11
3.2804
21
-2.03792
0
LINE
8
BLACK
6
CONTINUOUS
10
3.2804
20
-2.03792
11
3.27992
21
-2.03611
0
LINE
8
BLACK
6
CONTINUOUS
10
3.27992
20
-2.03611
11
3.27906
21
-2.03481
0
LINE
8
BLACK
6
CONTINUOUS
10
3.27906
20
-2.03481
11
3.27661
21
-2.03244
0
LINE
8
BLACK
6
CONTINUOUS
10
3.27661
20
-2.03244
11
3.27459
21
-2.03128
0
LINE
8
BLACK
6
CONTINUOUS
10
3.27459
20
-2.03128
11
3.27132
21
-2.03034
0
LINE
8
BLACK
6
CONTINUOUS
10
3.27132
20
-2.03034
11
3.26976
21
-2.03025
0
LINE
8
BLACK
6
CONTINUOUS
10
3.26976
20
-2.03025
11
3.26795
21
-2.03073
0
LINE
8
BLACK
6
CONTINUOUS
10
3.31551
20
-2.00793
11
3.33767
21
-2.02072
0
LINE
8
BLACK
6
CONTINUOUS
10
3.33767
20
-2.02072
11
3.33859
21
-2.02192
0
LINE
8
BLACK
6
CONTINUOUS
10
3.33859
20
-2.02192
11
3.33839
21
-2.02341
0
LINE
8
BLACK
6
CONTINUOUS
10
3.33839
20
-2.02341
11
3.33719
21
-2.02433
0
LINE
8
BLACK
6
CONTINUOUS
10
3.33719
20
-2.02433
11
3.3357
21
-2.02413
0
LINE
8
BLACK
6
CONTINUOUS
10
3.3357
20
-2.02413
11
3.31524
21
-2.01232
0
LINE
8
BLACK
6
CONTINUOUS
10
3.31524
20
-2.01232
11
3.30343
21
-2.03278
0
LINE
8
BLACK
6
CONTINUOUS
10
3.30343
20
-2.03278
11
3.30224
21
-2.0337
0
LINE
8
BLACK
6
CONTINUOUS
10
3.30224
20
-2.0337
11
3.30074
21
-2.0335
0
LINE
8
BLACK
6
CONTINUOUS
10
3.30074
20
-2.0335
11
3.29983
21
-2.0323
0
LINE
8
BLACK
6
CONTINUOUS
10
3.29983
20
-2.0323
11
3.30002
21
-2.03081
0
LINE
8
BLACK
6
CONTINUOUS
10
3.30002
20
-2.03081
11
3.31282
21
-2.00865
0
LINE
8
BLACK
6
CONTINUOUS
10
3.31282
20
-2.00865
11
3.31319
21
-2.00837
0
LINE
8
BLACK
6
CONTINUOUS
10
3.31319
20
-2.00837
11
3.31401
21
-2.00773
0
LINE
8
BLACK
6
CONTINUOUS
10
3.31401
20
-2.00773
11
3.31551
21
-2.00793
0
LINE
8
BLACK
6
CONTINUOUS
10
3.27761
20
-2.00719
11
3.2783
21
-2.00723
0
LINE
8
BLACK
6
CONTINUOUS
10
3.2783
20
-2.00723
11
3.27835
21
-2.00729
0
LINE
8
BLACK
6
CONTINUOUS
10
3.27835
20
-2.00729
11
3.27842
21
-2.0073
0
LINE
8
BLACK
6
CONTINUOUS
10
3.27842
20
-2.0073
11
3.27884
21
-2.00784
0
LINE
8
BLACK
6
CONTINUOUS
10
3.27884
20
-2.00784
11
3.2793
21
-2.00837
0
LINE
8
BLACK
6
CONTINUOUS
10
3.2793
20
-2.00837
11
3.28127
21
-2.01416
0
LINE
8
BLACK
6
CONTINUOUS
10
3.28127
20
-2.01416
11
3.28272
21
-2.0132
0
LINE
8
BLACK
6
CONTINUOUS
10
3.28272
20
-2.0132
11
3.28304
21
-2.01314
0
LINE
8
BLACK
6
CONTINUOUS
10
3.28304
20
-2.01314
11
3.28329
21
-2.01294
0
LINE
8
BLACK
6
CONTINUOUS
10
3.28329
20
-2.01294
11
3.28457
21
-2.0126
0
LINE
8
BLACK
6
CONTINUOUS
10
3.28457
20
-2.0126
11
3.28489
21
-2.01264
0
LINE
8
BLACK
6
CONTINUOUS
10
3.28489
20
-2.01264
11
3.2852
21
-2.01253
0
LINE
8
BLACK
6
CONTINUOUS
10
3.2852
20
-2.01253
11
3.28729
21
-2.01266
0
LINE
8
BLACK
6
CONTINUOUS
10
3.28729
20
-2.01266
11
3.2877
21
-2.01286
0
LINE
8
BLACK
6
CONTINUOUS
10
3.2877
20
-2.01286
11
3.28816
21
-2.01292
0
LINE
8
BLACK
6
CONTINUOUS
10
3.28816
20
-2.01292
11
3.29222
21
-2.01526
0
LINE
8
BLACK
6
CONTINUOUS
10
3.29222
20
-2.01526
11
3.2925
21
-2.01563
0
LINE
8
BLACK
6
CONTINUOUS
10
3.2925
20
-2.01563
11
3.29288
21
-2.01588
0
LINE
8
BLACK
6
CONTINUOUS
10
3.29288
20
-2.01588
11
3.29403
21
-2.01763
0
LINE
8
BLACK
6
CONTINUOUS
10
3.29403
20
-2.01763
11
3.29409
21
-2.01795
0
LINE
8
BLACK
6
CONTINUOUS
10
3.29409
20
-2.01795
11
3.29429
21
-2.01821
0
LINE
8
BLACK
6
CONTINUOUS
10
3.29429
20
-2.01821
11
3.29463
21
-2.01949
0
LINE
8
BLACK
6
CONTINUOUS
10
3.29463
20
-2.01949
11
3.29459
21
-2.01981
0
LINE
8
BLACK
6
CONTINUOUS
10
3.29459
20
-2.01981
11
3.2947
21
-2.02012
0
LINE
8
BLACK
6
CONTINUOUS
10
3.2947
20
-2.02012
11
3.29457
21
-2.02221
0
LINE
8
BLACK
6
CONTINUOUS
10
3.29457
20
-2.02221
11
3.29437
21
-2.02262
0
LINE
8
BLACK
6
CONTINUOUS
10
3.29437
20
-2.02262
11
3.29431
21
-2.02307
0
LINE
8
BLACK
6
CONTINUOUS
10
3.29431
20
-2.02307
11
3.2915
21
-2.02794
0
LINE
8
BLACK
6
CONTINUOUS
10
3.2915
20
-2.02794
11
3.29114
21
-2.02822
0
LINE
8
BLACK
6
CONTINUOUS
10
3.29114
20
-2.02822
11
3.29088
21
-2.0286
0
LINE
8
BLACK
6
CONTINUOUS
10
3.29088
20
-2.0286
11
3.28913
21
-2.02976
0
LINE
8
BLACK
6
CONTINUOUS
10
3.28913
20
-2.02976
11
3.28881
21
-2.02982
0
LINE
8
BLACK
6
CONTINUOUS
10
3.28881
20
-2.02982
11
3.28855
21
-2.03002
0
LINE
8
BLACK
6
CONTINUOUS
10
3.28855
20
-2.03002
11
3.28727
21
-2.03036
0
LINE
8
BLACK
6
CONTINUOUS
10
3.28727
20
-2.03036
11
3.28578
21
-2.03016
0
LINE
8
BLACK
6
CONTINUOUS
10
3.28578
20
-2.03016
11
3.28486
21
-2.02897
0
LINE
8
BLACK
6
CONTINUOUS
10
3.28486
20
-2.02897
11
3.28506
21
-2.02747
0
LINE
8
BLACK
6
CONTINUOUS
10
3.28506
20
-2.02747
11
3.28625
21
-2.02656
0
LINE
8
BLACK
6
CONTINUOUS
10
3.28625
20
-2.02656
11
3.28723
21
-2.0263
0
LINE
8
BLACK
6
CONTINUOUS
10
3.28723
20
-2.0263
11
3.28832
21
-2.02557
0
LINE
8
BLACK
6
CONTINUOUS
10
3.28832
20
-2.02557
11
3.29067
21
-2.02151
0
LINE
8
BLACK
6
CONTINUOUS
10
3.29067
20
-2.02151
11
3.29075
21
-2.0202
0
LINE
8
BLACK
6
CONTINUOUS
10
3.29075
20
-2.0202
11
3.29057
21
-2.01953
0
LINE
8
BLACK
6
CONTINUOUS
10
3.29057
20
-2.01953
11
3.28985
21
-2.01844
0
LINE
8
BLACK
6
CONTINUOUS
10
3.28985
20
-2.01844
11
3.28659
21
-2.01656
0
LINE
8
BLACK
6
CONTINUOUS
10
3.28659
20
-2.01656
11
3.28528
21
-2.01648
0
LINE
8
BLACK
6
CONTINUOUS
10
3.28528
20
-2.01648
11
3.28462
21
-2.01666
0
LINE
8
BLACK
6
CONTINUOUS
10
3.28462
20
-2.01666
11
3.28352
21
-2.01738
0
LINE
8
BLACK
6
CONTINUOUS
10
3.28352
20
-2.01738
11
3.28235
21
-2.01942
0
LINE
8
BLACK
6
CONTINUOUS
10
3.28235
20
-2.01942
11
3.2818
21
-2.01984
0
LINE
8
BLACK
6
CONTINUOUS
10
3.2818
20
-2.01984
11
3.28128
21
-2.0203
0
LINE
8
BLACK
6
CONTINUOUS
10
3.28128
20
-2.0203
11
3.28121
21
-2.02029
0
LINE
8
BLACK
6
CONTINUOUS
10
3.28121
20
-2.02029
11
3.28116
21
-2.02033
0
LINE
8
BLACK
6
CONTINUOUS
10
3.28116
20
-2.02033
11
3.28047
21
-2.02024
0
LINE
8
BLACK
6
CONTINUOUS
10
3.28047
20
-2.02024
11
3.27978
21
-2.0202
0
LINE
8
BLACK
6
CONTINUOUS
10
3.27978
20
-2.0202
11
3.27973
21
-2.02015
0
LINE
8
BLACK
6
CONTINUOUS
10
3.27973
20
-2.02015
11
3.27966
21
-2.02014
0
LINE
8
BLACK
6
CONTINUOUS
10
3.27966
20
-2.02014
11
3.27924
21
-2.01959
0
LINE
8
BLACK
6
CONTINUOUS
10
3.27924
20
-2.01959
11
3.27878
21
-2.01907
0
LINE
8
BLACK
6
CONTINUOUS
10
3.27878
20
-2.01907
11
3.27697
21
-2.01374
0
LINE
8
BLACK
6
CONTINUOUS
10
3.27697
20
-2.01374
11
3.27304
21
-2.02054
0
LINE
8
BLACK
6
CONTINUOUS
10
3.27304
20
-2.02054
11
3.27185
21
-2.02145
0
LINE
8
BLACK
6
CONTINUOUS
10
3.27185
20
-2.02145
11
3.27036
21
-2.02126
0
LINE
8
BLACK
6
CONTINUOUS
10
3.27036
20
-2.02126
11
3.26944
21
-2.02006
0
LINE
8
BLACK
6
CONTINUOUS
10
3.26944
20
-2.02006
11
3.26964
21
-2.01857
0
LINE
8
BLACK
6
CONTINUOUS
10
3.26964
20
-2.01857
11
3.27573
21
-2.00802
0
LINE
8
BLACK
6
CONTINUOUS
10
3.27573
20
-2.00802
11
3.27628
21
-2.00759
0
LINE
8
BLACK
6
CONTINUOUS
10
3.27628
20
-2.00759
11
3.2768
21
-2.00714
0
LINE
8
BLACK
6
CONTINUOUS
10
3.2768
20
-2.00714
11
3.27687
21
-2.00714
0
LINE
8
BLACK
6
CONTINUOUS
10
3.27687
20
-2.00714
11
3.27692
21
-2.0071
0
LINE
8
BLACK
6
CONTINUOUS
10
3.27692
20
-2.0071
11
3.27761
21
-2.00719
0
LINE
8
BLACK
6
CONTINUOUS
10
3.09518
20
-2.00928
11
3.09543
21
-2.00925
0
LINE
8
BLACK
6
CONTINUOUS
10
3.09543
20
-2.00925
11
3.09918
21
-2.01018
0
LINE
8
BLACK
6
CONTINUOUS
10
3.09918
20
-2.01018
11
3.09936
21
-2.01032
0
LINE
8
BLACK
6
CONTINUOUS
10
3.09936
20
-2.01032
11
3.09958
21
-2.01033
0
LINE
8
BLACK
6
CONTINUOUS
10
3.09958
20
-2.01033
11
3.10146
21
-2.01127
0
LINE
8
BLACK
6
CONTINUOUS
10
3.10146
20
-2.01127
11
3.10167
21
-2.01151
0
LINE
8
BLACK
6
CONTINUOUS
10
3.10167
20
-2.01151
11
3.10197
21
-2.01164
0
LINE
8
BLACK
6
CONTINUOUS
10
3.10197
20
-2.01164
11
3.10384
21
-2.01351
0
LINE
8
BLACK
6
CONTINUOUS
10
3.10384
20
-2.01351
11
3.10402
21
-2.01394
0
LINE
8
BLACK
6
CONTINUOUS
10
3.10402
20
-2.01394
11
3.10432
21
-2.01428
0
LINE
8
BLACK
6
CONTINUOUS
10
3.10432
20
-2.01428
11
3.10526
21
-2.01709
0
LINE
8
BLACK
6
CONTINUOUS
10
3.10526
20
-2.01709
11
3.10523
21
-2.01742
0
LINE
8
BLACK
6
CONTINUOUS
10
3.10523
20
-2.01742
11
3.10536
21
-2.01772
0
LINE
8
BLACK
6
CONTINUOUS
10
3.10536
20
-2.01772
11
3.10536
21
-2.0224
0
LINE
8
BLACK
6
CONTINUOUS
10
3.10536
20
-2.0224
11
3.10478
21
-2.0238
0
LINE
8
BLACK
6
CONTINUOUS
10
3.10478
20
-2.0238
11
3.10339
21
-2.02437
0
LINE
8
BLACK
6
CONTINUOUS
10
3.10339
20
-2.02437
11
3.08371
21
-2.02437
0
LINE
8
BLACK
6
CONTINUOUS
10
3.08371
20
-2.02437
11
3.08231
21
-2.0238
0
LINE
8
BLACK
6
CONTINUOUS
10
3.08231
20
-2.0238
11
3.08174
21
-2.0224
0
LINE
8
BLACK
6
CONTINUOUS
10
3.08174
20
-2.0224
11
3.08174
21
-2.0224
0
LINE
8
BLACK
6
CONTINUOUS
10
3.08174
20
-2.0224
11
3.08174
21
-2.01772
0
LINE
8
BLACK
6
CONTINUOUS
10
3.08174
20
-2.01772
11
3.08186
21
-2.01742
0
LINE
8
BLACK
6
CONTINUOUS
10
3.08186
20
-2.01742
11
3.08184
21
-2.01709
0
LINE
8
BLACK
6
CONTINUOUS
10
3.08184
20
-2.01709
11
3.08277
21
-2.01428
0
LINE
8
BLACK
6
CONTINUOUS
10
3.08277
20
-2.01428
11
3.08308
21
-2.01394
0
LINE
8
BLACK
6
CONTINUOUS
10
3.08308
20
-2.01394
11
3.08325
21
-2.01351
0
LINE
8
BLACK
6
CONTINUOUS
10
3.08325
20
-2.01351
11
3.08513
21
-2.01164
0
LINE
8
BLACK
6
CONTINUOUS
10
3.08513
20
-2.01164
11
3.08542
21
-2.01151
0
LINE
8
BLACK
6
CONTINUOUS
10
3.08542
20
-2.01151
11
3.08564
21
-2.01127
0
LINE
8
BLACK
6
CONTINUOUS
10
3.08564
20
-2.01127
11
3.08751
21
-2.01033
0
LINE
8
BLACK
6
CONTINUOUS
10
3.08751
20
-2.01033
11
3.08773
21
-2.01032
0
LINE
8
BLACK
6
CONTINUOUS
10
3.08773
20
-2.01032
11
3.08791
21
-2.01018
0
LINE
8
BLACK
6
CONTINUOUS
10
3.08791
20
-2.01018
11
3.09166
21
-2.00925
0
LINE
8
BLACK
6
CONTINUOUS
10
3.09166
20
-2.00925
11
3.09191
21
-2.00928
0
LINE
8
BLACK
6
CONTINUOUS
10
3.09191
20
-2.00928
11
3.09214
21
-2.00919
0
LINE
8
BLACK
6
CONTINUOUS
10
3.09214
20
-2.00919
11
3.09495
21
-2.00919
0
LINE
8
BLACK
6
CONTINUOUS
10
3.09495
20
-2.00919
11
3.09518
21
-2.00928
0
LINE
8
BLACK
6
CONTINUOUS
10
3.08908
20
-2.01395
11
3.08768
21
-2.01465
0
LINE
8
BLACK
6
CONTINUOUS
10
3.08768
20
-2.01465
11
3.08636
21
-2.01597
0
LINE
8
BLACK
6
CONTINUOUS
10
3.08636
20
-2.01597
11
3.08567
21
-2.01804
0
LINE
8
BLACK
6
CONTINUOUS
10
3.08567
20
-2.01804
11
3.08567
21
-2.02043
0
LINE
8
BLACK
6
CONTINUOUS
10
3.08567
20
-2.02043
11
3.10142
21
-2.02043
0
LINE
8
BLACK
6
CONTINUOUS
10
3.10142
20
-2.02043
11
3.10142
21
-2.01804
0
LINE
8
BLACK
6
CONTINUOUS
10
3.10142
20
-2.01804
11
3.10073
21
-2.01597
0
LINE
8
BLACK
6
CONTINUOUS
10
3.10073
20
-2.01597
11
3.09941
21
-2.01465
0
LINE
8
BLACK
6
CONTINUOUS
10
3.09941
20
-2.01465
11
3.09802
21
-2.01395
0
LINE
8
BLACK
6
CONTINUOUS
10
3.09802
20
-2.01395
11
3.09471
21
-2.01312
0
LINE
8
BLACK
6
CONTINUOUS
10
3.09471
20
-2.01312
11
3.09238
21
-2.01312
0
LINE
8
BLACK
6
CONTINUOUS
10
3.09238
20
-2.01312
11
3.08908
21
-2.01395
0
LINE
8
BLACK
6
CONTINUOUS
10
3.09822
20
-1.99008
11
3.0988
21
-1.99147
0
LINE
8
BLACK
6
CONTINUOUS
10
3.0988
20
-1.99147
11
3.0988
21
-1.99231
0
LINE
8
BLACK
6
CONTINUOUS
10
3.0988
20
-1.99231
11
3.10339
21
-1.99231
0
LINE
8
BLACK
6
CONTINUOUS
10
3.10339
20
-1.99231
11
3.10478
21
-1.99289
0
LINE
8
BLACK
6
CONTINUOUS
10
3.10478
20
-1.99289
11
3.10536
21
-1.99428
0
LINE
8
BLACK
6
CONTINUOUS
10
3.10536
20
-1.99428
11
3.10478
21
-1.99567
0
LINE
8
BLACK
6
CONTINUOUS
10
3.10478
20
-1.99567
11
3.10339
21
-1.99625
0
LINE
8
BLACK
6
CONTINUOUS
10
3.10339
20
-1.99625
11
3.0988
21
-1.99625
0
LINE
8
BLACK
6
CONTINUOUS
10
3.0988
20
-1.99625
11
3.0988
21
-2.00366
0
LINE
8
BLACK
6
CONTINUOUS
10
3.0988
20
-2.00366
11
3.09867
21
-2.00395
0
LINE
8
BLACK
6
CONTINUOUS
10
3.09867
20
-2.00395
11
3.0987
21
-2.00428
0
LINE
8
BLACK
6
CONTINUOUS
10
3.0987
20
-2.00428
11
3.0984
21
-2.00462
0
LINE
8
BLACK
6
CONTINUOUS
10
3.0984
20
-2.00462
11
3.09822
21
-2.00505
0
LINE
8
BLACK
6
CONTINUOUS
10
3.09822
20
-2.00505
11
3.09792
21
-2.00517
0
LINE
8
BLACK
6
CONTINUOUS
10
3.09792
20
-2.00517
11
3.09771
21
-2.00542
0
LINE
8
BLACK
6
CONTINUOUS
10
3.09771
20
-2.00542
11
3.09725
21
-2.00545
0
LINE
8
BLACK
6
CONTINUOUS
10
3.09725
20
-2.00545
11
3.09683
21
-2.00562
0
LINE
8
BLACK
6
CONTINUOUS
10
3.09683
20
-2.00562
11
3.09653
21
-2.0055
0
LINE
8
BLACK
6
CONTINUOUS
10
3.09653
20
-2.0055
11
3.09621
21
-2.00552
0
LINE
8
BLACK
6
CONTINUOUS
10
3.09621
20
-2.00552
11
3.08215
21
-2.00084
0
LINE
8
BLACK
6
CONTINUOUS
10
3.08215
20
-2.00084
11
3.08101
21
-1.99985
0
LINE
8
BLACK
6
CONTINUOUS
10
3.08101
20
-1.99985
11
3.0809
21
-1.99835
0
LINE
8
BLACK
6
CONTINUOUS
10
3.0809
20
-1.99835
11
3.08189
21
-1.99721
0
LINE
8
BLACK
6
CONTINUOUS
10
3.08189
20
-1.99721
11
3.08339
21
-1.9971
0
LINE
8
BLACK
6
CONTINUOUS
10
3.08339
20
-1.9971
11
3.09486
21
-2.00092
0
LINE
8
BLACK
6
CONTINUOUS
10
3.09486
20
-2.00092
11
3.09486
21
-1.99625
0
LINE
8
BLACK
6
CONTINUOUS
10
3.09486
20
-1.99625
11
3.09027
21
-1.99625
0
LINE
8
BLACK
6
CONTINUOUS
10
3.09027
20
-1.99625
11
3.08887
21
-1.99567
0
LINE
8
BLACK
6
CONTINUOUS
10
3.08887
20
-1.99567
11
3.0883
21
-1.99428
0
LINE
8
BLACK
6
CONTINUOUS
10
3.0883
20
-1.99428
11
3.08887
21
-1.99289
0
LINE
8
BLACK
6
CONTINUOUS
10
3.08887
20
-1.99289
11
3.09027
21
-1.99231
0
LINE
8
BLACK
6
CONTINUOUS
10
3.09027
20
-1.99231
11
3.09486
21
-1.99231
0
LINE
8
BLACK
6
CONTINUOUS
10
3.09486
20
-1.99231
11
3.09486
21
-1.99147
0
LINE
8
BLACK
6
CONTINUOUS
10
3.09486
20
-1.99147
11
3.09544
21
-1.99008
0
LINE
8
BLACK
6
CONTINUOUS
10
3.09544
20
-1.99008
11
3.09683
21
-1.9895
0
LINE
8
BLACK
6
CONTINUOUS
10
3.09683
20
-1.9895
11
3.09822
21
-1.99008
0
LINE
8
BLACK
6
CONTINUOUS
10
3.14312
20
-1.97302
11
3.1437
21
-1.97441
0
LINE
8
BLACK
6
CONTINUOUS
10
3.1437
20
-1.97441
11
3.14312
21
-1.9758
0
LINE
8
BLACK
6
CONTINUOUS
10
3.14312
20
-1.9758
11
3.14173
21
-1.97638
0
LINE
8
BLACK
6
CONTINUOUS
10
3.14173
20
-1.97638
11
3.11811
21
-1.97638
0
LINE
8
BLACK
6
CONTINUOUS
10
3.11811
20
-1.97638
11
3.11811
21
-2
0
LINE
8
BLACK
6
CONTINUOUS
10
3.11811
20
-2
11
3.11753
21
-2.00139
0
LINE
8
BLACK
6
CONTINUOUS
10
3.11753
20
-2.00139
11
3.11614
21
-2.00197
0
LINE
8
BLACK
6
CONTINUOUS
10
3.11614
20
-2.00197
11
3.11475
21
-2.00139
0
LINE
8
BLACK
6
CONTINUOUS
10
3.11475
20
-2.00139
11
3.11417
21
-2
0
LINE
8
BLACK
6
CONTINUOUS
10
3.11417
20
-2
11
3.11417
21
-1.97441
0
LINE
8
BLACK
6
CONTINUOUS
10
3.11417
20
-1.97441
11
3.11475
21
-1.97302
0
LINE
8
BLACK
6
CONTINUOUS
10
3.11475
20
-1.97302
11
3.11614
21
-1.97244
0
LINE
8
BLACK
6
CONTINUOUS
10
3.11614
20
-1.97244
11
3.14173
21
-1.97244
0
LINE
8
BLACK
6
CONTINUOUS
10
3.14173
20
-1.97244
11
3.14312
21
-1.97302
0
LINE
8
BLACK
6
CONTINUOUS
10
2.77687
20
-1.81818
11
2.77704
21
-1.81815
0
LINE
8
BLACK
6
CONTINUOUS
10
2.77704
20
-1.81815
11
2.77778
21
-1.81858
0
LINE
8
BLACK
6
CONTINUOUS
10
2.77778
20
-1.81858
11
2.77857
21
-1.81892
0
LINE
8
BLACK
6
CONTINUOUS
10
2.77857
20
-1.81892
11
2.77864
21
-1.81907
0
LINE
8
BLACK
6
CONTINUOUS
10
2.77864
20
-1.81907
11
2.77879
21
-1.81916
0
LINE
8
BLACK
6
CONTINUOUS
10
2.77879
20
-1.81916
11
2.77908
21
-1.81996
0
LINE
8
BLACK
6
CONTINUOUS
10
2.77908
20
-1.81996
11
2.77946
21
-1.82073
0
LINE
8
BLACK
6
CONTINUOUS
10
2.77946
20
-1.82073
11
2.77942
21
-1.8209
0
LINE
8
BLACK
6
CONTINUOUS
10
2.77942
20
-1.8209
11
2.77948
21
-1.82106
0
LINE
8
BLACK
6
CONTINUOUS
10
2.77948
20
-1.82106
11
2.77948
21
-1.85747
0
LINE
8
BLACK
6
CONTINUOUS
10
2.77948
20
-1.85747
11
2.78778
21
-1.85747
0
LINE
8
BLACK
6
CONTINUOUS
10
2.78778
20
-1.85747
11
2.78879
21
-1.85765
0
LINE
8
BLACK
6
CONTINUOUS
10
2.78879
20
-1.85765
11
2.79033
21
-1.85895
0
LINE
8
BLACK
6
CONTINUOUS
10
2.79033
20
-1.85895
11
2.79068
21
-1.86094
0
LINE
8
BLACK
6
CONTINUOUS
10
2.79068
20
-1.86094
11
2.78967
21
-1.86269
0
LINE
8
BLACK
6
CONTINUOUS
10
2.78967
20
-1.86269
11
2.78778
21
-1.86338
0
LINE
8
BLACK
6
CONTINUOUS
10
2.78778
20
-1.86338
11
2.76528
21
-1.86338
0
LINE
8
BLACK
6
CONTINUOUS
10
2.76528
20
-1.86338
11
2.76427
21
-1.8632
0
LINE
8
BLACK
6
CONTINUOUS
10
2.76427
20
-1.8632
11
2.76272
21
-1.8619
0
LINE
8
BLACK
6
CONTINUOUS
10
2.76272
20
-1.8619
11
2.76237
21
-1.85991
0
LINE
8
BLACK
6
CONTINUOUS
10
2.76237
20
-1.85991
11
2.76338
21
-1.85816
0
LINE
8
BLACK
6
CONTINUOUS
10
2.76338
20
-1.85816
11
2.76528
21
-1.85747
0
LINE
8
BLACK
6
CONTINUOUS
10
2.76528
20
-1.85747
11
2.77358
21
-1.85747
0
LINE
8
BLACK
6
CONTINUOUS
10
2.77358
20
-1.85747
11
2.77358
21
-1.83006
0
LINE
8
BLACK
6
CONTINUOUS
10
2.77358
20
-1.83006
11
2.77112
21
-1.83252
0
LINE
8
BLACK
6
CONTINUOUS
10
2.77112
20
-1.83252
11
2.77039
21
-1.83302
0
LINE
8
BLACK
6
CONTINUOUS
10
2.77039
20
-1.83302
11
2.77035
21
-1.83307
0
LINE
8
BLACK
6
CONTINUOUS
10
2.77035
20
-1.83307
11
2.7666
21
-1.83495
0
LINE
8
BLACK
6
CONTINUOUS
10
2.7666
20
-1.83495
11
2.76562
21
-1.83524
0
LINE
8
BLACK
6
CONTINUOUS
10
2.76562
20
-1.83524
11
2.76365
21
-1.83477
0
LINE
8
BLACK
6
CONTINUOUS
10
2.76365
20
-1.83477
11
2.76245
21
-1.83315
0
LINE
8
BLACK
6
CONTINUOUS
10
2.76245
20
-1.83315
11
2.76257
21
-1.83113
0
LINE
8
BLACK
6
CONTINUOUS
10
2.76257
20
-1.83113
11
2.76396
21
-1.82966
0
LINE
8
BLACK
6
CONTINUOUS
10
2.76396
20
-1.82966
11
2.76728
21
-1.828
0
LINE
8
BLACK
6
CONTINUOUS
10
2.76728
20
-1.828
11
2.77048
21
-1.8248
0
LINE
8
BLACK
6
CONTINUOUS
10
2.77048
20
-1.8248
11
2.77407
21
-1.81942
0
LINE
8
BLACK
6
CONTINUOUS
10
2.77407
20
-1.81942
11
2.77478
21
-1.81868
0
LINE
8
BLACK
6
CONTINUOUS
10
2.77478
20
-1.81868
11
2.77494
21
-1.81863
0
LINE
8
BLACK
6
CONTINUOUS
10
2.77494
20
-1.81863
11
2.77505
21
-1.8185
0
LINE
8
BLACK
6
CONTINUOUS
10
2.77505
20
-1.8185
11
2.7759
21
-1.81835
0
LINE
8
BLACK
6
CONTINUOUS
10
2.7759
20
-1.81835
11
2.77672
21
-1.81811
0
LINE
8
BLACK
6
CONTINUOUS
10
2.77672
20
-1.81811
11
2.77687
21
-1.81818
0
LINE
8
BLACK
6
CONTINUOUS
10
3.56869
20
-1.81828
11
3.56882
21
-1.81839
0
LINE
8
BLACK
6
CONTINUOUS
10
3.56882
20
-1.81839
11
3.569
21
-1.81841
0
LINE
8
BLACK
6
CONTINUOUS
10
3.569
20
-1.81841
11
3.57275
21
-1.82029
0
LINE
8
BLACK
6
CONTINUOUS
10
3.57275
20
-1.82029
11
3.57346
21
-1.82082
0
LINE
8
BLACK
6
CONTINUOUS
10
3.57346
20
-1.82082
11
3.57352
21
-1.82084
0
LINE
8
BLACK
6
CONTINUOUS
10
3.57352
20
-1.82084
11
3.57539
21
-1.82272
0
LINE
8
BLACK
6
CONTINUOUS
10
3.57539
20
-1.82272
11
3.5759
21
-1.82344
0
LINE
8
BLACK
6
CONTINUOUS
10
3.5759
20
-1.82344
11
3.57594
21
-1.82348
0
LINE
8
BLACK
6
CONTINUOUS
10
3.57594
20
-1.82348
11
3.57782
21
-1.82723
0
LINE
8
BLACK
6
CONTINUOUS
10
3.57782
20
-1.82723
11
3.57811
21
-1.82822
0
LINE
8
BLACK
6
CONTINUOUS
10
3.57811
20
-1.82822
11
3.57807
21
-1.82839
0
LINE
8
BLACK
6
CONTINUOUS
10
3.57807
20
-1.82839
11
3.57813
21
-1.82855
0
LINE
8
BLACK
6
CONTINUOUS
10
3.57813
20
-1.82855
11
3.57813
21
-1.8323
0
LINE
8
BLACK
6
CONTINUOUS
10
3.57813
20
-1.8323
11
3.57798
21
-1.83317
0
LINE
8
BLACK
6
CONTINUOUS
10
3.57798
20
-1.83317
11
3.57798
21
-1.83324
0
LINE
8
BLACK
6
CONTINUOUS
10
3.57798
20
-1.83324
11
3.5761
21
-1.83886
0
LINE
8
BLACK
6
CONTINUOUS
10
3.5761
20
-1.83886
11
3.57562
21
-1.83976
0
LINE
8
BLACK
6
CONTINUOUS
10
3.57562
20
-1.83976
11
3.57547
21
-1.83986
0
LINE
8
BLACK
6
CONTINUOUS
10
3.57547
20
-1.83986
11
3.57539
21
-1.84002
0
LINE
8
BLACK
6
CONTINUOUS
10
3.57539
20
-1.84002
11
3.55793
21
-1.85747
0
LINE
8
BLACK
6
CONTINUOUS
10
3.55793
20
-1.85747
11
3.57518
21
-1.85747
0
LINE
8
BLACK
6
CONTINUOUS
10
3.57518
20
-1.85747
11
3.57619
21
-1.85765
0
LINE
8
BLACK
6
CONTINUOUS
10
3.57619
20
-1.85765
11
3.57774
21
-1.85895
0
LINE
8
BLACK
6
CONTINUOUS
10
3.57774
20
-1.85895
11
3.57809
21
-1.86094
0
LINE
8
BLACK
6
CONTINUOUS
10
3.57809
20
-1.86094
11
3.57708
21
-1.86269
0
LINE
8
BLACK
6
CONTINUOUS
10
3.57708
20
-1.86269
11
3.57518
21
-1.86338
0
LINE
8
BLACK
6
CONTINUOUS
10
3.57518
20
-1.86338
11
3.55081
21
-1.86338
0
LINE
8
BLACK
6
CONTINUOUS
10
3.55081
20
-1.86338
11
3.55017
21
-1.86327
0
LINE
8
BLACK
6
CONTINUOUS
10
3.55017
20
-1.86327
11
3.55004
21
-1.86328
0
LINE
8
BLACK
6
CONTINUOUS
10
3.55004
20
-1.86328
11
3.54998
21
-1.86323
0
LINE
8
BLACK
6
CONTINUOUS
10
3.54998
20
-1.86323
11
3.5498
21
-1.8632
0
LINE
8
BLACK
6
CONTINUOUS
10
3.5498
20
-1.8632
11
3.54912
21
-1.86263
0
LINE
8
BLACK
6
CONTINUOUS
10
3.54912
20
-1.86263
11
3.54839
21
-1.86212
0
LINE
8
BLACK
6
CONTINUOUS
10
3.54839
20
-1.86212
11
3.54835
21
-1.86199
0
LINE
8
BLACK
6
CONTINUOUS
10
3.54835
20
-1.86199
11
3.54825
21
-1.8619
0
LINE
8
BLACK
6
CONTINUOUS
10
3.54825
20
-1.8619
11
3.54809
21
-1.86103
0
LINE
8
BLACK
6
CONTINUOUS
10
3.54809
20
-1.86103
11
3.54786
21
-1.86017
0
LINE
8
BLACK
6
CONTINUOUS
10
3.54786
20
-1.86017
11
3.54792
21
-1.86005
0
LINE
8
BLACK
6
CONTINUOUS
10
3.54792
20
-1.86005
11
3.5479
21
-1.85991
0
LINE
8
BLACK
6
CONTINUOUS
10
3.5479
20
-1.85991
11
3.54834
21
-1.85914
0
LINE
8
BLACK
6
CONTINUOUS
10
3.54834
20
-1.85914
11
3.54872
21
-1.85834
0
LINE
8
BLACK
6
CONTINUOUS
10
3.54872
20
-1.85834
11
3.57072
21
-1.83633
0
LINE
8
BLACK
6
CONTINUOUS
10
3.57072
20
-1.83633
11
3.57223
21
-1.83183
0
LINE
8
BLACK
6
CONTINUOUS
10
3.57223
20
-1.83183
11
3.57223
21
-1.82925
0
LINE
8
BLACK
6
CONTINUOUS
10
3.57223
20
-1.82925
11
3.57088
21
-1.82655
0
LINE
8
BLACK
6
CONTINUOUS
10
3.57088
20
-1.82655
11
3.56968
21
-1.82536
0
LINE
8
BLACK
6
CONTINUOUS
10
3.56968
20
-1.82536
11
3.56698
21
-1.82401
0
LINE
8
BLACK
6
CONTINUOUS
10
3.56698
20
-1.82401
11
3.559
21
-1.82401
0
LINE
8
BLACK
6
CONTINUOUS
10
3.559
20
-1.82401
11
3.5563
21
-1.82536
0
LINE
8
BLACK
6
CONTINUOUS
10
3.5563
20
-1.82536
11
3.55477
21
-1.82689
0
LINE
8
BLACK
6
CONTINUOUS
10
3.55477
20
-1.82689
11
3.55393
21
-1.82748
0
LINE
8
BLACK
6
CONTINUOUS
10
3.55393
20
-1.82748
11
3.55192
21
-1.82766
0
LINE
8
BLACK
6
CONTINUOUS
10
3.55192
20
-1.82766
11
3.55026
21
-1.8265
0
LINE
8
BLACK
6
CONTINUOUS
10
3.55026
20
-1.8265
11
3.54974
21
-1.82455
0
LINE
8
BLACK
6
CONTINUOUS
10
3.54974
20
-1.82455
11
3.55059
21
-1.82272
0
LINE
8
BLACK
6
CONTINUOUS
10
3.55059
20
-1.82272
11
3.55247
21
-1.82084
0
LINE
8
BLACK
6
CONTINUOUS
10
3.55247
20
-1.82084
11
3.55319
21
-1.82034
0
LINE
8
BLACK
6
CONTINUOUS
10
3.55319
20
-1.82034
11
3.55324
21
-1.82029
0
LINE
8
BLACK
6
CONTINUOUS
10
3.55324
20
-1.82029
11
3.55698
21
-1.81841
0
LINE
8
BLACK
6
CONTINUOUS
10
3.55698
20
-1.81841
11
3.55797
21
-1.81812
0
LINE
8
BLACK
6
CONTINUOUS
10
3.55797
20
-1.81812
11
3.55814
21
-1.81816
0
LINE
8
BLACK
6
CONTINUOUS
10
3.55814
20
-1.81816
11
3.55831
21
-1.8181
0
LINE
8
BLACK
6
CONTINUOUS
10
3.55831
20
-1.8181
11
3.56768
21
-1.8181
0
LINE
8
BLACK
6
CONTINUOUS
10
3.56768
20
-1.8181
11
3.56869
21
-1.81828
0
LINE
8
BLACK
6
CONTINUOUS
10
2.75067
20
-1.81916
11
2.75136
21
-1.82106
0
LINE
8
BLACK
6
CONTINUOUS
10
2.75136
20
-1.82106
11
2.75136
21
-1.86043
0
LINE
8
BLACK
6
CONTINUOUS
10
2.75136
20
-1.86043
11
2.75118
21
-1.86144
0
LINE
8
BLACK
6
CONTINUOUS
10
2.75118
20
-1.86144
11
2.74988
21
-1.86298
0
LINE
8
BLACK
6
CONTINUOUS
10
2.74988
20
-1.86298
11
2.74789
21
-1.86333
0
LINE
8
BLACK
6
CONTINUOUS
10
2.74789
20
-1.86333
11
2.74614
21
-1.86232
0
LINE
8
BLACK
6
CONTINUOUS
10
2.74614
20
-1.86232
11
2.74545
21
-1.86043
0
LINE
8
BLACK
6
CONTINUOUS
10
2.74545
20
-1.86043
11
2.74545
21
-1.84276
0
LINE
8
BLACK
6
CONTINUOUS
10
2.74545
20
-1.84276
11
2.72886
21
-1.84276
0
LINE
8
BLACK
6
CONTINUOUS
10
2.72886
20
-1.84276
11
2.72886
21
-1.86043
0
LINE
8
BLACK
6
CONTINUOUS
10
2.72886
20
-1.86043
11
2.72868
21
-1.86144
0
LINE
8
BLACK
6
CONTINUOUS
10
2.72868
20
-1.86144
11
2.72739
21
-1.86298
0
LINE
8
BLACK
6
CONTINUOUS
10
2.72739
20
-1.86298
11
2.7254
21
-1.86333
0
LINE
8
BLACK
6
CONTINUOUS
10
2.7254
20
-1.86333
11
2.72365
21
-1.86232
0
LINE
8
BLACK
6
CONTINUOUS
10
2.72365
20
-1.86232
11
2.72296
21
-1.86043
0
LINE
8
BLACK
6
CONTINUOUS
10
2.72296
20
-1.86043
11
2.72296
21
-1.82106
0
LINE
8
BLACK
6
CONTINUOUS
10
2.72296
20
-1.82106
11
2.72313
21
-1.82005
0
LINE
8
BLACK
6
CONTINUOUS
10
2.72313
20
-1.82005
11
2.72443
21
-1.8185
0
LINE
8
BLACK
6
CONTINUOUS
10
2.72443
20
-1.8185
11
2.72642
21
-1.81815
0
LINE
8
BLACK
6
CONTINUOUS
10
2.72642
20
-1.81815
11
2.72817
21
-1.81916
0
LINE
8
BLACK
6
CONTINUOUS
10
2.72817
20
-1.81916
11
2.72886
21
-1.82106
0
LINE
8
BLACK
6
CONTINUOUS
10
2.72886
20
-1.82106
11
2.72886
21
-1.83685
0
LINE
8
BLACK
6
CONTINUOUS
10
2.72886
20
-1.83685
11
2.74545
21
-1.83685
0
LINE
8
BLACK
6
CONTINUOUS
10
2.74545
20
-1.83685
11
2.74545
21
-1.82106
0
LINE
8
BLACK
6
CONTINUOUS
10
2.74545
20
-1.82106
11
2.74563
21
-1.82005
0
LINE
8
BLACK
6
CONTINUOUS
10
2.74563
20
-1.82005
11
2.74693
21
-1.8185
0
LINE
8
BLACK
6
CONTINUOUS
10
2.74693
20
-1.8185
11
2.74892
21
-1.81815
0
LINE
8
BLACK
6
CONTINUOUS
10
2.74892
20
-1.81815
11
2.75067
21
-1.81916
0
LINE
8
BLACK
6
CONTINUOUS
10
3.53807
20
-1.81916
11
3.53876
21
-1.82106
0
LINE
8
BLACK
6
CONTINUOUS
10
3.53876
20
-1.82106
11
3.53876
21
-1.86043
0
LINE
8
BLACK
6
CONTINUOUS
10
3.53876
20
-1.86043
11
3.53858
21
-1.86144
0
LINE
8
BLACK
6
CONTINUOUS
10
3.53858
20
-1.86144
11
3.53728
21
-1.86298
0
LINE
8
BLACK
6
CONTINUOUS
10
3.53728
20
-1.86298
11
3.5353
21
-1.86333
0
LINE
8
BLACK
6
CONTINUOUS
10
3.5353
20
-1.86333
11
3.53355
21
-1.86232
0
LINE
8
BLACK
6
CONTINUOUS
10
3.53355
20
-1.86232
11
3.53286
21
-1.86043
0
LINE
8
BLACK
6
CONTINUOUS
10
3.53286
20
-1.86043
11
3.53286
21
-1.84276
0
LINE
8
BLACK
6
CONTINUOUS
10
3.53286
20
-1.84276
11
3.51626
21
-1.84276
0
LINE
8
BLACK
6
CONTINUOUS
10
3.51626
20
-1.84276
11
3.51626
21
-1.86043
0
LINE
8
BLACK
6
CONTINUOUS
10
3.51626
20
-1.86043
11
3.51609
21
-1.86144
0
LINE
8
BLACK
6
CONTINUOUS
10
3.51609
20
-1.86144
11
3.51479
21
-1.86298
0
LINE
8
BLACK
6
CONTINUOUS
10
3.51479
20
-1.86298
11
3.5128
21
-1.86333
0
LINE
8
BLACK
6
CONTINUOUS
10
3.5128
20
-1.86333
11
3.51105
21
-1.86232
0
LINE
8
BLACK
6
CONTINUOUS
10
3.51105
20
-1.86232
11
3.51036
21
-1.86043
0
LINE
8
BLACK
6
CONTINUOUS
10
3.51036
20
-1.86043
11
3.51036
21
-1.82106
0
LINE
8
BLACK
6
CONTINUOUS
10
3.51036
20
-1.82106
11
3.51054
21
-1.82005
0
LINE
8
BLACK
6
CONTINUOUS
10
3.51054
20
-1.82005
11
3.51183
21
-1.8185
0
LINE
8
BLACK
6
CONTINUOUS
10
3.51183
20
-1.8185
11
3.51382
21
-1.81815
0
LINE
8
BLACK
6
CONTINUOUS
10
3.51382
20
-1.81815
11
3.51557
21
-1.81916
0
LINE
8
BLACK
6
CONTINUOUS
10
3.51557
20
-1.81916
11
3.51626
21
-1.82106
0
LINE
8
BLACK
6
CONTINUOUS
10
3.51626
20
-1.82106
11
3.51626
21
-1.83685
0
LINE
8
BLACK
6
CONTINUOUS
10
3.51626
20
-1.83685
11
3.53286
21
-1.83685
0
LINE
8
BLACK
6
CONTINUOUS
10
3.53286
20
-1.83685
11
3.53286
21
-1.82106
0
LINE
8
BLACK
6
CONTINUOUS
10
3.53286
20
-1.82106
11
3.53303
21
-1.82005
0
LINE
8
BLACK
6
CONTINUOUS
10
3.53303
20
-1.82005
11
3.53433
21
-1.8185
0
LINE
8
BLACK
6
CONTINUOUS
10
3.53433
20
-1.8185
11
3.53632
21
-1.81815
0
LINE
8
BLACK
6
CONTINUOUS
10
3.53632
20
-1.81815
11
3.53807
21
-1.81916
0
CIRCLE
8
BLACK
10
3.54331
20
-1.9685
40
0.0433071
0
CIRCLE
8
BLACK
10
2.75591
20
-1.9685
40
0.0433071
0
CIRCLE
8
BLACK
10
2.75591
20
-2.75591
40
0.0433071
  0
ENDSEC
  0
EOF
