  0
SECTION
  2
HEADER
  9
$ANGBASE
  50
0.0
  9
$ANGDIR
  70
1
  9
$MEASUREMENT
  70
0
  0
ENDSEC
  0
SECTION
  2
TABLES
  0
TABLE
  2
LTYPE
  70
4
  0
LTYPE
  5
40F
  2
CONTINUOUS
  70
0
  3
Solid line
  72
65
  73
0
  40
0.0
  0
LTYPE
  5
410
  2
DASHDOT
 70
0
  3
Dash Dot ____ _ ____ _
 72
65
 73
4
 40
2.0
 49
1.25
 49
-0.25
 49
0.25
 49
-0.25
  0
LTYPE
  5
411
  2
DASHED
 70
0
  3
Dashed __ __ __ __ __
 72
65
 73
2
 40
0.75
 49
0.5
 49
-0.25
  0
LTYPE
  5
43B
  2
DOTTED
 70
0
  3
Dotted .  .  .  .
 72
65
 73
2
 40
0.2
 49
0.0
 49
-0.2
  0
ENDTAB
  0
TABLE
  2
STYLE
  70
4
  0
STYLE
  2
KICAD
  70
0
  40
0
  41
1
  42
1
  50
0
  71
0
  3
isocp.shx
  0
STYLE
  2
KICADB
  70
0
  40
0
  41
1
  42
1
  50
0
  71
0
  3
isocp.shx
  0
STYLE
  2
KICADI
  70
0
  40
0
  41
1
  42
1
  50
15
  71
0
  3
isocp.shx
  0
STYLE
  2
KICADBI
  70
0
  40
0
  41
1
  42
1
  50
15
  71
0
  3
isocp.shx
  0
ENDTAB
  0
TABLE
  2
LAYER
  70
1
  0
LAYER
  2
BLACK
  70
0
  62
7
  6
CONTINUOUS
  0
ENDTAB
  0
ENDSEC
  0
SECTION
  2
ENTITIES
0
LINE
8
BLACK
6
CONTINUOUS
10
3.57579
20
-2.53937
11
3.57579
21
-2.54017
0
LINE
8
BLACK
6
CONTINUOUS
10
3.57579
20
-2.54017
11
3.58012
21
-2.54238
0
LINE
8
BLACK
6
CONTINUOUS
10
3.58012
20
-2.54238
11
3.58361
21
-2.54586
0
LINE
8
BLACK
6
CONTINUOUS
10
3.58361
20
-2.54586
11
3.58465
21
-2.5479
0
LINE
8
BLACK
6
CONTINUOUS
10
3.58465
20
-2.5479
11
3.58568
21
-2.54586
0
LINE
8
BLACK
6
CONTINUOUS
10
3.58568
20
-2.54586
11
3.58917
21
-2.54238
0
LINE
8
BLACK
6
CONTINUOUS
10
3.58917
20
-2.54238
11
3.5935
21
-2.54017
0
LINE
8
BLACK
6
CONTINUOUS
10
3.5935
20
-2.54017
11
3.5935
21
-2.53937
0
LINE
8
BLACK
6
CONTINUOUS
10
3.5935
20
-2.53937
11
3.57579
21
-2.53937
0
LINE
8
BLACK
6
CONTINUOUS
10
3.58188
20
-2.42224
11
3.57967
21
-2.42658
0
LINE
8
BLACK
6
CONTINUOUS
10
3.57967
20
-2.42658
11
3.57619
21
-2.43006
0
LINE
8
BLACK
6
CONTINUOUS
10
3.57619
20
-2.43006
11
3.57579
21
-2.43027
0
LINE
8
BLACK
6
CONTINUOUS
10
3.57579
20
-2.43027
11
3.57579
21
-2.4311
0
LINE
8
BLACK
6
CONTINUOUS
10
3.57579
20
-2.4311
11
3.59121
21
-2.4311
0
LINE
8
BLACK
6
CONTINUOUS
10
3.59121
20
-2.4311
11
3.58917
21
-2.43006
0
LINE
8
BLACK
6
CONTINUOUS
10
3.58917
20
-2.43006
11
3.58568
21
-2.42658
0
LINE
8
BLACK
6
CONTINUOUS
10
3.58568
20
-2.42658
11
3.58348
21
-2.42224
0
LINE
8
BLACK
6
CONTINUOUS
10
3.58348
20
-2.42224
11
3.58188
21
-2.42224
0
LINE
8
BLACK
6
CONTINUOUS
10
3.70089
20
-1.88979
11
3.70258
21
-1.88994
0
LINE
8
BLACK
6
CONTINUOUS
10
3.70258
20
-1.88994
11
3.70755
21
-1.89043
0
LINE
8
BLACK
6
CONTINUOUS
10
3.70755
20
-1.89043
11
3.70833
21
-1.89057
0
LINE
8
BLACK
6
CONTINUOUS
10
3.70833
20
-1.89057
11
3.71092
21
-1.89127
0
LINE
8
BLACK
6
CONTINUOUS
10
3.71092
20
-1.89127
11
3.71099
21
-1.89129
0
LINE
8
BLACK
6
CONTINUOUS
10
3.71099
20
-1.89129
11
3.71463
21
-1.89239
0
LINE
8
BLACK
6
CONTINUOUS
10
3.71463
20
-1.89239
11
3.71527
21
-1.89264
0
LINE
8
BLACK
6
CONTINUOUS
10
3.71527
20
-1.89264
11
3.71793
21
-1.89387
0
LINE
8
BLACK
6
CONTINUOUS
10
3.71793
20
-1.89387
11
3.71805
21
-1.89393
0
LINE
8
BLACK
6
CONTINUOUS
10
3.71805
20
-1.89393
11
3.71953
21
-1.89472
0
LINE
8
BLACK
6
CONTINUOUS
10
3.71953
20
-1.89472
11
3.72135
21
-1.8957
0
LINE
8
BLACK
6
CONTINUOUS
10
3.72135
20
-1.8957
11
3.7216
21
-1.89585
0
LINE
8
BLACK
6
CONTINUOUS
10
3.7216
20
-1.89585
11
3.72421
21
-1.89768
0
LINE
8
BLACK
6
CONTINUOUS
10
3.72421
20
-1.89768
11
3.72435
21
-1.89779
0
LINE
8
BLACK
6
CONTINUOUS
10
3.72435
20
-1.89779
11
3.7272
21
-1.90012
0
LINE
8
BLACK
6
CONTINUOUS
10
3.7272
20
-1.90012
11
3.72737
21
-1.90028
0
LINE
8
BLACK
6
CONTINUOUS
10
3.72737
20
-1.90028
11
3.72964
21
-1.90255
0
LINE
8
BLACK
6
CONTINUOUS
10
3.72964
20
-1.90255
11
3.7298
21
-1.90272
0
LINE
8
BLACK
6
CONTINUOUS
10
3.7298
20
-1.90272
11
3.73213
21
-1.90557
0
LINE
8
BLACK
6
CONTINUOUS
10
3.73213
20
-1.90557
11
3.73224
21
-1.90572
0
LINE
8
BLACK
6
CONTINUOUS
10
3.73224
20
-1.90572
11
3.73407
21
-1.90832
0
LINE
8
BLACK
6
CONTINUOUS
10
3.73407
20
-1.90832
11
3.73422
21
-1.90857
0
LINE
8
BLACK
6
CONTINUOUS
10
3.73422
20
-1.90857
11
3.73599
21
-1.91187
0
LINE
8
BLACK
6
CONTINUOUS
10
3.73599
20
-1.91187
11
3.73605
21
-1.91199
0
LINE
8
BLACK
6
CONTINUOUS
10
3.73605
20
-1.91199
11
3.73729
21
-1.91465
0
LINE
8
BLACK
6
CONTINUOUS
10
3.73729
20
-1.91465
11
3.73753
21
-1.91529
0
LINE
8
BLACK
6
CONTINUOUS
10
3.73753
20
-1.91529
11
3.73863
21
-1.91892
0
LINE
8
BLACK
6
CONTINUOUS
10
3.73863
20
-1.91892
11
3.73866
21
-1.919
0
LINE
8
BLACK
6
CONTINUOUS
10
3.73866
20
-1.919
11
3.73935
21
-1.92159
0
LINE
8
BLACK
6
CONTINUOUS
10
3.73935
20
-1.92159
11
3.73949
21
-1.92237
0
LINE
8
BLACK
6
CONTINUOUS
10
3.73949
20
-1.92237
11
3.73998
21
-1.92734
0
LINE
8
BLACK
6
CONTINUOUS
10
3.73998
20
-1.92734
11
3.74013
21
-1.92903
0
LINE
8
BLACK
6
CONTINUOUS
10
3.74013
20
-1.92903
11
3.74014
21
-1.92924
0
LINE
8
BLACK
6
CONTINUOUS
10
3.74014
20
-1.92924
11
3.74014
21
-2.75597
0
LINE
8
BLACK
6
CONTINUOUS
10
3.74014
20
-2.75597
11
3.73936
21
-2.75861
0
LINE
8
BLACK
6
CONTINUOUS
10
3.73936
20
-2.75861
11
3.73728
21
-2.76041
0
LINE
8
BLACK
6
CONTINUOUS
10
3.73728
20
-2.76041
11
3.73456
21
-2.7608
0
LINE
8
BLACK
6
CONTINUOUS
10
3.73456
20
-2.7608
11
3.73233
21
-2.75988
0
LINE
8
BLACK
6
CONTINUOUS
10
3.73233
20
-2.75988
11
3.73
21
-2.75814
0
LINE
8
BLACK
6
CONTINUOUS
10
3.73
20
-2.75814
11
3.73
21
-2.75814
0
LINE
8
BLACK
6
CONTINUOUS
10
3.73
20
-2.75814
11
3.7247
21
-2.75616
0
LINE
8
BLACK
6
CONTINUOUS
10
3.7247
20
-2.75616
11
3.7247
21
-2.75616
0
LINE
8
BLACK
6
CONTINUOUS
10
3.7247
20
-2.75616
11
3.72236
21
-2.75591
0
LINE
8
BLACK
6
CONTINUOUS
10
3.72236
20
-2.75591
11
3.67618
21
-2.75591
0
LINE
8
BLACK
6
CONTINUOUS
10
3.67618
20
-2.75591
11
3.67618
21
-2.77559
0
LINE
8
BLACK
6
CONTINUOUS
10
3.67618
20
-2.77559
11
3.72047
21
-2.77559
0
LINE
8
BLACK
6
CONTINUOUS
10
3.72047
20
-2.77559
11
3.72047
21
-2.81496
0
LINE
8
BLACK
6
CONTINUOUS
10
3.72047
20
-2.81496
11
3.6122
21
-2.81496
0
LINE
8
BLACK
6
CONTINUOUS
10
3.6122
20
-2.81496
11
3.6122
21
-2.80512
0
LINE
8
BLACK
6
CONTINUOUS
10
3.6122
20
-2.80512
11
3.59252
21
-2.80512
0
LINE
8
BLACK
6
CONTINUOUS
10
3.59252
20
-2.80512
11
3.59252
21
-2.81684
0
LINE
8
BLACK
6
CONTINUOUS
10
3.59252
20
-2.81684
11
3.59277
21
-2.81919
0
LINE
8
BLACK
6
CONTINUOUS
10
3.59277
20
-2.81919
11
3.59277
21
-2.81919
0
LINE
8
BLACK
6
CONTINUOUS
10
3.59277
20
-2.81919
11
3.59475
21
-2.82449
0
LINE
8
BLACK
6
CONTINUOUS
10
3.59475
20
-2.82449
11
3.59475
21
-2.82449
0
LINE
8
BLACK
6
CONTINUOUS
10
3.59475
20
-2.82449
11
3.59649
21
-2.82682
0
LINE
8
BLACK
6
CONTINUOUS
10
3.59649
20
-2.82682
11
3.59745
21
-2.8294
0
LINE
8
BLACK
6
CONTINUOUS
10
3.59745
20
-2.8294
11
3.59687
21
-2.83208
0
LINE
8
BLACK
6
CONTINUOUS
10
3.59687
20
-2.83208
11
3.59492
21
-2.83403
0
LINE
8
BLACK
6
CONTINUOUS
10
3.59492
20
-2.83403
11
3.59258
21
-2.83463
0
LINE
8
BLACK
6
CONTINUOUS
10
3.59258
20
-2.83463
11
3.51232
21
-2.83463
0
LINE
8
BLACK
6
CONTINUOUS
10
3.51232
20
-2.83463
11
3.50968
21
-2.83385
0
LINE
8
BLACK
6
CONTINUOUS
10
3.50968
20
-2.83385
11
3.50788
21
-2.83177
0
LINE
8
BLACK
6
CONTINUOUS
10
3.50788
20
-2.83177
11
3.50749
21
-2.82905
0
LINE
8
BLACK
6
CONTINUOUS
10
3.50749
20
-2.82905
11
3.5083
21
-2.82697
0
LINE
8
BLACK
6
CONTINUOUS
10
3.5083
20
-2.82697
11
3.5091
21
-2.82581
0
LINE
8
BLACK
6
CONTINUOUS
10
3.5091
20
-2.82581
11
3.51103
21
-2.82301
0
LINE
8
BLACK
6
CONTINUOUS
10
3.51103
20
-2.82301
11
3.51324
21
-2.8172
0
LINE
8
BLACK
6
CONTINUOUS
10
3.51324
20
-2.8172
11
3.51399
21
-2.81102
0
LINE
8
BLACK
6
CONTINUOUS
10
3.51399
20
-2.81102
11
3.51338
21
-2.80606
0
LINE
8
BLACK
6
CONTINUOUS
10
3.51338
20
-2.80606
11
3.51324
21
-2.80485
0
LINE
8
BLACK
6
CONTINUOUS
10
3.51324
20
-2.80485
11
3.51103
21
-2.79903
0
LINE
8
BLACK
6
CONTINUOUS
10
3.51103
20
-2.79903
11
3.51103
21
-2.79903
0
LINE
8
BLACK
6
CONTINUOUS
10
3.51103
20
-2.79903
11
3.51035
21
-2.79805
0
LINE
8
BLACK
6
CONTINUOUS
10
3.51035
20
-2.79805
11
3.50949
21
-2.79544
0
LINE
8
BLACK
6
CONTINUOUS
10
3.50949
20
-2.79544
11
3.51018
21
-2.79277
0
LINE
8
BLACK
6
CONTINUOUS
10
3.51018
20
-2.79277
11
3.51035
21
-2.7925
0
LINE
8
BLACK
6
CONTINUOUS
10
3.51035
20
-2.7925
11
3.51103
21
-2.79152
0
LINE
8
BLACK
6
CONTINUOUS
10
3.51103
20
-2.79152
11
3.51324
21
-2.7857
0
LINE
8
BLACK
6
CONTINUOUS
10
3.51324
20
-2.7857
11
3.51327
21
-2.78543
0
LINE
8
BLACK
6
CONTINUOUS
10
3.51327
20
-2.78543
11
3.51399
21
-2.77953
0
LINE
8
BLACK
6
CONTINUOUS
10
3.51399
20
-2.77953
11
3.51324
21
-2.77335
0
LINE
8
BLACK
6
CONTINUOUS
10
3.51324
20
-2.77335
11
3.51103
21
-2.76754
0
LINE
8
BLACK
6
CONTINUOUS
10
3.51103
20
-2.76754
11
3.5075
21
-2.76242
0
LINE
8
BLACK
6
CONTINUOUS
10
3.5075
20
-2.76242
11
3.50284
21
-2.7583
0
LINE
8
BLACK
6
CONTINUOUS
10
3.50284
20
-2.7583
11
3.50284
21
-2.7583
0
LINE
8
BLACK
6
CONTINUOUS
10
3.50284
20
-2.7583
11
3.50284
21
-2.7583
0
LINE
8
BLACK
6
CONTINUOUS
10
3.50284
20
-2.7583
11
3.49734
21
-2.75541
0
LINE
8
BLACK
6
CONTINUOUS
10
3.49734
20
-2.75541
11
3.4913
21
-2.75392
0
LINE
8
BLACK
6
CONTINUOUS
10
3.4913
20
-2.75392
11
3.4913
21
-2.75392
0
LINE
8
BLACK
6
CONTINUOUS
10
3.4913
20
-2.75392
11
3.48508
21
-2.75392
0
LINE
8
BLACK
6
CONTINUOUS
10
3.48508
20
-2.75392
11
3.48508
21
-2.75392
0
LINE
8
BLACK
6
CONTINUOUS
10
3.48508
20
-2.75392
11
3.47904
21
-2.75541
0
LINE
8
BLACK
6
CONTINUOUS
10
3.47904
20
-2.75541
11
3.47353
21
-2.7583
0
LINE
8
BLACK
6
CONTINUOUS
10
3.47353
20
-2.7583
11
3.46888
21
-2.76242
0
LINE
8
BLACK
6
CONTINUOUS
10
3.46888
20
-2.76242
11
3.46878
21
-2.76256
0
LINE
8
BLACK
6
CONTINUOUS
10
3.46878
20
-2.76256
11
3.46873
21
-2.76264
0
LINE
8
BLACK
6
CONTINUOUS
10
3.46873
20
-2.76264
11
3.46659
21
-2.76437
0
LINE
8
BLACK
6
CONTINUOUS
10
3.46659
20
-2.76437
11
3.46471
21
-2.76474
0
LINE
8
BLACK
6
CONTINUOUS
10
3.46471
20
-2.76474
11
3.37387
21
-2.76474
0
LINE
8
BLACK
6
CONTINUOUS
10
3.37387
20
-2.76474
11
3.37123
21
-2.76397
0
LINE
8
BLACK
6
CONTINUOUS
10
3.37123
20
-2.76397
11
3.36985
21
-2.76264
0
LINE
8
BLACK
6
CONTINUOUS
10
3.36985
20
-2.76264
11
3.3697
21
-2.76242
0
LINE
8
BLACK
6
CONTINUOUS
10
3.3697
20
-2.76242
11
3.36505
21
-2.7583
0
LINE
8
BLACK
6
CONTINUOUS
10
3.36505
20
-2.7583
11
3.36505
21
-2.7583
0
LINE
8
BLACK
6
CONTINUOUS
10
3.36505
20
-2.7583
11
3.36505
21
-2.7583
0
LINE
8
BLACK
6
CONTINUOUS
10
3.36505
20
-2.7583
11
3.35954
21
-2.75541
0
LINE
8
BLACK
6
CONTINUOUS
10
3.35954
20
-2.75541
11
3.3535
21
-2.75392
0
LINE
8
BLACK
6
CONTINUOUS
10
3.3535
20
-2.75392
11
3.3535
21
-2.75392
0
LINE
8
BLACK
6
CONTINUOUS
10
3.3535
20
-2.75392
11
3.34728
21
-2.75392
0
LINE
8
BLACK
6
CONTINUOUS
10
3.34728
20
-2.75392
11
3.34728
21
-2.75392
0
LINE
8
BLACK
6
CONTINUOUS
10
3.34728
20
-2.75392
11
3.34125
21
-2.75541
0
LINE
8
BLACK
6
CONTINUOUS
10
3.34125
20
-2.75541
11
3.33574
21
-2.7583
0
LINE
8
BLACK
6
CONTINUOUS
10
3.33574
20
-2.7583
11
3.33108
21
-2.76242
0
LINE
8
BLACK
6
CONTINUOUS
10
3.33108
20
-2.76242
11
3.32755
21
-2.76754
0
LINE
8
BLACK
6
CONTINUOUS
10
3.32755
20
-2.76754
11
3.32755
21
-2.76754
0
LINE
8
BLACK
6
CONTINUOUS
10
3.32755
20
-2.76754
11
3.32534
21
-2.77335
0
LINE
8
BLACK
6
CONTINUOUS
10
3.32534
20
-2.77335
11
3.3246
21
-2.77953
0
LINE
8
BLACK
6
CONTINUOUS
10
3.3246
20
-2.77953
11
3.3246
21
-2.77953
0
LINE
8
BLACK
6
CONTINUOUS
10
3.3246
20
-2.77953
11
3.32534
21
-2.7857
0
LINE
8
BLACK
6
CONTINUOUS
10
3.32534
20
-2.7857
11
3.32755
21
-2.79152
0
LINE
8
BLACK
6
CONTINUOUS
10
3.32755
20
-2.79152
11
3.32755
21
-2.79152
0
LINE
8
BLACK
6
CONTINUOUS
10
3.32755
20
-2.79152
11
3.32823
21
-2.7925
0
LINE
8
BLACK
6
CONTINUOUS
10
3.32823
20
-2.7925
11
3.32909
21
-2.79511
0
LINE
8
BLACK
6
CONTINUOUS
10
3.32909
20
-2.79511
11
3.3284
21
-2.79778
0
LINE
8
BLACK
6
CONTINUOUS
10
3.3284
20
-2.79778
11
3.32823
21
-2.79805
0
LINE
8
BLACK
6
CONTINUOUS
10
3.32823
20
-2.79805
11
3.32755
21
-2.79903
0
LINE
8
BLACK
6
CONTINUOUS
10
3.32755
20
-2.79903
11
3.32755
21
-2.79903
0
LINE
8
BLACK
6
CONTINUOUS
10
3.32755
20
-2.79903
11
3.32534
21
-2.80485
0
LINE
8
BLACK
6
CONTINUOUS
10
3.32534
20
-2.80485
11
3.3246
21
-2.81102
0
LINE
8
BLACK
6
CONTINUOUS
10
3.3246
20
-2.81102
11
3.3246
21
-2.81102
0
LINE
8
BLACK
6
CONTINUOUS
10
3.3246
20
-2.81102
11
3.32534
21
-2.8172
0
LINE
8
BLACK
6
CONTINUOUS
10
3.32534
20
-2.8172
11
3.32755
21
-2.82301
0
LINE
8
BLACK
6
CONTINUOUS
10
3.32755
20
-2.82301
11
3.32755
21
-2.82301
0
LINE
8
BLACK
6
CONTINUOUS
10
3.32755
20
-2.82301
11
3.33028
21
-2.82697
0
LINE
8
BLACK
6
CONTINUOUS
10
3.33028
20
-2.82697
11
3.33114
21
-2.82958
0
LINE
8
BLACK
6
CONTINUOUS
10
3.33114
20
-2.82958
11
3.33046
21
-2.83225
0
LINE
8
BLACK
6
CONTINUOUS
10
3.33046
20
-2.83225
11
3.32844
21
-2.83412
0
LINE
8
BLACK
6
CONTINUOUS
10
3.32844
20
-2.83412
11
3.32626
21
-2.83463
0
LINE
8
BLACK
6
CONTINUOUS
10
3.32626
20
-2.83463
11
2.71664
21
-2.83463
0
LINE
8
BLACK
6
CONTINUOUS
10
2.71664
20
-2.83463
11
2.71643
21
-2.83462
0
LINE
8
BLACK
6
CONTINUOUS
10
2.71643
20
-2.83462
11
2.71623
21
-2.8346
0
LINE
8
BLACK
6
CONTINUOUS
10
2.71623
20
-2.8346
11
2.71475
21
-2.83447
0
LINE
8
BLACK
6
CONTINUOUS
10
2.71475
20
-2.83447
11
2.70977
21
-2.83398
0
LINE
8
BLACK
6
CONTINUOUS
10
2.70977
20
-2.83398
11
2.70899
21
-2.83384
0
LINE
8
BLACK
6
CONTINUOUS
10
2.70899
20
-2.83384
11
2.7064
21
-2.83314
0
LINE
8
BLACK
6
CONTINUOUS
10
2.7064
20
-2.83314
11
2.70633
21
-2.83312
0
LINE
8
BLACK
6
CONTINUOUS
10
2.70633
20
-2.83312
11
2.70485
21
-2.83267
0
LINE
8
BLACK
6
CONTINUOUS
10
2.70485
20
-2.83267
11
2.70269
21
-2.83202
0
LINE
8
BLACK
6
CONTINUOUS
10
2.70269
20
-2.83202
11
2.70205
21
-2.83177
0
LINE
8
BLACK
6
CONTINUOUS
10
2.70205
20
-2.83177
11
2.69939
21
-2.83054
0
LINE
8
BLACK
6
CONTINUOUS
10
2.69939
20
-2.83054
11
2.69928
21
-2.83048
0
LINE
8
BLACK
6
CONTINUOUS
10
2.69928
20
-2.83048
11
2.69597
21
-2.82871
0
LINE
8
BLACK
6
CONTINUOUS
10
2.69597
20
-2.82871
11
2.69572
21
-2.82856
0
LINE
8
BLACK
6
CONTINUOUS
10
2.69572
20
-2.82856
11
2.69312
21
-2.82673
0
LINE
8
BLACK
6
CONTINUOUS
10
2.69312
20
-2.82673
11
2.69297
21
-2.82662
0
LINE
8
BLACK
6
CONTINUOUS
10
2.69297
20
-2.82662
11
2.69013
21
-2.82429
0
LINE
8
BLACK
6
CONTINUOUS
10
2.69013
20
-2.82429
11
2.68995
21
-2.82413
0
LINE
8
BLACK
6
CONTINUOUS
10
2.68995
20
-2.82413
11
2.68768
21
-2.82186
0
LINE
8
BLACK
6
CONTINUOUS
10
2.68768
20
-2.82186
11
2.68752
21
-2.82169
0
LINE
8
BLACK
6
CONTINUOUS
10
2.68752
20
-2.82169
11
2.68519
21
-2.81884
0
LINE
8
BLACK
6
CONTINUOUS
10
2.68519
20
-2.81884
11
2.68508
21
-2.81869
0
LINE
8
BLACK
6
CONTINUOUS
10
2.68508
20
-2.81869
11
2.68325
21
-2.81609
0
LINE
8
BLACK
6
CONTINUOUS
10
2.68325
20
-2.81609
11
2.6831
21
-2.81584
0
LINE
8
BLACK
6
CONTINUOUS
10
2.6831
20
-2.81584
11
2.68213
21
-2.81401
0
LINE
8
BLACK
6
CONTINUOUS
10
2.68213
20
-2.81401
11
2.68133
21
-2.81253
0
LINE
8
BLACK
6
CONTINUOUS
10
2.68133
20
-2.81253
11
2.68128
21
-2.81242
0
LINE
8
BLACK
6
CONTINUOUS
10
2.68128
20
-2.81242
11
2.68004
21
-2.80976
0
LINE
8
BLACK
6
CONTINUOUS
10
2.68004
20
-2.80976
11
2.67979
21
-2.80912
0
LINE
8
BLACK
6
CONTINUOUS
10
2.67979
20
-2.80912
11
2.67869
21
-2.80548
0
LINE
8
BLACK
6
CONTINUOUS
10
2.67869
20
-2.80548
11
2.67867
21
-2.80541
0
LINE
8
BLACK
6
CONTINUOUS
10
2.67867
20
-2.80541
11
2.67797
21
-2.80282
0
LINE
8
BLACK
6
CONTINUOUS
10
2.67797
20
-2.80282
11
2.67783
21
-2.80204
0
LINE
8
BLACK
6
CONTINUOUS
10
2.67783
20
-2.80204
11
2.67734
21
-2.79707
0
LINE
8
BLACK
6
CONTINUOUS
10
2.67734
20
-2.79707
11
2.67721
21
-2.79555
0
LINE
8
BLACK
6
CONTINUOUS
10
2.67721
20
-2.79555
11
2.67719
21
-2.79538
0
LINE
8
BLACK
6
CONTINUOUS
10
2.67719
20
-2.79538
11
2.67719
21
-2.79517
0
LINE
8
BLACK
6
CONTINUOUS
10
2.67719
20
-2.79517
11
2.67719
21
-2.75591
0
LINE
8
BLACK
6
CONTINUOUS
10
2.67719
20
-2.75591
11
2.67719
21
-2.69229
0
LINE
8
BLACK
6
CONTINUOUS
10
2.67719
20
-2.69229
11
2.67719
21
-2.36221
0
LINE
8
BLACK
6
CONTINUOUS
10
2.67719
20
-2.36221
11
2.67719
21
-1.9685
0
LINE
8
BLACK
6
CONTINUOUS
10
2.67719
20
-1.9685
11
2.67719
21
-1.92924
0
LINE
8
BLACK
6
CONTINUOUS
10
2.67719
20
-1.92924
11
2.67719
21
-1.92903
0
LINE
8
BLACK
6
CONTINUOUS
10
2.67719
20
-1.92903
11
2.67734
21
-1.92735
0
LINE
8
BLACK
6
CONTINUOUS
10
2.67734
20
-1.92735
11
2.67739
21
-1.92684
0
LINE
8
BLACK
6
CONTINUOUS
10
2.67739
20
-1.92684
11
2.67783
21
-1.92237
0
LINE
8
BLACK
6
CONTINUOUS
10
2.67783
20
-1.92237
11
2.67797
21
-1.92159
0
LINE
8
BLACK
6
CONTINUOUS
10
2.67797
20
-1.92159
11
2.67867
21
-1.919
0
LINE
8
BLACK
6
CONTINUOUS
10
2.67867
20
-1.919
11
2.67869
21
-1.91893
0
LINE
8
BLACK
6
CONTINUOUS
10
2.67869
20
-1.91893
11
2.67979
21
-1.91529
0
LINE
8
BLACK
6
CONTINUOUS
10
2.67979
20
-1.91529
11
2.68004
21
-1.91465
0
LINE
8
BLACK
6
CONTINUOUS
10
2.68004
20
-1.91465
11
2.68128
21
-1.91199
0
LINE
8
BLACK
6
CONTINUOUS
10
2.68128
20
-1.91199
11
2.68133
21
-1.91188
0
LINE
8
BLACK
6
CONTINUOUS
10
2.68133
20
-1.91188
11
2.6831
21
-1.90857
0
LINE
8
BLACK
6
CONTINUOUS
10
2.6831
20
-1.90857
11
2.68325
21
-1.90832
0
LINE
8
BLACK
6
CONTINUOUS
10
2.68325
20
-1.90832
11
2.68456
21
-1.90645
0
LINE
8
BLACK
6
CONTINUOUS
10
2.68456
20
-1.90645
11
2.68508
21
-1.90571
0
LINE
8
BLACK
6
CONTINUOUS
10
2.68508
20
-1.90571
11
2.68519
21
-1.90557
0
LINE
8
BLACK
6
CONTINUOUS
10
2.68519
20
-1.90557
11
2.68752
21
-1.90272
0
LINE
8
BLACK
6
CONTINUOUS
10
2.68752
20
-1.90272
11
2.68768
21
-1.90255
0
LINE
8
BLACK
6
CONTINUOUS
10
2.68768
20
-1.90255
11
2.68995
21
-1.90028
0
LINE
8
BLACK
6
CONTINUOUS
10
2.68995
20
-1.90028
11
2.69012
21
-1.90012
0
LINE
8
BLACK
6
CONTINUOUS
10
2.69012
20
-1.90012
11
2.69297
21
-1.89779
0
LINE
8
BLACK
6
CONTINUOUS
10
2.69297
20
-1.89779
11
2.69312
21
-1.89768
0
LINE
8
BLACK
6
CONTINUOUS
10
2.69312
20
-1.89768
11
2.69572
21
-1.89585
0
LINE
8
BLACK
6
CONTINUOUS
10
2.69572
20
-1.89585
11
2.69597
21
-1.8957
0
LINE
8
BLACK
6
CONTINUOUS
10
2.69597
20
-1.8957
11
2.69928
21
-1.89393
0
LINE
8
BLACK
6
CONTINUOUS
10
2.69928
20
-1.89393
11
2.69939
21
-1.89387
0
LINE
8
BLACK
6
CONTINUOUS
10
2.69939
20
-1.89387
11
2.70205
21
-1.89264
0
LINE
8
BLACK
6
CONTINUOUS
10
2.70205
20
-1.89264
11
2.70269
21
-1.89239
0
LINE
8
BLACK
6
CONTINUOUS
10
2.70269
20
-1.89239
11
2.70633
21
-1.89129
0
LINE
8
BLACK
6
CONTINUOUS
10
2.70633
20
-1.89129
11
2.7064
21
-1.89127
0
LINE
8
BLACK
6
CONTINUOUS
10
2.7064
20
-1.89127
11
2.70899
21
-1.89057
0
LINE
8
BLACK
6
CONTINUOUS
10
2.70899
20
-1.89057
11
2.70977
21
-1.89043
0
LINE
8
BLACK
6
CONTINUOUS
10
2.70977
20
-1.89043
11
2.71424
21
-1.88999
0
LINE
8
BLACK
6
CONTINUOUS
10
2.71424
20
-1.88999
11
2.71475
21
-1.88994
0
LINE
8
BLACK
6
CONTINUOUS
10
2.71475
20
-1.88994
11
2.71643
21
-1.88979
0
LINE
8
BLACK
6
CONTINUOUS
10
2.71643
20
-1.88979
11
2.71664
21
-1.88978
0
LINE
8
BLACK
6
CONTINUOUS
10
2.71664
20
-1.88978
11
3.70068
21
-1.88978
0
LINE
8
BLACK
6
CONTINUOUS
10
3.70068
20
-1.88978
11
3.70089
21
-1.88979
0
LINE
8
BLACK
6
CONTINUOUS
10
3.52362
20
-2.53937
11
3.48425
21
-2.53937
0
LINE
8
BLACK
6
CONTINUOUS
10
3.48425
20
-2.53937
11
3.48425
21
-2.51188
0
LINE
8
BLACK
6
CONTINUOUS
10
3.48425
20
-2.51188
11
3.47297
21
-2.52316
0
LINE
8
BLACK
6
CONTINUOUS
10
3.47297
20
-2.52316
11
3.47226
21
-2.52369
0
LINE
8
BLACK
6
CONTINUOUS
10
3.47226
20
-2.52369
11
3.47215
21
-2.52383
0
LINE
8
BLACK
6
CONTINUOUS
10
3.47215
20
-2.52383
11
3.47205
21
-2.52386
0
LINE
8
BLACK
6
CONTINUOUS
10
3.47205
20
-2.52386
11
3.47185
21
-2.524
0
LINE
8
BLACK
6
CONTINUOUS
10
3.47185
20
-2.524
11
3.47066
21
-2.52426
0
LINE
8
BLACK
6
CONTINUOUS
10
3.47066
20
-2.52426
11
3.46949
21
-2.52461
0
LINE
8
BLACK
6
CONTINUOUS
10
3.46949
20
-2.52461
11
3.43307
21
-2.52461
0
LINE
8
BLACK
6
CONTINUOUS
10
3.43307
20
-2.52461
11
3.4322
21
-2.52448
0
LINE
8
BLACK
6
CONTINUOUS
10
3.4322
20
-2.52448
11
3.43202
21
-2.52449
0
LINE
8
BLACK
6
CONTINUOUS
10
3.43202
20
-2.52449
11
3.43193
21
-2.52444
0
LINE
8
BLACK
6
CONTINUOUS
10
3.43193
20
-2.52444
11
3.43168
21
-2.52441
0
LINE
8
BLACK
6
CONTINUOUS
10
3.43168
20
-2.52441
11
3.43066
21
-2.52375
0
LINE
8
BLACK
6
CONTINUOUS
10
3.43066
20
-2.52375
11
3.42959
21
-2.52316
0
LINE
8
BLACK
6
CONTINUOUS
10
3.42959
20
-2.52316
11
3.42428
21
-2.51785
0
LINE
8
BLACK
6
CONTINUOUS
10
3.42428
20
-2.51785
11
3.42224
21
-2.51889
0
LINE
8
BLACK
6
CONTINUOUS
10
3.42224
20
-2.51889
11
3.42224
21
-2.56299
0
LINE
8
BLACK
6
CONTINUOUS
10
3.42224
20
-2.56299
11
3.42212
21
-2.56386
0
LINE
8
BLACK
6
CONTINUOUS
10
3.42212
20
-2.56386
11
3.42213
21
-2.56404
0
LINE
8
BLACK
6
CONTINUOUS
10
3.42213
20
-2.56404
11
3.42208
21
-2.56413
0
LINE
8
BLACK
6
CONTINUOUS
10
3.42208
20
-2.56413
11
3.42204
21
-2.56438
0
LINE
8
BLACK
6
CONTINUOUS
10
3.42204
20
-2.56438
11
3.42139
21
-2.5654
0
LINE
8
BLACK
6
CONTINUOUS
10
3.42139
20
-2.5654
11
3.4208
21
-2.56647
0
LINE
8
BLACK
6
CONTINUOUS
10
3.4208
20
-2.56647
11
3.3435
21
-2.64377
0
LINE
8
BLACK
6
CONTINUOUS
10
3.3435
20
-2.64377
11
3.3435
21
-2.69087
0
LINE
8
BLACK
6
CONTINUOUS
10
3.3435
20
-2.69087
11
3.36424
21
-2.71161
0
LINE
8
BLACK
6
CONTINUOUS
10
3.36424
20
-2.71161
11
3.36614
21
-2.71161
0
LINE
8
BLACK
6
CONTINUOUS
10
3.36614
20
-2.71161
11
3.36614
21
-2.69685
0
LINE
8
BLACK
6
CONTINUOUS
10
3.36614
20
-2.69685
11
3.47441
21
-2.69685
0
LINE
8
BLACK
6
CONTINUOUS
10
3.47441
20
-2.69685
11
3.47441
21
-2.73622
0
LINE
8
BLACK
6
CONTINUOUS
10
3.47441
20
-2.73622
11
3.36614
21
-2.73622
0
LINE
8
BLACK
6
CONTINUOUS
10
3.36614
20
-2.73622
11
3.36614
21
-2.72146
0
LINE
8
BLACK
6
CONTINUOUS
10
3.36614
20
-2.72146
11
3.3622
21
-2.72146
0
LINE
8
BLACK
6
CONTINUOUS
10
3.3622
20
-2.72146
11
3.36133
21
-2.72133
0
LINE
8
BLACK
6
CONTINUOUS
10
3.36133
20
-2.72133
11
3.36116
21
-2.72134
0
LINE
8
BLACK
6
CONTINUOUS
10
3.36116
20
-2.72134
11
3.36106
21
-2.72129
0
LINE
8
BLACK
6
CONTINUOUS
10
3.36106
20
-2.72129
11
3.36082
21
-2.72126
0
LINE
8
BLACK
6
CONTINUOUS
10
3.36082
20
-2.72126
11
3.35979
21
-2.7206
0
LINE
8
BLACK
6
CONTINUOUS
10
3.35979
20
-2.7206
11
3.35872
21
-2.72002
0
LINE
8
BLACK
6
CONTINUOUS
10
3.35872
20
-2.72002
11
3.3351
21
-2.69639
0
LINE
8
BLACK
6
CONTINUOUS
10
3.3351
20
-2.69639
11
3.33458
21
-2.69569
0
LINE
8
BLACK
6
CONTINUOUS
10
3.33458
20
-2.69569
11
3.33444
21
-2.69557
0
LINE
8
BLACK
6
CONTINUOUS
10
3.33444
20
-2.69557
11
3.33441
21
-2.69547
0
LINE
8
BLACK
6
CONTINUOUS
10
3.33441
20
-2.69547
11
3.33426
21
-2.69527
0
LINE
8
BLACK
6
CONTINUOUS
10
3.33426
20
-2.69527
11
3.334
21
-2.69408
0
LINE
8
BLACK
6
CONTINUOUS
10
3.334
20
-2.69408
11
3.33366
21
-2.69291
0
LINE
8
BLACK
6
CONTINUOUS
10
3.33366
20
-2.69291
11
3.33366
21
-2.64173
0
LINE
8
BLACK
6
CONTINUOUS
10
3.33366
20
-2.64173
11
3.33379
21
-2.64086
0
LINE
8
BLACK
6
CONTINUOUS
10
3.33379
20
-2.64086
11
3.33377
21
-2.64069
0
LINE
8
BLACK
6
CONTINUOUS
10
3.33377
20
-2.64069
11
3.33383
21
-2.64059
0
LINE
8
BLACK
6
CONTINUOUS
10
3.33383
20
-2.64059
11
3.33386
21
-2.64035
0
LINE
8
BLACK
6
CONTINUOUS
10
3.33386
20
-2.64035
11
3.33452
21
-2.63932
0
LINE
8
BLACK
6
CONTINUOUS
10
3.33452
20
-2.63932
11
3.3351
21
-2.63825
0
LINE
8
BLACK
6
CONTINUOUS
10
3.3351
20
-2.63825
11
3.4124
21
-2.56095
0
LINE
8
BLACK
6
CONTINUOUS
10
3.4124
20
-2.56095
11
3.4124
21
-2.51889
0
LINE
8
BLACK
6
CONTINUOUS
10
3.4124
20
-2.51889
11
3.40807
21
-2.51668
0
LINE
8
BLACK
6
CONTINUOUS
10
3.40807
20
-2.51668
11
3.40458
21
-2.51319
0
LINE
8
BLACK
6
CONTINUOUS
10
3.40458
20
-2.51319
11
3.40235
21
-2.5088
0
LINE
8
BLACK
6
CONTINUOUS
10
3.40235
20
-2.5088
11
3.40157
21
-2.50394
0
LINE
8
BLACK
6
CONTINUOUS
10
3.40157
20
-2.50394
11
3.40235
21
-2.49907
0
LINE
8
BLACK
6
CONTINUOUS
10
3.40235
20
-2.49907
11
3.40458
21
-2.49468
0
LINE
8
BLACK
6
CONTINUOUS
10
3.40458
20
-2.49468
11
3.40807
21
-2.4912
0
LINE
8
BLACK
6
CONTINUOUS
10
3.40807
20
-2.4912
11
3.41246
21
-2.48896
0
LINE
8
BLACK
6
CONTINUOUS
10
3.41246
20
-2.48896
11
3.41732
21
-2.48819
0
LINE
8
BLACK
6
CONTINUOUS
10
3.41732
20
-2.48819
11
3.42219
21
-2.48896
0
LINE
8
BLACK
6
CONTINUOUS
10
3.42219
20
-2.48896
11
3.42658
21
-2.4912
0
LINE
8
BLACK
6
CONTINUOUS
10
3.42658
20
-2.4912
11
3.43006
21
-2.49468
0
LINE
8
BLACK
6
CONTINUOUS
10
3.43006
20
-2.49468
11
3.4323
21
-2.49907
0
LINE
8
BLACK
6
CONTINUOUS
10
3.4323
20
-2.49907
11
3.43307
21
-2.50394
0
LINE
8
BLACK
6
CONTINUOUS
10
3.43307
20
-2.50394
11
3.4323
21
-2.5088
0
LINE
8
BLACK
6
CONTINUOUS
10
3.4323
20
-2.5088
11
3.43124
21
-2.51089
0
LINE
8
BLACK
6
CONTINUOUS
10
3.43124
20
-2.51089
11
3.43511
21
-2.51476
0
LINE
8
BLACK
6
CONTINUOUS
10
3.43511
20
-2.51476
11
3.46745
21
-2.51476
0
LINE
8
BLACK
6
CONTINUOUS
10
3.46745
20
-2.51476
11
3.48425
21
-2.49796
0
LINE
8
BLACK
6
CONTINUOUS
10
3.48425
20
-2.49796
11
3.48425
21
-2.4311
0
LINE
8
BLACK
6
CONTINUOUS
10
3.48425
20
-2.4311
11
3.52362
21
-2.4311
0
LINE
8
BLACK
6
CONTINUOUS
10
3.52362
20
-2.4311
11
3.52362
21
-2.53937
0
LINE
8
BLACK
6
CONTINUOUS
10
3.52362
20
-2.29331
11
3.48425
21
-2.29331
0
LINE
8
BLACK
6
CONTINUOUS
10
3.48425
20
-2.29331
11
3.48425
21
-2.24409
0
LINE
8
BLACK
6
CONTINUOUS
10
3.48425
20
-2.24409
11
3.47153
21
-2.24409
0
LINE
8
BLACK
6
CONTINUOUS
10
3.47153
20
-2.24409
11
3.46949
21
-2.24613
0
LINE
8
BLACK
6
CONTINUOUS
10
3.46949
20
-2.24613
11
3.46949
21
-2.41843
0
LINE
8
BLACK
6
CONTINUOUS
10
3.46949
20
-2.41843
11
3.50951
21
-2.37841
0
LINE
8
BLACK
6
CONTINUOUS
10
3.50951
20
-2.37841
11
3.51022
21
-2.37788
0
LINE
8
BLACK
6
CONTINUOUS
10
3.51022
20
-2.37788
11
3.51033
21
-2.37775
0
LINE
8
BLACK
6
CONTINUOUS
10
3.51033
20
-2.37775
11
3.51043
21
-2.37772
0
LINE
8
BLACK
6
CONTINUOUS
10
3.51043
20
-2.37772
11
3.51063
21
-2.37757
0
LINE
8
BLACK
6
CONTINUOUS
10
3.51063
20
-2.37757
11
3.51182
21
-2.37731
0
LINE
8
BLACK
6
CONTINUOUS
10
3.51182
20
-2.37731
11
3.51299
21
-2.37697
0
LINE
8
BLACK
6
CONTINUOUS
10
3.51299
20
-2.37697
11
3.65354
21
-2.37697
0
LINE
8
BLACK
6
CONTINUOUS
10
3.65354
20
-2.37697
11
3.65493
21
-2.37717
0
LINE
8
BLACK
6
CONTINUOUS
10
3.65493
20
-2.37717
11
3.65523
21
-2.37736
0
LINE
8
BLACK
6
CONTINUOUS
10
3.65523
20
-2.37736
11
3.65559
21
-2.37741
0
LINE
8
BLACK
6
CONTINUOUS
10
3.65559
20
-2.37741
11
3.65638
21
-2.3781
0
LINE
8
BLACK
6
CONTINUOUS
10
3.65638
20
-2.3781
11
3.65726
21
-2.37867
0
LINE
8
BLACK
6
CONTINUOUS
10
3.65726
20
-2.37867
11
3.65741
21
-2.37899
0
LINE
8
BLACK
6
CONTINUOUS
10
3.65741
20
-2.37899
11
3.65768
21
-2.37923
0
LINE
8
BLACK
6
CONTINUOUS
10
3.65768
20
-2.37923
11
3.65798
21
-2.38024
0
LINE
8
BLACK
6
CONTINUOUS
10
3.65798
20
-2.38024
11
3.65841
21
-2.38119
0
LINE
8
BLACK
6
CONTINUOUS
10
3.65841
20
-2.38119
11
3.65836
21
-2.38155
0
LINE
8
BLACK
6
CONTINUOUS
10
3.65836
20
-2.38155
11
3.65846
21
-2.38189
0
LINE
8
BLACK
6
CONTINUOUS
10
3.65846
20
-2.38189
11
3.65846
21
-2.69685
0
LINE
8
BLACK
6
CONTINUOUS
10
3.65846
20
-2.69685
11
3.72047
21
-2.69685
0
LINE
8
BLACK
6
CONTINUOUS
10
3.72047
20
-2.69685
11
3.72047
21
-2.73622
0
LINE
8
BLACK
6
CONTINUOUS
10
3.72047
20
-2.73622
11
3.6122
21
-2.73622
0
LINE
8
BLACK
6
CONTINUOUS
10
3.6122
20
-2.73622
11
3.6122
21
-2.69685
0
LINE
8
BLACK
6
CONTINUOUS
10
3.6122
20
-2.69685
11
3.64862
21
-2.69685
0
LINE
8
BLACK
6
CONTINUOUS
10
3.64862
20
-2.69685
11
3.64862
21
-2.38681
0
LINE
8
BLACK
6
CONTINUOUS
10
3.64862
20
-2.38681
11
3.51503
21
-2.38681
0
LINE
8
BLACK
6
CONTINUOUS
10
3.51503
20
-2.38681
11
3.47494
21
-2.4269
0
LINE
8
BLACK
6
CONTINUOUS
10
3.47494
20
-2.4269
11
3.476
21
-2.42899
0
LINE
8
BLACK
6
CONTINUOUS
10
3.476
20
-2.42899
11
3.47677
21
-2.43386
0
LINE
8
BLACK
6
CONTINUOUS
10
3.47677
20
-2.43386
11
3.476
21
-2.43872
0
LINE
8
BLACK
6
CONTINUOUS
10
3.476
20
-2.43872
11
3.47376
21
-2.44311
0
LINE
8
BLACK
6
CONTINUOUS
10
3.47376
20
-2.44311
11
3.47028
21
-2.4466
0
LINE
8
BLACK
6
CONTINUOUS
10
3.47028
20
-2.4466
11
3.46589
21
-2.44884
0
LINE
8
BLACK
6
CONTINUOUS
10
3.46589
20
-2.44884
11
3.46102
21
-2.44961
0
LINE
8
BLACK
6
CONTINUOUS
10
3.46102
20
-2.44961
11
3.45616
21
-2.44884
0
LINE
8
BLACK
6
CONTINUOUS
10
3.45616
20
-2.44884
11
3.45177
21
-2.4466
0
LINE
8
BLACK
6
CONTINUOUS
10
3.45177
20
-2.4466
11
3.44828
21
-2.44311
0
LINE
8
BLACK
6
CONTINUOUS
10
3.44828
20
-2.44311
11
3.44605
21
-2.43872
0
LINE
8
BLACK
6
CONTINUOUS
10
3.44605
20
-2.43872
11
3.44528
21
-2.43386
0
LINE
8
BLACK
6
CONTINUOUS
10
3.44528
20
-2.43386
11
3.44605
21
-2.42899
0
LINE
8
BLACK
6
CONTINUOUS
10
3.44605
20
-2.42899
11
3.44828
21
-2.4246
0
LINE
8
BLACK
6
CONTINUOUS
10
3.44828
20
-2.4246
11
3.45177
21
-2.42112
0
LINE
8
BLACK
6
CONTINUOUS
10
3.45177
20
-2.42112
11
3.45616
21
-2.41888
0
LINE
8
BLACK
6
CONTINUOUS
10
3.45616
20
-2.41888
11
3.45965
21
-2.41833
0
LINE
8
BLACK
6
CONTINUOUS
10
3.45965
20
-2.41833
11
3.45965
21
-2.24409
0
LINE
8
BLACK
6
CONTINUOUS
10
3.45965
20
-2.24409
11
3.45977
21
-2.24322
0
LINE
8
BLACK
6
CONTINUOUS
10
3.45977
20
-2.24322
11
3.45976
21
-2.24305
0
LINE
8
BLACK
6
CONTINUOUS
10
3.45976
20
-2.24305
11
3.45981
21
-2.24295
0
LINE
8
BLACK
6
CONTINUOUS
10
3.45981
20
-2.24295
11
3.45985
21
-2.24271
0
LINE
8
BLACK
6
CONTINUOUS
10
3.45985
20
-2.24271
11
3.4605
21
-2.24168
0
LINE
8
BLACK
6
CONTINUOUS
10
3.4605
20
-2.24168
11
3.46109
21
-2.24061
0
LINE
8
BLACK
6
CONTINUOUS
10
3.46109
20
-2.24061
11
3.46601
21
-2.23569
0
LINE
8
BLACK
6
CONTINUOUS
10
3.46601
20
-2.23569
11
3.46671
21
-2.23517
0
LINE
8
BLACK
6
CONTINUOUS
10
3.46671
20
-2.23517
11
3.46683
21
-2.23503
0
LINE
8
BLACK
6
CONTINUOUS
10
3.46683
20
-2.23503
11
3.46693
21
-2.235
0
LINE
8
BLACK
6
CONTINUOUS
10
3.46693
20
-2.235
11
3.46713
21
-2.23485
0
LINE
8
BLACK
6
CONTINUOUS
10
3.46713
20
-2.23485
11
3.46832
21
-2.23459
0
LINE
8
BLACK
6
CONTINUOUS
10
3.46832
20
-2.23459
11
3.46949
21
-2.23425
0
LINE
8
BLACK
6
CONTINUOUS
10
3.46949
20
-2.23425
11
3.48425
21
-2.23425
0
LINE
8
BLACK
6
CONTINUOUS
10
3.48425
20
-2.23425
11
3.48425
21
-2.18504
0
LINE
8
BLACK
6
CONTINUOUS
10
3.48425
20
-2.18504
11
3.52362
21
-2.18504
0
LINE
8
BLACK
6
CONTINUOUS
10
3.52362
20
-2.18504
11
3.52362
21
-2.29331
0
LINE
8
BLACK
6
CONTINUOUS
10
3.60329
20
-2.40235
11
3.60768
21
-2.40458
0
LINE
8
BLACK
6
CONTINUOUS
10
3.60768
20
-2.40458
11
3.61117
21
-2.40807
0
LINE
8
BLACK
6
CONTINUOUS
10
3.61117
20
-2.40807
11
3.6134
21
-2.41246
0
LINE
8
BLACK
6
CONTINUOUS
10
3.6134
20
-2.41246
11
3.61417
21
-2.41732
0
LINE
8
BLACK
6
CONTINUOUS
10
3.61417
20
-2.41732
11
3.6134
21
-2.42219
0
LINE
8
BLACK
6
CONTINUOUS
10
3.6134
20
-2.42219
11
3.61117
21
-2.42658
0
LINE
8
BLACK
6
CONTINUOUS
10
3.61117
20
-2.42658
11
3.60768
21
-2.43006
0
LINE
8
BLACK
6
CONTINUOUS
10
3.60768
20
-2.43006
11
3.60335
21
-2.43227
0
LINE
8
BLACK
6
CONTINUOUS
10
3.60335
20
-2.43227
11
3.60335
21
-2.54017
0
LINE
8
BLACK
6
CONTINUOUS
10
3.60335
20
-2.54017
11
3.60768
21
-2.54238
0
LINE
8
BLACK
6
CONTINUOUS
10
3.60768
20
-2.54238
11
3.61117
21
-2.54586
0
LINE
8
BLACK
6
CONTINUOUS
10
3.61117
20
-2.54586
11
3.6134
21
-2.55025
0
LINE
8
BLACK
6
CONTINUOUS
10
3.6134
20
-2.55025
11
3.61417
21
-2.55512
0
LINE
8
BLACK
6
CONTINUOUS
10
3.61417
20
-2.55512
11
3.6134
21
-2.55998
0
LINE
8
BLACK
6
CONTINUOUS
10
3.6134
20
-2.55998
11
3.61117
21
-2.56437
0
LINE
8
BLACK
6
CONTINUOUS
10
3.61117
20
-2.56437
11
3.60768
21
-2.56786
0
LINE
8
BLACK
6
CONTINUOUS
10
3.60768
20
-2.56786
11
3.60329
21
-2.5701
0
LINE
8
BLACK
6
CONTINUOUS
10
3.60329
20
-2.5701
11
3.59843
21
-2.57087
0
LINE
8
BLACK
6
CONTINUOUS
10
3.59843
20
-2.57087
11
3.59356
21
-2.5701
0
LINE
8
BLACK
6
CONTINUOUS
10
3.59356
20
-2.5701
11
3.58917
21
-2.56786
0
LINE
8
BLACK
6
CONTINUOUS
10
3.58917
20
-2.56786
11
3.58568
21
-2.56437
0
LINE
8
BLACK
6
CONTINUOUS
10
3.58568
20
-2.56437
11
3.58465
21
-2.56234
0
LINE
8
BLACK
6
CONTINUOUS
10
3.58465
20
-2.56234
11
3.58361
21
-2.56437
0
LINE
8
BLACK
6
CONTINUOUS
10
3.58361
20
-2.56437
11
3.58012
21
-2.56786
0
LINE
8
BLACK
6
CONTINUOUS
10
3.58012
20
-2.56786
11
3.57573
21
-2.5701
0
LINE
8
BLACK
6
CONTINUOUS
10
3.57573
20
-2.5701
11
3.57087
21
-2.57087
0
LINE
8
BLACK
6
CONTINUOUS
10
3.57087
20
-2.57087
11
3.566
21
-2.5701
0
LINE
8
BLACK
6
CONTINUOUS
10
3.566
20
-2.5701
11
3.56161
21
-2.56786
0
LINE
8
BLACK
6
CONTINUOUS
10
3.56161
20
-2.56786
11
3.55813
21
-2.56437
0
LINE
8
BLACK
6
CONTINUOUS
10
3.55813
20
-2.56437
11
3.55589
21
-2.55998
0
LINE
8
BLACK
6
CONTINUOUS
10
3.55589
20
-2.55998
11
3.55512
21
-2.55512
0
LINE
8
BLACK
6
CONTINUOUS
10
3.55512
20
-2.55512
11
3.55589
21
-2.55025
0
LINE
8
BLACK
6
CONTINUOUS
10
3.55589
20
-2.55025
11
3.55813
21
-2.54586
0
LINE
8
BLACK
6
CONTINUOUS
10
3.55813
20
-2.54586
11
3.56161
21
-2.54238
0
LINE
8
BLACK
6
CONTINUOUS
10
3.56161
20
-2.54238
11
3.56594
21
-2.54017
0
LINE
8
BLACK
6
CONTINUOUS
10
3.56594
20
-2.54017
11
3.56594
21
-2.53937
0
LINE
8
BLACK
6
CONTINUOUS
10
3.56594
20
-2.53937
11
3.56299
21
-2.53937
0
LINE
8
BLACK
6
CONTINUOUS
10
3.56299
20
-2.53937
11
3.56299
21
-2.43245
0
LINE
8
BLACK
6
CONTINUOUS
10
3.56299
20
-2.43245
11
3.56206
21
-2.4323
0
LINE
8
BLACK
6
CONTINUOUS
10
3.56206
20
-2.4323
11
3.55767
21
-2.43006
0
LINE
8
BLACK
6
CONTINUOUS
10
3.55767
20
-2.43006
11
3.55419
21
-2.42658
0
LINE
8
BLACK
6
CONTINUOUS
10
3.55419
20
-2.42658
11
3.55195
21
-2.42219
0
LINE
8
BLACK
6
CONTINUOUS
10
3.55195
20
-2.42219
11
3.55118
21
-2.41732
0
LINE
8
BLACK
6
CONTINUOUS
10
3.55118
20
-2.41732
11
3.55195
21
-2.41246
0
LINE
8
BLACK
6
CONTINUOUS
10
3.55195
20
-2.41246
11
3.55419
21
-2.40807
0
LINE
8
BLACK
6
CONTINUOUS
10
3.55419
20
-2.40807
11
3.55767
21
-2.40458
0
LINE
8
BLACK
6
CONTINUOUS
10
3.55767
20
-2.40458
11
3.56206
21
-2.40235
0
LINE
8
BLACK
6
CONTINUOUS
10
3.56206
20
-2.40235
11
3.56693
21
-2.40157
0
LINE
8
BLACK
6
CONTINUOUS
10
3.56693
20
-2.40157
11
3.5718
21
-2.40235
0
LINE
8
BLACK
6
CONTINUOUS
10
3.5718
20
-2.40235
11
3.57619
21
-2.40458
0
LINE
8
BLACK
6
CONTINUOUS
10
3.57619
20
-2.40458
11
3.57967
21
-2.40807
0
LINE
8
BLACK
6
CONTINUOUS
10
3.57967
20
-2.40807
11
3.58188
21
-2.4124
0
LINE
8
BLACK
6
CONTINUOUS
10
3.58188
20
-2.4124
11
3.58348
21
-2.4124
0
LINE
8
BLACK
6
CONTINUOUS
10
3.58348
20
-2.4124
11
3.58568
21
-2.40807
0
LINE
8
BLACK
6
CONTINUOUS
10
3.58568
20
-2.40807
11
3.58917
21
-2.40458
0
LINE
8
BLACK
6
CONTINUOUS
10
3.58917
20
-2.40458
11
3.59356
21
-2.40235
0
LINE
8
BLACK
6
CONTINUOUS
10
3.59356
20
-2.40235
11
3.59843
21
-2.40157
0
LINE
8
BLACK
6
CONTINUOUS
10
3.59843
20
-2.40157
11
3.60329
21
-2.40235
0
LINE
8
BLACK
6
CONTINUOUS
10
3.54331
20
-2.29519
11
3.54356
21
-2.29753
0
LINE
8
BLACK
6
CONTINUOUS
10
3.54356
20
-2.29753
11
3.54356
21
-2.29753
0
LINE
8
BLACK
6
CONTINUOUS
10
3.54356
20
-2.29753
11
3.54448
21
-2.3
0
LINE
8
BLACK
6
CONTINUOUS
10
3.54448
20
-2.3
11
3.54535
21
-2.30013
0
LINE
8
BLACK
6
CONTINUOUS
10
3.54535
20
-2.30013
11
3.54974
21
-2.30237
0
LINE
8
BLACK
6
CONTINUOUS
10
3.54974
20
-2.30237
11
3.55322
21
-2.30586
0
LINE
8
BLACK
6
CONTINUOUS
10
3.55322
20
-2.30586
11
3.55546
21
-2.31025
0
LINE
8
BLACK
6
CONTINUOUS
10
3.55546
20
-2.31025
11
3.55567
21
-2.31159
0
LINE
8
BLACK
6
CONTINUOUS
10
3.55567
20
-2.31159
11
3.55876
21
-2.31274
0
LINE
8
BLACK
6
CONTINUOUS
10
3.55876
20
-2.31274
11
3.55876
21
-2.31274
0
LINE
8
BLACK
6
CONTINUOUS
10
3.55876
20
-2.31274
11
3.56111
21
-2.31299
0
LINE
8
BLACK
6
CONTINUOUS
10
3.56111
20
-2.31299
11
3.56111
21
-2.31299
0
LINE
8
BLACK
6
CONTINUOUS
10
3.56111
20
-2.31299
11
3.57283
21
-2.31299
0
LINE
8
BLACK
6
CONTINUOUS
10
3.57283
20
-2.31299
11
3.57283
21
-2.29331
0
LINE
8
BLACK
6
CONTINUOUS
10
3.57283
20
-2.29331
11
3.56299
21
-2.29331
0
LINE
8
BLACK
6
CONTINUOUS
10
3.56299
20
-2.29331
11
3.56299
21
-2.24902
0
LINE
8
BLACK
6
CONTINUOUS
10
3.56299
20
-2.24902
11
3.54331
21
-2.24902
0
LINE
8
BLACK
6
CONTINUOUS
10
3.54331
20
-2.24902
11
3.54331
21
-2.29519
0
LINE
8
BLACK
6
CONTINUOUS
10
3.60236
20
-2.29331
11
3.59252
21
-2.29331
0
LINE
8
BLACK
6
CONTINUOUS
10
3.59252
20
-2.29331
11
3.59252
21
-2.31299
0
LINE
8
BLACK
6
CONTINUOUS
10
3.59252
20
-2.31299
11
3.60425
21
-2.31299
0
LINE
8
BLACK
6
CONTINUOUS
10
3.60425
20
-2.31299
11
3.60425
21
-2.31299
0
LINE
8
BLACK
6
CONTINUOUS
10
3.60425
20
-2.31299
11
3.60659
21
-2.31274
0
LINE
8
BLACK
6
CONTINUOUS
10
3.60659
20
-2.31274
11
3.60659
21
-2.31274
0
LINE
8
BLACK
6
CONTINUOUS
10
3.60659
20
-2.31274
11
3.61189
21
-2.31076
0
LINE
8
BLACK
6
CONTINUOUS
10
3.61189
20
-2.31076
11
3.61189
21
-2.31076
0
LINE
8
BLACK
6
CONTINUOUS
10
3.61189
20
-2.31076
11
3.61642
21
-2.30737
0
LINE
8
BLACK
6
CONTINUOUS
10
3.61642
20
-2.30737
11
3.61642
21
-2.30737
0
LINE
8
BLACK
6
CONTINUOUS
10
3.61642
20
-2.30737
11
3.61982
21
-2.30284
0
LINE
8
BLACK
6
CONTINUOUS
10
3.61982
20
-2.30284
11
3.61982
21
-2.30284
0
LINE
8
BLACK
6
CONTINUOUS
10
3.61982
20
-2.30284
11
3.6218
21
-2.29753
0
LINE
8
BLACK
6
CONTINUOUS
10
3.6218
20
-2.29753
11
3.6218
21
-2.29753
0
LINE
8
BLACK
6
CONTINUOUS
10
3.6218
20
-2.29753
11
3.62205
21
-2.29519
0
LINE
8
BLACK
6
CONTINUOUS
10
3.62205
20
-2.29519
11
3.62205
21
-2.29519
0
LINE
8
BLACK
6
CONTINUOUS
10
3.62205
20
-2.29519
11
3.62205
21
-2.24902
0
LINE
8
BLACK
6
CONTINUOUS
10
3.62205
20
-2.24902
11
3.60236
21
-2.24902
0
LINE
8
BLACK
6
CONTINUOUS
10
3.60236
20
-2.24902
11
3.60236
21
-2.29331
0
LINE
8
BLACK
6
CONTINUOUS
10
3.59252
20
-2.18504
11
3.60236
21
-2.18504
0
LINE
8
BLACK
6
CONTINUOUS
10
3.60236
20
-2.18504
11
3.60236
21
-2.22933
0
LINE
8
BLACK
6
CONTINUOUS
10
3.60236
20
-2.22933
11
3.62205
21
-2.22933
0
LINE
8
BLACK
6
CONTINUOUS
10
3.62205
20
-2.22933
11
3.62205
21
-2.18316
0
LINE
8
BLACK
6
CONTINUOUS
10
3.62205
20
-2.18316
11
3.62205
21
-2.18316
0
LINE
8
BLACK
6
CONTINUOUS
10
3.62205
20
-2.18316
11
3.6218
21
-2.18081
0
LINE
8
BLACK
6
CONTINUOUS
10
3.6218
20
-2.18081
11
3.6218
21
-2.18081
0
LINE
8
BLACK
6
CONTINUOUS
10
3.6218
20
-2.18081
11
3.61982
21
-2.17551
0
LINE
8
BLACK
6
CONTINUOUS
10
3.61982
20
-2.17551
11
3.61982
21
-2.17551
0
LINE
8
BLACK
6
CONTINUOUS
10
3.61982
20
-2.17551
11
3.61642
21
-2.17098
0
LINE
8
BLACK
6
CONTINUOUS
10
3.61642
20
-2.17098
11
3.61642
21
-2.17098
0
LINE
8
BLACK
6
CONTINUOUS
10
3.61642
20
-2.17098
11
3.61189
21
-2.16758
0
LINE
8
BLACK
6
CONTINUOUS
10
3.61189
20
-2.16758
11
3.61189
21
-2.16758
0
LINE
8
BLACK
6
CONTINUOUS
10
3.61189
20
-2.16758
11
3.60659
21
-2.16561
0
LINE
8
BLACK
6
CONTINUOUS
10
3.60659
20
-2.16561
11
3.60659
21
-2.16561
0
LINE
8
BLACK
6
CONTINUOUS
10
3.60659
20
-2.16561
11
3.60425
21
-2.16535
0
LINE
8
BLACK
6
CONTINUOUS
10
3.60425
20
-2.16535
11
3.59252
21
-2.16535
0
LINE
8
BLACK
6
CONTINUOUS
10
3.59252
20
-2.16535
11
3.59252
21
-2.18504
0
LINE
8
BLACK
6
CONTINUOUS
10
3.53404
20
-1.91594
11
3.53404
21
-1.91594
0
LINE
8
BLACK
6
CONTINUOUS
10
3.53404
20
-1.91594
11
3.52505
21
-1.91835
0
LINE
8
BLACK
6
CONTINUOUS
10
3.52505
20
-1.91835
11
3.52505
21
-1.91835
0
LINE
8
BLACK
6
CONTINUOUS
10
3.52505
20
-1.91835
11
3.51662
21
-1.92228
0
LINE
8
BLACK
6
CONTINUOUS
10
3.51662
20
-1.92228
11
3.51662
21
-1.92228
0
LINE
8
BLACK
6
CONTINUOUS
10
3.51662
20
-1.92228
11
3.509
21
-1.92762
0
LINE
8
BLACK
6
CONTINUOUS
10
3.509
20
-1.92762
11
3.50242
21
-1.9342
0
LINE
8
BLACK
6
CONTINUOUS
10
3.50242
20
-1.9342
11
3.50242
21
-1.9342
0
LINE
8
BLACK
6
CONTINUOUS
10
3.50242
20
-1.9342
11
3.49709
21
-1.94182
0
LINE
8
BLACK
6
CONTINUOUS
10
3.49709
20
-1.94182
11
3.49709
21
-1.94182
0
LINE
8
BLACK
6
CONTINUOUS
10
3.49709
20
-1.94182
11
3.49315
21
-1.95025
0
LINE
8
BLACK
6
CONTINUOUS
10
3.49315
20
-1.95025
11
3.49315
21
-1.95025
0
LINE
8
BLACK
6
CONTINUOUS
10
3.49315
20
-1.95025
11
3.49075
21
-1.95924
0
LINE
8
BLACK
6
CONTINUOUS
10
3.49075
20
-1.95924
11
3.49075
21
-1.95924
0
LINE
8
BLACK
6
CONTINUOUS
10
3.49075
20
-1.95924
11
3.48993
21
-1.9685
0
LINE
8
BLACK
6
CONTINUOUS
10
3.48993
20
-1.9685
11
3.48993
21
-1.9685
0
LINE
8
BLACK
6
CONTINUOUS
10
3.48993
20
-1.9685
11
3.49075
21
-1.97777
0
LINE
8
BLACK
6
CONTINUOUS
10
3.49075
20
-1.97777
11
3.49075
21
-1.97777
0
LINE
8
BLACK
6
CONTINUOUS
10
3.49075
20
-1.97777
11
3.49315
21
-1.98676
0
LINE
8
BLACK
6
CONTINUOUS
10
3.49315
20
-1.98676
11
3.49315
21
-1.98676
0
LINE
8
BLACK
6
CONTINUOUS
10
3.49315
20
-1.98676
11
3.49315
21
-1.98676
0
LINE
8
BLACK
6
CONTINUOUS
10
3.49315
20
-1.98676
11
3.49512
21
-1.99097
0
LINE
8
BLACK
6
CONTINUOUS
10
3.49512
20
-1.99097
11
3.49709
21
-1.99519
0
LINE
8
BLACK
6
CONTINUOUS
10
3.49709
20
-1.99519
11
3.49709
21
-1.99519
0
LINE
8
BLACK
6
CONTINUOUS
10
3.49709
20
-1.99519
11
3.50242
21
-2.00281
0
LINE
8
BLACK
6
CONTINUOUS
10
3.50242
20
-2.00281
11
3.509
21
-2.00939
0
LINE
8
BLACK
6
CONTINUOUS
10
3.509
20
-2.00939
11
3.51662
21
-2.01473
0
LINE
8
BLACK
6
CONTINUOUS
10
3.51662
20
-2.01473
11
3.51662
21
-2.01473
0
LINE
8
BLACK
6
CONTINUOUS
10
3.51662
20
-2.01473
11
3.52505
21
-2.01866
0
LINE
8
BLACK
6
CONTINUOUS
10
3.52505
20
-2.01866
11
3.53404
21
-2.02107
0
LINE
8
BLACK
6
CONTINUOUS
10
3.53404
20
-2.02107
11
3.54099
21
-2.02167
0
LINE
8
BLACK
6
CONTINUOUS
10
3.54099
20
-2.02167
11
3.54099
21
-2.02167
0
LINE
8
BLACK
6
CONTINUOUS
10
3.54099
20
-2.02167
11
3.54099
21
-2.02167
0
LINE
8
BLACK
6
CONTINUOUS
10
3.54099
20
-2.02167
11
3.54563
21
-2.02167
0
LINE
8
BLACK
6
CONTINUOUS
10
3.54563
20
-2.02167
11
3.54563
21
-2.02167
0
LINE
8
BLACK
6
CONTINUOUS
10
3.54563
20
-2.02167
11
3.55258
21
-2.02107
0
LINE
8
BLACK
6
CONTINUOUS
10
3.55258
20
-2.02107
11
3.56156
21
-2.01866
0
LINE
8
BLACK
6
CONTINUOUS
10
3.56156
20
-2.01866
11
3.56999
21
-2.01473
0
LINE
8
BLACK
6
CONTINUOUS
10
3.56999
20
-2.01473
11
3.57761
21
-2.00939
0
LINE
8
BLACK
6
CONTINUOUS
10
3.57761
20
-2.00939
11
3.58419
21
-2.00281
0
LINE
8
BLACK
6
CONTINUOUS
10
3.58419
20
-2.00281
11
3.58953
21
-1.99519
0
LINE
8
BLACK
6
CONTINUOUS
10
3.58953
20
-1.99519
11
3.59346
21
-1.98676
0
LINE
8
BLACK
6
CONTINUOUS
10
3.59346
20
-1.98676
11
3.59587
21
-1.97777
0
LINE
8
BLACK
6
CONTINUOUS
10
3.59587
20
-1.97777
11
3.59668
21
-1.9685
0
LINE
8
BLACK
6
CONTINUOUS
10
3.59668
20
-1.9685
11
3.59587
21
-1.95924
0
LINE
8
BLACK
6
CONTINUOUS
10
3.59587
20
-1.95924
11
3.59346
21
-1.95025
0
LINE
8
BLACK
6
CONTINUOUS
10
3.59346
20
-1.95025
11
3.58953
21
-1.94182
0
LINE
8
BLACK
6
CONTINUOUS
10
3.58953
20
-1.94182
11
3.58953
21
-1.94182
0
LINE
8
BLACK
6
CONTINUOUS
10
3.58953
20
-1.94182
11
3.58419
21
-1.9342
0
LINE
8
BLACK
6
CONTINUOUS
10
3.58419
20
-1.9342
11
3.57761
21
-1.92762
0
LINE
8
BLACK
6
CONTINUOUS
10
3.57761
20
-1.92762
11
3.56999
21
-1.92228
0
LINE
8
BLACK
6
CONTINUOUS
10
3.56999
20
-1.92228
11
3.56999
21
-1.92228
0
LINE
8
BLACK
6
CONTINUOUS
10
3.56999
20
-1.92228
11
3.56578
21
-1.92032
0
LINE
8
BLACK
6
CONTINUOUS
10
3.56578
20
-1.92032
11
3.56156
21
-1.91835
0
LINE
8
BLACK
6
CONTINUOUS
10
3.56156
20
-1.91835
11
3.56156
21
-1.91835
0
LINE
8
BLACK
6
CONTINUOUS
10
3.56156
20
-1.91835
11
3.56156
21
-1.91835
0
LINE
8
BLACK
6
CONTINUOUS
10
3.56156
20
-1.91835
11
3.55258
21
-1.91594
0
LINE
8
BLACK
6
CONTINUOUS
10
3.55258
20
-1.91594
11
3.55257
21
-1.91594
0
LINE
8
BLACK
6
CONTINUOUS
10
3.55257
20
-1.91594
11
3.54563
21
-1.91533
0
LINE
8
BLACK
6
CONTINUOUS
10
3.54563
20
-1.91533
11
3.54563
21
-1.91533
0
LINE
8
BLACK
6
CONTINUOUS
10
3.54563
20
-1.91533
11
3.54099
21
-1.91533
0
LINE
8
BLACK
6
CONTINUOUS
10
3.54099
20
-1.91533
11
3.54099
21
-1.91533
0
LINE
8
BLACK
6
CONTINUOUS
10
3.54099
20
-1.91533
11
3.53404
21
-1.91594
0
LINE
8
BLACK
6
CONTINUOUS
10
3.6122
20
-2.78543
11
3.6122
21
-2.77559
0
LINE
8
BLACK
6
CONTINUOUS
10
3.6122
20
-2.77559
11
3.6565
21
-2.77559
0
LINE
8
BLACK
6
CONTINUOUS
10
3.6565
20
-2.77559
11
3.6565
21
-2.75591
0
LINE
8
BLACK
6
CONTINUOUS
10
3.6565
20
-2.75591
11
3.61032
21
-2.75591
0
LINE
8
BLACK
6
CONTINUOUS
10
3.61032
20
-2.75591
11
3.60798
21
-2.75616
0
LINE
8
BLACK
6
CONTINUOUS
10
3.60798
20
-2.75616
11
3.60798
21
-2.75616
0
LINE
8
BLACK
6
CONTINUOUS
10
3.60798
20
-2.75616
11
3.60267
21
-2.75814
0
LINE
8
BLACK
6
CONTINUOUS
10
3.60267
20
-2.75814
11
3.60267
21
-2.75814
0
LINE
8
BLACK
6
CONTINUOUS
10
3.60267
20
-2.75814
11
3.59814
21
-2.76153
0
LINE
8
BLACK
6
CONTINUOUS
10
3.59814
20
-2.76153
11
3.59814
21
-2.76153
0
LINE
8
BLACK
6
CONTINUOUS
10
3.59814
20
-2.76153
11
3.59475
21
-2.76606
0
LINE
8
BLACK
6
CONTINUOUS
10
3.59475
20
-2.76606
11
3.59475
21
-2.76606
0
LINE
8
BLACK
6
CONTINUOUS
10
3.59475
20
-2.76606
11
3.59277
21
-2.77136
0
LINE
8
BLACK
6
CONTINUOUS
10
3.59277
20
-2.77136
11
3.59277
21
-2.77136
0
LINE
8
BLACK
6
CONTINUOUS
10
3.59277
20
-2.77136
11
3.59252
21
-2.77371
0
LINE
8
BLACK
6
CONTINUOUS
10
3.59252
20
-2.77371
11
3.59252
21
-2.78543
0
LINE
8
BLACK
6
CONTINUOUS
10
3.59252
20
-2.78543
11
3.6122
21
-2.78543
0
LINE
8
BLACK
6
CONTINUOUS
10
2.70334
20
-2.76517
11
2.70334
21
-2.76517
0
LINE
8
BLACK
6
CONTINUOUS
10
2.70334
20
-2.76517
11
2.70575
21
-2.77416
0
LINE
8
BLACK
6
CONTINUOUS
10
2.70575
20
-2.77416
11
2.70575
21
-2.77416
0
LINE
8
BLACK
6
CONTINUOUS
10
2.70575
20
-2.77416
11
2.70575
21
-2.77416
0
LINE
8
BLACK
6
CONTINUOUS
10
2.70575
20
-2.77416
11
2.70772
21
-2.77838
0
LINE
8
BLACK
6
CONTINUOUS
10
2.70772
20
-2.77838
11
2.70968
21
-2.78259
0
LINE
8
BLACK
6
CONTINUOUS
10
2.70968
20
-2.78259
11
2.70968
21
-2.78259
0
LINE
8
BLACK
6
CONTINUOUS
10
2.70968
20
-2.78259
11
2.71502
21
-2.79021
0
LINE
8
BLACK
6
CONTINUOUS
10
2.71502
20
-2.79021
11
2.7216
21
-2.79679
0
LINE
8
BLACK
6
CONTINUOUS
10
2.7216
20
-2.79679
11
2.72922
21
-2.80213
0
LINE
8
BLACK
6
CONTINUOUS
10
2.72922
20
-2.80213
11
2.72922
21
-2.80213
0
LINE
8
BLACK
6
CONTINUOUS
10
2.72922
20
-2.80213
11
2.73765
21
-2.80606
0
LINE
8
BLACK
6
CONTINUOUS
10
2.73765
20
-2.80606
11
2.74664
21
-2.80847
0
LINE
8
BLACK
6
CONTINUOUS
10
2.74664
20
-2.80847
11
2.75358
21
-2.80907
0
LINE
8
BLACK
6
CONTINUOUS
10
2.75358
20
-2.80907
11
2.75358
21
-2.80907
0
LINE
8
BLACK
6
CONTINUOUS
10
2.75358
20
-2.80907
11
2.75358
21
-2.80907
0
LINE
8
BLACK
6
CONTINUOUS
10
2.75358
20
-2.80907
11
2.75823
21
-2.80907
0
LINE
8
BLACK
6
CONTINUOUS
10
2.75823
20
-2.80907
11
2.75823
21
-2.80907
0
LINE
8
BLACK
6
CONTINUOUS
10
2.75823
20
-2.80907
11
2.76517
21
-2.80847
0
LINE
8
BLACK
6
CONTINUOUS
10
2.76517
20
-2.80847
11
2.77416
21
-2.80606
0
LINE
8
BLACK
6
CONTINUOUS
10
2.77416
20
-2.80606
11
2.78259
21
-2.80213
0
LINE
8
BLACK
6
CONTINUOUS
10
2.78259
20
-2.80213
11
2.79021
21
-2.79679
0
LINE
8
BLACK
6
CONTINUOUS
10
2.79021
20
-2.79679
11
2.79679
21
-2.79021
0
LINE
8
BLACK
6
CONTINUOUS
10
2.79679
20
-2.79021
11
2.80213
21
-2.78259
0
LINE
8
BLACK
6
CONTINUOUS
10
2.80213
20
-2.78259
11
2.80606
21
-2.77416
0
LINE
8
BLACK
6
CONTINUOUS
10
2.80606
20
-2.77416
11
2.80847
21
-2.76517
0
LINE
8
BLACK
6
CONTINUOUS
10
2.80847
20
-2.76517
11
2.80928
21
-2.75591
0
LINE
8
BLACK
6
CONTINUOUS
10
2.80928
20
-2.75591
11
2.80847
21
-2.74664
0
LINE
8
BLACK
6
CONTINUOUS
10
2.80847
20
-2.74664
11
2.80606
21
-2.73765
0
LINE
8
BLACK
6
CONTINUOUS
10
2.80606
20
-2.73765
11
2.80213
21
-2.72922
0
LINE
8
BLACK
6
CONTINUOUS
10
2.80213
20
-2.72922
11
2.80213
21
-2.72922
0
LINE
8
BLACK
6
CONTINUOUS
10
2.80213
20
-2.72922
11
2.79679
21
-2.7216
0
LINE
8
BLACK
6
CONTINUOUS
10
2.79679
20
-2.7216
11
2.79021
21
-2.71502
0
LINE
8
BLACK
6
CONTINUOUS
10
2.79021
20
-2.71502
11
2.78259
21
-2.70968
0
LINE
8
BLACK
6
CONTINUOUS
10
2.78259
20
-2.70968
11
2.78259
21
-2.70968
0
LINE
8
BLACK
6
CONTINUOUS
10
2.78259
20
-2.70968
11
2.77838
21
-2.70772
0
LINE
8
BLACK
6
CONTINUOUS
10
2.77838
20
-2.70772
11
2.77416
21
-2.70575
0
LINE
8
BLACK
6
CONTINUOUS
10
2.77416
20
-2.70575
11
2.77416
21
-2.70575
0
LINE
8
BLACK
6
CONTINUOUS
10
2.77416
20
-2.70575
11
2.77416
21
-2.70575
0
LINE
8
BLACK
6
CONTINUOUS
10
2.77416
20
-2.70575
11
2.76517
21
-2.70334
0
LINE
8
BLACK
6
CONTINUOUS
10
2.76517
20
-2.70334
11
2.76517
21
-2.70334
0
LINE
8
BLACK
6
CONTINUOUS
10
2.76517
20
-2.70334
11
2.75823
21
-2.70274
0
LINE
8
BLACK
6
CONTINUOUS
10
2.75823
20
-2.70274
11
2.75823
21
-2.70274
0
LINE
8
BLACK
6
CONTINUOUS
10
2.75823
20
-2.70274
11
2.75358
21
-2.70274
0
LINE
8
BLACK
6
CONTINUOUS
10
2.75358
20
-2.70274
11
2.75358
21
-2.70274
0
LINE
8
BLACK
6
CONTINUOUS
10
2.75358
20
-2.70274
11
2.74664
21
-2.70334
0
LINE
8
BLACK
6
CONTINUOUS
10
2.74664
20
-2.70334
11
2.74664
21
-2.70334
0
LINE
8
BLACK
6
CONTINUOUS
10
2.74664
20
-2.70334
11
2.73765
21
-2.70575
0
LINE
8
BLACK
6
CONTINUOUS
10
2.73765
20
-2.70575
11
2.73765
21
-2.70575
0
LINE
8
BLACK
6
CONTINUOUS
10
2.73765
20
-2.70575
11
2.72922
21
-2.70968
0
LINE
8
BLACK
6
CONTINUOUS
10
2.72922
20
-2.70968
11
2.72922
21
-2.70968
0
LINE
8
BLACK
6
CONTINUOUS
10
2.72922
20
-2.70968
11
2.7216
21
-2.71502
0
LINE
8
BLACK
6
CONTINUOUS
10
2.7216
20
-2.71502
11
2.71502
21
-2.7216
0
LINE
8
BLACK
6
CONTINUOUS
10
2.71502
20
-2.7216
11
2.71502
21
-2.7216
0
LINE
8
BLACK
6
CONTINUOUS
10
2.71502
20
-2.7216
11
2.70968
21
-2.72922
0
LINE
8
BLACK
6
CONTINUOUS
10
2.70968
20
-2.72922
11
2.70968
21
-2.72922
0
LINE
8
BLACK
6
CONTINUOUS
10
2.70968
20
-2.72922
11
2.70575
21
-2.73765
0
LINE
8
BLACK
6
CONTINUOUS
10
2.70575
20
-2.73765
11
2.70575
21
-2.73765
0
LINE
8
BLACK
6
CONTINUOUS
10
2.70575
20
-2.73765
11
2.70334
21
-2.74664
0
LINE
8
BLACK
6
CONTINUOUS
10
2.70334
20
-2.74664
11
2.70334
21
-2.74664
0
LINE
8
BLACK
6
CONTINUOUS
10
2.70334
20
-2.74664
11
2.70253
21
-2.75591
0
LINE
8
BLACK
6
CONTINUOUS
10
2.70253
20
-2.75591
11
2.70253
21
-2.75591
0
LINE
8
BLACK
6
CONTINUOUS
10
2.70253
20
-2.75591
11
2.70334
21
-2.76517
0
LINE
8
BLACK
6
CONTINUOUS
10
3.32378
20
-2.69368
11
3.3238
21
-2.69398
0
LINE
8
BLACK
6
CONTINUOUS
10
3.3238
20
-2.69398
11
3.3238
21
-2.69414
0
LINE
8
BLACK
6
CONTINUOUS
10
3.3238
20
-2.69414
11
3.32394
21
-2.69499
0
LINE
8
BLACK
6
CONTINUOUS
10
3.32394
20
-2.69499
11
3.32396
21
-2.69509
0
LINE
8
BLACK
6
CONTINUOUS
10
3.32396
20
-2.69509
11
3.32422
21
-2.69719
0
LINE
8
BLACK
6
CONTINUOUS
10
3.32422
20
-2.69719
11
3.32431
21
-2.69749
0
LINE
8
BLACK
6
CONTINUOUS
10
3.32431
20
-2.69749
11
3.32441
21
-2.69778
0
LINE
8
BLACK
6
CONTINUOUS
10
3.32441
20
-2.69778
11
3.32491
21
-2.69871
0
LINE
8
BLACK
6
CONTINUOUS
10
3.32491
20
-2.69871
11
3.32541
21
-2.69964
0
LINE
8
BLACK
6
CONTINUOUS
10
3.32541
20
-2.69964
11
3.32546
21
-2.69972
0
LINE
8
BLACK
6
CONTINUOUS
10
3.32546
20
-2.69972
11
3.32638
21
-2.70162
0
LINE
8
BLACK
6
CONTINUOUS
10
3.32638
20
-2.70162
11
3.32656
21
-2.70187
0
LINE
8
BLACK
6
CONTINUOUS
10
3.32656
20
-2.70187
11
3.32676
21
-2.70212
0
LINE
8
BLACK
6
CONTINUOUS
10
3.32676
20
-2.70212
11
3.32831
21
-2.70355
0
LINE
8
BLACK
6
CONTINUOUS
10
3.32831
20
-2.70355
11
3.32838
21
-2.70362
0
LINE
8
BLACK
6
CONTINUOUS
10
3.32838
20
-2.70362
11
3.35031
21
-2.72555
0
LINE
8
BLACK
6
CONTINUOUS
10
3.35031
20
-2.72555
11
3.35094
21
-2.72633
0
LINE
8
BLACK
6
CONTINUOUS
10
3.35094
20
-2.72633
11
3.35118
21
-2.72669
0
LINE
8
BLACK
6
CONTINUOUS
10
3.35118
20
-2.72669
11
3.35228
21
-2.72754
0
LINE
8
BLACK
6
CONTINUOUS
10
3.35228
20
-2.72754
11
3.35251
21
-2.72775
0
LINE
8
BLACK
6
CONTINUOUS
10
3.35251
20
-2.72775
11
3.35262
21
-2.72786
0
LINE
8
BLACK
6
CONTINUOUS
10
3.35262
20
-2.72786
11
3.35332
21
-2.72836
0
LINE
8
BLACK
6
CONTINUOUS
10
3.35332
20
-2.72836
11
3.35341
21
-2.72842
0
LINE
8
BLACK
6
CONTINUOUS
10
3.35341
20
-2.72842
11
3.3544
21
-2.72919
0
LINE
8
BLACK
6
CONTINUOUS
10
3.3544
20
-2.72919
11
3.356
21
-2.73142
0
LINE
8
BLACK
6
CONTINUOUS
10
3.356
20
-2.73142
11
3.35628
21
-2.73304
0
LINE
8
BLACK
6
CONTINUOUS
10
3.35628
20
-2.73304
11
3.35628
21
-2.73719
0
LINE
8
BLACK
6
CONTINUOUS
10
3.35628
20
-2.73719
11
3.35685
21
-2.74007
0
LINE
8
BLACK
6
CONTINUOUS
10
3.35685
20
-2.74007
11
3.35685
21
-2.74007
0
LINE
8
BLACK
6
CONTINUOUS
10
3.35685
20
-2.74007
11
3.35685
21
-2.74007
0
LINE
8
BLACK
6
CONTINUOUS
10
3.35685
20
-2.74007
11
3.35903
21
-2.74333
0
LINE
8
BLACK
6
CONTINUOUS
10
3.35903
20
-2.74333
11
3.36229
21
-2.74551
0
LINE
8
BLACK
6
CONTINUOUS
10
3.36229
20
-2.74551
11
3.36229
21
-2.74551
0
LINE
8
BLACK
6
CONTINUOUS
10
3.36229
20
-2.74551
11
3.36517
21
-2.74608
0
LINE
8
BLACK
6
CONTINUOUS
10
3.36517
20
-2.74608
11
3.36517
21
-2.74608
0
LINE
8
BLACK
6
CONTINUOUS
10
3.36517
20
-2.74608
11
3.36517
21
-2.74608
0
LINE
8
BLACK
6
CONTINUOUS
10
3.36517
20
-2.74608
11
3.47538
21
-2.74608
0
LINE
8
BLACK
6
CONTINUOUS
10
3.47538
20
-2.74608
11
3.47538
21
-2.74608
0
LINE
8
BLACK
6
CONTINUOUS
10
3.47538
20
-2.74608
11
3.47826
21
-2.74551
0
LINE
8
BLACK
6
CONTINUOUS
10
3.47826
20
-2.74551
11
3.48152
21
-2.74333
0
LINE
8
BLACK
6
CONTINUOUS
10
3.48152
20
-2.74333
11
3.4837
21
-2.74007
0
LINE
8
BLACK
6
CONTINUOUS
10
3.4837
20
-2.74007
11
3.48427
21
-2.73719
0
LINE
8
BLACK
6
CONTINUOUS
10
3.48427
20
-2.73719
11
3.48427
21
-2.69588
0
LINE
8
BLACK
6
CONTINUOUS
10
3.48427
20
-2.69588
11
3.48427
21
-2.69588
0
LINE
8
BLACK
6
CONTINUOUS
10
3.48427
20
-2.69588
11
3.48427
21
-2.69588
0
LINE
8
BLACK
6
CONTINUOUS
10
3.48427
20
-2.69588
11
3.48427
21
-2.69588
0
LINE
8
BLACK
6
CONTINUOUS
10
3.48427
20
-2.69588
11
3.4837
21
-2.693
0
LINE
8
BLACK
6
CONTINUOUS
10
3.4837
20
-2.693
11
3.4837
21
-2.693
0
LINE
8
BLACK
6
CONTINUOUS
10
3.4837
20
-2.693
11
3.48295
21
-2.69188
0
LINE
8
BLACK
6
CONTINUOUS
10
3.48295
20
-2.69188
11
3.48152
21
-2.68974
0
LINE
8
BLACK
6
CONTINUOUS
10
3.48152
20
-2.68974
11
3.47826
21
-2.68756
0
LINE
8
BLACK
6
CONTINUOUS
10
3.47826
20
-2.68756
11
3.47826
21
-2.68756
0
LINE
8
BLACK
6
CONTINUOUS
10
3.47826
20
-2.68756
11
3.47826
21
-2.68756
0
LINE
8
BLACK
6
CONTINUOUS
10
3.47826
20
-2.68756
11
3.47538
21
-2.68699
0
LINE
8
BLACK
6
CONTINUOUS
10
3.47538
20
-2.68699
11
3.47538
21
-2.68699
0
LINE
8
BLACK
6
CONTINUOUS
10
3.47538
20
-2.68699
11
3.36517
21
-2.68699
0
LINE
8
BLACK
6
CONTINUOUS
10
3.36517
20
-2.68699
11
3.36517
21
-2.68699
0
LINE
8
BLACK
6
CONTINUOUS
10
3.36517
20
-2.68699
11
3.36229
21
-2.68756
0
LINE
8
BLACK
6
CONTINUOUS
10
3.36229
20
-2.68756
11
3.36229
21
-2.68756
0
LINE
8
BLACK
6
CONTINUOUS
10
3.36229
20
-2.68756
11
3.36096
21
-2.68845
0
LINE
8
BLACK
6
CONTINUOUS
10
3.36096
20
-2.68845
11
3.35834
21
-2.68927
0
LINE
8
BLACK
6
CONTINUOUS
10
3.35834
20
-2.68927
11
3.35568
21
-2.68855
0
LINE
8
BLACK
6
CONTINUOUS
10
3.35568
20
-2.68855
11
3.35384
21
-2.6865
0
LINE
8
BLACK
6
CONTINUOUS
10
3.35384
20
-2.6865
11
3.35337
21
-2.68439
0
LINE
8
BLACK
6
CONTINUOUS
10
3.35337
20
-2.68439
11
3.35337
21
-2.68211
0
LINE
8
BLACK
6
CONTINUOUS
10
3.35337
20
-2.68211
11
3.35337
21
-2.64988
0
LINE
8
BLACK
6
CONTINUOUS
10
3.35337
20
-2.64988
11
3.35414
21
-2.64724
0
LINE
8
BLACK
6
CONTINUOUS
10
3.35414
20
-2.64724
11
3.3548
21
-2.64643
0
LINE
8
BLACK
6
CONTINUOUS
10
3.3548
20
-2.64643
11
3.42633
21
-2.57489
0
LINE
8
BLACK
6
CONTINUOUS
10
3.42633
20
-2.57489
11
3.42712
21
-2.57425
0
LINE
8
BLACK
6
CONTINUOUS
10
3.42712
20
-2.57425
11
3.42747
21
-2.57402
0
LINE
8
BLACK
6
CONTINUOUS
10
3.42747
20
-2.57402
11
3.42833
21
-2.57292
0
LINE
8
BLACK
6
CONTINUOUS
10
3.42833
20
-2.57292
11
3.42853
21
-2.57269
0
LINE
8
BLACK
6
CONTINUOUS
10
3.42853
20
-2.57269
11
3.42864
21
-2.57258
0
LINE
8
BLACK
6
CONTINUOUS
10
3.42864
20
-2.57258
11
3.42915
21
-2.57187
0
LINE
8
BLACK
6
CONTINUOUS
10
3.42915
20
-2.57187
11
3.42921
21
-2.57179
0
LINE
8
BLACK
6
CONTINUOUS
10
3.42921
20
-2.57179
11
3.4305
21
-2.57013
0
LINE
8
BLACK
6
CONTINUOUS
10
3.4305
20
-2.57013
11
3.4305
21
-2.57013
0
LINE
8
BLACK
6
CONTINUOUS
10
3.4305
20
-2.57013
11
3.43065
21
-2.56985
0
LINE
8
BLACK
6
CONTINUOUS
10
3.43065
20
-2.56985
11
3.43079
21
-2.56957
0
LINE
8
BLACK
6
CONTINUOUS
10
3.43079
20
-2.56957
11
3.43079
21
-2.56957
0
LINE
8
BLACK
6
CONTINUOUS
10
3.43079
20
-2.56957
11
3.43139
21
-2.56755
0
LINE
8
BLACK
6
CONTINUOUS
10
3.43139
20
-2.56755
11
3.43142
21
-2.56746
0
LINE
8
BLACK
6
CONTINUOUS
10
3.43142
20
-2.56746
11
3.43211
21
-2.56546
0
LINE
8
BLACK
6
CONTINUOUS
10
3.43211
20
-2.56546
11
3.43211
21
-2.56546
0
LINE
8
BLACK
6
CONTINUOUS
10
3.43211
20
-2.56546
11
3.43216
21
-2.56515
0
LINE
8
BLACK
6
CONTINUOUS
10
3.43216
20
-2.56515
11
3.4322
21
-2.56485
0
LINE
8
BLACK
6
CONTINUOUS
10
3.4322
20
-2.56485
11
3.43211
21
-2.56274
0
LINE
8
BLACK
6
CONTINUOUS
10
3.43211
20
-2.56274
11
3.43211
21
-2.56264
0
LINE
8
BLACK
6
CONTINUOUS
10
3.43211
20
-2.56264
11
3.43211
21
-2.53935
0
LINE
8
BLACK
6
CONTINUOUS
10
3.43211
20
-2.53935
11
3.43288
21
-2.53671
0
LINE
8
BLACK
6
CONTINUOUS
10
3.43288
20
-2.53671
11
3.43496
21
-2.53491
0
LINE
8
BLACK
6
CONTINUOUS
10
3.43496
20
-2.53491
11
3.43699
21
-2.53447
0
LINE
8
BLACK
6
CONTINUOUS
10
3.43699
20
-2.53447
11
3.46745
21
-2.53447
0
LINE
8
BLACK
6
CONTINUOUS
10
3.46745
20
-2.53447
11
3.46845
21
-2.53457
0
LINE
8
BLACK
6
CONTINUOUS
10
3.46845
20
-2.53457
11
3.46857
21
-2.5346
0
LINE
8
BLACK
6
CONTINUOUS
10
3.46857
20
-2.5346
11
3.46887
21
-2.53466
0
LINE
8
BLACK
6
CONTINUOUS
10
3.46887
20
-2.53466
11
3.4689
21
-2.53466
0
LINE
8
BLACK
6
CONTINUOUS
10
3.4689
20
-2.53466
11
3.46895
21
-2.53466
0
LINE
8
BLACK
6
CONTINUOUS
10
3.46895
20
-2.53466
11
3.46927
21
-2.53468
0
LINE
8
BLACK
6
CONTINUOUS
10
3.46927
20
-2.53468
11
3.46927
21
-2.53472
0
LINE
8
BLACK
6
CONTINUOUS
10
3.46927
20
-2.53472
11
3.47162
21
-2.5351
0
LINE
8
BLACK
6
CONTINUOUS
10
3.47162
20
-2.5351
11
3.47366
21
-2.53694
0
LINE
8
BLACK
6
CONTINUOUS
10
3.47366
20
-2.53694
11
3.47439
21
-2.5395
0
LINE
8
BLACK
6
CONTINUOUS
10
3.47439
20
-2.5395
11
3.47439
21
-2.54034
0
LINE
8
BLACK
6
CONTINUOUS
10
3.47439
20
-2.54034
11
3.47496
21
-2.54322
0
LINE
8
BLACK
6
CONTINUOUS
10
3.47496
20
-2.54322
11
3.47496
21
-2.54322
0
LINE
8
BLACK
6
CONTINUOUS
10
3.47496
20
-2.54322
11
3.47496
21
-2.54322
0
LINE
8
BLACK
6
CONTINUOUS
10
3.47496
20
-2.54322
11
3.47714
21
-2.54648
0
LINE
8
BLACK
6
CONTINUOUS
10
3.47714
20
-2.54648
11
3.48001
21
-2.5484
0
LINE
8
BLACK
6
CONTINUOUS
10
3.48001
20
-2.5484
11
3.4804
21
-2.54866
0
LINE
8
BLACK
6
CONTINUOUS
10
3.4804
20
-2.54866
11
3.4804
21
-2.54866
0
LINE
8
BLACK
6
CONTINUOUS
10
3.4804
20
-2.54866
11
3.48328
21
-2.54923
0
LINE
8
BLACK
6
CONTINUOUS
10
3.48328
20
-2.54923
11
3.48328
21
-2.54923
0
LINE
8
BLACK
6
CONTINUOUS
10
3.48328
20
-2.54923
11
3.48328
21
-2.54923
0
LINE
8
BLACK
6
CONTINUOUS
10
3.48328
20
-2.54923
11
3.52459
21
-2.54923
0
LINE
8
BLACK
6
CONTINUOUS
10
3.52459
20
-2.54923
11
3.52459
21
-2.54923
0
LINE
8
BLACK
6
CONTINUOUS
10
3.52459
20
-2.54923
11
3.52747
21
-2.54866
0
LINE
8
BLACK
6
CONTINUOUS
10
3.52747
20
-2.54866
11
3.53073
21
-2.54648
0
LINE
8
BLACK
6
CONTINUOUS
10
3.53073
20
-2.54648
11
3.53291
21
-2.54322
0
LINE
8
BLACK
6
CONTINUOUS
10
3.53291
20
-2.54322
11
3.53348
21
-2.54034
0
LINE
8
BLACK
6
CONTINUOUS
10
3.53348
20
-2.54034
11
3.53348
21
-2.43013
0
LINE
8
BLACK
6
CONTINUOUS
10
3.53348
20
-2.43013
11
3.53348
21
-2.43013
0
LINE
8
BLACK
6
CONTINUOUS
10
3.53348
20
-2.43013
11
3.53306
21
-2.42797
0
LINE
8
BLACK
6
CONTINUOUS
10
3.53306
20
-2.42797
11
3.53291
21
-2.42725
0
LINE
8
BLACK
6
CONTINUOUS
10
3.53291
20
-2.42725
11
3.53073
21
-2.42399
0
LINE
8
BLACK
6
CONTINUOUS
10
3.53073
20
-2.42399
11
3.52756
21
-2.42187
0
LINE
8
BLACK
6
CONTINUOUS
10
3.52756
20
-2.42187
11
3.52747
21
-2.42181
0
LINE
8
BLACK
6
CONTINUOUS
10
3.52747
20
-2.42181
11
3.52747
21
-2.42181
0
LINE
8
BLACK
6
CONTINUOUS
10
3.52747
20
-2.42181
11
3.52459
21
-2.42124
0
LINE
8
BLACK
6
CONTINUOUS
10
3.52459
20
-2.42124
11
3.52459
21
-2.42124
0
LINE
8
BLACK
6
CONTINUOUS
10
3.52459
20
-2.42124
11
3.50633
21
-2.42124
0
LINE
8
BLACK
6
CONTINUOUS
10
3.50633
20
-2.42124
11
3.5037
21
-2.42047
0
LINE
8
BLACK
6
CONTINUOUS
10
3.5037
20
-2.42047
11
3.50189
21
-2.41839
0
LINE
8
BLACK
6
CONTINUOUS
10
3.50189
20
-2.41839
11
3.5015
21
-2.41566
0
LINE
8
BLACK
6
CONTINUOUS
10
3.5015
20
-2.41566
11
3.50265
21
-2.41316
0
LINE
8
BLACK
6
CONTINUOUS
10
3.50265
20
-2.41316
11
3.50288
21
-2.41291
0
LINE
8
BLACK
6
CONTINUOUS
10
3.50288
20
-2.41291
11
3.50791
21
-2.40788
0
LINE
8
BLACK
6
CONTINUOUS
10
3.50791
20
-2.40788
11
3.51769
21
-2.3981
0
LINE
8
BLACK
6
CONTINUOUS
10
3.51769
20
-2.3981
11
3.5201
21
-2.39678
0
LINE
8
BLACK
6
CONTINUOUS
10
3.5201
20
-2.39678
11
3.52114
21
-2.39667
0
LINE
8
BLACK
6
CONTINUOUS
10
3.52114
20
-2.39667
11
3.54076
21
-2.39667
0
LINE
8
BLACK
6
CONTINUOUS
10
3.54076
20
-2.39667
11
3.5434
21
-2.39745
0
LINE
8
BLACK
6
CONTINUOUS
10
3.5434
20
-2.39745
11
3.5452
21
-2.39953
0
LINE
8
BLACK
6
CONTINUOUS
10
3.5452
20
-2.39953
11
3.54559
21
-2.40225
0
LINE
8
BLACK
6
CONTINUOUS
10
3.54559
20
-2.40225
11
3.54478
21
-2.40433
0
LINE
8
BLACK
6
CONTINUOUS
10
3.54478
20
-2.40433
11
3.54409
21
-2.40533
0
LINE
8
BLACK
6
CONTINUOUS
10
3.54409
20
-2.40533
11
3.54409
21
-2.40533
0
LINE
8
BLACK
6
CONTINUOUS
10
3.54409
20
-2.40533
11
3.54188
21
-2.41115
0
LINE
8
BLACK
6
CONTINUOUS
10
3.54188
20
-2.41115
11
3.54113
21
-2.41732
0
LINE
8
BLACK
6
CONTINUOUS
10
3.54113
20
-2.41732
11
3.54113
21
-2.41732
0
LINE
8
BLACK
6
CONTINUOUS
10
3.54113
20
-2.41732
11
3.54188
21
-2.4235
0
LINE
8
BLACK
6
CONTINUOUS
10
3.54188
20
-2.4235
11
3.54193
21
-2.4237
0
LINE
8
BLACK
6
CONTINUOUS
10
3.54193
20
-2.4237
11
3.54193
21
-2.42383
0
LINE
8
BLACK
6
CONTINUOUS
10
3.54193
20
-2.42383
11
3.542
21
-2.42391
0
LINE
8
BLACK
6
CONTINUOUS
10
3.542
20
-2.42391
11
3.54224
21
-2.42444
0
LINE
8
BLACK
6
CONTINUOUS
10
3.54224
20
-2.42444
11
3.54409
21
-2.42931
0
LINE
8
BLACK
6
CONTINUOUS
10
3.54409
20
-2.42931
11
3.54762
21
-2.43443
0
LINE
8
BLACK
6
CONTINUOUS
10
3.54762
20
-2.43443
11
3.55
21
-2.43654
0
LINE
8
BLACK
6
CONTINUOUS
10
3.55
20
-2.43654
11
3.55149
21
-2.43786
0
LINE
8
BLACK
6
CONTINUOUS
10
3.55149
20
-2.43786
11
3.55295
21
-2.44019
0
LINE
8
BLACK
6
CONTINUOUS
10
3.55295
20
-2.44019
11
3.55313
21
-2.44151
0
LINE
8
BLACK
6
CONTINUOUS
10
3.55313
20
-2.44151
11
3.55313
21
-2.53442
0
LINE
8
BLACK
6
CONTINUOUS
10
3.55313
20
-2.53442
11
3.55235
21
-2.53706
0
LINE
8
BLACK
6
CONTINUOUS
10
3.55235
20
-2.53706
11
3.55174
21
-2.53778
0
LINE
8
BLACK
6
CONTINUOUS
10
3.55174
20
-2.53778
11
3.55175
21
-2.53779
0
LINE
8
BLACK
6
CONTINUOUS
10
3.55175
20
-2.53779
11
3.55156
21
-2.53801
0
LINE
8
BLACK
6
CONTINUOUS
10
3.55156
20
-2.53801
11
3.54802
21
-2.54313
0
LINE
8
BLACK
6
CONTINUOUS
10
3.54802
20
-2.54313
11
3.54802
21
-2.54313
0
LINE
8
BLACK
6
CONTINUOUS
10
3.54802
20
-2.54313
11
3.54582
21
-2.54894
0
LINE
8
BLACK
6
CONTINUOUS
10
3.54582
20
-2.54894
11
3.54507
21
-2.55512
0
LINE
8
BLACK
6
CONTINUOUS
10
3.54507
20
-2.55512
11
3.54507
21
-2.55512
0
LINE
8
BLACK
6
CONTINUOUS
10
3.54507
20
-2.55512
11
3.54582
21
-2.56129
0
LINE
8
BLACK
6
CONTINUOUS
10
3.54582
20
-2.56129
11
3.5474
21
-2.56546
0
LINE
8
BLACK
6
CONTINUOUS
10
3.5474
20
-2.56546
11
3.54802
21
-2.56711
0
LINE
8
BLACK
6
CONTINUOUS
10
3.54802
20
-2.56711
11
3.55156
21
-2.57223
0
LINE
8
BLACK
6
CONTINUOUS
10
3.55156
20
-2.57223
11
3.55621
21
-2.57635
0
LINE
8
BLACK
6
CONTINUOUS
10
3.55621
20
-2.57635
11
3.55621
21
-2.57635
0
LINE
8
BLACK
6
CONTINUOUS
10
3.55621
20
-2.57635
11
3.56172
21
-2.57924
0
LINE
8
BLACK
6
CONTINUOUS
10
3.56172
20
-2.57924
11
3.56776
21
-2.58073
0
LINE
8
BLACK
6
CONTINUOUS
10
3.56776
20
-2.58073
11
3.56776
21
-2.58073
0
LINE
8
BLACK
6
CONTINUOUS
10
3.56776
20
-2.58073
11
3.57398
21
-2.58073
0
LINE
8
BLACK
6
CONTINUOUS
10
3.57398
20
-2.58073
11
3.58001
21
-2.57924
0
LINE
8
BLACK
6
CONTINUOUS
10
3.58001
20
-2.57924
11
3.58238
21
-2.578
0
LINE
8
BLACK
6
CONTINUOUS
10
3.58238
20
-2.578
11
3.58507
21
-2.57746
0
LINE
8
BLACK
6
CONTINUOUS
10
3.58507
20
-2.57746
11
3.58691
21
-2.578
0
LINE
8
BLACK
6
CONTINUOUS
10
3.58691
20
-2.578
11
3.58928
21
-2.57924
0
LINE
8
BLACK
6
CONTINUOUS
10
3.58928
20
-2.57924
11
3.5923
21
-2.57998
0
LINE
8
BLACK
6
CONTINUOUS
10
3.5923
20
-2.57998
11
3.59532
21
-2.58073
0
LINE
8
BLACK
6
CONTINUOUS
10
3.59532
20
-2.58073
11
3.59532
21
-2.58073
0
LINE
8
BLACK
6
CONTINUOUS
10
3.59532
20
-2.58073
11
3.60153
21
-2.58073
0
LINE
8
BLACK
6
CONTINUOUS
10
3.60153
20
-2.58073
11
3.60757
21
-2.57924
0
LINE
8
BLACK
6
CONTINUOUS
10
3.60757
20
-2.57924
11
3.60773
21
-2.57916
0
LINE
8
BLACK
6
CONTINUOUS
10
3.60773
20
-2.57916
11
3.61308
21
-2.57635
0
LINE
8
BLACK
6
CONTINUOUS
10
3.61308
20
-2.57635
11
3.61774
21
-2.57223
0
LINE
8
BLACK
6
CONTINUOUS
10
3.61774
20
-2.57223
11
3.62127
21
-2.56711
0
LINE
8
BLACK
6
CONTINUOUS
10
3.62127
20
-2.56711
11
3.62347
21
-2.56129
0
LINE
8
BLACK
6
CONTINUOUS
10
3.62347
20
-2.56129
11
3.62422
21
-2.55512
0
LINE
8
BLACK
6
CONTINUOUS
10
3.62422
20
-2.55512
11
3.62351
21
-2.54923
0
LINE
8
BLACK
6
CONTINUOUS
10
3.62351
20
-2.54923
11
3.62347
21
-2.54894
0
LINE
8
BLACK
6
CONTINUOUS
10
3.62347
20
-2.54894
11
3.6213
21
-2.54322
0
LINE
8
BLACK
6
CONTINUOUS
10
3.6213
20
-2.54322
11
3.62127
21
-2.54313
0
LINE
8
BLACK
6
CONTINUOUS
10
3.62127
20
-2.54313
11
3.61774
21
-2.53801
0
LINE
8
BLACK
6
CONTINUOUS
10
3.61774
20
-2.53801
11
3.61749
21
-2.53779
0
LINE
8
BLACK
6
CONTINUOUS
10
3.61749
20
-2.53779
11
3.61485
21
-2.53546
0
LINE
8
BLACK
6
CONTINUOUS
10
3.61485
20
-2.53546
11
3.61339
21
-2.53313
0
LINE
8
BLACK
6
CONTINUOUS
10
3.61339
20
-2.53313
11
3.61321
21
-2.5318
0
LINE
8
BLACK
6
CONTINUOUS
10
3.61321
20
-2.5318
11
3.61321
21
-2.44064
0
LINE
8
BLACK
6
CONTINUOUS
10
3.61321
20
-2.44064
11
3.61398
21
-2.438
0
LINE
8
BLACK
6
CONTINUOUS
10
3.61398
20
-2.438
11
3.61485
21
-2.43698
0
LINE
8
BLACK
6
CONTINUOUS
10
3.61485
20
-2.43698
11
3.61774
21
-2.43443
0
LINE
8
BLACK
6
CONTINUOUS
10
3.61774
20
-2.43443
11
3.61813
21
-2.43386
0
LINE
8
BLACK
6
CONTINUOUS
10
3.61813
20
-2.43386
11
3.62127
21
-2.42931
0
LINE
8
BLACK
6
CONTINUOUS
10
3.62127
20
-2.42931
11
3.62347
21
-2.4235
0
LINE
8
BLACK
6
CONTINUOUS
10
3.62347
20
-2.4235
11
3.62422
21
-2.41732
0
LINE
8
BLACK
6
CONTINUOUS
10
3.62422
20
-2.41732
11
3.62402
21
-2.41566
0
LINE
8
BLACK
6
CONTINUOUS
10
3.62402
20
-2.41566
11
3.62347
21
-2.41115
0
LINE
8
BLACK
6
CONTINUOUS
10
3.62347
20
-2.41115
11
3.62224
21
-2.40788
0
LINE
8
BLACK
6
CONTINUOUS
10
3.62224
20
-2.40788
11
3.62127
21
-2.40533
0
LINE
8
BLACK
6
CONTINUOUS
10
3.62127
20
-2.40533
11
3.62057
21
-2.40433
0
LINE
8
BLACK
6
CONTINUOUS
10
3.62057
20
-2.40433
11
3.61971
21
-2.40172
0
LINE
8
BLACK
6
CONTINUOUS
10
3.61971
20
-2.40172
11
3.6204
21
-2.39905
0
LINE
8
BLACK
6
CONTINUOUS
10
3.6204
20
-2.39905
11
3.62242
21
-2.39718
0
LINE
8
BLACK
6
CONTINUOUS
10
3.62242
20
-2.39718
11
3.62459
21
-2.39667
0
LINE
8
BLACK
6
CONTINUOUS
10
3.62459
20
-2.39667
11
3.63388
21
-2.39667
0
LINE
8
BLACK
6
CONTINUOUS
10
3.63388
20
-2.39667
11
3.63652
21
-2.39745
0
LINE
8
BLACK
6
CONTINUOUS
10
3.63652
20
-2.39745
11
3.63832
21
-2.39953
0
LINE
8
BLACK
6
CONTINUOUS
10
3.63832
20
-2.39953
11
3.63876
21
-2.40156
0
LINE
8
BLACK
6
CONTINUOUS
10
3.63876
20
-2.40156
11
3.63876
21
-2.68211
0
LINE
8
BLACK
6
CONTINUOUS
10
3.63876
20
-2.68211
11
3.63798
21
-2.68475
0
LINE
8
BLACK
6
CONTINUOUS
10
3.63798
20
-2.68475
11
3.63591
21
-2.68655
0
LINE
8
BLACK
6
CONTINUOUS
10
3.63591
20
-2.68655
11
3.63388
21
-2.68699
0
LINE
8
BLACK
6
CONTINUOUS
10
3.63388
20
-2.68699
11
3.61123
21
-2.68699
0
LINE
8
BLACK
6
CONTINUOUS
10
3.61123
20
-2.68699
11
3.60836
21
-2.68756
0
LINE
8
BLACK
6
CONTINUOUS
10
3.60836
20
-2.68756
11
3.60836
21
-2.68756
0
LINE
8
BLACK
6
CONTINUOUS
10
3.60836
20
-2.68756
11
3.60509
21
-2.68974
0
LINE
8
BLACK
6
CONTINUOUS
10
3.60509
20
-2.68974
11
3.60291
21
-2.693
0
LINE
8
BLACK
6
CONTINUOUS
10
3.60291
20
-2.693
11
3.60291
21
-2.693
0
LINE
8
BLACK
6
CONTINUOUS
10
3.60291
20
-2.693
11
3.60234
21
-2.69588
0
LINE
8
BLACK
6
CONTINUOUS
10
3.60234
20
-2.69588
11
3.60234
21
-2.73719
0
LINE
8
BLACK
6
CONTINUOUS
10
3.60234
20
-2.73719
11
3.60291
21
-2.74007
0
LINE
8
BLACK
6
CONTINUOUS
10
3.60291
20
-2.74007
11
3.60291
21
-2.74007
0
LINE
8
BLACK
6
CONTINUOUS
10
3.60291
20
-2.74007
11
3.60291
21
-2.74007
0
LINE
8
BLACK
6
CONTINUOUS
10
3.60291
20
-2.74007
11
3.60509
21
-2.74333
0
LINE
8
BLACK
6
CONTINUOUS
10
3.60509
20
-2.74333
11
3.60836
21
-2.74551
0
LINE
8
BLACK
6
CONTINUOUS
10
3.60836
20
-2.74551
11
3.60836
21
-2.74551
0
LINE
8
BLACK
6
CONTINUOUS
10
3.60836
20
-2.74551
11
3.60836
21
-2.74551
0
LINE
8
BLACK
6
CONTINUOUS
10
3.60836
20
-2.74551
11
3.61123
21
-2.74608
0
LINE
8
BLACK
6
CONTINUOUS
10
3.61123
20
-2.74608
11
3.61123
21
-2.74608
0
LINE
8
BLACK
6
CONTINUOUS
10
3.61123
20
-2.74608
11
3.61123
21
-2.74608
0
LINE
8
BLACK
6
CONTINUOUS
10
3.61123
20
-2.74608
11
3.72144
21
-2.74608
0
LINE
8
BLACK
6
CONTINUOUS
10
3.72144
20
-2.74608
11
3.72144
21
-2.74608
0
LINE
8
BLACK
6
CONTINUOUS
10
3.72144
20
-2.74608
11
3.72432
21
-2.74551
0
LINE
8
BLACK
6
CONTINUOUS
10
3.72432
20
-2.74551
11
3.72758
21
-2.74333
0
LINE
8
BLACK
6
CONTINUOUS
10
3.72758
20
-2.74333
11
3.72976
21
-2.74007
0
LINE
8
BLACK
6
CONTINUOUS
10
3.72976
20
-2.74007
11
3.73033
21
-2.73719
0
LINE
8
BLACK
6
CONTINUOUS
10
3.73033
20
-2.73719
11
3.73033
21
-2.69588
0
LINE
8
BLACK
6
CONTINUOUS
10
3.73033
20
-2.69588
11
3.73033
21
-2.69588
0
LINE
8
BLACK
6
CONTINUOUS
10
3.73033
20
-2.69588
11
3.73033
21
-2.69588
0
LINE
8
BLACK
6
CONTINUOUS
10
3.73033
20
-2.69588
11
3.73033
21
-2.69588
0
LINE
8
BLACK
6
CONTINUOUS
10
3.73033
20
-2.69588
11
3.72976
21
-2.693
0
LINE
8
BLACK
6
CONTINUOUS
10
3.72976
20
-2.693
11
3.72976
21
-2.693
0
LINE
8
BLACK
6
CONTINUOUS
10
3.72976
20
-2.693
11
3.72901
21
-2.69188
0
LINE
8
BLACK
6
CONTINUOUS
10
3.72901
20
-2.69188
11
3.72758
21
-2.68974
0
LINE
8
BLACK
6
CONTINUOUS
10
3.72758
20
-2.68974
11
3.72432
21
-2.68756
0
LINE
8
BLACK
6
CONTINUOUS
10
3.72432
20
-2.68756
11
3.72432
21
-2.68756
0
LINE
8
BLACK
6
CONTINUOUS
10
3.72432
20
-2.68756
11
3.72432
21
-2.68756
0
LINE
8
BLACK
6
CONTINUOUS
10
3.72432
20
-2.68756
11
3.72144
21
-2.68699
0
LINE
8
BLACK
6
CONTINUOUS
10
3.72144
20
-2.68699
11
3.72144
21
-2.68699
0
LINE
8
BLACK
6
CONTINUOUS
10
3.72144
20
-2.68699
11
3.67321
21
-2.68699
0
LINE
8
BLACK
6
CONTINUOUS
10
3.67321
20
-2.68699
11
3.67057
21
-2.68621
0
LINE
8
BLACK
6
CONTINUOUS
10
3.67057
20
-2.68621
11
3.66877
21
-2.68413
0
LINE
8
BLACK
6
CONTINUOUS
10
3.66877
20
-2.68413
11
3.66833
21
-2.68211
0
LINE
8
BLACK
6
CONTINUOUS
10
3.66833
20
-2.68211
11
3.66833
21
-2.3826
0
LINE
8
BLACK
6
CONTINUOUS
10
3.66833
20
-2.3826
11
3.66834
21
-2.3824
0
LINE
8
BLACK
6
CONTINUOUS
10
3.66834
20
-2.3824
11
3.66841
21
-2.38155
0
LINE
8
BLACK
6
CONTINUOUS
10
3.66841
20
-2.38155
11
3.66848
21
-2.38065
0
LINE
8
BLACK
6
CONTINUOUS
10
3.66848
20
-2.38065
11
3.66805
21
-2.37895
0
LINE
8
BLACK
6
CONTINUOUS
10
3.66805
20
-2.37895
11
3.66801
21
-2.37875
0
LINE
8
BLACK
6
CONTINUOUS
10
3.66801
20
-2.37875
11
3.66772
21
-2.37702
0
LINE
8
BLACK
6
CONTINUOUS
10
3.66772
20
-2.37702
11
3.66771
21
-2.37701
0
LINE
8
BLACK
6
CONTINUOUS
10
3.66771
20
-2.37701
11
3.66727
21
-2.37588
0
LINE
8
BLACK
6
CONTINUOUS
10
3.66727
20
-2.37588
11
3.66727
21
-2.37587
0
LINE
8
BLACK
6
CONTINUOUS
10
3.66727
20
-2.37587
11
3.66727
21
-2.37587
0
LINE
8
BLACK
6
CONTINUOUS
10
3.66727
20
-2.37587
11
3.66631
21
-2.3744
0
LINE
8
BLACK
6
CONTINUOUS
10
3.66631
20
-2.3744
11
3.66621
21
-2.37423
0
LINE
8
BLACK
6
CONTINUOUS
10
3.66621
20
-2.37423
11
3.66537
21
-2.37268
0
LINE
8
BLACK
6
CONTINUOUS
10
3.66537
20
-2.37268
11
3.66536
21
-2.37267
0
LINE
8
BLACK
6
CONTINUOUS
10
3.66536
20
-2.37267
11
3.66458
21
-2.37175
0
LINE
8
BLACK
6
CONTINUOUS
10
3.66458
20
-2.37175
11
3.66457
21
-2.37174
0
LINE
8
BLACK
6
CONTINUOUS
10
3.66457
20
-2.37174
11
3.66457
21
-2.37174
0
LINE
8
BLACK
6
CONTINUOUS
10
3.66457
20
-2.37174
11
3.66319
21
-2.37066
0
LINE
8
BLACK
6
CONTINUOUS
10
3.66319
20
-2.37066
11
3.66303
21
-2.37053
0
LINE
8
BLACK
6
CONTINUOUS
10
3.66303
20
-2.37053
11
3.66232
21
-2.36987
0
LINE
8
BLACK
6
CONTINUOUS
10
3.66232
20
-2.36987
11
3.66174
21
-2.36934
0
LINE
8
BLACK
6
CONTINUOUS
10
3.66174
20
-2.36934
11
3.66173
21
-2.36934
0
LINE
8
BLACK
6
CONTINUOUS
10
3.66173
20
-2.36934
11
3.66069
21
-2.36872
0
LINE
8
BLACK
6
CONTINUOUS
10
3.66069
20
-2.36872
11
3.66068
21
-2.36871
0
LINE
8
BLACK
6
CONTINUOUS
10
3.66068
20
-2.36871
11
3.65902
21
-2.36814
0
LINE
8
BLACK
6
CONTINUOUS
10
3.65902
20
-2.36814
11
3.65883
21
-2.36807
0
LINE
8
BLACK
6
CONTINUOUS
10
3.65883
20
-2.36807
11
3.65722
21
-2.36736
0
LINE
8
BLACK
6
CONTINUOUS
10
3.65722
20
-2.36736
11
3.65722
21
-2.36736
0
LINE
8
BLACK
6
CONTINUOUS
10
3.65722
20
-2.36736
11
3.65721
21
-2.36736
0
LINE
8
BLACK
6
CONTINUOUS
10
3.65721
20
-2.36736
11
3.65603
21
-2.36711
0
LINE
8
BLACK
6
CONTINUOUS
10
3.65603
20
-2.36711
11
3.65601
21
-2.36711
0
LINE
8
BLACK
6
CONTINUOUS
10
3.65601
20
-2.36711
11
3.65426
21
-2.36711
0
LINE
8
BLACK
6
CONTINUOUS
10
3.65426
20
-2.36711
11
3.65405
21
-2.3671
0
LINE
8
BLACK
6
CONTINUOUS
10
3.65405
20
-2.3671
11
3.6537
21
-2.36707
0
LINE
8
BLACK
6
CONTINUOUS
10
3.6537
20
-2.36707
11
3.65231
21
-2.36695
0
LINE
8
BLACK
6
CONTINUOUS
10
3.65231
20
-2.36695
11
3.6523
21
-2.36695
0
LINE
8
BLACK
6
CONTINUOUS
10
3.6523
20
-2.36695
11
3.65229
21
-2.36696
0
LINE
8
BLACK
6
CONTINUOUS
10
3.65229
20
-2.36696
11
3.65109
21
-2.36711
0
LINE
8
BLACK
6
CONTINUOUS
10
3.65109
20
-2.36711
11
3.51503
21
-2.36711
0
LINE
8
BLACK
6
CONTINUOUS
10
3.51503
20
-2.36711
11
3.51403
21
-2.367
0
LINE
8
BLACK
6
CONTINUOUS
10
3.51403
20
-2.367
11
3.51361
21
-2.36691
0
LINE
8
BLACK
6
CONTINUOUS
10
3.51361
20
-2.36691
11
3.51361
21
-2.36691
0
LINE
8
BLACK
6
CONTINUOUS
10
3.51361
20
-2.36691
11
3.51222
21
-2.36709
0
LINE
8
BLACK
6
CONTINUOUS
10
3.51222
20
-2.36709
11
3.51192
21
-2.36711
0
LINE
8
BLACK
6
CONTINUOUS
10
3.51192
20
-2.36711
11
3.51177
21
-2.36711
0
LINE
8
BLACK
6
CONTINUOUS
10
3.51177
20
-2.36711
11
3.51091
21
-2.36725
0
LINE
8
BLACK
6
CONTINUOUS
10
3.51091
20
-2.36725
11
3.51081
21
-2.36726
0
LINE
8
BLACK
6
CONTINUOUS
10
3.51081
20
-2.36726
11
3.50872
21
-2.36752
0
LINE
8
BLACK
6
CONTINUOUS
10
3.50872
20
-2.36752
11
3.50842
21
-2.36761
0
LINE
8
BLACK
6
CONTINUOUS
10
3.50842
20
-2.36761
11
3.50813
21
-2.36771
0
LINE
8
BLACK
6
CONTINUOUS
10
3.50813
20
-2.36771
11
3.50627
21
-2.36872
0
LINE
8
BLACK
6
CONTINUOUS
10
3.50627
20
-2.36872
11
3.50618
21
-2.36876
0
LINE
8
BLACK
6
CONTINUOUS
10
3.50618
20
-2.36876
11
3.50428
21
-2.36969
0
LINE
8
BLACK
6
CONTINUOUS
10
3.50428
20
-2.36969
11
3.50403
21
-2.36987
0
LINE
8
BLACK
6
CONTINUOUS
10
3.50403
20
-2.36987
11
3.50379
21
-2.37006
0
LINE
8
BLACK
6
CONTINUOUS
10
3.50379
20
-2.37006
11
3.50236
21
-2.37162
0
LINE
8
BLACK
6
CONTINUOUS
10
3.50236
20
-2.37162
11
3.50229
21
-2.37169
0
LINE
8
BLACK
6
CONTINUOUS
10
3.50229
20
-2.37169
11
3.48768
21
-2.38629
0
LINE
8
BLACK
6
CONTINUOUS
10
3.48768
20
-2.38629
11
3.48527
21
-2.38761
0
LINE
8
BLACK
6
CONTINUOUS
10
3.48527
20
-2.38761
11
3.48253
21
-2.38741
0
LINE
8
BLACK
6
CONTINUOUS
10
3.48253
20
-2.38741
11
3.48032
21
-2.38576
0
LINE
8
BLACK
6
CONTINUOUS
10
3.48032
20
-2.38576
11
3.47936
21
-2.38319
0
LINE
8
BLACK
6
CONTINUOUS
10
3.47936
20
-2.38319
11
3.47935
21
-2.38284
0
LINE
8
BLACK
6
CONTINUOUS
10
3.47935
20
-2.38284
11
3.47935
21
-2.30805
0
LINE
8
BLACK
6
CONTINUOUS
10
3.47935
20
-2.30805
11
3.48013
21
-2.30541
0
LINE
8
BLACK
6
CONTINUOUS
10
3.48013
20
-2.30541
11
3.4822
21
-2.30361
0
LINE
8
BLACK
6
CONTINUOUS
10
3.4822
20
-2.30361
11
3.48423
21
-2.30317
0
LINE
8
BLACK
6
CONTINUOUS
10
3.48423
20
-2.30317
11
3.52459
21
-2.30317
0
LINE
8
BLACK
6
CONTINUOUS
10
3.52459
20
-2.30317
11
3.52459
21
-2.30317
0
LINE
8
BLACK
6
CONTINUOUS
10
3.52459
20
-2.30317
11
3.52747
21
-2.3026
0
LINE
8
BLACK
6
CONTINUOUS
10
3.52747
20
-2.3026
11
3.53073
21
-2.30042
0
LINE
8
BLACK
6
CONTINUOUS
10
3.53073
20
-2.30042
11
3.53291
21
-2.29716
0
LINE
8
BLACK
6
CONTINUOUS
10
3.53291
20
-2.29716
11
3.53348
21
-2.29428
0
LINE
8
BLACK
6
CONTINUOUS
10
3.53348
20
-2.29428
11
3.53348
21
-2.24902
0
LINE
8
BLACK
6
CONTINUOUS
10
3.53348
20
-2.24902
11
3.53348
21
-2.22933
0
LINE
8
BLACK
6
CONTINUOUS
10
3.53348
20
-2.22933
11
3.53348
21
-2.18407
0
LINE
8
BLACK
6
CONTINUOUS
10
3.53348
20
-2.18407
11
3.53348
21
-2.18407
0
LINE
8
BLACK
6
CONTINUOUS
10
3.53348
20
-2.18407
11
3.53348
21
-2.18407
0
LINE
8
BLACK
6
CONTINUOUS
10
3.53348
20
-2.18407
11
3.53291
21
-2.18119
0
LINE
8
BLACK
6
CONTINUOUS
10
3.53291
20
-2.18119
11
3.53291
21
-2.18119
0
LINE
8
BLACK
6
CONTINUOUS
10
3.53291
20
-2.18119
11
3.53291
21
-2.18119
0
LINE
8
BLACK
6
CONTINUOUS
10
3.53291
20
-2.18119
11
3.53073
21
-2.17793
0
LINE
8
BLACK
6
CONTINUOUS
10
3.53073
20
-2.17793
11
3.52747
21
-2.17575
0
LINE
8
BLACK
6
CONTINUOUS
10
3.52747
20
-2.17575
11
3.52747
21
-2.17575
0
LINE
8
BLACK
6
CONTINUOUS
10
3.52747
20
-2.17575
11
3.52747
21
-2.17575
0
LINE
8
BLACK
6
CONTINUOUS
10
3.52747
20
-2.17575
11
3.52459
21
-2.17518
0
LINE
8
BLACK
6
CONTINUOUS
10
3.52459
20
-2.17518
11
3.52459
21
-2.17518
0
LINE
8
BLACK
6
CONTINUOUS
10
3.52459
20
-2.17518
11
3.48328
21
-2.17518
0
LINE
8
BLACK
6
CONTINUOUS
10
3.48328
20
-2.17518
11
3.48328
21
-2.17518
0
LINE
8
BLACK
6
CONTINUOUS
10
3.48328
20
-2.17518
11
3.4804
21
-2.17575
0
LINE
8
BLACK
6
CONTINUOUS
10
3.4804
20
-2.17575
11
3.4804
21
-2.17575
0
LINE
8
BLACK
6
CONTINUOUS
10
3.4804
20
-2.17575
11
3.47714
21
-2.17793
0
LINE
8
BLACK
6
CONTINUOUS
10
3.47714
20
-2.17793
11
3.47496
21
-2.18119
0
LINE
8
BLACK
6
CONTINUOUS
10
3.47496
20
-2.18119
11
3.47496
21
-2.18119
0
LINE
8
BLACK
6
CONTINUOUS
10
3.47496
20
-2.18119
11
3.47439
21
-2.18407
0
LINE
8
BLACK
6
CONTINUOUS
10
3.47439
20
-2.18407
11
3.47439
21
-2.21935
0
LINE
8
BLACK
6
CONTINUOUS
10
3.47439
20
-2.21935
11
3.47361
21
-2.22199
0
LINE
8
BLACK
6
CONTINUOUS
10
3.47361
20
-2.22199
11
3.47154
21
-2.22379
0
LINE
8
BLACK
6
CONTINUOUS
10
3.47154
20
-2.22379
11
3.47011
21
-2.2242
0
LINE
8
BLACK
6
CONTINUOUS
10
3.47011
20
-2.2242
11
3.46872
21
-2.22437
0
LINE
8
BLACK
6
CONTINUOUS
10
3.46872
20
-2.22437
11
3.46842
21
-2.22439
0
LINE
8
BLACK
6
CONTINUOUS
10
3.46842
20
-2.22439
11
3.46826
21
-2.22439
0
LINE
8
BLACK
6
CONTINUOUS
10
3.46826
20
-2.22439
11
3.46741
21
-2.22453
0
LINE
8
BLACK
6
CONTINUOUS
10
3.46741
20
-2.22453
11
3.46731
21
-2.22455
0
LINE
8
BLACK
6
CONTINUOUS
10
3.46731
20
-2.22455
11
3.46521
21
-2.22481
0
LINE
8
BLACK
6
CONTINUOUS
10
3.46521
20
-2.22481
11
3.46492
21
-2.2249
0
LINE
8
BLACK
6
CONTINUOUS
10
3.46492
20
-2.2249
11
3.46462
21
-2.225
0
LINE
8
BLACK
6
CONTINUOUS
10
3.46462
20
-2.225
11
3.46277
21
-2.226
0
LINE
8
BLACK
6
CONTINUOUS
10
3.46277
20
-2.226
11
3.46268
21
-2.22605
0
LINE
8
BLACK
6
CONTINUOUS
10
3.46268
20
-2.22605
11
3.46078
21
-2.22698
0
LINE
8
BLACK
6
CONTINUOUS
10
3.46078
20
-2.22698
11
3.46053
21
-2.22716
0
LINE
8
BLACK
6
CONTINUOUS
10
3.46053
20
-2.22716
11
3.46028
21
-2.22735
0
LINE
8
BLACK
6
CONTINUOUS
10
3.46028
20
-2.22735
11
3.45885
21
-2.2289
0
LINE
8
BLACK
6
CONTINUOUS
10
3.45885
20
-2.2289
11
3.45878
21
-2.22897
0
LINE
8
BLACK
6
CONTINUOUS
10
3.45878
20
-2.22897
11
3.45556
21
-2.2322
0
LINE
8
BLACK
6
CONTINUOUS
10
3.45556
20
-2.2322
11
3.45477
21
-2.23283
0
LINE
8
BLACK
6
CONTINUOUS
10
3.45477
20
-2.23283
11
3.45442
21
-2.23307
0
LINE
8
BLACK
6
CONTINUOUS
10
3.45442
20
-2.23307
11
3.45442
21
-2.23307
0
LINE
8
BLACK
6
CONTINUOUS
10
3.45442
20
-2.23307
11
3.45356
21
-2.23417
0
LINE
8
BLACK
6
CONTINUOUS
10
3.45356
20
-2.23417
11
3.45336
21
-2.2344
0
LINE
8
BLACK
6
CONTINUOUS
10
3.45336
20
-2.2344
11
3.45325
21
-2.23451
0
LINE
8
BLACK
6
CONTINUOUS
10
3.45325
20
-2.23451
11
3.45325
21
-2.23451
0
LINE
8
BLACK
6
CONTINUOUS
10
3.45325
20
-2.23451
11
3.45274
21
-2.23521
0
LINE
8
BLACK
6
CONTINUOUS
10
3.45274
20
-2.23521
11
3.45268
21
-2.23529
0
LINE
8
BLACK
6
CONTINUOUS
10
3.45268
20
-2.23529
11
3.45139
21
-2.23696
0
LINE
8
BLACK
6
CONTINUOUS
10
3.45139
20
-2.23696
11
3.45124
21
-2.23723
0
LINE
8
BLACK
6
CONTINUOUS
10
3.45124
20
-2.23723
11
3.4511
21
-2.23751
0
LINE
8
BLACK
6
CONTINUOUS
10
3.4511
20
-2.23751
11
3.4505
21
-2.23953
0
LINE
8
BLACK
6
CONTINUOUS
10
3.4505
20
-2.23953
11
3.45047
21
-2.23963
0
LINE
8
BLACK
6
CONTINUOUS
10
3.45047
20
-2.23963
11
3.44978
21
-2.24163
0
LINE
8
BLACK
6
CONTINUOUS
10
3.44978
20
-2.24163
11
3.44973
21
-2.24193
0
LINE
8
BLACK
6
CONTINUOUS
10
3.44973
20
-2.24193
11
3.44969
21
-2.24224
0
LINE
8
BLACK
6
CONTINUOUS
10
3.44969
20
-2.24224
11
3.44978
21
-2.24435
0
LINE
8
BLACK
6
CONTINUOUS
10
3.44978
20
-2.24435
11
3.44978
21
-2.24445
0
LINE
8
BLACK
6
CONTINUOUS
10
3.44978
20
-2.24445
11
3.44978
21
-2.40788
0
LINE
8
BLACK
6
CONTINUOUS
10
3.44978
20
-2.40788
11
3.44901
21
-2.41052
0
LINE
8
BLACK
6
CONTINUOUS
10
3.44901
20
-2.41052
11
3.44717
21
-2.41221
0
LINE
8
BLACK
6
CONTINUOUS
10
3.44717
20
-2.41221
11
3.44637
21
-2.41263
0
LINE
8
BLACK
6
CONTINUOUS
10
3.44637
20
-2.41263
11
3.44637
21
-2.41263
0
LINE
8
BLACK
6
CONTINUOUS
10
3.44637
20
-2.41263
11
3.44294
21
-2.41566
0
LINE
8
BLACK
6
CONTINUOUS
10
3.44294
20
-2.41566
11
3.44171
21
-2.41675
0
LINE
8
BLACK
6
CONTINUOUS
10
3.44171
20
-2.41675
11
3.43818
21
-2.42187
0
LINE
8
BLACK
6
CONTINUOUS
10
3.43818
20
-2.42187
11
3.43818
21
-2.42187
0
LINE
8
BLACK
6
CONTINUOUS
10
3.43818
20
-2.42187
11
3.43597
21
-2.42768
0
LINE
8
BLACK
6
CONTINUOUS
10
3.43597
20
-2.42768
11
3.43523
21
-2.43386
0
LINE
8
BLACK
6
CONTINUOUS
10
3.43523
20
-2.43386
11
3.43523
21
-2.43386
0
LINE
8
BLACK
6
CONTINUOUS
10
3.43523
20
-2.43386
11
3.43597
21
-2.44003
0
LINE
8
BLACK
6
CONTINUOUS
10
3.43597
20
-2.44003
11
3.43818
21
-2.44585
0
LINE
8
BLACK
6
CONTINUOUS
10
3.43818
20
-2.44585
11
3.43818
21
-2.44585
0
LINE
8
BLACK
6
CONTINUOUS
10
3.43818
20
-2.44585
11
3.44171
21
-2.45097
0
LINE
8
BLACK
6
CONTINUOUS
10
3.44171
20
-2.45097
11
3.44637
21
-2.45509
0
LINE
8
BLACK
6
CONTINUOUS
10
3.44637
20
-2.45509
11
3.44637
21
-2.45509
0
LINE
8
BLACK
6
CONTINUOUS
10
3.44637
20
-2.45509
11
3.45188
21
-2.45798
0
LINE
8
BLACK
6
CONTINUOUS
10
3.45188
20
-2.45798
11
3.45791
21
-2.45947
0
LINE
8
BLACK
6
CONTINUOUS
10
3.45791
20
-2.45947
11
3.45791
21
-2.45947
0
LINE
8
BLACK
6
CONTINUOUS
10
3.45791
20
-2.45947
11
3.46413
21
-2.45947
0
LINE
8
BLACK
6
CONTINUOUS
10
3.46413
20
-2.45947
11
3.46834
21
-2.45843
0
LINE
8
BLACK
6
CONTINUOUS
10
3.46834
20
-2.45843
11
3.47109
21
-2.45855
0
LINE
8
BLACK
6
CONTINUOUS
10
3.47109
20
-2.45855
11
3.47333
21
-2.46014
0
LINE
8
BLACK
6
CONTINUOUS
10
3.47333
20
-2.46014
11
3.47437
21
-2.46269
0
LINE
8
BLACK
6
CONTINUOUS
10
3.47437
20
-2.46269
11
3.47439
21
-2.46317
0
LINE
8
BLACK
6
CONTINUOUS
10
3.47439
20
-2.46317
11
3.47439
21
-2.49185
0
LINE
8
BLACK
6
CONTINUOUS
10
3.47439
20
-2.49185
11
3.47361
21
-2.49449
0
LINE
8
BLACK
6
CONTINUOUS
10
3.47361
20
-2.49449
11
3.47296
21
-2.49531
0
LINE
8
BLACK
6
CONTINUOUS
10
3.47296
20
-2.49531
11
3.46479
21
-2.50347
0
LINE
8
BLACK
6
CONTINUOUS
10
3.46479
20
-2.50347
11
3.46238
21
-2.50479
0
LINE
8
BLACK
6
CONTINUOUS
10
3.46238
20
-2.50479
11
3.46134
21
-2.5049
0
LINE
8
BLACK
6
CONTINUOUS
10
3.46134
20
-2.5049
11
3.44756
21
-2.5049
0
LINE
8
BLACK
6
CONTINUOUS
10
3.44756
20
-2.5049
11
3.44492
21
-2.50413
0
LINE
8
BLACK
6
CONTINUOUS
10
3.44492
20
-2.50413
11
3.44312
21
-2.50205
0
LINE
8
BLACK
6
CONTINUOUS
10
3.44312
20
-2.50205
11
3.44272
21
-2.50061
0
LINE
8
BLACK
6
CONTINUOUS
10
3.44272
20
-2.50061
11
3.44237
21
-2.49776
0
LINE
8
BLACK
6
CONTINUOUS
10
3.44237
20
-2.49776
11
3.44017
21
-2.49195
0
LINE
8
BLACK
6
CONTINUOUS
10
3.44017
20
-2.49195
11
3.43663
21
-2.48683
0
LINE
8
BLACK
6
CONTINUOUS
10
3.43663
20
-2.48683
11
3.43198
21
-2.48271
0
LINE
8
BLACK
6
CONTINUOUS
10
3.43198
20
-2.48271
11
3.43198
21
-2.48271
0
LINE
8
BLACK
6
CONTINUOUS
10
3.43198
20
-2.48271
11
3.43198
21
-2.48271
0
LINE
8
BLACK
6
CONTINUOUS
10
3.43198
20
-2.48271
11
3.42647
21
-2.47982
0
LINE
8
BLACK
6
CONTINUOUS
10
3.42647
20
-2.47982
11
3.42043
21
-2.47833
0
LINE
8
BLACK
6
CONTINUOUS
10
3.42043
20
-2.47833
11
3.42043
21
-2.47833
0
LINE
8
BLACK
6
CONTINUOUS
10
3.42043
20
-2.47833
11
3.41421
21
-2.47833
0
LINE
8
BLACK
6
CONTINUOUS
10
3.41421
20
-2.47833
11
3.41421
21
-2.47833
0
LINE
8
BLACK
6
CONTINUOUS
10
3.41421
20
-2.47833
11
3.40817
21
-2.47982
0
LINE
8
BLACK
6
CONTINUOUS
10
3.40817
20
-2.47982
11
3.40267
21
-2.48271
0
LINE
8
BLACK
6
CONTINUOUS
10
3.40267
20
-2.48271
11
3.39801
21
-2.48683
0
LINE
8
BLACK
6
CONTINUOUS
10
3.39801
20
-2.48683
11
3.39448
21
-2.49195
0
LINE
8
BLACK
6
CONTINUOUS
10
3.39448
20
-2.49195
11
3.39448
21
-2.49195
0
LINE
8
BLACK
6
CONTINUOUS
10
3.39448
20
-2.49195
11
3.39227
21
-2.49776
0
LINE
8
BLACK
6
CONTINUOUS
10
3.39227
20
-2.49776
11
3.39152
21
-2.50394
0
LINE
8
BLACK
6
CONTINUOUS
10
3.39152
20
-2.50394
11
3.39152
21
-2.50394
0
LINE
8
BLACK
6
CONTINUOUS
10
3.39152
20
-2.50394
11
3.39227
21
-2.51011
0
LINE
8
BLACK
6
CONTINUOUS
10
3.39227
20
-2.51011
11
3.39448
21
-2.51593
0
LINE
8
BLACK
6
CONTINUOUS
10
3.39448
20
-2.51593
11
3.39448
21
-2.51593
0
LINE
8
BLACK
6
CONTINUOUS
10
3.39448
20
-2.51593
11
3.39801
21
-2.52104
0
LINE
8
BLACK
6
CONTINUOUS
10
3.39801
20
-2.52104
11
3.40089
21
-2.5236
0
LINE
8
BLACK
6
CONTINUOUS
10
3.40089
20
-2.5236
11
3.40236
21
-2.52593
0
LINE
8
BLACK
6
CONTINUOUS
10
3.40236
20
-2.52593
11
3.40254
21
-2.52725
0
LINE
8
BLACK
6
CONTINUOUS
10
3.40254
20
-2.52725
11
3.40254
21
-2.55485
0
LINE
8
BLACK
6
CONTINUOUS
10
3.40254
20
-2.55485
11
3.40176
21
-2.55749
0
LINE
8
BLACK
6
CONTINUOUS
10
3.40176
20
-2.55749
11
3.40111
21
-2.5583
0
LINE
8
BLACK
6
CONTINUOUS
10
3.40111
20
-2.5583
11
3.32957
21
-2.62984
0
LINE
8
BLACK
6
CONTINUOUS
10
3.32957
20
-2.62984
11
3.32879
21
-2.63047
0
LINE
8
BLACK
6
CONTINUOUS
10
3.32879
20
-2.63047
11
3.32843
21
-2.63071
0
LINE
8
BLACK
6
CONTINUOUS
10
3.32843
20
-2.63071
11
3.32843
21
-2.63071
0
LINE
8
BLACK
6
CONTINUOUS
10
3.32843
20
-2.63071
11
3.32757
21
-2.63181
0
LINE
8
BLACK
6
CONTINUOUS
10
3.32757
20
-2.63181
11
3.32737
21
-2.63203
0
LINE
8
BLACK
6
CONTINUOUS
10
3.32737
20
-2.63203
11
3.32726
21
-2.63214
0
LINE
8
BLACK
6
CONTINUOUS
10
3.32726
20
-2.63214
11
3.32726
21
-2.63215
0
LINE
8
BLACK
6
CONTINUOUS
10
3.32726
20
-2.63215
11
3.32676
21
-2.63285
0
LINE
8
BLACK
6
CONTINUOUS
10
3.32676
20
-2.63285
11
3.3267
21
-2.63293
0
LINE
8
BLACK
6
CONTINUOUS
10
3.3267
20
-2.63293
11
3.3254
21
-2.6346
0
LINE
8
BLACK
6
CONTINUOUS
10
3.3254
20
-2.6346
11
3.32525
21
-2.63487
0
LINE
8
BLACK
6
CONTINUOUS
10
3.32525
20
-2.63487
11
3.32512
21
-2.63515
0
LINE
8
BLACK
6
CONTINUOUS
10
3.32512
20
-2.63515
11
3.32452
21
-2.63717
0
LINE
8
BLACK
6
CONTINUOUS
10
3.32452
20
-2.63717
11
3.32448
21
-2.63727
0
LINE
8
BLACK
6
CONTINUOUS
10
3.32448
20
-2.63727
11
3.3238
21
-2.63927
0
LINE
8
BLACK
6
CONTINUOUS
10
3.3238
20
-2.63927
11
3.32375
21
-2.63957
0
LINE
8
BLACK
6
CONTINUOUS
10
3.32375
20
-2.63957
11
3.32371
21
-2.63988
0
LINE
8
BLACK
6
CONTINUOUS
10
3.32371
20
-2.63988
11
3.3238
21
-2.64199
0
LINE
8
BLACK
6
CONTINUOUS
10
3.3238
20
-2.64199
11
3.3238
21
-2.64209
0
LINE
8
BLACK
6
CONTINUOUS
10
3.3238
20
-2.64209
11
3.3238
21
-2.69087
0
LINE
8
BLACK
6
CONTINUOUS
10
3.3238
20
-2.69087
11
3.3237
21
-2.69188
0
LINE
8
BLACK
6
CONTINUOUS
10
3.3237
20
-2.69188
11
3.32361
21
-2.69229
0
LINE
8
BLACK
6
CONTINUOUS
10
3.32361
20
-2.69229
11
3.32361
21
-2.69229
0
LINE
8
BLACK
6
CONTINUOUS
10
3.32361
20
-2.69229
11
3.32361
21
-2.69229
0
LINE
8
BLACK
6
CONTINUOUS
10
3.32361
20
-2.69229
11
3.32378
21
-2.69368
0
LINE
8
BLACK
6
CONTINUOUS
10
2.91001
20
-2.38155
11
2.91001
21
-2.38155
0
LINE
8
BLACK
6
CONTINUOUS
10
2.91001
20
-2.38155
11
2.91001
21
-2.38155
0
LINE
8
BLACK
6
CONTINUOUS
10
2.91001
20
-2.38155
11
2.91021
21
-2.38319
0
LINE
8
BLACK
6
CONTINUOUS
10
2.91021
20
-2.38319
11
2.91235
21
-2.40076
0
LINE
8
BLACK
6
CONTINUOUS
10
2.91235
20
-2.40076
11
2.91622
21
-2.41973
0
LINE
8
BLACK
6
CONTINUOUS
10
2.91622
20
-2.41973
11
2.9216
21
-2.43832
0
LINE
8
BLACK
6
CONTINUOUS
10
2.9216
20
-2.43832
11
2.92847
21
-2.45642
0
LINE
8
BLACK
6
CONTINUOUS
10
2.92847
20
-2.45642
11
2.93677
21
-2.47391
0
LINE
8
BLACK
6
CONTINUOUS
10
2.93677
20
-2.47391
11
2.94645
21
-2.49068
0
LINE
8
BLACK
6
CONTINUOUS
10
2.94645
20
-2.49068
11
2.94645
21
-2.49068
0
LINE
8
BLACK
6
CONTINUOUS
10
2.94645
20
-2.49068
11
2.94732
21
-2.49195
0
LINE
8
BLACK
6
CONTINUOUS
10
2.94732
20
-2.49195
11
2.9556
21
-2.50394
0
LINE
8
BLACK
6
CONTINUOUS
10
2.9556
20
-2.50394
11
2.95744
21
-2.50661
0
LINE
8
BLACK
6
CONTINUOUS
10
2.95744
20
-2.50661
11
2.96968
21
-2.5216
0
LINE
8
BLACK
6
CONTINUOUS
10
2.96968
20
-2.5216
11
2.96969
21
-2.5216
0
LINE
8
BLACK
6
CONTINUOUS
10
2.96969
20
-2.5216
11
2.96969
21
-2.5216
0
LINE
8
BLACK
6
CONTINUOUS
10
2.96969
20
-2.5216
11
2.98228
21
-2.53472
0
LINE
8
BLACK
6
CONTINUOUS
10
2.98228
20
-2.53472
11
2.98309
21
-2.53556
0
LINE
8
BLACK
6
CONTINUOUS
10
2.98309
20
-2.53556
11
2.98309
21
-2.53556
0
LINE
8
BLACK
6
CONTINUOUS
10
2.98309
20
-2.53556
11
2.99758
21
-2.5484
0
LINE
8
BLACK
6
CONTINUOUS
10
2.99758
20
-2.5484
11
3.00341
21
-2.55278
0
LINE
8
BLACK
6
CONTINUOUS
10
3.00341
20
-2.55278
11
3.01306
21
-2.56003
0
LINE
8
BLACK
6
CONTINUOUS
10
3.01306
20
-2.56003
11
3.02942
21
-2.57037
0
LINE
8
BLACK
6
CONTINUOUS
10
3.02942
20
-2.57037
11
3.02942
21
-2.57037
0
LINE
8
BLACK
6
CONTINUOUS
10
3.02942
20
-2.57037
11
3.02942
21
-2.57037
0
LINE
8
BLACK
6
CONTINUOUS
10
3.02942
20
-2.57037
11
3.0353
21
-2.57346
0
LINE
8
BLACK
6
CONTINUOUS
10
3.0353
20
-2.57346
11
3.04656
21
-2.57937
0
LINE
8
BLACK
6
CONTINUOUS
10
3.04656
20
-2.57937
11
3.06437
21
-2.58696
0
LINE
8
BLACK
6
CONTINUOUS
10
3.06437
20
-2.58696
11
3.08273
21
-2.59309
0
LINE
8
BLACK
6
CONTINUOUS
10
3.08273
20
-2.59309
11
3.10153
21
-2.59772
0
LINE
8
BLACK
6
CONTINUOUS
10
3.10153
20
-2.59772
11
3.10153
21
-2.59772
0
LINE
8
BLACK
6
CONTINUOUS
10
3.10153
20
-2.59772
11
3.10153
21
-2.59772
0
LINE
8
BLACK
6
CONTINUOUS
10
3.10153
20
-2.59772
11
3.1192
21
-2.60059
0
LINE
8
BLACK
6
CONTINUOUS
10
3.1192
20
-2.60059
11
3.12063
21
-2.60082
0
LINE
8
BLACK
6
CONTINUOUS
10
3.12063
20
-2.60082
11
3.13993
21
-2.60238
0
LINE
8
BLACK
6
CONTINUOUS
10
3.13993
20
-2.60238
11
3.13993
21
-2.60238
0
LINE
8
BLACK
6
CONTINUOUS
10
3.13993
20
-2.60238
11
3.15928
21
-2.60238
0
LINE
8
BLACK
6
CONTINUOUS
10
3.15928
20
-2.60238
11
3.15929
21
-2.60238
0
LINE
8
BLACK
6
CONTINUOUS
10
3.15929
20
-2.60238
11
3.17858
21
-2.60082
0
LINE
8
BLACK
6
CONTINUOUS
10
3.17858
20
-2.60082
11
3.18443
21
-2.59987
0
LINE
8
BLACK
6
CONTINUOUS
10
3.18443
20
-2.59987
11
3.19769
21
-2.59772
0
LINE
8
BLACK
6
CONTINUOUS
10
3.19769
20
-2.59772
11
3.19769
21
-2.59772
0
LINE
8
BLACK
6
CONTINUOUS
10
3.19769
20
-2.59772
11
3.19769
21
-2.59772
0
LINE
8
BLACK
6
CONTINUOUS
10
3.19769
20
-2.59772
11
3.21648
21
-2.59309
0
LINE
8
BLACK
6
CONTINUOUS
10
3.21648
20
-2.59309
11
3.23484
21
-2.58696
0
LINE
8
BLACK
6
CONTINUOUS
10
3.23484
20
-2.58696
11
3.25265
21
-2.57937
0
LINE
8
BLACK
6
CONTINUOUS
10
3.25265
20
-2.57937
11
3.26979
21
-2.57037
0
LINE
8
BLACK
6
CONTINUOUS
10
3.26979
20
-2.57037
11
3.28615
21
-2.56003
0
LINE
8
BLACK
6
CONTINUOUS
10
3.28615
20
-2.56003
11
3.30163
21
-2.5484
0
LINE
8
BLACK
6
CONTINUOUS
10
3.30163
20
-2.5484
11
3.30163
21
-2.5484
0
LINE
8
BLACK
6
CONTINUOUS
10
3.30163
20
-2.5484
11
3.30163
21
-2.5484
0
LINE
8
BLACK
6
CONTINUOUS
10
3.30163
20
-2.5484
11
3.31612
21
-2.53556
0
LINE
8
BLACK
6
CONTINUOUS
10
3.31612
20
-2.53556
11
3.31612
21
-2.53556
0
LINE
8
BLACK
6
CONTINUOUS
10
3.31612
20
-2.53556
11
3.31612
21
-2.53556
0
LINE
8
BLACK
6
CONTINUOUS
10
3.31612
20
-2.53556
11
3.32953
21
-2.5216
0
LINE
8
BLACK
6
CONTINUOUS
10
3.32953
20
-2.5216
11
3.34177
21
-2.50661
0
LINE
8
BLACK
6
CONTINUOUS
10
3.34177
20
-2.50661
11
3.35277
21
-2.49068
0
LINE
8
BLACK
6
CONTINUOUS
10
3.35277
20
-2.49068
11
3.36245
21
-2.47391
0
LINE
8
BLACK
6
CONTINUOUS
10
3.36245
20
-2.47391
11
3.37074
21
-2.45642
0
LINE
8
BLACK
6
CONTINUOUS
10
3.37074
20
-2.45642
11
3.37761
21
-2.43832
0
LINE
8
BLACK
6
CONTINUOUS
10
3.37761
20
-2.43832
11
3.38299
21
-2.41973
0
LINE
8
BLACK
6
CONTINUOUS
10
3.38299
20
-2.41973
11
3.38687
21
-2.40076
0
LINE
8
BLACK
6
CONTINUOUS
10
3.38687
20
-2.40076
11
3.3892
21
-2.38155
0
LINE
8
BLACK
6
CONTINUOUS
10
3.3892
20
-2.38155
11
3.3892
21
-2.38155
0
LINE
8
BLACK
6
CONTINUOUS
10
3.3892
20
-2.38155
11
3.38998
21
-2.36221
0
LINE
8
BLACK
6
CONTINUOUS
10
3.38998
20
-2.36221
11
3.38998
21
-2.3622
0
LINE
8
BLACK
6
CONTINUOUS
10
3.38998
20
-2.3622
11
3.3892
21
-2.34286
0
LINE
8
BLACK
6
CONTINUOUS
10
3.3892
20
-2.34286
11
3.3892
21
-2.34286
0
LINE
8
BLACK
6
CONTINUOUS
10
3.3892
20
-2.34286
11
3.3892
21
-2.34286
0
LINE
8
BLACK
6
CONTINUOUS
10
3.3892
20
-2.34286
11
3.38687
21
-2.32365
0
LINE
8
BLACK
6
CONTINUOUS
10
3.38687
20
-2.32365
11
3.38299
21
-2.30468
0
LINE
8
BLACK
6
CONTINUOUS
10
3.38299
20
-2.30468
11
3.38176
21
-2.30042
0
LINE
8
BLACK
6
CONTINUOUS
10
3.38176
20
-2.30042
11
3.37761
21
-2.28609
0
LINE
8
BLACK
6
CONTINUOUS
10
3.37761
20
-2.28609
11
3.37458
21
-2.27809
0
LINE
8
BLACK
6
CONTINUOUS
10
3.37458
20
-2.27809
11
3.37074
21
-2.26799
0
LINE
8
BLACK
6
CONTINUOUS
10
3.37074
20
-2.26799
11
3.36245
21
-2.2505
0
LINE
8
BLACK
6
CONTINUOUS
10
3.36245
20
-2.2505
11
3.35732
21
-2.24163
0
LINE
8
BLACK
6
CONTINUOUS
10
3.35732
20
-2.24163
11
3.35277
21
-2.23373
0
LINE
8
BLACK
6
CONTINUOUS
10
3.35277
20
-2.23373
11
3.35277
21
-2.23373
0
LINE
8
BLACK
6
CONTINUOUS
10
3.35277
20
-2.23373
11
3.35214
21
-2.23283
0
LINE
8
BLACK
6
CONTINUOUS
10
3.35214
20
-2.23283
11
3.34177
21
-2.2178
0
LINE
8
BLACK
6
CONTINUOUS
10
3.34177
20
-2.2178
11
3.34177
21
-2.2178
0
LINE
8
BLACK
6
CONTINUOUS
10
3.34177
20
-2.2178
11
3.34177
21
-2.2178
0
LINE
8
BLACK
6
CONTINUOUS
10
3.34177
20
-2.2178
11
3.32953
21
-2.20281
0
LINE
8
BLACK
6
CONTINUOUS
10
3.32953
20
-2.20281
11
3.32953
21
-2.20281
0
LINE
8
BLACK
6
CONTINUOUS
10
3.32953
20
-2.20281
11
3.31612
21
-2.18885
0
LINE
8
BLACK
6
CONTINUOUS
10
3.31612
20
-2.18885
11
3.31612
21
-2.18885
0
LINE
8
BLACK
6
CONTINUOUS
10
3.31612
20
-2.18885
11
3.30163
21
-2.17601
0
LINE
8
BLACK
6
CONTINUOUS
10
3.30163
20
-2.17601
11
3.29389
21
-2.1702
0
LINE
8
BLACK
6
CONTINUOUS
10
3.29389
20
-2.1702
11
3.28615
21
-2.16438
0
LINE
8
BLACK
6
CONTINUOUS
10
3.28615
20
-2.16438
11
3.26979
21
-2.15404
0
LINE
8
BLACK
6
CONTINUOUS
10
3.26979
20
-2.15404
11
3.26979
21
-2.15404
0
LINE
8
BLACK
6
CONTINUOUS
10
3.26979
20
-2.15404
11
3.26979
21
-2.15404
0
LINE
8
BLACK
6
CONTINUOUS
10
3.26979
20
-2.15404
11
3.25265
21
-2.14504
0
LINE
8
BLACK
6
CONTINUOUS
10
3.25265
20
-2.14504
11
3.24566
21
-2.14206
0
LINE
8
BLACK
6
CONTINUOUS
10
3.24566
20
-2.14206
11
3.23484
21
-2.13745
0
LINE
8
BLACK
6
CONTINUOUS
10
3.23484
20
-2.13745
11
3.23484
21
-2.13745
0
LINE
8
BLACK
6
CONTINUOUS
10
3.23484
20
-2.13745
11
3.23484
21
-2.13745
0
LINE
8
BLACK
6
CONTINUOUS
10
3.23484
20
-2.13745
11
3.22577
21
-2.13442
0
LINE
8
BLACK
6
CONTINUOUS
10
3.22577
20
-2.13442
11
3.21648
21
-2.13132
0
LINE
8
BLACK
6
CONTINUOUS
10
3.21648
20
-2.13132
11
3.21648
21
-2.13132
0
LINE
8
BLACK
6
CONTINUOUS
10
3.21648
20
-2.13132
11
3.21648
21
-2.13132
0
LINE
8
BLACK
6
CONTINUOUS
10
3.21648
20
-2.13132
11
3.20928
21
-2.12955
0
LINE
8
BLACK
6
CONTINUOUS
10
3.20928
20
-2.12955
11
3.19769
21
-2.12669
0
LINE
8
BLACK
6
CONTINUOUS
10
3.19769
20
-2.12669
11
3.19769
21
-2.12669
0
LINE
8
BLACK
6
CONTINUOUS
10
3.19769
20
-2.12669
11
3.19769
21
-2.12669
0
LINE
8
BLACK
6
CONTINUOUS
10
3.19769
20
-2.12669
11
3.19769
21
-2.12669
0
LINE
8
BLACK
6
CONTINUOUS
10
3.19769
20
-2.12669
11
3.17858
21
-2.12359
0
LINE
8
BLACK
6
CONTINUOUS
10
3.17858
20
-2.12359
11
3.15929
21
-2.12203
0
LINE
8
BLACK
6
CONTINUOUS
10
3.15929
20
-2.12203
11
3.15929
21
-2.12203
0
LINE
8
BLACK
6
CONTINUOUS
10
3.15929
20
-2.12203
11
3.13993
21
-2.12203
0
LINE
8
BLACK
6
CONTINUOUS
10
3.13993
20
-2.12203
11
3.13993
21
-2.12203
0
LINE
8
BLACK
6
CONTINUOUS
10
3.13993
20
-2.12203
11
3.12063
21
-2.12359
0
LINE
8
BLACK
6
CONTINUOUS
10
3.12063
20
-2.12359
11
3.10153
21
-2.12669
0
LINE
8
BLACK
6
CONTINUOUS
10
3.10153
20
-2.12669
11
3.10153
21
-2.12669
0
LINE
8
BLACK
6
CONTINUOUS
10
3.10153
20
-2.12669
11
3.10153
21
-2.12669
0
LINE
8
BLACK
6
CONTINUOUS
10
3.10153
20
-2.12669
11
3.10153
21
-2.12669
0
LINE
8
BLACK
6
CONTINUOUS
10
3.10153
20
-2.12669
11
3.10059
21
-2.12692
0
LINE
8
BLACK
6
CONTINUOUS
10
3.10059
20
-2.12692
11
3.08273
21
-2.13132
0
LINE
8
BLACK
6
CONTINUOUS
10
3.08273
20
-2.13132
11
3.08273
21
-2.13132
0
LINE
8
BLACK
6
CONTINUOUS
10
3.08273
20
-2.13132
11
3.06437
21
-2.13745
0
LINE
8
BLACK
6
CONTINUOUS
10
3.06437
20
-2.13745
11
3.06437
21
-2.13745
0
LINE
8
BLACK
6
CONTINUOUS
10
3.06437
20
-2.13745
11
3.06437
21
-2.13745
0
LINE
8
BLACK
6
CONTINUOUS
10
3.06437
20
-2.13745
11
3.06026
21
-2.1392
0
LINE
8
BLACK
6
CONTINUOUS
10
3.06026
20
-2.1392
11
3.04656
21
-2.14504
0
LINE
8
BLACK
6
CONTINUOUS
10
3.04656
20
-2.14504
11
3.02942
21
-2.15404
0
LINE
8
BLACK
6
CONTINUOUS
10
3.02942
20
-2.15404
11
3.01306
21
-2.16438
0
LINE
8
BLACK
6
CONTINUOUS
10
3.01306
20
-2.16438
11
3.01306
21
-2.16438
0
LINE
8
BLACK
6
CONTINUOUS
10
3.01306
20
-2.16438
11
2.99758
21
-2.17601
0
LINE
8
BLACK
6
CONTINUOUS
10
2.99758
20
-2.17601
11
2.98309
21
-2.18885
0
LINE
8
BLACK
6
CONTINUOUS
10
2.98309
20
-2.18885
11
2.98309
21
-2.18885
0
LINE
8
BLACK
6
CONTINUOUS
10
2.98309
20
-2.18885
11
2.96969
21
-2.20281
0
LINE
8
BLACK
6
CONTINUOUS
10
2.96969
20
-2.20281
11
2.96968
21
-2.20281
0
LINE
8
BLACK
6
CONTINUOUS
10
2.96968
20
-2.20281
11
2.95744
21
-2.2178
0
LINE
8
BLACK
6
CONTINUOUS
10
2.95744
20
-2.2178
11
2.94645
21
-2.23373
0
LINE
8
BLACK
6
CONTINUOUS
10
2.94645
20
-2.23373
11
2.94645
21
-2.23373
0
LINE
8
BLACK
6
CONTINUOUS
10
2.94645
20
-2.23373
11
2.93677
21
-2.2505
0
LINE
8
BLACK
6
CONTINUOUS
10
2.93677
20
-2.2505
11
2.92847
21
-2.26799
0
LINE
8
BLACK
6
CONTINUOUS
10
2.92847
20
-2.26799
11
2.9216
21
-2.28609
0
LINE
8
BLACK
6
CONTINUOUS
10
2.9216
20
-2.28609
11
2.91622
21
-2.30468
0
LINE
8
BLACK
6
CONTINUOUS
10
2.91622
20
-2.30468
11
2.91235
21
-2.32365
0
LINE
8
BLACK
6
CONTINUOUS
10
2.91235
20
-2.32365
11
2.91001
21
-2.34286
0
LINE
8
BLACK
6
CONTINUOUS
10
2.91001
20
-2.34286
11
2.91001
21
-2.34286
0
LINE
8
BLACK
6
CONTINUOUS
10
2.91001
20
-2.34286
11
2.90923
21
-2.3622
0
LINE
8
BLACK
6
CONTINUOUS
10
2.90923
20
-2.3622
11
2.90923
21
-2.36221
0
LINE
8
BLACK
6
CONTINUOUS
10
2.90923
20
-2.36221
11
2.91001
21
-2.38155
0
LINE
8
BLACK
6
CONTINUOUS
10
3.56299
20
-2.22933
11
3.56299
21
-2.18504
0
LINE
8
BLACK
6
CONTINUOUS
10
3.56299
20
-2.18504
11
3.57283
21
-2.18504
0
LINE
8
BLACK
6
CONTINUOUS
10
3.57283
20
-2.18504
11
3.57283
21
-2.16535
0
LINE
8
BLACK
6
CONTINUOUS
10
3.57283
20
-2.16535
11
3.56111
21
-2.16535
0
LINE
8
BLACK
6
CONTINUOUS
10
3.56111
20
-2.16535
11
3.55876
21
-2.16561
0
LINE
8
BLACK
6
CONTINUOUS
10
3.55876
20
-2.16561
11
3.55876
21
-2.16561
0
LINE
8
BLACK
6
CONTINUOUS
10
3.55876
20
-2.16561
11
3.55346
21
-2.16758
0
LINE
8
BLACK
6
CONTINUOUS
10
3.55346
20
-2.16758
11
3.55346
21
-2.16758
0
LINE
8
BLACK
6
CONTINUOUS
10
3.55346
20
-2.16758
11
3.54893
21
-2.17098
0
LINE
8
BLACK
6
CONTINUOUS
10
3.54893
20
-2.17098
11
3.54893
21
-2.17098
0
LINE
8
BLACK
6
CONTINUOUS
10
3.54893
20
-2.17098
11
3.54554
21
-2.17551
0
LINE
8
BLACK
6
CONTINUOUS
10
3.54554
20
-2.17551
11
3.54554
21
-2.17551
0
LINE
8
BLACK
6
CONTINUOUS
10
3.54554
20
-2.17551
11
3.54356
21
-2.18081
0
LINE
8
BLACK
6
CONTINUOUS
10
3.54356
20
-2.18081
11
3.54356
21
-2.18081
0
LINE
8
BLACK
6
CONTINUOUS
10
3.54356
20
-2.18081
11
3.54331
21
-2.18316
0
LINE
8
BLACK
6
CONTINUOUS
10
3.54331
20
-2.18316
11
3.54331
21
-2.22933
0
LINE
8
BLACK
6
CONTINUOUS
10
3.54331
20
-2.22933
11
3.56299
21
-2.22933
0
LINE
8
BLACK
6
CONTINUOUS
10
2.70334
20
-1.97777
11
2.70334
21
-1.97777
0
LINE
8
BLACK
6
CONTINUOUS
10
2.70334
20
-1.97777
11
2.70575
21
-1.98676
0
LINE
8
BLACK
6
CONTINUOUS
10
2.70575
20
-1.98676
11
2.70575
21
-1.98676
0
LINE
8
BLACK
6
CONTINUOUS
10
2.70575
20
-1.98676
11
2.70575
21
-1.98676
0
LINE
8
BLACK
6
CONTINUOUS
10
2.70575
20
-1.98676
11
2.70772
21
-1.99097
0
LINE
8
BLACK
6
CONTINUOUS
10
2.70772
20
-1.99097
11
2.70968
21
-1.99519
0
LINE
8
BLACK
6
CONTINUOUS
10
2.70968
20
-1.99519
11
2.70968
21
-1.99519
0
LINE
8
BLACK
6
CONTINUOUS
10
2.70968
20
-1.99519
11
2.71502
21
-2.00281
0
LINE
8
BLACK
6
CONTINUOUS
10
2.71502
20
-2.00281
11
2.7216
21
-2.00939
0
LINE
8
BLACK
6
CONTINUOUS
10
2.7216
20
-2.00939
11
2.72922
21
-2.01473
0
LINE
8
BLACK
6
CONTINUOUS
10
2.72922
20
-2.01473
11
2.72922
21
-2.01473
0
LINE
8
BLACK
6
CONTINUOUS
10
2.72922
20
-2.01473
11
2.73765
21
-2.01866
0
LINE
8
BLACK
6
CONTINUOUS
10
2.73765
20
-2.01866
11
2.74664
21
-2.02107
0
LINE
8
BLACK
6
CONTINUOUS
10
2.74664
20
-2.02107
11
2.75358
21
-2.02167
0
LINE
8
BLACK
6
CONTINUOUS
10
2.75358
20
-2.02167
11
2.75358
21
-2.02167
0
LINE
8
BLACK
6
CONTINUOUS
10
2.75358
20
-2.02167
11
2.75358
21
-2.02167
0
LINE
8
BLACK
6
CONTINUOUS
10
2.75358
20
-2.02167
11
2.75823
21
-2.02167
0
LINE
8
BLACK
6
CONTINUOUS
10
2.75823
20
-2.02167
11
2.75823
21
-2.02167
0
LINE
8
BLACK
6
CONTINUOUS
10
2.75823
20
-2.02167
11
2.76517
21
-2.02107
0
LINE
8
BLACK
6
CONTINUOUS
10
2.76517
20
-2.02107
11
2.77416
21
-2.01866
0
LINE
8
BLACK
6
CONTINUOUS
10
2.77416
20
-2.01866
11
2.78259
21
-2.01473
0
LINE
8
BLACK
6
CONTINUOUS
10
2.78259
20
-2.01473
11
2.79021
21
-2.00939
0
LINE
8
BLACK
6
CONTINUOUS
10
2.79021
20
-2.00939
11
2.79679
21
-2.00281
0
LINE
8
BLACK
6
CONTINUOUS
10
2.79679
20
-2.00281
11
2.80213
21
-1.99519
0
LINE
8
BLACK
6
CONTINUOUS
10
2.80213
20
-1.99519
11
2.80606
21
-1.98676
0
LINE
8
BLACK
6
CONTINUOUS
10
2.80606
20
-1.98676
11
2.80847
21
-1.97777
0
LINE
8
BLACK
6
CONTINUOUS
10
2.80847
20
-1.97777
11
2.80928
21
-1.9685
0
LINE
8
BLACK
6
CONTINUOUS
10
2.80928
20
-1.9685
11
2.80847
21
-1.95924
0
LINE
8
BLACK
6
CONTINUOUS
10
2.80847
20
-1.95924
11
2.80606
21
-1.95025
0
LINE
8
BLACK
6
CONTINUOUS
10
2.80606
20
-1.95025
11
2.80213
21
-1.94182
0
LINE
8
BLACK
6
CONTINUOUS
10
2.80213
20
-1.94182
11
2.80213
21
-1.94182
0
LINE
8
BLACK
6
CONTINUOUS
10
2.80213
20
-1.94182
11
2.79679
21
-1.9342
0
LINE
8
BLACK
6
CONTINUOUS
10
2.79679
20
-1.9342
11
2.79021
21
-1.92762
0
LINE
8
BLACK
6
CONTINUOUS
10
2.79021
20
-1.92762
11
2.78259
21
-1.92228
0
LINE
8
BLACK
6
CONTINUOUS
10
2.78259
20
-1.92228
11
2.78259
21
-1.92228
0
LINE
8
BLACK
6
CONTINUOUS
10
2.78259
20
-1.92228
11
2.77838
21
-1.92032
0
LINE
8
BLACK
6
CONTINUOUS
10
2.77838
20
-1.92032
11
2.77416
21
-1.91835
0
LINE
8
BLACK
6
CONTINUOUS
10
2.77416
20
-1.91835
11
2.77416
21
-1.91835
0
LINE
8
BLACK
6
CONTINUOUS
10
2.77416
20
-1.91835
11
2.77416
21
-1.91835
0
LINE
8
BLACK
6
CONTINUOUS
10
2.77416
20
-1.91835
11
2.76517
21
-1.91594
0
LINE
8
BLACK
6
CONTINUOUS
10
2.76517
20
-1.91594
11
2.76517
21
-1.91594
0
LINE
8
BLACK
6
CONTINUOUS
10
2.76517
20
-1.91594
11
2.75823
21
-1.91533
0
LINE
8
BLACK
6
CONTINUOUS
10
2.75823
20
-1.91533
11
2.75823
21
-1.91533
0
LINE
8
BLACK
6
CONTINUOUS
10
2.75823
20
-1.91533
11
2.75358
21
-1.91533
0
LINE
8
BLACK
6
CONTINUOUS
10
2.75358
20
-1.91533
11
2.75358
21
-1.91533
0
LINE
8
BLACK
6
CONTINUOUS
10
2.75358
20
-1.91533
11
2.74664
21
-1.91594
0
LINE
8
BLACK
6
CONTINUOUS
10
2.74664
20
-1.91594
11
2.74664
21
-1.91594
0
LINE
8
BLACK
6
CONTINUOUS
10
2.74664
20
-1.91594
11
2.73765
21
-1.91835
0
LINE
8
BLACK
6
CONTINUOUS
10
2.73765
20
-1.91835
11
2.73765
21
-1.91835
0
LINE
8
BLACK
6
CONTINUOUS
10
2.73765
20
-1.91835
11
2.72922
21
-1.92228
0
LINE
8
BLACK
6
CONTINUOUS
10
2.72922
20
-1.92228
11
2.72922
21
-1.92228
0
LINE
8
BLACK
6
CONTINUOUS
10
2.72922
20
-1.92228
11
2.7216
21
-1.92762
0
LINE
8
BLACK
6
CONTINUOUS
10
2.7216
20
-1.92762
11
2.71502
21
-1.9342
0
LINE
8
BLACK
6
CONTINUOUS
10
2.71502
20
-1.9342
11
2.71502
21
-1.9342
0
LINE
8
BLACK
6
CONTINUOUS
10
2.71502
20
-1.9342
11
2.70968
21
-1.94182
0
LINE
8
BLACK
6
CONTINUOUS
10
2.70968
20
-1.94182
11
2.70968
21
-1.94182
0
LINE
8
BLACK
6
CONTINUOUS
10
2.70968
20
-1.94182
11
2.70575
21
-1.95025
0
LINE
8
BLACK
6
CONTINUOUS
10
2.70575
20
-1.95025
11
2.70575
21
-1.95025
0
LINE
8
BLACK
6
CONTINUOUS
10
2.70575
20
-1.95025
11
2.70334
21
-1.95924
0
LINE
8
BLACK
6
CONTINUOUS
10
2.70334
20
-1.95924
11
2.70334
21
-1.95924
0
LINE
8
BLACK
6
CONTINUOUS
10
2.70334
20
-1.95924
11
2.70253
21
-1.9685
0
LINE
8
BLACK
6
CONTINUOUS
10
2.70253
20
-1.9685
11
2.70253
21
-1.9685
0
LINE
8
BLACK
6
CONTINUOUS
10
2.70253
20
-1.9685
11
2.70334
21
-1.97777
0
LINE
8
BLACK
6
CONTINUOUS
10
3.49306
20
-2.76455
11
3.49745
21
-2.76679
0
LINE
8
BLACK
6
CONTINUOUS
10
3.49745
20
-2.76679
11
3.50093
21
-2.77027
0
LINE
8
BLACK
6
CONTINUOUS
10
3.50093
20
-2.77027
11
3.50317
21
-2.77466
0
LINE
8
BLACK
6
CONTINUOUS
10
3.50317
20
-2.77466
11
3.50394
21
-2.77953
0
LINE
8
BLACK
6
CONTINUOUS
10
3.50394
20
-2.77953
11
3.50317
21
-2.78439
0
LINE
8
BLACK
6
CONTINUOUS
10
3.50317
20
-2.78439
11
3.50093
21
-2.78878
0
LINE
8
BLACK
6
CONTINUOUS
10
3.50093
20
-2.78878
11
3.49745
21
-2.79227
0
LINE
8
BLACK
6
CONTINUOUS
10
3.49745
20
-2.79227
11
3.49311
21
-2.79448
0
LINE
8
BLACK
6
CONTINUOUS
10
3.49311
20
-2.79448
11
3.49311
21
-2.79607
0
LINE
8
BLACK
6
CONTINUOUS
10
3.49311
20
-2.79607
11
3.49745
21
-2.79828
0
LINE
8
BLACK
6
CONTINUOUS
10
3.49745
20
-2.79828
11
3.50093
21
-2.80177
0
LINE
8
BLACK
6
CONTINUOUS
10
3.50093
20
-2.80177
11
3.50317
21
-2.80616
0
LINE
8
BLACK
6
CONTINUOUS
10
3.50317
20
-2.80616
11
3.50394
21
-2.81102
0
LINE
8
BLACK
6
CONTINUOUS
10
3.50394
20
-2.81102
11
3.50317
21
-2.81589
0
LINE
8
BLACK
6
CONTINUOUS
10
3.50317
20
-2.81589
11
3.50093
21
-2.82028
0
LINE
8
BLACK
6
CONTINUOUS
10
3.50093
20
-2.82028
11
3.49745
21
-2.82376
0
LINE
8
BLACK
6
CONTINUOUS
10
3.49745
20
-2.82376
11
3.49306
21
-2.826
0
LINE
8
BLACK
6
CONTINUOUS
10
3.49306
20
-2.826
11
3.48819
21
-2.82677
0
LINE
8
BLACK
6
CONTINUOUS
10
3.48819
20
-2.82677
11
3.48332
21
-2.826
0
LINE
8
BLACK
6
CONTINUOUS
10
3.48332
20
-2.826
11
3.47893
21
-2.82376
0
LINE
8
BLACK
6
CONTINUOUS
10
3.47893
20
-2.82376
11
3.47545
21
-2.82028
0
LINE
8
BLACK
6
CONTINUOUS
10
3.47545
20
-2.82028
11
3.47324
21
-2.81594
0
LINE
8
BLACK
6
CONTINUOUS
10
3.47324
20
-2.81594
11
3.36534
21
-2.81594
0
LINE
8
BLACK
6
CONTINUOUS
10
3.36534
20
-2.81594
11
3.36313
21
-2.82028
0
LINE
8
BLACK
6
CONTINUOUS
10
3.36313
20
-2.82028
11
3.35965
21
-2.82376
0
LINE
8
BLACK
6
CONTINUOUS
10
3.35965
20
-2.82376
11
3.35526
21
-2.826
0
LINE
8
BLACK
6
CONTINUOUS
10
3.35526
20
-2.826
11
3.35039
21
-2.82677
0
LINE
8
BLACK
6
CONTINUOUS
10
3.35039
20
-2.82677
11
3.34553
21
-2.826
0
LINE
8
BLACK
6
CONTINUOUS
10
3.34553
20
-2.826
11
3.34114
21
-2.82376
0
LINE
8
BLACK
6
CONTINUOUS
10
3.34114
20
-2.82376
11
3.33765
21
-2.82028
0
LINE
8
BLACK
6
CONTINUOUS
10
3.33765
20
-2.82028
11
3.33542
21
-2.81589
0
LINE
8
BLACK
6
CONTINUOUS
10
3.33542
20
-2.81589
11
3.33465
21
-2.81102
0
LINE
8
BLACK
6
CONTINUOUS
10
3.33465
20
-2.81102
11
3.33542
21
-2.80616
0
LINE
8
BLACK
6
CONTINUOUS
10
3.33542
20
-2.80616
11
3.33765
21
-2.80177
0
LINE
8
BLACK
6
CONTINUOUS
10
3.33765
20
-2.80177
11
3.34114
21
-2.79828
0
LINE
8
BLACK
6
CONTINUOUS
10
3.34114
20
-2.79828
11
3.34547
21
-2.79607
0
LINE
8
BLACK
6
CONTINUOUS
10
3.34547
20
-2.79607
11
3.34547
21
-2.79448
0
LINE
8
BLACK
6
CONTINUOUS
10
3.34547
20
-2.79448
11
3.34114
21
-2.79227
0
LINE
8
BLACK
6
CONTINUOUS
10
3.34114
20
-2.79227
11
3.33765
21
-2.78878
0
LINE
8
BLACK
6
CONTINUOUS
10
3.33765
20
-2.78878
11
3.33542
21
-2.78439
0
LINE
8
BLACK
6
CONTINUOUS
10
3.33542
20
-2.78439
11
3.33465
21
-2.77953
0
LINE
8
BLACK
6
CONTINUOUS
10
3.33465
20
-2.77953
11
3.33542
21
-2.77466
0
LINE
8
BLACK
6
CONTINUOUS
10
3.33542
20
-2.77466
11
3.33765
21
-2.77027
0
LINE
8
BLACK
6
CONTINUOUS
10
3.33765
20
-2.77027
11
3.34114
21
-2.76679
0
LINE
8
BLACK
6
CONTINUOUS
10
3.34114
20
-2.76679
11
3.34553
21
-2.76455
0
LINE
8
BLACK
6
CONTINUOUS
10
3.34553
20
-2.76455
11
3.35039
21
-2.76378
0
LINE
8
BLACK
6
CONTINUOUS
10
3.35039
20
-2.76378
11
3.35526
21
-2.76455
0
LINE
8
BLACK
6
CONTINUOUS
10
3.35526
20
-2.76455
11
3.35965
21
-2.76679
0
LINE
8
BLACK
6
CONTINUOUS
10
3.35965
20
-2.76679
11
3.36313
21
-2.77027
0
LINE
8
BLACK
6
CONTINUOUS
10
3.36313
20
-2.77027
11
3.36534
21
-2.77461
0
LINE
8
BLACK
6
CONTINUOUS
10
3.36534
20
-2.77461
11
3.47324
21
-2.77461
0
LINE
8
BLACK
6
CONTINUOUS
10
3.47324
20
-2.77461
11
3.47545
21
-2.77027
0
LINE
8
BLACK
6
CONTINUOUS
10
3.47545
20
-2.77027
11
3.47893
21
-2.76679
0
LINE
8
BLACK
6
CONTINUOUS
10
3.47893
20
-2.76679
11
3.48332
21
-2.76455
0
LINE
8
BLACK
6
CONTINUOUS
10
3.48332
20
-2.76455
11
3.48819
21
-2.76378
0
LINE
8
BLACK
6
CONTINUOUS
10
3.48819
20
-2.76378
11
3.49306
21
-2.76455
0
LINE
8
BLACK
6
CONTINUOUS
10
3.36534
20
-2.78445
11
3.36313
21
-2.78878
0
LINE
8
BLACK
6
CONTINUOUS
10
3.36313
20
-2.78878
11
3.35965
21
-2.79227
0
LINE
8
BLACK
6
CONTINUOUS
10
3.35965
20
-2.79227
11
3.35531
21
-2.79448
0
LINE
8
BLACK
6
CONTINUOUS
10
3.35531
20
-2.79448
11
3.35531
21
-2.79607
0
LINE
8
BLACK
6
CONTINUOUS
10
3.35531
20
-2.79607
11
3.35965
21
-2.79828
0
LINE
8
BLACK
6
CONTINUOUS
10
3.35965
20
-2.79828
11
3.36313
21
-2.80177
0
LINE
8
BLACK
6
CONTINUOUS
10
3.36313
20
-2.80177
11
3.36534
21
-2.8061
0
LINE
8
BLACK
6
CONTINUOUS
10
3.36534
20
-2.8061
11
3.36614
21
-2.8061
0
LINE
8
BLACK
6
CONTINUOUS
10
3.36614
20
-2.8061
11
3.36614
21
-2.78445
0
LINE
8
BLACK
6
CONTINUOUS
10
3.36614
20
-2.78445
11
3.36534
21
-2.78445
0
LINE
8
BLACK
6
CONTINUOUS
10
3.47441
20
-2.80381
11
3.47545
21
-2.80177
0
LINE
8
BLACK
6
CONTINUOUS
10
3.47545
20
-2.80177
11
3.47893
21
-2.79828
0
LINE
8
BLACK
6
CONTINUOUS
10
3.47893
20
-2.79828
11
3.48327
21
-2.79607
0
LINE
8
BLACK
6
CONTINUOUS
10
3.48327
20
-2.79607
11
3.48327
21
-2.79448
0
LINE
8
BLACK
6
CONTINUOUS
10
3.48327
20
-2.79448
11
3.47893
21
-2.79227
0
LINE
8
BLACK
6
CONTINUOUS
10
3.47893
20
-2.79227
11
3.47545
21
-2.78878
0
LINE
8
BLACK
6
CONTINUOUS
10
3.47545
20
-2.78878
11
3.47441
21
-2.78674
0
LINE
8
BLACK
6
CONTINUOUS
10
3.47441
20
-2.78674
11
3.47441
21
-2.80381
0
CIRCLE
8
BLACK
10
3.54331
20
-1.9685
40
0.0433071
0
CIRCLE
8
BLACK
10
2.75591
20
-1.9685
40
0.0433071
0
CIRCLE
8
BLACK
10
2.75591
20
-2.75591
40
0.0433071
0
CIRCLE
8
BLACK
10
3.41732
20
-2.50394
40
0.00787402
0
CIRCLE
8
BLACK
10
2.91339
20
-2.04724
40
0.00787402
0
CIRCLE
8
BLACK
10
3.54048
20
-2.31511
40
0.00787402
0
CIRCLE
8
BLACK
10
2.75873
20
-2.4093
40
0.00787402
0
CIRCLE
8
BLACK
10
2.99495
20
-2.72426
40
0.00787402
0
CIRCLE
8
BLACK
10
3.1967
20
-2.75308
40
0.00787402
0
CIRCLE
8
BLACK
10
3.30426
20
-2.00015
40
0.00787402
0
CIRCLE
8
BLACK
10
2.83465
20
-2.59843
40
0.00787402
0
CIRCLE
8
BLACK
10
3.40157
20
-2.66535
40
0.00787402
0
CIRCLE
8
BLACK
10
2.78755
20
-2.20755
40
0.00787402
0
CIRCLE
8
BLACK
10
3.46457
20
-2.12598
40
0.00787402
0
CIRCLE
8
BLACK
10
3.48425
20
-2.59843
40
0.00787402
0
CIRCLE
8
BLACK
10
3.10251
20
-1.97133
40
0.00787402
0
CIRCLE
8
BLACK
10
3.56693
20
-2.41732
40
0.00787402
0
CIRCLE
8
BLACK
10
3.35039
20
-2.77953
40
0.00787402
0
CIRCLE
8
BLACK
10
3.59843
20
-2.41732
40
0.00787402
0
CIRCLE
8
BLACK
10
3.59843
20
-2.55512
40
0.00787402
0
CIRCLE
8
BLACK
10
3.57087
20
-2.55512
40
0.00787402
0
CIRCLE
8
BLACK
10
3.48819
20
-2.77953
40
0.00787402
0
CIRCLE
8
BLACK
10
3.48819
20
-2.81102
40
0.00787402
0
CIRCLE
8
BLACK
10
3.35039
20
-2.81102
40
0.00787402
0
CIRCLE
8
BLACK
10
3.46102
20
-2.43386
40
0.00787402
  0
ENDSEC
  0
EOF
