  0
SECTION
  2
HEADER
  9
$ANGBASE
  50
0.0
  9
$ANGDIR
  70
1
  9
$MEASUREMENT
  70
0
  0
ENDSEC
  0
SECTION
  2
TABLES
  0
TABLE
  2
LTYPE
  70
4
  0
LTYPE
  5
40F
  2
CONTINUOUS
  70
0
  3
Solid line
  72
65
  73
0
  40
0.0
  0
LTYPE
  5
410
  2
DASHDOT
 70
0
  3
Dash Dot ____ _ ____ _
 72
65
 73
4
 40
2.0
 49
1.25
 49
-0.25
 49
0.25
 49
-0.25
  0
LTYPE
  5
411
  2
DASHED
 70
0
  3
Dashed __ __ __ __ __
 72
65
 73
2
 40
0.75
 49
0.5
 49
-0.25
  0
LTYPE
  5
43B
  2
DOTTED
 70
0
  3
Dotted .  .  .  .
 72
65
 73
2
 40
0.2
 49
0.0
 49
-0.2
  0
ENDTAB
  0
TABLE
  2
STYLE
  70
4
  0
STYLE
  2
KICAD
  70
0
  40
0
  41
1
  42
1
  50
0
  71
0
  3
isocp.shx
  0
STYLE
  2
KICADB
  70
0
  40
0
  41
1
  42
1
  50
0
  71
0
  3
isocp.shx
  0
STYLE
  2
KICADI
  70
0
  40
0
  41
1
  42
1
  50
15
  71
0
  3
isocp.shx
  0
STYLE
  2
KICADBI
  70
0
  40
0
  41
1
  42
1
  50
15
  71
0
  3
isocp.shx
  0
ENDTAB
  0
TABLE
  2
LAYER
  70
1
  0
LAYER
  2
BLACK
  70
0
  62
7
  6
CONTINUOUS
  0
ENDTAB
  0
ENDSEC
  0
SECTION
  2
ENTITIES
0
LINE
8
BLACK
6
CONTINUOUS
10
3.44373
20
-2.6762
11
3.44387
21
-2.67619
0
LINE
8
BLACK
6
CONTINUOUS
10
3.44387
20
-2.67619
11
3.4446
21
-2.6767
0
LINE
8
BLACK
6
CONTINUOUS
10
3.4446
20
-2.6767
11
3.44537
21
-2.67714
0
LINE
8
BLACK
6
CONTINUOUS
10
3.44537
20
-2.67714
11
3.44541
21
-2.67727
0
LINE
8
BLACK
6
CONTINUOUS
10
3.44541
20
-2.67727
11
3.44552
21
-2.67735
0
LINE
8
BLACK
6
CONTINUOUS
10
3.44552
20
-2.67735
11
3.44575
21
-2.6782
0
LINE
8
BLACK
6
CONTINUOUS
10
3.44575
20
-2.6782
11
3.44606
21
-2.67904
0
LINE
8
BLACK
6
CONTINUOUS
10
3.44606
20
-2.67904
11
3.44606
21
-2.70341
0
LINE
8
BLACK
6
CONTINUOUS
10
3.44606
20
-2.70341
11
3.44588
21
-2.70442
0
LINE
8
BLACK
6
CONTINUOUS
10
3.44588
20
-2.70442
11
3.44458
21
-2.70597
0
LINE
8
BLACK
6
CONTINUOUS
10
3.44458
20
-2.70597
11
3.44259
21
-2.70632
0
LINE
8
BLACK
6
CONTINUOUS
10
3.44259
20
-2.70632
11
3.44084
21
-2.70531
0
LINE
8
BLACK
6
CONTINUOUS
10
3.44084
20
-2.70531
11
3.44015
21
-2.70341
0
LINE
8
BLACK
6
CONTINUOUS
10
3.44015
20
-2.70341
11
3.44015
21
-2.68617
0
LINE
8
BLACK
6
CONTINUOUS
10
3.44015
20
-2.68617
11
3.42269
21
-2.70363
0
LINE
8
BLACK
6
CONTINUOUS
10
3.42269
20
-2.70363
11
3.42185
21
-2.70421
0
LINE
8
BLACK
6
CONTINUOUS
10
3.42185
20
-2.70421
11
3.42168
21
-2.70423
0
LINE
8
BLACK
6
CONTINUOUS
10
3.42168
20
-2.70423
11
3.42154
21
-2.70434
0
LINE
8
BLACK
6
CONTINUOUS
10
3.42154
20
-2.70434
11
3.41592
21
-2.70621
0
LINE
8
BLACK
6
CONTINUOUS
10
3.41592
20
-2.70621
11
3.41504
21
-2.70634
0
LINE
8
BLACK
6
CONTINUOUS
10
3.41504
20
-2.70634
11
3.41498
21
-2.70636
0
LINE
8
BLACK
6
CONTINUOUS
10
3.41498
20
-2.70636
11
3.41123
21
-2.70636
0
LINE
8
BLACK
6
CONTINUOUS
10
3.41123
20
-2.70636
11
3.41022
21
-2.70619
0
LINE
8
BLACK
6
CONTINUOUS
10
3.41022
20
-2.70619
11
3.41009
21
-2.70607
0
LINE
8
BLACK
6
CONTINUOUS
10
3.41009
20
-2.70607
11
3.40991
21
-2.70605
0
LINE
8
BLACK
6
CONTINUOUS
10
3.40991
20
-2.70605
11
3.40616
21
-2.70418
0
LINE
8
BLACK
6
CONTINUOUS
10
3.40616
20
-2.70418
11
3.40545
21
-2.70365
0
LINE
8
BLACK
6
CONTINUOUS
10
3.40545
20
-2.70365
11
3.40539
21
-2.70363
0
LINE
8
BLACK
6
CONTINUOUS
10
3.40539
20
-2.70363
11
3.40352
21
-2.70175
0
LINE
8
BLACK
6
CONTINUOUS
10
3.40352
20
-2.70175
11
3.40301
21
-2.70103
0
LINE
8
BLACK
6
CONTINUOUS
10
3.40301
20
-2.70103
11
3.40297
21
-2.70098
0
LINE
8
BLACK
6
CONTINUOUS
10
3.40297
20
-2.70098
11
3.40109
21
-2.69723
0
LINE
8
BLACK
6
CONTINUOUS
10
3.40109
20
-2.69723
11
3.4008
21
-2.69625
0
LINE
8
BLACK
6
CONTINUOUS
10
3.4008
20
-2.69625
11
3.40084
21
-2.69608
0
LINE
8
BLACK
6
CONTINUOUS
10
3.40084
20
-2.69608
11
3.40078
21
-2.69591
0
LINE
8
BLACK
6
CONTINUOUS
10
3.40078
20
-2.69591
11
3.40078
21
-2.68654
0
LINE
8
BLACK
6
CONTINUOUS
10
3.40078
20
-2.68654
11
3.40096
21
-2.68553
0
LINE
8
BLACK
6
CONTINUOUS
10
3.40096
20
-2.68553
11
3.40107
21
-2.68539
0
LINE
8
BLACK
6
CONTINUOUS
10
3.40107
20
-2.68539
11
3.40109
21
-2.68522
0
LINE
8
BLACK
6
CONTINUOUS
10
3.40109
20
-2.68522
11
3.40297
21
-2.68147
0
LINE
8
BLACK
6
CONTINUOUS
10
3.40297
20
-2.68147
11
3.40349
21
-2.68076
0
LINE
8
BLACK
6
CONTINUOUS
10
3.40349
20
-2.68076
11
3.40352
21
-2.6807
0
LINE
8
BLACK
6
CONTINUOUS
10
3.40352
20
-2.6807
11
3.40539
21
-2.67883
0
LINE
8
BLACK
6
CONTINUOUS
10
3.40539
20
-2.67883
11
3.40623
21
-2.67824
0
LINE
8
BLACK
6
CONTINUOUS
10
3.40623
20
-2.67824
11
3.40825
21
-2.67806
0
LINE
8
BLACK
6
CONTINUOUS
10
3.40825
20
-2.67806
11
3.4099
21
-2.67922
0
LINE
8
BLACK
6
CONTINUOUS
10
3.4099
20
-2.67922
11
3.41042
21
-2.68117
0
LINE
8
BLACK
6
CONTINUOUS
10
3.41042
20
-2.68117
11
3.40957
21
-2.683
0
LINE
8
BLACK
6
CONTINUOUS
10
3.40957
20
-2.683
11
3.40803
21
-2.68454
0
LINE
8
BLACK
6
CONTINUOUS
10
3.40803
20
-2.68454
11
3.40669
21
-2.68724
0
LINE
8
BLACK
6
CONTINUOUS
10
3.40669
20
-2.68724
11
3.40669
21
-2.69522
0
LINE
8
BLACK
6
CONTINUOUS
10
3.40669
20
-2.69522
11
3.40803
21
-2.69791
0
LINE
8
BLACK
6
CONTINUOUS
10
3.40803
20
-2.69791
11
3.40923
21
-2.69911
0
LINE
8
BLACK
6
CONTINUOUS
10
3.40923
20
-2.69911
11
3.41193
21
-2.70046
0
LINE
8
BLACK
6
CONTINUOUS
10
3.41193
20
-2.70046
11
3.4145
21
-2.70046
0
LINE
8
BLACK
6
CONTINUOUS
10
3.4145
20
-2.70046
11
3.41901
21
-2.69896
0
LINE
8
BLACK
6
CONTINUOUS
10
3.41901
20
-2.69896
11
3.44102
21
-2.67695
0
LINE
8
BLACK
6
CONTINUOUS
10
3.44102
20
-2.67695
11
3.44154
21
-2.67658
0
LINE
8
BLACK
6
CONTINUOUS
10
3.44154
20
-2.67658
11
3.44163
21
-2.67648
0
LINE
8
BLACK
6
CONTINUOUS
10
3.44163
20
-2.67648
11
3.44171
21
-2.67647
0
LINE
8
BLACK
6
CONTINUOUS
10
3.44171
20
-2.67647
11
3.44186
21
-2.67636
0
LINE
8
BLACK
6
CONTINUOUS
10
3.44186
20
-2.67636
11
3.44274
21
-2.67629
0
LINE
8
BLACK
6
CONTINUOUS
10
3.44274
20
-2.67629
11
3.44362
21
-2.67613
0
LINE
8
BLACK
6
CONTINUOUS
10
3.44362
20
-2.67613
11
3.44373
21
-2.6762
0
LINE
8
BLACK
6
CONTINUOUS
10
3.44537
20
-2.64715
11
3.44606
21
-2.64904
0
LINE
8
BLACK
6
CONTINUOUS
10
3.44606
20
-2.64904
11
3.44606
21
-2.65279
0
LINE
8
BLACK
6
CONTINUOUS
10
3.44606
20
-2.65279
11
3.4459
21
-2.65366
0
LINE
8
BLACK
6
CONTINUOUS
10
3.4459
20
-2.65366
11
3.4459
21
-2.65373
0
LINE
8
BLACK
6
CONTINUOUS
10
3.4459
20
-2.65373
11
3.44403
21
-2.65935
0
LINE
8
BLACK
6
CONTINUOUS
10
3.44403
20
-2.65935
11
3.44354
21
-2.66025
0
LINE
8
BLACK
6
CONTINUOUS
10
3.44354
20
-2.66025
11
3.44339
21
-2.66035
0
LINE
8
BLACK
6
CONTINUOUS
10
3.44339
20
-2.66035
11
3.44332
21
-2.66051
0
LINE
8
BLACK
6
CONTINUOUS
10
3.44332
20
-2.66051
11
3.43957
21
-2.66426
0
LINE
8
BLACK
6
CONTINUOUS
10
3.43957
20
-2.66426
11
3.43873
21
-2.66484
0
LINE
8
BLACK
6
CONTINUOUS
10
3.43873
20
-2.66484
11
3.43855
21
-2.66486
0
LINE
8
BLACK
6
CONTINUOUS
10
3.43855
20
-2.66486
11
3.43841
21
-2.66497
0
LINE
8
BLACK
6
CONTINUOUS
10
3.43841
20
-2.66497
11
3.43279
21
-2.66684
0
LINE
8
BLACK
6
CONTINUOUS
10
3.43279
20
-2.66684
11
3.43192
21
-2.66697
0
LINE
8
BLACK
6
CONTINUOUS
10
3.43192
20
-2.66697
11
3.43185
21
-2.66699
0
LINE
8
BLACK
6
CONTINUOUS
10
3.43185
20
-2.66699
11
3.40373
21
-2.66699
0
LINE
8
BLACK
6
CONTINUOUS
10
3.40373
20
-2.66699
11
3.40272
21
-2.66682
0
LINE
8
BLACK
6
CONTINUOUS
10
3.40272
20
-2.66682
11
3.40118
21
-2.66552
0
LINE
8
BLACK
6
CONTINUOUS
10
3.40118
20
-2.66552
11
3.40083
21
-2.66353
0
LINE
8
BLACK
6
CONTINUOUS
10
3.40083
20
-2.66353
11
3.40184
21
-2.66178
0
LINE
8
BLACK
6
CONTINUOUS
10
3.40184
20
-2.66178
11
3.40373
21
-2.66109
0
LINE
8
BLACK
6
CONTINUOUS
10
3.40373
20
-2.66109
11
3.43138
21
-2.66109
0
LINE
8
BLACK
6
CONTINUOUS
10
3.43138
20
-2.66109
11
3.43588
21
-2.65959
0
LINE
8
BLACK
6
CONTINUOUS
10
3.43588
20
-2.65959
11
3.43865
21
-2.65682
0
LINE
8
BLACK
6
CONTINUOUS
10
3.43865
20
-2.65682
11
3.44015
21
-2.65231
0
LINE
8
BLACK
6
CONTINUOUS
10
3.44015
20
-2.65231
11
3.44015
21
-2.64904
0
LINE
8
BLACK
6
CONTINUOUS
10
3.44015
20
-2.64904
11
3.44033
21
-2.64803
0
LINE
8
BLACK
6
CONTINUOUS
10
3.44033
20
-2.64803
11
3.44163
21
-2.64649
0
LINE
8
BLACK
6
CONTINUOUS
10
3.44163
20
-2.64649
11
3.44362
21
-2.64614
0
LINE
8
BLACK
6
CONTINUOUS
10
3.44362
20
-2.64614
11
3.44537
21
-2.64715
0
LINE
8
BLACK
6
CONTINUOUS
10
3.50394
20
-2.59646
11
3.50533
21
-2.59703
0
LINE
8
BLACK
6
CONTINUOUS
10
3.50533
20
-2.59703
11
3.50591
21
-2.59843
0
LINE
8
BLACK
6
CONTINUOUS
10
3.50591
20
-2.59843
11
3.50591
21
-2.62598
0
LINE
8
BLACK
6
CONTINUOUS
10
3.50591
20
-2.62598
11
3.54331
21
-2.62598
0
LINE
8
BLACK
6
CONTINUOUS
10
3.54331
20
-2.62598
11
3.5447
21
-2.62656
0
LINE
8
BLACK
6
CONTINUOUS
10
3.5447
20
-2.62656
11
3.54528
21
-2.62795
0
LINE
8
BLACK
6
CONTINUOUS
10
3.54528
20
-2.62795
11
3.54528
21
-2.64764
0
LINE
8
BLACK
6
CONTINUOUS
10
3.54528
20
-2.64764
11
3.5447
21
-2.64903
0
LINE
8
BLACK
6
CONTINUOUS
10
3.5447
20
-2.64903
11
3.54331
21
-2.64961
0
LINE
8
BLACK
6
CONTINUOUS
10
3.54331
20
-2.64961
11
3.50591
21
-2.64961
0
LINE
8
BLACK
6
CONTINUOUS
10
3.50591
20
-2.64961
11
3.50591
21
-2.70472
0
LINE
8
BLACK
6
CONTINUOUS
10
3.50591
20
-2.70472
11
3.54331
21
-2.70472
0
LINE
8
BLACK
6
CONTINUOUS
10
3.54331
20
-2.70472
11
3.5447
21
-2.7053
0
LINE
8
BLACK
6
CONTINUOUS
10
3.5447
20
-2.7053
11
3.54528
21
-2.70669
0
LINE
8
BLACK
6
CONTINUOUS
10
3.54528
20
-2.70669
11
3.54528
21
-2.72638
0
LINE
8
BLACK
6
CONTINUOUS
10
3.54528
20
-2.72638
11
3.5447
21
-2.72777
0
LINE
8
BLACK
6
CONTINUOUS
10
3.5447
20
-2.72777
11
3.54331
21
-2.72835
0
LINE
8
BLACK
6
CONTINUOUS
10
3.54331
20
-2.72835
11
3.50394
21
-2.72835
0
LINE
8
BLACK
6
CONTINUOUS
10
3.50394
20
-2.72835
11
3.50255
21
-2.72777
0
LINE
8
BLACK
6
CONTINUOUS
10
3.50255
20
-2.72777
11
3.50197
21
-2.72638
0
LINE
8
BLACK
6
CONTINUOUS
10
3.50197
20
-2.72638
11
3.50255
21
-2.72499
0
LINE
8
BLACK
6
CONTINUOUS
10
3.50255
20
-2.72499
11
3.50394
21
-2.72441
0
LINE
8
BLACK
6
CONTINUOUS
10
3.50394
20
-2.72441
11
3.54134
21
-2.72441
0
LINE
8
BLACK
6
CONTINUOUS
10
3.54134
20
-2.72441
11
3.54134
21
-2.70866
0
LINE
8
BLACK
6
CONTINUOUS
10
3.54134
20
-2.70866
11
3.50591
21
-2.70866
0
LINE
8
BLACK
6
CONTINUOUS
10
3.50591
20
-2.70866
11
3.50591
21
-2.71654
0
LINE
8
BLACK
6
CONTINUOUS
10
3.50591
20
-2.71654
11
3.50533
21
-2.71793
0
LINE
8
BLACK
6
CONTINUOUS
10
3.50533
20
-2.71793
11
3.46596
21
-2.7573
0
LINE
8
BLACK
6
CONTINUOUS
10
3.46596
20
-2.7573
11
3.46457
21
-2.75787
0
LINE
8
BLACK
6
CONTINUOUS
10
3.46457
20
-2.75787
11
3.34646
21
-2.75787
0
LINE
8
BLACK
6
CONTINUOUS
10
3.34646
20
-2.75787
11
3.34506
21
-2.7573
0
LINE
8
BLACK
6
CONTINUOUS
10
3.34506
20
-2.7573
11
3.34449
21
-2.75591
0
LINE
8
BLACK
6
CONTINUOUS
10
3.34449
20
-2.75591
11
3.34449
21
-2.72835
0
LINE
8
BLACK
6
CONTINUOUS
10
3.34449
20
-2.72835
11
3.30709
21
-2.72835
0
LINE
8
BLACK
6
CONTINUOUS
10
3.30709
20
-2.72835
11
3.30569
21
-2.72777
0
LINE
8
BLACK
6
CONTINUOUS
10
3.30569
20
-2.72777
11
3.30512
21
-2.72638
0
LINE
8
BLACK
6
CONTINUOUS
10
3.30512
20
-2.72638
11
3.30512
21
-2.70669
0
LINE
8
BLACK
6
CONTINUOUS
10
3.30512
20
-2.70669
11
3.30569
21
-2.7053
0
LINE
8
BLACK
6
CONTINUOUS
10
3.30569
20
-2.7053
11
3.30709
21
-2.70472
0
LINE
8
BLACK
6
CONTINUOUS
10
3.30709
20
-2.70472
11
3.34449
21
-2.70472
0
LINE
8
BLACK
6
CONTINUOUS
10
3.34449
20
-2.70472
11
3.34449
21
-2.64961
0
LINE
8
BLACK
6
CONTINUOUS
10
3.34449
20
-2.64961
11
3.30709
21
-2.64961
0
LINE
8
BLACK
6
CONTINUOUS
10
3.30709
20
-2.64961
11
3.30569
21
-2.64903
0
LINE
8
BLACK
6
CONTINUOUS
10
3.30569
20
-2.64903
11
3.30512
21
-2.64764
0
LINE
8
BLACK
6
CONTINUOUS
10
3.30512
20
-2.64764
11
3.30512
21
-2.62795
0
LINE
8
BLACK
6
CONTINUOUS
10
3.30512
20
-2.62795
11
3.30569
21
-2.62656
0
LINE
8
BLACK
6
CONTINUOUS
10
3.30569
20
-2.62656
11
3.30709
21
-2.62598
0
LINE
8
BLACK
6
CONTINUOUS
10
3.30709
20
-2.62598
11
3.34449
21
-2.62598
0
LINE
8
BLACK
6
CONTINUOUS
10
3.34449
20
-2.62598
11
3.34449
21
-2.59843
0
LINE
8
BLACK
6
CONTINUOUS
10
3.34449
20
-2.59843
11
3.34506
21
-2.59703
0
LINE
8
BLACK
6
CONTINUOUS
10
3.34506
20
-2.59703
11
3.34646
21
-2.59646
0
LINE
8
BLACK
6
CONTINUOUS
10
3.34646
20
-2.59646
11
3.50394
21
-2.59646
0
LINE
8
BLACK
6
CONTINUOUS
10
3.34843
20
-2.60039
11
3.34843
21
-2.75394
0
LINE
8
BLACK
6
CONTINUOUS
10
3.34843
20
-2.75394
11
3.46375
21
-2.75394
0
LINE
8
BLACK
6
CONTINUOUS
10
3.46375
20
-2.75394
11
3.50197
21
-2.71572
0
LINE
8
BLACK
6
CONTINUOUS
10
3.50197
20
-2.71572
11
3.50197
21
-2.60039
0
LINE
8
BLACK
6
CONTINUOUS
10
3.50197
20
-2.60039
11
3.34843
21
-2.60039
0
LINE
8
BLACK
6
CONTINUOUS
10
3.30906
20
-2.70866
11
3.30906
21
-2.72441
0
LINE
8
BLACK
6
CONTINUOUS
10
3.30906
20
-2.72441
11
3.34449
21
-2.72441
0
LINE
8
BLACK
6
CONTINUOUS
10
3.34449
20
-2.72441
11
3.34449
21
-2.70866
0
LINE
8
BLACK
6
CONTINUOUS
10
3.34449
20
-2.70866
11
3.30906
21
-2.70866
0
LINE
8
BLACK
6
CONTINUOUS
10
3.50591
20
-2.62992
11
3.50591
21
-2.64567
0
LINE
8
BLACK
6
CONTINUOUS
10
3.50591
20
-2.64567
11
3.54134
21
-2.64567
0
LINE
8
BLACK
6
CONTINUOUS
10
3.54134
20
-2.64567
11
3.54134
21
-2.62992
0
LINE
8
BLACK
6
CONTINUOUS
10
3.54134
20
-2.62992
11
3.50591
21
-2.62992
0
LINE
8
BLACK
6
CONTINUOUS
10
3.30906
20
-2.62992
11
3.30906
21
-2.64567
0
LINE
8
BLACK
6
CONTINUOUS
10
3.30906
20
-2.64567
11
3.34449
21
-2.64567
0
LINE
8
BLACK
6
CONTINUOUS
10
3.34449
20
-2.64567
11
3.34449
21
-2.62992
0
LINE
8
BLACK
6
CONTINUOUS
10
3.34449
20
-2.62992
11
3.30906
21
-2.62992
0
LINE
8
BLACK
6
CONTINUOUS
10
3.41121
20
-2.52825
11
3.41134
21
-2.52837
0
LINE
8
BLACK
6
CONTINUOUS
10
3.41134
20
-2.52837
11
3.41152
21
-2.52839
0
LINE
8
BLACK
6
CONTINUOUS
10
3.41152
20
-2.52839
11
3.41527
21
-2.53026
0
LINE
8
BLACK
6
CONTINUOUS
10
3.41527
20
-2.53026
11
3.41598
21
-2.53079
0
LINE
8
BLACK
6
CONTINUOUS
10
3.41598
20
-2.53079
11
3.41604
21
-2.53082
0
LINE
8
BLACK
6
CONTINUOUS
10
3.41604
20
-2.53082
11
3.41791
21
-2.53269
0
LINE
8
BLACK
6
CONTINUOUS
10
3.41791
20
-2.53269
11
3.41842
21
-2.53341
0
LINE
8
BLACK
6
CONTINUOUS
10
3.41842
20
-2.53341
11
3.41846
21
-2.53346
0
LINE
8
BLACK
6
CONTINUOUS
10
3.41846
20
-2.53346
11
3.42034
21
-2.53721
0
LINE
8
BLACK
6
CONTINUOUS
10
3.42034
20
-2.53721
11
3.42063
21
-2.53819
0
LINE
8
BLACK
6
CONTINUOUS
10
3.42063
20
-2.53819
11
3.42059
21
-2.53836
0
LINE
8
BLACK
6
CONTINUOUS
10
3.42059
20
-2.53836
11
3.42065
21
-2.53853
0
LINE
8
BLACK
6
CONTINUOUS
10
3.42065
20
-2.53853
11
3.42065
21
-2.54978
0
LINE
8
BLACK
6
CONTINUOUS
10
3.42065
20
-2.54978
11
3.42047
21
-2.55079
0
LINE
8
BLACK
6
CONTINUOUS
10
3.42047
20
-2.55079
11
3.42036
21
-2.55092
0
LINE
8
BLACK
6
CONTINUOUS
10
3.42036
20
-2.55092
11
3.42034
21
-2.5511
0
LINE
8
BLACK
6
CONTINUOUS
10
3.42034
20
-2.5511
11
3.41846
21
-2.55485
0
LINE
8
BLACK
6
CONTINUOUS
10
3.41846
20
-2.55485
11
3.41794
21
-2.55556
0
LINE
8
BLACK
6
CONTINUOUS
10
3.41794
20
-2.55556
11
3.41791
21
-2.55561
0
LINE
8
BLACK
6
CONTINUOUS
10
3.41791
20
-2.55561
11
3.41604
21
-2.55749
0
LINE
8
BLACK
6
CONTINUOUS
10
3.41604
20
-2.55749
11
3.41531
21
-2.558
0
LINE
8
BLACK
6
CONTINUOUS
10
3.41531
20
-2.558
11
3.41527
21
-2.55804
0
LINE
8
BLACK
6
CONTINUOUS
10
3.41527
20
-2.55804
11
3.41152
21
-2.55992
0
LINE
8
BLACK
6
CONTINUOUS
10
3.41152
20
-2.55992
11
3.41054
21
-2.56021
0
LINE
8
BLACK
6
CONTINUOUS
10
3.41054
20
-2.56021
11
3.41036
21
-2.56017
0
LINE
8
BLACK
6
CONTINUOUS
10
3.41036
20
-2.56017
11
3.4102
21
-2.56023
0
LINE
8
BLACK
6
CONTINUOUS
10
3.4102
20
-2.56023
11
3.4027
21
-2.56023
0
LINE
8
BLACK
6
CONTINUOUS
10
3.4027
20
-2.56023
11
3.4019
21
-2.56009
0
LINE
8
BLACK
6
CONTINUOUS
10
3.4019
20
-2.56009
11
3.4019
21
-2.5622
0
LINE
8
BLACK
6
CONTINUOUS
10
3.4019
20
-2.5622
11
3.40325
21
-2.5649
0
LINE
8
BLACK
6
CONTINUOUS
10
3.40325
20
-2.5649
11
3.40445
21
-2.5661
0
LINE
8
BLACK
6
CONTINUOUS
10
3.40445
20
-2.5661
11
3.40715
21
-2.56745
0
LINE
8
BLACK
6
CONTINUOUS
10
3.40715
20
-2.56745
11
3.41138
21
-2.56745
0
LINE
8
BLACK
6
CONTINUOUS
10
3.41138
20
-2.56745
11
3.4145
21
-2.56588
0
LINE
8
BLACK
6
CONTINUOUS
10
3.4145
20
-2.56588
11
3.41549
21
-2.56559
0
LINE
8
BLACK
6
CONTINUOUS
10
3.41549
20
-2.56559
11
3.41745
21
-2.56606
0
LINE
8
BLACK
6
CONTINUOUS
10
3.41745
20
-2.56606
11
3.41865
21
-2.56768
0
LINE
8
BLACK
6
CONTINUOUS
10
3.41865
20
-2.56768
11
3.41853
21
-2.5697
0
LINE
8
BLACK
6
CONTINUOUS
10
3.41853
20
-2.5697
11
3.41714
21
-2.57117
0
LINE
8
BLACK
6
CONTINUOUS
10
3.41714
20
-2.57117
11
3.41339
21
-2.57304
0
LINE
8
BLACK
6
CONTINUOUS
10
3.41339
20
-2.57304
11
3.41241
21
-2.57333
0
LINE
8
BLACK
6
CONTINUOUS
10
3.41241
20
-2.57333
11
3.41224
21
-2.57329
0
LINE
8
BLACK
6
CONTINUOUS
10
3.41224
20
-2.57329
11
3.41207
21
-2.57335
0
LINE
8
BLACK
6
CONTINUOUS
10
3.41207
20
-2.57335
11
3.40645
21
-2.57335
0
LINE
8
BLACK
6
CONTINUOUS
10
3.40645
20
-2.57335
11
3.40544
21
-2.57317
0
LINE
8
BLACK
6
CONTINUOUS
10
3.40544
20
-2.57317
11
3.4053
21
-2.57306
0
LINE
8
BLACK
6
CONTINUOUS
10
3.4053
20
-2.57306
11
3.40513
21
-2.57304
0
LINE
8
BLACK
6
CONTINUOUS
10
3.40513
20
-2.57304
11
3.40138
21
-2.57117
0
LINE
8
BLACK
6
CONTINUOUS
10
3.40138
20
-2.57117
11
3.40067
21
-2.57064
0
LINE
8
BLACK
6
CONTINUOUS
10
3.40067
20
-2.57064
11
3.40061
21
-2.57061
0
LINE
8
BLACK
6
CONTINUOUS
10
3.40061
20
-2.57061
11
3.39874
21
-2.56874
0
LINE
8
BLACK
6
CONTINUOUS
10
3.39874
20
-2.56874
11
3.39823
21
-2.56801
0
LINE
8
BLACK
6
CONTINUOUS
10
3.39823
20
-2.56801
11
3.39818
21
-2.56797
0
LINE
8
BLACK
6
CONTINUOUS
10
3.39818
20
-2.56797
11
3.39631
21
-2.56422
0
LINE
8
BLACK
6
CONTINUOUS
10
3.39631
20
-2.56422
11
3.39602
21
-2.56324
0
LINE
8
BLACK
6
CONTINUOUS
10
3.39602
20
-2.56324
11
3.39606
21
-2.56307
0
LINE
8
BLACK
6
CONTINUOUS
10
3.39606
20
-2.56307
11
3.396
21
-2.5629
0
LINE
8
BLACK
6
CONTINUOUS
10
3.396
20
-2.5629
11
3.396
21
-2.53103
0
LINE
8
BLACK
6
CONTINUOUS
10
3.396
20
-2.53103
11
3.39618
21
-2.53002
0
LINE
8
BLACK
6
CONTINUOUS
10
3.39618
20
-2.53002
11
3.39747
21
-2.52847
0
LINE
8
BLACK
6
CONTINUOUS
10
3.39747
20
-2.52847
11
3.39946
21
-2.52812
0
LINE
8
BLACK
6
CONTINUOUS
10
3.39946
20
-2.52812
11
3.4006
21
-2.52878
0
LINE
8
BLACK
6
CONTINUOUS
10
3.4006
20
-2.52878
11
3.40138
21
-2.52839
0
LINE
8
BLACK
6
CONTINUOUS
10
3.40138
20
-2.52839
11
3.40236
21
-2.5281
0
LINE
8
BLACK
6
CONTINUOUS
10
3.40236
20
-2.5281
11
3.40253
21
-2.52814
0
LINE
8
BLACK
6
CONTINUOUS
10
3.40253
20
-2.52814
11
3.4027
21
-2.52808
0
LINE
8
BLACK
6
CONTINUOUS
10
3.4027
20
-2.52808
11
3.4102
21
-2.52808
0
LINE
8
BLACK
6
CONTINUOUS
10
3.4102
20
-2.52808
11
3.41121
21
-2.52825
0
LINE
8
BLACK
6
CONTINUOUS
10
3.4019
20
-2.53473
11
3.4019
21
-2.55358
0
LINE
8
BLACK
6
CONTINUOUS
10
3.4019
20
-2.55358
11
3.4034
21
-2.55432
0
LINE
8
BLACK
6
CONTINUOUS
10
3.4034
20
-2.55432
11
3.4095
21
-2.55432
0
LINE
8
BLACK
6
CONTINUOUS
10
3.4095
20
-2.55432
11
3.4122
21
-2.55297
0
LINE
8
BLACK
6
CONTINUOUS
10
3.4122
20
-2.55297
11
3.4134
21
-2.55178
0
LINE
8
BLACK
6
CONTINUOUS
10
3.4134
20
-2.55178
11
3.41474
21
-2.54908
0
LINE
8
BLACK
6
CONTINUOUS
10
3.41474
20
-2.54908
11
3.41474
21
-2.53923
0
LINE
8
BLACK
6
CONTINUOUS
10
3.41474
20
-2.53923
11
3.4134
21
-2.53653
0
LINE
8
BLACK
6
CONTINUOUS
10
3.4134
20
-2.53653
11
3.4122
21
-2.53533
0
LINE
8
BLACK
6
CONTINUOUS
10
3.4122
20
-2.53533
11
3.4095
21
-2.53398
0
LINE
8
BLACK
6
CONTINUOUS
10
3.4095
20
-2.53398
11
3.4034
21
-2.53398
0
LINE
8
BLACK
6
CONTINUOUS
10
3.4034
20
-2.53398
11
3.4019
21
-2.53473
0
LINE
8
BLACK
6
CONTINUOUS
10
3.37746
20
-2.52825
11
3.3776
21
-2.52837
0
LINE
8
BLACK
6
CONTINUOUS
10
3.3776
20
-2.52837
11
3.37777
21
-2.52839
0
LINE
8
BLACK
6
CONTINUOUS
10
3.37777
20
-2.52839
11
3.38152
21
-2.53026
0
LINE
8
BLACK
6
CONTINUOUS
10
3.38152
20
-2.53026
11
3.38235
21
-2.53087
0
LINE
8
BLACK
6
CONTINUOUS
10
3.38235
20
-2.53087
11
3.38252
21
-2.53128
0
LINE
8
BLACK
6
CONTINUOUS
10
3.38252
20
-2.53128
11
3.38284
21
-2.53158
0
LINE
8
BLACK
6
CONTINUOUS
10
3.38284
20
-2.53158
11
3.38472
21
-2.53533
0
LINE
8
BLACK
6
CONTINUOUS
10
3.38472
20
-2.53533
11
3.38501
21
-2.53632
0
LINE
8
BLACK
6
CONTINUOUS
10
3.38501
20
-2.53632
11
3.38497
21
-2.53649
0
LINE
8
BLACK
6
CONTINUOUS
10
3.38497
20
-2.53649
11
3.38503
21
-2.53665
0
LINE
8
BLACK
6
CONTINUOUS
10
3.38503
20
-2.53665
11
3.38503
21
-2.55165
0
LINE
8
BLACK
6
CONTINUOUS
10
3.38503
20
-2.55165
11
3.38485
21
-2.55266
0
LINE
8
BLACK
6
CONTINUOUS
10
3.38485
20
-2.55266
11
3.38474
21
-2.5528
0
LINE
8
BLACK
6
CONTINUOUS
10
3.38474
20
-2.5528
11
3.38472
21
-2.55297
0
LINE
8
BLACK
6
CONTINUOUS
10
3.38472
20
-2.55297
11
3.38284
21
-2.55672
0
LINE
8
BLACK
6
CONTINUOUS
10
3.38284
20
-2.55672
11
3.38223
21
-2.55755
0
LINE
8
BLACK
6
CONTINUOUS
10
3.38223
20
-2.55755
11
3.38183
21
-2.55772
0
LINE
8
BLACK
6
CONTINUOUS
10
3.38183
20
-2.55772
11
3.38152
21
-2.55804
0
LINE
8
BLACK
6
CONTINUOUS
10
3.38152
20
-2.55804
11
3.37777
21
-2.55992
0
LINE
8
BLACK
6
CONTINUOUS
10
3.37777
20
-2.55992
11
3.37679
21
-2.56021
0
LINE
8
BLACK
6
CONTINUOUS
10
3.37679
20
-2.56021
11
3.37662
21
-2.56017
0
LINE
8
BLACK
6
CONTINUOUS
10
3.37662
20
-2.56017
11
3.37645
21
-2.56023
0
LINE
8
BLACK
6
CONTINUOUS
10
3.37645
20
-2.56023
11
3.36895
21
-2.56023
0
LINE
8
BLACK
6
CONTINUOUS
10
3.36895
20
-2.56023
11
3.36794
21
-2.56005
0
LINE
8
BLACK
6
CONTINUOUS
10
3.36794
20
-2.56005
11
3.36781
21
-2.55994
0
LINE
8
BLACK
6
CONTINUOUS
10
3.36781
20
-2.55994
11
3.36763
21
-2.55992
0
LINE
8
BLACK
6
CONTINUOUS
10
3.36763
20
-2.55992
11
3.36388
21
-2.55804
0
LINE
8
BLACK
6
CONTINUOUS
10
3.36388
20
-2.55804
11
3.36306
21
-2.55743
0
LINE
8
BLACK
6
CONTINUOUS
10
3.36306
20
-2.55743
11
3.36226
21
-2.55558
0
LINE
8
BLACK
6
CONTINUOUS
10
3.36226
20
-2.55558
11
3.36283
21
-2.55364
0
LINE
8
BLACK
6
CONTINUOUS
10
3.36283
20
-2.55364
11
3.36452
21
-2.55253
0
LINE
8
BLACK
6
CONTINUOUS
10
3.36452
20
-2.55253
11
3.36652
21
-2.55276
0
LINE
8
BLACK
6
CONTINUOUS
10
3.36652
20
-2.55276
11
3.36965
21
-2.55432
0
LINE
8
BLACK
6
CONTINUOUS
10
3.36965
20
-2.55432
11
3.37576
21
-2.55432
0
LINE
8
BLACK
6
CONTINUOUS
10
3.37576
20
-2.55432
11
3.378
21
-2.5532
0
LINE
8
BLACK
6
CONTINUOUS
10
3.378
20
-2.5532
11
3.37912
21
-2.55095
0
LINE
8
BLACK
6
CONTINUOUS
10
3.37912
20
-2.55095
11
3.37912
21
-2.54657
0
LINE
8
BLACK
6
CONTINUOUS
10
3.37912
20
-2.54657
11
3.36275
21
-2.5433
0
LINE
8
BLACK
6
CONTINUOUS
10
3.36275
20
-2.5433
11
3.3618
21
-2.54293
0
LINE
8
BLACK
6
CONTINUOUS
10
3.3618
20
-2.54293
11
3.36149
21
-2.54255
0
LINE
8
BLACK
6
CONTINUOUS
10
3.36149
20
-2.54255
11
3.36107
21
-2.5423
0
LINE
8
BLACK
6
CONTINUOUS
10
3.36107
20
-2.5423
11
3.36088
21
-2.54178
0
LINE
8
BLACK
6
CONTINUOUS
10
3.36088
20
-2.54178
11
3.36053
21
-2.54135
0
LINE
8
BLACK
6
CONTINUOUS
10
3.36053
20
-2.54135
11
3.36054
21
-2.54086
0
LINE
8
BLACK
6
CONTINUOUS
10
3.36054
20
-2.54086
11
3.36038
21
-2.5404
0
LINE
8
BLACK
6
CONTINUOUS
10
3.36038
20
-2.5404
11
3.36038
21
-2.53665
0
LINE
8
BLACK
6
CONTINUOUS
10
3.36038
20
-2.53665
11
3.36055
21
-2.53564
0
LINE
8
BLACK
6
CONTINUOUS
10
3.36055
20
-2.53564
11
3.36067
21
-2.53551
0
LINE
8
BLACK
6
CONTINUOUS
10
3.36067
20
-2.53551
11
3.36069
21
-2.53533
0
LINE
8
BLACK
6
CONTINUOUS
10
3.36069
20
-2.53533
11
3.36256
21
-2.53158
0
LINE
8
BLACK
6
CONTINUOUS
10
3.36256
20
-2.53158
11
3.36317
21
-2.53076
0
LINE
8
BLACK
6
CONTINUOUS
10
3.36317
20
-2.53076
11
3.36358
21
-2.53058
0
LINE
8
BLACK
6
CONTINUOUS
10
3.36358
20
-2.53058
11
3.36388
21
-2.53026
0
LINE
8
BLACK
6
CONTINUOUS
10
3.36388
20
-2.53026
11
3.36763
21
-2.52839
0
LINE
8
BLACK
6
CONTINUOUS
10
3.36763
20
-2.52839
11
3.36862
21
-2.5281
0
LINE
8
BLACK
6
CONTINUOUS
10
3.36862
20
-2.5281
11
3.36879
21
-2.52814
0
LINE
8
BLACK
6
CONTINUOUS
10
3.36879
20
-2.52814
11
3.36895
21
-2.52808
0
LINE
8
BLACK
6
CONTINUOUS
10
3.36895
20
-2.52808
11
3.37645
21
-2.52808
0
LINE
8
BLACK
6
CONTINUOUS
10
3.37645
20
-2.52808
11
3.37746
21
-2.52825
0
LINE
8
BLACK
6
CONTINUOUS
10
3.36741
20
-2.53511
11
3.36628
21
-2.53735
0
LINE
8
BLACK
6
CONTINUOUS
10
3.36628
20
-2.53735
11
3.36628
21
-2.53798
0
LINE
8
BLACK
6
CONTINUOUS
10
3.36628
20
-2.53798
11
3.37912
21
-2.54055
0
LINE
8
BLACK
6
CONTINUOUS
10
3.37912
20
-2.54055
11
3.37912
21
-2.53735
0
LINE
8
BLACK
6
CONTINUOUS
10
3.37912
20
-2.53735
11
3.378
21
-2.53511
0
LINE
8
BLACK
6
CONTINUOUS
10
3.378
20
-2.53511
11
3.37576
21
-2.53398
0
LINE
8
BLACK
6
CONTINUOUS
10
3.37576
20
-2.53398
11
3.36965
21
-2.53398
0
LINE
8
BLACK
6
CONTINUOUS
10
3.36965
20
-2.53398
11
3.36741
21
-2.53511
0
LINE
8
BLACK
6
CONTINUOUS
10
3.43683
20
-2.51601
11
3.43752
21
-2.51791
0
LINE
8
BLACK
6
CONTINUOUS
10
3.43752
20
-2.51791
11
3.43752
21
-2.52823
0
LINE
8
BLACK
6
CONTINUOUS
10
3.43752
20
-2.52823
11
3.43798
21
-2.5281
0
LINE
8
BLACK
6
CONTINUOUS
10
3.43798
20
-2.5281
11
3.43815
21
-2.52814
0
LINE
8
BLACK
6
CONTINUOUS
10
3.43815
20
-2.52814
11
3.43832
21
-2.52808
0
LINE
8
BLACK
6
CONTINUOUS
10
3.43832
20
-2.52808
11
3.44582
21
-2.52808
0
LINE
8
BLACK
6
CONTINUOUS
10
3.44582
20
-2.52808
11
3.44683
21
-2.52825
0
LINE
8
BLACK
6
CONTINUOUS
10
3.44683
20
-2.52825
11
3.44696
21
-2.52837
0
LINE
8
BLACK
6
CONTINUOUS
10
3.44696
20
-2.52837
11
3.44714
21
-2.52839
0
LINE
8
BLACK
6
CONTINUOUS
10
3.44714
20
-2.52839
11
3.45089
21
-2.53026
0
LINE
8
BLACK
6
CONTINUOUS
10
3.45089
20
-2.53026
11
3.4516
21
-2.53079
0
LINE
8
BLACK
6
CONTINUOUS
10
3.4516
20
-2.53079
11
3.45166
21
-2.53082
0
LINE
8
BLACK
6
CONTINUOUS
10
3.45166
20
-2.53082
11
3.45353
21
-2.53269
0
LINE
8
BLACK
6
CONTINUOUS
10
3.45353
20
-2.53269
11
3.45404
21
-2.53341
0
LINE
8
BLACK
6
CONTINUOUS
10
3.45404
20
-2.53341
11
3.45408
21
-2.53346
0
LINE
8
BLACK
6
CONTINUOUS
10
3.45408
20
-2.53346
11
3.45596
21
-2.53721
0
LINE
8
BLACK
6
CONTINUOUS
10
3.45596
20
-2.53721
11
3.45625
21
-2.53819
0
LINE
8
BLACK
6
CONTINUOUS
10
3.45625
20
-2.53819
11
3.45621
21
-2.53836
0
LINE
8
BLACK
6
CONTINUOUS
10
3.45621
20
-2.53836
11
3.45627
21
-2.53853
0
LINE
8
BLACK
6
CONTINUOUS
10
3.45627
20
-2.53853
11
3.45627
21
-2.54978
0
LINE
8
BLACK
6
CONTINUOUS
10
3.45627
20
-2.54978
11
3.45609
21
-2.55079
0
LINE
8
BLACK
6
CONTINUOUS
10
3.45609
20
-2.55079
11
3.45598
21
-2.55092
0
LINE
8
BLACK
6
CONTINUOUS
10
3.45598
20
-2.55092
11
3.45596
21
-2.5511
0
LINE
8
BLACK
6
CONTINUOUS
10
3.45596
20
-2.5511
11
3.45408
21
-2.55485
0
LINE
8
BLACK
6
CONTINUOUS
10
3.45408
20
-2.55485
11
3.45356
21
-2.55556
0
LINE
8
BLACK
6
CONTINUOUS
10
3.45356
20
-2.55556
11
3.45353
21
-2.55561
0
LINE
8
BLACK
6
CONTINUOUS
10
3.45353
20
-2.55561
11
3.45166
21
-2.55749
0
LINE
8
BLACK
6
CONTINUOUS
10
3.45166
20
-2.55749
11
3.45093
21
-2.558
0
LINE
8
BLACK
6
CONTINUOUS
10
3.45093
20
-2.558
11
3.45089
21
-2.55804
0
LINE
8
BLACK
6
CONTINUOUS
10
3.45089
20
-2.55804
11
3.44714
21
-2.55992
0
LINE
8
BLACK
6
CONTINUOUS
10
3.44714
20
-2.55992
11
3.44616
21
-2.56021
0
LINE
8
BLACK
6
CONTINUOUS
10
3.44616
20
-2.56021
11
3.44599
21
-2.56017
0
LINE
8
BLACK
6
CONTINUOUS
10
3.44599
20
-2.56017
11
3.44582
21
-2.56023
0
LINE
8
BLACK
6
CONTINUOUS
10
3.44582
20
-2.56023
11
3.43832
21
-2.56023
0
LINE
8
BLACK
6
CONTINUOUS
10
3.43832
20
-2.56023
11
3.43731
21
-2.56005
0
LINE
8
BLACK
6
CONTINUOUS
10
3.43731
20
-2.56005
11
3.43717
21
-2.55994
0
LINE
8
BLACK
6
CONTINUOUS
10
3.43717
20
-2.55994
11
3.437
21
-2.55992
0
LINE
8
BLACK
6
CONTINUOUS
10
3.437
20
-2.55992
11
3.43628
21
-2.55956
0
LINE
8
BLACK
6
CONTINUOUS
10
3.43628
20
-2.55956
11
3.43605
21
-2.55983
0
LINE
8
BLACK
6
CONTINUOUS
10
3.43605
20
-2.55983
11
3.43406
21
-2.56018
0
LINE
8
BLACK
6
CONTINUOUS
10
3.43406
20
-2.56018
11
3.43231
21
-2.55917
0
LINE
8
BLACK
6
CONTINUOUS
10
3.43231
20
-2.55917
11
3.43162
21
-2.55728
0
LINE
8
BLACK
6
CONTINUOUS
10
3.43162
20
-2.55728
11
3.43162
21
-2.51791
0
LINE
8
BLACK
6
CONTINUOUS
10
3.43162
20
-2.51791
11
3.4318
21
-2.5169
0
LINE
8
BLACK
6
CONTINUOUS
10
3.4318
20
-2.5169
11
3.43309
21
-2.51535
0
LINE
8
BLACK
6
CONTINUOUS
10
3.43309
20
-2.51535
11
3.43508
21
-2.515
0
LINE
8
BLACK
6
CONTINUOUS
10
3.43508
20
-2.515
11
3.43683
21
-2.51601
0
LINE
8
BLACK
6
CONTINUOUS
10
3.43752
20
-2.53473
11
3.43752
21
-2.55358
0
LINE
8
BLACK
6
CONTINUOUS
10
3.43752
20
-2.55358
11
3.43902
21
-2.55432
0
LINE
8
BLACK
6
CONTINUOUS
10
3.43902
20
-2.55432
11
3.44512
21
-2.55432
0
LINE
8
BLACK
6
CONTINUOUS
10
3.44512
20
-2.55432
11
3.44782
21
-2.55297
0
LINE
8
BLACK
6
CONTINUOUS
10
3.44782
20
-2.55297
11
3.44902
21
-2.55178
0
LINE
8
BLACK
6
CONTINUOUS
10
3.44902
20
-2.55178
11
3.45037
21
-2.54908
0
LINE
8
BLACK
6
CONTINUOUS
10
3.45037
20
-2.54908
11
3.45037
21
-2.53923
0
LINE
8
BLACK
6
CONTINUOUS
10
3.45037
20
-2.53923
11
3.44902
21
-2.53653
0
LINE
8
BLACK
6
CONTINUOUS
10
3.44902
20
-2.53653
11
3.44782
21
-2.53533
0
LINE
8
BLACK
6
CONTINUOUS
10
3.44782
20
-2.53533
11
3.44512
21
-2.53398
0
LINE
8
BLACK
6
CONTINUOUS
10
3.44512
20
-2.53398
11
3.43902
21
-2.53398
0
LINE
8
BLACK
6
CONTINUOUS
10
3.43902
20
-2.53398
11
3.43752
21
-2.53473
0
LINE
8
BLACK
6
CONTINUOUS
10
3.48245
20
-2.52825
11
3.48258
21
-2.52837
0
LINE
8
BLACK
6
CONTINUOUS
10
3.48258
20
-2.52837
11
3.48276
21
-2.52839
0
LINE
8
BLACK
6
CONTINUOUS
10
3.48276
20
-2.52839
11
3.48651
21
-2.53026
0
LINE
8
BLACK
6
CONTINUOUS
10
3.48651
20
-2.53026
11
3.48733
21
-2.53087
0
LINE
8
BLACK
6
CONTINUOUS
10
3.48733
20
-2.53087
11
3.48751
21
-2.53128
0
LINE
8
BLACK
6
CONTINUOUS
10
3.48751
20
-2.53128
11
3.48783
21
-2.53158
0
LINE
8
BLACK
6
CONTINUOUS
10
3.48783
20
-2.53158
11
3.48971
21
-2.53533
0
LINE
8
BLACK
6
CONTINUOUS
10
3.48971
20
-2.53533
11
3.49
21
-2.53632
0
LINE
8
BLACK
6
CONTINUOUS
10
3.49
20
-2.53632
11
3.48996
21
-2.53649
0
LINE
8
BLACK
6
CONTINUOUS
10
3.48996
20
-2.53649
11
3.49002
21
-2.53665
0
LINE
8
BLACK
6
CONTINUOUS
10
3.49002
20
-2.53665
11
3.49002
21
-2.55165
0
LINE
8
BLACK
6
CONTINUOUS
10
3.49002
20
-2.55165
11
3.48984
21
-2.55266
0
LINE
8
BLACK
6
CONTINUOUS
10
3.48984
20
-2.55266
11
3.48973
21
-2.5528
0
LINE
8
BLACK
6
CONTINUOUS
10
3.48973
20
-2.5528
11
3.48971
21
-2.55297
0
LINE
8
BLACK
6
CONTINUOUS
10
3.48971
20
-2.55297
11
3.48783
21
-2.55672
0
LINE
8
BLACK
6
CONTINUOUS
10
3.48783
20
-2.55672
11
3.48722
21
-2.55755
0
LINE
8
BLACK
6
CONTINUOUS
10
3.48722
20
-2.55755
11
3.48681
21
-2.55772
0
LINE
8
BLACK
6
CONTINUOUS
10
3.48681
20
-2.55772
11
3.48651
21
-2.55804
0
LINE
8
BLACK
6
CONTINUOUS
10
3.48651
20
-2.55804
11
3.48276
21
-2.55992
0
LINE
8
BLACK
6
CONTINUOUS
10
3.48276
20
-2.55992
11
3.48178
21
-2.56021
0
LINE
8
BLACK
6
CONTINUOUS
10
3.48178
20
-2.56021
11
3.48161
21
-2.56017
0
LINE
8
BLACK
6
CONTINUOUS
10
3.48161
20
-2.56017
11
3.48144
21
-2.56023
0
LINE
8
BLACK
6
CONTINUOUS
10
3.48144
20
-2.56023
11
3.47394
21
-2.56023
0
LINE
8
BLACK
6
CONTINUOUS
10
3.47394
20
-2.56023
11
3.47293
21
-2.56005
0
LINE
8
BLACK
6
CONTINUOUS
10
3.47293
20
-2.56005
11
3.4728
21
-2.55994
0
LINE
8
BLACK
6
CONTINUOUS
10
3.4728
20
-2.55994
11
3.47262
21
-2.55992
0
LINE
8
BLACK
6
CONTINUOUS
10
3.47262
20
-2.55992
11
3.46887
21
-2.55804
0
LINE
8
BLACK
6
CONTINUOUS
10
3.46887
20
-2.55804
11
3.46805
21
-2.55743
0
LINE
8
BLACK
6
CONTINUOUS
10
3.46805
20
-2.55743
11
3.46724
21
-2.55558
0
LINE
8
BLACK
6
CONTINUOUS
10
3.46724
20
-2.55558
11
3.46782
21
-2.55364
0
LINE
8
BLACK
6
CONTINUOUS
10
3.46782
20
-2.55364
11
3.46951
21
-2.55253
0
LINE
8
BLACK
6
CONTINUOUS
10
3.46951
20
-2.55253
11
3.47151
21
-2.55276
0
LINE
8
BLACK
6
CONTINUOUS
10
3.47151
20
-2.55276
11
3.47464
21
-2.55432
0
LINE
8
BLACK
6
CONTINUOUS
10
3.47464
20
-2.55432
11
3.48074
21
-2.55432
0
LINE
8
BLACK
6
CONTINUOUS
10
3.48074
20
-2.55432
11
3.48299
21
-2.5532
0
LINE
8
BLACK
6
CONTINUOUS
10
3.48299
20
-2.5532
11
3.48411
21
-2.55095
0
LINE
8
BLACK
6
CONTINUOUS
10
3.48411
20
-2.55095
11
3.48411
21
-2.54657
0
LINE
8
BLACK
6
CONTINUOUS
10
3.48411
20
-2.54657
11
3.46774
21
-2.5433
0
LINE
8
BLACK
6
CONTINUOUS
10
3.46774
20
-2.5433
11
3.46678
21
-2.54293
0
LINE
8
BLACK
6
CONTINUOUS
10
3.46678
20
-2.54293
11
3.46648
21
-2.54255
0
LINE
8
BLACK
6
CONTINUOUS
10
3.46648
20
-2.54255
11
3.46605
21
-2.5423
0
LINE
8
BLACK
6
CONTINUOUS
10
3.46605
20
-2.5423
11
3.46587
21
-2.54178
0
LINE
8
BLACK
6
CONTINUOUS
10
3.46587
20
-2.54178
11
3.46552
21
-2.54135
0
LINE
8
BLACK
6
CONTINUOUS
10
3.46552
20
-2.54135
11
3.46553
21
-2.54086
0
LINE
8
BLACK
6
CONTINUOUS
10
3.46553
20
-2.54086
11
3.46536
21
-2.5404
0
LINE
8
BLACK
6
CONTINUOUS
10
3.46536
20
-2.5404
11
3.46536
21
-2.53665
0
LINE
8
BLACK
6
CONTINUOUS
10
3.46536
20
-2.53665
11
3.46554
21
-2.53564
0
LINE
8
BLACK
6
CONTINUOUS
10
3.46554
20
-2.53564
11
3.46566
21
-2.53551
0
LINE
8
BLACK
6
CONTINUOUS
10
3.46566
20
-2.53551
11
3.46568
21
-2.53533
0
LINE
8
BLACK
6
CONTINUOUS
10
3.46568
20
-2.53533
11
3.46755
21
-2.53158
0
LINE
8
BLACK
6
CONTINUOUS
10
3.46755
20
-2.53158
11
3.46816
21
-2.53076
0
LINE
8
BLACK
6
CONTINUOUS
10
3.46816
20
-2.53076
11
3.46857
21
-2.53058
0
LINE
8
BLACK
6
CONTINUOUS
10
3.46857
20
-2.53058
11
3.46887
21
-2.53026
0
LINE
8
BLACK
6
CONTINUOUS
10
3.46887
20
-2.53026
11
3.47262
21
-2.52839
0
LINE
8
BLACK
6
CONTINUOUS
10
3.47262
20
-2.52839
11
3.4736
21
-2.5281
0
LINE
8
BLACK
6
CONTINUOUS
10
3.4736
20
-2.5281
11
3.47377
21
-2.52814
0
LINE
8
BLACK
6
CONTINUOUS
10
3.47377
20
-2.52814
11
3.47394
21
-2.52808
0
LINE
8
BLACK
6
CONTINUOUS
10
3.47394
20
-2.52808
11
3.48144
21
-2.52808
0
LINE
8
BLACK
6
CONTINUOUS
10
3.48144
20
-2.52808
11
3.48245
21
-2.52825
0
LINE
8
BLACK
6
CONTINUOUS
10
3.47239
20
-2.53511
11
3.47127
21
-2.53735
0
LINE
8
BLACK
6
CONTINUOUS
10
3.47127
20
-2.53735
11
3.47127
21
-2.53798
0
LINE
8
BLACK
6
CONTINUOUS
10
3.47127
20
-2.53798
11
3.48411
21
-2.54055
0
LINE
8
BLACK
6
CONTINUOUS
10
3.48411
20
-2.54055
11
3.48411
21
-2.53735
0
LINE
8
BLACK
6
CONTINUOUS
10
3.48411
20
-2.53735
11
3.48299
21
-2.53511
0
LINE
8
BLACK
6
CONTINUOUS
10
3.48299
20
-2.53511
11
3.48074
21
-2.53398
0
LINE
8
BLACK
6
CONTINUOUS
10
3.48074
20
-2.53398
11
3.47464
21
-2.53398
0
LINE
8
BLACK
6
CONTINUOUS
10
3.47464
20
-2.53398
11
3.47239
21
-2.53511
0
LINE
8
BLACK
6
CONTINUOUS
10
3.52897
20
-2.33792
11
3.52914
21
-2.33791
0
LINE
8
BLACK
6
CONTINUOUS
10
3.52914
20
-2.33791
11
3.52983
21
-2.33841
0
LINE
8
BLACK
6
CONTINUOUS
10
3.52983
20
-2.33841
11
3.53057
21
-2.33884
0
LINE
8
BLACK
6
CONTINUOUS
10
3.53057
20
-2.33884
11
3.53063
21
-2.339
0
LINE
8
BLACK
6
CONTINUOUS
10
3.53063
20
-2.339
11
3.53077
21
-2.3391
0
LINE
8
BLACK
6
CONTINUOUS
10
3.53077
20
-2.3391
11
3.53435
21
-2.34448
0
LINE
8
BLACK
6
CONTINUOUS
10
3.53435
20
-2.34448
11
3.53756
21
-2.34769
0
LINE
8
BLACK
6
CONTINUOUS
10
3.53756
20
-2.34769
11
3.54088
21
-2.34935
0
LINE
8
BLACK
6
CONTINUOUS
10
3.54088
20
-2.34935
11
3.5417
21
-2.34996
0
LINE
8
BLACK
6
CONTINUOUS
10
3.5417
20
-2.34996
11
3.5425
21
-2.35181
0
LINE
8
BLACK
6
CONTINUOUS
10
3.5425
20
-2.35181
11
3.54193
21
-2.35375
0
LINE
8
BLACK
6
CONTINUOUS
10
3.54193
20
-2.35375
11
3.54024
21
-2.35486
0
LINE
8
BLACK
6
CONTINUOUS
10
3.54024
20
-2.35486
11
3.53824
21
-2.35463
0
LINE
8
BLACK
6
CONTINUOUS
10
3.53824
20
-2.35463
11
3.53449
21
-2.35276
0
LINE
8
BLACK
6
CONTINUOUS
10
3.53449
20
-2.35276
11
3.53378
21
-2.35223
0
LINE
8
BLACK
6
CONTINUOUS
10
3.53378
20
-2.35223
11
3.53372
21
-2.3522
0
LINE
8
BLACK
6
CONTINUOUS
10
3.53372
20
-2.3522
11
3.53126
21
-2.34974
0
LINE
8
BLACK
6
CONTINUOUS
10
3.53126
20
-2.34974
11
3.53126
21
-2.37716
0
LINE
8
BLACK
6
CONTINUOUS
10
3.53126
20
-2.37716
11
3.53956
21
-2.37716
0
LINE
8
BLACK
6
CONTINUOUS
10
3.53956
20
-2.37716
11
3.54057
21
-2.37734
0
LINE
8
BLACK
6
CONTINUOUS
10
3.54057
20
-2.37734
11
3.54211
21
-2.37863
0
LINE
8
BLACK
6
CONTINUOUS
10
3.54211
20
-2.37863
11
3.54247
21
-2.38062
0
LINE
8
BLACK
6
CONTINUOUS
10
3.54247
20
-2.38062
11
3.54146
21
-2.38237
0
LINE
8
BLACK
6
CONTINUOUS
10
3.54146
20
-2.38237
11
3.53956
21
-2.38306
0
LINE
8
BLACK
6
CONTINUOUS
10
3.53956
20
-2.38306
11
3.51706
21
-2.38306
0
LINE
8
BLACK
6
CONTINUOUS
10
3.51706
20
-2.38306
11
3.51605
21
-2.38289
0
LINE
8
BLACK
6
CONTINUOUS
10
3.51605
20
-2.38289
11
3.5145
21
-2.38159
0
LINE
8
BLACK
6
CONTINUOUS
10
3.5145
20
-2.38159
11
3.51415
21
-2.3796
0
LINE
8
BLACK
6
CONTINUOUS
10
3.51415
20
-2.3796
11
3.51516
21
-2.37785
0
LINE
8
BLACK
6
CONTINUOUS
10
3.51516
20
-2.37785
11
3.51706
21
-2.37716
0
LINE
8
BLACK
6
CONTINUOUS
10
3.51706
20
-2.37716
11
3.52536
21
-2.37716
0
LINE
8
BLACK
6
CONTINUOUS
10
3.52536
20
-2.37716
11
3.52536
21
-2.34074
0
LINE
8
BLACK
6
CONTINUOUS
10
3.52536
20
-2.34074
11
3.52553
21
-2.33973
0
LINE
8
BLACK
6
CONTINUOUS
10
3.52553
20
-2.33973
11
3.52564
21
-2.3396
0
LINE
8
BLACK
6
CONTINUOUS
10
3.52564
20
-2.3396
11
3.52566
21
-2.33943
0
LINE
8
BLACK
6
CONTINUOUS
10
3.52566
20
-2.33943
11
3.52628
21
-2.33884
0
LINE
8
BLACK
6
CONTINUOUS
10
3.52628
20
-2.33884
11
3.52683
21
-2.33818
0
LINE
8
BLACK
6
CONTINUOUS
10
3.52683
20
-2.33818
11
3.527
21
-2.33815
0
LINE
8
BLACK
6
CONTINUOUS
10
3.527
20
-2.33815
11
3.52712
21
-2.33804
0
LINE
8
BLACK
6
CONTINUOUS
10
3.52712
20
-2.33804
11
3.52798
21
-2.33798
0
LINE
8
BLACK
6
CONTINUOUS
10
3.52798
20
-2.33798
11
3.52882
21
-2.33783
0
LINE
8
BLACK
6
CONTINUOUS
10
3.52882
20
-2.33783
11
3.52897
21
-2.33792
0
LINE
8
BLACK
6
CONTINUOUS
10
3.55869
20
-2.33884
11
3.55938
21
-2.34074
0
LINE
8
BLACK
6
CONTINUOUS
10
3.55938
20
-2.34074
11
3.55938
21
-2.36838
0
LINE
8
BLACK
6
CONTINUOUS
10
3.55938
20
-2.36838
11
3.56089
21
-2.37289
0
LINE
8
BLACK
6
CONTINUOUS
10
3.56089
20
-2.37289
11
3.56365
21
-2.37566
0
LINE
8
BLACK
6
CONTINUOUS
10
3.56365
20
-2.37566
11
3.56816
21
-2.37716
0
LINE
8
BLACK
6
CONTINUOUS
10
3.56816
20
-2.37716
11
3.57143
21
-2.37716
0
LINE
8
BLACK
6
CONTINUOUS
10
3.57143
20
-2.37716
11
3.57244
21
-2.37734
0
LINE
8
BLACK
6
CONTINUOUS
10
3.57244
20
-2.37734
11
3.57399
21
-2.37863
0
LINE
8
BLACK
6
CONTINUOUS
10
3.57399
20
-2.37863
11
3.57434
21
-2.38062
0
LINE
8
BLACK
6
CONTINUOUS
10
3.57434
20
-2.38062
11
3.57333
21
-2.38237
0
LINE
8
BLACK
6
CONTINUOUS
10
3.57333
20
-2.38237
11
3.57143
21
-2.38306
0
LINE
8
BLACK
6
CONTINUOUS
10
3.57143
20
-2.38306
11
3.56768
21
-2.38306
0
LINE
8
BLACK
6
CONTINUOUS
10
3.56768
20
-2.38306
11
3.56681
21
-2.38291
0
LINE
8
BLACK
6
CONTINUOUS
10
3.56681
20
-2.38291
11
3.56675
21
-2.38291
0
LINE
8
BLACK
6
CONTINUOUS
10
3.56675
20
-2.38291
11
3.56112
21
-2.38104
0
LINE
8
BLACK
6
CONTINUOUS
10
3.56112
20
-2.38104
11
3.56022
21
-2.38055
0
LINE
8
BLACK
6
CONTINUOUS
10
3.56022
20
-2.38055
11
3.56013
21
-2.3804
0
LINE
8
BLACK
6
CONTINUOUS
10
3.56013
20
-2.3804
11
3.55997
21
-2.38032
0
LINE
8
BLACK
6
CONTINUOUS
10
3.55997
20
-2.38032
11
3.55622
21
-2.37657
0
LINE
8
BLACK
6
CONTINUOUS
10
3.55622
20
-2.37657
11
3.55563
21
-2.37573
0
LINE
8
BLACK
6
CONTINUOUS
10
3.55563
20
-2.37573
11
3.55561
21
-2.37556
0
LINE
8
BLACK
6
CONTINUOUS
10
3.55561
20
-2.37556
11
3.5555
21
-2.37542
0
LINE
8
BLACK
6
CONTINUOUS
10
3.5555
20
-2.37542
11
3.55363
21
-2.3698
0
LINE
8
BLACK
6
CONTINUOUS
10
3.55363
20
-2.3698
11
3.5535
21
-2.36892
0
LINE
8
BLACK
6
CONTINUOUS
10
3.5535
20
-2.36892
11
3.55348
21
-2.36886
0
LINE
8
BLACK
6
CONTINUOUS
10
3.55348
20
-2.36886
11
3.55348
21
-2.34074
0
LINE
8
BLACK
6
CONTINUOUS
10
3.55348
20
-2.34074
11
3.55366
21
-2.33973
0
LINE
8
BLACK
6
CONTINUOUS
10
3.55366
20
-2.33973
11
3.55495
21
-2.33818
0
LINE
8
BLACK
6
CONTINUOUS
10
3.55495
20
-2.33818
11
3.55694
21
-2.33783
0
LINE
8
BLACK
6
CONTINUOUS
10
3.55694
20
-2.33783
11
3.55869
21
-2.33884
0
LINE
8
BLACK
6
CONTINUOUS
10
3.51378
20
-2.24213
11
3.51517
21
-2.2427
0
LINE
8
BLACK
6
CONTINUOUS
10
3.51517
20
-2.2427
11
3.51575
21
-2.24409
0
LINE
8
BLACK
6
CONTINUOUS
10
3.51575
20
-2.24409
11
3.51575
21
-2.2815
0
LINE
8
BLACK
6
CONTINUOUS
10
3.51575
20
-2.2815
11
3.57087
21
-2.2815
0
LINE
8
BLACK
6
CONTINUOUS
10
3.57087
20
-2.2815
11
3.57087
21
-2.24409
0
LINE
8
BLACK
6
CONTINUOUS
10
3.57087
20
-2.24409
11
3.57144
21
-2.2427
0
LINE
8
BLACK
6
CONTINUOUS
10
3.57144
20
-2.2427
11
3.57283
21
-2.24213
0
LINE
8
BLACK
6
CONTINUOUS
10
3.57283
20
-2.24213
11
3.59252
21
-2.24213
0
LINE
8
BLACK
6
CONTINUOUS
10
3.59252
20
-2.24213
11
3.59391
21
-2.2427
0
LINE
8
BLACK
6
CONTINUOUS
10
3.59391
20
-2.2427
11
3.59449
21
-2.24409
0
LINE
8
BLACK
6
CONTINUOUS
10
3.59449
20
-2.24409
11
3.59449
21
-2.28346
0
LINE
8
BLACK
6
CONTINUOUS
10
3.59449
20
-2.28346
11
3.59391
21
-2.28486
0
LINE
8
BLACK
6
CONTINUOUS
10
3.59391
20
-2.28486
11
3.59252
21
-2.28543
0
LINE
8
BLACK
6
CONTINUOUS
10
3.59252
20
-2.28543
11
3.59113
21
-2.28486
0
LINE
8
BLACK
6
CONTINUOUS
10
3.59113
20
-2.28486
11
3.59055
21
-2.28346
0
LINE
8
BLACK
6
CONTINUOUS
10
3.59055
20
-2.28346
11
3.59055
21
-2.24606
0
LINE
8
BLACK
6
CONTINUOUS
10
3.59055
20
-2.24606
11
3.5748
21
-2.24606
0
LINE
8
BLACK
6
CONTINUOUS
10
3.5748
20
-2.24606
11
3.5748
21
-2.2815
0
LINE
8
BLACK
6
CONTINUOUS
10
3.5748
20
-2.2815
11
3.58268
21
-2.2815
0
LINE
8
BLACK
6
CONTINUOUS
10
3.58268
20
-2.2815
11
3.58407
21
-2.28207
0
LINE
8
BLACK
6
CONTINUOUS
10
3.58407
20
-2.28207
11
3.62344
21
-2.32144
0
LINE
8
BLACK
6
CONTINUOUS
10
3.62344
20
-2.32144
11
3.62354
21
-2.32168
0
LINE
8
BLACK
6
CONTINUOUS
10
3.62354
20
-2.32168
11
3.62402
21
-2.32283
0
LINE
8
BLACK
6
CONTINUOUS
10
3.62402
20
-2.32283
11
3.62402
21
-2.44094
0
LINE
8
BLACK
6
CONTINUOUS
10
3.62402
20
-2.44094
11
3.62344
21
-2.44234
0
LINE
8
BLACK
6
CONTINUOUS
10
3.62344
20
-2.44234
11
3.62205
21
-2.44291
0
LINE
8
BLACK
6
CONTINUOUS
10
3.62205
20
-2.44291
11
3.59449
21
-2.44291
0
LINE
8
BLACK
6
CONTINUOUS
10
3.59449
20
-2.44291
11
3.59449
21
-2.48031
0
LINE
8
BLACK
6
CONTINUOUS
10
3.59449
20
-2.48031
11
3.59391
21
-2.48171
0
LINE
8
BLACK
6
CONTINUOUS
10
3.59391
20
-2.48171
11
3.59252
21
-2.48228
0
LINE
8
BLACK
6
CONTINUOUS
10
3.59252
20
-2.48228
11
3.57283
21
-2.48228
0
LINE
8
BLACK
6
CONTINUOUS
10
3.57283
20
-2.48228
11
3.57144
21
-2.48171
0
LINE
8
BLACK
6
CONTINUOUS
10
3.57144
20
-2.48171
11
3.57087
21
-2.48031
0
LINE
8
BLACK
6
CONTINUOUS
10
3.57087
20
-2.48031
11
3.57087
21
-2.44291
0
LINE
8
BLACK
6
CONTINUOUS
10
3.57087
20
-2.44291
11
3.51575
21
-2.44291
0
LINE
8
BLACK
6
CONTINUOUS
10
3.51575
20
-2.44291
11
3.51575
21
-2.48031
0
LINE
8
BLACK
6
CONTINUOUS
10
3.51575
20
-2.48031
11
3.51517
21
-2.48171
0
LINE
8
BLACK
6
CONTINUOUS
10
3.51517
20
-2.48171
11
3.51378
21
-2.48228
0
LINE
8
BLACK
6
CONTINUOUS
10
3.51378
20
-2.48228
11
3.49409
21
-2.48228
0
LINE
8
BLACK
6
CONTINUOUS
10
3.49409
20
-2.48228
11
3.4927
21
-2.48171
0
LINE
8
BLACK
6
CONTINUOUS
10
3.4927
20
-2.48171
11
3.49213
21
-2.48031
0
LINE
8
BLACK
6
CONTINUOUS
10
3.49213
20
-2.48031
11
3.49213
21
-2.44291
0
LINE
8
BLACK
6
CONTINUOUS
10
3.49213
20
-2.44291
11
3.46457
21
-2.44291
0
LINE
8
BLACK
6
CONTINUOUS
10
3.46457
20
-2.44291
11
3.46318
21
-2.44234
0
LINE
8
BLACK
6
CONTINUOUS
10
3.46318
20
-2.44234
11
3.4626
21
-2.44094
0
LINE
8
BLACK
6
CONTINUOUS
10
3.4626
20
-2.44094
11
3.4626
21
-2.28346
0
LINE
8
BLACK
6
CONTINUOUS
10
3.4626
20
-2.28346
11
3.46318
21
-2.28207
0
LINE
8
BLACK
6
CONTINUOUS
10
3.46318
20
-2.28207
11
3.46457
21
-2.2815
0
LINE
8
BLACK
6
CONTINUOUS
10
3.46457
20
-2.2815
11
3.49213
21
-2.2815
0
LINE
8
BLACK
6
CONTINUOUS
10
3.49213
20
-2.2815
11
3.49213
21
-2.24409
0
LINE
8
BLACK
6
CONTINUOUS
10
3.49213
20
-2.24409
11
3.4927
21
-2.2427
0
LINE
8
BLACK
6
CONTINUOUS
10
3.4927
20
-2.2427
11
3.49409
21
-2.24213
0
LINE
8
BLACK
6
CONTINUOUS
10
3.49409
20
-2.24213
11
3.51378
21
-2.24213
0
LINE
8
BLACK
6
CONTINUOUS
10
3.5748
20
-2.44291
11
3.5748
21
-2.47835
0
LINE
8
BLACK
6
CONTINUOUS
10
3.5748
20
-2.47835
11
3.59055
21
-2.47835
0
LINE
8
BLACK
6
CONTINUOUS
10
3.59055
20
-2.47835
11
3.59055
21
-2.44291
0
LINE
8
BLACK
6
CONTINUOUS
10
3.59055
20
-2.44291
11
3.5748
21
-2.44291
0
LINE
8
BLACK
6
CONTINUOUS
10
3.49606
20
-2.44291
11
3.49606
21
-2.47835
0
LINE
8
BLACK
6
CONTINUOUS
10
3.49606
20
-2.47835
11
3.51181
21
-2.47835
0
LINE
8
BLACK
6
CONTINUOUS
10
3.51181
20
-2.47835
11
3.51181
21
-2.44291
0
LINE
8
BLACK
6
CONTINUOUS
10
3.51181
20
-2.44291
11
3.49606
21
-2.44291
0
LINE
8
BLACK
6
CONTINUOUS
10
3.57283
20
-2.28543
11
3.51378
21
-2.28543
0
LINE
8
BLACK
6
CONTINUOUS
10
3.51378
20
-2.28543
11
3.49409
21
-2.28543
0
LINE
8
BLACK
6
CONTINUOUS
10
3.49409
20
-2.28543
11
3.46654
21
-2.28543
0
LINE
8
BLACK
6
CONTINUOUS
10
3.46654
20
-2.28543
11
3.46654
21
-2.43898
0
LINE
8
BLACK
6
CONTINUOUS
10
3.46654
20
-2.43898
11
3.62008
21
-2.43898
0
LINE
8
BLACK
6
CONTINUOUS
10
3.62008
20
-2.43898
11
3.62008
21
-2.32365
0
LINE
8
BLACK
6
CONTINUOUS
10
3.62008
20
-2.32365
11
3.58186
21
-2.28543
0
LINE
8
BLACK
6
CONTINUOUS
10
3.58186
20
-2.28543
11
3.57283
21
-2.28543
0
LINE
8
BLACK
6
CONTINUOUS
10
3.49606
20
-2.24606
11
3.49606
21
-2.2815
0
LINE
8
BLACK
6
CONTINUOUS
10
3.49606
20
-2.2815
11
3.51181
21
-2.2815
0
LINE
8
BLACK
6
CONTINUOUS
10
3.51181
20
-2.2815
11
3.51181
21
-2.24606
0
LINE
8
BLACK
6
CONTINUOUS
10
3.51181
20
-2.24606
11
3.49606
21
-2.24606
0
LINE
8
BLACK
6
CONTINUOUS
10
3.4188
20
-2.43161
11
3.41894
21
-2.43172
0
LINE
8
BLACK
6
CONTINUOUS
10
3.41894
20
-2.43172
11
3.41911
21
-2.43174
0
LINE
8
BLACK
6
CONTINUOUS
10
3.41911
20
-2.43174
11
3.42286
21
-2.43362
0
LINE
8
BLACK
6
CONTINUOUS
10
3.42286
20
-2.43362
11
3.42369
21
-2.43423
0
LINE
8
BLACK
6
CONTINUOUS
10
3.42369
20
-2.43423
11
3.42386
21
-2.43463
0
LINE
8
BLACK
6
CONTINUOUS
10
3.42386
20
-2.43463
11
3.42418
21
-2.43494
0
LINE
8
BLACK
6
CONTINUOUS
10
3.42418
20
-2.43494
11
3.42606
21
-2.43869
0
LINE
8
BLACK
6
CONTINUOUS
10
3.42606
20
-2.43869
11
3.42635
21
-2.43967
0
LINE
8
BLACK
6
CONTINUOUS
10
3.42635
20
-2.43967
11
3.42631
21
-2.43984
0
LINE
8
BLACK
6
CONTINUOUS
10
3.42631
20
-2.43984
11
3.42637
21
-2.44001
0
LINE
8
BLACK
6
CONTINUOUS
10
3.42637
20
-2.44001
11
3.42637
21
-2.44751
0
LINE
8
BLACK
6
CONTINUOUS
10
3.42637
20
-2.44751
11
3.42619
21
-2.44852
0
LINE
8
BLACK
6
CONTINUOUS
10
3.42619
20
-2.44852
11
3.42608
21
-2.44865
0
LINE
8
BLACK
6
CONTINUOUS
10
3.42608
20
-2.44865
11
3.42606
21
-2.44883
0
LINE
8
BLACK
6
CONTINUOUS
10
3.42606
20
-2.44883
11
3.42418
21
-2.45258
0
LINE
8
BLACK
6
CONTINUOUS
10
3.42418
20
-2.45258
11
3.42357
21
-2.4534
0
LINE
8
BLACK
6
CONTINUOUS
10
3.42357
20
-2.4534
11
3.42172
21
-2.4542
0
LINE
8
BLACK
6
CONTINUOUS
10
3.42172
20
-2.4542
11
3.41978
21
-2.45363
0
LINE
8
BLACK
6
CONTINUOUS
10
3.41978
20
-2.45363
11
3.41867
21
-2.45194
0
LINE
8
BLACK
6
CONTINUOUS
10
3.41867
20
-2.45194
11
3.4189
21
-2.44994
0
LINE
8
BLACK
6
CONTINUOUS
10
3.4189
20
-2.44994
11
3.42047
21
-2.44681
0
LINE
8
BLACK
6
CONTINUOUS
10
3.42047
20
-2.44681
11
3.42047
21
-2.4407
0
LINE
8
BLACK
6
CONTINUOUS
10
3.42047
20
-2.4407
11
3.41934
21
-2.43846
0
LINE
8
BLACK
6
CONTINUOUS
10
3.41934
20
-2.43846
11
3.4171
21
-2.43734
0
LINE
8
BLACK
6
CONTINUOUS
10
3.4171
20
-2.43734
11
3.41272
21
-2.43734
0
LINE
8
BLACK
6
CONTINUOUS
10
3.41272
20
-2.43734
11
3.40944
21
-2.45371
0
LINE
8
BLACK
6
CONTINUOUS
10
3.40944
20
-2.45371
11
3.40907
21
-2.45467
0
LINE
8
BLACK
6
CONTINUOUS
10
3.40907
20
-2.45467
11
3.40869
21
-2.45497
0
LINE
8
BLACK
6
CONTINUOUS
10
3.40869
20
-2.45497
11
3.40844
21
-2.45539
0
LINE
8
BLACK
6
CONTINUOUS
10
3.40844
20
-2.45539
11
3.40792
21
-2.45558
0
LINE
8
BLACK
6
CONTINUOUS
10
3.40792
20
-2.45558
11
3.40749
21
-2.45593
0
LINE
8
BLACK
6
CONTINUOUS
10
3.40749
20
-2.45593
11
3.407
21
-2.45592
0
LINE
8
BLACK
6
CONTINUOUS
10
3.407
20
-2.45592
11
3.40655
21
-2.45608
0
LINE
8
BLACK
6
CONTINUOUS
10
3.40655
20
-2.45608
11
3.4028
21
-2.45608
0
LINE
8
BLACK
6
CONTINUOUS
10
3.4028
20
-2.45608
11
3.40179
21
-2.45591
0
LINE
8
BLACK
6
CONTINUOUS
10
3.40179
20
-2.45591
11
3.40165
21
-2.45579
0
LINE
8
BLACK
6
CONTINUOUS
10
3.40165
20
-2.45579
11
3.40148
21
-2.45577
0
LINE
8
BLACK
6
CONTINUOUS
10
3.40148
20
-2.45577
11
3.39773
21
-2.4539
0
LINE
8
BLACK
6
CONTINUOUS
10
3.39773
20
-2.4539
11
3.3969
21
-2.45329
0
LINE
8
BLACK
6
CONTINUOUS
10
3.3969
20
-2.45329
11
3.39673
21
-2.45288
0
LINE
8
BLACK
6
CONTINUOUS
10
3.39673
20
-2.45288
11
3.39641
21
-2.45258
0
LINE
8
BLACK
6
CONTINUOUS
10
3.39641
20
-2.45258
11
3.39453
21
-2.44883
0
LINE
8
BLACK
6
CONTINUOUS
10
3.39453
20
-2.44883
11
3.39424
21
-2.44784
0
LINE
8
BLACK
6
CONTINUOUS
10
3.39424
20
-2.44784
11
3.39428
21
-2.44767
0
LINE
8
BLACK
6
CONTINUOUS
10
3.39428
20
-2.44767
11
3.39422
21
-2.44751
0
LINE
8
BLACK
6
CONTINUOUS
10
3.39422
20
-2.44751
11
3.39422
21
-2.44001
0
LINE
8
BLACK
6
CONTINUOUS
10
3.39422
20
-2.44001
11
3.3944
21
-2.439
0
LINE
8
BLACK
6
CONTINUOUS
10
3.3944
20
-2.439
11
3.39451
21
-2.43886
0
LINE
8
BLACK
6
CONTINUOUS
10
3.39451
20
-2.43886
11
3.39453
21
-2.43869
0
LINE
8
BLACK
6
CONTINUOUS
10
3.39453
20
-2.43869
11
3.39641
21
-2.43494
0
LINE
8
BLACK
6
CONTINUOUS
10
3.39641
20
-2.43494
11
3.39702
21
-2.43411
0
LINE
8
BLACK
6
CONTINUOUS
10
3.39702
20
-2.43411
11
3.39742
21
-2.43394
0
LINE
8
BLACK
6
CONTINUOUS
10
3.39742
20
-2.43394
11
3.39773
21
-2.43362
0
LINE
8
BLACK
6
CONTINUOUS
10
3.39773
20
-2.43362
11
3.40148
21
-2.43174
0
LINE
8
BLACK
6
CONTINUOUS
10
3.40148
20
-2.43174
11
3.40246
21
-2.43145
0
LINE
8
BLACK
6
CONTINUOUS
10
3.40246
20
-2.43145
11
3.40263
21
-2.43149
0
LINE
8
BLACK
6
CONTINUOUS
10
3.40263
20
-2.43149
11
3.4028
21
-2.43143
0
LINE
8
BLACK
6
CONTINUOUS
10
3.4028
20
-2.43143
11
3.41779
21
-2.43143
0
LINE
8
BLACK
6
CONTINUOUS
10
3.41779
20
-2.43143
11
3.4188
21
-2.43161
0
LINE
8
BLACK
6
CONTINUOUS
10
3.40125
20
-2.43846
11
3.40012
21
-2.4407
0
LINE
8
BLACK
6
CONTINUOUS
10
3.40012
20
-2.4407
11
3.40012
21
-2.44681
0
LINE
8
BLACK
6
CONTINUOUS
10
3.40012
20
-2.44681
11
3.40125
21
-2.44906
0
LINE
8
BLACK
6
CONTINUOUS
10
3.40125
20
-2.44906
11
3.40349
21
-2.45018
0
LINE
8
BLACK
6
CONTINUOUS
10
3.40349
20
-2.45018
11
3.40412
21
-2.45018
0
LINE
8
BLACK
6
CONTINUOUS
10
3.40412
20
-2.45018
11
3.40669
21
-2.43734
0
LINE
8
BLACK
6
CONTINUOUS
10
3.40669
20
-2.43734
11
3.40349
21
-2.43734
0
LINE
8
BLACK
6
CONTINUOUS
10
3.40349
20
-2.43734
11
3.40125
21
-2.43846
0
LINE
8
BLACK
6
CONTINUOUS
10
3.4188
20
-2.41286
11
3.41894
21
-2.41297
0
LINE
8
BLACK
6
CONTINUOUS
10
3.41894
20
-2.41297
11
3.41911
21
-2.41299
0
LINE
8
BLACK
6
CONTINUOUS
10
3.41911
20
-2.41299
11
3.42286
21
-2.41487
0
LINE
8
BLACK
6
CONTINUOUS
10
3.42286
20
-2.41487
11
3.42369
21
-2.41548
0
LINE
8
BLACK
6
CONTINUOUS
10
3.42369
20
-2.41548
11
3.42386
21
-2.41589
0
LINE
8
BLACK
6
CONTINUOUS
10
3.42386
20
-2.41589
11
3.42418
21
-2.41619
0
LINE
8
BLACK
6
CONTINUOUS
10
3.42418
20
-2.41619
11
3.42606
21
-2.41994
0
LINE
8
BLACK
6
CONTINUOUS
10
3.42606
20
-2.41994
11
3.42635
21
-2.42092
0
LINE
8
BLACK
6
CONTINUOUS
10
3.42635
20
-2.42092
11
3.42588
21
-2.42289
0
LINE
8
BLACK
6
CONTINUOUS
10
3.42588
20
-2.42289
11
3.42426
21
-2.42409
0
LINE
8
BLACK
6
CONTINUOUS
10
3.42426
20
-2.42409
11
3.42224
21
-2.42397
0
LINE
8
BLACK
6
CONTINUOUS
10
3.42224
20
-2.42397
11
3.42078
21
-2.42258
0
LINE
8
BLACK
6
CONTINUOUS
10
3.42078
20
-2.42258
11
3.41934
21
-2.41971
0
LINE
8
BLACK
6
CONTINUOUS
10
3.41934
20
-2.41971
11
3.4171
21
-2.41859
0
LINE
8
BLACK
6
CONTINUOUS
10
3.4171
20
-2.41859
11
3.38405
21
-2.41859
0
LINE
8
BLACK
6
CONTINUOUS
10
3.38405
20
-2.41859
11
3.38304
21
-2.41841
0
LINE
8
BLACK
6
CONTINUOUS
10
3.38304
20
-2.41841
11
3.38149
21
-2.41711
0
LINE
8
BLACK
6
CONTINUOUS
10
3.38149
20
-2.41711
11
3.38114
21
-2.41512
0
LINE
8
BLACK
6
CONTINUOUS
10
3.38114
20
-2.41512
11
3.38215
21
-2.41337
0
LINE
8
BLACK
6
CONTINUOUS
10
3.38215
20
-2.41337
11
3.38405
21
-2.41268
0
LINE
8
BLACK
6
CONTINUOUS
10
3.38405
20
-2.41268
11
3.41779
21
-2.41268
0
LINE
8
BLACK
6
CONTINUOUS
10
3.41779
20
-2.41268
11
3.4188
21
-2.41286
0
LINE
8
BLACK
6
CONTINUOUS
10
3.41693
20
-2.37537
11
3.41706
21
-2.37548
0
LINE
8
BLACK
6
CONTINUOUS
10
3.41706
20
-2.37548
11
3.41724
21
-2.3755
0
LINE
8
BLACK
6
CONTINUOUS
10
3.41724
20
-2.3755
11
3.42099
21
-2.37737
0
LINE
8
BLACK
6
CONTINUOUS
10
3.42099
20
-2.37737
11
3.4217
21
-2.3779
0
LINE
8
BLACK
6
CONTINUOUS
10
3.4217
20
-2.3779
11
3.42176
21
-2.37793
0
LINE
8
BLACK
6
CONTINUOUS
10
3.42176
20
-2.37793
11
3.42363
21
-2.3798
0
LINE
8
BLACK
6
CONTINUOUS
10
3.42363
20
-2.3798
11
3.42414
21
-2.38052
0
LINE
8
BLACK
6
CONTINUOUS
10
3.42414
20
-2.38052
11
3.42418
21
-2.38057
0
LINE
8
BLACK
6
CONTINUOUS
10
3.42418
20
-2.38057
11
3.42606
21
-2.38432
0
LINE
8
BLACK
6
CONTINUOUS
10
3.42606
20
-2.38432
11
3.42635
21
-2.3853
0
LINE
8
BLACK
6
CONTINUOUS
10
3.42635
20
-2.3853
11
3.42631
21
-2.38547
0
LINE
8
BLACK
6
CONTINUOUS
10
3.42631
20
-2.38547
11
3.42637
21
-2.38564
0
LINE
8
BLACK
6
CONTINUOUS
10
3.42637
20
-2.38564
11
3.42637
21
-2.39314
0
LINE
8
BLACK
6
CONTINUOUS
10
3.42637
20
-2.39314
11
3.42619
21
-2.39415
0
LINE
8
BLACK
6
CONTINUOUS
10
3.42619
20
-2.39415
11
3.42608
21
-2.39428
0
LINE
8
BLACK
6
CONTINUOUS
10
3.42608
20
-2.39428
11
3.42606
21
-2.39446
0
LINE
8
BLACK
6
CONTINUOUS
10
3.42606
20
-2.39446
11
3.4257
21
-2.39518
0
LINE
8
BLACK
6
CONTINUOUS
10
3.4257
20
-2.39518
11
3.42598
21
-2.39541
0
LINE
8
BLACK
6
CONTINUOUS
10
3.42598
20
-2.39541
11
3.42633
21
-2.3974
0
LINE
8
BLACK
6
CONTINUOUS
10
3.42633
20
-2.3974
11
3.42532
21
-2.39915
0
LINE
8
BLACK
6
CONTINUOUS
10
3.42532
20
-2.39915
11
3.42342
21
-2.39984
0
LINE
8
BLACK
6
CONTINUOUS
10
3.42342
20
-2.39984
11
3.38405
21
-2.39984
0
LINE
8
BLACK
6
CONTINUOUS
10
3.38405
20
-2.39984
11
3.38304
21
-2.39966
0
LINE
8
BLACK
6
CONTINUOUS
10
3.38304
20
-2.39966
11
3.38149
21
-2.39836
0
LINE
8
BLACK
6
CONTINUOUS
10
3.38149
20
-2.39836
11
3.38114
21
-2.39638
0
LINE
8
BLACK
6
CONTINUOUS
10
3.38114
20
-2.39638
11
3.38215
21
-2.39463
0
LINE
8
BLACK
6
CONTINUOUS
10
3.38215
20
-2.39463
11
3.38405
21
-2.39394
0
LINE
8
BLACK
6
CONTINUOUS
10
3.38405
20
-2.39394
11
3.39437
21
-2.39394
0
LINE
8
BLACK
6
CONTINUOUS
10
3.39437
20
-2.39394
11
3.39424
21
-2.39348
0
LINE
8
BLACK
6
CONTINUOUS
10
3.39424
20
-2.39348
11
3.39428
21
-2.3933
0
LINE
8
BLACK
6
CONTINUOUS
10
3.39428
20
-2.3933
11
3.39422
21
-2.39314
0
LINE
8
BLACK
6
CONTINUOUS
10
3.39422
20
-2.39314
11
3.39422
21
-2.38564
0
LINE
8
BLACK
6
CONTINUOUS
10
3.39422
20
-2.38564
11
3.3944
21
-2.38463
0
LINE
8
BLACK
6
CONTINUOUS
10
3.3944
20
-2.38463
11
3.39451
21
-2.38449
0
LINE
8
BLACK
6
CONTINUOUS
10
3.39451
20
-2.38449
11
3.39453
21
-2.38432
0
LINE
8
BLACK
6
CONTINUOUS
10
3.39453
20
-2.38432
11
3.39641
21
-2.38057
0
LINE
8
BLACK
6
CONTINUOUS
10
3.39641
20
-2.38057
11
3.39693
21
-2.37986
0
LINE
8
BLACK
6
CONTINUOUS
10
3.39693
20
-2.37986
11
3.39696
21
-2.3798
0
LINE
8
BLACK
6
CONTINUOUS
10
3.39696
20
-2.3798
11
3.39883
21
-2.37793
0
LINE
8
BLACK
6
CONTINUOUS
10
3.39883
20
-2.37793
11
3.39956
21
-2.37742
0
LINE
8
BLACK
6
CONTINUOUS
10
3.39956
20
-2.37742
11
3.3996
21
-2.37737
0
LINE
8
BLACK
6
CONTINUOUS
10
3.3996
20
-2.37737
11
3.40335
21
-2.3755
0
LINE
8
BLACK
6
CONTINUOUS
10
3.40335
20
-2.3755
11
3.40433
21
-2.37521
0
LINE
8
BLACK
6
CONTINUOUS
10
3.40433
20
-2.37521
11
3.4045
21
-2.37525
0
LINE
8
BLACK
6
CONTINUOUS
10
3.4045
20
-2.37525
11
3.40467
21
-2.37519
0
LINE
8
BLACK
6
CONTINUOUS
10
3.40467
20
-2.37519
11
3.41592
21
-2.37519
0
LINE
8
BLACK
6
CONTINUOUS
10
3.41592
20
-2.37519
11
3.41693
21
-2.37537
0
LINE
8
BLACK
6
CONTINUOUS
10
3.40267
20
-2.38244
11
3.40147
21
-2.38364
0
LINE
8
BLACK
6
CONTINUOUS
10
3.40147
20
-2.38364
11
3.40012
21
-2.38634
0
LINE
8
BLACK
6
CONTINUOUS
10
3.40012
20
-2.38634
11
3.40012
21
-2.39244
0
LINE
8
BLACK
6
CONTINUOUS
10
3.40012
20
-2.39244
11
3.40087
21
-2.39394
0
LINE
8
BLACK
6
CONTINUOUS
10
3.40087
20
-2.39394
11
3.41972
21
-2.39394
0
LINE
8
BLACK
6
CONTINUOUS
10
3.41972
20
-2.39394
11
3.42047
21
-2.39244
0
LINE
8
BLACK
6
CONTINUOUS
10
3.42047
20
-2.39244
11
3.42047
21
-2.38634
0
LINE
8
BLACK
6
CONTINUOUS
10
3.42047
20
-2.38634
11
3.41912
21
-2.38364
0
LINE
8
BLACK
6
CONTINUOUS
10
3.41912
20
-2.38364
11
3.41792
21
-2.38244
0
LINE
8
BLACK
6
CONTINUOUS
10
3.41792
20
-2.38244
11
3.41522
21
-2.38109
0
LINE
8
BLACK
6
CONTINUOUS
10
3.41522
20
-2.38109
11
3.40537
21
-2.38109
0
LINE
8
BLACK
6
CONTINUOUS
10
3.40537
20
-2.38109
11
3.40267
21
-2.38244
0
LINE
8
BLACK
6
CONTINUOUS
10
3.41693
20
-2.33974
11
3.41706
21
-2.33986
0
LINE
8
BLACK
6
CONTINUOUS
10
3.41706
20
-2.33986
11
3.41724
21
-2.33988
0
LINE
8
BLACK
6
CONTINUOUS
10
3.41724
20
-2.33988
11
3.42099
21
-2.34175
0
LINE
8
BLACK
6
CONTINUOUS
10
3.42099
20
-2.34175
11
3.4217
21
-2.34228
0
LINE
8
BLACK
6
CONTINUOUS
10
3.4217
20
-2.34228
11
3.42176
21
-2.34231
0
LINE
8
BLACK
6
CONTINUOUS
10
3.42176
20
-2.34231
11
3.42363
21
-2.34418
0
LINE
8
BLACK
6
CONTINUOUS
10
3.42363
20
-2.34418
11
3.42414
21
-2.3449
0
LINE
8
BLACK
6
CONTINUOUS
10
3.42414
20
-2.3449
11
3.42418
21
-2.34495
0
LINE
8
BLACK
6
CONTINUOUS
10
3.42418
20
-2.34495
11
3.42606
21
-2.3487
0
LINE
8
BLACK
6
CONTINUOUS
10
3.42606
20
-2.3487
11
3.42635
21
-2.34968
0
LINE
8
BLACK
6
CONTINUOUS
10
3.42635
20
-2.34968
11
3.42631
21
-2.34985
0
LINE
8
BLACK
6
CONTINUOUS
10
3.42631
20
-2.34985
11
3.42637
21
-2.35002
0
LINE
8
BLACK
6
CONTINUOUS
10
3.42637
20
-2.35002
11
3.42637
21
-2.35752
0
LINE
8
BLACK
6
CONTINUOUS
10
3.42637
20
-2.35752
11
3.42619
21
-2.35853
0
LINE
8
BLACK
6
CONTINUOUS
10
3.42619
20
-2.35853
11
3.42608
21
-2.35866
0
LINE
8
BLACK
6
CONTINUOUS
10
3.42608
20
-2.35866
11
3.42606
21
-2.35884
0
LINE
8
BLACK
6
CONTINUOUS
10
3.42606
20
-2.35884
11
3.4257
21
-2.35956
0
LINE
8
BLACK
6
CONTINUOUS
10
3.4257
20
-2.35956
11
3.42598
21
-2.35979
0
LINE
8
BLACK
6
CONTINUOUS
10
3.42598
20
-2.35979
11
3.42633
21
-2.36178
0
LINE
8
BLACK
6
CONTINUOUS
10
3.42633
20
-2.36178
11
3.42532
21
-2.36353
0
LINE
8
BLACK
6
CONTINUOUS
10
3.42532
20
-2.36353
11
3.42342
21
-2.36422
0
LINE
8
BLACK
6
CONTINUOUS
10
3.42342
20
-2.36422
11
3.38405
21
-2.36422
0
LINE
8
BLACK
6
CONTINUOUS
10
3.38405
20
-2.36422
11
3.38304
21
-2.36404
0
LINE
8
BLACK
6
CONTINUOUS
10
3.38304
20
-2.36404
11
3.38149
21
-2.36274
0
LINE
8
BLACK
6
CONTINUOUS
10
3.38149
20
-2.36274
11
3.38114
21
-2.36075
0
LINE
8
BLACK
6
CONTINUOUS
10
3.38114
20
-2.36075
11
3.38215
21
-2.35901
0
LINE
8
BLACK
6
CONTINUOUS
10
3.38215
20
-2.35901
11
3.38405
21
-2.35831
0
LINE
8
BLACK
6
CONTINUOUS
10
3.38405
20
-2.35831
11
3.39437
21
-2.35831
0
LINE
8
BLACK
6
CONTINUOUS
10
3.39437
20
-2.35831
11
3.39424
21
-2.35786
0
LINE
8
BLACK
6
CONTINUOUS
10
3.39424
20
-2.35786
11
3.39428
21
-2.35768
0
LINE
8
BLACK
6
CONTINUOUS
10
3.39428
20
-2.35768
11
3.39422
21
-2.35752
0
LINE
8
BLACK
6
CONTINUOUS
10
3.39422
20
-2.35752
11
3.39422
21
-2.35002
0
LINE
8
BLACK
6
CONTINUOUS
10
3.39422
20
-2.35002
11
3.3944
21
-2.34901
0
LINE
8
BLACK
6
CONTINUOUS
10
3.3944
20
-2.34901
11
3.39451
21
-2.34887
0
LINE
8
BLACK
6
CONTINUOUS
10
3.39451
20
-2.34887
11
3.39453
21
-2.3487
0
LINE
8
BLACK
6
CONTINUOUS
10
3.39453
20
-2.3487
11
3.39641
21
-2.34495
0
LINE
8
BLACK
6
CONTINUOUS
10
3.39641
20
-2.34495
11
3.39693
21
-2.34424
0
LINE
8
BLACK
6
CONTINUOUS
10
3.39693
20
-2.34424
11
3.39696
21
-2.34418
0
LINE
8
BLACK
6
CONTINUOUS
10
3.39696
20
-2.34418
11
3.39883
21
-2.34231
0
LINE
8
BLACK
6
CONTINUOUS
10
3.39883
20
-2.34231
11
3.39956
21
-2.3418
0
LINE
8
BLACK
6
CONTINUOUS
10
3.39956
20
-2.3418
11
3.3996
21
-2.34175
0
LINE
8
BLACK
6
CONTINUOUS
10
3.3996
20
-2.34175
11
3.40335
21
-2.33988
0
LINE
8
BLACK
6
CONTINUOUS
10
3.40335
20
-2.33988
11
3.40433
21
-2.33959
0
LINE
8
BLACK
6
CONTINUOUS
10
3.40433
20
-2.33959
11
3.4045
21
-2.33963
0
LINE
8
BLACK
6
CONTINUOUS
10
3.4045
20
-2.33963
11
3.40467
21
-2.33957
0
LINE
8
BLACK
6
CONTINUOUS
10
3.40467
20
-2.33957
11
3.41592
21
-2.33957
0
LINE
8
BLACK
6
CONTINUOUS
10
3.41592
20
-2.33957
11
3.41693
21
-2.33974
0
LINE
8
BLACK
6
CONTINUOUS
10
3.40267
20
-2.34682
11
3.40147
21
-2.34802
0
LINE
8
BLACK
6
CONTINUOUS
10
3.40147
20
-2.34802
11
3.40012
21
-2.35072
0
LINE
8
BLACK
6
CONTINUOUS
10
3.40012
20
-2.35072
11
3.40012
21
-2.35682
0
LINE
8
BLACK
6
CONTINUOUS
10
3.40012
20
-2.35682
11
3.40087
21
-2.35831
0
LINE
8
BLACK
6
CONTINUOUS
10
3.40087
20
-2.35831
11
3.41972
21
-2.35831
0
LINE
8
BLACK
6
CONTINUOUS
10
3.41972
20
-2.35831
11
3.42047
21
-2.35682
0
LINE
8
BLACK
6
CONTINUOUS
10
3.42047
20
-2.35682
11
3.42047
21
-2.35072
0
LINE
8
BLACK
6
CONTINUOUS
10
3.42047
20
-2.35072
11
3.41912
21
-2.34802
0
LINE
8
BLACK
6
CONTINUOUS
10
3.41912
20
-2.34802
11
3.41792
21
-2.34682
0
LINE
8
BLACK
6
CONTINUOUS
10
3.41792
20
-2.34682
11
3.41522
21
-2.34547
0
LINE
8
BLACK
6
CONTINUOUS
10
3.41522
20
-2.34547
11
3.40537
21
-2.34547
0
LINE
8
BLACK
6
CONTINUOUS
10
3.40537
20
-2.34547
11
3.40267
21
-2.34682
0
LINE
8
BLACK
6
CONTINUOUS
10
3.38642
20
-2.32094
11
3.38669
21
-2.32092
0
LINE
8
BLACK
6
CONTINUOUS
10
3.38669
20
-2.32092
11
3.38732
21
-2.32136
0
LINE
8
BLACK
6
CONTINUOUS
10
3.38732
20
-2.32136
11
3.38801
21
-2.32168
0
LINE
8
BLACK
6
CONTINUOUS
10
3.38801
20
-2.32168
11
3.38989
21
-2.32356
0
LINE
8
BLACK
6
CONTINUOUS
10
3.38989
20
-2.32356
11
3.39011
21
-2.32388
0
LINE
8
BLACK
6
CONTINUOUS
10
3.39011
20
-2.32388
11
3.39022
21
-2.32395
0
LINE
8
BLACK
6
CONTINUOUS
10
3.39022
20
-2.32395
11
3.39025
21
-2.32408
0
LINE
8
BLACK
6
CONTINUOUS
10
3.39025
20
-2.32408
11
3.39026
21
-2.32409
0
LINE
8
BLACK
6
CONTINUOUS
10
3.39026
20
-2.32409
11
3.39035
21
-2.32417
0
LINE
8
BLACK
6
CONTINUOUS
10
3.39035
20
-2.32417
11
3.39037
21
-2.32425
0
LINE
8
BLACK
6
CONTINUOUS
10
3.39037
20
-2.32425
11
3.39047
21
-2.3244
0
LINE
8
BLACK
6
CONTINUOUS
10
3.39047
20
-2.3244
11
3.39054
21
-2.32516
0
LINE
8
BLACK
6
CONTINUOUS
10
3.39054
20
-2.32516
11
3.39074
21
-2.3259
0
LINE
8
BLACK
6
CONTINUOUS
10
3.39074
20
-2.3259
11
3.39068
21
-2.32603
0
LINE
8
BLACK
6
CONTINUOUS
10
3.39068
20
-2.32603
11
3.39071
21
-2.32616
0
LINE
8
BLACK
6
CONTINUOUS
10
3.39071
20
-2.32616
11
3.39064
21
-2.32628
0
LINE
8
BLACK
6
CONTINUOUS
10
3.39064
20
-2.32628
11
3.39065
21
-2.32641
0
LINE
8
BLACK
6
CONTINUOUS
10
3.39065
20
-2.32641
11
3.39021
21
-2.32704
0
LINE
8
BLACK
6
CONTINUOUS
10
3.39021
20
-2.32704
11
3.38989
21
-2.32773
0
LINE
8
BLACK
6
CONTINUOUS
10
3.38989
20
-2.32773
11
3.38801
21
-2.32961
0
LINE
8
BLACK
6
CONTINUOUS
10
3.38801
20
-2.32961
11
3.38769
21
-2.32983
0
LINE
8
BLACK
6
CONTINUOUS
10
3.38769
20
-2.32983
11
3.38762
21
-2.32994
0
LINE
8
BLACK
6
CONTINUOUS
10
3.38762
20
-2.32994
11
3.38749
21
-2.32997
0
LINE
8
BLACK
6
CONTINUOUS
10
3.38749
20
-2.32997
11
3.38717
21
-2.3302
0
LINE
8
BLACK
6
CONTINUOUS
10
3.38717
20
-2.3302
11
3.38641
21
-2.33026
0
LINE
8
BLACK
6
CONTINUOUS
10
3.38641
20
-2.33026
11
3.38567
21
-2.33046
0
LINE
8
BLACK
6
CONTINUOUS
10
3.38567
20
-2.33046
11
3.38542
21
-2.33035
0
LINE
8
BLACK
6
CONTINUOUS
10
3.38542
20
-2.33035
11
3.38516
21
-2.33037
0
LINE
8
BLACK
6
CONTINUOUS
10
3.38516
20
-2.33037
11
3.38453
21
-2.32993
0
LINE
8
BLACK
6
CONTINUOUS
10
3.38453
20
-2.32993
11
3.38383
21
-2.32961
0
LINE
8
BLACK
6
CONTINUOUS
10
3.38383
20
-2.32961
11
3.38196
21
-2.32773
0
LINE
8
BLACK
6
CONTINUOUS
10
3.38196
20
-2.32773
11
3.38174
21
-2.32742
0
LINE
8
BLACK
6
CONTINUOUS
10
3.38174
20
-2.32742
11
3.38163
21
-2.32734
0
LINE
8
BLACK
6
CONTINUOUS
10
3.38163
20
-2.32734
11
3.3816
21
-2.32721
0
LINE
8
BLACK
6
CONTINUOUS
10
3.3816
20
-2.32721
11
3.38159
21
-2.32721
0
LINE
8
BLACK
6
CONTINUOUS
10
3.38159
20
-2.32721
11
3.38149
21
-2.32712
0
LINE
8
BLACK
6
CONTINUOUS
10
3.38149
20
-2.32712
11
3.38148
21
-2.32704
0
LINE
8
BLACK
6
CONTINUOUS
10
3.38148
20
-2.32704
11
3.38137
21
-2.32689
0
LINE
8
BLACK
6
CONTINUOUS
10
3.38137
20
-2.32689
11
3.3813
21
-2.32613
0
LINE
8
BLACK
6
CONTINUOUS
10
3.3813
20
-2.32613
11
3.38111
21
-2.32539
0
LINE
8
BLACK
6
CONTINUOUS
10
3.38111
20
-2.32539
11
3.38116
21
-2.32527
0
LINE
8
BLACK
6
CONTINUOUS
10
3.38116
20
-2.32527
11
3.38114
21
-2.32513
0
LINE
8
BLACK
6
CONTINUOUS
10
3.38114
20
-2.32513
11
3.38121
21
-2.32502
0
LINE
8
BLACK
6
CONTINUOUS
10
3.38121
20
-2.32502
11
3.3812
21
-2.32488
0
LINE
8
BLACK
6
CONTINUOUS
10
3.3812
20
-2.32488
11
3.38164
21
-2.32425
0
LINE
8
BLACK
6
CONTINUOUS
10
3.38164
20
-2.32425
11
3.38196
21
-2.32356
0
LINE
8
BLACK
6
CONTINUOUS
10
3.38196
20
-2.32356
11
3.38383
21
-2.32168
0
LINE
8
BLACK
6
CONTINUOUS
10
3.38383
20
-2.32168
11
3.38415
21
-2.32146
0
LINE
8
BLACK
6
CONTINUOUS
10
3.38415
20
-2.32146
11
3.38423
21
-2.32135
0
LINE
8
BLACK
6
CONTINUOUS
10
3.38423
20
-2.32135
11
3.38436
21
-2.32132
0
LINE
8
BLACK
6
CONTINUOUS
10
3.38436
20
-2.32132
11
3.38467
21
-2.3211
0
LINE
8
BLACK
6
CONTINUOUS
10
3.38467
20
-2.3211
11
3.38544
21
-2.32103
0
LINE
8
BLACK
6
CONTINUOUS
10
3.38544
20
-2.32103
11
3.38618
21
-2.32083
0
LINE
8
BLACK
6
CONTINUOUS
10
3.38618
20
-2.32083
11
3.38642
21
-2.32094
0
LINE
8
BLACK
6
CONTINUOUS
10
3.42443
20
-2.32287
11
3.42598
21
-2.32417
0
LINE
8
BLACK
6
CONTINUOUS
10
3.42598
20
-2.32417
11
3.42633
21
-2.32616
0
LINE
8
BLACK
6
CONTINUOUS
10
3.42633
20
-2.32616
11
3.42532
21
-2.32791
0
LINE
8
BLACK
6
CONTINUOUS
10
3.42532
20
-2.32791
11
3.42342
21
-2.3286
0
LINE
8
BLACK
6
CONTINUOUS
10
3.42342
20
-2.3286
11
3.39717
21
-2.3286
0
LINE
8
BLACK
6
CONTINUOUS
10
3.39717
20
-2.3286
11
3.39616
21
-2.32842
0
LINE
8
BLACK
6
CONTINUOUS
10
3.39616
20
-2.32842
11
3.39461
21
-2.32712
0
LINE
8
BLACK
6
CONTINUOUS
10
3.39461
20
-2.32712
11
3.39426
21
-2.32513
0
LINE
8
BLACK
6
CONTINUOUS
10
3.39426
20
-2.32513
11
3.39527
21
-2.32338
0
LINE
8
BLACK
6
CONTINUOUS
10
3.39527
20
-2.32338
11
3.39717
21
-2.32269
0
LINE
8
BLACK
6
CONTINUOUS
10
3.39717
20
-2.32269
11
3.42342
21
-2.32269
0
LINE
8
BLACK
6
CONTINUOUS
10
3.42342
20
-2.32269
11
3.42443
21
-2.32287
0
LINE
8
BLACK
6
CONTINUOUS
10
3.42443
20
-2.27038
11
3.42598
21
-2.27168
0
LINE
8
BLACK
6
CONTINUOUS
10
3.42598
20
-2.27168
11
3.42633
21
-2.27367
0
LINE
8
BLACK
6
CONTINUOUS
10
3.42633
20
-2.27367
11
3.42532
21
-2.27542
0
LINE
8
BLACK
6
CONTINUOUS
10
3.42532
20
-2.27542
11
3.42342
21
-2.27611
0
LINE
8
BLACK
6
CONTINUOUS
10
3.42342
20
-2.27611
11
3.40214
21
-2.27611
0
LINE
8
BLACK
6
CONTINUOUS
10
3.40214
20
-2.27611
11
3.40147
21
-2.27678
0
LINE
8
BLACK
6
CONTINUOUS
10
3.40147
20
-2.27678
11
3.40012
21
-2.27947
0
LINE
8
BLACK
6
CONTINUOUS
10
3.40012
20
-2.27947
11
3.40012
21
-2.2837
0
LINE
8
BLACK
6
CONTINUOUS
10
3.40012
20
-2.2837
11
3.40125
21
-2.28595
0
LINE
8
BLACK
6
CONTINUOUS
10
3.40125
20
-2.28595
11
3.40349
21
-2.28707
0
LINE
8
BLACK
6
CONTINUOUS
10
3.40349
20
-2.28707
11
3.42342
21
-2.28707
0
LINE
8
BLACK
6
CONTINUOUS
10
3.42342
20
-2.28707
11
3.42443
21
-2.28725
0
LINE
8
BLACK
6
CONTINUOUS
10
3.42443
20
-2.28725
11
3.42598
21
-2.28855
0
LINE
8
BLACK
6
CONTINUOUS
10
3.42598
20
-2.28855
11
3.42633
21
-2.29054
0
LINE
8
BLACK
6
CONTINUOUS
10
3.42633
20
-2.29054
11
3.42532
21
-2.29229
0
LINE
8
BLACK
6
CONTINUOUS
10
3.42532
20
-2.29229
11
3.42342
21
-2.29298
0
LINE
8
BLACK
6
CONTINUOUS
10
3.42342
20
-2.29298
11
3.40349
21
-2.29298
0
LINE
8
BLACK
6
CONTINUOUS
10
3.40349
20
-2.29298
11
3.40125
21
-2.2941
0
LINE
8
BLACK
6
CONTINUOUS
10
3.40125
20
-2.2941
11
3.40012
21
-2.29635
0
LINE
8
BLACK
6
CONTINUOUS
10
3.40012
20
-2.29635
11
3.40012
21
-2.30058
0
LINE
8
BLACK
6
CONTINUOUS
10
3.40012
20
-2.30058
11
3.40125
21
-2.30282
0
LINE
8
BLACK
6
CONTINUOUS
10
3.40125
20
-2.30282
11
3.40349
21
-2.30395
0
LINE
8
BLACK
6
CONTINUOUS
10
3.40349
20
-2.30395
11
3.42342
21
-2.30395
0
LINE
8
BLACK
6
CONTINUOUS
10
3.42342
20
-2.30395
11
3.42443
21
-2.30412
0
LINE
8
BLACK
6
CONTINUOUS
10
3.42443
20
-2.30412
11
3.42598
21
-2.30542
0
LINE
8
BLACK
6
CONTINUOUS
10
3.42598
20
-2.30542
11
3.42633
21
-2.30741
0
LINE
8
BLACK
6
CONTINUOUS
10
3.42633
20
-2.30741
11
3.42532
21
-2.30916
0
LINE
8
BLACK
6
CONTINUOUS
10
3.42532
20
-2.30916
11
3.42342
21
-2.30985
0
LINE
8
BLACK
6
CONTINUOUS
10
3.42342
20
-2.30985
11
3.4028
21
-2.30985
0
LINE
8
BLACK
6
CONTINUOUS
10
3.4028
20
-2.30985
11
3.40179
21
-2.30967
0
LINE
8
BLACK
6
CONTINUOUS
10
3.40179
20
-2.30967
11
3.40165
21
-2.30956
0
LINE
8
BLACK
6
CONTINUOUS
10
3.40165
20
-2.30956
11
3.40148
21
-2.30954
0
LINE
8
BLACK
6
CONTINUOUS
10
3.40148
20
-2.30954
11
3.39773
21
-2.30767
0
LINE
8
BLACK
6
CONTINUOUS
10
3.39773
20
-2.30767
11
3.3969
21
-2.30705
0
LINE
8
BLACK
6
CONTINUOUS
10
3.3969
20
-2.30705
11
3.39673
21
-2.30665
0
LINE
8
BLACK
6
CONTINUOUS
10
3.39673
20
-2.30665
11
3.39641
21
-2.30634
0
LINE
8
BLACK
6
CONTINUOUS
10
3.39641
20
-2.30634
11
3.39453
21
-2.3026
0
LINE
8
BLACK
6
CONTINUOUS
10
3.39453
20
-2.3026
11
3.39424
21
-2.30161
0
LINE
8
BLACK
6
CONTINUOUS
10
3.39424
20
-2.30161
11
3.39428
21
-2.30144
0
LINE
8
BLACK
6
CONTINUOUS
10
3.39428
20
-2.30144
11
3.39422
21
-2.30127
0
LINE
8
BLACK
6
CONTINUOUS
10
3.39422
20
-2.30127
11
3.39422
21
-2.29565
0
LINE
8
BLACK
6
CONTINUOUS
10
3.39422
20
-2.29565
11
3.3944
21
-2.29464
0
LINE
8
BLACK
6
CONTINUOUS
10
3.3944
20
-2.29464
11
3.39451
21
-2.29451
0
LINE
8
BLACK
6
CONTINUOUS
10
3.39451
20
-2.29451
11
3.39453
21
-2.29433
0
LINE
8
BLACK
6
CONTINUOUS
10
3.39453
20
-2.29433
11
3.39641
21
-2.29058
0
LINE
8
BLACK
6
CONTINUOUS
10
3.39641
20
-2.29058
11
3.39683
21
-2.29001
0
LINE
8
BLACK
6
CONTINUOUS
10
3.39683
20
-2.29001
11
3.39673
21
-2.28978
0
LINE
8
BLACK
6
CONTINUOUS
10
3.39673
20
-2.28978
11
3.39641
21
-2.28947
0
LINE
8
BLACK
6
CONTINUOUS
10
3.39641
20
-2.28947
11
3.39453
21
-2.28572
0
LINE
8
BLACK
6
CONTINUOUS
10
3.39453
20
-2.28572
11
3.39424
21
-2.28474
0
LINE
8
BLACK
6
CONTINUOUS
10
3.39424
20
-2.28474
11
3.39428
21
-2.28457
0
LINE
8
BLACK
6
CONTINUOUS
10
3.39428
20
-2.28457
11
3.39422
21
-2.2844
0
LINE
8
BLACK
6
CONTINUOUS
10
3.39422
20
-2.2844
11
3.39422
21
-2.27878
0
LINE
8
BLACK
6
CONTINUOUS
10
3.39422
20
-2.27878
11
3.3944
21
-2.27777
0
LINE
8
BLACK
6
CONTINUOUS
10
3.3944
20
-2.27777
11
3.39451
21
-2.27763
0
LINE
8
BLACK
6
CONTINUOUS
10
3.39451
20
-2.27763
11
3.39453
21
-2.27746
0
LINE
8
BLACK
6
CONTINUOUS
10
3.39453
20
-2.27746
11
3.39555
21
-2.27542
0
LINE
8
BLACK
6
CONTINUOUS
10
3.39555
20
-2.27542
11
3.39461
21
-2.27463
0
LINE
8
BLACK
6
CONTINUOUS
10
3.39461
20
-2.27463
11
3.39426
21
-2.27264
0
LINE
8
BLACK
6
CONTINUOUS
10
3.39426
20
-2.27264
11
3.39527
21
-2.27089
0
LINE
8
BLACK
6
CONTINUOUS
10
3.39527
20
-2.27089
11
3.39717
21
-2.2702
0
LINE
8
BLACK
6
CONTINUOUS
10
3.39717
20
-2.2702
11
3.42342
21
-2.2702
0
LINE
8
BLACK
6
CONTINUOUS
10
3.42342
20
-2.2702
11
3.42443
21
-2.27038
  0
ENDSEC
  0
EOF
