  0
SECTION
  2
HEADER
  9
$ANGBASE
  50
0.0
  9
$ANGDIR
  70
1
  9
$MEASUREMENT
  70
0
  0
ENDSEC
  0
SECTION
  2
TABLES
  0
TABLE
  2
LTYPE
  70
4
  0
LTYPE
  5
40F
  2
CONTINUOUS
  70
0
  3
Solid line
  72
65
  73
0
  40
0.0
  0
LTYPE
  5
410
  2
DASHDOT
 70
0
  3
Dash Dot ____ _ ____ _
 72
65
 73
4
 40
2.0
 49
1.25
 49
-0.25
 49
0.25
 49
-0.25
  0
LTYPE
  5
411
  2
DASHED
 70
0
  3
Dashed __ __ __ __ __
 72
65
 73
2
 40
0.75
 49
0.5
 49
-0.25
  0
LTYPE
  5
43B
  2
DOTTED
 70
0
  3
Dotted .  .  .  .
 72
65
 73
2
 40
0.2
 49
0.0
 49
-0.2
  0
ENDTAB
  0
TABLE
  2
STYLE
  70
4
  0
STYLE
  2
KICAD
  70
0
  40
0
  41
1
  42
1
  50
0
  71
0
  3
isocp.shx
  0
STYLE
  2
KICADB
  70
0
  40
0
  41
1
  42
1
  50
0
  71
0
  3
isocp.shx
  0
STYLE
  2
KICADI
  70
0
  40
0
  41
1
  42
1
  50
15
  71
0
  3
isocp.shx
  0
STYLE
  2
KICADBI
  70
0
  40
0
  41
1
  42
1
  50
15
  71
0
  3
isocp.shx
  0
ENDTAB
  0
TABLE
  2
LAYER
  70
1
  0
LAYER
  2
BLACK
  70
0
  62
7
  6
CONTINUOUS
  0
ENDTAB
  0
ENDSEC
  0
SECTION
  2
ENTITIES
0
LINE
8
BLACK
6
CONTINUOUS
10
3.01268
20
-2.72831
11
3.01274
21
-2.7283
0
LINE
8
BLACK
6
CONTINUOUS
10
3.01274
20
-2.7283
11
3.01724
21
-2.7298
0
LINE
8
BLACK
6
CONTINUOUS
10
3.01724
20
-2.7298
11
3.01815
21
-2.73029
0
LINE
8
BLACK
6
CONTINUOUS
10
3.01815
20
-2.73029
11
3.01824
21
-2.73044
0
LINE
8
BLACK
6
CONTINUOUS
10
3.01824
20
-2.73044
11
3.0184
21
-2.73052
0
LINE
8
BLACK
6
CONTINUOUS
10
3.0184
20
-2.73052
11
3.0214
21
-2.73352
0
LINE
8
BLACK
6
CONTINUOUS
10
3.0214
20
-2.73352
11
3.0219
21
-2.73424
0
LINE
8
BLACK
6
CONTINUOUS
10
3.0219
20
-2.73424
11
3.02195
21
-2.73428
0
LINE
8
BLACK
6
CONTINUOUS
10
3.02195
20
-2.73428
11
3.02345
21
-2.73728
0
LINE
8
BLACK
6
CONTINUOUS
10
3.02345
20
-2.73728
11
3.0236
21
-2.73777
0
LINE
8
BLACK
6
CONTINUOUS
10
3.0236
20
-2.73777
11
3.02367
21
-2.73789
0
LINE
8
BLACK
6
CONTINUOUS
10
3.02367
20
-2.73789
11
3.02517
21
-2.74389
0
LINE
8
BLACK
6
CONTINUOUS
10
3.02517
20
-2.74389
11
3.02522
21
-2.74448
0
LINE
8
BLACK
6
CONTINUOUS
10
3.02522
20
-2.74448
11
3.02526
21
-2.7446
0
LINE
8
BLACK
6
CONTINUOUS
10
3.02526
20
-2.7446
11
3.02526
21
-2.7491
0
LINE
8
BLACK
6
CONTINUOUS
10
3.02526
20
-2.7491
11
3.02516
21
-2.74968
0
LINE
8
BLACK
6
CONTINUOUS
10
3.02516
20
-2.74968
11
3.02517
21
-2.74982
0
LINE
8
BLACK
6
CONTINUOUS
10
3.02517
20
-2.74982
11
3.02367
21
-2.75582
0
LINE
8
BLACK
6
CONTINUOUS
10
3.02367
20
-2.75582
11
3.02347
21
-2.75628
0
LINE
8
BLACK
6
CONTINUOUS
10
3.02347
20
-2.75628
11
3.02345
21
-2.75642
0
LINE
8
BLACK
6
CONTINUOUS
10
3.02345
20
-2.75642
11
3.02195
21
-2.75942
0
LINE
8
BLACK
6
CONTINUOUS
10
3.02195
20
-2.75942
11
3.02143
21
-2.76013
0
LINE
8
BLACK
6
CONTINUOUS
10
3.02143
20
-2.76013
11
3.0214
21
-2.76019
0
LINE
8
BLACK
6
CONTINUOUS
10
3.0214
20
-2.76019
11
3.0184
21
-2.76319
0
LINE
8
BLACK
6
CONTINUOUS
10
3.0184
20
-2.76319
11
3.01756
21
-2.76378
0
LINE
8
BLACK
6
CONTINUOUS
10
3.01756
20
-2.76378
11
3.01738
21
-2.76379
0
LINE
8
BLACK
6
CONTINUOUS
10
3.01738
20
-2.76379
11
3.01724
21
-2.7639
0
LINE
8
BLACK
6
CONTINUOUS
10
3.01724
20
-2.7639
11
3.01274
21
-2.7654
0
LINE
8
BLACK
6
CONTINUOUS
10
3.01274
20
-2.7654
11
3.01187
21
-2.76553
0
LINE
8
BLACK
6
CONTINUOUS
10
3.01187
20
-2.76553
11
3.01181
21
-2.76555
0
LINE
8
BLACK
6
CONTINUOUS
10
3.01181
20
-2.76555
11
3.00431
21
-2.76555
0
LINE
8
BLACK
6
CONTINUOUS
10
3.00431
20
-2.76555
11
3.00393
21
-2.76549
0
LINE
8
BLACK
6
CONTINUOUS
10
3.00393
20
-2.76549
11
3.0038
21
-2.76551
0
LINE
8
BLACK
6
CONTINUOUS
10
3.0038
20
-2.76551
11
3.00369
21
-2.76544
0
LINE
8
BLACK
6
CONTINUOUS
10
3.00369
20
-2.76544
11
3.0033
21
-2.76538
0
LINE
8
BLACK
6
CONTINUOUS
10
3.0033
20
-2.76538
11
3.00271
21
-2.76488
0
LINE
8
BLACK
6
CONTINUOUS
10
3.00271
20
-2.76488
11
3.00205
21
-2.7645
0
LINE
8
BLACK
6
CONTINUOUS
10
3.00205
20
-2.7645
11
3.00196
21
-2.76425
0
LINE
8
BLACK
6
CONTINUOUS
10
3.00196
20
-2.76425
11
3.00175
21
-2.76408
0
LINE
8
BLACK
6
CONTINUOUS
10
3.00175
20
-2.76408
11
3.00162
21
-2.76332
0
LINE
8
BLACK
6
CONTINUOUS
10
3.00162
20
-2.76332
11
3.00136
21
-2.7626
0
LINE
8
BLACK
6
CONTINUOUS
10
3.00136
20
-2.7626
11
3.00136
21
-2.73111
0
LINE
8
BLACK
6
CONTINUOUS
10
3.00136
20
-2.73111
11
3.00143
21
-2.73072
0
LINE
8
BLACK
6
CONTINUOUS
10
3.00143
20
-2.73072
11
3.0014
21
-2.73059
0
LINE
8
BLACK
6
CONTINUOUS
10
3.0014
20
-2.73059
11
3.00147
21
-2.73048
0
LINE
8
BLACK
6
CONTINUOUS
10
3.00147
20
-2.73048
11
3.00154
21
-2.7301
0
LINE
8
BLACK
6
CONTINUOUS
10
3.00154
20
-2.7301
11
3.00203
21
-2.72951
0
LINE
8
BLACK
6
CONTINUOUS
10
3.00203
20
-2.72951
11
3.00241
21
-2.72884
0
LINE
8
BLACK
6
CONTINUOUS
10
3.00241
20
-2.72884
11
3.00266
21
-2.72875
0
LINE
8
BLACK
6
CONTINUOUS
10
3.00266
20
-2.72875
11
3.00284
21
-2.72855
0
LINE
8
BLACK
6
CONTINUOUS
10
3.00284
20
-2.72855
11
3.00359
21
-2.72842
0
LINE
8
BLACK
6
CONTINUOUS
10
3.00359
20
-2.72842
11
3.00431
21
-2.72815
0
LINE
8
BLACK
6
CONTINUOUS
10
3.00431
20
-2.72815
11
3.01181
21
-2.72815
0
LINE
8
BLACK
6
CONTINUOUS
10
3.01181
20
-2.72815
11
3.01268
21
-2.72831
0
LINE
8
BLACK
6
CONTINUOUS
10
3.00726
20
-2.75965
11
3.01133
21
-2.75965
0
LINE
8
BLACK
6
CONTINUOUS
10
3.01133
20
-2.75965
11
3.01472
21
-2.75852
0
LINE
8
BLACK
6
CONTINUOUS
10
3.01472
20
-2.75852
11
3.01688
21
-2.75635
0
LINE
8
BLACK
6
CONTINUOUS
10
3.01688
20
-2.75635
11
3.01802
21
-2.75407
0
LINE
8
BLACK
6
CONTINUOUS
10
3.01802
20
-2.75407
11
3.01936
21
-2.74874
0
LINE
8
BLACK
6
CONTINUOUS
10
3.01936
20
-2.74874
11
3.01936
21
-2.74497
0
LINE
8
BLACK
6
CONTINUOUS
10
3.01936
20
-2.74497
11
3.01802
21
-2.73964
0
LINE
8
BLACK
6
CONTINUOUS
10
3.01802
20
-2.73964
11
3.01688
21
-2.73735
0
LINE
8
BLACK
6
CONTINUOUS
10
3.01688
20
-2.73735
11
3.01472
21
-2.73519
0
LINE
8
BLACK
6
CONTINUOUS
10
3.01472
20
-2.73519
11
3.01133
21
-2.73406
0
LINE
8
BLACK
6
CONTINUOUS
10
3.01133
20
-2.73406
11
3.00726
21
-2.73406
0
LINE
8
BLACK
6
CONTINUOUS
10
3.00726
20
-2.73406
11
3.00726
21
-2.75965
0
LINE
8
BLACK
6
CONTINUOUS
10
3.04732
20
-2.72833
11
3.04745
21
-2.72844
0
LINE
8
BLACK
6
CONTINUOUS
10
3.04745
20
-2.72844
11
3.04763
21
-2.72847
0
LINE
8
BLACK
6
CONTINUOUS
10
3.04763
20
-2.72847
11
3.05063
21
-2.72996
0
LINE
8
BLACK
6
CONTINUOUS
10
3.05063
20
-2.72996
11
3.05134
21
-2.73049
0
LINE
8
BLACK
6
CONTINUOUS
10
3.05134
20
-2.73049
11
3.05139
21
-2.73052
0
LINE
8
BLACK
6
CONTINUOUS
10
3.05139
20
-2.73052
11
3.05289
21
-2.73202
0
LINE
8
BLACK
6
CONTINUOUS
10
3.05289
20
-2.73202
11
3.0534
21
-2.73274
0
LINE
8
BLACK
6
CONTINUOUS
10
3.0534
20
-2.73274
11
3.05345
21
-2.73279
0
LINE
8
BLACK
6
CONTINUOUS
10
3.05345
20
-2.73279
11
3.05495
21
-2.73578
0
LINE
8
BLACK
6
CONTINUOUS
10
3.05495
20
-2.73578
11
3.05524
21
-2.73677
0
LINE
8
BLACK
6
CONTINUOUS
10
3.05524
20
-2.73677
11
3.0552
21
-2.73694
0
LINE
8
BLACK
6
CONTINUOUS
10
3.0552
20
-2.73694
11
3.05526
21
-2.73711
0
LINE
8
BLACK
6
CONTINUOUS
10
3.05526
20
-2.73711
11
3.05526
21
-2.7401
0
LINE
8
BLACK
6
CONTINUOUS
10
3.05526
20
-2.7401
11
3.05511
21
-2.74097
0
LINE
8
BLACK
6
CONTINUOUS
10
3.05511
20
-2.74097
11
3.05511
21
-2.74104
0
LINE
8
BLACK
6
CONTINUOUS
10
3.05511
20
-2.74104
11
3.05361
21
-2.74554
0
LINE
8
BLACK
6
CONTINUOUS
10
3.05361
20
-2.74554
11
3.05312
21
-2.74644
0
LINE
8
BLACK
6
CONTINUOUS
10
3.05312
20
-2.74644
11
3.05297
21
-2.74653
0
LINE
8
BLACK
6
CONTINUOUS
10
3.05297
20
-2.74653
11
3.05289
21
-2.74669
0
LINE
8
BLACK
6
CONTINUOUS
10
3.05289
20
-2.74669
11
3.03994
21
-2.75965
0
LINE
8
BLACK
6
CONTINUOUS
10
3.03994
20
-2.75965
11
3.05231
21
-2.75965
0
LINE
8
BLACK
6
CONTINUOUS
10
3.05231
20
-2.75965
11
3.05332
21
-2.75983
0
LINE
8
BLACK
6
CONTINUOUS
10
3.05332
20
-2.75983
11
3.05486
21
-2.76113
0
LINE
8
BLACK
6
CONTINUOUS
10
3.05486
20
-2.76113
11
3.05521
21
-2.76311
0
LINE
8
BLACK
6
CONTINUOUS
10
3.05521
20
-2.76311
11
3.0542
21
-2.76486
0
LINE
8
BLACK
6
CONTINUOUS
10
3.0542
20
-2.76486
11
3.05231
21
-2.76555
0
LINE
8
BLACK
6
CONTINUOUS
10
3.05231
20
-2.76555
11
3.03281
21
-2.76555
0
LINE
8
BLACK
6
CONTINUOUS
10
3.03281
20
-2.76555
11
3.03217
21
-2.76544
0
LINE
8
BLACK
6
CONTINUOUS
10
3.03217
20
-2.76544
11
3.03204
21
-2.76545
0
LINE
8
BLACK
6
CONTINUOUS
10
3.03204
20
-2.76545
11
3.03198
21
-2.76541
0
LINE
8
BLACK
6
CONTINUOUS
10
3.03198
20
-2.76541
11
3.0318
21
-2.76538
0
LINE
8
BLACK
6
CONTINUOUS
10
3.0318
20
-2.76538
11
3.03112
21
-2.76481
0
LINE
8
BLACK
6
CONTINUOUS
10
3.03112
20
-2.76481
11
3.03039
21
-2.7643
0
LINE
8
BLACK
6
CONTINUOUS
10
3.03039
20
-2.7643
11
3.03035
21
-2.76417
0
LINE
8
BLACK
6
CONTINUOUS
10
3.03035
20
-2.76417
11
3.03025
21
-2.76408
0
LINE
8
BLACK
6
CONTINUOUS
10
3.03025
20
-2.76408
11
3.0301
21
-2.7632
0
LINE
8
BLACK
6
CONTINUOUS
10
3.0301
20
-2.7632
11
3.02987
21
-2.76234
0
LINE
8
BLACK
6
CONTINUOUS
10
3.02987
20
-2.76234
11
3.02992
21
-2.76222
0
LINE
8
BLACK
6
CONTINUOUS
10
3.02992
20
-2.76222
11
3.0299
21
-2.76209
0
LINE
8
BLACK
6
CONTINUOUS
10
3.0299
20
-2.76209
11
3.03034
21
-2.76132
0
LINE
8
BLACK
6
CONTINUOUS
10
3.03034
20
-2.76132
11
3.03072
21
-2.76051
0
LINE
8
BLACK
6
CONTINUOUS
10
3.03072
20
-2.76051
11
3.04823
21
-2.74301
0
LINE
8
BLACK
6
CONTINUOUS
10
3.04823
20
-2.74301
11
3.04935
21
-2.73963
0
LINE
8
BLACK
6
CONTINUOUS
10
3.04935
20
-2.73963
11
3.04935
21
-2.7378
0
LINE
8
BLACK
6
CONTINUOUS
10
3.04935
20
-2.7378
11
3.04838
21
-2.73585
0
LINE
8
BLACK
6
CONTINUOUS
10
3.04838
20
-2.73585
11
3.04756
21
-2.73503
0
LINE
8
BLACK
6
CONTINUOUS
10
3.04756
20
-2.73503
11
3.04561
21
-2.73406
0
LINE
8
BLACK
6
CONTINUOUS
10
3.04561
20
-2.73406
11
3.0395
21
-2.73406
0
LINE
8
BLACK
6
CONTINUOUS
10
3.0395
20
-2.73406
11
3.03756
21
-2.73503
0
LINE
8
BLACK
6
CONTINUOUS
10
3.03756
20
-2.73503
11
3.0364
21
-2.73619
0
LINE
8
BLACK
6
CONTINUOUS
10
3.0364
20
-2.73619
11
3.03556
21
-2.73678
0
LINE
8
BLACK
6
CONTINUOUS
10
3.03556
20
-2.73678
11
3.03354
21
-2.73696
0
LINE
8
BLACK
6
CONTINUOUS
10
3.03354
20
-2.73696
11
3.03189
21
-2.7358
0
LINE
8
BLACK
6
CONTINUOUS
10
3.03189
20
-2.7358
11
3.03137
21
-2.73385
0
LINE
8
BLACK
6
CONTINUOUS
10
3.03137
20
-2.73385
11
3.03222
21
-2.73202
0
LINE
8
BLACK
6
CONTINUOUS
10
3.03222
20
-2.73202
11
3.03372
21
-2.73052
0
LINE
8
BLACK
6
CONTINUOUS
10
3.03372
20
-2.73052
11
3.03444
21
-2.73001
0
LINE
8
BLACK
6
CONTINUOUS
10
3.03444
20
-2.73001
11
3.03449
21
-2.72996
0
LINE
8
BLACK
6
CONTINUOUS
10
3.03449
20
-2.72996
11
3.03749
21
-2.72847
0
LINE
8
BLACK
6
CONTINUOUS
10
3.03749
20
-2.72847
11
3.03847
21
-2.72817
0
LINE
8
BLACK
6
CONTINUOUS
10
3.03847
20
-2.72817
11
3.03864
21
-2.72821
0
LINE
8
BLACK
6
CONTINUOUS
10
3.03864
20
-2.72821
11
3.03881
21
-2.72815
0
LINE
8
BLACK
6
CONTINUOUS
10
3.03881
20
-2.72815
11
3.04631
21
-2.72815
0
LINE
8
BLACK
6
CONTINUOUS
10
3.04631
20
-2.72815
11
3.04732
21
-2.72833
0
LINE
8
BLACK
6
CONTINUOUS
10
3.20246
20
-2.67156
11
3.20315
21
-2.67323
0
LINE
8
BLACK
6
CONTINUOUS
10
3.20315
20
-2.67323
11
3.20315
21
-2.75984
0
LINE
8
BLACK
6
CONTINUOUS
10
3.20315
20
-2.75984
11
3.20246
21
-2.76151
0
LINE
8
BLACK
6
CONTINUOUS
10
3.20246
20
-2.76151
11
3.20079
21
-2.7622
0
LINE
8
BLACK
6
CONTINUOUS
10
3.20079
20
-2.7622
11
3.19912
21
-2.76151
0
LINE
8
BLACK
6
CONTINUOUS
10
3.19912
20
-2.76151
11
3.19843
21
-2.75984
0
LINE
8
BLACK
6
CONTINUOUS
10
3.19843
20
-2.75984
11
3.19843
21
-2.67323
0
LINE
8
BLACK
6
CONTINUOUS
10
3.19843
20
-2.67323
11
3.19912
21
-2.67156
0
LINE
8
BLACK
6
CONTINUOUS
10
3.19912
20
-2.67156
11
3.20079
21
-2.67087
0
LINE
8
BLACK
6
CONTINUOUS
10
3.20079
20
-2.67087
11
3.20246
21
-2.67156
0
LINE
8
BLACK
6
CONTINUOUS
10
3.1001
20
-2.68337
11
3.10079
21
-2.68504
0
LINE
8
BLACK
6
CONTINUOUS
10
3.10079
20
-2.68504
11
3.10079
21
-2.74803
0
LINE
8
BLACK
6
CONTINUOUS
10
3.10079
20
-2.74803
11
3.1001
21
-2.7497
0
LINE
8
BLACK
6
CONTINUOUS
10
3.1001
20
-2.7497
11
3.09843
21
-2.75039
0
LINE
8
BLACK
6
CONTINUOUS
10
3.09843
20
-2.75039
11
3.09675
21
-2.7497
0
LINE
8
BLACK
6
CONTINUOUS
10
3.09675
20
-2.7497
11
3.09606
21
-2.74803
0
LINE
8
BLACK
6
CONTINUOUS
10
3.09606
20
-2.74803
11
3.09606
21
-2.68504
0
LINE
8
BLACK
6
CONTINUOUS
10
3.09606
20
-2.68504
11
3.09675
21
-2.68337
0
LINE
8
BLACK
6
CONTINUOUS
10
3.09675
20
-2.68337
11
3.09843
21
-2.68268
0
LINE
8
BLACK
6
CONTINUOUS
10
3.09843
20
-2.68268
11
3.1001
21
-2.68337
0
LINE
8
BLACK
6
CONTINUOUS
10
3.42143
20
-2.6403
11
3.42192
21
-2.64042
0
LINE
8
BLACK
6
CONTINUOUS
10
3.42192
20
-2.64042
11
3.42206
21
-2.64041
0
LINE
8
BLACK
6
CONTINUOUS
10
3.42206
20
-2.64041
11
3.42801
21
-2.64211
0
LINE
8
BLACK
6
CONTINUOUS
10
3.42801
20
-2.64211
11
3.42854
21
-2.64236
0
LINE
8
BLACK
6
CONTINUOUS
10
3.42854
20
-2.64236
11
3.42867
21
-2.64239
0
LINE
8
BLACK
6
CONTINUOUS
10
3.42867
20
-2.64239
11
3.43257
21
-2.64464
0
LINE
8
BLACK
6
CONTINUOUS
10
3.43257
20
-2.64464
11
3.43302
21
-2.64502
0
LINE
8
BLACK
6
CONTINUOUS
10
3.43302
20
-2.64502
11
3.43314
21
-2.64507
0
LINE
8
BLACK
6
CONTINUOUS
10
3.43314
20
-2.64507
11
3.43759
21
-2.64937
0
LINE
8
BLACK
6
CONTINUOUS
10
3.43759
20
-2.64937
11
3.43789
21
-2.64978
0
LINE
8
BLACK
6
CONTINUOUS
10
3.43789
20
-2.64978
11
3.438
21
-2.64987
0
LINE
8
BLACK
6
CONTINUOUS
10
3.438
20
-2.64987
11
3.43985
21
-2.65267
0
LINE
8
BLACK
6
CONTINUOUS
10
3.43985
20
-2.65267
11
3.4402
21
-2.65348
0
LINE
8
BLACK
6
CONTINUOUS
10
3.4402
20
-2.65348
11
3.44024
21
-2.65353
0
LINE
8
BLACK
6
CONTINUOUS
10
3.44024
20
-2.65353
11
3.44134
21
-2.65763
0
LINE
8
BLACK
6
CONTINUOUS
10
3.44134
20
-2.65763
11
3.44143
21
-2.65865
0
LINE
8
BLACK
6
CONTINUOUS
10
3.44143
20
-2.65865
11
3.44135
21
-2.65881
0
LINE
8
BLACK
6
CONTINUOUS
10
3.44135
20
-2.65881
11
3.44138
21
-2.65898
0
LINE
8
BLACK
6
CONTINUOUS
10
3.44138
20
-2.65898
11
3.44043
21
-2.66363
0
LINE
8
BLACK
6
CONTINUOUS
10
3.44043
20
-2.66363
11
3.4401
21
-2.66445
0
LINE
8
BLACK
6
CONTINUOUS
10
3.4401
20
-2.66445
11
3.44009
21
-2.66451
0
LINE
8
BLACK
6
CONTINUOUS
10
3.44009
20
-2.66451
11
3.43634
21
-2.67101
0
LINE
8
BLACK
6
CONTINUOUS
10
3.43634
20
-2.67101
11
3.43609
21
-2.67131
0
LINE
8
BLACK
6
CONTINUOUS
10
3.43609
20
-2.67131
11
3.43605
21
-2.67143
0
LINE
8
BLACK
6
CONTINUOUS
10
3.43605
20
-2.67143
11
3.43593
21
-2.67149
0
LINE
8
BLACK
6
CONTINUOUS
10
3.43593
20
-2.67149
11
3.43568
21
-2.67179
0
LINE
8
BLACK
6
CONTINUOUS
10
3.43568
20
-2.67179
11
3.43496
21
-2.67206
0
LINE
8
BLACK
6
CONTINUOUS
10
3.43496
20
-2.67206
11
3.4343
21
-2.67244
0
LINE
8
BLACK
6
CONTINUOUS
10
3.4343
20
-2.67244
11
3.43403
21
-2.67239
0
LINE
8
BLACK
6
CONTINUOUS
10
3.43403
20
-2.67239
11
3.43378
21
-2.67248
0
LINE
8
BLACK
6
CONTINUOUS
10
3.43378
20
-2.67248
11
3.43306
21
-2.67222
0
LINE
8
BLACK
6
CONTINUOUS
10
3.43306
20
-2.67222
11
3.43231
21
-2.67209
0
LINE
8
BLACK
6
CONTINUOUS
10
3.43231
20
-2.67209
11
3.40503
21
-2.65634
0
LINE
8
BLACK
6
CONTINUOUS
10
3.40503
20
-2.65634
11
3.40473
21
-2.65609
0
LINE
8
BLACK
6
CONTINUOUS
10
3.40473
20
-2.65609
11
3.40461
21
-2.65605
0
LINE
8
BLACK
6
CONTINUOUS
10
3.40461
20
-2.65605
11
3.40454
21
-2.65593
0
LINE
8
BLACK
6
CONTINUOUS
10
3.40454
20
-2.65593
11
3.40424
21
-2.65568
0
LINE
8
BLACK
6
CONTINUOUS
10
3.40424
20
-2.65568
11
3.40398
21
-2.65496
0
LINE
8
BLACK
6
CONTINUOUS
10
3.40398
20
-2.65496
11
3.4036
21
-2.6543
0
LINE
8
BLACK
6
CONTINUOUS
10
3.4036
20
-2.6543
11
3.40365
21
-2.65403
0
LINE
8
BLACK
6
CONTINUOUS
10
3.40365
20
-2.65403
11
3.40355
21
-2.65378
0
LINE
8
BLACK
6
CONTINUOUS
10
3.40355
20
-2.65378
11
3.40382
21
-2.65306
0
LINE
8
BLACK
6
CONTINUOUS
10
3.40382
20
-2.65306
11
3.40395
21
-2.65231
0
LINE
8
BLACK
6
CONTINUOUS
10
3.40395
20
-2.65231
11
3.4077
21
-2.64581
0
LINE
8
BLACK
6
CONTINUOUS
10
3.4077
20
-2.64581
11
3.40827
21
-2.64514
0
LINE
8
BLACK
6
CONTINUOUS
10
3.40827
20
-2.64514
11
3.4083
21
-2.64508
0
LINE
8
BLACK
6
CONTINUOUS
10
3.4083
20
-2.64508
11
3.41185
21
-2.64193
0
LINE
8
BLACK
6
CONTINUOUS
10
3.41185
20
-2.64193
11
3.41272
21
-2.6414
0
LINE
8
BLACK
6
CONTINUOUS
10
3.41272
20
-2.6414
11
3.4129
21
-2.64139
0
LINE
8
BLACK
6
CONTINUOUS
10
3.4129
20
-2.64139
11
3.41304
21
-2.64129
0
LINE
8
BLACK
6
CONTINUOUS
10
3.41304
20
-2.64129
11
3.41714
21
-2.64019
0
LINE
8
BLACK
6
CONTINUOUS
10
3.41714
20
-2.64019
11
3.41802
21
-2.64012
0
LINE
8
BLACK
6
CONTINUOUS
10
3.41802
20
-2.64012
11
3.41808
21
-2.6401
0
LINE
8
BLACK
6
CONTINUOUS
10
3.41808
20
-2.6401
11
3.42143
21
-2.6403
0
LINE
8
BLACK
6
CONTINUOUS
10
3.41524
20
-2.64681
11
3.41257
21
-2.64918
0
LINE
8
BLACK
6
CONTINUOUS
10
3.41257
20
-2.64918
11
3.41054
21
-2.6527
0
LINE
8
BLACK
6
CONTINUOUS
10
3.41054
20
-2.6527
11
3.4327
21
-2.6655
0
LINE
8
BLACK
6
CONTINUOUS
10
3.4327
20
-2.6655
11
3.43474
21
-2.66198
0
LINE
8
BLACK
6
CONTINUOUS
10
3.43474
20
-2.66198
11
3.43545
21
-2.65848
0
LINE
8
BLACK
6
CONTINUOUS
10
3.43545
20
-2.65848
11
3.43466
21
-2.65552
0
LINE
8
BLACK
6
CONTINUOUS
10
3.43466
20
-2.65552
11
3.43325
21
-2.65339
0
LINE
8
BLACK
6
CONTINUOUS
10
3.43325
20
-2.65339
11
3.4293
21
-2.64957
0
LINE
8
BLACK
6
CONTINUOUS
10
3.4293
20
-2.64957
11
3.42603
21
-2.64768
0
LINE
8
BLACK
6
CONTINUOUS
10
3.42603
20
-2.64768
11
3.42075
21
-2.64617
0
LINE
8
BLACK
6
CONTINUOUS
10
3.42075
20
-2.64617
11
3.4182
21
-2.64602
0
LINE
8
BLACK
6
CONTINUOUS
10
3.4182
20
-2.64602
11
3.41524
21
-2.64681
0
LINE
8
BLACK
6
CONTINUOUS
10
3.42634
20
-2.61725
11
3.42719
21
-2.61731
0
LINE
8
BLACK
6
CONTINUOUS
10
3.42719
20
-2.61731
11
3.42731
21
-2.61743
0
LINE
8
BLACK
6
CONTINUOUS
10
3.42731
20
-2.61743
11
3.42748
21
-2.61746
0
LINE
8
BLACK
6
CONTINUOUS
10
3.42748
20
-2.61746
11
3.4522
21
-2.63173
0
LINE
8
BLACK
6
CONTINUOUS
10
3.4522
20
-2.63173
11
3.45522
21
-2.62649
0
LINE
8
BLACK
6
CONTINUOUS
10
3.45522
20
-2.62649
11
3.45588
21
-2.62571
0
LINE
8
BLACK
6
CONTINUOUS
10
3.45588
20
-2.62571
11
3.45778
21
-2.62501
0
LINE
8
BLACK
6
CONTINUOUS
10
3.45778
20
-2.62501
11
3.45968
21
-2.62571
0
LINE
8
BLACK
6
CONTINUOUS
10
3.45968
20
-2.62571
11
3.46069
21
-2.62745
0
LINE
8
BLACK
6
CONTINUOUS
10
3.46069
20
-2.62745
11
3.46034
21
-2.62944
0
LINE
8
BLACK
6
CONTINUOUS
10
3.46034
20
-2.62944
11
3.45134
21
-2.64503
0
LINE
8
BLACK
6
CONTINUOUS
10
3.45134
20
-2.64503
11
3.45068
21
-2.64582
0
LINE
8
BLACK
6
CONTINUOUS
10
3.45068
20
-2.64582
11
3.44878
21
-2.64651
0
LINE
8
BLACK
6
CONTINUOUS
10
3.44878
20
-2.64651
11
3.44688
21
-2.64582
0
LINE
8
BLACK
6
CONTINUOUS
10
3.44688
20
-2.64582
11
3.44587
21
-2.64407
0
LINE
8
BLACK
6
CONTINUOUS
10
3.44587
20
-2.64407
11
3.44622
21
-2.64208
0
LINE
8
BLACK
6
CONTINUOUS
10
3.44622
20
-2.64208
11
3.44925
21
-2.63684
0
LINE
8
BLACK
6
CONTINUOUS
10
3.44925
20
-2.63684
11
3.432
21
-2.62688
0
LINE
8
BLACK
6
CONTINUOUS
10
3.432
20
-2.62688
11
3.43235
21
-2.62819
0
LINE
8
BLACK
6
CONTINUOUS
10
3.43235
20
-2.62819
11
3.43243
21
-2.62907
0
LINE
8
BLACK
6
CONTINUOUS
10
3.43243
20
-2.62907
11
3.43245
21
-2.62913
0
LINE
8
BLACK
6
CONTINUOUS
10
3.43245
20
-2.62913
11
3.43225
21
-2.63248
0
LINE
8
BLACK
6
CONTINUOUS
10
3.43225
20
-2.63248
11
3.43201
21
-2.63348
0
LINE
8
BLACK
6
CONTINUOUS
10
3.43201
20
-2.63348
11
3.43062
21
-2.63495
0
LINE
8
BLACK
6
CONTINUOUS
10
3.43062
20
-2.63495
11
3.42861
21
-2.63518
0
LINE
8
BLACK
6
CONTINUOUS
10
3.42861
20
-2.63518
11
3.42693
21
-2.63406
0
LINE
8
BLACK
6
CONTINUOUS
10
3.42693
20
-2.63406
11
3.42635
21
-2.63213
0
LINE
8
BLACK
6
CONTINUOUS
10
3.42635
20
-2.63213
11
3.42652
21
-2.62926
0
LINE
8
BLACK
6
CONTINUOUS
10
3.42652
20
-2.62926
11
3.42562
21
-2.62591
0
LINE
8
BLACK
6
CONTINUOUS
10
3.42562
20
-2.62591
11
3.42336
21
-2.62132
0
LINE
8
BLACK
6
CONTINUOUS
10
3.42336
20
-2.62132
11
3.42307
21
-2.62034
0
LINE
8
BLACK
6
CONTINUOUS
10
3.42307
20
-2.62034
11
3.42311
21
-2.62017
0
LINE
8
BLACK
6
CONTINUOUS
10
3.42311
20
-2.62017
11
3.42305
21
-2.62001
0
LINE
8
BLACK
6
CONTINUOUS
10
3.42305
20
-2.62001
11
3.42334
21
-2.61921
0
LINE
8
BLACK
6
CONTINUOUS
10
3.42334
20
-2.61921
11
3.42355
21
-2.61837
0
LINE
8
BLACK
6
CONTINUOUS
10
3.42355
20
-2.61837
11
3.42368
21
-2.61827
0
LINE
8
BLACK
6
CONTINUOUS
10
3.42368
20
-2.61827
11
3.42374
21
-2.61811
0
LINE
8
BLACK
6
CONTINUOUS
10
3.42374
20
-2.61811
11
3.42448
21
-2.61769
0
LINE
8
BLACK
6
CONTINUOUS
10
3.42448
20
-2.61769
11
3.42518
21
-2.61718
0
LINE
8
BLACK
6
CONTINUOUS
10
3.42518
20
-2.61718
11
3.42534
21
-2.61719
0
LINE
8
BLACK
6
CONTINUOUS
10
3.42534
20
-2.61719
11
3.42549
21
-2.6171
0
LINE
8
BLACK
6
CONTINUOUS
10
3.42549
20
-2.6171
11
3.42634
21
-2.61725
0
LINE
8
BLACK
6
CONTINUOUS
10
2.89782
20
-2.54216
11
2.89805
21
-2.54395
0
LINE
8
BLACK
6
CONTINUOUS
10
2.89805
20
-2.54395
11
2.89695
21
-2.54539
0
LINE
8
BLACK
6
CONTINUOUS
10
2.89695
20
-2.54539
11
2.82194
21
-2.58869
0
LINE
8
BLACK
6
CONTINUOUS
10
2.82194
20
-2.58869
11
2.82015
21
-2.58893
0
LINE
8
BLACK
6
CONTINUOUS
10
2.82015
20
-2.58893
11
2.81872
21
-2.58783
0
LINE
8
BLACK
6
CONTINUOUS
10
2.81872
20
-2.58783
11
2.81848
21
-2.58604
0
LINE
8
BLACK
6
CONTINUOUS
10
2.81848
20
-2.58604
11
2.81958
21
-2.5846
0
LINE
8
BLACK
6
CONTINUOUS
10
2.81958
20
-2.5846
11
2.89459
21
-2.54129
0
LINE
8
BLACK
6
CONTINUOUS
10
2.89459
20
-2.54129
11
2.89638
21
-2.54106
0
LINE
8
BLACK
6
CONTINUOUS
10
2.89638
20
-2.54106
11
2.89782
21
-2.54216
0
LINE
8
BLACK
6
CONTINUOUS
10
3.41485
20
-2.5472
11
3.4694
21
-2.5787
0
LINE
8
BLACK
6
CONTINUOUS
10
3.4694
20
-2.5787
11
3.4705
21
-2.58013
0
LINE
8
BLACK
6
CONTINUOUS
10
3.4705
20
-2.58013
11
3.47027
21
-2.58192
0
LINE
8
BLACK
6
CONTINUOUS
10
3.47027
20
-2.58192
11
3.46883
21
-2.58302
0
LINE
8
BLACK
6
CONTINUOUS
10
3.46883
20
-2.58302
11
3.46704
21
-2.58279
0
LINE
8
BLACK
6
CONTINUOUS
10
3.46704
20
-2.58279
11
3.41249
21
-2.55129
0
LINE
8
BLACK
6
CONTINUOUS
10
3.41249
20
-2.55129
11
3.41139
21
-2.54986
0
LINE
8
BLACK
6
CONTINUOUS
10
3.41139
20
-2.54986
11
3.41162
21
-2.54806
0
LINE
8
BLACK
6
CONTINUOUS
10
3.41162
20
-2.54806
11
3.41306
21
-2.54696
0
LINE
8
BLACK
6
CONTINUOUS
10
3.41306
20
-2.54696
11
3.41485
21
-2.5472
0
LINE
8
BLACK
6
CONTINUOUS
10
2.74765
20
-2.39935
11
2.74842
21
-2.39935
0
LINE
8
BLACK
6
CONTINUOUS
10
2.74842
20
-2.39935
11
2.74863
21
-2.39952
0
LINE
8
BLACK
6
CONTINUOUS
10
2.74863
20
-2.39952
11
2.74889
21
-2.39957
0
LINE
8
BLACK
6
CONTINUOUS
10
2.74889
20
-2.39957
11
2.74938
21
-2.40016
0
LINE
8
BLACK
6
CONTINUOUS
10
2.74938
20
-2.40016
11
2.74997
21
-2.40065
0
LINE
8
BLACK
6
CONTINUOUS
10
2.74997
20
-2.40065
11
2.75372
21
-2.40714
0
LINE
8
BLACK
6
CONTINUOUS
10
2.75372
20
-2.40714
11
2.75402
21
-2.40797
0
LINE
8
BLACK
6
CONTINUOUS
10
2.75402
20
-2.40797
11
2.75405
21
-2.40803
0
LINE
8
BLACK
6
CONTINUOUS
10
2.75405
20
-2.40803
11
2.755
21
-2.41267
0
LINE
8
BLACK
6
CONTINUOUS
10
2.755
20
-2.41267
11
2.75503
21
-2.4137
0
LINE
8
BLACK
6
CONTINUOUS
10
2.75503
20
-2.4137
11
2.75495
21
-2.41386
0
LINE
8
BLACK
6
CONTINUOUS
10
2.75495
20
-2.41386
11
2.75496
21
-2.41403
0
LINE
8
BLACK
6
CONTINUOUS
10
2.75496
20
-2.41403
11
2.75387
21
-2.41813
0
LINE
8
BLACK
6
CONTINUOUS
10
2.75387
20
-2.41813
11
2.75349
21
-2.41893
0
LINE
8
BLACK
6
CONTINUOUS
10
2.75349
20
-2.41893
11
2.75348
21
-2.41899
0
LINE
8
BLACK
6
CONTINUOUS
10
2.75348
20
-2.41899
11
2.75163
21
-2.42179
0
LINE
8
BLACK
6
CONTINUOUS
10
2.75163
20
-2.42179
11
2.75128
21
-2.42216
0
LINE
8
BLACK
6
CONTINUOUS
10
2.75128
20
-2.42216
11
2.75122
21
-2.42229
0
LINE
8
BLACK
6
CONTINUOUS
10
2.75122
20
-2.42229
11
2.74677
21
-2.42658
0
LINE
8
BLACK
6
CONTINUOUS
10
2.74677
20
-2.42658
11
2.74628
21
-2.42691
0
LINE
8
BLACK
6
CONTINUOUS
10
2.74628
20
-2.42691
11
2.7462
21
-2.42702
0
LINE
8
BLACK
6
CONTINUOUS
10
2.7462
20
-2.42702
11
2.7423
21
-2.42927
0
LINE
8
BLACK
6
CONTINUOUS
10
2.7423
20
-2.42927
11
2.74175
21
-2.42947
0
LINE
8
BLACK
6
CONTINUOUS
10
2.74175
20
-2.42947
11
2.74164
21
-2.42955
0
LINE
8
BLACK
6
CONTINUOUS
10
2.74164
20
-2.42955
11
2.73569
21
-2.43125
0
LINE
8
BLACK
6
CONTINUOUS
10
2.73569
20
-2.43125
11
2.73518
21
-2.4313
0
LINE
8
BLACK
6
CONTINUOUS
10
2.73518
20
-2.4313
11
2.73506
21
-2.43136
0
LINE
8
BLACK
6
CONTINUOUS
10
2.73506
20
-2.43136
11
2.73171
21
-2.43156
0
LINE
8
BLACK
6
CONTINUOUS
10
2.73171
20
-2.43156
11
2.73083
21
-2.43146
0
LINE
8
BLACK
6
CONTINUOUS
10
2.73083
20
-2.43146
11
2.73077
21
-2.43147
0
LINE
8
BLACK
6
CONTINUOUS
10
2.73077
20
-2.43147
11
2.72667
21
-2.43037
0
LINE
8
BLACK
6
CONTINUOUS
10
2.72667
20
-2.43037
11
2.72574
21
-2.42993
0
LINE
8
BLACK
6
CONTINUOUS
10
2.72574
20
-2.42993
11
2.72564
21
-2.42979
0
LINE
8
BLACK
6
CONTINUOUS
10
2.72564
20
-2.42979
11
2.72547
21
-2.42972
0
LINE
8
BLACK
6
CONTINUOUS
10
2.72547
20
-2.42972
11
2.72193
21
-2.42658
0
LINE
8
BLACK
6
CONTINUOUS
10
2.72193
20
-2.42658
11
2.72138
21
-2.42589
0
LINE
8
BLACK
6
CONTINUOUS
10
2.72138
20
-2.42589
11
2.72133
21
-2.42584
0
LINE
8
BLACK
6
CONTINUOUS
10
2.72133
20
-2.42584
11
2.71758
21
-2.41935
0
LINE
8
BLACK
6
CONTINUOUS
10
2.71758
20
-2.41935
11
2.71744
21
-2.41898
0
LINE
8
BLACK
6
CONTINUOUS
10
2.71744
20
-2.41898
11
2.71736
21
-2.41888
0
LINE
8
BLACK
6
CONTINUOUS
10
2.71736
20
-2.41888
11
2.71736
21
-2.41875
0
LINE
8
BLACK
6
CONTINUOUS
10
2.71736
20
-2.41875
11
2.71723
21
-2.41839
0
LINE
8
BLACK
6
CONTINUOUS
10
2.71723
20
-2.41839
11
2.71736
21
-2.41763
0
LINE
8
BLACK
6
CONTINUOUS
10
2.71736
20
-2.41763
11
2.71736
21
-2.41686
0
LINE
8
BLACK
6
CONTINUOUS
10
2.71736
20
-2.41686
11
2.71753
21
-2.41666
0
LINE
8
BLACK
6
CONTINUOUS
10
2.71753
20
-2.41666
11
2.71758
21
-2.4164
0
LINE
8
BLACK
6
CONTINUOUS
10
2.71758
20
-2.4164
11
2.71817
21
-2.4159
0
LINE
8
BLACK
6
CONTINUOUS
10
2.71817
20
-2.4159
11
2.71866
21
-2.41532
0
LINE
8
BLACK
6
CONTINUOUS
10
2.71866
20
-2.41532
11
2.74594
21
-2.39957
0
LINE
8
BLACK
6
CONTINUOUS
10
2.74594
20
-2.39957
11
2.7463
21
-2.39944
0
LINE
8
BLACK
6
CONTINUOUS
10
2.7463
20
-2.39944
11
2.7464
21
-2.39935
0
LINE
8
BLACK
6
CONTINUOUS
10
2.7464
20
-2.39935
11
2.74653
21
-2.39935
0
LINE
8
BLACK
6
CONTINUOUS
10
2.74653
20
-2.39935
11
2.7469
21
-2.39922
0
LINE
8
BLACK
6
CONTINUOUS
10
2.7469
20
-2.39922
11
2.74765
21
-2.39935
0
LINE
8
BLACK
6
CONTINUOUS
10
2.72417
20
-2.41895
11
2.7262
21
-2.42248
0
LINE
8
BLACK
6
CONTINUOUS
10
2.7262
20
-2.42248
11
2.72887
21
-2.42484
0
LINE
8
BLACK
6
CONTINUOUS
10
2.72887
20
-2.42484
11
2.73183
21
-2.42564
0
LINE
8
BLACK
6
CONTINUOUS
10
2.73183
20
-2.42564
11
2.73438
21
-2.42548
0
LINE
8
BLACK
6
CONTINUOUS
10
2.73438
20
-2.42548
11
2.73966
21
-2.42397
0
LINE
8
BLACK
6
CONTINUOUS
10
2.73966
20
-2.42397
11
2.74293
21
-2.42209
0
LINE
8
BLACK
6
CONTINUOUS
10
2.74293
20
-2.42209
11
2.74688
21
-2.41827
0
LINE
8
BLACK
6
CONTINUOUS
10
2.74688
20
-2.41827
11
2.74829
21
-2.41614
0
LINE
8
BLACK
6
CONTINUOUS
10
2.74829
20
-2.41614
11
2.74908
21
-2.41318
0
LINE
8
BLACK
6
CONTINUOUS
10
2.74908
20
-2.41318
11
2.74836
21
-2.40968
0
LINE
8
BLACK
6
CONTINUOUS
10
2.74836
20
-2.40968
11
2.74633
21
-2.40616
0
LINE
8
BLACK
6
CONTINUOUS
10
2.74633
20
-2.40616
11
2.72417
21
-2.41895
0
LINE
8
BLACK
6
CONTINUOUS
10
2.76422
20
-2.42533
11
2.77397
21
-2.44221
0
LINE
8
BLACK
6
CONTINUOUS
10
2.77397
20
-2.44221
11
2.77412
21
-2.44263
0
LINE
8
BLACK
6
CONTINUOUS
10
2.77412
20
-2.44263
11
2.7742
21
-2.44274
0
LINE
8
BLACK
6
CONTINUOUS
10
2.7742
20
-2.44274
11
2.7742
21
-2.44286
0
LINE
8
BLACK
6
CONTINUOUS
10
2.7742
20
-2.44286
11
2.77432
21
-2.44318
0
LINE
8
BLACK
6
CONTINUOUS
10
2.77432
20
-2.44318
11
2.77418
21
-2.44396
0
LINE
8
BLACK
6
CONTINUOUS
10
2.77418
20
-2.44396
11
2.77416
21
-2.44476
0
LINE
8
BLACK
6
CONTINUOUS
10
2.77416
20
-2.44476
11
2.77401
21
-2.44493
0
LINE
8
BLACK
6
CONTINUOUS
10
2.77401
20
-2.44493
11
2.77397
21
-2.44517
0
LINE
8
BLACK
6
CONTINUOUS
10
2.77397
20
-2.44517
11
2.77336
21
-2.44568
0
LINE
8
BLACK
6
CONTINUOUS
10
2.77336
20
-2.44568
11
2.77283
21
-2.44628
0
LINE
8
BLACK
6
CONTINUOUS
10
2.77283
20
-2.44628
11
2.7726
21
-2.44631
0
LINE
8
BLACK
6
CONTINUOUS
10
2.7726
20
-2.44631
11
2.77242
21
-2.44646
0
LINE
8
BLACK
6
CONTINUOUS
10
2.77242
20
-2.44646
11
2.77162
21
-2.44646
0
LINE
8
BLACK
6
CONTINUOUS
10
2.77162
20
-2.44646
11
2.77084
21
-2.44659
0
LINE
8
BLACK
6
CONTINUOUS
10
2.77084
20
-2.44659
11
2.76098
21
-2.44464
0
LINE
8
BLACK
6
CONTINUOUS
10
2.76098
20
-2.44464
11
2.76117
21
-2.44766
0
LINE
8
BLACK
6
CONTINUOUS
10
2.76117
20
-2.44766
11
2.76107
21
-2.44854
0
LINE
8
BLACK
6
CONTINUOUS
10
2.76107
20
-2.44854
11
2.76107
21
-2.44861
0
LINE
8
BLACK
6
CONTINUOUS
10
2.76107
20
-2.44861
11
2.76052
21
-2.45065
0
LINE
8
BLACK
6
CONTINUOUS
10
2.76052
20
-2.45065
11
2.76015
21
-2.45145
0
LINE
8
BLACK
6
CONTINUOUS
10
2.76015
20
-2.45145
11
2.76013
21
-2.45152
0
LINE
8
BLACK
6
CONTINUOUS
10
2.76013
20
-2.45152
11
2.75829
21
-2.45432
0
LINE
8
BLACK
6
CONTINUOUS
10
2.75829
20
-2.45432
11
2.75758
21
-2.45506
0
LINE
8
BLACK
6
CONTINUOUS
10
2.75758
20
-2.45506
11
2.75741
21
-2.45511
0
LINE
8
BLACK
6
CONTINUOUS
10
2.75741
20
-2.45511
11
2.7573
21
-2.45525
0
LINE
8
BLACK
6
CONTINUOUS
10
2.7573
20
-2.45525
11
2.7508
21
-2.459
0
LINE
8
BLACK
6
CONTINUOUS
10
2.7508
20
-2.459
11
2.74984
21
-2.45935
0
LINE
8
BLACK
6
CONTINUOUS
10
2.74984
20
-2.45935
11
2.74967
21
-2.45932
0
LINE
8
BLACK
6
CONTINUOUS
10
2.74967
20
-2.45932
11
2.7495
21
-2.45939
0
LINE
8
BLACK
6
CONTINUOUS
10
2.7495
20
-2.45939
11
2.74616
21
-2.45959
0
LINE
8
BLACK
6
CONTINUOUS
10
2.74616
20
-2.45959
11
2.74528
21
-2.45949
0
LINE
8
BLACK
6
CONTINUOUS
10
2.74528
20
-2.45949
11
2.74522
21
-2.45949
0
LINE
8
BLACK
6
CONTINUOUS
10
2.74522
20
-2.45949
11
2.74317
21
-2.45894
0
LINE
8
BLACK
6
CONTINUOUS
10
2.74317
20
-2.45894
11
2.74237
21
-2.45857
0
LINE
8
BLACK
6
CONTINUOUS
10
2.74237
20
-2.45857
11
2.7423
21
-2.45855
0
LINE
8
BLACK
6
CONTINUOUS
10
2.7423
20
-2.45855
11
2.73951
21
-2.45671
0
LINE
8
BLACK
6
CONTINUOUS
10
2.73951
20
-2.45671
11
2.73876
21
-2.456
0
LINE
8
BLACK
6
CONTINUOUS
10
2.73876
20
-2.456
11
2.73871
21
-2.45583
0
LINE
8
BLACK
6
CONTINUOUS
10
2.73871
20
-2.45583
11
2.73858
21
-2.45572
0
LINE
8
BLACK
6
CONTINUOUS
10
2.73858
20
-2.45572
11
2.73408
21
-2.44793
0
LINE
8
BLACK
6
CONTINUOUS
10
2.73408
20
-2.44793
11
2.73373
21
-2.44696
0
LINE
8
BLACK
6
CONTINUOUS
10
2.73373
20
-2.44696
11
2.73376
21
-2.44679
0
LINE
8
BLACK
6
CONTINUOUS
10
2.73376
20
-2.44679
11
2.73369
21
-2.44663
0
LINE
8
BLACK
6
CONTINUOUS
10
2.73369
20
-2.44663
11
2.73348
21
-2.44328
0
LINE
8
BLACK
6
CONTINUOUS
10
2.73348
20
-2.44328
11
2.73359
21
-2.4424
0
LINE
8
BLACK
6
CONTINUOUS
10
2.73359
20
-2.4424
11
2.73358
21
-2.44234
0
LINE
8
BLACK
6
CONTINUOUS
10
2.73358
20
-2.44234
11
2.73413
21
-2.44029
0
LINE
8
BLACK
6
CONTINUOUS
10
2.73413
20
-2.44029
11
2.73456
21
-2.43936
0
LINE
8
BLACK
6
CONTINUOUS
10
2.73456
20
-2.43936
11
2.73622
21
-2.4382
0
LINE
8
BLACK
6
CONTINUOUS
10
2.73622
20
-2.4382
11
2.73823
21
-2.43838
0
LINE
8
BLACK
6
CONTINUOUS
10
2.73823
20
-2.43838
11
2.73966
21
-2.4398
0
LINE
8
BLACK
6
CONTINUOUS
10
2.73966
20
-2.4398
11
2.73983
21
-2.44182
0
LINE
8
BLACK
6
CONTINUOUS
10
2.73983
20
-2.44182
11
2.73941
21
-2.4434
0
LINE
8
BLACK
6
CONTINUOUS
10
2.73941
20
-2.4434
11
2.73954
21
-2.44558
0
LINE
8
BLACK
6
CONTINUOUS
10
2.73954
20
-2.44558
11
2.74334
21
-2.45216
0
LINE
8
BLACK
6
CONTINUOUS
10
2.74334
20
-2.45216
11
2.74516
21
-2.45336
0
LINE
8
BLACK
6
CONTINUOUS
10
2.74516
20
-2.45336
11
2.74628
21
-2.45366
0
LINE
8
BLACK
6
CONTINUOUS
10
2.74628
20
-2.45366
11
2.74845
21
-2.45353
0
LINE
8
BLACK
6
CONTINUOUS
10
2.74845
20
-2.45353
11
2.75374
21
-2.45048
0
LINE
8
BLACK
6
CONTINUOUS
10
2.75374
20
-2.45048
11
2.75494
21
-2.44866
0
LINE
8
BLACK
6
CONTINUOUS
10
2.75494
20
-2.44866
11
2.75524
21
-2.44754
0
LINE
8
BLACK
6
CONTINUOUS
10
2.75524
20
-2.44754
11
2.75511
21
-2.44537
0
LINE
8
BLACK
6
CONTINUOUS
10
2.75511
20
-2.44537
11
2.75321
21
-2.44207
0
LINE
8
BLACK
6
CONTINUOUS
10
2.75321
20
-2.44207
11
2.75306
21
-2.44166
0
LINE
8
BLACK
6
CONTINUOUS
10
2.75306
20
-2.44166
11
2.75297
21
-2.44155
0
LINE
8
BLACK
6
CONTINUOUS
10
2.75297
20
-2.44155
11
2.75298
21
-2.44143
0
LINE
8
BLACK
6
CONTINUOUS
10
2.75298
20
-2.44143
11
2.75286
21
-2.44111
0
LINE
8
BLACK
6
CONTINUOUS
10
2.75286
20
-2.44111
11
2.753
21
-2.44033
0
LINE
8
BLACK
6
CONTINUOUS
10
2.753
20
-2.44033
11
2.75301
21
-2.43953
0
LINE
8
BLACK
6
CONTINUOUS
10
2.75301
20
-2.43953
11
2.75317
21
-2.43935
0
LINE
8
BLACK
6
CONTINUOUS
10
2.75317
20
-2.43935
11
2.75321
21
-2.43912
0
LINE
8
BLACK
6
CONTINUOUS
10
2.75321
20
-2.43912
11
2.75382
21
-2.43861
0
LINE
8
BLACK
6
CONTINUOUS
10
2.75382
20
-2.43861
11
2.75434
21
-2.43801
0
LINE
8
BLACK
6
CONTINUOUS
10
2.75434
20
-2.43801
11
2.75458
21
-2.43797
0
LINE
8
BLACK
6
CONTINUOUS
10
2.75458
20
-2.43797
11
2.75476
21
-2.43782
0
LINE
8
BLACK
6
CONTINUOUS
10
2.75476
20
-2.43782
11
2.75555
21
-2.43782
0
LINE
8
BLACK
6
CONTINUOUS
10
2.75555
20
-2.43782
11
2.75634
21
-2.4377
0
LINE
8
BLACK
6
CONTINUOUS
10
2.75634
20
-2.4377
11
2.7656
21
-2.43953
0
LINE
8
BLACK
6
CONTINUOUS
10
2.7656
20
-2.43953
11
2.7591
21
-2.42828
0
LINE
8
BLACK
6
CONTINUOUS
10
2.7591
20
-2.42828
11
2.75875
21
-2.42732
0
LINE
8
BLACK
6
CONTINUOUS
10
2.75875
20
-2.42732
11
2.7591
21
-2.42533
0
LINE
8
BLACK
6
CONTINUOUS
10
2.7591
20
-2.42533
11
2.76065
21
-2.42403
0
LINE
8
BLACK
6
CONTINUOUS
10
2.76065
20
-2.42403
11
2.76267
21
-2.42403
0
LINE
8
BLACK
6
CONTINUOUS
10
2.76267
20
-2.42403
11
2.76422
21
-2.42533
0
LINE
8
BLACK
6
CONTINUOUS
10
3.4558
20
-2.45265
11
3.53081
21
-2.49595
0
LINE
8
BLACK
6
CONTINUOUS
10
3.53081
20
-2.49595
11
3.53191
21
-2.49739
0
LINE
8
BLACK
6
CONTINUOUS
10
3.53191
20
-2.49739
11
3.53168
21
-2.49918
0
LINE
8
BLACK
6
CONTINUOUS
10
3.53168
20
-2.49918
11
3.53024
21
-2.50028
0
LINE
8
BLACK
6
CONTINUOUS
10
3.53024
20
-2.50028
11
3.52845
21
-2.50004
0
LINE
8
BLACK
6
CONTINUOUS
10
3.52845
20
-2.50004
11
3.45344
21
-2.45674
0
LINE
8
BLACK
6
CONTINUOUS
10
3.45344
20
-2.45674
11
3.45234
21
-2.4553
0
LINE
8
BLACK
6
CONTINUOUS
10
3.45234
20
-2.4553
11
3.45258
21
-2.45351
0
LINE
8
BLACK
6
CONTINUOUS
10
3.45258
20
-2.45351
11
3.45401
21
-2.45241
0
LINE
8
BLACK
6
CONTINUOUS
10
3.45401
20
-2.45241
11
3.4558
21
-2.45265
0
LINE
8
BLACK
6
CONTINUOUS
10
2.83641
20
-2.45942
11
2.83664
21
-2.46121
0
LINE
8
BLACK
6
CONTINUOUS
10
2.83664
20
-2.46121
11
2.83554
21
-2.46264
0
LINE
8
BLACK
6
CONTINUOUS
10
2.83554
20
-2.46264
11
2.78099
21
-2.49414
0
LINE
8
BLACK
6
CONTINUOUS
10
2.78099
20
-2.49414
11
2.7792
21
-2.49437
0
LINE
8
BLACK
6
CONTINUOUS
10
2.7792
20
-2.49437
11
2.77776
21
-2.49327
0
LINE
8
BLACK
6
CONTINUOUS
10
2.77776
20
-2.49327
11
2.77753
21
-2.49148
0
LINE
8
BLACK
6
CONTINUOUS
10
2.77753
20
-2.49148
11
2.77863
21
-2.49005
0
LINE
8
BLACK
6
CONTINUOUS
10
2.77863
20
-2.49005
11
2.83318
21
-2.45855
0
LINE
8
BLACK
6
CONTINUOUS
10
2.83318
20
-2.45855
11
2.83497
21
-2.45832
0
LINE
8
BLACK
6
CONTINUOUS
10
2.83497
20
-2.45832
11
2.83641
21
-2.45942
0
LINE
8
BLACK
6
CONTINUOUS
10
2.77076
20
-2.22437
11
2.84577
21
-2.26767
0
LINE
8
BLACK
6
CONTINUOUS
10
2.84577
20
-2.26767
11
2.84687
21
-2.26911
0
LINE
8
BLACK
6
CONTINUOUS
10
2.84687
20
-2.26911
11
2.84664
21
-2.2709
0
LINE
8
BLACK
6
CONTINUOUS
10
2.84664
20
-2.2709
11
2.8452
21
-2.272
0
LINE
8
BLACK
6
CONTINUOUS
10
2.8452
20
-2.272
11
2.84341
21
-2.27176
0
LINE
8
BLACK
6
CONTINUOUS
10
2.84341
20
-2.27176
11
2.7684
21
-2.22846
0
LINE
8
BLACK
6
CONTINUOUS
10
2.7684
20
-2.22846
11
2.7673
21
-2.22702
0
LINE
8
BLACK
6
CONTINUOUS
10
2.7673
20
-2.22702
11
2.76754
21
-2.22523
0
LINE
8
BLACK
6
CONTINUOUS
10
2.76754
20
-2.22523
11
2.76897
21
-2.22413
0
LINE
8
BLACK
6
CONTINUOUS
10
2.76897
20
-2.22413
11
2.77076
21
-2.22437
0
LINE
8
BLACK
6
CONTINUOUS
10
3.52145
20
-2.23114
11
3.52168
21
-2.23293
0
LINE
8
BLACK
6
CONTINUOUS
10
3.52168
20
-2.23293
11
3.52058
21
-2.23436
0
LINE
8
BLACK
6
CONTINUOUS
10
3.52058
20
-2.23436
11
3.46603
21
-2.26586
0
LINE
8
BLACK
6
CONTINUOUS
10
3.46603
20
-2.26586
11
3.46424
21
-2.26609
0
LINE
8
BLACK
6
CONTINUOUS
10
3.46424
20
-2.26609
11
3.4628
21
-2.26499
0
LINE
8
BLACK
6
CONTINUOUS
10
3.4628
20
-2.26499
11
3.46257
21
-2.2632
0
LINE
8
BLACK
6
CONTINUOUS
10
3.46257
20
-2.2632
11
3.46367
21
-2.26177
0
LINE
8
BLACK
6
CONTINUOUS
10
3.46367
20
-2.26177
11
3.51822
21
-2.23027
0
LINE
8
BLACK
6
CONTINUOUS
10
3.51822
20
-2.23027
11
3.52001
21
-2.23003
0
LINE
8
BLACK
6
CONTINUOUS
10
3.52001
20
-2.23003
11
3.52145
21
-2.23114
0
LINE
8
BLACK
6
CONTINUOUS
10
3.55811
20
-2.26232
11
3.55888
21
-2.26232
0
LINE
8
BLACK
6
CONTINUOUS
10
3.55888
20
-2.26232
11
3.55908
21
-2.26249
0
LINE
8
BLACK
6
CONTINUOUS
10
3.55908
20
-2.26249
11
3.55935
21
-2.26254
0
LINE
8
BLACK
6
CONTINUOUS
10
3.55935
20
-2.26254
11
3.55984
21
-2.26312
0
LINE
8
BLACK
6
CONTINUOUS
10
3.55984
20
-2.26312
11
3.56043
21
-2.26362
0
LINE
8
BLACK
6
CONTINUOUS
10
3.56043
20
-2.26362
11
3.56418
21
-2.27011
0
LINE
8
BLACK
6
CONTINUOUS
10
3.56418
20
-2.27011
11
3.56448
21
-2.27094
0
LINE
8
BLACK
6
CONTINUOUS
10
3.56448
20
-2.27094
11
3.56451
21
-2.271
0
LINE
8
BLACK
6
CONTINUOUS
10
3.56451
20
-2.271
11
3.56546
21
-2.27564
0
LINE
8
BLACK
6
CONTINUOUS
10
3.56546
20
-2.27564
11
3.56549
21
-2.27667
0
LINE
8
BLACK
6
CONTINUOUS
10
3.56549
20
-2.27667
11
3.56541
21
-2.27682
0
LINE
8
BLACK
6
CONTINUOUS
10
3.56541
20
-2.27682
11
3.56542
21
-2.277
0
LINE
8
BLACK
6
CONTINUOUS
10
3.56542
20
-2.277
11
3.56432
21
-2.2811
0
LINE
8
BLACK
6
CONTINUOUS
10
3.56432
20
-2.2811
11
3.56395
21
-2.2819
0
LINE
8
BLACK
6
CONTINUOUS
10
3.56395
20
-2.2819
11
3.56394
21
-2.28196
0
LINE
8
BLACK
6
CONTINUOUS
10
3.56394
20
-2.28196
11
3.56209
21
-2.28476
0
LINE
8
BLACK
6
CONTINUOUS
10
3.56209
20
-2.28476
11
3.56174
21
-2.28513
0
LINE
8
BLACK
6
CONTINUOUS
10
3.56174
20
-2.28513
11
3.56168
21
-2.28525
0
LINE
8
BLACK
6
CONTINUOUS
10
3.56168
20
-2.28525
11
3.55723
21
-2.28955
0
LINE
8
BLACK
6
CONTINUOUS
10
3.55723
20
-2.28955
11
3.55674
21
-2.28988
0
LINE
8
BLACK
6
CONTINUOUS
10
3.55674
20
-2.28988
11
3.55666
21
-2.28999
0
LINE
8
BLACK
6
CONTINUOUS
10
3.55666
20
-2.28999
11
3.55276
21
-2.29224
0
LINE
8
BLACK
6
CONTINUOUS
10
3.55276
20
-2.29224
11
3.5522
21
-2.29244
0
LINE
8
BLACK
6
CONTINUOUS
10
3.5522
20
-2.29244
11
3.55209
21
-2.29252
0
LINE
8
BLACK
6
CONTINUOUS
10
3.55209
20
-2.29252
11
3.54615
21
-2.29422
0
LINE
8
BLACK
6
CONTINUOUS
10
3.54615
20
-2.29422
11
3.54564
21
-2.29427
0
LINE
8
BLACK
6
CONTINUOUS
10
3.54564
20
-2.29427
11
3.54551
21
-2.29433
0
LINE
8
BLACK
6
CONTINUOUS
10
3.54551
20
-2.29433
11
3.54217
21
-2.29453
0
LINE
8
BLACK
6
CONTINUOUS
10
3.54217
20
-2.29453
11
3.54129
21
-2.29443
0
LINE
8
BLACK
6
CONTINUOUS
10
3.54129
20
-2.29443
11
3.54122
21
-2.29443
0
LINE
8
BLACK
6
CONTINUOUS
10
3.54122
20
-2.29443
11
3.53713
21
-2.29333
0
LINE
8
BLACK
6
CONTINUOUS
10
3.53713
20
-2.29333
11
3.5362
21
-2.2929
0
LINE
8
BLACK
6
CONTINUOUS
10
3.5362
20
-2.2929
11
3.5361
21
-2.29276
0
LINE
8
BLACK
6
CONTINUOUS
10
3.5361
20
-2.29276
11
3.53593
21
-2.29269
0
LINE
8
BLACK
6
CONTINUOUS
10
3.53593
20
-2.29269
11
3.53238
21
-2.28954
0
LINE
8
BLACK
6
CONTINUOUS
10
3.53238
20
-2.28954
11
3.53184
21
-2.28885
0
LINE
8
BLACK
6
CONTINUOUS
10
3.53184
20
-2.28885
11
3.53179
21
-2.28881
0
LINE
8
BLACK
6
CONTINUOUS
10
3.53179
20
-2.28881
11
3.52804
21
-2.28232
0
LINE
8
BLACK
6
CONTINUOUS
10
3.52804
20
-2.28232
11
3.5279
21
-2.28195
0
LINE
8
BLACK
6
CONTINUOUS
10
3.5279
20
-2.28195
11
3.52782
21
-2.28185
0
LINE
8
BLACK
6
CONTINUOUS
10
3.52782
20
-2.28185
11
3.52782
21
-2.28172
0
LINE
8
BLACK
6
CONTINUOUS
10
3.52782
20
-2.28172
11
3.52769
21
-2.28135
0
LINE
8
BLACK
6
CONTINUOUS
10
3.52769
20
-2.28135
11
3.52782
21
-2.2806
0
LINE
8
BLACK
6
CONTINUOUS
10
3.52782
20
-2.2806
11
3.52782
21
-2.27983
0
LINE
8
BLACK
6
CONTINUOUS
10
3.52782
20
-2.27983
11
3.52799
21
-2.27963
0
LINE
8
BLACK
6
CONTINUOUS
10
3.52799
20
-2.27963
11
3.52804
21
-2.27936
0
LINE
8
BLACK
6
CONTINUOUS
10
3.52804
20
-2.27936
11
3.52862
21
-2.27887
0
LINE
8
BLACK
6
CONTINUOUS
10
3.52862
20
-2.27887
11
3.52912
21
-2.27828
0
LINE
8
BLACK
6
CONTINUOUS
10
3.52912
20
-2.27828
11
3.55639
21
-2.26254
0
LINE
8
BLACK
6
CONTINUOUS
10
3.55639
20
-2.26254
11
3.55676
21
-2.2624
0
LINE
8
BLACK
6
CONTINUOUS
10
3.55676
20
-2.2624
11
3.55686
21
-2.26232
0
LINE
8
BLACK
6
CONTINUOUS
10
3.55686
20
-2.26232
11
3.55699
21
-2.26232
0
LINE
8
BLACK
6
CONTINUOUS
10
3.55699
20
-2.26232
11
3.55736
21
-2.26218
0
LINE
8
BLACK
6
CONTINUOUS
10
3.55736
20
-2.26218
11
3.55811
21
-2.26232
0
LINE
8
BLACK
6
CONTINUOUS
10
3.53463
20
-2.28192
11
3.53666
21
-2.28544
0
LINE
8
BLACK
6
CONTINUOUS
10
3.53666
20
-2.28544
11
3.53933
21
-2.28781
0
LINE
8
BLACK
6
CONTINUOUS
10
3.53933
20
-2.28781
11
3.54229
21
-2.2886
0
LINE
8
BLACK
6
CONTINUOUS
10
3.54229
20
-2.2886
11
3.54484
21
-2.28845
0
LINE
8
BLACK
6
CONTINUOUS
10
3.54484
20
-2.28845
11
3.55012
21
-2.28694
0
LINE
8
BLACK
6
CONTINUOUS
10
3.55012
20
-2.28694
11
3.55339
21
-2.28505
0
LINE
8
BLACK
6
CONTINUOUS
10
3.55339
20
-2.28505
11
3.55734
21
-2.28123
0
LINE
8
BLACK
6
CONTINUOUS
10
3.55734
20
-2.28123
11
3.55874
21
-2.2791
0
LINE
8
BLACK
6
CONTINUOUS
10
3.55874
20
-2.2791
11
3.55954
21
-2.27614
0
LINE
8
BLACK
6
CONTINUOUS
10
3.55954
20
-2.27614
11
3.55882
21
-2.27265
0
LINE
8
BLACK
6
CONTINUOUS
10
3.55882
20
-2.27265
11
3.55679
21
-2.26913
0
LINE
8
BLACK
6
CONTINUOUS
10
3.55679
20
-2.26913
11
3.53463
21
-2.28192
0
LINE
8
BLACK
6
CONTINUOUS
10
3.57271
20
-2.29352
11
3.57315
21
-2.29363
0
LINE
8
BLACK
6
CONTINUOUS
10
3.57315
20
-2.29363
11
3.57328
21
-2.29361
0
LINE
8
BLACK
6
CONTINUOUS
10
3.57328
20
-2.29361
11
3.57533
21
-2.29416
0
LINE
8
BLACK
6
CONTINUOUS
10
3.57533
20
-2.29416
11
3.57613
21
-2.29454
0
LINE
8
BLACK
6
CONTINUOUS
10
3.57613
20
-2.29454
11
3.5762
21
-2.29455
0
LINE
8
BLACK
6
CONTINUOUS
10
3.5762
20
-2.29455
11
3.57899
21
-2.2964
0
LINE
8
BLACK
6
CONTINUOUS
10
3.57899
20
-2.2964
11
3.57974
21
-2.2971
0
LINE
8
BLACK
6
CONTINUOUS
10
3.57974
20
-2.2971
11
3.57979
21
-2.29727
0
LINE
8
BLACK
6
CONTINUOUS
10
3.57979
20
-2.29727
11
3.57992
21
-2.29739
0
LINE
8
BLACK
6
CONTINUOUS
10
3.57992
20
-2.29739
11
3.58292
21
-2.30258
0
LINE
8
BLACK
6
CONTINUOUS
10
3.58292
20
-2.30258
11
3.58327
21
-2.30355
0
LINE
8
BLACK
6
CONTINUOUS
10
3.58327
20
-2.30355
11
3.58292
21
-2.30554
0
LINE
8
BLACK
6
CONTINUOUS
10
3.58292
20
-2.30554
11
3.58138
21
-2.30683
0
LINE
8
BLACK
6
CONTINUOUS
10
3.58138
20
-2.30683
11
3.57936
21
-2.30683
0
LINE
8
BLACK
6
CONTINUOUS
10
3.57936
20
-2.30683
11
3.57781
21
-2.30554
0
LINE
8
BLACK
6
CONTINUOUS
10
3.57781
20
-2.30554
11
3.57516
21
-2.30094
0
LINE
8
BLACK
6
CONTINUOUS
10
3.57516
20
-2.30094
11
3.57334
21
-2.29974
0
LINE
8
BLACK
6
CONTINUOUS
10
3.57334
20
-2.29974
11
3.57204
21
-2.29939
0
LINE
8
BLACK
6
CONTINUOUS
10
3.57204
20
-2.29939
11
3.56744
21
-2.2991
0
LINE
8
BLACK
6
CONTINUOUS
10
3.56744
20
-2.2991
11
3.56646
21
-2.29938
0
LINE
8
BLACK
6
CONTINUOUS
10
3.56646
20
-2.29938
11
3.5671
21
-2.2998
0
LINE
8
BLACK
6
CONTINUOUS
10
3.5671
20
-2.2998
11
3.56785
21
-2.30051
0
LINE
8
BLACK
6
CONTINUOUS
10
3.56785
20
-2.30051
11
3.5679
21
-2.30068
0
LINE
8
BLACK
6
CONTINUOUS
10
3.5679
20
-2.30068
11
3.56803
21
-2.30079
0
LINE
8
BLACK
6
CONTINUOUS
10
3.56803
20
-2.30079
11
3.57103
21
-2.30598
0
LINE
8
BLACK
6
CONTINUOUS
10
3.57103
20
-2.30598
11
3.57138
21
-2.30695
0
LINE
8
BLACK
6
CONTINUOUS
10
3.57138
20
-2.30695
11
3.57135
21
-2.30712
0
LINE
8
BLACK
6
CONTINUOUS
10
3.57135
20
-2.30712
11
3.57142
21
-2.30728
0
LINE
8
BLACK
6
CONTINUOUS
10
3.57142
20
-2.30728
11
3.57162
21
-2.31063
0
LINE
8
BLACK
6
CONTINUOUS
10
3.57162
20
-2.31063
11
3.57152
21
-2.31151
0
LINE
8
BLACK
6
CONTINUOUS
10
3.57152
20
-2.31151
11
3.57153
21
-2.31157
0
LINE
8
BLACK
6
CONTINUOUS
10
3.57153
20
-2.31157
11
3.57098
21
-2.31362
0
LINE
8
BLACK
6
CONTINUOUS
10
3.57098
20
-2.31362
11
3.57061
21
-2.31442
0
LINE
8
BLACK
6
CONTINUOUS
10
3.57061
20
-2.31442
11
3.57059
21
-2.31448
0
LINE
8
BLACK
6
CONTINUOUS
10
3.57059
20
-2.31448
11
3.56874
21
-2.31728
0
LINE
8
BLACK
6
CONTINUOUS
10
3.56874
20
-2.31728
11
3.56804
21
-2.31803
0
LINE
8
BLACK
6
CONTINUOUS
10
3.56804
20
-2.31803
11
3.56787
21
-2.31808
0
LINE
8
BLACK
6
CONTINUOUS
10
3.56787
20
-2.31808
11
3.56776
21
-2.31821
0
LINE
8
BLACK
6
CONTINUOUS
10
3.56776
20
-2.31821
11
3.56126
21
-2.32196
0
LINE
8
BLACK
6
CONTINUOUS
10
3.56126
20
-2.32196
11
3.5603
21
-2.32231
0
LINE
8
BLACK
6
CONTINUOUS
10
3.5603
20
-2.32231
11
3.56012
21
-2.32228
0
LINE
8
BLACK
6
CONTINUOUS
10
3.56012
20
-2.32228
11
3.55996
21
-2.32235
0
LINE
8
BLACK
6
CONTINUOUS
10
3.55996
20
-2.32235
11
3.55662
21
-2.32255
0
LINE
8
BLACK
6
CONTINUOUS
10
3.55662
20
-2.32255
11
3.55574
21
-2.32245
0
LINE
8
BLACK
6
CONTINUOUS
10
3.55574
20
-2.32245
11
3.55567
21
-2.32246
0
LINE
8
BLACK
6
CONTINUOUS
10
3.55567
20
-2.32246
11
3.55363
21
-2.32191
0
LINE
8
BLACK
6
CONTINUOUS
10
3.55363
20
-2.32191
11
3.55283
21
-2.32154
0
LINE
8
BLACK
6
CONTINUOUS
10
3.55283
20
-2.32154
11
3.55276
21
-2.32152
0
LINE
8
BLACK
6
CONTINUOUS
10
3.55276
20
-2.32152
11
3.54996
21
-2.31967
0
LINE
8
BLACK
6
CONTINUOUS
10
3.54996
20
-2.31967
11
3.54922
21
-2.31897
0
LINE
8
BLACK
6
CONTINUOUS
10
3.54922
20
-2.31897
11
3.54917
21
-2.3188
0
LINE
8
BLACK
6
CONTINUOUS
10
3.54917
20
-2.3188
11
3.54903
21
-2.31869
0
LINE
8
BLACK
6
CONTINUOUS
10
3.54903
20
-2.31869
11
3.54603
21
-2.31349
0
LINE
8
BLACK
6
CONTINUOUS
10
3.54603
20
-2.31349
11
3.54568
21
-2.31253
0
LINE
8
BLACK
6
CONTINUOUS
10
3.54568
20
-2.31253
11
3.54571
21
-2.31235
0
LINE
8
BLACK
6
CONTINUOUS
10
3.54571
20
-2.31235
11
3.54564
21
-2.31219
0
LINE
8
BLACK
6
CONTINUOUS
10
3.54564
20
-2.31219
11
3.54544
21
-2.30884
0
LINE
8
BLACK
6
CONTINUOUS
10
3.54544
20
-2.30884
11
3.54554
21
-2.30797
0
LINE
8
BLACK
6
CONTINUOUS
10
3.54554
20
-2.30797
11
3.54554
21
-2.3079
0
LINE
8
BLACK
6
CONTINUOUS
10
3.54554
20
-2.3079
11
3.54609
21
-2.30585
0
LINE
8
BLACK
6
CONTINUOUS
10
3.54609
20
-2.30585
11
3.54646
21
-2.30505
0
LINE
8
BLACK
6
CONTINUOUS
10
3.54646
20
-2.30505
11
3.54647
21
-2.30499
0
LINE
8
BLACK
6
CONTINUOUS
10
3.54647
20
-2.30499
11
3.54832
21
-2.30219
0
LINE
8
BLACK
6
CONTINUOUS
10
3.54832
20
-2.30219
11
3.54903
21
-2.30145
0
LINE
8
BLACK
6
CONTINUOUS
10
3.54903
20
-2.30145
11
3.5492
21
-2.3014
0
LINE
8
BLACK
6
CONTINUOUS
10
3.5492
20
-2.3014
11
3.54931
21
-2.30126
0
LINE
8
BLACK
6
CONTINUOUS
10
3.54931
20
-2.30126
11
3.5597
21
-2.29526
0
LINE
8
BLACK
6
CONTINUOUS
10
3.5597
20
-2.29526
11
3.56026
21
-2.29506
0
LINE
8
BLACK
6
CONTINUOUS
10
3.56026
20
-2.29506
11
3.56037
21
-2.29498
0
LINE
8
BLACK
6
CONTINUOUS
10
3.56037
20
-2.29498
11
3.56631
21
-2.29328
0
LINE
8
BLACK
6
CONTINUOUS
10
3.56631
20
-2.29328
11
3.5673
21
-2.29318
0
LINE
8
BLACK
6
CONTINUOUS
10
3.5673
20
-2.29318
11
3.56731
21
-2.29317
0
LINE
8
BLACK
6
CONTINUOUS
10
3.56731
20
-2.29317
11
3.57271
21
-2.29352
0
LINE
8
BLACK
6
CONTINUOUS
10
3.55815
20
-2.30297
11
3.55287
21
-2.30603
0
LINE
8
BLACK
6
CONTINUOUS
10
3.55287
20
-2.30603
11
3.55167
21
-2.30784
0
LINE
8
BLACK
6
CONTINUOUS
10
3.55167
20
-2.30784
11
3.55137
21
-2.30897
0
LINE
8
BLACK
6
CONTINUOUS
10
3.55137
20
-2.30897
11
3.5515
21
-2.31114
0
LINE
8
BLACK
6
CONTINUOUS
10
3.5515
20
-2.31114
11
3.5538
21
-2.31513
0
LINE
8
BLACK
6
CONTINUOUS
10
3.5538
20
-2.31513
11
3.55562
21
-2.31633
0
LINE
8
BLACK
6
CONTINUOUS
10
3.55562
20
-2.31633
11
3.55674
21
-2.31663
0
LINE
8
BLACK
6
CONTINUOUS
10
3.55674
20
-2.31663
11
3.55891
21
-2.3165
0
LINE
8
BLACK
6
CONTINUOUS
10
3.55891
20
-2.3165
11
3.5642
21
-2.31345
0
LINE
8
BLACK
6
CONTINUOUS
10
3.5642
20
-2.31345
11
3.5654
21
-2.31163
0
LINE
8
BLACK
6
CONTINUOUS
10
3.5654
20
-2.31163
11
3.5657
21
-2.31051
0
LINE
8
BLACK
6
CONTINUOUS
10
3.5657
20
-2.31051
11
3.56557
21
-2.30833
0
LINE
8
BLACK
6
CONTINUOUS
10
3.56557
20
-2.30833
11
3.56327
21
-2.30435
0
LINE
8
BLACK
6
CONTINUOUS
10
3.56327
20
-2.30435
11
3.56145
21
-2.30315
0
LINE
8
BLACK
6
CONTINUOUS
10
3.56145
20
-2.30315
11
3.56033
21
-2.30284
0
LINE
8
BLACK
6
CONTINUOUS
10
3.56033
20
-2.30284
11
3.55815
21
-2.30297
0
LINE
8
BLACK
6
CONTINUOUS
10
3.4805
20
-2.13658
11
3.48073
21
-2.13837
0
LINE
8
BLACK
6
CONTINUOUS
10
3.48073
20
-2.13837
11
3.47963
21
-2.13981
0
LINE
8
BLACK
6
CONTINUOUS
10
3.47963
20
-2.13981
11
3.40462
21
-2.18312
0
LINE
8
BLACK
6
CONTINUOUS
10
3.40462
20
-2.18312
11
3.40283
21
-2.18335
0
LINE
8
BLACK
6
CONTINUOUS
10
3.40283
20
-2.18335
11
3.40139
21
-2.18225
0
LINE
8
BLACK
6
CONTINUOUS
10
3.40139
20
-2.18225
11
3.40116
21
-2.18046
0
LINE
8
BLACK
6
CONTINUOUS
10
3.40116
20
-2.18046
11
3.40226
21
-2.17902
0
LINE
8
BLACK
6
CONTINUOUS
10
3.40226
20
-2.17902
11
3.47727
21
-2.13572
0
LINE
8
BLACK
6
CONTINUOUS
10
3.47727
20
-2.13572
11
3.47906
21
-2.13548
0
LINE
8
BLACK
6
CONTINUOUS
10
3.47906
20
-2.13548
11
3.4805
21
-2.13658
0
LINE
8
BLACK
6
CONTINUOUS
10
2.83217
20
-2.14162
11
2.88673
21
-2.17312
0
LINE
8
BLACK
6
CONTINUOUS
10
2.88673
20
-2.17312
11
2.88783
21
-2.17455
0
LINE
8
BLACK
6
CONTINUOUS
10
2.88783
20
-2.17455
11
2.88759
21
-2.17635
0
LINE
8
BLACK
6
CONTINUOUS
10
2.88759
20
-2.17635
11
2.88616
21
-2.17745
0
LINE
8
BLACK
6
CONTINUOUS
10
2.88616
20
-2.17745
11
2.88436
21
-2.17721
0
LINE
8
BLACK
6
CONTINUOUS
10
2.88436
20
-2.17721
11
2.82981
21
-2.14571
0
LINE
8
BLACK
6
CONTINUOUS
10
2.82981
20
-2.14571
11
2.82871
21
-2.14428
0
LINE
8
BLACK
6
CONTINUOUS
10
2.82871
20
-2.14428
11
2.82895
21
-2.14249
0
LINE
8
BLACK
6
CONTINUOUS
10
2.82895
20
-2.14249
11
2.83038
21
-2.14139
0
LINE
8
BLACK
6
CONTINUOUS
10
2.83038
20
-2.14139
11
2.83217
21
-2.14162
0
LINE
8
BLACK
6
CONTINUOUS
10
2.85506
20
-2.08048
11
2.85556
21
-2.0806
0
LINE
8
BLACK
6
CONTINUOUS
10
2.85556
20
-2.0806
11
2.8557
21
-2.08059
0
LINE
8
BLACK
6
CONTINUOUS
10
2.8557
20
-2.08059
11
2.86164
21
-2.08229
0
LINE
8
BLACK
6
CONTINUOUS
10
2.86164
20
-2.08229
11
2.86217
21
-2.08255
0
LINE
8
BLACK
6
CONTINUOUS
10
2.86217
20
-2.08255
11
2.86231
21
-2.08257
0
LINE
8
BLACK
6
CONTINUOUS
10
2.86231
20
-2.08257
11
2.8662
21
-2.08482
0
LINE
8
BLACK
6
CONTINUOUS
10
2.8662
20
-2.08482
11
2.86666
21
-2.0852
0
LINE
8
BLACK
6
CONTINUOUS
10
2.86666
20
-2.0852
11
2.86678
21
-2.08526
0
LINE
8
BLACK
6
CONTINUOUS
10
2.86678
20
-2.08526
11
2.87123
21
-2.08955
0
LINE
8
BLACK
6
CONTINUOUS
10
2.87123
20
-2.08955
11
2.87153
21
-2.08997
0
LINE
8
BLACK
6
CONTINUOUS
10
2.87153
20
-2.08997
11
2.87164
21
-2.09005
0
LINE
8
BLACK
6
CONTINUOUS
10
2.87164
20
-2.09005
11
2.87349
21
-2.09285
0
LINE
8
BLACK
6
CONTINUOUS
10
2.87349
20
-2.09285
11
2.87384
21
-2.09366
0
LINE
8
BLACK
6
CONTINUOUS
10
2.87384
20
-2.09366
11
2.87387
21
-2.09371
0
LINE
8
BLACK
6
CONTINUOUS
10
2.87387
20
-2.09371
11
2.87497
21
-2.09781
0
LINE
8
BLACK
6
CONTINUOUS
10
2.87497
20
-2.09781
11
2.87506
21
-2.09883
0
LINE
8
BLACK
6
CONTINUOUS
10
2.87506
20
-2.09883
11
2.87499
21
-2.09899
0
LINE
8
BLACK
6
CONTINUOUS
10
2.87499
20
-2.09899
11
2.87501
21
-2.09917
0
LINE
8
BLACK
6
CONTINUOUS
10
2.87501
20
-2.09917
11
2.87406
21
-2.10381
0
LINE
8
BLACK
6
CONTINUOUS
10
2.87406
20
-2.10381
11
2.87374
21
-2.10463
0
LINE
8
BLACK
6
CONTINUOUS
10
2.87374
20
-2.10463
11
2.87373
21
-2.1047
0
LINE
8
BLACK
6
CONTINUOUS
10
2.87373
20
-2.1047
11
2.86998
21
-2.11119
0
LINE
8
BLACK
6
CONTINUOUS
10
2.86998
20
-2.11119
11
2.86973
21
-2.11149
0
LINE
8
BLACK
6
CONTINUOUS
10
2.86973
20
-2.11149
11
2.86968
21
-2.11161
0
LINE
8
BLACK
6
CONTINUOUS
10
2.86968
20
-2.11161
11
2.86957
21
-2.11168
0
LINE
8
BLACK
6
CONTINUOUS
10
2.86957
20
-2.11168
11
2.86932
21
-2.11198
0
LINE
8
BLACK
6
CONTINUOUS
10
2.86932
20
-2.11198
11
2.8686
21
-2.11224
0
LINE
8
BLACK
6
CONTINUOUS
10
2.8686
20
-2.11224
11
2.86793
21
-2.11262
0
LINE
8
BLACK
6
CONTINUOUS
10
2.86793
20
-2.11262
11
2.86767
21
-2.11258
0
LINE
8
BLACK
6
CONTINUOUS
10
2.86767
20
-2.11258
11
2.86742
21
-2.11267
0
LINE
8
BLACK
6
CONTINUOUS
10
2.86742
20
-2.11267
11
2.8667
21
-2.1124
0
LINE
8
BLACK
6
CONTINUOUS
10
2.8667
20
-2.1124
11
2.86594
21
-2.11227
0
LINE
8
BLACK
6
CONTINUOUS
10
2.86594
20
-2.11227
11
2.83867
21
-2.09652
0
LINE
8
BLACK
6
CONTINUOUS
10
2.83867
20
-2.09652
11
2.83837
21
-2.09627
0
LINE
8
BLACK
6
CONTINUOUS
10
2.83837
20
-2.09627
11
2.83825
21
-2.09623
0
LINE
8
BLACK
6
CONTINUOUS
10
2.83825
20
-2.09623
11
2.83818
21
-2.09611
0
LINE
8
BLACK
6
CONTINUOUS
10
2.83818
20
-2.09611
11
2.83788
21
-2.09586
0
LINE
8
BLACK
6
CONTINUOUS
10
2.83788
20
-2.09586
11
2.83762
21
-2.09514
0
LINE
8
BLACK
6
CONTINUOUS
10
2.83762
20
-2.09514
11
2.83724
21
-2.09448
0
LINE
8
BLACK
6
CONTINUOUS
10
2.83724
20
-2.09448
11
2.83728
21
-2.09422
0
LINE
8
BLACK
6
CONTINUOUS
10
2.83728
20
-2.09422
11
2.83719
21
-2.09397
0
LINE
8
BLACK
6
CONTINUOUS
10
2.83719
20
-2.09397
11
2.83745
21
-2.09325
0
LINE
8
BLACK
6
CONTINUOUS
10
2.83745
20
-2.09325
11
2.83759
21
-2.09249
0
LINE
8
BLACK
6
CONTINUOUS
10
2.83759
20
-2.09249
11
2.84134
21
-2.086
0
LINE
8
BLACK
6
CONTINUOUS
10
2.84134
20
-2.086
11
2.8419
21
-2.08532
0
LINE
8
BLACK
6
CONTINUOUS
10
2.8419
20
-2.08532
11
2.84193
21
-2.08526
0
LINE
8
BLACK
6
CONTINUOUS
10
2.84193
20
-2.08526
11
2.84548
21
-2.08212
0
LINE
8
BLACK
6
CONTINUOUS
10
2.84548
20
-2.08212
11
2.84636
21
-2.08158
0
LINE
8
BLACK
6
CONTINUOUS
10
2.84636
20
-2.08158
11
2.84653
21
-2.08157
0
LINE
8
BLACK
6
CONTINUOUS
10
2.84653
20
-2.08157
11
2.84668
21
-2.08147
0
LINE
8
BLACK
6
CONTINUOUS
10
2.84668
20
-2.08147
11
2.85077
21
-2.08037
0
LINE
8
BLACK
6
CONTINUOUS
10
2.85077
20
-2.08037
11
2.85165
21
-2.0803
0
LINE
8
BLACK
6
CONTINUOUS
10
2.85165
20
-2.0803
11
2.85172
21
-2.08028
0
LINE
8
BLACK
6
CONTINUOUS
10
2.85172
20
-2.08028
11
2.85506
21
-2.08048
0
LINE
8
BLACK
6
CONTINUOUS
10
2.84888
20
-2.087
11
2.84621
21
-2.08936
0
LINE
8
BLACK
6
CONTINUOUS
10
2.84621
20
-2.08936
11
2.84418
21
-2.09289
0
LINE
8
BLACK
6
CONTINUOUS
10
2.84418
20
-2.09289
11
2.86634
21
-2.10568
0
LINE
8
BLACK
6
CONTINUOUS
10
2.86634
20
-2.10568
11
2.86837
21
-2.10216
0
LINE
8
BLACK
6
CONTINUOUS
10
2.86837
20
-2.10216
11
2.86909
21
-2.09866
0
LINE
8
BLACK
6
CONTINUOUS
10
2.86909
20
-2.09866
11
2.86829
21
-2.0957
0
LINE
8
BLACK
6
CONTINUOUS
10
2.86829
20
-2.0957
11
2.86689
21
-2.09357
0
LINE
8
BLACK
6
CONTINUOUS
10
2.86689
20
-2.09357
11
2.86294
21
-2.08975
0
LINE
8
BLACK
6
CONTINUOUS
10
2.86294
20
-2.08975
11
2.85967
21
-2.08787
0
LINE
8
BLACK
6
CONTINUOUS
10
2.85967
20
-2.08787
11
2.85439
21
-2.08636
0
LINE
8
BLACK
6
CONTINUOUS
10
2.85439
20
-2.08636
11
2.85184
21
-2.0862
0
LINE
8
BLACK
6
CONTINUOUS
10
2.85184
20
-2.0862
11
2.84888
21
-2.087
0
LINE
8
BLACK
6
CONTINUOUS
10
2.87321
20
-2.05769
11
2.87974
21
-2.06146
0
LINE
8
BLACK
6
CONTINUOUS
10
2.87974
20
-2.06146
11
2.88052
21
-2.06013
0
LINE
8
BLACK
6
CONTINUOUS
10
2.88052
20
-2.06013
11
2.88118
21
-2.05934
0
LINE
8
BLACK
6
CONTINUOUS
10
2.88118
20
-2.05934
11
2.88307
21
-2.05865
0
LINE
8
BLACK
6
CONTINUOUS
10
2.88307
20
-2.05865
11
2.88497
21
-2.05934
0
LINE
8
BLACK
6
CONTINUOUS
10
2.88497
20
-2.05934
11
2.88598
21
-2.06109
0
LINE
8
BLACK
6
CONTINUOUS
10
2.88598
20
-2.06109
11
2.88563
21
-2.06308
0
LINE
8
BLACK
6
CONTINUOUS
10
2.88563
20
-2.06308
11
2.88486
21
-2.06442
0
LINE
8
BLACK
6
CONTINUOUS
10
2.88486
20
-2.06442
11
2.89139
21
-2.06819
0
LINE
8
BLACK
6
CONTINUOUS
10
2.89139
20
-2.06819
11
2.89218
21
-2.06885
0
LINE
8
BLACK
6
CONTINUOUS
10
2.89218
20
-2.06885
11
2.89287
21
-2.07075
0
LINE
8
BLACK
6
CONTINUOUS
10
2.89287
20
-2.07075
11
2.89218
21
-2.07265
0
LINE
8
BLACK
6
CONTINUOUS
10
2.89218
20
-2.07265
11
2.89043
21
-2.07366
0
LINE
8
BLACK
6
CONTINUOUS
10
2.89043
20
-2.07366
11
2.88844
21
-2.0733
0
LINE
8
BLACK
6
CONTINUOUS
10
2.88844
20
-2.0733
11
2.88191
21
-2.06953
0
LINE
8
BLACK
6
CONTINUOUS
10
2.88191
20
-2.06953
11
2.87588
21
-2.07996
0
LINE
8
BLACK
6
CONTINUOUS
10
2.87588
20
-2.07996
11
2.87522
21
-2.08075
0
LINE
8
BLACK
6
CONTINUOUS
10
2.87522
20
-2.08075
11
2.87501
21
-2.08083
0
LINE
8
BLACK
6
CONTINUOUS
10
2.87501
20
-2.08083
11
2.87487
21
-2.081
0
LINE
8
BLACK
6
CONTINUOUS
10
2.87487
20
-2.081
11
2.87408
21
-2.08116
0
LINE
8
BLACK
6
CONTINUOUS
10
2.87408
20
-2.08116
11
2.87333
21
-2.08144
0
LINE
8
BLACK
6
CONTINUOUS
10
2.87333
20
-2.08144
11
2.87311
21
-2.08136
0
LINE
8
BLACK
6
CONTINUOUS
10
2.87311
20
-2.08136
11
2.87289
21
-2.08141
0
LINE
8
BLACK
6
CONTINUOUS
10
2.87289
20
-2.08141
11
2.87218
21
-2.08102
0
LINE
8
BLACK
6
CONTINUOUS
10
2.87218
20
-2.08102
11
2.87143
21
-2.08075
0
LINE
8
BLACK
6
CONTINUOUS
10
2.87143
20
-2.08075
11
2.87131
21
-2.08055
0
LINE
8
BLACK
6
CONTINUOUS
10
2.87131
20
-2.08055
11
2.87112
21
-2.08045
0
LINE
8
BLACK
6
CONTINUOUS
10
2.87112
20
-2.08045
11
2.85538
21
-2.0627
0
LINE
8
BLACK
6
CONTINUOUS
10
2.85538
20
-2.0627
11
2.85485
21
-2.06183
0
LINE
8
BLACK
6
CONTINUOUS
10
2.85485
20
-2.06183
11
2.85479
21
-2.05981
0
LINE
8
BLACK
6
CONTINUOUS
10
2.85479
20
-2.05981
11
2.85605
21
-2.05823
0
LINE
8
BLACK
6
CONTINUOUS
10
2.85605
20
-2.05823
11
2.85802
21
-2.05782
0
LINE
8
BLACK
6
CONTINUOUS
10
2.85802
20
-2.05782
11
2.8598
21
-2.05879
0
LINE
8
BLACK
6
CONTINUOUS
10
2.8598
20
-2.05879
11
2.87282
21
-2.07346
0
LINE
8
BLACK
6
CONTINUOUS
10
2.87282
20
-2.07346
11
2.87679
21
-2.06658
0
LINE
8
BLACK
6
CONTINUOUS
10
2.87679
20
-2.06658
11
2.87026
21
-2.06281
0
LINE
8
BLACK
6
CONTINUOUS
10
2.87026
20
-2.06281
11
2.86947
21
-2.06215
0
LINE
8
BLACK
6
CONTINUOUS
10
2.86947
20
-2.06215
11
2.86878
21
-2.06025
0
LINE
8
BLACK
6
CONTINUOUS
10
2.86878
20
-2.06025
11
2.86947
21
-2.05835
0
LINE
8
BLACK
6
CONTINUOUS
10
2.86947
20
-2.05835
11
2.87122
21
-2.05734
0
LINE
8
BLACK
6
CONTINUOUS
10
2.87122
20
-2.05734
11
2.87321
21
-2.05769
0
LINE
8
BLACK
6
CONTINUOUS
10
3.1001
20
-1.9629
11
3.10079
21
-1.96457
0
LINE
8
BLACK
6
CONTINUOUS
10
3.10079
20
-1.96457
11
3.10079
21
-2.05118
0
LINE
8
BLACK
6
CONTINUOUS
10
3.10079
20
-2.05118
11
3.1001
21
-2.05285
0
LINE
8
BLACK
6
CONTINUOUS
10
3.1001
20
-2.05285
11
3.09843
21
-2.05354
0
LINE
8
BLACK
6
CONTINUOUS
10
3.09843
20
-2.05354
11
3.09675
21
-2.05285
0
LINE
8
BLACK
6
CONTINUOUS
10
3.09675
20
-2.05285
11
3.09606
21
-2.05118
0
LINE
8
BLACK
6
CONTINUOUS
10
3.09606
20
-2.05118
11
3.09606
21
-1.96457
0
LINE
8
BLACK
6
CONTINUOUS
10
3.09606
20
-1.96457
11
3.09675
21
-1.9629
0
LINE
8
BLACK
6
CONTINUOUS
10
3.09675
20
-1.9629
11
3.09843
21
-1.9622
0
LINE
8
BLACK
6
CONTINUOUS
10
3.09843
20
-1.9622
11
3.1001
21
-1.9629
0
LINE
8
BLACK
6
CONTINUOUS
10
3.20246
20
-1.97471
11
3.20315
21
-1.97638
0
LINE
8
BLACK
6
CONTINUOUS
10
3.20315
20
-1.97638
11
3.20315
21
-2.03937
0
LINE
8
BLACK
6
CONTINUOUS
10
3.20315
20
-2.03937
11
3.20246
21
-2.04104
0
LINE
8
BLACK
6
CONTINUOUS
10
3.20246
20
-2.04104
11
3.20079
21
-2.04173
0
LINE
8
BLACK
6
CONTINUOUS
10
3.20079
20
-2.04173
11
3.19912
21
-2.04104
0
LINE
8
BLACK
6
CONTINUOUS
10
3.19912
20
-2.04104
11
3.19843
21
-2.03937
0
LINE
8
BLACK
6
CONTINUOUS
10
3.19843
20
-2.03937
11
3.19843
21
-1.97638
0
LINE
8
BLACK
6
CONTINUOUS
10
3.19843
20
-1.97638
11
3.19912
21
-1.97471
0
LINE
8
BLACK
6
CONTINUOUS
10
3.19912
20
-1.97471
11
3.20079
21
-1.97402
0
LINE
8
BLACK
6
CONTINUOUS
10
3.20079
20
-1.97402
11
3.20246
21
-1.97471
0
LINE
8
BLACK
6
CONTINUOUS
10
3.25677
20
-1.95665
11
3.25684
21
-1.95665
0
LINE
8
BLACK
6
CONTINUOUS
10
3.25684
20
-1.95665
11
3.26134
21
-1.95815
0
LINE
8
BLACK
6
CONTINUOUS
10
3.26134
20
-1.95815
11
3.26224
21
-1.95864
0
LINE
8
BLACK
6
CONTINUOUS
10
3.26224
20
-1.95864
11
3.26233
21
-1.95879
0
LINE
8
BLACK
6
CONTINUOUS
10
3.26233
20
-1.95879
11
3.26249
21
-1.95886
0
LINE
8
BLACK
6
CONTINUOUS
10
3.26249
20
-1.95886
11
3.26549
21
-1.96186
0
LINE
8
BLACK
6
CONTINUOUS
10
3.26549
20
-1.96186
11
3.266
21
-1.96259
0
LINE
8
BLACK
6
CONTINUOUS
10
3.266
20
-1.96259
11
3.26605
21
-1.96263
0
LINE
8
BLACK
6
CONTINUOUS
10
3.26605
20
-1.96263
11
3.26755
21
-1.96563
0
LINE
8
BLACK
6
CONTINUOUS
10
3.26755
20
-1.96563
11
3.26769
21
-1.96612
0
LINE
8
BLACK
6
CONTINUOUS
10
3.26769
20
-1.96612
11
3.26777
21
-1.96624
0
LINE
8
BLACK
6
CONTINUOUS
10
3.26777
20
-1.96624
11
3.26927
21
-1.97223
0
LINE
8
BLACK
6
CONTINUOUS
10
3.26927
20
-1.97223
11
3.26931
21
-1.97282
0
LINE
8
BLACK
6
CONTINUOUS
10
3.26931
20
-1.97282
11
3.26936
21
-1.97295
0
LINE
8
BLACK
6
CONTINUOUS
10
3.26936
20
-1.97295
11
3.26936
21
-1.97745
0
LINE
8
BLACK
6
CONTINUOUS
10
3.26936
20
-1.97745
11
3.26925
21
-1.97803
0
LINE
8
BLACK
6
CONTINUOUS
10
3.26925
20
-1.97803
11
3.26927
21
-1.97817
0
LINE
8
BLACK
6
CONTINUOUS
10
3.26927
20
-1.97817
11
3.26777
21
-1.98417
0
LINE
8
BLACK
6
CONTINUOUS
10
3.26777
20
-1.98417
11
3.26756
21
-1.98463
0
LINE
8
BLACK
6
CONTINUOUS
10
3.26756
20
-1.98463
11
3.26755
21
-1.98477
0
LINE
8
BLACK
6
CONTINUOUS
10
3.26755
20
-1.98477
11
3.26605
21
-1.98777
0
LINE
8
BLACK
6
CONTINUOUS
10
3.26605
20
-1.98777
11
3.26552
21
-1.98848
0
LINE
8
BLACK
6
CONTINUOUS
10
3.26552
20
-1.98848
11
3.26549
21
-1.98854
0
LINE
8
BLACK
6
CONTINUOUS
10
3.26549
20
-1.98854
11
3.26249
21
-1.99154
0
LINE
8
BLACK
6
CONTINUOUS
10
3.26249
20
-1.99154
11
3.26165
21
-1.99212
0
LINE
8
BLACK
6
CONTINUOUS
10
3.26165
20
-1.99212
11
3.26148
21
-1.99214
0
LINE
8
BLACK
6
CONTINUOUS
10
3.26148
20
-1.99214
11
3.26134
21
-1.99225
0
LINE
8
BLACK
6
CONTINUOUS
10
3.26134
20
-1.99225
11
3.25684
21
-1.99375
0
LINE
8
BLACK
6
CONTINUOUS
10
3.25684
20
-1.99375
11
3.25597
21
-1.99388
0
LINE
8
BLACK
6
CONTINUOUS
10
3.25597
20
-1.99388
11
3.25591
21
-1.9939
0
LINE
8
BLACK
6
CONTINUOUS
10
3.25591
20
-1.9939
11
3.24841
21
-1.9939
0
LINE
8
BLACK
6
CONTINUOUS
10
3.24841
20
-1.9939
11
3.24802
21
-1.99383
0
LINE
8
BLACK
6
CONTINUOUS
10
3.24802
20
-1.99383
11
3.24789
21
-1.99386
0
LINE
8
BLACK
6
CONTINUOUS
10
3.24789
20
-1.99386
11
3.24778
21
-1.99379
0
LINE
8
BLACK
6
CONTINUOUS
10
3.24778
20
-1.99379
11
3.2474
21
-1.99372
0
LINE
8
BLACK
6
CONTINUOUS
10
3.2474
20
-1.99372
11
3.24681
21
-1.99323
0
LINE
8
BLACK
6
CONTINUOUS
10
3.24681
20
-1.99323
11
3.24614
21
-1.99285
0
LINE
8
BLACK
6
CONTINUOUS
10
3.24614
20
-1.99285
11
3.24605
21
-1.9926
0
LINE
8
BLACK
6
CONTINUOUS
10
3.24605
20
-1.9926
11
3.24585
21
-1.99242
0
LINE
8
BLACK
6
CONTINUOUS
10
3.24585
20
-1.99242
11
3.24572
21
-1.99167
0
LINE
8
BLACK
6
CONTINUOUS
10
3.24572
20
-1.99167
11
3.24545
21
-1.99095
0
LINE
8
BLACK
6
CONTINUOUS
10
3.24545
20
-1.99095
11
3.24545
21
-1.95945
0
LINE
8
BLACK
6
CONTINUOUS
10
3.24545
20
-1.95945
11
3.24552
21
-1.95907
0
LINE
8
BLACK
6
CONTINUOUS
10
3.24552
20
-1.95907
11
3.2455
21
-1.95894
0
LINE
8
BLACK
6
CONTINUOUS
10
3.2455
20
-1.95894
11
3.24556
21
-1.95883
0
LINE
8
BLACK
6
CONTINUOUS
10
3.24556
20
-1.95883
11
3.24563
21
-1.95844
0
LINE
8
BLACK
6
CONTINUOUS
10
3.24563
20
-1.95844
11
3.24612
21
-1.95785
0
LINE
8
BLACK
6
CONTINUOUS
10
3.24612
20
-1.95785
11
3.24651
21
-1.95719
0
LINE
8
BLACK
6
CONTINUOUS
10
3.24651
20
-1.95719
11
3.24676
21
-1.9571
0
LINE
8
BLACK
6
CONTINUOUS
10
3.24676
20
-1.9571
11
3.24693
21
-1.9569
0
LINE
8
BLACK
6
CONTINUOUS
10
3.24693
20
-1.9569
11
3.24769
21
-1.95676
0
LINE
8
BLACK
6
CONTINUOUS
10
3.24769
20
-1.95676
11
3.24841
21
-1.9565
0
LINE
8
BLACK
6
CONTINUOUS
10
3.24841
20
-1.9565
11
3.25591
21
-1.9565
0
LINE
8
BLACK
6
CONTINUOUS
10
3.25591
20
-1.9565
11
3.25677
21
-1.95665
0
LINE
8
BLACK
6
CONTINUOUS
10
3.25136
20
-1.988
11
3.25543
21
-1.988
0
LINE
8
BLACK
6
CONTINUOUS
10
3.25543
20
-1.988
11
3.25881
21
-1.98687
0
LINE
8
BLACK
6
CONTINUOUS
10
3.25881
20
-1.98687
11
3.26098
21
-1.9847
0
LINE
8
BLACK
6
CONTINUOUS
10
3.26098
20
-1.9847
11
3.26212
21
-1.98242
0
LINE
8
BLACK
6
CONTINUOUS
10
3.26212
20
-1.98242
11
3.26345
21
-1.97709
0
LINE
8
BLACK
6
CONTINUOUS
10
3.26345
20
-1.97709
11
3.26345
21
-1.97331
0
LINE
8
BLACK
6
CONTINUOUS
10
3.26345
20
-1.97331
11
3.26212
21
-1.96798
0
LINE
8
BLACK
6
CONTINUOUS
10
3.26212
20
-1.96798
11
3.26098
21
-1.9657
0
LINE
8
BLACK
6
CONTINUOUS
10
3.26098
20
-1.9657
11
3.25881
21
-1.96353
0
LINE
8
BLACK
6
CONTINUOUS
10
3.25881
20
-1.96353
11
3.25543
21
-1.96241
0
LINE
8
BLACK
6
CONTINUOUS
10
3.25543
20
-1.96241
11
3.25136
21
-1.96241
0
LINE
8
BLACK
6
CONTINUOUS
10
3.25136
20
-1.96241
11
3.25136
21
-1.988
0
LINE
8
BLACK
6
CONTINUOUS
10
3.29591
20
-1.95668
11
3.29746
21
-1.95798
0
LINE
8
BLACK
6
CONTINUOUS
10
3.29746
20
-1.95798
11
3.29781
21
-1.95997
0
LINE
8
BLACK
6
CONTINUOUS
10
3.29781
20
-1.95997
11
3.2968
21
-1.96171
0
LINE
8
BLACK
6
CONTINUOUS
10
3.2968
20
-1.96171
11
3.2949
21
-1.96241
0
LINE
8
BLACK
6
CONTINUOUS
10
3.2949
20
-1.96241
11
3.28257
21
-1.96241
0
LINE
8
BLACK
6
CONTINUOUS
10
3.28257
20
-1.96241
11
3.28195
21
-1.9687
0
LINE
8
BLACK
6
CONTINUOUS
10
3.28195
20
-1.9687
11
3.28256
21
-1.96852
0
LINE
8
BLACK
6
CONTINUOUS
10
3.28256
20
-1.96852
11
3.28274
21
-1.96856
0
LINE
8
BLACK
6
CONTINUOUS
10
3.28274
20
-1.96856
11
3.2829
21
-1.9685
0
LINE
8
BLACK
6
CONTINUOUS
10
3.2829
20
-1.9685
11
3.2904
21
-1.9685
0
LINE
8
BLACK
6
CONTINUOUS
10
3.2904
20
-1.9685
11
3.29141
21
-1.96868
0
LINE
8
BLACK
6
CONTINUOUS
10
3.29141
20
-1.96868
11
3.29155
21
-1.96879
0
LINE
8
BLACK
6
CONTINUOUS
10
3.29155
20
-1.96879
11
3.29172
21
-1.96881
0
LINE
8
BLACK
6
CONTINUOUS
10
3.29172
20
-1.96881
11
3.29472
21
-1.97031
0
LINE
8
BLACK
6
CONTINUOUS
10
3.29472
20
-1.97031
11
3.29543
21
-1.97084
0
LINE
8
BLACK
6
CONTINUOUS
10
3.29543
20
-1.97084
11
3.29549
21
-1.97086
0
LINE
8
BLACK
6
CONTINUOUS
10
3.29549
20
-1.97086
11
3.29699
21
-1.97236
0
LINE
8
BLACK
6
CONTINUOUS
10
3.29699
20
-1.97236
11
3.29749
21
-1.97309
0
LINE
8
BLACK
6
CONTINUOUS
10
3.29749
20
-1.97309
11
3.29754
21
-1.97313
0
LINE
8
BLACK
6
CONTINUOUS
10
3.29754
20
-1.97313
11
3.29904
21
-1.97613
0
LINE
8
BLACK
6
CONTINUOUS
10
3.29904
20
-1.97613
11
3.29933
21
-1.97711
0
LINE
8
BLACK
6
CONTINUOUS
10
3.29933
20
-1.97711
11
3.29929
21
-1.97728
0
LINE
8
BLACK
6
CONTINUOUS
10
3.29929
20
-1.97728
11
3.29935
21
-1.97745
0
LINE
8
BLACK
6
CONTINUOUS
10
3.29935
20
-1.97745
11
3.29935
21
-1.98495
0
LINE
8
BLACK
6
CONTINUOUS
10
3.29935
20
-1.98495
11
3.29918
21
-1.98596
0
LINE
8
BLACK
6
CONTINUOUS
10
3.29918
20
-1.98596
11
3.29906
21
-1.98609
0
LINE
8
BLACK
6
CONTINUOUS
10
3.29906
20
-1.98609
11
3.29904
21
-1.98627
0
LINE
8
BLACK
6
CONTINUOUS
10
3.29904
20
-1.98627
11
3.29754
21
-1.98927
0
LINE
8
BLACK
6
CONTINUOUS
10
3.29754
20
-1.98927
11
3.29702
21
-1.98998
0
LINE
8
BLACK
6
CONTINUOUS
10
3.29702
20
-1.98998
11
3.29699
21
-1.99004
0
LINE
8
BLACK
6
CONTINUOUS
10
3.29699
20
-1.99004
11
3.29549
21
-1.99154
0
LINE
8
BLACK
6
CONTINUOUS
10
3.29549
20
-1.99154
11
3.29477
21
-1.99204
0
LINE
8
BLACK
6
CONTINUOUS
10
3.29477
20
-1.99204
11
3.29472
21
-1.99209
0
LINE
8
BLACK
6
CONTINUOUS
10
3.29472
20
-1.99209
11
3.29172
21
-1.99359
0
LINE
8
BLACK
6
CONTINUOUS
10
3.29172
20
-1.99359
11
3.29074
21
-1.99388
0
LINE
8
BLACK
6
CONTINUOUS
10
3.29074
20
-1.99388
11
3.29057
21
-1.99384
0
LINE
8
BLACK
6
CONTINUOUS
10
3.29057
20
-1.99384
11
3.2904
21
-1.9939
0
LINE
8
BLACK
6
CONTINUOUS
10
3.2904
20
-1.9939
11
3.2829
21
-1.9939
0
LINE
8
BLACK
6
CONTINUOUS
10
3.2829
20
-1.9939
11
3.28189
21
-1.99372
0
LINE
8
BLACK
6
CONTINUOUS
10
3.28189
20
-1.99372
11
3.28176
21
-1.99361
0
LINE
8
BLACK
6
CONTINUOUS
10
3.28176
20
-1.99361
11
3.28158
21
-1.99359
0
LINE
8
BLACK
6
CONTINUOUS
10
3.28158
20
-1.99359
11
3.27858
21
-1.99209
0
LINE
8
BLACK
6
CONTINUOUS
10
3.27858
20
-1.99209
11
3.27787
21
-1.99156
0
LINE
8
BLACK
6
CONTINUOUS
10
3.27787
20
-1.99156
11
3.27781
21
-1.99154
0
LINE
8
BLACK
6
CONTINUOUS
10
3.27781
20
-1.99154
11
3.27631
21
-1.99004
0
LINE
8
BLACK
6
CONTINUOUS
10
3.27631
20
-1.99004
11
3.27573
21
-1.9892
0
LINE
8
BLACK
6
CONTINUOUS
10
3.27573
20
-1.9892
11
3.27555
21
-1.98718
0
LINE
8
BLACK
6
CONTINUOUS
10
3.27555
20
-1.98718
11
3.27671
21
-1.98553
0
LINE
8
BLACK
6
CONTINUOUS
10
3.27671
20
-1.98553
11
3.27866
21
-1.98501
0
LINE
8
BLACK
6
CONTINUOUS
10
3.27866
20
-1.98501
11
3.28049
21
-1.98586
0
LINE
8
BLACK
6
CONTINUOUS
10
3.28049
20
-1.98586
11
3.28165
21
-1.98702
0
LINE
8
BLACK
6
CONTINUOUS
10
3.28165
20
-1.98702
11
3.2836
21
-1.988
0
LINE
8
BLACK
6
CONTINUOUS
10
3.2836
20
-1.988
11
3.2897
21
-1.988
0
LINE
8
BLACK
6
CONTINUOUS
10
3.2897
20
-1.988
11
3.29165
21
-1.98702
0
LINE
8
BLACK
6
CONTINUOUS
10
3.29165
20
-1.98702
11
3.29247
21
-1.9862
0
LINE
8
BLACK
6
CONTINUOUS
10
3.29247
20
-1.9862
11
3.29345
21
-1.98425
0
LINE
8
BLACK
6
CONTINUOUS
10
3.29345
20
-1.98425
11
3.29345
21
-1.97815
0
LINE
8
BLACK
6
CONTINUOUS
10
3.29345
20
-1.97815
11
3.29247
21
-1.9762
0
LINE
8
BLACK
6
CONTINUOUS
10
3.29247
20
-1.9762
11
3.29165
21
-1.97538
0
LINE
8
BLACK
6
CONTINUOUS
10
3.29165
20
-1.97538
11
3.2897
21
-1.9744
0
LINE
8
BLACK
6
CONTINUOUS
10
3.2897
20
-1.9744
11
3.2836
21
-1.9744
0
LINE
8
BLACK
6
CONTINUOUS
10
3.2836
20
-1.9744
11
3.28165
21
-1.97538
0
LINE
8
BLACK
6
CONTINUOUS
10
3.28165
20
-1.97538
11
3.28049
21
-1.97654
0
LINE
8
BLACK
6
CONTINUOUS
10
3.28049
20
-1.97654
11
3.27965
21
-1.97713
0
LINE
8
BLACK
6
CONTINUOUS
10
3.27965
20
-1.97713
11
3.27963
21
-1.97713
0
LINE
8
BLACK
6
CONTINUOUS
10
3.27963
20
-1.97713
11
3.27962
21
-1.97714
0
LINE
8
BLACK
6
CONTINUOUS
10
3.27962
20
-1.97714
11
3.27863
21
-1.97722
0
LINE
8
BLACK
6
CONTINUOUS
10
3.27863
20
-1.97722
11
3.27764
21
-1.9773
0
LINE
8
BLACK
6
CONTINUOUS
10
3.27764
20
-1.9773
11
3.27762
21
-1.97729
0
LINE
8
BLACK
6
CONTINUOUS
10
3.27762
20
-1.97729
11
3.2776
21
-1.97729
0
LINE
8
BLACK
6
CONTINUOUS
10
3.2776
20
-1.97729
11
3.2768
21
-1.97671
0
LINE
8
BLACK
6
CONTINUOUS
10
3.2768
20
-1.97671
11
3.27598
21
-1.97614
0
LINE
8
BLACK
6
CONTINUOUS
10
3.27598
20
-1.97614
11
3.27598
21
-1.97613
0
LINE
8
BLACK
6
CONTINUOUS
10
3.27598
20
-1.97613
11
3.27596
21
-1.97611
0
LINE
8
BLACK
6
CONTINUOUS
10
3.27596
20
-1.97611
11
3.27572
21
-1.97515
0
LINE
8
BLACK
6
CONTINUOUS
10
3.27572
20
-1.97515
11
3.27546
21
-1.97419
0
LINE
8
BLACK
6
CONTINUOUS
10
3.27546
20
-1.97419
11
3.27547
21
-1.97418
0
LINE
8
BLACK
6
CONTINUOUS
10
3.27547
20
-1.97418
11
3.27546
21
-1.97416
0
LINE
8
BLACK
6
CONTINUOUS
10
3.27546
20
-1.97416
11
3.27696
21
-1.95916
0
LINE
8
BLACK
6
CONTINUOUS
10
3.27696
20
-1.95916
11
3.27701
21
-1.95901
0
LINE
8
BLACK
6
CONTINUOUS
10
3.27701
20
-1.95901
11
3.27699
21
-1.95894
0
LINE
8
BLACK
6
CONTINUOUS
10
3.27699
20
-1.95894
11
3.27706
21
-1.95883
0
LINE
8
BLACK
6
CONTINUOUS
10
3.27706
20
-1.95883
11
3.27724
21
-1.95817
0
LINE
8
BLACK
6
CONTINUOUS
10
3.27724
20
-1.95817
11
3.27769
21
-1.95773
0
LINE
8
BLACK
6
CONTINUOUS
10
3.27769
20
-1.95773
11
3.278
21
-1.95719
0
LINE
8
BLACK
6
CONTINUOUS
10
3.278
20
-1.95719
11
3.27839
21
-1.95705
0
LINE
8
BLACK
6
CONTINUOUS
10
3.27839
20
-1.95705
11
3.27869
21
-1.95676
0
LINE
8
BLACK
6
CONTINUOUS
10
3.27869
20
-1.95676
11
3.27931
21
-1.95671
0
LINE
8
BLACK
6
CONTINUOUS
10
3.27931
20
-1.95671
11
3.2799
21
-1.9565
0
LINE
8
BLACK
6
CONTINUOUS
10
3.2799
20
-1.9565
11
3.2949
21
-1.9565
0
LINE
8
BLACK
6
CONTINUOUS
10
3.2949
20
-1.9565
11
3.29591
21
-1.95668
  0
ENDSEC
  0
EOF
