  0
SECTION
  2
HEADER
  9
$ANGBASE
  50
0.0
  9
$ANGDIR
  70
1
  9
$MEASUREMENT
  70
0
  0
ENDSEC
  0
SECTION
  2
TABLES
  0
TABLE
  2
LTYPE
  70
4
  0
LTYPE
  5
40F
  2
CONTINUOUS
  70
0
  3
Solid line
  72
65
  73
0
  40
0.0
  0
LTYPE
  5
410
  2
DASHDOT
 70
0
  3
Dash Dot ____ _ ____ _
 72
65
 73
4
 40
2.0
 49
1.25
 49
-0.25
 49
0.25
 49
-0.25
  0
LTYPE
  5
411
  2
DASHED
 70
0
  3
Dashed __ __ __ __ __
 72
65
 73
2
 40
0.75
 49
0.5
 49
-0.25
  0
LTYPE
  5
43B
  2
DOTTED
 70
0
  3
Dotted .  .  .  .
 72
65
 73
2
 40
0.2
 49
0.0
 49
-0.2
  0
ENDTAB
  0
TABLE
  2
STYLE
  70
4
  0
STYLE
  2
KICAD
  70
0
  40
0
  41
1
  42
1
  50
0
  71
0
  3
isocp.shx
  0
STYLE
  2
KICADB
  70
0
  40
0
  41
1
  42
1
  50
0
  71
0
  3
isocp.shx
  0
STYLE
  2
KICADI
  70
0
  40
0
  41
1
  42
1
  50
15
  71
0
  3
isocp.shx
  0
STYLE
  2
KICADBI
  70
0
  40
0
  41
1
  42
1
  50
15
  71
0
  3
isocp.shx
  0
ENDTAB
  0
TABLE
  2
LAYER
  70
1
  0
LAYER
  2
BLACK
  70
0
  62
7
  6
CONTINUOUS
  0
ENDTAB
  0
ENDSEC
  0
SECTION
  2
ENTITIES
0
LINE
8
BLACK
6
CONTINUOUS
10
3.47441
20
-2.81496
11
3.36614
21
-2.81496
0
LINE
8
BLACK
6
CONTINUOUS
10
3.36614
20
-2.81496
11
3.36614
21
-2.77559
0
LINE
8
BLACK
6
CONTINUOUS
10
3.36614
20
-2.77559
11
3.47441
21
-2.77559
0
LINE
8
BLACK
6
CONTINUOUS
10
3.47441
20
-2.77559
11
3.47441
21
-2.81496
0
LINE
8
BLACK
6
CONTINUOUS
10
3.72047
20
-2.81496
11
3.6122
21
-2.81496
0
LINE
8
BLACK
6
CONTINUOUS
10
3.6122
20
-2.81496
11
3.6122
21
-2.77559
0
LINE
8
BLACK
6
CONTINUOUS
10
3.6122
20
-2.77559
11
3.72047
21
-2.77559
0
LINE
8
BLACK
6
CONTINUOUS
10
3.72047
20
-2.77559
11
3.72047
21
-2.81496
0
LINE
8
BLACK
6
CONTINUOUS
10
3.47441
20
-2.73622
11
3.36614
21
-2.73622
0
LINE
8
BLACK
6
CONTINUOUS
10
3.36614
20
-2.73622
11
3.36614
21
-2.69685
0
LINE
8
BLACK
6
CONTINUOUS
10
3.36614
20
-2.69685
11
3.47441
21
-2.69685
0
LINE
8
BLACK
6
CONTINUOUS
10
3.47441
20
-2.69685
11
3.47441
21
-2.73622
0
LINE
8
BLACK
6
CONTINUOUS
10
3.72047
20
-2.73622
11
3.6122
21
-2.73622
0
LINE
8
BLACK
6
CONTINUOUS
10
3.6122
20
-2.73622
11
3.6122
21
-2.69685
0
LINE
8
BLACK
6
CONTINUOUS
10
3.6122
20
-2.69685
11
3.72047
21
-2.69685
0
LINE
8
BLACK
6
CONTINUOUS
10
3.72047
20
-2.69685
11
3.72047
21
-2.73622
0
LINE
8
BLACK
6
CONTINUOUS
10
3.52362
20
-2.53937
11
3.48425
21
-2.53937
0
LINE
8
BLACK
6
CONTINUOUS
10
3.48425
20
-2.53937
11
3.48425
21
-2.4311
0
LINE
8
BLACK
6
CONTINUOUS
10
3.48425
20
-2.4311
11
3.52362
21
-2.4311
0
LINE
8
BLACK
6
CONTINUOUS
10
3.52362
20
-2.4311
11
3.52362
21
-2.53937
0
LINE
8
BLACK
6
CONTINUOUS
10
3.60236
20
-2.53937
11
3.56299
21
-2.53937
0
LINE
8
BLACK
6
CONTINUOUS
10
3.56299
20
-2.53937
11
3.56299
21
-2.4311
0
LINE
8
BLACK
6
CONTINUOUS
10
3.56299
20
-2.4311
11
3.60236
21
-2.4311
0
LINE
8
BLACK
6
CONTINUOUS
10
3.60236
20
-2.4311
11
3.60236
21
-2.53937
0
LINE
8
BLACK
6
CONTINUOUS
10
3.52362
20
-2.29331
11
3.48425
21
-2.29331
0
LINE
8
BLACK
6
CONTINUOUS
10
3.48425
20
-2.29331
11
3.48425
21
-2.18504
0
LINE
8
BLACK
6
CONTINUOUS
10
3.48425
20
-2.18504
11
3.52362
21
-2.18504
0
LINE
8
BLACK
6
CONTINUOUS
10
3.52362
20
-2.18504
11
3.52362
21
-2.29331
0
LINE
8
BLACK
6
CONTINUOUS
10
3.60236
20
-2.29331
11
3.56299
21
-2.29331
0
LINE
8
BLACK
6
CONTINUOUS
10
3.56299
20
-2.29331
11
3.56299
21
-2.18504
0
LINE
8
BLACK
6
CONTINUOUS
10
3.56299
20
-2.18504
11
3.60236
21
-2.18504
0
LINE
8
BLACK
6
CONTINUOUS
10
3.60236
20
-2.18504
11
3.60236
21
-2.29331
  0
ENDSEC
  0
EOF
