  0
SECTION
  2
HEADER
  9
$ANGBASE
  50
0.0
  9
$ANGDIR
  70
1
  9
$MEASUREMENT
  70
0
  0
ENDSEC
  0
SECTION
  2
TABLES
  0
TABLE
  2
LTYPE
  70
4
  0
LTYPE
  5
40F
  2
CONTINUOUS
  70
0
  3
Solid line
  72
65
  73
0
  40
0.0
  0
LTYPE
  5
410
  2
DASHDOT
 70
0
  3
Dash Dot ____ _ ____ _
 72
65
 73
4
 40
2.0
 49
1.25
 49
-0.25
 49
0.25
 49
-0.25
  0
LTYPE
  5
411
  2
DASHED
 70
0
  3
Dashed __ __ __ __ __
 72
65
 73
2
 40
0.75
 49
0.5
 49
-0.25
  0
LTYPE
  5
43B
  2
DOTTED
 70
0
  3
Dotted .  .  .  .
 72
65
 73
2
 40
0.2
 49
0.0
 49
-0.2
  0
ENDTAB
  0
TABLE
  2
STYLE
  70
4
  0
STYLE
  2
KICAD
  70
0
  40
0
  41
1
  42
1
  50
0
  71
0
  3
isocp.shx
  0
STYLE
  2
KICADB
  70
0
  40
0
  41
1
  42
1
  50
0
  71
0
  3
isocp.shx
  0
STYLE
  2
KICADI
  70
0
  40
0
  41
1
  42
1
  50
15
  71
0
  3
isocp.shx
  0
STYLE
  2
KICADBI
  70
0
  40
0
  41
1
  42
1
  50
15
  71
0
  3
isocp.shx
  0
ENDTAB
  0
TABLE
  2
LAYER
  70
1
  0
LAYER
  2
BLACK
  70
0
  62
7
  6
CONTINUOUS
  0
ENDTAB
  0
ENDSEC
  0
SECTION
  2
ENTITIES
0
LINE
8
BLACK
6
CONTINUOUS
10
2.76776
20
-2.71425
11
2.77521
21
-2.71714
0
LINE
8
BLACK
6
CONTINUOUS
10
2.77521
20
-2.71714
11
2.782
21
-2.72135
0
LINE
8
BLACK
6
CONTINUOUS
10
2.782
20
-2.72135
11
2.78791
21
-2.72673
0
LINE
8
BLACK
6
CONTINUOUS
10
2.78791
20
-2.72673
11
2.79273
21
-2.73311
0
LINE
8
BLACK
6
CONTINUOUS
10
2.79273
20
-2.73311
11
2.79629
21
-2.74026
0
LINE
8
BLACK
6
CONTINUOUS
10
2.79629
20
-2.74026
11
2.79848
21
-2.74795
0
LINE
8
BLACK
6
CONTINUOUS
10
2.79848
20
-2.74795
11
2.79921
21
-2.75591
0
LINE
8
BLACK
6
CONTINUOUS
10
2.79921
20
-2.75591
11
2.79848
21
-2.76386
0
LINE
8
BLACK
6
CONTINUOUS
10
2.79848
20
-2.76386
11
2.79629
21
-2.77155
0
LINE
8
BLACK
6
CONTINUOUS
10
2.79629
20
-2.77155
11
2.79273
21
-2.7787
0
LINE
8
BLACK
6
CONTINUOUS
10
2.79273
20
-2.7787
11
2.78791
21
-2.78508
0
LINE
8
BLACK
6
CONTINUOUS
10
2.78791
20
-2.78508
11
2.782
21
-2.79047
0
LINE
8
BLACK
6
CONTINUOUS
10
2.782
20
-2.79047
11
2.77521
21
-2.79467
0
LINE
8
BLACK
6
CONTINUOUS
10
2.77521
20
-2.79467
11
2.76776
21
-2.79756
0
LINE
8
BLACK
6
CONTINUOUS
10
2.76776
20
-2.79756
11
2.7599
21
-2.79903
0
LINE
8
BLACK
6
CONTINUOUS
10
2.7599
20
-2.79903
11
2.75191
21
-2.79903
0
LINE
8
BLACK
6
CONTINUOUS
10
2.75191
20
-2.79903
11
2.74405
21
-2.79756
0
LINE
8
BLACK
6
CONTINUOUS
10
2.74405
20
-2.79756
11
2.7366
21
-2.79467
0
LINE
8
BLACK
6
CONTINUOUS
10
2.7366
20
-2.79467
11
2.72981
21
-2.79047
0
LINE
8
BLACK
6
CONTINUOUS
10
2.72981
20
-2.79047
11
2.7239
21
-2.78508
0
LINE
8
BLACK
6
CONTINUOUS
10
2.7239
20
-2.78508
11
2.71909
21
-2.7787
0
LINE
8
BLACK
6
CONTINUOUS
10
2.71909
20
-2.7787
11
2.71552
21
-2.77155
0
LINE
8
BLACK
6
CONTINUOUS
10
2.71552
20
-2.77155
11
2.71334
21
-2.76386
0
LINE
8
BLACK
6
CONTINUOUS
10
2.71334
20
-2.76386
11
2.7126
21
-2.75591
0
LINE
8
BLACK
6
CONTINUOUS
10
2.7126
20
-2.75591
11
2.71334
21
-2.74795
0
LINE
8
BLACK
6
CONTINUOUS
10
2.71334
20
-2.74795
11
2.71552
21
-2.74026
0
LINE
8
BLACK
6
CONTINUOUS
10
2.71552
20
-2.74026
11
2.71909
21
-2.73311
0
LINE
8
BLACK
6
CONTINUOUS
10
2.71909
20
-2.73311
11
2.7239
21
-2.72673
0
LINE
8
BLACK
6
CONTINUOUS
10
2.7239
20
-2.72673
11
2.72981
21
-2.72135
0
LINE
8
BLACK
6
CONTINUOUS
10
2.72981
20
-2.72135
11
2.7366
21
-2.71714
0
LINE
8
BLACK
6
CONTINUOUS
10
2.7366
20
-2.71714
11
2.74405
21
-2.71425
0
LINE
8
BLACK
6
CONTINUOUS
10
2.74405
20
-2.71425
11
2.75191
21
-2.71278
0
LINE
8
BLACK
6
CONTINUOUS
10
2.75191
20
-2.71278
11
2.7599
21
-2.71278
0
LINE
8
BLACK
6
CONTINUOUS
10
2.7599
20
-2.71278
11
2.76776
21
-2.71425
0
LINE
8
BLACK
6
CONTINUOUS
10
3.3563
20
-2.79528
11
3.24803
21
-2.79528
0
LINE
8
BLACK
6
CONTINUOUS
10
3.24803
20
-2.79528
11
3.24803
21
-2.75591
0
LINE
8
BLACK
6
CONTINUOUS
10
3.24803
20
-2.75591
11
3.3563
21
-2.75591
0
LINE
8
BLACK
6
CONTINUOUS
10
3.3563
20
-2.75591
11
3.3563
21
-2.79528
0
LINE
8
BLACK
6
CONTINUOUS
10
3.60236
20
-2.79528
11
3.49409
21
-2.79528
0
LINE
8
BLACK
6
CONTINUOUS
10
3.49409
20
-2.79528
11
3.49409
21
-2.75591
0
LINE
8
BLACK
6
CONTINUOUS
10
3.49409
20
-2.75591
11
3.60236
21
-2.75591
0
LINE
8
BLACK
6
CONTINUOUS
10
3.60236
20
-2.75591
11
3.60236
21
-2.79528
0
LINE
8
BLACK
6
CONTINUOUS
10
3.3563
20
-2.71654
11
3.24803
21
-2.71654
0
LINE
8
BLACK
6
CONTINUOUS
10
3.24803
20
-2.71654
11
3.24803
21
-2.67717
0
LINE
8
BLACK
6
CONTINUOUS
10
3.24803
20
-2.67717
11
3.3563
21
-2.67717
0
LINE
8
BLACK
6
CONTINUOUS
10
3.3563
20
-2.67717
11
3.3563
21
-2.71654
0
LINE
8
BLACK
6
CONTINUOUS
10
3.60236
20
-2.71654
11
3.49409
21
-2.71654
0
LINE
8
BLACK
6
CONTINUOUS
10
3.49409
20
-2.71654
11
3.49409
21
-2.67717
0
LINE
8
BLACK
6
CONTINUOUS
10
3.49409
20
-2.67717
11
3.60236
21
-2.67717
0
LINE
8
BLACK
6
CONTINUOUS
10
3.60236
20
-2.67717
11
3.60236
21
-2.71654
0
LINE
8
BLACK
6
CONTINUOUS
10
3.52362
20
-2.53937
11
3.48425
21
-2.53937
0
LINE
8
BLACK
6
CONTINUOUS
10
3.48425
20
-2.53937
11
3.48425
21
-2.4311
0
LINE
8
BLACK
6
CONTINUOUS
10
3.48425
20
-2.4311
11
3.52362
21
-2.4311
0
LINE
8
BLACK
6
CONTINUOUS
10
3.52362
20
-2.4311
11
3.52362
21
-2.53937
0
LINE
8
BLACK
6
CONTINUOUS
10
3.60236
20
-2.53937
11
3.56299
21
-2.53937
0
LINE
8
BLACK
6
CONTINUOUS
10
3.56299
20
-2.53937
11
3.56299
21
-2.4311
0
LINE
8
BLACK
6
CONTINUOUS
10
3.56299
20
-2.4311
11
3.60236
21
-2.4311
0
LINE
8
BLACK
6
CONTINUOUS
10
3.60236
20
-2.4311
11
3.60236
21
-2.53937
0
LINE
8
BLACK
6
CONTINUOUS
10
3.52362
20
-2.29331
11
3.48425
21
-2.29331
0
LINE
8
BLACK
6
CONTINUOUS
10
3.48425
20
-2.29331
11
3.48425
21
-2.18504
0
LINE
8
BLACK
6
CONTINUOUS
10
3.48425
20
-2.18504
11
3.52362
21
-2.18504
0
LINE
8
BLACK
6
CONTINUOUS
10
3.52362
20
-2.18504
11
3.52362
21
-2.29331
0
LINE
8
BLACK
6
CONTINUOUS
10
3.60236
20
-2.29331
11
3.56299
21
-2.29331
0
LINE
8
BLACK
6
CONTINUOUS
10
3.56299
20
-2.29331
11
3.56299
21
-2.18504
0
LINE
8
BLACK
6
CONTINUOUS
10
3.56299
20
-2.18504
11
3.60236
21
-2.18504
0
LINE
8
BLACK
6
CONTINUOUS
10
3.60236
20
-2.18504
11
3.60236
21
-2.29331
0
LINE
8
BLACK
6
CONTINUOUS
10
2.76776
20
-1.92685
11
2.77521
21
-1.92974
0
LINE
8
BLACK
6
CONTINUOUS
10
2.77521
20
-1.92974
11
2.782
21
-1.93394
0
LINE
8
BLACK
6
CONTINUOUS
10
2.782
20
-1.93394
11
2.78791
21
-1.93933
0
LINE
8
BLACK
6
CONTINUOUS
10
2.78791
20
-1.93933
11
2.79273
21
-1.94571
0
LINE
8
BLACK
6
CONTINUOUS
10
2.79273
20
-1.94571
11
2.79629
21
-1.95286
0
LINE
8
BLACK
6
CONTINUOUS
10
2.79629
20
-1.95286
11
2.79848
21
-1.96055
0
LINE
8
BLACK
6
CONTINUOUS
10
2.79848
20
-1.96055
11
2.79921
21
-1.9685
0
LINE
8
BLACK
6
CONTINUOUS
10
2.79921
20
-1.9685
11
2.79848
21
-1.97646
0
LINE
8
BLACK
6
CONTINUOUS
10
2.79848
20
-1.97646
11
2.79629
21
-1.98415
0
LINE
8
BLACK
6
CONTINUOUS
10
2.79629
20
-1.98415
11
2.79273
21
-1.9913
0
LINE
8
BLACK
6
CONTINUOUS
10
2.79273
20
-1.9913
11
2.78791
21
-1.99768
0
LINE
8
BLACK
6
CONTINUOUS
10
2.78791
20
-1.99768
11
2.782
21
-2.00306
0
LINE
8
BLACK
6
CONTINUOUS
10
2.782
20
-2.00306
11
2.77521
21
-2.00727
0
LINE
8
BLACK
6
CONTINUOUS
10
2.77521
20
-2.00727
11
2.76776
21
-2.01016
0
LINE
8
BLACK
6
CONTINUOUS
10
2.76776
20
-2.01016
11
2.7599
21
-2.01163
0
LINE
8
BLACK
6
CONTINUOUS
10
2.7599
20
-2.01163
11
2.75191
21
-2.01163
0
LINE
8
BLACK
6
CONTINUOUS
10
2.75191
20
-2.01163
11
2.74405
21
-2.01016
0
LINE
8
BLACK
6
CONTINUOUS
10
2.74405
20
-2.01016
11
2.7366
21
-2.00727
0
LINE
8
BLACK
6
CONTINUOUS
10
2.7366
20
-2.00727
11
2.72981
21
-2.00306
0
LINE
8
BLACK
6
CONTINUOUS
10
2.72981
20
-2.00306
11
2.7239
21
-1.99768
0
LINE
8
BLACK
6
CONTINUOUS
10
2.7239
20
-1.99768
11
2.71909
21
-1.9913
0
LINE
8
BLACK
6
CONTINUOUS
10
2.71909
20
-1.9913
11
2.71552
21
-1.98415
0
LINE
8
BLACK
6
CONTINUOUS
10
2.71552
20
-1.98415
11
2.71334
21
-1.97646
0
LINE
8
BLACK
6
CONTINUOUS
10
2.71334
20
-1.97646
11
2.7126
21
-1.9685
0
LINE
8
BLACK
6
CONTINUOUS
10
2.7126
20
-1.9685
11
2.71334
21
-1.96055
0
LINE
8
BLACK
6
CONTINUOUS
10
2.71334
20
-1.96055
11
2.71552
21
-1.95286
0
LINE
8
BLACK
6
CONTINUOUS
10
2.71552
20
-1.95286
11
2.71909
21
-1.94571
0
LINE
8
BLACK
6
CONTINUOUS
10
2.71909
20
-1.94571
11
2.7239
21
-1.93933
0
LINE
8
BLACK
6
CONTINUOUS
10
2.7239
20
-1.93933
11
2.72981
21
-1.93394
0
LINE
8
BLACK
6
CONTINUOUS
10
2.72981
20
-1.93394
11
2.7366
21
-1.92974
0
LINE
8
BLACK
6
CONTINUOUS
10
2.7366
20
-1.92974
11
2.74405
21
-1.92685
0
LINE
8
BLACK
6
CONTINUOUS
10
2.74405
20
-1.92685
11
2.75191
21
-1.92538
0
LINE
8
BLACK
6
CONTINUOUS
10
2.75191
20
-1.92538
11
2.7599
21
-1.92538
0
LINE
8
BLACK
6
CONTINUOUS
10
2.7599
20
-1.92538
11
2.76776
21
-1.92685
0
LINE
8
BLACK
6
CONTINUOUS
10
3.55516
20
-1.92685
11
3.56261
21
-1.92974
0
LINE
8
BLACK
6
CONTINUOUS
10
3.56261
20
-1.92974
11
3.56941
21
-1.93394
0
LINE
8
BLACK
6
CONTINUOUS
10
3.56941
20
-1.93394
11
3.57531
21
-1.93933
0
LINE
8
BLACK
6
CONTINUOUS
10
3.57531
20
-1.93933
11
3.58013
21
-1.94571
0
LINE
8
BLACK
6
CONTINUOUS
10
3.58013
20
-1.94571
11
3.58369
21
-1.95286
0
LINE
8
BLACK
6
CONTINUOUS
10
3.58369
20
-1.95286
11
3.58588
21
-1.96055
0
LINE
8
BLACK
6
CONTINUOUS
10
3.58588
20
-1.96055
11
3.58661
21
-1.9685
0
LINE
8
BLACK
6
CONTINUOUS
10
3.58661
20
-1.9685
11
3.58588
21
-1.97646
0
LINE
8
BLACK
6
CONTINUOUS
10
3.58588
20
-1.97646
11
3.58369
21
-1.98415
0
LINE
8
BLACK
6
CONTINUOUS
10
3.58369
20
-1.98415
11
3.58013
21
-1.9913
0
LINE
8
BLACK
6
CONTINUOUS
10
3.58013
20
-1.9913
11
3.57531
21
-1.99768
0
LINE
8
BLACK
6
CONTINUOUS
10
3.57531
20
-1.99768
11
3.56941
21
-2.00306
0
LINE
8
BLACK
6
CONTINUOUS
10
3.56941
20
-2.00306
11
3.56261
21
-2.00727
0
LINE
8
BLACK
6
CONTINUOUS
10
3.56261
20
-2.00727
11
3.55516
21
-2.01016
0
LINE
8
BLACK
6
CONTINUOUS
10
3.55516
20
-2.01016
11
3.5473
21
-2.01163
0
LINE
8
BLACK
6
CONTINUOUS
10
3.5473
20
-2.01163
11
3.53931
21
-2.01163
0
LINE
8
BLACK
6
CONTINUOUS
10
3.53931
20
-2.01163
11
3.53146
21
-2.01016
0
LINE
8
BLACK
6
CONTINUOUS
10
3.53146
20
-2.01016
11
3.524
21
-2.00727
0
LINE
8
BLACK
6
CONTINUOUS
10
3.524
20
-2.00727
11
3.51721
21
-2.00306
0
LINE
8
BLACK
6
CONTINUOUS
10
3.51721
20
-2.00306
11
3.5113
21
-1.99768
0
LINE
8
BLACK
6
CONTINUOUS
10
3.5113
20
-1.99768
11
3.50649
21
-1.9913
0
LINE
8
BLACK
6
CONTINUOUS
10
3.50649
20
-1.9913
11
3.50292
21
-1.98415
0
LINE
8
BLACK
6
CONTINUOUS
10
3.50292
20
-1.98415
11
3.50074
21
-1.97646
0
LINE
8
BLACK
6
CONTINUOUS
10
3.50074
20
-1.97646
11
3.5
21
-1.9685
0
LINE
8
BLACK
6
CONTINUOUS
10
3.5
20
-1.9685
11
3.50074
21
-1.96055
0
LINE
8
BLACK
6
CONTINUOUS
10
3.50074
20
-1.96055
11
3.50292
21
-1.95286
0
LINE
8
BLACK
6
CONTINUOUS
10
3.50292
20
-1.95286
11
3.50649
21
-1.94571
0
LINE
8
BLACK
6
CONTINUOUS
10
3.50649
20
-1.94571
11
3.5113
21
-1.93933
0
LINE
8
BLACK
6
CONTINUOUS
10
3.5113
20
-1.93933
11
3.51721
21
-1.93394
0
LINE
8
BLACK
6
CONTINUOUS
10
3.51721
20
-1.93394
11
3.524
21
-1.92974
0
LINE
8
BLACK
6
CONTINUOUS
10
3.524
20
-1.92974
11
3.53146
21
-1.92685
0
LINE
8
BLACK
6
CONTINUOUS
10
3.53146
20
-1.92685
11
3.53931
21
-1.92538
0
LINE
8
BLACK
6
CONTINUOUS
10
3.53931
20
-1.92538
11
3.5473
21
-1.92538
0
LINE
8
BLACK
6
CONTINUOUS
10
3.5473
20
-1.92538
11
3.55516
21
-1.92685
  0
ENDSEC
  0
EOF
