  0
SECTION
  2
HEADER
  9
$ANGBASE
  50
0.0
  9
$ANGDIR
  70
1
  9
$MEASUREMENT
  70
0
  0
ENDSEC
  0
SECTION
  2
TABLES
  0
TABLE
  2
LTYPE
  70
4
  0
LTYPE
  5
40F
  2
CONTINUOUS
  70
0
  3
Solid line
  72
65
  73
0
  40
0.0
  0
LTYPE
  5
410
  2
DASHDOT
 70
0
  3
Dash Dot ____ _ ____ _
 72
65
 73
4
 40
2.0
 49
1.25
 49
-0.25
 49
0.25
 49
-0.25
  0
LTYPE
  5
411
  2
DASHED
 70
0
  3
Dashed __ __ __ __ __
 72
65
 73
2
 40
0.75
 49
0.5
 49
-0.25
  0
LTYPE
  5
43B
  2
DOTTED
 70
0
  3
Dotted .  .  .  .
 72
65
 73
2
 40
0.2
 49
0.0
 49
-0.2
  0
ENDTAB
  0
TABLE
  2
STYLE
  70
4
  0
STYLE
  2
KICAD
  70
0
  40
0
  41
1
  42
1
  50
0
  71
0
  3
isocp.shx
  0
STYLE
  2
KICADB
  70
0
  40
0
  41
1
  42
1
  50
0
  71
0
  3
isocp.shx
  0
STYLE
  2
KICADI
  70
0
  40
0
  41
1
  42
1
  50
15
  71
0
  3
isocp.shx
  0
STYLE
  2
KICADBI
  70
0
  40
0
  41
1
  42
1
  50
15
  71
0
  3
isocp.shx
  0
ENDTAB
  0
TABLE
  2
LAYER
  70
1
  0
LAYER
  2
BLACK
  70
0
  62
7
  6
CONTINUOUS
  0
ENDTAB
  0
ENDSEC
  0
SECTION
  2
ENTITIES
0
LINE
8
BLACK
6
CONTINUOUS
10
3.18898
20
-2.67618
11
3.18967
21
-2.67647
0
LINE
8
BLACK
6
CONTINUOUS
10
3.18967
20
-2.67647
11
3.18996
21
-2.67717
0
LINE
8
BLACK
6
CONTINUOUS
10
3.18996
20
-2.67717
11
3.18996
21
-2.75591
0
LINE
8
BLACK
6
CONTINUOUS
10
3.18996
20
-2.75591
11
3.18967
21
-2.7566
0
LINE
8
BLACK
6
CONTINUOUS
10
3.18967
20
-2.7566
11
3.18898
21
-2.75689
0
LINE
8
BLACK
6
CONTINUOUS
10
3.18898
20
-2.75689
11
3.18524
21
-2.75689
0
LINE
8
BLACK
6
CONTINUOUS
10
3.18524
20
-2.75689
11
3.18524
21
-2.78346
0
LINE
8
BLACK
6
CONTINUOUS
10
3.18524
20
-2.78346
11
3.18495
21
-2.78416
0
LINE
8
BLACK
6
CONTINUOUS
10
3.18495
20
-2.78416
11
3.18425
21
-2.78445
0
LINE
8
BLACK
6
CONTINUOUS
10
3.18425
20
-2.78445
11
3.11496
21
-2.78445
0
LINE
8
BLACK
6
CONTINUOUS
10
3.11496
20
-2.78445
11
3.11426
21
-2.78416
0
LINE
8
BLACK
6
CONTINUOUS
10
3.11426
20
-2.78416
11
3.11398
21
-2.78346
0
LINE
8
BLACK
6
CONTINUOUS
10
3.11398
20
-2.78346
11
3.11398
21
-2.75689
0
LINE
8
BLACK
6
CONTINUOUS
10
3.11398
20
-2.75689
11
3.11024
21
-2.75689
0
LINE
8
BLACK
6
CONTINUOUS
10
3.11024
20
-2.75689
11
3.10954
21
-2.7566
0
LINE
8
BLACK
6
CONTINUOUS
10
3.10954
20
-2.7566
11
3.10925
21
-2.75591
0
LINE
8
BLACK
6
CONTINUOUS
10
3.10925
20
-2.75591
11
3.10925
21
-2.67717
0
LINE
8
BLACK
6
CONTINUOUS
10
3.10925
20
-2.67717
11
3.10954
21
-2.67647
0
LINE
8
BLACK
6
CONTINUOUS
10
3.10954
20
-2.67647
11
3.11024
21
-2.67618
0
LINE
8
BLACK
6
CONTINUOUS
10
3.11024
20
-2.67618
11
3.18898
21
-2.67618
0
LINE
8
BLACK
6
CONTINUOUS
10
3.11594
20
-2.75689
11
3.11594
21
-2.78248
0
LINE
8
BLACK
6
CONTINUOUS
10
3.11594
20
-2.78248
11
3.18327
21
-2.78248
0
LINE
8
BLACK
6
CONTINUOUS
10
3.18327
20
-2.78248
11
3.18327
21
-2.75689
0
LINE
8
BLACK
6
CONTINUOUS
10
3.18327
20
-2.75689
11
3.11594
21
-2.75689
0
LINE
8
BLACK
6
CONTINUOUS
10
3.11122
20
-2.67815
11
3.11122
21
-2.75492
0
LINE
8
BLACK
6
CONTINUOUS
10
3.11122
20
-2.75492
11
3.18799
21
-2.75492
0
LINE
8
BLACK
6
CONTINUOUS
10
3.18799
20
-2.75492
11
3.18799
21
-2.67815
0
LINE
8
BLACK
6
CONTINUOUS
10
3.18799
20
-2.67815
11
3.11122
21
-2.67815
0
LINE
8
BLACK
6
CONTINUOUS
10
2.95852
20
-2.61443
11
3.02671
21
-2.6538
0
LINE
8
BLACK
6
CONTINUOUS
10
3.02671
20
-2.6538
11
3.02717
21
-2.6544
0
LINE
8
BLACK
6
CONTINUOUS
10
3.02717
20
-2.6544
11
3.02717
21
-2.6544
0
LINE
8
BLACK
6
CONTINUOUS
10
3.02717
20
-2.6544
11
3.02717
21
-2.6544
0
LINE
8
BLACK
6
CONTINUOUS
10
3.02717
20
-2.6544
11
3.02707
21
-2.65515
0
LINE
8
BLACK
6
CONTINUOUS
10
3.02707
20
-2.65515
11
2.9877
21
-2.72334
0
LINE
8
BLACK
6
CONTINUOUS
10
2.9877
20
-2.72334
11
2.98711
21
-2.7238
0
LINE
8
BLACK
6
CONTINUOUS
10
2.98711
20
-2.7238
11
2.98636
21
-2.7237
0
LINE
8
BLACK
6
CONTINUOUS
10
2.98636
20
-2.7237
11
2.98636
21
-2.7237
0
LINE
8
BLACK
6
CONTINUOUS
10
2.98636
20
-2.7237
11
2.98312
21
-2.72183
0
LINE
8
BLACK
6
CONTINUOUS
10
2.98312
20
-2.72183
11
2.96983
21
-2.74484
0
LINE
8
BLACK
6
CONTINUOUS
10
2.96983
20
-2.74484
11
2.96924
21
-2.7453
0
LINE
8
BLACK
6
CONTINUOUS
10
2.96924
20
-2.7453
11
2.96849
21
-2.7452
0
LINE
8
BLACK
6
CONTINUOUS
10
2.96849
20
-2.7452
11
2.96849
21
-2.7452
0
LINE
8
BLACK
6
CONTINUOUS
10
2.96849
20
-2.7452
11
2.90848
21
-2.71056
0
LINE
8
BLACK
6
CONTINUOUS
10
2.90848
20
-2.71056
11
2.90802
21
-2.70996
0
LINE
8
BLACK
6
CONTINUOUS
10
2.90802
20
-2.70996
11
2.90812
21
-2.70921
0
LINE
8
BLACK
6
CONTINUOUS
10
2.90812
20
-2.70921
11
2.92141
21
-2.6862
0
LINE
8
BLACK
6
CONTINUOUS
10
2.92141
20
-2.6862
11
2.91817
21
-2.68433
0
LINE
8
BLACK
6
CONTINUOUS
10
2.91817
20
-2.68433
11
2.91771
21
-2.68373
0
LINE
8
BLACK
6
CONTINUOUS
10
2.91771
20
-2.68373
11
2.91781
21
-2.68298
0
LINE
8
BLACK
6
CONTINUOUS
10
2.91781
20
-2.68298
11
2.95718
21
-2.61479
0
LINE
8
BLACK
6
CONTINUOUS
10
2.95718
20
-2.61479
11
2.95778
21
-2.61433
0
LINE
8
BLACK
6
CONTINUOUS
10
2.95778
20
-2.61433
11
2.95852
21
-2.61443
0
LINE
8
BLACK
6
CONTINUOUS
10
2.91032
20
-2.70934
11
2.96862
21
-2.743
0
LINE
8
BLACK
6
CONTINUOUS
10
2.96862
20
-2.743
11
2.98142
21
-2.72084
0
LINE
8
BLACK
6
CONTINUOUS
10
2.98142
20
-2.72084
11
2.92311
21
-2.68718
0
LINE
8
BLACK
6
CONTINUOUS
10
2.92311
20
-2.68718
11
2.91032
21
-2.70934
0
LINE
8
BLACK
6
CONTINUOUS
10
2.92
20
-2.68311
11
2.98649
21
-2.7215
0
LINE
8
BLACK
6
CONTINUOUS
10
2.98649
20
-2.7215
11
3.02488
21
-2.65501
0
LINE
8
BLACK
6
CONTINUOUS
10
3.02488
20
-2.65501
11
2.95839
21
-2.61663
0
LINE
8
BLACK
6
CONTINUOUS
10
2.95839
20
-2.61663
11
2.92
21
-2.68311
0
LINE
8
BLACK
6
CONTINUOUS
10
3.34203
20
-2.61479
11
3.3814
21
-2.68298
0
LINE
8
BLACK
6
CONTINUOUS
10
3.3814
20
-2.68298
11
3.3815
21
-2.68373
0
LINE
8
BLACK
6
CONTINUOUS
10
3.3815
20
-2.68373
11
3.38104
21
-2.68433
0
LINE
8
BLACK
6
CONTINUOUS
10
3.38104
20
-2.68433
11
3.37781
21
-2.6862
0
LINE
8
BLACK
6
CONTINUOUS
10
3.37781
20
-2.6862
11
3.39109
21
-2.70921
0
LINE
8
BLACK
6
CONTINUOUS
10
3.39109
20
-2.70921
11
3.39119
21
-2.70996
0
LINE
8
BLACK
6
CONTINUOUS
10
3.39119
20
-2.70996
11
3.39119
21
-2.70996
0
LINE
8
BLACK
6
CONTINUOUS
10
3.39119
20
-2.70996
11
3.39073
21
-2.71056
0
LINE
8
BLACK
6
CONTINUOUS
10
3.39073
20
-2.71056
11
3.33072
21
-2.7452
0
LINE
8
BLACK
6
CONTINUOUS
10
3.33072
20
-2.7452
11
3.32998
21
-2.7453
0
LINE
8
BLACK
6
CONTINUOUS
10
3.32998
20
-2.7453
11
3.32938
21
-2.74484
0
LINE
8
BLACK
6
CONTINUOUS
10
3.32938
20
-2.74484
11
3.31609
21
-2.72183
0
LINE
8
BLACK
6
CONTINUOUS
10
3.31609
20
-2.72183
11
3.31285
21
-2.7237
0
LINE
8
BLACK
6
CONTINUOUS
10
3.31285
20
-2.7237
11
3.31211
21
-2.7238
0
LINE
8
BLACK
6
CONTINUOUS
10
3.31211
20
-2.7238
11
3.31151
21
-2.72334
0
LINE
8
BLACK
6
CONTINUOUS
10
3.31151
20
-2.72334
11
3.31151
21
-2.72334
0
LINE
8
BLACK
6
CONTINUOUS
10
3.31151
20
-2.72334
11
3.27214
21
-2.65515
0
LINE
8
BLACK
6
CONTINUOUS
10
3.27214
20
-2.65515
11
3.27204
21
-2.6544
0
LINE
8
BLACK
6
CONTINUOUS
10
3.27204
20
-2.6544
11
3.2725
21
-2.6538
0
LINE
8
BLACK
6
CONTINUOUS
10
3.2725
20
-2.6538
11
3.34069
21
-2.61443
0
LINE
8
BLACK
6
CONTINUOUS
10
3.34069
20
-2.61443
11
3.34069
21
-2.61443
0
LINE
8
BLACK
6
CONTINUOUS
10
3.34069
20
-2.61443
11
3.34144
21
-2.61433
0
LINE
8
BLACK
6
CONTINUOUS
10
3.34144
20
-2.61433
11
3.34203
21
-2.61479
0
LINE
8
BLACK
6
CONTINUOUS
10
3.3178
20
-2.72084
11
3.33059
21
-2.743
0
LINE
8
BLACK
6
CONTINUOUS
10
3.33059
20
-2.743
11
3.3889
21
-2.70934
0
LINE
8
BLACK
6
CONTINUOUS
10
3.3889
20
-2.70934
11
3.3761
21
-2.68718
0
LINE
8
BLACK
6
CONTINUOUS
10
3.3761
20
-2.68718
11
3.3178
21
-2.72084
0
LINE
8
BLACK
6
CONTINUOUS
10
3.27434
20
-2.65501
11
3.31272
21
-2.7215
0
LINE
8
BLACK
6
CONTINUOUS
10
3.31272
20
-2.7215
11
3.37597
21
-2.68498
0
LINE
8
BLACK
6
CONTINUOUS
10
3.37597
20
-2.68498
11
3.37597
21
-2.68498
0
LINE
8
BLACK
6
CONTINUOUS
10
3.37597
20
-2.68498
11
3.37597
21
-2.68498
0
LINE
8
BLACK
6
CONTINUOUS
10
3.37597
20
-2.68498
11
3.37921
21
-2.68311
0
LINE
8
BLACK
6
CONTINUOUS
10
3.37921
20
-2.68311
11
3.34082
21
-2.61663
0
LINE
8
BLACK
6
CONTINUOUS
10
3.34082
20
-2.61663
11
3.27434
21
-2.65501
0
LINE
8
BLACK
6
CONTINUOUS
10
2.85801
20
-2.4851
11
2.89738
21
-2.55329
0
LINE
8
BLACK
6
CONTINUOUS
10
2.89738
20
-2.55329
11
2.89748
21
-2.55404
0
LINE
8
BLACK
6
CONTINUOUS
10
2.89748
20
-2.55404
11
2.89702
21
-2.55463
0
LINE
8
BLACK
6
CONTINUOUS
10
2.89702
20
-2.55463
11
2.82883
21
-2.594
0
LINE
8
BLACK
6
CONTINUOUS
10
2.82883
20
-2.594
11
2.82808
21
-2.5941
0
LINE
8
BLACK
6
CONTINUOUS
10
2.82808
20
-2.5941
11
2.82748
21
-2.59364
0
LINE
8
BLACK
6
CONTINUOUS
10
2.82748
20
-2.59364
11
2.82561
21
-2.5904
0
LINE
8
BLACK
6
CONTINUOUS
10
2.82561
20
-2.5904
11
2.8026
21
-2.60369
0
LINE
8
BLACK
6
CONTINUOUS
10
2.8026
20
-2.60369
11
2.80185
21
-2.60379
0
LINE
8
BLACK
6
CONTINUOUS
10
2.80185
20
-2.60379
11
2.80125
21
-2.60333
0
LINE
8
BLACK
6
CONTINUOUS
10
2.80125
20
-2.60333
11
2.76661
21
-2.54332
0
LINE
8
BLACK
6
CONTINUOUS
10
2.76661
20
-2.54332
11
2.76651
21
-2.54258
0
LINE
8
BLACK
6
CONTINUOUS
10
2.76651
20
-2.54258
11
2.76697
21
-2.54198
0
LINE
8
BLACK
6
CONTINUOUS
10
2.76697
20
-2.54198
11
2.78998
21
-2.52869
0
LINE
8
BLACK
6
CONTINUOUS
10
2.78998
20
-2.52869
11
2.78811
21
-2.52545
0
LINE
8
BLACK
6
CONTINUOUS
10
2.78811
20
-2.52545
11
2.78802
21
-2.5247
0
LINE
8
BLACK
6
CONTINUOUS
10
2.78802
20
-2.5247
11
2.78847
21
-2.52411
0
LINE
8
BLACK
6
CONTINUOUS
10
2.78847
20
-2.52411
11
2.85667
21
-2.48474
0
LINE
8
BLACK
6
CONTINUOUS
10
2.85667
20
-2.48474
11
2.85667
21
-2.48474
0
LINE
8
BLACK
6
CONTINUOUS
10
2.85667
20
-2.48474
11
2.85741
21
-2.48464
0
LINE
8
BLACK
6
CONTINUOUS
10
2.85741
20
-2.48464
11
2.85801
21
-2.4851
0
LINE
8
BLACK
6
CONTINUOUS
10
2.76881
20
-2.54319
11
2.80247
21
-2.60149
0
LINE
8
BLACK
6
CONTINUOUS
10
2.80247
20
-2.60149
11
2.82463
21
-2.5887
0
LINE
8
BLACK
6
CONTINUOUS
10
2.82463
20
-2.5887
11
2.79097
21
-2.5304
0
LINE
8
BLACK
6
CONTINUOUS
10
2.79097
20
-2.5304
11
2.76881
21
-2.54319
0
LINE
8
BLACK
6
CONTINUOUS
10
2.79031
20
-2.52532
11
2.79218
21
-2.52856
0
LINE
8
BLACK
6
CONTINUOUS
10
2.79218
20
-2.52856
11
2.79218
21
-2.52856
0
LINE
8
BLACK
6
CONTINUOUS
10
2.79218
20
-2.52856
11
2.80619
21
-2.55283
0
LINE
8
BLACK
6
CONTINUOUS
10
2.80619
20
-2.55283
11
2.8287
21
-2.59181
0
LINE
8
BLACK
6
CONTINUOUS
10
2.8287
20
-2.59181
11
2.89518
21
-2.55342
0
LINE
8
BLACK
6
CONTINUOUS
10
2.89518
20
-2.55342
11
2.8568
21
-2.48693
0
LINE
8
BLACK
6
CONTINUOUS
10
2.8568
20
-2.48693
11
2.79031
21
-2.52532
0
LINE
8
BLACK
6
CONTINUOUS
10
3.44255
20
-2.48474
11
3.51005
21
-2.52371
0
LINE
8
BLACK
6
CONTINUOUS
10
3.51005
20
-2.52371
11
3.51123
21
-2.52167
0
LINE
8
BLACK
6
CONTINUOUS
10
3.51123
20
-2.52167
11
3.51183
21
-2.52121
0
LINE
8
BLACK
6
CONTINUOUS
10
3.51183
20
-2.52121
11
3.51257
21
-2.52131
0
LINE
8
BLACK
6
CONTINUOUS
10
3.51257
20
-2.52131
11
3.53644
21
-2.53509
0
LINE
8
BLACK
6
CONTINUOUS
10
3.53644
20
-2.53509
11
3.5369
21
-2.53569
0
LINE
8
BLACK
6
CONTINUOUS
10
3.5369
20
-2.53569
11
3.5369
21
-2.53569
0
LINE
8
BLACK
6
CONTINUOUS
10
3.5369
20
-2.53569
11
3.5369
21
-2.53569
0
LINE
8
BLACK
6
CONTINUOUS
10
3.5369
20
-2.53569
11
3.5368
21
-2.53643
0
LINE
8
BLACK
6
CONTINUOUS
10
3.5368
20
-2.53643
11
3.50216
21
-2.59644
0
LINE
8
BLACK
6
CONTINUOUS
10
3.50216
20
-2.59644
11
3.50156
21
-2.5969
0
LINE
8
BLACK
6
CONTINUOUS
10
3.50156
20
-2.5969
11
3.50156
21
-2.5969
0
LINE
8
BLACK
6
CONTINUOUS
10
3.50156
20
-2.5969
11
3.50156
21
-2.5969
0
LINE
8
BLACK
6
CONTINUOUS
10
3.50156
20
-2.5969
11
3.50081
21
-2.5968
0
LINE
8
BLACK
6
CONTINUOUS
10
3.50081
20
-2.5968
11
3.47763
21
-2.58342
0
LINE
8
BLACK
6
CONTINUOUS
10
3.47763
20
-2.58342
11
3.47173
21
-2.59364
0
LINE
8
BLACK
6
CONTINUOUS
10
3.47173
20
-2.59364
11
3.47113
21
-2.5941
0
LINE
8
BLACK
6
CONTINUOUS
10
3.47113
20
-2.5941
11
3.47038
21
-2.594
0
LINE
8
BLACK
6
CONTINUOUS
10
3.47038
20
-2.594
11
3.47038
21
-2.594
0
LINE
8
BLACK
6
CONTINUOUS
10
3.47038
20
-2.594
11
3.40219
21
-2.55463
0
LINE
8
BLACK
6
CONTINUOUS
10
3.40219
20
-2.55463
11
3.40173
21
-2.55404
0
LINE
8
BLACK
6
CONTINUOUS
10
3.40173
20
-2.55404
11
3.40183
21
-2.55329
0
LINE
8
BLACK
6
CONTINUOUS
10
3.40183
20
-2.55329
11
3.4412
21
-2.4851
0
LINE
8
BLACK
6
CONTINUOUS
10
3.4412
20
-2.4851
11
3.4418
21
-2.48464
0
LINE
8
BLACK
6
CONTINUOUS
10
3.4418
20
-2.48464
11
3.44255
21
-2.48474
0
LINE
8
BLACK
6
CONTINUOUS
10
3.47878
20
-2.58181
11
3.50094
21
-2.5946
0
LINE
8
BLACK
6
CONTINUOUS
10
3.50094
20
-2.5946
11
3.5346
21
-2.5363
0
LINE
8
BLACK
6
CONTINUOUS
10
3.5346
20
-2.5363
11
3.51244
21
-2.52351
0
LINE
8
BLACK
6
CONTINUOUS
10
3.51244
20
-2.52351
11
3.47878
21
-2.58181
0
LINE
8
BLACK
6
CONTINUOUS
10
3.40403
20
-2.55342
11
3.47052
21
-2.59181
0
LINE
8
BLACK
6
CONTINUOUS
10
3.47052
20
-2.59181
11
3.5089
21
-2.52532
0
LINE
8
BLACK
6
CONTINUOUS
10
3.5089
20
-2.52532
11
3.44242
21
-2.48693
0
LINE
8
BLACK
6
CONTINUOUS
10
3.44242
20
-2.48693
11
3.40403
21
-2.55342
0
LINE
8
BLACK
6
CONTINUOUS
10
3.53504
20
-2.41358
11
3.53574
21
-2.41387
0
LINE
8
BLACK
6
CONTINUOUS
10
3.53574
20
-2.41387
11
3.53602
21
-2.41457
0
LINE
8
BLACK
6
CONTINUOUS
10
3.53602
20
-2.41457
11
3.53602
21
-2.44213
0
LINE
8
BLACK
6
CONTINUOUS
10
3.53602
20
-2.44213
11
3.53574
21
-2.44282
0
LINE
8
BLACK
6
CONTINUOUS
10
3.53574
20
-2.44282
11
3.53504
21
-2.44311
0
LINE
8
BLACK
6
CONTINUOUS
10
3.53504
20
-2.44311
11
3.46575
21
-2.44311
0
LINE
8
BLACK
6
CONTINUOUS
10
3.46575
20
-2.44311
11
3.46505
21
-2.44282
0
LINE
8
BLACK
6
CONTINUOUS
10
3.46505
20
-2.44282
11
3.46476
21
-2.44213
0
LINE
8
BLACK
6
CONTINUOUS
10
3.46476
20
-2.44213
11
3.46476
21
-2.41457
0
LINE
8
BLACK
6
CONTINUOUS
10
3.46476
20
-2.41457
11
3.46505
21
-2.41387
0
LINE
8
BLACK
6
CONTINUOUS
10
3.46505
20
-2.41387
11
3.46575
21
-2.41358
0
LINE
8
BLACK
6
CONTINUOUS
10
3.46575
20
-2.41358
11
3.53504
21
-2.41358
0
LINE
8
BLACK
6
CONTINUOUS
10
3.46673
20
-2.41555
11
3.46673
21
-2.44114
0
LINE
8
BLACK
6
CONTINUOUS
10
3.46673
20
-2.44114
11
3.53406
21
-2.44114
0
LINE
8
BLACK
6
CONTINUOUS
10
3.53406
20
-2.44114
11
3.53406
21
-2.41555
0
LINE
8
BLACK
6
CONTINUOUS
10
3.53406
20
-2.41555
11
3.46673
21
-2.41555
0
LINE
8
BLACK
6
CONTINUOUS
10
2.83465
20
-2.32185
11
2.83534
21
-2.32214
0
LINE
8
BLACK
6
CONTINUOUS
10
2.83534
20
-2.32214
11
2.83563
21
-2.32283
0
LINE
8
BLACK
6
CONTINUOUS
10
2.83563
20
-2.32283
11
2.83563
21
-2.40157
0
LINE
8
BLACK
6
CONTINUOUS
10
2.83563
20
-2.40157
11
2.83534
21
-2.40227
0
LINE
8
BLACK
6
CONTINUOUS
10
2.83534
20
-2.40227
11
2.83465
21
-2.40256
0
LINE
8
BLACK
6
CONTINUOUS
10
2.83465
20
-2.40256
11
2.75591
21
-2.40256
0
LINE
8
BLACK
6
CONTINUOUS
10
2.75591
20
-2.40256
11
2.75521
21
-2.40227
0
LINE
8
BLACK
6
CONTINUOUS
10
2.75521
20
-2.40227
11
2.75492
21
-2.40157
0
LINE
8
BLACK
6
CONTINUOUS
10
2.75492
20
-2.40157
11
2.75492
21
-2.39783
0
LINE
8
BLACK
6
CONTINUOUS
10
2.75492
20
-2.39783
11
2.72835
21
-2.39783
0
LINE
8
BLACK
6
CONTINUOUS
10
2.72835
20
-2.39783
11
2.72765
21
-2.39755
0
LINE
8
BLACK
6
CONTINUOUS
10
2.72765
20
-2.39755
11
2.72736
21
-2.39685
0
LINE
8
BLACK
6
CONTINUOUS
10
2.72736
20
-2.39685
11
2.72736
21
-2.32756
0
LINE
8
BLACK
6
CONTINUOUS
10
2.72736
20
-2.32756
11
2.72765
21
-2.32686
0
LINE
8
BLACK
6
CONTINUOUS
10
2.72765
20
-2.32686
11
2.72835
21
-2.32657
0
LINE
8
BLACK
6
CONTINUOUS
10
2.72835
20
-2.32657
11
2.75492
21
-2.32657
0
LINE
8
BLACK
6
CONTINUOUS
10
2.75492
20
-2.32657
11
2.75492
21
-2.32283
0
LINE
8
BLACK
6
CONTINUOUS
10
2.75492
20
-2.32283
11
2.75521
21
-2.32214
0
LINE
8
BLACK
6
CONTINUOUS
10
2.75521
20
-2.32214
11
2.75591
21
-2.32185
0
LINE
8
BLACK
6
CONTINUOUS
10
2.75591
20
-2.32185
11
2.83465
21
-2.32185
0
LINE
8
BLACK
6
CONTINUOUS
10
2.75689
20
-2.32382
11
2.75689
21
-2.40059
0
LINE
8
BLACK
6
CONTINUOUS
10
2.75689
20
-2.40059
11
2.83366
21
-2.40059
0
LINE
8
BLACK
6
CONTINUOUS
10
2.83366
20
-2.40059
11
2.83366
21
-2.32382
0
LINE
8
BLACK
6
CONTINUOUS
10
2.83366
20
-2.32382
11
2.75689
21
-2.32382
0
LINE
8
BLACK
6
CONTINUOUS
10
2.72933
20
-2.32854
11
2.72933
21
-2.39587
0
LINE
8
BLACK
6
CONTINUOUS
10
2.72933
20
-2.39587
11
2.75492
21
-2.39587
0
LINE
8
BLACK
6
CONTINUOUS
10
2.75492
20
-2.39587
11
2.75492
21
-2.32854
0
LINE
8
BLACK
6
CONTINUOUS
10
2.75492
20
-2.32854
11
2.72933
21
-2.32854
0
LINE
8
BLACK
6
CONTINUOUS
10
3.54331
20
-2.32185
11
3.544
21
-2.32214
0
LINE
8
BLACK
6
CONTINUOUS
10
3.544
20
-2.32214
11
3.54429
21
-2.32283
0
LINE
8
BLACK
6
CONTINUOUS
10
3.54429
20
-2.32283
11
3.54429
21
-2.32657
0
LINE
8
BLACK
6
CONTINUOUS
10
3.54429
20
-2.32657
11
3.57087
21
-2.32657
0
LINE
8
BLACK
6
CONTINUOUS
10
3.57087
20
-2.32657
11
3.57156
21
-2.32686
0
LINE
8
BLACK
6
CONTINUOUS
10
3.57156
20
-2.32686
11
3.57185
21
-2.32756
0
LINE
8
BLACK
6
CONTINUOUS
10
3.57185
20
-2.32756
11
3.57185
21
-2.39685
0
LINE
8
BLACK
6
CONTINUOUS
10
3.57185
20
-2.39685
11
3.57156
21
-2.39755
0
LINE
8
BLACK
6
CONTINUOUS
10
3.57156
20
-2.39755
11
3.57087
21
-2.39783
0
LINE
8
BLACK
6
CONTINUOUS
10
3.57087
20
-2.39783
11
3.54429
21
-2.39783
0
LINE
8
BLACK
6
CONTINUOUS
10
3.54429
20
-2.39783
11
3.54429
21
-2.40157
0
LINE
8
BLACK
6
CONTINUOUS
10
3.54429
20
-2.40157
11
3.544
21
-2.40227
0
LINE
8
BLACK
6
CONTINUOUS
10
3.544
20
-2.40227
11
3.54331
21
-2.40256
0
LINE
8
BLACK
6
CONTINUOUS
10
3.54331
20
-2.40256
11
3.46457
21
-2.40256
0
LINE
8
BLACK
6
CONTINUOUS
10
3.46457
20
-2.40256
11
3.46387
21
-2.40227
0
LINE
8
BLACK
6
CONTINUOUS
10
3.46387
20
-2.40227
11
3.46358
21
-2.40157
0
LINE
8
BLACK
6
CONTINUOUS
10
3.46358
20
-2.40157
11
3.46358
21
-2.32283
0
LINE
8
BLACK
6
CONTINUOUS
10
3.46358
20
-2.32283
11
3.46387
21
-2.32214
0
LINE
8
BLACK
6
CONTINUOUS
10
3.46387
20
-2.32214
11
3.46457
21
-2.32185
0
LINE
8
BLACK
6
CONTINUOUS
10
3.46457
20
-2.32185
11
3.54331
21
-2.32185
0
LINE
8
BLACK
6
CONTINUOUS
10
3.46555
20
-2.32382
11
3.46555
21
-2.40059
0
LINE
8
BLACK
6
CONTINUOUS
10
3.46555
20
-2.40059
11
3.54232
21
-2.40059
0
LINE
8
BLACK
6
CONTINUOUS
10
3.54232
20
-2.40059
11
3.54232
21
-2.32382
0
LINE
8
BLACK
6
CONTINUOUS
10
3.54232
20
-2.32382
11
3.46555
21
-2.32382
0
LINE
8
BLACK
6
CONTINUOUS
10
3.54429
20
-2.32854
11
3.54429
21
-2.39587
0
LINE
8
BLACK
6
CONTINUOUS
10
3.54429
20
-2.39587
11
3.56988
21
-2.39587
0
LINE
8
BLACK
6
CONTINUOUS
10
3.56988
20
-2.39587
11
3.56988
21
-2.32854
0
LINE
8
BLACK
6
CONTINUOUS
10
3.56988
20
-2.32854
11
3.54429
21
-2.32854
0
LINE
8
BLACK
6
CONTINUOUS
10
2.8026
20
-2.12072
11
2.82561
21
-2.13401
0
LINE
8
BLACK
6
CONTINUOUS
10
2.82561
20
-2.13401
11
2.82748
21
-2.13077
0
LINE
8
BLACK
6
CONTINUOUS
10
2.82748
20
-2.13077
11
2.82808
21
-2.13031
0
LINE
8
BLACK
6
CONTINUOUS
10
2.82808
20
-2.13031
11
2.82883
21
-2.13041
0
LINE
8
BLACK
6
CONTINUOUS
10
2.82883
20
-2.13041
11
2.89702
21
-2.16978
0
LINE
8
BLACK
6
CONTINUOUS
10
2.89702
20
-2.16978
11
2.89748
21
-2.17037
0
LINE
8
BLACK
6
CONTINUOUS
10
2.89748
20
-2.17037
11
2.89748
21
-2.17037
0
LINE
8
BLACK
6
CONTINUOUS
10
2.89748
20
-2.17037
11
2.89748
21
-2.17037
0
LINE
8
BLACK
6
CONTINUOUS
10
2.89748
20
-2.17037
11
2.89738
21
-2.17112
0
LINE
8
BLACK
6
CONTINUOUS
10
2.89738
20
-2.17112
11
2.85801
21
-2.23931
0
LINE
8
BLACK
6
CONTINUOUS
10
2.85801
20
-2.23931
11
2.85741
21
-2.23977
0
LINE
8
BLACK
6
CONTINUOUS
10
2.85741
20
-2.23977
11
2.85667
21
-2.23967
0
LINE
8
BLACK
6
CONTINUOUS
10
2.85667
20
-2.23967
11
2.85667
21
-2.23967
0
LINE
8
BLACK
6
CONTINUOUS
10
2.85667
20
-2.23967
11
2.78847
21
-2.2003
0
LINE
8
BLACK
6
CONTINUOUS
10
2.78847
20
-2.2003
11
2.78802
21
-2.1997
0
LINE
8
BLACK
6
CONTINUOUS
10
2.78802
20
-2.1997
11
2.78811
21
-2.19896
0
LINE
8
BLACK
6
CONTINUOUS
10
2.78811
20
-2.19896
11
2.78998
21
-2.19572
0
LINE
8
BLACK
6
CONTINUOUS
10
2.78998
20
-2.19572
11
2.76697
21
-2.18243
0
LINE
8
BLACK
6
CONTINUOUS
10
2.76697
20
-2.18243
11
2.76651
21
-2.18183
0
LINE
8
BLACK
6
CONTINUOUS
10
2.76651
20
-2.18183
11
2.76661
21
-2.18109
0
LINE
8
BLACK
6
CONTINUOUS
10
2.76661
20
-2.18109
11
2.76661
21
-2.18109
0
LINE
8
BLACK
6
CONTINUOUS
10
2.76661
20
-2.18109
11
2.80125
21
-2.12108
0
LINE
8
BLACK
6
CONTINUOUS
10
2.80125
20
-2.12108
11
2.80185
21
-2.12062
0
LINE
8
BLACK
6
CONTINUOUS
10
2.80185
20
-2.12062
11
2.8026
21
-2.12072
0
LINE
8
BLACK
6
CONTINUOUS
10
2.8095
20
-2.16585
11
2.80619
21
-2.17158
0
LINE
8
BLACK
6
CONTINUOUS
10
2.80619
20
-2.17158
11
2.79031
21
-2.19909
0
LINE
8
BLACK
6
CONTINUOUS
10
2.79031
20
-2.19909
11
2.8568
21
-2.23748
0
LINE
8
BLACK
6
CONTINUOUS
10
2.8568
20
-2.23748
11
2.89518
21
-2.17099
0
LINE
8
BLACK
6
CONTINUOUS
10
2.89518
20
-2.17099
11
2.8287
21
-2.1326
0
LINE
8
BLACK
6
CONTINUOUS
10
2.8287
20
-2.1326
11
2.8095
21
-2.16585
0
LINE
8
BLACK
6
CONTINUOUS
10
2.76881
20
-2.18122
11
2.79097
21
-2.19401
0
LINE
8
BLACK
6
CONTINUOUS
10
2.79097
20
-2.19401
11
2.82463
21
-2.13571
0
LINE
8
BLACK
6
CONTINUOUS
10
2.82463
20
-2.13571
11
2.80247
21
-2.12292
0
LINE
8
BLACK
6
CONTINUOUS
10
2.80247
20
-2.12292
11
2.76881
21
-2.18122
0
LINE
8
BLACK
6
CONTINUOUS
10
3.49796
20
-2.12108
11
3.5326
21
-2.18109
0
LINE
8
BLACK
6
CONTINUOUS
10
3.5326
20
-2.18109
11
3.5327
21
-2.18183
0
LINE
8
BLACK
6
CONTINUOUS
10
3.5327
20
-2.18183
11
3.53224
21
-2.18243
0
LINE
8
BLACK
6
CONTINUOUS
10
3.53224
20
-2.18243
11
3.50923
21
-2.19572
0
LINE
8
BLACK
6
CONTINUOUS
10
3.50923
20
-2.19572
11
3.5111
21
-2.19896
0
LINE
8
BLACK
6
CONTINUOUS
10
3.5111
20
-2.19896
11
3.5112
21
-2.1997
0
LINE
8
BLACK
6
CONTINUOUS
10
3.5112
20
-2.1997
11
3.51074
21
-2.2003
0
LINE
8
BLACK
6
CONTINUOUS
10
3.51074
20
-2.2003
11
3.44255
21
-2.23967
0
LINE
8
BLACK
6
CONTINUOUS
10
3.44255
20
-2.23967
11
3.4418
21
-2.23977
0
LINE
8
BLACK
6
CONTINUOUS
10
3.4418
20
-2.23977
11
3.4412
21
-2.23931
0
LINE
8
BLACK
6
CONTINUOUS
10
3.4412
20
-2.23931
11
3.40183
21
-2.17112
0
LINE
8
BLACK
6
CONTINUOUS
10
3.40183
20
-2.17112
11
3.40173
21
-2.17037
0
LINE
8
BLACK
6
CONTINUOUS
10
3.40173
20
-2.17037
11
3.40219
21
-2.16978
0
LINE
8
BLACK
6
CONTINUOUS
10
3.40219
20
-2.16978
11
3.40219
21
-2.16978
0
LINE
8
BLACK
6
CONTINUOUS
10
3.40219
20
-2.16978
11
3.47038
21
-2.13041
0
LINE
8
BLACK
6
CONTINUOUS
10
3.47038
20
-2.13041
11
3.47038
21
-2.13041
0
LINE
8
BLACK
6
CONTINUOUS
10
3.47038
20
-2.13041
11
3.47113
21
-2.13031
0
LINE
8
BLACK
6
CONTINUOUS
10
3.47113
20
-2.13031
11
3.47173
21
-2.13077
0
LINE
8
BLACK
6
CONTINUOUS
10
3.47173
20
-2.13077
11
3.4736
21
-2.13401
0
LINE
8
BLACK
6
CONTINUOUS
10
3.4736
20
-2.13401
11
3.49661
21
-2.12072
0
LINE
8
BLACK
6
CONTINUOUS
10
3.49661
20
-2.12072
11
3.49736
21
-2.12062
0
LINE
8
BLACK
6
CONTINUOUS
10
3.49736
20
-2.12062
11
3.49736
21
-2.12062
0
LINE
8
BLACK
6
CONTINUOUS
10
3.49736
20
-2.12062
11
3.49796
21
-2.12108
0
LINE
8
BLACK
6
CONTINUOUS
10
3.40403
20
-2.17099
11
3.44242
21
-2.23748
0
LINE
8
BLACK
6
CONTINUOUS
10
3.44242
20
-2.23748
11
3.5089
21
-2.19909
0
LINE
8
BLACK
6
CONTINUOUS
10
3.5089
20
-2.19909
11
3.47052
21
-2.1326
0
LINE
8
BLACK
6
CONTINUOUS
10
3.47052
20
-2.1326
11
3.40403
21
-2.17099
0
LINE
8
BLACK
6
CONTINUOUS
10
3.47458
20
-2.13571
11
3.50824
21
-2.19401
0
LINE
8
BLACK
6
CONTINUOUS
10
3.50824
20
-2.19401
11
3.53041
21
-2.18122
0
LINE
8
BLACK
6
CONTINUOUS
10
3.53041
20
-2.18122
11
3.49674
21
-2.12292
0
LINE
8
BLACK
6
CONTINUOUS
10
3.49674
20
-2.12292
11
3.47458
21
-2.13571
0
LINE
8
BLACK
6
CONTINUOUS
10
2.96983
20
-1.97957
11
2.98312
21
-2.00258
0
LINE
8
BLACK
6
CONTINUOUS
10
2.98312
20
-2.00258
11
2.98636
21
-2.00071
0
LINE
8
BLACK
6
CONTINUOUS
10
2.98636
20
-2.00071
11
2.98636
21
-2.00071
0
LINE
8
BLACK
6
CONTINUOUS
10
2.98636
20
-2.00071
11
2.98711
21
-2.00061
0
LINE
8
BLACK
6
CONTINUOUS
10
2.98711
20
-2.00061
11
2.9877
21
-2.00107
0
LINE
8
BLACK
6
CONTINUOUS
10
2.9877
20
-2.00107
11
3.02707
21
-2.06926
0
LINE
8
BLACK
6
CONTINUOUS
10
3.02707
20
-2.06926
11
3.02717
21
-2.07001
0
LINE
8
BLACK
6
CONTINUOUS
10
3.02717
20
-2.07001
11
3.02671
21
-2.07061
0
LINE
8
BLACK
6
CONTINUOUS
10
3.02671
20
-2.07061
11
2.95852
21
-2.10998
0
LINE
8
BLACK
6
CONTINUOUS
10
2.95852
20
-2.10998
11
2.95778
21
-2.11008
0
LINE
8
BLACK
6
CONTINUOUS
10
2.95778
20
-2.11008
11
2.95718
21
-2.10962
0
LINE
8
BLACK
6
CONTINUOUS
10
2.95718
20
-2.10962
11
2.95718
21
-2.10962
0
LINE
8
BLACK
6
CONTINUOUS
10
2.95718
20
-2.10962
11
2.91781
21
-2.04143
0
LINE
8
BLACK
6
CONTINUOUS
10
2.91781
20
-2.04143
11
2.91771
21
-2.04068
0
LINE
8
BLACK
6
CONTINUOUS
10
2.91771
20
-2.04068
11
2.91817
21
-2.04008
0
LINE
8
BLACK
6
CONTINUOUS
10
2.91817
20
-2.04008
11
2.91817
21
-2.04008
0
LINE
8
BLACK
6
CONTINUOUS
10
2.91817
20
-2.04008
11
2.92141
21
-2.03821
0
LINE
8
BLACK
6
CONTINUOUS
10
2.92141
20
-2.03821
11
2.90812
21
-2.0152
0
LINE
8
BLACK
6
CONTINUOUS
10
2.90812
20
-2.0152
11
2.90802
21
-2.01445
0
LINE
8
BLACK
6
CONTINUOUS
10
2.90802
20
-2.01445
11
2.90848
21
-2.01385
0
LINE
8
BLACK
6
CONTINUOUS
10
2.90848
20
-2.01385
11
2.90848
21
-2.01385
0
LINE
8
BLACK
6
CONTINUOUS
10
2.90848
20
-2.01385
11
2.96849
21
-1.97921
0
LINE
8
BLACK
6
CONTINUOUS
10
2.96849
20
-1.97921
11
2.96849
21
-1.97921
0
LINE
8
BLACK
6
CONTINUOUS
10
2.96849
20
-1.97921
11
2.96924
21
-1.97911
0
LINE
8
BLACK
6
CONTINUOUS
10
2.96924
20
-1.97911
11
2.96983
21
-1.97957
0
LINE
8
BLACK
6
CONTINUOUS
10
2.92
20
-2.0413
11
2.95839
21
-2.10778
0
LINE
8
BLACK
6
CONTINUOUS
10
2.95839
20
-2.10778
11
3.02488
21
-2.0694
0
LINE
8
BLACK
6
CONTINUOUS
10
3.02488
20
-2.0694
11
2.98649
21
-2.00291
0
LINE
8
BLACK
6
CONTINUOUS
10
2.98649
20
-2.00291
11
2.92
21
-2.0413
0
LINE
8
BLACK
6
CONTINUOUS
10
2.91032
20
-2.01507
11
2.92311
21
-2.03723
0
LINE
8
BLACK
6
CONTINUOUS
10
2.92311
20
-2.03723
11
2.98142
21
-2.00357
0
LINE
8
BLACK
6
CONTINUOUS
10
2.98142
20
-2.00357
11
2.96862
21
-1.9814
0
LINE
8
BLACK
6
CONTINUOUS
10
2.96862
20
-1.9814
11
2.91032
21
-2.01507
0
LINE
8
BLACK
6
CONTINUOUS
10
3.33072
20
-1.97921
11
3.39073
21
-2.01385
0
LINE
8
BLACK
6
CONTINUOUS
10
3.39073
20
-2.01385
11
3.39101
21
-2.01421
0
LINE
8
BLACK
6
CONTINUOUS
10
3.39101
20
-2.01421
11
3.39119
21
-2.01445
0
LINE
8
BLACK
6
CONTINUOUS
10
3.39119
20
-2.01445
11
3.39109
21
-2.0152
0
LINE
8
BLACK
6
CONTINUOUS
10
3.39109
20
-2.0152
11
3.37781
21
-2.03821
0
LINE
8
BLACK
6
CONTINUOUS
10
3.37781
20
-2.03821
11
3.38104
21
-2.04008
0
LINE
8
BLACK
6
CONTINUOUS
10
3.38104
20
-2.04008
11
3.3815
21
-2.04068
0
LINE
8
BLACK
6
CONTINUOUS
10
3.3815
20
-2.04068
11
3.3815
21
-2.04068
0
LINE
8
BLACK
6
CONTINUOUS
10
3.3815
20
-2.04068
11
3.3815
21
-2.04068
0
LINE
8
BLACK
6
CONTINUOUS
10
3.3815
20
-2.04068
11
3.3814
21
-2.04143
0
LINE
8
BLACK
6
CONTINUOUS
10
3.3814
20
-2.04143
11
3.34203
21
-2.10962
0
LINE
8
BLACK
6
CONTINUOUS
10
3.34203
20
-2.10962
11
3.34144
21
-2.11008
0
LINE
8
BLACK
6
CONTINUOUS
10
3.34144
20
-2.11008
11
3.34069
21
-2.10998
0
LINE
8
BLACK
6
CONTINUOUS
10
3.34069
20
-2.10998
11
3.34069
21
-2.10998
0
LINE
8
BLACK
6
CONTINUOUS
10
3.34069
20
-2.10998
11
3.2725
21
-2.07061
0
LINE
8
BLACK
6
CONTINUOUS
10
3.2725
20
-2.07061
11
3.27204
21
-2.07001
0
LINE
8
BLACK
6
CONTINUOUS
10
3.27204
20
-2.07001
11
3.27214
21
-2.06926
0
LINE
8
BLACK
6
CONTINUOUS
10
3.27214
20
-2.06926
11
3.31151
21
-2.00107
0
LINE
8
BLACK
6
CONTINUOUS
10
3.31151
20
-2.00107
11
3.31211
21
-2.00061
0
LINE
8
BLACK
6
CONTINUOUS
10
3.31211
20
-2.00061
11
3.31285
21
-2.00071
0
LINE
8
BLACK
6
CONTINUOUS
10
3.31285
20
-2.00071
11
3.31609
21
-2.00258
0
LINE
8
BLACK
6
CONTINUOUS
10
3.31609
20
-2.00258
11
3.32938
21
-1.97957
0
LINE
8
BLACK
6
CONTINUOUS
10
3.32938
20
-1.97957
11
3.32998
21
-1.97911
0
LINE
8
BLACK
6
CONTINUOUS
10
3.32998
20
-1.97911
11
3.33072
21
-1.97921
0
LINE
8
BLACK
6
CONTINUOUS
10
3.27434
20
-2.0694
11
3.34082
21
-2.10778
0
LINE
8
BLACK
6
CONTINUOUS
10
3.34082
20
-2.10778
11
3.37921
21
-2.0413
0
LINE
8
BLACK
6
CONTINUOUS
10
3.37921
20
-2.0413
11
3.37597
21
-2.03943
0
LINE
8
BLACK
6
CONTINUOUS
10
3.37597
20
-2.03943
11
3.37597
21
-2.03943
0
LINE
8
BLACK
6
CONTINUOUS
10
3.37597
20
-2.03943
11
3.37597
21
-2.03943
0
LINE
8
BLACK
6
CONTINUOUS
10
3.37597
20
-2.03943
11
3.31272
21
-2.00291
0
LINE
8
BLACK
6
CONTINUOUS
10
3.31272
20
-2.00291
11
3.27434
21
-2.0694
0
LINE
8
BLACK
6
CONTINUOUS
10
3.3178
20
-2.00357
11
3.3761
21
-2.03723
0
LINE
8
BLACK
6
CONTINUOUS
10
3.3761
20
-2.03723
11
3.3889
21
-2.01507
0
LINE
8
BLACK
6
CONTINUOUS
10
3.3889
20
-2.01507
11
3.33059
21
-1.9814
0
LINE
8
BLACK
6
CONTINUOUS
10
3.33059
20
-1.9814
11
3.3178
21
-2.00357
0
LINE
8
BLACK
6
CONTINUOUS
10
3.18425
20
-1.93996
11
3.18495
21
-1.94025
0
LINE
8
BLACK
6
CONTINUOUS
10
3.18495
20
-1.94025
11
3.18524
21
-1.94094
0
LINE
8
BLACK
6
CONTINUOUS
10
3.18524
20
-1.94094
11
3.18524
21
-1.96752
0
LINE
8
BLACK
6
CONTINUOUS
10
3.18524
20
-1.96752
11
3.18898
21
-1.96752
0
LINE
8
BLACK
6
CONTINUOUS
10
3.18898
20
-1.96752
11
3.18967
21
-1.96781
0
LINE
8
BLACK
6
CONTINUOUS
10
3.18967
20
-1.96781
11
3.18996
21
-1.9685
0
LINE
8
BLACK
6
CONTINUOUS
10
3.18996
20
-1.9685
11
3.18996
21
-2.04724
0
LINE
8
BLACK
6
CONTINUOUS
10
3.18996
20
-2.04724
11
3.18967
21
-2.04794
0
LINE
8
BLACK
6
CONTINUOUS
10
3.18967
20
-2.04794
11
3.18898
21
-2.04823
0
LINE
8
BLACK
6
CONTINUOUS
10
3.18898
20
-2.04823
11
3.11024
21
-2.04823
0
LINE
8
BLACK
6
CONTINUOUS
10
3.11024
20
-2.04823
11
3.10954
21
-2.04794
0
LINE
8
BLACK
6
CONTINUOUS
10
3.10954
20
-2.04794
11
3.10925
21
-2.04724
0
LINE
8
BLACK
6
CONTINUOUS
10
3.10925
20
-2.04724
11
3.10925
21
-1.9685
0
LINE
8
BLACK
6
CONTINUOUS
10
3.10925
20
-1.9685
11
3.10954
21
-1.96781
0
LINE
8
BLACK
6
CONTINUOUS
10
3.10954
20
-1.96781
11
3.11024
21
-1.96752
0
LINE
8
BLACK
6
CONTINUOUS
10
3.11024
20
-1.96752
11
3.11398
21
-1.96752
0
LINE
8
BLACK
6
CONTINUOUS
10
3.11398
20
-1.96752
11
3.11398
21
-1.94094
0
LINE
8
BLACK
6
CONTINUOUS
10
3.11398
20
-1.94094
11
3.11426
21
-1.94025
0
LINE
8
BLACK
6
CONTINUOUS
10
3.11426
20
-1.94025
11
3.11496
21
-1.93996
0
LINE
8
BLACK
6
CONTINUOUS
10
3.11496
20
-1.93996
11
3.18425
21
-1.93996
0
LINE
8
BLACK
6
CONTINUOUS
10
3.18425
20
-1.96949
11
3.11496
21
-1.96949
0
LINE
8
BLACK
6
CONTINUOUS
10
3.11496
20
-1.96949
11
3.11122
21
-1.96949
0
LINE
8
BLACK
6
CONTINUOUS
10
3.11122
20
-1.96949
11
3.11122
21
-2.04626
0
LINE
8
BLACK
6
CONTINUOUS
10
3.11122
20
-2.04626
11
3.18799
21
-2.04626
0
LINE
8
BLACK
6
CONTINUOUS
10
3.18799
20
-2.04626
11
3.18799
21
-1.96949
0
LINE
8
BLACK
6
CONTINUOUS
10
3.18799
20
-1.96949
11
3.18425
21
-1.96949
0
LINE
8
BLACK
6
CONTINUOUS
10
3.11594
20
-1.94193
11
3.11594
21
-1.96752
0
LINE
8
BLACK
6
CONTINUOUS
10
3.11594
20
-1.96752
11
3.18327
21
-1.96752
0
LINE
8
BLACK
6
CONTINUOUS
10
3.18327
20
-1.96752
11
3.18327
21
-1.94193
0
LINE
8
BLACK
6
CONTINUOUS
10
3.18327
20
-1.94193
11
3.11594
21
-1.94193
  0
ENDSEC
  0
EOF
