  0
SECTION
  2
HEADER
  9
$ANGBASE
  50
0.0
  9
$ANGDIR
  70
1
  9
$MEASUREMENT
  70
0
  0
ENDSEC
  0
SECTION
  2
TABLES
  0
TABLE
  2
LTYPE
  70
4
  0
LTYPE
  5
40F
  2
CONTINUOUS
  70
0
  3
Solid line
  72
65
  73
0
  40
0.0
  0
LTYPE
  5
410
  2
DASHDOT
 70
0
  3
Dash Dot ____ _ ____ _
 72
65
 73
4
 40
2.0
 49
1.25
 49
-0.25
 49
0.25
 49
-0.25
  0
LTYPE
  5
411
  2
DASHED
 70
0
  3
Dashed __ __ __ __ __
 72
65
 73
2
 40
0.75
 49
0.5
 49
-0.25
  0
LTYPE
  5
43B
  2
DOTTED
 70
0
  3
Dotted .  .  .  .
 72
65
 73
2
 40
0.2
 49
0.0
 49
-0.2
  0
ENDTAB
  0
TABLE
  2
STYLE
  70
4
  0
STYLE
  2
KICAD
  70
0
  40
0
  41
1
  42
1
  50
0
  71
0
  3
isocp.shx
  0
STYLE
  2
KICADB
  70
0
  40
0
  41
1
  42
1
  50
0
  71
0
  3
isocp.shx
  0
STYLE
  2
KICADI
  70
0
  40
0
  41
1
  42
1
  50
15
  71
0
  3
isocp.shx
  0
STYLE
  2
KICADBI
  70
0
  40
0
  41
1
  42
1
  50
15
  71
0
  3
isocp.shx
  0
ENDTAB
  0
TABLE
  2
LAYER
  70
1
  0
LAYER
  2
BLACK
  70
0
  62
7
  6
CONTINUOUS
  0
ENDTAB
  0
ENDSEC
  0
SECTION
  2
ENTITIES
0
LINE
8
BLACK
6
CONTINUOUS
10
3.13824
20
-2.74853
11
3.13868
21
-2.74958
0
LINE
8
BLACK
6
CONTINUOUS
10
3.13868
20
-2.74958
11
3.13868
21
-2.75633
0
LINE
8
BLACK
6
CONTINUOUS
10
3.13868
20
-2.75633
11
3.13824
21
-2.75737
0
LINE
8
BLACK
6
CONTINUOUS
10
3.13824
20
-2.75737
11
3.1372
21
-2.7578
0
LINE
8
BLACK
6
CONTINUOUS
10
3.1372
20
-2.7578
11
3.13616
21
-2.75737
0
LINE
8
BLACK
6
CONTINUOUS
10
3.13616
20
-2.75737
11
3.13572
21
-2.75633
0
LINE
8
BLACK
6
CONTINUOUS
10
3.13572
20
-2.75633
11
3.13572
21
-2.75443
0
LINE
8
BLACK
6
CONTINUOUS
10
3.13572
20
-2.75443
11
3.12939
21
-2.75443
0
LINE
8
BLACK
6
CONTINUOUS
10
3.12939
20
-2.75443
11
3.12952
21
-2.75454
0
LINE
8
BLACK
6
CONTINUOUS
10
3.12952
20
-2.75454
11
3.13008
21
-2.75567
0
LINE
8
BLACK
6
CONTINUOUS
10
3.13008
20
-2.75567
11
3.13016
21
-2.75679
0
LINE
8
BLACK
6
CONTINUOUS
10
3.13016
20
-2.75679
11
3.12942
21
-2.75765
0
LINE
8
BLACK
6
CONTINUOUS
10
3.12942
20
-2.75765
11
3.1283
21
-2.75773
0
LINE
8
BLACK
6
CONTINUOUS
10
3.1283
20
-2.75773
11
3.12744
21
-2.75699
0
LINE
8
BLACK
6
CONTINUOUS
10
3.12744
20
-2.75699
11
3.12699
21
-2.75608
0
LINE
8
BLACK
6
CONTINUOUS
10
3.12699
20
-2.75608
11
3.12614
21
-2.75522
0
LINE
8
BLACK
6
CONTINUOUS
10
3.12614
20
-2.75522
11
3.12457
21
-2.75418
0
LINE
8
BLACK
6
CONTINUOUS
10
3.12457
20
-2.75418
11
3.12449
21
-2.75405
0
LINE
8
BLACK
6
CONTINUOUS
10
3.12449
20
-2.75405
11
3.12435
21
-2.754
0
LINE
8
BLACK
6
CONTINUOUS
10
3.12435
20
-2.754
11
3.12418
21
-2.7536
0
LINE
8
BLACK
6
CONTINUOUS
10
3.12418
20
-2.7536
11
3.12394
21
-2.75324
0
LINE
8
BLACK
6
CONTINUOUS
10
3.12394
20
-2.75324
11
3.12397
21
-2.75309
0
LINE
8
BLACK
6
CONTINUOUS
10
3.12397
20
-2.75309
11
3.12391
21
-2.75295
0
LINE
8
BLACK
6
CONTINUOUS
10
3.12391
20
-2.75295
11
3.12408
21
-2.75256
0
LINE
8
BLACK
6
CONTINUOUS
10
3.12408
20
-2.75256
11
3.12416
21
-2.75213
0
LINE
8
BLACK
6
CONTINUOUS
10
3.12416
20
-2.75213
11
3.12429
21
-2.75205
0
LINE
8
BLACK
6
CONTINUOUS
10
3.12429
20
-2.75205
11
3.12435
21
-2.75191
0
LINE
8
BLACK
6
CONTINUOUS
10
3.12435
20
-2.75191
11
3.12474
21
-2.75174
0
LINE
8
BLACK
6
CONTINUOUS
10
3.12474
20
-2.75174
11
3.1251
21
-2.7515
0
LINE
8
BLACK
6
CONTINUOUS
10
3.1251
20
-2.7515
11
3.12525
21
-2.75153
0
LINE
8
BLACK
6
CONTINUOUS
10
3.12525
20
-2.75153
11
3.12539
21
-2.75148
0
LINE
8
BLACK
6
CONTINUOUS
10
3.12539
20
-2.75148
11
3.13572
21
-2.75148
0
LINE
8
BLACK
6
CONTINUOUS
10
3.13572
20
-2.75148
11
3.13572
21
-2.74958
0
LINE
8
BLACK
6
CONTINUOUS
10
3.13572
20
-2.74958
11
3.13616
21
-2.74853
0
LINE
8
BLACK
6
CONTINUOUS
10
3.13616
20
-2.74853
11
3.1372
21
-2.7481
0
LINE
8
BLACK
6
CONTINUOUS
10
3.1372
20
-2.7481
11
3.13824
21
-2.74853
0
LINE
8
BLACK
6
CONTINUOUS
10
3.09361
20
-2.73913
11
3.09386
21
-2.73909
0
LINE
8
BLACK
6
CONTINUOUS
10
3.09386
20
-2.73909
11
3.09761
21
-2.74003
0
LINE
8
BLACK
6
CONTINUOUS
10
3.09761
20
-2.74003
11
3.09779
21
-2.74016
0
LINE
8
BLACK
6
CONTINUOUS
10
3.09779
20
-2.74016
11
3.09801
21
-2.74018
0
LINE
8
BLACK
6
CONTINUOUS
10
3.09801
20
-2.74018
11
3.09988
21
-2.74112
0
LINE
8
BLACK
6
CONTINUOUS
10
3.09988
20
-2.74112
11
3.1001
21
-2.74136
0
LINE
8
BLACK
6
CONTINUOUS
10
3.1001
20
-2.74136
11
3.1004
21
-2.74148
0
LINE
8
BLACK
6
CONTINUOUS
10
3.1004
20
-2.74148
11
3.10227
21
-2.74336
0
LINE
8
BLACK
6
CONTINUOUS
10
3.10227
20
-2.74336
11
3.10245
21
-2.74378
0
LINE
8
BLACK
6
CONTINUOUS
10
3.10245
20
-2.74378
11
3.10275
21
-2.74413
0
LINE
8
BLACK
6
CONTINUOUS
10
3.10275
20
-2.74413
11
3.10368
21
-2.74694
0
LINE
8
BLACK
6
CONTINUOUS
10
3.10368
20
-2.74694
11
3.10366
21
-2.74726
0
LINE
8
BLACK
6
CONTINUOUS
10
3.10366
20
-2.74726
11
3.10378
21
-2.74756
0
LINE
8
BLACK
6
CONTINUOUS
10
3.10378
20
-2.74756
11
3.10378
21
-2.75225
0
LINE
8
BLACK
6
CONTINUOUS
10
3.10378
20
-2.75225
11
3.10321
21
-2.75364
0
LINE
8
BLACK
6
CONTINUOUS
10
3.10321
20
-2.75364
11
3.10182
21
-2.75422
0
LINE
8
BLACK
6
CONTINUOUS
10
3.10182
20
-2.75422
11
3.08213
21
-2.75422
0
LINE
8
BLACK
6
CONTINUOUS
10
3.08213
20
-2.75422
11
3.08074
21
-2.75364
0
LINE
8
BLACK
6
CONTINUOUS
10
3.08074
20
-2.75364
11
3.08016
21
-2.75225
0
LINE
8
BLACK
6
CONTINUOUS
10
3.08016
20
-2.75225
11
3.08016
21
-2.74756
0
LINE
8
BLACK
6
CONTINUOUS
10
3.08016
20
-2.74756
11
3.08029
21
-2.74726
0
LINE
8
BLACK
6
CONTINUOUS
10
3.08029
20
-2.74726
11
3.08026
21
-2.74694
0
LINE
8
BLACK
6
CONTINUOUS
10
3.08026
20
-2.74694
11
3.0812
21
-2.74413
0
LINE
8
BLACK
6
CONTINUOUS
10
3.0812
20
-2.74413
11
3.0815
21
-2.74378
0
LINE
8
BLACK
6
CONTINUOUS
10
3.0815
20
-2.74378
11
3.08168
21
-2.74336
0
LINE
8
BLACK
6
CONTINUOUS
10
3.08168
20
-2.74336
11
3.08355
21
-2.74148
0
LINE
8
BLACK
6
CONTINUOUS
10
3.08355
20
-2.74148
11
3.08385
21
-2.74136
0
LINE
8
BLACK
6
CONTINUOUS
10
3.08385
20
-2.74136
11
3.08406
21
-2.74112
0
LINE
8
BLACK
6
CONTINUOUS
10
3.08406
20
-2.74112
11
3.08594
21
-2.74018
0
LINE
8
BLACK
6
CONTINUOUS
10
3.08594
20
-2.74018
11
3.08616
21
-2.74016
0
LINE
8
BLACK
6
CONTINUOUS
10
3.08616
20
-2.74016
11
3.08634
21
-2.74003
0
LINE
8
BLACK
6
CONTINUOUS
10
3.08634
20
-2.74003
11
3.09009
21
-2.73909
0
LINE
8
BLACK
6
CONTINUOUS
10
3.09009
20
-2.73909
11
3.09034
21
-2.73913
0
LINE
8
BLACK
6
CONTINUOUS
10
3.09034
20
-2.73913
11
3.09057
21
-2.73903
0
LINE
8
BLACK
6
CONTINUOUS
10
3.09057
20
-2.73903
11
3.09338
21
-2.73903
0
LINE
8
BLACK
6
CONTINUOUS
10
3.09338
20
-2.73903
11
3.09361
21
-2.73913
0
LINE
8
BLACK
6
CONTINUOUS
10
3.0875
20
-2.7438
11
3.08611
21
-2.74449
0
LINE
8
BLACK
6
CONTINUOUS
10
3.08611
20
-2.74449
11
3.08479
21
-2.74581
0
LINE
8
BLACK
6
CONTINUOUS
10
3.08479
20
-2.74581
11
3.0841
21
-2.74788
0
LINE
8
BLACK
6
CONTINUOUS
10
3.0841
20
-2.74788
11
3.0841
21
-2.75028
0
LINE
8
BLACK
6
CONTINUOUS
10
3.0841
20
-2.75028
11
3.09985
21
-2.75028
0
LINE
8
BLACK
6
CONTINUOUS
10
3.09985
20
-2.75028
11
3.09985
21
-2.74788
0
LINE
8
BLACK
6
CONTINUOUS
10
3.09985
20
-2.74788
11
3.09916
21
-2.74581
0
LINE
8
BLACK
6
CONTINUOUS
10
3.09916
20
-2.74581
11
3.09784
21
-2.74449
0
LINE
8
BLACK
6
CONTINUOUS
10
3.09784
20
-2.74449
11
3.09644
21
-2.7438
0
LINE
8
BLACK
6
CONTINUOUS
10
3.09644
20
-2.7438
11
3.09314
21
-2.74297
0
LINE
8
BLACK
6
CONTINUOUS
10
3.09314
20
-2.74297
11
3.09081
21
-2.74297
0
LINE
8
BLACK
6
CONTINUOUS
10
3.09081
20
-2.74297
11
3.0875
21
-2.7438
0
LINE
8
BLACK
6
CONTINUOUS
10
3.10321
20
-2.72086
11
3.10378
21
-2.72225
0
LINE
8
BLACK
6
CONTINUOUS
10
3.10378
20
-2.72225
11
3.10378
21
-2.7335
0
LINE
8
BLACK
6
CONTINUOUS
10
3.10378
20
-2.7335
11
3.10321
21
-2.73489
0
LINE
8
BLACK
6
CONTINUOUS
10
3.10321
20
-2.73489
11
3.10182
21
-2.73547
0
LINE
8
BLACK
6
CONTINUOUS
10
3.10182
20
-2.73547
11
3.10042
21
-2.73489
0
LINE
8
BLACK
6
CONTINUOUS
10
3.10042
20
-2.73489
11
3.09985
21
-2.7335
0
LINE
8
BLACK
6
CONTINUOUS
10
3.09985
20
-2.7335
11
3.09985
21
-2.72985
0
LINE
8
BLACK
6
CONTINUOUS
10
3.09985
20
-2.72985
11
3.08782
21
-2.72985
0
LINE
8
BLACK
6
CONTINUOUS
10
3.08782
20
-2.72985
11
3.08821
21
-2.73024
0
LINE
8
BLACK
6
CONTINUOUS
10
3.08821
20
-2.73024
11
3.08833
21
-2.73053
0
LINE
8
BLACK
6
CONTINUOUS
10
3.08833
20
-2.73053
11
3.08858
21
-2.73075
0
LINE
8
BLACK
6
CONTINUOUS
10
3.08858
20
-2.73075
11
3.08952
21
-2.73262
0
LINE
8
BLACK
6
CONTINUOUS
10
3.08952
20
-2.73262
11
3.08962
21
-2.73412
0
LINE
8
BLACK
6
CONTINUOUS
10
3.08962
20
-2.73412
11
3.08863
21
-2.73526
0
LINE
8
BLACK
6
CONTINUOUS
10
3.08863
20
-2.73526
11
3.08713
21
-2.73537
0
LINE
8
BLACK
6
CONTINUOUS
10
3.08713
20
-2.73537
11
3.08599
21
-2.73438
0
LINE
8
BLACK
6
CONTINUOUS
10
3.08599
20
-2.73438
11
3.0852
21
-2.73279
0
LINE
8
BLACK
6
CONTINUOUS
10
3.0852
20
-2.73279
11
3.08369
21
-2.73128
0
LINE
8
BLACK
6
CONTINUOUS
10
3.08369
20
-2.73128
11
3.08104
21
-2.72952
0
LINE
8
BLACK
6
CONTINUOUS
10
3.08104
20
-2.72952
11
3.08093
21
-2.72935
0
LINE
8
BLACK
6
CONTINUOUS
10
3.08093
20
-2.72935
11
3.08074
21
-2.72927
0
LINE
8
BLACK
6
CONTINUOUS
10
3.08074
20
-2.72927
11
3.08052
21
-2.72874
0
LINE
8
BLACK
6
CONTINUOUS
10
3.08052
20
-2.72874
11
3.0802
21
-2.72826
0
LINE
8
BLACK
6
CONTINUOUS
10
3.0802
20
-2.72826
11
3.08024
21
-2.72806
0
LINE
8
BLACK
6
CONTINUOUS
10
3.08024
20
-2.72806
11
3.08016
21
-2.72788
0
LINE
8
BLACK
6
CONTINUOUS
10
3.08016
20
-2.72788
11
3.08038
21
-2.72735
0
LINE
8
BLACK
6
CONTINUOUS
10
3.08038
20
-2.72735
11
3.08049
21
-2.72679
0
LINE
8
BLACK
6
CONTINUOUS
10
3.08049
20
-2.72679
11
3.08066
21
-2.72667
0
LINE
8
BLACK
6
CONTINUOUS
10
3.08066
20
-2.72667
11
3.08074
21
-2.72649
0
LINE
8
BLACK
6
CONTINUOUS
10
3.08074
20
-2.72649
11
3.08127
21
-2.72627
0
LINE
8
BLACK
6
CONTINUOUS
10
3.08127
20
-2.72627
11
3.08174
21
-2.72595
0
LINE
8
BLACK
6
CONTINUOUS
10
3.08174
20
-2.72595
11
3.08194
21
-2.72599
0
LINE
8
BLACK
6
CONTINUOUS
10
3.08194
20
-2.72599
11
3.08213
21
-2.72591
0
LINE
8
BLACK
6
CONTINUOUS
10
3.08213
20
-2.72591
11
3.09985
21
-2.72591
0
LINE
8
BLACK
6
CONTINUOUS
10
3.09985
20
-2.72591
11
3.09985
21
-2.72225
0
LINE
8
BLACK
6
CONTINUOUS
10
3.09985
20
-2.72225
11
3.10042
21
-2.72086
0
LINE
8
BLACK
6
CONTINUOUS
10
3.10042
20
-2.72086
11
3.10182
21
-2.72028
0
LINE
8
BLACK
6
CONTINUOUS
10
3.10182
20
-2.72028
11
3.10321
21
-2.72086
0
LINE
8
BLACK
6
CONTINUOUS
10
3.29384
20
-2.7067
11
3.29533
21
-2.70768
0
LINE
8
BLACK
6
CONTINUOUS
10
3.29533
20
-2.70768
11
3.29739
21
-2.70823
0
LINE
8
BLACK
6
CONTINUOUS
10
3.29739
20
-2.70823
11
3.30057
21
-2.70844
0
LINE
8
BLACK
6
CONTINUOUS
10
3.30057
20
-2.70844
11
3.30075
21
-2.70853
0
LINE
8
BLACK
6
CONTINUOUS
10
3.30075
20
-2.70853
11
3.30095
21
-2.7085
0
LINE
8
BLACK
6
CONTINUOUS
10
3.30095
20
-2.7085
11
3.30141
21
-2.70885
0
LINE
8
BLACK
6
CONTINUOUS
10
3.30141
20
-2.70885
11
3.30192
21
-2.7091
0
LINE
8
BLACK
6
CONTINUOUS
10
3.30192
20
-2.7091
11
3.30199
21
-2.70929
0
LINE
8
BLACK
6
CONTINUOUS
10
3.30199
20
-2.70929
11
3.30215
21
-2.70942
0
LINE
8
BLACK
6
CONTINUOUS
10
3.30215
20
-2.70942
11
3.30222
21
-2.70999
0
LINE
8
BLACK
6
CONTINUOUS
10
3.30222
20
-2.70999
11
3.30241
21
-2.71053
0
LINE
8
BLACK
6
CONTINUOUS
10
3.30241
20
-2.71053
11
3.30232
21
-2.71071
0
LINE
8
BLACK
6
CONTINUOUS
10
3.30232
20
-2.71071
11
3.30234
21
-2.71091
0
LINE
8
BLACK
6
CONTINUOUS
10
3.30234
20
-2.71091
11
3.302
21
-2.71137
0
LINE
8
BLACK
6
CONTINUOUS
10
3.302
20
-2.71137
11
3.30174
21
-2.71188
0
LINE
8
BLACK
6
CONTINUOUS
10
3.30174
20
-2.71188
11
3.30155
21
-2.71195
0
LINE
8
BLACK
6
CONTINUOUS
10
3.30155
20
-2.71195
11
3.30143
21
-2.71211
0
LINE
8
BLACK
6
CONTINUOUS
10
3.30143
20
-2.71211
11
3.28608
21
-2.72097
0
LINE
8
BLACK
6
CONTINUOUS
10
3.28608
20
-2.72097
11
3.28791
21
-2.72413
0
LINE
8
BLACK
6
CONTINUOUS
10
3.28791
20
-2.72413
11
3.28811
21
-2.72562
0
LINE
8
BLACK
6
CONTINUOUS
10
3.28811
20
-2.72562
11
3.28719
21
-2.72682
0
LINE
8
BLACK
6
CONTINUOUS
10
3.28719
20
-2.72682
11
3.2857
21
-2.72702
0
LINE
8
BLACK
6
CONTINUOUS
10
3.2857
20
-2.72702
11
3.2845
21
-2.7261
0
LINE
8
BLACK
6
CONTINUOUS
10
3.2845
20
-2.7261
11
3.27888
21
-2.71636
0
LINE
8
BLACK
6
CONTINUOUS
10
3.27888
20
-2.71636
11
3.27868
21
-2.71486
0
LINE
8
BLACK
6
CONTINUOUS
10
3.27868
20
-2.71486
11
3.2796
21
-2.71367
0
LINE
8
BLACK
6
CONTINUOUS
10
3.2796
20
-2.71367
11
3.28109
21
-2.71347
0
LINE
8
BLACK
6
CONTINUOUS
10
3.28109
20
-2.71347
11
3.28229
21
-2.71439
0
LINE
8
BLACK
6
CONTINUOUS
10
3.28229
20
-2.71439
11
3.28412
21
-2.71756
0
LINE
8
BLACK
6
CONTINUOUS
10
3.28412
20
-2.71756
11
3.29453
21
-2.71154
0
LINE
8
BLACK
6
CONTINUOUS
10
3.29453
20
-2.71154
11
3.294
21
-2.7114
0
LINE
8
BLACK
6
CONTINUOUS
10
3.294
20
-2.7114
11
3.29374
21
-2.7112
0
LINE
8
BLACK
6
CONTINUOUS
10
3.29374
20
-2.7112
11
3.29342
21
-2.71114
0
LINE
8
BLACK
6
CONTINUOUS
10
3.29342
20
-2.71114
11
3.29168
21
-2.70999
0
LINE
8
BLACK
6
CONTINUOUS
10
3.29168
20
-2.70999
11
3.29083
21
-2.70874
0
LINE
8
BLACK
6
CONTINUOUS
10
3.29083
20
-2.70874
11
3.29112
21
-2.70726
0
LINE
8
BLACK
6
CONTINUOUS
10
3.29112
20
-2.70726
11
3.29237
21
-2.70642
0
LINE
8
BLACK
6
CONTINUOUS
10
3.29237
20
-2.70642
11
3.29384
21
-2.7067
0
LINE
8
BLACK
6
CONTINUOUS
10
3.09455
20
-2.70163
11
3.09479
21
-2.7016
0
LINE
8
BLACK
6
CONTINUOUS
10
3.09479
20
-2.7016
11
3.09854
21
-2.70253
0
LINE
8
BLACK
6
CONTINUOUS
10
3.09854
20
-2.70253
11
3.09872
21
-2.70267
0
LINE
8
BLACK
6
CONTINUOUS
10
3.09872
20
-2.70267
11
3.09895
21
-2.70268
0
LINE
8
BLACK
6
CONTINUOUS
10
3.09895
20
-2.70268
11
3.10082
21
-2.70362
0
LINE
8
BLACK
6
CONTINUOUS
10
3.10082
20
-2.70362
11
3.10103
21
-2.70386
0
LINE
8
BLACK
6
CONTINUOUS
10
3.10103
20
-2.70386
11
3.10133
21
-2.70399
0
LINE
8
BLACK
6
CONTINUOUS
10
3.10133
20
-2.70399
11
3.10227
21
-2.70493
0
LINE
8
BLACK
6
CONTINUOUS
10
3.10227
20
-2.70493
11
3.10239
21
-2.70523
0
LINE
8
BLACK
6
CONTINUOUS
10
3.10239
20
-2.70523
11
3.10264
21
-2.70544
0
LINE
8
BLACK
6
CONTINUOUS
10
3.10264
20
-2.70544
11
3.10358
21
-2.70731
0
LINE
8
BLACK
6
CONTINUOUS
10
3.10358
20
-2.70731
11
3.10361
21
-2.70777
0
LINE
8
BLACK
6
CONTINUOUS
10
3.10361
20
-2.70777
11
3.10378
21
-2.70819
0
LINE
8
BLACK
6
CONTINUOUS
10
3.10378
20
-2.70819
11
3.10378
21
-2.71007
0
LINE
8
BLACK
6
CONTINUOUS
10
3.10378
20
-2.71007
11
3.10361
21
-2.71049
0
LINE
8
BLACK
6
CONTINUOUS
10
3.10361
20
-2.71049
11
3.10358
21
-2.71095
0
LINE
8
BLACK
6
CONTINUOUS
10
3.10358
20
-2.71095
11
3.10264
21
-2.71282
0
LINE
8
BLACK
6
CONTINUOUS
10
3.10264
20
-2.71282
11
3.10239
21
-2.71303
0
LINE
8
BLACK
6
CONTINUOUS
10
3.10239
20
-2.71303
11
3.10227
21
-2.71333
0
LINE
8
BLACK
6
CONTINUOUS
10
3.10227
20
-2.71333
11
3.10133
21
-2.71427
0
LINE
8
BLACK
6
CONTINUOUS
10
3.10133
20
-2.71427
11
3.10103
21
-2.7144
0
LINE
8
BLACK
6
CONTINUOUS
10
3.10103
20
-2.7144
11
3.10082
21
-2.71464
0
LINE
8
BLACK
6
CONTINUOUS
10
3.10082
20
-2.71464
11
3.09895
21
-2.71558
0
LINE
8
BLACK
6
CONTINUOUS
10
3.09895
20
-2.71558
11
3.09872
21
-2.71559
0
LINE
8
BLACK
6
CONTINUOUS
10
3.09872
20
-2.71559
11
3.09854
21
-2.71573
0
LINE
8
BLACK
6
CONTINUOUS
10
3.09854
20
-2.71573
11
3.09479
21
-2.71666
0
LINE
8
BLACK
6
CONTINUOUS
10
3.09479
20
-2.71666
11
3.09455
21
-2.71663
0
LINE
8
BLACK
6
CONTINUOUS
10
3.09455
20
-2.71663
11
3.09432
21
-2.71672
0
LINE
8
BLACK
6
CONTINUOUS
10
3.09432
20
-2.71672
11
3.08963
21
-2.71672
0
LINE
8
BLACK
6
CONTINUOUS
10
3.08963
20
-2.71672
11
3.0894
21
-2.71663
0
LINE
8
BLACK
6
CONTINUOUS
10
3.0894
20
-2.71663
11
3.08915
21
-2.71666
0
LINE
8
BLACK
6
CONTINUOUS
10
3.08915
20
-2.71666
11
3.0854
21
-2.71573
0
LINE
8
BLACK
6
CONTINUOUS
10
3.0854
20
-2.71573
11
3.08522
21
-2.71559
0
LINE
8
BLACK
6
CONTINUOUS
10
3.08522
20
-2.71559
11
3.085
21
-2.71558
0
LINE
8
BLACK
6
CONTINUOUS
10
3.085
20
-2.71558
11
3.08312
21
-2.71464
0
LINE
8
BLACK
6
CONTINUOUS
10
3.08312
20
-2.71464
11
3.08291
21
-2.7144
0
LINE
8
BLACK
6
CONTINUOUS
10
3.08291
20
-2.7144
11
3.08261
21
-2.71427
0
LINE
8
BLACK
6
CONTINUOUS
10
3.08261
20
-2.71427
11
3.08168
21
-2.71333
0
LINE
8
BLACK
6
CONTINUOUS
10
3.08168
20
-2.71333
11
3.08155
21
-2.71303
0
LINE
8
BLACK
6
CONTINUOUS
10
3.08155
20
-2.71303
11
3.08131
21
-2.71282
0
LINE
8
BLACK
6
CONTINUOUS
10
3.08131
20
-2.71282
11
3.08037
21
-2.71095
0
LINE
8
BLACK
6
CONTINUOUS
10
3.08037
20
-2.71095
11
3.08034
21
-2.71049
0
LINE
8
BLACK
6
CONTINUOUS
10
3.08034
20
-2.71049
11
3.08016
21
-2.71007
0
LINE
8
BLACK
6
CONTINUOUS
10
3.08016
20
-2.71007
11
3.08016
21
-2.70819
0
LINE
8
BLACK
6
CONTINUOUS
10
3.08016
20
-2.70819
11
3.08034
21
-2.70777
0
LINE
8
BLACK
6
CONTINUOUS
10
3.08034
20
-2.70777
11
3.08037
21
-2.70731
0
LINE
8
BLACK
6
CONTINUOUS
10
3.08037
20
-2.70731
11
3.08131
21
-2.70544
0
LINE
8
BLACK
6
CONTINUOUS
10
3.08131
20
-2.70544
11
3.08155
21
-2.70523
0
LINE
8
BLACK
6
CONTINUOUS
10
3.08155
20
-2.70523
11
3.08168
21
-2.70493
0
LINE
8
BLACK
6
CONTINUOUS
10
3.08168
20
-2.70493
11
3.08261
21
-2.70399
0
LINE
8
BLACK
6
CONTINUOUS
10
3.08261
20
-2.70399
11
3.08291
21
-2.70386
0
LINE
8
BLACK
6
CONTINUOUS
10
3.08291
20
-2.70386
11
3.08312
21
-2.70362
0
LINE
8
BLACK
6
CONTINUOUS
10
3.08312
20
-2.70362
11
3.085
21
-2.70268
0
LINE
8
BLACK
6
CONTINUOUS
10
3.085
20
-2.70268
11
3.08522
21
-2.70267
0
LINE
8
BLACK
6
CONTINUOUS
10
3.08522
20
-2.70267
11
3.0854
21
-2.70253
0
LINE
8
BLACK
6
CONTINUOUS
10
3.0854
20
-2.70253
11
3.08915
21
-2.7016
0
LINE
8
BLACK
6
CONTINUOUS
10
3.08915
20
-2.7016
11
3.0894
21
-2.70163
0
LINE
8
BLACK
6
CONTINUOUS
10
3.0894
20
-2.70163
11
3.08963
21
-2.70154
0
LINE
8
BLACK
6
CONTINUOUS
10
3.08963
20
-2.70154
11
3.09432
21
-2.70154
0
LINE
8
BLACK
6
CONTINUOUS
10
3.09432
20
-2.70154
11
3.09455
21
-2.70163
0
LINE
8
BLACK
6
CONTINUOUS
10
3.08657
20
-2.7063
11
3.08517
21
-2.707
0
LINE
8
BLACK
6
CONTINUOUS
10
3.08517
20
-2.707
11
3.08469
21
-2.70748
0
LINE
8
BLACK
6
CONTINUOUS
10
3.08469
20
-2.70748
11
3.0841
21
-2.70866
0
LINE
8
BLACK
6
CONTINUOUS
10
3.0841
20
-2.70866
11
3.0841
21
-2.7096
0
LINE
8
BLACK
6
CONTINUOUS
10
3.0841
20
-2.7096
11
3.08469
21
-2.71078
0
LINE
8
BLACK
6
CONTINUOUS
10
3.08469
20
-2.71078
11
3.08517
21
-2.71126
0
LINE
8
BLACK
6
CONTINUOUS
10
3.08517
20
-2.71126
11
3.08657
21
-2.71196
0
LINE
8
BLACK
6
CONTINUOUS
10
3.08657
20
-2.71196
11
3.08987
21
-2.71279
0
LINE
8
BLACK
6
CONTINUOUS
10
3.08987
20
-2.71279
11
3.09407
21
-2.71279
0
LINE
8
BLACK
6
CONTINUOUS
10
3.09407
20
-2.71279
11
3.09738
21
-2.71196
0
LINE
8
BLACK
6
CONTINUOUS
10
3.09738
20
-2.71196
11
3.09877
21
-2.71126
0
LINE
8
BLACK
6
CONTINUOUS
10
3.09877
20
-2.71126
11
3.09926
21
-2.71078
0
LINE
8
BLACK
6
CONTINUOUS
10
3.09926
20
-2.71078
11
3.09985
21
-2.7096
0
LINE
8
BLACK
6
CONTINUOUS
10
3.09985
20
-2.7096
11
3.09985
21
-2.70866
0
LINE
8
BLACK
6
CONTINUOUS
10
3.09985
20
-2.70866
11
3.09926
21
-2.70748
0
LINE
8
BLACK
6
CONTINUOUS
10
3.09926
20
-2.70748
11
3.09877
21
-2.707
0
LINE
8
BLACK
6
CONTINUOUS
10
3.09877
20
-2.707
11
3.09738
21
-2.7063
0
LINE
8
BLACK
6
CONTINUOUS
10
3.09738
20
-2.7063
11
3.09407
21
-2.70547
0
LINE
8
BLACK
6
CONTINUOUS
10
3.09407
20
-2.70547
11
3.08987
21
-2.70547
0
LINE
8
BLACK
6
CONTINUOUS
10
3.08987
20
-2.70547
11
3.08657
21
-2.7063
0
LINE
8
BLACK
6
CONTINUOUS
10
3.33147
20
-2.70374
11
3.33232
21
-2.7043
0
LINE
8
BLACK
6
CONTINUOUS
10
3.33232
20
-2.7043
11
3.33348
21
-2.70462
0
LINE
8
BLACK
6
CONTINUOUS
10
3.33348
20
-2.70462
11
3.33536
21
-2.70474
0
LINE
8
BLACK
6
CONTINUOUS
10
3.33536
20
-2.70474
11
3.3355
21
-2.7048
0
LINE
8
BLACK
6
CONTINUOUS
10
3.3355
20
-2.7048
11
3.33565
21
-2.70478
0
LINE
8
BLACK
6
CONTINUOUS
10
3.33565
20
-2.70478
11
3.33599
21
-2.70505
0
LINE
8
BLACK
6
CONTINUOUS
10
3.33599
20
-2.70505
11
3.33638
21
-2.70524
0
LINE
8
BLACK
6
CONTINUOUS
10
3.33638
20
-2.70524
11
3.33642
21
-2.70538
0
LINE
8
BLACK
6
CONTINUOUS
10
3.33642
20
-2.70538
11
3.33655
21
-2.70547
0
LINE
8
BLACK
6
CONTINUOUS
10
3.33655
20
-2.70547
11
3.3366
21
-2.7059
0
LINE
8
BLACK
6
CONTINUOUS
10
3.3366
20
-2.7059
11
3.33674
21
-2.70631
0
LINE
8
BLACK
6
CONTINUOUS
10
3.33674
20
-2.70631
11
3.33667
21
-2.70644
0
LINE
8
BLACK
6
CONTINUOUS
10
3.33667
20
-2.70644
11
3.33669
21
-2.70659
0
LINE
8
BLACK
6
CONTINUOUS
10
3.33669
20
-2.70659
11
3.33643
21
-2.70693
0
LINE
8
BLACK
6
CONTINUOUS
10
3.33643
20
-2.70693
11
3.33624
21
-2.70732
0
LINE
8
BLACK
6
CONTINUOUS
10
3.33624
20
-2.70732
11
3.3361
21
-2.70737
0
LINE
8
BLACK
6
CONTINUOUS
10
3.3361
20
-2.70737
11
3.33601
21
-2.70749
0
LINE
8
BLACK
6
CONTINUOUS
10
3.33601
20
-2.70749
11
3.32706
21
-2.71266
0
LINE
8
BLACK
6
CONTINUOUS
10
3.32706
20
-2.71266
11
3.328
21
-2.7143
0
LINE
8
BLACK
6
CONTINUOUS
10
3.328
20
-2.7143
11
3.32815
21
-2.71542
0
LINE
8
BLACK
6
CONTINUOUS
10
3.32815
20
-2.71542
11
3.32746
21
-2.71632
0
LINE
8
BLACK
6
CONTINUOUS
10
3.32746
20
-2.71632
11
3.32634
21
-2.71646
0
LINE
8
BLACK
6
CONTINUOUS
10
3.32634
20
-2.71646
11
3.32545
21
-2.71578
0
LINE
8
BLACK
6
CONTINUOUS
10
3.32545
20
-2.71578
11
3.32207
21
-2.70993
0
LINE
8
BLACK
6
CONTINUOUS
10
3.32207
20
-2.70993
11
3.32192
21
-2.70881
0
LINE
8
BLACK
6
CONTINUOUS
10
3.32192
20
-2.70881
11
3.32261
21
-2.70791
0
LINE
8
BLACK
6
CONTINUOUS
10
3.32261
20
-2.70791
11
3.32373
21
-2.70777
0
LINE
8
BLACK
6
CONTINUOUS
10
3.32373
20
-2.70777
11
3.32463
21
-2.70846
0
LINE
8
BLACK
6
CONTINUOUS
10
3.32463
20
-2.70846
11
3.32558
21
-2.7101
0
LINE
8
BLACK
6
CONTINUOUS
10
3.32558
20
-2.7101
11
3.33106
21
-2.70693
0
LINE
8
BLACK
6
CONTINUOUS
10
3.33106
20
-2.70693
11
3.33089
21
-2.7069
0
LINE
8
BLACK
6
CONTINUOUS
10
3.33089
20
-2.7069
11
3.32984
21
-2.70621
0
LINE
8
BLACK
6
CONTINUOUS
10
3.32984
20
-2.70621
11
3.32921
21
-2.70527
0
LINE
8
BLACK
6
CONTINUOUS
10
3.32921
20
-2.70527
11
3.32943
21
-2.70416
0
LINE
8
BLACK
6
CONTINUOUS
10
3.32943
20
-2.70416
11
3.33036
21
-2.70353
0
LINE
8
BLACK
6
CONTINUOUS
10
3.33036
20
-2.70353
11
3.33147
21
-2.70374
0
LINE
8
BLACK
6
CONTINUOUS
10
3.28447
20
-2.69046
11
3.28595
21
-2.69144
0
LINE
8
BLACK
6
CONTINUOUS
10
3.28595
20
-2.69144
11
3.28802
21
-2.692
0
LINE
8
BLACK
6
CONTINUOUS
10
3.28802
20
-2.692
11
3.2912
21
-2.6922
0
LINE
8
BLACK
6
CONTINUOUS
10
3.2912
20
-2.6922
11
3.29138
21
-2.69229
0
LINE
8
BLACK
6
CONTINUOUS
10
3.29138
20
-2.69229
11
3.29158
21
-2.69226
0
LINE
8
BLACK
6
CONTINUOUS
10
3.29158
20
-2.69226
11
3.29203
21
-2.69261
0
LINE
8
BLACK
6
CONTINUOUS
10
3.29203
20
-2.69261
11
3.29255
21
-2.69287
0
LINE
8
BLACK
6
CONTINUOUS
10
3.29255
20
-2.69287
11
3.29261
21
-2.69306
0
LINE
8
BLACK
6
CONTINUOUS
10
3.29261
20
-2.69306
11
3.29277
21
-2.69318
0
LINE
8
BLACK
6
CONTINUOUS
10
3.29277
20
-2.69318
11
3.29285
21
-2.69375
0
LINE
8
BLACK
6
CONTINUOUS
10
3.29285
20
-2.69375
11
3.29303
21
-2.69429
0
LINE
8
BLACK
6
CONTINUOUS
10
3.29303
20
-2.69429
11
3.29294
21
-2.69447
0
LINE
8
BLACK
6
CONTINUOUS
10
3.29294
20
-2.69447
11
3.29297
21
-2.69468
0
LINE
8
BLACK
6
CONTINUOUS
10
3.29297
20
-2.69468
11
3.29262
21
-2.69513
0
LINE
8
BLACK
6
CONTINUOUS
10
3.29262
20
-2.69513
11
3.29237
21
-2.69564
0
LINE
8
BLACK
6
CONTINUOUS
10
3.29237
20
-2.69564
11
3.29218
21
-2.69571
0
LINE
8
BLACK
6
CONTINUOUS
10
3.29218
20
-2.69571
11
3.29205
21
-2.69587
0
LINE
8
BLACK
6
CONTINUOUS
10
3.29205
20
-2.69587
11
3.27671
21
-2.70473
0
LINE
8
BLACK
6
CONTINUOUS
10
3.27671
20
-2.70473
11
3.27854
21
-2.7079
0
LINE
8
BLACK
6
CONTINUOUS
10
3.27854
20
-2.7079
11
3.27873
21
-2.70939
0
LINE
8
BLACK
6
CONTINUOUS
10
3.27873
20
-2.70939
11
3.27782
21
-2.71058
0
LINE
8
BLACK
6
CONTINUOUS
10
3.27782
20
-2.71058
11
3.27632
21
-2.71078
0
LINE
8
BLACK
6
CONTINUOUS
10
3.27632
20
-2.71078
11
3.27513
21
-2.70986
0
LINE
8
BLACK
6
CONTINUOUS
10
3.27513
20
-2.70986
11
3.2695
21
-2.70012
0
LINE
8
BLACK
6
CONTINUOUS
10
3.2695
20
-2.70012
11
3.26931
21
-2.69863
0
LINE
8
BLACK
6
CONTINUOUS
10
3.26931
20
-2.69863
11
3.27022
21
-2.69743
0
LINE
8
BLACK
6
CONTINUOUS
10
3.27022
20
-2.69743
11
3.27172
21
-2.69724
0
LINE
8
BLACK
6
CONTINUOUS
10
3.27172
20
-2.69724
11
3.27291
21
-2.69815
0
LINE
8
BLACK
6
CONTINUOUS
10
3.27291
20
-2.69815
11
3.27474
21
-2.70132
0
LINE
8
BLACK
6
CONTINUOUS
10
3.27474
20
-2.70132
11
3.28516
21
-2.69531
0
LINE
8
BLACK
6
CONTINUOUS
10
3.28516
20
-2.69531
11
3.28463
21
-2.69516
0
LINE
8
BLACK
6
CONTINUOUS
10
3.28463
20
-2.69516
11
3.28437
21
-2.69497
0
LINE
8
BLACK
6
CONTINUOUS
10
3.28437
20
-2.69497
11
3.28405
21
-2.69491
0
LINE
8
BLACK
6
CONTINUOUS
10
3.28405
20
-2.69491
11
3.2823
21
-2.69375
0
LINE
8
BLACK
6
CONTINUOUS
10
3.2823
20
-2.69375
11
3.28146
21
-2.6925
0
LINE
8
BLACK
6
CONTINUOUS
10
3.28146
20
-2.6925
11
3.28174
21
-2.69102
0
LINE
8
BLACK
6
CONTINUOUS
10
3.28174
20
-2.69102
11
3.28299
21
-2.69018
0
LINE
8
BLACK
6
CONTINUOUS
10
3.28299
20
-2.69018
11
3.28447
21
-2.69046
0
LINE
8
BLACK
6
CONTINUOUS
10
3.14312
20
-2.68168
11
3.1437
21
-2.68307
0
LINE
8
BLACK
6
CONTINUOUS
10
3.1437
20
-2.68307
11
3.14312
21
-2.68446
0
LINE
8
BLACK
6
CONTINUOUS
10
3.14312
20
-2.68446
11
3.14173
21
-2.68504
0
LINE
8
BLACK
6
CONTINUOUS
10
3.14173
20
-2.68504
11
3.11811
21
-2.68504
0
LINE
8
BLACK
6
CONTINUOUS
10
3.11811
20
-2.68504
11
3.11811
21
-2.70866
0
LINE
8
BLACK
6
CONTINUOUS
10
3.11811
20
-2.70866
11
3.11753
21
-2.71005
0
LINE
8
BLACK
6
CONTINUOUS
10
3.11753
20
-2.71005
11
3.11614
21
-2.71063
0
LINE
8
BLACK
6
CONTINUOUS
10
3.11614
20
-2.71063
11
3.11475
21
-2.71005
0
LINE
8
BLACK
6
CONTINUOUS
10
3.11475
20
-2.71005
11
3.11417
21
-2.70866
0
LINE
8
BLACK
6
CONTINUOUS
10
3.11417
20
-2.70866
11
3.11417
21
-2.68307
0
LINE
8
BLACK
6
CONTINUOUS
10
3.11417
20
-2.68307
11
3.11475
21
-2.68168
0
LINE
8
BLACK
6
CONTINUOUS
10
3.11475
20
-2.68168
11
3.11614
21
-2.6811
0
LINE
8
BLACK
6
CONTINUOUS
10
3.11614
20
-2.6811
11
3.14173
21
-2.6811
0
LINE
8
BLACK
6
CONTINUOUS
10
3.14173
20
-2.6811
11
3.14312
21
-2.68168
0
LINE
8
BLACK
6
CONTINUOUS
10
2.9333
20
-2.68712
11
2.93373
21
-2.6871
0
LINE
8
BLACK
6
CONTINUOUS
10
2.93373
20
-2.6871
11
2.93385
21
-2.6872
0
LINE
8
BLACK
6
CONTINUOUS
10
2.93385
20
-2.6872
11
2.934
21
-2.68722
0
LINE
8
BLACK
6
CONTINUOUS
10
2.934
20
-2.68722
11
2.94295
21
-2.69238
0
LINE
8
BLACK
6
CONTINUOUS
10
2.94295
20
-2.69238
11
2.9439
21
-2.69074
0
LINE
8
BLACK
6
CONTINUOUS
10
2.9439
20
-2.69074
11
2.94479
21
-2.69005
0
LINE
8
BLACK
6
CONTINUOUS
10
2.94479
20
-2.69005
11
2.94591
21
-2.6902
0
LINE
8
BLACK
6
CONTINUOUS
10
2.94591
20
-2.6902
11
2.9466
21
-2.69109
0
LINE
8
BLACK
6
CONTINUOUS
10
2.9466
20
-2.69109
11
2.94645
21
-2.69222
0
LINE
8
BLACK
6
CONTINUOUS
10
2.94645
20
-2.69222
11
2.94308
21
-2.69806
0
LINE
8
BLACK
6
CONTINUOUS
10
2.94308
20
-2.69806
11
2.94218
21
-2.69875
0
LINE
8
BLACK
6
CONTINUOUS
10
2.94218
20
-2.69875
11
2.94106
21
-2.6986
0
LINE
8
BLACK
6
CONTINUOUS
10
2.94106
20
-2.6986
11
2.94037
21
-2.6977
0
LINE
8
BLACK
6
CONTINUOUS
10
2.94037
20
-2.6977
11
2.94052
21
-2.69658
0
LINE
8
BLACK
6
CONTINUOUS
10
2.94052
20
-2.69658
11
2.94147
21
-2.69494
0
LINE
8
BLACK
6
CONTINUOUS
10
2.94147
20
-2.69494
11
2.93599
21
-2.69177
0
LINE
8
BLACK
6
CONTINUOUS
10
2.93599
20
-2.69177
11
2.93604
21
-2.69194
0
LINE
8
BLACK
6
CONTINUOUS
10
2.93604
20
-2.69194
11
2.93597
21
-2.69319
0
LINE
8
BLACK
6
CONTINUOUS
10
2.93597
20
-2.69319
11
2.93547
21
-2.69421
0
LINE
8
BLACK
6
CONTINUOUS
10
2.93547
20
-2.69421
11
2.93441
21
-2.69458
0
LINE
8
BLACK
6
CONTINUOUS
10
2.93441
20
-2.69458
11
2.93339
21
-2.69408
0
LINE
8
BLACK
6
CONTINUOUS
10
2.93339
20
-2.69408
11
2.93302
21
-2.69302
0
LINE
8
BLACK
6
CONTINUOUS
10
2.93302
20
-2.69302
11
2.93308
21
-2.692
0
LINE
8
BLACK
6
CONTINUOUS
10
2.93308
20
-2.692
11
2.93277
21
-2.69083
0
LINE
8
BLACK
6
CONTINUOUS
10
2.93277
20
-2.69083
11
2.93194
21
-2.68915
0
LINE
8
BLACK
6
CONTINUOUS
10
2.93194
20
-2.68915
11
2.93193
21
-2.689
0
LINE
8
BLACK
6
CONTINUOUS
10
2.93193
20
-2.689
11
2.93183
21
-2.68888
0
LINE
8
BLACK
6
CONTINUOUS
10
2.93183
20
-2.68888
11
2.93189
21
-2.68845
0
LINE
8
BLACK
6
CONTINUOUS
10
2.93189
20
-2.68845
11
2.93186
21
-2.68802
0
LINE
8
BLACK
6
CONTINUOUS
10
2.93186
20
-2.68802
11
2.93196
21
-2.68791
0
LINE
8
BLACK
6
CONTINUOUS
10
2.93196
20
-2.68791
11
2.93198
21
-2.68776
0
LINE
8
BLACK
6
CONTINUOUS
10
2.93198
20
-2.68776
11
2.93232
21
-2.68749
0
LINE
8
BLACK
6
CONTINUOUS
10
2.93232
20
-2.68749
11
2.93261
21
-2.68717
0
LINE
8
BLACK
6
CONTINUOUS
10
2.93261
20
-2.68717
11
2.93276
21
-2.68716
0
LINE
8
BLACK
6
CONTINUOUS
10
2.93276
20
-2.68716
11
2.93288
21
-2.68707
0
LINE
8
BLACK
6
CONTINUOUS
10
2.93288
20
-2.68707
11
2.9333
21
-2.68712
0
LINE
8
BLACK
6
CONTINUOUS
10
3.28059
20
-2.67208
11
3.28293
21
-2.67613
0
LINE
8
BLACK
6
CONTINUOUS
10
3.28293
20
-2.67613
11
3.28297
21
-2.67646
0
LINE
8
BLACK
6
CONTINUOUS
10
3.28297
20
-2.67646
11
3.28315
21
-2.67672
0
LINE
8
BLACK
6
CONTINUOUS
10
3.28315
20
-2.67672
11
3.28375
21
-2.67963
0
LINE
8
BLACK
6
CONTINUOUS
10
3.28375
20
-2.67963
11
3.28366
21
-2.68008
0
LINE
8
BLACK
6
CONTINUOUS
10
3.28366
20
-2.68008
11
3.28372
21
-2.68053
0
LINE
8
BLACK
6
CONTINUOUS
10
3.28372
20
-2.68053
11
3.28304
21
-2.68309
0
LINE
8
BLACK
6
CONTINUOUS
10
3.28304
20
-2.68309
11
3.28284
21
-2.68335
0
LINE
8
BLACK
6
CONTINUOUS
10
3.28284
20
-2.68335
11
3.28278
21
-2.68367
0
LINE
8
BLACK
6
CONTINUOUS
10
3.28278
20
-2.68367
11
3.28162
21
-2.68542
0
LINE
8
BLACK
6
CONTINUOUS
10
3.28162
20
-2.68542
11
3.28144
21
-2.68554
0
LINE
8
BLACK
6
CONTINUOUS
10
3.28144
20
-2.68554
11
3.28135
21
-2.68575
0
LINE
8
BLACK
6
CONTINUOUS
10
3.28135
20
-2.68575
11
3.27857
21
-2.68843
0
LINE
8
BLACK
6
CONTINUOUS
10
3.27857
20
-2.68843
11
3.27834
21
-2.68853
0
LINE
8
BLACK
6
CONTINUOUS
10
3.27834
20
-2.68853
11
3.27819
21
-2.68872
0
LINE
8
BLACK
6
CONTINUOUS
10
3.27819
20
-2.68872
11
3.27575
21
-2.69013
0
LINE
8
BLACK
6
CONTINUOUS
10
3.27575
20
-2.69013
11
3.2755
21
-2.69016
0
LINE
8
BLACK
6
CONTINUOUS
10
3.2755
20
-2.69016
11
3.27531
21
-2.69032
0
LINE
8
BLACK
6
CONTINUOUS
10
3.27531
20
-2.69032
11
3.27159
21
-2.69138
0
LINE
8
BLACK
6
CONTINUOUS
10
3.27159
20
-2.69138
11
3.27137
21
-2.69136
0
LINE
8
BLACK
6
CONTINUOUS
10
3.27137
20
-2.69136
11
3.27117
21
-2.69145
0
LINE
8
BLACK
6
CONTINUOUS
10
3.27117
20
-2.69145
11
3.26908
21
-2.69158
0
LINE
8
BLACK
6
CONTINUOUS
10
3.26908
20
-2.69158
11
3.26877
21
-2.69147
0
LINE
8
BLACK
6
CONTINUOUS
10
3.26877
20
-2.69147
11
3.26845
21
-2.69152
0
LINE
8
BLACK
6
CONTINUOUS
10
3.26845
20
-2.69152
11
3.26589
21
-2.69083
0
LINE
8
BLACK
6
CONTINUOUS
10
3.26589
20
-2.69083
11
3.26552
21
-2.69055
0
LINE
8
BLACK
6
CONTINUOUS
10
3.26552
20
-2.69055
11
3.26509
21
-2.6904
0
LINE
8
BLACK
6
CONTINUOUS
10
3.26509
20
-2.6904
11
3.26287
21
-2.68843
0
LINE
8
BLACK
6
CONTINUOUS
10
3.26287
20
-2.68843
11
3.26273
21
-2.68814
0
LINE
8
BLACK
6
CONTINUOUS
10
3.26273
20
-2.68814
11
3.26247
21
-2.68795
0
LINE
8
BLACK
6
CONTINUOUS
10
3.26247
20
-2.68795
11
3.26013
21
-2.68389
0
LINE
8
BLACK
6
CONTINUOUS
10
3.26013
20
-2.68389
11
3.25993
21
-2.68239
0
LINE
8
BLACK
6
CONTINUOUS
10
3.25993
20
-2.68239
11
3.26085
21
-2.6812
0
LINE
8
BLACK
6
CONTINUOUS
10
3.26085
20
-2.6812
11
3.2779
21
-2.67135
0
LINE
8
BLACK
6
CONTINUOUS
10
3.2779
20
-2.67135
11
3.27939
21
-2.67116
0
LINE
8
BLACK
6
CONTINUOUS
10
3.27939
20
-2.67116
11
3.27939
21
-2.67116
0
LINE
8
BLACK
6
CONTINUOUS
10
3.27939
20
-2.67116
11
3.28059
21
-2.67208
0
LINE
8
BLACK
6
CONTINUOUS
10
3.26452
20
-2.68362
11
3.26572
21
-2.6857
0
LINE
8
BLACK
6
CONTINUOUS
10
3.26572
20
-2.6857
11
3.26735
21
-2.68715
0
LINE
8
BLACK
6
CONTINUOUS
10
3.26735
20
-2.68715
11
3.26916
21
-2.68763
0
LINE
8
BLACK
6
CONTINUOUS
10
3.26916
20
-2.68763
11
3.27072
21
-2.68754
0
LINE
8
BLACK
6
CONTINUOUS
10
3.27072
20
-2.68754
11
3.27399
21
-2.6866
0
LINE
8
BLACK
6
CONTINUOUS
10
3.27399
20
-2.6866
11
3.27601
21
-2.68544
0
LINE
8
BLACK
6
CONTINUOUS
10
3.27601
20
-2.68544
11
3.27846
21
-2.68307
0
LINE
8
BLACK
6
CONTINUOUS
10
3.27846
20
-2.68307
11
3.27932
21
-2.68177
0
LINE
8
BLACK
6
CONTINUOUS
10
3.27932
20
-2.68177
11
3.2798
21
-2.67996
0
LINE
8
BLACK
6
CONTINUOUS
10
3.2798
20
-2.67996
11
3.27936
21
-2.67783
0
LINE
8
BLACK
6
CONTINUOUS
10
3.27936
20
-2.67783
11
3.27816
21
-2.67575
0
LINE
8
BLACK
6
CONTINUOUS
10
3.27816
20
-2.67575
11
3.26452
21
-2.68362
0
LINE
8
BLACK
6
CONTINUOUS
10
3.30493
20
-2.64304
11
3.30512
21
-2.64453
0
LINE
8
BLACK
6
CONTINUOUS
10
3.30512
20
-2.64453
11
3.3042
21
-2.64572
0
LINE
8
BLACK
6
CONTINUOUS
10
3.3042
20
-2.64572
11
3.28375
21
-2.65754
0
LINE
8
BLACK
6
CONTINUOUS
10
3.28375
20
-2.65754
11
3.29556
21
-2.67799
0
LINE
8
BLACK
6
CONTINUOUS
10
3.29556
20
-2.67799
11
3.29575
21
-2.67949
0
LINE
8
BLACK
6
CONTINUOUS
10
3.29575
20
-2.67949
11
3.29484
21
-2.68068
0
LINE
8
BLACK
6
CONTINUOUS
10
3.29484
20
-2.68068
11
3.29334
21
-2.68088
0
LINE
8
BLACK
6
CONTINUOUS
10
3.29334
20
-2.68088
11
3.29215
21
-2.67996
0
LINE
8
BLACK
6
CONTINUOUS
10
3.29215
20
-2.67996
11
3.27935
21
-2.6578
0
LINE
8
BLACK
6
CONTINUOUS
10
3.27935
20
-2.6578
11
3.27916
21
-2.65631
0
LINE
8
BLACK
6
CONTINUOUS
10
3.27916
20
-2.65631
11
3.28007
21
-2.65511
0
LINE
8
BLACK
6
CONTINUOUS
10
3.28007
20
-2.65511
11
3.30224
21
-2.64232
0
LINE
8
BLACK
6
CONTINUOUS
10
3.30224
20
-2.64232
11
3.30373
21
-2.64212
0
LINE
8
BLACK
6
CONTINUOUS
10
3.30373
20
-2.64212
11
3.30493
21
-2.64304
0
LINE
8
BLACK
6
CONTINUOUS
10
2.91744
20
-2.64015
11
2.91764
21
-2.64024
0
LINE
8
BLACK
6
CONTINUOUS
10
2.91764
20
-2.64024
11
2.91786
21
-2.64022
0
LINE
8
BLACK
6
CONTINUOUS
10
2.91786
20
-2.64022
11
2.92158
21
-2.64128
0
LINE
8
BLACK
6
CONTINUOUS
10
2.92158
20
-2.64128
11
2.92177
21
-2.64144
0
LINE
8
BLACK
6
CONTINUOUS
10
2.92177
20
-2.64144
11
2.92202
21
-2.64147
0
LINE
8
BLACK
6
CONTINUOUS
10
2.92202
20
-2.64147
11
2.92445
21
-2.64287
0
LINE
8
BLACK
6
CONTINUOUS
10
2.92445
20
-2.64287
11
2.92461
21
-2.64307
0
LINE
8
BLACK
6
CONTINUOUS
10
2.92461
20
-2.64307
11
2.92484
21
-2.64316
0
LINE
8
BLACK
6
CONTINUOUS
10
2.92484
20
-2.64316
11
2.92762
21
-2.64585
0
LINE
8
BLACK
6
CONTINUOUS
10
2.92762
20
-2.64585
11
2.92771
21
-2.64606
0
LINE
8
BLACK
6
CONTINUOUS
10
2.92771
20
-2.64606
11
2.92789
21
-2.64618
0
LINE
8
BLACK
6
CONTINUOUS
10
2.92789
20
-2.64618
11
2.92905
21
-2.64793
0
LINE
8
BLACK
6
CONTINUOUS
10
2.92905
20
-2.64793
11
2.92911
21
-2.64825
0
LINE
8
BLACK
6
CONTINUOUS
10
2.92911
20
-2.64825
11
2.9293
21
-2.64851
0
LINE
8
BLACK
6
CONTINUOUS
10
2.9293
20
-2.64851
11
2.92999
21
-2.65107
0
LINE
8
BLACK
6
CONTINUOUS
10
2.92999
20
-2.65107
11
2.92993
21
-2.65152
0
LINE
8
BLACK
6
CONTINUOUS
10
2.92993
20
-2.65152
11
2.93002
21
-2.65197
0
LINE
8
BLACK
6
CONTINUOUS
10
2.93002
20
-2.65197
11
2.92942
21
-2.65487
0
LINE
8
BLACK
6
CONTINUOUS
10
2.92942
20
-2.65487
11
2.92924
21
-2.65514
0
LINE
8
BLACK
6
CONTINUOUS
10
2.92924
20
-2.65514
11
2.9292
21
-2.65546
0
LINE
8
BLACK
6
CONTINUOUS
10
2.9292
20
-2.65546
11
2.92686
21
-2.65952
0
LINE
8
BLACK
6
CONTINUOUS
10
2.92686
20
-2.65952
11
2.92566
21
-2.66044
0
LINE
8
BLACK
6
CONTINUOUS
10
2.92566
20
-2.66044
11
2.92566
21
-2.66044
0
LINE
8
BLACK
6
CONTINUOUS
10
2.92566
20
-2.66044
11
2.92566
21
-2.66044
0
LINE
8
BLACK
6
CONTINUOUS
10
2.92566
20
-2.66044
11
2.92417
21
-2.66024
0
LINE
8
BLACK
6
CONTINUOUS
10
2.92417
20
-2.66024
11
2.90712
21
-2.6504
0
LINE
8
BLACK
6
CONTINUOUS
10
2.90712
20
-2.6504
11
2.9062
21
-2.64921
0
LINE
8
BLACK
6
CONTINUOUS
10
2.9062
20
-2.64921
11
2.9064
21
-2.64771
0
LINE
8
BLACK
6
CONTINUOUS
10
2.9064
20
-2.64771
11
2.90874
21
-2.64365
0
LINE
8
BLACK
6
CONTINUOUS
10
2.90874
20
-2.64365
11
2.909
21
-2.64346
0
LINE
8
BLACK
6
CONTINUOUS
10
2.909
20
-2.64346
11
2.90914
21
-2.64316
0
LINE
8
BLACK
6
CONTINUOUS
10
2.90914
20
-2.64316
11
2.91136
21
-2.6412
0
LINE
8
BLACK
6
CONTINUOUS
10
2.91136
20
-2.6412
11
2.91179
21
-2.64105
0
LINE
8
BLACK
6
CONTINUOUS
10
2.91179
20
-2.64105
11
2.91216
21
-2.64077
0
LINE
8
BLACK
6
CONTINUOUS
10
2.91216
20
-2.64077
11
2.91472
21
-2.64008
0
LINE
8
BLACK
6
CONTINUOUS
10
2.91472
20
-2.64008
11
2.91504
21
-2.64013
0
LINE
8
BLACK
6
CONTINUOUS
10
2.91504
20
-2.64013
11
2.91534
21
-2.64002
0
LINE
8
BLACK
6
CONTINUOUS
10
2.91534
20
-2.64002
11
2.91744
21
-2.64015
0
LINE
8
BLACK
6
CONTINUOUS
10
2.91362
20
-2.64445
11
2.91199
21
-2.6459
0
LINE
8
BLACK
6
CONTINUOUS
10
2.91199
20
-2.6459
11
2.91079
21
-2.64798
0
LINE
8
BLACK
6
CONTINUOUS
10
2.91079
20
-2.64798
11
2.92443
21
-2.65585
0
LINE
8
BLACK
6
CONTINUOUS
10
2.92443
20
-2.65585
11
2.92563
21
-2.65377
0
LINE
8
BLACK
6
CONTINUOUS
10
2.92563
20
-2.65377
11
2.92607
21
-2.65164
0
LINE
8
BLACK
6
CONTINUOUS
10
2.92607
20
-2.65164
11
2.92558
21
-2.64983
0
LINE
8
BLACK
6
CONTINUOUS
10
2.92558
20
-2.64983
11
2.92472
21
-2.64853
0
LINE
8
BLACK
6
CONTINUOUS
10
2.92472
20
-2.64853
11
2.92228
21
-2.64616
0
LINE
8
BLACK
6
CONTINUOUS
10
2.92228
20
-2.64616
11
2.92026
21
-2.645
0
LINE
8
BLACK
6
CONTINUOUS
10
2.92026
20
-2.645
11
2.91698
21
-2.64406
0
LINE
8
BLACK
6
CONTINUOUS
10
2.91698
20
-2.64406
11
2.91543
21
-2.64397
0
LINE
8
BLACK
6
CONTINUOUS
10
2.91543
20
-2.64397
11
2.91362
21
-2.64445
0
LINE
8
BLACK
6
CONTINUOUS
10
2.96118
20
-2.62165
11
2.98334
21
-2.63444
0
LINE
8
BLACK
6
CONTINUOUS
10
2.98334
20
-2.63444
11
2.98426
21
-2.63564
0
LINE
8
BLACK
6
CONTINUOUS
10
2.98426
20
-2.63564
11
2.98406
21
-2.63713
0
LINE
8
BLACK
6
CONTINUOUS
10
2.98406
20
-2.63713
11
2.98286
21
-2.63805
0
LINE
8
BLACK
6
CONTINUOUS
10
2.98286
20
-2.63805
11
2.98137
21
-2.63785
0
LINE
8
BLACK
6
CONTINUOUS
10
2.98137
20
-2.63785
11
2.96091
21
-2.62604
0
LINE
8
BLACK
6
CONTINUOUS
10
2.96091
20
-2.62604
11
2.9491
21
-2.6465
0
LINE
8
BLACK
6
CONTINUOUS
10
2.9491
20
-2.6465
11
2.94791
21
-2.64741
0
LINE
8
BLACK
6
CONTINUOUS
10
2.94791
20
-2.64741
11
2.94641
21
-2.64722
0
LINE
8
BLACK
6
CONTINUOUS
10
2.94641
20
-2.64722
11
2.9455
21
-2.64602
0
LINE
8
BLACK
6
CONTINUOUS
10
2.9455
20
-2.64602
11
2.94569
21
-2.64453
0
LINE
8
BLACK
6
CONTINUOUS
10
2.94569
20
-2.64453
11
2.95849
21
-2.62237
0
LINE
8
BLACK
6
CONTINUOUS
10
2.95849
20
-2.62237
11
2.95968
21
-2.62145
0
LINE
8
BLACK
6
CONTINUOUS
10
2.95968
20
-2.62145
11
2.96118
21
-2.62165
0
LINE
8
BLACK
6
CONTINUOUS
10
2.92647
20
-2.62263
11
2.92688
21
-2.62283
0
LINE
8
BLACK
6
CONTINUOUS
10
2.92688
20
-2.62283
11
2.92733
21
-2.62289
0
LINE
8
BLACK
6
CONTINUOUS
10
2.92733
20
-2.62289
11
2.93383
21
-2.62664
0
LINE
8
BLACK
6
CONTINUOUS
10
2.93383
20
-2.62664
11
2.93398
21
-2.62684
0
LINE
8
BLACK
6
CONTINUOUS
10
2.93398
20
-2.62684
11
2.93421
21
-2.62693
0
LINE
8
BLACK
6
CONTINUOUS
10
2.93421
20
-2.62693
11
2.93699
21
-2.62961
0
LINE
8
BLACK
6
CONTINUOUS
10
2.93699
20
-2.62961
11
2.93713
21
-2.62993
0
LINE
8
BLACK
6
CONTINUOUS
10
2.93713
20
-2.62993
11
2.93739
21
-2.63016
0
LINE
8
BLACK
6
CONTINUOUS
10
2.93739
20
-2.63016
11
2.93888
21
-2.63319
0
LINE
8
BLACK
6
CONTINUOUS
10
2.93888
20
-2.63319
11
2.9389
21
-2.63339
0
LINE
8
BLACK
6
CONTINUOUS
10
2.9389
20
-2.63339
11
2.93902
21
-2.63355
0
LINE
8
BLACK
6
CONTINUOUS
10
2.93902
20
-2.63355
11
2.93936
21
-2.63483
0
LINE
8
BLACK
6
CONTINUOUS
10
2.93936
20
-2.63483
11
2.93932
21
-2.63515
0
LINE
8
BLACK
6
CONTINUOUS
10
2.93932
20
-2.63515
11
2.93943
21
-2.63546
0
LINE
8
BLACK
6
CONTINUOUS
10
2.93943
20
-2.63546
11
2.9393
21
-2.63755
0
LINE
8
BLACK
6
CONTINUOUS
10
2.9393
20
-2.63755
11
2.9391
21
-2.63796
0
LINE
8
BLACK
6
CONTINUOUS
10
2.9391
20
-2.63796
11
2.93904
21
-2.63842
0
LINE
8
BLACK
6
CONTINUOUS
10
2.93904
20
-2.63842
11
2.93717
21
-2.64166
0
LINE
8
BLACK
6
CONTINUOUS
10
2.93717
20
-2.64166
11
2.93597
21
-2.64258
0
LINE
8
BLACK
6
CONTINUOUS
10
2.93597
20
-2.64258
11
2.93448
21
-2.64238
0
LINE
8
BLACK
6
CONTINUOUS
10
2.93448
20
-2.64238
11
2.93356
21
-2.64119
0
LINE
8
BLACK
6
CONTINUOUS
10
2.93356
20
-2.64119
11
2.93376
21
-2.6397
0
LINE
8
BLACK
6
CONTINUOUS
10
2.93376
20
-2.6397
11
2.9354
21
-2.63685
0
LINE
8
BLACK
6
CONTINUOUS
10
2.9354
20
-2.63685
11
2.93548
21
-2.63554
0
LINE
8
BLACK
6
CONTINUOUS
10
2.93548
20
-2.63554
11
2.93527
21
-2.63476
0
LINE
8
BLACK
6
CONTINUOUS
10
2.93527
20
-2.63476
11
2.93401
21
-2.63221
0
LINE
8
BLACK
6
CONTINUOUS
10
2.93401
20
-2.63221
11
2.93376
21
-2.63197
0
LINE
8
BLACK
6
CONTINUOUS
10
2.93376
20
-2.63197
11
2.93375
21
-2.63218
0
LINE
8
BLACK
6
CONTINUOUS
10
2.93375
20
-2.63218
11
2.93355
21
-2.63259
0
LINE
8
BLACK
6
CONTINUOUS
10
2.93355
20
-2.63259
11
2.93349
21
-2.63304
0
LINE
8
BLACK
6
CONTINUOUS
10
2.93349
20
-2.63304
11
2.93161
21
-2.63629
0
LINE
8
BLACK
6
CONTINUOUS
10
2.93161
20
-2.63629
11
2.93125
21
-2.63657
0
LINE
8
BLACK
6
CONTINUOUS
10
2.93125
20
-2.63657
11
2.93099
21
-2.63695
0
LINE
8
BLACK
6
CONTINUOUS
10
2.93099
20
-2.63695
11
2.92924
21
-2.6381
0
LINE
8
BLACK
6
CONTINUOUS
10
2.92924
20
-2.6381
11
2.92892
21
-2.63817
0
LINE
8
BLACK
6
CONTINUOUS
10
2.92892
20
-2.63817
11
2.92867
21
-2.63836
0
LINE
8
BLACK
6
CONTINUOUS
10
2.92867
20
-2.63836
11
2.92739
21
-2.63871
0
LINE
8
BLACK
6
CONTINUOUS
10
2.92739
20
-2.63871
11
2.92706
21
-2.63866
0
LINE
8
BLACK
6
CONTINUOUS
10
2.92706
20
-2.63866
11
2.92676
21
-2.63877
0
LINE
8
BLACK
6
CONTINUOUS
10
2.92676
20
-2.63877
11
2.92467
21
-2.63864
0
LINE
8
BLACK
6
CONTINUOUS
10
2.92467
20
-2.63864
11
2.92425
21
-2.63844
0
LINE
8
BLACK
6
CONTINUOUS
10
2.92425
20
-2.63844
11
2.9238
21
-2.63838
0
LINE
8
BLACK
6
CONTINUOUS
10
2.9238
20
-2.63838
11
2.91974
21
-2.63604
0
LINE
8
BLACK
6
CONTINUOUS
10
2.91974
20
-2.63604
11
2.91946
21
-2.63568
0
LINE
8
BLACK
6
CONTINUOUS
10
2.91946
20
-2.63568
11
2.91908
21
-2.63542
0
LINE
8
BLACK
6
CONTINUOUS
10
2.91908
20
-2.63542
11
2.91793
21
-2.63367
0
LINE
8
BLACK
6
CONTINUOUS
10
2.91793
20
-2.63367
11
2.91787
21
-2.63335
0
LINE
8
BLACK
6
CONTINUOUS
10
2.91787
20
-2.63335
11
2.91767
21
-2.6331
0
LINE
8
BLACK
6
CONTINUOUS
10
2.91767
20
-2.6331
11
2.91733
21
-2.63182
0
LINE
8
BLACK
6
CONTINUOUS
10
2.91733
20
-2.63182
11
2.91737
21
-2.63149
0
LINE
8
BLACK
6
CONTINUOUS
10
2.91737
20
-2.63149
11
2.91726
21
-2.63119
0
LINE
8
BLACK
6
CONTINUOUS
10
2.91726
20
-2.63119
11
2.91739
21
-2.6291
0
LINE
8
BLACK
6
CONTINUOUS
10
2.91739
20
-2.6291
11
2.91759
21
-2.62868
0
LINE
8
BLACK
6
CONTINUOUS
10
2.91759
20
-2.62868
11
2.91765
21
-2.62823
0
LINE
8
BLACK
6
CONTINUOUS
10
2.91765
20
-2.62823
11
2.91952
21
-2.62498
0
LINE
8
BLACK
6
CONTINUOUS
10
2.91952
20
-2.62498
11
2.91989
21
-2.6247
0
LINE
8
BLACK
6
CONTINUOUS
10
2.91989
20
-2.6247
11
2.92014
21
-2.62432
0
LINE
8
BLACK
6
CONTINUOUS
10
2.92014
20
-2.62432
11
2.92189
21
-2.62317
0
LINE
8
BLACK
6
CONTINUOUS
10
2.92189
20
-2.62317
11
2.92221
21
-2.62311
0
LINE
8
BLACK
6
CONTINUOUS
10
2.92221
20
-2.62311
11
2.92247
21
-2.62291
0
LINE
8
BLACK
6
CONTINUOUS
10
2.92247
20
-2.62291
11
2.92375
21
-2.62257
0
LINE
8
BLACK
6
CONTINUOUS
10
2.92375
20
-2.62257
11
2.92407
21
-2.62261
0
LINE
8
BLACK
6
CONTINUOUS
10
2.92407
20
-2.62261
11
2.92438
21
-2.6225
0
LINE
8
BLACK
6
CONTINUOUS
10
2.92438
20
-2.6225
11
2.92647
21
-2.62263
0
LINE
8
BLACK
6
CONTINUOUS
10
2.92379
20
-2.62663
11
2.9227
21
-2.62735
0
LINE
8
BLACK
6
CONTINUOUS
10
2.9227
20
-2.62735
11
2.92129
21
-2.6298
0
LINE
8
BLACK
6
CONTINUOUS
10
2.92129
20
-2.6298
11
2.92121
21
-2.6311
0
LINE
8
BLACK
6
CONTINUOUS
10
2.92121
20
-2.6311
11
2.92139
21
-2.63177
0
LINE
8
BLACK
6
CONTINUOUS
10
2.92139
20
-2.63177
11
2.92211
21
-2.63286
0
LINE
8
BLACK
6
CONTINUOUS
10
2.92211
20
-2.63286
11
2.92537
21
-2.63474
0
LINE
8
BLACK
6
CONTINUOUS
10
2.92537
20
-2.63474
11
2.92668
21
-2.63482
0
LINE
8
BLACK
6
CONTINUOUS
10
2.92668
20
-2.63482
11
2.92734
21
-2.63464
0
LINE
8
BLACK
6
CONTINUOUS
10
2.92734
20
-2.63464
11
2.92843
21
-2.63392
0
LINE
8
BLACK
6
CONTINUOUS
10
2.92843
20
-2.63392
11
2.92984
21
-2.63148
0
LINE
8
BLACK
6
CONTINUOUS
10
2.92984
20
-2.63148
11
2.92992
21
-2.63017
0
LINE
8
BLACK
6
CONTINUOUS
10
2.92992
20
-2.63017
11
2.92974
21
-2.6295
0
LINE
8
BLACK
6
CONTINUOUS
10
2.92974
20
-2.6295
11
2.92902
21
-2.62841
0
LINE
8
BLACK
6
CONTINUOUS
10
2.92902
20
-2.62841
11
2.92577
21
-2.62653
0
LINE
8
BLACK
6
CONTINUOUS
10
2.92577
20
-2.62653
11
2.92446
21
-2.62645
0
LINE
8
BLACK
6
CONTINUOUS
10
2.92446
20
-2.62645
11
2.92379
21
-2.62663
0
LINE
8
BLACK
6
CONTINUOUS
10
3.44862
20
-2.584
11
3.44903
21
-2.5842
0
LINE
8
BLACK
6
CONTINUOUS
10
3.44903
20
-2.5842
11
3.44949
21
-2.58426
0
LINE
8
BLACK
6
CONTINUOUS
10
3.44949
20
-2.58426
11
3.45355
21
-2.58661
0
LINE
8
BLACK
6
CONTINUOUS
10
3.45355
20
-2.58661
11
3.45383
21
-2.58697
0
LINE
8
BLACK
6
CONTINUOUS
10
3.45383
20
-2.58697
11
3.45421
21
-2.58723
0
LINE
8
BLACK
6
CONTINUOUS
10
3.45421
20
-2.58723
11
3.45536
21
-2.58898
0
LINE
8
BLACK
6
CONTINUOUS
10
3.45536
20
-2.58898
11
3.45542
21
-2.58929
0
LINE
8
BLACK
6
CONTINUOUS
10
3.45542
20
-2.58929
11
3.45562
21
-2.58955
0
LINE
8
BLACK
6
CONTINUOUS
10
3.45562
20
-2.58955
11
3.45596
21
-2.59083
0
LINE
8
BLACK
6
CONTINUOUS
10
3.45596
20
-2.59083
11
3.45592
21
-2.59115
0
LINE
8
BLACK
6
CONTINUOUS
10
3.45592
20
-2.59115
11
3.45603
21
-2.59146
0
LINE
8
BLACK
6
CONTINUOUS
10
3.45603
20
-2.59146
11
3.4559
21
-2.59355
0
LINE
8
BLACK
6
CONTINUOUS
10
3.4559
20
-2.59355
11
3.4557
21
-2.59396
0
LINE
8
BLACK
6
CONTINUOUS
10
3.4557
20
-2.59396
11
3.45564
21
-2.59442
0
LINE
8
BLACK
6
CONTINUOUS
10
3.45564
20
-2.59442
11
3.4547
21
-2.59604
0
LINE
8
BLACK
6
CONTINUOUS
10
3.4547
20
-2.59604
11
3.45445
21
-2.59624
0
LINE
8
BLACK
6
CONTINUOUS
10
3.45445
20
-2.59624
11
3.4543
21
-2.59653
0
LINE
8
BLACK
6
CONTINUOUS
10
3.4543
20
-2.59653
11
3.45209
21
-2.5985
0
LINE
8
BLACK
6
CONTINUOUS
10
3.45209
20
-2.5985
11
3.45165
21
-2.59865
0
LINE
8
BLACK
6
CONTINUOUS
10
3.45165
20
-2.59865
11
3.45129
21
-2.59892
0
LINE
8
BLACK
6
CONTINUOUS
10
3.45129
20
-2.59892
11
3.44051
21
-2.60181
0
LINE
8
BLACK
6
CONTINUOUS
10
3.44051
20
-2.60181
11
3.44695
21
-2.60553
0
LINE
8
BLACK
6
CONTINUOUS
10
3.44695
20
-2.60553
11
3.44787
21
-2.60672
0
LINE
8
BLACK
6
CONTINUOUS
10
3.44787
20
-2.60672
11
3.44767
21
-2.60822
0
LINE
8
BLACK
6
CONTINUOUS
10
3.44767
20
-2.60822
11
3.44648
21
-2.60913
0
LINE
8
BLACK
6
CONTINUOUS
10
3.44648
20
-2.60913
11
3.44498
21
-2.60894
0
LINE
8
BLACK
6
CONTINUOUS
10
3.44498
20
-2.60894
11
3.43443
21
-2.60285
0
LINE
8
BLACK
6
CONTINUOUS
10
3.43443
20
-2.60285
11
3.43351
21
-2.60165
0
LINE
8
BLACK
6
CONTINUOUS
10
3.43351
20
-2.60165
11
3.43371
21
-2.60016
0
LINE
8
BLACK
6
CONTINUOUS
10
3.43371
20
-2.60016
11
3.43491
21
-2.59924
0
LINE
8
BLACK
6
CONTINUOUS
10
3.43491
20
-2.59924
11
3.44982
21
-2.59524
0
LINE
8
BLACK
6
CONTINUOUS
10
3.44982
20
-2.59524
11
3.45145
21
-2.5938
0
LINE
8
BLACK
6
CONTINUOUS
10
3.45145
20
-2.5938
11
3.452
21
-2.59285
0
LINE
8
BLACK
6
CONTINUOUS
10
3.452
20
-2.59285
11
3.45208
21
-2.59154
0
LINE
8
BLACK
6
CONTINUOUS
10
3.45208
20
-2.59154
11
3.4519
21
-2.59088
0
LINE
8
BLACK
6
CONTINUOUS
10
3.4519
20
-2.59088
11
3.45118
21
-2.58978
0
LINE
8
BLACK
6
CONTINUOUS
10
3.45118
20
-2.58978
11
3.44792
21
-2.5879
0
LINE
8
BLACK
6
CONTINUOUS
10
3.44792
20
-2.5879
11
3.44661
21
-2.58783
0
LINE
8
BLACK
6
CONTINUOUS
10
3.44661
20
-2.58783
11
3.44564
21
-2.58809
0
LINE
8
BLACK
6
CONTINUOUS
10
3.44564
20
-2.58809
11
3.44415
21
-2.58789
0
LINE
8
BLACK
6
CONTINUOUS
10
3.44415
20
-2.58789
11
3.44323
21
-2.58669
0
LINE
8
BLACK
6
CONTINUOUS
10
3.44323
20
-2.58669
11
3.44343
21
-2.5852
0
LINE
8
BLACK
6
CONTINUOUS
10
3.44343
20
-2.5852
11
3.44462
21
-2.58428
0
LINE
8
BLACK
6
CONTINUOUS
10
3.44462
20
-2.58428
11
3.4459
21
-2.58394
0
LINE
8
BLACK
6
CONTINUOUS
10
3.4459
20
-2.58394
11
3.44622
21
-2.58398
0
LINE
8
BLACK
6
CONTINUOUS
10
3.44622
20
-2.58398
11
3.44653
21
-2.58388
0
LINE
8
BLACK
6
CONTINUOUS
10
3.44653
20
-2.58388
11
3.44862
21
-2.584
0
LINE
8
BLACK
6
CONTINUOUS
10
3.43476
20
-2.57617
11
3.43533
21
-2.57613
0
LINE
8
BLACK
6
CONTINUOUS
10
3.43533
20
-2.57613
11
3.43549
21
-2.57627
0
LINE
8
BLACK
6
CONTINUOUS
10
3.43549
20
-2.57627
11
3.43569
21
-2.57629
0
LINE
8
BLACK
6
CONTINUOUS
10
3.43569
20
-2.57629
11
3.43604
21
-2.57675
0
LINE
8
BLACK
6
CONTINUOUS
10
3.43604
20
-2.57675
11
3.43647
21
-2.57713
0
LINE
8
BLACK
6
CONTINUOUS
10
3.43647
20
-2.57713
11
3.43648
21
-2.57733
0
LINE
8
BLACK
6
CONTINUOUS
10
3.43648
20
-2.57733
11
3.43661
21
-2.57749
0
LINE
8
BLACK
6
CONTINUOUS
10
3.43661
20
-2.57749
11
3.43653
21
-2.57806
0
LINE
8
BLACK
6
CONTINUOUS
10
3.43653
20
-2.57806
11
3.43657
21
-2.57863
0
LINE
8
BLACK
6
CONTINUOUS
10
3.43657
20
-2.57863
11
3.43644
21
-2.57878
0
LINE
8
BLACK
6
CONTINUOUS
10
3.43644
20
-2.57878
11
3.43641
21
-2.57898
0
LINE
8
BLACK
6
CONTINUOUS
10
3.43641
20
-2.57898
11
3.42755
21
-2.59433
0
LINE
8
BLACK
6
CONTINUOUS
10
3.42755
20
-2.59433
11
3.43072
21
-2.59615
0
LINE
8
BLACK
6
CONTINUOUS
10
3.43072
20
-2.59615
11
3.43163
21
-2.59735
0
LINE
8
BLACK
6
CONTINUOUS
10
3.43163
20
-2.59735
11
3.43144
21
-2.59884
0
LINE
8
BLACK
6
CONTINUOUS
10
3.43144
20
-2.59884
11
3.43024
21
-2.59976
0
LINE
8
BLACK
6
CONTINUOUS
10
3.43024
20
-2.59976
11
3.42875
21
-2.59956
0
LINE
8
BLACK
6
CONTINUOUS
10
3.42875
20
-2.59956
11
3.42388
21
-2.59675
0
LINE
8
BLACK
6
CONTINUOUS
10
3.42388
20
-2.59675
11
3.42388
21
-2.59675
0
LINE
8
BLACK
6
CONTINUOUS
10
3.42388
20
-2.59675
11
3.42388
21
-2.59675
0
LINE
8
BLACK
6
CONTINUOUS
10
3.42388
20
-2.59675
11
3.41901
21
-2.59394
0
LINE
8
BLACK
6
CONTINUOUS
10
3.41901
20
-2.59394
11
3.41809
21
-2.59274
0
LINE
8
BLACK
6
CONTINUOUS
10
3.41809
20
-2.59274
11
3.41829
21
-2.59125
0
LINE
8
BLACK
6
CONTINUOUS
10
3.41829
20
-2.59125
11
3.41948
21
-2.59033
0
LINE
8
BLACK
6
CONTINUOUS
10
3.41948
20
-2.59033
11
3.42098
21
-2.59053
0
LINE
8
BLACK
6
CONTINUOUS
10
3.42098
20
-2.59053
11
3.42414
21
-2.59236
0
LINE
8
BLACK
6
CONTINUOUS
10
3.42414
20
-2.59236
11
3.43015
21
-2.58194
0
LINE
8
BLACK
6
CONTINUOUS
10
3.43015
20
-2.58194
11
3.42962
21
-2.58209
0
LINE
8
BLACK
6
CONTINUOUS
10
3.42962
20
-2.58209
11
3.4293
21
-2.58204
0
LINE
8
BLACK
6
CONTINUOUS
10
3.4293
20
-2.58204
11
3.429
21
-2.58215
0
LINE
8
BLACK
6
CONTINUOUS
10
3.429
20
-2.58215
11
3.4269
21
-2.58202
0
LINE
8
BLACK
6
CONTINUOUS
10
3.4269
20
-2.58202
11
3.42555
21
-2.58136
0
LINE
8
BLACK
6
CONTINUOUS
10
3.42555
20
-2.58136
11
3.42506
21
-2.57994
0
LINE
8
BLACK
6
CONTINUOUS
10
3.42506
20
-2.57994
11
3.42572
21
-2.57859
0
LINE
8
BLACK
6
CONTINUOUS
10
3.42572
20
-2.57859
11
3.42714
21
-2.57809
0
LINE
8
BLACK
6
CONTINUOUS
10
3.42714
20
-2.57809
11
3.42891
21
-2.5782
0
LINE
8
BLACK
6
CONTINUOUS
10
3.42891
20
-2.5782
11
3.43098
21
-2.57765
0
LINE
8
BLACK
6
CONTINUOUS
10
3.43098
20
-2.57765
11
3.43383
21
-2.57624
0
LINE
8
BLACK
6
CONTINUOUS
10
3.43383
20
-2.57624
11
3.43403
21
-2.57622
0
LINE
8
BLACK
6
CONTINUOUS
10
3.43403
20
-2.57622
11
3.43419
21
-2.5761
0
LINE
8
BLACK
6
CONTINUOUS
10
3.43419
20
-2.5761
11
3.43476
21
-2.57617
0
LINE
8
BLACK
6
CONTINUOUS
10
3.41458
20
-2.56411
11
3.41864
21
-2.56645
0
LINE
8
BLACK
6
CONTINUOUS
10
3.41864
20
-2.56645
11
3.41884
21
-2.56671
0
LINE
8
BLACK
6
CONTINUOUS
10
3.41884
20
-2.56671
11
3.41913
21
-2.56685
0
LINE
8
BLACK
6
CONTINUOUS
10
3.41913
20
-2.56685
11
3.4211
21
-2.56907
0
LINE
8
BLACK
6
CONTINUOUS
10
3.4211
20
-2.56907
11
3.42125
21
-2.5695
0
LINE
8
BLACK
6
CONTINUOUS
10
3.42125
20
-2.5695
11
3.42152
21
-2.56987
0
LINE
8
BLACK
6
CONTINUOUS
10
3.42152
20
-2.56987
11
3.42221
21
-2.57243
0
LINE
8
BLACK
6
CONTINUOUS
10
3.42221
20
-2.57243
11
3.42217
21
-2.57275
0
LINE
8
BLACK
6
CONTINUOUS
10
3.42217
20
-2.57275
11
3.42227
21
-2.57305
0
LINE
8
BLACK
6
CONTINUOUS
10
3.42227
20
-2.57305
11
3.42215
21
-2.57515
0
LINE
8
BLACK
6
CONTINUOUS
10
3.42215
20
-2.57515
11
3.42205
21
-2.57535
0
LINE
8
BLACK
6
CONTINUOUS
10
3.42205
20
-2.57535
11
3.42208
21
-2.57557
0
LINE
8
BLACK
6
CONTINUOUS
10
3.42208
20
-2.57557
11
3.42101
21
-2.57929
0
LINE
8
BLACK
6
CONTINUOUS
10
3.42101
20
-2.57929
11
3.42086
21
-2.57948
0
LINE
8
BLACK
6
CONTINUOUS
10
3.42086
20
-2.57948
11
3.42083
21
-2.57973
0
LINE
8
BLACK
6
CONTINUOUS
10
3.42083
20
-2.57973
11
3.41942
21
-2.58216
0
LINE
8
BLACK
6
CONTINUOUS
10
3.41942
20
-2.58216
11
3.41922
21
-2.58232
0
LINE
8
BLACK
6
CONTINUOUS
10
3.41922
20
-2.58232
11
3.41913
21
-2.58255
0
LINE
8
BLACK
6
CONTINUOUS
10
3.41913
20
-2.58255
11
3.41644
21
-2.58533
0
LINE
8
BLACK
6
CONTINUOUS
10
3.41644
20
-2.58533
11
3.41624
21
-2.58542
0
LINE
8
BLACK
6
CONTINUOUS
10
3.41624
20
-2.58542
11
3.41611
21
-2.5856
0
LINE
8
BLACK
6
CONTINUOUS
10
3.41611
20
-2.5856
11
3.41436
21
-2.58676
0
LINE
8
BLACK
6
CONTINUOUS
10
3.41436
20
-2.58676
11
3.41405
21
-2.58682
0
LINE
8
BLACK
6
CONTINUOUS
10
3.41405
20
-2.58682
11
3.41379
21
-2.58701
0
LINE
8
BLACK
6
CONTINUOUS
10
3.41379
20
-2.58701
11
3.41123
21
-2.5877
0
LINE
8
BLACK
6
CONTINUOUS
10
3.41123
20
-2.5877
11
3.41077
21
-2.58764
0
LINE
8
BLACK
6
CONTINUOUS
10
3.41077
20
-2.58764
11
3.41032
21
-2.58773
0
LINE
8
BLACK
6
CONTINUOUS
10
3.41032
20
-2.58773
11
3.40742
21
-2.58713
0
LINE
8
BLACK
6
CONTINUOUS
10
3.40742
20
-2.58713
11
3.40715
21
-2.58695
0
LINE
8
BLACK
6
CONTINUOUS
10
3.40715
20
-2.58695
11
3.40683
21
-2.58691
0
LINE
8
BLACK
6
CONTINUOUS
10
3.40683
20
-2.58691
11
3.40277
21
-2.58457
0
LINE
8
BLACK
6
CONTINUOUS
10
3.40277
20
-2.58457
11
3.40185
21
-2.58337
0
LINE
8
BLACK
6
CONTINUOUS
10
3.40185
20
-2.58337
11
3.40205
21
-2.58188
0
LINE
8
BLACK
6
CONTINUOUS
10
3.40205
20
-2.58188
11
3.41189
21
-2.56483
0
LINE
8
BLACK
6
CONTINUOUS
10
3.41189
20
-2.56483
11
3.41309
21
-2.56391
0
LINE
8
BLACK
6
CONTINUOUS
10
3.41309
20
-2.56391
11
3.41458
21
-2.56411
0
LINE
8
BLACK
6
CONTINUOUS
10
3.40644
20
-2.58214
11
3.40852
21
-2.58334
0
LINE
8
BLACK
6
CONTINUOUS
10
3.40852
20
-2.58334
11
3.41066
21
-2.58378
0
LINE
8
BLACK
6
CONTINUOUS
10
3.41066
20
-2.58378
11
3.41246
21
-2.58329
0
LINE
8
BLACK
6
CONTINUOUS
10
3.41246
20
-2.58329
11
3.41376
21
-2.58243
0
LINE
8
BLACK
6
CONTINUOUS
10
3.41376
20
-2.58243
11
3.41613
21
-2.57999
0
LINE
8
BLACK
6
CONTINUOUS
10
3.41613
20
-2.57999
11
3.41729
21
-2.57797
0
LINE
8
BLACK
6
CONTINUOUS
10
3.41729
20
-2.57797
11
3.41823
21
-2.57469
0
LINE
8
BLACK
6
CONTINUOUS
10
3.41823
20
-2.57469
11
3.41833
21
-2.57314
0
LINE
8
BLACK
6
CONTINUOUS
10
3.41833
20
-2.57314
11
3.41784
21
-2.57133
0
LINE
8
BLACK
6
CONTINUOUS
10
3.41784
20
-2.57133
11
3.4164
21
-2.5697
0
LINE
8
BLACK
6
CONTINUOUS
10
3.4164
20
-2.5697
11
3.41432
21
-2.5685
0
LINE
8
BLACK
6
CONTINUOUS
10
3.41432
20
-2.5685
11
3.40644
21
-2.58214
0
LINE
8
BLACK
6
CONTINUOUS
10
3.48244
20
-2.56592
11
3.48287
21
-2.56589
0
LINE
8
BLACK
6
CONTINUOUS
10
3.48287
20
-2.56589
11
3.48298
21
-2.56599
0
LINE
8
BLACK
6
CONTINUOUS
10
3.48298
20
-2.56599
11
3.48313
21
-2.56601
0
LINE
8
BLACK
6
CONTINUOUS
10
3.48313
20
-2.56601
11
3.4834
21
-2.56635
0
LINE
8
BLACK
6
CONTINUOUS
10
3.4834
20
-2.56635
11
3.48372
21
-2.56664
0
LINE
8
BLACK
6
CONTINUOUS
10
3.48372
20
-2.56664
11
3.48373
21
-2.56679
0
LINE
8
BLACK
6
CONTINUOUS
10
3.48373
20
-2.56679
11
3.48382
21
-2.56691
0
LINE
8
BLACK
6
CONTINUOUS
10
3.48382
20
-2.56691
11
3.48377
21
-2.56734
0
LINE
8
BLACK
6
CONTINUOUS
10
3.48377
20
-2.56734
11
3.48379
21
-2.56777
0
LINE
8
BLACK
6
CONTINUOUS
10
3.48379
20
-2.56777
11
3.48369
21
-2.56788
0
LINE
8
BLACK
6
CONTINUOUS
10
3.48369
20
-2.56788
11
3.48367
21
-2.56803
0
LINE
8
BLACK
6
CONTINUOUS
10
3.48367
20
-2.56803
11
3.47851
21
-2.57698
0
LINE
8
BLACK
6
CONTINUOUS
10
3.47851
20
-2.57698
11
3.48015
21
-2.57793
0
LINE
8
BLACK
6
CONTINUOUS
10
3.48015
20
-2.57793
11
3.48084
21
-2.57883
0
LINE
8
BLACK
6
CONTINUOUS
10
3.48084
20
-2.57883
11
3.48069
21
-2.57995
0
LINE
8
BLACK
6
CONTINUOUS
10
3.48069
20
-2.57995
11
3.4798
21
-2.58063
0
LINE
8
BLACK
6
CONTINUOUS
10
3.4798
20
-2.58063
11
3.47867
21
-2.58049
0
LINE
8
BLACK
6
CONTINUOUS
10
3.47867
20
-2.58049
11
3.47283
21
-2.57711
0
LINE
8
BLACK
6
CONTINUOUS
10
3.47283
20
-2.57711
11
3.47214
21
-2.57622
0
LINE
8
BLACK
6
CONTINUOUS
10
3.47214
20
-2.57622
11
3.47229
21
-2.5751
0
LINE
8
BLACK
6
CONTINUOUS
10
3.47229
20
-2.5751
11
3.47319
21
-2.57441
0
LINE
8
BLACK
6
CONTINUOUS
10
3.47319
20
-2.57441
11
3.47431
21
-2.57455
0
LINE
8
BLACK
6
CONTINUOUS
10
3.47431
20
-2.57455
11
3.47595
21
-2.5755
0
LINE
8
BLACK
6
CONTINUOUS
10
3.47595
20
-2.5755
11
3.47912
21
-2.57002
0
LINE
8
BLACK
6
CONTINUOUS
10
3.47912
20
-2.57002
11
3.47895
21
-2.57008
0
LINE
8
BLACK
6
CONTINUOUS
10
3.47895
20
-2.57008
11
3.4777
21
-2.57
0
LINE
8
BLACK
6
CONTINUOUS
10
3.4777
20
-2.57
11
3.47668
21
-2.56951
0
LINE
8
BLACK
6
CONTINUOUS
10
3.47668
20
-2.56951
11
3.47631
21
-2.56844
0
LINE
8
BLACK
6
CONTINUOUS
10
3.47631
20
-2.56844
11
3.47681
21
-2.56742
0
LINE
8
BLACK
6
CONTINUOUS
10
3.47681
20
-2.56742
11
3.47787
21
-2.56705
0
LINE
8
BLACK
6
CONTINUOUS
10
3.47787
20
-2.56705
11
3.47889
21
-2.56711
0
LINE
8
BLACK
6
CONTINUOUS
10
3.47889
20
-2.56711
11
3.48005
21
-2.5668
0
LINE
8
BLACK
6
CONTINUOUS
10
3.48005
20
-2.5668
11
3.48174
21
-2.56597
0
LINE
8
BLACK
6
CONTINUOUS
10
3.48174
20
-2.56597
11
3.48189
21
-2.56596
0
LINE
8
BLACK
6
CONTINUOUS
10
3.48189
20
-2.56596
11
3.48201
21
-2.56587
0
LINE
8
BLACK
6
CONTINUOUS
10
3.48201
20
-2.56587
11
3.48244
21
-2.56592
0
LINE
8
BLACK
6
CONTINUOUS
10
3.42453
20
-2.52775
11
3.42545
21
-2.52895
0
LINE
8
BLACK
6
CONTINUOUS
10
3.42545
20
-2.52895
11
3.42525
21
-2.53044
0
LINE
8
BLACK
6
CONTINUOUS
10
3.42525
20
-2.53044
11
3.41344
21
-2.5509
0
LINE
8
BLACK
6
CONTINUOUS
10
3.41344
20
-2.5509
11
3.4339
21
-2.56271
0
LINE
8
BLACK
6
CONTINUOUS
10
3.4339
20
-2.56271
11
3.43482
21
-2.5639
0
LINE
8
BLACK
6
CONTINUOUS
10
3.43482
20
-2.5639
11
3.43462
21
-2.5654
0
LINE
8
BLACK
6
CONTINUOUS
10
3.43462
20
-2.5654
11
3.43342
21
-2.56632
0
LINE
8
BLACK
6
CONTINUOUS
10
3.43342
20
-2.56632
11
3.43193
21
-2.56612
0
LINE
8
BLACK
6
CONTINUOUS
10
3.43193
20
-2.56612
11
3.40977
21
-2.55332
0
LINE
8
BLACK
6
CONTINUOUS
10
3.40977
20
-2.55332
11
3.40885
21
-2.55213
0
LINE
8
BLACK
6
CONTINUOUS
10
3.40885
20
-2.55213
11
3.40905
21
-2.55063
0
LINE
8
BLACK
6
CONTINUOUS
10
3.40905
20
-2.55063
11
3.42184
21
-2.52847
0
LINE
8
BLACK
6
CONTINUOUS
10
3.42184
20
-2.52847
11
3.42304
21
-2.52756
0
LINE
8
BLACK
6
CONTINUOUS
10
3.42304
20
-2.52756
11
3.42453
21
-2.52775
0
LINE
8
BLACK
6
CONTINUOUS
10
2.79933
20
-2.5352
11
2.79948
21
-2.53518
0
LINE
8
BLACK
6
CONTINUOUS
10
2.79948
20
-2.53518
11
2.79982
21
-2.53544
0
LINE
8
BLACK
6
CONTINUOUS
10
2.79982
20
-2.53544
11
2.80021
21
-2.53563
0
LINE
8
BLACK
6
CONTINUOUS
10
2.80021
20
-2.53563
11
2.80026
21
-2.53578
0
LINE
8
BLACK
6
CONTINUOUS
10
2.80026
20
-2.53578
11
2.80038
21
-2.53587
0
LINE
8
BLACK
6
CONTINUOUS
10
2.80038
20
-2.53587
11
2.80555
21
-2.54482
0
LINE
8
BLACK
6
CONTINUOUS
10
2.80555
20
-2.54482
11
2.80719
21
-2.54387
0
LINE
8
BLACK
6
CONTINUOUS
10
2.80719
20
-2.54387
11
2.80831
21
-2.54372
0
LINE
8
BLACK
6
CONTINUOUS
10
2.80831
20
-2.54372
11
2.80921
21
-2.54441
0
LINE
8
BLACK
6
CONTINUOUS
10
2.80921
20
-2.54441
11
2.80935
21
-2.54553
0
LINE
8
BLACK
6
CONTINUOUS
10
2.80935
20
-2.54553
11
2.80867
21
-2.54643
0
LINE
8
BLACK
6
CONTINUOUS
10
2.80867
20
-2.54643
11
2.80282
21
-2.5498
0
LINE
8
BLACK
6
CONTINUOUS
10
2.80282
20
-2.5498
11
2.8017
21
-2.54995
0
LINE
8
BLACK
6
CONTINUOUS
10
2.8017
20
-2.54995
11
2.8008
21
-2.54926
0
LINE
8
BLACK
6
CONTINUOUS
10
2.8008
20
-2.54926
11
2.80066
21
-2.54814
0
LINE
8
BLACK
6
CONTINUOUS
10
2.80066
20
-2.54814
11
2.80134
21
-2.54724
0
LINE
8
BLACK
6
CONTINUOUS
10
2.80134
20
-2.54724
11
2.80299
21
-2.54629
0
LINE
8
BLACK
6
CONTINUOUS
10
2.80299
20
-2.54629
11
2.79982
21
-2.54081
0
LINE
8
BLACK
6
CONTINUOUS
10
2.79982
20
-2.54081
11
2.79979
21
-2.54098
0
LINE
8
BLACK
6
CONTINUOUS
10
2.79979
20
-2.54098
11
2.7991
21
-2.54203
0
LINE
8
BLACK
6
CONTINUOUS
10
2.7991
20
-2.54203
11
2.79816
21
-2.54266
0
LINE
8
BLACK
6
CONTINUOUS
10
2.79816
20
-2.54266
11
2.79705
21
-2.54245
0
LINE
8
BLACK
6
CONTINUOUS
10
2.79705
20
-2.54245
11
2.79642
21
-2.54151
0
LINE
8
BLACK
6
CONTINUOUS
10
2.79642
20
-2.54151
11
2.79663
21
-2.5404
0
LINE
8
BLACK
6
CONTINUOUS
10
2.79663
20
-2.5404
11
2.79719
21
-2.53955
0
LINE
8
BLACK
6
CONTINUOUS
10
2.79719
20
-2.53955
11
2.79751
21
-2.53839
0
LINE
8
BLACK
6
CONTINUOUS
10
2.79751
20
-2.53839
11
2.79763
21
-2.53651
0
LINE
8
BLACK
6
CONTINUOUS
10
2.79763
20
-2.53651
11
2.79769
21
-2.53637
0
LINE
8
BLACK
6
CONTINUOUS
10
2.79769
20
-2.53637
11
2.79767
21
-2.53622
0
LINE
8
BLACK
6
CONTINUOUS
10
2.79767
20
-2.53622
11
2.79794
21
-2.53588
0
LINE
8
BLACK
6
CONTINUOUS
10
2.79794
20
-2.53588
11
2.79813
21
-2.5355
0
LINE
8
BLACK
6
CONTINUOUS
10
2.79813
20
-2.5355
11
2.79827
21
-2.53545
0
LINE
8
BLACK
6
CONTINUOUS
10
2.79827
20
-2.53545
11
2.79836
21
-2.53533
0
LINE
8
BLACK
6
CONTINUOUS
10
2.79836
20
-2.53533
11
2.79879
21
-2.53527
0
LINE
8
BLACK
6
CONTINUOUS
10
2.79879
20
-2.53527
11
2.7992
21
-2.53513
0
LINE
8
BLACK
6
CONTINUOUS
10
2.7992
20
-2.53513
11
2.79933
21
-2.5352
0
LINE
8
BLACK
6
CONTINUOUS
10
2.8567
20
-2.49267
11
2.8695
21
-2.51483
0
LINE
8
BLACK
6
CONTINUOUS
10
2.8695
20
-2.51483
11
2.86969
21
-2.51633
0
LINE
8
BLACK
6
CONTINUOUS
10
2.86969
20
-2.51633
11
2.86878
21
-2.51752
0
LINE
8
BLACK
6
CONTINUOUS
10
2.86878
20
-2.51752
11
2.86728
21
-2.51772
0
LINE
8
BLACK
6
CONTINUOUS
10
2.86728
20
-2.51772
11
2.86609
21
-2.5168
0
LINE
8
BLACK
6
CONTINUOUS
10
2.86609
20
-2.5168
11
2.85428
21
-2.49635
0
LINE
8
BLACK
6
CONTINUOUS
10
2.85428
20
-2.49635
11
2.83382
21
-2.50816
0
LINE
8
BLACK
6
CONTINUOUS
10
2.83382
20
-2.50816
11
2.83232
21
-2.50835
0
LINE
8
BLACK
6
CONTINUOUS
10
2.83232
20
-2.50835
11
2.83113
21
-2.50744
0
LINE
8
BLACK
6
CONTINUOUS
10
2.83113
20
-2.50744
11
2.83093
21
-2.50594
0
LINE
8
BLACK
6
CONTINUOUS
10
2.83093
20
-2.50594
11
2.83185
21
-2.50475
0
LINE
8
BLACK
6
CONTINUOUS
10
2.83185
20
-2.50475
11
2.85401
21
-2.49195
0
LINE
8
BLACK
6
CONTINUOUS
10
2.85401
20
-2.49195
11
2.85551
21
-2.49176
0
LINE
8
BLACK
6
CONTINUOUS
10
2.85551
20
-2.49176
11
2.85551
21
-2.49176
0
LINE
8
BLACK
6
CONTINUOUS
10
2.85551
20
-2.49176
11
2.8567
21
-2.49267
0
LINE
8
BLACK
6
CONTINUOUS
10
2.80423
20
-2.48478
11
2.80469
21
-2.48472
0
LINE
8
BLACK
6
CONTINUOUS
10
2.80469
20
-2.48472
11
2.80725
21
-2.48541
0
LINE
8
BLACK
6
CONTINUOUS
10
2.80725
20
-2.48541
11
2.8075
21
-2.48561
0
LINE
8
BLACK
6
CONTINUOUS
10
2.8075
20
-2.48561
11
2.80782
21
-2.48567
0
LINE
8
BLACK
6
CONTINUOUS
10
2.80782
20
-2.48567
11
2.80957
21
-2.48682
0
LINE
8
BLACK
6
CONTINUOUS
10
2.80957
20
-2.48682
11
2.8097
21
-2.48701
0
LINE
8
BLACK
6
CONTINUOUS
10
2.8097
20
-2.48701
11
2.8099
21
-2.4871
0
LINE
8
BLACK
6
CONTINUOUS
10
2.8099
20
-2.4871
11
2.81259
21
-2.48988
0
LINE
8
BLACK
6
CONTINUOUS
10
2.81259
20
-2.48988
11
2.81268
21
-2.49011
0
LINE
8
BLACK
6
CONTINUOUS
10
2.81268
20
-2.49011
11
2.81288
21
-2.49026
0
LINE
8
BLACK
6
CONTINUOUS
10
2.81288
20
-2.49026
11
2.81428
21
-2.4927
0
LINE
8
BLACK
6
CONTINUOUS
10
2.81428
20
-2.4927
11
2.81432
21
-2.49294
0
LINE
8
BLACK
6
CONTINUOUS
10
2.81432
20
-2.49294
11
2.81447
21
-2.49314
0
LINE
8
BLACK
6
CONTINUOUS
10
2.81447
20
-2.49314
11
2.81553
21
-2.49685
0
LINE
8
BLACK
6
CONTINUOUS
10
2.81553
20
-2.49685
11
2.81551
21
-2.49708
0
LINE
8
BLACK
6
CONTINUOUS
10
2.81551
20
-2.49708
11
2.81561
21
-2.49728
0
LINE
8
BLACK
6
CONTINUOUS
10
2.81561
20
-2.49728
11
2.81573
21
-2.49937
0
LINE
8
BLACK
6
CONTINUOUS
10
2.81573
20
-2.49937
11
2.81563
21
-2.49968
0
LINE
8
BLACK
6
CONTINUOUS
10
2.81563
20
-2.49968
11
2.81567
21
-2.5
0
LINE
8
BLACK
6
CONTINUOUS
10
2.81567
20
-2.5
11
2.81498
21
-2.50256
0
LINE
8
BLACK
6
CONTINUOUS
10
2.81498
20
-2.50256
11
2.8147
21
-2.50292
0
LINE
8
BLACK
6
CONTINUOUS
10
2.8147
20
-2.50292
11
2.81455
21
-2.50336
0
LINE
8
BLACK
6
CONTINUOUS
10
2.81455
20
-2.50336
11
2.81259
21
-2.50557
0
LINE
8
BLACK
6
CONTINUOUS
10
2.81259
20
-2.50557
11
2.8123
21
-2.50571
0
LINE
8
BLACK
6
CONTINUOUS
10
2.8123
20
-2.50571
11
2.8121
21
-2.50597
0
LINE
8
BLACK
6
CONTINUOUS
10
2.8121
20
-2.50597
11
2.80804
21
-2.50832
0
LINE
8
BLACK
6
CONTINUOUS
10
2.80804
20
-2.50832
11
2.80655
21
-2.50851
0
LINE
8
BLACK
6
CONTINUOUS
10
2.80655
20
-2.50851
11
2.80535
21
-2.50759
0
LINE
8
BLACK
6
CONTINUOUS
10
2.80535
20
-2.50759
11
2.79551
21
-2.49055
0
LINE
8
BLACK
6
CONTINUOUS
10
2.79551
20
-2.49055
11
2.79531
21
-2.48905
0
LINE
8
BLACK
6
CONTINUOUS
10
2.79531
20
-2.48905
11
2.79623
21
-2.48786
0
LINE
8
BLACK
6
CONTINUOUS
10
2.79623
20
-2.48786
11
2.80029
21
-2.48551
0
LINE
8
BLACK
6
CONTINUOUS
10
2.80029
20
-2.48551
11
2.80061
21
-2.48547
0
LINE
8
BLACK
6
CONTINUOUS
10
2.80061
20
-2.48547
11
2.80088
21
-2.48529
0
LINE
8
BLACK
6
CONTINUOUS
10
2.80088
20
-2.48529
11
2.80378
21
-2.4847
0
LINE
8
BLACK
6
CONTINUOUS
10
2.80378
20
-2.4847
11
2.80423
21
-2.48478
0
LINE
8
BLACK
6
CONTINUOUS
10
2.80198
20
-2.48908
11
2.7999
21
-2.49028
0
LINE
8
BLACK
6
CONTINUOUS
10
2.7999
20
-2.49028
11
2.80778
21
-2.50392
0
LINE
8
BLACK
6
CONTINUOUS
10
2.80778
20
-2.50392
11
2.80985
21
-2.50272
0
LINE
8
BLACK
6
CONTINUOUS
10
2.80985
20
-2.50272
11
2.8113
21
-2.50109
0
LINE
8
BLACK
6
CONTINUOUS
10
2.8113
20
-2.50109
11
2.81178
21
-2.49929
0
LINE
8
BLACK
6
CONTINUOUS
10
2.81178
20
-2.49929
11
2.81169
21
-2.49773
0
LINE
8
BLACK
6
CONTINUOUS
10
2.81169
20
-2.49773
11
2.81075
21
-2.49445
0
LINE
8
BLACK
6
CONTINUOUS
10
2.81075
20
-2.49445
11
2.80959
21
-2.49244
0
LINE
8
BLACK
6
CONTINUOUS
10
2.80959
20
-2.49244
11
2.80722
21
-2.48999
0
LINE
8
BLACK
6
CONTINUOUS
10
2.80722
20
-2.48999
11
2.80592
21
-2.48913
0
LINE
8
BLACK
6
CONTINUOUS
10
2.80592
20
-2.48913
11
2.80412
21
-2.48865
0
LINE
8
BLACK
6
CONTINUOUS
10
2.80412
20
-2.48865
11
2.80198
21
-2.48908
0
LINE
8
BLACK
6
CONTINUOUS
10
2.82222
20
-2.47445
11
2.82255
21
-2.47441
0
LINE
8
BLACK
6
CONTINUOUS
10
2.82255
20
-2.47441
11
2.82383
21
-2.47476
0
LINE
8
BLACK
6
CONTINUOUS
10
2.82383
20
-2.47476
11
2.82408
21
-2.47495
0
LINE
8
BLACK
6
CONTINUOUS
10
2.82408
20
-2.47495
11
2.8244
21
-2.47501
0
LINE
8
BLACK
6
CONTINUOUS
10
2.8244
20
-2.47501
11
2.82615
21
-2.47617
0
LINE
8
BLACK
6
CONTINUOUS
10
2.82615
20
-2.47617
11
2.82641
21
-2.47655
0
LINE
8
BLACK
6
CONTINUOUS
10
2.82641
20
-2.47655
11
2.82677
21
-2.47683
0
LINE
8
BLACK
6
CONTINUOUS
10
2.82677
20
-2.47683
11
2.82724
21
-2.47764
0
LINE
8
BLACK
6
CONTINUOUS
10
2.82724
20
-2.47764
11
2.8273
21
-2.47809
0
LINE
8
BLACK
6
CONTINUOUS
10
2.8273
20
-2.47809
11
2.8275
21
-2.47851
0
LINE
8
BLACK
6
CONTINUOUS
10
2.8275
20
-2.47851
11
2.82762
21
-2.4806
0
LINE
8
BLACK
6
CONTINUOUS
10
2.82762
20
-2.4806
11
2.82752
21
-2.4809
0
LINE
8
BLACK
6
CONTINUOUS
10
2.82752
20
-2.4809
11
2.82756
21
-2.48123
0
LINE
8
BLACK
6
CONTINUOUS
10
2.82756
20
-2.48123
11
2.82738
21
-2.48188
0
LINE
8
BLACK
6
CONTINUOUS
10
2.82738
20
-2.48188
11
2.82804
21
-2.48206
0
LINE
8
BLACK
6
CONTINUOUS
10
2.82804
20
-2.48206
11
2.8283
21
-2.48226
0
LINE
8
BLACK
6
CONTINUOUS
10
2.8283
20
-2.48226
11
2.82862
21
-2.48232
0
LINE
8
BLACK
6
CONTINUOUS
10
2.82862
20
-2.48232
11
2.83037
21
-2.48348
0
LINE
8
BLACK
6
CONTINUOUS
10
2.83037
20
-2.48348
11
2.83063
21
-2.48385
0
LINE
8
BLACK
6
CONTINUOUS
10
2.83063
20
-2.48385
11
2.83099
21
-2.48413
0
LINE
8
BLACK
6
CONTINUOUS
10
2.83099
20
-2.48413
11
2.83286
21
-2.48738
0
LINE
8
BLACK
6
CONTINUOUS
10
2.83286
20
-2.48738
11
2.83292
21
-2.48784
0
LINE
8
BLACK
6
CONTINUOUS
10
2.83292
20
-2.48784
11
2.83312
21
-2.48825
0
LINE
8
BLACK
6
CONTINUOUS
10
2.83312
20
-2.48825
11
2.83325
21
-2.49034
0
LINE
8
BLACK
6
CONTINUOUS
10
2.83325
20
-2.49034
11
2.83314
21
-2.49065
0
LINE
8
BLACK
6
CONTINUOUS
10
2.83314
20
-2.49065
11
2.83319
21
-2.49097
0
LINE
8
BLACK
6
CONTINUOUS
10
2.83319
20
-2.49097
11
2.83284
21
-2.49225
0
LINE
8
BLACK
6
CONTINUOUS
10
2.83284
20
-2.49225
11
2.83265
21
-2.4925
0
LINE
8
BLACK
6
CONTINUOUS
10
2.83265
20
-2.4925
11
2.83258
21
-2.49282
0
LINE
8
BLACK
6
CONTINUOUS
10
2.83258
20
-2.49282
11
2.83143
21
-2.49457
0
LINE
8
BLACK
6
CONTINUOUS
10
2.83143
20
-2.49457
11
2.83105
21
-2.49483
0
LINE
8
BLACK
6
CONTINUOUS
10
2.83105
20
-2.49483
11
2.83077
21
-2.49519
0
LINE
8
BLACK
6
CONTINUOUS
10
2.83077
20
-2.49519
11
2.82752
21
-2.49707
0
LINE
8
BLACK
6
CONTINUOUS
10
2.82752
20
-2.49707
11
2.82707
21
-2.49713
0
LINE
8
BLACK
6
CONTINUOUS
10
2.82707
20
-2.49713
11
2.82666
21
-2.49733
0
LINE
8
BLACK
6
CONTINUOUS
10
2.82666
20
-2.49733
11
2.82456
21
-2.49745
0
LINE
8
BLACK
6
CONTINUOUS
10
2.82456
20
-2.49745
11
2.82426
21
-2.49735
0
LINE
8
BLACK
6
CONTINUOUS
10
2.82426
20
-2.49735
11
2.82394
21
-2.49739
0
LINE
8
BLACK
6
CONTINUOUS
10
2.82394
20
-2.49739
11
2.82266
21
-2.49705
0
LINE
8
BLACK
6
CONTINUOUS
10
2.82266
20
-2.49705
11
2.8224
21
-2.49685
0
LINE
8
BLACK
6
CONTINUOUS
10
2.8224
20
-2.49685
11
2.82208
21
-2.49679
0
LINE
8
BLACK
6
CONTINUOUS
10
2.82208
20
-2.49679
11
2.82033
21
-2.49563
0
LINE
8
BLACK
6
CONTINUOUS
10
2.82033
20
-2.49563
11
2.82008
21
-2.49525
0
LINE
8
BLACK
6
CONTINUOUS
10
2.82008
20
-2.49525
11
2.81971
21
-2.49497
0
LINE
8
BLACK
6
CONTINUOUS
10
2.81971
20
-2.49497
11
2.81784
21
-2.49173
0
LINE
8
BLACK
6
CONTINUOUS
10
2.81784
20
-2.49173
11
2.81778
21
-2.49127
0
LINE
8
BLACK
6
CONTINUOUS
10
2.81778
20
-2.49127
11
2.81758
21
-2.49086
0
LINE
8
BLACK
6
CONTINUOUS
10
2.81758
20
-2.49086
11
2.81745
21
-2.48877
0
LINE
8
BLACK
6
CONTINUOUS
10
2.81745
20
-2.48877
11
2.81756
21
-2.48846
0
LINE
8
BLACK
6
CONTINUOUS
10
2.81756
20
-2.48846
11
2.81752
21
-2.48814
0
LINE
8
BLACK
6
CONTINUOUS
10
2.81752
20
-2.48814
11
2.81769
21
-2.48748
0
LINE
8
BLACK
6
CONTINUOUS
10
2.81769
20
-2.48748
11
2.81703
21
-2.4873
0
LINE
8
BLACK
6
CONTINUOUS
10
2.81703
20
-2.4873
11
2.81678
21
-2.48711
0
LINE
8
BLACK
6
CONTINUOUS
10
2.81678
20
-2.48711
11
2.81646
21
-2.48705
0
LINE
8
BLACK
6
CONTINUOUS
10
2.81646
20
-2.48705
11
2.81471
21
-2.48589
0
LINE
8
BLACK
6
CONTINUOUS
10
2.81471
20
-2.48589
11
2.81445
21
-2.48551
0
LINE
8
BLACK
6
CONTINUOUS
10
2.81445
20
-2.48551
11
2.81409
21
-2.48523
0
LINE
8
BLACK
6
CONTINUOUS
10
2.81409
20
-2.48523
11
2.81362
21
-2.48442
0
LINE
8
BLACK
6
CONTINUOUS
10
2.81362
20
-2.48442
11
2.81356
21
-2.48397
0
LINE
8
BLACK
6
CONTINUOUS
10
2.81356
20
-2.48397
11
2.81336
21
-2.48355
0
LINE
8
BLACK
6
CONTINUOUS
10
2.81336
20
-2.48355
11
2.81323
21
-2.48146
0
LINE
8
BLACK
6
CONTINUOUS
10
2.81323
20
-2.48146
11
2.81334
21
-2.48116
0
LINE
8
BLACK
6
CONTINUOUS
10
2.81334
20
-2.48116
11
2.8133
21
-2.48083
0
LINE
8
BLACK
6
CONTINUOUS
10
2.8133
20
-2.48083
11
2.81364
21
-2.47955
0
LINE
8
BLACK
6
CONTINUOUS
10
2.81364
20
-2.47955
11
2.81384
21
-2.4793
0
LINE
8
BLACK
6
CONTINUOUS
10
2.81384
20
-2.4793
11
2.8139
21
-2.47898
0
LINE
8
BLACK
6
CONTINUOUS
10
2.8139
20
-2.47898
11
2.81505
21
-2.47723
0
LINE
8
BLACK
6
CONTINUOUS
10
2.81505
20
-2.47723
11
2.81543
21
-2.47697
0
LINE
8
BLACK
6
CONTINUOUS
10
2.81543
20
-2.47697
11
2.81571
21
-2.47661
0
LINE
8
BLACK
6
CONTINUOUS
10
2.81571
20
-2.47661
11
2.81896
21
-2.47473
0
LINE
8
BLACK
6
CONTINUOUS
10
2.81896
20
-2.47473
11
2.81941
21
-2.47467
0
LINE
8
BLACK
6
CONTINUOUS
10
2.81941
20
-2.47467
11
2.81983
21
-2.47447
0
LINE
8
BLACK
6
CONTINUOUS
10
2.81983
20
-2.47447
11
2.82192
21
-2.47435
0
LINE
8
BLACK
6
CONTINUOUS
10
2.82192
20
-2.47435
11
2.82222
21
-2.47445
0
LINE
8
BLACK
6
CONTINUOUS
10
2.82474
20
-2.48568
11
2.8223
21
-2.48709
0
LINE
8
BLACK
6
CONTINUOUS
10
2.8223
20
-2.48709
11
2.82158
21
-2.48819
0
LINE
8
BLACK
6
CONTINUOUS
10
2.82158
20
-2.48819
11
2.8214
21
-2.48885
0
LINE
8
BLACK
6
CONTINUOUS
10
2.8214
20
-2.48885
11
2.82148
21
-2.49016
0
LINE
8
BLACK
6
CONTINUOUS
10
2.82148
20
-2.49016
11
2.82289
21
-2.4926
0
LINE
8
BLACK
6
CONTINUOUS
10
2.82289
20
-2.4926
11
2.82398
21
-2.49333
0
LINE
8
BLACK
6
CONTINUOUS
10
2.82398
20
-2.49333
11
2.82465
21
-2.4935
0
LINE
8
BLACK
6
CONTINUOUS
10
2.82465
20
-2.4935
11
2.82596
21
-2.49342
0
LINE
8
BLACK
6
CONTINUOUS
10
2.82596
20
-2.49342
11
2.8284
21
-2.49201
0
LINE
8
BLACK
6
CONTINUOUS
10
2.8284
20
-2.49201
11
2.82912
21
-2.49092
0
LINE
8
BLACK
6
CONTINUOUS
10
2.82912
20
-2.49092
11
2.8293
21
-2.49026
0
LINE
8
BLACK
6
CONTINUOUS
10
2.8293
20
-2.49026
11
2.82922
21
-2.48895
0
LINE
8
BLACK
6
CONTINUOUS
10
2.82922
20
-2.48895
11
2.82781
21
-2.4865
0
LINE
8
BLACK
6
CONTINUOUS
10
2.82781
20
-2.4865
11
2.82672
21
-2.48578
0
LINE
8
BLACK
6
CONTINUOUS
10
2.82672
20
-2.48578
11
2.82605
21
-2.4856
0
LINE
8
BLACK
6
CONTINUOUS
10
2.82605
20
-2.4856
11
2.82474
21
-2.48568
0
LINE
8
BLACK
6
CONTINUOUS
10
2.82053
20
-2.47838
11
2.81808
21
-2.47979
0
LINE
8
BLACK
6
CONTINUOUS
10
2.81808
20
-2.47979
11
2.81736
21
-2.48088
0
LINE
8
BLACK
6
CONTINUOUS
10
2.81736
20
-2.48088
11
2.81718
21
-2.48154
0
LINE
8
BLACK
6
CONTINUOUS
10
2.81718
20
-2.48154
11
2.81726
21
-2.48285
0
LINE
8
BLACK
6
CONTINUOUS
10
2.81726
20
-2.48285
11
2.81727
21
-2.48286
0
LINE
8
BLACK
6
CONTINUOUS
10
2.81727
20
-2.48286
11
2.81836
21
-2.48358
0
LINE
8
BLACK
6
CONTINUOUS
10
2.81836
20
-2.48358
11
2.81902
21
-2.48376
0
LINE
8
BLACK
6
CONTINUOUS
10
2.81902
20
-2.48376
11
2.82033
21
-2.48368
0
LINE
8
BLACK
6
CONTINUOUS
10
2.82033
20
-2.48368
11
2.82278
21
-2.48227
0
LINE
8
BLACK
6
CONTINUOUS
10
2.82278
20
-2.48227
11
2.8235
21
-2.48118
0
LINE
8
BLACK
6
CONTINUOUS
10
2.8235
20
-2.48118
11
2.82368
21
-2.48051
0
LINE
8
BLACK
6
CONTINUOUS
10
2.82368
20
-2.48051
11
2.8236
21
-2.47921
0
LINE
8
BLACK
6
CONTINUOUS
10
2.8236
20
-2.47921
11
2.82359
21
-2.4792
0
LINE
8
BLACK
6
CONTINUOUS
10
2.82359
20
-2.4792
11
2.8225
21
-2.47848
0
LINE
8
BLACK
6
CONTINUOUS
10
2.8225
20
-2.47848
11
2.82184
21
-2.4783
0
LINE
8
BLACK
6
CONTINUOUS
10
2.82184
20
-2.4783
11
2.82053
21
-2.47838
0
LINE
8
BLACK
6
CONTINUOUS
10
3.47186
20
-2.36869
11
3.47244
21
-2.37008
0
LINE
8
BLACK
6
CONTINUOUS
10
3.47244
20
-2.37008
11
3.47244
21
-2.3937
0
LINE
8
BLACK
6
CONTINUOUS
10
3.47244
20
-2.3937
11
3.49606
21
-2.3937
0
LINE
8
BLACK
6
CONTINUOUS
10
3.49606
20
-2.3937
11
3.49745
21
-2.39428
0
LINE
8
BLACK
6
CONTINUOUS
10
3.49745
20
-2.39428
11
3.49803
21
-2.39567
0
LINE
8
BLACK
6
CONTINUOUS
10
3.49803
20
-2.39567
11
3.49745
21
-2.39706
0
LINE
8
BLACK
6
CONTINUOUS
10
3.49745
20
-2.39706
11
3.49606
21
-2.39764
0
LINE
8
BLACK
6
CONTINUOUS
10
3.49606
20
-2.39764
11
3.47047
21
-2.39764
0
LINE
8
BLACK
6
CONTINUOUS
10
3.47047
20
-2.39764
11
3.46908
21
-2.39706
0
LINE
8
BLACK
6
CONTINUOUS
10
3.46908
20
-2.39706
11
3.4685
21
-2.39567
0
LINE
8
BLACK
6
CONTINUOUS
10
3.4685
20
-2.39567
11
3.4685
21
-2.37008
0
LINE
8
BLACK
6
CONTINUOUS
10
3.4685
20
-2.37008
11
3.46908
21
-2.36869
0
LINE
8
BLACK
6
CONTINUOUS
10
3.46908
20
-2.36869
11
3.47047
21
-2.36811
0
LINE
8
BLACK
6
CONTINUOUS
10
3.47047
20
-2.36811
11
3.47186
21
-2.36869
0
LINE
8
BLACK
6
CONTINUOUS
10
3.54075
20
-2.37211
11
3.54117
21
-2.37219
0
LINE
8
BLACK
6
CONTINUOUS
10
3.54117
20
-2.37219
11
3.54126
21
-2.37232
0
LINE
8
BLACK
6
CONTINUOUS
10
3.54126
20
-2.37232
11
3.5414
21
-2.37238
0
LINE
8
BLACK
6
CONTINUOUS
10
3.5414
20
-2.37238
11
3.54156
21
-2.37277
0
LINE
8
BLACK
6
CONTINUOUS
10
3.54156
20
-2.37277
11
3.5418
21
-2.37313
0
LINE
8
BLACK
6
CONTINUOUS
10
3.5418
20
-2.37313
11
3.54177
21
-2.37328
0
LINE
8
BLACK
6
CONTINUOUS
10
3.54177
20
-2.37328
11
3.54183
21
-2.37342
0
LINE
8
BLACK
6
CONTINUOUS
10
3.54183
20
-2.37342
11
3.54183
21
-2.38376
0
LINE
8
BLACK
6
CONTINUOUS
10
3.54183
20
-2.38376
11
3.54373
21
-2.38376
0
LINE
8
BLACK
6
CONTINUOUS
10
3.54373
20
-2.38376
11
3.54477
21
-2.38419
0
LINE
8
BLACK
6
CONTINUOUS
10
3.54477
20
-2.38419
11
3.54521
21
-2.38523
0
LINE
8
BLACK
6
CONTINUOUS
10
3.54521
20
-2.38523
11
3.54477
21
-2.38628
0
LINE
8
BLACK
6
CONTINUOUS
10
3.54477
20
-2.38628
11
3.54373
21
-2.38671
0
LINE
8
BLACK
6
CONTINUOUS
10
3.54373
20
-2.38671
11
3.54035
21
-2.38671
0
LINE
8
BLACK
6
CONTINUOUS
10
3.54035
20
-2.38671
11
3.53698
21
-2.38671
0
LINE
8
BLACK
6
CONTINUOUS
10
3.53698
20
-2.38671
11
3.53594
21
-2.38628
0
LINE
8
BLACK
6
CONTINUOUS
10
3.53594
20
-2.38628
11
3.5355
21
-2.38523
0
LINE
8
BLACK
6
CONTINUOUS
10
3.5355
20
-2.38523
11
3.53594
21
-2.38419
0
LINE
8
BLACK
6
CONTINUOUS
10
3.53594
20
-2.38419
11
3.53698
21
-2.38376
0
LINE
8
BLACK
6
CONTINUOUS
10
3.53698
20
-2.38376
11
3.53888
21
-2.38376
0
LINE
8
BLACK
6
CONTINUOUS
10
3.53888
20
-2.38376
11
3.53888
21
-2.37742
0
LINE
8
BLACK
6
CONTINUOUS
10
3.53888
20
-2.37742
11
3.53876
21
-2.37755
0
LINE
8
BLACK
6
CONTINUOUS
10
3.53876
20
-2.37755
11
3.53764
21
-2.37812
0
LINE
8
BLACK
6
CONTINUOUS
10
3.53764
20
-2.37812
11
3.53651
21
-2.3782
0
LINE
8
BLACK
6
CONTINUOUS
10
3.53651
20
-2.3782
11
3.53566
21
-2.37746
0
LINE
8
BLACK
6
CONTINUOUS
10
3.53566
20
-2.37746
11
3.53558
21
-2.37633
0
LINE
8
BLACK
6
CONTINUOUS
10
3.53558
20
-2.37633
11
3.53632
21
-2.37547
0
LINE
8
BLACK
6
CONTINUOUS
10
3.53632
20
-2.37547
11
3.53723
21
-2.37502
0
LINE
8
BLACK
6
CONTINUOUS
10
3.53723
20
-2.37502
11
3.53808
21
-2.37417
0
LINE
8
BLACK
6
CONTINUOUS
10
3.53808
20
-2.37417
11
3.53913
21
-2.3726
0
LINE
8
BLACK
6
CONTINUOUS
10
3.53913
20
-2.3726
11
3.53925
21
-2.37252
0
LINE
8
BLACK
6
CONTINUOUS
10
3.53925
20
-2.37252
11
3.53931
21
-2.37238
0
LINE
8
BLACK
6
CONTINUOUS
10
3.53931
20
-2.37238
11
3.53971
21
-2.37221
0
LINE
8
BLACK
6
CONTINUOUS
10
3.53971
20
-2.37221
11
3.54006
21
-2.37197
0
LINE
8
BLACK
6
CONTINUOUS
10
3.54006
20
-2.37197
11
3.54021
21
-2.372
0
LINE
8
BLACK
6
CONTINUOUS
10
3.54021
20
-2.372
11
3.54035
21
-2.37194
0
LINE
8
BLACK
6
CONTINUOUS
10
3.54035
20
-2.37194
11
3.54075
21
-2.37211
0
LINE
8
BLACK
6
CONTINUOUS
10
3.43849
20
-2.35509
11
3.43881
21
-2.35507
0
LINE
8
BLACK
6
CONTINUOUS
10
3.43881
20
-2.35507
11
3.44162
21
-2.356
0
LINE
8
BLACK
6
CONTINUOUS
10
3.44162
20
-2.356
11
3.44197
21
-2.3563
0
LINE
8
BLACK
6
CONTINUOUS
10
3.44197
20
-2.3563
11
3.44239
21
-2.35648
0
LINE
8
BLACK
6
CONTINUOUS
10
3.44239
20
-2.35648
11
3.44427
21
-2.35835
0
LINE
8
BLACK
6
CONTINUOUS
10
3.44427
20
-2.35835
11
3.44439
21
-2.35865
0
LINE
8
BLACK
6
CONTINUOUS
10
3.44439
20
-2.35865
11
3.44464
21
-2.35887
0
LINE
8
BLACK
6
CONTINUOUS
10
3.44464
20
-2.35887
11
3.44557
21
-2.36074
0
LINE
8
BLACK
6
CONTINUOUS
10
3.44557
20
-2.36074
11
3.44559
21
-2.36096
0
LINE
8
BLACK
6
CONTINUOUS
10
3.44559
20
-2.36096
11
3.44572
21
-2.36114
0
LINE
8
BLACK
6
CONTINUOUS
10
3.44572
20
-2.36114
11
3.44666
21
-2.36489
0
LINE
8
BLACK
6
CONTINUOUS
10
3.44666
20
-2.36489
11
3.44662
21
-2.36514
0
LINE
8
BLACK
6
CONTINUOUS
10
3.44662
20
-2.36514
11
3.44672
21
-2.36537
0
LINE
8
BLACK
6
CONTINUOUS
10
3.44672
20
-2.36537
11
3.44672
21
-2.36818
0
LINE
8
BLACK
6
CONTINUOUS
10
3.44672
20
-2.36818
11
3.44662
21
-2.36841
0
LINE
8
BLACK
6
CONTINUOUS
10
3.44662
20
-2.36841
11
3.44666
21
-2.36866
0
LINE
8
BLACK
6
CONTINUOUS
10
3.44666
20
-2.36866
11
3.44572
21
-2.37241
0
LINE
8
BLACK
6
CONTINUOUS
10
3.44572
20
-2.37241
11
3.44559
21
-2.37259
0
LINE
8
BLACK
6
CONTINUOUS
10
3.44559
20
-2.37259
11
3.44557
21
-2.37281
0
LINE
8
BLACK
6
CONTINUOUS
10
3.44557
20
-2.37281
11
3.44464
21
-2.37469
0
LINE
8
BLACK
6
CONTINUOUS
10
3.44464
20
-2.37469
11
3.44439
21
-2.3749
0
LINE
8
BLACK
6
CONTINUOUS
10
3.44439
20
-2.3749
11
3.44427
21
-2.3752
0
LINE
8
BLACK
6
CONTINUOUS
10
3.44427
20
-2.3752
11
3.44239
21
-2.37707
0
LINE
8
BLACK
6
CONTINUOUS
10
3.44239
20
-2.37707
11
3.44197
21
-2.37725
0
LINE
8
BLACK
6
CONTINUOUS
10
3.44197
20
-2.37725
11
3.44162
21
-2.37755
0
LINE
8
BLACK
6
CONTINUOUS
10
3.44162
20
-2.37755
11
3.43881
21
-2.37849
0
LINE
8
BLACK
6
CONTINUOUS
10
3.43881
20
-2.37849
11
3.43849
21
-2.37846
0
LINE
8
BLACK
6
CONTINUOUS
10
3.43849
20
-2.37846
11
3.43819
21
-2.37859
0
LINE
8
BLACK
6
CONTINUOUS
10
3.43819
20
-2.37859
11
3.4335
21
-2.37859
0
LINE
8
BLACK
6
CONTINUOUS
10
3.4335
20
-2.37859
11
3.43211
21
-2.37801
0
LINE
8
BLACK
6
CONTINUOUS
10
3.43211
20
-2.37801
11
3.43153
21
-2.37662
0
LINE
8
BLACK
6
CONTINUOUS
10
3.43153
20
-2.37662
11
3.43153
21
-2.35693
0
LINE
8
BLACK
6
CONTINUOUS
10
3.43153
20
-2.35693
11
3.43211
21
-2.35554
0
LINE
8
BLACK
6
CONTINUOUS
10
3.43211
20
-2.35554
11
3.4335
21
-2.35496
0
LINE
8
BLACK
6
CONTINUOUS
10
3.4335
20
-2.35496
11
3.43819
21
-2.35496
0
LINE
8
BLACK
6
CONTINUOUS
10
3.43819
20
-2.35496
11
3.43849
21
-2.35509
0
LINE
8
BLACK
6
CONTINUOUS
10
3.43547
20
-2.37465
11
3.43787
21
-2.37465
0
LINE
8
BLACK
6
CONTINUOUS
10
3.43787
20
-2.37465
11
3.43994
21
-2.37396
0
LINE
8
BLACK
6
CONTINUOUS
10
3.43994
20
-2.37396
11
3.44126
21
-2.37264
0
LINE
8
BLACK
6
CONTINUOUS
10
3.44126
20
-2.37264
11
3.44196
21
-2.37124
0
LINE
8
BLACK
6
CONTINUOUS
10
3.44196
20
-2.37124
11
3.44278
21
-2.36794
0
LINE
8
BLACK
6
CONTINUOUS
10
3.44278
20
-2.36794
11
3.44278
21
-2.36561
0
LINE
8
BLACK
6
CONTINUOUS
10
3.44278
20
-2.36561
11
3.44196
21
-2.36231
0
LINE
8
BLACK
6
CONTINUOUS
10
3.44196
20
-2.36231
11
3.44126
21
-2.36091
0
LINE
8
BLACK
6
CONTINUOUS
10
3.44126
20
-2.36091
11
3.43994
21
-2.35959
0
LINE
8
BLACK
6
CONTINUOUS
10
3.43994
20
-2.35959
11
3.43787
21
-2.3589
0
LINE
8
BLACK
6
CONTINUOUS
10
3.43787
20
-2.3589
11
3.43547
21
-2.3589
0
LINE
8
BLACK
6
CONTINUOUS
10
3.43547
20
-2.3589
11
3.43547
21
-2.37465
0
LINE
8
BLACK
6
CONTINUOUS
10
3.4584
20
-2.35518
11
3.45897
21
-2.3553
0
LINE
8
BLACK
6
CONTINUOUS
10
3.45897
20
-2.3553
11
3.45908
21
-2.35546
0
LINE
8
BLACK
6
CONTINUOUS
10
3.45908
20
-2.35546
11
3.45927
21
-2.35554
0
LINE
8
BLACK
6
CONTINUOUS
10
3.45927
20
-2.35554
11
3.45949
21
-2.35607
0
LINE
8
BLACK
6
CONTINUOUS
10
3.45949
20
-2.35607
11
3.4598
21
-2.35655
0
LINE
8
BLACK
6
CONTINUOUS
10
3.4598
20
-2.35655
11
3.45976
21
-2.35675
0
LINE
8
BLACK
6
CONTINUOUS
10
3.45976
20
-2.35675
11
3.45984
21
-2.35693
0
LINE
8
BLACK
6
CONTINUOUS
10
3.45984
20
-2.35693
11
3.45984
21
-2.37465
0
LINE
8
BLACK
6
CONTINUOUS
10
3.45984
20
-2.37465
11
3.4635
21
-2.37465
0
LINE
8
BLACK
6
CONTINUOUS
10
3.4635
20
-2.37465
11
3.46489
21
-2.37523
0
LINE
8
BLACK
6
CONTINUOUS
10
3.46489
20
-2.37523
11
3.46547
21
-2.37662
0
LINE
8
BLACK
6
CONTINUOUS
10
3.46547
20
-2.37662
11
3.46489
21
-2.37801
0
LINE
8
BLACK
6
CONTINUOUS
10
3.46489
20
-2.37801
11
3.4635
21
-2.37859
0
LINE
8
BLACK
6
CONTINUOUS
10
3.4635
20
-2.37859
11
3.45787
21
-2.37859
0
LINE
8
BLACK
6
CONTINUOUS
10
3.45787
20
-2.37859
11
3.45225
21
-2.37859
0
LINE
8
BLACK
6
CONTINUOUS
10
3.45225
20
-2.37859
11
3.45086
21
-2.37801
0
LINE
8
BLACK
6
CONTINUOUS
10
3.45086
20
-2.37801
11
3.45028
21
-2.37662
0
LINE
8
BLACK
6
CONTINUOUS
10
3.45028
20
-2.37662
11
3.45086
21
-2.37523
0
LINE
8
BLACK
6
CONTINUOUS
10
3.45086
20
-2.37523
11
3.45225
21
-2.37465
0
LINE
8
BLACK
6
CONTINUOUS
10
3.45225
20
-2.37465
11
3.45591
21
-2.37465
0
LINE
8
BLACK
6
CONTINUOUS
10
3.45591
20
-2.37465
11
3.45591
21
-2.36262
0
LINE
8
BLACK
6
CONTINUOUS
10
3.45591
20
-2.36262
11
3.45552
21
-2.36301
0
LINE
8
BLACK
6
CONTINUOUS
10
3.45552
20
-2.36301
11
3.45522
21
-2.36314
0
LINE
8
BLACK
6
CONTINUOUS
10
3.45522
20
-2.36314
11
3.455
21
-2.36338
0
LINE
8
BLACK
6
CONTINUOUS
10
3.455
20
-2.36338
11
3.45313
21
-2.36432
0
LINE
8
BLACK
6
CONTINUOUS
10
3.45313
20
-2.36432
11
3.45163
21
-2.36443
0
LINE
8
BLACK
6
CONTINUOUS
10
3.45163
20
-2.36443
11
3.45049
21
-2.36344
0
LINE
8
BLACK
6
CONTINUOUS
10
3.45049
20
-2.36344
11
3.45038
21
-2.36194
0
LINE
8
BLACK
6
CONTINUOUS
10
3.45038
20
-2.36194
11
3.45137
21
-2.3608
0
LINE
8
BLACK
6
CONTINUOUS
10
3.45137
20
-2.3608
11
3.45296
21
-2.36
0
LINE
8
BLACK
6
CONTINUOUS
10
3.45296
20
-2.36
11
3.45447
21
-2.35849
0
LINE
8
BLACK
6
CONTINUOUS
10
3.45447
20
-2.35849
11
3.45624
21
-2.35584
0
LINE
8
BLACK
6
CONTINUOUS
10
3.45624
20
-2.35584
11
3.4564
21
-2.35573
0
LINE
8
BLACK
6
CONTINUOUS
10
3.4564
20
-2.35573
11
3.45648
21
-2.35554
0
LINE
8
BLACK
6
CONTINUOUS
10
3.45648
20
-2.35554
11
3.45701
21
-2.35532
0
LINE
8
BLACK
6
CONTINUOUS
10
3.45701
20
-2.35532
11
3.45749
21
-2.355
0
LINE
8
BLACK
6
CONTINUOUS
10
3.45749
20
-2.355
11
3.45769
21
-2.35504
0
LINE
8
BLACK
6
CONTINUOUS
10
3.45769
20
-2.35504
11
3.45787
21
-2.35496
0
LINE
8
BLACK
6
CONTINUOUS
10
3.45787
20
-2.35496
11
3.4584
21
-2.35518
0
LINE
8
BLACK
6
CONTINUOUS
10
2.82874
20
-2.32677
11
2.83013
21
-2.32735
0
LINE
8
BLACK
6
CONTINUOUS
10
2.83013
20
-2.32735
11
2.83071
21
-2.32874
0
LINE
8
BLACK
6
CONTINUOUS
10
2.83071
20
-2.32874
11
2.83071
21
-2.35433
0
LINE
8
BLACK
6
CONTINUOUS
10
2.83071
20
-2.35433
11
2.83013
21
-2.35572
0
LINE
8
BLACK
6
CONTINUOUS
10
2.83013
20
-2.35572
11
2.82874
21
-2.3563
0
LINE
8
BLACK
6
CONTINUOUS
10
2.82874
20
-2.3563
11
2.82735
21
-2.35572
0
LINE
8
BLACK
6
CONTINUOUS
10
2.82735
20
-2.35572
11
2.82677
21
-2.35433
0
LINE
8
BLACK
6
CONTINUOUS
10
2.82677
20
-2.35433
11
2.82677
21
-2.33071
0
LINE
8
BLACK
6
CONTINUOUS
10
2.82677
20
-2.33071
11
2.80315
21
-2.33071
0
LINE
8
BLACK
6
CONTINUOUS
10
2.80315
20
-2.33071
11
2.80176
21
-2.33013
0
LINE
8
BLACK
6
CONTINUOUS
10
2.80176
20
-2.33013
11
2.80118
21
-2.32874
0
LINE
8
BLACK
6
CONTINUOUS
10
2.80118
20
-2.32874
11
2.80176
21
-2.32735
0
LINE
8
BLACK
6
CONTINUOUS
10
2.80176
20
-2.32735
11
2.80315
21
-2.32677
0
LINE
8
BLACK
6
CONTINUOUS
10
2.80315
20
-2.32677
11
2.82874
21
-2.32677
0
LINE
8
BLACK
6
CONTINUOUS
10
2.75926
20
-2.33668
11
2.75968
21
-2.33676
0
LINE
8
BLACK
6
CONTINUOUS
10
2.75968
20
-2.33676
11
2.75976
21
-2.33689
0
LINE
8
BLACK
6
CONTINUOUS
10
2.75976
20
-2.33689
11
2.7599
21
-2.33694
0
LINE
8
BLACK
6
CONTINUOUS
10
2.7599
20
-2.33694
11
2.76007
21
-2.33734
0
LINE
8
BLACK
6
CONTINUOUS
10
2.76007
20
-2.33734
11
2.76031
21
-2.3377
0
LINE
8
BLACK
6
CONTINUOUS
10
2.76031
20
-2.3377
11
2.76028
21
-2.33785
0
LINE
8
BLACK
6
CONTINUOUS
10
2.76028
20
-2.33785
11
2.76033
21
-2.33799
0
LINE
8
BLACK
6
CONTINUOUS
10
2.76033
20
-2.33799
11
2.76033
21
-2.34832
0
LINE
8
BLACK
6
CONTINUOUS
10
2.76033
20
-2.34832
11
2.76223
21
-2.34832
0
LINE
8
BLACK
6
CONTINUOUS
10
2.76223
20
-2.34832
11
2.76328
21
-2.34875
0
LINE
8
BLACK
6
CONTINUOUS
10
2.76328
20
-2.34875
11
2.76371
21
-2.3498
0
LINE
8
BLACK
6
CONTINUOUS
10
2.76371
20
-2.3498
11
2.76328
21
-2.35084
0
LINE
8
BLACK
6
CONTINUOUS
10
2.76328
20
-2.35084
11
2.76223
21
-2.35127
0
LINE
8
BLACK
6
CONTINUOUS
10
2.76223
20
-2.35127
11
2.75886
21
-2.35127
0
LINE
8
BLACK
6
CONTINUOUS
10
2.75886
20
-2.35127
11
2.75548
21
-2.35127
0
LINE
8
BLACK
6
CONTINUOUS
10
2.75548
20
-2.35127
11
2.75444
21
-2.35084
0
LINE
8
BLACK
6
CONTINUOUS
10
2.75444
20
-2.35084
11
2.75401
21
-2.3498
0
LINE
8
BLACK
6
CONTINUOUS
10
2.75401
20
-2.3498
11
2.75444
21
-2.34875
0
LINE
8
BLACK
6
CONTINUOUS
10
2.75444
20
-2.34875
11
2.75548
21
-2.34832
0
LINE
8
BLACK
6
CONTINUOUS
10
2.75548
20
-2.34832
11
2.75738
21
-2.34832
0
LINE
8
BLACK
6
CONTINUOUS
10
2.75738
20
-2.34832
11
2.75738
21
-2.34199
0
LINE
8
BLACK
6
CONTINUOUS
10
2.75738
20
-2.34199
11
2.75727
21
-2.34212
0
LINE
8
BLACK
6
CONTINUOUS
10
2.75727
20
-2.34212
11
2.75614
21
-2.34268
0
LINE
8
BLACK
6
CONTINUOUS
10
2.75614
20
-2.34268
11
2.75502
21
-2.34276
0
LINE
8
BLACK
6
CONTINUOUS
10
2.75502
20
-2.34276
11
2.75416
21
-2.34202
0
LINE
8
BLACK
6
CONTINUOUS
10
2.75416
20
-2.34202
11
2.75408
21
-2.3409
0
LINE
8
BLACK
6
CONTINUOUS
10
2.75408
20
-2.3409
11
2.75482
21
-2.34004
0
LINE
8
BLACK
6
CONTINUOUS
10
2.75482
20
-2.34004
11
2.75573
21
-2.33959
0
LINE
8
BLACK
6
CONTINUOUS
10
2.75573
20
-2.33959
11
2.75659
21
-2.33873
0
LINE
8
BLACK
6
CONTINUOUS
10
2.75659
20
-2.33873
11
2.75763
21
-2.33717
0
LINE
8
BLACK
6
CONTINUOUS
10
2.75763
20
-2.33717
11
2.75776
21
-2.33708
0
LINE
8
BLACK
6
CONTINUOUS
10
2.75776
20
-2.33708
11
2.75781
21
-2.33694
0
LINE
8
BLACK
6
CONTINUOUS
10
2.75781
20
-2.33694
11
2.75821
21
-2.33678
0
LINE
8
BLACK
6
CONTINUOUS
10
2.75821
20
-2.33678
11
2.75857
21
-2.33654
0
LINE
8
BLACK
6
CONTINUOUS
10
2.75857
20
-2.33654
11
2.75872
21
-2.33657
0
LINE
8
BLACK
6
CONTINUOUS
10
2.75872
20
-2.33657
11
2.75886
21
-2.33651
0
LINE
8
BLACK
6
CONTINUOUS
10
2.75886
20
-2.33651
11
2.75926
21
-2.33668
0
LINE
8
BLACK
6
CONTINUOUS
10
2.78573
20
-2.29446
11
2.78606
21
-2.29444
0
LINE
8
BLACK
6
CONTINUOUS
10
2.78606
20
-2.29444
11
2.78887
21
-2.29537
0
LINE
8
BLACK
6
CONTINUOUS
10
2.78887
20
-2.29537
11
2.78921
21
-2.29567
0
LINE
8
BLACK
6
CONTINUOUS
10
2.78921
20
-2.29567
11
2.78964
21
-2.29585
0
LINE
8
BLACK
6
CONTINUOUS
10
2.78964
20
-2.29585
11
2.79151
21
-2.29772
0
LINE
8
BLACK
6
CONTINUOUS
10
2.79151
20
-2.29772
11
2.79164
21
-2.29802
0
LINE
8
BLACK
6
CONTINUOUS
10
2.79164
20
-2.29802
11
2.79188
21
-2.29824
0
LINE
8
BLACK
6
CONTINUOUS
10
2.79188
20
-2.29824
11
2.79282
21
-2.30011
0
LINE
8
BLACK
6
CONTINUOUS
10
2.79282
20
-2.30011
11
2.79283
21
-2.30033
0
LINE
8
BLACK
6
CONTINUOUS
10
2.79283
20
-2.30033
11
2.79297
21
-2.30051
0
LINE
8
BLACK
6
CONTINUOUS
10
2.79297
20
-2.30051
11
2.7939
21
-2.30426
0
LINE
8
BLACK
6
CONTINUOUS
10
2.7939
20
-2.30426
11
2.79387
21
-2.30451
0
LINE
8
BLACK
6
CONTINUOUS
10
2.79387
20
-2.30451
11
2.79396
21
-2.30474
0
LINE
8
BLACK
6
CONTINUOUS
10
2.79396
20
-2.30474
11
2.79396
21
-2.30755
0
LINE
8
BLACK
6
CONTINUOUS
10
2.79396
20
-2.30755
11
2.79387
21
-2.30778
0
LINE
8
BLACK
6
CONTINUOUS
10
2.79387
20
-2.30778
11
2.7939
21
-2.30803
0
LINE
8
BLACK
6
CONTINUOUS
10
2.7939
20
-2.30803
11
2.79297
21
-2.31178
0
LINE
8
BLACK
6
CONTINUOUS
10
2.79297
20
-2.31178
11
2.79283
21
-2.31196
0
LINE
8
BLACK
6
CONTINUOUS
10
2.79283
20
-2.31196
11
2.79282
21
-2.31218
0
LINE
8
BLACK
6
CONTINUOUS
10
2.79282
20
-2.31218
11
2.79188
21
-2.31406
0
LINE
8
BLACK
6
CONTINUOUS
10
2.79188
20
-2.31406
11
2.79164
21
-2.31427
0
LINE
8
BLACK
6
CONTINUOUS
10
2.79164
20
-2.31427
11
2.79151
21
-2.31457
0
LINE
8
BLACK
6
CONTINUOUS
10
2.79151
20
-2.31457
11
2.78964
21
-2.31644
0
LINE
8
BLACK
6
CONTINUOUS
10
2.78964
20
-2.31644
11
2.78921
21
-2.31662
0
LINE
8
BLACK
6
CONTINUOUS
10
2.78921
20
-2.31662
11
2.78887
21
-2.31692
0
LINE
8
BLACK
6
CONTINUOUS
10
2.78887
20
-2.31692
11
2.78606
21
-2.31786
0
LINE
8
BLACK
6
CONTINUOUS
10
2.78606
20
-2.31786
11
2.78573
21
-2.31783
0
LINE
8
BLACK
6
CONTINUOUS
10
2.78573
20
-2.31783
11
2.78543
21
-2.31796
0
LINE
8
BLACK
6
CONTINUOUS
10
2.78543
20
-2.31796
11
2.78075
21
-2.31796
0
LINE
8
BLACK
6
CONTINUOUS
10
2.78075
20
-2.31796
11
2.77935
21
-2.31738
0
LINE
8
BLACK
6
CONTINUOUS
10
2.77935
20
-2.31738
11
2.77878
21
-2.31599
0
LINE
8
BLACK
6
CONTINUOUS
10
2.77878
20
-2.31599
11
2.77878
21
-2.2963
0
LINE
8
BLACK
6
CONTINUOUS
10
2.77878
20
-2.2963
11
2.77935
21
-2.29491
0
LINE
8
BLACK
6
CONTINUOUS
10
2.77935
20
-2.29491
11
2.78075
21
-2.29433
0
LINE
8
BLACK
6
CONTINUOUS
10
2.78075
20
-2.29433
11
2.78543
21
-2.29433
0
LINE
8
BLACK
6
CONTINUOUS
10
2.78543
20
-2.29433
11
2.78573
21
-2.29446
0
LINE
8
BLACK
6
CONTINUOUS
10
2.78271
20
-2.31402
11
2.78511
21
-2.31402
0
LINE
8
BLACK
6
CONTINUOUS
10
2.78511
20
-2.31402
11
2.78718
21
-2.31333
0
LINE
8
BLACK
6
CONTINUOUS
10
2.78718
20
-2.31333
11
2.7885
21
-2.31201
0
LINE
8
BLACK
6
CONTINUOUS
10
2.7885
20
-2.31201
11
2.7892
21
-2.31061
0
LINE
8
BLACK
6
CONTINUOUS
10
2.7892
20
-2.31061
11
2.79003
21
-2.30731
0
LINE
8
BLACK
6
CONTINUOUS
10
2.79003
20
-2.30731
11
2.79003
21
-2.30498
0
LINE
8
BLACK
6
CONTINUOUS
10
2.79003
20
-2.30498
11
2.7892
21
-2.30168
0
LINE
8
BLACK
6
CONTINUOUS
10
2.7892
20
-2.30168
11
2.7885
21
-2.30028
0
LINE
8
BLACK
6
CONTINUOUS
10
2.7885
20
-2.30028
11
2.78718
21
-2.29896
0
LINE
8
BLACK
6
CONTINUOUS
10
2.78718
20
-2.29896
11
2.78511
21
-2.29827
0
LINE
8
BLACK
6
CONTINUOUS
10
2.78511
20
-2.29827
11
2.78271
21
-2.29827
0
LINE
8
BLACK
6
CONTINUOUS
10
2.78271
20
-2.29827
11
2.78271
21
-2.31402
0
LINE
8
BLACK
6
CONTINUOUS
10
2.81205
20
-2.29449
11
2.81246
21
-2.29449
0
LINE
8
BLACK
6
CONTINUOUS
10
2.81246
20
-2.29449
11
2.81272
21
-2.29477
0
LINE
8
BLACK
6
CONTINUOUS
10
2.81272
20
-2.29477
11
2.81307
21
-2.29491
0
LINE
8
BLACK
6
CONTINUOUS
10
2.81307
20
-2.29491
11
2.81323
21
-2.29528
0
LINE
8
BLACK
6
CONTINUOUS
10
2.81323
20
-2.29528
11
2.81351
21
-2.29557
0
LINE
8
BLACK
6
CONTINUOUS
10
2.81351
20
-2.29557
11
2.8135
21
-2.29595
0
LINE
8
BLACK
6
CONTINUOUS
10
2.8135
20
-2.29595
11
2.81365
21
-2.2963
0
LINE
8
BLACK
6
CONTINUOUS
10
2.81365
20
-2.2963
11
2.81349
21
-2.29668
0
LINE
8
BLACK
6
CONTINUOUS
10
2.81349
20
-2.29668
11
2.81349
21
-2.29708
0
LINE
8
BLACK
6
CONTINUOUS
10
2.81349
20
-2.29708
11
2.80505
21
-2.31676
0
LINE
8
BLACK
6
CONTINUOUS
10
2.80505
20
-2.31676
11
2.80397
21
-2.31782
0
LINE
8
BLACK
6
CONTINUOUS
10
2.80397
20
-2.31782
11
2.80247
21
-2.3178
0
LINE
8
BLACK
6
CONTINUOUS
10
2.80247
20
-2.3178
11
2.80142
21
-2.31672
0
LINE
8
BLACK
6
CONTINUOUS
10
2.80142
20
-2.31672
11
2.80143
21
-2.31521
0
LINE
8
BLACK
6
CONTINUOUS
10
2.80143
20
-2.31521
11
2.80869
21
-2.29827
0
LINE
8
BLACK
6
CONTINUOUS
10
2.80869
20
-2.29827
11
2.79856
21
-2.29827
0
LINE
8
BLACK
6
CONTINUOUS
10
2.79856
20
-2.29827
11
2.79716
21
-2.2977
0
LINE
8
BLACK
6
CONTINUOUS
10
2.79716
20
-2.2977
11
2.79659
21
-2.2963
0
LINE
8
BLACK
6
CONTINUOUS
10
2.79659
20
-2.2963
11
2.79716
21
-2.29491
0
LINE
8
BLACK
6
CONTINUOUS
10
2.79716
20
-2.29491
11
2.79856
21
-2.29433
0
LINE
8
BLACK
6
CONTINUOUS
10
2.79856
20
-2.29433
11
2.81168
21
-2.29433
0
LINE
8
BLACK
6
CONTINUOUS
10
2.81168
20
-2.29433
11
2.81205
21
-2.29449
0
LINE
8
BLACK
6
CONTINUOUS
10
3.55245
20
-2.27679
11
3.55291
21
-2.27683
0
LINE
8
BLACK
6
CONTINUOUS
10
3.55291
20
-2.27683
11
3.55478
21
-2.27776
0
LINE
8
BLACK
6
CONTINUOUS
10
3.55478
20
-2.27776
11
3.55499
21
-2.27801
0
LINE
8
BLACK
6
CONTINUOUS
10
3.55499
20
-2.27801
11
3.55529
21
-2.27813
0
LINE
8
BLACK
6
CONTINUOUS
10
3.55529
20
-2.27813
11
3.55623
21
-2.27907
0
LINE
8
BLACK
6
CONTINUOUS
10
3.55623
20
-2.27907
11
3.55635
21
-2.27937
0
LINE
8
BLACK
6
CONTINUOUS
10
3.55635
20
-2.27937
11
3.5566
21
-2.27958
0
LINE
8
BLACK
6
CONTINUOUS
10
3.5566
20
-2.27958
11
3.55753
21
-2.28146
0
LINE
8
BLACK
6
CONTINUOUS
10
3.55753
20
-2.28146
11
3.55757
21
-2.28191
0
LINE
8
BLACK
6
CONTINUOUS
10
3.55757
20
-2.28191
11
3.55774
21
-2.28234
0
LINE
8
BLACK
6
CONTINUOUS
10
3.55774
20
-2.28234
11
3.55774
21
-2.28515
0
LINE
8
BLACK
6
CONTINUOUS
10
3.55774
20
-2.28515
11
3.55757
21
-2.28557
0
LINE
8
BLACK
6
CONTINUOUS
10
3.55757
20
-2.28557
11
3.55753
21
-2.28603
0
LINE
8
BLACK
6
CONTINUOUS
10
3.55753
20
-2.28603
11
3.5566
21
-2.2879
0
LINE
8
BLACK
6
CONTINUOUS
10
3.5566
20
-2.2879
11
3.55635
21
-2.28812
0
LINE
8
BLACK
6
CONTINUOUS
10
3.55635
20
-2.28812
11
3.55623
21
-2.28842
0
LINE
8
BLACK
6
CONTINUOUS
10
3.55623
20
-2.28842
11
3.55529
21
-2.28935
0
LINE
8
BLACK
6
CONTINUOUS
10
3.55529
20
-2.28935
11
3.55499
21
-2.28948
0
LINE
8
BLACK
6
CONTINUOUS
10
3.55499
20
-2.28948
11
3.55478
21
-2.28972
0
LINE
8
BLACK
6
CONTINUOUS
10
3.55478
20
-2.28972
11
3.55291
21
-2.29066
0
LINE
8
BLACK
6
CONTINUOUS
10
3.55291
20
-2.29066
11
3.55285
21
-2.29066
0
LINE
8
BLACK
6
CONTINUOUS
10
3.55285
20
-2.29066
11
3.55739
21
-2.29714
0
LINE
8
BLACK
6
CONTINUOUS
10
3.55739
20
-2.29714
11
3.55771
21
-2.29861
0
LINE
8
BLACK
6
CONTINUOUS
10
3.55771
20
-2.29861
11
3.5569
21
-2.29988
0
LINE
8
BLACK
6
CONTINUOUS
10
3.5569
20
-2.29988
11
3.55543
21
-2.30021
0
LINE
8
BLACK
6
CONTINUOUS
10
3.55543
20
-2.30021
11
3.55416
21
-2.2994
0
LINE
8
BLACK
6
CONTINUOUS
10
3.55416
20
-2.2994
11
3.54819
21
-2.29087
0
LINE
8
BLACK
6
CONTINUOUS
10
3.54819
20
-2.29087
11
3.54649
21
-2.29087
0
LINE
8
BLACK
6
CONTINUOUS
10
3.54649
20
-2.29087
11
3.54649
21
-2.29827
0
LINE
8
BLACK
6
CONTINUOUS
10
3.54649
20
-2.29827
11
3.54592
21
-2.29966
0
LINE
8
BLACK
6
CONTINUOUS
10
3.54592
20
-2.29966
11
3.54453
21
-2.30024
0
LINE
8
BLACK
6
CONTINUOUS
10
3.54453
20
-2.30024
11
3.54313
21
-2.29966
0
LINE
8
BLACK
6
CONTINUOUS
10
3.54313
20
-2.29966
11
3.54256
21
-2.29827
0
LINE
8
BLACK
6
CONTINUOUS
10
3.54256
20
-2.29827
11
3.54256
21
-2.27859
0
LINE
8
BLACK
6
CONTINUOUS
10
3.54256
20
-2.27859
11
3.54313
21
-2.2772
0
LINE
8
BLACK
6
CONTINUOUS
10
3.54313
20
-2.2772
11
3.54453
21
-2.27662
0
LINE
8
BLACK
6
CONTINUOUS
10
3.54453
20
-2.27662
11
3.55202
21
-2.27662
0
LINE
8
BLACK
6
CONTINUOUS
10
3.55202
20
-2.27662
11
3.55245
21
-2.27679
0
LINE
8
BLACK
6
CONTINUOUS
10
3.54649
20
-2.28693
11
3.55156
21
-2.28693
0
LINE
8
BLACK
6
CONTINUOUS
10
3.55156
20
-2.28693
11
3.55273
21
-2.28634
0
LINE
8
BLACK
6
CONTINUOUS
10
3.55273
20
-2.28634
11
3.55322
21
-2.28586
0
LINE
8
BLACK
6
CONTINUOUS
10
3.55322
20
-2.28586
11
3.55381
21
-2.28468
0
LINE
8
BLACK
6
CONTINUOUS
10
3.55381
20
-2.28468
11
3.55381
21
-2.2828
0
LINE
8
BLACK
6
CONTINUOUS
10
3.55381
20
-2.2828
11
3.55322
21
-2.28163
0
LINE
8
BLACK
6
CONTINUOUS
10
3.55322
20
-2.28163
11
3.55273
21
-2.28114
0
LINE
8
BLACK
6
CONTINUOUS
10
3.55273
20
-2.28114
11
3.55156
21
-2.28056
0
LINE
8
BLACK
6
CONTINUOUS
10
3.55156
20
-2.28056
11
3.54649
21
-2.28056
0
LINE
8
BLACK
6
CONTINUOUS
10
3.54649
20
-2.28056
11
3.54649
21
-2.28693
0
LINE
8
BLACK
6
CONTINUOUS
10
3.5712
20
-2.27679
11
3.57165
21
-2.27683
0
LINE
8
BLACK
6
CONTINUOUS
10
3.57165
20
-2.27683
11
3.57353
21
-2.27776
0
LINE
8
BLACK
6
CONTINUOUS
10
3.57353
20
-2.27776
11
3.57374
21
-2.27801
0
LINE
8
BLACK
6
CONTINUOUS
10
3.57374
20
-2.27801
11
3.57404
21
-2.27813
0
LINE
8
BLACK
6
CONTINUOUS
10
3.57404
20
-2.27813
11
3.57498
21
-2.27907
0
LINE
8
BLACK
6
CONTINUOUS
10
3.57498
20
-2.27907
11
3.5751
21
-2.27937
0
LINE
8
BLACK
6
CONTINUOUS
10
3.5751
20
-2.27937
11
3.57535
21
-2.27958
0
LINE
8
BLACK
6
CONTINUOUS
10
3.57535
20
-2.27958
11
3.57628
21
-2.28146
0
LINE
8
BLACK
6
CONTINUOUS
10
3.57628
20
-2.28146
11
3.57632
21
-2.28191
0
LINE
8
BLACK
6
CONTINUOUS
10
3.57632
20
-2.28191
11
3.57649
21
-2.28234
0
LINE
8
BLACK
6
CONTINUOUS
10
3.57649
20
-2.28234
11
3.57649
21
-2.28421
0
LINE
8
BLACK
6
CONTINUOUS
10
3.57649
20
-2.28421
11
3.57637
21
-2.28451
0
LINE
8
BLACK
6
CONTINUOUS
10
3.57637
20
-2.28451
11
3.57639
21
-2.28483
0
LINE
8
BLACK
6
CONTINUOUS
10
3.57639
20
-2.28483
11
3.57545
21
-2.28765
0
LINE
8
BLACK
6
CONTINUOUS
10
3.57545
20
-2.28765
11
3.57515
21
-2.28799
0
LINE
8
BLACK
6
CONTINUOUS
10
3.57515
20
-2.28799
11
3.57498
21
-2.28842
0
LINE
8
BLACK
6
CONTINUOUS
10
3.57498
20
-2.28842
11
3.56709
21
-2.2963
0
LINE
8
BLACK
6
CONTINUOUS
10
3.56709
20
-2.2963
11
3.57452
21
-2.2963
0
LINE
8
BLACK
6
CONTINUOUS
10
3.57452
20
-2.2963
11
3.57591
21
-2.29688
0
LINE
8
BLACK
6
CONTINUOUS
10
3.57591
20
-2.29688
11
3.57649
21
-2.29827
0
LINE
8
BLACK
6
CONTINUOUS
10
3.57649
20
-2.29827
11
3.57591
21
-2.29966
0
LINE
8
BLACK
6
CONTINUOUS
10
3.57591
20
-2.29966
11
3.57452
21
-2.30024
0
LINE
8
BLACK
6
CONTINUOUS
10
3.57452
20
-2.30024
11
3.56234
21
-2.30024
0
LINE
8
BLACK
6
CONTINUOUS
10
3.56234
20
-2.30024
11
3.56094
21
-2.29966
0
LINE
8
BLACK
6
CONTINUOUS
10
3.56094
20
-2.29966
11
3.56037
21
-2.29827
0
LINE
8
BLACK
6
CONTINUOUS
10
3.56037
20
-2.29827
11
3.56094
21
-2.29688
0
LINE
8
BLACK
6
CONTINUOUS
10
3.56094
20
-2.29688
11
3.57186
21
-2.28596
0
LINE
8
BLACK
6
CONTINUOUS
10
3.57186
20
-2.28596
11
3.57255
21
-2.28389
0
LINE
8
BLACK
6
CONTINUOUS
10
3.57255
20
-2.28389
11
3.57255
21
-2.2828
0
LINE
8
BLACK
6
CONTINUOUS
10
3.57255
20
-2.2828
11
3.57197
21
-2.28163
0
LINE
8
BLACK
6
CONTINUOUS
10
3.57197
20
-2.28163
11
3.57148
21
-2.28114
0
LINE
8
BLACK
6
CONTINUOUS
10
3.57148
20
-2.28114
11
3.57031
21
-2.28056
0
LINE
8
BLACK
6
CONTINUOUS
10
3.57031
20
-2.28056
11
3.56655
21
-2.28056
0
LINE
8
BLACK
6
CONTINUOUS
10
3.56655
20
-2.28056
11
3.56538
21
-2.28114
0
LINE
8
BLACK
6
CONTINUOUS
10
3.56538
20
-2.28114
11
3.56467
21
-2.28185
0
LINE
8
BLACK
6
CONTINUOUS
10
3.56467
20
-2.28185
11
3.56327
21
-2.28243
0
LINE
8
BLACK
6
CONTINUOUS
10
3.56327
20
-2.28243
11
3.56188
21
-2.28185
0
LINE
8
BLACK
6
CONTINUOUS
10
3.56188
20
-2.28185
11
3.5613
21
-2.28046
0
LINE
8
BLACK
6
CONTINUOUS
10
3.5613
20
-2.28046
11
3.56188
21
-2.27907
0
LINE
8
BLACK
6
CONTINUOUS
10
3.56188
20
-2.27907
11
3.56282
21
-2.27813
0
LINE
8
BLACK
6
CONTINUOUS
10
3.56282
20
-2.27813
11
3.56312
21
-2.27801
0
LINE
8
BLACK
6
CONTINUOUS
10
3.56312
20
-2.27801
11
3.56333
21
-2.27776
0
LINE
8
BLACK
6
CONTINUOUS
10
3.56333
20
-2.27776
11
3.56521
21
-2.27683
0
LINE
8
BLACK
6
CONTINUOUS
10
3.56521
20
-2.27683
11
3.56566
21
-2.27679
0
LINE
8
BLACK
6
CONTINUOUS
10
3.56566
20
-2.27679
11
3.56609
21
-2.27662
0
LINE
8
BLACK
6
CONTINUOUS
10
3.56609
20
-2.27662
11
3.57077
21
-2.27662
0
LINE
8
BLACK
6
CONTINUOUS
10
3.57077
20
-2.27662
11
3.5712
21
-2.27679
0
LINE
8
BLACK
6
CONTINUOUS
10
3.51634
20
-2.23258
11
3.51703
21
-2.23425
0
LINE
8
BLACK
6
CONTINUOUS
10
3.51703
20
-2.23425
11
3.51634
21
-2.23592
0
LINE
8
BLACK
6
CONTINUOUS
10
3.51634
20
-2.23592
11
3.51467
21
-2.23661
0
LINE
8
BLACK
6
CONTINUOUS
10
3.51467
20
-2.23661
11
3.46348
21
-2.23661
0
LINE
8
BLACK
6
CONTINUOUS
10
3.46348
20
-2.23661
11
3.46348
21
-2.26339
0
LINE
8
BLACK
6
CONTINUOUS
10
3.46348
20
-2.26339
11
3.51467
21
-2.26339
0
LINE
8
BLACK
6
CONTINUOUS
10
3.51467
20
-2.26339
11
3.51634
21
-2.26408
0
LINE
8
BLACK
6
CONTINUOUS
10
3.51634
20
-2.26408
11
3.51703
21
-2.26575
0
LINE
8
BLACK
6
CONTINUOUS
10
3.51703
20
-2.26575
11
3.51634
21
-2.26742
0
LINE
8
BLACK
6
CONTINUOUS
10
3.51634
20
-2.26742
11
3.51467
21
-2.26811
0
LINE
8
BLACK
6
CONTINUOUS
10
3.51467
20
-2.26811
11
3.46112
21
-2.26811
0
LINE
8
BLACK
6
CONTINUOUS
10
3.46112
20
-2.26811
11
3.45945
21
-2.26742
0
LINE
8
BLACK
6
CONTINUOUS
10
3.45945
20
-2.26742
11
3.45876
21
-2.26575
0
LINE
8
BLACK
6
CONTINUOUS
10
3.45876
20
-2.26575
11
3.45876
21
-2.23425
0
LINE
8
BLACK
6
CONTINUOUS
10
3.45876
20
-2.23425
11
3.45945
21
-2.23258
0
LINE
8
BLACK
6
CONTINUOUS
10
3.45945
20
-2.23258
11
3.46112
21
-2.23189
0
LINE
8
BLACK
6
CONTINUOUS
10
3.46112
20
-2.23189
11
3.51467
21
-2.23189
0
LINE
8
BLACK
6
CONTINUOUS
10
3.51467
20
-2.23189
11
3.51634
21
-2.23258
0
LINE
8
BLACK
6
CONTINUOUS
10
3.53423
20
-2.21769
11
3.53456
21
-2.21766
0
LINE
8
BLACK
6
CONTINUOUS
10
3.53456
20
-2.21766
11
3.53737
21
-2.2186
0
LINE
8
BLACK
6
CONTINUOUS
10
3.53737
20
-2.2186
11
3.53771
21
-2.2189
0
LINE
8
BLACK
6
CONTINUOUS
10
3.53771
20
-2.2189
11
3.53814
21
-2.21908
0
LINE
8
BLACK
6
CONTINUOUS
10
3.53814
20
-2.21908
11
3.54001
21
-2.22095
0
LINE
8
BLACK
6
CONTINUOUS
10
3.54001
20
-2.22095
11
3.54014
21
-2.22125
0
LINE
8
BLACK
6
CONTINUOUS
10
3.54014
20
-2.22125
11
3.54038
21
-2.22146
0
LINE
8
BLACK
6
CONTINUOUS
10
3.54038
20
-2.22146
11
3.54132
21
-2.22334
0
LINE
8
BLACK
6
CONTINUOUS
10
3.54132
20
-2.22334
11
3.54133
21
-2.22356
0
LINE
8
BLACK
6
CONTINUOUS
10
3.54133
20
-2.22356
11
3.54147
21
-2.22374
0
LINE
8
BLACK
6
CONTINUOUS
10
3.54147
20
-2.22374
11
3.5424
21
-2.22749
0
LINE
8
BLACK
6
CONTINUOUS
10
3.5424
20
-2.22749
11
3.54237
21
-2.22774
0
LINE
8
BLACK
6
CONTINUOUS
10
3.54237
20
-2.22774
11
3.54246
21
-2.22797
0
LINE
8
BLACK
6
CONTINUOUS
10
3.54246
20
-2.22797
11
3.54246
21
-2.23078
0
LINE
8
BLACK
6
CONTINUOUS
10
3.54246
20
-2.23078
11
3.54237
21
-2.23101
0
LINE
8
BLACK
6
CONTINUOUS
10
3.54237
20
-2.23101
11
3.5424
21
-2.23126
0
LINE
8
BLACK
6
CONTINUOUS
10
3.5424
20
-2.23126
11
3.54147
21
-2.23501
0
LINE
8
BLACK
6
CONTINUOUS
10
3.54147
20
-2.23501
11
3.54133
21
-2.23519
0
LINE
8
BLACK
6
CONTINUOUS
10
3.54133
20
-2.23519
11
3.54132
21
-2.23541
0
LINE
8
BLACK
6
CONTINUOUS
10
3.54132
20
-2.23541
11
3.54038
21
-2.23729
0
LINE
8
BLACK
6
CONTINUOUS
10
3.54038
20
-2.23729
11
3.54014
21
-2.2375
0
LINE
8
BLACK
6
CONTINUOUS
10
3.54014
20
-2.2375
11
3.54001
21
-2.2378
0
LINE
8
BLACK
6
CONTINUOUS
10
3.54001
20
-2.2378
11
3.53814
21
-2.23967
0
LINE
8
BLACK
6
CONTINUOUS
10
3.53814
20
-2.23967
11
3.53771
21
-2.23985
0
LINE
8
BLACK
6
CONTINUOUS
10
3.53771
20
-2.23985
11
3.53737
21
-2.24015
0
LINE
8
BLACK
6
CONTINUOUS
10
3.53737
20
-2.24015
11
3.53456
21
-2.24108
0
LINE
8
BLACK
6
CONTINUOUS
10
3.53456
20
-2.24108
11
3.53423
21
-2.24106
0
LINE
8
BLACK
6
CONTINUOUS
10
3.53423
20
-2.24106
11
3.53393
21
-2.24119
0
LINE
8
BLACK
6
CONTINUOUS
10
3.53393
20
-2.24119
11
3.52925
21
-2.24119
0
LINE
8
BLACK
6
CONTINUOUS
10
3.52925
20
-2.24119
11
3.52785
21
-2.24061
0
LINE
8
BLACK
6
CONTINUOUS
10
3.52785
20
-2.24061
11
3.52728
21
-2.23922
0
LINE
8
BLACK
6
CONTINUOUS
10
3.52728
20
-2.23922
11
3.52728
21
-2.21953
0
LINE
8
BLACK
6
CONTINUOUS
10
3.52728
20
-2.21953
11
3.52785
21
-2.21814
0
LINE
8
BLACK
6
CONTINUOUS
10
3.52785
20
-2.21814
11
3.52925
21
-2.21756
0
LINE
8
BLACK
6
CONTINUOUS
10
3.52925
20
-2.21756
11
3.53393
21
-2.21756
0
LINE
8
BLACK
6
CONTINUOUS
10
3.53393
20
-2.21756
11
3.53423
21
-2.21769
0
LINE
8
BLACK
6
CONTINUOUS
10
3.53121
20
-2.23725
11
3.53361
21
-2.23725
0
LINE
8
BLACK
6
CONTINUOUS
10
3.53361
20
-2.23725
11
3.53568
21
-2.23656
0
LINE
8
BLACK
6
CONTINUOUS
10
3.53568
20
-2.23656
11
3.537
21
-2.23524
0
LINE
8
BLACK
6
CONTINUOUS
10
3.537
20
-2.23524
11
3.5377
21
-2.23384
0
LINE
8
BLACK
6
CONTINUOUS
10
3.5377
20
-2.23384
11
3.53853
21
-2.23054
0
LINE
8
BLACK
6
CONTINUOUS
10
3.53853
20
-2.23054
11
3.53853
21
-2.22821
0
LINE
8
BLACK
6
CONTINUOUS
10
3.53853
20
-2.22821
11
3.5377
21
-2.22491
0
LINE
8
BLACK
6
CONTINUOUS
10
3.5377
20
-2.22491
11
3.537
21
-2.22351
0
LINE
8
BLACK
6
CONTINUOUS
10
3.537
20
-2.22351
11
3.53568
21
-2.22219
0
LINE
8
BLACK
6
CONTINUOUS
10
3.53568
20
-2.22219
11
3.53361
21
-2.2215
0
LINE
8
BLACK
6
CONTINUOUS
10
3.53361
20
-2.2215
11
3.53121
21
-2.2215
0
LINE
8
BLACK
6
CONTINUOUS
10
3.53121
20
-2.2215
11
3.53121
21
-2.23725
0
LINE
8
BLACK
6
CONTINUOUS
10
3.55415
20
-2.21778
11
3.55471
21
-2.21789
0
LINE
8
BLACK
6
CONTINUOUS
10
3.55471
20
-2.21789
11
3.55482
21
-2.21806
0
LINE
8
BLACK
6
CONTINUOUS
10
3.55482
20
-2.21806
11
3.55501
21
-2.21814
0
LINE
8
BLACK
6
CONTINUOUS
10
3.55501
20
-2.21814
11
3.55523
21
-2.21867
0
LINE
8
BLACK
6
CONTINUOUS
10
3.55523
20
-2.21867
11
3.55555
21
-2.21915
0
LINE
8
BLACK
6
CONTINUOUS
10
3.55555
20
-2.21915
11
3.55551
21
-2.21934
0
LINE
8
BLACK
6
CONTINUOUS
10
3.55551
20
-2.21934
11
3.55559
21
-2.21953
0
LINE
8
BLACK
6
CONTINUOUS
10
3.55559
20
-2.21953
11
3.55559
21
-2.23725
0
LINE
8
BLACK
6
CONTINUOUS
10
3.55559
20
-2.23725
11
3.55924
21
-2.23725
0
LINE
8
BLACK
6
CONTINUOUS
10
3.55924
20
-2.23725
11
3.56063
21
-2.23782
0
LINE
8
BLACK
6
CONTINUOUS
10
3.56063
20
-2.23782
11
3.56121
21
-2.23922
0
LINE
8
BLACK
6
CONTINUOUS
10
3.56121
20
-2.23922
11
3.56063
21
-2.24061
0
LINE
8
BLACK
6
CONTINUOUS
10
3.56063
20
-2.24061
11
3.55924
21
-2.24119
0
LINE
8
BLACK
6
CONTINUOUS
10
3.55924
20
-2.24119
11
3.55362
21
-2.24119
0
LINE
8
BLACK
6
CONTINUOUS
10
3.55362
20
-2.24119
11
3.54799
21
-2.24119
0
LINE
8
BLACK
6
CONTINUOUS
10
3.54799
20
-2.24119
11
3.5466
21
-2.24061
0
LINE
8
BLACK
6
CONTINUOUS
10
3.5466
20
-2.24061
11
3.54603
21
-2.23922
0
LINE
8
BLACK
6
CONTINUOUS
10
3.54603
20
-2.23922
11
3.5466
21
-2.23782
0
LINE
8
BLACK
6
CONTINUOUS
10
3.5466
20
-2.23782
11
3.54799
21
-2.23725
0
LINE
8
BLACK
6
CONTINUOUS
10
3.54799
20
-2.23725
11
3.55165
21
-2.23725
0
LINE
8
BLACK
6
CONTINUOUS
10
3.55165
20
-2.23725
11
3.55165
21
-2.22522
0
LINE
8
BLACK
6
CONTINUOUS
10
3.55165
20
-2.22522
11
3.55126
21
-2.22561
0
LINE
8
BLACK
6
CONTINUOUS
10
3.55126
20
-2.22561
11
3.55096
21
-2.22573
0
LINE
8
BLACK
6
CONTINUOUS
10
3.55096
20
-2.22573
11
3.55075
21
-2.22598
0
LINE
8
BLACK
6
CONTINUOUS
10
3.55075
20
-2.22598
11
3.54887
21
-2.22692
0
LINE
8
BLACK
6
CONTINUOUS
10
3.54887
20
-2.22692
11
3.54737
21
-2.22702
0
LINE
8
BLACK
6
CONTINUOUS
10
3.54737
20
-2.22702
11
3.54623
21
-2.22604
0
LINE
8
BLACK
6
CONTINUOUS
10
3.54623
20
-2.22604
11
3.54613
21
-2.22453
0
LINE
8
BLACK
6
CONTINUOUS
10
3.54613
20
-2.22453
11
3.54711
21
-2.2234
0
LINE
8
BLACK
6
CONTINUOUS
10
3.54711
20
-2.2234
11
3.5487
21
-2.2226
0
LINE
8
BLACK
6
CONTINUOUS
10
3.5487
20
-2.2226
11
3.55021
21
-2.22109
0
LINE
8
BLACK
6
CONTINUOUS
10
3.55021
20
-2.22109
11
3.55198
21
-2.21844
0
LINE
8
BLACK
6
CONTINUOUS
10
3.55198
20
-2.21844
11
3.55215
21
-2.21833
0
LINE
8
BLACK
6
CONTINUOUS
10
3.55215
20
-2.21833
11
3.55223
21
-2.21814
0
LINE
8
BLACK
6
CONTINUOUS
10
3.55223
20
-2.21814
11
3.55276
21
-2.21792
0
LINE
8
BLACK
6
CONTINUOUS
10
3.55276
20
-2.21792
11
3.55323
21
-2.2176
0
LINE
8
BLACK
6
CONTINUOUS
10
3.55323
20
-2.2176
11
3.55343
21
-2.21764
0
LINE
8
BLACK
6
CONTINUOUS
10
3.55343
20
-2.21764
11
3.55362
21
-2.21756
0
LINE
8
BLACK
6
CONTINUOUS
10
3.55362
20
-2.21756
11
3.55415
21
-2.21778
0
LINE
8
BLACK
6
CONTINUOUS
10
3.57863
20
-2.21783
11
3.57929
21
-2.21805
0
LINE
8
BLACK
6
CONTINUOUS
10
3.57929
20
-2.21805
11
3.57932
21
-2.21811
0
LINE
8
BLACK
6
CONTINUOUS
10
3.57932
20
-2.21811
11
3.57938
21
-2.21814
0
LINE
8
BLACK
6
CONTINUOUS
10
3.57938
20
-2.21814
11
3.57965
21
-2.21878
0
LINE
8
BLACK
6
CONTINUOUS
10
3.57965
20
-2.21878
11
3.57995
21
-2.2194
0
LINE
8
BLACK
6
CONTINUOUS
10
3.57995
20
-2.2194
11
3.57993
21
-2.21947
0
LINE
8
BLACK
6
CONTINUOUS
10
3.57993
20
-2.21947
11
3.57996
21
-2.21953
0
LINE
8
BLACK
6
CONTINUOUS
10
3.57996
20
-2.21953
11
3.57969
21
-2.22017
0
LINE
8
BLACK
6
CONTINUOUS
10
3.57969
20
-2.22017
11
3.57947
21
-2.22083
0
LINE
8
BLACK
6
CONTINUOUS
10
3.57947
20
-2.22083
11
3.57544
21
-2.22543
0
LINE
8
BLACK
6
CONTINUOUS
10
3.57544
20
-2.22543
11
3.577
21
-2.22621
0
LINE
8
BLACK
6
CONTINUOUS
10
3.577
20
-2.22621
11
3.57721
21
-2.22645
0
LINE
8
BLACK
6
CONTINUOUS
10
3.57721
20
-2.22645
11
3.57751
21
-2.22658
0
LINE
8
BLACK
6
CONTINUOUS
10
3.57751
20
-2.22658
11
3.57844
21
-2.22751
0
LINE
8
BLACK
6
CONTINUOUS
10
3.57844
20
-2.22751
11
3.57857
21
-2.22781
0
LINE
8
BLACK
6
CONTINUOUS
10
3.57857
20
-2.22781
11
3.57881
21
-2.22803
0
LINE
8
BLACK
6
CONTINUOUS
10
3.57881
20
-2.22803
11
3.57975
21
-2.2299
0
LINE
8
BLACK
6
CONTINUOUS
10
3.57975
20
-2.2299
11
3.57978
21
-2.23036
0
LINE
8
BLACK
6
CONTINUOUS
10
3.57978
20
-2.23036
11
3.57996
21
-2.23078
0
LINE
8
BLACK
6
CONTINUOUS
10
3.57996
20
-2.23078
11
3.57996
21
-2.23547
0
LINE
8
BLACK
6
CONTINUOUS
10
3.57996
20
-2.23547
11
3.57978
21
-2.23589
0
LINE
8
BLACK
6
CONTINUOUS
10
3.57978
20
-2.23589
11
3.57975
21
-2.23635
0
LINE
8
BLACK
6
CONTINUOUS
10
3.57975
20
-2.23635
11
3.57881
21
-2.23822
0
LINE
8
BLACK
6
CONTINUOUS
10
3.57881
20
-2.23822
11
3.57857
21
-2.23843
0
LINE
8
BLACK
6
CONTINUOUS
10
3.57857
20
-2.23843
11
3.57844
21
-2.23873
0
LINE
8
BLACK
6
CONTINUOUS
10
3.57844
20
-2.23873
11
3.57751
21
-2.23967
0
LINE
8
BLACK
6
CONTINUOUS
10
3.57751
20
-2.23967
11
3.57721
21
-2.2398
0
LINE
8
BLACK
6
CONTINUOUS
10
3.57721
20
-2.2398
11
3.577
21
-2.24004
0
LINE
8
BLACK
6
CONTINUOUS
10
3.577
20
-2.24004
11
3.57512
21
-2.24098
0
LINE
8
BLACK
6
CONTINUOUS
10
3.57512
20
-2.24098
11
3.57466
21
-2.24101
0
LINE
8
BLACK
6
CONTINUOUS
10
3.57466
20
-2.24101
11
3.57424
21
-2.24119
0
LINE
8
BLACK
6
CONTINUOUS
10
3.57424
20
-2.24119
11
3.56862
21
-2.24119
0
LINE
8
BLACK
6
CONTINUOUS
10
3.56862
20
-2.24119
11
3.56819
21
-2.24101
0
LINE
8
BLACK
6
CONTINUOUS
10
3.56819
20
-2.24101
11
3.56774
21
-2.24098
0
LINE
8
BLACK
6
CONTINUOUS
10
3.56774
20
-2.24098
11
3.56586
21
-2.24004
0
LINE
8
BLACK
6
CONTINUOUS
10
3.56586
20
-2.24004
11
3.56565
21
-2.2398
0
LINE
8
BLACK
6
CONTINUOUS
10
3.56565
20
-2.2398
11
3.56535
21
-2.23967
0
LINE
8
BLACK
6
CONTINUOUS
10
3.56535
20
-2.23967
11
3.56441
21
-2.23873
0
LINE
8
BLACK
6
CONTINUOUS
10
3.56441
20
-2.23873
11
3.56384
21
-2.23734
0
LINE
8
BLACK
6
CONTINUOUS
10
3.56384
20
-2.23734
11
3.56441
21
-2.23595
0
LINE
8
BLACK
6
CONTINUOUS
10
3.56441
20
-2.23595
11
3.5658
21
-2.23537
0
LINE
8
BLACK
6
CONTINUOUS
10
3.5658
20
-2.23537
11
3.5672
21
-2.23595
0
LINE
8
BLACK
6
CONTINUOUS
10
3.5672
20
-2.23595
11
3.56791
21
-2.23666
0
LINE
8
BLACK
6
CONTINUOUS
10
3.56791
20
-2.23666
11
3.56908
21
-2.23725
0
LINE
8
BLACK
6
CONTINUOUS
10
3.56908
20
-2.23725
11
3.57378
21
-2.23725
0
LINE
8
BLACK
6
CONTINUOUS
10
3.57378
20
-2.23725
11
3.57495
21
-2.23666
0
LINE
8
BLACK
6
CONTINUOUS
10
3.57495
20
-2.23666
11
3.57543
21
-2.23618
0
LINE
8
BLACK
6
CONTINUOUS
10
3.57543
20
-2.23618
11
3.57602
21
-2.235
0
LINE
8
BLACK
6
CONTINUOUS
10
3.57602
20
-2.235
11
3.57602
21
-2.23125
0
LINE
8
BLACK
6
CONTINUOUS
10
3.57602
20
-2.23125
11
3.57543
21
-2.23007
0
LINE
8
BLACK
6
CONTINUOUS
10
3.57543
20
-2.23007
11
3.57495
21
-2.22959
0
LINE
8
BLACK
6
CONTINUOUS
10
3.57495
20
-2.22959
11
3.57378
21
-2.229
0
LINE
8
BLACK
6
CONTINUOUS
10
3.57378
20
-2.229
11
3.57143
21
-2.229
0
LINE
8
BLACK
6
CONTINUOUS
10
3.57143
20
-2.229
11
3.57079
21
-2.22873
0
LINE
8
BLACK
6
CONTINUOUS
10
3.57079
20
-2.22873
11
3.57013
21
-2.22851
0
LINE
8
BLACK
6
CONTINUOUS
10
3.57013
20
-2.22851
11
3.5701
21
-2.22845
0
LINE
8
BLACK
6
CONTINUOUS
10
3.5701
20
-2.22845
11
3.57004
21
-2.22842
0
LINE
8
BLACK
6
CONTINUOUS
10
3.57004
20
-2.22842
11
3.56977
21
-2.22778
0
LINE
8
BLACK
6
CONTINUOUS
10
3.56977
20
-2.22778
11
3.56946
21
-2.22716
0
LINE
8
BLACK
6
CONTINUOUS
10
3.56946
20
-2.22716
11
3.56949
21
-2.2271
0
LINE
8
BLACK
6
CONTINUOUS
10
3.56949
20
-2.2271
11
3.56946
21
-2.22703
0
LINE
8
BLACK
6
CONTINUOUS
10
3.56946
20
-2.22703
11
3.56973
21
-2.22639
0
LINE
8
BLACK
6
CONTINUOUS
10
3.56973
20
-2.22639
11
3.56995
21
-2.22573
0
LINE
8
BLACK
6
CONTINUOUS
10
3.56995
20
-2.22573
11
3.57365
21
-2.2215
0
LINE
8
BLACK
6
CONTINUOUS
10
3.57365
20
-2.2215
11
3.5658
21
-2.2215
0
LINE
8
BLACK
6
CONTINUOUS
10
3.5658
20
-2.2215
11
3.56441
21
-2.22092
0
LINE
8
BLACK
6
CONTINUOUS
10
3.56441
20
-2.22092
11
3.56384
21
-2.21953
0
LINE
8
BLACK
6
CONTINUOUS
10
3.56384
20
-2.21953
11
3.56441
21
-2.21814
0
LINE
8
BLACK
6
CONTINUOUS
10
3.56441
20
-2.21814
11
3.5658
21
-2.21756
0
LINE
8
BLACK
6
CONTINUOUS
10
3.5658
20
-2.21756
11
3.57799
21
-2.21756
0
LINE
8
BLACK
6
CONTINUOUS
10
3.57799
20
-2.21756
11
3.57863
21
-2.21783
0
LINE
8
BLACK
6
CONTINUOUS
10
3.43313
20
-2.20761
11
3.44494
21
-2.22806
0
LINE
8
BLACK
6
CONTINUOUS
10
3.44494
20
-2.22806
11
3.46539
21
-2.21625
0
LINE
8
BLACK
6
CONTINUOUS
10
3.46539
20
-2.21625
11
3.46689
21
-2.21606
0
LINE
8
BLACK
6
CONTINUOUS
10
3.46689
20
-2.21606
11
3.46808
21
-2.21697
0
LINE
8
BLACK
6
CONTINUOUS
10
3.46808
20
-2.21697
11
3.46828
21
-2.21847
0
LINE
8
BLACK
6
CONTINUOUS
10
3.46828
20
-2.21847
11
3.46736
21
-2.21966
0
LINE
8
BLACK
6
CONTINUOUS
10
3.46736
20
-2.21966
11
3.4452
21
-2.23246
0
LINE
8
BLACK
6
CONTINUOUS
10
3.4452
20
-2.23246
11
3.44371
21
-2.23265
0
LINE
8
BLACK
6
CONTINUOUS
10
3.44371
20
-2.23265
11
3.44251
21
-2.23174
0
LINE
8
BLACK
6
CONTINUOUS
10
3.44251
20
-2.23174
11
3.42972
21
-2.20958
0
LINE
8
BLACK
6
CONTINUOUS
10
3.42972
20
-2.20958
11
3.42952
21
-2.20808
0
LINE
8
BLACK
6
CONTINUOUS
10
3.42952
20
-2.20808
11
3.43044
21
-2.20689
0
LINE
8
BLACK
6
CONTINUOUS
10
3.43044
20
-2.20689
11
3.43193
21
-2.20669
0
LINE
8
BLACK
6
CONTINUOUS
10
3.43193
20
-2.20669
11
3.43313
21
-2.20761
0
LINE
8
BLACK
6
CONTINUOUS
10
3.50479
20
-2.1959
11
3.50525
21
-2.19584
0
LINE
8
BLACK
6
CONTINUOUS
10
3.50525
20
-2.19584
11
3.50781
21
-2.19653
0
LINE
8
BLACK
6
CONTINUOUS
10
3.50781
20
-2.19653
11
3.50806
21
-2.19673
0
LINE
8
BLACK
6
CONTINUOUS
10
3.50806
20
-2.19673
11
3.50838
21
-2.19679
0
LINE
8
BLACK
6
CONTINUOUS
10
3.50838
20
-2.19679
11
3.51013
21
-2.19794
0
LINE
8
BLACK
6
CONTINUOUS
10
3.51013
20
-2.19794
11
3.51026
21
-2.19813
0
LINE
8
BLACK
6
CONTINUOUS
10
3.51026
20
-2.19813
11
3.51046
21
-2.19822
0
LINE
8
BLACK
6
CONTINUOUS
10
3.51046
20
-2.19822
11
3.51315
21
-2.201
0
LINE
8
BLACK
6
CONTINUOUS
10
3.51315
20
-2.201
11
3.51324
21
-2.20123
0
LINE
8
BLACK
6
CONTINUOUS
10
3.51324
20
-2.20123
11
3.51344
21
-2.20138
0
LINE
8
BLACK
6
CONTINUOUS
10
3.51344
20
-2.20138
11
3.51484
21
-2.20382
0
LINE
8
BLACK
6
CONTINUOUS
10
3.51484
20
-2.20382
11
3.51488
21
-2.20406
0
LINE
8
BLACK
6
CONTINUOUS
10
3.51488
20
-2.20406
11
3.51503
21
-2.20426
0
LINE
8
BLACK
6
CONTINUOUS
10
3.51503
20
-2.20426
11
3.5161
21
-2.20797
0
LINE
8
BLACK
6
CONTINUOUS
10
3.5161
20
-2.20797
11
3.51607
21
-2.2082
0
LINE
8
BLACK
6
CONTINUOUS
10
3.51607
20
-2.2082
11
3.51617
21
-2.2084
0
LINE
8
BLACK
6
CONTINUOUS
10
3.51617
20
-2.2084
11
3.51629
21
-2.21049
0
LINE
8
BLACK
6
CONTINUOUS
10
3.51629
20
-2.21049
11
3.51619
21
-2.2108
0
LINE
8
BLACK
6
CONTINUOUS
10
3.51619
20
-2.2108
11
3.51623
21
-2.21112
0
LINE
8
BLACK
6
CONTINUOUS
10
3.51623
20
-2.21112
11
3.51554
21
-2.21368
0
LINE
8
BLACK
6
CONTINUOUS
10
3.51554
20
-2.21368
11
3.51526
21
-2.21404
0
LINE
8
BLACK
6
CONTINUOUS
10
3.51526
20
-2.21404
11
3.51511
21
-2.21447
0
LINE
8
BLACK
6
CONTINUOUS
10
3.51511
20
-2.21447
11
3.51315
21
-2.21669
0
LINE
8
BLACK
6
CONTINUOUS
10
3.51315
20
-2.21669
11
3.51286
21
-2.21683
0
LINE
8
BLACK
6
CONTINUOUS
10
3.51286
20
-2.21683
11
3.51266
21
-2.21709
0
LINE
8
BLACK
6
CONTINUOUS
10
3.51266
20
-2.21709
11
3.5086
21
-2.21943
0
LINE
8
BLACK
6
CONTINUOUS
10
3.5086
20
-2.21943
11
3.50711
21
-2.21963
0
LINE
8
BLACK
6
CONTINUOUS
10
3.50711
20
-2.21963
11
3.50591
21
-2.21871
0
LINE
8
BLACK
6
CONTINUOUS
10
3.50591
20
-2.21871
11
3.49607
21
-2.20167
0
LINE
8
BLACK
6
CONTINUOUS
10
3.49607
20
-2.20167
11
3.49587
21
-2.20017
0
LINE
8
BLACK
6
CONTINUOUS
10
3.49587
20
-2.20017
11
3.49679
21
-2.19898
0
LINE
8
BLACK
6
CONTINUOUS
10
3.49679
20
-2.19898
11
3.50085
21
-2.19663
0
LINE
8
BLACK
6
CONTINUOUS
10
3.50085
20
-2.19663
11
3.50117
21
-2.19659
0
LINE
8
BLACK
6
CONTINUOUS
10
3.50117
20
-2.19659
11
3.50144
21
-2.19641
0
LINE
8
BLACK
6
CONTINUOUS
10
3.50144
20
-2.19641
11
3.50434
21
-2.19582
0
LINE
8
BLACK
6
CONTINUOUS
10
3.50434
20
-2.19582
11
3.50479
21
-2.1959
0
LINE
8
BLACK
6
CONTINUOUS
10
3.50254
20
-2.2002
11
3.50046
21
-2.2014
0
LINE
8
BLACK
6
CONTINUOUS
10
3.50046
20
-2.2014
11
3.50834
21
-2.21504
0
LINE
8
BLACK
6
CONTINUOUS
10
3.50834
20
-2.21504
11
3.51041
21
-2.21384
0
LINE
8
BLACK
6
CONTINUOUS
10
3.51041
20
-2.21384
11
3.51186
21
-2.21221
0
LINE
8
BLACK
6
CONTINUOUS
10
3.51186
20
-2.21221
11
3.51234
21
-2.21041
0
LINE
8
BLACK
6
CONTINUOUS
10
3.51234
20
-2.21041
11
3.51225
21
-2.20885
0
LINE
8
BLACK
6
CONTINUOUS
10
3.51225
20
-2.20885
11
3.51131
21
-2.20557
0
LINE
8
BLACK
6
CONTINUOUS
10
3.51131
20
-2.20557
11
3.51015
21
-2.20356
0
LINE
8
BLACK
6
CONTINUOUS
10
3.51015
20
-2.20356
11
3.50778
21
-2.20111
0
LINE
8
BLACK
6
CONTINUOUS
10
3.50778
20
-2.20111
11
3.50648
21
-2.20025
0
LINE
8
BLACK
6
CONTINUOUS
10
3.50648
20
-2.20025
11
3.50468
21
-2.19977
0
LINE
8
BLACK
6
CONTINUOUS
10
3.50468
20
-2.19977
11
3.50254
21
-2.2002
0
LINE
8
BLACK
6
CONTINUOUS
10
3.52278
20
-2.18557
11
3.52311
21
-2.18553
0
LINE
8
BLACK
6
CONTINUOUS
10
3.52311
20
-2.18553
11
3.52439
21
-2.18587
0
LINE
8
BLACK
6
CONTINUOUS
10
3.52439
20
-2.18587
11
3.52464
21
-2.18607
0
LINE
8
BLACK
6
CONTINUOUS
10
3.52464
20
-2.18607
11
3.52496
21
-2.18613
0
LINE
8
BLACK
6
CONTINUOUS
10
3.52496
20
-2.18613
11
3.52671
21
-2.18729
0
LINE
8
BLACK
6
CONTINUOUS
10
3.52671
20
-2.18729
11
3.52697
21
-2.18767
0
LINE
8
BLACK
6
CONTINUOUS
10
3.52697
20
-2.18767
11
3.52733
21
-2.18795
0
LINE
8
BLACK
6
CONTINUOUS
10
3.52733
20
-2.18795
11
3.52827
21
-2.18957
0
LINE
8
BLACK
6
CONTINUOUS
10
3.52827
20
-2.18957
11
3.52831
21
-2.18989
0
LINE
8
BLACK
6
CONTINUOUS
10
3.52831
20
-2.18989
11
3.52849
21
-2.19016
0
LINE
8
BLACK
6
CONTINUOUS
10
3.52849
20
-2.19016
11
3.52909
21
-2.19306
0
LINE
8
BLACK
6
CONTINUOUS
10
3.52909
20
-2.19306
11
3.529
21
-2.19351
0
LINE
8
BLACK
6
CONTINUOUS
10
3.529
20
-2.19351
11
3.52906
21
-2.19397
0
LINE
8
BLACK
6
CONTINUOUS
10
3.52906
20
-2.19397
11
3.52617
21
-2.20474
0
LINE
8
BLACK
6
CONTINUOUS
10
3.52617
20
-2.20474
11
3.53261
21
-2.20103
0
LINE
8
BLACK
6
CONTINUOUS
10
3.53261
20
-2.20103
11
3.5341
21
-2.20083
0
LINE
8
BLACK
6
CONTINUOUS
10
3.5341
20
-2.20083
11
3.5353
21
-2.20175
0
LINE
8
BLACK
6
CONTINUOUS
10
3.5353
20
-2.20175
11
3.5355
21
-2.20324
0
LINE
8
BLACK
6
CONTINUOUS
10
3.5355
20
-2.20324
11
3.53458
21
-2.20444
0
LINE
8
BLACK
6
CONTINUOUS
10
3.53458
20
-2.20444
11
3.52402
21
-2.21053
0
LINE
8
BLACK
6
CONTINUOUS
10
3.52402
20
-2.21053
11
3.52253
21
-2.21073
0
LINE
8
BLACK
6
CONTINUOUS
10
3.52253
20
-2.21073
11
3.52134
21
-2.20981
0
LINE
8
BLACK
6
CONTINUOUS
10
3.52134
20
-2.20981
11
3.52114
21
-2.20832
0
LINE
8
BLACK
6
CONTINUOUS
10
3.52114
20
-2.20832
11
3.52514
21
-2.1934
0
LINE
8
BLACK
6
CONTINUOUS
10
3.52514
20
-2.1934
11
3.5247
21
-2.19126
0
LINE
8
BLACK
6
CONTINUOUS
10
3.5247
20
-2.19126
11
3.52415
21
-2.19032
0
LINE
8
BLACK
6
CONTINUOUS
10
3.52415
20
-2.19032
11
3.52306
21
-2.1896
0
LINE
8
BLACK
6
CONTINUOUS
10
3.52306
20
-2.1896
11
3.5224
21
-2.18942
0
LINE
8
BLACK
6
CONTINUOUS
10
3.5224
20
-2.18942
11
3.52109
21
-2.1895
0
LINE
8
BLACK
6
CONTINUOUS
10
3.52109
20
-2.1895
11
3.51783
21
-2.19137
0
LINE
8
BLACK
6
CONTINUOUS
10
3.51783
20
-2.19137
11
3.51711
21
-2.19247
0
LINE
8
BLACK
6
CONTINUOUS
10
3.51711
20
-2.19247
11
3.51685
21
-2.19344
0
LINE
8
BLACK
6
CONTINUOUS
10
3.51685
20
-2.19344
11
3.51593
21
-2.19464
0
LINE
8
BLACK
6
CONTINUOUS
10
3.51593
20
-2.19464
11
3.51444
21
-2.19483
0
LINE
8
BLACK
6
CONTINUOUS
10
3.51444
20
-2.19483
11
3.51324
21
-2.19392
0
LINE
8
BLACK
6
CONTINUOUS
10
3.51324
20
-2.19392
11
3.51305
21
-2.19242
0
LINE
8
BLACK
6
CONTINUOUS
10
3.51305
20
-2.19242
11
3.51339
21
-2.19114
0
LINE
8
BLACK
6
CONTINUOUS
10
3.51339
20
-2.19114
11
3.51359
21
-2.19088
0
LINE
8
BLACK
6
CONTINUOUS
10
3.51359
20
-2.19088
11
3.51365
21
-2.19057
0
LINE
8
BLACK
6
CONTINUOUS
10
3.51365
20
-2.19057
11
3.5148
21
-2.18882
0
LINE
8
BLACK
6
CONTINUOUS
10
3.5148
20
-2.18882
11
3.51518
21
-2.18856
0
LINE
8
BLACK
6
CONTINUOUS
10
3.51518
20
-2.18856
11
3.51546
21
-2.1882
0
LINE
8
BLACK
6
CONTINUOUS
10
3.51546
20
-2.1882
11
3.51952
21
-2.18585
0
LINE
8
BLACK
6
CONTINUOUS
10
3.51952
20
-2.18585
11
3.51997
21
-2.18579
0
LINE
8
BLACK
6
CONTINUOUS
10
3.51997
20
-2.18579
11
3.52039
21
-2.18559
0
LINE
8
BLACK
6
CONTINUOUS
10
3.52039
20
-2.18559
11
3.52248
21
-2.18547
0
LINE
8
BLACK
6
CONTINUOUS
10
3.52248
20
-2.18547
11
3.52278
21
-2.18557
0
LINE
8
BLACK
6
CONTINUOUS
10
2.86728
20
-2.15829
11
2.88944
21
-2.17109
0
LINE
8
BLACK
6
CONTINUOUS
10
2.88944
20
-2.17109
11
2.89036
21
-2.17228
0
LINE
8
BLACK
6
CONTINUOUS
10
2.89036
20
-2.17228
11
2.89017
21
-2.17377
0
LINE
8
BLACK
6
CONTINUOUS
10
2.89017
20
-2.17377
11
2.87737
21
-2.19594
0
LINE
8
BLACK
6
CONTINUOUS
10
2.87737
20
-2.19594
11
2.87617
21
-2.19685
0
LINE
8
BLACK
6
CONTINUOUS
10
2.87617
20
-2.19685
11
2.87468
21
-2.19666
0
LINE
8
BLACK
6
CONTINUOUS
10
2.87468
20
-2.19666
11
2.87376
21
-2.19546
0
LINE
8
BLACK
6
CONTINUOUS
10
2.87376
20
-2.19546
11
2.87396
21
-2.19397
0
LINE
8
BLACK
6
CONTINUOUS
10
2.87396
20
-2.19397
11
2.88577
21
-2.17351
0
LINE
8
BLACK
6
CONTINUOUS
10
2.88577
20
-2.17351
11
2.86531
21
-2.1617
0
LINE
8
BLACK
6
CONTINUOUS
10
2.86531
20
-2.1617
11
2.8644
21
-2.1605
0
LINE
8
BLACK
6
CONTINUOUS
10
2.8644
20
-2.1605
11
2.86459
21
-2.15901
0
LINE
8
BLACK
6
CONTINUOUS
10
2.86459
20
-2.15901
11
2.86579
21
-2.15809
0
LINE
8
BLACK
6
CONTINUOUS
10
2.86579
20
-2.15809
11
2.86728
21
-2.15829
0
LINE
8
BLACK
6
CONTINUOUS
10
3.49384
20
-2.17514
11
3.49399
21
-2.17512
0
LINE
8
BLACK
6
CONTINUOUS
10
3.49399
20
-2.17512
11
3.49434
21
-2.17538
0
LINE
8
BLACK
6
CONTINUOUS
10
3.49434
20
-2.17538
11
3.49472
21
-2.17557
0
LINE
8
BLACK
6
CONTINUOUS
10
3.49472
20
-2.17557
11
3.49477
21
-2.17571
0
LINE
8
BLACK
6
CONTINUOUS
10
3.49477
20
-2.17571
11
3.49489
21
-2.17581
0
LINE
8
BLACK
6
CONTINUOUS
10
3.49489
20
-2.17581
11
3.50006
21
-2.18476
0
LINE
8
BLACK
6
CONTINUOUS
10
3.50006
20
-2.18476
11
3.5017
21
-2.18381
0
LINE
8
BLACK
6
CONTINUOUS
10
3.5017
20
-2.18381
11
3.50282
21
-2.18366
0
LINE
8
BLACK
6
CONTINUOUS
10
3.50282
20
-2.18366
11
3.50372
21
-2.18435
0
LINE
8
BLACK
6
CONTINUOUS
10
3.50372
20
-2.18435
11
3.50387
21
-2.18547
0
LINE
8
BLACK
6
CONTINUOUS
10
3.50387
20
-2.18547
11
3.50318
21
-2.18636
0
LINE
8
BLACK
6
CONTINUOUS
10
3.50318
20
-2.18636
11
3.49733
21
-2.18974
0
LINE
8
BLACK
6
CONTINUOUS
10
3.49733
20
-2.18974
11
3.49621
21
-2.18989
0
LINE
8
BLACK
6
CONTINUOUS
10
3.49621
20
-2.18989
11
3.49532
21
-2.1892
0
LINE
8
BLACK
6
CONTINUOUS
10
3.49532
20
-2.1892
11
3.49517
21
-2.18808
0
LINE
8
BLACK
6
CONTINUOUS
10
3.49517
20
-2.18808
11
3.49586
21
-2.18718
0
LINE
8
BLACK
6
CONTINUOUS
10
3.49586
20
-2.18718
11
3.4975
21
-2.18623
0
LINE
8
BLACK
6
CONTINUOUS
10
3.4975
20
-2.18623
11
3.49433
21
-2.18075
0
LINE
8
BLACK
6
CONTINUOUS
10
3.49433
20
-2.18075
11
3.4943
21
-2.18092
0
LINE
8
BLACK
6
CONTINUOUS
10
3.4943
20
-2.18092
11
3.49361
21
-2.18197
0
LINE
8
BLACK
6
CONTINUOUS
10
3.49361
20
-2.18197
11
3.49267
21
-2.1826
0
LINE
8
BLACK
6
CONTINUOUS
10
3.49267
20
-2.1826
11
3.49156
21
-2.18239
0
LINE
8
BLACK
6
CONTINUOUS
10
3.49156
20
-2.18239
11
3.49093
21
-2.18145
0
LINE
8
BLACK
6
CONTINUOUS
10
3.49093
20
-2.18145
11
3.49114
21
-2.18034
0
LINE
8
BLACK
6
CONTINUOUS
10
3.49114
20
-2.18034
11
3.49171
21
-2.17949
0
LINE
8
BLACK
6
CONTINUOUS
10
3.49171
20
-2.17949
11
3.49202
21
-2.17833
0
LINE
8
BLACK
6
CONTINUOUS
10
3.49202
20
-2.17833
11
3.49214
21
-2.17645
0
LINE
8
BLACK
6
CONTINUOUS
10
3.49214
20
-2.17645
11
3.49221
21
-2.17631
0
LINE
8
BLACK
6
CONTINUOUS
10
3.49221
20
-2.17631
11
3.49219
21
-2.17616
0
LINE
8
BLACK
6
CONTINUOUS
10
3.49219
20
-2.17616
11
3.49245
21
-2.17582
0
LINE
8
BLACK
6
CONTINUOUS
10
3.49245
20
-2.17582
11
3.49264
21
-2.17543
0
LINE
8
BLACK
6
CONTINUOUS
10
3.49264
20
-2.17543
11
3.49278
21
-2.17539
0
LINE
8
BLACK
6
CONTINUOUS
10
3.49278
20
-2.17539
11
3.49287
21
-2.17527
0
LINE
8
BLACK
6
CONTINUOUS
10
3.49287
20
-2.17527
11
3.4933
21
-2.17521
0
LINE
8
BLACK
6
CONTINUOUS
10
3.4933
20
-2.17521
11
3.49371
21
-2.17507
0
LINE
8
BLACK
6
CONTINUOUS
10
3.49371
20
-2.17507
11
3.49384
21
-2.17514
0
LINE
8
BLACK
6
CONTINUOUS
10
2.82336
20
-2.14449
11
2.82379
21
-2.14446
0
LINE
8
BLACK
6
CONTINUOUS
10
2.82379
20
-2.14446
11
2.8239
21
-2.14456
0
LINE
8
BLACK
6
CONTINUOUS
10
2.8239
20
-2.14456
11
2.82406
21
-2.14458
0
LINE
8
BLACK
6
CONTINUOUS
10
2.82406
20
-2.14458
11
2.82432
21
-2.14492
0
LINE
8
BLACK
6
CONTINUOUS
10
2.82432
20
-2.14492
11
2.82464
21
-2.1452
0
LINE
8
BLACK
6
CONTINUOUS
10
2.82464
20
-2.1452
11
2.82465
21
-2.14536
0
LINE
8
BLACK
6
CONTINUOUS
10
2.82465
20
-2.14536
11
2.82474
21
-2.14548
0
LINE
8
BLACK
6
CONTINUOUS
10
2.82474
20
-2.14548
11
2.82469
21
-2.1459
0
LINE
8
BLACK
6
CONTINUOUS
10
2.82469
20
-2.1459
11
2.82472
21
-2.14633
0
LINE
8
BLACK
6
CONTINUOUS
10
2.82472
20
-2.14633
11
2.82462
21
-2.14645
0
LINE
8
BLACK
6
CONTINUOUS
10
2.82462
20
-2.14645
11
2.8246
21
-2.1466
0
LINE
8
BLACK
6
CONTINUOUS
10
2.8246
20
-2.1466
11
2.81943
21
-2.15555
0
LINE
8
BLACK
6
CONTINUOUS
10
2.81943
20
-2.15555
11
2.82107
21
-2.1565
0
LINE
8
BLACK
6
CONTINUOUS
10
2.82107
20
-2.1565
11
2.82176
21
-2.15739
0
LINE
8
BLACK
6
CONTINUOUS
10
2.82176
20
-2.15739
11
2.82161
21
-2.15851
0
LINE
8
BLACK
6
CONTINUOUS
10
2.82161
20
-2.15851
11
2.82072
21
-2.1592
0
LINE
8
BLACK
6
CONTINUOUS
10
2.82072
20
-2.1592
11
2.8196
21
-2.15905
0
LINE
8
BLACK
6
CONTINUOUS
10
2.8196
20
-2.15905
11
2.81375
21
-2.15568
0
LINE
8
BLACK
6
CONTINUOUS
10
2.81375
20
-2.15568
11
2.81306
21
-2.15478
0
LINE
8
BLACK
6
CONTINUOUS
10
2.81306
20
-2.15478
11
2.81321
21
-2.15366
0
LINE
8
BLACK
6
CONTINUOUS
10
2.81321
20
-2.15366
11
2.81411
21
-2.15297
0
LINE
8
BLACK
6
CONTINUOUS
10
2.81411
20
-2.15297
11
2.81523
21
-2.15312
0
LINE
8
BLACK
6
CONTINUOUS
10
2.81523
20
-2.15312
11
2.81687
21
-2.15407
0
LINE
8
BLACK
6
CONTINUOUS
10
2.81687
20
-2.15407
11
2.82004
21
-2.14859
0
LINE
8
BLACK
6
CONTINUOUS
10
2.82004
20
-2.14859
11
2.81987
21
-2.14864
0
LINE
8
BLACK
6
CONTINUOUS
10
2.81987
20
-2.14864
11
2.81862
21
-2.14857
0
LINE
8
BLACK
6
CONTINUOUS
10
2.81862
20
-2.14857
11
2.8176
21
-2.14807
0
LINE
8
BLACK
6
CONTINUOUS
10
2.8176
20
-2.14807
11
2.81723
21
-2.147
0
LINE
8
BLACK
6
CONTINUOUS
10
2.81723
20
-2.147
11
2.81773
21
-2.14599
0
LINE
8
BLACK
6
CONTINUOUS
10
2.81773
20
-2.14599
11
2.8188
21
-2.14562
0
LINE
8
BLACK
6
CONTINUOUS
10
2.8188
20
-2.14562
11
2.81981
21
-2.14568
0
LINE
8
BLACK
6
CONTINUOUS
10
2.81981
20
-2.14568
11
2.82098
21
-2.14537
0
LINE
8
BLACK
6
CONTINUOUS
10
2.82098
20
-2.14537
11
2.82266
21
-2.14453
0
LINE
8
BLACK
6
CONTINUOUS
10
2.82266
20
-2.14453
11
2.82281
21
-2.14452
0
LINE
8
BLACK
6
CONTINUOUS
10
2.82281
20
-2.14452
11
2.82293
21
-2.14443
0
LINE
8
BLACK
6
CONTINUOUS
10
2.82293
20
-2.14443
11
2.82336
21
-2.14449
0
LINE
8
BLACK
6
CONTINUOUS
10
2.88434
20
-2.13092
11
2.88475
21
-2.13112
0
LINE
8
BLACK
6
CONTINUOUS
10
2.88475
20
-2.13112
11
2.88521
21
-2.13118
0
LINE
8
BLACK
6
CONTINUOUS
10
2.88521
20
-2.13118
11
2.88845
21
-2.13306
0
LINE
8
BLACK
6
CONTINUOUS
10
2.88845
20
-2.13306
11
2.88937
21
-2.13425
0
LINE
8
BLACK
6
CONTINUOUS
10
2.88937
20
-2.13425
11
2.88917
21
-2.13575
0
LINE
8
BLACK
6
CONTINUOUS
10
2.88917
20
-2.13575
11
2.88798
21
-2.13666
0
LINE
8
BLACK
6
CONTINUOUS
10
2.88798
20
-2.13666
11
2.88648
21
-2.13647
0
LINE
8
BLACK
6
CONTINUOUS
10
2.88648
20
-2.13647
11
2.88364
21
-2.13483
0
LINE
8
BLACK
6
CONTINUOUS
10
2.88364
20
-2.13483
11
2.88233
21
-2.13475
0
LINE
8
BLACK
6
CONTINUOUS
10
2.88233
20
-2.13475
11
2.88155
21
-2.13496
0
LINE
8
BLACK
6
CONTINUOUS
10
2.88155
20
-2.13496
11
2.879
21
-2.13622
0
LINE
8
BLACK
6
CONTINUOUS
10
2.879
20
-2.13622
11
2.87875
21
-2.13647
0
LINE
8
BLACK
6
CONTINUOUS
10
2.87875
20
-2.13647
11
2.87897
21
-2.13648
0
LINE
8
BLACK
6
CONTINUOUS
10
2.87897
20
-2.13648
11
2.87938
21
-2.13668
0
LINE
8
BLACK
6
CONTINUOUS
10
2.87938
20
-2.13668
11
2.87983
21
-2.13674
0
LINE
8
BLACK
6
CONTINUOUS
10
2.87983
20
-2.13674
11
2.88308
21
-2.13862
0
LINE
8
BLACK
6
CONTINUOUS
10
2.88308
20
-2.13862
11
2.88336
21
-2.13898
0
LINE
8
BLACK
6
CONTINUOUS
10
2.88336
20
-2.13898
11
2.88374
21
-2.13924
0
LINE
8
BLACK
6
CONTINUOUS
10
2.88374
20
-2.13924
11
2.88489
21
-2.14098
0
LINE
8
BLACK
6
CONTINUOUS
10
2.88489
20
-2.14098
11
2.88495
21
-2.1413
0
LINE
8
BLACK
6
CONTINUOUS
10
2.88495
20
-2.1413
11
2.88515
21
-2.14156
0
LINE
8
BLACK
6
CONTINUOUS
10
2.88515
20
-2.14156
11
2.88549
21
-2.14284
0
LINE
8
BLACK
6
CONTINUOUS
10
2.88549
20
-2.14284
11
2.88545
21
-2.14316
0
LINE
8
BLACK
6
CONTINUOUS
10
2.88545
20
-2.14316
11
2.88556
21
-2.14347
0
LINE
8
BLACK
6
CONTINUOUS
10
2.88556
20
-2.14347
11
2.88543
21
-2.14556
0
LINE
8
BLACK
6
CONTINUOUS
10
2.88543
20
-2.14556
11
2.88523
21
-2.14597
0
LINE
8
BLACK
6
CONTINUOUS
10
2.88523
20
-2.14597
11
2.88517
21
-2.14643
0
LINE
8
BLACK
6
CONTINUOUS
10
2.88517
20
-2.14643
11
2.88283
21
-2.15049
0
LINE
8
BLACK
6
CONTINUOUS
10
2.88283
20
-2.15049
11
2.88247
21
-2.15076
0
LINE
8
BLACK
6
CONTINUOUS
10
2.88247
20
-2.15076
11
2.88221
21
-2.15114
0
LINE
8
BLACK
6
CONTINUOUS
10
2.88221
20
-2.15114
11
2.88046
21
-2.1523
0
LINE
8
BLACK
6
CONTINUOUS
10
2.88046
20
-2.1523
11
2.88014
21
-2.15236
0
LINE
8
BLACK
6
CONTINUOUS
10
2.88014
20
-2.15236
11
2.87988
21
-2.15256
0
LINE
8
BLACK
6
CONTINUOUS
10
2.87988
20
-2.15256
11
2.8786
21
-2.1529
0
LINE
8
BLACK
6
CONTINUOUS
10
2.8786
20
-2.1529
11
2.87828
21
-2.15286
0
LINE
8
BLACK
6
CONTINUOUS
10
2.87828
20
-2.15286
11
2.87798
21
-2.15296
0
LINE
8
BLACK
6
CONTINUOUS
10
2.87798
20
-2.15296
11
2.87588
21
-2.15284
0
LINE
8
BLACK
6
CONTINUOUS
10
2.87588
20
-2.15284
11
2.87547
21
-2.15264
0
LINE
8
BLACK
6
CONTINUOUS
10
2.87547
20
-2.15264
11
2.87502
21
-2.15258
0
LINE
8
BLACK
6
CONTINUOUS
10
2.87502
20
-2.15258
11
2.87177
21
-2.1507
0
LINE
8
BLACK
6
CONTINUOUS
10
2.87177
20
-2.1507
11
2.87149
21
-2.15034
0
LINE
8
BLACK
6
CONTINUOUS
10
2.87149
20
-2.15034
11
2.87111
21
-2.15008
0
LINE
8
BLACK
6
CONTINUOUS
10
2.87111
20
-2.15008
11
2.86996
21
-2.14833
0
LINE
8
BLACK
6
CONTINUOUS
10
2.86996
20
-2.14833
11
2.8699
21
-2.14802
0
LINE
8
BLACK
6
CONTINUOUS
10
2.8699
20
-2.14802
11
2.8697
21
-2.14776
0
LINE
8
BLACK
6
CONTINUOUS
10
2.8697
20
-2.14776
11
2.86936
21
-2.14648
0
LINE
8
BLACK
6
CONTINUOUS
10
2.86936
20
-2.14648
11
2.8694
21
-2.14616
0
LINE
8
BLACK
6
CONTINUOUS
10
2.8694
20
-2.14616
11
2.86929
21
-2.14585
0
LINE
8
BLACK
6
CONTINUOUS
10
2.86929
20
-2.14585
11
2.86942
21
-2.14376
0
LINE
8
BLACK
6
CONTINUOUS
10
2.86942
20
-2.14376
11
2.86962
21
-2.14335
0
LINE
8
BLACK
6
CONTINUOUS
10
2.86962
20
-2.14335
11
2.86968
21
-2.14289
0
LINE
8
BLACK
6
CONTINUOUS
10
2.86968
20
-2.14289
11
2.87343
21
-2.1364
0
LINE
8
BLACK
6
CONTINUOUS
10
2.87343
20
-2.1364
11
2.87363
21
-2.13625
0
LINE
8
BLACK
6
CONTINUOUS
10
2.87363
20
-2.13625
11
2.87372
21
-2.13601
0
LINE
8
BLACK
6
CONTINUOUS
10
2.87372
20
-2.13601
11
2.8764
21
-2.13324
0
LINE
8
BLACK
6
CONTINUOUS
10
2.8764
20
-2.13324
11
2.87672
21
-2.1331
0
LINE
8
BLACK
6
CONTINUOUS
10
2.87672
20
-2.1331
11
2.87695
21
-2.13284
0
LINE
8
BLACK
6
CONTINUOUS
10
2.87695
20
-2.13284
11
2.87998
21
-2.13134
0
LINE
8
BLACK
6
CONTINUOUS
10
2.87998
20
-2.13134
11
2.88018
21
-2.13133
0
LINE
8
BLACK
6
CONTINUOUS
10
2.88018
20
-2.13133
11
2.88034
21
-2.1312
0
LINE
8
BLACK
6
CONTINUOUS
10
2.88034
20
-2.1312
11
2.88162
21
-2.13086
0
LINE
8
BLACK
6
CONTINUOUS
10
2.88162
20
-2.13086
11
2.88194
21
-2.1309
0
LINE
8
BLACK
6
CONTINUOUS
10
2.88194
20
-2.1309
11
2.88225
21
-2.1308
0
LINE
8
BLACK
6
CONTINUOUS
10
2.88225
20
-2.1308
11
2.88434
21
-2.13092
0
LINE
8
BLACK
6
CONTINUOUS
10
2.87629
20
-2.14048
11
2.8752
21
-2.1412
0
LINE
8
BLACK
6
CONTINUOUS
10
2.8752
20
-2.1412
11
2.87332
21
-2.14446
0
LINE
8
BLACK
6
CONTINUOUS
10
2.87332
20
-2.14446
11
2.87324
21
-2.14577
0
LINE
8
BLACK
6
CONTINUOUS
10
2.87324
20
-2.14577
11
2.87342
21
-2.14643
0
LINE
8
BLACK
6
CONTINUOUS
10
2.87342
20
-2.14643
11
2.87414
21
-2.14753
0
LINE
8
BLACK
6
CONTINUOUS
10
2.87414
20
-2.14753
11
2.87658
21
-2.14894
0
LINE
8
BLACK
6
CONTINUOUS
10
2.87658
20
-2.14894
11
2.87789
21
-2.14902
0
LINE
8
BLACK
6
CONTINUOUS
10
2.87789
20
-2.14902
11
2.87856
21
-2.14884
0
LINE
8
BLACK
6
CONTINUOUS
10
2.87856
20
-2.14884
11
2.87965
21
-2.14811
0
LINE
8
BLACK
6
CONTINUOUS
10
2.87965
20
-2.14811
11
2.88153
21
-2.14486
0
LINE
8
BLACK
6
CONTINUOUS
10
2.88153
20
-2.14486
11
2.88161
21
-2.14355
0
LINE
8
BLACK
6
CONTINUOUS
10
2.88161
20
-2.14355
11
2.88143
21
-2.14289
0
LINE
8
BLACK
6
CONTINUOUS
10
2.88143
20
-2.14289
11
2.88071
21
-2.14179
0
LINE
8
BLACK
6
CONTINUOUS
10
2.88071
20
-2.14179
11
2.87827
21
-2.14038
0
LINE
8
BLACK
6
CONTINUOUS
10
2.87827
20
-2.14038
11
2.87696
21
-2.1403
0
LINE
8
BLACK
6
CONTINUOUS
10
2.87696
20
-2.1403
11
2.87629
21
-2.14048
0
LINE
8
BLACK
6
CONTINUOUS
10
2.8641
20
-2.119
11
2.86816
21
-2.12134
0
LINE
8
BLACK
6
CONTINUOUS
10
2.86816
20
-2.12134
11
2.86836
21
-2.1216
0
LINE
8
BLACK
6
CONTINUOUS
10
2.86836
20
-2.1216
11
2.86865
21
-2.12174
0
LINE
8
BLACK
6
CONTINUOUS
10
2.86865
20
-2.12174
11
2.87061
21
-2.12396
0
LINE
8
BLACK
6
CONTINUOUS
10
2.87061
20
-2.12396
11
2.87076
21
-2.12439
0
LINE
8
BLACK
6
CONTINUOUS
10
2.87076
20
-2.12439
11
2.87104
21
-2.12475
0
LINE
8
BLACK
6
CONTINUOUS
10
2.87104
20
-2.12475
11
2.87173
21
-2.12732
0
LINE
8
BLACK
6
CONTINUOUS
10
2.87173
20
-2.12732
11
2.87169
21
-2.12764
0
LINE
8
BLACK
6
CONTINUOUS
10
2.87169
20
-2.12764
11
2.87179
21
-2.12794
0
LINE
8
BLACK
6
CONTINUOUS
10
2.87179
20
-2.12794
11
2.87167
21
-2.13004
0
LINE
8
BLACK
6
CONTINUOUS
10
2.87167
20
-2.13004
11
2.87157
21
-2.13024
0
LINE
8
BLACK
6
CONTINUOUS
10
2.87157
20
-2.13024
11
2.87159
21
-2.13046
0
LINE
8
BLACK
6
CONTINUOUS
10
2.87159
20
-2.13046
11
2.87053
21
-2.13417
0
LINE
8
BLACK
6
CONTINUOUS
10
2.87053
20
-2.13417
11
2.87038
21
-2.13437
0
LINE
8
BLACK
6
CONTINUOUS
10
2.87038
20
-2.13437
11
2.87034
21
-2.13462
0
LINE
8
BLACK
6
CONTINUOUS
10
2.87034
20
-2.13462
11
2.86894
21
-2.13705
0
LINE
8
BLACK
6
CONTINUOUS
10
2.86894
20
-2.13705
11
2.86874
21
-2.1372
0
LINE
8
BLACK
6
CONTINUOUS
10
2.86874
20
-2.1372
11
2.86865
21
-2.13744
0
LINE
8
BLACK
6
CONTINUOUS
10
2.86865
20
-2.13744
11
2.86596
21
-2.14022
0
LINE
8
BLACK
6
CONTINUOUS
10
2.86596
20
-2.14022
11
2.86576
21
-2.1403
0
LINE
8
BLACK
6
CONTINUOUS
10
2.86576
20
-2.1403
11
2.86563
21
-2.14049
0
LINE
8
BLACK
6
CONTINUOUS
10
2.86563
20
-2.14049
11
2.86388
21
-2.14164
0
LINE
8
BLACK
6
CONTINUOUS
10
2.86388
20
-2.14164
11
2.86356
21
-2.14171
0
LINE
8
BLACK
6
CONTINUOUS
10
2.86356
20
-2.14171
11
2.86331
21
-2.1419
0
LINE
8
BLACK
6
CONTINUOUS
10
2.86331
20
-2.1419
11
2.86074
21
-2.14259
0
LINE
8
BLACK
6
CONTINUOUS
10
2.86074
20
-2.14259
11
2.86029
21
-2.14253
0
LINE
8
BLACK
6
CONTINUOUS
10
2.86029
20
-2.14253
11
2.85984
21
-2.14262
0
LINE
8
BLACK
6
CONTINUOUS
10
2.85984
20
-2.14262
11
2.85694
21
-2.14202
0
LINE
8
BLACK
6
CONTINUOUS
10
2.85694
20
-2.14202
11
2.85667
21
-2.14184
0
LINE
8
BLACK
6
CONTINUOUS
10
2.85667
20
-2.14184
11
2.85635
21
-2.1418
0
LINE
8
BLACK
6
CONTINUOUS
10
2.85635
20
-2.1418
11
2.85229
21
-2.13945
0
LINE
8
BLACK
6
CONTINUOUS
10
2.85229
20
-2.13945
11
2.85137
21
-2.13826
0
LINE
8
BLACK
6
CONTINUOUS
10
2.85137
20
-2.13826
11
2.85157
21
-2.13677
0
LINE
8
BLACK
6
CONTINUOUS
10
2.85157
20
-2.13677
11
2.86141
21
-2.11972
0
LINE
8
BLACK
6
CONTINUOUS
10
2.86141
20
-2.11972
11
2.86261
21
-2.1188
0
LINE
8
BLACK
6
CONTINUOUS
10
2.86261
20
-2.1188
11
2.8641
21
-2.119
0
LINE
8
BLACK
6
CONTINUOUS
10
2.85596
20
-2.13703
11
2.85804
21
-2.13823
0
LINE
8
BLACK
6
CONTINUOUS
10
2.85804
20
-2.13823
11
2.86017
21
-2.13867
0
LINE
8
BLACK
6
CONTINUOUS
10
2.86017
20
-2.13867
11
2.86198
21
-2.13818
0
LINE
8
BLACK
6
CONTINUOUS
10
2.86198
20
-2.13818
11
2.86328
21
-2.13732
0
LINE
8
BLACK
6
CONTINUOUS
10
2.86328
20
-2.13732
11
2.86565
21
-2.13487
0
LINE
8
BLACK
6
CONTINUOUS
10
2.86565
20
-2.13487
11
2.86681
21
-2.13286
0
LINE
8
BLACK
6
CONTINUOUS
10
2.86681
20
-2.13286
11
2.86775
21
-2.12958
0
LINE
8
BLACK
6
CONTINUOUS
10
2.86775
20
-2.12958
11
2.86784
21
-2.12803
0
LINE
8
BLACK
6
CONTINUOUS
10
2.86784
20
-2.12803
11
2.86736
21
-2.12622
0
LINE
8
BLACK
6
CONTINUOUS
10
2.86736
20
-2.12622
11
2.86591
21
-2.12459
0
LINE
8
BLACK
6
CONTINUOUS
10
2.86591
20
-2.12459
11
2.86384
21
-2.12339
0
LINE
8
BLACK
6
CONTINUOUS
10
2.86384
20
-2.12339
11
2.85596
21
-2.13703
0
LINE
8
BLACK
6
CONTINUOUS
10
3.3528
20
-2.07719
11
3.35372
21
-2.07839
0
LINE
8
BLACK
6
CONTINUOUS
10
3.35372
20
-2.07839
11
3.35352
21
-2.07988
0
LINE
8
BLACK
6
CONTINUOUS
10
3.35352
20
-2.07988
11
3.34073
21
-2.10204
0
LINE
8
BLACK
6
CONTINUOUS
10
3.34073
20
-2.10204
11
3.33953
21
-2.10296
0
LINE
8
BLACK
6
CONTINUOUS
10
3.33953
20
-2.10296
11
3.33953
21
-2.10296
0
LINE
8
BLACK
6
CONTINUOUS
10
3.33953
20
-2.10296
11
3.33953
21
-2.10296
0
LINE
8
BLACK
6
CONTINUOUS
10
3.33953
20
-2.10296
11
3.33804
21
-2.10276
0
LINE
8
BLACK
6
CONTINUOUS
10
3.33804
20
-2.10276
11
3.31587
21
-2.08997
0
LINE
8
BLACK
6
CONTINUOUS
10
3.31587
20
-2.08997
11
3.31496
21
-2.08877
0
LINE
8
BLACK
6
CONTINUOUS
10
3.31496
20
-2.08877
11
3.31515
21
-2.08728
0
LINE
8
BLACK
6
CONTINUOUS
10
3.31515
20
-2.08728
11
3.31635
21
-2.08636
0
LINE
8
BLACK
6
CONTINUOUS
10
3.31635
20
-2.08636
11
3.31784
21
-2.08656
0
LINE
8
BLACK
6
CONTINUOUS
10
3.31784
20
-2.08656
11
3.3383
21
-2.09837
0
LINE
8
BLACK
6
CONTINUOUS
10
3.3383
20
-2.09837
11
3.35011
21
-2.07791
0
LINE
8
BLACK
6
CONTINUOUS
10
3.35011
20
-2.07791
11
3.35131
21
-2.077
0
LINE
8
BLACK
6
CONTINUOUS
10
3.35131
20
-2.077
11
3.3528
21
-2.07719
0
LINE
8
BLACK
6
CONTINUOUS
10
3.36723
20
-2.08154
11
3.36744
21
-2.08164
0
LINE
8
BLACK
6
CONTINUOUS
10
3.36744
20
-2.08164
11
3.36766
21
-2.08162
0
LINE
8
BLACK
6
CONTINUOUS
10
3.36766
20
-2.08162
11
3.37137
21
-2.08268
0
LINE
8
BLACK
6
CONTINUOUS
10
3.37137
20
-2.08268
11
3.37157
21
-2.08283
0
LINE
8
BLACK
6
CONTINUOUS
10
3.37157
20
-2.08283
11
3.37182
21
-2.08287
0
LINE
8
BLACK
6
CONTINUOUS
10
3.37182
20
-2.08287
11
3.37425
21
-2.08427
0
LINE
8
BLACK
6
CONTINUOUS
10
3.37425
20
-2.08427
11
3.3744
21
-2.08447
0
LINE
8
BLACK
6
CONTINUOUS
10
3.3744
20
-2.08447
11
3.37464
21
-2.08456
0
LINE
8
BLACK
6
CONTINUOUS
10
3.37464
20
-2.08456
11
3.37741
21
-2.08725
0
LINE
8
BLACK
6
CONTINUOUS
10
3.37741
20
-2.08725
11
3.3775
21
-2.08745
0
LINE
8
BLACK
6
CONTINUOUS
10
3.3775
20
-2.08745
11
3.37769
21
-2.08758
0
LINE
8
BLACK
6
CONTINUOUS
10
3.37769
20
-2.08758
11
3.37884
21
-2.08933
0
LINE
8
BLACK
6
CONTINUOUS
10
3.37884
20
-2.08933
11
3.37891
21
-2.08965
0
LINE
8
BLACK
6
CONTINUOUS
10
3.37891
20
-2.08965
11
3.3791
21
-2.0899
0
LINE
8
BLACK
6
CONTINUOUS
10
3.3791
20
-2.0899
11
3.37979
21
-2.09247
0
LINE
8
BLACK
6
CONTINUOUS
10
3.37979
20
-2.09247
11
3.37973
21
-2.09292
0
LINE
8
BLACK
6
CONTINUOUS
10
3.37973
20
-2.09292
11
3.37982
21
-2.09337
0
LINE
8
BLACK
6
CONTINUOUS
10
3.37982
20
-2.09337
11
3.37922
21
-2.09627
0
LINE
8
BLACK
6
CONTINUOUS
10
3.37922
20
-2.09627
11
3.37904
21
-2.09654
0
LINE
8
BLACK
6
CONTINUOUS
10
3.37904
20
-2.09654
11
3.379
21
-2.09686
0
LINE
8
BLACK
6
CONTINUOUS
10
3.379
20
-2.09686
11
3.37665
21
-2.10092
0
LINE
8
BLACK
6
CONTINUOUS
10
3.37665
20
-2.10092
11
3.37546
21
-2.10184
0
LINE
8
BLACK
6
CONTINUOUS
10
3.37546
20
-2.10184
11
3.37546
21
-2.10184
0
LINE
8
BLACK
6
CONTINUOUS
10
3.37546
20
-2.10184
11
3.37546
21
-2.10184
0
LINE
8
BLACK
6
CONTINUOUS
10
3.37546
20
-2.10184
11
3.37397
21
-2.10164
0
LINE
8
BLACK
6
CONTINUOUS
10
3.37397
20
-2.10164
11
3.35692
21
-2.0918
0
LINE
8
BLACK
6
CONTINUOUS
10
3.35692
20
-2.0918
11
3.356
21
-2.09061
0
LINE
8
BLACK
6
CONTINUOUS
10
3.356
20
-2.09061
11
3.3562
21
-2.08911
0
LINE
8
BLACK
6
CONTINUOUS
10
3.3562
20
-2.08911
11
3.35854
21
-2.08505
0
LINE
8
BLACK
6
CONTINUOUS
10
3.35854
20
-2.08505
11
3.3588
21
-2.08486
0
LINE
8
BLACK
6
CONTINUOUS
10
3.3588
20
-2.08486
11
3.35894
21
-2.08456
0
LINE
8
BLACK
6
CONTINUOUS
10
3.35894
20
-2.08456
11
3.36116
21
-2.0826
0
LINE
8
BLACK
6
CONTINUOUS
10
3.36116
20
-2.0826
11
3.36159
21
-2.08245
0
LINE
8
BLACK
6
CONTINUOUS
10
3.36159
20
-2.08245
11
3.36195
21
-2.08217
0
LINE
8
BLACK
6
CONTINUOUS
10
3.36195
20
-2.08217
11
3.36451
21
-2.08148
0
LINE
8
BLACK
6
CONTINUOUS
10
3.36451
20
-2.08148
11
3.36484
21
-2.08152
0
LINE
8
BLACK
6
CONTINUOUS
10
3.36484
20
-2.08152
11
3.36514
21
-2.08142
0
LINE
8
BLACK
6
CONTINUOUS
10
3.36514
20
-2.08142
11
3.36723
21
-2.08154
0
LINE
8
BLACK
6
CONTINUOUS
10
3.36342
20
-2.08585
11
3.36179
21
-2.0873
0
LINE
8
BLACK
6
CONTINUOUS
10
3.36179
20
-2.0873
11
3.36059
21
-2.08938
0
LINE
8
BLACK
6
CONTINUOUS
10
3.36059
20
-2.08938
11
3.37423
21
-2.09725
0
LINE
8
BLACK
6
CONTINUOUS
10
3.37423
20
-2.09725
11
3.37543
21
-2.09517
0
LINE
8
BLACK
6
CONTINUOUS
10
3.37543
20
-2.09517
11
3.37587
21
-2.09304
0
LINE
8
BLACK
6
CONTINUOUS
10
3.37587
20
-2.09304
11
3.37538
21
-2.09123
0
LINE
8
BLACK
6
CONTINUOUS
10
3.37538
20
-2.09123
11
3.37452
21
-2.08993
0
LINE
8
BLACK
6
CONTINUOUS
10
3.37452
20
-2.08993
11
3.37207
21
-2.08756
0
LINE
8
BLACK
6
CONTINUOUS
10
3.37207
20
-2.08756
11
3.37006
21
-2.0864
0
LINE
8
BLACK
6
CONTINUOUS
10
3.37006
20
-2.0864
11
3.36678
21
-2.08546
0
LINE
8
BLACK
6
CONTINUOUS
10
3.36678
20
-2.08546
11
3.36523
21
-2.08537
0
LINE
8
BLACK
6
CONTINUOUS
10
3.36523
20
-2.08537
11
3.36342
21
-2.08585
0
LINE
8
BLACK
6
CONTINUOUS
10
3.37308
20
-2.06231
11
3.37377
21
-2.06235
0
LINE
8
BLACK
6
CONTINUOUS
10
3.37377
20
-2.06235
11
3.37382
21
-2.0624
0
LINE
8
BLACK
6
CONTINUOUS
10
3.37382
20
-2.0624
11
3.37388
21
-2.06241
0
LINE
8
BLACK
6
CONTINUOUS
10
3.37388
20
-2.06241
11
3.37431
21
-2.06296
0
LINE
8
BLACK
6
CONTINUOUS
10
3.37431
20
-2.06296
11
3.37476
21
-2.06348
0
LINE
8
BLACK
6
CONTINUOUS
10
3.37476
20
-2.06348
11
3.37674
21
-2.06927
0
LINE
8
BLACK
6
CONTINUOUS
10
3.37674
20
-2.06927
11
3.37818
21
-2.06832
0
LINE
8
BLACK
6
CONTINUOUS
10
3.37818
20
-2.06832
11
3.3785
21
-2.06826
0
LINE
8
BLACK
6
CONTINUOUS
10
3.3785
20
-2.06826
11
3.37876
21
-2.06806
0
LINE
8
BLACK
6
CONTINUOUS
10
3.37876
20
-2.06806
11
3.38004
21
-2.06772
0
LINE
8
BLACK
6
CONTINUOUS
10
3.38004
20
-2.06772
11
3.38036
21
-2.06776
0
LINE
8
BLACK
6
CONTINUOUS
10
3.38036
20
-2.06776
11
3.38067
21
-2.06765
0
LINE
8
BLACK
6
CONTINUOUS
10
3.38067
20
-2.06765
11
3.38276
21
-2.06778
0
LINE
8
BLACK
6
CONTINUOUS
10
3.38276
20
-2.06778
11
3.38317
21
-2.06798
0
LINE
8
BLACK
6
CONTINUOUS
10
3.38317
20
-2.06798
11
3.38363
21
-2.06804
0
LINE
8
BLACK
6
CONTINUOUS
10
3.38363
20
-2.06804
11
3.38769
21
-2.07038
0
LINE
8
BLACK
6
CONTINUOUS
10
3.38769
20
-2.07038
11
3.38796
21
-2.07074
0
LINE
8
BLACK
6
CONTINUOUS
10
3.38796
20
-2.07074
11
3.38834
21
-2.071
0
LINE
8
BLACK
6
CONTINUOUS
10
3.38834
20
-2.071
11
3.3895
21
-2.07275
0
LINE
8
BLACK
6
CONTINUOUS
10
3.3895
20
-2.07275
11
3.38956
21
-2.07307
0
LINE
8
BLACK
6
CONTINUOUS
10
3.38956
20
-2.07307
11
3.38976
21
-2.07333
0
LINE
8
BLACK
6
CONTINUOUS
10
3.38976
20
-2.07333
11
3.3901
21
-2.07461
0
LINE
8
BLACK
6
CONTINUOUS
10
3.3901
20
-2.07461
11
3.39006
21
-2.07493
0
LINE
8
BLACK
6
CONTINUOUS
10
3.39006
20
-2.07493
11
3.39016
21
-2.07523
0
LINE
8
BLACK
6
CONTINUOUS
10
3.39016
20
-2.07523
11
3.39004
21
-2.07733
0
LINE
8
BLACK
6
CONTINUOUS
10
3.39004
20
-2.07733
11
3.38984
21
-2.07774
0
LINE
8
BLACK
6
CONTINUOUS
10
3.38984
20
-2.07774
11
3.38978
21
-2.07819
0
LINE
8
BLACK
6
CONTINUOUS
10
3.38978
20
-2.07819
11
3.38697
21
-2.08306
0
LINE
8
BLACK
6
CONTINUOUS
10
3.38697
20
-2.08306
11
3.3866
21
-2.08334
0
LINE
8
BLACK
6
CONTINUOUS
10
3.3866
20
-2.08334
11
3.38635
21
-2.08372
0
LINE
8
BLACK
6
CONTINUOUS
10
3.38635
20
-2.08372
11
3.3846
21
-2.08488
0
LINE
8
BLACK
6
CONTINUOUS
10
3.3846
20
-2.08488
11
3.38428
21
-2.08494
0
LINE
8
BLACK
6
CONTINUOUS
10
3.38428
20
-2.08494
11
3.38402
21
-2.08513
0
LINE
8
BLACK
6
CONTINUOUS
10
3.38402
20
-2.08513
11
3.38274
21
-2.08548
0
LINE
8
BLACK
6
CONTINUOUS
10
3.38274
20
-2.08548
11
3.38125
21
-2.08528
0
LINE
8
BLACK
6
CONTINUOUS
10
3.38125
20
-2.08528
11
3.38033
21
-2.08409
0
LINE
8
BLACK
6
CONTINUOUS
10
3.38033
20
-2.08409
11
3.38053
21
-2.08259
0
LINE
8
BLACK
6
CONTINUOUS
10
3.38053
20
-2.08259
11
3.38172
21
-2.08168
0
LINE
8
BLACK
6
CONTINUOUS
10
3.38172
20
-2.08168
11
3.38269
21
-2.08141
0
LINE
8
BLACK
6
CONTINUOUS
10
3.38269
20
-2.08141
11
3.38379
21
-2.08069
0
LINE
8
BLACK
6
CONTINUOUS
10
3.38379
20
-2.08069
11
3.38614
21
-2.07663
0
LINE
8
BLACK
6
CONTINUOUS
10
3.38614
20
-2.07663
11
3.38621
21
-2.07532
0
LINE
8
BLACK
6
CONTINUOUS
10
3.38621
20
-2.07532
11
3.38604
21
-2.07465
0
LINE
8
BLACK
6
CONTINUOUS
10
3.38604
20
-2.07465
11
3.38531
21
-2.07356
0
LINE
8
BLACK
6
CONTINUOUS
10
3.38531
20
-2.07356
11
3.38206
21
-2.07168
0
LINE
8
BLACK
6
CONTINUOUS
10
3.38206
20
-2.07168
11
3.38075
21
-2.0716
0
LINE
8
BLACK
6
CONTINUOUS
10
3.38075
20
-2.0716
11
3.38009
21
-2.07178
0
LINE
8
BLACK
6
CONTINUOUS
10
3.38009
20
-2.07178
11
3.37899
21
-2.0725
0
LINE
8
BLACK
6
CONTINUOUS
10
3.37899
20
-2.0725
11
3.37782
21
-2.07453
0
LINE
8
BLACK
6
CONTINUOUS
10
3.37782
20
-2.07453
11
3.37727
21
-2.07496
0
LINE
8
BLACK
6
CONTINUOUS
10
3.37727
20
-2.07496
11
3.37675
21
-2.07541
0
LINE
8
BLACK
6
CONTINUOUS
10
3.37675
20
-2.07541
11
3.37668
21
-2.07541
0
LINE
8
BLACK
6
CONTINUOUS
10
3.37668
20
-2.07541
11
3.37662
21
-2.07545
0
LINE
8
BLACK
6
CONTINUOUS
10
3.37662
20
-2.07545
11
3.37594
21
-2.07536
0
LINE
8
BLACK
6
CONTINUOUS
10
3.37594
20
-2.07536
11
3.37525
21
-2.07532
0
LINE
8
BLACK
6
CONTINUOUS
10
3.37525
20
-2.07532
11
3.3752
21
-2.07526
0
LINE
8
BLACK
6
CONTINUOUS
10
3.3752
20
-2.07526
11
3.37513
21
-2.07525
0
LINE
8
BLACK
6
CONTINUOUS
10
3.37513
20
-2.07525
11
3.37471
21
-2.07471
0
LINE
8
BLACK
6
CONTINUOUS
10
3.37471
20
-2.07471
11
3.37425
21
-2.07419
0
LINE
8
BLACK
6
CONTINUOUS
10
3.37425
20
-2.07419
11
3.37244
21
-2.06886
0
LINE
8
BLACK
6
CONTINUOUS
10
3.37244
20
-2.06886
11
3.36851
21
-2.07566
0
LINE
8
BLACK
6
CONTINUOUS
10
3.36851
20
-2.07566
11
3.36732
21
-2.07657
0
LINE
8
BLACK
6
CONTINUOUS
10
3.36732
20
-2.07657
11
3.36582
21
-2.07638
0
LINE
8
BLACK
6
CONTINUOUS
10
3.36582
20
-2.07638
11
3.36491
21
-2.07518
0
LINE
8
BLACK
6
CONTINUOUS
10
3.36491
20
-2.07518
11
3.3651
21
-2.07369
0
LINE
8
BLACK
6
CONTINUOUS
10
3.3651
20
-2.07369
11
3.3712
21
-2.06313
0
LINE
8
BLACK
6
CONTINUOUS
10
3.3712
20
-2.06313
11
3.37175
21
-2.06271
0
LINE
8
BLACK
6
CONTINUOUS
10
3.37175
20
-2.06271
11
3.37227
21
-2.06225
0
LINE
8
BLACK
6
CONTINUOUS
10
3.37227
20
-2.06225
11
3.37234
21
-2.06226
0
LINE
8
BLACK
6
CONTINUOUS
10
3.37234
20
-2.06226
11
3.37239
21
-2.06222
0
LINE
8
BLACK
6
CONTINUOUS
10
3.37239
20
-2.06222
11
3.37308
21
-2.06231
0
LINE
8
BLACK
6
CONTINUOUS
10
3.00706
20
-2.04445
11
3.01986
21
-2.06661
0
LINE
8
BLACK
6
CONTINUOUS
10
3.01986
20
-2.06661
11
3.02006
21
-2.0681
0
LINE
8
BLACK
6
CONTINUOUS
10
3.02006
20
-2.0681
11
3.02006
21
-2.0681
0
LINE
8
BLACK
6
CONTINUOUS
10
3.02006
20
-2.0681
11
3.01914
21
-2.0693
0
LINE
8
BLACK
6
CONTINUOUS
10
3.01914
20
-2.0693
11
2.99698
21
-2.08209
0
LINE
8
BLACK
6
CONTINUOUS
10
2.99698
20
-2.08209
11
2.99548
21
-2.08229
0
LINE
8
BLACK
6
CONTINUOUS
10
2.99548
20
-2.08229
11
2.99429
21
-2.08137
0
LINE
8
BLACK
6
CONTINUOUS
10
2.99429
20
-2.08137
11
2.99409
21
-2.07988
0
LINE
8
BLACK
6
CONTINUOUS
10
2.99409
20
-2.07988
11
2.99501
21
-2.07868
0
LINE
8
BLACK
6
CONTINUOUS
10
2.99501
20
-2.07868
11
3.01547
21
-2.06687
0
LINE
8
BLACK
6
CONTINUOUS
10
3.01547
20
-2.06687
11
3.00365
21
-2.04642
0
LINE
8
BLACK
6
CONTINUOUS
10
3.00365
20
-2.04642
11
3.00346
21
-2.04492
0
LINE
8
BLACK
6
CONTINUOUS
10
3.00346
20
-2.04492
11
3.00437
21
-2.04373
0
LINE
8
BLACK
6
CONTINUOUS
10
3.00437
20
-2.04373
11
3.00587
21
-2.04353
0
LINE
8
BLACK
6
CONTINUOUS
10
3.00587
20
-2.04353
11
3.00706
21
-2.04445
0
LINE
8
BLACK
6
CONTINUOUS
10
3.03268
20
-2.02502
11
3.03279
21
-2.02502
0
LINE
8
BLACK
6
CONTINUOUS
10
3.03279
20
-2.02502
11
3.03327
21
-2.02547
0
LINE
8
BLACK
6
CONTINUOUS
10
3.03327
20
-2.02547
11
3.0338
21
-2.02588
0
LINE
8
BLACK
6
CONTINUOUS
10
3.0338
20
-2.02588
11
3.03848
21
-2.03399
0
LINE
8
BLACK
6
CONTINUOUS
10
3.03848
20
-2.03399
11
3.03868
21
-2.03549
0
LINE
8
BLACK
6
CONTINUOUS
10
3.03868
20
-2.03549
11
3.03776
21
-2.03668
0
LINE
8
BLACK
6
CONTINUOUS
10
3.03776
20
-2.03668
11
3.03627
21
-2.03688
0
LINE
8
BLACK
6
CONTINUOUS
10
3.03627
20
-2.03688
11
3.03507
21
-2.03596
0
LINE
8
BLACK
6
CONTINUOUS
10
3.03507
20
-2.03596
11
3.03128
21
-2.02939
0
LINE
8
BLACK
6
CONTINUOUS
10
3.03128
20
-2.02939
11
3.02785
21
-2.03093
0
LINE
8
BLACK
6
CONTINUOUS
10
3.02785
20
-2.03093
11
3.02788
21
-2.03097
0
LINE
8
BLACK
6
CONTINUOUS
10
3.02788
20
-2.03097
11
3.02824
21
-2.03125
0
LINE
8
BLACK
6
CONTINUOUS
10
3.02824
20
-2.03125
11
3.03058
21
-2.03531
0
LINE
8
BLACK
6
CONTINUOUS
10
3.03058
20
-2.03531
11
3.03064
21
-2.03576
0
LINE
8
BLACK
6
CONTINUOUS
10
3.03064
20
-2.03576
11
3.03084
21
-2.03617
0
LINE
8
BLACK
6
CONTINUOUS
10
3.03084
20
-2.03617
11
3.03097
21
-2.03827
0
LINE
8
BLACK
6
CONTINUOUS
10
3.03097
20
-2.03827
11
3.03086
21
-2.03857
0
LINE
8
BLACK
6
CONTINUOUS
10
3.03086
20
-2.03857
11
3.0309
21
-2.03889
0
LINE
8
BLACK
6
CONTINUOUS
10
3.0309
20
-2.03889
11
3.03056
21
-2.04017
0
LINE
8
BLACK
6
CONTINUOUS
10
3.03056
20
-2.04017
11
3.03036
21
-2.04043
0
LINE
8
BLACK
6
CONTINUOUS
10
3.03036
20
-2.04043
11
3.0303
21
-2.04075
0
LINE
8
BLACK
6
CONTINUOUS
10
3.0303
20
-2.04075
11
3.02915
21
-2.0425
0
LINE
8
BLACK
6
CONTINUOUS
10
3.02915
20
-2.0425
11
3.02877
21
-2.04275
0
LINE
8
BLACK
6
CONTINUOUS
10
3.02877
20
-2.04275
11
3.02849
21
-2.04312
0
LINE
8
BLACK
6
CONTINUOUS
10
3.02849
20
-2.04312
11
3.02443
21
-2.04546
0
LINE
8
BLACK
6
CONTINUOUS
10
3.02443
20
-2.04546
11
3.02398
21
-2.04552
0
LINE
8
BLACK
6
CONTINUOUS
10
3.02398
20
-2.04552
11
3.02356
21
-2.04572
0
LINE
8
BLACK
6
CONTINUOUS
10
3.02356
20
-2.04572
11
3.02147
21
-2.04585
0
LINE
8
BLACK
6
CONTINUOUS
10
3.02147
20
-2.04585
11
3.02117
21
-2.04574
0
LINE
8
BLACK
6
CONTINUOUS
10
3.02117
20
-2.04574
11
3.02084
21
-2.04578
0
LINE
8
BLACK
6
CONTINUOUS
10
3.02084
20
-2.04578
11
3.01956
21
-2.04544
0
LINE
8
BLACK
6
CONTINUOUS
10
3.01956
20
-2.04544
11
3.01931
21
-2.04524
0
LINE
8
BLACK
6
CONTINUOUS
10
3.01931
20
-2.04524
11
3.01899
21
-2.04518
0
LINE
8
BLACK
6
CONTINUOUS
10
3.01899
20
-2.04518
11
3.01724
21
-2.04403
0
LINE
8
BLACK
6
CONTINUOUS
10
3.01724
20
-2.04403
11
3.01698
21
-2.04365
0
LINE
8
BLACK
6
CONTINUOUS
10
3.01698
20
-2.04365
11
3.01662
21
-2.04337
0
LINE
8
BLACK
6
CONTINUOUS
10
3.01662
20
-2.04337
11
3.01428
21
-2.03931
0
LINE
8
BLACK
6
CONTINUOUS
10
3.01428
20
-2.03931
11
3.01422
21
-2.03886
0
LINE
8
BLACK
6
CONTINUOUS
10
3.01422
20
-2.03886
11
3.01402
21
-2.03844
0
LINE
8
BLACK
6
CONTINUOUS
10
3.01402
20
-2.03844
11
3.01389
21
-2.03635
0
LINE
8
BLACK
6
CONTINUOUS
10
3.01389
20
-2.03635
11
3.014
21
-2.03605
0
LINE
8
BLACK
6
CONTINUOUS
10
3.014
20
-2.03605
11
3.01395
21
-2.03572
0
LINE
8
BLACK
6
CONTINUOUS
10
3.01395
20
-2.03572
11
3.0143
21
-2.03444
0
LINE
8
BLACK
6
CONTINUOUS
10
3.0143
20
-2.03444
11
3.01521
21
-2.03325
0
LINE
8
BLACK
6
CONTINUOUS
10
3.01521
20
-2.03325
11
3.01671
21
-2.03305
0
LINE
8
BLACK
6
CONTINUOUS
10
3.01671
20
-2.03305
11
3.0179
21
-2.03397
0
LINE
8
BLACK
6
CONTINUOUS
10
3.0179
20
-2.03397
11
3.0181
21
-2.03546
0
LINE
8
BLACK
6
CONTINUOUS
10
3.0181
20
-2.03546
11
3.01784
21
-2.03643
0
LINE
8
BLACK
6
CONTINUOUS
10
3.01784
20
-2.03643
11
3.01792
21
-2.03774
0
LINE
8
BLACK
6
CONTINUOUS
10
3.01792
20
-2.03774
11
3.0198
21
-2.041
0
LINE
8
BLACK
6
CONTINUOUS
10
3.0198
20
-2.041
11
3.02089
21
-2.04172
0
LINE
8
BLACK
6
CONTINUOUS
10
3.02089
20
-2.04172
11
3.02155
21
-2.0419
0
LINE
8
BLACK
6
CONTINUOUS
10
3.02155
20
-2.0419
11
3.02286
21
-2.04182
0
LINE
8
BLACK
6
CONTINUOUS
10
3.02286
20
-2.04182
11
3.02612
21
-2.03994
0
LINE
8
BLACK
6
CONTINUOUS
10
3.02612
20
-2.03994
11
3.02684
21
-2.03885
0
LINE
8
BLACK
6
CONTINUOUS
10
3.02684
20
-2.03885
11
3.02702
21
-2.03818
0
LINE
8
BLACK
6
CONTINUOUS
10
3.02702
20
-2.03818
11
3.02694
21
-2.03687
0
LINE
8
BLACK
6
CONTINUOUS
10
3.02694
20
-2.03687
11
3.02506
21
-2.03362
0
LINE
8
BLACK
6
CONTINUOUS
10
3.02506
20
-2.03362
11
3.02397
21
-2.0329
0
LINE
8
BLACK
6
CONTINUOUS
10
3.02397
20
-2.0329
11
3.02299
21
-2.03264
0
LINE
8
BLACK
6
CONTINUOUS
10
3.02299
20
-2.03264
11
3.02291
21
-2.03257
0
LINE
8
BLACK
6
CONTINUOUS
10
3.02291
20
-2.03257
11
3.02281
21
-2.03258
0
LINE
8
BLACK
6
CONTINUOUS
10
3.02281
20
-2.03258
11
3.02233
21
-2.03212
0
LINE
8
BLACK
6
CONTINUOUS
10
3.02233
20
-2.03212
11
3.0218
21
-2.03172
0
LINE
8
BLACK
6
CONTINUOUS
10
3.0218
20
-2.03172
11
3.02179
21
-2.03162
0
LINE
8
BLACK
6
CONTINUOUS
10
3.02179
20
-2.03162
11
3.02171
21
-2.03154
0
LINE
8
BLACK
6
CONTINUOUS
10
3.02171
20
-2.03154
11
3.02169
21
-2.03088
0
LINE
8
BLACK
6
CONTINUOUS
10
3.02169
20
-2.03088
11
3.0216
21
-2.03023
0
LINE
8
BLACK
6
CONTINUOUS
10
3.0216
20
-2.03023
11
3.02167
21
-2.03014
0
LINE
8
BLACK
6
CONTINUOUS
10
3.02167
20
-2.03014
11
3.02166
21
-2.03004
0
LINE
8
BLACK
6
CONTINUOUS
10
3.02166
20
-2.03004
11
3.02212
21
-2.02956
0
LINE
8
BLACK
6
CONTINUOUS
10
3.02212
20
-2.02956
11
3.02252
21
-2.02903
0
LINE
8
BLACK
6
CONTINUOUS
10
3.02252
20
-2.02903
11
3.02262
21
-2.02902
0
LINE
8
BLACK
6
CONTINUOUS
10
3.02262
20
-2.02902
11
3.02269
21
-2.02894
0
LINE
8
BLACK
6
CONTINUOUS
10
3.02269
20
-2.02894
11
3.03128
21
-2.02507
0
LINE
8
BLACK
6
CONTINUOUS
10
3.03128
20
-2.02507
11
3.03194
21
-2.02504
0
LINE
8
BLACK
6
CONTINUOUS
10
3.03194
20
-2.02504
11
3.0326
21
-2.02496
0
LINE
8
BLACK
6
CONTINUOUS
10
3.0326
20
-2.02496
11
3.03268
21
-2.02502
0
LINE
8
BLACK
6
CONTINUOUS
10
3.18446
20
-2.01436
11
3.18504
21
-2.01575
0
LINE
8
BLACK
6
CONTINUOUS
10
3.18504
20
-2.01575
11
3.18504
21
-2.04134
0
LINE
8
BLACK
6
CONTINUOUS
10
3.18504
20
-2.04134
11
3.18446
21
-2.04273
0
LINE
8
BLACK
6
CONTINUOUS
10
3.18446
20
-2.04273
11
3.18307
21
-2.04331
0
LINE
8
BLACK
6
CONTINUOUS
10
3.18307
20
-2.04331
11
3.15748
21
-2.04331
0
LINE
8
BLACK
6
CONTINUOUS
10
3.15748
20
-2.04331
11
3.15609
21
-2.04273
0
LINE
8
BLACK
6
CONTINUOUS
10
3.15609
20
-2.04273
11
3.15551
21
-2.04134
0
LINE
8
BLACK
6
CONTINUOUS
10
3.15551
20
-2.04134
11
3.15609
21
-2.03995
0
LINE
8
BLACK
6
CONTINUOUS
10
3.15609
20
-2.03995
11
3.15748
21
-2.03937
0
LINE
8
BLACK
6
CONTINUOUS
10
3.15748
20
-2.03937
11
3.1811
21
-2.03937
0
LINE
8
BLACK
6
CONTINUOUS
10
3.1811
20
-2.03937
11
3.1811
21
-2.01575
0
LINE
8
BLACK
6
CONTINUOUS
10
3.1811
20
-2.01575
11
3.18168
21
-2.01436
0
LINE
8
BLACK
6
CONTINUOUS
10
3.18168
20
-2.01436
11
3.18307
21
-2.01378
0
LINE
8
BLACK
6
CONTINUOUS
10
3.18307
20
-2.01378
11
3.18446
21
-2.01436
0
LINE
8
BLACK
6
CONTINUOUS
10
3.35474
20
-2.02804
11
3.35517
21
-2.02802
0
LINE
8
BLACK
6
CONTINUOUS
10
3.35517
20
-2.02802
11
3.35528
21
-2.02812
0
LINE
8
BLACK
6
CONTINUOUS
10
3.35528
20
-2.02812
11
3.35543
21
-2.02814
0
LINE
8
BLACK
6
CONTINUOUS
10
3.35543
20
-2.02814
11
3.36438
21
-2.0333
0
LINE
8
BLACK
6
CONTINUOUS
10
3.36438
20
-2.0333
11
3.36533
21
-2.03166
0
LINE
8
BLACK
6
CONTINUOUS
10
3.36533
20
-2.03166
11
3.36623
21
-2.03097
0
LINE
8
BLACK
6
CONTINUOUS
10
3.36623
20
-2.03097
11
3.36735
21
-2.03112
0
LINE
8
BLACK
6
CONTINUOUS
10
3.36735
20
-2.03112
11
3.36804
21
-2.03202
0
LINE
8
BLACK
6
CONTINUOUS
10
3.36804
20
-2.03202
11
3.36789
21
-2.03314
0
LINE
8
BLACK
6
CONTINUOUS
10
3.36789
20
-2.03314
11
3.36451
21
-2.03898
0
LINE
8
BLACK
6
CONTINUOUS
10
3.36451
20
-2.03898
11
3.36362
21
-2.03967
0
LINE
8
BLACK
6
CONTINUOUS
10
3.36362
20
-2.03967
11
3.3625
21
-2.03952
0
LINE
8
BLACK
6
CONTINUOUS
10
3.3625
20
-2.03952
11
3.36181
21
-2.03863
0
LINE
8
BLACK
6
CONTINUOUS
10
3.36181
20
-2.03863
11
3.36196
21
-2.0375
0
LINE
8
BLACK
6
CONTINUOUS
10
3.36196
20
-2.0375
11
3.36291
21
-2.03586
0
LINE
8
BLACK
6
CONTINUOUS
10
3.36291
20
-2.03586
11
3.35742
21
-2.03269
0
LINE
8
BLACK
6
CONTINUOUS
10
3.35742
20
-2.03269
11
3.35748
21
-2.03286
0
LINE
8
BLACK
6
CONTINUOUS
10
3.35748
20
-2.03286
11
3.3574
21
-2.03411
0
LINE
8
BLACK
6
CONTINUOUS
10
3.3574
20
-2.03411
11
3.35691
21
-2.03513
0
LINE
8
BLACK
6
CONTINUOUS
10
3.35691
20
-2.03513
11
3.35584
21
-2.0355
0
LINE
8
BLACK
6
CONTINUOUS
10
3.35584
20
-2.0355
11
3.35482
21
-2.035
0
LINE
8
BLACK
6
CONTINUOUS
10
3.35482
20
-2.035
11
3.35446
21
-2.03394
0
LINE
8
BLACK
6
CONTINUOUS
10
3.35446
20
-2.03394
11
3.35452
21
-2.03292
0
LINE
8
BLACK
6
CONTINUOUS
10
3.35452
20
-2.03292
11
3.3542
21
-2.03176
0
LINE
8
BLACK
6
CONTINUOUS
10
3.3542
20
-2.03176
11
3.35337
21
-2.03007
0
LINE
8
BLACK
6
CONTINUOUS
10
3.35337
20
-2.03007
11
3.35336
21
-2.02992
0
LINE
8
BLACK
6
CONTINUOUS
10
3.35336
20
-2.02992
11
3.35327
21
-2.0298
0
LINE
8
BLACK
6
CONTINUOUS
10
3.35327
20
-2.0298
11
3.35332
21
-2.02937
0
LINE
8
BLACK
6
CONTINUOUS
10
3.35332
20
-2.02937
11
3.3533
21
-2.02894
0
LINE
8
BLACK
6
CONTINUOUS
10
3.3533
20
-2.02894
11
3.3534
21
-2.02883
0
LINE
8
BLACK
6
CONTINUOUS
10
3.3534
20
-2.02883
11
3.35342
21
-2.02868
0
LINE
8
BLACK
6
CONTINUOUS
10
3.35342
20
-2.02868
11
3.35376
21
-2.02841
0
LINE
8
BLACK
6
CONTINUOUS
10
3.35376
20
-2.02841
11
3.35404
21
-2.02809
0
LINE
8
BLACK
6
CONTINUOUS
10
3.35404
20
-2.02809
11
3.35419
21
-2.02808
0
LINE
8
BLACK
6
CONTINUOUS
10
3.35419
20
-2.02808
11
3.35431
21
-2.02799
0
LINE
8
BLACK
6
CONTINUOUS
10
3.35431
20
-2.02799
11
3.35474
21
-2.02804
0
LINE
8
BLACK
6
CONTINUOUS
10
3.02395
20
-2.00883
11
3.0263
21
-2.01289
0
LINE
8
BLACK
6
CONTINUOUS
10
3.0263
20
-2.01289
11
3.02634
21
-2.01321
0
LINE
8
BLACK
6
CONTINUOUS
10
3.02634
20
-2.01321
11
3.02652
21
-2.01348
0
LINE
8
BLACK
6
CONTINUOUS
10
3.02652
20
-2.01348
11
3.02711
21
-2.01638
0
LINE
8
BLACK
6
CONTINUOUS
10
3.02711
20
-2.01638
11
3.02703
21
-2.01683
0
LINE
8
BLACK
6
CONTINUOUS
10
3.02703
20
-2.01683
11
3.02709
21
-2.01728
0
LINE
8
BLACK
6
CONTINUOUS
10
3.02709
20
-2.01728
11
3.0264
21
-2.01985
0
LINE
8
BLACK
6
CONTINUOUS
10
3.0264
20
-2.01985
11
3.0262
21
-2.0201
0
LINE
8
BLACK
6
CONTINUOUS
10
3.0262
20
-2.0201
11
3.02614
21
-2.02042
0
LINE
8
BLACK
6
CONTINUOUS
10
3.02614
20
-2.02042
11
3.02499
21
-2.02217
0
LINE
8
BLACK
6
CONTINUOUS
10
3.02499
20
-2.02217
11
3.0248
21
-2.0223
0
LINE
8
BLACK
6
CONTINUOUS
10
3.0248
20
-2.0223
11
3.02471
21
-2.0225
0
LINE
8
BLACK
6
CONTINUOUS
10
3.02471
20
-2.0225
11
3.02193
21
-2.02519
0
LINE
8
BLACK
6
CONTINUOUS
10
3.02193
20
-2.02519
11
3.0217
21
-2.02528
0
LINE
8
BLACK
6
CONTINUOUS
10
3.0217
20
-2.02528
11
3.02155
21
-2.02548
0
LINE
8
BLACK
6
CONTINUOUS
10
3.02155
20
-2.02548
11
3.01912
21
-2.02688
0
LINE
8
BLACK
6
CONTINUOUS
10
3.01912
20
-2.02688
11
3.01887
21
-2.02692
0
LINE
8
BLACK
6
CONTINUOUS
10
3.01887
20
-2.02692
11
3.01867
21
-2.02707
0
LINE
8
BLACK
6
CONTINUOUS
10
3.01867
20
-2.02707
11
3.01496
21
-2.02813
0
LINE
8
BLACK
6
CONTINUOUS
10
3.01496
20
-2.02813
11
3.01473
21
-2.02811
0
LINE
8
BLACK
6
CONTINUOUS
10
3.01473
20
-2.02811
11
3.01453
21
-2.02821
0
LINE
8
BLACK
6
CONTINUOUS
10
3.01453
20
-2.02821
11
3.01244
21
-2.02833
0
LINE
8
BLACK
6
CONTINUOUS
10
3.01244
20
-2.02833
11
3.01213
21
-2.02823
0
LINE
8
BLACK
6
CONTINUOUS
10
3.01213
20
-2.02823
11
3.01181
21
-2.02827
0
LINE
8
BLACK
6
CONTINUOUS
10
3.01181
20
-2.02827
11
3.00925
21
-2.02758
0
LINE
8
BLACK
6
CONTINUOUS
10
3.00925
20
-2.02758
11
3.00889
21
-2.0273
0
LINE
8
BLACK
6
CONTINUOUS
10
3.00889
20
-2.0273
11
3.00846
21
-2.02715
0
LINE
8
BLACK
6
CONTINUOUS
10
3.00846
20
-2.02715
11
3.00624
21
-2.02519
0
LINE
8
BLACK
6
CONTINUOUS
10
3.00624
20
-2.02519
11
3.0061
21
-2.02489
0
LINE
8
BLACK
6
CONTINUOUS
10
3.0061
20
-2.02489
11
3.00584
21
-2.0247
0
LINE
8
BLACK
6
CONTINUOUS
10
3.00584
20
-2.0247
11
3.0035
21
-2.02064
0
LINE
8
BLACK
6
CONTINUOUS
10
3.0035
20
-2.02064
11
3.0033
21
-2.01914
0
LINE
8
BLACK
6
CONTINUOUS
10
3.0033
20
-2.01914
11
3.00422
21
-2.01795
0
LINE
8
BLACK
6
CONTINUOUS
10
3.00422
20
-2.01795
11
3.02126
21
-2.00811
0
LINE
8
BLACK
6
CONTINUOUS
10
3.02126
20
-2.00811
11
3.02276
21
-2.00791
0
LINE
8
BLACK
6
CONTINUOUS
10
3.02276
20
-2.00791
11
3.02395
21
-2.00883
0
LINE
8
BLACK
6
CONTINUOUS
10
3.00789
20
-2.02037
11
3.00909
21
-2.02245
0
LINE
8
BLACK
6
CONTINUOUS
10
3.00909
20
-2.02245
11
3.01072
21
-2.0239
0
LINE
8
BLACK
6
CONTINUOUS
10
3.01072
20
-2.0239
11
3.01252
21
-2.02438
0
LINE
8
BLACK
6
CONTINUOUS
10
3.01252
20
-2.02438
11
3.01408
21
-2.02429
0
LINE
8
BLACK
6
CONTINUOUS
10
3.01408
20
-2.02429
11
3.01736
21
-2.02335
0
LINE
8
BLACK
6
CONTINUOUS
10
3.01736
20
-2.02335
11
3.01937
21
-2.02219
0
LINE
8
BLACK
6
CONTINUOUS
10
3.01937
20
-2.02219
11
3.02182
21
-2.01982
0
LINE
8
BLACK
6
CONTINUOUS
10
3.02182
20
-2.01982
11
3.02268
21
-2.01852
0
LINE
8
BLACK
6
CONTINUOUS
10
3.02268
20
-2.01852
11
3.02316
21
-2.01671
0
LINE
8
BLACK
6
CONTINUOUS
10
3.02316
20
-2.01671
11
3.02273
21
-2.01458
0
LINE
8
BLACK
6
CONTINUOUS
10
3.02273
20
-2.01458
11
3.02153
21
-2.0125
0
LINE
8
BLACK
6
CONTINUOUS
10
3.02153
20
-2.0125
11
3.00789
21
-2.02037
0
LINE
8
BLACK
6
CONTINUOUS
10
3.20542
20
-2.00928
11
3.20567
21
-2.00925
0
LINE
8
BLACK
6
CONTINUOUS
10
3.20567
20
-2.00925
11
3.20942
21
-2.01018
0
LINE
8
BLACK
6
CONTINUOUS
10
3.20942
20
-2.01018
11
3.2096
21
-2.01032
0
LINE
8
BLACK
6
CONTINUOUS
10
3.2096
20
-2.01032
11
3.20982
21
-2.01033
0
LINE
8
BLACK
6
CONTINUOUS
10
3.20982
20
-2.01033
11
3.21169
21
-2.01127
0
LINE
8
BLACK
6
CONTINUOUS
10
3.21169
20
-2.01127
11
3.21191
21
-2.01151
0
LINE
8
BLACK
6
CONTINUOUS
10
3.21191
20
-2.01151
11
3.21221
21
-2.01164
0
LINE
8
BLACK
6
CONTINUOUS
10
3.21221
20
-2.01164
11
3.21408
21
-2.01351
0
LINE
8
BLACK
6
CONTINUOUS
10
3.21408
20
-2.01351
11
3.21426
21
-2.01394
0
LINE
8
BLACK
6
CONTINUOUS
10
3.21426
20
-2.01394
11
3.21456
21
-2.01428
0
LINE
8
BLACK
6
CONTINUOUS
10
3.21456
20
-2.01428
11
3.21549
21
-2.01709
0
LINE
8
BLACK
6
CONTINUOUS
10
3.21549
20
-2.01709
11
3.21547
21
-2.01742
0
LINE
8
BLACK
6
CONTINUOUS
10
3.21547
20
-2.01742
11
3.21559
21
-2.01772
0
LINE
8
BLACK
6
CONTINUOUS
10
3.21559
20
-2.01772
11
3.21559
21
-2.0224
0
LINE
8
BLACK
6
CONTINUOUS
10
3.21559
20
-2.0224
11
3.21502
21
-2.0238
0
LINE
8
BLACK
6
CONTINUOUS
10
3.21502
20
-2.0238
11
3.21363
21
-2.02437
0
LINE
8
BLACK
6
CONTINUOUS
10
3.21363
20
-2.02437
11
3.19394
21
-2.02437
0
LINE
8
BLACK
6
CONTINUOUS
10
3.19394
20
-2.02437
11
3.19255
21
-2.0238
0
LINE
8
BLACK
6
CONTINUOUS
10
3.19255
20
-2.0238
11
3.19197
21
-2.0224
0
LINE
8
BLACK
6
CONTINUOUS
10
3.19197
20
-2.0224
11
3.19197
21
-2.01772
0
LINE
8
BLACK
6
CONTINUOUS
10
3.19197
20
-2.01772
11
3.1921
21
-2.01742
0
LINE
8
BLACK
6
CONTINUOUS
10
3.1921
20
-2.01742
11
3.19207
21
-2.01709
0
LINE
8
BLACK
6
CONTINUOUS
10
3.19207
20
-2.01709
11
3.19301
21
-2.01428
0
LINE
8
BLACK
6
CONTINUOUS
10
3.19301
20
-2.01428
11
3.19331
21
-2.01394
0
LINE
8
BLACK
6
CONTINUOUS
10
3.19331
20
-2.01394
11
3.19349
21
-2.01351
0
LINE
8
BLACK
6
CONTINUOUS
10
3.19349
20
-2.01351
11
3.19536
21
-2.01164
0
LINE
8
BLACK
6
CONTINUOUS
10
3.19536
20
-2.01164
11
3.19566
21
-2.01151
0
LINE
8
BLACK
6
CONTINUOUS
10
3.19566
20
-2.01151
11
3.19587
21
-2.01127
0
LINE
8
BLACK
6
CONTINUOUS
10
3.19587
20
-2.01127
11
3.19775
21
-2.01033
0
LINE
8
BLACK
6
CONTINUOUS
10
3.19775
20
-2.01033
11
3.19797
21
-2.01032
0
LINE
8
BLACK
6
CONTINUOUS
10
3.19797
20
-2.01032
11
3.19815
21
-2.01018
0
LINE
8
BLACK
6
CONTINUOUS
10
3.19815
20
-2.01018
11
3.2019
21
-2.00925
0
LINE
8
BLACK
6
CONTINUOUS
10
3.2019
20
-2.00925
11
3.20215
21
-2.00928
0
LINE
8
BLACK
6
CONTINUOUS
10
3.20215
20
-2.00928
11
3.20238
21
-2.00919
0
LINE
8
BLACK
6
CONTINUOUS
10
3.20238
20
-2.00919
11
3.20519
21
-2.00919
0
LINE
8
BLACK
6
CONTINUOUS
10
3.20519
20
-2.00919
11
3.20542
21
-2.00928
0
LINE
8
BLACK
6
CONTINUOUS
10
3.19932
20
-2.01395
11
3.19792
21
-2.01465
0
LINE
8
BLACK
6
CONTINUOUS
10
3.19792
20
-2.01465
11
3.1966
21
-2.01597
0
LINE
8
BLACK
6
CONTINUOUS
10
3.1966
20
-2.01597
11
3.19591
21
-2.01804
0
LINE
8
BLACK
6
CONTINUOUS
10
3.19591
20
-2.01804
11
3.19591
21
-2.02043
0
LINE
8
BLACK
6
CONTINUOUS
10
3.19591
20
-2.02043
11
3.21166
21
-2.02043
0
LINE
8
BLACK
6
CONTINUOUS
10
3.21166
20
-2.02043
11
3.21166
21
-2.01804
0
LINE
8
BLACK
6
CONTINUOUS
10
3.21166
20
-2.01804
11
3.21097
21
-2.01597
0
LINE
8
BLACK
6
CONTINUOUS
10
3.21097
20
-2.01597
11
3.20965
21
-2.01465
0
LINE
8
BLACK
6
CONTINUOUS
10
3.20965
20
-2.01465
11
3.20825
21
-2.01395
0
LINE
8
BLACK
6
CONTINUOUS
10
3.20825
20
-2.01395
11
3.20495
21
-2.01312
0
LINE
8
BLACK
6
CONTINUOUS
10
3.20495
20
-2.01312
11
3.20262
21
-2.01312
0
LINE
8
BLACK
6
CONTINUOUS
10
3.20262
20
-2.01312
11
3.19932
21
-2.01395
0
LINE
8
BLACK
6
CONTINUOUS
10
2.97141
20
-2.00923
11
2.97226
21
-2.00979
0
LINE
8
BLACK
6
CONTINUOUS
10
2.97226
20
-2.00979
11
2.97342
21
-2.0101
0
LINE
8
BLACK
6
CONTINUOUS
10
2.97342
20
-2.0101
11
2.9753
21
-2.01023
0
LINE
8
BLACK
6
CONTINUOUS
10
2.9753
20
-2.01023
11
2.97544
21
-2.01029
0
LINE
8
BLACK
6
CONTINUOUS
10
2.97544
20
-2.01029
11
2.97559
21
-2.01027
0
LINE
8
BLACK
6
CONTINUOUS
10
2.97559
20
-2.01027
11
2.97593
21
-2.01053
0
LINE
8
BLACK
6
CONTINUOUS
10
2.97593
20
-2.01053
11
2.97631
21
-2.01072
0
LINE
8
BLACK
6
CONTINUOUS
10
2.97631
20
-2.01072
11
2.97636
21
-2.01087
0
LINE
8
BLACK
6
CONTINUOUS
10
2.97636
20
-2.01087
11
2.97648
21
-2.01096
0
LINE
8
BLACK
6
CONTINUOUS
10
2.97648
20
-2.01096
11
2.97654
21
-2.01139
0
LINE
8
BLACK
6
CONTINUOUS
10
2.97654
20
-2.01139
11
2.97668
21
-2.01179
0
LINE
8
BLACK
6
CONTINUOUS
10
2.97668
20
-2.01179
11
2.97661
21
-2.01193
0
LINE
8
BLACK
6
CONTINUOUS
10
2.97661
20
-2.01193
11
2.97663
21
-2.01208
0
LINE
8
BLACK
6
CONTINUOUS
10
2.97663
20
-2.01208
11
2.97637
21
-2.01242
0
LINE
8
BLACK
6
CONTINUOUS
10
2.97637
20
-2.01242
11
2.97618
21
-2.01281
0
LINE
8
BLACK
6
CONTINUOUS
10
2.97618
20
-2.01281
11
2.97604
21
-2.01286
0
LINE
8
BLACK
6
CONTINUOUS
10
2.97604
20
-2.01286
11
2.97594
21
-2.01298
0
LINE
8
BLACK
6
CONTINUOUS
10
2.97594
20
-2.01298
11
2.96699
21
-2.01814
0
LINE
8
BLACK
6
CONTINUOUS
10
2.96699
20
-2.01814
11
2.96794
21
-2.01979
0
LINE
8
BLACK
6
CONTINUOUS
10
2.96794
20
-2.01979
11
2.96809
21
-2.02091
0
LINE
8
BLACK
6
CONTINUOUS
10
2.96809
20
-2.02091
11
2.9674
21
-2.02181
0
LINE
8
BLACK
6
CONTINUOUS
10
2.9674
20
-2.02181
11
2.96628
21
-2.02195
0
LINE
8
BLACK
6
CONTINUOUS
10
2.96628
20
-2.02195
11
2.96538
21
-2.02126
0
LINE
8
BLACK
6
CONTINUOUS
10
2.96538
20
-2.02126
11
2.96201
21
-2.01542
0
LINE
8
BLACK
6
CONTINUOUS
10
2.96201
20
-2.01542
11
2.96186
21
-2.0143
0
LINE
8
BLACK
6
CONTINUOUS
10
2.96186
20
-2.0143
11
2.96255
21
-2.0134
0
LINE
8
BLACK
6
CONTINUOUS
10
2.96255
20
-2.0134
11
2.96367
21
-2.01326
0
LINE
8
BLACK
6
CONTINUOUS
10
2.96367
20
-2.01326
11
2.96457
21
-2.01394
0
LINE
8
BLACK
6
CONTINUOUS
10
2.96457
20
-2.01394
11
2.96552
21
-2.01559
0
LINE
8
BLACK
6
CONTINUOUS
10
2.96552
20
-2.01559
11
2.971
21
-2.01242
0
LINE
8
BLACK
6
CONTINUOUS
10
2.971
20
-2.01242
11
2.97083
21
-2.01239
0
LINE
8
BLACK
6
CONTINUOUS
10
2.97083
20
-2.01239
11
2.96978
21
-2.0117
0
LINE
8
BLACK
6
CONTINUOUS
10
2.96978
20
-2.0117
11
2.96915
21
-2.01076
0
LINE
8
BLACK
6
CONTINUOUS
10
2.96915
20
-2.01076
11
2.96936
21
-2.00965
0
LINE
8
BLACK
6
CONTINUOUS
10
2.96936
20
-2.00965
11
2.9703
21
-2.00902
0
LINE
8
BLACK
6
CONTINUOUS
10
2.9703
20
-2.00902
11
2.97141
21
-2.00923
0
LINE
8
BLACK
6
CONTINUOUS
10
3.20846
20
-1.99008
11
3.20903
21
-1.99147
0
LINE
8
BLACK
6
CONTINUOUS
10
3.20903
20
-1.99147
11
3.20903
21
-1.99231
0
LINE
8
BLACK
6
CONTINUOUS
10
3.20903
20
-1.99231
11
3.21363
21
-1.99231
0
LINE
8
BLACK
6
CONTINUOUS
10
3.21363
20
-1.99231
11
3.21502
21
-1.99289
0
LINE
8
BLACK
6
CONTINUOUS
10
3.21502
20
-1.99289
11
3.21559
21
-1.99428
0
LINE
8
BLACK
6
CONTINUOUS
10
3.21559
20
-1.99428
11
3.21502
21
-1.99567
0
LINE
8
BLACK
6
CONTINUOUS
10
3.21502
20
-1.99567
11
3.21363
21
-1.99625
0
LINE
8
BLACK
6
CONTINUOUS
10
3.21363
20
-1.99625
11
3.20903
21
-1.99625
0
LINE
8
BLACK
6
CONTINUOUS
10
3.20903
20
-1.99625
11
3.20903
21
-2.00366
0
LINE
8
BLACK
6
CONTINUOUS
10
3.20903
20
-2.00366
11
3.20891
21
-2.00395
0
LINE
8
BLACK
6
CONTINUOUS
10
3.20891
20
-2.00395
11
3.20893
21
-2.00428
0
LINE
8
BLACK
6
CONTINUOUS
10
3.20893
20
-2.00428
11
3.20863
21
-2.00462
0
LINE
8
BLACK
6
CONTINUOUS
10
3.20863
20
-2.00462
11
3.20846
21
-2.00505
0
LINE
8
BLACK
6
CONTINUOUS
10
3.20846
20
-2.00505
11
3.20816
21
-2.00517
0
LINE
8
BLACK
6
CONTINUOUS
10
3.20816
20
-2.00517
11
3.20795
21
-2.00542
0
LINE
8
BLACK
6
CONTINUOUS
10
3.20795
20
-2.00542
11
3.20749
21
-2.00545
0
LINE
8
BLACK
6
CONTINUOUS
10
3.20749
20
-2.00545
11
3.20706
21
-2.00562
0
LINE
8
BLACK
6
CONTINUOUS
10
3.20706
20
-2.00562
11
3.20677
21
-2.0055
0
LINE
8
BLACK
6
CONTINUOUS
10
3.20677
20
-2.0055
11
3.20644
21
-2.00552
0
LINE
8
BLACK
6
CONTINUOUS
10
3.20644
20
-2.00552
11
3.19238
21
-2.00084
0
LINE
8
BLACK
6
CONTINUOUS
10
3.19238
20
-2.00084
11
3.19124
21
-1.99985
0
LINE
8
BLACK
6
CONTINUOUS
10
3.19124
20
-1.99985
11
3.19114
21
-1.99835
0
LINE
8
BLACK
6
CONTINUOUS
10
3.19114
20
-1.99835
11
3.19212
21
-1.99721
0
LINE
8
BLACK
6
CONTINUOUS
10
3.19212
20
-1.99721
11
3.19363
21
-1.9971
0
LINE
8
BLACK
6
CONTINUOUS
10
3.19363
20
-1.9971
11
3.2051
21
-2.00092
0
LINE
8
BLACK
6
CONTINUOUS
10
3.2051
20
-2.00092
11
3.2051
21
-1.99625
0
LINE
8
BLACK
6
CONTINUOUS
10
3.2051
20
-1.99625
11
3.2005
21
-1.99625
0
LINE
8
BLACK
6
CONTINUOUS
10
3.2005
20
-1.99625
11
3.19911
21
-1.99567
0
LINE
8
BLACK
6
CONTINUOUS
10
3.19911
20
-1.99567
11
3.19853
21
-1.99428
0
LINE
8
BLACK
6
CONTINUOUS
10
3.19853
20
-1.99428
11
3.19911
21
-1.99289
0
LINE
8
BLACK
6
CONTINUOUS
10
3.19911
20
-1.99289
11
3.2005
21
-1.99231
0
LINE
8
BLACK
6
CONTINUOUS
10
3.2005
20
-1.99231
11
3.2051
21
-1.99231
0
LINE
8
BLACK
6
CONTINUOUS
10
3.2051
20
-1.99231
11
3.2051
21
-1.99147
0
LINE
8
BLACK
6
CONTINUOUS
10
3.2051
20
-1.99147
11
3.20567
21
-1.99008
0
LINE
8
BLACK
6
CONTINUOUS
10
3.20567
20
-1.99008
11
3.20706
21
-1.9895
0
LINE
8
BLACK
6
CONTINUOUS
10
3.20706
20
-1.9895
11
3.20846
21
-1.99008
0
LINE
8
BLACK
6
CONTINUOUS
10
3.17368
20
-1.96704
11
3.17411
21
-1.96808
0
LINE
8
BLACK
6
CONTINUOUS
10
3.17411
20
-1.96808
11
3.17411
21
-1.97483
0
LINE
8
BLACK
6
CONTINUOUS
10
3.17411
20
-1.97483
11
3.17368
21
-1.97588
0
LINE
8
BLACK
6
CONTINUOUS
10
3.17368
20
-1.97588
11
3.17263
21
-1.97631
0
LINE
8
BLACK
6
CONTINUOUS
10
3.17263
20
-1.97631
11
3.17159
21
-1.97588
0
LINE
8
BLACK
6
CONTINUOUS
10
3.17159
20
-1.97588
11
3.17116
21
-1.97483
0
LINE
8
BLACK
6
CONTINUOUS
10
3.17116
20
-1.97483
11
3.17116
21
-1.97293
0
LINE
8
BLACK
6
CONTINUOUS
10
3.17116
20
-1.97293
11
3.16482
21
-1.97293
0
LINE
8
BLACK
6
CONTINUOUS
10
3.16482
20
-1.97293
11
3.16495
21
-1.97305
0
LINE
8
BLACK
6
CONTINUOUS
10
3.16495
20
-1.97305
11
3.16552
21
-1.97417
0
LINE
8
BLACK
6
CONTINUOUS
10
3.16552
20
-1.97417
11
3.1656
21
-1.9753
0
LINE
8
BLACK
6
CONTINUOUS
10
3.1656
20
-1.9753
11
3.16486
21
-1.97615
0
LINE
8
BLACK
6
CONTINUOUS
10
3.16486
20
-1.97615
11
3.16373
21
-1.97623
0
LINE
8
BLACK
6
CONTINUOUS
10
3.16373
20
-1.97623
11
3.16288
21
-1.97549
0
LINE
8
BLACK
6
CONTINUOUS
10
3.16288
20
-1.97549
11
3.16242
21
-1.97458
0
LINE
8
BLACK
6
CONTINUOUS
10
3.16242
20
-1.97458
11
3.16157
21
-1.97373
0
LINE
8
BLACK
6
CONTINUOUS
10
3.16157
20
-1.97373
11
3.16
21
-1.97269
0
LINE
8
BLACK
6
CONTINUOUS
10
3.16
20
-1.97269
11
3.15992
21
-1.97256
0
LINE
8
BLACK
6
CONTINUOUS
10
3.15992
20
-1.97256
11
3.15978
21
-1.9725
0
LINE
8
BLACK
6
CONTINUOUS
10
3.15978
20
-1.9725
11
3.15961
21
-1.9721
0
LINE
8
BLACK
6
CONTINUOUS
10
3.15961
20
-1.9721
11
3.15937
21
-1.97175
0
LINE
8
BLACK
6
CONTINUOUS
10
3.15937
20
-1.97175
11
3.1594
21
-1.9716
0
LINE
8
BLACK
6
CONTINUOUS
10
3.1594
20
-1.9716
11
3.15935
21
-1.97146
0
LINE
8
BLACK
6
CONTINUOUS
10
3.15935
20
-1.97146
11
3.15951
21
-1.97106
0
LINE
8
BLACK
6
CONTINUOUS
10
3.15951
20
-1.97106
11
3.15959
21
-1.97064
0
LINE
8
BLACK
6
CONTINUOUS
10
3.15959
20
-1.97064
11
3.15972
21
-1.97055
0
LINE
8
BLACK
6
CONTINUOUS
10
3.15972
20
-1.97055
11
3.15978
21
-1.97041
0
LINE
8
BLACK
6
CONTINUOUS
10
3.15978
20
-1.97041
11
3.16018
21
-1.97025
0
LINE
8
BLACK
6
CONTINUOUS
10
3.16018
20
-1.97025
11
3.16053
21
-1.97001
0
LINE
8
BLACK
6
CONTINUOUS
10
3.16053
20
-1.97001
11
3.16068
21
-1.97004
0
LINE
8
BLACK
6
CONTINUOUS
10
3.16068
20
-1.97004
11
3.16082
21
-1.96998
0
LINE
8
BLACK
6
CONTINUOUS
10
3.16082
20
-1.96998
11
3.17116
21
-1.96998
0
LINE
8
BLACK
6
CONTINUOUS
10
3.17116
20
-1.96998
11
3.17116
21
-1.96808
0
LINE
8
BLACK
6
CONTINUOUS
10
3.17116
20
-1.96808
11
3.17159
21
-1.96704
0
LINE
8
BLACK
6
CONTINUOUS
10
3.17159
20
-1.96704
11
3.17263
21
-1.96661
0
LINE
8
BLACK
6
CONTINUOUS
10
3.17263
20
-1.96661
11
3.17368
21
-1.96704
0
CIRCLE
8
BLACK
10
3.54331
20
-1.9685
40
0.0433071
0
CIRCLE
8
BLACK
10
2.75591
20
-1.9685
40
0.0433071
0
CIRCLE
8
BLACK
10
2.75591
20
-2.75591
40
0.0433071
  0
ENDSEC
  0
EOF
