  0
SECTION
  2
HEADER
  9
$ANGBASE
  50
0.0
  9
$ANGDIR
  70
1
  9
$MEASUREMENT
  70
0
  0
ENDSEC
  0
SECTION
  2
TABLES
  0
TABLE
  2
LTYPE
  70
4
  0
LTYPE
  5
40F
  2
CONTINUOUS
  70
0
  3
Solid line
  72
65
  73
0
  40
0.0
  0
LTYPE
  5
410
  2
DASHDOT
 70
0
  3
Dash Dot ____ _ ____ _
 72
65
 73
4
 40
2.0
 49
1.25
 49
-0.25
 49
0.25
 49
-0.25
  0
LTYPE
  5
411
  2
DASHED
 70
0
  3
Dashed __ __ __ __ __
 72
65
 73
2
 40
0.75
 49
0.5
 49
-0.25
  0
LTYPE
  5
43B
  2
DOTTED
 70
0
  3
Dotted .  .  .  .
 72
65
 73
2
 40
0.2
 49
0.0
 49
-0.2
  0
ENDTAB
  0
TABLE
  2
STYLE
  70
4
  0
STYLE
  2
KICAD
  70
0
  40
0
  41
1
  42
1
  50
0
  71
0
  3
isocp.shx
  0
STYLE
  2
KICADB
  70
0
  40
0
  41
1
  42
1
  50
0
  71
0
  3
isocp.shx
  0
STYLE
  2
KICADI
  70
0
  40
0
  41
1
  42
1
  50
15
  71
0
  3
isocp.shx
  0
STYLE
  2
KICADBI
  70
0
  40
0
  41
1
  42
1
  50
15
  71
0
  3
isocp.shx
  0
ENDTAB
  0
TABLE
  2
LAYER
  70
1
  0
LAYER
  2
BLACK
  70
0
  62
7
  6
CONTINUOUS
  0
ENDTAB
  0
ENDSEC
  0
SECTION
  2
ENTITIES
0
LINE
8
BLACK
6
CONTINUOUS
10
3.13484
20
-1.99094
11
3.10217
21
-1.99094
0
LINE
8
BLACK
6
CONTINUOUS
10
3.10217
20
-1.99094
11
3.10217
21
-1.9811
0
LINE
8
BLACK
6
CONTINUOUS
10
3.10217
20
-1.9811
11
3.0076
21
-1.9811
0
LINE
8
BLACK
6
CONTINUOUS
10
3.0076
20
-1.9811
11
2.83715
21
-2.15155
0
LINE
8
BLACK
6
CONTINUOUS
10
2.83715
20
-2.15155
11
2.84174
21
-2.15419
0
LINE
8
BLACK
6
CONTINUOUS
10
2.84174
20
-2.15419
11
2.8254
21
-2.18249
0
LINE
8
BLACK
6
CONTINUOUS
10
2.8254
20
-2.18249
11
2.79983
21
-2.16773
0
LINE
8
BLACK
6
CONTINUOUS
10
2.79983
20
-2.16773
11
2.81616
21
-2.13943
0
LINE
8
BLACK
6
CONTINUOUS
10
2.81616
20
-2.13943
11
2.82833
21
-2.14645
0
LINE
8
BLACK
6
CONTINUOUS
10
2.82833
20
-2.14645
11
3.00208
21
-1.9727
0
LINE
8
BLACK
6
CONTINUOUS
10
3.00208
20
-1.9727
11
3.00278
21
-1.97217
0
LINE
8
BLACK
6
CONTINUOUS
10
3.00278
20
-1.97217
11
3.0029
21
-1.97204
0
LINE
8
BLACK
6
CONTINUOUS
10
3.0029
20
-1.97204
11
3.003
21
-1.97201
0
LINE
8
BLACK
6
CONTINUOUS
10
3.003
20
-1.97201
11
3.0032
21
-1.97186
0
LINE
8
BLACK
6
CONTINUOUS
10
3.0032
20
-1.97186
11
3.00439
21
-1.9716
0
LINE
8
BLACK
6
CONTINUOUS
10
3.00439
20
-1.9716
11
3.00556
21
-1.97126
0
LINE
8
BLACK
6
CONTINUOUS
10
3.00556
20
-1.97126
11
3.10217
21
-1.97126
0
LINE
8
BLACK
6
CONTINUOUS
10
3.10217
20
-1.97126
11
3.10217
21
-1.96142
0
LINE
8
BLACK
6
CONTINUOUS
10
3.10217
20
-1.96142
11
3.13484
21
-1.96142
0
LINE
8
BLACK
6
CONTINUOUS
10
3.13484
20
-1.96142
11
3.13484
21
-1.99094
0
LINE
8
BLACK
6
CONTINUOUS
10
3.19705
20
-1.97126
11
3.29365
21
-1.97126
0
LINE
8
BLACK
6
CONTINUOUS
10
3.29365
20
-1.97126
11
3.29452
21
-1.97138
0
LINE
8
BLACK
6
CONTINUOUS
10
3.29452
20
-1.97138
11
3.2947
21
-1.97137
0
LINE
8
BLACK
6
CONTINUOUS
10
3.2947
20
-1.97137
11
3.29479
21
-1.97142
0
LINE
8
BLACK
6
CONTINUOUS
10
3.29479
20
-1.97142
11
3.29504
21
-1.97146
0
LINE
8
BLACK
6
CONTINUOUS
10
3.29504
20
-1.97146
11
3.29607
21
-1.97212
0
LINE
8
BLACK
6
CONTINUOUS
10
3.29607
20
-1.97212
11
3.29713
21
-1.9727
0
LINE
8
BLACK
6
CONTINUOUS
10
3.29713
20
-1.9727
11
3.47088
21
-2.14645
0
LINE
8
BLACK
6
CONTINUOUS
10
3.47088
20
-2.14645
11
3.48305
21
-2.13943
0
LINE
8
BLACK
6
CONTINUOUS
10
3.48305
20
-2.13943
11
3.49939
21
-2.16773
0
LINE
8
BLACK
6
CONTINUOUS
10
3.49939
20
-2.16773
11
3.47381
21
-2.18249
0
LINE
8
BLACK
6
CONTINUOUS
10
3.47381
20
-2.18249
11
3.45748
21
-2.15419
0
LINE
8
BLACK
6
CONTINUOUS
10
3.45748
20
-2.15419
11
3.46206
21
-2.15155
0
LINE
8
BLACK
6
CONTINUOUS
10
3.46206
20
-2.15155
11
3.29162
21
-1.9811
0
LINE
8
BLACK
6
CONTINUOUS
10
3.29162
20
-1.9811
11
3.19705
21
-1.9811
0
LINE
8
BLACK
6
CONTINUOUS
10
3.19705
20
-1.9811
11
3.19705
21
-1.99094
0
LINE
8
BLACK
6
CONTINUOUS
10
3.19705
20
-1.99094
11
3.16437
21
-1.99094
0
LINE
8
BLACK
6
CONTINUOUS
10
3.16437
20
-1.99094
11
3.16437
21
-1.96142
0
LINE
8
BLACK
6
CONTINUOUS
10
3.16437
20
-1.96142
11
3.19705
21
-1.96142
0
LINE
8
BLACK
6
CONTINUOUS
10
3.19705
20
-1.96142
11
3.19705
21
-1.97126
0
LINE
8
BLACK
6
CONTINUOUS
10
3.57967
20
-2.04014
11
3.58406
21
-2.04238
0
LINE
8
BLACK
6
CONTINUOUS
10
3.58406
20
-2.04238
11
3.58754
21
-2.04586
0
LINE
8
BLACK
6
CONTINUOUS
10
3.58754
20
-2.04586
11
3.58978
21
-2.05025
0
LINE
8
BLACK
6
CONTINUOUS
10
3.58978
20
-2.05025
11
3.59055
21
-2.05512
0
LINE
8
BLACK
6
CONTINUOUS
10
3.59055
20
-2.05512
11
3.58978
21
-2.05998
0
LINE
8
BLACK
6
CONTINUOUS
10
3.58978
20
-2.05998
11
3.58754
21
-2.06437
0
LINE
8
BLACK
6
CONTINUOUS
10
3.58754
20
-2.06437
11
3.58406
21
-2.06786
0
LINE
8
BLACK
6
CONTINUOUS
10
3.58406
20
-2.06786
11
3.57967
21
-2.0701
0
LINE
8
BLACK
6
CONTINUOUS
10
3.57967
20
-2.0701
11
3.5748
21
-2.07087
0
LINE
8
BLACK
6
CONTINUOUS
10
3.5748
20
-2.07087
11
3.56994
21
-2.0701
0
LINE
8
BLACK
6
CONTINUOUS
10
3.56994
20
-2.0701
11
3.56785
21
-2.06903
0
LINE
8
BLACK
6
CONTINUOUS
10
3.56785
20
-2.06903
11
3.55118
21
-2.0857
0
LINE
8
BLACK
6
CONTINUOUS
10
3.55118
20
-2.0857
11
3.55118
21
-2.18217
0
LINE
8
BLACK
6
CONTINUOUS
10
3.55118
20
-2.18217
11
3.55156
21
-2.18268
0
LINE
8
BLACK
6
CONTINUOUS
10
3.55156
20
-2.18268
11
3.55164
21
-2.18303
0
LINE
8
BLACK
6
CONTINUOUS
10
3.55164
20
-2.18303
11
3.55186
21
-2.18332
0
LINE
8
BLACK
6
CONTINUOUS
10
3.55186
20
-2.18332
11
3.55193
21
-2.18437
0
LINE
8
BLACK
6
CONTINUOUS
10
3.55193
20
-2.18437
11
3.55215
21
-2.18539
0
LINE
8
BLACK
6
CONTINUOUS
10
3.55215
20
-2.18539
11
3.55203
21
-2.18573
0
LINE
8
BLACK
6
CONTINUOUS
10
3.55203
20
-2.18573
11
3.55205
21
-2.18609
0
LINE
8
BLACK
6
CONTINUOUS
10
3.55205
20
-2.18609
11
3.55155
21
-2.18701
0
LINE
8
BLACK
6
CONTINUOUS
10
3.55155
20
-2.18701
11
3.55118
21
-2.18799
0
LINE
8
BLACK
6
CONTINUOUS
10
3.55118
20
-2.18799
11
3.5509
21
-2.1882
0
LINE
8
BLACK
6
CONTINUOUS
10
3.5509
20
-2.1882
11
3.55072
21
-2.18852
0
LINE
8
BLACK
6
CONTINUOUS
10
3.55072
20
-2.18852
11
3.53104
21
-2.2082
0
LINE
8
BLACK
6
CONTINUOUS
10
3.53104
20
-2.2082
11
3.53034
21
-2.20873
0
LINE
8
BLACK
6
CONTINUOUS
10
3.53034
20
-2.20873
11
3.53022
21
-2.20886
0
LINE
8
BLACK
6
CONTINUOUS
10
3.53022
20
-2.20886
11
3.53012
21
-2.20889
0
LINE
8
BLACK
6
CONTINUOUS
10
3.53012
20
-2.20889
11
3.52992
21
-2.20904
0
LINE
8
BLACK
6
CONTINUOUS
10
3.52992
20
-2.20904
11
3.52873
21
-2.2093
0
LINE
8
BLACK
6
CONTINUOUS
10
3.52873
20
-2.2093
11
3.52756
21
-2.20965
0
LINE
8
BLACK
6
CONTINUOUS
10
3.52756
20
-2.20965
11
3.52359
21
-2.20965
0
LINE
8
BLACK
6
CONTINUOUS
10
3.52359
20
-2.20965
11
3.53049
21
-2.2216
0
LINE
8
BLACK
6
CONTINUOUS
10
3.53049
20
-2.2216
11
3.50492
21
-2.23636
0
LINE
8
BLACK
6
CONTINUOUS
10
3.50492
20
-2.23636
11
3.48858
21
-2.20806
0
LINE
8
BLACK
6
CONTINUOUS
10
3.48858
20
-2.20806
11
3.51415
21
-2.1933
0
LINE
8
BLACK
6
CONTINUOUS
10
3.51415
20
-2.1933
11
3.51814
21
-2.20022
0
LINE
8
BLACK
6
CONTINUOUS
10
3.51814
20
-2.20022
11
3.51847
21
-2.20015
0
LINE
8
BLACK
6
CONTINUOUS
10
3.51847
20
-2.20015
11
3.51964
21
-2.1998
0
LINE
8
BLACK
6
CONTINUOUS
10
3.51964
20
-2.1998
11
3.52552
21
-2.1998
0
LINE
8
BLACK
6
CONTINUOUS
10
3.52552
20
-2.1998
11
3.54134
21
-2.18399
0
LINE
8
BLACK
6
CONTINUOUS
10
3.54134
20
-2.18399
11
3.54134
21
-2.08366
0
LINE
8
BLACK
6
CONTINUOUS
10
3.54134
20
-2.08366
11
3.54146
21
-2.08279
0
LINE
8
BLACK
6
CONTINUOUS
10
3.54146
20
-2.08279
11
3.54145
21
-2.08262
0
LINE
8
BLACK
6
CONTINUOUS
10
3.54145
20
-2.08262
11
3.5415
21
-2.08252
0
LINE
8
BLACK
6
CONTINUOUS
10
3.5415
20
-2.08252
11
3.54154
21
-2.08227
0
LINE
8
BLACK
6
CONTINUOUS
10
3.54154
20
-2.08227
11
3.5422
21
-2.08125
0
LINE
8
BLACK
6
CONTINUOUS
10
3.5422
20
-2.08125
11
3.54278
21
-2.08018
0
LINE
8
BLACK
6
CONTINUOUS
10
3.54278
20
-2.08018
11
3.56089
21
-2.06207
0
LINE
8
BLACK
6
CONTINUOUS
10
3.56089
20
-2.06207
11
3.55983
21
-2.05998
0
LINE
8
BLACK
6
CONTINUOUS
10
3.55983
20
-2.05998
11
3.55906
21
-2.05512
0
LINE
8
BLACK
6
CONTINUOUS
10
3.55906
20
-2.05512
11
3.55983
21
-2.05025
0
LINE
8
BLACK
6
CONTINUOUS
10
3.55983
20
-2.05025
11
3.56206
21
-2.04586
0
LINE
8
BLACK
6
CONTINUOUS
10
3.56206
20
-2.04586
11
3.56555
21
-2.04238
0
LINE
8
BLACK
6
CONTINUOUS
10
3.56555
20
-2.04238
11
3.56994
21
-2.04014
0
LINE
8
BLACK
6
CONTINUOUS
10
3.56994
20
-2.04014
11
3.5748
21
-2.03937
0
LINE
8
BLACK
6
CONTINUOUS
10
3.5748
20
-2.03937
11
3.57967
21
-2.04014
0
LINE
8
BLACK
6
CONTINUOUS
10
3.57967
20
-2.08738
11
3.58406
21
-2.08962
0
LINE
8
BLACK
6
CONTINUOUS
10
3.58406
20
-2.08962
11
3.58754
21
-2.09311
0
LINE
8
BLACK
6
CONTINUOUS
10
3.58754
20
-2.09311
11
3.58978
21
-2.0975
0
LINE
8
BLACK
6
CONTINUOUS
10
3.58978
20
-2.0975
11
3.59055
21
-2.10236
0
LINE
8
BLACK
6
CONTINUOUS
10
3.59055
20
-2.10236
11
3.58978
21
-2.10723
0
LINE
8
BLACK
6
CONTINUOUS
10
3.58978
20
-2.10723
11
3.58754
21
-2.11162
0
LINE
8
BLACK
6
CONTINUOUS
10
3.58754
20
-2.11162
11
3.58406
21
-2.1151
0
LINE
8
BLACK
6
CONTINUOUS
10
3.58406
20
-2.1151
11
3.57972
21
-2.11731
0
LINE
8
BLACK
6
CONTINUOUS
10
3.57972
20
-2.11731
11
3.57972
21
-2.20866
0
LINE
8
BLACK
6
CONTINUOUS
10
3.57972
20
-2.20866
11
3.5796
21
-2.20953
0
LINE
8
BLACK
6
CONTINUOUS
10
3.5796
20
-2.20953
11
3.57961
21
-2.20971
0
LINE
8
BLACK
6
CONTINUOUS
10
3.57961
20
-2.20971
11
3.57956
21
-2.2098
0
LINE
8
BLACK
6
CONTINUOUS
10
3.57956
20
-2.2098
11
3.57953
21
-2.21005
0
LINE
8
BLACK
6
CONTINUOUS
10
3.57953
20
-2.21005
11
3.57887
21
-2.21107
0
LINE
8
BLACK
6
CONTINUOUS
10
3.57887
20
-2.21107
11
3.57828
21
-2.21214
0
LINE
8
BLACK
6
CONTINUOUS
10
3.57828
20
-2.21214
11
3.53104
21
-2.25939
0
LINE
8
BLACK
6
CONTINUOUS
10
3.53104
20
-2.25939
11
3.53034
21
-2.25991
0
LINE
8
BLACK
6
CONTINUOUS
10
3.53034
20
-2.25991
11
3.53022
21
-2.26005
0
LINE
8
BLACK
6
CONTINUOUS
10
3.53022
20
-2.26005
11
3.53012
21
-2.26008
0
LINE
8
BLACK
6
CONTINUOUS
10
3.53012
20
-2.26008
11
3.52992
21
-2.26022
0
LINE
8
BLACK
6
CONTINUOUS
10
3.52992
20
-2.26022
11
3.52873
21
-2.26048
0
LINE
8
BLACK
6
CONTINUOUS
10
3.52873
20
-2.26048
11
3.52756
21
-2.26083
0
LINE
8
BLACK
6
CONTINUOUS
10
3.52756
20
-2.26083
11
3.50637
21
-2.26083
0
LINE
8
BLACK
6
CONTINUOUS
10
3.50637
20
-2.26083
11
3.5055
21
-2.2607
0
LINE
8
BLACK
6
CONTINUOUS
10
3.5055
20
-2.2607
11
3.50532
21
-2.26071
0
LINE
8
BLACK
6
CONTINUOUS
10
3.50532
20
-2.26071
11
3.50523
21
-2.26066
0
LINE
8
BLACK
6
CONTINUOUS
10
3.50523
20
-2.26066
11
3.50498
21
-2.26063
0
LINE
8
BLACK
6
CONTINUOUS
10
3.50498
20
-2.26063
11
3.50396
21
-2.25997
0
LINE
8
BLACK
6
CONTINUOUS
10
3.50396
20
-2.25997
11
3.50289
21
-2.25939
0
LINE
8
BLACK
6
CONTINUOUS
10
3.50289
20
-2.25939
11
3.48903
21
-2.24553
0
LINE
8
BLACK
6
CONTINUOUS
10
3.48903
20
-2.24553
11
3.48173
21
-2.24975
0
LINE
8
BLACK
6
CONTINUOUS
10
3.48173
20
-2.24975
11
3.46539
21
-2.22145
0
LINE
8
BLACK
6
CONTINUOUS
10
3.46539
20
-2.22145
11
3.48244
21
-2.2116
0
LINE
8
BLACK
6
CONTINUOUS
10
3.48244
20
-2.2116
11
3.49878
21
-2.2399
0
LINE
8
BLACK
6
CONTINUOUS
10
3.49878
20
-2.2399
11
3.49786
21
-2.24044
0
LINE
8
BLACK
6
CONTINUOUS
10
3.49786
20
-2.24044
11
3.5084
21
-2.25098
0
LINE
8
BLACK
6
CONTINUOUS
10
3.5084
20
-2.25098
11
3.52552
21
-2.25098
0
LINE
8
BLACK
6
CONTINUOUS
10
3.52552
20
-2.25098
11
3.56988
21
-2.20662
0
LINE
8
BLACK
6
CONTINUOUS
10
3.56988
20
-2.20662
11
3.56988
21
-2.11731
0
LINE
8
BLACK
6
CONTINUOUS
10
3.56988
20
-2.11731
11
3.56555
21
-2.1151
0
LINE
8
BLACK
6
CONTINUOUS
10
3.56555
20
-2.1151
11
3.56206
21
-2.11162
0
LINE
8
BLACK
6
CONTINUOUS
10
3.56206
20
-2.11162
11
3.55983
21
-2.10723
0
LINE
8
BLACK
6
CONTINUOUS
10
3.55983
20
-2.10723
11
3.55906
21
-2.10236
0
LINE
8
BLACK
6
CONTINUOUS
10
3.55906
20
-2.10236
11
3.55983
21
-2.0975
0
LINE
8
BLACK
6
CONTINUOUS
10
3.55983
20
-2.0975
11
3.56206
21
-2.09311
0
LINE
8
BLACK
6
CONTINUOUS
10
3.56206
20
-2.09311
11
3.56555
21
-2.08962
0
LINE
8
BLACK
6
CONTINUOUS
10
3.56555
20
-2.08962
11
3.56994
21
-2.08738
0
LINE
8
BLACK
6
CONTINUOUS
10
3.56994
20
-2.08738
11
3.5748
21
-2.08661
0
LINE
8
BLACK
6
CONTINUOUS
10
3.5748
20
-2.08661
11
3.57967
21
-2.08738
0
LINE
8
BLACK
6
CONTINUOUS
10
4.01094
20
-2.13377
11
4.01356
21
-2.13459
0
LINE
8
BLACK
6
CONTINUOUS
10
4.01356
20
-2.13459
11
4.01533
21
-2.1367
0
LINE
8
BLACK
6
CONTINUOUS
10
4.01533
20
-2.1367
11
4.01573
21
-2.13865
0
LINE
8
BLACK
6
CONTINUOUS
10
4.01573
20
-2.13865
11
4.01573
21
-2.8738
0
LINE
8
BLACK
6
CONTINUOUS
10
4.01573
20
-2.8738
11
4.01571
21
-2.87423
0
LINE
8
BLACK
6
CONTINUOUS
10
4.01571
20
-2.87423
11
4.01557
21
-2.8758
0
LINE
8
BLACK
6
CONTINUOUS
10
4.01557
20
-2.8758
11
4.01508
21
-2.88078
0
LINE
8
BLACK
6
CONTINUOUS
10
4.01508
20
-2.88078
11
4.01494
21
-2.88156
0
LINE
8
BLACK
6
CONTINUOUS
10
4.01494
20
-2.88156
11
4.01426
21
-2.88411
0
LINE
8
BLACK
6
CONTINUOUS
10
4.01426
20
-2.88411
11
4.01421
21
-2.88426
0
LINE
8
BLACK
6
CONTINUOUS
10
4.01421
20
-2.88426
11
4.01312
21
-2.88786
0
LINE
8
BLACK
6
CONTINUOUS
10
4.01312
20
-2.88786
11
4.01288
21
-2.8885
0
LINE
8
BLACK
6
CONTINUOUS
10
4.01288
20
-2.8885
11
4.01167
21
-2.8911
0
LINE
8
BLACK
6
CONTINUOUS
10
4.01167
20
-2.8911
11
4.01155
21
-2.89133
0
LINE
8
BLACK
6
CONTINUOUS
10
4.01155
20
-2.89133
11
4.00988
21
-2.89445
0
LINE
8
BLACK
6
CONTINUOUS
10
4.00988
20
-2.89445
11
4.00958
21
-2.89495
0
LINE
8
BLACK
6
CONTINUOUS
10
4.00958
20
-2.89495
11
4.00789
21
-2.89736
0
LINE
8
BLACK
6
CONTINUOUS
10
4.00789
20
-2.89736
11
4.00766
21
-2.89765
0
LINE
8
BLACK
6
CONTINUOUS
10
4.00766
20
-2.89765
11
4.00547
21
-2.90033
0
LINE
8
BLACK
6
CONTINUOUS
10
4.00547
20
-2.90033
11
4.00514
21
-2.90069
0
LINE
8
BLACK
6
CONTINUOUS
10
4.00514
20
-2.90069
11
4.00305
21
-2.90278
0
LINE
8
BLACK
6
CONTINUOUS
10
4.00305
20
-2.90278
11
4.0027
21
-2.9031
0
LINE
8
BLACK
6
CONTINUOUS
10
4.0027
20
-2.9031
11
4.00002
21
-2.9053
0
LINE
8
BLACK
6
CONTINUOUS
10
4.00002
20
-2.9053
11
3.99972
21
-2.90553
0
LINE
8
BLACK
6
CONTINUOUS
10
3.99972
20
-2.90553
11
3.99731
21
-2.90721
0
LINE
8
BLACK
6
CONTINUOUS
10
3.99731
20
-2.90721
11
3.99681
21
-2.90752
0
LINE
8
BLACK
6
CONTINUOUS
10
3.99681
20
-2.90752
11
3.9937
21
-2.90919
0
LINE
8
BLACK
6
CONTINUOUS
10
3.9937
20
-2.90919
11
3.99346
21
-2.9093
0
LINE
8
BLACK
6
CONTINUOUS
10
3.99346
20
-2.9093
11
3.99086
21
-2.91051
0
LINE
8
BLACK
6
CONTINUOUS
10
3.99086
20
-2.91051
11
3.99022
21
-2.91076
0
LINE
8
BLACK
6
CONTINUOUS
10
3.99022
20
-2.91076
11
3.98663
21
-2.91185
0
LINE
8
BLACK
6
CONTINUOUS
10
3.98663
20
-2.91185
11
3.98647
21
-2.91189
0
LINE
8
BLACK
6
CONTINUOUS
10
3.98647
20
-2.91189
11
3.98393
21
-2.91258
0
LINE
8
BLACK
6
CONTINUOUS
10
3.98393
20
-2.91258
11
3.98314
21
-2.91272
0
LINE
8
BLACK
6
CONTINUOUS
10
3.98314
20
-2.91272
11
3.97817
21
-2.91321
0
LINE
8
BLACK
6
CONTINUOUS
10
3.97817
20
-2.91321
11
3.97741
21
-2.91328
0
LINE
8
BLACK
6
CONTINUOUS
10
3.97741
20
-2.91328
11
3.97659
21
-2.91335
0
LINE
8
BLACK
6
CONTINUOUS
10
3.97659
20
-2.91335
11
3.97617
21
-2.91337
0
LINE
8
BLACK
6
CONTINUOUS
10
3.97617
20
-2.91337
11
3.58756
21
-2.91337
0
LINE
8
BLACK
6
CONTINUOUS
10
3.58756
20
-2.91337
11
3.58492
21
-2.91259
0
LINE
8
BLACK
6
CONTINUOUS
10
3.58492
20
-2.91259
11
3.58312
21
-2.91051
0
LINE
8
BLACK
6
CONTINUOUS
10
3.58312
20
-2.91051
11
3.58268
21
-2.90848
0
LINE
8
BLACK
6
CONTINUOUS
10
3.58268
20
-2.90848
11
3.58268
21
-2.67811
0
LINE
8
BLACK
6
CONTINUOUS
10
3.58268
20
-2.67811
11
3.58345
21
-2.67547
0
LINE
8
BLACK
6
CONTINUOUS
10
3.58345
20
-2.67547
11
3.58553
21
-2.67367
0
LINE
8
BLACK
6
CONTINUOUS
10
3.58553
20
-2.67367
11
3.58756
21
-2.67323
0
LINE
8
BLACK
6
CONTINUOUS
10
3.58756
20
-2.67323
11
3.80709
21
-2.67323
0
LINE
8
BLACK
6
CONTINUOUS
10
3.80709
20
-2.67323
11
3.80709
21
-2.67323
0
LINE
8
BLACK
6
CONTINUOUS
10
3.80709
20
-2.67323
11
3.81099
21
-2.13486
0
LINE
8
BLACK
6
CONTINUOUS
10
3.81099
20
-2.13486
11
3.81178
21
-2.13223
0
LINE
8
BLACK
6
CONTINUOUS
10
3.81178
20
-2.13223
11
3.81387
21
-2.13044
0
LINE
8
BLACK
6
CONTINUOUS
10
3.81387
20
-2.13044
11
3.81596
21
-2.13002
0
LINE
8
BLACK
6
CONTINUOUS
10
3.81596
20
-2.13002
11
4.01094
21
-2.13377
0
LINE
8
BLACK
6
CONTINUOUS
10
2.84174
20
-2.57022
11
2.83715
21
-2.57286
0
LINE
8
BLACK
6
CONTINUOUS
10
2.83715
20
-2.57286
11
3.0076
21
-2.74331
0
LINE
8
BLACK
6
CONTINUOUS
10
3.0076
20
-2.74331
11
3.10217
21
-2.74331
0
LINE
8
BLACK
6
CONTINUOUS
10
3.10217
20
-2.74331
11
3.10217
21
-2.73346
0
LINE
8
BLACK
6
CONTINUOUS
10
3.10217
20
-2.73346
11
3.13484
21
-2.73346
0
LINE
8
BLACK
6
CONTINUOUS
10
3.13484
20
-2.73346
11
3.13484
21
-2.76299
0
LINE
8
BLACK
6
CONTINUOUS
10
3.13484
20
-2.76299
11
3.10217
21
-2.76299
0
LINE
8
BLACK
6
CONTINUOUS
10
3.10217
20
-2.76299
11
3.10217
21
-2.75315
0
LINE
8
BLACK
6
CONTINUOUS
10
3.10217
20
-2.75315
11
3.00556
21
-2.75315
0
LINE
8
BLACK
6
CONTINUOUS
10
3.00556
20
-2.75315
11
3.00469
21
-2.75302
0
LINE
8
BLACK
6
CONTINUOUS
10
3.00469
20
-2.75302
11
3.00451
21
-2.75304
0
LINE
8
BLACK
6
CONTINUOUS
10
3.00451
20
-2.75304
11
3.00442
21
-2.75299
0
LINE
8
BLACK
6
CONTINUOUS
10
3.00442
20
-2.75299
11
3.00417
21
-2.75295
0
LINE
8
BLACK
6
CONTINUOUS
10
3.00417
20
-2.75295
11
3.00315
21
-2.75229
0
LINE
8
BLACK
6
CONTINUOUS
10
3.00315
20
-2.75229
11
3.00208
21
-2.75171
0
LINE
8
BLACK
6
CONTINUOUS
10
3.00208
20
-2.75171
11
2.82833
21
-2.57796
0
LINE
8
BLACK
6
CONTINUOUS
10
2.82833
20
-2.57796
11
2.81616
21
-2.58498
0
LINE
8
BLACK
6
CONTINUOUS
10
2.81616
20
-2.58498
11
2.79983
21
-2.55668
0
LINE
8
BLACK
6
CONTINUOUS
10
2.79983
20
-2.55668
11
2.8254
21
-2.54192
0
LINE
8
BLACK
6
CONTINUOUS
10
2.8254
20
-2.54192
11
2.84174
21
-2.57022
0
LINE
8
BLACK
6
CONTINUOUS
10
2.81063
20
-2.20806
11
2.7943
21
-2.23636
0
LINE
8
BLACK
6
CONTINUOUS
10
2.7943
20
-2.23636
11
2.78445
21
-2.23068
0
LINE
8
BLACK
6
CONTINUOUS
10
2.78445
20
-2.23068
11
2.78445
21
-2.49373
0
LINE
8
BLACK
6
CONTINUOUS
10
2.78445
20
-2.49373
11
2.7943
21
-2.48805
0
LINE
8
BLACK
6
CONTINUOUS
10
2.7943
20
-2.48805
11
2.81063
21
-2.51635
0
LINE
8
BLACK
6
CONTINUOUS
10
2.81063
20
-2.51635
11
2.78506
21
-2.53111
0
LINE
8
BLACK
6
CONTINUOUS
10
2.78506
20
-2.53111
11
2.76872
21
-2.50281
0
LINE
8
BLACK
6
CONTINUOUS
10
2.76872
20
-2.50281
11
2.77461
21
-2.49942
0
LINE
8
BLACK
6
CONTINUOUS
10
2.77461
20
-2.49942
11
2.77461
21
-2.22499
0
LINE
8
BLACK
6
CONTINUOUS
10
2.77461
20
-2.22499
11
2.76872
21
-2.2216
0
LINE
8
BLACK
6
CONTINUOUS
10
2.76872
20
-2.2216
11
2.78506
21
-2.1933
0
LINE
8
BLACK
6
CONTINUOUS
10
2.78506
20
-2.1933
11
2.81063
21
-2.20806
0
LINE
8
BLACK
6
CONTINUOUS
10
2.83382
20
-2.22145
11
2.81748
21
-2.24975
0
LINE
8
BLACK
6
CONTINUOUS
10
2.81748
20
-2.24975
11
2.81201
21
-2.24659
0
LINE
8
BLACK
6
CONTINUOUS
10
2.81201
20
-2.24659
11
2.81201
21
-2.47782
0
LINE
8
BLACK
6
CONTINUOUS
10
2.81201
20
-2.47782
11
2.81748
21
-2.47466
0
LINE
8
BLACK
6
CONTINUOUS
10
2.81748
20
-2.47466
11
2.83382
21
-2.50296
0
LINE
8
BLACK
6
CONTINUOUS
10
2.83382
20
-2.50296
11
2.81677
21
-2.5128
0
LINE
8
BLACK
6
CONTINUOUS
10
2.81677
20
-2.5128
11
2.80043
21
-2.48451
0
LINE
8
BLACK
6
CONTINUOUS
10
2.80043
20
-2.48451
11
2.80217
21
-2.48351
0
LINE
8
BLACK
6
CONTINUOUS
10
2.80217
20
-2.48351
11
2.80217
21
-2.2409
0
LINE
8
BLACK
6
CONTINUOUS
10
2.80217
20
-2.2409
11
2.80043
21
-2.2399
0
LINE
8
BLACK
6
CONTINUOUS
10
2.80043
20
-2.2399
11
2.81677
21
-2.2116
0
LINE
8
BLACK
6
CONTINUOUS
10
2.81677
20
-2.2116
11
2.83382
21
-2.22145
0
LINE
8
BLACK
6
CONTINUOUS
10
3.44449
20
-2.52499
11
3.42815
21
-2.55329
0
LINE
8
BLACK
6
CONTINUOUS
10
3.42815
20
-2.55329
11
3.41687
21
-2.54678
0
LINE
8
BLACK
6
CONTINUOUS
10
3.41687
20
-2.54678
11
3.27533
21
-2.68832
0
LINE
8
BLACK
6
CONTINUOUS
10
3.27533
20
-2.68832
11
3.27463
21
-2.68885
0
LINE
8
BLACK
6
CONTINUOUS
10
3.27463
20
-2.68885
11
3.27451
21
-2.68898
0
LINE
8
BLACK
6
CONTINUOUS
10
3.27451
20
-2.68898
11
3.27441
21
-2.68901
0
LINE
8
BLACK
6
CONTINUOUS
10
3.27441
20
-2.68901
11
3.27421
21
-2.68916
0
LINE
8
BLACK
6
CONTINUOUS
10
3.27421
20
-2.68916
11
3.27302
21
-2.68942
0
LINE
8
BLACK
6
CONTINUOUS
10
3.27302
20
-2.68942
11
3.27185
21
-2.68976
0
LINE
8
BLACK
6
CONTINUOUS
10
3.27185
20
-2.68976
11
3.19705
21
-2.68976
0
LINE
8
BLACK
6
CONTINUOUS
10
3.19705
20
-2.68976
11
3.19705
21
-2.69961
0
LINE
8
BLACK
6
CONTINUOUS
10
3.19705
20
-2.69961
11
3.16437
21
-2.69961
0
LINE
8
BLACK
6
CONTINUOUS
10
3.16437
20
-2.69961
11
3.16437
21
-2.67008
0
LINE
8
BLACK
6
CONTINUOUS
10
3.16437
20
-2.67008
11
3.19705
21
-2.67008
0
LINE
8
BLACK
6
CONTINUOUS
10
3.19705
20
-2.67008
11
3.19705
21
-2.67992
0
LINE
8
BLACK
6
CONTINUOUS
10
3.19705
20
-2.67992
11
3.26981
21
-2.67992
0
LINE
8
BLACK
6
CONTINUOUS
10
3.26981
20
-2.67992
11
3.40805
21
-2.54168
0
LINE
8
BLACK
6
CONTINUOUS
10
3.40805
20
-2.54168
11
3.40258
21
-2.53853
0
LINE
8
BLACK
6
CONTINUOUS
10
3.40258
20
-2.53853
11
3.41892
21
-2.51023
0
LINE
8
BLACK
6
CONTINUOUS
10
3.41892
20
-2.51023
11
3.44449
21
-2.52499
0
LINE
8
BLACK
6
CONTINUOUS
10
3.46768
20
-2.53838
11
3.45134
21
-2.56668
0
LINE
8
BLACK
6
CONTINUOUS
10
3.45134
20
-2.56668
11
3.44433
21
-2.56263
0
LINE
8
BLACK
6
CONTINUOUS
10
3.44433
20
-2.56263
11
3.28694
21
-2.72002
0
LINE
8
BLACK
6
CONTINUOUS
10
3.28694
20
-2.72002
11
3.28624
21
-2.72054
0
LINE
8
BLACK
6
CONTINUOUS
10
3.28624
20
-2.72054
11
3.28613
21
-2.72068
0
LINE
8
BLACK
6
CONTINUOUS
10
3.28613
20
-2.72068
11
3.28602
21
-2.72071
0
LINE
8
BLACK
6
CONTINUOUS
10
3.28602
20
-2.72071
11
3.28582
21
-2.72085
0
LINE
8
BLACK
6
CONTINUOUS
10
3.28582
20
-2.72085
11
3.28463
21
-2.72111
0
LINE
8
BLACK
6
CONTINUOUS
10
3.28463
20
-2.72111
11
3.28346
21
-2.72146
0
LINE
8
BLACK
6
CONTINUOUS
10
3.28346
20
-2.72146
11
3.19705
21
-2.72146
0
LINE
8
BLACK
6
CONTINUOUS
10
3.19705
20
-2.72146
11
3.19705
21
-2.72638
0
LINE
8
BLACK
6
CONTINUOUS
10
3.19705
20
-2.72638
11
3.16437
21
-2.72638
0
LINE
8
BLACK
6
CONTINUOUS
10
3.16437
20
-2.72638
11
3.16437
21
-2.70669
0
LINE
8
BLACK
6
CONTINUOUS
10
3.16437
20
-2.70669
11
3.19705
21
-2.70669
0
LINE
8
BLACK
6
CONTINUOUS
10
3.19705
20
-2.70669
11
3.19705
21
-2.71161
0
LINE
8
BLACK
6
CONTINUOUS
10
3.19705
20
-2.71161
11
3.28143
21
-2.71161
0
LINE
8
BLACK
6
CONTINUOUS
10
3.28143
20
-2.71161
11
3.43551
21
-2.55753
0
LINE
8
BLACK
6
CONTINUOUS
10
3.43551
20
-2.55753
11
3.43429
21
-2.55683
0
LINE
8
BLACK
6
CONTINUOUS
10
3.43429
20
-2.55683
11
3.45063
21
-2.52853
0
LINE
8
BLACK
6
CONTINUOUS
10
3.45063
20
-2.52853
11
3.46768
21
-2.53838
0
LINE
8
BLACK
6
CONTINUOUS
10
3.49939
20
-2.55668
11
3.48305
21
-2.58498
0
LINE
8
BLACK
6
CONTINUOUS
10
3.48305
20
-2.58498
11
3.47088
21
-2.57796
0
LINE
8
BLACK
6
CONTINUOUS
10
3.47088
20
-2.57796
11
3.29713
21
-2.75171
0
LINE
8
BLACK
6
CONTINUOUS
10
3.29713
20
-2.75171
11
3.29643
21
-2.75223
0
LINE
8
BLACK
6
CONTINUOUS
10
3.29643
20
-2.75223
11
3.29631
21
-2.75237
0
LINE
8
BLACK
6
CONTINUOUS
10
3.29631
20
-2.75237
11
3.29621
21
-2.7524
0
LINE
8
BLACK
6
CONTINUOUS
10
3.29621
20
-2.7524
11
3.29601
21
-2.75255
0
LINE
8
BLACK
6
CONTINUOUS
10
3.29601
20
-2.75255
11
3.29482
21
-2.75281
0
LINE
8
BLACK
6
CONTINUOUS
10
3.29482
20
-2.75281
11
3.29365
21
-2.75315
0
LINE
8
BLACK
6
CONTINUOUS
10
3.29365
20
-2.75315
11
3.19705
21
-2.75315
0
LINE
8
BLACK
6
CONTINUOUS
10
3.19705
20
-2.75315
11
3.19705
21
-2.76299
0
LINE
8
BLACK
6
CONTINUOUS
10
3.19705
20
-2.76299
11
3.16437
21
-2.76299
0
LINE
8
BLACK
6
CONTINUOUS
10
3.16437
20
-2.76299
11
3.16437
21
-2.73346
0
LINE
8
BLACK
6
CONTINUOUS
10
3.16437
20
-2.73346
11
3.19705
21
-2.73346
0
LINE
8
BLACK
6
CONTINUOUS
10
3.19705
20
-2.73346
11
3.19705
21
-2.74331
0
LINE
8
BLACK
6
CONTINUOUS
10
3.19705
20
-2.74331
11
3.29162
21
-2.74331
0
LINE
8
BLACK
6
CONTINUOUS
10
3.29162
20
-2.74331
11
3.46206
21
-2.57286
0
LINE
8
BLACK
6
CONTINUOUS
10
3.46206
20
-2.57286
11
3.45748
21
-2.57022
0
LINE
8
BLACK
6
CONTINUOUS
10
3.45748
20
-2.57022
11
3.47381
21
-2.54192
0
LINE
8
BLACK
6
CONTINUOUS
10
3.47381
20
-2.54192
11
3.49939
21
-2.55668
0
LINE
8
BLACK
6
CONTINUOUS
10
2.86492
20
-2.55683
11
2.86121
21
-2.55898
0
LINE
8
BLACK
6
CONTINUOUS
10
2.86121
20
-2.55898
11
3.01385
21
-2.71161
0
LINE
8
BLACK
6
CONTINUOUS
10
3.01385
20
-2.71161
11
3.10217
21
-2.71161
0
LINE
8
BLACK
6
CONTINUOUS
10
3.10217
20
-2.71161
11
3.10217
21
-2.70669
0
LINE
8
BLACK
6
CONTINUOUS
10
3.10217
20
-2.70669
11
3.13484
21
-2.70669
0
LINE
8
BLACK
6
CONTINUOUS
10
3.13484
20
-2.70669
11
3.13484
21
-2.72638
0
LINE
8
BLACK
6
CONTINUOUS
10
3.13484
20
-2.72638
11
3.10217
21
-2.72638
0
LINE
8
BLACK
6
CONTINUOUS
10
3.10217
20
-2.72638
11
3.10217
21
-2.72146
0
LINE
8
BLACK
6
CONTINUOUS
10
3.10217
20
-2.72146
11
3.01181
21
-2.72146
0
LINE
8
BLACK
6
CONTINUOUS
10
3.01181
20
-2.72146
11
3.01094
21
-2.72133
0
LINE
8
BLACK
6
CONTINUOUS
10
3.01094
20
-2.72133
11
3.01076
21
-2.72134
0
LINE
8
BLACK
6
CONTINUOUS
10
3.01076
20
-2.72134
11
3.01067
21
-2.72129
0
LINE
8
BLACK
6
CONTINUOUS
10
3.01067
20
-2.72129
11
3.01042
21
-2.72126
0
LINE
8
BLACK
6
CONTINUOUS
10
3.01042
20
-2.72126
11
3.0094
21
-2.7206
0
LINE
8
BLACK
6
CONTINUOUS
10
3.0094
20
-2.7206
11
3.00833
21
-2.72002
0
LINE
8
BLACK
6
CONTINUOUS
10
3.00833
20
-2.72002
11
2.85239
21
-2.56407
0
LINE
8
BLACK
6
CONTINUOUS
10
2.85239
20
-2.56407
11
2.84787
21
-2.56668
0
LINE
8
BLACK
6
CONTINUOUS
10
2.84787
20
-2.56668
11
2.83154
21
-2.53838
0
LINE
8
BLACK
6
CONTINUOUS
10
2.83154
20
-2.53838
11
2.84858
21
-2.52853
0
LINE
8
BLACK
6
CONTINUOUS
10
2.84858
20
-2.52853
11
2.86492
21
-2.55683
0
LINE
8
BLACK
6
CONTINUOUS
10
2.89663
20
-2.53853
11
2.88867
21
-2.54312
0
LINE
8
BLACK
6
CONTINUOUS
10
2.88867
20
-2.54312
11
3.02546
21
-2.67992
0
LINE
8
BLACK
6
CONTINUOUS
10
3.02546
20
-2.67992
11
3.10217
21
-2.67992
0
LINE
8
BLACK
6
CONTINUOUS
10
3.10217
20
-2.67992
11
3.10217
21
-2.67008
0
LINE
8
BLACK
6
CONTINUOUS
10
3.10217
20
-2.67008
11
3.13484
21
-2.67008
0
LINE
8
BLACK
6
CONTINUOUS
10
3.13484
20
-2.67008
11
3.13484
21
-2.69961
0
LINE
8
BLACK
6
CONTINUOUS
10
3.13484
20
-2.69961
11
3.10217
21
-2.69961
0
LINE
8
BLACK
6
CONTINUOUS
10
3.10217
20
-2.69961
11
3.10217
21
-2.68976
0
LINE
8
BLACK
6
CONTINUOUS
10
3.10217
20
-2.68976
11
3.02343
21
-2.68976
0
LINE
8
BLACK
6
CONTINUOUS
10
3.02343
20
-2.68976
11
3.02256
21
-2.68964
0
LINE
8
BLACK
6
CONTINUOUS
10
3.02256
20
-2.68964
11
3.02238
21
-2.68965
0
LINE
8
BLACK
6
CONTINUOUS
10
3.02238
20
-2.68965
11
3.02228
21
-2.6896
0
LINE
8
BLACK
6
CONTINUOUS
10
3.02228
20
-2.6896
11
3.02204
21
-2.68956
0
LINE
8
BLACK
6
CONTINUOUS
10
3.02204
20
-2.68956
11
3.02101
21
-2.68891
0
LINE
8
BLACK
6
CONTINUOUS
10
3.02101
20
-2.68891
11
3.01995
21
-2.68832
0
LINE
8
BLACK
6
CONTINUOUS
10
3.01995
20
-2.68832
11
2.87984
21
-2.54822
0
LINE
8
BLACK
6
CONTINUOUS
10
2.87984
20
-2.54822
11
2.87106
21
-2.55329
0
LINE
8
BLACK
6
CONTINUOUS
10
2.87106
20
-2.55329
11
2.85472
21
-2.52499
0
LINE
8
BLACK
6
CONTINUOUS
10
2.85472
20
-2.52499
11
2.88029
21
-2.51023
0
LINE
8
BLACK
6
CONTINUOUS
10
2.88029
20
-2.51023
11
2.89663
21
-2.53853
0
LINE
8
BLACK
6
CONTINUOUS
10
2.86553
20
-2.23975
11
2.84919
21
-2.26805
0
LINE
8
BLACK
6
CONTINUOUS
10
2.84919
20
-2.26805
11
2.8435
21
-2.26477
0
LINE
8
BLACK
6
CONTINUOUS
10
2.8435
20
-2.26477
11
2.8435
21
-2.45964
0
LINE
8
BLACK
6
CONTINUOUS
10
2.8435
20
-2.45964
11
2.84919
21
-2.45636
0
LINE
8
BLACK
6
CONTINUOUS
10
2.84919
20
-2.45636
11
2.86553
21
-2.48466
0
LINE
8
BLACK
6
CONTINUOUS
10
2.86553
20
-2.48466
11
2.83996
21
-2.49942
0
LINE
8
BLACK
6
CONTINUOUS
10
2.83996
20
-2.49942
11
2.82362
21
-2.47112
0
LINE
8
BLACK
6
CONTINUOUS
10
2.82362
20
-2.47112
11
2.83366
21
-2.46532
0
LINE
8
BLACK
6
CONTINUOUS
10
2.83366
20
-2.46532
11
2.83366
21
-2.25909
0
LINE
8
BLACK
6
CONTINUOUS
10
2.83366
20
-2.25909
11
2.82362
21
-2.25329
0
LINE
8
BLACK
6
CONTINUOUS
10
2.82362
20
-2.25329
11
2.83996
21
-2.22499
0
LINE
8
BLACK
6
CONTINUOUS
10
2.83996
20
-2.22499
11
2.86553
21
-2.23975
0
LINE
8
BLACK
6
CONTINUOUS
10
3.61193
20
-2.3118
11
3.61373
21
-2.31388
0
LINE
8
BLACK
6
CONTINUOUS
10
3.61373
20
-2.31388
11
3.61417
21
-2.31591
0
LINE
8
BLACK
6
CONTINUOUS
10
3.61417
20
-2.31591
11
3.61417
21
-2.42126
0
LINE
8
BLACK
6
CONTINUOUS
10
3.61417
20
-2.42126
11
3.76689
21
-2.42126
0
LINE
8
BLACK
6
CONTINUOUS
10
3.76689
20
-2.42126
11
3.76953
21
-2.42203
0
LINE
8
BLACK
6
CONTINUOUS
10
3.76953
20
-2.42203
11
3.77133
21
-2.42411
0
LINE
8
BLACK
6
CONTINUOUS
10
3.77133
20
-2.42411
11
3.77177
21
-2.42602
0
LINE
8
BLACK
6
CONTINUOUS
10
3.77177
20
-2.42602
11
3.77545
21
-2.5771
0
LINE
8
BLACK
6
CONTINUOUS
10
3.77545
20
-2.5771
11
3.77547
21
-2.57768
0
LINE
8
BLACK
6
CONTINUOUS
10
3.77547
20
-2.57768
11
3.77476
21
-2.58033
0
LINE
8
BLACK
6
CONTINUOUS
10
3.77476
20
-2.58033
11
3.77272
21
-2.58219
0
LINE
8
BLACK
6
CONTINUOUS
10
3.77272
20
-2.58219
11
3.77059
21
-2.58268
0
LINE
8
BLACK
6
CONTINUOUS
10
3.77059
20
-2.58268
11
3.51559
21
-2.58268
0
LINE
8
BLACK
6
CONTINUOUS
10
3.51559
20
-2.58268
11
3.51295
21
-2.5819
0
LINE
8
BLACK
6
CONTINUOUS
10
3.51295
20
-2.5819
11
3.51115
21
-2.57982
0
LINE
8
BLACK
6
CONTINUOUS
10
3.51115
20
-2.57982
11
3.51076
21
-2.5771
0
LINE
8
BLACK
6
CONTINUOUS
10
3.51076
20
-2.5771
11
3.51136
21
-2.57535
0
LINE
8
BLACK
6
CONTINUOUS
10
3.51136
20
-2.57535
11
3.51293
21
-2.57264
0
LINE
8
BLACK
6
CONTINUOUS
10
3.51293
20
-2.57264
11
3.51739
21
-2.5649
0
LINE
8
BLACK
6
CONTINUOUS
10
3.51739
20
-2.5649
11
3.51835
21
-2.56274
0
LINE
8
BLACK
6
CONTINUOUS
10
3.51835
20
-2.56274
11
3.51929
21
-2.55716
0
LINE
8
BLACK
6
CONTINUOUS
10
3.51929
20
-2.55716
11
3.51894
21
-2.55429
0
LINE
8
BLACK
6
CONTINUOUS
10
3.51894
20
-2.55429
11
3.5194
21
-2.55157
0
LINE
8
BLACK
6
CONTINUOUS
10
3.5194
20
-2.55157
11
3.52125
21
-2.54954
0
LINE
8
BLACK
6
CONTINUOUS
10
3.52125
20
-2.54954
11
3.52187
21
-2.54922
0
LINE
8
BLACK
6
CONTINUOUS
10
3.52187
20
-2.54922
11
3.5245
21
-2.54809
0
LINE
8
BLACK
6
CONTINUOUS
10
3.5245
20
-2.54809
11
3.52887
21
-2.54449
0
LINE
8
BLACK
6
CONTINUOUS
10
3.52887
20
-2.54449
11
3.53018
21
-2.54269
0
LINE
8
BLACK
6
CONTINUOUS
10
3.53018
20
-2.54269
11
3.53032
21
-2.54247
0
LINE
8
BLACK
6
CONTINUOUS
10
3.53032
20
-2.54247
11
3.53445
21
-2.53533
0
LINE
8
BLACK
6
CONTINUOUS
10
3.53445
20
-2.53533
11
3.53445
21
-2.53533
0
LINE
8
BLACK
6
CONTINUOUS
10
3.53445
20
-2.53533
11
3.5174
21
-2.52549
0
LINE
8
BLACK
6
CONTINUOUS
10
3.5174
20
-2.52549
11
3.51415
21
-2.53111
0
LINE
8
BLACK
6
CONTINUOUS
10
3.51415
20
-2.53111
11
3.48858
21
-2.51635
0
LINE
8
BLACK
6
CONTINUOUS
10
3.48858
20
-2.51635
11
3.49183
21
-2.51072
0
LINE
8
BLACK
6
CONTINUOUS
10
3.49183
20
-2.51072
11
3.48569
21
-2.50718
0
LINE
8
BLACK
6
CONTINUOUS
10
3.48569
20
-2.50718
11
3.48244
21
-2.5128
0
LINE
8
BLACK
6
CONTINUOUS
10
3.48244
20
-2.5128
11
3.46539
21
-2.50296
0
LINE
8
BLACK
6
CONTINUOUS
10
3.46539
20
-2.50296
11
3.46864
21
-2.49734
0
LINE
8
BLACK
6
CONTINUOUS
10
3.46864
20
-2.49734
11
3.46845
21
-2.49723
0
LINE
8
BLACK
6
CONTINUOUS
10
3.46845
20
-2.49723
11
3.46845
21
-2.49723
0
LINE
8
BLACK
6
CONTINUOUS
10
3.46845
20
-2.49723
11
3.4625
21
-2.49379
0
LINE
8
BLACK
6
CONTINUOUS
10
3.4625
20
-2.49379
11
3.45926
21
-2.49942
0
LINE
8
BLACK
6
CONTINUOUS
10
3.45926
20
-2.49942
11
3.43368
21
-2.48466
0
LINE
8
BLACK
6
CONTINUOUS
10
3.43368
20
-2.48466
11
3.45002
21
-2.45636
0
LINE
8
BLACK
6
CONTINUOUS
10
3.45002
20
-2.45636
11
3.45669
21
-2.46021
0
LINE
8
BLACK
6
CONTINUOUS
10
3.45669
20
-2.46021
11
3.45669
21
-2.45465
0
LINE
8
BLACK
6
CONTINUOUS
10
3.45669
20
-2.45465
11
3.46413
21
-2.44177
0
LINE
8
BLACK
6
CONTINUOUS
10
3.46413
20
-2.44177
11
3.46413
21
-2.44177
0
LINE
8
BLACK
6
CONTINUOUS
10
3.46413
20
-2.44177
11
3.45913
21
-2.43889
0
LINE
8
BLACK
6
CONTINUOUS
10
3.45913
20
-2.43889
11
3.45724
21
-2.43689
0
LINE
8
BLACK
6
CONTINUOUS
10
3.45724
20
-2.43689
11
3.45669
21
-2.43466
0
LINE
8
BLACK
6
CONTINUOUS
10
3.45669
20
-2.43466
11
3.45669
21
-2.31591
0
LINE
8
BLACK
6
CONTINUOUS
10
3.45669
20
-2.31591
11
3.45747
21
-2.31327
0
LINE
8
BLACK
6
CONTINUOUS
10
3.45747
20
-2.31327
11
3.45955
21
-2.31146
0
LINE
8
BLACK
6
CONTINUOUS
10
3.45955
20
-2.31146
11
3.46157
21
-2.31102
0
LINE
8
BLACK
6
CONTINUOUS
10
3.46157
20
-2.31102
11
3.60929
21
-2.31102
0
LINE
8
BLACK
6
CONTINUOUS
10
3.60929
20
-2.31102
11
3.61193
21
-2.3118
0
LINE
8
BLACK
6
CONTINUOUS
10
3.47133
20
-2.46866
11
3.47559
21
-2.47112
0
LINE
8
BLACK
6
CONTINUOUS
10
3.47559
20
-2.47112
11
3.47235
21
-2.47675
0
LINE
8
BLACK
6
CONTINUOUS
10
3.47235
20
-2.47675
11
3.47848
21
-2.48029
0
LINE
8
BLACK
6
CONTINUOUS
10
3.47848
20
-2.48029
11
3.47848
21
-2.48029
0
LINE
8
BLACK
6
CONTINUOUS
10
3.47848
20
-2.48029
11
3.49157
21
-2.45762
0
LINE
8
BLACK
6
CONTINUOUS
10
3.49157
20
-2.45762
11
3.49157
21
-2.45762
0
LINE
8
BLACK
6
CONTINUOUS
10
3.49157
20
-2.45762
11
3.49006
21
-2.45674
0
LINE
8
BLACK
6
CONTINUOUS
10
3.49006
20
-2.45674
11
3.48982
21
-2.45662
0
LINE
8
BLACK
6
CONTINUOUS
10
3.48982
20
-2.45662
11
3.4889
21
-2.45621
0
LINE
8
BLACK
6
CONTINUOUS
10
3.4889
20
-2.45621
11
3.48799
21
-2.45569
0
LINE
8
BLACK
6
CONTINUOUS
10
3.48799
20
-2.45569
11
3.48717
21
-2.45509
0
LINE
8
BLACK
6
CONTINUOUS
10
3.48717
20
-2.45509
11
3.48695
21
-2.45495
0
LINE
8
BLACK
6
CONTINUOUS
10
3.48695
20
-2.45495
11
3.48118
21
-2.45161
0
LINE
8
BLACK
6
CONTINUOUS
10
3.48118
20
-2.45161
11
3.48118
21
-2.45161
0
LINE
8
BLACK
6
CONTINUOUS
10
3.48118
20
-2.45161
11
3.47133
21
-2.46866
0
LINE
8
BLACK
6
CONTINUOUS
10
3.49878
20
-2.48451
11
3.49878
21
-2.48451
0
LINE
8
BLACK
6
CONTINUOUS
10
3.49878
20
-2.48451
11
3.49553
21
-2.49013
0
LINE
8
BLACK
6
CONTINUOUS
10
3.49553
20
-2.49013
11
3.49572
21
-2.49024
0
LINE
8
BLACK
6
CONTINUOUS
10
3.49572
20
-2.49024
11
3.49572
21
-2.49024
0
LINE
8
BLACK
6
CONTINUOUS
10
3.49572
20
-2.49024
11
3.50167
21
-2.49367
0
LINE
8
BLACK
6
CONTINUOUS
10
3.50167
20
-2.49367
11
3.50492
21
-2.48805
0
LINE
8
BLACK
6
CONTINUOUS
10
3.50492
20
-2.48805
11
3.50918
21
-2.49051
0
LINE
8
BLACK
6
CONTINUOUS
10
3.50918
20
-2.49051
11
3.51902
21
-2.47346
0
LINE
8
BLACK
6
CONTINUOUS
10
3.51902
20
-2.47346
11
3.51902
21
-2.47346
0
LINE
8
BLACK
6
CONTINUOUS
10
3.51902
20
-2.47346
11
3.51324
21
-2.47012
0
LINE
8
BLACK
6
CONTINUOUS
10
3.51324
20
-2.47012
11
3.51301
21
-2.47001
0
LINE
8
BLACK
6
CONTINUOUS
10
3.51301
20
-2.47001
11
3.51208
21
-2.4696
0
LINE
8
BLACK
6
CONTINUOUS
10
3.51208
20
-2.4696
11
3.51118
21
-2.46907
0
LINE
8
BLACK
6
CONTINUOUS
10
3.51118
20
-2.46907
11
3.51036
21
-2.46848
0
LINE
8
BLACK
6
CONTINUOUS
10
3.51036
20
-2.46848
11
3.51014
21
-2.46833
0
LINE
8
BLACK
6
CONTINUOUS
10
3.51014
20
-2.46833
11
3.50862
21
-2.46746
0
LINE
8
BLACK
6
CONTINUOUS
10
3.50862
20
-2.46746
11
3.50862
21
-2.46746
0
LINE
8
BLACK
6
CONTINUOUS
10
3.50862
20
-2.46746
11
3.49878
21
-2.48451
0
LINE
8
BLACK
6
CONTINUOUS
10
3.52623
20
-2.50035
11
3.53049
21
-2.50281
0
LINE
8
BLACK
6
CONTINUOUS
10
3.53049
20
-2.50281
11
3.52724
21
-2.50844
0
LINE
8
BLACK
6
CONTINUOUS
10
3.52724
20
-2.50844
11
3.54429
21
-2.51828
0
LINE
8
BLACK
6
CONTINUOUS
10
3.54429
20
-2.51828
11
3.54429
21
-2.51828
0
LINE
8
BLACK
6
CONTINUOUS
10
3.54429
20
-2.51828
11
3.54841
21
-2.51114
0
LINE
8
BLACK
6
CONTINUOUS
10
3.54841
20
-2.51114
11
3.54853
21
-2.5109
0
LINE
8
BLACK
6
CONTINUOUS
10
3.54853
20
-2.5109
11
3.54943
21
-2.50887
0
LINE
8
BLACK
6
CONTINUOUS
10
3.54943
20
-2.50887
11
3.55037
21
-2.50329
0
LINE
8
BLACK
6
CONTINUOUS
10
3.55037
20
-2.50329
11
3.5497
21
-2.49767
0
LINE
8
BLACK
6
CONTINUOUS
10
3.5497
20
-2.49767
11
3.54747
21
-2.49246
0
LINE
8
BLACK
6
CONTINUOUS
10
3.54747
20
-2.49246
11
3.54387
21
-2.4881
0
LINE
8
BLACK
6
CONTINUOUS
10
3.54387
20
-2.4881
11
3.54207
21
-2.48678
0
LINE
8
BLACK
6
CONTINUOUS
10
3.54207
20
-2.48678
11
3.54185
21
-2.48664
0
LINE
8
BLACK
6
CONTINUOUS
10
3.54185
20
-2.48664
11
3.53607
21
-2.4833
0
LINE
8
BLACK
6
CONTINUOUS
10
3.53607
20
-2.4833
11
3.53607
21
-2.4833
0
LINE
8
BLACK
6
CONTINUOUS
10
3.53607
20
-2.4833
11
3.52623
21
-2.50035
0
LINE
8
BLACK
6
CONTINUOUS
10
3.64266
20
-2.17006
11
3.64705
21
-2.1723
0
LINE
8
BLACK
6
CONTINUOUS
10
3.64705
20
-2.1723
11
3.65054
21
-2.17578
0
LINE
8
BLACK
6
CONTINUOUS
10
3.65054
20
-2.17578
11
3.65277
21
-2.18017
0
LINE
8
BLACK
6
CONTINUOUS
10
3.65277
20
-2.18017
11
3.65354
21
-2.18504
0
LINE
8
BLACK
6
CONTINUOUS
10
3.65354
20
-2.18504
11
3.65277
21
-2.18991
0
LINE
8
BLACK
6
CONTINUOUS
10
3.65277
20
-2.18991
11
3.65054
21
-2.1943
0
LINE
8
BLACK
6
CONTINUOUS
10
3.65054
20
-2.1943
11
3.64705
21
-2.19778
0
LINE
8
BLACK
6
CONTINUOUS
10
3.64705
20
-2.19778
11
3.64266
21
-2.20002
0
LINE
8
BLACK
6
CONTINUOUS
10
3.64266
20
-2.20002
11
3.6378
21
-2.20079
0
LINE
8
BLACK
6
CONTINUOUS
10
3.6378
20
-2.20079
11
3.63293
21
-2.20002
0
LINE
8
BLACK
6
CONTINUOUS
10
3.63293
20
-2.20002
11
3.63084
21
-2.19895
0
LINE
8
BLACK
6
CONTINUOUS
10
3.63084
20
-2.19895
11
3.55072
21
-2.27907
0
LINE
8
BLACK
6
CONTINUOUS
10
3.55072
20
-2.27907
11
3.55002
21
-2.2796
0
LINE
8
BLACK
6
CONTINUOUS
10
3.55002
20
-2.2796
11
3.5499
21
-2.27973
0
LINE
8
BLACK
6
CONTINUOUS
10
3.5499
20
-2.27973
11
3.5498
21
-2.27976
0
LINE
8
BLACK
6
CONTINUOUS
10
3.5498
20
-2.27976
11
3.5496
21
-2.27991
0
LINE
8
BLACK
6
CONTINUOUS
10
3.5496
20
-2.27991
11
3.54841
21
-2.28017
0
LINE
8
BLACK
6
CONTINUOUS
10
3.54841
20
-2.28017
11
3.54724
21
-2.28051
0
LINE
8
BLACK
6
CONTINUOUS
10
3.54724
20
-2.28051
11
3.47638
21
-2.28051
0
LINE
8
BLACK
6
CONTINUOUS
10
3.47638
20
-2.28051
11
3.47551
21
-2.28039
0
LINE
8
BLACK
6
CONTINUOUS
10
3.47551
20
-2.28039
11
3.47533
21
-2.2804
0
LINE
8
BLACK
6
CONTINUOUS
10
3.47533
20
-2.2804
11
3.47524
21
-2.28035
0
LINE
8
BLACK
6
CONTINUOUS
10
3.47524
20
-2.28035
11
3.47499
21
-2.28031
0
LINE
8
BLACK
6
CONTINUOUS
10
3.47499
20
-2.28031
11
3.47397
21
-2.27965
0
LINE
8
BLACK
6
CONTINUOUS
10
3.47397
20
-2.27965
11
3.4729
21
-2.27907
0
LINE
8
BLACK
6
CONTINUOUS
10
3.4729
20
-2.27907
11
3.47093
21
-2.2771
0
LINE
8
BLACK
6
CONTINUOUS
10
3.47093
20
-2.2771
11
3.4704
21
-2.2764
0
LINE
8
BLACK
6
CONTINUOUS
10
3.4704
20
-2.2764
11
3.47027
21
-2.27628
0
LINE
8
BLACK
6
CONTINUOUS
10
3.47027
20
-2.27628
11
3.47024
21
-2.27618
0
LINE
8
BLACK
6
CONTINUOUS
10
3.47024
20
-2.27618
11
3.47009
21
-2.27598
0
LINE
8
BLACK
6
CONTINUOUS
10
3.47009
20
-2.27598
11
3.46983
21
-2.27479
0
LINE
8
BLACK
6
CONTINUOUS
10
3.46983
20
-2.27479
11
3.46949
21
-2.27362
0
LINE
8
BLACK
6
CONTINUOUS
10
3.46949
20
-2.27362
11
3.46949
21
-2.26833
0
LINE
8
BLACK
6
CONTINUOUS
10
3.46949
20
-2.26833
11
3.46219
21
-2.26103
0
LINE
8
BLACK
6
CONTINUOUS
10
3.46219
20
-2.26103
11
3.45002
21
-2.26805
0
LINE
8
BLACK
6
CONTINUOUS
10
3.45002
20
-2.26805
11
3.43368
21
-2.23975
0
LINE
8
BLACK
6
CONTINUOUS
10
3.43368
20
-2.23975
11
3.45926
21
-2.22499
0
LINE
8
BLACK
6
CONTINUOUS
10
3.45926
20
-2.22499
11
3.47559
21
-2.25329
0
LINE
8
BLACK
6
CONTINUOUS
10
3.47559
20
-2.25329
11
3.47101
21
-2.25594
0
LINE
8
BLACK
6
CONTINUOUS
10
3.47101
20
-2.25594
11
3.47789
21
-2.26281
0
LINE
8
BLACK
6
CONTINUOUS
10
3.47789
20
-2.26281
11
3.47842
21
-2.26352
0
LINE
8
BLACK
6
CONTINUOUS
10
3.47842
20
-2.26352
11
3.47855
21
-2.26363
0
LINE
8
BLACK
6
CONTINUOUS
10
3.47855
20
-2.26363
11
3.47858
21
-2.26373
0
LINE
8
BLACK
6
CONTINUOUS
10
3.47858
20
-2.26373
11
3.47873
21
-2.26393
0
LINE
8
BLACK
6
CONTINUOUS
10
3.47873
20
-2.26393
11
3.47899
21
-2.26512
0
LINE
8
BLACK
6
CONTINUOUS
10
3.47899
20
-2.26512
11
3.47933
21
-2.26629
0
LINE
8
BLACK
6
CONTINUOUS
10
3.47933
20
-2.26629
11
3.47933
21
-2.27067
0
LINE
8
BLACK
6
CONTINUOUS
10
3.47933
20
-2.27067
11
3.54521
21
-2.27067
0
LINE
8
BLACK
6
CONTINUOUS
10
3.54521
20
-2.27067
11
3.62388
21
-2.19199
0
LINE
8
BLACK
6
CONTINUOUS
10
3.62388
20
-2.19199
11
3.62282
21
-2.18991
0
LINE
8
BLACK
6
CONTINUOUS
10
3.62282
20
-2.18991
11
3.62205
21
-2.18504
0
LINE
8
BLACK
6
CONTINUOUS
10
3.62205
20
-2.18504
11
3.62282
21
-2.18017
0
LINE
8
BLACK
6
CONTINUOUS
10
3.62282
20
-2.18017
11
3.62505
21
-2.17578
0
LINE
8
BLACK
6
CONTINUOUS
10
3.62505
20
-2.17578
11
3.62854
21
-2.1723
0
LINE
8
BLACK
6
CONTINUOUS
10
3.62854
20
-2.1723
11
3.63293
21
-2.17006
0
LINE
8
BLACK
6
CONTINUOUS
10
3.63293
20
-2.17006
11
3.6378
21
-2.16929
0
LINE
8
BLACK
6
CONTINUOUS
10
3.6378
20
-2.16929
11
3.64266
21
-2.17006
0
LINE
8
BLACK
6
CONTINUOUS
10
3.13484
20
-2.01772
11
3.10217
21
-2.01772
0
LINE
8
BLACK
6
CONTINUOUS
10
3.10217
20
-2.01772
11
3.10217
21
-2.0128
0
LINE
8
BLACK
6
CONTINUOUS
10
3.10217
20
-2.0128
11
3.01825
21
-2.0128
0
LINE
8
BLACK
6
CONTINUOUS
10
3.01825
20
-2.0128
11
2.864
21
-2.16704
0
LINE
8
BLACK
6
CONTINUOUS
10
2.864
20
-2.16704
11
2.86492
21
-2.16758
0
LINE
8
BLACK
6
CONTINUOUS
10
2.86492
20
-2.16758
11
2.84858
21
-2.19588
0
LINE
8
BLACK
6
CONTINUOUS
10
2.84858
20
-2.19588
11
2.83154
21
-2.18603
0
LINE
8
BLACK
6
CONTINUOUS
10
2.83154
20
-2.18603
11
2.84787
21
-2.15773
0
LINE
8
BLACK
6
CONTINUOUS
10
2.84787
20
-2.15773
11
2.85517
21
-2.16195
0
LINE
8
BLACK
6
CONTINUOUS
10
2.85517
20
-2.16195
11
3.01273
21
-2.00439
0
LINE
8
BLACK
6
CONTINUOUS
10
3.01273
20
-2.00439
11
3.01343
21
-2.00387
0
LINE
8
BLACK
6
CONTINUOUS
10
3.01343
20
-2.00387
11
3.01355
21
-2.00373
0
LINE
8
BLACK
6
CONTINUOUS
10
3.01355
20
-2.00373
11
3.01365
21
-2.0037
0
LINE
8
BLACK
6
CONTINUOUS
10
3.01365
20
-2.0037
11
3.01385
21
-2.00355
0
LINE
8
BLACK
6
CONTINUOUS
10
3.01385
20
-2.00355
11
3.01504
21
-2.0033
0
LINE
8
BLACK
6
CONTINUOUS
10
3.01504
20
-2.0033
11
3.01621
21
-2.00295
0
LINE
8
BLACK
6
CONTINUOUS
10
3.01621
20
-2.00295
11
3.10217
21
-2.00295
0
LINE
8
BLACK
6
CONTINUOUS
10
3.10217
20
-2.00295
11
3.10217
21
-1.99803
0
LINE
8
BLACK
6
CONTINUOUS
10
3.10217
20
-1.99803
11
3.13484
21
-1.99803
0
LINE
8
BLACK
6
CONTINUOUS
10
3.13484
20
-1.99803
11
3.13484
21
-2.01772
0
LINE
8
BLACK
6
CONTINUOUS
10
3.13484
20
-2.05433
11
3.10217
21
-2.05433
0
LINE
8
BLACK
6
CONTINUOUS
10
3.10217
20
-2.05433
11
3.10217
21
-2.04449
0
LINE
8
BLACK
6
CONTINUOUS
10
3.10217
20
-2.04449
11
3.0308
21
-2.04449
0
LINE
8
BLACK
6
CONTINUOUS
10
3.0308
20
-2.04449
11
2.89205
21
-2.18324
0
LINE
8
BLACK
6
CONTINUOUS
10
2.89205
20
-2.18324
11
2.89663
21
-2.18588
0
LINE
8
BLACK
6
CONTINUOUS
10
2.89663
20
-2.18588
11
2.88029
21
-2.21418
0
LINE
8
BLACK
6
CONTINUOUS
10
2.88029
20
-2.21418
11
2.85472
21
-2.19942
0
LINE
8
BLACK
6
CONTINUOUS
10
2.85472
20
-2.19942
11
2.87106
21
-2.17112
0
LINE
8
BLACK
6
CONTINUOUS
10
2.87106
20
-2.17112
11
2.88322
21
-2.17814
0
LINE
8
BLACK
6
CONTINUOUS
10
2.88322
20
-2.17814
11
3.02528
21
-2.03609
0
LINE
8
BLACK
6
CONTINUOUS
10
3.02528
20
-2.03609
11
3.02598
21
-2.03556
0
LINE
8
BLACK
6
CONTINUOUS
10
3.02598
20
-2.03556
11
3.0261
21
-2.03543
0
LINE
8
BLACK
6
CONTINUOUS
10
3.0261
20
-2.03543
11
3.0262
21
-2.0354
0
LINE
8
BLACK
6
CONTINUOUS
10
3.0262
20
-2.0354
11
3.0264
21
-2.03525
0
LINE
8
BLACK
6
CONTINUOUS
10
3.0264
20
-2.03525
11
3.02759
21
-2.03499
0
LINE
8
BLACK
6
CONTINUOUS
10
3.02759
20
-2.03499
11
3.02876
21
-2.03465
0
LINE
8
BLACK
6
CONTINUOUS
10
3.02876
20
-2.03465
11
3.10217
21
-2.03465
0
LINE
8
BLACK
6
CONTINUOUS
10
3.10217
20
-2.03465
11
3.10217
21
-2.0248
0
LINE
8
BLACK
6
CONTINUOUS
10
3.10217
20
-2.0248
11
3.13484
21
-2.0248
0
LINE
8
BLACK
6
CONTINUOUS
10
3.13484
20
-2.0248
11
3.13484
21
-2.05433
0
LINE
8
BLACK
6
CONTINUOUS
10
3.19705
20
-2.03465
11
3.27045
21
-2.03465
0
LINE
8
BLACK
6
CONTINUOUS
10
3.27045
20
-2.03465
11
3.27132
21
-2.03477
0
LINE
8
BLACK
6
CONTINUOUS
10
3.27132
20
-2.03477
11
3.2715
21
-2.03476
0
LINE
8
BLACK
6
CONTINUOUS
10
3.2715
20
-2.03476
11
3.27159
21
-2.03481
0
LINE
8
BLACK
6
CONTINUOUS
10
3.27159
20
-2.03481
11
3.27184
21
-2.03484
0
LINE
8
BLACK
6
CONTINUOUS
10
3.27184
20
-2.03484
11
3.27286
21
-2.0355
0
LINE
8
BLACK
6
CONTINUOUS
10
3.27286
20
-2.0355
11
3.27393
21
-2.03609
0
LINE
8
BLACK
6
CONTINUOUS
10
3.27393
20
-2.03609
11
3.41599
21
-2.17814
0
LINE
8
BLACK
6
CONTINUOUS
10
3.41599
20
-2.17814
11
3.42815
21
-2.17112
0
LINE
8
BLACK
6
CONTINUOUS
10
3.42815
20
-2.17112
11
3.44449
21
-2.19942
0
LINE
8
BLACK
6
CONTINUOUS
10
3.44449
20
-2.19942
11
3.41892
21
-2.21418
0
LINE
8
BLACK
6
CONTINUOUS
10
3.41892
20
-2.21418
11
3.40258
21
-2.18588
0
LINE
8
BLACK
6
CONTINUOUS
10
3.40258
20
-2.18588
11
3.40716
21
-2.18324
0
LINE
8
BLACK
6
CONTINUOUS
10
3.40716
20
-2.18324
11
3.26841
21
-2.04449
0
LINE
8
BLACK
6
CONTINUOUS
10
3.26841
20
-2.04449
11
3.19705
21
-2.04449
0
LINE
8
BLACK
6
CONTINUOUS
10
3.19705
20
-2.04449
11
3.19705
21
-2.05433
0
LINE
8
BLACK
6
CONTINUOUS
10
3.19705
20
-2.05433
11
3.16437
21
-2.05433
0
LINE
8
BLACK
6
CONTINUOUS
10
3.16437
20
-2.05433
11
3.16437
21
-2.0248
0
LINE
8
BLACK
6
CONTINUOUS
10
3.16437
20
-2.0248
11
3.19705
21
-2.0248
0
LINE
8
BLACK
6
CONTINUOUS
10
3.19705
20
-2.0248
11
3.19705
21
-2.03465
0
LINE
8
BLACK
6
CONTINUOUS
10
3.19705
20
-2.00295
11
3.28346
21
-2.00295
0
LINE
8
BLACK
6
CONTINUOUS
10
3.28346
20
-2.00295
11
3.28433
21
-2.00308
0
LINE
8
BLACK
6
CONTINUOUS
10
3.28433
20
-2.00308
11
3.28451
21
-2.00307
0
LINE
8
BLACK
6
CONTINUOUS
10
3.28451
20
-2.00307
11
3.2846
21
-2.00312
0
LINE
8
BLACK
6
CONTINUOUS
10
3.2846
20
-2.00312
11
3.28485
21
-2.00315
0
LINE
8
BLACK
6
CONTINUOUS
10
3.28485
20
-2.00315
11
3.28588
21
-2.00381
0
LINE
8
BLACK
6
CONTINUOUS
10
3.28588
20
-2.00381
11
3.28694
21
-2.00439
0
LINE
8
BLACK
6
CONTINUOUS
10
3.28694
20
-2.00439
11
3.37356
21
-2.09101
0
LINE
8
BLACK
6
CONTINUOUS
10
3.37356
20
-2.09101
11
3.37409
21
-2.09171
0
LINE
8
BLACK
6
CONTINUOUS
10
3.37409
20
-2.09171
11
3.37422
21
-2.09183
0
LINE
8
BLACK
6
CONTINUOUS
10
3.37422
20
-2.09183
11
3.37425
21
-2.09193
0
LINE
8
BLACK
6
CONTINUOUS
10
3.37425
20
-2.09193
11
3.3744
21
-2.09213
0
LINE
8
BLACK
6
CONTINUOUS
10
3.3744
20
-2.09213
11
3.37445
21
-2.09236
0
LINE
8
BLACK
6
CONTINUOUS
10
3.37445
20
-2.09236
11
3.44404
21
-2.16195
0
LINE
8
BLACK
6
CONTINUOUS
10
3.44404
20
-2.16195
11
3.45134
21
-2.15773
0
LINE
8
BLACK
6
CONTINUOUS
10
3.45134
20
-2.15773
11
3.46768
21
-2.18603
0
LINE
8
BLACK
6
CONTINUOUS
10
3.46768
20
-2.18603
11
3.45063
21
-2.19588
0
LINE
8
BLACK
6
CONTINUOUS
10
3.45063
20
-2.19588
11
3.43429
21
-2.16758
0
LINE
8
BLACK
6
CONTINUOUS
10
3.43429
20
-2.16758
11
3.43521
21
-2.16704
0
LINE
8
BLACK
6
CONTINUOUS
10
3.43521
20
-2.16704
11
3.3666
21
-2.09843
0
LINE
8
BLACK
6
CONTINUOUS
10
3.3666
20
-2.09843
11
3.36607
21
-2.09773
0
LINE
8
BLACK
6
CONTINUOUS
10
3.36607
20
-2.09773
11
3.36594
21
-2.09761
0
LINE
8
BLACK
6
CONTINUOUS
10
3.36594
20
-2.09761
11
3.36591
21
-2.09751
0
LINE
8
BLACK
6
CONTINUOUS
10
3.36591
20
-2.09751
11
3.36576
21
-2.09731
0
LINE
8
BLACK
6
CONTINUOUS
10
3.36576
20
-2.09731
11
3.36571
21
-2.09708
0
LINE
8
BLACK
6
CONTINUOUS
10
3.36571
20
-2.09708
11
3.28143
21
-2.0128
0
LINE
8
BLACK
6
CONTINUOUS
10
3.28143
20
-2.0128
11
3.19705
21
-2.0128
0
LINE
8
BLACK
6
CONTINUOUS
10
3.19705
20
-2.0128
11
3.19705
21
-2.01772
0
LINE
8
BLACK
6
CONTINUOUS
10
3.19705
20
-2.01772
11
3.16437
21
-2.01772
0
LINE
8
BLACK
6
CONTINUOUS
10
3.16437
20
-2.01772
11
3.16437
21
-1.99803
0
LINE
8
BLACK
6
CONTINUOUS
10
3.16437
20
-1.99803
11
3.19705
21
-1.99803
0
LINE
8
BLACK
6
CONTINUOUS
10
3.19705
20
-1.99803
11
3.19705
21
-2.00295
0
CIRCLE
8
BLACK
10
3.52362
20
-2.41732
40
0.00787402
0
CIRCLE
8
BLACK
10
3.56299
20
-2.41732
40
0.00787402
0
CIRCLE
8
BLACK
10
3.56299
20
-2.45669
40
0.00787402
0
CIRCLE
8
BLACK
10
3.76378
20
-2.8622
40
0.00787402
0
CIRCLE
8
BLACK
10
3.83366
20
-2.18898
40
0.00787402
0
CIRCLE
8
BLACK
10
3.6378
20
-2.18504
40
0.00787402
0
CIRCLE
8
BLACK
10
3.5748
20
-2.10236
40
0.00787402
0
CIRCLE
8
BLACK
10
3.5748
20
-2.05512
40
0.00787402
  0
ENDSEC
  0
EOF
