  0
SECTION
  2
HEADER
  9
$ANGBASE
  50
0.0
  9
$ANGDIR
  70
1
  9
$MEASUREMENT
  70
0
  0
ENDSEC
  0
SECTION
  2
TABLES
  0
TABLE
  2
LTYPE
  70
4
  0
LTYPE
  5
40F
  2
CONTINUOUS
  70
0
  3
Solid line
  72
65
  73
0
  40
0.0
  0
LTYPE
  5
410
  2
DASHDOT
 70
0
  3
Dash Dot ____ _ ____ _
 72
65
 73
4
 40
2.0
 49
1.25
 49
-0.25
 49
0.25
 49
-0.25
  0
LTYPE
  5
411
  2
DASHED
 70
0
  3
Dashed __ __ __ __ __
 72
65
 73
2
 40
0.75
 49
0.5
 49
-0.25
  0
LTYPE
  5
43B
  2
DOTTED
 70
0
  3
Dotted .  .  .  .
 72
65
 73
2
 40
0.2
 49
0.0
 49
-0.2
  0
ENDTAB
  0
TABLE
  2
STYLE
  70
4
  0
STYLE
  2
KICAD
  70
0
  40
0
  41
1
  42
1
  50
0
  71
0
  3
isocp.shx
  0
STYLE
  2
KICADB
  70
0
  40
0
  41
1
  42
1
  50
0
  71
0
  3
isocp.shx
  0
STYLE
  2
KICADI
  70
0
  40
0
  41
1
  42
1
  50
15
  71
0
  3
isocp.shx
  0
STYLE
  2
KICADBI
  70
0
  40
0
  41
1
  42
1
  50
15
  71
0
  3
isocp.shx
  0
ENDTAB
  0
TABLE
  2
LAYER
  70
1
  0
LAYER
  2
BLACK
  70
0
  62
7
  6
CONTINUOUS
  0
ENDTAB
  0
ENDSEC
  0
SECTION
  2
ENTITIES
0
LINE
8
BLACK
6
CONTINUOUS
10
2.68886
20
-2.74585
11
2.70035
21
-2.74813
0
LINE
8
BLACK
6
CONTINUOUS
10
2.70035
20
-2.74813
11
2.71144
21
-2.7519
0
LINE
8
BLACK
6
CONTINUOUS
10
2.71144
20
-2.7519
11
2.72195
21
-2.75708
0
LINE
8
BLACK
6
CONTINUOUS
10
2.72195
20
-2.75708
11
2.73169
21
-2.76359
0
LINE
8
BLACK
6
CONTINUOUS
10
2.73169
20
-2.76359
11
2.7405
21
-2.77131
0
LINE
8
BLACK
6
CONTINUOUS
10
2.7405
20
-2.77131
11
2.74822
21
-2.78012
0
LINE
8
BLACK
6
CONTINUOUS
10
2.74822
20
-2.78012
11
2.75473
21
-2.78986
0
LINE
8
BLACK
6
CONTINUOUS
10
2.75473
20
-2.78986
11
2.75991
21
-2.80037
0
LINE
8
BLACK
6
CONTINUOUS
10
2.75991
20
-2.80037
11
2.76368
21
-2.81146
0
LINE
8
BLACK
6
CONTINUOUS
10
2.76368
20
-2.81146
11
2.76597
21
-2.82295
0
LINE
8
BLACK
6
CONTINUOUS
10
2.76597
20
-2.82295
11
2.76673
21
-2.83465
0
LINE
8
BLACK
6
CONTINUOUS
10
2.76673
20
-2.83465
11
2.76597
21
-2.84634
0
LINE
8
BLACK
6
CONTINUOUS
10
2.76597
20
-2.84634
11
2.76368
21
-2.85783
0
LINE
8
BLACK
6
CONTINUOUS
10
2.76368
20
-2.85783
11
2.75991
21
-2.86892
0
LINE
8
BLACK
6
CONTINUOUS
10
2.75991
20
-2.86892
11
2.75473
21
-2.87943
0
LINE
8
BLACK
6
CONTINUOUS
10
2.75473
20
-2.87943
11
2.74822
21
-2.88917
0
LINE
8
BLACK
6
CONTINUOUS
10
2.74822
20
-2.88917
11
2.7405
21
-2.89798
0
LINE
8
BLACK
6
CONTINUOUS
10
2.7405
20
-2.89798
11
2.73169
21
-2.9057
0
LINE
8
BLACK
6
CONTINUOUS
10
2.73169
20
-2.9057
11
2.72195
21
-2.91221
0
LINE
8
BLACK
6
CONTINUOUS
10
2.72195
20
-2.91221
11
2.71144
21
-2.91739
0
LINE
8
BLACK
6
CONTINUOUS
10
2.71144
20
-2.91739
11
2.70035
21
-2.92116
0
LINE
8
BLACK
6
CONTINUOUS
10
2.70035
20
-2.92116
11
2.68886
21
-2.92345
0
LINE
8
BLACK
6
CONTINUOUS
10
2.68886
20
-2.92345
11
2.67717
21
-2.92421
0
LINE
8
BLACK
6
CONTINUOUS
10
2.67717
20
-2.92421
11
2.66547
21
-2.92345
0
LINE
8
BLACK
6
CONTINUOUS
10
2.66547
20
-2.92345
11
2.65398
21
-2.92116
0
LINE
8
BLACK
6
CONTINUOUS
10
2.65398
20
-2.92116
11
2.64289
21
-2.91739
0
LINE
8
BLACK
6
CONTINUOUS
10
2.64289
20
-2.91739
11
2.63238
21
-2.91221
0
LINE
8
BLACK
6
CONTINUOUS
10
2.63238
20
-2.91221
11
2.62264
21
-2.9057
0
LINE
8
BLACK
6
CONTINUOUS
10
2.62264
20
-2.9057
11
2.61383
21
-2.89798
0
LINE
8
BLACK
6
CONTINUOUS
10
2.61383
20
-2.89798
11
2.60611
21
-2.88917
0
LINE
8
BLACK
6
CONTINUOUS
10
2.60611
20
-2.88917
11
2.5996
21
-2.87943
0
LINE
8
BLACK
6
CONTINUOUS
10
2.5996
20
-2.87943
11
2.59442
21
-2.86892
0
LINE
8
BLACK
6
CONTINUOUS
10
2.59442
20
-2.86892
11
2.59065
21
-2.85783
0
LINE
8
BLACK
6
CONTINUOUS
10
2.59065
20
-2.85783
11
2.58836
21
-2.84634
0
LINE
8
BLACK
6
CONTINUOUS
10
2.58836
20
-2.84634
11
2.5876
21
-2.83465
0
LINE
8
BLACK
6
CONTINUOUS
10
2.5876
20
-2.83465
11
2.58836
21
-2.82295
0
LINE
8
BLACK
6
CONTINUOUS
10
2.58836
20
-2.82295
11
2.59065
21
-2.81146
0
LINE
8
BLACK
6
CONTINUOUS
10
2.59065
20
-2.81146
11
2.59442
21
-2.80037
0
LINE
8
BLACK
6
CONTINUOUS
10
2.59442
20
-2.80037
11
2.5996
21
-2.78986
0
LINE
8
BLACK
6
CONTINUOUS
10
2.5996
20
-2.78986
11
2.60611
21
-2.78012
0
LINE
8
BLACK
6
CONTINUOUS
10
2.60611
20
-2.78012
11
2.61383
21
-2.77131
0
LINE
8
BLACK
6
CONTINUOUS
10
2.61383
20
-2.77131
11
2.62264
21
-2.76359
0
LINE
8
BLACK
6
CONTINUOUS
10
2.62264
20
-2.76359
11
2.63238
21
-2.75708
0
LINE
8
BLACK
6
CONTINUOUS
10
2.63238
20
-2.75708
11
2.64289
21
-2.7519
0
LINE
8
BLACK
6
CONTINUOUS
10
2.64289
20
-2.7519
11
2.65398
21
-2.74813
0
LINE
8
BLACK
6
CONTINUOUS
10
2.65398
20
-2.74813
11
2.66547
21
-2.74585
0
LINE
8
BLACK
6
CONTINUOUS
10
2.66547
20
-2.74585
11
2.67717
21
-2.74508
0
LINE
8
BLACK
6
CONTINUOUS
10
2.67717
20
-2.74508
11
2.68886
21
-2.74585
0
LINE
8
BLACK
6
CONTINUOUS
10
2.59409
20
-2.84606
11
2.59642
21
-2.85727
0
LINE
8
BLACK
6
CONTINUOUS
10
2.59642
20
-2.85727
11
2.60025
21
-2.86805
0
LINE
8
BLACK
6
CONTINUOUS
10
2.60025
20
-2.86805
11
2.60552
21
-2.87822
0
LINE
8
BLACK
6
CONTINUOUS
10
2.60552
20
-2.87822
11
2.61212
21
-2.88757
0
LINE
8
BLACK
6
CONTINUOUS
10
2.61212
20
-2.88757
11
2.61993
21
-2.89593
0
LINE
8
BLACK
6
CONTINUOUS
10
2.61993
20
-2.89593
11
2.62881
21
-2.90315
0
LINE
8
BLACK
6
CONTINUOUS
10
2.62881
20
-2.90315
11
2.63859
21
-2.9091
0
LINE
8
BLACK
6
CONTINUOUS
10
2.63859
20
-2.9091
11
2.64908
21
-2.91366
0
LINE
8
BLACK
6
CONTINUOUS
10
2.64908
20
-2.91366
11
2.6601
21
-2.91675
0
LINE
8
BLACK
6
CONTINUOUS
10
2.6601
20
-2.91675
11
2.67144
21
-2.91831
0
LINE
8
BLACK
6
CONTINUOUS
10
2.67144
20
-2.91831
11
2.68289
21
-2.91831
0
LINE
8
BLACK
6
CONTINUOUS
10
2.68289
20
-2.91831
11
2.69423
21
-2.91675
0
LINE
8
BLACK
6
CONTINUOUS
10
2.69423
20
-2.91675
11
2.70525
21
-2.91366
0
LINE
8
BLACK
6
CONTINUOUS
10
2.70525
20
-2.91366
11
2.71574
21
-2.9091
0
LINE
8
BLACK
6
CONTINUOUS
10
2.71574
20
-2.9091
11
2.72552
21
-2.90315
0
LINE
8
BLACK
6
CONTINUOUS
10
2.72552
20
-2.90315
11
2.7344
21
-2.89593
0
LINE
8
BLACK
6
CONTINUOUS
10
2.7344
20
-2.89593
11
2.74221
21
-2.88757
0
LINE
8
BLACK
6
CONTINUOUS
10
2.74221
20
-2.88757
11
2.74881
21
-2.87822
0
LINE
8
BLACK
6
CONTINUOUS
10
2.74881
20
-2.87822
11
2.75408
21
-2.86805
0
LINE
8
BLACK
6
CONTINUOUS
10
2.75408
20
-2.86805
11
2.75791
21
-2.85727
0
LINE
8
BLACK
6
CONTINUOUS
10
2.75791
20
-2.85727
11
2.76024
21
-2.84606
0
LINE
8
BLACK
6
CONTINUOUS
10
2.76024
20
-2.84606
11
2.76102
21
-2.83465
0
LINE
8
BLACK
6
CONTINUOUS
10
2.76102
20
-2.83465
11
2.76024
21
-2.82323
0
LINE
8
BLACK
6
CONTINUOUS
10
2.76024
20
-2.82323
11
2.75791
21
-2.81202
0
LINE
8
BLACK
6
CONTINUOUS
10
2.75791
20
-2.81202
11
2.75408
21
-2.80124
0
LINE
8
BLACK
6
CONTINUOUS
10
2.75408
20
-2.80124
11
2.74881
21
-2.79107
0
LINE
8
BLACK
6
CONTINUOUS
10
2.74881
20
-2.79107
11
2.74221
21
-2.78172
0
LINE
8
BLACK
6
CONTINUOUS
10
2.74221
20
-2.78172
11
2.7344
21
-2.77336
0
LINE
8
BLACK
6
CONTINUOUS
10
2.7344
20
-2.77336
11
2.72552
21
-2.76614
0
LINE
8
BLACK
6
CONTINUOUS
10
2.72552
20
-2.76614
11
2.71574
21
-2.76019
0
LINE
8
BLACK
6
CONTINUOUS
10
2.71574
20
-2.76019
11
2.70525
21
-2.75563
0
LINE
8
BLACK
6
CONTINUOUS
10
2.70525
20
-2.75563
11
2.69423
21
-2.75254
0
LINE
8
BLACK
6
CONTINUOUS
10
2.69423
20
-2.75254
11
2.68289
21
-2.75098
0
LINE
8
BLACK
6
CONTINUOUS
10
2.68289
20
-2.75098
11
2.67144
21
-2.75098
0
LINE
8
BLACK
6
CONTINUOUS
10
2.67144
20
-2.75098
11
2.6601
21
-2.75254
0
LINE
8
BLACK
6
CONTINUOUS
10
2.6601
20
-2.75254
11
2.64908
21
-2.75563
0
LINE
8
BLACK
6
CONTINUOUS
10
2.64908
20
-2.75563
11
2.63859
21
-2.76019
0
LINE
8
BLACK
6
CONTINUOUS
10
2.63859
20
-2.76019
11
2.62881
21
-2.76614
0
LINE
8
BLACK
6
CONTINUOUS
10
2.62881
20
-2.76614
11
2.61993
21
-2.77336
0
LINE
8
BLACK
6
CONTINUOUS
10
2.61993
20
-2.77336
11
2.61212
21
-2.78172
0
LINE
8
BLACK
6
CONTINUOUS
10
2.61212
20
-2.78172
11
2.60552
21
-2.79107
0
LINE
8
BLACK
6
CONTINUOUS
10
2.60552
20
-2.79107
11
2.60025
21
-2.80124
0
LINE
8
BLACK
6
CONTINUOUS
10
2.60025
20
-2.80124
11
2.59642
21
-2.81202
0
LINE
8
BLACK
6
CONTINUOUS
10
2.59642
20
-2.81202
11
2.59409
21
-2.82323
0
LINE
8
BLACK
6
CONTINUOUS
10
2.59409
20
-2.82323
11
2.59331
21
-2.83465
0
LINE
8
BLACK
6
CONTINUOUS
10
2.59331
20
-2.83465
11
2.59409
21
-2.84606
0
LINE
8
BLACK
6
CONTINUOUS
10
2.68886
20
-1.80096
11
2.70035
21
-1.80325
0
LINE
8
BLACK
6
CONTINUOUS
10
2.70035
20
-1.80325
11
2.71144
21
-1.80701
0
LINE
8
BLACK
6
CONTINUOUS
10
2.71144
20
-1.80701
11
2.72195
21
-1.8122
0
LINE
8
BLACK
6
CONTINUOUS
10
2.72195
20
-1.8122
11
2.73169
21
-1.81871
0
LINE
8
BLACK
6
CONTINUOUS
10
2.73169
20
-1.81871
11
2.7405
21
-1.82643
0
LINE
8
BLACK
6
CONTINUOUS
10
2.7405
20
-1.82643
11
2.74822
21
-1.83524
0
LINE
8
BLACK
6
CONTINUOUS
10
2.74822
20
-1.83524
11
2.75473
21
-1.84498
0
LINE
8
BLACK
6
CONTINUOUS
10
2.75473
20
-1.84498
11
2.75991
21
-1.85549
0
LINE
8
BLACK
6
CONTINUOUS
10
2.75991
20
-1.85549
11
2.76368
21
-1.86658
0
LINE
8
BLACK
6
CONTINUOUS
10
2.76368
20
-1.86658
11
2.76597
21
-1.87807
0
LINE
8
BLACK
6
CONTINUOUS
10
2.76597
20
-1.87807
11
2.76673
21
-1.88976
0
LINE
8
BLACK
6
CONTINUOUS
10
2.76673
20
-1.88976
11
2.76597
21
-1.90145
0
LINE
8
BLACK
6
CONTINUOUS
10
2.76597
20
-1.90145
11
2.76368
21
-1.91295
0
LINE
8
BLACK
6
CONTINUOUS
10
2.76368
20
-1.91295
11
2.75991
21
-1.92404
0
LINE
8
BLACK
6
CONTINUOUS
10
2.75991
20
-1.92404
11
2.75473
21
-1.93455
0
LINE
8
BLACK
6
CONTINUOUS
10
2.75473
20
-1.93455
11
2.74822
21
-1.94429
0
LINE
8
BLACK
6
CONTINUOUS
10
2.74822
20
-1.94429
11
2.7405
21
-1.9531
0
LINE
8
BLACK
6
CONTINUOUS
10
2.7405
20
-1.9531
11
2.73169
21
-1.96082
0
LINE
8
BLACK
6
CONTINUOUS
10
2.73169
20
-1.96082
11
2.72195
21
-1.96733
0
LINE
8
BLACK
6
CONTINUOUS
10
2.72195
20
-1.96733
11
2.71144
21
-1.97251
0
LINE
8
BLACK
6
CONTINUOUS
10
2.71144
20
-1.97251
11
2.70035
21
-1.97628
0
LINE
8
BLACK
6
CONTINUOUS
10
2.70035
20
-1.97628
11
2.68886
21
-1.97856
0
LINE
8
BLACK
6
CONTINUOUS
10
2.68886
20
-1.97856
11
2.67717
21
-1.97933
0
LINE
8
BLACK
6
CONTINUOUS
10
2.67717
20
-1.97933
11
2.66547
21
-1.97856
0
LINE
8
BLACK
6
CONTINUOUS
10
2.66547
20
-1.97856
11
2.65398
21
-1.97628
0
LINE
8
BLACK
6
CONTINUOUS
10
2.65398
20
-1.97628
11
2.64289
21
-1.97251
0
LINE
8
BLACK
6
CONTINUOUS
10
2.64289
20
-1.97251
11
2.63238
21
-1.96733
0
LINE
8
BLACK
6
CONTINUOUS
10
2.63238
20
-1.96733
11
2.62264
21
-1.96082
0
LINE
8
BLACK
6
CONTINUOUS
10
2.62264
20
-1.96082
11
2.61383
21
-1.9531
0
LINE
8
BLACK
6
CONTINUOUS
10
2.61383
20
-1.9531
11
2.60611
21
-1.94429
0
LINE
8
BLACK
6
CONTINUOUS
10
2.60611
20
-1.94429
11
2.5996
21
-1.93455
0
LINE
8
BLACK
6
CONTINUOUS
10
2.5996
20
-1.93455
11
2.59442
21
-1.92404
0
LINE
8
BLACK
6
CONTINUOUS
10
2.59442
20
-1.92404
11
2.59065
21
-1.91295
0
LINE
8
BLACK
6
CONTINUOUS
10
2.59065
20
-1.91295
11
2.58836
21
-1.90145
0
LINE
8
BLACK
6
CONTINUOUS
10
2.58836
20
-1.90145
11
2.5876
21
-1.88976
0
LINE
8
BLACK
6
CONTINUOUS
10
2.5876
20
-1.88976
11
2.58836
21
-1.87807
0
LINE
8
BLACK
6
CONTINUOUS
10
2.58836
20
-1.87807
11
2.59065
21
-1.86658
0
LINE
8
BLACK
6
CONTINUOUS
10
2.59065
20
-1.86658
11
2.59442
21
-1.85549
0
LINE
8
BLACK
6
CONTINUOUS
10
2.59442
20
-1.85549
11
2.5996
21
-1.84498
0
LINE
8
BLACK
6
CONTINUOUS
10
2.5996
20
-1.84498
11
2.60611
21
-1.83524
0
LINE
8
BLACK
6
CONTINUOUS
10
2.60611
20
-1.83524
11
2.61383
21
-1.82643
0
LINE
8
BLACK
6
CONTINUOUS
10
2.61383
20
-1.82643
11
2.62264
21
-1.81871
0
LINE
8
BLACK
6
CONTINUOUS
10
2.62264
20
-1.81871
11
2.63238
21
-1.8122
0
LINE
8
BLACK
6
CONTINUOUS
10
2.63238
20
-1.8122
11
2.64289
21
-1.80701
0
LINE
8
BLACK
6
CONTINUOUS
10
2.64289
20
-1.80701
11
2.65398
21
-1.80325
0
LINE
8
BLACK
6
CONTINUOUS
10
2.65398
20
-1.80325
11
2.66547
21
-1.80096
0
LINE
8
BLACK
6
CONTINUOUS
10
2.66547
20
-1.80096
11
2.67717
21
-1.8002
0
LINE
8
BLACK
6
CONTINUOUS
10
2.67717
20
-1.8002
11
2.68886
21
-1.80096
0
LINE
8
BLACK
6
CONTINUOUS
10
2.59409
20
-1.90118
11
2.59642
21
-1.91239
0
LINE
8
BLACK
6
CONTINUOUS
10
2.59642
20
-1.91239
11
2.60025
21
-1.92317
0
LINE
8
BLACK
6
CONTINUOUS
10
2.60025
20
-1.92317
11
2.60552
21
-1.93333
0
LINE
8
BLACK
6
CONTINUOUS
10
2.60552
20
-1.93333
11
2.61212
21
-1.94268
0
LINE
8
BLACK
6
CONTINUOUS
10
2.61212
20
-1.94268
11
2.61993
21
-1.95105
0
LINE
8
BLACK
6
CONTINUOUS
10
2.61993
20
-1.95105
11
2.62881
21
-1.95827
0
LINE
8
BLACK
6
CONTINUOUS
10
2.62881
20
-1.95827
11
2.63859
21
-1.96422
0
LINE
8
BLACK
6
CONTINUOUS
10
2.63859
20
-1.96422
11
2.64908
21
-1.96878
0
LINE
8
BLACK
6
CONTINUOUS
10
2.64908
20
-1.96878
11
2.6601
21
-1.97187
0
LINE
8
BLACK
6
CONTINUOUS
10
2.6601
20
-1.97187
11
2.67144
21
-1.97343
0
LINE
8
BLACK
6
CONTINUOUS
10
2.67144
20
-1.97343
11
2.68289
21
-1.97343
0
LINE
8
BLACK
6
CONTINUOUS
10
2.68289
20
-1.97343
11
2.69423
21
-1.97187
0
LINE
8
BLACK
6
CONTINUOUS
10
2.69423
20
-1.97187
11
2.70525
21
-1.96878
0
LINE
8
BLACK
6
CONTINUOUS
10
2.70525
20
-1.96878
11
2.71574
21
-1.96422
0
LINE
8
BLACK
6
CONTINUOUS
10
2.71574
20
-1.96422
11
2.72552
21
-1.95827
0
LINE
8
BLACK
6
CONTINUOUS
10
2.72552
20
-1.95827
11
2.7344
21
-1.95105
0
LINE
8
BLACK
6
CONTINUOUS
10
2.7344
20
-1.95105
11
2.74221
21
-1.94268
0
LINE
8
BLACK
6
CONTINUOUS
10
2.74221
20
-1.94268
11
2.74881
21
-1.93333
0
LINE
8
BLACK
6
CONTINUOUS
10
2.74881
20
-1.93333
11
2.75408
21
-1.92317
0
LINE
8
BLACK
6
CONTINUOUS
10
2.75408
20
-1.92317
11
2.75791
21
-1.91239
0
LINE
8
BLACK
6
CONTINUOUS
10
2.75791
20
-1.91239
11
2.76024
21
-1.90118
0
LINE
8
BLACK
6
CONTINUOUS
10
2.76024
20
-1.90118
11
2.76102
21
-1.88976
0
LINE
8
BLACK
6
CONTINUOUS
10
2.76102
20
-1.88976
11
2.76024
21
-1.87835
0
LINE
8
BLACK
6
CONTINUOUS
10
2.76024
20
-1.87835
11
2.75791
21
-1.86714
0
LINE
8
BLACK
6
CONTINUOUS
10
2.75791
20
-1.86714
11
2.75408
21
-1.85636
0
LINE
8
BLACK
6
CONTINUOUS
10
2.75408
20
-1.85636
11
2.74881
21
-1.84619
0
LINE
8
BLACK
6
CONTINUOUS
10
2.74881
20
-1.84619
11
2.74221
21
-1.83684
0
LINE
8
BLACK
6
CONTINUOUS
10
2.74221
20
-1.83684
11
2.7344
21
-1.82848
0
LINE
8
BLACK
6
CONTINUOUS
10
2.7344
20
-1.82848
11
2.72552
21
-1.82126
0
LINE
8
BLACK
6
CONTINUOUS
10
2.72552
20
-1.82126
11
2.71574
21
-1.81531
0
LINE
8
BLACK
6
CONTINUOUS
10
2.71574
20
-1.81531
11
2.70525
21
-1.81075
0
LINE
8
BLACK
6
CONTINUOUS
10
2.70525
20
-1.81075
11
2.69423
21
-1.80766
0
LINE
8
BLACK
6
CONTINUOUS
10
2.69423
20
-1.80766
11
2.68289
21
-1.8061
0
LINE
8
BLACK
6
CONTINUOUS
10
2.68289
20
-1.8061
11
2.67144
21
-1.8061
0
LINE
8
BLACK
6
CONTINUOUS
10
2.67144
20
-1.8061
11
2.6601
21
-1.80766
0
LINE
8
BLACK
6
CONTINUOUS
10
2.6601
20
-1.80766
11
2.64908
21
-1.81075
0
LINE
8
BLACK
6
CONTINUOUS
10
2.64908
20
-1.81075
11
2.63859
21
-1.81531
0
LINE
8
BLACK
6
CONTINUOUS
10
2.63859
20
-1.81531
11
2.62881
21
-1.82126
0
LINE
8
BLACK
6
CONTINUOUS
10
2.62881
20
-1.82126
11
2.61993
21
-1.82848
0
LINE
8
BLACK
6
CONTINUOUS
10
2.61993
20
-1.82848
11
2.61212
21
-1.83684
0
LINE
8
BLACK
6
CONTINUOUS
10
2.61212
20
-1.83684
11
2.60552
21
-1.84619
0
LINE
8
BLACK
6
CONTINUOUS
10
2.60552
20
-1.84619
11
2.60025
21
-1.85636
0
LINE
8
BLACK
6
CONTINUOUS
10
2.60025
20
-1.85636
11
2.59642
21
-1.86714
0
LINE
8
BLACK
6
CONTINUOUS
10
2.59642
20
-1.86714
11
2.59409
21
-1.87835
0
LINE
8
BLACK
6
CONTINUOUS
10
2.59409
20
-1.87835
11
2.59331
21
-1.88976
0
LINE
8
BLACK
6
CONTINUOUS
10
2.59331
20
-1.88976
11
2.59409
21
-1.90118
0
LINE
8
BLACK
6
CONTINUOUS
10
3.63374
20
-1.80096
11
3.64523
21
-1.80325
0
LINE
8
BLACK
6
CONTINUOUS
10
3.64523
20
-1.80325
11
3.65632
21
-1.80701
0
LINE
8
BLACK
6
CONTINUOUS
10
3.65632
20
-1.80701
11
3.66683
21
-1.8122
0
LINE
8
BLACK
6
CONTINUOUS
10
3.66683
20
-1.8122
11
3.67657
21
-1.81871
0
LINE
8
BLACK
6
CONTINUOUS
10
3.67657
20
-1.81871
11
3.68538
21
-1.82643
0
LINE
8
BLACK
6
CONTINUOUS
10
3.68538
20
-1.82643
11
3.69311
21
-1.83524
0
LINE
8
BLACK
6
CONTINUOUS
10
3.69311
20
-1.83524
11
3.69961
21
-1.84498
0
LINE
8
BLACK
6
CONTINUOUS
10
3.69961
20
-1.84498
11
3.7048
21
-1.85549
0
LINE
8
BLACK
6
CONTINUOUS
10
3.7048
20
-1.85549
11
3.70856
21
-1.86658
0
LINE
8
BLACK
6
CONTINUOUS
10
3.70856
20
-1.86658
11
3.71085
21
-1.87807
0
LINE
8
BLACK
6
CONTINUOUS
10
3.71085
20
-1.87807
11
3.71161
21
-1.88976
0
LINE
8
BLACK
6
CONTINUOUS
10
3.71161
20
-1.88976
11
3.71085
21
-1.90145
0
LINE
8
BLACK
6
CONTINUOUS
10
3.71085
20
-1.90145
11
3.70856
21
-1.91295
0
LINE
8
BLACK
6
CONTINUOUS
10
3.70856
20
-1.91295
11
3.7048
21
-1.92404
0
LINE
8
BLACK
6
CONTINUOUS
10
3.7048
20
-1.92404
11
3.69961
21
-1.93455
0
LINE
8
BLACK
6
CONTINUOUS
10
3.69961
20
-1.93455
11
3.69311
21
-1.94429
0
LINE
8
BLACK
6
CONTINUOUS
10
3.69311
20
-1.94429
11
3.68538
21
-1.9531
0
LINE
8
BLACK
6
CONTINUOUS
10
3.68538
20
-1.9531
11
3.67657
21
-1.96082
0
LINE
8
BLACK
6
CONTINUOUS
10
3.67657
20
-1.96082
11
3.66683
21
-1.96733
0
LINE
8
BLACK
6
CONTINUOUS
10
3.66683
20
-1.96733
11
3.65632
21
-1.97251
0
LINE
8
BLACK
6
CONTINUOUS
10
3.65632
20
-1.97251
11
3.64523
21
-1.97628
0
LINE
8
BLACK
6
CONTINUOUS
10
3.64523
20
-1.97628
11
3.63374
21
-1.97856
0
LINE
8
BLACK
6
CONTINUOUS
10
3.63374
20
-1.97856
11
3.62205
21
-1.97933
0
LINE
8
BLACK
6
CONTINUOUS
10
3.62205
20
-1.97933
11
3.61036
21
-1.97856
0
LINE
8
BLACK
6
CONTINUOUS
10
3.61036
20
-1.97856
11
3.59887
21
-1.97628
0
LINE
8
BLACK
6
CONTINUOUS
10
3.59887
20
-1.97628
11
3.58777
21
-1.97251
0
LINE
8
BLACK
6
CONTINUOUS
10
3.58777
20
-1.97251
11
3.57726
21
-1.96733
0
LINE
8
BLACK
6
CONTINUOUS
10
3.57726
20
-1.96733
11
3.56752
21
-1.96082
0
LINE
8
BLACK
6
CONTINUOUS
10
3.56752
20
-1.96082
11
3.55871
21
-1.9531
0
LINE
8
BLACK
6
CONTINUOUS
10
3.55871
20
-1.9531
11
3.55099
21
-1.94429
0
LINE
8
BLACK
6
CONTINUOUS
10
3.55099
20
-1.94429
11
3.54448
21
-1.93455
0
LINE
8
BLACK
6
CONTINUOUS
10
3.54448
20
-1.93455
11
3.5393
21
-1.92404
0
LINE
8
BLACK
6
CONTINUOUS
10
3.5393
20
-1.92404
11
3.53553
21
-1.91295
0
LINE
8
BLACK
6
CONTINUOUS
10
3.53553
20
-1.91295
11
3.53325
21
-1.90145
0
LINE
8
BLACK
6
CONTINUOUS
10
3.53325
20
-1.90145
11
3.53248
21
-1.88976
0
LINE
8
BLACK
6
CONTINUOUS
10
3.53248
20
-1.88976
11
3.53325
21
-1.87807
0
LINE
8
BLACK
6
CONTINUOUS
10
3.53325
20
-1.87807
11
3.53553
21
-1.86658
0
LINE
8
BLACK
6
CONTINUOUS
10
3.53553
20
-1.86658
11
3.5393
21
-1.85549
0
LINE
8
BLACK
6
CONTINUOUS
10
3.5393
20
-1.85549
11
3.54448
21
-1.84498
0
LINE
8
BLACK
6
CONTINUOUS
10
3.54448
20
-1.84498
11
3.55099
21
-1.83524
0
LINE
8
BLACK
6
CONTINUOUS
10
3.55099
20
-1.83524
11
3.55871
21
-1.82643
0
LINE
8
BLACK
6
CONTINUOUS
10
3.55871
20
-1.82643
11
3.56752
21
-1.81871
0
LINE
8
BLACK
6
CONTINUOUS
10
3.56752
20
-1.81871
11
3.57726
21
-1.8122
0
LINE
8
BLACK
6
CONTINUOUS
10
3.57726
20
-1.8122
11
3.58777
21
-1.80701
0
LINE
8
BLACK
6
CONTINUOUS
10
3.58777
20
-1.80701
11
3.59887
21
-1.80325
0
LINE
8
BLACK
6
CONTINUOUS
10
3.59887
20
-1.80325
11
3.61036
21
-1.80096
0
LINE
8
BLACK
6
CONTINUOUS
10
3.61036
20
-1.80096
11
3.62205
21
-1.8002
0
LINE
8
BLACK
6
CONTINUOUS
10
3.62205
20
-1.8002
11
3.63374
21
-1.80096
0
LINE
8
BLACK
6
CONTINUOUS
10
3.53897
20
-1.90118
11
3.5413
21
-1.91239
0
LINE
8
BLACK
6
CONTINUOUS
10
3.5413
20
-1.91239
11
3.54513
21
-1.92317
0
LINE
8
BLACK
6
CONTINUOUS
10
3.54513
20
-1.92317
11
3.5504
21
-1.93333
0
LINE
8
BLACK
6
CONTINUOUS
10
3.5504
20
-1.93333
11
3.557
21
-1.94268
0
LINE
8
BLACK
6
CONTINUOUS
10
3.557
20
-1.94268
11
3.56481
21
-1.95105
0
LINE
8
BLACK
6
CONTINUOUS
10
3.56481
20
-1.95105
11
3.57369
21
-1.95827
0
LINE
8
BLACK
6
CONTINUOUS
10
3.57369
20
-1.95827
11
3.58347
21
-1.96422
0
LINE
8
BLACK
6
CONTINUOUS
10
3.58347
20
-1.96422
11
3.59397
21
-1.96878
0
LINE
8
BLACK
6
CONTINUOUS
10
3.59397
20
-1.96878
11
3.60499
21
-1.97187
0
LINE
8
BLACK
6
CONTINUOUS
10
3.60499
20
-1.97187
11
3.61632
21
-1.97343
0
LINE
8
BLACK
6
CONTINUOUS
10
3.61632
20
-1.97343
11
3.62777
21
-1.97343
0
LINE
8
BLACK
6
CONTINUOUS
10
3.62777
20
-1.97343
11
3.63911
21
-1.97187
0
LINE
8
BLACK
6
CONTINUOUS
10
3.63911
20
-1.97187
11
3.65013
21
-1.96878
0
LINE
8
BLACK
6
CONTINUOUS
10
3.65013
20
-1.96878
11
3.66063
21
-1.96422
0
LINE
8
BLACK
6
CONTINUOUS
10
3.66063
20
-1.96422
11
3.67041
21
-1.95827
0
LINE
8
BLACK
6
CONTINUOUS
10
3.67041
20
-1.95827
11
3.67928
21
-1.95105
0
LINE
8
BLACK
6
CONTINUOUS
10
3.67928
20
-1.95105
11
3.6871
21
-1.94268
0
LINE
8
BLACK
6
CONTINUOUS
10
3.6871
20
-1.94268
11
3.6937
21
-1.93333
0
LINE
8
BLACK
6
CONTINUOUS
10
3.6937
20
-1.93333
11
3.69896
21
-1.92317
0
LINE
8
BLACK
6
CONTINUOUS
10
3.69896
20
-1.92317
11
3.70279
21
-1.91239
0
LINE
8
BLACK
6
CONTINUOUS
10
3.70279
20
-1.91239
11
3.70512
21
-1.90118
0
LINE
8
BLACK
6
CONTINUOUS
10
3.70512
20
-1.90118
11
3.7059
21
-1.88976
0
LINE
8
BLACK
6
CONTINUOUS
10
3.7059
20
-1.88976
11
3.70512
21
-1.87835
0
LINE
8
BLACK
6
CONTINUOUS
10
3.70512
20
-1.87835
11
3.70279
21
-1.86714
0
LINE
8
BLACK
6
CONTINUOUS
10
3.70279
20
-1.86714
11
3.69896
21
-1.85636
0
LINE
8
BLACK
6
CONTINUOUS
10
3.69896
20
-1.85636
11
3.6937
21
-1.84619
0
LINE
8
BLACK
6
CONTINUOUS
10
3.6937
20
-1.84619
11
3.6871
21
-1.83684
0
LINE
8
BLACK
6
CONTINUOUS
10
3.6871
20
-1.83684
11
3.67928
21
-1.82848
0
LINE
8
BLACK
6
CONTINUOUS
10
3.67928
20
-1.82848
11
3.67041
21
-1.82126
0
LINE
8
BLACK
6
CONTINUOUS
10
3.67041
20
-1.82126
11
3.66063
21
-1.81531
0
LINE
8
BLACK
6
CONTINUOUS
10
3.66063
20
-1.81531
11
3.65013
21
-1.81075
0
LINE
8
BLACK
6
CONTINUOUS
10
3.65013
20
-1.81075
11
3.63911
21
-1.80766
0
LINE
8
BLACK
6
CONTINUOUS
10
3.63911
20
-1.80766
11
3.62777
21
-1.8061
0
LINE
8
BLACK
6
CONTINUOUS
10
3.62777
20
-1.8061
11
3.61632
21
-1.8061
0
LINE
8
BLACK
6
CONTINUOUS
10
3.61632
20
-1.8061
11
3.60499
21
-1.80766
0
LINE
8
BLACK
6
CONTINUOUS
10
3.60499
20
-1.80766
11
3.59397
21
-1.81075
0
LINE
8
BLACK
6
CONTINUOUS
10
3.59397
20
-1.81075
11
3.58347
21
-1.81531
0
LINE
8
BLACK
6
CONTINUOUS
10
3.58347
20
-1.81531
11
3.57369
21
-1.82126
0
LINE
8
BLACK
6
CONTINUOUS
10
3.57369
20
-1.82126
11
3.56481
21
-1.82848
0
LINE
8
BLACK
6
CONTINUOUS
10
3.56481
20
-1.82848
11
3.557
21
-1.83684
0
LINE
8
BLACK
6
CONTINUOUS
10
3.557
20
-1.83684
11
3.5504
21
-1.84619
0
LINE
8
BLACK
6
CONTINUOUS
10
3.5504
20
-1.84619
11
3.54513
21
-1.85636
0
LINE
8
BLACK
6
CONTINUOUS
10
3.54513
20
-1.85636
11
3.5413
21
-1.86714
0
LINE
8
BLACK
6
CONTINUOUS
10
3.5413
20
-1.86714
11
3.53897
21
-1.87835
0
LINE
8
BLACK
6
CONTINUOUS
10
3.53897
20
-1.87835
11
3.53819
21
-1.88976
0
LINE
8
BLACK
6
CONTINUOUS
10
3.53819
20
-1.88976
11
3.53897
21
-1.90118
  0
ENDSEC
  0
EOF
