  0
SECTION
  2
HEADER
  9
$ANGBASE
  50
0.0
  9
$ANGDIR
  70
1
  9
$MEASUREMENT
  70
0
  0
ENDSEC
  0
SECTION
  2
TABLES
  0
TABLE
  2
LTYPE
  70
4
  0
LTYPE
  5
40F
  2
CONTINUOUS
  70
0
  3
Solid line
  72
65
  73
0
  40
0.0
  0
LTYPE
  5
410
  2
DASHDOT
 70
0
  3
Dash Dot ____ _ ____ _
 72
65
 73
4
 40
2.0
 49
1.25
 49
-0.25
 49
0.25
 49
-0.25
  0
LTYPE
  5
411
  2
DASHED
 70
0
  3
Dashed __ __ __ __ __
 72
65
 73
2
 40
0.75
 49
0.5
 49
-0.25
  0
LTYPE
  5
43B
  2
DOTTED
 70
0
  3
Dotted .  .  .  .
 72
65
 73
2
 40
0.2
 49
0.0
 49
-0.2
  0
ENDTAB
  0
TABLE
  2
STYLE
  70
4
  0
STYLE
  2
KICAD
  70
0
  40
0
  41
1
  42
1
  50
0
  71
0
  3
isocp.shx
  0
STYLE
  2
KICADB
  70
0
  40
0
  41
1
  42
1
  50
0
  71
0
  3
isocp.shx
  0
STYLE
  2
KICADI
  70
0
  40
0
  41
1
  42
1
  50
15
  71
0
  3
isocp.shx
  0
STYLE
  2
KICADBI
  70
0
  40
0
  41
1
  42
1
  50
15
  71
0
  3
isocp.shx
  0
ENDTAB
  0
TABLE
  2
LAYER
  70
1
  0
LAYER
  2
BLACK
  70
0
  62
7
  6
CONTINUOUS
  0
ENDTAB
  0
ENDSEC
  0
SECTION
  2
ENTITIES
0
LINE
8
BLACK
6
CONTINUOUS
10
3.97206
20
-2.82225
11
3.97394
21
-2.82412
0
LINE
8
BLACK
6
CONTINUOUS
10
3.97394
20
-2.82412
11
3.97444
21
-2.82484
0
LINE
8
BLACK
6
CONTINUOUS
10
3.97444
20
-2.82484
11
3.97449
21
-2.82489
0
LINE
8
BLACK
6
CONTINUOUS
10
3.97449
20
-2.82489
11
3.97637
21
-2.82864
0
LINE
8
BLACK
6
CONTINUOUS
10
3.97637
20
-2.82864
11
3.97666
21
-2.82962
0
LINE
8
BLACK
6
CONTINUOUS
10
3.97666
20
-2.82962
11
3.97662
21
-2.82979
0
LINE
8
BLACK
6
CONTINUOUS
10
3.97662
20
-2.82979
11
3.97668
21
-2.82996
0
LINE
8
BLACK
6
CONTINUOUS
10
3.97668
20
-2.82996
11
3.97668
21
-2.84121
0
LINE
8
BLACK
6
CONTINUOUS
10
3.97668
20
-2.84121
11
3.9765
21
-2.84222
0
LINE
8
BLACK
6
CONTINUOUS
10
3.9765
20
-2.84222
11
3.97639
21
-2.84235
0
LINE
8
BLACK
6
CONTINUOUS
10
3.97639
20
-2.84235
11
3.97637
21
-2.84253
0
LINE
8
BLACK
6
CONTINUOUS
10
3.97637
20
-2.84253
11
3.97449
21
-2.84628
0
LINE
8
BLACK
6
CONTINUOUS
10
3.97449
20
-2.84628
11
3.97397
21
-2.84699
0
LINE
8
BLACK
6
CONTINUOUS
10
3.97397
20
-2.84699
11
3.97394
21
-2.84704
0
LINE
8
BLACK
6
CONTINUOUS
10
3.97394
20
-2.84704
11
3.97206
21
-2.84892
0
LINE
8
BLACK
6
CONTINUOUS
10
3.97206
20
-2.84892
11
3.97134
21
-2.84943
0
LINE
8
BLACK
6
CONTINUOUS
10
3.97134
20
-2.84943
11
3.9713
21
-2.84947
0
LINE
8
BLACK
6
CONTINUOUS
10
3.9713
20
-2.84947
11
3.96755
21
-2.85135
0
LINE
8
BLACK
6
CONTINUOUS
10
3.96755
20
-2.85135
11
3.96656
21
-2.85164
0
LINE
8
BLACK
6
CONTINUOUS
10
3.96656
20
-2.85164
11
3.96639
21
-2.8516
0
LINE
8
BLACK
6
CONTINUOUS
10
3.96639
20
-2.8516
11
3.96623
21
-2.85166
0
LINE
8
BLACK
6
CONTINUOUS
10
3.96623
20
-2.85166
11
3.95685
21
-2.85166
0
LINE
8
BLACK
6
CONTINUOUS
10
3.95685
20
-2.85166
11
3.95584
21
-2.85148
0
LINE
8
BLACK
6
CONTINUOUS
10
3.95584
20
-2.85148
11
3.95571
21
-2.85137
0
LINE
8
BLACK
6
CONTINUOUS
10
3.95571
20
-2.85137
11
3.95553
21
-2.85135
0
LINE
8
BLACK
6
CONTINUOUS
10
3.95553
20
-2.85135
11
3.95178
21
-2.84947
0
LINE
8
BLACK
6
CONTINUOUS
10
3.95178
20
-2.84947
11
3.95107
21
-2.84895
0
LINE
8
BLACK
6
CONTINUOUS
10
3.95107
20
-2.84895
11
3.95101
21
-2.84892
0
LINE
8
BLACK
6
CONTINUOUS
10
3.95101
20
-2.84892
11
3.94914
21
-2.84704
0
LINE
8
BLACK
6
CONTINUOUS
10
3.94914
20
-2.84704
11
3.94863
21
-2.84632
0
LINE
8
BLACK
6
CONTINUOUS
10
3.94863
20
-2.84632
11
3.94859
21
-2.84628
0
LINE
8
BLACK
6
CONTINUOUS
10
3.94859
20
-2.84628
11
3.94671
21
-2.84253
0
LINE
8
BLACK
6
CONTINUOUS
10
3.94671
20
-2.84253
11
3.94654
21
-2.84196
0
LINE
8
BLACK
6
CONTINUOUS
10
3.94654
20
-2.84196
11
3.9363
21
-2.85093
0
LINE
8
BLACK
6
CONTINUOUS
10
3.9363
20
-2.85093
11
3.93592
21
-2.85116
0
LINE
8
BLACK
6
CONTINUOUS
10
3.93592
20
-2.85116
11
3.93583
21
-2.85126
0
LINE
8
BLACK
6
CONTINUOUS
10
3.93583
20
-2.85126
11
3.93571
21
-2.85128
0
LINE
8
BLACK
6
CONTINUOUS
10
3.93571
20
-2.85128
11
3.93542
21
-2.85146
0
LINE
8
BLACK
6
CONTINUOUS
10
3.93542
20
-2.85146
11
3.93463
21
-2.85148
0
LINE
8
BLACK
6
CONTINUOUS
10
3.93463
20
-2.85148
11
3.93384
21
-2.85161
0
LINE
8
BLACK
6
CONTINUOUS
10
3.93384
20
-2.85161
11
3.93364
21
-2.8515
0
LINE
8
BLACK
6
CONTINUOUS
10
3.93364
20
-2.8515
11
3.9334
21
-2.8515
0
LINE
8
BLACK
6
CONTINUOUS
10
3.9334
20
-2.8515
11
3.93278
21
-2.851
0
LINE
8
BLACK
6
CONTINUOUS
10
3.93278
20
-2.851
11
3.93209
21
-2.8506
0
LINE
8
BLACK
6
CONTINUOUS
10
3.93209
20
-2.8506
11
3.93201
21
-2.85038
0
LINE
8
BLACK
6
CONTINUOUS
10
3.93201
20
-2.85038
11
3.93183
21
-2.85024
0
LINE
8
BLACK
6
CONTINUOUS
10
3.93183
20
-2.85024
11
3.93167
21
-2.84945
0
LINE
8
BLACK
6
CONTINUOUS
10
3.93167
20
-2.84945
11
3.9314
21
-2.84871
0
LINE
8
BLACK
6
CONTINUOUS
10
3.9314
20
-2.84871
11
3.9314
21
-2.82433
0
LINE
8
BLACK
6
CONTINUOUS
10
3.9314
20
-2.82433
11
3.93158
21
-2.82332
0
LINE
8
BLACK
6
CONTINUOUS
10
3.93158
20
-2.82332
11
3.93288
21
-2.82178
0
LINE
8
BLACK
6
CONTINUOUS
10
3.93288
20
-2.82178
11
3.93487
21
-2.82143
0
LINE
8
BLACK
6
CONTINUOUS
10
3.93487
20
-2.82143
11
3.93662
21
-2.82244
0
LINE
8
BLACK
6
CONTINUOUS
10
3.93662
20
-2.82244
11
3.93731
21
-2.82433
0
LINE
8
BLACK
6
CONTINUOUS
10
3.93731
20
-2.82433
11
3.93731
21
-2.8422
0
LINE
8
BLACK
6
CONTINUOUS
10
3.93731
20
-2.8422
11
3.94741
21
-2.83336
0
LINE
8
BLACK
6
CONTINUOUS
10
3.94741
20
-2.83336
11
3.94779
21
-2.83313
0
LINE
8
BLACK
6
CONTINUOUS
10
3.94779
20
-2.83313
11
3.94788
21
-2.83303
0
LINE
8
BLACK
6
CONTINUOUS
10
3.94788
20
-2.83303
11
3.948
21
-2.833
0
LINE
8
BLACK
6
CONTINUOUS
10
3.948
20
-2.833
11
3.94829
21
-2.83283
0
LINE
8
BLACK
6
CONTINUOUS
10
3.94829
20
-2.83283
11
3.94908
21
-2.83281
0
LINE
8
BLACK
6
CONTINUOUS
10
3.94908
20
-2.83281
11
3.94987
21
-2.83268
0
LINE
8
BLACK
6
CONTINUOUS
10
3.94987
20
-2.83268
11
3.95007
21
-2.83279
0
LINE
8
BLACK
6
CONTINUOUS
10
3.95007
20
-2.83279
11
3.95031
21
-2.83279
0
LINE
8
BLACK
6
CONTINUOUS
10
3.95031
20
-2.83279
11
3.95093
21
-2.83329
0
LINE
8
BLACK
6
CONTINUOUS
10
3.95093
20
-2.83329
11
3.95162
21
-2.83369
0
LINE
8
BLACK
6
CONTINUOUS
10
3.95162
20
-2.83369
11
3.9517
21
-2.83391
0
LINE
8
BLACK
6
CONTINUOUS
10
3.9517
20
-2.83391
11
3.95188
21
-2.83405
0
LINE
8
BLACK
6
CONTINUOUS
10
3.95188
20
-2.83405
11
3.95203
21
-2.83484
0
LINE
8
BLACK
6
CONTINUOUS
10
3.95203
20
-2.83484
11
3.95231
21
-2.83558
0
LINE
8
BLACK
6
CONTINUOUS
10
3.95231
20
-2.83558
11
3.95231
21
-2.84051
0
LINE
8
BLACK
6
CONTINUOUS
10
3.95231
20
-2.84051
11
3.95365
21
-2.84321
0
LINE
8
BLACK
6
CONTINUOUS
10
3.95365
20
-2.84321
11
3.95485
21
-2.8444
0
LINE
8
BLACK
6
CONTINUOUS
10
3.95485
20
-2.8444
11
3.95755
21
-2.84575
0
LINE
8
BLACK
6
CONTINUOUS
10
3.95755
20
-2.84575
11
3.96553
21
-2.84575
0
LINE
8
BLACK
6
CONTINUOUS
10
3.96553
20
-2.84575
11
3.96823
21
-2.8444
0
LINE
8
BLACK
6
CONTINUOUS
10
3.96823
20
-2.8444
11
3.96942
21
-2.84321
0
LINE
8
BLACK
6
CONTINUOUS
10
3.96942
20
-2.84321
11
3.97077
21
-2.84051
0
LINE
8
BLACK
6
CONTINUOUS
10
3.97077
20
-2.84051
11
3.97077
21
-2.83066
0
LINE
8
BLACK
6
CONTINUOUS
10
3.97077
20
-2.83066
11
3.96942
21
-2.82796
0
LINE
8
BLACK
6
CONTINUOUS
10
3.96942
20
-2.82796
11
3.96789
21
-2.82642
0
LINE
8
BLACK
6
CONTINUOUS
10
3.96789
20
-2.82642
11
3.9673
21
-2.82558
0
LINE
8
BLACK
6
CONTINUOUS
10
3.9673
20
-2.82558
11
3.96712
21
-2.82357
0
LINE
8
BLACK
6
CONTINUOUS
10
3.96712
20
-2.82357
11
3.96828
21
-2.82192
0
LINE
8
BLACK
6
CONTINUOUS
10
3.96828
20
-2.82192
11
3.97023
21
-2.82139
0
LINE
8
BLACK
6
CONTINUOUS
10
3.97023
20
-2.82139
11
3.97206
21
-2.82225
0
LINE
8
BLACK
6
CONTINUOUS
10
3.74944
20
-2.65319
11
3.74961
21
-2.65317
0
LINE
8
BLACK
6
CONTINUOUS
10
3.74961
20
-2.65317
11
3.7503
21
-2.65368
0
LINE
8
BLACK
6
CONTINUOUS
10
3.7503
20
-2.65368
11
3.75104
21
-2.65411
0
LINE
8
BLACK
6
CONTINUOUS
10
3.75104
20
-2.65411
11
3.7511
21
-2.65427
0
LINE
8
BLACK
6
CONTINUOUS
10
3.7511
20
-2.65427
11
3.75124
21
-2.65437
0
LINE
8
BLACK
6
CONTINUOUS
10
3.75124
20
-2.65437
11
3.75483
21
-2.65975
0
LINE
8
BLACK
6
CONTINUOUS
10
3.75483
20
-2.65975
11
3.75803
21
-2.66296
0
LINE
8
BLACK
6
CONTINUOUS
10
3.75803
20
-2.66296
11
3.76135
21
-2.66462
0
LINE
8
BLACK
6
CONTINUOUS
10
3.76135
20
-2.66462
11
3.76217
21
-2.66523
0
LINE
8
BLACK
6
CONTINUOUS
10
3.76217
20
-2.66523
11
3.76298
21
-2.66708
0
LINE
8
BLACK
6
CONTINUOUS
10
3.76298
20
-2.66708
11
3.7624
21
-2.66902
0
LINE
8
BLACK
6
CONTINUOUS
10
3.7624
20
-2.66902
11
3.76072
21
-2.67013
0
LINE
8
BLACK
6
CONTINUOUS
10
3.76072
20
-2.67013
11
3.75871
21
-2.6699
0
LINE
8
BLACK
6
CONTINUOUS
10
3.75871
20
-2.6699
11
3.75496
21
-2.66802
0
LINE
8
BLACK
6
CONTINUOUS
10
3.75496
20
-2.66802
11
3.75425
21
-2.6675
0
LINE
8
BLACK
6
CONTINUOUS
10
3.75425
20
-2.6675
11
3.75419
21
-2.66747
0
LINE
8
BLACK
6
CONTINUOUS
10
3.75419
20
-2.66747
11
3.75173
21
-2.66501
0
LINE
8
BLACK
6
CONTINUOUS
10
3.75173
20
-2.66501
11
3.75173
21
-2.69243
0
LINE
8
BLACK
6
CONTINUOUS
10
3.75173
20
-2.69243
11
3.76003
21
-2.69243
0
LINE
8
BLACK
6
CONTINUOUS
10
3.76003
20
-2.69243
11
3.76104
21
-2.6926
0
LINE
8
BLACK
6
CONTINUOUS
10
3.76104
20
-2.6926
11
3.76259
21
-2.6939
0
LINE
8
BLACK
6
CONTINUOUS
10
3.76259
20
-2.6939
11
3.76294
21
-2.69589
0
LINE
8
BLACK
6
CONTINUOUS
10
3.76294
20
-2.69589
11
3.76193
21
-2.69764
0
LINE
8
BLACK
6
CONTINUOUS
10
3.76193
20
-2.69764
11
3.76003
21
-2.69833
0
LINE
8
BLACK
6
CONTINUOUS
10
3.76003
20
-2.69833
11
3.73753
21
-2.69833
0
LINE
8
BLACK
6
CONTINUOUS
10
3.73753
20
-2.69833
11
3.73652
21
-2.69815
0
LINE
8
BLACK
6
CONTINUOUS
10
3.73652
20
-2.69815
11
3.73498
21
-2.69686
0
LINE
8
BLACK
6
CONTINUOUS
10
3.73498
20
-2.69686
11
3.73462
21
-2.69487
0
LINE
8
BLACK
6
CONTINUOUS
10
3.73462
20
-2.69487
11
3.73563
21
-2.69312
0
LINE
8
BLACK
6
CONTINUOUS
10
3.73563
20
-2.69312
11
3.73753
21
-2.69243
0
LINE
8
BLACK
6
CONTINUOUS
10
3.73753
20
-2.69243
11
3.74583
21
-2.69243
0
LINE
8
BLACK
6
CONTINUOUS
10
3.74583
20
-2.69243
11
3.74583
21
-2.65601
0
LINE
8
BLACK
6
CONTINUOUS
10
3.74583
20
-2.65601
11
3.74601
21
-2.655
0
LINE
8
BLACK
6
CONTINUOUS
10
3.74601
20
-2.655
11
3.74612
21
-2.65487
0
LINE
8
BLACK
6
CONTINUOUS
10
3.74612
20
-2.65487
11
3.74613
21
-2.6547
0
LINE
8
BLACK
6
CONTINUOUS
10
3.74613
20
-2.6547
11
3.74675
21
-2.65411
0
LINE
8
BLACK
6
CONTINUOUS
10
3.74675
20
-2.65411
11
3.7473
21
-2.65345
0
LINE
8
BLACK
6
CONTINUOUS
10
3.7473
20
-2.65345
11
3.74747
21
-2.65342
0
LINE
8
BLACK
6
CONTINUOUS
10
3.74747
20
-2.65342
11
3.7476
21
-2.6533
0
LINE
8
BLACK
6
CONTINUOUS
10
3.7476
20
-2.6533
11
3.74845
21
-2.65325
0
LINE
8
BLACK
6
CONTINUOUS
10
3.74845
20
-2.65325
11
3.74929
21
-2.6531
0
LINE
8
BLACK
6
CONTINUOUS
10
3.74929
20
-2.6531
11
3.74944
21
-2.65319
0
LINE
8
BLACK
6
CONTINUOUS
10
3.77916
20
-2.65411
11
3.77986
21
-2.65601
0
LINE
8
BLACK
6
CONTINUOUS
10
3.77986
20
-2.65601
11
3.77986
21
-2.68365
0
LINE
8
BLACK
6
CONTINUOUS
10
3.77986
20
-2.68365
11
3.78136
21
-2.68816
0
LINE
8
BLACK
6
CONTINUOUS
10
3.78136
20
-2.68816
11
3.78412
21
-2.69092
0
LINE
8
BLACK
6
CONTINUOUS
10
3.78412
20
-2.69092
11
3.78863
21
-2.69243
0
LINE
8
BLACK
6
CONTINUOUS
10
3.78863
20
-2.69243
11
3.7919
21
-2.69243
0
LINE
8
BLACK
6
CONTINUOUS
10
3.7919
20
-2.69243
11
3.79291
21
-2.6926
0
LINE
8
BLACK
6
CONTINUOUS
10
3.79291
20
-2.6926
11
3.79446
21
-2.6939
0
LINE
8
BLACK
6
CONTINUOUS
10
3.79446
20
-2.6939
11
3.79481
21
-2.69589
0
LINE
8
BLACK
6
CONTINUOUS
10
3.79481
20
-2.69589
11
3.7938
21
-2.69764
0
LINE
8
BLACK
6
CONTINUOUS
10
3.7938
20
-2.69764
11
3.7919
21
-2.69833
0
LINE
8
BLACK
6
CONTINUOUS
10
3.7919
20
-2.69833
11
3.78815
21
-2.69833
0
LINE
8
BLACK
6
CONTINUOUS
10
3.78815
20
-2.69833
11
3.78728
21
-2.69818
0
LINE
8
BLACK
6
CONTINUOUS
10
3.78728
20
-2.69818
11
3.78722
21
-2.69818
0
LINE
8
BLACK
6
CONTINUOUS
10
3.78722
20
-2.69818
11
3.78159
21
-2.69631
0
LINE
8
BLACK
6
CONTINUOUS
10
3.78159
20
-2.69631
11
3.78069
21
-2.69582
0
LINE
8
BLACK
6
CONTINUOUS
10
3.78069
20
-2.69582
11
3.7806
21
-2.69567
0
LINE
8
BLACK
6
CONTINUOUS
10
3.7806
20
-2.69567
11
3.78044
21
-2.69559
0
LINE
8
BLACK
6
CONTINUOUS
10
3.78044
20
-2.69559
11
3.77669
21
-2.69184
0
LINE
8
BLACK
6
CONTINUOUS
10
3.77669
20
-2.69184
11
3.7761
21
-2.691
0
LINE
8
BLACK
6
CONTINUOUS
10
3.7761
20
-2.691
11
3.77609
21
-2.69083
0
LINE
8
BLACK
6
CONTINUOUS
10
3.77609
20
-2.69083
11
3.77598
21
-2.69069
0
LINE
8
BLACK
6
CONTINUOUS
10
3.77598
20
-2.69069
11
3.7741
21
-2.68506
0
LINE
8
BLACK
6
CONTINUOUS
10
3.7741
20
-2.68506
11
3.77397
21
-2.68419
0
LINE
8
BLACK
6
CONTINUOUS
10
3.77397
20
-2.68419
11
3.77395
21
-2.68413
0
LINE
8
BLACK
6
CONTINUOUS
10
3.77395
20
-2.68413
11
3.77395
21
-2.65601
0
LINE
8
BLACK
6
CONTINUOUS
10
3.77395
20
-2.65601
11
3.77413
21
-2.655
0
LINE
8
BLACK
6
CONTINUOUS
10
3.77413
20
-2.655
11
3.77543
21
-2.65345
0
LINE
8
BLACK
6
CONTINUOUS
10
3.77543
20
-2.65345
11
3.77742
21
-2.6531
0
LINE
8
BLACK
6
CONTINUOUS
10
3.77742
20
-2.6531
11
3.77916
21
-2.65411
0
LINE
8
BLACK
6
CONTINUOUS
10
3.67638
20
-2.53346
11
3.67777
21
-2.53404
0
LINE
8
BLACK
6
CONTINUOUS
10
3.67777
20
-2.53404
11
3.67835
21
-2.53543
0
LINE
8
BLACK
6
CONTINUOUS
10
3.67835
20
-2.53543
11
3.67835
21
-2.5752
0
LINE
8
BLACK
6
CONTINUOUS
10
3.67835
20
-2.5752
11
3.74921
21
-2.5752
0
LINE
8
BLACK
6
CONTINUOUS
10
3.74921
20
-2.5752
11
3.74921
21
-2.53543
0
LINE
8
BLACK
6
CONTINUOUS
10
3.74921
20
-2.53543
11
3.74979
21
-2.53404
0
LINE
8
BLACK
6
CONTINUOUS
10
3.74979
20
-2.53404
11
3.75118
21
-2.53346
0
LINE
8
BLACK
6
CONTINUOUS
10
3.75118
20
-2.53346
11
3.77638
21
-2.53346
0
LINE
8
BLACK
6
CONTINUOUS
10
3.77638
20
-2.53346
11
3.77777
21
-2.53404
0
LINE
8
BLACK
6
CONTINUOUS
10
3.77777
20
-2.53404
11
3.77835
21
-2.53543
0
LINE
8
BLACK
6
CONTINUOUS
10
3.77835
20
-2.53543
11
3.77835
21
-2.5752
0
LINE
8
BLACK
6
CONTINUOUS
10
3.77835
20
-2.5752
11
3.84921
21
-2.5752
0
LINE
8
BLACK
6
CONTINUOUS
10
3.84921
20
-2.5752
11
3.84921
21
-2.53543
0
LINE
8
BLACK
6
CONTINUOUS
10
3.84921
20
-2.53543
11
3.84979
21
-2.53404
0
LINE
8
BLACK
6
CONTINUOUS
10
3.84979
20
-2.53404
11
3.85118
21
-2.53346
0
LINE
8
BLACK
6
CONTINUOUS
10
3.85118
20
-2.53346
11
3.87638
21
-2.53346
0
LINE
8
BLACK
6
CONTINUOUS
10
3.87638
20
-2.53346
11
3.87777
21
-2.53404
0
LINE
8
BLACK
6
CONTINUOUS
10
3.87777
20
-2.53404
11
3.87835
21
-2.53543
0
LINE
8
BLACK
6
CONTINUOUS
10
3.87835
20
-2.53543
11
3.87835
21
-2.5752
0
LINE
8
BLACK
6
CONTINUOUS
10
3.87835
20
-2.5752
11
3.91378
21
-2.5752
0
LINE
8
BLACK
6
CONTINUOUS
10
3.91378
20
-2.5752
11
3.91517
21
-2.57577
0
LINE
8
BLACK
6
CONTINUOUS
10
3.91517
20
-2.57577
11
3.91575
21
-2.57717
0
LINE
8
BLACK
6
CONTINUOUS
10
3.91575
20
-2.57717
11
3.91575
21
-2.77717
0
LINE
8
BLACK
6
CONTINUOUS
10
3.91575
20
-2.77717
11
3.91517
21
-2.77856
0
LINE
8
BLACK
6
CONTINUOUS
10
3.91517
20
-2.77856
11
3.91378
21
-2.77913
0
LINE
8
BLACK
6
CONTINUOUS
10
3.91378
20
-2.77913
11
3.87835
21
-2.77913
0
LINE
8
BLACK
6
CONTINUOUS
10
3.87835
20
-2.77913
11
3.87835
21
-2.8189
0
LINE
8
BLACK
6
CONTINUOUS
10
3.87835
20
-2.8189
11
3.87777
21
-2.82029
0
LINE
8
BLACK
6
CONTINUOUS
10
3.87777
20
-2.82029
11
3.87638
21
-2.82087
0
LINE
8
BLACK
6
CONTINUOUS
10
3.87638
20
-2.82087
11
3.85118
21
-2.82087
0
LINE
8
BLACK
6
CONTINUOUS
10
3.85118
20
-2.82087
11
3.84979
21
-2.82029
0
LINE
8
BLACK
6
CONTINUOUS
10
3.84979
20
-2.82029
11
3.84921
21
-2.8189
0
LINE
8
BLACK
6
CONTINUOUS
10
3.84921
20
-2.8189
11
3.84921
21
-2.77913
0
LINE
8
BLACK
6
CONTINUOUS
10
3.84921
20
-2.77913
11
3.77835
21
-2.77913
0
LINE
8
BLACK
6
CONTINUOUS
10
3.77835
20
-2.77913
11
3.77835
21
-2.8189
0
LINE
8
BLACK
6
CONTINUOUS
10
3.77835
20
-2.8189
11
3.77777
21
-2.82029
0
LINE
8
BLACK
6
CONTINUOUS
10
3.77777
20
-2.82029
11
3.77638
21
-2.82087
0
LINE
8
BLACK
6
CONTINUOUS
10
3.77638
20
-2.82087
11
3.75118
21
-2.82087
0
LINE
8
BLACK
6
CONTINUOUS
10
3.75118
20
-2.82087
11
3.74979
21
-2.82029
0
LINE
8
BLACK
6
CONTINUOUS
10
3.74979
20
-2.82029
11
3.74921
21
-2.8189
0
LINE
8
BLACK
6
CONTINUOUS
10
3.74921
20
-2.8189
11
3.74921
21
-2.8189
0
LINE
8
BLACK
6
CONTINUOUS
10
3.74921
20
-2.8189
11
3.74921
21
-2.77913
0
LINE
8
BLACK
6
CONTINUOUS
10
3.74921
20
-2.77913
11
3.67835
21
-2.77913
0
LINE
8
BLACK
6
CONTINUOUS
10
3.67835
20
-2.77913
11
3.67835
21
-2.8189
0
LINE
8
BLACK
6
CONTINUOUS
10
3.67835
20
-2.8189
11
3.67777
21
-2.82029
0
LINE
8
BLACK
6
CONTINUOUS
10
3.67777
20
-2.82029
11
3.67638
21
-2.82087
0
LINE
8
BLACK
6
CONTINUOUS
10
3.67638
20
-2.82087
11
3.65118
21
-2.82087
0
LINE
8
BLACK
6
CONTINUOUS
10
3.65118
20
-2.82087
11
3.64979
21
-2.82029
0
LINE
8
BLACK
6
CONTINUOUS
10
3.64979
20
-2.82029
11
3.64921
21
-2.8189
0
LINE
8
BLACK
6
CONTINUOUS
10
3.64921
20
-2.8189
11
3.64921
21
-2.77913
0
LINE
8
BLACK
6
CONTINUOUS
10
3.64921
20
-2.77913
11
3.61378
21
-2.77913
0
LINE
8
BLACK
6
CONTINUOUS
10
3.61378
20
-2.77913
11
3.61239
21
-2.77856
0
LINE
8
BLACK
6
CONTINUOUS
10
3.61239
20
-2.77856
11
3.61181
21
-2.77717
0
LINE
8
BLACK
6
CONTINUOUS
10
3.61181
20
-2.77717
11
3.61181
21
-2.61457
0
LINE
8
BLACK
6
CONTINUOUS
10
3.61181
20
-2.61457
11
3.61239
21
-2.61318
0
LINE
8
BLACK
6
CONTINUOUS
10
3.61239
20
-2.61318
11
3.61239
21
-2.61317
0
LINE
8
BLACK
6
CONTINUOUS
10
3.61239
20
-2.61317
11
3.64921
21
-2.57635
0
LINE
8
BLACK
6
CONTINUOUS
10
3.64921
20
-2.57635
11
3.64921
21
-2.53543
0
LINE
8
BLACK
6
CONTINUOUS
10
3.64921
20
-2.53543
11
3.64979
21
-2.53404
0
LINE
8
BLACK
6
CONTINUOUS
10
3.64979
20
-2.53404
11
3.65118
21
-2.53346
0
LINE
8
BLACK
6
CONTINUOUS
10
3.65118
20
-2.53346
11
3.67638
21
-2.53346
0
LINE
8
BLACK
6
CONTINUOUS
10
3.85315
20
-2.77913
11
3.85315
21
-2.81693
0
LINE
8
BLACK
6
CONTINUOUS
10
3.85315
20
-2.81693
11
3.87441
21
-2.81693
0
LINE
8
BLACK
6
CONTINUOUS
10
3.87441
20
-2.81693
11
3.87441
21
-2.77913
0
LINE
8
BLACK
6
CONTINUOUS
10
3.87441
20
-2.77913
11
3.85315
21
-2.77913
0
LINE
8
BLACK
6
CONTINUOUS
10
3.75315
20
-2.77913
11
3.75315
21
-2.81693
0
LINE
8
BLACK
6
CONTINUOUS
10
3.75315
20
-2.81693
11
3.77441
21
-2.81693
0
LINE
8
BLACK
6
CONTINUOUS
10
3.77441
20
-2.81693
11
3.77441
21
-2.77913
0
LINE
8
BLACK
6
CONTINUOUS
10
3.77441
20
-2.77913
11
3.75315
21
-2.77913
0
LINE
8
BLACK
6
CONTINUOUS
10
3.65315
20
-2.77913
11
3.65315
21
-2.81693
0
LINE
8
BLACK
6
CONTINUOUS
10
3.65315
20
-2.81693
11
3.67441
21
-2.81693
0
LINE
8
BLACK
6
CONTINUOUS
10
3.67441
20
-2.81693
11
3.67441
21
-2.77913
0
LINE
8
BLACK
6
CONTINUOUS
10
3.67441
20
-2.77913
11
3.65315
21
-2.77913
0
LINE
8
BLACK
6
CONTINUOUS
10
3.87638
20
-2.57913
11
3.85118
21
-2.57913
0
LINE
8
BLACK
6
CONTINUOUS
10
3.85118
20
-2.57913
11
3.77638
21
-2.57913
0
LINE
8
BLACK
6
CONTINUOUS
10
3.77638
20
-2.57913
11
3.75118
21
-2.57913
0
LINE
8
BLACK
6
CONTINUOUS
10
3.75118
20
-2.57913
11
3.67638
21
-2.57913
0
LINE
8
BLACK
6
CONTINUOUS
10
3.67638
20
-2.57913
11
3.652
21
-2.57913
0
LINE
8
BLACK
6
CONTINUOUS
10
3.652
20
-2.57913
11
3.61575
21
-2.61538
0
LINE
8
BLACK
6
CONTINUOUS
10
3.61575
20
-2.61538
11
3.61575
21
-2.7752
0
LINE
8
BLACK
6
CONTINUOUS
10
3.61575
20
-2.7752
11
3.91181
21
-2.7752
0
LINE
8
BLACK
6
CONTINUOUS
10
3.91181
20
-2.7752
11
3.91181
21
-2.57913
0
LINE
8
BLACK
6
CONTINUOUS
10
3.91181
20
-2.57913
11
3.87638
21
-2.57913
0
LINE
8
BLACK
6
CONTINUOUS
10
3.65315
20
-2.5374
11
3.65315
21
-2.5752
0
LINE
8
BLACK
6
CONTINUOUS
10
3.65315
20
-2.5752
11
3.67441
21
-2.5752
0
LINE
8
BLACK
6
CONTINUOUS
10
3.67441
20
-2.5752
11
3.67441
21
-2.5374
0
LINE
8
BLACK
6
CONTINUOUS
10
3.67441
20
-2.5374
11
3.65315
21
-2.5374
0
LINE
8
BLACK
6
CONTINUOUS
10
3.75315
20
-2.5374
11
3.75315
21
-2.5752
0
LINE
8
BLACK
6
CONTINUOUS
10
3.75315
20
-2.5752
11
3.77441
21
-2.5752
0
LINE
8
BLACK
6
CONTINUOUS
10
3.77441
20
-2.5752
11
3.77441
21
-2.5374
0
LINE
8
BLACK
6
CONTINUOUS
10
3.77441
20
-2.5374
11
3.75315
21
-2.5374
0
LINE
8
BLACK
6
CONTINUOUS
10
3.85315
20
-2.5374
11
3.85315
21
-2.5752
0
LINE
8
BLACK
6
CONTINUOUS
10
3.85315
20
-2.5752
11
3.87441
21
-2.5752
0
LINE
8
BLACK
6
CONTINUOUS
10
3.87441
20
-2.5752
11
3.87441
21
-2.5374
0
LINE
8
BLACK
6
CONTINUOUS
10
3.87441
20
-2.5374
11
3.85315
21
-2.5374
0
LINE
8
BLACK
6
CONTINUOUS
10
3.95931
20
-2.78586
11
3.95944
21
-2.78585
0
LINE
8
BLACK
6
CONTINUOUS
10
3.95944
20
-2.78585
11
3.96694
21
-2.78772
0
LINE
8
BLACK
6
CONTINUOUS
10
3.96694
20
-2.78772
11
3.96741
21
-2.78793
0
LINE
8
BLACK
6
CONTINUOUS
10
3.96741
20
-2.78793
11
3.96755
21
-2.78795
0
LINE
8
BLACK
6
CONTINUOUS
10
3.96755
20
-2.78795
11
3.9713
21
-2.78982
0
LINE
8
BLACK
6
CONTINUOUS
10
3.9713
20
-2.78982
11
3.97201
21
-2.79035
0
LINE
8
BLACK
6
CONTINUOUS
10
3.97201
20
-2.79035
11
3.97206
21
-2.79038
0
LINE
8
BLACK
6
CONTINUOUS
10
3.97206
20
-2.79038
11
3.97394
21
-2.79225
0
LINE
8
BLACK
6
CONTINUOUS
10
3.97394
20
-2.79225
11
3.97444
21
-2.79297
0
LINE
8
BLACK
6
CONTINUOUS
10
3.97444
20
-2.79297
11
3.97449
21
-2.79302
0
LINE
8
BLACK
6
CONTINUOUS
10
3.97449
20
-2.79302
11
3.97637
21
-2.79677
0
LINE
8
BLACK
6
CONTINUOUS
10
3.97637
20
-2.79677
11
3.97666
21
-2.79775
0
LINE
8
BLACK
6
CONTINUOUS
10
3.97666
20
-2.79775
11
3.97662
21
-2.79792
0
LINE
8
BLACK
6
CONTINUOUS
10
3.97662
20
-2.79792
11
3.97668
21
-2.79809
0
LINE
8
BLACK
6
CONTINUOUS
10
3.97668
20
-2.79809
11
3.97668
21
-2.80184
0
LINE
8
BLACK
6
CONTINUOUS
10
3.97668
20
-2.80184
11
3.9765
21
-2.80285
0
LINE
8
BLACK
6
CONTINUOUS
10
3.9765
20
-2.80285
11
3.97639
21
-2.80298
0
LINE
8
BLACK
6
CONTINUOUS
10
3.97639
20
-2.80298
11
3.97637
21
-2.80316
0
LINE
8
BLACK
6
CONTINUOUS
10
3.97637
20
-2.80316
11
3.97449
21
-2.80691
0
LINE
8
BLACK
6
CONTINUOUS
10
3.97449
20
-2.80691
11
3.97397
21
-2.80762
0
LINE
8
BLACK
6
CONTINUOUS
10
3.97397
20
-2.80762
11
3.97394
21
-2.80767
0
LINE
8
BLACK
6
CONTINUOUS
10
3.97394
20
-2.80767
11
3.97206
21
-2.80955
0
LINE
8
BLACK
6
CONTINUOUS
10
3.97206
20
-2.80955
11
3.97134
21
-2.81006
0
LINE
8
BLACK
6
CONTINUOUS
10
3.97134
20
-2.81006
11
3.9713
21
-2.8101
0
LINE
8
BLACK
6
CONTINUOUS
10
3.9713
20
-2.8101
11
3.96755
21
-2.81198
0
LINE
8
BLACK
6
CONTINUOUS
10
3.96755
20
-2.81198
11
3.96706
21
-2.81212
0
LINE
8
BLACK
6
CONTINUOUS
10
3.96706
20
-2.81212
11
3.96694
21
-2.8122
0
LINE
8
BLACK
6
CONTINUOUS
10
3.96694
20
-2.8122
11
3.95944
21
-2.81408
0
LINE
8
BLACK
6
CONTINUOUS
10
3.95944
20
-2.81408
11
3.95886
21
-2.81412
0
LINE
8
BLACK
6
CONTINUOUS
10
3.95886
20
-2.81412
11
3.95873
21
-2.81416
0
LINE
8
BLACK
6
CONTINUOUS
10
3.95873
20
-2.81416
11
3.94935
21
-2.81416
0
LINE
8
BLACK
6
CONTINUOUS
10
3.94935
20
-2.81416
11
3.94877
21
-2.81406
0
LINE
8
BLACK
6
CONTINUOUS
10
3.94877
20
-2.81406
11
3.94864
21
-2.81408
0
LINE
8
BLACK
6
CONTINUOUS
10
3.94864
20
-2.81408
11
3.94114
21
-2.8122
0
LINE
8
BLACK
6
CONTINUOUS
10
3.94114
20
-2.8122
11
3.94067
21
-2.81199
0
LINE
8
BLACK
6
CONTINUOUS
10
3.94067
20
-2.81199
11
3.94053
21
-2.81198
0
LINE
8
BLACK
6
CONTINUOUS
10
3.94053
20
-2.81198
11
3.93678
21
-2.8101
0
LINE
8
BLACK
6
CONTINUOUS
10
3.93678
20
-2.8101
11
3.93607
21
-2.80958
0
LINE
8
BLACK
6
CONTINUOUS
10
3.93607
20
-2.80958
11
3.93602
21
-2.80955
0
LINE
8
BLACK
6
CONTINUOUS
10
3.93602
20
-2.80955
11
3.93414
21
-2.80767
0
LINE
8
BLACK
6
CONTINUOUS
10
3.93414
20
-2.80767
11
3.93364
21
-2.80695
0
LINE
8
BLACK
6
CONTINUOUS
10
3.93364
20
-2.80695
11
3.93359
21
-2.80691
0
LINE
8
BLACK
6
CONTINUOUS
10
3.93359
20
-2.80691
11
3.93171
21
-2.80316
0
LINE
8
BLACK
6
CONTINUOUS
10
3.93171
20
-2.80316
11
3.93142
21
-2.80217
0
LINE
8
BLACK
6
CONTINUOUS
10
3.93142
20
-2.80217
11
3.93146
21
-2.802
0
LINE
8
BLACK
6
CONTINUOUS
10
3.93146
20
-2.802
11
3.9314
21
-2.80184
0
LINE
8
BLACK
6
CONTINUOUS
10
3.9314
20
-2.80184
11
3.9314
21
-2.79809
0
LINE
8
BLACK
6
CONTINUOUS
10
3.9314
20
-2.79809
11
3.93158
21
-2.79708
0
LINE
8
BLACK
6
CONTINUOUS
10
3.93158
20
-2.79708
11
3.93169
21
-2.79694
0
LINE
8
BLACK
6
CONTINUOUS
10
3.93169
20
-2.79694
11
3.93171
21
-2.79677
0
LINE
8
BLACK
6
CONTINUOUS
10
3.93171
20
-2.79677
11
3.93359
21
-2.79302
0
LINE
8
BLACK
6
CONTINUOUS
10
3.93359
20
-2.79302
11
3.93411
21
-2.79231
0
LINE
8
BLACK
6
CONTINUOUS
10
3.93411
20
-2.79231
11
3.93414
21
-2.79225
0
LINE
8
BLACK
6
CONTINUOUS
10
3.93414
20
-2.79225
11
3.93602
21
-2.79038
0
LINE
8
BLACK
6
CONTINUOUS
10
3.93602
20
-2.79038
11
3.93674
21
-2.78987
0
LINE
8
BLACK
6
CONTINUOUS
10
3.93674
20
-2.78987
11
3.93678
21
-2.78982
0
LINE
8
BLACK
6
CONTINUOUS
10
3.93678
20
-2.78982
11
3.94053
21
-2.78795
0
LINE
8
BLACK
6
CONTINUOUS
10
3.94053
20
-2.78795
11
3.94102
21
-2.7878
0
LINE
8
BLACK
6
CONTINUOUS
10
3.94102
20
-2.7878
11
3.94114
21
-2.78772
0
LINE
8
BLACK
6
CONTINUOUS
10
3.94114
20
-2.78772
11
3.94864
21
-2.78585
0
LINE
8
BLACK
6
CONTINUOUS
10
3.94864
20
-2.78585
11
3.94922
21
-2.78581
0
LINE
8
BLACK
6
CONTINUOUS
10
3.94922
20
-2.78581
11
3.94935
21
-2.78576
0
LINE
8
BLACK
6
CONTINUOUS
10
3.94935
20
-2.78576
11
3.95873
21
-2.78576
0
LINE
8
BLACK
6
CONTINUOUS
10
3.95873
20
-2.78576
11
3.95931
21
-2.78586
0
LINE
8
BLACK
6
CONTINUOUS
10
3.94288
20
-2.79337
11
3.93985
21
-2.79489
0
LINE
8
BLACK
6
CONTINUOUS
10
3.93985
20
-2.79489
11
3.93866
21
-2.79609
0
LINE
8
BLACK
6
CONTINUOUS
10
3.93866
20
-2.79609
11
3.93731
21
-2.79878
0
LINE
8
BLACK
6
CONTINUOUS
10
3.93731
20
-2.79878
11
3.93731
21
-2.80114
0
LINE
8
BLACK
6
CONTINUOUS
10
3.93731
20
-2.80114
11
3.93866
21
-2.80384
0
LINE
8
BLACK
6
CONTINUOUS
10
3.93866
20
-2.80384
11
3.93985
21
-2.80503
0
LINE
8
BLACK
6
CONTINUOUS
10
3.93985
20
-2.80503
11
3.94288
21
-2.80655
0
LINE
8
BLACK
6
CONTINUOUS
10
3.94288
20
-2.80655
11
3.94972
21
-2.80826
0
LINE
8
BLACK
6
CONTINUOUS
10
3.94972
20
-2.80826
11
3.95836
21
-2.80826
0
LINE
8
BLACK
6
CONTINUOUS
10
3.95836
20
-2.80826
11
3.9652
21
-2.80655
0
LINE
8
BLACK
6
CONTINUOUS
10
3.9652
20
-2.80655
11
3.96823
21
-2.80503
0
LINE
8
BLACK
6
CONTINUOUS
10
3.96823
20
-2.80503
11
3.96942
21
-2.80384
0
LINE
8
BLACK
6
CONTINUOUS
10
3.96942
20
-2.80384
11
3.97077
21
-2.80114
0
LINE
8
BLACK
6
CONTINUOUS
10
3.97077
20
-2.80114
11
3.97077
21
-2.79878
0
LINE
8
BLACK
6
CONTINUOUS
10
3.97077
20
-2.79878
11
3.96942
21
-2.79609
0
LINE
8
BLACK
6
CONTINUOUS
10
3.96942
20
-2.79609
11
3.96823
21
-2.79489
0
LINE
8
BLACK
6
CONTINUOUS
10
3.96823
20
-2.79489
11
3.9652
21
-2.79337
0
LINE
8
BLACK
6
CONTINUOUS
10
3.9652
20
-2.79337
11
3.95836
21
-2.79167
0
LINE
8
BLACK
6
CONTINUOUS
10
3.95836
20
-2.79167
11
3.94972
21
-2.79167
0
LINE
8
BLACK
6
CONTINUOUS
10
3.94972
20
-2.79167
11
3.94288
21
-2.79337
0
LINE
8
BLACK
6
CONTINUOUS
10
3.9493
20
-2.75265
11
3.9606
21
-2.76152
0
LINE
8
BLACK
6
CONTINUOUS
10
3.9606
20
-2.76152
11
3.9719
21
-2.75265
0
LINE
8
BLACK
6
CONTINUOUS
10
3.9719
20
-2.75265
11
3.9728
21
-2.75216
0
LINE
8
BLACK
6
CONTINUOUS
10
3.9728
20
-2.75216
11
3.97482
21
-2.75223
0
LINE
8
BLACK
6
CONTINUOUS
10
3.97482
20
-2.75223
11
3.97633
21
-2.75357
0
LINE
8
BLACK
6
CONTINUOUS
10
3.97633
20
-2.75357
11
3.97662
21
-2.75557
0
LINE
8
BLACK
6
CONTINUOUS
10
3.97662
20
-2.75557
11
3.97555
21
-2.75729
0
LINE
8
BLACK
6
CONTINUOUS
10
3.97555
20
-2.75729
11
3.96538
21
-2.76528
0
LINE
8
BLACK
6
CONTINUOUS
10
3.96538
20
-2.76528
11
3.97555
21
-2.77327
0
LINE
8
BLACK
6
CONTINUOUS
10
3.97555
20
-2.77327
11
3.97623
21
-2.77403
0
LINE
8
BLACK
6
CONTINUOUS
10
3.97623
20
-2.77403
11
3.97665
21
-2.77601
0
LINE
8
BLACK
6
CONTINUOUS
10
3.97665
20
-2.77601
11
3.97569
21
-2.77779
0
LINE
8
BLACK
6
CONTINUOUS
10
3.97569
20
-2.77779
11
3.97382
21
-2.77854
0
LINE
8
BLACK
6
CONTINUOUS
10
3.97382
20
-2.77854
11
3.9719
21
-2.77791
0
LINE
8
BLACK
6
CONTINUOUS
10
3.9719
20
-2.77791
11
3.9606
21
-2.76903
0
LINE
8
BLACK
6
CONTINUOUS
10
3.9606
20
-2.76903
11
3.9493
21
-2.77791
0
LINE
8
BLACK
6
CONTINUOUS
10
3.9493
20
-2.77791
11
3.9484
21
-2.7784
0
LINE
8
BLACK
6
CONTINUOUS
10
3.9484
20
-2.7784
11
3.94638
21
-2.77833
0
LINE
8
BLACK
6
CONTINUOUS
10
3.94638
20
-2.77833
11
3.94488
21
-2.77698
0
LINE
8
BLACK
6
CONTINUOUS
10
3.94488
20
-2.77698
11
3.94459
21
-2.77498
0
LINE
8
BLACK
6
CONTINUOUS
10
3.94459
20
-2.77498
11
3.94565
21
-2.77327
0
LINE
8
BLACK
6
CONTINUOUS
10
3.94565
20
-2.77327
11
3.95582
21
-2.76528
0
LINE
8
BLACK
6
CONTINUOUS
10
3.95582
20
-2.76528
11
3.94565
21
-2.75729
0
LINE
8
BLACK
6
CONTINUOUS
10
3.94565
20
-2.75729
11
3.94497
21
-2.75653
0
LINE
8
BLACK
6
CONTINUOUS
10
3.94497
20
-2.75653
11
3.94456
21
-2.75455
0
LINE
8
BLACK
6
CONTINUOUS
10
3.94456
20
-2.75455
11
3.94551
21
-2.75277
0
LINE
8
BLACK
6
CONTINUOUS
10
3.94551
20
-2.75277
11
3.94738
21
-2.75202
0
LINE
8
BLACK
6
CONTINUOUS
10
3.94738
20
-2.75202
11
3.9493
21
-2.75265
0
LINE
8
BLACK
6
CONTINUOUS
10
3.97435
20
-2.71463
11
3.97449
21
-2.71462
0
LINE
8
BLACK
6
CONTINUOUS
10
3.97449
20
-2.71462
11
3.97522
21
-2.71513
0
LINE
8
BLACK
6
CONTINUOUS
10
3.97522
20
-2.71513
11
3.97599
21
-2.71557
0
LINE
8
BLACK
6
CONTINUOUS
10
3.97599
20
-2.71557
11
3.97603
21
-2.7157
0
LINE
8
BLACK
6
CONTINUOUS
10
3.97603
20
-2.7157
11
3.97614
21
-2.71578
0
LINE
8
BLACK
6
CONTINUOUS
10
3.97614
20
-2.71578
11
3.97637
21
-2.71664
0
LINE
8
BLACK
6
CONTINUOUS
10
3.97637
20
-2.71664
11
3.97668
21
-2.71747
0
LINE
8
BLACK
6
CONTINUOUS
10
3.97668
20
-2.71747
11
3.97668
21
-2.74184
0
LINE
8
BLACK
6
CONTINUOUS
10
3.97668
20
-2.74184
11
3.9765
21
-2.74285
0
LINE
8
BLACK
6
CONTINUOUS
10
3.9765
20
-2.74285
11
3.9752
21
-2.7444
0
LINE
8
BLACK
6
CONTINUOUS
10
3.9752
20
-2.7444
11
3.97321
21
-2.74475
0
LINE
8
BLACK
6
CONTINUOUS
10
3.97321
20
-2.74475
11
3.97146
21
-2.74374
0
LINE
8
BLACK
6
CONTINUOUS
10
3.97146
20
-2.74374
11
3.97077
21
-2.74184
0
LINE
8
BLACK
6
CONTINUOUS
10
3.97077
20
-2.74184
11
3.97077
21
-2.7246
0
LINE
8
BLACK
6
CONTINUOUS
10
3.97077
20
-2.7246
11
3.95332
21
-2.74206
0
LINE
8
BLACK
6
CONTINUOUS
10
3.95332
20
-2.74206
11
3.95248
21
-2.74265
0
LINE
8
BLACK
6
CONTINUOUS
10
3.95248
20
-2.74265
11
3.9523
21
-2.74266
0
LINE
8
BLACK
6
CONTINUOUS
10
3.9523
20
-2.74266
11
3.95216
21
-2.74277
0
LINE
8
BLACK
6
CONTINUOUS
10
3.95216
20
-2.74277
11
3.94654
21
-2.74465
0
LINE
8
BLACK
6
CONTINUOUS
10
3.94654
20
-2.74465
11
3.94566
21
-2.74478
0
LINE
8
BLACK
6
CONTINUOUS
10
3.94566
20
-2.74478
11
3.9456
21
-2.7448
0
LINE
8
BLACK
6
CONTINUOUS
10
3.9456
20
-2.7448
11
3.94185
21
-2.7448
0
LINE
8
BLACK
6
CONTINUOUS
10
3.94185
20
-2.7448
11
3.94084
21
-2.74462
0
LINE
8
BLACK
6
CONTINUOUS
10
3.94084
20
-2.74462
11
3.94071
21
-2.74451
0
LINE
8
BLACK
6
CONTINUOUS
10
3.94071
20
-2.74451
11
3.94053
21
-2.74449
0
LINE
8
BLACK
6
CONTINUOUS
10
3.94053
20
-2.74449
11
3.93678
21
-2.74261
0
LINE
8
BLACK
6
CONTINUOUS
10
3.93678
20
-2.74261
11
3.93607
21
-2.74209
0
LINE
8
BLACK
6
CONTINUOUS
10
3.93607
20
-2.74209
11
3.93602
21
-2.74206
0
LINE
8
BLACK
6
CONTINUOUS
10
3.93602
20
-2.74206
11
3.93414
21
-2.74018
0
LINE
8
BLACK
6
CONTINUOUS
10
3.93414
20
-2.74018
11
3.93364
21
-2.73946
0
LINE
8
BLACK
6
CONTINUOUS
10
3.93364
20
-2.73946
11
3.93359
21
-2.73942
0
LINE
8
BLACK
6
CONTINUOUS
10
3.93359
20
-2.73942
11
3.93171
21
-2.73567
0
LINE
8
BLACK
6
CONTINUOUS
10
3.93171
20
-2.73567
11
3.93142
21
-2.73468
0
LINE
8
BLACK
6
CONTINUOUS
10
3.93142
20
-2.73468
11
3.93146
21
-2.73451
0
LINE
8
BLACK
6
CONTINUOUS
10
3.93146
20
-2.73451
11
3.9314
21
-2.73435
0
LINE
8
BLACK
6
CONTINUOUS
10
3.9314
20
-2.73435
11
3.9314
21
-2.72497
0
LINE
8
BLACK
6
CONTINUOUS
10
3.9314
20
-2.72497
11
3.93158
21
-2.72396
0
LINE
8
BLACK
6
CONTINUOUS
10
3.93158
20
-2.72396
11
3.93169
21
-2.72383
0
LINE
8
BLACK
6
CONTINUOUS
10
3.93169
20
-2.72383
11
3.93171
21
-2.72365
0
LINE
8
BLACK
6
CONTINUOUS
10
3.93171
20
-2.72365
11
3.93359
21
-2.7199
0
LINE
8
BLACK
6
CONTINUOUS
10
3.93359
20
-2.7199
11
3.93411
21
-2.71919
0
LINE
8
BLACK
6
CONTINUOUS
10
3.93411
20
-2.71919
11
3.93414
21
-2.71913
0
LINE
8
BLACK
6
CONTINUOUS
10
3.93414
20
-2.71913
11
3.93602
21
-2.71726
0
LINE
8
BLACK
6
CONTINUOUS
10
3.93602
20
-2.71726
11
3.93686
21
-2.71667
0
LINE
8
BLACK
6
CONTINUOUS
10
3.93686
20
-2.71667
11
3.93887
21
-2.7165
0
LINE
8
BLACK
6
CONTINUOUS
10
3.93887
20
-2.7165
11
3.94052
21
-2.71765
0
LINE
8
BLACK
6
CONTINUOUS
10
3.94052
20
-2.71765
11
3.94105
21
-2.7196
0
LINE
8
BLACK
6
CONTINUOUS
10
3.94105
20
-2.7196
11
3.94019
21
-2.72144
0
LINE
8
BLACK
6
CONTINUOUS
10
3.94019
20
-2.72144
11
3.93866
21
-2.72297
0
LINE
8
BLACK
6
CONTINUOUS
10
3.93866
20
-2.72297
11
3.93731
21
-2.72567
0
LINE
8
BLACK
6
CONTINUOUS
10
3.93731
20
-2.72567
11
3.93731
21
-2.73365
0
LINE
8
BLACK
6
CONTINUOUS
10
3.93731
20
-2.73365
11
3.93866
21
-2.73635
0
LINE
8
BLACK
6
CONTINUOUS
10
3.93866
20
-2.73635
11
3.93985
21
-2.73754
0
LINE
8
BLACK
6
CONTINUOUS
10
3.93985
20
-2.73754
11
3.94255
21
-2.73889
0
LINE
8
BLACK
6
CONTINUOUS
10
3.94255
20
-2.73889
11
3.94512
21
-2.73889
0
LINE
8
BLACK
6
CONTINUOUS
10
3.94512
20
-2.73889
11
3.94963
21
-2.73739
0
LINE
8
BLACK
6
CONTINUOUS
10
3.94963
20
-2.73739
11
3.97164
21
-2.71538
0
LINE
8
BLACK
6
CONTINUOUS
10
3.97164
20
-2.71538
11
3.97217
21
-2.71502
0
LINE
8
BLACK
6
CONTINUOUS
10
3.97217
20
-2.71502
11
3.97225
21
-2.71492
0
LINE
8
BLACK
6
CONTINUOUS
10
3.97225
20
-2.71492
11
3.97233
21
-2.7149
0
LINE
8
BLACK
6
CONTINUOUS
10
3.97233
20
-2.7149
11
3.97248
21
-2.7148
0
LINE
8
BLACK
6
CONTINUOUS
10
3.97248
20
-2.7148
11
3.97336
21
-2.71472
0
LINE
8
BLACK
6
CONTINUOUS
10
3.97336
20
-2.71472
11
3.97424
21
-2.71456
0
LINE
8
BLACK
6
CONTINUOUS
10
3.97424
20
-2.71456
11
3.97435
21
-2.71463
0
LINE
8
BLACK
6
CONTINUOUS
10
3.95931
20
-2.679
11
3.95944
21
-2.67899
0
LINE
8
BLACK
6
CONTINUOUS
10
3.95944
20
-2.67899
11
3.96694
21
-2.68086
0
LINE
8
BLACK
6
CONTINUOUS
10
3.96694
20
-2.68086
11
3.96741
21
-2.68107
0
LINE
8
BLACK
6
CONTINUOUS
10
3.96741
20
-2.68107
11
3.96755
21
-2.68109
0
LINE
8
BLACK
6
CONTINUOUS
10
3.96755
20
-2.68109
11
3.9713
21
-2.68296
0
LINE
8
BLACK
6
CONTINUOUS
10
3.9713
20
-2.68296
11
3.97201
21
-2.68349
0
LINE
8
BLACK
6
CONTINUOUS
10
3.97201
20
-2.68349
11
3.97206
21
-2.68351
0
LINE
8
BLACK
6
CONTINUOUS
10
3.97206
20
-2.68351
11
3.97394
21
-2.68539
0
LINE
8
BLACK
6
CONTINUOUS
10
3.97394
20
-2.68539
11
3.97444
21
-2.68611
0
LINE
8
BLACK
6
CONTINUOUS
10
3.97444
20
-2.68611
11
3.97449
21
-2.68616
0
LINE
8
BLACK
6
CONTINUOUS
10
3.97449
20
-2.68616
11
3.97637
21
-2.68991
0
LINE
8
BLACK
6
CONTINUOUS
10
3.97637
20
-2.68991
11
3.97666
21
-2.69089
0
LINE
8
BLACK
6
CONTINUOUS
10
3.97666
20
-2.69089
11
3.97662
21
-2.69106
0
LINE
8
BLACK
6
CONTINUOUS
10
3.97662
20
-2.69106
11
3.97668
21
-2.69123
0
LINE
8
BLACK
6
CONTINUOUS
10
3.97668
20
-2.69123
11
3.97668
21
-2.69498
0
LINE
8
BLACK
6
CONTINUOUS
10
3.97668
20
-2.69498
11
3.9765
21
-2.69599
0
LINE
8
BLACK
6
CONTINUOUS
10
3.9765
20
-2.69599
11
3.97639
21
-2.69612
0
LINE
8
BLACK
6
CONTINUOUS
10
3.97639
20
-2.69612
11
3.97637
21
-2.6963
0
LINE
8
BLACK
6
CONTINUOUS
10
3.97637
20
-2.6963
11
3.97449
21
-2.70005
0
LINE
8
BLACK
6
CONTINUOUS
10
3.97449
20
-2.70005
11
3.97397
21
-2.70075
0
LINE
8
BLACK
6
CONTINUOUS
10
3.97397
20
-2.70075
11
3.97394
21
-2.70081
0
LINE
8
BLACK
6
CONTINUOUS
10
3.97394
20
-2.70081
11
3.97206
21
-2.70269
0
LINE
8
BLACK
6
CONTINUOUS
10
3.97206
20
-2.70269
11
3.97134
21
-2.70319
0
LINE
8
BLACK
6
CONTINUOUS
10
3.97134
20
-2.70319
11
3.9713
21
-2.70324
0
LINE
8
BLACK
6
CONTINUOUS
10
3.9713
20
-2.70324
11
3.96755
21
-2.70512
0
LINE
8
BLACK
6
CONTINUOUS
10
3.96755
20
-2.70512
11
3.96706
21
-2.70526
0
LINE
8
BLACK
6
CONTINUOUS
10
3.96706
20
-2.70526
11
3.96694
21
-2.70534
0
LINE
8
BLACK
6
CONTINUOUS
10
3.96694
20
-2.70534
11
3.95944
21
-2.70721
0
LINE
8
BLACK
6
CONTINUOUS
10
3.95944
20
-2.70721
11
3.95886
21
-2.70726
0
LINE
8
BLACK
6
CONTINUOUS
10
3.95886
20
-2.70726
11
3.95873
21
-2.7073
0
LINE
8
BLACK
6
CONTINUOUS
10
3.95873
20
-2.7073
11
3.94935
21
-2.7073
0
LINE
8
BLACK
6
CONTINUOUS
10
3.94935
20
-2.7073
11
3.94877
21
-2.7072
0
LINE
8
BLACK
6
CONTINUOUS
10
3.94877
20
-2.7072
11
3.94864
21
-2.70721
0
LINE
8
BLACK
6
CONTINUOUS
10
3.94864
20
-2.70721
11
3.94114
21
-2.70534
0
LINE
8
BLACK
6
CONTINUOUS
10
3.94114
20
-2.70534
11
3.94067
21
-2.70513
0
LINE
8
BLACK
6
CONTINUOUS
10
3.94067
20
-2.70513
11
3.94053
21
-2.70512
0
LINE
8
BLACK
6
CONTINUOUS
10
3.94053
20
-2.70512
11
3.93678
21
-2.70324
0
LINE
8
BLACK
6
CONTINUOUS
10
3.93678
20
-2.70324
11
3.93607
21
-2.70272
0
LINE
8
BLACK
6
CONTINUOUS
10
3.93607
20
-2.70272
11
3.93602
21
-2.70269
0
LINE
8
BLACK
6
CONTINUOUS
10
3.93602
20
-2.70269
11
3.93414
21
-2.70081
0
LINE
8
BLACK
6
CONTINUOUS
10
3.93414
20
-2.70081
11
3.93364
21
-2.70009
0
LINE
8
BLACK
6
CONTINUOUS
10
3.93364
20
-2.70009
11
3.93359
21
-2.70005
0
LINE
8
BLACK
6
CONTINUOUS
10
3.93359
20
-2.70005
11
3.93171
21
-2.6963
0
LINE
8
BLACK
6
CONTINUOUS
10
3.93171
20
-2.6963
11
3.93142
21
-2.69531
0
LINE
8
BLACK
6
CONTINUOUS
10
3.93142
20
-2.69531
11
3.93146
21
-2.69514
0
LINE
8
BLACK
6
CONTINUOUS
10
3.93146
20
-2.69514
11
3.9314
21
-2.69498
0
LINE
8
BLACK
6
CONTINUOUS
10
3.9314
20
-2.69498
11
3.9314
21
-2.69123
0
LINE
8
BLACK
6
CONTINUOUS
10
3.9314
20
-2.69123
11
3.93158
21
-2.69022
0
LINE
8
BLACK
6
CONTINUOUS
10
3.93158
20
-2.69022
11
3.93169
21
-2.69008
0
LINE
8
BLACK
6
CONTINUOUS
10
3.93169
20
-2.69008
11
3.93171
21
-2.68991
0
LINE
8
BLACK
6
CONTINUOUS
10
3.93171
20
-2.68991
11
3.93359
21
-2.68616
0
LINE
8
BLACK
6
CONTINUOUS
10
3.93359
20
-2.68616
11
3.93411
21
-2.68545
0
LINE
8
BLACK
6
CONTINUOUS
10
3.93411
20
-2.68545
11
3.93414
21
-2.68539
0
LINE
8
BLACK
6
CONTINUOUS
10
3.93414
20
-2.68539
11
3.93602
21
-2.68351
0
LINE
8
BLACK
6
CONTINUOUS
10
3.93602
20
-2.68351
11
3.93674
21
-2.68301
0
LINE
8
BLACK
6
CONTINUOUS
10
3.93674
20
-2.68301
11
3.93678
21
-2.68296
0
LINE
8
BLACK
6
CONTINUOUS
10
3.93678
20
-2.68296
11
3.94053
21
-2.68109
0
LINE
8
BLACK
6
CONTINUOUS
10
3.94053
20
-2.68109
11
3.94102
21
-2.68094
0
LINE
8
BLACK
6
CONTINUOUS
10
3.94102
20
-2.68094
11
3.94114
21
-2.68086
0
LINE
8
BLACK
6
CONTINUOUS
10
3.94114
20
-2.68086
11
3.94864
21
-2.67899
0
LINE
8
BLACK
6
CONTINUOUS
10
3.94864
20
-2.67899
11
3.94922
21
-2.67895
0
LINE
8
BLACK
6
CONTINUOUS
10
3.94922
20
-2.67895
11
3.94935
21
-2.6789
0
LINE
8
BLACK
6
CONTINUOUS
10
3.94935
20
-2.6789
11
3.95873
21
-2.6789
0
LINE
8
BLACK
6
CONTINUOUS
10
3.95873
20
-2.6789
11
3.95931
21
-2.679
0
LINE
8
BLACK
6
CONTINUOUS
10
3.94288
20
-2.68651
11
3.93985
21
-2.68803
0
LINE
8
BLACK
6
CONTINUOUS
10
3.93985
20
-2.68803
11
3.93866
21
-2.68923
0
LINE
8
BLACK
6
CONTINUOUS
10
3.93866
20
-2.68923
11
3.93731
21
-2.69192
0
LINE
8
BLACK
6
CONTINUOUS
10
3.93731
20
-2.69192
11
3.93731
21
-2.69428
0
LINE
8
BLACK
6
CONTINUOUS
10
3.93731
20
-2.69428
11
3.93866
21
-2.69698
0
LINE
8
BLACK
6
CONTINUOUS
10
3.93866
20
-2.69698
11
3.93985
21
-2.69817
0
LINE
8
BLACK
6
CONTINUOUS
10
3.93985
20
-2.69817
11
3.94288
21
-2.69969
0
LINE
8
BLACK
6
CONTINUOUS
10
3.94288
20
-2.69969
11
3.94972
21
-2.7014
0
LINE
8
BLACK
6
CONTINUOUS
10
3.94972
20
-2.7014
11
3.95836
21
-2.7014
0
LINE
8
BLACK
6
CONTINUOUS
10
3.95836
20
-2.7014
11
3.9652
21
-2.69969
0
LINE
8
BLACK
6
CONTINUOUS
10
3.9652
20
-2.69969
11
3.96823
21
-2.69817
0
LINE
8
BLACK
6
CONTINUOUS
10
3.96823
20
-2.69817
11
3.96942
21
-2.69698
0
LINE
8
BLACK
6
CONTINUOUS
10
3.96942
20
-2.69698
11
3.97077
21
-2.69428
0
LINE
8
BLACK
6
CONTINUOUS
10
3.97077
20
-2.69428
11
3.97077
21
-2.69192
0
LINE
8
BLACK
6
CONTINUOUS
10
3.97077
20
-2.69192
11
3.96942
21
-2.68923
0
LINE
8
BLACK
6
CONTINUOUS
10
3.96942
20
-2.68923
11
3.96823
21
-2.68803
0
LINE
8
BLACK
6
CONTINUOUS
10
3.96823
20
-2.68803
11
3.9652
21
-2.68651
0
LINE
8
BLACK
6
CONTINUOUS
10
3.9652
20
-2.68651
11
3.95836
21
-2.68481
0
LINE
8
BLACK
6
CONTINUOUS
10
3.95836
20
-2.68481
11
3.94972
21
-2.68481
0
LINE
8
BLACK
6
CONTINUOUS
10
3.94972
20
-2.68481
11
3.94288
21
-2.68651
0
LINE
8
BLACK
6
CONTINUOUS
10
3.97974
20
-2.64246
11
3.98043
21
-2.64436
0
LINE
8
BLACK
6
CONTINUOUS
10
3.98043
20
-2.64436
11
3.98043
21
-2.67435
0
LINE
8
BLACK
6
CONTINUOUS
10
3.98043
20
-2.67435
11
3.98025
21
-2.67536
0
LINE
8
BLACK
6
CONTINUOUS
10
3.98025
20
-2.67536
11
3.97895
21
-2.67691
0
LINE
8
BLACK
6
CONTINUOUS
10
3.97895
20
-2.67691
11
3.97696
21
-2.67726
0
LINE
8
BLACK
6
CONTINUOUS
10
3.97696
20
-2.67726
11
3.97521
21
-2.67625
0
LINE
8
BLACK
6
CONTINUOUS
10
3.97521
20
-2.67625
11
3.97452
21
-2.67435
0
LINE
8
BLACK
6
CONTINUOUS
10
3.97452
20
-2.67435
11
3.97452
21
-2.64436
0
LINE
8
BLACK
6
CONTINUOUS
10
3.97452
20
-2.64436
11
3.9747
21
-2.64335
0
LINE
8
BLACK
6
CONTINUOUS
10
3.9747
20
-2.64335
11
3.976
21
-2.6418
0
LINE
8
BLACK
6
CONTINUOUS
10
3.976
20
-2.6418
11
3.97799
21
-2.64145
0
LINE
8
BLACK
6
CONTINUOUS
10
3.97799
20
-2.64145
11
3.97974
21
-2.64246
0
LINE
8
BLACK
6
CONTINUOUS
10
3.97474
20
-2.61534
11
3.97628
21
-2.61663
0
LINE
8
BLACK
6
CONTINUOUS
10
3.97628
20
-2.61663
11
3.97663
21
-2.61862
0
LINE
8
BLACK
6
CONTINUOUS
10
3.97663
20
-2.61862
11
3.97562
21
-2.62037
0
LINE
8
BLACK
6
CONTINUOUS
10
3.97562
20
-2.62037
11
3.97373
21
-2.62106
0
LINE
8
BLACK
6
CONTINUOUS
10
3.97373
20
-2.62106
11
3.95245
21
-2.62106
0
LINE
8
BLACK
6
CONTINUOUS
10
3.95245
20
-2.62106
11
3.95178
21
-2.62173
0
LINE
8
BLACK
6
CONTINUOUS
10
3.95178
20
-2.62173
11
3.95043
21
-2.62443
0
LINE
8
BLACK
6
CONTINUOUS
10
3.95043
20
-2.62443
11
3.95043
21
-2.62866
0
LINE
8
BLACK
6
CONTINUOUS
10
3.95043
20
-2.62866
11
3.95155
21
-2.63091
0
LINE
8
BLACK
6
CONTINUOUS
10
3.95155
20
-2.63091
11
3.9538
21
-2.63203
0
LINE
8
BLACK
6
CONTINUOUS
10
3.9538
20
-2.63203
11
3.97373
21
-2.63203
0
LINE
8
BLACK
6
CONTINUOUS
10
3.97373
20
-2.63203
11
3.97474
21
-2.63221
0
LINE
8
BLACK
6
CONTINUOUS
10
3.97474
20
-2.63221
11
3.97628
21
-2.63351
0
LINE
8
BLACK
6
CONTINUOUS
10
3.97628
20
-2.63351
11
3.97663
21
-2.6355
0
LINE
8
BLACK
6
CONTINUOUS
10
3.97663
20
-2.6355
11
3.97562
21
-2.63725
0
LINE
8
BLACK
6
CONTINUOUS
10
3.97562
20
-2.63725
11
3.97373
21
-2.63794
0
LINE
8
BLACK
6
CONTINUOUS
10
3.97373
20
-2.63794
11
3.9531
21
-2.63794
0
LINE
8
BLACK
6
CONTINUOUS
10
3.9531
20
-2.63794
11
3.95209
21
-2.63776
0
LINE
8
BLACK
6
CONTINUOUS
10
3.95209
20
-2.63776
11
3.95196
21
-2.63764
0
LINE
8
BLACK
6
CONTINUOUS
10
3.95196
20
-2.63764
11
3.95178
21
-2.63762
0
LINE
8
BLACK
6
CONTINUOUS
10
3.95178
20
-2.63762
11
3.94803
21
-2.63575
0
LINE
8
BLACK
6
CONTINUOUS
10
3.94803
20
-2.63575
11
3.94721
21
-2.63514
0
LINE
8
BLACK
6
CONTINUOUS
10
3.94721
20
-2.63514
11
3.94703
21
-2.63473
0
LINE
8
BLACK
6
CONTINUOUS
10
3.94703
20
-2.63473
11
3.94671
21
-2.63443
0
LINE
8
BLACK
6
CONTINUOUS
10
3.94671
20
-2.63443
11
3.94484
21
-2.63068
0
LINE
8
BLACK
6
CONTINUOUS
10
3.94484
20
-2.63068
11
3.94455
21
-2.6297
0
LINE
8
BLACK
6
CONTINUOUS
10
3.94455
20
-2.6297
11
3.94459
21
-2.62952
0
LINE
8
BLACK
6
CONTINUOUS
10
3.94459
20
-2.62952
11
3.94453
21
-2.62936
0
LINE
8
BLACK
6
CONTINUOUS
10
3.94453
20
-2.62936
11
3.94453
21
-2.62373
0
LINE
8
BLACK
6
CONTINUOUS
10
3.94453
20
-2.62373
11
3.9447
21
-2.62272
0
LINE
8
BLACK
6
CONTINUOUS
10
3.9447
20
-2.62272
11
3.94482
21
-2.62259
0
LINE
8
BLACK
6
CONTINUOUS
10
3.94482
20
-2.62259
11
3.94484
21
-2.62241
0
LINE
8
BLACK
6
CONTINUOUS
10
3.94484
20
-2.62241
11
3.94586
21
-2.62037
0
LINE
8
BLACK
6
CONTINUOUS
10
3.94586
20
-2.62037
11
3.94492
21
-2.61959
0
LINE
8
BLACK
6
CONTINUOUS
10
3.94492
20
-2.61959
11
3.94457
21
-2.6176
0
LINE
8
BLACK
6
CONTINUOUS
10
3.94457
20
-2.6176
11
3.94558
21
-2.61585
0
LINE
8
BLACK
6
CONTINUOUS
10
3.94558
20
-2.61585
11
3.94748
21
-2.61516
0
LINE
8
BLACK
6
CONTINUOUS
10
3.94748
20
-2.61516
11
3.97373
21
-2.61516
0
LINE
8
BLACK
6
CONTINUOUS
10
3.97373
20
-2.61516
11
3.97474
21
-2.61534
0
LINE
8
BLACK
6
CONTINUOUS
10
3.97474
20
-2.57971
11
3.97628
21
-2.58101
0
LINE
8
BLACK
6
CONTINUOUS
10
3.97628
20
-2.58101
11
3.97663
21
-2.583
0
LINE
8
BLACK
6
CONTINUOUS
10
3.97663
20
-2.583
11
3.97562
21
-2.58475
0
LINE
8
BLACK
6
CONTINUOUS
10
3.97562
20
-2.58475
11
3.97373
21
-2.58544
0
LINE
8
BLACK
6
CONTINUOUS
10
3.97373
20
-2.58544
11
3.95245
21
-2.58544
0
LINE
8
BLACK
6
CONTINUOUS
10
3.95245
20
-2.58544
11
3.95178
21
-2.58611
0
LINE
8
BLACK
6
CONTINUOUS
10
3.95178
20
-2.58611
11
3.95043
21
-2.58881
0
LINE
8
BLACK
6
CONTINUOUS
10
3.95043
20
-2.58881
11
3.95043
21
-2.59304
0
LINE
8
BLACK
6
CONTINUOUS
10
3.95043
20
-2.59304
11
3.95155
21
-2.59529
0
LINE
8
BLACK
6
CONTINUOUS
10
3.95155
20
-2.59529
11
3.9538
21
-2.59641
0
LINE
8
BLACK
6
CONTINUOUS
10
3.9538
20
-2.59641
11
3.97373
21
-2.59641
0
LINE
8
BLACK
6
CONTINUOUS
10
3.97373
20
-2.59641
11
3.97474
21
-2.59659
0
LINE
8
BLACK
6
CONTINUOUS
10
3.97474
20
-2.59659
11
3.97628
21
-2.59789
0
LINE
8
BLACK
6
CONTINUOUS
10
3.97628
20
-2.59789
11
3.97663
21
-2.59988
0
LINE
8
BLACK
6
CONTINUOUS
10
3.97663
20
-2.59988
11
3.97562
21
-2.60162
0
LINE
8
BLACK
6
CONTINUOUS
10
3.97562
20
-2.60162
11
3.97373
21
-2.60232
0
LINE
8
BLACK
6
CONTINUOUS
10
3.97373
20
-2.60232
11
3.9531
21
-2.60232
0
LINE
8
BLACK
6
CONTINUOUS
10
3.9531
20
-2.60232
11
3.95209
21
-2.60214
0
LINE
8
BLACK
6
CONTINUOUS
10
3.95209
20
-2.60214
11
3.95196
21
-2.60202
0
LINE
8
BLACK
6
CONTINUOUS
10
3.95196
20
-2.60202
11
3.95178
21
-2.602
0
LINE
8
BLACK
6
CONTINUOUS
10
3.95178
20
-2.602
11
3.94803
21
-2.60013
0
LINE
8
BLACK
6
CONTINUOUS
10
3.94803
20
-2.60013
11
3.94721
21
-2.59952
0
LINE
8
BLACK
6
CONTINUOUS
10
3.94721
20
-2.59952
11
3.94703
21
-2.59911
0
LINE
8
BLACK
6
CONTINUOUS
10
3.94703
20
-2.59911
11
3.94671
21
-2.59881
0
LINE
8
BLACK
6
CONTINUOUS
10
3.94671
20
-2.59881
11
3.94484
21
-2.59506
0
LINE
8
BLACK
6
CONTINUOUS
10
3.94484
20
-2.59506
11
3.94455
21
-2.59408
0
LINE
8
BLACK
6
CONTINUOUS
10
3.94455
20
-2.59408
11
3.94459
21
-2.5939
0
LINE
8
BLACK
6
CONTINUOUS
10
3.94459
20
-2.5939
11
3.94453
21
-2.59374
0
LINE
8
BLACK
6
CONTINUOUS
10
3.94453
20
-2.59374
11
3.94453
21
-2.58811
0
LINE
8
BLACK
6
CONTINUOUS
10
3.94453
20
-2.58811
11
3.9447
21
-2.5871
0
LINE
8
BLACK
6
CONTINUOUS
10
3.9447
20
-2.5871
11
3.94482
21
-2.58697
0
LINE
8
BLACK
6
CONTINUOUS
10
3.94482
20
-2.58697
11
3.94484
21
-2.58679
0
LINE
8
BLACK
6
CONTINUOUS
10
3.94484
20
-2.58679
11
3.94586
21
-2.58475
0
LINE
8
BLACK
6
CONTINUOUS
10
3.94586
20
-2.58475
11
3.94492
21
-2.58397
0
LINE
8
BLACK
6
CONTINUOUS
10
3.94492
20
-2.58397
11
3.94457
21
-2.58198
0
LINE
8
BLACK
6
CONTINUOUS
10
3.94457
20
-2.58198
11
3.94558
21
-2.58023
0
LINE
8
BLACK
6
CONTINUOUS
10
3.94558
20
-2.58023
11
3.94748
21
-2.57954
0
LINE
8
BLACK
6
CONTINUOUS
10
3.94748
20
-2.57954
11
3.97373
21
-2.57954
0
LINE
8
BLACK
6
CONTINUOUS
10
3.97373
20
-2.57954
11
3.97474
21
-2.57971
0
LINE
8
BLACK
6
CONTINUOUS
10
3.96724
20
-2.54222
11
3.96737
21
-2.54233
0
LINE
8
BLACK
6
CONTINUOUS
10
3.96737
20
-2.54233
11
3.96755
21
-2.54235
0
LINE
8
BLACK
6
CONTINUOUS
10
3.96755
20
-2.54235
11
3.9713
21
-2.54423
0
LINE
8
BLACK
6
CONTINUOUS
10
3.9713
20
-2.54423
11
3.97201
21
-2.54475
0
LINE
8
BLACK
6
CONTINUOUS
10
3.97201
20
-2.54475
11
3.97206
21
-2.54478
0
LINE
8
BLACK
6
CONTINUOUS
10
3.97206
20
-2.54478
11
3.97394
21
-2.54666
0
LINE
8
BLACK
6
CONTINUOUS
10
3.97394
20
-2.54666
11
3.97444
21
-2.54738
0
LINE
8
BLACK
6
CONTINUOUS
10
3.97444
20
-2.54738
11
3.97449
21
-2.54742
0
LINE
8
BLACK
6
CONTINUOUS
10
3.97449
20
-2.54742
11
3.97637
21
-2.55117
0
LINE
8
BLACK
6
CONTINUOUS
10
3.97637
20
-2.55117
11
3.97666
21
-2.55216
0
LINE
8
BLACK
6
CONTINUOUS
10
3.97666
20
-2.55216
11
3.97662
21
-2.55233
0
LINE
8
BLACK
6
CONTINUOUS
10
3.97662
20
-2.55233
11
3.97668
21
-2.55249
0
LINE
8
BLACK
6
CONTINUOUS
10
3.97668
20
-2.55249
11
3.97668
21
-2.55812
0
LINE
8
BLACK
6
CONTINUOUS
10
3.97668
20
-2.55812
11
3.9765
21
-2.55913
0
LINE
8
BLACK
6
CONTINUOUS
10
3.9765
20
-2.55913
11
3.97639
21
-2.55926
0
LINE
8
BLACK
6
CONTINUOUS
10
3.97639
20
-2.55926
11
3.97637
21
-2.55944
0
LINE
8
BLACK
6
CONTINUOUS
10
3.97637
20
-2.55944
11
3.97449
21
-2.56319
0
LINE
8
BLACK
6
CONTINUOUS
10
3.97449
20
-2.56319
11
3.97397
21
-2.5639
0
LINE
8
BLACK
6
CONTINUOUS
10
3.97397
20
-2.5639
11
3.97394
21
-2.56396
0
LINE
8
BLACK
6
CONTINUOUS
10
3.97394
20
-2.56396
11
3.97206
21
-2.56583
0
LINE
8
BLACK
6
CONTINUOUS
10
3.97206
20
-2.56583
11
3.97134
21
-2.56634
0
LINE
8
BLACK
6
CONTINUOUS
10
3.97134
20
-2.56634
11
3.9713
21
-2.56638
0
LINE
8
BLACK
6
CONTINUOUS
10
3.9713
20
-2.56638
11
3.96755
21
-2.56826
0
LINE
8
BLACK
6
CONTINUOUS
10
3.96755
20
-2.56826
11
3.96656
21
-2.56855
0
LINE
8
BLACK
6
CONTINUOUS
10
3.96656
20
-2.56855
11
3.96639
21
-2.56851
0
LINE
8
BLACK
6
CONTINUOUS
10
3.96639
20
-2.56851
11
3.96623
21
-2.56857
0
LINE
8
BLACK
6
CONTINUOUS
10
3.96623
20
-2.56857
11
3.95498
21
-2.56857
0
LINE
8
BLACK
6
CONTINUOUS
10
3.95498
20
-2.56857
11
3.95397
21
-2.56839
0
LINE
8
BLACK
6
CONTINUOUS
10
3.95397
20
-2.56839
11
3.95383
21
-2.56828
0
LINE
8
BLACK
6
CONTINUOUS
10
3.95383
20
-2.56828
11
3.95366
21
-2.56826
0
LINE
8
BLACK
6
CONTINUOUS
10
3.95366
20
-2.56826
11
3.94991
21
-2.56638
0
LINE
8
BLACK
6
CONTINUOUS
10
3.94991
20
-2.56638
11
3.9492
21
-2.56586
0
LINE
8
BLACK
6
CONTINUOUS
10
3.9492
20
-2.56586
11
3.94914
21
-2.56583
0
LINE
8
BLACK
6
CONTINUOUS
10
3.94914
20
-2.56583
11
3.94727
21
-2.56396
0
LINE
8
BLACK
6
CONTINUOUS
10
3.94727
20
-2.56396
11
3.94676
21
-2.56323
0
LINE
8
BLACK
6
CONTINUOUS
10
3.94676
20
-2.56323
11
3.94671
21
-2.56319
0
LINE
8
BLACK
6
CONTINUOUS
10
3.94671
20
-2.56319
11
3.94484
21
-2.55944
0
LINE
8
BLACK
6
CONTINUOUS
10
3.94484
20
-2.55944
11
3.94455
21
-2.55846
0
LINE
8
BLACK
6
CONTINUOUS
10
3.94455
20
-2.55846
11
3.94459
21
-2.55828
0
LINE
8
BLACK
6
CONTINUOUS
10
3.94459
20
-2.55828
11
3.94453
21
-2.55812
0
LINE
8
BLACK
6
CONTINUOUS
10
3.94453
20
-2.55812
11
3.94453
21
-2.55249
0
LINE
8
BLACK
6
CONTINUOUS
10
3.94453
20
-2.55249
11
3.9447
21
-2.55148
0
LINE
8
BLACK
6
CONTINUOUS
10
3.9447
20
-2.55148
11
3.94482
21
-2.55135
0
LINE
8
BLACK
6
CONTINUOUS
10
3.94482
20
-2.55135
11
3.94484
21
-2.55117
0
LINE
8
BLACK
6
CONTINUOUS
10
3.94484
20
-2.55117
11
3.94671
21
-2.54742
0
LINE
8
BLACK
6
CONTINUOUS
10
3.94671
20
-2.54742
11
3.94724
21
-2.54671
0
LINE
8
BLACK
6
CONTINUOUS
10
3.94724
20
-2.54671
11
3.94727
21
-2.54666
0
LINE
8
BLACK
6
CONTINUOUS
10
3.94727
20
-2.54666
11
3.94914
21
-2.54478
0
LINE
8
BLACK
6
CONTINUOUS
10
3.94914
20
-2.54478
11
3.94986
21
-2.54427
0
LINE
8
BLACK
6
CONTINUOUS
10
3.94986
20
-2.54427
11
3.94991
21
-2.54423
0
LINE
8
BLACK
6
CONTINUOUS
10
3.94991
20
-2.54423
11
3.95366
21
-2.54235
0
LINE
8
BLACK
6
CONTINUOUS
10
3.95366
20
-2.54235
11
3.95464
21
-2.54206
0
LINE
8
BLACK
6
CONTINUOUS
10
3.95464
20
-2.54206
11
3.95481
21
-2.5421
0
LINE
8
BLACK
6
CONTINUOUS
10
3.95481
20
-2.5421
11
3.95498
21
-2.54204
0
LINE
8
BLACK
6
CONTINUOUS
10
3.95498
20
-2.54204
11
3.96623
21
-2.54204
0
LINE
8
BLACK
6
CONTINUOUS
10
3.96623
20
-2.54204
11
3.96724
21
-2.54222
0
LINE
8
BLACK
6
CONTINUOUS
10
3.95298
20
-2.5493
11
3.95178
21
-2.55049
0
LINE
8
BLACK
6
CONTINUOUS
10
3.95178
20
-2.55049
11
3.95043
21
-2.55319
0
LINE
8
BLACK
6
CONTINUOUS
10
3.95043
20
-2.55319
11
3.95043
21
-2.55742
0
LINE
8
BLACK
6
CONTINUOUS
10
3.95043
20
-2.55742
11
3.95178
21
-2.56012
0
LINE
8
BLACK
6
CONTINUOUS
10
3.95178
20
-2.56012
11
3.95298
21
-2.56132
0
LINE
8
BLACK
6
CONTINUOUS
10
3.95298
20
-2.56132
11
3.95567
21
-2.56266
0
LINE
8
BLACK
6
CONTINUOUS
10
3.95567
20
-2.56266
11
3.96553
21
-2.56266
0
LINE
8
BLACK
6
CONTINUOUS
10
3.96553
20
-2.56266
11
3.96823
21
-2.56132
0
LINE
8
BLACK
6
CONTINUOUS
10
3.96823
20
-2.56132
11
3.96942
21
-2.56012
0
LINE
8
BLACK
6
CONTINUOUS
10
3.96942
20
-2.56012
11
3.97077
21
-2.55742
0
LINE
8
BLACK
6
CONTINUOUS
10
3.97077
20
-2.55742
11
3.97077
21
-2.55319
0
LINE
8
BLACK
6
CONTINUOUS
10
3.97077
20
-2.55319
11
3.96942
21
-2.55049
0
LINE
8
BLACK
6
CONTINUOUS
10
3.96942
20
-2.55049
11
3.96823
21
-2.5493
0
LINE
8
BLACK
6
CONTINUOUS
10
3.96823
20
-2.5493
11
3.96553
21
-2.54795
0
LINE
8
BLACK
6
CONTINUOUS
10
3.96553
20
-2.54795
11
3.95567
21
-2.54795
0
LINE
8
BLACK
6
CONTINUOUS
10
3.95567
20
-2.54795
11
3.95298
21
-2.5493
0
LINE
8
BLACK
6
CONTINUOUS
10
3.95743
20
-2.50277
11
3.95757
21
-2.50276
0
LINE
8
BLACK
6
CONTINUOUS
10
3.95757
20
-2.50276
11
3.96507
21
-2.50463
0
LINE
8
BLACK
6
CONTINUOUS
10
3.96507
20
-2.50463
11
3.96553
21
-2.50484
0
LINE
8
BLACK
6
CONTINUOUS
10
3.96553
20
-2.50484
11
3.96567
21
-2.50486
0
LINE
8
BLACK
6
CONTINUOUS
10
3.96567
20
-2.50486
11
3.96942
21
-2.50673
0
LINE
8
BLACK
6
CONTINUOUS
10
3.96942
20
-2.50673
11
3.97013
21
-2.50726
0
LINE
8
BLACK
6
CONTINUOUS
10
3.97013
20
-2.50726
11
3.97019
21
-2.50729
0
LINE
8
BLACK
6
CONTINUOUS
10
3.97019
20
-2.50729
11
3.97394
21
-2.51104
0
LINE
8
BLACK
6
CONTINUOUS
10
3.97394
20
-2.51104
11
3.97453
21
-2.51188
0
LINE
8
BLACK
6
CONTINUOUS
10
3.97453
20
-2.51188
11
3.97454
21
-2.51205
0
LINE
8
BLACK
6
CONTINUOUS
10
3.97454
20
-2.51205
11
3.97465
21
-2.51219
0
LINE
8
BLACK
6
CONTINUOUS
10
3.97465
20
-2.51219
11
3.97653
21
-2.51781
0
LINE
8
BLACK
6
CONTINUOUS
10
3.97653
20
-2.51781
11
3.97666
21
-2.51869
0
LINE
8
BLACK
6
CONTINUOUS
10
3.97666
20
-2.51869
11
3.97668
21
-2.51875
0
LINE
8
BLACK
6
CONTINUOUS
10
3.97668
20
-2.51875
11
3.97668
21
-2.5225
0
LINE
8
BLACK
6
CONTINUOUS
10
3.97668
20
-2.5225
11
3.97652
21
-2.52337
0
LINE
8
BLACK
6
CONTINUOUS
10
3.97652
20
-2.52337
11
3.97653
21
-2.52343
0
LINE
8
BLACK
6
CONTINUOUS
10
3.97653
20
-2.52343
11
3.97465
21
-2.52906
0
LINE
8
BLACK
6
CONTINUOUS
10
3.97465
20
-2.52906
11
3.97416
21
-2.52996
0
LINE
8
BLACK
6
CONTINUOUS
10
3.97416
20
-2.52996
11
3.97401
21
-2.53005
0
LINE
8
BLACK
6
CONTINUOUS
10
3.97401
20
-2.53005
11
3.97394
21
-2.53021
0
LINE
8
BLACK
6
CONTINUOUS
10
3.97394
20
-2.53021
11
3.97206
21
-2.53208
0
LINE
8
BLACK
6
CONTINUOUS
10
3.97206
20
-2.53208
11
3.97122
21
-2.53267
0
LINE
8
BLACK
6
CONTINUOUS
10
3.97122
20
-2.53267
11
3.96921
21
-2.53285
0
LINE
8
BLACK
6
CONTINUOUS
10
3.96921
20
-2.53285
11
3.96756
21
-2.53169
0
LINE
8
BLACK
6
CONTINUOUS
10
3.96756
20
-2.53169
11
3.96703
21
-2.52974
0
LINE
8
BLACK
6
CONTINUOUS
10
3.96703
20
-2.52974
11
3.96789
21
-2.52791
0
LINE
8
BLACK
6
CONTINUOUS
10
3.96789
20
-2.52791
11
3.96927
21
-2.52653
0
LINE
8
BLACK
6
CONTINUOUS
10
3.96927
20
-2.52653
11
3.97077
21
-2.52202
0
LINE
8
BLACK
6
CONTINUOUS
10
3.97077
20
-2.52202
11
3.97077
21
-2.51923
0
LINE
8
BLACK
6
CONTINUOUS
10
3.97077
20
-2.51923
11
3.96927
21
-2.51472
0
LINE
8
BLACK
6
CONTINUOUS
10
3.96927
20
-2.51472
11
3.96635
21
-2.5118
0
LINE
8
BLACK
6
CONTINUOUS
10
3.96635
20
-2.5118
11
3.96332
21
-2.51029
0
LINE
8
BLACK
6
CONTINUOUS
10
3.96332
20
-2.51029
11
3.95649
21
-2.50858
0
LINE
8
BLACK
6
CONTINUOUS
10
3.95649
20
-2.50858
11
3.95159
21
-2.50858
0
LINE
8
BLACK
6
CONTINUOUS
10
3.95159
20
-2.50858
11
3.94476
21
-2.51029
0
LINE
8
BLACK
6
CONTINUOUS
10
3.94476
20
-2.51029
11
3.94173
21
-2.5118
0
LINE
8
BLACK
6
CONTINUOUS
10
3.94173
20
-2.5118
11
3.93881
21
-2.51472
0
LINE
8
BLACK
6
CONTINUOUS
10
3.93881
20
-2.51472
11
3.93731
21
-2.51923
0
LINE
8
BLACK
6
CONTINUOUS
10
3.93731
20
-2.51923
11
3.93731
21
-2.52202
0
LINE
8
BLACK
6
CONTINUOUS
10
3.93731
20
-2.52202
11
3.93881
21
-2.52653
0
LINE
8
BLACK
6
CONTINUOUS
10
3.93881
20
-2.52653
11
3.94019
21
-2.52791
0
LINE
8
BLACK
6
CONTINUOUS
10
3.94019
20
-2.52791
11
3.94078
21
-2.52875
0
LINE
8
BLACK
6
CONTINUOUS
10
3.94078
20
-2.52875
11
3.94096
21
-2.53076
0
LINE
8
BLACK
6
CONTINUOUS
10
3.94096
20
-2.53076
11
3.9398
21
-2.53241
0
LINE
8
BLACK
6
CONTINUOUS
10
3.9398
20
-2.53241
11
3.93785
21
-2.53294
0
LINE
8
BLACK
6
CONTINUOUS
10
3.93785
20
-2.53294
11
3.93602
21
-2.53208
0
LINE
8
BLACK
6
CONTINUOUS
10
3.93602
20
-2.53208
11
3.93414
21
-2.53021
0
LINE
8
BLACK
6
CONTINUOUS
10
3.93414
20
-2.53021
11
3.93355
21
-2.52937
0
LINE
8
BLACK
6
CONTINUOUS
10
3.93355
20
-2.52937
11
3.93354
21
-2.52919
0
LINE
8
BLACK
6
CONTINUOUS
10
3.93354
20
-2.52919
11
3.93343
21
-2.52906
0
LINE
8
BLACK
6
CONTINUOUS
10
3.93343
20
-2.52906
11
3.93155
21
-2.52343
0
LINE
8
BLACK
6
CONTINUOUS
10
3.93155
20
-2.52343
11
3.93142
21
-2.52256
0
LINE
8
BLACK
6
CONTINUOUS
10
3.93142
20
-2.52256
11
3.9314
21
-2.5225
0
LINE
8
BLACK
6
CONTINUOUS
10
3.9314
20
-2.5225
11
3.9314
21
-2.51875
0
LINE
8
BLACK
6
CONTINUOUS
10
3.9314
20
-2.51875
11
3.93156
21
-2.51788
0
LINE
8
BLACK
6
CONTINUOUS
10
3.93156
20
-2.51788
11
3.93155
21
-2.51781
0
LINE
8
BLACK
6
CONTINUOUS
10
3.93155
20
-2.51781
11
3.93343
21
-2.51219
0
LINE
8
BLACK
6
CONTINUOUS
10
3.93343
20
-2.51219
11
3.93392
21
-2.51129
0
LINE
8
BLACK
6
CONTINUOUS
10
3.93392
20
-2.51129
11
3.93407
21
-2.5112
0
LINE
8
BLACK
6
CONTINUOUS
10
3.93407
20
-2.5112
11
3.93414
21
-2.51104
0
LINE
8
BLACK
6
CONTINUOUS
10
3.93414
20
-2.51104
11
3.93789
21
-2.50729
0
LINE
8
BLACK
6
CONTINUOUS
10
3.93789
20
-2.50729
11
3.93861
21
-2.50678
0
LINE
8
BLACK
6
CONTINUOUS
10
3.93861
20
-2.50678
11
3.93866
21
-2.50673
0
LINE
8
BLACK
6
CONTINUOUS
10
3.93866
20
-2.50673
11
3.94241
21
-2.50486
0
LINE
8
BLACK
6
CONTINUOUS
10
3.94241
20
-2.50486
11
3.9429
21
-2.50471
0
LINE
8
BLACK
6
CONTINUOUS
10
3.9429
20
-2.50471
11
3.94301
21
-2.50463
0
LINE
8
BLACK
6
CONTINUOUS
10
3.94301
20
-2.50463
11
3.95051
21
-2.50276
0
LINE
8
BLACK
6
CONTINUOUS
10
3.95051
20
-2.50276
11
3.9511
21
-2.50272
0
LINE
8
BLACK
6
CONTINUOUS
10
3.9511
20
-2.50272
11
3.95123
21
-2.50267
0
LINE
8
BLACK
6
CONTINUOUS
10
3.95123
20
-2.50267
11
3.95685
21
-2.50267
0
LINE
8
BLACK
6
CONTINUOUS
10
3.95685
20
-2.50267
11
3.95743
21
-2.50277
0
LINE
8
BLACK
6
CONTINUOUS
10
3.69598
20
-2.22422
11
3.70819
21
-2.22735
0
LINE
8
BLACK
6
CONTINUOUS
10
3.70819
20
-2.22735
11
3.71991
21
-2.232
0
LINE
8
BLACK
6
CONTINUOUS
10
3.71991
20
-2.232
11
3.73096
21
-2.23807
0
LINE
8
BLACK
6
CONTINUOUS
10
3.73096
20
-2.23807
11
3.74116
21
-2.24548
0
LINE
8
BLACK
6
CONTINUOUS
10
3.74116
20
-2.24548
11
3.75035
21
-2.25411
0
LINE
8
BLACK
6
CONTINUOUS
10
3.75035
20
-2.25411
11
3.75839
21
-2.26382
0
LINE
8
BLACK
6
CONTINUOUS
10
3.75839
20
-2.26382
11
3.76514
21
-2.27447
0
LINE
8
BLACK
6
CONTINUOUS
10
3.76514
20
-2.27447
11
3.77051
21
-2.28588
0
LINE
8
BLACK
6
CONTINUOUS
10
3.77051
20
-2.28588
11
3.7744
21
-2.29787
0
LINE
8
BLACK
6
CONTINUOUS
10
3.7744
20
-2.29787
11
3.77677
21
-2.31025
0
LINE
8
BLACK
6
CONTINUOUS
10
3.77677
20
-2.31025
11
3.77756
21
-2.32283
0
LINE
8
BLACK
6
CONTINUOUS
10
3.77756
20
-2.32283
11
3.77677
21
-2.33542
0
LINE
8
BLACK
6
CONTINUOUS
10
3.77677
20
-2.33542
11
3.7744
21
-2.3478
0
LINE
8
BLACK
6
CONTINUOUS
10
3.7744
20
-2.3478
11
3.77051
21
-2.35979
0
LINE
8
BLACK
6
CONTINUOUS
10
3.77051
20
-2.35979
11
3.76514
21
-2.3712
0
LINE
8
BLACK
6
CONTINUOUS
10
3.76514
20
-2.3712
11
3.75839
21
-2.38184
0
LINE
8
BLACK
6
CONTINUOUS
10
3.75839
20
-2.38184
11
3.75035
21
-2.39156
0
LINE
8
BLACK
6
CONTINUOUS
10
3.75035
20
-2.39156
11
3.74116
21
-2.40019
0
LINE
8
BLACK
6
CONTINUOUS
10
3.74116
20
-2.40019
11
3.73096
21
-2.4076
0
LINE
8
BLACK
6
CONTINUOUS
10
3.73096
20
-2.4076
11
3.71991
21
-2.41367
0
LINE
8
BLACK
6
CONTINUOUS
10
3.71991
20
-2.41367
11
3.70819
21
-2.41831
0
LINE
8
BLACK
6
CONTINUOUS
10
3.70819
20
-2.41831
11
3.69598
21
-2.42145
0
LINE
8
BLACK
6
CONTINUOUS
10
3.69598
20
-2.42145
11
3.68347
21
-2.42303
0
LINE
8
BLACK
6
CONTINUOUS
10
3.68347
20
-2.42303
11
3.67086
21
-2.42303
0
LINE
8
BLACK
6
CONTINUOUS
10
3.67086
20
-2.42303
11
3.65835
21
-2.42145
0
LINE
8
BLACK
6
CONTINUOUS
10
3.65835
20
-2.42145
11
3.64614
21
-2.41831
0
LINE
8
BLACK
6
CONTINUOUS
10
3.64614
20
-2.41831
11
3.63442
21
-2.41367
0
LINE
8
BLACK
6
CONTINUOUS
10
3.63442
20
-2.41367
11
3.62337
21
-2.4076
0
LINE
8
BLACK
6
CONTINUOUS
10
3.62337
20
-2.4076
11
3.61317
21
-2.40019
0
LINE
8
BLACK
6
CONTINUOUS
10
3.61317
20
-2.40019
11
3.60398
21
-2.39156
0
LINE
8
BLACK
6
CONTINUOUS
10
3.60398
20
-2.39156
11
3.59595
21
-2.38184
0
LINE
8
BLACK
6
CONTINUOUS
10
3.59595
20
-2.38184
11
3.58919
21
-2.3712
0
LINE
8
BLACK
6
CONTINUOUS
10
3.58919
20
-2.3712
11
3.58382
21
-2.35979
0
LINE
8
BLACK
6
CONTINUOUS
10
3.58382
20
-2.35979
11
3.57993
21
-2.3478
0
LINE
8
BLACK
6
CONTINUOUS
10
3.57993
20
-2.3478
11
3.57756
21
-2.33542
0
LINE
8
BLACK
6
CONTINUOUS
10
3.57756
20
-2.33542
11
3.57677
21
-2.32283
0
LINE
8
BLACK
6
CONTINUOUS
10
3.57677
20
-2.32283
11
3.57756
21
-2.31025
0
LINE
8
BLACK
6
CONTINUOUS
10
3.57756
20
-2.31025
11
3.57993
21
-2.29787
0
LINE
8
BLACK
6
CONTINUOUS
10
3.57993
20
-2.29787
11
3.58382
21
-2.28588
0
LINE
8
BLACK
6
CONTINUOUS
10
3.58382
20
-2.28588
11
3.58919
21
-2.27447
0
LINE
8
BLACK
6
CONTINUOUS
10
3.58919
20
-2.27447
11
3.59595
21
-2.26382
0
LINE
8
BLACK
6
CONTINUOUS
10
3.59595
20
-2.26382
11
3.60398
21
-2.25411
0
LINE
8
BLACK
6
CONTINUOUS
10
3.60398
20
-2.25411
11
3.61317
21
-2.24548
0
LINE
8
BLACK
6
CONTINUOUS
10
3.61317
20
-2.24548
11
3.62337
21
-2.23807
0
LINE
8
BLACK
6
CONTINUOUS
10
3.62337
20
-2.23807
11
3.63442
21
-2.232
0
LINE
8
BLACK
6
CONTINUOUS
10
3.63442
20
-2.232
11
3.64614
21
-2.22735
0
LINE
8
BLACK
6
CONTINUOUS
10
3.64614
20
-2.22735
11
3.65835
21
-2.22422
0
LINE
8
BLACK
6
CONTINUOUS
10
3.65835
20
-2.22422
11
3.67086
21
-2.22264
0
LINE
8
BLACK
6
CONTINUOUS
10
3.67086
20
-2.22264
11
3.68347
21
-2.22264
0
LINE
8
BLACK
6
CONTINUOUS
10
3.68347
20
-2.22264
11
3.69598
21
-2.22422
0
LINE
8
BLACK
6
CONTINUOUS
10
3.65814
20
-2.29885
11
3.65831
21
-2.29884
0
LINE
8
BLACK
6
CONTINUOUS
10
3.65831
20
-2.29884
11
3.659
21
-2.29935
0
LINE
8
BLACK
6
CONTINUOUS
10
3.659
20
-2.29935
11
3.65974
21
-2.29978
0
LINE
8
BLACK
6
CONTINUOUS
10
3.65974
20
-2.29978
11
3.6598
21
-2.29994
0
LINE
8
BLACK
6
CONTINUOUS
10
3.6598
20
-2.29994
11
3.65994
21
-2.30004
0
LINE
8
BLACK
6
CONTINUOUS
10
3.65994
20
-2.30004
11
3.66352
21
-2.30542
0
LINE
8
BLACK
6
CONTINUOUS
10
3.66352
20
-2.30542
11
3.66673
21
-2.30863
0
LINE
8
BLACK
6
CONTINUOUS
10
3.66673
20
-2.30863
11
3.67005
21
-2.31029
0
LINE
8
BLACK
6
CONTINUOUS
10
3.67005
20
-2.31029
11
3.67087
21
-2.3109
0
LINE
8
BLACK
6
CONTINUOUS
10
3.67087
20
-2.3109
11
3.67168
21
-2.31275
0
LINE
8
BLACK
6
CONTINUOUS
10
3.67168
20
-2.31275
11
3.6711
21
-2.31469
0
LINE
8
BLACK
6
CONTINUOUS
10
3.6711
20
-2.31469
11
3.66941
21
-2.3158
0
LINE
8
BLACK
6
CONTINUOUS
10
3.66941
20
-2.3158
11
3.66741
21
-2.31557
0
LINE
8
BLACK
6
CONTINUOUS
10
3.66741
20
-2.31557
11
3.66366
21
-2.31369
0
LINE
8
BLACK
6
CONTINUOUS
10
3.66366
20
-2.31369
11
3.66295
21
-2.31317
0
LINE
8
BLACK
6
CONTINUOUS
10
3.66295
20
-2.31317
11
3.66289
21
-2.31314
0
LINE
8
BLACK
6
CONTINUOUS
10
3.66289
20
-2.31314
11
3.66043
21
-2.31068
0
LINE
8
BLACK
6
CONTINUOUS
10
3.66043
20
-2.31068
11
3.66043
21
-2.3381
0
LINE
8
BLACK
6
CONTINUOUS
10
3.66043
20
-2.3381
11
3.66873
21
-2.3381
0
LINE
8
BLACK
6
CONTINUOUS
10
3.66873
20
-2.3381
11
3.66974
21
-2.33827
0
LINE
8
BLACK
6
CONTINUOUS
10
3.66974
20
-2.33827
11
3.67129
21
-2.33957
0
LINE
8
BLACK
6
CONTINUOUS
10
3.67129
20
-2.33957
11
3.67164
21
-2.34156
0
LINE
8
BLACK
6
CONTINUOUS
10
3.67164
20
-2.34156
11
3.67063
21
-2.34331
0
LINE
8
BLACK
6
CONTINUOUS
10
3.67063
20
-2.34331
11
3.66873
21
-2.344
0
LINE
8
BLACK
6
CONTINUOUS
10
3.66873
20
-2.344
11
3.64623
21
-2.344
0
LINE
8
BLACK
6
CONTINUOUS
10
3.64623
20
-2.344
11
3.64522
21
-2.34382
0
LINE
8
BLACK
6
CONTINUOUS
10
3.64522
20
-2.34382
11
3.64367
21
-2.34252
0
LINE
8
BLACK
6
CONTINUOUS
10
3.64367
20
-2.34252
11
3.64332
21
-2.34054
0
LINE
8
BLACK
6
CONTINUOUS
10
3.64332
20
-2.34054
11
3.64433
21
-2.33879
0
LINE
8
BLACK
6
CONTINUOUS
10
3.64433
20
-2.33879
11
3.64623
21
-2.3381
0
LINE
8
BLACK
6
CONTINUOUS
10
3.64623
20
-2.3381
11
3.65453
21
-2.3381
0
LINE
8
BLACK
6
CONTINUOUS
10
3.65453
20
-2.3381
11
3.65453
21
-2.30168
0
LINE
8
BLACK
6
CONTINUOUS
10
3.65453
20
-2.30168
11
3.65471
21
-2.30067
0
LINE
8
BLACK
6
CONTINUOUS
10
3.65471
20
-2.30067
11
3.65481
21
-2.30054
0
LINE
8
BLACK
6
CONTINUOUS
10
3.65481
20
-2.30054
11
3.65483
21
-2.30037
0
LINE
8
BLACK
6
CONTINUOUS
10
3.65483
20
-2.30037
11
3.65545
21
-2.29978
0
LINE
8
BLACK
6
CONTINUOUS
10
3.65545
20
-2.29978
11
3.656
21
-2.29912
0
LINE
8
BLACK
6
CONTINUOUS
10
3.656
20
-2.29912
11
3.65617
21
-2.29909
0
LINE
8
BLACK
6
CONTINUOUS
10
3.65617
20
-2.29909
11
3.65629
21
-2.29897
0
LINE
8
BLACK
6
CONTINUOUS
10
3.65629
20
-2.29897
11
3.65715
21
-2.29892
0
LINE
8
BLACK
6
CONTINUOUS
10
3.65715
20
-2.29892
11
3.65799
21
-2.29877
0
LINE
8
BLACK
6
CONTINUOUS
10
3.65799
20
-2.29877
11
3.65814
21
-2.29885
0
LINE
8
BLACK
6
CONTINUOUS
10
3.69584
20
-2.29888
11
3.69591
21
-2.29888
0
LINE
8
BLACK
6
CONTINUOUS
10
3.69591
20
-2.29888
11
3.70153
21
-2.30075
0
LINE
8
BLACK
6
CONTINUOUS
10
3.70153
20
-2.30075
11
3.70244
21
-2.30124
0
LINE
8
BLACK
6
CONTINUOUS
10
3.70244
20
-2.30124
11
3.70253
21
-2.30139
0
LINE
8
BLACK
6
CONTINUOUS
10
3.70253
20
-2.30139
11
3.70269
21
-2.30146
0
LINE
8
BLACK
6
CONTINUOUS
10
3.70269
20
-2.30146
11
3.70644
21
-2.30521
0
LINE
8
BLACK
6
CONTINUOUS
10
3.70644
20
-2.30521
11
3.70694
21
-2.30594
0
LINE
8
BLACK
6
CONTINUOUS
10
3.70694
20
-2.30594
11
3.70699
21
-2.30598
0
LINE
8
BLACK
6
CONTINUOUS
10
3.70699
20
-2.30598
11
3.70887
21
-2.30973
0
LINE
8
BLACK
6
CONTINUOUS
10
3.70887
20
-2.30973
11
3.70901
21
-2.31022
0
LINE
8
BLACK
6
CONTINUOUS
10
3.70901
20
-2.31022
11
3.70909
21
-2.31034
0
LINE
8
BLACK
6
CONTINUOUS
10
3.70909
20
-2.31034
11
3.71096
21
-2.31783
0
LINE
8
BLACK
6
CONTINUOUS
10
3.71096
20
-2.31783
11
3.71101
21
-2.31842
0
LINE
8
BLACK
6
CONTINUOUS
10
3.71101
20
-2.31842
11
3.71105
21
-2.31855
0
LINE
8
BLACK
6
CONTINUOUS
10
3.71105
20
-2.31855
11
3.71105
21
-2.32418
0
LINE
8
BLACK
6
CONTINUOUS
10
3.71105
20
-2.32418
11
3.71095
21
-2.32476
0
LINE
8
BLACK
6
CONTINUOUS
10
3.71095
20
-2.32476
11
3.71096
21
-2.32489
0
LINE
8
BLACK
6
CONTINUOUS
10
3.71096
20
-2.32489
11
3.70909
21
-2.33239
0
LINE
8
BLACK
6
CONTINUOUS
10
3.70909
20
-2.33239
11
3.70888
21
-2.33286
0
LINE
8
BLACK
6
CONTINUOUS
10
3.70888
20
-2.33286
11
3.70887
21
-2.33299
0
LINE
8
BLACK
6
CONTINUOUS
10
3.70887
20
-2.33299
11
3.70699
21
-2.33674
0
LINE
8
BLACK
6
CONTINUOUS
10
3.70699
20
-2.33674
11
3.70646
21
-2.33745
0
LINE
8
BLACK
6
CONTINUOUS
10
3.70646
20
-2.33745
11
3.70644
21
-2.33751
0
LINE
8
BLACK
6
CONTINUOUS
10
3.70644
20
-2.33751
11
3.70269
21
-2.34126
0
LINE
8
BLACK
6
CONTINUOUS
10
3.70269
20
-2.34126
11
3.70185
21
-2.34185
0
LINE
8
BLACK
6
CONTINUOUS
10
3.70185
20
-2.34185
11
3.70167
21
-2.34186
0
LINE
8
BLACK
6
CONTINUOUS
10
3.70167
20
-2.34186
11
3.70153
21
-2.34197
0
LINE
8
BLACK
6
CONTINUOUS
10
3.70153
20
-2.34197
11
3.69591
21
-2.34385
0
LINE
8
BLACK
6
CONTINUOUS
10
3.69591
20
-2.34385
11
3.69504
21
-2.34398
0
LINE
8
BLACK
6
CONTINUOUS
10
3.69504
20
-2.34398
11
3.69498
21
-2.344
0
LINE
8
BLACK
6
CONTINUOUS
10
3.69498
20
-2.344
11
3.69123
21
-2.344
0
LINE
8
BLACK
6
CONTINUOUS
10
3.69123
20
-2.344
11
3.69036
21
-2.34385
0
LINE
8
BLACK
6
CONTINUOUS
10
3.69036
20
-2.34385
11
3.69029
21
-2.34385
0
LINE
8
BLACK
6
CONTINUOUS
10
3.69029
20
-2.34385
11
3.68467
21
-2.34197
0
LINE
8
BLACK
6
CONTINUOUS
10
3.68467
20
-2.34197
11
3.68377
21
-2.34149
0
LINE
8
BLACK
6
CONTINUOUS
10
3.68377
20
-2.34149
11
3.68367
21
-2.34134
0
LINE
8
BLACK
6
CONTINUOUS
10
3.68367
20
-2.34134
11
3.68351
21
-2.34126
0
LINE
8
BLACK
6
CONTINUOUS
10
3.68351
20
-2.34126
11
3.68164
21
-2.33939
0
LINE
8
BLACK
6
CONTINUOUS
10
3.68164
20
-2.33939
11
3.68105
21
-2.33855
0
LINE
8
BLACK
6
CONTINUOUS
10
3.68105
20
-2.33855
11
3.68087
21
-2.33653
0
LINE
8
BLACK
6
CONTINUOUS
10
3.68087
20
-2.33653
11
3.68203
21
-2.33488
0
LINE
8
BLACK
6
CONTINUOUS
10
3.68203
20
-2.33488
11
3.68398
21
-2.33436
0
LINE
8
BLACK
6
CONTINUOUS
10
3.68398
20
-2.33436
11
3.68581
21
-2.33521
0
LINE
8
BLACK
6
CONTINUOUS
10
3.68581
20
-2.33521
11
3.6872
21
-2.33659
0
LINE
8
BLACK
6
CONTINUOUS
10
3.6872
20
-2.33659
11
3.69171
21
-2.3381
0
LINE
8
BLACK
6
CONTINUOUS
10
3.69171
20
-2.3381
11
3.6945
21
-2.3381
0
LINE
8
BLACK
6
CONTINUOUS
10
3.6945
20
-2.3381
11
3.699
21
-2.33659
0
LINE
8
BLACK
6
CONTINUOUS
10
3.699
20
-2.33659
11
3.70192
21
-2.33367
0
LINE
8
BLACK
6
CONTINUOUS
10
3.70192
20
-2.33367
11
3.70344
21
-2.33064
0
LINE
8
BLACK
6
CONTINUOUS
10
3.70344
20
-2.33064
11
3.70515
21
-2.32381
0
LINE
8
BLACK
6
CONTINUOUS
10
3.70515
20
-2.32381
11
3.70515
21
-2.31891
0
LINE
8
BLACK
6
CONTINUOUS
10
3.70515
20
-2.31891
11
3.70344
21
-2.31208
0
LINE
8
BLACK
6
CONTINUOUS
10
3.70344
20
-2.31208
11
3.70192
21
-2.30905
0
LINE
8
BLACK
6
CONTINUOUS
10
3.70192
20
-2.30905
11
3.699
21
-2.30613
0
LINE
8
BLACK
6
CONTINUOUS
10
3.699
20
-2.30613
11
3.6945
21
-2.30463
0
LINE
8
BLACK
6
CONTINUOUS
10
3.6945
20
-2.30463
11
3.69171
21
-2.30463
0
LINE
8
BLACK
6
CONTINUOUS
10
3.69171
20
-2.30463
11
3.6872
21
-2.30613
0
LINE
8
BLACK
6
CONTINUOUS
10
3.6872
20
-2.30613
11
3.68581
21
-2.30752
0
LINE
8
BLACK
6
CONTINUOUS
10
3.68581
20
-2.30752
11
3.68497
21
-2.3081
0
LINE
8
BLACK
6
CONTINUOUS
10
3.68497
20
-2.3081
11
3.68296
21
-2.30828
0
LINE
8
BLACK
6
CONTINUOUS
10
3.68296
20
-2.30828
11
3.68131
21
-2.30712
0
LINE
8
BLACK
6
CONTINUOUS
10
3.68131
20
-2.30712
11
3.68079
21
-2.30517
0
LINE
8
BLACK
6
CONTINUOUS
10
3.68079
20
-2.30517
11
3.68164
21
-2.30334
0
LINE
8
BLACK
6
CONTINUOUS
10
3.68164
20
-2.30334
11
3.68351
21
-2.30146
0
LINE
8
BLACK
6
CONTINUOUS
10
3.68351
20
-2.30146
11
3.68435
21
-2.30088
0
LINE
8
BLACK
6
CONTINUOUS
10
3.68435
20
-2.30088
11
3.68453
21
-2.30086
0
LINE
8
BLACK
6
CONTINUOUS
10
3.68453
20
-2.30086
11
3.68467
21
-2.30075
0
LINE
8
BLACK
6
CONTINUOUS
10
3.68467
20
-2.30075
11
3.69029
21
-2.29888
0
LINE
8
BLACK
6
CONTINUOUS
10
3.69029
20
-2.29888
11
3.69117
21
-2.29875
0
LINE
8
BLACK
6
CONTINUOUS
10
3.69117
20
-2.29875
11
3.69123
21
-2.29873
0
LINE
8
BLACK
6
CONTINUOUS
10
3.69123
20
-2.29873
11
3.69498
21
-2.29873
0
LINE
8
BLACK
6
CONTINUOUS
10
3.69498
20
-2.29873
11
3.69584
21
-2.29888
0
LINE
8
BLACK
6
CONTINUOUS
10
3.58128
20
-2.33495
11
3.58355
21
-2.34687
0
LINE
8
BLACK
6
CONTINUOUS
10
3.58355
20
-2.34687
11
3.5873
21
-2.35841
0
LINE
8
BLACK
6
CONTINUOUS
10
3.5873
20
-2.35841
11
3.59247
21
-2.36939
0
LINE
8
BLACK
6
CONTINUOUS
10
3.59247
20
-2.36939
11
3.59898
21
-2.37964
0
LINE
8
BLACK
6
CONTINUOUS
10
3.59898
20
-2.37964
11
3.60671
21
-2.38899
0
LINE
8
BLACK
6
CONTINUOUS
10
3.60671
20
-2.38899
11
3.61556
21
-2.3973
0
LINE
8
BLACK
6
CONTINUOUS
10
3.61556
20
-2.3973
11
3.62538
21
-2.40444
0
LINE
8
BLACK
6
CONTINUOUS
10
3.62538
20
-2.40444
11
3.63601
21
-2.41028
0
LINE
8
BLACK
6
CONTINUOUS
10
3.63601
20
-2.41028
11
3.6473
21
-2.41475
0
LINE
8
BLACK
6
CONTINUOUS
10
3.6473
20
-2.41475
11
3.65906
21
-2.41777
0
LINE
8
BLACK
6
CONTINUOUS
10
3.65906
20
-2.41777
11
3.6711
21
-2.41929
0
LINE
8
BLACK
6
CONTINUOUS
10
3.6711
20
-2.41929
11
3.68323
21
-2.41929
0
LINE
8
BLACK
6
CONTINUOUS
10
3.68323
20
-2.41929
11
3.69528
21
-2.41777
0
LINE
8
BLACK
6
CONTINUOUS
10
3.69528
20
-2.41777
11
3.70703
21
-2.41475
0
LINE
8
BLACK
6
CONTINUOUS
10
3.70703
20
-2.41475
11
3.71832
21
-2.41028
0
LINE
8
BLACK
6
CONTINUOUS
10
3.71832
20
-2.41028
11
3.72895
21
-2.40444
0
LINE
8
BLACK
6
CONTINUOUS
10
3.72895
20
-2.40444
11
3.73877
21
-2.3973
0
LINE
8
BLACK
6
CONTINUOUS
10
3.73877
20
-2.3973
11
3.74762
21
-2.38899
0
LINE
8
BLACK
6
CONTINUOUS
10
3.74762
20
-2.38899
11
3.75535
21
-2.37964
0
LINE
8
BLACK
6
CONTINUOUS
10
3.75535
20
-2.37964
11
3.76186
21
-2.36939
0
LINE
8
BLACK
6
CONTINUOUS
10
3.76186
20
-2.36939
11
3.76703
21
-2.35841
0
LINE
8
BLACK
6
CONTINUOUS
10
3.76703
20
-2.35841
11
3.77078
21
-2.34687
0
LINE
8
BLACK
6
CONTINUOUS
10
3.77078
20
-2.34687
11
3.77305
21
-2.33495
0
LINE
8
BLACK
6
CONTINUOUS
10
3.77305
20
-2.33495
11
3.77381
21
-2.32283
0
LINE
8
BLACK
6
CONTINUOUS
10
3.77381
20
-2.32283
11
3.77305
21
-2.31072
0
LINE
8
BLACK
6
CONTINUOUS
10
3.77305
20
-2.31072
11
3.77078
21
-2.2988
0
LINE
8
BLACK
6
CONTINUOUS
10
3.77078
20
-2.2988
11
3.76703
21
-2.28726
0
LINE
8
BLACK
6
CONTINUOUS
10
3.76703
20
-2.28726
11
3.76186
21
-2.27627
0
LINE
8
BLACK
6
CONTINUOUS
10
3.76186
20
-2.27627
11
3.75535
21
-2.26603
0
LINE
8
BLACK
6
CONTINUOUS
10
3.75535
20
-2.26603
11
3.74762
21
-2.25667
0
LINE
8
BLACK
6
CONTINUOUS
10
3.74762
20
-2.25667
11
3.73877
21
-2.24837
0
LINE
8
BLACK
6
CONTINUOUS
10
3.73877
20
-2.24837
11
3.72895
21
-2.24123
0
LINE
8
BLACK
6
CONTINUOUS
10
3.72895
20
-2.24123
11
3.71832
21
-2.23539
0
LINE
8
BLACK
6
CONTINUOUS
10
3.71832
20
-2.23539
11
3.70703
21
-2.23092
0
LINE
8
BLACK
6
CONTINUOUS
10
3.70703
20
-2.23092
11
3.69528
21
-2.2279
0
LINE
8
BLACK
6
CONTINUOUS
10
3.69528
20
-2.2279
11
3.68323
21
-2.22638
0
LINE
8
BLACK
6
CONTINUOUS
10
3.68323
20
-2.22638
11
3.6711
21
-2.22638
0
LINE
8
BLACK
6
CONTINUOUS
10
3.6711
20
-2.22638
11
3.65906
21
-2.2279
0
LINE
8
BLACK
6
CONTINUOUS
10
3.65906
20
-2.2279
11
3.6473
21
-2.23092
0
LINE
8
BLACK
6
CONTINUOUS
10
3.6473
20
-2.23092
11
3.63601
21
-2.23539
0
LINE
8
BLACK
6
CONTINUOUS
10
3.63601
20
-2.23539
11
3.62538
21
-2.24123
0
LINE
8
BLACK
6
CONTINUOUS
10
3.62538
20
-2.24123
11
3.61556
21
-2.24837
0
LINE
8
BLACK
6
CONTINUOUS
10
3.61556
20
-2.24837
11
3.60671
21
-2.25667
0
LINE
8
BLACK
6
CONTINUOUS
10
3.60671
20
-2.25667
11
3.59898
21
-2.26603
0
LINE
8
BLACK
6
CONTINUOUS
10
3.59898
20
-2.26603
11
3.59247
21
-2.27627
0
LINE
8
BLACK
6
CONTINUOUS
10
3.59247
20
-2.27627
11
3.5873
21
-2.28726
0
LINE
8
BLACK
6
CONTINUOUS
10
3.5873
20
-2.28726
11
3.58355
21
-2.2988
0
LINE
8
BLACK
6
CONTINUOUS
10
3.58355
20
-2.2988
11
3.58128
21
-2.31072
0
LINE
8
BLACK
6
CONTINUOUS
10
3.58128
20
-2.31072
11
3.58052
21
-2.32283
0
LINE
8
BLACK
6
CONTINUOUS
10
3.58052
20
-2.32283
11
3.58128
21
-2.33495
0
LINE
8
BLACK
6
CONTINUOUS
10
3.7815
20
-2.21654
11
3.78289
21
-2.21711
0
LINE
8
BLACK
6
CONTINUOUS
10
3.78289
20
-2.21711
11
3.78346
21
-2.2185
0
LINE
8
BLACK
6
CONTINUOUS
10
3.78346
20
-2.2185
11
3.78346
21
-2.42717
0
LINE
8
BLACK
6
CONTINUOUS
10
3.78346
20
-2.42717
11
3.78289
21
-2.42856
0
LINE
8
BLACK
6
CONTINUOUS
10
3.78289
20
-2.42856
11
3.7815
21
-2.42913
0
LINE
8
BLACK
6
CONTINUOUS
10
3.7815
20
-2.42913
11
3.6122
21
-2.42913
0
LINE
8
BLACK
6
CONTINUOUS
10
3.6122
20
-2.42913
11
3.61081
21
-2.42856
0
LINE
8
BLACK
6
CONTINUOUS
10
3.61081
20
-2.42856
11
3.57144
21
-2.38919
0
LINE
8
BLACK
6
CONTINUOUS
10
3.57144
20
-2.38919
11
3.57087
21
-2.3878
0
LINE
8
BLACK
6
CONTINUOUS
10
3.57087
20
-2.3878
11
3.57087
21
-2.25787
0
LINE
8
BLACK
6
CONTINUOUS
10
3.57087
20
-2.25787
11
3.57144
21
-2.25648
0
LINE
8
BLACK
6
CONTINUOUS
10
3.57144
20
-2.25648
11
3.57144
21
-2.25648
0
LINE
8
BLACK
6
CONTINUOUS
10
3.57144
20
-2.25648
11
3.61081
21
-2.21711
0
LINE
8
BLACK
6
CONTINUOUS
10
3.61081
20
-2.21711
11
3.6122
21
-2.21654
0
LINE
8
BLACK
6
CONTINUOUS
10
3.6122
20
-2.21654
11
3.7815
21
-2.21654
0
LINE
8
BLACK
6
CONTINUOUS
10
3.61302
20
-2.22047
11
3.5748
21
-2.25869
0
LINE
8
BLACK
6
CONTINUOUS
10
3.5748
20
-2.25869
11
3.5748
21
-2.38698
0
LINE
8
BLACK
6
CONTINUOUS
10
3.5748
20
-2.38698
11
3.61302
21
-2.4252
0
LINE
8
BLACK
6
CONTINUOUS
10
3.61302
20
-2.4252
11
3.77953
21
-2.4252
0
LINE
8
BLACK
6
CONTINUOUS
10
3.77953
20
-2.4252
11
3.77953
21
-2.22047
0
LINE
8
BLACK
6
CONTINUOUS
10
3.77953
20
-2.22047
11
3.61302
21
-2.22047
0
LINE
8
BLACK
6
CONTINUOUS
10
3.99127
20
-2.24488
11
3.99282
21
-2.24618
0
LINE
8
BLACK
6
CONTINUOUS
10
3.99282
20
-2.24618
11
3.99317
21
-2.24817
0
LINE
8
BLACK
6
CONTINUOUS
10
3.99317
20
-2.24817
11
3.99216
21
-2.24992
0
LINE
8
BLACK
6
CONTINUOUS
10
3.99216
20
-2.24992
11
3.99026
21
-2.25061
0
LINE
8
BLACK
6
CONTINUOUS
10
3.99026
20
-2.25061
11
3.97259
21
-2.25061
0
LINE
8
BLACK
6
CONTINUOUS
10
3.97259
20
-2.25061
11
3.97259
21
-2.26078
0
LINE
8
BLACK
6
CONTINUOUS
10
3.97259
20
-2.26078
11
3.97241
21
-2.26179
0
LINE
8
BLACK
6
CONTINUOUS
10
3.97241
20
-2.26179
11
3.97111
21
-2.26334
0
LINE
8
BLACK
6
CONTINUOUS
10
3.97111
20
-2.26334
11
3.96913
21
-2.26369
0
LINE
8
BLACK
6
CONTINUOUS
10
3.96913
20
-2.26369
11
3.96738
21
-2.26268
0
LINE
8
BLACK
6
CONTINUOUS
10
3.96738
20
-2.26268
11
3.96669
21
-2.26078
0
LINE
8
BLACK
6
CONTINUOUS
10
3.96669
20
-2.26078
11
3.96669
21
-2.25061
0
LINE
8
BLACK
6
CONTINUOUS
10
3.96669
20
-2.25061
11
3.95384
21
-2.25061
0
LINE
8
BLACK
6
CONTINUOUS
10
3.95384
20
-2.25061
11
3.95384
21
-2.2664
0
LINE
8
BLACK
6
CONTINUOUS
10
3.95384
20
-2.2664
11
3.95367
21
-2.26741
0
LINE
8
BLACK
6
CONTINUOUS
10
3.95367
20
-2.26741
11
3.95237
21
-2.26896
0
LINE
8
BLACK
6
CONTINUOUS
10
3.95237
20
-2.26896
11
3.95038
21
-2.26931
0
LINE
8
BLACK
6
CONTINUOUS
10
3.95038
20
-2.26931
11
3.94863
21
-2.2683
0
LINE
8
BLACK
6
CONTINUOUS
10
3.94863
20
-2.2683
11
3.94794
21
-2.2664
0
LINE
8
BLACK
6
CONTINUOUS
10
3.94794
20
-2.2664
11
3.94794
21
-2.24766
0
LINE
8
BLACK
6
CONTINUOUS
10
3.94794
20
-2.24766
11
3.94801
21
-2.24727
0
LINE
8
BLACK
6
CONTINUOUS
10
3.94801
20
-2.24727
11
3.94798
21
-2.24714
0
LINE
8
BLACK
6
CONTINUOUS
10
3.94798
20
-2.24714
11
3.94805
21
-2.24703
0
LINE
8
BLACK
6
CONTINUOUS
10
3.94805
20
-2.24703
11
3.94812
21
-2.24665
0
LINE
8
BLACK
6
CONTINUOUS
10
3.94812
20
-2.24665
11
3.94861
21
-2.24606
0
LINE
8
BLACK
6
CONTINUOUS
10
3.94861
20
-2.24606
11
3.94899
21
-2.24539
0
LINE
8
BLACK
6
CONTINUOUS
10
3.94899
20
-2.24539
11
3.94924
21
-2.2453
0
LINE
8
BLACK
6
CONTINUOUS
10
3.94924
20
-2.2453
11
3.94941
21
-2.2451
0
LINE
8
BLACK
6
CONTINUOUS
10
3.94941
20
-2.2451
11
3.95017
21
-2.24497
0
LINE
8
BLACK
6
CONTINUOUS
10
3.95017
20
-2.24497
11
3.95089
21
-2.2447
0
LINE
8
BLACK
6
CONTINUOUS
10
3.95089
20
-2.2447
11
3.99026
21
-2.2447
0
LINE
8
BLACK
6
CONTINUOUS
10
3.99026
20
-2.2447
11
3.99127
21
-2.24488
0
LINE
8
BLACK
6
CONTINUOUS
10
3.99127
20
-2.20926
11
3.99282
21
-2.21056
0
LINE
8
BLACK
6
CONTINUOUS
10
3.99282
20
-2.21056
11
3.99317
21
-2.21255
0
LINE
8
BLACK
6
CONTINUOUS
10
3.99317
20
-2.21255
11
3.99216
21
-2.2143
0
LINE
8
BLACK
6
CONTINUOUS
10
3.99216
20
-2.2143
11
3.99026
21
-2.21499
0
LINE
8
BLACK
6
CONTINUOUS
10
3.99026
20
-2.21499
11
3.96899
21
-2.21499
0
LINE
8
BLACK
6
CONTINUOUS
10
3.96899
20
-2.21499
11
3.96832
21
-2.21566
0
LINE
8
BLACK
6
CONTINUOUS
10
3.96832
20
-2.21566
11
3.96697
21
-2.21836
0
LINE
8
BLACK
6
CONTINUOUS
10
3.96697
20
-2.21836
11
3.96697
21
-2.22259
0
LINE
8
BLACK
6
CONTINUOUS
10
3.96697
20
-2.22259
11
3.96809
21
-2.22483
0
LINE
8
BLACK
6
CONTINUOUS
10
3.96809
20
-2.22483
11
3.97034
21
-2.22596
0
LINE
8
BLACK
6
CONTINUOUS
10
3.97034
20
-2.22596
11
3.99026
21
-2.22596
0
LINE
8
BLACK
6
CONTINUOUS
10
3.99026
20
-2.22596
11
3.99127
21
-2.22613
0
LINE
8
BLACK
6
CONTINUOUS
10
3.99127
20
-2.22613
11
3.99282
21
-2.22743
0
LINE
8
BLACK
6
CONTINUOUS
10
3.99282
20
-2.22743
11
3.99317
21
-2.22942
0
LINE
8
BLACK
6
CONTINUOUS
10
3.99317
20
-2.22942
11
3.99216
21
-2.23117
0
LINE
8
BLACK
6
CONTINUOUS
10
3.99216
20
-2.23117
11
3.99026
21
-2.23186
0
LINE
8
BLACK
6
CONTINUOUS
10
3.99026
20
-2.23186
11
3.96964
21
-2.23186
0
LINE
8
BLACK
6
CONTINUOUS
10
3.96964
20
-2.23186
11
3.96863
21
-2.23168
0
LINE
8
BLACK
6
CONTINUOUS
10
3.96863
20
-2.23168
11
3.96849
21
-2.23157
0
LINE
8
BLACK
6
CONTINUOUS
10
3.96849
20
-2.23157
11
3.96832
21
-2.23155
0
LINE
8
BLACK
6
CONTINUOUS
10
3.96832
20
-2.23155
11
3.96457
21
-2.22968
0
LINE
8
BLACK
6
CONTINUOUS
10
3.96457
20
-2.22968
11
3.96374
21
-2.22906
0
LINE
8
BLACK
6
CONTINUOUS
10
3.96374
20
-2.22906
11
3.96357
21
-2.22866
0
LINE
8
BLACK
6
CONTINUOUS
10
3.96357
20
-2.22866
11
3.96325
21
-2.22835
0
LINE
8
BLACK
6
CONTINUOUS
10
3.96325
20
-2.22835
11
3.96137
21
-2.22461
0
LINE
8
BLACK
6
CONTINUOUS
10
3.96137
20
-2.22461
11
3.96108
21
-2.22362
0
LINE
8
BLACK
6
CONTINUOUS
10
3.96108
20
-2.22362
11
3.96112
21
-2.22345
0
LINE
8
BLACK
6
CONTINUOUS
10
3.96112
20
-2.22345
11
3.96106
21
-2.22328
0
LINE
8
BLACK
6
CONTINUOUS
10
3.96106
20
-2.22328
11
3.96106
21
-2.21766
0
LINE
8
BLACK
6
CONTINUOUS
10
3.96106
20
-2.21766
11
3.96124
21
-2.21665
0
LINE
8
BLACK
6
CONTINUOUS
10
3.96124
20
-2.21665
11
3.96135
21
-2.21652
0
LINE
8
BLACK
6
CONTINUOUS
10
3.96135
20
-2.21652
11
3.96137
21
-2.21634
0
LINE
8
BLACK
6
CONTINUOUS
10
3.96137
20
-2.21634
11
3.96239
21
-2.2143
0
LINE
8
BLACK
6
CONTINUOUS
10
3.96239
20
-2.2143
11
3.96146
21
-2.21351
0
LINE
8
BLACK
6
CONTINUOUS
10
3.96146
20
-2.21351
11
3.96111
21
-2.21152
0
LINE
8
BLACK
6
CONTINUOUS
10
3.96111
20
-2.21152
11
3.96212
21
-2.20977
0
LINE
8
BLACK
6
CONTINUOUS
10
3.96212
20
-2.20977
11
3.96401
21
-2.20908
0
LINE
8
BLACK
6
CONTINUOUS
10
3.96401
20
-2.20908
11
3.99026
21
-2.20908
0
LINE
8
BLACK
6
CONTINUOUS
10
3.99026
20
-2.20908
11
3.99127
21
-2.20926
0
LINE
8
BLACK
6
CONTINUOUS
10
3.71667
20
-2.05518
11
3.71684
21
-2.05517
0
LINE
8
BLACK
6
CONTINUOUS
10
3.71684
20
-2.05517
11
3.71753
21
-2.05568
0
LINE
8
BLACK
6
CONTINUOUS
10
3.71753
20
-2.05568
11
3.71827
21
-2.05611
0
LINE
8
BLACK
6
CONTINUOUS
10
3.71827
20
-2.05611
11
3.71833
21
-2.05627
0
LINE
8
BLACK
6
CONTINUOUS
10
3.71833
20
-2.05627
11
3.71847
21
-2.05637
0
LINE
8
BLACK
6
CONTINUOUS
10
3.71847
20
-2.05637
11
3.72198
21
-2.06164
0
LINE
8
BLACK
6
CONTINUOUS
10
3.72198
20
-2.06164
11
3.72511
21
-2.06477
0
LINE
8
BLACK
6
CONTINUOUS
10
3.72511
20
-2.06477
11
3.72835
21
-2.06639
0
LINE
8
BLACK
6
CONTINUOUS
10
3.72835
20
-2.06639
11
3.72918
21
-2.067
0
LINE
8
BLACK
6
CONTINUOUS
10
3.72918
20
-2.067
11
3.72998
21
-2.06885
0
LINE
8
BLACK
6
CONTINUOUS
10
3.72998
20
-2.06885
11
3.72941
21
-2.07079
0
LINE
8
BLACK
6
CONTINUOUS
10
3.72941
20
-2.07079
11
3.72772
21
-2.0719
0
LINE
8
BLACK
6
CONTINUOUS
10
3.72772
20
-2.0719
11
3.72571
21
-2.07167
0
LINE
8
BLACK
6
CONTINUOUS
10
3.72571
20
-2.07167
11
3.72204
21
-2.06983
0
LINE
8
BLACK
6
CONTINUOUS
10
3.72204
20
-2.06983
11
3.72133
21
-2.06931
0
LINE
8
BLACK
6
CONTINUOUS
10
3.72133
20
-2.06931
11
3.72127
21
-2.06928
0
LINE
8
BLACK
6
CONTINUOUS
10
3.72127
20
-2.06928
11
3.71896
21
-2.06697
0
LINE
8
BLACK
6
CONTINUOUS
10
3.71896
20
-2.06697
11
3.71896
21
-2.09364
0
LINE
8
BLACK
6
CONTINUOUS
10
3.71896
20
-2.09364
11
3.72703
21
-2.09364
0
LINE
8
BLACK
6
CONTINUOUS
10
3.72703
20
-2.09364
11
3.72804
21
-2.09381
0
LINE
8
BLACK
6
CONTINUOUS
10
3.72804
20
-2.09381
11
3.72959
21
-2.09511
0
LINE
8
BLACK
6
CONTINUOUS
10
3.72959
20
-2.09511
11
3.72994
21
-2.0971
0
LINE
8
BLACK
6
CONTINUOUS
10
3.72994
20
-2.0971
11
3.72893
21
-2.09885
0
LINE
8
BLACK
6
CONTINUOUS
10
3.72893
20
-2.09885
11
3.72703
21
-2.09954
0
LINE
8
BLACK
6
CONTINUOUS
10
3.72703
20
-2.09954
11
3.70499
21
-2.09954
0
LINE
8
BLACK
6
CONTINUOUS
10
3.70499
20
-2.09954
11
3.70398
21
-2.09936
0
LINE
8
BLACK
6
CONTINUOUS
10
3.70398
20
-2.09936
11
3.70243
21
-2.09807
0
LINE
8
BLACK
6
CONTINUOUS
10
3.70243
20
-2.09807
11
3.70208
21
-2.09608
0
LINE
8
BLACK
6
CONTINUOUS
10
3.70208
20
-2.09608
11
3.70309
21
-2.09433
0
LINE
8
BLACK
6
CONTINUOUS
10
3.70309
20
-2.09433
11
3.70499
21
-2.09364
0
LINE
8
BLACK
6
CONTINUOUS
10
3.70499
20
-2.09364
11
3.71306
21
-2.09364
0
LINE
8
BLACK
6
CONTINUOUS
10
3.71306
20
-2.09364
11
3.71306
21
-2.05801
0
LINE
8
BLACK
6
CONTINUOUS
10
3.71306
20
-2.05801
11
3.71324
21
-2.057
0
LINE
8
BLACK
6
CONTINUOUS
10
3.71324
20
-2.057
11
3.71334
21
-2.05687
0
LINE
8
BLACK
6
CONTINUOUS
10
3.71334
20
-2.05687
11
3.71336
21
-2.0567
0
LINE
8
BLACK
6
CONTINUOUS
10
3.71336
20
-2.0567
11
3.71398
21
-2.05611
0
LINE
8
BLACK
6
CONTINUOUS
10
3.71398
20
-2.05611
11
3.71453
21
-2.05545
0
LINE
8
BLACK
6
CONTINUOUS
10
3.71453
20
-2.05545
11
3.7147
21
-2.05542
0
LINE
8
BLACK
6
CONTINUOUS
10
3.7147
20
-2.05542
11
3.71482
21
-2.0553
0
LINE
8
BLACK
6
CONTINUOUS
10
3.71482
20
-2.0553
11
3.71568
21
-2.05525
0
LINE
8
BLACK
6
CONTINUOUS
10
3.71568
20
-2.05525
11
3.71652
21
-2.0551
0
LINE
8
BLACK
6
CONTINUOUS
10
3.71652
20
-2.0551
11
3.71667
21
-2.05518
0
LINE
8
BLACK
6
CONTINUOUS
10
3.76788
20
-2.05611
11
3.76857
21
-2.05801
0
LINE
8
BLACK
6
CONTINUOUS
10
3.76857
20
-2.05801
11
3.76857
21
-2.08924
0
LINE
8
BLACK
6
CONTINUOUS
10
3.76857
20
-2.08924
11
3.76839
21
-2.09025
0
LINE
8
BLACK
6
CONTINUOUS
10
3.76839
20
-2.09025
11
3.76828
21
-2.09039
0
LINE
8
BLACK
6
CONTINUOUS
10
3.76828
20
-2.09039
11
3.76826
21
-2.09056
0
LINE
8
BLACK
6
CONTINUOUS
10
3.76826
20
-2.09056
11
3.76642
21
-2.09424
0
LINE
8
BLACK
6
CONTINUOUS
10
3.76642
20
-2.09424
11
3.76589
21
-2.09494
0
LINE
8
BLACK
6
CONTINUOUS
10
3.76589
20
-2.09494
11
3.76587
21
-2.095
0
LINE
8
BLACK
6
CONTINUOUS
10
3.76587
20
-2.095
11
3.76403
21
-2.09684
0
LINE
8
BLACK
6
CONTINUOUS
10
3.76403
20
-2.09684
11
3.76331
21
-2.09735
0
LINE
8
BLACK
6
CONTINUOUS
10
3.76331
20
-2.09735
11
3.76326
21
-2.09739
0
LINE
8
BLACK
6
CONTINUOUS
10
3.76326
20
-2.09739
11
3.75959
21
-2.09923
0
LINE
8
BLACK
6
CONTINUOUS
10
3.75959
20
-2.09923
11
3.75861
21
-2.09952
0
LINE
8
BLACK
6
CONTINUOUS
10
3.75861
20
-2.09952
11
3.75843
21
-2.09948
0
LINE
8
BLACK
6
CONTINUOUS
10
3.75843
20
-2.09948
11
3.75827
21
-2.09954
0
LINE
8
BLACK
6
CONTINUOUS
10
3.75827
20
-2.09954
11
3.75092
21
-2.09954
0
LINE
8
BLACK
6
CONTINUOUS
10
3.75092
20
-2.09954
11
3.74991
21
-2.09936
0
LINE
8
BLACK
6
CONTINUOUS
10
3.74991
20
-2.09936
11
3.74977
21
-2.09925
0
LINE
8
BLACK
6
CONTINUOUS
10
3.74977
20
-2.09925
11
3.7496
21
-2.09923
0
LINE
8
BLACK
6
CONTINUOUS
10
3.7496
20
-2.09923
11
3.74592
21
-2.09739
0
LINE
8
BLACK
6
CONTINUOUS
10
3.74592
20
-2.09739
11
3.74521
21
-2.09687
0
LINE
8
BLACK
6
CONTINUOUS
10
3.74521
20
-2.09687
11
3.74516
21
-2.09684
0
LINE
8
BLACK
6
CONTINUOUS
10
3.74516
20
-2.09684
11
3.74332
21
-2.095
0
LINE
8
BLACK
6
CONTINUOUS
10
3.74332
20
-2.095
11
3.74281
21
-2.09428
0
LINE
8
BLACK
6
CONTINUOUS
10
3.74281
20
-2.09428
11
3.74277
21
-2.09424
0
LINE
8
BLACK
6
CONTINUOUS
10
3.74277
20
-2.09424
11
3.74093
21
-2.09056
0
LINE
8
BLACK
6
CONTINUOUS
10
3.74093
20
-2.09056
11
3.74064
21
-2.08958
0
LINE
8
BLACK
6
CONTINUOUS
10
3.74064
20
-2.08958
11
3.74068
21
-2.08941
0
LINE
8
BLACK
6
CONTINUOUS
10
3.74068
20
-2.08941
11
3.74062
21
-2.08924
0
LINE
8
BLACK
6
CONTINUOUS
10
3.74062
20
-2.08924
11
3.74062
21
-2.05801
0
LINE
8
BLACK
6
CONTINUOUS
10
3.74062
20
-2.05801
11
3.74079
21
-2.057
0
LINE
8
BLACK
6
CONTINUOUS
10
3.74079
20
-2.057
11
3.74209
21
-2.05545
0
LINE
8
BLACK
6
CONTINUOUS
10
3.74209
20
-2.05545
11
3.74408
21
-2.0551
0
LINE
8
BLACK
6
CONTINUOUS
10
3.74408
20
-2.0551
11
3.74583
21
-2.05611
0
LINE
8
BLACK
6
CONTINUOUS
10
3.74583
20
-2.05611
11
3.74652
21
-2.05801
0
LINE
8
BLACK
6
CONTINUOUS
10
3.74652
20
-2.05801
11
3.74652
21
-2.08854
0
LINE
8
BLACK
6
CONTINUOUS
10
3.74652
20
-2.08854
11
3.74783
21
-2.09117
0
LINE
8
BLACK
6
CONTINUOUS
10
3.74783
20
-2.09117
11
3.74899
21
-2.09233
0
LINE
8
BLACK
6
CONTINUOUS
10
3.74899
20
-2.09233
11
3.75162
21
-2.09364
0
LINE
8
BLACK
6
CONTINUOUS
10
3.75162
20
-2.09364
11
3.75757
21
-2.09364
0
LINE
8
BLACK
6
CONTINUOUS
10
3.75757
20
-2.09364
11
3.76019
21
-2.09233
0
LINE
8
BLACK
6
CONTINUOUS
10
3.76019
20
-2.09233
11
3.76135
21
-2.09117
0
LINE
8
BLACK
6
CONTINUOUS
10
3.76135
20
-2.09117
11
3.76266
21
-2.08854
0
LINE
8
BLACK
6
CONTINUOUS
10
3.76266
20
-2.08854
11
3.76266
21
-2.05801
0
LINE
8
BLACK
6
CONTINUOUS
10
3.76266
20
-2.05801
11
3.76284
21
-2.057
0
LINE
8
BLACK
6
CONTINUOUS
10
3.76284
20
-2.057
11
3.76414
21
-2.05545
0
LINE
8
BLACK
6
CONTINUOUS
10
3.76414
20
-2.05545
11
3.76613
21
-2.0551
0
LINE
8
BLACK
6
CONTINUOUS
10
3.76613
20
-2.0551
11
3.76788
21
-2.05611
0
LINE
8
BLACK
6
CONTINUOUS
10
3.81299
20
-1.98031
11
3.81438
21
-1.98089
0
LINE
8
BLACK
6
CONTINUOUS
10
3.81438
20
-1.98089
11
3.81496
21
-1.98228
0
LINE
8
BLACK
6
CONTINUOUS
10
3.81496
20
-1.98228
11
3.81496
21
-2.1752
0
LINE
8
BLACK
6
CONTINUOUS
10
3.81496
20
-2.1752
11
3.81438
21
-2.17659
0
LINE
8
BLACK
6
CONTINUOUS
10
3.81438
20
-2.17659
11
3.81299
21
-2.17717
0
LINE
8
BLACK
6
CONTINUOUS
10
3.81299
20
-2.17717
11
3.69783
21
-2.17717
0
LINE
8
BLACK
6
CONTINUOUS
10
3.69783
20
-2.17717
11
3.69644
21
-2.17659
0
LINE
8
BLACK
6
CONTINUOUS
10
3.69644
20
-2.17659
11
3.65806
21
-2.1382
0
LINE
8
BLACK
6
CONTINUOUS
10
3.65806
20
-2.1382
11
3.65748
21
-2.13681
0
LINE
8
BLACK
6
CONTINUOUS
10
3.65748
20
-2.13681
11
3.65748
21
-1.98228
0
LINE
8
BLACK
6
CONTINUOUS
10
3.65748
20
-1.98228
11
3.65806
21
-1.98089
0
LINE
8
BLACK
6
CONTINUOUS
10
3.65806
20
-1.98089
11
3.65945
21
-1.98031
0
LINE
8
BLACK
6
CONTINUOUS
10
3.65945
20
-1.98031
11
3.81299
21
-1.98031
0
LINE
8
BLACK
6
CONTINUOUS
10
3.66142
20
-1.98425
11
3.66142
21
-2.136
0
LINE
8
BLACK
6
CONTINUOUS
10
3.66142
20
-2.136
11
3.69865
21
-2.17323
0
LINE
8
BLACK
6
CONTINUOUS
10
3.69865
20
-2.17323
11
3.81102
21
-2.17323
0
LINE
8
BLACK
6
CONTINUOUS
10
3.81102
20
-2.17323
11
3.81102
21
-1.98425
0
LINE
8
BLACK
6
CONTINUOUS
10
3.81102
20
-1.98425
11
3.66142
21
-1.98425
0
LINE
8
BLACK
6
CONTINUOUS
10
3.91922
20
-2.18245
11
3.91946
21
-2.18301
0
LINE
8
BLACK
6
CONTINUOUS
10
3.91946
20
-2.18301
11
3.91946
21
-2.19007
0
LINE
8
BLACK
6
CONTINUOUS
10
3.91946
20
-2.19007
11
3.91922
21
-2.19063
0
LINE
8
BLACK
6
CONTINUOUS
10
3.91922
20
-2.19063
11
3.91867
21
-2.19086
0
LINE
8
BLACK
6
CONTINUOUS
10
3.91867
20
-2.19086
11
3.91811
21
-2.19063
0
LINE
8
BLACK
6
CONTINUOUS
10
3.91811
20
-2.19063
11
3.91788
21
-2.19007
0
LINE
8
BLACK
6
CONTINUOUS
10
3.91788
20
-2.19007
11
3.91788
21
-2.18491
0
LINE
8
BLACK
6
CONTINUOUS
10
3.91788
20
-2.18491
11
3.9127
21
-2.19009
0
LINE
8
BLACK
6
CONTINUOUS
10
3.9127
20
-2.19009
11
3.91253
21
-2.19016
0
LINE
8
BLACK
6
CONTINUOUS
10
3.91253
20
-2.19016
11
3.91239
21
-2.19028
0
LINE
8
BLACK
6
CONTINUOUS
10
3.91239
20
-2.19028
11
3.91076
21
-2.19082
0
LINE
8
BLACK
6
CONTINUOUS
10
3.91076
20
-2.19082
11
3.91063
21
-2.19081
0
LINE
8
BLACK
6
CONTINUOUS
10
3.91063
20
-2.19081
11
3.91051
21
-2.19086
0
LINE
8
BLACK
6
CONTINUOUS
10
3.91051
20
-2.19086
11
3.90943
21
-2.19086
0
LINE
8
BLACK
6
CONTINUOUS
10
3.90943
20
-2.19086
11
3.90926
21
-2.19079
0
LINE
8
BLACK
6
CONTINUOUS
10
3.90926
20
-2.19079
11
3.90907
21
-2.19078
0
LINE
8
BLACK
6
CONTINUOUS
10
3.90907
20
-2.19078
11
3.90799
21
-2.19023
0
LINE
8
BLACK
6
CONTINUOUS
10
3.90799
20
-2.19023
11
3.9079
21
-2.19014
0
LINE
8
BLACK
6
CONTINUOUS
10
3.9079
20
-2.19014
11
3.90778
21
-2.19009
0
LINE
8
BLACK
6
CONTINUOUS
10
3.90778
20
-2.19009
11
3.90724
21
-2.18954
0
LINE
8
BLACK
6
CONTINUOUS
10
3.90724
20
-2.18954
11
3.90719
21
-2.18942
0
LINE
8
BLACK
6
CONTINUOUS
10
3.90719
20
-2.18942
11
3.90709
21
-2.18934
0
LINE
8
BLACK
6
CONTINUOUS
10
3.90709
20
-2.18934
11
3.90655
21
-2.18825
0
LINE
8
BLACK
6
CONTINUOUS
10
3.90655
20
-2.18825
11
3.90653
21
-2.18807
0
LINE
8
BLACK
6
CONTINUOUS
10
3.90653
20
-2.18807
11
3.90646
21
-2.1879
0
LINE
8
BLACK
6
CONTINUOUS
10
3.90646
20
-2.1879
11
3.90646
21
-2.18518
0
LINE
8
BLACK
6
CONTINUOUS
10
3.90646
20
-2.18518
11
3.90653
21
-2.18501
0
LINE
8
BLACK
6
CONTINUOUS
10
3.90653
20
-2.18501
11
3.90655
21
-2.18483
0
LINE
8
BLACK
6
CONTINUOUS
10
3.90655
20
-2.18483
11
3.90709
21
-2.18374
0
LINE
8
BLACK
6
CONTINUOUS
10
3.90709
20
-2.18374
11
3.90719
21
-2.18366
0
LINE
8
BLACK
6
CONTINUOUS
10
3.90719
20
-2.18366
11
3.90724
21
-2.18354
0
LINE
8
BLACK
6
CONTINUOUS
10
3.90724
20
-2.18354
11
3.90778
21
-2.18299
0
LINE
8
BLACK
6
CONTINUOUS
10
3.90778
20
-2.18299
11
3.90834
21
-2.18276
0
LINE
8
BLACK
6
CONTINUOUS
10
3.90834
20
-2.18276
11
3.90889
21
-2.18299
0
LINE
8
BLACK
6
CONTINUOUS
10
3.90889
20
-2.18299
11
3.90913
21
-2.18355
0
LINE
8
BLACK
6
CONTINUOUS
10
3.90913
20
-2.18355
11
3.90889
21
-2.18411
0
LINE
8
BLACK
6
CONTINUOUS
10
3.90889
20
-2.18411
11
3.90844
21
-2.18456
0
LINE
8
BLACK
6
CONTINUOUS
10
3.90844
20
-2.18456
11
3.90804
21
-2.18537
0
LINE
8
BLACK
6
CONTINUOUS
10
3.90804
20
-2.18537
11
3.90804
21
-2.18771
0
LINE
8
BLACK
6
CONTINUOUS
10
3.90804
20
-2.18771
11
3.90844
21
-2.18852
0
LINE
8
BLACK
6
CONTINUOUS
10
3.90844
20
-2.18852
11
3.9088
21
-2.18888
0
LINE
8
BLACK
6
CONTINUOUS
10
3.9088
20
-2.18888
11
3.90961
21
-2.18929
0
LINE
8
BLACK
6
CONTINUOUS
10
3.90961
20
-2.18929
11
3.91038
21
-2.18929
0
LINE
8
BLACK
6
CONTINUOUS
10
3.91038
20
-2.18929
11
3.91172
21
-2.18884
0
LINE
8
BLACK
6
CONTINUOUS
10
3.91172
20
-2.18884
11
3.91811
21
-2.18245
0
LINE
8
BLACK
6
CONTINUOUS
10
3.91811
20
-2.18245
11
3.91867
21
-2.18222
0
LINE
8
BLACK
6
CONTINUOUS
10
3.91867
20
-2.18222
11
3.91922
21
-2.18245
0
LINE
8
BLACK
6
CONTINUOUS
10
3.91387
20
-2.17138
11
3.91397
21
-2.17137
0
LINE
8
BLACK
6
CONTINUOUS
10
3.91397
20
-2.17137
11
3.91614
21
-2.17191
0
LINE
8
BLACK
6
CONTINUOUS
10
3.91614
20
-2.17191
11
3.91621
21
-2.17196
0
LINE
8
BLACK
6
CONTINUOUS
10
3.91621
20
-2.17196
11
3.9163
21
-2.17197
0
LINE
8
BLACK
6
CONTINUOUS
10
3.9163
20
-2.17197
11
3.91739
21
-2.17251
0
LINE
8
BLACK
6
CONTINUOUS
10
3.91739
20
-2.17251
11
3.91747
21
-2.17261
0
LINE
8
BLACK
6
CONTINUOUS
10
3.91747
20
-2.17261
11
3.91759
21
-2.17266
0
LINE
8
BLACK
6
CONTINUOUS
10
3.91759
20
-2.17266
11
3.91868
21
-2.17375
0
LINE
8
BLACK
6
CONTINUOUS
10
3.91868
20
-2.17375
11
3.91875
21
-2.17392
0
LINE
8
BLACK
6
CONTINUOUS
10
3.91875
20
-2.17392
11
3.91887
21
-2.17406
0
LINE
8
BLACK
6
CONTINUOUS
10
3.91887
20
-2.17406
11
3.91941
21
-2.17569
0
LINE
8
BLACK
6
CONTINUOUS
10
3.91941
20
-2.17569
11
3.91941
21
-2.17582
0
LINE
8
BLACK
6
CONTINUOUS
10
3.91941
20
-2.17582
11
3.91946
21
-2.17594
0
LINE
8
BLACK
6
CONTINUOUS
10
3.91946
20
-2.17594
11
3.91946
21
-2.17702
0
LINE
8
BLACK
6
CONTINUOUS
10
3.91946
20
-2.17702
11
3.91941
21
-2.17714
0
LINE
8
BLACK
6
CONTINUOUS
10
3.91941
20
-2.17714
11
3.91941
21
-2.17727
0
LINE
8
BLACK
6
CONTINUOUS
10
3.91941
20
-2.17727
11
3.91887
21
-2.1789
0
LINE
8
BLACK
6
CONTINUOUS
10
3.91887
20
-2.1789
11
3.91875
21
-2.17904
0
LINE
8
BLACK
6
CONTINUOUS
10
3.91875
20
-2.17904
11
3.91868
21
-2.17921
0
LINE
8
BLACK
6
CONTINUOUS
10
3.91868
20
-2.17921
11
3.91814
21
-2.17976
0
LINE
8
BLACK
6
CONTINUOUS
10
3.91814
20
-2.17976
11
3.91758
21
-2.17999
0
LINE
8
BLACK
6
CONTINUOUS
10
3.91758
20
-2.17999
11
3.91702
21
-2.17976
0
LINE
8
BLACK
6
CONTINUOUS
10
3.91702
20
-2.17976
11
3.91679
21
-2.1792
0
LINE
8
BLACK
6
CONTINUOUS
10
3.91679
20
-2.1792
11
3.91702
21
-2.17864
0
LINE
8
BLACK
6
CONTINUOUS
10
3.91702
20
-2.17864
11
3.91744
21
-2.17823
0
LINE
8
BLACK
6
CONTINUOUS
10
3.91744
20
-2.17823
11
3.91788
21
-2.1769
0
LINE
8
BLACK
6
CONTINUOUS
10
3.91788
20
-2.1769
11
3.91788
21
-2.17607
0
LINE
8
BLACK
6
CONTINUOUS
10
3.91788
20
-2.17607
11
3.91744
21
-2.17473
0
LINE
8
BLACK
6
CONTINUOUS
10
3.91744
20
-2.17473
11
3.91657
21
-2.17387
0
LINE
8
BLACK
6
CONTINUOUS
10
3.91657
20
-2.17387
11
3.91567
21
-2.17342
0
LINE
8
BLACK
6
CONTINUOUS
10
3.91567
20
-2.17342
11
3.91368
21
-2.17292
0
LINE
8
BLACK
6
CONTINUOUS
10
3.91368
20
-2.17292
11
3.91224
21
-2.17292
0
LINE
8
BLACK
6
CONTINUOUS
10
3.91224
20
-2.17292
11
3.91024
21
-2.17342
0
LINE
8
BLACK
6
CONTINUOUS
10
3.91024
20
-2.17342
11
3.90935
21
-2.17387
0
LINE
8
BLACK
6
CONTINUOUS
10
3.90935
20
-2.17387
11
3.90848
21
-2.17473
0
LINE
8
BLACK
6
CONTINUOUS
10
3.90848
20
-2.17473
11
3.90804
21
-2.17607
0
LINE
8
BLACK
6
CONTINUOUS
10
3.90804
20
-2.17607
11
3.90804
21
-2.1769
0
LINE
8
BLACK
6
CONTINUOUS
10
3.90804
20
-2.1769
11
3.90848
21
-2.17823
0
LINE
8
BLACK
6
CONTINUOUS
10
3.90848
20
-2.17823
11
3.90889
21
-2.17864
0
LINE
8
BLACK
6
CONTINUOUS
10
3.90889
20
-2.17864
11
3.90913
21
-2.1792
0
LINE
8
BLACK
6
CONTINUOUS
10
3.90913
20
-2.1792
11
3.90889
21
-2.17976
0
LINE
8
BLACK
6
CONTINUOUS
10
3.90889
20
-2.17976
11
3.90834
21
-2.17999
0
LINE
8
BLACK
6
CONTINUOUS
10
3.90834
20
-2.17999
11
3.90778
21
-2.17976
0
LINE
8
BLACK
6
CONTINUOUS
10
3.90778
20
-2.17976
11
3.90724
21
-2.17921
0
LINE
8
BLACK
6
CONTINUOUS
10
3.90724
20
-2.17921
11
3.90717
21
-2.17904
0
LINE
8
BLACK
6
CONTINUOUS
10
3.90717
20
-2.17904
11
3.90705
21
-2.1789
0
LINE
8
BLACK
6
CONTINUOUS
10
3.90705
20
-2.1789
11
3.9065
21
-2.17727
0
LINE
8
BLACK
6
CONTINUOUS
10
3.9065
20
-2.17727
11
3.90651
21
-2.17714
0
LINE
8
BLACK
6
CONTINUOUS
10
3.90651
20
-2.17714
11
3.90646
21
-2.17702
0
LINE
8
BLACK
6
CONTINUOUS
10
3.90646
20
-2.17702
11
3.90646
21
-2.17594
0
LINE
8
BLACK
6
CONTINUOUS
10
3.90646
20
-2.17594
11
3.90651
21
-2.17582
0
LINE
8
BLACK
6
CONTINUOUS
10
3.90651
20
-2.17582
11
3.9065
21
-2.17569
0
LINE
8
BLACK
6
CONTINUOUS
10
3.9065
20
-2.17569
11
3.90705
21
-2.17406
0
LINE
8
BLACK
6
CONTINUOUS
10
3.90705
20
-2.17406
11
3.90717
21
-2.17392
0
LINE
8
BLACK
6
CONTINUOUS
10
3.90717
20
-2.17392
11
3.90724
21
-2.17375
0
LINE
8
BLACK
6
CONTINUOUS
10
3.90724
20
-2.17375
11
3.90832
21
-2.17266
0
LINE
8
BLACK
6
CONTINUOUS
10
3.90832
20
-2.17266
11
3.90844
21
-2.17261
0
LINE
8
BLACK
6
CONTINUOUS
10
3.90844
20
-2.17261
11
3.90853
21
-2.17251
0
LINE
8
BLACK
6
CONTINUOUS
10
3.90853
20
-2.17251
11
3.90962
21
-2.17197
0
LINE
8
BLACK
6
CONTINUOUS
10
3.90962
20
-2.17197
11
3.90971
21
-2.17196
0
LINE
8
BLACK
6
CONTINUOUS
10
3.90971
20
-2.17196
11
3.90978
21
-2.17191
0
LINE
8
BLACK
6
CONTINUOUS
10
3.90978
20
-2.17191
11
3.91195
21
-2.17137
0
LINE
8
BLACK
6
CONTINUOUS
10
3.91195
20
-2.17137
11
3.91205
21
-2.17138
0
LINE
8
BLACK
6
CONTINUOUS
10
3.91205
20
-2.17138
11
3.91214
21
-2.17134
0
LINE
8
BLACK
6
CONTINUOUS
10
3.91214
20
-2.17134
11
3.91377
21
-2.17134
0
LINE
8
BLACK
6
CONTINUOUS
10
3.91377
20
-2.17134
11
3.91387
21
-2.17138
0
LINE
8
BLACK
6
CONTINUOUS
10
3.93346
20
-2.1561
11
3.93486
21
-2.15668
0
LINE
8
BLACK
6
CONTINUOUS
10
3.93486
20
-2.15668
11
3.93543
21
-2.15807
0
LINE
8
BLACK
6
CONTINUOUS
10
3.93543
20
-2.15807
11
3.93543
21
-2.20413
0
LINE
8
BLACK
6
CONTINUOUS
10
3.93543
20
-2.20413
11
3.93486
21
-2.20553
0
LINE
8
BLACK
6
CONTINUOUS
10
3.93486
20
-2.20553
11
3.93346
21
-2.2061
0
LINE
8
BLACK
6
CONTINUOUS
10
3.93346
20
-2.2061
11
3.89331
21
-2.2061
0
LINE
8
BLACK
6
CONTINUOUS
10
3.89331
20
-2.2061
11
3.89192
21
-2.20553
0
LINE
8
BLACK
6
CONTINUOUS
10
3.89192
20
-2.20553
11
3.89134
21
-2.20413
0
LINE
8
BLACK
6
CONTINUOUS
10
3.89134
20
-2.20413
11
3.89134
21
-2.15807
0
LINE
8
BLACK
6
CONTINUOUS
10
3.89134
20
-2.15807
11
3.89192
21
-2.15668
0
LINE
8
BLACK
6
CONTINUOUS
10
3.89192
20
-2.15668
11
3.89331
21
-2.1561
0
LINE
8
BLACK
6
CONTINUOUS
10
3.89331
20
-2.1561
11
3.93346
21
-2.1561
0
LINE
8
BLACK
6
CONTINUOUS
10
3.89528
20
-2.16004
11
3.89528
21
-2.20217
0
LINE
8
BLACK
6
CONTINUOUS
10
3.89528
20
-2.20217
11
3.9315
21
-2.20217
0
LINE
8
BLACK
6
CONTINUOUS
10
3.9315
20
-2.20217
11
3.9315
21
-2.16004
0
LINE
8
BLACK
6
CONTINUOUS
10
3.9315
20
-2.16004
11
3.89528
21
-2.16004
0
LINE
8
BLACK
6
CONTINUOUS
10
3.97584
20
-2.16982
11
3.97598
21
-2.1698
0
LINE
8
BLACK
6
CONTINUOUS
10
3.97598
20
-2.1698
11
3.98348
21
-2.17168
0
LINE
8
BLACK
6
CONTINUOUS
10
3.98348
20
-2.17168
11
3.98394
21
-2.17188
0
LINE
8
BLACK
6
CONTINUOUS
10
3.98394
20
-2.17188
11
3.98408
21
-2.1719
0
LINE
8
BLACK
6
CONTINUOUS
10
3.98408
20
-2.1719
11
3.98783
21
-2.17377
0
LINE
8
BLACK
6
CONTINUOUS
10
3.98783
20
-2.17377
11
3.98854
21
-2.1743
0
LINE
8
BLACK
6
CONTINUOUS
10
3.98854
20
-2.1743
11
3.9886
21
-2.17433
0
LINE
8
BLACK
6
CONTINUOUS
10
3.9886
20
-2.17433
11
3.99047
21
-2.1762
0
LINE
8
BLACK
6
CONTINUOUS
10
3.99047
20
-2.1762
11
3.99098
21
-2.17693
0
LINE
8
BLACK
6
CONTINUOUS
10
3.99098
20
-2.17693
11
3.99103
21
-2.17697
0
LINE
8
BLACK
6
CONTINUOUS
10
3.99103
20
-2.17697
11
3.9929
21
-2.18072
0
LINE
8
BLACK
6
CONTINUOUS
10
3.9929
20
-2.18072
11
3.99319
21
-2.1817
0
LINE
8
BLACK
6
CONTINUOUS
10
3.99319
20
-2.1817
11
3.99315
21
-2.18187
0
LINE
8
BLACK
6
CONTINUOUS
10
3.99315
20
-2.18187
11
3.99321
21
-2.18204
0
LINE
8
BLACK
6
CONTINUOUS
10
3.99321
20
-2.18204
11
3.99321
21
-2.18579
0
LINE
8
BLACK
6
CONTINUOUS
10
3.99321
20
-2.18579
11
3.99304
21
-2.1868
0
LINE
8
BLACK
6
CONTINUOUS
10
3.99304
20
-2.1868
11
3.99292
21
-2.18693
0
LINE
8
BLACK
6
CONTINUOUS
10
3.99292
20
-2.18693
11
3.9929
21
-2.18711
0
LINE
8
BLACK
6
CONTINUOUS
10
3.9929
20
-2.18711
11
3.99103
21
-2.19086
0
LINE
8
BLACK
6
CONTINUOUS
10
3.99103
20
-2.19086
11
3.9905
21
-2.19157
0
LINE
8
BLACK
6
CONTINUOUS
10
3.9905
20
-2.19157
11
3.99047
21
-2.19163
0
LINE
8
BLACK
6
CONTINUOUS
10
3.99047
20
-2.19163
11
3.9886
21
-2.1935
0
LINE
8
BLACK
6
CONTINUOUS
10
3.9886
20
-2.1935
11
3.98788
21
-2.19401
0
LINE
8
BLACK
6
CONTINUOUS
10
3.98788
20
-2.19401
11
3.98783
21
-2.19405
0
LINE
8
BLACK
6
CONTINUOUS
10
3.98783
20
-2.19405
11
3.98408
21
-2.19593
0
LINE
8
BLACK
6
CONTINUOUS
10
3.98408
20
-2.19593
11
3.98359
21
-2.19607
0
LINE
8
BLACK
6
CONTINUOUS
10
3.98359
20
-2.19607
11
3.98348
21
-2.19615
0
LINE
8
BLACK
6
CONTINUOUS
10
3.98348
20
-2.19615
11
3.97598
21
-2.19803
0
LINE
8
BLACK
6
CONTINUOUS
10
3.97598
20
-2.19803
11
3.97539
21
-2.19807
0
LINE
8
BLACK
6
CONTINUOUS
10
3.97539
20
-2.19807
11
3.97526
21
-2.19812
0
LINE
8
BLACK
6
CONTINUOUS
10
3.97526
20
-2.19812
11
3.96589
21
-2.19812
0
LINE
8
BLACK
6
CONTINUOUS
10
3.96589
20
-2.19812
11
3.96531
21
-2.19801
0
LINE
8
BLACK
6
CONTINUOUS
10
3.96531
20
-2.19801
11
3.96517
21
-2.19803
0
LINE
8
BLACK
6
CONTINUOUS
10
3.96517
20
-2.19803
11
3.95767
21
-2.19615
0
LINE
8
BLACK
6
CONTINUOUS
10
3.95767
20
-2.19615
11
3.95721
21
-2.19595
0
LINE
8
BLACK
6
CONTINUOUS
10
3.95721
20
-2.19595
11
3.95707
21
-2.19593
0
LINE
8
BLACK
6
CONTINUOUS
10
3.95707
20
-2.19593
11
3.95332
21
-2.19405
0
LINE
8
BLACK
6
CONTINUOUS
10
3.95332
20
-2.19405
11
3.95261
21
-2.19353
0
LINE
8
BLACK
6
CONTINUOUS
10
3.95261
20
-2.19353
11
3.95255
21
-2.1935
0
LINE
8
BLACK
6
CONTINUOUS
10
3.95255
20
-2.1935
11
3.95068
21
-2.19163
0
LINE
8
BLACK
6
CONTINUOUS
10
3.95068
20
-2.19163
11
3.95017
21
-2.1909
0
LINE
8
BLACK
6
CONTINUOUS
10
3.95017
20
-2.1909
11
3.95012
21
-2.19086
0
LINE
8
BLACK
6
CONTINUOUS
10
3.95012
20
-2.19086
11
3.94825
21
-2.18711
0
LINE
8
BLACK
6
CONTINUOUS
10
3.94825
20
-2.18711
11
3.94796
21
-2.18613
0
LINE
8
BLACK
6
CONTINUOUS
10
3.94796
20
-2.18613
11
3.948
21
-2.18596
0
LINE
8
BLACK
6
CONTINUOUS
10
3.948
20
-2.18596
11
3.94794
21
-2.18579
0
LINE
8
BLACK
6
CONTINUOUS
10
3.94794
20
-2.18579
11
3.94794
21
-2.18204
0
LINE
8
BLACK
6
CONTINUOUS
10
3.94794
20
-2.18204
11
3.94812
21
-2.18103
0
LINE
8
BLACK
6
CONTINUOUS
10
3.94812
20
-2.18103
11
3.94823
21
-2.18089
0
LINE
8
BLACK
6
CONTINUOUS
10
3.94823
20
-2.18089
11
3.94825
21
-2.18072
0
LINE
8
BLACK
6
CONTINUOUS
10
3.94825
20
-2.18072
11
3.95012
21
-2.17697
0
LINE
8
BLACK
6
CONTINUOUS
10
3.95012
20
-2.17697
11
3.95065
21
-2.17626
0
LINE
8
BLACK
6
CONTINUOUS
10
3.95065
20
-2.17626
11
3.95068
21
-2.1762
0
LINE
8
BLACK
6
CONTINUOUS
10
3.95068
20
-2.1762
11
3.95255
21
-2.17433
0
LINE
8
BLACK
6
CONTINUOUS
10
3.95255
20
-2.17433
11
3.95328
21
-2.17382
0
LINE
8
BLACK
6
CONTINUOUS
10
3.95328
20
-2.17382
11
3.95332
21
-2.17377
0
LINE
8
BLACK
6
CONTINUOUS
10
3.95332
20
-2.17377
11
3.95707
21
-2.1719
0
LINE
8
BLACK
6
CONTINUOUS
10
3.95707
20
-2.1719
11
3.95756
21
-2.17175
0
LINE
8
BLACK
6
CONTINUOUS
10
3.95756
20
-2.17175
11
3.95767
21
-2.17168
0
LINE
8
BLACK
6
CONTINUOUS
10
3.95767
20
-2.17168
11
3.96517
21
-2.1698
0
LINE
8
BLACK
6
CONTINUOUS
10
3.96517
20
-2.1698
11
3.96576
21
-2.16976
0
LINE
8
BLACK
6
CONTINUOUS
10
3.96576
20
-2.16976
11
3.96589
21
-2.16971
0
LINE
8
BLACK
6
CONTINUOUS
10
3.96589
20
-2.16971
11
3.97526
21
-2.16971
0
LINE
8
BLACK
6
CONTINUOUS
10
3.97526
20
-2.16971
11
3.97584
21
-2.16982
0
LINE
8
BLACK
6
CONTINUOUS
10
3.95942
20
-2.17733
11
3.95639
21
-2.17884
0
LINE
8
BLACK
6
CONTINUOUS
10
3.95639
20
-2.17884
11
3.95519
21
-2.18004
0
LINE
8
BLACK
6
CONTINUOUS
10
3.95519
20
-2.18004
11
3.95384
21
-2.18274
0
LINE
8
BLACK
6
CONTINUOUS
10
3.95384
20
-2.18274
11
3.95384
21
-2.18509
0
LINE
8
BLACK
6
CONTINUOUS
10
3.95384
20
-2.18509
11
3.95519
21
-2.18779
0
LINE
8
BLACK
6
CONTINUOUS
10
3.95519
20
-2.18779
11
3.95639
21
-2.18899
0
LINE
8
BLACK
6
CONTINUOUS
10
3.95639
20
-2.18899
11
3.95942
21
-2.1905
0
LINE
8
BLACK
6
CONTINUOUS
10
3.95942
20
-2.1905
11
3.96625
21
-2.19221
0
LINE
8
BLACK
6
CONTINUOUS
10
3.96625
20
-2.19221
11
3.9749
21
-2.19221
0
LINE
8
BLACK
6
CONTINUOUS
10
3.9749
20
-2.19221
11
3.98173
21
-2.1905
0
LINE
8
BLACK
6
CONTINUOUS
10
3.98173
20
-2.1905
11
3.98476
21
-2.18899
0
LINE
8
BLACK
6
CONTINUOUS
10
3.98476
20
-2.18899
11
3.98596
21
-2.18779
0
LINE
8
BLACK
6
CONTINUOUS
10
3.98596
20
-2.18779
11
3.98731
21
-2.18509
0
LINE
8
BLACK
6
CONTINUOUS
10
3.98731
20
-2.18509
11
3.98731
21
-2.18274
0
LINE
8
BLACK
6
CONTINUOUS
10
3.98731
20
-2.18274
11
3.98596
21
-2.18004
0
LINE
8
BLACK
6
CONTINUOUS
10
3.98596
20
-2.18004
11
3.98476
21
-2.17884
0
LINE
8
BLACK
6
CONTINUOUS
10
3.98476
20
-2.17884
11
3.98173
21
-2.17733
0
LINE
8
BLACK
6
CONTINUOUS
10
3.98173
20
-2.17733
11
3.9749
21
-2.17562
0
LINE
8
BLACK
6
CONTINUOUS
10
3.9749
20
-2.17562
11
3.96625
21
-2.17562
0
LINE
8
BLACK
6
CONTINUOUS
10
3.96625
20
-2.17562
11
3.95942
21
-2.17733
0
LINE
8
BLACK
6
CONTINUOUS
10
3.97584
20
-2.13232
11
3.97598
21
-2.13231
0
LINE
8
BLACK
6
CONTINUOUS
10
3.97598
20
-2.13231
11
3.98348
21
-2.13418
0
LINE
8
BLACK
6
CONTINUOUS
10
3.98348
20
-2.13418
11
3.98394
21
-2.13439
0
LINE
8
BLACK
6
CONTINUOUS
10
3.98394
20
-2.13439
11
3.98408
21
-2.1344
0
LINE
8
BLACK
6
CONTINUOUS
10
3.98408
20
-2.1344
11
3.98783
21
-2.13628
0
LINE
8
BLACK
6
CONTINUOUS
10
3.98783
20
-2.13628
11
3.98854
21
-2.1368
0
LINE
8
BLACK
6
CONTINUOUS
10
3.98854
20
-2.1368
11
3.9886
21
-2.13683
0
LINE
8
BLACK
6
CONTINUOUS
10
3.9886
20
-2.13683
11
3.99047
21
-2.13871
0
LINE
8
BLACK
6
CONTINUOUS
10
3.99047
20
-2.13871
11
3.99098
21
-2.13943
0
LINE
8
BLACK
6
CONTINUOUS
10
3.99098
20
-2.13943
11
3.99103
21
-2.13947
0
LINE
8
BLACK
6
CONTINUOUS
10
3.99103
20
-2.13947
11
3.9929
21
-2.14322
0
LINE
8
BLACK
6
CONTINUOUS
10
3.9929
20
-2.14322
11
3.99319
21
-2.14421
0
LINE
8
BLACK
6
CONTINUOUS
10
3.99319
20
-2.14421
11
3.99315
21
-2.14438
0
LINE
8
BLACK
6
CONTINUOUS
10
3.99315
20
-2.14438
11
3.99321
21
-2.14454
0
LINE
8
BLACK
6
CONTINUOUS
10
3.99321
20
-2.14454
11
3.99321
21
-2.14829
0
LINE
8
BLACK
6
CONTINUOUS
10
3.99321
20
-2.14829
11
3.99304
21
-2.1493
0
LINE
8
BLACK
6
CONTINUOUS
10
3.99304
20
-2.1493
11
3.99292
21
-2.14944
0
LINE
8
BLACK
6
CONTINUOUS
10
3.99292
20
-2.14944
11
3.9929
21
-2.14961
0
LINE
8
BLACK
6
CONTINUOUS
10
3.9929
20
-2.14961
11
3.99103
21
-2.15336
0
LINE
8
BLACK
6
CONTINUOUS
10
3.99103
20
-2.15336
11
3.9905
21
-2.15407
0
LINE
8
BLACK
6
CONTINUOUS
10
3.9905
20
-2.15407
11
3.99047
21
-2.15413
0
LINE
8
BLACK
6
CONTINUOUS
10
3.99047
20
-2.15413
11
3.9886
21
-2.15601
0
LINE
8
BLACK
6
CONTINUOUS
10
3.9886
20
-2.15601
11
3.98788
21
-2.15651
0
LINE
8
BLACK
6
CONTINUOUS
10
3.98788
20
-2.15651
11
3.98783
21
-2.15656
0
LINE
8
BLACK
6
CONTINUOUS
10
3.98783
20
-2.15656
11
3.98408
21
-2.15843
0
LINE
8
BLACK
6
CONTINUOUS
10
3.98408
20
-2.15843
11
3.98359
21
-2.15858
0
LINE
8
BLACK
6
CONTINUOUS
10
3.98359
20
-2.15858
11
3.98348
21
-2.15866
0
LINE
8
BLACK
6
CONTINUOUS
10
3.98348
20
-2.15866
11
3.97598
21
-2.16053
0
LINE
8
BLACK
6
CONTINUOUS
10
3.97598
20
-2.16053
11
3.97539
21
-2.16057
0
LINE
8
BLACK
6
CONTINUOUS
10
3.97539
20
-2.16057
11
3.97526
21
-2.16062
0
LINE
8
BLACK
6
CONTINUOUS
10
3.97526
20
-2.16062
11
3.96589
21
-2.16062
0
LINE
8
BLACK
6
CONTINUOUS
10
3.96589
20
-2.16062
11
3.96531
21
-2.16052
0
LINE
8
BLACK
6
CONTINUOUS
10
3.96531
20
-2.16052
11
3.96517
21
-2.16053
0
LINE
8
BLACK
6
CONTINUOUS
10
3.96517
20
-2.16053
11
3.95767
21
-2.15866
0
LINE
8
BLACK
6
CONTINUOUS
10
3.95767
20
-2.15866
11
3.95721
21
-2.15845
0
LINE
8
BLACK
6
CONTINUOUS
10
3.95721
20
-2.15845
11
3.95707
21
-2.15843
0
LINE
8
BLACK
6
CONTINUOUS
10
3.95707
20
-2.15843
11
3.95332
21
-2.15656
0
LINE
8
BLACK
6
CONTINUOUS
10
3.95332
20
-2.15656
11
3.95261
21
-2.15603
0
LINE
8
BLACK
6
CONTINUOUS
10
3.95261
20
-2.15603
11
3.95255
21
-2.15601
0
LINE
8
BLACK
6
CONTINUOUS
10
3.95255
20
-2.15601
11
3.95068
21
-2.15413
0
LINE
8
BLACK
6
CONTINUOUS
10
3.95068
20
-2.15413
11
3.95017
21
-2.15341
0
LINE
8
BLACK
6
CONTINUOUS
10
3.95017
20
-2.15341
11
3.95012
21
-2.15336
0
LINE
8
BLACK
6
CONTINUOUS
10
3.95012
20
-2.15336
11
3.94825
21
-2.14961
0
LINE
8
BLACK
6
CONTINUOUS
10
3.94825
20
-2.14961
11
3.94796
21
-2.14863
0
LINE
8
BLACK
6
CONTINUOUS
10
3.94796
20
-2.14863
11
3.948
21
-2.14846
0
LINE
8
BLACK
6
CONTINUOUS
10
3.948
20
-2.14846
11
3.94794
21
-2.14829
0
LINE
8
BLACK
6
CONTINUOUS
10
3.94794
20
-2.14829
11
3.94794
21
-2.14454
0
LINE
8
BLACK
6
CONTINUOUS
10
3.94794
20
-2.14454
11
3.94812
21
-2.14353
0
LINE
8
BLACK
6
CONTINUOUS
10
3.94812
20
-2.14353
11
3.94823
21
-2.1434
0
LINE
8
BLACK
6
CONTINUOUS
10
3.94823
20
-2.1434
11
3.94825
21
-2.14322
0
LINE
8
BLACK
6
CONTINUOUS
10
3.94825
20
-2.14322
11
3.95012
21
-2.13947
0
LINE
8
BLACK
6
CONTINUOUS
10
3.95012
20
-2.13947
11
3.95065
21
-2.13877
0
LINE
8
BLACK
6
CONTINUOUS
10
3.95065
20
-2.13877
11
3.95068
21
-2.13871
0
LINE
8
BLACK
6
CONTINUOUS
10
3.95068
20
-2.13871
11
3.95255
21
-2.13683
0
LINE
8
BLACK
6
CONTINUOUS
10
3.95255
20
-2.13683
11
3.95328
21
-2.13633
0
LINE
8
BLACK
6
CONTINUOUS
10
3.95328
20
-2.13633
11
3.95332
21
-2.13628
0
LINE
8
BLACK
6
CONTINUOUS
10
3.95332
20
-2.13628
11
3.95707
21
-2.1344
0
LINE
8
BLACK
6
CONTINUOUS
10
3.95707
20
-2.1344
11
3.95756
21
-2.13426
0
LINE
8
BLACK
6
CONTINUOUS
10
3.95756
20
-2.13426
11
3.95767
21
-2.13418
0
LINE
8
BLACK
6
CONTINUOUS
10
3.95767
20
-2.13418
11
3.96517
21
-2.13231
0
LINE
8
BLACK
6
CONTINUOUS
10
3.96517
20
-2.13231
11
3.96576
21
-2.13226
0
LINE
8
BLACK
6
CONTINUOUS
10
3.96576
20
-2.13226
11
3.96589
21
-2.13222
0
LINE
8
BLACK
6
CONTINUOUS
10
3.96589
20
-2.13222
11
3.97526
21
-2.13222
0
LINE
8
BLACK
6
CONTINUOUS
10
3.97526
20
-2.13222
11
3.97584
21
-2.13232
0
LINE
8
BLACK
6
CONTINUOUS
10
3.95942
20
-2.13983
11
3.95639
21
-2.14135
0
LINE
8
BLACK
6
CONTINUOUS
10
3.95639
20
-2.14135
11
3.95519
21
-2.14254
0
LINE
8
BLACK
6
CONTINUOUS
10
3.95519
20
-2.14254
11
3.95384
21
-2.14524
0
LINE
8
BLACK
6
CONTINUOUS
10
3.95384
20
-2.14524
11
3.95384
21
-2.1476
0
LINE
8
BLACK
6
CONTINUOUS
10
3.95384
20
-2.1476
11
3.95519
21
-2.15029
0
LINE
8
BLACK
6
CONTINUOUS
10
3.95519
20
-2.15029
11
3.95639
21
-2.15149
0
LINE
8
BLACK
6
CONTINUOUS
10
3.95639
20
-2.15149
11
3.95942
21
-2.15301
0
LINE
8
BLACK
6
CONTINUOUS
10
3.95942
20
-2.15301
11
3.96625
21
-2.15471
0
LINE
8
BLACK
6
CONTINUOUS
10
3.96625
20
-2.15471
11
3.9749
21
-2.15471
0
LINE
8
BLACK
6
CONTINUOUS
10
3.9749
20
-2.15471
11
3.98173
21
-2.15301
0
LINE
8
BLACK
6
CONTINUOUS
10
3.98173
20
-2.15301
11
3.98476
21
-2.15149
0
LINE
8
BLACK
6
CONTINUOUS
10
3.98476
20
-2.15149
11
3.98596
21
-2.15029
0
LINE
8
BLACK
6
CONTINUOUS
10
3.98596
20
-2.15029
11
3.98731
21
-2.1476
0
LINE
8
BLACK
6
CONTINUOUS
10
3.98731
20
-2.1476
11
3.98731
21
-2.14524
0
LINE
8
BLACK
6
CONTINUOUS
10
3.98731
20
-2.14524
11
3.98596
21
-2.14254
0
LINE
8
BLACK
6
CONTINUOUS
10
3.98596
20
-2.14254
11
3.98476
21
-2.14135
0
LINE
8
BLACK
6
CONTINUOUS
10
3.98476
20
-2.14135
11
3.98173
21
-2.13983
0
LINE
8
BLACK
6
CONTINUOUS
10
3.98173
20
-2.13983
11
3.9749
21
-2.13812
0
LINE
8
BLACK
6
CONTINUOUS
10
3.9749
20
-2.13812
11
3.96625
21
-2.13812
0
LINE
8
BLACK
6
CONTINUOUS
10
3.96625
20
-2.13812
11
3.95942
21
-2.13983
0
LINE
8
BLACK
6
CONTINUOUS
10
3.9639
20
-2.0953
11
3.96501
21
-2.09699
0
LINE
8
BLACK
6
CONTINUOUS
10
3.96501
20
-2.09699
11
3.96478
21
-2.099
0
LINE
8
BLACK
6
CONTINUOUS
10
3.96478
20
-2.099
11
3.96291
21
-2.10275
0
LINE
8
BLACK
6
CONTINUOUS
10
3.96291
20
-2.10275
11
3.96238
21
-2.10345
0
LINE
8
BLACK
6
CONTINUOUS
10
3.96238
20
-2.10345
11
3.96235
21
-2.10351
0
LINE
8
BLACK
6
CONTINUOUS
10
3.96235
20
-2.10351
11
3.95989
21
-2.10597
0
LINE
8
BLACK
6
CONTINUOUS
10
3.95989
20
-2.10597
11
3.98731
21
-2.10597
0
LINE
8
BLACK
6
CONTINUOUS
10
3.98731
20
-2.10597
11
3.98731
21
-2.09768
0
LINE
8
BLACK
6
CONTINUOUS
10
3.98731
20
-2.09768
11
3.98749
21
-2.09667
0
LINE
8
BLACK
6
CONTINUOUS
10
3.98749
20
-2.09667
11
3.98878
21
-2.09512
0
LINE
8
BLACK
6
CONTINUOUS
10
3.98878
20
-2.09512
11
3.99077
21
-2.09477
0
LINE
8
BLACK
6
CONTINUOUS
10
3.99077
20
-2.09477
11
3.99252
21
-2.09578
0
LINE
8
BLACK
6
CONTINUOUS
10
3.99252
20
-2.09578
11
3.99321
21
-2.09768
0
LINE
8
BLACK
6
CONTINUOUS
10
3.99321
20
-2.09768
11
3.99321
21
-2.12017
0
LINE
8
BLACK
6
CONTINUOUS
10
3.99321
20
-2.12017
11
3.99304
21
-2.12118
0
LINE
8
BLACK
6
CONTINUOUS
10
3.99304
20
-2.12118
11
3.99174
21
-2.12273
0
LINE
8
BLACK
6
CONTINUOUS
10
3.99174
20
-2.12273
11
3.98975
21
-2.12308
0
LINE
8
BLACK
6
CONTINUOUS
10
3.98975
20
-2.12308
11
3.988
21
-2.12207
0
LINE
8
BLACK
6
CONTINUOUS
10
3.988
20
-2.12207
11
3.98731
21
-2.12017
0
LINE
8
BLACK
6
CONTINUOUS
10
3.98731
20
-2.12017
11
3.98731
21
-2.11188
0
LINE
8
BLACK
6
CONTINUOUS
10
3.98731
20
-2.11188
11
3.95089
21
-2.11188
0
LINE
8
BLACK
6
CONTINUOUS
10
3.95089
20
-2.11188
11
3.94988
21
-2.1117
0
LINE
8
BLACK
6
CONTINUOUS
10
3.94988
20
-2.1117
11
3.94975
21
-2.11159
0
LINE
8
BLACK
6
CONTINUOUS
10
3.94975
20
-2.11159
11
3.94958
21
-2.11157
0
LINE
8
BLACK
6
CONTINUOUS
10
3.94958
20
-2.11157
11
3.94899
21
-2.11095
0
LINE
8
BLACK
6
CONTINUOUS
10
3.94899
20
-2.11095
11
3.94833
21
-2.1104
0
LINE
8
BLACK
6
CONTINUOUS
10
3.94833
20
-2.1104
11
3.9483
21
-2.11023
0
LINE
8
BLACK
6
CONTINUOUS
10
3.9483
20
-2.11023
11
3.94819
21
-2.11011
0
LINE
8
BLACK
6
CONTINUOUS
10
3.94819
20
-2.11011
11
3.94813
21
-2.10926
0
LINE
8
BLACK
6
CONTINUOUS
10
3.94813
20
-2.10926
11
3.94798
21
-2.10841
0
LINE
8
BLACK
6
CONTINUOUS
10
3.94798
20
-2.10841
11
3.94807
21
-2.10826
0
LINE
8
BLACK
6
CONTINUOUS
10
3.94807
20
-2.10826
11
3.94806
21
-2.10809
0
LINE
8
BLACK
6
CONTINUOUS
10
3.94806
20
-2.10809
11
3.94856
21
-2.1074
0
LINE
8
BLACK
6
CONTINUOUS
10
3.94856
20
-2.1074
11
3.94899
21
-2.10666
0
LINE
8
BLACK
6
CONTINUOUS
10
3.94899
20
-2.10666
11
3.94915
21
-2.1066
0
LINE
8
BLACK
6
CONTINUOUS
10
3.94915
20
-2.1066
11
3.94925
21
-2.10647
0
LINE
8
BLACK
6
CONTINUOUS
10
3.94925
20
-2.10647
11
3.95463
21
-2.10288
0
LINE
8
BLACK
6
CONTINUOUS
10
3.95463
20
-2.10288
11
3.95784
21
-2.09968
0
LINE
8
BLACK
6
CONTINUOUS
10
3.95784
20
-2.09968
11
3.9595
21
-2.09635
0
LINE
8
BLACK
6
CONTINUOUS
10
3.9595
20
-2.09635
11
3.96011
21
-2.09553
0
LINE
8
BLACK
6
CONTINUOUS
10
3.96011
20
-2.09553
11
3.96196
21
-2.09473
0
LINE
8
BLACK
6
CONTINUOUS
10
3.96196
20
-2.09473
11
3.9639
21
-2.0953
0
LINE
8
BLACK
6
CONTINUOUS
10
3.64349
20
-1.92095
11
3.64504
21
-1.92225
0
LINE
8
BLACK
6
CONTINUOUS
10
3.64504
20
-1.92225
11
3.64539
21
-1.92424
0
LINE
8
BLACK
6
CONTINUOUS
10
3.64539
20
-1.92424
11
3.64438
21
-1.92599
0
LINE
8
BLACK
6
CONTINUOUS
10
3.64438
20
-1.92599
11
3.64248
21
-1.92668
0
LINE
8
BLACK
6
CONTINUOUS
10
3.64248
20
-1.92668
11
3.62462
21
-1.92668
0
LINE
8
BLACK
6
CONTINUOUS
10
3.62462
20
-1.92668
11
3.63346
21
-1.93678
0
LINE
8
BLACK
6
CONTINUOUS
10
3.63346
20
-1.93678
11
3.63369
21
-1.93716
0
LINE
8
BLACK
6
CONTINUOUS
10
3.63369
20
-1.93716
11
3.63379
21
-1.93725
0
LINE
8
BLACK
6
CONTINUOUS
10
3.63379
20
-1.93725
11
3.63381
21
-1.93737
0
LINE
8
BLACK
6
CONTINUOUS
10
3.63381
20
-1.93737
11
3.63399
21
-1.93766
0
LINE
8
BLACK
6
CONTINUOUS
10
3.63399
20
-1.93766
11
3.634
21
-1.93845
0
LINE
8
BLACK
6
CONTINUOUS
10
3.634
20
-1.93845
11
3.63414
21
-1.93924
0
LINE
8
BLACK
6
CONTINUOUS
10
3.63414
20
-1.93924
11
3.63402
21
-1.93944
0
LINE
8
BLACK
6
CONTINUOUS
10
3.63402
20
-1.93944
11
3.63403
21
-1.93968
0
LINE
8
BLACK
6
CONTINUOUS
10
3.63403
20
-1.93968
11
3.63353
21
-1.9403
0
LINE
8
BLACK
6
CONTINUOUS
10
3.63353
20
-1.9403
11
3.63313
21
-1.94099
0
LINE
8
BLACK
6
CONTINUOUS
10
3.63313
20
-1.94099
11
3.63291
21
-1.94107
0
LINE
8
BLACK
6
CONTINUOUS
10
3.63291
20
-1.94107
11
3.63276
21
-1.94125
0
LINE
8
BLACK
6
CONTINUOUS
10
3.63276
20
-1.94125
11
3.63198
21
-1.9414
0
LINE
8
BLACK
6
CONTINUOUS
10
3.63198
20
-1.9414
11
3.63123
21
-1.94168
0
LINE
8
BLACK
6
CONTINUOUS
10
3.63123
20
-1.94168
11
3.62631
21
-1.94168
0
LINE
8
BLACK
6
CONTINUOUS
10
3.62631
20
-1.94168
11
3.62361
21
-1.94302
0
LINE
8
BLACK
6
CONTINUOUS
10
3.62361
20
-1.94302
11
3.62241
21
-1.94422
0
LINE
8
BLACK
6
CONTINUOUS
10
3.62241
20
-1.94422
11
3.62106
21
-1.94692
0
LINE
8
BLACK
6
CONTINUOUS
10
3.62106
20
-1.94692
11
3.62106
21
-1.9549
0
LINE
8
BLACK
6
CONTINUOUS
10
3.62106
20
-1.9549
11
3.62241
21
-1.9576
0
LINE
8
BLACK
6
CONTINUOUS
10
3.62241
20
-1.9576
11
3.62361
21
-1.95879
0
LINE
8
BLACK
6
CONTINUOUS
10
3.62361
20
-1.95879
11
3.62631
21
-1.96014
0
LINE
8
BLACK
6
CONTINUOUS
10
3.62631
20
-1.96014
11
3.63616
21
-1.96014
0
LINE
8
BLACK
6
CONTINUOUS
10
3.63616
20
-1.96014
11
3.63886
21
-1.95879
0
LINE
8
BLACK
6
CONTINUOUS
10
3.63886
20
-1.95879
11
3.64039
21
-1.95726
0
LINE
8
BLACK
6
CONTINUOUS
10
3.64039
20
-1.95726
11
3.64123
21
-1.95667
0
LINE
8
BLACK
6
CONTINUOUS
10
3.64123
20
-1.95667
11
3.64325
21
-1.95649
0
LINE
8
BLACK
6
CONTINUOUS
10
3.64325
20
-1.95649
11
3.6449
21
-1.95765
0
LINE
8
BLACK
6
CONTINUOUS
10
3.6449
20
-1.95765
11
3.64542
21
-1.9596
0
LINE
8
BLACK
6
CONTINUOUS
10
3.64542
20
-1.9596
11
3.64457
21
-1.96143
0
LINE
8
BLACK
6
CONTINUOUS
10
3.64457
20
-1.96143
11
3.6427
21
-1.96331
0
LINE
8
BLACK
6
CONTINUOUS
10
3.6427
20
-1.96331
11
3.64197
21
-1.96381
0
LINE
8
BLACK
6
CONTINUOUS
10
3.64197
20
-1.96381
11
3.64193
21
-1.96386
0
LINE
8
BLACK
6
CONTINUOUS
10
3.64193
20
-1.96386
11
3.63818
21
-1.96574
0
LINE
8
BLACK
6
CONTINUOUS
10
3.63818
20
-1.96574
11
3.6372
21
-1.96603
0
LINE
8
BLACK
6
CONTINUOUS
10
3.6372
20
-1.96603
11
3.63702
21
-1.96599
0
LINE
8
BLACK
6
CONTINUOUS
10
3.63702
20
-1.96599
11
3.63686
21
-1.96605
0
LINE
8
BLACK
6
CONTINUOUS
10
3.63686
20
-1.96605
11
3.62561
21
-1.96605
0
LINE
8
BLACK
6
CONTINUOUS
10
3.62561
20
-1.96605
11
3.6246
21
-1.96587
0
LINE
8
BLACK
6
CONTINUOUS
10
3.6246
20
-1.96587
11
3.62446
21
-1.96576
0
LINE
8
BLACK
6
CONTINUOUS
10
3.62446
20
-1.96576
11
3.62429
21
-1.96574
0
LINE
8
BLACK
6
CONTINUOUS
10
3.62429
20
-1.96574
11
3.62054
21
-1.96386
0
LINE
8
BLACK
6
CONTINUOUS
10
3.62054
20
-1.96386
11
3.61983
21
-1.96334
0
LINE
8
BLACK
6
CONTINUOUS
10
3.61983
20
-1.96334
11
3.61977
21
-1.96331
0
LINE
8
BLACK
6
CONTINUOUS
10
3.61977
20
-1.96331
11
3.6179
21
-1.96143
0
LINE
8
BLACK
6
CONTINUOUS
10
3.6179
20
-1.96143
11
3.61739
21
-1.96071
0
LINE
8
BLACK
6
CONTINUOUS
10
3.61739
20
-1.96071
11
3.61734
21
-1.96067
0
LINE
8
BLACK
6
CONTINUOUS
10
3.61734
20
-1.96067
11
3.61547
21
-1.95692
0
LINE
8
BLACK
6
CONTINUOUS
10
3.61547
20
-1.95692
11
3.61518
21
-1.95593
0
LINE
8
BLACK
6
CONTINUOUS
10
3.61518
20
-1.95593
11
3.61522
21
-1.95576
0
LINE
8
BLACK
6
CONTINUOUS
10
3.61522
20
-1.95576
11
3.61516
21
-1.9556
0
LINE
8
BLACK
6
CONTINUOUS
10
3.61516
20
-1.9556
11
3.61516
21
-1.94622
0
LINE
8
BLACK
6
CONTINUOUS
10
3.61516
20
-1.94622
11
3.61534
21
-1.94521
0
LINE
8
BLACK
6
CONTINUOUS
10
3.61534
20
-1.94521
11
3.61545
21
-1.94508
0
LINE
8
BLACK
6
CONTINUOUS
10
3.61545
20
-1.94508
11
3.61547
21
-1.9449
0
LINE
8
BLACK
6
CONTINUOUS
10
3.61547
20
-1.9449
11
3.61734
21
-1.94115
0
LINE
8
BLACK
6
CONTINUOUS
10
3.61734
20
-1.94115
11
3.61787
21
-1.94044
0
LINE
8
BLACK
6
CONTINUOUS
10
3.61787
20
-1.94044
11
3.6179
21
-1.94038
0
LINE
8
BLACK
6
CONTINUOUS
10
3.6179
20
-1.94038
11
3.61977
21
-1.93851
0
LINE
8
BLACK
6
CONTINUOUS
10
3.61977
20
-1.93851
11
3.62049
21
-1.938
0
LINE
8
BLACK
6
CONTINUOUS
10
3.62049
20
-1.938
11
3.62054
21
-1.93796
0
LINE
8
BLACK
6
CONTINUOUS
10
3.62054
20
-1.93796
11
3.62429
21
-1.93608
0
LINE
8
BLACK
6
CONTINUOUS
10
3.62429
20
-1.93608
11
3.62485
21
-1.93591
0
LINE
8
BLACK
6
CONTINUOUS
10
3.62485
20
-1.93591
11
3.61589
21
-1.92567
0
LINE
8
BLACK
6
CONTINUOUS
10
3.61589
20
-1.92567
11
3.61566
21
-1.92529
0
LINE
8
BLACK
6
CONTINUOUS
10
3.61566
20
-1.92529
11
3.61555
21
-1.9252
0
LINE
8
BLACK
6
CONTINUOUS
10
3.61555
20
-1.9252
11
3.61553
21
-1.92508
0
LINE
8
BLACK
6
CONTINUOUS
10
3.61553
20
-1.92508
11
3.61536
21
-1.92479
0
LINE
8
BLACK
6
CONTINUOUS
10
3.61536
20
-1.92479
11
3.61534
21
-1.924
0
LINE
8
BLACK
6
CONTINUOUS
10
3.61534
20
-1.924
11
3.6152
21
-1.92321
0
LINE
8
BLACK
6
CONTINUOUS
10
3.6152
20
-1.92321
11
3.61532
21
-1.92301
0
LINE
8
BLACK
6
CONTINUOUS
10
3.61532
20
-1.92301
11
3.61532
21
-1.92277
0
LINE
8
BLACK
6
CONTINUOUS
10
3.61532
20
-1.92277
11
3.61581
21
-1.92215
0
LINE
8
BLACK
6
CONTINUOUS
10
3.61581
20
-1.92215
11
3.61621
21
-1.92146
0
LINE
8
BLACK
6
CONTINUOUS
10
3.61621
20
-1.92146
11
3.61643
21
-1.92138
0
LINE
8
BLACK
6
CONTINUOUS
10
3.61643
20
-1.92138
11
3.61658
21
-1.9212
0
LINE
8
BLACK
6
CONTINUOUS
10
3.61658
20
-1.9212
11
3.61736
21
-1.92104
0
LINE
8
BLACK
6
CONTINUOUS
10
3.61736
20
-1.92104
11
3.61811
21
-1.92077
0
LINE
8
BLACK
6
CONTINUOUS
10
3.61811
20
-1.92077
11
3.64248
21
-1.92077
0
LINE
8
BLACK
6
CONTINUOUS
10
3.64248
20
-1.92077
11
3.64349
21
-1.92095
0
LINE
8
BLACK
6
CONTINUOUS
10
3.68099
20
-1.92095
11
3.68253
21
-1.92225
0
LINE
8
BLACK
6
CONTINUOUS
10
3.68253
20
-1.92225
11
3.68289
21
-1.92424
0
LINE
8
BLACK
6
CONTINUOUS
10
3.68289
20
-1.92424
11
3.68188
21
-1.92599
0
LINE
8
BLACK
6
CONTINUOUS
10
3.68188
20
-1.92599
11
3.67998
21
-1.92668
0
LINE
8
BLACK
6
CONTINUOUS
10
3.67998
20
-1.92668
11
3.65821
21
-1.92668
0
LINE
8
BLACK
6
CONTINUOUS
10
3.65821
20
-1.92668
11
3.67332
21
-1.96193
0
LINE
8
BLACK
6
CONTINUOUS
10
3.67332
20
-1.96193
11
3.67355
21
-1.96293
0
LINE
8
BLACK
6
CONTINUOUS
10
3.67355
20
-1.96293
11
3.67297
21
-1.96486
0
LINE
8
BLACK
6
CONTINUOUS
10
3.67297
20
-1.96486
11
3.67128
21
-1.96597
0
LINE
8
BLACK
6
CONTINUOUS
10
3.67128
20
-1.96597
11
3.66927
21
-1.96573
0
LINE
8
BLACK
6
CONTINUOUS
10
3.66927
20
-1.96573
11
3.66789
21
-1.96426
0
LINE
8
BLACK
6
CONTINUOUS
10
3.66789
20
-1.96426
11
3.65102
21
-1.92489
0
LINE
8
BLACK
6
CONTINUOUS
10
3.65102
20
-1.92489
11
3.65078
21
-1.92389
0
LINE
8
BLACK
6
CONTINUOUS
10
3.65078
20
-1.92389
11
3.65088
21
-1.92356
0
LINE
8
BLACK
6
CONTINUOUS
10
3.65088
20
-1.92356
11
3.65082
21
-1.92321
0
LINE
8
BLACK
6
CONTINUOUS
10
3.65082
20
-1.92321
11
3.65117
21
-1.92262
0
LINE
8
BLACK
6
CONTINUOUS
10
3.65117
20
-1.92262
11
3.65137
21
-1.92196
0
LINE
8
BLACK
6
CONTINUOUS
10
3.65137
20
-1.92196
11
3.65166
21
-1.92177
0
LINE
8
BLACK
6
CONTINUOUS
10
3.65166
20
-1.92177
11
3.65183
21
-1.92146
0
LINE
8
BLACK
6
CONTINUOUS
10
3.65183
20
-1.92146
11
3.65248
21
-1.92123
0
LINE
8
BLACK
6
CONTINUOUS
10
3.65248
20
-1.92123
11
3.65306
21
-1.92085
0
LINE
8
BLACK
6
CONTINUOUS
10
3.65306
20
-1.92085
11
3.6534
21
-1.92089
0
LINE
8
BLACK
6
CONTINUOUS
10
3.6534
20
-1.92089
11
3.65373
21
-1.92077
0
LINE
8
BLACK
6
CONTINUOUS
10
3.65373
20
-1.92077
11
3.67998
21
-1.92077
0
LINE
8
BLACK
6
CONTINUOUS
10
3.67998
20
-1.92077
11
3.68099
21
-1.92095
0
LINE
8
BLACK
6
CONTINUOUS
10
3.70911
20
-1.92095
11
3.70924
21
-1.92106
0
LINE
8
BLACK
6
CONTINUOUS
10
3.70924
20
-1.92106
11
3.70942
21
-1.92108
0
LINE
8
BLACK
6
CONTINUOUS
10
3.70942
20
-1.92108
11
3.71317
21
-1.92296
0
LINE
8
BLACK
6
CONTINUOUS
10
3.71317
20
-1.92296
11
3.71388
21
-1.92348
0
LINE
8
BLACK
6
CONTINUOUS
10
3.71388
20
-1.92348
11
3.71394
21
-1.92351
0
LINE
8
BLACK
6
CONTINUOUS
10
3.71394
20
-1.92351
11
3.71581
21
-1.92539
0
LINE
8
BLACK
6
CONTINUOUS
10
3.71581
20
-1.92539
11
3.71632
21
-1.92611
0
LINE
8
BLACK
6
CONTINUOUS
10
3.71632
20
-1.92611
11
3.71636
21
-1.92615
0
LINE
8
BLACK
6
CONTINUOUS
10
3.71636
20
-1.92615
11
3.71824
21
-1.9299
0
LINE
8
BLACK
6
CONTINUOUS
10
3.71824
20
-1.9299
11
3.71853
21
-1.93089
0
LINE
8
BLACK
6
CONTINUOUS
10
3.71853
20
-1.93089
11
3.71849
21
-1.93106
0
LINE
8
BLACK
6
CONTINUOUS
10
3.71849
20
-1.93106
11
3.71855
21
-1.93122
0
LINE
8
BLACK
6
CONTINUOUS
10
3.71855
20
-1.93122
11
3.71855
21
-1.9406
0
LINE
8
BLACK
6
CONTINUOUS
10
3.71855
20
-1.9406
11
3.71837
21
-1.94161
0
LINE
8
BLACK
6
CONTINUOUS
10
3.71837
20
-1.94161
11
3.71826
21
-1.94174
0
LINE
8
BLACK
6
CONTINUOUS
10
3.71826
20
-1.94174
11
3.71824
21
-1.94192
0
LINE
8
BLACK
6
CONTINUOUS
10
3.71824
20
-1.94192
11
3.71636
21
-1.94567
0
LINE
8
BLACK
6
CONTINUOUS
10
3.71636
20
-1.94567
11
3.71584
21
-1.94638
0
LINE
8
BLACK
6
CONTINUOUS
10
3.71584
20
-1.94638
11
3.71581
21
-1.94644
0
LINE
8
BLACK
6
CONTINUOUS
10
3.71581
20
-1.94644
11
3.71394
21
-1.94831
0
LINE
8
BLACK
6
CONTINUOUS
10
3.71394
20
-1.94831
11
3.71321
21
-1.94882
0
LINE
8
BLACK
6
CONTINUOUS
10
3.71321
20
-1.94882
11
3.71317
21
-1.94886
0
LINE
8
BLACK
6
CONTINUOUS
10
3.71317
20
-1.94886
11
3.70942
21
-1.95074
0
LINE
8
BLACK
6
CONTINUOUS
10
3.70942
20
-1.95074
11
3.70844
21
-1.95103
0
LINE
8
BLACK
6
CONTINUOUS
10
3.70844
20
-1.95103
11
3.70826
21
-1.95099
0
LINE
8
BLACK
6
CONTINUOUS
10
3.70826
20
-1.95099
11
3.7081
21
-1.95105
0
LINE
8
BLACK
6
CONTINUOUS
10
3.7081
20
-1.95105
11
3.7006
21
-1.95105
0
LINE
8
BLACK
6
CONTINUOUS
10
3.7006
20
-1.95105
11
3.69959
21
-1.95087
0
LINE
8
BLACK
6
CONTINUOUS
10
3.69959
20
-1.95087
11
3.69945
21
-1.95076
0
LINE
8
BLACK
6
CONTINUOUS
10
3.69945
20
-1.95076
11
3.69928
21
-1.95074
0
LINE
8
BLACK
6
CONTINUOUS
10
3.69928
20
-1.95074
11
3.69699
21
-1.94959
0
LINE
8
BLACK
6
CONTINUOUS
10
3.69699
20
-1.94959
11
3.69772
21
-1.95251
0
LINE
8
BLACK
6
CONTINUOUS
10
3.69772
20
-1.95251
11
3.70102
21
-1.95746
0
LINE
8
BLACK
6
CONTINUOUS
10
3.70102
20
-1.95746
11
3.70235
21
-1.95879
0
LINE
8
BLACK
6
CONTINUOUS
10
3.70235
20
-1.95879
11
3.70505
21
-1.96014
0
LINE
8
BLACK
6
CONTINUOUS
10
3.70505
20
-1.96014
11
3.71185
21
-1.96014
0
LINE
8
BLACK
6
CONTINUOUS
10
3.71185
20
-1.96014
11
3.71286
21
-1.96032
0
LINE
8
BLACK
6
CONTINUOUS
10
3.71286
20
-1.96032
11
3.71441
21
-1.96162
0
LINE
8
BLACK
6
CONTINUOUS
10
3.71441
20
-1.96162
11
3.71476
21
-1.96361
0
LINE
8
BLACK
6
CONTINUOUS
10
3.71476
20
-1.96361
11
3.71375
21
-1.96536
0
LINE
8
BLACK
6
CONTINUOUS
10
3.71375
20
-1.96536
11
3.71185
21
-1.96605
0
LINE
8
BLACK
6
CONTINUOUS
10
3.71185
20
-1.96605
11
3.70435
21
-1.96605
0
LINE
8
BLACK
6
CONTINUOUS
10
3.70435
20
-1.96605
11
3.70334
21
-1.96587
0
LINE
8
BLACK
6
CONTINUOUS
10
3.70334
20
-1.96587
11
3.7032
21
-1.96576
0
LINE
8
BLACK
6
CONTINUOUS
10
3.7032
20
-1.96576
11
3.70303
21
-1.96574
0
LINE
8
BLACK
6
CONTINUOUS
10
3.70303
20
-1.96574
11
3.69928
21
-1.96386
0
LINE
8
BLACK
6
CONTINUOUS
10
3.69928
20
-1.96386
11
3.69857
21
-1.96334
0
LINE
8
BLACK
6
CONTINUOUS
10
3.69857
20
-1.96334
11
3.69851
21
-1.96331
0
LINE
8
BLACK
6
CONTINUOUS
10
3.69851
20
-1.96331
11
3.69664
21
-1.96143
0
LINE
8
BLACK
6
CONTINUOUS
10
3.69664
20
-1.96143
11
3.69638
21
-1.96107
0
LINE
8
BLACK
6
CONTINUOUS
10
3.69638
20
-1.96107
11
3.69627
21
-1.96098
0
LINE
8
BLACK
6
CONTINUOUS
10
3.69627
20
-1.96098
11
3.69252
21
-1.95536
0
LINE
8
BLACK
6
CONTINUOUS
10
3.69252
20
-1.95536
11
3.69212
21
-1.95445
0
LINE
8
BLACK
6
CONTINUOUS
10
3.69212
20
-1.95445
11
3.69211
21
-1.95444
0
LINE
8
BLACK
6
CONTINUOUS
10
3.69211
20
-1.95444
11
3.69024
21
-1.94694
0
LINE
8
BLACK
6
CONTINUOUS
10
3.69024
20
-1.94694
11
3.69019
21
-1.94635
0
LINE
8
BLACK
6
CONTINUOUS
10
3.69019
20
-1.94635
11
3.69015
21
-1.94622
0
LINE
8
BLACK
6
CONTINUOUS
10
3.69015
20
-1.94622
11
3.69015
21
-1.93122
0
LINE
8
BLACK
6
CONTINUOUS
10
3.69015
20
-1.93122
11
3.69033
21
-1.93021
0
LINE
8
BLACK
6
CONTINUOUS
10
3.69033
20
-1.93021
11
3.69044
21
-1.93008
0
LINE
8
BLACK
6
CONTINUOUS
10
3.69044
20
-1.93008
11
3.69046
21
-1.9299
0
LINE
8
BLACK
6
CONTINUOUS
10
3.69046
20
-1.9299
11
3.69233
21
-1.92615
0
LINE
8
BLACK
6
CONTINUOUS
10
3.69233
20
-1.92615
11
3.69286
21
-1.92545
0
LINE
8
BLACK
6
CONTINUOUS
10
3.69286
20
-1.92545
11
3.69289
21
-1.92539
0
LINE
8
BLACK
6
CONTINUOUS
10
3.69289
20
-1.92539
11
3.69476
21
-1.92351
0
LINE
8
BLACK
6
CONTINUOUS
10
3.69476
20
-1.92351
11
3.69549
21
-1.92301
0
LINE
8
BLACK
6
CONTINUOUS
10
3.69549
20
-1.92301
11
3.69553
21
-1.92296
0
LINE
8
BLACK
6
CONTINUOUS
10
3.69553
20
-1.92296
11
3.69928
21
-1.92108
0
LINE
8
BLACK
6
CONTINUOUS
10
3.69928
20
-1.92108
11
3.70026
21
-1.92079
0
LINE
8
BLACK
6
CONTINUOUS
10
3.70026
20
-1.92079
11
3.70043
21
-1.92083
0
LINE
8
BLACK
6
CONTINUOUS
10
3.70043
20
-1.92083
11
3.7006
21
-1.92077
0
LINE
8
BLACK
6
CONTINUOUS
10
3.7006
20
-1.92077
11
3.7081
21
-1.92077
0
LINE
8
BLACK
6
CONTINUOUS
10
3.7081
20
-1.92077
11
3.70911
21
-1.92095
0
LINE
8
BLACK
6
CONTINUOUS
10
3.6986
20
-1.92803
11
3.6974
21
-1.92922
0
LINE
8
BLACK
6
CONTINUOUS
10
3.6974
20
-1.92922
11
3.69605
21
-1.93192
0
LINE
8
BLACK
6
CONTINUOUS
10
3.69605
20
-1.93192
11
3.69605
21
-1.9399
0
LINE
8
BLACK
6
CONTINUOUS
10
3.69605
20
-1.9399
11
3.6974
21
-1.9426
0
LINE
8
BLACK
6
CONTINUOUS
10
3.6974
20
-1.9426
11
3.6986
21
-1.9438
0
LINE
8
BLACK
6
CONTINUOUS
10
3.6986
20
-1.9438
11
3.7013
21
-1.94514
0
LINE
8
BLACK
6
CONTINUOUS
10
3.7013
20
-1.94514
11
3.7074
21
-1.94514
0
LINE
8
BLACK
6
CONTINUOUS
10
3.7074
20
-1.94514
11
3.7101
21
-1.9438
0
LINE
8
BLACK
6
CONTINUOUS
10
3.7101
20
-1.9438
11
3.7113
21
-1.9426
0
LINE
8
BLACK
6
CONTINUOUS
10
3.7113
20
-1.9426
11
3.71265
21
-1.9399
0
LINE
8
BLACK
6
CONTINUOUS
10
3.71265
20
-1.9399
11
3.71265
21
-1.93192
0
LINE
8
BLACK
6
CONTINUOUS
10
3.71265
20
-1.93192
11
3.7113
21
-1.92922
0
LINE
8
BLACK
6
CONTINUOUS
10
3.7113
20
-1.92922
11
3.7101
21
-1.92803
0
LINE
8
BLACK
6
CONTINUOUS
10
3.7101
20
-1.92803
11
3.7074
21
-1.92668
0
LINE
8
BLACK
6
CONTINUOUS
10
3.7074
20
-1.92668
11
3.7013
21
-1.92668
0
LINE
8
BLACK
6
CONTINUOUS
10
3.7013
20
-1.92668
11
3.6986
21
-1.92803
0
LINE
8
BLACK
6
CONTINUOUS
10
3.75137
20
-1.9208
11
3.75144
21
-1.92078
0
LINE
8
BLACK
6
CONTINUOUS
10
3.75144
20
-1.92078
11
3.75155
21
-1.92083
0
LINE
8
BLACK
6
CONTINUOUS
10
3.75155
20
-1.92083
11
3.75223
21
-1.92095
0
LINE
8
BLACK
6
CONTINUOUS
10
3.75223
20
-1.92095
11
3.75271
21
-1.92135
0
LINE
8
BLACK
6
CONTINUOUS
10
3.75271
20
-1.92135
11
3.75328
21
-1.92161
0
LINE
8
BLACK
6
CONTINUOUS
10
3.75328
20
-1.92161
11
3.75346
21
-1.92198
0
LINE
8
BLACK
6
CONTINUOUS
10
3.75346
20
-1.92198
11
3.75378
21
-1.92225
0
LINE
8
BLACK
6
CONTINUOUS
10
3.75378
20
-1.92225
11
3.75388
21
-1.92287
0
LINE
8
BLACK
6
CONTINUOUS
10
3.75388
20
-1.92287
11
3.75416
21
-1.92343
0
LINE
8
BLACK
6
CONTINUOUS
10
3.75416
20
-1.92343
11
3.75603
21
-1.94218
0
LINE
8
BLACK
6
CONTINUOUS
10
3.75603
20
-1.94218
11
3.75595
21
-1.9432
0
LINE
8
BLACK
6
CONTINUOUS
10
3.75595
20
-1.9432
11
3.75594
21
-1.94322
0
LINE
8
BLACK
6
CONTINUOUS
10
3.75594
20
-1.94322
11
3.75595
21
-1.94324
0
LINE
8
BLACK
6
CONTINUOUS
10
3.75595
20
-1.94324
11
3.75538
21
-1.94405
0
LINE
8
BLACK
6
CONTINUOUS
10
3.75538
20
-1.94405
11
3.75482
21
-1.94487
0
LINE
8
BLACK
6
CONTINUOUS
10
3.75482
20
-1.94487
11
3.7548
21
-1.94488
0
LINE
8
BLACK
6
CONTINUOUS
10
3.7548
20
-1.94488
11
3.75479
21
-1.94489
0
LINE
8
BLACK
6
CONTINUOUS
10
3.75479
20
-1.94489
11
3.75383
21
-1.94515
0
LINE
8
BLACK
6
CONTINUOUS
10
3.75383
20
-1.94515
11
3.75287
21
-1.94542
0
LINE
8
BLACK
6
CONTINUOUS
10
3.75287
20
-1.94542
11
3.75285
21
-1.94541
0
LINE
8
BLACK
6
CONTINUOUS
10
3.75285
20
-1.94541
11
3.75284
21
-1.94541
0
LINE
8
BLACK
6
CONTINUOUS
10
3.75284
20
-1.94541
11
3.75194
21
-1.945
0
LINE
8
BLACK
6
CONTINUOUS
10
3.75194
20
-1.945
11
3.75103
21
-1.94459
0
LINE
8
BLACK
6
CONTINUOUS
10
3.75103
20
-1.94459
11
3.75102
21
-1.94457
0
LINE
8
BLACK
6
CONTINUOUS
10
3.75102
20
-1.94457
11
3.75101
21
-1.94456
0
LINE
8
BLACK
6
CONTINUOUS
10
3.75101
20
-1.94456
11
3.74947
21
-1.94302
0
LINE
8
BLACK
6
CONTINUOUS
10
3.74947
20
-1.94302
11
3.74677
21
-1.94168
0
LINE
8
BLACK
6
CONTINUOUS
10
3.74677
20
-1.94168
11
3.73879
21
-1.94168
0
LINE
8
BLACK
6
CONTINUOUS
10
3.73879
20
-1.94168
11
3.73609
21
-1.94302
0
LINE
8
BLACK
6
CONTINUOUS
10
3.73609
20
-1.94302
11
3.7349
21
-1.94422
0
LINE
8
BLACK
6
CONTINUOUS
10
3.7349
20
-1.94422
11
3.73355
21
-1.94692
0
LINE
8
BLACK
6
CONTINUOUS
10
3.73355
20
-1.94692
11
3.73355
21
-1.9549
0
LINE
8
BLACK
6
CONTINUOUS
10
3.73355
20
-1.9549
11
3.7349
21
-1.9576
0
LINE
8
BLACK
6
CONTINUOUS
10
3.7349
20
-1.9576
11
3.73609
21
-1.95879
0
LINE
8
BLACK
6
CONTINUOUS
10
3.73609
20
-1.95879
11
3.73879
21
-1.96014
0
LINE
8
BLACK
6
CONTINUOUS
10
3.73879
20
-1.96014
11
3.74677
21
-1.96014
0
LINE
8
BLACK
6
CONTINUOUS
10
3.74677
20
-1.96014
11
3.74947
21
-1.95879
0
LINE
8
BLACK
6
CONTINUOUS
10
3.74947
20
-1.95879
11
3.75101
21
-1.95726
0
LINE
8
BLACK
6
CONTINUOUS
10
3.75101
20
-1.95726
11
3.75185
21
-1.95667
0
LINE
8
BLACK
6
CONTINUOUS
10
3.75185
20
-1.95667
11
3.75386
21
-1.95649
0
LINE
8
BLACK
6
CONTINUOUS
10
3.75386
20
-1.95649
11
3.75551
21
-1.95765
0
LINE
8
BLACK
6
CONTINUOUS
10
3.75551
20
-1.95765
11
3.75603
21
-1.9596
0
LINE
8
BLACK
6
CONTINUOUS
10
3.75603
20
-1.9596
11
3.75518
21
-1.96143
0
LINE
8
BLACK
6
CONTINUOUS
10
3.75518
20
-1.96143
11
3.75331
21
-1.96331
0
LINE
8
BLACK
6
CONTINUOUS
10
3.75331
20
-1.96331
11
3.75258
21
-1.96381
0
LINE
8
BLACK
6
CONTINUOUS
10
3.75258
20
-1.96381
11
3.75254
21
-1.96386
0
LINE
8
BLACK
6
CONTINUOUS
10
3.75254
20
-1.96386
11
3.74879
21
-1.96574
0
LINE
8
BLACK
6
CONTINUOUS
10
3.74879
20
-1.96574
11
3.74781
21
-1.96603
0
LINE
8
BLACK
6
CONTINUOUS
10
3.74781
20
-1.96603
11
3.74763
21
-1.96599
0
LINE
8
BLACK
6
CONTINUOUS
10
3.74763
20
-1.96599
11
3.74747
21
-1.96605
0
LINE
8
BLACK
6
CONTINUOUS
10
3.74747
20
-1.96605
11
3.7381
21
-1.96605
0
LINE
8
BLACK
6
CONTINUOUS
10
3.7381
20
-1.96605
11
3.73709
21
-1.96587
0
LINE
8
BLACK
6
CONTINUOUS
10
3.73709
20
-1.96587
11
3.73695
21
-1.96576
0
LINE
8
BLACK
6
CONTINUOUS
10
3.73695
20
-1.96576
11
3.73677
21
-1.96574
0
LINE
8
BLACK
6
CONTINUOUS
10
3.73677
20
-1.96574
11
3.73303
21
-1.96386
0
LINE
8
BLACK
6
CONTINUOUS
10
3.73303
20
-1.96386
11
3.73232
21
-1.96334
0
LINE
8
BLACK
6
CONTINUOUS
10
3.73232
20
-1.96334
11
3.73226
21
-1.96331
0
LINE
8
BLACK
6
CONTINUOUS
10
3.73226
20
-1.96331
11
3.73038
21
-1.96143
0
LINE
8
BLACK
6
CONTINUOUS
10
3.73038
20
-1.96143
11
3.72988
21
-1.96071
0
LINE
8
BLACK
6
CONTINUOUS
10
3.72988
20
-1.96071
11
3.72983
21
-1.96067
0
LINE
8
BLACK
6
CONTINUOUS
10
3.72983
20
-1.96067
11
3.72796
21
-1.95692
0
LINE
8
BLACK
6
CONTINUOUS
10
3.72796
20
-1.95692
11
3.72766
21
-1.95593
0
LINE
8
BLACK
6
CONTINUOUS
10
3.72766
20
-1.95593
11
3.7277
21
-1.95576
0
LINE
8
BLACK
6
CONTINUOUS
10
3.7277
20
-1.95576
11
3.72764
21
-1.9556
0
LINE
8
BLACK
6
CONTINUOUS
10
3.72764
20
-1.9556
11
3.72764
21
-1.94622
0
LINE
8
BLACK
6
CONTINUOUS
10
3.72764
20
-1.94622
11
3.72782
21
-1.94521
0
LINE
8
BLACK
6
CONTINUOUS
10
3.72782
20
-1.94521
11
3.72793
21
-1.94508
0
LINE
8
BLACK
6
CONTINUOUS
10
3.72793
20
-1.94508
11
3.72796
21
-1.9449
0
LINE
8
BLACK
6
CONTINUOUS
10
3.72796
20
-1.9449
11
3.72983
21
-1.94115
0
LINE
8
BLACK
6
CONTINUOUS
10
3.72983
20
-1.94115
11
3.73036
21
-1.94044
0
LINE
8
BLACK
6
CONTINUOUS
10
3.73036
20
-1.94044
11
3.73038
21
-1.94038
0
LINE
8
BLACK
6
CONTINUOUS
10
3.73038
20
-1.94038
11
3.73226
21
-1.93851
0
LINE
8
BLACK
6
CONTINUOUS
10
3.73226
20
-1.93851
11
3.73298
21
-1.938
0
LINE
8
BLACK
6
CONTINUOUS
10
3.73298
20
-1.938
11
3.73303
21
-1.93796
0
LINE
8
BLACK
6
CONTINUOUS
10
3.73303
20
-1.93796
11
3.73677
21
-1.93608
0
LINE
8
BLACK
6
CONTINUOUS
10
3.73677
20
-1.93608
11
3.73776
21
-1.93579
0
LINE
8
BLACK
6
CONTINUOUS
10
3.73776
20
-1.93579
11
3.73793
21
-1.93583
0
LINE
8
BLACK
6
CONTINUOUS
10
3.73793
20
-1.93583
11
3.7381
21
-1.93577
0
LINE
8
BLACK
6
CONTINUOUS
10
3.7381
20
-1.93577
11
3.74747
21
-1.93577
0
LINE
8
BLACK
6
CONTINUOUS
10
3.74747
20
-1.93577
11
3.74848
21
-1.93595
0
LINE
8
BLACK
6
CONTINUOUS
10
3.74848
20
-1.93595
11
3.74861
21
-1.93606
0
LINE
8
BLACK
6
CONTINUOUS
10
3.74861
20
-1.93606
11
3.74879
21
-1.93608
0
LINE
8
BLACK
6
CONTINUOUS
10
3.74879
20
-1.93608
11
3.74952
21
-1.93645
0
LINE
8
BLACK
6
CONTINUOUS
10
3.74952
20
-1.93645
11
3.74855
21
-1.92668
0
LINE
8
BLACK
6
CONTINUOUS
10
3.74855
20
-1.92668
11
3.73247
21
-1.92668
0
LINE
8
BLACK
6
CONTINUOUS
10
3.73247
20
-1.92668
11
3.73146
21
-1.9265
0
LINE
8
BLACK
6
CONTINUOUS
10
3.73146
20
-1.9265
11
3.72991
21
-1.9252
0
LINE
8
BLACK
6
CONTINUOUS
10
3.72991
20
-1.9252
11
3.72956
21
-1.92321
0
LINE
8
BLACK
6
CONTINUOUS
10
3.72956
20
-1.92321
11
3.73057
21
-1.92146
0
LINE
8
BLACK
6
CONTINUOUS
10
3.73057
20
-1.92146
11
3.73247
21
-1.92077
0
LINE
8
BLACK
6
CONTINUOUS
10
3.73247
20
-1.92077
11
3.75122
21
-1.92077
0
LINE
8
BLACK
6
CONTINUOUS
10
3.75122
20
-1.92077
11
3.75137
21
-1.9208
0
LINE
8
BLACK
6
CONTINUOUS
10
3.78021
20
-1.92093
11
3.78027
21
-1.92092
0
LINE
8
BLACK
6
CONTINUOUS
10
3.78027
20
-1.92092
11
3.7859
21
-1.9228
0
LINE
8
BLACK
6
CONTINUOUS
10
3.7859
20
-1.9228
11
3.7868
21
-1.92329
0
LINE
8
BLACK
6
CONTINUOUS
10
3.7868
20
-1.92329
11
3.78689
21
-1.92344
0
LINE
8
BLACK
6
CONTINUOUS
10
3.78689
20
-1.92344
11
3.78705
21
-1.92351
0
LINE
8
BLACK
6
CONTINUOUS
10
3.78705
20
-1.92351
11
3.7908
21
-1.92726
0
LINE
8
BLACK
6
CONTINUOUS
10
3.7908
20
-1.92726
11
3.79131
21
-1.92798
0
LINE
8
BLACK
6
CONTINUOUS
10
3.79131
20
-1.92798
11
3.79135
21
-1.92803
0
LINE
8
BLACK
6
CONTINUOUS
10
3.79135
20
-1.92803
11
3.79323
21
-1.93178
0
LINE
8
BLACK
6
CONTINUOUS
10
3.79323
20
-1.93178
11
3.79337
21
-1.93227
0
LINE
8
BLACK
6
CONTINUOUS
10
3.79337
20
-1.93227
11
3.79345
21
-1.93238
0
LINE
8
BLACK
6
CONTINUOUS
10
3.79345
20
-1.93238
11
3.79533
21
-1.93988
0
LINE
8
BLACK
6
CONTINUOUS
10
3.79533
20
-1.93988
11
3.79537
21
-1.94047
0
LINE
8
BLACK
6
CONTINUOUS
10
3.79537
20
-1.94047
11
3.79542
21
-1.9406
0
LINE
8
BLACK
6
CONTINUOUS
10
3.79542
20
-1.9406
11
3.79542
21
-1.94622
0
LINE
8
BLACK
6
CONTINUOUS
10
3.79542
20
-1.94622
11
3.79531
21
-1.9468
0
LINE
8
BLACK
6
CONTINUOUS
10
3.79531
20
-1.9468
11
3.79533
21
-1.94694
0
LINE
8
BLACK
6
CONTINUOUS
10
3.79533
20
-1.94694
11
3.79345
21
-1.95444
0
LINE
8
BLACK
6
CONTINUOUS
10
3.79345
20
-1.95444
11
3.79325
21
-1.9549
0
LINE
8
BLACK
6
CONTINUOUS
10
3.79325
20
-1.9549
11
3.79323
21
-1.95504
0
LINE
8
BLACK
6
CONTINUOUS
10
3.79323
20
-1.95504
11
3.79135
21
-1.95879
0
LINE
8
BLACK
6
CONTINUOUS
10
3.79135
20
-1.95879
11
3.79083
21
-1.9595
0
LINE
8
BLACK
6
CONTINUOUS
10
3.79083
20
-1.9595
11
3.7908
21
-1.95956
0
LINE
8
BLACK
6
CONTINUOUS
10
3.7908
20
-1.95956
11
3.78705
21
-1.96331
0
LINE
8
BLACK
6
CONTINUOUS
10
3.78705
20
-1.96331
11
3.78621
21
-1.9639
0
LINE
8
BLACK
6
CONTINUOUS
10
3.78621
20
-1.9639
11
3.78604
21
-1.96391
0
LINE
8
BLACK
6
CONTINUOUS
10
3.78604
20
-1.96391
11
3.7859
21
-1.96402
0
LINE
8
BLACK
6
CONTINUOUS
10
3.7859
20
-1.96402
11
3.78027
21
-1.9659
0
LINE
8
BLACK
6
CONTINUOUS
10
3.78027
20
-1.9659
11
3.7794
21
-1.96603
0
LINE
8
BLACK
6
CONTINUOUS
10
3.7794
20
-1.96603
11
3.77934
21
-1.96605
0
LINE
8
BLACK
6
CONTINUOUS
10
3.77934
20
-1.96605
11
3.77559
21
-1.96605
0
LINE
8
BLACK
6
CONTINUOUS
10
3.77559
20
-1.96605
11
3.77472
21
-1.96589
0
LINE
8
BLACK
6
CONTINUOUS
10
3.77472
20
-1.96589
11
3.77466
21
-1.9659
0
LINE
8
BLACK
6
CONTINUOUS
10
3.77466
20
-1.9659
11
3.76903
21
-1.96402
0
LINE
8
BLACK
6
CONTINUOUS
10
3.76903
20
-1.96402
11
3.76813
21
-1.96353
0
LINE
8
BLACK
6
CONTINUOUS
10
3.76813
20
-1.96353
11
3.76804
21
-1.96338
0
LINE
8
BLACK
6
CONTINUOUS
10
3.76804
20
-1.96338
11
3.76788
21
-1.96331
0
LINE
8
BLACK
6
CONTINUOUS
10
3.76788
20
-1.96331
11
3.766
21
-1.96143
0
LINE
8
BLACK
6
CONTINUOUS
10
3.766
20
-1.96143
11
3.76542
21
-1.96059
0
LINE
8
BLACK
6
CONTINUOUS
10
3.76542
20
-1.96059
11
3.76524
21
-1.95858
0
LINE
8
BLACK
6
CONTINUOUS
10
3.76524
20
-1.95858
11
3.7664
21
-1.95693
0
LINE
8
BLACK
6
CONTINUOUS
10
3.7664
20
-1.95693
11
3.76835
21
-1.9564
0
LINE
8
BLACK
6
CONTINUOUS
10
3.76835
20
-1.9564
11
3.77018
21
-1.95726
0
LINE
8
BLACK
6
CONTINUOUS
10
3.77018
20
-1.95726
11
3.77156
21
-1.95864
0
LINE
8
BLACK
6
CONTINUOUS
10
3.77156
20
-1.95864
11
3.77607
21
-1.96014
0
LINE
8
BLACK
6
CONTINUOUS
10
3.77607
20
-1.96014
11
3.77886
21
-1.96014
0
LINE
8
BLACK
6
CONTINUOUS
10
3.77886
20
-1.96014
11
3.78337
21
-1.95864
0
LINE
8
BLACK
6
CONTINUOUS
10
3.78337
20
-1.95864
11
3.78629
21
-1.95572
0
LINE
8
BLACK
6
CONTINUOUS
10
3.78629
20
-1.95572
11
3.7878
21
-1.95269
0
LINE
8
BLACK
6
CONTINUOUS
10
3.7878
20
-1.95269
11
3.78951
21
-1.94586
0
LINE
8
BLACK
6
CONTINUOUS
10
3.78951
20
-1.94586
11
3.78951
21
-1.94096
0
LINE
8
BLACK
6
CONTINUOUS
10
3.78951
20
-1.94096
11
3.7878
21
-1.93413
0
LINE
8
BLACK
6
CONTINUOUS
10
3.7878
20
-1.93413
11
3.78629
21
-1.9311
0
LINE
8
BLACK
6
CONTINUOUS
10
3.78629
20
-1.9311
11
3.78337
21
-1.92818
0
LINE
8
BLACK
6
CONTINUOUS
10
3.78337
20
-1.92818
11
3.77886
21
-1.92668
0
LINE
8
BLACK
6
CONTINUOUS
10
3.77886
20
-1.92668
11
3.77607
21
-1.92668
0
LINE
8
BLACK
6
CONTINUOUS
10
3.77607
20
-1.92668
11
3.77156
21
-1.92818
0
LINE
8
BLACK
6
CONTINUOUS
10
3.77156
20
-1.92818
11
3.77018
21
-1.92956
0
LINE
8
BLACK
6
CONTINUOUS
10
3.77018
20
-1.92956
11
3.76934
21
-1.93015
0
LINE
8
BLACK
6
CONTINUOUS
10
3.76934
20
-1.93015
11
3.76733
21
-1.93033
0
LINE
8
BLACK
6
CONTINUOUS
10
3.76733
20
-1.93033
11
3.76567
21
-1.92917
0
LINE
8
BLACK
6
CONTINUOUS
10
3.76567
20
-1.92917
11
3.76515
21
-1.92722
0
LINE
8
BLACK
6
CONTINUOUS
10
3.76515
20
-1.92722
11
3.766
21
-1.92539
0
LINE
8
BLACK
6
CONTINUOUS
10
3.766
20
-1.92539
11
3.76788
21
-1.92351
0
LINE
8
BLACK
6
CONTINUOUS
10
3.76788
20
-1.92351
11
3.76872
21
-1.92292
0
LINE
8
BLACK
6
CONTINUOUS
10
3.76872
20
-1.92292
11
3.76889
21
-1.92291
0
LINE
8
BLACK
6
CONTINUOUS
10
3.76889
20
-1.92291
11
3.76903
21
-1.9228
0
LINE
8
BLACK
6
CONTINUOUS
10
3.76903
20
-1.9228
11
3.77466
21
-1.92092
0
LINE
8
BLACK
6
CONTINUOUS
10
3.77466
20
-1.92092
11
3.77553
21
-1.92079
0
LINE
8
BLACK
6
CONTINUOUS
10
3.77553
20
-1.92079
11
3.77559
21
-1.92077
0
LINE
8
BLACK
6
CONTINUOUS
10
3.77559
20
-1.92077
11
3.77934
21
-1.92077
0
LINE
8
BLACK
6
CONTINUOUS
10
3.77934
20
-1.92077
11
3.78021
21
-1.92093
0
LINE
8
BLACK
6
CONTINUOUS
10
3.82472
20
-1.92183
11
3.82541
21
-1.92373
0
LINE
8
BLACK
6
CONTINUOUS
10
3.82541
20
-1.92373
11
3.82541
21
-1.9631
0
LINE
8
BLACK
6
CONTINUOUS
10
3.82541
20
-1.9631
11
3.82534
21
-1.96348
0
LINE
8
BLACK
6
CONTINUOUS
10
3.82534
20
-1.96348
11
3.82537
21
-1.96361
0
LINE
8
BLACK
6
CONTINUOUS
10
3.82537
20
-1.96361
11
3.8253
21
-1.96372
0
LINE
8
BLACK
6
CONTINUOUS
10
3.8253
20
-1.96372
11
3.82523
21
-1.96411
0
LINE
8
BLACK
6
CONTINUOUS
10
3.82523
20
-1.96411
11
3.82474
21
-1.96469
0
LINE
8
BLACK
6
CONTINUOUS
10
3.82474
20
-1.96469
11
3.82436
21
-1.96536
0
LINE
8
BLACK
6
CONTINUOUS
10
3.82436
20
-1.96536
11
3.82411
21
-1.96545
0
LINE
8
BLACK
6
CONTINUOUS
10
3.82411
20
-1.96545
11
3.82394
21
-1.96565
0
LINE
8
BLACK
6
CONTINUOUS
10
3.82394
20
-1.96565
11
3.82318
21
-1.96579
0
LINE
8
BLACK
6
CONTINUOUS
10
3.82318
20
-1.96579
11
3.82246
21
-1.96605
0
LINE
8
BLACK
6
CONTINUOUS
10
3.82246
20
-1.96605
11
3.80371
21
-1.96605
0
LINE
8
BLACK
6
CONTINUOUS
10
3.80371
20
-1.96605
11
3.8027
21
-1.96587
0
LINE
8
BLACK
6
CONTINUOUS
10
3.8027
20
-1.96587
11
3.80115
21
-1.96457
0
LINE
8
BLACK
6
CONTINUOUS
10
3.80115
20
-1.96457
11
3.8008
21
-1.96258
0
LINE
8
BLACK
6
CONTINUOUS
10
3.8008
20
-1.96258
11
3.80181
21
-1.96083
0
LINE
8
BLACK
6
CONTINUOUS
10
3.80181
20
-1.96083
11
3.80371
21
-1.96014
0
LINE
8
BLACK
6
CONTINUOUS
10
3.80371
20
-1.96014
11
3.81951
21
-1.96014
0
LINE
8
BLACK
6
CONTINUOUS
10
3.81951
20
-1.96014
11
3.81951
21
-1.92373
0
LINE
8
BLACK
6
CONTINUOUS
10
3.81951
20
-1.92373
11
3.81968
21
-1.92272
0
LINE
8
BLACK
6
CONTINUOUS
10
3.81968
20
-1.92272
11
3.82098
21
-1.92117
0
LINE
8
BLACK
6
CONTINUOUS
10
3.82098
20
-1.92117
11
3.82297
21
-1.92082
0
LINE
8
BLACK
6
CONTINUOUS
10
3.82297
20
-1.92082
11
3.82472
21
-1.92183
0
LINE
8
BLACK
6
CONTINUOUS
10
3.85909
20
-1.92095
11
3.86064
21
-1.92225
0
LINE
8
BLACK
6
CONTINUOUS
10
3.86064
20
-1.92225
11
3.86099
21
-1.92424
0
LINE
8
BLACK
6
CONTINUOUS
10
3.86099
20
-1.92424
11
3.85998
21
-1.92599
0
LINE
8
BLACK
6
CONTINUOUS
10
3.85998
20
-1.92599
11
3.85808
21
-1.92668
0
LINE
8
BLACK
6
CONTINUOUS
10
3.85808
20
-1.92668
11
3.84978
21
-1.92668
0
LINE
8
BLACK
6
CONTINUOUS
10
3.84978
20
-1.92668
11
3.84978
21
-1.9631
0
LINE
8
BLACK
6
CONTINUOUS
10
3.84978
20
-1.9631
11
3.84961
21
-1.96411
0
LINE
8
BLACK
6
CONTINUOUS
10
3.84961
20
-1.96411
11
3.84831
21
-1.96565
0
LINE
8
BLACK
6
CONTINUOUS
10
3.84831
20
-1.96565
11
3.84632
21
-1.966
0
LINE
8
BLACK
6
CONTINUOUS
10
3.84632
20
-1.966
11
3.84457
21
-1.96499
0
LINE
8
BLACK
6
CONTINUOUS
10
3.84457
20
-1.96499
11
3.84388
21
-1.9631
0
LINE
8
BLACK
6
CONTINUOUS
10
3.84388
20
-1.9631
11
3.84388
21
-1.92668
0
LINE
8
BLACK
6
CONTINUOUS
10
3.84388
20
-1.92668
11
3.83558
21
-1.92668
0
LINE
8
BLACK
6
CONTINUOUS
10
3.83558
20
-1.92668
11
3.83457
21
-1.9265
0
LINE
8
BLACK
6
CONTINUOUS
10
3.83457
20
-1.9265
11
3.83303
21
-1.9252
0
LINE
8
BLACK
6
CONTINUOUS
10
3.83303
20
-1.9252
11
3.83268
21
-1.92321
0
LINE
8
BLACK
6
CONTINUOUS
10
3.83268
20
-1.92321
11
3.83369
21
-1.92146
0
LINE
8
BLACK
6
CONTINUOUS
10
3.83369
20
-1.92146
11
3.83558
21
-1.92077
0
LINE
8
BLACK
6
CONTINUOUS
10
3.83558
20
-1.92077
11
3.85808
21
-1.92077
0
LINE
8
BLACK
6
CONTINUOUS
10
3.85808
20
-1.92077
11
3.85909
21
-1.92095
  0
ENDSEC
  0
EOF
