  0
SECTION
  2
HEADER
  9
$ANGBASE
  50
0.0
  9
$ANGDIR
  70
1
  9
$MEASUREMENT
  70
0
  0
ENDSEC
  0
SECTION
  2
TABLES
  0
TABLE
  2
LTYPE
  70
4
  0
LTYPE
  5
40F
  2
CONTINUOUS
  70
0
  3
Solid line
  72
65
  73
0
  40
0.0
  0
LTYPE
  5
410
  2
DASHDOT
 70
0
  3
Dash Dot ____ _ ____ _
 72
65
 73
4
 40
2.0
 49
1.25
 49
-0.25
 49
0.25
 49
-0.25
  0
LTYPE
  5
411
  2
DASHED
 70
0
  3
Dashed __ __ __ __ __
 72
65
 73
2
 40
0.75
 49
0.5
 49
-0.25
  0
LTYPE
  5
43B
  2
DOTTED
 70
0
  3
Dotted .  .  .  .
 72
65
 73
2
 40
0.2
 49
0.0
 49
-0.2
  0
ENDTAB
  0
TABLE
  2
STYLE
  70
4
  0
STYLE
  2
KICAD
  70
0
  40
0
  41
1
  42
1
  50
0
  71
0
  3
isocp.shx
  0
STYLE
  2
KICADB
  70
0
  40
0
  41
1
  42
1
  50
0
  71
0
  3
isocp.shx
  0
STYLE
  2
KICADI
  70
0
  40
0
  41
1
  42
1
  50
15
  71
0
  3
isocp.shx
  0
STYLE
  2
KICADBI
  70
0
  40
0
  41
1
  42
1
  50
15
  71
0
  3
isocp.shx
  0
ENDTAB
  0
TABLE
  2
LAYER
  70
1
  0
LAYER
  2
BLACK
  70
0
  62
7
  6
CONTINUOUS
  0
ENDTAB
  0
ENDSEC
  0
SECTION
  2
ENTITIES
0
LINE
8
BLACK
6
CONTINUOUS
10
3.18446
20
-2.72302
11
3.18504
21
-2.72441
0
LINE
8
BLACK
6
CONTINUOUS
10
3.18504
20
-2.72441
11
3.18504
21
-2.75
0
LINE
8
BLACK
6
CONTINUOUS
10
3.18504
20
-2.75
11
3.18446
21
-2.75139
0
LINE
8
BLACK
6
CONTINUOUS
10
3.18446
20
-2.75139
11
3.18307
21
-2.75197
0
LINE
8
BLACK
6
CONTINUOUS
10
3.18307
20
-2.75197
11
3.15748
21
-2.75197
0
LINE
8
BLACK
6
CONTINUOUS
10
3.15748
20
-2.75197
11
3.15609
21
-2.75139
0
LINE
8
BLACK
6
CONTINUOUS
10
3.15609
20
-2.75139
11
3.15551
21
-2.75
0
LINE
8
BLACK
6
CONTINUOUS
10
3.15551
20
-2.75
11
3.15609
21
-2.74861
0
LINE
8
BLACK
6
CONTINUOUS
10
3.15609
20
-2.74861
11
3.15748
21
-2.74803
0
LINE
8
BLACK
6
CONTINUOUS
10
3.15748
20
-2.74803
11
3.1811
21
-2.74803
0
LINE
8
BLACK
6
CONTINUOUS
10
3.1811
20
-2.74803
11
3.1811
21
-2.72441
0
LINE
8
BLACK
6
CONTINUOUS
10
3.1811
20
-2.72441
11
3.18168
21
-2.72302
0
LINE
8
BLACK
6
CONTINUOUS
10
3.18168
20
-2.72302
11
3.18307
21
-2.72244
0
LINE
8
BLACK
6
CONTINUOUS
10
3.18307
20
-2.72244
11
3.18446
21
-2.72302
0
LINE
8
BLACK
6
CONTINUOUS
10
2.99847
20
-2.69091
11
2.99939
21
-2.69211
0
LINE
8
BLACK
6
CONTINUOUS
10
2.99939
20
-2.69211
11
2.99919
21
-2.6936
0
LINE
8
BLACK
6
CONTINUOUS
10
2.99919
20
-2.6936
11
2.98639
21
-2.71576
0
LINE
8
BLACK
6
CONTINUOUS
10
2.98639
20
-2.71576
11
2.9852
21
-2.71668
0
LINE
8
BLACK
6
CONTINUOUS
10
2.9852
20
-2.71668
11
2.9852
21
-2.71668
0
LINE
8
BLACK
6
CONTINUOUS
10
2.9852
20
-2.71668
11
2.9852
21
-2.71668
0
LINE
8
BLACK
6
CONTINUOUS
10
2.9852
20
-2.71668
11
2.98371
21
-2.71648
0
LINE
8
BLACK
6
CONTINUOUS
10
2.98371
20
-2.71648
11
2.96154
21
-2.70369
0
LINE
8
BLACK
6
CONTINUOUS
10
2.96154
20
-2.70369
11
2.96063
21
-2.70249
0
LINE
8
BLACK
6
CONTINUOUS
10
2.96063
20
-2.70249
11
2.96082
21
-2.701
0
LINE
8
BLACK
6
CONTINUOUS
10
2.96082
20
-2.701
11
2.96202
21
-2.70008
0
LINE
8
BLACK
6
CONTINUOUS
10
2.96202
20
-2.70008
11
2.96351
21
-2.70028
0
LINE
8
BLACK
6
CONTINUOUS
10
2.96351
20
-2.70028
11
2.98397
21
-2.71209
0
LINE
8
BLACK
6
CONTINUOUS
10
2.98397
20
-2.71209
11
2.99578
21
-2.69163
0
LINE
8
BLACK
6
CONTINUOUS
10
2.99578
20
-2.69163
11
2.99698
21
-2.69071
0
LINE
8
BLACK
6
CONTINUOUS
10
2.99698
20
-2.69071
11
2.99847
21
-2.69091
0
LINE
8
BLACK
6
CONTINUOUS
10
3.36139
20
-2.65817
11
3.37419
21
-2.68033
0
LINE
8
BLACK
6
CONTINUOUS
10
3.37419
20
-2.68033
11
3.37439
21
-2.68182
0
LINE
8
BLACK
6
CONTINUOUS
10
3.37439
20
-2.68182
11
3.37439
21
-2.68182
0
LINE
8
BLACK
6
CONTINUOUS
10
3.37439
20
-2.68182
11
3.37347
21
-2.68302
0
LINE
8
BLACK
6
CONTINUOUS
10
3.37347
20
-2.68302
11
3.35131
21
-2.69581
0
LINE
8
BLACK
6
CONTINUOUS
10
3.35131
20
-2.69581
11
3.34981
21
-2.69601
0
LINE
8
BLACK
6
CONTINUOUS
10
3.34981
20
-2.69601
11
3.34862
21
-2.69509
0
LINE
8
BLACK
6
CONTINUOUS
10
3.34862
20
-2.69509
11
3.34842
21
-2.6936
0
LINE
8
BLACK
6
CONTINUOUS
10
3.34842
20
-2.6936
11
3.34934
21
-2.6924
0
LINE
8
BLACK
6
CONTINUOUS
10
3.34934
20
-2.6924
11
3.3698
21
-2.68059
0
LINE
8
BLACK
6
CONTINUOUS
10
3.3698
20
-2.68059
11
3.35799
21
-2.66014
0
LINE
8
BLACK
6
CONTINUOUS
10
3.35799
20
-2.66014
11
3.35779
21
-2.65864
0
LINE
8
BLACK
6
CONTINUOUS
10
3.35779
20
-2.65864
11
3.35871
21
-2.65745
0
LINE
8
BLACK
6
CONTINUOUS
10
3.35871
20
-2.65745
11
3.3602
21
-2.65725
0
LINE
8
BLACK
6
CONTINUOUS
10
3.3602
20
-2.65725
11
3.36139
21
-2.65817
0
LINE
8
BLACK
6
CONTINUOUS
10
2.81941
20
-2.56194
11
2.83122
21
-2.58239
0
LINE
8
BLACK
6
CONTINUOUS
10
2.83122
20
-2.58239
11
2.85168
21
-2.57058
0
LINE
8
BLACK
6
CONTINUOUS
10
2.85168
20
-2.57058
11
2.85317
21
-2.57039
0
LINE
8
BLACK
6
CONTINUOUS
10
2.85317
20
-2.57039
11
2.85436
21
-2.5713
0
LINE
8
BLACK
6
CONTINUOUS
10
2.85436
20
-2.5713
11
2.85456
21
-2.5728
0
LINE
8
BLACK
6
CONTINUOUS
10
2.85456
20
-2.5728
11
2.85364
21
-2.57399
0
LINE
8
BLACK
6
CONTINUOUS
10
2.85364
20
-2.57399
11
2.83148
21
-2.58679
0
LINE
8
BLACK
6
CONTINUOUS
10
2.83148
20
-2.58679
11
2.82999
21
-2.58698
0
LINE
8
BLACK
6
CONTINUOUS
10
2.82999
20
-2.58698
11
2.82879
21
-2.58607
0
LINE
8
BLACK
6
CONTINUOUS
10
2.82879
20
-2.58607
11
2.816
21
-2.56391
0
LINE
8
BLACK
6
CONTINUOUS
10
2.816
20
-2.56391
11
2.8158
21
-2.56241
0
LINE
8
BLACK
6
CONTINUOUS
10
2.8158
20
-2.56241
11
2.81672
21
-2.56122
0
LINE
8
BLACK
6
CONTINUOUS
10
2.81672
20
-2.56122
11
2.81821
21
-2.56102
0
LINE
8
BLACK
6
CONTINUOUS
10
2.81821
20
-2.56102
11
2.81941
21
-2.56194
0
LINE
8
BLACK
6
CONTINUOUS
10
3.481
20
-2.51262
11
3.50316
21
-2.52542
0
LINE
8
BLACK
6
CONTINUOUS
10
3.50316
20
-2.52542
11
3.50408
21
-2.52661
0
LINE
8
BLACK
6
CONTINUOUS
10
3.50408
20
-2.52661
11
3.50388
21
-2.52811
0
LINE
8
BLACK
6
CONTINUOUS
10
3.50388
20
-2.52811
11
3.49109
21
-2.55027
0
LINE
8
BLACK
6
CONTINUOUS
10
3.49109
20
-2.55027
11
3.48989
21
-2.55118
0
LINE
8
BLACK
6
CONTINUOUS
10
3.48989
20
-2.55118
11
3.4884
21
-2.55099
0
LINE
8
BLACK
6
CONTINUOUS
10
3.4884
20
-2.55099
11
3.48748
21
-2.54979
0
LINE
8
BLACK
6
CONTINUOUS
10
3.48748
20
-2.54979
11
3.48768
21
-2.5483
0
LINE
8
BLACK
6
CONTINUOUS
10
3.48768
20
-2.5483
11
3.49949
21
-2.52784
0
LINE
8
BLACK
6
CONTINUOUS
10
3.49949
20
-2.52784
11
3.47903
21
-2.51603
0
LINE
8
BLACK
6
CONTINUOUS
10
3.47903
20
-2.51603
11
3.47812
21
-2.51484
0
LINE
8
BLACK
6
CONTINUOUS
10
3.47812
20
-2.51484
11
3.47831
21
-2.51334
0
LINE
8
BLACK
6
CONTINUOUS
10
3.47831
20
-2.51334
11
3.47951
21
-2.51242
0
LINE
8
BLACK
6
CONTINUOUS
10
3.47951
20
-2.51242
11
3.481
21
-2.51262
0
LINE
8
BLACK
6
CONTINUOUS
10
2.7632
20
-2.36869
11
2.76378
21
-2.37008
0
LINE
8
BLACK
6
CONTINUOUS
10
2.76378
20
-2.37008
11
2.76378
21
-2.3937
0
LINE
8
BLACK
6
CONTINUOUS
10
2.76378
20
-2.3937
11
2.7874
21
-2.3937
0
LINE
8
BLACK
6
CONTINUOUS
10
2.7874
20
-2.3937
11
2.78879
21
-2.39428
0
LINE
8
BLACK
6
CONTINUOUS
10
2.78879
20
-2.39428
11
2.78937
21
-2.39567
0
LINE
8
BLACK
6
CONTINUOUS
10
2.78937
20
-2.39567
11
2.78879
21
-2.39706
0
LINE
8
BLACK
6
CONTINUOUS
10
2.78879
20
-2.39706
11
2.7874
21
-2.39764
0
LINE
8
BLACK
6
CONTINUOUS
10
2.7874
20
-2.39764
11
2.76181
21
-2.39764
0
LINE
8
BLACK
6
CONTINUOUS
10
2.76181
20
-2.39764
11
2.76042
21
-2.39706
0
LINE
8
BLACK
6
CONTINUOUS
10
2.76042
20
-2.39706
11
2.75984
21
-2.39567
0
LINE
8
BLACK
6
CONTINUOUS
10
2.75984
20
-2.39567
11
2.75984
21
-2.37008
0
LINE
8
BLACK
6
CONTINUOUS
10
2.75984
20
-2.37008
11
2.76042
21
-2.36869
0
LINE
8
BLACK
6
CONTINUOUS
10
2.76042
20
-2.36869
11
2.76181
21
-2.36811
0
LINE
8
BLACK
6
CONTINUOUS
10
2.76181
20
-2.36811
11
2.7632
21
-2.36869
0
LINE
8
BLACK
6
CONTINUOUS
10
3.5374
20
-2.32677
11
3.53879
21
-2.32735
0
LINE
8
BLACK
6
CONTINUOUS
10
3.53879
20
-2.32735
11
3.53937
21
-2.32874
0
LINE
8
BLACK
6
CONTINUOUS
10
3.53937
20
-2.32874
11
3.53937
21
-2.35433
0
LINE
8
BLACK
6
CONTINUOUS
10
3.53937
20
-2.35433
11
3.53879
21
-2.35572
0
LINE
8
BLACK
6
CONTINUOUS
10
3.53879
20
-2.35572
11
3.5374
21
-2.3563
0
LINE
8
BLACK
6
CONTINUOUS
10
3.5374
20
-2.3563
11
3.53601
21
-2.35572
0
LINE
8
BLACK
6
CONTINUOUS
10
3.53601
20
-2.35572
11
3.53543
21
-2.35433
0
LINE
8
BLACK
6
CONTINUOUS
10
3.53543
20
-2.35433
11
3.53543
21
-2.33071
0
LINE
8
BLACK
6
CONTINUOUS
10
3.53543
20
-2.33071
11
3.51181
21
-2.33071
0
LINE
8
BLACK
6
CONTINUOUS
10
3.51181
20
-2.33071
11
3.51042
21
-2.33013
0
LINE
8
BLACK
6
CONTINUOUS
10
3.51042
20
-2.33013
11
3.50984
21
-2.32874
0
LINE
8
BLACK
6
CONTINUOUS
10
3.50984
20
-2.32874
11
3.51042
21
-2.32735
0
LINE
8
BLACK
6
CONTINUOUS
10
3.51042
20
-2.32735
11
3.51181
21
-2.32677
0
LINE
8
BLACK
6
CONTINUOUS
10
3.51181
20
-2.32677
11
3.5374
21
-2.32677
0
LINE
8
BLACK
6
CONTINUOUS
10
2.81081
20
-2.17342
11
2.81173
21
-2.17462
0
LINE
8
BLACK
6
CONTINUOUS
10
2.81173
20
-2.17462
11
2.81153
21
-2.17611
0
LINE
8
BLACK
6
CONTINUOUS
10
2.81153
20
-2.17611
11
2.79972
21
-2.19657
0
LINE
8
BLACK
6
CONTINUOUS
10
2.79972
20
-2.19657
11
2.82018
21
-2.20838
0
LINE
8
BLACK
6
CONTINUOUS
10
2.82018
20
-2.20838
11
2.8211
21
-2.20957
0
LINE
8
BLACK
6
CONTINUOUS
10
2.8211
20
-2.20957
11
2.8209
21
-2.21107
0
LINE
8
BLACK
6
CONTINUOUS
10
2.8209
20
-2.21107
11
2.8197
21
-2.21198
0
LINE
8
BLACK
6
CONTINUOUS
10
2.8197
20
-2.21198
11
2.81821
21
-2.21179
0
LINE
8
BLACK
6
CONTINUOUS
10
2.81821
20
-2.21179
11
2.79605
21
-2.19899
0
LINE
8
BLACK
6
CONTINUOUS
10
2.79605
20
-2.19899
11
2.79513
21
-2.1978
0
LINE
8
BLACK
6
CONTINUOUS
10
2.79513
20
-2.1978
11
2.79533
21
-2.1963
0
LINE
8
BLACK
6
CONTINUOUS
10
2.79533
20
-2.1963
11
2.79533
21
-2.1963
0
LINE
8
BLACK
6
CONTINUOUS
10
2.79533
20
-2.1963
11
2.80812
21
-2.17414
0
LINE
8
BLACK
6
CONTINUOUS
10
2.80812
20
-2.17414
11
2.80932
21
-2.17322
0
LINE
8
BLACK
6
CONTINUOUS
10
2.80932
20
-2.17322
11
2.81081
21
-2.17342
0
LINE
8
BLACK
6
CONTINUOUS
10
3.47042
20
-2.13834
11
3.48321
21
-2.1605
0
LINE
8
BLACK
6
CONTINUOUS
10
3.48321
20
-2.1605
11
3.48341
21
-2.162
0
LINE
8
BLACK
6
CONTINUOUS
10
3.48341
20
-2.162
11
3.48249
21
-2.16319
0
LINE
8
BLACK
6
CONTINUOUS
10
3.48249
20
-2.16319
11
3.481
21
-2.16339
0
LINE
8
BLACK
6
CONTINUOUS
10
3.481
20
-2.16339
11
3.47981
21
-2.16247
0
LINE
8
BLACK
6
CONTINUOUS
10
3.47981
20
-2.16247
11
3.46799
21
-2.14201
0
LINE
8
BLACK
6
CONTINUOUS
10
3.46799
20
-2.14201
11
3.44754
21
-2.15383
0
LINE
8
BLACK
6
CONTINUOUS
10
3.44754
20
-2.15383
11
3.44604
21
-2.15402
0
LINE
8
BLACK
6
CONTINUOUS
10
3.44604
20
-2.15402
11
3.44485
21
-2.15311
0
LINE
8
BLACK
6
CONTINUOUS
10
3.44485
20
-2.15311
11
3.44465
21
-2.15161
0
LINE
8
BLACK
6
CONTINUOUS
10
3.44465
20
-2.15161
11
3.44557
21
-2.15042
0
LINE
8
BLACK
6
CONTINUOUS
10
3.44557
20
-2.15042
11
3.46773
21
-2.13762
0
LINE
8
BLACK
6
CONTINUOUS
10
3.46773
20
-2.13762
11
3.46922
21
-2.13742
0
LINE
8
BLACK
6
CONTINUOUS
10
3.46922
20
-2.13742
11
3.46922
21
-2.13742
0
LINE
8
BLACK
6
CONTINUOUS
10
3.46922
20
-2.13742
11
3.47042
21
-2.13834
0
LINE
8
BLACK
6
CONTINUOUS
10
2.95059
20
-2.02932
11
2.95079
21
-2.03081
0
LINE
8
BLACK
6
CONTINUOUS
10
2.95079
20
-2.03081
11
2.94987
21
-2.03201
0
LINE
8
BLACK
6
CONTINUOUS
10
2.94987
20
-2.03201
11
2.92942
21
-2.04382
0
LINE
8
BLACK
6
CONTINUOUS
10
2.92942
20
-2.04382
11
2.94123
21
-2.06427
0
LINE
8
BLACK
6
CONTINUOUS
10
2.94123
20
-2.06427
11
2.94142
21
-2.06577
0
LINE
8
BLACK
6
CONTINUOUS
10
2.94142
20
-2.06577
11
2.94051
21
-2.06696
0
LINE
8
BLACK
6
CONTINUOUS
10
2.94051
20
-2.06696
11
2.93901
21
-2.06716
0
LINE
8
BLACK
6
CONTINUOUS
10
2.93901
20
-2.06716
11
2.93782
21
-2.06624
0
LINE
8
BLACK
6
CONTINUOUS
10
2.93782
20
-2.06624
11
2.92502
21
-2.04408
0
LINE
8
BLACK
6
CONTINUOUS
10
2.92502
20
-2.04408
11
2.92483
21
-2.04259
0
LINE
8
BLACK
6
CONTINUOUS
10
2.92483
20
-2.04259
11
2.92574
21
-2.04139
0
LINE
8
BLACK
6
CONTINUOUS
10
2.92574
20
-2.04139
11
2.92574
21
-2.04139
0
LINE
8
BLACK
6
CONTINUOUS
10
2.92574
20
-2.04139
11
2.94791
21
-2.0286
0
LINE
8
BLACK
6
CONTINUOUS
10
2.94791
20
-2.0286
11
2.9494
21
-2.0284
0
LINE
8
BLACK
6
CONTINUOUS
10
2.9494
20
-2.0284
11
2.95059
21
-2.02932
0
LINE
8
BLACK
6
CONTINUOUS
10
3.31551
20
-2.00793
11
3.33767
21
-2.02072
0
LINE
8
BLACK
6
CONTINUOUS
10
3.33767
20
-2.02072
11
3.33859
21
-2.02192
0
LINE
8
BLACK
6
CONTINUOUS
10
3.33859
20
-2.02192
11
3.33839
21
-2.02341
0
LINE
8
BLACK
6
CONTINUOUS
10
3.33839
20
-2.02341
11
3.33719
21
-2.02433
0
LINE
8
BLACK
6
CONTINUOUS
10
3.33719
20
-2.02433
11
3.3357
21
-2.02413
0
LINE
8
BLACK
6
CONTINUOUS
10
3.3357
20
-2.02413
11
3.31524
21
-2.01232
0
LINE
8
BLACK
6
CONTINUOUS
10
3.31524
20
-2.01232
11
3.30343
21
-2.03278
0
LINE
8
BLACK
6
CONTINUOUS
10
3.30343
20
-2.03278
11
3.30224
21
-2.0337
0
LINE
8
BLACK
6
CONTINUOUS
10
3.30224
20
-2.0337
11
3.30074
21
-2.0335
0
LINE
8
BLACK
6
CONTINUOUS
10
3.30074
20
-2.0335
11
3.29983
21
-2.0323
0
LINE
8
BLACK
6
CONTINUOUS
10
3.29983
20
-2.0323
11
3.30002
21
-2.03081
0
LINE
8
BLACK
6
CONTINUOUS
10
3.30002
20
-2.03081
11
3.31282
21
-2.00865
0
LINE
8
BLACK
6
CONTINUOUS
10
3.31282
20
-2.00865
11
3.31401
21
-2.00773
0
LINE
8
BLACK
6
CONTINUOUS
10
3.31401
20
-2.00773
11
3.31551
21
-2.00793
0
LINE
8
BLACK
6
CONTINUOUS
10
3.14312
20
-1.97302
11
3.1437
21
-1.97441
0
LINE
8
BLACK
6
CONTINUOUS
10
3.1437
20
-1.97441
11
3.14312
21
-1.9758
0
LINE
8
BLACK
6
CONTINUOUS
10
3.14312
20
-1.9758
11
3.14173
21
-1.97638
0
LINE
8
BLACK
6
CONTINUOUS
10
3.14173
20
-1.97638
11
3.11811
21
-1.97638
0
LINE
8
BLACK
6
CONTINUOUS
10
3.11811
20
-1.97638
11
3.11811
21
-2
0
LINE
8
BLACK
6
CONTINUOUS
10
3.11811
20
-2
11
3.11753
21
-2.00139
0
LINE
8
BLACK
6
CONTINUOUS
10
3.11753
20
-2.00139
11
3.11614
21
-2.00197
0
LINE
8
BLACK
6
CONTINUOUS
10
3.11614
20
-2.00197
11
3.11475
21
-2.00139
0
LINE
8
BLACK
6
CONTINUOUS
10
3.11475
20
-2.00139
11
3.11417
21
-2
0
LINE
8
BLACK
6
CONTINUOUS
10
3.11417
20
-2
11
3.11417
21
-1.97441
0
LINE
8
BLACK
6
CONTINUOUS
10
3.11417
20
-1.97441
11
3.11475
21
-1.97302
0
LINE
8
BLACK
6
CONTINUOUS
10
3.11475
20
-1.97302
11
3.11614
21
-1.97244
0
LINE
8
BLACK
6
CONTINUOUS
10
3.11614
20
-1.97244
11
3.14173
21
-1.97244
0
LINE
8
BLACK
6
CONTINUOUS
10
3.14173
20
-1.97244
11
3.14312
21
-1.97302
0
CIRCLE
8
BLACK
10
2.67717
20
-1.88976
40
0.0433071
0
CIRCLE
8
BLACK
10
3.62205
20
-1.88976
40
0.0433071
0
CIRCLE
8
BLACK
10
2.67717
20
-2.83465
40
0.0433071
  0
ENDSEC
  0
EOF
