  0
SECTION
  2
HEADER
  9
$ANGBASE
  50
0.0
  9
$ANGDIR
  70
1
  9
$MEASUREMENT
  70
0
  0
ENDSEC
  0
SECTION
  2
TABLES
  0
TABLE
  2
LTYPE
  70
4
  0
LTYPE
  5
40F
  2
CONTINUOUS
  70
0
  3
Solid line
  72
65
  73
0
  40
0.0
  0
LTYPE
  5
410
  2
DASHDOT
 70
0
  3
Dash Dot ____ _ ____ _
 72
65
 73
4
 40
2.0
 49
1.25
 49
-0.25
 49
0.25
 49
-0.25
  0
LTYPE
  5
411
  2
DASHED
 70
0
  3
Dashed __ __ __ __ __
 72
65
 73
2
 40
0.75
 49
0.5
 49
-0.25
  0
LTYPE
  5
43B
  2
DOTTED
 70
0
  3
Dotted .  .  .  .
 72
65
 73
2
 40
0.2
 49
0.0
 49
-0.2
  0
ENDTAB
  0
TABLE
  2
STYLE
  70
4
  0
STYLE
  2
KICAD
  70
0
  40
0
  41
1
  42
1
  50
0
  71
0
  3
isocp.shx
  0
STYLE
  2
KICADB
  70
0
  40
0
  41
1
  42
1
  50
0
  71
0
  3
isocp.shx
  0
STYLE
  2
KICADI
  70
0
  40
0
  41
1
  42
1
  50
15
  71
0
  3
isocp.shx
  0
STYLE
  2
KICADBI
  70
0
  40
0
  41
1
  42
1
  50
15
  71
0
  3
isocp.shx
  0
ENDTAB
  0
TABLE
  2
LAYER
  70
1
  0
LAYER
  2
BLACK
  70
0
  62
7
  6
CONTINUOUS
  0
ENDTAB
  0
ENDSEC
  0
SECTION
  2
ENTITIES
0
LINE
8
BLACK
6
CONTINUOUS
10
3.3378
20
-2.68878
11
3.33849
21
-2.68907
0
LINE
8
BLACK
6
CONTINUOUS
10
3.33849
20
-2.68907
11
3.33878
21
-2.68976
0
LINE
8
BLACK
6
CONTINUOUS
10
3.33878
20
-2.68976
11
3.33878
21
-2.76693
0
LINE
8
BLACK
6
CONTINUOUS
10
3.33878
20
-2.76693
11
3.33849
21
-2.76763
0
LINE
8
BLACK
6
CONTINUOUS
10
3.33849
20
-2.76763
11
3.3378
21
-2.76791
0
LINE
8
BLACK
6
CONTINUOUS
10
3.3378
20
-2.76791
11
3.18976
21
-2.76791
0
LINE
8
BLACK
6
CONTINUOUS
10
3.18976
20
-2.76791
11
3.18907
21
-2.76763
0
LINE
8
BLACK
6
CONTINUOUS
10
3.18907
20
-2.76763
11
3.18878
21
-2.76693
0
LINE
8
BLACK
6
CONTINUOUS
10
3.18878
20
-2.76693
11
3.18878
21
-2.68976
0
LINE
8
BLACK
6
CONTINUOUS
10
3.18878
20
-2.68976
11
3.18907
21
-2.68907
0
LINE
8
BLACK
6
CONTINUOUS
10
3.18907
20
-2.68907
11
3.18976
21
-2.68878
0
LINE
8
BLACK
6
CONTINUOUS
10
3.18976
20
-2.68878
11
3.3378
21
-2.68878
0
LINE
8
BLACK
6
CONTINUOUS
10
3.19075
20
-2.69075
11
3.19075
21
-2.76594
0
LINE
8
BLACK
6
CONTINUOUS
10
3.19075
20
-2.76594
11
3.33681
21
-2.76594
0
LINE
8
BLACK
6
CONTINUOUS
10
3.33681
20
-2.76594
11
3.33681
21
-2.69075
0
LINE
8
BLACK
6
CONTINUOUS
10
3.33681
20
-2.69075
11
3.19075
21
-2.69075
0
LINE
8
BLACK
6
CONTINUOUS
10
3.4626
20
-2.7628
11
3.46329
21
-2.76308
0
LINE
8
BLACK
6
CONTINUOUS
10
3.46329
20
-2.76308
11
3.46358
21
-2.76378
0
LINE
8
BLACK
6
CONTINUOUS
10
3.46358
20
-2.76378
11
3.46358
21
-2.90551
0
LINE
8
BLACK
6
CONTINUOUS
10
3.46358
20
-2.90551
11
3.46329
21
-2.90621
0
LINE
8
BLACK
6
CONTINUOUS
10
3.46329
20
-2.90621
11
3.4626
21
-2.9065
0
LINE
8
BLACK
6
CONTINUOUS
10
3.4626
20
-2.9065
11
3.34055
21
-2.9065
0
LINE
8
BLACK
6
CONTINUOUS
10
3.34055
20
-2.9065
11
3.33986
21
-2.90621
0
LINE
8
BLACK
6
CONTINUOUS
10
3.33986
20
-2.90621
11
3.33957
21
-2.90551
0
LINE
8
BLACK
6
CONTINUOUS
10
3.33957
20
-2.90551
11
3.33957
21
-2.76378
0
LINE
8
BLACK
6
CONTINUOUS
10
3.33957
20
-2.76378
11
3.33986
21
-2.76308
0
LINE
8
BLACK
6
CONTINUOUS
10
3.33986
20
-2.76308
11
3.34055
21
-2.7628
0
LINE
8
BLACK
6
CONTINUOUS
10
3.34055
20
-2.7628
11
3.4626
21
-2.7628
0
LINE
8
BLACK
6
CONTINUOUS
10
3.34154
20
-2.76476
11
3.34154
21
-2.90453
0
LINE
8
BLACK
6
CONTINUOUS
10
3.34154
20
-2.90453
11
3.46161
21
-2.90453
0
LINE
8
BLACK
6
CONTINUOUS
10
3.46161
20
-2.90453
11
3.46161
21
-2.76476
0
LINE
8
BLACK
6
CONTINUOUS
10
3.46161
20
-2.76476
11
3.34154
21
-2.76476
0
LINE
8
BLACK
6
CONTINUOUS
10
3.33661
20
-2.77067
11
3.33731
21
-2.77096
0
LINE
8
BLACK
6
CONTINUOUS
10
3.33731
20
-2.77096
11
3.3376
21
-2.77165
0
LINE
8
BLACK
6
CONTINUOUS
10
3.3376
20
-2.77165
11
3.3376
21
-2.89764
0
LINE
8
BLACK
6
CONTINUOUS
10
3.3376
20
-2.89764
11
3.33731
21
-2.89833
0
LINE
8
BLACK
6
CONTINUOUS
10
3.33731
20
-2.89833
11
3.33661
21
-2.89862
0
LINE
8
BLACK
6
CONTINUOUS
10
3.33661
20
-2.89862
11
3.27756
21
-2.89862
0
LINE
8
BLACK
6
CONTINUOUS
10
3.27756
20
-2.89862
11
3.27686
21
-2.89833
0
LINE
8
BLACK
6
CONTINUOUS
10
3.27686
20
-2.89833
11
3.27657
21
-2.89764
0
LINE
8
BLACK
6
CONTINUOUS
10
3.27657
20
-2.89764
11
3.27657
21
-2.77165
0
LINE
8
BLACK
6
CONTINUOUS
10
3.27657
20
-2.77165
11
3.27686
21
-2.77096
0
LINE
8
BLACK
6
CONTINUOUS
10
3.27686
20
-2.77096
11
3.27756
21
-2.77067
0
LINE
8
BLACK
6
CONTINUOUS
10
3.27756
20
-2.77067
11
3.33661
21
-2.77067
0
LINE
8
BLACK
6
CONTINUOUS
10
3.27854
20
-2.77264
11
3.27854
21
-2.89665
0
LINE
8
BLACK
6
CONTINUOUS
10
3.27854
20
-2.89665
11
3.33563
21
-2.89665
0
LINE
8
BLACK
6
CONTINUOUS
10
3.33563
20
-2.89665
11
3.33563
21
-2.77264
0
LINE
8
BLACK
6
CONTINUOUS
10
3.33563
20
-2.77264
11
3.27854
21
-2.77264
0
LINE
8
BLACK
6
CONTINUOUS
10
3.57874
20
-2.58169
11
3.57944
21
-2.58198
0
LINE
8
BLACK
6
CONTINUOUS
10
3.57944
20
-2.58198
11
3.57972
21
-2.58268
0
LINE
8
BLACK
6
CONTINUOUS
10
3.57972
20
-2.58268
11
3.57972
21
-2.70059
0
LINE
8
BLACK
6
CONTINUOUS
10
3.57972
20
-2.70059
11
3.58858
21
-2.70059
0
LINE
8
BLACK
6
CONTINUOUS
10
3.58858
20
-2.70059
11
3.58928
21
-2.70088
0
LINE
8
BLACK
6
CONTINUOUS
10
3.58928
20
-2.70088
11
3.58957
21
-2.70157
0
LINE
8
BLACK
6
CONTINUOUS
10
3.58957
20
-2.70157
11
3.58957
21
-2.89685
0
LINE
8
BLACK
6
CONTINUOUS
10
3.58957
20
-2.89685
11
3.58928
21
-2.89755
0
LINE
8
BLACK
6
CONTINUOUS
10
3.58928
20
-2.89755
11
3.58858
21
-2.89783
0
LINE
8
BLACK
6
CONTINUOUS
10
3.58858
20
-2.89783
11
3.49803
21
-2.89783
0
LINE
8
BLACK
6
CONTINUOUS
10
3.49803
20
-2.89783
11
3.49734
21
-2.89755
0
LINE
8
BLACK
6
CONTINUOUS
10
3.49734
20
-2.89755
11
3.49705
21
-2.89685
0
LINE
8
BLACK
6
CONTINUOUS
10
3.49705
20
-2.89685
11
3.49705
21
-2.70177
0
LINE
8
BLACK
6
CONTINUOUS
10
3.49705
20
-2.70177
11
3.34252
21
-2.70177
0
LINE
8
BLACK
6
CONTINUOUS
10
3.34252
20
-2.70177
11
3.34182
21
-2.70148
0
LINE
8
BLACK
6
CONTINUOUS
10
3.34182
20
-2.70148
11
3.34154
21
-2.70079
0
LINE
8
BLACK
6
CONTINUOUS
10
3.34154
20
-2.70079
11
3.34154
21
-2.58268
0
LINE
8
BLACK
6
CONTINUOUS
10
3.34154
20
-2.58268
11
3.34182
21
-2.58198
0
LINE
8
BLACK
6
CONTINUOUS
10
3.34182
20
-2.58198
11
3.34252
21
-2.58169
0
LINE
8
BLACK
6
CONTINUOUS
10
3.34252
20
-2.58169
11
3.57874
21
-2.58169
0
LINE
8
BLACK
6
CONTINUOUS
10
3.49902
20
-2.70256
11
3.49902
21
-2.89587
0
LINE
8
BLACK
6
CONTINUOUS
10
3.49902
20
-2.89587
11
3.5876
21
-2.89587
0
LINE
8
BLACK
6
CONTINUOUS
10
3.5876
20
-2.89587
11
3.5876
21
-2.70256
0
LINE
8
BLACK
6
CONTINUOUS
10
3.5876
20
-2.70256
11
3.49902
21
-2.70256
0
LINE
8
BLACK
6
CONTINUOUS
10
3.3435
20
-2.58366
11
3.3435
21
-2.6998
0
LINE
8
BLACK
6
CONTINUOUS
10
3.3435
20
-2.6998
11
3.57776
21
-2.6998
0
LINE
8
BLACK
6
CONTINUOUS
10
3.57776
20
-2.6998
11
3.57776
21
-2.58366
0
LINE
8
BLACK
6
CONTINUOUS
10
3.57776
20
-2.58366
11
3.3435
21
-2.58366
0
LINE
8
BLACK
6
CONTINUOUS
10
3.9685
20
-2.49705
11
3.9692
21
-2.49734
0
LINE
8
BLACK
6
CONTINUOUS
10
3.9692
20
-2.49734
11
3.96949
21
-2.49803
0
LINE
8
BLACK
6
CONTINUOUS
10
3.96949
20
-2.49803
11
3.96949
21
-2.85433
0
LINE
8
BLACK
6
CONTINUOUS
10
3.96949
20
-2.85433
11
3.9692
21
-2.85503
0
LINE
8
BLACK
6
CONTINUOUS
10
3.9692
20
-2.85503
11
3.9685
21
-2.85531
0
LINE
8
BLACK
6
CONTINUOUS
10
3.9685
20
-2.85531
11
3.62795
21
-2.85531
0
LINE
8
BLACK
6
CONTINUOUS
10
3.62795
20
-2.85531
11
3.62726
21
-2.85503
0
LINE
8
BLACK
6
CONTINUOUS
10
3.62726
20
-2.85503
11
3.62697
21
-2.85433
0
LINE
8
BLACK
6
CONTINUOUS
10
3.62697
20
-2.85433
11
3.62697
21
-2.49803
0
LINE
8
BLACK
6
CONTINUOUS
10
3.62697
20
-2.49803
11
3.62726
21
-2.49734
0
LINE
8
BLACK
6
CONTINUOUS
10
3.62726
20
-2.49734
11
3.62795
21
-2.49705
0
LINE
8
BLACK
6
CONTINUOUS
10
3.62795
20
-2.49705
11
3.9685
21
-2.49705
0
LINE
8
BLACK
6
CONTINUOUS
10
3.62894
20
-2.49902
11
3.62894
21
-2.85335
0
LINE
8
BLACK
6
CONTINUOUS
10
3.62894
20
-2.85335
11
3.96752
21
-2.85335
0
LINE
8
BLACK
6
CONTINUOUS
10
3.96752
20
-2.85335
11
3.96752
21
-2.49902
0
LINE
8
BLACK
6
CONTINUOUS
10
3.96752
20
-2.49902
11
3.62894
21
-2.49902
0
LINE
8
BLACK
6
CONTINUOUS
10
3.71575
20
-2.3002
11
3.71644
21
-2.30049
0
LINE
8
BLACK
6
CONTINUOUS
10
3.71644
20
-2.30049
11
3.71673
21
-2.30118
0
LINE
8
BLACK
6
CONTINUOUS
10
3.71673
20
-2.30118
11
3.71673
21
-2.39173
0
LINE
8
BLACK
6
CONTINUOUS
10
3.71673
20
-2.39173
11
3.71644
21
-2.39243
0
LINE
8
BLACK
6
CONTINUOUS
10
3.71644
20
-2.39243
11
3.71575
21
-2.39272
0
LINE
8
BLACK
6
CONTINUOUS
10
3.71575
20
-2.39272
11
3.52047
21
-2.39272
0
LINE
8
BLACK
6
CONTINUOUS
10
3.52047
20
-2.39272
11
3.51978
21
-2.39243
0
LINE
8
BLACK
6
CONTINUOUS
10
3.51978
20
-2.39243
11
3.51949
21
-2.39173
0
LINE
8
BLACK
6
CONTINUOUS
10
3.51949
20
-2.39173
11
3.51949
21
-2.39173
0
LINE
8
BLACK
6
CONTINUOUS
10
3.51949
20
-2.39173
11
3.51949
21
-2.30118
0
LINE
8
BLACK
6
CONTINUOUS
10
3.51949
20
-2.30118
11
3.51978
21
-2.30049
0
LINE
8
BLACK
6
CONTINUOUS
10
3.51978
20
-2.30049
11
3.52047
21
-2.3002
0
LINE
8
BLACK
6
CONTINUOUS
10
3.52047
20
-2.3002
11
3.71575
21
-2.3002
0
LINE
8
BLACK
6
CONTINUOUS
10
3.52146
20
-2.30217
11
3.52146
21
-2.39075
0
LINE
8
BLACK
6
CONTINUOUS
10
3.52146
20
-2.39075
11
3.71476
21
-2.39075
0
LINE
8
BLACK
6
CONTINUOUS
10
3.71476
20
-2.39075
11
3.71476
21
-2.30217
0
LINE
8
BLACK
6
CONTINUOUS
10
3.71476
20
-2.30217
11
3.52146
21
-2.30217
0
LINE
8
BLACK
6
CONTINUOUS
10
3.88898
20
-2.18878
11
3.88967
21
-2.18907
0
LINE
8
BLACK
6
CONTINUOUS
10
3.88967
20
-2.18907
11
3.88996
21
-2.18976
0
LINE
8
BLACK
6
CONTINUOUS
10
3.88996
20
-2.18976
11
3.88996
21
-2.3378
0
LINE
8
BLACK
6
CONTINUOUS
10
3.88996
20
-2.3378
11
3.88967
21
-2.33849
0
LINE
8
BLACK
6
CONTINUOUS
10
3.88967
20
-2.33849
11
3.88898
21
-2.33878
0
LINE
8
BLACK
6
CONTINUOUS
10
3.88898
20
-2.33878
11
3.81181
21
-2.33878
0
LINE
8
BLACK
6
CONTINUOUS
10
3.81181
20
-2.33878
11
3.81112
21
-2.33849
0
LINE
8
BLACK
6
CONTINUOUS
10
3.81112
20
-2.33849
11
3.81083
21
-2.3378
0
LINE
8
BLACK
6
CONTINUOUS
10
3.81083
20
-2.3378
11
3.81083
21
-2.18976
0
LINE
8
BLACK
6
CONTINUOUS
10
3.81083
20
-2.18976
11
3.81112
21
-2.18907
0
LINE
8
BLACK
6
CONTINUOUS
10
3.81112
20
-2.18907
11
3.81181
21
-2.18878
0
LINE
8
BLACK
6
CONTINUOUS
10
3.81181
20
-2.18878
11
3.88898
21
-2.18878
0
LINE
8
BLACK
6
CONTINUOUS
10
3.8128
20
-2.19075
11
3.8128
21
-2.33681
0
LINE
8
BLACK
6
CONTINUOUS
10
3.8128
20
-2.33681
11
3.88799
21
-2.33681
0
LINE
8
BLACK
6
CONTINUOUS
10
3.88799
20
-2.33681
11
3.88799
21
-2.19075
0
LINE
8
BLACK
6
CONTINUOUS
10
3.88799
20
-2.19075
11
3.8128
21
-2.19075
0
LINE
8
BLACK
6
CONTINUOUS
10
3.88189
20
-1.97146
11
3.88259
21
-1.97174
0
LINE
8
BLACK
6
CONTINUOUS
10
3.88259
20
-1.97174
11
3.88287
21
-1.97244
0
LINE
8
BLACK
6
CONTINUOUS
10
3.88287
20
-1.97244
11
3.88287
21
-2.18504
0
LINE
8
BLACK
6
CONTINUOUS
10
3.88287
20
-2.18504
11
3.88259
21
-2.18574
0
LINE
8
BLACK
6
CONTINUOUS
10
3.88259
20
-2.18574
11
3.88189
21
-2.18602
0
LINE
8
BLACK
6
CONTINUOUS
10
3.88189
20
-2.18602
11
3.59055
21
-2.18602
0
LINE
8
BLACK
6
CONTINUOUS
10
3.59055
20
-2.18602
11
3.58986
21
-2.18574
0
LINE
8
BLACK
6
CONTINUOUS
10
3.58986
20
-2.18574
11
3.58957
21
-2.18504
0
LINE
8
BLACK
6
CONTINUOUS
10
3.58957
20
-2.18504
11
3.58957
21
-1.97244
0
LINE
8
BLACK
6
CONTINUOUS
10
3.58957
20
-1.97244
11
3.58986
21
-1.97174
0
LINE
8
BLACK
6
CONTINUOUS
10
3.58986
20
-1.97174
11
3.59055
21
-1.97146
0
LINE
8
BLACK
6
CONTINUOUS
10
3.59055
20
-1.97146
11
3.88189
21
-1.97146
0
LINE
8
BLACK
6
CONTINUOUS
10
3.59154
20
-1.97343
11
3.59154
21
-2.18406
0
LINE
8
BLACK
6
CONTINUOUS
10
3.59154
20
-2.18406
11
3.88091
21
-2.18406
0
LINE
8
BLACK
6
CONTINUOUS
10
3.88091
20
-2.18406
11
3.88091
21
-1.97343
0
LINE
8
BLACK
6
CONTINUOUS
10
3.88091
20
-1.97343
11
3.59154
21
-1.97343
0
LINE
8
BLACK
6
CONTINUOUS
10
3.95866
20
-2.00689
11
3.95936
21
-2.00718
0
LINE
8
BLACK
6
CONTINUOUS
10
3.95936
20
-2.00718
11
3.95965
21
-2.00787
0
LINE
8
BLACK
6
CONTINUOUS
10
3.95965
20
-2.00787
11
3.95965
21
-2.13386
0
LINE
8
BLACK
6
CONTINUOUS
10
3.95965
20
-2.13386
11
3.95936
21
-2.13455
0
LINE
8
BLACK
6
CONTINUOUS
10
3.95936
20
-2.13455
11
3.95866
21
-2.13484
0
LINE
8
BLACK
6
CONTINUOUS
10
3.95866
20
-2.13484
11
3.89961
21
-2.13484
0
LINE
8
BLACK
6
CONTINUOUS
10
3.89961
20
-2.13484
11
3.89891
21
-2.13455
0
LINE
8
BLACK
6
CONTINUOUS
10
3.89891
20
-2.13455
11
3.89862
21
-2.13386
0
LINE
8
BLACK
6
CONTINUOUS
10
3.89862
20
-2.13386
11
3.89862
21
-2.00787
0
LINE
8
BLACK
6
CONTINUOUS
10
3.89862
20
-2.00787
11
3.89891
21
-2.00718
0
LINE
8
BLACK
6
CONTINUOUS
10
3.89891
20
-2.00718
11
3.89961
21
-2.00689
0
LINE
8
BLACK
6
CONTINUOUS
10
3.89961
20
-2.00689
11
3.95866
21
-2.00689
0
LINE
8
BLACK
6
CONTINUOUS
10
3.90059
20
-2.00886
11
3.90059
21
-2.13287
0
LINE
8
BLACK
6
CONTINUOUS
10
3.90059
20
-2.13287
11
3.95768
21
-2.13287
0
LINE
8
BLACK
6
CONTINUOUS
10
3.95768
20
-2.13287
11
3.95768
21
-2.00886
0
LINE
8
BLACK
6
CONTINUOUS
10
3.95768
20
-2.00886
11
3.90059
21
-2.00886
  0
ENDSEC
  0
EOF
