  0
SECTION
  2
HEADER
  9
$ANGBASE
  50
0.0
  9
$ANGDIR
  70
1
  9
$MEASUREMENT
  70
0
  0
ENDSEC
  0
SECTION
  2
TABLES
  0
TABLE
  2
LTYPE
  70
4
  0
LTYPE
  5
40F
  2
CONTINUOUS
  70
0
  3
Solid line
  72
65
  73
0
  40
0.0
  0
LTYPE
  5
410
  2
DASHDOT
 70
0
  3
Dash Dot ____ _ ____ _
 72
65
 73
4
 40
2.0
 49
1.25
 49
-0.25
 49
0.25
 49
-0.25
  0
LTYPE
  5
411
  2
DASHED
 70
0
  3
Dashed __ __ __ __ __
 72
65
 73
2
 40
0.75
 49
0.5
 49
-0.25
  0
LTYPE
  5
43B
  2
DOTTED
 70
0
  3
Dotted .  .  .  .
 72
65
 73
2
 40
0.2
 49
0.0
 49
-0.2
  0
ENDTAB
  0
TABLE
  2
STYLE
  70
4
  0
STYLE
  2
KICAD
  70
0
  40
0
  41
1
  42
1
  50
0
  71
0
  3
isocp.shx
  0
STYLE
  2
KICADB
  70
0
  40
0
  41
1
  42
1
  50
0
  71
0
  3
isocp.shx
  0
STYLE
  2
KICADI
  70
0
  40
0
  41
1
  42
1
  50
15
  71
0
  3
isocp.shx
  0
STYLE
  2
KICADBI
  70
0
  40
0
  41
1
  42
1
  50
15
  71
0
  3
isocp.shx
  0
ENDTAB
  0
TABLE
  2
LAYER
  70
1
  0
LAYER
  2
BLACK
  70
0
  62
7
  6
CONTINUOUS
  0
ENDTAB
  0
ENDSEC
  0
SECTION
  2
ENTITIES
0
LINE
8
BLACK
6
CONTINUOUS
10
3.3563
20
-2.71161
11
3.36614
21
-2.71161
0
LINE
8
BLACK
6
CONTINUOUS
10
3.36614
20
-2.71161
11
3.36701
21
-2.71174
0
LINE
8
BLACK
6
CONTINUOUS
10
3.36701
20
-2.71174
11
3.36719
21
-2.71173
0
LINE
8
BLACK
6
CONTINUOUS
10
3.36719
20
-2.71173
11
3.36728
21
-2.71178
0
LINE
8
BLACK
6
CONTINUOUS
10
3.36728
20
-2.71178
11
3.36753
21
-2.71181
0
LINE
8
BLACK
6
CONTINUOUS
10
3.36753
20
-2.71181
11
3.36855
21
-2.71247
0
LINE
8
BLACK
6
CONTINUOUS
10
3.36855
20
-2.71247
11
3.36962
21
-2.71306
0
LINE
8
BLACK
6
CONTINUOUS
10
3.36962
20
-2.71306
11
3.37887
21
-2.72231
0
LINE
8
BLACK
6
CONTINUOUS
10
3.37887
20
-2.72231
11
3.38096
21
-2.72124
0
LINE
8
BLACK
6
CONTINUOUS
10
3.38096
20
-2.72124
11
3.38583
21
-2.72047
0
LINE
8
BLACK
6
CONTINUOUS
10
3.38583
20
-2.72047
11
3.39069
21
-2.72124
0
LINE
8
BLACK
6
CONTINUOUS
10
3.39069
20
-2.72124
11
3.39508
21
-2.72348
0
LINE
8
BLACK
6
CONTINUOUS
10
3.39508
20
-2.72348
11
3.39857
21
-2.72696
0
LINE
8
BLACK
6
CONTINUOUS
10
3.39857
20
-2.72696
11
3.4008
21
-2.73135
0
LINE
8
BLACK
6
CONTINUOUS
10
3.4008
20
-2.73135
11
3.40157
21
-2.73622
0
LINE
8
BLACK
6
CONTINUOUS
10
3.40157
20
-2.73622
11
3.4008
21
-2.74109
0
LINE
8
BLACK
6
CONTINUOUS
10
3.4008
20
-2.74109
11
3.39857
21
-2.74548
0
LINE
8
BLACK
6
CONTINUOUS
10
3.39857
20
-2.74548
11
3.39508
21
-2.74896
0
LINE
8
BLACK
6
CONTINUOUS
10
3.39508
20
-2.74896
11
3.39069
21
-2.7512
0
LINE
8
BLACK
6
CONTINUOUS
10
3.39069
20
-2.7512
11
3.38583
21
-2.75197
0
LINE
8
BLACK
6
CONTINUOUS
10
3.38583
20
-2.75197
11
3.38096
21
-2.7512
0
LINE
8
BLACK
6
CONTINUOUS
10
3.38096
20
-2.7512
11
3.37657
21
-2.74896
0
LINE
8
BLACK
6
CONTINUOUS
10
3.37657
20
-2.74896
11
3.37309
21
-2.74548
0
LINE
8
BLACK
6
CONTINUOUS
10
3.37309
20
-2.74548
11
3.37085
21
-2.74109
0
LINE
8
BLACK
6
CONTINUOUS
10
3.37085
20
-2.74109
11
3.37008
21
-2.73622
0
LINE
8
BLACK
6
CONTINUOUS
10
3.37008
20
-2.73622
11
3.37085
21
-2.73135
0
LINE
8
BLACK
6
CONTINUOUS
10
3.37085
20
-2.73135
11
3.37191
21
-2.72927
0
LINE
8
BLACK
6
CONTINUOUS
10
3.37191
20
-2.72927
11
3.3641
21
-2.72146
0
LINE
8
BLACK
6
CONTINUOUS
10
3.3641
20
-2.72146
11
3.3563
21
-2.72146
0
LINE
8
BLACK
6
CONTINUOUS
10
3.3563
20
-2.72146
11
3.3563
21
-2.73622
0
LINE
8
BLACK
6
CONTINUOUS
10
3.3563
20
-2.73622
11
3.33373
21
-2.73622
0
LINE
8
BLACK
6
CONTINUOUS
10
3.33373
20
-2.73622
11
3.3395
21
-2.74199
0
LINE
8
BLACK
6
CONTINUOUS
10
3.3395
20
-2.74199
11
3.34159
21
-2.74093
0
LINE
8
BLACK
6
CONTINUOUS
10
3.34159
20
-2.74093
11
3.34646
21
-2.74016
0
LINE
8
BLACK
6
CONTINUOUS
10
3.34646
20
-2.74016
11
3.35132
21
-2.74093
0
LINE
8
BLACK
6
CONTINUOUS
10
3.35132
20
-2.74093
11
3.35571
21
-2.74317
0
LINE
8
BLACK
6
CONTINUOUS
10
3.35571
20
-2.74317
11
3.3592
21
-2.74665
0
LINE
8
BLACK
6
CONTINUOUS
10
3.3592
20
-2.74665
11
3.36143
21
-2.75104
0
LINE
8
BLACK
6
CONTINUOUS
10
3.36143
20
-2.75104
11
3.3622
21
-2.75591
0
LINE
8
BLACK
6
CONTINUOUS
10
3.3622
20
-2.75591
11
3.36143
21
-2.76077
0
LINE
8
BLACK
6
CONTINUOUS
10
3.36143
20
-2.76077
11
3.3592
21
-2.76516
0
LINE
8
BLACK
6
CONTINUOUS
10
3.3592
20
-2.76516
11
3.35571
21
-2.76865
0
LINE
8
BLACK
6
CONTINUOUS
10
3.35571
20
-2.76865
11
3.35132
21
-2.77088
0
LINE
8
BLACK
6
CONTINUOUS
10
3.35132
20
-2.77088
11
3.34646
21
-2.77165
0
LINE
8
BLACK
6
CONTINUOUS
10
3.34646
20
-2.77165
11
3.34159
21
-2.77088
0
LINE
8
BLACK
6
CONTINUOUS
10
3.34159
20
-2.77088
11
3.3372
21
-2.76865
0
LINE
8
BLACK
6
CONTINUOUS
10
3.3372
20
-2.76865
11
3.33372
21
-2.76516
0
LINE
8
BLACK
6
CONTINUOUS
10
3.33372
20
-2.76516
11
3.33148
21
-2.76077
0
LINE
8
BLACK
6
CONTINUOUS
10
3.33148
20
-2.76077
11
3.33071
21
-2.75591
0
LINE
8
BLACK
6
CONTINUOUS
10
3.33071
20
-2.75591
11
3.33148
21
-2.75104
0
LINE
8
BLACK
6
CONTINUOUS
10
3.33148
20
-2.75104
11
3.33254
21
-2.74895
0
LINE
8
BLACK
6
CONTINUOUS
10
3.33254
20
-2.74895
11
3.31981
21
-2.73622
0
LINE
8
BLACK
6
CONTINUOUS
10
3.31981
20
-2.73622
11
3.30709
21
-2.73622
0
LINE
8
BLACK
6
CONTINUOUS
10
3.30709
20
-2.73622
11
3.30709
21
-2.74016
0
LINE
8
BLACK
6
CONTINUOUS
10
3.30709
20
-2.74016
11
3.31195
21
-2.74093
0
LINE
8
BLACK
6
CONTINUOUS
10
3.31195
20
-2.74093
11
3.31634
21
-2.74317
0
LINE
8
BLACK
6
CONTINUOUS
10
3.31634
20
-2.74317
11
3.31983
21
-2.74665
0
LINE
8
BLACK
6
CONTINUOUS
10
3.31983
20
-2.74665
11
3.32206
21
-2.75104
0
LINE
8
BLACK
6
CONTINUOUS
10
3.32206
20
-2.75104
11
3.32283
21
-2.75591
0
LINE
8
BLACK
6
CONTINUOUS
10
3.32283
20
-2.75591
11
3.32206
21
-2.76077
0
LINE
8
BLACK
6
CONTINUOUS
10
3.32206
20
-2.76077
11
3.31983
21
-2.76516
0
LINE
8
BLACK
6
CONTINUOUS
10
3.31983
20
-2.76516
11
3.31634
21
-2.76865
0
LINE
8
BLACK
6
CONTINUOUS
10
3.31634
20
-2.76865
11
3.31195
21
-2.77088
0
LINE
8
BLACK
6
CONTINUOUS
10
3.31195
20
-2.77088
11
3.30709
21
-2.77165
0
LINE
8
BLACK
6
CONTINUOUS
10
3.30709
20
-2.77165
11
3.30222
21
-2.77088
0
LINE
8
BLACK
6
CONTINUOUS
10
3.30222
20
-2.77088
11
3.29783
21
-2.76865
0
LINE
8
BLACK
6
CONTINUOUS
10
3.29783
20
-2.76865
11
3.29435
21
-2.76516
0
LINE
8
BLACK
6
CONTINUOUS
10
3.29435
20
-2.76516
11
3.29211
21
-2.76077
0
LINE
8
BLACK
6
CONTINUOUS
10
3.29211
20
-2.76077
11
3.29134
21
-2.75591
0
LINE
8
BLACK
6
CONTINUOUS
10
3.29134
20
-2.75591
11
3.29211
21
-2.75104
0
LINE
8
BLACK
6
CONTINUOUS
10
3.29211
20
-2.75104
11
3.29435
21
-2.74665
0
LINE
8
BLACK
6
CONTINUOUS
10
3.29435
20
-2.74665
11
3.29724
21
-2.74375
0
LINE
8
BLACK
6
CONTINUOUS
10
3.29724
20
-2.74375
11
3.29724
21
-2.73622
0
LINE
8
BLACK
6
CONTINUOUS
10
3.29724
20
-2.73622
11
3.29436
21
-2.73622
0
LINE
8
BLACK
6
CONTINUOUS
10
3.29436
20
-2.73622
11
3.28163
21
-2.74895
0
LINE
8
BLACK
6
CONTINUOUS
10
3.28163
20
-2.74895
11
3.28269
21
-2.75104
0
LINE
8
BLACK
6
CONTINUOUS
10
3.28269
20
-2.75104
11
3.28346
21
-2.75591
0
LINE
8
BLACK
6
CONTINUOUS
10
3.28346
20
-2.75591
11
3.28269
21
-2.76077
0
LINE
8
BLACK
6
CONTINUOUS
10
3.28269
20
-2.76077
11
3.28046
21
-2.76516
0
LINE
8
BLACK
6
CONTINUOUS
10
3.28046
20
-2.76516
11
3.27697
21
-2.76865
0
LINE
8
BLACK
6
CONTINUOUS
10
3.27697
20
-2.76865
11
3.27258
21
-2.77088
0
LINE
8
BLACK
6
CONTINUOUS
10
3.27258
20
-2.77088
11
3.26772
21
-2.77165
0
LINE
8
BLACK
6
CONTINUOUS
10
3.26772
20
-2.77165
11
3.26285
21
-2.77088
0
LINE
8
BLACK
6
CONTINUOUS
10
3.26285
20
-2.77088
11
3.25846
21
-2.76865
0
LINE
8
BLACK
6
CONTINUOUS
10
3.25846
20
-2.76865
11
3.25498
21
-2.76516
0
LINE
8
BLACK
6
CONTINUOUS
10
3.25498
20
-2.76516
11
3.25274
21
-2.76077
0
LINE
8
BLACK
6
CONTINUOUS
10
3.25274
20
-2.76077
11
3.25197
21
-2.75591
0
LINE
8
BLACK
6
CONTINUOUS
10
3.25197
20
-2.75591
11
3.25274
21
-2.75104
0
LINE
8
BLACK
6
CONTINUOUS
10
3.25274
20
-2.75104
11
3.25498
21
-2.74665
0
LINE
8
BLACK
6
CONTINUOUS
10
3.25498
20
-2.74665
11
3.25846
21
-2.74317
0
LINE
8
BLACK
6
CONTINUOUS
10
3.25846
20
-2.74317
11
3.26285
21
-2.74093
0
LINE
8
BLACK
6
CONTINUOUS
10
3.26285
20
-2.74093
11
3.26772
21
-2.74016
0
LINE
8
BLACK
6
CONTINUOUS
10
3.26772
20
-2.74016
11
3.27258
21
-2.74093
0
LINE
8
BLACK
6
CONTINUOUS
10
3.27258
20
-2.74093
11
3.27467
21
-2.74199
0
LINE
8
BLACK
6
CONTINUOUS
10
3.27467
20
-2.74199
11
3.28044
21
-2.73622
0
LINE
8
BLACK
6
CONTINUOUS
10
3.28044
20
-2.73622
11
3.24803
21
-2.73622
0
LINE
8
BLACK
6
CONTINUOUS
10
3.24803
20
-2.73622
11
3.24803
21
-2.69685
0
LINE
8
BLACK
6
CONTINUOUS
10
3.24803
20
-2.69685
11
3.3563
21
-2.69685
0
LINE
8
BLACK
6
CONTINUOUS
10
3.3563
20
-2.69685
11
3.3563
21
-2.71161
0
LINE
8
BLACK
6
CONTINUOUS
10
3.58276
20
-1.88979
11
3.58447
21
-1.88994
0
LINE
8
BLACK
6
CONTINUOUS
10
3.58447
20
-1.88994
11
3.58952
21
-1.89044
0
LINE
8
BLACK
6
CONTINUOUS
10
3.58952
20
-1.89044
11
3.59015
21
-1.89055
0
LINE
8
BLACK
6
CONTINUOUS
10
3.59015
20
-1.89055
11
3.59282
21
-1.89127
0
LINE
8
BLACK
6
CONTINUOUS
10
3.59282
20
-1.89127
11
3.59288
21
-1.89128
0
LINE
8
BLACK
6
CONTINUOUS
10
3.59288
20
-1.89128
11
3.59659
21
-1.89241
0
LINE
8
BLACK
6
CONTINUOUS
10
3.59659
20
-1.89241
11
3.5971
21
-1.89261
0
LINE
8
BLACK
6
CONTINUOUS
10
3.5971
20
-1.89261
11
3.59983
21
-1.89388
0
LINE
8
BLACK
6
CONTINUOUS
10
3.59983
20
-1.89388
11
3.59992
21
-1.89393
0
LINE
8
BLACK
6
CONTINUOUS
10
3.59992
20
-1.89393
11
3.60327
21
-1.89571
0
LINE
8
BLACK
6
CONTINUOUS
10
3.60327
20
-1.89571
11
3.60347
21
-1.89584
0
LINE
8
BLACK
6
CONTINUOUS
10
3.60347
20
-1.89584
11
3.60611
21
-1.89769
0
LINE
8
BLACK
6
CONTINUOUS
10
3.60611
20
-1.89769
11
3.60623
21
-1.89778
0
LINE
8
BLACK
6
CONTINUOUS
10
3.60623
20
-1.89778
11
3.60759
21
-1.8989
0
LINE
8
BLACK
6
CONTINUOUS
10
3.60759
20
-1.8989
11
3.60911
21
-1.90014
0
LINE
8
BLACK
6
CONTINUOUS
10
3.60911
20
-1.90014
11
3.60925
21
-1.90027
0
LINE
8
BLACK
6
CONTINUOUS
10
3.60925
20
-1.90027
11
3.61155
21
-1.90256
0
LINE
8
BLACK
6
CONTINUOUS
10
3.61155
20
-1.90256
11
3.61167
21
-1.90271
0
LINE
8
BLACK
6
CONTINUOUS
10
3.61167
20
-1.90271
11
3.61403
21
-1.90558
0
LINE
8
BLACK
6
CONTINUOUS
10
3.61403
20
-1.90558
11
3.61412
21
-1.9057
0
LINE
8
BLACK
6
CONTINUOUS
10
3.61412
20
-1.9057
11
3.61598
21
-1.90834
0
LINE
8
BLACK
6
CONTINUOUS
10
3.61598
20
-1.90834
11
3.6161
21
-1.90854
0
LINE
8
BLACK
6
CONTINUOUS
10
3.6161
20
-1.90854
11
3.61788
21
-1.91189
0
LINE
8
BLACK
6
CONTINUOUS
10
3.61788
20
-1.91189
11
3.61793
21
-1.91198
0
LINE
8
BLACK
6
CONTINUOUS
10
3.61793
20
-1.91198
11
3.6192
21
-1.91471
0
LINE
8
BLACK
6
CONTINUOUS
10
3.6192
20
-1.91471
11
3.6194
21
-1.91523
0
LINE
8
BLACK
6
CONTINUOUS
10
3.6194
20
-1.91523
11
3.62053
21
-1.91893
0
LINE
8
BLACK
6
CONTINUOUS
10
3.62053
20
-1.91893
11
3.62054
21
-1.91899
0
LINE
8
BLACK
6
CONTINUOUS
10
3.62054
20
-1.91899
11
3.62126
21
-1.92166
0
LINE
8
BLACK
6
CONTINUOUS
10
3.62126
20
-1.92166
11
3.62137
21
-1.92229
0
LINE
8
BLACK
6
CONTINUOUS
10
3.62137
20
-1.92229
11
3.62187
21
-1.92734
0
LINE
8
BLACK
6
CONTINUOUS
10
3.62187
20
-1.92734
11
3.62202
21
-1.92905
0
LINE
8
BLACK
6
CONTINUOUS
10
3.62202
20
-1.92905
11
3.62203
21
-1.92922
0
LINE
8
BLACK
6
CONTINUOUS
10
3.62203
20
-1.92922
11
3.62203
21
-2.37491
0
LINE
8
BLACK
6
CONTINUOUS
10
3.62203
20
-2.37491
11
3.62128
21
-2.3772
0
LINE
8
BLACK
6
CONTINUOUS
10
3.62128
20
-2.3772
11
3.61933
21
-2.37862
0
LINE
8
BLACK
6
CONTINUOUS
10
3.61933
20
-2.37862
11
3.61693
21
-2.37862
0
LINE
8
BLACK
6
CONTINUOUS
10
3.61693
20
-2.37862
11
3.61589
21
-2.3781
0
LINE
8
BLACK
6
CONTINUOUS
10
3.61589
20
-2.3781
11
3.61542
21
-2.37777
0
LINE
8
BLACK
6
CONTINUOUS
10
3.61542
20
-2.37777
11
3.61542
21
-2.37777
0
LINE
8
BLACK
6
CONTINUOUS
10
3.61542
20
-2.37777
11
3.61542
21
-2.37777
0
LINE
8
BLACK
6
CONTINUOUS
10
3.61542
20
-2.37777
11
3.61542
21
-2.37777
0
LINE
8
BLACK
6
CONTINUOUS
10
3.61542
20
-2.37777
11
3.61536
21
-2.37776
0
LINE
8
BLACK
6
CONTINUOUS
10
3.61536
20
-2.37776
11
3.61442
21
-2.37737
0
LINE
8
BLACK
6
CONTINUOUS
10
3.61442
20
-2.37737
11
3.61437
21
-2.37734
0
LINE
8
BLACK
6
CONTINUOUS
10
3.61437
20
-2.37734
11
3.61278
21
-2.37706
0
LINE
8
BLACK
6
CONTINUOUS
10
3.61278
20
-2.37706
11
3.61262
21
-2.37702
0
LINE
8
BLACK
6
CONTINUOUS
10
3.61262
20
-2.37702
11
3.61158
21
-2.37674
0
LINE
8
BLACK
6
CONTINUOUS
10
3.61158
20
-2.37674
11
3.61106
21
-2.3766
0
LINE
8
BLACK
6
CONTINUOUS
10
3.61106
20
-2.3766
11
3.61106
21
-2.3766
0
LINE
8
BLACK
6
CONTINUOUS
10
3.61106
20
-2.3766
11
3.61088
21
-2.37662
0
LINE
8
BLACK
6
CONTINUOUS
10
3.61088
20
-2.37662
11
3.60945
21
-2.37674
0
LINE
8
BLACK
6
CONTINUOUS
10
3.60945
20
-2.37674
11
3.60928
21
-2.37675
0
LINE
8
BLACK
6
CONTINUOUS
10
3.60928
20
-2.37675
11
3.54427
21
-2.37675
0
LINE
8
BLACK
6
CONTINUOUS
10
3.54427
20
-2.37675
11
3.5441
21
-2.37674
0
LINE
8
BLACK
6
CONTINUOUS
10
3.5441
20
-2.37674
11
3.54249
21
-2.3766
0
LINE
8
BLACK
6
CONTINUOUS
10
3.54249
20
-2.3766
11
3.54093
21
-2.37702
0
LINE
8
BLACK
6
CONTINUOUS
10
3.54093
20
-2.37702
11
3.54076
21
-2.37706
0
LINE
8
BLACK
6
CONTINUOUS
10
3.54076
20
-2.37706
11
3.53917
21
-2.37734
0
LINE
8
BLACK
6
CONTINUOUS
10
3.53917
20
-2.37734
11
3.53917
21
-2.37734
0
LINE
8
BLACK
6
CONTINUOUS
10
3.53917
20
-2.37734
11
3.53912
21
-2.37737
0
LINE
8
BLACK
6
CONTINUOUS
10
3.53912
20
-2.37737
11
3.53818
21
-2.37776
0
LINE
8
BLACK
6
CONTINUOUS
10
3.53818
20
-2.37776
11
3.53812
21
-2.37777
0
LINE
8
BLACK
6
CONTINUOUS
10
3.53812
20
-2.37777
11
3.53812
21
-2.37777
0
LINE
8
BLACK
6
CONTINUOUS
10
3.53812
20
-2.37777
11
3.5368
21
-2.3787
0
LINE
8
BLACK
6
CONTINUOUS
10
3.5368
20
-2.3787
11
3.53666
21
-2.37879
0
LINE
8
BLACK
6
CONTINUOUS
10
3.53666
20
-2.37879
11
3.53633
21
-2.37898
0
LINE
8
BLACK
6
CONTINUOUS
10
3.53633
20
-2.37898
11
3.53526
21
-2.3796
0
LINE
8
BLACK
6
CONTINUOUS
10
3.53526
20
-2.3796
11
3.53422
21
-2.38084
0
LINE
8
BLACK
6
CONTINUOUS
10
3.53422
20
-2.38084
11
3.5341
21
-2.38096
0
LINE
8
BLACK
6
CONTINUOUS
10
3.5341
20
-2.38096
11
3.51876
21
-2.39631
0
LINE
8
BLACK
6
CONTINUOUS
10
3.51876
20
-2.39631
11
3.51863
21
-2.39642
0
LINE
8
BLACK
6
CONTINUOUS
10
3.51863
20
-2.39642
11
3.51739
21
-2.39746
0
LINE
8
BLACK
6
CONTINUOUS
10
3.51739
20
-2.39746
11
3.51739
21
-2.39746
0
LINE
8
BLACK
6
CONTINUOUS
10
3.51739
20
-2.39746
11
3.51659
21
-2.39886
0
LINE
8
BLACK
6
CONTINUOUS
10
3.51659
20
-2.39886
11
3.51649
21
-2.399
0
LINE
8
BLACK
6
CONTINUOUS
10
3.51649
20
-2.399
11
3.51557
21
-2.40033
0
LINE
8
BLACK
6
CONTINUOUS
10
3.51557
20
-2.40033
11
3.51557
21
-2.40033
0
LINE
8
BLACK
6
CONTINUOUS
10
3.51557
20
-2.40033
11
3.51555
21
-2.40038
0
LINE
8
BLACK
6
CONTINUOUS
10
3.51555
20
-2.40038
11
3.51516
21
-2.40132
0
LINE
8
BLACK
6
CONTINUOUS
10
3.51516
20
-2.40132
11
3.51513
21
-2.40138
0
LINE
8
BLACK
6
CONTINUOUS
10
3.51513
20
-2.40138
11
3.51513
21
-2.40138
0
LINE
8
BLACK
6
CONTINUOUS
10
3.51513
20
-2.40138
11
3.51485
21
-2.40297
0
LINE
8
BLACK
6
CONTINUOUS
10
3.51485
20
-2.40297
11
3.51482
21
-2.40313
0
LINE
8
BLACK
6
CONTINUOUS
10
3.51482
20
-2.40313
11
3.51475
21
-2.40339
0
LINE
8
BLACK
6
CONTINUOUS
10
3.51475
20
-2.40339
11
3.51344
21
-2.40541
0
LINE
8
BLACK
6
CONTINUOUS
10
3.51344
20
-2.40541
11
3.51119
21
-2.40627
0
LINE
8
BLACK
6
CONTINUOUS
10
3.51119
20
-2.40627
11
3.51098
21
-2.40628
0
LINE
8
BLACK
6
CONTINUOUS
10
3.51098
20
-2.40628
11
3.48128
21
-2.40628
0
LINE
8
BLACK
6
CONTINUOUS
10
3.48128
20
-2.40628
11
3.47899
21
-2.40554
0
LINE
8
BLACK
6
CONTINUOUS
10
3.47899
20
-2.40554
11
3.47757
21
-2.40359
0
LINE
8
BLACK
6
CONTINUOUS
10
3.47757
20
-2.40359
11
3.47738
21
-2.40238
0
LINE
8
BLACK
6
CONTINUOUS
10
3.47738
20
-2.40238
11
3.47738
21
-2.30474
0
LINE
8
BLACK
6
CONTINUOUS
10
3.47738
20
-2.30474
11
3.47813
21
-2.30245
0
LINE
8
BLACK
6
CONTINUOUS
10
3.47813
20
-2.30245
11
3.48008
21
-2.30103
0
LINE
8
BLACK
6
CONTINUOUS
10
3.48008
20
-2.30103
11
3.48204
21
-2.30092
0
LINE
8
BLACK
6
CONTINUOUS
10
3.48204
20
-2.30092
11
3.48313
21
-2.30113
0
LINE
8
BLACK
6
CONTINUOUS
10
3.48313
20
-2.30113
11
3.48347
21
-2.3012
0
LINE
8
BLACK
6
CONTINUOUS
10
3.48347
20
-2.3012
11
3.48347
21
-2.3012
0
LINE
8
BLACK
6
CONTINUOUS
10
3.48347
20
-2.3012
11
3.48347
21
-2.3012
0
LINE
8
BLACK
6
CONTINUOUS
10
3.48347
20
-2.3012
11
3.48347
21
-2.3012
0
LINE
8
BLACK
6
CONTINUOUS
10
3.48347
20
-2.3012
11
3.5244
21
-2.3012
0
LINE
8
BLACK
6
CONTINUOUS
10
3.5244
20
-2.3012
11
3.5244
21
-2.3012
0
LINE
8
BLACK
6
CONTINUOUS
10
3.5244
20
-2.3012
11
3.5267
21
-2.30074
0
LINE
8
BLACK
6
CONTINUOUS
10
3.5267
20
-2.30074
11
3.52931
21
-2.299
0
LINE
8
BLACK
6
CONTINUOUS
10
3.52931
20
-2.299
11
3.53106
21
-2.29639
0
LINE
8
BLACK
6
CONTINUOUS
10
3.53106
20
-2.29639
11
3.53152
21
-2.29408
0
LINE
8
BLACK
6
CONTINUOUS
10
3.53152
20
-2.29408
11
3.53152
21
-2.24508
0
LINE
8
BLACK
6
CONTINUOUS
10
3.53152
20
-2.24508
11
3.53152
21
-2.23327
0
LINE
8
BLACK
6
CONTINUOUS
10
3.53152
20
-2.23327
11
3.53152
21
-2.18426
0
LINE
8
BLACK
6
CONTINUOUS
10
3.53152
20
-2.18426
11
3.53106
21
-2.18196
0
LINE
8
BLACK
6
CONTINUOUS
10
3.53106
20
-2.18196
11
3.52931
21
-2.17935
0
LINE
8
BLACK
6
CONTINUOUS
10
3.52931
20
-2.17935
11
3.52931
21
-2.17935
0
LINE
8
BLACK
6
CONTINUOUS
10
3.52931
20
-2.17935
11
3.5267
21
-2.1776
0
LINE
8
BLACK
6
CONTINUOUS
10
3.5267
20
-2.1776
11
3.5267
21
-2.1776
0
LINE
8
BLACK
6
CONTINUOUS
10
3.5267
20
-2.1776
11
3.5267
21
-2.1776
0
LINE
8
BLACK
6
CONTINUOUS
10
3.5267
20
-2.1776
11
3.5267
21
-2.1776
0
LINE
8
BLACK
6
CONTINUOUS
10
3.5267
20
-2.1776
11
3.5244
21
-2.17715
0
LINE
8
BLACK
6
CONTINUOUS
10
3.5244
20
-2.17715
11
3.5244
21
-2.17715
0
LINE
8
BLACK
6
CONTINUOUS
10
3.5244
20
-2.17715
11
3.48347
21
-2.17715
0
LINE
8
BLACK
6
CONTINUOUS
10
3.48347
20
-2.17715
11
3.48347
21
-2.17715
0
LINE
8
BLACK
6
CONTINUOUS
10
3.48347
20
-2.17715
11
3.48347
21
-2.17715
0
LINE
8
BLACK
6
CONTINUOUS
10
3.48347
20
-2.17715
11
3.48117
21
-2.1776
0
LINE
8
BLACK
6
CONTINUOUS
10
3.48117
20
-2.1776
11
3.48117
21
-2.1776
0
LINE
8
BLACK
6
CONTINUOUS
10
3.48117
20
-2.1776
11
3.47856
21
-2.17935
0
LINE
8
BLACK
6
CONTINUOUS
10
3.47856
20
-2.17935
11
3.47856
21
-2.17935
0
LINE
8
BLACK
6
CONTINUOUS
10
3.47856
20
-2.17935
11
3.47682
21
-2.18196
0
LINE
8
BLACK
6
CONTINUOUS
10
3.47682
20
-2.18196
11
3.47682
21
-2.18196
0
LINE
8
BLACK
6
CONTINUOUS
10
3.47682
20
-2.18196
11
3.47636
21
-2.18426
0
LINE
8
BLACK
6
CONTINUOUS
10
3.47636
20
-2.18426
11
3.47636
21
-2.18426
0
LINE
8
BLACK
6
CONTINUOUS
10
3.47636
20
-2.18426
11
3.47636
21
-2.22246
0
LINE
8
BLACK
6
CONTINUOUS
10
3.47636
20
-2.22246
11
3.47561
21
-2.22475
0
LINE
8
BLACK
6
CONTINUOUS
10
3.47561
20
-2.22475
11
3.47367
21
-2.22617
0
LINE
8
BLACK
6
CONTINUOUS
10
3.47367
20
-2.22617
11
3.47246
21
-2.22636
0
LINE
8
BLACK
6
CONTINUOUS
10
3.47246
20
-2.22636
11
3.47013
21
-2.22636
0
LINE
8
BLACK
6
CONTINUOUS
10
3.47013
20
-2.22636
11
3.46996
21
-2.22635
0
LINE
8
BLACK
6
CONTINUOUS
10
3.46996
20
-2.22635
11
3.46835
21
-2.22621
0
LINE
8
BLACK
6
CONTINUOUS
10
3.46835
20
-2.22621
11
3.46835
21
-2.22621
0
LINE
8
BLACK
6
CONTINUOUS
10
3.46835
20
-2.22621
11
3.46679
21
-2.22663
0
LINE
8
BLACK
6
CONTINUOUS
10
3.46679
20
-2.22663
11
3.46663
21
-2.22666
0
LINE
8
BLACK
6
CONTINUOUS
10
3.46663
20
-2.22666
11
3.46504
21
-2.22695
0
LINE
8
BLACK
6
CONTINUOUS
10
3.46504
20
-2.22695
11
3.46504
21
-2.22695
0
LINE
8
BLACK
6
CONTINUOUS
10
3.46504
20
-2.22695
11
3.46499
21
-2.22698
0
LINE
8
BLACK
6
CONTINUOUS
10
3.46499
20
-2.22698
11
3.46405
21
-2.22736
0
LINE
8
BLACK
6
CONTINUOUS
10
3.46405
20
-2.22736
11
3.46399
21
-2.22738
0
LINE
8
BLACK
6
CONTINUOUS
10
3.46399
20
-2.22738
11
3.46399
21
-2.22738
0
LINE
8
BLACK
6
CONTINUOUS
10
3.46399
20
-2.22738
11
3.46267
21
-2.22831
0
LINE
8
BLACK
6
CONTINUOUS
10
3.46267
20
-2.22831
11
3.46252
21
-2.2284
0
LINE
8
BLACK
6
CONTINUOUS
10
3.46252
20
-2.2284
11
3.4622
21
-2.22858
0
LINE
8
BLACK
6
CONTINUOUS
10
3.4622
20
-2.22858
11
3.46112
21
-2.2292
0
LINE
8
BLACK
6
CONTINUOUS
10
3.46112
20
-2.2292
11
3.46009
21
-2.23044
0
LINE
8
BLACK
6
CONTINUOUS
10
3.46009
20
-2.23044
11
3.45997
21
-2.23057
0
LINE
8
BLACK
6
CONTINUOUS
10
3.45997
20
-2.23057
11
3.45596
21
-2.23458
0
LINE
8
BLACK
6
CONTINUOUS
10
3.45596
20
-2.23458
11
3.45584
21
-2.23469
0
LINE
8
BLACK
6
CONTINUOUS
10
3.45584
20
-2.23469
11
3.4546
21
-2.23573
0
LINE
8
BLACK
6
CONTINUOUS
10
3.4546
20
-2.23573
11
3.4546
21
-2.23573
0
LINE
8
BLACK
6
CONTINUOUS
10
3.4546
20
-2.23573
11
3.45379
21
-2.23713
0
LINE
8
BLACK
6
CONTINUOUS
10
3.45379
20
-2.23713
11
3.4537
21
-2.23727
0
LINE
8
BLACK
6
CONTINUOUS
10
3.4537
20
-2.23727
11
3.45277
21
-2.2386
0
LINE
8
BLACK
6
CONTINUOUS
10
3.45277
20
-2.2386
11
3.45277
21
-2.2386
0
LINE
8
BLACK
6
CONTINUOUS
10
3.45277
20
-2.2386
11
3.45276
21
-2.23865
0
LINE
8
BLACK
6
CONTINUOUS
10
3.45276
20
-2.23865
11
3.45237
21
-2.23959
0
LINE
8
BLACK
6
CONTINUOUS
10
3.45237
20
-2.23959
11
3.45234
21
-2.23964
0
LINE
8
BLACK
6
CONTINUOUS
10
3.45234
20
-2.23964
11
3.45234
21
-2.23964
0
LINE
8
BLACK
6
CONTINUOUS
10
3.45234
20
-2.23964
11
3.45206
21
-2.24123
0
LINE
8
BLACK
6
CONTINUOUS
10
3.45206
20
-2.24123
11
3.45202
21
-2.2414
0
LINE
8
BLACK
6
CONTINUOUS
10
3.45202
20
-2.2414
11
3.4516
21
-2.24296
0
LINE
8
BLACK
6
CONTINUOUS
10
3.4516
20
-2.24296
11
3.4516
21
-2.24296
0
LINE
8
BLACK
6
CONTINUOUS
10
3.4516
20
-2.24296
11
3.45174
21
-2.24457
0
LINE
8
BLACK
6
CONTINUOUS
10
3.45174
20
-2.24457
11
3.45175
21
-2.24474
0
LINE
8
BLACK
6
CONTINUOUS
10
3.45175
20
-2.24474
11
3.45175
21
-2.4095
0
LINE
8
BLACK
6
CONTINUOUS
10
3.45175
20
-2.4095
11
3.45101
21
-2.4118
0
LINE
8
BLACK
6
CONTINUOUS
10
3.45101
20
-2.4118
11
3.44935
21
-2.41311
0
LINE
8
BLACK
6
CONTINUOUS
10
3.44935
20
-2.41311
11
3.4491
21
-2.41321
0
LINE
8
BLACK
6
CONTINUOUS
10
3.4491
20
-2.41321
11
3.44416
21
-2.417
0
LINE
8
BLACK
6
CONTINUOUS
10
3.44416
20
-2.417
11
3.44416
21
-2.417
0
LINE
8
BLACK
6
CONTINUOUS
10
3.44416
20
-2.417
11
3.44037
21
-2.42194
0
LINE
8
BLACK
6
CONTINUOUS
10
3.44037
20
-2.42194
11
3.44037
21
-2.42194
0
LINE
8
BLACK
6
CONTINUOUS
10
3.44037
20
-2.42194
11
3.43799
21
-2.42769
0
LINE
8
BLACK
6
CONTINUOUS
10
3.43799
20
-2.42769
11
3.43799
21
-2.42769
0
LINE
8
BLACK
6
CONTINUOUS
10
3.43799
20
-2.42769
11
3.43718
21
-2.43386
0
LINE
8
BLACK
6
CONTINUOUS
10
3.43718
20
-2.43386
11
3.43718
21
-2.43386
0
LINE
8
BLACK
6
CONTINUOUS
10
3.43718
20
-2.43386
11
3.43799
21
-2.44003
0
LINE
8
BLACK
6
CONTINUOUS
10
3.43799
20
-2.44003
11
3.43799
21
-2.44003
0
LINE
8
BLACK
6
CONTINUOUS
10
3.43799
20
-2.44003
11
3.44037
21
-2.44578
0
LINE
8
BLACK
6
CONTINUOUS
10
3.44037
20
-2.44578
11
3.44037
21
-2.44578
0
LINE
8
BLACK
6
CONTINUOUS
10
3.44037
20
-2.44578
11
3.44037
21
-2.44578
0
LINE
8
BLACK
6
CONTINUOUS
10
3.44037
20
-2.44578
11
3.44416
21
-2.45072
0
LINE
8
BLACK
6
CONTINUOUS
10
3.44416
20
-2.45072
11
3.4491
21
-2.45451
0
LINE
8
BLACK
6
CONTINUOUS
10
3.4491
20
-2.45451
11
3.4491
21
-2.45451
0
LINE
8
BLACK
6
CONTINUOUS
10
3.4491
20
-2.45451
11
3.4491
21
-2.45451
0
LINE
8
BLACK
6
CONTINUOUS
10
3.4491
20
-2.45451
11
3.45108
21
-2.45533
0
LINE
8
BLACK
6
CONTINUOUS
10
3.45108
20
-2.45533
11
3.45485
21
-2.45689
0
LINE
8
BLACK
6
CONTINUOUS
10
3.45485
20
-2.45689
11
3.45948
21
-2.4575
0
LINE
8
BLACK
6
CONTINUOUS
10
3.45948
20
-2.4575
11
3.46102
21
-2.4577
0
LINE
8
BLACK
6
CONTINUOUS
10
3.46102
20
-2.4577
11
3.46102
21
-2.4577
0
LINE
8
BLACK
6
CONTINUOUS
10
3.46102
20
-2.4577
11
3.46102
21
-2.4577
0
LINE
8
BLACK
6
CONTINUOUS
10
3.46102
20
-2.4577
11
3.46226
21
-2.45754
0
LINE
8
BLACK
6
CONTINUOUS
10
3.46226
20
-2.45754
11
3.4672
21
-2.45689
0
LINE
8
BLACK
6
CONTINUOUS
10
3.4672
20
-2.45689
11
3.47097
21
-2.45533
0
LINE
8
BLACK
6
CONTINUOUS
10
3.47097
20
-2.45533
11
3.47337
21
-2.45514
0
LINE
8
BLACK
6
CONTINUOUS
10
3.47337
20
-2.45514
11
3.47542
21
-2.4564
0
LINE
8
BLACK
6
CONTINUOUS
10
3.47542
20
-2.4564
11
3.47635
21
-2.45862
0
LINE
8
BLACK
6
CONTINUOUS
10
3.47635
20
-2.45862
11
3.47636
21
-2.45893
0
LINE
8
BLACK
6
CONTINUOUS
10
3.47636
20
-2.45893
11
3.47636
21
-2.48329
0
LINE
8
BLACK
6
CONTINUOUS
10
3.47636
20
-2.48329
11
3.47561
21
-2.48558
0
LINE
8
BLACK
6
CONTINUOUS
10
3.47561
20
-2.48558
11
3.47367
21
-2.48699
0
LINE
8
BLACK
6
CONTINUOUS
10
3.47367
20
-2.48699
11
3.47246
21
-2.48719
0
LINE
8
BLACK
6
CONTINUOUS
10
3.47246
20
-2.48719
11
3.43565
21
-2.48719
0
LINE
8
BLACK
6
CONTINUOUS
10
3.43565
20
-2.48719
11
3.43336
21
-2.48644
0
LINE
8
BLACK
6
CONTINUOUS
10
3.43336
20
-2.48644
11
3.43328
21
-2.48638
0
LINE
8
BLACK
6
CONTINUOUS
10
3.43328
20
-2.48638
11
3.42925
21
-2.48329
0
LINE
8
BLACK
6
CONTINUOUS
10
3.42925
20
-2.48329
11
3.42349
21
-2.4809
0
LINE
8
BLACK
6
CONTINUOUS
10
3.42349
20
-2.4809
11
3.42349
21
-2.4809
0
LINE
8
BLACK
6
CONTINUOUS
10
3.42349
20
-2.4809
11
3.41732
21
-2.48009
0
LINE
8
BLACK
6
CONTINUOUS
10
3.41732
20
-2.48009
11
3.41732
21
-2.48009
0
LINE
8
BLACK
6
CONTINUOUS
10
3.41732
20
-2.48009
11
3.41115
21
-2.4809
0
LINE
8
BLACK
6
CONTINUOUS
10
3.41115
20
-2.4809
11
3.41115
21
-2.4809
0
LINE
8
BLACK
6
CONTINUOUS
10
3.41115
20
-2.4809
11
3.4054
21
-2.48329
0
LINE
8
BLACK
6
CONTINUOUS
10
3.4054
20
-2.48329
11
3.4054
21
-2.48329
0
LINE
8
BLACK
6
CONTINUOUS
10
3.4054
20
-2.48329
11
3.40046
21
-2.48708
0
LINE
8
BLACK
6
CONTINUOUS
10
3.40046
20
-2.48708
11
3.40046
21
-2.48708
0
LINE
8
BLACK
6
CONTINUOUS
10
3.40046
20
-2.48708
11
3.39667
21
-2.49201
0
LINE
8
BLACK
6
CONTINUOUS
10
3.39667
20
-2.49201
11
3.39667
21
-2.49201
0
LINE
8
BLACK
6
CONTINUOUS
10
3.39667
20
-2.49201
11
3.39429
21
-2.49777
0
LINE
8
BLACK
6
CONTINUOUS
10
3.39429
20
-2.49777
11
3.39429
21
-2.49777
0
LINE
8
BLACK
6
CONTINUOUS
10
3.39429
20
-2.49777
11
3.39348
21
-2.50394
0
LINE
8
BLACK
6
CONTINUOUS
10
3.39348
20
-2.50394
11
3.39348
21
-2.50394
0
LINE
8
BLACK
6
CONTINUOUS
10
3.39348
20
-2.50394
11
3.39429
21
-2.51011
0
LINE
8
BLACK
6
CONTINUOUS
10
3.39429
20
-2.51011
11
3.39429
21
-2.51011
0
LINE
8
BLACK
6
CONTINUOUS
10
3.39429
20
-2.51011
11
3.39667
21
-2.51586
0
LINE
8
BLACK
6
CONTINUOUS
10
3.39667
20
-2.51586
11
3.39667
21
-2.51586
0
LINE
8
BLACK
6
CONTINUOUS
10
3.39667
20
-2.51586
11
3.39667
21
-2.51586
0
LINE
8
BLACK
6
CONTINUOUS
10
3.39667
20
-2.51586
11
3.40046
21
-2.5208
0
LINE
8
BLACK
6
CONTINUOUS
10
3.40046
20
-2.5208
11
3.40151
21
-2.5216
0
LINE
8
BLACK
6
CONTINUOUS
10
3.40151
20
-2.5216
11
3.40298
21
-2.52273
0
LINE
8
BLACK
6
CONTINUOUS
10
3.40298
20
-2.52273
11
3.40435
21
-2.52472
0
LINE
8
BLACK
6
CONTINUOUS
10
3.40435
20
-2.52472
11
3.40451
21
-2.52583
0
LINE
8
BLACK
6
CONTINUOUS
10
3.40451
20
-2.52583
11
3.40451
21
-2.54426
0
LINE
8
BLACK
6
CONTINUOUS
10
3.40451
20
-2.54426
11
3.40376
21
-2.54655
0
LINE
8
BLACK
6
CONTINUOUS
10
3.40376
20
-2.54655
11
3.40337
21
-2.54701
0
LINE
8
BLACK
6
CONTINUOUS
10
3.40337
20
-2.54701
11
3.34131
21
-2.60907
0
LINE
8
BLACK
6
CONTINUOUS
10
3.34131
20
-2.60907
11
3.33916
21
-2.61017
0
LINE
8
BLACK
6
CONTINUOUS
10
3.33916
20
-2.61017
11
3.33855
21
-2.61022
0
LINE
8
BLACK
6
CONTINUOUS
10
3.33855
20
-2.61022
11
3.24725
21
-2.61022
0
LINE
8
BLACK
6
CONTINUOUS
10
3.24725
20
-2.61022
11
3.24725
21
-2.61022
0
LINE
8
BLACK
6
CONTINUOUS
10
3.24725
20
-2.61022
11
3.24725
21
-2.61022
0
LINE
8
BLACK
6
CONTINUOUS
10
3.24725
20
-2.61022
11
3.24495
21
-2.61067
0
LINE
8
BLACK
6
CONTINUOUS
10
3.24495
20
-2.61067
11
3.24495
21
-2.61067
0
LINE
8
BLACK
6
CONTINUOUS
10
3.24495
20
-2.61067
11
3.24234
21
-2.61242
0
LINE
8
BLACK
6
CONTINUOUS
10
3.24234
20
-2.61242
11
3.24234
21
-2.61242
0
LINE
8
BLACK
6
CONTINUOUS
10
3.24234
20
-2.61242
11
3.2406
21
-2.61503
0
LINE
8
BLACK
6
CONTINUOUS
10
3.2406
20
-2.61503
11
3.2406
21
-2.61503
0
LINE
8
BLACK
6
CONTINUOUS
10
3.2406
20
-2.61503
11
3.24014
21
-2.61733
0
LINE
8
BLACK
6
CONTINUOUS
10
3.24014
20
-2.61733
11
3.24014
21
-2.61733
0
LINE
8
BLACK
6
CONTINUOUS
10
3.24014
20
-2.61733
11
3.24014
21
-2.65826
0
LINE
8
BLACK
6
CONTINUOUS
10
3.24014
20
-2.65826
11
3.24014
21
-2.65826
0
LINE
8
BLACK
6
CONTINUOUS
10
3.24014
20
-2.65826
11
3.2406
21
-2.66056
0
LINE
8
BLACK
6
CONTINUOUS
10
3.2406
20
-2.66056
11
3.2406
21
-2.66056
0
LINE
8
BLACK
6
CONTINUOUS
10
3.2406
20
-2.66056
11
3.24234
21
-2.66317
0
LINE
8
BLACK
6
CONTINUOUS
10
3.24234
20
-2.66317
11
3.24495
21
-2.66492
0
LINE
8
BLACK
6
CONTINUOUS
10
3.24495
20
-2.66492
11
3.2467
21
-2.66526
0
LINE
8
BLACK
6
CONTINUOUS
10
3.2467
20
-2.66526
11
3.24725
21
-2.66537
0
LINE
8
BLACK
6
CONTINUOUS
10
3.24725
20
-2.66537
11
3.24725
21
-2.66537
0
LINE
8
BLACK
6
CONTINUOUS
10
3.24725
20
-2.66537
11
3.24725
21
-2.66537
0
LINE
8
BLACK
6
CONTINUOUS
10
3.24725
20
-2.66537
11
3.24725
21
-2.66537
0
LINE
8
BLACK
6
CONTINUOUS
10
3.24725
20
-2.66537
11
3.35708
21
-2.66537
0
LINE
8
BLACK
6
CONTINUOUS
10
3.35708
20
-2.66537
11
3.35708
21
-2.66537
0
LINE
8
BLACK
6
CONTINUOUS
10
3.35708
20
-2.66537
11
3.35938
21
-2.66492
0
LINE
8
BLACK
6
CONTINUOUS
10
3.35938
20
-2.66492
11
3.36199
21
-2.66317
0
LINE
8
BLACK
6
CONTINUOUS
10
3.36199
20
-2.66317
11
3.36373
21
-2.66056
0
LINE
8
BLACK
6
CONTINUOUS
10
3.36373
20
-2.66056
11
3.36419
21
-2.65826
0
LINE
8
BLACK
6
CONTINUOUS
10
3.36419
20
-2.65826
11
3.36419
21
-2.62405
0
LINE
8
BLACK
6
CONTINUOUS
10
3.36419
20
-2.62405
11
3.36494
21
-2.62176
0
LINE
8
BLACK
6
CONTINUOUS
10
3.36494
20
-2.62176
11
3.36533
21
-2.62129
0
LINE
8
BLACK
6
CONTINUOUS
10
3.36533
20
-2.62129
11
3.42593
21
-2.5607
0
LINE
8
BLACK
6
CONTINUOUS
10
3.42593
20
-2.5607
11
3.42605
21
-2.56058
0
LINE
8
BLACK
6
CONTINUOUS
10
3.42605
20
-2.56058
11
3.42729
21
-2.55955
0
LINE
8
BLACK
6
CONTINUOUS
10
3.42729
20
-2.55955
11
3.4281
21
-2.55815
0
LINE
8
BLACK
6
CONTINUOUS
10
3.4281
20
-2.55815
11
3.42819
21
-2.558
0
LINE
8
BLACK
6
CONTINUOUS
10
3.42819
20
-2.558
11
3.42912
21
-2.55668
0
LINE
8
BLACK
6
CONTINUOUS
10
3.42912
20
-2.55668
11
3.42913
21
-2.55662
0
LINE
8
BLACK
6
CONTINUOUS
10
3.42913
20
-2.55662
11
3.42952
21
-2.55568
0
LINE
8
BLACK
6
CONTINUOUS
10
3.42952
20
-2.55568
11
3.42955
21
-2.55563
0
LINE
8
BLACK
6
CONTINUOUS
10
3.42955
20
-2.55563
11
3.42983
21
-2.55404
0
LINE
8
BLACK
6
CONTINUOUS
10
3.42983
20
-2.55404
11
3.42987
21
-2.55388
0
LINE
8
BLACK
6
CONTINUOUS
10
3.42987
20
-2.55388
11
3.43029
21
-2.55232
0
LINE
8
BLACK
6
CONTINUOUS
10
3.43029
20
-2.55232
11
3.43015
21
-2.55071
0
LINE
8
BLACK
6
CONTINUOUS
10
3.43015
20
-2.55071
11
3.43014
21
-2.55054
0
LINE
8
BLACK
6
CONTINUOUS
10
3.43014
20
-2.55054
11
3.43014
21
-2.52583
0
LINE
8
BLACK
6
CONTINUOUS
10
3.43014
20
-2.52583
11
3.43088
21
-2.52353
0
LINE
8
BLACK
6
CONTINUOUS
10
3.43088
20
-2.52353
11
3.43166
21
-2.52273
0
LINE
8
BLACK
6
CONTINUOUS
10
3.43166
20
-2.52273
11
3.43418
21
-2.5208
0
LINE
8
BLACK
6
CONTINUOUS
10
3.43418
20
-2.5208
11
3.43797
21
-2.51586
0
LINE
8
BLACK
6
CONTINUOUS
10
3.43797
20
-2.51586
11
3.43824
21
-2.51522
0
LINE
8
BLACK
6
CONTINUOUS
10
3.43824
20
-2.51522
11
3.4398
21
-2.51339
0
LINE
8
BLACK
6
CONTINUOUS
10
3.4398
20
-2.51339
11
3.44184
21
-2.51281
0
LINE
8
BLACK
6
CONTINUOUS
10
3.44184
20
-2.51281
11
3.47246
21
-2.51281
0
LINE
8
BLACK
6
CONTINUOUS
10
3.47246
20
-2.51281
11
3.47475
21
-2.51356
0
LINE
8
BLACK
6
CONTINUOUS
10
3.47475
20
-2.51356
11
3.47617
21
-2.51551
0
LINE
8
BLACK
6
CONTINUOUS
10
3.47617
20
-2.51551
11
3.47636
21
-2.51671
0
LINE
8
BLACK
6
CONTINUOUS
10
3.47636
20
-2.51671
11
3.47636
21
-2.54015
0
LINE
8
BLACK
6
CONTINUOUS
10
3.47636
20
-2.54015
11
3.47636
21
-2.54015
0
LINE
8
BLACK
6
CONTINUOUS
10
3.47636
20
-2.54015
11
3.47682
21
-2.54245
0
LINE
8
BLACK
6
CONTINUOUS
10
3.47682
20
-2.54245
11
3.47682
21
-2.54245
0
LINE
8
BLACK
6
CONTINUOUS
10
3.47682
20
-2.54245
11
3.47856
21
-2.54506
0
LINE
8
BLACK
6
CONTINUOUS
10
3.47856
20
-2.54506
11
3.47856
21
-2.54506
0
LINE
8
BLACK
6
CONTINUOUS
10
3.47856
20
-2.54506
11
3.47856
21
-2.54506
0
LINE
8
BLACK
6
CONTINUOUS
10
3.47856
20
-2.54506
11
3.48106
21
-2.54673
0
LINE
8
BLACK
6
CONTINUOUS
10
3.48106
20
-2.54673
11
3.48117
21
-2.54681
0
LINE
8
BLACK
6
CONTINUOUS
10
3.48117
20
-2.54681
11
3.48292
21
-2.54715
0
LINE
8
BLACK
6
CONTINUOUS
10
3.48292
20
-2.54715
11
3.48347
21
-2.54726
0
LINE
8
BLACK
6
CONTINUOUS
10
3.48347
20
-2.54726
11
3.48347
21
-2.54726
0
LINE
8
BLACK
6
CONTINUOUS
10
3.48347
20
-2.54726
11
3.48347
21
-2.54726
0
LINE
8
BLACK
6
CONTINUOUS
10
3.48347
20
-2.54726
11
3.48347
21
-2.54726
0
LINE
8
BLACK
6
CONTINUOUS
10
3.48347
20
-2.54726
11
3.5244
21
-2.54726
0
LINE
8
BLACK
6
CONTINUOUS
10
3.5244
20
-2.54726
11
3.5244
21
-2.54726
0
LINE
8
BLACK
6
CONTINUOUS
10
3.5244
20
-2.54726
11
3.5267
21
-2.54681
0
LINE
8
BLACK
6
CONTINUOUS
10
3.5267
20
-2.54681
11
3.5267
21
-2.54681
0
LINE
8
BLACK
6
CONTINUOUS
10
3.5267
20
-2.54681
11
3.52708
21
-2.54673
0
LINE
8
BLACK
6
CONTINUOUS
10
3.52708
20
-2.54673
11
3.5271
21
-2.54686
0
LINE
8
BLACK
6
CONTINUOUS
10
3.5271
20
-2.54686
11
3.52886
21
-2.54672
0
LINE
8
BLACK
6
CONTINUOUS
10
3.52886
20
-2.54672
11
3.53091
21
-2.54798
0
LINE
8
BLACK
6
CONTINUOUS
10
3.53091
20
-2.54798
11
3.53183
21
-2.5502
0
LINE
8
BLACK
6
CONTINUOUS
10
3.53183
20
-2.5502
11
3.53181
21
-2.55102
0
LINE
8
BLACK
6
CONTINUOUS
10
3.53181
20
-2.55102
11
3.53127
21
-2.55512
0
LINE
8
BLACK
6
CONTINUOUS
10
3.53127
20
-2.55512
11
3.53127
21
-2.55512
0
LINE
8
BLACK
6
CONTINUOUS
10
3.53127
20
-2.55512
11
3.53208
21
-2.56129
0
LINE
8
BLACK
6
CONTINUOUS
10
3.53208
20
-2.56129
11
3.53208
21
-2.56129
0
LINE
8
BLACK
6
CONTINUOUS
10
3.53208
20
-2.56129
11
3.53447
21
-2.56704
0
LINE
8
BLACK
6
CONTINUOUS
10
3.53447
20
-2.56704
11
3.53447
21
-2.56704
0
LINE
8
BLACK
6
CONTINUOUS
10
3.53447
20
-2.56704
11
3.53826
21
-2.57198
0
LINE
8
BLACK
6
CONTINUOUS
10
3.53826
20
-2.57198
11
3.53826
21
-2.57198
0
LINE
8
BLACK
6
CONTINUOUS
10
3.53826
20
-2.57198
11
3.5432
21
-2.57577
0
LINE
8
BLACK
6
CONTINUOUS
10
3.5432
20
-2.57577
11
3.5432
21
-2.57577
0
LINE
8
BLACK
6
CONTINUOUS
10
3.5432
20
-2.57577
11
3.5432
21
-2.57577
0
LINE
8
BLACK
6
CONTINUOUS
10
3.5432
20
-2.57577
11
3.54716
21
-2.57741
0
LINE
8
BLACK
6
CONTINUOUS
10
3.54716
20
-2.57741
11
3.54895
21
-2.57815
0
LINE
8
BLACK
6
CONTINUOUS
10
3.54895
20
-2.57815
11
3.55358
21
-2.57876
0
LINE
8
BLACK
6
CONTINUOUS
10
3.55358
20
-2.57876
11
3.55512
21
-2.57896
0
LINE
8
BLACK
6
CONTINUOUS
10
3.55512
20
-2.57896
11
3.55512
21
-2.57896
0
LINE
8
BLACK
6
CONTINUOUS
10
3.55512
20
-2.57896
11
3.55512
21
-2.57896
0
LINE
8
BLACK
6
CONTINUOUS
10
3.55512
20
-2.57896
11
3.55635
21
-2.5788
0
LINE
8
BLACK
6
CONTINUOUS
10
3.55635
20
-2.5788
11
3.56129
21
-2.57815
0
LINE
8
BLACK
6
CONTINUOUS
10
3.56129
20
-2.57815
11
3.56704
21
-2.57577
0
LINE
8
BLACK
6
CONTINUOUS
10
3.56704
20
-2.57577
11
3.56849
21
-2.57465
0
LINE
8
BLACK
6
CONTINUOUS
10
3.56849
20
-2.57465
11
3.57076
21
-2.57385
0
LINE
8
BLACK
6
CONTINUOUS
10
3.57076
20
-2.57385
11
3.57307
21
-2.57453
0
LINE
8
BLACK
6
CONTINUOUS
10
3.57307
20
-2.57453
11
3.57324
21
-2.57465
0
LINE
8
BLACK
6
CONTINUOUS
10
3.57324
20
-2.57465
11
3.57469
21
-2.57577
0
LINE
8
BLACK
6
CONTINUOUS
10
3.57469
20
-2.57577
11
3.57469
21
-2.57577
0
LINE
8
BLACK
6
CONTINUOUS
10
3.57469
20
-2.57577
11
3.57469
21
-2.57577
0
LINE
8
BLACK
6
CONTINUOUS
10
3.57469
20
-2.57577
11
3.57866
21
-2.57741
0
LINE
8
BLACK
6
CONTINUOUS
10
3.57866
20
-2.57741
11
3.58044
21
-2.57815
0
LINE
8
BLACK
6
CONTINUOUS
10
3.58044
20
-2.57815
11
3.58507
21
-2.57876
0
LINE
8
BLACK
6
CONTINUOUS
10
3.58507
20
-2.57876
11
3.58661
21
-2.57896
0
LINE
8
BLACK
6
CONTINUOUS
10
3.58661
20
-2.57896
11
3.58661
21
-2.57896
0
LINE
8
BLACK
6
CONTINUOUS
10
3.58661
20
-2.57896
11
3.58661
21
-2.57896
0
LINE
8
BLACK
6
CONTINUOUS
10
3.58661
20
-2.57896
11
3.58785
21
-2.5788
0
LINE
8
BLACK
6
CONTINUOUS
10
3.58785
20
-2.5788
11
3.59279
21
-2.57815
0
LINE
8
BLACK
6
CONTINUOUS
10
3.59279
20
-2.57815
11
3.59715
21
-2.57634
0
LINE
8
BLACK
6
CONTINUOUS
10
3.59715
20
-2.57634
11
3.59955
21
-2.57615
0
LINE
8
BLACK
6
CONTINUOUS
10
3.59955
20
-2.57615
11
3.60161
21
-2.57741
0
LINE
8
BLACK
6
CONTINUOUS
10
3.60161
20
-2.57741
11
3.60253
21
-2.57964
0
LINE
8
BLACK
6
CONTINUOUS
10
3.60253
20
-2.57964
11
3.60254
21
-2.57994
0
LINE
8
BLACK
6
CONTINUOUS
10
3.60254
20
-2.57994
11
3.60254
21
-2.5982
0
LINE
8
BLACK
6
CONTINUOUS
10
3.60254
20
-2.5982
11
3.6018
21
-2.60049
0
LINE
8
BLACK
6
CONTINUOUS
10
3.6018
20
-2.60049
11
3.6014
21
-2.60095
0
LINE
8
BLACK
6
CONTINUOUS
10
3.6014
20
-2.60095
11
3.59327
21
-2.60907
0
LINE
8
BLACK
6
CONTINUOUS
10
3.59327
20
-2.60907
11
3.59113
21
-2.61017
0
LINE
8
BLACK
6
CONTINUOUS
10
3.59113
20
-2.61017
11
3.59052
21
-2.61022
0
LINE
8
BLACK
6
CONTINUOUS
10
3.59052
20
-2.61022
11
3.49332
21
-2.61022
0
LINE
8
BLACK
6
CONTINUOUS
10
3.49332
20
-2.61022
11
3.49332
21
-2.61022
0
LINE
8
BLACK
6
CONTINUOUS
10
3.49332
20
-2.61022
11
3.49332
21
-2.61022
0
LINE
8
BLACK
6
CONTINUOUS
10
3.49332
20
-2.61022
11
3.49101
21
-2.61067
0
LINE
8
BLACK
6
CONTINUOUS
10
3.49101
20
-2.61067
11
3.49101
21
-2.61067
0
LINE
8
BLACK
6
CONTINUOUS
10
3.49101
20
-2.61067
11
3.4884
21
-2.61242
0
LINE
8
BLACK
6
CONTINUOUS
10
3.4884
20
-2.61242
11
3.4884
21
-2.61242
0
LINE
8
BLACK
6
CONTINUOUS
10
3.4884
20
-2.61242
11
3.48666
21
-2.61503
0
LINE
8
BLACK
6
CONTINUOUS
10
3.48666
20
-2.61503
11
3.48666
21
-2.61503
0
LINE
8
BLACK
6
CONTINUOUS
10
3.48666
20
-2.61503
11
3.4862
21
-2.61733
0
LINE
8
BLACK
6
CONTINUOUS
10
3.4862
20
-2.61733
11
3.4862
21
-2.61733
0
LINE
8
BLACK
6
CONTINUOUS
10
3.4862
20
-2.61733
11
3.4862
21
-2.65826
0
LINE
8
BLACK
6
CONTINUOUS
10
3.4862
20
-2.65826
11
3.4862
21
-2.65826
0
LINE
8
BLACK
6
CONTINUOUS
10
3.4862
20
-2.65826
11
3.48666
21
-2.66056
0
LINE
8
BLACK
6
CONTINUOUS
10
3.48666
20
-2.66056
11
3.48666
21
-2.66056
0
LINE
8
BLACK
6
CONTINUOUS
10
3.48666
20
-2.66056
11
3.4884
21
-2.66317
0
LINE
8
BLACK
6
CONTINUOUS
10
3.4884
20
-2.66317
11
3.49101
21
-2.66492
0
LINE
8
BLACK
6
CONTINUOUS
10
3.49101
20
-2.66492
11
3.49276
21
-2.66526
0
LINE
8
BLACK
6
CONTINUOUS
10
3.49276
20
-2.66526
11
3.49332
21
-2.66537
0
LINE
8
BLACK
6
CONTINUOUS
10
3.49332
20
-2.66537
11
3.49332
21
-2.66537
0
LINE
8
BLACK
6
CONTINUOUS
10
3.49332
20
-2.66537
11
3.49332
21
-2.66537
0
LINE
8
BLACK
6
CONTINUOUS
10
3.49332
20
-2.66537
11
3.49332
21
-2.66537
0
LINE
8
BLACK
6
CONTINUOUS
10
3.49332
20
-2.66537
11
3.60314
21
-2.66537
0
LINE
8
BLACK
6
CONTINUOUS
10
3.60314
20
-2.66537
11
3.60314
21
-2.66537
0
LINE
8
BLACK
6
CONTINUOUS
10
3.60314
20
-2.66537
11
3.60544
21
-2.66492
0
LINE
8
BLACK
6
CONTINUOUS
10
3.60544
20
-2.66492
11
3.60805
21
-2.66317
0
LINE
8
BLACK
6
CONTINUOUS
10
3.60805
20
-2.66317
11
3.6098
21
-2.66056
0
LINE
8
BLACK
6
CONTINUOUS
10
3.6098
20
-2.66056
11
3.61026
21
-2.65826
0
LINE
8
BLACK
6
CONTINUOUS
10
3.61026
20
-2.65826
11
3.61026
21
-2.62995
0
LINE
8
BLACK
6
CONTINUOUS
10
3.61026
20
-2.62995
11
3.611
21
-2.62766
0
LINE
8
BLACK
6
CONTINUOUS
10
3.611
20
-2.62766
11
3.6114
21
-2.6272
0
LINE
8
BLACK
6
CONTINUOUS
10
3.6114
20
-2.6272
11
3.61537
21
-2.62322
0
LINE
8
BLACK
6
CONTINUOUS
10
3.61537
20
-2.62322
11
3.61752
21
-2.62213
0
LINE
8
BLACK
6
CONTINUOUS
10
3.61752
20
-2.62213
11
3.6199
21
-2.6225
0
LINE
8
BLACK
6
CONTINUOUS
10
3.6199
20
-2.6225
11
3.6216
21
-2.62421
0
LINE
8
BLACK
6
CONTINUOUS
10
3.6216
20
-2.62421
11
3.62203
21
-2.62598
0
LINE
8
BLACK
6
CONTINUOUS
10
3.62203
20
-2.62598
11
3.62203
21
-2.79519
0
LINE
8
BLACK
6
CONTINUOUS
10
3.62203
20
-2.79519
11
3.62202
21
-2.79536
0
LINE
8
BLACK
6
CONTINUOUS
10
3.62202
20
-2.79536
11
3.62187
21
-2.79707
0
LINE
8
BLACK
6
CONTINUOUS
10
3.62187
20
-2.79707
11
3.62137
21
-2.80212
0
LINE
8
BLACK
6
CONTINUOUS
10
3.62137
20
-2.80212
11
3.62126
21
-2.80274
0
LINE
8
BLACK
6
CONTINUOUS
10
3.62126
20
-2.80274
11
3.62054
21
-2.80542
0
LINE
8
BLACK
6
CONTINUOUS
10
3.62054
20
-2.80542
11
3.62053
21
-2.80548
0
LINE
8
BLACK
6
CONTINUOUS
10
3.62053
20
-2.80548
11
3.6194
21
-2.80918
0
LINE
8
BLACK
6
CONTINUOUS
10
3.6194
20
-2.80918
11
3.6192
21
-2.8097
0
LINE
8
BLACK
6
CONTINUOUS
10
3.6192
20
-2.8097
11
3.61793
21
-2.81243
0
LINE
8
BLACK
6
CONTINUOUS
10
3.61793
20
-2.81243
11
3.61788
21
-2.81252
0
LINE
8
BLACK
6
CONTINUOUS
10
3.61788
20
-2.81252
11
3.6161
21
-2.81587
0
LINE
8
BLACK
6
CONTINUOUS
10
3.6161
20
-2.81587
11
3.61598
21
-2.81607
0
LINE
8
BLACK
6
CONTINUOUS
10
3.61598
20
-2.81607
11
3.61412
21
-2.81871
0
LINE
8
BLACK
6
CONTINUOUS
10
3.61412
20
-2.81871
11
3.61403
21
-2.81883
0
LINE
8
BLACK
6
CONTINUOUS
10
3.61403
20
-2.81883
11
3.61167
21
-2.8217
0
LINE
8
BLACK
6
CONTINUOUS
10
3.61167
20
-2.8217
11
3.61155
21
-2.82185
0
LINE
8
BLACK
6
CONTINUOUS
10
3.61155
20
-2.82185
11
3.60925
21
-2.82414
0
LINE
8
BLACK
6
CONTINUOUS
10
3.60925
20
-2.82414
11
3.60911
21
-2.82427
0
LINE
8
BLACK
6
CONTINUOUS
10
3.60911
20
-2.82427
11
3.60623
21
-2.82663
0
LINE
8
BLACK
6
CONTINUOUS
10
3.60623
20
-2.82663
11
3.60611
21
-2.82672
0
LINE
8
BLACK
6
CONTINUOUS
10
3.60611
20
-2.82672
11
3.60347
21
-2.82857
0
LINE
8
BLACK
6
CONTINUOUS
10
3.60347
20
-2.82857
11
3.60327
21
-2.8287
0
LINE
8
BLACK
6
CONTINUOUS
10
3.60327
20
-2.8287
11
3.59993
21
-2.83048
0
LINE
8
BLACK
6
CONTINUOUS
10
3.59993
20
-2.83048
11
3.59983
21
-2.83053
0
LINE
8
BLACK
6
CONTINUOUS
10
3.59983
20
-2.83053
11
3.5971
21
-2.8318
0
LINE
8
BLACK
6
CONTINUOUS
10
3.5971
20
-2.8318
11
3.59658
21
-2.832
0
LINE
8
BLACK
6
CONTINUOUS
10
3.59658
20
-2.832
11
3.59288
21
-2.83312
0
LINE
8
BLACK
6
CONTINUOUS
10
3.59288
20
-2.83312
11
3.59282
21
-2.83314
0
LINE
8
BLACK
6
CONTINUOUS
10
3.59282
20
-2.83314
11
3.59015
21
-2.83386
0
LINE
8
BLACK
6
CONTINUOUS
10
3.59015
20
-2.83386
11
3.58952
21
-2.83397
0
LINE
8
BLACK
6
CONTINUOUS
10
3.58952
20
-2.83397
11
3.58447
21
-2.83447
0
LINE
8
BLACK
6
CONTINUOUS
10
3.58447
20
-2.83447
11
3.58276
21
-2.83462
0
LINE
8
BLACK
6
CONTINUOUS
10
3.58276
20
-2.83462
11
3.58259
21
-2.83463
0
LINE
8
BLACK
6
CONTINUOUS
10
3.58259
20
-2.83463
11
2.71662
21
-2.83463
0
LINE
8
BLACK
6
CONTINUOUS
10
2.71662
20
-2.83463
11
2.71645
21
-2.83462
0
LINE
8
BLACK
6
CONTINUOUS
10
2.71645
20
-2.83462
11
2.71475
21
-2.83447
0
LINE
8
BLACK
6
CONTINUOUS
10
2.71475
20
-2.83447
11
2.70969
21
-2.83397
0
LINE
8
BLACK
6
CONTINUOUS
10
2.70969
20
-2.83397
11
2.70907
21
-2.83386
0
LINE
8
BLACK
6
CONTINUOUS
10
2.70907
20
-2.83386
11
2.70761
21
-2.83347
0
LINE
8
BLACK
6
CONTINUOUS
10
2.70761
20
-2.83347
11
2.7064
21
-2.83314
0
LINE
8
BLACK
6
CONTINUOUS
10
2.7064
20
-2.83314
11
2.70633
21
-2.83312
0
LINE
8
BLACK
6
CONTINUOUS
10
2.70633
20
-2.83312
11
2.70263
21
-2.832
0
LINE
8
BLACK
6
CONTINUOUS
10
2.70263
20
-2.832
11
2.70211
21
-2.8318
0
LINE
8
BLACK
6
CONTINUOUS
10
2.70211
20
-2.8318
11
2.69938
21
-2.83053
0
LINE
8
BLACK
6
CONTINUOUS
10
2.69938
20
-2.83053
11
2.69929
21
-2.83048
0
LINE
8
BLACK
6
CONTINUOUS
10
2.69929
20
-2.83048
11
2.69595
21
-2.8287
0
LINE
8
BLACK
6
CONTINUOUS
10
2.69595
20
-2.8287
11
2.69575
21
-2.82857
0
LINE
8
BLACK
6
CONTINUOUS
10
2.69575
20
-2.82857
11
2.6931
21
-2.82672
0
LINE
8
BLACK
6
CONTINUOUS
10
2.6931
20
-2.82672
11
2.69298
21
-2.82663
0
LINE
8
BLACK
6
CONTINUOUS
10
2.69298
20
-2.82663
11
2.69011
21
-2.82427
0
LINE
8
BLACK
6
CONTINUOUS
10
2.69011
20
-2.82427
11
2.68997
21
-2.82414
0
LINE
8
BLACK
6
CONTINUOUS
10
2.68997
20
-2.82414
11
2.68767
21
-2.82185
0
LINE
8
BLACK
6
CONTINUOUS
10
2.68767
20
-2.82185
11
2.68754
21
-2.8217
0
LINE
8
BLACK
6
CONTINUOUS
10
2.68754
20
-2.8217
11
2.68518
21
-2.81883
0
LINE
8
BLACK
6
CONTINUOUS
10
2.68518
20
-2.81883
11
2.68509
21
-2.81871
0
LINE
8
BLACK
6
CONTINUOUS
10
2.68509
20
-2.81871
11
2.68324
21
-2.81607
0
LINE
8
BLACK
6
CONTINUOUS
10
2.68324
20
-2.81607
11
2.68311
21
-2.81587
0
LINE
8
BLACK
6
CONTINUOUS
10
2.68311
20
-2.81587
11
2.68133
21
-2.81252
0
LINE
8
BLACK
6
CONTINUOUS
10
2.68133
20
-2.81252
11
2.68128
21
-2.81243
0
LINE
8
BLACK
6
CONTINUOUS
10
2.68128
20
-2.81243
11
2.68001
21
-2.8097
0
LINE
8
BLACK
6
CONTINUOUS
10
2.68001
20
-2.8097
11
2.67981
21
-2.80918
0
LINE
8
BLACK
6
CONTINUOUS
10
2.67981
20
-2.80918
11
2.67869
21
-2.80547
0
LINE
8
BLACK
6
CONTINUOUS
10
2.67869
20
-2.80547
11
2.67867
21
-2.80542
0
LINE
8
BLACK
6
CONTINUOUS
10
2.67867
20
-2.80542
11
2.67795
21
-2.80274
0
LINE
8
BLACK
6
CONTINUOUS
10
2.67795
20
-2.80274
11
2.67784
21
-2.80212
0
LINE
8
BLACK
6
CONTINUOUS
10
2.67784
20
-2.80212
11
2.67734
21
-2.79706
0
LINE
8
BLACK
6
CONTINUOUS
10
2.67734
20
-2.79706
11
2.67732
21
-2.79679
0
LINE
8
BLACK
6
CONTINUOUS
10
2.67732
20
-2.79679
11
2.67719
21
-2.79536
0
LINE
8
BLACK
6
CONTINUOUS
10
2.67719
20
-2.79536
11
2.67719
21
-2.79519
0
LINE
8
BLACK
6
CONTINUOUS
10
2.67719
20
-2.79519
11
2.67719
21
-2.75591
0
LINE
8
BLACK
6
CONTINUOUS
10
2.67719
20
-2.75591
11
2.67719
21
-2.3622
0
LINE
8
BLACK
6
CONTINUOUS
10
2.67719
20
-2.3622
11
2.67719
21
-1.9685
0
LINE
8
BLACK
6
CONTINUOUS
10
2.67719
20
-1.9685
11
2.67719
21
-1.92922
0
LINE
8
BLACK
6
CONTINUOUS
10
2.67719
20
-1.92922
11
2.67719
21
-1.92905
0
LINE
8
BLACK
6
CONTINUOUS
10
2.67719
20
-1.92905
11
2.67734
21
-1.92734
0
LINE
8
BLACK
6
CONTINUOUS
10
2.67734
20
-1.92734
11
2.67784
21
-1.92229
0
LINE
8
BLACK
6
CONTINUOUS
10
2.67784
20
-1.92229
11
2.67795
21
-1.92167
0
LINE
8
BLACK
6
CONTINUOUS
10
2.67795
20
-1.92167
11
2.67867
21
-1.91899
0
LINE
8
BLACK
6
CONTINUOUS
10
2.67867
20
-1.91899
11
2.67869
21
-1.91894
0
LINE
8
BLACK
6
CONTINUOUS
10
2.67869
20
-1.91894
11
2.67981
21
-1.91523
0
LINE
8
BLACK
6
CONTINUOUS
10
2.67981
20
-1.91523
11
2.68001
21
-1.91471
0
LINE
8
BLACK
6
CONTINUOUS
10
2.68001
20
-1.91471
11
2.68107
21
-1.91242
0
LINE
8
BLACK
6
CONTINUOUS
10
2.68107
20
-1.91242
11
2.68128
21
-1.91198
0
LINE
8
BLACK
6
CONTINUOUS
10
2.68128
20
-1.91198
11
2.68133
21
-1.91189
0
LINE
8
BLACK
6
CONTINUOUS
10
2.68133
20
-1.91189
11
2.68312
21
-1.90854
0
LINE
8
BLACK
6
CONTINUOUS
10
2.68312
20
-1.90854
11
2.68324
21
-1.90835
0
LINE
8
BLACK
6
CONTINUOUS
10
2.68324
20
-1.90835
11
2.68509
21
-1.9057
0
LINE
8
BLACK
6
CONTINUOUS
10
2.68509
20
-1.9057
11
2.68518
21
-1.90558
0
LINE
8
BLACK
6
CONTINUOUS
10
2.68518
20
-1.90558
11
2.68754
21
-1.9027
0
LINE
8
BLACK
6
CONTINUOUS
10
2.68754
20
-1.9027
11
2.68767
21
-1.90256
0
LINE
8
BLACK
6
CONTINUOUS
10
2.68767
20
-1.90256
11
2.68997
21
-1.90027
0
LINE
8
BLACK
6
CONTINUOUS
10
2.68997
20
-1.90027
11
2.69011
21
-1.90014
0
LINE
8
BLACK
6
CONTINUOUS
10
2.69011
20
-1.90014
11
2.69298
21
-1.89778
0
LINE
8
BLACK
6
CONTINUOUS
10
2.69298
20
-1.89778
11
2.6931
21
-1.89769
0
LINE
8
BLACK
6
CONTINUOUS
10
2.6931
20
-1.89769
11
2.69575
21
-1.89584
0
LINE
8
BLACK
6
CONTINUOUS
10
2.69575
20
-1.89584
11
2.69594
21
-1.89571
0
LINE
8
BLACK
6
CONTINUOUS
10
2.69594
20
-1.89571
11
2.69929
21
-1.89393
0
LINE
8
BLACK
6
CONTINUOUS
10
2.69929
20
-1.89393
11
2.69938
21
-1.89388
0
LINE
8
BLACK
6
CONTINUOUS
10
2.69938
20
-1.89388
11
2.70211
21
-1.89261
0
LINE
8
BLACK
6
CONTINUOUS
10
2.70211
20
-1.89261
11
2.70263
21
-1.89241
0
LINE
8
BLACK
6
CONTINUOUS
10
2.70263
20
-1.89241
11
2.70634
21
-1.89128
0
LINE
8
BLACK
6
CONTINUOUS
10
2.70634
20
-1.89128
11
2.70639
21
-1.89127
0
LINE
8
BLACK
6
CONTINUOUS
10
2.70639
20
-1.89127
11
2.70907
21
-1.89055
0
LINE
8
BLACK
6
CONTINUOUS
10
2.70907
20
-1.89055
11
2.70969
21
-1.89044
0
LINE
8
BLACK
6
CONTINUOUS
10
2.70969
20
-1.89044
11
2.71474
21
-1.88994
0
LINE
8
BLACK
6
CONTINUOUS
10
2.71474
20
-1.88994
11
2.71645
21
-1.88979
0
LINE
8
BLACK
6
CONTINUOUS
10
2.71645
20
-1.88979
11
2.71662
21
-1.88978
0
LINE
8
BLACK
6
CONTINUOUS
10
2.71662
20
-1.88978
11
3.58259
21
-1.88978
0
LINE
8
BLACK
6
CONTINUOUS
10
3.58259
20
-1.88978
11
3.58276
21
-1.88979
0
LINE
8
BLACK
6
CONTINUOUS
10
3.37566
20
-2.70793
11
3.37554
21
-2.7078
0
LINE
8
BLACK
6
CONTINUOUS
10
3.37554
20
-2.7078
11
3.37451
21
-2.70657
0
LINE
8
BLACK
6
CONTINUOUS
10
3.37451
20
-2.70657
11
3.37361
21
-2.70605
0
LINE
8
BLACK
6
CONTINUOUS
10
3.37361
20
-2.70605
11
3.37311
21
-2.70576
0
LINE
8
BLACK
6
CONTINUOUS
10
3.37311
20
-2.70576
11
3.37296
21
-2.70567
0
LINE
8
BLACK
6
CONTINUOUS
10
3.37296
20
-2.70567
11
3.37164
21
-2.70474
0
LINE
8
BLACK
6
CONTINUOUS
10
3.37164
20
-2.70474
11
3.37164
21
-2.70474
0
LINE
8
BLACK
6
CONTINUOUS
10
3.37164
20
-2.70474
11
3.37158
21
-2.70473
0
LINE
8
BLACK
6
CONTINUOUS
10
3.37158
20
-2.70473
11
3.37064
21
-2.70434
0
LINE
8
BLACK
6
CONTINUOUS
10
3.37064
20
-2.70434
11
3.37059
21
-2.70431
0
LINE
8
BLACK
6
CONTINUOUS
10
3.37059
20
-2.70431
11
3.369
21
-2.70403
0
LINE
8
BLACK
6
CONTINUOUS
10
3.369
20
-2.70403
11
3.36884
21
-2.70399
0
LINE
8
BLACK
6
CONTINUOUS
10
3.36884
20
-2.70399
11
3.36728
21
-2.70357
0
LINE
8
BLACK
6
CONTINUOUS
10
3.36728
20
-2.70357
11
3.36708
21
-2.70352
0
LINE
8
BLACK
6
CONTINUOUS
10
3.36708
20
-2.70352
11
3.36506
21
-2.70221
0
LINE
8
BLACK
6
CONTINUOUS
10
3.36506
20
-2.70221
11
3.3642
21
-2.69996
0
LINE
8
BLACK
6
CONTINUOUS
10
3.3642
20
-2.69996
11
3.36419
21
-2.69976
0
LINE
8
BLACK
6
CONTINUOUS
10
3.36419
20
-2.69976
11
3.36419
21
-2.69607
0
LINE
8
BLACK
6
CONTINUOUS
10
3.36419
20
-2.69607
11
3.36419
21
-2.69607
0
LINE
8
BLACK
6
CONTINUOUS
10
3.36419
20
-2.69607
11
3.364
21
-2.69509
0
LINE
8
BLACK
6
CONTINUOUS
10
3.364
20
-2.69509
11
3.36373
21
-2.69377
0
LINE
8
BLACK
6
CONTINUOUS
10
3.36373
20
-2.69377
11
3.36199
21
-2.69116
0
LINE
8
BLACK
6
CONTINUOUS
10
3.36199
20
-2.69116
11
3.36199
21
-2.69116
0
LINE
8
BLACK
6
CONTINUOUS
10
3.36199
20
-2.69116
11
3.35938
21
-2.68941
0
LINE
8
BLACK
6
CONTINUOUS
10
3.35938
20
-2.68941
11
3.35938
21
-2.68941
0
LINE
8
BLACK
6
CONTINUOUS
10
3.35938
20
-2.68941
11
3.35938
21
-2.68941
0
LINE
8
BLACK
6
CONTINUOUS
10
3.35938
20
-2.68941
11
3.35938
21
-2.68941
0
LINE
8
BLACK
6
CONTINUOUS
10
3.35938
20
-2.68941
11
3.35708
21
-2.68896
0
LINE
8
BLACK
6
CONTINUOUS
10
3.35708
20
-2.68896
11
3.35708
21
-2.68896
0
LINE
8
BLACK
6
CONTINUOUS
10
3.35708
20
-2.68896
11
3.24725
21
-2.68896
0
LINE
8
BLACK
6
CONTINUOUS
10
3.24725
20
-2.68896
11
3.24725
21
-2.68896
0
LINE
8
BLACK
6
CONTINUOUS
10
3.24725
20
-2.68896
11
3.24725
21
-2.68896
0
LINE
8
BLACK
6
CONTINUOUS
10
3.24725
20
-2.68896
11
3.24495
21
-2.68941
0
LINE
8
BLACK
6
CONTINUOUS
10
3.24495
20
-2.68941
11
3.24495
21
-2.68941
0
LINE
8
BLACK
6
CONTINUOUS
10
3.24495
20
-2.68941
11
3.24234
21
-2.69116
0
LINE
8
BLACK
6
CONTINUOUS
10
3.24234
20
-2.69116
11
3.24234
21
-2.69116
0
LINE
8
BLACK
6
CONTINUOUS
10
3.24234
20
-2.69116
11
3.2406
21
-2.69377
0
LINE
8
BLACK
6
CONTINUOUS
10
3.2406
20
-2.69377
11
3.2406
21
-2.69377
0
LINE
8
BLACK
6
CONTINUOUS
10
3.2406
20
-2.69377
11
3.24014
21
-2.69607
0
LINE
8
BLACK
6
CONTINUOUS
10
3.24014
20
-2.69607
11
3.24014
21
-2.69607
0
LINE
8
BLACK
6
CONTINUOUS
10
3.24014
20
-2.69607
11
3.24014
21
-2.737
0
LINE
8
BLACK
6
CONTINUOUS
10
3.24014
20
-2.737
11
3.24014
21
-2.737
0
LINE
8
BLACK
6
CONTINUOUS
10
3.24014
20
-2.737
11
3.2406
21
-2.7393
0
LINE
8
BLACK
6
CONTINUOUS
10
3.2406
20
-2.7393
11
3.2406
21
-2.7393
0
LINE
8
BLACK
6
CONTINUOUS
10
3.2406
20
-2.7393
11
3.24234
21
-2.74191
0
LINE
8
BLACK
6
CONTINUOUS
10
3.24234
20
-2.74191
11
3.24399
21
-2.74301
0
LINE
8
BLACK
6
CONTINUOUS
10
3.24399
20
-2.74301
11
3.24405
21
-2.74306
0
LINE
8
BLACK
6
CONTINUOUS
10
3.24405
20
-2.74306
11
3.24554
21
-2.74495
0
LINE
8
BLACK
6
CONTINUOUS
10
3.24554
20
-2.74495
11
3.24564
21
-2.74735
0
LINE
8
BLACK
6
CONTINUOUS
10
3.24564
20
-2.74735
11
3.24549
21
-2.74779
0
LINE
8
BLACK
6
CONTINUOUS
10
3.24549
20
-2.74779
11
3.24468
21
-2.74973
0
LINE
8
BLACK
6
CONTINUOUS
10
3.24468
20
-2.74973
11
3.24387
21
-2.75591
0
LINE
8
BLACK
6
CONTINUOUS
10
3.24387
20
-2.75591
11
3.24387
21
-2.75591
0
LINE
8
BLACK
6
CONTINUOUS
10
3.24387
20
-2.75591
11
3.24468
21
-2.76208
0
LINE
8
BLACK
6
CONTINUOUS
10
3.24468
20
-2.76208
11
3.24468
21
-2.76208
0
LINE
8
BLACK
6
CONTINUOUS
10
3.24468
20
-2.76208
11
3.24707
21
-2.76783
0
LINE
8
BLACK
6
CONTINUOUS
10
3.24707
20
-2.76783
11
3.24707
21
-2.76783
0
LINE
8
BLACK
6
CONTINUOUS
10
3.24707
20
-2.76783
11
3.24707
21
-2.76783
0
LINE
8
BLACK
6
CONTINUOUS
10
3.24707
20
-2.76783
11
3.25086
21
-2.77277
0
LINE
8
BLACK
6
CONTINUOUS
10
3.25086
20
-2.77277
11
3.25579
21
-2.77656
0
LINE
8
BLACK
6
CONTINUOUS
10
3.25579
20
-2.77656
11
3.26154
21
-2.77894
0
LINE
8
BLACK
6
CONTINUOUS
10
3.26154
20
-2.77894
11
3.26617
21
-2.77955
0
LINE
8
BLACK
6
CONTINUOUS
10
3.26617
20
-2.77955
11
3.26772
21
-2.77975
0
LINE
8
BLACK
6
CONTINUOUS
10
3.26772
20
-2.77975
11
3.26772
21
-2.77975
0
LINE
8
BLACK
6
CONTINUOUS
10
3.26772
20
-2.77975
11
3.26772
21
-2.77975
0
LINE
8
BLACK
6
CONTINUOUS
10
3.26772
20
-2.77975
11
3.26895
21
-2.77959
0
LINE
8
BLACK
6
CONTINUOUS
10
3.26895
20
-2.77959
11
3.27389
21
-2.77894
0
LINE
8
BLACK
6
CONTINUOUS
10
3.27389
20
-2.77894
11
3.27964
21
-2.77656
0
LINE
8
BLACK
6
CONTINUOUS
10
3.27964
20
-2.77656
11
3.28458
21
-2.77277
0
LINE
8
BLACK
6
CONTINUOUS
10
3.28458
20
-2.77277
11
3.28458
21
-2.77277
0
LINE
8
BLACK
6
CONTINUOUS
10
3.28458
20
-2.77277
11
3.28465
21
-2.7727
0
LINE
8
BLACK
6
CONTINUOUS
10
3.28465
20
-2.7727
11
3.28471
21
-2.77267
0
LINE
8
BLACK
6
CONTINUOUS
10
3.28471
20
-2.77267
11
3.28478
21
-2.77261
0
LINE
8
BLACK
6
CONTINUOUS
10
3.28478
20
-2.77261
11
3.28479
21
-2.77263
0
LINE
8
BLACK
6
CONTINUOUS
10
3.28479
20
-2.77263
11
3.28679
21
-2.77161
0
LINE
8
BLACK
6
CONTINUOUS
10
3.28679
20
-2.77161
11
3.28917
21
-2.77198
0
LINE
8
BLACK
6
CONTINUOUS
10
3.28917
20
-2.77198
11
3.29016
21
-2.7727
0
LINE
8
BLACK
6
CONTINUOUS
10
3.29016
20
-2.7727
11
3.29022
21
-2.77277
0
LINE
8
BLACK
6
CONTINUOUS
10
3.29022
20
-2.77277
11
3.29023
21
-2.77277
0
LINE
8
BLACK
6
CONTINUOUS
10
3.29023
20
-2.77277
11
3.29516
21
-2.77656
0
LINE
8
BLACK
6
CONTINUOUS
10
3.29516
20
-2.77656
11
3.30091
21
-2.77894
0
LINE
8
BLACK
6
CONTINUOUS
10
3.30091
20
-2.77894
11
3.30554
21
-2.77955
0
LINE
8
BLACK
6
CONTINUOUS
10
3.30554
20
-2.77955
11
3.30709
21
-2.77975
0
LINE
8
BLACK
6
CONTINUOUS
10
3.30709
20
-2.77975
11
3.30709
21
-2.77975
0
LINE
8
BLACK
6
CONTINUOUS
10
3.30709
20
-2.77975
11
3.30709
21
-2.77975
0
LINE
8
BLACK
6
CONTINUOUS
10
3.30709
20
-2.77975
11
3.30832
21
-2.77959
0
LINE
8
BLACK
6
CONTINUOUS
10
3.30832
20
-2.77959
11
3.31326
21
-2.77894
0
LINE
8
BLACK
6
CONTINUOUS
10
3.31326
20
-2.77894
11
3.31901
21
-2.77656
0
LINE
8
BLACK
6
CONTINUOUS
10
3.31901
20
-2.77656
11
3.32395
21
-2.77277
0
LINE
8
BLACK
6
CONTINUOUS
10
3.32395
20
-2.77277
11
3.32395
21
-2.77277
0
LINE
8
BLACK
6
CONTINUOUS
10
3.32395
20
-2.77277
11
3.32402
21
-2.7727
0
LINE
8
BLACK
6
CONTINUOUS
10
3.32402
20
-2.7727
11
3.32408
21
-2.77267
0
LINE
8
BLACK
6
CONTINUOUS
10
3.32408
20
-2.77267
11
3.32415
21
-2.77261
0
LINE
8
BLACK
6
CONTINUOUS
10
3.32415
20
-2.77261
11
3.32416
21
-2.77263
0
LINE
8
BLACK
6
CONTINUOUS
10
3.32416
20
-2.77263
11
3.32616
21
-2.77161
0
LINE
8
BLACK
6
CONTINUOUS
10
3.32616
20
-2.77161
11
3.32854
21
-2.77198
0
LINE
8
BLACK
6
CONTINUOUS
10
3.32854
20
-2.77198
11
3.32953
21
-2.7727
0
LINE
8
BLACK
6
CONTINUOUS
10
3.32953
20
-2.7727
11
3.32959
21
-2.77277
0
LINE
8
BLACK
6
CONTINUOUS
10
3.32959
20
-2.77277
11
3.3296
21
-2.77277
0
LINE
8
BLACK
6
CONTINUOUS
10
3.3296
20
-2.77277
11
3.33453
21
-2.77656
0
LINE
8
BLACK
6
CONTINUOUS
10
3.33453
20
-2.77656
11
3.34028
21
-2.77894
0
LINE
8
BLACK
6
CONTINUOUS
10
3.34028
20
-2.77894
11
3.34491
21
-2.77955
0
LINE
8
BLACK
6
CONTINUOUS
10
3.34491
20
-2.77955
11
3.34646
21
-2.77975
0
LINE
8
BLACK
6
CONTINUOUS
10
3.34646
20
-2.77975
11
3.34646
21
-2.77975
0
LINE
8
BLACK
6
CONTINUOUS
10
3.34646
20
-2.77975
11
3.34646
21
-2.77975
0
LINE
8
BLACK
6
CONTINUOUS
10
3.34646
20
-2.77975
11
3.34769
21
-2.77959
0
LINE
8
BLACK
6
CONTINUOUS
10
3.34769
20
-2.77959
11
3.35263
21
-2.77894
0
LINE
8
BLACK
6
CONTINUOUS
10
3.35263
20
-2.77894
11
3.35838
21
-2.77656
0
LINE
8
BLACK
6
CONTINUOUS
10
3.35838
20
-2.77656
11
3.36332
21
-2.77277
0
LINE
8
BLACK
6
CONTINUOUS
10
3.36332
20
-2.77277
11
3.36711
21
-2.76783
0
LINE
8
BLACK
6
CONTINUOUS
10
3.36711
20
-2.76783
11
3.36949
21
-2.76208
0
LINE
8
BLACK
6
CONTINUOUS
10
3.36949
20
-2.76208
11
3.36971
21
-2.76044
0
LINE
8
BLACK
6
CONTINUOUS
10
3.36971
20
-2.76044
11
3.37074
21
-2.75827
0
LINE
8
BLACK
6
CONTINUOUS
10
3.37074
20
-2.75827
11
3.37286
21
-2.75712
0
LINE
8
BLACK
6
CONTINUOUS
10
3.37286
20
-2.75712
11
3.37506
21
-2.75735
0
LINE
8
BLACK
6
CONTINUOUS
10
3.37506
20
-2.75735
11
3.37966
21
-2.75925
0
LINE
8
BLACK
6
CONTINUOUS
10
3.37966
20
-2.75925
11
3.38428
21
-2.75986
0
LINE
8
BLACK
6
CONTINUOUS
10
3.38428
20
-2.75986
11
3.38583
21
-2.76007
0
LINE
8
BLACK
6
CONTINUOUS
10
3.38583
20
-2.76007
11
3.38583
21
-2.76007
0
LINE
8
BLACK
6
CONTINUOUS
10
3.38583
20
-2.76007
11
3.38583
21
-2.76007
0
LINE
8
BLACK
6
CONTINUOUS
10
3.38583
20
-2.76007
11
3.38706
21
-2.7599
0
LINE
8
BLACK
6
CONTINUOUS
10
3.38706
20
-2.7599
11
3.392
21
-2.75925
0
LINE
8
BLACK
6
CONTINUOUS
10
3.392
20
-2.75925
11
3.39775
21
-2.75687
0
LINE
8
BLACK
6
CONTINUOUS
10
3.39775
20
-2.75687
11
3.40269
21
-2.75308
0
LINE
8
BLACK
6
CONTINUOUS
10
3.40269
20
-2.75308
11
3.40648
21
-2.74814
0
LINE
8
BLACK
6
CONTINUOUS
10
3.40648
20
-2.74814
11
3.40886
21
-2.74239
0
LINE
8
BLACK
6
CONTINUOUS
10
3.40886
20
-2.74239
11
3.40944
21
-2.73798
0
LINE
8
BLACK
6
CONTINUOUS
10
3.40944
20
-2.73798
11
3.40967
21
-2.73622
0
LINE
8
BLACK
6
CONTINUOUS
10
3.40967
20
-2.73622
11
3.40886
21
-2.73005
0
LINE
8
BLACK
6
CONTINUOUS
10
3.40886
20
-2.73005
11
3.40648
21
-2.7243
0
LINE
8
BLACK
6
CONTINUOUS
10
3.40648
20
-2.7243
11
3.40648
21
-2.7243
0
LINE
8
BLACK
6
CONTINUOUS
10
3.40648
20
-2.7243
11
3.40269
21
-2.71936
0
LINE
8
BLACK
6
CONTINUOUS
10
3.40269
20
-2.71936
11
3.40269
21
-2.71936
0
LINE
8
BLACK
6
CONTINUOUS
10
3.40269
20
-2.71936
11
3.40269
21
-2.71936
0
LINE
8
BLACK
6
CONTINUOUS
10
3.40269
20
-2.71936
11
3.40269
21
-2.71936
0
LINE
8
BLACK
6
CONTINUOUS
10
3.40269
20
-2.71936
11
3.40269
21
-2.71936
0
LINE
8
BLACK
6
CONTINUOUS
10
3.40269
20
-2.71936
11
3.39775
21
-2.71557
0
LINE
8
BLACK
6
CONTINUOUS
10
3.39775
20
-2.71557
11
3.392
21
-2.71319
0
LINE
8
BLACK
6
CONTINUOUS
10
3.392
20
-2.71319
11
3.392
21
-2.71319
0
LINE
8
BLACK
6
CONTINUOUS
10
3.392
20
-2.71319
11
3.38583
21
-2.71237
0
LINE
8
BLACK
6
CONTINUOUS
10
3.38583
20
-2.71237
11
3.38583
21
-2.71237
0
LINE
8
BLACK
6
CONTINUOUS
10
3.38583
20
-2.71237
11
3.38268
21
-2.71279
0
LINE
8
BLACK
6
CONTINUOUS
10
3.38268
20
-2.71279
11
3.38031
21
-2.71235
0
LINE
8
BLACK
6
CONTINUOUS
10
3.38031
20
-2.71235
11
3.37941
21
-2.71168
0
LINE
8
BLACK
6
CONTINUOUS
10
3.37941
20
-2.71168
11
3.37836
21
-2.71063
0
LINE
8
BLACK
6
CONTINUOUS
10
3.37836
20
-2.71063
11
3.37566
21
-2.70793
0
LINE
8
BLACK
6
CONTINUOUS
10
3.60236
20
-2.73622
11
3.55413
21
-2.73622
0
LINE
8
BLACK
6
CONTINUOUS
10
3.55413
20
-2.73622
11
3.55413
21
-2.74803
0
LINE
8
BLACK
6
CONTINUOUS
10
3.55413
20
-2.74803
11
3.55413
21
-2.74803
0
LINE
8
BLACK
6
CONTINUOUS
10
3.55413
20
-2.74803
11
3.60413
21
-2.74803
0
LINE
8
BLACK
6
CONTINUOUS
10
3.60413
20
-2.74803
11
3.60413
21
-2.74803
0
LINE
8
BLACK
6
CONTINUOUS
10
3.60413
20
-2.74803
11
3.60511
21
-2.74792
0
LINE
8
BLACK
6
CONTINUOUS
10
3.60511
20
-2.74792
11
3.60915
21
-2.74613
0
LINE
8
BLACK
6
CONTINUOUS
10
3.60915
20
-2.74613
11
3.61228
21
-2.74301
0
LINE
8
BLACK
6
CONTINUOUS
10
3.61228
20
-2.74301
11
3.61406
21
-2.73897
0
LINE
8
BLACK
6
CONTINUOUS
10
3.61406
20
-2.73897
11
3.61417
21
-2.73798
0
LINE
8
BLACK
6
CONTINUOUS
10
3.61417
20
-2.73798
11
3.61417
21
-2.73798
0
LINE
8
BLACK
6
CONTINUOUS
10
3.61417
20
-2.73798
11
3.61417
21
-2.72244
0
LINE
8
BLACK
6
CONTINUOUS
10
3.61417
20
-2.72244
11
3.61417
21
-2.72244
0
LINE
8
BLACK
6
CONTINUOUS
10
3.61417
20
-2.72244
11
3.60236
21
-2.72244
0
LINE
8
BLACK
6
CONTINUOUS
10
3.60236
20
-2.72244
11
3.60236
21
-2.73622
0
LINE
8
BLACK
6
CONTINUOUS
10
3.55413
20
-2.69685
11
3.60236
21
-2.69685
0
LINE
8
BLACK
6
CONTINUOUS
10
3.60236
20
-2.69685
11
3.60236
21
-2.71063
0
LINE
8
BLACK
6
CONTINUOUS
10
3.60236
20
-2.71063
11
3.61417
21
-2.71063
0
LINE
8
BLACK
6
CONTINUOUS
10
3.61417
20
-2.71063
11
3.61417
21
-2.71063
0
LINE
8
BLACK
6
CONTINUOUS
10
3.61417
20
-2.71063
11
3.61417
21
-2.69509
0
LINE
8
BLACK
6
CONTINUOUS
10
3.61417
20
-2.69509
11
3.61417
21
-2.69509
0
LINE
8
BLACK
6
CONTINUOUS
10
3.61417
20
-2.69509
11
3.61406
21
-2.6941
0
LINE
8
BLACK
6
CONTINUOUS
10
3.61406
20
-2.6941
11
3.61228
21
-2.69006
0
LINE
8
BLACK
6
CONTINUOUS
10
3.61228
20
-2.69006
11
3.60915
21
-2.68694
0
LINE
8
BLACK
6
CONTINUOUS
10
3.60915
20
-2.68694
11
3.60511
21
-2.68515
0
LINE
8
BLACK
6
CONTINUOUS
10
3.60511
20
-2.68515
11
3.60413
21
-2.68504
0
LINE
8
BLACK
6
CONTINUOUS
10
3.60413
20
-2.68504
11
3.55413
21
-2.68504
0
LINE
8
BLACK
6
CONTINUOUS
10
3.55413
20
-2.68504
11
3.55413
21
-2.69685
0
LINE
8
BLACK
6
CONTINUOUS
10
3.55118
20
-2.29507
11
3.5513
21
-2.29606
0
LINE
8
BLACK
6
CONTINUOUS
10
3.5513
20
-2.29606
11
3.55308
21
-2.3001
0
LINE
8
BLACK
6
CONTINUOUS
10
3.55308
20
-2.3001
11
3.5562
21
-2.30322
0
LINE
8
BLACK
6
CONTINUOUS
10
3.5562
20
-2.30322
11
3.56024
21
-2.305
0
LINE
8
BLACK
6
CONTINUOUS
10
3.56024
20
-2.305
11
3.56123
21
-2.30512
0
LINE
8
BLACK
6
CONTINUOUS
10
3.56123
20
-2.30512
11
3.57677
21
-2.30512
0
LINE
8
BLACK
6
CONTINUOUS
10
3.57677
20
-2.30512
11
3.57677
21
-2.30512
0
LINE
8
BLACK
6
CONTINUOUS
10
3.57677
20
-2.30512
11
3.57677
21
-2.29331
0
LINE
8
BLACK
6
CONTINUOUS
10
3.57677
20
-2.29331
11
3.56299
21
-2.29331
0
LINE
8
BLACK
6
CONTINUOUS
10
3.56299
20
-2.29331
11
3.56299
21
-2.24508
0
LINE
8
BLACK
6
CONTINUOUS
10
3.56299
20
-2.24508
11
3.55118
21
-2.24508
0
LINE
8
BLACK
6
CONTINUOUS
10
3.55118
20
-2.24508
11
3.55118
21
-2.29507
0
LINE
8
BLACK
6
CONTINUOUS
10
3.58858
20
-2.18504
11
3.60236
21
-2.18504
0
LINE
8
BLACK
6
CONTINUOUS
10
3.60236
20
-2.18504
11
3.60236
21
-2.23327
0
LINE
8
BLACK
6
CONTINUOUS
10
3.60236
20
-2.23327
11
3.61417
21
-2.23327
0
LINE
8
BLACK
6
CONTINUOUS
10
3.61417
20
-2.23327
11
3.61417
21
-2.23327
0
LINE
8
BLACK
6
CONTINUOUS
10
3.61417
20
-2.23327
11
3.61417
21
-2.18328
0
LINE
8
BLACK
6
CONTINUOUS
10
3.61417
20
-2.18328
11
3.61417
21
-2.18328
0
LINE
8
BLACK
6
CONTINUOUS
10
3.61417
20
-2.18328
11
3.61406
21
-2.18229
0
LINE
8
BLACK
6
CONTINUOUS
10
3.61406
20
-2.18229
11
3.61228
21
-2.17825
0
LINE
8
BLACK
6
CONTINUOUS
10
3.61228
20
-2.17825
11
3.60915
21
-2.17513
0
LINE
8
BLACK
6
CONTINUOUS
10
3.60915
20
-2.17513
11
3.60511
21
-2.17334
0
LINE
8
BLACK
6
CONTINUOUS
10
3.60511
20
-2.17334
11
3.60413
21
-2.17323
0
LINE
8
BLACK
6
CONTINUOUS
10
3.60413
20
-2.17323
11
3.58858
21
-2.17323
0
LINE
8
BLACK
6
CONTINUOUS
10
3.58858
20
-2.17323
11
3.58858
21
-2.18504
0
LINE
8
BLACK
6
CONTINUOUS
10
3.53404
20
-1.91594
11
3.52505
21
-1.91835
0
LINE
8
BLACK
6
CONTINUOUS
10
3.52505
20
-1.91835
11
3.51662
21
-1.92228
0
LINE
8
BLACK
6
CONTINUOUS
10
3.51662
20
-1.92228
11
3.51662
21
-1.92228
0
LINE
8
BLACK
6
CONTINUOUS
10
3.51662
20
-1.92228
11
3.509
21
-1.92762
0
LINE
8
BLACK
6
CONTINUOUS
10
3.509
20
-1.92762
11
3.50242
21
-1.9342
0
LINE
8
BLACK
6
CONTINUOUS
10
3.50242
20
-1.9342
11
3.49709
21
-1.94182
0
LINE
8
BLACK
6
CONTINUOUS
10
3.49709
20
-1.94182
11
3.49315
21
-1.95025
0
LINE
8
BLACK
6
CONTINUOUS
10
3.49315
20
-1.95025
11
3.49075
21
-1.95924
0
LINE
8
BLACK
6
CONTINUOUS
10
3.49075
20
-1.95924
11
3.48993
21
-1.9685
0
LINE
8
BLACK
6
CONTINUOUS
10
3.48993
20
-1.9685
11
3.48993
21
-1.9685
0
LINE
8
BLACK
6
CONTINUOUS
10
3.48993
20
-1.9685
11
3.49075
21
-1.97777
0
LINE
8
BLACK
6
CONTINUOUS
10
3.49075
20
-1.97777
11
3.49315
21
-1.98676
0
LINE
8
BLACK
6
CONTINUOUS
10
3.49315
20
-1.98676
11
3.49708
21
-1.99519
0
LINE
8
BLACK
6
CONTINUOUS
10
3.49708
20
-1.99519
11
3.49709
21
-1.99519
0
LINE
8
BLACK
6
CONTINUOUS
10
3.49709
20
-1.99519
11
3.49709
21
-1.99519
0
LINE
8
BLACK
6
CONTINUOUS
10
3.49709
20
-1.99519
11
3.49709
21
-1.99519
0
LINE
8
BLACK
6
CONTINUOUS
10
3.49709
20
-1.99519
11
3.50242
21
-2.00281
0
LINE
8
BLACK
6
CONTINUOUS
10
3.50242
20
-2.00281
11
3.509
21
-2.00939
0
LINE
8
BLACK
6
CONTINUOUS
10
3.509
20
-2.00939
11
3.51662
21
-2.01473
0
LINE
8
BLACK
6
CONTINUOUS
10
3.51662
20
-2.01473
11
3.51662
21
-2.01473
0
LINE
8
BLACK
6
CONTINUOUS
10
3.51662
20
-2.01473
11
3.51662
21
-2.01473
0
LINE
8
BLACK
6
CONTINUOUS
10
3.51662
20
-2.01473
11
3.51662
21
-2.01473
0
LINE
8
BLACK
6
CONTINUOUS
10
3.51662
20
-2.01473
11
3.52505
21
-2.01866
0
LINE
8
BLACK
6
CONTINUOUS
10
3.52505
20
-2.01866
11
3.52505
21
-2.01866
0
LINE
8
BLACK
6
CONTINUOUS
10
3.52505
20
-2.01866
11
3.53404
21
-2.02107
0
LINE
8
BLACK
6
CONTINUOUS
10
3.53404
20
-2.02107
11
3.53404
21
-2.02107
0
LINE
8
BLACK
6
CONTINUOUS
10
3.53404
20
-2.02107
11
3.53404
21
-2.02107
0
LINE
8
BLACK
6
CONTINUOUS
10
3.53404
20
-2.02107
11
3.54099
21
-2.02167
0
LINE
8
BLACK
6
CONTINUOUS
10
3.54099
20
-2.02167
11
3.54099
21
-2.02167
0
LINE
8
BLACK
6
CONTINUOUS
10
3.54099
20
-2.02167
11
3.54563
21
-2.02167
0
LINE
8
BLACK
6
CONTINUOUS
10
3.54563
20
-2.02167
11
3.55257
21
-2.02107
0
LINE
8
BLACK
6
CONTINUOUS
10
3.55257
20
-2.02107
11
3.55257
21
-2.02107
0
LINE
8
BLACK
6
CONTINUOUS
10
3.55257
20
-2.02107
11
3.55258
21
-2.02107
0
LINE
8
BLACK
6
CONTINUOUS
10
3.55258
20
-2.02107
11
3.56156
21
-2.01866
0
LINE
8
BLACK
6
CONTINUOUS
10
3.56156
20
-2.01866
11
3.56999
21
-2.01473
0
LINE
8
BLACK
6
CONTINUOUS
10
3.56999
20
-2.01473
11
3.57761
21
-2.00939
0
LINE
8
BLACK
6
CONTINUOUS
10
3.57761
20
-2.00939
11
3.58419
21
-2.00281
0
LINE
8
BLACK
6
CONTINUOUS
10
3.58419
20
-2.00281
11
3.58953
21
-1.99519
0
LINE
8
BLACK
6
CONTINUOUS
10
3.58953
20
-1.99519
11
3.59346
21
-1.98676
0
LINE
8
BLACK
6
CONTINUOUS
10
3.59346
20
-1.98676
11
3.59587
21
-1.97777
0
LINE
8
BLACK
6
CONTINUOUS
10
3.59587
20
-1.97777
11
3.59668
21
-1.9685
0
LINE
8
BLACK
6
CONTINUOUS
10
3.59668
20
-1.9685
11
3.59587
21
-1.95924
0
LINE
8
BLACK
6
CONTINUOUS
10
3.59587
20
-1.95924
11
3.59346
21
-1.95025
0
LINE
8
BLACK
6
CONTINUOUS
10
3.59346
20
-1.95025
11
3.58953
21
-1.94182
0
LINE
8
BLACK
6
CONTINUOUS
10
3.58953
20
-1.94182
11
3.58419
21
-1.9342
0
LINE
8
BLACK
6
CONTINUOUS
10
3.58419
20
-1.9342
11
3.57761
21
-1.92762
0
LINE
8
BLACK
6
CONTINUOUS
10
3.57761
20
-1.92762
11
3.57761
21
-1.92762
0
LINE
8
BLACK
6
CONTINUOUS
10
3.57761
20
-1.92762
11
3.57761
21
-1.92762
0
LINE
8
BLACK
6
CONTINUOUS
10
3.57761
20
-1.92762
11
3.57001
21
-1.92229
0
LINE
8
BLACK
6
CONTINUOUS
10
3.57001
20
-1.92229
11
3.56999
21
-1.92228
0
LINE
8
BLACK
6
CONTINUOUS
10
3.56999
20
-1.92228
11
3.56999
21
-1.92228
0
LINE
8
BLACK
6
CONTINUOUS
10
3.56999
20
-1.92228
11
3.56999
21
-1.92228
0
LINE
8
BLACK
6
CONTINUOUS
10
3.56999
20
-1.92228
11
3.56999
21
-1.92228
0
LINE
8
BLACK
6
CONTINUOUS
10
3.56999
20
-1.92228
11
3.56156
21
-1.91835
0
LINE
8
BLACK
6
CONTINUOUS
10
3.56156
20
-1.91835
11
3.56156
21
-1.91835
0
LINE
8
BLACK
6
CONTINUOUS
10
3.56156
20
-1.91835
11
3.55857
21
-1.91755
0
LINE
8
BLACK
6
CONTINUOUS
10
3.55857
20
-1.91755
11
3.55258
21
-1.91594
0
LINE
8
BLACK
6
CONTINUOUS
10
3.55258
20
-1.91594
11
3.55258
21
-1.91594
0
LINE
8
BLACK
6
CONTINUOUS
10
3.55258
20
-1.91594
11
3.55257
21
-1.91594
0
LINE
8
BLACK
6
CONTINUOUS
10
3.55257
20
-1.91594
11
3.54563
21
-1.91533
0
LINE
8
BLACK
6
CONTINUOUS
10
3.54563
20
-1.91533
11
3.54563
21
-1.91533
0
LINE
8
BLACK
6
CONTINUOUS
10
3.54563
20
-1.91533
11
3.54099
21
-1.91533
0
LINE
8
BLACK
6
CONTINUOUS
10
3.54099
20
-1.91533
11
3.54099
21
-1.91533
0
LINE
8
BLACK
6
CONTINUOUS
10
3.54099
20
-1.91533
11
3.53404
21
-1.91594
0
LINE
8
BLACK
6
CONTINUOUS
10
2.70334
20
-2.76517
11
2.70575
21
-2.77416
0
LINE
8
BLACK
6
CONTINUOUS
10
2.70575
20
-2.77416
11
2.70968
21
-2.78259
0
LINE
8
BLACK
6
CONTINUOUS
10
2.70968
20
-2.78259
11
2.70968
21
-2.78259
0
LINE
8
BLACK
6
CONTINUOUS
10
2.70968
20
-2.78259
11
2.70968
21
-2.78259
0
LINE
8
BLACK
6
CONTINUOUS
10
2.70968
20
-2.78259
11
2.70968
21
-2.78259
0
LINE
8
BLACK
6
CONTINUOUS
10
2.70968
20
-2.78259
11
2.71502
21
-2.79021
0
LINE
8
BLACK
6
CONTINUOUS
10
2.71502
20
-2.79021
11
2.7216
21
-2.79679
0
LINE
8
BLACK
6
CONTINUOUS
10
2.7216
20
-2.79679
11
2.7216
21
-2.79679
0
LINE
8
BLACK
6
CONTINUOUS
10
2.7216
20
-2.79679
11
2.7216
21
-2.79679
0
LINE
8
BLACK
6
CONTINUOUS
10
2.7216
20
-2.79679
11
2.72413
21
-2.79856
0
LINE
8
BLACK
6
CONTINUOUS
10
2.72413
20
-2.79856
11
2.72922
21
-2.80213
0
LINE
8
BLACK
6
CONTINUOUS
10
2.72922
20
-2.80213
11
2.72922
21
-2.80213
0
LINE
8
BLACK
6
CONTINUOUS
10
2.72922
20
-2.80213
11
2.72922
21
-2.80213
0
LINE
8
BLACK
6
CONTINUOUS
10
2.72922
20
-2.80213
11
2.72922
21
-2.80213
0
LINE
8
BLACK
6
CONTINUOUS
10
2.72922
20
-2.80213
11
2.73765
21
-2.80606
0
LINE
8
BLACK
6
CONTINUOUS
10
2.73765
20
-2.80606
11
2.73765
21
-2.80606
0
LINE
8
BLACK
6
CONTINUOUS
10
2.73765
20
-2.80606
11
2.74664
21
-2.80847
0
LINE
8
BLACK
6
CONTINUOUS
10
2.74664
20
-2.80847
11
2.74664
21
-2.80847
0
LINE
8
BLACK
6
CONTINUOUS
10
2.74664
20
-2.80847
11
2.74664
21
-2.80847
0
LINE
8
BLACK
6
CONTINUOUS
10
2.74664
20
-2.80847
11
2.75358
21
-2.80907
0
LINE
8
BLACK
6
CONTINUOUS
10
2.75358
20
-2.80907
11
2.75358
21
-2.80907
0
LINE
8
BLACK
6
CONTINUOUS
10
2.75358
20
-2.80907
11
2.75823
21
-2.80907
0
LINE
8
BLACK
6
CONTINUOUS
10
2.75823
20
-2.80907
11
2.76517
21
-2.80847
0
LINE
8
BLACK
6
CONTINUOUS
10
2.76517
20
-2.80847
11
2.76517
21
-2.80847
0
LINE
8
BLACK
6
CONTINUOUS
10
2.76517
20
-2.80847
11
2.76517
21
-2.80847
0
LINE
8
BLACK
6
CONTINUOUS
10
2.76517
20
-2.80847
11
2.77416
21
-2.80606
0
LINE
8
BLACK
6
CONTINUOUS
10
2.77416
20
-2.80606
11
2.78259
21
-2.80213
0
LINE
8
BLACK
6
CONTINUOUS
10
2.78259
20
-2.80213
11
2.79021
21
-2.79679
0
LINE
8
BLACK
6
CONTINUOUS
10
2.79021
20
-2.79679
11
2.79679
21
-2.79021
0
LINE
8
BLACK
6
CONTINUOUS
10
2.79679
20
-2.79021
11
2.80213
21
-2.78259
0
LINE
8
BLACK
6
CONTINUOUS
10
2.80213
20
-2.78259
11
2.80606
21
-2.77416
0
LINE
8
BLACK
6
CONTINUOUS
10
2.80606
20
-2.77416
11
2.80847
21
-2.76517
0
LINE
8
BLACK
6
CONTINUOUS
10
2.80847
20
-2.76517
11
2.80847
21
-2.76517
0
LINE
8
BLACK
6
CONTINUOUS
10
2.80847
20
-2.76517
11
2.80928
21
-2.75591
0
LINE
8
BLACK
6
CONTINUOUS
10
2.80928
20
-2.75591
11
2.80928
21
-2.75591
0
LINE
8
BLACK
6
CONTINUOUS
10
2.80928
20
-2.75591
11
2.80847
21
-2.74664
0
LINE
8
BLACK
6
CONTINUOUS
10
2.80847
20
-2.74664
11
2.80847
21
-2.74664
0
LINE
8
BLACK
6
CONTINUOUS
10
2.80847
20
-2.74664
11
2.80847
21
-2.74664
0
LINE
8
BLACK
6
CONTINUOUS
10
2.80847
20
-2.74664
11
2.80606
21
-2.73765
0
LINE
8
BLACK
6
CONTINUOUS
10
2.80606
20
-2.73765
11
2.80575
21
-2.737
0
LINE
8
BLACK
6
CONTINUOUS
10
2.80575
20
-2.737
11
2.80575
21
-2.737
0
LINE
8
BLACK
6
CONTINUOUS
10
2.80575
20
-2.737
11
2.80213
21
-2.72922
0
LINE
8
BLACK
6
CONTINUOUS
10
2.80213
20
-2.72922
11
2.80213
21
-2.72922
0
LINE
8
BLACK
6
CONTINUOUS
10
2.80213
20
-2.72922
11
2.79679
21
-2.7216
0
LINE
8
BLACK
6
CONTINUOUS
10
2.79679
20
-2.7216
11
2.79679
21
-2.7216
0
LINE
8
BLACK
6
CONTINUOUS
10
2.79679
20
-2.7216
11
2.79679
21
-2.7216
0
LINE
8
BLACK
6
CONTINUOUS
10
2.79679
20
-2.7216
11
2.79021
21
-2.71502
0
LINE
8
BLACK
6
CONTINUOUS
10
2.79021
20
-2.71502
11
2.79021
21
-2.71502
0
LINE
8
BLACK
6
CONTINUOUS
10
2.79021
20
-2.71502
11
2.79021
21
-2.71502
0
LINE
8
BLACK
6
CONTINUOUS
10
2.79021
20
-2.71502
11
2.78259
21
-2.70968
0
LINE
8
BLACK
6
CONTINUOUS
10
2.78259
20
-2.70968
11
2.78259
21
-2.70968
0
LINE
8
BLACK
6
CONTINUOUS
10
2.78259
20
-2.70968
11
2.77416
21
-2.70575
0
LINE
8
BLACK
6
CONTINUOUS
10
2.77416
20
-2.70575
11
2.77416
21
-2.70575
0
LINE
8
BLACK
6
CONTINUOUS
10
2.77416
20
-2.70575
11
2.76984
21
-2.70459
0
LINE
8
BLACK
6
CONTINUOUS
10
2.76984
20
-2.70459
11
2.76517
21
-2.70334
0
LINE
8
BLACK
6
CONTINUOUS
10
2.76517
20
-2.70334
11
2.76517
21
-2.70334
0
LINE
8
BLACK
6
CONTINUOUS
10
2.76517
20
-2.70334
11
2.76517
21
-2.70334
0
LINE
8
BLACK
6
CONTINUOUS
10
2.76517
20
-2.70334
11
2.75823
21
-2.70274
0
LINE
8
BLACK
6
CONTINUOUS
10
2.75823
20
-2.70274
11
2.75823
21
-2.70274
0
LINE
8
BLACK
6
CONTINUOUS
10
2.75823
20
-2.70274
11
2.75358
21
-2.70274
0
LINE
8
BLACK
6
CONTINUOUS
10
2.75358
20
-2.70274
11
2.75358
21
-2.70274
0
LINE
8
BLACK
6
CONTINUOUS
10
2.75358
20
-2.70274
11
2.74664
21
-2.70334
0
LINE
8
BLACK
6
CONTINUOUS
10
2.74664
20
-2.70334
11
2.73765
21
-2.70575
0
LINE
8
BLACK
6
CONTINUOUS
10
2.73765
20
-2.70575
11
2.72922
21
-2.70968
0
LINE
8
BLACK
6
CONTINUOUS
10
2.72922
20
-2.70968
11
2.72922
21
-2.70968
0
LINE
8
BLACK
6
CONTINUOUS
10
2.72922
20
-2.70968
11
2.7216
21
-2.71502
0
LINE
8
BLACK
6
CONTINUOUS
10
2.7216
20
-2.71502
11
2.71502
21
-2.7216
0
LINE
8
BLACK
6
CONTINUOUS
10
2.71502
20
-2.7216
11
2.70968
21
-2.72922
0
LINE
8
BLACK
6
CONTINUOUS
10
2.70968
20
-2.72922
11
2.70575
21
-2.73765
0
LINE
8
BLACK
6
CONTINUOUS
10
2.70575
20
-2.73765
11
2.70334
21
-2.74664
0
LINE
8
BLACK
6
CONTINUOUS
10
2.70334
20
-2.74664
11
2.70253
21
-2.75591
0
LINE
8
BLACK
6
CONTINUOUS
10
2.70253
20
-2.75591
11
2.70253
21
-2.75591
0
LINE
8
BLACK
6
CONTINUOUS
10
2.70253
20
-2.75591
11
2.70334
21
-2.76517
0
LINE
8
BLACK
6
CONTINUOUS
10
3.4824
20
-2.73897
11
3.48418
21
-2.74301
0
LINE
8
BLACK
6
CONTINUOUS
10
3.48418
20
-2.74301
11
3.4873
21
-2.74613
0
LINE
8
BLACK
6
CONTINUOUS
10
3.4873
20
-2.74613
11
3.49134
21
-2.74792
0
LINE
8
BLACK
6
CONTINUOUS
10
3.49134
20
-2.74792
11
3.49233
21
-2.74803
0
LINE
8
BLACK
6
CONTINUOUS
10
3.49233
20
-2.74803
11
3.54232
21
-2.74803
0
LINE
8
BLACK
6
CONTINUOUS
10
3.54232
20
-2.74803
11
3.54232
21
-2.74803
0
LINE
8
BLACK
6
CONTINUOUS
10
3.54232
20
-2.74803
11
3.54232
21
-2.73622
0
LINE
8
BLACK
6
CONTINUOUS
10
3.54232
20
-2.73622
11
3.49409
21
-2.73622
0
LINE
8
BLACK
6
CONTINUOUS
10
3.49409
20
-2.73622
11
3.49409
21
-2.72244
0
LINE
8
BLACK
6
CONTINUOUS
10
3.49409
20
-2.72244
11
3.48228
21
-2.72244
0
LINE
8
BLACK
6
CONTINUOUS
10
3.48228
20
-2.72244
11
3.48228
21
-2.72244
0
LINE
8
BLACK
6
CONTINUOUS
10
3.48228
20
-2.72244
11
3.48228
21
-2.73798
0
LINE
8
BLACK
6
CONTINUOUS
10
3.48228
20
-2.73798
11
3.4824
21
-2.73897
0
LINE
8
BLACK
6
CONTINUOUS
10
3.48228
20
-2.71063
11
3.49409
21
-2.71063
0
LINE
8
BLACK
6
CONTINUOUS
10
3.49409
20
-2.71063
11
3.49409
21
-2.69685
0
LINE
8
BLACK
6
CONTINUOUS
10
3.49409
20
-2.69685
11
3.54232
21
-2.69685
0
LINE
8
BLACK
6
CONTINUOUS
10
3.54232
20
-2.69685
11
3.54232
21
-2.68504
0
LINE
8
BLACK
6
CONTINUOUS
10
3.54232
20
-2.68504
11
3.54232
21
-2.68504
0
LINE
8
BLACK
6
CONTINUOUS
10
3.54232
20
-2.68504
11
3.49233
21
-2.68504
0
LINE
8
BLACK
6
CONTINUOUS
10
3.49233
20
-2.68504
11
3.49233
21
-2.68504
0
LINE
8
BLACK
6
CONTINUOUS
10
3.49233
20
-2.68504
11
3.49134
21
-2.68515
0
LINE
8
BLACK
6
CONTINUOUS
10
3.49134
20
-2.68515
11
3.4873
21
-2.68694
0
LINE
8
BLACK
6
CONTINUOUS
10
3.4873
20
-2.68694
11
3.48418
21
-2.69006
0
LINE
8
BLACK
6
CONTINUOUS
10
3.48418
20
-2.69006
11
3.4824
21
-2.6941
0
LINE
8
BLACK
6
CONTINUOUS
10
3.4824
20
-2.6941
11
3.48228
21
-2.69509
0
LINE
8
BLACK
6
CONTINUOUS
10
3.48228
20
-2.69509
11
3.48228
21
-2.71063
0
LINE
8
BLACK
6
CONTINUOUS
10
3.48228
20
-2.71063
11
3.48228
21
-2.71063
0
LINE
8
BLACK
6
CONTINUOUS
10
2.91001
20
-2.38155
11
2.91001
21
-2.38155
0
LINE
8
BLACK
6
CONTINUOUS
10
2.91001
20
-2.38155
11
2.91001
21
-2.38155
0
LINE
8
BLACK
6
CONTINUOUS
10
2.91001
20
-2.38155
11
2.91001
21
-2.38155
0
LINE
8
BLACK
6
CONTINUOUS
10
2.91001
20
-2.38155
11
2.91235
21
-2.40076
0
LINE
8
BLACK
6
CONTINUOUS
10
2.91235
20
-2.40076
11
2.91235
21
-2.40076
0
LINE
8
BLACK
6
CONTINUOUS
10
2.91235
20
-2.40076
11
2.91622
21
-2.41973
0
LINE
8
BLACK
6
CONTINUOUS
10
2.91622
20
-2.41973
11
2.91622
21
-2.41973
0
LINE
8
BLACK
6
CONTINUOUS
10
2.91622
20
-2.41973
11
2.9216
21
-2.43832
0
LINE
8
BLACK
6
CONTINUOUS
10
2.9216
20
-2.43832
11
2.9216
21
-2.43832
0
LINE
8
BLACK
6
CONTINUOUS
10
2.9216
20
-2.43832
11
2.92443
21
-2.44578
0
LINE
8
BLACK
6
CONTINUOUS
10
2.92443
20
-2.44578
11
2.92847
21
-2.45642
0
LINE
8
BLACK
6
CONTINUOUS
10
2.92847
20
-2.45642
11
2.93358
21
-2.46719
0
LINE
8
BLACK
6
CONTINUOUS
10
2.93358
20
-2.46719
11
2.93672
21
-2.4738
0
LINE
8
BLACK
6
CONTINUOUS
10
2.93672
20
-2.4738
11
2.93677
21
-2.47391
0
LINE
8
BLACK
6
CONTINUOUS
10
2.93677
20
-2.47391
11
2.94645
21
-2.49068
0
LINE
8
BLACK
6
CONTINUOUS
10
2.94645
20
-2.49068
11
2.9492
21
-2.49466
0
LINE
8
BLACK
6
CONTINUOUS
10
2.9492
20
-2.49466
11
2.95744
21
-2.50661
0
LINE
8
BLACK
6
CONTINUOUS
10
2.95744
20
-2.50661
11
2.96969
21
-2.5216
0
LINE
8
BLACK
6
CONTINUOUS
10
2.96969
20
-2.5216
11
2.98306
21
-2.53552
0
LINE
8
BLACK
6
CONTINUOUS
10
2.98306
20
-2.53552
11
2.98309
21
-2.53556
0
LINE
8
BLACK
6
CONTINUOUS
10
2.98309
20
-2.53556
11
2.99569
21
-2.54672
0
LINE
8
BLACK
6
CONTINUOUS
10
2.99569
20
-2.54672
11
2.99758
21
-2.5484
0
LINE
8
BLACK
6
CONTINUOUS
10
2.99758
20
-2.5484
11
2.99758
21
-2.5484
0
LINE
8
BLACK
6
CONTINUOUS
10
2.99758
20
-2.5484
11
3.01306
21
-2.56003
0
LINE
8
BLACK
6
CONTINUOUS
10
3.01306
20
-2.56003
11
3.02031
21
-2.56461
0
LINE
8
BLACK
6
CONTINUOUS
10
3.02031
20
-2.56461
11
3.02942
21
-2.57037
0
LINE
8
BLACK
6
CONTINUOUS
10
3.02942
20
-2.57037
11
3.02942
21
-2.57037
0
LINE
8
BLACK
6
CONTINUOUS
10
3.02942
20
-2.57037
11
3.02942
21
-2.57037
0
LINE
8
BLACK
6
CONTINUOUS
10
3.02942
20
-2.57037
11
3.02942
21
-2.57037
0
LINE
8
BLACK
6
CONTINUOUS
10
3.02942
20
-2.57037
11
3.04467
21
-2.57838
0
LINE
8
BLACK
6
CONTINUOUS
10
3.04467
20
-2.57838
11
3.04656
21
-2.57937
0
LINE
8
BLACK
6
CONTINUOUS
10
3.04656
20
-2.57937
11
3.06437
21
-2.58696
0
LINE
8
BLACK
6
CONTINUOUS
10
3.06437
20
-2.58696
11
3.07344
21
-2.58999
0
LINE
8
BLACK
6
CONTINUOUS
10
3.07344
20
-2.58999
11
3.08273
21
-2.59309
0
LINE
8
BLACK
6
CONTINUOUS
10
3.08273
20
-2.59309
11
3.08273
21
-2.59309
0
LINE
8
BLACK
6
CONTINUOUS
10
3.08273
20
-2.59309
11
3.08273
21
-2.59309
0
LINE
8
BLACK
6
CONTINUOUS
10
3.08273
20
-2.59309
11
3.10153
21
-2.59772
0
LINE
8
BLACK
6
CONTINUOUS
10
3.10153
20
-2.59772
11
3.12063
21
-2.60082
0
LINE
8
BLACK
6
CONTINUOUS
10
3.12063
20
-2.60082
11
3.13993
21
-2.60238
0
LINE
8
BLACK
6
CONTINUOUS
10
3.13993
20
-2.60238
11
3.13993
21
-2.60238
0
LINE
8
BLACK
6
CONTINUOUS
10
3.13993
20
-2.60238
11
3.15928
21
-2.60238
0
LINE
8
BLACK
6
CONTINUOUS
10
3.15928
20
-2.60238
11
3.15929
21
-2.60238
0
LINE
8
BLACK
6
CONTINUOUS
10
3.15929
20
-2.60238
11
3.17858
21
-2.60082
0
LINE
8
BLACK
6
CONTINUOUS
10
3.17858
20
-2.60082
11
3.19769
21
-2.59772
0
LINE
8
BLACK
6
CONTINUOUS
10
3.19769
20
-2.59772
11
3.21648
21
-2.59309
0
LINE
8
BLACK
6
CONTINUOUS
10
3.21648
20
-2.59309
11
3.23484
21
-2.58696
0
LINE
8
BLACK
6
CONTINUOUS
10
3.23484
20
-2.58696
11
3.25265
21
-2.57937
0
LINE
8
BLACK
6
CONTINUOUS
10
3.25265
20
-2.57937
11
3.26233
21
-2.57429
0
LINE
8
BLACK
6
CONTINUOUS
10
3.26233
20
-2.57429
11
3.26979
21
-2.57037
0
LINE
8
BLACK
6
CONTINUOUS
10
3.26979
20
-2.57037
11
3.26979
21
-2.57037
0
LINE
8
BLACK
6
CONTINUOUS
10
3.26979
20
-2.57037
11
3.26979
21
-2.57037
0
LINE
8
BLACK
6
CONTINUOUS
10
3.26979
20
-2.57037
11
3.28615
21
-2.56003
0
LINE
8
BLACK
6
CONTINUOUS
10
3.28615
20
-2.56003
11
3.30163
21
-2.5484
0
LINE
8
BLACK
6
CONTINUOUS
10
3.30163
20
-2.5484
11
3.31612
21
-2.53556
0
LINE
8
BLACK
6
CONTINUOUS
10
3.31612
20
-2.53556
11
3.32953
21
-2.5216
0
LINE
8
BLACK
6
CONTINUOUS
10
3.32953
20
-2.5216
11
3.34177
21
-2.50661
0
LINE
8
BLACK
6
CONTINUOUS
10
3.34177
20
-2.50661
11
3.35277
21
-2.49068
0
LINE
8
BLACK
6
CONTINUOUS
10
3.35277
20
-2.49068
11
3.36245
21
-2.47391
0
LINE
8
BLACK
6
CONTINUOUS
10
3.36245
20
-2.47391
11
3.37074
21
-2.45642
0
LINE
8
BLACK
6
CONTINUOUS
10
3.37074
20
-2.45642
11
3.37761
21
-2.43832
0
LINE
8
BLACK
6
CONTINUOUS
10
3.37761
20
-2.43832
11
3.37761
21
-2.43832
0
LINE
8
BLACK
6
CONTINUOUS
10
3.37761
20
-2.43832
11
3.37761
21
-2.43832
0
LINE
8
BLACK
6
CONTINUOUS
10
3.37761
20
-2.43832
11
3.38299
21
-2.41973
0
LINE
8
BLACK
6
CONTINUOUS
10
3.38299
20
-2.41973
11
3.38299
21
-2.41973
0
LINE
8
BLACK
6
CONTINUOUS
10
3.38299
20
-2.41973
11
3.38299
21
-2.41973
0
LINE
8
BLACK
6
CONTINUOUS
10
3.38299
20
-2.41973
11
3.38687
21
-2.40076
0
LINE
8
BLACK
6
CONTINUOUS
10
3.38687
20
-2.40076
11
3.38817
21
-2.39005
0
LINE
8
BLACK
6
CONTINUOUS
10
3.38817
20
-2.39005
11
3.3892
21
-2.38155
0
LINE
8
BLACK
6
CONTINUOUS
10
3.3892
20
-2.38155
11
3.3892
21
-2.38155
0
LINE
8
BLACK
6
CONTINUOUS
10
3.3892
20
-2.38155
11
3.3892
21
-2.38155
0
LINE
8
BLACK
6
CONTINUOUS
10
3.3892
20
-2.38155
11
3.38998
21
-2.3622
0
LINE
8
BLACK
6
CONTINUOUS
10
3.38998
20
-2.3622
11
3.3892
21
-2.34286
0
LINE
8
BLACK
6
CONTINUOUS
10
3.3892
20
-2.34286
11
3.3892
21
-2.34286
0
LINE
8
BLACK
6
CONTINUOUS
10
3.3892
20
-2.34286
11
3.3892
21
-2.34286
0
LINE
8
BLACK
6
CONTINUOUS
10
3.3892
20
-2.34286
11
3.38687
21
-2.32365
0
LINE
8
BLACK
6
CONTINUOUS
10
3.38687
20
-2.32365
11
3.38687
21
-2.32365
0
LINE
8
BLACK
6
CONTINUOUS
10
3.38687
20
-2.32365
11
3.38299
21
-2.30468
0
LINE
8
BLACK
6
CONTINUOUS
10
3.38299
20
-2.30468
11
3.38299
21
-2.30468
0
LINE
8
BLACK
6
CONTINUOUS
10
3.38299
20
-2.30468
11
3.37761
21
-2.28609
0
LINE
8
BLACK
6
CONTINUOUS
10
3.37761
20
-2.28609
11
3.37761
21
-2.28609
0
LINE
8
BLACK
6
CONTINUOUS
10
3.37761
20
-2.28609
11
3.3769
21
-2.28421
0
LINE
8
BLACK
6
CONTINUOUS
10
3.3769
20
-2.28421
11
3.37074
21
-2.26799
0
LINE
8
BLACK
6
CONTINUOUS
10
3.37074
20
-2.26799
11
3.36245
21
-2.2505
0
LINE
8
BLACK
6
CONTINUOUS
10
3.36245
20
-2.2505
11
3.35277
21
-2.23373
0
LINE
8
BLACK
6
CONTINUOUS
10
3.35277
20
-2.23373
11
3.34498
21
-2.22246
0
LINE
8
BLACK
6
CONTINUOUS
10
3.34498
20
-2.22246
11
3.34177
21
-2.2178
0
LINE
8
BLACK
6
CONTINUOUS
10
3.34177
20
-2.2178
11
3.32953
21
-2.20281
0
LINE
8
BLACK
6
CONTINUOUS
10
3.32953
20
-2.20281
11
3.31612
21
-2.18885
0
LINE
8
BLACK
6
CONTINUOUS
10
3.31612
20
-2.18885
11
3.31094
21
-2.18426
0
LINE
8
BLACK
6
CONTINUOUS
10
3.31094
20
-2.18426
11
3.30525
21
-2.17922
0
LINE
8
BLACK
6
CONTINUOUS
10
3.30525
20
-2.17922
11
3.30163
21
-2.17601
0
LINE
8
BLACK
6
CONTINUOUS
10
3.30163
20
-2.17601
11
3.30163
21
-2.17601
0
LINE
8
BLACK
6
CONTINUOUS
10
3.30163
20
-2.17601
11
3.28615
21
-2.16438
0
LINE
8
BLACK
6
CONTINUOUS
10
3.28615
20
-2.16438
11
3.27468
21
-2.15713
0
LINE
8
BLACK
6
CONTINUOUS
10
3.27468
20
-2.15713
11
3.26979
21
-2.15404
0
LINE
8
BLACK
6
CONTINUOUS
10
3.26979
20
-2.15404
11
3.26979
21
-2.15404
0
LINE
8
BLACK
6
CONTINUOUS
10
3.26979
20
-2.15404
11
3.26979
21
-2.15404
0
LINE
8
BLACK
6
CONTINUOUS
10
3.26979
20
-2.15404
11
3.26979
21
-2.15404
0
LINE
8
BLACK
6
CONTINUOUS
10
3.26979
20
-2.15404
11
3.25265
21
-2.14504
0
LINE
8
BLACK
6
CONTINUOUS
10
3.25265
20
-2.14504
11
3.25265
21
-2.14504
0
LINE
8
BLACK
6
CONTINUOUS
10
3.25265
20
-2.14504
11
3.25265
21
-2.14504
0
LINE
8
BLACK
6
CONTINUOUS
10
3.25265
20
-2.14504
11
3.25265
21
-2.14504
0
LINE
8
BLACK
6
CONTINUOUS
10
3.25265
20
-2.14504
11
3.23484
21
-2.13745
0
LINE
8
BLACK
6
CONTINUOUS
10
3.23484
20
-2.13745
11
3.23484
21
-2.13745
0
LINE
8
BLACK
6
CONTINUOUS
10
3.23484
20
-2.13745
11
3.23484
21
-2.13745
0
LINE
8
BLACK
6
CONTINUOUS
10
3.23484
20
-2.13745
11
3.21648
21
-2.13132
0
LINE
8
BLACK
6
CONTINUOUS
10
3.21648
20
-2.13132
11
3.21648
21
-2.13132
0
LINE
8
BLACK
6
CONTINUOUS
10
3.21648
20
-2.13132
11
3.20226
21
-2.12782
0
LINE
8
BLACK
6
CONTINUOUS
10
3.20226
20
-2.12782
11
3.19769
21
-2.12669
0
LINE
8
BLACK
6
CONTINUOUS
10
3.19769
20
-2.12669
11
3.17858
21
-2.12359
0
LINE
8
BLACK
6
CONTINUOUS
10
3.17858
20
-2.12359
11
3.17858
21
-2.12359
0
LINE
8
BLACK
6
CONTINUOUS
10
3.17858
20
-2.12359
11
3.16776
21
-2.12271
0
LINE
8
BLACK
6
CONTINUOUS
10
3.16776
20
-2.12271
11
3.15929
21
-2.12203
0
LINE
8
BLACK
6
CONTINUOUS
10
3.15929
20
-2.12203
11
3.13993
21
-2.12203
0
LINE
8
BLACK
6
CONTINUOUS
10
3.13993
20
-2.12203
11
3.13214
21
-2.12266
0
LINE
8
BLACK
6
CONTINUOUS
10
3.13214
20
-2.12266
11
3.12063
21
-2.12359
0
LINE
8
BLACK
6
CONTINUOUS
10
3.12063
20
-2.12359
11
3.10153
21
-2.12669
0
LINE
8
BLACK
6
CONTINUOUS
10
3.10153
20
-2.12669
11
3.08273
21
-2.13132
0
LINE
8
BLACK
6
CONTINUOUS
10
3.08273
20
-2.13132
11
3.08273
21
-2.13132
0
LINE
8
BLACK
6
CONTINUOUS
10
3.08273
20
-2.13132
11
3.06437
21
-2.13745
0
LINE
8
BLACK
6
CONTINUOUS
10
3.06437
20
-2.13745
11
3.05285
21
-2.14236
0
LINE
8
BLACK
6
CONTINUOUS
10
3.05285
20
-2.14236
11
3.04656
21
-2.14504
0
LINE
8
BLACK
6
CONTINUOUS
10
3.04656
20
-2.14504
11
3.04656
21
-2.14504
0
LINE
8
BLACK
6
CONTINUOUS
10
3.04656
20
-2.14504
11
3.04656
21
-2.14504
0
LINE
8
BLACK
6
CONTINUOUS
10
3.04656
20
-2.14504
11
3.04656
21
-2.14504
0
LINE
8
BLACK
6
CONTINUOUS
10
3.04656
20
-2.14504
11
3.02942
21
-2.15404
0
LINE
8
BLACK
6
CONTINUOUS
10
3.02942
20
-2.15404
11
3.02942
21
-2.15404
0
LINE
8
BLACK
6
CONTINUOUS
10
3.02942
20
-2.15404
11
3.01306
21
-2.16438
0
LINE
8
BLACK
6
CONTINUOUS
10
3.01306
20
-2.16438
11
2.99758
21
-2.17601
0
LINE
8
BLACK
6
CONTINUOUS
10
2.99758
20
-2.17601
11
2.99758
21
-2.17601
0
LINE
8
BLACK
6
CONTINUOUS
10
2.99758
20
-2.17601
11
2.98309
21
-2.18885
0
LINE
8
BLACK
6
CONTINUOUS
10
2.98309
20
-2.18885
11
2.96969
21
-2.20281
0
LINE
8
BLACK
6
CONTINUOUS
10
2.96969
20
-2.20281
11
2.95744
21
-2.2178
0
LINE
8
BLACK
6
CONTINUOUS
10
2.95744
20
-2.2178
11
2.94645
21
-2.23373
0
LINE
8
BLACK
6
CONTINUOUS
10
2.94645
20
-2.23373
11
2.93677
21
-2.2505
0
LINE
8
BLACK
6
CONTINUOUS
10
2.93677
20
-2.2505
11
2.92847
21
-2.26799
0
LINE
8
BLACK
6
CONTINUOUS
10
2.92847
20
-2.26799
11
2.9216
21
-2.28609
0
LINE
8
BLACK
6
CONTINUOUS
10
2.9216
20
-2.28609
11
2.9216
21
-2.28609
0
LINE
8
BLACK
6
CONTINUOUS
10
2.9216
20
-2.28609
11
2.91622
21
-2.30468
0
LINE
8
BLACK
6
CONTINUOUS
10
2.91622
20
-2.30468
11
2.91622
21
-2.30468
0
LINE
8
BLACK
6
CONTINUOUS
10
2.91622
20
-2.30468
11
2.91235
21
-2.32365
0
LINE
8
BLACK
6
CONTINUOUS
10
2.91235
20
-2.32365
11
2.91235
21
-2.32365
0
LINE
8
BLACK
6
CONTINUOUS
10
2.91235
20
-2.32365
11
2.91001
21
-2.34286
0
LINE
8
BLACK
6
CONTINUOUS
10
2.91001
20
-2.34286
11
2.91001
21
-2.34286
0
LINE
8
BLACK
6
CONTINUOUS
10
2.91001
20
-2.34286
11
2.91001
21
-2.34286
0
LINE
8
BLACK
6
CONTINUOUS
10
2.91001
20
-2.34286
11
2.91001
21
-2.34286
0
LINE
8
BLACK
6
CONTINUOUS
10
2.91001
20
-2.34286
11
2.90923
21
-2.3622
0
LINE
8
BLACK
6
CONTINUOUS
10
2.90923
20
-2.3622
11
2.91001
21
-2.38155
0
LINE
8
BLACK
6
CONTINUOUS
10
3.58858
20
-2.30512
11
3.60413
21
-2.30512
0
LINE
8
BLACK
6
CONTINUOUS
10
3.60413
20
-2.30512
11
3.60413
21
-2.30512
0
LINE
8
BLACK
6
CONTINUOUS
10
3.60413
20
-2.30512
11
3.60511
21
-2.305
0
LINE
8
BLACK
6
CONTINUOUS
10
3.60511
20
-2.305
11
3.60915
21
-2.30322
0
LINE
8
BLACK
6
CONTINUOUS
10
3.60915
20
-2.30322
11
3.61228
21
-2.3001
0
LINE
8
BLACK
6
CONTINUOUS
10
3.61228
20
-2.3001
11
3.61406
21
-2.29606
0
LINE
8
BLACK
6
CONTINUOUS
10
3.61406
20
-2.29606
11
3.61417
21
-2.29507
0
LINE
8
BLACK
6
CONTINUOUS
10
3.61417
20
-2.29507
11
3.61417
21
-2.29507
0
LINE
8
BLACK
6
CONTINUOUS
10
3.61417
20
-2.29507
11
3.61417
21
-2.24508
0
LINE
8
BLACK
6
CONTINUOUS
10
3.61417
20
-2.24508
11
3.61417
21
-2.24508
0
LINE
8
BLACK
6
CONTINUOUS
10
3.61417
20
-2.24508
11
3.60236
21
-2.24508
0
LINE
8
BLACK
6
CONTINUOUS
10
3.60236
20
-2.24508
11
3.60236
21
-2.29331
0
LINE
8
BLACK
6
CONTINUOUS
10
3.60236
20
-2.29331
11
3.58858
21
-2.29331
0
LINE
8
BLACK
6
CONTINUOUS
10
3.58858
20
-2.29331
11
3.58858
21
-2.30512
0
LINE
8
BLACK
6
CONTINUOUS
10
3.58858
20
-2.30512
11
3.58858
21
-2.30512
0
LINE
8
BLACK
6
CONTINUOUS
10
3.55118
20
-2.23327
11
3.56299
21
-2.23327
0
LINE
8
BLACK
6
CONTINUOUS
10
3.56299
20
-2.23327
11
3.56299
21
-2.18504
0
LINE
8
BLACK
6
CONTINUOUS
10
3.56299
20
-2.18504
11
3.57677
21
-2.18504
0
LINE
8
BLACK
6
CONTINUOUS
10
3.57677
20
-2.18504
11
3.57677
21
-2.17323
0
LINE
8
BLACK
6
CONTINUOUS
10
3.57677
20
-2.17323
11
3.56123
21
-2.17323
0
LINE
8
BLACK
6
CONTINUOUS
10
3.56123
20
-2.17323
11
3.56123
21
-2.17323
0
LINE
8
BLACK
6
CONTINUOUS
10
3.56123
20
-2.17323
11
3.56024
21
-2.17334
0
LINE
8
BLACK
6
CONTINUOUS
10
3.56024
20
-2.17334
11
3.5562
21
-2.17513
0
LINE
8
BLACK
6
CONTINUOUS
10
3.5562
20
-2.17513
11
3.55308
21
-2.17825
0
LINE
8
BLACK
6
CONTINUOUS
10
3.55308
20
-2.17825
11
3.5513
21
-2.18229
0
LINE
8
BLACK
6
CONTINUOUS
10
3.5513
20
-2.18229
11
3.55118
21
-2.18328
0
LINE
8
BLACK
6
CONTINUOUS
10
3.55118
20
-2.18328
11
3.55118
21
-2.23327
0
LINE
8
BLACK
6
CONTINUOUS
10
3.55118
20
-2.23327
11
3.55118
21
-2.23327
0
LINE
8
BLACK
6
CONTINUOUS
10
2.70334
20
-1.97777
11
2.70575
21
-1.98676
0
LINE
8
BLACK
6
CONTINUOUS
10
2.70575
20
-1.98676
11
2.70968
21
-1.99519
0
LINE
8
BLACK
6
CONTINUOUS
10
2.70968
20
-1.99519
11
2.70968
21
-1.99519
0
LINE
8
BLACK
6
CONTINUOUS
10
2.70968
20
-1.99519
11
2.70968
21
-1.99519
0
LINE
8
BLACK
6
CONTINUOUS
10
2.70968
20
-1.99519
11
2.70968
21
-1.99519
0
LINE
8
BLACK
6
CONTINUOUS
10
2.70968
20
-1.99519
11
2.71502
21
-2.00281
0
LINE
8
BLACK
6
CONTINUOUS
10
2.71502
20
-2.00281
11
2.7216
21
-2.00939
0
LINE
8
BLACK
6
CONTINUOUS
10
2.7216
20
-2.00939
11
2.72922
21
-2.01473
0
LINE
8
BLACK
6
CONTINUOUS
10
2.72922
20
-2.01473
11
2.72922
21
-2.01473
0
LINE
8
BLACK
6
CONTINUOUS
10
2.72922
20
-2.01473
11
2.72922
21
-2.01473
0
LINE
8
BLACK
6
CONTINUOUS
10
2.72922
20
-2.01473
11
2.72922
21
-2.01473
0
LINE
8
BLACK
6
CONTINUOUS
10
2.72922
20
-2.01473
11
2.73765
21
-2.01866
0
LINE
8
BLACK
6
CONTINUOUS
10
2.73765
20
-2.01866
11
2.73765
21
-2.01866
0
LINE
8
BLACK
6
CONTINUOUS
10
2.73765
20
-2.01866
11
2.74664
21
-2.02107
0
LINE
8
BLACK
6
CONTINUOUS
10
2.74664
20
-2.02107
11
2.74664
21
-2.02107
0
LINE
8
BLACK
6
CONTINUOUS
10
2.74664
20
-2.02107
11
2.74664
21
-2.02107
0
LINE
8
BLACK
6
CONTINUOUS
10
2.74664
20
-2.02107
11
2.75358
21
-2.02167
0
LINE
8
BLACK
6
CONTINUOUS
10
2.75358
20
-2.02167
11
2.75358
21
-2.02167
0
LINE
8
BLACK
6
CONTINUOUS
10
2.75358
20
-2.02167
11
2.75823
21
-2.02167
0
LINE
8
BLACK
6
CONTINUOUS
10
2.75823
20
-2.02167
11
2.76517
21
-2.02107
0
LINE
8
BLACK
6
CONTINUOUS
10
2.76517
20
-2.02107
11
2.76517
21
-2.02107
0
LINE
8
BLACK
6
CONTINUOUS
10
2.76517
20
-2.02107
11
2.76517
21
-2.02107
0
LINE
8
BLACK
6
CONTINUOUS
10
2.76517
20
-2.02107
11
2.77416
21
-2.01866
0
LINE
8
BLACK
6
CONTINUOUS
10
2.77416
20
-2.01866
11
2.78259
21
-2.01473
0
LINE
8
BLACK
6
CONTINUOUS
10
2.78259
20
-2.01473
11
2.79021
21
-2.00939
0
LINE
8
BLACK
6
CONTINUOUS
10
2.79021
20
-2.00939
11
2.79679
21
-2.00281
0
LINE
8
BLACK
6
CONTINUOUS
10
2.79679
20
-2.00281
11
2.80213
21
-1.99519
0
LINE
8
BLACK
6
CONTINUOUS
10
2.80213
20
-1.99519
11
2.80606
21
-1.98676
0
LINE
8
BLACK
6
CONTINUOUS
10
2.80606
20
-1.98676
11
2.80847
21
-1.97777
0
LINE
8
BLACK
6
CONTINUOUS
10
2.80847
20
-1.97777
11
2.80928
21
-1.9685
0
LINE
8
BLACK
6
CONTINUOUS
10
2.80928
20
-1.9685
11
2.80928
21
-1.9685
0
LINE
8
BLACK
6
CONTINUOUS
10
2.80928
20
-1.9685
11
2.80847
21
-1.95924
0
LINE
8
BLACK
6
CONTINUOUS
10
2.80847
20
-1.95924
11
2.80606
21
-1.95025
0
LINE
8
BLACK
6
CONTINUOUS
10
2.80606
20
-1.95025
11
2.80213
21
-1.94182
0
LINE
8
BLACK
6
CONTINUOUS
10
2.80213
20
-1.94182
11
2.79679
21
-1.9342
0
LINE
8
BLACK
6
CONTINUOUS
10
2.79679
20
-1.9342
11
2.79021
21
-1.92762
0
LINE
8
BLACK
6
CONTINUOUS
10
2.79021
20
-1.92762
11
2.79021
21
-1.92762
0
LINE
8
BLACK
6
CONTINUOUS
10
2.79021
20
-1.92762
11
2.79021
21
-1.92762
0
LINE
8
BLACK
6
CONTINUOUS
10
2.79021
20
-1.92762
11
2.7826
21
-1.92229
0
LINE
8
BLACK
6
CONTINUOUS
10
2.7826
20
-1.92229
11
2.78259
21
-1.92228
0
LINE
8
BLACK
6
CONTINUOUS
10
2.78259
20
-1.92228
11
2.78259
21
-1.92228
0
LINE
8
BLACK
6
CONTINUOUS
10
2.78259
20
-1.92228
11
2.78259
21
-1.92228
0
LINE
8
BLACK
6
CONTINUOUS
10
2.78259
20
-1.92228
11
2.78259
21
-1.92228
0
LINE
8
BLACK
6
CONTINUOUS
10
2.78259
20
-1.92228
11
2.77416
21
-1.91835
0
LINE
8
BLACK
6
CONTINUOUS
10
2.77416
20
-1.91835
11
2.77416
21
-1.91835
0
LINE
8
BLACK
6
CONTINUOUS
10
2.77416
20
-1.91835
11
2.77116
21
-1.91755
0
LINE
8
BLACK
6
CONTINUOUS
10
2.77116
20
-1.91755
11
2.76517
21
-1.91594
0
LINE
8
BLACK
6
CONTINUOUS
10
2.76517
20
-1.91594
11
2.76517
21
-1.91594
0
LINE
8
BLACK
6
CONTINUOUS
10
2.76517
20
-1.91594
11
2.76517
21
-1.91594
0
LINE
8
BLACK
6
CONTINUOUS
10
2.76517
20
-1.91594
11
2.75823
21
-1.91533
0
LINE
8
BLACK
6
CONTINUOUS
10
2.75823
20
-1.91533
11
2.75823
21
-1.91533
0
LINE
8
BLACK
6
CONTINUOUS
10
2.75823
20
-1.91533
11
2.75358
21
-1.91533
0
LINE
8
BLACK
6
CONTINUOUS
10
2.75358
20
-1.91533
11
2.75358
21
-1.91533
0
LINE
8
BLACK
6
CONTINUOUS
10
2.75358
20
-1.91533
11
2.74664
21
-1.91594
0
LINE
8
BLACK
6
CONTINUOUS
10
2.74664
20
-1.91594
11
2.73765
21
-1.91835
0
LINE
8
BLACK
6
CONTINUOUS
10
2.73765
20
-1.91835
11
2.72922
21
-1.92228
0
LINE
8
BLACK
6
CONTINUOUS
10
2.72922
20
-1.92228
11
2.72922
21
-1.92228
0
LINE
8
BLACK
6
CONTINUOUS
10
2.72922
20
-1.92228
11
2.7216
21
-1.92762
0
LINE
8
BLACK
6
CONTINUOUS
10
2.7216
20
-1.92762
11
2.71502
21
-1.9342
0
LINE
8
BLACK
6
CONTINUOUS
10
2.71502
20
-1.9342
11
2.70968
21
-1.94182
0
LINE
8
BLACK
6
CONTINUOUS
10
2.70968
20
-1.94182
11
2.70575
21
-1.95025
0
LINE
8
BLACK
6
CONTINUOUS
10
2.70575
20
-1.95025
11
2.70334
21
-1.95924
0
LINE
8
BLACK
6
CONTINUOUS
10
2.70334
20
-1.95924
11
2.70253
21
-1.9685
0
LINE
8
BLACK
6
CONTINUOUS
10
2.70253
20
-1.9685
11
2.70253
21
-1.9685
0
LINE
8
BLACK
6
CONTINUOUS
10
2.70253
20
-1.9685
11
2.70334
21
-1.97777
0
LINE
8
BLACK
6
CONTINUOUS
10
3.52362
20
-2.53937
11
3.48425
21
-2.53937
0
LINE
8
BLACK
6
CONTINUOUS
10
3.48425
20
-2.53937
11
3.48425
21
-2.50492
0
LINE
8
BLACK
6
CONTINUOUS
10
3.48425
20
-2.50492
11
3.43291
21
-2.50492
0
LINE
8
BLACK
6
CONTINUOUS
10
3.43291
20
-2.50492
11
3.4323
21
-2.5088
0
LINE
8
BLACK
6
CONTINUOUS
10
3.4323
20
-2.5088
11
3.43006
21
-2.51319
0
LINE
8
BLACK
6
CONTINUOUS
10
3.43006
20
-2.51319
11
3.42658
21
-2.51668
0
LINE
8
BLACK
6
CONTINUOUS
10
3.42658
20
-2.51668
11
3.42224
21
-2.51889
0
LINE
8
BLACK
6
CONTINUOUS
10
3.42224
20
-2.51889
11
3.42224
21
-2.55118
0
LINE
8
BLACK
6
CONTINUOUS
10
3.42224
20
-2.55118
11
3.42212
21
-2.55205
0
LINE
8
BLACK
6
CONTINUOUS
10
3.42212
20
-2.55205
11
3.42213
21
-2.55223
0
LINE
8
BLACK
6
CONTINUOUS
10
3.42213
20
-2.55223
11
3.42208
21
-2.55232
0
LINE
8
BLACK
6
CONTINUOUS
10
3.42208
20
-2.55232
11
3.42204
21
-2.55257
0
LINE
8
BLACK
6
CONTINUOUS
10
3.42204
20
-2.55257
11
3.42139
21
-2.55359
0
LINE
8
BLACK
6
CONTINUOUS
10
3.42139
20
-2.55359
11
3.4208
21
-2.55466
0
LINE
8
BLACK
6
CONTINUOUS
10
3.4208
20
-2.55466
11
3.3563
21
-2.61916
0
LINE
8
BLACK
6
CONTINUOUS
10
3.3563
20
-2.61916
11
3.3563
21
-2.65748
0
LINE
8
BLACK
6
CONTINUOUS
10
3.3563
20
-2.65748
11
3.24803
21
-2.65748
0
LINE
8
BLACK
6
CONTINUOUS
10
3.24803
20
-2.65748
11
3.24803
21
-2.61811
0
LINE
8
BLACK
6
CONTINUOUS
10
3.24803
20
-2.61811
11
3.34343
21
-2.61811
0
LINE
8
BLACK
6
CONTINUOUS
10
3.34343
20
-2.61811
11
3.4124
21
-2.54914
0
LINE
8
BLACK
6
CONTINUOUS
10
3.4124
20
-2.54914
11
3.4124
21
-2.51889
0
LINE
8
BLACK
6
CONTINUOUS
10
3.4124
20
-2.51889
11
3.40807
21
-2.51668
0
LINE
8
BLACK
6
CONTINUOUS
10
3.40807
20
-2.51668
11
3.40458
21
-2.51319
0
LINE
8
BLACK
6
CONTINUOUS
10
3.40458
20
-2.51319
11
3.40235
21
-2.5088
0
LINE
8
BLACK
6
CONTINUOUS
10
3.40235
20
-2.5088
11
3.40157
21
-2.50394
0
LINE
8
BLACK
6
CONTINUOUS
10
3.40157
20
-2.50394
11
3.40235
21
-2.49907
0
LINE
8
BLACK
6
CONTINUOUS
10
3.40235
20
-2.49907
11
3.40458
21
-2.49468
0
LINE
8
BLACK
6
CONTINUOUS
10
3.40458
20
-2.49468
11
3.40807
21
-2.4912
0
LINE
8
BLACK
6
CONTINUOUS
10
3.40807
20
-2.4912
11
3.41246
21
-2.48896
0
LINE
8
BLACK
6
CONTINUOUS
10
3.41246
20
-2.48896
11
3.41732
21
-2.48819
0
LINE
8
BLACK
6
CONTINUOUS
10
3.41732
20
-2.48819
11
3.42219
21
-2.48896
0
LINE
8
BLACK
6
CONTINUOUS
10
3.42219
20
-2.48896
11
3.42658
21
-2.4912
0
LINE
8
BLACK
6
CONTINUOUS
10
3.42658
20
-2.4912
11
3.43006
21
-2.49468
0
LINE
8
BLACK
6
CONTINUOUS
10
3.43006
20
-2.49468
11
3.43027
21
-2.49508
0
LINE
8
BLACK
6
CONTINUOUS
10
3.43027
20
-2.49508
11
3.48425
21
-2.49508
0
LINE
8
BLACK
6
CONTINUOUS
10
3.48425
20
-2.49508
11
3.48425
21
-2.4311
0
LINE
8
BLACK
6
CONTINUOUS
10
3.48425
20
-2.4311
11
3.52362
21
-2.4311
0
LINE
8
BLACK
6
CONTINUOUS
10
3.52362
20
-2.4311
11
3.52362
21
-2.53937
0
LINE
8
BLACK
6
CONTINUOUS
10
3.52362
20
-2.29331
11
3.48425
21
-2.29331
0
LINE
8
BLACK
6
CONTINUOUS
10
3.48425
20
-2.29331
11
3.48425
21
-2.24409
0
LINE
8
BLACK
6
CONTINUOUS
10
3.48425
20
-2.24409
11
3.47153
21
-2.24409
0
LINE
8
BLACK
6
CONTINUOUS
10
3.47153
20
-2.24409
11
3.46949
21
-2.24613
0
LINE
8
BLACK
6
CONTINUOUS
10
3.46949
20
-2.24613
11
3.46949
21
-2.41417
0
LINE
8
BLACK
6
CONTINUOUS
10
3.46949
20
-2.41417
11
3.52244
21
-2.41417
0
LINE
8
BLACK
6
CONTINUOUS
10
3.52244
20
-2.41417
11
3.52244
21
-2.40583
0
LINE
8
BLACK
6
CONTINUOUS
10
3.52244
20
-2.40583
11
3.52257
21
-2.40496
0
LINE
8
BLACK
6
CONTINUOUS
10
3.52257
20
-2.40496
11
3.52255
21
-2.40478
0
LINE
8
BLACK
6
CONTINUOUS
10
3.52255
20
-2.40478
11
3.5226
21
-2.40469
0
LINE
8
BLACK
6
CONTINUOUS
10
3.5226
20
-2.40469
11
3.52264
21
-2.40444
0
LINE
8
BLACK
6
CONTINUOUS
10
3.52264
20
-2.40444
11
3.5233
21
-2.40341
0
LINE
8
BLACK
6
CONTINUOUS
10
3.5233
20
-2.40341
11
3.52388
21
-2.40235
0
LINE
8
BLACK
6
CONTINUOUS
10
3.52388
20
-2.40235
11
3.54014
21
-2.38609
0
LINE
8
BLACK
6
CONTINUOUS
10
3.54014
20
-2.38609
11
3.54084
21
-2.38556
0
LINE
8
BLACK
6
CONTINUOUS
10
3.54084
20
-2.38556
11
3.54096
21
-2.38543
0
LINE
8
BLACK
6
CONTINUOUS
10
3.54096
20
-2.38543
11
3.54106
21
-2.3854
0
LINE
8
BLACK
6
CONTINUOUS
10
3.54106
20
-2.3854
11
3.54126
21
-2.38525
0
LINE
8
BLACK
6
CONTINUOUS
10
3.54126
20
-2.38525
11
3.54245
21
-2.38499
0
LINE
8
BLACK
6
CONTINUOUS
10
3.54245
20
-2.38499
11
3.54362
21
-2.38465
0
LINE
8
BLACK
6
CONTINUOUS
10
3.54362
20
-2.38465
11
3.60992
21
-2.38465
0
LINE
8
BLACK
6
CONTINUOUS
10
3.60992
20
-2.38465
11
3.61079
21
-2.38477
0
LINE
8
BLACK
6
CONTINUOUS
10
3.61079
20
-2.38477
11
3.61097
21
-2.38476
0
LINE
8
BLACK
6
CONTINUOUS
10
3.61097
20
-2.38476
11
3.61106
21
-2.38481
0
LINE
8
BLACK
6
CONTINUOUS
10
3.61106
20
-2.38481
11
3.61131
21
-2.38484
0
LINE
8
BLACK
6
CONTINUOUS
10
3.61131
20
-2.38484
11
3.61233
21
-2.3855
0
LINE
8
BLACK
6
CONTINUOUS
10
3.61233
20
-2.3855
11
3.6134
21
-2.38609
0
LINE
8
BLACK
6
CONTINUOUS
10
3.6134
20
-2.38609
11
3.61883
21
-2.39152
0
LINE
8
BLACK
6
CONTINUOUS
10
3.61883
20
-2.39152
11
3.61936
21
-2.39222
0
LINE
8
BLACK
6
CONTINUOUS
10
3.61936
20
-2.39222
11
3.61949
21
-2.39234
0
LINE
8
BLACK
6
CONTINUOUS
10
3.61949
20
-2.39234
11
3.61952
21
-2.39244
0
LINE
8
BLACK
6
CONTINUOUS
10
3.61952
20
-2.39244
11
3.61967
21
-2.39264
0
LINE
8
BLACK
6
CONTINUOUS
10
3.61967
20
-2.39264
11
3.61993
21
-2.39383
0
LINE
8
BLACK
6
CONTINUOUS
10
3.61993
20
-2.39383
11
3.62028
21
-2.395
0
LINE
8
BLACK
6
CONTINUOUS
10
3.62028
20
-2.395
11
3.62028
21
-2.60512
0
LINE
8
BLACK
6
CONTINUOUS
10
3.62028
20
-2.60512
11
3.62015
21
-2.60599
0
LINE
8
BLACK
6
CONTINUOUS
10
3.62015
20
-2.60599
11
3.62016
21
-2.60616
0
LINE
8
BLACK
6
CONTINUOUS
10
3.62016
20
-2.60616
11
3.62011
21
-2.60626
0
LINE
8
BLACK
6
CONTINUOUS
10
3.62011
20
-2.60626
11
3.62008
21
-2.6065
0
LINE
8
BLACK
6
CONTINUOUS
10
3.62008
20
-2.6065
11
3.61942
21
-2.60753
0
LINE
8
BLACK
6
CONTINUOUS
10
3.61942
20
-2.60753
11
3.61883
21
-2.6086
0
LINE
8
BLACK
6
CONTINUOUS
10
3.61883
20
-2.6086
11
3.60236
21
-2.62507
0
LINE
8
BLACK
6
CONTINUOUS
10
3.60236
20
-2.62507
11
3.60236
21
-2.65748
0
LINE
8
BLACK
6
CONTINUOUS
10
3.60236
20
-2.65748
11
3.49409
21
-2.65748
0
LINE
8
BLACK
6
CONTINUOUS
10
3.49409
20
-2.65748
11
3.49409
21
-2.61811
0
LINE
8
BLACK
6
CONTINUOUS
10
3.49409
20
-2.61811
11
3.5954
21
-2.61811
0
LINE
8
BLACK
6
CONTINUOUS
10
3.5954
20
-2.61811
11
3.61043
21
-2.60308
0
LINE
8
BLACK
6
CONTINUOUS
10
3.61043
20
-2.60308
11
3.61043
21
-2.39704
0
LINE
8
BLACK
6
CONTINUOUS
10
3.61043
20
-2.39704
11
3.60788
21
-2.39449
0
LINE
8
BLACK
6
CONTINUOUS
10
3.60788
20
-2.39449
11
3.54566
21
-2.39449
0
LINE
8
BLACK
6
CONTINUOUS
10
3.54566
20
-2.39449
11
3.53228
21
-2.40786
0
LINE
8
BLACK
6
CONTINUOUS
10
3.53228
20
-2.40786
11
3.53228
21
-2.41752
0
LINE
8
BLACK
6
CONTINUOUS
10
3.53228
20
-2.41752
11
3.53216
21
-2.41839
0
LINE
8
BLACK
6
CONTINUOUS
10
3.53216
20
-2.41839
11
3.53217
21
-2.41857
0
LINE
8
BLACK
6
CONTINUOUS
10
3.53217
20
-2.41857
11
3.53212
21
-2.41866
0
LINE
8
BLACK
6
CONTINUOUS
10
3.53212
20
-2.41866
11
3.53208
21
-2.41891
0
LINE
8
BLACK
6
CONTINUOUS
10
3.53208
20
-2.41891
11
3.53143
21
-2.41993
0
LINE
8
BLACK
6
CONTINUOUS
10
3.53143
20
-2.41993
11
3.53084
21
-2.421
0
LINE
8
BLACK
6
CONTINUOUS
10
3.53084
20
-2.421
11
3.52927
21
-2.42257
0
LINE
8
BLACK
6
CONTINUOUS
10
3.52927
20
-2.42257
11
3.52856
21
-2.4231
0
LINE
8
BLACK
6
CONTINUOUS
10
3.52856
20
-2.4231
11
3.52845
21
-2.42323
0
LINE
8
BLACK
6
CONTINUOUS
10
3.52845
20
-2.42323
11
3.52834
21
-2.42326
0
LINE
8
BLACK
6
CONTINUOUS
10
3.52834
20
-2.42326
11
3.52815
21
-2.42341
0
LINE
8
BLACK
6
CONTINUOUS
10
3.52815
20
-2.42341
11
3.52696
21
-2.42367
0
LINE
8
BLACK
6
CONTINUOUS
10
3.52696
20
-2.42367
11
3.52579
21
-2.42402
0
LINE
8
BLACK
6
CONTINUOUS
10
3.52579
20
-2.42402
11
3.47318
21
-2.42402
0
LINE
8
BLACK
6
CONTINUOUS
10
3.47318
20
-2.42402
11
3.47376
21
-2.4246
0
LINE
8
BLACK
6
CONTINUOUS
10
3.47376
20
-2.4246
11
3.476
21
-2.42899
0
LINE
8
BLACK
6
CONTINUOUS
10
3.476
20
-2.42899
11
3.47677
21
-2.43386
0
LINE
8
BLACK
6
CONTINUOUS
10
3.47677
20
-2.43386
11
3.476
21
-2.43872
0
LINE
8
BLACK
6
CONTINUOUS
10
3.476
20
-2.43872
11
3.47376
21
-2.44311
0
LINE
8
BLACK
6
CONTINUOUS
10
3.47376
20
-2.44311
11
3.47028
21
-2.4466
0
LINE
8
BLACK
6
CONTINUOUS
10
3.47028
20
-2.4466
11
3.46589
21
-2.44884
0
LINE
8
BLACK
6
CONTINUOUS
10
3.46589
20
-2.44884
11
3.46102
21
-2.44961
0
LINE
8
BLACK
6
CONTINUOUS
10
3.46102
20
-2.44961
11
3.45616
21
-2.44884
0
LINE
8
BLACK
6
CONTINUOUS
10
3.45616
20
-2.44884
11
3.45177
21
-2.4466
0
LINE
8
BLACK
6
CONTINUOUS
10
3.45177
20
-2.4466
11
3.44828
21
-2.44311
0
LINE
8
BLACK
6
CONTINUOUS
10
3.44828
20
-2.44311
11
3.44605
21
-2.43872
0
LINE
8
BLACK
6
CONTINUOUS
10
3.44605
20
-2.43872
11
3.44528
21
-2.43386
0
LINE
8
BLACK
6
CONTINUOUS
10
3.44528
20
-2.43386
11
3.44605
21
-2.42899
0
LINE
8
BLACK
6
CONTINUOUS
10
3.44605
20
-2.42899
11
3.44828
21
-2.4246
0
LINE
8
BLACK
6
CONTINUOUS
10
3.44828
20
-2.4246
11
3.45177
21
-2.42112
0
LINE
8
BLACK
6
CONTINUOUS
10
3.45177
20
-2.42112
11
3.45616
21
-2.41888
0
LINE
8
BLACK
6
CONTINUOUS
10
3.45616
20
-2.41888
11
3.45965
21
-2.41833
0
LINE
8
BLACK
6
CONTINUOUS
10
3.45965
20
-2.41833
11
3.45965
21
-2.24409
0
LINE
8
BLACK
6
CONTINUOUS
10
3.45965
20
-2.24409
11
3.45977
21
-2.24322
0
LINE
8
BLACK
6
CONTINUOUS
10
3.45977
20
-2.24322
11
3.45976
21
-2.24305
0
LINE
8
BLACK
6
CONTINUOUS
10
3.45976
20
-2.24305
11
3.45981
21
-2.24295
0
LINE
8
BLACK
6
CONTINUOUS
10
3.45981
20
-2.24295
11
3.45985
21
-2.24271
0
LINE
8
BLACK
6
CONTINUOUS
10
3.45985
20
-2.24271
11
3.4605
21
-2.24168
0
LINE
8
BLACK
6
CONTINUOUS
10
3.4605
20
-2.24168
11
3.46109
21
-2.24061
0
LINE
8
BLACK
6
CONTINUOUS
10
3.46109
20
-2.24061
11
3.46601
21
-2.23569
0
LINE
8
BLACK
6
CONTINUOUS
10
3.46601
20
-2.23569
11
3.46671
21
-2.23517
0
LINE
8
BLACK
6
CONTINUOUS
10
3.46671
20
-2.23517
11
3.46683
21
-2.23503
0
LINE
8
BLACK
6
CONTINUOUS
10
3.46683
20
-2.23503
11
3.46693
21
-2.235
0
LINE
8
BLACK
6
CONTINUOUS
10
3.46693
20
-2.235
11
3.46713
21
-2.23485
0
LINE
8
BLACK
6
CONTINUOUS
10
3.46713
20
-2.23485
11
3.46832
21
-2.23459
0
LINE
8
BLACK
6
CONTINUOUS
10
3.46832
20
-2.23459
11
3.46949
21
-2.23425
0
LINE
8
BLACK
6
CONTINUOUS
10
3.46949
20
-2.23425
11
3.48425
21
-2.23425
0
LINE
8
BLACK
6
CONTINUOUS
10
3.48425
20
-2.23425
11
3.48425
21
-2.18504
0
LINE
8
BLACK
6
CONTINUOUS
10
3.48425
20
-2.18504
11
3.52362
21
-2.18504
0
LINE
8
BLACK
6
CONTINUOUS
10
3.52362
20
-2.18504
11
3.52362
21
-2.29331
0
LINE
8
BLACK
6
CONTINUOUS
10
3.59148
20
-2.40235
11
3.59587
21
-2.40458
0
LINE
8
BLACK
6
CONTINUOUS
10
3.59587
20
-2.40458
11
3.59935
21
-2.40807
0
LINE
8
BLACK
6
CONTINUOUS
10
3.59935
20
-2.40807
11
3.60159
21
-2.41246
0
LINE
8
BLACK
6
CONTINUOUS
10
3.60159
20
-2.41246
11
3.60236
21
-2.41732
0
LINE
8
BLACK
6
CONTINUOUS
10
3.60236
20
-2.41732
11
3.60159
21
-2.42219
0
LINE
8
BLACK
6
CONTINUOUS
10
3.60159
20
-2.42219
11
3.59935
21
-2.42658
0
LINE
8
BLACK
6
CONTINUOUS
10
3.59935
20
-2.42658
11
3.59587
21
-2.43006
0
LINE
8
BLACK
6
CONTINUOUS
10
3.59587
20
-2.43006
11
3.59383
21
-2.4311
0
LINE
8
BLACK
6
CONTINUOUS
10
3.59383
20
-2.4311
11
3.60236
21
-2.4311
0
LINE
8
BLACK
6
CONTINUOUS
10
3.60236
20
-2.4311
11
3.60236
21
-2.53937
0
LINE
8
BLACK
6
CONTINUOUS
10
3.60236
20
-2.53937
11
3.59154
21
-2.53937
0
LINE
8
BLACK
6
CONTINUOUS
10
3.59154
20
-2.53937
11
3.59154
21
-2.54017
0
LINE
8
BLACK
6
CONTINUOUS
10
3.59154
20
-2.54017
11
3.59587
21
-2.54238
0
LINE
8
BLACK
6
CONTINUOUS
10
3.59587
20
-2.54238
11
3.59935
21
-2.54586
0
LINE
8
BLACK
6
CONTINUOUS
10
3.59935
20
-2.54586
11
3.60159
21
-2.55025
0
LINE
8
BLACK
6
CONTINUOUS
10
3.60159
20
-2.55025
11
3.60236
21
-2.55512
0
LINE
8
BLACK
6
CONTINUOUS
10
3.60236
20
-2.55512
11
3.60159
21
-2.55998
0
LINE
8
BLACK
6
CONTINUOUS
10
3.60159
20
-2.55998
11
3.59935
21
-2.56437
0
LINE
8
BLACK
6
CONTINUOUS
10
3.59935
20
-2.56437
11
3.59587
21
-2.56786
0
LINE
8
BLACK
6
CONTINUOUS
10
3.59587
20
-2.56786
11
3.59148
21
-2.5701
0
LINE
8
BLACK
6
CONTINUOUS
10
3.59148
20
-2.5701
11
3.58661
21
-2.57087
0
LINE
8
BLACK
6
CONTINUOUS
10
3.58661
20
-2.57087
11
3.58175
21
-2.5701
0
LINE
8
BLACK
6
CONTINUOUS
10
3.58175
20
-2.5701
11
3.57736
21
-2.56786
0
LINE
8
BLACK
6
CONTINUOUS
10
3.57736
20
-2.56786
11
3.57387
21
-2.56437
0
LINE
8
BLACK
6
CONTINUOUS
10
3.57387
20
-2.56437
11
3.57166
21
-2.56004
0
LINE
8
BLACK
6
CONTINUOUS
10
3.57166
20
-2.56004
11
3.57007
21
-2.56004
0
LINE
8
BLACK
6
CONTINUOUS
10
3.57007
20
-2.56004
11
3.56786
21
-2.56437
0
LINE
8
BLACK
6
CONTINUOUS
10
3.56786
20
-2.56437
11
3.56437
21
-2.56786
0
LINE
8
BLACK
6
CONTINUOUS
10
3.56437
20
-2.56786
11
3.55998
21
-2.5701
0
LINE
8
BLACK
6
CONTINUOUS
10
3.55998
20
-2.5701
11
3.55512
21
-2.57087
0
LINE
8
BLACK
6
CONTINUOUS
10
3.55512
20
-2.57087
11
3.55025
21
-2.5701
0
LINE
8
BLACK
6
CONTINUOUS
10
3.55025
20
-2.5701
11
3.54586
21
-2.56786
0
LINE
8
BLACK
6
CONTINUOUS
10
3.54586
20
-2.56786
11
3.54238
21
-2.56437
0
LINE
8
BLACK
6
CONTINUOUS
10
3.54238
20
-2.56437
11
3.54014
21
-2.55998
0
LINE
8
BLACK
6
CONTINUOUS
10
3.54014
20
-2.55998
11
3.53937
21
-2.55512
0
LINE
8
BLACK
6
CONTINUOUS
10
3.53937
20
-2.55512
11
3.54014
21
-2.55025
0
LINE
8
BLACK
6
CONTINUOUS
10
3.54014
20
-2.55025
11
3.54238
21
-2.54586
0
LINE
8
BLACK
6
CONTINUOUS
10
3.54238
20
-2.54586
11
3.54586
21
-2.54238
0
LINE
8
BLACK
6
CONTINUOUS
10
3.54586
20
-2.54238
11
3.5502
21
-2.54017
0
LINE
8
BLACK
6
CONTINUOUS
10
3.5502
20
-2.54017
11
3.5502
21
-2.5128
0
LINE
8
BLACK
6
CONTINUOUS
10
3.5502
20
-2.5128
11
3.55032
21
-2.51193
0
LINE
8
BLACK
6
CONTINUOUS
10
3.55032
20
-2.51193
11
3.55031
21
-2.51175
0
LINE
8
BLACK
6
CONTINUOUS
10
3.55031
20
-2.51175
11
3.55036
21
-2.51165
0
LINE
8
BLACK
6
CONTINUOUS
10
3.55036
20
-2.51165
11
3.5504
21
-2.51141
0
LINE
8
BLACK
6
CONTINUOUS
10
3.5504
20
-2.51141
11
3.55105
21
-2.51038
0
LINE
8
BLACK
6
CONTINUOUS
10
3.55105
20
-2.51038
11
3.55164
21
-2.50932
0
LINE
8
BLACK
6
CONTINUOUS
10
3.55164
20
-2.50932
11
3.56299
21
-2.49796
0
LINE
8
BLACK
6
CONTINUOUS
10
3.56299
20
-2.49796
11
3.56299
21
-2.47251
0
LINE
8
BLACK
6
CONTINUOUS
10
3.56299
20
-2.47251
11
3.55164
21
-2.46116
0
LINE
8
BLACK
6
CONTINUOUS
10
3.55164
20
-2.46116
11
3.55111
21
-2.46045
0
LINE
8
BLACK
6
CONTINUOUS
10
3.55111
20
-2.46045
11
3.55098
21
-2.46034
0
LINE
8
BLACK
6
CONTINUOUS
10
3.55098
20
-2.46034
11
3.55095
21
-2.46023
0
LINE
8
BLACK
6
CONTINUOUS
10
3.55095
20
-2.46023
11
3.5508
21
-2.46004
0
LINE
8
BLACK
6
CONTINUOUS
10
3.5508
20
-2.46004
11
3.55054
21
-2.45885
0
LINE
8
BLACK
6
CONTINUOUS
10
3.55054
20
-2.45885
11
3.5502
21
-2.45768
0
LINE
8
BLACK
6
CONTINUOUS
10
3.5502
20
-2.45768
11
3.5502
21
-2.43227
0
LINE
8
BLACK
6
CONTINUOUS
10
3.5502
20
-2.43227
11
3.54586
21
-2.43006
0
LINE
8
BLACK
6
CONTINUOUS
10
3.54586
20
-2.43006
11
3.54238
21
-2.42658
0
LINE
8
BLACK
6
CONTINUOUS
10
3.54238
20
-2.42658
11
3.54014
21
-2.42219
0
LINE
8
BLACK
6
CONTINUOUS
10
3.54014
20
-2.42219
11
3.53937
21
-2.41732
0
LINE
8
BLACK
6
CONTINUOUS
10
3.53937
20
-2.41732
11
3.54014
21
-2.41246
0
LINE
8
BLACK
6
CONTINUOUS
10
3.54014
20
-2.41246
11
3.54238
21
-2.40807
0
LINE
8
BLACK
6
CONTINUOUS
10
3.54238
20
-2.40807
11
3.54586
21
-2.40458
0
LINE
8
BLACK
6
CONTINUOUS
10
3.54586
20
-2.40458
11
3.55025
21
-2.40235
0
LINE
8
BLACK
6
CONTINUOUS
10
3.55025
20
-2.40235
11
3.55512
21
-2.40157
0
LINE
8
BLACK
6
CONTINUOUS
10
3.55512
20
-2.40157
11
3.55998
21
-2.40235
0
LINE
8
BLACK
6
CONTINUOUS
10
3.55998
20
-2.40235
11
3.56437
21
-2.40458
0
LINE
8
BLACK
6
CONTINUOUS
10
3.56437
20
-2.40458
11
3.56786
21
-2.40807
0
LINE
8
BLACK
6
CONTINUOUS
10
3.56786
20
-2.40807
11
3.57007
21
-2.4124
0
LINE
8
BLACK
6
CONTINUOUS
10
3.57007
20
-2.4124
11
3.57166
21
-2.4124
0
LINE
8
BLACK
6
CONTINUOUS
10
3.57166
20
-2.4124
11
3.57387
21
-2.40807
0
LINE
8
BLACK
6
CONTINUOUS
10
3.57387
20
-2.40807
11
3.57736
21
-2.40458
0
LINE
8
BLACK
6
CONTINUOUS
10
3.57736
20
-2.40458
11
3.58175
21
-2.40235
0
LINE
8
BLACK
6
CONTINUOUS
10
3.58175
20
-2.40235
11
3.58661
21
-2.40157
0
LINE
8
BLACK
6
CONTINUOUS
10
3.58661
20
-2.40157
11
3.59148
21
-2.40235
0
LINE
8
BLACK
6
CONTINUOUS
10
3.56004
20
-2.51483
11
3.56004
21
-2.54017
0
LINE
8
BLACK
6
CONTINUOUS
10
3.56004
20
-2.54017
11
3.56437
21
-2.54238
0
LINE
8
BLACK
6
CONTINUOUS
10
3.56437
20
-2.54238
11
3.56786
21
-2.54586
0
LINE
8
BLACK
6
CONTINUOUS
10
3.56786
20
-2.54586
11
3.57007
21
-2.5502
0
LINE
8
BLACK
6
CONTINUOUS
10
3.57007
20
-2.5502
11
3.57166
21
-2.5502
0
LINE
8
BLACK
6
CONTINUOUS
10
3.57166
20
-2.5502
11
3.57387
21
-2.54586
0
LINE
8
BLACK
6
CONTINUOUS
10
3.57387
20
-2.54586
11
3.57736
21
-2.54238
0
LINE
8
BLACK
6
CONTINUOUS
10
3.57736
20
-2.54238
11
3.58169
21
-2.54017
0
LINE
8
BLACK
6
CONTINUOUS
10
3.58169
20
-2.54017
11
3.58169
21
-2.53937
0
LINE
8
BLACK
6
CONTINUOUS
10
3.58169
20
-2.53937
11
3.56299
21
-2.53937
0
LINE
8
BLACK
6
CONTINUOUS
10
3.56299
20
-2.53937
11
3.56299
21
-2.51188
0
LINE
8
BLACK
6
CONTINUOUS
10
3.56299
20
-2.51188
11
3.56004
21
-2.51483
0
LINE
8
BLACK
6
CONTINUOUS
10
3.57007
20
-2.42224
11
3.56786
21
-2.42658
0
LINE
8
BLACK
6
CONTINUOUS
10
3.56786
20
-2.42658
11
3.56437
21
-2.43006
0
LINE
8
BLACK
6
CONTINUOUS
10
3.56437
20
-2.43006
11
3.56004
21
-2.43227
0
LINE
8
BLACK
6
CONTINUOUS
10
3.56004
20
-2.43227
11
3.56004
21
-2.45564
0
LINE
8
BLACK
6
CONTINUOUS
10
3.56004
20
-2.45564
11
3.56299
21
-2.45859
0
LINE
8
BLACK
6
CONTINUOUS
10
3.56299
20
-2.45859
11
3.56299
21
-2.4311
0
LINE
8
BLACK
6
CONTINUOUS
10
3.56299
20
-2.4311
11
3.5794
21
-2.4311
0
LINE
8
BLACK
6
CONTINUOUS
10
3.5794
20
-2.4311
11
3.57736
21
-2.43006
0
LINE
8
BLACK
6
CONTINUOUS
10
3.57736
20
-2.43006
11
3.57387
21
-2.42658
0
LINE
8
BLACK
6
CONTINUOUS
10
3.57387
20
-2.42658
11
3.57166
21
-2.42224
0
LINE
8
BLACK
6
CONTINUOUS
10
3.57166
20
-2.42224
11
3.57007
21
-2.42224
0
CIRCLE
8
BLACK
10
3.54331
20
-1.9685
40
0.0433071
0
CIRCLE
8
BLACK
10
2.75591
20
-1.9685
40
0.0433071
0
CIRCLE
8
BLACK
10
2.75591
20
-2.75591
40
0.0433071
0
CIRCLE
8
BLACK
10
3.41732
20
-2.50394
40
0.00787402
0
CIRCLE
8
BLACK
10
2.91339
20
-2.04724
40
0.00787402
0
CIRCLE
8
BLACK
10
3.54048
20
-2.31511
40
0.00787402
0
CIRCLE
8
BLACK
10
2.75873
20
-2.4093
40
0.00787402
0
CIRCLE
8
BLACK
10
2.99495
20
-2.72426
40
0.00787402
0
CIRCLE
8
BLACK
10
3.1967
20
-2.75308
40
0.00787402
0
CIRCLE
8
BLACK
10
3.30426
20
-2.00015
40
0.00787402
0
CIRCLE
8
BLACK
10
2.83465
20
-2.59843
40
0.00787402
0
CIRCLE
8
BLACK
10
3.40157
20
-2.66535
40
0.00787402
0
CIRCLE
8
BLACK
10
2.78755
20
-2.20755
40
0.00787402
0
CIRCLE
8
BLACK
10
3.46457
20
-2.12598
40
0.00787402
0
CIRCLE
8
BLACK
10
3.4748
20
-2.59921
40
0.00787402
0
CIRCLE
8
BLACK
10
3.10251
20
-1.97133
40
0.00787402
0
CIRCLE
8
BLACK
10
3.55512
20
-2.41732
40
0.00787402
0
CIRCLE
8
BLACK
10
3.26772
20
-2.75591
40
0.00787402
0
CIRCLE
8
BLACK
10
3.58661
20
-2.41732
40
0.00787402
0
CIRCLE
8
BLACK
10
3.58661
20
-2.55512
40
0.00787402
0
CIRCLE
8
BLACK
10
3.55512
20
-2.55512
40
0.00787402
0
CIRCLE
8
BLACK
10
3.34646
20
-2.75591
40
0.00787402
0
CIRCLE
8
BLACK
10
3.38583
20
-2.73622
40
0.00787402
0
CIRCLE
8
BLACK
10
3.30709
20
-2.75591
40
0.00787402
0
CIRCLE
8
BLACK
10
3.46102
20
-2.43386
40
0.00787402
  0
ENDSEC
  0
EOF
