  0
SECTION
  2
HEADER
  9
$ANGBASE
  50
0.0
  9
$ANGDIR
  70
1
  9
$MEASUREMENT
  70
0
  0
ENDSEC
  0
SECTION
  2
TABLES
  0
TABLE
  2
LTYPE
  70
4
  0
LTYPE
  5
40F
  2
CONTINUOUS
  70
0
  3
Solid line
  72
65
  73
0
  40
0.0
  0
LTYPE
  5
410
  2
DASHDOT
 70
0
  3
Dash Dot ____ _ ____ _
 72
65
 73
4
 40
2.0
 49
1.25
 49
-0.25
 49
0.25
 49
-0.25
  0
LTYPE
  5
411
  2
DASHED
 70
0
  3
Dashed __ __ __ __ __
 72
65
 73
2
 40
0.75
 49
0.5
 49
-0.25
  0
LTYPE
  5
43B
  2
DOTTED
 70
0
  3
Dotted .  .  .  .
 72
65
 73
2
 40
0.2
 49
0.0
 49
-0.2
  0
ENDTAB
  0
TABLE
  2
STYLE
  70
4
  0
STYLE
  2
KICAD
  70
0
  40
0
  41
1
  42
1
  50
0
  71
0
  3
isocp.shx
  0
STYLE
  2
KICADB
  70
0
  40
0
  41
1
  42
1
  50
0
  71
0
  3
isocp.shx
  0
STYLE
  2
KICADI
  70
0
  40
0
  41
1
  42
1
  50
15
  71
0
  3
isocp.shx
  0
STYLE
  2
KICADBI
  70
0
  40
0
  41
1
  42
1
  50
15
  71
0
  3
isocp.shx
  0
ENDTAB
  0
TABLE
  2
LAYER
  70
1
  0
LAYER
  2
BLACK
  70
0
  62
7
  6
CONTINUOUS
  0
ENDTAB
  0
ENDSEC
  0
SECTION
  2
ENTITIES
0
LINE
8
BLACK
6
CONTINUOUS
10
3.66628
20
-2.39447
11
3.67067
21
-2.39671
0
LINE
8
BLACK
6
CONTINUOUS
10
3.67067
20
-2.39671
11
3.67416
21
-2.40019
0
LINE
8
BLACK
6
CONTINUOUS
10
3.67416
20
-2.40019
11
3.67639
21
-2.40458
0
LINE
8
BLACK
6
CONTINUOUS
10
3.67639
20
-2.40458
11
3.67717
21
-2.40945
0
LINE
8
BLACK
6
CONTINUOUS
10
3.67717
20
-2.40945
11
3.67639
21
-2.41432
0
LINE
8
BLACK
6
CONTINUOUS
10
3.67639
20
-2.41432
11
3.67416
21
-2.41871
0
LINE
8
BLACK
6
CONTINUOUS
10
3.67416
20
-2.41871
11
3.67067
21
-2.42219
0
LINE
8
BLACK
6
CONTINUOUS
10
3.67067
20
-2.42219
11
3.66634
21
-2.4244
0
LINE
8
BLACK
6
CONTINUOUS
10
3.66634
20
-2.4244
11
3.66634
21
-2.44962
0
LINE
8
BLACK
6
CONTINUOUS
10
3.66634
20
-2.44962
11
3.67067
21
-2.45183
0
LINE
8
BLACK
6
CONTINUOUS
10
3.67067
20
-2.45183
11
3.67416
21
-2.45531
0
LINE
8
BLACK
6
CONTINUOUS
10
3.67416
20
-2.45531
11
3.67639
21
-2.4597
0
LINE
8
BLACK
6
CONTINUOUS
10
3.67639
20
-2.4597
11
3.67717
21
-2.46457
0
LINE
8
BLACK
6
CONTINUOUS
10
3.67717
20
-2.46457
11
3.67639
21
-2.46943
0
LINE
8
BLACK
6
CONTINUOUS
10
3.67639
20
-2.46943
11
3.67416
21
-2.47382
0
LINE
8
BLACK
6
CONTINUOUS
10
3.67416
20
-2.47382
11
3.67067
21
-2.47731
0
LINE
8
BLACK
6
CONTINUOUS
10
3.67067
20
-2.47731
11
3.66634
21
-2.47952
0
LINE
8
BLACK
6
CONTINUOUS
10
3.66634
20
-2.47952
11
3.66634
21
-2.49686
0
LINE
8
BLACK
6
CONTINUOUS
10
3.66634
20
-2.49686
11
3.67067
21
-2.49907
0
LINE
8
BLACK
6
CONTINUOUS
10
3.67067
20
-2.49907
11
3.67416
21
-2.50255
0
LINE
8
BLACK
6
CONTINUOUS
10
3.67416
20
-2.50255
11
3.67639
21
-2.50694
0
LINE
8
BLACK
6
CONTINUOUS
10
3.67639
20
-2.50694
11
3.67717
21
-2.51181
0
LINE
8
BLACK
6
CONTINUOUS
10
3.67717
20
-2.51181
11
3.67639
21
-2.51668
0
LINE
8
BLACK
6
CONTINUOUS
10
3.67639
20
-2.51668
11
3.67416
21
-2.52107
0
LINE
8
BLACK
6
CONTINUOUS
10
3.67416
20
-2.52107
11
3.67067
21
-2.52455
0
LINE
8
BLACK
6
CONTINUOUS
10
3.67067
20
-2.52455
11
3.66634
21
-2.52676
0
LINE
8
BLACK
6
CONTINUOUS
10
3.66634
20
-2.52676
11
3.66634
21
-2.54411
0
LINE
8
BLACK
6
CONTINUOUS
10
3.66634
20
-2.54411
11
3.67067
21
-2.54631
0
LINE
8
BLACK
6
CONTINUOUS
10
3.67067
20
-2.54631
11
3.67416
21
-2.5498
0
LINE
8
BLACK
6
CONTINUOUS
10
3.67416
20
-2.5498
11
3.67639
21
-2.55419
0
LINE
8
BLACK
6
CONTINUOUS
10
3.67639
20
-2.55419
11
3.67717
21
-2.55906
0
LINE
8
BLACK
6
CONTINUOUS
10
3.67717
20
-2.55906
11
3.67639
21
-2.56392
0
LINE
8
BLACK
6
CONTINUOUS
10
3.67639
20
-2.56392
11
3.67416
21
-2.56831
0
LINE
8
BLACK
6
CONTINUOUS
10
3.67416
20
-2.56831
11
3.67067
21
-2.5718
0
LINE
8
BLACK
6
CONTINUOUS
10
3.67067
20
-2.5718
11
3.66628
21
-2.57403
0
LINE
8
BLACK
6
CONTINUOUS
10
3.66628
20
-2.57403
11
3.66142
21
-2.5748
0
LINE
8
BLACK
6
CONTINUOUS
10
3.66142
20
-2.5748
11
3.65655
21
-2.57403
0
LINE
8
BLACK
6
CONTINUOUS
10
3.65655
20
-2.57403
11
3.65216
21
-2.5718
0
LINE
8
BLACK
6
CONTINUOUS
10
3.65216
20
-2.5718
11
3.64868
21
-2.56831
0
LINE
8
BLACK
6
CONTINUOUS
10
3.64868
20
-2.56831
11
3.64647
21
-2.56398
0
LINE
8
BLACK
6
CONTINUOUS
10
3.64647
20
-2.56398
11
3.637
21
-2.56398
0
LINE
8
BLACK
6
CONTINUOUS
10
3.637
20
-2.56398
11
3.63479
21
-2.56831
0
LINE
8
BLACK
6
CONTINUOUS
10
3.63479
20
-2.56831
11
3.6313
21
-2.5718
0
LINE
8
BLACK
6
CONTINUOUS
10
3.6313
20
-2.5718
11
3.62691
21
-2.57403
0
LINE
8
BLACK
6
CONTINUOUS
10
3.62691
20
-2.57403
11
3.62205
21
-2.5748
0
LINE
8
BLACK
6
CONTINUOUS
10
3.62205
20
-2.5748
11
3.61718
21
-2.57403
0
LINE
8
BLACK
6
CONTINUOUS
10
3.61718
20
-2.57403
11
3.61279
21
-2.5718
0
LINE
8
BLACK
6
CONTINUOUS
10
3.61279
20
-2.5718
11
3.60931
21
-2.56831
0
LINE
8
BLACK
6
CONTINUOUS
10
3.60931
20
-2.56831
11
3.60707
21
-2.56392
0
LINE
8
BLACK
6
CONTINUOUS
10
3.60707
20
-2.56392
11
3.6063
21
-2.55906
0
LINE
8
BLACK
6
CONTINUOUS
10
3.6063
20
-2.55906
11
3.60707
21
-2.55419
0
LINE
8
BLACK
6
CONTINUOUS
10
3.60707
20
-2.55419
11
3.60931
21
-2.5498
0
LINE
8
BLACK
6
CONTINUOUS
10
3.60931
20
-2.5498
11
3.61279
21
-2.54631
0
LINE
8
BLACK
6
CONTINUOUS
10
3.61279
20
-2.54631
11
3.61713
21
-2.54411
0
LINE
8
BLACK
6
CONTINUOUS
10
3.61713
20
-2.54411
11
3.61713
21
-2.53937
0
LINE
8
BLACK
6
CONTINUOUS
10
3.61713
20
-2.53937
11
3.60236
21
-2.53937
0
LINE
8
BLACK
6
CONTINUOUS
10
3.60236
20
-2.53937
11
3.60236
21
-2.4311
0
LINE
8
BLACK
6
CONTINUOUS
10
3.60236
20
-2.4311
11
3.61713
21
-2.4311
0
LINE
8
BLACK
6
CONTINUOUS
10
3.61713
20
-2.4311
11
3.61713
21
-2.4244
0
LINE
8
BLACK
6
CONTINUOUS
10
3.61713
20
-2.4244
11
3.61279
21
-2.42219
0
LINE
8
BLACK
6
CONTINUOUS
10
3.61279
20
-2.42219
11
3.60931
21
-2.41871
0
LINE
8
BLACK
6
CONTINUOUS
10
3.60931
20
-2.41871
11
3.60707
21
-2.41432
0
LINE
8
BLACK
6
CONTINUOUS
10
3.60707
20
-2.41432
11
3.6063
21
-2.40945
0
LINE
8
BLACK
6
CONTINUOUS
10
3.6063
20
-2.40945
11
3.60707
21
-2.40458
0
LINE
8
BLACK
6
CONTINUOUS
10
3.60707
20
-2.40458
11
3.60931
21
-2.40019
0
LINE
8
BLACK
6
CONTINUOUS
10
3.60931
20
-2.40019
11
3.61279
21
-2.39671
0
LINE
8
BLACK
6
CONTINUOUS
10
3.61279
20
-2.39671
11
3.61718
21
-2.39447
0
LINE
8
BLACK
6
CONTINUOUS
10
3.61718
20
-2.39447
11
3.62205
21
-2.3937
0
LINE
8
BLACK
6
CONTINUOUS
10
3.62205
20
-2.3937
11
3.62691
21
-2.39447
0
LINE
8
BLACK
6
CONTINUOUS
10
3.62691
20
-2.39447
11
3.6313
21
-2.39671
0
LINE
8
BLACK
6
CONTINUOUS
10
3.6313
20
-2.39671
11
3.63479
21
-2.40019
0
LINE
8
BLACK
6
CONTINUOUS
10
3.63479
20
-2.40019
11
3.637
21
-2.40453
0
LINE
8
BLACK
6
CONTINUOUS
10
3.637
20
-2.40453
11
3.64647
21
-2.40453
0
LINE
8
BLACK
6
CONTINUOUS
10
3.64647
20
-2.40453
11
3.64868
21
-2.40019
0
LINE
8
BLACK
6
CONTINUOUS
10
3.64868
20
-2.40019
11
3.65216
21
-2.39671
0
LINE
8
BLACK
6
CONTINUOUS
10
3.65216
20
-2.39671
11
3.65655
21
-2.39447
0
LINE
8
BLACK
6
CONTINUOUS
10
3.65655
20
-2.39447
11
3.66142
21
-2.3937
0
LINE
8
BLACK
6
CONTINUOUS
10
3.66142
20
-2.3937
11
3.66628
21
-2.39447
0
LINE
8
BLACK
6
CONTINUOUS
10
3.64173
20
-2.53937
11
3.62697
21
-2.53937
0
LINE
8
BLACK
6
CONTINUOUS
10
3.62697
20
-2.53937
11
3.62697
21
-2.54411
0
LINE
8
BLACK
6
CONTINUOUS
10
3.62697
20
-2.54411
11
3.6313
21
-2.54631
0
LINE
8
BLACK
6
CONTINUOUS
10
3.6313
20
-2.54631
11
3.63479
21
-2.5498
0
LINE
8
BLACK
6
CONTINUOUS
10
3.63479
20
-2.5498
11
3.637
21
-2.55413
0
LINE
8
BLACK
6
CONTINUOUS
10
3.637
20
-2.55413
11
3.64647
21
-2.55413
0
LINE
8
BLACK
6
CONTINUOUS
10
3.64647
20
-2.55413
11
3.64868
21
-2.5498
0
LINE
8
BLACK
6
CONTINUOUS
10
3.64868
20
-2.5498
11
3.65216
21
-2.54631
0
LINE
8
BLACK
6
CONTINUOUS
10
3.65216
20
-2.54631
11
3.6565
21
-2.54411
0
LINE
8
BLACK
6
CONTINUOUS
10
3.6565
20
-2.54411
11
3.6565
21
-2.52676
0
LINE
8
BLACK
6
CONTINUOUS
10
3.6565
20
-2.52676
11
3.65216
21
-2.52455
0
LINE
8
BLACK
6
CONTINUOUS
10
3.65216
20
-2.52455
11
3.64868
21
-2.52107
0
LINE
8
BLACK
6
CONTINUOUS
10
3.64868
20
-2.52107
11
3.64644
21
-2.51668
0
LINE
8
BLACK
6
CONTINUOUS
10
3.64644
20
-2.51668
11
3.64632
21
-2.51595
0
LINE
8
BLACK
6
CONTINUOUS
10
3.64632
20
-2.51595
11
3.64621
21
-2.51587
0
LINE
8
BLACK
6
CONTINUOUS
10
3.64621
20
-2.51587
11
3.64514
21
-2.51529
0
LINE
8
BLACK
6
CONTINUOUS
10
3.64514
20
-2.51529
11
3.64173
21
-2.51188
0
LINE
8
BLACK
6
CONTINUOUS
10
3.64173
20
-2.51188
11
3.64173
21
-2.53937
0
LINE
8
BLACK
6
CONTINUOUS
10
3.64475
20
-2.46949
11
3.64173
21
-2.47251
0
LINE
8
BLACK
6
CONTINUOUS
10
3.64173
20
-2.47251
11
3.64173
21
-2.49796
0
LINE
8
BLACK
6
CONTINUOUS
10
3.64173
20
-2.49796
11
3.64788
21
-2.50411
0
LINE
8
BLACK
6
CONTINUOUS
10
3.64788
20
-2.50411
11
3.64868
21
-2.50255
0
LINE
8
BLACK
6
CONTINUOUS
10
3.64868
20
-2.50255
11
3.65216
21
-2.49907
0
LINE
8
BLACK
6
CONTINUOUS
10
3.65216
20
-2.49907
11
3.6565
21
-2.49686
0
LINE
8
BLACK
6
CONTINUOUS
10
3.6565
20
-2.49686
11
3.6565
21
-2.47952
0
LINE
8
BLACK
6
CONTINUOUS
10
3.6565
20
-2.47952
11
3.65216
21
-2.47731
0
LINE
8
BLACK
6
CONTINUOUS
10
3.65216
20
-2.47731
11
3.64868
21
-2.47382
0
LINE
8
BLACK
6
CONTINUOUS
10
3.64868
20
-2.47382
11
3.64647
21
-2.46949
0
LINE
8
BLACK
6
CONTINUOUS
10
3.64647
20
-2.46949
11
3.64475
21
-2.46949
0
LINE
8
BLACK
6
CONTINUOUS
10
3.637
20
-2.41437
11
3.63479
21
-2.41871
0
LINE
8
BLACK
6
CONTINUOUS
10
3.63479
20
-2.41871
11
3.6313
21
-2.42219
0
LINE
8
BLACK
6
CONTINUOUS
10
3.6313
20
-2.42219
11
3.62697
21
-2.4244
0
LINE
8
BLACK
6
CONTINUOUS
10
3.62697
20
-2.4244
11
3.62697
21
-2.4311
0
LINE
8
BLACK
6
CONTINUOUS
10
3.62697
20
-2.4311
11
3.64173
21
-2.4311
0
LINE
8
BLACK
6
CONTINUOUS
10
3.64173
20
-2.4311
11
3.64173
21
-2.45993
0
LINE
8
BLACK
6
CONTINUOUS
10
3.64173
20
-2.45993
11
3.64272
21
-2.45965
0
LINE
8
BLACK
6
CONTINUOUS
10
3.64272
20
-2.45965
11
3.64647
21
-2.45965
0
LINE
8
BLACK
6
CONTINUOUS
10
3.64647
20
-2.45965
11
3.64868
21
-2.45531
0
LINE
8
BLACK
6
CONTINUOUS
10
3.64868
20
-2.45531
11
3.65216
21
-2.45183
0
LINE
8
BLACK
6
CONTINUOUS
10
3.65216
20
-2.45183
11
3.6565
21
-2.44962
0
LINE
8
BLACK
6
CONTINUOUS
10
3.6565
20
-2.44962
11
3.6565
21
-2.4244
0
LINE
8
BLACK
6
CONTINUOUS
10
3.6565
20
-2.4244
11
3.65216
21
-2.42219
0
LINE
8
BLACK
6
CONTINUOUS
10
3.65216
20
-2.42219
11
3.64868
21
-2.41871
0
LINE
8
BLACK
6
CONTINUOUS
10
3.64868
20
-2.41871
11
3.64647
21
-2.41437
0
LINE
8
BLACK
6
CONTINUOUS
10
3.64647
20
-2.41437
11
3.637
21
-2.41437
0
LINE
8
BLACK
6
CONTINUOUS
10
3.56299
20
-2.53937
11
3.52362
21
-2.53937
0
LINE
8
BLACK
6
CONTINUOUS
10
3.52362
20
-2.53937
11
3.52362
21
-2.48917
0
LINE
8
BLACK
6
CONTINUOUS
10
3.52362
20
-2.48917
11
3.48345
21
-2.48917
0
LINE
8
BLACK
6
CONTINUOUS
10
3.48345
20
-2.48917
11
3.48124
21
-2.49351
0
LINE
8
BLACK
6
CONTINUOUS
10
3.48124
20
-2.49351
11
3.47776
21
-2.49699
0
LINE
8
BLACK
6
CONTINUOUS
10
3.47776
20
-2.49699
11
3.47337
21
-2.49923
0
LINE
8
BLACK
6
CONTINUOUS
10
3.47337
20
-2.49923
11
3.4685
21
-2.5
0
LINE
8
BLACK
6
CONTINUOUS
10
3.4685
20
-2.5
11
3.46364
21
-2.49923
0
LINE
8
BLACK
6
CONTINUOUS
10
3.46364
20
-2.49923
11
3.45925
21
-2.49699
0
LINE
8
BLACK
6
CONTINUOUS
10
3.45925
20
-2.49699
11
3.45576
21
-2.49351
0
LINE
8
BLACK
6
CONTINUOUS
10
3.45576
20
-2.49351
11
3.45353
21
-2.48912
0
LINE
8
BLACK
6
CONTINUOUS
10
3.45353
20
-2.48912
11
3.45276
21
-2.48425
0
LINE
8
BLACK
6
CONTINUOUS
10
3.45276
20
-2.48425
11
3.45353
21
-2.47939
0
LINE
8
BLACK
6
CONTINUOUS
10
3.45353
20
-2.47939
11
3.45576
21
-2.475
0
LINE
8
BLACK
6
CONTINUOUS
10
3.45576
20
-2.475
11
3.45925
21
-2.47151
0
LINE
8
BLACK
6
CONTINUOUS
10
3.45925
20
-2.47151
11
3.46364
21
-2.46927
0
LINE
8
BLACK
6
CONTINUOUS
10
3.46364
20
-2.46927
11
3.4685
21
-2.4685
0
LINE
8
BLACK
6
CONTINUOUS
10
3.4685
20
-2.4685
11
3.47337
21
-2.46927
0
LINE
8
BLACK
6
CONTINUOUS
10
3.47337
20
-2.46927
11
3.47776
21
-2.47151
0
LINE
8
BLACK
6
CONTINUOUS
10
3.47776
20
-2.47151
11
3.48124
21
-2.475
0
LINE
8
BLACK
6
CONTINUOUS
10
3.48124
20
-2.475
11
3.48345
21
-2.47933
0
LINE
8
BLACK
6
CONTINUOUS
10
3.48345
20
-2.47933
11
3.52362
21
-2.47933
0
LINE
8
BLACK
6
CONTINUOUS
10
3.52362
20
-2.47933
11
3.52362
21
-2.4311
0
LINE
8
BLACK
6
CONTINUOUS
10
3.52362
20
-2.4311
11
3.56299
21
-2.4311
0
LINE
8
BLACK
6
CONTINUOUS
10
3.56299
20
-2.4311
11
3.56299
21
-2.53937
0
LINE
8
BLACK
6
CONTINUOUS
10
3.56299
20
-2.29331
11
3.54823
21
-2.29331
0
LINE
8
BLACK
6
CONTINUOUS
10
3.54823
20
-2.29331
11
3.54823
21
-2.3886
0
LINE
8
BLACK
6
CONTINUOUS
10
3.54823
20
-2.3886
11
3.5481
21
-2.38947
0
LINE
8
BLACK
6
CONTINUOUS
10
3.5481
20
-2.38947
11
3.54812
21
-2.38965
0
LINE
8
BLACK
6
CONTINUOUS
10
3.54812
20
-2.38965
11
3.54806
21
-2.38974
0
LINE
8
BLACK
6
CONTINUOUS
10
3.54806
20
-2.38974
11
3.54803
21
-2.38999
0
LINE
8
BLACK
6
CONTINUOUS
10
3.54803
20
-2.38999
11
3.54737
21
-2.39101
0
LINE
8
BLACK
6
CONTINUOUS
10
3.54737
20
-2.39101
11
3.54679
21
-2.39208
0
LINE
8
BLACK
6
CONTINUOUS
10
3.54679
20
-2.39208
11
3.53847
21
-2.4004
0
LINE
8
BLACK
6
CONTINUOUS
10
3.53847
20
-2.4004
11
3.5386
21
-2.40065
0
LINE
8
BLACK
6
CONTINUOUS
10
3.5386
20
-2.40065
11
3.53937
21
-2.40551
0
LINE
8
BLACK
6
CONTINUOUS
10
3.53937
20
-2.40551
11
3.5386
21
-2.41038
0
LINE
8
BLACK
6
CONTINUOUS
10
3.5386
20
-2.41038
11
3.53636
21
-2.41477
0
LINE
8
BLACK
6
CONTINUOUS
10
3.53636
20
-2.41477
11
3.53288
21
-2.41825
0
LINE
8
BLACK
6
CONTINUOUS
10
3.53288
20
-2.41825
11
3.52849
21
-2.42049
0
LINE
8
BLACK
6
CONTINUOUS
10
3.52849
20
-2.42049
11
3.52362
21
-2.42126
0
LINE
8
BLACK
6
CONTINUOUS
10
3.52362
20
-2.42126
11
3.51876
21
-2.42049
0
LINE
8
BLACK
6
CONTINUOUS
10
3.51876
20
-2.42049
11
3.51437
21
-2.41825
0
LINE
8
BLACK
6
CONTINUOUS
10
3.51437
20
-2.41825
11
3.51088
21
-2.41477
0
LINE
8
BLACK
6
CONTINUOUS
10
3.51088
20
-2.41477
11
3.50864
21
-2.41038
0
LINE
8
BLACK
6
CONTINUOUS
10
3.50864
20
-2.41038
11
3.50787
21
-2.40551
0
LINE
8
BLACK
6
CONTINUOUS
10
3.50787
20
-2.40551
11
3.50864
21
-2.40065
0
LINE
8
BLACK
6
CONTINUOUS
10
3.50864
20
-2.40065
11
3.51088
21
-2.39626
0
LINE
8
BLACK
6
CONTINUOUS
10
3.51088
20
-2.39626
11
3.51437
21
-2.39277
0
LINE
8
BLACK
6
CONTINUOUS
10
3.51437
20
-2.39277
11
3.51876
21
-2.39053
0
LINE
8
BLACK
6
CONTINUOUS
10
3.51876
20
-2.39053
11
3.52362
21
-2.38976
0
LINE
8
BLACK
6
CONTINUOUS
10
3.52362
20
-2.38976
11
3.52849
21
-2.39053
0
LINE
8
BLACK
6
CONTINUOUS
10
3.52849
20
-2.39053
11
3.53241
21
-2.39254
0
LINE
8
BLACK
6
CONTINUOUS
10
3.53241
20
-2.39254
11
3.53839
21
-2.38656
0
LINE
8
BLACK
6
CONTINUOUS
10
3.53839
20
-2.38656
11
3.53839
21
-2.29331
0
LINE
8
BLACK
6
CONTINUOUS
10
3.53839
20
-2.29331
11
3.52362
21
-2.29331
0
LINE
8
BLACK
6
CONTINUOUS
10
3.52362
20
-2.29331
11
3.52362
21
-2.18504
0
LINE
8
BLACK
6
CONTINUOUS
10
3.52362
20
-2.18504
11
3.56299
21
-2.18504
0
LINE
8
BLACK
6
CONTINUOUS
10
3.56299
20
-2.18504
11
3.56299
21
-2.29331
0
LINE
8
BLACK
6
CONTINUOUS
10
3.66152
20
-1.81105
11
3.66321
21
-1.8112
0
LINE
8
BLACK
6
CONTINUOUS
10
3.66321
20
-1.8112
11
3.66818
21
-1.81169
0
LINE
8
BLACK
6
CONTINUOUS
10
3.66818
20
-1.81169
11
3.66896
21
-1.81183
0
LINE
8
BLACK
6
CONTINUOUS
10
3.66896
20
-1.81183
11
3.67155
21
-1.81253
0
LINE
8
BLACK
6
CONTINUOUS
10
3.67155
20
-1.81253
11
3.67162
21
-1.81255
0
LINE
8
BLACK
6
CONTINUOUS
10
3.67162
20
-1.81255
11
3.67526
21
-1.81365
0
LINE
8
BLACK
6
CONTINUOUS
10
3.67526
20
-1.81365
11
3.6759
21
-1.8139
0
LINE
8
BLACK
6
CONTINUOUS
10
3.6759
20
-1.8139
11
3.67856
21
-1.81513
0
LINE
8
BLACK
6
CONTINUOUS
10
3.67856
20
-1.81513
11
3.67868
21
-1.81519
0
LINE
8
BLACK
6
CONTINUOUS
10
3.67868
20
-1.81519
11
3.68016
21
-1.81598
0
LINE
8
BLACK
6
CONTINUOUS
10
3.68016
20
-1.81598
11
3.68198
21
-1.81696
0
LINE
8
BLACK
6
CONTINUOUS
10
3.68198
20
-1.81696
11
3.68223
21
-1.81711
0
LINE
8
BLACK
6
CONTINUOUS
10
3.68223
20
-1.81711
11
3.68484
21
-1.81894
0
LINE
8
BLACK
6
CONTINUOUS
10
3.68484
20
-1.81894
11
3.68498
21
-1.81905
0
LINE
8
BLACK
6
CONTINUOUS
10
3.68498
20
-1.81905
11
3.68783
21
-1.82138
0
LINE
8
BLACK
6
CONTINUOUS
10
3.68783
20
-1.82138
11
3.688
21
-1.82154
0
LINE
8
BLACK
6
CONTINUOUS
10
3.688
20
-1.82154
11
3.69027
21
-1.82381
0
LINE
8
BLACK
6
CONTINUOUS
10
3.69027
20
-1.82381
11
3.69043
21
-1.82398
0
LINE
8
BLACK
6
CONTINUOUS
10
3.69043
20
-1.82398
11
3.69276
21
-1.82683
0
LINE
8
BLACK
6
CONTINUOUS
10
3.69276
20
-1.82683
11
3.69287
21
-1.82698
0
LINE
8
BLACK
6
CONTINUOUS
10
3.69287
20
-1.82698
11
3.6947
21
-1.82958
0
LINE
8
BLACK
6
CONTINUOUS
10
3.6947
20
-1.82958
11
3.69485
21
-1.82983
0
LINE
8
BLACK
6
CONTINUOUS
10
3.69485
20
-1.82983
11
3.69662
21
-1.83313
0
LINE
8
BLACK
6
CONTINUOUS
10
3.69662
20
-1.83313
11
3.69668
21
-1.83325
0
LINE
8
BLACK
6
CONTINUOUS
10
3.69668
20
-1.83325
11
3.69792
21
-1.83591
0
LINE
8
BLACK
6
CONTINUOUS
10
3.69792
20
-1.83591
11
3.69816
21
-1.83655
0
LINE
8
BLACK
6
CONTINUOUS
10
3.69816
20
-1.83655
11
3.69926
21
-1.84018
0
LINE
8
BLACK
6
CONTINUOUS
10
3.69926
20
-1.84018
11
3.69929
21
-1.84026
0
LINE
8
BLACK
6
CONTINUOUS
10
3.69929
20
-1.84026
11
3.69998
21
-1.84285
0
LINE
8
BLACK
6
CONTINUOUS
10
3.69998
20
-1.84285
11
3.70012
21
-1.84363
0
LINE
8
BLACK
6
CONTINUOUS
10
3.70012
20
-1.84363
11
3.70061
21
-1.8486
0
LINE
8
BLACK
6
CONTINUOUS
10
3.70061
20
-1.8486
11
3.70076
21
-1.85029
0
LINE
8
BLACK
6
CONTINUOUS
10
3.70076
20
-1.85029
11
3.70077
21
-1.8505
0
LINE
8
BLACK
6
CONTINUOUS
10
3.70077
20
-1.8505
11
3.70077
21
-2.87391
0
LINE
8
BLACK
6
CONTINUOUS
10
3.70077
20
-2.87391
11
3.70076
21
-2.87412
0
LINE
8
BLACK
6
CONTINUOUS
10
3.70076
20
-2.87412
11
3.70061
21
-2.8758
0
LINE
8
BLACK
6
CONTINUOUS
10
3.70061
20
-2.8758
11
3.70012
21
-2.88078
0
LINE
8
BLACK
6
CONTINUOUS
10
3.70012
20
-2.88078
11
3.69998
21
-2.88156
0
LINE
8
BLACK
6
CONTINUOUS
10
3.69998
20
-2.88156
11
3.69929
21
-2.88415
0
LINE
8
BLACK
6
CONTINUOUS
10
3.69929
20
-2.88415
11
3.69926
21
-2.88422
0
LINE
8
BLACK
6
CONTINUOUS
10
3.69926
20
-2.88422
11
3.69816
21
-2.88786
0
LINE
8
BLACK
6
CONTINUOUS
10
3.69816
20
-2.88786
11
3.69792
21
-2.8885
0
LINE
8
BLACK
6
CONTINUOUS
10
3.69792
20
-2.8885
11
3.69668
21
-2.89116
0
LINE
8
BLACK
6
CONTINUOUS
10
3.69668
20
-2.89116
11
3.69662
21
-2.89128
0
LINE
8
BLACK
6
CONTINUOUS
10
3.69662
20
-2.89128
11
3.69485
21
-2.89458
0
LINE
8
BLACK
6
CONTINUOUS
10
3.69485
20
-2.89458
11
3.6947
21
-2.89483
0
LINE
8
BLACK
6
CONTINUOUS
10
3.6947
20
-2.89483
11
3.69287
21
-2.89743
0
LINE
8
BLACK
6
CONTINUOUS
10
3.69287
20
-2.89743
11
3.69276
21
-2.89758
0
LINE
8
BLACK
6
CONTINUOUS
10
3.69276
20
-2.89758
11
3.69043
21
-2.90043
0
LINE
8
BLACK
6
CONTINUOUS
10
3.69043
20
-2.90043
11
3.69027
21
-2.9006
0
LINE
8
BLACK
6
CONTINUOUS
10
3.69027
20
-2.9006
11
3.688
21
-2.90287
0
LINE
8
BLACK
6
CONTINUOUS
10
3.688
20
-2.90287
11
3.68783
21
-2.90303
0
LINE
8
BLACK
6
CONTINUOUS
10
3.68783
20
-2.90303
11
3.68498
21
-2.90536
0
LINE
8
BLACK
6
CONTINUOUS
10
3.68498
20
-2.90536
11
3.68484
21
-2.90547
0
LINE
8
BLACK
6
CONTINUOUS
10
3.68484
20
-2.90547
11
3.68223
21
-2.9073
0
LINE
8
BLACK
6
CONTINUOUS
10
3.68223
20
-2.9073
11
3.68198
21
-2.90745
0
LINE
8
BLACK
6
CONTINUOUS
10
3.68198
20
-2.90745
11
3.67868
21
-2.90922
0
LINE
8
BLACK
6
CONTINUOUS
10
3.67868
20
-2.90922
11
3.67856
21
-2.90928
0
LINE
8
BLACK
6
CONTINUOUS
10
3.67856
20
-2.90928
11
3.6759
21
-2.91051
0
LINE
8
BLACK
6
CONTINUOUS
10
3.6759
20
-2.91051
11
3.67526
21
-2.91076
0
LINE
8
BLACK
6
CONTINUOUS
10
3.67526
20
-2.91076
11
3.67163
21
-2.91186
0
LINE
8
BLACK
6
CONTINUOUS
10
3.67163
20
-2.91186
11
3.67155
21
-2.91188
0
LINE
8
BLACK
6
CONTINUOUS
10
3.67155
20
-2.91188
11
3.66896
21
-2.91258
0
LINE
8
BLACK
6
CONTINUOUS
10
3.66896
20
-2.91258
11
3.66818
21
-2.91272
0
LINE
8
BLACK
6
CONTINUOUS
10
3.66818
20
-2.91272
11
3.66321
21
-2.91321
0
LINE
8
BLACK
6
CONTINUOUS
10
3.66321
20
-2.91321
11
3.6617
21
-2.91334
0
LINE
8
BLACK
6
CONTINUOUS
10
3.6617
20
-2.91334
11
3.66152
21
-2.91336
0
LINE
8
BLACK
6
CONTINUOUS
10
3.66152
20
-2.91336
11
3.66131
21
-2.91337
0
LINE
8
BLACK
6
CONTINUOUS
10
3.66131
20
-2.91337
11
2.6379
21
-2.91337
0
LINE
8
BLACK
6
CONTINUOUS
10
2.6379
20
-2.91337
11
2.63769
21
-2.91336
0
LINE
8
BLACK
6
CONTINUOUS
10
2.63769
20
-2.91336
11
2.63749
21
-2.91334
0
LINE
8
BLACK
6
CONTINUOUS
10
2.63749
20
-2.91334
11
2.63601
21
-2.91321
0
LINE
8
BLACK
6
CONTINUOUS
10
2.63601
20
-2.91321
11
2.63103
21
-2.91272
0
LINE
8
BLACK
6
CONTINUOUS
10
2.63103
20
-2.91272
11
2.63025
21
-2.91258
0
LINE
8
BLACK
6
CONTINUOUS
10
2.63025
20
-2.91258
11
2.62766
21
-2.91188
0
LINE
8
BLACK
6
CONTINUOUS
10
2.62766
20
-2.91188
11
2.62759
21
-2.91186
0
LINE
8
BLACK
6
CONTINUOUS
10
2.62759
20
-2.91186
11
2.62611
21
-2.91141
0
LINE
8
BLACK
6
CONTINUOUS
10
2.62611
20
-2.91141
11
2.62395
21
-2.91076
0
LINE
8
BLACK
6
CONTINUOUS
10
2.62395
20
-2.91076
11
2.62331
21
-2.91051
0
LINE
8
BLACK
6
CONTINUOUS
10
2.62331
20
-2.91051
11
2.62065
21
-2.90928
0
LINE
8
BLACK
6
CONTINUOUS
10
2.62065
20
-2.90928
11
2.62054
21
-2.90922
0
LINE
8
BLACK
6
CONTINUOUS
10
2.62054
20
-2.90922
11
2.61723
21
-2.90745
0
LINE
8
BLACK
6
CONTINUOUS
10
2.61723
20
-2.90745
11
2.61698
21
-2.9073
0
LINE
8
BLACK
6
CONTINUOUS
10
2.61698
20
-2.9073
11
2.61438
21
-2.90547
0
LINE
8
BLACK
6
CONTINUOUS
10
2.61438
20
-2.90547
11
2.61423
21
-2.90536
0
LINE
8
BLACK
6
CONTINUOUS
10
2.61423
20
-2.90536
11
2.61139
21
-2.90303
0
LINE
8
BLACK
6
CONTINUOUS
10
2.61139
20
-2.90303
11
2.61121
21
-2.90287
0
LINE
8
BLACK
6
CONTINUOUS
10
2.61121
20
-2.90287
11
2.60894
21
-2.9006
0
LINE
8
BLACK
6
CONTINUOUS
10
2.60894
20
-2.9006
11
2.60878
21
-2.90043
0
LINE
8
BLACK
6
CONTINUOUS
10
2.60878
20
-2.90043
11
2.60645
21
-2.89758
0
LINE
8
BLACK
6
CONTINUOUS
10
2.60645
20
-2.89758
11
2.60634
21
-2.89743
0
LINE
8
BLACK
6
CONTINUOUS
10
2.60634
20
-2.89743
11
2.60451
21
-2.89483
0
LINE
8
BLACK
6
CONTINUOUS
10
2.60451
20
-2.89483
11
2.60436
21
-2.89458
0
LINE
8
BLACK
6
CONTINUOUS
10
2.60436
20
-2.89458
11
2.60339
21
-2.89275
0
LINE
8
BLACK
6
CONTINUOUS
10
2.60339
20
-2.89275
11
2.60259
21
-2.89127
0
LINE
8
BLACK
6
CONTINUOUS
10
2.60259
20
-2.89127
11
2.60254
21
-2.89116
0
LINE
8
BLACK
6
CONTINUOUS
10
2.60254
20
-2.89116
11
2.6013
21
-2.8885
0
LINE
8
BLACK
6
CONTINUOUS
10
2.6013
20
-2.8885
11
2.60105
21
-2.88786
0
LINE
8
BLACK
6
CONTINUOUS
10
2.60105
20
-2.88786
11
2.59995
21
-2.88422
0
LINE
8
BLACK
6
CONTINUOUS
10
2.59995
20
-2.88422
11
2.59993
21
-2.88415
0
LINE
8
BLACK
6
CONTINUOUS
10
2.59993
20
-2.88415
11
2.59923
21
-2.88156
0
LINE
8
BLACK
6
CONTINUOUS
10
2.59923
20
-2.88156
11
2.59909
21
-2.88078
0
LINE
8
BLACK
6
CONTINUOUS
10
2.59909
20
-2.88078
11
2.5986
21
-2.8758
0
LINE
8
BLACK
6
CONTINUOUS
10
2.5986
20
-2.8758
11
2.59845
21
-2.87412
0
LINE
8
BLACK
6
CONTINUOUS
10
2.59845
20
-2.87412
11
2.59844
21
-2.87391
0
LINE
8
BLACK
6
CONTINUOUS
10
2.59844
20
-2.87391
11
2.59844
21
-2.36221
0
LINE
8
BLACK
6
CONTINUOUS
10
2.59844
20
-2.36221
11
2.59844
21
-1.8505
0
LINE
8
BLACK
6
CONTINUOUS
10
2.59844
20
-1.8505
11
2.59845
21
-1.85029
0
LINE
8
BLACK
6
CONTINUOUS
10
2.59845
20
-1.85029
11
2.5986
21
-1.84861
0
LINE
8
BLACK
6
CONTINUOUS
10
2.5986
20
-1.84861
11
2.59865
21
-1.8481
0
LINE
8
BLACK
6
CONTINUOUS
10
2.59865
20
-1.8481
11
2.59909
21
-1.84363
0
LINE
8
BLACK
6
CONTINUOUS
10
2.59909
20
-1.84363
11
2.59923
21
-1.84285
0
LINE
8
BLACK
6
CONTINUOUS
10
2.59923
20
-1.84285
11
2.59993
21
-1.84026
0
LINE
8
BLACK
6
CONTINUOUS
10
2.59993
20
-1.84026
11
2.59995
21
-1.84019
0
LINE
8
BLACK
6
CONTINUOUS
10
2.59995
20
-1.84019
11
2.60105
21
-1.83655
0
LINE
8
BLACK
6
CONTINUOUS
10
2.60105
20
-1.83655
11
2.6013
21
-1.83591
0
LINE
8
BLACK
6
CONTINUOUS
10
2.6013
20
-1.83591
11
2.60254
21
-1.83325
0
LINE
8
BLACK
6
CONTINUOUS
10
2.60254
20
-1.83325
11
2.60259
21
-1.83314
0
LINE
8
BLACK
6
CONTINUOUS
10
2.60259
20
-1.83314
11
2.60436
21
-1.82983
0
LINE
8
BLACK
6
CONTINUOUS
10
2.60436
20
-1.82983
11
2.60451
21
-1.82958
0
LINE
8
BLACK
6
CONTINUOUS
10
2.60451
20
-1.82958
11
2.60582
21
-1.82771
0
LINE
8
BLACK
6
CONTINUOUS
10
2.60582
20
-1.82771
11
2.60634
21
-1.82697
0
LINE
8
BLACK
6
CONTINUOUS
10
2.60634
20
-1.82697
11
2.60645
21
-1.82683
0
LINE
8
BLACK
6
CONTINUOUS
10
2.60645
20
-1.82683
11
2.60878
21
-1.82398
0
LINE
8
BLACK
6
CONTINUOUS
10
2.60878
20
-1.82398
11
2.60894
21
-1.82381
0
LINE
8
BLACK
6
CONTINUOUS
10
2.60894
20
-1.82381
11
2.61121
21
-1.82154
0
LINE
8
BLACK
6
CONTINUOUS
10
2.61121
20
-1.82154
11
2.61138
21
-1.82138
0
LINE
8
BLACK
6
CONTINUOUS
10
2.61138
20
-1.82138
11
2.61423
21
-1.81905
0
LINE
8
BLACK
6
CONTINUOUS
10
2.61423
20
-1.81905
11
2.61438
21
-1.81894
0
LINE
8
BLACK
6
CONTINUOUS
10
2.61438
20
-1.81894
11
2.61698
21
-1.81711
0
LINE
8
BLACK
6
CONTINUOUS
10
2.61698
20
-1.81711
11
2.61723
21
-1.81696
0
LINE
8
BLACK
6
CONTINUOUS
10
2.61723
20
-1.81696
11
2.62054
21
-1.81519
0
LINE
8
BLACK
6
CONTINUOUS
10
2.62054
20
-1.81519
11
2.62065
21
-1.81513
0
LINE
8
BLACK
6
CONTINUOUS
10
2.62065
20
-1.81513
11
2.62331
21
-1.8139
0
LINE
8
BLACK
6
CONTINUOUS
10
2.62331
20
-1.8139
11
2.62395
21
-1.81365
0
LINE
8
BLACK
6
CONTINUOUS
10
2.62395
20
-1.81365
11
2.62759
21
-1.81255
0
LINE
8
BLACK
6
CONTINUOUS
10
2.62759
20
-1.81255
11
2.62766
21
-1.81253
0
LINE
8
BLACK
6
CONTINUOUS
10
2.62766
20
-1.81253
11
2.63025
21
-1.81183
0
LINE
8
BLACK
6
CONTINUOUS
10
2.63025
20
-1.81183
11
2.63103
21
-1.81169
0
LINE
8
BLACK
6
CONTINUOUS
10
2.63103
20
-1.81169
11
2.6355
21
-1.81125
0
LINE
8
BLACK
6
CONTINUOUS
10
2.6355
20
-1.81125
11
2.63601
21
-1.8112
0
LINE
8
BLACK
6
CONTINUOUS
10
2.63601
20
-1.8112
11
2.63769
21
-1.81105
0
LINE
8
BLACK
6
CONTINUOUS
10
2.63769
20
-1.81105
11
2.6379
21
-1.81104
0
LINE
8
BLACK
6
CONTINUOUS
10
2.6379
20
-1.81104
11
3.66131
21
-1.81104
0
LINE
8
BLACK
6
CONTINUOUS
10
3.66131
20
-1.81104
11
3.66152
21
-1.81105
0
LINE
8
BLACK
6
CONTINUOUS
10
3.12063
20
-2.12359
11
3.10153
21
-2.12669
0
LINE
8
BLACK
6
CONTINUOUS
10
3.10153
20
-2.12669
11
3.10153
21
-2.12669
0
LINE
8
BLACK
6
CONTINUOUS
10
3.10153
20
-2.12669
11
3.10153
21
-2.12669
0
LINE
8
BLACK
6
CONTINUOUS
10
3.10153
20
-2.12669
11
3.10153
21
-2.12669
0
LINE
8
BLACK
6
CONTINUOUS
10
3.10153
20
-2.12669
11
3.10059
21
-2.12692
0
LINE
8
BLACK
6
CONTINUOUS
10
3.10059
20
-2.12692
11
3.08273
21
-2.13132
0
LINE
8
BLACK
6
CONTINUOUS
10
3.08273
20
-2.13132
11
3.08273
21
-2.13132
0
LINE
8
BLACK
6
CONTINUOUS
10
3.08273
20
-2.13132
11
3.06437
21
-2.13745
0
LINE
8
BLACK
6
CONTINUOUS
10
3.06437
20
-2.13745
11
3.06437
21
-2.13745
0
LINE
8
BLACK
6
CONTINUOUS
10
3.06437
20
-2.13745
11
3.06437
21
-2.13745
0
LINE
8
BLACK
6
CONTINUOUS
10
3.06437
20
-2.13745
11
3.06026
21
-2.1392
0
LINE
8
BLACK
6
CONTINUOUS
10
3.06026
20
-2.1392
11
3.04656
21
-2.14504
0
LINE
8
BLACK
6
CONTINUOUS
10
3.04656
20
-2.14504
11
3.02942
21
-2.15404
0
LINE
8
BLACK
6
CONTINUOUS
10
3.02942
20
-2.15404
11
3.01306
21
-2.16438
0
LINE
8
BLACK
6
CONTINUOUS
10
3.01306
20
-2.16438
11
3.01306
21
-2.16438
0
LINE
8
BLACK
6
CONTINUOUS
10
3.01306
20
-2.16438
11
2.99758
21
-2.17601
0
LINE
8
BLACK
6
CONTINUOUS
10
2.99758
20
-2.17601
11
2.98309
21
-2.18885
0
LINE
8
BLACK
6
CONTINUOUS
10
2.98309
20
-2.18885
11
2.98309
21
-2.18885
0
LINE
8
BLACK
6
CONTINUOUS
10
2.98309
20
-2.18885
11
2.96969
21
-2.20281
0
LINE
8
BLACK
6
CONTINUOUS
10
2.96969
20
-2.20281
11
2.96968
21
-2.20281
0
LINE
8
BLACK
6
CONTINUOUS
10
2.96968
20
-2.20281
11
2.95744
21
-2.2178
0
LINE
8
BLACK
6
CONTINUOUS
10
2.95744
20
-2.2178
11
2.94645
21
-2.23373
0
LINE
8
BLACK
6
CONTINUOUS
10
2.94645
20
-2.23373
11
2.94645
21
-2.23373
0
LINE
8
BLACK
6
CONTINUOUS
10
2.94645
20
-2.23373
11
2.93677
21
-2.2505
0
LINE
8
BLACK
6
CONTINUOUS
10
2.93677
20
-2.2505
11
2.92847
21
-2.26799
0
LINE
8
BLACK
6
CONTINUOUS
10
2.92847
20
-2.26799
11
2.9216
21
-2.28609
0
LINE
8
BLACK
6
CONTINUOUS
10
2.9216
20
-2.28609
11
2.91622
21
-2.30468
0
LINE
8
BLACK
6
CONTINUOUS
10
2.91622
20
-2.30468
11
2.91235
21
-2.32365
0
LINE
8
BLACK
6
CONTINUOUS
10
2.91235
20
-2.32365
11
2.91001
21
-2.34286
0
LINE
8
BLACK
6
CONTINUOUS
10
2.91001
20
-2.34286
11
2.91001
21
-2.34286
0
LINE
8
BLACK
6
CONTINUOUS
10
2.91001
20
-2.34286
11
2.90923
21
-2.3622
0
LINE
8
BLACK
6
CONTINUOUS
10
2.90923
20
-2.3622
11
2.90923
21
-2.36221
0
LINE
8
BLACK
6
CONTINUOUS
10
2.90923
20
-2.36221
11
2.91001
21
-2.38155
0
LINE
8
BLACK
6
CONTINUOUS
10
2.91001
20
-2.38155
11
2.91001
21
-2.38155
0
LINE
8
BLACK
6
CONTINUOUS
10
2.91001
20
-2.38155
11
2.91235
21
-2.40076
0
LINE
8
BLACK
6
CONTINUOUS
10
2.91235
20
-2.40076
11
2.91622
21
-2.41973
0
LINE
8
BLACK
6
CONTINUOUS
10
2.91622
20
-2.41973
11
2.9216
21
-2.43832
0
LINE
8
BLACK
6
CONTINUOUS
10
2.9216
20
-2.43832
11
2.92847
21
-2.45642
0
LINE
8
BLACK
6
CONTINUOUS
10
2.92847
20
-2.45642
11
2.93535
21
-2.47093
0
LINE
8
BLACK
6
CONTINUOUS
10
2.93535
20
-2.47093
11
2.93599
21
-2.47226
0
LINE
8
BLACK
6
CONTINUOUS
10
2.93599
20
-2.47226
11
2.93677
21
-2.47391
0
LINE
8
BLACK
6
CONTINUOUS
10
2.93677
20
-2.47391
11
2.94645
21
-2.49068
0
LINE
8
BLACK
6
CONTINUOUS
10
2.94645
20
-2.49068
11
2.94645
21
-2.49068
0
LINE
8
BLACK
6
CONTINUOUS
10
2.94645
20
-2.49068
11
2.94746
21
-2.49215
0
LINE
8
BLACK
6
CONTINUOUS
10
2.94746
20
-2.49215
11
2.95677
21
-2.50564
0
LINE
8
BLACK
6
CONTINUOUS
10
2.95677
20
-2.50564
11
2.95744
21
-2.50661
0
LINE
8
BLACK
6
CONTINUOUS
10
2.95744
20
-2.50661
11
2.96968
21
-2.5216
0
LINE
8
BLACK
6
CONTINUOUS
10
2.96968
20
-2.5216
11
2.96969
21
-2.5216
0
LINE
8
BLACK
6
CONTINUOUS
10
2.96969
20
-2.5216
11
2.98309
21
-2.53556
0
LINE
8
BLACK
6
CONTINUOUS
10
2.98309
20
-2.53556
11
2.98309
21
-2.53556
0
LINE
8
BLACK
6
CONTINUOUS
10
2.98309
20
-2.53556
11
2.99758
21
-2.5484
0
LINE
8
BLACK
6
CONTINUOUS
10
2.99758
20
-2.5484
11
3.00156
21
-2.55139
0
LINE
8
BLACK
6
CONTINUOUS
10
3.00156
20
-2.55139
11
3.01306
21
-2.56003
0
LINE
8
BLACK
6
CONTINUOUS
10
3.01306
20
-2.56003
11
3.02942
21
-2.57037
0
LINE
8
BLACK
6
CONTINUOUS
10
3.02942
20
-2.57037
11
3.02942
21
-2.57037
0
LINE
8
BLACK
6
CONTINUOUS
10
3.02942
20
-2.57037
11
3.02942
21
-2.57037
0
LINE
8
BLACK
6
CONTINUOUS
10
3.02942
20
-2.57037
11
3.0307
21
-2.57104
0
LINE
8
BLACK
6
CONTINUOUS
10
3.0307
20
-2.57104
11
3.04656
21
-2.57937
0
LINE
8
BLACK
6
CONTINUOUS
10
3.04656
20
-2.57937
11
3.06437
21
-2.58696
0
LINE
8
BLACK
6
CONTINUOUS
10
3.06437
20
-2.58696
11
3.08273
21
-2.59309
0
LINE
8
BLACK
6
CONTINUOUS
10
3.08273
20
-2.59309
11
3.10153
21
-2.59772
0
LINE
8
BLACK
6
CONTINUOUS
10
3.10153
20
-2.59772
11
3.10153
21
-2.59772
0
LINE
8
BLACK
6
CONTINUOUS
10
3.10153
20
-2.59772
11
3.10153
21
-2.59772
0
LINE
8
BLACK
6
CONTINUOUS
10
3.10153
20
-2.59772
11
3.1192
21
-2.60059
0
LINE
8
BLACK
6
CONTINUOUS
10
3.1192
20
-2.60059
11
3.12063
21
-2.60082
0
LINE
8
BLACK
6
CONTINUOUS
10
3.12063
20
-2.60082
11
3.13993
21
-2.60238
0
LINE
8
BLACK
6
CONTINUOUS
10
3.13993
20
-2.60238
11
3.13993
21
-2.60238
0
LINE
8
BLACK
6
CONTINUOUS
10
3.13993
20
-2.60238
11
3.15928
21
-2.60238
0
LINE
8
BLACK
6
CONTINUOUS
10
3.15928
20
-2.60238
11
3.15929
21
-2.60238
0
LINE
8
BLACK
6
CONTINUOUS
10
3.15929
20
-2.60238
11
3.17858
21
-2.60082
0
LINE
8
BLACK
6
CONTINUOUS
10
3.17858
20
-2.60082
11
3.18443
21
-2.59987
0
LINE
8
BLACK
6
CONTINUOUS
10
3.18443
20
-2.59987
11
3.19769
21
-2.59772
0
LINE
8
BLACK
6
CONTINUOUS
10
3.19769
20
-2.59772
11
3.19769
21
-2.59772
0
LINE
8
BLACK
6
CONTINUOUS
10
3.19769
20
-2.59772
11
3.19769
21
-2.59772
0
LINE
8
BLACK
6
CONTINUOUS
10
3.19769
20
-2.59772
11
3.21648
21
-2.59309
0
LINE
8
BLACK
6
CONTINUOUS
10
3.21648
20
-2.59309
11
3.23484
21
-2.58696
0
LINE
8
BLACK
6
CONTINUOUS
10
3.23484
20
-2.58696
11
3.25265
21
-2.57937
0
LINE
8
BLACK
6
CONTINUOUS
10
3.25265
20
-2.57937
11
3.26979
21
-2.57037
0
LINE
8
BLACK
6
CONTINUOUS
10
3.26979
20
-2.57037
11
3.28615
21
-2.56003
0
LINE
8
BLACK
6
CONTINUOUS
10
3.28615
20
-2.56003
11
3.30163
21
-2.5484
0
LINE
8
BLACK
6
CONTINUOUS
10
3.30163
20
-2.5484
11
3.30163
21
-2.5484
0
LINE
8
BLACK
6
CONTINUOUS
10
3.30163
20
-2.5484
11
3.30163
21
-2.5484
0
LINE
8
BLACK
6
CONTINUOUS
10
3.30163
20
-2.5484
11
3.31612
21
-2.53556
0
LINE
8
BLACK
6
CONTINUOUS
10
3.31612
20
-2.53556
11
3.31612
21
-2.53556
0
LINE
8
BLACK
6
CONTINUOUS
10
3.31612
20
-2.53556
11
3.31612
21
-2.53556
0
LINE
8
BLACK
6
CONTINUOUS
10
3.31612
20
-2.53556
11
3.32953
21
-2.5216
0
LINE
8
BLACK
6
CONTINUOUS
10
3.32953
20
-2.5216
11
3.34177
21
-2.50661
0
LINE
8
BLACK
6
CONTINUOUS
10
3.34177
20
-2.50661
11
3.35277
21
-2.49068
0
LINE
8
BLACK
6
CONTINUOUS
10
3.35277
20
-2.49068
11
3.35648
21
-2.48425
0
LINE
8
BLACK
6
CONTINUOUS
10
3.35648
20
-2.48425
11
3.36245
21
-2.47391
0
LINE
8
BLACK
6
CONTINUOUS
10
3.36245
20
-2.47391
11
3.37074
21
-2.45642
0
LINE
8
BLACK
6
CONTINUOUS
10
3.37074
20
-2.45642
11
3.37761
21
-2.43832
0
LINE
8
BLACK
6
CONTINUOUS
10
3.37761
20
-2.43832
11
3.38299
21
-2.41973
0
LINE
8
BLACK
6
CONTINUOUS
10
3.38299
20
-2.41973
11
3.38687
21
-2.40076
0
LINE
8
BLACK
6
CONTINUOUS
10
3.38687
20
-2.40076
11
3.3892
21
-2.38155
0
LINE
8
BLACK
6
CONTINUOUS
10
3.3892
20
-2.38155
11
3.3892
21
-2.38155
0
LINE
8
BLACK
6
CONTINUOUS
10
3.3892
20
-2.38155
11
3.38998
21
-2.36221
0
LINE
8
BLACK
6
CONTINUOUS
10
3.38998
20
-2.36221
11
3.38998
21
-2.3622
0
LINE
8
BLACK
6
CONTINUOUS
10
3.38998
20
-2.3622
11
3.3892
21
-2.34286
0
LINE
8
BLACK
6
CONTINUOUS
10
3.3892
20
-2.34286
11
3.3892
21
-2.34286
0
LINE
8
BLACK
6
CONTINUOUS
10
3.3892
20
-2.34286
11
3.3892
21
-2.34286
0
LINE
8
BLACK
6
CONTINUOUS
10
3.3892
20
-2.34286
11
3.38687
21
-2.32365
0
LINE
8
BLACK
6
CONTINUOUS
10
3.38687
20
-2.32365
11
3.38299
21
-2.30468
0
LINE
8
BLACK
6
CONTINUOUS
10
3.38299
20
-2.30468
11
3.38176
21
-2.30042
0
LINE
8
BLACK
6
CONTINUOUS
10
3.38176
20
-2.30042
11
3.37761
21
-2.28609
0
LINE
8
BLACK
6
CONTINUOUS
10
3.37761
20
-2.28609
11
3.37458
21
-2.27809
0
LINE
8
BLACK
6
CONTINUOUS
10
3.37458
20
-2.27809
11
3.37074
21
-2.26799
0
LINE
8
BLACK
6
CONTINUOUS
10
3.37074
20
-2.26799
11
3.36245
21
-2.2505
0
LINE
8
BLACK
6
CONTINUOUS
10
3.36245
20
-2.2505
11
3.35277
21
-2.23373
0
LINE
8
BLACK
6
CONTINUOUS
10
3.35277
20
-2.23373
11
3.35277
21
-2.23373
0
LINE
8
BLACK
6
CONTINUOUS
10
3.35277
20
-2.23373
11
3.35277
21
-2.23373
0
LINE
8
BLACK
6
CONTINUOUS
10
3.35277
20
-2.23373
11
3.34187
21
-2.21794
0
LINE
8
BLACK
6
CONTINUOUS
10
3.34187
20
-2.21794
11
3.34177
21
-2.2178
0
LINE
8
BLACK
6
CONTINUOUS
10
3.34177
20
-2.2178
11
3.34177
21
-2.2178
0
LINE
8
BLACK
6
CONTINUOUS
10
3.34177
20
-2.2178
11
3.34177
21
-2.2178
0
LINE
8
BLACK
6
CONTINUOUS
10
3.34177
20
-2.2178
11
3.32953
21
-2.20281
0
LINE
8
BLACK
6
CONTINUOUS
10
3.32953
20
-2.20281
11
3.32953
21
-2.20281
0
LINE
8
BLACK
6
CONTINUOUS
10
3.32953
20
-2.20281
11
3.31612
21
-2.18885
0
LINE
8
BLACK
6
CONTINUOUS
10
3.31612
20
-2.18885
11
3.31612
21
-2.18885
0
LINE
8
BLACK
6
CONTINUOUS
10
3.31612
20
-2.18885
11
3.30163
21
-2.17601
0
LINE
8
BLACK
6
CONTINUOUS
10
3.30163
20
-2.17601
11
3.29389
21
-2.1702
0
LINE
8
BLACK
6
CONTINUOUS
10
3.29389
20
-2.1702
11
3.28615
21
-2.16438
0
LINE
8
BLACK
6
CONTINUOUS
10
3.28615
20
-2.16438
11
3.26979
21
-2.15404
0
LINE
8
BLACK
6
CONTINUOUS
10
3.26979
20
-2.15404
11
3.26979
21
-2.15404
0
LINE
8
BLACK
6
CONTINUOUS
10
3.26979
20
-2.15404
11
3.26979
21
-2.15404
0
LINE
8
BLACK
6
CONTINUOUS
10
3.26979
20
-2.15404
11
3.25265
21
-2.14504
0
LINE
8
BLACK
6
CONTINUOUS
10
3.25265
20
-2.14504
11
3.24566
21
-2.14206
0
LINE
8
BLACK
6
CONTINUOUS
10
3.24566
20
-2.14206
11
3.23484
21
-2.13745
0
LINE
8
BLACK
6
CONTINUOUS
10
3.23484
20
-2.13745
11
3.23484
21
-2.13745
0
LINE
8
BLACK
6
CONTINUOUS
10
3.23484
20
-2.13745
11
3.23484
21
-2.13745
0
LINE
8
BLACK
6
CONTINUOUS
10
3.23484
20
-2.13745
11
3.22577
21
-2.13442
0
LINE
8
BLACK
6
CONTINUOUS
10
3.22577
20
-2.13442
11
3.21648
21
-2.13132
0
LINE
8
BLACK
6
CONTINUOUS
10
3.21648
20
-2.13132
11
3.21648
21
-2.13132
0
LINE
8
BLACK
6
CONTINUOUS
10
3.21648
20
-2.13132
11
3.21648
21
-2.13132
0
LINE
8
BLACK
6
CONTINUOUS
10
3.21648
20
-2.13132
11
3.20928
21
-2.12955
0
LINE
8
BLACK
6
CONTINUOUS
10
3.20928
20
-2.12955
11
3.19769
21
-2.12669
0
LINE
8
BLACK
6
CONTINUOUS
10
3.19769
20
-2.12669
11
3.19769
21
-2.12669
0
LINE
8
BLACK
6
CONTINUOUS
10
3.19769
20
-2.12669
11
3.19769
21
-2.12669
0
LINE
8
BLACK
6
CONTINUOUS
10
3.19769
20
-2.12669
11
3.19769
21
-2.12669
0
LINE
8
BLACK
6
CONTINUOUS
10
3.19769
20
-2.12669
11
3.17858
21
-2.12359
0
LINE
8
BLACK
6
CONTINUOUS
10
3.17858
20
-2.12359
11
3.15929
21
-2.12203
0
LINE
8
BLACK
6
CONTINUOUS
10
3.15929
20
-2.12203
11
3.15929
21
-2.12203
0
LINE
8
BLACK
6
CONTINUOUS
10
3.15929
20
-2.12203
11
3.13993
21
-2.12203
0
LINE
8
BLACK
6
CONTINUOUS
10
3.13993
20
-2.12203
11
3.13993
21
-2.12203
0
LINE
8
BLACK
6
CONTINUOUS
10
3.13993
20
-2.12203
11
3.12063
21
-2.12359
0
LINE
8
BLACK
6
CONTINUOUS
10
3.5925
20
-2.54034
11
3.59307
21
-2.54322
0
LINE
8
BLACK
6
CONTINUOUS
10
3.59307
20
-2.54322
11
3.59307
21
-2.54322
0
LINE
8
BLACK
6
CONTINUOUS
10
3.59307
20
-2.54322
11
3.59307
21
-2.54322
0
LINE
8
BLACK
6
CONTINUOUS
10
3.59307
20
-2.54322
11
3.59525
21
-2.54648
0
LINE
8
BLACK
6
CONTINUOUS
10
3.59525
20
-2.54648
11
3.59535
21
-2.54655
0
LINE
8
BLACK
6
CONTINUOUS
10
3.59535
20
-2.54655
11
3.59552
21
-2.54675
0
LINE
8
BLACK
6
CONTINUOUS
10
3.59552
20
-2.54675
11
3.59559
21
-2.54682
0
LINE
8
BLACK
6
CONTINUOUS
10
3.59559
20
-2.54682
11
3.59559
21
-2.54683
0
LINE
8
BLACK
6
CONTINUOUS
10
3.59559
20
-2.54683
11
3.59712
21
-2.54866
0
LINE
8
BLACK
6
CONTINUOUS
10
3.59712
20
-2.54866
11
3.59746
21
-2.55139
0
LINE
8
BLACK
6
CONTINUOUS
10
3.59746
20
-2.55139
11
3.5972
21
-2.55234
0
LINE
8
BLACK
6
CONTINUOUS
10
3.5972
20
-2.55234
11
3.597
21
-2.55288
0
LINE
8
BLACK
6
CONTINUOUS
10
3.597
20
-2.55288
11
3.597
21
-2.55288
0
LINE
8
BLACK
6
CONTINUOUS
10
3.597
20
-2.55288
11
3.59625
21
-2.55906
0
LINE
8
BLACK
6
CONTINUOUS
10
3.59625
20
-2.55906
11
3.59625
21
-2.55906
0
LINE
8
BLACK
6
CONTINUOUS
10
3.59625
20
-2.55906
11
3.597
21
-2.56523
0
LINE
8
BLACK
6
CONTINUOUS
10
3.597
20
-2.56523
11
3.59887
21
-2.57017
0
LINE
8
BLACK
6
CONTINUOUS
10
3.59887
20
-2.57017
11
3.5992
21
-2.57104
0
LINE
8
BLACK
6
CONTINUOUS
10
3.5992
20
-2.57104
11
3.60274
21
-2.57616
0
LINE
8
BLACK
6
CONTINUOUS
10
3.60274
20
-2.57616
11
3.60739
21
-2.58029
0
LINE
8
BLACK
6
CONTINUOUS
10
3.60739
20
-2.58029
11
3.60739
21
-2.58029
0
LINE
8
BLACK
6
CONTINUOUS
10
3.60739
20
-2.58029
11
3.6129
21
-2.58318
0
LINE
8
BLACK
6
CONTINUOUS
10
3.6129
20
-2.58318
11
3.61894
21
-2.58467
0
LINE
8
BLACK
6
CONTINUOUS
10
3.61894
20
-2.58467
11
3.61894
21
-2.58467
0
LINE
8
BLACK
6
CONTINUOUS
10
3.61894
20
-2.58467
11
3.62516
21
-2.58467
0
LINE
8
BLACK
6
CONTINUOUS
10
3.62516
20
-2.58467
11
3.6312
21
-2.58318
0
LINE
8
BLACK
6
CONTINUOUS
10
3.6312
20
-2.58318
11
3.6367
21
-2.58029
0
LINE
8
BLACK
6
CONTINUOUS
10
3.6367
20
-2.58029
11
3.6367
21
-2.58029
0
LINE
8
BLACK
6
CONTINUOUS
10
3.6367
20
-2.58029
11
3.6367
21
-2.58029
0
LINE
8
BLACK
6
CONTINUOUS
10
3.6367
20
-2.58029
11
3.6385
21
-2.5787
0
LINE
8
BLACK
6
CONTINUOUS
10
3.6385
20
-2.5787
11
3.64098
21
-2.57753
0
LINE
8
BLACK
6
CONTINUOUS
10
3.64098
20
-2.57753
11
3.64371
21
-2.57789
0
LINE
8
BLACK
6
CONTINUOUS
10
3.64371
20
-2.57789
11
3.64497
21
-2.5787
0
LINE
8
BLACK
6
CONTINUOUS
10
3.64497
20
-2.5787
11
3.64676
21
-2.58029
0
LINE
8
BLACK
6
CONTINUOUS
10
3.64676
20
-2.58029
11
3.64676
21
-2.58029
0
LINE
8
BLACK
6
CONTINUOUS
10
3.64676
20
-2.58029
11
3.65227
21
-2.58318
0
LINE
8
BLACK
6
CONTINUOUS
10
3.65227
20
-2.58318
11
3.65831
21
-2.58467
0
LINE
8
BLACK
6
CONTINUOUS
10
3.65831
20
-2.58467
11
3.65831
21
-2.58467
0
LINE
8
BLACK
6
CONTINUOUS
10
3.65831
20
-2.58467
11
3.66453
21
-2.58467
0
LINE
8
BLACK
6
CONTINUOUS
10
3.66453
20
-2.58467
11
3.67057
21
-2.58318
0
LINE
8
BLACK
6
CONTINUOUS
10
3.67057
20
-2.58318
11
3.67057
21
-2.58318
0
LINE
8
BLACK
6
CONTINUOUS
10
3.67057
20
-2.58318
11
3.67607
21
-2.58029
0
LINE
8
BLACK
6
CONTINUOUS
10
3.67607
20
-2.58029
11
3.68073
21
-2.57616
0
LINE
8
BLACK
6
CONTINUOUS
10
3.68073
20
-2.57616
11
3.68426
21
-2.57104
0
LINE
8
BLACK
6
CONTINUOUS
10
3.68426
20
-2.57104
11
3.68647
21
-2.56523
0
LINE
8
BLACK
6
CONTINUOUS
10
3.68647
20
-2.56523
11
3.68722
21
-2.55906
0
LINE
8
BLACK
6
CONTINUOUS
10
3.68722
20
-2.55906
11
3.68647
21
-2.55288
0
LINE
8
BLACK
6
CONTINUOUS
10
3.68647
20
-2.55288
11
3.68426
21
-2.54707
0
LINE
8
BLACK
6
CONTINUOUS
10
3.68426
20
-2.54707
11
3.68073
21
-2.54195
0
LINE
8
BLACK
6
CONTINUOUS
10
3.68073
20
-2.54195
11
3.68073
21
-2.54195
0
LINE
8
BLACK
6
CONTINUOUS
10
3.68073
20
-2.54195
11
3.67785
21
-2.53939
0
LINE
8
BLACK
6
CONTINUOUS
10
3.67785
20
-2.53939
11
3.67638
21
-2.53706
0
LINE
8
BLACK
6
CONTINUOUS
10
3.67638
20
-2.53706
11
3.6762
21
-2.53574
0
LINE
8
BLACK
6
CONTINUOUS
10
3.6762
20
-2.53574
11
3.6762
21
-2.53513
0
LINE
8
BLACK
6
CONTINUOUS
10
3.6762
20
-2.53513
11
3.67698
21
-2.53249
0
LINE
8
BLACK
6
CONTINUOUS
10
3.67698
20
-2.53249
11
3.67785
21
-2.53147
0
LINE
8
BLACK
6
CONTINUOUS
10
3.67785
20
-2.53147
11
3.68073
21
-2.52892
0
LINE
8
BLACK
6
CONTINUOUS
10
3.68073
20
-2.52892
11
3.68073
21
-2.52892
0
LINE
8
BLACK
6
CONTINUOUS
10
3.68073
20
-2.52892
11
3.68426
21
-2.5238
0
LINE
8
BLACK
6
CONTINUOUS
10
3.68426
20
-2.5238
11
3.68647
21
-2.51798
0
LINE
8
BLACK
6
CONTINUOUS
10
3.68647
20
-2.51798
11
3.68722
21
-2.51181
0
LINE
8
BLACK
6
CONTINUOUS
10
3.68722
20
-2.51181
11
3.6868
21
-2.50837
0
LINE
8
BLACK
6
CONTINUOUS
10
3.6868
20
-2.50837
11
3.68647
21
-2.50564
0
LINE
8
BLACK
6
CONTINUOUS
10
3.68647
20
-2.50564
11
3.68504
21
-2.50189
0
LINE
8
BLACK
6
CONTINUOUS
10
3.68504
20
-2.50189
11
3.68426
21
-2.49982
0
LINE
8
BLACK
6
CONTINUOUS
10
3.68426
20
-2.49982
11
3.68073
21
-2.4947
0
LINE
8
BLACK
6
CONTINUOUS
10
3.68073
20
-2.4947
11
3.68073
21
-2.4947
0
LINE
8
BLACK
6
CONTINUOUS
10
3.68073
20
-2.4947
11
3.67785
21
-2.49215
0
LINE
8
BLACK
6
CONTINUOUS
10
3.67785
20
-2.49215
11
3.67638
21
-2.48982
0
LINE
8
BLACK
6
CONTINUOUS
10
3.67638
20
-2.48982
11
3.6762
21
-2.4885
0
LINE
8
BLACK
6
CONTINUOUS
10
3.6762
20
-2.4885
11
3.6762
21
-2.48788
0
LINE
8
BLACK
6
CONTINUOUS
10
3.6762
20
-2.48788
11
3.67698
21
-2.48524
0
LINE
8
BLACK
6
CONTINUOUS
10
3.67698
20
-2.48524
11
3.67785
21
-2.48423
0
LINE
8
BLACK
6
CONTINUOUS
10
3.67785
20
-2.48423
11
3.68073
21
-2.48167
0
LINE
8
BLACK
6
CONTINUOUS
10
3.68073
20
-2.48167
11
3.68073
21
-2.48167
0
LINE
8
BLACK
6
CONTINUOUS
10
3.68073
20
-2.48167
11
3.68426
21
-2.47656
0
LINE
8
BLACK
6
CONTINUOUS
10
3.68426
20
-2.47656
11
3.68647
21
-2.47074
0
LINE
8
BLACK
6
CONTINUOUS
10
3.68647
20
-2.47074
11
3.68722
21
-2.46457
0
LINE
8
BLACK
6
CONTINUOUS
10
3.68722
20
-2.46457
11
3.68647
21
-2.45839
0
LINE
8
BLACK
6
CONTINUOUS
10
3.68647
20
-2.45839
11
3.68426
21
-2.45258
0
LINE
8
BLACK
6
CONTINUOUS
10
3.68426
20
-2.45258
11
3.68073
21
-2.44746
0
LINE
8
BLACK
6
CONTINUOUS
10
3.68073
20
-2.44746
11
3.68073
21
-2.44746
0
LINE
8
BLACK
6
CONTINUOUS
10
3.68073
20
-2.44746
11
3.67785
21
-2.44491
0
LINE
8
BLACK
6
CONTINUOUS
10
3.67785
20
-2.44491
11
3.67638
21
-2.44258
0
LINE
8
BLACK
6
CONTINUOUS
10
3.67638
20
-2.44258
11
3.6762
21
-2.44125
0
LINE
8
BLACK
6
CONTINUOUS
10
3.6762
20
-2.44125
11
3.6762
21
-2.43276
0
LINE
8
BLACK
6
CONTINUOUS
10
3.6762
20
-2.43276
11
3.67698
21
-2.43012
0
LINE
8
BLACK
6
CONTINUOUS
10
3.67698
20
-2.43012
11
3.67785
21
-2.42911
0
LINE
8
BLACK
6
CONTINUOUS
10
3.67785
20
-2.42911
11
3.68073
21
-2.42656
0
LINE
8
BLACK
6
CONTINUOUS
10
3.68073
20
-2.42656
11
3.68073
21
-2.42656
0
LINE
8
BLACK
6
CONTINUOUS
10
3.68073
20
-2.42656
11
3.68426
21
-2.42144
0
LINE
8
BLACK
6
CONTINUOUS
10
3.68426
20
-2.42144
11
3.68647
21
-2.41562
0
LINE
8
BLACK
6
CONTINUOUS
10
3.68647
20
-2.41562
11
3.68722
21
-2.40945
0
LINE
8
BLACK
6
CONTINUOUS
10
3.68722
20
-2.40945
11
3.68647
21
-2.40327
0
LINE
8
BLACK
6
CONTINUOUS
10
3.68647
20
-2.40327
11
3.68426
21
-2.39746
0
LINE
8
BLACK
6
CONTINUOUS
10
3.68426
20
-2.39746
11
3.68073
21
-2.39234
0
LINE
8
BLACK
6
CONTINUOUS
10
3.68073
20
-2.39234
11
3.67607
21
-2.38822
0
LINE
8
BLACK
6
CONTINUOUS
10
3.67607
20
-2.38822
11
3.67607
21
-2.38822
0
LINE
8
BLACK
6
CONTINUOUS
10
3.67607
20
-2.38822
11
3.67607
21
-2.38822
0
LINE
8
BLACK
6
CONTINUOUS
10
3.67607
20
-2.38822
11
3.67057
21
-2.38533
0
LINE
8
BLACK
6
CONTINUOUS
10
3.67057
20
-2.38533
11
3.66453
21
-2.38384
0
LINE
8
BLACK
6
CONTINUOUS
10
3.66453
20
-2.38384
11
3.66453
21
-2.38384
0
LINE
8
BLACK
6
CONTINUOUS
10
3.66453
20
-2.38384
11
3.65831
21
-2.38384
0
LINE
8
BLACK
6
CONTINUOUS
10
3.65831
20
-2.38384
11
3.65831
21
-2.38384
0
LINE
8
BLACK
6
CONTINUOUS
10
3.65831
20
-2.38384
11
3.65227
21
-2.38533
0
LINE
8
BLACK
6
CONTINUOUS
10
3.65227
20
-2.38533
11
3.64676
21
-2.38822
0
LINE
8
BLACK
6
CONTINUOUS
10
3.64676
20
-2.38822
11
3.64676
21
-2.38822
0
LINE
8
BLACK
6
CONTINUOUS
10
3.64676
20
-2.38822
11
3.64497
21
-2.38981
0
LINE
8
BLACK
6
CONTINUOUS
10
3.64497
20
-2.38981
11
3.64248
21
-2.39098
0
LINE
8
BLACK
6
CONTINUOUS
10
3.64248
20
-2.39098
11
3.63975
21
-2.39061
0
LINE
8
BLACK
6
CONTINUOUS
10
3.63975
20
-2.39061
11
3.6385
21
-2.38981
0
LINE
8
BLACK
6
CONTINUOUS
10
3.6385
20
-2.38981
11
3.6367
21
-2.38822
0
LINE
8
BLACK
6
CONTINUOUS
10
3.6367
20
-2.38822
11
3.6367
21
-2.38822
0
LINE
8
BLACK
6
CONTINUOUS
10
3.6367
20
-2.38822
11
3.6312
21
-2.38533
0
LINE
8
BLACK
6
CONTINUOUS
10
3.6312
20
-2.38533
11
3.62516
21
-2.38384
0
LINE
8
BLACK
6
CONTINUOUS
10
3.62516
20
-2.38384
11
3.62516
21
-2.38384
0
LINE
8
BLACK
6
CONTINUOUS
10
3.62516
20
-2.38384
11
3.61894
21
-2.38384
0
LINE
8
BLACK
6
CONTINUOUS
10
3.61894
20
-2.38384
11
3.61894
21
-2.38384
0
LINE
8
BLACK
6
CONTINUOUS
10
3.61894
20
-2.38384
11
3.6129
21
-2.38533
0
LINE
8
BLACK
6
CONTINUOUS
10
3.6129
20
-2.38533
11
3.60739
21
-2.38822
0
LINE
8
BLACK
6
CONTINUOUS
10
3.60739
20
-2.38822
11
3.60274
21
-2.39234
0
LINE
8
BLACK
6
CONTINUOUS
10
3.60274
20
-2.39234
11
3.5992
21
-2.39746
0
LINE
8
BLACK
6
CONTINUOUS
10
3.5992
20
-2.39746
11
3.5992
21
-2.39746
0
LINE
8
BLACK
6
CONTINUOUS
10
3.5992
20
-2.39746
11
3.597
21
-2.40327
0
LINE
8
BLACK
6
CONTINUOUS
10
3.597
20
-2.40327
11
3.59625
21
-2.40945
0
LINE
8
BLACK
6
CONTINUOUS
10
3.59625
20
-2.40945
11
3.59625
21
-2.40945
0
LINE
8
BLACK
6
CONTINUOUS
10
3.59625
20
-2.40945
11
3.597
21
-2.41562
0
LINE
8
BLACK
6
CONTINUOUS
10
3.597
20
-2.41562
11
3.5978
21
-2.41774
0
LINE
8
BLACK
6
CONTINUOUS
10
3.5978
20
-2.41774
11
3.59801
21
-2.42048
0
LINE
8
BLACK
6
CONTINUOUS
10
3.59801
20
-2.42048
11
3.59671
21
-2.4229
0
LINE
8
BLACK
6
CONTINUOUS
10
3.59671
20
-2.4229
11
3.59595
21
-2.42353
0
LINE
8
BLACK
6
CONTINUOUS
10
3.59595
20
-2.42353
11
3.59525
21
-2.42399
0
LINE
8
BLACK
6
CONTINUOUS
10
3.59525
20
-2.42399
11
3.59307
21
-2.42725
0
LINE
8
BLACK
6
CONTINUOUS
10
3.59307
20
-2.42725
11
3.59307
21
-2.42725
0
LINE
8
BLACK
6
CONTINUOUS
10
3.59307
20
-2.42725
11
3.5925
21
-2.43013
0
LINE
8
BLACK
6
CONTINUOUS
10
3.5925
20
-2.43013
11
3.5925
21
-2.43013
0
LINE
8
BLACK
6
CONTINUOUS
10
3.5925
20
-2.43013
11
3.5925
21
-2.54034
0
LINE
8
BLACK
6
CONTINUOUS
10
3.5925
20
-2.54034
11
3.5925
21
-2.54034
0
LINE
8
BLACK
6
CONTINUOUS
10
3.44346
20
-2.49043
11
3.44411
21
-2.49215
0
LINE
8
BLACK
6
CONTINUOUS
10
3.44411
20
-2.49215
11
3.44566
21
-2.49624
0
LINE
8
BLACK
6
CONTINUOUS
10
3.44566
20
-2.49624
11
3.44919
21
-2.50136
0
LINE
8
BLACK
6
CONTINUOUS
10
3.44919
20
-2.50136
11
3.45385
21
-2.50548
0
LINE
8
BLACK
6
CONTINUOUS
10
3.45385
20
-2.50548
11
3.45385
21
-2.50548
0
LINE
8
BLACK
6
CONTINUOUS
10
3.45385
20
-2.50548
11
3.45936
21
-2.50837
0
LINE
8
BLACK
6
CONTINUOUS
10
3.45936
20
-2.50837
11
3.46539
21
-2.50986
0
LINE
8
BLACK
6
CONTINUOUS
10
3.46539
20
-2.50986
11
3.46539
21
-2.50986
0
LINE
8
BLACK
6
CONTINUOUS
10
3.46539
20
-2.50986
11
3.47161
21
-2.50986
0
LINE
8
BLACK
6
CONTINUOUS
10
3.47161
20
-2.50986
11
3.47765
21
-2.50837
0
LINE
8
BLACK
6
CONTINUOUS
10
3.47765
20
-2.50837
11
3.48102
21
-2.50661
0
LINE
8
BLACK
6
CONTINUOUS
10
3.48102
20
-2.50661
11
3.48316
21
-2.50548
0
LINE
8
BLACK
6
CONTINUOUS
10
3.48316
20
-2.50548
11
3.48781
21
-2.50136
0
LINE
8
BLACK
6
CONTINUOUS
10
3.48781
20
-2.50136
11
3.48796
21
-2.50114
0
LINE
8
BLACK
6
CONTINUOUS
10
3.48796
20
-2.50114
11
3.4901
21
-2.49941
0
LINE
8
BLACK
6
CONTINUOUS
10
3.4901
20
-2.49941
11
3.49198
21
-2.49904
0
LINE
8
BLACK
6
CONTINUOUS
10
3.49198
20
-2.49904
11
3.50888
21
-2.49904
0
LINE
8
BLACK
6
CONTINUOUS
10
3.50888
20
-2.49904
11
3.51152
21
-2.49981
0
LINE
8
BLACK
6
CONTINUOUS
10
3.51152
20
-2.49981
11
3.51332
21
-2.50189
0
LINE
8
BLACK
6
CONTINUOUS
10
3.51332
20
-2.50189
11
3.51376
21
-2.50392
0
LINE
8
BLACK
6
CONTINUOUS
10
3.51376
20
-2.50392
11
3.51376
21
-2.54034
0
LINE
8
BLACK
6
CONTINUOUS
10
3.51376
20
-2.54034
11
3.51433
21
-2.54322
0
LINE
8
BLACK
6
CONTINUOUS
10
3.51433
20
-2.54322
11
3.51433
21
-2.54322
0
LINE
8
BLACK
6
CONTINUOUS
10
3.51433
20
-2.54322
11
3.51433
21
-2.54322
0
LINE
8
BLACK
6
CONTINUOUS
10
3.51433
20
-2.54322
11
3.51651
21
-2.54648
0
LINE
8
BLACK
6
CONTINUOUS
10
3.51651
20
-2.54648
11
3.51938
21
-2.5484
0
LINE
8
BLACK
6
CONTINUOUS
10
3.51938
20
-2.5484
11
3.51977
21
-2.54866
0
LINE
8
BLACK
6
CONTINUOUS
10
3.51977
20
-2.54866
11
3.51977
21
-2.54866
0
LINE
8
BLACK
6
CONTINUOUS
10
3.51977
20
-2.54866
11
3.52265
21
-2.54923
0
LINE
8
BLACK
6
CONTINUOUS
10
3.52265
20
-2.54923
11
3.52265
21
-2.54923
0
LINE
8
BLACK
6
CONTINUOUS
10
3.52265
20
-2.54923
11
3.52265
21
-2.54923
0
LINE
8
BLACK
6
CONTINUOUS
10
3.52265
20
-2.54923
11
3.56396
21
-2.54923
0
LINE
8
BLACK
6
CONTINUOUS
10
3.56396
20
-2.54923
11
3.56396
21
-2.54923
0
LINE
8
BLACK
6
CONTINUOUS
10
3.56396
20
-2.54923
11
3.56684
21
-2.54866
0
LINE
8
BLACK
6
CONTINUOUS
10
3.56684
20
-2.54866
11
3.5701
21
-2.54648
0
LINE
8
BLACK
6
CONTINUOUS
10
3.5701
20
-2.54648
11
3.57228
21
-2.54322
0
LINE
8
BLACK
6
CONTINUOUS
10
3.57228
20
-2.54322
11
3.57285
21
-2.54034
0
LINE
8
BLACK
6
CONTINUOUS
10
3.57285
20
-2.54034
11
3.57285
21
-2.54034
0
LINE
8
BLACK
6
CONTINUOUS
10
3.57285
20
-2.54034
11
3.57285
21
-2.43013
0
LINE
8
BLACK
6
CONTINUOUS
10
3.57285
20
-2.43013
11
3.57285
21
-2.43013
0
LINE
8
BLACK
6
CONTINUOUS
10
3.57285
20
-2.43013
11
3.57285
21
-2.43013
0
LINE
8
BLACK
6
CONTINUOUS
10
3.57285
20
-2.43013
11
3.57228
21
-2.42725
0
LINE
8
BLACK
6
CONTINUOUS
10
3.57228
20
-2.42725
11
3.57228
21
-2.42725
0
LINE
8
BLACK
6
CONTINUOUS
10
3.57228
20
-2.42725
11
3.57182
21
-2.42656
0
LINE
8
BLACK
6
CONTINUOUS
10
3.57182
20
-2.42656
11
3.5701
21
-2.42399
0
LINE
8
BLACK
6
CONTINUOUS
10
3.5701
20
-2.42399
11
3.56684
21
-2.42181
0
LINE
8
BLACK
6
CONTINUOUS
10
3.56684
20
-2.42181
11
3.56684
21
-2.42181
0
LINE
8
BLACK
6
CONTINUOUS
10
3.56684
20
-2.42181
11
3.56684
21
-2.42181
0
LINE
8
BLACK
6
CONTINUOUS
10
3.56684
20
-2.42181
11
3.56396
21
-2.42124
0
LINE
8
BLACK
6
CONTINUOUS
10
3.56396
20
-2.42124
11
3.56396
21
-2.42124
0
LINE
8
BLACK
6
CONTINUOUS
10
3.56396
20
-2.42124
11
3.55212
21
-2.42124
0
LINE
8
BLACK
6
CONTINUOUS
10
3.55212
20
-2.42124
11
3.54948
21
-2.42047
0
LINE
8
BLACK
6
CONTINUOUS
10
3.54948
20
-2.42047
11
3.54768
21
-2.41839
0
LINE
8
BLACK
6
CONTINUOUS
10
3.54768
20
-2.41839
11
3.54729
21
-2.41566
0
LINE
8
BLACK
6
CONTINUOUS
10
3.54729
20
-2.41566
11
3.54756
21
-2.41463
0
LINE
8
BLACK
6
CONTINUOUS
10
3.54756
20
-2.41463
11
3.54764
21
-2.4144
0
LINE
8
BLACK
6
CONTINUOUS
10
3.54764
20
-2.4144
11
3.54867
21
-2.41169
0
LINE
8
BLACK
6
CONTINUOUS
10
3.54867
20
-2.41169
11
3.54942
21
-2.40551
0
LINE
8
BLACK
6
CONTINUOUS
10
3.54942
20
-2.40551
11
3.54942
21
-2.40551
0
LINE
8
BLACK
6
CONTINUOUS
10
3.54942
20
-2.40551
11
3.54942
21
-2.40542
0
LINE
8
BLACK
6
CONTINUOUS
10
3.54942
20
-2.40542
11
3.54944
21
-2.40535
0
LINE
8
BLACK
6
CONTINUOUS
10
3.54944
20
-2.40535
11
3.54946
21
-2.40522
0
LINE
8
BLACK
6
CONTINUOUS
10
3.54946
20
-2.40522
11
3.54948
21
-2.40522
0
LINE
8
BLACK
6
CONTINUOUS
10
3.54948
20
-2.40522
11
3.5502
21
-2.40278
0
LINE
8
BLACK
6
CONTINUOUS
10
3.5502
20
-2.40278
11
3.55085
21
-2.40197
0
LINE
8
BLACK
6
CONTINUOUS
10
3.55085
20
-2.40197
11
3.55085
21
-2.40197
0
LINE
8
BLACK
6
CONTINUOUS
10
3.55085
20
-2.40197
11
3.55232
21
-2.4005
0
LINE
8
BLACK
6
CONTINUOUS
10
3.55232
20
-2.4005
11
3.5531
21
-2.39986
0
LINE
8
BLACK
6
CONTINUOUS
10
3.5531
20
-2.39986
11
3.55346
21
-2.39963
0
LINE
8
BLACK
6
CONTINUOUS
10
3.55346
20
-2.39963
11
3.55432
21
-2.39853
0
LINE
8
BLACK
6
CONTINUOUS
10
3.55432
20
-2.39853
11
3.55452
21
-2.3983
0
LINE
8
BLACK
6
CONTINUOUS
10
3.55452
20
-2.3983
11
3.55463
21
-2.39819
0
LINE
8
BLACK
6
CONTINUOUS
10
3.55463
20
-2.39819
11
3.55513
21
-2.39748
0
LINE
8
BLACK
6
CONTINUOUS
10
3.55513
20
-2.39748
11
3.55519
21
-2.3974
0
LINE
8
BLACK
6
CONTINUOUS
10
3.55519
20
-2.3974
11
3.55649
21
-2.39574
0
LINE
8
BLACK
6
CONTINUOUS
10
3.55649
20
-2.39574
11
3.55664
21
-2.39546
0
LINE
8
BLACK
6
CONTINUOUS
10
3.55664
20
-2.39546
11
3.55677
21
-2.39519
0
LINE
8
BLACK
6
CONTINUOUS
10
3.55677
20
-2.39519
11
3.55677
21
-2.39518
0
LINE
8
BLACK
6
CONTINUOUS
10
3.55677
20
-2.39518
11
3.55737
21
-2.39316
0
LINE
8
BLACK
6
CONTINUOUS
10
3.55737
20
-2.39316
11
3.5574
21
-2.39307
0
LINE
8
BLACK
6
CONTINUOUS
10
3.5574
20
-2.39307
11
3.55809
21
-2.39107
0
LINE
8
BLACK
6
CONTINUOUS
10
3.55809
20
-2.39107
11
3.55809
21
-2.39107
0
LINE
8
BLACK
6
CONTINUOUS
10
3.55809
20
-2.39107
11
3.55814
21
-2.39076
0
LINE
8
BLACK
6
CONTINUOUS
10
3.55814
20
-2.39076
11
3.55818
21
-2.39046
0
LINE
8
BLACK
6
CONTINUOUS
10
3.55818
20
-2.39046
11
3.55809
21
-2.38835
0
LINE
8
BLACK
6
CONTINUOUS
10
3.55809
20
-2.38835
11
3.55809
21
-2.38825
0
LINE
8
BLACK
6
CONTINUOUS
10
3.55809
20
-2.38825
11
3.55809
21
-2.30805
0
LINE
8
BLACK
6
CONTINUOUS
10
3.55809
20
-2.30805
11
3.55887
21
-2.30541
0
LINE
8
BLACK
6
CONTINUOUS
10
3.55887
20
-2.30541
11
3.56094
21
-2.30361
0
LINE
8
BLACK
6
CONTINUOUS
10
3.56094
20
-2.30361
11
3.56297
21
-2.30317
0
LINE
8
BLACK
6
CONTINUOUS
10
3.56297
20
-2.30317
11
3.56396
21
-2.30317
0
LINE
8
BLACK
6
CONTINUOUS
10
3.56396
20
-2.30317
11
3.56396
21
-2.30317
0
LINE
8
BLACK
6
CONTINUOUS
10
3.56396
20
-2.30317
11
3.56684
21
-2.3026
0
LINE
8
BLACK
6
CONTINUOUS
10
3.56684
20
-2.3026
11
3.5701
21
-2.30042
0
LINE
8
BLACK
6
CONTINUOUS
10
3.5701
20
-2.30042
11
3.57228
21
-2.29716
0
LINE
8
BLACK
6
CONTINUOUS
10
3.57228
20
-2.29716
11
3.57285
21
-2.29428
0
LINE
8
BLACK
6
CONTINUOUS
10
3.57285
20
-2.29428
11
3.57285
21
-2.24902
0
LINE
8
BLACK
6
CONTINUOUS
10
3.57285
20
-2.24902
11
3.57285
21
-2.22933
0
LINE
8
BLACK
6
CONTINUOUS
10
3.57285
20
-2.22933
11
3.57285
21
-2.18407
0
LINE
8
BLACK
6
CONTINUOUS
10
3.57285
20
-2.18407
11
3.57285
21
-2.18407
0
LINE
8
BLACK
6
CONTINUOUS
10
3.57285
20
-2.18407
11
3.57285
21
-2.18407
0
LINE
8
BLACK
6
CONTINUOUS
10
3.57285
20
-2.18407
11
3.57285
21
-2.18407
0
LINE
8
BLACK
6
CONTINUOUS
10
3.57285
20
-2.18407
11
3.57228
21
-2.18119
0
LINE
8
BLACK
6
CONTINUOUS
10
3.57228
20
-2.18119
11
3.57228
21
-2.18119
0
LINE
8
BLACK
6
CONTINUOUS
10
3.57228
20
-2.18119
11
3.57228
21
-2.18119
0
LINE
8
BLACK
6
CONTINUOUS
10
3.57228
20
-2.18119
11
3.5701
21
-2.17793
0
LINE
8
BLACK
6
CONTINUOUS
10
3.5701
20
-2.17793
11
3.56684
21
-2.17575
0
LINE
8
BLACK
6
CONTINUOUS
10
3.56684
20
-2.17575
11
3.56684
21
-2.17575
0
LINE
8
BLACK
6
CONTINUOUS
10
3.56684
20
-2.17575
11
3.56684
21
-2.17575
0
LINE
8
BLACK
6
CONTINUOUS
10
3.56684
20
-2.17575
11
3.56396
21
-2.17518
0
LINE
8
BLACK
6
CONTINUOUS
10
3.56396
20
-2.17518
11
3.56396
21
-2.17518
0
LINE
8
BLACK
6
CONTINUOUS
10
3.56396
20
-2.17518
11
3.52265
21
-2.17518
0
LINE
8
BLACK
6
CONTINUOUS
10
3.52265
20
-2.17518
11
3.52265
21
-2.17518
0
LINE
8
BLACK
6
CONTINUOUS
10
3.52265
20
-2.17518
11
3.51977
21
-2.17575
0
LINE
8
BLACK
6
CONTINUOUS
10
3.51977
20
-2.17575
11
3.51977
21
-2.17575
0
LINE
8
BLACK
6
CONTINUOUS
10
3.51977
20
-2.17575
11
3.51651
21
-2.17793
0
LINE
8
BLACK
6
CONTINUOUS
10
3.51651
20
-2.17793
11
3.51433
21
-2.18119
0
LINE
8
BLACK
6
CONTINUOUS
10
3.51433
20
-2.18119
11
3.51433
21
-2.18119
0
LINE
8
BLACK
6
CONTINUOUS
10
3.51433
20
-2.18119
11
3.51376
21
-2.18407
0
LINE
8
BLACK
6
CONTINUOUS
10
3.51376
20
-2.18407
11
3.51376
21
-2.18407
0
LINE
8
BLACK
6
CONTINUOUS
10
3.51376
20
-2.18407
11
3.51376
21
-2.29428
0
LINE
8
BLACK
6
CONTINUOUS
10
3.51376
20
-2.29428
11
3.51376
21
-2.29428
0
LINE
8
BLACK
6
CONTINUOUS
10
3.51376
20
-2.29428
11
3.51433
21
-2.29715
0
LINE
8
BLACK
6
CONTINUOUS
10
3.51433
20
-2.29715
11
3.51433
21
-2.29716
0
LINE
8
BLACK
6
CONTINUOUS
10
3.51433
20
-2.29716
11
3.51433
21
-2.29716
0
LINE
8
BLACK
6
CONTINUOUS
10
3.51433
20
-2.29716
11
3.51651
21
-2.30042
0
LINE
8
BLACK
6
CONTINUOUS
10
3.51651
20
-2.30042
11
3.51977
21
-2.3026
0
LINE
8
BLACK
6
CONTINUOUS
10
3.51977
20
-2.3026
11
3.51977
21
-2.3026
0
LINE
8
BLACK
6
CONTINUOUS
10
3.51977
20
-2.3026
11
3.52265
21
-2.30317
0
LINE
8
BLACK
6
CONTINUOUS
10
3.52265
20
-2.30317
11
3.52265
21
-2.30317
0
LINE
8
BLACK
6
CONTINUOUS
10
3.52265
20
-2.30317
11
3.52265
21
-2.30317
0
LINE
8
BLACK
6
CONTINUOUS
10
3.52265
20
-2.30317
11
3.52364
21
-2.30317
0
LINE
8
BLACK
6
CONTINUOUS
10
3.52364
20
-2.30317
11
3.52628
21
-2.30394
0
LINE
8
BLACK
6
CONTINUOUS
10
3.52628
20
-2.30394
11
3.52808
21
-2.30602
0
LINE
8
BLACK
6
CONTINUOUS
10
3.52808
20
-2.30602
11
3.52852
21
-2.30805
0
LINE
8
BLACK
6
CONTINUOUS
10
3.52852
20
-2.30805
11
3.52852
21
-2.37502
0
LINE
8
BLACK
6
CONTINUOUS
10
3.52852
20
-2.37502
11
3.52775
21
-2.37766
0
LINE
8
BLACK
6
CONTINUOUS
10
3.52775
20
-2.37766
11
3.52567
21
-2.37946
0
LINE
8
BLACK
6
CONTINUOUS
10
3.52567
20
-2.37946
11
3.52364
21
-2.3799
0
LINE
8
BLACK
6
CONTINUOUS
10
3.52364
20
-2.3799
11
3.52051
21
-2.3799
0
LINE
8
BLACK
6
CONTINUOUS
10
3.52051
20
-2.3799
11
3.51447
21
-2.38139
0
LINE
8
BLACK
6
CONTINUOUS
10
3.51447
20
-2.38139
11
3.50897
21
-2.38428
0
LINE
8
BLACK
6
CONTINUOUS
10
3.50897
20
-2.38428
11
3.50897
21
-2.38428
0
LINE
8
BLACK
6
CONTINUOUS
10
3.50897
20
-2.38428
11
3.50897
21
-2.38428
0
LINE
8
BLACK
6
CONTINUOUS
10
3.50897
20
-2.38428
11
3.50452
21
-2.38822
0
LINE
8
BLACK
6
CONTINUOUS
10
3.50452
20
-2.38822
11
3.50431
21
-2.3884
0
LINE
8
BLACK
6
CONTINUOUS
10
3.50431
20
-2.3884
11
3.50078
21
-2.39352
0
LINE
8
BLACK
6
CONTINUOUS
10
3.50078
20
-2.39352
11
3.50078
21
-2.39352
0
LINE
8
BLACK
6
CONTINUOUS
10
3.50078
20
-2.39352
11
3.49857
21
-2.39934
0
LINE
8
BLACK
6
CONTINUOUS
10
3.49857
20
-2.39934
11
3.49782
21
-2.40551
0
LINE
8
BLACK
6
CONTINUOUS
10
3.49782
20
-2.40551
11
3.49782
21
-2.40551
0
LINE
8
BLACK
6
CONTINUOUS
10
3.49782
20
-2.40551
11
3.49857
21
-2.41169
0
LINE
8
BLACK
6
CONTINUOUS
10
3.49857
20
-2.41169
11
3.49969
21
-2.41463
0
LINE
8
BLACK
6
CONTINUOUS
10
3.49969
20
-2.41463
11
3.50078
21
-2.4175
0
LINE
8
BLACK
6
CONTINUOUS
10
3.50078
20
-2.4175
11
3.50431
21
-2.42262
0
LINE
8
BLACK
6
CONTINUOUS
10
3.50431
20
-2.42262
11
3.50897
21
-2.42674
0
LINE
8
BLACK
6
CONTINUOUS
10
3.50897
20
-2.42674
11
3.51115
21
-2.42789
0
LINE
8
BLACK
6
CONTINUOUS
10
3.51115
20
-2.42789
11
3.51312
21
-2.4298
0
LINE
8
BLACK
6
CONTINUOUS
10
3.51312
20
-2.4298
11
3.51376
21
-2.43221
0
LINE
8
BLACK
6
CONTINUOUS
10
3.51376
20
-2.43221
11
3.51376
21
-2.46459
0
LINE
8
BLACK
6
CONTINUOUS
10
3.51376
20
-2.46459
11
3.51298
21
-2.46723
0
LINE
8
BLACK
6
CONTINUOUS
10
3.51298
20
-2.46723
11
3.51091
21
-2.46903
0
LINE
8
BLACK
6
CONTINUOUS
10
3.51091
20
-2.46903
11
3.50888
21
-2.46947
0
LINE
8
BLACK
6
CONTINUOUS
10
3.50888
20
-2.46947
11
3.49198
21
-2.46947
0
LINE
8
BLACK
6
CONTINUOUS
10
3.49198
20
-2.46947
11
3.48934
21
-2.46869
0
LINE
8
BLACK
6
CONTINUOUS
10
3.48934
20
-2.46869
11
3.48796
21
-2.46736
0
LINE
8
BLACK
6
CONTINUOUS
10
3.48796
20
-2.46736
11
3.48781
21
-2.46714
0
LINE
8
BLACK
6
CONTINUOUS
10
3.48781
20
-2.46714
11
3.48316
21
-2.46302
0
LINE
8
BLACK
6
CONTINUOUS
10
3.48316
20
-2.46302
11
3.48316
21
-2.46302
0
LINE
8
BLACK
6
CONTINUOUS
10
3.48316
20
-2.46302
11
3.48316
21
-2.46302
0
LINE
8
BLACK
6
CONTINUOUS
10
3.48316
20
-2.46302
11
3.47765
21
-2.46013
0
LINE
8
BLACK
6
CONTINUOUS
10
3.47765
20
-2.46013
11
3.47161
21
-2.45864
0
LINE
8
BLACK
6
CONTINUOUS
10
3.47161
20
-2.45864
11
3.47161
21
-2.45864
0
LINE
8
BLACK
6
CONTINUOUS
10
3.47161
20
-2.45864
11
3.46539
21
-2.45864
0
LINE
8
BLACK
6
CONTINUOUS
10
3.46539
20
-2.45864
11
3.46539
21
-2.45864
0
LINE
8
BLACK
6
CONTINUOUS
10
3.46539
20
-2.45864
11
3.45936
21
-2.46013
0
LINE
8
BLACK
6
CONTINUOUS
10
3.45936
20
-2.46013
11
3.45385
21
-2.46302
0
LINE
8
BLACK
6
CONTINUOUS
10
3.45385
20
-2.46302
11
3.44919
21
-2.46714
0
LINE
8
BLACK
6
CONTINUOUS
10
3.44919
20
-2.46714
11
3.44566
21
-2.47226
0
LINE
8
BLACK
6
CONTINUOUS
10
3.44566
20
-2.47226
11
3.44566
21
-2.47226
0
LINE
8
BLACK
6
CONTINUOUS
10
3.44566
20
-2.47226
11
3.44346
21
-2.47808
0
LINE
8
BLACK
6
CONTINUOUS
10
3.44346
20
-2.47808
11
3.44271
21
-2.48425
0
LINE
8
BLACK
6
CONTINUOUS
10
3.44271
20
-2.48425
11
3.44271
21
-2.48425
0
LINE
8
BLACK
6
CONTINUOUS
10
3.44271
20
-2.48425
11
3.44346
21
-2.49043
0
LINE
8
BLACK
6
CONTINUOUS
10
3.58268
20
-2.29519
11
3.58293
21
-2.29753
0
LINE
8
BLACK
6
CONTINUOUS
10
3.58293
20
-2.29753
11
3.58293
21
-2.29753
0
LINE
8
BLACK
6
CONTINUOUS
10
3.58293
20
-2.29753
11
3.58491
21
-2.30284
0
LINE
8
BLACK
6
CONTINUOUS
10
3.58491
20
-2.30284
11
3.58491
21
-2.30284
0
LINE
8
BLACK
6
CONTINUOUS
10
3.58491
20
-2.30284
11
3.5883
21
-2.30737
0
LINE
8
BLACK
6
CONTINUOUS
10
3.5883
20
-2.30737
11
3.5883
21
-2.30737
0
LINE
8
BLACK
6
CONTINUOUS
10
3.5883
20
-2.30737
11
3.59283
21
-2.31076
0
LINE
8
BLACK
6
CONTINUOUS
10
3.59283
20
-2.31076
11
3.59283
21
-2.31076
0
LINE
8
BLACK
6
CONTINUOUS
10
3.59283
20
-2.31076
11
3.59813
21
-2.31274
0
LINE
8
BLACK
6
CONTINUOUS
10
3.59813
20
-2.31274
11
3.59813
21
-2.31274
0
LINE
8
BLACK
6
CONTINUOUS
10
3.59813
20
-2.31274
11
3.60048
21
-2.31299
0
LINE
8
BLACK
6
CONTINUOUS
10
3.60048
20
-2.31299
11
3.60048
21
-2.31299
0
LINE
8
BLACK
6
CONTINUOUS
10
3.60048
20
-2.31299
11
3.6122
21
-2.31299
0
LINE
8
BLACK
6
CONTINUOUS
10
3.6122
20
-2.31299
11
3.6122
21
-2.29331
0
LINE
8
BLACK
6
CONTINUOUS
10
3.6122
20
-2.29331
11
3.60236
21
-2.29331
0
LINE
8
BLACK
6
CONTINUOUS
10
3.60236
20
-2.29331
11
3.60236
21
-2.24902
0
LINE
8
BLACK
6
CONTINUOUS
10
3.60236
20
-2.24902
11
3.58268
21
-2.24902
0
LINE
8
BLACK
6
CONTINUOUS
10
3.58268
20
-2.24902
11
3.58268
21
-2.29519
0
LINE
8
BLACK
6
CONTINUOUS
10
3.64173
20
-2.29331
11
3.63189
21
-2.29331
0
LINE
8
BLACK
6
CONTINUOUS
10
3.63189
20
-2.29331
11
3.63189
21
-2.31299
0
LINE
8
BLACK
6
CONTINUOUS
10
3.63189
20
-2.31299
11
3.64362
21
-2.31299
0
LINE
8
BLACK
6
CONTINUOUS
10
3.64362
20
-2.31299
11
3.64362
21
-2.31299
0
LINE
8
BLACK
6
CONTINUOUS
10
3.64362
20
-2.31299
11
3.64596
21
-2.31274
0
LINE
8
BLACK
6
CONTINUOUS
10
3.64596
20
-2.31274
11
3.64596
21
-2.31274
0
LINE
8
BLACK
6
CONTINUOUS
10
3.64596
20
-2.31274
11
3.65126
21
-2.31076
0
LINE
8
BLACK
6
CONTINUOUS
10
3.65126
20
-2.31076
11
3.65126
21
-2.31076
0
LINE
8
BLACK
6
CONTINUOUS
10
3.65126
20
-2.31076
11
3.65579
21
-2.30737
0
LINE
8
BLACK
6
CONTINUOUS
10
3.65579
20
-2.30737
11
3.65579
21
-2.30737
0
LINE
8
BLACK
6
CONTINUOUS
10
3.65579
20
-2.30737
11
3.65919
21
-2.30284
0
LINE
8
BLACK
6
CONTINUOUS
10
3.65919
20
-2.30284
11
3.65919
21
-2.30284
0
LINE
8
BLACK
6
CONTINUOUS
10
3.65919
20
-2.30284
11
3.66117
21
-2.29753
0
LINE
8
BLACK
6
CONTINUOUS
10
3.66117
20
-2.29753
11
3.66117
21
-2.29753
0
LINE
8
BLACK
6
CONTINUOUS
10
3.66117
20
-2.29753
11
3.66142
21
-2.29519
0
LINE
8
BLACK
6
CONTINUOUS
10
3.66142
20
-2.29519
11
3.66142
21
-2.29519
0
LINE
8
BLACK
6
CONTINUOUS
10
3.66142
20
-2.29519
11
3.66142
21
-2.24902
0
LINE
8
BLACK
6
CONTINUOUS
10
3.66142
20
-2.24902
11
3.64173
21
-2.24902
0
LINE
8
BLACK
6
CONTINUOUS
10
3.64173
20
-2.24902
11
3.64173
21
-2.29331
0
LINE
8
BLACK
6
CONTINUOUS
10
3.63189
20
-2.18504
11
3.64173
21
-2.18504
0
LINE
8
BLACK
6
CONTINUOUS
10
3.64173
20
-2.18504
11
3.64173
21
-2.22933
0
LINE
8
BLACK
6
CONTINUOUS
10
3.64173
20
-2.22933
11
3.66142
21
-2.22933
0
LINE
8
BLACK
6
CONTINUOUS
10
3.66142
20
-2.22933
11
3.66142
21
-2.18316
0
LINE
8
BLACK
6
CONTINUOUS
10
3.66142
20
-2.18316
11
3.66142
21
-2.18316
0
LINE
8
BLACK
6
CONTINUOUS
10
3.66142
20
-2.18316
11
3.66117
21
-2.18081
0
LINE
8
BLACK
6
CONTINUOUS
10
3.66117
20
-2.18081
11
3.66117
21
-2.18081
0
LINE
8
BLACK
6
CONTINUOUS
10
3.66117
20
-2.18081
11
3.65919
21
-2.17551
0
LINE
8
BLACK
6
CONTINUOUS
10
3.65919
20
-2.17551
11
3.65919
21
-2.17551
0
LINE
8
BLACK
6
CONTINUOUS
10
3.65919
20
-2.17551
11
3.65579
21
-2.17098
0
LINE
8
BLACK
6
CONTINUOUS
10
3.65579
20
-2.17098
11
3.65579
21
-2.17098
0
LINE
8
BLACK
6
CONTINUOUS
10
3.65579
20
-2.17098
11
3.65126
21
-2.16758
0
LINE
8
BLACK
6
CONTINUOUS
10
3.65126
20
-2.16758
11
3.65126
21
-2.16758
0
LINE
8
BLACK
6
CONTINUOUS
10
3.65126
20
-2.16758
11
3.64596
21
-2.16561
0
LINE
8
BLACK
6
CONTINUOUS
10
3.64596
20
-2.16561
11
3.64596
21
-2.16561
0
LINE
8
BLACK
6
CONTINUOUS
10
3.64596
20
-2.16561
11
3.64362
21
-2.16535
0
LINE
8
BLACK
6
CONTINUOUS
10
3.64362
20
-2.16535
11
3.63189
21
-2.16535
0
LINE
8
BLACK
6
CONTINUOUS
10
3.63189
20
-2.16535
11
3.63189
21
-2.18504
0
LINE
8
BLACK
6
CONTINUOUS
10
3.60236
20
-2.22933
11
3.60236
21
-2.18504
0
LINE
8
BLACK
6
CONTINUOUS
10
3.60236
20
-2.18504
11
3.6122
21
-2.18504
0
LINE
8
BLACK
6
CONTINUOUS
10
3.6122
20
-2.18504
11
3.6122
21
-2.16535
0
LINE
8
BLACK
6
CONTINUOUS
10
3.6122
20
-2.16535
11
3.60048
21
-2.16535
0
LINE
8
BLACK
6
CONTINUOUS
10
3.60048
20
-2.16535
11
3.59813
21
-2.16561
0
LINE
8
BLACK
6
CONTINUOUS
10
3.59813
20
-2.16561
11
3.59813
21
-2.16561
0
LINE
8
BLACK
6
CONTINUOUS
10
3.59813
20
-2.16561
11
3.59283
21
-2.16758
0
LINE
8
BLACK
6
CONTINUOUS
10
3.59283
20
-2.16758
11
3.59283
21
-2.16758
0
LINE
8
BLACK
6
CONTINUOUS
10
3.59283
20
-2.16758
11
3.5883
21
-2.17098
0
LINE
8
BLACK
6
CONTINUOUS
10
3.5883
20
-2.17098
11
3.5883
21
-2.17098
0
LINE
8
BLACK
6
CONTINUOUS
10
3.5883
20
-2.17098
11
3.58491
21
-2.17551
0
LINE
8
BLACK
6
CONTINUOUS
10
3.58491
20
-2.17551
11
3.58491
21
-2.17551
0
LINE
8
BLACK
6
CONTINUOUS
10
3.58491
20
-2.17551
11
3.58293
21
-2.18081
0
LINE
8
BLACK
6
CONTINUOUS
10
3.58293
20
-2.18081
11
3.58293
21
-2.18081
0
LINE
8
BLACK
6
CONTINUOUS
10
3.58293
20
-2.18081
11
3.58268
21
-2.18316
0
LINE
8
BLACK
6
CONTINUOUS
10
3.58268
20
-2.18316
11
3.58268
21
-2.22933
0
LINE
8
BLACK
6
CONTINUOUS
10
3.58268
20
-2.22933
11
3.60236
21
-2.22933
0
CIRCLE
8
BLACK
10
3.52362
20
-2.40551
40
0.00787402
0
CIRCLE
8
BLACK
10
3.4685
20
-2.48425
40
0.00787402
0
CIRCLE
8
BLACK
10
3.53253
20
-2.5651
40
0.00787402
0
CIRCLE
8
BLACK
10
2.71654
20
-2.37795
40
0.00787402
0
CIRCLE
8
BLACK
10
3.16535
20
-2.79528
40
0.00787402
0
CIRCLE
8
BLACK
10
3.3525
20
-1.97928
40
0.00787402
0
CIRCLE
8
BLACK
10
2.91943
20
-1.99503
40
0.00787402
0
CIRCLE
8
BLACK
10
3.13386
20
-1.92913
40
0.00787402
0
CIRCLE
8
BLACK
10
2.76668
20
-2.15931
40
0.00787402
0
CIRCLE
8
BLACK
10
3.51678
20
-2.13203
40
0.00787402
0
CIRCLE
8
BLACK
10
3.37978
20
-2.72938
40
0.00787402
0
CIRCLE
8
BLACK
10
2.94671
20
-2.74513
40
0.00787402
0
CIRCLE
8
BLACK
10
3.58268
20
-2.34646
40
0.00787402
0
CIRCLE
8
BLACK
10
2.78243
20
-2.59238
40
0.00787402
0
CIRCLE
8
BLACK
10
3.62205
20
-2.55906
40
0.00787402
0
CIRCLE
8
BLACK
10
3.66142
20
-2.40945
40
0.00787402
0
CIRCLE
8
BLACK
10
3.66142
20
-2.46457
40
0.00787402
0
CIRCLE
8
BLACK
10
3.66142
20
-2.55906
40
0.00787402
0
CIRCLE
8
BLACK
10
3.66142
20
-2.51181
40
0.00787402
0
CIRCLE
8
BLACK
10
3.62205
20
-2.40945
40
0.00787402
  0
ENDSEC
  0
EOF
