  0
SECTION
  2
HEADER
  9
$ANGBASE
  50
0.0
  9
$ANGDIR
  70
1
  9
$MEASUREMENT
  70
0
  0
ENDSEC
  0
SECTION
  2
TABLES
  0
TABLE
  2
LTYPE
  70
4
  0
LTYPE
  5
40F
  2
CONTINUOUS
  70
0
  3
Solid line
  72
65
  73
0
  40
0.0
  0
LTYPE
  5
410
  2
DASHDOT
 70
0
  3
Dash Dot ____ _ ____ _
 72
65
 73
4
 40
2.0
 49
1.25
 49
-0.25
 49
0.25
 49
-0.25
  0
LTYPE
  5
411
  2
DASHED
 70
0
  3
Dashed __ __ __ __ __
 72
65
 73
2
 40
0.75
 49
0.5
 49
-0.25
  0
LTYPE
  5
43B
  2
DOTTED
 70
0
  3
Dotted .  .  .  .
 72
65
 73
2
 40
0.2
 49
0.0
 49
-0.2
  0
ENDTAB
  0
TABLE
  2
STYLE
  70
4
  0
STYLE
  2
KICAD
  70
0
  40
0
  41
1
  42
1
  50
0
  71
0
  3
isocp.shx
  0
STYLE
  2
KICADB
  70
0
  40
0
  41
1
  42
1
  50
0
  71
0
  3
isocp.shx
  0
STYLE
  2
KICADI
  70
0
  40
0
  41
1
  42
1
  50
15
  71
0
  3
isocp.shx
  0
STYLE
  2
KICADBI
  70
0
  40
0
  41
1
  42
1
  50
15
  71
0
  3
isocp.shx
  0
ENDTAB
  0
TABLE
  2
LAYER
  70
1
  0
LAYER
  2
BLACK
  70
0
  62
7
  6
CONTINUOUS
  0
ENDTAB
  0
ENDSEC
  0
SECTION
  2
ENTITIES
0
LINE
8
BLACK
6
CONTINUOUS
10
3.68346
20
-2.83858
11
3.64409
21
-2.83858
0
LINE
8
BLACK
6
CONTINUOUS
10
3.64409
20
-2.83858
11
3.64409
21
-2.71457
0
LINE
8
BLACK
6
CONTINUOUS
10
3.64409
20
-2.71457
11
3.68346
21
-2.71457
0
LINE
8
BLACK
6
CONTINUOUS
10
3.68346
20
-2.71457
11
3.68346
21
-2.83858
0
LINE
8
BLACK
6
CONTINUOUS
10
3.78346
20
-2.83858
11
3.74409
21
-2.83858
0
LINE
8
BLACK
6
CONTINUOUS
10
3.74409
20
-2.83858
11
3.74409
21
-2.71457
0
LINE
8
BLACK
6
CONTINUOUS
10
3.74409
20
-2.71457
11
3.78346
21
-2.71457
0
LINE
8
BLACK
6
CONTINUOUS
10
3.78346
20
-2.71457
11
3.78346
21
-2.83858
0
LINE
8
BLACK
6
CONTINUOUS
10
3.88346
20
-2.83858
11
3.84409
21
-2.83858
0
LINE
8
BLACK
6
CONTINUOUS
10
3.84409
20
-2.83858
11
3.84409
21
-2.71457
0
LINE
8
BLACK
6
CONTINUOUS
10
3.84409
20
-2.71457
11
3.88346
21
-2.71457
0
LINE
8
BLACK
6
CONTINUOUS
10
3.88346
20
-2.71457
11
3.88346
21
-2.83858
0
LINE
8
BLACK
6
CONTINUOUS
10
3.68346
20
-2.63976
11
3.64409
21
-2.63976
0
LINE
8
BLACK
6
CONTINUOUS
10
3.64409
20
-2.63976
11
3.64409
21
-2.51575
0
LINE
8
BLACK
6
CONTINUOUS
10
3.64409
20
-2.51575
11
3.68346
21
-2.51575
0
LINE
8
BLACK
6
CONTINUOUS
10
3.68346
20
-2.51575
11
3.68346
21
-2.63976
0
LINE
8
BLACK
6
CONTINUOUS
10
3.78346
20
-2.63976
11
3.74409
21
-2.63976
0
LINE
8
BLACK
6
CONTINUOUS
10
3.74409
20
-2.63976
11
3.74409
21
-2.51575
0
LINE
8
BLACK
6
CONTINUOUS
10
3.74409
20
-2.51575
11
3.78346
21
-2.51575
0
LINE
8
BLACK
6
CONTINUOUS
10
3.78346
20
-2.51575
11
3.78346
21
-2.63976
0
LINE
8
BLACK
6
CONTINUOUS
10
3.88346
20
-2.63976
11
3.84409
21
-2.63976
0
LINE
8
BLACK
6
CONTINUOUS
10
3.84409
20
-2.63976
11
3.84409
21
-2.51575
0
LINE
8
BLACK
6
CONTINUOUS
10
3.84409
20
-2.51575
11
3.88346
21
-2.51575
0
LINE
8
BLACK
6
CONTINUOUS
10
3.88346
20
-2.51575
11
3.88346
21
-2.63976
0
LINE
8
BLACK
6
CONTINUOUS
10
3.64451
20
-2.29209
11
3.64771
21
-2.29422
0
LINE
8
BLACK
6
CONTINUOUS
10
3.64771
20
-2.29422
11
3.64984
21
-2.29741
0
LINE
8
BLACK
6
CONTINUOUS
10
3.64984
20
-2.29741
11
3.65059
21
-2.30118
0
LINE
8
BLACK
6
CONTINUOUS
10
3.65059
20
-2.30118
11
3.65059
21
-2.34449
0
LINE
8
BLACK
6
CONTINUOUS
10
3.65059
20
-2.34449
11
3.64984
21
-2.34825
0
LINE
8
BLACK
6
CONTINUOUS
10
3.64984
20
-2.34825
11
3.64771
21
-2.35145
0
LINE
8
BLACK
6
CONTINUOUS
10
3.64771
20
-2.35145
11
3.64451
21
-2.35358
0
LINE
8
BLACK
6
CONTINUOUS
10
3.64451
20
-2.35358
11
3.64075
21
-2.35433
0
LINE
8
BLACK
6
CONTINUOUS
10
3.64075
20
-2.35433
11
3.55118
21
-2.35433
0
LINE
8
BLACK
6
CONTINUOUS
10
3.55118
20
-2.35433
11
3.54741
21
-2.35358
0
LINE
8
BLACK
6
CONTINUOUS
10
3.54741
20
-2.35358
11
3.54422
21
-2.35145
0
LINE
8
BLACK
6
CONTINUOUS
10
3.54422
20
-2.35145
11
3.54209
21
-2.34825
0
LINE
8
BLACK
6
CONTINUOUS
10
3.54209
20
-2.34825
11
3.54134
21
-2.34449
0
LINE
8
BLACK
6
CONTINUOUS
10
3.54134
20
-2.34449
11
3.54134
21
-2.30118
0
LINE
8
BLACK
6
CONTINUOUS
10
3.54134
20
-2.30118
11
3.54209
21
-2.29741
0
LINE
8
BLACK
6
CONTINUOUS
10
3.54209
20
-2.29741
11
3.54422
21
-2.29422
0
LINE
8
BLACK
6
CONTINUOUS
10
3.54422
20
-2.29422
11
3.54741
21
-2.29209
0
LINE
8
BLACK
6
CONTINUOUS
10
3.54741
20
-2.29209
11
3.55118
21
-2.29134
0
LINE
8
BLACK
6
CONTINUOUS
10
3.55118
20
-2.29134
11
3.64075
21
-2.29134
0
LINE
8
BLACK
6
CONTINUOUS
10
3.64075
20
-2.29134
11
3.64451
21
-2.29209
0
LINE
8
BLACK
6
CONTINUOUS
10
3.80692
20
-2.29209
11
3.81011
21
-2.29422
0
LINE
8
BLACK
6
CONTINUOUS
10
3.81011
20
-2.29422
11
3.81224
21
-2.29741
0
LINE
8
BLACK
6
CONTINUOUS
10
3.81224
20
-2.29741
11
3.81299
21
-2.30118
0
LINE
8
BLACK
6
CONTINUOUS
10
3.81299
20
-2.30118
11
3.81299
21
-2.34449
0
LINE
8
BLACK
6
CONTINUOUS
10
3.81299
20
-2.34449
11
3.81224
21
-2.34825
0
LINE
8
BLACK
6
CONTINUOUS
10
3.81224
20
-2.34825
11
3.81011
21
-2.35145
0
LINE
8
BLACK
6
CONTINUOUS
10
3.81011
20
-2.35145
11
3.80692
21
-2.35358
0
LINE
8
BLACK
6
CONTINUOUS
10
3.80692
20
-2.35358
11
3.80315
21
-2.35433
0
LINE
8
BLACK
6
CONTINUOUS
10
3.80315
20
-2.35433
11
3.71358
21
-2.35433
0
LINE
8
BLACK
6
CONTINUOUS
10
3.71358
20
-2.35433
11
3.70982
21
-2.35358
0
LINE
8
BLACK
6
CONTINUOUS
10
3.70982
20
-2.35358
11
3.70662
21
-2.35145
0
LINE
8
BLACK
6
CONTINUOUS
10
3.70662
20
-2.35145
11
3.70449
21
-2.34825
0
LINE
8
BLACK
6
CONTINUOUS
10
3.70449
20
-2.34825
11
3.70374
21
-2.34449
0
LINE
8
BLACK
6
CONTINUOUS
10
3.70374
20
-2.34449
11
3.70374
21
-2.30118
0
LINE
8
BLACK
6
CONTINUOUS
10
3.70374
20
-2.30118
11
3.70449
21
-2.29741
0
LINE
8
BLACK
6
CONTINUOUS
10
3.70449
20
-2.29741
11
3.70662
21
-2.29422
0
LINE
8
BLACK
6
CONTINUOUS
10
3.70662
20
-2.29422
11
3.70982
21
-2.29209
0
LINE
8
BLACK
6
CONTINUOUS
10
3.70982
20
-2.29209
11
3.71358
21
-2.29134
0
LINE
8
BLACK
6
CONTINUOUS
10
3.71358
20
-2.29134
11
3.80315
21
-2.29134
0
LINE
8
BLACK
6
CONTINUOUS
10
3.80315
20
-2.29134
11
3.80692
21
-2.29209
0
LINE
8
BLACK
6
CONTINUOUS
10
3.93351
20
-2.19
11
3.93618
21
-2.19178
0
LINE
8
BLACK
6
CONTINUOUS
10
3.93618
20
-2.19178
11
3.93796
21
-2.19444
0
LINE
8
BLACK
6
CONTINUOUS
10
3.93796
20
-2.19444
11
3.93858
21
-2.19759
0
LINE
8
BLACK
6
CONTINUOUS
10
3.93858
20
-2.19759
11
3.93858
21
-2.21403
0
LINE
8
BLACK
6
CONTINUOUS
10
3.93858
20
-2.21403
11
3.93796
21
-2.21717
0
LINE
8
BLACK
6
CONTINUOUS
10
3.93796
20
-2.21717
11
3.93618
21
-2.21984
0
LINE
8
BLACK
6
CONTINUOUS
10
3.93618
20
-2.21984
11
3.93351
21
-2.22162
0
LINE
8
BLACK
6
CONTINUOUS
10
3.93351
20
-2.22162
11
3.93036
21
-2.22224
0
LINE
8
BLACK
6
CONTINUOUS
10
3.93036
20
-2.22224
11
3.89641
21
-2.22224
0
LINE
8
BLACK
6
CONTINUOUS
10
3.89641
20
-2.22224
11
3.89326
21
-2.22162
0
LINE
8
BLACK
6
CONTINUOUS
10
3.89326
20
-2.22162
11
3.8906
21
-2.21984
0
LINE
8
BLACK
6
CONTINUOUS
10
3.8906
20
-2.21984
11
3.88881
21
-2.21717
0
LINE
8
BLACK
6
CONTINUOUS
10
3.88881
20
-2.21717
11
3.88819
21
-2.21403
0
LINE
8
BLACK
6
CONTINUOUS
10
3.88819
20
-2.21403
11
3.88819
21
-2.19759
0
LINE
8
BLACK
6
CONTINUOUS
10
3.88819
20
-2.19759
11
3.88881
21
-2.19444
0
LINE
8
BLACK
6
CONTINUOUS
10
3.88881
20
-2.19444
11
3.8906
21
-2.19178
0
LINE
8
BLACK
6
CONTINUOUS
10
3.8906
20
-2.19178
11
3.89326
21
-2.19
0
LINE
8
BLACK
6
CONTINUOUS
10
3.89326
20
-2.19
11
3.89641
21
-2.18937
0
LINE
8
BLACK
6
CONTINUOUS
10
3.89641
20
-2.18937
11
3.93036
21
-2.18937
0
LINE
8
BLACK
6
CONTINUOUS
10
3.93036
20
-2.18937
11
3.93351
21
-2.19
0
LINE
8
BLACK
6
CONTINUOUS
10
3.93351
20
-2.14059
11
3.93618
21
-2.14237
0
LINE
8
BLACK
6
CONTINUOUS
10
3.93618
20
-2.14237
11
3.93796
21
-2.14503
0
LINE
8
BLACK
6
CONTINUOUS
10
3.93796
20
-2.14503
11
3.93858
21
-2.14818
0
LINE
8
BLACK
6
CONTINUOUS
10
3.93858
20
-2.14818
11
3.93858
21
-2.16462
0
LINE
8
BLACK
6
CONTINUOUS
10
3.93858
20
-2.16462
11
3.93796
21
-2.16776
0
LINE
8
BLACK
6
CONTINUOUS
10
3.93796
20
-2.16776
11
3.93618
21
-2.17043
0
LINE
8
BLACK
6
CONTINUOUS
10
3.93618
20
-2.17043
11
3.93351
21
-2.17221
0
LINE
8
BLACK
6
CONTINUOUS
10
3.93351
20
-2.17221
11
3.93036
21
-2.17283
0
LINE
8
BLACK
6
CONTINUOUS
10
3.93036
20
-2.17283
11
3.89641
21
-2.17283
0
LINE
8
BLACK
6
CONTINUOUS
10
3.89641
20
-2.17283
11
3.89326
21
-2.17221
0
LINE
8
BLACK
6
CONTINUOUS
10
3.89326
20
-2.17221
11
3.8906
21
-2.17043
0
LINE
8
BLACK
6
CONTINUOUS
10
3.8906
20
-2.17043
11
3.88881
21
-2.16776
0
LINE
8
BLACK
6
CONTINUOUS
10
3.88881
20
-2.16776
11
3.88819
21
-2.16462
0
LINE
8
BLACK
6
CONTINUOUS
10
3.88819
20
-2.16462
11
3.88819
21
-2.14818
0
LINE
8
BLACK
6
CONTINUOUS
10
3.88819
20
-2.14818
11
3.88881
21
-2.14503
0
LINE
8
BLACK
6
CONTINUOUS
10
3.88881
20
-2.14503
11
3.8906
21
-2.14237
0
LINE
8
BLACK
6
CONTINUOUS
10
3.8906
20
-2.14237
11
3.89326
21
-2.14059
0
LINE
8
BLACK
6
CONTINUOUS
10
3.89326
20
-2.14059
11
3.89641
21
-2.13996
0
LINE
8
BLACK
6
CONTINUOUS
10
3.89641
20
-2.13996
11
3.93036
21
-2.13996
0
LINE
8
BLACK
6
CONTINUOUS
10
3.93036
20
-2.13996
11
3.93351
21
-2.14059
0
LINE
8
BLACK
6
CONTINUOUS
10
3.67352
20
-2.14238
11
3.67544
21
-2.14366
0
LINE
8
BLACK
6
CONTINUOUS
10
3.67544
20
-2.14366
11
3.67672
21
-2.14557
0
LINE
8
BLACK
6
CONTINUOUS
10
3.67672
20
-2.14557
11
3.67717
21
-2.14783
0
LINE
8
BLACK
6
CONTINUOUS
10
3.67717
20
-2.14783
11
3.67717
21
-2.15965
0
LINE
8
BLACK
6
CONTINUOUS
10
3.67717
20
-2.15965
11
3.67672
21
-2.16191
0
LINE
8
BLACK
6
CONTINUOUS
10
3.67672
20
-2.16191
11
3.67544
21
-2.16382
0
LINE
8
BLACK
6
CONTINUOUS
10
3.67544
20
-2.16382
11
3.67352
21
-2.1651
0
LINE
8
BLACK
6
CONTINUOUS
10
3.67352
20
-2.1651
11
3.67126
21
-2.16555
0
LINE
8
BLACK
6
CONTINUOUS
10
3.67126
20
-2.16555
11
3.6063
21
-2.16555
0
LINE
8
BLACK
6
CONTINUOUS
10
3.6063
20
-2.16555
11
3.60404
21
-2.1651
0
LINE
8
BLACK
6
CONTINUOUS
10
3.60404
20
-2.1651
11
3.60212
21
-2.16382
0
LINE
8
BLACK
6
CONTINUOUS
10
3.60212
20
-2.16382
11
3.60084
21
-2.16191
0
LINE
8
BLACK
6
CONTINUOUS
10
3.60084
20
-2.16191
11
3.60039
21
-2.15965
0
LINE
8
BLACK
6
CONTINUOUS
10
3.60039
20
-2.15965
11
3.60039
21
-2.14783
0
LINE
8
BLACK
6
CONTINUOUS
10
3.60039
20
-2.14783
11
3.60084
21
-2.14557
0
LINE
8
BLACK
6
CONTINUOUS
10
3.60084
20
-2.14557
11
3.60212
21
-2.14366
0
LINE
8
BLACK
6
CONTINUOUS
10
3.60212
20
-2.14366
11
3.60404
21
-2.14238
0
LINE
8
BLACK
6
CONTINUOUS
10
3.60404
20
-2.14238
11
3.6063
21
-2.14193
0
LINE
8
BLACK
6
CONTINUOUS
10
3.6063
20
-2.14193
11
3.67126
21
-2.14193
0
LINE
8
BLACK
6
CONTINUOUS
10
3.67126
20
-2.14193
11
3.67352
21
-2.14238
0
LINE
8
BLACK
6
CONTINUOUS
10
3.8684
20
-2.14238
11
3.87032
21
-2.14366
0
LINE
8
BLACK
6
CONTINUOUS
10
3.87032
20
-2.14366
11
3.8716
21
-2.14557
0
LINE
8
BLACK
6
CONTINUOUS
10
3.8716
20
-2.14557
11
3.87205
21
-2.14783
0
LINE
8
BLACK
6
CONTINUOUS
10
3.87205
20
-2.14783
11
3.87205
21
-2.15965
0
LINE
8
BLACK
6
CONTINUOUS
10
3.87205
20
-2.15965
11
3.8716
21
-2.16191
0
LINE
8
BLACK
6
CONTINUOUS
10
3.8716
20
-2.16191
11
3.87032
21
-2.16382
0
LINE
8
BLACK
6
CONTINUOUS
10
3.87032
20
-2.16382
11
3.8684
21
-2.1651
0
LINE
8
BLACK
6
CONTINUOUS
10
3.8684
20
-2.1651
11
3.86614
21
-2.16555
0
LINE
8
BLACK
6
CONTINUOUS
10
3.86614
20
-2.16555
11
3.80118
21
-2.16555
0
LINE
8
BLACK
6
CONTINUOUS
10
3.80118
20
-2.16555
11
3.79892
21
-2.1651
0
LINE
8
BLACK
6
CONTINUOUS
10
3.79892
20
-2.1651
11
3.79701
21
-2.16382
0
LINE
8
BLACK
6
CONTINUOUS
10
3.79701
20
-2.16382
11
3.79573
21
-2.16191
0
LINE
8
BLACK
6
CONTINUOUS
10
3.79573
20
-2.16191
11
3.79528
21
-2.15965
0
LINE
8
BLACK
6
CONTINUOUS
10
3.79528
20
-2.15965
11
3.79528
21
-2.14783
0
LINE
8
BLACK
6
CONTINUOUS
10
3.79528
20
-2.14783
11
3.79573
21
-2.14557
0
LINE
8
BLACK
6
CONTINUOUS
10
3.79573
20
-2.14557
11
3.79701
21
-2.14366
0
LINE
8
BLACK
6
CONTINUOUS
10
3.79701
20
-2.14366
11
3.79892
21
-2.14238
0
LINE
8
BLACK
6
CONTINUOUS
10
3.79892
20
-2.14238
11
3.80118
21
-2.14193
0
LINE
8
BLACK
6
CONTINUOUS
10
3.80118
20
-2.14193
11
3.86614
21
-2.14193
0
LINE
8
BLACK
6
CONTINUOUS
10
3.86614
20
-2.14193
11
3.8684
21
-2.14238
0
LINE
8
BLACK
6
CONTINUOUS
10
3.93307
20
-2.12402
11
3.8937
21
-2.12402
0
LINE
8
BLACK
6
CONTINUOUS
10
3.8937
20
-2.12402
11
3.8937
21
-2.08465
0
LINE
8
BLACK
6
CONTINUOUS
10
3.8937
20
-2.08465
11
3.93307
21
-2.08465
0
LINE
8
BLACK
6
CONTINUOUS
10
3.93307
20
-2.08465
11
3.93307
21
-2.12402
0
LINE
8
BLACK
6
CONTINUOUS
10
3.67352
20
-2.09238
11
3.67544
21
-2.09366
0
LINE
8
BLACK
6
CONTINUOUS
10
3.67544
20
-2.09366
11
3.67672
21
-2.09557
0
LINE
8
BLACK
6
CONTINUOUS
10
3.67672
20
-2.09557
11
3.67717
21
-2.09783
0
LINE
8
BLACK
6
CONTINUOUS
10
3.67717
20
-2.09783
11
3.67717
21
-2.10965
0
LINE
8
BLACK
6
CONTINUOUS
10
3.67717
20
-2.10965
11
3.67672
21
-2.11191
0
LINE
8
BLACK
6
CONTINUOUS
10
3.67672
20
-2.11191
11
3.67544
21
-2.11382
0
LINE
8
BLACK
6
CONTINUOUS
10
3.67544
20
-2.11382
11
3.67352
21
-2.1151
0
LINE
8
BLACK
6
CONTINUOUS
10
3.67352
20
-2.1151
11
3.67126
21
-2.11555
0
LINE
8
BLACK
6
CONTINUOUS
10
3.67126
20
-2.11555
11
3.6063
21
-2.11555
0
LINE
8
BLACK
6
CONTINUOUS
10
3.6063
20
-2.11555
11
3.60404
21
-2.1151
0
LINE
8
BLACK
6
CONTINUOUS
10
3.60404
20
-2.1151
11
3.60212
21
-2.11382
0
LINE
8
BLACK
6
CONTINUOUS
10
3.60212
20
-2.11382
11
3.60084
21
-2.11191
0
LINE
8
BLACK
6
CONTINUOUS
10
3.60084
20
-2.11191
11
3.60039
21
-2.10965
0
LINE
8
BLACK
6
CONTINUOUS
10
3.60039
20
-2.10965
11
3.60039
21
-2.09783
0
LINE
8
BLACK
6
CONTINUOUS
10
3.60039
20
-2.09783
11
3.60084
21
-2.09557
0
LINE
8
BLACK
6
CONTINUOUS
10
3.60084
20
-2.09557
11
3.60212
21
-2.09366
0
LINE
8
BLACK
6
CONTINUOUS
10
3.60212
20
-2.09366
11
3.60404
21
-2.09238
0
LINE
8
BLACK
6
CONTINUOUS
10
3.60404
20
-2.09238
11
3.6063
21
-2.09193
0
LINE
8
BLACK
6
CONTINUOUS
10
3.6063
20
-2.09193
11
3.67126
21
-2.09193
0
LINE
8
BLACK
6
CONTINUOUS
10
3.67126
20
-2.09193
11
3.67352
21
-2.09238
0
LINE
8
BLACK
6
CONTINUOUS
10
3.8684
20
-2.09238
11
3.87032
21
-2.09366
0
LINE
8
BLACK
6
CONTINUOUS
10
3.87032
20
-2.09366
11
3.8716
21
-2.09557
0
LINE
8
BLACK
6
CONTINUOUS
10
3.8716
20
-2.09557
11
3.87205
21
-2.09783
0
LINE
8
BLACK
6
CONTINUOUS
10
3.87205
20
-2.09783
11
3.87205
21
-2.10965
0
LINE
8
BLACK
6
CONTINUOUS
10
3.87205
20
-2.10965
11
3.8716
21
-2.11191
0
LINE
8
BLACK
6
CONTINUOUS
10
3.8716
20
-2.11191
11
3.87032
21
-2.11382
0
LINE
8
BLACK
6
CONTINUOUS
10
3.87032
20
-2.11382
11
3.8684
21
-2.1151
0
LINE
8
BLACK
6
CONTINUOUS
10
3.8684
20
-2.1151
11
3.86614
21
-2.11555
0
LINE
8
BLACK
6
CONTINUOUS
10
3.86614
20
-2.11555
11
3.80118
21
-2.11555
0
LINE
8
BLACK
6
CONTINUOUS
10
3.80118
20
-2.11555
11
3.79892
21
-2.1151
0
LINE
8
BLACK
6
CONTINUOUS
10
3.79892
20
-2.1151
11
3.79701
21
-2.11382
0
LINE
8
BLACK
6
CONTINUOUS
10
3.79701
20
-2.11382
11
3.79573
21
-2.11191
0
LINE
8
BLACK
6
CONTINUOUS
10
3.79573
20
-2.11191
11
3.79528
21
-2.10965
0
LINE
8
BLACK
6
CONTINUOUS
10
3.79528
20
-2.10965
11
3.79528
21
-2.09783
0
LINE
8
BLACK
6
CONTINUOUS
10
3.79528
20
-2.09783
11
3.79573
21
-2.09557
0
LINE
8
BLACK
6
CONTINUOUS
10
3.79573
20
-2.09557
11
3.79701
21
-2.09366
0
LINE
8
BLACK
6
CONTINUOUS
10
3.79701
20
-2.09366
11
3.79892
21
-2.09238
0
LINE
8
BLACK
6
CONTINUOUS
10
3.79892
20
-2.09238
11
3.80118
21
-2.09193
0
LINE
8
BLACK
6
CONTINUOUS
10
3.80118
20
-2.09193
11
3.86614
21
-2.09193
0
LINE
8
BLACK
6
CONTINUOUS
10
3.86614
20
-2.09193
11
3.8684
21
-2.09238
0
LINE
8
BLACK
6
CONTINUOUS
10
3.67352
20
-2.04238
11
3.67544
21
-2.04366
0
LINE
8
BLACK
6
CONTINUOUS
10
3.67544
20
-2.04366
11
3.67672
21
-2.04557
0
LINE
8
BLACK
6
CONTINUOUS
10
3.67672
20
-2.04557
11
3.67717
21
-2.04783
0
LINE
8
BLACK
6
CONTINUOUS
10
3.67717
20
-2.04783
11
3.67717
21
-2.05965
0
LINE
8
BLACK
6
CONTINUOUS
10
3.67717
20
-2.05965
11
3.67672
21
-2.06191
0
LINE
8
BLACK
6
CONTINUOUS
10
3.67672
20
-2.06191
11
3.67544
21
-2.06382
0
LINE
8
BLACK
6
CONTINUOUS
10
3.67544
20
-2.06382
11
3.67352
21
-2.0651
0
LINE
8
BLACK
6
CONTINUOUS
10
3.67352
20
-2.0651
11
3.67126
21
-2.06555
0
LINE
8
BLACK
6
CONTINUOUS
10
3.67126
20
-2.06555
11
3.6063
21
-2.06555
0
LINE
8
BLACK
6
CONTINUOUS
10
3.6063
20
-2.06555
11
3.60404
21
-2.0651
0
LINE
8
BLACK
6
CONTINUOUS
10
3.60404
20
-2.0651
11
3.60212
21
-2.06382
0
LINE
8
BLACK
6
CONTINUOUS
10
3.60212
20
-2.06382
11
3.60084
21
-2.06191
0
LINE
8
BLACK
6
CONTINUOUS
10
3.60084
20
-2.06191
11
3.60039
21
-2.05965
0
LINE
8
BLACK
6
CONTINUOUS
10
3.60039
20
-2.05965
11
3.60039
21
-2.04783
0
LINE
8
BLACK
6
CONTINUOUS
10
3.60039
20
-2.04783
11
3.60084
21
-2.04557
0
LINE
8
BLACK
6
CONTINUOUS
10
3.60084
20
-2.04557
11
3.60212
21
-2.04366
0
LINE
8
BLACK
6
CONTINUOUS
10
3.60212
20
-2.04366
11
3.60404
21
-2.04238
0
LINE
8
BLACK
6
CONTINUOUS
10
3.60404
20
-2.04238
11
3.6063
21
-2.04193
0
LINE
8
BLACK
6
CONTINUOUS
10
3.6063
20
-2.04193
11
3.67126
21
-2.04193
0
LINE
8
BLACK
6
CONTINUOUS
10
3.67126
20
-2.04193
11
3.67352
21
-2.04238
0
LINE
8
BLACK
6
CONTINUOUS
10
3.8684
20
-2.04238
11
3.87032
21
-2.04366
0
LINE
8
BLACK
6
CONTINUOUS
10
3.87032
20
-2.04366
11
3.8716
21
-2.04557
0
LINE
8
BLACK
6
CONTINUOUS
10
3.8716
20
-2.04557
11
3.87205
21
-2.04783
0
LINE
8
BLACK
6
CONTINUOUS
10
3.87205
20
-2.04783
11
3.87205
21
-2.05965
0
LINE
8
BLACK
6
CONTINUOUS
10
3.87205
20
-2.05965
11
3.8716
21
-2.06191
0
LINE
8
BLACK
6
CONTINUOUS
10
3.8716
20
-2.06191
11
3.87032
21
-2.06382
0
LINE
8
BLACK
6
CONTINUOUS
10
3.87032
20
-2.06382
11
3.8684
21
-2.0651
0
LINE
8
BLACK
6
CONTINUOUS
10
3.8684
20
-2.0651
11
3.86614
21
-2.06555
0
LINE
8
BLACK
6
CONTINUOUS
10
3.86614
20
-2.06555
11
3.80118
21
-2.06555
0
LINE
8
BLACK
6
CONTINUOUS
10
3.80118
20
-2.06555
11
3.79892
21
-2.0651
0
LINE
8
BLACK
6
CONTINUOUS
10
3.79892
20
-2.0651
11
3.79701
21
-2.06382
0
LINE
8
BLACK
6
CONTINUOUS
10
3.79701
20
-2.06382
11
3.79573
21
-2.06191
0
LINE
8
BLACK
6
CONTINUOUS
10
3.79573
20
-2.06191
11
3.79528
21
-2.05965
0
LINE
8
BLACK
6
CONTINUOUS
10
3.79528
20
-2.05965
11
3.79528
21
-2.04783
0
LINE
8
BLACK
6
CONTINUOUS
10
3.79528
20
-2.04783
11
3.79573
21
-2.04557
0
LINE
8
BLACK
6
CONTINUOUS
10
3.79573
20
-2.04557
11
3.79701
21
-2.04366
0
LINE
8
BLACK
6
CONTINUOUS
10
3.79701
20
-2.04366
11
3.79892
21
-2.04238
0
LINE
8
BLACK
6
CONTINUOUS
10
3.79892
20
-2.04238
11
3.80118
21
-2.04193
0
LINE
8
BLACK
6
CONTINUOUS
10
3.80118
20
-2.04193
11
3.86614
21
-2.04193
0
LINE
8
BLACK
6
CONTINUOUS
10
3.86614
20
-2.04193
11
3.8684
21
-2.04238
0
LINE
8
BLACK
6
CONTINUOUS
10
3.93307
20
-2.05709
11
3.8937
21
-2.05709
0
LINE
8
BLACK
6
CONTINUOUS
10
3.8937
20
-2.05709
11
3.8937
21
-2.01772
0
LINE
8
BLACK
6
CONTINUOUS
10
3.8937
20
-2.01772
11
3.93307
21
-2.01772
0
LINE
8
BLACK
6
CONTINUOUS
10
3.93307
20
-2.01772
11
3.93307
21
-2.05709
0
LINE
8
BLACK
6
CONTINUOUS
10
3.67352
20
-1.99238
11
3.67544
21
-1.99366
0
LINE
8
BLACK
6
CONTINUOUS
10
3.67544
20
-1.99366
11
3.67672
21
-1.99557
0
LINE
8
BLACK
6
CONTINUOUS
10
3.67672
20
-1.99557
11
3.67717
21
-1.99783
0
LINE
8
BLACK
6
CONTINUOUS
10
3.67717
20
-1.99783
11
3.67717
21
-2.00965
0
LINE
8
BLACK
6
CONTINUOUS
10
3.67717
20
-2.00965
11
3.67672
21
-2.01191
0
LINE
8
BLACK
6
CONTINUOUS
10
3.67672
20
-2.01191
11
3.67544
21
-2.01382
0
LINE
8
BLACK
6
CONTINUOUS
10
3.67544
20
-2.01382
11
3.67352
21
-2.0151
0
LINE
8
BLACK
6
CONTINUOUS
10
3.67352
20
-2.0151
11
3.67126
21
-2.01555
0
LINE
8
BLACK
6
CONTINUOUS
10
3.67126
20
-2.01555
11
3.6063
21
-2.01555
0
LINE
8
BLACK
6
CONTINUOUS
10
3.6063
20
-2.01555
11
3.60404
21
-2.0151
0
LINE
8
BLACK
6
CONTINUOUS
10
3.60404
20
-2.0151
11
3.60212
21
-2.01382
0
LINE
8
BLACK
6
CONTINUOUS
10
3.60212
20
-2.01382
11
3.60084
21
-2.01191
0
LINE
8
BLACK
6
CONTINUOUS
10
3.60084
20
-2.01191
11
3.60039
21
-2.00965
0
LINE
8
BLACK
6
CONTINUOUS
10
3.60039
20
-2.00965
11
3.60039
21
-1.99783
0
LINE
8
BLACK
6
CONTINUOUS
10
3.60039
20
-1.99783
11
3.60084
21
-1.99557
0
LINE
8
BLACK
6
CONTINUOUS
10
3.60084
20
-1.99557
11
3.60212
21
-1.99366
0
LINE
8
BLACK
6
CONTINUOUS
10
3.60212
20
-1.99366
11
3.60404
21
-1.99238
0
LINE
8
BLACK
6
CONTINUOUS
10
3.60404
20
-1.99238
11
3.6063
21
-1.99193
0
LINE
8
BLACK
6
CONTINUOUS
10
3.6063
20
-1.99193
11
3.67126
21
-1.99193
0
LINE
8
BLACK
6
CONTINUOUS
10
3.67126
20
-1.99193
11
3.67352
21
-1.99238
0
LINE
8
BLACK
6
CONTINUOUS
10
3.8684
20
-1.99238
11
3.87032
21
-1.99366
0
LINE
8
BLACK
6
CONTINUOUS
10
3.87032
20
-1.99366
11
3.8716
21
-1.99557
0
LINE
8
BLACK
6
CONTINUOUS
10
3.8716
20
-1.99557
11
3.87205
21
-1.99783
0
LINE
8
BLACK
6
CONTINUOUS
10
3.87205
20
-1.99783
11
3.87205
21
-2.00965
0
LINE
8
BLACK
6
CONTINUOUS
10
3.87205
20
-2.00965
11
3.8716
21
-2.01191
0
LINE
8
BLACK
6
CONTINUOUS
10
3.8716
20
-2.01191
11
3.87032
21
-2.01382
0
LINE
8
BLACK
6
CONTINUOUS
10
3.87032
20
-2.01382
11
3.8684
21
-2.0151
0
LINE
8
BLACK
6
CONTINUOUS
10
3.8684
20
-2.0151
11
3.86614
21
-2.01555
0
LINE
8
BLACK
6
CONTINUOUS
10
3.86614
20
-2.01555
11
3.80118
21
-2.01555
0
LINE
8
BLACK
6
CONTINUOUS
10
3.80118
20
-2.01555
11
3.79892
21
-2.0151
0
LINE
8
BLACK
6
CONTINUOUS
10
3.79892
20
-2.0151
11
3.79701
21
-2.01382
0
LINE
8
BLACK
6
CONTINUOUS
10
3.79701
20
-2.01382
11
3.79573
21
-2.01191
0
LINE
8
BLACK
6
CONTINUOUS
10
3.79573
20
-2.01191
11
3.79528
21
-2.00965
0
LINE
8
BLACK
6
CONTINUOUS
10
3.79528
20
-2.00965
11
3.79528
21
-1.99783
0
LINE
8
BLACK
6
CONTINUOUS
10
3.79528
20
-1.99783
11
3.79573
21
-1.99557
0
LINE
8
BLACK
6
CONTINUOUS
10
3.79573
20
-1.99557
11
3.79701
21
-1.99366
0
LINE
8
BLACK
6
CONTINUOUS
10
3.79701
20
-1.99366
11
3.79892
21
-1.99238
0
LINE
8
BLACK
6
CONTINUOUS
10
3.79892
20
-1.99238
11
3.80118
21
-1.99193
0
LINE
8
BLACK
6
CONTINUOUS
10
3.80118
20
-1.99193
11
3.86614
21
-1.99193
0
LINE
8
BLACK
6
CONTINUOUS
10
3.86614
20
-1.99193
11
3.8684
21
-1.99238
  0
ENDSEC
  0
EOF
