%TF.GenerationSoftware,KiCad,Pcbnew,7.0.8-7.0.8~ubuntu23.04.1*%
%TF.CreationDate,2023-10-21T09:14:23+00:00*%
%TF.ProjectId,pedalboard-led-ring,70656461-6c62-46f6-9172-642d6c65642d,1.1.0-RC1*%
%TF.SameCoordinates,Original*%
%TF.FileFunction,Drillmap*%
%TF.FilePolarity,Positive*%
%FSLAX45Y45*%
G04 Gerber Fmt 4.5, Leading zero omitted, Abs format (unit mm)*
G04 Created by KiCad (PCBNEW 7.0.8-7.0.8~ubuntu23.04.1) date 2023-10-21 09:14:23*
%MOMM*%
%LPD*%
G01*
G04 APERTURE LIST*
%ADD10C,0.100000*%
%ADD11C,0.200000*%
G04 APERTURE END LIST*
D10*
X8000000Y-7200000D02*
G75*
G03*
X9006267Y-6653778I0J1200000D01*
G01*
X8610000Y-6000000D02*
G75*
G03*
X8610000Y-6000000I-610000J0D01*
G01*
X9200000Y-5500000D02*
X9200000Y-6500000D01*
X8000000Y-4800000D02*
G75*
G03*
X8000000Y-7200000I0J-1200000D01*
G01*
X9006267Y-6653778D02*
X9200000Y-6500000D01*
X9032747Y-5388907D02*
G75*
G03*
X8000000Y-4800000I-1032747J-611093D01*
G01*
X9032747Y-5388907D02*
X9200000Y-5500000D01*
D11*
X7055777Y-7516484D02*
X7055777Y-7316484D01*
X7055777Y-7316484D02*
X7103396Y-7316484D01*
X7103396Y-7316484D02*
X7131967Y-7326008D01*
X7131967Y-7326008D02*
X7151015Y-7345055D01*
X7151015Y-7345055D02*
X7160539Y-7364103D01*
X7160539Y-7364103D02*
X7170062Y-7402198D01*
X7170062Y-7402198D02*
X7170062Y-7430769D01*
X7170062Y-7430769D02*
X7160539Y-7468865D01*
X7160539Y-7468865D02*
X7151015Y-7487912D01*
X7151015Y-7487912D02*
X7131967Y-7506960D01*
X7131967Y-7506960D02*
X7103396Y-7516484D01*
X7103396Y-7516484D02*
X7055777Y-7516484D01*
X7255777Y-7516484D02*
X7255777Y-7383150D01*
X7255777Y-7421246D02*
X7265301Y-7402198D01*
X7265301Y-7402198D02*
X7274824Y-7392674D01*
X7274824Y-7392674D02*
X7293872Y-7383150D01*
X7293872Y-7383150D02*
X7312920Y-7383150D01*
X7379586Y-7516484D02*
X7379586Y-7383150D01*
X7379586Y-7316484D02*
X7370062Y-7326008D01*
X7370062Y-7326008D02*
X7379586Y-7335531D01*
X7379586Y-7335531D02*
X7389110Y-7326008D01*
X7389110Y-7326008D02*
X7379586Y-7316484D01*
X7379586Y-7316484D02*
X7379586Y-7335531D01*
X7503396Y-7516484D02*
X7484348Y-7506960D01*
X7484348Y-7506960D02*
X7474824Y-7487912D01*
X7474824Y-7487912D02*
X7474824Y-7316484D01*
X7608158Y-7516484D02*
X7589110Y-7506960D01*
X7589110Y-7506960D02*
X7579586Y-7487912D01*
X7579586Y-7487912D02*
X7579586Y-7316484D01*
X7836729Y-7516484D02*
X7836729Y-7316484D01*
X7836729Y-7316484D02*
X7903396Y-7459341D01*
X7903396Y-7459341D02*
X7970062Y-7316484D01*
X7970062Y-7316484D02*
X7970062Y-7516484D01*
X8151015Y-7516484D02*
X8151015Y-7411722D01*
X8151015Y-7411722D02*
X8141491Y-7392674D01*
X8141491Y-7392674D02*
X8122443Y-7383150D01*
X8122443Y-7383150D02*
X8084348Y-7383150D01*
X8084348Y-7383150D02*
X8065301Y-7392674D01*
X8151015Y-7506960D02*
X8131967Y-7516484D01*
X8131967Y-7516484D02*
X8084348Y-7516484D01*
X8084348Y-7516484D02*
X8065301Y-7506960D01*
X8065301Y-7506960D02*
X8055777Y-7487912D01*
X8055777Y-7487912D02*
X8055777Y-7468865D01*
X8055777Y-7468865D02*
X8065301Y-7449817D01*
X8065301Y-7449817D02*
X8084348Y-7440293D01*
X8084348Y-7440293D02*
X8131967Y-7440293D01*
X8131967Y-7440293D02*
X8151015Y-7430769D01*
X8246253Y-7383150D02*
X8246253Y-7583150D01*
X8246253Y-7392674D02*
X8265301Y-7383150D01*
X8265301Y-7383150D02*
X8303396Y-7383150D01*
X8303396Y-7383150D02*
X8322443Y-7392674D01*
X8322443Y-7392674D02*
X8331967Y-7402198D01*
X8331967Y-7402198D02*
X8341491Y-7421246D01*
X8341491Y-7421246D02*
X8341491Y-7478388D01*
X8341491Y-7478388D02*
X8331967Y-7497436D01*
X8331967Y-7497436D02*
X8322443Y-7506960D01*
X8322443Y-7506960D02*
X8303396Y-7516484D01*
X8303396Y-7516484D02*
X8265301Y-7516484D01*
X8265301Y-7516484D02*
X8246253Y-7506960D01*
X8427205Y-7497436D02*
X8436729Y-7506960D01*
X8436729Y-7506960D02*
X8427205Y-7516484D01*
X8427205Y-7516484D02*
X8417682Y-7506960D01*
X8417682Y-7506960D02*
X8427205Y-7497436D01*
X8427205Y-7497436D02*
X8427205Y-7516484D01*
X8427205Y-7392674D02*
X8436729Y-7402198D01*
X8436729Y-7402198D02*
X8427205Y-7411722D01*
X8427205Y-7411722D02*
X8417682Y-7402198D01*
X8417682Y-7402198D02*
X8427205Y-7392674D01*
X8427205Y-7392674D02*
X8427205Y-7411722D01*
M02*
