<?xml version="1.0" standalone="no"?>
 <!DOCTYPE svg PUBLIC "-//W3C//DTD SVG 1.1//EN" 
 "http://www.w3.org/Graphics/SVG/1.1/DTD/svg11.dtd"> 
<svg
  xmlns:svg="http://www.w3.org/2000/svg"
  xmlns="http://www.w3.org/2000/svg"
  xmlns:xlink="http://www.w3.org/1999/xlink"
  version="1.1"
  width="297.0022mm" height="210.0072mm" viewBox="0.0000 0.0000 297.0022 210.0072">
<title>SVG Image created as pedalboard-led-ring-B_Cu.svg date 2023/10/17 15:19:40 </title>
  <desc>Image generated by PCBNEW </desc>
<g style="fill:#000000; fill-opacity:1.0000;stroke:#000000; stroke-opacity:1.0000;
stroke-linecap:round; stroke-linejoin:round;"
 transform="translate(0 0) scale(1 1)">
</g>
<g style="fill:#000000; fill-opacity:0.0; 
stroke:#000000; stroke-width:0.0000; stroke-opacity:1; 
stroke-linecap:round; stroke-linejoin:round;">
<g >
</g>
<g >
</g>
<g >
</g>
<g >
</g>
<g >
</g>
<g >
</g>
<g >
</g>
<g >
</g>
<g >
</g>
<g >
</g>
<g >
</g>
<g >
</g>
<g >
</g>
<g >
</g>
<g >
</g>
<g >
</g>
<g >
</g>
<g >
</g>
<g >
</g>
<g >
</g>
<g >
</g>
<g >
</g>
<g >
</g>
<g >
</g>
<g >
</g>
<g >
</g>
<g >
</g>
<g >
</g>
<g >
</g>
<g >
</g>
<g >
</g>
<g >
</g>
<g style="fill:#000000; fill-opacity:0.0; 
stroke:#000000; stroke-width:0.0000; stroke-opacity:1; 
stroke-linecap:round; stroke-linejoin:round;">
</g>
<g style="fill:#000000; fill-opacity:0.0; 
stroke:#000000; stroke-width:0.0000; stroke-opacity:1; 
stroke-linecap:round; stroke-linejoin:round;">
</g>
<g style="fill:#000000; fill-opacity:1.0000; 
stroke:#000000; stroke-width:0.0000; stroke-opacity:1; 
stroke-linecap:round; stroke-linejoin:round;">
<path style="fill:#000000; fill-opacity:1.0000; 
stroke:#000000; stroke-width:0.0000; stroke-opacity:1; 
stroke-linecap:round; stroke-linejoin:round;fill-rule:evenodd;"
d="M 91.5000,58.2500
90.5000,58.2500
90.5000,55.5000
91.5000,55.5000
Z" /> 
<path style="fill:#000000; fill-opacity:1.0000; 
stroke:#000000; stroke-width:0.0000; stroke-opacity:1; 
stroke-linecap:round; stroke-linejoin:round;fill-rule:evenodd;"
d="M 91.5000,64.5000
90.5000,64.5000
90.5000,61.7500
91.5000,61.7500
Z" /> 
<path style="fill:#000000; fill-opacity:1.0000; 
stroke:#000000; stroke-width:0.0000; stroke-opacity:1; 
stroke-linecap:round; stroke-linejoin:round;fill-rule:evenodd;"
d="M 89.5000,58.2500
88.5000,58.2500
88.5000,55.5000
89.5000,55.5000
Z" /> 
<path style="fill:#000000; fill-opacity:1.0000; 
stroke:#000000; stroke-width:0.0000; stroke-opacity:1; 
stroke-linecap:round; stroke-linejoin:round;fill-rule:evenodd;"
d="M 89.5000,64.5000
88.5000,64.5000
88.5000,61.7500
89.5000,61.7500
Z" /> 
</g>
<g >
</g>
<g style="fill:#000000; fill-opacity:1.0000; 
stroke:#000000; stroke-width:0.0000; stroke-opacity:1; 
stroke-linecap:round; stroke-linejoin:round;">
<path style="fill:#000000; fill-opacity:1.0000; 
stroke:#000000; stroke-width:0.0000; stroke-opacity:1; 
stroke-linecap:round; stroke-linejoin:round;fill-rule:evenodd;"
d="M 88.7500,71.0000
88.7500,70.0000
91.5000,70.0000
91.5000,71.0000
Z" /> 
<path style="fill:#000000; fill-opacity:1.0000; 
stroke:#000000; stroke-width:0.0000; stroke-opacity:1; 
stroke-linecap:round; stroke-linejoin:round;fill-rule:evenodd;"
d="M 82.5000,71.0000
82.5000,70.0000
85.2500,70.0000
85.2500,71.0000
Z" /> 
<path style="fill:#000000; fill-opacity:1.0000; 
stroke:#000000; stroke-width:0.0000; stroke-opacity:1; 
stroke-linecap:round; stroke-linejoin:round;fill-rule:evenodd;"
d="M 88.7500,69.0000
88.7500,68.0000
91.5000,68.0000
91.5000,69.0000
Z" /> 
<path style="fill:#000000; fill-opacity:1.0000; 
stroke:#000000; stroke-width:0.0000; stroke-opacity:1; 
stroke-linecap:round; stroke-linejoin:round;fill-rule:evenodd;"
d="M 82.5000,69.0000
82.5000,68.0000
85.2500,68.0000
85.2500,69.0000
Z" /> 
</g>
<g >
</g>
<g style="fill:#000000; fill-opacity:1.0000; 
stroke:#000000; stroke-width:0.0000; stroke-opacity:1; 
stroke-linecap:round; stroke-linejoin:round;">
<circle cx="86.8000" cy="63.6000" r="0.4000" /> 
</g>
<g style="fill:#000000; fill-opacity:1.0000; 
stroke:#000000; stroke-width:0.0212; stroke-opacity:1; 
stroke-linecap:round; stroke-linejoin:round;">
</g>
<g style="fill:#000000; fill-opacity:1.0000; 
stroke:#000000; stroke-width:0.0000; stroke-opacity:1; 
stroke-linecap:round; stroke-linejoin:round;">
<circle cx="74.0000" cy="52.0000" r="0.4000" /> 
</g>
<g style="fill:#000000; fill-opacity:1.0000; 
stroke:#000000; stroke-width:0.0212; stroke-opacity:1; 
stroke-linecap:round; stroke-linejoin:round;">
</g>
<g style="fill:#000000; fill-opacity:1.0000; 
stroke:#000000; stroke-width:0.0000; stroke-opacity:1; 
stroke-linecap:round; stroke-linejoin:round;">
<circle cx="70.0718" cy="61.1962" r="0.4000" /> 
</g>
<g style="fill:#000000; fill-opacity:1.0000; 
stroke:#000000; stroke-width:0.0212; stroke-opacity:1; 
stroke-linecap:round; stroke-linejoin:round;">
</g>
<g style="fill:#000000; fill-opacity:1.0000; 
stroke:#000000; stroke-width:0.0000; stroke-opacity:1; 
stroke-linecap:round; stroke-linejoin:round;">
<circle cx="76.0718" cy="69.1962" r="0.4000" /> 
</g>
<g style="fill:#000000; fill-opacity:1.0000; 
stroke:#000000; stroke-width:0.0212; stroke-opacity:1; 
stroke-linecap:round; stroke-linejoin:round;">
</g>
<g style="fill:#000000; fill-opacity:1.0000; 
stroke:#000000; stroke-width:0.0000; stroke-opacity:1; 
stroke-linecap:round; stroke-linejoin:round;">
<circle cx="90.0795" cy="57.3650" r="0.4000" /> 
</g>
<g style="fill:#000000; fill-opacity:1.0000; 
stroke:#000000; stroke-width:0.0212; stroke-opacity:1; 
stroke-linecap:round; stroke-linejoin:round;">
</g>
<g style="fill:#000000; fill-opacity:1.0000; 
stroke:#000000; stroke-width:0.0000; stroke-opacity:1; 
stroke-linecap:round; stroke-linejoin:round;">
<circle cx="81.1962" cy="69.9282" r="0.4000" /> 
</g>
<g style="fill:#000000; fill-opacity:1.0000; 
stroke:#000000; stroke-width:0.0212; stroke-opacity:1; 
stroke-linecap:round; stroke-linejoin:round;">
</g>
<g style="fill:#000000; fill-opacity:1.0000; 
stroke:#000000; stroke-width:0.0000; stroke-opacity:1; 
stroke-linecap:round; stroke-linejoin:round;">
<circle cx="83.9282" cy="50.8038" r="0.4000" /> 
</g>
<g style="fill:#000000; fill-opacity:1.0000; 
stroke:#000000; stroke-width:0.0212; stroke-opacity:1; 
stroke-linecap:round; stroke-linejoin:round;">
</g>
<g style="fill:#000000; fill-opacity:1.0000; 
stroke:#000000; stroke-width:0.0000; stroke-opacity:1; 
stroke-linecap:round; stroke-linejoin:round;">
<circle cx="72.0000" cy="66.0000" r="0.4000" /> 
</g>
<g style="fill:#000000; fill-opacity:1.0000; 
stroke:#000000; stroke-width:0.0212; stroke-opacity:1; 
stroke-linecap:round; stroke-linejoin:round;">
</g>
<g style="fill:#000000; fill-opacity:1.0000; 
stroke:#000000; stroke-width:0.0000; stroke-opacity:1; 
stroke-linecap:round; stroke-linejoin:round;">
<circle cx="86.0000" cy="67.9400" r="0.4000" /> 
</g>
<g style="fill:#000000; fill-opacity:1.0000; 
stroke:#000000; stroke-width:0.0212; stroke-opacity:1; 
stroke-linecap:round; stroke-linejoin:round;">
</g>
<g style="fill:#000000; fill-opacity:1.0000; 
stroke:#000000; stroke-width:0.0000; stroke-opacity:1; 
stroke-linecap:round; stroke-linejoin:round;">
<circle cx="70.8038" cy="56.0718" r="0.4000" /> 
</g>
<g style="fill:#000000; fill-opacity:1.0000; 
stroke:#000000; stroke-width:0.0212; stroke-opacity:1; 
stroke-linecap:round; stroke-linejoin:round;">
</g>
<g style="fill:#000000; fill-opacity:1.0000; 
stroke:#000000; stroke-width:0.0000; stroke-opacity:1; 
stroke-linecap:round; stroke-linejoin:round;">
<circle cx="88.0000" cy="54.0000" r="0.4000" /> 
</g>
<g style="fill:#000000; fill-opacity:1.0000; 
stroke:#000000; stroke-width:0.0212; stroke-opacity:1; 
stroke-linecap:round; stroke-linejoin:round;">
</g>
<g style="fill:#000000; fill-opacity:1.0000; 
stroke:#000000; stroke-width:0.0000; stroke-opacity:1; 
stroke-linecap:round; stroke-linejoin:round;">
<circle cx="88.2600" cy="66.0200" r="0.4000" /> 
</g>
<g style="fill:#000000; fill-opacity:1.0000; 
stroke:#000000; stroke-width:0.0212; stroke-opacity:1; 
stroke-linecap:round; stroke-linejoin:round;">
</g>
<g style="fill:#000000; fill-opacity:1.0000; 
stroke:#000000; stroke-width:0.0000; stroke-opacity:1; 
stroke-linecap:round; stroke-linejoin:round;">
<circle cx="78.8038" cy="50.0718" r="0.4000" /> 
</g>
<g style="fill:#000000; fill-opacity:1.0000; 
stroke:#000000; stroke-width:0.0212; stroke-opacity:1; 
stroke-linecap:round; stroke-linejoin:round;">
</g>
<g style="fill:#000000; fill-opacity:1.0000; 
stroke:#000000; stroke-width:0.0000; stroke-opacity:1; 
stroke-linecap:round; stroke-linejoin:round;">
<circle cx="90.4000" cy="61.4000" r="0.4000" /> 
</g>
<g style="fill:#000000; fill-opacity:1.0000; 
stroke:#000000; stroke-width:0.0212; stroke-opacity:1; 
stroke-linecap:round; stroke-linejoin:round;">
</g>
<g style="fill:#000000; fill-opacity:1.0000; 
stroke:#000000; stroke-width:0.0000; stroke-opacity:1; 
stroke-linecap:round; stroke-linejoin:round;">
<circle cx="82.9000" cy="71.4000" r="0.4000" /> 
</g>
<g style="fill:#000000; fill-opacity:1.0000; 
stroke:#000000; stroke-width:0.0212; stroke-opacity:1; 
stroke-linecap:round; stroke-linejoin:round;">
</g>
<g style="fill:#000000; fill-opacity:1.0000; 
stroke:#000000; stroke-width:0.0000; stroke-opacity:1; 
stroke-linecap:round; stroke-linejoin:round;">
<circle cx="91.1500" cy="61.4000" r="0.4000" /> 
</g>
<g style="fill:#000000; fill-opacity:1.0000; 
stroke:#000000; stroke-width:0.0212; stroke-opacity:1; 
stroke-linecap:round; stroke-linejoin:round;">
</g>
<g style="fill:#000000; fill-opacity:1.0000; 
stroke:#000000; stroke-width:0.0000; stroke-opacity:1; 
stroke-linecap:round; stroke-linejoin:round;">
<circle cx="91.1500" cy="64.8500" r="0.4000" /> 
</g>
<g style="fill:#000000; fill-opacity:1.0000; 
stroke:#000000; stroke-width:0.0212; stroke-opacity:1; 
stroke-linecap:round; stroke-linejoin:round;">
</g>
<g style="fill:#000000; fill-opacity:1.0000; 
stroke:#000000; stroke-width:0.0000; stroke-opacity:1; 
stroke-linecap:round; stroke-linejoin:round;">
<circle cx="90.4000" cy="64.8500" r="0.4000" /> 
</g>
<g style="fill:#000000; fill-opacity:1.0000; 
stroke:#000000; stroke-width:0.0212; stroke-opacity:1; 
stroke-linecap:round; stroke-linejoin:round;">
</g>
<g style="fill:#000000; fill-opacity:1.0000; 
stroke:#000000; stroke-width:0.0000; stroke-opacity:1; 
stroke-linecap:round; stroke-linejoin:round;">
<circle cx="84.9000" cy="71.4000" r="0.4000" /> 
</g>
<g style="fill:#000000; fill-opacity:1.0000; 
stroke:#000000; stroke-width:0.0212; stroke-opacity:1; 
stroke-linecap:round; stroke-linejoin:round;">
</g>
<g style="fill:#000000; fill-opacity:1.0000; 
stroke:#000000; stroke-width:0.0000; stroke-opacity:1; 
stroke-linecap:round; stroke-linejoin:round;">
<circle cx="85.7000" cy="70.5000" r="0.4000" /> 
</g>
<g style="fill:#000000; fill-opacity:1.0000; 
stroke:#000000; stroke-width:0.0212; stroke-opacity:1; 
stroke-linecap:round; stroke-linejoin:round;">
</g>
<g style="fill:#000000; fill-opacity:1.0000; 
stroke:#000000; stroke-width:0.0000; stroke-opacity:1; 
stroke-linecap:round; stroke-linejoin:round;">
<circle cx="83.9000" cy="71.4000" r="0.4000" /> 
</g>
<g style="fill:#000000; fill-opacity:1.0000; 
stroke:#000000; stroke-width:0.0212; stroke-opacity:1; 
stroke-linecap:round; stroke-linejoin:round;">
</g>
<g style="fill:#000000; fill-opacity:1.0000; 
stroke:#000000; stroke-width:0.0000; stroke-opacity:1; 
stroke-linecap:round; stroke-linejoin:round;">
<circle cx="87.9100" cy="61.1500" r="0.4000" /> 
</g>
<g style="fill:#000000; fill-opacity:1.0000; 
stroke:#000000; stroke-width:0.0212; stroke-opacity:1; 
stroke-linecap:round; stroke-linejoin:round;">
</g>
<g >
</g>
<g style="fill:#000000; fill-opacity:1.0000; 
stroke:#000000; stroke-width:0.0212; stroke-opacity:1; 
stroke-linecap:round; stroke-linejoin:round;">
</g>
<g style="fill:#000000; fill-opacity:1.0000; 
stroke:#000000; stroke-width:0.2500; stroke-opacity:1; 
stroke-linecap:round; stroke-linejoin:round;">
</g>
<g style="fill:#000000; fill-opacity:0.0; 
stroke:#000000; stroke-width:0.2500; stroke-opacity:1; 
stroke-linecap:round; stroke-linejoin:round;">
<path d="M88.6250 63.5000
L86.9000 63.5000
" />
<path d="M86.8000 64.6800
L83.8750 67.6050
" />
<path d="M86.9000 63.5000
L86.8000 63.6000
" />
<path d="M83.8750 67.6050
L83.8750 68.5000
" />
<path d="M86.8000 63.6000
L86.8000 64.6800
" />
<path d="M91.0000 64.2500
L90.4000 64.8500
" />
<path d="M91.0000 64.7000
L91.1500 64.8500
" />
<path d="M91.1000 64.9000
L90.4000 64.9000
" />
<path d="M83.8000 70.5000
L82.9000 71.4000
" />
<path d="M91.0000 63.1250
L91.0000 61.5500
" />
<path d="M83.8750 70.5000
L85.7000 70.5000
" />
<path d="M83.8750 70.5000
L83.8750 71.3750
" />
<path d="M91.0000 62.0000
L90.4000 61.4000
" />
<path d="M91.0000 61.5500
L91.1500 61.4000
" />
<path d="M84.0000 70.5000
L84.9000 71.4000
" />
<path d="M83.8750 71.3750
L83.9000 71.4000
" />
<path d="M91.0000 63.1250
L91.0000 64.7000
" />
<path d="M91.8750 61.1280
L91.8750 67.2500
" />
<path d="M89.6950 61.2000
L89.6950 61.1080
" />
<path d="M90.1080 60.6950
L91.4420 60.6950
" />
<path d="M91.8750 67.2500
L91.1250 68.0000
" />
<path d="M89.6950 61.1080
L90.1080 60.6950
" />
<path d="M91.4420 60.6950
L91.8750 61.1280
" />
<path d="M87.9100 61.2000
L89.6950 61.2000
" />
<path d="M89.0000 61.2000
L89.0000 56.8750
" />
</g>
<g >
</g>
<g style="fill:#000000; fill-opacity:0.0; 
stroke:#000000; stroke-width:0.2500; stroke-opacity:1; 
stroke-linecap:round; stroke-linejoin:round;">
<g >
</g>
<g style="fill:#000000; fill-opacity:1.0000; 
stroke:#000000; stroke-width:0.0000; stroke-opacity:1; 
stroke-linecap:round; stroke-linejoin:round;">
<path style="fill:#000000; fill-opacity:1.0000; 
stroke:#000000; stroke-width:0.0000; stroke-opacity:1; 
stroke-linecap:round; stroke-linejoin:round;fill-rule:evenodd;"
d="M 91.0021,48.0007
91.0455,48.0045
91.1738,48.0171
91.1897,48.0200
91.2583,48.0384
91.3533,48.0672
91.3664,48.0722
91.4357,48.1045
91.4381,48.1057
91.5230,48.1511
91.5281,48.1542
91.5952,48.2013
91.5982,48.2035
91.6329,48.2320
91.6713,48.2635
91.6749,48.2668
91.7332,48.3251
91.7365,48.3287
91.7965,48.4018
91.7987,48.4048
91.8458,48.4719
91.8489,48.4770
91.8943,48.5619
91.8955,48.5643
91.9278,48.6336
91.9328,48.6467
91.9493,48.7013
91.9616,48.7417
91.9676,48.7639
91.9800,48.8103
91.9829,48.8262
91.9955,48.9546
91.9993,48.9978
91.9995,49.0022
91.9995,60.5531
91.9806,60.6113
91.9311,60.6473
91.8699,60.6473
91.8305,60.6231
91.6838,60.4764
91.6808,60.4732
91.6545,60.4418
91.6318,60.4287
91.6189,60.4213
91.6153,60.4190
91.5817,60.3954
91.5817,60.3954
91.5802,60.3951
91.5564,60.3852
91.5551,60.3844
91.5147,60.3773
91.5105,60.3764
91.4842,60.3693
91.4708,60.3657
91.4708,60.3657
91.4664,60.3661
91.4299,60.3693
91.4256,60.3695
90.1244,60.3695
90.1201,60.3693
90.0792,60.3657
90.0395,60.3764
90.0353,60.3773
89.9949,60.3844
89.9949,60.3844
89.9936,60.3852
89.9698,60.3951
89.9683,60.3954
89.9683,60.3954
89.9347,60.4190
89.9311,60.4213
89.9229,60.4260
89.8955,60.4418
89.8692,60.4732
89.8662,60.4764
89.4971,60.8455
89.4426,60.8733
89.4271,60.8745
89.4245,60.8745
89.3663,60.8556
89.3303,60.8061
89.3255,60.7755
89.3255,58.5495
89.3444,58.4913
89.3939,58.4553
89.4245,58.4505
89.5197,58.4505
89.5197,58.4505
89.5782,58.4389
89.6446,58.3946
89.6889,58.3282
89.7005,58.2697
89.7005,57.0250
90.2000,57.0250
90.2000,58.2948
90.2029,58.3199
90.2482,58.4225
90.3275,58.5018
90.4301,58.5471
90.4552,58.5500
90.8500,58.5500
90.8500,58.5500
91.1500,58.5500
91.1500,58.5500
91.5448,58.5500
91.5448,58.5500
91.5699,58.5471
91.6725,58.5018
91.7518,58.4225
91.7971,58.3199
91.8000,58.2948
91.8000,58.2948
91.8000,57.0250
91.8000,57.0250
91.1500,57.0250
91.1500,57.0250
91.1500,58.5500
90.8500,58.5500
90.8500,57.0250
90.8500,57.0250
90.2000,57.0250
89.7005,57.0250
89.7005,56.7250
90.2000,56.7250
90.2000,56.7250
90.8500,56.7250
90.8500,56.7250
90.8500,55.2000
91.1500,55.2000
91.1500,56.7250
91.1500,56.7250
91.8000,56.7250
91.8000,56.7250
91.8000,55.4552
91.8000,55.4552
91.7971,55.4301
91.7518,55.3275
91.6725,55.2482
91.5699,55.2029
91.5448,55.2000
91.1500,55.2000
90.8500,55.2000
90.4552,55.2000
90.4552,55.2000
90.4301,55.2029
90.3275,55.2482
90.2482,55.3275
90.2029,55.4301
90.2000,55.4552
90.2000,56.7250
89.7005,56.7250
89.7005,55.4803
89.6889,55.4218
89.6446,55.3554
89.6445,55.3554
89.5782,55.3111
89.5782,55.3111
89.5782,55.3111
89.5782,55.3111
89.5198,55.2995
89.5197,55.2995
88.4803,55.2995
88.4803,55.2995
88.4802,55.2995
88.4218,55.3111
88.4218,55.3111
88.3555,55.3554
88.3554,55.3555
88.3111,55.4218
88.3111,55.4218
88.2995,55.4802
88.2995,55.4803
88.2995,58.2697
88.2995,58.2698
88.3111,58.3282
88.3111,58.3282
88.3554,58.3945
88.3554,58.3946
88.4218,58.4389
88.4662,58.4477
88.4802,58.4505
88.4802,58.4505
88.4803,58.4505
88.5755,58.4505
88.6337,58.4694
88.6697,58.5189
88.6745,58.5495
88.6745,60.7755
88.6556,60.8337
88.6061,60.8697
88.5755,60.8745
88.5043,60.8745
88.4461,60.8556
88.4258,60.8358
88.3383,60.7217
88.3383,60.7217
88.3383,60.7217
88.2128,60.6255
88.0668,60.5650
88.0668,60.5650
87.9100,60.5443
87.9100,60.5443
87.7532,60.5650
87.7532,60.5650
87.6072,60.6255
87.6072,60.6255
87.4817,60.7217
87.4817,60.7217
87.3855,60.8472
87.3855,60.8472
87.3250,60.9932
87.3250,60.9932
87.3043,61.1500
87.3043,61.1500
87.3250,61.3068
87.3250,61.3068
87.3855,61.4528
87.3855,61.4528
87.4652,61.5568
87.4817,61.5783
87.6072,61.6745
87.6072,61.6745
87.6072,61.6745
87.6886,61.7083
87.7532,61.7350
87.8708,61.7505
87.9100,61.7557
87.9100,61.7557
87.9100,61.7557
87.9414,61.7516
88.0668,61.7350
88.1626,61.6953
88.2236,61.6905
88.2758,61.7225
88.2992,61.7790
88.2995,61.7868
88.2995,63.0755
88.2806,63.1337
88.2311,63.1697
88.2005,63.1745
87.2655,63.1745
87.2073,63.1556
87.2052,63.1540
87.1028,63.0755
86.9568,63.0150
86.9568,63.0150
86.8000,62.9943
86.8000,62.9943
86.6432,63.0150
86.6432,63.0150
86.4972,63.0755
86.4972,63.0755
86.3717,63.1717
86.3717,63.1717
86.2755,63.2972
86.2755,63.2972
86.2150,63.4432
86.2150,63.4432
86.1943,63.6000
86.1943,63.6000
86.2150,63.7568
86.2150,63.7568
86.2755,63.9028
86.2755,63.9028
86.2755,63.9028
86.3717,64.0283
86.3983,64.0487
86.4358,64.0774
86.4704,64.1279
86.4745,64.1560
86.4745,64.5042
86.4556,64.5624
86.4455,64.5742
83.6564,67.3633
83.6532,67.3662
83.6218,67.3925
83.6218,67.3925
83.6013,67.4281
83.5990,67.4317
83.5754,67.4653
83.5754,67.4653
83.5751,67.4668
83.5652,67.4906
83.5644,67.4919
83.5644,67.4920
83.5573,67.5323
83.5564,67.5366
83.5457,67.5762
83.5457,67.5762
83.5493,67.6171
83.5495,67.6214
83.5495,67.7005
83.5306,67.7587
83.4811,67.7947
83.4505,67.7995
82.4803,67.7995
82.4803,67.7995
82.4802,67.7995
82.4218,67.8111
82.4218,67.8111
82.3555,67.8554
82.3554,67.8555
82.3111,67.9218
82.3111,67.9218
82.2995,67.9802
82.2995,67.9803
82.2995,69.0197
82.2995,69.0198
82.3111,69.0782
82.3111,69.0782
82.3554,69.1446
82.4218,69.1889
82.4662,69.1977
82.4802,69.2005
82.4802,69.2005
82.4803,69.2005
82.4803,69.2005
85.2697,69.2005
85.2697,69.2005
85.3282,69.1889
85.3946,69.1446
85.4389,69.0782
85.4505,69.0197
85.4505,67.9803
85.4389,67.9218
85.3946,67.8554
85.3487,67.8248
85.3282,67.8111
85.3282,67.8111
85.3282,67.8111
85.3282,67.8111
85.2698,67.7995
85.2697,67.7995
85.2697,67.7995
84.3798,67.7995
84.3216,67.7806
84.2857,67.7311
84.2857,67.6699
84.3098,67.6305
87.0186,64.9217
87.0218,64.9188
87.0532,64.8925
87.0737,64.8569
87.0760,64.8533
87.0996,64.8197
87.0999,64.8182
87.1098,64.7943
87.1106,64.7930
87.1177,64.7527
87.1186,64.7485
87.1293,64.7088
87.1257,64.6679
87.1255,64.6636
87.1255,64.1560
87.1444,64.0978
87.1642,64.0774
87.2283,64.0283
87.3245,63.9028
87.3313,63.8866
87.3710,63.8401
87.4227,63.8255
88.2005,63.8255
88.2587,63.8444
88.2947,63.8939
88.2995,63.9245
88.2995,64.5197
88.2995,64.5198
88.3111,64.5782
88.3111,64.5782
88.3554,64.6445
88.3554,64.6446
88.4218,64.6889
88.4662,64.6977
88.4802,64.7005
88.4802,64.7005
88.4803,64.7005
88.4803,64.7005
89.5197,64.7005
89.5197,64.7005
89.5782,64.6889
89.6446,64.6446
89.6446,64.6446
89.6527,64.6391
89.6539,64.6410
89.6965,64.6194
89.7569,64.6289
89.8002,64.6722
89.8101,64.7301
89.7943,64.8500
89.7943,64.8500
89.8150,65.0068
89.8150,65.0068
89.8755,65.1528
89.8755,65.1528
89.8755,65.1528
89.9717,65.2783
90.0972,65.3745
90.0972,65.3745
90.0972,65.3745
90.1670,65.4035
90.2432,65.4350
90.3608,65.4505
90.4000,65.4557
90.4000,65.4557
90.4000,65.4557
90.4314,65.4516
90.5568,65.4350
90.7028,65.3745
90.7147,65.3654
90.7724,65.3450
90.8311,65.3624
90.8353,65.3654
90.8472,65.3745
90.8472,65.3745
90.8472,65.3745
90.9170,65.4035
90.9932,65.4350
91.1108,65.4505
91.1500,65.4557
91.1500,65.4557
91.1500,65.4557
91.1814,65.4516
91.3068,65.4350
91.4126,65.3912
91.4736,65.3864
91.5258,65.4184
91.5492,65.4749
91.5495,65.4827
91.5495,67.0742
91.5306,67.1324
91.5205,67.1442
90.8942,67.7705
90.8397,67.7983
90.8242,67.7995
88.7303,67.7995
88.7303,67.7995
88.7302,67.7995
88.6718,67.8111
88.6718,67.8111
88.6055,67.8554
88.6054,67.8555
88.5611,67.9218
88.5611,67.9218
88.5495,67.9802
88.5495,67.9803
88.5495,69.0197
88.5495,69.0198
88.5611,69.0782
88.5611,69.0782
88.6054,69.1446
88.6718,69.1889
88.7162,69.1977
88.7302,69.2005
88.7302,69.2005
88.7303,69.2005
88.7303,69.2005
91.5197,69.2005
91.5197,69.2005
91.5782,69.1889
91.6446,69.1446
91.6889,69.0782
91.7005,69.0197
91.7005,67.9803
91.6950,67.9526
91.7022,67.8918
91.7221,67.8632
91.8305,67.7548
91.8850,67.7271
91.9454,67.7366
91.9887,67.7799
91.9995,67.8248
91.9995,70.9978
91.9993,71.0022
91.9976,71.0215
91.9781,71.0675
91.9871,71.0830
91.9888,71.1136
91.9829,71.1738
91.9800,71.1897
91.9649,71.2461
91.9616,71.2583
91.9616,71.2583
91.9328,71.3533
91.9278,71.3664
91.8955,71.4357
91.8943,71.4381
91.8489,71.5230
91.8458,71.5281
91.7987,71.5952
91.7965,71.5982
91.7365,71.6713
91.7332,71.6749
91.6749,71.7332
91.6713,71.7365
91.5982,71.7965
91.5952,71.7987
91.5281,71.8458
91.5230,71.8489
91.4381,71.8943
91.4357,71.8955
91.3664,71.9278
91.3533,71.9328
91.2778,71.9557
91.2583,71.9616
91.2511,71.9635
91.1897,71.9800
91.1738,71.9829
91.0454,71.9955
91.0022,71.9993
90.9978,71.9995
85.3961,71.9995
85.3379,71.9806
85.3019,71.9311
85.3019,71.8699
85.3261,71.8305
85.3283,71.8283
85.3283,71.8283
85.4245,71.7028
85.4850,71.5568
85.5057,71.4000
85.4850,71.2432
85.4780,71.2262
85.4732,71.1652
85.5052,71.1131
85.5617,71.0897
85.5824,71.0902
85.7000,71.1057
85.7000,71.1057
85.7000,71.1057
85.7529,71.0987
85.8568,71.0850
85.9539,71.0448
88.4500,71.0448
88.4529,71.0699
88.4982,71.1725
88.5775,71.2518
88.6801,71.2971
88.7052,71.3000
89.9750,71.3000
89.9750,71.3000
90.2750,71.3000
90.2750,71.3000
91.5448,71.3000
91.5448,71.3000
91.5699,71.2971
91.6725,71.2518
91.7518,71.1725
91.7997,71.0639
91.8107,71.0516
91.8000,71.0128
91.8000,70.6500
90.2750,70.6500
90.2750,70.6500
90.2750,71.3000
89.9750,71.3000
89.9750,71.3000
89.9750,70.6500
89.9750,70.6500
88.4500,70.6500
88.4500,70.6500
88.4500,71.0448
85.9539,71.0448
86.0028,71.0245
86.1283,70.9283
86.2245,70.8028
86.2850,70.6568
86.3057,70.5000
86.2859,70.3500
88.4500,70.3500
88.4500,70.3500
89.9750,70.3500
89.9750,70.3500
90.2750,70.3500
90.2750,70.3500
91.8000,70.3500
91.8000,70.3500
91.8000,69.9552
91.8000,69.9552
91.7971,69.9301
91.7518,69.8275
91.6725,69.7482
91.5699,69.7029
91.5448,69.7000
90.2750,69.7000
90.2750,69.7000
90.2750,70.3500
89.9750,70.3500
89.9750,69.7000
89.9750,69.7000
88.7052,69.7000
88.7052,69.7000
88.6801,69.7029
88.5775,69.7482
88.4982,69.8275
88.4529,69.9301
88.4500,69.9552
88.4500,70.3500
86.2859,70.3500
86.2850,70.3432
86.2245,70.1972
86.2245,70.1972
86.1283,70.0717
86.1283,70.0717
86.1283,70.0717
86.1283,70.0717
86.1283,70.0717
86.0348,70.0000
86.0028,69.9755
86.0028,69.9755
86.0028,69.9755
85.8568,69.9150
85.8568,69.9150
85.7000,69.8943
85.7000,69.8943
85.5432,69.9150
85.5432,69.9150
85.5330,69.9192
85.4720,69.9240
85.4198,69.8920
85.4128,69.8827
85.3946,69.8554
85.3945,69.8554
85.3282,69.8111
85.3282,69.8111
85.3282,69.8111
85.3282,69.8111
85.2698,69.7995
85.2697,69.7995
82.4803,69.7995
82.4803,69.7995
82.4802,69.7995
82.4218,69.8111
82.4218,69.8111
82.3555,69.8554
82.3554,69.8555
82.3111,69.9218
82.3111,69.9218
82.2995,69.9802
82.2995,69.9803
82.2995,71.0197
82.2995,71.0198
82.3111,71.0782
82.3111,71.0782
82.3263,71.1009
82.3429,71.1598
82.3354,71.1938
82.3150,71.2432
82.3150,71.2432
82.2943,71.4000
82.2943,71.4000
82.3150,71.5568
82.3150,71.5568
82.3755,71.7028
82.3755,71.7028
82.4717,71.8283
82.4717,71.8283
82.4717,71.8283
82.4739,71.8305
82.4750,71.8325
82.4757,71.8334
82.4755,71.8336
82.5017,71.8850
82.4921,71.9454
82.4489,71.9887
82.4039,71.9995
69.0022,71.9995
68.9978,71.9993
68.9546,71.9955
68.8262,71.9829
68.8103,71.9800
68.7639,71.9676
68.7417,71.9616
68.7013,71.9493
68.6467,71.9328
68.6336,71.9278
68.5643,71.8955
68.5619,71.8943
68.4770,71.8489
68.4719,71.8458
68.4048,71.7987
68.4018,71.7965
68.3287,71.7365
68.3251,71.7332
68.2668,71.6749
68.2635,71.6713
68.2035,71.5982
68.2013,71.5952
68.1743,71.5568
68.1542,71.5280
68.1511,71.5230
68.1057,71.4381
68.1045,71.4357
68.0722,71.3664
68.0672,71.3533
68.0384,71.2583
68.0200,71.1897
68.0171,71.1738
68.0045,71.0455
68.0007,71.0021
68.0005,70.9978
68.0005,70.0000
68.6443,70.0000
68.6649,70.2354
68.7261,70.4637
68.8260,70.6778
68.8260,70.6778
68.9135,70.8028
68.9615,70.8714
69.1286,71.0385
69.1286,71.0385
69.1286,71.0385
69.1385,71.0454
69.3222,71.1740
69.3222,71.1740
69.3222,71.1740
69.3222,71.1740
69.5363,71.2739
69.5363,71.2739
69.7646,71.3351
69.7646,71.3351
69.7646,71.3351
69.9410,71.3505
69.9410,71.3505
70.0590,71.3505
70.2354,71.3351
70.2354,71.3351
70.2354,71.3351
70.4637,71.2739
70.6778,71.1740
70.8714,71.0385
71.0385,70.8714
71.1740,70.6778
71.2739,70.4637
71.3351,70.2354
71.3351,70.2354
71.3557,70.0000
71.3557,70.0000
71.3351,69.7646
71.3351,69.7646
71.3351,69.7646
71.2739,69.5363
71.1740,69.3222
71.0497,69.1446
71.0385,69.1286
71.0385,69.1286
71.0385,69.1286
70.8714,68.9615
70.8714,68.9615
70.8714,68.9615
70.6778,68.8260
70.6778,68.8260
70.4637,68.7261
70.4637,68.7261
70.3876,68.7057
70.2354,68.6649
70.2354,68.6649
70.2354,68.6649
70.0590,68.6495
70.0590,68.6495
69.9410,68.6495
69.9410,68.6495
69.7646,68.6649
69.5363,68.7261
69.3222,68.8260
69.3222,68.8260
69.1286,68.9615
68.9615,69.1286
68.8260,69.3222
68.7261,69.5363
68.6649,69.7646
68.6443,70.0000
68.6443,70.0000
68.0005,70.0000
68.0005,60.0000
73.8945,60.0000
73.9018,60.1803
73.9025,60.1967
73.9025,60.2457
73.9064,60.2946
73.9143,60.4913
73.9143,60.4913
73.9143,60.4913
73.9381,60.6867
73.9420,60.7356
73.9420,60.7356
73.9499,60.7840
73.9736,60.9794
74.0130,61.1722
74.0209,61.2206
74.0326,61.2683
74.0404,61.3068
74.0720,61.4611
74.0720,61.4611
74.1267,61.6502
74.1385,61.6978
74.1540,61.7443
74.1775,61.8255
74.2088,61.9334
74.2088,61.9334
74.2088,61.9334
74.2785,62.1174
74.2941,62.1640
74.2941,62.1640
74.3133,62.2091
74.3831,62.3931
74.3831,62.3931
74.4329,62.4980
74.4675,62.5710
74.4867,62.6161
74.5095,62.6595
74.5939,62.8373
74.6923,63.0078
74.7151,63.0512
74.7413,63.0927
74.8116,63.2145
74.8397,63.2632
74.8397,63.2632
74.8397,63.2632
74.9515,63.4251
74.9778,63.4666
75.0072,63.5058
75.1190,63.6678
75.1917,63.7568
75.2435,63.8203
75.2730,63.8595
75.2922,63.8811
75.3055,63.8962
75.4300,64.0487
75.5664,64.1906
75.5989,64.2273
75.6342,64.2613
75.7706,64.4033
75.9179,64.5338
75.9533,64.5678
75.9913,64.5988
76.0694,64.6679
76.1386,64.7293
76.1386,64.7293
76.2960,64.8476
76.3075,64.8569
76.3340,64.8786
76.3541,64.8925
76.3744,64.9064
76.3908,64.9188
76.5317,65.0247
76.6981,65.1299
76.7384,65.1578
76.7809,65.1823
76.9473,65.2875
77.1216,65.3790
77.1640,65.4035
77.2084,65.4245
77.2284,65.4350
77.3826,65.5160
77.3826,65.5160
77.3826,65.5160
77.3826,65.5160
77.5637,65.5931
77.6080,65.6142
77.6539,65.6315
77.8350,65.7087
77.8350,65.7087
77.8350,65.7087
77.8924,65.7279
78.0217,65.7710
78.0675,65.7884
78.0803,65.7921
78.1147,65.8021
78.3013,65.8644
78.3013,65.8644
78.3014,65.8644
78.3014,65.8644
78.4925,65.9115
78.5200,65.9195
78.5396,65.9252
78.5615,65.9296
78.5876,65.9350
78.7788,65.9821
78.7788,65.9821
78.7788,65.9821
78.7788,65.9821
78.8173,65.9883
78.9731,66.0136
79.0211,66.0234
79.0698,66.0294
79.1892,66.0488
79.2641,66.0609
79.3156,66.0651
79.4603,66.0768
79.5090,66.0827
79.5580,66.0847
79.7542,66.1005
79.7542,66.1005
79.9510,66.1005
80.0000,66.1025
80.0490,66.1005
80.2458,66.1005
80.2458,66.1005
80.4420,66.0847
80.4910,66.0827
80.5397,66.0768
80.6830,66.0652
80.7359,66.0609
80.8198,66.0473
80.9302,66.0294
80.9789,66.0234
81.0270,66.0136
81.2212,65.9821
81.4124,65.9350
81.4415,65.9290
81.4604,65.9252
81.4756,65.9207
81.5075,65.9115
81.6986,65.8644
81.6986,65.8644
81.6987,65.8644
81.6987,65.8644
81.7636,65.8427
81.8854,65.8021
81.8955,65.7991
81.9324,65.7884
81.9325,65.7884
81.9783,65.7710
82.1074,65.7279
82.1650,65.7087
82.1650,65.7087
82.1650,65.7087
82.3461,65.6315
82.3814,65.6182
82.3920,65.6142
82.4076,65.6067
82.4363,65.5931
82.6174,65.5160
82.6174,65.5160
82.6174,65.5160
82.6174,65.5160
82.7917,65.4245
82.8360,65.4035
82.8784,65.3790
83.0527,65.2875
83.2191,65.1823
83.2616,65.1578
83.3019,65.1299
83.4683,65.0247
83.5117,64.9921
83.6257,64.9064
83.6660,64.8786
83.6660,64.8786
83.6660,64.8786
83.6829,64.8648
83.7040,64.8476
83.8614,64.7293
83.8614,64.7293
83.8614,64.7293
83.9070,64.6889
84.0087,64.5988
84.0356,64.5769
84.0467,64.5678
84.0467,64.5678
84.0467,64.5678
84.0821,64.5338
84.2294,64.4033
84.2294,64.4033
84.2294,64.4033
84.3220,64.3068
84.3658,64.2613
84.3945,64.2337
84.4011,64.2273
84.4111,64.2161
84.4336,64.1906
84.5700,64.0487
84.5700,64.0487
84.5700,64.0487
84.6714,63.9245
84.6945,63.8962
84.7270,63.8595
84.7270,63.8595
84.7383,63.8444
84.7565,63.8203
84.8810,63.6678
84.9928,63.5058
85.0222,63.4666
85.0485,63.4251
85.1178,63.3247
85.1603,63.2632
85.1899,63.2118
85.2587,63.0927
85.2754,63.0663
85.2849,63.0512
85.3077,63.0078
85.3155,62.9943
85.4061,62.8373
85.4074,62.8346
85.4149,62.8188
85.4905,62.6595
85.5133,62.6161
85.5133,62.6161
85.5133,62.6161
85.5325,62.5710
85.6169,62.3931
85.6867,62.2091
85.7059,62.1640
85.7214,62.1175
85.7689,61.9924
85.7912,61.9334
85.8088,61.8728
85.8460,61.7443
85.8615,61.6978
85.8733,61.6502
85.9280,61.4611
85.9280,61.4611
85.9280,61.4611
85.9280,61.4611
85.9392,61.4066
85.9674,61.2682
85.9791,61.2207
85.9870,61.1723
86.0264,60.9794
86.0501,60.7840
86.0580,60.7356
86.0619,60.6867
86.0857,60.4913
86.0936,60.2946
86.0975,60.2457
86.0982,60.1804
86.1055,60.0000
86.0982,59.8196
86.0975,59.7543
86.0972,59.7503
86.0936,59.7054
86.0857,59.5087
86.0619,59.3133
86.0580,59.2644
86.0537,59.2383
86.0501,59.2160
86.0264,59.0206
85.9870,58.8277
85.9791,58.7794
85.9674,58.7318
85.9303,58.5500
85.9280,58.5389
85.9280,58.5389
85.9280,58.5389
85.9223,58.5189
85.8733,58.3498
85.8615,58.3022
85.8615,58.3022
85.8615,58.3022
85.8460,58.2557
85.7912,58.0666
85.7214,57.8826
85.7059,57.8360
85.7059,57.8360
85.7010,57.8246
85.6867,57.7909
85.6425,57.6743
85.6169,57.6069
85.6169,57.6069
85.6169,57.6069
85.5325,57.4290
85.5133,57.3839
85.5133,57.3839
85.4905,57.3405
85.4061,57.1627
85.3077,56.9922
85.2849,56.9488
85.2587,56.9073
85.1603,56.7368
85.0485,56.5749
85.0308,56.5470
85.0222,56.5334
85.0222,56.5334
84.9928,56.4942
84.8810,56.3322
84.7565,56.1797
84.7270,56.1405
84.7065,56.1173
84.6945,56.1038
84.5700,55.9513
84.4336,55.8094
84.4011,55.7727
84.4011,55.7727
84.3658,55.7387
84.3657,55.7387
84.2294,55.5967
84.0821,55.4662
84.0467,55.4322
84.0087,55.4012
83.9245,55.3266
83.8614,55.2707
83.8614,55.2707
83.8614,55.2707
83.7673,55.2000
83.7040,55.1524
83.6660,55.1214
83.6660,55.1214
83.6256,55.0935
83.4683,54.9753
83.4683,54.9753
83.3019,54.8701
83.2616,54.8423
83.2191,54.8177
83.1182,54.7539
83.0527,54.7125
83.0527,54.7125
83.0527,54.7125
83.0527,54.7125
82.8784,54.6211
82.8623,54.6117
82.8360,54.5965
82.8360,54.5965
82.8359,54.5965
82.7916,54.5755
82.6174,54.4840
82.6174,54.4840
82.6174,54.4840
82.4363,54.4069
82.4176,54.3980
82.3920,54.3858
82.3920,54.3858
82.3920,54.3858
82.3461,54.3685
82.3086,54.3525
82.1650,54.2913
82.1650,54.2913
82.1650,54.2913
82.1650,54.2913
81.9783,54.2290
81.9325,54.2116
81.9325,54.2116
81.8853,54.1979
81.6986,54.1356
81.5075,54.0885
81.4604,54.0749
81.4604,54.0749
81.4604,54.0749
81.4124,54.0650
81.2449,54.0238
81.2212,54.0179
81.2212,54.0179
81.2212,54.0179
81.0270,53.9864
80.9789,53.9765
80.9302,53.9706
80.7359,53.9391
80.5397,53.9232
80.4911,53.9173
80.4911,53.9173
80.4910,53.9173
80.4691,53.9164
80.4420,53.9153
80.3288,53.9062
80.2458,53.8995
80.0490,53.8995
80.0000,53.8975
79.9510,53.8995
79.7542,53.8995
79.6805,53.9054
79.5580,53.9153
79.5311,53.9164
79.5090,53.9173
79.5089,53.9173
79.5089,53.9173
79.5089,53.9173
79.4603,53.9232
79.2641,53.9391
79.0698,53.9706
79.0211,53.9765
79.0211,53.9765
79.0211,53.9765
79.0058,53.9797
78.9730,53.9864
78.7788,54.0179
78.7788,54.0179
78.7788,54.0179
78.7551,54.0238
78.5876,54.0650
78.5581,54.0711
78.5396,54.0749
78.5396,54.0749
78.5396,54.0749
78.4925,54.0885
78.3014,54.1356
78.1147,54.1979
78.0675,54.2116
78.0217,54.2290
77.8350,54.2913
77.8350,54.2913
77.6539,54.3685
77.6080,54.3858
77.6080,54.3858
77.5637,54.4069
77.4610,54.4506
77.3826,54.4840
77.3826,54.4840
77.3826,54.4840
77.2084,54.5755
77.1640,54.5965
77.1640,54.5965
77.1216,54.6211
77.0291,54.6696
76.9473,54.7125
76.9473,54.7125
76.7809,54.8177
76.7384,54.8422
76.7384,54.8422
76.6981,54.8701
76.5317,54.9753
76.5317,54.9753
76.3744,55.0935
76.3340,55.1214
76.3340,55.1214
76.2960,55.1524
76.1386,55.2707
75.9913,55.4012
75.9533,55.4322
75.9179,55.4662
75.7706,55.5967
75.6342,55.7387
75.5989,55.7727
75.5664,55.8094
75.5021,55.8763
75.4300,55.9513
75.4300,55.9513
75.4300,55.9513
75.3055,56.1038
75.2730,56.1405
75.2435,56.1797
75.1621,56.2795
75.1190,56.3322
75.1166,56.3358
75.0072,56.4942
74.9778,56.5334
74.9778,56.5334
74.9515,56.5749
74.8397,56.7368
74.7884,56.8257
74.7413,56.9073
74.7151,56.9488
74.6923,56.9922
74.5939,57.1627
74.5095,57.3405
74.4951,57.3679
74.4867,57.3839
74.4867,57.3839
74.4675,57.4290
74.3831,57.6069
74.3133,57.7909
74.3133,57.7909
74.2941,57.8360
74.2867,57.8581
74.2785,57.8826
74.2088,58.0666
74.2088,58.0666
74.1540,58.2557
74.1385,58.3022
74.1267,58.3498
74.0777,58.5189
74.0720,58.5389
74.0717,58.5403
74.0326,58.7317
74.0209,58.7793
74.0209,58.7794
74.0209,58.7794
74.0130,58.8278
73.9736,59.0206
73.9499,59.2160
73.9420,59.2644
73.9381,59.3133
73.9143,59.5087
73.9143,59.5087
73.9143,59.5092
73.9064,59.7054
73.9025,59.7543
73.9025,59.7543
73.9025,59.8033
73.8945,60.0000
68.0005,60.0000
68.0005,50.0000
68.6443,50.0000
68.6649,50.2354
68.7261,50.4637
68.8260,50.6778
68.8260,50.6778
68.8260,50.6778
68.8260,50.6778
68.9615,50.8714
69.1286,51.0385
69.3222,51.1740
69.3222,51.1740
69.3222,51.1740
69.3222,51.1740
69.5363,51.2739
69.5363,51.2739
69.7646,51.3351
69.7646,51.3351
69.7646,51.3351
69.9410,51.3505
69.9410,51.3505
70.0590,51.3505
70.2354,51.3351
70.2354,51.3351
70.2354,51.3351
70.4637,51.2739
70.6778,51.1740
70.8714,51.0385
71.0385,50.8714
71.1740,50.6778
71.2739,50.4637
71.3351,50.2354
71.3557,50.0000
88.6443,50.0000
88.6649,50.2354
88.7261,50.4637
88.8260,50.6778
88.8260,50.6778
88.8260,50.6778
88.8260,50.6778
88.9615,50.8714
89.1286,51.0385
89.3222,51.1740
89.3222,51.1740
89.3222,51.1740
89.3222,51.1740
89.5363,51.2739
89.5363,51.2739
89.7646,51.3351
89.7646,51.3351
89.7646,51.3351
89.9410,51.3505
89.9410,51.3505
90.0590,51.3505
90.2354,51.3351
90.2354,51.3351
90.2354,51.3351
90.4637,51.2739
90.6778,51.1740
90.8714,51.0385
91.0385,50.8714
91.1740,50.6778
91.2739,50.4637
91.3351,50.2354
91.3557,50.0000
91.3351,49.7646
91.2739,49.5363
91.1740,49.3222
91.0385,49.1286
90.8714,48.9615
90.8714,48.9615
90.8714,48.9615
90.6778,48.8260
90.6778,48.8260
90.4637,48.7261
90.4637,48.7261
90.3710,48.7013
90.2354,48.6649
90.2354,48.6649
90.2354,48.6649
90.0590,48.6495
90.0590,48.6495
89.9410,48.6495
89.9410,48.6495
89.7646,48.6649
89.5363,48.7261
89.3222,48.8260
89.3222,48.8260
89.1286,48.9615
88.9615,49.1286
88.8260,49.3222
88.7261,49.5363
88.6649,49.7646
88.6443,50.0000
88.6443,50.0000
71.3557,50.0000
71.3557,50.0000
71.3351,49.7646
71.2739,49.5363
71.1740,49.3222
71.0385,49.1286
70.8714,48.9615
70.8714,48.9615
70.8714,48.9615
70.6778,48.8260
70.6778,48.8260
70.4637,48.7261
70.4637,48.7261
70.3710,48.7013
70.2354,48.6649
70.2354,48.6649
70.2354,48.6649
70.0590,48.6495
70.0590,48.6495
69.9410,48.6495
69.9410,48.6495
69.7646,48.6649
69.5363,48.7261
69.3222,48.8260
69.3222,48.8260
69.1286,48.9615
68.9615,49.1286
68.8260,49.3222
68.7261,49.5363
68.6649,49.7646
68.6443,50.0000
68.6443,50.0000
68.0005,50.0000
68.0005,49.0022
68.0007,48.9979
68.0045,48.9545
68.0171,48.8262
68.0200,48.8103
68.0384,48.7416
68.0672,48.6467
68.0722,48.6336
68.0993,48.5756
68.1046,48.5643
68.1057,48.5619
68.1511,48.4770
68.1542,48.4720
68.2013,48.4048
68.2035,48.4018
68.2635,48.3287
68.2667,48.3251
68.3251,48.2667
68.3287,48.2635
68.4018,48.2035
68.4048,48.2013
68.4720,48.1542
68.4770,48.1511
68.5619,48.1057
68.5643,48.1046
68.6336,48.0722
68.6467,48.0672
68.7416,48.0384
68.8103,48.0200
68.8262,48.0171
68.9545,48.0045
68.9979,48.0007
69.0022,48.0005
90.9978,48.0005
Z" /> 
</g>
</g>
</g>
<g style="fill:#FFFFFF; fill-opacity:1.0000; 
stroke:#FFFFFF; stroke-width:0.0000; stroke-opacity:1; 
stroke-linecap:round; stroke-linejoin:round;">
<circle cx="86.8000" cy="63.6000" r="0.2000" /> 
</g>
<g style="fill:#FFFFFF; fill-opacity:1.0000; 
stroke:#FFFFFF; stroke-width:0.0212; stroke-opacity:1; 
stroke-linecap:round; stroke-linejoin:round;">
</g>
<g style="fill:#FFFFFF; fill-opacity:1.0000; 
stroke:#FFFFFF; stroke-width:0.0000; stroke-opacity:1; 
stroke-linecap:round; stroke-linejoin:round;">
<circle cx="74.0000" cy="52.0000" r="0.2000" /> 
</g>
<g style="fill:#FFFFFF; fill-opacity:1.0000; 
stroke:#FFFFFF; stroke-width:0.0212; stroke-opacity:1; 
stroke-linecap:round; stroke-linejoin:round;">
</g>
<g style="fill:#FFFFFF; fill-opacity:1.0000; 
stroke:#FFFFFF; stroke-width:0.0000; stroke-opacity:1; 
stroke-linecap:round; stroke-linejoin:round;">
<circle cx="70.0718" cy="61.1962" r="0.2000" /> 
</g>
<g style="fill:#FFFFFF; fill-opacity:1.0000; 
stroke:#FFFFFF; stroke-width:0.0212; stroke-opacity:1; 
stroke-linecap:round; stroke-linejoin:round;">
</g>
<g style="fill:#FFFFFF; fill-opacity:1.0000; 
stroke:#FFFFFF; stroke-width:0.0000; stroke-opacity:1; 
stroke-linecap:round; stroke-linejoin:round;">
<circle cx="76.0718" cy="69.1962" r="0.2000" /> 
</g>
<g style="fill:#FFFFFF; fill-opacity:1.0000; 
stroke:#FFFFFF; stroke-width:0.0212; stroke-opacity:1; 
stroke-linecap:round; stroke-linejoin:round;">
</g>
<g style="fill:#FFFFFF; fill-opacity:1.0000; 
stroke:#FFFFFF; stroke-width:0.0000; stroke-opacity:1; 
stroke-linecap:round; stroke-linejoin:round;">
<circle cx="90.0795" cy="57.3650" r="0.2000" /> 
</g>
<g style="fill:#FFFFFF; fill-opacity:1.0000; 
stroke:#FFFFFF; stroke-width:0.0212; stroke-opacity:1; 
stroke-linecap:round; stroke-linejoin:round;">
</g>
<g style="fill:#FFFFFF; fill-opacity:1.0000; 
stroke:#FFFFFF; stroke-width:0.0000; stroke-opacity:1; 
stroke-linecap:round; stroke-linejoin:round;">
<circle cx="81.1962" cy="69.9282" r="0.2000" /> 
</g>
<g style="fill:#FFFFFF; fill-opacity:1.0000; 
stroke:#FFFFFF; stroke-width:0.0212; stroke-opacity:1; 
stroke-linecap:round; stroke-linejoin:round;">
</g>
<g style="fill:#FFFFFF; fill-opacity:1.0000; 
stroke:#FFFFFF; stroke-width:0.0000; stroke-opacity:1; 
stroke-linecap:round; stroke-linejoin:round;">
<circle cx="83.9282" cy="50.8038" r="0.2000" /> 
</g>
<g style="fill:#FFFFFF; fill-opacity:1.0000; 
stroke:#FFFFFF; stroke-width:0.0212; stroke-opacity:1; 
stroke-linecap:round; stroke-linejoin:round;">
</g>
<g style="fill:#FFFFFF; fill-opacity:1.0000; 
stroke:#FFFFFF; stroke-width:0.0000; stroke-opacity:1; 
stroke-linecap:round; stroke-linejoin:round;">
<circle cx="72.0000" cy="66.0000" r="0.2000" /> 
</g>
<g style="fill:#FFFFFF; fill-opacity:1.0000; 
stroke:#FFFFFF; stroke-width:0.0212; stroke-opacity:1; 
stroke-linecap:round; stroke-linejoin:round;">
</g>
<g style="fill:#FFFFFF; fill-opacity:1.0000; 
stroke:#FFFFFF; stroke-width:0.0000; stroke-opacity:1; 
stroke-linecap:round; stroke-linejoin:round;">
<circle cx="86.0000" cy="67.9400" r="0.2000" /> 
</g>
<g style="fill:#FFFFFF; fill-opacity:1.0000; 
stroke:#FFFFFF; stroke-width:0.0212; stroke-opacity:1; 
stroke-linecap:round; stroke-linejoin:round;">
</g>
<g style="fill:#FFFFFF; fill-opacity:1.0000; 
stroke:#FFFFFF; stroke-width:0.0000; stroke-opacity:1; 
stroke-linecap:round; stroke-linejoin:round;">
<circle cx="70.8038" cy="56.0718" r="0.2000" /> 
</g>
<g style="fill:#FFFFFF; fill-opacity:1.0000; 
stroke:#FFFFFF; stroke-width:0.0212; stroke-opacity:1; 
stroke-linecap:round; stroke-linejoin:round;">
</g>
<g style="fill:#FFFFFF; fill-opacity:1.0000; 
stroke:#FFFFFF; stroke-width:0.0000; stroke-opacity:1; 
stroke-linecap:round; stroke-linejoin:round;">
<circle cx="88.0000" cy="54.0000" r="0.2000" /> 
</g>
<g style="fill:#FFFFFF; fill-opacity:1.0000; 
stroke:#FFFFFF; stroke-width:0.0212; stroke-opacity:1; 
stroke-linecap:round; stroke-linejoin:round;">
</g>
<g style="fill:#FFFFFF; fill-opacity:1.0000; 
stroke:#FFFFFF; stroke-width:0.0000; stroke-opacity:1; 
stroke-linecap:round; stroke-linejoin:round;">
<circle cx="88.2600" cy="66.0200" r="0.2000" /> 
</g>
<g style="fill:#FFFFFF; fill-opacity:1.0000; 
stroke:#FFFFFF; stroke-width:0.0212; stroke-opacity:1; 
stroke-linecap:round; stroke-linejoin:round;">
</g>
<g style="fill:#FFFFFF; fill-opacity:1.0000; 
stroke:#FFFFFF; stroke-width:0.0000; stroke-opacity:1; 
stroke-linecap:round; stroke-linejoin:round;">
<circle cx="78.8038" cy="50.0718" r="0.2000" /> 
</g>
<g style="fill:#FFFFFF; fill-opacity:1.0000; 
stroke:#FFFFFF; stroke-width:0.0212; stroke-opacity:1; 
stroke-linecap:round; stroke-linejoin:round;">
</g>
<g style="fill:#FFFFFF; fill-opacity:1.0000; 
stroke:#FFFFFF; stroke-width:0.0000; stroke-opacity:1; 
stroke-linecap:round; stroke-linejoin:round;">
<circle cx="90.4000" cy="61.4000" r="0.2000" /> 
</g>
<g style="fill:#FFFFFF; fill-opacity:1.0000; 
stroke:#FFFFFF; stroke-width:0.0212; stroke-opacity:1; 
stroke-linecap:round; stroke-linejoin:round;">
</g>
<g style="fill:#FFFFFF; fill-opacity:1.0000; 
stroke:#FFFFFF; stroke-width:0.0000; stroke-opacity:1; 
stroke-linecap:round; stroke-linejoin:round;">
<circle cx="82.9000" cy="71.4000" r="0.2000" /> 
</g>
<g style="fill:#FFFFFF; fill-opacity:1.0000; 
stroke:#FFFFFF; stroke-width:0.0212; stroke-opacity:1; 
stroke-linecap:round; stroke-linejoin:round;">
</g>
<g style="fill:#FFFFFF; fill-opacity:1.0000; 
stroke:#FFFFFF; stroke-width:0.0000; stroke-opacity:1; 
stroke-linecap:round; stroke-linejoin:round;">
<circle cx="91.1500" cy="61.4000" r="0.2000" /> 
</g>
<g style="fill:#FFFFFF; fill-opacity:1.0000; 
stroke:#FFFFFF; stroke-width:0.0212; stroke-opacity:1; 
stroke-linecap:round; stroke-linejoin:round;">
</g>
<g style="fill:#FFFFFF; fill-opacity:1.0000; 
stroke:#FFFFFF; stroke-width:0.0000; stroke-opacity:1; 
stroke-linecap:round; stroke-linejoin:round;">
<circle cx="91.1500" cy="64.8500" r="0.2000" /> 
</g>
<g style="fill:#FFFFFF; fill-opacity:1.0000; 
stroke:#FFFFFF; stroke-width:0.0212; stroke-opacity:1; 
stroke-linecap:round; stroke-linejoin:round;">
</g>
<g style="fill:#FFFFFF; fill-opacity:1.0000; 
stroke:#FFFFFF; stroke-width:0.0000; stroke-opacity:1; 
stroke-linecap:round; stroke-linejoin:round;">
<circle cx="90.4000" cy="64.8500" r="0.2000" /> 
</g>
<g style="fill:#FFFFFF; fill-opacity:1.0000; 
stroke:#FFFFFF; stroke-width:0.0212; stroke-opacity:1; 
stroke-linecap:round; stroke-linejoin:round;">
</g>
<g style="fill:#FFFFFF; fill-opacity:1.0000; 
stroke:#FFFFFF; stroke-width:0.0000; stroke-opacity:1; 
stroke-linecap:round; stroke-linejoin:round;">
<circle cx="84.9000" cy="71.4000" r="0.2000" /> 
</g>
<g style="fill:#FFFFFF; fill-opacity:1.0000; 
stroke:#FFFFFF; stroke-width:0.0212; stroke-opacity:1; 
stroke-linecap:round; stroke-linejoin:round;">
</g>
<g style="fill:#FFFFFF; fill-opacity:1.0000; 
stroke:#FFFFFF; stroke-width:0.0000; stroke-opacity:1; 
stroke-linecap:round; stroke-linejoin:round;">
<circle cx="85.7000" cy="70.5000" r="0.2000" /> 
</g>
<g style="fill:#FFFFFF; fill-opacity:1.0000; 
stroke:#FFFFFF; stroke-width:0.0212; stroke-opacity:1; 
stroke-linecap:round; stroke-linejoin:round;">
</g>
<g style="fill:#FFFFFF; fill-opacity:1.0000; 
stroke:#FFFFFF; stroke-width:0.0000; stroke-opacity:1; 
stroke-linecap:round; stroke-linejoin:round;">
<circle cx="83.9000" cy="71.4000" r="0.2000" /> 
</g>
<g style="fill:#FFFFFF; fill-opacity:1.0000; 
stroke:#FFFFFF; stroke-width:0.0212; stroke-opacity:1; 
stroke-linecap:round; stroke-linejoin:round;">
</g>
<g style="fill:#FFFFFF; fill-opacity:1.0000; 
stroke:#FFFFFF; stroke-width:0.0000; stroke-opacity:1; 
stroke-linecap:round; stroke-linejoin:round;">
<circle cx="87.9100" cy="61.1500" r="0.2000" /> 
</g>
<g style="fill:#FFFFFF; fill-opacity:1.0000; 
stroke:#FFFFFF; stroke-width:0.0212; stroke-opacity:1; 
stroke-linecap:round; stroke-linejoin:round;">
</g>
<g style="fill:#FFFFFF; fill-opacity:1.0000; 
stroke:#FFFFFF; stroke-width:0.0000; stroke-opacity:1; 
stroke-linecap:round; stroke-linejoin:round;">
<circle cx="90.0000" cy="50.0000" r="1.1000" /> 
</g>
<g style="fill:#FFFFFF; fill-opacity:1.0000; 
stroke:#FFFFFF; stroke-width:0.0212; stroke-opacity:1; 
stroke-linecap:round; stroke-linejoin:round;">
</g>
<g style="fill:#FFFFFF; fill-opacity:1.0000; 
stroke:#FFFFFF; stroke-width:0.0000; stroke-opacity:1; 
stroke-linecap:round; stroke-linejoin:round;">
<circle cx="70.0000" cy="50.0000" r="1.1000" /> 
</g>
<g style="fill:#FFFFFF; fill-opacity:1.0000; 
stroke:#FFFFFF; stroke-width:0.0212; stroke-opacity:1; 
stroke-linecap:round; stroke-linejoin:round;">
</g>
<g style="fill:#FFFFFF; fill-opacity:1.0000; 
stroke:#FFFFFF; stroke-width:0.0000; stroke-opacity:1; 
stroke-linecap:round; stroke-linejoin:round;">
<circle cx="70.0000" cy="70.0000" r="1.1000" /> 
</g>
<g style="fill:#FFFFFF; fill-opacity:1.0000; 
stroke:#FFFFFF; stroke-width:0.0212; stroke-opacity:1; 
stroke-linecap:round; stroke-linejoin:round;">
</g>
<g style="fill:#000000; fill-opacity:1.0000; 
stroke:#000000; stroke-width:0.0212; stroke-opacity:1; 
stroke-linecap:round; stroke-linejoin:round;">
</g> 
</svg>
