<?xml version="1.0" standalone="no"?>
 <!DOCTYPE svg PUBLIC "-//W3C//DTD SVG 1.1//EN" 
 "http://www.w3.org/Graphics/SVG/1.1/DTD/svg11.dtd"> 
<svg
  xmlns:svg="http://www.w3.org/2000/svg"
  xmlns="http://www.w3.org/2000/svg"
  xmlns:xlink="http://www.w3.org/1999/xlink"
  version="1.1"
  width="297.0022mm" height="210.0072mm" viewBox="0.0000 0.0000 297.0022 210.0072">
<title>SVG Image created as pedalboard-led-ring-F_Silkscreen.svg date 2023/10/21 15:39:38 </title>
  <desc>Image generated by PCBNEW </desc>
<g style="fill:#000000; fill-opacity:1.0000;stroke:#000000; stroke-opacity:1.0000;
stroke-linecap:round; stroke-linejoin:round;"
 transform="translate(0 0) scale(1 1)">
</g>
<g style="fill:#000000; fill-opacity:0.0; 
stroke:#000000; stroke-width:0.0000; stroke-opacity:1; 
stroke-linecap:round; stroke-linejoin:round;">
</g>
<g style="fill:#000000; fill-opacity:0.0; 
stroke:#000000; stroke-width:0.1000; stroke-opacity:1; 
stroke-linecap:round; stroke-linejoin:round;">
<text x="78.0400" y="71.2200"
textLength="1.8429" font-size="0.6667" lengthAdjust="spacingAndGlyphs"
text-anchor="middle" opacity="0">FID2</text>
<g class="stroked-text"><desc>FID2</desc>
<path d="M77.5043 70.9342
L77.3376 70.9342
" />
<path d="M77.3376 71.1961
L77.3376 70.6961
" />
<path d="M77.3376 70.6961
L77.5757 70.6961
" />
<path d="M77.7662 71.1961
L77.7662 70.6961
" />
<path d="M78.0043 71.1961
L78.0043 70.6961
" />
<path d="M78.0043 70.6961
L78.1233 70.6961
" />
<path d="M78.1233 70.6961
L78.1948 70.7199
" />
<path d="M78.1948 70.7199
L78.2424 70.7675
" />
<path d="M78.2424 70.7675
L78.2662 70.8152
" />
<path d="M78.2662 70.8152
L78.2900 70.9104
" />
<path d="M78.2900 70.9104
L78.2900 70.9818
" />
<path d="M78.2900 70.9818
L78.2662 71.0771
" />
<path d="M78.2662 71.0771
L78.2424 71.1247
" />
<path d="M78.2424 71.1247
L78.1948 71.1723
" />
<path d="M78.1948 71.1723
L78.1233 71.1961
" />
<path d="M78.1233 71.1961
L78.0043 71.1961
" />
<path d="M78.4805 70.7437
L78.5043 70.7199
" />
<path d="M78.5043 70.7199
L78.5519 70.6961
" />
<path d="M78.5519 70.6961
L78.6710 70.6961
" />
<path d="M78.6710 70.6961
L78.7186 70.7199
" />
<path d="M78.7186 70.7199
L78.7424 70.7437
" />
<path d="M78.7424 70.7437
L78.7662 70.7913
" />
<path d="M78.7662 70.7913
L78.7662 70.8390
" />
<path d="M78.7662 70.8390
L78.7424 70.9104
" />
<path d="M78.7424 70.9104
L78.4567 71.1961
" />
<path d="M78.4567 71.1961
L78.7662 71.1961
" />
</g><g transform="rotate(60.000000 83.3500 68.5585)">
<text x="83.3500" y="68.8085"
textLength="1.6524" font-size="0.6667" lengthAdjust="spacingAndGlyphs"
text-anchor="middle" opacity="0">D11</text>
</g>
<g class="stroked-text"><desc>D11</desc>
<path d="M82.8506 68.1457
L83.2836 67.8957
" />
<path d="M83.2836 67.8957
L83.3431 67.9988
" />
<path d="M83.3431 67.9988
L83.3582 68.0726
" />
<path d="M83.3582 68.0726
L83.3408 68.1376
" />
<path d="M83.3408 68.1376
L83.3115 68.1821
" />
<path d="M83.3115 68.1821
L83.2409 68.2503
" />
<path d="M83.2409 68.2503
L83.1790 68.2860
" />
<path d="M83.1790 68.2860
L83.0847 68.3130
" />
<path d="M83.0847 68.3130
L83.0315 68.3162
" />
<path d="M83.0315 68.3162
L82.9665 68.2988
" />
<path d="M82.9665 68.2988
L82.9101 68.2488
" />
<path d="M82.9101 68.2488
L82.8506 68.1457
" />
<path d="M83.2316 68.8055
L83.0887 68.5581
" />
<path d="M83.1601 68.6818
L83.5931 68.4318
" />
<path d="M83.5931 68.4318
L83.5075 68.4263
" />
<path d="M83.5075 68.4263
L83.4424 68.4089
" />
<path d="M83.4424 68.4089
L83.3980 68.3795
" />
<path d="M83.4697 69.2179
L83.3268 68.9705
" />
<path d="M83.3982 69.0942
L83.8312 68.8442
" />
<path d="M83.8312 68.8442
L83.7456 68.8387
" />
<path d="M83.7456 68.8387
L83.6805 68.8213
" />
<path d="M83.6805 68.8213
L83.6361 68.7919
" />
</g></g>
<g style="fill:#000000; fill-opacity:0.0; 
stroke:#000000; stroke-width:0.0750; stroke-opacity:1; 
stroke-linecap:round; stroke-linejoin:round;">
<g transform="rotate(60.000000 84.5728 68.8203)">
<text x="84.5728" y="68.9703"
textLength="0.4507" font-size="0.4000" lengthAdjust="spacingAndGlyphs"
text-anchor="middle" opacity="0">1</text>
</g>
<g class="stroked-text"><desc>1</desc>
<path d="M84.4988 68.9620
L84.4131 68.8135
" />
<path d="M84.4560 68.8877
L84.7158 68.7377
" />
<path d="M84.7158 68.7377
L84.6644 68.7344
" />
<path d="M84.6644 68.7344
L84.6254 68.7240
" />
<path d="M84.6254 68.7240
L84.5987 68.7064
" />
</g></g>
<g style="fill:#000000; fill-opacity:0.0; 
stroke:#000000; stroke-width:0.1000; stroke-opacity:1; 
stroke-linecap:round; stroke-linejoin:round;">
<g transform="rotate(-90.000000 77.6800 50.5200)">
<text x="77.6800" y="50.7700"
textLength="1.1762" font-size="0.6667" lengthAdjust="spacingAndGlyphs"
text-anchor="middle" opacity="0">C4</text>
</g>
<g class="stroked-text"><desc>C4</desc>
<path d="M77.8585 50.6033
L77.8823 50.6271
" />
<path d="M77.8823 50.6271
L77.9061 50.6986
" />
<path d="M77.9061 50.6986
L77.9061 50.7462
" />
<path d="M77.9061 50.7462
L77.8823 50.8176
" />
<path d="M77.8823 50.8176
L77.8347 50.8652
" />
<path d="M77.8347 50.8652
L77.7871 50.8890
" />
<path d="M77.7871 50.8890
L77.6918 50.9129
" />
<path d="M77.6918 50.9129
L77.6204 50.9129
" />
<path d="M77.6204 50.9129
L77.5252 50.8890
" />
<path d="M77.5252 50.8890
L77.4775 50.8652
" />
<path d="M77.4775 50.8652
L77.4299 50.8176
" />
<path d="M77.4299 50.8176
L77.4061 50.7462
" />
<path d="M77.4061 50.7462
L77.4061 50.6986
" />
<path d="M77.4061 50.6986
L77.4299 50.6271
" />
<path d="M77.4299 50.6271
L77.4537 50.6033
" />
<path d="M77.5728 50.1748
L77.9061 50.1748
" />
<path d="M77.3823 50.2938
L77.7394 50.4129
" />
<path d="M77.7394 50.4129
L77.7394 50.1033
" />
</g><g transform="rotate(60.000000 73.1300 52.9700)">
<text x="73.1300" y="53.2200"
textLength="1.1762" font-size="0.6667" lengthAdjust="spacingAndGlyphs"
text-anchor="middle" opacity="0">C5</text>
</g>
<g class="stroked-text"><desc>C5</desc>
<path d="M72.9338 52.9871
L72.9012 52.9784
" />
<path d="M72.9012 52.9784
L72.8449 52.9284
" />
<path d="M72.8449 52.9284
L72.8211 52.8872
" />
<path d="M72.8211 52.8872
L72.8060 52.8134
" />
<path d="M72.8060 52.8134
L72.8234 52.7484
" />
<path d="M72.8234 52.7484
L72.8528 52.7039
" />
<path d="M72.8528 52.7039
L72.9233 52.6357
" />
<path d="M72.9233 52.6357
L72.9852 52.6000
" />
<path d="M72.9852 52.6000
L73.0796 52.5730
" />
<path d="M73.0796 52.5730
L73.1327 52.5698
" />
<path d="M73.1327 52.5698
L73.1978 52.5872
" />
<path d="M73.1978 52.5872
L73.2541 52.6372
" />
<path d="M73.2541 52.6372
L73.2779 52.6784
" />
<path d="M73.2779 52.6784
L73.2930 52.7522
" />
<path d="M73.2930 52.7522
L73.2843 52.7847
" />
<path d="M73.5517 53.1527
L73.4327 52.9465
" />
<path d="M73.4327 52.9465
L73.2146 53.0449
" />
<path d="M73.2146 53.0449
L73.2471 53.0536
" />
<path d="M73.2471 53.0536
L73.2915 53.0829
" />
<path d="M73.2915 53.0829
L73.3510 53.1860
" />
<path d="M73.3510 53.1860
L73.3542 53.2392
" />
<path d="M73.3542 53.2392
L73.3455 53.2717
" />
<path d="M73.3455 53.2717
L73.3162 53.3161
" />
<path d="M73.3162 53.3161
L73.2131 53.3757
" />
<path d="M73.2131 53.3757
L73.1599 53.3788
" />
<path d="M73.1599 53.3788
L73.1274 53.3701
" />
<path d="M73.1274 53.3701
L73.0830 53.3408
" />
<path d="M73.0830 53.3408
L73.0235 53.2377
" />
<path d="M73.0235 53.2377
L73.0203 53.1846
" />
<path d="M73.0203 53.1846
L73.0290 53.1520
" />
</g><text x="90.5900" y="60.3500"
textLength="1.1762" font-size="0.6667" lengthAdjust="spacingAndGlyphs"
text-anchor="middle" opacity="0">D1</text>
<g class="stroked-text"><desc>D1</desc>
<path d="M90.2210 60.3261
L90.2210 59.8261
" />
<path d="M90.2210 59.8261
L90.3400 59.8261
" />
<path d="M90.3400 59.8261
L90.4114 59.8499
" />
<path d="M90.4114 59.8499
L90.4590 59.8975
" />
<path d="M90.4590 59.8975
L90.4829 59.9452
" />
<path d="M90.4829 59.9452
L90.5067 60.0404
" />
<path d="M90.5067 60.0404
L90.5067 60.1118
" />
<path d="M90.5067 60.1118
L90.4829 60.2071
" />
<path d="M90.4829 60.2071
L90.4590 60.2547
" />
<path d="M90.4590 60.2547
L90.4114 60.3023
" />
<path d="M90.4114 60.3023
L90.3400 60.3261
" />
<path d="M90.3400 60.3261
L90.2210 60.3261
" />
<path d="M90.9829 60.3261
L90.6971 60.3261
" />
<path d="M90.8400 60.3261
L90.8400 59.8261
" />
<path d="M90.8400 59.8261
L90.7924 59.8975
" />
<path d="M90.7924 59.8975
L90.7448 59.9452
" />
<path d="M90.7448 59.9452
L90.6971 59.9690
" />
</g></g>
<g style="fill:#000000; fill-opacity:0.0; 
stroke:#000000; stroke-width:0.0750; stroke-opacity:1; 
stroke-linecap:round; stroke-linejoin:round;">
<text x="89.9250" y="60.6000"
textLength="0.4507" font-size="0.4000" lengthAdjust="spacingAndGlyphs"
text-anchor="middle" opacity="0">1</text>
<g class="stroked-text"><desc>1</desc>
<path d="M90.0107 60.5849
L89.8393 60.5849
" />
<path d="M89.9250 60.5849
L89.9250 60.2849
" />
<path d="M89.9250 60.2849
L89.8964 60.3277
" />
<path d="M89.8964 60.3277
L89.8679 60.3563
" />
<path d="M89.8679 60.3563
L89.8393 60.3706
" />
</g></g>
<g style="fill:#000000; fill-opacity:0.0; 
stroke:#000000; stroke-width:0.1000; stroke-opacity:1; 
stroke-linecap:round; stroke-linejoin:round;">
<g transform="rotate(-90.000000 81.4000 51.0000)">
<text x="81.4000" y="51.2500"
textLength="1.1762" font-size="0.6667" lengthAdjust="spacingAndGlyphs"
text-anchor="middle" opacity="0">D4</text>
</g>
<g class="stroked-text"><desc>D4</desc>
<path d="M81.6261 51.3690
L81.1261 51.3690
" />
<path d="M81.1261 51.3690
L81.1261 51.2500
" />
<path d="M81.1261 51.2500
L81.1499 51.1786
" />
<path d="M81.1499 51.1786
L81.1975 51.1310
" />
<path d="M81.1975 51.1310
L81.2452 51.1071
" />
<path d="M81.2452 51.1071
L81.3404 51.0833
" />
<path d="M81.3404 51.0833
L81.4118 51.0833
" />
<path d="M81.4118 51.0833
L81.5071 51.1071
" />
<path d="M81.5071 51.1071
L81.5547 51.1310
" />
<path d="M81.5547 51.1310
L81.6023 51.1786
" />
<path d="M81.6023 51.1786
L81.6261 51.2500
" />
<path d="M81.6261 51.2500
L81.6261 51.3690
" />
<path d="M81.2928 50.6548
L81.6261 50.6548
" />
<path d="M81.1023 50.7738
L81.4594 50.8929
" />
<path d="M81.4594 50.8929
L81.4594 50.5833
" />
</g></g>
<g style="fill:#000000; fill-opacity:0.0; 
stroke:#000000; stroke-width:0.0750; stroke-opacity:1; 
stroke-linecap:round; stroke-linejoin:round;">
<g transform="rotate(-90.000000 80.4500 50.0750)">
<text x="80.4500" y="50.2250"
textLength="0.4507" font-size="0.4000" lengthAdjust="spacingAndGlyphs"
text-anchor="middle" opacity="0">1</text>
</g>
<g class="stroked-text"><desc>1</desc>
<path d="M80.5849 49.9893
L80.5849 50.1607
" />
<path d="M80.5849 50.0750
L80.2849 50.0750
" />
<path d="M80.2849 50.0750
L80.3277 50.1036
" />
<path d="M80.3277 50.1036
L80.3563 50.1321
" />
<path d="M80.3563 50.1321
L80.3706 50.1607
" />
</g></g>
<g style="fill:#000000; fill-opacity:0.0; 
stroke:#000000; stroke-width:0.1000; stroke-opacity:1; 
stroke-linecap:round; stroke-linejoin:round;">
<g transform="rotate(30.000000 87.0942 65.7124)">
<text x="87.0942" y="65.9624"
textLength="1.6524" font-size="0.6667" lengthAdjust="spacingAndGlyphs"
text-anchor="middle" opacity="0">D12</text>
</g>
<g class="stroked-text"><desc>D12</desc>
<path d="M86.4554 65.6047
L86.7054 65.1717
" />
<path d="M86.7054 65.1717
L86.8085 65.2312
" />
<path d="M86.8085 65.2312
L86.8584 65.2875
" />
<path d="M86.8584 65.2875
L86.8759 65.3526
" />
<path d="M86.8759 65.3526
L86.8727 65.4057
" />
<path d="M86.8727 65.4057
L86.8457 65.5001
" />
<path d="M86.8457 65.5001
L86.8100 65.5620
" />
<path d="M86.8100 65.5620
L86.7417 65.6325
" />
<path d="M86.7417 65.6325
L86.6973 65.6619
" />
<path d="M86.6973 65.6619
L86.6322 65.6793
" />
<path d="M86.6322 65.6793
L86.5585 65.6642
" />
<path d="M86.5585 65.6642
L86.4554 65.6047
" />
<path d="M87.1152 65.9856
L86.8678 65.8428
" />
<path d="M86.9915 65.9142
L87.2415 65.4812
" />
<path d="M87.2415 65.4812
L87.1645 65.5192
" />
<path d="M87.1645 65.5192
L87.0995 65.5367
" />
<path d="M87.0995 65.5367
L87.0463 65.5335
" />
<path d="M87.5063 65.6891
L87.5389 65.6804
" />
<path d="M87.5389 65.6804
L87.5920 65.6836
" />
<path d="M87.5920 65.6836
L87.6951 65.7431
" />
<path d="M87.6951 65.7431
L87.7244 65.7875
" />
<path d="M87.7244 65.7875
L87.7332 65.8200
" />
<path d="M87.7332 65.8200
L87.7300 65.8732
" />
<path d="M87.7300 65.8732
L87.7062 65.9144
" />
<path d="M87.7062 65.9144
L87.6498 65.9644
" />
<path d="M87.6498 65.9644
L87.2595 66.0690
" />
<path d="M87.2595 66.0690
L87.5276 66.2237
" />
</g></g>
<g style="fill:#000000; fill-opacity:0.0; 
stroke:#000000; stroke-width:0.0750; stroke-opacity:1; 
stroke-linecap:round; stroke-linejoin:round;">
<g transform="rotate(30.000000 88.3703 65.3522)">
<text x="88.3703" y="65.5022"
textLength="0.4507" font-size="0.4000" lengthAdjust="spacingAndGlyphs"
text-anchor="middle" opacity="0">1</text>
</g>
<g class="stroked-text"><desc>1</desc>
<path d="M88.3771 65.5119
L88.2286 65.4262
" />
<path d="M88.3029 65.4690
L88.4529 65.2092
" />
<path d="M88.4529 65.2092
L88.4067 65.2320
" />
<path d="M88.4067 65.2320
L88.3677 65.2425
" />
<path d="M88.3677 65.2425
L88.3358 65.2406
" />
</g></g>
<g style="fill:#000000; fill-opacity:0.0; 
stroke:#000000; stroke-width:0.1000; stroke-opacity:1; 
stroke-linecap:round; stroke-linejoin:round;">
<g transform="rotate(-30.000000 71.5058 63.2876)">
<text x="71.5058" y="63.5376"
textLength="1.1762" font-size="0.6667" lengthAdjust="spacingAndGlyphs"
text-anchor="middle" opacity="0">D8</text>
</g>
<g class="stroked-text"><desc>D8</desc>
<path d="M71.2992 63.6679
L71.0492 63.2349
" />
<path d="M71.0492 63.2349
L71.1523 63.1754
" />
<path d="M71.1523 63.1754
L71.2261 63.1603
" />
<path d="M71.2261 63.1603
L71.2911 63.1777
" />
<path d="M71.2911 63.1777
L71.3356 63.2070
" />
<path d="M71.3356 63.2070
L71.4038 63.2776
" />
<path d="M71.4038 63.2776
L71.4395 63.3395
" />
<path d="M71.4395 63.3395
L71.4665 63.4339
" />
<path d="M71.4665 63.4339
L71.4697 63.4870
" />
<path d="M71.4697 63.4870
L71.4523 63.5520
" />
<path d="M71.4523 63.5520
L71.4023 63.6084
" />
<path d="M71.4023 63.6084
L71.2992 63.6679
" />
<path d="M71.6512 63.1348
L71.5981 63.1379
" />
<path d="M71.5981 63.1379
L71.5656 63.1292
" />
<path d="M71.5656 63.1292
L71.5211 63.0999
" />
<path d="M71.5211 63.0999
L71.5092 63.0793
" />
<path d="M71.5092 63.0793
L71.5060 63.0261
" />
<path d="M71.5060 63.0261
L71.5148 62.9936
" />
<path d="M71.5148 62.9936
L71.5441 62.9492
" />
<path d="M71.5441 62.9492
L71.6266 62.9016
" />
<path d="M71.6266 62.9016
L71.6797 62.8984
" />
<path d="M71.6797 62.8984
L71.7122 62.9071
" />
<path d="M71.7122 62.9071
L71.7567 62.9364
" />
<path d="M71.7567 62.9364
L71.7686 62.9570
" />
<path d="M71.7686 62.9570
L71.7718 63.0102
" />
<path d="M71.7718 63.0102
L71.7630 63.0427
" />
<path d="M71.7630 63.0427
L71.7337 63.0871
" />
<path d="M71.7337 63.0871
L71.6512 63.1348
" />
<path d="M71.6512 63.1348
L71.6219 63.1792
" />
<path d="M71.6219 63.1792
L71.6132 63.2117
" />
<path d="M71.6132 63.2117
L71.6164 63.2649
" />
<path d="M71.6164 63.2649
L71.6640 63.3473
" />
<path d="M71.6640 63.3473
L71.7084 63.3767
" />
<path d="M71.7084 63.3767
L71.7409 63.3854
" />
<path d="M71.7409 63.3854
L71.7941 63.3822
" />
<path d="M71.7941 63.3822
L71.8766 63.3346
" />
<path d="M71.8766 63.3346
L71.9059 63.2901
" />
<path d="M71.9059 63.2901
L71.9146 63.2576
" />
<path d="M71.9146 63.2576
L71.9114 63.2045
" />
<path d="M71.9114 63.2045
L71.8638 63.1220
" />
<path d="M71.8638 63.1220
L71.8194 63.0927
" />
<path d="M71.8194 63.0927
L71.7869 63.0839
" />
<path d="M71.7869 63.0839
L71.7337 63.0871
" />
</g></g>
<g style="fill:#000000; fill-opacity:0.0; 
stroke:#000000; stroke-width:0.0750; stroke-opacity:1; 
stroke-linecap:round; stroke-linejoin:round;">
<g transform="rotate(-30.000000 71.1797 64.5728)">
<text x="71.1797" y="64.7228"
textLength="0.4507" font-size="0.4000" lengthAdjust="spacingAndGlyphs"
text-anchor="middle" opacity="0">1</text>
</g>
<g class="stroked-text"><desc>1</desc>
<path d="M71.3214 64.6467
L71.1729 64.7325
" />
<path d="M71.2471 64.6896
L71.0971 64.4298
" />
<path d="M71.0971 64.4298
L71.0938 64.4812
" />
<path d="M71.0938 64.4812
L71.0834 64.5202
" />
<path d="M71.0834 64.5202
L71.0658 64.5469
" />
</g></g>
<g style="fill:#000000; fill-opacity:0.0; 
stroke:#000000; stroke-width:0.1000; stroke-opacity:1; 
stroke-linecap:round; stroke-linejoin:round;">
<g transform="rotate(-90.000000 78.5600 69.3000)">
<text x="78.5600" y="69.5500"
textLength="1.6524" font-size="0.6667" lengthAdjust="spacingAndGlyphs"
text-anchor="middle" opacity="0">D10</text>
</g>
<g class="stroked-text"><desc>D10</desc>
<path d="M78.7861 69.9071
L78.2861 69.9071
" />
<path d="M78.2861 69.9071
L78.2861 69.7881
" />
<path d="M78.2861 69.7881
L78.3099 69.7167
" />
<path d="M78.3099 69.7167
L78.3575 69.6690
" />
<path d="M78.3575 69.6690
L78.4052 69.6452
" />
<path d="M78.4052 69.6452
L78.5004 69.6214
" />
<path d="M78.5004 69.6214
L78.5718 69.6214
" />
<path d="M78.5718 69.6214
L78.6671 69.6452
" />
<path d="M78.6671 69.6452
L78.7147 69.6690
" />
<path d="M78.7147 69.6690
L78.7623 69.7167
" />
<path d="M78.7623 69.7167
L78.7861 69.7881
" />
<path d="M78.7861 69.7881
L78.7861 69.9071
" />
<path d="M78.7861 69.1452
L78.7861 69.4310
" />
<path d="M78.7861 69.2881
L78.2861 69.2881
" />
<path d="M78.2861 69.2881
L78.3575 69.3357
" />
<path d="M78.3575 69.3357
L78.4052 69.3833
" />
<path d="M78.4052 69.3833
L78.4290 69.4310
" />
<path d="M78.2861 68.8357
L78.2861 68.7881
" />
<path d="M78.2861 68.7881
L78.3099 68.7405
" />
<path d="M78.3099 68.7405
L78.3337 68.7167
" />
<path d="M78.3337 68.7167
L78.3813 68.6929
" />
<path d="M78.3813 68.6929
L78.4766 68.6690
" />
<path d="M78.4766 68.6690
L78.5956 68.6690
" />
<path d="M78.5956 68.6690
L78.6909 68.6929
" />
<path d="M78.6909 68.6929
L78.7385 68.7167
" />
<path d="M78.7385 68.7167
L78.7623 68.7405
" />
<path d="M78.7623 68.7405
L78.7861 68.7881
" />
<path d="M78.7861 68.7881
L78.7861 68.8357
" />
<path d="M78.7861 68.8357
L78.7623 68.8833
" />
<path d="M78.7623 68.8833
L78.7385 68.9071
" />
<path d="M78.7385 68.9071
L78.6909 68.9310
" />
<path d="M78.6909 68.9310
L78.5956 68.9548
" />
<path d="M78.5956 68.9548
L78.4766 68.9548
" />
<path d="M78.4766 68.9548
L78.3813 68.9310
" />
<path d="M78.3813 68.9310
L78.3337 68.9071
" />
<path d="M78.3337 68.9071
L78.3099 68.8833
" />
<path d="M78.3099 68.8833
L78.2861 68.8357
" />
</g></g>
<g style="fill:#000000; fill-opacity:0.0; 
stroke:#000000; stroke-width:0.0750; stroke-opacity:1; 
stroke-linecap:round; stroke-linejoin:round;">
<g transform="rotate(-90.000000 79.5500 69.9250)">
<text x="79.5500" y="70.0750"
textLength="0.4507" font-size="0.4000" lengthAdjust="spacingAndGlyphs"
text-anchor="middle" opacity="0">1</text>
</g>
<g class="stroked-text"><desc>1</desc>
<path d="M79.6849 69.8393
L79.6849 70.0107
" />
<path d="M79.6849 69.9250
L79.3849 69.9250
" />
<path d="M79.3849 69.9250
L79.4277 69.9536
" />
<path d="M79.4277 69.9536
L79.4563 69.9821
" />
<path d="M79.4563 69.9821
L79.4706 70.0107
" />
</g></g>
<g style="fill:#000000; fill-opacity:0.0; 
stroke:#000000; stroke-width:0.1000; stroke-opacity:1; 
stroke-linecap:round; stroke-linejoin:round;">
<text x="71.0000" y="58.8500"
textLength="1.1762" font-size="0.6667" lengthAdjust="spacingAndGlyphs"
text-anchor="middle" opacity="0">D7</text>
<g class="stroked-text"><desc>D7</desc>
<path d="M70.6310 58.8261
L70.6310 58.3261
" />
<path d="M70.6310 58.3261
L70.7500 58.3261
" />
<path d="M70.7500 58.3261
L70.8214 58.3499
" />
<path d="M70.8214 58.3499
L70.8690 58.3975
" />
<path d="M70.8690 58.3975
L70.8929 58.4452
" />
<path d="M70.8929 58.4452
L70.9167 58.5404
" />
<path d="M70.9167 58.5404
L70.9167 58.6118
" />
<path d="M70.9167 58.6118
L70.8929 58.7071
" />
<path d="M70.8929 58.7071
L70.8690 58.7547
" />
<path d="M70.8690 58.7547
L70.8214 58.8023
" />
<path d="M70.8214 58.8023
L70.7500 58.8261
" />
<path d="M70.7500 58.8261
L70.6310 58.8261
" />
<path d="M71.0833 58.3261
L71.4167 58.3261
" />
<path d="M71.4167 58.3261
L71.2024 58.8261
" />
</g></g>
<g style="fill:#000000; fill-opacity:0.0; 
stroke:#000000; stroke-width:0.0750; stroke-opacity:1; 
stroke-linecap:round; stroke-linejoin:round;">
<text x="70.0750" y="59.7000"
textLength="0.4507" font-size="0.4000" lengthAdjust="spacingAndGlyphs"
text-anchor="middle" opacity="0">1</text>
<g class="stroked-text"><desc>1</desc>
<path d="M70.1607 59.6849
L69.9893 59.6849
" />
<path d="M70.0750 59.6849
L70.0750 59.3849
" />
<path d="M70.0750 59.3849
L70.0464 59.4277
" />
<path d="M70.0464 59.4277
L70.0179 59.4563
" />
<path d="M70.0179 59.4563
L69.9893 59.4706
" />
</g></g>
<g style="fill:#000000; fill-opacity:0.0; 
stroke:#000000; stroke-width:0.1000; stroke-opacity:1; 
stroke-linecap:round; stroke-linejoin:round;">
<g transform="rotate(30.000000 72.9058 54.2876)">
<text x="72.9058" y="54.5376"
textLength="1.1762" font-size="0.6667" lengthAdjust="spacingAndGlyphs"
text-anchor="middle" opacity="0">D6</text>
</g>
<g class="stroked-text"><desc>D6</desc>
<path d="M72.4731 54.2989
L72.7231 53.8658
" />
<path d="M72.7231 53.8658
L72.8262 53.9254
" />
<path d="M72.8262 53.9254
L72.8762 53.9817
" />
<path d="M72.8762 53.9817
L72.8936 54.0467
" />
<path d="M72.8936 54.0467
L72.8904 54.0999
" />
<path d="M72.8904 54.0999
L72.8634 54.1943
" />
<path d="M72.8634 54.1943
L72.8277 54.2561
" />
<path d="M72.8277 54.2561
L72.7595 54.3267
" />
<path d="M72.7595 54.3267
L72.7150 54.3560
" />
<path d="M72.7150 54.3560
L72.6500 54.3735
" />
<path d="M72.6500 54.3735
L72.5762 54.3584
" />
<path d="M72.5762 54.3584
L72.4731 54.2989
" />
<path d="M73.3417 54.2230
L73.2592 54.1754
" />
<path d="M73.2592 54.1754
L73.2061 54.1722
" />
<path d="M73.2061 54.1722
L73.1736 54.1809
" />
<path d="M73.1736 54.1809
L73.0966 54.2189
" />
<path d="M73.0966 54.2189
L73.0284 54.2895
" />
<path d="M73.0284 54.2895
L72.9331 54.4545
" />
<path d="M72.9331 54.4545
L72.9299 54.5076
" />
<path d="M72.9299 54.5076
L72.9386 54.5401
" />
<path d="M72.9386 54.5401
L72.9680 54.5846
" />
<path d="M72.9680 54.5846
L73.0505 54.6322
" />
<path d="M73.0505 54.6322
L73.1036 54.6354
" />
<path d="M73.1036 54.6354
L73.1361 54.6267
" />
<path d="M73.1361 54.6267
L73.1806 54.5973
" />
<path d="M73.1806 54.5973
L73.2401 54.4942
" />
<path d="M73.2401 54.4942
L73.2433 54.4411
" />
<path d="M73.2433 54.4411
L73.2346 54.4086
" />
<path d="M73.2346 54.4086
L73.2052 54.3641
" />
<path d="M73.2052 54.3641
L73.1227 54.3165
" />
<path d="M73.1227 54.3165
L73.0696 54.3133
" />
<path d="M73.0696 54.3133
L73.0371 54.3220
" />
<path d="M73.0371 54.3220
L72.9926 54.3514
" />
</g></g>
<g style="fill:#000000; fill-opacity:0.0; 
stroke:#000000; stroke-width:0.0750; stroke-opacity:1; 
stroke-linecap:round; stroke-linejoin:round;">
<g transform="rotate(30.000000 71.6297 54.6478)">
<text x="71.6297" y="54.7978"
textLength="0.4507" font-size="0.4000" lengthAdjust="spacingAndGlyphs"
text-anchor="middle" opacity="0">1</text>
</g>
<g class="stroked-text"><desc>1</desc>
<path d="M71.6365 54.8075
L71.4880 54.7217
" />
<path d="M71.5623 54.7646
L71.7123 54.5048
" />
<path d="M71.7123 54.5048
L71.6661 54.5276
" />
<path d="M71.6661 54.5276
L71.6271 54.5381
" />
<path d="M71.6271 54.5381
L71.5952 54.5362
" />
</g></g>
<g style="fill:#000000; fill-opacity:0.0; 
stroke:#000000; stroke-width:0.1000; stroke-opacity:1; 
stroke-linecap:round; stroke-linejoin:round;">
<text x="78.3300" y="49.2500"
textLength="1.8429" font-size="0.6667" lengthAdjust="spacingAndGlyphs"
text-anchor="middle" opacity="0">FID1</text>
<g class="stroked-text"><desc>FID1</desc>
<path d="M77.7943 48.9642
L77.6276 48.9642
" />
<path d="M77.6276 49.2261
L77.6276 48.7261
" />
<path d="M77.6276 48.7261
L77.8657 48.7261
" />
<path d="M78.0562 49.2261
L78.0562 48.7261
" />
<path d="M78.2943 49.2261
L78.2943 48.7261
" />
<path d="M78.2943 48.7261
L78.4133 48.7261
" />
<path d="M78.4133 48.7261
L78.4848 48.7499
" />
<path d="M78.4848 48.7499
L78.5324 48.7975
" />
<path d="M78.5324 48.7975
L78.5562 48.8452
" />
<path d="M78.5562 48.8452
L78.5800 48.9404
" />
<path d="M78.5800 48.9404
L78.5800 49.0118
" />
<path d="M78.5800 49.0118
L78.5562 49.1071
" />
<path d="M78.5562 49.1071
L78.5324 49.1547
" />
<path d="M78.5324 49.1547
L78.4848 49.2023
" />
<path d="M78.4848 49.2023
L78.4133 49.2261
" />
<path d="M78.4133 49.2261
L78.2943 49.2261
" />
<path d="M79.0562 49.2261
L78.7705 49.2261
" />
<path d="M78.9133 49.2261
L78.9133 48.7261
" />
<path d="M78.9133 48.7261
L78.8657 48.7975
" />
<path d="M78.8657 48.7975
L78.8181 48.8452
" />
<path d="M78.8181 48.8452
L78.7705 48.8690
" />
</g><text x="70.6000" y="62.6000"
textLength="1.1762" font-size="0.6667" lengthAdjust="spacingAndGlyphs"
text-anchor="middle" opacity="0">C7</text>
<g class="stroked-text"><desc>C7</desc>
<path d="M70.5167 62.5285
L70.4929 62.5523
" />
<path d="M70.4929 62.5523
L70.4214 62.5761
" />
<path d="M70.4214 62.5761
L70.3738 62.5761
" />
<path d="M70.3738 62.5761
L70.3024 62.5523
" />
<path d="M70.3024 62.5523
L70.2548 62.5047
" />
<path d="M70.2548 62.5047
L70.2310 62.4571
" />
<path d="M70.2310 62.4571
L70.2071 62.3618
" />
<path d="M70.2071 62.3618
L70.2071 62.2904
" />
<path d="M70.2071 62.2904
L70.2310 62.1952
" />
<path d="M70.2310 62.1952
L70.2548 62.1475
" />
<path d="M70.2548 62.1475
L70.3024 62.0999
" />
<path d="M70.3024 62.0999
L70.3738 62.0761
" />
<path d="M70.3738 62.0761
L70.4214 62.0761
" />
<path d="M70.4214 62.0761
L70.4929 62.0999
" />
<path d="M70.4929 62.0999
L70.5167 62.1237
" />
<path d="M70.6833 62.0761
L71.0167 62.0761
" />
<path d="M71.0167 62.0761
L70.8024 62.5761
" />
</g><g transform="rotate(-90.000000 88.0700 57.2500)">
<text x="88.0700" y="57.5000"
textLength="1.6524" font-size="0.6667" lengthAdjust="spacingAndGlyphs"
text-anchor="middle" opacity="0">D13</text>
</g>
<g class="stroked-text"><desc>D13</desc>
<path d="M88.2961 57.8571
L87.7961 57.8571
" />
<path d="M87.7961 57.8571
L87.7961 57.7381
" />
<path d="M87.7961 57.7381
L87.8199 57.6667
" />
<path d="M87.8199 57.6667
L87.8675 57.6190
" />
<path d="M87.8675 57.6190
L87.9152 57.5952
" />
<path d="M87.9152 57.5952
L88.0104 57.5714
" />
<path d="M88.0104 57.5714
L88.0818 57.5714
" />
<path d="M88.0818 57.5714
L88.1771 57.5952
" />
<path d="M88.1771 57.5952
L88.2247 57.6190
" />
<path d="M88.2247 57.6190
L88.2723 57.6667
" />
<path d="M88.2723 57.6667
L88.2961 57.7381
" />
<path d="M88.2961 57.7381
L88.2961 57.8571
" />
<path d="M88.2961 57.0952
L88.2961 57.3810
" />
<path d="M88.2961 57.2381
L87.7961 57.2381
" />
<path d="M87.7961 57.2381
L87.8675 57.2857
" />
<path d="M87.8675 57.2857
L87.9152 57.3333
" />
<path d="M87.9152 57.3333
L87.9390 57.3810
" />
<path d="M87.7961 56.9286
L87.7961 56.6190
" />
<path d="M87.7961 56.6190
L87.9866 56.7857
" />
<path d="M87.9866 56.7857
L87.9866 56.7143
" />
<path d="M87.9866 56.7143
L88.0104 56.6667
" />
<path d="M88.0104 56.6667
L88.0342 56.6429
" />
<path d="M88.0342 56.6429
L88.0818 56.6190
" />
<path d="M88.0818 56.6190
L88.2009 56.6190
" />
<path d="M88.2009 56.6190
L88.2485 56.6429
" />
<path d="M88.2485 56.6429
L88.2723 56.6667
" />
<path d="M88.2723 56.6667
L88.2961 56.7143
" />
<path d="M88.2961 56.7143
L88.2961 56.8571
" />
<path d="M88.2961 56.8571
L88.2723 56.9048
" />
<path d="M88.2723 56.9048
L88.2485 56.9286
" />
</g><g transform="rotate(-30.000000 72.9800 66.7400)">
<text x="72.9800" y="66.9900"
textLength="1.1762" font-size="0.6667" lengthAdjust="spacingAndGlyphs"
text-anchor="middle" opacity="0">C8</text>
</g>
<g class="stroked-text"><desc>C8</desc>
<path d="M72.9971 66.9362
L72.9884 66.9688
" />
<path d="M72.9884 66.9688
L72.9384 67.0251
" />
<path d="M72.9384 67.0251
L72.8972 67.0489
" />
<path d="M72.8972 67.0489
L72.8234 67.0640
" />
<path d="M72.8234 67.0640
L72.7584 67.0466
" />
<path d="M72.7584 67.0466
L72.7139 67.0172
" />
<path d="M72.7139 67.0172
L72.6457 66.9467
" />
<path d="M72.6457 66.9467
L72.6100 66.8848
" />
<path d="M72.6100 66.8848
L72.5830 66.7904
" />
<path d="M72.5830 66.7904
L72.5798 66.7373
" />
<path d="M72.5798 66.7373
L72.5972 66.6722
" />
<path d="M72.5972 66.6722
L72.6472 66.6159
" />
<path d="M72.6472 66.6159
L72.6884 66.5921
" />
<path d="M72.6884 66.5921
L72.7622 66.5770
" />
<path d="M72.7622 66.5770
L72.7947 66.5857
" />
<path d="M73.1255 66.5872
L73.0723 66.5904
" />
<path d="M73.0723 66.5904
L73.0398 66.5817
" />
<path d="M73.0398 66.5817
L72.9954 66.5523
" />
<path d="M72.9954 66.5523
L72.9835 66.5317
" />
<path d="M72.9835 66.5317
L72.9803 66.4786
" />
<path d="M72.9803 66.4786
L72.9890 66.4460
" />
<path d="M72.9890 66.4460
L73.0183 66.4016
" />
<path d="M73.0183 66.4016
L73.1008 66.3540
" />
<path d="M73.1008 66.3540
L73.1539 66.3508
" />
<path d="M73.1539 66.3508
L73.1865 66.3595
" />
<path d="M73.1865 66.3595
L73.2309 66.3889
" />
<path d="M73.2309 66.3889
L73.2428 66.4095
" />
<path d="M73.2428 66.4095
L73.2460 66.4626
" />
<path d="M73.2460 66.4626
L73.2373 66.4951
" />
<path d="M73.2373 66.4951
L73.2079 66.5396
" />
<path d="M73.2079 66.5396
L73.1255 66.5872
" />
<path d="M73.1255 66.5872
L73.0961 66.6316
" />
<path d="M73.0961 66.6316
L73.0874 66.6641
" />
<path d="M73.0874 66.6641
L73.0906 66.7173
" />
<path d="M73.0906 66.7173
L73.1382 66.7998
" />
<path d="M73.1382 66.7998
L73.1827 66.8291
" />
<path d="M73.1827 66.8291
L73.2152 66.8378
" />
<path d="M73.2152 66.8378
L73.2683 66.8346
" />
<path d="M73.2683 66.8346
L73.3508 66.7870
" />
<path d="M73.3508 66.7870
L73.3801 66.7426
" />
<path d="M73.3801 66.7426
L73.3888 66.7101
" />
<path d="M73.3888 66.7101
L73.3857 66.6569
" />
<path d="M73.3857 66.6569
L73.3380 66.5744
" />
<path d="M73.3380 66.5744
L73.2936 66.5451
" />
<path d="M73.2936 66.5451
L73.2611 66.5364
" />
<path d="M73.2611 66.5364
L73.2079 66.5396
" />
</g><g transform="rotate(-60.000000 77.3200 69.3000)">
<text x="77.3200" y="69.5500"
textLength="1.1762" font-size="0.6667" lengthAdjust="spacingAndGlyphs"
text-anchor="middle" opacity="0">C9</text>
</g>
<g class="stroked-text"><desc>C9</desc>
<path d="M77.4329 69.4614
L77.4416 69.4939
" />
<path d="M77.4416 69.4939
L77.4265 69.5677
" />
<path d="M77.4265 69.5677
L77.4027 69.6089
" />
<path d="M77.4027 69.6089
L77.3464 69.6589
" />
<path d="M77.3464 69.6589
L77.2813 69.6763
" />
<path d="M77.2813 69.6763
L77.2282 69.6731
" />
<path d="M77.2282 69.6731
L77.1338 69.6461
" />
<path d="M77.1338 69.6461
L77.0720 69.6104
" />
<path d="M77.0720 69.6104
L77.0014 69.5422
" />
<path d="M77.0014 69.5422
L76.9720 69.4978
" />
<path d="M76.9720 69.4978
L76.9546 69.4327
" />
<path d="M76.9546 69.4327
L76.9697 69.3589
" />
<path d="M76.9697 69.3589
L76.9935 69.3177
" />
<path d="M76.9935 69.3177
L77.0499 69.2677
" />
<path d="M77.0499 69.2677
L77.0824 69.2590
" />
<path d="M77.5932 69.2790
L77.6408 69.1965
" />
<path d="M77.6408 69.1965
L77.6440 69.1434
" />
<path d="M77.6440 69.1434
L77.6353 69.1109
" />
<path d="M77.6353 69.1109
L77.5972 69.0339
" />
<path d="M77.5972 69.0339
L77.5267 68.9657
" />
<path d="M77.5267 68.9657
L77.3617 68.8704
" />
<path d="M77.3617 68.8704
L77.3086 68.8673
" />
<path d="M77.3086 68.8673
L77.2760 68.8760
" />
<path d="M77.2760 68.8760
L77.2316 68.9053
" />
<path d="M77.2316 68.9053
L77.1840 68.9878
" />
<path d="M77.1840 68.9878
L77.1808 69.0409
" />
<path d="M77.1808 69.0409
L77.1895 69.0735
" />
<path d="M77.1895 69.0735
L77.2189 69.1179
" />
<path d="M77.2189 69.1179
L77.3220 69.1774
" />
<path d="M77.3220 69.1774
L77.3751 69.1806
" />
<path d="M77.3751 69.1806
L77.4076 69.1719
" />
<path d="M77.4076 69.1719
L77.4520 69.1425
" />
<path d="M77.4520 69.1425
L77.4997 69.0601
" />
<path d="M77.4997 69.0601
L77.5029 69.0069
" />
<path d="M77.5029 69.0069
L77.4941 68.9744
" />
<path d="M77.4941 68.9744
L77.4648 68.9300
" />
</g><g transform="rotate(60.000000 86.6000 66.9100)">
<text x="86.6000" y="67.1600"
textLength="1.6524" font-size="0.6667" lengthAdjust="spacingAndGlyphs"
text-anchor="middle" opacity="0">C11</text>
</g>
<g class="stroked-text"><desc>C11</desc>
<path d="M86.2847 66.7209
L86.2522 66.7122
" />
<path d="M86.2522 66.7122
L86.1958 66.6622
" />
<path d="M86.1958 66.6622
L86.1720 66.6210
" />
<path d="M86.1720 66.6210
L86.1569 66.5472
" />
<path d="M86.1569 66.5472
L86.1744 66.4822
" />
<path d="M86.1744 66.4822
L86.2037 66.4377
" />
<path d="M86.2037 66.4377
L86.2743 66.3695
" />
<path d="M86.2743 66.3695
L86.3361 66.3338
" />
<path d="M86.3361 66.3338
L86.4305 66.3068
" />
<path d="M86.4305 66.3068
L86.4837 66.3036
" />
<path d="M86.4837 66.3036
L86.5487 66.3210
" />
<path d="M86.5487 66.3210
L86.6051 66.3710
" />
<path d="M86.6051 66.3710
L86.6289 66.4122
" />
<path d="M86.6289 66.4122
L86.6440 66.4860
" />
<path d="M86.6440 66.4860
L86.6352 66.5185
" />
<path d="M86.4816 67.1571
L86.3387 66.9096
" />
<path d="M86.4101 67.0334
L86.8431 66.7834
" />
<path d="M86.8431 66.7834
L86.7575 66.7778
" />
<path d="M86.7575 66.7778
L86.6924 66.7604
" />
<path d="M86.6924 66.7604
L86.6480 66.7311
" />
<path d="M86.7197 67.5695
L86.5768 67.3220
" />
<path d="M86.6482 67.4458
L87.0812 67.1958
" />
<path d="M87.0812 67.1958
L86.9956 67.1902
" />
<path d="M86.9956 67.1902
L86.9305 67.1728
" />
<path d="M86.9305 67.1728
L86.8861 67.1435
" />
</g><g transform="rotate(30.000000 70.6400 57.3200)">
<text x="70.6400" y="57.5700"
textLength="1.1762" font-size="0.6667" lengthAdjust="spacingAndGlyphs"
text-anchor="middle" opacity="0">C6</text>
</g>
<g class="stroked-text"><desc>C6</desc>
<path d="M70.4786 57.4329
L70.4461 57.4416
" />
<path d="M70.4461 57.4416
L70.3723 57.4265
" />
<path d="M70.3723 57.4265
L70.3311 57.4027
" />
<path d="M70.3311 57.4027
L70.2811 57.3464
" />
<path d="M70.2811 57.3464
L70.2637 57.2813
" />
<path d="M70.2637 57.2813
L70.2669 57.2282
" />
<path d="M70.2669 57.2282
L70.2939 57.1338
" />
<path d="M70.2939 57.1338
L70.3296 57.0720
" />
<path d="M70.3296 57.0720
L70.3978 57.0014
" />
<path d="M70.3978 57.0014
L70.4422 56.9720
" />
<path d="M70.4422 56.9720
L70.5073 56.9546
" />
<path d="M70.5073 56.9546
L70.5811 56.9697
" />
<path d="M70.5811 56.9697
L70.6223 56.9935
" />
<path d="M70.6223 56.9935
L70.6723 57.0499
" />
<path d="M70.6723 57.0499
L70.6810 57.0824
" />
<path d="M71.0759 57.2554
L70.9935 57.2078
" />
<path d="M70.9935 57.2078
L70.9403 57.2046
" />
<path d="M70.9403 57.2046
L70.9078 57.2133
" />
<path d="M70.9078 57.2133
L70.8308 57.2514
" />
<path d="M70.8308 57.2514
L70.7626 57.3220
" />
<path d="M70.7626 57.3220
L70.6674 57.4869
" />
<path d="M70.6674 57.4869
L70.6642 57.5401
" />
<path d="M70.6642 57.5401
L70.6729 57.5726
" />
<path d="M70.6729 57.5726
L70.7022 57.6170
" />
<path d="M70.7022 57.6170
L70.7847 57.6646
" />
<path d="M70.7847 57.6646
L70.8378 57.6678
" />
<path d="M70.8378 57.6678
L70.8704 57.6591
" />
<path d="M70.8704 57.6591
L70.9148 57.6298
" />
<path d="M70.9148 57.6298
L70.9743 57.5267
" />
<path d="M70.9743 57.5267
L70.9775 57.4735
" />
<path d="M70.9775 57.4735
L70.9688 57.4410
" />
<path d="M70.9688 57.4410
L70.9395 57.3966
" />
<path d="M70.9395 57.3966
L70.8570 57.3490
" />
<path d="M70.8570 57.3490
L70.8038 57.3458
" />
<path d="M70.8038 57.3458
L70.7713 57.3545
" />
<path d="M70.7713 57.3545
L70.7269 57.3838
" />
</g><g transform="rotate(-90.000000 82.3400 69.3300)">
<text x="82.3400" y="69.5800"
textLength="1.6524" font-size="0.6667" lengthAdjust="spacingAndGlyphs"
text-anchor="middle" opacity="0">C10</text>
</g>
<g class="stroked-text"><desc>C10</desc>
<path d="M82.5185 69.6514
L82.5423 69.6752
" />
<path d="M82.5423 69.6752
L82.5661 69.7467
" />
<path d="M82.5661 69.7467
L82.5661 69.7943
" />
<path d="M82.5661 69.7943
L82.5423 69.8657
" />
<path d="M82.5423 69.8657
L82.4947 69.9133
" />
<path d="M82.4947 69.9133
L82.4471 69.9371
" />
<path d="M82.4471 69.9371
L82.3518 69.9610
" />
<path d="M82.3518 69.9610
L82.2804 69.9610
" />
<path d="M82.2804 69.9610
L82.1852 69.9371
" />
<path d="M82.1852 69.9371
L82.1375 69.9133
" />
<path d="M82.1375 69.9133
L82.0899 69.8657
" />
<path d="M82.0899 69.8657
L82.0661 69.7943
" />
<path d="M82.0661 69.7943
L82.0661 69.7467
" />
<path d="M82.0661 69.7467
L82.0899 69.6752
" />
<path d="M82.0899 69.6752
L82.1137 69.6514
" />
<path d="M82.5661 69.1752
L82.5661 69.4610
" />
<path d="M82.5661 69.3181
L82.0661 69.3181
" />
<path d="M82.0661 69.3181
L82.1375 69.3657
" />
<path d="M82.1375 69.3657
L82.1852 69.4133
" />
<path d="M82.1852 69.4133
L82.2090 69.4610
" />
<path d="M82.0661 68.8657
L82.0661 68.8181
" />
<path d="M82.0661 68.8181
L82.0899 68.7705
" />
<path d="M82.0899 68.7705
L82.1137 68.7467
" />
<path d="M82.1137 68.7467
L82.1613 68.7229
" />
<path d="M82.1613 68.7229
L82.2566 68.6990
" />
<path d="M82.2566 68.6990
L82.3756 68.6990
" />
<path d="M82.3756 68.6990
L82.4709 68.7229
" />
<path d="M82.4709 68.7229
L82.5185 68.7467
" />
<path d="M82.5185 68.7467
L82.5423 68.7705
" />
<path d="M82.5423 68.7705
L82.5661 68.8181
" />
<path d="M82.5661 68.8181
L82.5661 68.8657
" />
<path d="M82.5661 68.8657
L82.5423 68.9133
" />
<path d="M82.5423 68.9133
L82.5185 68.9371
" />
<path d="M82.5185 68.9371
L82.4709 68.9610
" />
<path d="M82.4709 68.9610
L82.3756 68.9848
" />
<path d="M82.3756 68.9848
L82.2566 68.9848
" />
<path d="M82.2566 68.9848
L82.1613 68.9610
" />
<path d="M82.1613 68.9610
L82.1137 68.9371
" />
<path d="M82.1137 68.9371
L82.0899 68.9133
" />
<path d="M82.0899 68.9133
L82.0661 68.8657
" />
</g><g transform="rotate(-30.000000 89.3000 55.1500)">
<text x="89.3000" y="55.4000"
textLength="1.1762" font-size="0.6667" lengthAdjust="spacingAndGlyphs"
text-anchor="middle" opacity="0">D2</text>
</g>
<g class="stroked-text"><desc>D2</desc>
<path d="M89.0934 55.5303
L88.8434 55.0973
" />
<path d="M88.8434 55.0973
L88.9465 55.0378
" />
<path d="M88.9465 55.0378
L89.0203 55.0227
" />
<path d="M89.0203 55.0227
L89.0854 55.0401
" />
<path d="M89.0854 55.0401
L89.1298 55.0695
" />
<path d="M89.1298 55.0695
L89.1980 55.1400
" />
<path d="M89.1980 55.1400
L89.2337 55.2019
" />
<path d="M89.2337 55.2019
L89.2607 55.2963
" />
<path d="M89.2607 55.2963
L89.2639 55.3494
" />
<path d="M89.2639 55.3494
L89.2465 55.4145
" />
<path d="M89.2465 55.4145
L89.1965 55.4708
" />
<path d="M89.1965 55.4708
L89.0934 55.5303
" />
<path d="M89.2797 54.9005
L89.2884 54.8679
" />
<path d="M89.2884 54.8679
L89.3177 54.8235
" />
<path d="M89.3177 54.8235
L89.4208 54.7640
" />
<path d="M89.4208 54.7640
L89.4739 54.7608
" />
<path d="M89.4739 54.7608
L89.5065 54.7695
" />
<path d="M89.5065 54.7695
L89.5509 54.7989
" />
<path d="M89.5509 54.7989
L89.5747 54.8401
" />
<path d="M89.5747 54.8401
L89.5898 54.9139
" />
<path d="M89.5898 54.9139
L89.4852 55.3041
" />
<path d="M89.4852 55.3041
L89.7533 55.1494
" />
</g></g>
<g style="fill:#000000; fill-opacity:0.0; 
stroke:#000000; stroke-width:0.0750; stroke-opacity:1; 
stroke-linecap:round; stroke-linejoin:round;">
<g transform="rotate(-30.000000 88.8203 55.4272)">
<text x="88.8203" y="55.5772"
textLength="0.4507" font-size="0.4000" lengthAdjust="spacingAndGlyphs"
text-anchor="middle" opacity="0">1</text>
</g>
<g class="stroked-text"><desc>1</desc>
<path d="M88.9620 55.5012
L88.8135 55.5869
" />
<path d="M88.8877 55.5440
L88.7377 55.2842
" />
<path d="M88.7377 55.2842
L88.7344 55.3356
" />
<path d="M88.7344 55.3356
L88.7240 55.3746
" />
<path d="M88.7240 55.3746
L88.7064 55.4013
" />
</g></g>
<g style="fill:#000000; fill-opacity:0.0; 
stroke:#000000; stroke-width:0.1000; stroke-opacity:1; 
stroke-linecap:round; stroke-linejoin:round;">
<text x="90.0300" y="57.9600"
textLength="1.1762" font-size="0.6667" lengthAdjust="spacingAndGlyphs"
text-anchor="middle" opacity="0">C1</text>
<g class="stroked-text"><desc>C1</desc>
<path d="M89.9467 57.8885
L89.9229 57.9123
" />
<path d="M89.9229 57.9123
L89.8514 57.9361
" />
<path d="M89.8514 57.9361
L89.8038 57.9361
" />
<path d="M89.8038 57.9361
L89.7324 57.9123
" />
<path d="M89.7324 57.9123
L89.6848 57.8647
" />
<path d="M89.6848 57.8647
L89.6610 57.8171
" />
<path d="M89.6610 57.8171
L89.6371 57.7218
" />
<path d="M89.6371 57.7218
L89.6371 57.6504
" />
<path d="M89.6371 57.6504
L89.6610 57.5552
" />
<path d="M89.6610 57.5552
L89.6848 57.5075
" />
<path d="M89.6848 57.5075
L89.7324 57.4599
" />
<path d="M89.7324 57.4599
L89.8038 57.4361
" />
<path d="M89.8038 57.4361
L89.8514 57.4361
" />
<path d="M89.8514 57.4361
L89.9229 57.4599
" />
<path d="M89.9229 57.4599
L89.9467 57.4837
" />
<path d="M90.4229 57.9361
L90.1371 57.9361
" />
<path d="M90.2800 57.9361
L90.2800 57.4361
" />
<path d="M90.2800 57.4361
L90.2324 57.5075
" />
<path d="M90.2324 57.5075
L90.1848 57.5552
" />
<path d="M90.1848 57.5552
L90.1371 57.5790
" />
</g><g transform="rotate(-30.000000 86.9700 53.3500)">
<text x="86.9700" y="53.6000"
textLength="1.1762" font-size="0.6667" lengthAdjust="spacingAndGlyphs"
text-anchor="middle" opacity="0">C2</text>
</g>
<g class="stroked-text"><desc>C2</desc>
<path d="M86.9871 53.5462
L86.9784 53.5788
" />
<path d="M86.9784 53.5788
L86.9284 53.6351
" />
<path d="M86.9284 53.6351
L86.8872 53.6589
" />
<path d="M86.8872 53.6589
L86.8134 53.6740
" />
<path d="M86.8134 53.6740
L86.7484 53.6566
" />
<path d="M86.7484 53.6566
L86.7039 53.6272
" />
<path d="M86.7039 53.6272
L86.6357 53.5567
" />
<path d="M86.6357 53.5567
L86.6000 53.4948
" />
<path d="M86.6000 53.4948
L86.5730 53.4004
" />
<path d="M86.5730 53.4004
L86.5698 53.3473
" />
<path d="M86.5698 53.3473
L86.5872 53.2822
" />
<path d="M86.5872 53.2822
L86.6372 53.2259
" />
<path d="M86.6372 53.2259
L86.6784 53.2021
" />
<path d="M86.6784 53.2021
L86.7522 53.1870
" />
<path d="M86.7522 53.1870
L86.7847 53.1957
" />
<path d="M86.9497 53.1005
L86.9584 53.0679
" />
<path d="M86.9584 53.0679
L86.9877 53.0235
" />
<path d="M86.9877 53.0235
L87.0908 52.9640
" />
<path d="M87.0908 52.9640
L87.1439 52.9608
" />
<path d="M87.1439 52.9608
L87.1765 52.9695
" />
<path d="M87.1765 52.9695
L87.2209 52.9989
" />
<path d="M87.2209 52.9989
L87.2447 53.0401
" />
<path d="M87.2447 53.0401
L87.2598 53.1139
" />
<path d="M87.2598 53.1139
L87.1552 53.5041
" />
<path d="M87.1552 53.5041
L87.4233 53.3494
" />
</g><g transform="rotate(60.000000 76.7124 51.5058)">
<text x="76.7124" y="51.7558"
textLength="1.1762" font-size="0.6667" lengthAdjust="spacingAndGlyphs"
text-anchor="middle" opacity="0">D5</text>
</g>
<g class="stroked-text"><desc>D5</desc>
<path d="M76.3321 51.2992
L76.7651 51.0492
" />
<path d="M76.7651 51.0492
L76.8246 51.1523
" />
<path d="M76.8246 51.1523
L76.8397 51.2261
" />
<path d="M76.8397 51.2261
L76.8223 51.2911
" />
<path d="M76.8223 51.2911
L76.7930 51.3356
" />
<path d="M76.7930 51.3356
L76.7224 51.4038
" />
<path d="M76.7224 51.4038
L76.6605 51.4395
" />
<path d="M76.6605 51.4395
L76.5661 51.4665
" />
<path d="M76.5661 51.4665
L76.5130 51.4697
" />
<path d="M76.5130 51.4697
L76.4480 51.4523
" />
<path d="M76.4480 51.4523
L76.3916 51.4023
" />
<path d="M76.3916 51.4023
L76.3321 51.2992
" />
<path d="M77.1342 51.6884
L77.0151 51.4822
" />
<path d="M77.0151 51.4822
L76.7970 51.5807
" />
<path d="M76.7970 51.5807
L76.8295 51.5894
" />
<path d="M76.8295 51.5894
L76.8740 51.6187
" />
<path d="M76.8740 51.6187
L76.9335 51.7218
" />
<path d="M76.9335 51.7218
L76.9367 51.7750
" />
<path d="M76.9367 51.7750
L76.9280 51.8075
" />
<path d="M76.9280 51.8075
L76.8986 51.8519
" />
<path d="M76.8986 51.8519
L76.7955 51.9114
" />
<path d="M76.7955 51.9114
L76.7424 51.9146
" />
<path d="M76.7424 51.9146
L76.7099 51.9059
" />
<path d="M76.7099 51.9059
L76.6654 51.8766
" />
<path d="M76.6654 51.8766
L76.6059 51.7735
" />
<path d="M76.6059 51.7735
L76.6027 51.7203
" />
<path d="M76.6027 51.7203
L76.6114 51.6878
" />
</g></g>
<g style="fill:#000000; fill-opacity:0.0; 
stroke:#000000; stroke-width:0.0750; stroke-opacity:1; 
stroke-linecap:round; stroke-linejoin:round;">
<g transform="rotate(60.000000 75.4272 51.1797)">
<text x="75.4272" y="51.3297"
textLength="0.4507" font-size="0.4000" lengthAdjust="spacingAndGlyphs"
text-anchor="middle" opacity="0">1</text>
</g>
<g class="stroked-text"><desc>1</desc>
<path d="M75.3533 51.3214
L75.2675 51.1729
" />
<path d="M75.3104 51.2471
L75.5702 51.0971
" />
<path d="M75.5702 51.0971
L75.5188 51.0938
" />
<path d="M75.5188 51.0938
L75.4798 51.0834
" />
<path d="M75.4798 51.0834
L75.4531 51.0658
" />
</g></g>
<g style="fill:#000000; fill-opacity:0.0; 
stroke:#000000; stroke-width:0.1000; stroke-opacity:1; 
stroke-linecap:round; stroke-linejoin:round;">
<g transform="rotate(30.000000 89.3000 62.7400)">
<text x="89.3000" y="62.9900"
textLength="1.6524" font-size="0.6667" lengthAdjust="spacingAndGlyphs"
text-anchor="middle" opacity="0">C12</text>
</g>
<g class="stroked-text"><desc>C12</desc>
<path d="M88.9324 62.7339
L88.8999 62.7426
" />
<path d="M88.8999 62.7426
L88.8261 62.7275
" />
<path d="M88.8261 62.7275
L88.7849 62.7037
" />
<path d="M88.7849 62.7037
L88.7349 62.6473
" />
<path d="M88.7349 62.6473
L88.7175 62.5823
" />
<path d="M88.7175 62.5823
L88.7207 62.5291
" />
<path d="M88.7207 62.5291
L88.7477 62.4348
" />
<path d="M88.7477 62.4348
L88.7834 62.3729
" />
<path d="M88.7834 62.3729
L88.8516 62.3023
" />
<path d="M88.8516 62.3023
L88.8960 62.2730
" />
<path d="M88.8960 62.2730
L88.9611 62.2556
" />
<path d="M88.9611 62.2556
L89.0349 62.2707
" />
<path d="M89.0349 62.2707
L89.0761 62.2945
" />
<path d="M89.0761 62.2945
L89.1261 62.3508
" />
<path d="M89.1261 62.3508
L89.1348 62.3833
" />
<path d="M89.3210 63.0132
L89.0735 62.8703
" />
<path d="M89.1973 62.9418
L89.4473 62.5088
" />
<path d="M89.4473 62.5088
L89.3703 62.5468
" />
<path d="M89.3703 62.5468
L89.3053 62.5642
" />
<path d="M89.3053 62.5642
L89.2521 62.5610
" />
<path d="M89.7121 62.7167
L89.7446 62.7079
" />
<path d="M89.7446 62.7079
L89.7978 62.7111
" />
<path d="M89.7978 62.7111
L89.9009 62.7707
" />
<path d="M89.9009 62.7707
L89.9302 62.8151
" />
<path d="M89.9302 62.8151
L89.9389 62.8476
" />
<path d="M89.9389 62.8476
L89.9357 62.9008
" />
<path d="M89.9357 62.9008
L89.9119 62.9420
" />
<path d="M89.9119 62.9420
L89.8556 62.9920
" />
<path d="M89.8556 62.9920
L89.4653 63.0965
" />
<path d="M89.4653 63.0965
L89.7334 63.2513
" />
</g><g transform="rotate(-60.000000 74.2876 67.1400)">
<text x="74.2876" y="67.3900"
textLength="1.1762" font-size="0.6667" lengthAdjust="spacingAndGlyphs"
text-anchor="middle" opacity="0">D9</text>
</g>
<g class="stroked-text"><desc>D9</desc>
<path d="M74.2989 67.5727
L73.8658 67.3227
" />
<path d="M73.8658 67.3227
L73.9254 67.2196
" />
<path d="M73.9254 67.2196
L73.9817 67.1696
" />
<path d="M73.9817 67.1696
L74.0468 67.1522
" />
<path d="M74.0468 67.1522
L74.0999 67.1554
" />
<path d="M74.0999 67.1554
L74.1943 67.1824
" />
<path d="M74.1943 67.1824
L74.2561 67.2181
" />
<path d="M74.2561 67.2181
L74.3267 67.2863
" />
<path d="M74.3267 67.2863
L74.3560 67.3307
" />
<path d="M74.3560 67.3307
L74.3735 67.3958
" />
<path d="M74.3735 67.3958
L74.3584 67.4696
" />
<path d="M74.3584 67.4696
L74.2989 67.5727
" />
<path d="M74.5608 67.1190
L74.6084 67.0365
" />
<path d="M74.6084 67.0365
L74.6116 66.9834
" />
<path d="M74.6116 66.9834
L74.6029 66.9509
" />
<path d="M74.6029 66.9509
L74.5648 66.8739
" />
<path d="M74.5648 66.8739
L74.4942 66.8057
" />
<path d="M74.4942 66.8057
L74.3293 66.7104
" />
<path d="M74.3293 66.7104
L74.2761 66.7073
" />
<path d="M74.2761 66.7073
L74.2436 66.7160
" />
<path d="M74.2436 66.7160
L74.1992 66.7453
" />
<path d="M74.1992 66.7453
L74.1516 66.8278
" />
<path d="M74.1516 66.8278
L74.1484 66.8809
" />
<path d="M74.1484 66.8809
L74.1571 66.9135
" />
<path d="M74.1571 66.9135
L74.1864 66.9579
" />
<path d="M74.1864 66.9579
L74.2895 67.0174
" />
<path d="M74.2895 67.0174
L74.3427 67.0206
" />
<path d="M74.3427 67.0206
L74.3752 67.0119
" />
<path d="M74.3752 67.0119
L74.4196 66.9825
" />
<path d="M74.4196 66.9825
L74.4672 66.9001
" />
<path d="M74.4672 66.9001
L74.4704 66.8469
" />
<path d="M74.4704 66.8469
L74.4617 66.8144
" />
<path d="M74.4617 66.8144
L74.4324 66.7700
" />
</g></g>
<g style="fill:#000000; fill-opacity:0.0; 
stroke:#000000; stroke-width:0.0750; stroke-opacity:1; 
stroke-linecap:round; stroke-linejoin:round;">
<g transform="rotate(-60.000000 74.6478 68.3703)">
<text x="74.6478" y="68.5203"
textLength="0.4507" font-size="0.4000" lengthAdjust="spacingAndGlyphs"
text-anchor="middle" opacity="0">1</text>
</g>
<g class="stroked-text"><desc>1</desc>
<path d="M74.8075 68.3635
L74.7217 68.5120
" />
<path d="M74.7646 68.4377
L74.5048 68.2877
" />
<path d="M74.5048 68.2877
L74.5276 68.3339
" />
<path d="M74.5276 68.3339
L74.5381 68.3729
" />
<path d="M74.5381 68.3729
L74.5362 68.4048
" />
</g></g>
<g style="fill:#000000; fill-opacity:0.0; 
stroke:#000000; stroke-width:0.1000; stroke-opacity:1; 
stroke-linecap:round; stroke-linejoin:round;">
<g transform="rotate(-60.000000 85.7124 52.9058)">
<text x="85.7124" y="53.1558"
textLength="1.1762" font-size="0.6667" lengthAdjust="spacingAndGlyphs"
text-anchor="middle" opacity="0">D3</text>
</g>
<g class="stroked-text"><desc>D3</desc>
<path d="M85.7237 53.3384
L85.2907 53.0884
" />
<path d="M85.2907 53.0884
L85.3502 52.9853
" />
<path d="M85.3502 52.9853
L85.4066 52.9354
" />
<path d="M85.4066 52.9354
L85.4716 52.9179
" />
<path d="M85.4716 52.9179
L85.5248 52.9211
" />
<path d="M85.5248 52.9211
L85.6191 52.9481
" />
<path d="M85.6191 52.9481
L85.6810 52.9839
" />
<path d="M85.6810 52.9839
L85.7516 53.0521
" />
<path d="M85.7516 53.0521
L85.7809 53.0965
" />
<path d="M85.7809 53.0965
L85.7983 53.1616
" />
<path d="M85.7983 53.1616
L85.7833 53.2353
" />
<path d="M85.7833 53.2353
L85.7237 53.3384
" />
<path d="M85.5169 52.6967
L85.6717 52.4286
" />
<path d="M85.6717 52.4286
L85.7533 52.6682
" />
<path d="M85.7533 52.6682
L85.7890 52.6063
" />
<path d="M85.7890 52.6063
L85.8334 52.5770
" />
<path d="M85.8334 52.5770
L85.8660 52.5683
" />
<path d="M85.8660 52.5683
L85.9191 52.5715
" />
<path d="M85.9191 52.5715
L86.0222 52.6310
" />
<path d="M86.0222 52.6310
L86.0515 52.6754
" />
<path d="M86.0515 52.6754
L86.0603 52.7079
" />
<path d="M86.0603 52.7079
L86.0571 52.7611
" />
<path d="M86.0571 52.7611
L85.9856 52.8848
" />
<path d="M85.9856 52.8848
L85.9412 52.9141
" />
<path d="M85.9412 52.9141
L85.9087 52.9228
" />
</g></g>
<g style="fill:#000000; fill-opacity:0.0; 
stroke:#000000; stroke-width:0.0750; stroke-opacity:1; 
stroke-linecap:round; stroke-linejoin:round;">
<g transform="rotate(-60.000000 85.3522 51.6297)">
<text x="85.3522" y="51.7797"
textLength="0.4507" font-size="0.4000" lengthAdjust="spacingAndGlyphs"
text-anchor="middle" opacity="0">1</text>
</g>
<g class="stroked-text"><desc>1</desc>
<path d="M85.5119 51.6229
L85.4262 51.7714
" />
<path d="M85.4690 51.6971
L85.2092 51.5471
" />
<path d="M85.2092 51.5471
L85.2320 51.5933
" />
<path d="M85.2320 51.5933
L85.2425 51.6323
" />
<path d="M85.2425 51.6323
L85.2406 51.6642
" />
</g></g>
<g style="fill:#000000; fill-opacity:0.0; 
stroke:#000000; stroke-width:0.1000; stroke-opacity:1; 
stroke-linecap:round; stroke-linejoin:round;">
<text x="90.3200" y="62.4300"
textLength="1.1762" font-size="0.6667" lengthAdjust="spacingAndGlyphs"
text-anchor="middle" opacity="0">R1</text>
<g class="stroked-text"><desc>R1</desc>
<path d="M90.2367 62.4061
L90.0700 62.1680
" />
<path d="M89.9510 62.4061
L89.9510 61.9061
" />
<path d="M89.9510 61.9061
L90.1414 61.9061
" />
<path d="M90.1414 61.9061
L90.1890 61.9299
" />
<path d="M90.1890 61.9299
L90.2129 61.9537
" />
<path d="M90.2129 61.9537
L90.2367 62.0013
" />
<path d="M90.2367 62.0013
L90.2367 62.0728
" />
<path d="M90.2367 62.0728
L90.2129 62.1204
" />
<path d="M90.2129 62.1204
L90.1890 62.1442
" />
<path d="M90.1890 62.1442
L90.1414 62.1680
" />
<path d="M90.1414 62.1680
L89.9510 62.1680
" />
<path d="M90.7129 62.4061
L90.4271 62.4061
" />
<path d="M90.5700 62.4061
L90.5700 61.9061
" />
<path d="M90.5700 61.9061
L90.5224 61.9775
" />
<path d="M90.5224 61.9775
L90.4748 62.0252
" />
<path d="M90.4748 62.0252
L90.4271 62.0490
" />
</g><g transform="rotate(-60.000000 82.7400 50.6900)">
<text x="82.7400" y="50.9400"
textLength="1.1762" font-size="0.6667" lengthAdjust="spacingAndGlyphs"
text-anchor="middle" opacity="0">C3</text>
</g>
<g class="stroked-text"><desc>C3</desc>
<path d="M82.8529 50.8514
L82.8616 50.8839
" />
<path d="M82.8616 50.8839
L82.8465 50.9577
" />
<path d="M82.8465 50.9577
L82.8227 50.9989
" />
<path d="M82.8227 50.9989
L82.7664 51.0489
" />
<path d="M82.7664 51.0489
L82.7013 51.0663
" />
<path d="M82.7013 51.0663
L82.6482 51.0631
" />
<path d="M82.6482 51.0631
L82.5538 51.0361
" />
<path d="M82.5538 51.0361
L82.4920 51.0004
" />
<path d="M82.4920 51.0004
L82.4214 50.9322
" />
<path d="M82.4214 50.9322
L82.3920 50.8878
" />
<path d="M82.3920 50.8878
L82.3746 50.8227
" />
<path d="M82.3746 50.8227
L82.3897 50.7489
" />
<path d="M82.3897 50.7489
L82.4135 50.7077
" />
<path d="M82.4135 50.7077
L82.4699 50.6577
" />
<path d="M82.4699 50.6577
L82.5024 50.6490
" />
<path d="M82.5445 50.4809
L82.6992 50.2128
" />
<path d="M82.6992 50.2128
L82.7809 50.4524
" />
<path d="M82.7809 50.4524
L82.8166 50.3905
" />
<path d="M82.8166 50.3905
L82.8610 50.3612
" />
<path d="M82.8610 50.3612
L82.8935 50.3525
" />
<path d="M82.8935 50.3525
L82.9467 50.3557
" />
<path d="M82.9467 50.3557
L83.0498 50.4152
" />
<path d="M83.0498 50.4152
L83.0791 50.4596
" />
<path d="M83.0791 50.4596
L83.0878 50.4922
" />
<path d="M83.0878 50.4922
L83.0846 50.5453
" />
<path d="M83.0846 50.5453
L83.0132 50.6690
" />
<path d="M83.0132 50.6690
L82.9688 50.6984
" />
<path d="M82.9688 50.6984
L82.9362 50.7071
" />
</g><text x="69.0000" y="58.7500"
textLength="1.8429" font-size="0.6667" lengthAdjust="spacingAndGlyphs"
text-anchor="middle" opacity="0">FID3</text>
<g class="stroked-text"><desc>FID3</desc>
<path d="M68.4643 58.4642
L68.2976 58.4642
" />
<path d="M68.2976 58.7261
L68.2976 58.2261
" />
<path d="M68.2976 58.2261
L68.5357 58.2261
" />
<path d="M68.7262 58.7261
L68.7262 58.2261
" />
<path d="M68.9643 58.7261
L68.9643 58.2261
" />
<path d="M68.9643 58.2261
L69.0833 58.2261
" />
<path d="M69.0833 58.2261
L69.1548 58.2499
" />
<path d="M69.1548 58.2499
L69.2024 58.2975
" />
<path d="M69.2024 58.2975
L69.2262 58.3452
" />
<path d="M69.2262 58.3452
L69.2500 58.4404
" />
<path d="M69.2500 58.4404
L69.2500 58.5118
" />
<path d="M69.2500 58.5118
L69.2262 58.6071
" />
<path d="M69.2262 58.6071
L69.2024 58.6547
" />
<path d="M69.2024 58.6547
L69.1548 58.7023
" />
<path d="M69.1548 58.7023
L69.0833 58.7261
" />
<path d="M69.0833 58.7261
L68.9643 58.7261
" />
<path d="M69.4167 58.2261
L69.7262 58.2261
" />
<path d="M69.7262 58.2261
L69.5595 58.4166
" />
<path d="M69.5595 58.4166
L69.6310 58.4166
" />
<path d="M69.6310 58.4166
L69.6786 58.4404
" />
<path d="M69.6786 58.4404
L69.7024 58.4642
" />
<path d="M69.7024 58.4642
L69.7262 58.5118
" />
<path d="M69.7262 58.5118
L69.7262 58.6309
" />
<path d="M69.7262 58.6309
L69.7024 58.6785
" />
<path d="M69.7024 58.6785
L69.6786 58.7023
" />
<path d="M69.6786 58.7023
L69.6310 58.7261
" />
<path d="M69.6310 58.7261
L69.4881 58.7261
" />
<path d="M69.4881 58.7261
L69.4405 58.7023
" />
<path d="M69.4405 58.7023
L69.4167 58.6785
" />
</g><path d="M83.3389 67.4831
L83.6639 68.0460
" />
<path d="M83.9018 67.1581
L83.3389 67.4831
" />
</g>
<g style="fill:#000000; fill-opacity:0.0; 
stroke:#000000; stroke-width:0.1200; stroke-opacity:1; 
stroke-linecap:round; stroke-linejoin:round;">
<path d="M78.8600 50.9522
L78.8600 51.1678
" />
<path d="M78.1400 50.9522
L78.1400 51.1678
" />
<path d="M74.4479 52.6593
L74.5557 52.8461
" />
<path d="M73.8243 53.0193
L73.9321 53.2061
" />
</g>
<g style="fill:#000000; fill-opacity:0.0; 
stroke:#000000; stroke-width:0.1000; stroke-opacity:1; 
stroke-linecap:round; stroke-linejoin:round;">
<path d="M88.1500 60.8500
L88.8000 60.8500
" />
<path d="M88.1500 60.2000
L88.1500 60.8500
" />
<path d="M80.8500 51.8500
L80.8500 51.2000
" />
<path d="M80.2000 51.8500
L80.8500 51.8500
" />
<path d="M86.6331 64.8111
L87.1960 65.1361
" />
<path d="M86.9581 64.2482
L86.6331 64.8111
" />
<path d="M72.5169 63.3389
L71.9540 63.6639
" />
<path d="M72.8419 63.9018
L72.5169 63.3389
" />
<path d="M79.1500 68.1500
L79.1500 68.8000
" />
<path d="M79.8000 68.1500
L79.1500 68.1500
" />
<path d="M71.8500 59.1500
L71.2000 59.1500
" />
<path d="M71.8500 59.8000
L71.8500 59.1500
" />
<path d="M73.3669 55.1889
L72.8040 54.8639
" />
<path d="M73.0419 55.7518
L73.3669 55.1889
" />
</g>
<g style="fill:#000000; fill-opacity:0.0; 
stroke:#000000; stroke-width:0.1200; stroke-opacity:1; 
stroke-linecap:round; stroke-linejoin:round;">
<path d="M70.8922 61.1400
L71.1078 61.1400
" />
<path d="M70.8922 61.8600
L71.1078 61.8600
" />
<path d="M88.4500 58.0100
L89.2500 58.0100
" />
<path d="M88.4500 56.6500
L88.4500 58.0100
" />
<path d="M89.2500 56.6500
L89.2500 58.0100
" />
<path d="M72.7266 65.4921
L72.9134 65.3843
" />
<path d="M73.0866 66.1157
L73.2734 66.0079
" />
<path d="M76.4343 68.4134
L76.5421 68.2266
" />
<path d="M77.0579 68.7734
L77.1657 68.5866
" />
<path d="M85.5421 67.3407
L85.4343 67.1539
" />
<path d="M86.1657 66.9807
L86.0579 66.7939
" />
<path d="M71.5866 56.4343
L71.7734 56.5421
" />
<path d="M71.2266 57.0579
L71.4134 57.1657
" />
<path d="M81.1400 69.1378
L81.1400 68.9222
" />
<path d="M81.8600 69.1378
L81.8600 68.9222
" />
</g>
<g style="fill:#000000; fill-opacity:0.0; 
stroke:#000000; stroke-width:0.1000; stroke-opacity:1; 
stroke-linecap:round; stroke-linejoin:round;">
<path d="M87.4831 56.6611
L88.0460 56.3361
" />
<path d="M87.1581 56.0982
L87.4831 56.6611
" />
</g>
<g style="fill:#000000; fill-opacity:0.0; 
stroke:#000000; stroke-width:0.1200; stroke-opacity:1; 
stroke-linecap:round; stroke-linejoin:round;">
<path d="M89.0422 58.1700
L89.2578 58.1700
" />
<path d="M89.0422 58.8900
L89.2578 58.8900
" />
<path d="M87.2734 54.5079
L87.0866 54.6157
" />
<path d="M86.9134 53.8843
L86.7266 53.9921
" />
</g>
<g style="fill:#000000; fill-opacity:0.0; 
stroke:#000000; stroke-width:0.1000; stroke-opacity:1; 
stroke-linecap:round; stroke-linejoin:round;">
<path d="M76.6611 52.5169
L76.3361 51.9540
" />
<path d="M76.0982 52.8419
L76.6611 52.5169
" />
</g>
<g style="fill:#000000; fill-opacity:0.0; 
stroke:#000000; stroke-width:0.1200; stroke-opacity:1; 
stroke-linecap:round; stroke-linejoin:round;">
<path d="M88.4634 63.6157
L88.2766 63.5079
" />
<path d="M88.8234 62.9921
L88.6366 62.8843
" />
</g>
<g style="fill:#000000; fill-opacity:0.0; 
stroke:#000000; stroke-width:0.1000; stroke-opacity:1; 
stroke-linecap:round; stroke-linejoin:round;">
<path d="M75.1889 66.6331
L74.8639 67.1960
" />
<path d="M75.7518 66.9581
L75.1889 66.6331
" />
<path d="M84.8111 53.3669
L85.1361 52.8040
" />
<path d="M84.2482 53.0419
L84.8111 53.3669
" />
</g>
<g style="fill:#000000; fill-opacity:0.0; 
stroke:#000000; stroke-width:0.1200; stroke-opacity:1; 
stroke-linecap:round; stroke-linejoin:round;">
<path d="M89.0636 62.0300
L88.7564 62.0300
" />
<path d="M89.0636 61.2700
L88.7564 61.2700
" />
<path d="M83.5657 51.5866
L83.4579 51.7734
" />
<path d="M82.9421 51.2266
L82.8343 51.4134
" />
<g >
</g>
<g >
</g>
<g >
</g>
<g >
</g>
<g >
</g>
<g >
</g>
<g >
</g>
<g >
</g>
<g >
</g>
<g >
</g>
<g >
</g>
<g >
</g>
<g >
</g>
<g >
</g>
<g >
</g>
<g >
</g>
<g >
</g>
<g >
</g>
<g >
</g>
<g >
</g>
<g >
</g>
<g >
</g>
<g >
</g>
<g >
</g>
<g >
</g>
<g >
</g>
<g >
</g>
<g >
</g>
<g >
</g>
<g >
</g>
<g >
</g>
<g >
</g>
<g >
</g>
<g >
</g>
<g >
</g>
</g>
<g style="fill:#FFFFFF; fill-opacity:0.0; 
stroke:#FFFFFF; stroke-width:0.1200; stroke-opacity:1; 
stroke-linecap:round; stroke-linejoin:round;">
</g>
<g style="fill:#FFFFFF; fill-opacity:1.0000; 
stroke:#FFFFFF; stroke-width:0.0000; stroke-opacity:1; 
stroke-linecap:round; stroke-linejoin:round;">
<circle cx="86.9500" cy="63.1500" r="0.2000" /> 
</g>
<g style="fill:#FFFFFF; fill-opacity:1.0000; 
stroke:#FFFFFF; stroke-width:0.0212; stroke-opacity:1; 
stroke-linecap:round; stroke-linejoin:round;">
</g>
<g style="fill:#FFFFFF; fill-opacity:1.0000; 
stroke:#FFFFFF; stroke-width:0.0000; stroke-opacity:1; 
stroke-linecap:round; stroke-linejoin:round;">
<circle cx="74.0000" cy="52.0000" r="0.2000" /> 
</g>
<g style="fill:#FFFFFF; fill-opacity:1.0000; 
stroke:#FFFFFF; stroke-width:0.0212; stroke-opacity:1; 
stroke-linecap:round; stroke-linejoin:round;">
</g>
<g style="fill:#FFFFFF; fill-opacity:1.0000; 
stroke:#FFFFFF; stroke-width:0.0000; stroke-opacity:1; 
stroke-linecap:round; stroke-linejoin:round;">
<circle cx="70.0718" cy="61.1962" r="0.2000" /> 
</g>
<g style="fill:#FFFFFF; fill-opacity:1.0000; 
stroke:#FFFFFF; stroke-width:0.0212; stroke-opacity:1; 
stroke-linecap:round; stroke-linejoin:round;">
</g>
<g style="fill:#FFFFFF; fill-opacity:1.0000; 
stroke:#FFFFFF; stroke-width:0.0000; stroke-opacity:1; 
stroke-linecap:round; stroke-linejoin:round;">
<circle cx="76.0718" cy="69.1962" r="0.2000" /> 
</g>
<g style="fill:#FFFFFF; fill-opacity:1.0000; 
stroke:#FFFFFF; stroke-width:0.0212; stroke-opacity:1; 
stroke-linecap:round; stroke-linejoin:round;">
</g>
<g style="fill:#FFFFFF; fill-opacity:1.0000; 
stroke:#FFFFFF; stroke-width:0.0000; stroke-opacity:1; 
stroke-linecap:round; stroke-linejoin:round;">
<circle cx="90.0795" cy="56.6500" r="0.2000" /> 
</g>
<g style="fill:#FFFFFF; fill-opacity:1.0000; 
stroke:#FFFFFF; stroke-width:0.0212; stroke-opacity:1; 
stroke-linecap:round; stroke-linejoin:round;">
</g>
<g style="fill:#FFFFFF; fill-opacity:1.0000; 
stroke:#FFFFFF; stroke-width:0.0000; stroke-opacity:1; 
stroke-linecap:round; stroke-linejoin:round;">
<circle cx="81.1962" cy="69.9282" r="0.2000" /> 
</g>
<g style="fill:#FFFFFF; fill-opacity:1.0000; 
stroke:#FFFFFF; stroke-width:0.0212; stroke-opacity:1; 
stroke-linecap:round; stroke-linejoin:round;">
</g>
<g style="fill:#FFFFFF; fill-opacity:1.0000; 
stroke:#FFFFFF; stroke-width:0.0000; stroke-opacity:1; 
stroke-linecap:round; stroke-linejoin:round;">
<circle cx="83.9282" cy="50.8038" r="0.2000" /> 
</g>
<g style="fill:#FFFFFF; fill-opacity:1.0000; 
stroke:#FFFFFF; stroke-width:0.0212; stroke-opacity:1; 
stroke-linecap:round; stroke-linejoin:round;">
</g>
<g style="fill:#FFFFFF; fill-opacity:1.0000; 
stroke:#FFFFFF; stroke-width:0.0000; stroke-opacity:1; 
stroke-linecap:round; stroke-linejoin:round;">
<circle cx="72.0000" cy="66.0000" r="0.2000" /> 
</g>
<g style="fill:#FFFFFF; fill-opacity:1.0000; 
stroke:#FFFFFF; stroke-width:0.0212; stroke-opacity:1; 
stroke-linecap:round; stroke-linejoin:round;">
</g>
<g style="fill:#FFFFFF; fill-opacity:1.0000; 
stroke:#FFFFFF; stroke-width:0.0000; stroke-opacity:1; 
stroke-linecap:round; stroke-linejoin:round;">
<circle cx="86.0000" cy="67.9400" r="0.2000" /> 
</g>
<g style="fill:#FFFFFF; fill-opacity:1.0000; 
stroke:#FFFFFF; stroke-width:0.0212; stroke-opacity:1; 
stroke-linecap:round; stroke-linejoin:round;">
</g>
<g style="fill:#FFFFFF; fill-opacity:1.0000; 
stroke:#FFFFFF; stroke-width:0.0000; stroke-opacity:1; 
stroke-linecap:round; stroke-linejoin:round;">
<circle cx="70.8038" cy="56.0718" r="0.2000" /> 
</g>
<g style="fill:#FFFFFF; fill-opacity:1.0000; 
stroke:#FFFFFF; stroke-width:0.0212; stroke-opacity:1; 
stroke-linecap:round; stroke-linejoin:round;">
</g>
<g style="fill:#FFFFFF; fill-opacity:1.0000; 
stroke:#FFFFFF; stroke-width:0.0000; stroke-opacity:1; 
stroke-linecap:round; stroke-linejoin:round;">
<circle cx="88.0000" cy="54.0000" r="0.2000" /> 
</g>
<g style="fill:#FFFFFF; fill-opacity:1.0000; 
stroke:#FFFFFF; stroke-width:0.0212; stroke-opacity:1; 
stroke-linecap:round; stroke-linejoin:round;">
</g>
<g style="fill:#FFFFFF; fill-opacity:1.0000; 
stroke:#FFFFFF; stroke-width:0.0000; stroke-opacity:1; 
stroke-linecap:round; stroke-linejoin:round;">
<circle cx="88.2600" cy="66.0200" r="0.2000" /> 
</g>
<g style="fill:#FFFFFF; fill-opacity:1.0000; 
stroke:#FFFFFF; stroke-width:0.0212; stroke-opacity:1; 
stroke-linecap:round; stroke-linejoin:round;">
</g>
<g style="fill:#FFFFFF; fill-opacity:1.0000; 
stroke:#FFFFFF; stroke-width:0.0000; stroke-opacity:1; 
stroke-linecap:round; stroke-linejoin:round;">
<circle cx="78.8038" cy="50.0718" r="0.2000" /> 
</g>
<g style="fill:#FFFFFF; fill-opacity:1.0000; 
stroke:#FFFFFF; stroke-width:0.0212; stroke-opacity:1; 
stroke-linecap:round; stroke-linejoin:round;">
</g>
<g style="fill:#FFFFFF; fill-opacity:1.0000; 
stroke:#FFFFFF; stroke-width:0.0000; stroke-opacity:1; 
stroke-linecap:round; stroke-linejoin:round;">
<circle cx="90.4000" cy="61.4000" r="0.2000" /> 
</g>
<g style="fill:#FFFFFF; fill-opacity:1.0000; 
stroke:#FFFFFF; stroke-width:0.0212; stroke-opacity:1; 
stroke-linecap:round; stroke-linejoin:round;">
</g>
<g style="fill:#FFFFFF; fill-opacity:1.0000; 
stroke:#FFFFFF; stroke-width:0.0000; stroke-opacity:1; 
stroke-linecap:round; stroke-linejoin:round;">
<circle cx="91.1500" cy="61.4000" r="0.2000" /> 
</g>
<g style="fill:#FFFFFF; fill-opacity:1.0000; 
stroke:#FFFFFF; stroke-width:0.0212; stroke-opacity:1; 
stroke-linecap:round; stroke-linejoin:round;">
</g>
<g style="fill:#FFFFFF; fill-opacity:1.0000; 
stroke:#FFFFFF; stroke-width:0.0000; stroke-opacity:1; 
stroke-linecap:round; stroke-linejoin:round;">
<circle cx="91.1500" cy="64.8500" r="0.2000" /> 
</g>
<g style="fill:#FFFFFF; fill-opacity:1.0000; 
stroke:#FFFFFF; stroke-width:0.0212; stroke-opacity:1; 
stroke-linecap:round; stroke-linejoin:round;">
</g>
<g style="fill:#FFFFFF; fill-opacity:1.0000; 
stroke:#FFFFFF; stroke-width:0.0000; stroke-opacity:1; 
stroke-linecap:round; stroke-linejoin:round;">
<circle cx="90.4000" cy="64.8500" r="0.2000" /> 
</g>
<g style="fill:#FFFFFF; fill-opacity:1.0000; 
stroke:#FFFFFF; stroke-width:0.0212; stroke-opacity:1; 
stroke-linecap:round; stroke-linejoin:round;">
</g>
<g style="fill:#FFFFFF; fill-opacity:1.0000; 
stroke:#FFFFFF; stroke-width:0.0000; stroke-opacity:1; 
stroke-linecap:round; stroke-linejoin:round;">
<circle cx="87.6982" cy="58.5518" r="0.2000" /> 
</g>
<g style="fill:#FFFFFF; fill-opacity:1.0000; 
stroke:#FFFFFF; stroke-width:0.0212; stroke-opacity:1; 
stroke-linecap:round; stroke-linejoin:round;">
</g>
<g style="fill:#FFFFFF; fill-opacity:1.0000; 
stroke:#FFFFFF; stroke-width:0.0000; stroke-opacity:1; 
stroke-linecap:round; stroke-linejoin:round;">
<circle cx="87.9100" cy="61.1500" r="0.2000" /> 
</g>
<g style="fill:#FFFFFF; fill-opacity:1.0000; 
stroke:#FFFFFF; stroke-width:0.0212; stroke-opacity:1; 
stroke-linecap:round; stroke-linejoin:round;">
</g>
<g style="fill:#000000; fill-opacity:1.0000; 
stroke:#000000; stroke-width:0.0212; stroke-opacity:1; 
stroke-linecap:round; stroke-linejoin:round;">
</g> 
</svg>
