<?xml version="1.0" standalone="no"?>
 <!DOCTYPE svg PUBLIC "-//W3C//DTD SVG 1.1//EN" 
 "http://www.w3.org/Graphics/SVG/1.1/DTD/svg11.dtd"> 
<svg
  xmlns:svg="http://www.w3.org/2000/svg"
  xmlns="http://www.w3.org/2000/svg"
  xmlns:xlink="http://www.w3.org/1999/xlink"
  version="1.1"
  width="297.0022mm" height="210.0072mm" viewBox="0.0000 0.0000 297.0022 210.0072">
<title>SVG Image created as pedalboard-led-ring-F_Mask.svg date 2023/10/17 18:24:49 </title>
  <desc>Image generated by PCBNEW </desc>
<g style="fill:#000000; fill-opacity:1.0000;stroke:#000000; stroke-opacity:1.0000;
stroke-linecap:round; stroke-linejoin:round;"
 transform="translate(0 0) scale(1 1)">
</g>
<g style="fill:#000000; fill-opacity:0.0; 
stroke:#000000; stroke-width:0.0000; stroke-opacity:1; 
stroke-linecap:round; stroke-linejoin:round;">
<g >
</g>
<g style="fill:#000000; fill-opacity:0.0; 
stroke:#000000; stroke-width:0.0000; stroke-opacity:1; 
stroke-linecap:round; stroke-linejoin:round;">
</g>
<g style="fill:#000000; fill-opacity:1.0000; 
stroke:#000000; stroke-width:0.0000; stroke-opacity:1; 
stroke-linecap:round; stroke-linejoin:round;">
<path style="fill:#000000; fill-opacity:1.0000; 
stroke:#000000; stroke-width:0.0000; stroke-opacity:1; 
stroke-linecap:round; stroke-linejoin:round;fill-rule:evenodd;"
d="M 84.6768,68.5004
84.2438,68.7504
83.9938,68.3174
84.4268,68.0674
Z" /> 
<path style="fill:#000000; fill-opacity:1.0000; 
stroke:#000000; stroke-width:0.0000; stroke-opacity:1; 
stroke-linecap:round; stroke-linejoin:round;fill-rule:evenodd;"
d="M 85.4562,68.0504
85.0232,68.3004
84.7732,67.8674
85.2062,67.6174
Z" /> 
<path style="fill:#000000; fill-opacity:1.0000; 
stroke:#000000; stroke-width:0.0000; stroke-opacity:1; 
stroke-linecap:round; stroke-linejoin:round;fill-rule:evenodd;"
d="M 85.0062,67.2710
84.5732,67.5210
84.3232,67.0880
84.7562,66.8380
Z" /> 
<path style="fill:#000000; fill-opacity:1.0000; 
stroke:#000000; stroke-width:0.0000; stroke-opacity:1; 
stroke-linecap:round; stroke-linejoin:round;fill-rule:evenodd;"
d="M 84.2268,67.7210
83.7938,67.9710
83.5438,67.5380
83.9768,67.2880
Z" /> 
</g>
<g >
</g>
<g style="fill:#000000; fill-opacity:1.0000; 
stroke:#000000; stroke-width:0.0000; stroke-opacity:1; 
stroke-linecap:round; stroke-linejoin:round;">
<path style="fill:#000000; fill-opacity:1.0000; 
stroke:#000000; stroke-width:0.0000; stroke-opacity:1; 
stroke-linecap:round; stroke-linejoin:round;fill-rule:evenodd;"
d="M 78.6000,50.3350
78.6383,50.3426
78.6707,50.3643
78.6924,50.3967
78.7000,50.4350
78.7000,50.8700
78.6924,50.9083
78.6707,50.9407
78.6383,50.9624
78.6000,50.9700
78.4000,50.9700
78.3617,50.9624
78.3293,50.9407
78.3076,50.9083
78.3000,50.8700
78.3000,50.4350
78.3076,50.3967
78.3293,50.3643
78.3617,50.3426
78.4000,50.3350
Z" /> 
<path style="fill:#000000; fill-opacity:1.0000; 
stroke:#000000; stroke-width:0.0000; stroke-opacity:1; 
stroke-linecap:round; stroke-linejoin:round;fill-rule:evenodd;"
d="M 78.6000,51.1500
78.6383,51.1576
78.6707,51.1793
78.6924,51.2117
78.7000,51.2500
78.7000,51.6850
78.6924,51.7233
78.6707,51.7557
78.6383,51.7774
78.6000,51.7850
78.4000,51.7850
78.3617,51.7774
78.3293,51.7557
78.3076,51.7233
78.3000,51.6850
78.3000,51.2500
78.3076,51.2117
78.3293,51.1793
78.3617,51.1576
78.4000,51.1500
Z" /> 
</g>
<g >
</g>
<g style="fill:#000000; fill-opacity:1.0000; 
stroke:#000000; stroke-width:0.0000; stroke-opacity:1; 
stroke-linecap:round; stroke-linejoin:round;">
<path style="fill:#000000; fill-opacity:1.0000; 
stroke:#000000; stroke-width:0.0000; stroke-opacity:1; 
stroke-linecap:round; stroke-linejoin:round;fill-rule:evenodd;"
d="M 73.9141,52.2549
73.9510,52.2423
73.9900,52.2449
74.0250,52.2621
74.0507,52.2915
74.2682,52.6682
74.2807,52.7051
74.2782,52.7441
74.2609,52.7791
74.2316,52.8048
74.0584,52.9048
74.0215,52.9173
73.9825,52.9148
73.9475,52.8975
73.9218,52.8682
73.7043,52.4915
73.6918,52.4545
73.6943,52.4156
73.7116,52.3806
73.7409,52.3549
Z" /> 
<path style="fill:#000000; fill-opacity:1.0000; 
stroke:#000000; stroke-width:0.0000; stroke-opacity:1; 
stroke-linecap:round; stroke-linejoin:round;fill-rule:evenodd;"
d="M 74.3216,52.9607
74.3585,52.9481
74.3975,52.9507
74.4325,52.9679
74.4582,52.9973
74.6757,53.3740
74.6882,53.4109
74.6857,53.4499
74.6684,53.4849
74.6391,53.5106
74.4659,53.6106
74.4290,53.6231
74.3900,53.6206
74.3550,53.6033
74.3293,53.5740
74.1118,53.1973
74.0993,53.1603
74.1018,53.1214
74.1191,53.0864
74.1484,53.0607
Z" /> 
</g>
<g >
</g>
<g style="fill:#000000; fill-opacity:1.0000; 
stroke:#000000; stroke-width:0.0000; stroke-opacity:1; 
stroke-linecap:round; stroke-linejoin:round;">
<path style="fill:#000000; fill-opacity:1.0000; 
stroke:#000000; stroke-width:0.0000; stroke-opacity:1; 
stroke-linecap:round; stroke-linejoin:round;fill-rule:evenodd;"
d="M 89.7000,60.2000
89.7000,60.7000
89.2000,60.7000
89.2000,60.2000
Z" /> 
<path style="fill:#000000; fill-opacity:1.0000; 
stroke:#000000; stroke-width:0.0000; stroke-opacity:1; 
stroke-linecap:round; stroke-linejoin:round;fill-rule:evenodd;"
d="M 89.7000,59.3000
89.7000,59.8000
89.2000,59.8000
89.2000,59.3000
Z" /> 
<path style="fill:#000000; fill-opacity:1.0000; 
stroke:#000000; stroke-width:0.0000; stroke-opacity:1; 
stroke-linecap:round; stroke-linejoin:round;fill-rule:evenodd;"
d="M 88.8000,59.3000
88.8000,59.8000
88.3000,59.8000
88.3000,59.3000
Z" /> 
<path style="fill:#000000; fill-opacity:1.0000; 
stroke:#000000; stroke-width:0.0000; stroke-opacity:1; 
stroke-linecap:round; stroke-linejoin:round;fill-rule:evenodd;"
d="M 88.8000,60.2000
88.8000,60.7000
88.3000,60.7000
88.3000,60.2000
Z" /> 
</g>
<g >
</g>
<g style="fill:#000000; fill-opacity:1.0000; 
stroke:#000000; stroke-width:0.0000; stroke-opacity:1; 
stroke-linecap:round; stroke-linejoin:round;">
<path style="fill:#000000; fill-opacity:1.0000; 
stroke:#000000; stroke-width:0.0000; stroke-opacity:1; 
stroke-linecap:round; stroke-linejoin:round;fill-rule:evenodd;"
d="M 80.2000,50.3000
80.7000,50.3000
80.7000,50.8000
80.2000,50.8000
Z" /> 
<path style="fill:#000000; fill-opacity:1.0000; 
stroke:#000000; stroke-width:0.0000; stroke-opacity:1; 
stroke-linecap:round; stroke-linejoin:round;fill-rule:evenodd;"
d="M 79.3000,50.3000
79.8000,50.3000
79.8000,50.8000
79.3000,50.8000
Z" /> 
<path style="fill:#000000; fill-opacity:1.0000; 
stroke:#000000; stroke-width:0.0000; stroke-opacity:1; 
stroke-linecap:round; stroke-linejoin:round;fill-rule:evenodd;"
d="M 79.3000,51.2000
79.8000,51.2000
79.8000,51.7000
79.3000,51.7000
Z" /> 
<path style="fill:#000000; fill-opacity:1.0000; 
stroke:#000000; stroke-width:0.0000; stroke-opacity:1; 
stroke-linecap:round; stroke-linejoin:round;fill-rule:evenodd;"
d="M 80.2000,51.2000
80.7000,51.2000
80.7000,51.7000
80.2000,51.7000
Z" /> 
</g>
<g >
</g>
<g style="fill:#000000; fill-opacity:1.0000; 
stroke:#000000; stroke-width:0.0000; stroke-opacity:1; 
stroke-linecap:round; stroke-linejoin:round;">
<path style="fill:#000000; fill-opacity:1.0000; 
stroke:#000000; stroke-width:0.0000; stroke-opacity:1; 
stroke-linecap:round; stroke-linejoin:round;fill-rule:evenodd;"
d="M 88.3004,65.0232
88.0504,65.4562
87.6174,65.2062
87.8674,64.7732
Z" /> 
<path style="fill:#000000; fill-opacity:1.0000; 
stroke:#000000; stroke-width:0.0000; stroke-opacity:1; 
stroke-linecap:round; stroke-linejoin:round;fill-rule:evenodd;"
d="M 88.7504,64.2438
88.5004,64.6768
88.0674,64.4268
88.3174,63.9938
Z" /> 
<path style="fill:#000000; fill-opacity:1.0000; 
stroke:#000000; stroke-width:0.0000; stroke-opacity:1; 
stroke-linecap:round; stroke-linejoin:round;fill-rule:evenodd;"
d="M 87.9710,63.7938
87.7210,64.2268
87.2880,63.9768
87.5380,63.5438
Z" /> 
<path style="fill:#000000; fill-opacity:1.0000; 
stroke:#000000; stroke-width:0.0000; stroke-opacity:1; 
stroke-linecap:round; stroke-linejoin:round;fill-rule:evenodd;"
d="M 87.5210,64.5732
87.2710,65.0062
86.8380,64.7562
87.0880,64.3232
Z" /> 
</g>
<g >
</g>
<g style="fill:#000000; fill-opacity:1.0000; 
stroke:#000000; stroke-width:0.0000; stroke-opacity:1; 
stroke-linecap:round; stroke-linejoin:round;">
<path style="fill:#000000; fill-opacity:1.0000; 
stroke:#000000; stroke-width:0.0000; stroke-opacity:1; 
stroke-linecap:round; stroke-linejoin:round;fill-rule:evenodd;"
d="M 71.4996,64.6768
71.2496,64.2438
71.6826,63.9938
71.9326,64.4268
Z" /> 
<path style="fill:#000000; fill-opacity:1.0000; 
stroke:#000000; stroke-width:0.0000; stroke-opacity:1; 
stroke-linecap:round; stroke-linejoin:round;fill-rule:evenodd;"
d="M 71.9496,65.4562
71.6996,65.0232
72.1326,64.7732
72.3826,65.2062
Z" /> 
<path style="fill:#000000; fill-opacity:1.0000; 
stroke:#000000; stroke-width:0.0000; stroke-opacity:1; 
stroke-linecap:round; stroke-linejoin:round;fill-rule:evenodd;"
d="M 72.7290,65.0062
72.4790,64.5732
72.9120,64.3232
73.1620,64.7562
Z" /> 
<path style="fill:#000000; fill-opacity:1.0000; 
stroke:#000000; stroke-width:0.0000; stroke-opacity:1; 
stroke-linecap:round; stroke-linejoin:round;fill-rule:evenodd;"
d="M 72.2790,64.2268
72.0290,63.7938
72.4620,63.5438
72.7120,63.9768
Z" /> 
</g>
<g >
</g>
<g style="fill:#000000; fill-opacity:1.0000; 
stroke:#000000; stroke-width:0.0000; stroke-opacity:1; 
stroke-linecap:round; stroke-linejoin:round;">
<path style="fill:#000000; fill-opacity:1.0000; 
stroke:#000000; stroke-width:0.0000; stroke-opacity:1; 
stroke-linecap:round; stroke-linejoin:round;fill-rule:evenodd;"
d="M 79.8000,69.7000
79.3000,69.7000
79.3000,69.2000
79.8000,69.2000
Z" /> 
<path style="fill:#000000; fill-opacity:1.0000; 
stroke:#000000; stroke-width:0.0000; stroke-opacity:1; 
stroke-linecap:round; stroke-linejoin:round;fill-rule:evenodd;"
d="M 80.7000,69.7000
80.2000,69.7000
80.2000,69.2000
80.7000,69.2000
Z" /> 
<path style="fill:#000000; fill-opacity:1.0000; 
stroke:#000000; stroke-width:0.0000; stroke-opacity:1; 
stroke-linecap:round; stroke-linejoin:round;fill-rule:evenodd;"
d="M 80.7000,68.8000
80.2000,68.8000
80.2000,68.3000
80.7000,68.3000
Z" /> 
<path style="fill:#000000; fill-opacity:1.0000; 
stroke:#000000; stroke-width:0.0000; stroke-opacity:1; 
stroke-linecap:round; stroke-linejoin:round;fill-rule:evenodd;"
d="M 79.8000,68.8000
79.3000,68.8000
79.3000,68.3000
79.8000,68.3000
Z" /> 
</g>
<g >
</g>
<g style="fill:#000000; fill-opacity:1.0000; 
stroke:#000000; stroke-width:0.0000; stroke-opacity:1; 
stroke-linecap:round; stroke-linejoin:round;">
<path style="fill:#000000; fill-opacity:1.0000; 
stroke:#000000; stroke-width:0.0000; stroke-opacity:1; 
stroke-linecap:round; stroke-linejoin:round;fill-rule:evenodd;"
d="M 70.3000,59.8000
70.3000,59.3000
70.8000,59.3000
70.8000,59.8000
Z" /> 
<path style="fill:#000000; fill-opacity:1.0000; 
stroke:#000000; stroke-width:0.0000; stroke-opacity:1; 
stroke-linecap:round; stroke-linejoin:round;fill-rule:evenodd;"
d="M 70.3000,60.7000
70.3000,60.2000
70.8000,60.2000
70.8000,60.7000
Z" /> 
<path style="fill:#000000; fill-opacity:1.0000; 
stroke:#000000; stroke-width:0.0000; stroke-opacity:1; 
stroke-linecap:round; stroke-linejoin:round;fill-rule:evenodd;"
d="M 71.2000,60.7000
71.2000,60.2000
71.7000,60.2000
71.7000,60.7000
Z" /> 
<path style="fill:#000000; fill-opacity:1.0000; 
stroke:#000000; stroke-width:0.0000; stroke-opacity:1; 
stroke-linecap:round; stroke-linejoin:round;fill-rule:evenodd;"
d="M 71.2000,59.8000
71.2000,59.3000
71.7000,59.3000
71.7000,59.8000
Z" /> 
</g>
<g >
</g>
<g style="fill:#000000; fill-opacity:1.0000; 
stroke:#000000; stroke-width:0.0000; stroke-opacity:1; 
stroke-linecap:round; stroke-linejoin:round;">
<path style="fill:#000000; fill-opacity:1.0000; 
stroke:#000000; stroke-width:0.0000; stroke-opacity:1; 
stroke-linecap:round; stroke-linejoin:round;fill-rule:evenodd;"
d="M 71.6996,54.9768
71.9496,54.5438
72.3826,54.7938
72.1326,55.2268
Z" /> 
<path style="fill:#000000; fill-opacity:1.0000; 
stroke:#000000; stroke-width:0.0000; stroke-opacity:1; 
stroke-linecap:round; stroke-linejoin:round;fill-rule:evenodd;"
d="M 71.2496,55.7562
71.4996,55.3232
71.9326,55.5732
71.6826,56.0062
Z" /> 
<path style="fill:#000000; fill-opacity:1.0000; 
stroke:#000000; stroke-width:0.0000; stroke-opacity:1; 
stroke-linecap:round; stroke-linejoin:round;fill-rule:evenodd;"
d="M 72.0290,56.2062
72.2790,55.7732
72.7120,56.0232
72.4620,56.4562
Z" /> 
<path style="fill:#000000; fill-opacity:1.0000; 
stroke:#000000; stroke-width:0.0000; stroke-opacity:1; 
stroke-linecap:round; stroke-linejoin:round;fill-rule:evenodd;"
d="M 72.4790,55.4268
72.7290,54.9938
73.1620,55.2438
72.9120,55.6768
Z" /> 
</g>
<g >
</g>
<g style="fill:#000000; fill-opacity:1.0000; 
stroke:#000000; stroke-width:0.0000; stroke-opacity:1; 
stroke-linecap:round; stroke-linejoin:round;">
<path style="fill:#000000; fill-opacity:1.0000; 
stroke:#000000; stroke-width:0.0000; stroke-opacity:1; 
stroke-linecap:round; stroke-linejoin:round;fill-rule:evenodd;"
d="M 70.2750,61.4000
70.2826,61.3617
70.3043,61.3293
70.3367,61.3076
70.3750,61.3000
70.8100,61.3000
70.8483,61.3076
70.8807,61.3293
70.9024,61.3617
70.9100,61.4000
70.9100,61.6000
70.9024,61.6383
70.8807,61.6707
70.8483,61.6924
70.8100,61.7000
70.3750,61.7000
70.3367,61.6924
70.3043,61.6707
70.2826,61.6383
70.2750,61.6000
Z" /> 
<path style="fill:#000000; fill-opacity:1.0000; 
stroke:#000000; stroke-width:0.0000; stroke-opacity:1; 
stroke-linecap:round; stroke-linejoin:round;fill-rule:evenodd;"
d="M 71.0900,61.4000
71.0976,61.3617
71.1193,61.3293
71.1517,61.3076
71.1900,61.3000
71.6250,61.3000
71.6633,61.3076
71.6957,61.3293
71.7174,61.3617
71.7250,61.4000
71.7250,61.6000
71.7174,61.6383
71.6957,61.6707
71.6633,61.6924
71.6250,61.7000
71.1900,61.7000
71.1517,61.6924
71.1193,61.6707
71.0976,61.6383
71.0900,61.6000
Z" /> 
</g>
<g >
</g>
<g style="fill:#000000; fill-opacity:1.0000; 
stroke:#000000; stroke-width:0.0000; stroke-opacity:1; 
stroke-linecap:round; stroke-linejoin:round;">
<path style="fill:#000000; fill-opacity:1.0000; 
stroke:#000000; stroke-width:0.0000; stroke-opacity:1; 
stroke-linecap:round; stroke-linejoin:round;fill-rule:evenodd;"
d="M 88.9125,57.4400
88.9364,57.4448
88.9567,57.4583
88.9702,57.4786
88.9750,57.5025
88.9750,57.7375
88.9702,57.7614
88.9567,57.7817
88.9364,57.7952
88.9125,57.8000
88.7875,57.8000
88.7636,57.7952
88.7433,57.7817
88.7298,57.7614
88.7250,57.7375
88.7250,57.5025
88.7298,57.4786
88.7433,57.4583
88.7636,57.4448
88.7875,57.4400
Z" /> 
<path style="fill:#000000; fill-opacity:1.0000; 
stroke:#000000; stroke-width:0.0000; stroke-opacity:1; 
stroke-linecap:round; stroke-linejoin:round;fill-rule:evenodd;"
d="M 88.9125,56.6000
88.9364,56.6048
88.9567,56.6183
88.9702,56.6386
88.9750,56.6625
88.9750,56.8975
88.9702,56.9214
88.9567,56.9417
88.9364,56.9552
88.9125,56.9600
88.7875,56.9600
88.7636,56.9552
88.7433,56.9417
88.7298,56.9214
88.7250,56.8975
88.7250,56.6625
88.7298,56.6386
88.7433,56.6183
88.7636,56.6048
88.7875,56.6000
Z" /> 
</g>
<g >
</g>
<g style="fill:#000000; fill-opacity:1.0000; 
stroke:#000000; stroke-width:0.0000; stroke-opacity:1; 
stroke-linecap:round; stroke-linejoin:round;">
<path style="fill:#000000; fill-opacity:1.0000; 
stroke:#000000; stroke-width:0.0000; stroke-opacity:1; 
stroke-linecap:round; stroke-linejoin:round;fill-rule:evenodd;"
d="M 72.3221,66.0259
72.3096,65.9890
72.3121,65.9500
72.3294,65.9150
72.3587,65.8893
72.7355,65.6718
72.7724,65.6593
72.8113,65.6618
72.8463,65.6791
72.8721,65.7084
72.9721,65.8816
72.9846,65.9185
72.9820,65.9575
72.9648,65.9925
72.9355,66.0182
72.5587,66.2357
72.5218,66.2482
72.4829,66.2457
72.4479,66.2284
72.4221,66.1991
Z" /> 
<path style="fill:#000000; fill-opacity:1.0000; 
stroke:#000000; stroke-width:0.0000; stroke-opacity:1; 
stroke-linecap:round; stroke-linejoin:round;fill-rule:evenodd;"
d="M 73.0279,65.6184
73.0154,65.5815
73.0180,65.5425
73.0352,65.5075
73.0645,65.4818
73.4413,65.2643
73.4782,65.2518
73.5171,65.2543
73.5521,65.2716
73.5779,65.3009
73.6779,65.4741
73.6904,65.5110
73.6879,65.5500
73.6706,65.5850
73.6413,65.6107
73.2645,65.8282
73.2276,65.8407
73.1887,65.8382
73.1537,65.8209
73.1279,65.7916
Z" /> 
</g>
<g >
</g>
<g style="fill:#000000; fill-opacity:1.0000; 
stroke:#000000; stroke-width:0.0000; stroke-opacity:1; 
stroke-linecap:round; stroke-linejoin:round;">
<path style="fill:#000000; fill-opacity:1.0000; 
stroke:#000000; stroke-width:0.0000; stroke-opacity:1; 
stroke-linecap:round; stroke-linejoin:round;fill-rule:evenodd;"
d="M 76.3509,69.0779
76.3216,69.0521
76.3043,69.0171
76.3018,68.9782
76.3143,68.9413
76.5318,68.5645
76.5575,68.5352
76.5925,68.5180
76.6315,68.5154
76.6684,68.5279
76.8416,68.6279
76.8709,68.6537
76.8882,68.6887
76.8907,68.7276
76.8782,68.7645
76.6607,69.1413
76.6350,69.1706
76.6000,69.1879
76.5610,69.1904
76.5241,69.1779
Z" /> 
<path style="fill:#000000; fill-opacity:1.0000; 
stroke:#000000; stroke-width:0.0000; stroke-opacity:1; 
stroke-linecap:round; stroke-linejoin:round;fill-rule:evenodd;"
d="M 76.7584,68.3721
76.7291,68.3463
76.7118,68.3113
76.7093,68.2724
76.7218,68.2355
76.9393,67.8587
76.9650,67.8294
77.0000,67.8121
77.0389,67.8096
77.0759,67.8221
77.2491,67.9221
77.2784,67.9479
77.2957,67.9829
77.2982,68.0218
77.2857,68.0587
77.0682,68.4355
77.0425,68.4648
77.0075,68.4820
76.9685,68.4846
76.9316,68.4721
Z" /> 
</g>
<g >
</g>
<g >
</g>
<g style="fill:#000000; fill-opacity:1.0000; 
stroke:#000000; stroke-width:0.0000; stroke-opacity:1; 
stroke-linecap:round; stroke-linejoin:round;">
<path style="fill:#000000; fill-opacity:1.0000; 
stroke:#000000; stroke-width:0.0000; stroke-opacity:1; 
stroke-linecap:round; stroke-linejoin:round;fill-rule:evenodd;"
d="M 86.0759,67.7451
86.0389,67.7577
86.0000,67.7551
85.9650,67.7379
85.9393,67.7085
85.7218,67.3318
85.7093,67.2949
85.7118,67.2559
85.7291,67.2209
85.7584,67.1952
85.9316,67.0952
85.9685,67.0827
86.0075,67.0852
86.0425,67.1025
86.0682,67.1318
86.2857,67.5085
86.2982,67.5455
86.2957,67.5844
86.2784,67.6194
86.2491,67.6451
Z" /> 
<path style="fill:#000000; fill-opacity:1.0000; 
stroke:#000000; stroke-width:0.0000; stroke-opacity:1; 
stroke-linecap:round; stroke-linejoin:round;fill-rule:evenodd;"
d="M 85.6684,67.0393
85.6315,67.0519
85.5925,67.0493
85.5575,67.0321
85.5318,67.0027
85.3143,66.6260
85.3018,66.5891
85.3043,66.5501
85.3216,66.5151
85.3509,66.4894
85.5241,66.3894
85.5610,66.3769
85.6000,66.3794
85.6350,66.3967
85.6607,66.4260
85.8782,66.8027
85.8907,66.8397
85.8882,66.8786
85.8709,66.9136
85.8416,66.9393
Z" /> 
</g>
<g >
</g>
<g style="fill:#000000; fill-opacity:1.0000; 
stroke:#000000; stroke-width:0.0000; stroke-opacity:1; 
stroke-linecap:round; stroke-linejoin:round;">
<path style="fill:#000000; fill-opacity:1.0000; 
stroke:#000000; stroke-width:0.0000; stroke-opacity:1; 
stroke-linecap:round; stroke-linejoin:round;fill-rule:evenodd;"
d="M 70.9221,56.3509
70.9479,56.3216
70.9829,56.3043
71.0218,56.3018
71.0587,56.3143
71.4355,56.5318
71.4648,56.5575
71.4820,56.5925
71.4846,56.6315
71.4721,56.6684
71.3721,56.8416
71.3463,56.8709
71.3113,56.8882
71.2724,56.8907
71.2355,56.8782
70.8587,56.6607
70.8294,56.6350
70.8121,56.6000
70.8096,56.5610
70.8221,56.5241
Z" /> 
<path style="fill:#000000; fill-opacity:1.0000; 
stroke:#000000; stroke-width:0.0000; stroke-opacity:1; 
stroke-linecap:round; stroke-linejoin:round;fill-rule:evenodd;"
d="M 71.6279,56.7584
71.6537,56.7291
71.6887,56.7118
71.7276,56.7093
71.7645,56.7218
72.1413,56.9393
72.1706,56.9650
72.1879,57.0000
72.1904,57.0389
72.1779,57.0759
72.0779,57.2491
72.0521,57.2784
72.0171,57.2957
71.9782,57.2982
71.9413,57.2857
71.5645,57.0682
71.5352,57.0425
71.5180,57.0075
71.5154,56.9686
71.5279,56.9316
Z" /> 
</g>
<g >
</g>
<g style="fill:#000000; fill-opacity:1.0000; 
stroke:#000000; stroke-width:0.0000; stroke-opacity:1; 
stroke-linecap:round; stroke-linejoin:round;">
<path style="fill:#000000; fill-opacity:1.0000; 
stroke:#000000; stroke-width:0.0000; stroke-opacity:1; 
stroke-linecap:round; stroke-linejoin:round;fill-rule:evenodd;"
d="M 81.4000,69.7550
81.3617,69.7474
81.3293,69.7257
81.3076,69.6933
81.3000,69.6550
81.3000,69.2200
81.3076,69.1817
81.3293,69.1493
81.3617,69.1276
81.4000,69.1200
81.6000,69.1200
81.6383,69.1276
81.6707,69.1493
81.6924,69.1817
81.7000,69.2200
81.7000,69.6550
81.6924,69.6933
81.6707,69.7257
81.6383,69.7474
81.6000,69.7550
Z" /> 
<path style="fill:#000000; fill-opacity:1.0000; 
stroke:#000000; stroke-width:0.0000; stroke-opacity:1; 
stroke-linecap:round; stroke-linejoin:round;fill-rule:evenodd;"
d="M 81.4000,68.9400
81.3617,68.9324
81.3293,68.9107
81.3076,68.8783
81.3000,68.8400
81.3000,68.4050
81.3076,68.3667
81.3293,68.3343
81.3617,68.3126
81.4000,68.3050
81.6000,68.3050
81.6383,68.3126
81.6707,68.3343
81.6924,68.3667
81.7000,68.4050
81.7000,68.8400
81.6924,68.8783
81.6707,68.9107
81.6383,68.9324
81.6000,68.9400
Z" /> 
</g>
<g >
</g>
<g style="fill:#000000; fill-opacity:1.0000; 
stroke:#000000; stroke-width:0.0000; stroke-opacity:1; 
stroke-linecap:round; stroke-linejoin:round;">
<path style="fill:#000000; fill-opacity:1.0000; 
stroke:#000000; stroke-width:0.0000; stroke-opacity:1; 
stroke-linecap:round; stroke-linejoin:round;fill-rule:evenodd;"
d="M 88.5004,55.3232
88.7504,55.7562
88.3174,56.0062
88.0674,55.5732
Z" /> 
<path style="fill:#000000; fill-opacity:1.0000; 
stroke:#000000; stroke-width:0.0000; stroke-opacity:1; 
stroke-linecap:round; stroke-linejoin:round;fill-rule:evenodd;"
d="M 88.0504,54.5438
88.3004,54.9768
87.8674,55.2268
87.6174,54.7938
Z" /> 
<path style="fill:#000000; fill-opacity:1.0000; 
stroke:#000000; stroke-width:0.0000; stroke-opacity:1; 
stroke-linecap:round; stroke-linejoin:round;fill-rule:evenodd;"
d="M 87.2710,54.9938
87.5210,55.4268
87.0880,55.6768
86.8380,55.2438
Z" /> 
<path style="fill:#000000; fill-opacity:1.0000; 
stroke:#000000; stroke-width:0.0000; stroke-opacity:1; 
stroke-linecap:round; stroke-linejoin:round;fill-rule:evenodd;"
d="M 87.7210,55.7732
87.9710,56.2062
87.5380,56.4562
87.2880,56.0232
Z" /> 
</g>
<g >
</g>
<g style="fill:#000000; fill-opacity:1.0000; 
stroke:#000000; stroke-width:0.0000; stroke-opacity:1; 
stroke-linecap:round; stroke-linejoin:round;">
<path style="fill:#000000; fill-opacity:1.0000; 
stroke:#000000; stroke-width:0.0000; stroke-opacity:1; 
stroke-linecap:round; stroke-linejoin:round;fill-rule:evenodd;"
d="M 88.4250,58.5000
88.4326,58.4617
88.4543,58.4293
88.4867,58.4076
88.5250,58.4000
88.9600,58.4000
88.9983,58.4076
89.0307,58.4293
89.0524,58.4617
89.0600,58.5000
89.0600,58.7000
89.0524,58.7383
89.0307,58.7707
88.9983,58.7924
88.9600,58.8000
88.5250,58.8000
88.4867,58.7924
88.4543,58.7707
88.4326,58.7383
88.4250,58.7000
Z" /> 
<path style="fill:#000000; fill-opacity:1.0000; 
stroke:#000000; stroke-width:0.0000; stroke-opacity:1; 
stroke-linecap:round; stroke-linejoin:round;fill-rule:evenodd;"
d="M 89.2400,58.5000
89.2476,58.4617
89.2693,58.4293
89.3017,58.4076
89.3400,58.4000
89.7750,58.4000
89.8133,58.4076
89.8457,58.4293
89.8674,58.4617
89.8750,58.5000
89.8750,58.7000
89.8674,58.7383
89.8457,58.7707
89.8133,58.7924
89.7750,58.8000
89.3400,58.8000
89.3017,58.7924
89.2693,58.7707
89.2476,58.7383
89.2400,58.7000
Z" /> 
</g>
<g >
</g>
<g style="fill:#000000; fill-opacity:1.0000; 
stroke:#000000; stroke-width:0.0000; stroke-opacity:1; 
stroke-linecap:round; stroke-linejoin:round;">
<path style="fill:#000000; fill-opacity:1.0000; 
stroke:#000000; stroke-width:0.0000; stroke-opacity:1; 
stroke-linecap:round; stroke-linejoin:round;fill-rule:evenodd;"
d="M 87.6779,53.9741
87.6904,54.0110
87.6879,54.0500
87.6706,54.0850
87.6413,54.1107
87.2645,54.3282
87.2276,54.3407
87.1887,54.3382
87.1537,54.3209
87.1279,54.2916
87.0279,54.1184
87.0154,54.0814
87.0180,54.0425
87.0352,54.0075
87.0645,53.9818
87.4413,53.7643
87.4782,53.7518
87.5171,53.7543
87.5521,53.7716
87.5779,53.8009
Z" /> 
<path style="fill:#000000; fill-opacity:1.0000; 
stroke:#000000; stroke-width:0.0000; stroke-opacity:1; 
stroke-linecap:round; stroke-linejoin:round;fill-rule:evenodd;"
d="M 86.9721,54.3816
86.9846,54.4185
86.9820,54.4575
86.9648,54.4925
86.9355,54.5182
86.5587,54.7357
86.5218,54.7482
86.4829,54.7457
86.4479,54.7284
86.4221,54.6991
86.3221,54.5259
86.3096,54.4889
86.3121,54.4500
86.3294,54.4150
86.3587,54.3893
86.7355,54.1718
86.7724,54.1593
86.8113,54.1618
86.8463,54.1791
86.8721,54.2084
Z" /> 
</g>
<g >
</g>
<g style="fill:#000000; fill-opacity:1.0000; 
stroke:#000000; stroke-width:0.0000; stroke-opacity:1; 
stroke-linecap:round; stroke-linejoin:round;">
<path style="fill:#000000; fill-opacity:1.0000; 
stroke:#000000; stroke-width:0.0000; stroke-opacity:1; 
stroke-linecap:round; stroke-linejoin:round;fill-rule:evenodd;"
d="M 75.3232,51.4996
75.7562,51.2496
76.0062,51.6826
75.5732,51.9326
Z" /> 
<path style="fill:#000000; fill-opacity:1.0000; 
stroke:#000000; stroke-width:0.0000; stroke-opacity:1; 
stroke-linecap:round; stroke-linejoin:round;fill-rule:evenodd;"
d="M 74.5438,51.9496
74.9768,51.6996
75.2268,52.1326
74.7938,52.3826
Z" /> 
<path style="fill:#000000; fill-opacity:1.0000; 
stroke:#000000; stroke-width:0.0000; stroke-opacity:1; 
stroke-linecap:round; stroke-linejoin:round;fill-rule:evenodd;"
d="M 74.9938,52.7290
75.4268,52.4790
75.6768,52.9120
75.2438,53.1620
Z" /> 
<path style="fill:#000000; fill-opacity:1.0000; 
stroke:#000000; stroke-width:0.0000; stroke-opacity:1; 
stroke-linecap:round; stroke-linejoin:round;fill-rule:evenodd;"
d="M 75.7732,52.2790
76.2062,52.0290
76.4562,52.4620
76.0232,52.7120
Z" /> 
</g>
<g >
</g>
<g style="fill:#000000; fill-opacity:1.0000; 
stroke:#000000; stroke-width:0.0000; stroke-opacity:1; 
stroke-linecap:round; stroke-linejoin:round;">
<path style="fill:#000000; fill-opacity:1.0000; 
stroke:#000000; stroke-width:0.0000; stroke-opacity:1; 
stroke-linecap:round; stroke-linejoin:round;fill-rule:evenodd;"
d="M 89.1279,63.6991
89.1021,63.7284
89.0671,63.7457
89.0282,63.7482
88.9913,63.7357
88.6145,63.5182
88.5852,63.4925
88.5680,63.4575
88.5654,63.4185
88.5779,63.3816
88.6779,63.2084
88.7037,63.1791
88.7387,63.1618
88.7776,63.1593
88.8145,63.1718
89.1913,63.3893
89.2206,63.4150
89.2379,63.4500
89.2404,63.4889
89.2279,63.5259
Z" /> 
<path style="fill:#000000; fill-opacity:1.0000; 
stroke:#000000; stroke-width:0.0000; stroke-opacity:1; 
stroke-linecap:round; stroke-linejoin:round;fill-rule:evenodd;"
d="M 88.4221,63.2916
88.3963,63.3209
88.3613,63.3382
88.3224,63.3407
88.2855,63.3282
87.9087,63.1107
87.8794,63.0850
87.8621,63.0500
87.8596,63.0110
87.8721,62.9741
87.9721,62.8009
87.9979,62.7716
88.0329,62.7543
88.0718,62.7518
88.1087,62.7643
88.4855,62.9818
88.5148,63.0075
88.5320,63.0425
88.5346,63.0814
88.5221,63.1184
Z" /> 
</g>
<g >
</g>
<g style="fill:#000000; fill-opacity:1.0000; 
stroke:#000000; stroke-width:0.0000; stroke-opacity:1; 
stroke-linecap:round; stroke-linejoin:round;">
<path style="fill:#000000; fill-opacity:1.0000; 
stroke:#000000; stroke-width:0.0000; stroke-opacity:1; 
stroke-linecap:round; stroke-linejoin:round;fill-rule:evenodd;"
d="M 74.9768,68.3004
74.5438,68.0504
74.7938,67.6174
75.2268,67.8674
Z" /> 
<path style="fill:#000000; fill-opacity:1.0000; 
stroke:#000000; stroke-width:0.0000; stroke-opacity:1; 
stroke-linecap:round; stroke-linejoin:round;fill-rule:evenodd;"
d="M 75.7562,68.7504
75.3232,68.5004
75.5732,68.0674
76.0062,68.3174
Z" /> 
<path style="fill:#000000; fill-opacity:1.0000; 
stroke:#000000; stroke-width:0.0000; stroke-opacity:1; 
stroke-linecap:round; stroke-linejoin:round;fill-rule:evenodd;"
d="M 76.2062,67.9710
75.7732,67.7210
76.0232,67.2880
76.4562,67.5380
Z" /> 
<path style="fill:#000000; fill-opacity:1.0000; 
stroke:#000000; stroke-width:0.0000; stroke-opacity:1; 
stroke-linecap:round; stroke-linejoin:round;fill-rule:evenodd;"
d="M 75.4268,67.5210
74.9938,67.2710
75.2438,66.8380
75.6768,67.0880
Z" /> 
</g>
<g >
</g>
<g style="fill:#000000; fill-opacity:1.0000; 
stroke:#000000; stroke-width:0.0000; stroke-opacity:1; 
stroke-linecap:round; stroke-linejoin:round;">
<path style="fill:#000000; fill-opacity:1.0000; 
stroke:#000000; stroke-width:0.0000; stroke-opacity:1; 
stroke-linecap:round; stroke-linejoin:round;fill-rule:evenodd;"
d="M 85.0232,51.6996
85.4562,51.9496
85.2062,52.3826
84.7732,52.1326
Z" /> 
<path style="fill:#000000; fill-opacity:1.0000; 
stroke:#000000; stroke-width:0.0000; stroke-opacity:1; 
stroke-linecap:round; stroke-linejoin:round;fill-rule:evenodd;"
d="M 84.2438,51.2496
84.6768,51.4996
84.4268,51.9326
83.9938,51.6826
Z" /> 
<path style="fill:#000000; fill-opacity:1.0000; 
stroke:#000000; stroke-width:0.0000; stroke-opacity:1; 
stroke-linecap:round; stroke-linejoin:round;fill-rule:evenodd;"
d="M 83.7938,52.0290
84.2268,52.2790
83.9768,52.7120
83.5438,52.4620
Z" /> 
<path style="fill:#000000; fill-opacity:1.0000; 
stroke:#000000; stroke-width:0.0000; stroke-opacity:1; 
stroke-linecap:round; stroke-linejoin:round;fill-rule:evenodd;"
d="M 84.5732,52.4790
85.0062,52.7290
84.7562,53.1620
84.3232,52.9120
Z" /> 
</g>
<g >
</g>
<g style="fill:#000000; fill-opacity:1.0000; 
stroke:#000000; stroke-width:0.0000; stroke-opacity:1; 
stroke-linecap:round; stroke-linejoin:round;">
<path style="fill:#000000; fill-opacity:1.0000; 
stroke:#000000; stroke-width:0.0000; stroke-opacity:1; 
stroke-linecap:round; stroke-linejoin:round;fill-rule:evenodd;"
d="M 89.6350,61.7500
89.6274,61.7883
89.6057,61.8207
89.5733,61.8424
89.5350,61.8500
89.1000,61.8500
89.0617,61.8424
89.0293,61.8207
89.0076,61.7883
89.0000,61.7500
89.0000,61.5500
89.0076,61.5117
89.0293,61.4793
89.0617,61.4576
89.1000,61.4500
89.5350,61.4500
89.5733,61.4576
89.6057,61.4793
89.6274,61.5117
89.6350,61.5500
Z" /> 
<path style="fill:#000000; fill-opacity:1.0000; 
stroke:#000000; stroke-width:0.0000; stroke-opacity:1; 
stroke-linecap:round; stroke-linejoin:round;fill-rule:evenodd;"
d="M 88.8200,61.7500
88.8124,61.7883
88.7907,61.8207
88.7583,61.8424
88.7200,61.8500
88.2850,61.8500
88.2467,61.8424
88.2143,61.8207
88.1926,61.7883
88.1850,61.7500
88.1850,61.5500
88.1926,61.5117
88.2143,61.4793
88.2467,61.4576
88.2850,61.4500
88.7200,61.4500
88.7583,61.4576
88.7907,61.4793
88.8124,61.5117
88.8200,61.5500
Z" /> 
</g>
<g >
</g>
<g style="fill:#000000; fill-opacity:1.0000; 
stroke:#000000; stroke-width:0.0000; stroke-opacity:1; 
stroke-linecap:round; stroke-linejoin:round;">
<path style="fill:#000000; fill-opacity:1.0000; 
stroke:#000000; stroke-width:0.0000; stroke-opacity:1; 
stroke-linecap:round; stroke-linejoin:round;fill-rule:evenodd;"
d="M 83.6491,50.9221
83.6784,50.9479
83.6957,50.9829
83.6982,51.0218
83.6857,51.0587
83.4682,51.4355
83.4425,51.4648
83.4075,51.4820
83.3685,51.4846
83.3316,51.4721
83.1584,51.3721
83.1291,51.3463
83.1118,51.3113
83.1093,51.2724
83.1218,51.2355
83.3393,50.8587
83.3650,50.8294
83.4000,50.8121
83.4389,50.8096
83.4759,50.8221
Z" /> 
<path style="fill:#000000; fill-opacity:1.0000; 
stroke:#000000; stroke-width:0.0000; stroke-opacity:1; 
stroke-linecap:round; stroke-linejoin:round;fill-rule:evenodd;"
d="M 83.2416,51.6279
83.2709,51.6537
83.2882,51.6887
83.2907,51.7276
83.2782,51.7645
83.0607,52.1413
83.0350,52.1706
83.0000,52.1879
82.9611,52.1904
82.9241,52.1779
82.7509,52.0779
82.7216,52.0521
82.7043,52.0171
82.7018,51.9782
82.7143,51.9413
82.9318,51.5645
82.9575,51.5352
82.9925,51.5180
83.0314,51.5154
83.0684,51.5279
Z" /> 
</g>
<g >
</g>
<g >
</g>
<g >
</g>
<g >
</g>
<g >
</g>
</g> 
</svg>
