<?xml version="1.0" standalone="no"?>
 <!DOCTYPE svg PUBLIC "-//W3C//DTD SVG 1.1//EN" 
 "http://www.w3.org/Graphics/SVG/1.1/DTD/svg11.dtd"> 
<svg
  xmlns:svg="http://www.w3.org/2000/svg"
  xmlns="http://www.w3.org/2000/svg"
  xmlns:xlink="http://www.w3.org/1999/xlink"
  version="1.1"
  width="297.0022mm" height="210.0072mm" viewBox="0.0000 0.0000 297.0022 210.0072">
<title>SVG Image created as pedalboard-led-ring-B_Cu.svg date 2024/01/08 21:37:52 </title>
  <desc>Image generated by PCBNEW </desc>
<g style="fill:#000000; fill-opacity:1.0000;stroke:#000000; stroke-opacity:1.0000;
stroke-linecap:round; stroke-linejoin:round;"
 transform="translate(0 0) scale(1 1)">
</g>
<g style="fill:#000000; fill-opacity:0.0; 
stroke:#000000; stroke-width:0.0000; stroke-opacity:1; 
stroke-linecap:round; stroke-linejoin:round;">
</g>
<g style="fill:#000000; fill-opacity:1.0000; 
stroke:#000000; stroke-width:0.0000; stroke-opacity:1; 
stroke-linecap:round; stroke-linejoin:round;">
<path style="fill:#000000; fill-opacity:1.0000; 
stroke:#000000; stroke-width:0.0000; stroke-opacity:1; 
stroke-linecap:round; stroke-linejoin:round;fill-rule:evenodd;"
d="M 86.1905,54.1987
85.7309,54.5843
85.4095,54.2013
85.8691,53.8157
Z" /> 
<g >
</g>
<g >
</g>
<g >
</g>
<g >
</g>
<g >
</g>
<g >
</g>
<g >
</g>
<g >
</g>
<g >
</g>
<g >
</g>
<g >
</g>
<g >
</g>
<g >
</g>
<g >
</g>
<g >
</g>
<g >
</g>
<g >
</g>
<g >
</g>
<g >
</g>
<g >
</g>
<g >
</g>
<g >
</g>
<g >
</g>
<g >
</g>
<g >
</g>
<g >
</g>
<g >
</g>
<g >
</g>
<g >
</g>
<g >
</g>
<g >
</g>
<g style="fill:#000000; fill-opacity:1.0000; 
stroke:#000000; stroke-width:0.0000; stroke-opacity:1; 
stroke-linecap:round; stroke-linejoin:round;">
<path style="fill:#000000; fill-opacity:1.0000; 
stroke:#000000; stroke-width:0.0000; stroke-opacity:1; 
stroke-linecap:round; stroke-linejoin:round;fill-rule:evenodd;"
d="M 91.5000,58.2500
90.5000,58.2500
90.5000,55.5000
91.5000,55.5000
Z" /> 
<path style="fill:#000000; fill-opacity:1.0000; 
stroke:#000000; stroke-width:0.0000; stroke-opacity:1; 
stroke-linecap:round; stroke-linejoin:round;fill-rule:evenodd;"
d="M 91.5000,64.5000
90.5000,64.5000
90.5000,61.7500
91.5000,61.7500
Z" /> 
<path style="fill:#000000; fill-opacity:1.0000; 
stroke:#000000; stroke-width:0.0000; stroke-opacity:1; 
stroke-linecap:round; stroke-linejoin:round;fill-rule:evenodd;"
d="M 89.5000,58.2500
88.5000,58.2500
88.5000,55.5000
89.5000,55.5000
Z" /> 
<path style="fill:#000000; fill-opacity:1.0000; 
stroke:#000000; stroke-width:0.0000; stroke-opacity:1; 
stroke-linecap:round; stroke-linejoin:round;fill-rule:evenodd;"
d="M 89.5000,64.5000
88.5000,64.5000
88.5000,61.7500
89.5000,61.7500
Z" /> 
</g>
<g >
</g>
<g style="fill:#000000; fill-opacity:1.0000; 
stroke:#000000; stroke-width:0.0000; stroke-opacity:1; 
stroke-linecap:round; stroke-linejoin:round;">
<path style="fill:#000000; fill-opacity:1.0000; 
stroke:#000000; stroke-width:0.0000; stroke-opacity:1; 
stroke-linecap:round; stroke-linejoin:round;fill-rule:evenodd;"
d="M 86.4710,53.8328
86.7923,54.2158
86.7884,54.2191
86.8342,54.2736
86.8912,54.4040
86.9093,54.5452
86.8868,54.6857
86.8256,54.8142
86.7307,54.9203
86.3477,55.2416
86.2268,55.3167
86.0896,55.3546
85.9473,55.3523
85.8114,55.3101
85.6929,55.2313
85.6472,55.1767
85.6433,55.1800
85.3219,54.7970
Z" /> 
<path style="fill:#000000; fill-opacity:1.0000; 
stroke:#000000; stroke-width:0.0000; stroke-opacity:1; 
stroke-linecap:round; stroke-linejoin:round;fill-rule:evenodd;"
d="M 84.8116,54.1809
84.7658,54.1264
84.7088,53.9960
84.6907,53.8548
84.7132,53.7143
84.7744,53.5858
84.8693,53.4797
85.2523,53.1584
85.3732,53.0833
85.5104,53.0454
85.6527,53.0477
85.7886,53.0899
85.9071,53.1687
85.9528,53.2233
85.9567,53.2200
86.2781,53.6030
85.1290,54.5672
84.8077,54.1842
Z" /> 
</g>
<g >
</g>
<g style="fill:#000000; fill-opacity:1.0000; 
stroke:#000000; stroke-width:0.0000; stroke-opacity:1; 
stroke-linecap:round; stroke-linejoin:round;">
<circle cx="86.9500" cy="63.1500" r="0.4000" /> 
</g>
<g style="fill:#000000; fill-opacity:1.0000; 
stroke:#000000; stroke-width:0.0212; stroke-opacity:1; 
stroke-linecap:round; stroke-linejoin:round;">
</g>
<g style="fill:#000000; fill-opacity:1.0000; 
stroke:#000000; stroke-width:0.0000; stroke-opacity:1; 
stroke-linecap:round; stroke-linejoin:round;">
<circle cx="74.0000" cy="52.0000" r="0.4000" /> 
</g>
<g style="fill:#000000; fill-opacity:1.0000; 
stroke:#000000; stroke-width:0.0212; stroke-opacity:1; 
stroke-linecap:round; stroke-linejoin:round;">
</g>
<g style="fill:#000000; fill-opacity:1.0000; 
stroke:#000000; stroke-width:0.0000; stroke-opacity:1; 
stroke-linecap:round; stroke-linejoin:round;">
<circle cx="70.0718" cy="61.1962" r="0.4000" /> 
</g>
<g style="fill:#000000; fill-opacity:1.0000; 
stroke:#000000; stroke-width:0.0212; stroke-opacity:1; 
stroke-linecap:round; stroke-linejoin:round;">
</g>
<g style="fill:#000000; fill-opacity:1.0000; 
stroke:#000000; stroke-width:0.0000; stroke-opacity:1; 
stroke-linecap:round; stroke-linejoin:round;">
<circle cx="76.0718" cy="69.1962" r="0.4000" /> 
</g>
<g style="fill:#000000; fill-opacity:1.0000; 
stroke:#000000; stroke-width:0.0212; stroke-opacity:1; 
stroke-linecap:round; stroke-linejoin:round;">
</g>
<g style="fill:#000000; fill-opacity:1.0000; 
stroke:#000000; stroke-width:0.0000; stroke-opacity:1; 
stroke-linecap:round; stroke-linejoin:round;">
<circle cx="90.0795" cy="56.6500" r="0.4000" /> 
</g>
<g style="fill:#000000; fill-opacity:1.0000; 
stroke:#000000; stroke-width:0.0212; stroke-opacity:1; 
stroke-linecap:round; stroke-linejoin:round;">
</g>
<g style="fill:#000000; fill-opacity:1.0000; 
stroke:#000000; stroke-width:0.0000; stroke-opacity:1; 
stroke-linecap:round; stroke-linejoin:round;">
<circle cx="81.1962" cy="69.9282" r="0.4000" /> 
</g>
<g style="fill:#000000; fill-opacity:1.0000; 
stroke:#000000; stroke-width:0.0212; stroke-opacity:1; 
stroke-linecap:round; stroke-linejoin:round;">
</g>
<g style="fill:#000000; fill-opacity:1.0000; 
stroke:#000000; stroke-width:0.0000; stroke-opacity:1; 
stroke-linecap:round; stroke-linejoin:round;">
<circle cx="83.9282" cy="50.8038" r="0.4000" /> 
</g>
<g style="fill:#000000; fill-opacity:1.0000; 
stroke:#000000; stroke-width:0.0212; stroke-opacity:1; 
stroke-linecap:round; stroke-linejoin:round;">
</g>
<g style="fill:#000000; fill-opacity:1.0000; 
stroke:#000000; stroke-width:0.0000; stroke-opacity:1; 
stroke-linecap:round; stroke-linejoin:round;">
<circle cx="72.0000" cy="66.0000" r="0.4000" /> 
</g>
<g style="fill:#000000; fill-opacity:1.0000; 
stroke:#000000; stroke-width:0.0212; stroke-opacity:1; 
stroke-linecap:round; stroke-linejoin:round;">
</g>
<g style="fill:#000000; fill-opacity:1.0000; 
stroke:#000000; stroke-width:0.0000; stroke-opacity:1; 
stroke-linecap:round; stroke-linejoin:round;">
<circle cx="86.0000" cy="67.9400" r="0.4000" /> 
</g>
<g style="fill:#000000; fill-opacity:1.0000; 
stroke:#000000; stroke-width:0.0212; stroke-opacity:1; 
stroke-linecap:round; stroke-linejoin:round;">
</g>
<g style="fill:#000000; fill-opacity:1.0000; 
stroke:#000000; stroke-width:0.0000; stroke-opacity:1; 
stroke-linecap:round; stroke-linejoin:round;">
<circle cx="70.8038" cy="56.0718" r="0.4000" /> 
</g>
<g style="fill:#000000; fill-opacity:1.0000; 
stroke:#000000; stroke-width:0.0212; stroke-opacity:1; 
stroke-linecap:round; stroke-linejoin:round;">
</g>
<g style="fill:#000000; fill-opacity:1.0000; 
stroke:#000000; stroke-width:0.0000; stroke-opacity:1; 
stroke-linecap:round; stroke-linejoin:round;">
<circle cx="88.0000" cy="54.0000" r="0.4000" /> 
</g>
<g style="fill:#000000; fill-opacity:1.0000; 
stroke:#000000; stroke-width:0.0212; stroke-opacity:1; 
stroke-linecap:round; stroke-linejoin:round;">
</g>
<g style="fill:#000000; fill-opacity:1.0000; 
stroke:#000000; stroke-width:0.0000; stroke-opacity:1; 
stroke-linecap:round; stroke-linejoin:round;">
<circle cx="88.2600" cy="66.0200" r="0.4000" /> 
</g>
<g style="fill:#000000; fill-opacity:1.0000; 
stroke:#000000; stroke-width:0.0212; stroke-opacity:1; 
stroke-linecap:round; stroke-linejoin:round;">
</g>
<g style="fill:#000000; fill-opacity:1.0000; 
stroke:#000000; stroke-width:0.0000; stroke-opacity:1; 
stroke-linecap:round; stroke-linejoin:round;">
<circle cx="78.8038" cy="50.0718" r="0.4000" /> 
</g>
<g style="fill:#000000; fill-opacity:1.0000; 
stroke:#000000; stroke-width:0.0212; stroke-opacity:1; 
stroke-linecap:round; stroke-linejoin:round;">
</g>
<g style="fill:#000000; fill-opacity:1.0000; 
stroke:#000000; stroke-width:0.0000; stroke-opacity:1; 
stroke-linecap:round; stroke-linejoin:round;">
<circle cx="90.4000" cy="61.4000" r="0.4000" /> 
</g>
<g style="fill:#000000; fill-opacity:1.0000; 
stroke:#000000; stroke-width:0.0212; stroke-opacity:1; 
stroke-linecap:round; stroke-linejoin:round;">
</g>
<g style="fill:#000000; fill-opacity:1.0000; 
stroke:#000000; stroke-width:0.0000; stroke-opacity:1; 
stroke-linecap:round; stroke-linejoin:round;">
<circle cx="91.1500" cy="61.4000" r="0.4000" /> 
</g>
<g style="fill:#000000; fill-opacity:1.0000; 
stroke:#000000; stroke-width:0.0212; stroke-opacity:1; 
stroke-linecap:round; stroke-linejoin:round;">
</g>
<g style="fill:#000000; fill-opacity:1.0000; 
stroke:#000000; stroke-width:0.0000; stroke-opacity:1; 
stroke-linecap:round; stroke-linejoin:round;">
<circle cx="91.1500" cy="64.8500" r="0.4000" /> 
</g>
<g style="fill:#000000; fill-opacity:1.0000; 
stroke:#000000; stroke-width:0.0212; stroke-opacity:1; 
stroke-linecap:round; stroke-linejoin:round;">
</g>
<g style="fill:#000000; fill-opacity:1.0000; 
stroke:#000000; stroke-width:0.0000; stroke-opacity:1; 
stroke-linecap:round; stroke-linejoin:round;">
<circle cx="90.4000" cy="64.8500" r="0.4000" /> 
</g>
<g style="fill:#000000; fill-opacity:1.0000; 
stroke:#000000; stroke-width:0.0212; stroke-opacity:1; 
stroke-linecap:round; stroke-linejoin:round;">
</g>
<g style="fill:#000000; fill-opacity:1.0000; 
stroke:#000000; stroke-width:0.0000; stroke-opacity:1; 
stroke-linecap:round; stroke-linejoin:round;">
<circle cx="87.6982" cy="58.5518" r="0.4000" /> 
</g>
<g style="fill:#000000; fill-opacity:1.0000; 
stroke:#000000; stroke-width:0.0212; stroke-opacity:1; 
stroke-linecap:round; stroke-linejoin:round;">
</g>
<g style="fill:#000000; fill-opacity:1.0000; 
stroke:#000000; stroke-width:0.0000; stroke-opacity:1; 
stroke-linecap:round; stroke-linejoin:round;">
<circle cx="87.9100" cy="61.1500" r="0.4000" /> 
</g>
<g style="fill:#000000; fill-opacity:1.0000; 
stroke:#000000; stroke-width:0.0212; stroke-opacity:1; 
stroke-linecap:round; stroke-linejoin:round;">
</g>
<g >
</g>
<g style="fill:#000000; fill-opacity:1.0000; 
stroke:#000000; stroke-width:0.0212; stroke-opacity:1; 
stroke-linecap:round; stroke-linejoin:round;">
</g>
<g style="fill:#000000; fill-opacity:1.0000; 
stroke:#000000; stroke-width:0.2500; stroke-opacity:1; 
stroke-linecap:round; stroke-linejoin:round;">
</g>
<g style="fill:#000000; fill-opacity:0.0; 
stroke:#000000; stroke-width:0.2500; stroke-opacity:1; 
stroke-linecap:round; stroke-linejoin:round;">
<path d="M86.9500 63.1500
L88.9750 63.1500
" />
<path d="M88.9750 63.1500
L89.0000 63.1250
" />
<path d="M91.0000 64.2500
L90.4000 64.8500
" />
<path d="M91.0000 64.7000
L91.1500 64.8500
" />
<path d="M91.1000 64.9000
L90.4000 64.9000
" />
<path d="M91.0000 63.1250
L91.0000 61.5500
" />
<path d="M91.0000 62.0000
L90.4000 61.4000
" />
<path d="M91.0000 61.5500
L91.1500 61.4000
" />
<path d="M91.0000 63.1250
L91.0000 64.7000
" />
<path d="M87.6982 58.5518
L87.6982 57.3982
" />
<path d="M86.0178 55.7178
L86.0178 54.6979
" />
<path d="M87.6982 57.3982
L86.0178 55.7178
" />
<path d="M87.9100 61.2000
L89.0000 61.2000
" />
<path d="M89.0000 61.2000
L89.0000 56.8750
" />
</g>
<g >
</g>
<g style="fill:#000000; fill-opacity:0.0; 
stroke:#000000; stroke-width:0.2500; stroke-opacity:1; 
stroke-linecap:round; stroke-linejoin:round;">
<g >
</g>
<g style="fill:#000000; fill-opacity:1.0000; 
stroke:#000000; stroke-width:0.0000; stroke-opacity:1; 
stroke-linecap:round; stroke-linejoin:round;">
<path style="fill:#000000; fill-opacity:1.0000; 
stroke:#000000; stroke-width:0.0000; stroke-opacity:1; 
stroke-linecap:round; stroke-linejoin:round;fill-rule:evenodd;"
d="M 80.3296,48.0095
80.6622,48.0191
80.6648,48.0192
80.6752,48.0201
81.0054,48.0471
81.2380,48.0673
81.3326,48.0755
81.3350,48.0758
81.3620,48.0795
81.6746,48.1224
81.9988,48.1693
82.0010,48.1697
82.3379,48.2348
82.6596,48.3006
82.9938,48.3843
83.2423,48.4502
83.3110,48.4684
83.6402,48.5702
83.9519,48.6724
84.2751,48.7920
84.5803,48.9119
84.8966,49.0491
85.1944,49.1863
85.5027,49.3405
85.7921,49.4946
86.0916,49.6654
86.2729,49.7758
86.3716,49.8360
86.6613,50.0228
86.9311,50.2092
87.0968,50.3294
87.2101,50.4115
87.4688,50.6132
87.7363,50.8304
87.9830,51.0466
88.2383,51.2781
88.4722,51.5083
88.7144,51.7532
88.9348,51.9966
89.1624,52.2534
89.1639,52.2552
89.3694,52.5102
89.5824,52.7787
89.5839,52.7807
89.7748,53.0477
89.9724,53.3267
89.9738,53.3289
90.1513,53.6099
90.3186,53.8759
90.3197,53.8785
90.3262,53.8881
90.3278,53.8907
90.3297,53.8938
90.3417,53.8992
91.9553,54.9709
91.9933,55.0188
91.9995,55.0534
91.9995,64.9519
91.9806,65.0101
91.9620,65.0295
91.8969,65.0812
91.8395,65.1026
91.7806,65.0862
91.7425,65.0383
91.7371,64.9908
91.7557,64.8500
91.7350,64.6932
91.6999,64.6084
91.6943,64.5512
91.7005,64.5197
91.7005,61.7303
91.7005,61.7302
91.7005,61.7302
91.6943,61.6988
91.6999,61.6416
91.7350,61.5568
91.7557,61.4000
91.7350,61.2432
91.7257,61.2207
91.6745,61.0972
91.6745,61.0972
91.5783,60.9717
91.5783,60.9717
91.5783,60.9717
91.5783,60.9717
91.5783,60.9717
91.4913,60.9050
91.4528,60.8755
91.4528,60.8755
91.4528,60.8755
91.3068,60.8150
91.3068,60.8150
91.1500,60.7943
91.1500,60.7943
90.9932,60.8150
90.9932,60.8150
90.8472,60.8755
90.8472,60.8755
90.8353,60.8846
90.7776,60.9050
90.7189,60.8876
90.7148,60.8846
90.7028,60.8755
90.5568,60.8150
90.5568,60.8150
90.5568,60.8150
90.4000,60.7943
90.4000,60.7943
90.2432,60.8150
90.2432,60.8150
90.0972,60.8755
90.0972,60.8755
89.9717,60.9717
89.9717,60.9717
89.8755,61.0972
89.8755,61.0972
89.8150,61.2432
89.8150,61.2432
89.7943,61.4000
89.7943,61.4000
89.8101,61.5199
89.7990,61.5801
89.7546,61.6222
89.6939,61.6302
89.6538,61.6091
89.6527,61.6109
89.5782,61.5611
89.5782,61.5611
89.5782,61.5611
89.5782,61.5611
89.5198,61.5495
89.5197,61.5495
89.3455,61.5495
89.2874,61.5306
89.2514,61.4811
89.2514,61.4199
89.2598,61.4010
89.2604,61.4000
89.2633,61.3949
89.2732,61.3808
89.2862,61.3653
89.2862,61.3653
89.2862,61.3653
89.2932,61.3462
89.3005,61.3306
89.3106,61.3130
89.3141,61.2931
89.3186,61.2764
89.3255,61.2574
89.3255,61.1426
89.3255,58.5495
89.3444,58.4913
89.3939,58.4553
89.4245,58.4505
89.5197,58.4505
89.5197,58.4505
89.5782,58.4389
89.6446,58.3946
89.6889,58.3282
89.6955,58.2948
90.2000,58.2948
90.2029,58.3199
90.2482,58.4225
90.3275,58.5018
90.4301,58.5471
90.4552,58.5500
90.8500,58.5500
90.8500,58.5500
91.1500,58.5500
91.1500,58.5500
91.5448,58.5500
91.5448,58.5500
91.5699,58.5471
91.6725,58.5018
91.7518,58.4225
91.7971,58.3199
91.8000,58.2948
91.8000,58.2948
91.8000,57.0250
91.8000,57.0250
91.1500,57.0250
91.1500,57.0250
91.1500,58.5500
90.8500,58.5500
90.8500,57.0250
90.8500,57.0250
90.2000,57.0250
90.2000,57.0250
90.2000,58.2948
89.6955,58.2948
89.7005,58.2697
89.7005,56.7250
90.2000,56.7250
90.2000,56.7250
90.8500,56.7250
90.8500,56.7250
91.1500,56.7250
91.1500,56.7250
91.8000,56.7250
91.8000,56.7250
91.8000,55.4552
91.8000,55.4552
91.7971,55.4301
91.7518,55.3275
91.6725,55.2482
91.5699,55.2029
91.5448,55.2000
91.1500,55.2000
91.1500,55.2000
91.1500,56.7250
90.8500,56.7250
90.8500,55.2000
90.8500,55.2000
90.4552,55.2000
90.4552,55.2000
90.4301,55.2029
90.3275,55.2482
90.2482,55.3275
90.2029,55.4301
90.2000,55.4552
90.2000,56.7250
89.7005,56.7250
89.7005,55.4803
89.6889,55.4218
89.6446,55.3554
89.6445,55.3554
89.5782,55.3111
89.5782,55.3111
89.5782,55.3111
89.5782,55.3111
89.5198,55.2995
89.5197,55.2995
88.4803,55.2995
88.4803,55.2995
88.4802,55.2995
88.4218,55.3111
88.4218,55.3111
88.3555,55.3554
88.3554,55.3555
88.3111,55.4218
88.3111,55.4218
88.2995,55.4802
88.2995,55.4803
88.2995,58.0576
88.2806,58.1158
88.2311,58.1518
88.1699,58.1518
88.1305,58.1276
88.1264,58.1236
88.0624,58.0744
88.0277,58.0240
88.0237,57.9959
88.0237,57.4145
88.0238,57.4102
88.0274,57.3693
88.0168,57.3297
88.0159,57.3255
88.0087,57.2851
88.0080,57.2838
87.9981,57.2599
87.9977,57.2585
87.9977,57.2585
87.9977,57.2585
87.9742,57.2249
87.9719,57.2212
87.9513,57.1857
87.9272,57.1654
87.9199,57.1593
87.9167,57.1564
86.4484,55.6880
86.4206,55.6335
86.4301,55.5731
86.4662,55.5339
86.5122,55.5054
86.5788,55.4494
86.5836,55.4441
86.5938,55.4342
86.8777,55.1960
86.8891,55.1877
86.8952,55.1840
86.9619,55.1280
87.0577,55.0209
87.1059,54.9484
87.1677,54.8186
87.1935,54.7355
87.1972,54.7125
87.2163,54.5936
87.2163,54.5936
87.2163,54.5936
87.2176,54.5065
87.1994,54.3639
87.1763,54.2801
87.1709,54.2678
87.1411,54.1998
87.1186,54.1483
87.1186,54.1483
87.1186,54.1483
87.0727,54.0744
87.0727,54.0744
87.0649,54.0650
87.0265,54.0193
86.9906,53.9765
86.7051,53.6363
86.6860,53.6155
86.6860,53.6155
86.6777,53.6099
86.5930,53.5525
86.5930,53.5525
86.5930,53.5525
86.4835,53.5274
86.4835,53.5274
86.3723,53.5435
86.2745,53.5986
85.9410,53.8784
85.9296,53.8867
85.9235,53.8905
85.9234,53.8905
85.8568,53.9464
85.8520,53.9518
85.8419,53.9616
85.5580,54.1998
85.5465,54.2081
85.5404,54.2119
85.5404,54.2119
85.4738,54.2678
85.4690,54.2732
85.4588,54.2830
85.2129,54.4894
85.1254,54.5628
85.1129,54.5743
85.1046,54.5819
85.1046,54.5819
85.0416,54.6750
85.0416,54.6750
85.0164,54.7844
85.0164,54.7844
85.0234,54.8325
85.0325,54.8956
85.0573,54.9396
85.0877,54.9935
85.3542,55.3111
85.3629,55.3215
85.4553,55.4316
85.4553,55.4316
85.4553,55.4316
85.5201,55.4896
85.5202,55.4896
85.5202,55.4896
85.5867,55.5339
85.6399,55.5693
85.6421,55.5705
85.6426,55.5711
85.6428,55.5712
85.6428,55.5712
85.6834,55.6157
85.6923,55.6567
85.6923,55.7014
85.6921,55.7057
85.6892,55.7387
85.6885,55.7466
85.6992,55.7862
85.7001,55.7905
85.7072,55.8309
85.7080,55.8322
85.7179,55.8560
85.7183,55.8575
85.7183,55.8575
85.7418,55.8911
85.7441,55.8947
85.7646,55.9303
85.7960,55.9566
85.7992,55.9595
87.3437,57.5040
87.3714,57.5585
87.3727,57.5740
87.3727,57.9959
87.3537,58.0541
87.3339,58.0744
87.2699,58.1236
87.1736,58.2490
87.1736,58.2490
87.1131,58.3951
87.1131,58.3951
87.0925,58.5518
87.0925,58.5518
87.1131,58.7086
87.1131,58.7086
87.1736,58.8547
87.1736,58.8547
87.2699,58.9801
87.2699,58.9801
87.3953,59.0764
87.3953,59.0764
87.3953,59.0764
87.5414,59.1369
87.5414,59.1369
87.6590,59.1524
87.6982,59.1575
87.6982,59.1575
87.6982,59.1575
87.7295,59.1534
87.8549,59.1369
88.0010,59.0764
88.1264,58.9801
88.2227,58.8547
88.2832,58.7086
88.3038,58.5518
88.3034,58.5487
88.3038,58.5465
88.3038,58.5454
88.3041,58.5454
88.3146,58.4886
88.3589,58.4464
88.4196,58.4384
88.4209,58.4387
88.4802,58.4505
88.4802,58.4505
88.4803,58.4505
88.5755,58.4505
88.6337,58.4694
88.6697,58.5189
88.6745,58.5495
88.6745,60.7755
88.6556,60.8337
88.6061,60.8697
88.5755,60.8745
88.5043,60.8745
88.4461,60.8556
88.4258,60.8358
88.3383,60.7217
88.3383,60.7217
88.3383,60.7217
88.2128,60.6255
88.0668,60.5650
88.0668,60.5650
87.9100,60.5443
87.9100,60.5443
87.7532,60.5650
87.7532,60.5650
87.6072,60.6255
87.6072,60.6255
87.4817,60.7217
87.4817,60.7217
87.3855,60.8472
87.3855,60.8472
87.3250,60.9932
87.3250,60.9932
87.3043,61.1500
87.3043,61.1500
87.3250,61.3068
87.3250,61.3068
87.3855,61.4528
87.3855,61.4528
87.4652,61.5568
87.4817,61.5783
87.6072,61.6745
87.6072,61.6745
87.6072,61.6745
87.7532,61.7350
87.7532,61.7350
87.8708,61.7505
87.9100,61.7557
87.9100,61.7557
87.9100,61.7557
87.9414,61.7516
88.0668,61.7350
88.1626,61.6953
88.2236,61.6905
88.2758,61.7225
88.2992,61.7790
88.2995,61.7868
88.2995,62.7255
88.2806,62.7837
88.2311,62.8197
88.2005,62.8245
87.5060,62.8245
87.4478,62.8056
87.4274,62.7858
87.3783,62.7217
87.3783,62.7217
87.3783,62.7217
87.3783,62.7217
87.2528,62.6255
87.1068,62.5650
87.1068,62.5650
86.9500,62.5443
86.9500,62.5443
86.7932,62.5650
86.7932,62.5650
86.6472,62.6255
86.6472,62.6255
86.5217,62.7217
86.5217,62.7217
86.4255,62.8472
86.4255,62.8472
86.3650,62.9932
86.3650,62.9932
86.3443,63.1500
86.3443,63.1500
86.3650,63.3068
86.3650,63.3068
86.4255,63.4528
86.4255,63.4528
86.4953,63.5439
86.5217,63.5783
86.5217,63.5783
86.5217,63.5783
86.5511,63.6008
86.6472,63.6745
86.7932,63.7350
86.9108,63.7505
86.9500,63.7557
86.9500,63.7557
86.9500,63.7557
86.9814,63.7516
87.1068,63.7350
87.2528,63.6745
87.3783,63.5783
87.4274,63.5142
87.4779,63.4796
87.5060,63.4755
88.2005,63.4755
88.2587,63.4944
88.2947,63.5439
88.2995,63.5745
88.2995,64.5197
88.2995,64.5198
88.3111,64.5782
88.3111,64.5782
88.3554,64.6445
88.3554,64.6446
88.4218,64.6889
88.4662,64.6977
88.4802,64.7005
88.4802,64.7005
88.4803,64.7005
88.4803,64.7005
89.5197,64.7005
89.5197,64.7005
89.5782,64.6889
89.6446,64.6446
89.6446,64.6446
89.6527,64.6391
89.6539,64.6410
89.6965,64.6194
89.7569,64.6289
89.8002,64.6722
89.8101,64.7301
89.7943,64.8500
89.7943,64.8500
89.8150,65.0068
89.8150,65.0068
89.8755,65.1528
89.8755,65.1528
89.8755,65.1528
89.9717,65.2783
90.0972,65.3745
90.2432,65.4350
90.3608,65.4505
90.4000,65.4557
90.4000,65.4557
90.4000,65.4557
90.4314,65.4516
90.5568,65.4350
90.7028,65.3745
90.7147,65.3654
90.7724,65.3450
90.8311,65.3624
90.8353,65.3654
90.8472,65.3745
90.9932,65.4350
91.1500,65.4557
91.1500,65.4557
91.1544,65.4563
91.2096,65.4826
91.2388,65.5364
91.2308,65.5970
91.2030,65.6320
90.0810,66.5226
90.0679,66.5288
90.0639,66.5350
90.0626,66.5368
90.0610,66.5394
89.8875,66.7909
89.6800,67.0907
89.6784,67.0928
89.4718,67.3596
89.2608,67.6293
89.2592,67.6312
89.0352,67.8896
88.8116,68.1433
88.8100,68.1450
88.5708,68.3919
88.3332,68.6316
88.0791,68.8664
87.8286,69.0912
87.5616,69.3119
87.2988,69.5213
87.0196,69.7272
86.7454,69.9206
86.4551,70.1109
86.1701,70.2879
85.8697,70.4619
85.5750,70.6219
85.2654,70.7790
84.9617,70.9215
84.6441,71.0613
84.3324,71.1859
84.0077,71.3078
83.6889,71.4141
83.3583,71.5178
83.0334,71.6053
82.6981,71.6905
82.3676,71.7591
82.0302,71.8252
82.0279,71.8256
81.6934,71.8749
81.3547,71.9219
81.3522,71.9222
81.0111,71.9522
80.6748,71.9802
80.6721,71.9803
80.3075,71.9910
80.0014,71.9995
79.9986,71.9995
79.3164,71.9800
79.3135,71.9798
78.7652,71.9327
78.6297,71.9209
78.6270,71.9205
78.1586,71.8532
77.9453,71.8220
77.9426,71.8215
77.5124,71.7343
77.2677,71.6838
77.2651,71.6832
76.8588,71.5764
76.5992,71.5068
76.5967,71.5061
76.2085,71.3799
75.9420,71.2916
75.9396,71.2908
75.5669,71.1457
75.2983,71.0390
75.2960,71.0380
75.0828,70.9406
74.9376,70.8743
74.6703,70.7496
74.6681,70.7486
74.3236,70.5668
74.2828,70.5448
74.0599,70.4246
74.0579,70.4235
73.7900,70.2619
73.7274,70.2242
73.4694,70.0650
73.4674,70.0637
73.1512,69.8475
72.9005,69.6720
72.8986,69.6706
72.5971,69.4381
72.3552,69.2468
72.3535,69.2454
72.0672,68.9973
71.8345,68.7903
71.5631,68.5265
71.3418,68.3052
71.1932,68.1433
71.0869,68.0274
70.8779,67.7926
70.6400,67.5016
70.4443,67.2542
70.2240,66.9509
70.0425,66.6917
69.8402,66.3769
69.6737,66.1069
69.4901,65.7818
69.3996,65.6142
69.3392,65.5020
69.3063,65.4350
69.1747,65.1674
69.0401,64.8788
68.8952,64.5359
68.7774,64.2394
68.7546,64.1755
68.6524,63.8892
68.5519,63.5859
68.5436,63.5575
68.4473,63.2295
68.3645,62.9207
68.2805,62.5591
68.2157,62.2457
68.2094,62.2091
68.1525,61.8801
68.1449,61.8283
68.1061,61.5633
68.0638,61.1949
68.0462,60.9932
68.0359,60.8758
68.0147,60.5056
68.0054,60.1853
68.0054,60.0000
73.8945,60.0000
73.9018,60.1803
73.9025,60.1967
73.9025,60.2457
73.9064,60.2946
73.9143,60.4913
73.9143,60.4913
73.9143,60.4913
73.9381,60.6867
73.9420,60.7356
73.9420,60.7356
73.9499,60.7840
73.9736,60.9794
74.0130,61.1722
74.0209,61.2206
74.0326,61.2683
74.0343,61.2764
74.0720,61.4611
74.0720,61.4611
74.1267,61.6502
74.1385,61.6978
74.1540,61.7443
74.1775,61.8255
74.2088,61.9334
74.2088,61.9334
74.2088,61.9334
74.2785,62.1174
74.2941,62.1640
74.2941,62.1640
74.3133,62.2091
74.3831,62.3931
74.3831,62.3931
74.4329,62.4980
74.4675,62.5710
74.4867,62.6161
74.5095,62.6595
74.5939,62.8373
74.6923,63.0078
74.7151,63.0512
74.7413,63.0927
74.8116,63.2145
74.8397,63.2632
74.8397,63.2632
74.8397,63.2632
74.9515,63.4251
74.9778,63.4666
74.9778,63.4666
75.0072,63.5058
75.1190,63.6678
75.1519,63.7080
75.2435,63.8203
75.2730,63.8595
75.2922,63.8811
75.3055,63.8962
75.4300,64.0487
75.5664,64.1906
75.5989,64.2273
75.6342,64.2613
75.7706,64.4033
75.9179,64.5338
75.9533,64.5678
75.9913,64.5988
76.0742,64.6722
76.1386,64.7293
76.1386,64.7293
76.2960,64.8476
76.2990,64.8500
76.3340,64.8786
76.3340,64.8786
76.3744,64.9064
76.4037,64.9285
76.5317,65.0247
76.6981,65.1299
76.7384,65.1578
76.7809,65.1823
76.9473,65.2875
77.1216,65.3790
77.1640,65.4035
77.2084,65.4245
77.2284,65.4350
77.3826,65.5160
77.3826,65.5160
77.3826,65.5160
77.3826,65.5160
77.5637,65.5931
77.6080,65.6142
77.6539,65.6315
77.8350,65.7087
77.8350,65.7087
77.8350,65.7087
77.8924,65.7279
78.0217,65.7710
78.0675,65.7884
78.0803,65.7921
78.1147,65.8021
78.3013,65.8644
78.3013,65.8644
78.3014,65.8644
78.3014,65.8644
78.4925,65.9115
78.5200,65.9195
78.5396,65.9252
78.5615,65.9296
78.5876,65.9350
78.7788,65.9821
78.7788,65.9821
78.7788,65.9821
78.7788,65.9821
78.8173,65.9883
78.9731,66.0136
79.0211,66.0234
79.0698,66.0294
79.1892,66.0488
79.2641,66.0609
79.3156,66.0651
79.4603,66.0768
79.5090,66.0827
79.5580,66.0847
79.7542,66.1005
79.7542,66.1005
79.9510,66.1005
80.0000,66.1025
80.0490,66.1005
80.2458,66.1005
80.2458,66.1005
80.4420,66.0847
80.4910,66.0827
80.5397,66.0768
80.6830,66.0652
80.7359,66.0609
80.8198,66.0473
80.9302,66.0294
80.9789,66.0234
81.0270,66.0136
81.2212,65.9821
81.4124,65.9350
81.4415,65.9290
81.4604,65.9252
81.4756,65.9207
81.5075,65.9115
81.6986,65.8644
81.6986,65.8644
81.6987,65.8644
81.6987,65.8644
81.7636,65.8427
81.8854,65.8021
81.8955,65.7991
81.9324,65.7884
81.9325,65.7884
81.9783,65.7710
82.1074,65.7279
82.1650,65.7087
82.1650,65.7087
82.1650,65.7087
82.3461,65.6315
82.3814,65.6182
82.3920,65.6142
82.4076,65.6067
82.4363,65.5931
82.6174,65.5160
82.6174,65.5160
82.6174,65.5160
82.6174,65.5160
82.7917,65.4245
82.8360,65.4035
82.8784,65.3790
83.0527,65.2875
83.2191,65.1823
83.2616,65.1578
83.3019,65.1299
83.3789,65.0812
83.4683,65.0247
83.4683,65.0247
83.4683,65.0247
83.5134,64.9908
83.6257,64.9064
83.6632,64.8805
83.6660,64.8786
83.7010,64.8500
83.7040,64.8476
83.8614,64.7293
83.8614,64.7293
83.8614,64.7293
83.9021,64.6932
84.0087,64.5988
84.0356,64.5769
84.0467,64.5678
84.0467,64.5678
84.0467,64.5678
84.0821,64.5338
84.2294,64.4033
84.2294,64.4033
84.2294,64.4033
84.3220,64.3068
84.3658,64.2613
84.3945,64.2337
84.4011,64.2273
84.4111,64.2161
84.4336,64.1906
84.5700,64.0487
84.5700,64.0487
84.5700,64.0487
84.6945,63.8962
84.7270,63.8595
84.7270,63.8595
84.7371,63.8461
84.7565,63.8203
84.8810,63.6678
84.9928,63.5058
85.0222,63.4666
85.0485,63.4251
85.1603,63.2632
85.1603,63.2632
85.1899,63.2118
85.2587,63.0927
85.2754,63.0663
85.2849,63.0512
85.3077,63.0078
85.3580,62.9206
85.4061,62.8373
85.4074,62.8346
85.4316,62.7837
85.4905,62.6595
85.5133,62.6161
85.5133,62.6161
85.5133,62.6161
85.5325,62.5710
85.6169,62.3931
85.6867,62.2091
85.7059,62.1640
85.7214,62.1175
85.7689,61.9924
85.7912,61.9334
85.8088,61.8728
85.8460,61.7443
85.8615,61.6978
85.8733,61.6502
85.9280,61.4611
85.9280,61.4611
85.9280,61.4611
85.9280,61.4611
85.9431,61.3874
85.9674,61.2682
85.9791,61.2207
85.9870,61.1723
86.0264,60.9794
86.0501,60.7840
86.0580,60.7356
86.0619,60.6867
86.0857,60.4913
86.0936,60.2946
86.0975,60.2457
86.0982,60.1804
86.1055,60.0000
86.0982,59.8196
86.0975,59.7543
86.0972,59.7503
86.0936,59.7054
86.0857,59.5087
86.0619,59.3133
86.0580,59.2644
86.0537,59.2383
86.0501,59.2160
86.0264,59.0206
85.9870,58.8277
85.9791,58.7794
85.9674,58.7318
85.9307,58.5518
85.9280,58.5389
85.9280,58.5389
85.9280,58.5389
85.9223,58.5189
85.8733,58.3498
85.8615,58.3022
85.8615,58.3022
85.8615,58.3022
85.8460,58.2557
85.7912,58.0666
85.7214,57.8826
85.7059,57.8360
85.7059,57.8360
85.7010,57.8246
85.6867,57.7909
85.6425,57.6743
85.6169,57.6069
85.6169,57.6069
85.6169,57.6069
85.5325,57.4290
85.5133,57.3839
85.5133,57.3839
85.4905,57.3405
85.4061,57.1627
85.4034,57.1579
85.3266,57.0250
85.3077,56.9922
85.2849,56.9488
85.2587,56.9073
85.1603,56.7368
85.0485,56.5749
85.0308,56.5470
85.0222,56.5334
85.0222,56.5334
84.9928,56.4942
84.8810,56.3322
84.7565,56.1797
84.7270,56.1405
84.7065,56.1173
84.6945,56.1038
84.5700,55.9513
84.4336,55.8094
84.4011,55.7727
84.4011,55.7727
84.3658,55.7387
84.3657,55.7387
84.2294,55.5967
84.2266,55.5942
84.0821,55.4662
84.0799,55.4641
84.0467,55.4322
84.0087,55.4012
83.9187,55.3215
83.8614,55.2707
83.8614,55.2707
83.8614,55.2707
83.7510,55.1877
83.7040,55.1524
83.6741,55.1280
83.6660,55.1214
83.6256,55.0935
83.5262,55.0188
83.4683,54.9753
83.4683,54.9753
83.4683,54.9753
83.3019,54.8701
83.2616,54.8423
83.2191,54.8177
83.0891,54.7355
83.0527,54.7125
83.0527,54.7125
83.0527,54.7125
83.0527,54.7125
82.8784,54.6211
82.8623,54.6117
82.8360,54.5965
82.8360,54.5965
82.8359,54.5965
82.7916,54.5755
82.6174,54.4840
82.6174,54.4840
82.6174,54.4840
82.4363,54.4069
82.4176,54.3980
82.3920,54.3858
82.3920,54.3858
82.3920,54.3858
82.3461,54.3685
82.3086,54.3525
82.1650,54.2913
82.1650,54.2913
82.1650,54.2913
82.1650,54.2913
81.9783,54.2290
81.9325,54.2116
81.9325,54.2116
81.8853,54.1979
81.6986,54.1356
81.5075,54.0885
81.4604,54.0749
81.4604,54.0749
81.4604,54.0749
81.4124,54.0650
81.3602,54.0522
81.2212,54.0179
81.2212,54.0179
81.2212,54.0179
81.0270,53.9864
80.9789,53.9765
80.9302,53.9706
80.7359,53.9391
80.5397,53.9232
80.4911,53.9173
80.4911,53.9173
80.4910,53.9173
80.4691,53.9164
80.4420,53.9153
80.3288,53.9062
80.2458,53.8995
80.0490,53.8995
80.0000,53.8975
79.9510,53.8995
79.7542,53.8995
79.6805,53.9054
79.5580,53.9153
79.5311,53.9164
79.5090,53.9173
79.5089,53.9173
79.5089,53.9173
79.5089,53.9173
79.4603,53.9232
79.2641,53.9391
79.0698,53.9706
79.0211,53.9765
79.0211,53.9765
79.0211,53.9765
79.0058,53.9797
78.9730,53.9864
78.7788,54.0179
78.7788,54.0179
78.7788,54.0179
78.7551,54.0238
78.5876,54.0650
78.5581,54.0711
78.5396,54.0749
78.5396,54.0749
78.5396,54.0749
78.4925,54.0885
78.3014,54.1356
78.1147,54.1979
78.0675,54.2116
78.0217,54.2290
77.8350,54.2913
77.8350,54.2913
77.6539,54.3685
77.6080,54.3858
77.6080,54.3858
77.5637,54.4069
77.4610,54.4506
77.3826,54.4840
77.3826,54.4840
77.3826,54.4840
77.2084,54.5755
77.1640,54.5965
77.1640,54.5965
77.1216,54.6211
77.0291,54.6696
76.9473,54.7125
76.9473,54.7125
76.7809,54.8177
76.7384,54.8422
76.7384,54.8422
76.6981,54.8701
76.5317,54.9753
76.5317,54.9753
76.3744,55.0935
76.3340,55.1214
76.3340,55.1214
76.2960,55.1524
76.1386,55.2707
75.9913,55.4012
75.9533,55.4322
75.9179,55.4662
75.8737,55.5054
75.7734,55.5942
75.7706,55.5967
75.6342,55.7387
75.5989,55.7727
75.5664,55.8094
75.5021,55.8763
75.4300,55.9513
75.4300,55.9513
75.4300,55.9513
75.3055,56.1038
75.2730,56.1405
75.2435,56.1797
75.1621,56.2795
75.1190,56.3322
75.0211,56.4740
75.0072,56.4942
74.9778,56.5334
74.9778,56.5334
74.9515,56.5749
74.8397,56.7368
74.8204,56.7704
74.7413,56.9073
74.7151,56.9488
74.6923,56.9922
74.5939,57.1627
74.5095,57.3405
74.4951,57.3679
74.4867,57.3839
74.4867,57.3839
74.4675,57.4290
74.3831,57.6069
74.3133,57.7909
74.3133,57.7909
74.2941,57.8360
74.2867,57.8581
74.2785,57.8826
74.2088,58.0666
74.2088,58.0666
74.1540,58.2557
74.1385,58.3022
74.1267,58.3498
74.0777,58.5189
74.0720,58.5389
74.0717,58.5403
74.0326,58.7317
74.0209,58.7793
74.0209,58.7794
74.0209,58.7794
74.0130,58.8278
73.9736,59.0206
73.9499,59.2160
73.9420,59.2644
73.9381,59.3133
73.9143,59.5087
73.9143,59.5087
73.9143,59.5092
73.9064,59.7054
73.9025,59.7543
73.9025,59.7543
73.9025,59.8033
73.8945,60.0000
68.0054,60.0000
68.0054,59.8147
68.0057,59.8033
68.0147,59.4944
68.0359,59.1242
68.0638,58.8051
68.1061,58.4367
68.1525,58.1199
68.2157,57.7543
68.2805,57.4409
68.3645,57.0794
68.4473,56.7705
68.5519,56.4140
68.5791,56.3322
68.6524,56.1108
68.7774,55.7606
68.8952,55.4642
69.0401,55.1212
69.1747,54.8326
69.3392,54.4980
69.4900,54.2182
69.6737,53.8930
69.8402,53.6231
70.0251,53.3353
70.0425,53.3083
70.2240,53.0491
70.2250,53.0477
70.4443,52.7458
70.6400,52.4984
70.8779,52.2074
71.0868,51.9726
71.3419,51.6948
71.5631,51.4735
71.8345,51.2097
72.0671,51.0027
72.3535,50.7546
72.3552,50.7532
72.5971,50.5620
72.8987,50.3293
72.9004,50.3281
73.1512,50.1525
73.4674,49.9362
73.4693,49.9350
73.7273,49.7759
74.0580,49.5765
74.0598,49.5754
74.3236,49.4332
74.6681,49.2514
74.6702,49.2504
74.9376,49.1257
75.2960,48.9620
75.2983,48.9610
75.5668,48.8544
75.9396,48.7092
75.9420,48.7084
76.2084,48.6201
76.5967,48.4939
76.5992,48.4932
76.8587,48.4236
77.2651,48.3168
77.2677,48.3162
77.5122,48.2657
77.9427,48.1785
77.9453,48.1780
78.1585,48.1468
78.6271,48.0794
78.6297,48.0791
78.7646,48.0673
79.3136,48.0202
79.3164,48.0200
79.6961,48.0092
79.9986,48.0005
80.0014,48.0005
Z" /> 
</g>
</g>
</g>
<g style="fill:#FFFFFF; fill-opacity:1.0000; 
stroke:#FFFFFF; stroke-width:0.0000; stroke-opacity:1; 
stroke-linecap:round; stroke-linejoin:round;">
<circle cx="86.9500" cy="63.1500" r="0.2000" /> 
</g>
<g style="fill:#FFFFFF; fill-opacity:1.0000; 
stroke:#FFFFFF; stroke-width:0.0212; stroke-opacity:1; 
stroke-linecap:round; stroke-linejoin:round;">
</g>
<g style="fill:#FFFFFF; fill-opacity:1.0000; 
stroke:#FFFFFF; stroke-width:0.0000; stroke-opacity:1; 
stroke-linecap:round; stroke-linejoin:round;">
<circle cx="74.0000" cy="52.0000" r="0.2000" /> 
</g>
<g style="fill:#FFFFFF; fill-opacity:1.0000; 
stroke:#FFFFFF; stroke-width:0.0212; stroke-opacity:1; 
stroke-linecap:round; stroke-linejoin:round;">
</g>
<g style="fill:#FFFFFF; fill-opacity:1.0000; 
stroke:#FFFFFF; stroke-width:0.0000; stroke-opacity:1; 
stroke-linecap:round; stroke-linejoin:round;">
<circle cx="70.0718" cy="61.1962" r="0.2000" /> 
</g>
<g style="fill:#FFFFFF; fill-opacity:1.0000; 
stroke:#FFFFFF; stroke-width:0.0212; stroke-opacity:1; 
stroke-linecap:round; stroke-linejoin:round;">
</g>
<g style="fill:#FFFFFF; fill-opacity:1.0000; 
stroke:#FFFFFF; stroke-width:0.0000; stroke-opacity:1; 
stroke-linecap:round; stroke-linejoin:round;">
<circle cx="76.0718" cy="69.1962" r="0.2000" /> 
</g>
<g style="fill:#FFFFFF; fill-opacity:1.0000; 
stroke:#FFFFFF; stroke-width:0.0212; stroke-opacity:1; 
stroke-linecap:round; stroke-linejoin:round;">
</g>
<g style="fill:#FFFFFF; fill-opacity:1.0000; 
stroke:#FFFFFF; stroke-width:0.0000; stroke-opacity:1; 
stroke-linecap:round; stroke-linejoin:round;">
<circle cx="90.0795" cy="56.6500" r="0.2000" /> 
</g>
<g style="fill:#FFFFFF; fill-opacity:1.0000; 
stroke:#FFFFFF; stroke-width:0.0212; stroke-opacity:1; 
stroke-linecap:round; stroke-linejoin:round;">
</g>
<g style="fill:#FFFFFF; fill-opacity:1.0000; 
stroke:#FFFFFF; stroke-width:0.0000; stroke-opacity:1; 
stroke-linecap:round; stroke-linejoin:round;">
<circle cx="81.1962" cy="69.9282" r="0.2000" /> 
</g>
<g style="fill:#FFFFFF; fill-opacity:1.0000; 
stroke:#FFFFFF; stroke-width:0.0212; stroke-opacity:1; 
stroke-linecap:round; stroke-linejoin:round;">
</g>
<g style="fill:#FFFFFF; fill-opacity:1.0000; 
stroke:#FFFFFF; stroke-width:0.0000; stroke-opacity:1; 
stroke-linecap:round; stroke-linejoin:round;">
<circle cx="83.9282" cy="50.8038" r="0.2000" /> 
</g>
<g style="fill:#FFFFFF; fill-opacity:1.0000; 
stroke:#FFFFFF; stroke-width:0.0212; stroke-opacity:1; 
stroke-linecap:round; stroke-linejoin:round;">
</g>
<g style="fill:#FFFFFF; fill-opacity:1.0000; 
stroke:#FFFFFF; stroke-width:0.0000; stroke-opacity:1; 
stroke-linecap:round; stroke-linejoin:round;">
<circle cx="72.0000" cy="66.0000" r="0.2000" /> 
</g>
<g style="fill:#FFFFFF; fill-opacity:1.0000; 
stroke:#FFFFFF; stroke-width:0.0212; stroke-opacity:1; 
stroke-linecap:round; stroke-linejoin:round;">
</g>
<g style="fill:#FFFFFF; fill-opacity:1.0000; 
stroke:#FFFFFF; stroke-width:0.0000; stroke-opacity:1; 
stroke-linecap:round; stroke-linejoin:round;">
<circle cx="86.0000" cy="67.9400" r="0.2000" /> 
</g>
<g style="fill:#FFFFFF; fill-opacity:1.0000; 
stroke:#FFFFFF; stroke-width:0.0212; stroke-opacity:1; 
stroke-linecap:round; stroke-linejoin:round;">
</g>
<g style="fill:#FFFFFF; fill-opacity:1.0000; 
stroke:#FFFFFF; stroke-width:0.0000; stroke-opacity:1; 
stroke-linecap:round; stroke-linejoin:round;">
<circle cx="70.8038" cy="56.0718" r="0.2000" /> 
</g>
<g style="fill:#FFFFFF; fill-opacity:1.0000; 
stroke:#FFFFFF; stroke-width:0.0212; stroke-opacity:1; 
stroke-linecap:round; stroke-linejoin:round;">
</g>
<g style="fill:#FFFFFF; fill-opacity:1.0000; 
stroke:#FFFFFF; stroke-width:0.0000; stroke-opacity:1; 
stroke-linecap:round; stroke-linejoin:round;">
<circle cx="88.0000" cy="54.0000" r="0.2000" /> 
</g>
<g style="fill:#FFFFFF; fill-opacity:1.0000; 
stroke:#FFFFFF; stroke-width:0.0212; stroke-opacity:1; 
stroke-linecap:round; stroke-linejoin:round;">
</g>
<g style="fill:#FFFFFF; fill-opacity:1.0000; 
stroke:#FFFFFF; stroke-width:0.0000; stroke-opacity:1; 
stroke-linecap:round; stroke-linejoin:round;">
<circle cx="88.2600" cy="66.0200" r="0.2000" /> 
</g>
<g style="fill:#FFFFFF; fill-opacity:1.0000; 
stroke:#FFFFFF; stroke-width:0.0212; stroke-opacity:1; 
stroke-linecap:round; stroke-linejoin:round;">
</g>
<g style="fill:#FFFFFF; fill-opacity:1.0000; 
stroke:#FFFFFF; stroke-width:0.0000; stroke-opacity:1; 
stroke-linecap:round; stroke-linejoin:round;">
<circle cx="78.8038" cy="50.0718" r="0.2000" /> 
</g>
<g style="fill:#FFFFFF; fill-opacity:1.0000; 
stroke:#FFFFFF; stroke-width:0.0212; stroke-opacity:1; 
stroke-linecap:round; stroke-linejoin:round;">
</g>
<g style="fill:#FFFFFF; fill-opacity:1.0000; 
stroke:#FFFFFF; stroke-width:0.0000; stroke-opacity:1; 
stroke-linecap:round; stroke-linejoin:round;">
<circle cx="90.4000" cy="61.4000" r="0.2000" /> 
</g>
<g style="fill:#FFFFFF; fill-opacity:1.0000; 
stroke:#FFFFFF; stroke-width:0.0212; stroke-opacity:1; 
stroke-linecap:round; stroke-linejoin:round;">
</g>
<g style="fill:#FFFFFF; fill-opacity:1.0000; 
stroke:#FFFFFF; stroke-width:0.0000; stroke-opacity:1; 
stroke-linecap:round; stroke-linejoin:round;">
<circle cx="91.1500" cy="61.4000" r="0.2000" /> 
</g>
<g style="fill:#FFFFFF; fill-opacity:1.0000; 
stroke:#FFFFFF; stroke-width:0.0212; stroke-opacity:1; 
stroke-linecap:round; stroke-linejoin:round;">
</g>
<g style="fill:#FFFFFF; fill-opacity:1.0000; 
stroke:#FFFFFF; stroke-width:0.0000; stroke-opacity:1; 
stroke-linecap:round; stroke-linejoin:round;">
<circle cx="91.1500" cy="64.8500" r="0.2000" /> 
</g>
<g style="fill:#FFFFFF; fill-opacity:1.0000; 
stroke:#FFFFFF; stroke-width:0.0212; stroke-opacity:1; 
stroke-linecap:round; stroke-linejoin:round;">
</g>
<g style="fill:#FFFFFF; fill-opacity:1.0000; 
stroke:#FFFFFF; stroke-width:0.0000; stroke-opacity:1; 
stroke-linecap:round; stroke-linejoin:round;">
<circle cx="90.4000" cy="64.8500" r="0.2000" /> 
</g>
<g style="fill:#FFFFFF; fill-opacity:1.0000; 
stroke:#FFFFFF; stroke-width:0.0212; stroke-opacity:1; 
stroke-linecap:round; stroke-linejoin:round;">
</g>
<g style="fill:#FFFFFF; fill-opacity:1.0000; 
stroke:#FFFFFF; stroke-width:0.0000; stroke-opacity:1; 
stroke-linecap:round; stroke-linejoin:round;">
<circle cx="87.6982" cy="58.5518" r="0.2000" /> 
</g>
<g style="fill:#FFFFFF; fill-opacity:1.0000; 
stroke:#FFFFFF; stroke-width:0.0212; stroke-opacity:1; 
stroke-linecap:round; stroke-linejoin:round;">
</g>
<g style="fill:#FFFFFF; fill-opacity:1.0000; 
stroke:#FFFFFF; stroke-width:0.0000; stroke-opacity:1; 
stroke-linecap:round; stroke-linejoin:round;">
<circle cx="87.9100" cy="61.1500" r="0.2000" /> 
</g>
<g style="fill:#FFFFFF; fill-opacity:1.0000; 
stroke:#FFFFFF; stroke-width:0.0212; stroke-opacity:1; 
stroke-linecap:round; stroke-linejoin:round;">
</g>
<g style="fill:#000000; fill-opacity:1.0000; 
stroke:#000000; stroke-width:0.0212; stroke-opacity:1; 
stroke-linecap:round; stroke-linejoin:round;">
</g> 
</svg>
