<?xml version="1.0" standalone="no"?>
 <!DOCTYPE svg PUBLIC "-//W3C//DTD SVG 1.1//EN" 
 "http://www.w3.org/Graphics/SVG/1.1/DTD/svg11.dtd"> 
<svg
  xmlns:svg="http://www.w3.org/2000/svg"
  xmlns="http://www.w3.org/2000/svg"
  xmlns:xlink="http://www.w3.org/1999/xlink"
  version="1.1"
  width="297.0022mm" height="210.0072mm" viewBox="0.0000 0.0000 297.0022 210.0072">
<title>SVG Image created as pedalboard-led-ring-B_Silkscreen.svg date 2024/01/08 21:37:52 </title>
  <desc>Image generated by PCBNEW </desc>
<g style="fill:#000000; fill-opacity:1.0000;stroke:#000000; stroke-opacity:1.0000;
stroke-linecap:round; stroke-linejoin:round;"
 transform="translate(0 0) scale(1 1)">
</g>
<g style="fill:#000000; fill-opacity:0.0; 
stroke:#000000; stroke-width:0.0000; stroke-opacity:1; 
stroke-linecap:round; stroke-linejoin:round;">
</g>
<g style="fill:#000000; fill-opacity:0.0; 
stroke:#000000; stroke-width:0.1000; stroke-opacity:1; 
stroke-linecap:round; stroke-linejoin:round;">
<circle cx="80.0000" cy="60.0000" r="7.0500" /> 
<g transform="rotate(-90.000000 88.2700 55.2000)">
<text x="88.2700" y="55.2000"
transform="scale(-1 1) translate(-176.540000 0)"
textLength="0.9381" font-size="0.6667" lengthAdjust="spacingAndGlyphs"
text-anchor="start" opacity="0">DI</text>
</g>
<g class="stroked-text"><desc>DI</desc>
<path d="M88.2036 55.3848
L87.7036 55.3848
" />
<path d="M87.7036 55.3848
L87.7036 55.5039
" />
<path d="M87.7036 55.5039
L87.7274 55.5753
" />
<path d="M87.7274 55.5753
L87.7750 55.6229
" />
<path d="M87.7750 55.6229
L87.8227 55.6467
" />
<path d="M87.8227 55.6467
L87.9179 55.6705
" />
<path d="M87.9179 55.6705
L87.9893 55.6705
" />
<path d="M87.9893 55.6705
L88.0846 55.6467
" />
<path d="M88.0846 55.6467
L88.1322 55.6229
" />
<path d="M88.1322 55.6229
L88.1798 55.5753
" />
<path d="M88.1798 55.5753
L88.2036 55.5039
" />
<path d="M88.2036 55.5039
L88.2036 55.3848
" />
<path d="M88.2036 55.8848
L87.7036 55.8848
" />
</g><g transform="rotate(-90.000000 88.2000 62.5000)">
<text x="88.2000" y="62.5000"
transform="scale(-1 1) translate(-176.400000 0)"
textLength="1.3514" font-size="0.8000" lengthAdjust="spacingAndGlyphs"
text-anchor="start" opacity="0">D0</text>
</g>
<g class="stroked-text"><desc>D0</desc>
<path d="M88.1214 62.7086
L87.5214 62.7086
" />
<path d="M87.5214 62.7086
L87.5214 62.8515
" />
<path d="M87.5214 62.8515
L87.5499 62.9372
" />
<path d="M87.5499 62.9372
L87.6071 62.9944
" />
<path d="M87.6071 62.9944
L87.6642 63.0229
" />
<path d="M87.6642 63.0229
L87.7785 63.0515
" />
<path d="M87.7785 63.0515
L87.8642 63.0515
" />
<path d="M87.8642 63.0515
L87.9785 63.0229
" />
<path d="M87.9785 63.0229
L88.0357 62.9944
" />
<path d="M88.0357 62.9944
L88.0928 62.9372
" />
<path d="M88.0928 62.9372
L88.1214 62.8515
" />
<path d="M88.1214 62.8515
L88.1214 62.7086
" />
<path d="M87.5214 63.4229
L87.5214 63.4801
" />
<path d="M87.5214 63.4801
L87.5499 63.5372
" />
<path d="M87.5499 63.5372
L87.5785 63.5658
" />
<path d="M87.5785 63.5658
L87.6357 63.5944
" />
<path d="M87.6357 63.5944
L87.7499 63.6229
" />
<path d="M87.7499 63.6229
L87.8928 63.6229
" />
<path d="M87.8928 63.6229
L88.0071 63.5944
" />
<path d="M88.0071 63.5944
L88.0642 63.5658
" />
<path d="M88.0642 63.5658
L88.0928 63.5372
" />
<path d="M88.0928 63.5372
L88.1214 63.4801
" />
<path d="M88.1214 63.4801
L88.1214 63.4229
" />
<path d="M88.1214 63.4229
L88.0928 63.3658
" />
<path d="M88.0928 63.3658
L88.0642 63.3372
" />
<path d="M88.0642 63.3372
L88.0071 63.3086
" />
<path d="M88.0071 63.3086
L87.8928 63.2801
" />
<path d="M87.8928 63.2801
L87.7499 63.2801
" />
<path d="M87.7499 63.2801
L87.6357 63.3086
" />
<path d="M87.6357 63.3086
L87.5785 63.3372
" />
<path d="M87.5785 63.3372
L87.5499 63.3658
" />
<path d="M87.5499 63.3658
L87.5214 63.4229
" />
</g><g transform="rotate(-90.000000 90.4000 62.3500)">
<text x="90.4000" y="62.3500"
transform="scale(-1 1) translate(-180.800000 0)"
textLength="2.0086" font-size="0.8000" lengthAdjust="spacingAndGlyphs"
text-anchor="start" opacity="0">GND</text>
</g>
<g class="stroked-text"><desc>GND</desc>
<path d="M89.7499 62.8729
L89.7214 62.8158
" />
<path d="M89.7214 62.8158
L89.7214 62.7301
" />
<path d="M89.7214 62.7301
L89.7499 62.6444
" />
<path d="M89.7499 62.6444
L89.8071 62.5872
" />
<path d="M89.8071 62.5872
L89.8642 62.5586
" />
<path d="M89.8642 62.5586
L89.9785 62.5301
" />
<path d="M89.9785 62.5301
L90.0642 62.5301
" />
<path d="M90.0642 62.5301
L90.1785 62.5586
" />
<path d="M90.1785 62.5586
L90.2357 62.5872
" />
<path d="M90.2357 62.5872
L90.2928 62.6444
" />
<path d="M90.2928 62.6444
L90.3214 62.7301
" />
<path d="M90.3214 62.7301
L90.3214 62.7872
" />
<path d="M90.3214 62.7872
L90.2928 62.8729
" />
<path d="M90.2928 62.8729
L90.2642 62.9015
" />
<path d="M90.2642 62.9015
L90.0642 62.9015
" />
<path d="M90.0642 62.9015
L90.0642 62.7872
" />
<path d="M90.3214 63.1586
L89.7214 63.1586
" />
<path d="M89.7214 63.1586
L90.3214 63.5015
" />
<path d="M90.3214 63.5015
L89.7214 63.5015
" />
<path d="M90.3214 63.7872
L89.7214 63.7872
" />
<path d="M89.7214 63.7872
L89.7214 63.9301
" />
<path d="M89.7214 63.9301
L89.7499 64.0158
" />
<path d="M89.7499 64.0158
L89.8071 64.0729
" />
<path d="M89.8071 64.0729
L89.8642 64.1015
" />
<path d="M89.8642 64.1015
L89.9785 64.1301
" />
<path d="M89.9785 64.1301
L90.0642 64.1301
" />
<path d="M90.0642 64.1301
L90.1785 64.1015
" />
<path d="M90.1785 64.1015
L90.2357 64.0729
" />
<path d="M90.2357 64.0729
L90.2928 64.0158
" />
<path d="M90.2928 64.0158
L90.3214 63.9301
" />
<path d="M90.3214 63.9301
L90.3214 63.7872
" />
</g><g transform="rotate(-90.000000 72.3400 59.9200)">
<text x="72.3400" y="59.9200"
transform="scale(-1 1) translate(-144.680000 0)"
textLength="16.9267" font-size="0.9333" lengthAdjust="spacingAndGlyphs"
text-anchor="middle" opacity="0">https://github.com/pedalboard</text>
</g>
<g class="stroked-text"><desc>https://github.com/pedalboard</desc>
<path d="M72.2491 51.7033
L71.5491 51.7033
" />
<path d="M72.2491 52.0033
L71.8825 52.0033
" />
<path d="M71.8825 52.0033
L71.8158 51.9700
" />
<path d="M71.8158 51.9700
L71.7825 51.9033
" />
<path d="M71.7825 51.9033
L71.7825 51.8033
" />
<path d="M71.7825 51.8033
L71.8158 51.7367
" />
<path d="M71.8158 51.7367
L71.8491 51.7033
" />
<path d="M71.7825 52.2367
L71.7825 52.5033
" />
<path d="M71.5491 52.3367
L72.1491 52.3367
" />
<path d="M72.1491 52.3367
L72.2158 52.3700
" />
<path d="M72.2158 52.3700
L72.2491 52.4367
" />
<path d="M72.2491 52.4367
L72.2491 52.5033
" />
<path d="M71.7825 52.6367
L71.7825 52.9033
" />
<path d="M71.5491 52.7367
L72.1491 52.7367
" />
<path d="M72.1491 52.7367
L72.2158 52.7700
" />
<path d="M72.2158 52.7700
L72.2491 52.8367
" />
<path d="M72.2491 52.8367
L72.2491 52.9033
" />
<path d="M71.7825 53.1367
L72.4825 53.1367
" />
<path d="M71.8158 53.1367
L71.7825 53.2033
" />
<path d="M71.7825 53.2033
L71.7825 53.3367
" />
<path d="M71.7825 53.3367
L71.8158 53.4033
" />
<path d="M71.8158 53.4033
L71.8491 53.4367
" />
<path d="M71.8491 53.4367
L71.9158 53.4700
" />
<path d="M71.9158 53.4700
L72.1158 53.4700
" />
<path d="M72.1158 53.4700
L72.1825 53.4367
" />
<path d="M72.1825 53.4367
L72.2158 53.4033
" />
<path d="M72.2158 53.4033
L72.2491 53.3367
" />
<path d="M72.2491 53.3367
L72.2491 53.2033
" />
<path d="M72.2491 53.2033
L72.2158 53.1367
" />
<path d="M72.2158 53.7367
L72.2491 53.8033
" />
<path d="M72.2491 53.8033
L72.2491 53.9367
" />
<path d="M72.2491 53.9367
L72.2158 54.0033
" />
<path d="M72.2158 54.0033
L72.1491 54.0367
" />
<path d="M72.1491 54.0367
L72.1158 54.0367
" />
<path d="M72.1158 54.0367
L72.0491 54.0033
" />
<path d="M72.0491 54.0033
L72.0158 53.9367
" />
<path d="M72.0158 53.9367
L72.0158 53.8367
" />
<path d="M72.0158 53.8367
L71.9825 53.7700
" />
<path d="M71.9825 53.7700
L71.9158 53.7367
" />
<path d="M71.9158 53.7367
L71.8825 53.7367
" />
<path d="M71.8825 53.7367
L71.8158 53.7700
" />
<path d="M71.8158 53.7700
L71.7825 53.8367
" />
<path d="M71.7825 53.8367
L71.7825 53.9367
" />
<path d="M71.7825 53.9367
L71.8158 54.0033
" />
<path d="M72.1825 54.3367
L72.2158 54.3700
" />
<path d="M72.2158 54.3700
L72.2491 54.3367
" />
<path d="M72.2491 54.3367
L72.2158 54.3033
" />
<path d="M72.2158 54.3033
L72.1825 54.3367
" />
<path d="M72.1825 54.3367
L72.2491 54.3367
" />
<path d="M71.8158 54.3367
L71.8491 54.3700
" />
<path d="M71.8491 54.3700
L71.8825 54.3367
" />
<path d="M71.8825 54.3367
L71.8491 54.3033
" />
<path d="M71.8491 54.3033
L71.8158 54.3367
" />
<path d="M71.8158 54.3367
L71.8825 54.3367
" />
<path d="M71.5158 55.1700
L72.4158 54.5700
" />
<path d="M71.5158 55.9033
L72.4158 55.3033
" />
<path d="M71.7825 56.4367
L72.3491 56.4367
" />
<path d="M72.3491 56.4367
L72.4158 56.4033
" />
<path d="M72.4158 56.4033
L72.4491 56.3700
" />
<path d="M72.4491 56.3700
L72.4825 56.3033
" />
<path d="M72.4825 56.3033
L72.4825 56.2033
" />
<path d="M72.4825 56.2033
L72.4491 56.1367
" />
<path d="M72.2158 56.4367
L72.2491 56.3700
" />
<path d="M72.2491 56.3700
L72.2491 56.2367
" />
<path d="M72.2491 56.2367
L72.2158 56.1700
" />
<path d="M72.2158 56.1700
L72.1825 56.1367
" />
<path d="M72.1825 56.1367
L72.1158 56.1033
" />
<path d="M72.1158 56.1033
L71.9158 56.1033
" />
<path d="M71.9158 56.1033
L71.8491 56.1367
" />
<path d="M71.8491 56.1367
L71.8158 56.1700
" />
<path d="M71.8158 56.1700
L71.7825 56.2367
" />
<path d="M71.7825 56.2367
L71.7825 56.3700
" />
<path d="M71.7825 56.3700
L71.8158 56.4367
" />
<path d="M72.2491 56.7700
L71.7825 56.7700
" />
<path d="M71.5491 56.7700
L71.5825 56.7367
" />
<path d="M71.5825 56.7367
L71.6158 56.7700
" />
<path d="M71.6158 56.7700
L71.5825 56.8033
" />
<path d="M71.5825 56.8033
L71.5491 56.7700
" />
<path d="M71.5491 56.7700
L71.6158 56.7700
" />
<path d="M71.7825 57.0033
L71.7825 57.2700
" />
<path d="M71.5491 57.1033
L72.1491 57.1033
" />
<path d="M72.1491 57.1033
L72.2158 57.1367
" />
<path d="M72.2158 57.1367
L72.2491 57.2033
" />
<path d="M72.2491 57.2033
L72.2491 57.2700
" />
<path d="M72.2491 57.5033
L71.5491 57.5033
" />
<path d="M72.2491 57.8033
L71.8825 57.8033
" />
<path d="M71.8825 57.8033
L71.8158 57.7700
" />
<path d="M71.8158 57.7700
L71.7825 57.7033
" />
<path d="M71.7825 57.7033
L71.7825 57.6033
" />
<path d="M71.7825 57.6033
L71.8158 57.5367
" />
<path d="M71.8158 57.5367
L71.8491 57.5033
" />
<path d="M71.7825 58.4367
L72.2491 58.4367
" />
<path d="M71.7825 58.1367
L72.1491 58.1367
" />
<path d="M72.1491 58.1367
L72.2158 58.1700
" />
<path d="M72.2158 58.1700
L72.2491 58.2367
" />
<path d="M72.2491 58.2367
L72.2491 58.3367
" />
<path d="M72.2491 58.3367
L72.2158 58.4033
" />
<path d="M72.2158 58.4033
L72.1825 58.4367
" />
<path d="M72.2491 58.7700
L71.5491 58.7700
" />
<path d="M71.8158 58.7700
L71.7825 58.8367
" />
<path d="M71.7825 58.8367
L71.7825 58.9700
" />
<path d="M71.7825 58.9700
L71.8158 59.0367
" />
<path d="M71.8158 59.0367
L71.8491 59.0700
" />
<path d="M71.8491 59.0700
L71.9158 59.1033
" />
<path d="M71.9158 59.1033
L72.1158 59.1033
" />
<path d="M72.1158 59.1033
L72.1825 59.0700
" />
<path d="M72.1825 59.0700
L72.2158 59.0367
" />
<path d="M72.2158 59.0367
L72.2491 58.9700
" />
<path d="M72.2491 58.9700
L72.2491 58.8367
" />
<path d="M72.2491 58.8367
L72.2158 58.7700
" />
<path d="M72.1825 59.4033
L72.2158 59.4367
" />
<path d="M72.2158 59.4367
L72.2491 59.4033
" />
<path d="M72.2491 59.4033
L72.2158 59.3700
" />
<path d="M72.2158 59.3700
L72.1825 59.4033
" />
<path d="M72.1825 59.4033
L72.2491 59.4033
" />
<path d="M72.2158 60.0367
L72.2491 59.9700
" />
<path d="M72.2491 59.9700
L72.2491 59.8367
" />
<path d="M72.2491 59.8367
L72.2158 59.7700
" />
<path d="M72.2158 59.7700
L72.1825 59.7367
" />
<path d="M72.1825 59.7367
L72.1158 59.7033
" />
<path d="M72.1158 59.7033
L71.9158 59.7033
" />
<path d="M71.9158 59.7033
L71.8491 59.7367
" />
<path d="M71.8491 59.7367
L71.8158 59.7700
" />
<path d="M71.8158 59.7700
L71.7825 59.8367
" />
<path d="M71.7825 59.8367
L71.7825 59.9700
" />
<path d="M71.7825 59.9700
L71.8158 60.0367
" />
<path d="M72.2491 60.4367
L72.2158 60.3700
" />
<path d="M72.2158 60.3700
L72.1825 60.3367
" />
<path d="M72.1825 60.3367
L72.1158 60.3033
" />
<path d="M72.1158 60.3033
L71.9158 60.3033
" />
<path d="M71.9158 60.3033
L71.8491 60.3367
" />
<path d="M71.8491 60.3367
L71.8158 60.3700
" />
<path d="M71.8158 60.3700
L71.7825 60.4367
" />
<path d="M71.7825 60.4367
L71.7825 60.5367
" />
<path d="M71.7825 60.5367
L71.8158 60.6033
" />
<path d="M71.8158 60.6033
L71.8491 60.6367
" />
<path d="M71.8491 60.6367
L71.9158 60.6700
" />
<path d="M71.9158 60.6700
L72.1158 60.6700
" />
<path d="M72.1158 60.6700
L72.1825 60.6367
" />
<path d="M72.1825 60.6367
L72.2158 60.6033
" />
<path d="M72.2158 60.6033
L72.2491 60.5367
" />
<path d="M72.2491 60.5367
L72.2491 60.4367
" />
<path d="M72.2491 60.9700
L71.7825 60.9700
" />
<path d="M71.8491 60.9700
L71.8158 61.0033
" />
<path d="M71.8158 61.0033
L71.7825 61.0700
" />
<path d="M71.7825 61.0700
L71.7825 61.1700
" />
<path d="M71.7825 61.1700
L71.8158 61.2367
" />
<path d="M71.8158 61.2367
L71.8825 61.2700
" />
<path d="M71.8825 61.2700
L72.2491 61.2700
" />
<path d="M71.8825 61.2700
L71.8158 61.3033
" />
<path d="M71.8158 61.3033
L71.7825 61.3700
" />
<path d="M71.7825 61.3700
L71.7825 61.4700
" />
<path d="M71.7825 61.4700
L71.8158 61.5367
" />
<path d="M71.8158 61.5367
L71.8825 61.5700
" />
<path d="M71.8825 61.5700
L72.2491 61.5700
" />
<path d="M71.5158 62.4033
L72.4158 61.8033
" />
<path d="M71.7825 62.6367
L72.4825 62.6367
" />
<path d="M71.8158 62.6367
L71.7825 62.7033
" />
<path d="M71.7825 62.7033
L71.7825 62.8367
" />
<path d="M71.7825 62.8367
L71.8158 62.9033
" />
<path d="M71.8158 62.9033
L71.8491 62.9367
" />
<path d="M71.8491 62.9367
L71.9158 62.9700
" />
<path d="M71.9158 62.9700
L72.1158 62.9700
" />
<path d="M72.1158 62.9700
L72.1825 62.9367
" />
<path d="M72.1825 62.9367
L72.2158 62.9033
" />
<path d="M72.2158 62.9033
L72.2491 62.8367
" />
<path d="M72.2491 62.8367
L72.2491 62.7033
" />
<path d="M72.2491 62.7033
L72.2158 62.6367
" />
<path d="M72.2158 63.5367
L72.2491 63.4700
" />
<path d="M72.2491 63.4700
L72.2491 63.3367
" />
<path d="M72.2491 63.3367
L72.2158 63.2700
" />
<path d="M72.2158 63.2700
L72.1491 63.2367
" />
<path d="M72.1491 63.2367
L71.8825 63.2367
" />
<path d="M71.8825 63.2367
L71.8158 63.2700
" />
<path d="M71.8158 63.2700
L71.7825 63.3367
" />
<path d="M71.7825 63.3367
L71.7825 63.4700
" />
<path d="M71.7825 63.4700
L71.8158 63.5367
" />
<path d="M71.8158 63.5367
L71.8825 63.5700
" />
<path d="M71.8825 63.5700
L71.9491 63.5700
" />
<path d="M71.9491 63.5700
L72.0158 63.2367
" />
<path d="M72.2491 64.1700
L71.5491 64.1700
" />
<path d="M72.2158 64.1700
L72.2491 64.1033
" />
<path d="M72.2491 64.1033
L72.2491 63.9700
" />
<path d="M72.2491 63.9700
L72.2158 63.9033
" />
<path d="M72.2158 63.9033
L72.1825 63.8700
" />
<path d="M72.1825 63.8700
L72.1158 63.8367
" />
<path d="M72.1158 63.8367
L71.9158 63.8367
" />
<path d="M71.9158 63.8367
L71.8491 63.8700
" />
<path d="M71.8491 63.8700
L71.8158 63.9033
" />
<path d="M71.8158 63.9033
L71.7825 63.9700
" />
<path d="M71.7825 63.9700
L71.7825 64.1033
" />
<path d="M71.7825 64.1033
L71.8158 64.1700
" />
<path d="M72.2491 64.8033
L71.8825 64.8033
" />
<path d="M71.8825 64.8033
L71.8158 64.7700
" />
<path d="M71.8158 64.7700
L71.7825 64.7033
" />
<path d="M71.7825 64.7033
L71.7825 64.5700
" />
<path d="M71.7825 64.5700
L71.8158 64.5033
" />
<path d="M72.2158 64.8033
L72.2491 64.7367
" />
<path d="M72.2491 64.7367
L72.2491 64.5700
" />
<path d="M72.2491 64.5700
L72.2158 64.5033
" />
<path d="M72.2158 64.5033
L72.1491 64.4700
" />
<path d="M72.1491 64.4700
L72.0825 64.4700
" />
<path d="M72.0825 64.4700
L72.0158 64.5033
" />
<path d="M72.0158 64.5033
L71.9825 64.5700
" />
<path d="M71.9825 64.5700
L71.9825 64.7367
" />
<path d="M71.9825 64.7367
L71.9491 64.8033
" />
<path d="M72.2491 65.2367
L72.2158 65.1700
" />
<path d="M72.2158 65.1700
L72.1491 65.1367
" />
<path d="M72.1491 65.1367
L71.5491 65.1367
" />
<path d="M72.2491 65.5033
L71.5491 65.5033
" />
<path d="M71.8158 65.5033
L71.7825 65.5700
" />
<path d="M71.7825 65.5700
L71.7825 65.7033
" />
<path d="M71.7825 65.7033
L71.8158 65.7700
" />
<path d="M71.8158 65.7700
L71.8491 65.8033
" />
<path d="M71.8491 65.8033
L71.9158 65.8367
" />
<path d="M71.9158 65.8367
L72.1158 65.8367
" />
<path d="M72.1158 65.8367
L72.1825 65.8033
" />
<path d="M72.1825 65.8033
L72.2158 65.7700
" />
<path d="M72.2158 65.7700
L72.2491 65.7033
" />
<path d="M72.2491 65.7033
L72.2491 65.5700
" />
<path d="M72.2491 65.5700
L72.2158 65.5033
" />
<path d="M72.2491 66.2367
L72.2158 66.1700
" />
<path d="M72.2158 66.1700
L72.1825 66.1367
" />
<path d="M72.1825 66.1367
L72.1158 66.1033
" />
<path d="M72.1158 66.1033
L71.9158 66.1033
" />
<path d="M71.9158 66.1033
L71.8491 66.1367
" />
<path d="M71.8491 66.1367
L71.8158 66.1700
" />
<path d="M71.8158 66.1700
L71.7825 66.2367
" />
<path d="M71.7825 66.2367
L71.7825 66.3367
" />
<path d="M71.7825 66.3367
L71.8158 66.4033
" />
<path d="M71.8158 66.4033
L71.8491 66.4367
" />
<path d="M71.8491 66.4367
L71.9158 66.4700
" />
<path d="M71.9158 66.4700
L72.1158 66.4700
" />
<path d="M72.1158 66.4700
L72.1825 66.4367
" />
<path d="M72.1825 66.4367
L72.2158 66.4033
" />
<path d="M72.2158 66.4033
L72.2491 66.3367
" />
<path d="M72.2491 66.3367
L72.2491 66.2367
" />
<path d="M72.2491 67.0700
L71.8825 67.0700
" />
<path d="M71.8825 67.0700
L71.8158 67.0367
" />
<path d="M71.8158 67.0367
L71.7825 66.9700
" />
<path d="M71.7825 66.9700
L71.7825 66.8367
" />
<path d="M71.7825 66.8367
L71.8158 66.7700
" />
<path d="M72.2158 67.0700
L72.2491 67.0033
" />
<path d="M72.2491 67.0033
L72.2491 66.8367
" />
<path d="M72.2491 66.8367
L72.2158 66.7700
" />
<path d="M72.2158 66.7700
L72.1491 66.7367
" />
<path d="M72.1491 66.7367
L72.0825 66.7367
" />
<path d="M72.0825 66.7367
L72.0158 66.7700
" />
<path d="M72.0158 66.7700
L71.9825 66.8367
" />
<path d="M71.9825 66.8367
L71.9825 67.0033
" />
<path d="M71.9825 67.0033
L71.9491 67.0700
" />
<path d="M72.2491 67.4033
L71.7825 67.4033
" />
<path d="M71.9158 67.4033
L71.8491 67.4367
" />
<path d="M71.8491 67.4367
L71.8158 67.4700
" />
<path d="M71.8158 67.4700
L71.7825 67.5367
" />
<path d="M71.7825 67.5367
L71.7825 67.6033
" />
<path d="M72.2491 68.1367
L71.5491 68.1367
" />
<path d="M72.2158 68.1367
L72.2491 68.0700
" />
<path d="M72.2491 68.0700
L72.2491 67.9367
" />
<path d="M72.2491 67.9367
L72.2158 67.8700
" />
<path d="M72.2158 67.8700
L72.1825 67.8367
" />
<path d="M72.1825 67.8367
L72.1158 67.8033
" />
<path d="M72.1158 67.8033
L71.9158 67.8033
" />
<path d="M71.9158 67.8033
L71.8491 67.8367
" />
<path d="M71.8491 67.8367
L71.8158 67.8700
" />
<path d="M71.8158 67.8700
L71.7825 67.9367
" />
<path d="M71.7825 67.9367
L71.7825 68.0700
" />
<path d="M71.7825 68.0700
L71.8158 68.1367
" />
</g><g transform="rotate(-90.000000 90.3900 54.3400)">
<text x="90.3900" y="54.3400"
transform="scale(-1 1) translate(-180.780000 0)"
textLength="1.8943" font-size="0.8000" lengthAdjust="spacingAndGlyphs"
text-anchor="start" opacity="0">VCC</text>
</g>
<g class="stroked-text"><desc>VCC</desc>
<path d="M89.7114 54.4629
L90.3114 54.6629
" />
<path d="M90.3114 54.6629
L89.7114 54.8629
" />
<path d="M90.2542 55.4058
L90.2828 55.3772
" />
<path d="M90.2828 55.3772
L90.3114 55.2915
" />
<path d="M90.3114 55.2915
L90.3114 55.2344
" />
<path d="M90.3114 55.2344
L90.2828 55.1486
" />
<path d="M90.2828 55.1486
L90.2257 55.0915
" />
<path d="M90.2257 55.0915
L90.1685 55.0629
" />
<path d="M90.1685 55.0629
L90.0542 55.0344
" />
<path d="M90.0542 55.0344
L89.9685 55.0344
" />
<path d="M89.9685 55.0344
L89.8542 55.0629
" />
<path d="M89.8542 55.0629
L89.7971 55.0915
" />
<path d="M89.7971 55.0915
L89.7399 55.1486
" />
<path d="M89.7399 55.1486
L89.7114 55.2344
" />
<path d="M89.7114 55.2344
L89.7114 55.2915
" />
<path d="M89.7114 55.2915
L89.7399 55.3772
" />
<path d="M89.7399 55.3772
L89.7685 55.4058
" />
<path d="M90.2542 56.0058
L90.2828 55.9772
" />
<path d="M90.2828 55.9772
L90.3114 55.8915
" />
<path d="M90.3114 55.8915
L90.3114 55.8344
" />
<path d="M90.3114 55.8344
L90.2828 55.7486
" />
<path d="M90.2828 55.7486
L90.2257 55.6915
" />
<path d="M90.2257 55.6915
L90.1685 55.6629
" />
<path d="M90.1685 55.6629
L90.0542 55.6344
" />
<path d="M90.0542 55.6344
L89.9685 55.6344
" />
<path d="M89.9685 55.6344
L89.8542 55.6629
" />
<path d="M89.8542 55.6629
L89.7971 55.6915
" />
<path d="M89.7971 55.6915
L89.7399 55.7486
" />
<path d="M89.7399 55.7486
L89.7114 55.8344
" />
<path d="M89.7114 55.8344
L89.7114 55.8915
" />
<path d="M89.7114 55.8915
L89.7399 55.9772
" />
<path d="M89.7399 55.9772
L89.7685 56.0058
" />
</g><text x="79.9500" y="69.8350"
transform="scale(-1 1) translate(-159.900000 0)"
textLength="7.0809" font-size="0.6667" lengthAdjust="spacingAndGlyphs"
text-anchor="middle" opacity="0">PCB: v1.1.0-RC1 </text>
<g class="stroked-text"><desc>PCB: v1.1.0-RC1 </desc>
<path d="M83.2714 69.7686
L83.2714 69.2686
" />
<path d="M83.2714 69.2686
L83.0810 69.2686
" />
<path d="M83.0810 69.2686
L83.0333 69.2924
" />
<path d="M83.0333 69.2924
L83.0095 69.3162
" />
<path d="M83.0095 69.3162
L82.9857 69.3638
" />
<path d="M82.9857 69.3638
L82.9857 69.4353
" />
<path d="M82.9857 69.4353
L83.0095 69.4829
" />
<path d="M83.0095 69.4829
L83.0333 69.5067
" />
<path d="M83.0333 69.5067
L83.0810 69.5305
" />
<path d="M83.0810 69.5305
L83.2714 69.5305
" />
<path d="M82.4857 69.7210
L82.5095 69.7448
" />
<path d="M82.5095 69.7448
L82.5810 69.7686
" />
<path d="M82.5810 69.7686
L82.6286 69.7686
" />
<path d="M82.6286 69.7686
L82.7000 69.7448
" />
<path d="M82.7000 69.7448
L82.7476 69.6972
" />
<path d="M82.7476 69.6972
L82.7714 69.6496
" />
<path d="M82.7714 69.6496
L82.7952 69.5543
" />
<path d="M82.7952 69.5543
L82.7952 69.4829
" />
<path d="M82.7952 69.4829
L82.7714 69.3877
" />
<path d="M82.7714 69.3877
L82.7476 69.3400
" />
<path d="M82.7476 69.3400
L82.7000 69.2924
" />
<path d="M82.7000 69.2924
L82.6286 69.2686
" />
<path d="M82.6286 69.2686
L82.5810 69.2686
" />
<path d="M82.5810 69.2686
L82.5095 69.2924
" />
<path d="M82.5095 69.2924
L82.4857 69.3162
" />
<path d="M82.1048 69.5067
L82.0333 69.5305
" />
<path d="M82.0333 69.5305
L82.0095 69.5543
" />
<path d="M82.0095 69.5543
L81.9857 69.6019
" />
<path d="M81.9857 69.6019
L81.9857 69.6734
" />
<path d="M81.9857 69.6734
L82.0095 69.7210
" />
<path d="M82.0095 69.7210
L82.0333 69.7448
" />
<path d="M82.0333 69.7448
L82.0810 69.7686
" />
<path d="M82.0810 69.7686
L82.2714 69.7686
" />
<path d="M82.2714 69.7686
L82.2714 69.2686
" />
<path d="M82.2714 69.2686
L82.1048 69.2686
" />
<path d="M82.1048 69.2686
L82.0571 69.2924
" />
<path d="M82.0571 69.2924
L82.0333 69.3162
" />
<path d="M82.0333 69.3162
L82.0095 69.3638
" />
<path d="M82.0095 69.3638
L82.0095 69.4115
" />
<path d="M82.0095 69.4115
L82.0333 69.4591
" />
<path d="M82.0333 69.4591
L82.0571 69.4829
" />
<path d="M82.0571 69.4829
L82.1048 69.5067
" />
<path d="M82.1048 69.5067
L82.2714 69.5067
" />
<path d="M81.7714 69.7210
L81.7476 69.7448
" />
<path d="M81.7476 69.7448
L81.7714 69.7686
" />
<path d="M81.7714 69.7686
L81.7952 69.7448
" />
<path d="M81.7952 69.7448
L81.7714 69.7210
" />
<path d="M81.7714 69.7210
L81.7714 69.7686
" />
<path d="M81.7714 69.4591
L81.7476 69.4829
" />
<path d="M81.7476 69.4829
L81.7714 69.5067
" />
<path d="M81.7714 69.5067
L81.7952 69.4829
" />
<path d="M81.7952 69.4829
L81.7714 69.4591
" />
<path d="M81.7714 69.4591
L81.7714 69.5067
" />
<path d="M81.2000 69.4353
L81.0810 69.7686
" />
<path d="M81.0810 69.7686
L80.9619 69.4353
" />
<path d="M80.5095 69.7686
L80.7952 69.7686
" />
<path d="M80.6524 69.7686
L80.6524 69.2686
" />
<path d="M80.6524 69.2686
L80.7000 69.3400
" />
<path d="M80.7000 69.3400
L80.7476 69.3877
" />
<path d="M80.7476 69.3877
L80.7952 69.4115
" />
<path d="M80.2952 69.7210
L80.2714 69.7448
" />
<path d="M80.2714 69.7448
L80.2952 69.7686
" />
<path d="M80.2952 69.7686
L80.3190 69.7448
" />
<path d="M80.3190 69.7448
L80.2952 69.7210
" />
<path d="M80.2952 69.7210
L80.2952 69.7686
" />
<path d="M79.7952 69.7686
L80.0810 69.7686
" />
<path d="M79.9381 69.7686
L79.9381 69.2686
" />
<path d="M79.9381 69.2686
L79.9857 69.3400
" />
<path d="M79.9857 69.3400
L80.0333 69.3877
" />
<path d="M80.0333 69.3877
L80.0810 69.4115
" />
<path d="M79.5810 69.7210
L79.5571 69.7448
" />
<path d="M79.5571 69.7448
L79.5810 69.7686
" />
<path d="M79.5810 69.7686
L79.6048 69.7448
" />
<path d="M79.6048 69.7448
L79.5810 69.7210
" />
<path d="M79.5810 69.7210
L79.5810 69.7686
" />
<path d="M79.2476 69.2686
L79.2000 69.2686
" />
<path d="M79.2000 69.2686
L79.1524 69.2924
" />
<path d="M79.1524 69.2924
L79.1286 69.3162
" />
<path d="M79.1286 69.3162
L79.1048 69.3638
" />
<path d="M79.1048 69.3638
L79.0810 69.4591
" />
<path d="M79.0810 69.4591
L79.0810 69.5781
" />
<path d="M79.0810 69.5781
L79.1048 69.6734
" />
<path d="M79.1048 69.6734
L79.1286 69.7210
" />
<path d="M79.1286 69.7210
L79.1524 69.7448
" />
<path d="M79.1524 69.7448
L79.2000 69.7686
" />
<path d="M79.2000 69.7686
L79.2476 69.7686
" />
<path d="M79.2476 69.7686
L79.2952 69.7448
" />
<path d="M79.2952 69.7448
L79.3190 69.7210
" />
<path d="M79.3190 69.7210
L79.3429 69.6734
" />
<path d="M79.3429 69.6734
L79.3667 69.5781
" />
<path d="M79.3667 69.5781
L79.3667 69.4591
" />
<path d="M79.3667 69.4591
L79.3429 69.3638
" />
<path d="M79.3429 69.3638
L79.3190 69.3162
" />
<path d="M79.3190 69.3162
L79.2952 69.2924
" />
<path d="M79.2952 69.2924
L79.2476 69.2686
" />
<path d="M78.8667 69.5781
L78.4857 69.5781
" />
<path d="M77.9619 69.7686
L78.1286 69.5305
" />
<path d="M78.2476 69.7686
L78.2476 69.2686
" />
<path d="M78.2476 69.2686
L78.0571 69.2686
" />
<path d="M78.0571 69.2686
L78.0095 69.2924
" />
<path d="M78.0095 69.2924
L77.9857 69.3162
" />
<path d="M77.9857 69.3162
L77.9619 69.3638
" />
<path d="M77.9619 69.3638
L77.9619 69.4353
" />
<path d="M77.9619 69.4353
L77.9857 69.4829
" />
<path d="M77.9857 69.4829
L78.0095 69.5067
" />
<path d="M78.0095 69.5067
L78.0571 69.5305
" />
<path d="M78.0571 69.5305
L78.2476 69.5305
" />
<path d="M77.4619 69.7210
L77.4857 69.7448
" />
<path d="M77.4857 69.7448
L77.5571 69.7686
" />
<path d="M77.5571 69.7686
L77.6048 69.7686
" />
<path d="M77.6048 69.7686
L77.6762 69.7448
" />
<path d="M77.6762 69.7448
L77.7238 69.6972
" />
<path d="M77.7238 69.6972
L77.7476 69.6496
" />
<path d="M77.7476 69.6496
L77.7714 69.5543
" />
<path d="M77.7714 69.5543
L77.7714 69.4829
" />
<path d="M77.7714 69.4829
L77.7476 69.3877
" />
<path d="M77.7476 69.3877
L77.7238 69.3400
" />
<path d="M77.7238 69.3400
L77.6762 69.2924
" />
<path d="M77.6762 69.2924
L77.6048 69.2686
" />
<path d="M77.6048 69.2686
L77.5571 69.2686
" />
<path d="M77.5571 69.2686
L77.4857 69.2924
" />
<path d="M77.4857 69.2924
L77.4619 69.3162
" />
<path d="M76.9857 69.7686
L77.2714 69.7686
" />
<path d="M77.1286 69.7686
L77.1286 69.2686
" />
<path d="M77.1286 69.2686
L77.1762 69.3400
" />
<path d="M77.1762 69.3400
L77.2238 69.3877
" />
<path d="M77.2238 69.3877
L77.2714 69.4115
" />
</g><text x="79.9500" y="70.6400"
transform="scale(-1 1) translate(-159.900000 0)"
textLength="4.3190" font-size="0.6667" lengthAdjust="spacingAndGlyphs"
text-anchor="middle" opacity="0">{GIT_HASH}</text>
<g class="stroked-text"><desc>{GIT_HASH}</desc>
<path d="M81.7476 70.7641
L81.7714 70.7641
" />
<path d="M81.7714 70.7641
L81.8190 70.7403
" />
<path d="M81.8190 70.7403
L81.8429 70.6927
" />
<path d="M81.8429 70.6927
L81.8429 70.4546
" />
<path d="M81.8429 70.4546
L81.8667 70.4069
" />
<path d="M81.8667 70.4069
L81.9143 70.3831
" />
<path d="M81.9143 70.3831
L81.8667 70.3593
" />
<path d="M81.8667 70.3593
L81.8429 70.3117
" />
<path d="M81.8429 70.3117
L81.8429 70.0736
" />
<path d="M81.8429 70.0736
L81.8190 70.0260
" />
<path d="M81.8190 70.0260
L81.7714 70.0022
" />
<path d="M81.7714 70.0022
L81.7476 70.0022
" />
<path d="M81.2952 70.0974
L81.3429 70.0736
" />
<path d="M81.3429 70.0736
L81.4143 70.0736
" />
<path d="M81.4143 70.0736
L81.4857 70.0974
" />
<path d="M81.4857 70.0974
L81.5333 70.1450
" />
<path d="M81.5333 70.1450
L81.5571 70.1927
" />
<path d="M81.5571 70.1927
L81.5810 70.2879
" />
<path d="M81.5810 70.2879
L81.5810 70.3593
" />
<path d="M81.5810 70.3593
L81.5571 70.4546
" />
<path d="M81.5571 70.4546
L81.5333 70.5022
" />
<path d="M81.5333 70.5022
L81.4857 70.5498
" />
<path d="M81.4857 70.5498
L81.4143 70.5736
" />
<path d="M81.4143 70.5736
L81.3667 70.5736
" />
<path d="M81.3667 70.5736
L81.2952 70.5498
" />
<path d="M81.2952 70.5498
L81.2714 70.5260
" />
<path d="M81.2714 70.5260
L81.2714 70.3593
" />
<path d="M81.2714 70.3593
L81.3667 70.3593
" />
<path d="M81.0571 70.5736
L81.0571 70.0736
" />
<path d="M80.8905 70.0736
L80.6048 70.0736
" />
<path d="M80.7476 70.5736
L80.7476 70.0736
" />
<path d="M80.5571 70.6212
L80.1762 70.6212
" />
<path d="M80.0571 70.5736
L80.0571 70.0736
" />
<path d="M80.0571 70.3117
L79.7714 70.3117
" />
<path d="M79.7714 70.5736
L79.7714 70.0736
" />
<path d="M79.5571 70.4308
L79.3190 70.4308
" />
<path d="M79.6048 70.5736
L79.4381 70.0736
" />
<path d="M79.4381 70.0736
L79.2714 70.5736
" />
<path d="M79.1286 70.5498
L79.0571 70.5736
" />
<path d="M79.0571 70.5736
L78.9381 70.5736
" />
<path d="M78.9381 70.5736
L78.8905 70.5498
" />
<path d="M78.8905 70.5498
L78.8667 70.5260
" />
<path d="M78.8667 70.5260
L78.8429 70.4784
" />
<path d="M78.8429 70.4784
L78.8429 70.4308
" />
<path d="M78.8429 70.4308
L78.8667 70.3831
" />
<path d="M78.8667 70.3831
L78.8905 70.3593
" />
<path d="M78.8905 70.3593
L78.9381 70.3355
" />
<path d="M78.9381 70.3355
L79.0333 70.3117
" />
<path d="M79.0333 70.3117
L79.0810 70.2879
" />
<path d="M79.0810 70.2879
L79.1048 70.2641
" />
<path d="M79.1048 70.2641
L79.1286 70.2165
" />
<path d="M79.1286 70.2165
L79.1286 70.1688
" />
<path d="M79.1286 70.1688
L79.1048 70.1212
" />
<path d="M79.1048 70.1212
L79.0810 70.0974
" />
<path d="M79.0810 70.0974
L79.0333 70.0736
" />
<path d="M79.0333 70.0736
L78.9143 70.0736
" />
<path d="M78.9143 70.0736
L78.8429 70.0974
" />
<path d="M78.6286 70.5736
L78.6286 70.0736
" />
<path d="M78.6286 70.3117
L78.3429 70.3117
" />
<path d="M78.3429 70.5736
L78.3429 70.0736
" />
<path d="M78.1524 70.7641
L78.1286 70.7641
" />
<path d="M78.1286 70.7641
L78.0810 70.7403
" />
<path d="M78.0810 70.7403
L78.0571 70.6927
" />
<path d="M78.0571 70.6927
L78.0571 70.4546
" />
<path d="M78.0571 70.4546
L78.0333 70.4069
" />
<path d="M78.0333 70.4069
L77.9857 70.3831
" />
<path d="M77.9857 70.3831
L78.0333 70.3593
" />
<path d="M78.0333 70.3593
L78.0571 70.3117
" />
<path d="M78.0571 70.3117
L78.0571 70.0736
" />
<path d="M78.0571 70.0736
L78.0810 70.0260
" />
<path d="M78.0810 70.0260
L78.1286 70.0022
" />
<path d="M78.1286 70.0022
L78.1524 70.0022
" />
</g><text x="79.7300" y="51.6200"
transform="scale(-1 1) translate(-159.460000 0)"
textLength="11.3267" font-size="0.9333" lengthAdjust="spacingAndGlyphs"
text-anchor="middle" opacity="0">Pedalboard LED Ring</text>
<g class="stroked-text"><desc>Pedalboard LED Ring</desc>
<path d="M85.1467 51.5291
L85.1467 50.8291
" />
<path d="M85.1467 50.8291
L84.8800 50.8291
" />
<path d="M84.8800 50.8291
L84.8133 50.8625
" />
<path d="M84.8133 50.8625
L84.7800 50.8958
" />
<path d="M84.7800 50.8958
L84.7467 50.9625
" />
<path d="M84.7467 50.9625
L84.7467 51.0625
" />
<path d="M84.7467 51.0625
L84.7800 51.1291
" />
<path d="M84.7800 51.1291
L84.8133 51.1625
" />
<path d="M84.8133 51.1625
L84.8800 51.1958
" />
<path d="M84.8800 51.1958
L85.1467 51.1958
" />
<path d="M84.1800 51.4958
L84.2467 51.5291
" />
<path d="M84.2467 51.5291
L84.3800 51.5291
" />
<path d="M84.3800 51.5291
L84.4467 51.4958
" />
<path d="M84.4467 51.4958
L84.4800 51.4291
" />
<path d="M84.4800 51.4291
L84.4800 51.1625
" />
<path d="M84.4800 51.1625
L84.4467 51.0958
" />
<path d="M84.4467 51.0958
L84.3800 51.0625
" />
<path d="M84.3800 51.0625
L84.2467 51.0625
" />
<path d="M84.2467 51.0625
L84.1800 51.0958
" />
<path d="M84.1800 51.0958
L84.1467 51.1625
" />
<path d="M84.1467 51.1625
L84.1467 51.2291
" />
<path d="M84.1467 51.2291
L84.4800 51.2958
" />
<path d="M83.5467 51.5291
L83.5467 50.8291
" />
<path d="M83.5467 51.4958
L83.6133 51.5291
" />
<path d="M83.6133 51.5291
L83.7467 51.5291
" />
<path d="M83.7467 51.5291
L83.8133 51.4958
" />
<path d="M83.8133 51.4958
L83.8467 51.4625
" />
<path d="M83.8467 51.4625
L83.8800 51.3958
" />
<path d="M83.8800 51.3958
L83.8800 51.1958
" />
<path d="M83.8800 51.1958
L83.8467 51.1291
" />
<path d="M83.8467 51.1291
L83.8133 51.0958
" />
<path d="M83.8133 51.0958
L83.7467 51.0625
" />
<path d="M83.7467 51.0625
L83.6133 51.0625
" />
<path d="M83.6133 51.0625
L83.5467 51.0958
" />
<path d="M82.9133 51.5291
L82.9133 51.1625
" />
<path d="M82.9133 51.1625
L82.9467 51.0958
" />
<path d="M82.9467 51.0958
L83.0133 51.0625
" />
<path d="M83.0133 51.0625
L83.1467 51.0625
" />
<path d="M83.1467 51.0625
L83.2133 51.0958
" />
<path d="M82.9133 51.4958
L82.9800 51.5291
" />
<path d="M82.9800 51.5291
L83.1467 51.5291
" />
<path d="M83.1467 51.5291
L83.2133 51.4958
" />
<path d="M83.2133 51.4958
L83.2467 51.4291
" />
<path d="M83.2467 51.4291
L83.2467 51.3625
" />
<path d="M83.2467 51.3625
L83.2133 51.2958
" />
<path d="M83.2133 51.2958
L83.1467 51.2625
" />
<path d="M83.1467 51.2625
L82.9800 51.2625
" />
<path d="M82.9800 51.2625
L82.9133 51.2291
" />
<path d="M82.4800 51.5291
L82.5467 51.4958
" />
<path d="M82.5467 51.4958
L82.5800 51.4291
" />
<path d="M82.5800 51.4291
L82.5800 50.8291
" />
<path d="M82.2133 51.5291
L82.2133 50.8291
" />
<path d="M82.2133 51.0958
L82.1467 51.0625
" />
<path d="M82.1467 51.0625
L82.0133 51.0625
" />
<path d="M82.0133 51.0625
L81.9467 51.0958
" />
<path d="M81.9467 51.0958
L81.9133 51.1291
" />
<path d="M81.9133 51.1291
L81.8800 51.1958
" />
<path d="M81.8800 51.1958
L81.8800 51.3958
" />
<path d="M81.8800 51.3958
L81.9133 51.4625
" />
<path d="M81.9133 51.4625
L81.9467 51.4958
" />
<path d="M81.9467 51.4958
L82.0133 51.5291
" />
<path d="M82.0133 51.5291
L82.1467 51.5291
" />
<path d="M82.1467 51.5291
L82.2133 51.4958
" />
<path d="M81.4800 51.5291
L81.5467 51.4958
" />
<path d="M81.5467 51.4958
L81.5800 51.4625
" />
<path d="M81.5800 51.4625
L81.6133 51.3958
" />
<path d="M81.6133 51.3958
L81.6133 51.1958
" />
<path d="M81.6133 51.1958
L81.5800 51.1291
" />
<path d="M81.5800 51.1291
L81.5467 51.0958
" />
<path d="M81.5467 51.0958
L81.4800 51.0625
" />
<path d="M81.4800 51.0625
L81.3800 51.0625
" />
<path d="M81.3800 51.0625
L81.3133 51.0958
" />
<path d="M81.3133 51.0958
L81.2800 51.1291
" />
<path d="M81.2800 51.1291
L81.2467 51.1958
" />
<path d="M81.2467 51.1958
L81.2467 51.3958
" />
<path d="M81.2467 51.3958
L81.2800 51.4625
" />
<path d="M81.2800 51.4625
L81.3133 51.4958
" />
<path d="M81.3133 51.4958
L81.3800 51.5291
" />
<path d="M81.3800 51.5291
L81.4800 51.5291
" />
<path d="M80.6467 51.5291
L80.6467 51.1625
" />
<path d="M80.6467 51.1625
L80.6800 51.0958
" />
<path d="M80.6800 51.0958
L80.7467 51.0625
" />
<path d="M80.7467 51.0625
L80.8800 51.0625
" />
<path d="M80.8800 51.0625
L80.9467 51.0958
" />
<path d="M80.6467 51.4958
L80.7133 51.5291
" />
<path d="M80.7133 51.5291
L80.8800 51.5291
" />
<path d="M80.8800 51.5291
L80.9467 51.4958
" />
<path d="M80.9467 51.4958
L80.9800 51.4291
" />
<path d="M80.9800 51.4291
L80.9800 51.3625
" />
<path d="M80.9800 51.3625
L80.9467 51.2958
" />
<path d="M80.9467 51.2958
L80.8800 51.2625
" />
<path d="M80.8800 51.2625
L80.7133 51.2625
" />
<path d="M80.7133 51.2625
L80.6467 51.2291
" />
<path d="M80.3133 51.5291
L80.3133 51.0625
" />
<path d="M80.3133 51.1958
L80.2800 51.1291
" />
<path d="M80.2800 51.1291
L80.2467 51.0958
" />
<path d="M80.2467 51.0958
L80.1800 51.0625
" />
<path d="M80.1800 51.0625
L80.1133 51.0625
" />
<path d="M79.5800 51.5291
L79.5800 50.8291
" />
<path d="M79.5800 51.4958
L79.6467 51.5291
" />
<path d="M79.6467 51.5291
L79.7800 51.5291
" />
<path d="M79.7800 51.5291
L79.8467 51.4958
" />
<path d="M79.8467 51.4958
L79.8800 51.4625
" />
<path d="M79.8800 51.4625
L79.9133 51.3958
" />
<path d="M79.9133 51.3958
L79.9133 51.1958
" />
<path d="M79.9133 51.1958
L79.8800 51.1291
" />
<path d="M79.8800 51.1291
L79.8467 51.0958
" />
<path d="M79.8467 51.0958
L79.7800 51.0625
" />
<path d="M79.7800 51.0625
L79.6467 51.0625
" />
<path d="M79.6467 51.0625
L79.5800 51.0958
" />
<path d="M78.3800 51.5291
L78.7133 51.5291
" />
<path d="M78.7133 51.5291
L78.7133 50.8291
" />
<path d="M78.1467 51.1625
L77.9133 51.1625
" />
<path d="M77.8133 51.5291
L78.1467 51.5291
" />
<path d="M78.1467 51.5291
L78.1467 50.8291
" />
<path d="M78.1467 50.8291
L77.8133 50.8291
" />
<path d="M77.5133 51.5291
L77.5133 50.8291
" />
<path d="M77.5133 50.8291
L77.3467 50.8291
" />
<path d="M77.3467 50.8291
L77.2467 50.8625
" />
<path d="M77.2467 50.8625
L77.1800 50.9291
" />
<path d="M77.1800 50.9291
L77.1467 50.9958
" />
<path d="M77.1467 50.9958
L77.1133 51.1291
" />
<path d="M77.1133 51.1291
L77.1133 51.2291
" />
<path d="M77.1133 51.2291
L77.1467 51.3625
" />
<path d="M77.1467 51.3625
L77.1800 51.4291
" />
<path d="M77.1800 51.4291
L77.2467 51.4958
" />
<path d="M77.2467 51.4958
L77.3467 51.5291
" />
<path d="M77.3467 51.5291
L77.5133 51.5291
" />
<path d="M75.8800 51.5291
L76.1133 51.1958
" />
<path d="M76.2800 51.5291
L76.2800 50.8291
" />
<path d="M76.2800 50.8291
L76.0133 50.8291
" />
<path d="M76.0133 50.8291
L75.9467 50.8625
" />
<path d="M75.9467 50.8625
L75.9133 50.8958
" />
<path d="M75.9133 50.8958
L75.8800 50.9625
" />
<path d="M75.8800 50.9625
L75.8800 51.0625
" />
<path d="M75.8800 51.0625
L75.9133 51.1291
" />
<path d="M75.9133 51.1291
L75.9467 51.1625
" />
<path d="M75.9467 51.1625
L76.0133 51.1958
" />
<path d="M76.0133 51.1958
L76.2800 51.1958
" />
<path d="M75.5800 51.5291
L75.5800 51.0625
" />
<path d="M75.5800 50.8291
L75.6133 50.8625
" />
<path d="M75.6133 50.8625
L75.5800 50.8958
" />
<path d="M75.5800 50.8958
L75.5467 50.8625
" />
<path d="M75.5467 50.8625
L75.5800 50.8291
" />
<path d="M75.5800 50.8291
L75.5800 50.8958
" />
<path d="M75.2467 51.0625
L75.2467 51.5291
" />
<path d="M75.2467 51.1291
L75.2133 51.0958
" />
<path d="M75.2133 51.0958
L75.1467 51.0625
" />
<path d="M75.1467 51.0625
L75.0467 51.0625
" />
<path d="M75.0467 51.0625
L74.9800 51.0958
" />
<path d="M74.9800 51.0958
L74.9467 51.1625
" />
<path d="M74.9467 51.1625
L74.9467 51.5291
" />
<path d="M74.3133 51.0625
L74.3133 51.6291
" />
<path d="M74.3133 51.6291
L74.3467 51.6958
" />
<path d="M74.3467 51.6958
L74.3800 51.7291
" />
<path d="M74.3800 51.7291
L74.4467 51.7625
" />
<path d="M74.4467 51.7625
L74.5467 51.7625
" />
<path d="M74.5467 51.7625
L74.6133 51.7291
" />
<path d="M74.3133 51.4958
L74.3800 51.5291
" />
<path d="M74.3800 51.5291
L74.5133 51.5291
" />
<path d="M74.5133 51.5291
L74.5800 51.4958
" />
<path d="M74.5800 51.4958
L74.6133 51.4625
" />
<path d="M74.6133 51.4625
L74.6467 51.3958
" />
<path d="M74.6467 51.3958
L74.6467 51.1958
" />
<path d="M74.6467 51.1958
L74.6133 51.1291
" />
<path d="M74.6133 51.1291
L74.5800 51.0958
" />
<path d="M74.5800 51.0958
L74.5133 51.0625
" />
<path d="M74.5133 51.0625
L74.3800 51.0625
" />
<path d="M74.3800 51.0625
L74.3133 51.0958
" />
</g><g transform="rotate(50.000000 86.6600 52.9600)">
<text x="86.6600" y="53.2100"
transform="scale(-1 1) translate(-173.320000 0)"
textLength="1.5571" font-size="0.6667" lengthAdjust="spacingAndGlyphs"
text-anchor="middle" opacity="0">JP1</text>
</g>
<g class="stroked-text"><desc>JP1</desc>
<path d="M87.1376 53.1031
L86.8641 53.3327
" />
<path d="M86.8641 53.3327
L86.8246 53.3969
" />
<path d="M86.8246 53.3969
L86.8188 53.4639
" />
<path d="M86.8188 53.4639
L86.8464 53.5340
" />
<path d="M86.8464 53.5340
L86.8771 53.5704
" />
<path d="M86.6016 53.2421
L86.9846 52.9207
" />
<path d="M86.9846 52.9207
L86.8622 52.7748
" />
<path d="M86.8622 52.7748
L86.8133 52.7537
" />
<path d="M86.8133 52.7537
L86.7798 52.7507
" />
<path d="M86.7798 52.7507
L86.7280 52.7631
" />
<path d="M86.7280 52.7631
L86.6733 52.8090
" />
<path d="M86.6733 52.8090
L86.6521 52.8578
" />
<path d="M86.6521 52.8578
L86.6492 52.8914
" />
<path d="M86.6492 52.8914
L86.6615 52.9432
" />
<path d="M86.6615 52.9432
L86.7840 53.0891
" />
<path d="M86.1118 52.6585
L86.2955 52.8773
" />
<path d="M86.2037 52.7679
L86.5867 52.4465
" />
<path d="M86.5867 52.4465
L86.5626 52.5289
" />
<path d="M86.5626 52.5289
L86.5567 52.5960
" />
<path d="M86.5567 52.5960
L86.5691 52.6478
" />
</g></g>
<g style="fill:#000000; fill-opacity:0.0; 
stroke:#000000; stroke-width:0.1200; stroke-opacity:1; 
stroke-linecap:round; stroke-linejoin:round;">
<path d="M87.9400 62.0600
L87.9400 57.9400
" />
<path d="M88.2400 62.0600
L87.9400 62.0600
" />
<path d="M90.2400 62.0600
L89.7600 62.0600
" />
<path d="M92.0600 62.0600
L91.7600 62.0600
" />
<path d="M92.0600 62.0600
L92.0600 57.9400
" />
<path d="M88.2400 57.9400
L87.9400 57.9400
" />
<path d="M90.2400 57.9400
L89.7600 57.9400
" />
<path d="M91.7600 57.9400
L91.7600 55.5600
" />
<path d="M92.0600 57.9400
L91.7600 57.9400
" />
<path d="M86.4701 55.4653
L86.9297 55.0796
" />
<path d="M87.0160 54.0934
L86.1161 53.0210
" />
<path d="M84.5840 54.3066
L85.4839 55.3790
" />
<path d="M85.1299 52.9347
L84.6703 53.3204
" />
<path d="M85.4839 55.3790 A0.7000 0.7000 0.0 0 0 86.4701 55.4653" />
<path d="M86.9297 55.0796 A0.7000 0.7000 0.0 0 0 87.0160 54.0934" />
<path d="M84.6703 53.3204 A0.7000 0.7000 0.0 0 0 84.5840 54.3066" />
<path d="M86.1161 53.0210 A0.7000 0.7000 0.0 0 0 85.1299 52.9347" />
<g >
</g>
<g >
</g>
<g >
</g>
<g >
</g>
<g >
</g>
<g >
</g>
<g >
</g>
<g >
</g>
<g >
</g>
<g >
</g>
<g >
</g>
<g >
</g>
<g >
</g>
<g >
</g>
<g >
</g>
<g >
</g>
<g >
</g>
<g >
</g>
<g >
</g>
<g >
</g>
<g >
</g>
<g >
</g>
<g >
</g>
<g >
</g>
<g >
</g>
<g >
</g>
<g >
</g>
<g >
</g>
<g >
</g>
<g >
</g>
<g >
</g>
<g >
</g>
<g >
</g>
<g >
</g>
<g >
</g>
</g>
<g style="fill:#FFFFFF; fill-opacity:0.0; 
stroke:#FFFFFF; stroke-width:0.1200; stroke-opacity:1; 
stroke-linecap:round; stroke-linejoin:round;">
</g>
<g style="fill:#FFFFFF; fill-opacity:1.0000; 
stroke:#FFFFFF; stroke-width:0.0000; stroke-opacity:1; 
stroke-linecap:round; stroke-linejoin:round;">
<circle cx="86.9500" cy="63.1500" r="0.2000" /> 
</g>
<g style="fill:#FFFFFF; fill-opacity:1.0000; 
stroke:#FFFFFF; stroke-width:0.0212; stroke-opacity:1; 
stroke-linecap:round; stroke-linejoin:round;">
</g>
<g style="fill:#FFFFFF; fill-opacity:1.0000; 
stroke:#FFFFFF; stroke-width:0.0000; stroke-opacity:1; 
stroke-linecap:round; stroke-linejoin:round;">
<circle cx="74.0000" cy="52.0000" r="0.2000" /> 
</g>
<g style="fill:#FFFFFF; fill-opacity:1.0000; 
stroke:#FFFFFF; stroke-width:0.0212; stroke-opacity:1; 
stroke-linecap:round; stroke-linejoin:round;">
</g>
<g style="fill:#FFFFFF; fill-opacity:1.0000; 
stroke:#FFFFFF; stroke-width:0.0000; stroke-opacity:1; 
stroke-linecap:round; stroke-linejoin:round;">
<circle cx="70.0718" cy="61.1962" r="0.2000" /> 
</g>
<g style="fill:#FFFFFF; fill-opacity:1.0000; 
stroke:#FFFFFF; stroke-width:0.0212; stroke-opacity:1; 
stroke-linecap:round; stroke-linejoin:round;">
</g>
<g style="fill:#FFFFFF; fill-opacity:1.0000; 
stroke:#FFFFFF; stroke-width:0.0000; stroke-opacity:1; 
stroke-linecap:round; stroke-linejoin:round;">
<circle cx="76.0718" cy="69.1962" r="0.2000" /> 
</g>
<g style="fill:#FFFFFF; fill-opacity:1.0000; 
stroke:#FFFFFF; stroke-width:0.0212; stroke-opacity:1; 
stroke-linecap:round; stroke-linejoin:round;">
</g>
<g style="fill:#FFFFFF; fill-opacity:1.0000; 
stroke:#FFFFFF; stroke-width:0.0000; stroke-opacity:1; 
stroke-linecap:round; stroke-linejoin:round;">
<circle cx="90.0795" cy="56.6500" r="0.2000" /> 
</g>
<g style="fill:#FFFFFF; fill-opacity:1.0000; 
stroke:#FFFFFF; stroke-width:0.0212; stroke-opacity:1; 
stroke-linecap:round; stroke-linejoin:round;">
</g>
<g style="fill:#FFFFFF; fill-opacity:1.0000; 
stroke:#FFFFFF; stroke-width:0.0000; stroke-opacity:1; 
stroke-linecap:round; stroke-linejoin:round;">
<circle cx="81.1962" cy="69.9282" r="0.2000" /> 
</g>
<g style="fill:#FFFFFF; fill-opacity:1.0000; 
stroke:#FFFFFF; stroke-width:0.0212; stroke-opacity:1; 
stroke-linecap:round; stroke-linejoin:round;">
</g>
<g style="fill:#FFFFFF; fill-opacity:1.0000; 
stroke:#FFFFFF; stroke-width:0.0000; stroke-opacity:1; 
stroke-linecap:round; stroke-linejoin:round;">
<circle cx="83.9282" cy="50.8038" r="0.2000" /> 
</g>
<g style="fill:#FFFFFF; fill-opacity:1.0000; 
stroke:#FFFFFF; stroke-width:0.0212; stroke-opacity:1; 
stroke-linecap:round; stroke-linejoin:round;">
</g>
<g style="fill:#FFFFFF; fill-opacity:1.0000; 
stroke:#FFFFFF; stroke-width:0.0000; stroke-opacity:1; 
stroke-linecap:round; stroke-linejoin:round;">
<circle cx="72.0000" cy="66.0000" r="0.2000" /> 
</g>
<g style="fill:#FFFFFF; fill-opacity:1.0000; 
stroke:#FFFFFF; stroke-width:0.0212; stroke-opacity:1; 
stroke-linecap:round; stroke-linejoin:round;">
</g>
<g style="fill:#FFFFFF; fill-opacity:1.0000; 
stroke:#FFFFFF; stroke-width:0.0000; stroke-opacity:1; 
stroke-linecap:round; stroke-linejoin:round;">
<circle cx="86.0000" cy="67.9400" r="0.2000" /> 
</g>
<g style="fill:#FFFFFF; fill-opacity:1.0000; 
stroke:#FFFFFF; stroke-width:0.0212; stroke-opacity:1; 
stroke-linecap:round; stroke-linejoin:round;">
</g>
<g style="fill:#FFFFFF; fill-opacity:1.0000; 
stroke:#FFFFFF; stroke-width:0.0000; stroke-opacity:1; 
stroke-linecap:round; stroke-linejoin:round;">
<circle cx="70.8038" cy="56.0718" r="0.2000" /> 
</g>
<g style="fill:#FFFFFF; fill-opacity:1.0000; 
stroke:#FFFFFF; stroke-width:0.0212; stroke-opacity:1; 
stroke-linecap:round; stroke-linejoin:round;">
</g>
<g style="fill:#FFFFFF; fill-opacity:1.0000; 
stroke:#FFFFFF; stroke-width:0.0000; stroke-opacity:1; 
stroke-linecap:round; stroke-linejoin:round;">
<circle cx="88.0000" cy="54.0000" r="0.2000" /> 
</g>
<g style="fill:#FFFFFF; fill-opacity:1.0000; 
stroke:#FFFFFF; stroke-width:0.0212; stroke-opacity:1; 
stroke-linecap:round; stroke-linejoin:round;">
</g>
<g style="fill:#FFFFFF; fill-opacity:1.0000; 
stroke:#FFFFFF; stroke-width:0.0000; stroke-opacity:1; 
stroke-linecap:round; stroke-linejoin:round;">
<circle cx="88.2600" cy="66.0200" r="0.2000" /> 
</g>
<g style="fill:#FFFFFF; fill-opacity:1.0000; 
stroke:#FFFFFF; stroke-width:0.0212; stroke-opacity:1; 
stroke-linecap:round; stroke-linejoin:round;">
</g>
<g style="fill:#FFFFFF; fill-opacity:1.0000; 
stroke:#FFFFFF; stroke-width:0.0000; stroke-opacity:1; 
stroke-linecap:round; stroke-linejoin:round;">
<circle cx="78.8038" cy="50.0718" r="0.2000" /> 
</g>
<g style="fill:#FFFFFF; fill-opacity:1.0000; 
stroke:#FFFFFF; stroke-width:0.0212; stroke-opacity:1; 
stroke-linecap:round; stroke-linejoin:round;">
</g>
<g style="fill:#FFFFFF; fill-opacity:1.0000; 
stroke:#FFFFFF; stroke-width:0.0000; stroke-opacity:1; 
stroke-linecap:round; stroke-linejoin:round;">
<circle cx="90.4000" cy="61.4000" r="0.2000" /> 
</g>
<g style="fill:#FFFFFF; fill-opacity:1.0000; 
stroke:#FFFFFF; stroke-width:0.0212; stroke-opacity:1; 
stroke-linecap:round; stroke-linejoin:round;">
</g>
<g style="fill:#FFFFFF; fill-opacity:1.0000; 
stroke:#FFFFFF; stroke-width:0.0000; stroke-opacity:1; 
stroke-linecap:round; stroke-linejoin:round;">
<circle cx="91.1500" cy="61.4000" r="0.2000" /> 
</g>
<g style="fill:#FFFFFF; fill-opacity:1.0000; 
stroke:#FFFFFF; stroke-width:0.0212; stroke-opacity:1; 
stroke-linecap:round; stroke-linejoin:round;">
</g>
<g style="fill:#FFFFFF; fill-opacity:1.0000; 
stroke:#FFFFFF; stroke-width:0.0000; stroke-opacity:1; 
stroke-linecap:round; stroke-linejoin:round;">
<circle cx="91.1500" cy="64.8500" r="0.2000" /> 
</g>
<g style="fill:#FFFFFF; fill-opacity:1.0000; 
stroke:#FFFFFF; stroke-width:0.0212; stroke-opacity:1; 
stroke-linecap:round; stroke-linejoin:round;">
</g>
<g style="fill:#FFFFFF; fill-opacity:1.0000; 
stroke:#FFFFFF; stroke-width:0.0000; stroke-opacity:1; 
stroke-linecap:round; stroke-linejoin:round;">
<circle cx="90.4000" cy="64.8500" r="0.2000" /> 
</g>
<g style="fill:#FFFFFF; fill-opacity:1.0000; 
stroke:#FFFFFF; stroke-width:0.0212; stroke-opacity:1; 
stroke-linecap:round; stroke-linejoin:round;">
</g>
<g style="fill:#FFFFFF; fill-opacity:1.0000; 
stroke:#FFFFFF; stroke-width:0.0000; stroke-opacity:1; 
stroke-linecap:round; stroke-linejoin:round;">
<circle cx="87.6982" cy="58.5518" r="0.2000" /> 
</g>
<g style="fill:#FFFFFF; fill-opacity:1.0000; 
stroke:#FFFFFF; stroke-width:0.0212; stroke-opacity:1; 
stroke-linecap:round; stroke-linejoin:round;">
</g>
<g style="fill:#FFFFFF; fill-opacity:1.0000; 
stroke:#FFFFFF; stroke-width:0.0000; stroke-opacity:1; 
stroke-linecap:round; stroke-linejoin:round;">
<circle cx="87.9100" cy="61.1500" r="0.2000" /> 
</g>
<g style="fill:#FFFFFF; fill-opacity:1.0000; 
stroke:#FFFFFF; stroke-width:0.0212; stroke-opacity:1; 
stroke-linecap:round; stroke-linejoin:round;">
</g>
<g style="fill:#000000; fill-opacity:1.0000; 
stroke:#000000; stroke-width:0.0212; stroke-opacity:1; 
stroke-linecap:round; stroke-linejoin:round;">
</g> 
</svg>
