<?xml version="1.0" standalone="no"?>
 <!DOCTYPE svg PUBLIC "-//W3C//DTD SVG 1.1//EN" 
 "http://www.w3.org/Graphics/SVG/1.1/DTD/svg11.dtd"> 
<svg
  xmlns:svg="http://www.w3.org/2000/svg"
  xmlns="http://www.w3.org/2000/svg"
  xmlns:xlink="http://www.w3.org/1999/xlink"
  version="1.1"
  width="297.0022mm" height="210.0072mm" viewBox="0.0000 0.0000 297.0022 210.0072">
<title>SVG Image created as pedalboard-led-ring-B_Fab.svg date 2023/10/21 09:18:30 </title>
  <desc>Image generated by PCBNEW </desc>
<g style="fill:#000000; fill-opacity:1.0000;stroke:#000000; stroke-opacity:1.0000;
stroke-linecap:round; stroke-linejoin:round;"
 transform="translate(0 0) scale(1 1)">
</g>
<g style="fill:#000000; fill-opacity:0.0; 
stroke:#000000; stroke-width:0.0000; stroke-opacity:1; 
stroke-linecap:round; stroke-linejoin:round;">
</g>
<g style="fill:#000000; fill-opacity:0.0; 
stroke:#000000; stroke-width:0.1500; stroke-opacity:1; 
stroke-linecap:round; stroke-linejoin:round;">
<g transform="rotate(-90.000000 86.5000 60.0000)">
<text x="86.5000" y="60.5000"
transform="scale(-1 1) translate(-173.000000 0)"
textLength="4.8690" font-size="1.3333" lengthAdjust="spacingAndGlyphs"
text-anchor="middle" opacity="0">02x02</text>
</g>
<g class="stroked-text"><desc>02x02</desc>
<path d="M85.9548 58.1190
L85.9548 58.2143
" />
<path d="M85.9548 58.2143
L86.0024 58.3095
" />
<path d="M86.0024 58.3095
L86.0501 58.3571
" />
<path d="M86.0501 58.3571
L86.1453 58.4048
" />
<path d="M86.1453 58.4048
L86.3358 58.4524
" />
<path d="M86.3358 58.4524
L86.5739 58.4524
" />
<path d="M86.5739 58.4524
L86.7643 58.4048
" />
<path d="M86.7643 58.4048
L86.8596 58.3571
" />
<path d="M86.8596 58.3571
L86.9072 58.3095
" />
<path d="M86.9072 58.3095
L86.9548 58.2143
" />
<path d="M86.9548 58.2143
L86.9548 58.1190
" />
<path d="M86.9548 58.1190
L86.9072 58.0238
" />
<path d="M86.9072 58.0238
L86.8596 57.9762
" />
<path d="M86.8596 57.9762
L86.7643 57.9286
" />
<path d="M86.7643 57.9286
L86.5739 57.8810
" />
<path d="M86.5739 57.8810
L86.3358 57.8810
" />
<path d="M86.3358 57.8810
L86.1453 57.9286
" />
<path d="M86.1453 57.9286
L86.0501 57.9762
" />
<path d="M86.0501 57.9762
L86.0024 58.0238
" />
<path d="M86.0024 58.0238
L85.9548 58.1190
" />
<path d="M86.0501 58.8333
L86.0024 58.8810
" />
<path d="M86.0024 58.8810
L85.9548 58.9762
" />
<path d="M85.9548 58.9762
L85.9548 59.2143
" />
<path d="M85.9548 59.2143
L86.0024 59.3095
" />
<path d="M86.0024 59.3095
L86.0501 59.3571
" />
<path d="M86.0501 59.3571
L86.1453 59.4048
" />
<path d="M86.1453 59.4048
L86.2405 59.4048
" />
<path d="M86.2405 59.4048
L86.3834 59.3571
" />
<path d="M86.3834 59.3571
L86.9548 58.7857
" />
<path d="M86.9548 58.7857
L86.9548 59.4048
" />
<path d="M86.9548 59.7381
L86.2882 60.2619
" />
<path d="M86.2882 59.7381
L86.9548 60.2619
" />
<path d="M85.9548 60.8333
L85.9548 60.9286
" />
<path d="M85.9548 60.9286
L86.0024 61.0238
" />
<path d="M86.0024 61.0238
L86.0501 61.0714
" />
<path d="M86.0501 61.0714
L86.1453 61.1190
" />
<path d="M86.1453 61.1190
L86.3358 61.1667
" />
<path d="M86.3358 61.1667
L86.5739 61.1667
" />
<path d="M86.5739 61.1667
L86.7643 61.1190
" />
<path d="M86.7643 61.1190
L86.8596 61.0714
" />
<path d="M86.8596 61.0714
L86.9072 61.0238
" />
<path d="M86.9072 61.0238
L86.9548 60.9286
" />
<path d="M86.9548 60.9286
L86.9548 60.8333
" />
<path d="M86.9548 60.8333
L86.9072 60.7381
" />
<path d="M86.9072 60.7381
L86.8596 60.6905
" />
<path d="M86.8596 60.6905
L86.7643 60.6429
" />
<path d="M86.7643 60.6429
L86.5739 60.5952
" />
<path d="M86.5739 60.5952
L86.3358 60.5952
" />
<path d="M86.3358 60.5952
L86.1453 60.6429
" />
<path d="M86.1453 60.6429
L86.0501 60.6905
" />
<path d="M86.0501 60.6905
L86.0024 60.7381
" />
<path d="M86.0024 60.7381
L85.9548 60.8333
" />
<path d="M86.0501 61.5476
L86.0024 61.5952
" />
<path d="M86.0024 61.5952
L85.9548 61.6905
" />
<path d="M85.9548 61.6905
L85.9548 61.9286
" />
<path d="M85.9548 61.9286
L86.0024 62.0238
" />
<path d="M86.0024 62.0238
L86.0501 62.0714
" />
<path d="M86.0501 62.0714
L86.1453 62.1190
" />
<path d="M86.1453 62.1190
L86.2405 62.1190
" />
<path d="M86.2405 62.1190
L86.3834 62.0714
" />
<path d="M86.3834 62.0714
L86.9548 61.5000
" />
<path d="M86.9548 61.5000
L86.9548 62.1190
" />
</g><text x="90.0000" y="60.5000"
transform="scale(-1 1) translate(-180.000000 0)"
textLength="1.9643" font-size="1.3333" lengthAdjust="spacingAndGlyphs"
text-anchor="middle" opacity="0">J1</text>
<g class="stroked-text"><desc>J1</desc>
<path d="M90.3333 59.4548
L90.3333 60.1691
" />
<path d="M90.3333 60.1691
L90.3810 60.3120
" />
<path d="M90.3810 60.3120
L90.4762 60.4072
" />
<path d="M90.4762 60.4072
L90.6190 60.4548
" />
<path d="M90.6190 60.4548
L90.7143 60.4548
" />
<path d="M89.3333 60.4548
L89.9048 60.4548
" />
<path d="M89.6190 60.4548
L89.6190 59.4548
" />
<path d="M89.6190 59.4548
L89.7143 59.5977
" />
<path d="M89.7143 59.5977
L89.8095 59.6929
" />
<path d="M89.8095 59.6929
L89.9048 59.7405
" />
</g><g transform="rotate(50.000000 84.3445 55.4213)">
<text x="84.3445" y="55.9213"
transform="scale(-1 1) translate(-168.689032 0)"
textLength="1.9643" font-size="1.3333" lengthAdjust="spacingAndGlyphs"
text-anchor="middle" opacity="0">SJ</text>
</g>
<g class="stroked-text"><desc>SJ</desc>
<path d="M84.4611 56.1937
L84.3328 56.1149
" />
<path d="M84.3328 56.1149
L84.1798 55.9325
" />
<path d="M84.1798 55.9325
L84.1550 55.8290
" />
<path d="M84.1550 55.8290
L84.1609 55.7619
" />
<path d="M84.1609 55.7619
L84.2032 55.6642
" />
<path d="M84.2032 55.6642
L84.2762 55.6030
" />
<path d="M84.2762 55.6030
L84.3798 55.5782
" />
<path d="M84.3798 55.5782
L84.4468 55.5841
" />
<path d="M84.4468 55.5841
L84.5445 55.6264
" />
<path d="M84.5445 55.6264
L84.7035 55.7417
" />
<path d="M84.7035 55.7417
L84.8012 55.7841
" />
<path d="M84.8012 55.7841
L84.8682 55.7899
" />
<path d="M84.8682 55.7899
L84.9718 55.7652
" />
<path d="M84.9718 55.7652
L85.0448 55.7040
" />
<path d="M85.0448 55.7040
L85.0871 55.6063
" />
<path d="M85.0871 55.6063
L85.0930 55.5392
" />
<path d="M85.0930 55.5392
L85.0682 55.4356
" />
<path d="M85.0682 55.4356
L84.9152 55.2533
" />
<path d="M84.9152 55.2533
L84.7869 55.1744
" />
<path d="M84.3642 54.5966
L83.8171 55.0558
" />
<path d="M83.8171 55.0558
L83.7382 55.1841
" />
<path d="M83.7382 55.1841
L83.7265 55.3183
" />
<path d="M83.7265 55.3183
L83.7818 55.4583
" />
<path d="M83.7818 55.4583
L83.8431 55.5313
" />
</g></g>
<g style="fill:#000000; fill-opacity:0.0; 
stroke:#000000; stroke-width:0.1000; stroke-opacity:1; 
stroke-linecap:round; stroke-linejoin:round;">
<path d="M88.7500 63.0000
L89.2500 63.0000
" />
<path d="M89.2500 63.0000
L89.2500 62.0000
" />
<path d="M90.7500 63.0000
L91.2500 63.0000
" />
<path d="M91.2500 63.0000
L91.2500 62.0000
" />
<path d="M88.0000 62.0000
L92.0000 62.0000
" />
<path d="M88.7500 62.0000
L88.7500 63.0000
" />
<path d="M90.7500 62.0000
L90.7500 63.0000
" />
<path d="M92.0000 62.0000
L92.0000 59.0000
" />
<path d="M92.0000 59.0000
L91.0000 58.0000
" />
<path d="M88.0000 58.0000
L88.0000 62.0000
" />
<path d="M89.2500 58.0000
L89.2500 57.0000
" />
<path d="M91.0000 58.0000
L88.0000 58.0000
" />
<path d="M91.2500 58.0000
L91.2500 57.0000
" />
<path d="M88.7500 57.0000
L88.7500 58.0000
" />
<path d="M89.2500 57.0000
L88.7500 57.0000
" />
<path d="M90.7500 57.0000
L90.7500 58.0000
" />
<path d="M91.2500 57.0000
L90.7500 57.0000
" />
<g >
</g>
<g >
</g>
<g >
</g>
<g >
</g>
<g >
</g>
<g >
</g>
<g >
</g>
<g >
</g>
<g >
</g>
<g >
</g>
<g >
</g>
<g >
</g>
<g >
</g>
<g >
</g>
<g >
</g>
<g >
</g>
<g >
</g>
<g >
</g>
<g >
</g>
<g >
</g>
<g >
</g>
<g >
</g>
<g >
</g>
<g >
</g>
<g >
</g>
<g >
</g>
<g >
</g>
<g >
</g>
<g >
</g>
<g >
</g>
<g >
</g>
<g >
</g>
<g >
</g>
<g >
</g>
</g> 
</svg>
