<?xml version="1.0" standalone="no"?>
 <!DOCTYPE svg PUBLIC "-//W3C//DTD SVG 1.1//EN" 
 "http://www.w3.org/Graphics/SVG/1.1/DTD/svg11.dtd"> 
<svg
  xmlns:svg="http://www.w3.org/2000/svg"
  xmlns="http://www.w3.org/2000/svg"
  xmlns:xlink="http://www.w3.org/1999/xlink"
  version="1.1"
  width="297.0022mm" height="210.0072mm" viewBox="0.0000 0.0000 297.0022 210.0072">
<title>SVG Image created as pedalboard-led-ring-F_Cu.svg date 2023/05/22 19:39:37 </title>
  <desc>Image generated by PCBNEW </desc>
<g style="fill:#000000; fill-opacity:1.0000;stroke:#000000; stroke-opacity:1.0000;
stroke-linecap:round; stroke-linejoin:round;"
 transform="translate(0 0) scale(1 1)">
</g>
<g style="fill:#000000; fill-opacity:0.0; 
stroke:#000000; stroke-width:0.0000; stroke-opacity:1; 
stroke-linecap:round; stroke-linejoin:round;">
<g >
</g>
<g style="fill:#000000; fill-opacity:0.0; 
stroke:#000000; stroke-width:0.0000; stroke-opacity:1; 
stroke-linecap:round; stroke-linejoin:round;">
</g>
<g style="fill:#000000; fill-opacity:1.0000; 
stroke:#000000; stroke-width:0.0000; stroke-opacity:1; 
stroke-linecap:round; stroke-linejoin:round;">
<path style="fill:#000000; fill-opacity:1.0000; 
stroke:#000000; stroke-width:0.0000; stroke-opacity:1; 
stroke-linecap:round; stroke-linejoin:round;fill-rule:evenodd;"
d="M 87.8199,54.7164
88.4694,54.3414
88.8844,55.0602
88.2349,55.4352
Z" /> 
<path style="fill:#000000; fill-opacity:1.0000; 
stroke:#000000; stroke-width:0.0000; stroke-opacity:1; 
stroke-linecap:round; stroke-linejoin:round;fill-rule:evenodd;"
d="M 87.2310,55.0564
87.6640,54.8064
88.0790,55.5252
87.6460,55.7752
Z" /> 
<path style="fill:#000000; fill-opacity:1.0000; 
stroke:#000000; stroke-width:0.0000; stroke-opacity:1; 
stroke-linecap:round; stroke-linejoin:round;fill-rule:evenodd;"
d="M 86.4256,55.5214
87.0751,55.1464
87.4901,55.8652
86.8406,56.2402
Z" /> 
<path style="fill:#000000; fill-opacity:1.0000; 
stroke:#000000; stroke-width:0.0000; stroke-opacity:1; 
stroke-linecap:round; stroke-linejoin:round;fill-rule:evenodd;"
d="M 87.2156,56.8898
87.8651,56.5148
88.2801,57.2336
87.6306,57.6086
Z" /> 
<path style="fill:#000000; fill-opacity:1.0000; 
stroke:#000000; stroke-width:0.0000; stroke-opacity:1; 
stroke-linecap:round; stroke-linejoin:round;fill-rule:evenodd;"
d="M 88.0210,56.4248
88.4540,56.1748
88.8690,56.8936
88.4360,57.1436
Z" /> 
<path style="fill:#000000; fill-opacity:1.0000; 
stroke:#000000; stroke-width:0.0000; stroke-opacity:1; 
stroke-linecap:round; stroke-linejoin:round;fill-rule:evenodd;"
d="M 88.6099,56.0848
89.2594,55.7098
89.6744,56.4286
89.0249,56.8036
Z" /> 
</g>
<g >
</g>
<g style="fill:#000000; fill-opacity:1.0000; 
stroke:#000000; stroke-width:0.0000; stroke-opacity:1; 
stroke-linecap:round; stroke-linejoin:round;">
<path style="fill:#000000; fill-opacity:1.0000; 
stroke:#000000; stroke-width:0.0000; stroke-opacity:1; 
stroke-linecap:round; stroke-linejoin:round;fill-rule:evenodd;"
d="M 81.2050,69.4300
81.2050,70.1800
80.3750,70.1800
80.3750,69.4300
Z" /> 
<path style="fill:#000000; fill-opacity:1.0000; 
stroke:#000000; stroke-width:0.0000; stroke-opacity:1; 
stroke-linecap:round; stroke-linejoin:round;fill-rule:evenodd;"
d="M 81.2050,68.7500
81.2050,69.2500
80.3750,69.2500
80.3750,68.7500
Z" /> 
<path style="fill:#000000; fill-opacity:1.0000; 
stroke:#000000; stroke-width:0.0000; stroke-opacity:1; 
stroke-linecap:round; stroke-linejoin:round;fill-rule:evenodd;"
d="M 81.2050,67.8200
81.2050,68.5700
80.3750,68.5700
80.3750,67.8200
Z" /> 
<path style="fill:#000000; fill-opacity:1.0000; 
stroke:#000000; stroke-width:0.0000; stroke-opacity:1; 
stroke-linecap:round; stroke-linejoin:round;fill-rule:evenodd;"
d="M 79.6250,67.8200
79.6250,68.5700
78.7950,68.5700
78.7950,67.8200
Z" /> 
<path style="fill:#000000; fill-opacity:1.0000; 
stroke:#000000; stroke-width:0.0000; stroke-opacity:1; 
stroke-linecap:round; stroke-linejoin:round;fill-rule:evenodd;"
d="M 79.6250,68.7500
79.6250,69.2500
78.7950,69.2500
78.7950,68.7500
Z" /> 
<path style="fill:#000000; fill-opacity:1.0000; 
stroke:#000000; stroke-width:0.0000; stroke-opacity:1; 
stroke-linecap:round; stroke-linejoin:round;fill-rule:evenodd;"
d="M 79.6250,69.4300
79.6250,70.1800
78.7950,70.1800
78.7950,69.4300
Z" /> 
</g>
<g >
</g>
<g style="fill:#000000; fill-opacity:1.0000; 
stroke:#000000; stroke-width:0.0000; stroke-opacity:1; 
stroke-linecap:round; stroke-linejoin:round;">
<path style="fill:#000000; fill-opacity:1.0000; 
stroke:#000000; stroke-width:0.0000; stroke-opacity:1; 
stroke-linecap:round; stroke-linejoin:round;fill-rule:evenodd;"
d="M 78.7950,50.5700
78.7950,49.8200
79.6250,49.8200
79.6250,50.5700
Z" /> 
<path style="fill:#000000; fill-opacity:1.0000; 
stroke:#000000; stroke-width:0.0000; stroke-opacity:1; 
stroke-linecap:round; stroke-linejoin:round;fill-rule:evenodd;"
d="M 78.7950,51.2500
78.7950,50.7500
79.6250,50.7500
79.6250,51.2500
Z" /> 
<path style="fill:#000000; fill-opacity:1.0000; 
stroke:#000000; stroke-width:0.0000; stroke-opacity:1; 
stroke-linecap:round; stroke-linejoin:round;fill-rule:evenodd;"
d="M 78.7950,52.1800
78.7950,51.4300
79.6250,51.4300
79.6250,52.1800
Z" /> 
<path style="fill:#000000; fill-opacity:1.0000; 
stroke:#000000; stroke-width:0.0000; stroke-opacity:1; 
stroke-linecap:round; stroke-linejoin:round;fill-rule:evenodd;"
d="M 80.3750,52.1800
80.3750,51.4300
81.2050,51.4300
81.2050,52.1800
Z" /> 
<path style="fill:#000000; fill-opacity:1.0000; 
stroke:#000000; stroke-width:0.0000; stroke-opacity:1; 
stroke-linecap:round; stroke-linejoin:round;fill-rule:evenodd;"
d="M 80.3750,51.2500
80.3750,50.7500
81.2050,50.7500
81.2050,51.2500
Z" /> 
<path style="fill:#000000; fill-opacity:1.0000; 
stroke:#000000; stroke-width:0.0000; stroke-opacity:1; 
stroke-linecap:round; stroke-linejoin:round;fill-rule:evenodd;"
d="M 80.3750,50.5700
80.3750,49.8200
81.2050,49.8200
81.2050,50.5700
Z" /> 
</g>
<g >
</g>
<g style="fill:#000000; fill-opacity:1.0000; 
stroke:#000000; stroke-width:0.0000; stroke-opacity:1; 
stroke-linecap:round; stroke-linejoin:round;">
<path style="fill:#000000; fill-opacity:1.0000; 
stroke:#000000; stroke-width:0.0000; stroke-opacity:1; 
stroke-linecap:round; stroke-linejoin:round;fill-rule:evenodd;"
d="M 72.1801,65.2836
71.5306,65.6586
71.1156,64.9398
71.7651,64.5648
Z" /> 
<path style="fill:#000000; fill-opacity:1.0000; 
stroke:#000000; stroke-width:0.0000; stroke-opacity:1; 
stroke-linecap:round; stroke-linejoin:round;fill-rule:evenodd;"
d="M 72.7690,64.9436
72.3360,65.1936
71.9210,64.4748
72.3540,64.2248
Z" /> 
<path style="fill:#000000; fill-opacity:1.0000; 
stroke:#000000; stroke-width:0.0000; stroke-opacity:1; 
stroke-linecap:round; stroke-linejoin:round;fill-rule:evenodd;"
d="M 73.5744,64.4786
72.9249,64.8536
72.5099,64.1348
73.1594,63.7598
Z" /> 
<path style="fill:#000000; fill-opacity:1.0000; 
stroke:#000000; stroke-width:0.0000; stroke-opacity:1; 
stroke-linecap:round; stroke-linejoin:round;fill-rule:evenodd;"
d="M 72.7844,63.1102
72.1349,63.4852
71.7199,62.7664
72.3694,62.3914
Z" /> 
<path style="fill:#000000; fill-opacity:1.0000; 
stroke:#000000; stroke-width:0.0000; stroke-opacity:1; 
stroke-linecap:round; stroke-linejoin:round;fill-rule:evenodd;"
d="M 71.9790,63.5752
71.5460,63.8252
71.1310,63.1064
71.5640,62.8564
Z" /> 
<path style="fill:#000000; fill-opacity:1.0000; 
stroke:#000000; stroke-width:0.0000; stroke-opacity:1; 
stroke-linecap:round; stroke-linejoin:round;fill-rule:evenodd;"
d="M 71.3901,63.9152
70.7406,64.2902
70.3256,63.5714
70.9751,63.1964
Z" /> 
</g>
<g >
</g>
<g style="fill:#000000; fill-opacity:1.0000; 
stroke:#000000; stroke-width:0.0000; stroke-opacity:1; 
stroke-linecap:round; stroke-linejoin:round;">
<path style="fill:#000000; fill-opacity:1.0000; 
stroke:#000000; stroke-width:0.0000; stroke-opacity:1; 
stroke-linecap:round; stroke-linejoin:round;fill-rule:evenodd;"
d="M 70.9751,56.8036
70.3256,56.4286
70.7406,55.7098
71.3901,56.0848
Z" /> 
<path style="fill:#000000; fill-opacity:1.0000; 
stroke:#000000; stroke-width:0.0000; stroke-opacity:1; 
stroke-linecap:round; stroke-linejoin:round;fill-rule:evenodd;"
d="M 71.5640,57.1436
71.1310,56.8936
71.5460,56.1748
71.9790,56.4248
Z" /> 
<path style="fill:#000000; fill-opacity:1.0000; 
stroke:#000000; stroke-width:0.0000; stroke-opacity:1; 
stroke-linecap:round; stroke-linejoin:round;fill-rule:evenodd;"
d="M 72.3694,57.6086
71.7199,57.2336
72.1349,56.5148
72.7844,56.8898
Z" /> 
<path style="fill:#000000; fill-opacity:1.0000; 
stroke:#000000; stroke-width:0.0000; stroke-opacity:1; 
stroke-linecap:round; stroke-linejoin:round;fill-rule:evenodd;"
d="M 73.1594,56.2402
72.5099,55.8652
72.9249,55.1464
73.5744,55.5214
Z" /> 
<path style="fill:#000000; fill-opacity:1.0000; 
stroke:#000000; stroke-width:0.0000; stroke-opacity:1; 
stroke-linecap:round; stroke-linejoin:round;fill-rule:evenodd;"
d="M 72.3540,55.7752
71.9210,55.5252
72.3360,54.8064
72.7690,55.0564
Z" /> 
<path style="fill:#000000; fill-opacity:1.0000; 
stroke:#000000; stroke-width:0.0000; stroke-opacity:1; 
stroke-linecap:round; stroke-linejoin:round;fill-rule:evenodd;"
d="M 71.7651,55.4352
71.1156,55.0602
71.5306,54.3414
72.1801,54.7164
Z" /> 
</g>
<g >
</g>
<g style="fill:#000000; fill-opacity:1.0000; 
stroke:#000000; stroke-width:0.0000; stroke-opacity:1; 
stroke-linecap:round; stroke-linejoin:round;">
<path style="fill:#000000; fill-opacity:1.0000; 
stroke:#000000; stroke-width:0.0000; stroke-opacity:1; 
stroke-linecap:round; stroke-linejoin:round;fill-rule:evenodd;"
d="M 89.0249,63.1964
89.6744,63.5714
89.2594,64.2902
88.6099,63.9152
Z" /> 
<path style="fill:#000000; fill-opacity:1.0000; 
stroke:#000000; stroke-width:0.0000; stroke-opacity:1; 
stroke-linecap:round; stroke-linejoin:round;fill-rule:evenodd;"
d="M 88.4360,62.8564
88.8690,63.1064
88.4540,63.8252
88.0210,63.5752
Z" /> 
<path style="fill:#000000; fill-opacity:1.0000; 
stroke:#000000; stroke-width:0.0000; stroke-opacity:1; 
stroke-linecap:round; stroke-linejoin:round;fill-rule:evenodd;"
d="M 87.6306,62.3914
88.2801,62.7664
87.8651,63.4852
87.2156,63.1102
Z" /> 
<path style="fill:#000000; fill-opacity:1.0000; 
stroke:#000000; stroke-width:0.0000; stroke-opacity:1; 
stroke-linecap:round; stroke-linejoin:round;fill-rule:evenodd;"
d="M 86.8406,63.7598
87.4901,64.1348
87.0751,64.8536
86.4256,64.4786
Z" /> 
<path style="fill:#000000; fill-opacity:1.0000; 
stroke:#000000; stroke-width:0.0000; stroke-opacity:1; 
stroke-linecap:round; stroke-linejoin:round;fill-rule:evenodd;"
d="M 87.6460,64.2248
88.0790,64.4748
87.6640,65.1936
87.2310,64.9436
Z" /> 
<path style="fill:#000000; fill-opacity:1.0000; 
stroke:#000000; stroke-width:0.0000; stroke-opacity:1; 
stroke-linecap:round; stroke-linejoin:round;fill-rule:evenodd;"
d="M 88.2349,64.5648
88.8844,64.9398
88.4694,65.6586
87.8199,65.2836
Z" /> 
</g>
<g >
</g>
<g >
</g>
<g >
</g>
<g >
</g>
<g >
</g>
<g >
</g>
<g style="fill:#000000; fill-opacity:1.0000; 
stroke:#000000; stroke-width:0.0000; stroke-opacity:1; 
stroke-linecap:round; stroke-linejoin:round;">
<circle cx="89.5000" cy="61.4000" r="0.4000" /> 
</g>
<g style="fill:#000000; fill-opacity:1.0000; 
stroke:#000000; stroke-width:0.0212; stroke-opacity:1; 
stroke-linecap:round; stroke-linejoin:round;">
</g>
<g style="fill:#000000; fill-opacity:1.0000; 
stroke:#000000; stroke-width:0.0000; stroke-opacity:1; 
stroke-linecap:round; stroke-linejoin:round;">
<circle cx="90.5000" cy="61.4000" r="0.4000" /> 
</g>
<g style="fill:#000000; fill-opacity:1.0000; 
stroke:#000000; stroke-width:0.0212; stroke-opacity:1; 
stroke-linecap:round; stroke-linejoin:round;">
</g>
<g style="fill:#000000; fill-opacity:1.0000; 
stroke:#000000; stroke-width:0.0000; stroke-opacity:1; 
stroke-linecap:round; stroke-linejoin:round;">
<circle cx="90.5000" cy="62.4000" r="0.4000" /> 
</g>
<g style="fill:#000000; fill-opacity:1.0000; 
stroke:#000000; stroke-width:0.0212; stroke-opacity:1; 
stroke-linecap:round; stroke-linejoin:round;">
</g>
<g style="fill:#000000; fill-opacity:1.0000; 
stroke:#000000; stroke-width:0.0000; stroke-opacity:1; 
stroke-linecap:round; stroke-linejoin:round;">
<circle cx="95.6000" cy="72.7000" r="0.4000" /> 
</g>
<g style="fill:#000000; fill-opacity:1.0000; 
stroke:#000000; stroke-width:0.0212; stroke-opacity:1; 
stroke-linecap:round; stroke-linejoin:round;">
</g>
<g style="fill:#000000; fill-opacity:1.0000; 
stroke:#000000; stroke-width:0.0000; stroke-opacity:1; 
stroke-linecap:round; stroke-linejoin:round;">
<circle cx="97.3750" cy="55.6000" r="0.4000" /> 
</g>
<g style="fill:#000000; fill-opacity:1.0000; 
stroke:#000000; stroke-width:0.0212; stroke-opacity:1; 
stroke-linecap:round; stroke-linejoin:round;">
</g>
<g style="fill:#000000; fill-opacity:1.0000; 
stroke:#000000; stroke-width:0.0000; stroke-opacity:1; 
stroke-linecap:round; stroke-linejoin:round;">
<circle cx="92.4000" cy="55.5000" r="0.4000" /> 
</g>
<g style="fill:#000000; fill-opacity:1.0000; 
stroke:#000000; stroke-width:0.0212; stroke-opacity:1; 
stroke-linecap:round; stroke-linejoin:round;">
</g>
<g style="fill:#000000; fill-opacity:1.0000; 
stroke:#000000; stroke-width:0.0000; stroke-opacity:1; 
stroke-linecap:round; stroke-linejoin:round;">
<circle cx="90.8000" cy="53.4000" r="0.4000" /> 
</g>
<g style="fill:#000000; fill-opacity:1.0000; 
stroke:#000000; stroke-width:0.0212; stroke-opacity:1; 
stroke-linecap:round; stroke-linejoin:round;">
</g>
<g style="fill:#000000; fill-opacity:1.0000; 
stroke:#000000; stroke-width:0.0000; stroke-opacity:1; 
stroke-linecap:round; stroke-linejoin:round;">
<circle cx="90.8000" cy="52.2000" r="0.4000" /> 
</g>
<g style="fill:#000000; fill-opacity:1.0000; 
stroke:#000000; stroke-width:0.0212; stroke-opacity:1; 
stroke-linecap:round; stroke-linejoin:round;">
</g>
<g >
</g>
<g style="fill:#000000; fill-opacity:1.0000; 
stroke:#000000; stroke-width:0.0212; stroke-opacity:1; 
stroke-linecap:round; stroke-linejoin:round;">
</g>
<g style="fill:#000000; fill-opacity:1.0000; 
stroke:#000000; stroke-width:0.2500; stroke-opacity:1; 
stroke-linecap:round; stroke-linejoin:round;">
</g>
<g style="fill:#000000; fill-opacity:0.0; 
stroke:#000000; stroke-width:0.2500; stroke-opacity:1; 
stroke-linecap:round; stroke-linejoin:round;">
<path d="M83.1050 68.1950
L80.7900 68.1950
" />
<path d="M86.9578 64.3067
L86.9578 64.3422
" />
<path d="M86.9578 64.3422
L83.1050 68.1950
" />
<path d="M87.6550 64.7450
L83.4000 69.0000
" />
<path d="M87.6550 64.7092
L87.6550 64.7450
" />
<path d="M83.4000 69.0000
L80.7900 69.0000
" />
<path d="M88.3521 65.1117
L83.6588 69.8050
" />
<path d="M83.6588 69.8050
L80.7900 69.8050
" />
<path d="M76.7950 68.1950
L73.0421 64.4421
" />
<path d="M79.2100 68.1950
L76.7950 68.1950
" />
<path d="M73.0421 64.4421
L73.0421 64.3067
" />
<path d="M76.5000 69.0000
L72.3450 64.8450
" />
<path d="M72.3450 64.8450
L72.3450 64.7092
" />
<path d="M79.2100 69.0000
L76.5000 69.0000
" />
<path d="M79.2100 69.8050
L76.3412 69.8050
" />
<path d="M76.3412 69.8050
L71.6478 65.1117
" />
<path d="M72.2522 62.9383
L72.1000 62.7862
" />
<path d="M72.1000 57.2138
L72.2522 57.0617
" />
<path d="M72.1000 62.7862
L72.1000 57.2138
" />
<path d="M71.3000 63.0858
L71.3000 56.9142
" />
<path d="M71.5550 63.3408
L71.3000 63.0858
" />
<path d="M71.3000 56.9142
L71.5550 56.6592
" />
<path d="M70.8578 63.7433
L70.6000 63.4855
" />
<path d="M70.6000 63.4855
L70.6000 56.5145
" />
<path d="M70.6000 56.5145
L70.8578 56.2567
" />
<path d="M76.9305 51.8050
L79.2100 51.8050
" />
<path d="M73.0421 55.6933
L76.9305 51.8050
" />
<path d="M76.6117 51.0000
L72.3329 55.2788
" />
<path d="M79.2100 51.0000
L76.6117 51.0000
" />
<path d="M79.2100 50.1950
L76.3412 50.1950
" />
<path d="M76.3412 50.1950
L71.6478 54.8883
" />
<path d="M80.7900 51.8050
L83.0695 51.8050
" />
<path d="M83.0695 51.8050
L86.9578 55.6933
" />
<path d="M85.6000 53.2000
L85.6000 53.2117
" />
<path d="M83.4000 51.0000
L85.6000 53.2000
" />
<path d="M80.7900 51.0000
L83.4000 51.0000
" />
<path d="M85.6000 53.2117
L87.6671 55.2788
" />
<path d="M83.6588 50.1950
L88.3521 54.8883
" />
<path d="M80.7900 50.1950
L83.6588 50.1950
" />
<path d="M87.7478 57.0617
L88.2500 57.5638
" />
<path d="M88.3000 57.8000
L88.2500 57.7500
" />
<path d="M88.2500 57.5638
L88.2500 57.7500
" />
<path d="M92.4000 55.5000
L90.1000 57.8000
" />
<path d="M90.1000 57.8000
L88.3000 57.8000
" />
<path d="M90.8000 53.4000
L90.8000 56.1000
" />
<path d="M90.8000 56.1000
L89.6000 57.3000
" />
<path d="M89.0617 57.3000
L88.4329 56.6712
" />
<path d="M89.6000 57.3000
L89.0617 57.3000
" />
<path d="M90.1000 55.5000
L90.0750 55.4750
" />
<path d="M89.6000 56.0000
L90.1000 55.5000
" />
<path d="M89.3988 56.0000
L89.6000 56.0000
" />
<path d="M90.0750 55.4750
L90.0750 52.9250
" />
<path d="M90.0750 52.9250
L90.8000 52.2000
" />
<path d="M89.1422 56.2567
L89.3988 56.0000
" />
</g>
<g >
</g>
<g style="fill:#000000; fill-opacity:0.0; 
stroke:#000000; stroke-width:0.2500; stroke-opacity:1; 
stroke-linecap:round; stroke-linejoin:round;">
<g >
</g>
<g style="fill:#000000; fill-opacity:1.0000; 
stroke:#000000; stroke-width:0.0000; stroke-opacity:1; 
stroke-linecap:round; stroke-linejoin:round;">
<path style="fill:#000000; fill-opacity:1.0000; 
stroke:#000000; stroke-width:0.0000; stroke-opacity:1; 
stroke-linecap:round; stroke-linejoin:round;fill-rule:evenodd;"
d="M 101.8779,54.1977
101.9445,54.2186
101.9893,54.2723
101.9995,54.3216
101.9995,72.9946
101.9990,73.0054
101.9955,73.0454
101.9831,73.1718
101.9795,73.1917
101.9621,73.2564
101.9610,73.2603
101.9333,73.3516
101.9270,73.3680
101.8963,73.4338
101.8933,73.4399
101.8510,73.5190
101.8432,73.5317
101.8004,73.5929
101.7946,73.6004
101.7770,73.6220
101.7623,73.6370
101.6679,73.7189
101.6506,73.7457
101.6250,73.7745
101.6004,73.7946
101.5929,73.8004
101.5317,73.8432
101.5190,73.8510
101.4732,73.8755
101.4399,73.8933
101.4338,73.8963
101.3680,73.9270
101.3516,73.9333
101.2603,73.9610
101.2564,73.9621
101.1917,73.9795
101.1718,73.9831
101.0454,73.9955
101.0261,73.9972
101.0054,73.9990
100.9946,73.9995
91.1240,73.9995
91.0570,73.9798
91.0112,73.9270
91.0000,73.8755
91.0000,68.0240
91.0197,67.9570
91.0725,67.9112
91.1240,67.9000
96.7000,67.9000
96.7000,67.9000
96.7991,54.2255
96.8193,54.1586
96.8724,54.1132
96.9255,54.1024
Z" /> 
</g>
</g>
<g style="fill:#000000; fill-opacity:1.0000; 
stroke:#000000; stroke-width:0.0000; stroke-opacity:1; 
stroke-linecap:round; stroke-linejoin:round;">
<g >
<path style="fill:#000000; fill-opacity:1.0000; 
stroke:#000000; stroke-width:0.0000; stroke-opacity:1; 
stroke-linecap:round; stroke-linejoin:round;fill-rule:evenodd;"
d="M 91.7430,58.7197
91.7888,58.7725
91.8000,58.8240
91.8000,61.5000
95.6790,61.5000
95.7460,61.5197
95.7918,61.5725
95.8029,61.6210
95.8965,65.4584
95.8969,65.4730
95.8789,65.5405
95.8272,65.5875
95.7729,65.6000
89.2959,65.6000
89.2289,65.5803
89.1831,65.5275
89.1732,65.4584
89.1885,65.4140
89.2283,65.3451
89.3418,65.1486
89.3660,65.0937
89.3899,64.9518
89.3812,64.8789
89.3928,64.8100
89.4398,64.7583
89.4555,64.7502
89.5223,64.7216
89.6332,64.6300
89.6665,64.5843
89.6702,64.5788
89.7749,64.3973
89.7749,64.3973
89.1717,64.0490
89.1717,64.0490
88.4837,63.6518
89.4837,63.6518
90.0249,63.9643
90.0249,63.9643
90.1297,63.7829
90.1327,63.7770
90.1556,63.7252
90.1794,63.5835
90.1623,63.4407
90.1057,63.3085
90.0142,63.1977
89.9685,63.1643
89.9629,63.1607
89.8162,63.0759
89.8162,63.0759
89.4837,63.6518
89.4837,63.6518
88.4837,63.6518
88.0987,63.4296
88.0987,63.4296
87.8000,63.2571
87.8000,63.2493
88.7865,63.2493
88.7913,63.2521
88.7913,63.2521
89.0506,63.4018
89.0506,63.4018
89.3831,62.8259
89.3831,62.8259
89.2363,62.7412
89.2304,62.7382
89.2069,62.7277
89.1839,62.7145
89.1631,62.6993
89.1575,62.6957
89.1190,62.6734
89.1190,62.6734
88.7865,63.2493
88.7865,63.2493
87.8000,63.2493
87.8000,62.8468
88.0894,62.8468
88.3535,62.9993
88.3535,62.9993
88.6860,62.4234
88.6860,62.4234
88.6475,62.4012
88.6415,62.3982
88.6180,62.3877
88.5950,62.3745
88.5742,62.3593
88.5686,62.3557
88.4219,62.2709
88.4219,62.2709
88.0894,62.8468
88.0894,62.8468
87.8000,62.8468
87.8000,62.3480
87.9888,62.0209
87.9888,62.0209
87.8620,61.9477
87.8138,61.8971
87.8000,61.8403
87.8000,58.8240
87.8197,58.7570
87.8725,58.7112
87.9240,58.7000
91.6760,58.7000
Z" /> 
</g>
</g>
</g>
<g style="fill:#FFFFFF; fill-opacity:1.0000; 
stroke:#FFFFFF; stroke-width:0.0000; stroke-opacity:1; 
stroke-linecap:round; stroke-linejoin:round;">
<circle cx="89.5000" cy="61.4000" r="0.2000" /> 
</g>
<g style="fill:#FFFFFF; fill-opacity:1.0000; 
stroke:#FFFFFF; stroke-width:0.0212; stroke-opacity:1; 
stroke-linecap:round; stroke-linejoin:round;">
</g>
<g style="fill:#FFFFFF; fill-opacity:1.0000; 
stroke:#FFFFFF; stroke-width:0.0000; stroke-opacity:1; 
stroke-linecap:round; stroke-linejoin:round;">
<circle cx="90.5000" cy="61.4000" r="0.2000" /> 
</g>
<g style="fill:#FFFFFF; fill-opacity:1.0000; 
stroke:#FFFFFF; stroke-width:0.0212; stroke-opacity:1; 
stroke-linecap:round; stroke-linejoin:round;">
</g>
<g style="fill:#FFFFFF; fill-opacity:1.0000; 
stroke:#FFFFFF; stroke-width:0.0000; stroke-opacity:1; 
stroke-linecap:round; stroke-linejoin:round;">
<circle cx="90.5000" cy="62.4000" r="0.2000" /> 
</g>
<g style="fill:#FFFFFF; fill-opacity:1.0000; 
stroke:#FFFFFF; stroke-width:0.0212; stroke-opacity:1; 
stroke-linecap:round; stroke-linejoin:round;">
</g>
<g style="fill:#FFFFFF; fill-opacity:1.0000; 
stroke:#FFFFFF; stroke-width:0.0000; stroke-opacity:1; 
stroke-linecap:round; stroke-linejoin:round;">
<circle cx="95.6000" cy="72.7000" r="0.2000" /> 
</g>
<g style="fill:#FFFFFF; fill-opacity:1.0000; 
stroke:#FFFFFF; stroke-width:0.0212; stroke-opacity:1; 
stroke-linecap:round; stroke-linejoin:round;">
</g>
<g style="fill:#FFFFFF; fill-opacity:1.0000; 
stroke:#FFFFFF; stroke-width:0.0000; stroke-opacity:1; 
stroke-linecap:round; stroke-linejoin:round;">
<circle cx="97.3750" cy="55.6000" r="0.2000" /> 
</g>
<g style="fill:#FFFFFF; fill-opacity:1.0000; 
stroke:#FFFFFF; stroke-width:0.0212; stroke-opacity:1; 
stroke-linecap:round; stroke-linejoin:round;">
</g>
<g style="fill:#FFFFFF; fill-opacity:1.0000; 
stroke:#FFFFFF; stroke-width:0.0000; stroke-opacity:1; 
stroke-linecap:round; stroke-linejoin:round;">
<circle cx="92.4000" cy="55.5000" r="0.2000" /> 
</g>
<g style="fill:#FFFFFF; fill-opacity:1.0000; 
stroke:#FFFFFF; stroke-width:0.0212; stroke-opacity:1; 
stroke-linecap:round; stroke-linejoin:round;">
</g>
<g style="fill:#FFFFFF; fill-opacity:1.0000; 
stroke:#FFFFFF; stroke-width:0.0000; stroke-opacity:1; 
stroke-linecap:round; stroke-linejoin:round;">
<circle cx="90.8000" cy="53.4000" r="0.2000" /> 
</g>
<g style="fill:#FFFFFF; fill-opacity:1.0000; 
stroke:#FFFFFF; stroke-width:0.0212; stroke-opacity:1; 
stroke-linecap:round; stroke-linejoin:round;">
</g>
<g style="fill:#FFFFFF; fill-opacity:1.0000; 
stroke:#FFFFFF; stroke-width:0.0000; stroke-opacity:1; 
stroke-linecap:round; stroke-linejoin:round;">
<circle cx="90.8000" cy="52.2000" r="0.2000" /> 
</g>
<g style="fill:#FFFFFF; fill-opacity:1.0000; 
stroke:#FFFFFF; stroke-width:0.0212; stroke-opacity:1; 
stroke-linecap:round; stroke-linejoin:round;">
</g>
<g style="fill:#000000; fill-opacity:1.0000; 
stroke:#000000; stroke-width:0.0212; stroke-opacity:1; 
stroke-linecap:round; stroke-linejoin:round;">
</g> 
</svg>
