<?xml version="1.0" standalone="no"?>
 <!DOCTYPE svg PUBLIC "-//W3C//DTD SVG 1.1//EN" 
 "http://www.w3.org/Graphics/SVG/1.1/DTD/svg11.dtd"> 
<svg
  xmlns:svg="http://www.w3.org/2000/svg"
  xmlns="http://www.w3.org/2000/svg"
  xmlns:xlink="http://www.w3.org/1999/xlink"
  version="1.1"
  width="297.0022mm" height="210.0072mm" viewBox="0.0000 0.0000 297.0022 210.0072">
<title>SVG Image created as pedalboard-led-ring-F_Silkscreen.svg date 2023/06/03 10:50:29 </title>
  <desc>Image generated by PCBNEW </desc>
<g style="fill:#000000; fill-opacity:1.0000;stroke:#000000; stroke-opacity:1.0000;
stroke-linecap:round; stroke-linejoin:round;"
 transform="translate(0 0) scale(1 1)">
</g>
<g style="fill:#000000; fill-opacity:0.0; 
stroke:#000000; stroke-width:0.0000; stroke-opacity:1; 
stroke-linecap:round; stroke-linejoin:round;">
</g>
<g style="fill:#000000; fill-opacity:0.0; 
stroke:#000000; stroke-width:0.1000; stroke-opacity:1; 
stroke-linecap:round; stroke-linejoin:round;">
<text x="80.0000" y="60.0000"
textLength="2.0500" font-size="1.3333" lengthAdjust="spacingAndGlyphs"
text-anchor="middle" opacity="0">H4</text>
<g class="stroked-text"><desc>H4</desc>
<path d="M79.2381 59.9574
L79.2381 58.9574
" />
<path d="M79.2381 59.4336
L79.8095 59.4336
" />
<path d="M79.8095 59.9574
L79.8095 58.9574
" />
<path d="M80.7143 59.2908
L80.7143 59.9574
" />
<path d="M80.4762 58.9098
L80.2381 59.6241
" />
<path d="M80.2381 59.6241
L80.8571 59.6241
" />
</g><path d="M85.6611 68.1054
L85.3361 67.5424
" />
<path d="M85.0982 68.4304
L85.6611 68.1054
" />
<path d="M89.8500 59.1500
L89.2000 59.1500
" />
<path d="M89.8500 59.8000
L89.8500 59.1500
" />
<path d="M79.1500 50.1500
L79.1500 50.8000
" />
<path d="M79.8000 50.1500
L79.1500 50.1500
" />
<path d="M88.9554 64.1889
L88.3924 63.8639
" />
<path d="M88.6304 64.7518
L88.9554 64.1889
" />
<path d="M71.8946 65.6611
L72.4576 65.3361
" />
<path d="M71.5696 65.0982
L71.8946 65.6611
" />
<path d="M80.8500 69.8500
L80.8500 69.2000
" />
<path d="M80.2000 69.8500
L80.8500 69.8500
" />
<path d="M70.1500 60.8500
L70.8000 60.8500
" />
<path d="M70.1500 60.2000
L70.1500 60.8500
" />
<path d="M71.0446 55.8111
L71.6076 56.1361
" />
<path d="M71.3696 55.2482
L71.0446 55.8111
" />
<path d="M88.1054 54.3389
L87.5424 54.6639
" />
<path d="M88.4304 54.9018
L88.1054 54.3389
" />
<path d="M74.3389 51.8946
L74.6639 52.4576
" />
<path d="M74.9018 51.5696
L74.3389 51.8946
" />
<path d="M75.8111 68.9554
L76.1361 68.3924
" />
<path d="M75.2482 68.6304
L75.8111 68.9554
" />
<path d="M84.1889 51.0446
L83.8639 51.6076
" />
<path d="M84.7518 51.3696
L84.1889 51.0446
" />
<g >
</g>
<g >
</g>
<g >
</g>
<g >
</g>
<g >
</g>
<g >
</g>
<g >
</g>
<g >
</g>
<g >
</g>
<g >
</g>
<g >
</g>
<g >
</g>
<g >
</g>
<g >
</g>
<g >
</g>
<g >
</g>
<g >
</g>
<g >
</g>
<g >
</g>
<g >
</g>
<g >
</g>
<g >
</g>
<g >
</g>
<g >
</g>
<g >
</g>
<g >
</g>
<g >
</g>
<g >
</g>
<g >
</g>
<g >
</g>
<g >
</g>
<g >
</g>
<g >
</g>
<g >
</g>
</g> 
</svg>
