<?xml version="1.0" standalone="no"?>
 <!DOCTYPE svg PUBLIC "-//W3C//DTD SVG 1.1//EN" 
 "http://www.w3.org/Graphics/SVG/1.1/DTD/svg11.dtd"> 
<svg
  xmlns:svg="http://www.w3.org/2000/svg"
  xmlns="http://www.w3.org/2000/svg"
  xmlns:xlink="http://www.w3.org/1999/xlink"
  version="1.1"
  width="297.0022mm" height="210.0072mm" viewBox="0.0000 0.0000 297.0022 210.0072">
<title>SVG Image created as pedalboard-led-ring-B_Cu.svg date 2023/06/03 17:33:24 </title>
  <desc>Image generated by PCBNEW </desc>
<g style="fill:#000000; fill-opacity:1.0000;stroke:#000000; stroke-opacity:1.0000;
stroke-linecap:round; stroke-linejoin:round;"
 transform="translate(0 0) scale(1 1)">
</g>
<g style="fill:#000000; fill-opacity:0.0; 
stroke:#000000; stroke-width:0.0000; stroke-opacity:1; 
stroke-linecap:round; stroke-linejoin:round;">
<g >
</g>
<g >
</g>
<g >
</g>
<g >
</g>
<g >
</g>
<g >
</g>
<g >
</g>
<g >
</g>
<g >
</g>
<g >
</g>
<g >
</g>
<g >
</g>
<g >
</g>
<g >
</g>
<g >
</g>
<g >
</g>
<g >
</g>
<g >
</g>
<g >
</g>
<g >
</g>
<g >
</g>
<g >
</g>
<g >
</g>
<g >
</g>
<g >
</g>
<g >
</g>
<g >
</g>
<g >
</g>
<g >
</g>
<g >
</g>
<g style="fill:#000000; fill-opacity:0.0; 
stroke:#000000; stroke-width:0.0000; stroke-opacity:1; 
stroke-linecap:round; stroke-linejoin:round;">
</g>
<g style="fill:#000000; fill-opacity:0.0; 
stroke:#000000; stroke-width:0.0000; stroke-opacity:1; 
stroke-linecap:round; stroke-linejoin:round;">
</g>
<g style="fill:#000000; fill-opacity:1.0000; 
stroke:#000000; stroke-width:0.0000; stroke-opacity:1; 
stroke-linecap:round; stroke-linejoin:round;">
<path style="fill:#000000; fill-opacity:1.0000; 
stroke:#000000; stroke-width:0.0000; stroke-opacity:1; 
stroke-linecap:round; stroke-linejoin:round;fill-rule:evenodd;"
d="M 205.5022,58.2500
206.5022,58.2500
206.5022,55.5000
205.5022,55.5000
Z" /> 
<path style="fill:#000000; fill-opacity:1.0000; 
stroke:#000000; stroke-width:0.0000; stroke-opacity:1; 
stroke-linecap:round; stroke-linejoin:round;fill-rule:evenodd;"
d="M 205.5022,64.5000
206.5022,64.5000
206.5022,61.7500
205.5022,61.7500
Z" /> 
<path style="fill:#000000; fill-opacity:1.0000; 
stroke:#000000; stroke-width:0.0000; stroke-opacity:1; 
stroke-linecap:round; stroke-linejoin:round;fill-rule:evenodd;"
d="M 207.5022,58.2500
208.5022,58.2500
208.5022,55.5000
207.5022,55.5000
Z" /> 
<path style="fill:#000000; fill-opacity:1.0000; 
stroke:#000000; stroke-width:0.0000; stroke-opacity:1; 
stroke-linecap:round; stroke-linejoin:round;fill-rule:evenodd;"
d="M 207.5022,64.5000
208.5022,64.5000
208.5022,61.7500
207.5022,61.7500
Z" /> 
</g>
<g >
</g>
<g style="fill:#000000; fill-opacity:1.0000; 
stroke:#000000; stroke-width:0.0000; stroke-opacity:1; 
stroke-linecap:round; stroke-linejoin:round;">
<path style="fill:#000000; fill-opacity:1.0000; 
stroke:#000000; stroke-width:0.0000; stroke-opacity:1; 
stroke-linecap:round; stroke-linejoin:round;fill-rule:evenodd;"
d="M 205.2522,71.5000
205.2522,70.5000
202.5022,70.5000
202.5022,71.5000
Z" /> 
<path style="fill:#000000; fill-opacity:1.0000; 
stroke:#000000; stroke-width:0.0000; stroke-opacity:1; 
stroke-linecap:round; stroke-linejoin:round;fill-rule:evenodd;"
d="M 211.5022,71.5000
211.5022,70.5000
208.7522,70.5000
208.7522,71.5000
Z" /> 
<path style="fill:#000000; fill-opacity:1.0000; 
stroke:#000000; stroke-width:0.0000; stroke-opacity:1; 
stroke-linecap:round; stroke-linejoin:round;fill-rule:evenodd;"
d="M 205.2522,69.5000
205.2522,68.5000
202.5022,68.5000
202.5022,69.5000
Z" /> 
<path style="fill:#000000; fill-opacity:1.0000; 
stroke:#000000; stroke-width:0.0000; stroke-opacity:1; 
stroke-linecap:round; stroke-linejoin:round;fill-rule:evenodd;"
d="M 211.5022,69.5000
211.5022,68.5000
208.7522,68.5000
208.7522,69.5000
Z" /> 
</g>
<g >
</g>
<g style="fill:#000000; fill-opacity:1.0000; 
stroke:#000000; stroke-width:0.0000; stroke-opacity:1; 
stroke-linecap:round; stroke-linejoin:round;">
<circle cx="210.2022" cy="63.6000" r="0.4000" /> 
</g>
<g style="fill:#000000; fill-opacity:1.0000; 
stroke:#000000; stroke-width:0.0212; stroke-opacity:1; 
stroke-linecap:round; stroke-linejoin:round;">
</g>
<g style="fill:#000000; fill-opacity:1.0000; 
stroke:#000000; stroke-width:0.0000; stroke-opacity:1; 
stroke-linecap:round; stroke-linejoin:round;">
<circle cx="223.0022" cy="52.0000" r="0.4000" /> 
</g>
<g style="fill:#000000; fill-opacity:1.0000; 
stroke:#000000; stroke-width:0.0212; stroke-opacity:1; 
stroke-linecap:round; stroke-linejoin:round;">
</g>
<g style="fill:#000000; fill-opacity:1.0000; 
stroke:#000000; stroke-width:0.0000; stroke-opacity:1; 
stroke-linecap:round; stroke-linejoin:round;">
<circle cx="207.0740" cy="58.8038" r="0.4000" /> 
</g>
<g style="fill:#000000; fill-opacity:1.0000; 
stroke:#000000; stroke-width:0.0212; stroke-opacity:1; 
stroke-linecap:round; stroke-linejoin:round;">
</g>
<g style="fill:#000000; fill-opacity:1.0000; 
stroke:#000000; stroke-width:0.0000; stroke-opacity:1; 
stroke-linecap:round; stroke-linejoin:round;">
<circle cx="226.9304" cy="61.1962" r="0.4000" /> 
</g>
<g style="fill:#000000; fill-opacity:1.0000; 
stroke:#000000; stroke-width:0.0212; stroke-opacity:1; 
stroke-linecap:round; stroke-linejoin:round;">
</g>
<g style="fill:#000000; fill-opacity:1.0000; 
stroke:#000000; stroke-width:0.0000; stroke-opacity:1; 
stroke-linecap:round; stroke-linejoin:round;">
<circle cx="220.9304" cy="69.1962" r="0.4000" /> 
</g>
<g style="fill:#000000; fill-opacity:1.0000; 
stroke:#000000; stroke-width:0.0212; stroke-opacity:1; 
stroke-linecap:round; stroke-linejoin:round;">
</g>
<g style="fill:#000000; fill-opacity:1.0000; 
stroke:#000000; stroke-width:0.0000; stroke-opacity:1; 
stroke-linecap:round; stroke-linejoin:round;">
<circle cx="215.8060" cy="69.9282" r="0.4000" /> 
</g>
<g style="fill:#000000; fill-opacity:1.0000; 
stroke:#000000; stroke-width:0.0212; stroke-opacity:1; 
stroke-linecap:round; stroke-linejoin:round;">
</g>
<g style="fill:#000000; fill-opacity:1.0000; 
stroke:#000000; stroke-width:0.0000; stroke-opacity:1; 
stroke-linecap:round; stroke-linejoin:round;">
<circle cx="213.0740" cy="50.8038" r="0.4000" /> 
</g>
<g style="fill:#000000; fill-opacity:1.0000; 
stroke:#000000; stroke-width:0.0212; stroke-opacity:1; 
stroke-linecap:round; stroke-linejoin:round;">
</g>
<g style="fill:#000000; fill-opacity:1.0000; 
stroke:#000000; stroke-width:0.0000; stroke-opacity:1; 
stroke-linecap:round; stroke-linejoin:round;">
<circle cx="225.0022" cy="66.0000" r="0.4000" /> 
</g>
<g style="fill:#000000; fill-opacity:1.0000; 
stroke:#000000; stroke-width:0.0212; stroke-opacity:1; 
stroke-linecap:round; stroke-linejoin:round;">
</g>
<g style="fill:#000000; fill-opacity:1.0000; 
stroke:#000000; stroke-width:0.0000; stroke-opacity:1; 
stroke-linecap:round; stroke-linejoin:round;">
<circle cx="210.6022" cy="67.7000" r="0.4000" /> 
</g>
<g style="fill:#000000; fill-opacity:1.0000; 
stroke:#000000; stroke-width:0.0212; stroke-opacity:1; 
stroke-linecap:round; stroke-linejoin:round;">
</g>
<g style="fill:#000000; fill-opacity:1.0000; 
stroke:#000000; stroke-width:0.0000; stroke-opacity:1; 
stroke-linecap:round; stroke-linejoin:round;">
<circle cx="226.1984" cy="56.0718" r="0.4000" /> 
</g>
<g style="fill:#000000; fill-opacity:1.0000; 
stroke:#000000; stroke-width:0.0212; stroke-opacity:1; 
stroke-linecap:round; stroke-linejoin:round;">
</g>
<g style="fill:#000000; fill-opacity:1.0000; 
stroke:#000000; stroke-width:0.0000; stroke-opacity:1; 
stroke-linecap:round; stroke-linejoin:round;">
<circle cx="209.0022" cy="54.0000" r="0.4000" /> 
</g>
<g style="fill:#000000; fill-opacity:1.0000; 
stroke:#000000; stroke-width:0.0212; stroke-opacity:1; 
stroke-linecap:round; stroke-linejoin:round;">
</g>
<g style="fill:#000000; fill-opacity:1.0000; 
stroke:#000000; stroke-width:0.0000; stroke-opacity:1; 
stroke-linecap:round; stroke-linejoin:round;">
<circle cx="208.5022" cy="66.0000" r="0.4000" /> 
</g>
<g style="fill:#000000; fill-opacity:1.0000; 
stroke:#000000; stroke-width:0.0212; stroke-opacity:1; 
stroke-linecap:round; stroke-linejoin:round;">
</g>
<g style="fill:#000000; fill-opacity:1.0000; 
stroke:#000000; stroke-width:0.0000; stroke-opacity:1; 
stroke-linecap:round; stroke-linejoin:round;">
<circle cx="218.1984" cy="50.0718" r="0.4000" /> 
</g>
<g style="fill:#000000; fill-opacity:1.0000; 
stroke:#000000; stroke-width:0.0212; stroke-opacity:1; 
stroke-linecap:round; stroke-linejoin:round;">
</g>
<g style="fill:#000000; fill-opacity:1.0000; 
stroke:#000000; stroke-width:0.0000; stroke-opacity:1; 
stroke-linecap:round; stroke-linejoin:round;">
<circle cx="206.4022" cy="61.4000" r="0.4000" /> 
</g>
<g style="fill:#000000; fill-opacity:1.0000; 
stroke:#000000; stroke-width:0.0212; stroke-opacity:1; 
stroke-linecap:round; stroke-linejoin:round;">
</g>
<g style="fill:#000000; fill-opacity:1.0000; 
stroke:#000000; stroke-width:0.0000; stroke-opacity:1; 
stroke-linecap:round; stroke-linejoin:round;">
<circle cx="211.9022" cy="70.6000" r="0.4000" /> 
</g>
<g style="fill:#000000; fill-opacity:1.0000; 
stroke:#000000; stroke-width:0.0212; stroke-opacity:1; 
stroke-linecap:round; stroke-linejoin:round;">
</g>
<g style="fill:#000000; fill-opacity:1.0000; 
stroke:#000000; stroke-width:0.0000; stroke-opacity:1; 
stroke-linecap:round; stroke-linejoin:round;">
<circle cx="205.6022" cy="61.4000" r="0.4000" /> 
</g>
<g style="fill:#000000; fill-opacity:1.0000; 
stroke:#000000; stroke-width:0.0212; stroke-opacity:1; 
stroke-linecap:round; stroke-linejoin:round;">
</g>
<g style="fill:#000000; fill-opacity:1.0000; 
stroke:#000000; stroke-width:0.0000; stroke-opacity:1; 
stroke-linecap:round; stroke-linejoin:round;">
<circle cx="205.6022" cy="64.9000" r="0.4000" /> 
</g>
<g style="fill:#000000; fill-opacity:1.0000; 
stroke:#000000; stroke-width:0.0212; stroke-opacity:1; 
stroke-linecap:round; stroke-linejoin:round;">
</g>
<g style="fill:#000000; fill-opacity:1.0000; 
stroke:#000000; stroke-width:0.0000; stroke-opacity:1; 
stroke-linecap:round; stroke-linejoin:round;">
<circle cx="206.3022" cy="64.9000" r="0.4000" /> 
</g>
<g style="fill:#000000; fill-opacity:1.0000; 
stroke:#000000; stroke-width:0.0212; stroke-opacity:1; 
stroke-linecap:round; stroke-linejoin:round;">
</g>
<g style="fill:#000000; fill-opacity:1.0000; 
stroke:#000000; stroke-width:0.0000; stroke-opacity:1; 
stroke-linecap:round; stroke-linejoin:round;">
<circle cx="208.4022" cy="70.6000" r="0.4000" /> 
</g>
<g style="fill:#000000; fill-opacity:1.0000; 
stroke:#000000; stroke-width:0.0212; stroke-opacity:1; 
stroke-linecap:round; stroke-linejoin:round;">
</g>
<g style="fill:#000000; fill-opacity:1.0000; 
stroke:#000000; stroke-width:0.0000; stroke-opacity:1; 
stroke-linecap:round; stroke-linejoin:round;">
<circle cx="208.4022" cy="71.4000" r="0.4000" /> 
</g>
<g style="fill:#000000; fill-opacity:1.0000; 
stroke:#000000; stroke-width:0.0212; stroke-opacity:1; 
stroke-linecap:round; stroke-linejoin:round;">
</g>
<g style="fill:#000000; fill-opacity:1.0000; 
stroke:#000000; stroke-width:0.0000; stroke-opacity:1; 
stroke-linecap:round; stroke-linejoin:round;">
<circle cx="211.9022" cy="71.4000" r="0.4000" /> 
</g>
<g style="fill:#000000; fill-opacity:1.0000; 
stroke:#000000; stroke-width:0.0212; stroke-opacity:1; 
stroke-linecap:round; stroke-linejoin:round;">
</g>
<g style="fill:#000000; fill-opacity:1.0000; 
stroke:#000000; stroke-width:0.0000; stroke-opacity:1; 
stroke-linecap:round; stroke-linejoin:round;">
<circle cx="209.0922" cy="61.8200" r="0.4000" /> 
</g>
<g style="fill:#000000; fill-opacity:1.0000; 
stroke:#000000; stroke-width:0.0212; stroke-opacity:1; 
stroke-linecap:round; stroke-linejoin:round;">
</g>
<g >
</g>
<g style="fill:#000000; fill-opacity:1.0000; 
stroke:#000000; stroke-width:0.0212; stroke-opacity:1; 
stroke-linecap:round; stroke-linejoin:round;">
</g>
<g style="fill:#000000; fill-opacity:1.0000; 
stroke:#000000; stroke-width:0.2500; stroke-opacity:1; 
stroke-linecap:round; stroke-linejoin:round;">
</g>
<g style="fill:#000000; fill-opacity:0.0; 
stroke:#000000; stroke-width:0.2500; stroke-opacity:1; 
stroke-linecap:round; stroke-linejoin:round;">
<path d="M212.2022 67.1000
L210.2022 65.1000
" />
<path d="M208.0022 63.1250
L208.8772 64.0000
" />
<path d="M211.6022 69.0000
L212.2022 68.4000
" />
<path d="M210.1272 69.0000
L211.6022 69.0000
" />
<path d="M212.2022 68.4000
L212.2022 67.1000
" />
<path d="M209.8022 64.0000
L210.2022 63.6000
" />
<path d="M208.8772 64.0000
L209.8022 64.0000
" />
<path d="M210.2022 65.1000
L210.2022 63.6000
" />
<path d="M205.6022 61.4000
L205.6022 64.9000
" />
<path d="M211.9022 70.6000
L211.9022 71.4000
" />
<path d="M208.4022 70.6000
L208.4022 71.4000
" />
<path d="M206.3022 61.5000
L206.3022 64.9000
" />
<path d="M206.4022 61.4000
L205.6022 61.4000
" />
<path d="M206.4022 61.4000
L206.3022 61.5000
" />
<path d="M211.9022 71.4000
L208.4022 71.4000
" />
<path d="M206.3022 64.9000
L205.6022 64.9000
" />
<path d="M211.9022 70.6000
L208.4022 70.6000
" />
<path d="M209.0022 57.0000
L209.0022 61.7300
" />
<path d="M209.0022 61.7300
L209.0922 61.8200
" />
<path d="M204.2022 60.5000
L204.2022 68.6750
" />
<path d="M208.0022 56.8750
L208.8772 56.8750
" />
<path d="M208.8772 56.8750
L209.0022 57.0000
" />
<path d="M209.0922 61.8200
L207.7722 60.5000
" />
<path d="M207.7722 60.5000
L204.2022 60.5000
" />
</g>
<g >
</g>
<g style="fill:#000000; fill-opacity:0.0; 
stroke:#000000; stroke-width:0.2500; stroke-opacity:1; 
stroke-linecap:round; stroke-linejoin:round;">
<g >
</g>
<g style="fill:#000000; fill-opacity:1.0000; 
stroke:#000000; stroke-width:0.0000; stroke-opacity:1; 
stroke-linecap:round; stroke-linejoin:round;">
<path style="fill:#000000; fill-opacity:1.0000; 
stroke:#000000; stroke-width:0.0000; stroke-opacity:1; 
stroke-linecap:round; stroke-linejoin:round;fill-rule:evenodd;"
d="M 202.9995,48.0007
202.9567,48.0045
202.8304,48.0169
202.8105,48.0205
202.7448,48.0382
202.7430,48.0387
202.6506,48.0667
202.6342,48.0730
202.5668,48.1044
202.5638,48.1059
202.5262,48.1260
202.4799,48.1508
202.4735,48.1547
202.4074,48.2010
202.4036,48.2038
202.3314,48.2631
202.3269,48.2672
202.2694,48.3247
202.2653,48.3292
202.2060,48.4014
202.2032,48.4052
202.1569,48.4713
202.1530,48.4777
202.1081,48.5616
202.1066,48.5646
202.0752,48.6320
202.0689,48.6484
202.0409,48.7407
202.0403,48.7426
202.0227,48.8083
202.0191,48.8282
202.0067,48.9546
202.0029,48.9973
202.0027,49.0027
202.0027,70.0016
202.0224,70.0687
202.0752,70.1144
202.1443,70.1244
202.2010,70.1009
202.2601,70.0566
202.2601,70.0566
202.3948,70.0064
202.3948,70.0064
202.4544,70.0000
203.6272,70.0000
203.6272,71.1260
203.6469,71.1930
203.6997,71.2388
203.7512,71.2500
205.7522,71.2500
205.7522,71.5478
205.7458,71.6074
205.7458,71.6074
205.6956,71.7421
205.6956,71.7421
205.6513,71.8012
205.6269,71.8667
205.6417,71.9349
205.6911,71.9843
205.7506,71.9995
207.7893,71.9995
207.8564,71.9798
207.9021,71.9270
207.9121,71.8579
207.8914,71.8051
207.8710,71.7755
207.8220,71.7045
207.7660,71.5568
207.7469,71.4000
207.7622,71.2739
207.7660,71.2432
207.8220,71.0955
207.8220,71.0955
207.8393,71.0704
207.8611,71.0041
207.8437,70.9364
207.8393,70.9296
207.8220,70.9045
207.7660,70.7568
207.7651,70.7500
205.7522,70.7500
204.1272,70.7500
204.1272,70.0000
205.3000,70.0000
205.3596,70.0064
205.3596,70.0064
205.4943,70.0566
205.4943,70.0566
205.6094,70.1428
205.6094,70.1428
205.6956,70.2579
205.6956,70.2579
205.7458,70.3926
205.7458,70.3926
205.7522,70.4522
205.7522,70.7500
207.7651,70.7500
207.7469,70.6000
207.7660,70.4432
207.8220,70.2955
207.9117,70.1655
208.0300,70.0607
208.0300,70.0607
208.0300,70.0607
208.1698,69.9873
208.3232,69.9495
208.3232,69.9495
208.4812,69.9495
208.4812,69.9495
208.6346,69.9873
208.7744,70.0607
208.8927,70.1655
208.8951,70.1690
208.8965,70.1709
208.9507,70.2149
208.9985,70.2245
211.3059,70.2245
211.3729,70.2048
211.4079,70.1709
211.4117,70.1655
211.5300,70.0607
211.5300,70.0607
211.5300,70.0607
211.6698,69.9873
211.8232,69.9495
211.8232,69.9495
211.9812,69.9495
211.9812,69.9495
212.1346,69.9873
212.2744,70.0607
212.3927,70.1655
212.4824,70.2955
212.4824,70.2955
212.5384,70.4432
212.5575,70.6000
212.5575,70.6000
212.5384,70.7568
212.4824,70.9045
212.4824,70.9045
212.4651,70.9296
212.4433,70.9959
212.4607,71.0636
212.4651,71.0704
212.4824,71.0955
212.4824,71.0955
212.5384,71.2432
212.5575,71.4000
212.5575,71.4000
212.5384,71.5568
212.4824,71.7045
212.4824,71.7045
212.4130,71.8051
212.3911,71.8714
212.4086,71.9391
212.4599,71.9865
212.5151,71.9995
227.9995,71.9995
228.0049,71.9993
228.0099,71.9988
228.0476,71.9955
228.1740,71.9831
228.1939,71.9795
228.2596,71.9619
228.2615,71.9613
228.2991,71.9499
228.3538,71.9333
228.3702,71.9270
228.4376,71.8956
228.4406,71.8941
228.5245,71.8492
228.5309,71.8453
228.5970,71.7990
228.6008,71.7962
228.6730,71.7369
228.6775,71.7328
228.7350,71.6753
228.7391,71.6708
228.7984,71.5986
228.8012,71.5948
228.8475,71.5287
228.8514,71.5223
228.8762,71.4760
228.8963,71.4384
228.8978,71.4354
228.9292,71.3680
228.9355,71.3516
228.9635,71.2592
228.9640,71.2574
228.9817,71.1917
228.9853,71.1718
228.9977,71.0455
229.0011,71.0070
229.0015,71.0027
229.0017,70.9973
229.0017,70.0000
228.3579,70.0000
228.3373,70.2354
228.3373,70.2354
228.2761,70.4637
228.2761,70.4637
228.2761,70.4637
228.2262,70.5707
228.1762,70.6778
228.1762,70.6778
228.0407,70.8714
227.8736,71.0385
227.6800,71.1740
227.6800,71.1740
227.4659,71.2739
227.2376,71.3351
227.0612,71.3505
227.0612,71.3505
227.0612,71.3505
226.9432,71.3505
226.9432,71.3505
226.7668,71.3351
226.5385,71.2739
226.3244,71.1740
226.1308,71.0385
225.9637,70.8714
225.8282,70.6778
225.7283,70.4637
225.6671,70.2354
225.6465,70.0000
225.6671,69.7646
225.7283,69.5363
225.8282,69.3222
225.8282,69.3222
225.9637,69.1286
226.1308,68.9615
226.3244,68.8260
226.3244,68.8260
226.4315,68.7760
226.5385,68.7261
226.5385,68.7261
226.5385,68.7261
226.7668,68.6649
226.7668,68.6649
226.9432,68.6495
226.9432,68.6495
227.0612,68.6495
227.0612,68.6495
227.2376,68.6649
227.2376,68.6649
227.4659,68.7261
227.4659,68.7261
227.6800,68.8260
227.6800,68.8260
227.8736,68.9615
228.0407,69.1286
228.0407,69.1286
228.1762,69.3222
228.1762,69.3222
228.2761,69.5363
228.2761,69.5363
228.3373,69.7646
228.3373,69.7646
228.3579,70.0000
228.3579,70.0000
229.0017,70.0000
229.0017,68.3843
212.5826,68.3843
212.5782,68.4195
212.5777,68.4272
212.5777,68.4311
212.5741,68.4529
212.5737,68.4554
212.5671,68.5086
212.5648,68.5161
212.5623,68.5236
212.5495,68.5472
212.5368,68.5708
212.5356,68.5730
212.5120,68.6212
212.5075,68.6276
212.5026,68.6338
212.4631,68.6702
212.4613,68.6719
211.9044,69.2289
211.8882,69.2487
211.8823,69.2578
211.8543,69.2796
211.8485,69.2847
211.8457,69.2875
211.8278,69.3003
211.8257,69.3019
211.8005,69.3215
211.7597,69.3782
211.7527,69.4193
211.7527,69.5247
211.7382,69.5977
211.7382,69.5977
211.7382,69.5977
211.6828,69.6806
211.5999,69.7360
211.5999,69.7360
211.5269,69.7505
211.5269,69.7505
211.5269,69.7505
208.7275,69.7505
208.7275,69.7505
208.6545,69.7360
208.5716,69.6806
208.5162,69.5977
208.5017,69.5247
208.5017,68.4753
208.5017,68.4753
208.5017,68.4753
208.5017,68.4753
208.5162,68.4023
208.5162,68.4023
208.5354,68.3736
208.5716,68.3194
208.6545,68.2640
208.6545,68.2640
208.6545,68.2640
208.7275,68.2495
208.7275,68.2495
211.5269,68.2495
211.5269,68.2495
211.5999,68.2640
211.5999,68.2640
211.6338,68.2867
211.7005,68.3075
211.7679,68.2891
211.8146,68.2371
211.8267,68.1836
211.8267,68.1255
211.8267,67.3069
211.8070,67.2399
211.7904,67.2192
209.9733,65.4021
209.9535,65.3860
209.9444,65.3801
209.9226,65.3521
209.9175,65.3463
209.9147,65.3435
209.9018,65.3255
209.9004,65.3235
209.8674,65.2812
209.8674,65.2812
209.8637,65.2743
209.8602,65.2672
209.8602,65.2672
209.8449,65.2158
209.8441,65.2134
209.8267,65.1627
209.8267,65.1627
209.8254,65.1549
209.8244,65.1471
209.8266,65.0935
209.8267,65.0910
209.8267,64.4995
209.8070,64.4325
209.7542,64.3867
209.7027,64.3755
208.9290,64.3755
208.9036,64.3781
208.9005,64.3788
208.8929,64.3804
208.8920,64.3803
208.8908,64.3805
208.8827,64.3808
208.8827,64.3818
208.8231,64.3915
208.7711,64.4382
208.7527,64.5033
208.7527,64.5247
208.7382,64.5977
208.7382,64.5977
208.7382,64.5977
208.6828,64.6806
208.6099,64.7293
208.5999,64.7360
208.5999,64.7360
208.5269,64.7505
208.5269,64.7505
208.5269,64.7505
207.4775,64.7505
207.4775,64.7505
207.4045,64.7360
207.3216,64.6806
207.2662,64.5977
207.2517,64.5247
207.2517,61.7253
207.2517,61.7253
207.2626,61.6705
207.2662,61.6523
207.3216,61.5694
207.4023,61.5155
207.4045,61.5140
207.4045,61.5140
207.4775,61.4995
207.4775,61.4995
207.9413,61.4995
208.0083,61.4798
208.0541,61.4270
208.0640,61.3579
208.0350,61.2943
208.0290,61.2878
207.9014,61.1602
207.6530,60.9118
207.5917,60.8783
207.5653,60.8755
207.0668,60.8755
206.9998,60.8952
206.9540,60.9480
206.9441,61.0171
206.9648,61.0699
206.9824,61.0955
206.9824,61.0955
207.0384,61.2432
207.0575,61.4000
207.0575,61.4000
207.0384,61.5568
207.0371,61.5621
207.0373,61.5654
207.0354,61.5674
207.0293,61.5809
206.9824,61.7045
206.8927,61.8345
206.8321,61.8882
206.7945,61.9215
206.7573,61.9807
206.7527,62.0144
206.7527,64.3742
206.7724,64.4413
206.7880,64.4596
206.7877,64.4599
206.7927,64.4655
206.8824,64.5955
206.8824,64.5955
206.9384,64.7432
206.9575,64.9000
206.9575,64.9000
206.9384,65.0568
206.8983,65.1627
206.8824,65.2045
206.7927,65.3345
206.6744,65.4393
206.6744,65.4393
206.5346,65.5127
206.3812,65.5505
206.3812,65.5505
206.2232,65.5505
206.0698,65.5127
206.0098,65.4812
205.9413,65.4675
205.8946,65.4812
205.8346,65.5127
205.7579,65.5316
205.6812,65.5505
205.6812,65.5505
205.5232,65.5505
205.3698,65.5127
205.3658,65.5106
205.2300,65.4393
205.1117,65.3345
205.0220,65.2045
204.9660,65.0568
204.9469,64.9000
204.9651,64.7505
204.9660,64.7432
205.0211,64.5977
205.0220,64.5955
205.1117,64.4655
205.1181,64.4599
205.1849,64.4006
205.2221,64.3414
205.2267,64.3078
205.2267,61.9922
205.2070,61.9252
205.1849,61.8994
205.1117,61.8345
205.1017,61.8200
205.0220,61.7045
204.9660,61.5568
204.9469,61.4000
204.9520,61.3579
204.9660,61.2432
204.9974,61.1602
205.0220,61.0955
205.0396,61.0699
205.0615,61.0036
205.0440,60.9359
204.9928,60.8885
204.9376,60.8755
204.7017,60.8755
204.6347,60.8952
204.5889,60.9480
204.5777,60.9995
204.5777,68.1255
204.5974,68.1925
204.6502,68.2383
204.7017,68.2495
205.2769,68.2495
205.3499,68.2640
205.3499,68.2640
205.4328,68.3194
205.4882,68.4023
205.4882,68.4023
205.5027,68.4753
205.5027,69.5247
205.4882,69.5977
205.4882,69.5977
205.4882,69.5977
205.4328,69.6806
205.3499,69.7360
205.3499,69.7360
205.3499,69.7360
205.2769,69.7505
205.2769,69.7505
205.2769,69.7505
202.4775,69.7505
202.4775,69.7505
202.4045,69.7360
202.3216,69.6806
202.2662,69.5977
202.2517,69.5247
202.2517,68.4753
202.2517,68.4753
202.2517,68.4753
202.2517,68.4753
202.2662,68.4023
202.2662,68.4023
202.2854,68.3736
202.3216,68.3194
202.4045,68.2640
202.4045,68.2640
202.4045,68.2640
202.4775,68.2495
202.4775,68.2495
203.7027,68.2495
203.7697,68.2298
203.8155,68.1770
203.8267,68.1255
203.8267,60.5181
203.8265,60.5130
203.8247,60.4913
203.8228,60.4686
203.8338,60.4254
203.8348,60.4204
203.8421,60.3764
203.8423,60.3760
203.8535,60.3475
203.8536,60.3471
203.8536,60.3471
203.8779,60.3098
203.8806,60.3054
203.9018,60.2662
203.9021,60.2659
203.9219,60.2425
203.9221,60.2422
203.9221,60.2422
203.9573,60.2148
203.9612,60.2115
203.9794,60.1948
203.9940,60.1813
203.9944,60.1811
204.0207,60.1654
204.0210,60.1652
204.0632,60.1507
204.0679,60.1489
204.1087,60.1310
204.1088,60.1310
204.1092,60.1309
204.1392,60.1246
204.1395,60.1245
204.1841,60.1245
204.1892,60.1243
204.1983,60.1235
204.2336,60.1206
204.2338,60.1207
204.2340,60.1207
204.2645,60.1245
207.7204,60.1245
207.7458,60.1219
207.7565,60.1196
207.7565,60.1196
207.7917,60.1240
207.7994,60.1245
207.8033,60.1245
207.8251,60.1281
207.8276,60.1285
207.8808,60.1351
207.8883,60.1374
207.8958,60.1399
207.9430,60.1654
207.9452,60.1666
207.9934,60.1902
207.9998,60.1948
208.0060,60.1996
208.0423,60.2390
208.0441,60.2409
208.4150,60.6118
208.4763,60.6453
208.5460,60.6403
208.6020,60.5984
208.6264,60.5329
208.6267,60.5241
208.6267,58.6245
208.6070,58.5575
208.5542,58.5117
208.5027,58.5005
207.4775,58.5005
207.4775,58.5005
207.4045,58.4860
207.3216,58.4306
207.2662,58.3477
207.2517,58.2747
207.2517,57.1250
207.0022,57.1250
207.0022,58.2978
206.9958,58.3574
206.9958,58.3574
206.9456,58.4921
206.9456,58.4921
206.8594,58.6072
206.8594,58.6072
206.7443,58.6933
206.7443,58.6934
206.6096,58.7436
206.6096,58.7436
206.5500,58.7500
206.5500,58.7500
206.2522,58.7500
206.2522,57.1250
205.7522,57.1250
205.7522,58.7500
205.4544,58.7500
205.4544,58.7500
205.3948,58.7436
205.3948,58.7436
205.2601,58.6934
205.2601,58.6933
205.1450,58.6072
205.1450,58.6072
205.0588,58.4921
205.0588,58.4921
205.0086,58.3574
205.0086,58.3574
205.0022,58.2978
205.0022,58.2978
205.0022,57.1250
205.7522,57.1250
206.2522,57.1250
207.0022,57.1250
207.2517,57.1250
207.2517,56.6250
207.0022,56.6250
206.2522,56.6250
206.2522,55.0000
205.7522,55.0000
205.7522,56.6250
205.0022,56.6250
205.0022,55.4522
205.0022,55.4522
205.0086,55.3926
205.0086,55.3926
205.0588,55.2579
205.0588,55.2579
205.1450,55.1428
205.1450,55.1428
205.2601,55.0566
205.2601,55.0566
205.3948,55.0064
205.3948,55.0064
205.4544,55.0000
205.7522,55.0000
206.2522,55.0000
206.5500,55.0000
206.6096,55.0064
206.6096,55.0064
206.7443,55.0566
206.7443,55.0566
206.8594,55.1428
206.8594,55.1428
206.9456,55.2579
206.9456,55.2579
206.9958,55.3926
206.9958,55.3926
207.0022,55.4522
207.0022,56.6250
207.2517,56.6250
207.2517,55.4753
207.2517,55.4753
207.2517,55.4753
207.2662,55.4023
207.2662,55.4023
207.2662,55.4023
207.3216,55.3194
207.4045,55.2640
207.4045,55.2640
207.4045,55.2640
207.4775,55.2495
207.4775,55.2495
208.5269,55.2495
208.5269,55.2495
208.5999,55.2640
208.5999,55.2640
208.6828,55.3194
208.7382,55.4023
208.7382,55.4023
208.7527,55.4753
208.7527,56.3716
208.7724,56.4386
208.8252,56.4844
208.8614,56.4946
208.8967,56.4990
208.9044,56.4995
208.9083,56.4995
208.9301,56.5031
208.9326,56.5035
208.9858,56.5101
208.9933,56.5124
209.0008,56.5149
209.0480,56.5404
209.0502,56.5416
209.0984,56.5652
209.1048,56.5697
209.1110,56.5746
209.1473,56.6140
209.1491,56.6159
209.2311,56.6979
209.2509,56.7140
209.2600,56.7199
209.2600,56.7199
209.2818,56.7479
209.2869,56.7537
209.2897,56.7565
209.2897,56.7565
209.3025,56.7744
209.3041,56.7765
209.3370,56.8188
209.3408,56.8257
209.3442,56.8328
209.3595,56.8842
209.3603,56.8866
209.3777,56.9373
209.3790,56.9451
209.3800,56.9529
209.3778,57.0065
209.3777,57.0090
209.3777,61.1602
209.3974,61.2273
209.4441,61.2700
209.4644,61.2807
209.4644,61.2807
209.5515,61.3579
209.5827,61.3855
209.6724,61.5155
209.6724,61.5155
209.7284,61.6632
209.7475,61.8200
209.7475,61.8200
209.7284,61.9768
209.6724,62.1245
209.6724,62.1245
209.5827,62.2545
209.4644,62.3593
209.4644,62.3593
209.3246,62.4327
209.1712,62.4705
209.1712,62.4705
209.0132,62.4705
208.9064,62.4442
208.8366,62.4472
208.7795,62.4876
208.7533,62.5523
208.7527,62.5646
208.7527,63.2931
208.7724,63.3601
208.7890,63.3808
208.9964,63.5882
209.0577,63.6217
209.0841,63.6245
209.4341,63.6245
209.5011,63.6048
209.5469,63.5520
209.5572,63.5154
209.5660,63.4432
209.6220,63.2955
209.7117,63.1655
209.8300,63.0607
209.8300,63.0607
209.8300,63.0607
209.9698,62.9873
210.1232,62.9495
210.1232,62.9495
210.2812,62.9495
210.2812,62.9495
210.4346,62.9873
210.5744,63.0607
210.6927,63.1655
210.7824,63.2955
210.7824,63.2955
210.8384,63.4432
210.8575,63.6000
210.8575,63.6000
210.8384,63.7568
210.7824,63.9045
210.7824,63.9045
210.6927,64.0345
210.6195,64.0994
210.5823,64.1586
210.5777,64.1922
210.5777,64.8931
210.5974,64.9601
210.6140,64.9808
212.4311,66.7979
212.4509,66.8140
212.4600,66.8199
212.4600,66.8199
212.4818,66.8479
212.4869,66.8537
212.4897,66.8565
212.4897,66.8565
212.5025,66.8744
212.5041,66.8765
212.5370,66.9188
212.5408,66.9257
212.5442,66.9328
212.5595,66.9842
212.5603,66.9866
212.5777,67.0373
212.5790,67.0451
212.5800,67.0529
212.5778,67.1065
212.5777,67.1090
212.5777,68.3482
212.5803,68.3736
212.5826,68.3843
212.5826,68.3843
212.5826,68.3843
229.0017,68.3843
229.0017,60.0000
223.1077,60.0000
223.0879,60.4913
223.0879,60.4913
223.0879,60.4913
223.0828,60.5329
223.0286,60.9794
222.9302,61.4611
222.7934,61.9334
222.6191,62.3931
222.4083,62.8374
222.1625,63.2632
222.1625,63.2632
222.1402,63.2955
221.9300,63.6000
221.8832,63.6678
221.5722,64.0486
221.5722,64.0487
221.5722,64.0487
221.2522,64.3818
221.2316,64.4033
221.2316,64.4033
220.8636,64.7293
220.7156,64.8405
220.4705,65.0247
220.0549,65.2875
220.0549,65.2875
220.0549,65.2875
219.9055,65.3659
219.6196,65.5160
219.1672,65.7087
218.7008,65.8644
218.2234,65.9821
218.2234,65.9821
218.2234,65.9821
217.7745,66.0550
217.7381,66.0609
217.2480,66.1005
217.2480,66.1005
216.7564,66.1005
216.7564,66.1005
216.2663,66.0609
216.1177,66.0368
215.7810,65.9821
215.7810,65.9821
215.7810,65.9821
215.3036,65.8644
214.8372,65.7087
214.3848,65.5160
213.9495,65.2875
213.5339,65.0247
213.1408,64.7293
213.1408,64.7293
213.1408,64.7293
212.7728,64.4033
212.7728,64.4033
212.7728,64.4033
212.4322,64.0487
212.1212,63.6678
211.8419,63.2632
211.5961,62.8373
211.3853,62.3931
211.2110,61.9334
211.0742,61.4611
210.9758,60.9794
210.9165,60.4913
210.9165,60.4913
210.8967,60.0000
210.8967,60.0000
210.9165,59.5087
210.9165,59.5087
210.9165,59.5087
210.9758,59.0206
211.0742,58.5389
211.1055,58.4306
211.2110,58.0666
211.2879,57.8636
211.3853,57.6069
211.5961,57.1627
211.7262,56.9373
211.8419,56.7368
211.8419,56.7368
211.8577,56.7140
212.1212,56.3322
212.1212,56.3322
212.1213,56.3322
212.4322,55.9513
212.4322,55.9513
212.7728,55.5967
212.7728,55.5967
213.1408,55.2707
213.3374,55.1230
213.5339,54.9753
213.9495,54.7125
213.9495,54.7125
213.9495,54.7125
214.3848,54.4840
214.5624,54.4084
214.8372,54.2913
214.8372,54.2913
214.8372,54.2913
215.0677,54.2144
215.3036,54.1356
215.3036,54.1356
215.3036,54.1356
215.4865,54.0905
215.7810,54.0179
215.7810,54.0179
215.7810,54.0179
215.7810,54.0179
216.2663,53.9391
216.7563,53.8995
216.7564,53.8995
217.2480,53.8995
217.2481,53.8995
217.7381,53.9391
218.2234,54.0179
218.2234,54.0179
218.2234,54.0179
218.2234,54.0179
218.2471,54.0238
218.7008,54.1356
218.7008,54.1356
219.1672,54.2913
219.1672,54.2913
219.1672,54.2913
219.2715,54.3357
219.6196,54.4840
220.0549,54.7125
220.4705,54.9753
220.4705,54.9753
220.8636,55.2707
221.2316,55.5967
221.2316,55.5967
221.5722,55.9513
221.5722,55.9513
221.8832,56.3322
222.1625,56.7368
222.1625,56.7368
222.4083,57.1626
222.6191,57.6069
222.7934,58.0666
222.9302,58.5389
223.0286,59.0206
223.0879,59.5087
223.0879,59.5087
223.1077,60.0000
223.1077,60.0000
229.0017,60.0000
229.0017,50.0000
228.3579,50.0000
228.3373,50.2354
228.3373,50.2354
228.2761,50.4637
228.2761,50.4637
228.2761,50.4637
228.2262,50.5707
228.1762,50.6778
228.1762,50.6778
228.0407,50.8714
227.8736,51.0385
227.6800,51.1740
227.6800,51.1740
227.4659,51.2739
227.2376,51.3351
227.0612,51.3505
227.0612,51.3505
227.0612,51.3505
226.9432,51.3505
226.9432,51.3505
226.7668,51.3351
226.5385,51.2739
226.3244,51.1740
226.1308,51.0385
225.9637,50.8714
225.8282,50.6778
225.7283,50.4637
225.6671,50.2354
225.6465,50.0000
208.3579,50.0000
208.3373,50.2354
208.3373,50.2354
208.2761,50.4637
208.2761,50.4637
208.2761,50.4637
208.2262,50.5707
208.1762,50.6778
208.1762,50.6778
208.0407,50.8714
207.8736,51.0385
207.6800,51.1740
207.6800,51.1740
207.4659,51.2739
207.2376,51.3351
207.0612,51.3505
207.0612,51.3505
207.0612,51.3505
206.9432,51.3505
206.9432,51.3505
206.7668,51.3351
206.5385,51.2739
206.3244,51.1740
206.1308,51.0385
205.9637,50.8714
205.8282,50.6778
205.7283,50.4637
205.6671,50.2354
205.6465,50.0000
205.6671,49.7646
205.7283,49.5363
205.8282,49.3222
205.8282,49.3222
205.9637,49.1286
206.1308,48.9615
206.3244,48.8260
206.3244,48.8260
206.4315,48.7760
206.5385,48.7261
206.5385,48.7261
206.5385,48.7261
206.7668,48.6649
206.7668,48.6649
206.9432,48.6495
206.9432,48.6495
207.0612,48.6495
207.0612,48.6495
207.2376,48.6649
207.2376,48.6649
207.4659,48.7261
207.4659,48.7261
207.6800,48.8260
207.6800,48.8260
207.8736,48.9615
208.0407,49.1286
208.0407,49.1286
208.1762,49.3222
208.1762,49.3222
208.2761,49.5363
208.2761,49.5363
208.3373,49.7646
208.3373,49.7646
208.3579,50.0000
208.3579,50.0000
225.6465,50.0000
225.6671,49.7646
225.7283,49.5363
225.8282,49.3222
225.8282,49.3222
225.9637,49.1286
226.1308,48.9615
226.3244,48.8260
226.3244,48.8260
226.4315,48.7760
226.5385,48.7261
226.5385,48.7261
226.5385,48.7261
226.7668,48.6649
226.7668,48.6649
226.9432,48.6495
226.9432,48.6495
227.0612,48.6495
227.0612,48.6495
227.2376,48.6649
227.2376,48.6649
227.4659,48.7261
227.4659,48.7261
227.6800,48.8260
227.6800,48.8260
227.8736,48.9615
228.0407,49.1286
228.0407,49.1286
228.1762,49.3222
228.1762,49.3222
228.2761,49.5363
228.2761,49.5363
228.3373,49.7646
228.3373,49.7646
228.3579,50.0000
228.3579,50.0000
229.0017,50.0000
229.0017,49.0027
229.0015,48.9973
228.9977,48.9546
228.9965,48.9418
228.9853,48.8282
228.9817,48.8083
228.9640,48.7425
228.9635,48.7408
228.9355,48.6484
228.9293,48.6320
228.8978,48.5646
228.8963,48.5617
228.8514,48.4777
228.8475,48.4713
228.8144,48.4239
228.8012,48.4052
228.7984,48.4014
228.7391,48.3292
228.7350,48.3247
228.6775,48.2672
228.6730,48.2631
228.6008,48.2038
228.5970,48.2010
228.5309,48.1547
228.5245,48.1508
228.4405,48.1059
228.4376,48.1044
228.3702,48.0729
228.3538,48.0667
228.2614,48.0387
228.2597,48.0382
228.1939,48.0205
228.1740,48.0169
228.0604,48.0057
228.0476,48.0045
228.0049,48.0007
227.9995,48.0005
203.0049,48.0005
Z" /> 
</g>
</g>
</g>
<g style="fill:#FFFFFF; fill-opacity:1.0000; 
stroke:#FFFFFF; stroke-width:0.0000; stroke-opacity:1; 
stroke-linecap:round; stroke-linejoin:round;">
<circle cx="210.2022" cy="63.6000" r="0.2000" /> 
</g>
<g style="fill:#FFFFFF; fill-opacity:1.0000; 
stroke:#FFFFFF; stroke-width:0.0212; stroke-opacity:1; 
stroke-linecap:round; stroke-linejoin:round;">
</g>
<g style="fill:#FFFFFF; fill-opacity:1.0000; 
stroke:#FFFFFF; stroke-width:0.0000; stroke-opacity:1; 
stroke-linecap:round; stroke-linejoin:round;">
<circle cx="223.0022" cy="52.0000" r="0.2000" /> 
</g>
<g style="fill:#FFFFFF; fill-opacity:1.0000; 
stroke:#FFFFFF; stroke-width:0.0212; stroke-opacity:1; 
stroke-linecap:round; stroke-linejoin:round;">
</g>
<g style="fill:#FFFFFF; fill-opacity:1.0000; 
stroke:#FFFFFF; stroke-width:0.0000; stroke-opacity:1; 
stroke-linecap:round; stroke-linejoin:round;">
<circle cx="207.0740" cy="58.8038" r="0.2000" /> 
</g>
<g style="fill:#FFFFFF; fill-opacity:1.0000; 
stroke:#FFFFFF; stroke-width:0.0212; stroke-opacity:1; 
stroke-linecap:round; stroke-linejoin:round;">
</g>
<g style="fill:#FFFFFF; fill-opacity:1.0000; 
stroke:#FFFFFF; stroke-width:0.0000; stroke-opacity:1; 
stroke-linecap:round; stroke-linejoin:round;">
<circle cx="226.9304" cy="61.1962" r="0.2000" /> 
</g>
<g style="fill:#FFFFFF; fill-opacity:1.0000; 
stroke:#FFFFFF; stroke-width:0.0212; stroke-opacity:1; 
stroke-linecap:round; stroke-linejoin:round;">
</g>
<g style="fill:#FFFFFF; fill-opacity:1.0000; 
stroke:#FFFFFF; stroke-width:0.0000; stroke-opacity:1; 
stroke-linecap:round; stroke-linejoin:round;">
<circle cx="220.9304" cy="69.1962" r="0.2000" /> 
</g>
<g style="fill:#FFFFFF; fill-opacity:1.0000; 
stroke:#FFFFFF; stroke-width:0.0212; stroke-opacity:1; 
stroke-linecap:round; stroke-linejoin:round;">
</g>
<g style="fill:#FFFFFF; fill-opacity:1.0000; 
stroke:#FFFFFF; stroke-width:0.0000; stroke-opacity:1; 
stroke-linecap:round; stroke-linejoin:round;">
<circle cx="215.8060" cy="69.9282" r="0.2000" /> 
</g>
<g style="fill:#FFFFFF; fill-opacity:1.0000; 
stroke:#FFFFFF; stroke-width:0.0212; stroke-opacity:1; 
stroke-linecap:round; stroke-linejoin:round;">
</g>
<g style="fill:#FFFFFF; fill-opacity:1.0000; 
stroke:#FFFFFF; stroke-width:0.0000; stroke-opacity:1; 
stroke-linecap:round; stroke-linejoin:round;">
<circle cx="213.0740" cy="50.8038" r="0.2000" /> 
</g>
<g style="fill:#FFFFFF; fill-opacity:1.0000; 
stroke:#FFFFFF; stroke-width:0.0212; stroke-opacity:1; 
stroke-linecap:round; stroke-linejoin:round;">
</g>
<g style="fill:#FFFFFF; fill-opacity:1.0000; 
stroke:#FFFFFF; stroke-width:0.0000; stroke-opacity:1; 
stroke-linecap:round; stroke-linejoin:round;">
<circle cx="225.0022" cy="66.0000" r="0.2000" /> 
</g>
<g style="fill:#FFFFFF; fill-opacity:1.0000; 
stroke:#FFFFFF; stroke-width:0.0212; stroke-opacity:1; 
stroke-linecap:round; stroke-linejoin:round;">
</g>
<g style="fill:#FFFFFF; fill-opacity:1.0000; 
stroke:#FFFFFF; stroke-width:0.0000; stroke-opacity:1; 
stroke-linecap:round; stroke-linejoin:round;">
<circle cx="210.6022" cy="67.7000" r="0.2000" /> 
</g>
<g style="fill:#FFFFFF; fill-opacity:1.0000; 
stroke:#FFFFFF; stroke-width:0.0212; stroke-opacity:1; 
stroke-linecap:round; stroke-linejoin:round;">
</g>
<g style="fill:#FFFFFF; fill-opacity:1.0000; 
stroke:#FFFFFF; stroke-width:0.0000; stroke-opacity:1; 
stroke-linecap:round; stroke-linejoin:round;">
<circle cx="226.1984" cy="56.0718" r="0.2000" /> 
</g>
<g style="fill:#FFFFFF; fill-opacity:1.0000; 
stroke:#FFFFFF; stroke-width:0.0212; stroke-opacity:1; 
stroke-linecap:round; stroke-linejoin:round;">
</g>
<g style="fill:#FFFFFF; fill-opacity:1.0000; 
stroke:#FFFFFF; stroke-width:0.0000; stroke-opacity:1; 
stroke-linecap:round; stroke-linejoin:round;">
<circle cx="209.0022" cy="54.0000" r="0.2000" /> 
</g>
<g style="fill:#FFFFFF; fill-opacity:1.0000; 
stroke:#FFFFFF; stroke-width:0.0212; stroke-opacity:1; 
stroke-linecap:round; stroke-linejoin:round;">
</g>
<g style="fill:#FFFFFF; fill-opacity:1.0000; 
stroke:#FFFFFF; stroke-width:0.0000; stroke-opacity:1; 
stroke-linecap:round; stroke-linejoin:round;">
<circle cx="208.5022" cy="66.0000" r="0.2000" /> 
</g>
<g style="fill:#FFFFFF; fill-opacity:1.0000; 
stroke:#FFFFFF; stroke-width:0.0212; stroke-opacity:1; 
stroke-linecap:round; stroke-linejoin:round;">
</g>
<g style="fill:#FFFFFF; fill-opacity:1.0000; 
stroke:#FFFFFF; stroke-width:0.0000; stroke-opacity:1; 
stroke-linecap:round; stroke-linejoin:round;">
<circle cx="218.1984" cy="50.0718" r="0.2000" /> 
</g>
<g style="fill:#FFFFFF; fill-opacity:1.0000; 
stroke:#FFFFFF; stroke-width:0.0212; stroke-opacity:1; 
stroke-linecap:round; stroke-linejoin:round;">
</g>
<g style="fill:#FFFFFF; fill-opacity:1.0000; 
stroke:#FFFFFF; stroke-width:0.0000; stroke-opacity:1; 
stroke-linecap:round; stroke-linejoin:round;">
<circle cx="206.4022" cy="61.4000" r="0.2000" /> 
</g>
<g style="fill:#FFFFFF; fill-opacity:1.0000; 
stroke:#FFFFFF; stroke-width:0.0212; stroke-opacity:1; 
stroke-linecap:round; stroke-linejoin:round;">
</g>
<g style="fill:#FFFFFF; fill-opacity:1.0000; 
stroke:#FFFFFF; stroke-width:0.0000; stroke-opacity:1; 
stroke-linecap:round; stroke-linejoin:round;">
<circle cx="211.9022" cy="70.6000" r="0.2000" /> 
</g>
<g style="fill:#FFFFFF; fill-opacity:1.0000; 
stroke:#FFFFFF; stroke-width:0.0212; stroke-opacity:1; 
stroke-linecap:round; stroke-linejoin:round;">
</g>
<g style="fill:#FFFFFF; fill-opacity:1.0000; 
stroke:#FFFFFF; stroke-width:0.0000; stroke-opacity:1; 
stroke-linecap:round; stroke-linejoin:round;">
<circle cx="205.6022" cy="61.4000" r="0.2000" /> 
</g>
<g style="fill:#FFFFFF; fill-opacity:1.0000; 
stroke:#FFFFFF; stroke-width:0.0212; stroke-opacity:1; 
stroke-linecap:round; stroke-linejoin:round;">
</g>
<g style="fill:#FFFFFF; fill-opacity:1.0000; 
stroke:#FFFFFF; stroke-width:0.0000; stroke-opacity:1; 
stroke-linecap:round; stroke-linejoin:round;">
<circle cx="205.6022" cy="64.9000" r="0.2000" /> 
</g>
<g style="fill:#FFFFFF; fill-opacity:1.0000; 
stroke:#FFFFFF; stroke-width:0.0212; stroke-opacity:1; 
stroke-linecap:round; stroke-linejoin:round;">
</g>
<g style="fill:#FFFFFF; fill-opacity:1.0000; 
stroke:#FFFFFF; stroke-width:0.0000; stroke-opacity:1; 
stroke-linecap:round; stroke-linejoin:round;">
<circle cx="206.3022" cy="64.9000" r="0.2000" /> 
</g>
<g style="fill:#FFFFFF; fill-opacity:1.0000; 
stroke:#FFFFFF; stroke-width:0.0212; stroke-opacity:1; 
stroke-linecap:round; stroke-linejoin:round;">
</g>
<g style="fill:#FFFFFF; fill-opacity:1.0000; 
stroke:#FFFFFF; stroke-width:0.0000; stroke-opacity:1; 
stroke-linecap:round; stroke-linejoin:round;">
<circle cx="208.4022" cy="70.6000" r="0.2000" /> 
</g>
<g style="fill:#FFFFFF; fill-opacity:1.0000; 
stroke:#FFFFFF; stroke-width:0.0212; stroke-opacity:1; 
stroke-linecap:round; stroke-linejoin:round;">
</g>
<g style="fill:#FFFFFF; fill-opacity:1.0000; 
stroke:#FFFFFF; stroke-width:0.0000; stroke-opacity:1; 
stroke-linecap:round; stroke-linejoin:round;">
<circle cx="208.4022" cy="71.4000" r="0.2000" /> 
</g>
<g style="fill:#FFFFFF; fill-opacity:1.0000; 
stroke:#FFFFFF; stroke-width:0.0212; stroke-opacity:1; 
stroke-linecap:round; stroke-linejoin:round;">
</g>
<g style="fill:#FFFFFF; fill-opacity:1.0000; 
stroke:#FFFFFF; stroke-width:0.0000; stroke-opacity:1; 
stroke-linecap:round; stroke-linejoin:round;">
<circle cx="211.9022" cy="71.4000" r="0.2000" /> 
</g>
<g style="fill:#FFFFFF; fill-opacity:1.0000; 
stroke:#FFFFFF; stroke-width:0.0212; stroke-opacity:1; 
stroke-linecap:round; stroke-linejoin:round;">
</g>
<g style="fill:#FFFFFF; fill-opacity:1.0000; 
stroke:#FFFFFF; stroke-width:0.0000; stroke-opacity:1; 
stroke-linecap:round; stroke-linejoin:round;">
<circle cx="209.0922" cy="61.8200" r="0.2000" /> 
</g>
<g style="fill:#FFFFFF; fill-opacity:1.0000; 
stroke:#FFFFFF; stroke-width:0.0212; stroke-opacity:1; 
stroke-linecap:round; stroke-linejoin:round;">
</g>
<g style="fill:#FFFFFF; fill-opacity:1.0000; 
stroke:#FFFFFF; stroke-width:0.0000; stroke-opacity:1; 
stroke-linecap:round; stroke-linejoin:round;">
<circle cx="207.0022" cy="50.0000" r="1.1000" /> 
</g>
<g style="fill:#FFFFFF; fill-opacity:1.0000; 
stroke:#FFFFFF; stroke-width:0.0212; stroke-opacity:1; 
stroke-linecap:round; stroke-linejoin:round;">
</g>
<g style="fill:#FFFFFF; fill-opacity:1.0000; 
stroke:#FFFFFF; stroke-width:0.0000; stroke-opacity:1; 
stroke-linecap:round; stroke-linejoin:round;">
<circle cx="227.0022" cy="50.0000" r="1.1000" /> 
</g>
<g style="fill:#FFFFFF; fill-opacity:1.0000; 
stroke:#FFFFFF; stroke-width:0.0212; stroke-opacity:1; 
stroke-linecap:round; stroke-linejoin:round;">
</g>
<g style="fill:#FFFFFF; fill-opacity:1.0000; 
stroke:#FFFFFF; stroke-width:0.0000; stroke-opacity:1; 
stroke-linecap:round; stroke-linejoin:round;">
<circle cx="227.0022" cy="70.0000" r="1.1000" /> 
</g>
<g style="fill:#FFFFFF; fill-opacity:1.0000; 
stroke:#FFFFFF; stroke-width:0.0212; stroke-opacity:1; 
stroke-linecap:round; stroke-linejoin:round;">
</g>
<g style="fill:#000000; fill-opacity:1.0000; 
stroke:#000000; stroke-width:0.0212; stroke-opacity:1; 
stroke-linecap:round; stroke-linejoin:round;">
</g> 
</svg>
