<?xml version="1.0" standalone="no"?>
 <!DOCTYPE svg PUBLIC "-//W3C//DTD SVG 1.1//EN" 
 "http://www.w3.org/Graphics/SVG/1.1/DTD/svg11.dtd"> 
<svg
  xmlns:svg="http://www.w3.org/2000/svg"
  xmlns="http://www.w3.org/2000/svg"
  xmlns:xlink="http://www.w3.org/1999/xlink"
  version="1.1"
  width="297.0022mm" height="210.0072mm" viewBox="0.0000 0.0000 297.0022 210.0072">
<title>SVG Image created as pedalboard-led-ring-B_Cu.svg date 2023/06/03 08:19:24 </title>
  <desc>Image generated by PCBNEW </desc>
<g style="fill:#000000; fill-opacity:1.0000;stroke:#000000; stroke-opacity:1.0000;
stroke-linecap:round; stroke-linejoin:round;"
 transform="translate(0 0) scale(1 1)">
</g>
<g style="fill:#000000; fill-opacity:0.0; 
stroke:#000000; stroke-width:0.0000; stroke-opacity:1; 
stroke-linecap:round; stroke-linejoin:round;">
<g >
</g>
<g >
</g>
<g >
</g>
<g >
</g>
<g >
</g>
<g >
</g>
<g >
</g>
<g >
</g>
<g >
</g>
<g >
</g>
<g >
</g>
<g >
</g>
<g >
</g>
<g >
</g>
<g >
</g>
<g >
</g>
<g >
</g>
<g >
</g>
<g >
</g>
<g >
</g>
<g >
</g>
<g >
</g>
<g >
</g>
<g >
</g>
<g >
</g>
<g >
</g>
<g >
</g>
<g >
</g>
<g >
</g>
<g >
</g>
<g style="fill:#000000; fill-opacity:0.0; 
stroke:#000000; stroke-width:0.0000; stroke-opacity:1; 
stroke-linecap:round; stroke-linejoin:round;">
</g>
<g style="fill:#000000; fill-opacity:0.0; 
stroke:#000000; stroke-width:0.0000; stroke-opacity:1; 
stroke-linecap:round; stroke-linejoin:round;">
</g>
<g style="fill:#000000; fill-opacity:1.0000; 
stroke:#000000; stroke-width:0.0000; stroke-opacity:1; 
stroke-linecap:round; stroke-linejoin:round;">
<path style="fill:#000000; fill-opacity:1.0000; 
stroke:#000000; stroke-width:0.0000; stroke-opacity:1; 
stroke-linecap:round; stroke-linejoin:round;fill-rule:evenodd;"
d="M 205.5022,58.2500
206.5022,58.2500
206.5022,55.5000
205.5022,55.5000
Z" /> 
<path style="fill:#000000; fill-opacity:1.0000; 
stroke:#000000; stroke-width:0.0000; stroke-opacity:1; 
stroke-linecap:round; stroke-linejoin:round;fill-rule:evenodd;"
d="M 205.5022,64.5000
206.5022,64.5000
206.5022,61.7500
205.5022,61.7500
Z" /> 
<path style="fill:#000000; fill-opacity:1.0000; 
stroke:#000000; stroke-width:0.0000; stroke-opacity:1; 
stroke-linecap:round; stroke-linejoin:round;fill-rule:evenodd;"
d="M 207.5022,58.2500
208.5022,58.2500
208.5022,55.5000
207.5022,55.5000
Z" /> 
<path style="fill:#000000; fill-opacity:1.0000; 
stroke:#000000; stroke-width:0.0000; stroke-opacity:1; 
stroke-linecap:round; stroke-linejoin:round;fill-rule:evenodd;"
d="M 207.5022,64.5000
208.5022,64.5000
208.5022,61.7500
207.5022,61.7500
Z" /> 
</g>
<g >
</g>
<g style="fill:#000000; fill-opacity:1.0000; 
stroke:#000000; stroke-width:0.0000; stroke-opacity:1; 
stroke-linecap:round; stroke-linejoin:round;">
<path style="fill:#000000; fill-opacity:1.0000; 
stroke:#000000; stroke-width:0.0000; stroke-opacity:1; 
stroke-linecap:round; stroke-linejoin:round;fill-rule:evenodd;"
d="M 205.2522,71.5000
205.2522,70.5000
202.5022,70.5000
202.5022,71.5000
Z" /> 
<path style="fill:#000000; fill-opacity:1.0000; 
stroke:#000000; stroke-width:0.0000; stroke-opacity:1; 
stroke-linecap:round; stroke-linejoin:round;fill-rule:evenodd;"
d="M 211.5022,71.5000
211.5022,70.5000
208.7522,70.5000
208.7522,71.5000
Z" /> 
<path style="fill:#000000; fill-opacity:1.0000; 
stroke:#000000; stroke-width:0.0000; stroke-opacity:1; 
stroke-linecap:round; stroke-linejoin:round;fill-rule:evenodd;"
d="M 205.2522,69.5000
205.2522,68.5000
202.5022,68.5000
202.5022,69.5000
Z" /> 
<path style="fill:#000000; fill-opacity:1.0000; 
stroke:#000000; stroke-width:0.0000; stroke-opacity:1; 
stroke-linecap:round; stroke-linejoin:round;fill-rule:evenodd;"
d="M 211.5022,69.5000
211.5022,68.5000
208.7522,68.5000
208.7522,69.5000
Z" /> 
</g>
<g >
</g>
<g style="fill:#000000; fill-opacity:1.0000; 
stroke:#000000; stroke-width:0.0000; stroke-opacity:1; 
stroke-linecap:round; stroke-linejoin:round;">
<circle cx="210.2022" cy="63.6000" r="0.4000" /> 
</g>
<g style="fill:#000000; fill-opacity:1.0000; 
stroke:#000000; stroke-width:0.0212; stroke-opacity:1; 
stroke-linecap:round; stroke-linejoin:round;">
</g>
<g style="fill:#000000; fill-opacity:1.0000; 
stroke:#000000; stroke-width:0.0000; stroke-opacity:1; 
stroke-linecap:round; stroke-linejoin:round;">
<circle cx="223.0022" cy="52.0000" r="0.4000" /> 
</g>
<g style="fill:#000000; fill-opacity:1.0000; 
stroke:#000000; stroke-width:0.0212; stroke-opacity:1; 
stroke-linecap:round; stroke-linejoin:round;">
</g>
<g style="fill:#000000; fill-opacity:1.0000; 
stroke:#000000; stroke-width:0.0000; stroke-opacity:1; 
stroke-linecap:round; stroke-linejoin:round;">
<circle cx="207.0740" cy="58.8038" r="0.4000" /> 
</g>
<g style="fill:#000000; fill-opacity:1.0000; 
stroke:#000000; stroke-width:0.0212; stroke-opacity:1; 
stroke-linecap:round; stroke-linejoin:round;">
</g>
<g style="fill:#000000; fill-opacity:1.0000; 
stroke:#000000; stroke-width:0.0000; stroke-opacity:1; 
stroke-linecap:round; stroke-linejoin:round;">
<circle cx="226.9304" cy="61.1962" r="0.4000" /> 
</g>
<g style="fill:#000000; fill-opacity:1.0000; 
stroke:#000000; stroke-width:0.0212; stroke-opacity:1; 
stroke-linecap:round; stroke-linejoin:round;">
</g>
<g style="fill:#000000; fill-opacity:1.0000; 
stroke:#000000; stroke-width:0.0000; stroke-opacity:1; 
stroke-linecap:round; stroke-linejoin:round;">
<circle cx="220.9304" cy="69.1962" r="0.4000" /> 
</g>
<g style="fill:#000000; fill-opacity:1.0000; 
stroke:#000000; stroke-width:0.0212; stroke-opacity:1; 
stroke-linecap:round; stroke-linejoin:round;">
</g>
<g style="fill:#000000; fill-opacity:1.0000; 
stroke:#000000; stroke-width:0.0000; stroke-opacity:1; 
stroke-linecap:round; stroke-linejoin:round;">
<circle cx="215.8060" cy="69.9282" r="0.4000" /> 
</g>
<g style="fill:#000000; fill-opacity:1.0000; 
stroke:#000000; stroke-width:0.0212; stroke-opacity:1; 
stroke-linecap:round; stroke-linejoin:round;">
</g>
<g style="fill:#000000; fill-opacity:1.0000; 
stroke:#000000; stroke-width:0.0000; stroke-opacity:1; 
stroke-linecap:round; stroke-linejoin:round;">
<circle cx="213.0740" cy="50.8038" r="0.4000" /> 
</g>
<g style="fill:#000000; fill-opacity:1.0000; 
stroke:#000000; stroke-width:0.0212; stroke-opacity:1; 
stroke-linecap:round; stroke-linejoin:round;">
</g>
<g style="fill:#000000; fill-opacity:1.0000; 
stroke:#000000; stroke-width:0.0000; stroke-opacity:1; 
stroke-linecap:round; stroke-linejoin:round;">
<circle cx="225.0022" cy="66.0000" r="0.4000" /> 
</g>
<g style="fill:#000000; fill-opacity:1.0000; 
stroke:#000000; stroke-width:0.0212; stroke-opacity:1; 
stroke-linecap:round; stroke-linejoin:round;">
</g>
<g style="fill:#000000; fill-opacity:1.0000; 
stroke:#000000; stroke-width:0.0000; stroke-opacity:1; 
stroke-linecap:round; stroke-linejoin:round;">
<circle cx="210.6022" cy="67.7000" r="0.4000" /> 
</g>
<g style="fill:#000000; fill-opacity:1.0000; 
stroke:#000000; stroke-width:0.0212; stroke-opacity:1; 
stroke-linecap:round; stroke-linejoin:round;">
</g>
<g style="fill:#000000; fill-opacity:1.0000; 
stroke:#000000; stroke-width:0.0000; stroke-opacity:1; 
stroke-linecap:round; stroke-linejoin:round;">
<circle cx="226.1984" cy="56.0718" r="0.4000" /> 
</g>
<g style="fill:#000000; fill-opacity:1.0000; 
stroke:#000000; stroke-width:0.0212; stroke-opacity:1; 
stroke-linecap:round; stroke-linejoin:round;">
</g>
<g style="fill:#000000; fill-opacity:1.0000; 
stroke:#000000; stroke-width:0.0000; stroke-opacity:1; 
stroke-linecap:round; stroke-linejoin:round;">
<circle cx="209.0022" cy="54.0000" r="0.4000" /> 
</g>
<g style="fill:#000000; fill-opacity:1.0000; 
stroke:#000000; stroke-width:0.0212; stroke-opacity:1; 
stroke-linecap:round; stroke-linejoin:round;">
</g>
<g style="fill:#000000; fill-opacity:1.0000; 
stroke:#000000; stroke-width:0.0000; stroke-opacity:1; 
stroke-linecap:round; stroke-linejoin:round;">
<circle cx="208.5022" cy="66.0000" r="0.4000" /> 
</g>
<g style="fill:#000000; fill-opacity:1.0000; 
stroke:#000000; stroke-width:0.0212; stroke-opacity:1; 
stroke-linecap:round; stroke-linejoin:round;">
</g>
<g style="fill:#000000; fill-opacity:1.0000; 
stroke:#000000; stroke-width:0.0000; stroke-opacity:1; 
stroke-linecap:round; stroke-linejoin:round;">
<circle cx="218.1984" cy="50.0718" r="0.4000" /> 
</g>
<g style="fill:#000000; fill-opacity:1.0000; 
stroke:#000000; stroke-width:0.0212; stroke-opacity:1; 
stroke-linecap:round; stroke-linejoin:round;">
</g>
<g style="fill:#000000; fill-opacity:1.0000; 
stroke:#000000; stroke-width:0.0000; stroke-opacity:1; 
stroke-linecap:round; stroke-linejoin:round;">
<circle cx="205.0022" cy="62.1000" r="0.4000" /> 
</g>
<g style="fill:#000000; fill-opacity:1.0000; 
stroke:#000000; stroke-width:0.0212; stroke-opacity:1; 
stroke-linecap:round; stroke-linejoin:round;">
</g>
<g style="fill:#000000; fill-opacity:1.0000; 
stroke:#000000; stroke-width:0.0000; stroke-opacity:1; 
stroke-linecap:round; stroke-linejoin:round;">
<circle cx="211.1022" cy="72.0000" r="0.4000" /> 
</g>
<g style="fill:#000000; fill-opacity:1.0000; 
stroke:#000000; stroke-width:0.0212; stroke-opacity:1; 
stroke-linecap:round; stroke-linejoin:round;">
</g>
<g style="fill:#000000; fill-opacity:1.0000; 
stroke:#000000; stroke-width:0.0000; stroke-opacity:1; 
stroke-linecap:round; stroke-linejoin:round;">
<circle cx="205.0022" cy="63.1000" r="0.4000" /> 
</g>
<g style="fill:#000000; fill-opacity:1.0000; 
stroke:#000000; stroke-width:0.0212; stroke-opacity:1; 
stroke-linecap:round; stroke-linejoin:round;">
</g>
<g style="fill:#000000; fill-opacity:1.0000; 
stroke:#000000; stroke-width:0.0000; stroke-opacity:1; 
stroke-linecap:round; stroke-linejoin:round;">
<circle cx="205.0022" cy="64.1000" r="0.4000" /> 
</g>
<g style="fill:#000000; fill-opacity:1.0000; 
stroke:#000000; stroke-width:0.0212; stroke-opacity:1; 
stroke-linecap:round; stroke-linejoin:round;">
</g>
<g style="fill:#000000; fill-opacity:1.0000; 
stroke:#000000; stroke-width:0.0000; stroke-opacity:1; 
stroke-linecap:round; stroke-linejoin:round;">
<circle cx="209.1022" cy="72.0000" r="0.4000" /> 
</g>
<g style="fill:#000000; fill-opacity:1.0000; 
stroke:#000000; stroke-width:0.0212; stroke-opacity:1; 
stroke-linecap:round; stroke-linejoin:round;">
</g>
<g style="fill:#000000; fill-opacity:1.0000; 
stroke:#000000; stroke-width:0.0000; stroke-opacity:1; 
stroke-linecap:round; stroke-linejoin:round;">
<circle cx="210.1022" cy="72.0000" r="0.4000" /> 
</g>
<g style="fill:#000000; fill-opacity:1.0000; 
stroke:#000000; stroke-width:0.0212; stroke-opacity:1; 
stroke-linecap:round; stroke-linejoin:round;">
</g>
<g style="fill:#000000; fill-opacity:1.0000; 
stroke:#000000; stroke-width:0.0000; stroke-opacity:1; 
stroke-linecap:round; stroke-linejoin:round;">
<circle cx="209.0922" cy="61.8200" r="0.4000" /> 
</g>
<g style="fill:#000000; fill-opacity:1.0000; 
stroke:#000000; stroke-width:0.0212; stroke-opacity:1; 
stroke-linecap:round; stroke-linejoin:round;">
</g>
<g >
</g>
<g style="fill:#000000; fill-opacity:1.0000; 
stroke:#000000; stroke-width:0.0212; stroke-opacity:1; 
stroke-linecap:round; stroke-linejoin:round;">
</g>
<g style="fill:#000000; fill-opacity:1.0000; 
stroke:#000000; stroke-width:0.2500; stroke-opacity:1; 
stroke-linecap:round; stroke-linejoin:round;">
</g>
<g style="fill:#000000; fill-opacity:0.0; 
stroke:#000000; stroke-width:0.2500; stroke-opacity:1; 
stroke-linecap:round; stroke-linejoin:round;">
<path d="M212.2022 67.1000
L210.2022 65.1000
" />
<path d="M208.0022 63.1250
L208.8772 64.0000
" />
<path d="M211.6022 69.0000
L212.2022 68.4000
" />
<path d="M210.1272 69.0000
L211.6022 69.0000
" />
<path d="M212.2022 68.4000
L212.2022 67.1000
" />
<path d="M209.8022 64.0000
L210.2022 63.6000
" />
<path d="M208.8772 64.0000
L209.8022 64.0000
" />
<path d="M210.2022 65.1000
L210.2022 63.6000
" />
<path d="M210.1272 71.0000
L210.1272 71.9750
" />
<path d="M206.0022 63.1250
L205.0272 63.1250
" />
<path d="M206.0022 63.1000
L205.0022 62.1000
" />
<path d="M210.1272 71.9750
L210.1022 72.0000
" />
<path d="M210.1022 71.0000
L209.1022 72.0000
" />
<path d="M210.1272 71.0250
L211.1022 72.0000
" />
<path d="M205.9772 63.1250
L205.0022 64.1000
" />
<path d="M205.0272 63.1250
L205.0022 63.1000
" />
<path d="M209.0022 57.0000
L209.0022 61.7300
" />
<path d="M204.2022 61.3000
L204.2022 68.6750
" />
<path d="M208.5722 61.3000
L204.2022 61.3000
" />
<path d="M209.0022 61.7300
L209.0922 61.8200
" />
<path d="M208.0022 56.8750
L208.8772 56.8750
" />
<path d="M208.8772 56.8750
L209.0022 57.0000
" />
<path d="M209.0922 61.8200
L208.5722 61.3000
" />
</g>
<g >
</g>
<g style="fill:#000000; fill-opacity:0.0; 
stroke:#000000; stroke-width:0.2500; stroke-opacity:1; 
stroke-linecap:round; stroke-linejoin:round;">
<g >
</g>
<g style="fill:#000000; fill-opacity:1.0000; 
stroke:#000000; stroke-width:0.0000; stroke-opacity:1; 
stroke-linecap:round; stroke-linejoin:round;">
<path style="fill:#000000; fill-opacity:1.0000; 
stroke:#000000; stroke-width:0.0000; stroke-opacity:1; 
stroke-linecap:round; stroke-linejoin:round;fill-rule:evenodd;"
d="M 202.9995,45.0007
202.9567,45.0045
202.8304,45.0169
202.8105,45.0205
202.7448,45.0382
202.7430,45.0387
202.6506,45.0667
202.6342,45.0730
202.5668,45.1044
202.5638,45.1059
202.5262,45.1260
202.4799,45.1508
202.4735,45.1547
202.4074,45.2010
202.4036,45.2038
202.3314,45.2631
202.3269,45.2672
202.2694,45.3247
202.2653,45.3292
202.2060,45.4014
202.2032,45.4052
202.1569,45.4713
202.1530,45.4777
202.1081,45.5616
202.1066,45.5646
202.0752,45.6320
202.0689,45.6484
202.0409,45.7407
202.0403,45.7426
202.0227,45.8083
202.0191,45.8282
202.0067,45.9546
202.0029,45.9973
202.0027,46.0027
202.0027,70.0016
202.0224,70.0687
202.0752,70.1144
202.1443,70.1244
202.2010,70.1009
202.2601,70.0566
202.2601,70.0566
202.3948,70.0064
202.3948,70.0064
202.4544,70.0000
203.6272,70.0000
203.6272,72.0000
202.4544,72.0000
202.4544,72.0000
202.3948,71.9936
202.3948,71.9936
202.2601,71.9434
202.2601,71.9434
202.2010,71.8991
202.1355,71.8747
202.0673,71.8895
202.0179,71.9389
202.0027,71.9984
202.0027,73.9973
202.0029,74.0027
202.0067,74.0454
202.0191,74.1718
202.0227,74.1917
202.0403,74.2574
202.0409,74.2593
202.0689,74.3516
202.0752,74.3680
202.1066,74.4354
202.1081,74.4384
202.1530,74.5223
202.1569,74.5287
202.2032,74.5948
202.2060,74.5986
202.2653,74.6708
202.2694,74.6753
202.3269,74.7328
202.3314,74.7369
202.4036,74.7962
202.4074,74.7990
202.4735,74.8453
202.4799,74.8492
202.5638,74.8941
202.5668,74.8956
202.6342,74.9270
202.6506,74.9333
202.7429,74.9613
202.7448,74.9619
202.8105,74.9795
202.8304,74.9831
202.9568,74.9955
202.9949,74.9989
202.9995,74.9993
203.0049,74.9995
230.9995,74.9995
231.0049,74.9993
231.0099,74.9988
231.0476,74.9955
231.1740,74.9831
231.1939,74.9795
231.2596,74.9619
231.2615,74.9613
231.2991,74.9499
231.3538,74.9333
231.3702,74.9270
231.4376,74.8956
231.4406,74.8941
231.5245,74.8492
231.5309,74.8453
231.5970,74.7990
231.6008,74.7962
231.6730,74.7369
231.6775,74.7328
231.7350,74.6753
231.7391,74.6708
231.7984,74.5986
231.8012,74.5948
231.8475,74.5287
231.8514,74.5223
231.8762,74.4760
231.8963,74.4384
231.8978,74.4354
231.9292,74.3680
231.9355,74.3516
231.9635,74.2592
231.9640,74.2574
231.9817,74.1917
231.9853,74.1718
231.9977,74.0454
232.0015,74.0027
232.0017,73.9973
232.0017,72.0000
230.3579,72.0000
230.3373,72.2354
230.3373,72.2354
230.2761,72.4637
230.2761,72.4637
230.2761,72.4637
230.2262,72.5707
230.1762,72.6778
230.1762,72.6778
230.0407,72.8714
229.8736,73.0385
229.6800,73.1740
229.6800,73.1740
229.4659,73.2739
229.2376,73.3351
229.0612,73.3505
229.0612,73.3505
229.0612,73.3505
228.9432,73.3505
228.9432,73.3505
228.7668,73.3351
228.5385,73.2739
228.3244,73.1740
228.1308,73.0385
227.9637,72.8714
227.8282,72.6778
227.7283,72.4637
227.6671,72.2354
227.6465,72.0000
211.7575,72.0000
211.7384,72.1568
211.7086,72.2354
211.6824,72.3045
211.5927,72.4345
211.4744,72.5393
211.4744,72.5393
211.3346,72.6127
211.1812,72.6505
211.1812,72.6505
211.0232,72.6505
210.8698,72.6127
210.7300,72.5393
210.7300,72.5393
210.7300,72.5393
210.6844,72.4989
210.6212,72.4692
210.5519,72.4784
210.5200,72.4989
210.4853,72.5297
210.4744,72.5393
210.3346,72.6127
210.1812,72.6505
210.1812,72.6505
210.0232,72.6505
209.8698,72.6127
209.7300,72.5393
209.7300,72.5393
209.7300,72.5393
209.6844,72.4989
209.6212,72.4692
209.5519,72.4784
209.5200,72.4989
209.4853,72.5297
209.4744,72.5393
209.3346,72.6127
209.1812,72.6505
209.1812,72.6505
209.0232,72.6505
208.8698,72.6127
208.8698,72.6127
208.7300,72.5393
208.6117,72.4345
208.5220,72.3045
208.4660,72.1568
208.4469,72.0000
208.4477,71.9936
208.4660,71.8432
208.4958,71.7646
208.5211,71.6977
208.5265,71.6280
208.5198,71.6063
208.5162,71.5977
208.5162,71.5977
208.5017,71.5247
208.5017,71.2500
205.7522,71.2500
205.7522,71.5478
205.7458,71.6074
205.7458,71.6074
205.6956,71.7421
205.6956,71.7421
205.6094,71.8572
205.6094,71.8572
205.4943,71.9433
205.4943,71.9434
205.3596,71.9936
205.3596,71.9936
205.3000,72.0000
205.3000,72.0000
204.1272,72.0000
204.1272,71.2500
205.7522,71.2500
208.5017,71.2500
208.5017,70.7500
205.7522,70.7500
204.1272,70.7500
204.1272,70.0000
205.3000,70.0000
205.3596,70.0064
205.3596,70.0064
205.4943,70.0566
205.4943,70.0566
205.6094,70.1428
205.6094,70.1428
205.6956,70.2579
205.6956,70.2579
205.7458,70.3926
205.7458,70.3926
205.7522,70.4522
205.7522,70.7500
208.5017,70.7500
208.5017,70.4753
208.5017,70.4753
208.5017,70.4753
208.5162,70.4023
208.5162,70.4023
208.5162,70.4023
208.5716,70.3194
208.6545,70.2640
208.6545,70.2640
208.6545,70.2640
208.7275,70.2495
208.7275,70.2495
211.5269,70.2495
211.5269,70.2495
211.5999,70.2640
211.5999,70.2640
211.6828,70.3194
211.7382,70.4023
211.7382,70.4023
211.7527,70.4753
211.7527,71.5247
211.7382,71.5977
211.7382,71.5977
211.7145,71.6332
211.6936,71.6999
211.7016,71.7461
211.7384,71.8432
211.7575,72.0000
211.7575,72.0000
227.6465,72.0000
227.6671,71.7646
227.7283,71.5363
227.8282,71.3222
227.8282,71.3222
227.9637,71.1286
228.1308,70.9615
228.3244,70.8260
228.3244,70.8260
228.4315,70.7760
228.5385,70.7261
228.5385,70.7261
228.5385,70.7261
228.7668,70.6649
228.7668,70.6649
228.9432,70.6495
228.9432,70.6495
229.0612,70.6495
229.0612,70.6495
229.2376,70.6649
229.2376,70.6649
229.4659,70.7261
229.4659,70.7261
229.6800,70.8260
229.6800,70.8260
229.8736,70.9615
230.0407,71.1286
230.0407,71.1286
230.1762,71.3222
230.1762,71.3222
230.2761,71.5363
230.2761,71.5363
230.3373,71.7646
230.3373,71.7646
230.3579,72.0000
230.3579,72.0000
232.0017,72.0000
232.0017,68.3843
212.5826,68.3843
212.5782,68.4195
212.5777,68.4272
212.5777,68.4311
212.5741,68.4529
212.5737,68.4554
212.5671,68.5086
212.5648,68.5161
212.5623,68.5236
212.5495,68.5472
212.5368,68.5708
212.5356,68.5730
212.5120,68.6212
212.5075,68.6276
212.5026,68.6338
212.4631,68.6702
212.4613,68.6719
211.9044,69.2289
211.8882,69.2487
211.8823,69.2578
211.8543,69.2796
211.8485,69.2847
211.8457,69.2875
211.8278,69.3003
211.8257,69.3019
211.8005,69.3215
211.7597,69.3782
211.7527,69.4193
211.7527,69.5247
211.7382,69.5977
211.7382,69.5977
211.7382,69.5977
211.6828,69.6806
211.5999,69.7360
211.5999,69.7360
211.5269,69.7505
211.5269,69.7505
211.5269,69.7505
208.7275,69.7505
208.7275,69.7505
208.6545,69.7360
208.5716,69.6806
208.5162,69.5977
208.5017,69.5247
208.5017,68.4753
208.5017,68.4753
208.5017,68.4753
208.5017,68.4753
208.5162,68.4023
208.5162,68.4023
208.5354,68.3736
208.5716,68.3194
208.6545,68.2640
208.6545,68.2640
208.6545,68.2640
208.7275,68.2495
208.7275,68.2495
211.5269,68.2495
211.5269,68.2495
211.5999,68.2640
211.5999,68.2640
211.6338,68.2867
211.7005,68.3075
211.7679,68.2891
211.8146,68.2371
211.8267,68.1836
211.8267,68.1255
211.8267,67.3069
211.8070,67.2399
211.7904,67.2192
209.9733,65.4021
209.9535,65.3860
209.9444,65.3801
209.9226,65.3521
209.9175,65.3463
209.9147,65.3435
209.9018,65.3255
209.9004,65.3235
209.8674,65.2812
209.8674,65.2812
209.8637,65.2743
209.8602,65.2672
209.8602,65.2672
209.8449,65.2158
209.8441,65.2134
209.8267,65.1627
209.8267,65.1627
209.8254,65.1549
209.8244,65.1471
209.8266,65.0935
209.8267,65.0910
209.8267,64.4995
209.8070,64.4325
209.7542,64.3867
209.7027,64.3755
208.9290,64.3755
208.9036,64.3781
208.9005,64.3788
208.8929,64.3804
208.8920,64.3803
208.8908,64.3805
208.8827,64.3808
208.8827,64.3818
208.8231,64.3915
208.7711,64.4382
208.7527,64.5033
208.7527,64.5247
208.7382,64.5977
208.7382,64.5977
208.7382,64.5977
208.6828,64.6806
208.6099,64.7293
208.5999,64.7360
208.5999,64.7360
208.5269,64.7505
208.5269,64.7505
208.5269,64.7505
207.4775,64.7505
207.4775,64.7505
207.4045,64.7360
207.3216,64.6806
207.2662,64.5977
207.2517,64.5247
207.2517,61.7995
207.2320,61.7325
207.1792,61.6867
207.1277,61.6755
206.8767,61.6755
206.8097,61.6952
206.7639,61.7480
206.7527,61.7995
206.7527,64.5247
206.7382,64.5977
206.7382,64.5977
206.7382,64.5977
206.6828,64.6806
206.6099,64.7293
206.5999,64.7360
206.5999,64.7360
206.5269,64.7505
206.5269,64.7505
206.5269,64.7505
205.4775,64.7505
205.4775,64.7505
205.4045,64.7360
205.3715,64.7139
205.3048,64.6931
205.2450,64.7072
205.2346,64.7127
205.1402,64.7360
205.0812,64.7505
205.0812,64.7505
204.9232,64.7505
204.7698,64.7127
204.7593,64.7072
204.6908,64.6935
204.6258,64.7189
204.5848,64.7756
204.5777,64.8170
204.5777,68.1255
204.5974,68.1925
204.6502,68.2383
204.7017,68.2495
205.2769,68.2495
205.3499,68.2640
205.3499,68.2640
205.4328,68.3194
205.4882,68.4023
205.4882,68.4023
205.5027,68.4753
205.5027,69.5247
205.4882,69.5977
205.4882,69.5977
205.4882,69.5977
205.4328,69.6806
205.3499,69.7360
205.3499,69.7360
205.3499,69.7360
205.2769,69.7505
205.2769,69.7505
205.2769,69.7505
202.4775,69.7505
202.4775,69.7505
202.4045,69.7360
202.3216,69.6806
202.2662,69.5977
202.2517,69.5247
202.2517,68.4753
202.2517,68.4753
202.2517,68.4753
202.2517,68.4753
202.2662,68.4023
202.2662,68.4023
202.2854,68.3736
202.3216,68.3194
202.4045,68.2640
202.4045,68.2640
202.4045,68.2640
202.4775,68.2495
202.4775,68.2495
203.7027,68.2495
203.7697,68.2298
203.8155,68.1770
203.8267,68.1255
203.8267,61.3181
203.8265,61.3130
203.8228,61.2686
203.8338,61.2254
203.8348,61.2204
203.8421,61.1764
203.8423,61.1760
203.8535,61.1475
203.8536,61.1471
203.8536,61.1471
203.8779,61.1098
203.8806,61.1054
203.9018,61.0662
203.9021,61.0659
203.9219,61.0425
203.9221,61.0422
203.9221,61.0422
203.9573,61.0148
203.9612,61.0115
203.9720,61.0015
203.9940,60.9813
203.9944,60.9811
204.0207,60.9654
204.0210,60.9652
204.0632,60.9507
204.0679,60.9489
204.1087,60.9310
204.1088,60.9310
204.1092,60.9309
204.1392,60.9246
204.1395,60.9245
204.1841,60.9245
204.1892,60.9243
204.1983,60.9235
204.2336,60.9206
204.2338,60.9207
204.2340,60.9207
204.2645,60.9245
208.5027,60.9245
208.5697,60.9048
208.6155,60.8520
208.6267,60.8005
208.6267,58.6245
208.6070,58.5575
208.5542,58.5117
208.5027,58.5005
207.4775,58.5005
207.4775,58.5005
207.4045,58.4860
207.3216,58.4306
207.2662,58.3477
207.2517,58.2747
207.2517,57.1250
207.0022,57.1250
207.0022,58.2978
206.9958,58.3574
206.9958,58.3574
206.9456,58.4921
206.9456,58.4921
206.8594,58.6072
206.8594,58.6072
206.7443,58.6933
206.7443,58.6934
206.6096,58.7436
206.6096,58.7436
206.5500,58.7500
206.5500,58.7500
206.2522,58.7500
206.2522,57.1250
205.7522,57.1250
205.7522,58.7500
205.4544,58.7500
205.4544,58.7500
205.3948,58.7436
205.3948,58.7436
205.2601,58.6934
205.2601,58.6933
205.1450,58.6072
205.1450,58.6072
205.0588,58.4921
205.0588,58.4921
205.0086,58.3574
205.0086,58.3574
205.0022,58.2978
205.0022,58.2978
205.0022,57.1250
205.7522,57.1250
206.2522,57.1250
207.0022,57.1250
207.2517,57.1250
207.2517,56.6250
207.0022,56.6250
206.2522,56.6250
206.2522,55.0000
205.7522,55.0000
205.7522,56.6250
205.0022,56.6250
205.0022,55.4522
205.0022,55.4522
205.0086,55.3926
205.0086,55.3926
205.0588,55.2579
205.0588,55.2579
205.1450,55.1428
205.1450,55.1428
205.2601,55.0566
205.2601,55.0566
205.3948,55.0064
205.3948,55.0064
205.4544,55.0000
205.7522,55.0000
206.2522,55.0000
206.5500,55.0000
206.6096,55.0064
206.6096,55.0064
206.7443,55.0566
206.7443,55.0566
206.8594,55.1428
206.8594,55.1428
206.9456,55.2579
206.9456,55.2579
206.9958,55.3926
206.9958,55.3926
207.0022,55.4522
207.0022,56.6250
207.2517,56.6250
207.2517,55.4753
207.2517,55.4753
207.2517,55.4753
207.2662,55.4023
207.2662,55.4023
207.2662,55.4023
207.3216,55.3194
207.4045,55.2640
207.4045,55.2640
207.4045,55.2640
207.4775,55.2495
207.4775,55.2495
208.5269,55.2495
208.5269,55.2495
208.5999,55.2640
208.5999,55.2640
208.6828,55.3194
208.7382,55.4023
208.7382,55.4023
208.7527,55.4753
208.7527,56.3716
208.7724,56.4386
208.8252,56.4844
208.8614,56.4946
208.8967,56.4990
208.9044,56.4995
208.9083,56.4995
208.9301,56.5031
208.9326,56.5035
208.9858,56.5101
208.9933,56.5124
209.0008,56.5149
209.0480,56.5404
209.0502,56.5416
209.0984,56.5652
209.1048,56.5697
209.1110,56.5746
209.1473,56.6140
209.1491,56.6159
209.2311,56.6979
209.2509,56.7140
209.2600,56.7199
209.2600,56.7199
209.2818,56.7479
209.2869,56.7537
209.2897,56.7565
209.2897,56.7565
209.3025,56.7744
209.3041,56.7765
209.3370,56.8188
209.3408,56.8257
209.3442,56.8328
209.3595,56.8842
209.3603,56.8866
209.3777,56.9373
209.3790,56.9451
209.3800,56.9529
209.3778,57.0065
209.3777,57.0090
209.3777,61.1602
209.3974,61.2273
209.4441,61.2700
209.4644,61.2807
209.4644,61.2807
209.5827,61.3855
209.6724,61.5155
209.6724,61.5155
209.7284,61.6632
209.7475,61.8200
209.7475,61.8200
209.7284,61.9768
209.6724,62.1245
209.6724,62.1245
209.5827,62.2545
209.4644,62.3593
209.4644,62.3593
209.3246,62.4327
209.1712,62.4705
209.1712,62.4705
209.0132,62.4705
208.9064,62.4442
208.8366,62.4472
208.7795,62.4876
208.7533,62.5523
208.7527,62.5646
208.7527,63.2931
208.7724,63.3601
208.7890,63.3808
208.9964,63.5882
209.0577,63.6217
209.0841,63.6245
209.4341,63.6245
209.5011,63.6048
209.5469,63.5520
209.5572,63.5154
209.5660,63.4432
209.6220,63.2955
209.7117,63.1655
209.8300,63.0607
209.8300,63.0607
209.8300,63.0607
209.9698,62.9873
210.1232,62.9495
210.1232,62.9495
210.2812,62.9495
210.2812,62.9495
210.4346,62.9873
210.5744,63.0607
210.6927,63.1655
210.7824,63.2955
210.7824,63.2955
210.8384,63.4432
210.8575,63.6000
210.8575,63.6000
210.8384,63.7568
210.7824,63.9045
210.7824,63.9045
210.6927,64.0345
210.6195,64.0994
210.5823,64.1586
210.5777,64.1922
210.5777,64.8931
210.5974,64.9601
210.6140,64.9808
212.4311,66.7979
212.4509,66.8140
212.4600,66.8199
212.4600,66.8199
212.4818,66.8479
212.4869,66.8537
212.4897,66.8565
212.4897,66.8565
212.5025,66.8744
212.5041,66.8765
212.5370,66.9188
212.5408,66.9257
212.5442,66.9328
212.5595,66.9842
212.5603,66.9866
212.5777,67.0373
212.5790,67.0451
212.5800,67.0529
212.5778,67.1065
212.5777,67.1090
212.5777,68.3482
212.5803,68.3736
212.5826,68.3843
212.5826,68.3843
212.5826,68.3843
232.0017,68.3843
232.0017,60.0000
223.1077,60.0000
223.0879,60.4913
223.0879,60.4913
223.0286,60.9794
222.9302,61.4611
222.7934,61.9334
222.6191,62.3931
222.4083,62.8374
222.1625,63.2632
222.1625,63.2632
222.1402,63.2955
221.9251,63.6070
221.8832,63.6678
221.5722,64.0486
221.5722,64.0487
221.5722,64.0487
221.2522,64.3818
221.2316,64.4033
221.2316,64.4033
220.8636,64.7293
220.7469,64.8170
220.4705,65.0247
220.0549,65.2875
220.0549,65.2875
220.0549,65.2875
219.9055,65.3659
219.6196,65.5160
219.1672,65.7087
218.7008,65.8644
218.2234,65.9821
218.2234,65.9821
218.2234,65.9821
217.7745,66.0550
217.7381,66.0609
217.2480,66.1005
217.2480,66.1005
216.7564,66.1005
216.7564,66.1005
216.2663,66.0609
216.1177,66.0368
215.7810,65.9821
215.7810,65.9821
215.7810,65.9821
215.3036,65.8644
214.8372,65.7087
214.3848,65.5160
213.9495,65.2875
213.5339,65.0247
213.1408,64.7293
213.1408,64.7293
213.1408,64.7293
212.7728,64.4033
212.7728,64.4033
212.7728,64.4033
212.4322,64.0487
212.1212,63.6678
211.8419,63.2632
211.5961,62.8373
211.3853,62.3931
211.2110,61.9334
211.0742,61.4611
210.9758,60.9794
210.9165,60.4913
210.9165,60.4913
210.8967,60.0000
210.8967,60.0000
210.9165,59.5087
210.9165,59.5087
210.9165,59.5087
210.9758,59.0206
211.0742,58.5389
211.1055,58.4306
211.2110,58.0666
211.2879,57.8636
211.3853,57.6069
211.5961,57.1627
211.7262,56.9373
211.8419,56.7368
211.8419,56.7368
211.8577,56.7140
212.1212,56.3322
212.1212,56.3322
212.1213,56.3322
212.4322,55.9513
212.4322,55.9513
212.7728,55.5967
212.7728,55.5967
213.1408,55.2707
213.3374,55.1230
213.5339,54.9753
213.9495,54.7125
213.9495,54.7125
213.9495,54.7125
214.3848,54.4840
214.5624,54.4084
214.8372,54.2913
214.8372,54.2913
214.8372,54.2913
215.0677,54.2144
215.3036,54.1356
215.3036,54.1356
215.3036,54.1356
215.4865,54.0905
215.7810,54.0179
215.7810,54.0179
215.7810,54.0179
215.7810,54.0179
216.2663,53.9391
216.7563,53.8995
216.7564,53.8995
217.2480,53.8995
217.2481,53.8995
217.7381,53.9391
218.2234,54.0179
218.2234,54.0179
218.2234,54.0179
218.2234,54.0179
218.2471,54.0238
218.7008,54.1356
218.7008,54.1356
219.1672,54.2913
219.1672,54.2913
219.1672,54.2913
219.2715,54.3357
219.6196,54.4840
220.0549,54.7125
220.4705,54.9753
220.4705,54.9753
220.8636,55.2707
221.2316,55.5967
221.2316,55.5967
221.5722,55.9513
221.5722,55.9513
221.8832,56.3322
222.1625,56.7368
222.1625,56.7368
222.4083,57.1626
222.6191,57.6069
222.7934,58.0666
222.9302,58.5389
223.0286,59.0206
223.0879,59.5087
223.0879,59.5087
223.1077,60.0000
223.1077,60.0000
232.0017,60.0000
232.0017,48.0000
230.3579,48.0000
230.3373,48.2354
230.3373,48.2354
230.2761,48.4637
230.2761,48.4637
230.2761,48.4637
230.2262,48.5707
230.1762,48.6778
230.1762,48.6778
230.0407,48.8714
229.8736,49.0385
229.6800,49.1740
229.6800,49.1740
229.4659,49.2739
229.2376,49.3351
229.0612,49.3505
229.0612,49.3505
229.0612,49.3505
228.9432,49.3505
228.9432,49.3505
228.7668,49.3351
228.5385,49.2739
228.3244,49.1740
228.1308,49.0385
227.9637,48.8714
227.8282,48.6778
227.7283,48.4637
227.6671,48.2354
227.6465,48.0000
206.3579,48.0000
206.3373,48.2354
206.3373,48.2354
206.2761,48.4637
206.2761,48.4637
206.2761,48.4637
206.2262,48.5707
206.1762,48.6778
206.1762,48.6778
206.0407,48.8714
205.8736,49.0385
205.6800,49.1740
205.6800,49.1740
205.4659,49.2739
205.2376,49.3351
205.0612,49.3505
205.0612,49.3505
205.0612,49.3505
204.9432,49.3505
204.9432,49.3505
204.7668,49.3351
204.5385,49.2739
204.3244,49.1740
204.1308,49.0385
203.9637,48.8714
203.8282,48.6778
203.7283,48.4637
203.6671,48.2354
203.6465,48.0000
203.6671,47.7646
203.7283,47.5363
203.8282,47.3222
203.8282,47.3222
203.9637,47.1286
204.1308,46.9615
204.3244,46.8260
204.3244,46.8260
204.4315,46.7760
204.5385,46.7261
204.5385,46.7261
204.5385,46.7261
204.7668,46.6649
204.7668,46.6649
204.9432,46.6495
204.9432,46.6495
205.0612,46.6495
205.0612,46.6495
205.2376,46.6649
205.2376,46.6649
205.4659,46.7261
205.4659,46.7261
205.6800,46.8260
205.6800,46.8260
205.8736,46.9615
206.0407,47.1286
206.0407,47.1286
206.1762,47.3222
206.1762,47.3222
206.2761,47.5363
206.2761,47.5363
206.3373,47.7646
206.3373,47.7646
206.3579,48.0000
206.3579,48.0000
227.6465,48.0000
227.6671,47.7646
227.7283,47.5363
227.8282,47.3222
227.8282,47.3222
227.9637,47.1286
228.1308,46.9615
228.3244,46.8260
228.3244,46.8260
228.4315,46.7760
228.5385,46.7261
228.5385,46.7261
228.5385,46.7261
228.7668,46.6649
228.7668,46.6649
228.9432,46.6495
228.9432,46.6495
229.0612,46.6495
229.0612,46.6495
229.2376,46.6649
229.2376,46.6649
229.4659,46.7261
229.4659,46.7261
229.6800,46.8260
229.6800,46.8260
229.8736,46.9615
230.0407,47.1286
230.0407,47.1286
230.1762,47.3222
230.1762,47.3222
230.2761,47.5363
230.2761,47.5363
230.3373,47.7646
230.3373,47.7646
230.3579,48.0000
230.3579,48.0000
232.0017,48.0000
232.0017,46.0027
232.0015,45.9973
231.9977,45.9545
231.9853,45.8282
231.9817,45.8083
231.9640,45.7425
231.9635,45.7408
231.9355,45.6484
231.9293,45.6320
231.8978,45.5646
231.8963,45.5617
231.8514,45.4777
231.8475,45.4713
231.8144,45.4239
231.8012,45.4052
231.7984,45.4014
231.7391,45.3292
231.7350,45.3247
231.6775,45.2672
231.6730,45.2631
231.6008,45.2038
231.5970,45.2010
231.5309,45.1547
231.5245,45.1508
231.4405,45.1059
231.4376,45.1044
231.3702,45.0729
231.3538,45.0667
231.2614,45.0387
231.2597,45.0382
231.1939,45.0205
231.1740,45.0169
231.0604,45.0057
231.0476,45.0045
231.0049,45.0007
230.9995,45.0005
203.0049,45.0005
Z" /> 
</g>
</g>
</g>
<g style="fill:#FFFFFF; fill-opacity:1.0000; 
stroke:#FFFFFF; stroke-width:0.0000; stroke-opacity:1; 
stroke-linecap:round; stroke-linejoin:round;">
<circle cx="210.2022" cy="63.6000" r="0.2000" /> 
</g>
<g style="fill:#FFFFFF; fill-opacity:1.0000; 
stroke:#FFFFFF; stroke-width:0.0212; stroke-opacity:1; 
stroke-linecap:round; stroke-linejoin:round;">
</g>
<g style="fill:#FFFFFF; fill-opacity:1.0000; 
stroke:#FFFFFF; stroke-width:0.0000; stroke-opacity:1; 
stroke-linecap:round; stroke-linejoin:round;">
<circle cx="223.0022" cy="52.0000" r="0.2000" /> 
</g>
<g style="fill:#FFFFFF; fill-opacity:1.0000; 
stroke:#FFFFFF; stroke-width:0.0212; stroke-opacity:1; 
stroke-linecap:round; stroke-linejoin:round;">
</g>
<g style="fill:#FFFFFF; fill-opacity:1.0000; 
stroke:#FFFFFF; stroke-width:0.0000; stroke-opacity:1; 
stroke-linecap:round; stroke-linejoin:round;">
<circle cx="207.0740" cy="58.8038" r="0.2000" /> 
</g>
<g style="fill:#FFFFFF; fill-opacity:1.0000; 
stroke:#FFFFFF; stroke-width:0.0212; stroke-opacity:1; 
stroke-linecap:round; stroke-linejoin:round;">
</g>
<g style="fill:#FFFFFF; fill-opacity:1.0000; 
stroke:#FFFFFF; stroke-width:0.0000; stroke-opacity:1; 
stroke-linecap:round; stroke-linejoin:round;">
<circle cx="226.9304" cy="61.1962" r="0.2000" /> 
</g>
<g style="fill:#FFFFFF; fill-opacity:1.0000; 
stroke:#FFFFFF; stroke-width:0.0212; stroke-opacity:1; 
stroke-linecap:round; stroke-linejoin:round;">
</g>
<g style="fill:#FFFFFF; fill-opacity:1.0000; 
stroke:#FFFFFF; stroke-width:0.0000; stroke-opacity:1; 
stroke-linecap:round; stroke-linejoin:round;">
<circle cx="220.9304" cy="69.1962" r="0.2000" /> 
</g>
<g style="fill:#FFFFFF; fill-opacity:1.0000; 
stroke:#FFFFFF; stroke-width:0.0212; stroke-opacity:1; 
stroke-linecap:round; stroke-linejoin:round;">
</g>
<g style="fill:#FFFFFF; fill-opacity:1.0000; 
stroke:#FFFFFF; stroke-width:0.0000; stroke-opacity:1; 
stroke-linecap:round; stroke-linejoin:round;">
<circle cx="215.8060" cy="69.9282" r="0.2000" /> 
</g>
<g style="fill:#FFFFFF; fill-opacity:1.0000; 
stroke:#FFFFFF; stroke-width:0.0212; stroke-opacity:1; 
stroke-linecap:round; stroke-linejoin:round;">
</g>
<g style="fill:#FFFFFF; fill-opacity:1.0000; 
stroke:#FFFFFF; stroke-width:0.0000; stroke-opacity:1; 
stroke-linecap:round; stroke-linejoin:round;">
<circle cx="213.0740" cy="50.8038" r="0.2000" /> 
</g>
<g style="fill:#FFFFFF; fill-opacity:1.0000; 
stroke:#FFFFFF; stroke-width:0.0212; stroke-opacity:1; 
stroke-linecap:round; stroke-linejoin:round;">
</g>
<g style="fill:#FFFFFF; fill-opacity:1.0000; 
stroke:#FFFFFF; stroke-width:0.0000; stroke-opacity:1; 
stroke-linecap:round; stroke-linejoin:round;">
<circle cx="225.0022" cy="66.0000" r="0.2000" /> 
</g>
<g style="fill:#FFFFFF; fill-opacity:1.0000; 
stroke:#FFFFFF; stroke-width:0.0212; stroke-opacity:1; 
stroke-linecap:round; stroke-linejoin:round;">
</g>
<g style="fill:#FFFFFF; fill-opacity:1.0000; 
stroke:#FFFFFF; stroke-width:0.0000; stroke-opacity:1; 
stroke-linecap:round; stroke-linejoin:round;">
<circle cx="210.6022" cy="67.7000" r="0.2000" /> 
</g>
<g style="fill:#FFFFFF; fill-opacity:1.0000; 
stroke:#FFFFFF; stroke-width:0.0212; stroke-opacity:1; 
stroke-linecap:round; stroke-linejoin:round;">
</g>
<g style="fill:#FFFFFF; fill-opacity:1.0000; 
stroke:#FFFFFF; stroke-width:0.0000; stroke-opacity:1; 
stroke-linecap:round; stroke-linejoin:round;">
<circle cx="226.1984" cy="56.0718" r="0.2000" /> 
</g>
<g style="fill:#FFFFFF; fill-opacity:1.0000; 
stroke:#FFFFFF; stroke-width:0.0212; stroke-opacity:1; 
stroke-linecap:round; stroke-linejoin:round;">
</g>
<g style="fill:#FFFFFF; fill-opacity:1.0000; 
stroke:#FFFFFF; stroke-width:0.0000; stroke-opacity:1; 
stroke-linecap:round; stroke-linejoin:round;">
<circle cx="209.0022" cy="54.0000" r="0.2000" /> 
</g>
<g style="fill:#FFFFFF; fill-opacity:1.0000; 
stroke:#FFFFFF; stroke-width:0.0212; stroke-opacity:1; 
stroke-linecap:round; stroke-linejoin:round;">
</g>
<g style="fill:#FFFFFF; fill-opacity:1.0000; 
stroke:#FFFFFF; stroke-width:0.0000; stroke-opacity:1; 
stroke-linecap:round; stroke-linejoin:round;">
<circle cx="208.5022" cy="66.0000" r="0.2000" /> 
</g>
<g style="fill:#FFFFFF; fill-opacity:1.0000; 
stroke:#FFFFFF; stroke-width:0.0212; stroke-opacity:1; 
stroke-linecap:round; stroke-linejoin:round;">
</g>
<g style="fill:#FFFFFF; fill-opacity:1.0000; 
stroke:#FFFFFF; stroke-width:0.0000; stroke-opacity:1; 
stroke-linecap:round; stroke-linejoin:round;">
<circle cx="218.1984" cy="50.0718" r="0.2000" /> 
</g>
<g style="fill:#FFFFFF; fill-opacity:1.0000; 
stroke:#FFFFFF; stroke-width:0.0212; stroke-opacity:1; 
stroke-linecap:round; stroke-linejoin:round;">
</g>
<g style="fill:#FFFFFF; fill-opacity:1.0000; 
stroke:#FFFFFF; stroke-width:0.0000; stroke-opacity:1; 
stroke-linecap:round; stroke-linejoin:round;">
<circle cx="205.0022" cy="62.1000" r="0.2000" /> 
</g>
<g style="fill:#FFFFFF; fill-opacity:1.0000; 
stroke:#FFFFFF; stroke-width:0.0212; stroke-opacity:1; 
stroke-linecap:round; stroke-linejoin:round;">
</g>
<g style="fill:#FFFFFF; fill-opacity:1.0000; 
stroke:#FFFFFF; stroke-width:0.0000; stroke-opacity:1; 
stroke-linecap:round; stroke-linejoin:round;">
<circle cx="211.1022" cy="72.0000" r="0.2000" /> 
</g>
<g style="fill:#FFFFFF; fill-opacity:1.0000; 
stroke:#FFFFFF; stroke-width:0.0212; stroke-opacity:1; 
stroke-linecap:round; stroke-linejoin:round;">
</g>
<g style="fill:#FFFFFF; fill-opacity:1.0000; 
stroke:#FFFFFF; stroke-width:0.0000; stroke-opacity:1; 
stroke-linecap:round; stroke-linejoin:round;">
<circle cx="205.0022" cy="63.1000" r="0.2000" /> 
</g>
<g style="fill:#FFFFFF; fill-opacity:1.0000; 
stroke:#FFFFFF; stroke-width:0.0212; stroke-opacity:1; 
stroke-linecap:round; stroke-linejoin:round;">
</g>
<g style="fill:#FFFFFF; fill-opacity:1.0000; 
stroke:#FFFFFF; stroke-width:0.0000; stroke-opacity:1; 
stroke-linecap:round; stroke-linejoin:round;">
<circle cx="205.0022" cy="64.1000" r="0.2000" /> 
</g>
<g style="fill:#FFFFFF; fill-opacity:1.0000; 
stroke:#FFFFFF; stroke-width:0.0212; stroke-opacity:1; 
stroke-linecap:round; stroke-linejoin:round;">
</g>
<g style="fill:#FFFFFF; fill-opacity:1.0000; 
stroke:#FFFFFF; stroke-width:0.0000; stroke-opacity:1; 
stroke-linecap:round; stroke-linejoin:round;">
<circle cx="209.1022" cy="72.0000" r="0.2000" /> 
</g>
<g style="fill:#FFFFFF; fill-opacity:1.0000; 
stroke:#FFFFFF; stroke-width:0.0212; stroke-opacity:1; 
stroke-linecap:round; stroke-linejoin:round;">
</g>
<g style="fill:#FFFFFF; fill-opacity:1.0000; 
stroke:#FFFFFF; stroke-width:0.0000; stroke-opacity:1; 
stroke-linecap:round; stroke-linejoin:round;">
<circle cx="210.1022" cy="72.0000" r="0.2000" /> 
</g>
<g style="fill:#FFFFFF; fill-opacity:1.0000; 
stroke:#FFFFFF; stroke-width:0.0212; stroke-opacity:1; 
stroke-linecap:round; stroke-linejoin:round;">
</g>
<g style="fill:#FFFFFF; fill-opacity:1.0000; 
stroke:#FFFFFF; stroke-width:0.0000; stroke-opacity:1; 
stroke-linecap:round; stroke-linejoin:round;">
<circle cx="209.0922" cy="61.8200" r="0.2000" /> 
</g>
<g style="fill:#FFFFFF; fill-opacity:1.0000; 
stroke:#FFFFFF; stroke-width:0.0212; stroke-opacity:1; 
stroke-linecap:round; stroke-linejoin:round;">
</g>
<g style="fill:#FFFFFF; fill-opacity:1.0000; 
stroke:#FFFFFF; stroke-width:0.0000; stroke-opacity:1; 
stroke-linecap:round; stroke-linejoin:round;">
<circle cx="229.0022" cy="48.0000" r="1.1000" /> 
</g>
<g style="fill:#FFFFFF; fill-opacity:1.0000; 
stroke:#FFFFFF; stroke-width:0.0212; stroke-opacity:1; 
stroke-linecap:round; stroke-linejoin:round;">
</g>
<g style="fill:#FFFFFF; fill-opacity:1.0000; 
stroke:#FFFFFF; stroke-width:0.0000; stroke-opacity:1; 
stroke-linecap:round; stroke-linejoin:round;">
<circle cx="205.0022" cy="48.0000" r="1.1000" /> 
</g>
<g style="fill:#FFFFFF; fill-opacity:1.0000; 
stroke:#FFFFFF; stroke-width:0.0212; stroke-opacity:1; 
stroke-linecap:round; stroke-linejoin:round;">
</g>
<g style="fill:#FFFFFF; fill-opacity:1.0000; 
stroke:#FFFFFF; stroke-width:0.0000; stroke-opacity:1; 
stroke-linecap:round; stroke-linejoin:round;">
<circle cx="229.0022" cy="72.0000" r="1.1000" /> 
</g>
<g style="fill:#FFFFFF; fill-opacity:1.0000; 
stroke:#FFFFFF; stroke-width:0.0212; stroke-opacity:1; 
stroke-linecap:round; stroke-linejoin:round;">
</g>
<g style="fill:#000000; fill-opacity:1.0000; 
stroke:#000000; stroke-width:0.0212; stroke-opacity:1; 
stroke-linecap:round; stroke-linejoin:round;">
</g> 
</svg>
