<?xml version="1.0" standalone="no"?>
 <!DOCTYPE svg PUBLIC "-//W3C//DTD SVG 1.1//EN" 
 "http://www.w3.org/Graphics/SVG/1.1/DTD/svg11.dtd"> 
<svg
  xmlns:svg="http://www.w3.org/2000/svg"
  xmlns="http://www.w3.org/2000/svg"
  xmlns:xlink="http://www.w3.org/1999/xlink"
  version="1.1"
  width="297.0022mm" height="210.0072mm" viewBox="0.0000 0.0000 297.0022 210.0072">
<title>SVG Image created as pedalboard-led-ring-B_Silkscreen.svg date 2023/06/03 17:43:34 </title>
  <desc>Image generated by PCBNEW </desc>
<g style="fill:#000000; fill-opacity:1.0000;stroke:#000000; stroke-opacity:1.0000;
stroke-linecap:round; stroke-linejoin:round;"
 transform="translate(0 0) scale(1 1)">
</g>
<g style="fill:#000000; fill-opacity:0.0; 
stroke:#000000; stroke-width:0.0000; stroke-opacity:1; 
stroke-linecap:round; stroke-linejoin:round;">
</g>
<g style="fill:#000000; fill-opacity:0.0; 
stroke:#000000; stroke-width:0.1000; stroke-opacity:1; 
stroke-linecap:round; stroke-linejoin:round;">
<circle cx="217.0022" cy="60.0000" r="7.0500" /> 
<g transform="rotate(-90.000000 207.5022 53.5000)">
<text x="207.5022" y="53.5000"
transform="scale(-1 1) translate(-415.004400 0)"
textLength="1.1433" font-size="0.9333" lengthAdjust="spacingAndGlyphs"
text-anchor="start" opacity="0">DI</text>
</g>
<g class="stroked-text"><desc>DI</desc>
<path d="M207.5931 53.7325
L208.2931 53.7325
" />
<path d="M208.2931 53.7325
L208.2931 53.8991
" />
<path d="M208.2931 53.8991
L208.2597 53.9991
" />
<path d="M208.2597 53.9991
L208.1931 54.0658
" />
<path d="M208.1931 54.0658
L208.1264 54.0991
" />
<path d="M208.1264 54.0991
L207.9931 54.1325
" />
<path d="M207.9931 54.1325
L207.8931 54.1325
" />
<path d="M207.8931 54.1325
L207.7597 54.0991
" />
<path d="M207.7597 54.0991
L207.6931 54.0658
" />
<path d="M207.6931 54.0658
L207.6264 53.9991
" />
<path d="M207.6264 53.9991
L207.5931 53.8991
" />
<path d="M207.5931 53.8991
L207.5931 53.7325
" />
<path d="M207.5931 54.4325
L208.2931 54.4325
" />
</g><g transform="rotate(-90.000000 207.2022 65.3000)">
<text x="207.2022" y="65.3000"
transform="scale(-1 1) translate(-414.404400 0)"
textLength="1.4767" font-size="0.9333" lengthAdjust="spacingAndGlyphs"
text-anchor="start" opacity="0">D0</text>
</g>
<g class="stroked-text"><desc>D0</desc>
<path d="M207.2931 65.5325
L207.9931 65.5325
" />
<path d="M207.9931 65.5325
L207.9931 65.6991
" />
<path d="M207.9931 65.6991
L207.9597 65.7991
" />
<path d="M207.9597 65.7991
L207.8931 65.8658
" />
<path d="M207.8931 65.8658
L207.8264 65.8991
" />
<path d="M207.8264 65.8991
L207.6931 65.9325
" />
<path d="M207.6931 65.9325
L207.5931 65.9325
" />
<path d="M207.5931 65.9325
L207.4597 65.8991
" />
<path d="M207.4597 65.8991
L207.3931 65.8658
" />
<path d="M207.3931 65.8658
L207.3264 65.7991
" />
<path d="M207.3264 65.7991
L207.2931 65.6991
" />
<path d="M207.2931 65.6991
L207.2931 65.5325
" />
<path d="M207.9931 66.3658
L207.9931 66.4325
" />
<path d="M207.9931 66.4325
L207.9597 66.4991
" />
<path d="M207.9597 66.4991
L207.9264 66.5325
" />
<path d="M207.9264 66.5325
L207.8597 66.5658
" />
<path d="M207.8597 66.5658
L207.7264 66.5991
" />
<path d="M207.7264 66.5991
L207.5597 66.5991
" />
<path d="M207.5597 66.5991
L207.4264 66.5658
" />
<path d="M207.4264 66.5658
L207.3597 66.5325
" />
<path d="M207.3597 66.5325
L207.3264 66.4991
" />
<path d="M207.3264 66.4991
L207.2931 66.4325
" />
<path d="M207.2931 66.4325
L207.2931 66.3658
" />
<path d="M207.2931 66.3658
L207.3264 66.2991
" />
<path d="M207.3264 66.2991
L207.3597 66.2658
" />
<path d="M207.3597 66.2658
L207.4264 66.2325
" />
<path d="M207.4264 66.2325
L207.5597 66.1991
" />
<path d="M207.5597 66.1991
L207.7264 66.1991
" />
<path d="M207.7264 66.1991
L207.8597 66.2325
" />
<path d="M207.8597 66.2325
L207.9264 66.2658
" />
<path d="M207.9264 66.2658
L207.9597 66.2991
" />
<path d="M207.9597 66.2991
L207.9931 66.3658
" />
</g><text x="202.4022" y="70.4000"
transform="scale(-1 1) translate(-404.804400 0)"
textLength="2.1100" font-size="0.9333" lengthAdjust="spacingAndGlyphs"
text-anchor="start" opacity="0">VCC</text>
<g class="stroked-text"><desc>VCC</desc>
<path d="M202.5347 69.6091
L202.7680 70.3091
" />
<path d="M202.7680 70.3091
L203.0013 69.6091
" />
<path d="M203.6347 70.2425
L203.6013 70.2758
" />
<path d="M203.6013 70.2758
L203.5013 70.3091
" />
<path d="M203.5013 70.3091
L203.4347 70.3091
" />
<path d="M203.4347 70.3091
L203.3347 70.2758
" />
<path d="M203.3347 70.2758
L203.2680 70.2091
" />
<path d="M203.2680 70.2091
L203.2347 70.1425
" />
<path d="M203.2347 70.1425
L203.2013 70.0091
" />
<path d="M203.2013 70.0091
L203.2013 69.9091
" />
<path d="M203.2013 69.9091
L203.2347 69.7758
" />
<path d="M203.2347 69.7758
L203.2680 69.7091
" />
<path d="M203.2680 69.7091
L203.3347 69.6425
" />
<path d="M203.3347 69.6425
L203.4347 69.6091
" />
<path d="M203.4347 69.6091
L203.5013 69.6091
" />
<path d="M203.5013 69.6091
L203.6013 69.6425
" />
<path d="M203.6013 69.6425
L203.6347 69.6758
" />
<path d="M204.3347 70.2425
L204.3013 70.2758
" />
<path d="M204.3013 70.2758
L204.2013 70.3091
" />
<path d="M204.2013 70.3091
L204.1347 70.3091
" />
<path d="M204.1347 70.3091
L204.0347 70.2758
" />
<path d="M204.0347 70.2758
L203.9680 70.2091
" />
<path d="M203.9680 70.2091
L203.9347 70.1425
" />
<path d="M203.9347 70.1425
L203.9013 70.0091
" />
<path d="M203.9013 70.0091
L203.9013 69.9091
" />
<path d="M203.9013 69.9091
L203.9347 69.7758
" />
<path d="M203.9347 69.7758
L203.9680 69.7091
" />
<path d="M203.9680 69.7091
L204.0347 69.6425
" />
<path d="M204.0347 69.6425
L204.1347 69.6091
" />
<path d="M204.1347 69.6091
L204.2013 69.6091
" />
<path d="M204.2013 69.6091
L204.3013 69.6425
" />
<path d="M204.3013 69.6425
L204.3347 69.6758
" />
</g><g transform="rotate(-90.000000 205.5022 65.3000)">
<text x="205.5022" y="65.3000"
transform="scale(-1 1) translate(-411.004400 0)"
textLength="2.2433" font-size="0.9333" lengthAdjust="spacingAndGlyphs"
text-anchor="start" opacity="0">GND</text>
</g>
<g class="stroked-text"><desc>GND</desc>
<path d="M206.2597 65.8991
L206.2931 65.8325
" />
<path d="M206.2931 65.8325
L206.2931 65.7325
" />
<path d="M206.2931 65.7325
L206.2597 65.6325
" />
<path d="M206.2597 65.6325
L206.1931 65.5658
" />
<path d="M206.1931 65.5658
L206.1264 65.5325
" />
<path d="M206.1264 65.5325
L205.9931 65.4991
" />
<path d="M205.9931 65.4991
L205.8931 65.4991
" />
<path d="M205.8931 65.4991
L205.7597 65.5325
" />
<path d="M205.7597 65.5325
L205.6931 65.5658
" />
<path d="M205.6931 65.5658
L205.6264 65.6325
" />
<path d="M205.6264 65.6325
L205.5931 65.7325
" />
<path d="M205.5931 65.7325
L205.5931 65.7991
" />
<path d="M205.5931 65.7991
L205.6264 65.8991
" />
<path d="M205.6264 65.8991
L205.6597 65.9325
" />
<path d="M205.6597 65.9325
L205.8931 65.9325
" />
<path d="M205.8931 65.9325
L205.8931 65.7991
" />
<path d="M205.5931 66.2325
L206.2931 66.2325
" />
<path d="M206.2931 66.2325
L205.5931 66.6325
" />
<path d="M205.5931 66.6325
L206.2931 66.6325
" />
<path d="M205.5931 66.9658
L206.2931 66.9658
" />
<path d="M206.2931 66.9658
L206.2931 67.1325
" />
<path d="M206.2931 67.1325
L206.2597 67.2325
" />
<path d="M206.2597 67.2325
L206.1931 67.2991
" />
<path d="M206.1931 67.2991
L206.1264 67.3325
" />
<path d="M206.1264 67.3325
L205.9931 67.3658
" />
<path d="M205.9931 67.3658
L205.8931 67.3658
" />
<path d="M205.8931 67.3658
L205.7597 67.3325
" />
<path d="M205.7597 67.3325
L205.6931 67.2991
" />
<path d="M205.6931 67.2991
L205.6264 67.2325
" />
<path d="M205.6264 67.2325
L205.5931 67.1325
" />
<path d="M205.5931 67.1325
L205.5931 66.9658
" />
</g><text x="212.4022" y="71.5000"
transform="scale(-1 1) translate(-424.804400 0)"
textLength="2.2433" font-size="0.9333" lengthAdjust="spacingAndGlyphs"
text-anchor="start" opacity="0">GND</text>
<g class="stroked-text"><desc>GND</desc>
<path d="M213.0013 70.7425
L212.9347 70.7091
" />
<path d="M212.9347 70.7091
L212.8347 70.7091
" />
<path d="M212.8347 70.7091
L212.7347 70.7425
" />
<path d="M212.7347 70.7425
L212.6680 70.8091
" />
<path d="M212.6680 70.8091
L212.6347 70.8758
" />
<path d="M212.6347 70.8758
L212.6013 71.0091
" />
<path d="M212.6013 71.0091
L212.6013 71.1091
" />
<path d="M212.6013 71.1091
L212.6347 71.2425
" />
<path d="M212.6347 71.2425
L212.6680 71.3091
" />
<path d="M212.6680 71.3091
L212.7347 71.3758
" />
<path d="M212.7347 71.3758
L212.8347 71.4091
" />
<path d="M212.8347 71.4091
L212.9013 71.4091
" />
<path d="M212.9013 71.4091
L213.0013 71.3758
" />
<path d="M213.0013 71.3758
L213.0347 71.3425
" />
<path d="M213.0347 71.3425
L213.0347 71.1091
" />
<path d="M213.0347 71.1091
L212.9013 71.1091
" />
<path d="M213.3347 71.4091
L213.3347 70.7091
" />
<path d="M213.3347 70.7091
L213.7347 71.4091
" />
<path d="M213.7347 71.4091
L213.7347 70.7091
" />
<path d="M214.0680 71.4091
L214.0680 70.7091
" />
<path d="M214.0680 70.7091
L214.2347 70.7091
" />
<path d="M214.2347 70.7091
L214.3347 70.7425
" />
<path d="M214.3347 70.7425
L214.4013 70.8091
" />
<path d="M214.4013 70.8091
L214.4347 70.8758
" />
<path d="M214.4347 70.8758
L214.4680 71.0091
" />
<path d="M214.4680 71.0091
L214.4680 71.1091
" />
<path d="M214.4680 71.1091
L214.4347 71.2425
" />
<path d="M214.4347 71.2425
L214.4013 71.3091
" />
<path d="M214.4013 71.3091
L214.3347 71.3758
" />
<path d="M214.3347 71.3758
L214.2347 71.4091
" />
<path d="M214.2347 71.4091
L214.0680 71.4091
" />
</g><text x="202.5022" y="68.2000"
transform="scale(-1 1) translate(-405.004400 0)"
textLength="1.1433" font-size="0.9333" lengthAdjust="spacingAndGlyphs"
text-anchor="start" opacity="0">DI</text>
<g class="stroked-text"><desc>DI</desc>
<path d="M202.7347 68.1091
L202.7347 67.4091
" />
<path d="M202.7347 67.4091
L202.9013 67.4091
" />
<path d="M202.9013 67.4091
L203.0013 67.4425
" />
<path d="M203.0013 67.4425
L203.0680 67.5091
" />
<path d="M203.0680 67.5091
L203.1013 67.5758
" />
<path d="M203.1013 67.5758
L203.1347 67.7091
" />
<path d="M203.1347 67.7091
L203.1347 67.8091
" />
<path d="M203.1347 67.8091
L203.1013 67.9425
" />
<path d="M203.1013 67.9425
L203.0680 68.0091
" />
<path d="M203.0680 68.0091
L203.0013 68.0758
" />
<path d="M203.0013 68.0758
L202.9013 68.1091
" />
<path d="M202.9013 68.1091
L202.7347 68.1091
" />
<path d="M203.4347 68.1091
L203.4347 67.4091
" />
</g><g transform="rotate(-90.000000 205.5022 53.0000)">
<text x="205.5022" y="53.0000"
transform="scale(-1 1) translate(-411.004400 0)"
textLength="2.1100" font-size="0.9333" lengthAdjust="spacingAndGlyphs"
text-anchor="start" opacity="0">VCC</text>
</g>
<g class="stroked-text"><desc>VCC</desc>
<path d="M206.2931 53.1325
L205.5931 53.3658
" />
<path d="M205.5931 53.3658
L206.2931 53.5991
" />
<path d="M205.6597 54.2325
L205.6264 54.1991
" />
<path d="M205.6264 54.1991
L205.5931 54.0991
" />
<path d="M205.5931 54.0991
L205.5931 54.0325
" />
<path d="M205.5931 54.0325
L205.6264 53.9325
" />
<path d="M205.6264 53.9325
L205.6931 53.8658
" />
<path d="M205.6931 53.8658
L205.7597 53.8325
" />
<path d="M205.7597 53.8325
L205.8931 53.7991
" />
<path d="M205.8931 53.7991
L205.9931 53.7991
" />
<path d="M205.9931 53.7991
L206.1264 53.8325
" />
<path d="M206.1264 53.8325
L206.1931 53.8658
" />
<path d="M206.1931 53.8658
L206.2597 53.9325
" />
<path d="M206.2597 53.9325
L206.2931 54.0325
" />
<path d="M206.2931 54.0325
L206.2931 54.0991
" />
<path d="M206.2931 54.0991
L206.2597 54.1991
" />
<path d="M206.2597 54.1991
L206.2264 54.2325
" />
<path d="M205.6597 54.9325
L205.6264 54.8991
" />
<path d="M205.6264 54.8991
L205.5931 54.7991
" />
<path d="M205.5931 54.7991
L205.5931 54.7325
" />
<path d="M205.5931 54.7325
L205.6264 54.6325
" />
<path d="M205.6264 54.6325
L205.6931 54.5658
" />
<path d="M205.6931 54.5658
L205.7597 54.5325
" />
<path d="M205.7597 54.5325
L205.8931 54.4991
" />
<path d="M205.8931 54.4991
L205.9931 54.4991
" />
<path d="M205.9931 54.4991
L206.1264 54.5325
" />
<path d="M206.1264 54.5325
L206.1931 54.5658
" />
<path d="M206.1931 54.5658
L206.2597 54.6325
" />
<path d="M206.2597 54.6325
L206.2931 54.7325
" />
<path d="M206.2931 54.7325
L206.2931 54.7991
" />
<path d="M206.2931 54.7991
L206.2597 54.8991
" />
<path d="M206.2597 54.8991
L206.2264 54.9325
" />
</g></g>
<g style="fill:#000000; fill-opacity:0.0; 
stroke:#000000; stroke-width:0.1250; stroke-opacity:1; 
stroke-linecap:round; stroke-linejoin:round;">
<text x="217.0022" y="67.8000"
transform="scale(-1 1) translate(-434.004400 0)"
textLength="4.2363" font-size="0.6667" lengthAdjust="spacingAndGlyphs"
text-anchor="middle" opacity="0">PCB: 1.0.0</text>
<g class="stroked-text"><desc>PCB: 1.0.0</desc>
<path d="M215.1093 67.7323
L215.1093 67.2323
" />
<path d="M215.1093 67.2323
L215.2998 67.2323
" />
<path d="M215.2998 67.2323
L215.3474 67.2561
" />
<path d="M215.3474 67.2561
L215.3713 67.2799
" />
<path d="M215.3713 67.2799
L215.3951 67.3275
" />
<path d="M215.3951 67.3275
L215.3951 67.3990
" />
<path d="M215.3951 67.3990
L215.3713 67.4466
" />
<path d="M215.3713 67.4466
L215.3474 67.4704
" />
<path d="M215.3474 67.4704
L215.2998 67.4942
" />
<path d="M215.2998 67.4942
L215.1093 67.4942
" />
<path d="M215.8951 67.6847
L215.8713 67.7085
" />
<path d="M215.8713 67.7085
L215.7998 67.7323
" />
<path d="M215.7998 67.7323
L215.7522 67.7323
" />
<path d="M215.7522 67.7323
L215.6808 67.7085
" />
<path d="M215.6808 67.7085
L215.6332 67.6609
" />
<path d="M215.6332 67.6609
L215.6093 67.6133
" />
<path d="M215.6093 67.6133
L215.5855 67.5180
" />
<path d="M215.5855 67.5180
L215.5855 67.4466
" />
<path d="M215.5855 67.4466
L215.6093 67.3514
" />
<path d="M215.6093 67.3514
L215.6332 67.3037
" />
<path d="M215.6332 67.3037
L215.6808 67.2561
" />
<path d="M215.6808 67.2561
L215.7522 67.2323
" />
<path d="M215.7522 67.2323
L215.7998 67.2323
" />
<path d="M215.7998 67.2323
L215.8713 67.2561
" />
<path d="M215.8713 67.2561
L215.8951 67.2799
" />
<path d="M216.2760 67.4704
L216.3474 67.4942
" />
<path d="M216.3474 67.4942
L216.3713 67.5180
" />
<path d="M216.3713 67.5180
L216.3951 67.5656
" />
<path d="M216.3951 67.5656
L216.3951 67.6371
" />
<path d="M216.3951 67.6371
L216.3713 67.6847
" />
<path d="M216.3713 67.6847
L216.3474 67.7085
" />
<path d="M216.3474 67.7085
L216.2998 67.7323
" />
<path d="M216.2998 67.7323
L216.1093 67.7323
" />
<path d="M216.1093 67.7323
L216.1093 67.2323
" />
<path d="M216.1093 67.2323
L216.2760 67.2323
" />
<path d="M216.2760 67.2323
L216.3236 67.2561
" />
<path d="M216.3236 67.2561
L216.3474 67.2799
" />
<path d="M216.3474 67.2799
L216.3713 67.3275
" />
<path d="M216.3713 67.3275
L216.3713 67.3752
" />
<path d="M216.3713 67.3752
L216.3474 67.4228
" />
<path d="M216.3474 67.4228
L216.3236 67.4466
" />
<path d="M216.3236 67.4466
L216.2760 67.4704
" />
<path d="M216.2760 67.4704
L216.1093 67.4704
" />
<path d="M216.6093 67.6847
L216.6332 67.7085
" />
<path d="M216.6332 67.7085
L216.6093 67.7323
" />
<path d="M216.6093 67.7323
L216.5855 67.7085
" />
<path d="M216.5855 67.7085
L216.6093 67.6847
" />
<path d="M216.6093 67.6847
L216.6093 67.7323
" />
<path d="M216.6093 67.4228
L216.6332 67.4466
" />
<path d="M216.6332 67.4466
L216.6093 67.4704
" />
<path d="M216.6093 67.4704
L216.5855 67.4466
" />
<path d="M216.5855 67.4466
L216.6093 67.4228
" />
<path d="M216.6093 67.4228
L216.6093 67.4704
" />
<path d="M217.4903 67.7323
L217.2046 67.7323
" />
<path d="M217.3474 67.7323
L217.3474 67.2323
" />
<path d="M217.3474 67.2323
L217.2998 67.3037
" />
<path d="M217.2998 67.3037
L217.2522 67.3514
" />
<path d="M217.2522 67.3514
L217.2046 67.3752
" />
<path d="M217.7046 67.6847
L217.7284 67.7085
" />
<path d="M217.7284 67.7085
L217.7046 67.7323
" />
<path d="M217.7046 67.7323
L217.6808 67.7085
" />
<path d="M217.6808 67.7085
L217.7046 67.6847
" />
<path d="M217.7046 67.6847
L217.7046 67.7323
" />
<path d="M218.0379 67.2323
L218.0855 67.2323
" />
<path d="M218.0855 67.2323
L218.1332 67.2561
" />
<path d="M218.1332 67.2561
L218.1570 67.2799
" />
<path d="M218.1570 67.2799
L218.1808 67.3275
" />
<path d="M218.1808 67.3275
L218.2046 67.4228
" />
<path d="M218.2046 67.4228
L218.2046 67.5418
" />
<path d="M218.2046 67.5418
L218.1808 67.6371
" />
<path d="M218.1808 67.6371
L218.1570 67.6847
" />
<path d="M218.1570 67.6847
L218.1332 67.7085
" />
<path d="M218.1332 67.7085
L218.0855 67.7323
" />
<path d="M218.0855 67.7323
L218.0379 67.7323
" />
<path d="M218.0379 67.7323
L217.9903 67.7085
" />
<path d="M217.9903 67.7085
L217.9665 67.6847
" />
<path d="M217.9665 67.6847
L217.9427 67.6371
" />
<path d="M217.9427 67.6371
L217.9189 67.5418
" />
<path d="M217.9189 67.5418
L217.9189 67.4228
" />
<path d="M217.9189 67.4228
L217.9427 67.3275
" />
<path d="M217.9427 67.3275
L217.9665 67.2799
" />
<path d="M217.9665 67.2799
L217.9903 67.2561
" />
<path d="M217.9903 67.2561
L218.0379 67.2323
" />
<path d="M218.4189 67.6847
L218.4427 67.7085
" />
<path d="M218.4427 67.7085
L218.4189 67.7323
" />
<path d="M218.4189 67.7323
L218.3951 67.7085
" />
<path d="M218.3951 67.7085
L218.4189 67.6847
" />
<path d="M218.4189 67.6847
L218.4189 67.7323
" />
<path d="M218.7522 67.2323
L218.7998 67.2323
" />
<path d="M218.7998 67.2323
L218.8474 67.2561
" />
<path d="M218.8474 67.2561
L218.8712 67.2799
" />
<path d="M218.8712 67.2799
L218.8951 67.3275
" />
<path d="M218.8951 67.3275
L218.9189 67.4228
" />
<path d="M218.9189 67.4228
L218.9189 67.5418
" />
<path d="M218.9189 67.5418
L218.8951 67.6371
" />
<path d="M218.8951 67.6371
L218.8712 67.6847
" />
<path d="M218.8712 67.6847
L218.8474 67.7085
" />
<path d="M218.8474 67.7085
L218.7998 67.7323
" />
<path d="M218.7998 67.7323
L218.7522 67.7323
" />
<path d="M218.7522 67.7323
L218.7046 67.7085
" />
<path d="M218.7046 67.7085
L218.6808 67.6847
" />
<path d="M218.6808 67.6847
L218.6570 67.6371
" />
<path d="M218.6570 67.6371
L218.6332 67.5418
" />
<path d="M218.6332 67.5418
L218.6332 67.4228
" />
<path d="M218.6332 67.4228
L218.6570 67.3275
" />
<path d="M218.6570 67.3275
L218.6808 67.2799
" />
<path d="M218.6808 67.2799
L218.7046 67.2561
" />
<path d="M218.7046 67.2561
L218.7522 67.2323
" />
</g></g>
<g style="fill:#000000; fill-opacity:0.0; 
stroke:#000000; stroke-width:0.1000; stroke-opacity:1; 
stroke-linecap:round; stroke-linejoin:round;">
<text x="212.5022" y="69.5000"
transform="scale(-1 1) translate(-425.004400 0)"
textLength="1.5433" font-size="0.9333" lengthAdjust="spacingAndGlyphs"
text-anchor="start" opacity="0">DO</text>
<g class="stroked-text"><desc>DO</desc>
<path d="M212.7347 69.4091
L212.7347 68.7091
" />
<path d="M212.7347 68.7091
L212.9013 68.7091
" />
<path d="M212.9013 68.7091
L213.0013 68.7425
" />
<path d="M213.0013 68.7425
L213.0680 68.8091
" />
<path d="M213.0680 68.8091
L213.1013 68.8758
" />
<path d="M213.1013 68.8758
L213.1347 69.0091
" />
<path d="M213.1347 69.0091
L213.1347 69.1091
" />
<path d="M213.1347 69.1091
L213.1013 69.2425
" />
<path d="M213.1013 69.2425
L213.0680 69.3091
" />
<path d="M213.0680 69.3091
L213.0013 69.3758
" />
<path d="M213.0013 69.3758
L212.9013 69.4091
" />
<path d="M212.9013 69.4091
L212.7347 69.4091
" />
<path d="M213.5680 68.7091
L213.7013 68.7091
" />
<path d="M213.7013 68.7091
L213.7680 68.7425
" />
<path d="M213.7680 68.7425
L213.8347 68.8091
" />
<path d="M213.8347 68.8091
L213.8680 68.9425
" />
<path d="M213.8680 68.9425
L213.8680 69.1758
" />
<path d="M213.8680 69.1758
L213.8347 69.3091
" />
<path d="M213.8347 69.3091
L213.7680 69.3758
" />
<path d="M213.7680 69.3758
L213.7013 69.4091
" />
<path d="M213.7013 69.4091
L213.5680 69.4091
" />
<path d="M213.5680 69.4091
L213.5013 69.3758
" />
<path d="M213.5013 69.3758
L213.4347 69.3091
" />
<path d="M213.4347 69.3091
L213.4013 69.1758
" />
<path d="M213.4013 69.1758
L213.4013 68.9425
" />
<path d="M213.4013 68.9425
L213.4347 68.8091
" />
<path d="M213.4347 68.8091
L213.5013 68.7425
" />
<path d="M213.5013 68.7425
L213.5680 68.7091
" />
</g><g transform="rotate(-90.000000 203.6292 49.6000)">
<text x="203.6292" y="49.6000"
transform="scale(-1 1) translate(-407.258400 0)"
textLength="11.2767" font-size="0.9333" lengthAdjust="spacingAndGlyphs"
text-anchor="start" opacity="0">Pedalboard LED Ring</text>
</g>
<g class="stroked-text"><desc>Pedalboard LED Ring</desc>
<path d="M203.7201 49.8325
L204.4201 49.8325
" />
<path d="M204.4201 49.8325
L204.4201 50.0991
" />
<path d="M204.4201 50.0991
L204.3867 50.1658
" />
<path d="M204.3867 50.1658
L204.3534 50.1991
" />
<path d="M204.3534 50.1991
L204.2867 50.2325
" />
<path d="M204.2867 50.2325
L204.1867 50.2325
" />
<path d="M204.1867 50.2325
L204.1201 50.1991
" />
<path d="M204.1201 50.1991
L204.0867 50.1658
" />
<path d="M204.0867 50.1658
L204.0534 50.0991
" />
<path d="M204.0534 50.0991
L204.0534 49.8325
" />
<path d="M203.7534 50.7991
L203.7201 50.7325
" />
<path d="M203.7201 50.7325
L203.7201 50.5991
" />
<path d="M203.7201 50.5991
L203.7534 50.5325
" />
<path d="M203.7534 50.5325
L203.8201 50.4991
" />
<path d="M203.8201 50.4991
L204.0867 50.4991
" />
<path d="M204.0867 50.4991
L204.1534 50.5325
" />
<path d="M204.1534 50.5325
L204.1867 50.5991
" />
<path d="M204.1867 50.5991
L204.1867 50.7325
" />
<path d="M204.1867 50.7325
L204.1534 50.7991
" />
<path d="M204.1534 50.7991
L204.0867 50.8325
" />
<path d="M204.0867 50.8325
L204.0201 50.8325
" />
<path d="M204.0201 50.8325
L203.9534 50.4991
" />
<path d="M203.7201 51.4325
L204.4201 51.4325
" />
<path d="M203.7534 51.4325
L203.7201 51.3658
" />
<path d="M203.7201 51.3658
L203.7201 51.2325
" />
<path d="M203.7201 51.2325
L203.7534 51.1658
" />
<path d="M203.7534 51.1658
L203.7867 51.1325
" />
<path d="M203.7867 51.1325
L203.8534 51.0991
" />
<path d="M203.8534 51.0991
L204.0534 51.0991
" />
<path d="M204.0534 51.0991
L204.1201 51.1325
" />
<path d="M204.1201 51.1325
L204.1534 51.1658
" />
<path d="M204.1534 51.1658
L204.1867 51.2325
" />
<path d="M204.1867 51.2325
L204.1867 51.3658
" />
<path d="M204.1867 51.3658
L204.1534 51.4325
" />
<path d="M203.7201 52.0658
L204.0867 52.0658
" />
<path d="M204.0867 52.0658
L204.1534 52.0325
" />
<path d="M204.1534 52.0325
L204.1867 51.9658
" />
<path d="M204.1867 51.9658
L204.1867 51.8325
" />
<path d="M204.1867 51.8325
L204.1534 51.7658
" />
<path d="M203.7534 52.0658
L203.7201 51.9991
" />
<path d="M203.7201 51.9991
L203.7201 51.8325
" />
<path d="M203.7201 51.8325
L203.7534 51.7658
" />
<path d="M203.7534 51.7658
L203.8201 51.7325
" />
<path d="M203.8201 51.7325
L203.8867 51.7325
" />
<path d="M203.8867 51.7325
L203.9534 51.7658
" />
<path d="M203.9534 51.7658
L203.9867 51.8325
" />
<path d="M203.9867 51.8325
L203.9867 51.9991
" />
<path d="M203.9867 51.9991
L204.0201 52.0658
" />
<path d="M203.7201 52.4991
L203.7534 52.4325
" />
<path d="M203.7534 52.4325
L203.8201 52.3991
" />
<path d="M203.8201 52.3991
L204.4201 52.3991
" />
<path d="M203.7201 52.7658
L204.4201 52.7658
" />
<path d="M204.1534 52.7658
L204.1867 52.8325
" />
<path d="M204.1867 52.8325
L204.1867 52.9658
" />
<path d="M204.1867 52.9658
L204.1534 53.0325
" />
<path d="M204.1534 53.0325
L204.1201 53.0658
" />
<path d="M204.1201 53.0658
L204.0534 53.0991
" />
<path d="M204.0534 53.0991
L203.8534 53.0991
" />
<path d="M203.8534 53.0991
L203.7867 53.0658
" />
<path d="M203.7867 53.0658
L203.7534 53.0325
" />
<path d="M203.7534 53.0325
L203.7201 52.9658
" />
<path d="M203.7201 52.9658
L203.7201 52.8325
" />
<path d="M203.7201 52.8325
L203.7534 52.7658
" />
<path d="M203.7201 53.4991
L203.7534 53.4325
" />
<path d="M203.7534 53.4325
L203.7867 53.3991
" />
<path d="M203.7867 53.3991
L203.8534 53.3658
" />
<path d="M203.8534 53.3658
L204.0534 53.3658
" />
<path d="M204.0534 53.3658
L204.1201 53.3991
" />
<path d="M204.1201 53.3991
L204.1534 53.4325
" />
<path d="M204.1534 53.4325
L204.1867 53.4991
" />
<path d="M204.1867 53.4991
L204.1867 53.5991
" />
<path d="M204.1867 53.5991
L204.1534 53.6658
" />
<path d="M204.1534 53.6658
L204.1201 53.6991
" />
<path d="M204.1201 53.6991
L204.0534 53.7325
" />
<path d="M204.0534 53.7325
L203.8534 53.7325
" />
<path d="M203.8534 53.7325
L203.7867 53.6991
" />
<path d="M203.7867 53.6991
L203.7534 53.6658
" />
<path d="M203.7534 53.6658
L203.7201 53.5991
" />
<path d="M203.7201 53.5991
L203.7201 53.4991
" />
<path d="M203.7201 54.3325
L204.0867 54.3325
" />
<path d="M204.0867 54.3325
L204.1534 54.2991
" />
<path d="M204.1534 54.2991
L204.1867 54.2325
" />
<path d="M204.1867 54.2325
L204.1867 54.0991
" />
<path d="M204.1867 54.0991
L204.1534 54.0325
" />
<path d="M203.7534 54.3325
L203.7201 54.2658
" />
<path d="M203.7201 54.2658
L203.7201 54.0991
" />
<path d="M203.7201 54.0991
L203.7534 54.0325
" />
<path d="M203.7534 54.0325
L203.8201 53.9991
" />
<path d="M203.8201 53.9991
L203.8867 53.9991
" />
<path d="M203.8867 53.9991
L203.9534 54.0325
" />
<path d="M203.9534 54.0325
L203.9867 54.0991
" />
<path d="M203.9867 54.0991
L203.9867 54.2658
" />
<path d="M203.9867 54.2658
L204.0201 54.3325
" />
<path d="M203.7201 54.6658
L204.1867 54.6658
" />
<path d="M204.0534 54.6658
L204.1201 54.6991
" />
<path d="M204.1201 54.6991
L204.1534 54.7325
" />
<path d="M204.1534 54.7325
L204.1867 54.7991
" />
<path d="M204.1867 54.7991
L204.1867 54.8658
" />
<path d="M203.7201 55.3991
L204.4201 55.3991
" />
<path d="M203.7534 55.3991
L203.7201 55.3325
" />
<path d="M203.7201 55.3325
L203.7201 55.1991
" />
<path d="M203.7201 55.1991
L203.7534 55.1325
" />
<path d="M203.7534 55.1325
L203.7867 55.0991
" />
<path d="M203.7867 55.0991
L203.8534 55.0658
" />
<path d="M203.8534 55.0658
L204.0534 55.0658
" />
<path d="M204.0534 55.0658
L204.1201 55.0991
" />
<path d="M204.1201 55.0991
L204.1534 55.1325
" />
<path d="M204.1534 55.1325
L204.1867 55.1991
" />
<path d="M204.1867 55.1991
L204.1867 55.3325
" />
<path d="M204.1867 55.3325
L204.1534 55.3991
" />
<path d="M203.7201 56.5991
L203.7201 56.2658
" />
<path d="M203.7201 56.2658
L204.4201 56.2658
" />
<path d="M204.0867 56.8325
L204.0867 57.0658
" />
<path d="M203.7201 57.1658
L203.7201 56.8325
" />
<path d="M203.7201 56.8325
L204.4201 56.8325
" />
<path d="M204.4201 56.8325
L204.4201 57.1658
" />
<path d="M203.7201 57.4658
L204.4201 57.4658
" />
<path d="M204.4201 57.4658
L204.4201 57.6325
" />
<path d="M204.4201 57.6325
L204.3867 57.7325
" />
<path d="M204.3867 57.7325
L204.3201 57.7991
" />
<path d="M204.3201 57.7991
L204.2534 57.8325
" />
<path d="M204.2534 57.8325
L204.1201 57.8658
" />
<path d="M204.1201 57.8658
L204.0201 57.8658
" />
<path d="M204.0201 57.8658
L203.8867 57.8325
" />
<path d="M203.8867 57.8325
L203.8201 57.7991
" />
<path d="M203.8201 57.7991
L203.7534 57.7325
" />
<path d="M203.7534 57.7325
L203.7201 57.6325
" />
<path d="M203.7201 57.6325
L203.7201 57.4658
" />
<path d="M203.7201 59.0991
L204.0534 58.8658
" />
<path d="M203.7201 58.6991
L204.4201 58.6991
" />
<path d="M204.4201 58.6991
L204.4201 58.9658
" />
<path d="M204.4201 58.9658
L204.3867 59.0325
" />
<path d="M204.3867 59.0325
L204.3534 59.0658
" />
<path d="M204.3534 59.0658
L204.2867 59.0991
" />
<path d="M204.2867 59.0991
L204.1867 59.0991
" />
<path d="M204.1867 59.0991
L204.1201 59.0658
" />
<path d="M204.1201 59.0658
L204.0867 59.0325
" />
<path d="M204.0867 59.0325
L204.0534 58.9658
" />
<path d="M204.0534 58.9658
L204.0534 58.6991
" />
<path d="M203.7201 59.3991
L204.1867 59.3991
" />
<path d="M204.4201 59.3991
L204.3867 59.3658
" />
<path d="M204.3867 59.3658
L204.3534 59.3991
" />
<path d="M204.3534 59.3991
L204.3867 59.4325
" />
<path d="M204.3867 59.4325
L204.4201 59.3991
" />
<path d="M204.4201 59.3991
L204.3534 59.3991
" />
<path d="M204.1867 59.7325
L203.7201 59.7325
" />
<path d="M204.1201 59.7325
L204.1534 59.7658
" />
<path d="M204.1534 59.7658
L204.1867 59.8325
" />
<path d="M204.1867 59.8325
L204.1867 59.9325
" />
<path d="M204.1867 59.9325
L204.1534 59.9991
" />
<path d="M204.1534 59.9991
L204.0867 60.0325
" />
<path d="M204.0867 60.0325
L203.7201 60.0325
" />
<path d="M204.1867 60.6658
L203.6201 60.6658
" />
<path d="M203.6201 60.6658
L203.5534 60.6325
" />
<path d="M203.5534 60.6325
L203.5201 60.5991
" />
<path d="M203.5201 60.5991
L203.4867 60.5325
" />
<path d="M203.4867 60.5325
L203.4867 60.4325
" />
<path d="M203.4867 60.4325
L203.5201 60.3658
" />
<path d="M203.7534 60.6658
L203.7201 60.5991
" />
<path d="M203.7201 60.5991
L203.7201 60.4658
" />
<path d="M203.7201 60.4658
L203.7534 60.3991
" />
<path d="M203.7534 60.3991
L203.7867 60.3658
" />
<path d="M203.7867 60.3658
L203.8534 60.3325
" />
<path d="M203.8534 60.3325
L204.0534 60.3325
" />
<path d="M204.0534 60.3325
L204.1201 60.3658
" />
<path d="M204.1201 60.3658
L204.1534 60.3991
" />
<path d="M204.1534 60.3991
L204.1867 60.4658
" />
<path d="M204.1867 60.4658
L204.1867 60.5991
" />
<path d="M204.1867 60.5991
L204.1534 60.6658
" />
</g><g transform="rotate(-90.000000 202.5022 49.6000)">
<text x="202.5022" y="49.6000"
transform="scale(-1 1) translate(-405.004400 0)"
textLength="16.8767" font-size="0.9333" lengthAdjust="spacingAndGlyphs"
text-anchor="start" opacity="0">https://github.com/pedalboard</text>
</g>
<g class="stroked-text"><desc>https://github.com/pedalboard</desc>
<path d="M202.5931 49.8325
L203.2931 49.8325
" />
<path d="M202.5931 50.1325
L202.9597 50.1325
" />
<path d="M202.9597 50.1325
L203.0264 50.0991
" />
<path d="M203.0264 50.0991
L203.0597 50.0325
" />
<path d="M203.0597 50.0325
L203.0597 49.9325
" />
<path d="M203.0597 49.9325
L203.0264 49.8658
" />
<path d="M203.0264 49.8658
L202.9931 49.8325
" />
<path d="M203.0597 50.3658
L203.0597 50.6325
" />
<path d="M203.2931 50.4658
L202.6931 50.4658
" />
<path d="M202.6931 50.4658
L202.6264 50.4991
" />
<path d="M202.6264 50.4991
L202.5931 50.5658
" />
<path d="M202.5931 50.5658
L202.5931 50.6325
" />
<path d="M203.0597 50.7658
L203.0597 51.0325
" />
<path d="M203.2931 50.8658
L202.6931 50.8658
" />
<path d="M202.6931 50.8658
L202.6264 50.8991
" />
<path d="M202.6264 50.8991
L202.5931 50.9658
" />
<path d="M202.5931 50.9658
L202.5931 51.0325
" />
<path d="M203.0597 51.2658
L202.3597 51.2658
" />
<path d="M203.0264 51.2658
L203.0597 51.3325
" />
<path d="M203.0597 51.3325
L203.0597 51.4658
" />
<path d="M203.0597 51.4658
L203.0264 51.5325
" />
<path d="M203.0264 51.5325
L202.9931 51.5658
" />
<path d="M202.9931 51.5658
L202.9264 51.5991
" />
<path d="M202.9264 51.5991
L202.7264 51.5991
" />
<path d="M202.7264 51.5991
L202.6597 51.5658
" />
<path d="M202.6597 51.5658
L202.6264 51.5325
" />
<path d="M202.6264 51.5325
L202.5931 51.4658
" />
<path d="M202.5931 51.4658
L202.5931 51.3325
" />
<path d="M202.5931 51.3325
L202.6264 51.2658
" />
<path d="M202.6264 51.8658
L202.5931 51.9325
" />
<path d="M202.5931 51.9325
L202.5931 52.0658
" />
<path d="M202.5931 52.0658
L202.6264 52.1325
" />
<path d="M202.6264 52.1325
L202.6931 52.1658
" />
<path d="M202.6931 52.1658
L202.7264 52.1658
" />
<path d="M202.7264 52.1658
L202.7931 52.1325
" />
<path d="M202.7931 52.1325
L202.8264 52.0658
" />
<path d="M202.8264 52.0658
L202.8264 51.9658
" />
<path d="M202.8264 51.9658
L202.8597 51.8991
" />
<path d="M202.8597 51.8991
L202.9264 51.8658
" />
<path d="M202.9264 51.8658
L202.9597 51.8658
" />
<path d="M202.9597 51.8658
L203.0264 51.8991
" />
<path d="M203.0264 51.8991
L203.0597 51.9658
" />
<path d="M203.0597 51.9658
L203.0597 52.0658
" />
<path d="M203.0597 52.0658
L203.0264 52.1325
" />
<path d="M202.6597 52.4658
L202.6264 52.4991
" />
<path d="M202.6264 52.4991
L202.5931 52.4658
" />
<path d="M202.5931 52.4658
L202.6264 52.4325
" />
<path d="M202.6264 52.4325
L202.6597 52.4658
" />
<path d="M202.6597 52.4658
L202.5931 52.4658
" />
<path d="M203.0264 52.4658
L202.9931 52.4991
" />
<path d="M202.9931 52.4991
L202.9597 52.4658
" />
<path d="M202.9597 52.4658
L202.9931 52.4325
" />
<path d="M202.9931 52.4325
L203.0264 52.4658
" />
<path d="M203.0264 52.4658
L202.9597 52.4658
" />
<path d="M203.3264 53.2991
L202.4264 52.6991
" />
<path d="M203.3264 54.0325
L202.4264 53.4325
" />
<path d="M203.0597 54.5658
L202.4931 54.5658
" />
<path d="M202.4931 54.5658
L202.4264 54.5325
" />
<path d="M202.4264 54.5325
L202.3931 54.4991
" />
<path d="M202.3931 54.4991
L202.3597 54.4325
" />
<path d="M202.3597 54.4325
L202.3597 54.3325
" />
<path d="M202.3597 54.3325
L202.3931 54.2658
" />
<path d="M202.6264 54.5658
L202.5931 54.4991
" />
<path d="M202.5931 54.4991
L202.5931 54.3658
" />
<path d="M202.5931 54.3658
L202.6264 54.2991
" />
<path d="M202.6264 54.2991
L202.6597 54.2658
" />
<path d="M202.6597 54.2658
L202.7264 54.2325
" />
<path d="M202.7264 54.2325
L202.9264 54.2325
" />
<path d="M202.9264 54.2325
L202.9931 54.2658
" />
<path d="M202.9931 54.2658
L203.0264 54.2991
" />
<path d="M203.0264 54.2991
L203.0597 54.3658
" />
<path d="M203.0597 54.3658
L203.0597 54.4991
" />
<path d="M203.0597 54.4991
L203.0264 54.5658
" />
<path d="M202.5931 54.8991
L203.0597 54.8991
" />
<path d="M203.2931 54.8991
L203.2597 54.8658
" />
<path d="M203.2597 54.8658
L203.2264 54.8991
" />
<path d="M203.2264 54.8991
L203.2597 54.9325
" />
<path d="M203.2597 54.9325
L203.2931 54.8991
" />
<path d="M203.2931 54.8991
L203.2264 54.8991
" />
<path d="M203.0597 55.1325
L203.0597 55.3991
" />
<path d="M203.2931 55.2325
L202.6931 55.2325
" />
<path d="M202.6931 55.2325
L202.6264 55.2658
" />
<path d="M202.6264 55.2658
L202.5931 55.3325
" />
<path d="M202.5931 55.3325
L202.5931 55.3991
" />
<path d="M202.5931 55.6325
L203.2931 55.6325
" />
<path d="M202.5931 55.9325
L202.9597 55.9325
" />
<path d="M202.9597 55.9325
L203.0264 55.8991
" />
<path d="M203.0264 55.8991
L203.0597 55.8325
" />
<path d="M203.0597 55.8325
L203.0597 55.7325
" />
<path d="M203.0597 55.7325
L203.0264 55.6658
" />
<path d="M203.0264 55.6658
L202.9931 55.6325
" />
<path d="M203.0597 56.5658
L202.5931 56.5658
" />
<path d="M203.0597 56.2658
L202.6931 56.2658
" />
<path d="M202.6931 56.2658
L202.6264 56.2991
" />
<path d="M202.6264 56.2991
L202.5931 56.3658
" />
<path d="M202.5931 56.3658
L202.5931 56.4658
" />
<path d="M202.5931 56.4658
L202.6264 56.5325
" />
<path d="M202.6264 56.5325
L202.6597 56.5658
" />
<path d="M202.5931 56.8991
L203.2931 56.8991
" />
<path d="M203.0264 56.8991
L203.0597 56.9658
" />
<path d="M203.0597 56.9658
L203.0597 57.0991
" />
<path d="M203.0597 57.0991
L203.0264 57.1658
" />
<path d="M203.0264 57.1658
L202.9931 57.1991
" />
<path d="M202.9931 57.1991
L202.9264 57.2325
" />
<path d="M202.9264 57.2325
L202.7264 57.2325
" />
<path d="M202.7264 57.2325
L202.6597 57.1991
" />
<path d="M202.6597 57.1991
L202.6264 57.1658
" />
<path d="M202.6264 57.1658
L202.5931 57.0991
" />
<path d="M202.5931 57.0991
L202.5931 56.9658
" />
<path d="M202.5931 56.9658
L202.6264 56.8991
" />
<path d="M202.6597 57.5325
L202.6264 57.5658
" />
<path d="M202.6264 57.5658
L202.5931 57.5325
" />
<path d="M202.5931 57.5325
L202.6264 57.4991
" />
<path d="M202.6264 57.4991
L202.6597 57.5325
" />
<path d="M202.6597 57.5325
L202.5931 57.5325
" />
<path d="M202.6264 58.1658
L202.5931 58.0991
" />
<path d="M202.5931 58.0991
L202.5931 57.9658
" />
<path d="M202.5931 57.9658
L202.6264 57.8991
" />
<path d="M202.6264 57.8991
L202.6597 57.8658
" />
<path d="M202.6597 57.8658
L202.7264 57.8325
" />
<path d="M202.7264 57.8325
L202.9264 57.8325
" />
<path d="M202.9264 57.8325
L202.9931 57.8658
" />
<path d="M202.9931 57.8658
L203.0264 57.8991
" />
<path d="M203.0264 57.8991
L203.0597 57.9658
" />
<path d="M203.0597 57.9658
L203.0597 58.0991
" />
<path d="M203.0597 58.0991
L203.0264 58.1658
" />
<path d="M202.5931 58.5658
L202.6264 58.4991
" />
<path d="M202.6264 58.4991
L202.6597 58.4658
" />
<path d="M202.6597 58.4658
L202.7264 58.4325
" />
<path d="M202.7264 58.4325
L202.9264 58.4325
" />
<path d="M202.9264 58.4325
L202.9931 58.4658
" />
<path d="M202.9931 58.4658
L203.0264 58.4991
" />
<path d="M203.0264 58.4991
L203.0597 58.5658
" />
<path d="M203.0597 58.5658
L203.0597 58.6658
" />
<path d="M203.0597 58.6658
L203.0264 58.7325
" />
<path d="M203.0264 58.7325
L202.9931 58.7658
" />
<path d="M202.9931 58.7658
L202.9264 58.7991
" />
<path d="M202.9264 58.7991
L202.7264 58.7991
" />
<path d="M202.7264 58.7991
L202.6597 58.7658
" />
<path d="M202.6597 58.7658
L202.6264 58.7325
" />
<path d="M202.6264 58.7325
L202.5931 58.6658
" />
<path d="M202.5931 58.6658
L202.5931 58.5658
" />
<path d="M202.5931 59.0991
L203.0597 59.0991
" />
<path d="M202.9931 59.0991
L203.0264 59.1325
" />
<path d="M203.0264 59.1325
L203.0597 59.1991
" />
<path d="M203.0597 59.1991
L203.0597 59.2991
" />
<path d="M203.0597 59.2991
L203.0264 59.3658
" />
<path d="M203.0264 59.3658
L202.9597 59.3991
" />
<path d="M202.9597 59.3991
L202.5931 59.3991
" />
<path d="M202.9597 59.3991
L203.0264 59.4325
" />
<path d="M203.0264 59.4325
L203.0597 59.4991
" />
<path d="M203.0597 59.4991
L203.0597 59.5991
" />
<path d="M203.0597 59.5991
L203.0264 59.6658
" />
<path d="M203.0264 59.6658
L202.9597 59.6991
" />
<path d="M202.9597 59.6991
L202.5931 59.6991
" />
<path d="M203.3264 60.5325
L202.4264 59.9325
" />
<path d="M203.0597 60.7658
L202.3597 60.7658
" />
<path d="M203.0264 60.7658
L203.0597 60.8325
" />
<path d="M203.0597 60.8325
L203.0597 60.9658
" />
<path d="M203.0597 60.9658
L203.0264 61.0325
" />
<path d="M203.0264 61.0325
L202.9931 61.0658
" />
<path d="M202.9931 61.0658
L202.9264 61.0991
" />
<path d="M202.9264 61.0991
L202.7264 61.0991
" />
<path d="M202.7264 61.0991
L202.6597 61.0658
" />
<path d="M202.6597 61.0658
L202.6264 61.0325
" />
<path d="M202.6264 61.0325
L202.5931 60.9658
" />
<path d="M202.5931 60.9658
L202.5931 60.8325
" />
<path d="M202.5931 60.8325
L202.6264 60.7658
" />
<path d="M202.6264 61.6658
L202.5931 61.5991
" />
<path d="M202.5931 61.5991
L202.5931 61.4658
" />
<path d="M202.5931 61.4658
L202.6264 61.3991
" />
<path d="M202.6264 61.3991
L202.6931 61.3658
" />
<path d="M202.6931 61.3658
L202.9597 61.3658
" />
<path d="M202.9597 61.3658
L203.0264 61.3991
" />
<path d="M203.0264 61.3991
L203.0597 61.4658
" />
<path d="M203.0597 61.4658
L203.0597 61.5991
" />
<path d="M203.0597 61.5991
L203.0264 61.6658
" />
<path d="M203.0264 61.6658
L202.9597 61.6991
" />
<path d="M202.9597 61.6991
L202.8931 61.6991
" />
<path d="M202.8931 61.6991
L202.8264 61.3658
" />
<path d="M202.5931 62.2991
L203.2931 62.2991
" />
<path d="M202.6264 62.2991
L202.5931 62.2325
" />
<path d="M202.5931 62.2325
L202.5931 62.0991
" />
<path d="M202.5931 62.0991
L202.6264 62.0325
" />
<path d="M202.6264 62.0325
L202.6597 61.9991
" />
<path d="M202.6597 61.9991
L202.7264 61.9658
" />
<path d="M202.7264 61.9658
L202.9264 61.9658
" />
<path d="M202.9264 61.9658
L202.9931 61.9991
" />
<path d="M202.9931 61.9991
L203.0264 62.0325
" />
<path d="M203.0264 62.0325
L203.0597 62.0991
" />
<path d="M203.0597 62.0991
L203.0597 62.2325
" />
<path d="M203.0597 62.2325
L203.0264 62.2991
" />
<path d="M202.5931 62.9324
L202.9597 62.9324
" />
<path d="M202.9597 62.9324
L203.0264 62.8991
" />
<path d="M203.0264 62.8991
L203.0597 62.8324
" />
<path d="M203.0597 62.8324
L203.0597 62.6991
" />
<path d="M203.0597 62.6991
L203.0264 62.6324
" />
<path d="M202.6264 62.9324
L202.5931 62.8658
" />
<path d="M202.5931 62.8658
L202.5931 62.6991
" />
<path d="M202.5931 62.6991
L202.6264 62.6324
" />
<path d="M202.6264 62.6324
L202.6931 62.5991
" />
<path d="M202.6931 62.5991
L202.7597 62.5991
" />
<path d="M202.7597 62.5991
L202.8264 62.6324
" />
<path d="M202.8264 62.6324
L202.8597 62.6991
" />
<path d="M202.8597 62.6991
L202.8597 62.8658
" />
<path d="M202.8597 62.8658
L202.8931 62.9324
" />
<path d="M202.5931 63.3658
L202.6264 63.2991
" />
<path d="M202.6264 63.2991
L202.6931 63.2658
" />
<path d="M202.6931 63.2658
L203.2931 63.2658
" />
<path d="M202.5931 63.6324
L203.2931 63.6324
" />
<path d="M203.0264 63.6324
L203.0597 63.6991
" />
<path d="M203.0597 63.6991
L203.0597 63.8324
" />
<path d="M203.0597 63.8324
L203.0264 63.8991
" />
<path d="M203.0264 63.8991
L202.9931 63.9324
" />
<path d="M202.9931 63.9324
L202.9264 63.9658
" />
<path d="M202.9264 63.9658
L202.7264 63.9658
" />
<path d="M202.7264 63.9658
L202.6597 63.9324
" />
<path d="M202.6597 63.9324
L202.6264 63.8991
" />
<path d="M202.6264 63.8991
L202.5931 63.8324
" />
<path d="M202.5931 63.8324
L202.5931 63.6991
" />
<path d="M202.5931 63.6991
L202.6264 63.6324
" />
<path d="M202.5931 64.3658
L202.6264 64.2991
" />
<path d="M202.6264 64.2991
L202.6597 64.2658
" />
<path d="M202.6597 64.2658
L202.7264 64.2325
" />
<path d="M202.7264 64.2325
L202.9264 64.2325
" />
<path d="M202.9264 64.2325
L202.9931 64.2658
" />
<path d="M202.9931 64.2658
L203.0264 64.2991
" />
<path d="M203.0264 64.2991
L203.0597 64.3658
" />
<path d="M203.0597 64.3658
L203.0597 64.4658
" />
<path d="M203.0597 64.4658
L203.0264 64.5324
" />
<path d="M203.0264 64.5324
L202.9931 64.5658
" />
<path d="M202.9931 64.5658
L202.9264 64.5991
" />
<path d="M202.9264 64.5991
L202.7264 64.5991
" />
<path d="M202.7264 64.5991
L202.6597 64.5658
" />
<path d="M202.6597 64.5658
L202.6264 64.5324
" />
<path d="M202.6264 64.5324
L202.5931 64.4658
" />
<path d="M202.5931 64.4658
L202.5931 64.3658
" />
<path d="M202.5931 65.1991
L202.9597 65.1991
" />
<path d="M202.9597 65.1991
L203.0264 65.1658
" />
<path d="M203.0264 65.1658
L203.0597 65.0991
" />
<path d="M203.0597 65.0991
L203.0597 64.9658
" />
<path d="M203.0597 64.9658
L203.0264 64.8991
" />
<path d="M202.6264 65.1991
L202.5931 65.1324
" />
<path d="M202.5931 65.1324
L202.5931 64.9658
" />
<path d="M202.5931 64.9658
L202.6264 64.8991
" />
<path d="M202.6264 64.8991
L202.6931 64.8658
" />
<path d="M202.6931 64.8658
L202.7597 64.8658
" />
<path d="M202.7597 64.8658
L202.8264 64.8991
" />
<path d="M202.8264 64.8991
L202.8597 64.9658
" />
<path d="M202.8597 64.9658
L202.8597 65.1324
" />
<path d="M202.8597 65.1324
L202.8931 65.1991
" />
<path d="M202.5931 65.5324
L203.0597 65.5324
" />
<path d="M202.9264 65.5324
L202.9931 65.5658
" />
<path d="M202.9931 65.5658
L203.0264 65.5991
" />
<path d="M203.0264 65.5991
L203.0597 65.6658
" />
<path d="M203.0597 65.6658
L203.0597 65.7324
" />
<path d="M202.5931 66.2658
L203.2931 66.2658
" />
<path d="M202.6264 66.2658
L202.5931 66.1991
" />
<path d="M202.5931 66.1991
L202.5931 66.0658
" />
<path d="M202.5931 66.0658
L202.6264 65.9991
" />
<path d="M202.6264 65.9991
L202.6597 65.9658
" />
<path d="M202.6597 65.9658
L202.7264 65.9324
" />
<path d="M202.7264 65.9324
L202.9264 65.9324
" />
<path d="M202.9264 65.9324
L202.9931 65.9658
" />
<path d="M202.9931 65.9658
L203.0264 65.9991
" />
<path d="M203.0264 65.9991
L203.0597 66.0658
" />
<path d="M203.0597 66.0658
L203.0597 66.1991
" />
<path d="M203.0597 66.1991
L203.0264 66.2658
" />
</g></g>
<g style="fill:#000000; fill-opacity:0.0; 
stroke:#000000; stroke-width:0.1200; stroke-opacity:1; 
stroke-linecap:round; stroke-linejoin:round;">
<path d="M209.0622 62.0600
L209.0622 57.9400
" />
<path d="M208.7622 62.0600
L209.0622 62.0600
" />
<path d="M206.7622 62.0600
L207.2422 62.0600
" />
<path d="M204.9422 62.0600
L205.2422 62.0600
" />
<path d="M204.9422 62.0600
L204.9422 57.9400
" />
<path d="M208.7622 57.9400
L209.0622 57.9400
" />
<path d="M206.7622 57.9400
L207.2422 57.9400
" />
<path d="M205.2422 57.9400
L205.2422 55.5600
" />
<path d="M204.9422 57.9400
L205.2422 57.9400
" />
<path d="M209.0622 67.9400
L204.9422 67.9400
" />
<path d="M209.0622 68.2400
L209.0622 67.9400
" />
<path d="M209.0622 70.2400
L209.0622 69.7600
" />
<path d="M209.0622 72.0600
L209.0622 71.7600
" />
<path d="M209.0622 72.0600
L204.9422 72.0600
" />
<path d="M204.9422 68.2400
L204.9422 67.9400
" />
<path d="M204.9422 70.2400
L204.9422 69.7600
" />
<path d="M204.9422 71.7600
L202.5622 71.7600
" />
<path d="M204.9422 72.0600
L204.9422 71.7600
" />
<g >
</g>
<g >
</g>
<g >
</g>
<g >
</g>
<g >
</g>
<g >
</g>
<g >
</g>
<g >
</g>
<g >
</g>
<g >
</g>
<g >
</g>
<g >
</g>
<g >
</g>
<g >
</g>
<g >
</g>
<g >
</g>
<g >
</g>
<g >
</g>
<g >
</g>
<g >
</g>
<g >
</g>
<g >
</g>
<g >
</g>
<g >
</g>
<g >
</g>
<g >
</g>
<g >
</g>
<g >
</g>
<g >
</g>
<g >
</g>
<g >
</g>
<g >
</g>
<g >
</g>
<g >
</g>
</g> 
</svg>
