<?xml version="1.0" standalone="no"?>
 <!DOCTYPE svg PUBLIC "-//W3C//DTD SVG 1.1//EN" 
 "http://www.w3.org/Graphics/SVG/1.1/DTD/svg11.dtd"> 
<svg
  xmlns:svg="http://www.w3.org/2000/svg"
  xmlns="http://www.w3.org/2000/svg"
  xmlns:xlink="http://www.w3.org/1999/xlink"
  version="1.1"
  width="297.0022mm" height="210.0072mm" viewBox="0.0000 0.0000 297.0022 210.0072">
<title>SVG Image created as pedalboard-led-ring-B_Cu.svg date 2023/05/26 17:28:15 </title>
  <desc>Image generated by PCBNEW </desc>
<g style="fill:#000000; fill-opacity:1.0000;stroke:#000000; stroke-opacity:1.0000;
stroke-linecap:round; stroke-linejoin:round;"
 transform="translate(0 0) scale(1 1)">
</g>
<g style="fill:#000000; fill-opacity:0.0; 
stroke:#000000; stroke-width:0.0000; stroke-opacity:1; 
stroke-linecap:round; stroke-linejoin:round;">
<g >
</g>
<g >
</g>
<g >
</g>
<g >
</g>
<g >
</g>
<g >
</g>
<g >
</g>
<g style="fill:#000000; fill-opacity:0.0; 
stroke:#000000; stroke-width:0.0000; stroke-opacity:1; 
stroke-linecap:round; stroke-linejoin:round;">
</g>
<g style="fill:#000000; fill-opacity:0.0; 
stroke:#000000; stroke-width:0.0000; stroke-opacity:1; 
stroke-linecap:round; stroke-linejoin:round;">
</g>
<g style="fill:#000000; fill-opacity:1.0000; 
stroke:#000000; stroke-width:0.0000; stroke-opacity:1; 
stroke-linecap:round; stroke-linejoin:round;">
<path style="fill:#000000; fill-opacity:1.0000; 
stroke:#000000; stroke-width:0.0000; stroke-opacity:1; 
stroke-linecap:round; stroke-linejoin:round;fill-rule:evenodd;"
d="M 205.5522,54.5550
205.5408,54.4976
205.5083,54.4489
205.4596,54.4164
205.4022,54.4050
203.7522,54.4050
203.6948,54.4164
203.6461,54.4489
203.6136,54.4976
203.6022,54.5550
203.6022,54.8550
203.6136,54.9124
203.6461,54.9611
203.6948,54.9936
203.7522,55.0050
205.4022,55.0050
205.4596,54.9936
205.5083,54.9611
205.5408,54.9124
205.5522,54.8550
Z" /> 
<path style="fill:#000000; fill-opacity:1.0000; 
stroke:#000000; stroke-width:0.0000; stroke-opacity:1; 
stroke-linecap:round; stroke-linejoin:round;fill-rule:evenodd;"
d="M 205.5522,53.2850
205.5408,53.2276
205.5083,53.1789
205.4596,53.1464
205.4022,53.1350
203.7522,53.1350
203.6948,53.1464
203.6461,53.1789
203.6136,53.2276
203.6022,53.2850
203.6022,53.5850
203.6136,53.6424
203.6461,53.6911
203.6948,53.7236
203.7522,53.7350
205.4022,53.7350
205.4596,53.7236
205.5083,53.6911
205.5408,53.6424
205.5522,53.5850
Z" /> 
<path style="fill:#000000; fill-opacity:1.0000; 
stroke:#000000; stroke-width:0.0000; stroke-opacity:1; 
stroke-linecap:round; stroke-linejoin:round;fill-rule:evenodd;"
d="M 205.5522,52.0150
205.5408,51.9576
205.5083,51.9089
205.4596,51.8764
205.4022,51.8650
203.7522,51.8650
203.6948,51.8764
203.6461,51.9089
203.6136,51.9576
203.6022,52.0150
203.6022,52.3150
203.6136,52.3724
203.6461,52.4211
203.6948,52.4536
203.7522,52.4650
205.4022,52.4650
205.4596,52.4536
205.5083,52.4211
205.5408,52.3724
205.5522,52.3150
Z" /> 
<path style="fill:#000000; fill-opacity:1.0000; 
stroke:#000000; stroke-width:0.0000; stroke-opacity:1; 
stroke-linecap:round; stroke-linejoin:round;fill-rule:evenodd;"
d="M 205.5522,50.7450
205.5408,50.6876
205.5083,50.6389
205.4596,50.6064
205.4022,50.5950
203.7522,50.5950
203.6948,50.6064
203.6461,50.6389
203.6136,50.6876
203.6022,50.7450
203.6022,51.0450
203.6136,51.1024
203.6461,51.1511
203.6948,51.1836
203.7522,51.1950
205.4022,51.1950
205.4596,51.1836
205.5083,51.1511
205.5408,51.1024
205.5522,51.0450
Z" /> 
<path style="fill:#000000; fill-opacity:1.0000; 
stroke:#000000; stroke-width:0.0000; stroke-opacity:1; 
stroke-linecap:round; stroke-linejoin:round;fill-rule:evenodd;"
d="M 200.6022,50.7450
200.5908,50.6876
200.5583,50.6389
200.5096,50.6064
200.4522,50.5950
198.8022,50.5950
198.7448,50.6064
198.6961,50.6389
198.6636,50.6876
198.6522,50.7450
198.6522,51.0450
198.6636,51.1024
198.6961,51.1511
198.7448,51.1836
198.8022,51.1950
200.4522,51.1950
200.5096,51.1836
200.5583,51.1511
200.5908,51.1024
200.6022,51.0450
Z" /> 
<path style="fill:#000000; fill-opacity:1.0000; 
stroke:#000000; stroke-width:0.0000; stroke-opacity:1; 
stroke-linecap:round; stroke-linejoin:round;fill-rule:evenodd;"
d="M 200.6022,52.0150
200.5908,51.9576
200.5583,51.9089
200.5096,51.8764
200.4522,51.8650
198.8022,51.8650
198.7448,51.8764
198.6961,51.9089
198.6636,51.9576
198.6522,52.0150
198.6522,52.3150
198.6636,52.3724
198.6961,52.4211
198.7448,52.4536
198.8022,52.4650
200.4522,52.4650
200.5096,52.4536
200.5583,52.4211
200.5908,52.3724
200.6022,52.3150
Z" /> 
<path style="fill:#000000; fill-opacity:1.0000; 
stroke:#000000; stroke-width:0.0000; stroke-opacity:1; 
stroke-linecap:round; stroke-linejoin:round;fill-rule:evenodd;"
d="M 200.6022,53.2850
200.5908,53.2276
200.5583,53.1789
200.5096,53.1464
200.4522,53.1350
198.8022,53.1350
198.7448,53.1464
198.6961,53.1789
198.6636,53.2276
198.6522,53.2850
198.6522,53.5850
198.6636,53.6424
198.6961,53.6911
198.7448,53.7236
198.8022,53.7350
200.4522,53.7350
200.5096,53.7236
200.5583,53.6911
200.5908,53.6424
200.6022,53.5850
Z" /> 
<path style="fill:#000000; fill-opacity:1.0000; 
stroke:#000000; stroke-width:0.0000; stroke-opacity:1; 
stroke-linecap:round; stroke-linejoin:round;fill-rule:evenodd;"
d="M 200.6022,54.5550
200.5908,54.4976
200.5583,54.4489
200.5096,54.4164
200.4522,54.4050
198.8022,54.4050
198.7448,54.4164
198.6961,54.4489
198.6636,54.4976
198.6522,54.5550
198.6522,54.8550
198.6636,54.9124
198.6961,54.9611
198.7448,54.9936
198.8022,55.0050
200.4522,55.0050
200.5096,54.9936
200.5583,54.9611
200.5908,54.9124
200.6022,54.8550
Z" /> 
</g>
<g >
</g>
<g style="fill:#000000; fill-opacity:1.0000; 
stroke:#000000; stroke-width:0.0000; stroke-opacity:1; 
stroke-linecap:round; stroke-linejoin:round;">
<path style="fill:#000000; fill-opacity:1.0000; 
stroke:#000000; stroke-width:0.0000; stroke-opacity:1; 
stroke-linecap:round; stroke-linejoin:round;fill-rule:evenodd;"
d="M 209.7487,66.0965
209.7472,66.1000
209.7472,68.1000
209.7487,68.1035
209.7522,68.1050
210.7522,68.1050
210.7557,68.1035
210.7572,68.1000
210.7572,67.6050
211.8522,67.6050
211.8557,67.6035
211.8572,67.6000
211.8572,66.6000
211.8557,66.5965
211.8522,66.5950
210.7572,66.5950
210.7572,66.1000
210.7557,66.0965
210.7522,66.0950
209.7522,66.0950
Z" /> 
<path style="fill:#000000; fill-opacity:1.0000; 
stroke:#000000; stroke-width:0.0000; stroke-opacity:1; 
stroke-linecap:round; stroke-linejoin:round;fill-rule:evenodd;"
d="M 207.4487,66.0965
207.4472,66.1000
207.4472,66.5950
206.3522,66.5950
206.3487,66.5965
206.3472,66.6000
206.3472,67.6000
206.3487,67.6035
206.3522,67.6050
207.4472,67.6050
207.4472,68.1000
207.4487,68.1035
207.4522,68.1050
208.4522,68.1050
208.4557,68.1035
208.4572,68.1000
208.4572,66.1000
208.4557,66.0965
208.4522,66.0950
207.4522,66.0950
Z" /> 
</g>
<g >
</g>
<g style="fill:#000000; fill-opacity:1.0000; 
stroke:#000000; stroke-width:0.0000; stroke-opacity:1; 
stroke-linecap:round; stroke-linejoin:round;">
<path style="fill:#000000; fill-opacity:1.0000; 
stroke:#000000; stroke-width:0.0000; stroke-opacity:1; 
stroke-linecap:round; stroke-linejoin:round;fill-rule:evenodd;"
d="M 207.3272,58.9500
207.3082,58.8543
207.2540,58.7732
207.1729,58.7190
207.0772,58.7000
206.2522,58.7000
206.1565,58.7190
206.0754,58.7732
206.0212,58.8543
206.0022,58.9500
206.0022,60.2500
206.0212,60.3457
206.0754,60.4268
206.1565,60.4810
206.2522,60.5000
207.0772,60.5000
207.1729,60.4810
207.2540,60.4268
207.3082,60.3457
207.3272,60.2500
Z" /> 
<path style="fill:#000000; fill-opacity:1.0000; 
stroke:#000000; stroke-width:0.0000; stroke-opacity:1; 
stroke-linecap:round; stroke-linejoin:round;fill-rule:evenodd;"
d="M 204.2022,58.9500
204.1832,58.8543
204.1290,58.7732
204.0479,58.7190
203.9522,58.7000
203.1272,58.7000
203.0315,58.7190
202.9504,58.7732
202.8962,58.8543
202.8772,58.9500
202.8772,60.2500
202.8962,60.3457
202.9504,60.4268
203.0315,60.4810
203.1272,60.5000
203.9522,60.5000
204.0479,60.4810
204.1290,60.4268
204.1832,60.3457
204.2022,60.2500
Z" /> 
</g>
<g >
</g>
<g style="fill:#000000; fill-opacity:1.0000; 
stroke:#000000; stroke-width:0.0000; stroke-opacity:1; 
stroke-linecap:round; stroke-linejoin:round;">
<path style="fill:#000000; fill-opacity:1.0000; 
stroke:#000000; stroke-width:0.0000; stroke-opacity:1; 
stroke-linecap:round; stroke-linejoin:round;fill-rule:evenodd;"
d="M 203.5422,69.0200
202.5422,69.0200
202.5422,72.0200
203.5422,72.0200
Z" /> 
<path style="fill:#000000; fill-opacity:1.0000; 
stroke:#000000; stroke-width:0.0000; stroke-opacity:1; 
stroke-linecap:round; stroke-linejoin:round;fill-rule:evenodd;"
d="M 203.5422,63.9800
202.5422,63.9800
202.5422,66.9800
203.5422,66.9800
Z" /> 
<path style="fill:#000000; fill-opacity:1.0000; 
stroke:#000000; stroke-width:0.0000; stroke-opacity:1; 
stroke-linecap:round; stroke-linejoin:round;fill-rule:evenodd;"
d="M 201.0022,69.0200
200.0022,69.0200
200.0022,72.0200
201.0022,72.0200
Z" /> 
<path style="fill:#000000; fill-opacity:1.0000; 
stroke:#000000; stroke-width:0.0000; stroke-opacity:1; 
stroke-linecap:round; stroke-linejoin:round;fill-rule:evenodd;"
d="M 201.0022,63.9800
200.0022,63.9800
200.0022,66.9800
201.0022,66.9800
Z" /> 
<path style="fill:#000000; fill-opacity:1.0000; 
stroke:#000000; stroke-width:0.0000; stroke-opacity:1; 
stroke-linecap:round; stroke-linejoin:round;fill-rule:evenodd;"
d="M 198.4622,69.0200
197.4622,69.0200
197.4622,72.0200
198.4622,72.0200
Z" /> 
<path style="fill:#000000; fill-opacity:1.0000; 
stroke:#000000; stroke-width:0.0000; stroke-opacity:1; 
stroke-linecap:round; stroke-linejoin:round;fill-rule:evenodd;"
d="M 198.4622,63.9800
197.4622,63.9800
197.4622,66.9800
198.4622,66.9800
Z" /> 
</g>
<g >
</g>
<g style="fill:#000000; fill-opacity:1.0000; 
stroke:#000000; stroke-width:0.0000; stroke-opacity:1; 
stroke-linecap:round; stroke-linejoin:round;">
<path style="fill:#000000; fill-opacity:1.0000; 
stroke:#000000; stroke-width:0.0000; stroke-opacity:1; 
stroke-linecap:round; stroke-linejoin:round;fill-rule:evenodd;"
d="M 213.5022,70.6500
212.5022,70.6500
212.5022,71.6500
213.5022,71.6500
Z" /> 
<path style="fill:#000000; fill-opacity:1.0000; 
stroke:#000000; stroke-width:0.0000; stroke-opacity:1; 
stroke-linecap:round; stroke-linejoin:round;fill-rule:evenodd;"
d="M 213.5022,72.3500
212.5022,72.3500
212.5022,73.3500
213.5022,73.3500
Z" /> 
</g>
<g >
</g>
<g style="fill:#000000; fill-opacity:1.0000; 
stroke:#000000; stroke-width:0.0000; stroke-opacity:1; 
stroke-linecap:round; stroke-linejoin:round;">
<path style="fill:#000000; fill-opacity:1.0000; 
stroke:#000000; stroke-width:0.0000; stroke-opacity:1; 
stroke-linecap:round; stroke-linejoin:round;fill-rule:evenodd;"
d="M 196.7022,53.9500
197.7022,53.9500
197.7022,52.9500
196.7022,52.9500
Z" /> 
<path style="fill:#000000; fill-opacity:1.0000; 
stroke:#000000; stroke-width:0.0000; stroke-opacity:1; 
stroke-linecap:round; stroke-linejoin:round;fill-rule:evenodd;"
d="M 196.7022,52.2500
197.7022,52.2500
197.7022,51.2500
196.7022,51.2500
Z" /> 
</g>
<g >
</g>
<g style="fill:#000000; fill-opacity:1.0000; 
stroke:#000000; stroke-width:0.0000; stroke-opacity:1; 
stroke-linecap:round; stroke-linejoin:round;">
<path style="fill:#000000; fill-opacity:1.0000; 
stroke:#000000; stroke-width:0.0000; stroke-opacity:1; 
stroke-linecap:round; stroke-linejoin:round;fill-rule:evenodd;"
d="M 209.3272,71.1250
209.3272,71.3750
210.0272,71.3750
210.0272,71.1250
Z" /> 
<path style="fill:#000000; fill-opacity:1.0000; 
stroke:#000000; stroke-width:0.0000; stroke-opacity:1; 
stroke-linecap:round; stroke-linejoin:round;fill-rule:evenodd;"
d="M 209.3272,71.6250
209.3272,71.8750
210.0272,71.8750
210.0272,71.6250
Z" /> 
<path style="fill:#000000; fill-opacity:1.0000; 
stroke:#000000; stroke-width:0.0000; stroke-opacity:1; 
stroke-linecap:round; stroke-linejoin:round;fill-rule:evenodd;"
d="M 209.3272,72.1250
209.3272,72.3750
210.0272,72.3750
210.0272,72.1250
Z" /> 
<path style="fill:#000000; fill-opacity:1.0000; 
stroke:#000000; stroke-width:0.0000; stroke-opacity:1; 
stroke-linecap:round; stroke-linejoin:round;fill-rule:evenodd;"
d="M 209.3272,72.6250
209.3272,72.8750
210.0272,72.8750
210.0272,72.6250
Z" /> 
<path style="fill:#000000; fill-opacity:1.0000; 
stroke:#000000; stroke-width:0.0000; stroke-opacity:1; 
stroke-linecap:round; stroke-linejoin:round;fill-rule:evenodd;"
d="M 211.1772,72.6250
211.1772,72.8750
211.8772,72.8750
211.8772,72.6250
Z" /> 
<path style="fill:#000000; fill-opacity:1.0000; 
stroke:#000000; stroke-width:0.0000; stroke-opacity:1; 
stroke-linecap:round; stroke-linejoin:round;fill-rule:evenodd;"
d="M 211.1772,72.1250
211.1772,72.3750
211.8772,72.3750
211.8772,72.1250
Z" /> 
<path style="fill:#000000; fill-opacity:1.0000; 
stroke:#000000; stroke-width:0.0000; stroke-opacity:1; 
stroke-linecap:round; stroke-linejoin:round;fill-rule:evenodd;"
d="M 211.1772,71.6250
211.1772,71.8750
211.8772,71.8750
211.8772,71.6250
Z" /> 
<path style="fill:#000000; fill-opacity:1.0000; 
stroke:#000000; stroke-width:0.0000; stroke-opacity:1; 
stroke-linecap:round; stroke-linejoin:round;fill-rule:evenodd;"
d="M 211.1772,71.1250
211.1772,71.3750
211.8772,71.3750
211.8772,71.1250
Z" /> 
<path style="fill:#000000; fill-opacity:1.0000; 
stroke:#000000; stroke-width:0.0000; stroke-opacity:1; 
stroke-linecap:round; stroke-linejoin:round;fill-rule:evenodd;"
d="M 210.2972,70.9000
210.2972,73.1000
210.9072,73.1000
210.9072,70.9000
Z" /> 
</g>
<g >
</g>
<g style="fill:#000000; fill-opacity:1.0000; 
stroke:#000000; stroke-width:0.0000; stroke-opacity:1; 
stroke-linecap:round; stroke-linejoin:round;">
<path style="fill:#000000; fill-opacity:1.0000; 
stroke:#000000; stroke-width:0.0000; stroke-opacity:1; 
stroke-linecap:round; stroke-linejoin:round;fill-rule:evenodd;"
d="M 198.7272,55.8750
198.6315,55.8940
198.5504,55.9482
198.4962,56.0293
198.4772,56.1250
198.4772,56.8000
198.4962,56.8957
198.5504,56.9768
198.6315,57.0310
198.7272,57.0500
199.6772,57.0500
199.7729,57.0310
199.8540,56.9768
199.9082,56.8957
199.9272,56.8000
199.9272,56.1250
199.9082,56.0293
199.8540,55.9482
199.7729,55.8940
199.6772,55.8750
Z" /> 
<path style="fill:#000000; fill-opacity:1.0000; 
stroke:#000000; stroke-width:0.0000; stroke-opacity:1; 
stroke-linecap:round; stroke-linejoin:round;fill-rule:evenodd;"
d="M 198.7272,57.9500
198.6315,57.9690
198.5504,58.0232
198.4962,58.1043
198.4772,58.2000
198.4772,58.8750
198.4962,58.9707
198.5504,59.0518
198.6315,59.1060
198.7272,59.1250
199.6772,59.1250
199.7729,59.1060
199.8540,59.0518
199.9082,58.9707
199.9272,58.8750
199.9272,58.2000
199.9082,58.1043
199.8540,58.0232
199.7729,57.9690
199.6772,57.9500
Z" /> 
</g>
<g >
</g>
<g style="fill:#000000; fill-opacity:1.0000; 
stroke:#000000; stroke-width:0.0000; stroke-opacity:1; 
stroke-linecap:round; stroke-linejoin:round;">
<path style="fill:#000000; fill-opacity:1.0000; 
stroke:#000000; stroke-width:0.0000; stroke-opacity:1; 
stroke-linecap:round; stroke-linejoin:round;fill-rule:evenodd;"
d="M 212.4772,69.7750
212.4962,69.8707
212.5504,69.9518
212.6315,70.0060
212.7272,70.0250
213.4022,70.0250
213.4979,70.0060
213.5790,69.9518
213.6332,69.8707
213.6522,69.7750
213.6522,68.8250
213.6332,68.7293
213.5790,68.6482
213.4979,68.5940
213.4022,68.5750
212.7272,68.5750
212.6315,68.5940
212.5504,68.6482
212.4962,68.7293
212.4772,68.8250
Z" /> 
<path style="fill:#000000; fill-opacity:1.0000; 
stroke:#000000; stroke-width:0.0000; stroke-opacity:1; 
stroke-linecap:round; stroke-linejoin:round;fill-rule:evenodd;"
d="M 214.5522,69.7750
214.5712,69.8707
214.6254,69.9518
214.7065,70.0060
214.8022,70.0250
215.4772,70.0250
215.5729,70.0060
215.6540,69.9518
215.7082,69.8707
215.7272,69.7750
215.7272,68.8250
215.7082,68.7293
215.6540,68.6482
215.5729,68.5940
215.4772,68.5750
214.8022,68.5750
214.7065,68.5940
214.6254,68.6482
214.5712,68.7293
214.5522,68.8250
Z" /> 
</g>
<g >
</g>
<g style="fill:#000000; fill-opacity:1.0000; 
stroke:#000000; stroke-width:0.0000; stroke-opacity:1; 
stroke-linecap:round; stroke-linejoin:round;">
<path style="fill:#000000; fill-opacity:1.0000; 
stroke:#000000; stroke-width:0.0000; stroke-opacity:1; 
stroke-linecap:round; stroke-linejoin:round;fill-rule:evenodd;"
d="M 207.6522,73.3250
207.7479,73.3060
207.8290,73.2518
207.8832,73.1707
207.9022,73.0750
207.9022,72.2500
207.8832,72.1543
207.8290,72.0732
207.7479,72.0190
207.6522,72.0000
206.3522,72.0000
206.2565,72.0190
206.1754,72.0732
206.1212,72.1543
206.1022,72.2500
206.1022,73.0750
206.1212,73.1707
206.1754,73.2518
206.2565,73.3060
206.3522,73.3250
Z" /> 
<path style="fill:#000000; fill-opacity:1.0000; 
stroke:#000000; stroke-width:0.0000; stroke-opacity:1; 
stroke-linecap:round; stroke-linejoin:round;fill-rule:evenodd;"
d="M 207.6522,70.2000
207.7479,70.1810
207.8290,70.1268
207.8832,70.0457
207.9022,69.9500
207.9022,69.1250
207.8832,69.0293
207.8290,68.9482
207.7479,68.8940
207.6522,68.8750
206.3522,68.8750
206.2565,68.8940
206.1754,68.9482
206.1212,69.0293
206.1022,69.1250
206.1022,69.9500
206.1212,70.0457
206.1754,70.1268
206.2565,70.1810
206.3522,70.2000
Z" /> 
</g>
<g >
</g>
<g style="fill:#000000; fill-opacity:1.0000; 
stroke:#000000; stroke-width:0.0000; stroke-opacity:1; 
stroke-linecap:round; stroke-linejoin:round;">
<circle cx="207.5022" cy="61.4000" r="0.4000" /> 
</g>
<g style="fill:#000000; fill-opacity:1.0000; 
stroke:#000000; stroke-width:0.0212; stroke-opacity:1; 
stroke-linecap:round; stroke-linejoin:round;">
</g>
<g style="fill:#000000; fill-opacity:1.0000; 
stroke:#000000; stroke-width:0.0000; stroke-opacity:1; 
stroke-linecap:round; stroke-linejoin:round;">
<circle cx="206.5022" cy="61.4000" r="0.4000" /> 
</g>
<g style="fill:#000000; fill-opacity:1.0000; 
stroke:#000000; stroke-width:0.0212; stroke-opacity:1; 
stroke-linecap:round; stroke-linejoin:round;">
</g>
<g style="fill:#000000; fill-opacity:1.0000; 
stroke:#000000; stroke-width:0.0000; stroke-opacity:1; 
stroke-linecap:round; stroke-linejoin:round;">
<circle cx="214.0022" cy="71.2000" r="0.4000" /> 
</g>
<g style="fill:#000000; fill-opacity:1.0000; 
stroke:#000000; stroke-width:0.0212; stroke-opacity:1; 
stroke-linecap:round; stroke-linejoin:round;">
</g>
<g style="fill:#000000; fill-opacity:1.0000; 
stroke:#000000; stroke-width:0.0000; stroke-opacity:1; 
stroke-linecap:round; stroke-linejoin:round;">
<circle cx="210.6022" cy="69.7500" r="0.4000" /> 
</g>
<g style="fill:#000000; fill-opacity:1.0000; 
stroke:#000000; stroke-width:0.0212; stroke-opacity:1; 
stroke-linecap:round; stroke-linejoin:round;">
</g>
<g style="fill:#000000; fill-opacity:1.0000; 
stroke:#000000; stroke-width:0.0000; stroke-opacity:1; 
stroke-linecap:round; stroke-linejoin:round;">
<circle cx="209.1022" cy="69.7500" r="0.4000" /> 
</g>
<g style="fill:#000000; fill-opacity:1.0000; 
stroke:#000000; stroke-width:0.0212; stroke-opacity:1; 
stroke-linecap:round; stroke-linejoin:round;">
</g>
<g style="fill:#000000; fill-opacity:1.0000; 
stroke:#000000; stroke-width:0.0000; stroke-opacity:1; 
stroke-linecap:round; stroke-linejoin:round;">
<circle cx="215.7522" cy="70.8000" r="0.4000" /> 
</g>
<g style="fill:#000000; fill-opacity:1.0000; 
stroke:#000000; stroke-width:0.0212; stroke-opacity:1; 
stroke-linecap:round; stroke-linejoin:round;">
</g>
<g style="fill:#000000; fill-opacity:1.0000; 
stroke:#000000; stroke-width:0.0000; stroke-opacity:1; 
stroke-linecap:round; stroke-linejoin:round;">
<circle cx="200.4522" cy="58.5000" r="0.4000" /> 
</g>
<g style="fill:#000000; fill-opacity:1.0000; 
stroke:#000000; stroke-width:0.0212; stroke-opacity:1; 
stroke-linecap:round; stroke-linejoin:round;">
</g>
<g style="fill:#000000; fill-opacity:1.0000; 
stroke:#000000; stroke-width:0.0000; stroke-opacity:1; 
stroke-linecap:round; stroke-linejoin:round;">
<circle cx="205.2022" cy="69.5000" r="0.4000" /> 
</g>
<g style="fill:#000000; fill-opacity:1.0000; 
stroke:#000000; stroke-width:0.0212; stroke-opacity:1; 
stroke-linecap:round; stroke-linejoin:round;">
</g>
<g style="fill:#000000; fill-opacity:1.0000; 
stroke:#000000; stroke-width:0.0000; stroke-opacity:1; 
stroke-linecap:round; stroke-linejoin:round;">
<circle cx="195.9522" cy="51.7500" r="0.4000" /> 
</g>
<g style="fill:#000000; fill-opacity:1.0000; 
stroke:#000000; stroke-width:0.0212; stroke-opacity:1; 
stroke-linecap:round; stroke-linejoin:round;">
</g>
<g style="fill:#000000; fill-opacity:1.0000; 
stroke:#000000; stroke-width:0.0000; stroke-opacity:1; 
stroke-linecap:round; stroke-linejoin:round;">
<circle cx="200.5022" cy="72.5500" r="0.4000" /> 
</g>
<g style="fill:#000000; fill-opacity:1.0000; 
stroke:#000000; stroke-width:0.0212; stroke-opacity:1; 
stroke-linecap:round; stroke-linejoin:round;">
</g>
<g style="fill:#000000; fill-opacity:1.0000; 
stroke:#000000; stroke-width:0.0000; stroke-opacity:1; 
stroke-linecap:round; stroke-linejoin:round;">
<circle cx="200.5022" cy="68.4000" r="0.4000" /> 
</g>
<g style="fill:#000000; fill-opacity:1.0000; 
stroke:#000000; stroke-width:0.0212; stroke-opacity:1; 
stroke-linecap:round; stroke-linejoin:round;">
</g>
<g style="fill:#000000; fill-opacity:1.0000; 
stroke:#000000; stroke-width:0.0000; stroke-opacity:1; 
stroke-linecap:round; stroke-linejoin:round;">
<circle cx="206.2022" cy="50.8500" r="0.4000" /> 
</g>
<g style="fill:#000000; fill-opacity:1.0000; 
stroke:#000000; stroke-width:0.0212; stroke-opacity:1; 
stroke-linecap:round; stroke-linejoin:round;">
</g>
<g style="fill:#000000; fill-opacity:1.0000; 
stroke:#000000; stroke-width:0.0000; stroke-opacity:1; 
stroke-linecap:round; stroke-linejoin:round;">
<circle cx="203.5522" cy="58.0500" r="0.4000" /> 
</g>
<g style="fill:#000000; fill-opacity:1.0000; 
stroke:#000000; stroke-width:0.0212; stroke-opacity:1; 
stroke-linecap:round; stroke-linejoin:round;">
</g>
<g style="fill:#000000; fill-opacity:1.0000; 
stroke:#000000; stroke-width:0.0000; stroke-opacity:1; 
stroke-linecap:round; stroke-linejoin:round;">
<circle cx="197.9622" cy="72.5400" r="0.4000" /> 
</g>
<g style="fill:#000000; fill-opacity:1.0000; 
stroke:#000000; stroke-width:0.0212; stroke-opacity:1; 
stroke-linecap:round; stroke-linejoin:round;">
</g>
<g style="fill:#000000; fill-opacity:1.0000; 
stroke:#000000; stroke-width:0.0000; stroke-opacity:1; 
stroke-linecap:round; stroke-linejoin:round;">
<circle cx="197.8022" cy="55.2000" r="0.4000" /> 
</g>
<g style="fill:#000000; fill-opacity:1.0000; 
stroke:#000000; stroke-width:0.0212; stroke-opacity:1; 
stroke-linecap:round; stroke-linejoin:round;">
</g>
<g style="fill:#000000; fill-opacity:1.0000; 
stroke:#000000; stroke-width:0.0000; stroke-opacity:1; 
stroke-linecap:round; stroke-linejoin:round;">
<circle cx="204.6022" cy="55.5000" r="0.4000" /> 
</g>
<g style="fill:#000000; fill-opacity:1.0000; 
stroke:#000000; stroke-width:0.0212; stroke-opacity:1; 
stroke-linecap:round; stroke-linejoin:round;">
</g>
<g style="fill:#000000; fill-opacity:1.0000; 
stroke:#000000; stroke-width:0.0000; stroke-opacity:1; 
stroke-linecap:round; stroke-linejoin:round;">
<circle cx="206.2022" cy="53.4000" r="0.4000" /> 
</g>
<g style="fill:#000000; fill-opacity:1.0000; 
stroke:#000000; stroke-width:0.0212; stroke-opacity:1; 
stroke-linecap:round; stroke-linejoin:round;">
</g>
<g style="fill:#000000; fill-opacity:1.0000; 
stroke:#000000; stroke-width:0.0000; stroke-opacity:1; 
stroke-linecap:round; stroke-linejoin:round;">
<circle cx="206.2022" cy="52.2000" r="0.4000" /> 
</g>
<g style="fill:#000000; fill-opacity:1.0000; 
stroke:#000000; stroke-width:0.0212; stroke-opacity:1; 
stroke-linecap:round; stroke-linejoin:round;">
</g>
<g >
</g>
<g style="fill:#000000; fill-opacity:1.0000; 
stroke:#000000; stroke-width:0.0212; stroke-opacity:1; 
stroke-linecap:round; stroke-linejoin:round;">
</g>
<g style="fill:#000000; fill-opacity:1.0000; 
stroke:#000000; stroke-width:0.2500; stroke-opacity:1; 
stroke-linecap:round; stroke-linejoin:round;">
</g>
<g style="fill:#000000; fill-opacity:0.0; 
stroke:#000000; stroke-width:0.2500; stroke-opacity:1; 
stroke-linecap:round; stroke-linejoin:round;">
<path d="M213.0022 71.1500
L213.9522 71.1500
" />
<path d="M211.5420 71.7460
L212.4062 71.7460
" />
<path d="M213.9522 71.1500
L214.0022 71.2000
" />
<path d="M212.4062 71.7460
L213.0022 71.1500
" />
<path d="M210.3482 71.7460
L210.6022 72.0000
" />
<path d="M209.6624 71.7460
L210.3482 71.7460
" />
</g>
<g style="fill:#000000; fill-opacity:0.0; 
stroke:#000000; stroke-width:0.6000; stroke-opacity:1; 
stroke-linecap:round; stroke-linejoin:round;">
<path d="M199.6272 54.7050
L199.6272 54.7750
" />
</g>
<g style="fill:#000000; fill-opacity:0.0; 
stroke:#000000; stroke-width:0.8000; stroke-opacity:1; 
stroke-linecap:round; stroke-linejoin:round;">
<path d="M197.9622 72.5400
L197.9622 70.5250
" />
</g>
<g style="fill:#000000; fill-opacity:0.0; 
stroke:#000000; stroke-width:0.6000; stroke-opacity:1; 
stroke-linecap:round; stroke-linejoin:round;">
<path d="M199.6272 54.7750
L199.2022 55.2000
" />
<path d="M199.2022 55.2000
L199.2022 56.4725
" />
<path d="M199.2022 55.2000
L197.8022 55.2000
" />
</g>
<g style="fill:#000000; fill-opacity:0.0; 
stroke:#000000; stroke-width:0.2500; stroke-opacity:1; 
stroke-linecap:round; stroke-linejoin:round;">
<path d="M204.5772 54.7050
L204.5772 55.4750
" />
<path d="M204.5772 55.4750
L204.6022 55.5000
" />
<path d="M206.1672 53.4350
L206.2022 53.4000
" />
<path d="M204.5772 53.4350
L206.1672 53.4350
" />
<path d="M204.5772 52.1650
L206.1672 52.1650
" />
<path d="M206.1672 52.1650
L206.2022 52.2000
" />
<path d="M199.6122 53.4500
L199.6272 53.4350
" />
<path d="M197.6022 53.4500
L199.6122 53.4500
" />
<path d="M200.5022 65.4800
L200.5022 60.6681
" />
<path d="M200.5022 60.6681
L201.6022 59.5681
" />
<path d="M201.6022 51.5000
L201.0022 50.9000
" />
<path d="M199.6322 50.9000
L199.6272 50.8950
" />
<path d="M201.6022 59.5681
L201.6022 51.5000
" />
<path d="M201.0022 50.9000
L199.6322 50.9000
" />
<path d="M211.5420 70.3802
L212.6222 69.3000
" />
<path d="M212.6222 69.3000
L212.9647 69.3000
" />
<path d="M211.5420 71.2380
L211.5420 70.3802
" />
<path d="M209.8972 71.0032
L209.8972 67.3000
" />
<path d="M210.0972 67.1000
L209.8972 67.3000
" />
<path d="M210.2522 67.1000
L210.0972 67.1000
" />
<path d="M209.6624 71.2380
L209.8972 71.0032
" />
<path d="M212.4062 72.2540
L213.0022 72.8500
" />
<path d="M211.5420 72.2540
L212.4062 72.2540
" />
<path d="M201.1722 59.3900
L197.9622 62.6000
" />
<path d="M199.6622 52.2000
L201.1722 52.2000
" />
<path d="M199.6272 52.1650
L199.6622 52.2000
" />
<path d="M201.1722 52.2000
L201.1722 59.3900
" />
<path d="M197.9622 62.6000
L197.9622 65.4800
" />
<path d="M209.6624 72.2540
L208.3022 72.2540
" />
<path d="M211.5420 72.7620
L211.2122 73.0918
" />
<path d="M211.2122 73.0918
L211.2122 73.4050
" />
<path d="M208.3022 67.8000
L207.6022 67.1000
" />
<path d="M211.2122 73.4050
L209.8072 73.4050
" />
<path d="M209.6624 72.2540
L209.6624 72.7620
" />
<path d="M209.6624 73.2602
L209.6624 72.7620
" />
<path d="M207.7902 72.7620
L207.6022 72.9500
" />
<path d="M207.0022 72.7625
L206.5397 72.3000
" />
<path d="M206.5397 72.3000
L204.8222 72.3000
" />
<path d="M209.8072 73.4050
L209.6624 73.2602
" />
<path d="M209.6624 72.7620
L207.7902 72.7620
" />
<path d="M208.3022 72.2540
L208.3022 67.8000
" />
<path d="M204.8222 72.3000
L203.0422 70.5200
" />
</g>
<g >
</g>
<g style="fill:#000000; fill-opacity:0.0; 
stroke:#000000; stroke-width:0.2500; stroke-opacity:1; 
stroke-linecap:round; stroke-linejoin:round;">
<g >
</g>
<g style="fill:#000000; fill-opacity:1.0000; 
stroke:#000000; stroke-width:0.0000; stroke-opacity:1; 
stroke-linecap:round; stroke-linejoin:round;">
<path style="fill:#000000; fill-opacity:1.0000; 
stroke:#000000; stroke-width:0.0000; stroke-opacity:1; 
stroke-linecap:round; stroke-linejoin:round;fill-rule:evenodd;"
d="M 205.2611,58.1197
205.2154,58.1725
205.2042,58.2259
205.2276,59.7250
205.2522,61.3000
202.0660,61.3000
201.9990,61.3197
201.9532,61.3725
201.9420,61.4238
201.9324,67.5758
201.9520,67.6429
202.0047,67.6887
202.0564,67.7000
205.2782,67.7000
205.3452,67.6803
205.3910,67.6275
205.4022,67.5760
205.4022,65.6050
203.7922,65.6050
203.7922,67.0046
203.7777,67.0775
203.7224,67.1602
203.6397,67.2155
203.5668,67.2300
203.1672,67.2300
203.1672,65.6050
202.9172,65.6050
202.9172,67.2300
202.5176,67.2300
202.4447,67.2155
202.3620,67.1602
202.3067,67.0775
202.2922,67.0046
202.2922,65.6050
202.9172,65.6050
203.1672,65.6050
203.7922,65.6050
205.4022,65.6050
205.4022,65.3550
203.7922,65.3550
203.7922,65.3550
203.1672,65.3550
203.1672,63.7300
202.9172,63.7300
202.9172,65.3550
202.2922,65.3550
202.2922,63.9554
202.3067,63.8825
202.3620,63.7998
202.4447,63.7445
202.5176,63.7300
202.9172,63.7300
203.1672,63.7300
203.5668,63.7300
203.6397,63.7445
203.7224,63.7998
203.7777,63.8825
203.7922,63.9554
203.7922,65.3550
205.4022,65.3550
205.4022,63.6000
208.0282,63.6000
208.0952,63.5803
208.1410,63.5275
208.1522,63.4760
208.1522,59.7250
207.5772,59.7250
207.5772,60.2945
207.5768,60.3011
207.5708,60.3574
207.5206,60.4921
207.4344,60.6072
207.3193,60.6934
207.1846,60.7436
207.1283,60.7496
207.1217,60.7500
206.7897,60.7500
206.7897,59.7250
206.5397,59.7250
206.5397,60.7500
206.2077,60.7500
206.2011,60.7496
206.1448,60.7436
206.0101,60.6934
205.8950,60.6072
205.8088,60.4921
205.7586,60.3574
205.7526,60.3011
205.7522,60.2945
205.7522,59.7250
206.5397,59.7250
206.7897,59.7250
207.5772,59.7250
208.1522,59.7250
208.1522,59.4750
207.5772,59.4750
206.7897,59.4750
206.7897,58.4500
206.5397,58.4500
206.5397,59.4750
205.7522,59.4750
205.7522,58.9055
205.7526,58.8989
205.7586,58.8426
205.8088,58.7079
205.8950,58.5928
206.0101,58.5066
206.1448,58.4564
206.2011,58.4504
206.2077,58.4500
206.5397,58.4500
206.7897,58.4500
207.1217,58.4500
207.1283,58.4504
207.1846,58.4564
207.3193,58.5066
207.4344,58.5928
207.5206,58.7079
207.5708,58.8426
207.5768,58.8989
207.5772,58.9055
207.5772,59.4750
208.1522,59.4750
208.1522,58.2240
208.1325,58.1570
208.0797,58.1112
208.0282,58.1000
205.3282,58.1000
Z" /> 
</g>
</g>
<g style="fill:#000000; fill-opacity:1.0000; 
stroke:#000000; stroke-width:0.0000; stroke-opacity:1; 
stroke-linecap:round; stroke-linejoin:round;">
<g >
<path style="fill:#000000; fill-opacity:1.0000; 
stroke:#000000; stroke-width:0.0000; stroke-opacity:1; 
stroke-linecap:round; stroke-linejoin:round;fill-rule:evenodd;"
d="M 195.9979,46.0009
195.9567,46.0045
195.8284,46.0171
195.8125,46.0200
195.7454,46.0380
195.7424,46.0388
195.6489,46.0672
195.6358,46.0722
195.5677,46.1040
195.5629,46.1064
195.4818,46.1497
195.4717,46.1559
195.4085,46.2002
195.4025,46.2047
195.3328,46.2619
195.3256,46.2685
195.2707,46.3234
195.2641,46.3306
195.2069,46.4003
195.2024,46.4063
195.1581,46.4695
195.1519,46.4796
195.1086,46.5607
195.1062,46.5655
195.0744,46.6336
195.0694,46.6467
195.0411,46.7401
195.0402,46.7432
195.0222,46.8103
195.0193,46.8262
195.0067,46.9546
195.0031,46.9957
195.0027,47.0043
195.0027,72.9957
195.0031,73.0043
195.0067,73.0454
195.0193,73.1738
195.0222,73.1897
195.0402,73.2568
195.0411,73.2599
195.0694,73.3533
195.0744,73.3664
195.1062,73.4345
195.1086,73.4393
195.1519,73.5204
195.1581,73.5305
195.2024,73.5937
195.2069,73.5997
195.2641,73.6694
195.2707,73.6766
195.3256,73.7315
195.3328,73.7381
195.4025,73.7953
195.4085,73.7998
195.4717,73.8441
195.4818,73.8503
195.5629,73.8936
195.5677,73.8960
195.6358,73.9278
195.6489,73.9328
195.7423,73.9611
195.7454,73.9620
195.8125,73.9800
195.8284,73.9829
195.9568,73.9955
195.9883,73.9983
195.9979,73.9991
196.0065,73.9995
229.9979,73.9995
230.0065,73.9991
230.0476,73.9955
230.1541,73.9850
230.1760,73.9829
230.1919,73.9800
230.2590,73.9620
230.2621,73.9611
230.3555,73.9328
230.3686,73.9278
230.4367,73.8960
230.4415,73.8936
230.5226,73.8503
230.5327,73.8441
230.5959,73.7998
230.6019,73.7953
230.6716,73.7381
230.6788,73.7315
230.7337,73.6766
230.7403,73.6694
230.7975,73.5997
230.8020,73.5937
230.8463,73.5305
230.8525,73.5204
230.8958,73.4393
230.8982,73.4345
230.9300,73.3664
230.9350,73.3533
230.9406,73.3350
230.9634,73.2598
230.9642,73.2569
230.9822,73.1897
230.9851,73.1738
230.9977,73.0455
231.0013,73.0043
231.0017,72.9957
231.0017,71.2000
214.6079,71.2000
214.5872,71.3568
214.5267,71.5028
214.4305,71.6283
214.3620,71.6808
214.3050,71.7245
214.1590,71.7850
214.0022,71.8057
213.8454,71.7850
213.7699,71.7537
213.7089,71.7489
213.6567,71.7809
213.6497,71.7902
213.6468,71.7946
213.6393,71.7995
213.5804,71.8389
213.5219,71.8505
212.8030,71.8505
212.7448,71.8694
212.7330,71.8795
212.6825,71.9300
212.6548,71.9845
212.6643,72.0449
212.6825,72.0700
212.7330,72.1205
212.7875,72.1483
212.8030,72.1495
213.5219,72.1495
213.5512,72.1553
213.5804,72.1611
213.6468,72.2054
213.6911,72.2718
213.6911,72.2718
213.6911,72.2718
213.7027,72.3303
213.7027,73.3697
213.6918,73.4244
213.6911,73.4282
213.6468,73.4946
213.6116,73.5180
213.5804,73.5389
213.5219,73.5505
213.5219,73.5505
212.4825,73.5505
212.4825,73.5505
212.4240,73.5389
212.3576,73.4946
212.3133,73.4282
212.3017,73.3697
212.3017,72.6785
212.2828,72.6203
212.2333,72.5843
212.2027,72.5795
212.1767,72.5795
212.1185,72.5984
212.0825,72.6479
212.0777,72.6785
212.0777,72.8947
212.0663,72.9521
212.0661,72.9532
212.0218,73.0196
211.9830,73.0454
211.9554,73.0639
211.8969,73.0755
211.7298,73.0755
211.6716,73.0944
211.6598,73.1045
211.5667,73.1976
211.5389,73.2521
211.5377,73.2676
211.5377,73.4624
211.5308,73.4814
211.5263,73.4981
211.5228,73.5180
211.5127,73.5356
211.5054,73.5512
211.4984,73.5703
211.4984,73.5703
211.4854,73.5858
211.4755,73.5999
211.4654,73.6175
211.4499,73.6305
211.4377,73.6427
211.4247,73.6582
211.4071,73.6683
211.3930,73.6782
211.3775,73.6912
211.3775,73.6912
211.3775,73.6912
211.3584,73.6982
211.3428,73.7055
211.3252,73.7156
211.3053,73.7191
211.2886,73.7236
211.2696,73.7305
211.2407,73.7305
209.8257,73.7305
209.8171,73.7309
209.8038,73.7320
209.7784,73.7343
209.7784,73.7343
209.7784,73.7343
209.7408,73.7242
209.7324,73.7223
209.6942,73.7156
209.6929,73.7148
209.6690,73.7049
209.6675,73.7046
209.6357,73.6823
209.6284,73.6776
209.5947,73.6582
209.5698,73.6284
209.5639,73.6221
209.4453,73.5035
209.4390,73.4976
209.4092,73.4727
209.3898,73.4390
209.3851,73.4317
209.3628,73.3999
209.3625,73.3984
209.3526,73.3745
209.3518,73.3732
209.3451,73.3349
209.3432,73.3266
209.3331,73.2890
209.3365,73.2503
209.3369,73.2417
209.3369,73.1865
209.3180,73.1283
209.2685,73.0923
209.2379,73.0875
208.1954,73.0875
208.1372,73.1064
208.1019,73.1538
208.0998,73.1597
208.0998,73.1597
208.0550,73.2879
207.9743,73.3971
207.8651,73.4778
207.7369,73.5226
207.7065,73.5255
207.7042,73.5255
206.3002,73.5255
206.2979,73.5255
206.2675,73.5226
206.1393,73.4778
206.0300,73.3971
205.9494,73.2879
205.9046,73.1597
205.9017,73.1293
205.9017,72.7245
205.8828,72.6663
205.8333,72.6303
205.8027,72.6255
204.8407,72.6255
204.8321,72.6259
204.8188,72.6270
204.7934,72.6293
204.7934,72.6293
204.7934,72.6293
204.7558,72.6192
204.7474,72.6173
204.7092,72.6106
204.7079,72.6098
204.6840,72.5999
204.6825,72.5996
204.6507,72.5773
204.6434,72.5726
204.6097,72.5532
204.5848,72.5234
204.5789,72.5171
203.9117,71.8498
203.8572,71.8221
203.7968,71.8316
203.7535,71.8749
203.7427,71.9198
203.7427,72.0397
203.7367,72.0700
203.7311,72.0982
203.6868,72.1646
203.6506,72.1887
203.6204,72.2089
203.5619,72.2205
203.5619,72.2205
202.5225,72.2205
202.5225,72.2205
202.4640,72.2089
202.3976,72.1646
202.3533,72.0982
202.3417,72.0397
202.3417,72.0397
201.2022,72.0397
201.1906,72.0980
201.1464,72.1642
201.0802,72.2084
201.0219,72.2200
200.6022,72.2200
200.6022,72.2200
200.4022,72.2200
200.4022,72.2200
199.9825,72.2200
199.9242,72.2084
199.8580,72.1642
199.8138,72.0980
199.8022,72.0397
198.6627,72.0397
198.6511,72.0982
198.6068,72.1646
198.6067,72.1646
198.5688,72.2126
198.5627,72.2469
198.5627,72.4941
198.5635,72.5071
198.5679,72.5400
198.5679,72.5400
198.5587,72.6098
198.5535,72.6490
198.5472,72.6968
198.4867,72.8428
198.3905,72.9683
198.2942,73.0421
198.2650,73.0645
198.1190,73.1250
197.9622,73.1457
197.8054,73.1250
197.6594,73.0645
197.5339,72.9683
197.4377,72.8428
197.3772,72.6968
197.3709,72.6490
197.3565,72.5400
197.3609,72.5071
197.3617,72.4941
197.3617,72.2469
197.3428,72.1887
197.3177,72.1646
197.3176,72.1646
197.2733,72.0982
197.2617,72.0397
197.2617,69.0003
197.2733,68.9418
197.2930,68.9124
197.3176,68.8754
197.3840,68.8311
197.3840,68.8311
197.4425,68.8195
198.4819,68.8195
198.5112,68.8253
198.5404,68.8311
198.6068,68.8754
198.6511,68.9418
198.6511,68.9418
198.6511,68.9418
198.6627,69.0003
198.6627,72.0397
199.8022,72.0397
199.8022,72.0397
199.8022,70.6200
199.8022,70.6200
200.4022,70.6200
200.4022,70.6200
200.4022,72.2200
200.6022,72.2200
200.6022,70.6200
201.2022,70.6200
201.2022,70.6200
201.2022,72.0397
202.3417,72.0397
202.3417,70.4200
201.2022,70.4200
201.2022,70.4200
200.6022,70.4200
200.6022,70.4200
200.4022,70.4200
200.4022,70.4200
199.8022,70.4200
199.8022,70.4200
199.8022,69.0003
199.8138,68.9420
199.8580,68.8758
199.9242,68.8316
199.9825,68.8200
200.4022,68.8200
200.4022,68.8200
200.4022,70.4200
200.6022,70.4200
200.6022,68.8200
201.0219,68.8200
201.0802,68.8316
201.1464,68.8758
201.1906,68.9420
201.2022,69.0003
201.2022,70.4200
202.3417,70.4200
202.3417,69.0003
202.3533,68.9418
202.3730,68.9124
202.3976,68.8754
202.4640,68.8311
202.4640,68.8311
202.5225,68.8195
203.5619,68.8195
203.5912,68.8253
203.6204,68.8311
203.6868,68.8754
203.7311,68.9418
203.7427,69.0003
203.7427,70.7192
203.7616,70.7774
203.7717,70.7892
204.9280,71.9455
204.9825,71.9733
204.9980,71.9745
205.9456,71.9745
206.0038,71.9556
206.0253,71.9343
206.0300,71.9278
206.1393,71.8472
206.2675,71.8024
206.2675,71.8024
206.2675,71.8024
206.2956,71.7997
206.2956,71.7997
206.2979,71.7995
207.7065,71.7995
207.7088,71.7997
207.7088,71.7997
207.7369,71.8024
207.8450,71.8402
207.9062,71.8416
207.9565,71.8067
207.9767,71.7490
207.9767,71.7467
207.9767,70.4527
207.9578,70.3945
207.9083,70.3586
207.8471,70.3586
207.8450,70.3593
207.7368,70.3971
207.7087,70.3998
207.7041,70.4000
207.1022,70.4000
207.1022,70.4000
206.9022,70.4000
206.9022,70.4000
206.3003,70.4000
206.2957,70.3998
206.2676,70.3971
206.1396,70.3523
206.0304,70.2718
205.9499,70.1626
205.9051,70.0346
205.9024,70.0065
205.9022,70.0019
205.9022,69.6375
205.9022,69.6375
206.9022,69.6375
206.9022,69.6375
206.9022,70.4000
207.1022,70.4000
207.1022,69.4375
206.9022,69.4375
206.9022,69.4375
205.9022,69.4375
205.9022,69.4375
205.9022,69.0731
205.9024,69.0685
205.9051,69.0404
205.9499,68.9124
206.0304,68.8032
206.1396,68.7227
206.2676,68.6778
206.2957,68.6752
206.3003,68.6750
206.9022,68.6750
206.9022,68.6750
206.9022,69.4375
207.1022,69.4375
207.1022,68.6750
207.7041,68.6750
207.7087,68.6752
207.7368,68.6779
207.8450,68.7157
207.9062,68.7171
207.9565,68.6822
207.9767,68.6245
207.9767,68.6223
207.9767,68.4084
207.9578,68.3502
207.9083,68.3143
207.8777,68.3094
207.4640,68.3094
207.4547,68.3103
207.4522,68.3098
207.4522,68.3098
207.3740,68.2943
207.3722,68.2935
207.3703,68.2928
207.3701,68.2927
207.3701,68.2927
207.3038,68.2484
207.2595,68.1821
207.2584,68.1793
207.2579,68.1783
207.2579,68.1783
207.2424,68.1000
207.2424,68.1000
207.2419,68.0975
207.2428,68.0882
207.2428,67.9084
207.2239,67.8502
207.1744,67.8143
207.1438,67.8094
206.3640,67.8094
206.3547,67.8103
206.3522,67.8098
206.3522,67.8098
206.2740,67.7943
206.2722,67.7935
206.2703,67.7928
206.2701,67.7927
206.2701,67.7927
206.2038,67.7484
206.1595,67.6821
206.1584,67.6793
206.1579,67.6783
206.1579,67.6783
206.1424,67.6000
206.1424,67.6000
206.1419,67.5975
206.1428,67.5882
206.1428,66.6118
206.1419,66.6025
206.1424,66.6000
206.1424,66.6000
206.1579,66.5218
206.1587,66.5200
206.1594,66.5181
206.1595,66.5179
206.1595,66.5179
206.2038,66.4516
206.2038,66.4516
206.2038,66.4516
206.2701,66.4073
206.2701,66.4073
206.2701,66.4073
206.2730,66.4061
206.2740,66.4057
206.2740,66.4057
206.2740,66.4057
206.3547,66.3897
206.3640,66.3906
207.1438,66.3906
207.2020,66.3717
207.2379,66.3222
207.2428,66.2916
207.2428,66.1118
207.2419,66.1025
207.2424,66.1000
207.2424,66.1000
207.2579,66.0218
207.2587,66.0200
207.2594,66.0181
207.2595,66.0179
207.2595,66.0179
207.3038,65.9516
207.3038,65.9516
207.3038,65.9516
207.3701,65.9073
207.3701,65.9073
207.3701,65.9073
207.3730,65.9061
207.3740,65.9057
207.3740,65.9057
207.3740,65.9057
207.4547,65.8897
207.4640,65.8906
208.4404,65.8906
208.4496,65.8897
208.5304,65.9057
208.5314,65.9061
208.5342,65.9073
208.5343,65.9073
208.6006,65.9516
208.6449,66.0179
208.6465,66.0218
208.6625,66.1025
208.6616,66.1118
208.6616,68.0882
208.6625,68.0975
208.6465,68.1783
208.6461,68.1793
208.6461,68.1793
208.6460,68.1793
208.6449,68.1821
208.6449,68.1821
208.6444,68.1828
208.6440,68.1840
208.6416,68.1894
208.6423,68.1897
208.6277,68.2378
208.6277,71.8295
208.6466,71.8877
208.6961,71.9237
208.7267,71.9285
209.0282,71.9285
209.0864,71.9096
209.1224,71.8601
209.1233,71.8539
209.1272,71.8500
209.6782,71.8500
209.7364,71.8311
209.7724,71.7816
209.7772,71.7510
209.7772,71.7490
209.7583,71.6908
209.7088,71.6548
209.6782,71.6500
209.1272,71.6500
209.1272,71.6500
209.1272,71.6053
209.1426,71.5276
209.1411,71.5273
209.1497,71.4966
209.1420,71.4726
209.1422,71.4725
209.1383,71.4532
209.1267,71.3947
209.1267,71.1053
209.1383,71.0468
209.1530,71.0248
209.1826,70.9804
209.2490,70.9361
209.2572,70.9345
209.3075,70.9245
209.3075,70.9245
209.4727,70.9245
209.5309,70.9056
209.5669,70.8561
209.5717,70.8255
209.5717,68.2303
209.5602,68.1923
209.5632,68.1911
209.5584,68.1793
209.5579,68.1783
209.5579,68.1783
209.5579,68.1783
209.5424,68.1000
209.5424,68.1000
209.5419,68.0975
209.5428,68.0882
209.5428,66.1118
209.5419,66.1025
209.5424,66.1000
209.5424,66.1000
209.5579,66.0218
209.5587,66.0200
209.5594,66.0181
209.5595,66.0179
209.5595,66.0179
209.6038,65.9516
209.6038,65.9516
209.6038,65.9516
209.6701,65.9073
209.6701,65.9073
209.6701,65.9073
209.6730,65.9061
209.6740,65.9057
209.6740,65.9057
209.6740,65.9057
209.7547,65.8897
209.7640,65.8906
210.7404,65.8906
210.7496,65.8897
210.8304,65.9057
210.8314,65.9061
210.8342,65.9073
210.8343,65.9073
210.9006,65.9516
210.9449,66.0179
210.9465,66.0218
210.9625,66.1025
210.9616,66.1118
210.9616,66.2916
210.9805,66.3498
211.0300,66.3857
211.0606,66.3906
211.8404,66.3906
211.8496,66.3897
211.9304,66.4057
211.9314,66.4061
211.9342,66.4073
211.9343,66.4073
212.0006,66.4516
212.0449,66.5179
212.0465,66.5218
212.0625,66.6025
212.0616,66.6118
212.0616,67.5882
212.0625,67.5975
212.0465,67.6783
212.0460,67.6793
212.0460,67.6793
212.0460,67.6793
212.0449,67.6821
212.0449,67.6821
212.0006,67.7484
211.9342,67.7927
211.9304,67.7943
211.8522,67.8098
211.8522,67.8098
211.8497,67.8103
211.8404,67.8094
211.0606,67.8094
211.0024,67.8283
210.9665,67.8778
210.9616,67.9084
210.9616,68.0882
210.9625,68.0975
210.9465,68.1783
210.9460,68.1793
210.9460,68.1793
210.9460,68.1793
210.9449,68.1821
210.9449,68.1821
210.9006,68.2484
210.8342,68.2927
210.8304,68.2943
210.7522,68.3098
210.7522,68.3098
210.7497,68.3103
210.7404,68.3094
210.3217,68.3094
210.2635,68.3283
210.2275,68.3778
210.2227,68.4084
210.2227,70.6010
210.2416,70.6592
210.2911,70.6952
210.3217,70.7000
210.5022,70.7000
210.5022,70.7000
210.5022,72.0010
210.5211,72.0592
210.5706,72.0952
210.6012,72.1000
210.6032,72.1000
210.6614,72.0811
210.6974,72.0316
210.7022,72.0010
210.7022,70.7000
210.7022,70.7000
210.9269,70.7000
210.9852,70.7116
211.0625,70.7632
211.1214,70.7798
211.1788,70.7587
211.2128,70.7078
211.2165,70.6809
211.2165,70.3987
211.2161,70.3901
211.2127,70.3514
211.2228,70.3139
211.2247,70.3054
211.2306,70.2718
211.2314,70.2672
211.2322,70.2658
211.2421,70.2420
211.2424,70.2405
211.2647,70.2087
211.2694,70.2014
211.2888,70.1677
211.3186,70.1428
211.3249,70.1369
212.2477,69.2142
212.2755,69.1597
212.2767,69.1442
212.2767,68.7730
212.2767,68.7707
212.2796,68.7403
212.3244,68.6121
212.4050,68.5028
212.5143,68.4222
212.6425,68.3774
212.6425,68.3774
212.6425,68.3774
212.6706,68.3747
212.6706,68.3747
212.6729,68.3745
213.4565,68.3745
213.4588,68.3747
213.4588,68.3747
213.4869,68.3774
213.4869,68.3774
213.4869,68.3774
213.6151,68.4222
213.6151,68.4222
213.6151,68.4222
213.6157,68.4227
213.7243,68.5028
213.8050,68.6121
213.8280,68.6779
213.8498,68.7403
213.8525,68.7684
213.8525,68.7684
213.8527,68.7707
213.8527,69.8293
213.8525,69.8316
213.8525,69.8316
213.8498,69.8597
213.8498,69.8597
213.8498,69.8597
213.8050,69.9879
213.7243,70.0971
213.6151,70.1778
213.4869,70.2226
213.4565,70.2255
213.4542,70.2255
212.6752,70.2255
212.6729,70.2255
212.6425,70.2226
212.5143,70.1778
212.4050,70.0971
212.4050,70.0971
212.4047,70.0969
212.3467,70.0776
212.2884,70.0961
212.2760,70.1066
211.8965,70.4860
211.8687,70.5405
211.8675,70.5560
211.8675,70.8374
211.8864,70.8956
211.9359,70.9316
211.9472,70.9345
211.9516,70.9354
211.9554,70.9361
212.0218,70.9804
212.0661,71.0468
212.0777,71.1053
212.0777,71.3215
212.0966,71.3797
212.1461,71.4157
212.1767,71.4205
212.2027,71.4205
212.2609,71.4016
212.2969,71.3521
212.3017,71.3215
212.3017,70.6303
212.3025,70.6260
212.3133,70.5718
212.3512,70.5150
212.3576,70.5054
212.4240,70.4611
212.4662,70.4527
212.4825,70.4495
213.5219,70.4495
213.5382,70.4527
213.5804,70.4611
213.6468,70.5054
213.7020,70.5881
213.7500,70.6260
213.8112,70.6284
213.8222,70.6246
213.8454,70.6150
214.0022,70.5943
214.1590,70.6150
214.3050,70.6755
214.4305,70.7717
214.5267,70.8972
214.5872,71.0432
214.6079,71.2000
231.0017,71.2000
231.0017,69.8269
215.9272,69.8269
215.9270,69.8315
215.9243,69.8596
215.8795,69.9876
215.7990,70.0968
215.6898,70.1773
215.5618,70.2221
215.5337,70.2248
215.5291,70.2250
215.2397,70.2250
215.2397,70.2250
215.0397,70.2250
215.0397,70.2250
214.7503,70.2250
214.7457,70.2248
214.7176,70.2221
214.5896,70.1773
214.4804,70.0968
214.3999,69.9876
214.3551,69.8596
214.3524,69.8315
214.3522,69.8269
214.3522,69.4000
214.3522,69.4000
215.0397,69.4000
215.0397,69.4000
215.0397,70.2250
215.2397,70.2250
215.2397,69.4000
215.2397,69.4000
215.9272,69.4000
215.9272,69.4000
215.9272,69.8269
231.0017,69.8269
231.0017,69.2000
215.9272,69.2000
215.9272,69.2000
215.2397,69.2000
215.2397,69.2000
215.0397,69.2000
215.0397,69.2000
214.3522,69.2000
214.3522,69.2000
214.3522,68.7731
214.3524,68.7685
214.3551,68.7404
214.3999,68.6124
214.4804,68.5032
214.5896,68.4227
214.7176,68.3778
214.7457,68.3752
214.7503,68.3750
215.0397,68.3750
215.0397,68.3750
215.0397,69.2000
215.2397,69.2000
215.2397,68.3750
215.2397,68.3750
215.5291,68.3750
215.5337,68.3752
215.5618,68.3779
215.6898,68.4227
215.7990,68.5032
215.8795,68.6124
215.9244,68.7404
215.9270,68.7685
215.9272,68.7731
215.9272,69.2000
231.0017,69.2000
231.0017,60.0000
223.1077,60.0000
223.1076,60.0020
223.0953,60.3065
223.0879,60.4913
223.0876,60.4933
223.0288,60.9774
223.0288,60.9774
223.0286,60.9794
223.0282,60.9813
223.0282,60.9814
222.9374,61.4261
222.9302,61.4611
222.9297,61.4630
222.9297,61.4631
222.7940,61.9315
222.7934,61.9334
222.7927,61.9353
222.7927,61.9353
222.6329,62.3567
222.6191,62.3931
222.6182,62.3949
222.6182,62.3949
222.4092,62.8356
222.4092,62.8356
222.4083,62.8373
222.4073,62.8391
222.4073,62.8391
222.1643,63.2600
222.1625,63.2632
222.1613,63.2648
221.8856,63.6642
221.8832,63.6678
221.8819,63.6693
221.8819,63.6693
221.6444,63.9603
221.5722,64.0487
221.2316,64.4033
220.8636,64.7293
220.8620,64.7305
220.8620,64.7305
220.4721,65.0235
220.4721,65.0235
220.4705,65.0247
220.0549,65.2875
219.6196,65.5160
219.1672,65.7087
218.7008,65.8644
218.2234,65.9821
217.7381,66.0609
217.2480,66.1005
217.2460,66.1005
216.7584,66.1005
216.7564,66.1005
216.2663,66.0609
215.7810,65.9821
215.3036,65.8644
214.8372,65.7087
214.3848,65.5160
213.9495,65.2875
213.5339,65.0247
213.1408,64.7293
212.7728,64.4033
212.4322,64.0487
212.1212,63.6678
211.9888,63.4760
208.4077,63.4760
208.4074,63.4786
208.4074,63.4786
208.4021,63.5277
208.4019,63.5303
208.4013,63.5329
208.4013,63.5329
208.3909,63.5805
208.3909,63.5805
208.3907,63.5818
208.3903,63.5831
208.3903,63.5831
208.3834,63.6082
208.3486,63.6693
208.3341,63.6948
208.2883,63.7476
208.2556,63.7793
208.1672,63.8255
208.1002,63.8451
208.1002,63.8451
208.0282,63.8555
208.0282,63.8555
205.7567,63.8555
205.6985,63.8744
205.6625,63.9239
205.6577,63.9545
205.6577,67.5734
205.6577,67.5734
205.6577,67.5760
205.6574,67.5786
205.6574,67.5786
205.6551,67.6000
205.6519,67.6303
205.6513,67.6329
205.6513,67.6329
205.6409,67.6805
205.6409,67.6805
205.6407,67.6818
205.6403,67.6831
205.6403,67.6831
205.6334,67.7082
205.5844,67.7943
205.5841,67.7948
205.5383,67.8476
205.5056,67.8793
205.4172,67.9255
205.3502,67.9451
205.3502,67.9451
205.2782,67.9555
205.2782,67.9555
202.0590,67.9555
202.0564,67.9555
202.0019,67.9496
201.9502,67.9383
201.9236,67.9310
201.8841,67.9084
201.8371,67.8815
201.8371,67.8815
201.8371,67.8815
201.7844,67.8357
201.7528,67.8029
201.7067,67.7145
201.6871,67.6474
201.6769,67.5754
201.6865,61.4234
201.6924,61.3693
201.7036,61.3180
201.7108,61.2918
201.7601,61.2052
201.8059,61.1524
201.8386,61.1207
201.9270,61.0745
201.9270,61.0745
201.9940,61.0548
202.0660,61.0445
202.0660,61.0445
204.8921,61.0445
204.9503,61.0256
204.9863,60.9761
204.9911,60.9440
204.9717,59.7000
204.4022,59.7000
204.4022,60.3019
204.4020,60.3065
204.3993,60.3346
204.3545,60.4626
204.2740,60.5718
204.1648,60.6523
204.0368,60.6971
204.0087,60.6998
204.0041,60.7000
203.6397,60.7000
203.6397,60.7000
203.4397,60.7000
203.4397,60.7000
203.0753,60.7000
203.0707,60.6998
203.0426,60.6971
202.9146,60.6523
202.8054,60.5718
202.7249,60.4626
202.6801,60.3346
202.6774,60.3065
202.6772,60.3019
202.6772,59.7000
202.6772,59.7000
203.4397,59.7000
203.4397,59.7000
203.4397,60.7000
203.6397,60.7000
203.6397,60.7000
203.6397,59.7000
203.6397,59.7000
204.4022,59.7000
204.9717,59.7000
204.9716,59.6937
204.9701,59.5969
201.9315,59.5969
201.9214,59.6345
201.9195,59.6429
201.9128,59.6812
201.9128,59.6812
201.9120,59.6825
201.9021,59.7063
201.9018,59.7078
201.8795,59.7396
201.8748,59.7469
201.8554,59.7806
201.8554,59.7806
201.8554,59.7806
201.8256,59.8056
201.8193,59.8114
200.8567,60.7739
200.8289,60.8285
200.8277,60.8439
200.8277,63.6805
200.8466,63.7387
200.8961,63.7747
200.9267,63.7795
201.0219,63.7795
201.0512,63.7853
201.0804,63.7911
201.1468,63.8354
201.1911,63.9018
201.2027,63.9603
201.2027,66.9997
201.1911,67.0582
201.1468,67.1246
201.1024,67.1542
201.0804,67.1689
201.0219,67.1805
201.0219,67.1805
199.9825,67.1805
199.9825,67.1805
199.9240,67.1689
199.8576,67.1246
199.8133,67.0582
199.8017,66.9997
199.8017,63.9603
199.8133,63.9018
199.8512,63.8451
199.8576,63.8354
199.9240,63.7911
199.9240,63.7911
199.9825,63.7795
199.9825,63.7795
200.0777,63.7795
200.1359,63.7606
200.1719,63.7111
200.1767,63.6805
200.1767,61.0848
200.1578,61.0266
200.1083,60.9907
200.0471,60.9907
200.0077,61.0148
199.0910,61.9315
198.3167,62.7058
198.2889,62.7603
198.2877,62.7758
198.2877,63.6805
198.3066,63.7387
198.3561,63.7747
198.3867,63.7795
198.4819,63.7795
198.5112,63.7853
198.5404,63.7911
198.6068,63.8354
198.6511,63.9018
198.6627,63.9603
198.6627,66.9997
198.6511,67.0582
198.6068,67.1246
198.5624,67.1542
198.5404,67.1689
198.4819,67.1805
198.4819,67.1805
197.4425,67.1805
197.4425,67.1805
197.3840,67.1689
197.3176,67.1246
197.2733,67.0582
197.2617,66.9997
197.2617,63.9603
197.2733,63.9018
197.3112,63.8451
197.3176,63.8354
197.3840,63.7911
197.3840,63.7911
197.4425,63.7795
197.4425,63.7795
197.5377,63.7795
197.5959,63.7606
197.6319,63.7111
197.6367,63.6805
197.6367,62.6185
197.6363,62.6099
197.6329,62.5712
197.6430,62.5337
197.6449,62.5252
197.6459,62.5195
197.6516,62.4870
197.6524,62.4856
197.6623,62.4618
197.6623,62.4618
197.6626,62.4603
197.6849,62.4285
197.6896,62.4212
197.7090,62.3875
197.7388,62.3626
197.7451,62.3567
200.8177,59.2842
200.8455,59.2297
200.8467,59.2142
200.8467,58.6375
200.1272,58.6375
200.1272,58.9269
200.1270,58.9315
200.1243,58.9596
200.0795,59.0876
199.9990,59.1968
199.8898,59.2773
199.7618,59.3221
199.7337,59.3248
199.7291,59.3250
199.3022,59.3250
199.3022,59.3250
199.3022,58.6375
199.1022,58.6375
199.1022,59.3250
199.1022,59.3250
198.6753,59.3250
198.6707,59.3248
198.6426,59.3221
198.5146,59.2773
198.4054,59.1968
198.3249,59.0876
198.2801,58.9596
198.2774,58.9315
198.2772,58.9269
198.2772,58.6375
198.2772,58.6375
199.1022,58.6375
199.3022,58.6375
200.1272,58.6375
200.8467,58.6375
200.8467,58.4375
200.1272,58.4375
200.1272,58.4375
199.3022,58.4375
199.3022,58.4375
199.1022,58.4375
199.1022,58.4375
198.2772,58.4375
198.2772,58.4375
198.2772,58.1481
198.2774,58.1435
198.2801,58.1154
198.3249,57.9874
198.4054,57.8782
198.5146,57.7977
198.6426,57.7528
198.6707,57.7502
198.6753,57.7500
199.1022,57.7500
199.1022,57.7500
199.1022,58.4375
199.3022,58.4375
199.3022,57.7500
199.3022,57.7500
199.7291,57.7500
199.7337,57.7502
199.7618,57.7529
199.8898,57.7977
199.9990,57.8782
200.0795,57.9874
200.1243,58.1154
200.1270,58.1435
200.1272,58.1481
200.1272,58.4375
200.8467,58.4375
200.8467,55.1952
200.8278,55.1370
200.7783,55.1010
200.7171,55.1010
200.6777,55.1252
200.6587,55.1442
200.5536,55.1956
200.4855,55.2055
199.9455,55.2055
199.8873,55.2244
199.8755,55.2345
199.7317,55.3783
199.7039,55.4328
199.7027,55.4483
199.7027,55.5864
199.7216,55.6446
199.7690,55.6798
199.8901,55.7222
199.9993,55.8028
200.0800,55.9121
200.1248,56.0403
200.1275,56.0684
200.1275,56.0684
200.1277,56.0707
200.1277,56.8543
200.1275,56.8566
200.1275,56.8566
200.1248,56.8847
200.1248,56.8847
200.1248,56.8847
200.0800,57.0129
199.9993,57.1221
199.8901,57.2028
199.7619,57.2476
199.7315,57.2505
199.7292,57.2505
198.6752,57.2505
198.6729,57.2505
198.6425,57.2476
198.5143,57.2028
198.4050,57.1221
198.3244,57.0129
198.2796,56.8847
198.2767,56.8543
198.2767,56.0707
198.2796,56.0403
198.3244,55.9121
198.3641,55.8583
198.3835,55.8002
198.3650,55.7419
198.3158,55.7056
198.2845,55.7005
198.1700,55.7005
198.1118,55.7194
198.1097,55.7209
198.1050,55.7245
197.9590,55.7850
197.8022,55.8057
197.6454,55.7850
197.4994,55.7245
197.3739,55.6283
197.2777,55.5028
197.2172,55.3568
197.1965,55.2000
197.2172,55.0432
197.2777,54.8972
197.3001,54.8680
197.3739,54.7717
197.4994,54.6755
197.6454,54.6150
197.8022,54.5943
197.9590,54.6150
198.1050,54.6755
198.1050,54.6755
198.1050,54.6755
198.1097,54.6790
198.1674,54.6995
198.1700,54.6995
198.3527,54.6995
198.4109,54.6806
198.4469,54.6311
198.4517,54.6005
198.4517,54.5217
198.4517,54.5217
198.4616,54.4536
198.5130,54.3485
198.5957,54.2658
198.7008,54.2144
198.7689,54.2045
200.4855,54.2045
200.5366,54.2119
200.5536,54.2144
200.6587,54.2658
200.6777,54.2848
200.7322,54.3126
200.7926,54.3030
200.8359,54.2598
200.8467,54.2148
200.8467,53.9252
200.8278,53.8670
200.7783,53.8310
200.7171,53.8310
200.6777,53.8552
200.6587,53.8742
200.5536,53.9256
200.4855,53.9355
200.4855,53.9355
198.7689,53.9355
198.7689,53.9355
198.7008,53.9256
198.5957,53.8742
198.5260,53.8045
198.4715,53.7767
198.4560,53.7755
198.0017,53.7755
197.9435,53.7944
197.9075,53.8439
197.9027,53.8745
197.9027,53.9697
197.8911,54.0282
197.8468,54.0946
197.8024,54.1242
197.7804,54.1389
197.7219,54.1505
197.7219,54.1505
196.6825,54.1505
196.6825,54.1505
196.6240,54.1389
196.5576,54.0946
196.5133,54.0282
196.5017,53.9697
196.5017,52.9303
196.5133,52.8718
196.5280,52.8498
196.5576,52.8054
196.6240,52.7611
196.6240,52.7611
196.6825,52.7495
197.7219,52.7495
197.7512,52.7553
197.7804,52.7611
197.8468,52.8054
197.8911,52.8718
197.9027,52.9303
197.9027,53.0255
197.9216,53.0837
197.9711,53.1197
198.0017,53.1245
198.4287,53.1245
198.4869,53.1056
198.5005,53.0894
198.5013,53.0902
198.5130,53.0785
198.5130,53.0785
198.5957,52.9958
198.7008,52.9444
198.7689,52.9345
200.4855,52.9345
200.5366,52.9419
200.5536,52.9444
200.6587,52.9958
200.6587,52.9958
200.6587,52.9958
200.6777,53.0148
200.7322,53.0426
200.7926,53.0330
200.8359,52.9898
200.8467,52.9448
200.8467,52.6552
200.8278,52.5970
200.7783,52.5610
200.7171,52.5610
200.6777,52.5852
200.6587,52.6042
200.5536,52.6556
200.4855,52.6655
200.4855,52.6655
198.7689,52.6655
198.7689,52.6655
198.7008,52.6556
198.5957,52.6042
198.5130,52.5215
198.4616,52.4164
198.4517,52.3483
198.4517,51.9817
198.4616,51.9136
198.4927,51.8500
197.9022,51.8500
197.9022,52.2697
197.8906,52.3280
197.8464,52.3942
197.7802,52.4384
197.7219,52.4500
197.3022,52.4500
197.3022,52.4500
197.3022,51.8500
197.3022,51.8500
197.1022,51.8500
197.1022,52.4500
197.1022,52.4500
196.6825,52.4500
196.6242,52.4384
196.5580,52.3942
196.5138,52.3280
196.5022,52.2697
196.5022,51.8500
196.5022,51.8500
197.1022,51.8500
197.3022,51.8500
197.9022,51.8500
197.9022,51.8500
198.4927,51.8500
198.5130,51.8085
198.5957,51.7258
198.7008,51.6744
198.7689,51.6645
200.4855,51.6645
200.5366,51.6719
200.5536,51.6744
200.6587,51.7258
200.6587,51.7258
200.7414,51.8085
200.7465,51.8190
200.7891,51.8630
200.8355,51.8745
201.1777,51.8745
201.2359,51.8556
201.2719,51.8061
201.2767,51.7755
201.2767,51.6758
201.2683,51.6500
197.9022,51.6500
197.9022,51.6500
197.3022,51.6500
197.3022,51.6500
197.1022,51.6500
197.1022,51.6500
196.5022,51.6500
196.5022,51.6500
196.5022,51.2303
196.5138,51.1720
196.5580,51.1058
196.6242,51.0616
196.6825,51.0500
197.1022,51.0500
197.1022,51.0500
197.1022,51.6500
197.3022,51.6500
197.3022,51.6500
197.3022,51.0500
197.3022,51.0500
197.7219,51.0500
197.7802,51.0616
197.8464,51.1058
197.8906,51.1720
197.9022,51.2303
197.9022,51.6500
201.2683,51.6500
201.2578,51.6176
201.2477,51.6058
200.8964,51.2545
200.8419,51.2267
200.8264,51.2255
200.8084,51.2255
200.7502,51.2444
200.7384,51.2545
200.6587,51.3342
200.5536,51.3856
200.4855,51.3955
200.4855,51.3955
198.7689,51.3955
198.7689,51.3955
198.7008,51.3856
198.5957,51.3342
198.5130,51.2515
198.4616,51.1464
198.4517,51.0783
198.4517,50.7117
198.4616,50.6436
198.5130,50.5385
198.5957,50.4558
198.7008,50.4044
198.7689,50.3945
200.4855,50.3945
200.5366,50.4019
200.5536,50.4044
200.6587,50.4558
200.6587,50.4558
200.6587,50.4558
200.7414,50.5385
200.7414,50.5385
200.7484,50.5455
200.8029,50.5733
200.8184,50.5745
200.9837,50.5745
200.9923,50.5741
200.9942,50.5740
201.0310,50.5707
201.0685,50.5808
201.0770,50.5827
201.1152,50.5894
201.1166,50.5902
201.1404,50.6001
201.1419,50.6004
201.1737,50.6227
201.1810,50.6274
201.2147,50.6468
201.2396,50.6766
201.2455,50.6829
201.8193,51.2567
201.8256,51.2626
201.8554,51.2875
201.8748,51.3212
201.8795,51.3285
201.9018,51.3603
201.9021,51.3618
201.9120,51.3856
201.9128,51.3870
201.9195,51.4252
201.9214,51.4336
201.9315,51.4712
201.9281,51.5099
201.9277,51.5185
201.9277,59.5496
201.9281,59.5582
201.9315,59.5969
204.9701,59.5969
204.9685,59.5000
204.4022,59.5000
204.4022,59.5000
203.6397,59.5000
203.6397,59.5000
203.6397,58.5000
203.6397,58.5000
203.4397,58.5000
203.4397,59.5000
203.4397,59.5000
202.6772,59.5000
202.6772,59.5000
202.6772,58.8981
202.6774,58.8935
202.6801,58.8654
202.7249,58.7374
202.8054,58.6282
202.9146,58.5477
203.0426,58.5028
203.0707,58.5002
203.0753,58.5000
203.4397,58.5000
203.6397,58.5000
204.0041,58.5000
204.0087,58.5002
204.0368,58.5029
204.1648,58.5477
204.2740,58.6282
204.3545,58.7374
204.3993,58.8654
204.4020,58.8935
204.4022,58.8981
204.4022,59.5000
204.9685,59.5000
204.9487,58.2299
204.9541,58.1736
204.9653,58.1201
204.9729,58.0918
205.0223,58.0052
205.0680,57.9524
205.1008,57.9207
205.1891,57.8745
205.1891,57.8745
205.2562,57.8548
205.3281,57.8445
205.3282,57.8445
208.0282,57.8445
208.0308,57.8448
208.0308,57.8448
208.0799,57.8501
208.0799,57.8501
208.0825,57.8503
208.0851,57.8509
208.0851,57.8509
208.1327,57.8613
208.1328,57.8613
208.1340,57.8615
208.1353,57.8619
208.1353,57.8619
208.1548,57.8672
208.1604,57.8688
208.1604,57.8688
208.1604,57.8688
208.2470,57.9181
208.2982,57.9624
208.2982,57.9624
208.2998,57.9639
208.3014,57.9654
208.3014,57.9655
208.3315,57.9966
208.3777,58.0850
208.3974,58.1520
208.4077,58.2240
208.4077,58.2240
208.4077,59.2195
208.4077,59.9805
208.4077,63.4760
211.9888,63.4760
211.8419,63.2632
211.5961,62.8373
211.3853,62.3931
211.2110,61.9334
211.0742,61.4611
210.9758,60.9794
210.9165,60.4913
210.8967,60.0000
210.9165,59.5087
210.9758,59.0206
211.0742,58.5389
211.2110,58.0666
211.3853,57.6069
211.5770,57.2028
211.5952,57.1644
211.5952,57.1644
211.5961,57.1627
211.6195,57.1221
211.8409,56.7386
211.8409,56.7386
211.8419,56.7368
212.1212,56.3322
212.2024,56.2328
212.4309,55.9529
212.4309,55.9529
212.4322,55.9513
212.7728,55.5967
212.9403,55.4483
213.1393,55.2720
213.1394,55.2720
213.1408,55.2707
213.1424,55.2695
213.1424,55.2695
213.5323,54.9765
213.5323,54.9765
213.5339,54.9753
213.5638,54.9564
213.6716,54.8883
205.7527,54.8883
205.7428,54.9564
205.6914,55.0615
205.6087,55.1442
205.5036,55.1956
205.4355,55.2055
205.2784,55.2055
205.2202,55.2244
205.1842,55.2739
205.1842,55.3351
205.1869,55.3424
205.1872,55.3432
205.2079,55.5000
205.1872,55.6568
205.1267,55.8028
205.0305,55.9283
204.9984,55.9529
204.9050,56.0245
204.7590,56.0850
204.6022,56.1057
204.4454,56.0850
204.2994,56.0245
204.1739,55.9283
204.0777,55.8028
204.0172,55.6568
203.9965,55.5000
204.0172,55.3432
204.0175,55.3424
204.0179,55.3378
204.0189,55.3303
204.0185,55.3303
204.0223,55.2814
203.9903,55.2292
203.9338,55.2058
203.9260,55.2055
203.7189,55.2055
203.7189,55.2055
203.6508,55.1956
203.5457,55.1442
203.4630,55.0615
203.4116,54.9564
203.4017,54.8883
203.4017,54.5217
203.4116,54.4536
203.4630,54.3485
203.5457,54.2658
203.6508,54.2144
203.7189,54.2045
205.4355,54.2045
205.4866,54.2119
205.5036,54.2144
205.6087,54.2658
205.6914,54.3485
205.7428,54.4536
205.7428,54.4536
205.7527,54.5217
205.7527,54.8883
213.6716,54.8883
213.9478,54.7136
213.9478,54.7136
213.9495,54.7125
213.9512,54.7116
213.9512,54.7116
214.3831,54.4850
214.3831,54.4850
214.3848,54.4840
214.3867,54.4832
214.3867,54.4832
214.8353,54.2921
214.8353,54.2921
214.8372,54.2913
214.8391,54.2907
214.8391,54.2907
215.3017,54.1362
215.3017,54.1362
215.3036,54.1356
215.3055,54.1351
215.3055,54.1351
215.7790,54.0184
215.7790,54.0184
215.7810,54.0179
215.7829,54.0176
215.7829,54.0176
216.2643,53.9394
216.2643,53.9394
216.2663,53.9391
216.2682,53.9389
216.2682,53.9389
216.7544,53.8997
216.7544,53.8997
216.7564,53.8995
217.2480,53.8995
217.2500,53.8997
217.2500,53.8997
217.7362,53.9389
217.7362,53.9389
217.7381,53.9391
217.7401,53.9394
217.7401,53.9394
218.2215,54.0176
218.2215,54.0176
218.2234,54.0179
218.2254,54.0184
218.2254,54.0184
218.6989,54.1351
218.6989,54.1351
218.7008,54.1356
218.7027,54.1362
218.7027,54.1362
219.1653,54.2907
219.1653,54.2907
219.1672,54.2913
219.1690,54.2921
219.1691,54.2921
219.6177,54.4832
219.6177,54.4832
219.6196,54.4840
219.6213,54.4850
219.6213,54.4850
220.0532,54.7116
220.0532,54.7116
220.0549,54.7125
220.0566,54.7136
220.0566,54.7136
220.4688,54.9742
220.4688,54.9742
220.4705,54.9753
220.4721,54.9765
220.4721,54.9765
220.8620,55.2695
220.8620,55.2695
220.8636,55.2707
220.8650,55.2720
220.8651,55.2720
221.2301,55.5954
221.2301,55.5954
221.2316,55.5967
221.2330,55.5982
221.2330,55.5982
221.5708,55.9499
221.5708,55.9499
221.5722,55.9513
221.5734,55.9529
221.5735,55.9529
221.8819,56.3306
221.8819,56.3307
221.8832,56.3322
221.8843,56.3338
221.8843,56.3338
222.1613,56.7352
222.1613,56.7352
222.1625,56.7368
222.1635,56.7386
222.1635,56.7386
222.4073,57.1609
222.4073,57.1609
222.4083,57.1627
222.4091,57.1644
222.4092,57.1644
222.6182,57.6051
222.6182,57.6051
222.6191,57.6069
222.6198,57.6087
222.6198,57.6087
222.7927,58.0647
222.7927,58.0648
222.7934,58.0666
222.7940,58.0685
222.7940,58.0685
222.9297,58.5369
222.9297,58.5370
222.9302,58.5389
222.9306,58.5408
222.9306,58.5408
223.0282,59.0186
223.0286,59.0206
223.0288,59.0226
223.0288,59.0226
223.0652,59.3221
223.0879,59.5087
223.0879,59.5107
223.0879,59.5107
223.0973,59.7432
223.1077,60.0000
231.0017,60.0000
231.0017,53.4000
206.8079,53.4000
206.7872,53.5568
206.7267,53.7028
206.6305,53.8283
206.5377,53.8995
206.5050,53.9245
206.3590,53.9850
206.2022,54.0057
206.0454,53.9850
205.8994,53.9245
205.8090,53.8552
205.7753,53.8293
205.7176,53.8089
205.6589,53.8263
205.6450,53.8379
205.6087,53.8742
205.5036,53.9256
205.4355,53.9355
205.4355,53.9355
203.7189,53.9355
203.7189,53.9355
203.6508,53.9256
203.5457,53.8742
203.4630,53.7915
203.4116,53.6864
203.4017,53.6183
203.4017,53.2517
203.4116,53.1836
203.4630,53.0785
203.5457,52.9958
203.6508,52.9444
203.7189,52.9345
205.4355,52.9345
205.4866,52.9419
205.5036,52.9444
205.6087,52.9958
205.6119,52.9990
205.6664,53.0268
205.7268,53.0172
205.7604,52.9893
205.7739,52.9717
205.8090,52.9448
205.8953,52.8785
205.9300,52.8281
205.9284,52.7670
205.8953,52.7215
205.8224,52.6655
205.7739,52.6283
205.7604,52.6107
205.7100,52.5761
205.6489,52.5777
205.6119,52.6010
205.6087,52.6042
205.5036,52.6556
205.4355,52.6655
205.4355,52.6655
203.7189,52.6655
203.7189,52.6655
203.6508,52.6556
203.5457,52.6042
203.4630,52.5215
203.4116,52.4164
203.4017,52.3483
203.4017,51.9817
203.4116,51.9136
203.4630,51.8085
203.5457,51.7258
203.6508,51.6744
203.7189,51.6645
205.4355,51.6645
205.4866,51.6719
205.5036,51.6744
205.6087,51.7258
205.6450,51.7621
205.6995,51.7899
205.7600,51.7803
205.7753,51.7707
205.8410,51.7203
205.8994,51.6755
205.8994,51.6755
206.0454,51.6150
206.2022,51.5943
206.3590,51.6150
206.5050,51.6755
206.6305,51.7717
206.7267,51.8972
206.7872,52.0432
206.8079,52.2000
206.7872,52.3568
206.7267,52.5028
206.6305,52.6283
206.5091,52.7215
206.4744,52.7719
206.4760,52.8330
206.5091,52.8785
206.6305,52.9717
206.7267,53.0972
206.7872,53.2432
206.8079,53.4000
231.0017,53.4000
231.0017,50.9950
205.7522,50.9950
205.7522,51.0782
205.7423,51.1462
205.6910,51.2512
205.6084,51.3338
205.5034,51.3851
205.4354,51.3950
204.6772,51.3950
204.6772,51.3950
204.4772,51.3950
204.4772,51.3950
203.7190,51.3950
203.6510,51.3851
203.5460,51.3338
203.4634,51.2512
203.4121,51.1462
203.4022,51.0782
203.4022,50.9950
203.4022,50.9950
204.4772,50.9950
204.4772,50.9950
204.4772,51.3950
204.6772,51.3950
204.6772,51.3950
204.6772,50.9950
205.7522,50.9950
231.0017,50.9950
231.0017,50.7950
205.7522,50.7950
205.7522,50.7950
204.6772,50.7950
204.6772,50.3950
204.6772,50.3950
204.4772,50.3950
204.4772,50.7950
204.4772,50.7950
203.4022,50.7950
203.4022,50.7950
203.4022,50.7118
203.4121,50.6438
203.4634,50.5388
203.5460,50.4562
203.6510,50.4049
203.7190,50.3950
204.4772,50.3950
204.6772,50.3950
205.4354,50.3950
205.5034,50.4049
205.6084,50.4562
205.6910,50.5388
205.7423,50.6437
205.7522,50.7118
205.7522,50.7950
231.0017,50.7950
231.0017,47.0043
231.0013,46.9957
230.9977,46.9546
230.9851,46.8262
230.9822,46.8103
230.9642,46.7431
230.9634,46.7402
230.9350,46.6467
230.9300,46.6336
230.8982,46.5655
230.8958,46.5607
230.8525,46.4796
230.8463,46.4695
230.8020,46.4063
230.7975,46.4003
230.7402,46.3306
230.7338,46.3234
230.6788,46.2684
230.6716,46.2620
230.6019,46.2047
230.5959,46.2002
230.5327,46.1559
230.5226,46.1497
230.4415,46.1064
230.4367,46.1040
230.3686,46.0722
230.3555,46.0672
230.2620,46.0388
230.2591,46.0380
230.1919,46.0200
230.1760,46.0171
230.0477,46.0045
230.0065,46.0009
229.9979,46.0005
196.0065,46.0005
Z" /> 
</g>
</g>
</g>
<g style="fill:#FFFFFF; fill-opacity:1.0000; 
stroke:#FFFFFF; stroke-width:0.0000; stroke-opacity:1; 
stroke-linecap:round; stroke-linejoin:round;">
<circle cx="207.5022" cy="61.4000" r="0.2000" /> 
</g>
<g style="fill:#FFFFFF; fill-opacity:1.0000; 
stroke:#FFFFFF; stroke-width:0.0212; stroke-opacity:1; 
stroke-linecap:round; stroke-linejoin:round;">
</g>
<g style="fill:#FFFFFF; fill-opacity:1.0000; 
stroke:#FFFFFF; stroke-width:0.0000; stroke-opacity:1; 
stroke-linecap:round; stroke-linejoin:round;">
<circle cx="206.5022" cy="61.4000" r="0.2000" /> 
</g>
<g style="fill:#FFFFFF; fill-opacity:1.0000; 
stroke:#FFFFFF; stroke-width:0.0212; stroke-opacity:1; 
stroke-linecap:round; stroke-linejoin:round;">
</g>
<g style="fill:#FFFFFF; fill-opacity:1.0000; 
stroke:#FFFFFF; stroke-width:0.0000; stroke-opacity:1; 
stroke-linecap:round; stroke-linejoin:round;">
<circle cx="214.0022" cy="71.2000" r="0.2000" /> 
</g>
<g style="fill:#FFFFFF; fill-opacity:1.0000; 
stroke:#FFFFFF; stroke-width:0.0212; stroke-opacity:1; 
stroke-linecap:round; stroke-linejoin:round;">
</g>
<g style="fill:#FFFFFF; fill-opacity:1.0000; 
stroke:#FFFFFF; stroke-width:0.0000; stroke-opacity:1; 
stroke-linecap:round; stroke-linejoin:round;">
<circle cx="210.6022" cy="69.7500" r="0.2000" /> 
</g>
<g style="fill:#FFFFFF; fill-opacity:1.0000; 
stroke:#FFFFFF; stroke-width:0.0212; stroke-opacity:1; 
stroke-linecap:round; stroke-linejoin:round;">
</g>
<g style="fill:#FFFFFF; fill-opacity:1.0000; 
stroke:#FFFFFF; stroke-width:0.0000; stroke-opacity:1; 
stroke-linecap:round; stroke-linejoin:round;">
<circle cx="209.1022" cy="69.7500" r="0.2000" /> 
</g>
<g style="fill:#FFFFFF; fill-opacity:1.0000; 
stroke:#FFFFFF; stroke-width:0.0212; stroke-opacity:1; 
stroke-linecap:round; stroke-linejoin:round;">
</g>
<g style="fill:#FFFFFF; fill-opacity:1.0000; 
stroke:#FFFFFF; stroke-width:0.0000; stroke-opacity:1; 
stroke-linecap:round; stroke-linejoin:round;">
<circle cx="215.7522" cy="70.8000" r="0.2000" /> 
</g>
<g style="fill:#FFFFFF; fill-opacity:1.0000; 
stroke:#FFFFFF; stroke-width:0.0212; stroke-opacity:1; 
stroke-linecap:round; stroke-linejoin:round;">
</g>
<g style="fill:#FFFFFF; fill-opacity:1.0000; 
stroke:#FFFFFF; stroke-width:0.0000; stroke-opacity:1; 
stroke-linecap:round; stroke-linejoin:round;">
<circle cx="200.4522" cy="58.5000" r="0.2000" /> 
</g>
<g style="fill:#FFFFFF; fill-opacity:1.0000; 
stroke:#FFFFFF; stroke-width:0.0212; stroke-opacity:1; 
stroke-linecap:round; stroke-linejoin:round;">
</g>
<g style="fill:#FFFFFF; fill-opacity:1.0000; 
stroke:#FFFFFF; stroke-width:0.0000; stroke-opacity:1; 
stroke-linecap:round; stroke-linejoin:round;">
<circle cx="205.2022" cy="69.5000" r="0.2000" /> 
</g>
<g style="fill:#FFFFFF; fill-opacity:1.0000; 
stroke:#FFFFFF; stroke-width:0.0212; stroke-opacity:1; 
stroke-linecap:round; stroke-linejoin:round;">
</g>
<g style="fill:#FFFFFF; fill-opacity:1.0000; 
stroke:#FFFFFF; stroke-width:0.0000; stroke-opacity:1; 
stroke-linecap:round; stroke-linejoin:round;">
<circle cx="195.9522" cy="51.7500" r="0.2000" /> 
</g>
<g style="fill:#FFFFFF; fill-opacity:1.0000; 
stroke:#FFFFFF; stroke-width:0.0212; stroke-opacity:1; 
stroke-linecap:round; stroke-linejoin:round;">
</g>
<g style="fill:#FFFFFF; fill-opacity:1.0000; 
stroke:#FFFFFF; stroke-width:0.0000; stroke-opacity:1; 
stroke-linecap:round; stroke-linejoin:round;">
<circle cx="200.5022" cy="72.5500" r="0.2000" /> 
</g>
<g style="fill:#FFFFFF; fill-opacity:1.0000; 
stroke:#FFFFFF; stroke-width:0.0212; stroke-opacity:1; 
stroke-linecap:round; stroke-linejoin:round;">
</g>
<g style="fill:#FFFFFF; fill-opacity:1.0000; 
stroke:#FFFFFF; stroke-width:0.0000; stroke-opacity:1; 
stroke-linecap:round; stroke-linejoin:round;">
<circle cx="200.5022" cy="68.4000" r="0.2000" /> 
</g>
<g style="fill:#FFFFFF; fill-opacity:1.0000; 
stroke:#FFFFFF; stroke-width:0.0212; stroke-opacity:1; 
stroke-linecap:round; stroke-linejoin:round;">
</g>
<g style="fill:#FFFFFF; fill-opacity:1.0000; 
stroke:#FFFFFF; stroke-width:0.0000; stroke-opacity:1; 
stroke-linecap:round; stroke-linejoin:round;">
<circle cx="206.2022" cy="50.8500" r="0.2000" /> 
</g>
<g style="fill:#FFFFFF; fill-opacity:1.0000; 
stroke:#FFFFFF; stroke-width:0.0212; stroke-opacity:1; 
stroke-linecap:round; stroke-linejoin:round;">
</g>
<g style="fill:#FFFFFF; fill-opacity:1.0000; 
stroke:#FFFFFF; stroke-width:0.0000; stroke-opacity:1; 
stroke-linecap:round; stroke-linejoin:round;">
<circle cx="203.5522" cy="58.0500" r="0.2000" /> 
</g>
<g style="fill:#FFFFFF; fill-opacity:1.0000; 
stroke:#FFFFFF; stroke-width:0.0212; stroke-opacity:1; 
stroke-linecap:round; stroke-linejoin:round;">
</g>
<g style="fill:#FFFFFF; fill-opacity:1.0000; 
stroke:#FFFFFF; stroke-width:0.0000; stroke-opacity:1; 
stroke-linecap:round; stroke-linejoin:round;">
<circle cx="197.9622" cy="72.5400" r="0.2000" /> 
</g>
<g style="fill:#FFFFFF; fill-opacity:1.0000; 
stroke:#FFFFFF; stroke-width:0.0212; stroke-opacity:1; 
stroke-linecap:round; stroke-linejoin:round;">
</g>
<g style="fill:#FFFFFF; fill-opacity:1.0000; 
stroke:#FFFFFF; stroke-width:0.0000; stroke-opacity:1; 
stroke-linecap:round; stroke-linejoin:round;">
<circle cx="197.8022" cy="55.2000" r="0.2000" /> 
</g>
<g style="fill:#FFFFFF; fill-opacity:1.0000; 
stroke:#FFFFFF; stroke-width:0.0212; stroke-opacity:1; 
stroke-linecap:round; stroke-linejoin:round;">
</g>
<g style="fill:#FFFFFF; fill-opacity:1.0000; 
stroke:#FFFFFF; stroke-width:0.0000; stroke-opacity:1; 
stroke-linecap:round; stroke-linejoin:round;">
<circle cx="204.6022" cy="55.5000" r="0.2000" /> 
</g>
<g style="fill:#FFFFFF; fill-opacity:1.0000; 
stroke:#FFFFFF; stroke-width:0.0212; stroke-opacity:1; 
stroke-linecap:round; stroke-linejoin:round;">
</g>
<g style="fill:#FFFFFF; fill-opacity:1.0000; 
stroke:#FFFFFF; stroke-width:0.0000; stroke-opacity:1; 
stroke-linecap:round; stroke-linejoin:round;">
<circle cx="206.2022" cy="53.4000" r="0.2000" /> 
</g>
<g style="fill:#FFFFFF; fill-opacity:1.0000; 
stroke:#FFFFFF; stroke-width:0.0212; stroke-opacity:1; 
stroke-linecap:round; stroke-linejoin:round;">
</g>
<g style="fill:#FFFFFF; fill-opacity:1.0000; 
stroke:#FFFFFF; stroke-width:0.0000; stroke-opacity:1; 
stroke-linecap:round; stroke-linejoin:round;">
<circle cx="206.2022" cy="52.2000" r="0.2000" /> 
</g>
<g style="fill:#FFFFFF; fill-opacity:1.0000; 
stroke:#FFFFFF; stroke-width:0.0212; stroke-opacity:1; 
stroke-linecap:round; stroke-linejoin:round;">
</g>
<g style="fill:#000000; fill-opacity:1.0000; 
stroke:#000000; stroke-width:0.0212; stroke-opacity:1; 
stroke-linecap:round; stroke-linejoin:round;">
</g> 
</svg>
