<?xml version='1.0' encoding='ASCII' standalone='yes'?>
<svg xmlns="http://www.w3.org/2000/svg" version="1.1" width="297.0022mm" height="210.0072mm" viewBox="0.0000 0.0000 297.0022 210.0072">
            <title>Picture generated by PcbDraw </title>
            <desc>Picture generated by PcbDraw</desc>
        <defs><clipPath id="cut-off"><path d=" M 80.0000 60.0000 m-6.1000 0 a 6.1000 6.1000 0 1 0 12.2 0 a 6.1000 6.1000 0 1 0 -12.2 0  M 67.0 74.0 L 101.0 74.0 A 1 1 0 0 0 102.0 73.0 L 102.0 47.0 A 1 1 0 0 0 101.0 46.0 L 67.0 46.0 A 1 1 0 0 0 66.0 47.0 L 66.0 73.0 A 1 1 0 0 0 67.0 74.0 " style="fill-rule: evenodd;"/></clipPath><mask id="pads-mask-silkscreen"><rect x="65.95" y="45.95" width="36.1" height="28.1" fill="white"/><g style="fill:#000000; fill-opacity:0.0;  stroke:#000000; stroke-width:0.0000; stroke-opacity:1;  stroke-linecap:round; stroke-linejoin:round;">
<g style="fill:#000000; fill-opacity:1.0000;  stroke:#000000; stroke-width:0.0000; stroke-opacity:1;  stroke-linecap:round; stroke-linejoin:round;">
<path style="fill:#000000; fill-opacity:1.0000;  stroke:#000000; stroke-width:0.0000; stroke-opacity:1;  stroke-linecap:round; stroke-linejoin:round;fill-rule:evenodd;" d="M 91.4500,54.5550 91.4614,54.4976 91.4939,54.4489 91.5426,54.4164 91.6000,54.4050 93.2500,54.4050 93.3074,54.4164 93.3561,54.4489 93.3886,54.4976 93.4000,54.5550 93.4000,54.8550 93.3886,54.9124 93.3561,54.9611 93.3074,54.9936 93.2500,55.0050 91.6000,55.0050 91.5426,54.9936 91.4939,54.9611 91.4614,54.9124 91.4500,54.8550 Z"/> 
<path style="fill:#000000; fill-opacity:1.0000;  stroke:#000000; stroke-width:0.0000; stroke-opacity:1;  stroke-linecap:round; stroke-linejoin:round;fill-rule:evenodd;" d="M 91.4500,53.2850 91.4614,53.2276 91.4939,53.1789 91.5426,53.1464 91.6000,53.1350 93.2500,53.1350 93.3074,53.1464 93.3561,53.1789 93.3886,53.2276 93.4000,53.2850 93.4000,53.5850 93.3886,53.6424 93.3561,53.6911 93.3074,53.7236 93.2500,53.7350 91.6000,53.7350 91.5426,53.7236 91.4939,53.6911 91.4614,53.6424 91.4500,53.5850 Z"/> 
<path style="fill:#000000; fill-opacity:1.0000;  stroke:#000000; stroke-width:0.0000; stroke-opacity:1;  stroke-linecap:round; stroke-linejoin:round;fill-rule:evenodd;" d="M 91.4500,52.0150 91.4614,51.9576 91.4939,51.9089 91.5426,51.8764 91.6000,51.8650 93.2500,51.8650 93.3074,51.8764 93.3561,51.9089 93.3886,51.9576 93.4000,52.0150 93.4000,52.3150 93.3886,52.3724 93.3561,52.4211 93.3074,52.4536 93.2500,52.4650 91.6000,52.4650 91.5426,52.4536 91.4939,52.4211 91.4614,52.3724 91.4500,52.3150 Z"/> 
<path style="fill:#000000; fill-opacity:1.0000;  stroke:#000000; stroke-width:0.0000; stroke-opacity:1;  stroke-linecap:round; stroke-linejoin:round;fill-rule:evenodd;" d="M 91.4500,50.7450 91.4614,50.6876 91.4939,50.6389 91.5426,50.6064 91.6000,50.5950 93.2500,50.5950 93.3074,50.6064 93.3561,50.6389 93.3886,50.6876 93.4000,50.7450 93.4000,51.0450 93.3886,51.1024 93.3561,51.1511 93.3074,51.1836 93.2500,51.1950 91.6000,51.1950 91.5426,51.1836 91.4939,51.1511 91.4614,51.1024 91.4500,51.0450 Z"/> 
<path style="fill:#000000; fill-opacity:1.0000;  stroke:#000000; stroke-width:0.0000; stroke-opacity:1;  stroke-linecap:round; stroke-linejoin:round;fill-rule:evenodd;" d="M 96.4000,50.7450 96.4114,50.6876 96.4439,50.6389 96.4926,50.6064 96.5500,50.5950 98.2000,50.5950 98.2574,50.6064 98.3061,50.6389 98.3386,50.6876 98.3500,50.7450 98.3500,51.0450 98.3386,51.1024 98.3061,51.1511 98.2574,51.1836 98.2000,51.1950 96.5500,51.1950 96.4926,51.1836 96.4439,51.1511 96.4114,51.1024 96.4000,51.0450 Z"/> 
<path style="fill:#000000; fill-opacity:1.0000;  stroke:#000000; stroke-width:0.0000; stroke-opacity:1;  stroke-linecap:round; stroke-linejoin:round;fill-rule:evenodd;" d="M 96.4000,52.0150 96.4114,51.9576 96.4439,51.9089 96.4926,51.8764 96.5500,51.8650 98.2000,51.8650 98.2574,51.8764 98.3061,51.9089 98.3386,51.9576 98.3500,52.0150 98.3500,52.3150 98.3386,52.3724 98.3061,52.4211 98.2574,52.4536 98.2000,52.4650 96.5500,52.4650 96.4926,52.4536 96.4439,52.4211 96.4114,52.3724 96.4000,52.3150 Z"/> 
<path style="fill:#000000; fill-opacity:1.0000;  stroke:#000000; stroke-width:0.0000; stroke-opacity:1;  stroke-linecap:round; stroke-linejoin:round;fill-rule:evenodd;" d="M 96.4000,53.2850 96.4114,53.2276 96.4439,53.1789 96.4926,53.1464 96.5500,53.1350 98.2000,53.1350 98.2574,53.1464 98.3061,53.1789 98.3386,53.2276 98.3500,53.2850 98.3500,53.5850 98.3386,53.6424 98.3061,53.6911 98.2574,53.7236 98.2000,53.7350 96.5500,53.7350 96.4926,53.7236 96.4439,53.6911 96.4114,53.6424 96.4000,53.5850 Z"/> 
<path style="fill:#000000; fill-opacity:1.0000;  stroke:#000000; stroke-width:0.0000; stroke-opacity:1;  stroke-linecap:round; stroke-linejoin:round;fill-rule:evenodd;" d="M 96.4000,54.5550 96.4114,54.4976 96.4439,54.4489 96.4926,54.4164 96.5500,54.4050 98.2000,54.4050 98.2574,54.4164 98.3061,54.4489 98.3386,54.4976 98.3500,54.5550 98.3500,54.8550 98.3386,54.9124 98.3061,54.9611 98.2574,54.9936 98.2000,55.0050 96.5500,55.0050 96.4926,54.9936 96.4439,54.9611 96.4114,54.9124 96.4000,54.8550 Z"/> 
</g>
<g style="fill:#000000; fill-opacity:1.0000;  stroke:#000000; stroke-width:0.0000; stroke-opacity:1;  stroke-linecap:round; stroke-linejoin:round;">
<path style="fill:#000000; fill-opacity:1.0000;  stroke:#000000; stroke-width:0.0000; stroke-opacity:1;  stroke-linecap:round; stroke-linejoin:round;fill-rule:evenodd;" d="M 92.5600,63.9000 93.5600,63.9000 93.5600,67.0500 92.5600,67.0500 Z"/> 
<path style="fill:#000000; fill-opacity:1.0000;  stroke:#000000; stroke-width:0.0000; stroke-opacity:1;  stroke-linecap:round; stroke-linejoin:round;fill-rule:evenodd;" d="M 92.5600,68.9500 93.5600,68.9500 93.5600,72.1000 92.5600,72.1000 Z"/> 
<path style="fill:#000000; fill-opacity:1.0000;  stroke:#000000; stroke-width:0.0000; stroke-opacity:1;  stroke-linecap:round; stroke-linejoin:round;fill-rule:evenodd;" d="M 95.1000,63.9000 96.1000,63.9000 96.1000,67.0500 95.1000,67.0500 Z"/> 
<path style="fill:#000000; fill-opacity:1.0000;  stroke:#000000; stroke-width:0.0000; stroke-opacity:1;  stroke-linecap:round; stroke-linejoin:round;fill-rule:evenodd;" d="M 95.1000,68.9500 96.1000,68.9500 96.1000,72.1000 95.1000,72.1000 Z"/> 
<path style="fill:#000000; fill-opacity:1.0000;  stroke:#000000; stroke-width:0.0000; stroke-opacity:1;  stroke-linecap:round; stroke-linejoin:round;fill-rule:evenodd;" d="M 97.6400,63.9000 98.6400,63.9000 98.6400,67.0500 97.6400,67.0500 Z"/> 
<path style="fill:#000000; fill-opacity:1.0000;  stroke:#000000; stroke-width:0.0000; stroke-opacity:1;  stroke-linecap:round; stroke-linejoin:round;fill-rule:evenodd;" d="M 97.6400,68.9500 98.6400,68.9500 98.6400,72.1000 97.6400,72.1000 Z"/> 
</g>
<g style="fill:#000000; fill-opacity:1.0000;  stroke:#000000; stroke-width:0.0000; stroke-opacity:1;  stroke-linecap:round; stroke-linejoin:round;">
<path style="fill:#000000; fill-opacity:1.0000;  stroke:#000000; stroke-width:0.0000; stroke-opacity:1;  stroke-linecap:round; stroke-linejoin:round;fill-rule:evenodd;" d="M 89.9500,58.4500 89.9690,58.3543 90.0232,58.2732 90.1043,58.2190 90.2000,58.2000 92.4750,58.2000 92.5707,58.2190 92.6518,58.2732 92.7060,58.3543 92.7250,58.4500 92.7250,59.5500 92.7060,59.6457 92.6518,59.7268 92.5707,59.7810 92.4750,59.8000 90.2000,59.8000 90.1043,59.7810 90.0232,59.7268 89.9690,59.6457 89.9500,59.5500 Z"/> 
<path style="fill:#000000; fill-opacity:1.0000;  stroke:#000000; stroke-width:0.0000; stroke-opacity:1;  stroke-linecap:round; stroke-linejoin:round;fill-rule:evenodd;" d="M 94.0750,58.4500 94.0940,58.3543 94.1482,58.2732 94.2293,58.2190 94.3250,58.2000 96.6000,58.2000 96.6957,58.2190 96.7768,58.2732 96.8310,58.3543 96.8500,58.4500 96.8500,59.5500 96.8310,59.6457 96.7768,59.7268 96.6957,59.7810 96.6000,59.8000 94.3250,59.8000 94.2293,59.7810 94.1482,59.7268 94.0940,59.6457 94.0750,59.5500 Z"/> 
</g>
<g style="fill:#000000; fill-opacity:1.0000;  stroke:#000000; stroke-width:0.0000; stroke-opacity:1;  stroke-linecap:round; stroke-linejoin:round;">
<path style="fill:#000000; fill-opacity:1.0000;  stroke:#000000; stroke-width:0.0000; stroke-opacity:1;  stroke-linecap:round; stroke-linejoin:round;fill-rule:evenodd;" d="M 99.9000,53.9500 98.9000,53.9500 98.9000,52.9500 99.9000,52.9500 Z"/> 
<path style="fill:#000000; fill-opacity:1.0000;  stroke:#000000; stroke-width:0.0000; stroke-opacity:1;  stroke-linecap:round; stroke-linejoin:round;fill-rule:evenodd;" d="M 99.9000,52.2500 98.9000,52.2500 98.9000,51.2500 99.9000,51.2500 Z"/> 
</g>
<g style="fill:#000000; fill-opacity:1.0000;  stroke:#000000; stroke-width:0.0000; stroke-opacity:1;  stroke-linecap:round; stroke-linejoin:round;">
<path style="fill:#000000; fill-opacity:1.0000;  stroke:#000000; stroke-width:0.0000; stroke-opacity:1;  stroke-linecap:round; stroke-linejoin:round;fill-rule:evenodd;" d="M 99.8312,54.3550 99.9111,54.3709 99.9789,54.4161 100.0241,54.4839 100.0400,54.5637 100.0400,54.9812 100.0241,55.0611 99.9789,55.1289 99.9111,55.1741 99.8312,55.1900 98.9688,55.1900 98.8889,55.1741 98.8211,55.1289 98.7759,55.0611 98.7600,54.9812 98.7600,54.5637 98.7759,54.4839 98.8211,54.4161 98.8889,54.3709 98.9688,54.3550 Z"/> 
<path style="fill:#000000; fill-opacity:1.0000;  stroke:#000000; stroke-width:0.0000; stroke-opacity:1;  stroke-linecap:round; stroke-linejoin:round;fill-rule:evenodd;" d="M 99.8312,55.6100 99.9111,55.6259 99.9789,55.6711 100.0241,55.7389 100.0400,55.8187 100.0400,56.2362 100.0241,56.3161 99.9789,56.3839 99.9111,56.4291 99.8312,56.4450 98.9688,56.4450 98.8889,56.4291 98.8211,56.3839 98.7759,56.3161 98.7600,56.2362 98.7600,55.8187 98.7759,55.7389 98.8211,55.6711 98.8889,55.6259 98.9688,55.6100 Z"/> 
</g>
</g> 
</mask></defs><g transform="scale(-1,1) translate(-297,0)" id="boardContainer"><g id="substrate" clip-path="url(#cut-off)" mask="url(#pads-mask-silkscreen)"><g id="substrate-board" style="fill:#143324; fill-opacity:0.25098039215686274; stroke:#143324; stroke-width:0;"><path d=" M 80.0000 60.0000 m-6.1000 0 a 6.1000 6.1000 0 1 0 12.2 0 a 6.1000 6.1000 0 1 0 -12.2 0  M 67.0 74.0 L 101.0 74.0 A 1 1 0 0 0 102.0 73.0 L 102.0 47.0 A 1 1 0 0 0 101.0 46.0 L 67.0 46.0 A 1 1 0 0 0 66.0 47.0 L 66.0 73.0 A 1 1 0 0 0 67.0 74.0 " style="fill-rule: evenodd;"/><g style="fill-opacity: 0.0;stroke-width: 0.1000;stroke-opacity: 1;stroke-linecap: round;stroke-linejoin: round">
<path d="M66.0000 73.0000 A1.0000 1.0000 0.0 0 0 67.0000 74.0000"/>
<circle cx="80.0000" cy="60.0000" r="6.1000"/> 
<path d="M102.0000 47.0000 L102.0000 73.0000 "/>
<path d="M66.0000 73.0000 L66.0000 47.0000 "/>
<path d="M101.0000 74.0000 A1.0000 1.0000 0.0 0 0 102.0000 73.0000"/>
<path d="M67.0000 46.0000 L101.0000 46.0000 "/>
<path d="M101.0000 74.0000 L67.0000 74.0000 "/>
<path d="M67.0000 46.0000 A1.0000 1.0000 0.0 0 0 66.0000 47.0000"/>
<path d="M102.0000 47.0000 A1.0000 1.0000 0.0 0 0 101.0000 46.0000"/>
</g> 
</g></g></g></svg>
