<?xml version="1.0" standalone="no"?>
 <!DOCTYPE svg PUBLIC "-//W3C//DTD SVG 1.1//EN" 
 "http://www.w3.org/Graphics/SVG/1.1/DTD/svg11.dtd"> 
<svg
  xmlns:svg="http://www.w3.org/2000/svg"
  xmlns="http://www.w3.org/2000/svg"
  xmlns:xlink="http://www.w3.org/1999/xlink"
  version="1.1"
  width="297.0022mm" height="210.0072mm" viewBox="0.0000 0.0000 297.0022 210.0072">
<title>SVG Image created as pedalboard-led-ring-B_Cu.svg date 2023/06/03 19:16:12 </title>
  <desc>Image generated by PCBNEW </desc>
<g style="fill:#000000; fill-opacity:1.0000;stroke:#000000; stroke-opacity:1.0000;
stroke-linecap:round; stroke-linejoin:round;"
 transform="translate(0 0) scale(1 1)">
</g>
<g style="fill:#000000; fill-opacity:0.0; 
stroke:#000000; stroke-width:0.0000; stroke-opacity:1; 
stroke-linecap:round; stroke-linejoin:round;">
<g >
</g>
<g >
</g>
<g >
</g>
<g >
</g>
<g >
</g>
<g >
</g>
<g >
</g>
<g >
</g>
<g >
</g>
<g >
</g>
<g >
</g>
<g >
</g>
<g >
</g>
<g >
</g>
<g >
</g>
<g >
</g>
<g >
</g>
<g >
</g>
<g >
</g>
<g >
</g>
<g >
</g>
<g >
</g>
<g >
</g>
<g >
</g>
<g >
</g>
<g >
</g>
<g >
</g>
<g >
</g>
<g >
</g>
<g >
</g>
<g style="fill:#000000; fill-opacity:0.0; 
stroke:#000000; stroke-width:0.0000; stroke-opacity:1; 
stroke-linecap:round; stroke-linejoin:round;">
</g>
<g style="fill:#000000; fill-opacity:0.0; 
stroke:#000000; stroke-width:0.0000; stroke-opacity:1; 
stroke-linecap:round; stroke-linejoin:round;">
</g>
<g style="fill:#000000; fill-opacity:1.0000; 
stroke:#000000; stroke-width:0.0000; stroke-opacity:1; 
stroke-linecap:round; stroke-linejoin:round;">
<path style="fill:#000000; fill-opacity:1.0000; 
stroke:#000000; stroke-width:0.0000; stroke-opacity:1; 
stroke-linecap:round; stroke-linejoin:round;fill-rule:evenodd;"
d="M 205.5022,58.2500
206.5022,58.2500
206.5022,55.5000
205.5022,55.5000
Z" /> 
<path style="fill:#000000; fill-opacity:1.0000; 
stroke:#000000; stroke-width:0.0000; stroke-opacity:1; 
stroke-linecap:round; stroke-linejoin:round;fill-rule:evenodd;"
d="M 205.5022,64.5000
206.5022,64.5000
206.5022,61.7500
205.5022,61.7500
Z" /> 
<path style="fill:#000000; fill-opacity:1.0000; 
stroke:#000000; stroke-width:0.0000; stroke-opacity:1; 
stroke-linecap:round; stroke-linejoin:round;fill-rule:evenodd;"
d="M 207.5022,58.2500
208.5022,58.2500
208.5022,55.5000
207.5022,55.5000
Z" /> 
<path style="fill:#000000; fill-opacity:1.0000; 
stroke:#000000; stroke-width:0.0000; stroke-opacity:1; 
stroke-linecap:round; stroke-linejoin:round;fill-rule:evenodd;"
d="M 207.5022,64.5000
208.5022,64.5000
208.5022,61.7500
207.5022,61.7500
Z" /> 
</g>
<g >
</g>
<g style="fill:#000000; fill-opacity:1.0000; 
stroke:#000000; stroke-width:0.0000; stroke-opacity:1; 
stroke-linecap:round; stroke-linejoin:round;">
<path style="fill:#000000; fill-opacity:1.0000; 
stroke:#000000; stroke-width:0.0000; stroke-opacity:1; 
stroke-linecap:round; stroke-linejoin:round;fill-rule:evenodd;"
d="M 208.2522,69.5000
208.2522,68.5000
205.5022,68.5000
205.5022,69.5000
Z" /> 
<path style="fill:#000000; fill-opacity:1.0000; 
stroke:#000000; stroke-width:0.0000; stroke-opacity:1; 
stroke-linecap:round; stroke-linejoin:round;fill-rule:evenodd;"
d="M 214.5022,69.5000
214.5022,68.5000
211.7522,68.5000
211.7522,69.5000
Z" /> 
<path style="fill:#000000; fill-opacity:1.0000; 
stroke:#000000; stroke-width:0.0000; stroke-opacity:1; 
stroke-linecap:round; stroke-linejoin:round;fill-rule:evenodd;"
d="M 208.2522,67.5000
208.2522,66.5000
205.5022,66.5000
205.5022,67.5000
Z" /> 
<path style="fill:#000000; fill-opacity:1.0000; 
stroke:#000000; stroke-width:0.0000; stroke-opacity:1; 
stroke-linecap:round; stroke-linejoin:round;fill-rule:evenodd;"
d="M 214.5022,67.5000
214.5022,66.5000
211.7522,66.5000
211.7522,67.5000
Z" /> 
</g>
<g >
</g>
<g style="fill:#000000; fill-opacity:1.0000; 
stroke:#000000; stroke-width:0.0000; stroke-opacity:1; 
stroke-linecap:round; stroke-linejoin:round;">
<circle cx="210.2022" cy="63.6000" r="0.4000" /> 
</g>
<g style="fill:#000000; fill-opacity:1.0000; 
stroke:#000000; stroke-width:0.0212; stroke-opacity:1; 
stroke-linecap:round; stroke-linejoin:round;">
</g>
<g style="fill:#000000; fill-opacity:1.0000; 
stroke:#000000; stroke-width:0.0000; stroke-opacity:1; 
stroke-linecap:round; stroke-linejoin:round;">
<circle cx="223.0022" cy="52.0000" r="0.4000" /> 
</g>
<g style="fill:#000000; fill-opacity:1.0000; 
stroke:#000000; stroke-width:0.0212; stroke-opacity:1; 
stroke-linecap:round; stroke-linejoin:round;">
</g>
<g style="fill:#000000; fill-opacity:1.0000; 
stroke:#000000; stroke-width:0.0000; stroke-opacity:1; 
stroke-linecap:round; stroke-linejoin:round;">
<circle cx="207.0740" cy="58.8038" r="0.4000" /> 
</g>
<g style="fill:#000000; fill-opacity:1.0000; 
stroke:#000000; stroke-width:0.0212; stroke-opacity:1; 
stroke-linecap:round; stroke-linejoin:round;">
</g>
<g style="fill:#000000; fill-opacity:1.0000; 
stroke:#000000; stroke-width:0.0000; stroke-opacity:1; 
stroke-linecap:round; stroke-linejoin:round;">
<circle cx="226.9304" cy="61.1962" r="0.4000" /> 
</g>
<g style="fill:#000000; fill-opacity:1.0000; 
stroke:#000000; stroke-width:0.0212; stroke-opacity:1; 
stroke-linecap:round; stroke-linejoin:round;">
</g>
<g style="fill:#000000; fill-opacity:1.0000; 
stroke:#000000; stroke-width:0.0000; stroke-opacity:1; 
stroke-linecap:round; stroke-linejoin:round;">
<circle cx="220.9304" cy="69.1962" r="0.4000" /> 
</g>
<g style="fill:#000000; fill-opacity:1.0000; 
stroke:#000000; stroke-width:0.0212; stroke-opacity:1; 
stroke-linecap:round; stroke-linejoin:round;">
</g>
<g style="fill:#000000; fill-opacity:1.0000; 
stroke:#000000; stroke-width:0.0000; stroke-opacity:1; 
stroke-linecap:round; stroke-linejoin:round;">
<circle cx="215.8060" cy="69.9282" r="0.4000" /> 
</g>
<g style="fill:#000000; fill-opacity:1.0000; 
stroke:#000000; stroke-width:0.0212; stroke-opacity:1; 
stroke-linecap:round; stroke-linejoin:round;">
</g>
<g style="fill:#000000; fill-opacity:1.0000; 
stroke:#000000; stroke-width:0.0000; stroke-opacity:1; 
stroke-linecap:round; stroke-linejoin:round;">
<circle cx="213.0740" cy="50.8038" r="0.4000" /> 
</g>
<g style="fill:#000000; fill-opacity:1.0000; 
stroke:#000000; stroke-width:0.0212; stroke-opacity:1; 
stroke-linecap:round; stroke-linejoin:round;">
</g>
<g style="fill:#000000; fill-opacity:1.0000; 
stroke:#000000; stroke-width:0.0000; stroke-opacity:1; 
stroke-linecap:round; stroke-linejoin:round;">
<circle cx="225.0022" cy="66.0000" r="0.4000" /> 
</g>
<g style="fill:#000000; fill-opacity:1.0000; 
stroke:#000000; stroke-width:0.0212; stroke-opacity:1; 
stroke-linecap:round; stroke-linejoin:round;">
</g>
<g style="fill:#000000; fill-opacity:1.0000; 
stroke:#000000; stroke-width:0.0000; stroke-opacity:1; 
stroke-linecap:round; stroke-linejoin:round;">
<circle cx="210.6022" cy="67.7000" r="0.4000" /> 
</g>
<g style="fill:#000000; fill-opacity:1.0000; 
stroke:#000000; stroke-width:0.0212; stroke-opacity:1; 
stroke-linecap:round; stroke-linejoin:round;">
</g>
<g style="fill:#000000; fill-opacity:1.0000; 
stroke:#000000; stroke-width:0.0000; stroke-opacity:1; 
stroke-linecap:round; stroke-linejoin:round;">
<circle cx="226.1984" cy="56.0718" r="0.4000" /> 
</g>
<g style="fill:#000000; fill-opacity:1.0000; 
stroke:#000000; stroke-width:0.0212; stroke-opacity:1; 
stroke-linecap:round; stroke-linejoin:round;">
</g>
<g style="fill:#000000; fill-opacity:1.0000; 
stroke:#000000; stroke-width:0.0000; stroke-opacity:1; 
stroke-linecap:round; stroke-linejoin:round;">
<circle cx="209.0022" cy="54.0000" r="0.4000" /> 
</g>
<g style="fill:#000000; fill-opacity:1.0000; 
stroke:#000000; stroke-width:0.0212; stroke-opacity:1; 
stroke-linecap:round; stroke-linejoin:round;">
</g>
<g style="fill:#000000; fill-opacity:1.0000; 
stroke:#000000; stroke-width:0.0000; stroke-opacity:1; 
stroke-linecap:round; stroke-linejoin:round;">
<circle cx="208.7422" cy="66.0200" r="0.4000" /> 
</g>
<g style="fill:#000000; fill-opacity:1.0000; 
stroke:#000000; stroke-width:0.0212; stroke-opacity:1; 
stroke-linecap:round; stroke-linejoin:round;">
</g>
<g style="fill:#000000; fill-opacity:1.0000; 
stroke:#000000; stroke-width:0.0000; stroke-opacity:1; 
stroke-linecap:round; stroke-linejoin:round;">
<circle cx="218.1984" cy="50.0718" r="0.4000" /> 
</g>
<g style="fill:#000000; fill-opacity:1.0000; 
stroke:#000000; stroke-width:0.0212; stroke-opacity:1; 
stroke-linecap:round; stroke-linejoin:round;">
</g>
<g style="fill:#000000; fill-opacity:1.0000; 
stroke:#000000; stroke-width:0.0000; stroke-opacity:1; 
stroke-linecap:round; stroke-linejoin:round;">
<circle cx="206.7022" cy="61.4000" r="0.4000" /> 
</g>
<g style="fill:#000000; fill-opacity:1.0000; 
stroke:#000000; stroke-width:0.0212; stroke-opacity:1; 
stroke-linecap:round; stroke-linejoin:round;">
</g>
<g style="fill:#000000; fill-opacity:1.0000; 
stroke:#000000; stroke-width:0.0000; stroke-opacity:1; 
stroke-linecap:round; stroke-linejoin:round;">
<circle cx="214.0022" cy="70.0000" r="0.4000" /> 
</g>
<g style="fill:#000000; fill-opacity:1.0000; 
stroke:#000000; stroke-width:0.0212; stroke-opacity:1; 
stroke-linecap:round; stroke-linejoin:round;">
</g>
<g style="fill:#000000; fill-opacity:1.0000; 
stroke:#000000; stroke-width:0.0000; stroke-opacity:1; 
stroke-linecap:round; stroke-linejoin:round;">
<circle cx="205.9022" cy="61.4000" r="0.4000" /> 
</g>
<g style="fill:#000000; fill-opacity:1.0000; 
stroke:#000000; stroke-width:0.0212; stroke-opacity:1; 
stroke-linecap:round; stroke-linejoin:round;">
</g>
<g style="fill:#000000; fill-opacity:1.0000; 
stroke:#000000; stroke-width:0.0000; stroke-opacity:1; 
stroke-linecap:round; stroke-linejoin:round;">
<circle cx="205.9022" cy="64.9000" r="0.4000" /> 
</g>
<g style="fill:#000000; fill-opacity:1.0000; 
stroke:#000000; stroke-width:0.0212; stroke-opacity:1; 
stroke-linecap:round; stroke-linejoin:round;">
</g>
<g style="fill:#000000; fill-opacity:1.0000; 
stroke:#000000; stroke-width:0.0000; stroke-opacity:1; 
stroke-linecap:round; stroke-linejoin:round;">
<circle cx="206.7022" cy="64.9000" r="0.4000" /> 
</g>
<g style="fill:#000000; fill-opacity:1.0000; 
stroke:#000000; stroke-width:0.0212; stroke-opacity:1; 
stroke-linecap:round; stroke-linejoin:round;">
</g>
<g style="fill:#000000; fill-opacity:1.0000; 
stroke:#000000; stroke-width:0.0000; stroke-opacity:1; 
stroke-linecap:round; stroke-linejoin:round;">
<circle cx="212.0022" cy="70.0000" r="0.4000" /> 
</g>
<g style="fill:#000000; fill-opacity:1.0000; 
stroke:#000000; stroke-width:0.0212; stroke-opacity:1; 
stroke-linecap:round; stroke-linejoin:round;">
</g>
<g style="fill:#000000; fill-opacity:1.0000; 
stroke:#000000; stroke-width:0.0000; stroke-opacity:1; 
stroke-linecap:round; stroke-linejoin:round;">
<circle cx="211.0022" cy="69.5000" r="0.4000" /> 
</g>
<g style="fill:#000000; fill-opacity:1.0000; 
stroke:#000000; stroke-width:0.0212; stroke-opacity:1; 
stroke-linecap:round; stroke-linejoin:round;">
</g>
<g style="fill:#000000; fill-opacity:1.0000; 
stroke:#000000; stroke-width:0.0000; stroke-opacity:1; 
stroke-linecap:round; stroke-linejoin:round;">
<circle cx="213.0022" cy="70.0000" r="0.4000" /> 
</g>
<g style="fill:#000000; fill-opacity:1.0000; 
stroke:#000000; stroke-width:0.0212; stroke-opacity:1; 
stroke-linecap:round; stroke-linejoin:round;">
</g>
<g style="fill:#000000; fill-opacity:1.0000; 
stroke:#000000; stroke-width:0.0000; stroke-opacity:1; 
stroke-linecap:round; stroke-linejoin:round;">
<circle cx="209.0922" cy="61.8200" r="0.4000" /> 
</g>
<g style="fill:#000000; fill-opacity:1.0000; 
stroke:#000000; stroke-width:0.0212; stroke-opacity:1; 
stroke-linecap:round; stroke-linejoin:round;">
</g>
<g >
</g>
<g style="fill:#000000; fill-opacity:1.0000; 
stroke:#000000; stroke-width:0.0212; stroke-opacity:1; 
stroke-linecap:round; stroke-linejoin:round;">
</g>
<g style="fill:#000000; fill-opacity:1.0000; 
stroke:#000000; stroke-width:0.2500; stroke-opacity:1; 
stroke-linecap:round; stroke-linejoin:round;">
</g>
<g style="fill:#000000; fill-opacity:0.0; 
stroke:#000000; stroke-width:0.2500; stroke-opacity:1; 
stroke-linecap:round; stroke-linejoin:round;">
<path d="M208.3772 63.5000
L210.1022 63.5000
" />
<path d="M208.0022 63.1250
L208.3772 63.5000
" />
<path d="M210.2022 63.6000
L210.2022 64.8000
" />
<path d="M212.4022 67.0000
L213.1272 67.0000
" />
<path d="M210.1022 63.5000
L210.2022 63.6000
" />
<path d="M210.2022 64.8000
L212.4022 67.0000
" />
<path d="M211.5022 69.0000
L211.0022 69.5000
" />
<path d="M206.7022 61.4000
L206.7022 62.4250
" />
<path d="M213.1272 69.0000
L213.0022 69.0000
" />
<path d="M205.9022 63.2250
L206.0022 63.1250
" />
<path d="M205.9022 64.9000
L206.6022 64.9000
" />
<path d="M206.7022 63.8250
L206.0022 63.1250
" />
<path d="M206.7022 64.9000
L206.7022 63.8250
" />
<path d="M213.1272 69.0000
L213.1272 69.8750
" />
<path d="M206.7022 61.4000
L205.9022 61.4000
" />
<path d="M213.1272 69.0000
L211.5022 69.0000
" />
<path d="M206.7022 62.4250
L206.0022 63.1250
" />
<path d="M205.9022 61.4000
L205.9022 63.0250
" />
<path d="M205.9022 64.9000
L205.9022 63.2250
" />
<path d="M213.1272 69.8750
L213.0022 70.0000
" />
<path d="M213.1272 69.1250
L214.0022 70.0000
" />
<path d="M213.0022 69.0000
L212.0022 70.0000
" />
<path d="M205.9022 63.0250
L206.0022 63.1250
" />
<path d="M213.1272 69.0000
L213.1272 69.1250
" />
<path d="M206.0022 67.0000
L205.1722 66.1700
" />
<path d="M206.9942 60.6950
L207.4072 61.1080
" />
<path d="M209.0022 57.0000
L209.0022 61.7300
" />
<path d="M209.0922 61.6350
L209.0922 61.8200
" />
<path d="M207.4472 61.4450
L208.9022 61.4450
" />
<path d="M209.0022 61.7300
L209.0922 61.8200
" />
<path d="M207.4072 61.1080
L207.4072 61.4050
" />
<path d="M208.0022 56.8750
L208.8772 56.8750
" />
<path d="M208.8772 56.8750
L209.0022 57.0000
" />
<path d="M205.1722 60.8330
L205.3102 60.6950
" />
<path d="M207.4072 61.4050
L207.4472 61.4450
" />
<path d="M208.9022 61.4450
L209.0922 61.6350
" />
<path d="M205.3102 60.6950
L206.9942 60.6950
" />
<path d="M205.1722 66.1700
L205.1722 60.8330
" />
<path d="M206.8772 67.0000
L206.0022 67.0000
" />
</g>
<g >
</g>
<g style="fill:#000000; fill-opacity:0.0; 
stroke:#000000; stroke-width:0.2500; stroke-opacity:1; 
stroke-linecap:round; stroke-linejoin:round;">
<g >
</g>
<g style="fill:#000000; fill-opacity:1.0000; 
stroke:#000000; stroke-width:0.0000; stroke-opacity:1; 
stroke-linecap:round; stroke-linejoin:round;">
<path style="fill:#000000; fill-opacity:1.0000; 
stroke:#000000; stroke-width:0.0000; stroke-opacity:1; 
stroke-linecap:round; stroke-linejoin:round;fill-rule:evenodd;"
d="M 206.0001,48.0007
205.9567,48.0045
205.8284,48.0171
205.8125,48.0200
205.7446,48.0382
205.7432,48.0386
205.6489,48.0672
205.6358,48.0722
205.5665,48.1045
205.5641,48.1057
205.4792,48.1511
205.4741,48.1542
205.4070,48.2013
205.4040,48.2035
205.3693,48.2320
205.3309,48.2635
205.3273,48.2668
205.2690,48.3251
205.2657,48.3287
205.2057,48.4018
205.2035,48.4048
205.1564,48.4719
205.1533,48.4770
205.1079,48.5619
205.1067,48.5643
205.0744,48.6336
205.0694,48.6467
205.0408,48.7409
205.0404,48.7424
205.0222,48.8103
205.0193,48.8262
205.0067,48.9545
205.0029,48.9978
205.0027,49.0022
205.0027,60.3228
205.0216,60.3810
205.0711,60.4169
205.1323,60.4169
205.1585,60.4039
205.1705,60.3954
205.1705,60.3954
205.1705,60.3954
205.1705,60.3954
205.1720,60.3951
205.1958,60.3852
205.1971,60.3844
205.2375,60.3773
205.2417,60.3764
205.2680,60.3693
205.2814,60.3657
205.2814,60.3657
205.2858,60.3661
205.3223,60.3693
205.3266,60.3695
206.9778,60.3695
206.9821,60.3693
207.0230,60.3657
207.0627,60.3764
207.0669,60.3773
207.1073,60.3844
207.1073,60.3844
207.1086,60.3852
207.1324,60.3951
207.1339,60.3954
207.1339,60.3954
207.1675,60.4190
207.1711,60.4213
207.1793,60.4260
207.2067,60.4418
207.2330,60.4732
207.2360,60.4764
207.6258,60.8662
207.6290,60.8692
207.6604,60.8955
207.6604,60.8955
207.6809,60.9311
207.6832,60.9347
207.7068,60.9683
207.7068,60.9683
207.7071,60.9698
207.7170,60.9936
207.7178,60.9949
207.7178,60.9949
207.7249,61.0353
207.7258,61.0395
207.7276,61.0461
207.7609,61.0974
207.8180,61.1194
207.8232,61.1195
208.5777,61.1195
208.6359,61.1006
208.6719,61.0511
208.6767,61.0205
208.6767,58.5403
208.6578,58.4822
208.6083,58.4462
208.5584,58.4433
208.5306,58.4488
208.5220,58.4505
208.5220,58.4505
208.5219,58.4505
208.5219,58.4505
207.4825,58.4505
207.4825,58.4505
207.4240,58.4389
207.3576,58.3946
207.3133,58.3282
207.3017,58.2697
207.3017,57.0250
206.8022,57.0250
206.8022,58.2948
206.7993,58.3199
206.7540,58.4225
206.6747,58.5018
206.5721,58.5471
206.5470,58.5500
206.1522,58.5500
206.1522,58.5500
205.8522,58.5500
205.8522,58.5500
205.4574,58.5500
205.4574,58.5500
205.4323,58.5471
205.3297,58.5018
205.2504,58.4225
205.2051,58.3199
205.2022,58.2948
205.2022,58.2948
205.2022,57.0250
205.2022,57.0250
205.8522,57.0250
205.8522,57.0250
205.8522,58.5500
206.1522,58.5500
206.1522,57.0250
206.1522,57.0250
206.8022,57.0250
207.3017,57.0250
207.3017,56.7250
206.8022,56.7250
206.8022,56.7250
206.1522,56.7250
206.1522,56.7250
206.1522,55.2000
205.8522,55.2000
205.8522,56.7250
205.8522,56.7250
205.2022,56.7250
205.2022,56.7250
205.2022,55.4552
205.2022,55.4552
205.2051,55.4301
205.2504,55.3275
205.3297,55.2482
205.4323,55.2029
205.4574,55.2000
205.8522,55.2000
206.1522,55.2000
206.5470,55.2000
206.5470,55.2000
206.5721,55.2029
206.6747,55.2482
206.7540,55.3275
206.7993,55.4301
206.8022,55.4552
206.8022,56.7250
207.3017,56.7250
207.3017,55.4803
207.3133,55.4218
207.3576,55.3554
207.3577,55.3554
207.4240,55.3111
207.4240,55.3111
207.4240,55.3111
207.4240,55.3111
207.4824,55.2995
207.4825,55.2995
208.5219,55.2995
208.5219,55.2995
208.5220,55.2995
208.5804,55.3111
208.5804,55.3111
208.6467,55.3554
208.6468,55.3555
208.6911,55.4218
208.6911,55.4218
208.7027,55.4802
208.7027,55.4803
208.7027,56.4505
208.7216,56.5087
208.7711,56.5447
208.8017,56.5495
208.8608,56.5495
208.8651,56.5493
208.9060,56.5457
208.9060,56.5457
208.9456,56.5564
208.9499,56.5573
208.9902,56.5644
208.9903,56.5644
208.9916,56.5652
209.0154,56.5751
209.0169,56.5754
209.0169,56.5754
209.0505,56.5990
209.0541,56.6013
209.0623,56.6060
209.0897,56.6218
209.1160,56.6532
209.1189,56.6564
209.2208,56.7583
209.2240,56.7612
209.2554,56.7875
209.2554,56.7875
209.2759,56.8231
209.2782,56.8267
209.3018,56.8603
209.3018,56.8603
209.3021,56.8618
209.3120,56.8856
209.3128,56.8869
209.3128,56.8870
209.3199,56.9273
209.3208,56.9316
209.3315,56.9712
209.3315,56.9712
209.3279,57.0121
209.3277,57.0164
209.3277,61.2014
209.3466,61.2596
209.3888,61.2929
209.3950,61.2955
209.5205,61.3917
209.5205,61.3917
209.6167,61.5172
209.6167,61.5172
209.6772,61.6632
209.6772,61.6632
209.6979,61.8200
209.6979,61.8200
209.6772,61.9768
209.6772,61.9768
209.6167,62.1228
209.6167,62.1228
209.6167,62.1228
209.5205,62.2483
209.3950,62.3445
209.3950,62.3445
209.3950,62.3445
209.3448,62.3653
209.2490,62.4050
209.1314,62.4205
209.0922,62.4257
209.0922,62.4257
209.0922,62.4257
209.0608,62.4216
208.9354,62.4050
208.8396,62.3653
208.7786,62.3605
208.7264,62.3925
208.7030,62.4490
208.7027,62.4568
208.7027,63.0755
208.7216,63.1337
208.7711,63.1697
208.8017,63.1745
209.7367,63.1745
209.7949,63.1556
209.7970,63.1540
209.8994,63.0755
210.0454,63.0150
210.0454,63.0150
210.2022,62.9943
210.2022,62.9943
210.3590,63.0150
210.3590,63.0150
210.5050,63.0755
210.5050,63.0755
210.6305,63.1717
210.6305,63.1717
210.7267,63.2972
210.7267,63.2972
210.7872,63.4432
210.7872,63.4432
210.8079,63.6000
210.8079,63.6000
210.7872,63.7568
210.7872,63.7568
210.7267,63.9028
210.7267,63.9028
210.7267,63.9028
210.6305,64.0283
210.6039,64.0487
210.5664,64.0774
210.5318,64.1279
210.5277,64.1560
210.5277,64.6242
210.5466,64.6824
210.5567,64.6942
212.1330,66.2705
212.1875,66.2983
212.2030,66.2995
214.5219,66.2995
214.5219,66.2995
214.5220,66.2995
214.5804,66.3111
214.5804,66.3111
214.6467,66.3554
214.6468,66.3555
214.6911,66.4218
214.6911,66.4218
214.7027,66.4802
214.7027,66.4803
214.7027,67.5197
214.7027,67.5198
214.6911,67.5782
214.6911,67.5782
214.6468,67.6446
214.5804,67.6889
214.5360,67.6977
214.5220,67.7005
214.5220,67.7005
214.5219,67.7005
214.5219,67.7005
211.7325,67.7005
211.7325,67.7005
211.6740,67.6889
211.6076,67.6446
211.5633,67.5782
211.5517,67.5197
211.5517,66.6508
211.5328,66.5926
211.5227,66.5808
209.9836,65.0417
209.9804,65.0388
209.9490,65.0125
209.9285,64.9769
209.9262,64.9733
209.9026,64.9397
209.9023,64.9382
209.8924,64.9143
209.8916,64.9130
209.8845,64.8727
209.8836,64.8685
209.8729,64.8288
209.8765,64.7879
209.8767,64.7836
209.8767,64.1560
209.8578,64.0978
209.8380,64.0774
209.7739,64.0283
209.6777,63.9028
209.6709,63.8866
209.6312,63.8401
209.5795,63.8255
208.8017,63.8255
208.7435,63.8444
208.7075,63.8939
208.7027,63.9245
208.7027,64.5197
208.7027,64.5198
208.6911,64.5782
208.6911,64.5782
208.6468,64.6445
208.6468,64.6446
208.6467,64.6446
208.5833,64.6870
208.5804,64.6889
208.5360,64.6977
208.5220,64.7005
208.5220,64.7005
208.5219,64.7005
208.5219,64.7005
207.4825,64.7005
207.4825,64.7005
207.4240,64.6889
207.4240,64.6889
207.4144,64.6870
207.4138,64.6902
207.3692,64.6866
207.3171,64.7186
207.2936,64.7751
207.2942,64.7958
207.3079,64.9000
207.3079,64.9000
207.2872,65.0568
207.2872,65.0568
207.2267,65.2028
207.2267,65.2028
207.1305,65.3283
207.1305,65.3283
207.0050,65.4245
207.0050,65.4245
207.0050,65.4245
206.9042,65.4663
206.8590,65.4850
206.7414,65.5005
206.7022,65.5057
206.7022,65.5057
206.7022,65.5057
206.6708,65.5016
206.5454,65.4850
206.3994,65.4245
206.3625,65.3962
206.3048,65.3758
206.2461,65.3932
206.2419,65.3962
206.2050,65.4245
206.2050,65.4245
206.2050,65.4245
206.1042,65.4663
206.0590,65.4850
205.9414,65.5005
205.9022,65.5057
205.9022,65.5057
205.9022,65.5057
205.8708,65.5016
205.7454,65.4850
205.6346,65.4391
205.5736,65.4343
205.5214,65.4663
205.4980,65.5228
205.4977,65.5306
205.4977,65.9942
205.5166,66.0524
205.5267,66.0642
205.7330,66.2705
205.7875,66.2983
205.8030,66.2995
208.2719,66.2995
208.2719,66.2995
208.2720,66.2995
208.3304,66.3111
208.3304,66.3111
208.3967,66.3554
208.3968,66.3555
208.4411,66.4218
208.4411,66.4218
208.4527,66.4802
208.4527,66.4803
208.4527,67.5197
208.4527,67.5198
208.4411,67.5782
208.4411,67.5782
208.3968,67.6446
208.3304,67.6889
208.2860,67.6977
208.2720,67.7005
208.2720,67.7005
208.2719,67.7005
208.2719,67.7005
205.4825,67.7005
205.4825,67.7005
205.4240,67.6889
205.3576,67.6446
205.3133,67.5782
205.3017,67.5197
205.3017,66.8008
205.2828,66.7426
205.2727,66.7308
205.1717,66.6298
205.1172,66.6021
205.0568,66.6116
205.0135,66.6549
205.0027,66.6998
205.0027,70.9978
205.0029,71.0022
205.0067,71.0455
205.0193,71.1738
205.0222,71.1897
205.0404,71.2576
205.0408,71.2591
205.0694,71.3533
205.0744,71.3664
205.1067,71.4357
205.1079,71.4381
205.1533,71.5230
205.1564,71.5281
205.2035,71.5952
205.2057,71.5982
205.2657,71.6713
205.2690,71.6749
205.3273,71.7332
205.3309,71.7365
205.4040,71.7965
205.4070,71.7987
205.4741,71.8458
205.4792,71.8489
205.5641,71.8943
205.5665,71.8955
205.6358,71.9278
205.6489,71.9328
205.7431,71.9614
205.7446,71.9618
205.8125,71.9800
205.8284,71.9829
205.9567,71.9955
206.0000,71.9993
206.0044,71.9995
228.0000,71.9995
228.0044,71.9993
228.0477,71.9955
228.1760,71.9829
228.1919,71.9800
228.2288,71.9701
228.2598,71.9618
228.2613,71.9614
228.3555,71.9328
228.3686,71.9278
228.4379,71.8955
228.4403,71.8943
228.5252,71.8489
228.5303,71.8458
228.5974,71.7987
228.6004,71.7965
228.6735,71.7365
228.6771,71.7332
228.7354,71.6749
228.7387,71.6713
228.7987,71.5982
228.8009,71.5952
228.8480,71.5281
228.8511,71.5230
228.8965,71.4381
228.8977,71.4357
228.9300,71.3664
228.9350,71.3533
228.9636,71.2590
228.9640,71.2576
228.9822,71.1897
228.9851,71.1738
228.9977,71.0454
228.9983,71.0385
229.0015,71.0021
229.0017,70.9978
229.0017,70.0000
228.3579,70.0000
228.3373,70.2354
228.2761,70.4637
228.1762,70.6778
228.1762,70.6778
228.1762,70.6778
228.1762,70.6778
228.0407,70.8714
227.8736,71.0385
227.8736,71.0385
227.8736,71.0385
227.8093,71.0835
227.6800,71.1740
227.6800,71.1740
227.6800,71.1740
227.6800,71.1740
227.4659,71.2739
227.4659,71.2739
227.2376,71.3351
227.2376,71.3351
227.2376,71.3351
227.0612,71.3505
227.0612,71.3505
226.9432,71.3505
226.7668,71.3351
226.7668,71.3351
226.7668,71.3351
226.5385,71.2739
226.3244,71.1740
226.1308,71.0385
225.9637,70.8714
225.8282,70.6778
225.7283,70.4637
225.6671,70.2354
225.6671,70.2354
225.6465,70.0000
225.6465,70.0000
225.6671,69.7646
225.6671,69.7646
225.6671,69.7646
225.7283,69.5363
225.7360,69.5198
225.7360,69.5197
214.7027,69.5197
214.7027,69.5198
214.6911,69.5782
214.6911,69.5782
214.6468,69.6446
214.6050,69.6725
214.6032,69.6736
214.5654,69.7217
214.5630,69.7828
214.5668,69.7938
214.5872,69.8432
214.6079,70.0000
214.6079,70.0000
214.5872,70.1568
214.5872,70.1568
214.5267,70.3028
214.5267,70.3028
214.5267,70.3028
214.4305,70.4283
214.3050,70.5245
214.1590,70.5850
214.0414,70.6005
214.0022,70.6057
214.0022,70.6057
214.0022,70.6057
213.9708,70.6016
213.8454,70.5850
213.6994,70.5245
213.5739,70.4283
213.5739,70.4283
213.5722,70.4266
213.5707,70.4258
213.5688,70.4243
213.5685,70.4247
213.5177,70.3988
213.4573,70.4084
213.4322,70.4266
213.4305,70.4283
213.4305,70.4283
213.3050,70.5245
213.1590,70.5850
213.0414,70.6005
213.0022,70.6057
213.0022,70.6057
213.0022,70.6057
212.9708,70.6016
212.8454,70.5850
212.6994,70.5245
212.5739,70.4283
212.5739,70.4283
212.5722,70.4266
212.5707,70.4258
212.5688,70.4243
212.5685,70.4247
212.5177,70.3988
212.4573,70.4084
212.4322,70.4266
212.4305,70.4283
212.4305,70.4283
212.3050,70.5245
212.1590,70.5850
212.0414,70.6005
212.0022,70.6057
212.0022,70.6057
212.0022,70.6057
211.9708,70.6016
211.8454,70.5850
211.6994,70.5245
211.5739,70.4283
211.4777,70.3028
211.4172,70.1568
211.4117,70.1153
211.3854,70.0600
211.3316,70.0308
211.2757,70.0367
211.1590,70.0850
211.0414,70.1005
211.0022,70.1057
211.0022,70.1057
211.0022,70.1057
210.9708,70.1016
210.8454,70.0850
210.6994,70.0245
210.5739,69.9283
210.4777,69.8028
210.4172,69.6568
210.4024,69.5448
208.5522,69.5448
208.5493,69.5699
208.5040,69.6725
208.4247,69.7518
208.3221,69.7971
208.2970,69.8000
207.0272,69.8000
207.0272,69.8000
207.0272,69.1500
207.0272,69.1500
206.7272,69.1500
206.7272,69.8000
206.7272,69.8000
205.4574,69.8000
205.4574,69.8000
205.4323,69.7971
205.3297,69.7518
205.2504,69.6725
205.2051,69.5699
205.2022,69.5448
205.2022,69.5448
205.2022,69.1500
205.2022,69.1500
206.7272,69.1500
207.0272,69.1500
208.5522,69.1500
208.5522,69.1500
208.5522,69.5448
210.4024,69.5448
210.3965,69.5000
210.4172,69.3432
210.4777,69.1972
210.4777,69.1972
210.5739,69.0717
210.5739,69.0717
210.5739,69.0717
210.5739,69.0717
210.5739,69.0717
210.6994,68.9755
210.8454,68.9150
210.8454,68.9150
211.0022,68.8943
211.0022,68.8943
211.0822,68.9049
211.1424,68.8937
211.1652,68.8767
211.1919,68.8500
208.5522,68.8500
208.5522,68.8500
207.0272,68.8500
207.0272,68.8500
207.0272,68.2000
207.0272,68.2000
206.7272,68.2000
206.7272,68.8500
206.7272,68.8500
205.2022,68.8500
205.2022,68.8500
205.2022,68.4552
205.2022,68.4552
205.2051,68.4301
205.2504,68.3275
205.3297,68.2482
205.4323,68.2029
205.4574,68.2000
206.7272,68.2000
207.0272,68.2000
208.2970,68.2000
208.2970,68.2000
208.3221,68.2029
208.4247,68.2482
208.5040,68.3275
208.5493,68.4301
208.5522,68.4552
208.5522,68.8500
211.1919,68.8500
211.2605,68.7814
211.2634,68.7782
211.2897,68.7468
211.3124,68.7337
211.3253,68.7263
211.3289,68.7240
211.3625,68.7004
211.3625,68.7004
211.3640,68.7001
211.3879,68.6902
211.3892,68.6894
211.4295,68.6823
211.4338,68.6814
211.4734,68.6707
211.4783,68.6694
211.5296,68.6361
211.5516,68.5790
211.5517,68.5738
211.5517,68.4803
211.5517,68.4802
211.5567,68.4552
211.5633,68.4218
211.6076,68.3554
211.6077,68.3554
211.6740,68.3111
211.6740,68.3111
211.6740,68.3111
211.6740,68.3111
211.7324,68.2995
211.7325,68.2995
214.5219,68.2995
214.5219,68.2995
214.5220,68.2995
214.5804,68.3111
214.5804,68.3111
214.6467,68.3554
214.6468,68.3555
214.6911,68.4218
214.6911,68.4218
214.7027,68.4802
214.7027,68.4803
214.7027,69.5197
225.7360,69.5197
225.8282,69.3222
225.8282,69.3222
225.9637,69.1286
225.9637,69.1286
225.9637,69.1286
226.1308,68.9615
226.1308,68.9615
226.1308,68.9615
226.3244,68.8260
226.3244,68.8260
226.5385,68.7261
226.5385,68.7261
226.6483,68.6967
226.7668,68.6649
226.7668,68.6649
226.7668,68.6649
226.9432,68.6495
226.9432,68.6495
227.0612,68.6495
227.0612,68.6495
227.2376,68.6649
227.4659,68.7261
227.6800,68.8260
227.6800,68.8260
227.8736,68.9615
228.0407,69.1286
228.1762,69.3222
228.2761,69.5363
228.3373,69.7646
228.3579,70.0000
228.3579,70.0000
229.0017,70.0000
229.0017,60.0000
223.1077,60.0000
223.0879,60.4913
223.0879,60.4913
223.0879,60.4913
223.0879,60.4913
223.0286,60.9794
223.0286,60.9794
222.9302,61.4611
222.9302,61.4611
222.7934,61.9334
222.7934,61.9334
222.7216,62.1228
222.6191,62.3931
222.4893,62.6667
222.4096,62.8346
222.4083,62.8373
222.1625,63.2632
222.0926,63.3643
221.8832,63.6678
221.5722,64.0487
221.2326,64.4022
221.2316,64.4033
220.9117,64.6866
220.8636,64.7293
220.8636,64.7293
220.4705,65.0247
220.2863,65.1412
220.0549,65.2875
220.0549,65.2875
220.0549,65.2875
220.0549,65.2875
219.6676,65.4908
219.6196,65.5160
219.1672,65.7087
218.9367,65.7857
218.7009,65.8644
218.7008,65.8644
218.7008,65.8644
218.2234,65.9821
217.7381,66.0609
217.2480,66.1005
217.2480,66.1005
216.7564,66.1005
216.7564,66.1005
216.2663,66.0609
215.7810,65.9821
215.3036,65.8644
214.8372,65.7087
214.3848,65.5160
214.1391,65.3870
213.9495,65.2875
213.9495,65.2875
213.9495,65.2875
213.5339,65.0247
213.1408,64.7293
212.7728,64.4033
212.4322,64.0487
212.1212,63.6678
211.8419,63.2632
211.5961,62.8373
211.3853,62.3931
211.2110,61.9334
211.2110,61.9334
211.2110,61.9334
211.0742,61.4611
211.0742,61.4611
211.0742,61.4611
210.9758,60.9794
210.9428,60.7073
210.9165,60.4913
210.9165,60.4913
210.9165,60.4913
210.8967,60.0000
210.9165,59.5087
210.9165,59.5087
210.9165,59.5087
210.9758,59.0206
210.9758,59.0206
211.0742,58.5389
211.0742,58.5389
211.2110,58.0666
211.2110,58.0666
211.2290,58.0189
211.3853,57.6069
211.5961,57.1627
211.8419,56.7368
212.0396,56.4505
212.1212,56.3322
212.4322,55.9513
212.7728,55.5967
212.9043,55.4802
213.0488,55.3522
213.1408,55.2707
213.1408,55.2707
213.5339,54.9753
213.8252,54.7911
213.9495,54.7125
213.9495,54.7125
213.9495,54.7125
213.9495,54.7125
214.3848,54.4840
214.3848,54.4840
214.3848,54.4840
214.3848,54.4840
214.8372,54.2913
214.8372,54.2913
214.8372,54.2913
215.3035,54.1356
215.3036,54.1356
215.6649,54.0465
215.7810,54.0179
216.2663,53.9391
216.2663,53.9391
216.5412,53.9169
216.7564,53.8995
217.2480,53.8995
217.4459,53.9155
217.7381,53.9391
218.2234,54.0179
218.7008,54.1356
218.7009,54.1356
219.1672,54.2913
219.4598,54.4160
219.6196,54.4840
219.6196,54.4840
219.6196,54.4840
219.6196,54.4840
220.0549,54.7125
220.0549,54.7125
220.4705,54.9753
220.8636,55.2707
220.8636,55.2707
221.2316,55.5967
221.5722,55.9513
221.8832,56.3322
222.1625,56.7368
222.4083,57.1627
222.6191,57.6069
222.7934,58.0666
222.7934,58.0666
222.9302,58.5389
222.9302,58.5389
223.0286,59.0206
223.0286,59.0206
223.0879,59.5087
223.0879,59.5087
223.0879,59.5087
223.0879,59.5087
223.1077,60.0000
229.0017,60.0000
229.0017,50.0000
228.3579,50.0000
228.3373,50.2354
228.2761,50.4637
228.1762,50.6778
228.1762,50.6778
228.1762,50.6778
228.1762,50.6778
228.0407,50.8714
227.8736,51.0385
227.6800,51.1740
227.6800,51.1740
227.6800,51.1740
227.6800,51.1740
227.4659,51.2739
227.4659,51.2739
227.2376,51.3351
227.2376,51.3351
227.2376,51.3351
227.0612,51.3505
227.0612,51.3505
226.9432,51.3505
226.7668,51.3351
226.7668,51.3351
226.7668,51.3351
226.5385,51.2739
226.3244,51.1740
226.1308,51.0385
225.9637,50.8714
225.8282,50.6778
225.7283,50.4637
225.6671,50.2354
225.6465,50.0000
208.3579,50.0000
208.3373,50.2354
208.2761,50.4637
208.1762,50.6778
208.1762,50.6778
208.1762,50.6778
208.1762,50.6778
208.0407,50.8714
207.8736,51.0385
207.6800,51.1740
207.6800,51.1740
207.6800,51.1740
207.6800,51.1740
207.4659,51.2739
207.4659,51.2739
207.2376,51.3351
207.2376,51.3351
207.2376,51.3351
207.0612,51.3505
207.0612,51.3505
206.9432,51.3505
206.7668,51.3351
206.7668,51.3351
206.7668,51.3351
206.5385,51.2739
206.3244,51.1740
206.1308,51.0385
205.9637,50.8714
205.8282,50.6778
205.7283,50.4637
205.6671,50.2354
205.6465,50.0000
205.6671,49.7646
205.7283,49.5363
205.8282,49.3222
205.9637,49.1286
206.1308,48.9615
206.1308,48.9615
206.1308,48.9615
206.3240,48.8262
206.3244,48.8260
206.3244,48.8260
206.3244,48.8260
206.3244,48.8260
206.5385,48.7261
206.5385,48.7261
206.6146,48.7057
206.7668,48.6649
206.7668,48.6649
206.7668,48.6649
206.9432,48.6495
206.9432,48.6495
207.0612,48.6495
207.0612,48.6495
207.2376,48.6649
207.4659,48.7261
207.6800,48.8260
207.6800,48.8260
207.8736,48.9615
208.0407,49.1286
208.1762,49.3222
208.2761,49.5363
208.3373,49.7646
208.3579,50.0000
208.3579,50.0000
225.6465,50.0000
225.6465,50.0000
225.6671,49.7646
225.7283,49.5363
225.8282,49.3222
225.9637,49.1286
226.1308,48.9615
226.1308,48.9615
226.1308,48.9615
226.3240,48.8262
226.3244,48.8260
226.3244,48.8260
226.3244,48.8260
226.3244,48.8260
226.5385,48.7261
226.5385,48.7261
226.6146,48.7057
226.7668,48.6649
226.7668,48.6649
226.7668,48.6649
226.9432,48.6495
226.9432,48.6495
227.0612,48.6495
227.0612,48.6495
227.2376,48.6649
227.4659,48.7261
227.6800,48.8260
227.6800,48.8260
227.8736,48.9615
228.0407,49.1286
228.1762,49.3222
228.2761,49.5363
228.3373,49.7646
228.3579,50.0000
228.3579,50.0000
229.0017,50.0000
229.0017,49.0022
229.0015,48.9979
228.9977,48.9545
228.9851,48.8262
228.9822,48.8103
228.9640,48.7423
228.9636,48.7410
228.9350,48.6467
228.9300,48.6336
228.9029,48.5756
228.8976,48.5643
228.8965,48.5619
228.8511,48.4770
228.8480,48.4720
228.8009,48.4048
228.7987,48.4018
228.7387,48.3287
228.7355,48.3251
228.6771,48.2667
228.6735,48.2635
228.6004,48.2035
228.5974,48.2013
228.5302,48.1542
228.5252,48.1511
228.4403,48.1057
228.4379,48.1046
228.3686,48.0722
228.3555,48.0672
228.2612,48.0386
228.2599,48.0382
228.1919,48.0200
228.1760,48.0171
228.0477,48.0045
228.0043,48.0007
228.0000,48.0005
206.0044,48.0005
Z" /> 
</g>
</g>
</g>
<g style="fill:#FFFFFF; fill-opacity:1.0000; 
stroke:#FFFFFF; stroke-width:0.0000; stroke-opacity:1; 
stroke-linecap:round; stroke-linejoin:round;">
<circle cx="210.2022" cy="63.6000" r="0.2000" /> 
</g>
<g style="fill:#FFFFFF; fill-opacity:1.0000; 
stroke:#FFFFFF; stroke-width:0.0212; stroke-opacity:1; 
stroke-linecap:round; stroke-linejoin:round;">
</g>
<g style="fill:#FFFFFF; fill-opacity:1.0000; 
stroke:#FFFFFF; stroke-width:0.0000; stroke-opacity:1; 
stroke-linecap:round; stroke-linejoin:round;">
<circle cx="223.0022" cy="52.0000" r="0.2000" /> 
</g>
<g style="fill:#FFFFFF; fill-opacity:1.0000; 
stroke:#FFFFFF; stroke-width:0.0212; stroke-opacity:1; 
stroke-linecap:round; stroke-linejoin:round;">
</g>
<g style="fill:#FFFFFF; fill-opacity:1.0000; 
stroke:#FFFFFF; stroke-width:0.0000; stroke-opacity:1; 
stroke-linecap:round; stroke-linejoin:round;">
<circle cx="207.0740" cy="58.8038" r="0.2000" /> 
</g>
<g style="fill:#FFFFFF; fill-opacity:1.0000; 
stroke:#FFFFFF; stroke-width:0.0212; stroke-opacity:1; 
stroke-linecap:round; stroke-linejoin:round;">
</g>
<g style="fill:#FFFFFF; fill-opacity:1.0000; 
stroke:#FFFFFF; stroke-width:0.0000; stroke-opacity:1; 
stroke-linecap:round; stroke-linejoin:round;">
<circle cx="226.9304" cy="61.1962" r="0.2000" /> 
</g>
<g style="fill:#FFFFFF; fill-opacity:1.0000; 
stroke:#FFFFFF; stroke-width:0.0212; stroke-opacity:1; 
stroke-linecap:round; stroke-linejoin:round;">
</g>
<g style="fill:#FFFFFF; fill-opacity:1.0000; 
stroke:#FFFFFF; stroke-width:0.0000; stroke-opacity:1; 
stroke-linecap:round; stroke-linejoin:round;">
<circle cx="220.9304" cy="69.1962" r="0.2000" /> 
</g>
<g style="fill:#FFFFFF; fill-opacity:1.0000; 
stroke:#FFFFFF; stroke-width:0.0212; stroke-opacity:1; 
stroke-linecap:round; stroke-linejoin:round;">
</g>
<g style="fill:#FFFFFF; fill-opacity:1.0000; 
stroke:#FFFFFF; stroke-width:0.0000; stroke-opacity:1; 
stroke-linecap:round; stroke-linejoin:round;">
<circle cx="215.8060" cy="69.9282" r="0.2000" /> 
</g>
<g style="fill:#FFFFFF; fill-opacity:1.0000; 
stroke:#FFFFFF; stroke-width:0.0212; stroke-opacity:1; 
stroke-linecap:round; stroke-linejoin:round;">
</g>
<g style="fill:#FFFFFF; fill-opacity:1.0000; 
stroke:#FFFFFF; stroke-width:0.0000; stroke-opacity:1; 
stroke-linecap:round; stroke-linejoin:round;">
<circle cx="213.0740" cy="50.8038" r="0.2000" /> 
</g>
<g style="fill:#FFFFFF; fill-opacity:1.0000; 
stroke:#FFFFFF; stroke-width:0.0212; stroke-opacity:1; 
stroke-linecap:round; stroke-linejoin:round;">
</g>
<g style="fill:#FFFFFF; fill-opacity:1.0000; 
stroke:#FFFFFF; stroke-width:0.0000; stroke-opacity:1; 
stroke-linecap:round; stroke-linejoin:round;">
<circle cx="225.0022" cy="66.0000" r="0.2000" /> 
</g>
<g style="fill:#FFFFFF; fill-opacity:1.0000; 
stroke:#FFFFFF; stroke-width:0.0212; stroke-opacity:1; 
stroke-linecap:round; stroke-linejoin:round;">
</g>
<g style="fill:#FFFFFF; fill-opacity:1.0000; 
stroke:#FFFFFF; stroke-width:0.0000; stroke-opacity:1; 
stroke-linecap:round; stroke-linejoin:round;">
<circle cx="210.6022" cy="67.7000" r="0.2000" /> 
</g>
<g style="fill:#FFFFFF; fill-opacity:1.0000; 
stroke:#FFFFFF; stroke-width:0.0212; stroke-opacity:1; 
stroke-linecap:round; stroke-linejoin:round;">
</g>
<g style="fill:#FFFFFF; fill-opacity:1.0000; 
stroke:#FFFFFF; stroke-width:0.0000; stroke-opacity:1; 
stroke-linecap:round; stroke-linejoin:round;">
<circle cx="226.1984" cy="56.0718" r="0.2000" /> 
</g>
<g style="fill:#FFFFFF; fill-opacity:1.0000; 
stroke:#FFFFFF; stroke-width:0.0212; stroke-opacity:1; 
stroke-linecap:round; stroke-linejoin:round;">
</g>
<g style="fill:#FFFFFF; fill-opacity:1.0000; 
stroke:#FFFFFF; stroke-width:0.0000; stroke-opacity:1; 
stroke-linecap:round; stroke-linejoin:round;">
<circle cx="209.0022" cy="54.0000" r="0.2000" /> 
</g>
<g style="fill:#FFFFFF; fill-opacity:1.0000; 
stroke:#FFFFFF; stroke-width:0.0212; stroke-opacity:1; 
stroke-linecap:round; stroke-linejoin:round;">
</g>
<g style="fill:#FFFFFF; fill-opacity:1.0000; 
stroke:#FFFFFF; stroke-width:0.0000; stroke-opacity:1; 
stroke-linecap:round; stroke-linejoin:round;">
<circle cx="208.7422" cy="66.0200" r="0.2000" /> 
</g>
<g style="fill:#FFFFFF; fill-opacity:1.0000; 
stroke:#FFFFFF; stroke-width:0.0212; stroke-opacity:1; 
stroke-linecap:round; stroke-linejoin:round;">
</g>
<g style="fill:#FFFFFF; fill-opacity:1.0000; 
stroke:#FFFFFF; stroke-width:0.0000; stroke-opacity:1; 
stroke-linecap:round; stroke-linejoin:round;">
<circle cx="218.1984" cy="50.0718" r="0.2000" /> 
</g>
<g style="fill:#FFFFFF; fill-opacity:1.0000; 
stroke:#FFFFFF; stroke-width:0.0212; stroke-opacity:1; 
stroke-linecap:round; stroke-linejoin:round;">
</g>
<g style="fill:#FFFFFF; fill-opacity:1.0000; 
stroke:#FFFFFF; stroke-width:0.0000; stroke-opacity:1; 
stroke-linecap:round; stroke-linejoin:round;">
<circle cx="206.7022" cy="61.4000" r="0.2000" /> 
</g>
<g style="fill:#FFFFFF; fill-opacity:1.0000; 
stroke:#FFFFFF; stroke-width:0.0212; stroke-opacity:1; 
stroke-linecap:round; stroke-linejoin:round;">
</g>
<g style="fill:#FFFFFF; fill-opacity:1.0000; 
stroke:#FFFFFF; stroke-width:0.0000; stroke-opacity:1; 
stroke-linecap:round; stroke-linejoin:round;">
<circle cx="214.0022" cy="70.0000" r="0.2000" /> 
</g>
<g style="fill:#FFFFFF; fill-opacity:1.0000; 
stroke:#FFFFFF; stroke-width:0.0212; stroke-opacity:1; 
stroke-linecap:round; stroke-linejoin:round;">
</g>
<g style="fill:#FFFFFF; fill-opacity:1.0000; 
stroke:#FFFFFF; stroke-width:0.0000; stroke-opacity:1; 
stroke-linecap:round; stroke-linejoin:round;">
<circle cx="205.9022" cy="61.4000" r="0.2000" /> 
</g>
<g style="fill:#FFFFFF; fill-opacity:1.0000; 
stroke:#FFFFFF; stroke-width:0.0212; stroke-opacity:1; 
stroke-linecap:round; stroke-linejoin:round;">
</g>
<g style="fill:#FFFFFF; fill-opacity:1.0000; 
stroke:#FFFFFF; stroke-width:0.0000; stroke-opacity:1; 
stroke-linecap:round; stroke-linejoin:round;">
<circle cx="205.9022" cy="64.9000" r="0.2000" /> 
</g>
<g style="fill:#FFFFFF; fill-opacity:1.0000; 
stroke:#FFFFFF; stroke-width:0.0212; stroke-opacity:1; 
stroke-linecap:round; stroke-linejoin:round;">
</g>
<g style="fill:#FFFFFF; fill-opacity:1.0000; 
stroke:#FFFFFF; stroke-width:0.0000; stroke-opacity:1; 
stroke-linecap:round; stroke-linejoin:round;">
<circle cx="206.7022" cy="64.9000" r="0.2000" /> 
</g>
<g style="fill:#FFFFFF; fill-opacity:1.0000; 
stroke:#FFFFFF; stroke-width:0.0212; stroke-opacity:1; 
stroke-linecap:round; stroke-linejoin:round;">
</g>
<g style="fill:#FFFFFF; fill-opacity:1.0000; 
stroke:#FFFFFF; stroke-width:0.0000; stroke-opacity:1; 
stroke-linecap:round; stroke-linejoin:round;">
<circle cx="212.0022" cy="70.0000" r="0.2000" /> 
</g>
<g style="fill:#FFFFFF; fill-opacity:1.0000; 
stroke:#FFFFFF; stroke-width:0.0212; stroke-opacity:1; 
stroke-linecap:round; stroke-linejoin:round;">
</g>
<g style="fill:#FFFFFF; fill-opacity:1.0000; 
stroke:#FFFFFF; stroke-width:0.0000; stroke-opacity:1; 
stroke-linecap:round; stroke-linejoin:round;">
<circle cx="211.0022" cy="69.5000" r="0.2000" /> 
</g>
<g style="fill:#FFFFFF; fill-opacity:1.0000; 
stroke:#FFFFFF; stroke-width:0.0212; stroke-opacity:1; 
stroke-linecap:round; stroke-linejoin:round;">
</g>
<g style="fill:#FFFFFF; fill-opacity:1.0000; 
stroke:#FFFFFF; stroke-width:0.0000; stroke-opacity:1; 
stroke-linecap:round; stroke-linejoin:round;">
<circle cx="213.0022" cy="70.0000" r="0.2000" /> 
</g>
<g style="fill:#FFFFFF; fill-opacity:1.0000; 
stroke:#FFFFFF; stroke-width:0.0212; stroke-opacity:1; 
stroke-linecap:round; stroke-linejoin:round;">
</g>
<g style="fill:#FFFFFF; fill-opacity:1.0000; 
stroke:#FFFFFF; stroke-width:0.0000; stroke-opacity:1; 
stroke-linecap:round; stroke-linejoin:round;">
<circle cx="209.0922" cy="61.8200" r="0.2000" /> 
</g>
<g style="fill:#FFFFFF; fill-opacity:1.0000; 
stroke:#FFFFFF; stroke-width:0.0212; stroke-opacity:1; 
stroke-linecap:round; stroke-linejoin:round;">
</g>
<g style="fill:#FFFFFF; fill-opacity:1.0000; 
stroke:#FFFFFF; stroke-width:0.0000; stroke-opacity:1; 
stroke-linecap:round; stroke-linejoin:round;">
<circle cx="207.0022" cy="50.0000" r="1.1000" /> 
</g>
<g style="fill:#FFFFFF; fill-opacity:1.0000; 
stroke:#FFFFFF; stroke-width:0.0212; stroke-opacity:1; 
stroke-linecap:round; stroke-linejoin:round;">
</g>
<g style="fill:#FFFFFF; fill-opacity:1.0000; 
stroke:#FFFFFF; stroke-width:0.0000; stroke-opacity:1; 
stroke-linecap:round; stroke-linejoin:round;">
<circle cx="227.0022" cy="50.0000" r="1.1000" /> 
</g>
<g style="fill:#FFFFFF; fill-opacity:1.0000; 
stroke:#FFFFFF; stroke-width:0.0212; stroke-opacity:1; 
stroke-linecap:round; stroke-linejoin:round;">
</g>
<g style="fill:#FFFFFF; fill-opacity:1.0000; 
stroke:#FFFFFF; stroke-width:0.0000; stroke-opacity:1; 
stroke-linecap:round; stroke-linejoin:round;">
<circle cx="227.0022" cy="70.0000" r="1.1000" /> 
</g>
<g style="fill:#FFFFFF; fill-opacity:1.0000; 
stroke:#FFFFFF; stroke-width:0.0212; stroke-opacity:1; 
stroke-linecap:round; stroke-linejoin:round;">
</g>
<g style="fill:#000000; fill-opacity:1.0000; 
stroke:#000000; stroke-width:0.0212; stroke-opacity:1; 
stroke-linecap:round; stroke-linejoin:round;">
</g> 
</svg>
