<?xml version="1.0" standalone="no"?>
 <!DOCTYPE svg PUBLIC "-//W3C//DTD SVG 1.1//EN" 
 "http://www.w3.org/Graphics/SVG/1.1/DTD/svg11.dtd"> 
<svg
  xmlns:svg="http://www.w3.org/2000/svg"
  xmlns="http://www.w3.org/2000/svg"
  xmlns:xlink="http://www.w3.org/1999/xlink"
  version="1.1"
  width="297.0022mm" height="210.0072mm" viewBox="0.0000 0.0000 297.0022 210.0072">
<title>SVG Image created as pedalboard-led-ring-Edge_Cuts.svg date 2023/05/26 12:43:39 </title>
  <desc>Image generated by PCBNEW </desc>
<g style="fill:#000000; fill-opacity:1.0000;stroke:#000000; stroke-opacity:1.0000;
stroke-linecap:round; stroke-linejoin:round;"
 transform="translate(0 0) scale(1 1)">
</g>
<g style="fill:#000000; fill-opacity:0.0; 
stroke:#000000; stroke-width:0.0000; stroke-opacity:1; 
stroke-linecap:round; stroke-linejoin:round;">
</g>
<g style="fill:#000000; fill-opacity:0.0; 
stroke:#000000; stroke-width:0.1000; stroke-opacity:1; 
stroke-linecap:round; stroke-linejoin:round;">
<path d="M230.0022 74.0000 A1.0000 1.0000 0.0 0 0 231.0022 73.0000" />
<circle cx="217.0022" cy="60.0000" r="6.1000" /> 
<path d="M195.0022 47.0000
L195.0022 73.0000
" />
<path d="M231.0022 73.0000
L231.0022 47.0000
" />
<path d="M195.0022 73.0000 A1.0000 1.0000 0.0 0 0 196.0022 74.0000" />
<path d="M230.0022 46.0000
L196.0022 46.0000
" />
<path d="M196.0022 74.0000
L230.0022 74.0000
" />
<path d="M231.0022 47.0000 A1.0000 1.0000 0.0 0 0 230.0022 46.0000" />
<path d="M196.0022 46.0000 A1.0000 1.0000 0.0 0 0 195.0022 47.0000" />
<g >
</g>
<g >
</g>
<g >
</g>
<g >
</g>
<g >
</g>
<g >
</g>
<g >
</g>
<g >
</g>
<g >
</g>
<g >
</g>
<g >
</g>
<g >
</g>
<g >
</g>
<g >
</g>
<g >
</g>
<g >
</g>
<g >
</g>
<g >
</g>
<g >
</g>
</g> 
</svg>
