<?xml version="1.0" standalone="no"?>
 <!DOCTYPE svg PUBLIC "-//W3C//DTD SVG 1.1//EN" 
 "http://www.w3.org/Graphics/SVG/1.1/DTD/svg11.dtd"> 
<svg
  xmlns:svg="http://www.w3.org/2000/svg"
  xmlns="http://www.w3.org/2000/svg"
  xmlns:xlink="http://www.w3.org/1999/xlink"
  version="1.1"
  width="297.0022mm" height="210.0072mm" viewBox="0.0000 0.0000 297.0022 210.0072">
<title>SVG Image created as pedalboard-led-ring-B_Cu.svg date 2023/05/26 11:20:41 </title>
  <desc>Image generated by PCBNEW </desc>
<g style="fill:#000000; fill-opacity:1.0000;stroke:#000000; stroke-opacity:1.0000;
stroke-linecap:round; stroke-linejoin:round;"
 transform="translate(0 0) scale(1 1)">
</g>
<g style="fill:#000000; fill-opacity:0.0; 
stroke:#000000; stroke-width:0.0000; stroke-opacity:1; 
stroke-linecap:round; stroke-linejoin:round;">
<g >
</g>
<g >
</g>
<g >
</g>
<g >
</g>
<g >
</g>
<g >
</g>
<g >
</g>
<g style="fill:#000000; fill-opacity:0.0; 
stroke:#000000; stroke-width:0.0000; stroke-opacity:1; 
stroke-linecap:round; stroke-linejoin:round;">
</g>
<g style="fill:#000000; fill-opacity:0.0; 
stroke:#000000; stroke-width:0.0000; stroke-opacity:1; 
stroke-linecap:round; stroke-linejoin:round;">
</g>
<g style="fill:#000000; fill-opacity:1.0000; 
stroke:#000000; stroke-width:0.0000; stroke-opacity:1; 
stroke-linecap:round; stroke-linejoin:round;">
<path style="fill:#000000; fill-opacity:1.0000; 
stroke:#000000; stroke-width:0.0000; stroke-opacity:1; 
stroke-linecap:round; stroke-linejoin:round;fill-rule:evenodd;"
d="M 205.5522,54.5550
205.5408,54.4976
205.5083,54.4489
205.4596,54.4164
205.4022,54.4050
203.7522,54.4050
203.6948,54.4164
203.6461,54.4489
203.6136,54.4976
203.6022,54.5550
203.6022,54.8550
203.6136,54.9124
203.6461,54.9611
203.6948,54.9936
203.7522,55.0050
205.4022,55.0050
205.4596,54.9936
205.5083,54.9611
205.5408,54.9124
205.5522,54.8550
Z" /> 
<path style="fill:#000000; fill-opacity:1.0000; 
stroke:#000000; stroke-width:0.0000; stroke-opacity:1; 
stroke-linecap:round; stroke-linejoin:round;fill-rule:evenodd;"
d="M 205.5522,53.2850
205.5408,53.2276
205.5083,53.1789
205.4596,53.1464
205.4022,53.1350
203.7522,53.1350
203.6948,53.1464
203.6461,53.1789
203.6136,53.2276
203.6022,53.2850
203.6022,53.5850
203.6136,53.6424
203.6461,53.6911
203.6948,53.7236
203.7522,53.7350
205.4022,53.7350
205.4596,53.7236
205.5083,53.6911
205.5408,53.6424
205.5522,53.5850
Z" /> 
<path style="fill:#000000; fill-opacity:1.0000; 
stroke:#000000; stroke-width:0.0000; stroke-opacity:1; 
stroke-linecap:round; stroke-linejoin:round;fill-rule:evenodd;"
d="M 205.5522,52.0150
205.5408,51.9576
205.5083,51.9089
205.4596,51.8764
205.4022,51.8650
203.7522,51.8650
203.6948,51.8764
203.6461,51.9089
203.6136,51.9576
203.6022,52.0150
203.6022,52.3150
203.6136,52.3724
203.6461,52.4211
203.6948,52.4536
203.7522,52.4650
205.4022,52.4650
205.4596,52.4536
205.5083,52.4211
205.5408,52.3724
205.5522,52.3150
Z" /> 
<path style="fill:#000000; fill-opacity:1.0000; 
stroke:#000000; stroke-width:0.0000; stroke-opacity:1; 
stroke-linecap:round; stroke-linejoin:round;fill-rule:evenodd;"
d="M 205.5522,50.7450
205.5408,50.6876
205.5083,50.6389
205.4596,50.6064
205.4022,50.5950
203.7522,50.5950
203.6948,50.6064
203.6461,50.6389
203.6136,50.6876
203.6022,50.7450
203.6022,51.0450
203.6136,51.1024
203.6461,51.1511
203.6948,51.1836
203.7522,51.1950
205.4022,51.1950
205.4596,51.1836
205.5083,51.1511
205.5408,51.1024
205.5522,51.0450
Z" /> 
<path style="fill:#000000; fill-opacity:1.0000; 
stroke:#000000; stroke-width:0.0000; stroke-opacity:1; 
stroke-linecap:round; stroke-linejoin:round;fill-rule:evenodd;"
d="M 200.6022,50.7450
200.5908,50.6876
200.5583,50.6389
200.5096,50.6064
200.4522,50.5950
198.8022,50.5950
198.7448,50.6064
198.6961,50.6389
198.6636,50.6876
198.6522,50.7450
198.6522,51.0450
198.6636,51.1024
198.6961,51.1511
198.7448,51.1836
198.8022,51.1950
200.4522,51.1950
200.5096,51.1836
200.5583,51.1511
200.5908,51.1024
200.6022,51.0450
Z" /> 
<path style="fill:#000000; fill-opacity:1.0000; 
stroke:#000000; stroke-width:0.0000; stroke-opacity:1; 
stroke-linecap:round; stroke-linejoin:round;fill-rule:evenodd;"
d="M 200.6022,52.0150
200.5908,51.9576
200.5583,51.9089
200.5096,51.8764
200.4522,51.8650
198.8022,51.8650
198.7448,51.8764
198.6961,51.9089
198.6636,51.9576
198.6522,52.0150
198.6522,52.3150
198.6636,52.3724
198.6961,52.4211
198.7448,52.4536
198.8022,52.4650
200.4522,52.4650
200.5096,52.4536
200.5583,52.4211
200.5908,52.3724
200.6022,52.3150
Z" /> 
<path style="fill:#000000; fill-opacity:1.0000; 
stroke:#000000; stroke-width:0.0000; stroke-opacity:1; 
stroke-linecap:round; stroke-linejoin:round;fill-rule:evenodd;"
d="M 200.6022,53.2850
200.5908,53.2276
200.5583,53.1789
200.5096,53.1464
200.4522,53.1350
198.8022,53.1350
198.7448,53.1464
198.6961,53.1789
198.6636,53.2276
198.6522,53.2850
198.6522,53.5850
198.6636,53.6424
198.6961,53.6911
198.7448,53.7236
198.8022,53.7350
200.4522,53.7350
200.5096,53.7236
200.5583,53.6911
200.5908,53.6424
200.6022,53.5850
Z" /> 
<path style="fill:#000000; fill-opacity:1.0000; 
stroke:#000000; stroke-width:0.0000; stroke-opacity:1; 
stroke-linecap:round; stroke-linejoin:round;fill-rule:evenodd;"
d="M 200.6022,54.5550
200.5908,54.4976
200.5583,54.4489
200.5096,54.4164
200.4522,54.4050
198.8022,54.4050
198.7448,54.4164
198.6961,54.4489
198.6636,54.4976
198.6522,54.5550
198.6522,54.8550
198.6636,54.9124
198.6961,54.9611
198.7448,54.9936
198.8022,55.0050
200.4522,55.0050
200.5096,54.9936
200.5583,54.9611
200.5908,54.9124
200.6022,54.8550
Z" /> 
</g>
<g >
</g>
<g style="fill:#000000; fill-opacity:1.0000; 
stroke:#000000; stroke-width:0.0000; stroke-opacity:1; 
stroke-linecap:round; stroke-linejoin:round;">
<path style="fill:#000000; fill-opacity:1.0000; 
stroke:#000000; stroke-width:0.0000; stroke-opacity:1; 
stroke-linecap:round; stroke-linejoin:round;fill-rule:evenodd;"
d="M 209.3987,65.5965
209.3972,65.6000
209.3972,67.6000
209.3987,67.6035
209.4022,67.6050
210.4022,67.6050
210.4057,67.6035
210.4072,67.6000
210.4072,67.1050
211.5022,67.1050
211.5057,67.1035
211.5072,67.1000
211.5072,66.1000
211.5057,66.0965
211.5022,66.0950
210.4072,66.0950
210.4072,65.6000
210.4057,65.5965
210.4022,65.5950
209.4022,65.5950
Z" /> 
<path style="fill:#000000; fill-opacity:1.0000; 
stroke:#000000; stroke-width:0.0000; stroke-opacity:1; 
stroke-linecap:round; stroke-linejoin:round;fill-rule:evenodd;"
d="M 207.0987,65.5965
207.0972,65.6000
207.0972,66.0950
206.0022,66.0950
205.9987,66.0965
205.9972,66.1000
205.9972,67.1000
205.9987,67.1035
206.0022,67.1050
207.0972,67.1050
207.0972,67.6000
207.0987,67.6035
207.1022,67.6050
208.1022,67.6050
208.1057,67.6035
208.1072,67.6000
208.1072,65.6000
208.1057,65.5965
208.1022,65.5950
207.1022,65.5950
Z" /> 
</g>
<g >
</g>
<g style="fill:#000000; fill-opacity:1.0000; 
stroke:#000000; stroke-width:0.0000; stroke-opacity:1; 
stroke-linecap:round; stroke-linejoin:round;">
<path style="fill:#000000; fill-opacity:1.0000; 
stroke:#000000; stroke-width:0.0000; stroke-opacity:1; 
stroke-linecap:round; stroke-linejoin:round;fill-rule:evenodd;"
d="M 207.3272,58.9500
207.3082,58.8543
207.2540,58.7732
207.1729,58.7190
207.0772,58.7000
206.2522,58.7000
206.1565,58.7190
206.0754,58.7732
206.0212,58.8543
206.0022,58.9500
206.0022,60.2500
206.0212,60.3457
206.0754,60.4268
206.1565,60.4810
206.2522,60.5000
207.0772,60.5000
207.1729,60.4810
207.2540,60.4268
207.3082,60.3457
207.3272,60.2500
Z" /> 
<path style="fill:#000000; fill-opacity:1.0000; 
stroke:#000000; stroke-width:0.0000; stroke-opacity:1; 
stroke-linecap:round; stroke-linejoin:round;fill-rule:evenodd;"
d="M 204.2022,58.9500
204.1832,58.8543
204.1290,58.7732
204.0479,58.7190
203.9522,58.7000
203.1272,58.7000
203.0315,58.7190
202.9504,58.7732
202.8962,58.8543
202.8772,58.9500
202.8772,60.2500
202.8962,60.3457
202.9504,60.4268
203.0315,60.4810
203.1272,60.5000
203.9522,60.5000
204.0479,60.4810
204.1290,60.4268
204.1832,60.3457
204.2022,60.2500
Z" /> 
</g>
<g >
</g>
<g style="fill:#000000; fill-opacity:1.0000; 
stroke:#000000; stroke-width:0.0000; stroke-opacity:1; 
stroke-linecap:round; stroke-linejoin:round;">
<path style="fill:#000000; fill-opacity:1.0000; 
stroke:#000000; stroke-width:0.0000; stroke-opacity:1; 
stroke-linecap:round; stroke-linejoin:round;fill-rule:evenodd;"
d="M 204.4422,69.0200
203.4422,69.0200
203.4422,72.0200
204.4422,72.0200
Z" /> 
<path style="fill:#000000; fill-opacity:1.0000; 
stroke:#000000; stroke-width:0.0000; stroke-opacity:1; 
stroke-linecap:round; stroke-linejoin:round;fill-rule:evenodd;"
d="M 204.4422,63.9800
203.4422,63.9800
203.4422,66.9800
204.4422,66.9800
Z" /> 
<path style="fill:#000000; fill-opacity:1.0000; 
stroke:#000000; stroke-width:0.0000; stroke-opacity:1; 
stroke-linecap:round; stroke-linejoin:round;fill-rule:evenodd;"
d="M 201.9022,69.0200
200.9022,69.0200
200.9022,72.0200
201.9022,72.0200
Z" /> 
<path style="fill:#000000; fill-opacity:1.0000; 
stroke:#000000; stroke-width:0.0000; stroke-opacity:1; 
stroke-linecap:round; stroke-linejoin:round;fill-rule:evenodd;"
d="M 201.9022,63.9800
200.9022,63.9800
200.9022,66.9800
201.9022,66.9800
Z" /> 
<path style="fill:#000000; fill-opacity:1.0000; 
stroke:#000000; stroke-width:0.0000; stroke-opacity:1; 
stroke-linecap:round; stroke-linejoin:round;fill-rule:evenodd;"
d="M 199.3622,69.0200
198.3622,69.0200
198.3622,72.0200
199.3622,72.0200
Z" /> 
<path style="fill:#000000; fill-opacity:1.0000; 
stroke:#000000; stroke-width:0.0000; stroke-opacity:1; 
stroke-linecap:round; stroke-linejoin:round;fill-rule:evenodd;"
d="M 199.3622,63.9800
198.3622,63.9800
198.3622,66.9800
199.3622,66.9800
Z" /> 
</g>
<g >
</g>
<g style="fill:#000000; fill-opacity:1.0000; 
stroke:#000000; stroke-width:0.0000; stroke-opacity:1; 
stroke-linecap:round; stroke-linejoin:round;">
<path style="fill:#000000; fill-opacity:1.0000; 
stroke:#000000; stroke-width:0.0000; stroke-opacity:1; 
stroke-linecap:round; stroke-linejoin:round;fill-rule:evenodd;"
d="M 213.5022,70.6500
212.5022,70.6500
212.5022,71.6500
213.5022,71.6500
Z" /> 
<path style="fill:#000000; fill-opacity:1.0000; 
stroke:#000000; stroke-width:0.0000; stroke-opacity:1; 
stroke-linecap:round; stroke-linejoin:round;fill-rule:evenodd;"
d="M 213.5022,72.3500
212.5022,72.3500
212.5022,73.3500
213.5022,73.3500
Z" /> 
</g>
<g >
</g>
<g style="fill:#000000; fill-opacity:1.0000; 
stroke:#000000; stroke-width:0.0000; stroke-opacity:1; 
stroke-linecap:round; stroke-linejoin:round;">
<path style="fill:#000000; fill-opacity:1.0000; 
stroke:#000000; stroke-width:0.0000; stroke-opacity:1; 
stroke-linecap:round; stroke-linejoin:round;fill-rule:evenodd;"
d="M 196.7022,53.9500
197.7022,53.9500
197.7022,52.9500
196.7022,52.9500
Z" /> 
<path style="fill:#000000; fill-opacity:1.0000; 
stroke:#000000; stroke-width:0.0000; stroke-opacity:1; 
stroke-linecap:round; stroke-linejoin:round;fill-rule:evenodd;"
d="M 196.7022,52.2500
197.7022,52.2500
197.7022,51.2500
196.7022,51.2500
Z" /> 
</g>
<g >
</g>
<g style="fill:#000000; fill-opacity:1.0000; 
stroke:#000000; stroke-width:0.0000; stroke-opacity:1; 
stroke-linecap:round; stroke-linejoin:round;">
<path style="fill:#000000; fill-opacity:1.0000; 
stroke:#000000; stroke-width:0.0000; stroke-opacity:1; 
stroke-linecap:round; stroke-linejoin:round;fill-rule:evenodd;"
d="M 209.3272,71.1250
209.3272,71.3750
210.0272,71.3750
210.0272,71.1250
Z" /> 
<path style="fill:#000000; fill-opacity:1.0000; 
stroke:#000000; stroke-width:0.0000; stroke-opacity:1; 
stroke-linecap:round; stroke-linejoin:round;fill-rule:evenodd;"
d="M 209.3272,71.6250
209.3272,71.8750
210.0272,71.8750
210.0272,71.6250
Z" /> 
<path style="fill:#000000; fill-opacity:1.0000; 
stroke:#000000; stroke-width:0.0000; stroke-opacity:1; 
stroke-linecap:round; stroke-linejoin:round;fill-rule:evenodd;"
d="M 209.3272,72.1250
209.3272,72.3750
210.0272,72.3750
210.0272,72.1250
Z" /> 
<path style="fill:#000000; fill-opacity:1.0000; 
stroke:#000000; stroke-width:0.0000; stroke-opacity:1; 
stroke-linecap:round; stroke-linejoin:round;fill-rule:evenodd;"
d="M 209.3272,72.6250
209.3272,72.8750
210.0272,72.8750
210.0272,72.6250
Z" /> 
<path style="fill:#000000; fill-opacity:1.0000; 
stroke:#000000; stroke-width:0.0000; stroke-opacity:1; 
stroke-linecap:round; stroke-linejoin:round;fill-rule:evenodd;"
d="M 211.1772,72.6250
211.1772,72.8750
211.8772,72.8750
211.8772,72.6250
Z" /> 
<path style="fill:#000000; fill-opacity:1.0000; 
stroke:#000000; stroke-width:0.0000; stroke-opacity:1; 
stroke-linecap:round; stroke-linejoin:round;fill-rule:evenodd;"
d="M 211.1772,72.1250
211.1772,72.3750
211.8772,72.3750
211.8772,72.1250
Z" /> 
<path style="fill:#000000; fill-opacity:1.0000; 
stroke:#000000; stroke-width:0.0000; stroke-opacity:1; 
stroke-linecap:round; stroke-linejoin:round;fill-rule:evenodd;"
d="M 211.1772,71.6250
211.1772,71.8750
211.8772,71.8750
211.8772,71.6250
Z" /> 
<path style="fill:#000000; fill-opacity:1.0000; 
stroke:#000000; stroke-width:0.0000; stroke-opacity:1; 
stroke-linecap:round; stroke-linejoin:round;fill-rule:evenodd;"
d="M 211.1772,71.1250
211.1772,71.3750
211.8772,71.3750
211.8772,71.1250
Z" /> 
<path style="fill:#000000; fill-opacity:1.0000; 
stroke:#000000; stroke-width:0.0000; stroke-opacity:1; 
stroke-linecap:round; stroke-linejoin:round;fill-rule:evenodd;"
d="M 210.2972,70.9000
210.2972,73.1000
210.9072,73.1000
210.9072,70.9000
Z" /> 
</g>
<g >
</g>
<g style="fill:#000000; fill-opacity:1.0000; 
stroke:#000000; stroke-width:0.0000; stroke-opacity:1; 
stroke-linecap:round; stroke-linejoin:round;">
<path style="fill:#000000; fill-opacity:1.0000; 
stroke:#000000; stroke-width:0.0000; stroke-opacity:1; 
stroke-linecap:round; stroke-linejoin:round;fill-rule:evenodd;"
d="M 198.7272,55.8750
198.6315,55.8940
198.5504,55.9482
198.4962,56.0293
198.4772,56.1250
198.4772,56.8000
198.4962,56.8957
198.5504,56.9768
198.6315,57.0310
198.7272,57.0500
199.6772,57.0500
199.7729,57.0310
199.8540,56.9768
199.9082,56.8957
199.9272,56.8000
199.9272,56.1250
199.9082,56.0293
199.8540,55.9482
199.7729,55.8940
199.6772,55.8750
Z" /> 
<path style="fill:#000000; fill-opacity:1.0000; 
stroke:#000000; stroke-width:0.0000; stroke-opacity:1; 
stroke-linecap:round; stroke-linejoin:round;fill-rule:evenodd;"
d="M 198.7272,57.9500
198.6315,57.9690
198.5504,58.0232
198.4962,58.1043
198.4772,58.2000
198.4772,58.8750
198.4962,58.9707
198.5504,59.0518
198.6315,59.1060
198.7272,59.1250
199.6772,59.1250
199.7729,59.1060
199.8540,59.0518
199.9082,58.9707
199.9272,58.8750
199.9272,58.2000
199.9082,58.1043
199.8540,58.0232
199.7729,57.9690
199.6772,57.9500
Z" /> 
</g>
<g >
</g>
<g style="fill:#000000; fill-opacity:1.0000; 
stroke:#000000; stroke-width:0.0000; stroke-opacity:1; 
stroke-linecap:round; stroke-linejoin:round;">
<path style="fill:#000000; fill-opacity:1.0000; 
stroke:#000000; stroke-width:0.0000; stroke-opacity:1; 
stroke-linecap:round; stroke-linejoin:round;fill-rule:evenodd;"
d="M 212.3772,69.7750
212.3962,69.8707
212.4504,69.9518
212.5315,70.0060
212.6272,70.0250
213.3022,70.0250
213.3979,70.0060
213.4790,69.9518
213.5332,69.8707
213.5522,69.7750
213.5522,68.8250
213.5332,68.7293
213.4790,68.6482
213.3979,68.5940
213.3022,68.5750
212.6272,68.5750
212.5315,68.5940
212.4504,68.6482
212.3962,68.7293
212.3772,68.8250
Z" /> 
<path style="fill:#000000; fill-opacity:1.0000; 
stroke:#000000; stroke-width:0.0000; stroke-opacity:1; 
stroke-linecap:round; stroke-linejoin:round;fill-rule:evenodd;"
d="M 214.4522,69.7750
214.4712,69.8707
214.5254,69.9518
214.6065,70.0060
214.7022,70.0250
215.3772,70.0250
215.4729,70.0060
215.5540,69.9518
215.6082,69.8707
215.6272,69.7750
215.6272,68.8250
215.6082,68.7293
215.5540,68.6482
215.4729,68.5940
215.3772,68.5750
214.7022,68.5750
214.6065,68.5940
214.5254,68.6482
214.4712,68.7293
214.4522,68.8250
Z" /> 
</g>
<g >
</g>
<g style="fill:#000000; fill-opacity:1.0000; 
stroke:#000000; stroke-width:0.0000; stroke-opacity:1; 
stroke-linecap:round; stroke-linejoin:round;">
<path style="fill:#000000; fill-opacity:1.0000; 
stroke:#000000; stroke-width:0.0000; stroke-opacity:1; 
stroke-linecap:round; stroke-linejoin:round;fill-rule:evenodd;"
d="M 207.6522,73.7250
207.7479,73.7060
207.8290,73.6518
207.8832,73.5707
207.9022,73.4750
207.9022,72.6500
207.8832,72.5543
207.8290,72.4732
207.7479,72.4190
207.6522,72.4000
206.3522,72.4000
206.2565,72.4190
206.1754,72.4732
206.1212,72.5543
206.1022,72.6500
206.1022,73.4750
206.1212,73.5707
206.1754,73.6518
206.2565,73.7060
206.3522,73.7250
Z" /> 
<path style="fill:#000000; fill-opacity:1.0000; 
stroke:#000000; stroke-width:0.0000; stroke-opacity:1; 
stroke-linecap:round; stroke-linejoin:round;fill-rule:evenodd;"
d="M 207.6522,70.6000
207.7479,70.5810
207.8290,70.5268
207.8832,70.4457
207.9022,70.3500
207.9022,69.5250
207.8832,69.4293
207.8290,69.3482
207.7479,69.2940
207.6522,69.2750
206.3522,69.2750
206.2565,69.2940
206.1754,69.3482
206.1212,69.4293
206.1022,69.5250
206.1022,70.3500
206.1212,70.4457
206.1754,70.5268
206.2565,70.5810
206.3522,70.6000
Z" /> 
</g>
<g >
</g>
<g style="fill:#000000; fill-opacity:1.0000; 
stroke:#000000; stroke-width:0.0000; stroke-opacity:1; 
stroke-linecap:round; stroke-linejoin:round;">
<circle cx="207.5022" cy="61.4000" r="0.4000" /> 
</g>
<g style="fill:#000000; fill-opacity:1.0000; 
stroke:#000000; stroke-width:0.0212; stroke-opacity:1; 
stroke-linecap:round; stroke-linejoin:round;">
</g>
<g style="fill:#000000; fill-opacity:1.0000; 
stroke:#000000; stroke-width:0.0000; stroke-opacity:1; 
stroke-linecap:round; stroke-linejoin:round;">
<circle cx="206.5022" cy="61.4000" r="0.4000" /> 
</g>
<g style="fill:#000000; fill-opacity:1.0000; 
stroke:#000000; stroke-width:0.0212; stroke-opacity:1; 
stroke-linecap:round; stroke-linejoin:round;">
</g>
<g style="fill:#000000; fill-opacity:1.0000; 
stroke:#000000; stroke-width:0.0000; stroke-opacity:1; 
stroke-linecap:round; stroke-linejoin:round;">
<circle cx="214.3022" cy="71.1000" r="0.4000" /> 
</g>
<g style="fill:#000000; fill-opacity:1.0000; 
stroke:#000000; stroke-width:0.0212; stroke-opacity:1; 
stroke-linecap:round; stroke-linejoin:round;">
</g>
<g style="fill:#000000; fill-opacity:1.0000; 
stroke:#000000; stroke-width:0.0000; stroke-opacity:1; 
stroke-linecap:round; stroke-linejoin:round;">
<circle cx="198.8622" cy="72.5400" r="0.4000" /> 
</g>
<g style="fill:#000000; fill-opacity:1.0000; 
stroke:#000000; stroke-width:0.0212; stroke-opacity:1; 
stroke-linecap:round; stroke-linejoin:round;">
</g>
<g style="fill:#000000; fill-opacity:1.0000; 
stroke:#000000; stroke-width:0.0000; stroke-opacity:1; 
stroke-linecap:round; stroke-linejoin:round;">
<circle cx="197.8022" cy="55.2000" r="0.4000" /> 
</g>
<g style="fill:#000000; fill-opacity:1.0000; 
stroke:#000000; stroke-width:0.0212; stroke-opacity:1; 
stroke-linecap:round; stroke-linejoin:round;">
</g>
<g style="fill:#000000; fill-opacity:1.0000; 
stroke:#000000; stroke-width:0.0000; stroke-opacity:1; 
stroke-linecap:round; stroke-linejoin:round;">
<circle cx="204.6022" cy="55.5000" r="0.4000" /> 
</g>
<g style="fill:#000000; fill-opacity:1.0000; 
stroke:#000000; stroke-width:0.0212; stroke-opacity:1; 
stroke-linecap:round; stroke-linejoin:round;">
</g>
<g style="fill:#000000; fill-opacity:1.0000; 
stroke:#000000; stroke-width:0.0000; stroke-opacity:1; 
stroke-linecap:round; stroke-linejoin:round;">
<circle cx="206.2022" cy="53.4000" r="0.4000" /> 
</g>
<g style="fill:#000000; fill-opacity:1.0000; 
stroke:#000000; stroke-width:0.0212; stroke-opacity:1; 
stroke-linecap:round; stroke-linejoin:round;">
</g>
<g style="fill:#000000; fill-opacity:1.0000; 
stroke:#000000; stroke-width:0.0000; stroke-opacity:1; 
stroke-linecap:round; stroke-linejoin:round;">
<circle cx="206.2022" cy="52.2000" r="0.4000" /> 
</g>
<g style="fill:#000000; fill-opacity:1.0000; 
stroke:#000000; stroke-width:0.0212; stroke-opacity:1; 
stroke-linecap:round; stroke-linejoin:round;">
</g>
<g >
</g>
<g style="fill:#000000; fill-opacity:1.0000; 
stroke:#000000; stroke-width:0.0212; stroke-opacity:1; 
stroke-linecap:round; stroke-linejoin:round;">
</g>
<g style="fill:#000000; fill-opacity:1.0000; 
stroke:#000000; stroke-width:0.2500; stroke-opacity:1; 
stroke-linecap:round; stroke-linejoin:round;">
</g>
<g style="fill:#000000; fill-opacity:0.0; 
stroke:#000000; stroke-width:0.2500; stroke-opacity:1; 
stroke-linecap:round; stroke-linejoin:round;">
<path d="M213.0022 71.1500
L214.2522 71.1500
" />
<path d="M211.5420 71.7460
L212.4062 71.7460
" />
<path d="M212.4062 71.7460
L213.0022 71.1500
" />
<path d="M214.2522 71.1500
L214.3022 71.1000
" />
<path d="M210.3482 71.7460
L210.6022 72.0000
" />
<path d="M210.6022 72.0000
L210.6022 70.2000
" />
<path d="M209.6624 71.7460
L210.3482 71.7460
" />
</g>
<g style="fill:#000000; fill-opacity:0.0; 
stroke:#000000; stroke-width:0.6000; stroke-opacity:1; 
stroke-linecap:round; stroke-linejoin:round;">
<path d="M199.6272 54.7050
L199.6272 54.7750
" />
<path d="M199.6272 54.7750
L199.2022 55.2000
" />
<path d="M199.2022 55.2000
L199.2022 56.4725
" />
<path d="M199.2022 55.2000
L197.8022 55.2000
" />
</g>
<g style="fill:#000000; fill-opacity:0.0; 
stroke:#000000; stroke-width:0.2500; stroke-opacity:1; 
stroke-linecap:round; stroke-linejoin:round;">
<path d="M204.5772 54.7050
L204.5772 55.4750
" />
<path d="M204.5772 55.4750
L204.6022 55.5000
" />
<path d="M206.1672 53.4350
L206.2022 53.4000
" />
<path d="M204.5772 53.4350
L206.1672 53.4350
" />
<path d="M204.5772 52.1650
L206.1672 52.1650
" />
<path d="M206.1672 52.1650
L206.2022 52.2000
" />
<path d="M199.6122 53.4500
L199.6272 53.4350
" />
<path d="M197.6022 53.4500
L199.6122 53.4500
" />
<path d="M199.6322 50.9000
L199.6272 50.8950
" />
<path d="M201.4022 65.4750
L201.4022 63.4000
" />
<path d="M201.6022 51.5000
L201.0022 50.9000
" />
<path d="M201.0022 50.9000
L199.6322 50.9000
" />
<path d="M201.4022 63.4000
L201.6022 63.2000
" />
<path d="M201.6022 63.2000
L201.6022 51.5000
" />
<path d="M211.5420 70.3802
L212.6222 69.3000
" />
<path d="M212.6222 69.3000
L212.9647 69.3000
" />
<path d="M211.5420 71.2380
L211.5420 70.3802
" />
<path d="M209.6624 71.2380
L209.6624 68.1398
" />
<path d="M209.6624 68.1398
L209.9022 67.9000
" />
<path d="M209.9022 67.9000
L209.9022 66.6000
" />
<path d="M212.4062 72.2540
L213.0022 72.8500
" />
<path d="M211.5420 72.2540
L212.4062 72.2540
" />
<path d="M208.3022 68.3500
L205.4272 65.4750
" />
<path d="M209.8022 73.4000
L209.6624 73.2602
" />
<path d="M209.6624 72.2540
L209.6624 72.7620
" />
<path d="M209.6624 73.2602
L209.6624 72.7620
" />
<path d="M211.5420 72.7620
L211.5420 73.2602
" />
<path d="M208.3022 71.7000
L208.3022 68.3500
" />
<path d="M205.4272 65.4750
L203.9422 65.4750
" />
<path d="M211.5420 73.2602
L211.4022 73.4000
" />
<path d="M207.7902 72.7620
L207.6022 72.9500
" />
<path d="M211.4022 73.4000
L209.8022 73.4000
" />
<path d="M209.6624 72.7620
L207.7902 72.7620
" />
<path d="M209.6624 72.2540
L208.8562 72.2540
" />
<path d="M208.8562 72.2540
L208.3022 71.7000
" />
<path d="M201.1722 52.2000
L201.1722 63.0219
" />
</g>
<g style="fill:#000000; fill-opacity:0.0; 
stroke:#000000; stroke-width:0.8000; stroke-opacity:1; 
stroke-linecap:round; stroke-linejoin:round;">
<path d="M198.8622 72.5400
L198.8622 70.5250
" />
</g>
<g style="fill:#000000; fill-opacity:0.0; 
stroke:#000000; stroke-width:0.2500; stroke-opacity:1; 
stroke-linecap:round; stroke-linejoin:round;">
<path d="M199.6272 52.1650
L199.6622 52.2000
" />
<path d="M199.6622 52.2000
L201.1722 52.2000
" />
<path d="M198.8622 65.3319
L198.8622 65.4750
" />
<path d="M201.1722 63.0219
L198.8622 65.3319
" />
</g>
<g >
</g>
<g style="fill:#000000; fill-opacity:0.0; 
stroke:#000000; stroke-width:0.2500; stroke-opacity:1; 
stroke-linecap:round; stroke-linejoin:round;">
<g >
</g>
<g style="fill:#000000; fill-opacity:1.0000; 
stroke:#000000; stroke-width:0.0000; stroke-opacity:1; 
stroke-linecap:round; stroke-linejoin:round;">
<path style="fill:#000000; fill-opacity:1.0000; 
stroke:#000000; stroke-width:0.0000; stroke-opacity:1; 
stroke-linecap:round; stroke-linejoin:round;fill-rule:evenodd;"
d="M 205.3592,58.2197
205.3134,58.2725
205.3022,58.3240
205.3022,60.7000
204.2003,60.7000
204.1569,60.7078
204.0597,60.7441
204.0001,60.7505
203.0793,60.7505
203.0197,60.7441
202.9225,60.7078
202.8791,60.7000
202.8262,60.7000
202.7592,60.7197
202.7134,60.7725
202.7022,60.8240
202.7022,70.5760
202.7219,70.6430
202.7747,70.6888
202.8262,70.7000
203.0677,70.7000
203.1347,70.6803
203.1805,70.6275
203.1917,70.5760
203.1917,68.9953
203.2062,68.9223
203.2062,68.9223
203.2616,68.8394
203.3445,68.7840
203.3445,68.7840
203.3445,68.7840
203.4175,68.7695
203.4175,68.7695
204.4669,68.7695
204.4669,68.7695
204.5399,68.7840
204.6228,68.8394
204.6782,68.9223
204.6927,68.9953
204.6927,70.5760
204.7124,70.6430
204.7652,70.6888
204.8167,70.7000
205.3764,70.7000
205.4435,70.6803
205.4892,70.6275
205.5004,70.5743
205.4369,66.0654
205.4163,65.9986
205.4006,65.9795
205.3080,65.8868
205.2467,65.8533
205.2203,65.8505
204.8162,65.8505
204.7492,65.8702
204.7034,65.9230
204.6922,65.9745
204.6922,67.0046
204.6777,67.0775
204.6224,67.1602
204.5397,67.2155
204.4668,67.2300
204.0672,67.2300
204.0672,65.9745
204.0475,65.9075
203.9947,65.8617
203.9432,65.8505
203.9412,65.8505
203.8742,65.8702
203.8284,65.9230
203.8172,65.9745
203.8172,67.2300
203.4176,67.2300
203.3447,67.2155
203.2620,67.1602
203.2067,67.0775
203.1922,67.0046
203.1922,65.6050
203.4415,65.6050
203.5085,65.5853
203.5543,65.5325
203.5651,65.4708
203.5649,65.4688
203.5398,65.4036
203.4834,65.3624
203.4413,65.3550
203.1922,65.3550
203.1922,63.9554
203.2067,63.8825
203.2620,63.7998
203.3447,63.7445
203.4176,63.7300
203.8172,63.7300
203.8172,64.9755
203.8369,65.0425
203.8897,65.0883
203.9412,65.0995
203.9432,65.0995
204.0102,65.0798
204.0560,65.0270
204.0672,64.9755
204.0672,63.7300
204.4668,63.7300
204.5397,63.7445
204.6224,63.7998
204.6777,63.8825
204.6922,63.9554
204.6922,64.9755
204.7119,65.0425
204.7647,65.0883
204.8162,65.0995
205.2976,65.0995
205.3646,65.0798
205.4104,65.0270
205.4215,64.9738
205.4022,63.6000
205.4022,63.6000
207.9782,63.6000
208.0452,63.5803
208.0910,63.5275
208.1022,63.4760
208.1022,59.7250
207.5772,59.7250
207.5772,60.2945
207.5768,60.3011
207.5708,60.3574
207.5206,60.4921
207.4344,60.6072
207.3193,60.6934
207.1846,60.7436
207.1283,60.7496
207.1217,60.7500
206.7897,60.7500
206.7897,59.7250
206.5397,59.7250
206.5397,60.7500
206.2077,60.7500
206.2011,60.7496
206.1448,60.7436
206.0101,60.6934
205.8950,60.6072
205.8088,60.4921
205.7586,60.3574
205.7526,60.3011
205.7522,60.2945
205.7522,59.7250
206.5397,59.7250
206.7897,59.7250
207.5772,59.7250
208.1022,59.7250
208.1022,59.4750
207.5772,59.4750
206.7897,59.4750
206.7897,58.4500
206.5397,58.4500
206.5397,59.4750
205.7522,59.4750
205.7522,58.9055
205.7526,58.8989
205.7586,58.8426
205.8088,58.7079
205.8950,58.5928
206.0101,58.5066
206.1448,58.4564
206.2011,58.4504
206.2077,58.4500
206.5397,58.4500
206.7897,58.4500
207.1217,58.4500
207.1283,58.4504
207.1846,58.4564
207.3193,58.5066
207.4344,58.5928
207.5206,58.7079
207.5708,58.8426
207.5768,58.8989
207.5772,58.9055
207.5772,59.4750
208.1022,59.4750
208.1022,58.3240
208.0825,58.2570
208.0297,58.2112
207.9782,58.2000
205.4262,58.2000
Z" /> 
</g>
</g>
<g style="fill:#000000; fill-opacity:1.0000; 
stroke:#000000; stroke-width:0.0000; stroke-opacity:1; 
stroke-linecap:round; stroke-linejoin:round;">
<g >
<path style="fill:#000000; fill-opacity:1.0000; 
stroke:#000000; stroke-width:0.0000; stroke-opacity:1; 
stroke-linecap:round; stroke-linejoin:round;fill-rule:evenodd;"
d="M 195.9979,46.0009
195.9567,46.0045
195.8284,46.0171
195.8125,46.0200
195.7454,46.0380
195.7424,46.0388
195.6489,46.0672
195.6358,46.0722
195.5677,46.1040
195.5629,46.1064
195.4818,46.1497
195.4717,46.1559
195.4085,46.2002
195.4025,46.2047
195.3328,46.2619
195.3256,46.2685
195.2707,46.3234
195.2641,46.3306
195.2069,46.4003
195.2024,46.4063
195.1581,46.4695
195.1519,46.4796
195.1086,46.5607
195.1062,46.5655
195.0744,46.6336
195.0694,46.6467
195.0411,46.7401
195.0402,46.7432
195.0222,46.8103
195.0193,46.8262
195.0067,46.9546
195.0031,46.9957
195.0027,47.0043
195.0027,72.9957
195.0031,73.0043
195.0067,73.0454
195.0193,73.1738
195.0222,73.1897
195.0402,73.2568
195.0411,73.2599
195.0694,73.3533
195.0744,73.3664
195.1062,73.4345
195.1086,73.4393
195.1519,73.5204
195.1581,73.5305
195.2024,73.5937
195.2069,73.5997
195.2641,73.6694
195.2707,73.6766
195.3256,73.7315
195.3328,73.7381
195.4025,73.7953
195.4085,73.7998
195.4717,73.8441
195.4818,73.8503
195.5629,73.8936
195.5677,73.8960
195.6358,73.9278
195.6489,73.9328
195.7423,73.9611
195.7454,73.9620
195.8125,73.9800
195.8284,73.9829
195.9568,73.9955
195.9883,73.9983
195.9979,73.9991
196.0065,73.9995
206.0034,73.9995
206.0616,73.9806
206.0975,73.9311
206.0975,73.8699
206.0622,73.8208
206.0300,73.7972
205.9494,73.6879
205.9046,73.5597
205.9017,73.5293
205.9017,72.5957
205.9046,72.5653
205.9494,72.4371
206.0300,72.3278
206.1393,72.2472
206.2675,72.2024
206.2675,72.2024
206.2675,72.2024
206.2956,72.1997
206.2956,72.1997
206.2979,72.1995
207.7065,72.1995
207.7088,72.1997
207.7088,72.1997
207.7369,72.2024
207.7369,72.2024
207.7369,72.2024
207.8651,72.2472
207.8651,72.2472
207.8651,72.2472
207.8984,72.2718
207.9743,72.3278
208.0237,72.3947
208.0249,72.3963
208.0746,72.4319
208.1045,72.4365
208.3394,72.4365
208.3976,72.4176
208.4335,72.3681
208.4335,72.3069
208.4094,72.2675
208.0851,71.9433
208.0788,71.9374
208.0772,71.9361
208.0490,71.9125
208.0296,71.8788
208.0249,71.8715
208.0026,71.8397
208.0023,71.8382
207.9924,71.8143
207.9916,71.8130
207.9849,71.7747
207.9830,71.7664
207.9729,71.7288
207.9763,71.6901
207.9767,71.6815
207.9767,70.8527
207.9578,70.7945
207.9083,70.7586
207.8471,70.7586
207.8450,70.7593
207.7368,70.7971
207.7087,70.7998
207.7041,70.8000
207.1022,70.8000
207.1022,70.8000
207.1022,69.0750
207.1022,69.0750
207.7041,69.0750
207.7087,69.0752
207.7368,69.0779
207.8450,69.1157
207.9062,69.1171
207.9565,69.0822
207.9767,69.0245
207.9767,69.0223
207.9767,68.5258
207.9578,68.4676
207.9477,68.4558
207.3303,67.8384
207.2758,67.8106
207.2603,67.8094
207.1140,67.8094
207.1047,67.8103
207.1022,67.8098
207.1022,67.8098
207.0240,67.7943
207.0222,67.7935
207.0203,67.7928
207.0201,67.7927
207.0201,67.7927
206.9538,67.7484
206.9095,67.6821
206.9084,67.6793
206.9079,67.6783
206.9079,67.6783
206.8924,67.6000
206.8924,67.6000
206.8919,67.5975
206.8928,67.5882
206.8928,67.4419
206.8739,67.3837
206.8638,67.3719
206.8303,67.3384
206.7758,67.3106
206.7603,67.3094
206.0140,67.3094
206.0047,67.3103
206.0022,67.3098
206.0022,67.3098
205.9240,67.2943
205.9222,67.2935
205.9203,67.2928
205.9201,67.2927
205.9201,67.2927
205.8644,67.2554
205.8055,67.2388
205.7481,67.2600
205.7141,67.3109
205.7104,67.3391
205.7385,69.3351
205.7582,69.3930
205.8082,69.4283
205.8694,69.4274
205.9184,69.3908
205.9309,69.3664
205.9499,69.3124
206.0304,69.2032
206.1396,69.1227
206.2676,69.0778
206.2957,69.0752
206.3003,69.0750
206.9022,69.0750
206.9022,70.8000
206.9022,70.8000
206.3003,70.8000
206.2957,70.7998
206.2676,70.7971
206.1396,70.7523
206.0304,70.6718
205.9499,70.5626
205.9472,70.5550
205.9101,70.5063
205.8515,70.4887
205.7937,70.5089
205.7589,70.5592
205.7552,70.5781
205.7507,70.6241
205.7507,70.6241
205.7505,70.6268
205.7499,70.6295
205.7396,70.6787
205.7396,70.6787
205.7393,70.6801
205.7317,70.7082
205.6823,70.7948
205.6366,70.8476
205.6038,70.8793
205.5155,70.9255
205.4549,70.9432
205.4484,70.9451
205.3764,70.9555
205.3764,70.9555
204.8193,70.9555
204.8167,70.9555
204.7624,70.9497
204.7598,70.9491
204.7575,70.9487
204.6971,70.9581
204.6537,71.0012
204.6427,71.0465
204.6427,72.0397
204.6367,72.0700
204.6311,72.0982
204.5868,72.1646
204.5506,72.1887
204.5204,72.2089
204.4619,72.2205
204.4619,72.2205
203.4225,72.2205
203.4225,72.2205
203.3640,72.2089
203.2976,72.1646
203.2533,72.0982
203.2417,72.0397
202.1027,72.0397
202.0967,72.0700
202.0911,72.0982
202.0468,72.1646
202.0106,72.1887
201.9804,72.2089
201.9219,72.2205
201.9219,72.2205
200.8825,72.2205
200.8825,72.2205
200.8240,72.2089
200.7576,72.1646
200.7133,72.0982
200.7017,72.0397
199.5627,72.0397
199.5511,72.0982
199.5068,72.1646
199.5067,72.1646
199.4688,72.2126
199.4627,72.2469
199.4627,72.4941
199.4635,72.5071
199.4679,72.5400
199.4587,72.6098
199.4535,72.6490
199.4472,72.6968
199.3867,72.8428
199.2905,72.9683
199.1942,73.0421
199.1650,73.0645
199.0190,73.1250
198.8622,73.1457
198.7054,73.1250
198.5594,73.0645
198.4339,72.9683
198.3377,72.8428
198.2772,72.6968
198.2709,72.6490
198.2565,72.5400
198.2609,72.5071
198.2617,72.4941
198.2617,72.2469
198.2428,72.1887
198.2177,72.1646
198.2176,72.1646
198.1733,72.0982
198.1617,72.0397
198.1617,69.0003
198.1733,68.9418
198.1880,68.9198
198.2176,68.8754
198.2840,68.8311
198.2840,68.8311
198.3425,68.8195
199.3819,68.8195
199.4112,68.8253
199.4404,68.8311
199.5068,68.8754
199.5511,68.9418
199.5511,68.9418
199.5511,68.9418
199.5627,69.0003
199.5627,72.0397
200.7017,72.0397
200.7017,69.0003
200.7133,68.9418
200.7280,68.9198
200.7576,68.8754
200.8240,68.8311
200.8240,68.8311
200.8825,68.8195
201.9219,68.8195
201.9512,68.8253
201.9804,68.8311
202.0468,68.8754
202.0911,68.9418
202.0911,68.9418
202.0911,68.9418
202.1027,69.0003
202.1027,72.0397
203.2417,72.0397
203.2417,71.0447
203.2228,70.9865
203.1733,70.9506
203.1286,70.9467
203.0850,70.9530
203.0677,70.9555
203.0677,70.9555
202.8288,70.9555
202.8262,70.9555
202.7719,70.9497
202.7204,70.9385
202.6940,70.9312
202.6074,70.8819
202.5546,70.8361
202.5229,70.8034
202.4767,70.7150
202.4570,70.6480
202.4467,70.5760
202.4467,66.9997
202.1022,66.9997
202.0906,67.0580
202.0464,67.1242
201.9802,67.1684
201.9219,67.1800
201.5022,67.1800
201.5022,67.1800
201.5022,65.8995
201.4833,65.8413
201.4338,65.8053
201.4032,65.8005
201.4012,65.8005
201.3430,65.8194
201.3070,65.8689
201.3022,65.8995
201.3022,67.1800
201.3022,67.1800
200.8825,67.1800
200.8242,67.1684
200.7580,67.1242
200.7138,67.0580
200.7022,66.9997
200.7022,65.5800
200.7022,65.5800
200.9777,65.5800
201.0359,65.5611
201.0719,65.5116
201.0767,65.4810
201.0767,65.4790
201.0578,65.4208
201.0083,65.3848
200.9777,65.3800
200.7022,65.3800
200.7022,65.3800
200.7022,64.1912
200.6833,64.1330
200.6338,64.0971
200.5726,64.0971
200.5332,64.1212
199.5917,65.0627
199.5639,65.1172
199.5627,65.1327
199.5627,66.9997
199.5511,67.0582
199.5068,67.1246
199.4624,67.1542
199.4404,67.1689
199.3819,67.1805
199.3819,67.1805
198.3425,67.1805
198.3425,67.1805
198.2840,67.1689
198.2176,67.1246
198.1733,67.0582
198.1617,66.9997
198.1617,63.9603
198.1733,63.9018
198.2112,63.8451
198.2176,63.8354
198.2840,63.7911
198.2840,63.7911
198.3425,63.7795
199.3819,63.7795
199.4112,63.7853
199.4404,63.7911
199.5068,63.8354
199.5511,63.9018
199.5615,63.9544
199.5914,64.0078
199.6470,64.0334
199.7070,64.0215
199.7286,64.0051
200.8177,62.9161
200.8455,62.8615
200.8467,62.8461
200.8467,58.6375
200.1272,58.6375
200.1272,58.9269
200.1270,58.9315
200.1243,58.9596
200.0795,59.0876
199.9990,59.1968
199.8898,59.2773
199.7618,59.3221
199.7337,59.3248
199.7291,59.3250
199.3022,59.3250
199.3022,59.3250
199.3022,58.6375
199.1022,58.6375
199.1022,59.3250
199.1022,59.3250
198.6753,59.3250
198.6707,59.3248
198.6426,59.3221
198.5146,59.2773
198.4054,59.1968
198.3249,59.0876
198.2801,58.9596
198.2774,58.9315
198.2772,58.9269
198.2772,58.6375
198.2772,58.6375
199.1022,58.6375
199.3022,58.6375
200.1272,58.6375
200.8467,58.6375
200.8467,58.4375
200.1272,58.4375
200.1272,58.4375
199.3022,58.4375
199.3022,58.4375
199.1022,58.4375
199.1022,58.4375
198.2772,58.4375
198.2772,58.4375
198.2772,58.1481
198.2774,58.1435
198.2801,58.1154
198.3249,57.9874
198.4054,57.8782
198.5146,57.7977
198.6426,57.7528
198.6707,57.7502
198.6753,57.7500
199.1022,57.7500
199.1022,57.7500
199.1022,58.4375
199.3022,58.4375
199.3022,57.7500
199.3022,57.7500
199.7291,57.7500
199.7337,57.7502
199.7618,57.7529
199.8898,57.7977
199.9990,57.8782
200.0795,57.9874
200.1243,58.1154
200.1270,58.1435
200.1272,58.1481
200.1272,58.4375
200.8467,58.4375
200.8467,55.1952
200.8278,55.1370
200.7783,55.1010
200.7171,55.1010
200.6777,55.1252
200.6587,55.1442
200.5536,55.1956
200.4855,55.2055
199.9455,55.2055
199.8873,55.2244
199.8755,55.2345
199.7317,55.3783
199.7039,55.4328
199.7027,55.4483
199.7027,55.5864
199.7216,55.6446
199.7690,55.6798
199.8901,55.7222
199.9993,55.8028
200.0800,55.9121
200.1248,56.0403
200.1275,56.0684
200.1275,56.0684
200.1277,56.0707
200.1277,56.8543
200.1275,56.8566
200.1275,56.8566
200.1248,56.8847
200.1248,56.8847
200.1248,56.8847
200.0800,57.0129
199.9993,57.1221
199.8901,57.2028
199.7619,57.2476
199.7315,57.2505
199.7292,57.2505
198.6752,57.2505
198.6729,57.2505
198.6425,57.2476
198.5143,57.2028
198.4050,57.1221
198.3244,57.0129
198.2796,56.8847
198.2767,56.8543
198.2767,56.0707
198.2796,56.0403
198.3244,55.9121
198.3641,55.8583
198.3835,55.8002
198.3650,55.7419
198.3158,55.7056
198.2845,55.7005
198.1700,55.7005
198.1118,55.7194
198.1097,55.7209
198.1050,55.7245
197.9590,55.7850
197.8022,55.8057
197.6454,55.7850
197.4994,55.7245
197.3739,55.6283
197.2777,55.5028
197.2172,55.3568
197.1965,55.2000
197.2172,55.0432
197.2777,54.8972
197.3001,54.8680
197.3739,54.7717
197.4994,54.6755
197.6454,54.6150
197.8022,54.5943
197.9590,54.6150
198.1050,54.6755
198.1050,54.6755
198.1050,54.6755
198.1097,54.6790
198.1674,54.6995
198.1700,54.6995
198.3527,54.6995
198.4109,54.6806
198.4469,54.6311
198.4517,54.6005
198.4517,54.5217
198.4517,54.5217
198.4616,54.4536
198.5130,54.3485
198.5957,54.2658
198.7008,54.2144
198.7689,54.2045
200.4855,54.2045
200.5366,54.2119
200.5536,54.2144
200.6587,54.2658
200.6777,54.2848
200.7322,54.3126
200.7926,54.3030
200.8359,54.2598
200.8467,54.2148
200.8467,53.9252
200.8278,53.8670
200.7783,53.8310
200.7171,53.8310
200.6777,53.8552
200.6587,53.8742
200.5536,53.9256
200.4855,53.9355
200.4855,53.9355
198.7689,53.9355
198.7689,53.9355
198.7008,53.9256
198.5957,53.8742
198.5260,53.8045
198.4715,53.7767
198.4560,53.7755
198.0017,53.7755
197.9435,53.7944
197.9075,53.8439
197.9027,53.8745
197.9027,53.9697
197.8911,54.0282
197.8468,54.0946
197.8024,54.1242
197.7804,54.1389
197.7219,54.1505
197.7219,54.1505
196.6825,54.1505
196.6825,54.1505
196.6240,54.1389
196.5576,54.0946
196.5133,54.0282
196.5017,53.9697
196.5017,52.9303
196.5133,52.8718
196.5280,52.8498
196.5576,52.8054
196.6240,52.7611
196.6240,52.7611
196.6825,52.7495
197.7219,52.7495
197.7512,52.7553
197.7804,52.7611
197.8468,52.8054
197.8911,52.8718
197.9027,52.9303
197.9027,53.0255
197.9216,53.0837
197.9711,53.1197
198.0017,53.1245
198.4287,53.1245
198.4869,53.1056
198.5005,53.0894
198.5013,53.0902
198.5130,53.0785
198.5130,53.0785
198.5957,52.9958
198.7008,52.9444
198.7689,52.9345
200.4855,52.9345
200.5366,52.9419
200.5536,52.9444
200.6587,52.9958
200.6587,52.9958
200.6587,52.9958
200.6777,53.0148
200.7322,53.0426
200.7926,53.0330
200.8359,52.9898
200.8467,52.9448
200.8467,52.6552
200.8278,52.5970
200.7783,52.5610
200.7171,52.5610
200.6777,52.5852
200.6587,52.6042
200.5536,52.6556
200.4855,52.6655
200.4855,52.6655
198.7689,52.6655
198.7689,52.6655
198.7008,52.6556
198.5957,52.6042
198.5130,52.5215
198.4616,52.4164
198.4517,52.3483
198.4517,51.9817
198.4616,51.9136
198.4927,51.8500
197.9022,51.8500
197.9022,52.2697
197.8906,52.3280
197.8464,52.3942
197.7802,52.4384
197.7219,52.4500
197.3022,52.4500
197.3022,52.4500
197.3022,51.8500
197.3022,51.8500
197.1022,51.8500
197.1022,52.4500
197.1022,52.4500
196.6825,52.4500
196.6242,52.4384
196.5580,52.3942
196.5138,52.3280
196.5022,52.2697
196.5022,51.8500
196.5022,51.8500
197.1022,51.8500
197.3022,51.8500
197.9022,51.8500
197.9022,51.8500
198.4927,51.8500
198.5130,51.8085
198.5957,51.7258
198.7008,51.6744
198.7689,51.6645
200.4855,51.6645
200.5366,51.6719
200.5536,51.6744
200.6587,51.7258
200.6587,51.7258
200.7414,51.8085
200.7465,51.8190
200.7891,51.8630
200.8355,51.8745
201.1777,51.8745
201.2359,51.8556
201.2719,51.8061
201.2767,51.7755
201.2767,51.6758
201.2683,51.6500
197.9022,51.6500
197.9022,51.6500
197.3022,51.6500
197.3022,51.6500
197.1022,51.6500
197.1022,51.6500
196.5022,51.6500
196.5022,51.6500
196.5022,51.2303
196.5138,51.1720
196.5580,51.1058
196.6242,51.0616
196.6825,51.0500
197.1022,51.0500
197.1022,51.0500
197.1022,51.6500
197.3022,51.6500
197.3022,51.6500
197.3022,51.0500
197.3022,51.0500
197.7219,51.0500
197.7802,51.0616
197.8464,51.1058
197.8906,51.1720
197.9022,51.2303
197.9022,51.6500
201.2683,51.6500
201.2578,51.6176
201.2477,51.6058
200.8964,51.2545
200.8419,51.2267
200.8264,51.2255
200.8084,51.2255
200.7502,51.2444
200.7384,51.2545
200.6587,51.3342
200.5536,51.3856
200.4855,51.3955
200.4855,51.3955
198.7689,51.3955
198.7689,51.3955
198.7008,51.3856
198.5957,51.3342
198.5130,51.2515
198.4616,51.1464
198.4517,51.0783
198.4517,50.7117
198.4616,50.6436
198.5130,50.5385
198.5957,50.4558
198.7008,50.4044
198.7689,50.3945
200.4855,50.3945
200.5366,50.4019
200.5536,50.4044
200.6587,50.4558
200.6587,50.4558
200.6587,50.4558
200.7414,50.5385
200.7414,50.5385
200.7484,50.5455
200.8029,50.5733
200.8184,50.5745
200.9837,50.5745
200.9923,50.5741
200.9942,50.5740
201.0310,50.5707
201.0685,50.5808
201.0770,50.5827
201.1152,50.5894
201.1166,50.5902
201.1404,50.6001
201.1419,50.6004
201.1737,50.6227
201.1810,50.6274
201.2147,50.6468
201.2396,50.6766
201.2455,50.6829
201.8193,51.2567
201.8256,51.2626
201.8554,51.2875
201.8748,51.3212
201.8795,51.3285
201.9018,51.3603
201.9021,51.3618
201.9120,51.3856
201.9128,51.3870
201.9195,51.4252
201.9214,51.4336
201.9315,51.4712
201.9281,51.5099
201.9277,51.5185
201.9277,63.1815
201.9281,63.1901
201.9315,63.2288
201.9214,63.2663
201.9195,63.2748
201.9128,63.3130
201.9128,63.3130
201.9120,63.3144
201.9021,63.3382
201.9018,63.3397
201.8795,63.3715
201.8748,63.3788
201.8554,63.4125
201.8554,63.4125
201.8554,63.4125
201.8256,63.4374
201.8193,63.4433
201.7567,63.5058
201.7289,63.5603
201.7277,63.5758
201.7277,63.6810
201.7466,63.7392
201.7961,63.7752
201.8267,63.7800
201.9219,63.7800
201.9802,63.7916
202.0464,63.8358
202.0906,63.9020
202.1022,63.9603
202.1022,65.3800
202.1022,65.3800
201.8267,65.3800
201.7685,65.3989
201.7325,65.4484
201.7277,65.4790
201.7277,65.4810
201.7466,65.5392
201.7961,65.5752
201.8267,65.5800
202.1022,65.5800
202.1022,66.9997
202.4467,66.9997
202.4467,60.8240
202.4525,60.7697
202.4637,60.7182
202.4710,60.6918
202.5203,60.6052
202.5661,60.5524
202.5988,60.5207
202.5988,60.5207
202.6467,60.4957
202.6895,60.4520
202.6984,60.3914
202.6943,60.3753
202.6801,60.3346
202.6774,60.3065
202.6772,60.3019
202.6772,59.7000
202.6772,59.7000
204.4022,59.7000
204.4022,60.3019
204.4020,60.3065
204.3992,60.3363
204.4126,60.3960
204.4585,60.4364
204.4978,60.4445
204.9477,60.4445
205.0059,60.4256
205.0419,60.3761
205.0467,60.3455
205.0467,59.5000
204.4022,59.5000
204.4022,59.5000
203.6397,59.5000
203.6397,59.5000
203.6397,58.5000
203.6397,58.5000
203.4397,58.5000
203.4397,59.5000
203.4397,59.5000
202.6772,59.5000
202.6772,59.5000
202.6772,58.8981
202.6774,58.8935
202.6801,58.8654
202.7249,58.7374
202.8054,58.6282
202.9146,58.5477
203.0426,58.5028
203.0707,58.5002
203.0753,58.5000
203.4397,58.5000
203.6397,58.5000
204.0041,58.5000
204.0087,58.5002
204.0368,58.5029
204.1648,58.5477
204.2740,58.6282
204.3545,58.7374
204.3993,58.8654
204.4020,58.8935
204.4022,58.8981
204.4022,59.5000
205.0467,59.5000
205.0467,58.3266
205.0467,58.3266
205.0467,58.3240
205.0525,58.2697
205.0637,58.2182
205.0710,58.1918
205.1203,58.1052
205.1661,58.0524
205.1988,58.0207
205.2872,57.9745
205.2872,57.9745
205.3542,57.9548
205.4262,57.9445
205.4262,57.9445
207.9782,57.9445
207.9808,57.9448
207.9808,57.9448
208.0299,57.9501
208.0299,57.9501
208.0325,57.9503
208.0351,57.9509
208.0351,57.9509
208.0827,57.9613
208.0828,57.9613
208.0840,57.9615
208.0853,57.9619
208.0853,57.9619
208.1048,57.9672
208.1104,57.9688
208.1104,57.9688
208.1104,57.9688
208.1970,58.0181
208.2482,58.0624
208.2482,58.0624
208.2498,58.0639
208.2514,58.0654
208.2514,58.0655
208.2815,58.0966
208.3277,58.1850
208.3474,58.2520
208.3503,58.2723
208.3577,58.3240
208.3577,59.2195
208.3577,59.9805
208.3577,63.4760
208.3574,63.4786
208.3574,63.4786
208.3521,63.5277
208.3519,63.5303
208.3513,63.5329
208.3513,63.5329
208.3409,63.5805
208.3409,63.5805
208.3407,63.5818
208.3403,63.5831
208.3403,63.5831
208.3334,63.6082
208.2920,63.6810
208.2841,63.6948
208.2383,63.7476
208.2056,63.7793
208.1172,63.8255
208.0502,63.8451
208.0502,63.8451
207.9782,63.8555
207.9782,63.8555
205.7617,63.8555
205.7035,63.8744
205.6676,63.9239
205.6627,63.9559
205.6770,64.9674
205.6770,64.9674
205.6770,64.9702
205.6768,64.9729
205.6768,64.9729
205.6718,65.0236
205.6718,65.0236
205.6716,65.0263
205.6710,65.0290
205.6607,65.0782
205.6607,65.0782
205.6604,65.0796
205.6600,65.0809
205.6600,65.0809
205.6528,65.1077
205.6429,65.1251
205.6305,65.1851
205.6530,65.2378
205.6646,65.2516
205.6705,65.2579
206.2741,65.8616
206.3286,65.8894
206.3441,65.8906
206.7938,65.8906
206.8520,65.8717
206.8879,65.8222
206.8928,65.7916
206.8928,65.6118
206.8919,65.6025
206.8924,65.6000
206.8924,65.6000
206.9079,65.5218
206.9087,65.5200
206.9094,65.5181
206.9095,65.5179
206.9095,65.5179
206.9538,65.4516
206.9538,65.4516
206.9538,65.4516
207.0201,65.4073
207.0201,65.4073
207.0201,65.4073
207.0230,65.4061
207.0240,65.4057
207.0240,65.4057
207.0240,65.4057
207.1047,65.3897
207.1140,65.3906
208.0904,65.3906
208.0996,65.3897
208.1804,65.4057
208.1814,65.4061
208.1842,65.4073
208.1843,65.4073
208.2506,65.4516
208.2949,65.5179
208.2965,65.5218
208.3125,65.6025
208.3116,65.6118
208.3116,67.5882
208.3125,67.5975
208.2965,67.6783
208.2960,67.6793
208.2949,67.6821
208.2598,67.7346
208.2432,67.7935
208.2644,67.8509
208.2721,67.8596
208.5193,68.1067
208.5256,68.1126
208.5554,68.1375
208.5748,68.1712
208.5795,68.1785
208.6018,68.2103
208.6021,68.2118
208.6120,68.2356
208.6128,68.2370
208.6195,68.2752
208.6214,68.2836
208.6315,68.3212
208.6281,68.3599
208.6277,68.3685
208.6277,71.5242
208.6466,71.5824
208.6567,71.5942
208.8115,71.7490
208.9582,71.8957
209.0127,71.9234
209.0731,71.9139
209.1164,71.8706
209.1195,71.8577
209.1272,71.8500
209.6782,71.8500
209.7364,71.8311
209.7724,71.7816
209.7772,71.7510
209.7772,71.7490
209.7583,71.6908
209.7088,71.6548
209.6782,71.6500
209.1272,71.6500
209.1272,71.6500
209.1272,71.6053
209.1426,71.5276
209.1411,71.5273
209.1497,71.4966
209.1420,71.4726
209.1422,71.4725
209.1383,71.4532
209.1267,71.3947
209.1267,71.1053
209.1383,71.0468
209.1786,70.9865
209.1826,70.9804
209.2490,70.9361
209.2490,70.9361
209.2572,70.9345
209.3106,70.9046
209.3362,70.8490
209.3369,70.8374
209.3369,68.1583
209.3365,68.1497
209.3360,68.1433
209.3331,68.1110
209.3432,68.0735
209.3451,68.0650
209.3518,68.0268
209.3526,68.0254
209.3625,68.0016
209.3628,68.0001
209.3851,67.9683
209.3898,67.9610
209.4003,67.9428
209.4130,67.8830
209.3881,67.8271
209.3351,67.7965
209.3340,67.7963
209.3240,67.7943
209.3222,67.7935
209.3203,67.7928
209.3201,67.7927
209.3201,67.7927
209.2538,67.7484
209.2095,67.6821
209.2084,67.6793
209.2079,67.6783
209.2079,67.6783
209.1924,67.6000
209.1924,67.6000
209.1919,67.5975
209.1928,67.5882
209.1928,65.6118
209.1919,65.6025
209.1924,65.6000
209.1924,65.6000
209.2079,65.5218
209.2087,65.5200
209.2094,65.5181
209.2095,65.5179
209.2095,65.5179
209.2538,65.4516
209.2538,65.4516
209.2538,65.4516
209.3201,65.4073
209.3201,65.4073
209.3201,65.4073
209.3230,65.4061
209.3240,65.4057
209.3240,65.4057
209.3240,65.4057
209.4047,65.3897
209.4140,65.3906
210.3904,65.3906
210.3996,65.3897
210.4804,65.4057
210.4814,65.4061
210.4843,65.4073
210.4843,65.4073
210.5506,65.4516
210.5949,65.5179
210.5965,65.5218
210.6125,65.6025
210.6116,65.6118
210.6116,65.7916
210.6305,65.8498
210.6800,65.8857
210.7106,65.8906
211.4904,65.8906
211.4996,65.8897
211.5804,65.9057
211.5814,65.9061
211.5842,65.9073
211.5843,65.9073
211.6506,65.9516
211.6949,66.0179
211.6965,66.0218
211.7125,66.1025
211.7116,66.1118
211.7116,67.0882
211.7125,67.0975
211.6965,67.1783
211.6965,67.1783
211.6960,67.1793
211.6949,67.1821
211.6949,67.1821
211.6506,67.2484
211.5842,67.2927
211.5804,67.2943
211.5022,67.3098
211.5022,67.3098
211.4997,67.3103
211.4904,67.3094
210.7106,67.3094
210.6524,67.3283
210.6165,67.3778
210.6116,67.4084
210.6116,67.5882
210.6125,67.5975
210.5965,67.6783
210.5960,67.6793
210.5960,67.6793
210.5960,67.6793
210.5949,67.6821
210.5949,67.6821
210.5506,67.7484
210.4843,67.7927
210.4804,67.7943
210.4022,67.8098
210.4022,67.8098
210.3997,67.8103
210.3904,67.8094
210.3291,67.8094
210.2709,67.8283
210.2349,67.8778
210.2304,67.9171
210.2315,67.9288
210.2214,67.9663
210.2195,67.9748
210.2128,68.0130
210.2120,68.0144
210.2021,68.0382
210.2018,68.0397
210.1795,68.0715
210.1748,68.0788
210.1562,68.1110
210.1554,68.1125
210.1256,68.1374
210.1193,68.1433
210.0169,68.2456
209.9891,68.3001
209.9879,68.3156
209.9879,70.6809
210.0068,70.7391
210.0563,70.7751
210.1175,70.7751
210.1419,70.7632
210.2192,70.7116
210.2775,70.7000
210.5022,70.7000
210.5022,70.7000
210.5022,72.0010
210.5211,72.0592
210.5706,72.0952
210.6012,72.1000
210.6032,72.1000
210.6614,72.0811
210.6974,72.0316
210.7022,72.0010
210.7022,70.7000
210.7022,70.7000
210.9269,70.7000
210.9852,70.7116
211.0625,70.7632
211.1214,70.7798
211.1788,70.7587
211.2128,70.7078
211.2165,70.6809
211.2165,70.3987
211.2161,70.3901
211.2127,70.3514
211.2228,70.3139
211.2247,70.3054
211.2255,70.3006
211.2314,70.2672
211.2322,70.2658
211.2421,70.2420
211.2424,70.2405
211.2647,70.2087
211.2694,70.2014
211.2888,70.1677
211.3186,70.1428
211.3249,70.1369
212.1477,69.3142
212.1755,69.2597
212.1767,69.2442
212.1767,68.7707
212.1796,68.7403
212.2244,68.6121
212.3050,68.5028
212.4143,68.4222
212.5425,68.3774
212.5425,68.3774
212.5425,68.3774
212.5706,68.3747
212.5706,68.3747
212.5729,68.3745
213.3565,68.3745
213.3588,68.3747
213.3588,68.3747
213.3869,68.3774
213.3869,68.3774
213.3869,68.3774
213.5151,68.4222
213.5151,68.4222
213.5151,68.4222
213.5157,68.4227
213.6243,68.5028
213.7050,68.6121
213.7498,68.7403
213.7498,68.7403
213.7525,68.7684
213.7525,68.7684
213.7527,68.7707
213.7527,69.8293
213.7525,69.8316
213.7525,69.8316
213.7498,69.8597
213.7498,69.8597
213.7498,69.8597
213.7050,69.9879
213.6243,70.0971
213.5151,70.1778
213.3869,70.2226
213.3565,70.2255
213.3542,70.2255
212.5752,70.2255
212.5729,70.2255
212.5425,70.2226
212.4143,70.1778
212.3623,70.1394
212.3042,70.1200
212.2459,70.1385
212.2335,70.1490
211.8965,70.4860
211.8687,70.5405
211.8675,70.5560
211.8675,70.8374
211.8864,70.8956
211.9359,70.9316
211.9472,70.9345
211.9516,70.9354
211.9554,70.9361
212.0218,70.9804
212.0661,71.0468
212.0777,71.1053
212.0777,71.3215
212.0966,71.3797
212.1461,71.4157
212.1767,71.4205
212.2027,71.4205
212.2609,71.4016
212.2969,71.3521
212.3017,71.3215
212.3017,70.6303
212.3024,70.6268
212.3133,70.5718
212.3512,70.5150
212.3576,70.5054
212.4240,70.4611
212.4240,70.4611
212.4825,70.4495
213.5219,70.4495
213.5512,70.4553
213.5804,70.4611
213.6468,70.5054
213.6911,70.5718
213.7019,70.6261
213.7318,70.6795
213.7873,70.7051
213.8473,70.6931
213.8633,70.6793
213.8636,70.6797
213.9994,70.5755
214.1454,70.5150
214.2816,70.4970
214.3022,70.4943
214.3022,70.4943
214.4590,70.5150
214.6050,70.5755
214.7305,70.6717
214.8267,70.7972
214.8872,70.9432
214.9079,71.1000
214.8872,71.2568
214.8267,71.4028
214.7305,71.5283
214.6841,71.5639
214.6050,71.6245
214.4590,71.6850
214.3022,71.7057
214.1454,71.6850
213.9994,71.6245
213.9203,71.5639
213.8636,71.5203
213.8612,71.5234
213.8298,71.5019
213.7687,71.5035
213.7201,71.5407
213.7027,71.5968
213.7027,71.6697
213.6956,71.7057
213.6911,71.7282
213.6468,71.7946
213.6191,71.8130
213.5804,71.8389
213.5219,71.8505
212.8030,71.8505
212.7448,71.8694
212.7330,71.8795
212.6825,71.9300
212.6548,71.9845
212.6643,72.0449
212.6825,72.0700
212.7330,72.1205
212.7875,72.1483
212.8030,72.1495
213.5219,72.1495
213.5512,72.1553
213.5804,72.1611
213.6468,72.2054
213.6911,72.2718
213.6911,72.2718
213.6911,72.2718
213.7027,72.3303
213.7027,73.3697
213.6967,73.3999
213.6911,73.4282
213.6468,73.4946
213.6081,73.5204
213.5804,73.5389
213.5219,73.5505
213.5219,73.5505
212.4825,73.5505
212.4825,73.5505
212.4240,73.5389
212.3576,73.4946
212.3133,73.4282
212.3017,73.3697
212.3017,72.6785
212.2828,72.6203
212.2333,72.5843
212.2027,72.5795
212.1767,72.5795
212.1185,72.5984
212.0825,72.6479
212.0777,72.6785
212.0777,72.8947
212.0661,72.9532
212.0218,73.0196
211.9830,73.0454
211.9554,73.0639
211.9472,73.0655
211.8938,73.0954
211.8682,73.1510
211.8675,73.1626
211.8675,73.2417
211.8679,73.2503
211.8713,73.2890
211.8612,73.3265
211.8593,73.3350
211.8532,73.3697
211.8526,73.3732
211.8518,73.3746
211.8419,73.3984
211.8416,73.3999
211.8193,73.4317
211.8146,73.4390
211.7952,73.4727
211.7952,73.4727
211.7952,73.4727
211.7654,73.4976
211.7591,73.5035
211.6455,73.6171
211.6396,73.6234
211.6147,73.6532
211.5810,73.6726
211.5737,73.6773
211.5419,73.6996
211.5404,73.6999
211.5404,73.6999
211.5165,73.7098
211.5152,73.7106
211.4815,73.7165
211.4770,73.7173
211.4686,73.7192
211.4310,73.7293
211.3923,73.7259
211.3837,73.7255
209.8207,73.7255
209.8121,73.7259
209.7988,73.7270
209.7734,73.7293
209.7734,73.7293
209.7734,73.7293
209.7358,73.7192
209.7274,73.7173
209.6892,73.7106
209.6879,73.7098
209.6640,73.6999
209.6625,73.6996
209.6307,73.6773
209.6234,73.6726
209.5897,73.6532
209.5648,73.6234
209.5589,73.6171
209.4453,73.5035
209.4390,73.4976
209.4092,73.4727
209.3898,73.4390
209.3851,73.4317
209.3628,73.3999
209.3625,73.3984
209.3526,73.3745
209.3518,73.3732
209.3451,73.3350
209.3432,73.3266
209.3331,73.2890
209.3360,73.2568
209.3365,73.2503
209.3369,73.2417
209.3369,73.1865
209.3180,73.1283
209.2685,73.0923
209.2379,73.0875
208.2017,73.0875
208.1435,73.1064
208.1075,73.1559
208.1027,73.1865
208.1027,73.5293
208.1025,73.5316
208.1025,73.5316
208.0998,73.5597
208.0998,73.5597
208.0998,73.5597
208.0550,73.6879
207.9743,73.7972
207.9422,73.8208
207.9067,73.8706
207.9071,73.9318
207.9434,73.9810
208.0010,73.9995
229.9979,73.9995
230.0065,73.9991
230.0476,73.9955
230.1541,73.9850
230.1760,73.9829
230.1919,73.9800
230.2590,73.9620
230.2621,73.9611
230.3555,73.9328
230.3686,73.9278
230.4367,73.8960
230.4415,73.8936
230.5226,73.8503
230.5327,73.8441
230.5959,73.7998
230.6019,73.7953
230.6716,73.7381
230.6788,73.7315
230.7337,73.6766
230.7403,73.6694
230.7975,73.5997
230.8020,73.5937
230.8463,73.5305
230.8525,73.5204
230.8958,73.4393
230.8982,73.4345
230.9300,73.3664
230.9350,73.3533
230.9634,73.2598
230.9642,73.2569
230.9822,73.1897
230.9851,73.1738
230.9977,73.0455
231.0013,73.0043
231.0017,72.9957
231.0017,69.4000
215.8272,69.4000
215.8272,69.8269
215.8270,69.8315
215.8243,69.8596
215.7795,69.9876
215.6990,70.0968
215.5898,70.1773
215.4618,70.2221
215.4337,70.2248
215.4291,70.2250
215.1397,70.2250
215.1397,70.2250
214.9397,70.2250
214.9397,70.2250
214.6503,70.2250
214.6457,70.2248
214.6176,70.2221
214.4896,70.1773
214.3804,70.0968
214.2999,69.9876
214.2551,69.8596
214.2524,69.8315
214.2522,69.8269
214.2522,69.4000
214.2522,69.4000
214.9397,69.4000
214.9397,69.4000
214.9397,70.2250
215.1397,70.2250
215.1397,69.4000
215.1397,69.4000
215.8272,69.4000
231.0017,69.4000
231.0017,69.2000
215.8272,69.2000
215.8272,69.2000
215.1397,69.2000
215.1397,69.2000
214.9397,69.2000
214.9397,69.2000
214.2522,69.2000
214.2522,69.2000
214.2522,68.7731
214.2524,68.7685
214.2551,68.7404
214.2999,68.6124
214.3804,68.5032
214.4896,68.4227
214.6176,68.3778
214.6457,68.3752
214.6503,68.3750
214.9397,68.3750
214.9397,68.3750
214.9397,69.2000
215.1397,69.2000
215.1397,68.3750
215.1397,68.3750
215.4291,68.3750
215.4337,68.3752
215.4618,68.3779
215.5898,68.4227
215.6990,68.5032
215.7795,68.6124
215.8243,68.7404
215.8270,68.7685
215.8272,68.7731
215.8272,69.2000
231.0017,69.2000
231.0017,60.0000
223.1077,60.0000
223.1076,60.0020
223.0888,60.4684
223.0879,60.4913
223.0876,60.4933
223.0288,60.9774
223.0288,60.9774
223.0286,60.9794
222.9302,61.4611
222.9297,61.4630
222.9297,61.4631
222.7940,61.9315
222.7934,61.9334
222.6191,62.3931
222.6182,62.3949
222.6182,62.3949
222.4092,62.8356
222.4092,62.8356
222.4083,62.8373
222.4073,62.8391
222.4073,62.8391
222.1823,63.2288
222.1625,63.2632
222.1280,63.3130
221.8856,63.6642
221.8832,63.6678
221.8819,63.6693
221.8819,63.6693
221.6443,63.9603
221.5722,64.0487
221.2316,64.4033
220.8636,64.7293
220.8620,64.7305
220.8620,64.7305
220.4721,65.0235
220.4721,65.0235
220.4705,65.0247
220.0549,65.2875
219.6196,65.5160
219.1672,65.7087
218.7008,65.8644
218.2234,65.9821
217.7381,66.0609
217.2480,66.1005
217.2460,66.1005
216.7584,66.1005
216.7564,66.1005
216.2663,66.0609
215.7810,65.9821
215.3036,65.8644
214.8372,65.7087
214.3848,65.5160
213.9495,65.2875
213.5339,65.0247
213.1408,64.7293
212.7728,64.4033
212.4322,64.0487
212.1212,63.6678
211.8419,63.2632
211.5961,62.8373
211.3853,62.3931
211.2110,61.9334
211.0742,61.4611
210.9758,60.9794
210.9165,60.4913
210.8967,60.0000
210.9165,59.5087
210.9758,59.0206
211.0742,58.5389
211.2110,58.0666
211.3853,57.6069
211.5770,57.2028
211.5952,57.1644
211.5952,57.1644
211.5961,57.1627
211.6195,57.1221
211.8409,56.7386
211.8409,56.7386
211.8419,56.7368
212.1212,56.3322
212.2024,56.2328
212.4309,55.9529
212.4309,55.9529
212.4322,55.9513
212.7728,55.5967
212.9403,55.4483
213.1393,55.2720
213.1394,55.2720
213.1408,55.2707
213.1424,55.2695
213.1424,55.2695
213.5323,54.9765
213.5323,54.9765
213.5339,54.9753
213.5638,54.9564
213.6716,54.8883
205.7527,54.8883
205.7428,54.9564
205.6914,55.0615
205.6087,55.1442
205.5036,55.1956
205.4355,55.2055
205.2784,55.2055
205.2202,55.2244
205.1842,55.2739
205.1842,55.3351
205.1869,55.3424
205.1872,55.3432
205.2079,55.5000
205.1872,55.6568
205.1267,55.8028
205.0305,55.9283
204.9984,55.9529
204.9050,56.0245
204.7590,56.0850
204.6022,56.1057
204.4454,56.0850
204.2994,56.0245
204.1739,55.9283
204.0777,55.8028
204.0172,55.6568
203.9965,55.5000
204.0172,55.3432
204.0175,55.3424
204.0179,55.3378
204.0189,55.3303
204.0185,55.3303
204.0223,55.2814
203.9903,55.2292
203.9338,55.2058
203.9260,55.2055
203.7189,55.2055
203.7189,55.2055
203.6508,55.1956
203.5457,55.1442
203.4630,55.0615
203.4116,54.9564
203.4017,54.8883
203.4017,54.5217
203.4116,54.4536
203.4630,54.3485
203.5457,54.2658
203.6508,54.2144
203.7189,54.2045
205.4355,54.2045
205.4866,54.2119
205.5036,54.2144
205.6087,54.2658
205.6914,54.3485
205.7428,54.4536
205.7428,54.4536
205.7527,54.5217
205.7527,54.8883
213.6716,54.8883
213.9478,54.7136
213.9478,54.7136
213.9495,54.7125
213.9512,54.7116
213.9512,54.7116
214.3831,54.4850
214.3831,54.4850
214.3848,54.4840
214.3867,54.4832
214.3867,54.4832
214.8353,54.2921
214.8353,54.2921
214.8372,54.2913
214.8391,54.2907
214.8391,54.2907
215.3017,54.1362
215.3017,54.1362
215.3036,54.1356
215.3055,54.1351
215.3055,54.1351
215.7790,54.0184
215.7790,54.0184
215.7810,54.0179
215.7829,54.0176
215.7829,54.0176
216.2643,53.9394
216.2643,53.9394
216.2663,53.9391
216.2682,53.9389
216.2682,53.9389
216.7544,53.8997
216.7544,53.8997
216.7564,53.8995
217.2480,53.8995
217.2500,53.8997
217.2500,53.8997
217.7362,53.9389
217.7362,53.9389
217.7381,53.9391
217.7401,53.9394
217.7401,53.9394
218.2215,54.0176
218.2215,54.0176
218.2234,54.0179
218.2254,54.0184
218.2254,54.0184
218.6989,54.1351
218.6989,54.1351
218.7008,54.1356
218.7027,54.1362
218.7027,54.1362
219.1653,54.2907
219.1653,54.2907
219.1672,54.2913
219.1690,54.2921
219.1691,54.2921
219.6177,54.4832
219.6177,54.4832
219.6196,54.4840
219.6213,54.4850
219.6213,54.4850
220.0532,54.7116
220.0532,54.7116
220.0549,54.7125
220.0566,54.7136
220.0566,54.7136
220.4688,54.9742
220.4688,54.9742
220.4705,54.9753
220.4721,54.9765
220.4721,54.9765
220.8620,55.2695
220.8620,55.2695
220.8636,55.2707
220.8650,55.2720
220.8651,55.2720
221.2301,55.5954
221.2301,55.5954
221.2316,55.5967
221.2330,55.5982
221.2330,55.5982
221.5708,55.9499
221.5708,55.9499
221.5722,55.9513
221.5734,55.9529
221.5735,55.9529
221.8819,56.3306
221.8819,56.3307
221.8832,56.3322
221.8843,56.3338
221.8843,56.3338
222.1613,56.7352
222.1613,56.7352
222.1625,56.7368
222.1635,56.7386
222.1635,56.7386
222.4073,57.1609
222.4073,57.1609
222.4083,57.1627
222.4091,57.1644
222.4092,57.1644
222.6182,57.6051
222.6182,57.6051
222.6191,57.6069
222.6198,57.6087
222.6198,57.6087
222.7927,58.0647
222.7927,58.0648
222.7934,58.0666
222.7940,58.0685
222.7940,58.0685
222.9297,58.5369
222.9297,58.5370
222.9302,58.5389
222.9306,58.5408
222.9306,58.5408
223.0282,59.0186
223.0286,59.0206
223.0288,59.0226
223.0288,59.0226
223.0527,59.2195
223.0879,59.5087
223.0879,59.5107
223.0879,59.5107
223.0956,59.7000
223.1077,60.0000
231.0017,60.0000
231.0017,53.4000
206.8079,53.4000
206.7872,53.5568
206.7267,53.7028
206.6305,53.8283
206.5377,53.8995
206.5050,53.9245
206.3590,53.9850
206.2022,54.0057
206.0454,53.9850
205.8994,53.9245
205.8090,53.8552
205.7753,53.8293
205.7176,53.8089
205.6589,53.8263
205.6450,53.8379
205.6087,53.8742
205.5036,53.9256
205.4355,53.9355
205.4355,53.9355
203.7189,53.9355
203.7189,53.9355
203.6508,53.9256
203.5457,53.8742
203.4630,53.7915
203.4116,53.6864
203.4017,53.6183
203.4017,53.2517
203.4116,53.1836
203.4630,53.0785
203.5457,52.9958
203.6508,52.9444
203.7189,52.9345
205.4355,52.9345
205.4866,52.9419
205.5036,52.9444
205.6087,52.9958
205.6119,52.9990
205.6664,53.0268
205.7268,53.0172
205.7604,52.9893
205.7739,52.9717
205.8090,52.9448
205.8953,52.8785
205.9300,52.8281
205.9284,52.7670
205.8953,52.7215
205.8224,52.6655
205.7739,52.6283
205.7604,52.6107
205.7100,52.5761
205.6489,52.5777
205.6119,52.6010
205.6087,52.6042
205.5036,52.6556
205.4355,52.6655
205.4355,52.6655
203.7189,52.6655
203.7189,52.6655
203.6508,52.6556
203.5457,52.6042
203.4630,52.5215
203.4116,52.4164
203.4017,52.3483
203.4017,51.9817
203.4116,51.9136
203.4630,51.8085
203.5457,51.7258
203.6508,51.6744
203.7189,51.6645
205.4355,51.6645
205.4866,51.6719
205.5036,51.6744
205.6087,51.7258
205.6450,51.7621
205.6995,51.7899
205.7600,51.7803
205.7753,51.7707
205.8410,51.7203
205.8994,51.6755
205.8994,51.6755
206.0454,51.6150
206.2022,51.5943
206.3590,51.6150
206.5050,51.6755
206.6305,51.7717
206.7267,51.8972
206.7872,52.0432
206.8079,52.2000
206.7872,52.3568
206.7267,52.5028
206.6305,52.6283
206.5091,52.7215
206.4744,52.7719
206.4760,52.8330
206.5091,52.8785
206.6305,52.9717
206.7267,53.0972
206.7872,53.2432
206.8079,53.4000
231.0017,53.4000
231.0017,50.9950
205.7522,50.9950
205.7522,51.0782
205.7423,51.1462
205.6910,51.2512
205.6084,51.3338
205.5034,51.3851
205.4354,51.3950
204.6772,51.3950
204.6772,51.3950
204.4772,51.3950
204.4772,51.3950
203.7190,51.3950
203.6510,51.3851
203.5460,51.3338
203.4634,51.2512
203.4121,51.1462
203.4022,51.0782
203.4022,50.9950
203.4022,50.9950
204.4772,50.9950
204.4772,50.9950
204.4772,51.3950
204.6772,51.3950
204.6772,51.3950
204.6772,50.9950
205.7522,50.9950
231.0017,50.9950
231.0017,50.7950
205.7522,50.7950
205.7522,50.7950
204.6772,50.7950
204.6772,50.3950
204.6772,50.3950
204.4772,50.3950
204.4772,50.7950
204.4772,50.7950
203.4022,50.7950
203.4022,50.7950
203.4022,50.7118
203.4121,50.6438
203.4634,50.5388
203.5460,50.4562
203.6510,50.4049
203.7190,50.3950
204.4772,50.3950
204.6772,50.3950
205.4354,50.3950
205.5034,50.4049
205.6084,50.4562
205.6910,50.5388
205.7423,50.6437
205.7522,50.7118
205.7522,50.7950
231.0017,50.7950
231.0017,47.0043
231.0013,46.9957
230.9977,46.9546
230.9851,46.8262
230.9822,46.8103
230.9642,46.7431
230.9634,46.7402
230.9350,46.6467
230.9300,46.6336
230.8982,46.5655
230.8958,46.5607
230.8525,46.4796
230.8463,46.4695
230.8020,46.4063
230.7975,46.4003
230.7402,46.3306
230.7338,46.3234
230.6788,46.2684
230.6716,46.2620
230.6019,46.2047
230.5959,46.2002
230.5327,46.1559
230.5226,46.1497
230.4415,46.1064
230.4367,46.1040
230.3686,46.0722
230.3555,46.0672
230.2620,46.0388
230.2591,46.0380
230.1919,46.0200
230.1760,46.0171
230.0477,46.0045
230.0065,46.0009
229.9979,46.0005
196.0065,46.0005
Z" /> 
</g>
</g>
</g>
<g style="fill:#FFFFFF; fill-opacity:1.0000; 
stroke:#FFFFFF; stroke-width:0.0000; stroke-opacity:1; 
stroke-linecap:round; stroke-linejoin:round;">
<circle cx="207.5022" cy="61.4000" r="0.2000" /> 
</g>
<g style="fill:#FFFFFF; fill-opacity:1.0000; 
stroke:#FFFFFF; stroke-width:0.0212; stroke-opacity:1; 
stroke-linecap:round; stroke-linejoin:round;">
</g>
<g style="fill:#FFFFFF; fill-opacity:1.0000; 
stroke:#FFFFFF; stroke-width:0.0000; stroke-opacity:1; 
stroke-linecap:round; stroke-linejoin:round;">
<circle cx="206.5022" cy="61.4000" r="0.2000" /> 
</g>
<g style="fill:#FFFFFF; fill-opacity:1.0000; 
stroke:#FFFFFF; stroke-width:0.0212; stroke-opacity:1; 
stroke-linecap:round; stroke-linejoin:round;">
</g>
<g style="fill:#FFFFFF; fill-opacity:1.0000; 
stroke:#FFFFFF; stroke-width:0.0000; stroke-opacity:1; 
stroke-linecap:round; stroke-linejoin:round;">
<circle cx="214.3022" cy="71.1000" r="0.2000" /> 
</g>
<g style="fill:#FFFFFF; fill-opacity:1.0000; 
stroke:#FFFFFF; stroke-width:0.0212; stroke-opacity:1; 
stroke-linecap:round; stroke-linejoin:round;">
</g>
<g style="fill:#FFFFFF; fill-opacity:1.0000; 
stroke:#FFFFFF; stroke-width:0.0000; stroke-opacity:1; 
stroke-linecap:round; stroke-linejoin:round;">
<circle cx="198.8622" cy="72.5400" r="0.2000" /> 
</g>
<g style="fill:#FFFFFF; fill-opacity:1.0000; 
stroke:#FFFFFF; stroke-width:0.0212; stroke-opacity:1; 
stroke-linecap:round; stroke-linejoin:round;">
</g>
<g style="fill:#FFFFFF; fill-opacity:1.0000; 
stroke:#FFFFFF; stroke-width:0.0000; stroke-opacity:1; 
stroke-linecap:round; stroke-linejoin:round;">
<circle cx="197.8022" cy="55.2000" r="0.2000" /> 
</g>
<g style="fill:#FFFFFF; fill-opacity:1.0000; 
stroke:#FFFFFF; stroke-width:0.0212; stroke-opacity:1; 
stroke-linecap:round; stroke-linejoin:round;">
</g>
<g style="fill:#FFFFFF; fill-opacity:1.0000; 
stroke:#FFFFFF; stroke-width:0.0000; stroke-opacity:1; 
stroke-linecap:round; stroke-linejoin:round;">
<circle cx="204.6022" cy="55.5000" r="0.2000" /> 
</g>
<g style="fill:#FFFFFF; fill-opacity:1.0000; 
stroke:#FFFFFF; stroke-width:0.0212; stroke-opacity:1; 
stroke-linecap:round; stroke-linejoin:round;">
</g>
<g style="fill:#FFFFFF; fill-opacity:1.0000; 
stroke:#FFFFFF; stroke-width:0.0000; stroke-opacity:1; 
stroke-linecap:round; stroke-linejoin:round;">
<circle cx="206.2022" cy="53.4000" r="0.2000" /> 
</g>
<g style="fill:#FFFFFF; fill-opacity:1.0000; 
stroke:#FFFFFF; stroke-width:0.0212; stroke-opacity:1; 
stroke-linecap:round; stroke-linejoin:round;">
</g>
<g style="fill:#FFFFFF; fill-opacity:1.0000; 
stroke:#FFFFFF; stroke-width:0.0000; stroke-opacity:1; 
stroke-linecap:round; stroke-linejoin:round;">
<circle cx="206.2022" cy="52.2000" r="0.2000" /> 
</g>
<g style="fill:#FFFFFF; fill-opacity:1.0000; 
stroke:#FFFFFF; stroke-width:0.0212; stroke-opacity:1; 
stroke-linecap:round; stroke-linejoin:round;">
</g>
<g style="fill:#000000; fill-opacity:1.0000; 
stroke:#000000; stroke-width:0.0212; stroke-opacity:1; 
stroke-linecap:round; stroke-linejoin:round;">
</g> 
</svg>
