<?xml version='1.0' encoding='ASCII' standalone='yes'?>
<svg xmlns="http://www.w3.org/2000/svg" version="1.1" width="297.0022mm" height="210.0072mm" viewBox="0.0000 0.0000 297.0022 210.0072">
            <title>Picture generated by PcbDraw </title>
            <desc>Picture generated by PcbDraw</desc>
        <defs><clipPath id="cut-off"><path d=" M 80.0000 60.0000 m-6.1000 0 a 6.1000 6.1000 0 1 0 12.2 0 a 6.1000 6.1000 0 1 0 -12.2 0  M 66.0 75.0 L 94.0 75.0 A 1 1 0 0 0 95.0 74.0 L 95.0 46.0 A 1 1 0 0 0 94.0 45.0 L 66.0 45.0 A 1 1 0 0 0 65.0 46.0 L 65.0 74.0 A 1 1 0 0 0 66.0 75.0 " style="fill-rule: evenodd;"/></clipPath><mask id="pads-mask-silkscreen"><rect x="53.095834" y="35.6625" width="47.408334" height="42.798922" fill="white"/><g style="fill:#000000; fill-opacity:0.0;  stroke:#000000; stroke-width:0.0000; stroke-opacity:1;  stroke-linecap:round; stroke-linejoin:round;">
<g style="fill:#000000; fill-opacity:1.0000;  stroke:#000000; stroke-width:0.0000; stroke-opacity:1;  stroke-linecap:round; stroke-linejoin:round;">
<circle cx="68.0000" cy="48.0000" r="1.1000"/> 
</g>
<g style="fill:#000000; fill-opacity:1.0000;  stroke:#000000; stroke-width:0.0000; stroke-opacity:1;  stroke-linecap:round; stroke-linejoin:round;">
<circle cx="92.0000" cy="48.0000" r="1.1000"/> 
</g>
<g style="fill:#000000; fill-opacity:1.0000;  stroke:#000000; stroke-width:0.0000; stroke-opacity:1;  stroke-linecap:round; stroke-linejoin:round;">
<circle cx="68.0000" cy="72.0000" r="1.1000"/> 
</g>
<g style="fill:#000000; fill-opacity:1.0000;  stroke:#000000; stroke-width:0.0000; stroke-opacity:1;  stroke-linecap:round; stroke-linejoin:round;">
<path style="fill:#000000; fill-opacity:1.0000;  stroke:#000000; stroke-width:0.0000; stroke-opacity:1;  stroke-linecap:round; stroke-linejoin:round;fill-rule:evenodd;" d="M 91.5000,58.2500 90.5000,58.2500 90.5000,55.5000 91.5000,55.5000 Z"/> 
<path style="fill:#000000; fill-opacity:1.0000;  stroke:#000000; stroke-width:0.0000; stroke-opacity:1;  stroke-linecap:round; stroke-linejoin:round;fill-rule:evenodd;" d="M 91.5000,64.5000 90.5000,64.5000 90.5000,61.7500 91.5000,61.7500 Z"/> 
<path style="fill:#000000; fill-opacity:1.0000;  stroke:#000000; stroke-width:0.0000; stroke-opacity:1;  stroke-linecap:round; stroke-linejoin:round;fill-rule:evenodd;" d="M 89.5000,58.2500 88.5000,58.2500 88.5000,55.5000 89.5000,55.5000 Z"/> 
<path style="fill:#000000; fill-opacity:1.0000;  stroke:#000000; stroke-width:0.0000; stroke-opacity:1;  stroke-linecap:round; stroke-linejoin:round;fill-rule:evenodd;" d="M 89.5000,64.5000 88.5000,64.5000 88.5000,61.7500 89.5000,61.7500 Z"/> 
</g>
<g style="fill:#000000; fill-opacity:1.0000;  stroke:#000000; stroke-width:0.0000; stroke-opacity:1;  stroke-linecap:round; stroke-linejoin:round;">
<path style="fill:#000000; fill-opacity:1.0000;  stroke:#000000; stroke-width:0.0000; stroke-opacity:1;  stroke-linecap:round; stroke-linejoin:round;fill-rule:evenodd;" d="M 91.7500,71.5000 91.7500,70.5000 94.5000,70.5000 94.5000,71.5000 Z"/> 
<path style="fill:#000000; fill-opacity:1.0000;  stroke:#000000; stroke-width:0.0000; stroke-opacity:1;  stroke-linecap:round; stroke-linejoin:round;fill-rule:evenodd;" d="M 85.5000,71.5000 85.5000,70.5000 88.2500,70.5000 88.2500,71.5000 Z"/> 
<path style="fill:#000000; fill-opacity:1.0000;  stroke:#000000; stroke-width:0.0000; stroke-opacity:1;  stroke-linecap:round; stroke-linejoin:round;fill-rule:evenodd;" d="M 91.7500,69.5000 91.7500,68.5000 94.5000,68.5000 94.5000,69.5000 Z"/> 
<path style="fill:#000000; fill-opacity:1.0000;  stroke:#000000; stroke-width:0.0000; stroke-opacity:1;  stroke-linecap:round; stroke-linejoin:round;fill-rule:evenodd;" d="M 85.5000,69.5000 85.5000,68.5000 88.2500,68.5000 88.2500,69.5000 Z"/> 
</g>
</g> 
</mask></defs><g transform="scale(-1,1) translate(-297,0)" id="boardContainer"><g id="substrate" clip-path="url(#cut-off)" mask="url(#pads-mask-silkscreen)"><g id="substrate-board" style="fill:#143324; fill-opacity:0.25098039215686274; stroke:#143324; stroke-width:0;"><path d=" M 80.0000 60.0000 m-6.1000 0 a 6.1000 6.1000 0 1 0 12.2 0 a 6.1000 6.1000 0 1 0 -12.2 0  M 66.0 75.0 L 94.0 75.0 A 1 1 0 0 0 95.0 74.0 L 95.0 46.0 A 1 1 0 0 0 94.0 45.0 L 66.0 45.0 A 1 1 0 0 0 65.0 46.0 L 65.0 74.0 A 1 1 0 0 0 66.0 75.0 " style="fill-rule: evenodd;"/><g style="fill-opacity: 0.0;stroke-width: 0.1000;stroke-opacity: 1;stroke-linecap: round;stroke-linejoin: round">
<path d="M65.0000 74.0000 A1.0000 1.0000 0.0 0 0 66.0000 75.0000"/>
<circle cx="80.0000" cy="60.0000" r="6.1000"/> 
<path d="M95.0000 46.0000 L95.0000 74.0000 "/>
<path d="M65.0000 74.0000 L65.0000 46.0000 "/>
<path d="M94.0000 75.0000 A1.0000 1.0000 0.0 0 0 95.0000 74.0000"/>
<path d="M66.0000 45.0000 L94.0000 45.0000 "/>
<path d="M94.0000 75.0000 L66.0000 75.0000 "/>
<path d="M66.0000 45.0000 A1.0000 1.0000 0.0 0 0 65.0000 46.0000"/>
<path d="M95.0000 46.0000 A1.0000 1.0000 0.0 0 0 94.0000 45.0000"/>
</g> 
</g></g></g></svg>
