<?xml version="1.0" standalone="no"?>
 <!DOCTYPE svg PUBLIC "-//W3C//DTD SVG 1.1//EN" 
 "http://www.w3.org/Graphics/SVG/1.1/DTD/svg11.dtd"> 
<svg
  xmlns:svg="http://www.w3.org/2000/svg"
  xmlns="http://www.w3.org/2000/svg"
  xmlns:xlink="http://www.w3.org/1999/xlink"
  version="1.1"
  width="297.0022mm" height="210.0072mm" viewBox="0.0000 0.0000 297.0022 210.0072">
<title>SVG Image created as pedalboard-led-ring-B_Silkscreen.svg date 2023/06/03 12:27:55 </title>
  <desc>Image generated by PCBNEW </desc>
<g style="fill:#000000; fill-opacity:1.0000;stroke:#000000; stroke-opacity:1.0000;
stroke-linecap:round; stroke-linejoin:round;"
 transform="translate(0 0) scale(1 1)">
</g>
<g style="fill:#000000; fill-opacity:0.0; 
stroke:#000000; stroke-width:0.0000; stroke-opacity:1; 
stroke-linecap:round; stroke-linejoin:round;">
</g>
<g style="fill:#000000; fill-opacity:0.0; 
stroke:#000000; stroke-width:0.1000; stroke-opacity:1; 
stroke-linecap:round; stroke-linejoin:round;">
<circle cx="217.0022" cy="60.0000" r="7.0500" /> 
</g>
<g style="fill:#000000; fill-opacity:0.0; 
stroke:#000000; stroke-width:0.1500; stroke-opacity:1; 
stroke-linecap:round; stroke-linejoin:round;">
<g transform="rotate(-90.000000 207.5022 53.5000)">
<text x="207.5022" y="53.5000"
transform="scale(-1 1) translate(-415.004400 0)"
textLength="1.3321" font-size="1.0000" lengthAdjust="spacingAndGlyphs"
text-anchor="start" opacity="0">DI</text>
</g>
<g class="stroked-text"><desc>DI</desc>
<path d="M207.6018 53.7773
L208.3518 53.7773
" />
<path d="M208.3518 53.7773
L208.3518 53.9558
" />
<path d="M208.3518 53.9558
L208.3161 54.0630
" />
<path d="M208.3161 54.0630
L208.2446 54.1344
" />
<path d="M208.2446 54.1344
L208.1732 54.1701
" />
<path d="M208.1732 54.1701
L208.0304 54.2058
" />
<path d="M208.0304 54.2058
L207.9232 54.2058
" />
<path d="M207.9232 54.2058
L207.7804 54.1701
" />
<path d="M207.7804 54.1701
L207.7089 54.1344
" />
<path d="M207.7089 54.1344
L207.6375 54.0630
" />
<path d="M207.6375 54.0630
L207.6018 53.9558
" />
<path d="M207.6018 53.9558
L207.6018 53.7773
" />
<path d="M207.6018 54.5273
L208.3518 54.5273
" />
</g><g transform="rotate(-90.000000 207.0022 65.5000)">
<text x="207.0022" y="65.5000"
transform="scale(-1 1) translate(-414.004400 0)"
textLength="1.6893" font-size="1.0000" lengthAdjust="spacingAndGlyphs"
text-anchor="start" opacity="0">D0</text>
</g>
<g class="stroked-text"><desc>D0</desc>
<path d="M207.1018 65.7773
L207.8518 65.7773
" />
<path d="M207.8518 65.7773
L207.8518 65.9558
" />
<path d="M207.8518 65.9558
L207.8161 66.0630
" />
<path d="M207.8161 66.0630
L207.7446 66.1344
" />
<path d="M207.7446 66.1344
L207.6732 66.1701
" />
<path d="M207.6732 66.1701
L207.5304 66.2058
" />
<path d="M207.5304 66.2058
L207.4232 66.2058
" />
<path d="M207.4232 66.2058
L207.2804 66.1701
" />
<path d="M207.2804 66.1701
L207.2089 66.1344
" />
<path d="M207.2089 66.1344
L207.1375 66.0630
" />
<path d="M207.1375 66.0630
L207.1018 65.9558
" />
<path d="M207.1018 65.9558
L207.1018 65.7773
" />
<path d="M207.8518 66.6701
L207.8518 66.7415
" />
<path d="M207.8518 66.7415
L207.8161 66.8130
" />
<path d="M207.8161 66.8130
L207.7804 66.8487
" />
<path d="M207.7804 66.8487
L207.7089 66.8844
" />
<path d="M207.7089 66.8844
L207.5661 66.9201
" />
<path d="M207.5661 66.9201
L207.3875 66.9201
" />
<path d="M207.3875 66.9201
L207.2446 66.8844
" />
<path d="M207.2446 66.8844
L207.1732 66.8487
" />
<path d="M207.1732 66.8487
L207.1375 66.8130
" />
<path d="M207.1375 66.8130
L207.1018 66.7415
" />
<path d="M207.1018 66.7415
L207.1018 66.6701
" />
<path d="M207.1018 66.6701
L207.1375 66.5987
" />
<path d="M207.1375 66.5987
L207.1732 66.5630
" />
<path d="M207.1732 66.5630
L207.2446 66.5273
" />
<path d="M207.2446 66.5273
L207.3875 66.4915
" />
<path d="M207.3875 66.4915
L207.5661 66.4915
" />
<path d="M207.5661 66.4915
L207.7089 66.5273
" />
<path d="M207.7089 66.5273
L207.7804 66.5630
" />
<path d="M207.7804 66.5630
L207.8161 66.5987
" />
<path d="M207.8161 66.5987
L207.8518 66.6701
" />
</g><text x="202.5022" y="73.0000"
transform="scale(-1 1) translate(-405.004400 0)"
textLength="2.3679" font-size="1.0000" lengthAdjust="spacingAndGlyphs"
text-anchor="start" opacity="0">VCC</text>
<g class="stroked-text"><desc>VCC</desc>
<path d="M202.6723 72.1504
L202.9223 72.9004
" />
<path d="M202.9223 72.9004
L203.1723 72.1504
" />
<path d="M203.8509 72.8290
L203.8152 72.8647
" />
<path d="M203.8152 72.8647
L203.7080 72.9004
" />
<path d="M203.7080 72.9004
L203.6366 72.9004
" />
<path d="M203.6366 72.9004
L203.5295 72.8647
" />
<path d="M203.5295 72.8647
L203.4580 72.7933
" />
<path d="M203.4580 72.7933
L203.4223 72.7218
" />
<path d="M203.4223 72.7218
L203.3866 72.5790
" />
<path d="M203.3866 72.5790
L203.3866 72.4718
" />
<path d="M203.3866 72.4718
L203.4223 72.3290
" />
<path d="M203.4223 72.3290
L203.4580 72.2576
" />
<path d="M203.4580 72.2576
L203.5295 72.1861
" />
<path d="M203.5295 72.1861
L203.6366 72.1504
" />
<path d="M203.6366 72.1504
L203.7080 72.1504
" />
<path d="M203.7080 72.1504
L203.8152 72.1861
" />
<path d="M203.8152 72.1861
L203.8509 72.2218
" />
<path d="M204.6009 72.8290
L204.5652 72.8647
" />
<path d="M204.5652 72.8647
L204.4580 72.9004
" />
<path d="M204.4580 72.9004
L204.3866 72.9004
" />
<path d="M204.3866 72.9004
L204.2795 72.8647
" />
<path d="M204.2795 72.8647
L204.2080 72.7933
" />
<path d="M204.2080 72.7933
L204.1723 72.7218
" />
<path d="M204.1723 72.7218
L204.1366 72.5790
" />
<path d="M204.1366 72.5790
L204.1366 72.4718
" />
<path d="M204.1366 72.4718
L204.1723 72.3290
" />
<path d="M204.1723 72.3290
L204.2080 72.2576
" />
<path d="M204.2080 72.2576
L204.2795 72.1861
" />
<path d="M204.2795 72.1861
L204.3866 72.1504
" />
<path d="M204.3866 72.1504
L204.4580 72.1504
" />
<path d="M204.4580 72.1504
L204.5652 72.1861
" />
<path d="M204.5652 72.1861
L204.6009 72.2218
" />
</g><g transform="rotate(-90.000000 205.5022 65.0000)">
<text x="205.5022" y="65.0000"
transform="scale(-1 1) translate(-411.004400 0)"
textLength="2.5107" font-size="1.0000" lengthAdjust="spacingAndGlyphs"
text-anchor="start" opacity="0">GND</text>
</g>
<g class="stroked-text"><desc>GND</desc>
<path d="M206.3161 65.6701
L206.3518 65.5987
" />
<path d="M206.3518 65.5987
L206.3518 65.4915
" />
<path d="M206.3518 65.4915
L206.3161 65.3844
" />
<path d="M206.3161 65.3844
L206.2446 65.3130
" />
<path d="M206.2446 65.3130
L206.1732 65.2773
" />
<path d="M206.1732 65.2773
L206.0304 65.2415
" />
<path d="M206.0304 65.2415
L205.9232 65.2415
" />
<path d="M205.9232 65.2415
L205.7804 65.2773
" />
<path d="M205.7804 65.2773
L205.7089 65.3130
" />
<path d="M205.7089 65.3130
L205.6375 65.3844
" />
<path d="M205.6375 65.3844
L205.6018 65.4915
" />
<path d="M205.6018 65.4915
L205.6018 65.5630
" />
<path d="M205.6018 65.5630
L205.6375 65.6701
" />
<path d="M205.6375 65.6701
L205.6732 65.7058
" />
<path d="M205.6732 65.7058
L205.9232 65.7058
" />
<path d="M205.9232 65.7058
L205.9232 65.5630
" />
<path d="M205.6018 66.0273
L206.3518 66.0273
" />
<path d="M206.3518 66.0273
L205.6018 66.4558
" />
<path d="M205.6018 66.4558
L206.3518 66.4558
" />
<path d="M205.6018 66.8130
L206.3518 66.8130
" />
<path d="M206.3518 66.8130
L206.3518 66.9915
" />
<path d="M206.3518 66.9915
L206.3161 67.0987
" />
<path d="M206.3161 67.0987
L206.2446 67.1701
" />
<path d="M206.2446 67.1701
L206.1732 67.2058
" />
<path d="M206.1732 67.2058
L206.0304 67.2415
" />
<path d="M206.0304 67.2415
L205.9232 67.2415
" />
<path d="M205.9232 67.2415
L205.7804 67.2058
" />
<path d="M205.7804 67.2058
L205.7089 67.1701
" />
<path d="M205.7089 67.1701
L205.6375 67.0987
" />
<path d="M205.6375 67.0987
L205.6018 66.9915
" />
<path d="M205.6018 66.9915
L205.6018 66.8130
" />
</g><text x="212.0022" y="71.5000"
transform="scale(-1 1) translate(-424.004400 0)"
textLength="2.5107" font-size="1.0000" lengthAdjust="spacingAndGlyphs"
text-anchor="start" opacity="0">GND</text>
<g class="stroked-text"><desc>GND</desc>
<path d="M212.6723 70.6861
L212.6009 70.6504
" />
<path d="M212.6009 70.6504
L212.4937 70.6504
" />
<path d="M212.4937 70.6504
L212.3866 70.6861
" />
<path d="M212.3866 70.6861
L212.3152 70.7576
" />
<path d="M212.3152 70.7576
L212.2795 70.8290
" />
<path d="M212.2795 70.8290
L212.2437 70.9718
" />
<path d="M212.2437 70.9718
L212.2437 71.0790
" />
<path d="M212.2437 71.0790
L212.2795 71.2218
" />
<path d="M212.2795 71.2218
L212.3152 71.2933
" />
<path d="M212.3152 71.2933
L212.3866 71.3647
" />
<path d="M212.3866 71.3647
L212.4937 71.4004
" />
<path d="M212.4937 71.4004
L212.5652 71.4004
" />
<path d="M212.5652 71.4004
L212.6723 71.3647
" />
<path d="M212.6723 71.3647
L212.7080 71.3290
" />
<path d="M212.7080 71.3290
L212.7080 71.0790
" />
<path d="M212.7080 71.0790
L212.5652 71.0790
" />
<path d="M213.0295 71.4004
L213.0295 70.6504
" />
<path d="M213.0295 70.6504
L213.4580 71.4004
" />
<path d="M213.4580 71.4004
L213.4580 70.6504
" />
<path d="M213.8152 71.4004
L213.8152 70.6504
" />
<path d="M213.8152 70.6504
L213.9937 70.6504
" />
<path d="M213.9937 70.6504
L214.1009 70.6861
" />
<path d="M214.1009 70.6861
L214.1723 70.7576
" />
<path d="M214.1723 70.7576
L214.2080 70.8290
" />
<path d="M214.2080 70.8290
L214.2437 70.9718
" />
<path d="M214.2437 70.9718
L214.2437 71.0790
" />
<path d="M214.2437 71.0790
L214.2080 71.2218
" />
<path d="M214.2080 71.2218
L214.1723 71.2933
" />
<path d="M214.1723 71.2933
L214.1009 71.3647
" />
<path d="M214.1009 71.3647
L213.9937 71.4004
" />
<path d="M213.9937 71.4004
L213.8152 71.4004
" />
</g><text x="202.5022" y="68.0000"
transform="scale(-1 1) translate(-405.004400 0)"
textLength="1.3321" font-size="1.0000" lengthAdjust="spacingAndGlyphs"
text-anchor="start" opacity="0">DI</text>
<g class="stroked-text"><desc>DI</desc>
<path d="M202.7795 67.9004
L202.7795 67.1504
" />
<path d="M202.7795 67.1504
L202.9580 67.1504
" />
<path d="M202.9580 67.1504
L203.0652 67.1861
" />
<path d="M203.0652 67.1861
L203.1366 67.2576
" />
<path d="M203.1366 67.2576
L203.1723 67.3290
" />
<path d="M203.1723 67.3290
L203.2080 67.4718
" />
<path d="M203.2080 67.4718
L203.2080 67.5790
" />
<path d="M203.2080 67.5790
L203.1723 67.7218
" />
<path d="M203.1723 67.7218
L203.1366 67.7933
" />
<path d="M203.1366 67.7933
L203.0652 67.8647
" />
<path d="M203.0652 67.8647
L202.9580 67.9004
" />
<path d="M202.9580 67.9004
L202.7795 67.9004
" />
<path d="M203.5295 67.9004
L203.5295 67.1504
" />
</g><g transform="rotate(-90.000000 205.5022 53.0000)">
<text x="205.5022" y="53.0000"
transform="scale(-1 1) translate(-411.004400 0)"
textLength="2.3679" font-size="1.0000" lengthAdjust="spacingAndGlyphs"
text-anchor="start" opacity="0">VCC</text>
</g>
<g class="stroked-text"><desc>VCC</desc>
<path d="M206.3518 53.1701
L205.6018 53.4201
" />
<path d="M205.6018 53.4201
L206.3518 53.6701
" />
<path d="M205.6732 54.3487
L205.6375 54.3130
" />
<path d="M205.6375 54.3130
L205.6018 54.2058
" />
<path d="M205.6018 54.2058
L205.6018 54.1344
" />
<path d="M205.6018 54.1344
L205.6375 54.0273
" />
<path d="M205.6375 54.0273
L205.7089 53.9558
" />
<path d="M205.7089 53.9558
L205.7804 53.9201
" />
<path d="M205.7804 53.9201
L205.9232 53.8844
" />
<path d="M205.9232 53.8844
L206.0304 53.8844
" />
<path d="M206.0304 53.8844
L206.1732 53.9201
" />
<path d="M206.1732 53.9201
L206.2446 53.9558
" />
<path d="M206.2446 53.9558
L206.3161 54.0273
" />
<path d="M206.3161 54.0273
L206.3518 54.1344
" />
<path d="M206.3518 54.1344
L206.3518 54.2058
" />
<path d="M206.3518 54.2058
L206.3161 54.3130
" />
<path d="M206.3161 54.3130
L206.2804 54.3487
" />
<path d="M205.6732 55.0987
L205.6375 55.0630
" />
<path d="M205.6375 55.0630
L205.6018 54.9558
" />
<path d="M205.6018 54.9558
L205.6018 54.8844
" />
<path d="M205.6018 54.8844
L205.6375 54.7773
" />
<path d="M205.6375 54.7773
L205.7089 54.7058
" />
<path d="M205.7089 54.7058
L205.7804 54.6701
" />
<path d="M205.7804 54.6701
L205.9232 54.6344
" />
<path d="M205.9232 54.6344
L206.0304 54.6344
" />
<path d="M206.0304 54.6344
L206.1732 54.6701
" />
<path d="M206.1732 54.6701
L206.2446 54.7058
" />
<path d="M206.2446 54.7058
L206.3161 54.7773
" />
<path d="M206.3161 54.7773
L206.3518 54.8844
" />
<path d="M206.3518 54.8844
L206.3518 54.9558
" />
<path d="M206.3518 54.9558
L206.3161 55.0630
" />
<path d="M206.3161 55.0630
L206.2804 55.0987
" />
</g></g>
<g style="fill:#000000; fill-opacity:0.0; 
stroke:#000000; stroke-width:0.1250; stroke-opacity:1; 
stroke-linecap:round; stroke-linejoin:round;">
<text x="207.0022" y="74.5000"
transform="scale(-1 1) translate(-414.004400 0)"
textLength="4.2363" font-size="0.6667" lengthAdjust="spacingAndGlyphs"
text-anchor="middle" opacity="0">PCB: 1.0.0</text>
<g class="stroked-text"><desc>PCB: 1.0.0</desc>
<path d="M205.1093 74.4323
L205.1093 73.9323
" />
<path d="M205.1093 73.9323
L205.2998 73.9323
" />
<path d="M205.2998 73.9323
L205.3474 73.9561
" />
<path d="M205.3474 73.9561
L205.3713 73.9799
" />
<path d="M205.3713 73.9799
L205.3951 74.0275
" />
<path d="M205.3951 74.0275
L205.3951 74.0990
" />
<path d="M205.3951 74.0990
L205.3713 74.1466
" />
<path d="M205.3713 74.1466
L205.3474 74.1704
" />
<path d="M205.3474 74.1704
L205.2998 74.1942
" />
<path d="M205.2998 74.1942
L205.1093 74.1942
" />
<path d="M205.8951 74.3847
L205.8713 74.4085
" />
<path d="M205.8713 74.4085
L205.7998 74.4323
" />
<path d="M205.7998 74.4323
L205.7522 74.4323
" />
<path d="M205.7522 74.4323
L205.6808 74.4085
" />
<path d="M205.6808 74.4085
L205.6332 74.3609
" />
<path d="M205.6332 74.3609
L205.6093 74.3133
" />
<path d="M205.6093 74.3133
L205.5855 74.2180
" />
<path d="M205.5855 74.2180
L205.5855 74.1466
" />
<path d="M205.5855 74.1466
L205.6093 74.0514
" />
<path d="M205.6093 74.0514
L205.6332 74.0037
" />
<path d="M205.6332 74.0037
L205.6808 73.9561
" />
<path d="M205.6808 73.9561
L205.7522 73.9323
" />
<path d="M205.7522 73.9323
L205.7998 73.9323
" />
<path d="M205.7998 73.9323
L205.8713 73.9561
" />
<path d="M205.8713 73.9561
L205.8951 73.9799
" />
<path d="M206.2760 74.1704
L206.3474 74.1942
" />
<path d="M206.3474 74.1942
L206.3713 74.2180
" />
<path d="M206.3713 74.2180
L206.3951 74.2656
" />
<path d="M206.3951 74.2656
L206.3951 74.3371
" />
<path d="M206.3951 74.3371
L206.3713 74.3847
" />
<path d="M206.3713 74.3847
L206.3474 74.4085
" />
<path d="M206.3474 74.4085
L206.2998 74.4323
" />
<path d="M206.2998 74.4323
L206.1093 74.4323
" />
<path d="M206.1093 74.4323
L206.1093 73.9323
" />
<path d="M206.1093 73.9323
L206.2760 73.9323
" />
<path d="M206.2760 73.9323
L206.3236 73.9561
" />
<path d="M206.3236 73.9561
L206.3474 73.9799
" />
<path d="M206.3474 73.9799
L206.3713 74.0275
" />
<path d="M206.3713 74.0275
L206.3713 74.0752
" />
<path d="M206.3713 74.0752
L206.3474 74.1228
" />
<path d="M206.3474 74.1228
L206.3236 74.1466
" />
<path d="M206.3236 74.1466
L206.2760 74.1704
" />
<path d="M206.2760 74.1704
L206.1093 74.1704
" />
<path d="M206.6093 74.3847
L206.6332 74.4085
" />
<path d="M206.6332 74.4085
L206.6093 74.4323
" />
<path d="M206.6093 74.4323
L206.5855 74.4085
" />
<path d="M206.5855 74.4085
L206.6093 74.3847
" />
<path d="M206.6093 74.3847
L206.6093 74.4323
" />
<path d="M206.6093 74.1228
L206.6332 74.1466
" />
<path d="M206.6332 74.1466
L206.6093 74.1704
" />
<path d="M206.6093 74.1704
L206.5855 74.1466
" />
<path d="M206.5855 74.1466
L206.6093 74.1228
" />
<path d="M206.6093 74.1228
L206.6093 74.1704
" />
<path d="M207.4903 74.4323
L207.2046 74.4323
" />
<path d="M207.3474 74.4323
L207.3474 73.9323
" />
<path d="M207.3474 73.9323
L207.2998 74.0037
" />
<path d="M207.2998 74.0037
L207.2522 74.0514
" />
<path d="M207.2522 74.0514
L207.2046 74.0752
" />
<path d="M207.7046 74.3847
L207.7284 74.4085
" />
<path d="M207.7284 74.4085
L207.7046 74.4323
" />
<path d="M207.7046 74.4323
L207.6808 74.4085
" />
<path d="M207.6808 74.4085
L207.7046 74.3847
" />
<path d="M207.7046 74.3847
L207.7046 74.4323
" />
<path d="M208.0379 73.9323
L208.0855 73.9323
" />
<path d="M208.0855 73.9323
L208.1332 73.9561
" />
<path d="M208.1332 73.9561
L208.1570 73.9799
" />
<path d="M208.1570 73.9799
L208.1808 74.0275
" />
<path d="M208.1808 74.0275
L208.2046 74.1228
" />
<path d="M208.2046 74.1228
L208.2046 74.2418
" />
<path d="M208.2046 74.2418
L208.1808 74.3371
" />
<path d="M208.1808 74.3371
L208.1570 74.3847
" />
<path d="M208.1570 74.3847
L208.1332 74.4085
" />
<path d="M208.1332 74.4085
L208.0855 74.4323
" />
<path d="M208.0855 74.4323
L208.0379 74.4323
" />
<path d="M208.0379 74.4323
L207.9903 74.4085
" />
<path d="M207.9903 74.4085
L207.9665 74.3847
" />
<path d="M207.9665 74.3847
L207.9427 74.3371
" />
<path d="M207.9427 74.3371
L207.9189 74.2418
" />
<path d="M207.9189 74.2418
L207.9189 74.1228
" />
<path d="M207.9189 74.1228
L207.9427 74.0275
" />
<path d="M207.9427 74.0275
L207.9665 73.9799
" />
<path d="M207.9665 73.9799
L207.9903 73.9561
" />
<path d="M207.9903 73.9561
L208.0379 73.9323
" />
<path d="M208.4189 74.3847
L208.4427 74.4085
" />
<path d="M208.4427 74.4085
L208.4189 74.4323
" />
<path d="M208.4189 74.4323
L208.3951 74.4085
" />
<path d="M208.3951 74.4085
L208.4189 74.3847
" />
<path d="M208.4189 74.3847
L208.4189 74.4323
" />
<path d="M208.7522 73.9323
L208.7998 73.9323
" />
<path d="M208.7998 73.9323
L208.8474 73.9561
" />
<path d="M208.8474 73.9561
L208.8712 73.9799
" />
<path d="M208.8712 73.9799
L208.8951 74.0275
" />
<path d="M208.8951 74.0275
L208.9189 74.1228
" />
<path d="M208.9189 74.1228
L208.9189 74.2418
" />
<path d="M208.9189 74.2418
L208.8951 74.3371
" />
<path d="M208.8951 74.3371
L208.8712 74.3847
" />
<path d="M208.8712 74.3847
L208.8474 74.4085
" />
<path d="M208.8474 74.4085
L208.7998 74.4323
" />
<path d="M208.7998 74.4323
L208.7522 74.4323
" />
<path d="M208.7522 74.4323
L208.7046 74.4085
" />
<path d="M208.7046 74.4085
L208.6808 74.3847
" />
<path d="M208.6808 74.3847
L208.6570 74.3371
" />
<path d="M208.6570 74.3371
L208.6332 74.2418
" />
<path d="M208.6332 74.2418
L208.6332 74.1228
" />
<path d="M208.6332 74.1228
L208.6570 74.0275
" />
<path d="M208.6570 74.0275
L208.6808 73.9799
" />
<path d="M208.6808 73.9799
L208.7046 73.9561
" />
<path d="M208.7046 73.9561
L208.7522 73.9323
" />
</g></g>
<g style="fill:#000000; fill-opacity:0.0; 
stroke:#000000; stroke-width:0.1500; stroke-opacity:1; 
stroke-linecap:round; stroke-linejoin:round;">
<text x="212.0022" y="69.5000"
transform="scale(-1 1) translate(-424.004400 0)"
textLength="1.7607" font-size="1.0000" lengthAdjust="spacingAndGlyphs"
text-anchor="start" opacity="0">DO</text>
<g class="stroked-text"><desc>DO</desc>
<path d="M212.2795 69.4004
L212.2795 68.6504
" />
<path d="M212.2795 68.6504
L212.4580 68.6504
" />
<path d="M212.4580 68.6504
L212.5652 68.6861
" />
<path d="M212.5652 68.6861
L212.6366 68.7576
" />
<path d="M212.6366 68.7576
L212.6723 68.8290
" />
<path d="M212.6723 68.8290
L212.7080 68.9718
" />
<path d="M212.7080 68.9718
L212.7080 69.0790
" />
<path d="M212.7080 69.0790
L212.6723 69.2218
" />
<path d="M212.6723 69.2218
L212.6366 69.2933
" />
<path d="M212.6366 69.2933
L212.5652 69.3647
" />
<path d="M212.5652 69.3647
L212.4580 69.4004
" />
<path d="M212.4580 69.4004
L212.2795 69.4004
" />
<path d="M213.1723 68.6504
L213.3152 68.6504
" />
<path d="M213.3152 68.6504
L213.3866 68.6861
" />
<path d="M213.3866 68.6861
L213.4580 68.7576
" />
<path d="M213.4580 68.7576
L213.4937 68.9004
" />
<path d="M213.4937 68.9004
L213.4937 69.1504
" />
<path d="M213.4937 69.1504
L213.4580 69.2933
" />
<path d="M213.4580 69.2933
L213.3866 69.3647
" />
<path d="M213.3866 69.3647
L213.3152 69.4004
" />
<path d="M213.3152 69.4004
L213.1723 69.4004
" />
<path d="M213.1723 69.4004
L213.1009 69.3647
" />
<path d="M213.1009 69.3647
L213.0295 69.2933
" />
<path d="M213.0295 69.2933
L212.9937 69.1504
" />
<path d="M212.9937 69.1504
L212.9937 68.9004
" />
<path d="M212.9937 68.9004
L213.0295 68.7576
" />
<path d="M213.0295 68.7576
L213.1009 68.6861
" />
<path d="M213.1009 68.6861
L213.1723 68.6504
" />
</g><text x="217.2022" y="46.7925"
transform="scale(-1 1) translate(-434.404400 0)"
textLength="12.1893" font-size="1.0000" lengthAdjust="spacingAndGlyphs"
text-anchor="middle" opacity="0">Pedalboard LED Ring</text>
<g class="stroked-text"><desc>Pedalboard LED Ring</desc>
<path d="M211.3986 46.6929
L211.3986 45.9429
" />
<path d="M211.3986 45.9429
L211.6843 45.9429
" />
<path d="M211.6843 45.9429
L211.7558 45.9786
" />
<path d="M211.7558 45.9786
L211.7915 46.0143
" />
<path d="M211.7915 46.0143
L211.8272 46.0858
" />
<path d="M211.8272 46.0858
L211.8272 46.1929
" />
<path d="M211.8272 46.1929
L211.7915 46.2643
" />
<path d="M211.7915 46.2643
L211.7558 46.3001
" />
<path d="M211.7558 46.3001
L211.6843 46.3358
" />
<path d="M211.6843 46.3358
L211.3986 46.3358
" />
<path d="M212.4343 46.6572
L212.3629 46.6929
" />
<path d="M212.3629 46.6929
L212.2201 46.6929
" />
<path d="M212.2201 46.6929
L212.1486 46.6572
" />
<path d="M212.1486 46.6572
L212.1129 46.5858
" />
<path d="M212.1129 46.5858
L212.1129 46.3001
" />
<path d="M212.1129 46.3001
L212.1486 46.2286
" />
<path d="M212.1486 46.2286
L212.2201 46.1929
" />
<path d="M212.2201 46.1929
L212.3629 46.1929
" />
<path d="M212.3629 46.1929
L212.4343 46.2286
" />
<path d="M212.4343 46.2286
L212.4701 46.3001
" />
<path d="M212.4701 46.3001
L212.4701 46.3715
" />
<path d="M212.4701 46.3715
L212.1129 46.4429
" />
<path d="M213.1129 46.6929
L213.1129 45.9429
" />
<path d="M213.1129 46.6572
L213.0415 46.6929
" />
<path d="M213.0415 46.6929
L212.8986 46.6929
" />
<path d="M212.8986 46.6929
L212.8272 46.6572
" />
<path d="M212.8272 46.6572
L212.7915 46.6215
" />
<path d="M212.7915 46.6215
L212.7558 46.5501
" />
<path d="M212.7558 46.5501
L212.7558 46.3358
" />
<path d="M212.7558 46.3358
L212.7915 46.2643
" />
<path d="M212.7915 46.2643
L212.8272 46.2286
" />
<path d="M212.8272 46.2286
L212.8986 46.1929
" />
<path d="M212.8986 46.1929
L213.0415 46.1929
" />
<path d="M213.0415 46.1929
L213.1129 46.2286
" />
<path d="M213.7915 46.6929
L213.7915 46.3001
" />
<path d="M213.7915 46.3001
L213.7558 46.2286
" />
<path d="M213.7558 46.2286
L213.6843 46.1929
" />
<path d="M213.6843 46.1929
L213.5415 46.1929
" />
<path d="M213.5415 46.1929
L213.4701 46.2286
" />
<path d="M213.7915 46.6572
L213.7201 46.6929
" />
<path d="M213.7201 46.6929
L213.5415 46.6929
" />
<path d="M213.5415 46.6929
L213.4701 46.6572
" />
<path d="M213.4701 46.6572
L213.4343 46.5858
" />
<path d="M213.4343 46.5858
L213.4343 46.5143
" />
<path d="M213.4343 46.5143
L213.4701 46.4429
" />
<path d="M213.4701 46.4429
L213.5415 46.4072
" />
<path d="M213.5415 46.4072
L213.7201 46.4072
" />
<path d="M213.7201 46.4072
L213.7915 46.3715
" />
<path d="M214.2558 46.6929
L214.1843 46.6572
" />
<path d="M214.1843 46.6572
L214.1486 46.5858
" />
<path d="M214.1486 46.5858
L214.1486 45.9429
" />
<path d="M214.5415 46.6929
L214.5415 45.9429
" />
<path d="M214.5415 46.2286
L214.6129 46.1929
" />
<path d="M214.6129 46.1929
L214.7558 46.1929
" />
<path d="M214.7558 46.1929
L214.8272 46.2286
" />
<path d="M214.8272 46.2286
L214.8629 46.2643
" />
<path d="M214.8629 46.2643
L214.8986 46.3358
" />
<path d="M214.8986 46.3358
L214.8986 46.5501
" />
<path d="M214.8986 46.5501
L214.8629 46.6215
" />
<path d="M214.8629 46.6215
L214.8272 46.6572
" />
<path d="M214.8272 46.6572
L214.7558 46.6929
" />
<path d="M214.7558 46.6929
L214.6129 46.6929
" />
<path d="M214.6129 46.6929
L214.5415 46.6572
" />
<path d="M215.3272 46.6929
L215.2558 46.6572
" />
<path d="M215.2558 46.6572
L215.2201 46.6215
" />
<path d="M215.2201 46.6215
L215.1843 46.5501
" />
<path d="M215.1843 46.5501
L215.1843 46.3358
" />
<path d="M215.1843 46.3358
L215.2201 46.2643
" />
<path d="M215.2201 46.2643
L215.2558 46.2286
" />
<path d="M215.2558 46.2286
L215.3272 46.1929
" />
<path d="M215.3272 46.1929
L215.4343 46.1929
" />
<path d="M215.4343 46.1929
L215.5058 46.2286
" />
<path d="M215.5058 46.2286
L215.5415 46.2643
" />
<path d="M215.5415 46.2643
L215.5772 46.3358
" />
<path d="M215.5772 46.3358
L215.5772 46.5501
" />
<path d="M215.5772 46.5501
L215.5415 46.6215
" />
<path d="M215.5415 46.6215
L215.5058 46.6572
" />
<path d="M215.5058 46.6572
L215.4343 46.6929
" />
<path d="M215.4343 46.6929
L215.3272 46.6929
" />
<path d="M216.2201 46.6929
L216.2201 46.3001
" />
<path d="M216.2201 46.3001
L216.1843 46.2286
" />
<path d="M216.1843 46.2286
L216.1129 46.1929
" />
<path d="M216.1129 46.1929
L215.9701 46.1929
" />
<path d="M215.9701 46.1929
L215.8986 46.2286
" />
<path d="M216.2201 46.6572
L216.1486 46.6929
" />
<path d="M216.1486 46.6929
L215.9701 46.6929
" />
<path d="M215.9701 46.6929
L215.8986 46.6572
" />
<path d="M215.8986 46.6572
L215.8629 46.5858
" />
<path d="M215.8629 46.5858
L215.8629 46.5143
" />
<path d="M215.8629 46.5143
L215.8986 46.4429
" />
<path d="M215.8986 46.4429
L215.9701 46.4072
" />
<path d="M215.9701 46.4072
L216.1486 46.4072
" />
<path d="M216.1486 46.4072
L216.2201 46.3715
" />
<path d="M216.5772 46.6929
L216.5772 46.1929
" />
<path d="M216.5772 46.3358
L216.6129 46.2643
" />
<path d="M216.6129 46.2643
L216.6486 46.2286
" />
<path d="M216.6486 46.2286
L216.7201 46.1929
" />
<path d="M216.7201 46.1929
L216.7915 46.1929
" />
<path d="M217.3629 46.6929
L217.3629 45.9429
" />
<path d="M217.3629 46.6572
L217.2915 46.6929
" />
<path d="M217.2915 46.6929
L217.1486 46.6929
" />
<path d="M217.1486 46.6929
L217.0772 46.6572
" />
<path d="M217.0772 46.6572
L217.0415 46.6215
" />
<path d="M217.0415 46.6215
L217.0058 46.5501
" />
<path d="M217.0058 46.5501
L217.0058 46.3358
" />
<path d="M217.0058 46.3358
L217.0415 46.2643
" />
<path d="M217.0415 46.2643
L217.0772 46.2286
" />
<path d="M217.0772 46.2286
L217.1486 46.1929
" />
<path d="M217.1486 46.1929
L217.2915 46.1929
" />
<path d="M217.2915 46.1929
L217.3629 46.2286
" />
<path d="M218.6486 46.6929
L218.2915 46.6929
" />
<path d="M218.2915 46.6929
L218.2915 45.9429
" />
<path d="M218.8986 46.3001
L219.1486 46.3001
" />
<path d="M219.2558 46.6929
L218.8986 46.6929
" />
<path d="M218.8986 46.6929
L218.8986 45.9429
" />
<path d="M218.8986 45.9429
L219.2558 45.9429
" />
<path d="M219.5772 46.6929
L219.5772 45.9429
" />
<path d="M219.5772 45.9429
L219.7558 45.9429
" />
<path d="M219.7558 45.9429
L219.8629 45.9786
" />
<path d="M219.8629 45.9786
L219.9343 46.0501
" />
<path d="M219.9343 46.0501
L219.9701 46.1215
" />
<path d="M219.9701 46.1215
L220.0058 46.2643
" />
<path d="M220.0058 46.2643
L220.0058 46.3715
" />
<path d="M220.0058 46.3715
L219.9701 46.5143
" />
<path d="M219.9701 46.5143
L219.9343 46.5858
" />
<path d="M219.9343 46.5858
L219.8629 46.6572
" />
<path d="M219.8629 46.6572
L219.7558 46.6929
" />
<path d="M219.7558 46.6929
L219.5772 46.6929
" />
<path d="M221.3272 46.6929
L221.0772 46.3358
" />
<path d="M220.8986 46.6929
L220.8986 45.9429
" />
<path d="M220.8986 45.9429
L221.1843 45.9429
" />
<path d="M221.1843 45.9429
L221.2558 45.9786
" />
<path d="M221.2558 45.9786
L221.2915 46.0143
" />
<path d="M221.2915 46.0143
L221.3272 46.0858
" />
<path d="M221.3272 46.0858
L221.3272 46.1929
" />
<path d="M221.3272 46.1929
L221.2915 46.2643
" />
<path d="M221.2915 46.2643
L221.2558 46.3001
" />
<path d="M221.2558 46.3001
L221.1843 46.3358
" />
<path d="M221.1843 46.3358
L220.8986 46.3358
" />
<path d="M221.6486 46.6929
L221.6486 46.1929
" />
<path d="M221.6486 45.9429
L221.6129 45.9786
" />
<path d="M221.6129 45.9786
L221.6486 46.0143
" />
<path d="M221.6486 46.0143
L221.6843 45.9786
" />
<path d="M221.6843 45.9786
L221.6486 45.9429
" />
<path d="M221.6486 45.9429
L221.6486 46.0143
" />
<path d="M222.0058 46.1929
L222.0058 46.6929
" />
<path d="M222.0058 46.2643
L222.0415 46.2286
" />
<path d="M222.0415 46.2286
L222.1129 46.1929
" />
<path d="M222.1129 46.1929
L222.2201 46.1929
" />
<path d="M222.2201 46.1929
L222.2915 46.2286
" />
<path d="M222.2915 46.2286
L222.3272 46.3001
" />
<path d="M222.3272 46.3001
L222.3272 46.6929
" />
<path d="M223.0058 46.1929
L223.0058 46.8001
" />
<path d="M223.0058 46.8001
L222.9701 46.8715
" />
<path d="M222.9701 46.8715
L222.9343 46.9072
" />
<path d="M222.9343 46.9072
L222.8629 46.9429
" />
<path d="M222.8629 46.9429
L222.7558 46.9429
" />
<path d="M222.7558 46.9429
L222.6843 46.9072
" />
<path d="M223.0058 46.6572
L222.9343 46.6929
" />
<path d="M222.9343 46.6929
L222.7915 46.6929
" />
<path d="M222.7915 46.6929
L222.7201 46.6572
" />
<path d="M222.7201 46.6572
L222.6843 46.6215
" />
<path d="M222.6843 46.6215
L222.6486 46.5501
" />
<path d="M222.6486 46.5501
L222.6486 46.3358
" />
<path d="M222.6486 46.3358
L222.6843 46.2643
" />
<path d="M222.6843 46.2643
L222.7201 46.2286
" />
<path d="M222.7201 46.2286
L222.7915 46.1929
" />
<path d="M222.7915 46.1929
L222.9343 46.1929
" />
<path d="M222.9343 46.1929
L223.0058 46.2286
" />
</g><text x="217.2022" y="48.0000"
transform="scale(-1 1) translate(-434.404400 0)"
textLength="18.1893" font-size="1.0000" lengthAdjust="spacingAndGlyphs"
text-anchor="middle" opacity="0">https://github.com/pedalboard</text>
<g class="stroked-text"><desc>https://github.com/pedalboard</desc>
<path d="M208.3986 47.9004
L208.3986 47.1504
" />
<path d="M208.7201 47.9004
L208.7201 47.5076
" />
<path d="M208.7201 47.5076
L208.6843 47.4361
" />
<path d="M208.6843 47.4361
L208.6129 47.4004
" />
<path d="M208.6129 47.4004
L208.5058 47.4004
" />
<path d="M208.5058 47.4004
L208.4343 47.4361
" />
<path d="M208.4343 47.4361
L208.3986 47.4718
" />
<path d="M208.9701 47.4004
L209.2558 47.4004
" />
<path d="M209.0772 47.1504
L209.0772 47.7933
" />
<path d="M209.0772 47.7933
L209.1129 47.8647
" />
<path d="M209.1129 47.8647
L209.1843 47.9004
" />
<path d="M209.1843 47.9004
L209.2558 47.9004
" />
<path d="M209.3986 47.4004
L209.6843 47.4004
" />
<path d="M209.5058 47.1504
L209.5058 47.7933
" />
<path d="M209.5058 47.7933
L209.5415 47.8647
" />
<path d="M209.5415 47.8647
L209.6129 47.9004
" />
<path d="M209.6129 47.9004
L209.6843 47.9004
" />
<path d="M209.9343 47.4004
L209.9343 48.1504
" />
<path d="M209.9343 47.4361
L210.0058 47.4004
" />
<path d="M210.0058 47.4004
L210.1486 47.4004
" />
<path d="M210.1486 47.4004
L210.2201 47.4361
" />
<path d="M210.2201 47.4361
L210.2558 47.4718
" />
<path d="M210.2558 47.4718
L210.2915 47.5433
" />
<path d="M210.2915 47.5433
L210.2915 47.7576
" />
<path d="M210.2915 47.7576
L210.2558 47.8290
" />
<path d="M210.2558 47.8290
L210.2201 47.8647
" />
<path d="M210.2201 47.8647
L210.1486 47.9004
" />
<path d="M210.1486 47.9004
L210.0058 47.9004
" />
<path d="M210.0058 47.9004
L209.9343 47.8647
" />
<path d="M210.5772 47.8647
L210.6486 47.9004
" />
<path d="M210.6486 47.9004
L210.7915 47.9004
" />
<path d="M210.7915 47.9004
L210.8629 47.8647
" />
<path d="M210.8629 47.8647
L210.8986 47.7933
" />
<path d="M210.8986 47.7933
L210.8986 47.7576
" />
<path d="M210.8986 47.7576
L210.8629 47.6861
" />
<path d="M210.8629 47.6861
L210.7915 47.6504
" />
<path d="M210.7915 47.6504
L210.6843 47.6504
" />
<path d="M210.6843 47.6504
L210.6129 47.6147
" />
<path d="M210.6129 47.6147
L210.5772 47.5433
" />
<path d="M210.5772 47.5433
L210.5772 47.5076
" />
<path d="M210.5772 47.5076
L210.6129 47.4361
" />
<path d="M210.6129 47.4361
L210.6843 47.4004
" />
<path d="M210.6843 47.4004
L210.7915 47.4004
" />
<path d="M210.7915 47.4004
L210.8629 47.4361
" />
<path d="M211.2201 47.8290
L211.2558 47.8647
" />
<path d="M211.2558 47.8647
L211.2201 47.9004
" />
<path d="M211.2201 47.9004
L211.1843 47.8647
" />
<path d="M211.1843 47.8647
L211.2201 47.8290
" />
<path d="M211.2201 47.8290
L211.2201 47.9004
" />
<path d="M211.2201 47.4361
L211.2558 47.4718
" />
<path d="M211.2558 47.4718
L211.2201 47.5076
" />
<path d="M211.2201 47.5076
L211.1843 47.4718
" />
<path d="M211.1843 47.4718
L211.2201 47.4361
" />
<path d="M211.2201 47.4361
L211.2201 47.5076
" />
<path d="M212.1129 47.1147
L211.4701 48.0790
" />
<path d="M212.8986 47.1147
L212.2558 48.0790
" />
<path d="M213.4701 47.4004
L213.4701 48.0076
" />
<path d="M213.4701 48.0076
L213.4343 48.0790
" />
<path d="M213.4343 48.0790
L213.3986 48.1147
" />
<path d="M213.3986 48.1147
L213.3272 48.1504
" />
<path d="M213.3272 48.1504
L213.2201 48.1504
" />
<path d="M213.2201 48.1504
L213.1486 48.1147
" />
<path d="M213.4701 47.8647
L213.3986 47.9004
" />
<path d="M213.3986 47.9004
L213.2558 47.9004
" />
<path d="M213.2558 47.9004
L213.1843 47.8647
" />
<path d="M213.1843 47.8647
L213.1486 47.8290
" />
<path d="M213.1486 47.8290
L213.1129 47.7576
" />
<path d="M213.1129 47.7576
L213.1129 47.5433
" />
<path d="M213.1129 47.5433
L213.1486 47.4718
" />
<path d="M213.1486 47.4718
L213.1843 47.4361
" />
<path d="M213.1843 47.4361
L213.2558 47.4004
" />
<path d="M213.2558 47.4004
L213.3986 47.4004
" />
<path d="M213.3986 47.4004
L213.4701 47.4361
" />
<path d="M213.8272 47.9004
L213.8272 47.4004
" />
<path d="M213.8272 47.1504
L213.7915 47.1861
" />
<path d="M213.7915 47.1861
L213.8272 47.2218
" />
<path d="M213.8272 47.2218
L213.8629 47.1861
" />
<path d="M213.8629 47.1861
L213.8272 47.1504
" />
<path d="M213.8272 47.1504
L213.8272 47.2218
" />
<path d="M214.0772 47.4004
L214.3629 47.4004
" />
<path d="M214.1843 47.1504
L214.1843 47.7933
" />
<path d="M214.1843 47.7933
L214.2201 47.8647
" />
<path d="M214.2201 47.8647
L214.2915 47.9004
" />
<path d="M214.2915 47.9004
L214.3629 47.9004
" />
<path d="M214.6129 47.9004
L214.6129 47.1504
" />
<path d="M214.9343 47.9004
L214.9343 47.5076
" />
<path d="M214.9343 47.5076
L214.8986 47.4361
" />
<path d="M214.8986 47.4361
L214.8272 47.4004
" />
<path d="M214.8272 47.4004
L214.7201 47.4004
" />
<path d="M214.7201 47.4004
L214.6486 47.4361
" />
<path d="M214.6486 47.4361
L214.6129 47.4718
" />
<path d="M215.6129 47.4004
L215.6129 47.9004
" />
<path d="M215.2915 47.4004
L215.2915 47.7933
" />
<path d="M215.2915 47.7933
L215.3272 47.8647
" />
<path d="M215.3272 47.8647
L215.3986 47.9004
" />
<path d="M215.3986 47.9004
L215.5058 47.9004
" />
<path d="M215.5058 47.9004
L215.5772 47.8647
" />
<path d="M215.5772 47.8647
L215.6129 47.8290
" />
<path d="M215.9701 47.9004
L215.9701 47.1504
" />
<path d="M215.9701 47.4361
L216.0415 47.4004
" />
<path d="M216.0415 47.4004
L216.1843 47.4004
" />
<path d="M216.1843 47.4004
L216.2558 47.4361
" />
<path d="M216.2558 47.4361
L216.2915 47.4718
" />
<path d="M216.2915 47.4718
L216.3272 47.5433
" />
<path d="M216.3272 47.5433
L216.3272 47.7576
" />
<path d="M216.3272 47.7576
L216.2915 47.8290
" />
<path d="M216.2915 47.8290
L216.2558 47.8647
" />
<path d="M216.2558 47.8647
L216.1843 47.9004
" />
<path d="M216.1843 47.9004
L216.0415 47.9004
" />
<path d="M216.0415 47.9004
L215.9701 47.8647
" />
<path d="M216.6486 47.8290
L216.6843 47.8647
" />
<path d="M216.6843 47.8647
L216.6486 47.9004
" />
<path d="M216.6486 47.9004
L216.6129 47.8647
" />
<path d="M216.6129 47.8647
L216.6486 47.8290
" />
<path d="M216.6486 47.8290
L216.6486 47.9004
" />
<path d="M217.3272 47.8647
L217.2558 47.9004
" />
<path d="M217.2558 47.9004
L217.1129 47.9004
" />
<path d="M217.1129 47.9004
L217.0415 47.8647
" />
<path d="M217.0415 47.8647
L217.0058 47.8290
" />
<path d="M217.0058 47.8290
L216.9701 47.7576
" />
<path d="M216.9701 47.7576
L216.9701 47.5433
" />
<path d="M216.9701 47.5433
L217.0058 47.4718
" />
<path d="M217.0058 47.4718
L217.0415 47.4361
" />
<path d="M217.0415 47.4361
L217.1129 47.4004
" />
<path d="M217.1129 47.4004
L217.2558 47.4004
" />
<path d="M217.2558 47.4004
L217.3272 47.4361
" />
<path d="M217.7558 47.9004
L217.6843 47.8647
" />
<path d="M217.6843 47.8647
L217.6486 47.8290
" />
<path d="M217.6486 47.8290
L217.6129 47.7576
" />
<path d="M217.6129 47.7576
L217.6129 47.5433
" />
<path d="M217.6129 47.5433
L217.6486 47.4718
" />
<path d="M217.6486 47.4718
L217.6843 47.4361
" />
<path d="M217.6843 47.4361
L217.7558 47.4004
" />
<path d="M217.7558 47.4004
L217.8629 47.4004
" />
<path d="M217.8629 47.4004
L217.9343 47.4361
" />
<path d="M217.9343 47.4361
L217.9701 47.4718
" />
<path d="M217.9701 47.4718
L218.0058 47.5433
" />
<path d="M218.0058 47.5433
L218.0058 47.7576
" />
<path d="M218.0058 47.7576
L217.9701 47.8290
" />
<path d="M217.9701 47.8290
L217.9343 47.8647
" />
<path d="M217.9343 47.8647
L217.8629 47.9004
" />
<path d="M217.8629 47.9004
L217.7558 47.9004
" />
<path d="M218.3272 47.9004
L218.3272 47.4004
" />
<path d="M218.3272 47.4718
L218.3629 47.4361
" />
<path d="M218.3629 47.4361
L218.4343 47.4004
" />
<path d="M218.4343 47.4004
L218.5415 47.4004
" />
<path d="M218.5415 47.4004
L218.6129 47.4361
" />
<path d="M218.6129 47.4361
L218.6486 47.5076
" />
<path d="M218.6486 47.5076
L218.6486 47.9004
" />
<path d="M218.6486 47.5076
L218.6843 47.4361
" />
<path d="M218.6843 47.4361
L218.7558 47.4004
" />
<path d="M218.7558 47.4004
L218.8629 47.4004
" />
<path d="M218.8629 47.4004
L218.9343 47.4361
" />
<path d="M218.9343 47.4361
L218.9701 47.5076
" />
<path d="M218.9701 47.5076
L218.9701 47.9004
" />
<path d="M219.8629 47.1147
L219.2201 48.0790
" />
<path d="M220.1129 47.4004
L220.1129 48.1504
" />
<path d="M220.1129 47.4361
L220.1843 47.4004
" />
<path d="M220.1843 47.4004
L220.3272 47.4004
" />
<path d="M220.3272 47.4004
L220.3986 47.4361
" />
<path d="M220.3986 47.4361
L220.4343 47.4718
" />
<path d="M220.4343 47.4718
L220.4701 47.5433
" />
<path d="M220.4701 47.5433
L220.4701 47.7576
" />
<path d="M220.4701 47.7576
L220.4343 47.8290
" />
<path d="M220.4343 47.8290
L220.3986 47.8647
" />
<path d="M220.3986 47.8647
L220.3272 47.9004
" />
<path d="M220.3272 47.9004
L220.1843 47.9004
" />
<path d="M220.1843 47.9004
L220.1129 47.8647
" />
<path d="M221.0772 47.8647
L221.0058 47.9004
" />
<path d="M221.0058 47.9004
L220.8629 47.9004
" />
<path d="M220.8629 47.9004
L220.7915 47.8647
" />
<path d="M220.7915 47.8647
L220.7558 47.7933
" />
<path d="M220.7558 47.7933
L220.7558 47.5076
" />
<path d="M220.7558 47.5076
L220.7915 47.4361
" />
<path d="M220.7915 47.4361
L220.8629 47.4004
" />
<path d="M220.8629 47.4004
L221.0058 47.4004
" />
<path d="M221.0058 47.4004
L221.0772 47.4361
" />
<path d="M221.0772 47.4361
L221.1129 47.5076
" />
<path d="M221.1129 47.5076
L221.1129 47.5790
" />
<path d="M221.1129 47.5790
L220.7558 47.6504
" />
<path d="M221.7558 47.9004
L221.7558 47.1504
" />
<path d="M221.7558 47.8647
L221.6843 47.9004
" />
<path d="M221.6843 47.9004
L221.5415 47.9004
" />
<path d="M221.5415 47.9004
L221.4701 47.8647
" />
<path d="M221.4701 47.8647
L221.4343 47.8290
" />
<path d="M221.4343 47.8290
L221.3986 47.7576
" />
<path d="M221.3986 47.7576
L221.3986 47.5433
" />
<path d="M221.3986 47.5433
L221.4343 47.4718
" />
<path d="M221.4343 47.4718
L221.4701 47.4361
" />
<path d="M221.4701 47.4361
L221.5415 47.4004
" />
<path d="M221.5415 47.4004
L221.6843 47.4004
" />
<path d="M221.6843 47.4004
L221.7558 47.4361
" />
<path d="M222.4343 47.9004
L222.4343 47.5076
" />
<path d="M222.4343 47.5076
L222.3986 47.4361
" />
<path d="M222.3986 47.4361
L222.3272 47.4004
" />
<path d="M222.3272 47.4004
L222.1843 47.4004
" />
<path d="M222.1843 47.4004
L222.1129 47.4361
" />
<path d="M222.4343 47.8647
L222.3629 47.9004
" />
<path d="M222.3629 47.9004
L222.1843 47.9004
" />
<path d="M222.1843 47.9004
L222.1129 47.8647
" />
<path d="M222.1129 47.8647
L222.0772 47.7933
" />
<path d="M222.0772 47.7933
L222.0772 47.7218
" />
<path d="M222.0772 47.7218
L222.1129 47.6504
" />
<path d="M222.1129 47.6504
L222.1843 47.6147
" />
<path d="M222.1843 47.6147
L222.3629 47.6147
" />
<path d="M222.3629 47.6147
L222.4343 47.5790
" />
<path d="M222.8986 47.9004
L222.8272 47.8647
" />
<path d="M222.8272 47.8647
L222.7915 47.7933
" />
<path d="M222.7915 47.7933
L222.7915 47.1504
" />
<path d="M223.1843 47.9004
L223.1843 47.1504
" />
<path d="M223.1843 47.4361
L223.2558 47.4004
" />
<path d="M223.2558 47.4004
L223.3986 47.4004
" />
<path d="M223.3986 47.4004
L223.4701 47.4361
" />
<path d="M223.4701 47.4361
L223.5058 47.4718
" />
<path d="M223.5058 47.4718
L223.5415 47.5433
" />
<path d="M223.5415 47.5433
L223.5415 47.7576
" />
<path d="M223.5415 47.7576
L223.5058 47.8290
" />
<path d="M223.5058 47.8290
L223.4701 47.8647
" />
<path d="M223.4701 47.8647
L223.3986 47.9004
" />
<path d="M223.3986 47.9004
L223.2558 47.9004
" />
<path d="M223.2558 47.9004
L223.1843 47.8647
" />
<path d="M223.9701 47.9004
L223.8986 47.8647
" />
<path d="M223.8986 47.8647
L223.8629 47.8290
" />
<path d="M223.8629 47.8290
L223.8272 47.7576
" />
<path d="M223.8272 47.7576
L223.8272 47.5433
" />
<path d="M223.8272 47.5433
L223.8629 47.4718
" />
<path d="M223.8629 47.4718
L223.8986 47.4361
" />
<path d="M223.8986 47.4361
L223.9701 47.4004
" />
<path d="M223.9701 47.4004
L224.0772 47.4004
" />
<path d="M224.0772 47.4004
L224.1486 47.4361
" />
<path d="M224.1486 47.4361
L224.1843 47.4718
" />
<path d="M224.1843 47.4718
L224.2201 47.5433
" />
<path d="M224.2201 47.5433
L224.2201 47.7576
" />
<path d="M224.2201 47.7576
L224.1843 47.8290
" />
<path d="M224.1843 47.8290
L224.1486 47.8647
" />
<path d="M224.1486 47.8647
L224.0772 47.9004
" />
<path d="M224.0772 47.9004
L223.9701 47.9004
" />
<path d="M224.8629 47.9004
L224.8629 47.5076
" />
<path d="M224.8629 47.5076
L224.8272 47.4361
" />
<path d="M224.8272 47.4361
L224.7558 47.4004
" />
<path d="M224.7558 47.4004
L224.6129 47.4004
" />
<path d="M224.6129 47.4004
L224.5415 47.4361
" />
<path d="M224.8629 47.8647
L224.7915 47.9004
" />
<path d="M224.7915 47.9004
L224.6129 47.9004
" />
<path d="M224.6129 47.9004
L224.5415 47.8647
" />
<path d="M224.5415 47.8647
L224.5058 47.7933
" />
<path d="M224.5058 47.7933
L224.5058 47.7218
" />
<path d="M224.5058 47.7218
L224.5415 47.6504
" />
<path d="M224.5415 47.6504
L224.6129 47.6147
" />
<path d="M224.6129 47.6147
L224.7915 47.6147
" />
<path d="M224.7915 47.6147
L224.8629 47.5790
" />
<path d="M225.2201 47.9004
L225.2201 47.4004
" />
<path d="M225.2201 47.5433
L225.2558 47.4718
" />
<path d="M225.2558 47.4718
L225.2915 47.4361
" />
<path d="M225.2915 47.4361
L225.3629 47.4004
" />
<path d="M225.3629 47.4004
L225.4343 47.4004
" />
<path d="M226.0058 47.9004
L226.0058 47.1504
" />
<path d="M226.0058 47.8647
L225.9343 47.9004
" />
<path d="M225.9343 47.9004
L225.7915 47.9004
" />
<path d="M225.7915 47.9004
L225.7201 47.8647
" />
<path d="M225.7201 47.8647
L225.6843 47.8290
" />
<path d="M225.6843 47.8290
L225.6486 47.7576
" />
<path d="M225.6486 47.7576
L225.6486 47.5433
" />
<path d="M225.6486 47.5433
L225.6843 47.4718
" />
<path d="M225.6843 47.4718
L225.7201 47.4361
" />
<path d="M225.7201 47.4361
L225.7915 47.4004
" />
<path d="M225.7915 47.4004
L225.9343 47.4004
" />
<path d="M225.9343 47.4004
L226.0058 47.4361
" />
</g></g>
<g style="fill:#000000; fill-opacity:0.0; 
stroke:#000000; stroke-width:0.1200; stroke-opacity:1; 
stroke-linecap:round; stroke-linejoin:round;">
<path d="M209.0622 62.0600
L209.0622 57.9400
" />
<path d="M208.7622 62.0600
L209.0622 62.0600
" />
<path d="M206.7622 62.0600
L207.2422 62.0600
" />
<path d="M204.9422 62.0600
L205.2422 62.0600
" />
<path d="M204.9422 62.0600
L204.9422 57.9400
" />
<path d="M208.7622 57.9400
L209.0622 57.9400
" />
<path d="M206.7622 57.9400
L207.2422 57.9400
" />
<path d="M205.2422 57.9400
L205.2422 55.5600
" />
<path d="M204.9422 57.9400
L205.2422 57.9400
" />
<path d="M209.0622 67.9400
L204.9422 67.9400
" />
<path d="M209.0622 68.2400
L209.0622 67.9400
" />
<path d="M209.0622 70.2400
L209.0622 69.7600
" />
<path d="M209.0622 72.0600
L209.0622 71.7600
" />
<path d="M209.0622 72.0600
L204.9422 72.0600
" />
<path d="M204.9422 68.2400
L204.9422 67.9400
" />
<path d="M204.9422 70.2400
L204.9422 69.7600
" />
<path d="M204.9422 71.7600
L202.5622 71.7600
" />
<path d="M204.9422 72.0600
L204.9422 71.7600
" />
<g >
</g>
<g >
</g>
<g >
</g>
<g >
</g>
<g >
</g>
<g >
</g>
<g >
</g>
<g >
</g>
<g >
</g>
<g >
</g>
<g >
</g>
<g >
</g>
<g >
</g>
<g >
</g>
<g >
</g>
<g >
</g>
<g >
</g>
<g >
</g>
<g >
</g>
<g >
</g>
<g >
</g>
<g >
</g>
<g >
</g>
<g >
</g>
<g >
</g>
<g >
</g>
<g >
</g>
<g >
</g>
<g >
</g>
<g >
</g>
<g >
</g>
<g >
</g>
<g >
</g>
<g >
</g>
</g> 
</svg>
