<?xml version="1.0" standalone="no"?>
 <!DOCTYPE svg PUBLIC "-//W3C//DTD SVG 1.1//EN" 
 "http://www.w3.org/Graphics/SVG/1.1/DTD/svg11.dtd"> 
<svg
  xmlns:svg="http://www.w3.org/2000/svg"
  xmlns="http://www.w3.org/2000/svg"
  xmlns:xlink="http://www.w3.org/1999/xlink"
  version="1.1"
  width="297.0022mm" height="210.0072mm" viewBox="0.0000 0.0000 297.0022 210.0072">
<title>SVG Image created as pedalboard-led-ring-B_Cu.svg date 2023/06/03 17:48:19 </title>
  <desc>Image generated by PCBNEW </desc>
<g style="fill:#000000; fill-opacity:1.0000;stroke:#000000; stroke-opacity:1.0000;
stroke-linecap:round; stroke-linejoin:round;"
 transform="translate(0 0) scale(1 1)">
</g>
<g style="fill:#000000; fill-opacity:0.0; 
stroke:#000000; stroke-width:0.0000; stroke-opacity:1; 
stroke-linecap:round; stroke-linejoin:round;">
<g >
</g>
<g >
</g>
<g >
</g>
<g >
</g>
<g >
</g>
<g >
</g>
<g >
</g>
<g >
</g>
<g >
</g>
<g >
</g>
<g >
</g>
<g >
</g>
<g >
</g>
<g >
</g>
<g >
</g>
<g >
</g>
<g >
</g>
<g >
</g>
<g >
</g>
<g >
</g>
<g >
</g>
<g >
</g>
<g >
</g>
<g >
</g>
<g >
</g>
<g >
</g>
<g >
</g>
<g >
</g>
<g >
</g>
<g >
</g>
<g style="fill:#000000; fill-opacity:0.0; 
stroke:#000000; stroke-width:0.0000; stroke-opacity:1; 
stroke-linecap:round; stroke-linejoin:round;">
</g>
<g style="fill:#000000; fill-opacity:0.0; 
stroke:#000000; stroke-width:0.0000; stroke-opacity:1; 
stroke-linecap:round; stroke-linejoin:round;">
</g>
<g style="fill:#000000; fill-opacity:1.0000; 
stroke:#000000; stroke-width:0.0000; stroke-opacity:1; 
stroke-linecap:round; stroke-linejoin:round;">
<path style="fill:#000000; fill-opacity:1.0000; 
stroke:#000000; stroke-width:0.0000; stroke-opacity:1; 
stroke-linecap:round; stroke-linejoin:round;fill-rule:evenodd;"
d="M 91.5000,58.2500
90.5000,58.2500
90.5000,55.5000
91.5000,55.5000
Z" /> 
<path style="fill:#000000; fill-opacity:1.0000; 
stroke:#000000; stroke-width:0.0000; stroke-opacity:1; 
stroke-linecap:round; stroke-linejoin:round;fill-rule:evenodd;"
d="M 91.5000,64.5000
90.5000,64.5000
90.5000,61.7500
91.5000,61.7500
Z" /> 
<path style="fill:#000000; fill-opacity:1.0000; 
stroke:#000000; stroke-width:0.0000; stroke-opacity:1; 
stroke-linecap:round; stroke-linejoin:round;fill-rule:evenodd;"
d="M 89.5000,58.2500
88.5000,58.2500
88.5000,55.5000
89.5000,55.5000
Z" /> 
<path style="fill:#000000; fill-opacity:1.0000; 
stroke:#000000; stroke-width:0.0000; stroke-opacity:1; 
stroke-linecap:round; stroke-linejoin:round;fill-rule:evenodd;"
d="M 89.5000,64.5000
88.5000,64.5000
88.5000,61.7500
89.5000,61.7500
Z" /> 
</g>
<g >
</g>
<g style="fill:#000000; fill-opacity:1.0000; 
stroke:#000000; stroke-width:0.0000; stroke-opacity:1; 
stroke-linecap:round; stroke-linejoin:round;">
<path style="fill:#000000; fill-opacity:1.0000; 
stroke:#000000; stroke-width:0.0000; stroke-opacity:1; 
stroke-linecap:round; stroke-linejoin:round;fill-rule:evenodd;"
d="M 91.7500,71.5000
91.7500,70.5000
94.5000,70.5000
94.5000,71.5000
Z" /> 
<path style="fill:#000000; fill-opacity:1.0000; 
stroke:#000000; stroke-width:0.0000; stroke-opacity:1; 
stroke-linecap:round; stroke-linejoin:round;fill-rule:evenodd;"
d="M 85.5000,71.5000
85.5000,70.5000
88.2500,70.5000
88.2500,71.5000
Z" /> 
<path style="fill:#000000; fill-opacity:1.0000; 
stroke:#000000; stroke-width:0.0000; stroke-opacity:1; 
stroke-linecap:round; stroke-linejoin:round;fill-rule:evenodd;"
d="M 91.7500,69.5000
91.7500,68.5000
94.5000,68.5000
94.5000,69.5000
Z" /> 
<path style="fill:#000000; fill-opacity:1.0000; 
stroke:#000000; stroke-width:0.0000; stroke-opacity:1; 
stroke-linecap:round; stroke-linejoin:round;fill-rule:evenodd;"
d="M 85.5000,69.5000
85.5000,68.5000
88.2500,68.5000
88.2500,69.5000
Z" /> 
</g>
<g >
</g>
<g style="fill:#000000; fill-opacity:1.0000; 
stroke:#000000; stroke-width:0.0000; stroke-opacity:1; 
stroke-linecap:round; stroke-linejoin:round;">
<circle cx="86.8000" cy="63.6000" r="0.4000" /> 
</g>
<g style="fill:#000000; fill-opacity:1.0000; 
stroke:#000000; stroke-width:0.0212; stroke-opacity:1; 
stroke-linecap:round; stroke-linejoin:round;">
</g>
<g style="fill:#000000; fill-opacity:1.0000; 
stroke:#000000; stroke-width:0.0000; stroke-opacity:1; 
stroke-linecap:round; stroke-linejoin:round;">
<circle cx="74.0000" cy="52.0000" r="0.4000" /> 
</g>
<g style="fill:#000000; fill-opacity:1.0000; 
stroke:#000000; stroke-width:0.0212; stroke-opacity:1; 
stroke-linecap:round; stroke-linejoin:round;">
</g>
<g style="fill:#000000; fill-opacity:1.0000; 
stroke:#000000; stroke-width:0.0000; stroke-opacity:1; 
stroke-linecap:round; stroke-linejoin:round;">
<circle cx="89.9282" cy="58.8038" r="0.4000" /> 
</g>
<g style="fill:#000000; fill-opacity:1.0000; 
stroke:#000000; stroke-width:0.0212; stroke-opacity:1; 
stroke-linecap:round; stroke-linejoin:round;">
</g>
<g style="fill:#000000; fill-opacity:1.0000; 
stroke:#000000; stroke-width:0.0000; stroke-opacity:1; 
stroke-linecap:round; stroke-linejoin:round;">
<circle cx="70.0718" cy="61.1962" r="0.4000" /> 
</g>
<g style="fill:#000000; fill-opacity:1.0000; 
stroke:#000000; stroke-width:0.0212; stroke-opacity:1; 
stroke-linecap:round; stroke-linejoin:round;">
</g>
<g style="fill:#000000; fill-opacity:1.0000; 
stroke:#000000; stroke-width:0.0000; stroke-opacity:1; 
stroke-linecap:round; stroke-linejoin:round;">
<circle cx="76.0718" cy="69.1962" r="0.4000" /> 
</g>
<g style="fill:#000000; fill-opacity:1.0000; 
stroke:#000000; stroke-width:0.0212; stroke-opacity:1; 
stroke-linecap:round; stroke-linejoin:round;">
</g>
<g style="fill:#000000; fill-opacity:1.0000; 
stroke:#000000; stroke-width:0.0000; stroke-opacity:1; 
stroke-linecap:round; stroke-linejoin:round;">
<circle cx="81.1962" cy="69.9282" r="0.4000" /> 
</g>
<g style="fill:#000000; fill-opacity:1.0000; 
stroke:#000000; stroke-width:0.0212; stroke-opacity:1; 
stroke-linecap:round; stroke-linejoin:round;">
</g>
<g style="fill:#000000; fill-opacity:1.0000; 
stroke:#000000; stroke-width:0.0000; stroke-opacity:1; 
stroke-linecap:round; stroke-linejoin:round;">
<circle cx="83.9282" cy="50.8038" r="0.4000" /> 
</g>
<g style="fill:#000000; fill-opacity:1.0000; 
stroke:#000000; stroke-width:0.0212; stroke-opacity:1; 
stroke-linecap:round; stroke-linejoin:round;">
</g>
<g style="fill:#000000; fill-opacity:1.0000; 
stroke:#000000; stroke-width:0.0000; stroke-opacity:1; 
stroke-linecap:round; stroke-linejoin:round;">
<circle cx="72.0000" cy="66.0000" r="0.4000" /> 
</g>
<g style="fill:#000000; fill-opacity:1.0000; 
stroke:#000000; stroke-width:0.0212; stroke-opacity:1; 
stroke-linecap:round; stroke-linejoin:round;">
</g>
<g style="fill:#000000; fill-opacity:1.0000; 
stroke:#000000; stroke-width:0.0000; stroke-opacity:1; 
stroke-linecap:round; stroke-linejoin:round;">
<circle cx="86.4000" cy="67.7000" r="0.4000" /> 
</g>
<g style="fill:#000000; fill-opacity:1.0000; 
stroke:#000000; stroke-width:0.0212; stroke-opacity:1; 
stroke-linecap:round; stroke-linejoin:round;">
</g>
<g style="fill:#000000; fill-opacity:1.0000; 
stroke:#000000; stroke-width:0.0000; stroke-opacity:1; 
stroke-linecap:round; stroke-linejoin:round;">
<circle cx="70.8038" cy="56.0718" r="0.4000" /> 
</g>
<g style="fill:#000000; fill-opacity:1.0000; 
stroke:#000000; stroke-width:0.0212; stroke-opacity:1; 
stroke-linecap:round; stroke-linejoin:round;">
</g>
<g style="fill:#000000; fill-opacity:1.0000; 
stroke:#000000; stroke-width:0.0000; stroke-opacity:1; 
stroke-linecap:round; stroke-linejoin:round;">
<circle cx="88.0000" cy="54.0000" r="0.4000" /> 
</g>
<g style="fill:#000000; fill-opacity:1.0000; 
stroke:#000000; stroke-width:0.0212; stroke-opacity:1; 
stroke-linecap:round; stroke-linejoin:round;">
</g>
<g style="fill:#000000; fill-opacity:1.0000; 
stroke:#000000; stroke-width:0.0000; stroke-opacity:1; 
stroke-linecap:round; stroke-linejoin:round;">
<circle cx="88.5000" cy="66.0000" r="0.4000" /> 
</g>
<g style="fill:#000000; fill-opacity:1.0000; 
stroke:#000000; stroke-width:0.0212; stroke-opacity:1; 
stroke-linecap:round; stroke-linejoin:round;">
</g>
<g style="fill:#000000; fill-opacity:1.0000; 
stroke:#000000; stroke-width:0.0000; stroke-opacity:1; 
stroke-linecap:round; stroke-linejoin:round;">
<circle cx="78.8038" cy="50.0718" r="0.4000" /> 
</g>
<g style="fill:#000000; fill-opacity:1.0000; 
stroke:#000000; stroke-width:0.0212; stroke-opacity:1; 
stroke-linecap:round; stroke-linejoin:round;">
</g>
<g style="fill:#000000; fill-opacity:1.0000; 
stroke:#000000; stroke-width:0.0000; stroke-opacity:1; 
stroke-linecap:round; stroke-linejoin:round;">
<circle cx="90.6000" cy="61.4000" r="0.4000" /> 
</g>
<g style="fill:#000000; fill-opacity:1.0000; 
stroke:#000000; stroke-width:0.0212; stroke-opacity:1; 
stroke-linecap:round; stroke-linejoin:round;">
</g>
<g style="fill:#000000; fill-opacity:1.0000; 
stroke:#000000; stroke-width:0.0000; stroke-opacity:1; 
stroke-linecap:round; stroke-linejoin:round;">
<circle cx="85.1000" cy="70.6000" r="0.4000" /> 
</g>
<g style="fill:#000000; fill-opacity:1.0000; 
stroke:#000000; stroke-width:0.0212; stroke-opacity:1; 
stroke-linecap:round; stroke-linejoin:round;">
</g>
<g style="fill:#000000; fill-opacity:1.0000; 
stroke:#000000; stroke-width:0.0000; stroke-opacity:1; 
stroke-linecap:round; stroke-linejoin:round;">
<circle cx="91.4000" cy="61.4000" r="0.4000" /> 
</g>
<g style="fill:#000000; fill-opacity:1.0000; 
stroke:#000000; stroke-width:0.0212; stroke-opacity:1; 
stroke-linecap:round; stroke-linejoin:round;">
</g>
<g style="fill:#000000; fill-opacity:1.0000; 
stroke:#000000; stroke-width:0.0000; stroke-opacity:1; 
stroke-linecap:round; stroke-linejoin:round;">
<circle cx="91.4000" cy="64.9000" r="0.4000" /> 
</g>
<g style="fill:#000000; fill-opacity:1.0000; 
stroke:#000000; stroke-width:0.0212; stroke-opacity:1; 
stroke-linecap:round; stroke-linejoin:round;">
</g>
<g style="fill:#000000; fill-opacity:1.0000; 
stroke:#000000; stroke-width:0.0000; stroke-opacity:1; 
stroke-linecap:round; stroke-linejoin:round;">
<circle cx="90.7000" cy="64.9000" r="0.4000" /> 
</g>
<g style="fill:#000000; fill-opacity:1.0000; 
stroke:#000000; stroke-width:0.0212; stroke-opacity:1; 
stroke-linecap:round; stroke-linejoin:round;">
</g>
<g style="fill:#000000; fill-opacity:1.0000; 
stroke:#000000; stroke-width:0.0000; stroke-opacity:1; 
stroke-linecap:round; stroke-linejoin:round;">
<circle cx="88.6000" cy="70.6000" r="0.4000" /> 
</g>
<g style="fill:#000000; fill-opacity:1.0000; 
stroke:#000000; stroke-width:0.0212; stroke-opacity:1; 
stroke-linecap:round; stroke-linejoin:round;">
</g>
<g style="fill:#000000; fill-opacity:1.0000; 
stroke:#000000; stroke-width:0.0000; stroke-opacity:1; 
stroke-linecap:round; stroke-linejoin:round;">
<circle cx="88.6000" cy="71.4000" r="0.4000" /> 
</g>
<g style="fill:#000000; fill-opacity:1.0000; 
stroke:#000000; stroke-width:0.0212; stroke-opacity:1; 
stroke-linecap:round; stroke-linejoin:round;">
</g>
<g style="fill:#000000; fill-opacity:1.0000; 
stroke:#000000; stroke-width:0.0000; stroke-opacity:1; 
stroke-linecap:round; stroke-linejoin:round;">
<circle cx="85.1000" cy="71.4000" r="0.4000" /> 
</g>
<g style="fill:#000000; fill-opacity:1.0000; 
stroke:#000000; stroke-width:0.0212; stroke-opacity:1; 
stroke-linecap:round; stroke-linejoin:round;">
</g>
<g style="fill:#000000; fill-opacity:1.0000; 
stroke:#000000; stroke-width:0.0000; stroke-opacity:1; 
stroke-linecap:round; stroke-linejoin:round;">
<circle cx="87.9100" cy="61.8200" r="0.4000" /> 
</g>
<g style="fill:#000000; fill-opacity:1.0000; 
stroke:#000000; stroke-width:0.0212; stroke-opacity:1; 
stroke-linecap:round; stroke-linejoin:round;">
</g>
<g >
</g>
<g style="fill:#000000; fill-opacity:1.0000; 
stroke:#000000; stroke-width:0.0212; stroke-opacity:1; 
stroke-linecap:round; stroke-linejoin:round;">
</g>
<g style="fill:#000000; fill-opacity:1.0000; 
stroke:#000000; stroke-width:0.2500; stroke-opacity:1; 
stroke-linecap:round; stroke-linejoin:round;">
</g>
<g style="fill:#000000; fill-opacity:0.0; 
stroke:#000000; stroke-width:0.2500; stroke-opacity:1; 
stroke-linecap:round; stroke-linejoin:round;">
<path d="M84.8000 67.1000
L86.8000 65.1000
" />
<path d="M89.0000 63.1250
L88.1250 64.0000
" />
<path d="M85.4000 69.0000
L84.8000 68.4000
" />
<path d="M86.8750 69.0000
L85.4000 69.0000
" />
<path d="M84.8000 68.4000
L84.8000 67.1000
" />
<path d="M87.2000 64.0000
L86.8000 63.6000
" />
<path d="M88.1250 64.0000
L87.2000 64.0000
" />
<path d="M86.8000 65.1000
L86.8000 63.6000
" />
<path d="M91.4000 61.4000
L91.4000 64.9000
" />
<path d="M85.1000 70.6000
L85.1000 71.4000
" />
<path d="M88.6000 70.6000
L88.6000 71.4000
" />
<path d="M90.7000 61.5000
L90.7000 64.9000
" />
<path d="M90.6000 61.4000
L91.4000 61.4000
" />
<path d="M90.6000 61.4000
L90.7000 61.5000
" />
<path d="M85.1000 71.4000
L88.6000 71.4000
" />
<path d="M90.7000 64.9000
L91.4000 64.9000
" />
<path d="M85.1000 70.6000
L88.6000 70.6000
" />
<path d="M88.0000 57.0000
L88.0000 61.7300
" />
<path d="M88.0000 61.7300
L87.9100 61.8200
" />
<path d="M92.8000 60.5000
L92.8000 68.6750
" />
<path d="M89.0000 56.8750
L88.1250 56.8750
" />
<path d="M88.1250 56.8750
L88.0000 57.0000
" />
<path d="M87.9100 61.8200
L89.2300 60.5000
" />
<path d="M89.2300 60.5000
L92.8000 60.5000
" />
</g>
<g >
</g>
<g style="fill:#000000; fill-opacity:0.0; 
stroke:#000000; stroke-width:0.2500; stroke-opacity:1; 
stroke-linecap:round; stroke-linejoin:round;">
<g >
</g>
<g style="fill:#000000; fill-opacity:1.0000; 
stroke:#000000; stroke-width:0.0000; stroke-opacity:1; 
stroke-linecap:round; stroke-linejoin:round;">
<path style="fill:#000000; fill-opacity:1.0000; 
stroke:#000000; stroke-width:0.0000; stroke-opacity:1; 
stroke-linecap:round; stroke-linejoin:round;fill-rule:evenodd;"
d="M 94.0021,48.0007
94.0455,48.0045
94.1738,48.0171
94.1897,48.0200
94.2576,48.0382
94.2590,48.0386
94.3533,48.0672
94.3664,48.0722
94.4357,48.1045
94.4381,48.1057
94.5230,48.1511
94.5281,48.1542
94.5952,48.2013
94.5982,48.2035
94.6329,48.2320
94.6713,48.2635
94.6749,48.2668
94.7332,48.3251
94.7365,48.3287
94.7965,48.4018
94.7987,48.4048
94.8458,48.4719
94.8489,48.4770
94.8943,48.5619
94.8955,48.5643
94.9278,48.6336
94.9328,48.6467
94.9614,48.7409
94.9618,48.7424
94.9800,48.8103
94.9829,48.8262
94.9955,48.9545
94.9993,48.9978
94.9995,49.0022
94.9995,70.9978
94.9993,71.0022
94.9955,71.0455
94.9891,71.1103
94.9646,71.1664
94.9118,71.1973
94.8509,71.1913
94.8206,71.1706
94.8000,71.1500
93.2750,71.1500
93.2750,71.1500
93.2750,71.8000
93.2750,71.8000
94.0128,71.8000
94.0710,71.8189
94.1070,71.8684
94.1070,71.9296
94.0710,71.9791
94.0215,71.9976
94.0022,71.9993
93.9978,71.9995
89.0961,71.9995
89.0379,71.9806
89.0019,71.9311
89.0019,71.8699
89.0261,71.8305
89.0283,71.8283
89.0283,71.8283
89.1245,71.7028
89.1850,71.5568
89.2057,71.4000
89.1850,71.2432
89.1850,71.2432
89.1464,71.1500
91.4500,71.1500
91.4500,71.5448
91.4529,71.5699
91.4982,71.6725
91.5775,71.7518
91.6801,71.7971
91.7052,71.8000
92.9750,71.8000
92.9750,71.8000
92.9750,71.1500
92.9750,71.1500
91.4500,71.1500
89.1464,71.1500
89.1245,71.0972
89.1245,71.0972
89.1245,71.0972
89.0962,71.0603
89.0758,71.0026
89.0932,70.9439
89.0962,70.9397
89.0962,70.9397
89.1245,70.9028
89.1464,70.8500
91.4500,70.8500
91.4500,70.8500
92.9750,70.8500
92.9750,70.8500
93.2750,70.8500
93.2750,70.8500
94.8000,70.8500
94.8000,70.8500
94.8000,70.4552
94.8000,70.4552
94.7971,70.4301
94.7518,70.3275
94.6725,70.2482
94.5699,70.2029
94.5448,70.2000
93.2750,70.2000
93.2750,70.2000
93.2750,70.8500
92.9750,70.8500
92.9750,70.2000
92.9750,70.2000
91.7052,70.2000
91.7052,70.2000
91.6801,70.2029
91.5775,70.2482
91.4982,70.3275
91.4529,70.4301
91.4500,70.4552
91.4500,70.8500
89.1464,70.8500
89.1850,70.7568
89.2057,70.6000
89.1850,70.4432
89.1245,70.2972
89.1245,70.2972
89.0283,70.1717
89.0283,70.1717
89.0283,70.1717
89.0283,70.1717
89.0283,70.1717
88.9028,70.0755
88.7568,70.0150
88.7568,70.0150
88.6000,69.9943
88.6000,69.9943
88.4432,70.0150
88.4432,70.0150
88.2972,70.0755
88.2972,70.0755
88.1717,70.1717
88.1717,70.1717
88.1478,70.2029
88.1229,70.2354
88.1226,70.2358
88.0721,70.2704
88.0440,70.2745
85.6560,70.2745
85.5978,70.2556
85.5774,70.2358
85.5771,70.2354
85.5283,70.1717
85.5283,70.1717
85.5283,70.1717
85.4028,70.0755
85.2568,70.0150
85.2568,70.0150
85.1000,69.9943
85.1000,69.9943
84.9432,70.0150
84.9432,70.0150
84.7972,70.0755
84.7972,70.0755
84.6717,70.1717
84.6717,70.1717
84.5755,70.2972
84.5755,70.2972
84.5150,70.4432
84.5150,70.4432
84.5123,70.4637
84.4943,70.6000
84.5150,70.7568
84.5755,70.9028
84.6038,70.9397
84.6242,70.9974
84.6068,71.0561
84.6038,71.0603
84.5755,71.0972
84.5755,71.0972
84.5150,71.2432
84.5150,71.2432
84.4943,71.4000
84.4943,71.4000
84.5150,71.5568
84.5150,71.5568
84.5755,71.7028
84.5755,71.7028
84.6717,71.8283
84.6717,71.8283
84.6717,71.8283
84.6739,71.8305
84.6750,71.8325
84.6757,71.8334
84.6755,71.8336
84.7017,71.8850
84.6921,71.9454
84.6489,71.9887
84.6039,71.9995
69.0022,71.9995
68.9978,71.9993
68.9545,71.9955
68.8262,71.9829
68.8103,71.9800
68.7734,71.9701
68.7424,71.9618
68.7409,71.9614
68.6467,71.9328
68.6336,71.9278
68.5643,71.8955
68.5619,71.8943
68.4770,71.8489
68.4719,71.8458
68.4048,71.7987
68.4018,71.7965
68.3287,71.7365
68.3251,71.7332
68.2668,71.6749
68.2635,71.6713
68.2035,71.5982
68.2013,71.5952
68.1743,71.5568
68.1542,71.5280
68.1511,71.5230
68.1057,71.4381
68.1045,71.4357
68.0722,71.3664
68.0672,71.3533
68.0386,71.2590
68.0382,71.2576
68.0200,71.1897
68.0171,71.1738
68.0045,71.0454
68.0039,71.0385
68.0007,71.0021
68.0005,70.9978
68.0005,70.0000
68.6443,70.0000
68.6649,70.2354
68.6649,70.2354
68.6649,70.2354
68.6896,70.3275
68.7261,70.4637
68.8260,70.6778
68.8260,70.6778
68.9465,70.8500
68.9615,70.8714
69.1286,71.0385
69.1286,71.0385
69.1286,71.0385
69.1537,71.0561
69.3222,71.1740
69.3222,71.1740
69.3222,71.1740
69.3222,71.1740
69.5363,71.2739
69.5363,71.2739
69.7646,71.3351
69.7646,71.3351
69.7646,71.3351
69.9410,71.3505
69.9410,71.3505
70.0590,71.3505
70.2354,71.3351
70.2354,71.3351
70.2354,71.3351
70.4637,71.2739
70.6778,71.1740
70.8714,71.0385
71.0385,70.8714
71.1740,70.6778
71.2739,70.4637
71.3351,70.2354
71.3351,70.2354
71.3557,70.0000
71.3557,70.0000
71.3351,69.7646
71.3351,69.7646
71.3351,69.7646
71.2739,69.5363
71.2662,69.5198
71.1740,69.3222
71.1740,69.3222
71.1659,69.3106
71.0385,69.1286
70.8714,68.9615
70.8714,68.9615
70.8714,68.9615
70.6778,68.8260
70.6778,68.8260
70.4637,68.7261
70.4637,68.7261
70.3876,68.7057
70.2354,68.6649
70.2354,68.6649
70.2354,68.6649
70.0590,68.6495
70.0590,68.6495
69.9410,68.6495
69.9410,68.6495
69.7646,68.6649
69.5363,68.7261
69.3222,68.8260
69.3222,68.8260
69.1286,68.9615
68.9615,69.1286
68.8260,69.3222
68.7261,69.5363
68.6649,69.7646
68.6443,70.0000
68.6443,70.0000
68.0005,70.0000
68.0005,68.4288
84.4707,68.4288
84.4814,68.4684
84.4823,68.4727
84.4894,68.5130
84.4902,68.5143
84.5001,68.5382
84.5004,68.5397
84.5004,68.5397
84.5240,68.5733
84.5263,68.5769
84.5468,68.6125
84.5782,68.6388
84.5814,68.6417
85.1583,69.2186
85.1612,69.2218
85.1875,69.2532
85.1875,69.2532
85.2231,69.2737
85.2267,69.2760
85.2573,69.2974
85.2941,69.3463
85.2995,69.3785
85.2995,69.5197
85.2995,69.5198
85.3111,69.5782
85.3111,69.5782
85.3554,69.6446
85.4218,69.6889
85.4662,69.6977
85.4802,69.7005
85.4802,69.7005
85.4803,69.7005
85.4803,69.7005
88.2697,69.7005
88.2697,69.7005
88.3282,69.6889
88.3946,69.6446
88.4389,69.5782
88.4505,69.5197
88.4505,68.4803
88.4389,68.4218
88.3946,68.3554
88.3945,68.3554
88.3282,68.3111
88.3282,68.3111
88.3282,68.3111
88.3282,68.3111
88.2698,68.2995
88.2697,68.2995
85.4803,68.2995
85.4803,68.2995
85.4802,68.2995
85.4218,68.3111
85.4218,68.3111
85.3473,68.3609
85.3467,68.3598
85.3011,68.3831
85.2407,68.3735
85.2156,68.3553
85.1545,68.2942
85.1267,68.2397
85.1255,68.2242
85.1255,67.2758
85.1444,67.2176
85.1545,67.2058
87.0186,65.3417
87.0218,65.3388
87.0532,65.3125
87.0737,65.2769
87.0760,65.2733
87.0996,65.2397
87.0999,65.2382
87.1098,65.2143
87.1106,65.2130
87.1106,65.2130
87.1106,65.2130
87.1177,65.1726
87.1186,65.1684
87.1293,65.1288
87.1257,65.0879
87.1255,65.0836
87.1255,64.4245
87.1444,64.3663
87.1939,64.3303
87.2245,64.3255
88.1086,64.3255
88.1129,64.3257
88.1538,64.3293
88.1749,64.3236
88.2360,64.3268
88.2835,64.3653
88.2995,64.4192
88.2995,64.5197
88.2995,64.5198
88.3111,64.5782
88.3111,64.5782
88.3554,64.6445
88.3554,64.6446
88.4218,64.6889
88.4662,64.6977
88.4802,64.7005
88.4802,64.7005
88.4803,64.7005
88.4803,64.7005
89.5197,64.7005
89.5197,64.7005
89.5782,64.6889
89.6446,64.6446
89.6889,64.5782
89.7005,64.5197
89.7005,61.7303
89.6889,61.6718
89.6446,61.6054
89.6445,61.6054
89.5782,61.5611
89.5782,61.5611
89.5782,61.5611
89.5782,61.5611
89.5198,61.5495
89.5197,61.5495
89.5197,61.5495
88.8798,61.5495
88.8216,61.5306
88.7857,61.4811
88.7857,61.4199
88.8098,61.3805
89.3358,60.8545
89.3903,60.8267
89.4058,60.8255
90.0832,60.8255
90.1414,60.8444
90.1773,60.8939
90.1773,60.9551
90.1617,60.9848
90.0755,61.0972
90.0755,61.0972
90.0150,61.2432
90.0150,61.2432
89.9943,61.4000
89.9943,61.4000
90.0150,61.5568
90.0150,61.5568
90.0755,61.7028
90.0755,61.7028
90.1654,61.8200
90.1717,61.8283
90.1717,61.8283
90.1717,61.8283
90.2608,61.8966
90.2954,61.9470
90.2995,61.9752
90.2995,64.4029
90.2806,64.4611
90.2733,64.4697
90.1755,64.5972
90.1755,64.5972
90.1150,64.7432
90.1150,64.7432
90.0943,64.9000
90.0943,64.9000
90.1150,65.0568
90.1150,65.0568
90.1755,65.2028
90.1755,65.2028
90.2717,65.3283
90.2717,65.3283
90.3972,65.4245
90.5432,65.4850
90.6608,65.5005
90.7000,65.5057
90.7000,65.5057
90.7000,65.5057
90.7314,65.5016
90.8568,65.4850
90.9105,65.4628
91.0088,65.4221
91.0096,65.4239
91.0603,65.4132
91.0908,65.4230
91.0912,65.4221
91.2432,65.4850
91.2432,65.4850
91.3608,65.5005
91.4000,65.5057
91.4000,65.5057
91.4000,65.5057
91.4314,65.5016
91.5568,65.4850
91.7028,65.4245
91.8283,65.3283
91.9245,65.2028
91.9850,65.0568
92.0057,64.9000
91.9850,64.7432
91.9673,64.7005
91.9245,64.5972
91.9245,64.5972
91.8283,64.4717
91.7642,64.4226
91.7296,64.3721
91.7255,64.3440
91.7255,61.9560
91.7444,61.8978
91.7642,61.8774
91.8283,61.8283
91.9245,61.7028
91.9850,61.5568
92.0057,61.4000
91.9850,61.2432
91.9245,61.0972
91.9245,61.0972
91.8383,60.9848
91.8179,60.9271
91.8352,60.8684
91.8838,60.8312
91.9168,60.8255
92.3755,60.8255
92.4337,60.8444
92.4697,60.8939
92.4745,60.9245
92.4745,68.2005
92.4556,68.2587
92.4061,68.2947
92.3755,68.2995
91.7303,68.2995
91.7303,68.2995
91.7302,68.2995
91.6718,68.3111
91.6718,68.3111
91.6055,68.3554
91.6054,68.3555
91.5611,68.4218
91.5611,68.4218
91.5495,68.4802
91.5495,68.4803
91.5495,69.5197
91.5495,69.5198
91.5611,69.5782
91.5611,69.5782
91.6054,69.6446
91.6718,69.6889
91.7162,69.6977
91.7302,69.7005
91.7302,69.7005
91.7303,69.7005
91.7303,69.7005
94.5197,69.7005
94.5197,69.7005
94.5782,69.6889
94.6446,69.6446
94.6889,69.5782
94.7005,69.5197
94.7005,68.4803
94.6889,68.4218
94.6446,68.3554
94.6445,68.3554
94.5782,68.3111
94.5782,68.3111
94.5782,68.3111
94.5782,68.3111
94.5198,68.2995
94.5197,68.2995
94.5197,68.2995
93.2245,68.2995
93.1663,68.2806
93.1303,68.2311
93.1255,68.2005
93.1255,60.4426
93.1186,60.4236
93.1141,60.4069
93.1106,60.3870
93.1005,60.3694
93.0932,60.3538
93.0862,60.3347
93.0862,60.3347
93.0732,60.3192
93.0633,60.3051
93.0532,60.2875
93.0377,60.2745
93.0255,60.2623
93.0125,60.2468
92.9949,60.2367
92.9808,60.2268
92.9653,60.2138
92.9653,60.2138
92.9462,60.2068
92.9306,60.1995
92.9130,60.1894
92.8931,60.1859
92.8764,60.1814
92.8574,60.1745
92.8574,60.1745
92.8285,60.1745
89.2464,60.1745
89.2421,60.1743
89.2012,60.1707
89.2012,60.1707
89.1616,60.1814
89.1573,60.1823
89.1170,60.1894
89.1169,60.1894
89.1156,60.1902
89.0918,60.2001
89.0903,60.2004
89.0903,60.2004
89.0567,60.2240
89.0531,60.2263
89.0522,60.2268
89.0175,60.2468
88.9912,60.2782
88.9883,60.2814
88.4945,60.7752
88.4400,60.8029
88.3796,60.7934
88.3363,60.7501
88.3255,60.7052
88.3255,58.5403
88.3444,58.4822
88.3939,58.4462
88.4438,58.4433
88.4716,58.4488
88.4802,58.4505
88.4802,58.4505
88.4803,58.4505
88.4803,58.4505
89.5197,58.4505
89.5197,58.4505
89.5782,58.4389
89.6446,58.3946
89.6889,58.3282
89.7005,58.2697
89.7005,57.0250
90.2000,57.0250
90.2000,58.2948
90.2029,58.3199
90.2482,58.4225
90.3275,58.5018
90.4301,58.5471
90.4552,58.5500
90.8500,58.5500
90.8500,58.5500
91.1500,58.5500
91.1500,58.5500
91.5448,58.5500
91.5448,58.5500
91.5699,58.5471
91.6725,58.5018
91.7518,58.4225
91.7971,58.3199
91.8000,58.2948
91.8000,58.2948
91.8000,57.0250
91.8000,57.0250
91.1500,57.0250
91.1500,57.0250
91.1500,58.5500
90.8500,58.5500
90.8500,57.0250
90.8500,57.0250
90.2000,57.0250
89.7005,57.0250
89.7005,56.7250
90.2000,56.7250
90.2000,56.7250
90.8500,56.7250
90.8500,56.7250
90.8500,55.2000
91.1500,55.2000
91.1500,56.7250
91.1500,56.7250
91.8000,56.7250
91.8000,56.7250
91.8000,55.4552
91.8000,55.4552
91.7971,55.4301
91.7518,55.3275
91.6725,55.2482
91.5699,55.2029
91.5448,55.2000
91.1500,55.2000
90.8500,55.2000
90.4552,55.2000
90.4552,55.2000
90.4301,55.2029
90.3275,55.2482
90.2482,55.3275
90.2029,55.4301
90.2000,55.4552
90.2000,56.7250
89.7005,56.7250
89.7005,55.4803
89.6889,55.4218
89.6446,55.3554
89.6445,55.3554
89.5782,55.3111
89.5782,55.3111
89.5782,55.3111
89.5782,55.3111
89.5198,55.2995
89.5197,55.2995
88.4803,55.2995
88.4803,55.2995
88.4802,55.2995
88.4218,55.3111
88.4218,55.3111
88.3555,55.3554
88.3554,55.3555
88.3111,55.4218
88.3111,55.4218
88.2995,55.4802
88.2995,55.4803
88.2995,56.4505
88.2806,56.5087
88.2311,56.5447
88.2005,56.5495
88.1414,56.5495
88.1371,56.5493
88.0962,56.5457
88.0962,56.5457
88.0566,56.5564
88.0523,56.5573
88.0120,56.5644
88.0119,56.5644
88.0106,56.5652
87.9868,56.5751
87.9853,56.5754
87.9853,56.5754
87.9517,56.5990
87.9481,56.6013
87.9399,56.6060
87.9125,56.6218
87.8862,56.6532
87.8833,56.6564
87.7814,56.7583
87.7782,56.7612
87.7468,56.7875
87.7468,56.7875
87.7263,56.8231
87.7240,56.8267
87.7004,56.8603
87.7004,56.8603
87.7001,56.8618
87.6902,56.8856
87.6894,56.8869
87.6894,56.8870
87.6823,56.9273
87.6814,56.9316
87.6707,56.9712
87.6707,56.9712
87.6743,57.0121
87.6745,57.0164
87.6745,61.2014
87.6556,61.2596
87.6134,61.2929
87.6072,61.2955
87.4817,61.3917
87.4817,61.3917
87.3855,61.5172
87.3855,61.5172
87.3250,61.6632
87.3250,61.6632
87.3043,61.8200
87.3043,61.8200
87.3250,61.9768
87.3250,61.9768
87.3855,62.1228
87.3855,62.1228
87.3855,62.1228
87.4817,62.2483
87.6072,62.3445
87.6072,62.3445
87.6072,62.3445
87.6574,62.3653
87.7532,62.4050
87.8708,62.4205
87.9100,62.4257
87.9100,62.4257
87.9100,62.4257
87.9414,62.4216
88.0668,62.4050
88.1626,62.3653
88.2236,62.3605
88.2758,62.3925
88.2992,62.4490
88.2995,62.4568
88.2995,63.3242
88.2806,63.3824
88.2705,63.3942
88.0192,63.6455
87.9647,63.6733
87.9492,63.6745
87.5023,63.6745
87.4441,63.6556
87.4082,63.6061
87.4042,63.5884
87.3850,63.4432
87.3850,63.4432
87.3245,63.2972
87.3245,63.2972
87.2283,63.1717
87.2283,63.1717
87.2283,63.1717
87.2283,63.1717
87.2283,63.1717
87.1028,63.0755
86.9568,63.0150
86.9568,63.0150
86.8000,62.9943
86.8000,62.9943
86.6432,63.0150
86.6432,63.0150
86.4972,63.0755
86.4972,63.0755
86.3717,63.1717
86.3717,63.1717
86.2755,63.2972
86.2755,63.2972
86.2150,63.4432
86.2150,63.4432
86.1943,63.6000
86.1943,63.6000
86.2150,63.7568
86.2150,63.7568
86.2755,63.9028
86.2755,63.9028
86.2755,63.9028
86.3717,64.0283
86.3983,64.0487
86.4358,64.0774
86.4704,64.1279
86.4745,64.1560
86.4745,64.9242
86.4556,64.9824
86.4455,64.9942
84.5814,66.8583
84.5782,66.8612
84.5468,66.8875
84.5468,66.8875
84.5263,66.9231
84.5240,66.9267
84.5004,66.9603
84.5004,66.9603
84.5001,66.9618
84.4902,66.9856
84.4894,66.9869
84.4894,66.9870
84.4823,67.0273
84.4814,67.0316
84.4707,67.0712
84.4707,67.0712
84.4743,67.1121
84.4745,67.1164
84.4745,68.3836
84.4743,68.3879
84.4714,68.4218
84.4707,68.4288
68.0005,68.4288
68.0005,60.0000
73.8945,60.0000
73.9143,60.4913
73.9143,60.4913
73.9143,60.4913
73.9143,60.4913
73.9736,60.9794
73.9736,60.9794
74.0720,61.4611
74.0720,61.4611
74.2087,61.9334
74.2088,61.9334
74.2806,62.1228
74.3831,62.3931
74.5380,62.7195
74.5926,62.8346
74.5939,62.8373
74.8397,63.2632
74.8397,63.2632
75.1190,63.6678
75.4300,64.0487
75.7703,64.4029
75.7706,64.4033
75.9681,64.5782
76.1386,64.7293
76.1386,64.7293
76.5317,65.0247
76.6249,65.0836
76.9473,65.2875
76.9473,65.2875
76.9473,65.2875
76.9473,65.2875
77.3346,65.4908
77.3826,65.5160
77.8350,65.7087
78.0655,65.7857
78.3013,65.8644
78.3014,65.8644
78.3014,65.8644
78.7788,65.9821
79.2641,66.0609
79.7542,66.1005
79.7542,66.1005
80.2458,66.1005
80.2458,66.1005
80.7359,66.0609
81.2212,65.9821
81.6986,65.8644
82.1650,65.7087
82.6174,65.5160
82.8631,65.3870
83.0527,65.2875
83.0527,65.2875
83.0527,65.2875
83.4683,65.0247
83.8614,64.7293
84.2294,64.4033
84.5700,64.0487
84.8810,63.6678
85.1603,63.2632
85.4061,62.8373
85.6169,62.3931
85.7912,61.9334
85.7912,61.9334
85.7912,61.9334
85.9280,61.4611
85.9280,61.4611
85.9280,61.4611
86.0264,60.9794
86.0597,60.7052
86.0857,60.4913
86.0857,60.4913
86.0857,60.4913
86.1055,60.0000
86.0857,59.5087
86.0857,59.5087
86.0857,59.5087
86.0264,59.0206
86.0264,59.0206
85.9280,58.5389
85.9280,58.5389
85.7912,58.0666
85.7912,58.0666
85.7732,58.0189
85.6169,57.6069
85.4061,57.1627
85.1603,56.7368
84.9626,56.4505
84.8810,56.3322
84.5700,55.9513
84.2294,55.5967
84.0979,55.4802
83.9534,55.3522
83.8614,55.2707
83.8614,55.2707
83.4683,54.9753
83.1770,54.7911
83.0527,54.7125
83.0527,54.7125
83.0527,54.7125
83.0527,54.7125
82.6174,54.4840
82.6174,54.4840
82.6174,54.4840
82.6174,54.4840
82.1650,54.2913
82.1650,54.2913
82.1650,54.2913
81.6987,54.1356
81.6986,54.1356
81.3373,54.0465
81.2212,54.0179
80.7359,53.9391
80.7359,53.9391
80.4610,53.9169
80.2458,53.8995
79.7542,53.8995
79.5563,53.9155
79.2641,53.9391
78.7788,54.0179
78.3014,54.1356
78.3013,54.1356
77.8350,54.2913
77.5424,54.4160
77.3826,54.4840
77.3826,54.4840
77.3826,54.4840
77.3826,54.4840
76.9473,54.7125
76.9473,54.7125
76.5317,54.9753
76.1386,55.2707
76.1386,55.2707
75.7706,55.5967
75.4300,55.9513
75.1190,56.3322
74.8397,56.7368
74.5939,57.1627
74.3831,57.6069
74.2088,58.0666
74.2087,58.0666
74.0720,58.5389
74.0720,58.5389
73.9736,59.0206
73.9736,59.0206
73.9143,59.5087
73.9143,59.5087
73.9143,59.5087
73.9143,59.5087
73.8945,60.0000
68.0005,60.0000
68.0005,50.0000
68.6443,50.0000
68.6649,50.2354
68.7261,50.4637
68.8260,50.6778
68.8260,50.6778
68.8260,50.6778
68.8260,50.6778
68.9615,50.8714
69.1286,51.0385
69.3222,51.1740
69.3222,51.1740
69.3222,51.1740
69.3222,51.1740
69.5363,51.2739
69.5363,51.2739
69.7646,51.3351
69.7646,51.3351
69.7646,51.3351
69.9410,51.3505
69.9410,51.3505
70.0590,51.3505
70.2354,51.3351
70.2354,51.3351
70.2354,51.3351
70.4637,51.2739
70.6778,51.1740
70.8714,51.0385
71.0385,50.8714
71.1740,50.6778
71.2739,50.4637
71.3351,50.2354
71.3557,50.0000
88.6443,50.0000
88.6649,50.2354
88.7261,50.4637
88.8260,50.6778
88.8260,50.6778
88.8260,50.6778
88.8260,50.6778
88.9615,50.8714
89.1286,51.0385
89.3222,51.1740
89.3222,51.1740
89.3222,51.1740
89.3222,51.1740
89.5363,51.2739
89.5363,51.2739
89.7646,51.3351
89.7646,51.3351
89.7646,51.3351
89.9410,51.3505
89.9410,51.3505
90.0590,51.3505
90.2354,51.3351
90.2354,51.3351
90.2354,51.3351
90.4637,51.2739
90.6778,51.1740
90.8714,51.0385
91.0385,50.8714
91.1740,50.6778
91.2739,50.4637
91.3351,50.2354
91.3557,50.0000
91.3351,49.7646
91.2739,49.5363
91.1740,49.3222
91.0385,49.1286
90.8714,48.9615
90.8714,48.9615
90.8714,48.9615
90.6782,48.8262
90.6778,48.8260
90.6778,48.8260
90.6778,48.8260
90.6778,48.8260
90.4637,48.7261
90.4637,48.7261
90.3876,48.7057
90.2354,48.6649
90.2354,48.6649
90.2354,48.6649
90.0590,48.6495
90.0590,48.6495
89.9410,48.6495
89.9410,48.6495
89.7646,48.6649
89.5363,48.7261
89.3222,48.8260
89.3222,48.8260
89.1286,48.9615
88.9615,49.1286
88.8260,49.3222
88.7261,49.5363
88.6649,49.7646
88.6443,50.0000
88.6443,50.0000
71.3557,50.0000
71.3557,50.0000
71.3351,49.7646
71.2739,49.5363
71.1740,49.3222
71.0385,49.1286
70.8714,48.9615
70.8714,48.9615
70.8714,48.9615
70.6782,48.8262
70.6778,48.8260
70.6778,48.8260
70.6778,48.8260
70.6778,48.8260
70.4637,48.7261
70.4637,48.7261
70.3876,48.7057
70.2354,48.6649
70.2354,48.6649
70.2354,48.6649
70.0590,48.6495
70.0590,48.6495
69.9410,48.6495
69.9410,48.6495
69.7646,48.6649
69.5363,48.7261
69.3222,48.8260
69.3222,48.8260
69.1286,48.9615
68.9615,49.1286
68.8260,49.3222
68.7261,49.5363
68.6649,49.7646
68.6443,50.0000
68.6443,50.0000
68.0005,50.0000
68.0005,49.0022
68.0007,48.9979
68.0045,48.9545
68.0171,48.8262
68.0200,48.8103
68.0382,48.7423
68.0386,48.7410
68.0672,48.6467
68.0722,48.6336
68.0993,48.5756
68.1046,48.5643
68.1057,48.5619
68.1511,48.4770
68.1542,48.4720
68.2013,48.4048
68.2035,48.4018
68.2635,48.3287
68.2667,48.3251
68.3251,48.2667
68.3287,48.2635
68.4018,48.2035
68.4048,48.2013
68.4720,48.1542
68.4770,48.1511
68.5619,48.1057
68.5643,48.1046
68.6336,48.0722
68.6467,48.0672
68.7410,48.0386
68.7423,48.0382
68.8103,48.0200
68.8262,48.0171
68.9545,48.0045
68.9979,48.0007
69.0022,48.0005
93.9978,48.0005
Z" /> 
</g>
</g>
</g>
<g style="fill:#FFFFFF; fill-opacity:1.0000; 
stroke:#FFFFFF; stroke-width:0.0000; stroke-opacity:1; 
stroke-linecap:round; stroke-linejoin:round;">
<circle cx="86.8000" cy="63.6000" r="0.2000" /> 
</g>
<g style="fill:#FFFFFF; fill-opacity:1.0000; 
stroke:#FFFFFF; stroke-width:0.0212; stroke-opacity:1; 
stroke-linecap:round; stroke-linejoin:round;">
</g>
<g style="fill:#FFFFFF; fill-opacity:1.0000; 
stroke:#FFFFFF; stroke-width:0.0000; stroke-opacity:1; 
stroke-linecap:round; stroke-linejoin:round;">
<circle cx="74.0000" cy="52.0000" r="0.2000" /> 
</g>
<g style="fill:#FFFFFF; fill-opacity:1.0000; 
stroke:#FFFFFF; stroke-width:0.0212; stroke-opacity:1; 
stroke-linecap:round; stroke-linejoin:round;">
</g>
<g style="fill:#FFFFFF; fill-opacity:1.0000; 
stroke:#FFFFFF; stroke-width:0.0000; stroke-opacity:1; 
stroke-linecap:round; stroke-linejoin:round;">
<circle cx="89.9282" cy="58.8038" r="0.2000" /> 
</g>
<g style="fill:#FFFFFF; fill-opacity:1.0000; 
stroke:#FFFFFF; stroke-width:0.0212; stroke-opacity:1; 
stroke-linecap:round; stroke-linejoin:round;">
</g>
<g style="fill:#FFFFFF; fill-opacity:1.0000; 
stroke:#FFFFFF; stroke-width:0.0000; stroke-opacity:1; 
stroke-linecap:round; stroke-linejoin:round;">
<circle cx="70.0718" cy="61.1962" r="0.2000" /> 
</g>
<g style="fill:#FFFFFF; fill-opacity:1.0000; 
stroke:#FFFFFF; stroke-width:0.0212; stroke-opacity:1; 
stroke-linecap:round; stroke-linejoin:round;">
</g>
<g style="fill:#FFFFFF; fill-opacity:1.0000; 
stroke:#FFFFFF; stroke-width:0.0000; stroke-opacity:1; 
stroke-linecap:round; stroke-linejoin:round;">
<circle cx="76.0718" cy="69.1962" r="0.2000" /> 
</g>
<g style="fill:#FFFFFF; fill-opacity:1.0000; 
stroke:#FFFFFF; stroke-width:0.0212; stroke-opacity:1; 
stroke-linecap:round; stroke-linejoin:round;">
</g>
<g style="fill:#FFFFFF; fill-opacity:1.0000; 
stroke:#FFFFFF; stroke-width:0.0000; stroke-opacity:1; 
stroke-linecap:round; stroke-linejoin:round;">
<circle cx="81.1962" cy="69.9282" r="0.2000" /> 
</g>
<g style="fill:#FFFFFF; fill-opacity:1.0000; 
stroke:#FFFFFF; stroke-width:0.0212; stroke-opacity:1; 
stroke-linecap:round; stroke-linejoin:round;">
</g>
<g style="fill:#FFFFFF; fill-opacity:1.0000; 
stroke:#FFFFFF; stroke-width:0.0000; stroke-opacity:1; 
stroke-linecap:round; stroke-linejoin:round;">
<circle cx="83.9282" cy="50.8038" r="0.2000" /> 
</g>
<g style="fill:#FFFFFF; fill-opacity:1.0000; 
stroke:#FFFFFF; stroke-width:0.0212; stroke-opacity:1; 
stroke-linecap:round; stroke-linejoin:round;">
</g>
<g style="fill:#FFFFFF; fill-opacity:1.0000; 
stroke:#FFFFFF; stroke-width:0.0000; stroke-opacity:1; 
stroke-linecap:round; stroke-linejoin:round;">
<circle cx="72.0000" cy="66.0000" r="0.2000" /> 
</g>
<g style="fill:#FFFFFF; fill-opacity:1.0000; 
stroke:#FFFFFF; stroke-width:0.0212; stroke-opacity:1; 
stroke-linecap:round; stroke-linejoin:round;">
</g>
<g style="fill:#FFFFFF; fill-opacity:1.0000; 
stroke:#FFFFFF; stroke-width:0.0000; stroke-opacity:1; 
stroke-linecap:round; stroke-linejoin:round;">
<circle cx="86.4000" cy="67.7000" r="0.2000" /> 
</g>
<g style="fill:#FFFFFF; fill-opacity:1.0000; 
stroke:#FFFFFF; stroke-width:0.0212; stroke-opacity:1; 
stroke-linecap:round; stroke-linejoin:round;">
</g>
<g style="fill:#FFFFFF; fill-opacity:1.0000; 
stroke:#FFFFFF; stroke-width:0.0000; stroke-opacity:1; 
stroke-linecap:round; stroke-linejoin:round;">
<circle cx="70.8038" cy="56.0718" r="0.2000" /> 
</g>
<g style="fill:#FFFFFF; fill-opacity:1.0000; 
stroke:#FFFFFF; stroke-width:0.0212; stroke-opacity:1; 
stroke-linecap:round; stroke-linejoin:round;">
</g>
<g style="fill:#FFFFFF; fill-opacity:1.0000; 
stroke:#FFFFFF; stroke-width:0.0000; stroke-opacity:1; 
stroke-linecap:round; stroke-linejoin:round;">
<circle cx="88.0000" cy="54.0000" r="0.2000" /> 
</g>
<g style="fill:#FFFFFF; fill-opacity:1.0000; 
stroke:#FFFFFF; stroke-width:0.0212; stroke-opacity:1; 
stroke-linecap:round; stroke-linejoin:round;">
</g>
<g style="fill:#FFFFFF; fill-opacity:1.0000; 
stroke:#FFFFFF; stroke-width:0.0000; stroke-opacity:1; 
stroke-linecap:round; stroke-linejoin:round;">
<circle cx="88.5000" cy="66.0000" r="0.2000" /> 
</g>
<g style="fill:#FFFFFF; fill-opacity:1.0000; 
stroke:#FFFFFF; stroke-width:0.0212; stroke-opacity:1; 
stroke-linecap:round; stroke-linejoin:round;">
</g>
<g style="fill:#FFFFFF; fill-opacity:1.0000; 
stroke:#FFFFFF; stroke-width:0.0000; stroke-opacity:1; 
stroke-linecap:round; stroke-linejoin:round;">
<circle cx="78.8038" cy="50.0718" r="0.2000" /> 
</g>
<g style="fill:#FFFFFF; fill-opacity:1.0000; 
stroke:#FFFFFF; stroke-width:0.0212; stroke-opacity:1; 
stroke-linecap:round; stroke-linejoin:round;">
</g>
<g style="fill:#FFFFFF; fill-opacity:1.0000; 
stroke:#FFFFFF; stroke-width:0.0000; stroke-opacity:1; 
stroke-linecap:round; stroke-linejoin:round;">
<circle cx="90.6000" cy="61.4000" r="0.2000" /> 
</g>
<g style="fill:#FFFFFF; fill-opacity:1.0000; 
stroke:#FFFFFF; stroke-width:0.0212; stroke-opacity:1; 
stroke-linecap:round; stroke-linejoin:round;">
</g>
<g style="fill:#FFFFFF; fill-opacity:1.0000; 
stroke:#FFFFFF; stroke-width:0.0000; stroke-opacity:1; 
stroke-linecap:round; stroke-linejoin:round;">
<circle cx="85.1000" cy="70.6000" r="0.2000" /> 
</g>
<g style="fill:#FFFFFF; fill-opacity:1.0000; 
stroke:#FFFFFF; stroke-width:0.0212; stroke-opacity:1; 
stroke-linecap:round; stroke-linejoin:round;">
</g>
<g style="fill:#FFFFFF; fill-opacity:1.0000; 
stroke:#FFFFFF; stroke-width:0.0000; stroke-opacity:1; 
stroke-linecap:round; stroke-linejoin:round;">
<circle cx="91.4000" cy="61.4000" r="0.2000" /> 
</g>
<g style="fill:#FFFFFF; fill-opacity:1.0000; 
stroke:#FFFFFF; stroke-width:0.0212; stroke-opacity:1; 
stroke-linecap:round; stroke-linejoin:round;">
</g>
<g style="fill:#FFFFFF; fill-opacity:1.0000; 
stroke:#FFFFFF; stroke-width:0.0000; stroke-opacity:1; 
stroke-linecap:round; stroke-linejoin:round;">
<circle cx="91.4000" cy="64.9000" r="0.2000" /> 
</g>
<g style="fill:#FFFFFF; fill-opacity:1.0000; 
stroke:#FFFFFF; stroke-width:0.0212; stroke-opacity:1; 
stroke-linecap:round; stroke-linejoin:round;">
</g>
<g style="fill:#FFFFFF; fill-opacity:1.0000; 
stroke:#FFFFFF; stroke-width:0.0000; stroke-opacity:1; 
stroke-linecap:round; stroke-linejoin:round;">
<circle cx="90.7000" cy="64.9000" r="0.2000" /> 
</g>
<g style="fill:#FFFFFF; fill-opacity:1.0000; 
stroke:#FFFFFF; stroke-width:0.0212; stroke-opacity:1; 
stroke-linecap:round; stroke-linejoin:round;">
</g>
<g style="fill:#FFFFFF; fill-opacity:1.0000; 
stroke:#FFFFFF; stroke-width:0.0000; stroke-opacity:1; 
stroke-linecap:round; stroke-linejoin:round;">
<circle cx="88.6000" cy="70.6000" r="0.2000" /> 
</g>
<g style="fill:#FFFFFF; fill-opacity:1.0000; 
stroke:#FFFFFF; stroke-width:0.0212; stroke-opacity:1; 
stroke-linecap:round; stroke-linejoin:round;">
</g>
<g style="fill:#FFFFFF; fill-opacity:1.0000; 
stroke:#FFFFFF; stroke-width:0.0000; stroke-opacity:1; 
stroke-linecap:round; stroke-linejoin:round;">
<circle cx="88.6000" cy="71.4000" r="0.2000" /> 
</g>
<g style="fill:#FFFFFF; fill-opacity:1.0000; 
stroke:#FFFFFF; stroke-width:0.0212; stroke-opacity:1; 
stroke-linecap:round; stroke-linejoin:round;">
</g>
<g style="fill:#FFFFFF; fill-opacity:1.0000; 
stroke:#FFFFFF; stroke-width:0.0000; stroke-opacity:1; 
stroke-linecap:round; stroke-linejoin:round;">
<circle cx="85.1000" cy="71.4000" r="0.2000" /> 
</g>
<g style="fill:#FFFFFF; fill-opacity:1.0000; 
stroke:#FFFFFF; stroke-width:0.0212; stroke-opacity:1; 
stroke-linecap:round; stroke-linejoin:round;">
</g>
<g style="fill:#FFFFFF; fill-opacity:1.0000; 
stroke:#FFFFFF; stroke-width:0.0000; stroke-opacity:1; 
stroke-linecap:round; stroke-linejoin:round;">
<circle cx="87.9100" cy="61.8200" r="0.2000" /> 
</g>
<g style="fill:#FFFFFF; fill-opacity:1.0000; 
stroke:#FFFFFF; stroke-width:0.0212; stroke-opacity:1; 
stroke-linecap:round; stroke-linejoin:round;">
</g>
<g style="fill:#FFFFFF; fill-opacity:1.0000; 
stroke:#FFFFFF; stroke-width:0.0000; stroke-opacity:1; 
stroke-linecap:round; stroke-linejoin:round;">
<circle cx="90.0000" cy="50.0000" r="1.1000" /> 
</g>
<g style="fill:#FFFFFF; fill-opacity:1.0000; 
stroke:#FFFFFF; stroke-width:0.0212; stroke-opacity:1; 
stroke-linecap:round; stroke-linejoin:round;">
</g>
<g style="fill:#FFFFFF; fill-opacity:1.0000; 
stroke:#FFFFFF; stroke-width:0.0000; stroke-opacity:1; 
stroke-linecap:round; stroke-linejoin:round;">
<circle cx="70.0000" cy="50.0000" r="1.1000" /> 
</g>
<g style="fill:#FFFFFF; fill-opacity:1.0000; 
stroke:#FFFFFF; stroke-width:0.0212; stroke-opacity:1; 
stroke-linecap:round; stroke-linejoin:round;">
</g>
<g style="fill:#FFFFFF; fill-opacity:1.0000; 
stroke:#FFFFFF; stroke-width:0.0000; stroke-opacity:1; 
stroke-linecap:round; stroke-linejoin:round;">
<circle cx="70.0000" cy="70.0000" r="1.1000" /> 
</g>
<g style="fill:#FFFFFF; fill-opacity:1.0000; 
stroke:#FFFFFF; stroke-width:0.0212; stroke-opacity:1; 
stroke-linecap:round; stroke-linejoin:round;">
</g>
<g style="fill:#000000; fill-opacity:1.0000; 
stroke:#000000; stroke-width:0.0212; stroke-opacity:1; 
stroke-linecap:round; stroke-linejoin:round;">
</g> 
</svg>
