<?xml version="1.0" standalone="no"?>
 <!DOCTYPE svg PUBLIC "-//W3C//DTD SVG 1.1//EN" 
 "http://www.w3.org/Graphics/SVG/1.1/DTD/svg11.dtd"> 
<svg
  xmlns:svg="http://www.w3.org/2000/svg"
  xmlns="http://www.w3.org/2000/svg"
  xmlns:xlink="http://www.w3.org/1999/xlink"
  version="1.1"
  width="297.0022mm" height="210.0072mm" viewBox="0.0000 0.0000 297.0022 210.0072">
<title>SVG Image created as pedalboard-led-ring-B_Silkscreen.svg date 2023/05/22 19:41:27 </title>
  <desc>Image generated by PCBNEW </desc>
<g style="fill:#000000; fill-opacity:1.0000;stroke:#000000; stroke-opacity:1.0000;
stroke-linecap:round; stroke-linejoin:round;"
 transform="translate(0 0) scale(1 1)">
</g>
<g style="fill:#000000; fill-opacity:0.0; 
stroke:#000000; stroke-width:0.0000; stroke-opacity:1; 
stroke-linecap:round; stroke-linejoin:round;">
</g>
<g style="fill:#000000; fill-opacity:0.0; 
stroke:#000000; stroke-width:0.1000; stroke-opacity:1; 
stroke-linecap:round; stroke-linejoin:round;">
<circle cx="80.0000" cy="60.0000" r="7.0500" /> 
</g>
<g style="fill:#000000; fill-opacity:0.0; 
stroke:#000000; stroke-width:0.1500; stroke-opacity:1; 
stroke-linecap:round; stroke-linejoin:round;">
<text x="92.1000" y="49.8000"
transform="scale(-1 1) translate(-184.200000 0)"
textLength="2.1750" font-size="1.3333" lengthAdjust="spacingAndGlyphs"
text-anchor="middle" opacity="0">U1</text>
<g class="stroked-text"><desc>U1</desc>
<path d="M92.8619 48.7626
L92.8619 49.5721
" />
<path d="M92.8619 49.5721
L92.8143 49.6674
" />
<path d="M92.8143 49.6674
L92.7667 49.7150
" />
<path d="M92.7667 49.7150
L92.6714 49.7626
" />
<path d="M92.6714 49.7626
L92.4810 49.7626
" />
<path d="M92.4810 49.7626
L92.3857 49.7150
" />
<path d="M92.3857 49.7150
L92.3381 49.6674
" />
<path d="M92.3381 49.6674
L92.2905 49.5721
" />
<path d="M92.2905 49.5721
L92.2905 48.7626
" />
<path d="M91.2905 49.7626
L91.8619 49.7626
" />
<path d="M91.5762 49.7626
L91.5762 48.7626
" />
<path d="M91.5762 48.7626
L91.6714 48.9055
" />
<path d="M91.6714 48.9055
L91.7667 49.0007
" />
<path d="M91.7667 49.0007
L91.8619 49.0483
" />
</g><g transform="rotate(-90.000000 90.7300 68.0000)">
<text x="90.7300" y="68.5000"
transform="scale(-1 1) translate(-181.460000 0)"
textLength="1.8893" font-size="1.3333" lengthAdjust="spacingAndGlyphs"
text-anchor="middle" opacity="0">J1</text>
</g>
<g class="stroked-text"><desc>J1</desc>
<path d="M90.1926 67.6667
L90.9069 67.6667
" />
<path d="M90.9069 67.6667
L91.0498 67.6190
" />
<path d="M91.0498 67.6190
L91.1450 67.5238
" />
<path d="M91.1450 67.5238
L91.1926 67.3810
" />
<path d="M91.1926 67.3810
L91.1926 67.2857
" />
<path d="M91.1926 68.6667
L91.1926 68.0952
" />
<path d="M91.1926 68.3810
L90.1926 68.3810
" />
<path d="M90.1926 68.3810
L90.3355 68.2857
" />
<path d="M90.3355 68.2857
L90.4307 68.1905
" />
<path d="M90.4307 68.1905
L90.4783 68.0952
" />
</g><text x="97.5000" y="61.7500"
transform="scale(-1 1) translate(-195.000000 0)"
textLength="2.1274" font-size="1.3333" lengthAdjust="spacingAndGlyphs"
text-anchor="middle" opacity="0">C1</text>
<g class="stroked-text"><desc>C1</desc>
<path d="M97.6667 61.6174
L97.7143 61.6650
" />
<path d="M97.7143 61.6650
L97.8571 61.7126
" />
<path d="M97.8571 61.7126
L97.9524 61.7126
" />
<path d="M97.9524 61.7126
L98.0952 61.6650
" />
<path d="M98.0952 61.6650
L98.1905 61.5698
" />
<path d="M98.1905 61.5698
L98.2381 61.4745
" />
<path d="M98.2381 61.4745
L98.2857 61.2840
" />
<path d="M98.2857 61.2840
L98.2857 61.1412
" />
<path d="M98.2857 61.1412
L98.2381 60.9507
" />
<path d="M98.2381 60.9507
L98.1905 60.8555
" />
<path d="M98.1905 60.8555
L98.0952 60.7602
" />
<path d="M98.0952 60.7602
L97.9524 60.7126
" />
<path d="M97.9524 60.7126
L97.8571 60.7126
" />
<path d="M97.8571 60.7126
L97.7143 60.7602
" />
<path d="M97.7143 60.7602
L97.6667 60.8079
" />
<path d="M96.7143 61.7126
L97.2857 61.7126
" />
<path d="M97.0000 61.7126
L97.0000 60.7126
" />
<path d="M97.0000 60.7126
L97.0952 60.8555
" />
<path d="M97.0952 60.8555
L97.1905 60.9507
" />
<path d="M97.1905 60.9507
L97.2857 60.9983
" />
</g><g transform="rotate(-90.000000 100.9000 53.1000)">
<text x="100.9000" y="53.4250"
transform="scale(-1 1) translate(-201.800000 0)"
textLength="1.5140" font-size="0.8667" lengthAdjust="spacingAndGlyphs"
text-anchor="middle" opacity="0">R1</text>
</g>
<g class="stroked-text"><desc>R1</desc>
<path d="M101.2007 52.9917
L100.8912 52.7750
" />
<path d="M101.2007 52.6202
L100.5507 52.6202
" />
<path d="M100.5507 52.6202
L100.5507 52.8679
" />
<path d="M100.5507 52.8679
L100.5817 52.9298
" />
<path d="M100.5817 52.9298
L100.6126 52.9607
" />
<path d="M100.6126 52.9607
L100.6745 52.9917
" />
<path d="M100.6745 52.9917
L100.7674 52.9917
" />
<path d="M100.7674 52.9917
L100.8293 52.9607
" />
<path d="M100.8293 52.9607
L100.8602 52.9298
" />
<path d="M100.8602 52.9298
L100.8912 52.8679
" />
<path d="M100.8912 52.8679
L100.8912 52.6202
" />
<path d="M101.2007 53.6107
L101.2007 53.2393
" />
<path d="M101.2007 53.4250
L100.5507 53.4250
" />
<path d="M100.5507 53.4250
L100.6436 53.3631
" />
<path d="M100.6436 53.3631
L100.7055 53.3012
" />
<path d="M100.7055 53.3012
L100.7364 53.2393
" />
</g><g transform="rotate(-90.000000 100.8000 55.2500)">
<text x="100.8000" y="55.5750"
transform="scale(-1 1) translate(-201.600000 0)"
textLength="1.5140" font-size="0.8667" lengthAdjust="spacingAndGlyphs"
text-anchor="middle" opacity="0">C2</text>
</g>
<g class="stroked-text"><desc>C2</desc>
<path d="M101.0388 55.1417
L101.0697 55.1107
" />
<path d="M101.0697 55.1107
L101.1007 55.0179
" />
<path d="M101.1007 55.0179
L101.1007 54.9560
" />
<path d="M101.1007 54.9560
L101.0697 54.8631
" />
<path d="M101.0697 54.8631
L101.0078 54.8012
" />
<path d="M101.0078 54.8012
L100.9459 54.7702
" />
<path d="M100.9459 54.7702
L100.8221 54.7393
" />
<path d="M100.8221 54.7393
L100.7293 54.7393
" />
<path d="M100.7293 54.7393
L100.6055 54.7702
" />
<path d="M100.6055 54.7702
L100.5436 54.8012
" />
<path d="M100.5436 54.8012
L100.4817 54.8631
" />
<path d="M100.4817 54.8631
L100.4507 54.9560
" />
<path d="M100.4507 54.9560
L100.4507 55.0179
" />
<path d="M100.4507 55.0179
L100.4817 55.1107
" />
<path d="M100.4817 55.1107
L100.5126 55.1417
" />
<path d="M100.5126 55.3893
L100.4817 55.4202
" />
<path d="M100.4817 55.4202
L100.4507 55.4821
" />
<path d="M100.4507 55.4821
L100.4507 55.6369
" />
<path d="M100.4507 55.6369
L100.4817 55.6988
" />
<path d="M100.4817 55.6988
L100.5126 55.7298
" />
<path d="M100.5126 55.7298
L100.5745 55.7607
" />
<path d="M100.5745 55.7607
L100.6364 55.7607
" />
<path d="M100.6364 55.7607
L100.7293 55.7298
" />
<path d="M100.7293 55.7298
L101.1007 55.3583
" />
<path d="M101.1007 55.3583
L101.1007 55.7607
" />
</g></g>
<g style="fill:#000000; fill-opacity:0.0; 
stroke:#000000; stroke-width:0.1200; stroke-opacity:1; 
stroke-linecap:round; stroke-linejoin:round;">
<path d="M94.9000 50.2400
L92.9500 50.2400
" />
<path d="M94.9000 50.2400
L96.8500 50.2400
" />
<path d="M94.9000 55.3600
L91.4500 55.3600
" />
<path d="M94.9000 55.3600
L96.8500 55.3600
" />
<path d="M92.3000 63.9600
L92.3000 65.4000
" />
<path d="M99.4700 65.4000
L99.4700 70.6000
" />
<path d="M98.9000 65.4000
L99.4700 65.4000
" />
<path d="M96.3600 65.4000
L97.3800 65.4000
" />
<path d="M93.8200 65.4000
L94.8400 65.4000
" />
<path d="M91.7300 65.4000
L92.3000 65.4000
" />
<path d="M91.7300 65.4000
L91.7300 70.6000
" />
<path d="M98.9000 70.6000
L99.4700 70.6000
" />
<path d="M96.3600 70.6000
L97.3800 70.6000
" />
<path d="M93.8200 70.6000
L94.8400 70.6000
" />
<path d="M91.7300 70.6000
L92.3000 70.6000
" />
<path d="M89.6000 57.9000
L89.6000 60.1000
" />
<path d="M89.6000 60.1000
L90.4000 60.1000
" />
<path d="M90.4000 57.2000
L90.4000 57.9000
" />
<path d="M90.4000 57.9000
L89.6000 57.9000
" />
<path d="M90.4000 60.1000
L90.4000 60.7000
" />
<path d="M90.4000 60.7000
L90.4000 60.8000
" />
<path d="M90.4000 60.8000
L91.6000 62.0000
" />
<path d="M91.6000 56.0000
L90.4000 57.2000
" />
<path d="M91.6000 62.0000
L96.4000 62.0000
" />
<path d="M96.4000 56.0000
L91.6000 56.0000
" />
<path d="M96.4000 57.9000
L96.4000 56.0000
" />
<path d="M96.4000 60.1000
L97.2000 60.1000
" />
<path d="M96.4000 62.0000
L96.4000 60.1000
" />
<path d="M97.2000 57.9000
L96.4000 57.9000
" />
<path d="M97.2000 60.1000
L97.2000 57.9000
" />
</g>
<g style="fill:#000000; fill-opacity:0.0; 
stroke:#000000; stroke-width:0.1500; stroke-opacity:1; 
stroke-linecap:round; stroke-linejoin:round;">
<path d="M100.1000 53.4500
L100.1000 51.7500
" />
<path d="M98.7000 51.7500
L98.7000 53.4500
" />
</g>
<g style="fill:#000000; fill-opacity:0.0; 
stroke:#000000; stroke-width:0.1200; stroke-opacity:1; 
stroke-linecap:round; stroke-linejoin:round;">
<path d="M100.0200 55.2980
L100.0200 55.5020
" />
<path d="M98.7800 55.2980
L98.7800 55.5020
" />
<g >
</g>
<g >
</g>
<g >
</g>
<g >
</g>
<g >
</g>
<g >
</g>
<g >
</g>
<g >
</g>
<g >
</g>
<g >
</g>
<g >
</g>
<g >
</g>
<g >
</g>
<g >
</g>
</g>
<g style="fill:#FFFFFF; fill-opacity:0.0; 
stroke:#FFFFFF; stroke-width:0.1200; stroke-opacity:1; 
stroke-linecap:round; stroke-linejoin:round;">
</g>
<g style="fill:#FFFFFF; fill-opacity:1.0000; 
stroke:#FFFFFF; stroke-width:0.0000; stroke-opacity:1; 
stroke-linecap:round; stroke-linejoin:round;">
<circle cx="89.5000" cy="61.4000" r="0.2000" /> 
</g>
<g style="fill:#FFFFFF; fill-opacity:1.0000; 
stroke:#FFFFFF; stroke-width:0.0212; stroke-opacity:1; 
stroke-linecap:round; stroke-linejoin:round;">
</g>
<g style="fill:#FFFFFF; fill-opacity:1.0000; 
stroke:#FFFFFF; stroke-width:0.0000; stroke-opacity:1; 
stroke-linecap:round; stroke-linejoin:round;">
<circle cx="90.5000" cy="61.4000" r="0.2000" /> 
</g>
<g style="fill:#FFFFFF; fill-opacity:1.0000; 
stroke:#FFFFFF; stroke-width:0.0212; stroke-opacity:1; 
stroke-linecap:round; stroke-linejoin:round;">
</g>
<g style="fill:#FFFFFF; fill-opacity:1.0000; 
stroke:#FFFFFF; stroke-width:0.0000; stroke-opacity:1; 
stroke-linecap:round; stroke-linejoin:round;">
<circle cx="90.5000" cy="62.4000" r="0.2000" /> 
</g>
<g style="fill:#FFFFFF; fill-opacity:1.0000; 
stroke:#FFFFFF; stroke-width:0.0212; stroke-opacity:1; 
stroke-linecap:round; stroke-linejoin:round;">
</g>
<g style="fill:#FFFFFF; fill-opacity:1.0000; 
stroke:#FFFFFF; stroke-width:0.0000; stroke-opacity:1; 
stroke-linecap:round; stroke-linejoin:round;">
<circle cx="95.6000" cy="72.7000" r="0.2000" /> 
</g>
<g style="fill:#FFFFFF; fill-opacity:1.0000; 
stroke:#FFFFFF; stroke-width:0.0212; stroke-opacity:1; 
stroke-linecap:round; stroke-linejoin:round;">
</g>
<g style="fill:#FFFFFF; fill-opacity:1.0000; 
stroke:#FFFFFF; stroke-width:0.0000; stroke-opacity:1; 
stroke-linecap:round; stroke-linejoin:round;">
<circle cx="97.3750" cy="55.6000" r="0.2000" /> 
</g>
<g style="fill:#FFFFFF; fill-opacity:1.0000; 
stroke:#FFFFFF; stroke-width:0.0212; stroke-opacity:1; 
stroke-linecap:round; stroke-linejoin:round;">
</g>
<g style="fill:#FFFFFF; fill-opacity:1.0000; 
stroke:#FFFFFF; stroke-width:0.0000; stroke-opacity:1; 
stroke-linecap:round; stroke-linejoin:round;">
<circle cx="92.4000" cy="55.5000" r="0.2000" /> 
</g>
<g style="fill:#FFFFFF; fill-opacity:1.0000; 
stroke:#FFFFFF; stroke-width:0.0212; stroke-opacity:1; 
stroke-linecap:round; stroke-linejoin:round;">
</g>
<g style="fill:#FFFFFF; fill-opacity:1.0000; 
stroke:#FFFFFF; stroke-width:0.0000; stroke-opacity:1; 
stroke-linecap:round; stroke-linejoin:round;">
<circle cx="90.8000" cy="53.4000" r="0.2000" /> 
</g>
<g style="fill:#FFFFFF; fill-opacity:1.0000; 
stroke:#FFFFFF; stroke-width:0.0212; stroke-opacity:1; 
stroke-linecap:round; stroke-linejoin:round;">
</g>
<g style="fill:#FFFFFF; fill-opacity:1.0000; 
stroke:#FFFFFF; stroke-width:0.0000; stroke-opacity:1; 
stroke-linecap:round; stroke-linejoin:round;">
<circle cx="90.8000" cy="52.2000" r="0.2000" /> 
</g>
<g style="fill:#FFFFFF; fill-opacity:1.0000; 
stroke:#FFFFFF; stroke-width:0.0212; stroke-opacity:1; 
stroke-linecap:round; stroke-linejoin:round;">
</g>
<g style="fill:#000000; fill-opacity:1.0000; 
stroke:#000000; stroke-width:0.0212; stroke-opacity:1; 
stroke-linecap:round; stroke-linejoin:round;">
</g> 
</svg>
