<?xml version="1.0" standalone="no"?>
 <!DOCTYPE svg PUBLIC "-//W3C//DTD SVG 1.1//EN" 
 "http://www.w3.org/Graphics/SVG/1.1/DTD/svg11.dtd"> 
<svg
  xmlns:svg="http://www.w3.org/2000/svg"
  xmlns="http://www.w3.org/2000/svg"
  xmlns:xlink="http://www.w3.org/1999/xlink"
  version="1.1"
  width="297.0022mm" height="210.0072mm" viewBox="0.0000 0.0000 297.0022 210.0072">
<title>SVG Image created as pedalboard-led-ring-B_Cu.svg date 2023/05/26 11:24:12 </title>
  <desc>Image generated by PCBNEW </desc>
<g style="fill:#000000; fill-opacity:1.0000;stroke:#000000; stroke-opacity:1.0000;
stroke-linecap:round; stroke-linejoin:round;"
 transform="translate(0 0) scale(1 1)">
</g>
<g style="fill:#000000; fill-opacity:0.0; 
stroke:#000000; stroke-width:0.0000; stroke-opacity:1; 
stroke-linecap:round; stroke-linejoin:round;">
<g >
</g>
<g >
</g>
<g >
</g>
<g >
</g>
<g >
</g>
<g >
</g>
<g >
</g>
<g style="fill:#000000; fill-opacity:0.0; 
stroke:#000000; stroke-width:0.0000; stroke-opacity:1; 
stroke-linecap:round; stroke-linejoin:round;">
</g>
<g style="fill:#000000; fill-opacity:0.0; 
stroke:#000000; stroke-width:0.0000; stroke-opacity:1; 
stroke-linecap:round; stroke-linejoin:round;">
</g>
<g style="fill:#000000; fill-opacity:1.0000; 
stroke:#000000; stroke-width:0.0000; stroke-opacity:1; 
stroke-linecap:round; stroke-linejoin:round;">
<path style="fill:#000000; fill-opacity:1.0000; 
stroke:#000000; stroke-width:0.0000; stroke-opacity:1; 
stroke-linecap:round; stroke-linejoin:round;fill-rule:evenodd;"
d="M 91.4500,54.5550
91.4614,54.4976
91.4939,54.4489
91.5426,54.4164
91.6000,54.4050
93.2500,54.4050
93.3074,54.4164
93.3561,54.4489
93.3886,54.4976
93.4000,54.5550
93.4000,54.8550
93.3886,54.9124
93.3561,54.9611
93.3074,54.9936
93.2500,55.0050
91.6000,55.0050
91.5426,54.9936
91.4939,54.9611
91.4614,54.9124
91.4500,54.8550
Z" /> 
<path style="fill:#000000; fill-opacity:1.0000; 
stroke:#000000; stroke-width:0.0000; stroke-opacity:1; 
stroke-linecap:round; stroke-linejoin:round;fill-rule:evenodd;"
d="M 91.4500,53.2850
91.4614,53.2276
91.4939,53.1789
91.5426,53.1464
91.6000,53.1350
93.2500,53.1350
93.3074,53.1464
93.3561,53.1789
93.3886,53.2276
93.4000,53.2850
93.4000,53.5850
93.3886,53.6424
93.3561,53.6911
93.3074,53.7236
93.2500,53.7350
91.6000,53.7350
91.5426,53.7236
91.4939,53.6911
91.4614,53.6424
91.4500,53.5850
Z" /> 
<path style="fill:#000000; fill-opacity:1.0000; 
stroke:#000000; stroke-width:0.0000; stroke-opacity:1; 
stroke-linecap:round; stroke-linejoin:round;fill-rule:evenodd;"
d="M 91.4500,52.0150
91.4614,51.9576
91.4939,51.9089
91.5426,51.8764
91.6000,51.8650
93.2500,51.8650
93.3074,51.8764
93.3561,51.9089
93.3886,51.9576
93.4000,52.0150
93.4000,52.3150
93.3886,52.3724
93.3561,52.4211
93.3074,52.4536
93.2500,52.4650
91.6000,52.4650
91.5426,52.4536
91.4939,52.4211
91.4614,52.3724
91.4500,52.3150
Z" /> 
<path style="fill:#000000; fill-opacity:1.0000; 
stroke:#000000; stroke-width:0.0000; stroke-opacity:1; 
stroke-linecap:round; stroke-linejoin:round;fill-rule:evenodd;"
d="M 91.4500,50.7450
91.4614,50.6876
91.4939,50.6389
91.5426,50.6064
91.6000,50.5950
93.2500,50.5950
93.3074,50.6064
93.3561,50.6389
93.3886,50.6876
93.4000,50.7450
93.4000,51.0450
93.3886,51.1024
93.3561,51.1511
93.3074,51.1836
93.2500,51.1950
91.6000,51.1950
91.5426,51.1836
91.4939,51.1511
91.4614,51.1024
91.4500,51.0450
Z" /> 
<path style="fill:#000000; fill-opacity:1.0000; 
stroke:#000000; stroke-width:0.0000; stroke-opacity:1; 
stroke-linecap:round; stroke-linejoin:round;fill-rule:evenodd;"
d="M 96.4000,50.7450
96.4114,50.6876
96.4439,50.6389
96.4926,50.6064
96.5500,50.5950
98.2000,50.5950
98.2574,50.6064
98.3061,50.6389
98.3386,50.6876
98.3500,50.7450
98.3500,51.0450
98.3386,51.1024
98.3061,51.1511
98.2574,51.1836
98.2000,51.1950
96.5500,51.1950
96.4926,51.1836
96.4439,51.1511
96.4114,51.1024
96.4000,51.0450
Z" /> 
<path style="fill:#000000; fill-opacity:1.0000; 
stroke:#000000; stroke-width:0.0000; stroke-opacity:1; 
stroke-linecap:round; stroke-linejoin:round;fill-rule:evenodd;"
d="M 96.4000,52.0150
96.4114,51.9576
96.4439,51.9089
96.4926,51.8764
96.5500,51.8650
98.2000,51.8650
98.2574,51.8764
98.3061,51.9089
98.3386,51.9576
98.3500,52.0150
98.3500,52.3150
98.3386,52.3724
98.3061,52.4211
98.2574,52.4536
98.2000,52.4650
96.5500,52.4650
96.4926,52.4536
96.4439,52.4211
96.4114,52.3724
96.4000,52.3150
Z" /> 
<path style="fill:#000000; fill-opacity:1.0000; 
stroke:#000000; stroke-width:0.0000; stroke-opacity:1; 
stroke-linecap:round; stroke-linejoin:round;fill-rule:evenodd;"
d="M 96.4000,53.2850
96.4114,53.2276
96.4439,53.1789
96.4926,53.1464
96.5500,53.1350
98.2000,53.1350
98.2574,53.1464
98.3061,53.1789
98.3386,53.2276
98.3500,53.2850
98.3500,53.5850
98.3386,53.6424
98.3061,53.6911
98.2574,53.7236
98.2000,53.7350
96.5500,53.7350
96.4926,53.7236
96.4439,53.6911
96.4114,53.6424
96.4000,53.5850
Z" /> 
<path style="fill:#000000; fill-opacity:1.0000; 
stroke:#000000; stroke-width:0.0000; stroke-opacity:1; 
stroke-linecap:round; stroke-linejoin:round;fill-rule:evenodd;"
d="M 96.4000,54.5550
96.4114,54.4976
96.4439,54.4489
96.4926,54.4164
96.5500,54.4050
98.2000,54.4050
98.2574,54.4164
98.3061,54.4489
98.3386,54.4976
98.3500,54.5550
98.3500,54.8550
98.3386,54.9124
98.3061,54.9611
98.2574,54.9936
98.2000,55.0050
96.5500,55.0050
96.4926,54.9936
96.4439,54.9611
96.4114,54.9124
96.4000,54.8550
Z" /> 
</g>
<g >
</g>
<g style="fill:#000000; fill-opacity:1.0000; 
stroke:#000000; stroke-width:0.0000; stroke-opacity:1; 
stroke-linecap:round; stroke-linejoin:round;">
<path style="fill:#000000; fill-opacity:1.0000; 
stroke:#000000; stroke-width:0.0000; stroke-opacity:1; 
stroke-linecap:round; stroke-linejoin:round;fill-rule:evenodd;"
d="M 87.6035,65.5965
87.6050,65.6000
87.6050,67.6000
87.6035,67.6035
87.6000,67.6050
86.6000,67.6050
86.5965,67.6035
86.5950,67.6000
86.5950,67.1050
85.5000,67.1050
85.4965,67.1035
85.4950,67.1000
85.4950,66.1000
85.4965,66.0965
85.5000,66.0950
86.5950,66.0950
86.5950,65.6000
86.5965,65.5965
86.6000,65.5950
87.6000,65.5950
Z" /> 
<path style="fill:#000000; fill-opacity:1.0000; 
stroke:#000000; stroke-width:0.0000; stroke-opacity:1; 
stroke-linecap:round; stroke-linejoin:round;fill-rule:evenodd;"
d="M 89.9035,65.5965
89.9050,65.6000
89.9050,66.0950
91.0000,66.0950
91.0035,66.0965
91.0050,66.1000
91.0050,67.1000
91.0035,67.1035
91.0000,67.1050
89.9050,67.1050
89.9050,67.6000
89.9035,67.6035
89.9000,67.6050
88.9000,67.6050
88.8965,67.6035
88.8950,67.6000
88.8950,65.6000
88.8965,65.5965
88.9000,65.5950
89.9000,65.5950
Z" /> 
</g>
<g >
</g>
<g style="fill:#000000; fill-opacity:1.0000; 
stroke:#000000; stroke-width:0.0000; stroke-opacity:1; 
stroke-linecap:round; stroke-linejoin:round;">
<path style="fill:#000000; fill-opacity:1.0000; 
stroke:#000000; stroke-width:0.0000; stroke-opacity:1; 
stroke-linecap:round; stroke-linejoin:round;fill-rule:evenodd;"
d="M 89.6750,58.9500
89.6940,58.8543
89.7482,58.7732
89.8293,58.7190
89.9250,58.7000
90.7500,58.7000
90.8457,58.7190
90.9268,58.7732
90.9810,58.8543
91.0000,58.9500
91.0000,60.2500
90.9810,60.3457
90.9268,60.4268
90.8457,60.4810
90.7500,60.5000
89.9250,60.5000
89.8293,60.4810
89.7482,60.4268
89.6940,60.3457
89.6750,60.2500
Z" /> 
<path style="fill:#000000; fill-opacity:1.0000; 
stroke:#000000; stroke-width:0.0000; stroke-opacity:1; 
stroke-linecap:round; stroke-linejoin:round;fill-rule:evenodd;"
d="M 92.8000,58.9500
92.8190,58.8543
92.8732,58.7732
92.9543,58.7190
93.0500,58.7000
93.8750,58.7000
93.9707,58.7190
94.0518,58.7732
94.1060,58.8543
94.1250,58.9500
94.1250,60.2500
94.1060,60.3457
94.0518,60.4268
93.9707,60.4810
93.8750,60.5000
93.0500,60.5000
92.9543,60.4810
92.8732,60.4268
92.8190,60.3457
92.8000,60.2500
Z" /> 
</g>
<g >
</g>
<g style="fill:#000000; fill-opacity:1.0000; 
stroke:#000000; stroke-width:0.0000; stroke-opacity:1; 
stroke-linecap:round; stroke-linejoin:round;">
<path style="fill:#000000; fill-opacity:1.0000; 
stroke:#000000; stroke-width:0.0000; stroke-opacity:1; 
stroke-linecap:round; stroke-linejoin:round;fill-rule:evenodd;"
d="M 92.5600,69.0200
93.5600,69.0200
93.5600,72.0200
92.5600,72.0200
Z" /> 
<path style="fill:#000000; fill-opacity:1.0000; 
stroke:#000000; stroke-width:0.0000; stroke-opacity:1; 
stroke-linecap:round; stroke-linejoin:round;fill-rule:evenodd;"
d="M 92.5600,63.9800
93.5600,63.9800
93.5600,66.9800
92.5600,66.9800
Z" /> 
<path style="fill:#000000; fill-opacity:1.0000; 
stroke:#000000; stroke-width:0.0000; stroke-opacity:1; 
stroke-linecap:round; stroke-linejoin:round;fill-rule:evenodd;"
d="M 95.1000,69.0200
96.1000,69.0200
96.1000,72.0200
95.1000,72.0200
Z" /> 
<path style="fill:#000000; fill-opacity:1.0000; 
stroke:#000000; stroke-width:0.0000; stroke-opacity:1; 
stroke-linecap:round; stroke-linejoin:round;fill-rule:evenodd;"
d="M 95.1000,63.9800
96.1000,63.9800
96.1000,66.9800
95.1000,66.9800
Z" /> 
<path style="fill:#000000; fill-opacity:1.0000; 
stroke:#000000; stroke-width:0.0000; stroke-opacity:1; 
stroke-linecap:round; stroke-linejoin:round;fill-rule:evenodd;"
d="M 97.6400,69.0200
98.6400,69.0200
98.6400,72.0200
97.6400,72.0200
Z" /> 
<path style="fill:#000000; fill-opacity:1.0000; 
stroke:#000000; stroke-width:0.0000; stroke-opacity:1; 
stroke-linecap:round; stroke-linejoin:round;fill-rule:evenodd;"
d="M 97.6400,63.9800
98.6400,63.9800
98.6400,66.9800
97.6400,66.9800
Z" /> 
</g>
<g >
</g>
<g style="fill:#000000; fill-opacity:1.0000; 
stroke:#000000; stroke-width:0.0000; stroke-opacity:1; 
stroke-linecap:round; stroke-linejoin:round;">
<path style="fill:#000000; fill-opacity:1.0000; 
stroke:#000000; stroke-width:0.0000; stroke-opacity:1; 
stroke-linecap:round; stroke-linejoin:round;fill-rule:evenodd;"
d="M 83.5000,70.6500
84.5000,70.6500
84.5000,71.6500
83.5000,71.6500
Z" /> 
<path style="fill:#000000; fill-opacity:1.0000; 
stroke:#000000; stroke-width:0.0000; stroke-opacity:1; 
stroke-linecap:round; stroke-linejoin:round;fill-rule:evenodd;"
d="M 83.5000,72.3500
84.5000,72.3500
84.5000,73.3500
83.5000,73.3500
Z" /> 
</g>
<g >
</g>
<g style="fill:#000000; fill-opacity:1.0000; 
stroke:#000000; stroke-width:0.0000; stroke-opacity:1; 
stroke-linecap:round; stroke-linejoin:round;">
<path style="fill:#000000; fill-opacity:1.0000; 
stroke:#000000; stroke-width:0.0000; stroke-opacity:1; 
stroke-linecap:round; stroke-linejoin:round;fill-rule:evenodd;"
d="M 100.3000,53.9500
99.3000,53.9500
99.3000,52.9500
100.3000,52.9500
Z" /> 
<path style="fill:#000000; fill-opacity:1.0000; 
stroke:#000000; stroke-width:0.0000; stroke-opacity:1; 
stroke-linecap:round; stroke-linejoin:round;fill-rule:evenodd;"
d="M 100.3000,52.2500
99.3000,52.2500
99.3000,51.2500
100.3000,51.2500
Z" /> 
</g>
<g >
</g>
<g style="fill:#000000; fill-opacity:1.0000; 
stroke:#000000; stroke-width:0.0000; stroke-opacity:1; 
stroke-linecap:round; stroke-linejoin:round;">
<path style="fill:#000000; fill-opacity:1.0000; 
stroke:#000000; stroke-width:0.0000; stroke-opacity:1; 
stroke-linecap:round; stroke-linejoin:round;fill-rule:evenodd;"
d="M 87.6750,71.1250
87.6750,71.3750
86.9750,71.3750
86.9750,71.1250
Z" /> 
<path style="fill:#000000; fill-opacity:1.0000; 
stroke:#000000; stroke-width:0.0000; stroke-opacity:1; 
stroke-linecap:round; stroke-linejoin:round;fill-rule:evenodd;"
d="M 87.6750,71.6250
87.6750,71.8750
86.9750,71.8750
86.9750,71.6250
Z" /> 
<path style="fill:#000000; fill-opacity:1.0000; 
stroke:#000000; stroke-width:0.0000; stroke-opacity:1; 
stroke-linecap:round; stroke-linejoin:round;fill-rule:evenodd;"
d="M 87.6750,72.1250
87.6750,72.3750
86.9750,72.3750
86.9750,72.1250
Z" /> 
<path style="fill:#000000; fill-opacity:1.0000; 
stroke:#000000; stroke-width:0.0000; stroke-opacity:1; 
stroke-linecap:round; stroke-linejoin:round;fill-rule:evenodd;"
d="M 87.6750,72.6250
87.6750,72.8750
86.9750,72.8750
86.9750,72.6250
Z" /> 
<path style="fill:#000000; fill-opacity:1.0000; 
stroke:#000000; stroke-width:0.0000; stroke-opacity:1; 
stroke-linecap:round; stroke-linejoin:round;fill-rule:evenodd;"
d="M 85.8250,72.6250
85.8250,72.8750
85.1250,72.8750
85.1250,72.6250
Z" /> 
<path style="fill:#000000; fill-opacity:1.0000; 
stroke:#000000; stroke-width:0.0000; stroke-opacity:1; 
stroke-linecap:round; stroke-linejoin:round;fill-rule:evenodd;"
d="M 85.8250,72.1250
85.8250,72.3750
85.1250,72.3750
85.1250,72.1250
Z" /> 
<path style="fill:#000000; fill-opacity:1.0000; 
stroke:#000000; stroke-width:0.0000; stroke-opacity:1; 
stroke-linecap:round; stroke-linejoin:round;fill-rule:evenodd;"
d="M 85.8250,71.6250
85.8250,71.8750
85.1250,71.8750
85.1250,71.6250
Z" /> 
<path style="fill:#000000; fill-opacity:1.0000; 
stroke:#000000; stroke-width:0.0000; stroke-opacity:1; 
stroke-linecap:round; stroke-linejoin:round;fill-rule:evenodd;"
d="M 85.8250,71.1250
85.8250,71.3750
85.1250,71.3750
85.1250,71.1250
Z" /> 
<path style="fill:#000000; fill-opacity:1.0000; 
stroke:#000000; stroke-width:0.0000; stroke-opacity:1; 
stroke-linecap:round; stroke-linejoin:round;fill-rule:evenodd;"
d="M 86.7050,70.9000
86.7050,73.1000
86.0950,73.1000
86.0950,70.9000
Z" /> 
</g>
<g >
</g>
<g style="fill:#000000; fill-opacity:1.0000; 
stroke:#000000; stroke-width:0.0000; stroke-opacity:1; 
stroke-linecap:round; stroke-linejoin:round;">
<path style="fill:#000000; fill-opacity:1.0000; 
stroke:#000000; stroke-width:0.0000; stroke-opacity:1; 
stroke-linecap:round; stroke-linejoin:round;fill-rule:evenodd;"
d="M 98.2750,55.8750
98.3707,55.8940
98.4518,55.9482
98.5060,56.0293
98.5250,56.1250
98.5250,56.8000
98.5060,56.8957
98.4518,56.9768
98.3707,57.0310
98.2750,57.0500
97.3250,57.0500
97.2293,57.0310
97.1482,56.9768
97.0940,56.8957
97.0750,56.8000
97.0750,56.1250
97.0940,56.0293
97.1482,55.9482
97.2293,55.8940
97.3250,55.8750
Z" /> 
<path style="fill:#000000; fill-opacity:1.0000; 
stroke:#000000; stroke-width:0.0000; stroke-opacity:1; 
stroke-linecap:round; stroke-linejoin:round;fill-rule:evenodd;"
d="M 98.2750,57.9500
98.3707,57.9690
98.4518,58.0232
98.5060,58.1043
98.5250,58.2000
98.5250,58.8750
98.5060,58.9707
98.4518,59.0518
98.3707,59.1060
98.2750,59.1250
97.3250,59.1250
97.2293,59.1060
97.1482,59.0518
97.0940,58.9707
97.0750,58.8750
97.0750,58.2000
97.0940,58.1043
97.1482,58.0232
97.2293,57.9690
97.3250,57.9500
Z" /> 
</g>
<g >
</g>
<g style="fill:#000000; fill-opacity:1.0000; 
stroke:#000000; stroke-width:0.0000; stroke-opacity:1; 
stroke-linecap:round; stroke-linejoin:round;">
<path style="fill:#000000; fill-opacity:1.0000; 
stroke:#000000; stroke-width:0.0000; stroke-opacity:1; 
stroke-linecap:round; stroke-linejoin:round;fill-rule:evenodd;"
d="M 84.6250,69.7750
84.6060,69.8707
84.5518,69.9518
84.4707,70.0060
84.3750,70.0250
83.7000,70.0250
83.6043,70.0060
83.5232,69.9518
83.4690,69.8707
83.4500,69.7750
83.4500,68.8250
83.4690,68.7293
83.5232,68.6482
83.6043,68.5940
83.7000,68.5750
84.3750,68.5750
84.4707,68.5940
84.5518,68.6482
84.6060,68.7293
84.6250,68.8250
Z" /> 
<path style="fill:#000000; fill-opacity:1.0000; 
stroke:#000000; stroke-width:0.0000; stroke-opacity:1; 
stroke-linecap:round; stroke-linejoin:round;fill-rule:evenodd;"
d="M 82.5500,69.7750
82.5310,69.8707
82.4768,69.9518
82.3957,70.0060
82.3000,70.0250
81.6250,70.0250
81.5293,70.0060
81.4482,69.9518
81.3940,69.8707
81.3750,69.7750
81.3750,68.8250
81.3940,68.7293
81.4482,68.6482
81.5293,68.5940
81.6250,68.5750
82.3000,68.5750
82.3957,68.5940
82.4768,68.6482
82.5310,68.7293
82.5500,68.8250
Z" /> 
</g>
<g >
</g>
<g style="fill:#000000; fill-opacity:1.0000; 
stroke:#000000; stroke-width:0.0000; stroke-opacity:1; 
stroke-linecap:round; stroke-linejoin:round;">
<path style="fill:#000000; fill-opacity:1.0000; 
stroke:#000000; stroke-width:0.0000; stroke-opacity:1; 
stroke-linecap:round; stroke-linejoin:round;fill-rule:evenodd;"
d="M 89.3500,73.7250
89.2543,73.7060
89.1732,73.6518
89.1190,73.5707
89.1000,73.4750
89.1000,72.6500
89.1190,72.5543
89.1732,72.4732
89.2543,72.4190
89.3500,72.4000
90.6500,72.4000
90.7457,72.4190
90.8268,72.4732
90.8810,72.5543
90.9000,72.6500
90.9000,73.4750
90.8810,73.5707
90.8268,73.6518
90.7457,73.7060
90.6500,73.7250
Z" /> 
<path style="fill:#000000; fill-opacity:1.0000; 
stroke:#000000; stroke-width:0.0000; stroke-opacity:1; 
stroke-linecap:round; stroke-linejoin:round;fill-rule:evenodd;"
d="M 89.3500,70.6000
89.2543,70.5810
89.1732,70.5268
89.1190,70.4457
89.1000,70.3500
89.1000,69.5250
89.1190,69.4293
89.1732,69.3482
89.2543,69.2940
89.3500,69.2750
90.6500,69.2750
90.7457,69.2940
90.8268,69.3482
90.8810,69.4293
90.9000,69.5250
90.9000,70.3500
90.8810,70.4457
90.8268,70.5268
90.7457,70.5810
90.6500,70.6000
Z" /> 
</g>
<g >
</g>
<g style="fill:#000000; fill-opacity:1.0000; 
stroke:#000000; stroke-width:0.0000; stroke-opacity:1; 
stroke-linecap:round; stroke-linejoin:round;">
<circle cx="89.5000" cy="61.4000" r="0.4000" /> 
</g>
<g style="fill:#000000; fill-opacity:1.0000; 
stroke:#000000; stroke-width:0.0212; stroke-opacity:1; 
stroke-linecap:round; stroke-linejoin:round;">
</g>
<g style="fill:#000000; fill-opacity:1.0000; 
stroke:#000000; stroke-width:0.0000; stroke-opacity:1; 
stroke-linecap:round; stroke-linejoin:round;">
<circle cx="90.5000" cy="61.4000" r="0.4000" /> 
</g>
<g style="fill:#000000; fill-opacity:1.0000; 
stroke:#000000; stroke-width:0.0212; stroke-opacity:1; 
stroke-linecap:round; stroke-linejoin:round;">
</g>
<g style="fill:#000000; fill-opacity:1.0000; 
stroke:#000000; stroke-width:0.0000; stroke-opacity:1; 
stroke-linecap:round; stroke-linejoin:round;">
<circle cx="82.7000" cy="71.1000" r="0.4000" /> 
</g>
<g style="fill:#000000; fill-opacity:1.0000; 
stroke:#000000; stroke-width:0.0212; stroke-opacity:1; 
stroke-linecap:round; stroke-linejoin:round;">
</g>
<g style="fill:#000000; fill-opacity:1.0000; 
stroke:#000000; stroke-width:0.0000; stroke-opacity:1; 
stroke-linecap:round; stroke-linejoin:round;">
<circle cx="98.1400" cy="72.5400" r="0.4000" /> 
</g>
<g style="fill:#000000; fill-opacity:1.0000; 
stroke:#000000; stroke-width:0.0212; stroke-opacity:1; 
stroke-linecap:round; stroke-linejoin:round;">
</g>
<g style="fill:#000000; fill-opacity:1.0000; 
stroke:#000000; stroke-width:0.0000; stroke-opacity:1; 
stroke-linecap:round; stroke-linejoin:round;">
<circle cx="99.2000" cy="55.2000" r="0.4000" /> 
</g>
<g style="fill:#000000; fill-opacity:1.0000; 
stroke:#000000; stroke-width:0.0212; stroke-opacity:1; 
stroke-linecap:round; stroke-linejoin:round;">
</g>
<g style="fill:#000000; fill-opacity:1.0000; 
stroke:#000000; stroke-width:0.0000; stroke-opacity:1; 
stroke-linecap:round; stroke-linejoin:round;">
<circle cx="92.4000" cy="55.5000" r="0.4000" /> 
</g>
<g style="fill:#000000; fill-opacity:1.0000; 
stroke:#000000; stroke-width:0.0212; stroke-opacity:1; 
stroke-linecap:round; stroke-linejoin:round;">
</g>
<g style="fill:#000000; fill-opacity:1.0000; 
stroke:#000000; stroke-width:0.0000; stroke-opacity:1; 
stroke-linecap:round; stroke-linejoin:round;">
<circle cx="90.8000" cy="53.4000" r="0.4000" /> 
</g>
<g style="fill:#000000; fill-opacity:1.0000; 
stroke:#000000; stroke-width:0.0212; stroke-opacity:1; 
stroke-linecap:round; stroke-linejoin:round;">
</g>
<g style="fill:#000000; fill-opacity:1.0000; 
stroke:#000000; stroke-width:0.0000; stroke-opacity:1; 
stroke-linecap:round; stroke-linejoin:round;">
<circle cx="90.8000" cy="52.2000" r="0.4000" /> 
</g>
<g style="fill:#000000; fill-opacity:1.0000; 
stroke:#000000; stroke-width:0.0212; stroke-opacity:1; 
stroke-linecap:round; stroke-linejoin:round;">
</g>
<g >
</g>
<g style="fill:#000000; fill-opacity:1.0000; 
stroke:#000000; stroke-width:0.0212; stroke-opacity:1; 
stroke-linecap:round; stroke-linejoin:round;">
</g>
<g style="fill:#000000; fill-opacity:1.0000; 
stroke:#000000; stroke-width:0.2500; stroke-opacity:1; 
stroke-linecap:round; stroke-linejoin:round;">
</g>
<g style="fill:#000000; fill-opacity:0.0; 
stroke:#000000; stroke-width:0.2500; stroke-opacity:1; 
stroke-linecap:round; stroke-linejoin:round;">
<path d="M84.0000 71.1500
L82.7500 71.1500
" />
<path d="M85.4602 71.7460
L84.5960 71.7460
" />
<path d="M84.5960 71.7460
L84.0000 71.1500
" />
<path d="M82.7500 71.1500
L82.7000 71.1000
" />
<path d="M86.6540 71.7460
L86.4000 72.0000
" />
<path d="M86.4000 72.0000
L86.4000 70.2000
" />
<path d="M87.3398 71.7460
L86.6540 71.7460
" />
</g>
<g style="fill:#000000; fill-opacity:0.0; 
stroke:#000000; stroke-width:0.6000; stroke-opacity:1; 
stroke-linecap:round; stroke-linejoin:round;">
<path d="M97.3750 54.7050
L97.3750 54.7750
" />
<path d="M97.3750 54.7750
L97.8000 55.2000
" />
<path d="M97.8000 55.2000
L97.8000 56.4725
" />
<path d="M97.8000 55.2000
L99.2000 55.2000
" />
</g>
<g style="fill:#000000; fill-opacity:0.0; 
stroke:#000000; stroke-width:0.2500; stroke-opacity:1; 
stroke-linecap:round; stroke-linejoin:round;">
<path d="M92.4250 54.7050
L92.4250 55.4750
" />
<path d="M92.4250 55.4750
L92.4000 55.5000
" />
<path d="M90.8350 53.4350
L90.8000 53.4000
" />
<path d="M92.4250 53.4350
L90.8350 53.4350
" />
<path d="M92.4250 52.1650
L90.8350 52.1650
" />
<path d="M90.8350 52.1650
L90.8000 52.2000
" />
<path d="M97.3900 53.4500
L97.3750 53.4350
" />
<path d="M99.4000 53.4500
L97.3900 53.4500
" />
<path d="M97.3700 50.9000
L97.3750 50.8950
" />
<path d="M95.6000 65.4750
L95.6000 63.4000
" />
<path d="M95.4000 51.5000
L96.0000 50.9000
" />
<path d="M96.0000 50.9000
L97.3700 50.9000
" />
<path d="M95.6000 63.4000
L95.4000 63.2000
" />
<path d="M95.4000 63.2000
L95.4000 51.5000
" />
<path d="M85.4602 70.3802
L84.3800 69.3000
" />
<path d="M84.3800 69.3000
L84.0375 69.3000
" />
<path d="M85.4602 71.2380
L85.4602 70.3802
" />
<path d="M87.3398 71.2380
L87.3398 68.1398
" />
<path d="M87.3398 68.1398
L87.1000 67.9000
" />
<path d="M87.1000 67.9000
L87.1000 66.6000
" />
<path d="M84.5960 72.2540
L84.0000 72.8500
" />
<path d="M85.4602 72.2540
L84.5960 72.2540
" />
<path d="M88.7000 68.3500
L91.5750 65.4750
" />
<path d="M87.2000 73.4000
L87.3398 73.2602
" />
<path d="M87.3398 72.2540
L87.3398 72.7620
" />
<path d="M87.3398 73.2602
L87.3398 72.7620
" />
<path d="M85.4602 72.7620
L85.4602 73.2602
" />
<path d="M88.7000 71.7000
L88.7000 68.3500
" />
<path d="M91.5750 65.4750
L93.0600 65.4750
" />
<path d="M85.4602 73.2602
L85.6000 73.4000
" />
<path d="M89.2120 72.7620
L89.4000 72.9500
" />
<path d="M85.6000 73.4000
L87.2000 73.4000
" />
<path d="M87.3398 72.7620
L89.2120 72.7620
" />
<path d="M87.3398 72.2540
L88.1460 72.2540
" />
<path d="M88.1460 72.2540
L88.7000 71.7000
" />
<path d="M95.8300 52.2000
L95.8300 63.0219
" />
</g>
<g style="fill:#000000; fill-opacity:0.0; 
stroke:#000000; stroke-width:0.8000; stroke-opacity:1; 
stroke-linecap:round; stroke-linejoin:round;">
<path d="M98.1400 72.5400
L98.1400 70.5250
" />
</g>
<g style="fill:#000000; fill-opacity:0.0; 
stroke:#000000; stroke-width:0.2500; stroke-opacity:1; 
stroke-linecap:round; stroke-linejoin:round;">
<path d="M97.3750 52.1650
L97.3400 52.2000
" />
<path d="M97.3400 52.2000
L95.8300 52.2000
" />
<path d="M98.1400 65.3319
L98.1400 65.4750
" />
<path d="M95.8300 63.0219
L98.1400 65.3319
" />
</g>
<g >
</g>
<g style="fill:#000000; fill-opacity:0.0; 
stroke:#000000; stroke-width:0.2500; stroke-opacity:1; 
stroke-linecap:round; stroke-linejoin:round;">
<g >
</g>
<g style="fill:#000000; fill-opacity:1.0000; 
stroke:#000000; stroke-width:0.0000; stroke-opacity:1; 
stroke-linecap:round; stroke-linejoin:round;">
<path style="fill:#000000; fill-opacity:1.0000; 
stroke:#000000; stroke-width:0.0000; stroke-opacity:1; 
stroke-linecap:round; stroke-linejoin:round;fill-rule:evenodd;"
d="M 91.6430,58.2197
91.6888,58.2725
91.7000,58.3240
91.7000,60.7000
92.8019,60.7000
92.8453,60.7078
92.9425,60.7441
93.0021,60.7505
93.9229,60.7505
93.9825,60.7441
94.0797,60.7078
94.1231,60.7000
94.1760,60.7000
94.2430,60.7197
94.2888,60.7725
94.3000,60.8240
94.3000,70.5760
94.2803,70.6430
94.2275,70.6888
94.1760,70.7000
93.9345,70.7000
93.8675,70.6803
93.8217,70.6275
93.8105,70.5760
93.8105,68.9953
93.7960,68.9223
93.7960,68.9223
93.7406,68.8394
93.6577,68.7840
93.6577,68.7840
93.6577,68.7840
93.5847,68.7695
93.5847,68.7695
92.5353,68.7695
92.5353,68.7695
92.4623,68.7840
92.3794,68.8394
92.3240,68.9223
92.3095,68.9953
92.3095,70.5760
92.2898,70.6430
92.2370,70.6888
92.1855,70.7000
91.6258,70.7000
91.5587,70.6803
91.5130,70.6275
91.5018,70.5743
91.5653,66.0654
91.5859,65.9986
91.6016,65.9795
91.6942,65.8868
91.7555,65.8533
91.7819,65.8505
92.1860,65.8505
92.2530,65.8702
92.2988,65.9230
92.3100,65.9745
92.3100,67.0046
92.3245,67.0775
92.3798,67.1602
92.4625,67.2155
92.5354,67.2300
92.9350,67.2300
92.9350,65.9745
92.9547,65.9075
93.0075,65.8617
93.0590,65.8505
93.0610,65.8505
93.1280,65.8702
93.1738,65.9230
93.1850,65.9745
93.1850,67.2300
93.5846,67.2300
93.6575,67.2155
93.7402,67.1602
93.7955,67.0775
93.8100,67.0046
93.8100,65.6050
93.5607,65.6050
93.4937,65.5853
93.4479,65.5325
93.4371,65.4708
93.4373,65.4688
93.4624,65.4036
93.5188,65.3624
93.5609,65.3550
93.8100,65.3550
93.8100,63.9554
93.7955,63.8825
93.7402,63.7998
93.6575,63.7445
93.5846,63.7300
93.1850,63.7300
93.1850,64.9755
93.1653,65.0425
93.1125,65.0883
93.0610,65.0995
93.0590,65.0995
92.9920,65.0798
92.9462,65.0270
92.9350,64.9755
92.9350,63.7300
92.5354,63.7300
92.4625,63.7445
92.3798,63.7998
92.3245,63.8825
92.3100,63.9554
92.3100,64.9755
92.2903,65.0425
92.2375,65.0883
92.1860,65.0995
91.7046,65.0995
91.6376,65.0798
91.5918,65.0270
91.5807,64.9738
91.6000,63.6000
91.6000,63.6000
89.0240,63.6000
88.9570,63.5803
88.9112,63.5275
88.9000,63.4760
88.9000,59.7250
89.4250,59.7250
89.4250,60.2945
89.4254,60.3011
89.4314,60.3574
89.4816,60.4921
89.5678,60.6072
89.6829,60.6934
89.8176,60.7436
89.8739,60.7496
89.8805,60.7500
90.2125,60.7500
90.2125,59.7250
90.4625,59.7250
90.4625,60.7500
90.7945,60.7500
90.8011,60.7496
90.8574,60.7436
90.9921,60.6934
91.1072,60.6072
91.1934,60.4921
91.2436,60.3574
91.2496,60.3011
91.2500,60.2945
91.2500,59.7250
90.4625,59.7250
90.2125,59.7250
89.4250,59.7250
88.9000,59.7250
88.9000,59.4750
89.4250,59.4750
90.2125,59.4750
90.2125,58.4500
90.4625,58.4500
90.4625,59.4750
91.2500,59.4750
91.2500,58.9055
91.2496,58.8989
91.2436,58.8426
91.1934,58.7079
91.1072,58.5928
90.9921,58.5066
90.8574,58.4564
90.8011,58.4504
90.7945,58.4500
90.4625,58.4500
90.2125,58.4500
89.8805,58.4500
89.8739,58.4504
89.8176,58.4564
89.6829,58.5066
89.5678,58.5928
89.4816,58.7079
89.4314,58.8426
89.4254,58.8989
89.4250,58.9055
89.4250,59.4750
88.9000,59.4750
88.9000,58.3240
88.9197,58.2570
88.9725,58.2112
89.0240,58.2000
91.5760,58.2000
Z" /> 
</g>
</g>
<g style="fill:#000000; fill-opacity:1.0000; 
stroke:#000000; stroke-width:0.0000; stroke-opacity:1; 
stroke-linecap:round; stroke-linejoin:round;">
<g >
<path style="fill:#000000; fill-opacity:1.0000; 
stroke:#000000; stroke-width:0.0000; stroke-opacity:1; 
stroke-linecap:round; stroke-linejoin:round;fill-rule:evenodd;"
d="M 101.0043,46.0009
101.0455,46.0045
101.1738,46.0171
101.1897,46.0200
101.2568,46.0380
101.2598,46.0388
101.3533,46.0672
101.3664,46.0722
101.4345,46.1040
101.4393,46.1064
101.5204,46.1497
101.5305,46.1559
101.5937,46.2002
101.5997,46.2047
101.6694,46.2619
101.6766,46.2685
101.7315,46.3234
101.7381,46.3306
101.7953,46.4003
101.7998,46.4063
101.8441,46.4695
101.8503,46.4796
101.8936,46.5607
101.8960,46.5655
101.9278,46.6336
101.9328,46.6467
101.9611,46.7401
101.9620,46.7432
101.9800,46.8103
101.9829,46.8262
101.9955,46.9546
101.9991,46.9957
101.9995,47.0043
101.9995,72.9957
101.9991,73.0043
101.9955,73.0454
101.9829,73.1738
101.9800,73.1897
101.9620,73.2568
101.9611,73.2599
101.9328,73.3533
101.9278,73.3664
101.8960,73.4345
101.8936,73.4393
101.8503,73.5204
101.8441,73.5305
101.7998,73.5937
101.7953,73.5997
101.7381,73.6694
101.7315,73.6766
101.6766,73.7315
101.6694,73.7381
101.5997,73.7953
101.5937,73.7998
101.5305,73.8441
101.5204,73.8503
101.4393,73.8936
101.4345,73.8960
101.3664,73.9278
101.3533,73.9328
101.2599,73.9611
101.2568,73.9620
101.1897,73.9800
101.1738,73.9829
101.0454,73.9955
101.0139,73.9983
101.0043,73.9991
100.9957,73.9995
90.9988,73.9995
90.9406,73.9806
90.9047,73.9311
90.9047,73.8699
90.9400,73.8208
90.9721,73.7972
91.0528,73.6879
91.0976,73.5597
91.1005,73.5293
91.1005,72.5957
91.0976,72.5653
91.0528,72.4371
90.9721,72.3278
90.8629,72.2472
90.7347,72.2024
90.7347,72.2024
90.7347,72.2024
90.7066,72.1997
90.7066,72.1997
90.7043,72.1995
89.2957,72.1995
89.2934,72.1997
89.2934,72.1997
89.2653,72.2024
89.2653,72.2024
89.2653,72.2024
89.1371,72.2472
89.1371,72.2472
89.1371,72.2472
89.1038,72.2718
89.0279,72.3278
88.9785,72.3947
88.9773,72.3963
88.9276,72.4319
88.8977,72.4365
88.6628,72.4365
88.6046,72.4176
88.5687,72.3681
88.5687,72.3069
88.5928,72.2675
88.9171,71.9433
88.9234,71.9374
88.9250,71.9361
88.9532,71.9125
88.9726,71.8788
88.9773,71.8715
88.9996,71.8397
88.9999,71.8382
89.0098,71.8143
89.0106,71.8130
89.0173,71.7747
89.0192,71.7664
89.0293,71.7288
89.0259,71.6901
89.0255,71.6815
89.0255,70.8527
89.0444,70.7945
89.0939,70.7586
89.1551,70.7586
89.1572,70.7593
89.2654,70.7971
89.2935,70.7998
89.2981,70.8000
89.9000,70.8000
89.9000,70.8000
89.9000,69.0750
89.9000,69.0750
89.2981,69.0750
89.2935,69.0752
89.2654,69.0779
89.1572,69.1157
89.0960,69.1171
89.0457,69.0822
89.0255,69.0245
89.0255,69.0223
89.0255,68.5258
89.0444,68.4676
89.0545,68.4558
89.6719,67.8384
89.7264,67.8106
89.7419,67.8094
89.8882,67.8094
89.8975,67.8103
89.9000,67.8098
89.9000,67.8098
89.9782,67.7943
89.9800,67.7935
89.9819,67.7928
89.9821,67.7927
89.9821,67.7927
90.0484,67.7484
90.0927,67.6821
90.0938,67.6793
90.0943,67.6783
90.0943,67.6783
90.1098,67.6000
90.1098,67.6000
90.1103,67.5975
90.1094,67.5882
90.1094,67.4419
90.1283,67.3837
90.1384,67.3719
90.1719,67.3384
90.2264,67.3106
90.2419,67.3094
90.9882,67.3094
90.9975,67.3103
91.0000,67.3098
91.0000,67.3098
91.0782,67.2943
91.0800,67.2935
91.0819,67.2928
91.0821,67.2927
91.0821,67.2927
91.1378,67.2554
91.1967,67.2388
91.2541,67.2600
91.2881,67.3109
91.2918,67.3391
91.2637,69.3351
91.2440,69.3930
91.1940,69.4283
91.1328,69.4274
91.0838,69.3908
91.0713,69.3664
91.0523,69.3124
90.9718,69.2032
90.8626,69.1227
90.7346,69.0778
90.7065,69.0752
90.7019,69.0750
90.1000,69.0750
90.1000,70.8000
90.1000,70.8000
90.7019,70.8000
90.7065,70.7998
90.7346,70.7971
90.8626,70.7523
90.9718,70.6718
91.0523,70.5626
91.0550,70.5550
91.0921,70.5063
91.1507,70.4887
91.2084,70.5089
91.2433,70.5592
91.2470,70.5781
91.2515,70.6241
91.2515,70.6241
91.2517,70.6268
91.2523,70.6295
91.2626,70.6787
91.2626,70.6787
91.2629,70.6801
91.2705,70.7082
91.3199,70.7948
91.3656,70.8476
91.3984,70.8793
91.4867,70.9255
91.5473,70.9432
91.5538,70.9451
91.6258,70.9555
91.6258,70.9555
92.1829,70.9555
92.1855,70.9555
92.2398,70.9497
92.2424,70.9491
92.2447,70.9487
92.3051,70.9581
92.3485,71.0012
92.3595,71.0465
92.3595,72.0397
92.3655,72.0700
92.3711,72.0982
92.4154,72.1646
92.4516,72.1887
92.4818,72.2089
92.5403,72.2205
92.5403,72.2205
93.5797,72.2205
93.5797,72.2205
93.6382,72.2089
93.7046,72.1646
93.7489,72.0982
93.7605,72.0397
94.8995,72.0397
94.9055,72.0700
94.9111,72.0982
94.9554,72.1646
94.9916,72.1887
95.0218,72.2089
95.0803,72.2205
95.0803,72.2205
96.1197,72.2205
96.1197,72.2205
96.1782,72.2089
96.2446,72.1646
96.2889,72.0982
96.3005,72.0397
97.4395,72.0397
97.4511,72.0982
97.4954,72.1646
97.4955,72.1646
97.5334,72.2126
97.5395,72.2469
97.5395,72.4941
97.5387,72.5071
97.5343,72.5400
97.5550,72.6968
97.6155,72.8428
97.7117,72.9683
97.8080,73.0421
97.8372,73.0645
97.9832,73.1250
98.1400,73.1457
98.2968,73.1250
98.4428,73.0645
98.5683,72.9683
98.6645,72.8428
98.7250,72.6968
98.7457,72.5400
98.7413,72.5071
98.7405,72.4941
98.7405,72.2469
98.7594,72.1887
98.7845,72.1646
98.7846,72.1646
98.8289,72.0982
98.8405,72.0397
98.8405,69.0003
98.8289,68.9418
98.8142,68.9198
98.7846,68.8754
98.7182,68.8311
98.7182,68.8311
98.6597,68.8195
97.6203,68.8195
97.5910,68.8253
97.5618,68.8311
97.4954,68.8754
97.4511,68.9418
97.4511,68.9418
97.4511,68.9418
97.4395,69.0003
97.4395,72.0397
96.3005,72.0397
96.3005,69.0003
96.2889,68.9418
96.2742,68.9198
96.2446,68.8754
96.1782,68.8311
96.1782,68.8311
96.1197,68.8195
95.0803,68.8195
95.0510,68.8253
95.0218,68.8311
94.9554,68.8754
94.9111,68.9418
94.9111,68.9418
94.9111,68.9418
94.8995,69.0003
94.8995,72.0397
93.7605,72.0397
93.7605,71.0447
93.7794,70.9865
93.8289,70.9506
93.8736,70.9467
93.9172,70.9530
93.9345,70.9555
93.9345,70.9555
94.1734,70.9555
94.1760,70.9555
94.2303,70.9497
94.2818,70.9385
94.3082,70.9312
94.3948,70.8819
94.4476,70.8361
94.4793,70.8034
94.5255,70.7150
94.5451,70.6480
94.5555,70.5760
94.5555,66.9997
94.9000,66.9997
94.9116,67.0580
94.9558,67.1242
95.0220,67.1684
95.0803,67.1800
95.5000,67.1800
95.5000,67.1800
95.5000,65.8995
95.5189,65.8413
95.5684,65.8053
95.5990,65.8005
95.6010,65.8005
95.6592,65.8194
95.6952,65.8689
95.7000,65.8995
95.7000,67.1800
95.7000,67.1800
96.1197,67.1800
96.1780,67.1684
96.2442,67.1242
96.2884,67.0580
96.3000,66.9997
96.3000,65.5800
96.3000,65.5800
96.0245,65.5800
95.9663,65.5611
95.9303,65.5116
95.9255,65.4810
95.9255,65.4790
95.9444,65.4208
95.9939,65.3848
96.0245,65.3800
96.3000,65.3800
96.3000,65.3800
96.3000,64.1912
96.3189,64.1330
96.3684,64.0971
96.4296,64.0971
96.4690,64.1212
97.4105,65.0627
97.4383,65.1172
97.4395,65.1327
97.4395,66.9997
97.4511,67.0582
97.4954,67.1246
97.5398,67.1542
97.5618,67.1689
97.6203,67.1805
97.6203,67.1805
98.6597,67.1805
98.6597,67.1805
98.7182,67.1689
98.7846,67.1246
98.8289,67.0582
98.8405,66.9997
98.8405,63.9603
98.8289,63.9018
98.7910,63.8451
98.7846,63.8354
98.7182,63.7911
98.7182,63.7911
98.6597,63.7795
97.6203,63.7795
97.5910,63.7853
97.5618,63.7911
97.4954,63.8354
97.4511,63.9018
97.4407,63.9544
97.4108,64.0078
97.3552,64.0334
97.2952,64.0215
97.2736,64.0051
96.1845,62.9161
96.1567,62.8615
96.1555,62.8461
96.1555,58.6375
96.8750,58.6375
96.8750,58.9269
96.8752,58.9315
96.8779,58.9596
96.9227,59.0876
97.0032,59.1968
97.1124,59.2773
97.2404,59.3221
97.2685,59.3248
97.2731,59.3250
97.7000,59.3250
97.7000,59.3250
97.7000,58.6375
97.9000,58.6375
97.9000,59.3250
97.9000,59.3250
98.3269,59.3250
98.3315,59.3248
98.3596,59.3221
98.4876,59.2773
98.5968,59.1968
98.6773,59.0876
98.7221,58.9596
98.7248,58.9315
98.7250,58.9269
98.7250,58.6375
98.7250,58.6375
97.9000,58.6375
97.7000,58.6375
96.8750,58.6375
96.1555,58.6375
96.1555,58.4375
96.8750,58.4375
96.8750,58.4375
97.7000,58.4375
97.7000,58.4375
97.9000,58.4375
97.9000,58.4375
98.7250,58.4375
98.7250,58.4375
98.7250,58.1481
98.7248,58.1435
98.7221,58.1154
98.6773,57.9874
98.5968,57.8782
98.4876,57.7977
98.3596,57.7528
98.3315,57.7502
98.3269,57.7500
97.9000,57.7500
97.9000,57.7500
97.9000,58.4375
97.7000,58.4375
97.7000,57.7500
97.7000,57.7500
97.2731,57.7500
97.2685,57.7502
97.2404,57.7529
97.1124,57.7977
97.0032,57.8782
96.9227,57.9874
96.8778,58.1154
96.8752,58.1435
96.8750,58.1481
96.8750,58.4375
96.1555,58.4375
96.1555,55.1952
96.1744,55.1370
96.2239,55.1010
96.2851,55.1010
96.3245,55.1252
96.3435,55.1442
96.4486,55.1956
96.5167,55.2055
97.0567,55.2055
97.1149,55.2244
97.1267,55.2345
97.2705,55.3783
97.2983,55.4328
97.2995,55.4483
97.2995,55.5864
97.2806,55.6446
97.2332,55.6798
97.1121,55.7222
97.0028,55.8028
96.9222,55.9121
96.8774,56.0403
96.8747,56.0684
96.8747,56.0684
96.8745,56.0707
96.8745,56.8543
96.8747,56.8566
96.8747,56.8566
96.8774,56.8847
96.8774,56.8847
96.8774,56.8847
96.9222,57.0129
97.0028,57.1221
97.1121,57.2028
97.2403,57.2476
97.2707,57.2505
97.2730,57.2505
98.3270,57.2505
98.3293,57.2505
98.3597,57.2476
98.4879,57.2028
98.5971,57.1221
98.6778,57.0129
98.7226,56.8847
98.7255,56.8543
98.7255,56.0707
98.7226,56.0403
98.6778,55.9121
98.6381,55.8583
98.6187,55.8002
98.6372,55.7419
98.6864,55.7056
98.7177,55.7005
98.8322,55.7005
98.8904,55.7194
98.8925,55.7209
98.8972,55.7245
99.0432,55.7850
99.2000,55.8057
99.3568,55.7850
99.5028,55.7245
99.6283,55.6283
99.7245,55.5028
99.7850,55.3568
99.8057,55.2000
99.7850,55.0432
99.7245,54.8972
99.7021,54.8680
99.6283,54.7717
99.5028,54.6755
99.3568,54.6150
99.2000,54.5943
99.0432,54.6150
98.8972,54.6755
98.8972,54.6755
98.8972,54.6755
98.8925,54.6790
98.8348,54.6995
98.8322,54.6995
98.6495,54.6995
98.5913,54.6806
98.5553,54.6311
98.5505,54.6005
98.5505,54.5217
98.5505,54.5217
98.5406,54.4536
98.4892,54.3485
98.4065,54.2658
98.3014,54.2144
98.2333,54.2045
96.5167,54.2045
96.4656,54.2119
96.4486,54.2144
96.3435,54.2658
96.3245,54.2848
96.2700,54.3126
96.2096,54.3030
96.1663,54.2598
96.1555,54.2148
96.1555,53.9252
96.1744,53.8670
96.2239,53.8310
96.2851,53.8310
96.3245,53.8552
96.3435,53.8742
96.4486,53.9256
96.5167,53.9355
96.5167,53.9355
98.2333,53.9355
98.2333,53.9355
98.3014,53.9256
98.4065,53.8742
98.4762,53.8045
98.5307,53.7767
98.5462,53.7755
99.0005,53.7755
99.0587,53.7944
99.0947,53.8439
99.0995,53.8745
99.0995,53.9697
99.1111,54.0282
99.1554,54.0946
99.1998,54.1242
99.2218,54.1389
99.2803,54.1505
99.2803,54.1505
100.3197,54.1505
100.3197,54.1505
100.3782,54.1389
100.4446,54.0946
100.4889,54.0282
100.5005,53.9697
100.5005,52.9303
100.4889,52.8718
100.4742,52.8498
100.4446,52.8054
100.3782,52.7611
100.3782,52.7611
100.3197,52.7495
99.2803,52.7495
99.2510,52.7553
99.2218,52.7611
99.1554,52.8054
99.1111,52.8718
99.0995,52.9303
99.0995,53.0255
99.0806,53.0837
99.0311,53.1197
99.0005,53.1245
98.5735,53.1245
98.5153,53.1056
98.5017,53.0894
98.5009,53.0902
98.4892,53.0785
98.4892,53.0785
98.4065,52.9958
98.3014,52.9444
98.2333,52.9345
96.5167,52.9345
96.4656,52.9419
96.4486,52.9444
96.3435,52.9958
96.3435,52.9958
96.3435,52.9958
96.3245,53.0148
96.2700,53.0426
96.2096,53.0330
96.1663,52.9898
96.1555,52.9448
96.1555,52.6552
96.1744,52.5970
96.2239,52.5610
96.2851,52.5610
96.3245,52.5852
96.3435,52.6042
96.4486,52.6556
96.5167,52.6655
96.5167,52.6655
98.2333,52.6655
98.2333,52.6655
98.3014,52.6556
98.4065,52.6042
98.4892,52.5215
98.5406,52.4164
98.5505,52.3483
98.5505,51.9817
98.5406,51.9136
98.5095,51.8500
99.1000,51.8500
99.1000,52.2697
99.1116,52.3280
99.1558,52.3942
99.2220,52.4384
99.2803,52.4500
99.7000,52.4500
99.7000,52.4500
99.7000,51.8500
99.7000,51.8500
99.9000,51.8500
99.9000,52.4500
99.9000,52.4500
100.3197,52.4500
100.3780,52.4384
100.4442,52.3942
100.4884,52.3280
100.5000,52.2697
100.5000,51.8500
100.5000,51.8500
99.9000,51.8500
99.7000,51.8500
99.1000,51.8500
99.1000,51.8500
98.5095,51.8500
98.4892,51.8085
98.4065,51.7258
98.3014,51.6744
98.2333,51.6645
96.5167,51.6645
96.4656,51.6719
96.4486,51.6744
96.3435,51.7258
96.3435,51.7258
96.2608,51.8085
96.2557,51.8190
96.2131,51.8630
96.1667,51.8745
95.8245,51.8745
95.7663,51.8556
95.7303,51.8061
95.7255,51.7755
95.7255,51.6758
95.7339,51.6500
99.1000,51.6500
99.1000,51.6500
99.7000,51.6500
99.7000,51.6500
99.9000,51.6500
99.9000,51.6500
100.5000,51.6500
100.5000,51.6500
100.5000,51.2303
100.4884,51.1720
100.4442,51.1058
100.3780,51.0616
100.3197,51.0500
99.9000,51.0500
99.9000,51.0500
99.9000,51.6500
99.7000,51.6500
99.7000,51.6500
99.7000,51.0500
99.7000,51.0500
99.2803,51.0500
99.2220,51.0616
99.1558,51.1058
99.1116,51.1720
99.1000,51.2303
99.1000,51.6500
95.7339,51.6500
95.7444,51.6176
95.7545,51.6058
96.1058,51.2545
96.1603,51.2267
96.1758,51.2255
96.1938,51.2255
96.2520,51.2444
96.2638,51.2545
96.3435,51.3342
96.4486,51.3856
96.5167,51.3955
96.5167,51.3955
98.2333,51.3955
98.2333,51.3955
98.3014,51.3856
98.4065,51.3342
98.4892,51.2515
98.5406,51.1464
98.5505,51.0783
98.5505,50.7117
98.5406,50.6436
98.4892,50.5385
98.4065,50.4558
98.3014,50.4044
98.2333,50.3945
96.5167,50.3945
96.4656,50.4019
96.4486,50.4044
96.3435,50.4558
96.3435,50.4558
96.3435,50.4558
96.2608,50.5385
96.2608,50.5385
96.2538,50.5455
96.1993,50.5733
96.1838,50.5745
96.0185,50.5745
96.0099,50.5741
96.0080,50.5740
95.9712,50.5707
95.9337,50.5808
95.9252,50.5827
95.8870,50.5894
95.8856,50.5902
95.8618,50.6001
95.8603,50.6004
95.8285,50.6227
95.8212,50.6274
95.7875,50.6468
95.7626,50.6766
95.7567,50.6829
95.1829,51.2567
95.1766,51.2626
95.1468,51.2875
95.1274,51.3212
95.1227,51.3285
95.1004,51.3603
95.1001,51.3618
95.0902,51.3856
95.0894,51.3870
95.0827,51.4252
95.0808,51.4336
95.0707,51.4712
95.0741,51.5099
95.0745,51.5185
95.0745,63.1815
95.0741,63.1901
95.0707,63.2288
95.0808,63.2663
95.0827,63.2748
95.0894,63.3130
95.0894,63.3130
95.0902,63.3144
95.1001,63.3382
95.1004,63.3397
95.1227,63.3715
95.1274,63.3788
95.1468,63.4125
95.1468,63.4125
95.1468,63.4125
95.1766,63.4374
95.1829,63.4433
95.2455,63.5058
95.2733,63.5603
95.2745,63.5758
95.2745,63.6810
95.2556,63.7392
95.2061,63.7752
95.1755,63.7800
95.0803,63.7800
95.0220,63.7916
94.9558,63.8358
94.9116,63.9020
94.9000,63.9603
94.9000,65.3800
94.9000,65.3800
95.1755,65.3800
95.2337,65.3989
95.2697,65.4484
95.2745,65.4790
95.2745,65.4810
95.2556,65.5392
95.2061,65.5752
95.1755,65.5800
94.9000,65.5800
94.9000,66.9997
94.5555,66.9997
94.5555,60.8240
94.5497,60.7697
94.5385,60.7182
94.5312,60.6918
94.4819,60.6052
94.4361,60.5524
94.4034,60.5207
94.4034,60.5207
94.3555,60.4957
94.3127,60.4520
94.3038,60.3914
94.3079,60.3753
94.3221,60.3346
94.3248,60.3065
94.3250,60.3019
94.3250,59.7000
94.3250,59.7000
92.6000,59.7000
92.6000,60.3019
92.6002,60.3065
92.6030,60.3363
92.5896,60.3960
92.5437,60.4364
92.5044,60.4445
92.0545,60.4445
91.9963,60.4256
91.9603,60.3761
91.9555,60.3455
91.9555,59.5000
92.6000,59.5000
92.6000,59.5000
93.3625,59.5000
93.3625,59.5000
93.3625,58.5000
93.3625,58.5000
93.5625,58.5000
93.5625,59.5000
93.5625,59.5000
94.3250,59.5000
94.3250,59.5000
94.3250,58.8981
94.3248,58.8935
94.3221,58.8654
94.2773,58.7374
94.1968,58.6282
94.0876,58.5477
93.9596,58.5028
93.9315,58.5002
93.9269,58.5000
93.5625,58.5000
93.3625,58.5000
92.9981,58.5000
92.9935,58.5002
92.9654,58.5029
92.8374,58.5477
92.7282,58.6282
92.6477,58.7374
92.6028,58.8654
92.6002,58.8935
92.6000,58.8981
92.6000,59.5000
91.9555,59.5000
91.9555,58.3266
91.9555,58.3266
91.9555,58.3240
91.9497,58.2697
91.9385,58.2182
91.9312,58.1918
91.8819,58.1052
91.8361,58.0524
91.8034,58.0207
91.7150,57.9745
91.7150,57.9745
91.6480,57.9548
91.5760,57.9445
91.5760,57.9445
89.0240,57.9445
89.0214,57.9448
89.0214,57.9448
88.9723,57.9501
88.9723,57.9501
88.9697,57.9503
88.9671,57.9509
88.9671,57.9509
88.9195,57.9613
88.9194,57.9613
88.9182,57.9615
88.9169,57.9619
88.9169,57.9619
88.8974,57.9672
88.8918,57.9688
88.8918,57.9688
88.8918,57.9688
88.8052,58.0181
88.7540,58.0624
88.7540,58.0624
88.7524,58.0639
88.7508,58.0654
88.7508,58.0655
88.7207,58.0966
88.6745,58.1850
88.6548,58.2520
88.6519,58.2723
88.6445,58.3240
88.6445,59.2195
88.6445,59.9805
88.6445,63.4760
88.6448,63.4786
88.6448,63.4786
88.6501,63.5277
88.6503,63.5303
88.6509,63.5329
88.6509,63.5329
88.6613,63.5805
88.6613,63.5805
88.6615,63.5818
88.6619,63.5831
88.6619,63.5831
88.6688,63.6082
88.7102,63.6810
88.7181,63.6948
88.7639,63.7476
88.7966,63.7793
88.8850,63.8255
88.9520,63.8451
88.9520,63.8451
89.0240,63.8555
89.0240,63.8555
91.2405,63.8555
91.2987,63.8744
91.3346,63.9239
91.3395,63.9559
91.3252,64.9674
91.3252,64.9674
91.3252,64.9702
91.3254,64.9729
91.3254,64.9729
91.3304,65.0236
91.3304,65.0236
91.3306,65.0263
91.3312,65.0290
91.3415,65.0782
91.3415,65.0782
91.3418,65.0796
91.3422,65.0809
91.3422,65.0809
91.3494,65.1077
91.3593,65.1251
91.3717,65.1851
91.3492,65.2378
91.3376,65.2516
91.3317,65.2579
90.7281,65.8616
90.6736,65.8894
90.6581,65.8906
90.2084,65.8906
90.1502,65.8717
90.1143,65.8222
90.1094,65.7916
90.1094,65.6118
90.1103,65.6025
90.1098,65.6000
90.1098,65.6000
90.0943,65.5218
90.0935,65.5200
90.0928,65.5181
90.0927,65.5179
90.0927,65.5179
90.0484,65.4516
90.0484,65.4516
90.0484,65.4516
89.9821,65.4073
89.9821,65.4073
89.9821,65.4073
89.9792,65.4061
89.9782,65.4057
89.9782,65.4057
89.9782,65.4057
89.8975,65.3897
89.8882,65.3906
88.9118,65.3906
88.9026,65.3897
88.8218,65.4057
88.8208,65.4061
88.8179,65.4073
88.8179,65.4073
88.7516,65.4516
88.7073,65.5179
88.7057,65.5218
88.6897,65.6025
88.6906,65.6118
88.6906,67.5882
88.6897,67.5975
88.7057,67.6783
88.7061,67.6793
88.7073,67.6821
88.7424,67.7346
88.7590,67.7935
88.7378,67.8509
88.7301,67.8596
88.4829,68.1067
88.4766,68.1126
88.4468,68.1375
88.4274,68.1712
88.4227,68.1785
88.4004,68.2103
88.4001,68.2118
88.3902,68.2356
88.3894,68.2370
88.3827,68.2752
88.3808,68.2836
88.3707,68.3212
88.3741,68.3599
88.3745,68.3685
88.3745,71.5242
88.3556,71.5824
88.3455,71.5942
88.1907,71.7490
88.0440,71.8957
87.9895,71.9234
87.9291,71.9139
87.8858,71.8706
87.8827,71.8577
87.8750,71.8500
87.3240,71.8500
87.2658,71.8311
87.2298,71.7816
87.2250,71.7510
87.2250,71.7490
87.2439,71.6908
87.2934,71.6548
87.3240,71.6500
87.8750,71.6500
87.8750,71.6500
87.8750,71.6053
87.8596,71.5276
87.8611,71.5273
87.8525,71.4966
87.8602,71.4726
87.8600,71.4725
87.8639,71.4532
87.8755,71.3947
87.8755,71.1053
87.8639,71.0468
87.8236,70.9865
87.8196,70.9804
87.7532,70.9361
87.7532,70.9361
87.7450,70.9345
87.6916,70.9046
87.6660,70.8490
87.6653,70.8374
87.6653,68.1583
87.6657,68.1497
87.6662,68.1433
87.6691,68.1110
87.6590,68.0735
87.6571,68.0650
87.6504,68.0268
87.6496,68.0254
87.6397,68.0016
87.6394,68.0001
87.6171,67.9683
87.6124,67.9610
87.6019,67.9428
87.5892,67.8830
87.6141,67.8271
87.6671,67.7965
87.6682,67.7963
87.6782,67.7943
87.6800,67.7935
87.6819,67.7928
87.6821,67.7927
87.6821,67.7927
87.7484,67.7484
87.7927,67.6821
87.7938,67.6793
87.7943,67.6783
87.7943,67.6783
87.8098,67.6000
87.8098,67.6000
87.8103,67.5975
87.8094,67.5882
87.8094,65.6118
87.8103,65.6025
87.8098,65.6000
87.8098,65.6000
87.7943,65.5218
87.7935,65.5200
87.7928,65.5181
87.7927,65.5179
87.7927,65.5179
87.7484,65.4516
87.7484,65.4516
87.7484,65.4516
87.6821,65.4073
87.6821,65.4073
87.6821,65.4073
87.6792,65.4061
87.6782,65.4057
87.6782,65.4057
87.6782,65.4057
87.5975,65.3897
87.5882,65.3906
86.6118,65.3906
86.6026,65.3897
86.5218,65.4057
86.5208,65.4061
86.5179,65.4073
86.5179,65.4073
86.4516,65.4516
86.4073,65.5179
86.4057,65.5218
86.3897,65.6025
86.3906,65.6118
86.3906,65.7916
86.3717,65.8498
86.3222,65.8857
86.2916,65.8906
85.5118,65.8906
85.5026,65.8897
85.4218,65.9057
85.4208,65.9061
85.4179,65.9073
85.4179,65.9073
85.3516,65.9516
85.3073,66.0179
85.3057,66.0218
85.2897,66.1025
85.2906,66.1118
85.2906,67.0882
85.2897,67.0975
85.3057,67.1783
85.3057,67.1783
85.3062,67.1793
85.3073,67.1821
85.3073,67.1821
85.3516,67.2484
85.4179,67.2927
85.4218,67.2943
85.5000,67.3098
85.5000,67.3098
85.5025,67.3103
85.5118,67.3094
86.2916,67.3094
86.3498,67.3283
86.3857,67.3778
86.3906,67.4084
86.3906,67.5882
86.3897,67.5975
86.4057,67.6783
86.4061,67.6793
86.4061,67.6793
86.4062,67.6793
86.4073,67.6821
86.4073,67.6821
86.4516,67.7484
86.5179,67.7927
86.5218,67.7943
86.6000,67.8098
86.6000,67.8098
86.6025,67.8103
86.6118,67.8094
86.6731,67.8094
86.7313,67.8283
86.7673,67.8778
86.7718,67.9171
86.7707,67.9288
86.7808,67.9663
86.7827,67.9748
86.7894,68.0130
86.7902,68.0144
86.8001,68.0382
86.8004,68.0397
86.8227,68.0715
86.8274,68.0788
86.8460,68.1110
86.8468,68.1125
86.8766,68.1374
86.8829,68.1433
86.9853,68.2456
87.0131,68.3001
87.0143,68.3156
87.0143,70.6809
86.9954,70.7391
86.9459,70.7751
86.8847,70.7751
86.8603,70.7632
86.7830,70.7116
86.7247,70.7000
86.5000,70.7000
86.5000,70.7000
86.5000,72.0010
86.4811,72.0592
86.4316,72.0952
86.4010,72.1000
86.3990,72.1000
86.3408,72.0811
86.3048,72.0316
86.3000,72.0010
86.3000,70.7000
86.3000,70.7000
86.0753,70.7000
86.0170,70.7116
85.9397,70.7632
85.8808,70.7798
85.8234,70.7587
85.7894,70.7078
85.7857,70.6809
85.7857,70.3987
85.7861,70.3901
85.7895,70.3514
85.7794,70.3139
85.7775,70.3054
85.7767,70.3006
85.7708,70.2672
85.7700,70.2658
85.7601,70.2420
85.7598,70.2405
85.7375,70.2087
85.7328,70.2014
85.7134,70.1677
85.6836,70.1428
85.6773,70.1369
84.8545,69.3142
84.8267,69.2597
84.8255,69.2442
84.8255,68.7707
84.8226,68.7403
84.7778,68.6121
84.6971,68.5028
84.5879,68.4222
84.4597,68.3774
84.4597,68.3774
84.4597,68.3774
84.4316,68.3747
84.4316,68.3747
84.4293,68.3745
83.6457,68.3745
83.6434,68.3747
83.6434,68.3747
83.6153,68.3774
83.6153,68.3774
83.6153,68.3774
83.4871,68.4222
83.4871,68.4222
83.4871,68.4222
83.4865,68.4227
83.3778,68.5028
83.2972,68.6121
83.2524,68.7403
83.2524,68.7403
83.2497,68.7684
83.2497,68.7684
83.2495,68.7707
83.2495,69.8293
83.2497,69.8316
83.2497,69.8316
83.2524,69.8597
83.2524,69.8597
83.2524,69.8597
83.2972,69.9879
83.3778,70.0971
83.4871,70.1778
83.6153,70.2226
83.6457,70.2255
83.6480,70.2255
84.4270,70.2255
84.4293,70.2255
84.4597,70.2226
84.5879,70.1778
84.6399,70.1394
84.6980,70.1200
84.7563,70.1385
84.7687,70.1490
85.1057,70.4860
85.1335,70.5405
85.1347,70.5560
85.1347,70.8374
85.1158,70.8956
85.0663,70.9316
85.0550,70.9345
85.0506,70.9354
85.0468,70.9361
84.9804,70.9804
84.9361,71.0468
84.9245,71.1053
84.9245,71.3215
84.9056,71.3797
84.8561,71.4157
84.8255,71.4205
84.7995,71.4205
84.7413,71.4016
84.7053,71.3521
84.7005,71.3215
84.7005,70.6303
84.6998,70.6268
84.6889,70.5718
84.6510,70.5150
84.6446,70.5054
84.5782,70.4611
84.5782,70.4611
84.5197,70.4495
83.4803,70.4495
83.4510,70.4553
83.4218,70.4611
83.3554,70.5054
83.3111,70.5718
83.3003,70.6261
83.2704,70.6795
83.2149,70.7051
83.1549,70.6931
83.1389,70.6793
83.1386,70.6797
83.0028,70.5755
82.8568,70.5150
82.7206,70.4970
82.7000,70.4943
82.7000,70.4943
82.5432,70.5150
82.3972,70.5755
82.2717,70.6717
82.1755,70.7972
82.1150,70.9432
82.0943,71.1000
82.1150,71.2568
82.1755,71.4028
82.2717,71.5283
82.3181,71.5639
82.3972,71.6245
82.5432,71.6850
82.7000,71.7057
82.8568,71.6850
83.0028,71.6245
83.0819,71.5639
83.1386,71.5203
83.1410,71.5234
83.1724,71.5019
83.2335,71.5035
83.2821,71.5407
83.2995,71.5968
83.2995,71.6697
83.3066,71.7057
83.3111,71.7282
83.3554,71.7946
83.3831,71.8130
83.4218,71.8389
83.4803,71.8505
84.1992,71.8505
84.2574,71.8694
84.2692,71.8795
84.3197,71.9300
84.3474,71.9845
84.3379,72.0449
84.3197,72.0700
84.2692,72.1205
84.2147,72.1483
84.1992,72.1495
83.4803,72.1495
83.4510,72.1553
83.4218,72.1611
83.3554,72.2054
83.3111,72.2718
83.3111,72.2718
83.3111,72.2718
83.2995,72.3303
83.2995,73.3697
83.3055,73.3999
83.3111,73.4282
83.3554,73.4946
83.3941,73.5204
83.4218,73.5389
83.4803,73.5505
83.4803,73.5505
84.5197,73.5505
84.5197,73.5505
84.5782,73.5389
84.6446,73.4946
84.6889,73.4282
84.7005,73.3697
84.7005,72.6785
84.7194,72.6203
84.7689,72.5843
84.7995,72.5795
84.8255,72.5795
84.8837,72.5984
84.9197,72.6479
84.9245,72.6785
84.9245,72.8947
84.9361,72.9532
84.9804,73.0196
85.0192,73.0454
85.0468,73.0639
85.0550,73.0655
85.1084,73.0954
85.1340,73.1510
85.1347,73.1626
85.1347,73.2417
85.1343,73.2503
85.1309,73.2890
85.1410,73.3265
85.1429,73.3350
85.1490,73.3697
85.1496,73.3732
85.1504,73.3746
85.1603,73.3984
85.1606,73.3999
85.1829,73.4317
85.1876,73.4390
85.2070,73.4727
85.2070,73.4727
85.2070,73.4727
85.2368,73.4976
85.2431,73.5035
85.3567,73.6171
85.3626,73.6234
85.3875,73.6532
85.4212,73.6726
85.4285,73.6773
85.4603,73.6996
85.4618,73.6999
85.4618,73.6999
85.4856,73.7098
85.4870,73.7106
85.5207,73.7165
85.5252,73.7173
85.5336,73.7192
85.5712,73.7293
85.6099,73.7259
85.6185,73.7255
87.1815,73.7255
87.1901,73.7259
87.2034,73.7270
87.2288,73.7293
87.2288,73.7293
87.2288,73.7293
87.2664,73.7192
87.2748,73.7173
87.3130,73.7106
87.3143,73.7098
87.3382,73.6999
87.3397,73.6996
87.3715,73.6773
87.3788,73.6726
87.4125,73.6532
87.4374,73.6234
87.4433,73.6171
87.5569,73.5035
87.5632,73.4976
87.5930,73.4727
87.6124,73.4390
87.6171,73.4317
87.6394,73.3999
87.6397,73.3984
87.6496,73.3745
87.6504,73.3732
87.6571,73.3350
87.6590,73.3266
87.6691,73.2890
87.6662,73.2568
87.6657,73.2503
87.6653,73.2417
87.6653,73.1865
87.6842,73.1283
87.7337,73.0923
87.7643,73.0875
88.8005,73.0875
88.8587,73.1064
88.8947,73.1559
88.8995,73.1865
88.8995,73.5293
88.8997,73.5316
88.8997,73.5316
88.9024,73.5597
88.9024,73.5597
88.9024,73.5597
88.9472,73.6879
89.0279,73.7972
89.0600,73.8208
89.0955,73.8706
89.0951,73.9318
89.0588,73.9810
89.0012,73.9995
67.0043,73.9995
66.9957,73.9991
66.9546,73.9955
66.8481,73.9850
66.8262,73.9829
66.8103,73.9800
66.7432,73.9620
66.7401,73.9611
66.6467,73.9328
66.6336,73.9278
66.5655,73.8960
66.5607,73.8936
66.4796,73.8503
66.4695,73.8441
66.4063,73.7998
66.4003,73.7953
66.3306,73.7381
66.3234,73.7315
66.2685,73.6766
66.2619,73.6694
66.2047,73.5997
66.2002,73.5937
66.1559,73.5305
66.1497,73.5204
66.1064,73.4393
66.1040,73.4345
66.0722,73.3664
66.0672,73.3533
66.0388,73.2598
66.0380,73.2569
66.0200,73.1897
66.0171,73.1738
66.0045,73.0455
66.0009,73.0043
66.0005,72.9957
66.0005,69.4000
81.1750,69.4000
81.1750,69.8269
81.1752,69.8315
81.1779,69.8596
81.2227,69.9876
81.3032,70.0968
81.4124,70.1773
81.5404,70.2221
81.5685,70.2248
81.5731,70.2250
81.8625,70.2250
81.8625,70.2250
82.0625,70.2250
82.0625,70.2250
82.3519,70.2250
82.3565,70.2248
82.3846,70.2221
82.5126,70.1773
82.6218,70.0968
82.7023,69.9876
82.7471,69.8596
82.7498,69.8315
82.7500,69.8269
82.7500,69.4000
82.7500,69.4000
82.0625,69.4000
82.0625,69.4000
82.0625,70.2250
81.8625,70.2250
81.8625,69.4000
81.8625,69.4000
81.1750,69.4000
66.0005,69.4000
66.0005,69.2000
81.1750,69.2000
81.1750,69.2000
81.8625,69.2000
81.8625,69.2000
82.0625,69.2000
82.0625,69.2000
82.7500,69.2000
82.7500,69.2000
82.7500,68.7731
82.7498,68.7685
82.7471,68.7404
82.7023,68.6124
82.6218,68.5032
82.5126,68.4227
82.3846,68.3778
82.3565,68.3752
82.3519,68.3750
82.0625,68.3750
82.0625,68.3750
82.0625,69.2000
81.8625,69.2000
81.8625,68.3750
81.8625,68.3750
81.5731,68.3750
81.5685,68.3752
81.5404,68.3779
81.4124,68.4227
81.3032,68.5032
81.2227,68.6124
81.1778,68.7404
81.1752,68.7685
81.1750,68.7731
81.1750,69.2000
66.0005,69.2000
66.0005,60.0000
73.8945,60.0000
73.8946,60.0020
73.9134,60.4684
73.9143,60.4913
73.9146,60.4933
73.9734,60.9774
73.9734,60.9774
73.9736,60.9794
74.0720,61.4611
74.0725,61.4630
74.0725,61.4631
74.2082,61.9315
74.2088,61.9334
74.3831,62.3931
74.3840,62.3949
74.3840,62.3949
74.5930,62.8356
74.5930,62.8356
74.5939,62.8373
74.5949,62.8391
74.5949,62.8391
74.8199,63.2288
74.8397,63.2632
74.8742,63.3130
75.1166,63.6642
75.1190,63.6678
75.1203,63.6693
75.1203,63.6693
75.3579,63.9603
75.4300,64.0487
75.7706,64.4033
76.1386,64.7293
76.1402,64.7305
76.1402,64.7305
76.5301,65.0235
76.5301,65.0235
76.5317,65.0247
76.9473,65.2875
77.3826,65.5160
77.8350,65.7087
78.3014,65.8644
78.7788,65.9821
79.2641,66.0609
79.7542,66.1005
79.7562,66.1005
80.2438,66.1005
80.2458,66.1005
80.7359,66.0609
81.2212,65.9821
81.6986,65.8644
82.1650,65.7087
82.6174,65.5160
83.0527,65.2875
83.4683,65.0247
83.8614,64.7293
84.2294,64.4033
84.5700,64.0487
84.8810,63.6678
85.1603,63.2632
85.4061,62.8373
85.6169,62.3931
85.7912,61.9334
85.9280,61.4611
86.0264,60.9794
86.0857,60.4913
86.1055,60.0000
86.0857,59.5087
86.0264,59.0206
85.9280,58.5389
85.7912,58.0666
85.6169,57.6069
85.4252,57.2028
85.4070,57.1644
85.4070,57.1644
85.4061,57.1627
85.3827,57.1221
85.1613,56.7386
85.1613,56.7386
85.1603,56.7368
84.8810,56.3322
84.7998,56.2328
84.5713,55.9529
84.5713,55.9529
84.5700,55.9513
84.2294,55.5967
84.0619,55.4483
83.8629,55.2720
83.8628,55.2720
83.8614,55.2707
83.8598,55.2695
83.8598,55.2695
83.4699,54.9765
83.4699,54.9765
83.4683,54.9753
83.4384,54.9564
83.3306,54.8883
91.2495,54.8883
91.2594,54.9564
91.3108,55.0615
91.3935,55.1442
91.4986,55.1956
91.5667,55.2055
91.7238,55.2055
91.7820,55.2244
91.8180,55.2739
91.8180,55.3351
91.8153,55.3424
91.8150,55.3432
91.7943,55.5000
91.8150,55.6568
91.8755,55.8028
91.9717,55.9283
92.0038,55.9529
92.0972,56.0245
92.2432,56.0850
92.4000,56.1057
92.5568,56.0850
92.7028,56.0245
92.8283,55.9283
92.9245,55.8028
92.9850,55.6568
93.0057,55.5000
92.9850,55.3432
92.9847,55.3424
92.9843,55.3378
92.9833,55.3303
92.9837,55.3303
92.9799,55.2814
93.0119,55.2292
93.0684,55.2058
93.0762,55.2055
93.2833,55.2055
93.2833,55.2055
93.3514,55.1956
93.4565,55.1442
93.5392,55.0615
93.5906,54.9564
93.6005,54.8883
93.6005,54.5217
93.5906,54.4536
93.5392,54.3485
93.4565,54.2658
93.3514,54.2144
93.2833,54.2045
91.5667,54.2045
91.5156,54.2119
91.4986,54.2144
91.3935,54.2658
91.3108,54.3485
91.2594,54.4536
91.2594,54.4536
91.2495,54.5217
91.2495,54.8883
83.3306,54.8883
83.0544,54.7136
83.0544,54.7136
83.0527,54.7125
83.0510,54.7116
83.0510,54.7116
82.6191,54.4850
82.6191,54.4850
82.6174,54.4840
82.6155,54.4832
82.6155,54.4832
82.1669,54.2921
82.1668,54.2921
82.1650,54.2913
82.1631,54.2907
82.1631,54.2907
81.7005,54.1362
81.7005,54.1362
81.6986,54.1356
81.6967,54.1351
81.6967,54.1351
81.2232,54.0184
81.2232,54.0184
81.2212,54.0179
81.2193,54.0176
81.2193,54.0176
80.7379,53.9394
80.7379,53.9394
80.7359,53.9391
80.7340,53.9389
80.7340,53.9389
80.2478,53.8997
80.2478,53.8997
80.2458,53.8995
79.7542,53.8995
79.7522,53.8997
79.7522,53.8997
79.2660,53.9389
79.2660,53.9389
79.2641,53.9391
79.2621,53.9394
79.2621,53.9394
78.7807,54.0176
78.7807,54.0176
78.7788,54.0179
78.7768,54.0184
78.7768,54.0184
78.3033,54.1351
78.3033,54.1351
78.3014,54.1356
78.2995,54.1362
78.2995,54.1362
77.8369,54.2907
77.8369,54.2907
77.8350,54.2913
77.8332,54.2921
77.8331,54.2921
77.3845,54.4832
77.3845,54.4832
77.3826,54.4840
77.3809,54.4850
77.3809,54.4850
76.9490,54.7116
76.9490,54.7116
76.9473,54.7125
76.9456,54.7136
76.9456,54.7136
76.5334,54.9742
76.5334,54.9742
76.5317,54.9753
76.5301,54.9765
76.5301,54.9765
76.1402,55.2695
76.1402,55.2695
76.1386,55.2707
76.1372,55.2720
76.1371,55.2720
75.7721,55.5954
75.7721,55.5954
75.7706,55.5967
75.7692,55.5982
75.7692,55.5982
75.4314,55.9499
75.4314,55.9499
75.4300,55.9513
75.4288,55.9529
75.4287,55.9529
75.1203,56.3306
75.1203,56.3307
75.1190,56.3322
75.1179,56.3338
75.1179,56.3338
74.8409,56.7352
74.8409,56.7352
74.8397,56.7368
74.8387,56.7386
74.8387,56.7386
74.5949,57.1609
74.5949,57.1609
74.5939,57.1627
74.5931,57.1644
74.5930,57.1644
74.3840,57.6051
74.3840,57.6051
74.3831,57.6069
74.3824,57.6087
74.3824,57.6087
74.2095,58.0647
74.2095,58.0648
74.2088,58.0666
74.2082,58.0685
74.2082,58.0685
74.0725,58.5369
74.0725,58.5370
74.0720,58.5389
74.0716,58.5408
74.0716,58.5408
73.9740,59.0186
73.9736,59.0206
73.9734,59.0226
73.9734,59.0226
73.9495,59.2195
73.9143,59.5087
73.9143,59.5107
73.9143,59.5107
73.9066,59.7000
73.8945,60.0000
66.0005,60.0000
66.0005,53.4000
90.1943,53.4000
90.2150,53.5568
90.2755,53.7028
90.3717,53.8283
90.4645,53.8995
90.4972,53.9245
90.6432,53.9850
90.8000,54.0057
90.9568,53.9850
91.1028,53.9245
91.1932,53.8552
91.2269,53.8293
91.2846,53.8089
91.3433,53.8263
91.3572,53.8379
91.3935,53.8742
91.4986,53.9256
91.5667,53.9355
91.5667,53.9355
93.2833,53.9355
93.2833,53.9355
93.3514,53.9256
93.4565,53.8742
93.5392,53.7915
93.5906,53.6864
93.6005,53.6183
93.6005,53.2517
93.5906,53.1836
93.5392,53.0785
93.4565,52.9958
93.3514,52.9444
93.2833,52.9345
91.5667,52.9345
91.5156,52.9419
91.4986,52.9444
91.3935,52.9958
91.3903,52.9990
91.3358,53.0268
91.2754,53.0172
91.2418,52.9893
91.2283,52.9717
91.1932,52.9448
91.1069,52.8785
91.0722,52.8281
91.0738,52.7670
91.1069,52.7215
91.1798,52.6655
91.2283,52.6283
91.2418,52.6107
91.2922,52.5761
91.3533,52.5777
91.3903,52.6010
91.3935,52.6042
91.4986,52.6556
91.5667,52.6655
91.5667,52.6655
93.2833,52.6655
93.2833,52.6655
93.3514,52.6556
93.4565,52.6042
93.5392,52.5215
93.5906,52.4164
93.6005,52.3483
93.6005,51.9817
93.5906,51.9136
93.5392,51.8085
93.4565,51.7258
93.3514,51.6744
93.2833,51.6645
91.5667,51.6645
91.5156,51.6719
91.4986,51.6744
91.3935,51.7258
91.3572,51.7621
91.3027,51.7899
91.2422,51.7803
91.2269,51.7707
91.1612,51.7203
91.1028,51.6755
91.1028,51.6755
90.9568,51.6150
90.8000,51.5943
90.6432,51.6150
90.4972,51.6755
90.3717,51.7717
90.2755,51.8972
90.2150,52.0432
90.1943,52.2000
90.2150,52.3568
90.2755,52.5028
90.3717,52.6283
90.4931,52.7215
90.5278,52.7719
90.5262,52.8330
90.4931,52.8785
90.3717,52.9717
90.2755,53.0972
90.2150,53.2432
90.1943,53.4000
66.0005,53.4000
66.0005,50.9950
91.2500,50.9950
91.2500,51.0782
91.2599,51.1462
91.3112,51.2512
91.3938,51.3338
91.4988,51.3851
91.5668,51.3950
92.3250,51.3950
92.3250,51.3950
92.5250,51.3950
92.5250,51.3950
93.2832,51.3950
93.3512,51.3851
93.4562,51.3338
93.5388,51.2512
93.5901,51.1462
93.6000,51.0782
93.6000,50.9950
93.6000,50.9950
92.5250,50.9950
92.5250,50.9950
92.5250,51.3950
92.3250,51.3950
92.3250,51.3950
92.3250,50.9950
91.2500,50.9950
66.0005,50.9950
66.0005,50.7950
91.2500,50.7950
91.2500,50.7950
92.3250,50.7950
92.3250,50.3950
92.3250,50.3950
92.5250,50.3950
92.5250,50.7950
92.5250,50.7950
93.6000,50.7950
93.6000,50.7950
93.6000,50.7118
93.5901,50.6438
93.5388,50.5388
93.4562,50.4562
93.3512,50.4049
93.2832,50.3950
92.5250,50.3950
92.3250,50.3950
91.5668,50.3950
91.4988,50.4049
91.3938,50.4562
91.3112,50.5388
91.2599,50.6437
91.2500,50.7118
91.2500,50.7950
66.0005,50.7950
66.0005,47.0043
66.0009,46.9957
66.0045,46.9546
66.0171,46.8262
66.0200,46.8103
66.0380,46.7431
66.0388,46.7402
66.0672,46.6467
66.0722,46.6336
66.1040,46.5655
66.1064,46.5607
66.1497,46.4796
66.1559,46.4695
66.2002,46.4063
66.2047,46.4003
66.2620,46.3306
66.2684,46.3234
66.3234,46.2684
66.3306,46.2620
66.4003,46.2047
66.4063,46.2002
66.4695,46.1559
66.4796,46.1497
66.5607,46.1064
66.5655,46.1040
66.6336,46.0722
66.6467,46.0672
66.7402,46.0388
66.7431,46.0380
66.8103,46.0200
66.8262,46.0171
66.9545,46.0045
66.9957,46.0009
67.0043,46.0005
100.9957,46.0005
Z" /> 
</g>
</g>
</g>
<g style="fill:#FFFFFF; fill-opacity:1.0000; 
stroke:#FFFFFF; stroke-width:0.0000; stroke-opacity:1; 
stroke-linecap:round; stroke-linejoin:round;">
<circle cx="89.5000" cy="61.4000" r="0.2000" /> 
</g>
<g style="fill:#FFFFFF; fill-opacity:1.0000; 
stroke:#FFFFFF; stroke-width:0.0212; stroke-opacity:1; 
stroke-linecap:round; stroke-linejoin:round;">
</g>
<g style="fill:#FFFFFF; fill-opacity:1.0000; 
stroke:#FFFFFF; stroke-width:0.0000; stroke-opacity:1; 
stroke-linecap:round; stroke-linejoin:round;">
<circle cx="90.5000" cy="61.4000" r="0.2000" /> 
</g>
<g style="fill:#FFFFFF; fill-opacity:1.0000; 
stroke:#FFFFFF; stroke-width:0.0212; stroke-opacity:1; 
stroke-linecap:round; stroke-linejoin:round;">
</g>
<g style="fill:#FFFFFF; fill-opacity:1.0000; 
stroke:#FFFFFF; stroke-width:0.0000; stroke-opacity:1; 
stroke-linecap:round; stroke-linejoin:round;">
<circle cx="82.7000" cy="71.1000" r="0.2000" /> 
</g>
<g style="fill:#FFFFFF; fill-opacity:1.0000; 
stroke:#FFFFFF; stroke-width:0.0212; stroke-opacity:1; 
stroke-linecap:round; stroke-linejoin:round;">
</g>
<g style="fill:#FFFFFF; fill-opacity:1.0000; 
stroke:#FFFFFF; stroke-width:0.0000; stroke-opacity:1; 
stroke-linecap:round; stroke-linejoin:round;">
<circle cx="98.1400" cy="72.5400" r="0.2000" /> 
</g>
<g style="fill:#FFFFFF; fill-opacity:1.0000; 
stroke:#FFFFFF; stroke-width:0.0212; stroke-opacity:1; 
stroke-linecap:round; stroke-linejoin:round;">
</g>
<g style="fill:#FFFFFF; fill-opacity:1.0000; 
stroke:#FFFFFF; stroke-width:0.0000; stroke-opacity:1; 
stroke-linecap:round; stroke-linejoin:round;">
<circle cx="99.2000" cy="55.2000" r="0.2000" /> 
</g>
<g style="fill:#FFFFFF; fill-opacity:1.0000; 
stroke:#FFFFFF; stroke-width:0.0212; stroke-opacity:1; 
stroke-linecap:round; stroke-linejoin:round;">
</g>
<g style="fill:#FFFFFF; fill-opacity:1.0000; 
stroke:#FFFFFF; stroke-width:0.0000; stroke-opacity:1; 
stroke-linecap:round; stroke-linejoin:round;">
<circle cx="92.4000" cy="55.5000" r="0.2000" /> 
</g>
<g style="fill:#FFFFFF; fill-opacity:1.0000; 
stroke:#FFFFFF; stroke-width:0.0212; stroke-opacity:1; 
stroke-linecap:round; stroke-linejoin:round;">
</g>
<g style="fill:#FFFFFF; fill-opacity:1.0000; 
stroke:#FFFFFF; stroke-width:0.0000; stroke-opacity:1; 
stroke-linecap:round; stroke-linejoin:round;">
<circle cx="90.8000" cy="53.4000" r="0.2000" /> 
</g>
<g style="fill:#FFFFFF; fill-opacity:1.0000; 
stroke:#FFFFFF; stroke-width:0.0212; stroke-opacity:1; 
stroke-linecap:round; stroke-linejoin:round;">
</g>
<g style="fill:#FFFFFF; fill-opacity:1.0000; 
stroke:#FFFFFF; stroke-width:0.0000; stroke-opacity:1; 
stroke-linecap:round; stroke-linejoin:round;">
<circle cx="90.8000" cy="52.2000" r="0.2000" /> 
</g>
<g style="fill:#FFFFFF; fill-opacity:1.0000; 
stroke:#FFFFFF; stroke-width:0.0212; stroke-opacity:1; 
stroke-linecap:round; stroke-linejoin:round;">
</g>
<g style="fill:#000000; fill-opacity:1.0000; 
stroke:#000000; stroke-width:0.0212; stroke-opacity:1; 
stroke-linecap:round; stroke-linejoin:round;">
</g> 
</svg>
