<?xml version="1.0" standalone="no"?>
 <!DOCTYPE svg PUBLIC "-//W3C//DTD SVG 1.1//EN" 
 "http://www.w3.org/Graphics/SVG/1.1/DTD/svg11.dtd"> 
<svg
  xmlns:svg="http://www.w3.org/2000/svg"
  xmlns="http://www.w3.org/2000/svg"
  xmlns:xlink="http://www.w3.org/1999/xlink"
  version="1.1"
  width="297.0022mm" height="210.0072mm" viewBox="0.0000 0.0000 297.0022 210.0072">
<title>SVG Image created as pedalboard-led-ring-F_Cu.svg date 2023/05/26 17:31:18 </title>
  <desc>Image generated by PCBNEW </desc>
<g style="fill:#000000; fill-opacity:1.0000;stroke:#000000; stroke-opacity:1.0000;
stroke-linecap:round; stroke-linejoin:round;"
 transform="translate(0 0) scale(1 1)">
</g>
<g style="fill:#000000; fill-opacity:0.0; 
stroke:#000000; stroke-width:0.0000; stroke-opacity:1; 
stroke-linecap:round; stroke-linejoin:round;">
<g >
</g>
<g style="fill:#000000; fill-opacity:0.0; 
stroke:#000000; stroke-width:0.0000; stroke-opacity:1; 
stroke-linecap:round; stroke-linejoin:round;">
</g>
<g style="fill:#000000; fill-opacity:1.0000; 
stroke:#000000; stroke-width:0.0000; stroke-opacity:1; 
stroke-linecap:round; stroke-linejoin:round;">
<path style="fill:#000000; fill-opacity:1.0000; 
stroke:#000000; stroke-width:0.0000; stroke-opacity:1; 
stroke-linecap:round; stroke-linejoin:round;fill-rule:evenodd;"
d="M 87.8199,54.7164
88.4694,54.3414
88.8844,55.0602
88.2349,55.4352
Z" /> 
<path style="fill:#000000; fill-opacity:1.0000; 
stroke:#000000; stroke-width:0.0000; stroke-opacity:1; 
stroke-linecap:round; stroke-linejoin:round;fill-rule:evenodd;"
d="M 87.2310,55.0564
87.6640,54.8064
88.0790,55.5252
87.6460,55.7752
Z" /> 
<path style="fill:#000000; fill-opacity:1.0000; 
stroke:#000000; stroke-width:0.0000; stroke-opacity:1; 
stroke-linecap:round; stroke-linejoin:round;fill-rule:evenodd;"
d="M 86.4256,55.5214
87.0751,55.1464
87.4901,55.8652
86.8406,56.2402
Z" /> 
<path style="fill:#000000; fill-opacity:1.0000; 
stroke:#000000; stroke-width:0.0000; stroke-opacity:1; 
stroke-linecap:round; stroke-linejoin:round;fill-rule:evenodd;"
d="M 87.2156,56.8898
87.8651,56.5148
88.2801,57.2336
87.6306,57.6086
Z" /> 
<path style="fill:#000000; fill-opacity:1.0000; 
stroke:#000000; stroke-width:0.0000; stroke-opacity:1; 
stroke-linecap:round; stroke-linejoin:round;fill-rule:evenodd;"
d="M 88.0210,56.4248
88.4540,56.1748
88.8690,56.8936
88.4360,57.1436
Z" /> 
<path style="fill:#000000; fill-opacity:1.0000; 
stroke:#000000; stroke-width:0.0000; stroke-opacity:1; 
stroke-linecap:round; stroke-linejoin:round;fill-rule:evenodd;"
d="M 88.6099,56.0848
89.2594,55.7098
89.6744,56.4286
89.0249,56.8036
Z" /> 
</g>
<g >
</g>
<g style="fill:#000000; fill-opacity:1.0000; 
stroke:#000000; stroke-width:0.0000; stroke-opacity:1; 
stroke-linecap:round; stroke-linejoin:round;">
<path style="fill:#000000; fill-opacity:1.0000; 
stroke:#000000; stroke-width:0.0000; stroke-opacity:1; 
stroke-linecap:round; stroke-linejoin:round;fill-rule:evenodd;"
d="M 81.2050,69.4300
81.2050,70.1800
80.3750,70.1800
80.3750,69.4300
Z" /> 
<path style="fill:#000000; fill-opacity:1.0000; 
stroke:#000000; stroke-width:0.0000; stroke-opacity:1; 
stroke-linecap:round; stroke-linejoin:round;fill-rule:evenodd;"
d="M 81.2050,68.7500
81.2050,69.2500
80.3750,69.2500
80.3750,68.7500
Z" /> 
<path style="fill:#000000; fill-opacity:1.0000; 
stroke:#000000; stroke-width:0.0000; stroke-opacity:1; 
stroke-linecap:round; stroke-linejoin:round;fill-rule:evenodd;"
d="M 81.2050,67.8200
81.2050,68.5700
80.3750,68.5700
80.3750,67.8200
Z" /> 
<path style="fill:#000000; fill-opacity:1.0000; 
stroke:#000000; stroke-width:0.0000; stroke-opacity:1; 
stroke-linecap:round; stroke-linejoin:round;fill-rule:evenodd;"
d="M 79.6250,67.8200
79.6250,68.5700
78.7950,68.5700
78.7950,67.8200
Z" /> 
<path style="fill:#000000; fill-opacity:1.0000; 
stroke:#000000; stroke-width:0.0000; stroke-opacity:1; 
stroke-linecap:round; stroke-linejoin:round;fill-rule:evenodd;"
d="M 79.6250,68.7500
79.6250,69.2500
78.7950,69.2500
78.7950,68.7500
Z" /> 
<path style="fill:#000000; fill-opacity:1.0000; 
stroke:#000000; stroke-width:0.0000; stroke-opacity:1; 
stroke-linecap:round; stroke-linejoin:round;fill-rule:evenodd;"
d="M 79.6250,69.4300
79.6250,70.1800
78.7950,70.1800
78.7950,69.4300
Z" /> 
</g>
<g >
</g>
<g style="fill:#000000; fill-opacity:1.0000; 
stroke:#000000; stroke-width:0.0000; stroke-opacity:1; 
stroke-linecap:round; stroke-linejoin:round;">
<path style="fill:#000000; fill-opacity:1.0000; 
stroke:#000000; stroke-width:0.0000; stroke-opacity:1; 
stroke-linecap:round; stroke-linejoin:round;fill-rule:evenodd;"
d="M 78.7950,50.5700
78.7950,49.8200
79.6250,49.8200
79.6250,50.5700
Z" /> 
<path style="fill:#000000; fill-opacity:1.0000; 
stroke:#000000; stroke-width:0.0000; stroke-opacity:1; 
stroke-linecap:round; stroke-linejoin:round;fill-rule:evenodd;"
d="M 78.7950,51.2500
78.7950,50.7500
79.6250,50.7500
79.6250,51.2500
Z" /> 
<path style="fill:#000000; fill-opacity:1.0000; 
stroke:#000000; stroke-width:0.0000; stroke-opacity:1; 
stroke-linecap:round; stroke-linejoin:round;fill-rule:evenodd;"
d="M 78.7950,52.1800
78.7950,51.4300
79.6250,51.4300
79.6250,52.1800
Z" /> 
<path style="fill:#000000; fill-opacity:1.0000; 
stroke:#000000; stroke-width:0.0000; stroke-opacity:1; 
stroke-linecap:round; stroke-linejoin:round;fill-rule:evenodd;"
d="M 80.3750,52.1800
80.3750,51.4300
81.2050,51.4300
81.2050,52.1800
Z" /> 
<path style="fill:#000000; fill-opacity:1.0000; 
stroke:#000000; stroke-width:0.0000; stroke-opacity:1; 
stroke-linecap:round; stroke-linejoin:round;fill-rule:evenodd;"
d="M 80.3750,51.2500
80.3750,50.7500
81.2050,50.7500
81.2050,51.2500
Z" /> 
<path style="fill:#000000; fill-opacity:1.0000; 
stroke:#000000; stroke-width:0.0000; stroke-opacity:1; 
stroke-linecap:round; stroke-linejoin:round;fill-rule:evenodd;"
d="M 80.3750,50.5700
80.3750,49.8200
81.2050,49.8200
81.2050,50.5700
Z" /> 
</g>
<g >
</g>
<g style="fill:#000000; fill-opacity:1.0000; 
stroke:#000000; stroke-width:0.0000; stroke-opacity:1; 
stroke-linecap:round; stroke-linejoin:round;">
<path style="fill:#000000; fill-opacity:1.0000; 
stroke:#000000; stroke-width:0.0000; stroke-opacity:1; 
stroke-linecap:round; stroke-linejoin:round;fill-rule:evenodd;"
d="M 72.1801,65.2836
71.5306,65.6586
71.1156,64.9398
71.7651,64.5648
Z" /> 
<path style="fill:#000000; fill-opacity:1.0000; 
stroke:#000000; stroke-width:0.0000; stroke-opacity:1; 
stroke-linecap:round; stroke-linejoin:round;fill-rule:evenodd;"
d="M 72.7690,64.9436
72.3360,65.1936
71.9210,64.4748
72.3540,64.2248
Z" /> 
<path style="fill:#000000; fill-opacity:1.0000; 
stroke:#000000; stroke-width:0.0000; stroke-opacity:1; 
stroke-linecap:round; stroke-linejoin:round;fill-rule:evenodd;"
d="M 73.5744,64.4786
72.9249,64.8536
72.5099,64.1348
73.1594,63.7598
Z" /> 
<path style="fill:#000000; fill-opacity:1.0000; 
stroke:#000000; stroke-width:0.0000; stroke-opacity:1; 
stroke-linecap:round; stroke-linejoin:round;fill-rule:evenodd;"
d="M 72.7844,63.1102
72.1349,63.4852
71.7199,62.7664
72.3694,62.3914
Z" /> 
<path style="fill:#000000; fill-opacity:1.0000; 
stroke:#000000; stroke-width:0.0000; stroke-opacity:1; 
stroke-linecap:round; stroke-linejoin:round;fill-rule:evenodd;"
d="M 71.9790,63.5752
71.5460,63.8252
71.1310,63.1064
71.5640,62.8564
Z" /> 
<path style="fill:#000000; fill-opacity:1.0000; 
stroke:#000000; stroke-width:0.0000; stroke-opacity:1; 
stroke-linecap:round; stroke-linejoin:round;fill-rule:evenodd;"
d="M 71.3901,63.9152
70.7406,64.2902
70.3256,63.5714
70.9751,63.1964
Z" /> 
</g>
<g >
</g>
<g style="fill:#000000; fill-opacity:1.0000; 
stroke:#000000; stroke-width:0.0000; stroke-opacity:1; 
stroke-linecap:round; stroke-linejoin:round;">
<path style="fill:#000000; fill-opacity:1.0000; 
stroke:#000000; stroke-width:0.0000; stroke-opacity:1; 
stroke-linecap:round; stroke-linejoin:round;fill-rule:evenodd;"
d="M 70.9751,56.8036
70.3256,56.4286
70.7406,55.7098
71.3901,56.0848
Z" /> 
<path style="fill:#000000; fill-opacity:1.0000; 
stroke:#000000; stroke-width:0.0000; stroke-opacity:1; 
stroke-linecap:round; stroke-linejoin:round;fill-rule:evenodd;"
d="M 71.5640,57.1436
71.1310,56.8936
71.5460,56.1748
71.9790,56.4248
Z" /> 
<path style="fill:#000000; fill-opacity:1.0000; 
stroke:#000000; stroke-width:0.0000; stroke-opacity:1; 
stroke-linecap:round; stroke-linejoin:round;fill-rule:evenodd;"
d="M 72.3694,57.6086
71.7199,57.2336
72.1349,56.5148
72.7844,56.8898
Z" /> 
<path style="fill:#000000; fill-opacity:1.0000; 
stroke:#000000; stroke-width:0.0000; stroke-opacity:1; 
stroke-linecap:round; stroke-linejoin:round;fill-rule:evenodd;"
d="M 73.1594,56.2402
72.5099,55.8652
72.9249,55.1464
73.5744,55.5214
Z" /> 
<path style="fill:#000000; fill-opacity:1.0000; 
stroke:#000000; stroke-width:0.0000; stroke-opacity:1; 
stroke-linecap:round; stroke-linejoin:round;fill-rule:evenodd;"
d="M 72.3540,55.7752
71.9210,55.5252
72.3360,54.8064
72.7690,55.0564
Z" /> 
<path style="fill:#000000; fill-opacity:1.0000; 
stroke:#000000; stroke-width:0.0000; stroke-opacity:1; 
stroke-linecap:round; stroke-linejoin:round;fill-rule:evenodd;"
d="M 71.7651,55.4352
71.1156,55.0602
71.5306,54.3414
72.1801,54.7164
Z" /> 
</g>
<g >
</g>
<g style="fill:#000000; fill-opacity:1.0000; 
stroke:#000000; stroke-width:0.0000; stroke-opacity:1; 
stroke-linecap:round; stroke-linejoin:round;">
<path style="fill:#000000; fill-opacity:1.0000; 
stroke:#000000; stroke-width:0.0000; stroke-opacity:1; 
stroke-linecap:round; stroke-linejoin:round;fill-rule:evenodd;"
d="M 89.0249,63.1964
89.6744,63.5714
89.2594,64.2902
88.6099,63.9152
Z" /> 
<path style="fill:#000000; fill-opacity:1.0000; 
stroke:#000000; stroke-width:0.0000; stroke-opacity:1; 
stroke-linecap:round; stroke-linejoin:round;fill-rule:evenodd;"
d="M 88.4360,62.8564
88.8690,63.1064
88.4540,63.8252
88.0210,63.5752
Z" /> 
<path style="fill:#000000; fill-opacity:1.0000; 
stroke:#000000; stroke-width:0.0000; stroke-opacity:1; 
stroke-linecap:round; stroke-linejoin:round;fill-rule:evenodd;"
d="M 87.6306,62.3914
88.2801,62.7664
87.8651,63.4852
87.2156,63.1102
Z" /> 
<path style="fill:#000000; fill-opacity:1.0000; 
stroke:#000000; stroke-width:0.0000; stroke-opacity:1; 
stroke-linecap:round; stroke-linejoin:round;fill-rule:evenodd;"
d="M 86.8406,63.7598
87.4901,64.1348
87.0751,64.8536
86.4256,64.4786
Z" /> 
<path style="fill:#000000; fill-opacity:1.0000; 
stroke:#000000; stroke-width:0.0000; stroke-opacity:1; 
stroke-linecap:round; stroke-linejoin:round;fill-rule:evenodd;"
d="M 87.6460,64.2248
88.0790,64.4748
87.6640,65.1936
87.2310,64.9436
Z" /> 
<path style="fill:#000000; fill-opacity:1.0000; 
stroke:#000000; stroke-width:0.0000; stroke-opacity:1; 
stroke-linecap:round; stroke-linejoin:round;fill-rule:evenodd;"
d="M 88.2349,64.5648
88.8844,64.9398
88.4694,65.6586
87.8199,65.2836
Z" /> 
</g>
<g >
</g>
<g >
</g>
<g >
</g>
<g >
</g>
<g >
</g>
<g >
</g>
<g >
</g>
<g >
</g>
<g >
</g>
<g >
</g>
<g >
</g>
<g style="fill:#000000; fill-opacity:1.0000; 
stroke:#000000; stroke-width:0.0000; stroke-opacity:1; 
stroke-linecap:round; stroke-linejoin:round;">
<circle cx="89.5000" cy="61.4000" r="0.4000" /> 
</g>
<g style="fill:#000000; fill-opacity:1.0000; 
stroke:#000000; stroke-width:0.0212; stroke-opacity:1; 
stroke-linecap:round; stroke-linejoin:round;">
</g>
<g style="fill:#000000; fill-opacity:1.0000; 
stroke:#000000; stroke-width:0.0000; stroke-opacity:1; 
stroke-linecap:round; stroke-linejoin:round;">
<circle cx="90.5000" cy="61.4000" r="0.4000" /> 
</g>
<g style="fill:#000000; fill-opacity:1.0000; 
stroke:#000000; stroke-width:0.0212; stroke-opacity:1; 
stroke-linecap:round; stroke-linejoin:round;">
</g>
<g style="fill:#000000; fill-opacity:1.0000; 
stroke:#000000; stroke-width:0.0000; stroke-opacity:1; 
stroke-linecap:round; stroke-linejoin:round;">
<circle cx="83.0000" cy="71.2000" r="0.4000" /> 
</g>
<g style="fill:#000000; fill-opacity:1.0000; 
stroke:#000000; stroke-width:0.0212; stroke-opacity:1; 
stroke-linecap:round; stroke-linejoin:round;">
</g>
<g style="fill:#000000; fill-opacity:1.0000; 
stroke:#000000; stroke-width:0.0000; stroke-opacity:1; 
stroke-linecap:round; stroke-linejoin:round;">
<circle cx="86.4000" cy="69.7500" r="0.4000" /> 
</g>
<g style="fill:#000000; fill-opacity:1.0000; 
stroke:#000000; stroke-width:0.0212; stroke-opacity:1; 
stroke-linecap:round; stroke-linejoin:round;">
</g>
<g style="fill:#000000; fill-opacity:1.0000; 
stroke:#000000; stroke-width:0.0000; stroke-opacity:1; 
stroke-linecap:round; stroke-linejoin:round;">
<circle cx="87.9000" cy="69.7500" r="0.4000" /> 
</g>
<g style="fill:#000000; fill-opacity:1.0000; 
stroke:#000000; stroke-width:0.0212; stroke-opacity:1; 
stroke-linecap:round; stroke-linejoin:round;">
</g>
<g style="fill:#000000; fill-opacity:1.0000; 
stroke:#000000; stroke-width:0.0000; stroke-opacity:1; 
stroke-linecap:round; stroke-linejoin:round;">
<circle cx="81.2500" cy="70.8000" r="0.4000" /> 
</g>
<g style="fill:#000000; fill-opacity:1.0000; 
stroke:#000000; stroke-width:0.0212; stroke-opacity:1; 
stroke-linecap:round; stroke-linejoin:round;">
</g>
<g style="fill:#000000; fill-opacity:1.0000; 
stroke:#000000; stroke-width:0.0000; stroke-opacity:1; 
stroke-linecap:round; stroke-linejoin:round;">
<circle cx="96.5500" cy="58.5000" r="0.4000" /> 
</g>
<g style="fill:#000000; fill-opacity:1.0000; 
stroke:#000000; stroke-width:0.0212; stroke-opacity:1; 
stroke-linecap:round; stroke-linejoin:round;">
</g>
<g style="fill:#000000; fill-opacity:1.0000; 
stroke:#000000; stroke-width:0.0000; stroke-opacity:1; 
stroke-linecap:round; stroke-linejoin:round;">
<circle cx="91.8000" cy="69.5000" r="0.4000" /> 
</g>
<g style="fill:#000000; fill-opacity:1.0000; 
stroke:#000000; stroke-width:0.0212; stroke-opacity:1; 
stroke-linecap:round; stroke-linejoin:round;">
</g>
<g style="fill:#000000; fill-opacity:1.0000; 
stroke:#000000; stroke-width:0.0000; stroke-opacity:1; 
stroke-linecap:round; stroke-linejoin:round;">
<circle cx="101.0500" cy="51.7500" r="0.4000" /> 
</g>
<g style="fill:#000000; fill-opacity:1.0000; 
stroke:#000000; stroke-width:0.0212; stroke-opacity:1; 
stroke-linecap:round; stroke-linejoin:round;">
</g>
<g style="fill:#000000; fill-opacity:1.0000; 
stroke:#000000; stroke-width:0.0000; stroke-opacity:1; 
stroke-linecap:round; stroke-linejoin:round;">
<circle cx="96.5000" cy="72.5500" r="0.4000" /> 
</g>
<g style="fill:#000000; fill-opacity:1.0000; 
stroke:#000000; stroke-width:0.0212; stroke-opacity:1; 
stroke-linecap:round; stroke-linejoin:round;">
</g>
<g style="fill:#000000; fill-opacity:1.0000; 
stroke:#000000; stroke-width:0.0000; stroke-opacity:1; 
stroke-linecap:round; stroke-linejoin:round;">
<circle cx="96.5000" cy="68.4000" r="0.4000" /> 
</g>
<g style="fill:#000000; fill-opacity:1.0000; 
stroke:#000000; stroke-width:0.0212; stroke-opacity:1; 
stroke-linecap:round; stroke-linejoin:round;">
</g>
<g style="fill:#000000; fill-opacity:1.0000; 
stroke:#000000; stroke-width:0.0000; stroke-opacity:1; 
stroke-linecap:round; stroke-linejoin:round;">
<circle cx="90.8000" cy="50.8500" r="0.4000" /> 
</g>
<g style="fill:#000000; fill-opacity:1.0000; 
stroke:#000000; stroke-width:0.0212; stroke-opacity:1; 
stroke-linecap:round; stroke-linejoin:round;">
</g>
<g style="fill:#000000; fill-opacity:1.0000; 
stroke:#000000; stroke-width:0.0000; stroke-opacity:1; 
stroke-linecap:round; stroke-linejoin:round;">
<circle cx="93.4500" cy="58.0500" r="0.4000" /> 
</g>
<g style="fill:#000000; fill-opacity:1.0000; 
stroke:#000000; stroke-width:0.0212; stroke-opacity:1; 
stroke-linecap:round; stroke-linejoin:round;">
</g>
<g style="fill:#000000; fill-opacity:1.0000; 
stroke:#000000; stroke-width:0.0000; stroke-opacity:1; 
stroke-linecap:round; stroke-linejoin:round;">
<circle cx="99.0400" cy="72.5400" r="0.4000" /> 
</g>
<g style="fill:#000000; fill-opacity:1.0000; 
stroke:#000000; stroke-width:0.0212; stroke-opacity:1; 
stroke-linecap:round; stroke-linejoin:round;">
</g>
<g style="fill:#000000; fill-opacity:1.0000; 
stroke:#000000; stroke-width:0.0000; stroke-opacity:1; 
stroke-linecap:round; stroke-linejoin:round;">
<circle cx="99.2000" cy="55.2000" r="0.4000" /> 
</g>
<g style="fill:#000000; fill-opacity:1.0000; 
stroke:#000000; stroke-width:0.0212; stroke-opacity:1; 
stroke-linecap:round; stroke-linejoin:round;">
</g>
<g style="fill:#000000; fill-opacity:1.0000; 
stroke:#000000; stroke-width:0.0000; stroke-opacity:1; 
stroke-linecap:round; stroke-linejoin:round;">
<circle cx="92.4000" cy="55.5000" r="0.4000" /> 
</g>
<g style="fill:#000000; fill-opacity:1.0000; 
stroke:#000000; stroke-width:0.0212; stroke-opacity:1; 
stroke-linecap:round; stroke-linejoin:round;">
</g>
<g style="fill:#000000; fill-opacity:1.0000; 
stroke:#000000; stroke-width:0.0000; stroke-opacity:1; 
stroke-linecap:round; stroke-linejoin:round;">
<circle cx="90.8000" cy="53.4000" r="0.4000" /> 
</g>
<g style="fill:#000000; fill-opacity:1.0000; 
stroke:#000000; stroke-width:0.0212; stroke-opacity:1; 
stroke-linecap:round; stroke-linejoin:round;">
</g>
<g style="fill:#000000; fill-opacity:1.0000; 
stroke:#000000; stroke-width:0.0000; stroke-opacity:1; 
stroke-linecap:round; stroke-linejoin:round;">
<circle cx="90.8000" cy="52.2000" r="0.4000" /> 
</g>
<g style="fill:#000000; fill-opacity:1.0000; 
stroke:#000000; stroke-width:0.0212; stroke-opacity:1; 
stroke-linecap:round; stroke-linejoin:round;">
</g>
<g >
</g>
<g style="fill:#000000; fill-opacity:1.0000; 
stroke:#000000; stroke-width:0.0212; stroke-opacity:1; 
stroke-linecap:round; stroke-linejoin:round;">
</g>
<g style="fill:#000000; fill-opacity:1.0000; 
stroke:#000000; stroke-width:0.2500; stroke-opacity:1; 
stroke-linecap:round; stroke-linejoin:round;">
</g>
<g style="fill:#000000; fill-opacity:0.0; 
stroke:#000000; stroke-width:0.2500; stroke-opacity:1; 
stroke-linecap:round; stroke-linejoin:round;">
<path d="M84.3000 67.0000
L81.9850 67.0000
" />
<path d="M81.9850 67.0000
L80.7900 68.1950
" />
<path d="M86.9578 64.3422
L84.3000 67.0000
" />
<path d="M86.9578 64.3067
L86.9578 64.3422
" />
<path d="M87.6550 64.7450
L84.7500 67.6500
" />
<path d="M84.7500 67.6500
L82.7350 67.6500
" />
<path d="M87.6550 64.7092
L87.6550 64.7450
" />
<path d="M82.7350 67.6500
L81.3850 69.0000
" />
<path d="M81.3850 69.0000
L80.7900 69.0000
" />
<path d="M88.3521 65.1117
L85.0638 68.4000
" />
<path d="M81.1881 69.8050
L80.7900 69.8050
" />
<path d="M85.0638 68.4000
L82.5931 68.4000
" />
<path d="M82.5931 68.4000
L81.1881 69.8050
" />
<path d="M76.7950 68.1950
L73.0421 64.4421
" />
<path d="M79.2100 68.1950
L76.7950 68.1950
" />
<path d="M73.0421 64.4421
L73.0421 64.3067
" />
<path d="M76.5000 69.0000
L72.3450 64.8450
" />
<path d="M72.3450 64.8450
L72.3450 64.7092
" />
<path d="M79.2100 69.0000
L76.5000 69.0000
" />
<path d="M79.2100 69.8050
L76.3412 69.8050
" />
<path d="M76.3412 69.8050
L71.6478 65.1117
" />
<path d="M72.2522 62.9383
L72.1000 62.7862
" />
<path d="M72.1000 57.2138
L72.2522 57.0617
" />
<path d="M72.1000 62.7862
L72.1000 57.2138
" />
<path d="M71.3000 63.0858
L71.3000 56.9142
" />
<path d="M71.5550 63.3408
L71.3000 63.0858
" />
<path d="M71.3000 56.9142
L71.5550 56.6592
" />
<path d="M70.8578 63.7433
L70.6000 63.4855
" />
<path d="M70.6000 63.4855
L70.6000 56.5145
" />
<path d="M70.6000 56.5145
L70.8578 56.2567
" />
<path d="M76.9305 51.8050
L79.2100 51.8050
" />
<path d="M73.0421 55.6933
L76.9305 51.8050
" />
<path d="M76.6117 51.0000
L72.3329 55.2788
" />
<path d="M79.2100 51.0000
L76.6117 51.0000
" />
<path d="M79.2100 50.1950
L76.3412 50.1950
" />
<path d="M76.3412 50.1950
L71.6478 54.8883
" />
<path d="M80.7900 51.8050
L83.0695 51.8050
" />
<path d="M83.0695 51.8050
L86.9578 55.6933
" />
<path d="M85.6000 53.2000
L85.6000 53.2117
" />
<path d="M83.4000 51.0000
L85.6000 53.2000
" />
<path d="M80.7900 51.0000
L83.4000 51.0000
" />
<path d="M85.6000 53.2117
L87.6671 55.2788
" />
<path d="M83.6588 50.1950
L88.3521 54.8883
" />
<path d="M80.7900 50.1950
L83.6588 50.1950
" />
<path d="M87.7478 57.0617
L88.2500 57.5638
" />
<path d="M88.3000 57.8000
L88.2500 57.7500
" />
<path d="M88.2500 57.5638
L88.2500 57.7500
" />
<path d="M92.4000 55.5000
L90.1000 57.8000
" />
<path d="M90.1000 57.8000
L88.3000 57.8000
" />
<path d="M90.8000 53.4000
L90.8000 56.1000
" />
<path d="M90.8000 56.1000
L89.6000 57.3000
" />
<path d="M89.0617 57.3000
L88.4329 56.6712
" />
<path d="M89.6000 57.3000
L89.0617 57.3000
" />
<path d="M90.1000 55.5000
L90.0750 55.4750
" />
<path d="M89.6000 56.0000
L90.1000 55.5000
" />
<path d="M89.3988 56.0000
L89.6000 56.0000
" />
<path d="M90.0750 55.4750
L90.0750 52.9250
" />
<path d="M90.0750 52.9250
L90.8000 52.2000
" />
<path d="M89.1422 56.2567
L89.3988 56.0000
" />
</g>
<g >
</g>
<g style="fill:#000000; fill-opacity:0.0; 
stroke:#000000; stroke-width:0.2500; stroke-opacity:1; 
stroke-linecap:round; stroke-linejoin:round;">
<g >
</g>
<g style="fill:#000000; fill-opacity:1.0000; 
stroke:#000000; stroke-width:0.0000; stroke-opacity:1; 
stroke-linecap:round; stroke-linejoin:round;">
<path style="fill:#000000; fill-opacity:1.0000; 
stroke:#000000; stroke-width:0.0000; stroke-opacity:1; 
stroke-linecap:round; stroke-linejoin:round;fill-rule:evenodd;"
d="M 101.0054,46.0010
101.0455,46.0045
101.1718,46.0169
101.1917,46.0205
101.2565,46.0379
101.2602,46.0390
101.3516,46.0667
101.3680,46.0730
101.4339,46.1037
101.4399,46.1067
101.4826,46.1295
101.5190,46.1490
101.5317,46.1568
101.5929,46.1996
101.6004,46.2053
101.6685,46.2612
101.6775,46.2693
101.7307,46.3225
101.7388,46.3315
101.7947,46.3996
101.8004,46.4071
101.8432,46.4683
101.8510,46.4810
101.8933,46.5601
101.8963,46.5662
101.9270,46.6320
101.9333,46.6484
101.9610,46.7397
101.9621,46.7436
101.9795,46.8083
101.9831,46.8282
101.9955,46.9546
101.9972,46.9738
101.9990,46.9946
101.9995,47.0054
101.9995,54.3218
101.9798,54.3889
101.9270,54.4346
101.8768,54.4458
101.8714,54.4459
101.8714,54.4459
100.3455,54.4623
97.4731,54.4932
97.4731,54.4932
97.4699,54.4932
97.4667,54.4936
97.4667,54.4936
97.4202,54.4989
97.4202,54.4989
97.4170,54.4993
97.4138,54.5000
97.4138,54.5000
97.3684,54.5102
97.3684,54.5102
97.3668,54.5105
97.3653,54.5109
97.3653,54.5109
97.3418,54.5175
97.2552,54.5668
97.2045,54.6107
97.2044,54.6107
97.2024,54.6125
97.2005,54.6145
97.1707,54.6453
97.1245,54.7336
97.1048,54.8007
97.0945,54.8727
97.0945,73.8755
97.0748,73.9425
97.0220,73.9883
96.9705,73.9995
67.0054,73.9995
66.9946,73.9990
66.9546,73.9955
66.8282,73.9831
66.8083,73.9795
66.7436,73.9621
66.7397,73.9610
66.6484,73.9333
66.6320,73.9270
66.5662,73.8963
66.5601,73.8933
66.4810,73.8510
66.4683,73.8432
66.4071,73.8004
66.3996,73.7947
66.3315,73.7388
66.3225,73.7307
66.2693,73.6775
66.2612,73.6685
66.2053,73.6004
66.1996,73.5929
66.1568,73.5317
66.1490,73.5190
66.1295,73.4826
66.1067,73.4399
66.1037,73.4339
66.0730,73.3680
66.0667,73.3516
66.0390,73.2602
66.0379,73.2565
66.0205,73.1917
66.0169,73.1718
66.0045,73.0454
66.0043,73.0431
66.0010,73.0054
66.0005,72.9946
66.0005,64.9731
70.8624,64.9731
70.8863,65.0436
71.3260,65.8052
71.3260,65.8052
71.3751,65.8612
71.4645,65.9053
71.5639,65.9118
71.6345,65.8878
71.7160,65.8408
71.7839,65.8243
71.8499,65.8472
71.8656,65.8605
76.0390,70.0339
76.0552,70.0537
76.0611,70.0628
76.0724,70.0716
76.0861,70.0823
76.0976,70.0924
76.0977,70.0925
76.1146,70.1046
76.1187,70.1076
76.1600,70.1398
76.1600,70.1398
76.1662,70.1447
76.1664,70.1448
76.1740,70.1470
76.1740,70.1470
76.2241,70.1619
76.2290,70.1635
76.2785,70.1805
76.2860,70.1831
76.2862,70.1831
76.2941,70.1828
76.2941,70.1828
76.3464,70.1806
76.3515,70.1805
78.4379,70.1805
78.5050,70.2002
78.5507,70.2530
78.5584,70.2768
78.5590,70.2777
78.5590,70.2777
78.6144,70.3606
78.6973,70.4160
78.7338,70.4232
78.7703,70.4305
78.7703,70.4305
79.6497,70.4305
79.6740,70.4257
79.7227,70.4160
79.8056,70.3606
79.8610,70.2777
79.8755,70.2047
80.1245,70.2047
80.1390,70.2777
80.1390,70.2777
80.1390,70.2777
80.1944,70.3606
80.2773,70.4160
80.3138,70.4232
80.3503,70.4305
80.3503,70.4305
81.2297,70.4305
81.2540,70.4257
81.3027,70.4160
81.3856,70.3606
81.4410,70.2777
81.4555,70.2047
81.4555,70.1200
81.4752,70.0530
81.4918,70.0323
82.7123,68.8118
82.7737,68.7783
82.8000,68.7755
85.0120,68.7755
85.0375,68.7781
85.0412,68.7789
85.0481,68.7804
85.0779,68.7766
85.0795,68.7765
85.0948,68.7755
85.0949,68.7755
85.0949,68.7755
85.1155,68.7721
85.1205,68.7713
85.1724,68.7649
85.1724,68.7649
85.1803,68.7639
85.1805,68.7638
85.1874,68.7601
85.1874,68.7601
85.2335,68.7351
85.2380,68.7328
85.2850,68.7098
85.2850,68.7098
85.2921,68.7064
85.2923,68.7062
85.2976,68.7004
85.2976,68.7004
85.3331,68.6619
85.3366,68.6582
88.1344,65.8605
88.1957,65.8270
88.2654,65.8320
88.2840,65.8408
88.3655,65.8878
88.3655,65.8878
88.3729,65.8921
88.4212,65.9427
88.4349,66.0006
88.3979,70.0716
88.3776,70.1385
88.3244,70.1838
88.2739,70.1945
82.5740,70.1945
82.5707,70.1949
82.5707,70.1949
82.5230,70.2000
82.5230,70.2000
82.5197,70.2003
82.5164,70.2010
82.5164,70.2010
82.4698,70.2112
82.4698,70.2112
82.4682,70.2115
82.4666,70.2120
82.4666,70.2120
82.4495,70.2167
82.4418,70.2188
82.4418,70.2188
82.4418,70.2188
82.3552,70.2681
82.3045,70.3121
82.3044,70.3121
82.3024,70.3139
82.3005,70.3159
82.2707,70.3466
82.2245,70.4350
82.2048,70.5020
82.1945,70.5740
82.1945,71.4260
82.2003,71.4803
82.2010,71.4836
82.2010,71.4836
82.2112,71.5302
82.2112,71.5302
82.2115,71.5318
82.2120,71.5334
82.2120,71.5334
82.2188,71.5582
82.2681,71.6448
82.3121,71.6955
82.3139,71.6976
82.3466,71.7293
82.4350,71.7755
82.5020,71.7951
82.5740,71.8055
82.7234,71.8055
82.7531,71.8091
82.7676,71.8127
82.7676,71.8127
82.9210,71.8505
82.9210,71.8505
83.0790,71.8505
83.0790,71.8505
83.2324,71.8127
83.2324,71.8127
83.2469,71.8091
83.2766,71.8055
90.9737,71.8055
90.9769,71.8055
91.0303,71.7999
91.0810,71.7890
91.1064,71.7822
91.1934,71.7335
91.2466,71.6882
91.2785,71.6556
91.3253,71.5677
91.3455,71.5008
91.3564,71.4289
91.4010,65.5500
91.4011,65.5324
91.4024,65.5157
91.4055,65.4939
91.4055,60.7717
91.4002,60.7197
91.3899,60.6704
91.3837,60.6462
91.3360,60.5587
91.3268,60.5476
91.2930,60.5071
91.2930,60.5071
91.2912,60.5050
91.2893,60.5031
91.2893,60.5030
91.2590,60.4728
91.1716,60.4249
91.1494,60.4179
91.1049,60.4040
91.0815,60.4001
91.0332,60.3922
88.5000,60.3445
87.8785,60.3445
87.8743,60.3451
87.8743,60.3451
87.8125,60.3538
87.8125,60.3538
87.8082,60.3544
87.8040,60.3556
87.8040,60.3556
87.7451,60.3725
87.7451,60.3725
87.7425,60.3732
87.7223,60.3809
87.7015,60.3888
87.6220,60.4490
87.5756,60.5012
87.5354,60.5618
86.7751,62.1703
86.6625,62.4084
86.4778,62.7991
86.3981,62.9678
86.3317,63.1082
86.3179,63.1373
86.3170,63.1399
86.3170,63.1399
86.3034,63.1765
86.3034,63.1765
86.3025,63.1790
86.3018,63.1816
86.3018,63.1816
86.2911,63.2205
86.2906,63.2225
86.2872,63.2371
86.2868,63.3369
86.2996,63.4027
86.2996,63.4027
86.3002,63.4055
86.3128,63.4492
86.3664,63.5333
86.3664,63.5333
86.4147,63.5837
86.4720,63.6286
86.4807,63.6336
86.5290,63.6840
86.5424,63.7526
86.5263,63.8031
86.1963,64.3747
86.1724,64.4452
86.1780,64.5312
86.1627,64.5994
86.1419,64.6270
84.1808,66.5882
84.1195,66.6217
84.0931,66.6245
82.0368,66.6245
82.0114,66.6219
82.0007,66.6196
82.0007,66.6196
81.9844,66.6217
81.9693,66.6235
81.9540,66.6245
81.9539,66.6245
81.9334,66.6279
81.9283,66.6287
81.8686,66.6361
81.8683,66.6362
81.8154,66.6648
81.8108,66.6672
81.7567,66.6936
81.7565,66.6938
81.7157,66.7381
81.7122,66.7418
80.9208,67.5332
80.8595,67.5667
80.8331,67.5695
80.3503,67.5695
80.2773,67.5840
80.1944,67.6394
80.1390,67.7223
80.1245,67.7953
80.1245,68.5947
80.1327,68.6358
80.1327,68.6842
80.1245,68.7253
80.1245,69.2747
80.1327,69.3158
80.1327,69.3642
80.1245,69.4053
80.1245,70.2047
79.8755,70.2047
79.8755,69.4053
79.8673,69.3642
79.8673,69.3158
79.8755,69.2747
79.8755,68.7253
79.8673,68.6842
79.8673,68.6358
79.8755,68.5947
79.8755,67.7953
79.8610,67.7223
79.8056,67.6394
79.7227,67.5840
79.7227,67.5840
79.7227,67.5840
79.6497,67.5695
79.6497,67.5695
78.7703,67.5695
78.7703,67.5695
78.6973,67.5840
78.6973,67.5840
78.6973,67.5840
78.6144,67.6394
78.5590,67.7223
78.5590,67.7223
78.5552,67.7280
78.5272,67.7816
78.4664,67.8162
78.4379,67.8195
77.0019,67.8195
76.9349,67.7998
76.9142,67.7832
73.8359,64.7049
73.8024,64.6436
73.8074,64.5739
73.8124,64.5624
73.8211,64.5447
73.8276,64.4452
73.8037,64.3747
73.6566,64.1198
73.3640,63.6131
73.3149,63.5571
73.2665,63.5333
73.2255,63.5131
73.1261,63.5065
73.1261,63.5065
73.0555,63.5305
72.3633,63.9302
72.3317,63.9578
72.2898,63.9820
72.2501,63.9955
71.7744,64.2702
71.7428,64.2978
71.7009,64.3220
71.6612,64.3355
70.9690,64.7352
70.9130,64.7843
70.8689,64.8737
70.8624,64.9731
66.0005,64.9731
66.0005,63.6048
70.0724,63.6048
70.0963,63.6753
70.5360,64.4369
70.5360,64.4369
70.5851,64.4929
70.6745,64.5369
70.7739,64.5435
70.8445,64.5195
71.5367,64.1198
71.5683,64.0922
71.6102,64.0680
71.6499,64.0545
72.1256,63.7798
72.1572,63.7522
72.1991,63.7280
72.2388,63.7145
72.9310,63.3148
72.9870,63.2657
73.0311,63.1763
73.0376,63.0769
73.0137,63.0064
72.5740,62.2448
72.5249,62.1888
72.5249,62.1888
72.5086,62.1703
72.5113,62.1679
72.4932,62.1512
72.4755,62.0873
72.4755,60.0000
73.8945,60.0000
73.8946,60.0025
73.9142,60.4888
73.9142,60.4888
73.9143,60.4913
73.9146,60.4937
73.9146,60.4938
73.9733,60.9769
73.9733,60.9769
73.9736,60.9794
73.9741,60.9818
73.9741,60.9818
74.0715,61.4587
74.0720,61.4611
74.0726,61.4635
74.0727,61.4635
74.1859,61.8544
74.2088,61.9334
74.2096,61.9357
74.2096,61.9357
74.3056,62.1888
74.3831,62.3931
74.3842,62.3954
74.3842,62.3954
74.5928,62.8351
74.5928,62.8351
74.5939,62.8373
74.5951,62.8395
74.5951,62.8395
74.7896,63.1763
74.8397,63.2632
74.8411,63.2652
74.8412,63.2652
75.1176,63.6657
75.1190,63.6678
75.4300,64.0487
75.7706,64.4033
75.7725,64.4049
75.7725,64.4049
75.9632,64.5739
76.1386,64.7293
76.1406,64.7308
76.1406,64.7308
76.5297,65.0232
76.5297,65.0232
76.5317,65.0247
76.9473,65.2875
77.3826,65.5160
77.8350,65.7087
78.3014,65.8644
78.7788,65.9821
79.2641,66.0609
79.7542,66.1005
79.7566,66.1005
80.2434,66.1005
80.2458,66.1005
80.7359,66.0609
81.2212,65.9821
81.6986,65.8644
82.1650,65.7087
82.6174,65.5160
83.0527,65.2875
83.4683,65.0247
83.8614,64.7293
84.2294,64.4033
84.5700,64.0487
84.8810,63.6678
85.1603,63.2632
85.4061,62.8373
85.6169,62.3931
85.7912,61.9334
85.9280,61.4611
86.0264,60.9794
86.0857,60.4913
86.1055,60.0000
86.0857,59.5087
86.0264,59.0206
85.9280,58.5389
85.7912,58.0666
85.6169,57.6069
85.4074,57.1654
85.4072,57.1649
85.4072,57.1649
85.4061,57.1627
85.2678,56.9231
86.9624,56.9231
86.9863,56.9936
87.3417,57.6092
87.4260,57.7552
87.4751,57.8112
87.5645,57.8553
87.6639,57.8618
87.7345,57.8378
87.7345,57.8378
87.7460,57.8339
87.7471,57.8370
87.7957,57.8252
87.8617,57.8481
87.8988,57.8901
87.9111,57.9127
87.9148,57.9196
87.9172,57.9242
87.9436,57.9783
87.9438,57.9785
87.9496,57.9838
87.9496,57.9838
87.9881,58.0193
87.9918,58.0228
87.9978,58.0289
88.0140,58.0487
88.0199,58.0578
88.0449,58.0773
88.0564,58.0874
88.0565,58.0875
88.0734,58.0996
88.0775,58.1027
88.1250,58.1397
88.1252,58.1398
88.1596,58.1500
88.1830,58.1569
88.1878,58.1585
88.2373,58.1755
88.2448,58.1781
88.2450,58.1781
88.2529,58.1778
88.2529,58.1778
88.3052,58.1756
88.3103,58.1755
90.0482,58.1755
90.0736,58.1781
90.0774,58.1789
90.0843,58.1804
90.1141,58.1766
90.1157,58.1765
90.1310,58.1755
90.1311,58.1755
90.1311,58.1755
90.1516,58.1721
90.1567,58.1713
90.2086,58.1649
90.2086,58.1649
90.2165,58.1639
90.2167,58.1638
90.2236,58.1601
90.2236,58.1601
90.2697,58.1351
90.2741,58.1328
90.3212,58.1098
90.3212,58.1098
90.3283,58.1064
90.3285,58.1062
90.3338,58.1004
90.3338,58.1004
90.3693,58.0619
90.3728,58.0582
92.2442,56.1868
92.3055,56.1533
92.3319,56.1505
92.4790,56.1505
92.6324,56.1127
92.7722,56.0393
92.8905,55.9345
92.9802,55.8045
93.0362,55.6568
93.0553,55.5000
93.0362,55.3432
92.9802,55.1955
92.8905,55.0655
92.7722,54.9607
92.7590,54.9538
92.6324,54.8873
92.4790,54.8495
92.3210,54.8495
92.1676,54.8873
92.0278,54.9607
91.9095,55.0655
91.8198,55.1955
91.7638,55.3432
91.7447,55.5000
91.7509,55.5509
91.7394,55.6198
91.7155,55.6535
91.3872,55.9818
91.3259,56.0153
91.2562,56.0103
91.2002,55.9684
91.1758,55.9029
91.1755,55.8941
91.1755,53.9922
91.1952,53.9252
91.2173,53.8994
91.2905,53.8345
91.3802,53.7045
91.4362,53.5568
91.4553,53.4000
91.4362,53.2432
91.3802,53.0955
91.3155,53.0017
91.2905,52.9655
91.2720,52.9491
91.2085,52.8928
91.1713,52.8336
91.1721,52.7638
91.2085,52.7072
91.2905,52.6345
91.3802,52.5045
91.4362,52.3568
91.4553,52.2000
91.4362,52.0432
91.3802,51.8955
91.2905,51.7655
91.1722,51.6607
91.1590,51.6538
91.0324,51.5873
90.8790,51.5495
90.7210,51.5495
90.5676,51.5873
90.4278,51.6607
90.3095,51.7655
90.2198,51.8955
90.1638,52.0432
90.1447,52.2000
90.1509,52.2509
90.1394,52.3198
90.1155,52.3535
89.8461,52.6229
89.8263,52.6390
89.8172,52.6449
89.7977,52.6699
89.7876,52.6814
89.7875,52.6815
89.7875,52.6815
89.7875,52.6815
89.7754,52.6984
89.7723,52.7025
89.7354,52.7500
89.7352,52.7503
89.7181,52.8080
89.7165,52.8128
89.6969,52.8698
89.6969,52.8700
89.6994,52.9302
89.6995,52.9353
89.6995,55.3181
89.6798,55.3851
89.6632,55.4058
89.6136,55.4553
89.5761,55.4928
89.5148,55.5263
89.4451,55.5213
89.4336,55.5164
89.3255,55.4631
89.2261,55.4565
89.2261,55.4565
89.1555,55.4805
88.4633,55.8802
88.4317,55.9078
88.3898,55.9320
88.3501,55.9455
87.8744,56.2202
87.8428,56.2478
87.8009,56.2720
87.7612,56.2855
87.0690,56.6852
87.0130,56.7343
86.9689,56.8237
86.9624,56.9231
85.2678,56.9231
85.1603,56.7368
85.1585,56.7343
84.8824,56.3342
84.8810,56.3322
84.5700,55.9513
84.2294,55.5967
84.1915,55.5631
83.8632,55.2723
83.8632,55.2723
83.8614,55.2707
83.8594,55.2692
83.8594,55.2692
83.4703,54.9768
83.4703,54.9768
83.4683,54.9753
83.4662,54.9740
83.4662,54.9740
83.0609,54.7177
83.0527,54.7125
83.0505,54.7114
83.0505,54.7114
82.6196,54.4852
82.6196,54.4852
82.6174,54.4840
82.6151,54.4830
82.6151,54.4830
82.1673,54.2923
82.1673,54.2923
82.1650,54.2913
81.9119,54.2068
81.7010,54.1364
81.7010,54.1364
81.6986,54.1356
81.5328,54.0947
81.2237,54.0185
81.2237,54.0185
81.2212,54.0179
81.2188,54.0175
81.2188,54.0175
80.7384,53.9395
80.7384,53.9395
80.7359,53.9391
80.7335,53.9389
80.7335,53.9389
80.2483,53.8997
80.2483,53.8997
80.2458,53.8995
79.7542,53.8995
79.7517,53.8997
79.7517,53.8997
79.2665,53.9389
79.2665,53.9389
79.2641,53.9391
79.2616,53.9395
79.2616,53.9395
78.7812,54.0175
78.7812,54.0175
78.7788,54.0179
78.7763,54.0185
78.7763,54.0185
78.3038,54.1350
78.3038,54.1350
78.3014,54.1356
78.2990,54.1364
78.2990,54.1364
77.8373,54.2905
77.8350,54.2913
77.8327,54.2923
77.8327,54.2923
77.3849,54.4830
77.3849,54.4830
77.3826,54.4840
77.3804,54.4852
77.3804,54.4852
76.9495,54.7114
76.9495,54.7114
76.9473,54.7125
76.9452,54.7139
76.9452,54.7139
76.5338,54.9740
76.5338,54.9740
76.5317,54.9753
76.5297,54.9768
76.5297,54.9768
76.1406,55.2692
76.1406,55.2692
76.1386,55.2707
76.1368,55.2723
76.1368,55.2723
75.7725,55.5951
75.7725,55.5951
75.7706,55.5967
75.7689,55.5985
75.7689,55.5985
75.4317,55.9495
75.4317,55.9496
75.4300,55.9513
75.4284,55.9533
75.4284,55.9533
75.1206,56.3303
75.1206,56.3303
75.1190,56.3322
75.1176,56.3342
75.1176,56.3342
74.8412,56.7348
74.8411,56.7348
74.8397,56.7368
74.8385,56.7390
74.8385,56.7390
74.5951,57.1605
74.5951,57.1605
74.5939,57.1627
74.5928,57.1649
74.5928,57.1649
74.3842,57.6046
74.3842,57.6046
74.3831,57.6069
74.3822,57.6092
74.3822,57.6092
74.2096,58.0643
74.2096,58.0643
74.2088,58.0666
74.2081,58.0690
74.2081,58.0690
74.0727,58.5365
74.0726,58.5365
74.0720,58.5389
74.0715,58.5413
74.0715,58.5413
73.9741,59.0182
73.9741,59.0182
73.9736,59.0206
73.9733,59.0231
73.9733,59.0231
73.9146,59.5062
73.9146,59.5063
73.9143,59.5087
73.9142,59.5112
73.9142,59.5112
73.8946,59.9975
73.8945,60.0000
72.4755,60.0000
72.4755,57.9127
72.4952,57.8456
72.5108,57.8317
72.5086,57.8297
72.5513,57.7811
72.5740,57.7552
73.0137,56.9936
73.0376,56.9231
73.0311,56.8237
72.9870,56.7343
72.9310,56.6852
72.9310,56.6852
72.2388,56.2855
72.1991,56.2720
72.1572,56.2478
72.1256,56.2202
71.6499,55.9455
71.6102,55.9320
71.5683,55.9078
71.5367,55.8802
70.8445,55.4805
70.7739,55.4565
70.6745,55.4631
70.5851,55.5071
70.5360,55.5631
70.0963,56.3247
70.0931,56.3342
70.0724,56.3952
70.0755,56.4429
70.0789,56.4947
70.1230,56.5840
70.1823,56.6360
70.2197,56.6950
70.2245,56.7293
70.2245,63.2707
70.2048,63.3378
70.1823,63.3640
70.1230,63.4160
70.0789,63.5053
70.0724,63.6048
66.0005,63.6048
66.0005,55.0269
70.8624,55.0269
70.8689,55.1263
70.9130,55.2157
70.9690,55.2648
71.6612,55.6645
71.7009,55.6780
71.7428,55.7022
71.7744,55.7298
72.2501,56.0045
72.2898,56.0180
72.3317,56.0422
72.3633,56.0698
72.9124,56.3869
73.0094,56.4429
73.0555,56.4695
73.1261,56.4935
73.2255,56.4869
73.3149,56.4429
73.3640,56.3869
73.8037,55.6253
73.8276,55.5548
73.8242,55.5021
73.8394,55.4339
73.8602,55.4063
77.0497,52.2168
77.1110,52.1833
77.1374,52.1805
78.4379,52.1805
78.5050,52.2002
78.5507,52.2530
78.5584,52.2768
78.5590,52.2777
78.5590,52.2777
78.6144,52.3606
78.6973,52.4160
78.7338,52.4232
78.7703,52.4305
78.7703,52.4305
79.6497,52.4305
79.6740,52.4257
79.7227,52.4160
79.8056,52.3606
79.8610,52.2777
79.8755,52.2047
80.1245,52.2047
80.1390,52.2777
80.1390,52.2777
80.1390,52.2777
80.1944,52.3606
80.2773,52.4160
80.3138,52.4232
80.3503,52.4305
80.3503,52.4305
81.2297,52.4305
81.2540,52.4257
81.3027,52.4160
81.3856,52.3606
81.4410,52.2777
81.4410,52.2777
81.4448,52.2720
81.4728,52.2184
81.5336,52.1838
81.5621,52.1805
82.8626,52.1805
82.9296,52.2002
82.9503,52.2168
86.1398,55.4063
86.1733,55.4676
86.1758,55.5021
86.1724,55.5548
86.1963,55.6253
86.6056,56.3342
86.6360,56.3869
86.6851,56.4429
86.7745,56.4869
86.8739,56.4935
86.9445,56.4695
87.6367,56.0698
87.6683,56.0422
87.7102,56.0180
87.7499,56.0045
88.2256,55.7298
88.2572,55.7022
88.2991,55.6780
88.3388,55.6645
89.0310,55.2648
89.0870,55.2157
89.1311,55.1263
89.1376,55.0269
89.1137,54.9564
88.8888,54.5668
88.6740,54.1948
88.6249,54.1388
88.6172,54.1350
88.5355,54.0947
88.4361,54.0882
88.4361,54.0882
88.3655,54.1122
88.2840,54.1592
88.2161,54.1757
88.1501,54.1528
88.1344,54.1395
83.9610,49.9661
83.9448,49.9463
83.9389,49.9372
83.9139,49.9177
83.9024,49.9076
83.9023,49.9075
83.8854,49.8954
83.8813,49.8923
83.8400,49.8602
83.8400,49.8602
83.8338,49.8553
83.8336,49.8552
83.8260,49.8530
83.8260,49.8530
83.7758,49.8381
83.7710,49.8365
83.7524,49.8301
83.7140,49.8169
83.7138,49.8169
83.6741,49.8185
83.6536,49.8194
83.6485,49.8195
81.5621,49.8195
81.4950,49.7998
81.4493,49.7470
81.4416,49.7232
81.4410,49.7223
81.4410,49.7223
81.3856,49.6394
81.3027,49.5840
81.3027,49.5840
81.3027,49.5840
81.2297,49.5695
81.2297,49.5695
80.3503,49.5695
80.3503,49.5695
80.2773,49.5840
80.1944,49.6394
80.1390,49.7223
80.1245,49.7953
80.1245,50.5947
80.1327,50.6358
80.1327,50.6842
80.1245,50.7253
80.1245,51.2747
80.1327,51.3158
80.1327,51.3642
80.1245,51.4053
80.1245,52.2047
79.8755,52.2047
79.8755,51.4053
79.8673,51.3642
79.8673,51.3158
79.8755,51.2747
79.8755,50.7253
79.8673,50.6842
79.8673,50.6358
79.8755,50.5947
79.8755,49.7953
79.8610,49.7223
79.8056,49.6394
79.7227,49.5840
79.7227,49.5840
79.7227,49.5840
79.6497,49.5695
79.6497,49.5695
78.7703,49.5695
78.7703,49.5695
78.6973,49.5840
78.6973,49.5840
78.6973,49.5840
78.6144,49.6394
78.5590,49.7223
78.5590,49.7223
78.5552,49.7280
78.5272,49.7816
78.4664,49.8162
78.4379,49.8195
76.3930,49.8195
76.3675,49.8169
76.3569,49.8146
76.3569,49.8146
76.3390,49.8169
76.3255,49.8185
76.3102,49.8195
76.3101,49.8195
76.2896,49.8229
76.2845,49.8237
76.2248,49.8311
76.2245,49.8312
76.1716,49.8598
76.1670,49.8622
76.1129,49.8886
76.1127,49.8888
76.0719,49.9331
76.0684,49.9368
71.8656,54.1395
71.8043,54.1730
71.7346,54.1680
71.7160,54.1592
71.6345,54.1122
71.5639,54.0882
71.4645,54.0947
71.3751,54.1388
71.3260,54.1948
70.8863,54.9564
70.8675,55.0118
70.8624,55.0269
66.0005,55.0269
66.0005,47.0054
66.0010,46.9946
66.0045,46.9546
66.0169,46.8282
66.0205,46.8083
66.0379,46.7435
66.0390,46.7398
66.0667,46.6484
66.0729,46.6320
66.1037,46.5661
66.1067,46.5602
66.1490,46.4809
66.1568,46.4683
66.1996,46.4071
66.2053,46.3996
66.2612,46.3315
66.2693,46.3225
66.3225,46.2693
66.3315,46.2612
66.3996,46.2053
66.4071,46.1996
66.4683,46.1568
66.4809,46.1490
66.5602,46.1067
66.5661,46.1037
66.6320,46.0729
66.6484,46.0667
66.7398,46.0390
66.7435,46.0379
66.8083,46.0205
66.8282,46.0169
66.9545,46.0045
66.9946,46.0010
67.0054,46.0005
100.9946,46.0005
Z" /> 
</g>
</g>
<g style="fill:#000000; fill-opacity:1.0000; 
stroke:#000000; stroke-width:0.0000; stroke-opacity:1; 
stroke-linecap:round; stroke-linejoin:round;">
<g >
<path style="fill:#000000; fill-opacity:1.0000; 
stroke:#000000; stroke-width:0.0000; stroke-opacity:1; 
stroke-linecap:round; stroke-linejoin:round;fill-rule:evenodd;"
d="M 91.0283,60.6477
91.0950,60.6686
91.1397,60.7223
91.1500,60.7717
91.1500,65.4939
91.1458,65.5083
91.1455,65.5500
88.8213,65.5500
89.1137,65.0436
89.1376,64.9731
89.1311,64.8737
89.0870,64.7843
89.0310,64.7352
89.0310,64.7352
88.3388,64.3355
88.2991,64.3220
88.2572,64.2978
88.2256,64.2702
87.7499,63.9955
87.7102,63.9820
87.7054,63.9792
88.2208,63.9792
88.3503,64.0541
88.3901,64.0676
88.4320,64.0917
88.4636,64.1194
89.1557,64.5191
89.2261,64.5430
89.3254,64.5365
89.4146,64.4925
89.4636,64.4366
89.6209,64.1641
89.6209,64.1641
89.1879,63.9141
88.8129,63.6976
89.3129,63.6976
89.7459,63.9476
89.7459,63.9476
89.9032,63.6751
89.9271,63.6047
89.9206,63.5055
89.8766,63.4163
89.8207,63.3672
89.5829,63.2299
89.5829,63.2299
89.3129,63.6976
89.3129,63.6976
88.8129,63.6976
88.4908,63.5116
88.4908,63.5116
88.2208,63.9792
88.2208,63.9792
87.7054,63.9792
87.6683,63.9578
87.6367,63.9302
86.9445,63.5305
86.9092,63.5185
86.8739,63.5065
86.8739,63.5065
86.8203,63.5101
86.7521,63.4948
86.7505,63.4939
86.5993,63.4070
86.5509,63.3566
86.5376,63.2880
86.5489,63.2465
86.6291,63.0770
86.9629,63.0770
86.9694,63.1762
87.0134,63.2654
87.0693,63.3144
87.7614,63.7141
87.8012,63.7276
87.8431,63.7517
87.8747,63.7794
88.0042,63.8542
88.0042,63.8542
88.2742,63.3866
88.2742,63.3866
88.1139,63.2940
88.6139,63.2940
89.0964,63.5726
89.0964,63.5726
89.3664,63.1049
89.3664,63.1049
89.1286,62.9676
89.0888,62.9541
89.0469,62.9299
89.0153,62.9022
88.8858,62.8274
88.8858,62.8274
88.6515,63.2331
88.6223,63.2610
88.6227,63.2690
88.6220,63.2719
88.6200,63.2793
88.6139,63.2940
88.1139,63.2940
87.7936,63.1091
87.4186,62.8926
87.9186,62.8926
88.3992,63.1701
88.4043,63.1687
88.4193,63.1545
88.4191,63.1534
88.4345,63.1091
88.6692,62.7024
88.6692,62.7024
88.5397,62.6276
88.4999,62.6141
88.4580,62.5899
88.4264,62.5622
88.1886,62.4249
88.1886,62.4249
87.9186,62.8926
87.9186,62.8926
87.4186,62.8926
87.1441,62.7341
87.1441,62.7341
86.9868,63.0066
86.9629,63.0770
86.6291,63.0770
86.8935,62.5176
87.2691,62.5176
87.7021,62.7676
87.7021,62.7676
87.9721,62.2999
87.9721,62.2999
87.7343,62.1626
87.6639,62.1387
87.5646,62.1452
87.4754,62.1892
87.4264,62.2451
87.2691,62.5176
87.2691,62.5176
86.8935,62.5176
87.7664,60.6710
87.8129,60.6188
87.8785,60.6000
88.5000,60.6000
Z" /> 
</g>
</g>
<g style="fill:#000000; fill-opacity:1.0000; 
stroke:#000000; stroke-width:0.0000; stroke-opacity:1; 
stroke-linecap:round; stroke-linejoin:round;">
<g >
<path style="fill:#000000; fill-opacity:1.0000; 
stroke:#000000; stroke-width:0.0000; stroke-opacity:1; 
stroke-linecap:round; stroke-linejoin:round;fill-rule:evenodd;"
d="M 101.9414,54.7203
101.9877,54.7726
101.9995,54.8253
101.9995,72.9946
101.9990,73.0054
101.9955,73.0454
101.9831,73.1718
101.9795,73.1917
101.9621,73.2564
101.9610,73.2603
101.9333,73.3516
101.9270,73.3680
101.8963,73.4338
101.8933,73.4399
101.8510,73.5190
101.8432,73.5317
101.8004,73.5929
101.7947,73.6004
101.7388,73.6685
101.7307,73.6775
101.6775,73.7307
101.6685,73.7388
101.6004,73.7947
101.5929,73.8004
101.5317,73.8432
101.5190,73.8510
101.4399,73.8933
101.4338,73.8963
101.3680,73.9270
101.3516,73.9333
101.2603,73.9610
101.2564,73.9621
101.1917,73.9795
101.1718,73.9831
101.0454,73.9955
101.0261,73.9972
101.0054,73.9990
100.9946,73.9995
97.4740,73.9995
97.4070,73.9798
97.3612,73.9270
97.3500,73.8755
97.3500,54.8727
97.3697,54.8056
97.4225,54.7599
97.4727,54.7487
101.8742,54.7014
Z" /> 
</g>
</g>
<g style="fill:#000000; fill-opacity:1.0000; 
stroke:#000000; stroke-width:0.0000; stroke-opacity:1; 
stroke-linecap:round; stroke-linejoin:round;">
<g >
<path style="fill:#000000; fill-opacity:1.0000; 
stroke:#000000; stroke-width:0.0000; stroke-opacity:1; 
stroke-linecap:round; stroke-linejoin:round;fill-rule:evenodd;"
d="M 91.1458,65.5083
91.1458,65.5083
91.1009,71.4269
91.0807,71.4938
91.0276,71.5392
90.9769,71.5500
82.5740,71.5500
82.5070,71.5303
82.4612,71.4775
82.4500,71.4260
82.4500,70.5740
82.4697,70.5070
82.5225,70.4612
82.5740,70.4500
88.6500,70.4500
88.6500,70.4500
88.6922,65.8057
88.7088,65.7449
89.1137,65.0436
89.1376,64.9731
89.1361,64.9500
91.1500,64.9500
Z" /> 
</g>
</g>
</g>
<g style="fill:#FFFFFF; fill-opacity:1.0000; 
stroke:#FFFFFF; stroke-width:0.0000; stroke-opacity:1; 
stroke-linecap:round; stroke-linejoin:round;">
<circle cx="89.5000" cy="61.4000" r="0.2000" /> 
</g>
<g style="fill:#FFFFFF; fill-opacity:1.0000; 
stroke:#FFFFFF; stroke-width:0.0212; stroke-opacity:1; 
stroke-linecap:round; stroke-linejoin:round;">
</g>
<g style="fill:#FFFFFF; fill-opacity:1.0000; 
stroke:#FFFFFF; stroke-width:0.0000; stroke-opacity:1; 
stroke-linecap:round; stroke-linejoin:round;">
<circle cx="90.5000" cy="61.4000" r="0.2000" /> 
</g>
<g style="fill:#FFFFFF; fill-opacity:1.0000; 
stroke:#FFFFFF; stroke-width:0.0212; stroke-opacity:1; 
stroke-linecap:round; stroke-linejoin:round;">
</g>
<g style="fill:#FFFFFF; fill-opacity:1.0000; 
stroke:#FFFFFF; stroke-width:0.0000; stroke-opacity:1; 
stroke-linecap:round; stroke-linejoin:round;">
<circle cx="83.0000" cy="71.2000" r="0.2000" /> 
</g>
<g style="fill:#FFFFFF; fill-opacity:1.0000; 
stroke:#FFFFFF; stroke-width:0.0212; stroke-opacity:1; 
stroke-linecap:round; stroke-linejoin:round;">
</g>
<g style="fill:#FFFFFF; fill-opacity:1.0000; 
stroke:#FFFFFF; stroke-width:0.0000; stroke-opacity:1; 
stroke-linecap:round; stroke-linejoin:round;">
<circle cx="86.4000" cy="69.7500" r="0.2000" /> 
</g>
<g style="fill:#FFFFFF; fill-opacity:1.0000; 
stroke:#FFFFFF; stroke-width:0.0212; stroke-opacity:1; 
stroke-linecap:round; stroke-linejoin:round;">
</g>
<g style="fill:#FFFFFF; fill-opacity:1.0000; 
stroke:#FFFFFF; stroke-width:0.0000; stroke-opacity:1; 
stroke-linecap:round; stroke-linejoin:round;">
<circle cx="87.9000" cy="69.7500" r="0.2000" /> 
</g>
<g style="fill:#FFFFFF; fill-opacity:1.0000; 
stroke:#FFFFFF; stroke-width:0.0212; stroke-opacity:1; 
stroke-linecap:round; stroke-linejoin:round;">
</g>
<g style="fill:#FFFFFF; fill-opacity:1.0000; 
stroke:#FFFFFF; stroke-width:0.0000; stroke-opacity:1; 
stroke-linecap:round; stroke-linejoin:round;">
<circle cx="81.2500" cy="70.8000" r="0.2000" /> 
</g>
<g style="fill:#FFFFFF; fill-opacity:1.0000; 
stroke:#FFFFFF; stroke-width:0.0212; stroke-opacity:1; 
stroke-linecap:round; stroke-linejoin:round;">
</g>
<g style="fill:#FFFFFF; fill-opacity:1.0000; 
stroke:#FFFFFF; stroke-width:0.0000; stroke-opacity:1; 
stroke-linecap:round; stroke-linejoin:round;">
<circle cx="96.5500" cy="58.5000" r="0.2000" /> 
</g>
<g style="fill:#FFFFFF; fill-opacity:1.0000; 
stroke:#FFFFFF; stroke-width:0.0212; stroke-opacity:1; 
stroke-linecap:round; stroke-linejoin:round;">
</g>
<g style="fill:#FFFFFF; fill-opacity:1.0000; 
stroke:#FFFFFF; stroke-width:0.0000; stroke-opacity:1; 
stroke-linecap:round; stroke-linejoin:round;">
<circle cx="91.8000" cy="69.5000" r="0.2000" /> 
</g>
<g style="fill:#FFFFFF; fill-opacity:1.0000; 
stroke:#FFFFFF; stroke-width:0.0212; stroke-opacity:1; 
stroke-linecap:round; stroke-linejoin:round;">
</g>
<g style="fill:#FFFFFF; fill-opacity:1.0000; 
stroke:#FFFFFF; stroke-width:0.0000; stroke-opacity:1; 
stroke-linecap:round; stroke-linejoin:round;">
<circle cx="101.0500" cy="51.7500" r="0.2000" /> 
</g>
<g style="fill:#FFFFFF; fill-opacity:1.0000; 
stroke:#FFFFFF; stroke-width:0.0212; stroke-opacity:1; 
stroke-linecap:round; stroke-linejoin:round;">
</g>
<g style="fill:#FFFFFF; fill-opacity:1.0000; 
stroke:#FFFFFF; stroke-width:0.0000; stroke-opacity:1; 
stroke-linecap:round; stroke-linejoin:round;">
<circle cx="96.5000" cy="72.5500" r="0.2000" /> 
</g>
<g style="fill:#FFFFFF; fill-opacity:1.0000; 
stroke:#FFFFFF; stroke-width:0.0212; stroke-opacity:1; 
stroke-linecap:round; stroke-linejoin:round;">
</g>
<g style="fill:#FFFFFF; fill-opacity:1.0000; 
stroke:#FFFFFF; stroke-width:0.0000; stroke-opacity:1; 
stroke-linecap:round; stroke-linejoin:round;">
<circle cx="96.5000" cy="68.4000" r="0.2000" /> 
</g>
<g style="fill:#FFFFFF; fill-opacity:1.0000; 
stroke:#FFFFFF; stroke-width:0.0212; stroke-opacity:1; 
stroke-linecap:round; stroke-linejoin:round;">
</g>
<g style="fill:#FFFFFF; fill-opacity:1.0000; 
stroke:#FFFFFF; stroke-width:0.0000; stroke-opacity:1; 
stroke-linecap:round; stroke-linejoin:round;">
<circle cx="90.8000" cy="50.8500" r="0.2000" /> 
</g>
<g style="fill:#FFFFFF; fill-opacity:1.0000; 
stroke:#FFFFFF; stroke-width:0.0212; stroke-opacity:1; 
stroke-linecap:round; stroke-linejoin:round;">
</g>
<g style="fill:#FFFFFF; fill-opacity:1.0000; 
stroke:#FFFFFF; stroke-width:0.0000; stroke-opacity:1; 
stroke-linecap:round; stroke-linejoin:round;">
<circle cx="93.4500" cy="58.0500" r="0.2000" /> 
</g>
<g style="fill:#FFFFFF; fill-opacity:1.0000; 
stroke:#FFFFFF; stroke-width:0.0212; stroke-opacity:1; 
stroke-linecap:round; stroke-linejoin:round;">
</g>
<g style="fill:#FFFFFF; fill-opacity:1.0000; 
stroke:#FFFFFF; stroke-width:0.0000; stroke-opacity:1; 
stroke-linecap:round; stroke-linejoin:round;">
<circle cx="99.0400" cy="72.5400" r="0.2000" /> 
</g>
<g style="fill:#FFFFFF; fill-opacity:1.0000; 
stroke:#FFFFFF; stroke-width:0.0212; stroke-opacity:1; 
stroke-linecap:round; stroke-linejoin:round;">
</g>
<g style="fill:#FFFFFF; fill-opacity:1.0000; 
stroke:#FFFFFF; stroke-width:0.0000; stroke-opacity:1; 
stroke-linecap:round; stroke-linejoin:round;">
<circle cx="99.2000" cy="55.2000" r="0.2000" /> 
</g>
<g style="fill:#FFFFFF; fill-opacity:1.0000; 
stroke:#FFFFFF; stroke-width:0.0212; stroke-opacity:1; 
stroke-linecap:round; stroke-linejoin:round;">
</g>
<g style="fill:#FFFFFF; fill-opacity:1.0000; 
stroke:#FFFFFF; stroke-width:0.0000; stroke-opacity:1; 
stroke-linecap:round; stroke-linejoin:round;">
<circle cx="92.4000" cy="55.5000" r="0.2000" /> 
</g>
<g style="fill:#FFFFFF; fill-opacity:1.0000; 
stroke:#FFFFFF; stroke-width:0.0212; stroke-opacity:1; 
stroke-linecap:round; stroke-linejoin:round;">
</g>
<g style="fill:#FFFFFF; fill-opacity:1.0000; 
stroke:#FFFFFF; stroke-width:0.0000; stroke-opacity:1; 
stroke-linecap:round; stroke-linejoin:round;">
<circle cx="90.8000" cy="53.4000" r="0.2000" /> 
</g>
<g style="fill:#FFFFFF; fill-opacity:1.0000; 
stroke:#FFFFFF; stroke-width:0.0212; stroke-opacity:1; 
stroke-linecap:round; stroke-linejoin:round;">
</g>
<g style="fill:#FFFFFF; fill-opacity:1.0000; 
stroke:#FFFFFF; stroke-width:0.0000; stroke-opacity:1; 
stroke-linecap:round; stroke-linejoin:round;">
<circle cx="90.8000" cy="52.2000" r="0.2000" /> 
</g>
<g style="fill:#FFFFFF; fill-opacity:1.0000; 
stroke:#FFFFFF; stroke-width:0.0212; stroke-opacity:1; 
stroke-linecap:round; stroke-linejoin:round;">
</g>
<g style="fill:#000000; fill-opacity:1.0000; 
stroke:#000000; stroke-width:0.0212; stroke-opacity:1; 
stroke-linecap:round; stroke-linejoin:round;">
</g> 
</svg>
