<?xml version="1.0" standalone="no"?>
 <!DOCTYPE svg PUBLIC "-//W3C//DTD SVG 1.1//EN" 
 "http://www.w3.org/Graphics/SVG/1.1/DTD/svg11.dtd"> 
<svg
  xmlns:svg="http://www.w3.org/2000/svg"
  xmlns="http://www.w3.org/2000/svg"
  xmlns:xlink="http://www.w3.org/1999/xlink"
  version="1.1"
  width="297.0022mm" height="210.0072mm" viewBox="0.0000 0.0000 297.0022 210.0072">
<title>SVG Image created as pedalboard-led-ring-B_Mask.svg date 2023/05/29 11:01:28 </title>
  <desc>Image generated by PCBNEW </desc>
<g style="fill:#000000; fill-opacity:1.0000;stroke:#000000; stroke-opacity:1.0000;
stroke-linecap:round; stroke-linejoin:round;"
 transform="translate(0 0) scale(1 1)">
</g>
<g style="fill:#000000; fill-opacity:0.0; 
stroke:#000000; stroke-width:0.0000; stroke-opacity:1; 
stroke-linecap:round; stroke-linejoin:round;">
</g>
<g style="fill:#000000; fill-opacity:1.0000; 
stroke:#000000; stroke-width:0.0100; stroke-opacity:1; 
stroke-linecap:round; stroke-linejoin:round;">
<path style="fill:#000000; fill-opacity:1.0000; 
stroke:#000000; stroke-width:0.0100; stroke-opacity:1; 
stroke-linecap:round; stroke-linejoin:round;fill-rule:evenodd;"
d="M 87.3500,68.2000
86.1500,68.2000
86.1500,67.7000
85.0500,67.7000
85.0500,66.5000
86.1500,66.5000
86.1500,66.0000
87.3500,66.0000
Z" /> 
<path style="fill:#000000; fill-opacity:1.0000; 
stroke:#000000; stroke-width:0.0100; stroke-opacity:1; 
stroke-linecap:round; stroke-linejoin:round;fill-rule:evenodd;"
d="M 89.6500,66.5000
90.7500,66.5000
90.7500,67.7000
89.6500,67.7000
89.6500,68.2000
88.4500,68.2000
88.4500,66.0000
89.6500,66.0000
Z" /> 
<g >
</g>
<g >
</g>
<g >
</g>
<g >
</g>
<g >
</g>
<g >
</g>
<g >
</g>
<g style="fill:#000000; fill-opacity:1.0000; 
stroke:#000000; stroke-width:0.0100; stroke-opacity:1; 
stroke-linecap:round; stroke-linejoin:round;">
</g>
<g style="fill:#000000; fill-opacity:1.0000; 
stroke:#000000; stroke-width:0.0000; stroke-opacity:1; 
stroke-linecap:round; stroke-linejoin:round;">
<path style="fill:#000000; fill-opacity:1.0000; 
stroke:#000000; stroke-width:0.0000; stroke-opacity:1; 
stroke-linecap:round; stroke-linejoin:round;fill-rule:evenodd;"
d="M 91.4500,54.5550
91.4614,54.4976
91.4939,54.4489
91.5426,54.4164
91.6000,54.4050
93.2500,54.4050
93.3074,54.4164
93.3561,54.4489
93.3886,54.4976
93.4000,54.5550
93.4000,54.8550
93.3886,54.9124
93.3561,54.9611
93.3074,54.9936
93.2500,55.0050
91.6000,55.0050
91.5426,54.9936
91.4939,54.9611
91.4614,54.9124
91.4500,54.8550
Z" /> 
<path style="fill:#000000; fill-opacity:1.0000; 
stroke:#000000; stroke-width:0.0000; stroke-opacity:1; 
stroke-linecap:round; stroke-linejoin:round;fill-rule:evenodd;"
d="M 91.4500,53.2850
91.4614,53.2276
91.4939,53.1789
91.5426,53.1464
91.6000,53.1350
93.2500,53.1350
93.3074,53.1464
93.3561,53.1789
93.3886,53.2276
93.4000,53.2850
93.4000,53.5850
93.3886,53.6424
93.3561,53.6911
93.3074,53.7236
93.2500,53.7350
91.6000,53.7350
91.5426,53.7236
91.4939,53.6911
91.4614,53.6424
91.4500,53.5850
Z" /> 
<path style="fill:#000000; fill-opacity:1.0000; 
stroke:#000000; stroke-width:0.0000; stroke-opacity:1; 
stroke-linecap:round; stroke-linejoin:round;fill-rule:evenodd;"
d="M 91.4500,52.0150
91.4614,51.9576
91.4939,51.9089
91.5426,51.8764
91.6000,51.8650
93.2500,51.8650
93.3074,51.8764
93.3561,51.9089
93.3886,51.9576
93.4000,52.0150
93.4000,52.3150
93.3886,52.3724
93.3561,52.4211
93.3074,52.4536
93.2500,52.4650
91.6000,52.4650
91.5426,52.4536
91.4939,52.4211
91.4614,52.3724
91.4500,52.3150
Z" /> 
<path style="fill:#000000; fill-opacity:1.0000; 
stroke:#000000; stroke-width:0.0000; stroke-opacity:1; 
stroke-linecap:round; stroke-linejoin:round;fill-rule:evenodd;"
d="M 91.4500,50.7450
91.4614,50.6876
91.4939,50.6389
91.5426,50.6064
91.6000,50.5950
93.2500,50.5950
93.3074,50.6064
93.3561,50.6389
93.3886,50.6876
93.4000,50.7450
93.4000,51.0450
93.3886,51.1024
93.3561,51.1511
93.3074,51.1836
93.2500,51.1950
91.6000,51.1950
91.5426,51.1836
91.4939,51.1511
91.4614,51.1024
91.4500,51.0450
Z" /> 
<path style="fill:#000000; fill-opacity:1.0000; 
stroke:#000000; stroke-width:0.0000; stroke-opacity:1; 
stroke-linecap:round; stroke-linejoin:round;fill-rule:evenodd;"
d="M 96.4000,50.7450
96.4114,50.6876
96.4439,50.6389
96.4926,50.6064
96.5500,50.5950
98.2000,50.5950
98.2574,50.6064
98.3061,50.6389
98.3386,50.6876
98.3500,50.7450
98.3500,51.0450
98.3386,51.1024
98.3061,51.1511
98.2574,51.1836
98.2000,51.1950
96.5500,51.1950
96.4926,51.1836
96.4439,51.1511
96.4114,51.1024
96.4000,51.0450
Z" /> 
<path style="fill:#000000; fill-opacity:1.0000; 
stroke:#000000; stroke-width:0.0000; stroke-opacity:1; 
stroke-linecap:round; stroke-linejoin:round;fill-rule:evenodd;"
d="M 96.4000,52.0150
96.4114,51.9576
96.4439,51.9089
96.4926,51.8764
96.5500,51.8650
98.2000,51.8650
98.2574,51.8764
98.3061,51.9089
98.3386,51.9576
98.3500,52.0150
98.3500,52.3150
98.3386,52.3724
98.3061,52.4211
98.2574,52.4536
98.2000,52.4650
96.5500,52.4650
96.4926,52.4536
96.4439,52.4211
96.4114,52.3724
96.4000,52.3150
Z" /> 
<path style="fill:#000000; fill-opacity:1.0000; 
stroke:#000000; stroke-width:0.0000; stroke-opacity:1; 
stroke-linecap:round; stroke-linejoin:round;fill-rule:evenodd;"
d="M 96.4000,53.2850
96.4114,53.2276
96.4439,53.1789
96.4926,53.1464
96.5500,53.1350
98.2000,53.1350
98.2574,53.1464
98.3061,53.1789
98.3386,53.2276
98.3500,53.2850
98.3500,53.5850
98.3386,53.6424
98.3061,53.6911
98.2574,53.7236
98.2000,53.7350
96.5500,53.7350
96.4926,53.7236
96.4439,53.6911
96.4114,53.6424
96.4000,53.5850
Z" /> 
<path style="fill:#000000; fill-opacity:1.0000; 
stroke:#000000; stroke-width:0.0000; stroke-opacity:1; 
stroke-linecap:round; stroke-linejoin:round;fill-rule:evenodd;"
d="M 96.4000,54.5550
96.4114,54.4976
96.4439,54.4489
96.4926,54.4164
96.5500,54.4050
98.2000,54.4050
98.2574,54.4164
98.3061,54.4489
98.3386,54.4976
98.3500,54.5550
98.3500,54.8550
98.3386,54.9124
98.3061,54.9611
98.2574,54.9936
98.2000,55.0050
96.5500,55.0050
96.4926,54.9936
96.4439,54.9611
96.4114,54.9124
96.4000,54.8550
Z" /> 
</g>
<g >
</g>
<g >
</g>
<g style="fill:#000000; fill-opacity:1.0000; 
stroke:#000000; stroke-width:0.0000; stroke-opacity:1; 
stroke-linecap:round; stroke-linejoin:round;">
<path style="fill:#000000; fill-opacity:1.0000; 
stroke:#000000; stroke-width:0.0000; stroke-opacity:1; 
stroke-linecap:round; stroke-linejoin:round;fill-rule:evenodd;"
d="M 89.6750,58.9500
89.6940,58.8543
89.7482,58.7732
89.8293,58.7190
89.9250,58.7000
90.7500,58.7000
90.8457,58.7190
90.9268,58.7732
90.9810,58.8543
91.0000,58.9500
91.0000,60.2500
90.9810,60.3457
90.9268,60.4268
90.8457,60.4810
90.7500,60.5000
89.9250,60.5000
89.8293,60.4810
89.7482,60.4268
89.6940,60.3457
89.6750,60.2500
Z" /> 
<path style="fill:#000000; fill-opacity:1.0000; 
stroke:#000000; stroke-width:0.0000; stroke-opacity:1; 
stroke-linecap:round; stroke-linejoin:round;fill-rule:evenodd;"
d="M 92.8000,58.9500
92.8190,58.8543
92.8732,58.7732
92.9543,58.7190
93.0500,58.7000
93.8750,58.7000
93.9707,58.7190
94.0518,58.7732
94.1060,58.8543
94.1250,58.9500
94.1250,60.2500
94.1060,60.3457
94.0518,60.4268
93.9707,60.4810
93.8750,60.5000
93.0500,60.5000
92.9543,60.4810
92.8732,60.4268
92.8190,60.3457
92.8000,60.2500
Z" /> 
</g>
<g >
</g>
<g style="fill:#000000; fill-opacity:1.0000; 
stroke:#000000; stroke-width:0.0000; stroke-opacity:1; 
stroke-linecap:round; stroke-linejoin:round;">
<path style="fill:#000000; fill-opacity:1.0000; 
stroke:#000000; stroke-width:0.0000; stroke-opacity:1; 
stroke-linecap:round; stroke-linejoin:round;fill-rule:evenodd;"
d="M 93.4600,69.0200
94.4600,69.0200
94.4600,72.0200
93.4600,72.0200
Z" /> 
<path style="fill:#000000; fill-opacity:1.0000; 
stroke:#000000; stroke-width:0.0000; stroke-opacity:1; 
stroke-linecap:round; stroke-linejoin:round;fill-rule:evenodd;"
d="M 93.4600,63.9800
94.4600,63.9800
94.4600,66.9800
93.4600,66.9800
Z" /> 
<path style="fill:#000000; fill-opacity:1.0000; 
stroke:#000000; stroke-width:0.0000; stroke-opacity:1; 
stroke-linecap:round; stroke-linejoin:round;fill-rule:evenodd;"
d="M 96.0000,69.0200
97.0000,69.0200
97.0000,72.0200
96.0000,72.0200
Z" /> 
<path style="fill:#000000; fill-opacity:1.0000; 
stroke:#000000; stroke-width:0.0000; stroke-opacity:1; 
stroke-linecap:round; stroke-linejoin:round;fill-rule:evenodd;"
d="M 96.0000,63.9800
97.0000,63.9800
97.0000,66.9800
96.0000,66.9800
Z" /> 
<path style="fill:#000000; fill-opacity:1.0000; 
stroke:#000000; stroke-width:0.0000; stroke-opacity:1; 
stroke-linecap:round; stroke-linejoin:round;fill-rule:evenodd;"
d="M 98.5400,69.0200
99.5400,69.0200
99.5400,72.0200
98.5400,72.0200
Z" /> 
<path style="fill:#000000; fill-opacity:1.0000; 
stroke:#000000; stroke-width:0.0000; stroke-opacity:1; 
stroke-linecap:round; stroke-linejoin:round;fill-rule:evenodd;"
d="M 98.5400,63.9800
99.5400,63.9800
99.5400,66.9800
98.5400,66.9800
Z" /> 
</g>
<g >
</g>
<g style="fill:#000000; fill-opacity:1.0000; 
stroke:#000000; stroke-width:0.0000; stroke-opacity:1; 
stroke-linecap:round; stroke-linejoin:round;">
<path style="fill:#000000; fill-opacity:1.0000; 
stroke:#000000; stroke-width:0.0000; stroke-opacity:1; 
stroke-linecap:round; stroke-linejoin:round;fill-rule:evenodd;"
d="M 83.5000,70.6500
84.5000,70.6500
84.5000,71.6500
83.5000,71.6500
Z" /> 
<path style="fill:#000000; fill-opacity:1.0000; 
stroke:#000000; stroke-width:0.0000; stroke-opacity:1; 
stroke-linecap:round; stroke-linejoin:round;fill-rule:evenodd;"
d="M 83.5000,72.3500
84.5000,72.3500
84.5000,73.3500
83.5000,73.3500
Z" /> 
</g>
<g >
</g>
<g style="fill:#000000; fill-opacity:1.0000; 
stroke:#000000; stroke-width:0.0000; stroke-opacity:1; 
stroke-linecap:round; stroke-linejoin:round;">
<path style="fill:#000000; fill-opacity:1.0000; 
stroke:#000000; stroke-width:0.0000; stroke-opacity:1; 
stroke-linecap:round; stroke-linejoin:round;fill-rule:evenodd;"
d="M 100.3000,53.9500
99.3000,53.9500
99.3000,52.9500
100.3000,52.9500
Z" /> 
<path style="fill:#000000; fill-opacity:1.0000; 
stroke:#000000; stroke-width:0.0000; stroke-opacity:1; 
stroke-linecap:round; stroke-linejoin:round;fill-rule:evenodd;"
d="M 100.3000,52.2500
99.3000,52.2500
99.3000,51.2500
100.3000,51.2500
Z" /> 
</g>
<g >
</g>
<g style="fill:#000000; fill-opacity:1.0000; 
stroke:#000000; stroke-width:0.0000; stroke-opacity:1; 
stroke-linecap:round; stroke-linejoin:round;">
<path style="fill:#000000; fill-opacity:1.0000; 
stroke:#000000; stroke-width:0.0000; stroke-opacity:1; 
stroke-linecap:round; stroke-linejoin:round;fill-rule:evenodd;"
d="M 87.6750,71.1250
87.6750,71.3750
86.9750,71.3750
86.9750,71.1250
Z" /> 
<path style="fill:#000000; fill-opacity:1.0000; 
stroke:#000000; stroke-width:0.0000; stroke-opacity:1; 
stroke-linecap:round; stroke-linejoin:round;fill-rule:evenodd;"
d="M 87.6750,71.6250
87.6750,71.8750
86.9750,71.8750
86.9750,71.6250
Z" /> 
<path style="fill:#000000; fill-opacity:1.0000; 
stroke:#000000; stroke-width:0.0000; stroke-opacity:1; 
stroke-linecap:round; stroke-linejoin:round;fill-rule:evenodd;"
d="M 87.6750,72.1250
87.6750,72.3750
86.9750,72.3750
86.9750,72.1250
Z" /> 
<path style="fill:#000000; fill-opacity:1.0000; 
stroke:#000000; stroke-width:0.0000; stroke-opacity:1; 
stroke-linecap:round; stroke-linejoin:round;fill-rule:evenodd;"
d="M 87.6750,72.6250
87.6750,72.8750
86.9750,72.8750
86.9750,72.6250
Z" /> 
<path style="fill:#000000; fill-opacity:1.0000; 
stroke:#000000; stroke-width:0.0000; stroke-opacity:1; 
stroke-linecap:round; stroke-linejoin:round;fill-rule:evenodd;"
d="M 85.8250,72.6250
85.8250,72.8750
85.1250,72.8750
85.1250,72.6250
Z" /> 
<path style="fill:#000000; fill-opacity:1.0000; 
stroke:#000000; stroke-width:0.0000; stroke-opacity:1; 
stroke-linecap:round; stroke-linejoin:round;fill-rule:evenodd;"
d="M 85.8250,72.1250
85.8250,72.3750
85.1250,72.3750
85.1250,72.1250
Z" /> 
<path style="fill:#000000; fill-opacity:1.0000; 
stroke:#000000; stroke-width:0.0000; stroke-opacity:1; 
stroke-linecap:round; stroke-linejoin:round;fill-rule:evenodd;"
d="M 85.8250,71.6250
85.8250,71.8750
85.1250,71.8750
85.1250,71.6250
Z" /> 
<path style="fill:#000000; fill-opacity:1.0000; 
stroke:#000000; stroke-width:0.0000; stroke-opacity:1; 
stroke-linecap:round; stroke-linejoin:round;fill-rule:evenodd;"
d="M 85.8250,71.1250
85.8250,71.3750
85.1250,71.3750
85.1250,71.1250
Z" /> 
<path style="fill:#000000; fill-opacity:1.0000; 
stroke:#000000; stroke-width:0.0000; stroke-opacity:1; 
stroke-linecap:round; stroke-linejoin:round;fill-rule:evenodd;"
d="M 86.7050,70.9000
86.7050,73.1000
86.0950,73.1000
86.0950,70.9000
Z" /> 
</g>
<g >
</g>
<g style="fill:#000000; fill-opacity:1.0000; 
stroke:#000000; stroke-width:0.0000; stroke-opacity:1; 
stroke-linecap:round; stroke-linejoin:round;">
<path style="fill:#000000; fill-opacity:1.0000; 
stroke:#000000; stroke-width:0.0000; stroke-opacity:1; 
stroke-linecap:round; stroke-linejoin:round;fill-rule:evenodd;"
d="M 98.2750,55.8750
98.3707,55.8940
98.4518,55.9482
98.5060,56.0293
98.5250,56.1250
98.5250,56.8000
98.5060,56.8957
98.4518,56.9768
98.3707,57.0310
98.2750,57.0500
97.3250,57.0500
97.2293,57.0310
97.1482,56.9768
97.0940,56.8957
97.0750,56.8000
97.0750,56.1250
97.0940,56.0293
97.1482,55.9482
97.2293,55.8940
97.3250,55.8750
Z" /> 
<path style="fill:#000000; fill-opacity:1.0000; 
stroke:#000000; stroke-width:0.0000; stroke-opacity:1; 
stroke-linecap:round; stroke-linejoin:round;fill-rule:evenodd;"
d="M 98.2750,57.9500
98.3707,57.9690
98.4518,58.0232
98.5060,58.1043
98.5250,58.2000
98.5250,58.8750
98.5060,58.9707
98.4518,59.0518
98.3707,59.1060
98.2750,59.1250
97.3250,59.1250
97.2293,59.1060
97.1482,59.0518
97.0940,58.9707
97.0750,58.8750
97.0750,58.2000
97.0940,58.1043
97.1482,58.0232
97.2293,57.9690
97.3250,57.9500
Z" /> 
</g>
<g >
</g>
<g style="fill:#000000; fill-opacity:1.0000; 
stroke:#000000; stroke-width:0.0000; stroke-opacity:1; 
stroke-linecap:round; stroke-linejoin:round;">
<path style="fill:#000000; fill-opacity:1.0000; 
stroke:#000000; stroke-width:0.0000; stroke-opacity:1; 
stroke-linecap:round; stroke-linejoin:round;fill-rule:evenodd;"
d="M 84.5250,69.7750
84.5060,69.8707
84.4518,69.9518
84.3707,70.0060
84.2750,70.0250
83.6000,70.0250
83.5043,70.0060
83.4232,69.9518
83.3690,69.8707
83.3500,69.7750
83.3500,68.8250
83.3690,68.7293
83.4232,68.6482
83.5043,68.5940
83.6000,68.5750
84.2750,68.5750
84.3707,68.5940
84.4518,68.6482
84.5060,68.7293
84.5250,68.8250
Z" /> 
<path style="fill:#000000; fill-opacity:1.0000; 
stroke:#000000; stroke-width:0.0000; stroke-opacity:1; 
stroke-linecap:round; stroke-linejoin:round;fill-rule:evenodd;"
d="M 82.4500,69.7750
82.4310,69.8707
82.3768,69.9518
82.2957,70.0060
82.2000,70.0250
81.5250,70.0250
81.4293,70.0060
81.3482,69.9518
81.2940,69.8707
81.2750,69.7750
81.2750,68.8250
81.2940,68.7293
81.3482,68.6482
81.4293,68.5940
81.5250,68.5750
82.2000,68.5750
82.2957,68.5940
82.3768,68.6482
82.4310,68.7293
82.4500,68.8250
Z" /> 
</g>
<g >
</g>
<g style="fill:#000000; fill-opacity:1.0000; 
stroke:#000000; stroke-width:0.0000; stroke-opacity:1; 
stroke-linecap:round; stroke-linejoin:round;">
<path style="fill:#000000; fill-opacity:1.0000; 
stroke:#000000; stroke-width:0.0000; stroke-opacity:1; 
stroke-linecap:round; stroke-linejoin:round;fill-rule:evenodd;"
d="M 89.3500,73.3250
89.2543,73.3060
89.1732,73.2518
89.1190,73.1707
89.1000,73.0750
89.1000,72.2500
89.1190,72.1543
89.1732,72.0732
89.2543,72.0190
89.3500,72.0000
90.6500,72.0000
90.7457,72.0190
90.8268,72.0732
90.8810,72.1543
90.9000,72.2500
90.9000,73.0750
90.8810,73.1707
90.8268,73.2518
90.7457,73.3060
90.6500,73.3250
Z" /> 
<path style="fill:#000000; fill-opacity:1.0000; 
stroke:#000000; stroke-width:0.0000; stroke-opacity:1; 
stroke-linecap:round; stroke-linejoin:round;fill-rule:evenodd;"
d="M 89.3500,70.2000
89.2543,70.1810
89.1732,70.1268
89.1190,70.0457
89.1000,69.9500
89.1000,69.1250
89.1190,69.0293
89.1732,68.9482
89.2543,68.8940
89.3500,68.8750
90.6500,68.8750
90.7457,68.8940
90.8268,68.9482
90.8810,69.0293
90.9000,69.1250
90.9000,69.9500
90.8810,70.0457
90.8268,70.1268
90.7457,70.1810
90.6500,70.2000
Z" /> 
</g>
<g >
</g>
<g >
</g>
<g >
</g>
</g> 
</svg>
