<?xml version="1.0" standalone="no"?>
 <!DOCTYPE svg PUBLIC "-//W3C//DTD SVG 1.1//EN" 
 "http://www.w3.org/Graphics/SVG/1.1/DTD/svg11.dtd"> 
<svg
  xmlns:svg="http://www.w3.org/2000/svg"
  xmlns="http://www.w3.org/2000/svg"
  xmlns:xlink="http://www.w3.org/1999/xlink"
  version="1.1"
  width="297.0022mm" height="210.0072mm" viewBox="0.0000 0.0000 297.0022 210.0072">
<title>SVG Image created as pedalboard-led-ring-B_Fab.svg date 2023/05/31 21:07:42 </title>
  <desc>Image generated by PCBNEW </desc>
<g style="fill:#000000; fill-opacity:1.0000;stroke:#000000; stroke-opacity:1.0000;
stroke-linecap:round; stroke-linejoin:round;"
 transform="translate(0 0) scale(1 1)">
</g>
<g style="fill:#000000; fill-opacity:0.0; 
stroke:#000000; stroke-width:0.0000; stroke-opacity:1; 
stroke-linecap:round; stroke-linejoin:round;">
</g>
<g style="fill:#000000; fill-opacity:0.0; 
stroke:#000000; stroke-width:0.1500; stroke-opacity:1; 
stroke-linecap:round; stroke-linejoin:round;">
<g transform="rotate(-90.000000 87.5000 60.0000)">
<text x="87.5000" y="60.5000"
transform="scale(-1 1) translate(-175.000000 0)"
textLength="17.0798" font-size="1.3333" lengthAdjust="spacingAndGlyphs"
text-anchor="middle" opacity="0">Conn_02x02_Odd_Even</text>
</g>
<g class="stroked-text"><desc>Conn_02x02_Odd_Even</desc>
<path d="M87.8596 52.3571
L87.9072 52.3095
" />
<path d="M87.9072 52.3095
L87.9548 52.1667
" />
<path d="M87.9548 52.1667
L87.9548 52.0714
" />
<path d="M87.9548 52.0714
L87.9072 51.9286
" />
<path d="M87.9072 51.9286
L87.8120 51.8333
" />
<path d="M87.8120 51.8333
L87.7167 51.7857
" />
<path d="M87.7167 51.7857
L87.5262 51.7381
" />
<path d="M87.5262 51.7381
L87.3834 51.7381
" />
<path d="M87.3834 51.7381
L87.1929 51.7857
" />
<path d="M87.1929 51.7857
L87.0977 51.8333
" />
<path d="M87.0977 51.8333
L87.0024 51.9286
" />
<path d="M87.0024 51.9286
L86.9548 52.0714
" />
<path d="M86.9548 52.0714
L86.9548 52.1667
" />
<path d="M86.9548 52.1667
L87.0024 52.3095
" />
<path d="M87.0024 52.3095
L87.0501 52.3571
" />
<path d="M87.9548 52.9286
L87.9072 52.8333
" />
<path d="M87.9072 52.8333
L87.8596 52.7857
" />
<path d="M87.8596 52.7857
L87.7643 52.7381
" />
<path d="M87.7643 52.7381
L87.4786 52.7381
" />
<path d="M87.4786 52.7381
L87.3834 52.7857
" />
<path d="M87.3834 52.7857
L87.3358 52.8333
" />
<path d="M87.3358 52.8333
L87.2882 52.9286
" />
<path d="M87.2882 52.9286
L87.2882 53.0714
" />
<path d="M87.2882 53.0714
L87.3358 53.1667
" />
<path d="M87.3358 53.1667
L87.3834 53.2143
" />
<path d="M87.3834 53.2143
L87.4786 53.2619
" />
<path d="M87.4786 53.2619
L87.7643 53.2619
" />
<path d="M87.7643 53.2619
L87.8596 53.2143
" />
<path d="M87.8596 53.2143
L87.9072 53.1667
" />
<path d="M87.9072 53.1667
L87.9548 53.0714
" />
<path d="M87.9548 53.0714
L87.9548 52.9286
" />
<path d="M87.2882 53.6905
L87.9548 53.6905
" />
<path d="M87.3834 53.6905
L87.3358 53.7381
" />
<path d="M87.3358 53.7381
L87.2882 53.8333
" />
<path d="M87.2882 53.8333
L87.2882 53.9762
" />
<path d="M87.2882 53.9762
L87.3358 54.0714
" />
<path d="M87.3358 54.0714
L87.4310 54.1190
" />
<path d="M87.4310 54.1190
L87.9548 54.1190
" />
<path d="M87.2882 54.5952
L87.9548 54.5952
" />
<path d="M87.3834 54.5952
L87.3358 54.6429
" />
<path d="M87.3358 54.6429
L87.2882 54.7381
" />
<path d="M87.2882 54.7381
L87.2882 54.8810
" />
<path d="M87.2882 54.8810
L87.3358 54.9762
" />
<path d="M87.3358 54.9762
L87.4310 55.0238
" />
<path d="M87.4310 55.0238
L87.9548 55.0238
" />
<path d="M88.0501 55.2619
L88.0501 56.0238
" />
<path d="M86.9548 56.4524
L86.9548 56.5476
" />
<path d="M86.9548 56.5476
L87.0024 56.6429
" />
<path d="M87.0024 56.6429
L87.0501 56.6905
" />
<path d="M87.0501 56.6905
L87.1453 56.7381
" />
<path d="M87.1453 56.7381
L87.3358 56.7857
" />
<path d="M87.3358 56.7857
L87.5739 56.7857
" />
<path d="M87.5739 56.7857
L87.7643 56.7381
" />
<path d="M87.7643 56.7381
L87.8596 56.6905
" />
<path d="M87.8596 56.6905
L87.9072 56.6429
" />
<path d="M87.9072 56.6429
L87.9548 56.5476
" />
<path d="M87.9548 56.5476
L87.9548 56.4524
" />
<path d="M87.9548 56.4524
L87.9072 56.3571
" />
<path d="M87.9072 56.3571
L87.8596 56.3095
" />
<path d="M87.8596 56.3095
L87.7643 56.2619
" />
<path d="M87.7643 56.2619
L87.5739 56.2143
" />
<path d="M87.5739 56.2143
L87.3358 56.2143
" />
<path d="M87.3358 56.2143
L87.1453 56.2619
" />
<path d="M87.1453 56.2619
L87.0501 56.3095
" />
<path d="M87.0501 56.3095
L87.0024 56.3571
" />
<path d="M87.0024 56.3571
L86.9548 56.4524
" />
<path d="M87.0501 57.1667
L87.0024 57.2143
" />
<path d="M87.0024 57.2143
L86.9548 57.3095
" />
<path d="M86.9548 57.3095
L86.9548 57.5476
" />
<path d="M86.9548 57.5476
L87.0024 57.6429
" />
<path d="M87.0024 57.6429
L87.0501 57.6905
" />
<path d="M87.0501 57.6905
L87.1453 57.7381
" />
<path d="M87.1453 57.7381
L87.2405 57.7381
" />
<path d="M87.2405 57.7381
L87.3834 57.6905
" />
<path d="M87.3834 57.6905
L87.9548 57.1190
" />
<path d="M87.9548 57.1190
L87.9548 57.7381
" />
<path d="M87.9548 58.0714
L87.2882 58.5952
" />
<path d="M87.2882 58.0714
L87.9548 58.5952
" />
<path d="M86.9548 59.1667
L86.9548 59.2619
" />
<path d="M86.9548 59.2619
L87.0024 59.3571
" />
<path d="M87.0024 59.3571
L87.0501 59.4048
" />
<path d="M87.0501 59.4048
L87.1453 59.4524
" />
<path d="M87.1453 59.4524
L87.3358 59.5000
" />
<path d="M87.3358 59.5000
L87.5739 59.5000
" />
<path d="M87.5739 59.5000
L87.7643 59.4524
" />
<path d="M87.7643 59.4524
L87.8596 59.4048
" />
<path d="M87.8596 59.4048
L87.9072 59.3571
" />
<path d="M87.9072 59.3571
L87.9548 59.2619
" />
<path d="M87.9548 59.2619
L87.9548 59.1667
" />
<path d="M87.9548 59.1667
L87.9072 59.0714
" />
<path d="M87.9072 59.0714
L87.8596 59.0238
" />
<path d="M87.8596 59.0238
L87.7643 58.9762
" />
<path d="M87.7643 58.9762
L87.5739 58.9286
" />
<path d="M87.5739 58.9286
L87.3358 58.9286
" />
<path d="M87.3358 58.9286
L87.1453 58.9762
" />
<path d="M87.1453 58.9762
L87.0501 59.0238
" />
<path d="M87.0501 59.0238
L87.0024 59.0714
" />
<path d="M87.0024 59.0714
L86.9548 59.1667
" />
<path d="M87.0501 59.8810
L87.0024 59.9286
" />
<path d="M87.0024 59.9286
L86.9548 60.0238
" />
<path d="M86.9548 60.0238
L86.9548 60.2619
" />
<path d="M86.9548 60.2619
L87.0024 60.3571
" />
<path d="M87.0024 60.3571
L87.0501 60.4048
" />
<path d="M87.0501 60.4048
L87.1453 60.4524
" />
<path d="M87.1453 60.4524
L87.2405 60.4524
" />
<path d="M87.2405 60.4524
L87.3834 60.4048
" />
<path d="M87.3834 60.4048
L87.9548 59.8333
" />
<path d="M87.9548 59.8333
L87.9548 60.4524
" />
<path d="M88.0501 60.6429
L88.0501 61.4048
" />
<path d="M86.9548 61.8333
L86.9548 62.0238
" />
<path d="M86.9548 62.0238
L87.0024 62.1190
" />
<path d="M87.0024 62.1190
L87.0977 62.2143
" />
<path d="M87.0977 62.2143
L87.2882 62.2619
" />
<path d="M87.2882 62.2619
L87.6215 62.2619
" />
<path d="M87.6215 62.2619
L87.8120 62.2143
" />
<path d="M87.8120 62.2143
L87.9072 62.1190
" />
<path d="M87.9072 62.1190
L87.9548 62.0238
" />
<path d="M87.9548 62.0238
L87.9548 61.8333
" />
<path d="M87.9548 61.8333
L87.9072 61.7381
" />
<path d="M87.9072 61.7381
L87.8120 61.6429
" />
<path d="M87.8120 61.6429
L87.6215 61.5952
" />
<path d="M87.6215 61.5952
L87.2882 61.5952
" />
<path d="M87.2882 61.5952
L87.0977 61.6429
" />
<path d="M87.0977 61.6429
L87.0024 61.7381
" />
<path d="M87.0024 61.7381
L86.9548 61.8333
" />
<path d="M87.9548 63.1190
L86.9548 63.1190
" />
<path d="M87.9072 63.1190
L87.9548 63.0238
" />
<path d="M87.9548 63.0238
L87.9548 62.8333
" />
<path d="M87.9548 62.8333
L87.9072 62.7381
" />
<path d="M87.9072 62.7381
L87.8596 62.6905
" />
<path d="M87.8596 62.6905
L87.7643 62.6429
" />
<path d="M87.7643 62.6429
L87.4786 62.6429
" />
<path d="M87.4786 62.6429
L87.3834 62.6905
" />
<path d="M87.3834 62.6905
L87.3358 62.7381
" />
<path d="M87.3358 62.7381
L87.2882 62.8333
" />
<path d="M87.2882 62.8333
L87.2882 63.0238
" />
<path d="M87.2882 63.0238
L87.3358 63.1190
" />
<path d="M87.9548 64.0238
L86.9548 64.0238
" />
<path d="M87.9072 64.0238
L87.9548 63.9286
" />
<path d="M87.9548 63.9286
L87.9548 63.7381
" />
<path d="M87.9548 63.7381
L87.9072 63.6429
" />
<path d="M87.9072 63.6429
L87.8596 63.5952
" />
<path d="M87.8596 63.5952
L87.7643 63.5476
" />
<path d="M87.7643 63.5476
L87.4786 63.5476
" />
<path d="M87.4786 63.5476
L87.3834 63.5952
" />
<path d="M87.3834 63.5952
L87.3358 63.6429
" />
<path d="M87.3358 63.6429
L87.2882 63.7381
" />
<path d="M87.2882 63.7381
L87.2882 63.9286
" />
<path d="M87.2882 63.9286
L87.3358 64.0238
" />
<path d="M88.0501 64.2619
L88.0501 65.0238
" />
<path d="M87.4310 65.2619
L87.4310 65.5952
" />
<path d="M87.9548 65.7381
L87.9548 65.2619
" />
<path d="M87.9548 65.2619
L86.9548 65.2619
" />
<path d="M86.9548 65.2619
L86.9548 65.7381
" />
<path d="M87.2882 66.0714
L87.9548 66.3095
" />
<path d="M87.9548 66.3095
L87.2882 66.5476
" />
<path d="M87.9072 67.3095
L87.9548 67.2143
" />
<path d="M87.9548 67.2143
L87.9548 67.0238
" />
<path d="M87.9548 67.0238
L87.9072 66.9286
" />
<path d="M87.9072 66.9286
L87.8120 66.8810
" />
<path d="M87.8120 66.8810
L87.4310 66.8810
" />
<path d="M87.4310 66.8810
L87.3358 66.9286
" />
<path d="M87.3358 66.9286
L87.2882 67.0238
" />
<path d="M87.2882 67.0238
L87.2882 67.2143
" />
<path d="M87.2882 67.2143
L87.3358 67.3095
" />
<path d="M87.3358 67.3095
L87.4310 67.3571
" />
<path d="M87.4310 67.3571
L87.5262 67.3571
" />
<path d="M87.5262 67.3571
L87.6215 66.8810
" />
<path d="M87.2882 67.7857
L87.9548 67.7857
" />
<path d="M87.3834 67.7857
L87.3358 67.8333
" />
<path d="M87.3358 67.8333
L87.2882 67.9286
" />
<path d="M87.2882 67.9286
L87.2882 68.0714
" />
<path d="M87.2882 68.0714
L87.3358 68.1667
" />
<path d="M87.3358 68.1667
L87.4310 68.2143
" />
<path d="M87.4310 68.2143
L87.9548 68.2143
" />
</g><text x="91.0000" y="60.5000"
transform="scale(-1 1) translate(-182.000000 0)"
textLength="1.8893" font-size="1.3333" lengthAdjust="spacingAndGlyphs"
text-anchor="middle" opacity="0">J1</text>
<g class="stroked-text"><desc>J1</desc>
<path d="M91.3333 59.4548
L91.3333 60.1691
" />
<path d="M91.3333 60.1691
L91.3810 60.3120
" />
<path d="M91.3810 60.3120
L91.4762 60.4072
" />
<path d="M91.4762 60.4072
L91.6190 60.4548
" />
<path d="M91.6190 60.4548
L91.7143 60.4548
" />
<path d="M90.3333 60.4548
L90.9048 60.4548
" />
<path d="M90.6190 60.4548
L90.6190 59.4548
" />
<path d="M90.6190 59.4548
L90.7143 59.5977
" />
<path d="M90.7143 59.5977
L90.8095 59.6929
" />
<path d="M90.8095 59.6929
L90.9048 59.7405
" />
</g></g>
<g style="fill:#000000; fill-opacity:0.0; 
stroke:#000000; stroke-width:0.1000; stroke-opacity:1; 
stroke-linecap:round; stroke-linejoin:round;">
<path d="M89.7500 63.0000
L90.2500 63.0000
" />
<path d="M90.2500 63.0000
L90.2500 62.0000
" />
<path d="M91.7500 63.0000
L92.2500 63.0000
" />
<path d="M92.2500 63.0000
L92.2500 62.0000
" />
<path d="M89.0000 62.0000
L93.0000 62.0000
" />
<path d="M89.7500 62.0000
L89.7500 63.0000
" />
<path d="M91.7500 62.0000
L91.7500 63.0000
" />
<path d="M93.0000 62.0000
L93.0000 59.0000
" />
<path d="M93.0000 59.0000
L92.0000 58.0000
" />
<path d="M89.0000 58.0000
L89.0000 62.0000
" />
<path d="M90.2500 58.0000
L90.2500 57.0000
" />
<path d="M92.0000 58.0000
L89.0000 58.0000
" />
<path d="M92.2500 58.0000
L92.2500 57.0000
" />
<path d="M89.7500 57.0000
L89.7500 58.0000
" />
<path d="M90.2500 57.0000
L89.7500 57.0000
" />
<path d="M91.7500 57.0000
L91.7500 58.0000
" />
<path d="M92.2500 57.0000
L91.7500 57.0000
" />
<g >
</g>
<g >
</g>
<g >
</g>
<g >
</g>
<g >
</g>
<g >
</g>
<g >
</g>
<g >
</g>
<g >
</g>
<g >
</g>
<g >
</g>
<g >
</g>
<g >
</g>
<g >
</g>
<g >
</g>
<g >
</g>
<g >
</g>
<g >
</g>
<g >
</g>
<g >
</g>
<g >
</g>
<g >
</g>
<g >
</g>
<g >
</g>
<g >
</g>
<g >
</g>
<g >
</g>
<g >
</g>
</g> 
</svg>
