<?xml version="1.0" standalone="no"?>
 <!DOCTYPE svg PUBLIC "-//W3C//DTD SVG 1.1//EN" 
 "http://www.w3.org/Graphics/SVG/1.1/DTD/svg11.dtd"> 
<svg
  xmlns:svg="http://www.w3.org/2000/svg"
  xmlns="http://www.w3.org/2000/svg"
  xmlns:xlink="http://www.w3.org/1999/xlink"
  version="1.1"
  width="297.0022mm" height="210.0072mm" viewBox="0.0000 0.0000 297.0022 210.0072">
<title>SVG Image created as pedalboard-led-ring-B_Silkscreen.svg date 2023/05/29 11:01:28 </title>
  <desc>Image generated by PCBNEW </desc>
<g style="fill:#000000; fill-opacity:1.0000;stroke:#000000; stroke-opacity:1.0000;
stroke-linecap:round; stroke-linejoin:round;"
 transform="translate(0 0) scale(1 1)">
</g>
<g style="fill:#000000; fill-opacity:0.0; 
stroke:#000000; stroke-width:0.0000; stroke-opacity:1; 
stroke-linecap:round; stroke-linejoin:round;">
</g>
<g style="fill:#000000; fill-opacity:0.0; 
stroke:#000000; stroke-width:0.1000; stroke-opacity:1; 
stroke-linecap:round; stroke-linejoin:round;">
<circle cx="80.0000" cy="60.0000" r="7.0500" /> 
</g>
<g style="fill:#000000; fill-opacity:0.0; 
stroke:#000000; stroke-width:0.1500; stroke-opacity:1; 
stroke-linecap:round; stroke-linejoin:round;">
<text x="66.5000" y="47.7600"
transform="scale(-1 1) translate(-133.000000 0)"
textLength="16.1274" font-size="1.3333" lengthAdjust="spacingAndGlyphs"
text-anchor="end" opacity="0">Pedalboard LED Ring</text>
<g class="stroked-text"><desc>Pedalboard LED Ring</desc>
<path d="M82.2143 47.6376
L82.2143 46.6376
" />
<path d="M82.2143 46.6376
L81.8333 46.6376
" />
<path d="M81.8333 46.6376
L81.7381 46.6852
" />
<path d="M81.7381 46.6852
L81.6905 46.7329
" />
<path d="M81.6905 46.7329
L81.6429 46.8281
" />
<path d="M81.6429 46.8281
L81.6429 46.9710
" />
<path d="M81.6429 46.9710
L81.6905 47.0662
" />
<path d="M81.6905 47.0662
L81.7381 47.1138
" />
<path d="M81.7381 47.1138
L81.8333 47.1614
" />
<path d="M81.8333 47.1614
L82.2143 47.1614
" />
<path d="M80.8333 47.5900
L80.9286 47.6376
" />
<path d="M80.9286 47.6376
L81.1190 47.6376
" />
<path d="M81.1190 47.6376
L81.2143 47.5900
" />
<path d="M81.2143 47.5900
L81.2619 47.4948
" />
<path d="M81.2619 47.4948
L81.2619 47.1138
" />
<path d="M81.2619 47.1138
L81.2143 47.0186
" />
<path d="M81.2143 47.0186
L81.1190 46.9710
" />
<path d="M81.1190 46.9710
L80.9286 46.9710
" />
<path d="M80.9286 46.9710
L80.8333 47.0186
" />
<path d="M80.8333 47.0186
L80.7857 47.1138
" />
<path d="M80.7857 47.1138
L80.7857 47.2090
" />
<path d="M80.7857 47.2090
L81.2619 47.3043
" />
<path d="M79.9286 47.6376
L79.9286 46.6376
" />
<path d="M79.9286 47.5900
L80.0238 47.6376
" />
<path d="M80.0238 47.6376
L80.2143 47.6376
" />
<path d="M80.2143 47.6376
L80.3095 47.5900
" />
<path d="M80.3095 47.5900
L80.3571 47.5424
" />
<path d="M80.3571 47.5424
L80.4048 47.4471
" />
<path d="M80.4048 47.4471
L80.4048 47.1614
" />
<path d="M80.4048 47.1614
L80.3571 47.0662
" />
<path d="M80.3571 47.0662
L80.3095 47.0186
" />
<path d="M80.3095 47.0186
L80.2143 46.9710
" />
<path d="M80.2143 46.9710
L80.0238 46.9710
" />
<path d="M80.0238 46.9710
L79.9286 47.0186
" />
<path d="M79.0238 47.6376
L79.0238 47.1138
" />
<path d="M79.0238 47.1138
L79.0714 47.0186
" />
<path d="M79.0714 47.0186
L79.1667 46.9710
" />
<path d="M79.1667 46.9710
L79.3571 46.9710
" />
<path d="M79.3571 46.9710
L79.4524 47.0186
" />
<path d="M79.0238 47.5900
L79.1190 47.6376
" />
<path d="M79.1190 47.6376
L79.3571 47.6376
" />
<path d="M79.3571 47.6376
L79.4524 47.5900
" />
<path d="M79.4524 47.5900
L79.5000 47.4948
" />
<path d="M79.5000 47.4948
L79.5000 47.3995
" />
<path d="M79.5000 47.3995
L79.4524 47.3043
" />
<path d="M79.4524 47.3043
L79.3571 47.2567
" />
<path d="M79.3571 47.2567
L79.1190 47.2567
" />
<path d="M79.1190 47.2567
L79.0238 47.2090
" />
<path d="M78.4048 47.6376
L78.5000 47.5900
" />
<path d="M78.5000 47.5900
L78.5476 47.4948
" />
<path d="M78.5476 47.4948
L78.5476 46.6376
" />
<path d="M78.0238 47.6376
L78.0238 46.6376
" />
<path d="M78.0238 47.0186
L77.9286 46.9710
" />
<path d="M77.9286 46.9710
L77.7381 46.9710
" />
<path d="M77.7381 46.9710
L77.6429 47.0186
" />
<path d="M77.6429 47.0186
L77.5952 47.0662
" />
<path d="M77.5952 47.0662
L77.5476 47.1614
" />
<path d="M77.5476 47.1614
L77.5476 47.4471
" />
<path d="M77.5476 47.4471
L77.5952 47.5424
" />
<path d="M77.5952 47.5424
L77.6429 47.5900
" />
<path d="M77.6429 47.5900
L77.7381 47.6376
" />
<path d="M77.7381 47.6376
L77.9286 47.6376
" />
<path d="M77.9286 47.6376
L78.0238 47.5900
" />
<path d="M76.9762 47.6376
L77.0714 47.5900
" />
<path d="M77.0714 47.5900
L77.1190 47.5424
" />
<path d="M77.1190 47.5424
L77.1667 47.4471
" />
<path d="M77.1667 47.4471
L77.1667 47.1614
" />
<path d="M77.1667 47.1614
L77.1190 47.0662
" />
<path d="M77.1190 47.0662
L77.0714 47.0186
" />
<path d="M77.0714 47.0186
L76.9762 46.9710
" />
<path d="M76.9762 46.9710
L76.8333 46.9710
" />
<path d="M76.8333 46.9710
L76.7381 47.0186
" />
<path d="M76.7381 47.0186
L76.6905 47.0662
" />
<path d="M76.6905 47.0662
L76.6429 47.1614
" />
<path d="M76.6429 47.1614
L76.6429 47.4471
" />
<path d="M76.6429 47.4471
L76.6905 47.5424
" />
<path d="M76.6905 47.5424
L76.7381 47.5900
" />
<path d="M76.7381 47.5900
L76.8333 47.6376
" />
<path d="M76.8333 47.6376
L76.9762 47.6376
" />
<path d="M75.7857 47.6376
L75.7857 47.1138
" />
<path d="M75.7857 47.1138
L75.8333 47.0186
" />
<path d="M75.8333 47.0186
L75.9286 46.9710
" />
<path d="M75.9286 46.9710
L76.1190 46.9710
" />
<path d="M76.1190 46.9710
L76.2143 47.0186
" />
<path d="M75.7857 47.5900
L75.8810 47.6376
" />
<path d="M75.8810 47.6376
L76.1190 47.6376
" />
<path d="M76.1190 47.6376
L76.2143 47.5900
" />
<path d="M76.2143 47.5900
L76.2619 47.4948
" />
<path d="M76.2619 47.4948
L76.2619 47.3995
" />
<path d="M76.2619 47.3995
L76.2143 47.3043
" />
<path d="M76.2143 47.3043
L76.1190 47.2567
" />
<path d="M76.1190 47.2567
L75.8810 47.2567
" />
<path d="M75.8810 47.2567
L75.7857 47.2090
" />
<path d="M75.3095 47.6376
L75.3095 46.9710
" />
<path d="M75.3095 47.1614
L75.2619 47.0662
" />
<path d="M75.2619 47.0662
L75.2143 47.0186
" />
<path d="M75.2143 47.0186
L75.1190 46.9710
" />
<path d="M75.1190 46.9710
L75.0238 46.9710
" />
<path d="M74.2619 47.6376
L74.2619 46.6376
" />
<path d="M74.2619 47.5900
L74.3571 47.6376
" />
<path d="M74.3571 47.6376
L74.5476 47.6376
" />
<path d="M74.5476 47.6376
L74.6429 47.5900
" />
<path d="M74.6429 47.5900
L74.6905 47.5424
" />
<path d="M74.6905 47.5424
L74.7381 47.4471
" />
<path d="M74.7381 47.4471
L74.7381 47.1614
" />
<path d="M74.7381 47.1614
L74.6905 47.0662
" />
<path d="M74.6905 47.0662
L74.6429 47.0186
" />
<path d="M74.6429 47.0186
L74.5476 46.9710
" />
<path d="M74.5476 46.9710
L74.3571 46.9710
" />
<path d="M74.3571 46.9710
L74.2619 47.0186
" />
<path d="M72.5476 47.6376
L73.0238 47.6376
" />
<path d="M73.0238 47.6376
L73.0238 46.6376
" />
<path d="M72.2143 47.1138
L71.8810 47.1138
" />
<path d="M71.7381 47.6376
L72.2143 47.6376
" />
<path d="M72.2143 47.6376
L72.2143 46.6376
" />
<path d="M72.2143 46.6376
L71.7381 46.6376
" />
<path d="M71.3095 47.6376
L71.3095 46.6376
" />
<path d="M71.3095 46.6376
L71.0714 46.6376
" />
<path d="M71.0714 46.6376
L70.9286 46.6852
" />
<path d="M70.9286 46.6852
L70.8333 46.7805
" />
<path d="M70.8333 46.7805
L70.7857 46.8757
" />
<path d="M70.7857 46.8757
L70.7381 47.0662
" />
<path d="M70.7381 47.0662
L70.7381 47.2090
" />
<path d="M70.7381 47.2090
L70.7857 47.3995
" />
<path d="M70.7857 47.3995
L70.8333 47.4948
" />
<path d="M70.8333 47.4948
L70.9286 47.5900
" />
<path d="M70.9286 47.5900
L71.0714 47.6376
" />
<path d="M71.0714 47.6376
L71.3095 47.6376
" />
<path d="M68.9762 47.6376
L69.3095 47.1614
" />
<path d="M69.5476 47.6376
L69.5476 46.6376
" />
<path d="M69.5476 46.6376
L69.1667 46.6376
" />
<path d="M69.1667 46.6376
L69.0714 46.6852
" />
<path d="M69.0714 46.6852
L69.0238 46.7329
" />
<path d="M69.0238 46.7329
L68.9762 46.8281
" />
<path d="M68.9762 46.8281
L68.9762 46.9710
" />
<path d="M68.9762 46.9710
L69.0238 47.0662
" />
<path d="M69.0238 47.0662
L69.0714 47.1138
" />
<path d="M69.0714 47.1138
L69.1667 47.1614
" />
<path d="M69.1667 47.1614
L69.5476 47.1614
" />
<path d="M68.5476 47.6376
L68.5476 46.9710
" />
<path d="M68.5476 46.6376
L68.5952 46.6852
" />
<path d="M68.5952 46.6852
L68.5476 46.7329
" />
<path d="M68.5476 46.7329
L68.5000 46.6852
" />
<path d="M68.5000 46.6852
L68.5476 46.6376
" />
<path d="M68.5476 46.6376
L68.5476 46.7329
" />
<path d="M68.0714 46.9710
L68.0714 47.6376
" />
<path d="M68.0714 47.0662
L68.0238 47.0186
" />
<path d="M68.0238 47.0186
L67.9286 46.9710
" />
<path d="M67.9286 46.9710
L67.7857 46.9710
" />
<path d="M67.7857 46.9710
L67.6905 47.0186
" />
<path d="M67.6905 47.0186
L67.6429 47.1138
" />
<path d="M67.6429 47.1138
L67.6429 47.6376
" />
<path d="M66.7381 46.9710
L66.7381 47.7805
" />
<path d="M66.7381 47.7805
L66.7857 47.8757
" />
<path d="M66.7857 47.8757
L66.8333 47.9233
" />
<path d="M66.8333 47.9233
L66.9286 47.9710
" />
<path d="M66.9286 47.9710
L67.0714 47.9710
" />
<path d="M67.0714 47.9710
L67.1667 47.9233
" />
<path d="M66.7381 47.5900
L66.8333 47.6376
" />
<path d="M66.8333 47.6376
L67.0238 47.6376
" />
<path d="M67.0238 47.6376
L67.1190 47.5900
" />
<path d="M67.1190 47.5900
L67.1667 47.5424
" />
<path d="M67.1667 47.5424
L67.2143 47.4471
" />
<path d="M67.2143 47.4471
L67.2143 47.1614
" />
<path d="M67.2143 47.1614
L67.1667 47.0662
" />
<path d="M67.1667 47.0662
L67.1190 47.0186
" />
<path d="M67.1190 47.0186
L67.0238 46.9710
" />
<path d="M67.0238 46.9710
L66.8333 46.9710
" />
<path d="M66.8333 46.9710
L66.7381 47.0186
" />
</g><text x="66.5000" y="49.3800"
transform="scale(-1 1) translate(-133.000000 0)"
textLength="24.1274" font-size="1.3333" lengthAdjust="spacingAndGlyphs"
text-anchor="end" opacity="0">https://github.com/pedalboard</text>
<g class="stroked-text"><desc>https://github.com/pedalboard</desc>
<path d="M90.2143 49.2576
L90.2143 48.2576
" />
<path d="M89.7857 49.2576
L89.7857 48.7338
" />
<path d="M89.7857 48.7338
L89.8333 48.6386
" />
<path d="M89.8333 48.6386
L89.9286 48.5910
" />
<path d="M89.9286 48.5910
L90.0714 48.5910
" />
<path d="M90.0714 48.5910
L90.1667 48.6386
" />
<path d="M90.1667 48.6386
L90.2143 48.6862
" />
<path d="M89.4524 48.5910
L89.0714 48.5910
" />
<path d="M89.3095 48.2576
L89.3095 49.1148
" />
<path d="M89.3095 49.1148
L89.2619 49.2100
" />
<path d="M89.2619 49.2100
L89.1667 49.2576
" />
<path d="M89.1667 49.2576
L89.0714 49.2576
" />
<path d="M88.8810 48.5910
L88.5000 48.5910
" />
<path d="M88.7381 48.2576
L88.7381 49.1148
" />
<path d="M88.7381 49.1148
L88.6905 49.2100
" />
<path d="M88.6905 49.2100
L88.5952 49.2576
" />
<path d="M88.5952 49.2576
L88.5000 49.2576
" />
<path d="M88.1667 48.5910
L88.1667 49.5910
" />
<path d="M88.1667 48.6386
L88.0714 48.5910
" />
<path d="M88.0714 48.5910
L87.8810 48.5910
" />
<path d="M87.8810 48.5910
L87.7857 48.6386
" />
<path d="M87.7857 48.6386
L87.7381 48.6862
" />
<path d="M87.7381 48.6862
L87.6905 48.7814
" />
<path d="M87.6905 48.7814
L87.6905 49.0671
" />
<path d="M87.6905 49.0671
L87.7381 49.1624
" />
<path d="M87.7381 49.1624
L87.7857 49.2100
" />
<path d="M87.7857 49.2100
L87.8810 49.2576
" />
<path d="M87.8810 49.2576
L88.0714 49.2576
" />
<path d="M88.0714 49.2576
L88.1667 49.2100
" />
<path d="M87.3095 49.2100
L87.2143 49.2576
" />
<path d="M87.2143 49.2576
L87.0238 49.2576
" />
<path d="M87.0238 49.2576
L86.9286 49.2100
" />
<path d="M86.9286 49.2100
L86.8810 49.1148
" />
<path d="M86.8810 49.1148
L86.8810 49.0671
" />
<path d="M86.8810 49.0671
L86.9286 48.9719
" />
<path d="M86.9286 48.9719
L87.0238 48.9243
" />
<path d="M87.0238 48.9243
L87.1667 48.9243
" />
<path d="M87.1667 48.9243
L87.2619 48.8767
" />
<path d="M87.2619 48.8767
L87.3095 48.7814
" />
<path d="M87.3095 48.7814
L87.3095 48.7338
" />
<path d="M87.3095 48.7338
L87.2619 48.6386
" />
<path d="M87.2619 48.6386
L87.1667 48.5910
" />
<path d="M87.1667 48.5910
L87.0238 48.5910
" />
<path d="M87.0238 48.5910
L86.9286 48.6386
" />
<path d="M86.4524 49.1624
L86.4048 49.2100
" />
<path d="M86.4048 49.2100
L86.4524 49.2576
" />
<path d="M86.4524 49.2576
L86.5000 49.2100
" />
<path d="M86.5000 49.2100
L86.4524 49.1624
" />
<path d="M86.4524 49.1624
L86.4524 49.2576
" />
<path d="M86.4524 48.6386
L86.4048 48.6862
" />
<path d="M86.4048 48.6862
L86.4524 48.7338
" />
<path d="M86.4524 48.7338
L86.5000 48.6862
" />
<path d="M86.5000 48.6862
L86.4524 48.6386
" />
<path d="M86.4524 48.6386
L86.4524 48.7338
" />
<path d="M85.2619 48.2100
L86.1190 49.4957
" />
<path d="M84.2143 48.2100
L85.0714 49.4957
" />
<path d="M83.4524 48.5910
L83.4524 49.4005
" />
<path d="M83.4524 49.4005
L83.5000 49.4957
" />
<path d="M83.5000 49.4957
L83.5476 49.5433
" />
<path d="M83.5476 49.5433
L83.6429 49.5910
" />
<path d="M83.6429 49.5910
L83.7857 49.5910
" />
<path d="M83.7857 49.5910
L83.8810 49.5433
" />
<path d="M83.4524 49.2100
L83.5476 49.2576
" />
<path d="M83.5476 49.2576
L83.7381 49.2576
" />
<path d="M83.7381 49.2576
L83.8333 49.2100
" />
<path d="M83.8333 49.2100
L83.8810 49.1624
" />
<path d="M83.8810 49.1624
L83.9286 49.0671
" />
<path d="M83.9286 49.0671
L83.9286 48.7814
" />
<path d="M83.9286 48.7814
L83.8810 48.6862
" />
<path d="M83.8810 48.6862
L83.8333 48.6386
" />
<path d="M83.8333 48.6386
L83.7381 48.5910
" />
<path d="M83.7381 48.5910
L83.5476 48.5910
" />
<path d="M83.5476 48.5910
L83.4524 48.6386
" />
<path d="M82.9762 49.2576
L82.9762 48.5910
" />
<path d="M82.9762 48.2576
L83.0238 48.3052
" />
<path d="M83.0238 48.3052
L82.9762 48.3529
" />
<path d="M82.9762 48.3529
L82.9286 48.3052
" />
<path d="M82.9286 48.3052
L82.9762 48.2576
" />
<path d="M82.9762 48.2576
L82.9762 48.3529
" />
<path d="M82.6429 48.5910
L82.2619 48.5910
" />
<path d="M82.5000 48.2576
L82.5000 49.1148
" />
<path d="M82.5000 49.1148
L82.4524 49.2100
" />
<path d="M82.4524 49.2100
L82.3571 49.2576
" />
<path d="M82.3571 49.2576
L82.2619 49.2576
" />
<path d="M81.9286 49.2576
L81.9286 48.2576
" />
<path d="M81.5000 49.2576
L81.5000 48.7338
" />
<path d="M81.5000 48.7338
L81.5476 48.6386
" />
<path d="M81.5476 48.6386
L81.6429 48.5910
" />
<path d="M81.6429 48.5910
L81.7857 48.5910
" />
<path d="M81.7857 48.5910
L81.8810 48.6386
" />
<path d="M81.8810 48.6386
L81.9286 48.6862
" />
<path d="M80.5952 48.5910
L80.5952 49.2576
" />
<path d="M81.0238 48.5910
L81.0238 49.1148
" />
<path d="M81.0238 49.1148
L80.9762 49.2100
" />
<path d="M80.9762 49.2100
L80.8810 49.2576
" />
<path d="M80.8810 49.2576
L80.7381 49.2576
" />
<path d="M80.7381 49.2576
L80.6429 49.2100
" />
<path d="M80.6429 49.2100
L80.5952 49.1624
" />
<path d="M80.1190 49.2576
L80.1190 48.2576
" />
<path d="M80.1190 48.6386
L80.0238 48.5910
" />
<path d="M80.0238 48.5910
L79.8333 48.5910
" />
<path d="M79.8333 48.5910
L79.7381 48.6386
" />
<path d="M79.7381 48.6386
L79.6905 48.6862
" />
<path d="M79.6905 48.6862
L79.6429 48.7814
" />
<path d="M79.6429 48.7814
L79.6429 49.0671
" />
<path d="M79.6429 49.0671
L79.6905 49.1624
" />
<path d="M79.6905 49.1624
L79.7381 49.2100
" />
<path d="M79.7381 49.2100
L79.8333 49.2576
" />
<path d="M79.8333 49.2576
L80.0238 49.2576
" />
<path d="M80.0238 49.2576
L80.1190 49.2100
" />
<path d="M79.2143 49.1624
L79.1667 49.2100
" />
<path d="M79.1667 49.2100
L79.2143 49.2576
" />
<path d="M79.2143 49.2576
L79.2619 49.2100
" />
<path d="M79.2619 49.2100
L79.2143 49.1624
" />
<path d="M79.2143 49.1624
L79.2143 49.2576
" />
<path d="M78.3095 49.2100
L78.4048 49.2576
" />
<path d="M78.4048 49.2576
L78.5952 49.2576
" />
<path d="M78.5952 49.2576
L78.6905 49.2100
" />
<path d="M78.6905 49.2100
L78.7381 49.1624
" />
<path d="M78.7381 49.1624
L78.7857 49.0671
" />
<path d="M78.7857 49.0671
L78.7857 48.7814
" />
<path d="M78.7857 48.7814
L78.7381 48.6862
" />
<path d="M78.7381 48.6862
L78.6905 48.6386
" />
<path d="M78.6905 48.6386
L78.5952 48.5910
" />
<path d="M78.5952 48.5910
L78.4048 48.5910
" />
<path d="M78.4048 48.5910
L78.3095 48.6386
" />
<path d="M77.7381 49.2576
L77.8333 49.2100
" />
<path d="M77.8333 49.2100
L77.8810 49.1624
" />
<path d="M77.8810 49.1624
L77.9286 49.0671
" />
<path d="M77.9286 49.0671
L77.9286 48.7814
" />
<path d="M77.9286 48.7814
L77.8810 48.6862
" />
<path d="M77.8810 48.6862
L77.8333 48.6386
" />
<path d="M77.8333 48.6386
L77.7381 48.5910
" />
<path d="M77.7381 48.5910
L77.5952 48.5910
" />
<path d="M77.5952 48.5910
L77.5000 48.6386
" />
<path d="M77.5000 48.6386
L77.4524 48.6862
" />
<path d="M77.4524 48.6862
L77.4048 48.7814
" />
<path d="M77.4048 48.7814
L77.4048 49.0671
" />
<path d="M77.4048 49.0671
L77.4524 49.1624
" />
<path d="M77.4524 49.1624
L77.5000 49.2100
" />
<path d="M77.5000 49.2100
L77.5952 49.2576
" />
<path d="M77.5952 49.2576
L77.7381 49.2576
" />
<path d="M76.9762 49.2576
L76.9762 48.5910
" />
<path d="M76.9762 48.6862
L76.9286 48.6386
" />
<path d="M76.9286 48.6386
L76.8333 48.5910
" />
<path d="M76.8333 48.5910
L76.6905 48.5910
" />
<path d="M76.6905 48.5910
L76.5952 48.6386
" />
<path d="M76.5952 48.6386
L76.5476 48.7338
" />
<path d="M76.5476 48.7338
L76.5476 49.2576
" />
<path d="M76.5476 48.7338
L76.5000 48.6386
" />
<path d="M76.5000 48.6386
L76.4048 48.5910
" />
<path d="M76.4048 48.5910
L76.2619 48.5910
" />
<path d="M76.2619 48.5910
L76.1667 48.6386
" />
<path d="M76.1667 48.6386
L76.1190 48.7338
" />
<path d="M76.1190 48.7338
L76.1190 49.2576
" />
<path d="M74.9286 48.2100
L75.7857 49.4957
" />
<path d="M74.5952 48.5910
L74.5952 49.5910
" />
<path d="M74.5952 48.6386
L74.5000 48.5910
" />
<path d="M74.5000 48.5910
L74.3095 48.5910
" />
<path d="M74.3095 48.5910
L74.2143 48.6386
" />
<path d="M74.2143 48.6386
L74.1667 48.6862
" />
<path d="M74.1667 48.6862
L74.1190 48.7814
" />
<path d="M74.1190 48.7814
L74.1190 49.0671
" />
<path d="M74.1190 49.0671
L74.1667 49.1624
" />
<path d="M74.1667 49.1624
L74.2143 49.2100
" />
<path d="M74.2143 49.2100
L74.3095 49.2576
" />
<path d="M74.3095 49.2576
L74.5000 49.2576
" />
<path d="M74.5000 49.2576
L74.5952 49.2100
" />
<path d="M73.3095 49.2100
L73.4048 49.2576
" />
<path d="M73.4048 49.2576
L73.5952 49.2576
" />
<path d="M73.5952 49.2576
L73.6905 49.2100
" />
<path d="M73.6905 49.2100
L73.7381 49.1148
" />
<path d="M73.7381 49.1148
L73.7381 48.7338
" />
<path d="M73.7381 48.7338
L73.6905 48.6386
" />
<path d="M73.6905 48.6386
L73.5952 48.5910
" />
<path d="M73.5952 48.5910
L73.4048 48.5910
" />
<path d="M73.4048 48.5910
L73.3095 48.6386
" />
<path d="M73.3095 48.6386
L73.2619 48.7338
" />
<path d="M73.2619 48.7338
L73.2619 48.8290
" />
<path d="M73.2619 48.8290
L73.7381 48.9243
" />
<path d="M72.4048 49.2576
L72.4048 48.2576
" />
<path d="M72.4048 49.2100
L72.5000 49.2576
" />
<path d="M72.5000 49.2576
L72.6905 49.2576
" />
<path d="M72.6905 49.2576
L72.7857 49.2100
" />
<path d="M72.7857 49.2100
L72.8333 49.1624
" />
<path d="M72.8333 49.1624
L72.8810 49.0671
" />
<path d="M72.8810 49.0671
L72.8810 48.7814
" />
<path d="M72.8810 48.7814
L72.8333 48.6862
" />
<path d="M72.8333 48.6862
L72.7857 48.6386
" />
<path d="M72.7857 48.6386
L72.6905 48.5910
" />
<path d="M72.6905 48.5910
L72.5000 48.5910
" />
<path d="M72.5000 48.5910
L72.4048 48.6386
" />
<path d="M71.5000 49.2576
L71.5000 48.7338
" />
<path d="M71.5000 48.7338
L71.5476 48.6386
" />
<path d="M71.5476 48.6386
L71.6429 48.5910
" />
<path d="M71.6429 48.5910
L71.8333 48.5910
" />
<path d="M71.8333 48.5910
L71.9286 48.6386
" />
<path d="M71.5000 49.2100
L71.5952 49.2576
" />
<path d="M71.5952 49.2576
L71.8333 49.2576
" />
<path d="M71.8333 49.2576
L71.9286 49.2100
" />
<path d="M71.9286 49.2100
L71.9762 49.1148
" />
<path d="M71.9762 49.1148
L71.9762 49.0195
" />
<path d="M71.9762 49.0195
L71.9286 48.9243
" />
<path d="M71.9286 48.9243
L71.8333 48.8767
" />
<path d="M71.8333 48.8767
L71.5952 48.8767
" />
<path d="M71.5952 48.8767
L71.5000 48.8290
" />
<path d="M70.8810 49.2576
L70.9762 49.2100
" />
<path d="M70.9762 49.2100
L71.0238 49.1148
" />
<path d="M71.0238 49.1148
L71.0238 48.2576
" />
<path d="M70.5000 49.2576
L70.5000 48.2576
" />
<path d="M70.5000 48.6386
L70.4048 48.5910
" />
<path d="M70.4048 48.5910
L70.2143 48.5910
" />
<path d="M70.2143 48.5910
L70.1190 48.6386
" />
<path d="M70.1190 48.6386
L70.0714 48.6862
" />
<path d="M70.0714 48.6862
L70.0238 48.7814
" />
<path d="M70.0238 48.7814
L70.0238 49.0671
" />
<path d="M70.0238 49.0671
L70.0714 49.1624
" />
<path d="M70.0714 49.1624
L70.1190 49.2100
" />
<path d="M70.1190 49.2100
L70.2143 49.2576
" />
<path d="M70.2143 49.2576
L70.4048 49.2576
" />
<path d="M70.4048 49.2576
L70.5000 49.2100
" />
<path d="M69.4524 49.2576
L69.5476 49.2100
" />
<path d="M69.5476 49.2100
L69.5952 49.1624
" />
<path d="M69.5952 49.1624
L69.6429 49.0671
" />
<path d="M69.6429 49.0671
L69.6429 48.7814
" />
<path d="M69.6429 48.7814
L69.5952 48.6862
" />
<path d="M69.5952 48.6862
L69.5476 48.6386
" />
<path d="M69.5476 48.6386
L69.4524 48.5910
" />
<path d="M69.4524 48.5910
L69.3095 48.5910
" />
<path d="M69.3095 48.5910
L69.2143 48.6386
" />
<path d="M69.2143 48.6386
L69.1667 48.6862
" />
<path d="M69.1667 48.6862
L69.1190 48.7814
" />
<path d="M69.1190 48.7814
L69.1190 49.0671
" />
<path d="M69.1190 49.0671
L69.1667 49.1624
" />
<path d="M69.1667 49.1624
L69.2143 49.2100
" />
<path d="M69.2143 49.2100
L69.3095 49.2576
" />
<path d="M69.3095 49.2576
L69.4524 49.2576
" />
<path d="M68.2619 49.2576
L68.2619 48.7338
" />
<path d="M68.2619 48.7338
L68.3095 48.6386
" />
<path d="M68.3095 48.6386
L68.4048 48.5910
" />
<path d="M68.4048 48.5910
L68.5952 48.5910
" />
<path d="M68.5952 48.5910
L68.6905 48.6386
" />
<path d="M68.2619 49.2100
L68.3571 49.2576
" />
<path d="M68.3571 49.2576
L68.5952 49.2576
" />
<path d="M68.5952 49.2576
L68.6905 49.2100
" />
<path d="M68.6905 49.2100
L68.7381 49.1148
" />
<path d="M68.7381 49.1148
L68.7381 49.0195
" />
<path d="M68.7381 49.0195
L68.6905 48.9243
" />
<path d="M68.6905 48.9243
L68.5952 48.8767
" />
<path d="M68.5952 48.8767
L68.3571 48.8767
" />
<path d="M68.3571 48.8767
L68.2619 48.8290
" />
<path d="M67.7857 49.2576
L67.7857 48.5910
" />
<path d="M67.7857 48.7814
L67.7381 48.6862
" />
<path d="M67.7381 48.6862
L67.6905 48.6386
" />
<path d="M67.6905 48.6386
L67.5952 48.5910
" />
<path d="M67.5952 48.5910
L67.5000 48.5910
" />
<path d="M66.7381 49.2576
L66.7381 48.2576
" />
<path d="M66.7381 49.2100
L66.8333 49.2576
" />
<path d="M66.8333 49.2576
L67.0238 49.2576
" />
<path d="M67.0238 49.2576
L67.1190 49.2100
" />
<path d="M67.1190 49.2100
L67.1667 49.1624
" />
<path d="M67.1667 49.1624
L67.2143 49.0671
" />
<path d="M67.2143 49.0671
L67.2143 48.7814
" />
<path d="M67.2143 48.7814
L67.1667 48.6862
" />
<path d="M67.1667 48.6862
L67.1190 48.6386
" />
<path d="M67.1190 48.6386
L67.0238 48.5910
" />
<path d="M67.0238 48.5910
L66.8333 48.5910
" />
<path d="M66.8333 48.5910
L66.7381 48.6386
" />
</g><text x="66.5000" y="51.0000"
transform="scale(-1 1) translate(-133.000000 0)"
textLength="8.2226" font-size="1.3333" lengthAdjust="spacingAndGlyphs"
text-anchor="end" opacity="0">BCB: 1.0.0</text>
<g class="stroked-text"><desc>BCB: 1.0.0</desc>
<path d="M73.9762 50.3538
L73.8333 50.4014
" />
<path d="M73.8333 50.4014
L73.7857 50.4490
" />
<path d="M73.7857 50.4490
L73.7381 50.5443
" />
<path d="M73.7381 50.5443
L73.7381 50.6871
" />
<path d="M73.7381 50.6871
L73.7857 50.7824
" />
<path d="M73.7857 50.7824
L73.8333 50.8300
" />
<path d="M73.8333 50.8300
L73.9286 50.8776
" />
<path d="M73.9286 50.8776
L74.3095 50.8776
" />
<path d="M74.3095 50.8776
L74.3095 49.8776
" />
<path d="M74.3095 49.8776
L73.9762 49.8776
" />
<path d="M73.9762 49.8776
L73.8810 49.9252
" />
<path d="M73.8810 49.9252
L73.8333 49.9729
" />
<path d="M73.8333 49.9729
L73.7857 50.0681
" />
<path d="M73.7857 50.0681
L73.7857 50.1633
" />
<path d="M73.7857 50.1633
L73.8333 50.2586
" />
<path d="M73.8333 50.2586
L73.8810 50.3062
" />
<path d="M73.8810 50.3062
L73.9762 50.3538
" />
<path d="M73.9762 50.3538
L74.3095 50.3538
" />
<path d="M72.7381 50.7824
L72.7857 50.8300
" />
<path d="M72.7857 50.8300
L72.9286 50.8776
" />
<path d="M72.9286 50.8776
L73.0238 50.8776
" />
<path d="M73.0238 50.8776
L73.1667 50.8300
" />
<path d="M73.1667 50.8300
L73.2619 50.7348
" />
<path d="M73.2619 50.7348
L73.3095 50.6395
" />
<path d="M73.3095 50.6395
L73.3571 50.4490
" />
<path d="M73.3571 50.4490
L73.3571 50.3062
" />
<path d="M73.3571 50.3062
L73.3095 50.1157
" />
<path d="M73.3095 50.1157
L73.2619 50.0205
" />
<path d="M73.2619 50.0205
L73.1667 49.9252
" />
<path d="M73.1667 49.9252
L73.0238 49.8776
" />
<path d="M73.0238 49.8776
L72.9286 49.8776
" />
<path d="M72.9286 49.8776
L72.7857 49.9252
" />
<path d="M72.7857 49.9252
L72.7381 49.9729
" />
<path d="M71.9762 50.3538
L71.8333 50.4014
" />
<path d="M71.8333 50.4014
L71.7857 50.4490
" />
<path d="M71.7857 50.4490
L71.7381 50.5443
" />
<path d="M71.7381 50.5443
L71.7381 50.6871
" />
<path d="M71.7381 50.6871
L71.7857 50.7824
" />
<path d="M71.7857 50.7824
L71.8333 50.8300
" />
<path d="M71.8333 50.8300
L71.9286 50.8776
" />
<path d="M71.9286 50.8776
L72.3095 50.8776
" />
<path d="M72.3095 50.8776
L72.3095 49.8776
" />
<path d="M72.3095 49.8776
L71.9762 49.8776
" />
<path d="M71.9762 49.8776
L71.8810 49.9252
" />
<path d="M71.8810 49.9252
L71.8333 49.9729
" />
<path d="M71.8333 49.9729
L71.7857 50.0681
" />
<path d="M71.7857 50.0681
L71.7857 50.1633
" />
<path d="M71.7857 50.1633
L71.8333 50.2586
" />
<path d="M71.8333 50.2586
L71.8810 50.3062
" />
<path d="M71.8810 50.3062
L71.9762 50.3538
" />
<path d="M71.9762 50.3538
L72.3095 50.3538
" />
<path d="M71.3095 50.7824
L71.2619 50.8300
" />
<path d="M71.2619 50.8300
L71.3095 50.8776
" />
<path d="M71.3095 50.8776
L71.3571 50.8300
" />
<path d="M71.3571 50.8300
L71.3095 50.7824
" />
<path d="M71.3095 50.7824
L71.3095 50.8776
" />
<path d="M71.3095 50.2586
L71.2619 50.3062
" />
<path d="M71.2619 50.3062
L71.3095 50.3538
" />
<path d="M71.3095 50.3538
L71.3571 50.3062
" />
<path d="M71.3571 50.3062
L71.3095 50.2586
" />
<path d="M71.3095 50.2586
L71.3095 50.3538
" />
<path d="M69.5476 50.8776
L70.1190 50.8776
" />
<path d="M69.8333 50.8776
L69.8333 49.8776
" />
<path d="M69.8333 49.8776
L69.9286 50.0205
" />
<path d="M69.9286 50.0205
L70.0238 50.1157
" />
<path d="M70.0238 50.1157
L70.1190 50.1633
" />
<path d="M69.1190 50.7824
L69.0714 50.8300
" />
<path d="M69.0714 50.8300
L69.1190 50.8776
" />
<path d="M69.1190 50.8776
L69.1667 50.8300
" />
<path d="M69.1667 50.8300
L69.1190 50.7824
" />
<path d="M69.1190 50.7824
L69.1190 50.8776
" />
<path d="M68.4524 49.8776
L68.3571 49.8776
" />
<path d="M68.3571 49.8776
L68.2619 49.9252
" />
<path d="M68.2619 49.9252
L68.2143 49.9729
" />
<path d="M68.2143 49.9729
L68.1667 50.0681
" />
<path d="M68.1667 50.0681
L68.1190 50.2586
" />
<path d="M68.1190 50.2586
L68.1190 50.4967
" />
<path d="M68.1190 50.4967
L68.1667 50.6871
" />
<path d="M68.1667 50.6871
L68.2143 50.7824
" />
<path d="M68.2143 50.7824
L68.2619 50.8300
" />
<path d="M68.2619 50.8300
L68.3571 50.8776
" />
<path d="M68.3571 50.8776
L68.4524 50.8776
" />
<path d="M68.4524 50.8776
L68.5476 50.8300
" />
<path d="M68.5476 50.8300
L68.5952 50.7824
" />
<path d="M68.5952 50.7824
L68.6429 50.6871
" />
<path d="M68.6429 50.6871
L68.6905 50.4967
" />
<path d="M68.6905 50.4967
L68.6905 50.2586
" />
<path d="M68.6905 50.2586
L68.6429 50.0681
" />
<path d="M68.6429 50.0681
L68.5952 49.9729
" />
<path d="M68.5952 49.9729
L68.5476 49.9252
" />
<path d="M68.5476 49.9252
L68.4524 49.8776
" />
<path d="M67.6905 50.7824
L67.6429 50.8300
" />
<path d="M67.6429 50.8300
L67.6905 50.8776
" />
<path d="M67.6905 50.8776
L67.7381 50.8300
" />
<path d="M67.7381 50.8300
L67.6905 50.7824
" />
<path d="M67.6905 50.7824
L67.6905 50.8776
" />
<path d="M67.0238 49.8776
L66.9286 49.8776
" />
<path d="M66.9286 49.8776
L66.8333 49.9252
" />
<path d="M66.8333 49.9252
L66.7857 49.9729
" />
<path d="M66.7857 49.9729
L66.7381 50.0681
" />
<path d="M66.7381 50.0681
L66.6905 50.2586
" />
<path d="M66.6905 50.2586
L66.6905 50.4967
" />
<path d="M66.6905 50.4967
L66.7381 50.6871
" />
<path d="M66.7381 50.6871
L66.7857 50.7824
" />
<path d="M66.7857 50.7824
L66.8333 50.8300
" />
<path d="M66.8333 50.8300
L66.9286 50.8776
" />
<path d="M66.9286 50.8776
L67.0238 50.8776
" />
<path d="M67.0238 50.8776
L67.1190 50.8300
" />
<path d="M67.1190 50.8300
L67.1667 50.7824
" />
<path d="M67.1667 50.7824
L67.2143 50.6871
" />
<path d="M67.2143 50.6871
L67.2619 50.4967
" />
<path d="M67.2619 50.4967
L67.2619 50.2586
" />
<path d="M67.2619 50.2586
L67.2143 50.0681
" />
<path d="M67.2143 50.0681
L67.1667 49.9729
" />
<path d="M67.1667 49.9729
L67.1190 49.9252
" />
<path d="M67.1190 49.9252
L67.0238 49.8776
" />
</g><text x="90.0000" y="55.5000"
transform="scale(-1 1) translate(-180.000000 0)"
textLength="2.1750" font-size="1.3333" lengthAdjust="spacingAndGlyphs"
text-anchor="middle" opacity="0">U1</text>
<g class="stroked-text"><desc>U1</desc>
<path d="M90.7619 54.4626
L90.7619 55.2721
" />
<path d="M90.7619 55.2721
L90.7143 55.3674
" />
<path d="M90.7143 55.3674
L90.6667 55.4150
" />
<path d="M90.6667 55.4150
L90.5714 55.4626
" />
<path d="M90.5714 55.4626
L90.3810 55.4626
" />
<path d="M90.3810 55.4626
L90.2857 55.4150
" />
<path d="M90.2857 55.4150
L90.2381 55.3674
" />
<path d="M90.2381 55.3674
L90.1905 55.2721
" />
<path d="M90.1905 55.2721
L90.1905 54.4626
" />
<path d="M89.1905 55.4626
L89.7619 55.4626
" />
<path d="M89.4762 55.4626
L89.4762 54.4626
" />
<path d="M89.4762 54.4626
L89.5714 54.6055
" />
<path d="M89.5714 54.6055
L89.6667 54.7007
" />
<path d="M89.6667 54.7007
L89.7619 54.7483
" />
</g><text x="88.3000" y="65.4000"
transform="scale(-1 1) translate(-176.600000 0)"
textLength="1.9369" font-size="1.3333" lengthAdjust="spacingAndGlyphs"
text-anchor="middle" opacity="0">L1</text>
<g class="stroked-text"><desc>L1</desc>
<path d="M88.4667 65.3626
L88.9429 65.3626
" />
<path d="M88.9429 65.3626
L88.9429 64.3626
" />
<path d="M87.6095 65.3626
L88.1810 65.3626
" />
<path d="M87.8952 65.3626
L87.8952 64.3626
" />
<path d="M87.8952 64.3626
L87.9905 64.5055
" />
<path d="M87.9905 64.5055
L88.0857 64.6007
" />
<path d="M88.0857 64.6007
L88.1810 64.6483
" />
</g><text x="91.9000" y="61.9500"
transform="scale(-1 1) translate(-183.800000 0)"
textLength="2.1274" font-size="1.3333" lengthAdjust="spacingAndGlyphs"
text-anchor="middle" opacity="0">C1</text>
<g class="stroked-text"><desc>C1</desc>
<path d="M92.0667 61.8174
L92.1143 61.8650
" />
<path d="M92.1143 61.8650
L92.2571 61.9126
" />
<path d="M92.2571 61.9126
L92.3524 61.9126
" />
<path d="M92.3524 61.9126
L92.4952 61.8650
" />
<path d="M92.4952 61.8650
L92.5905 61.7698
" />
<path d="M92.5905 61.7698
L92.6381 61.6745
" />
<path d="M92.6381 61.6745
L92.6857 61.4840
" />
<path d="M92.6857 61.4840
L92.6857 61.3412
" />
<path d="M92.6857 61.3412
L92.6381 61.1507
" />
<path d="M92.6381 61.1507
L92.5905 61.0555
" />
<path d="M92.5905 61.0555
L92.4952 60.9602
" />
<path d="M92.4952 60.9602
L92.3524 60.9126
" />
<path d="M92.3524 60.9126
L92.2571 60.9126
" />
<path d="M92.2571 60.9126
L92.1143 60.9602
" />
<path d="M92.1143 60.9602
L92.0667 61.0079
" />
<path d="M91.1143 61.9126
L91.6857 61.9126
" />
<path d="M91.4000 61.9126
L91.4000 60.9126
" />
<path d="M91.4000 60.9126
L91.4952 61.0555
" />
<path d="M91.4952 61.0555
L91.5905 61.1507
" />
<path d="M91.5905 61.1507
L91.6857 61.1983
" />
</g><text x="100.8500" y="72.4000"
transform="scale(-1 1) translate(-201.700000 0)"
textLength="1.8893" font-size="1.3333" lengthAdjust="spacingAndGlyphs"
text-anchor="middle" opacity="0">J1</text>
<g class="stroked-text"><desc>J1</desc>
<path d="M101.1833 71.3626
L101.1833 72.0769
" />
<path d="M101.1833 72.0769
L101.2310 72.2198
" />
<path d="M101.2310 72.2198
L101.3262 72.3150
" />
<path d="M101.3262 72.3150
L101.4690 72.3626
" />
<path d="M101.4690 72.3626
L101.5643 72.3626
" />
<path d="M100.1833 72.3626
L100.7548 72.3626
" />
<path d="M100.4690 72.3626
L100.4690 71.3626
" />
<path d="M100.4690 71.3626
L100.5643 71.5055
" />
<path d="M100.5643 71.5055
L100.6595 71.6007
" />
<path d="M100.6595 71.6007
L100.7548 71.6483
" />
</g><g transform="rotate(-90.000000 82.7000 72.8000)">
<text x="82.7000" y="73.1250"
transform="scale(-1 1) translate(-165.400000 0)"
textLength="1.5140" font-size="0.8667" lengthAdjust="spacingAndGlyphs"
text-anchor="middle" opacity="0">R2</text>
</g>
<g class="stroked-text"><desc>R2</desc>
<path d="M83.0007 72.6917
L82.6912 72.4750
" />
<path d="M83.0007 72.3202
L82.3507 72.3202
" />
<path d="M82.3507 72.3202
L82.3507 72.5679
" />
<path d="M82.3507 72.5679
L82.3817 72.6298
" />
<path d="M82.3817 72.6298
L82.4126 72.6607
" />
<path d="M82.4126 72.6607
L82.4745 72.6917
" />
<path d="M82.4745 72.6917
L82.5674 72.6917
" />
<path d="M82.5674 72.6917
L82.6293 72.6607
" />
<path d="M82.6293 72.6607
L82.6602 72.6298
" />
<path d="M82.6602 72.6298
L82.6912 72.5679
" />
<path d="M82.6912 72.5679
L82.6912 72.3202
" />
<path d="M82.4126 72.9393
L82.3817 72.9702
" />
<path d="M82.3817 72.9702
L82.3507 73.0321
" />
<path d="M82.3507 73.0321
L82.3507 73.1869
" />
<path d="M82.3507 73.1869
L82.3817 73.2488
" />
<path d="M82.3817 73.2488
L82.4126 73.2798
" />
<path d="M82.4126 73.2798
L82.4745 73.3107
" />
<path d="M82.4745 73.3107
L82.5364 73.3107
" />
<path d="M82.5364 73.3107
L82.6293 73.2798
" />
<path d="M82.6293 73.2798
L83.0007 72.9083
" />
<path d="M83.0007 72.9083
L83.0007 73.3107
" />
</g><g transform="rotate(-90.000000 101.3000 53.1000)">
<text x="101.3000" y="53.4250"
transform="scale(-1 1) translate(-202.600000 0)"
textLength="1.5140" font-size="0.8667" lengthAdjust="spacingAndGlyphs"
text-anchor="middle" opacity="0">R1</text>
</g>
<g class="stroked-text"><desc>R1</desc>
<path d="M101.6007 52.9917
L101.2912 52.7750
" />
<path d="M101.6007 52.6202
L100.9507 52.6202
" />
<path d="M100.9507 52.6202
L100.9507 52.8679
" />
<path d="M100.9507 52.8679
L100.9817 52.9298
" />
<path d="M100.9817 52.9298
L101.0126 52.9607
" />
<path d="M101.0126 52.9607
L101.0745 52.9917
" />
<path d="M101.0745 52.9917
L101.1674 52.9917
" />
<path d="M101.1674 52.9917
L101.2293 52.9607
" />
<path d="M101.2293 52.9607
L101.2602 52.9298
" />
<path d="M101.2602 52.9298
L101.2912 52.8679
" />
<path d="M101.2912 52.8679
L101.2912 52.6202
" />
<path d="M101.6007 53.6107
L101.6007 53.2393
" />
<path d="M101.6007 53.4250
L100.9507 53.4250
" />
<path d="M100.9507 53.4250
L101.0436 53.3631
" />
<path d="M101.0436 53.3631
L101.1055 53.3012
" />
<path d="M101.1055 53.3012
L101.1364 53.2393
" />
</g><text x="88.3500" y="73.9000"
transform="scale(-1 1) translate(-176.700000 0)"
textLength="1.6350" font-size="0.9333" lengthAdjust="spacingAndGlyphs"
text-anchor="middle" opacity="0">U2</text>
<g class="stroked-text"><desc>U2</desc>
<path d="M88.8833 73.1738
L88.8833 73.7405
" />
<path d="M88.8833 73.7405
L88.8500 73.8072
" />
<path d="M88.8500 73.8072
L88.8167 73.8405
" />
<path d="M88.8167 73.8405
L88.7500 73.8738
" />
<path d="M88.7500 73.8738
L88.6167 73.8738
" />
<path d="M88.6167 73.8738
L88.5500 73.8405
" />
<path d="M88.5500 73.8405
L88.5167 73.8072
" />
<path d="M88.5167 73.8072
L88.4833 73.7405
" />
<path d="M88.4833 73.7405
L88.4833 73.1738
" />
<path d="M88.1833 73.2405
L88.1500 73.2072
" />
<path d="M88.1500 73.2072
L88.0833 73.1738
" />
<path d="M88.0833 73.1738
L87.9167 73.1738
" />
<path d="M87.9167 73.1738
L87.8500 73.2072
" />
<path d="M87.8500 73.2072
L87.8167 73.2405
" />
<path d="M87.8167 73.2405
L87.7833 73.3072
" />
<path d="M87.7833 73.3072
L87.7833 73.3738
" />
<path d="M87.7833 73.3738
L87.8167 73.4738
" />
<path d="M87.8167 73.4738
L88.2167 73.8738
" />
<path d="M88.2167 73.8738
L87.7833 73.8738
" />
</g><g transform="rotate(-90.000000 96.1200 57.5000)">
<text x="96.1200" y="58.0000"
transform="scale(-1 1) translate(-192.240000 0)"
textLength="2.1274" font-size="1.3333" lengthAdjust="spacingAndGlyphs"
text-anchor="middle" opacity="0">C2</text>
</g>
<g class="stroked-text"><desc>C2</desc>
<path d="M96.4874 57.3333
L96.5350 57.2857
" />
<path d="M96.5350 57.2857
L96.5826 57.1429
" />
<path d="M96.5826 57.1429
L96.5826 57.0476
" />
<path d="M96.5826 57.0476
L96.5350 56.9048
" />
<path d="M96.5350 56.9048
L96.4398 56.8095
" />
<path d="M96.4398 56.8095
L96.3445 56.7619
" />
<path d="M96.3445 56.7619
L96.1540 56.7143
" />
<path d="M96.1540 56.7143
L96.0112 56.7143
" />
<path d="M96.0112 56.7143
L95.8207 56.7619
" />
<path d="M95.8207 56.7619
L95.7255 56.8095
" />
<path d="M95.7255 56.8095
L95.6302 56.9048
" />
<path d="M95.6302 56.9048
L95.5826 57.0476
" />
<path d="M95.5826 57.0476
L95.5826 57.1429
" />
<path d="M95.5826 57.1429
L95.6302 57.2857
" />
<path d="M95.6302 57.2857
L95.6779 57.3333
" />
<path d="M95.6779 57.7143
L95.6302 57.7619
" />
<path d="M95.6302 57.7619
L95.5826 57.8571
" />
<path d="M95.5826 57.8571
L95.5826 58.0952
" />
<path d="M95.5826 58.0952
L95.6302 58.1905
" />
<path d="M95.6302 58.1905
L95.6779 58.2381
" />
<path d="M95.6779 58.2381
L95.7731 58.2857
" />
<path d="M95.7731 58.2857
L95.8683 58.2857
" />
<path d="M95.8683 58.2857
L96.0112 58.2381
" />
<path d="M96.0112 58.2381
L96.5826 57.6667
" />
<path d="M96.5826 57.6667
L96.5826 58.2857
" />
</g><text x="83.1000" y="68.0000"
transform="scale(-1 1) translate(-166.200000 0)"
textLength="2.1274" font-size="1.3333" lengthAdjust="spacingAndGlyphs"
text-anchor="middle" opacity="0">C4</text>
<g class="stroked-text"><desc>C4</desc>
<path d="M83.2667 67.8674
L83.3143 67.9150
" />
<path d="M83.3143 67.9150
L83.4571 67.9626
" />
<path d="M83.4571 67.9626
L83.5524 67.9626
" />
<path d="M83.5524 67.9626
L83.6952 67.9150
" />
<path d="M83.6952 67.9150
L83.7905 67.8198
" />
<path d="M83.7905 67.8198
L83.8381 67.7245
" />
<path d="M83.8381 67.7245
L83.8857 67.5340
" />
<path d="M83.8857 67.5340
L83.8857 67.3912
" />
<path d="M83.8857 67.3912
L83.8381 67.2007
" />
<path d="M83.8381 67.2007
L83.7905 67.1055
" />
<path d="M83.7905 67.1055
L83.6952 67.0102
" />
<path d="M83.6952 67.0102
L83.5524 66.9626
" />
<path d="M83.5524 66.9626
L83.4571 66.9626
" />
<path d="M83.4571 66.9626
L83.3143 67.0102
" />
<path d="M83.3143 67.0102
L83.2667 67.0579
" />
<path d="M82.4095 67.2960
L82.4095 67.9626
" />
<path d="M82.6476 66.9150
L82.8857 67.6293
" />
<path d="M82.8857 67.6293
L82.2667 67.6293
" />
</g><text x="92.3000" y="73.7000"
transform="scale(-1 1) translate(-184.600000 0)"
textLength="2.1274" font-size="1.3333" lengthAdjust="spacingAndGlyphs"
text-anchor="middle" opacity="0">C3</text>
<g class="stroked-text"><desc>C3</desc>
<path d="M92.4667 73.5674
L92.5143 73.6150
" />
<path d="M92.5143 73.6150
L92.6571 73.6626
" />
<path d="M92.6571 73.6626
L92.7524 73.6626
" />
<path d="M92.7524 73.6626
L92.8952 73.6150
" />
<path d="M92.8952 73.6150
L92.9905 73.5198
" />
<path d="M92.9905 73.5198
L93.0381 73.4245
" />
<path d="M93.0381 73.4245
L93.0857 73.2340
" />
<path d="M93.0857 73.2340
L93.0857 73.0912
" />
<path d="M93.0857 73.0912
L93.0381 72.9007
" />
<path d="M93.0381 72.9007
L92.9905 72.8055
" />
<path d="M92.9905 72.8055
L92.8952 72.7102
" />
<path d="M92.8952 72.7102
L92.7524 72.6626
" />
<path d="M92.7524 72.6626
L92.6571 72.6626
" />
<path d="M92.6571 72.6626
L92.5143 72.7102
" />
<path d="M92.5143 72.7102
L92.4667 72.7579
" />
<path d="M92.1333 72.6626
L91.5143 72.6626
" />
<path d="M91.5143 72.6626
L91.8476 73.0436
" />
<path d="M91.8476 73.0436
L91.7048 73.0436
" />
<path d="M91.7048 73.0436
L91.6095 73.0912
" />
<path d="M91.6095 73.0912
L91.5619 73.1388
" />
<path d="M91.5619 73.1388
L91.5143 73.2340
" />
<path d="M91.5143 73.2340
L91.5143 73.4721
" />
<path d="M91.5143 73.4721
L91.5619 73.5674
" />
<path d="M91.5619 73.5674
L91.6095 73.6150
" />
<path d="M91.6095 73.6150
L91.7048 73.6626
" />
<path d="M91.7048 73.6626
L91.9905 73.6626
" />
<path d="M91.9905 73.6626
L92.0857 73.6150
" />
<path d="M92.0857 73.6150
L92.1333 73.5674
" />
</g></g>
<g style="fill:#000000; fill-opacity:0.0; 
stroke:#000000; stroke-width:0.1200; stroke-opacity:1; 
stroke-linecap:round; stroke-linejoin:round;">
<path d="M94.9000 50.2400
L92.9500 50.2400
" />
<path d="M94.9000 50.2400
L96.8500 50.2400
" />
<path d="M94.9000 55.3600
L91.4500 55.3600
" />
<path d="M94.9000 55.3600
L96.8500 55.3600
" />
</g>
<g style="fill:#000000; fill-opacity:0.0; 
stroke:#000000; stroke-width:0.1270; stroke-opacity:1; 
stroke-linecap:round; stroke-linejoin:round;">
<path d="M86.3000 68.4135
L89.5000 68.4135
" />
<path d="M89.5000 65.7865
L86.3000 65.7865
" />
</g>
<g style="fill:#000000; fill-opacity:0.0; 
stroke:#000000; stroke-width:0.1200; stroke-opacity:1; 
stroke-linecap:round; stroke-linejoin:round;">
<path d="M91.1887 58.6900
L92.6113 58.6900
" />
<path d="M91.1887 60.5100
L92.6113 60.5100
" />
<path d="M100.3700 65.4000
L100.3700 70.6000
" />
<path d="M99.8000 65.4000
L100.3700 65.4000
" />
<path d="M97.2600 65.4000
L98.2800 65.4000
" />
<path d="M94.7200 65.4000
L95.7400 65.4000
" />
<path d="M92.6300 65.4000
L93.2000 65.4000
" />
<path d="M92.6300 65.4000
L92.6300 70.6000
" />
<path d="M99.8000 70.6000
L100.3700 70.6000
" />
<path d="M97.2600 70.6000
L98.2800 70.6000
" />
<path d="M94.7200 70.6000
L95.7400 70.6000
" />
<path d="M93.2000 70.6000
L93.2000 71.9600
" />
<path d="M92.6300 70.6000
L93.2000 70.6000
" />
</g>
<g style="fill:#000000; fill-opacity:0.0; 
stroke:#000000; stroke-width:0.1500; stroke-opacity:1; 
stroke-linecap:round; stroke-linejoin:round;">
<path d="M83.3000 71.1500
L83.3000 72.8500
" />
<path d="M84.7000 72.8500
L84.7000 71.1500
" />
<path d="M100.5000 53.4500
L100.5000 51.7500
" />
<path d="M99.1000 51.7500
L99.1000 53.4500
" />
<path d="M87.4000 73.6250
L85.4000 73.6250
" />
<path d="M86.4000 70.3750
L85.4000 70.3750
" />
</g>
<g style="fill:#000000; fill-opacity:0.0; 
stroke:#000000; stroke-width:0.1200; stroke-opacity:1; 
stroke-linecap:round; stroke-linejoin:round;">
<path d="M98.5350 57.2387
L98.5350 57.7613
" />
<path d="M97.0650 57.2387
L97.0650 57.7613
" />
<path d="M83.1613 70.0350
L82.6387 70.0350
" />
<path d="M83.1613 68.5650
L82.6387 68.5650
" />
<path d="M89.0900 71.8113
L89.0900 70.3887
" />
<path d="M90.9100 71.8113
L90.9100 70.3887
" />
<g >
</g>
<g >
</g>
<g >
</g>
<g >
</g>
<g >
</g>
<g >
</g>
<g >
</g>
<g >
</g>
<g >
</g>
<g >
</g>
<g >
</g>
<g >
</g>
<g >
</g>
<g >
</g>
<g >
</g>
<g >
</g>
<g >
</g>
<g >
</g>
<g >
</g>
</g>
<g style="fill:#FFFFFF; fill-opacity:0.0; 
stroke:#FFFFFF; stroke-width:0.1200; stroke-opacity:1; 
stroke-linecap:round; stroke-linejoin:round;">
</g>
<g style="fill:#FFFFFF; fill-opacity:1.0000; 
stroke:#FFFFFF; stroke-width:0.0000; stroke-opacity:1; 
stroke-linecap:round; stroke-linejoin:round;">
<circle cx="89.5000" cy="61.4000" r="0.2000" /> 
</g>
<g style="fill:#FFFFFF; fill-opacity:1.0000; 
stroke:#FFFFFF; stroke-width:0.0212; stroke-opacity:1; 
stroke-linecap:round; stroke-linejoin:round;">
</g>
<g style="fill:#FFFFFF; fill-opacity:1.0000; 
stroke:#FFFFFF; stroke-width:0.0000; stroke-opacity:1; 
stroke-linecap:round; stroke-linejoin:round;">
<circle cx="90.5000" cy="61.4000" r="0.2000" /> 
</g>
<g style="fill:#FFFFFF; fill-opacity:1.0000; 
stroke:#FFFFFF; stroke-width:0.0212; stroke-opacity:1; 
stroke-linecap:round; stroke-linejoin:round;">
</g>
<g style="fill:#FFFFFF; fill-opacity:1.0000; 
stroke:#FFFFFF; stroke-width:0.0000; stroke-opacity:1; 
stroke-linecap:round; stroke-linejoin:round;">
<circle cx="83.0000" cy="71.2000" r="0.2000" /> 
</g>
<g style="fill:#FFFFFF; fill-opacity:1.0000; 
stroke:#FFFFFF; stroke-width:0.0212; stroke-opacity:1; 
stroke-linecap:round; stroke-linejoin:round;">
</g>
<g style="fill:#FFFFFF; fill-opacity:1.0000; 
stroke:#FFFFFF; stroke-width:0.0000; stroke-opacity:1; 
stroke-linecap:round; stroke-linejoin:round;">
<circle cx="86.4000" cy="69.7500" r="0.2000" /> 
</g>
<g style="fill:#FFFFFF; fill-opacity:1.0000; 
stroke:#FFFFFF; stroke-width:0.0212; stroke-opacity:1; 
stroke-linecap:round; stroke-linejoin:round;">
</g>
<g style="fill:#FFFFFF; fill-opacity:1.0000; 
stroke:#FFFFFF; stroke-width:0.0000; stroke-opacity:1; 
stroke-linecap:round; stroke-linejoin:round;">
<circle cx="87.9000" cy="69.7500" r="0.2000" /> 
</g>
<g style="fill:#FFFFFF; fill-opacity:1.0000; 
stroke:#FFFFFF; stroke-width:0.0212; stroke-opacity:1; 
stroke-linecap:round; stroke-linejoin:round;">
</g>
<g style="fill:#FFFFFF; fill-opacity:1.0000; 
stroke:#FFFFFF; stroke-width:0.0000; stroke-opacity:1; 
stroke-linecap:round; stroke-linejoin:round;">
<circle cx="81.2500" cy="70.8000" r="0.2000" /> 
</g>
<g style="fill:#FFFFFF; fill-opacity:1.0000; 
stroke:#FFFFFF; stroke-width:0.0212; stroke-opacity:1; 
stroke-linecap:round; stroke-linejoin:round;">
</g>
<g style="fill:#FFFFFF; fill-opacity:1.0000; 
stroke:#FFFFFF; stroke-width:0.0000; stroke-opacity:1; 
stroke-linecap:round; stroke-linejoin:round;">
<circle cx="96.5500" cy="58.5000" r="0.2000" /> 
</g>
<g style="fill:#FFFFFF; fill-opacity:1.0000; 
stroke:#FFFFFF; stroke-width:0.0212; stroke-opacity:1; 
stroke-linecap:round; stroke-linejoin:round;">
</g>
<g style="fill:#FFFFFF; fill-opacity:1.0000; 
stroke:#FFFFFF; stroke-width:0.0000; stroke-opacity:1; 
stroke-linecap:round; stroke-linejoin:round;">
<circle cx="91.8000" cy="69.5000" r="0.2000" /> 
</g>
<g style="fill:#FFFFFF; fill-opacity:1.0000; 
stroke:#FFFFFF; stroke-width:0.0212; stroke-opacity:1; 
stroke-linecap:round; stroke-linejoin:round;">
</g>
<g style="fill:#FFFFFF; fill-opacity:1.0000; 
stroke:#FFFFFF; stroke-width:0.0000; stroke-opacity:1; 
stroke-linecap:round; stroke-linejoin:round;">
<circle cx="101.0500" cy="51.7500" r="0.2000" /> 
</g>
<g style="fill:#FFFFFF; fill-opacity:1.0000; 
stroke:#FFFFFF; stroke-width:0.0212; stroke-opacity:1; 
stroke-linecap:round; stroke-linejoin:round;">
</g>
<g style="fill:#FFFFFF; fill-opacity:1.0000; 
stroke:#FFFFFF; stroke-width:0.0000; stroke-opacity:1; 
stroke-linecap:round; stroke-linejoin:round;">
<circle cx="96.5000" cy="72.5500" r="0.2000" /> 
</g>
<g style="fill:#FFFFFF; fill-opacity:1.0000; 
stroke:#FFFFFF; stroke-width:0.0212; stroke-opacity:1; 
stroke-linecap:round; stroke-linejoin:round;">
</g>
<g style="fill:#FFFFFF; fill-opacity:1.0000; 
stroke:#FFFFFF; stroke-width:0.0000; stroke-opacity:1; 
stroke-linecap:round; stroke-linejoin:round;">
<circle cx="96.5000" cy="68.4000" r="0.2000" /> 
</g>
<g style="fill:#FFFFFF; fill-opacity:1.0000; 
stroke:#FFFFFF; stroke-width:0.0212; stroke-opacity:1; 
stroke-linecap:round; stroke-linejoin:round;">
</g>
<g style="fill:#FFFFFF; fill-opacity:1.0000; 
stroke:#FFFFFF; stroke-width:0.0000; stroke-opacity:1; 
stroke-linecap:round; stroke-linejoin:round;">
<circle cx="90.8000" cy="50.8500" r="0.2000" /> 
</g>
<g style="fill:#FFFFFF; fill-opacity:1.0000; 
stroke:#FFFFFF; stroke-width:0.0212; stroke-opacity:1; 
stroke-linecap:round; stroke-linejoin:round;">
</g>
<g style="fill:#FFFFFF; fill-opacity:1.0000; 
stroke:#FFFFFF; stroke-width:0.0000; stroke-opacity:1; 
stroke-linecap:round; stroke-linejoin:round;">
<circle cx="93.4500" cy="58.0500" r="0.2000" /> 
</g>
<g style="fill:#FFFFFF; fill-opacity:1.0000; 
stroke:#FFFFFF; stroke-width:0.0212; stroke-opacity:1; 
stroke-linecap:round; stroke-linejoin:round;">
</g>
<g style="fill:#FFFFFF; fill-opacity:1.0000; 
stroke:#FFFFFF; stroke-width:0.0000; stroke-opacity:1; 
stroke-linecap:round; stroke-linejoin:round;">
<circle cx="99.0400" cy="72.5400" r="0.2000" /> 
</g>
<g style="fill:#FFFFFF; fill-opacity:1.0000; 
stroke:#FFFFFF; stroke-width:0.0212; stroke-opacity:1; 
stroke-linecap:round; stroke-linejoin:round;">
</g>
<g style="fill:#FFFFFF; fill-opacity:1.0000; 
stroke:#FFFFFF; stroke-width:0.0000; stroke-opacity:1; 
stroke-linecap:round; stroke-linejoin:round;">
<circle cx="99.2000" cy="55.2000" r="0.2000" /> 
</g>
<g style="fill:#FFFFFF; fill-opacity:1.0000; 
stroke:#FFFFFF; stroke-width:0.0212; stroke-opacity:1; 
stroke-linecap:round; stroke-linejoin:round;">
</g>
<g style="fill:#FFFFFF; fill-opacity:1.0000; 
stroke:#FFFFFF; stroke-width:0.0000; stroke-opacity:1; 
stroke-linecap:round; stroke-linejoin:round;">
<circle cx="92.4000" cy="55.5000" r="0.2000" /> 
</g>
<g style="fill:#FFFFFF; fill-opacity:1.0000; 
stroke:#FFFFFF; stroke-width:0.0212; stroke-opacity:1; 
stroke-linecap:round; stroke-linejoin:round;">
</g>
<g style="fill:#FFFFFF; fill-opacity:1.0000; 
stroke:#FFFFFF; stroke-width:0.0000; stroke-opacity:1; 
stroke-linecap:round; stroke-linejoin:round;">
<circle cx="90.8000" cy="53.4000" r="0.2000" /> 
</g>
<g style="fill:#FFFFFF; fill-opacity:1.0000; 
stroke:#FFFFFF; stroke-width:0.0212; stroke-opacity:1; 
stroke-linecap:round; stroke-linejoin:round;">
</g>
<g style="fill:#FFFFFF; fill-opacity:1.0000; 
stroke:#FFFFFF; stroke-width:0.0000; stroke-opacity:1; 
stroke-linecap:round; stroke-linejoin:round;">
<circle cx="90.8000" cy="52.2000" r="0.2000" /> 
</g>
<g style="fill:#FFFFFF; fill-opacity:1.0000; 
stroke:#FFFFFF; stroke-width:0.0212; stroke-opacity:1; 
stroke-linecap:round; stroke-linejoin:round;">
</g>
<g style="fill:#000000; fill-opacity:1.0000; 
stroke:#000000; stroke-width:0.0212; stroke-opacity:1; 
stroke-linecap:round; stroke-linejoin:round;">
</g> 
</svg>
