<?xml version="1.0" standalone="no"?>
 <!DOCTYPE svg PUBLIC "-//W3C//DTD SVG 1.1//EN" 
 "http://www.w3.org/Graphics/SVG/1.1/DTD/svg11.dtd"> 
<svg
  xmlns:svg="http://www.w3.org/2000/svg"
  xmlns="http://www.w3.org/2000/svg"
  xmlns:xlink="http://www.w3.org/1999/xlink"
  version="1.1"
  width="297.0022mm" height="210.0072mm" viewBox="0.0000 0.0000 297.0022 210.0072">
<title>SVG Image created as pedalboard-led-ring-B_Silkscreen.svg date 2023/06/02 11:35:17 </title>
  <desc>Image generated by PCBNEW </desc>
<g style="fill:#000000; fill-opacity:1.0000;stroke:#000000; stroke-opacity:1.0000;
stroke-linecap:round; stroke-linejoin:round;"
 transform="translate(0 0) scale(1 1)">
</g>
<g style="fill:#000000; fill-opacity:0.0; 
stroke:#000000; stroke-width:0.0000; stroke-opacity:1; 
stroke-linecap:round; stroke-linejoin:round;">
</g>
<g style="fill:#000000; fill-opacity:0.0; 
stroke:#000000; stroke-width:0.1000; stroke-opacity:1; 
stroke-linecap:round; stroke-linejoin:round;">
<circle cx="80.0000" cy="60.0000" r="7.0500" /> 
</g>
<g style="fill:#000000; fill-opacity:0.0; 
stroke:#000000; stroke-width:0.1250; stroke-opacity:1; 
stroke-linecap:round; stroke-linejoin:round;">
<text x="80.0000" y="73.4000"
transform="scale(-1 1) translate(-160.000000 0)"
textLength="4.2363" font-size="0.6667" lengthAdjust="spacingAndGlyphs"
text-anchor="middle" opacity="0">PCB: 1.0.0</text>
<g class="stroked-text"><desc>PCB: 1.0.0</desc>
<path d="M81.8929 73.3323
L81.8929 72.8323
" />
<path d="M81.8929 72.8323
L81.7024 72.8323
" />
<path d="M81.7024 72.8323
L81.6548 72.8561
" />
<path d="M81.6548 72.8561
L81.6309 72.8799
" />
<path d="M81.6309 72.8799
L81.6071 72.9275
" />
<path d="M81.6071 72.9275
L81.6071 72.9990
" />
<path d="M81.6071 72.9990
L81.6309 73.0466
" />
<path d="M81.6309 73.0466
L81.6548 73.0704
" />
<path d="M81.6548 73.0704
L81.7024 73.0942
" />
<path d="M81.7024 73.0942
L81.8929 73.0942
" />
<path d="M81.1071 73.2847
L81.1309 73.3085
" />
<path d="M81.1309 73.3085
L81.2024 73.3323
" />
<path d="M81.2024 73.3323
L81.2500 73.3323
" />
<path d="M81.2500 73.3323
L81.3214 73.3085
" />
<path d="M81.3214 73.3085
L81.3690 73.2609
" />
<path d="M81.3690 73.2609
L81.3929 73.2133
" />
<path d="M81.3929 73.2133
L81.4167 73.1180
" />
<path d="M81.4167 73.1180
L81.4167 73.0466
" />
<path d="M81.4167 73.0466
L81.3929 72.9514
" />
<path d="M81.3929 72.9514
L81.3690 72.9037
" />
<path d="M81.3690 72.9037
L81.3214 72.8561
" />
<path d="M81.3214 72.8561
L81.2500 72.8323
" />
<path d="M81.2500 72.8323
L81.2024 72.8323
" />
<path d="M81.2024 72.8323
L81.1309 72.8561
" />
<path d="M81.1309 72.8561
L81.1071 72.8799
" />
<path d="M80.7262 73.0704
L80.6548 73.0942
" />
<path d="M80.6548 73.0942
L80.6309 73.1180
" />
<path d="M80.6309 73.1180
L80.6071 73.1656
" />
<path d="M80.6071 73.1656
L80.6071 73.2371
" />
<path d="M80.6071 73.2371
L80.6309 73.2847
" />
<path d="M80.6309 73.2847
L80.6548 73.3085
" />
<path d="M80.6548 73.3085
L80.7024 73.3323
" />
<path d="M80.7024 73.3323
L80.8929 73.3323
" />
<path d="M80.8929 73.3323
L80.8929 72.8323
" />
<path d="M80.8929 72.8323
L80.7262 72.8323
" />
<path d="M80.7262 72.8323
L80.6786 72.8561
" />
<path d="M80.6786 72.8561
L80.6548 72.8799
" />
<path d="M80.6548 72.8799
L80.6309 72.9275
" />
<path d="M80.6309 72.9275
L80.6309 72.9752
" />
<path d="M80.6309 72.9752
L80.6548 73.0228
" />
<path d="M80.6548 73.0228
L80.6786 73.0466
" />
<path d="M80.6786 73.0466
L80.7262 73.0704
" />
<path d="M80.7262 73.0704
L80.8929 73.0704
" />
<path d="M80.3929 73.2847
L80.3690 73.3085
" />
<path d="M80.3690 73.3085
L80.3929 73.3323
" />
<path d="M80.3929 73.3323
L80.4167 73.3085
" />
<path d="M80.4167 73.3085
L80.3929 73.2847
" />
<path d="M80.3929 73.2847
L80.3929 73.3323
" />
<path d="M80.3929 73.0228
L80.3690 73.0466
" />
<path d="M80.3690 73.0466
L80.3929 73.0704
" />
<path d="M80.3929 73.0704
L80.4167 73.0466
" />
<path d="M80.4167 73.0466
L80.3929 73.0228
" />
<path d="M80.3929 73.0228
L80.3929 73.0704
" />
<path d="M79.5119 73.3323
L79.7976 73.3323
" />
<path d="M79.6548 73.3323
L79.6548 72.8323
" />
<path d="M79.6548 72.8323
L79.7024 72.9037
" />
<path d="M79.7024 72.9037
L79.7500 72.9514
" />
<path d="M79.7500 72.9514
L79.7976 72.9752
" />
<path d="M79.2976 73.2847
L79.2738 73.3085
" />
<path d="M79.2738 73.3085
L79.2976 73.3323
" />
<path d="M79.2976 73.3323
L79.3214 73.3085
" />
<path d="M79.3214 73.3085
L79.2976 73.2847
" />
<path d="M79.2976 73.2847
L79.2976 73.3323
" />
<path d="M78.9643 72.8323
L78.9167 72.8323
" />
<path d="M78.9167 72.8323
L78.8690 72.8561
" />
<path d="M78.8690 72.8561
L78.8452 72.8799
" />
<path d="M78.8452 72.8799
L78.8214 72.9275
" />
<path d="M78.8214 72.9275
L78.7976 73.0228
" />
<path d="M78.7976 73.0228
L78.7976 73.1418
" />
<path d="M78.7976 73.1418
L78.8214 73.2371
" />
<path d="M78.8214 73.2371
L78.8452 73.2847
" />
<path d="M78.8452 73.2847
L78.8690 73.3085
" />
<path d="M78.8690 73.3085
L78.9167 73.3323
" />
<path d="M78.9167 73.3323
L78.9643 73.3323
" />
<path d="M78.9643 73.3323
L79.0119 73.3085
" />
<path d="M79.0119 73.3085
L79.0357 73.2847
" />
<path d="M79.0357 73.2847
L79.0595 73.2371
" />
<path d="M79.0595 73.2371
L79.0833 73.1418
" />
<path d="M79.0833 73.1418
L79.0833 73.0228
" />
<path d="M79.0833 73.0228
L79.0595 72.9275
" />
<path d="M79.0595 72.9275
L79.0357 72.8799
" />
<path d="M79.0357 72.8799
L79.0119 72.8561
" />
<path d="M79.0119 72.8561
L78.9643 72.8323
" />
<path d="M78.5833 73.2847
L78.5595 73.3085
" />
<path d="M78.5595 73.3085
L78.5833 73.3323
" />
<path d="M78.5833 73.3323
L78.6071 73.3085
" />
<path d="M78.6071 73.3085
L78.5833 73.2847
" />
<path d="M78.5833 73.2847
L78.5833 73.3323
" />
<path d="M78.2500 72.8323
L78.2024 72.8323
" />
<path d="M78.2024 72.8323
L78.1548 72.8561
" />
<path d="M78.1548 72.8561
L78.1310 72.8799
" />
<path d="M78.1310 72.8799
L78.1071 72.9275
" />
<path d="M78.1071 72.9275
L78.0833 73.0228
" />
<path d="M78.0833 73.0228
L78.0833 73.1418
" />
<path d="M78.0833 73.1418
L78.1071 73.2371
" />
<path d="M78.1071 73.2371
L78.1310 73.2847
" />
<path d="M78.1310 73.2847
L78.1548 73.3085
" />
<path d="M78.1548 73.3085
L78.2024 73.3323
" />
<path d="M78.2024 73.3323
L78.2500 73.3323
" />
<path d="M78.2500 73.3323
L78.2976 73.3085
" />
<path d="M78.2976 73.3085
L78.3214 73.2847
" />
<path d="M78.3214 73.2847
L78.3452 73.2371
" />
<path d="M78.3452 73.2371
L78.3690 73.1418
" />
<path d="M78.3690 73.1418
L78.3690 73.0228
" />
<path d="M78.3690 73.0228
L78.3452 72.9275
" />
<path d="M78.3452 72.9275
L78.3214 72.8799
" />
<path d="M78.3214 72.8799
L78.2976 72.8561
" />
<path d="M78.2976 72.8561
L78.2500 72.8323
" />
</g></g>
<g style="fill:#000000; fill-opacity:0.0; 
stroke:#000000; stroke-width:0.1500; stroke-opacity:1; 
stroke-linecap:round; stroke-linejoin:round;">
<text x="79.8000" y="47.1925"
transform="scale(-1 1) translate(-159.600000 0)"
textLength="12.1893" font-size="1.0000" lengthAdjust="spacingAndGlyphs"
text-anchor="middle" opacity="0">Pedalboard LED Ring</text>
<g class="stroked-text"><desc>Pedalboard LED Ring</desc>
<path d="M85.6036 47.0929
L85.6036 46.3429
" />
<path d="M85.6036 46.3429
L85.3179 46.3429
" />
<path d="M85.3179 46.3429
L85.2464 46.3786
" />
<path d="M85.2464 46.3786
L85.2107 46.4143
" />
<path d="M85.2107 46.4143
L85.1750 46.4858
" />
<path d="M85.1750 46.4858
L85.1750 46.5929
" />
<path d="M85.1750 46.5929
L85.2107 46.6643
" />
<path d="M85.2107 46.6643
L85.2464 46.7001
" />
<path d="M85.2464 46.7001
L85.3179 46.7358
" />
<path d="M85.3179 46.7358
L85.6036 46.7358
" />
<path d="M84.5679 47.0572
L84.6393 47.0929
" />
<path d="M84.6393 47.0929
L84.7821 47.0929
" />
<path d="M84.7821 47.0929
L84.8536 47.0572
" />
<path d="M84.8536 47.0572
L84.8893 46.9858
" />
<path d="M84.8893 46.9858
L84.8893 46.7001
" />
<path d="M84.8893 46.7001
L84.8536 46.6286
" />
<path d="M84.8536 46.6286
L84.7821 46.5929
" />
<path d="M84.7821 46.5929
L84.6393 46.5929
" />
<path d="M84.6393 46.5929
L84.5679 46.6286
" />
<path d="M84.5679 46.6286
L84.5321 46.7001
" />
<path d="M84.5321 46.7001
L84.5321 46.7715
" />
<path d="M84.5321 46.7715
L84.8893 46.8429
" />
<path d="M83.8893 47.0929
L83.8893 46.3429
" />
<path d="M83.8893 47.0572
L83.9607 47.0929
" />
<path d="M83.9607 47.0929
L84.1036 47.0929
" />
<path d="M84.1036 47.0929
L84.1750 47.0572
" />
<path d="M84.1750 47.0572
L84.2107 47.0215
" />
<path d="M84.2107 47.0215
L84.2464 46.9501
" />
<path d="M84.2464 46.9501
L84.2464 46.7358
" />
<path d="M84.2464 46.7358
L84.2107 46.6643
" />
<path d="M84.2107 46.6643
L84.1750 46.6286
" />
<path d="M84.1750 46.6286
L84.1036 46.5929
" />
<path d="M84.1036 46.5929
L83.9607 46.5929
" />
<path d="M83.9607 46.5929
L83.8893 46.6286
" />
<path d="M83.2107 47.0929
L83.2107 46.7001
" />
<path d="M83.2107 46.7001
L83.2464 46.6286
" />
<path d="M83.2464 46.6286
L83.3179 46.5929
" />
<path d="M83.3179 46.5929
L83.4607 46.5929
" />
<path d="M83.4607 46.5929
L83.5321 46.6286
" />
<path d="M83.2107 47.0572
L83.2821 47.0929
" />
<path d="M83.2821 47.0929
L83.4607 47.0929
" />
<path d="M83.4607 47.0929
L83.5321 47.0572
" />
<path d="M83.5321 47.0572
L83.5679 46.9858
" />
<path d="M83.5679 46.9858
L83.5679 46.9143
" />
<path d="M83.5679 46.9143
L83.5321 46.8429
" />
<path d="M83.5321 46.8429
L83.4607 46.8072
" />
<path d="M83.4607 46.8072
L83.2821 46.8072
" />
<path d="M83.2821 46.8072
L83.2107 46.7715
" />
<path d="M82.7464 47.0929
L82.8179 47.0572
" />
<path d="M82.8179 47.0572
L82.8536 46.9858
" />
<path d="M82.8536 46.9858
L82.8536 46.3429
" />
<path d="M82.4607 47.0929
L82.4607 46.3429
" />
<path d="M82.4607 46.6286
L82.3893 46.5929
" />
<path d="M82.3893 46.5929
L82.2464 46.5929
" />
<path d="M82.2464 46.5929
L82.1750 46.6286
" />
<path d="M82.1750 46.6286
L82.1393 46.6643
" />
<path d="M82.1393 46.6643
L82.1036 46.7358
" />
<path d="M82.1036 46.7358
L82.1036 46.9501
" />
<path d="M82.1036 46.9501
L82.1393 47.0215
" />
<path d="M82.1393 47.0215
L82.1750 47.0572
" />
<path d="M82.1750 47.0572
L82.2464 47.0929
" />
<path d="M82.2464 47.0929
L82.3893 47.0929
" />
<path d="M82.3893 47.0929
L82.4607 47.0572
" />
<path d="M81.6750 47.0929
L81.7464 47.0572
" />
<path d="M81.7464 47.0572
L81.7821 47.0215
" />
<path d="M81.7821 47.0215
L81.8179 46.9501
" />
<path d="M81.8179 46.9501
L81.8179 46.7358
" />
<path d="M81.8179 46.7358
L81.7821 46.6643
" />
<path d="M81.7821 46.6643
L81.7464 46.6286
" />
<path d="M81.7464 46.6286
L81.6750 46.5929
" />
<path d="M81.6750 46.5929
L81.5679 46.5929
" />
<path d="M81.5679 46.5929
L81.4964 46.6286
" />
<path d="M81.4964 46.6286
L81.4607 46.6643
" />
<path d="M81.4607 46.6643
L81.4250 46.7358
" />
<path d="M81.4250 46.7358
L81.4250 46.9501
" />
<path d="M81.4250 46.9501
L81.4607 47.0215
" />
<path d="M81.4607 47.0215
L81.4964 47.0572
" />
<path d="M81.4964 47.0572
L81.5679 47.0929
" />
<path d="M81.5679 47.0929
L81.6750 47.0929
" />
<path d="M80.7821 47.0929
L80.7821 46.7001
" />
<path d="M80.7821 46.7001
L80.8179 46.6286
" />
<path d="M80.8179 46.6286
L80.8893 46.5929
" />
<path d="M80.8893 46.5929
L81.0321 46.5929
" />
<path d="M81.0321 46.5929
L81.1036 46.6286
" />
<path d="M80.7821 47.0572
L80.8536 47.0929
" />
<path d="M80.8536 47.0929
L81.0321 47.0929
" />
<path d="M81.0321 47.0929
L81.1036 47.0572
" />
<path d="M81.1036 47.0572
L81.1393 46.9858
" />
<path d="M81.1393 46.9858
L81.1393 46.9143
" />
<path d="M81.1393 46.9143
L81.1036 46.8429
" />
<path d="M81.1036 46.8429
L81.0321 46.8072
" />
<path d="M81.0321 46.8072
L80.8536 46.8072
" />
<path d="M80.8536 46.8072
L80.7821 46.7715
" />
<path d="M80.4250 47.0929
L80.4250 46.5929
" />
<path d="M80.4250 46.7358
L80.3893 46.6643
" />
<path d="M80.3893 46.6643
L80.3536 46.6286
" />
<path d="M80.3536 46.6286
L80.2821 46.5929
" />
<path d="M80.2821 46.5929
L80.2107 46.5929
" />
<path d="M79.6393 47.0929
L79.6393 46.3429
" />
<path d="M79.6393 47.0572
L79.7107 47.0929
" />
<path d="M79.7107 47.0929
L79.8536 47.0929
" />
<path d="M79.8536 47.0929
L79.9250 47.0572
" />
<path d="M79.9250 47.0572
L79.9607 47.0215
" />
<path d="M79.9607 47.0215
L79.9964 46.9501
" />
<path d="M79.9964 46.9501
L79.9964 46.7358
" />
<path d="M79.9964 46.7358
L79.9607 46.6643
" />
<path d="M79.9607 46.6643
L79.9250 46.6286
" />
<path d="M79.9250 46.6286
L79.8536 46.5929
" />
<path d="M79.8536 46.5929
L79.7107 46.5929
" />
<path d="M79.7107 46.5929
L79.6393 46.6286
" />
<path d="M78.3536 47.0929
L78.7107 47.0929
" />
<path d="M78.7107 47.0929
L78.7107 46.3429
" />
<path d="M78.1036 46.7001
L77.8536 46.7001
" />
<path d="M77.7464 47.0929
L78.1036 47.0929
" />
<path d="M78.1036 47.0929
L78.1036 46.3429
" />
<path d="M78.1036 46.3429
L77.7464 46.3429
" />
<path d="M77.4250 47.0929
L77.4250 46.3429
" />
<path d="M77.4250 46.3429
L77.2464 46.3429
" />
<path d="M77.2464 46.3429
L77.1393 46.3786
" />
<path d="M77.1393 46.3786
L77.0679 46.4501
" />
<path d="M77.0679 46.4501
L77.0321 46.5215
" />
<path d="M77.0321 46.5215
L76.9964 46.6643
" />
<path d="M76.9964 46.6643
L76.9964 46.7715
" />
<path d="M76.9964 46.7715
L77.0321 46.9143
" />
<path d="M77.0321 46.9143
L77.0679 46.9858
" />
<path d="M77.0679 46.9858
L77.1393 47.0572
" />
<path d="M77.1393 47.0572
L77.2464 47.0929
" />
<path d="M77.2464 47.0929
L77.4250 47.0929
" />
<path d="M75.6750 47.0929
L75.9250 46.7358
" />
<path d="M76.1036 47.0929
L76.1036 46.3429
" />
<path d="M76.1036 46.3429
L75.8179 46.3429
" />
<path d="M75.8179 46.3429
L75.7464 46.3786
" />
<path d="M75.7464 46.3786
L75.7107 46.4143
" />
<path d="M75.7107 46.4143
L75.6750 46.4858
" />
<path d="M75.6750 46.4858
L75.6750 46.5929
" />
<path d="M75.6750 46.5929
L75.7107 46.6643
" />
<path d="M75.7107 46.6643
L75.7464 46.7001
" />
<path d="M75.7464 46.7001
L75.8179 46.7358
" />
<path d="M75.8179 46.7358
L76.1036 46.7358
" />
<path d="M75.3536 47.0929
L75.3536 46.5929
" />
<path d="M75.3536 46.3429
L75.3893 46.3786
" />
<path d="M75.3893 46.3786
L75.3536 46.4143
" />
<path d="M75.3536 46.4143
L75.3179 46.3786
" />
<path d="M75.3179 46.3786
L75.3536 46.3429
" />
<path d="M75.3536 46.3429
L75.3536 46.4143
" />
<path d="M74.9964 46.5929
L74.9964 47.0929
" />
<path d="M74.9964 46.6643
L74.9607 46.6286
" />
<path d="M74.9607 46.6286
L74.8893 46.5929
" />
<path d="M74.8893 46.5929
L74.7821 46.5929
" />
<path d="M74.7821 46.5929
L74.7107 46.6286
" />
<path d="M74.7107 46.6286
L74.6750 46.7001
" />
<path d="M74.6750 46.7001
L74.6750 47.0929
" />
<path d="M73.9964 46.5929
L73.9964 47.2001
" />
<path d="M73.9964 47.2001
L74.0321 47.2715
" />
<path d="M74.0321 47.2715
L74.0679 47.3072
" />
<path d="M74.0679 47.3072
L74.1393 47.3429
" />
<path d="M74.1393 47.3429
L74.2464 47.3429
" />
<path d="M74.2464 47.3429
L74.3179 47.3072
" />
<path d="M73.9964 47.0572
L74.0679 47.0929
" />
<path d="M74.0679 47.0929
L74.2107 47.0929
" />
<path d="M74.2107 47.0929
L74.2821 47.0572
" />
<path d="M74.2821 47.0572
L74.3179 47.0215
" />
<path d="M74.3179 47.0215
L74.3536 46.9501
" />
<path d="M74.3536 46.9501
L74.3536 46.7358
" />
<path d="M74.3536 46.7358
L74.3179 46.6643
" />
<path d="M74.3179 46.6643
L74.2821 46.6286
" />
<path d="M74.2821 46.6286
L74.2107 46.5929
" />
<path d="M74.2107 46.5929
L74.0679 46.5929
" />
<path d="M74.0679 46.5929
L73.9964 46.6286
" />
</g><text x="79.8000" y="48.4000"
transform="scale(-1 1) translate(-159.600000 0)"
textLength="18.1893" font-size="1.0000" lengthAdjust="spacingAndGlyphs"
text-anchor="middle" opacity="0">https://github.com/pedalboard</text>
<g class="stroked-text"><desc>https://github.com/pedalboard</desc>
<path d="M88.6036 48.3004
L88.6036 47.5504
" />
<path d="M88.2821 48.3004
L88.2821 47.9076
" />
<path d="M88.2821 47.9076
L88.3179 47.8361
" />
<path d="M88.3179 47.8361
L88.3893 47.8004
" />
<path d="M88.3893 47.8004
L88.4964 47.8004
" />
<path d="M88.4964 47.8004
L88.5679 47.8361
" />
<path d="M88.5679 47.8361
L88.6036 47.8718
" />
<path d="M88.0321 47.8004
L87.7464 47.8004
" />
<path d="M87.9250 47.5504
L87.9250 48.1933
" />
<path d="M87.9250 48.1933
L87.8893 48.2647
" />
<path d="M87.8893 48.2647
L87.8179 48.3004
" />
<path d="M87.8179 48.3004
L87.7464 48.3004
" />
<path d="M87.6036 47.8004
L87.3179 47.8004
" />
<path d="M87.4964 47.5504
L87.4964 48.1933
" />
<path d="M87.4964 48.1933
L87.4607 48.2647
" />
<path d="M87.4607 48.2647
L87.3893 48.3004
" />
<path d="M87.3893 48.3004
L87.3179 48.3004
" />
<path d="M87.0679 47.8004
L87.0679 48.5504
" />
<path d="M87.0679 47.8361
L86.9964 47.8004
" />
<path d="M86.9964 47.8004
L86.8536 47.8004
" />
<path d="M86.8536 47.8004
L86.7821 47.8361
" />
<path d="M86.7821 47.8361
L86.7464 47.8718
" />
<path d="M86.7464 47.8718
L86.7107 47.9433
" />
<path d="M86.7107 47.9433
L86.7107 48.1576
" />
<path d="M86.7107 48.1576
L86.7464 48.2290
" />
<path d="M86.7464 48.2290
L86.7821 48.2647
" />
<path d="M86.7821 48.2647
L86.8536 48.3004
" />
<path d="M86.8536 48.3004
L86.9964 48.3004
" />
<path d="M86.9964 48.3004
L87.0679 48.2647
" />
<path d="M86.4250 48.2647
L86.3536 48.3004
" />
<path d="M86.3536 48.3004
L86.2107 48.3004
" />
<path d="M86.2107 48.3004
L86.1393 48.2647
" />
<path d="M86.1393 48.2647
L86.1036 48.1933
" />
<path d="M86.1036 48.1933
L86.1036 48.1576
" />
<path d="M86.1036 48.1576
L86.1393 48.0861
" />
<path d="M86.1393 48.0861
L86.2107 48.0504
" />
<path d="M86.2107 48.0504
L86.3179 48.0504
" />
<path d="M86.3179 48.0504
L86.3893 48.0147
" />
<path d="M86.3893 48.0147
L86.4250 47.9433
" />
<path d="M86.4250 47.9433
L86.4250 47.9076
" />
<path d="M86.4250 47.9076
L86.3893 47.8361
" />
<path d="M86.3893 47.8361
L86.3179 47.8004
" />
<path d="M86.3179 47.8004
L86.2107 47.8004
" />
<path d="M86.2107 47.8004
L86.1393 47.8361
" />
<path d="M85.7821 48.2290
L85.7464 48.2647
" />
<path d="M85.7464 48.2647
L85.7821 48.3004
" />
<path d="M85.7821 48.3004
L85.8179 48.2647
" />
<path d="M85.8179 48.2647
L85.7821 48.2290
" />
<path d="M85.7821 48.2290
L85.7821 48.3004
" />
<path d="M85.7821 47.8361
L85.7464 47.8718
" />
<path d="M85.7464 47.8718
L85.7821 47.9076
" />
<path d="M85.7821 47.9076
L85.8179 47.8718
" />
<path d="M85.8179 47.8718
L85.7821 47.8361
" />
<path d="M85.7821 47.8361
L85.7821 47.9076
" />
<path d="M84.8893 47.5147
L85.5321 48.4790
" />
<path d="M84.1036 47.5147
L84.7464 48.4790
" />
<path d="M83.5321 47.8004
L83.5321 48.4076
" />
<path d="M83.5321 48.4076
L83.5679 48.4790
" />
<path d="M83.5679 48.4790
L83.6036 48.5147
" />
<path d="M83.6036 48.5147
L83.6750 48.5504
" />
<path d="M83.6750 48.5504
L83.7821 48.5504
" />
<path d="M83.7821 48.5504
L83.8536 48.5147
" />
<path d="M83.5321 48.2647
L83.6036 48.3004
" />
<path d="M83.6036 48.3004
L83.7464 48.3004
" />
<path d="M83.7464 48.3004
L83.8179 48.2647
" />
<path d="M83.8179 48.2647
L83.8536 48.2290
" />
<path d="M83.8536 48.2290
L83.8893 48.1576
" />
<path d="M83.8893 48.1576
L83.8893 47.9433
" />
<path d="M83.8893 47.9433
L83.8536 47.8718
" />
<path d="M83.8536 47.8718
L83.8179 47.8361
" />
<path d="M83.8179 47.8361
L83.7464 47.8004
" />
<path d="M83.7464 47.8004
L83.6036 47.8004
" />
<path d="M83.6036 47.8004
L83.5321 47.8361
" />
<path d="M83.1750 48.3004
L83.1750 47.8004
" />
<path d="M83.1750 47.5504
L83.2107 47.5861
" />
<path d="M83.2107 47.5861
L83.1750 47.6218
" />
<path d="M83.1750 47.6218
L83.1393 47.5861
" />
<path d="M83.1393 47.5861
L83.1750 47.5504
" />
<path d="M83.1750 47.5504
L83.1750 47.6218
" />
<path d="M82.9250 47.8004
L82.6393 47.8004
" />
<path d="M82.8179 47.5504
L82.8179 48.1933
" />
<path d="M82.8179 48.1933
L82.7821 48.2647
" />
<path d="M82.7821 48.2647
L82.7107 48.3004
" />
<path d="M82.7107 48.3004
L82.6393 48.3004
" />
<path d="M82.3893 48.3004
L82.3893 47.5504
" />
<path d="M82.0679 48.3004
L82.0679 47.9076
" />
<path d="M82.0679 47.9076
L82.1036 47.8361
" />
<path d="M82.1036 47.8361
L82.1750 47.8004
" />
<path d="M82.1750 47.8004
L82.2821 47.8004
" />
<path d="M82.2821 47.8004
L82.3536 47.8361
" />
<path d="M82.3536 47.8361
L82.3893 47.8718
" />
<path d="M81.3893 47.8004
L81.3893 48.3004
" />
<path d="M81.7107 47.8004
L81.7107 48.1933
" />
<path d="M81.7107 48.1933
L81.6750 48.2647
" />
<path d="M81.6750 48.2647
L81.6036 48.3004
" />
<path d="M81.6036 48.3004
L81.4964 48.3004
" />
<path d="M81.4964 48.3004
L81.4250 48.2647
" />
<path d="M81.4250 48.2647
L81.3893 48.2290
" />
<path d="M81.0321 48.3004
L81.0321 47.5504
" />
<path d="M81.0321 47.8361
L80.9607 47.8004
" />
<path d="M80.9607 47.8004
L80.8179 47.8004
" />
<path d="M80.8179 47.8004
L80.7464 47.8361
" />
<path d="M80.7464 47.8361
L80.7107 47.8718
" />
<path d="M80.7107 47.8718
L80.6750 47.9433
" />
<path d="M80.6750 47.9433
L80.6750 48.1576
" />
<path d="M80.6750 48.1576
L80.7107 48.2290
" />
<path d="M80.7107 48.2290
L80.7464 48.2647
" />
<path d="M80.7464 48.2647
L80.8179 48.3004
" />
<path d="M80.8179 48.3004
L80.9607 48.3004
" />
<path d="M80.9607 48.3004
L81.0321 48.2647
" />
<path d="M80.3536 48.2290
L80.3179 48.2647
" />
<path d="M80.3179 48.2647
L80.3536 48.3004
" />
<path d="M80.3536 48.3004
L80.3893 48.2647
" />
<path d="M80.3893 48.2647
L80.3536 48.2290
" />
<path d="M80.3536 48.2290
L80.3536 48.3004
" />
<path d="M79.6750 48.2647
L79.7464 48.3004
" />
<path d="M79.7464 48.3004
L79.8893 48.3004
" />
<path d="M79.8893 48.3004
L79.9607 48.2647
" />
<path d="M79.9607 48.2647
L79.9964 48.2290
" />
<path d="M79.9964 48.2290
L80.0321 48.1576
" />
<path d="M80.0321 48.1576
L80.0321 47.9433
" />
<path d="M80.0321 47.9433
L79.9964 47.8718
" />
<path d="M79.9964 47.8718
L79.9607 47.8361
" />
<path d="M79.9607 47.8361
L79.8893 47.8004
" />
<path d="M79.8893 47.8004
L79.7464 47.8004
" />
<path d="M79.7464 47.8004
L79.6750 47.8361
" />
<path d="M79.2464 48.3004
L79.3179 48.2647
" />
<path d="M79.3179 48.2647
L79.3536 48.2290
" />
<path d="M79.3536 48.2290
L79.3893 48.1576
" />
<path d="M79.3893 48.1576
L79.3893 47.9433
" />
<path d="M79.3893 47.9433
L79.3536 47.8718
" />
<path d="M79.3536 47.8718
L79.3179 47.8361
" />
<path d="M79.3179 47.8361
L79.2464 47.8004
" />
<path d="M79.2464 47.8004
L79.1393 47.8004
" />
<path d="M79.1393 47.8004
L79.0679 47.8361
" />
<path d="M79.0679 47.8361
L79.0321 47.8718
" />
<path d="M79.0321 47.8718
L78.9964 47.9433
" />
<path d="M78.9964 47.9433
L78.9964 48.1576
" />
<path d="M78.9964 48.1576
L79.0321 48.2290
" />
<path d="M79.0321 48.2290
L79.0679 48.2647
" />
<path d="M79.0679 48.2647
L79.1393 48.3004
" />
<path d="M79.1393 48.3004
L79.2464 48.3004
" />
<path d="M78.6750 48.3004
L78.6750 47.8004
" />
<path d="M78.6750 47.8718
L78.6393 47.8361
" />
<path d="M78.6393 47.8361
L78.5679 47.8004
" />
<path d="M78.5679 47.8004
L78.4607 47.8004
" />
<path d="M78.4607 47.8004
L78.3893 47.8361
" />
<path d="M78.3893 47.8361
L78.3536 47.9076
" />
<path d="M78.3536 47.9076
L78.3536 48.3004
" />
<path d="M78.3536 47.9076
L78.3179 47.8361
" />
<path d="M78.3179 47.8361
L78.2464 47.8004
" />
<path d="M78.2464 47.8004
L78.1393 47.8004
" />
<path d="M78.1393 47.8004
L78.0679 47.8361
" />
<path d="M78.0679 47.8361
L78.0321 47.9076
" />
<path d="M78.0321 47.9076
L78.0321 48.3004
" />
<path d="M77.1393 47.5147
L77.7821 48.4790
" />
<path d="M76.8893 47.8004
L76.8893 48.5504
" />
<path d="M76.8893 47.8361
L76.8179 47.8004
" />
<path d="M76.8179 47.8004
L76.6750 47.8004
" />
<path d="M76.6750 47.8004
L76.6036 47.8361
" />
<path d="M76.6036 47.8361
L76.5679 47.8718
" />
<path d="M76.5679 47.8718
L76.5321 47.9433
" />
<path d="M76.5321 47.9433
L76.5321 48.1576
" />
<path d="M76.5321 48.1576
L76.5679 48.2290
" />
<path d="M76.5679 48.2290
L76.6036 48.2647
" />
<path d="M76.6036 48.2647
L76.6750 48.3004
" />
<path d="M76.6750 48.3004
L76.8179 48.3004
" />
<path d="M76.8179 48.3004
L76.8893 48.2647
" />
<path d="M75.9250 48.2647
L75.9964 48.3004
" />
<path d="M75.9964 48.3004
L76.1393 48.3004
" />
<path d="M76.1393 48.3004
L76.2107 48.2647
" />
<path d="M76.2107 48.2647
L76.2464 48.1933
" />
<path d="M76.2464 48.1933
L76.2464 47.9076
" />
<path d="M76.2464 47.9076
L76.2107 47.8361
" />
<path d="M76.2107 47.8361
L76.1393 47.8004
" />
<path d="M76.1393 47.8004
L75.9964 47.8004
" />
<path d="M75.9964 47.8004
L75.9250 47.8361
" />
<path d="M75.9250 47.8361
L75.8893 47.9076
" />
<path d="M75.8893 47.9076
L75.8893 47.9790
" />
<path d="M75.8893 47.9790
L76.2464 48.0504
" />
<path d="M75.2464 48.3004
L75.2464 47.5504
" />
<path d="M75.2464 48.2647
L75.3179 48.3004
" />
<path d="M75.3179 48.3004
L75.4607 48.3004
" />
<path d="M75.4607 48.3004
L75.5321 48.2647
" />
<path d="M75.5321 48.2647
L75.5679 48.2290
" />
<path d="M75.5679 48.2290
L75.6036 48.1576
" />
<path d="M75.6036 48.1576
L75.6036 47.9433
" />
<path d="M75.6036 47.9433
L75.5679 47.8718
" />
<path d="M75.5679 47.8718
L75.5321 47.8361
" />
<path d="M75.5321 47.8361
L75.4607 47.8004
" />
<path d="M75.4607 47.8004
L75.3179 47.8004
" />
<path d="M75.3179 47.8004
L75.2464 47.8361
" />
<path d="M74.5679 48.3004
L74.5679 47.9076
" />
<path d="M74.5679 47.9076
L74.6036 47.8361
" />
<path d="M74.6036 47.8361
L74.6750 47.8004
" />
<path d="M74.6750 47.8004
L74.8179 47.8004
" />
<path d="M74.8179 47.8004
L74.8893 47.8361
" />
<path d="M74.5679 48.2647
L74.6393 48.3004
" />
<path d="M74.6393 48.3004
L74.8179 48.3004
" />
<path d="M74.8179 48.3004
L74.8893 48.2647
" />
<path d="M74.8893 48.2647
L74.9250 48.1933
" />
<path d="M74.9250 48.1933
L74.9250 48.1218
" />
<path d="M74.9250 48.1218
L74.8893 48.0504
" />
<path d="M74.8893 48.0504
L74.8179 48.0147
" />
<path d="M74.8179 48.0147
L74.6393 48.0147
" />
<path d="M74.6393 48.0147
L74.5679 47.9790
" />
<path d="M74.1036 48.3004
L74.1750 48.2647
" />
<path d="M74.1750 48.2647
L74.2107 48.1933
" />
<path d="M74.2107 48.1933
L74.2107 47.5504
" />
<path d="M73.8179 48.3004
L73.8179 47.5504
" />
<path d="M73.8179 47.8361
L73.7464 47.8004
" />
<path d="M73.7464 47.8004
L73.6036 47.8004
" />
<path d="M73.6036 47.8004
L73.5321 47.8361
" />
<path d="M73.5321 47.8361
L73.4964 47.8718
" />
<path d="M73.4964 47.8718
L73.4607 47.9433
" />
<path d="M73.4607 47.9433
L73.4607 48.1576
" />
<path d="M73.4607 48.1576
L73.4964 48.2290
" />
<path d="M73.4964 48.2290
L73.5321 48.2647
" />
<path d="M73.5321 48.2647
L73.6036 48.3004
" />
<path d="M73.6036 48.3004
L73.7464 48.3004
" />
<path d="M73.7464 48.3004
L73.8179 48.2647
" />
<path d="M73.0321 48.3004
L73.1036 48.2647
" />
<path d="M73.1036 48.2647
L73.1393 48.2290
" />
<path d="M73.1393 48.2290
L73.1750 48.1576
" />
<path d="M73.1750 48.1576
L73.1750 47.9433
" />
<path d="M73.1750 47.9433
L73.1393 47.8718
" />
<path d="M73.1393 47.8718
L73.1036 47.8361
" />
<path d="M73.1036 47.8361
L73.0321 47.8004
" />
<path d="M73.0321 47.8004
L72.9250 47.8004
" />
<path d="M72.9250 47.8004
L72.8536 47.8361
" />
<path d="M72.8536 47.8361
L72.8179 47.8718
" />
<path d="M72.8179 47.8718
L72.7821 47.9433
" />
<path d="M72.7821 47.9433
L72.7821 48.1576
" />
<path d="M72.7821 48.1576
L72.8179 48.2290
" />
<path d="M72.8179 48.2290
L72.8536 48.2647
" />
<path d="M72.8536 48.2647
L72.9250 48.3004
" />
<path d="M72.9250 48.3004
L73.0321 48.3004
" />
<path d="M72.1393 48.3004
L72.1393 47.9076
" />
<path d="M72.1393 47.9076
L72.1750 47.8361
" />
<path d="M72.1750 47.8361
L72.2464 47.8004
" />
<path d="M72.2464 47.8004
L72.3893 47.8004
" />
<path d="M72.3893 47.8004
L72.4607 47.8361
" />
<path d="M72.1393 48.2647
L72.2107 48.3004
" />
<path d="M72.2107 48.3004
L72.3893 48.3004
" />
<path d="M72.3893 48.3004
L72.4607 48.2647
" />
<path d="M72.4607 48.2647
L72.4964 48.1933
" />
<path d="M72.4964 48.1933
L72.4964 48.1218
" />
<path d="M72.4964 48.1218
L72.4607 48.0504
" />
<path d="M72.4607 48.0504
L72.3893 48.0147
" />
<path d="M72.3893 48.0147
L72.2107 48.0147
" />
<path d="M72.2107 48.0147
L72.1393 47.9790
" />
<path d="M71.7821 48.3004
L71.7821 47.8004
" />
<path d="M71.7821 47.9433
L71.7464 47.8718
" />
<path d="M71.7464 47.8718
L71.7107 47.8361
" />
<path d="M71.7107 47.8361
L71.6393 47.8004
" />
<path d="M71.6393 47.8004
L71.5679 47.8004
" />
<path d="M70.9964 48.3004
L70.9964 47.5504
" />
<path d="M70.9964 48.2647
L71.0679 48.3004
" />
<path d="M71.0679 48.3004
L71.2107 48.3004
" />
<path d="M71.2107 48.3004
L71.2821 48.2647
" />
<path d="M71.2821 48.2647
L71.3179 48.2290
" />
<path d="M71.3179 48.2290
L71.3536 48.1576
" />
<path d="M71.3536 48.1576
L71.3536 47.9433
" />
<path d="M71.3536 47.9433
L71.3179 47.8718
" />
<path d="M71.3179 47.8718
L71.2821 47.8361
" />
<path d="M71.2821 47.8361
L71.2107 47.8004
" />
<path d="M71.2107 47.8004
L71.0679 47.8004
" />
<path d="M71.0679 47.8004
L70.9964 47.8361
" />
</g><g transform="rotate(-90.000000 92.8000 54.0000)">
<text x="92.8000" y="54.5000"
transform="scale(-1 1) translate(-185.600000 0)"
textLength="1.8893" font-size="1.3333" lengthAdjust="spacingAndGlyphs"
text-anchor="middle" opacity="0">J1</text>
</g>
<g class="stroked-text"><desc>J1</desc>
<path d="M92.2548 53.6667
L92.9691 53.6667
" />
<path d="M92.9691 53.6667
L93.1120 53.6190
" />
<path d="M93.1120 53.6190
L93.2072 53.5238
" />
<path d="M93.2072 53.5238
L93.2548 53.3810
" />
<path d="M93.2548 53.3810
L93.2548 53.2857
" />
<path d="M93.2548 54.6667
L93.2548 54.0952
" />
<path d="M93.2548 54.3810
L92.2548 54.3810
" />
<path d="M92.2548 54.3810
L92.3977 54.2857
" />
<path d="M92.3977 54.2857
L92.4929 54.1905
" />
<path d="M92.4929 54.1905
L92.5405 54.0952
" />
</g></g>
<g style="fill:#000000; fill-opacity:0.0; 
stroke:#000000; stroke-width:0.1200; stroke-opacity:1; 
stroke-linecap:round; stroke-linejoin:round;">
<path d="M88.9400 62.0600
L88.9400 57.9400
" />
<path d="M89.2400 62.0600
L88.9400 62.0600
" />
<path d="M91.2400 62.0600
L90.7600 62.0600
" />
<path d="M93.0600 62.0600
L92.7600 62.0600
" />
<path d="M93.0600 62.0600
L93.0600 57.9400
" />
<path d="M89.2400 57.9400
L88.9400 57.9400
" />
<path d="M91.2400 57.9400
L90.7600 57.9400
" />
<path d="M92.7600 57.9400
L92.7600 55.5600
" />
<path d="M93.0600 57.9400
L92.7600 57.9400
" />
<g >
</g>
<g >
</g>
<g >
</g>
<g >
</g>
<g >
</g>
<g >
</g>
<g >
</g>
<g >
</g>
<g >
</g>
<g >
</g>
<g >
</g>
<g >
</g>
<g >
</g>
<g >
</g>
<g >
</g>
<g >
</g>
<g >
</g>
<g >
</g>
<g >
</g>
<g >
</g>
<g >
</g>
<g >
</g>
<g >
</g>
<g >
</g>
<g >
</g>
<g >
</g>
<g >
</g>
<g >
</g>
</g>
<g style="fill:#FFFFFF; fill-opacity:0.0; 
stroke:#FFFFFF; stroke-width:0.1200; stroke-opacity:1; 
stroke-linecap:round; stroke-linejoin:round;">
</g>
<g style="fill:#FFFFFF; fill-opacity:1.0000; 
stroke:#FFFFFF; stroke-width:0.0000; stroke-opacity:1; 
stroke-linecap:round; stroke-linejoin:round;">
<circle cx="89.5000" cy="61.1000" r="0.2000" /> 
</g>
<g style="fill:#FFFFFF; fill-opacity:1.0000; 
stroke:#FFFFFF; stroke-width:0.0212; stroke-opacity:1; 
stroke-linecap:round; stroke-linejoin:round;">
</g>
<g style="fill:#FFFFFF; fill-opacity:1.0000; 
stroke:#FFFFFF; stroke-width:0.0000; stroke-opacity:1; 
stroke-linecap:round; stroke-linejoin:round;">
<circle cx="88.1000" cy="63.1000" r="0.2000" /> 
</g>
<g style="fill:#FFFFFF; fill-opacity:1.0000; 
stroke:#FFFFFF; stroke-width:0.0212; stroke-opacity:1; 
stroke-linecap:round; stroke-linejoin:round;">
</g>
<g style="fill:#FFFFFF; fill-opacity:1.0000; 
stroke:#FFFFFF; stroke-width:0.0000; stroke-opacity:1; 
stroke-linecap:round; stroke-linejoin:round;">
<circle cx="89.7263" cy="65.1536" r="0.2000" /> 
</g>
<g style="fill:#FFFFFF; fill-opacity:1.0000; 
stroke:#FFFFFF; stroke-width:0.0212; stroke-opacity:1; 
stroke-linecap:round; stroke-linejoin:round;">
</g>
<g style="fill:#FFFFFF; fill-opacity:1.0000; 
stroke:#FFFFFF; stroke-width:0.0000; stroke-opacity:1; 
stroke-linecap:round; stroke-linejoin:round;">
<circle cx="69.0000" cy="60.4000" r="0.2000" /> 
</g>
<g style="fill:#FFFFFF; fill-opacity:1.0000; 
stroke:#FFFFFF; stroke-width:0.0212; stroke-opacity:1; 
stroke-linecap:round; stroke-linejoin:round;">
</g>
<g style="fill:#FFFFFF; fill-opacity:1.0000; 
stroke:#FFFFFF; stroke-width:0.0000; stroke-opacity:1; 
stroke-linecap:round; stroke-linejoin:round;">
<circle cx="80.4000" cy="71.0000" r="0.2000" /> 
</g>
<g style="fill:#FFFFFF; fill-opacity:1.0000; 
stroke:#FFFFFF; stroke-width:0.0212; stroke-opacity:1; 
stroke-linecap:round; stroke-linejoin:round;">
</g>
<g style="fill:#FFFFFF; fill-opacity:1.0000; 
stroke:#FFFFFF; stroke-width:0.0000; stroke-opacity:1; 
stroke-linecap:round; stroke-linejoin:round;">
<circle cx="85.1536" cy="50.2737" r="0.2000" /> 
</g>
<g style="fill:#FFFFFF; fill-opacity:1.0000; 
stroke:#FFFFFF; stroke-width:0.0212; stroke-opacity:1; 
stroke-linecap:round; stroke-linejoin:round;">
</g>
<g style="fill:#FFFFFF; fill-opacity:1.0000; 
stroke:#FFFFFF; stroke-width:0.0000; stroke-opacity:1; 
stroke-linecap:round; stroke-linejoin:round;">
<circle cx="74.1536" cy="50.6737" r="0.2000" /> 
</g>
<g style="fill:#FFFFFF; fill-opacity:1.0000; 
stroke:#FFFFFF; stroke-width:0.0212; stroke-opacity:1; 
stroke-linecap:round; stroke-linejoin:round;">
</g>
<g style="fill:#FFFFFF; fill-opacity:1.0000; 
stroke:#FFFFFF; stroke-width:0.0000; stroke-opacity:1; 
stroke-linecap:round; stroke-linejoin:round;">
<circle cx="79.6000" cy="49.0000" r="0.2000" /> 
</g>
<g style="fill:#FFFFFF; fill-opacity:1.0000; 
stroke:#FFFFFF; stroke-width:0.0212; stroke-opacity:1; 
stroke-linecap:round; stroke-linejoin:round;">
</g>
<g style="fill:#FFFFFF; fill-opacity:1.0000; 
stroke:#FFFFFF; stroke-width:0.0000; stroke-opacity:1; 
stroke-linecap:round; stroke-linejoin:round;">
<circle cx="70.2737" cy="54.8464" r="0.2000" /> 
</g>
<g style="fill:#FFFFFF; fill-opacity:1.0000; 
stroke:#FFFFFF; stroke-width:0.0212; stroke-opacity:1; 
stroke-linecap:round; stroke-linejoin:round;">
</g>
<g style="fill:#FFFFFF; fill-opacity:1.0000; 
stroke:#FFFFFF; stroke-width:0.0000; stroke-opacity:1; 
stroke-linecap:round; stroke-linejoin:round;">
<circle cx="89.3263" cy="54.1536" r="0.2000" /> 
</g>
<g style="fill:#FFFFFF; fill-opacity:1.0000; 
stroke:#FFFFFF; stroke-width:0.0212; stroke-opacity:1; 
stroke-linecap:round; stroke-linejoin:round;">
</g>
<g style="fill:#FFFFFF; fill-opacity:1.0000; 
stroke:#FFFFFF; stroke-width:0.0000; stroke-opacity:1; 
stroke-linecap:round; stroke-linejoin:round;">
<circle cx="85.8464" cy="69.3263" r="0.2000" /> 
</g>
<g style="fill:#FFFFFF; fill-opacity:1.0000; 
stroke:#FFFFFF; stroke-width:0.0212; stroke-opacity:1; 
stroke-linecap:round; stroke-linejoin:round;">
</g>
<g style="fill:#FFFFFF; fill-opacity:1.0000; 
stroke:#FFFFFF; stroke-width:0.0000; stroke-opacity:1; 
stroke-linecap:round; stroke-linejoin:round;">
<circle cx="74.8464" cy="69.7263" r="0.2000" /> 
</g>
<g style="fill:#FFFFFF; fill-opacity:1.0000; 
stroke:#FFFFFF; stroke-width:0.0212; stroke-opacity:1; 
stroke-linecap:round; stroke-linejoin:round;">
</g>
<g style="fill:#FFFFFF; fill-opacity:1.0000; 
stroke:#FFFFFF; stroke-width:0.0000; stroke-opacity:1; 
stroke-linecap:round; stroke-linejoin:round;">
<circle cx="91.0000" cy="59.6000" r="0.2000" /> 
</g>
<g style="fill:#FFFFFF; fill-opacity:1.0000; 
stroke:#FFFFFF; stroke-width:0.0212; stroke-opacity:1; 
stroke-linecap:round; stroke-linejoin:round;">
</g>
<g style="fill:#FFFFFF; fill-opacity:1.0000; 
stroke:#FFFFFF; stroke-width:0.0000; stroke-opacity:1; 
stroke-linecap:round; stroke-linejoin:round;">
<circle cx="70.6737" cy="65.8464" r="0.2000" /> 
</g>
<g style="fill:#FFFFFF; fill-opacity:1.0000; 
stroke:#FFFFFF; stroke-width:0.0212; stroke-opacity:1; 
stroke-linecap:round; stroke-linejoin:round;">
</g>
<g style="fill:#FFFFFF; fill-opacity:1.0000; 
stroke:#FFFFFF; stroke-width:0.0000; stroke-opacity:1; 
stroke-linecap:round; stroke-linejoin:round;">
<circle cx="92.0000" cy="65.0000" r="0.2000" /> 
</g>
<g style="fill:#FFFFFF; fill-opacity:1.0000; 
stroke:#FFFFFF; stroke-width:0.0212; stroke-opacity:1; 
stroke-linecap:round; stroke-linejoin:round;">
</g>
<g style="fill:#FFFFFF; fill-opacity:1.0000; 
stroke:#FFFFFF; stroke-width:0.0000; stroke-opacity:1; 
stroke-linecap:round; stroke-linejoin:round;">
<circle cx="93.0000" cy="61.2000" r="0.2000" /> 
</g>
<g style="fill:#FFFFFF; fill-opacity:1.0000; 
stroke:#FFFFFF; stroke-width:0.0212; stroke-opacity:1; 
stroke-linecap:round; stroke-linejoin:round;">
</g>
<g style="fill:#FFFFFF; fill-opacity:1.0000; 
stroke:#FFFFFF; stroke-width:0.0000; stroke-opacity:1; 
stroke-linecap:round; stroke-linejoin:round;">
<circle cx="93.0000" cy="62.6000" r="0.2000" /> 
</g>
<g style="fill:#FFFFFF; fill-opacity:1.0000; 
stroke:#FFFFFF; stroke-width:0.0212; stroke-opacity:1; 
stroke-linecap:round; stroke-linejoin:round;">
</g>
<g style="fill:#FFFFFF; fill-opacity:1.0000; 
stroke:#FFFFFF; stroke-width:0.0000; stroke-opacity:1; 
stroke-linecap:round; stroke-linejoin:round;">
<circle cx="93.0000" cy="65.0000" r="0.2000" /> 
</g>
<g style="fill:#FFFFFF; fill-opacity:1.0000; 
stroke:#FFFFFF; stroke-width:0.0212; stroke-opacity:1; 
stroke-linecap:round; stroke-linejoin:round;">
</g>
<g style="fill:#FFFFFF; fill-opacity:1.0000; 
stroke:#FFFFFF; stroke-width:0.0000; stroke-opacity:1; 
stroke-linecap:round; stroke-linejoin:round;">
<circle cx="93.0000" cy="63.8000" r="0.2000" /> 
</g>
<g style="fill:#FFFFFF; fill-opacity:1.0000; 
stroke:#FFFFFF; stroke-width:0.0212; stroke-opacity:1; 
stroke-linecap:round; stroke-linejoin:round;">
</g>
<g style="fill:#FFFFFF; fill-opacity:1.0000; 
stroke:#FFFFFF; stroke-width:0.0000; stroke-opacity:1; 
stroke-linecap:round; stroke-linejoin:round;">
<circle cx="92.0000" cy="61.2000" r="0.2000" /> 
</g>
<g style="fill:#FFFFFF; fill-opacity:1.0000; 
stroke:#FFFFFF; stroke-width:0.0212; stroke-opacity:1; 
stroke-linecap:round; stroke-linejoin:round;">
</g>
<g style="fill:#000000; fill-opacity:1.0000; 
stroke:#000000; stroke-width:0.0212; stroke-opacity:1; 
stroke-linecap:round; stroke-linejoin:round;">
</g> 
</svg>
