<?xml version="1.0" standalone="no"?>
 <!DOCTYPE svg PUBLIC "-//W3C//DTD SVG 1.1//EN" 
 "http://www.w3.org/Graphics/SVG/1.1/DTD/svg11.dtd"> 
<svg
  xmlns:svg="http://www.w3.org/2000/svg"
  xmlns="http://www.w3.org/2000/svg"
  xmlns:xlink="http://www.w3.org/1999/xlink"
  version="1.1"
  width="297.0022mm" height="210.0072mm" viewBox="0.0000 0.0000 297.0022 210.0072">
<title>SVG Image created as pedalboard-led-ring-B_Cu.svg date 2023/06/05 16:13:24 </title>
  <desc>Image generated by PCBNEW </desc>
<g style="fill:#000000; fill-opacity:1.0000;stroke:#000000; stroke-opacity:1.0000;
stroke-linecap:round; stroke-linejoin:round;"
 transform="translate(0 0) scale(1 1)">
</g>
<g style="fill:#000000; fill-opacity:0.0; 
stroke:#000000; stroke-width:0.0000; stroke-opacity:1; 
stroke-linecap:round; stroke-linejoin:round;">
<g >
</g>
<g >
</g>
<g >
</g>
<g >
</g>
<g >
</g>
<g >
</g>
<g >
</g>
<g >
</g>
<g >
</g>
<g >
</g>
<g >
</g>
<g >
</g>
<g >
</g>
<g >
</g>
<g >
</g>
<g >
</g>
<g >
</g>
<g >
</g>
<g >
</g>
<g >
</g>
<g >
</g>
<g >
</g>
<g >
</g>
<g >
</g>
<g >
</g>
<g >
</g>
<g >
</g>
<g >
</g>
<g >
</g>
<g >
</g>
<g style="fill:#000000; fill-opacity:0.0; 
stroke:#000000; stroke-width:0.0000; stroke-opacity:1; 
stroke-linecap:round; stroke-linejoin:round;">
</g>
<g style="fill:#000000; fill-opacity:0.0; 
stroke:#000000; stroke-width:0.0000; stroke-opacity:1; 
stroke-linecap:round; stroke-linejoin:round;">
</g>
<g style="fill:#000000; fill-opacity:1.0000; 
stroke:#000000; stroke-width:0.0000; stroke-opacity:1; 
stroke-linecap:round; stroke-linejoin:round;">
<path style="fill:#000000; fill-opacity:1.0000; 
stroke:#000000; stroke-width:0.0000; stroke-opacity:1; 
stroke-linecap:round; stroke-linejoin:round;fill-rule:evenodd;"
d="M 91.5000,58.2500
90.5000,58.2500
90.5000,55.5000
91.5000,55.5000
Z" /> 
<path style="fill:#000000; fill-opacity:1.0000; 
stroke:#000000; stroke-width:0.0000; stroke-opacity:1; 
stroke-linecap:round; stroke-linejoin:round;fill-rule:evenodd;"
d="M 91.5000,64.5000
90.5000,64.5000
90.5000,61.7500
91.5000,61.7500
Z" /> 
<path style="fill:#000000; fill-opacity:1.0000; 
stroke:#000000; stroke-width:0.0000; stroke-opacity:1; 
stroke-linecap:round; stroke-linejoin:round;fill-rule:evenodd;"
d="M 89.5000,58.2500
88.5000,58.2500
88.5000,55.5000
89.5000,55.5000
Z" /> 
<path style="fill:#000000; fill-opacity:1.0000; 
stroke:#000000; stroke-width:0.0000; stroke-opacity:1; 
stroke-linecap:round; stroke-linejoin:round;fill-rule:evenodd;"
d="M 89.5000,64.5000
88.5000,64.5000
88.5000,61.7500
89.5000,61.7500
Z" /> 
</g>
<g >
</g>
<g style="fill:#000000; fill-opacity:1.0000; 
stroke:#000000; stroke-width:0.0000; stroke-opacity:1; 
stroke-linecap:round; stroke-linejoin:round;">
<path style="fill:#000000; fill-opacity:1.0000; 
stroke:#000000; stroke-width:0.0000; stroke-opacity:1; 
stroke-linecap:round; stroke-linejoin:round;fill-rule:evenodd;"
d="M 88.7500,71.0000
88.7500,70.0000
91.5000,70.0000
91.5000,71.0000
Z" /> 
<path style="fill:#000000; fill-opacity:1.0000; 
stroke:#000000; stroke-width:0.0000; stroke-opacity:1; 
stroke-linecap:round; stroke-linejoin:round;fill-rule:evenodd;"
d="M 82.5000,71.0000
82.5000,70.0000
85.2500,70.0000
85.2500,71.0000
Z" /> 
<path style="fill:#000000; fill-opacity:1.0000; 
stroke:#000000; stroke-width:0.0000; stroke-opacity:1; 
stroke-linecap:round; stroke-linejoin:round;fill-rule:evenodd;"
d="M 88.7500,69.0000
88.7500,68.0000
91.5000,68.0000
91.5000,69.0000
Z" /> 
<path style="fill:#000000; fill-opacity:1.0000; 
stroke:#000000; stroke-width:0.0000; stroke-opacity:1; 
stroke-linecap:round; stroke-linejoin:round;fill-rule:evenodd;"
d="M 82.5000,69.0000
82.5000,68.0000
85.2500,68.0000
85.2500,69.0000
Z" /> 
</g>
<g >
</g>
<g style="fill:#000000; fill-opacity:1.0000; 
stroke:#000000; stroke-width:0.0000; stroke-opacity:1; 
stroke-linecap:round; stroke-linejoin:round;">
<circle cx="86.8000" cy="63.6000" r="0.4000" /> 
</g>
<g style="fill:#000000; fill-opacity:1.0000; 
stroke:#000000; stroke-width:0.0212; stroke-opacity:1; 
stroke-linecap:round; stroke-linejoin:round;">
</g>
<g style="fill:#000000; fill-opacity:1.0000; 
stroke:#000000; stroke-width:0.0000; stroke-opacity:1; 
stroke-linecap:round; stroke-linejoin:round;">
<circle cx="74.0000" cy="52.0000" r="0.4000" /> 
</g>
<g style="fill:#000000; fill-opacity:1.0000; 
stroke:#000000; stroke-width:0.0212; stroke-opacity:1; 
stroke-linecap:round; stroke-linejoin:round;">
</g>
<g style="fill:#000000; fill-opacity:1.0000; 
stroke:#000000; stroke-width:0.0000; stroke-opacity:1; 
stroke-linecap:round; stroke-linejoin:round;">
<circle cx="89.9282" cy="58.8038" r="0.4000" /> 
</g>
<g style="fill:#000000; fill-opacity:1.0000; 
stroke:#000000; stroke-width:0.0212; stroke-opacity:1; 
stroke-linecap:round; stroke-linejoin:round;">
</g>
<g style="fill:#000000; fill-opacity:1.0000; 
stroke:#000000; stroke-width:0.0000; stroke-opacity:1; 
stroke-linecap:round; stroke-linejoin:round;">
<circle cx="70.0718" cy="61.1962" r="0.4000" /> 
</g>
<g style="fill:#000000; fill-opacity:1.0000; 
stroke:#000000; stroke-width:0.0212; stroke-opacity:1; 
stroke-linecap:round; stroke-linejoin:round;">
</g>
<g style="fill:#000000; fill-opacity:1.0000; 
stroke:#000000; stroke-width:0.0000; stroke-opacity:1; 
stroke-linecap:round; stroke-linejoin:round;">
<circle cx="76.0718" cy="69.1962" r="0.4000" /> 
</g>
<g style="fill:#000000; fill-opacity:1.0000; 
stroke:#000000; stroke-width:0.0212; stroke-opacity:1; 
stroke-linecap:round; stroke-linejoin:round;">
</g>
<g style="fill:#000000; fill-opacity:1.0000; 
stroke:#000000; stroke-width:0.0000; stroke-opacity:1; 
stroke-linecap:round; stroke-linejoin:round;">
<circle cx="81.1962" cy="69.9282" r="0.4000" /> 
</g>
<g style="fill:#000000; fill-opacity:1.0000; 
stroke:#000000; stroke-width:0.0212; stroke-opacity:1; 
stroke-linecap:round; stroke-linejoin:round;">
</g>
<g style="fill:#000000; fill-opacity:1.0000; 
stroke:#000000; stroke-width:0.0000; stroke-opacity:1; 
stroke-linecap:round; stroke-linejoin:round;">
<circle cx="83.9282" cy="50.8038" r="0.4000" /> 
</g>
<g style="fill:#000000; fill-opacity:1.0000; 
stroke:#000000; stroke-width:0.0212; stroke-opacity:1; 
stroke-linecap:round; stroke-linejoin:round;">
</g>
<g style="fill:#000000; fill-opacity:1.0000; 
stroke:#000000; stroke-width:0.0000; stroke-opacity:1; 
stroke-linecap:round; stroke-linejoin:round;">
<circle cx="72.0000" cy="66.0000" r="0.4000" /> 
</g>
<g style="fill:#000000; fill-opacity:1.0000; 
stroke:#000000; stroke-width:0.0212; stroke-opacity:1; 
stroke-linecap:round; stroke-linejoin:round;">
</g>
<g style="fill:#000000; fill-opacity:1.0000; 
stroke:#000000; stroke-width:0.0000; stroke-opacity:1; 
stroke-linecap:round; stroke-linejoin:round;">
<circle cx="86.0000" cy="67.9400" r="0.4000" /> 
</g>
<g style="fill:#000000; fill-opacity:1.0000; 
stroke:#000000; stroke-width:0.0212; stroke-opacity:1; 
stroke-linecap:round; stroke-linejoin:round;">
</g>
<g style="fill:#000000; fill-opacity:1.0000; 
stroke:#000000; stroke-width:0.0000; stroke-opacity:1; 
stroke-linecap:round; stroke-linejoin:round;">
<circle cx="70.8038" cy="56.0718" r="0.4000" /> 
</g>
<g style="fill:#000000; fill-opacity:1.0000; 
stroke:#000000; stroke-width:0.0212; stroke-opacity:1; 
stroke-linecap:round; stroke-linejoin:round;">
</g>
<g style="fill:#000000; fill-opacity:1.0000; 
stroke:#000000; stroke-width:0.0000; stroke-opacity:1; 
stroke-linecap:round; stroke-linejoin:round;">
<circle cx="88.0000" cy="54.0000" r="0.4000" /> 
</g>
<g style="fill:#000000; fill-opacity:1.0000; 
stroke:#000000; stroke-width:0.0212; stroke-opacity:1; 
stroke-linecap:round; stroke-linejoin:round;">
</g>
<g style="fill:#000000; fill-opacity:1.0000; 
stroke:#000000; stroke-width:0.0000; stroke-opacity:1; 
stroke-linecap:round; stroke-linejoin:round;">
<circle cx="88.2600" cy="66.0200" r="0.4000" /> 
</g>
<g style="fill:#000000; fill-opacity:1.0000; 
stroke:#000000; stroke-width:0.0212; stroke-opacity:1; 
stroke-linecap:round; stroke-linejoin:round;">
</g>
<g style="fill:#000000; fill-opacity:1.0000; 
stroke:#000000; stroke-width:0.0000; stroke-opacity:1; 
stroke-linecap:round; stroke-linejoin:round;">
<circle cx="78.8038" cy="50.0718" r="0.4000" /> 
</g>
<g style="fill:#000000; fill-opacity:1.0000; 
stroke:#000000; stroke-width:0.0212; stroke-opacity:1; 
stroke-linecap:round; stroke-linejoin:round;">
</g>
<g style="fill:#000000; fill-opacity:1.0000; 
stroke:#000000; stroke-width:0.0000; stroke-opacity:1; 
stroke-linecap:round; stroke-linejoin:round;">
<circle cx="90.4000" cy="61.4000" r="0.4000" /> 
</g>
<g style="fill:#000000; fill-opacity:1.0000; 
stroke:#000000; stroke-width:0.0212; stroke-opacity:1; 
stroke-linecap:round; stroke-linejoin:round;">
</g>
<g style="fill:#000000; fill-opacity:1.0000; 
stroke:#000000; stroke-width:0.0000; stroke-opacity:1; 
stroke-linecap:round; stroke-linejoin:round;">
<circle cx="82.9000" cy="71.4000" r="0.4000" /> 
</g>
<g style="fill:#000000; fill-opacity:1.0000; 
stroke:#000000; stroke-width:0.0212; stroke-opacity:1; 
stroke-linecap:round; stroke-linejoin:round;">
</g>
<g style="fill:#000000; fill-opacity:1.0000; 
stroke:#000000; stroke-width:0.0000; stroke-opacity:1; 
stroke-linecap:round; stroke-linejoin:round;">
<circle cx="91.1500" cy="61.4000" r="0.4000" /> 
</g>
<g style="fill:#000000; fill-opacity:1.0000; 
stroke:#000000; stroke-width:0.0212; stroke-opacity:1; 
stroke-linecap:round; stroke-linejoin:round;">
</g>
<g style="fill:#000000; fill-opacity:1.0000; 
stroke:#000000; stroke-width:0.0000; stroke-opacity:1; 
stroke-linecap:round; stroke-linejoin:round;">
<circle cx="91.1500" cy="64.8500" r="0.4000" /> 
</g>
<g style="fill:#000000; fill-opacity:1.0000; 
stroke:#000000; stroke-width:0.0212; stroke-opacity:1; 
stroke-linecap:round; stroke-linejoin:round;">
</g>
<g style="fill:#000000; fill-opacity:1.0000; 
stroke:#000000; stroke-width:0.0000; stroke-opacity:1; 
stroke-linecap:round; stroke-linejoin:round;">
<circle cx="90.4000" cy="64.8500" r="0.4000" /> 
</g>
<g style="fill:#000000; fill-opacity:1.0000; 
stroke:#000000; stroke-width:0.0212; stroke-opacity:1; 
stroke-linecap:round; stroke-linejoin:round;">
</g>
<g style="fill:#000000; fill-opacity:1.0000; 
stroke:#000000; stroke-width:0.0000; stroke-opacity:1; 
stroke-linecap:round; stroke-linejoin:round;">
<circle cx="84.9000" cy="71.4000" r="0.4000" /> 
</g>
<g style="fill:#000000; fill-opacity:1.0000; 
stroke:#000000; stroke-width:0.0212; stroke-opacity:1; 
stroke-linecap:round; stroke-linejoin:round;">
</g>
<g style="fill:#000000; fill-opacity:1.0000; 
stroke:#000000; stroke-width:0.0000; stroke-opacity:1; 
stroke-linecap:round; stroke-linejoin:round;">
<circle cx="85.7000" cy="70.5000" r="0.4000" /> 
</g>
<g style="fill:#000000; fill-opacity:1.0000; 
stroke:#000000; stroke-width:0.0212; stroke-opacity:1; 
stroke-linecap:round; stroke-linejoin:round;">
</g>
<g style="fill:#000000; fill-opacity:1.0000; 
stroke:#000000; stroke-width:0.0000; stroke-opacity:1; 
stroke-linecap:round; stroke-linejoin:round;">
<circle cx="83.9000" cy="71.4000" r="0.4000" /> 
</g>
<g style="fill:#000000; fill-opacity:1.0000; 
stroke:#000000; stroke-width:0.0212; stroke-opacity:1; 
stroke-linecap:round; stroke-linejoin:round;">
</g>
<g style="fill:#000000; fill-opacity:1.0000; 
stroke:#000000; stroke-width:0.0000; stroke-opacity:1; 
stroke-linecap:round; stroke-linejoin:round;">
<circle cx="87.9100" cy="61.1500" r="0.4000" /> 
</g>
<g style="fill:#000000; fill-opacity:1.0000; 
stroke:#000000; stroke-width:0.0212; stroke-opacity:1; 
stroke-linecap:round; stroke-linejoin:round;">
</g>
<g >
</g>
<g style="fill:#000000; fill-opacity:1.0000; 
stroke:#000000; stroke-width:0.0212; stroke-opacity:1; 
stroke-linecap:round; stroke-linejoin:round;">
</g>
<g style="fill:#000000; fill-opacity:1.0000; 
stroke:#000000; stroke-width:0.2500; stroke-opacity:1; 
stroke-linecap:round; stroke-linejoin:round;">
</g>
<g style="fill:#000000; fill-opacity:0.0; 
stroke:#000000; stroke-width:0.2500; stroke-opacity:1; 
stroke-linecap:round; stroke-linejoin:round;">
<path d="M88.6250 63.5000
L86.9000 63.5000
" />
<path d="M86.8000 64.6800
L83.8750 67.6050
" />
<path d="M86.9000 63.5000
L86.8000 63.6000
" />
<path d="M83.8750 67.6050
L83.8750 68.5000
" />
<path d="M86.8000 63.6000
L86.8000 64.6800
" />
<path d="M91.0000 64.2500
L90.4000 64.8500
" />
<path d="M91.0000 64.7000
L91.1500 64.8500
" />
<path d="M91.1000 64.9000
L90.4000 64.9000
" />
<path d="M91.0000 63.1250
L91.0000 62.0000
" />
<path d="M83.8000 70.5000
L82.9000 71.4000
" />
<path d="M91.0000 63.1250
L91.0000 61.5500
" />
<path d="M91.0000 63.1250
L91.0000 64.2500
" />
<path d="M83.8750 70.5000
L85.7000 70.5000
" />
<path d="M83.8750 70.5000
L83.8750 71.3750
" />
<path d="M91.0000 62.0000
L90.4000 61.4000
" />
<path d="M91.0000 61.5500
L91.1500 61.4000
" />
<path d="M84.0000 70.5000
L84.9000 71.4000
" />
<path d="M83.8750 71.3750
L83.9000 71.4000
" />
<path d="M91.0000 63.1250
L91.0000 64.7000
" />
<path d="M89.0000 60.5600
L91.8750 60.5600
" />
<path d="M91.8750 60.5600
L91.8750 67.2500
" />
<path d="M88.5500 60.5600
L89.0000 60.5600
" />
<path d="M91.8750 67.2500
L91.1250 68.0000
" />
<path d="M87.9100 61.2000
L88.5500 60.5600
" />
<path d="M89.0000 56.8750
L89.0000 60.5600
" />
</g>
<g >
</g>
<g style="fill:#000000; fill-opacity:0.0; 
stroke:#000000; stroke-width:0.2500; stroke-opacity:1; 
stroke-linecap:round; stroke-linejoin:round;">
<g >
</g>
<g style="fill:#000000; fill-opacity:1.0000; 
stroke:#000000; stroke-width:0.0000; stroke-opacity:1; 
stroke-linecap:round; stroke-linejoin:round;">
<path style="fill:#000000; fill-opacity:1.0000; 
stroke:#000000; stroke-width:0.0000; stroke-opacity:1; 
stroke-linecap:round; stroke-linejoin:round;fill-rule:evenodd;"
d="M 91.0021,48.0007
91.0455,48.0045
91.1738,48.0171
91.1897,48.0200
91.2576,48.0382
91.2590,48.0386
91.3533,48.0672
91.3664,48.0722
91.4357,48.1045
91.4381,48.1057
91.5230,48.1511
91.5281,48.1542
91.5952,48.2013
91.5982,48.2035
91.6329,48.2320
91.6713,48.2635
91.6749,48.2668
91.7332,48.3251
91.7365,48.3287
91.7965,48.4018
91.7987,48.4048
91.8458,48.4719
91.8489,48.4770
91.8943,48.5619
91.8955,48.5643
91.9278,48.6336
91.9328,48.6467
91.9614,48.7409
91.9618,48.7424
91.9800,48.8103
91.9829,48.8262
91.9955,48.9545
91.9993,48.9978
91.9995,49.0022
91.9995,60.1355
91.9806,60.1937
91.9311,60.2297
91.9005,60.2345
89.4245,60.2345
89.3663,60.2156
89.3303,60.1661
89.3255,60.1355
89.3255,58.5495
89.3444,58.4913
89.3939,58.4553
89.4245,58.4505
89.5197,58.4505
89.5197,58.4505
89.5782,58.4389
89.6446,58.3946
89.6889,58.3282
89.7005,58.2697
89.7005,57.0250
90.2000,57.0250
90.2000,58.2948
90.2029,58.3199
90.2482,58.4225
90.3275,58.5018
90.4301,58.5471
90.4552,58.5500
90.8500,58.5500
90.8500,58.5500
91.1500,58.5500
91.1500,58.5500
91.5448,58.5500
91.5448,58.5500
91.5699,58.5471
91.6725,58.5018
91.7518,58.4225
91.7971,58.3199
91.8000,58.2948
91.8000,58.2948
91.8000,57.0250
91.8000,57.0250
91.1500,57.0250
91.1500,57.0250
91.1500,58.5500
90.8500,58.5500
90.8500,57.0250
90.8500,57.0250
90.2000,57.0250
89.7005,57.0250
89.7005,56.7250
90.2000,56.7250
90.2000,56.7250
90.8500,56.7250
90.8500,56.7250
90.8500,55.2000
91.1500,55.2000
91.1500,56.7250
91.1500,56.7250
91.8000,56.7250
91.8000,56.7250
91.8000,55.4552
91.8000,55.4552
91.7971,55.4301
91.7518,55.3275
91.6725,55.2482
91.5699,55.2029
91.5448,55.2000
91.1500,55.2000
90.8500,55.2000
90.4552,55.2000
90.4552,55.2000
90.4301,55.2029
90.3275,55.2482
90.2482,55.3275
90.2029,55.4301
90.2000,55.4552
90.2000,56.7250
89.7005,56.7250
89.7005,55.4803
89.6889,55.4218
89.6446,55.3554
89.6445,55.3554
89.5782,55.3111
89.5782,55.3111
89.5782,55.3111
89.5782,55.3111
89.5198,55.2995
89.5197,55.2995
88.4803,55.2995
88.4803,55.2995
88.4802,55.2995
88.4218,55.3111
88.4218,55.3111
88.3555,55.3554
88.3554,55.3555
88.3111,55.4218
88.3111,55.4218
88.2995,55.4802
88.2995,55.4803
88.2995,58.2697
88.2995,58.2698
88.3111,58.3282
88.3111,58.3282
88.3554,58.3946
88.4218,58.4389
88.4662,58.4477
88.4802,58.4505
88.4802,58.4505
88.4803,58.4505
88.5755,58.4505
88.6337,58.4694
88.6697,58.5189
88.6745,58.5495
88.6745,60.1355
88.6556,60.1937
88.6061,60.2297
88.5755,60.2345
88.5664,60.2345
88.5621,60.2343
88.5212,60.2307
88.5212,60.2307
88.4816,60.2414
88.4773,60.2423
88.4370,60.2494
88.4369,60.2494
88.4356,60.2502
88.4118,60.2601
88.4103,60.2604
88.4103,60.2604
88.3767,60.2840
88.3731,60.2863
88.3649,60.2910
88.3375,60.3068
88.3112,60.3382
88.3083,60.3414
88.1171,60.5325
88.0626,60.5603
88.0342,60.5607
87.9100,60.5443
87.9100,60.5443
87.7532,60.5650
87.7532,60.5650
87.6072,60.6255
87.6072,60.6255
87.4817,60.7217
87.4817,60.7217
87.3855,60.8472
87.3855,60.8472
87.3250,60.9932
87.3250,60.9932
87.3043,61.1500
87.3043,61.1500
87.3250,61.3068
87.3250,61.3068
87.3855,61.4528
87.3855,61.4528
87.4652,61.5568
87.4817,61.5783
87.6072,61.6745
87.6072,61.6745
87.6072,61.6745
87.6886,61.7083
87.7532,61.7350
87.8708,61.7505
87.9100,61.7557
87.9100,61.7557
87.9100,61.7557
87.9414,61.7516
88.0668,61.7350
88.1626,61.6953
88.2236,61.6905
88.2758,61.7225
88.2992,61.7790
88.2995,61.7868
88.2995,63.0755
88.2806,63.1337
88.2311,63.1697
88.2005,63.1745
87.2655,63.1745
87.2073,63.1556
87.2052,63.1540
87.1028,63.0755
86.9568,63.0150
86.9568,63.0150
86.8000,62.9943
86.8000,62.9943
86.6432,63.0150
86.6432,63.0150
86.4972,63.0755
86.4972,63.0755
86.3717,63.1717
86.3717,63.1717
86.2755,63.2972
86.2755,63.2972
86.2150,63.4432
86.2150,63.4432
86.1943,63.6000
86.1943,63.6000
86.2150,63.7568
86.2150,63.7568
86.2755,63.9028
86.2755,63.9028
86.2755,63.9028
86.3717,64.0283
86.3983,64.0487
86.4358,64.0774
86.4704,64.1279
86.4745,64.1560
86.4745,64.5042
86.4556,64.5624
86.4455,64.5742
83.6564,67.3633
83.6532,67.3662
83.6218,67.3925
83.6218,67.3925
83.6013,67.4281
83.5990,67.4317
83.5754,67.4653
83.5754,67.4653
83.5751,67.4668
83.5652,67.4906
83.5644,67.4919
83.5644,67.4920
83.5573,67.5323
83.5564,67.5366
83.5457,67.5762
83.5457,67.5762
83.5493,67.6171
83.5495,67.6214
83.5495,67.7005
83.5306,67.7587
83.4811,67.7947
83.4505,67.7995
82.4803,67.7995
82.4803,67.7995
82.4802,67.7995
82.4218,67.8111
82.4218,67.8111
82.3555,67.8554
82.3554,67.8555
82.3111,67.9218
82.3111,67.9218
82.2995,67.9802
82.2995,67.9803
82.2995,69.0197
82.2995,69.0198
82.3111,69.0782
82.3111,69.0782
82.3554,69.1446
82.4218,69.1889
82.4662,69.1977
82.4802,69.2005
82.4802,69.2005
82.4803,69.2005
82.4803,69.2005
85.2697,69.2005
85.2697,69.2005
85.3282,69.1889
85.3946,69.1446
85.4389,69.0782
85.4505,69.0197
85.4505,67.9803
85.4389,67.9218
85.3946,67.8554
85.3487,67.8248
85.3282,67.8111
85.3282,67.8111
85.3282,67.8111
85.3282,67.8111
85.2698,67.7995
85.2697,67.7995
85.2697,67.7995
84.3798,67.7995
84.3216,67.7806
84.2857,67.7311
84.2857,67.6699
84.3098,67.6305
87.0186,64.9217
87.0218,64.9188
87.0532,64.8925
87.0737,64.8569
87.0760,64.8533
87.0996,64.8197
87.0999,64.8182
87.1098,64.7943
87.1106,64.7930
87.1177,64.7527
87.1186,64.7485
87.1293,64.7088
87.1257,64.6679
87.1255,64.6636
87.1255,64.1560
87.1444,64.0978
87.1642,64.0774
87.2283,64.0283
87.3245,63.9028
87.3313,63.8866
87.3710,63.8401
87.4227,63.8255
88.2005,63.8255
88.2587,63.8444
88.2947,63.8939
88.2995,63.9245
88.2995,64.5197
88.2995,64.5198
88.3111,64.5782
88.3111,64.5782
88.3554,64.6445
88.3554,64.6446
88.4218,64.6889
88.4662,64.6977
88.4802,64.7005
88.4802,64.7005
88.4803,64.7005
88.4803,64.7005
89.5197,64.7005
89.5197,64.7005
89.5782,64.6889
89.6446,64.6446
89.6446,64.6446
89.6527,64.6391
89.6539,64.6410
89.6965,64.6194
89.7569,64.6289
89.8002,64.6722
89.8101,64.7301
89.7943,64.8500
89.7943,64.8500
89.8150,65.0068
89.8150,65.0068
89.8755,65.1528
89.8755,65.1528
89.8755,65.1528
89.9717,65.2783
89.9717,65.2783
89.9717,65.2783
90.0005,65.3004
90.0972,65.3745
90.0972,65.3745
90.0972,65.3745
90.2030,65.4184
90.2432,65.4350
90.3608,65.4505
90.4000,65.4557
90.4000,65.4557
90.4000,65.4557
90.4314,65.4516
90.5568,65.4350
90.7028,65.3745
90.7147,65.3654
90.7724,65.3450
90.8311,65.3624
90.8353,65.3654
90.8472,65.3745
90.8472,65.3745
90.8472,65.3745
90.9530,65.4184
90.9932,65.4350
91.1108,65.4505
91.1500,65.4557
91.1500,65.4557
91.1500,65.4557
91.1814,65.4516
91.3068,65.4350
91.4126,65.3912
91.4736,65.3864
91.5258,65.4184
91.5492,65.4749
91.5495,65.4827
91.5495,67.0742
91.5306,67.1324
91.5205,67.1442
90.8942,67.7705
90.8397,67.7983
90.8242,67.7995
88.7303,67.7995
88.7303,67.7995
88.7302,67.7995
88.6718,67.8111
88.6718,67.8111
88.6055,67.8554
88.6054,67.8555
88.5611,67.9218
88.5611,67.9218
88.5495,67.9802
88.5495,67.9803
88.5495,69.0197
88.5495,69.0198
88.5611,69.0782
88.5611,69.0782
88.6054,69.1446
88.6718,69.1889
88.7162,69.1977
88.7302,69.2005
88.7302,69.2005
88.7303,69.2005
88.7303,69.2005
91.5197,69.2005
91.5197,69.2005
91.5782,69.1889
91.6446,69.1446
91.6889,69.0782
91.7005,69.0197
91.7005,67.9803
91.6950,67.9526
91.7022,67.8918
91.7221,67.8632
91.8305,67.7548
91.8850,67.7271
91.9454,67.7366
91.9887,67.7799
91.9995,67.8248
91.9995,70.9978
91.9993,71.0022
91.9976,71.0214
91.9781,71.0675
91.9871,71.0830
91.9888,71.1136
91.9829,71.1738
91.9800,71.1897
91.9618,71.2576
91.9614,71.2591
91.9328,71.3533
91.9278,71.3664
91.8955,71.4357
91.8943,71.4381
91.8489,71.5230
91.8458,71.5281
91.7987,71.5952
91.7965,71.5982
91.7365,71.6713
91.7332,71.6749
91.6749,71.7332
91.6713,71.7365
91.5982,71.7965
91.5952,71.7987
91.5281,71.8458
91.5230,71.8489
91.4381,71.8943
91.4357,71.8955
91.3664,71.9278
91.3533,71.9328
91.2591,71.9614
91.2576,71.9618
91.1897,71.9800
91.1738,71.9829
91.0455,71.9955
91.0022,71.9993
90.9978,71.9995
85.3961,71.9995
85.3379,71.9806
85.3019,71.9311
85.3019,71.8699
85.3261,71.8305
85.3283,71.8283
85.3283,71.8283
85.4245,71.7028
85.4850,71.5568
85.5057,71.4000
85.4850,71.2432
85.4780,71.2262
85.4732,71.1652
85.5052,71.1131
85.5617,71.0897
85.5824,71.0902
85.7000,71.1057
85.7000,71.1057
85.7000,71.1057
85.7529,71.0987
85.8568,71.0850
85.9539,71.0448
88.4500,71.0448
88.4529,71.0699
88.4982,71.1725
88.5775,71.2518
88.6801,71.2971
88.7052,71.3000
89.9750,71.3000
89.9750,71.3000
90.2750,71.3000
90.2750,71.3000
91.5448,71.3000
91.5448,71.3000
91.5699,71.2971
91.6725,71.2518
91.7518,71.1725
91.7997,71.0639
91.8108,71.0516
91.8000,71.0128
91.8000,70.6500
91.8000,70.6500
90.2750,70.6500
90.2750,70.6500
90.2750,71.3000
89.9750,71.3000
89.9750,71.3000
89.9750,70.6500
89.9750,70.6500
88.4500,70.6500
88.4500,70.6500
88.4500,71.0448
85.9539,71.0448
86.0028,71.0245
86.1283,70.9283
86.2245,70.8028
86.2850,70.6568
86.3057,70.5000
86.2859,70.3500
88.4500,70.3500
88.4500,70.3500
89.9750,70.3500
89.9750,70.3500
90.2750,70.3500
90.2750,70.3500
91.8000,70.3500
91.8000,70.3500
91.8000,69.9552
91.8000,69.9552
91.7971,69.9301
91.7518,69.8275
91.6725,69.7482
91.5699,69.7029
91.5448,69.7000
90.2750,69.7000
90.2750,69.7000
90.2750,70.3500
89.9750,70.3500
89.9750,69.7000
89.9750,69.7000
88.7052,69.7000
88.7052,69.7000
88.6801,69.7029
88.5775,69.7482
88.4982,69.8275
88.4529,69.9301
88.4500,69.9552
88.4500,70.3500
86.2859,70.3500
86.2850,70.3432
86.2245,70.1972
86.2245,70.1972
86.1283,70.0717
86.1283,70.0717
86.1283,70.0717
86.1283,70.0717
86.1283,70.0717
86.0348,70.0000
86.0028,69.9755
86.0028,69.9755
86.0028,69.9755
85.8568,69.9150
85.8568,69.9150
85.7000,69.8943
85.7000,69.8943
85.5432,69.9150
85.5432,69.9150
85.5330,69.9192
85.4720,69.9240
85.4198,69.8920
85.4128,69.8827
85.3946,69.8554
85.3945,69.8554
85.3282,69.8111
85.3282,69.8111
85.3282,69.8111
85.3282,69.8111
85.2698,69.7995
85.2697,69.7995
82.4803,69.7995
82.4803,69.7995
82.4802,69.7995
82.4218,69.8111
82.4218,69.8111
82.3555,69.8554
82.3554,69.8555
82.3111,69.9218
82.3111,69.9218
82.2995,69.9802
82.2995,69.9803
82.2995,71.0197
82.2995,71.0198
82.3111,71.0782
82.3111,71.0782
82.3263,71.1009
82.3429,71.1598
82.3354,71.1938
82.3150,71.2432
82.3150,71.2432
82.2943,71.4000
82.2943,71.4000
82.3150,71.5568
82.3150,71.5568
82.3755,71.7028
82.3755,71.7028
82.4717,71.8283
82.4717,71.8283
82.4717,71.8283
82.4739,71.8305
82.4750,71.8325
82.4757,71.8334
82.4755,71.8336
82.5017,71.8850
82.4921,71.9454
82.4489,71.9887
82.4039,71.9995
69.0022,71.9995
68.9978,71.9993
68.9545,71.9955
68.8262,71.9829
68.8103,71.9800
68.7734,71.9701
68.7424,71.9618
68.7409,71.9614
68.6467,71.9328
68.6336,71.9278
68.5643,71.8955
68.5619,71.8943
68.4770,71.8489
68.4719,71.8458
68.4048,71.7987
68.4018,71.7965
68.3287,71.7365
68.3251,71.7332
68.2668,71.6749
68.2635,71.6713
68.2035,71.5982
68.2013,71.5952
68.1743,71.5568
68.1542,71.5280
68.1511,71.5230
68.1057,71.4381
68.1045,71.4357
68.0722,71.3664
68.0672,71.3533
68.0386,71.2590
68.0382,71.2576
68.0200,71.1897
68.0171,71.1738
68.0045,71.0454
68.0044,71.0448
68.0007,71.0021
68.0005,70.9978
68.0005,70.0000
68.6443,70.0000
68.6649,70.2354
68.7261,70.4637
68.8260,70.6778
68.8260,70.6778
68.9135,70.8028
68.9615,70.8714
69.1286,71.0385
69.1286,71.0385
69.1286,71.0385
69.1473,71.0516
69.3222,71.1740
69.3222,71.1740
69.3222,71.1740
69.3222,71.1740
69.5363,71.2739
69.5363,71.2739
69.7646,71.3351
69.7646,71.3351
69.7646,71.3351
69.9410,71.3505
69.9410,71.3505
70.0590,71.3505
70.2354,71.3351
70.2354,71.3351
70.2354,71.3351
70.4637,71.2739
70.6778,71.1740
70.8714,71.0385
71.0385,70.8714
71.1740,70.6778
71.2739,70.4637
71.3351,70.2354
71.3351,70.2354
71.3557,70.0000
71.3557,70.0000
71.3351,69.7646
71.3351,69.7646
71.3351,69.7646
71.2739,69.5363
71.1740,69.3222
71.0497,69.1446
71.0385,69.1286
71.0385,69.1286
71.0385,69.1286
70.8714,68.9615
70.8714,68.9615
70.8714,68.9615
70.6778,68.8260
70.6778,68.8260
70.4637,68.7261
70.4637,68.7261
70.3876,68.7057
70.2354,68.6649
70.2354,68.6649
70.2354,68.6649
70.0590,68.6495
70.0590,68.6495
69.9410,68.6495
69.9410,68.6495
69.7646,68.6649
69.5363,68.7261
69.3222,68.8260
69.3222,68.8260
69.1286,68.9615
68.9615,69.1286
68.8260,69.3222
68.7261,69.5363
68.6649,69.7646
68.6443,70.0000
68.6443,70.0000
68.0005,70.0000
68.0005,60.0000
73.8945,60.0000
73.9143,60.4913
73.9143,60.4913
73.9143,60.4913
73.9143,60.4913
73.9736,60.9794
73.9736,60.9794
74.0720,61.4611
74.0720,61.4611
74.2087,61.9334
74.2088,61.9334
74.3351,62.2665
74.3831,62.3931
74.5380,62.7195
74.5926,62.8346
74.5939,62.8373
74.8397,63.2632
74.8397,63.2632
75.1190,63.6678
75.4300,64.0487
75.7706,64.4033
75.7706,64.4033
76.0430,64.6445
76.1386,64.7293
76.1386,64.7293
76.5317,65.0247
76.7159,65.1412
76.9473,65.2875
76.9473,65.2875
76.9473,65.2875
76.9473,65.2875
77.3044,65.4749
77.3826,65.5160
77.8350,65.7087
78.0655,65.7857
78.3013,65.8644
78.3014,65.8644
78.3014,65.8644
78.7788,65.9821
79.2641,66.0609
79.7542,66.1005
79.7542,66.1005
80.2458,66.1005
80.2458,66.1005
80.7359,66.0609
81.2212,65.9821
81.6986,65.8644
82.1650,65.7087
82.6174,65.5160
82.8868,65.3745
83.0527,65.2875
83.0527,65.2875
83.0527,65.2875
83.4683,65.0247
83.8614,64.7293
84.2294,64.4033
84.5700,64.0487
84.8810,63.6678
85.1603,63.2632
85.4061,62.8373
85.6169,62.3931
85.7912,61.9334
85.7912,61.9334
85.7912,61.9334
85.9280,61.4611
85.9280,61.4611
85.9280,61.4611
86.0264,60.9794
86.0694,60.6255
86.0857,60.4913
86.0857,60.4913
86.0857,60.4913
86.1055,60.0000
86.0857,59.5087
86.0857,59.5087
86.0857,59.5087
86.0264,59.0206
86.0264,59.0206
85.9280,58.5389
85.9223,58.5189
85.7912,58.0666
85.7912,58.0666
85.7732,58.0189
85.6169,57.6069
85.4061,57.1627
85.1603,56.7368
85.0206,56.5345
84.8810,56.3322
84.5700,55.9513
84.2294,55.5967
84.0979,55.4802
83.9534,55.3522
83.8614,55.2707
83.8614,55.2707
83.4683,54.9753
83.1770,54.7911
83.0527,54.7125
83.0527,54.7125
83.0527,54.7125
83.0527,54.7125
82.6174,54.4840
82.6174,54.4840
82.6174,54.4840
82.6174,54.4840
82.1650,54.2913
82.1650,54.2913
82.1650,54.2913
81.6987,54.1356
81.6986,54.1356
81.3373,54.0465
81.2212,54.0179
80.7359,53.9391
80.7359,53.9391
80.4610,53.9169
80.2458,53.8995
79.7542,53.8995
79.5563,53.9155
79.2641,53.9391
78.7788,54.0179
78.3014,54.1356
78.3013,54.1356
77.8350,54.2913
77.5424,54.4160
77.3826,54.4840
77.3826,54.4840
77.3826,54.4840
77.3826,54.4840
76.9473,54.7125
76.9473,54.7125
76.5317,54.9753
76.1386,55.2707
76.1386,55.2707
75.7706,55.5967
75.4300,55.9513
75.1190,56.3322
74.8397,56.7368
74.5939,57.1627
74.3831,57.6069
74.2088,58.0666
74.2087,58.0666
74.0720,58.5389
74.0720,58.5389
73.9736,59.0206
73.9736,59.0206
73.9143,59.5087
73.9143,59.5087
73.9143,59.5087
73.9143,59.5087
73.8945,60.0000
68.0005,60.0000
68.0005,50.0000
68.6443,50.0000
68.6649,50.2354
68.7261,50.4637
68.8260,50.6778
68.8260,50.6778
68.8260,50.6778
68.8260,50.6778
68.9615,50.8714
69.1286,51.0385
69.3222,51.1740
69.3222,51.1740
69.3222,51.1740
69.3222,51.1740
69.5363,51.2739
69.5363,51.2739
69.7646,51.3351
69.7646,51.3351
69.7646,51.3351
69.9410,51.3505
69.9410,51.3505
70.0590,51.3505
70.2354,51.3351
70.2354,51.3351
70.2354,51.3351
70.4637,51.2739
70.6778,51.1740
70.8714,51.0385
71.0385,50.8714
71.1740,50.6778
71.2739,50.4637
71.3351,50.2354
71.3557,50.0000
88.6443,50.0000
88.6649,50.2354
88.7261,50.4637
88.8260,50.6778
88.8260,50.6778
88.8260,50.6778
88.8260,50.6778
88.9615,50.8714
89.1286,51.0385
89.3222,51.1740
89.3222,51.1740
89.3222,51.1740
89.3222,51.1740
89.5363,51.2739
89.5363,51.2739
89.7646,51.3351
89.7646,51.3351
89.7646,51.3351
89.9410,51.3505
89.9410,51.3505
90.0590,51.3505
90.2354,51.3351
90.2354,51.3351
90.2354,51.3351
90.4637,51.2739
90.6778,51.1740
90.8714,51.0385
91.0385,50.8714
91.1740,50.6778
91.2739,50.4637
91.3351,50.2354
91.3557,50.0000
91.3351,49.7646
91.2739,49.5363
91.1740,49.3222
91.0385,49.1286
90.8714,48.9615
90.8714,48.9615
90.8714,48.9615
90.6782,48.8262
90.6778,48.8260
90.6778,48.8260
90.6778,48.8260
90.6778,48.8260
90.4637,48.7261
90.4637,48.7261
90.3876,48.7057
90.2354,48.6649
90.2354,48.6649
90.2354,48.6649
90.0590,48.6495
90.0590,48.6495
89.9410,48.6495
89.9410,48.6495
89.7646,48.6649
89.5363,48.7261
89.3222,48.8260
89.3222,48.8260
89.1286,48.9615
88.9615,49.1286
88.8260,49.3222
88.7261,49.5363
88.6649,49.7646
88.6443,50.0000
88.6443,50.0000
71.3557,50.0000
71.3557,50.0000
71.3351,49.7646
71.2739,49.5363
71.1740,49.3222
71.0385,49.1286
70.8714,48.9615
70.8714,48.9615
70.8714,48.9615
70.6782,48.8262
70.6778,48.8260
70.6778,48.8260
70.6778,48.8260
70.6778,48.8260
70.4637,48.7261
70.4637,48.7261
70.3876,48.7057
70.2354,48.6649
70.2354,48.6649
70.2354,48.6649
70.0590,48.6495
70.0590,48.6495
69.9410,48.6495
69.9410,48.6495
69.7646,48.6649
69.5363,48.7261
69.3222,48.8260
69.3222,48.8260
69.1286,48.9615
68.9615,49.1286
68.8260,49.3222
68.7261,49.5363
68.6649,49.7646
68.6443,50.0000
68.6443,50.0000
68.0005,50.0000
68.0005,49.0022
68.0007,48.9979
68.0045,48.9545
68.0171,48.8262
68.0200,48.8103
68.0382,48.7423
68.0386,48.7410
68.0672,48.6467
68.0722,48.6336
68.0993,48.5756
68.1046,48.5643
68.1057,48.5619
68.1511,48.4770
68.1542,48.4720
68.2013,48.4048
68.2035,48.4018
68.2635,48.3287
68.2667,48.3251
68.3251,48.2667
68.3287,48.2635
68.4018,48.2035
68.4048,48.2013
68.4720,48.1542
68.4770,48.1511
68.5619,48.1057
68.5643,48.1046
68.6336,48.0722
68.6467,48.0672
68.7410,48.0386
68.7423,48.0382
68.8103,48.0200
68.8262,48.0171
68.9545,48.0045
68.9979,48.0007
69.0022,48.0005
90.9978,48.0005
Z" /> 
</g>
</g>
</g>
<g style="fill:#FFFFFF; fill-opacity:1.0000; 
stroke:#FFFFFF; stroke-width:0.0000; stroke-opacity:1; 
stroke-linecap:round; stroke-linejoin:round;">
<circle cx="86.8000" cy="63.6000" r="0.2000" /> 
</g>
<g style="fill:#FFFFFF; fill-opacity:1.0000; 
stroke:#FFFFFF; stroke-width:0.0212; stroke-opacity:1; 
stroke-linecap:round; stroke-linejoin:round;">
</g>
<g style="fill:#FFFFFF; fill-opacity:1.0000; 
stroke:#FFFFFF; stroke-width:0.0000; stroke-opacity:1; 
stroke-linecap:round; stroke-linejoin:round;">
<circle cx="74.0000" cy="52.0000" r="0.2000" /> 
</g>
<g style="fill:#FFFFFF; fill-opacity:1.0000; 
stroke:#FFFFFF; stroke-width:0.0212; stroke-opacity:1; 
stroke-linecap:round; stroke-linejoin:round;">
</g>
<g style="fill:#FFFFFF; fill-opacity:1.0000; 
stroke:#FFFFFF; stroke-width:0.0000; stroke-opacity:1; 
stroke-linecap:round; stroke-linejoin:round;">
<circle cx="89.9282" cy="58.8038" r="0.2000" /> 
</g>
<g style="fill:#FFFFFF; fill-opacity:1.0000; 
stroke:#FFFFFF; stroke-width:0.0212; stroke-opacity:1; 
stroke-linecap:round; stroke-linejoin:round;">
</g>
<g style="fill:#FFFFFF; fill-opacity:1.0000; 
stroke:#FFFFFF; stroke-width:0.0000; stroke-opacity:1; 
stroke-linecap:round; stroke-linejoin:round;">
<circle cx="70.0718" cy="61.1962" r="0.2000" /> 
</g>
<g style="fill:#FFFFFF; fill-opacity:1.0000; 
stroke:#FFFFFF; stroke-width:0.0212; stroke-opacity:1; 
stroke-linecap:round; stroke-linejoin:round;">
</g>
<g style="fill:#FFFFFF; fill-opacity:1.0000; 
stroke:#FFFFFF; stroke-width:0.0000; stroke-opacity:1; 
stroke-linecap:round; stroke-linejoin:round;">
<circle cx="76.0718" cy="69.1962" r="0.2000" /> 
</g>
<g style="fill:#FFFFFF; fill-opacity:1.0000; 
stroke:#FFFFFF; stroke-width:0.0212; stroke-opacity:1; 
stroke-linecap:round; stroke-linejoin:round;">
</g>
<g style="fill:#FFFFFF; fill-opacity:1.0000; 
stroke:#FFFFFF; stroke-width:0.0000; stroke-opacity:1; 
stroke-linecap:round; stroke-linejoin:round;">
<circle cx="81.1962" cy="69.9282" r="0.2000" /> 
</g>
<g style="fill:#FFFFFF; fill-opacity:1.0000; 
stroke:#FFFFFF; stroke-width:0.0212; stroke-opacity:1; 
stroke-linecap:round; stroke-linejoin:round;">
</g>
<g style="fill:#FFFFFF; fill-opacity:1.0000; 
stroke:#FFFFFF; stroke-width:0.0000; stroke-opacity:1; 
stroke-linecap:round; stroke-linejoin:round;">
<circle cx="83.9282" cy="50.8038" r="0.2000" /> 
</g>
<g style="fill:#FFFFFF; fill-opacity:1.0000; 
stroke:#FFFFFF; stroke-width:0.0212; stroke-opacity:1; 
stroke-linecap:round; stroke-linejoin:round;">
</g>
<g style="fill:#FFFFFF; fill-opacity:1.0000; 
stroke:#FFFFFF; stroke-width:0.0000; stroke-opacity:1; 
stroke-linecap:round; stroke-linejoin:round;">
<circle cx="72.0000" cy="66.0000" r="0.2000" /> 
</g>
<g style="fill:#FFFFFF; fill-opacity:1.0000; 
stroke:#FFFFFF; stroke-width:0.0212; stroke-opacity:1; 
stroke-linecap:round; stroke-linejoin:round;">
</g>
<g style="fill:#FFFFFF; fill-opacity:1.0000; 
stroke:#FFFFFF; stroke-width:0.0000; stroke-opacity:1; 
stroke-linecap:round; stroke-linejoin:round;">
<circle cx="86.0000" cy="67.9400" r="0.2000" /> 
</g>
<g style="fill:#FFFFFF; fill-opacity:1.0000; 
stroke:#FFFFFF; stroke-width:0.0212; stroke-opacity:1; 
stroke-linecap:round; stroke-linejoin:round;">
</g>
<g style="fill:#FFFFFF; fill-opacity:1.0000; 
stroke:#FFFFFF; stroke-width:0.0000; stroke-opacity:1; 
stroke-linecap:round; stroke-linejoin:round;">
<circle cx="70.8038" cy="56.0718" r="0.2000" /> 
</g>
<g style="fill:#FFFFFF; fill-opacity:1.0000; 
stroke:#FFFFFF; stroke-width:0.0212; stroke-opacity:1; 
stroke-linecap:round; stroke-linejoin:round;">
</g>
<g style="fill:#FFFFFF; fill-opacity:1.0000; 
stroke:#FFFFFF; stroke-width:0.0000; stroke-opacity:1; 
stroke-linecap:round; stroke-linejoin:round;">
<circle cx="88.0000" cy="54.0000" r="0.2000" /> 
</g>
<g style="fill:#FFFFFF; fill-opacity:1.0000; 
stroke:#FFFFFF; stroke-width:0.0212; stroke-opacity:1; 
stroke-linecap:round; stroke-linejoin:round;">
</g>
<g style="fill:#FFFFFF; fill-opacity:1.0000; 
stroke:#FFFFFF; stroke-width:0.0000; stroke-opacity:1; 
stroke-linecap:round; stroke-linejoin:round;">
<circle cx="88.2600" cy="66.0200" r="0.2000" /> 
</g>
<g style="fill:#FFFFFF; fill-opacity:1.0000; 
stroke:#FFFFFF; stroke-width:0.0212; stroke-opacity:1; 
stroke-linecap:round; stroke-linejoin:round;">
</g>
<g style="fill:#FFFFFF; fill-opacity:1.0000; 
stroke:#FFFFFF; stroke-width:0.0000; stroke-opacity:1; 
stroke-linecap:round; stroke-linejoin:round;">
<circle cx="78.8038" cy="50.0718" r="0.2000" /> 
</g>
<g style="fill:#FFFFFF; fill-opacity:1.0000; 
stroke:#FFFFFF; stroke-width:0.0212; stroke-opacity:1; 
stroke-linecap:round; stroke-linejoin:round;">
</g>
<g style="fill:#FFFFFF; fill-opacity:1.0000; 
stroke:#FFFFFF; stroke-width:0.0000; stroke-opacity:1; 
stroke-linecap:round; stroke-linejoin:round;">
<circle cx="90.4000" cy="61.4000" r="0.2000" /> 
</g>
<g style="fill:#FFFFFF; fill-opacity:1.0000; 
stroke:#FFFFFF; stroke-width:0.0212; stroke-opacity:1; 
stroke-linecap:round; stroke-linejoin:round;">
</g>
<g style="fill:#FFFFFF; fill-opacity:1.0000; 
stroke:#FFFFFF; stroke-width:0.0000; stroke-opacity:1; 
stroke-linecap:round; stroke-linejoin:round;">
<circle cx="82.9000" cy="71.4000" r="0.2000" /> 
</g>
<g style="fill:#FFFFFF; fill-opacity:1.0000; 
stroke:#FFFFFF; stroke-width:0.0212; stroke-opacity:1; 
stroke-linecap:round; stroke-linejoin:round;">
</g>
<g style="fill:#FFFFFF; fill-opacity:1.0000; 
stroke:#FFFFFF; stroke-width:0.0000; stroke-opacity:1; 
stroke-linecap:round; stroke-linejoin:round;">
<circle cx="91.1500" cy="61.4000" r="0.2000" /> 
</g>
<g style="fill:#FFFFFF; fill-opacity:1.0000; 
stroke:#FFFFFF; stroke-width:0.0212; stroke-opacity:1; 
stroke-linecap:round; stroke-linejoin:round;">
</g>
<g style="fill:#FFFFFF; fill-opacity:1.0000; 
stroke:#FFFFFF; stroke-width:0.0000; stroke-opacity:1; 
stroke-linecap:round; stroke-linejoin:round;">
<circle cx="91.1500" cy="64.8500" r="0.2000" /> 
</g>
<g style="fill:#FFFFFF; fill-opacity:1.0000; 
stroke:#FFFFFF; stroke-width:0.0212; stroke-opacity:1; 
stroke-linecap:round; stroke-linejoin:round;">
</g>
<g style="fill:#FFFFFF; fill-opacity:1.0000; 
stroke:#FFFFFF; stroke-width:0.0000; stroke-opacity:1; 
stroke-linecap:round; stroke-linejoin:round;">
<circle cx="90.4000" cy="64.8500" r="0.2000" /> 
</g>
<g style="fill:#FFFFFF; fill-opacity:1.0000; 
stroke:#FFFFFF; stroke-width:0.0212; stroke-opacity:1; 
stroke-linecap:round; stroke-linejoin:round;">
</g>
<g style="fill:#FFFFFF; fill-opacity:1.0000; 
stroke:#FFFFFF; stroke-width:0.0000; stroke-opacity:1; 
stroke-linecap:round; stroke-linejoin:round;">
<circle cx="84.9000" cy="71.4000" r="0.2000" /> 
</g>
<g style="fill:#FFFFFF; fill-opacity:1.0000; 
stroke:#FFFFFF; stroke-width:0.0212; stroke-opacity:1; 
stroke-linecap:round; stroke-linejoin:round;">
</g>
<g style="fill:#FFFFFF; fill-opacity:1.0000; 
stroke:#FFFFFF; stroke-width:0.0000; stroke-opacity:1; 
stroke-linecap:round; stroke-linejoin:round;">
<circle cx="85.7000" cy="70.5000" r="0.2000" /> 
</g>
<g style="fill:#FFFFFF; fill-opacity:1.0000; 
stroke:#FFFFFF; stroke-width:0.0212; stroke-opacity:1; 
stroke-linecap:round; stroke-linejoin:round;">
</g>
<g style="fill:#FFFFFF; fill-opacity:1.0000; 
stroke:#FFFFFF; stroke-width:0.0000; stroke-opacity:1; 
stroke-linecap:round; stroke-linejoin:round;">
<circle cx="83.9000" cy="71.4000" r="0.2000" /> 
</g>
<g style="fill:#FFFFFF; fill-opacity:1.0000; 
stroke:#FFFFFF; stroke-width:0.0212; stroke-opacity:1; 
stroke-linecap:round; stroke-linejoin:round;">
</g>
<g style="fill:#FFFFFF; fill-opacity:1.0000; 
stroke:#FFFFFF; stroke-width:0.0000; stroke-opacity:1; 
stroke-linecap:round; stroke-linejoin:round;">
<circle cx="87.9100" cy="61.1500" r="0.2000" /> 
</g>
<g style="fill:#FFFFFF; fill-opacity:1.0000; 
stroke:#FFFFFF; stroke-width:0.0212; stroke-opacity:1; 
stroke-linecap:round; stroke-linejoin:round;">
</g>
<g style="fill:#FFFFFF; fill-opacity:1.0000; 
stroke:#FFFFFF; stroke-width:0.0000; stroke-opacity:1; 
stroke-linecap:round; stroke-linejoin:round;">
<circle cx="90.0000" cy="50.0000" r="1.1000" /> 
</g>
<g style="fill:#FFFFFF; fill-opacity:1.0000; 
stroke:#FFFFFF; stroke-width:0.0212; stroke-opacity:1; 
stroke-linecap:round; stroke-linejoin:round;">
</g>
<g style="fill:#FFFFFF; fill-opacity:1.0000; 
stroke:#FFFFFF; stroke-width:0.0000; stroke-opacity:1; 
stroke-linecap:round; stroke-linejoin:round;">
<circle cx="70.0000" cy="50.0000" r="1.1000" /> 
</g>
<g style="fill:#FFFFFF; fill-opacity:1.0000; 
stroke:#FFFFFF; stroke-width:0.0212; stroke-opacity:1; 
stroke-linecap:round; stroke-linejoin:round;">
</g>
<g style="fill:#FFFFFF; fill-opacity:1.0000; 
stroke:#FFFFFF; stroke-width:0.0000; stroke-opacity:1; 
stroke-linecap:round; stroke-linejoin:round;">
<circle cx="70.0000" cy="70.0000" r="1.1000" /> 
</g>
<g style="fill:#FFFFFF; fill-opacity:1.0000; 
stroke:#FFFFFF; stroke-width:0.0212; stroke-opacity:1; 
stroke-linecap:round; stroke-linejoin:round;">
</g>
<g style="fill:#000000; fill-opacity:1.0000; 
stroke:#000000; stroke-width:0.0212; stroke-opacity:1; 
stroke-linecap:round; stroke-linejoin:round;">
</g> 
</svg>
