<?xml version="1.0" standalone="no"?>
 <!DOCTYPE svg PUBLIC "-//W3C//DTD SVG 1.1//EN" 
 "http://www.w3.org/Graphics/SVG/1.1/DTD/svg11.dtd"> 
<svg
  xmlns:svg="http://www.w3.org/2000/svg"
  xmlns="http://www.w3.org/2000/svg"
  xmlns:xlink="http://www.w3.org/1999/xlink"
  version="1.1"
  width="297.0022mm" height="210.0072mm" viewBox="0.0000 0.0000 297.0022 210.0072">
<title>SVG Image created as pedalboard-led-ring-B_Silkscreen.svg date 2023/06/03 20:03:52 </title>
  <desc>Image generated by PCBNEW </desc>
<g style="fill:#000000; fill-opacity:1.0000;stroke:#000000; stroke-opacity:1.0000;
stroke-linecap:round; stroke-linejoin:round;"
 transform="translate(0 0) scale(1 1)">
</g>
<g style="fill:#000000; fill-opacity:0.0; 
stroke:#000000; stroke-width:0.0000; stroke-opacity:1; 
stroke-linecap:round; stroke-linejoin:round;">
</g>
<g style="fill:#000000; fill-opacity:0.0; 
stroke:#000000; stroke-width:0.1000; stroke-opacity:1; 
stroke-linecap:round; stroke-linejoin:round;">
<circle cx="80.0000" cy="60.0000" r="7.0500" /> 
<g transform="rotate(-90.000000 87.9000 56.0300)">
<text x="87.9000" y="56.0300"
transform="scale(-1 1) translate(-175.800000 0)"
textLength="1.1433" font-size="0.9333" lengthAdjust="spacingAndGlyphs"
text-anchor="start" opacity="0">DI</text>
</g>
<g class="stroked-text"><desc>DI</desc>
<path d="M87.8091 56.2625
L87.1091 56.2625
" />
<path d="M87.1091 56.2625
L87.1091 56.4291
" />
<path d="M87.1091 56.4291
L87.1425 56.5291
" />
<path d="M87.1425 56.5291
L87.2091 56.5958
" />
<path d="M87.2091 56.5958
L87.2758 56.6291
" />
<path d="M87.2758 56.6291
L87.4091 56.6625
" />
<path d="M87.4091 56.6625
L87.5091 56.6625
" />
<path d="M87.5091 56.6625
L87.6425 56.6291
" />
<path d="M87.6425 56.6291
L87.7091 56.5958
" />
<path d="M87.7091 56.5958
L87.7758 56.5291
" />
<path d="M87.7758 56.5291
L87.8091 56.4291
" />
<path d="M87.8091 56.4291
L87.8091 56.2625
" />
<path d="M87.8091 56.9625
L87.1091 56.9625
" />
</g><g transform="rotate(-90.000000 87.9500 62.5000)">
<text x="87.9500" y="62.5000"
transform="scale(-1 1) translate(-175.900000 0)"
textLength="1.3014" font-size="0.8000" lengthAdjust="spacingAndGlyphs"
text-anchor="start" opacity="0">D0</text>
</g>
<g class="stroked-text"><desc>D0</desc>
<path d="M87.8714 62.7086
L87.2714 62.7086
" />
<path d="M87.2714 62.7086
L87.2714 62.8515
" />
<path d="M87.2714 62.8515
L87.2999 62.9372
" />
<path d="M87.2999 62.9372
L87.3571 62.9944
" />
<path d="M87.3571 62.9944
L87.4142 63.0229
" />
<path d="M87.4142 63.0229
L87.5285 63.0515
" />
<path d="M87.5285 63.0515
L87.6142 63.0515
" />
<path d="M87.6142 63.0515
L87.7285 63.0229
" />
<path d="M87.7285 63.0229
L87.7857 62.9944
" />
<path d="M87.7857 62.9944
L87.8428 62.9372
" />
<path d="M87.8428 62.9372
L87.8714 62.8515
" />
<path d="M87.8714 62.8515
L87.8714 62.7086
" />
<path d="M87.2714 63.4229
L87.2714 63.4801
" />
<path d="M87.2714 63.4801
L87.2999 63.5372
" />
<path d="M87.2999 63.5372
L87.3285 63.5658
" />
<path d="M87.3285 63.5658
L87.3857 63.5944
" />
<path d="M87.3857 63.5944
L87.4999 63.6229
" />
<path d="M87.4999 63.6229
L87.6428 63.6229
" />
<path d="M87.6428 63.6229
L87.7571 63.5944
" />
<path d="M87.7571 63.5944
L87.8142 63.5658
" />
<path d="M87.8142 63.5658
L87.8428 63.5372
" />
<path d="M87.8428 63.5372
L87.8714 63.4801
" />
<path d="M87.8714 63.4801
L87.8714 63.4229
" />
<path d="M87.8714 63.4229
L87.8428 63.3658
" />
<path d="M87.8428 63.3658
L87.8142 63.3372
" />
<path d="M87.8142 63.3372
L87.7571 63.3086
" />
<path d="M87.7571 63.3086
L87.6428 63.2801
" />
<path d="M87.6428 63.2801
L87.4999 63.2801
" />
<path d="M87.4999 63.2801
L87.3857 63.3086
" />
<path d="M87.3857 63.3086
L87.3285 63.3372
" />
<path d="M87.3285 63.3372
L87.2999 63.3658
" />
<path d="M87.2999 63.3658
L87.2714 63.4229
" />
</g><text x="91.1400" y="69.9000"
transform="scale(-1 1) translate(-182.280000 0)"
textLength="1.8443" font-size="0.8000" lengthAdjust="spacingAndGlyphs"
text-anchor="start" opacity="0">VCC</text>
<g class="stroked-text"><desc>VCC</desc>
<path d="M91.0171 69.2214
L90.8171 69.8214
" />
<path d="M90.8171 69.8214
L90.6171 69.2214
" />
<path d="M90.0742 69.7642
L90.1028 69.7928
" />
<path d="M90.1028 69.7928
L90.1885 69.8214
" />
<path d="M90.1885 69.8214
L90.2456 69.8214
" />
<path d="M90.2456 69.8214
L90.3314 69.7928
" />
<path d="M90.3314 69.7928
L90.3885 69.7357
" />
<path d="M90.3885 69.7357
L90.4171 69.6785
" />
<path d="M90.4171 69.6785
L90.4456 69.5642
" />
<path d="M90.4456 69.5642
L90.4456 69.4785
" />
<path d="M90.4456 69.4785
L90.4171 69.3642
" />
<path d="M90.4171 69.3642
L90.3885 69.3071
" />
<path d="M90.3885 69.3071
L90.3314 69.2499
" />
<path d="M90.3314 69.2499
L90.2456 69.2214
" />
<path d="M90.2456 69.2214
L90.1885 69.2214
" />
<path d="M90.1885 69.2214
L90.1028 69.2499
" />
<path d="M90.1028 69.2499
L90.0742 69.2785
" />
<path d="M89.4742 69.7642
L89.5028 69.7928
" />
<path d="M89.5028 69.7928
L89.5885 69.8214
" />
<path d="M89.5885 69.8214
L89.6456 69.8214
" />
<path d="M89.6456 69.8214
L89.7314 69.7928
" />
<path d="M89.7314 69.7928
L89.7885 69.7357
" />
<path d="M89.7885 69.7357
L89.8171 69.6785
" />
<path d="M89.8171 69.6785
L89.8456 69.5642
" />
<path d="M89.8456 69.5642
L89.8456 69.4785
" />
<path d="M89.8456 69.4785
L89.8171 69.3642
" />
<path d="M89.8171 69.3642
L89.7885 69.3071
" />
<path d="M89.7885 69.3071
L89.7314 69.2499
" />
<path d="M89.7314 69.2499
L89.6456 69.2214
" />
<path d="M89.6456 69.2214
L89.5885 69.2214
" />
<path d="M89.5885 69.2214
L89.5028 69.2499
" />
<path d="M89.5028 69.2499
L89.4742 69.2785
" />
</g><g transform="rotate(-90.000000 89.9000 62.3500)">
<text x="89.9000" y="62.3500"
transform="scale(-1 1) translate(-179.800000 0)"
textLength="1.9586" font-size="0.8000" lengthAdjust="spacingAndGlyphs"
text-anchor="start" opacity="0">GND</text>
</g>
<g class="stroked-text"><desc>GND</desc>
<path d="M89.2499 62.8729
L89.2214 62.8158
" />
<path d="M89.2214 62.8158
L89.2214 62.7301
" />
<path d="M89.2214 62.7301
L89.2499 62.6444
" />
<path d="M89.2499 62.6444
L89.3071 62.5872
" />
<path d="M89.3071 62.5872
L89.3642 62.5586
" />
<path d="M89.3642 62.5586
L89.4785 62.5301
" />
<path d="M89.4785 62.5301
L89.5642 62.5301
" />
<path d="M89.5642 62.5301
L89.6785 62.5586
" />
<path d="M89.6785 62.5586
L89.7357 62.5872
" />
<path d="M89.7357 62.5872
L89.7928 62.6444
" />
<path d="M89.7928 62.6444
L89.8214 62.7301
" />
<path d="M89.8214 62.7301
L89.8214 62.7872
" />
<path d="M89.8214 62.7872
L89.7928 62.8729
" />
<path d="M89.7928 62.8729
L89.7642 62.9015
" />
<path d="M89.7642 62.9015
L89.5642 62.9015
" />
<path d="M89.5642 62.9015
L89.5642 62.7872
" />
<path d="M89.8214 63.1586
L89.2214 63.1586
" />
<path d="M89.2214 63.1586
L89.8214 63.5015
" />
<path d="M89.8214 63.5015
L89.2214 63.5015
" />
<path d="M89.8214 63.7872
L89.2214 63.7872
" />
<path d="M89.2214 63.7872
L89.2214 63.9301
" />
<path d="M89.2214 63.9301
L89.2499 64.0158
" />
<path d="M89.2499 64.0158
L89.3071 64.0729
" />
<path d="M89.3071 64.0729
L89.3642 64.1015
" />
<path d="M89.3642 64.1015
L89.4785 64.1301
" />
<path d="M89.4785 64.1301
L89.5642 64.1301
" />
<path d="M89.5642 64.1301
L89.6785 64.1015
" />
<path d="M89.6785 64.1015
L89.7357 64.0729
" />
<path d="M89.7357 64.0729
L89.7928 64.0158
" />
<path d="M89.7928 64.0158
L89.8214 63.9301
" />
<path d="M89.8214 63.9301
L89.8214 63.7872
" />
</g><text x="84.5250" y="69.8750"
transform="scale(-1 1) translate(-169.050000 0)"
textLength="1.9586" font-size="0.8000" lengthAdjust="spacingAndGlyphs"
text-anchor="start" opacity="0">GND</text>
<g class="stroked-text"><desc>GND</desc>
<path d="M84.0021 69.2249
L84.0592 69.1964
" />
<path d="M84.0592 69.1964
L84.1449 69.1964
" />
<path d="M84.1449 69.1964
L84.2306 69.2249
" />
<path d="M84.2306 69.2249
L84.2878 69.2821
" />
<path d="M84.2878 69.2821
L84.3164 69.3392
" />
<path d="M84.3164 69.3392
L84.3449 69.4535
" />
<path d="M84.3449 69.4535
L84.3449 69.5392
" />
<path d="M84.3449 69.5392
L84.3164 69.6535
" />
<path d="M84.3164 69.6535
L84.2878 69.7107
" />
<path d="M84.2878 69.7107
L84.2306 69.7678
" />
<path d="M84.2306 69.7678
L84.1449 69.7964
" />
<path d="M84.1449 69.7964
L84.0878 69.7964
" />
<path d="M84.0878 69.7964
L84.0021 69.7678
" />
<path d="M84.0021 69.7678
L83.9735 69.7392
" />
<path d="M83.9735 69.7392
L83.9735 69.5392
" />
<path d="M83.9735 69.5392
L84.0878 69.5392
" />
<path d="M83.7164 69.7964
L83.7164 69.1964
" />
<path d="M83.7164 69.1964
L83.3735 69.7964
" />
<path d="M83.3735 69.7964
L83.3735 69.1964
" />
<path d="M83.0878 69.7964
L83.0878 69.1964
" />
<path d="M83.0878 69.1964
L82.9449 69.1964
" />
<path d="M82.9449 69.1964
L82.8592 69.2249
" />
<path d="M82.8592 69.2249
L82.8021 69.2821
" />
<path d="M82.8021 69.2821
L82.7735 69.3392
" />
<path d="M82.7735 69.3392
L82.7449 69.4535
" />
<path d="M82.7449 69.4535
L82.7449 69.5392
" />
<path d="M82.7449 69.5392
L82.7735 69.6535
" />
<path d="M82.7735 69.6535
L82.8021 69.7107
" />
<path d="M82.8021 69.7107
L82.8592 69.7678
" />
<path d="M82.8592 69.7678
L82.9449 69.7964
" />
<path d="M82.9449 69.7964
L83.0878 69.7964
" />
</g><text x="90.6900" y="67.8000"
transform="scale(-1 1) translate(-181.380000 0)"
textLength="1.0157" font-size="0.8000" lengthAdjust="spacingAndGlyphs"
text-anchor="start" opacity="0">DI</text>
<g class="stroked-text"><desc>DI</desc>
<path d="M90.4814 67.7214
L90.4814 67.1214
" />
<path d="M90.4814 67.1214
L90.3385 67.1214
" />
<path d="M90.3385 67.1214
L90.2528 67.1499
" />
<path d="M90.2528 67.1499
L90.1956 67.2071
" />
<path d="M90.1956 67.2071
L90.1671 67.2642
" />
<path d="M90.1671 67.2642
L90.1385 67.3785
" />
<path d="M90.1385 67.3785
L90.1385 67.4642
" />
<path d="M90.1385 67.4642
L90.1671 67.5785
" />
<path d="M90.1671 67.5785
L90.1956 67.6357
" />
<path d="M90.1956 67.6357
L90.2528 67.6928
" />
<path d="M90.2528 67.6928
L90.3385 67.7214
" />
<path d="M90.3385 67.7214
L90.4814 67.7214
" />
<path d="M89.8814 67.7214
L89.8814 67.1214
" />
</g><g transform="rotate(-90.000000 89.9000 55.7200)">
<text x="89.9000" y="55.7200"
transform="scale(-1 1) translate(-179.800000 0)"
textLength="1.8443" font-size="0.8000" lengthAdjust="spacingAndGlyphs"
text-anchor="start" opacity="0">VCC</text>
</g>
<g class="stroked-text"><desc>VCC</desc>
<path d="M89.2214 55.8429
L89.8214 56.0429
" />
<path d="M89.8214 56.0429
L89.2214 56.2429
" />
<path d="M89.7642 56.7858
L89.7928 56.7572
" />
<path d="M89.7928 56.7572
L89.8214 56.6715
" />
<path d="M89.8214 56.6715
L89.8214 56.6144
" />
<path d="M89.8214 56.6144
L89.7928 56.5286
" />
<path d="M89.7928 56.5286
L89.7357 56.4715
" />
<path d="M89.7357 56.4715
L89.6785 56.4429
" />
<path d="M89.6785 56.4429
L89.5642 56.4144
" />
<path d="M89.5642 56.4144
L89.4785 56.4144
" />
<path d="M89.4785 56.4144
L89.3642 56.4429
" />
<path d="M89.3642 56.4429
L89.3071 56.4715
" />
<path d="M89.3071 56.4715
L89.2499 56.5286
" />
<path d="M89.2499 56.5286
L89.2214 56.6144
" />
<path d="M89.2214 56.6144
L89.2214 56.6715
" />
<path d="M89.2214 56.6715
L89.2499 56.7572
" />
<path d="M89.2499 56.7572
L89.2785 56.7858
" />
<path d="M89.7642 57.3858
L89.7928 57.3572
" />
<path d="M89.7928 57.3572
L89.8214 57.2715
" />
<path d="M89.8214 57.2715
L89.8214 57.2144
" />
<path d="M89.8214 57.2144
L89.7928 57.1286
" />
<path d="M89.7928 57.1286
L89.7357 57.0715
" />
<path d="M89.7357 57.0715
L89.6785 57.0429
" />
<path d="M89.6785 57.0429
L89.5642 57.0144
" />
<path d="M89.5642 57.0144
L89.4785 57.0144
" />
<path d="M89.4785 57.0144
L89.3642 57.0429
" />
<path d="M89.3642 57.0429
L89.3071 57.0715
" />
<path d="M89.3071 57.0715
L89.2499 57.1286
" />
<path d="M89.2499 57.1286
L89.2214 57.2144
" />
<path d="M89.2214 57.2144
L89.2214 57.2715
" />
<path d="M89.2214 57.2715
L89.2499 57.3572
" />
<path d="M89.2499 57.3572
L89.2785 57.3858
" />
</g><text x="73.8600" y="71.4800"
transform="scale(-1 1) translate(-147.720000 0)"
textLength="4.5548" font-size="0.6667" lengthAdjust="spacingAndGlyphs"
text-anchor="middle" opacity="0">PCB: v1.0.0</text>
<g class="stroked-text"><desc>PCB: v1.0.0</desc>
<path d="M75.9433 71.4136
L75.9433 70.9136
" />
<path d="M75.9433 70.9136
L75.7529 70.9136
" />
<path d="M75.7529 70.9136
L75.7052 70.9374
" />
<path d="M75.7052 70.9374
L75.6814 70.9612
" />
<path d="M75.6814 70.9612
L75.6576 71.0088
" />
<path d="M75.6576 71.0088
L75.6576 71.0803
" />
<path d="M75.6576 71.0803
L75.6814 71.1279
" />
<path d="M75.6814 71.1279
L75.7052 71.1517
" />
<path d="M75.7052 71.1517
L75.7529 71.1755
" />
<path d="M75.7529 71.1755
L75.9433 71.1755
" />
<path d="M75.1576 71.3660
L75.1814 71.3898
" />
<path d="M75.1814 71.3898
L75.2529 71.4136
" />
<path d="M75.2529 71.4136
L75.3005 71.4136
" />
<path d="M75.3005 71.4136
L75.3719 71.3898
" />
<path d="M75.3719 71.3898
L75.4195 71.3422
" />
<path d="M75.4195 71.3422
L75.4433 71.2946
" />
<path d="M75.4433 71.2946
L75.4671 71.1993
" />
<path d="M75.4671 71.1993
L75.4671 71.1279
" />
<path d="M75.4671 71.1279
L75.4433 71.0327
" />
<path d="M75.4433 71.0327
L75.4195 70.9850
" />
<path d="M75.4195 70.9850
L75.3719 70.9374
" />
<path d="M75.3719 70.9374
L75.3005 70.9136
" />
<path d="M75.3005 70.9136
L75.2529 70.9136
" />
<path d="M75.2529 70.9136
L75.1814 70.9374
" />
<path d="M75.1814 70.9374
L75.1576 70.9612
" />
<path d="M74.7767 71.1517
L74.7052 71.1755
" />
<path d="M74.7052 71.1755
L74.6814 71.1993
" />
<path d="M74.6814 71.1993
L74.6576 71.2469
" />
<path d="M74.6576 71.2469
L74.6576 71.3184
" />
<path d="M74.6576 71.3184
L74.6814 71.3660
" />
<path d="M74.6814 71.3660
L74.7052 71.3898
" />
<path d="M74.7052 71.3898
L74.7529 71.4136
" />
<path d="M74.7529 71.4136
L74.9433 71.4136
" />
<path d="M74.9433 71.4136
L74.9433 70.9136
" />
<path d="M74.9433 70.9136
L74.7767 70.9136
" />
<path d="M74.7767 70.9136
L74.7290 70.9374
" />
<path d="M74.7290 70.9374
L74.7052 70.9612
" />
<path d="M74.7052 70.9612
L74.6814 71.0088
" />
<path d="M74.6814 71.0088
L74.6814 71.0565
" />
<path d="M74.6814 71.0565
L74.7052 71.1041
" />
<path d="M74.7052 71.1041
L74.7290 71.1279
" />
<path d="M74.7290 71.1279
L74.7767 71.1517
" />
<path d="M74.7767 71.1517
L74.9433 71.1517
" />
<path d="M74.4433 71.3660
L74.4195 71.3898
" />
<path d="M74.4195 71.3898
L74.4433 71.4136
" />
<path d="M74.4433 71.4136
L74.4671 71.3898
" />
<path d="M74.4671 71.3898
L74.4433 71.3660
" />
<path d="M74.4433 71.3660
L74.4433 71.4136
" />
<path d="M74.4433 71.1041
L74.4195 71.1279
" />
<path d="M74.4195 71.1279
L74.4433 71.1517
" />
<path d="M74.4433 71.1517
L74.4671 71.1279
" />
<path d="M74.4671 71.1279
L74.4433 71.1041
" />
<path d="M74.4433 71.1041
L74.4433 71.1517
" />
<path d="M73.8719 71.0803
L73.7529 71.4136
" />
<path d="M73.7529 71.4136
L73.6338 71.0803
" />
<path d="M73.1814 71.4136
L73.4671 71.4136
" />
<path d="M73.3243 71.4136
L73.3243 70.9136
" />
<path d="M73.3243 70.9136
L73.3719 70.9850
" />
<path d="M73.3719 70.9850
L73.4195 71.0327
" />
<path d="M73.4195 71.0327
L73.4671 71.0565
" />
<path d="M72.9671 71.3660
L72.9433 71.3898
" />
<path d="M72.9433 71.3898
L72.9671 71.4136
" />
<path d="M72.9671 71.4136
L72.9910 71.3898
" />
<path d="M72.9910 71.3898
L72.9671 71.3660
" />
<path d="M72.9671 71.3660
L72.9671 71.4136
" />
<path d="M72.6338 70.9136
L72.5862 70.9136
" />
<path d="M72.5862 70.9136
L72.5386 70.9374
" />
<path d="M72.5386 70.9374
L72.5148 70.9612
" />
<path d="M72.5148 70.9612
L72.4910 71.0088
" />
<path d="M72.4910 71.0088
L72.4671 71.1041
" />
<path d="M72.4671 71.1041
L72.4671 71.2231
" />
<path d="M72.4671 71.2231
L72.4910 71.3184
" />
<path d="M72.4910 71.3184
L72.5148 71.3660
" />
<path d="M72.5148 71.3660
L72.5386 71.3898
" />
<path d="M72.5386 71.3898
L72.5862 71.4136
" />
<path d="M72.5862 71.4136
L72.6338 71.4136
" />
<path d="M72.6338 71.4136
L72.6814 71.3898
" />
<path d="M72.6814 71.3898
L72.7052 71.3660
" />
<path d="M72.7052 71.3660
L72.7290 71.3184
" />
<path d="M72.7290 71.3184
L72.7529 71.2231
" />
<path d="M72.7529 71.2231
L72.7529 71.1041
" />
<path d="M72.7529 71.1041
L72.7290 71.0088
" />
<path d="M72.7290 71.0088
L72.7052 70.9612
" />
<path d="M72.7052 70.9612
L72.6814 70.9374
" />
<path d="M72.6814 70.9374
L72.6338 70.9136
" />
<path d="M72.2529 71.3660
L72.2290 71.3898
" />
<path d="M72.2290 71.3898
L72.2529 71.4136
" />
<path d="M72.2529 71.4136
L72.2767 71.3898
" />
<path d="M72.2767 71.3898
L72.2529 71.3660
" />
<path d="M72.2529 71.3660
L72.2529 71.4136
" />
<path d="M71.9195 70.9136
L71.8719 70.9136
" />
<path d="M71.8719 70.9136
L71.8243 70.9374
" />
<path d="M71.8243 70.9374
L71.8005 70.9612
" />
<path d="M71.8005 70.9612
L71.7767 71.0088
" />
<path d="M71.7767 71.0088
L71.7529 71.1041
" />
<path d="M71.7529 71.1041
L71.7529 71.2231
" />
<path d="M71.7529 71.2231
L71.7767 71.3184
" />
<path d="M71.7767 71.3184
L71.8005 71.3660
" />
<path d="M71.8005 71.3660
L71.8243 71.3898
" />
<path d="M71.8243 71.3898
L71.8719 71.4136
" />
<path d="M71.8719 71.4136
L71.9195 71.4136
" />
<path d="M71.9195 71.4136
L71.9671 71.3898
" />
<path d="M71.9671 71.3898
L71.9910 71.3660
" />
<path d="M71.9910 71.3660
L72.0148 71.3184
" />
<path d="M72.0148 71.3184
L72.0386 71.2231
" />
<path d="M72.0386 71.2231
L72.0386 71.1041
" />
<path d="M72.0386 71.1041
L72.0148 71.0088
" />
<path d="M72.0148 71.0088
L71.9910 70.9612
" />
<path d="M71.9910 70.9612
L71.9671 70.9374
" />
<path d="M71.9671 70.9374
L71.9195 70.9136
" />
</g><text x="84.2750" y="67.7800"
transform="scale(-1 1) translate(-168.550000 0)"
textLength="1.3586" font-size="0.8000" lengthAdjust="spacingAndGlyphs"
text-anchor="start" opacity="0">DO</text>
<g class="stroked-text"><desc>DO</desc>
<path d="M84.0664 67.7014
L84.0664 67.1014
" />
<path d="M84.0664 67.1014
L83.9235 67.1014
" />
<path d="M83.9235 67.1014
L83.8378 67.1299
" />
<path d="M83.8378 67.1299
L83.7806 67.1871
" />
<path d="M83.7806 67.1871
L83.7521 67.2442
" />
<path d="M83.7521 67.2442
L83.7235 67.3585
" />
<path d="M83.7235 67.3585
L83.7235 67.4442
" />
<path d="M83.7235 67.4442
L83.7521 67.5585
" />
<path d="M83.7521 67.5585
L83.7806 67.6157
" />
<path d="M83.7806 67.6157
L83.8378 67.6728
" />
<path d="M83.8378 67.6728
L83.9235 67.7014
" />
<path d="M83.9235 67.7014
L84.0664 67.7014
" />
<path d="M83.3521 67.1014
L83.2378 67.1014
" />
<path d="M83.2378 67.1014
L83.1806 67.1299
" />
<path d="M83.1806 67.1299
L83.1235 67.1871
" />
<path d="M83.1235 67.1871
L83.0949 67.3014
" />
<path d="M83.0949 67.3014
L83.0949 67.5014
" />
<path d="M83.0949 67.5014
L83.1235 67.6157
" />
<path d="M83.1235 67.6157
L83.1806 67.6728
" />
<path d="M83.1806 67.6728
L83.2378 67.7014
" />
<path d="M83.2378 67.7014
L83.3521 67.7014
" />
<path d="M83.3521 67.7014
L83.4092 67.6728
" />
<path d="M83.4092 67.6728
L83.4664 67.6157
" />
<path d="M83.4664 67.6157
L83.4949 67.5014
" />
<path d="M83.4949 67.5014
L83.4949 67.3014
" />
<path d="M83.4949 67.3014
L83.4664 67.1871
" />
<path d="M83.4664 67.1871
L83.4092 67.1299
" />
<path d="M83.4092 67.1299
L83.3521 67.1014
" />
</g><text x="79.9600" y="51.1130"
transform="scale(-1 1) translate(-159.920000 0)"
textLength="11.2767" font-size="0.9333" lengthAdjust="spacingAndGlyphs"
text-anchor="middle" opacity="0">Pedalboard LED Ring</text>
<g class="stroked-text"><desc>Pedalboard LED Ring</desc>
<path d="M85.3767 51.0221
L85.3767 50.3221
" />
<path d="M85.3767 50.3221
L85.1100 50.3221
" />
<path d="M85.1100 50.3221
L85.0433 50.3555
" />
<path d="M85.0433 50.3555
L85.0100 50.3888
" />
<path d="M85.0100 50.3888
L84.9767 50.4555
" />
<path d="M84.9767 50.4555
L84.9767 50.5555
" />
<path d="M84.9767 50.5555
L85.0100 50.6221
" />
<path d="M85.0100 50.6221
L85.0433 50.6555
" />
<path d="M85.0433 50.6555
L85.1100 50.6888
" />
<path d="M85.1100 50.6888
L85.3767 50.6888
" />
<path d="M84.4100 50.9888
L84.4767 51.0221
" />
<path d="M84.4767 51.0221
L84.6100 51.0221
" />
<path d="M84.6100 51.0221
L84.6767 50.9888
" />
<path d="M84.6767 50.9888
L84.7100 50.9221
" />
<path d="M84.7100 50.9221
L84.7100 50.6555
" />
<path d="M84.7100 50.6555
L84.6767 50.5888
" />
<path d="M84.6767 50.5888
L84.6100 50.5555
" />
<path d="M84.6100 50.5555
L84.4767 50.5555
" />
<path d="M84.4767 50.5555
L84.4100 50.5888
" />
<path d="M84.4100 50.5888
L84.3767 50.6555
" />
<path d="M84.3767 50.6555
L84.3767 50.7221
" />
<path d="M84.3767 50.7221
L84.7100 50.7888
" />
<path d="M83.7767 51.0221
L83.7767 50.3221
" />
<path d="M83.7767 50.9888
L83.8433 51.0221
" />
<path d="M83.8433 51.0221
L83.9767 51.0221
" />
<path d="M83.9767 51.0221
L84.0433 50.9888
" />
<path d="M84.0433 50.9888
L84.0767 50.9555
" />
<path d="M84.0767 50.9555
L84.1100 50.8888
" />
<path d="M84.1100 50.8888
L84.1100 50.6888
" />
<path d="M84.1100 50.6888
L84.0767 50.6221
" />
<path d="M84.0767 50.6221
L84.0433 50.5888
" />
<path d="M84.0433 50.5888
L83.9767 50.5555
" />
<path d="M83.9767 50.5555
L83.8433 50.5555
" />
<path d="M83.8433 50.5555
L83.7767 50.5888
" />
<path d="M83.1433 51.0221
L83.1433 50.6555
" />
<path d="M83.1433 50.6555
L83.1767 50.5888
" />
<path d="M83.1767 50.5888
L83.2433 50.5555
" />
<path d="M83.2433 50.5555
L83.3767 50.5555
" />
<path d="M83.3767 50.5555
L83.4433 50.5888
" />
<path d="M83.1433 50.9888
L83.2100 51.0221
" />
<path d="M83.2100 51.0221
L83.3767 51.0221
" />
<path d="M83.3767 51.0221
L83.4433 50.9888
" />
<path d="M83.4433 50.9888
L83.4767 50.9221
" />
<path d="M83.4767 50.9221
L83.4767 50.8555
" />
<path d="M83.4767 50.8555
L83.4433 50.7888
" />
<path d="M83.4433 50.7888
L83.3767 50.7555
" />
<path d="M83.3767 50.7555
L83.2100 50.7555
" />
<path d="M83.2100 50.7555
L83.1433 50.7221
" />
<path d="M82.7100 51.0221
L82.7767 50.9888
" />
<path d="M82.7767 50.9888
L82.8100 50.9221
" />
<path d="M82.8100 50.9221
L82.8100 50.3221
" />
<path d="M82.4433 51.0221
L82.4433 50.3221
" />
<path d="M82.4433 50.5888
L82.3767 50.5555
" />
<path d="M82.3767 50.5555
L82.2433 50.5555
" />
<path d="M82.2433 50.5555
L82.1767 50.5888
" />
<path d="M82.1767 50.5888
L82.1433 50.6221
" />
<path d="M82.1433 50.6221
L82.1100 50.6888
" />
<path d="M82.1100 50.6888
L82.1100 50.8888
" />
<path d="M82.1100 50.8888
L82.1433 50.9555
" />
<path d="M82.1433 50.9555
L82.1767 50.9888
" />
<path d="M82.1767 50.9888
L82.2433 51.0221
" />
<path d="M82.2433 51.0221
L82.3767 51.0221
" />
<path d="M82.3767 51.0221
L82.4433 50.9888
" />
<path d="M81.7100 51.0221
L81.7767 50.9888
" />
<path d="M81.7767 50.9888
L81.8100 50.9555
" />
<path d="M81.8100 50.9555
L81.8433 50.8888
" />
<path d="M81.8433 50.8888
L81.8433 50.6888
" />
<path d="M81.8433 50.6888
L81.8100 50.6221
" />
<path d="M81.8100 50.6221
L81.7767 50.5888
" />
<path d="M81.7767 50.5888
L81.7100 50.5555
" />
<path d="M81.7100 50.5555
L81.6100 50.5555
" />
<path d="M81.6100 50.5555
L81.5433 50.5888
" />
<path d="M81.5433 50.5888
L81.5100 50.6221
" />
<path d="M81.5100 50.6221
L81.4767 50.6888
" />
<path d="M81.4767 50.6888
L81.4767 50.8888
" />
<path d="M81.4767 50.8888
L81.5100 50.9555
" />
<path d="M81.5100 50.9555
L81.5433 50.9888
" />
<path d="M81.5433 50.9888
L81.6100 51.0221
" />
<path d="M81.6100 51.0221
L81.7100 51.0221
" />
<path d="M80.8767 51.0221
L80.8767 50.6555
" />
<path d="M80.8767 50.6555
L80.9100 50.5888
" />
<path d="M80.9100 50.5888
L80.9767 50.5555
" />
<path d="M80.9767 50.5555
L81.1100 50.5555
" />
<path d="M81.1100 50.5555
L81.1767 50.5888
" />
<path d="M80.8767 50.9888
L80.9433 51.0221
" />
<path d="M80.9433 51.0221
L81.1100 51.0221
" />
<path d="M81.1100 51.0221
L81.1767 50.9888
" />
<path d="M81.1767 50.9888
L81.2100 50.9221
" />
<path d="M81.2100 50.9221
L81.2100 50.8555
" />
<path d="M81.2100 50.8555
L81.1767 50.7888
" />
<path d="M81.1767 50.7888
L81.1100 50.7555
" />
<path d="M81.1100 50.7555
L80.9433 50.7555
" />
<path d="M80.9433 50.7555
L80.8767 50.7221
" />
<path d="M80.5433 51.0221
L80.5433 50.5555
" />
<path d="M80.5433 50.6888
L80.5100 50.6221
" />
<path d="M80.5100 50.6221
L80.4767 50.5888
" />
<path d="M80.4767 50.5888
L80.4100 50.5555
" />
<path d="M80.4100 50.5555
L80.3433 50.5555
" />
<path d="M79.8100 51.0221
L79.8100 50.3221
" />
<path d="M79.8100 50.9888
L79.8767 51.0221
" />
<path d="M79.8767 51.0221
L80.0100 51.0221
" />
<path d="M80.0100 51.0221
L80.0767 50.9888
" />
<path d="M80.0767 50.9888
L80.1100 50.9555
" />
<path d="M80.1100 50.9555
L80.1433 50.8888
" />
<path d="M80.1433 50.8888
L80.1433 50.6888
" />
<path d="M80.1433 50.6888
L80.1100 50.6221
" />
<path d="M80.1100 50.6221
L80.0767 50.5888
" />
<path d="M80.0767 50.5888
L80.0100 50.5555
" />
<path d="M80.0100 50.5555
L79.8767 50.5555
" />
<path d="M79.8767 50.5555
L79.8100 50.5888
" />
<path d="M78.6100 51.0221
L78.9433 51.0221
" />
<path d="M78.9433 51.0221
L78.9433 50.3221
" />
<path d="M78.3767 50.6555
L78.1433 50.6555
" />
<path d="M78.0433 51.0221
L78.3767 51.0221
" />
<path d="M78.3767 51.0221
L78.3767 50.3221
" />
<path d="M78.3767 50.3221
L78.0433 50.3221
" />
<path d="M77.7433 51.0221
L77.7433 50.3221
" />
<path d="M77.7433 50.3221
L77.5767 50.3221
" />
<path d="M77.5767 50.3221
L77.4767 50.3555
" />
<path d="M77.4767 50.3555
L77.4100 50.4221
" />
<path d="M77.4100 50.4221
L77.3767 50.4888
" />
<path d="M77.3767 50.4888
L77.3433 50.6221
" />
<path d="M77.3433 50.6221
L77.3433 50.7221
" />
<path d="M77.3433 50.7221
L77.3767 50.8555
" />
<path d="M77.3767 50.8555
L77.4100 50.9221
" />
<path d="M77.4100 50.9221
L77.4767 50.9888
" />
<path d="M77.4767 50.9888
L77.5767 51.0221
" />
<path d="M77.5767 51.0221
L77.7433 51.0221
" />
<path d="M76.1100 51.0221
L76.3433 50.6888
" />
<path d="M76.5100 51.0221
L76.5100 50.3221
" />
<path d="M76.5100 50.3221
L76.2433 50.3221
" />
<path d="M76.2433 50.3221
L76.1767 50.3555
" />
<path d="M76.1767 50.3555
L76.1433 50.3888
" />
<path d="M76.1433 50.3888
L76.1100 50.4555
" />
<path d="M76.1100 50.4555
L76.1100 50.5555
" />
<path d="M76.1100 50.5555
L76.1433 50.6221
" />
<path d="M76.1433 50.6221
L76.1767 50.6555
" />
<path d="M76.1767 50.6555
L76.2433 50.6888
" />
<path d="M76.2433 50.6888
L76.5100 50.6888
" />
<path d="M75.8100 51.0221
L75.8100 50.5555
" />
<path d="M75.8100 50.3221
L75.8433 50.3555
" />
<path d="M75.8433 50.3555
L75.8100 50.3888
" />
<path d="M75.8100 50.3888
L75.7767 50.3555
" />
<path d="M75.7767 50.3555
L75.8100 50.3221
" />
<path d="M75.8100 50.3221
L75.8100 50.3888
" />
<path d="M75.4767 50.5555
L75.4767 51.0221
" />
<path d="M75.4767 50.6221
L75.4433 50.5888
" />
<path d="M75.4433 50.5888
L75.3767 50.5555
" />
<path d="M75.3767 50.5555
L75.2767 50.5555
" />
<path d="M75.2767 50.5555
L75.2100 50.5888
" />
<path d="M75.2100 50.5888
L75.1767 50.6555
" />
<path d="M75.1767 50.6555
L75.1767 51.0221
" />
<path d="M74.5433 50.5555
L74.5433 51.1221
" />
<path d="M74.5433 51.1221
L74.5767 51.1888
" />
<path d="M74.5767 51.1888
L74.6100 51.2221
" />
<path d="M74.6100 51.2221
L74.6767 51.2555
" />
<path d="M74.6767 51.2555
L74.7767 51.2555
" />
<path d="M74.7767 51.2555
L74.8433 51.2221
" />
<path d="M74.5433 50.9888
L74.6100 51.0221
" />
<path d="M74.6100 51.0221
L74.7433 51.0221
" />
<path d="M74.7433 51.0221
L74.8100 50.9888
" />
<path d="M74.8100 50.9888
L74.8433 50.9555
" />
<path d="M74.8433 50.9555
L74.8767 50.8888
" />
<path d="M74.8767 50.8888
L74.8767 50.6888
" />
<path d="M74.8767 50.6888
L74.8433 50.6221
" />
<path d="M74.8433 50.6221
L74.8100 50.5888
" />
<path d="M74.8100 50.5888
L74.7433 50.5555
" />
<path d="M74.7433 50.5555
L74.6100 50.5555
" />
<path d="M74.6100 50.5555
L74.5433 50.5888
" />
</g><text x="79.9600" y="52.2400"
transform="scale(-1 1) translate(-159.920000 0)"
textLength="16.8767" font-size="0.9333" lengthAdjust="spacingAndGlyphs"
text-anchor="middle" opacity="0">https://github.com/pedalboard</text>
<g class="stroked-text"><desc>https://github.com/pedalboard</desc>
<path d="M88.1767 52.1491
L88.1767 51.4491
" />
<path d="M87.8767 52.1491
L87.8767 51.7825
" />
<path d="M87.8767 51.7825
L87.9100 51.7158
" />
<path d="M87.9100 51.7158
L87.9767 51.6825
" />
<path d="M87.9767 51.6825
L88.0767 51.6825
" />
<path d="M88.0767 51.6825
L88.1433 51.7158
" />
<path d="M88.1433 51.7158
L88.1767 51.7491
" />
<path d="M87.6433 51.6825
L87.3767 51.6825
" />
<path d="M87.5433 51.4491
L87.5433 52.0491
" />
<path d="M87.5433 52.0491
L87.5100 52.1158
" />
<path d="M87.5100 52.1158
L87.4433 52.1491
" />
<path d="M87.4433 52.1491
L87.3767 52.1491
" />
<path d="M87.2433 51.6825
L86.9767 51.6825
" />
<path d="M87.1433 51.4491
L87.1433 52.0491
" />
<path d="M87.1433 52.0491
L87.1100 52.1158
" />
<path d="M87.1100 52.1158
L87.0433 52.1491
" />
<path d="M87.0433 52.1491
L86.9767 52.1491
" />
<path d="M86.7433 51.6825
L86.7433 52.3825
" />
<path d="M86.7433 51.7158
L86.6767 51.6825
" />
<path d="M86.6767 51.6825
L86.5433 51.6825
" />
<path d="M86.5433 51.6825
L86.4767 51.7158
" />
<path d="M86.4767 51.7158
L86.4433 51.7491
" />
<path d="M86.4433 51.7491
L86.4100 51.8158
" />
<path d="M86.4100 51.8158
L86.4100 52.0158
" />
<path d="M86.4100 52.0158
L86.4433 52.0825
" />
<path d="M86.4433 52.0825
L86.4767 52.1158
" />
<path d="M86.4767 52.1158
L86.5433 52.1491
" />
<path d="M86.5433 52.1491
L86.6767 52.1491
" />
<path d="M86.6767 52.1491
L86.7433 52.1158
" />
<path d="M86.1433 52.1158
L86.0767 52.1491
" />
<path d="M86.0767 52.1491
L85.9433 52.1491
" />
<path d="M85.9433 52.1491
L85.8767 52.1158
" />
<path d="M85.8767 52.1158
L85.8433 52.0491
" />
<path d="M85.8433 52.0491
L85.8433 52.0158
" />
<path d="M85.8433 52.0158
L85.8767 51.9491
" />
<path d="M85.8767 51.9491
L85.9433 51.9158
" />
<path d="M85.9433 51.9158
L86.0433 51.9158
" />
<path d="M86.0433 51.9158
L86.1100 51.8825
" />
<path d="M86.1100 51.8825
L86.1433 51.8158
" />
<path d="M86.1433 51.8158
L86.1433 51.7825
" />
<path d="M86.1433 51.7825
L86.1100 51.7158
" />
<path d="M86.1100 51.7158
L86.0433 51.6825
" />
<path d="M86.0433 51.6825
L85.9433 51.6825
" />
<path d="M85.9433 51.6825
L85.8767 51.7158
" />
<path d="M85.5433 52.0825
L85.5100 52.1158
" />
<path d="M85.5100 52.1158
L85.5433 52.1491
" />
<path d="M85.5433 52.1491
L85.5767 52.1158
" />
<path d="M85.5767 52.1158
L85.5433 52.0825
" />
<path d="M85.5433 52.0825
L85.5433 52.1491
" />
<path d="M85.5433 51.7158
L85.5100 51.7491
" />
<path d="M85.5100 51.7491
L85.5433 51.7825
" />
<path d="M85.5433 51.7825
L85.5767 51.7491
" />
<path d="M85.5767 51.7491
L85.5433 51.7158
" />
<path d="M85.5433 51.7158
L85.5433 51.7825
" />
<path d="M84.7100 51.4158
L85.3100 52.3158
" />
<path d="M83.9767 51.4158
L84.5767 52.3158
" />
<path d="M83.4433 51.6825
L83.4433 52.2491
" />
<path d="M83.4433 52.2491
L83.4767 52.3158
" />
<path d="M83.4767 52.3158
L83.5100 52.3491
" />
<path d="M83.5100 52.3491
L83.5767 52.3825
" />
<path d="M83.5767 52.3825
L83.6767 52.3825
" />
<path d="M83.6767 52.3825
L83.7433 52.3491
" />
<path d="M83.4433 52.1158
L83.5100 52.1491
" />
<path d="M83.5100 52.1491
L83.6433 52.1491
" />
<path d="M83.6433 52.1491
L83.7100 52.1158
" />
<path d="M83.7100 52.1158
L83.7433 52.0825
" />
<path d="M83.7433 52.0825
L83.7767 52.0158
" />
<path d="M83.7767 52.0158
L83.7767 51.8158
" />
<path d="M83.7767 51.8158
L83.7433 51.7491
" />
<path d="M83.7433 51.7491
L83.7100 51.7158
" />
<path d="M83.7100 51.7158
L83.6433 51.6825
" />
<path d="M83.6433 51.6825
L83.5100 51.6825
" />
<path d="M83.5100 51.6825
L83.4433 51.7158
" />
<path d="M83.1100 52.1491
L83.1100 51.6825
" />
<path d="M83.1100 51.4491
L83.1433 51.4825
" />
<path d="M83.1433 51.4825
L83.1100 51.5158
" />
<path d="M83.1100 51.5158
L83.0767 51.4825
" />
<path d="M83.0767 51.4825
L83.1100 51.4491
" />
<path d="M83.1100 51.4491
L83.1100 51.5158
" />
<path d="M82.8767 51.6825
L82.6100 51.6825
" />
<path d="M82.7767 51.4491
L82.7767 52.0491
" />
<path d="M82.7767 52.0491
L82.7433 52.1158
" />
<path d="M82.7433 52.1158
L82.6767 52.1491
" />
<path d="M82.6767 52.1491
L82.6100 52.1491
" />
<path d="M82.3767 52.1491
L82.3767 51.4491
" />
<path d="M82.0767 52.1491
L82.0767 51.7825
" />
<path d="M82.0767 51.7825
L82.1100 51.7158
" />
<path d="M82.1100 51.7158
L82.1767 51.6825
" />
<path d="M82.1767 51.6825
L82.2767 51.6825
" />
<path d="M82.2767 51.6825
L82.3433 51.7158
" />
<path d="M82.3433 51.7158
L82.3767 51.7491
" />
<path d="M81.4433 51.6825
L81.4433 52.1491
" />
<path d="M81.7433 51.6825
L81.7433 52.0491
" />
<path d="M81.7433 52.0491
L81.7100 52.1158
" />
<path d="M81.7100 52.1158
L81.6433 52.1491
" />
<path d="M81.6433 52.1491
L81.5433 52.1491
" />
<path d="M81.5433 52.1491
L81.4767 52.1158
" />
<path d="M81.4767 52.1158
L81.4433 52.0825
" />
<path d="M81.1100 52.1491
L81.1100 51.4491
" />
<path d="M81.1100 51.7158
L81.0433 51.6825
" />
<path d="M81.0433 51.6825
L80.9100 51.6825
" />
<path d="M80.9100 51.6825
L80.8433 51.7158
" />
<path d="M80.8433 51.7158
L80.8100 51.7491
" />
<path d="M80.8100 51.7491
L80.7767 51.8158
" />
<path d="M80.7767 51.8158
L80.7767 52.0158
" />
<path d="M80.7767 52.0158
L80.8100 52.0825
" />
<path d="M80.8100 52.0825
L80.8433 52.1158
" />
<path d="M80.8433 52.1158
L80.9100 52.1491
" />
<path d="M80.9100 52.1491
L81.0433 52.1491
" />
<path d="M81.0433 52.1491
L81.1100 52.1158
" />
<path d="M80.4767 52.0825
L80.4433 52.1158
" />
<path d="M80.4433 52.1158
L80.4767 52.1491
" />
<path d="M80.4767 52.1491
L80.5100 52.1158
" />
<path d="M80.5100 52.1158
L80.4767 52.0825
" />
<path d="M80.4767 52.0825
L80.4767 52.1491
" />
<path d="M79.8433 52.1158
L79.9100 52.1491
" />
<path d="M79.9100 52.1491
L80.0433 52.1491
" />
<path d="M80.0433 52.1491
L80.1100 52.1158
" />
<path d="M80.1100 52.1158
L80.1433 52.0825
" />
<path d="M80.1433 52.0825
L80.1767 52.0158
" />
<path d="M80.1767 52.0158
L80.1767 51.8158
" />
<path d="M80.1767 51.8158
L80.1433 51.7491
" />
<path d="M80.1433 51.7491
L80.1100 51.7158
" />
<path d="M80.1100 51.7158
L80.0433 51.6825
" />
<path d="M80.0433 51.6825
L79.9100 51.6825
" />
<path d="M79.9100 51.6825
L79.8433 51.7158
" />
<path d="M79.4433 52.1491
L79.5100 52.1158
" />
<path d="M79.5100 52.1158
L79.5433 52.0825
" />
<path d="M79.5433 52.0825
L79.5767 52.0158
" />
<path d="M79.5767 52.0158
L79.5767 51.8158
" />
<path d="M79.5767 51.8158
L79.5433 51.7491
" />
<path d="M79.5433 51.7491
L79.5100 51.7158
" />
<path d="M79.5100 51.7158
L79.4433 51.6825
" />
<path d="M79.4433 51.6825
L79.3433 51.6825
" />
<path d="M79.3433 51.6825
L79.2767 51.7158
" />
<path d="M79.2767 51.7158
L79.2433 51.7491
" />
<path d="M79.2433 51.7491
L79.2100 51.8158
" />
<path d="M79.2100 51.8158
L79.2100 52.0158
" />
<path d="M79.2100 52.0158
L79.2433 52.0825
" />
<path d="M79.2433 52.0825
L79.2767 52.1158
" />
<path d="M79.2767 52.1158
L79.3433 52.1491
" />
<path d="M79.3433 52.1491
L79.4433 52.1491
" />
<path d="M78.9100 52.1491
L78.9100 51.6825
" />
<path d="M78.9100 51.7491
L78.8767 51.7158
" />
<path d="M78.8767 51.7158
L78.8100 51.6825
" />
<path d="M78.8100 51.6825
L78.7100 51.6825
" />
<path d="M78.7100 51.6825
L78.6433 51.7158
" />
<path d="M78.6433 51.7158
L78.6100 51.7825
" />
<path d="M78.6100 51.7825
L78.6100 52.1491
" />
<path d="M78.6100 51.7825
L78.5767 51.7158
" />
<path d="M78.5767 51.7158
L78.5100 51.6825
" />
<path d="M78.5100 51.6825
L78.4100 51.6825
" />
<path d="M78.4100 51.6825
L78.3433 51.7158
" />
<path d="M78.3433 51.7158
L78.3100 51.7825
" />
<path d="M78.3100 51.7825
L78.3100 52.1491
" />
<path d="M77.4767 51.4158
L78.0767 52.3158
" />
<path d="M77.2433 51.6825
L77.2433 52.3825
" />
<path d="M77.2433 51.7158
L77.1767 51.6825
" />
<path d="M77.1767 51.6825
L77.0433 51.6825
" />
<path d="M77.0433 51.6825
L76.9767 51.7158
" />
<path d="M76.9767 51.7158
L76.9433 51.7491
" />
<path d="M76.9433 51.7491
L76.9100 51.8158
" />
<path d="M76.9100 51.8158
L76.9100 52.0158
" />
<path d="M76.9100 52.0158
L76.9433 52.0825
" />
<path d="M76.9433 52.0825
L76.9767 52.1158
" />
<path d="M76.9767 52.1158
L77.0433 52.1491
" />
<path d="M77.0433 52.1491
L77.1767 52.1491
" />
<path d="M77.1767 52.1491
L77.2433 52.1158
" />
<path d="M76.3433 52.1158
L76.4100 52.1491
" />
<path d="M76.4100 52.1491
L76.5433 52.1491
" />
<path d="M76.5433 52.1491
L76.6100 52.1158
" />
<path d="M76.6100 52.1158
L76.6433 52.0491
" />
<path d="M76.6433 52.0491
L76.6433 51.7825
" />
<path d="M76.6433 51.7825
L76.6100 51.7158
" />
<path d="M76.6100 51.7158
L76.5433 51.6825
" />
<path d="M76.5433 51.6825
L76.4100 51.6825
" />
<path d="M76.4100 51.6825
L76.3433 51.7158
" />
<path d="M76.3433 51.7158
L76.3100 51.7825
" />
<path d="M76.3100 51.7825
L76.3100 51.8491
" />
<path d="M76.3100 51.8491
L76.6433 51.9158
" />
<path d="M75.7100 52.1491
L75.7100 51.4491
" />
<path d="M75.7100 52.1158
L75.7767 52.1491
" />
<path d="M75.7767 52.1491
L75.9100 52.1491
" />
<path d="M75.9100 52.1491
L75.9767 52.1158
" />
<path d="M75.9767 52.1158
L76.0100 52.0825
" />
<path d="M76.0100 52.0825
L76.0433 52.0158
" />
<path d="M76.0433 52.0158
L76.0433 51.8158
" />
<path d="M76.0433 51.8158
L76.0100 51.7491
" />
<path d="M76.0100 51.7491
L75.9767 51.7158
" />
<path d="M75.9767 51.7158
L75.9100 51.6825
" />
<path d="M75.9100 51.6825
L75.7767 51.6825
" />
<path d="M75.7767 51.6825
L75.7100 51.7158
" />
<path d="M75.0767 52.1491
L75.0767 51.7825
" />
<path d="M75.0767 51.7825
L75.1100 51.7158
" />
<path d="M75.1100 51.7158
L75.1767 51.6825
" />
<path d="M75.1767 51.6825
L75.3100 51.6825
" />
<path d="M75.3100 51.6825
L75.3767 51.7158
" />
<path d="M75.0767 52.1158
L75.1433 52.1491
" />
<path d="M75.1433 52.1491
L75.3100 52.1491
" />
<path d="M75.3100 52.1491
L75.3767 52.1158
" />
<path d="M75.3767 52.1158
L75.4100 52.0491
" />
<path d="M75.4100 52.0491
L75.4100 51.9825
" />
<path d="M75.4100 51.9825
L75.3767 51.9158
" />
<path d="M75.3767 51.9158
L75.3100 51.8825
" />
<path d="M75.3100 51.8825
L75.1433 51.8825
" />
<path d="M75.1433 51.8825
L75.0767 51.8491
" />
<path d="M74.6433 52.1491
L74.7100 52.1158
" />
<path d="M74.7100 52.1158
L74.7433 52.0491
" />
<path d="M74.7433 52.0491
L74.7433 51.4491
" />
<path d="M74.3767 52.1491
L74.3767 51.4491
" />
<path d="M74.3767 51.7158
L74.3100 51.6825
" />
<path d="M74.3100 51.6825
L74.1767 51.6825
" />
<path d="M74.1767 51.6825
L74.1100 51.7158
" />
<path d="M74.1100 51.7158
L74.0767 51.7491
" />
<path d="M74.0767 51.7491
L74.0433 51.8158
" />
<path d="M74.0433 51.8158
L74.0433 52.0158
" />
<path d="M74.0433 52.0158
L74.0767 52.0825
" />
<path d="M74.0767 52.0825
L74.1100 52.1158
" />
<path d="M74.1100 52.1158
L74.1767 52.1491
" />
<path d="M74.1767 52.1491
L74.3100 52.1491
" />
<path d="M74.3100 52.1491
L74.3767 52.1158
" />
<path d="M73.6433 52.1491
L73.7100 52.1158
" />
<path d="M73.7100 52.1158
L73.7433 52.0825
" />
<path d="M73.7433 52.0825
L73.7767 52.0158
" />
<path d="M73.7767 52.0158
L73.7767 51.8158
" />
<path d="M73.7767 51.8158
L73.7433 51.7491
" />
<path d="M73.7433 51.7491
L73.7100 51.7158
" />
<path d="M73.7100 51.7158
L73.6433 51.6825
" />
<path d="M73.6433 51.6825
L73.5433 51.6825
" />
<path d="M73.5433 51.6825
L73.4767 51.7158
" />
<path d="M73.4767 51.7158
L73.4433 51.7491
" />
<path d="M73.4433 51.7491
L73.4100 51.8158
" />
<path d="M73.4100 51.8158
L73.4100 52.0158
" />
<path d="M73.4100 52.0158
L73.4433 52.0825
" />
<path d="M73.4433 52.0825
L73.4767 52.1158
" />
<path d="M73.4767 52.1158
L73.5433 52.1491
" />
<path d="M73.5433 52.1491
L73.6433 52.1491
" />
<path d="M72.8100 52.1491
L72.8100 51.7825
" />
<path d="M72.8100 51.7825
L72.8433 51.7158
" />
<path d="M72.8433 51.7158
L72.9100 51.6825
" />
<path d="M72.9100 51.6825
L73.0433 51.6825
" />
<path d="M73.0433 51.6825
L73.1100 51.7158
" />
<path d="M72.8100 52.1158
L72.8767 52.1491
" />
<path d="M72.8767 52.1491
L73.0433 52.1491
" />
<path d="M73.0433 52.1491
L73.1100 52.1158
" />
<path d="M73.1100 52.1158
L73.1433 52.0491
" />
<path d="M73.1433 52.0491
L73.1433 51.9825
" />
<path d="M73.1433 51.9825
L73.1100 51.9158
" />
<path d="M73.1100 51.9158
L73.0433 51.8825
" />
<path d="M73.0433 51.8825
L72.8767 51.8825
" />
<path d="M72.8767 51.8825
L72.8100 51.8491
" />
<path d="M72.4767 52.1491
L72.4767 51.6825
" />
<path d="M72.4767 51.8158
L72.4433 51.7491
" />
<path d="M72.4433 51.7491
L72.4100 51.7158
" />
<path d="M72.4100 51.7158
L72.3433 51.6825
" />
<path d="M72.3433 51.6825
L72.2767 51.6825
" />
<path d="M71.7433 52.1491
L71.7433 51.4491
" />
<path d="M71.7433 52.1158
L71.8100 52.1491
" />
<path d="M71.8100 52.1491
L71.9433 52.1491
" />
<path d="M71.9433 52.1491
L72.0100 52.1158
" />
<path d="M72.0100 52.1158
L72.0433 52.0825
" />
<path d="M72.0433 52.0825
L72.0767 52.0158
" />
<path d="M72.0767 52.0158
L72.0767 51.8158
" />
<path d="M72.0767 51.8158
L72.0433 51.7491
" />
<path d="M72.0433 51.7491
L72.0100 51.7158
" />
<path d="M72.0100 51.7158
L71.9433 51.6825
" />
<path d="M71.9433 51.6825
L71.8100 51.6825
" />
<path d="M71.8100 51.6825
L71.7433 51.7158
" />
</g></g>
<g style="fill:#000000; fill-opacity:0.0; 
stroke:#000000; stroke-width:0.1200; stroke-opacity:1; 
stroke-linecap:round; stroke-linejoin:round;">
<path d="M87.4400 62.0600
L87.4400 57.9400
" />
<path d="M87.7400 62.0600
L87.4400 62.0600
" />
<path d="M89.7400 62.0600
L89.2600 62.0600
" />
<path d="M91.5600 62.0600
L91.2600 62.0600
" />
<path d="M91.5600 62.0600
L91.5600 57.9400
" />
<path d="M87.7400 57.9400
L87.4400 57.9400
" />
<path d="M89.7400 57.9400
L89.2600 57.9400
" />
<path d="M91.2600 57.9400
L91.2600 55.5600
" />
<path d="M91.5600 57.9400
L91.2600 57.9400
" />
<path d="M84.9400 67.4400
L89.0600 67.4400
" />
<path d="M84.9400 67.7400
L84.9400 67.4400
" />
<path d="M84.9400 69.7400
L84.9400 69.2600
" />
<path d="M84.9400 71.5600
L84.9400 71.2600
" />
<path d="M84.9400 71.5600
L89.0600 71.5600
" />
<path d="M89.0600 67.7400
L89.0600 67.4400
" />
<path d="M89.0600 69.7400
L89.0600 69.2600
" />
<path d="M89.0600 71.2600
L91.4400 71.2600
" />
<path d="M89.0600 71.5600
L89.0600 71.2600
" />
<g >
</g>
<g >
</g>
<g >
</g>
<g >
</g>
<g >
</g>
<g >
</g>
<g >
</g>
<g >
</g>
<g >
</g>
<g >
</g>
<g >
</g>
<g >
</g>
<g >
</g>
<g >
</g>
<g >
</g>
<g >
</g>
<g >
</g>
<g >
</g>
<g >
</g>
<g >
</g>
<g >
</g>
<g >
</g>
<g >
</g>
<g >
</g>
<g >
</g>
<g >
</g>
<g >
</g>
<g >
</g>
<g >
</g>
<g >
</g>
<g >
</g>
<g >
</g>
<g >
</g>
<g >
</g>
</g>
<g style="fill:#FFFFFF; fill-opacity:0.0; 
stroke:#FFFFFF; stroke-width:0.1200; stroke-opacity:1; 
stroke-linecap:round; stroke-linejoin:round;">
</g>
<g style="fill:#FFFFFF; fill-opacity:1.0000; 
stroke:#FFFFFF; stroke-width:0.0000; stroke-opacity:1; 
stroke-linecap:round; stroke-linejoin:round;">
<circle cx="86.8000" cy="63.6000" r="0.2000" /> 
</g>
<g style="fill:#FFFFFF; fill-opacity:1.0000; 
stroke:#FFFFFF; stroke-width:0.0212; stroke-opacity:1; 
stroke-linecap:round; stroke-linejoin:round;">
</g>
<g style="fill:#FFFFFF; fill-opacity:1.0000; 
stroke:#FFFFFF; stroke-width:0.0000; stroke-opacity:1; 
stroke-linecap:round; stroke-linejoin:round;">
<circle cx="74.0000" cy="52.0000" r="0.2000" /> 
</g>
<g style="fill:#FFFFFF; fill-opacity:1.0000; 
stroke:#FFFFFF; stroke-width:0.0212; stroke-opacity:1; 
stroke-linecap:round; stroke-linejoin:round;">
</g>
<g style="fill:#FFFFFF; fill-opacity:1.0000; 
stroke:#FFFFFF; stroke-width:0.0000; stroke-opacity:1; 
stroke-linecap:round; stroke-linejoin:round;">
<circle cx="89.9282" cy="58.8038" r="0.2000" /> 
</g>
<g style="fill:#FFFFFF; fill-opacity:1.0000; 
stroke:#FFFFFF; stroke-width:0.0212; stroke-opacity:1; 
stroke-linecap:round; stroke-linejoin:round;">
</g>
<g style="fill:#FFFFFF; fill-opacity:1.0000; 
stroke:#FFFFFF; stroke-width:0.0000; stroke-opacity:1; 
stroke-linecap:round; stroke-linejoin:round;">
<circle cx="70.0718" cy="61.1962" r="0.2000" /> 
</g>
<g style="fill:#FFFFFF; fill-opacity:1.0000; 
stroke:#FFFFFF; stroke-width:0.0212; stroke-opacity:1; 
stroke-linecap:round; stroke-linejoin:round;">
</g>
<g style="fill:#FFFFFF; fill-opacity:1.0000; 
stroke:#FFFFFF; stroke-width:0.0000; stroke-opacity:1; 
stroke-linecap:round; stroke-linejoin:round;">
<circle cx="76.0718" cy="69.1962" r="0.2000" /> 
</g>
<g style="fill:#FFFFFF; fill-opacity:1.0000; 
stroke:#FFFFFF; stroke-width:0.0212; stroke-opacity:1; 
stroke-linecap:round; stroke-linejoin:round;">
</g>
<g style="fill:#FFFFFF; fill-opacity:1.0000; 
stroke:#FFFFFF; stroke-width:0.0000; stroke-opacity:1; 
stroke-linecap:round; stroke-linejoin:round;">
<circle cx="81.1962" cy="69.9282" r="0.2000" /> 
</g>
<g style="fill:#FFFFFF; fill-opacity:1.0000; 
stroke:#FFFFFF; stroke-width:0.0212; stroke-opacity:1; 
stroke-linecap:round; stroke-linejoin:round;">
</g>
<g style="fill:#FFFFFF; fill-opacity:1.0000; 
stroke:#FFFFFF; stroke-width:0.0000; stroke-opacity:1; 
stroke-linecap:round; stroke-linejoin:round;">
<circle cx="83.9282" cy="50.8038" r="0.2000" /> 
</g>
<g style="fill:#FFFFFF; fill-opacity:1.0000; 
stroke:#FFFFFF; stroke-width:0.0212; stroke-opacity:1; 
stroke-linecap:round; stroke-linejoin:round;">
</g>
<g style="fill:#FFFFFF; fill-opacity:1.0000; 
stroke:#FFFFFF; stroke-width:0.0000; stroke-opacity:1; 
stroke-linecap:round; stroke-linejoin:round;">
<circle cx="72.0000" cy="66.0000" r="0.2000" /> 
</g>
<g style="fill:#FFFFFF; fill-opacity:1.0000; 
stroke:#FFFFFF; stroke-width:0.0212; stroke-opacity:1; 
stroke-linecap:round; stroke-linejoin:round;">
</g>
<g style="fill:#FFFFFF; fill-opacity:1.0000; 
stroke:#FFFFFF; stroke-width:0.0000; stroke-opacity:1; 
stroke-linecap:round; stroke-linejoin:round;">
<circle cx="86.0000" cy="67.9400" r="0.2000" /> 
</g>
<g style="fill:#FFFFFF; fill-opacity:1.0000; 
stroke:#FFFFFF; stroke-width:0.0212; stroke-opacity:1; 
stroke-linecap:round; stroke-linejoin:round;">
</g>
<g style="fill:#FFFFFF; fill-opacity:1.0000; 
stroke:#FFFFFF; stroke-width:0.0000; stroke-opacity:1; 
stroke-linecap:round; stroke-linejoin:round;">
<circle cx="70.8038" cy="56.0718" r="0.2000" /> 
</g>
<g style="fill:#FFFFFF; fill-opacity:1.0000; 
stroke:#FFFFFF; stroke-width:0.0212; stroke-opacity:1; 
stroke-linecap:round; stroke-linejoin:round;">
</g>
<g style="fill:#FFFFFF; fill-opacity:1.0000; 
stroke:#FFFFFF; stroke-width:0.0000; stroke-opacity:1; 
stroke-linecap:round; stroke-linejoin:round;">
<circle cx="88.0000" cy="54.0000" r="0.2000" /> 
</g>
<g style="fill:#FFFFFF; fill-opacity:1.0000; 
stroke:#FFFFFF; stroke-width:0.0212; stroke-opacity:1; 
stroke-linecap:round; stroke-linejoin:round;">
</g>
<g style="fill:#FFFFFF; fill-opacity:1.0000; 
stroke:#FFFFFF; stroke-width:0.0000; stroke-opacity:1; 
stroke-linecap:round; stroke-linejoin:round;">
<circle cx="88.2600" cy="66.0200" r="0.2000" /> 
</g>
<g style="fill:#FFFFFF; fill-opacity:1.0000; 
stroke:#FFFFFF; stroke-width:0.0212; stroke-opacity:1; 
stroke-linecap:round; stroke-linejoin:round;">
</g>
<g style="fill:#FFFFFF; fill-opacity:1.0000; 
stroke:#FFFFFF; stroke-width:0.0000; stroke-opacity:1; 
stroke-linecap:round; stroke-linejoin:round;">
<circle cx="78.8038" cy="50.0718" r="0.2000" /> 
</g>
<g style="fill:#FFFFFF; fill-opacity:1.0000; 
stroke:#FFFFFF; stroke-width:0.0212; stroke-opacity:1; 
stroke-linecap:round; stroke-linejoin:round;">
</g>
<g style="fill:#FFFFFF; fill-opacity:1.0000; 
stroke:#FFFFFF; stroke-width:0.0000; stroke-opacity:1; 
stroke-linecap:round; stroke-linejoin:round;">
<circle cx="90.2000" cy="61.4000" r="0.2000" /> 
</g>
<g style="fill:#FFFFFF; fill-opacity:1.0000; 
stroke:#FFFFFF; stroke-width:0.0212; stroke-opacity:1; 
stroke-linecap:round; stroke-linejoin:round;">
</g>
<g style="fill:#FFFFFF; fill-opacity:1.0000; 
stroke:#FFFFFF; stroke-width:0.0000; stroke-opacity:1; 
stroke-linecap:round; stroke-linejoin:round;">
<circle cx="82.9000" cy="71.4000" r="0.2000" /> 
</g>
<g style="fill:#FFFFFF; fill-opacity:1.0000; 
stroke:#FFFFFF; stroke-width:0.0212; stroke-opacity:1; 
stroke-linecap:round; stroke-linejoin:round;">
</g>
<g style="fill:#FFFFFF; fill-opacity:1.0000; 
stroke:#FFFFFF; stroke-width:0.0000; stroke-opacity:1; 
stroke-linecap:round; stroke-linejoin:round;">
<circle cx="90.9500" cy="61.4000" r="0.2000" /> 
</g>
<g style="fill:#FFFFFF; fill-opacity:1.0000; 
stroke:#FFFFFF; stroke-width:0.0212; stroke-opacity:1; 
stroke-linecap:round; stroke-linejoin:round;">
</g>
<g style="fill:#FFFFFF; fill-opacity:1.0000; 
stroke:#FFFFFF; stroke-width:0.0000; stroke-opacity:1; 
stroke-linecap:round; stroke-linejoin:round;">
<circle cx="90.9000" cy="64.9000" r="0.2000" /> 
</g>
<g style="fill:#FFFFFF; fill-opacity:1.0000; 
stroke:#FFFFFF; stroke-width:0.0212; stroke-opacity:1; 
stroke-linecap:round; stroke-linejoin:round;">
</g>
<g style="fill:#FFFFFF; fill-opacity:1.0000; 
stroke:#FFFFFF; stroke-width:0.0000; stroke-opacity:1; 
stroke-linecap:round; stroke-linejoin:round;">
<circle cx="90.1500" cy="64.9000" r="0.2000" /> 
</g>
<g style="fill:#FFFFFF; fill-opacity:1.0000; 
stroke:#FFFFFF; stroke-width:0.0212; stroke-opacity:1; 
stroke-linecap:round; stroke-linejoin:round;">
</g>
<g style="fill:#FFFFFF; fill-opacity:1.0000; 
stroke:#FFFFFF; stroke-width:0.0000; stroke-opacity:1; 
stroke-linecap:round; stroke-linejoin:round;">
<circle cx="84.9000" cy="71.4000" r="0.2000" /> 
</g>
<g style="fill:#FFFFFF; fill-opacity:1.0000; 
stroke:#FFFFFF; stroke-width:0.0212; stroke-opacity:1; 
stroke-linecap:round; stroke-linejoin:round;">
</g>
<g style="fill:#FFFFFF; fill-opacity:1.0000; 
stroke:#FFFFFF; stroke-width:0.0000; stroke-opacity:1; 
stroke-linecap:round; stroke-linejoin:round;">
<circle cx="85.7000" cy="70.5000" r="0.2000" /> 
</g>
<g style="fill:#FFFFFF; fill-opacity:1.0000; 
stroke:#FFFFFF; stroke-width:0.0212; stroke-opacity:1; 
stroke-linecap:round; stroke-linejoin:round;">
</g>
<g style="fill:#FFFFFF; fill-opacity:1.0000; 
stroke:#FFFFFF; stroke-width:0.0000; stroke-opacity:1; 
stroke-linecap:round; stroke-linejoin:round;">
<circle cx="83.9000" cy="71.4000" r="0.2000" /> 
</g>
<g style="fill:#FFFFFF; fill-opacity:1.0000; 
stroke:#FFFFFF; stroke-width:0.0212; stroke-opacity:1; 
stroke-linecap:round; stroke-linejoin:round;">
</g>
<g style="fill:#FFFFFF; fill-opacity:1.0000; 
stroke:#FFFFFF; stroke-width:0.0000; stroke-opacity:1; 
stroke-linecap:round; stroke-linejoin:round;">
<circle cx="87.9100" cy="61.1500" r="0.2000" /> 
</g>
<g style="fill:#FFFFFF; fill-opacity:1.0000; 
stroke:#FFFFFF; stroke-width:0.0212; stroke-opacity:1; 
stroke-linecap:round; stroke-linejoin:round;">
</g>
<g style="fill:#FFFFFF; fill-opacity:1.0000; 
stroke:#FFFFFF; stroke-width:0.0000; stroke-opacity:1; 
stroke-linecap:round; stroke-linejoin:round;">
<circle cx="90.0000" cy="50.0000" r="1.1000" /> 
</g>
<g style="fill:#FFFFFF; fill-opacity:1.0000; 
stroke:#FFFFFF; stroke-width:0.0212; stroke-opacity:1; 
stroke-linecap:round; stroke-linejoin:round;">
</g>
<g style="fill:#FFFFFF; fill-opacity:1.0000; 
stroke:#FFFFFF; stroke-width:0.0000; stroke-opacity:1; 
stroke-linecap:round; stroke-linejoin:round;">
<circle cx="70.0000" cy="50.0000" r="1.1000" /> 
</g>
<g style="fill:#FFFFFF; fill-opacity:1.0000; 
stroke:#FFFFFF; stroke-width:0.0212; stroke-opacity:1; 
stroke-linecap:round; stroke-linejoin:round;">
</g>
<g style="fill:#FFFFFF; fill-opacity:1.0000; 
stroke:#FFFFFF; stroke-width:0.0000; stroke-opacity:1; 
stroke-linecap:round; stroke-linejoin:round;">
<circle cx="70.0000" cy="70.0000" r="1.1000" /> 
</g>
<g style="fill:#FFFFFF; fill-opacity:1.0000; 
stroke:#FFFFFF; stroke-width:0.0212; stroke-opacity:1; 
stroke-linecap:round; stroke-linejoin:round;">
</g>
<g style="fill:#000000; fill-opacity:1.0000; 
stroke:#000000; stroke-width:0.0212; stroke-opacity:1; 
stroke-linecap:round; stroke-linejoin:round;">
</g> 
</svg>
