<?xml version="1.0" standalone="no"?>
 <!DOCTYPE svg PUBLIC "-//W3C//DTD SVG 1.1//EN" 
 "http://www.w3.org/Graphics/SVG/1.1/DTD/svg11.dtd"> 
<svg
  xmlns:svg="http://www.w3.org/2000/svg"
  xmlns="http://www.w3.org/2000/svg"
  xmlns:xlink="http://www.w3.org/1999/xlink"
  version="1.1"
  width="297.0022mm" height="210.0072mm" viewBox="0.0000 0.0000 297.0022 210.0072">
<title>SVG Image created as pedalboard-led-ring-B_Silkscreen.svg date 2023/06/01 06:07:14 </title>
  <desc>Image generated by PCBNEW </desc>
<g style="fill:#000000; fill-opacity:1.0000;stroke:#000000; stroke-opacity:1.0000;
stroke-linecap:round; stroke-linejoin:round;"
 transform="translate(0 0) scale(1 1)">
</g>
<g style="fill:#000000; fill-opacity:0.0; 
stroke:#000000; stroke-width:0.0000; stroke-opacity:1; 
stroke-linecap:round; stroke-linejoin:round;">
</g>
<g style="fill:#000000; fill-opacity:0.0; 
stroke:#000000; stroke-width:0.1000; stroke-opacity:1; 
stroke-linecap:round; stroke-linejoin:round;">
<circle cx="80.0000" cy="60.0000" r="7.0500" /> 
</g>
<g style="fill:#000000; fill-opacity:0.0; 
stroke:#000000; stroke-width:0.1500; stroke-opacity:1; 
stroke-linecap:round; stroke-linejoin:round;">
<text x="66.5000" y="47.7800"
transform="scale(-1 1) translate(-133.000000 0)"
textLength="19.6512" font-size="1.3333" lengthAdjust="spacingAndGlyphs"
text-anchor="end" opacity="0">Pedalboard neopixel Ring</text>
<g class="stroked-text"><desc>Pedalboard neopixel Ring</desc>
<path d="M85.8368 47.6498
L85.8368 46.6498
" />
<path d="M85.8368 46.6498
L85.4558 46.6498
" />
<path d="M85.4558 46.6498
L85.3606 46.6974
" />
<path d="M85.3606 46.6974
L85.3130 46.7451
" />
<path d="M85.3130 46.7451
L85.2654 46.8403
" />
<path d="M85.2654 46.8403
L85.2654 46.9832
" />
<path d="M85.2654 46.9832
L85.3130 47.0784
" />
<path d="M85.3130 47.0784
L85.3606 47.1260
" />
<path d="M85.3606 47.1260
L85.4558 47.1736
" />
<path d="M85.4558 47.1736
L85.8368 47.1736
" />
<path d="M84.4558 47.6022
L84.5511 47.6498
" />
<path d="M84.5511 47.6498
L84.7415 47.6498
" />
<path d="M84.7415 47.6498
L84.8368 47.6022
" />
<path d="M84.8368 47.6022
L84.8844 47.5070
" />
<path d="M84.8844 47.5070
L84.8844 47.1260
" />
<path d="M84.8844 47.1260
L84.8368 47.0308
" />
<path d="M84.8368 47.0308
L84.7415 46.9832
" />
<path d="M84.7415 46.9832
L84.5511 46.9832
" />
<path d="M84.5511 46.9832
L84.4558 47.0308
" />
<path d="M84.4558 47.0308
L84.4082 47.1260
" />
<path d="M84.4082 47.1260
L84.4082 47.2212
" />
<path d="M84.4082 47.2212
L84.8844 47.3165
" />
<path d="M83.5511 47.6498
L83.5511 46.6498
" />
<path d="M83.5511 47.6022
L83.6463 47.6498
" />
<path d="M83.6463 47.6498
L83.8368 47.6498
" />
<path d="M83.8368 47.6498
L83.9320 47.6022
" />
<path d="M83.9320 47.6022
L83.9796 47.5546
" />
<path d="M83.9796 47.5546
L84.0273 47.4593
" />
<path d="M84.0273 47.4593
L84.0273 47.1736
" />
<path d="M84.0273 47.1736
L83.9796 47.0784
" />
<path d="M83.9796 47.0784
L83.9320 47.0308
" />
<path d="M83.9320 47.0308
L83.8368 46.9832
" />
<path d="M83.8368 46.9832
L83.6463 46.9832
" />
<path d="M83.6463 46.9832
L83.5511 47.0308
" />
<path d="M82.6463 47.6498
L82.6463 47.1260
" />
<path d="M82.6463 47.1260
L82.6939 47.0308
" />
<path d="M82.6939 47.0308
L82.7892 46.9832
" />
<path d="M82.7892 46.9832
L82.9796 46.9832
" />
<path d="M82.9796 46.9832
L83.0749 47.0308
" />
<path d="M82.6463 47.6022
L82.7415 47.6498
" />
<path d="M82.7415 47.6498
L82.9796 47.6498
" />
<path d="M82.9796 47.6498
L83.0749 47.6022
" />
<path d="M83.0749 47.6022
L83.1225 47.5070
" />
<path d="M83.1225 47.5070
L83.1225 47.4117
" />
<path d="M83.1225 47.4117
L83.0749 47.3165
" />
<path d="M83.0749 47.3165
L82.9796 47.2689
" />
<path d="M82.9796 47.2689
L82.7415 47.2689
" />
<path d="M82.7415 47.2689
L82.6463 47.2212
" />
<path d="M82.0273 47.6498
L82.1225 47.6022
" />
<path d="M82.1225 47.6022
L82.1701 47.5070
" />
<path d="M82.1701 47.5070
L82.1701 46.6498
" />
<path d="M81.6463 47.6498
L81.6463 46.6498
" />
<path d="M81.6463 47.0308
L81.5511 46.9832
" />
<path d="M81.5511 46.9832
L81.3606 46.9832
" />
<path d="M81.3606 46.9832
L81.2654 47.0308
" />
<path d="M81.2654 47.0308
L81.2177 47.0784
" />
<path d="M81.2177 47.0784
L81.1701 47.1736
" />
<path d="M81.1701 47.1736
L81.1701 47.4593
" />
<path d="M81.1701 47.4593
L81.2177 47.5546
" />
<path d="M81.2177 47.5546
L81.2654 47.6022
" />
<path d="M81.2654 47.6022
L81.3606 47.6498
" />
<path d="M81.3606 47.6498
L81.5511 47.6498
" />
<path d="M81.5511 47.6498
L81.6463 47.6022
" />
<path d="M80.5987 47.6498
L80.6939 47.6022
" />
<path d="M80.6939 47.6022
L80.7415 47.5546
" />
<path d="M80.7415 47.5546
L80.7892 47.4593
" />
<path d="M80.7892 47.4593
L80.7892 47.1736
" />
<path d="M80.7892 47.1736
L80.7415 47.0784
" />
<path d="M80.7415 47.0784
L80.6939 47.0308
" />
<path d="M80.6939 47.0308
L80.5987 46.9832
" />
<path d="M80.5987 46.9832
L80.4558 46.9832
" />
<path d="M80.4558 46.9832
L80.3606 47.0308
" />
<path d="M80.3606 47.0308
L80.3130 47.0784
" />
<path d="M80.3130 47.0784
L80.2654 47.1736
" />
<path d="M80.2654 47.1736
L80.2654 47.4593
" />
<path d="M80.2654 47.4593
L80.3130 47.5546
" />
<path d="M80.3130 47.5546
L80.3606 47.6022
" />
<path d="M80.3606 47.6022
L80.4558 47.6498
" />
<path d="M80.4558 47.6498
L80.5987 47.6498
" />
<path d="M79.4082 47.6498
L79.4082 47.1260
" />
<path d="M79.4082 47.1260
L79.4558 47.0308
" />
<path d="M79.4558 47.0308
L79.5511 46.9832
" />
<path d="M79.5511 46.9832
L79.7415 46.9832
" />
<path d="M79.7415 46.9832
L79.8368 47.0308
" />
<path d="M79.4082 47.6022
L79.5034 47.6498
" />
<path d="M79.5034 47.6498
L79.7415 47.6498
" />
<path d="M79.7415 47.6498
L79.8368 47.6022
" />
<path d="M79.8368 47.6022
L79.8844 47.5070
" />
<path d="M79.8844 47.5070
L79.8844 47.4117
" />
<path d="M79.8844 47.4117
L79.8368 47.3165
" />
<path d="M79.8368 47.3165
L79.7415 47.2689
" />
<path d="M79.7415 47.2689
L79.5034 47.2689
" />
<path d="M79.5034 47.2689
L79.4082 47.2212
" />
<path d="M78.9320 47.6498
L78.9320 46.9832
" />
<path d="M78.9320 47.1736
L78.8844 47.0784
" />
<path d="M78.8844 47.0784
L78.8368 47.0308
" />
<path d="M78.8368 47.0308
L78.7415 46.9832
" />
<path d="M78.7415 46.9832
L78.6463 46.9832
" />
<path d="M77.8844 47.6498
L77.8844 46.6498
" />
<path d="M77.8844 47.6022
L77.9796 47.6498
" />
<path d="M77.9796 47.6498
L78.1701 47.6498
" />
<path d="M78.1701 47.6498
L78.2654 47.6022
" />
<path d="M78.2654 47.6022
L78.3130 47.5546
" />
<path d="M78.3130 47.5546
L78.3606 47.4593
" />
<path d="M78.3606 47.4593
L78.3606 47.1736
" />
<path d="M78.3606 47.1736
L78.3130 47.0784
" />
<path d="M78.3130 47.0784
L78.2654 47.0308
" />
<path d="M78.2654 47.0308
L78.1701 46.9832
" />
<path d="M78.1701 46.9832
L77.9796 46.9832
" />
<path d="M77.9796 46.9832
L77.8844 47.0308
" />
<path d="M76.6463 46.9832
L76.6463 47.6498
" />
<path d="M76.6463 47.0784
L76.5987 47.0308
" />
<path d="M76.5987 47.0308
L76.5034 46.9832
" />
<path d="M76.5034 46.9832
L76.3606 46.9832
" />
<path d="M76.3606 46.9832
L76.2654 47.0308
" />
<path d="M76.2654 47.0308
L76.2177 47.1260
" />
<path d="M76.2177 47.1260
L76.2177 47.6498
" />
<path d="M75.3606 47.6022
L75.4558 47.6498
" />
<path d="M75.4558 47.6498
L75.6463 47.6498
" />
<path d="M75.6463 47.6498
L75.7415 47.6022
" />
<path d="M75.7415 47.6022
L75.7892 47.5070
" />
<path d="M75.7892 47.5070
L75.7892 47.1260
" />
<path d="M75.7892 47.1260
L75.7415 47.0308
" />
<path d="M75.7415 47.0308
L75.6463 46.9832
" />
<path d="M75.6463 46.9832
L75.4558 46.9832
" />
<path d="M75.4558 46.9832
L75.3606 47.0308
" />
<path d="M75.3606 47.0308
L75.3130 47.1260
" />
<path d="M75.3130 47.1260
L75.3130 47.2212
" />
<path d="M75.3130 47.2212
L75.7892 47.3165
" />
<path d="M74.7415 47.6498
L74.8368 47.6022
" />
<path d="M74.8368 47.6022
L74.8844 47.5546
" />
<path d="M74.8844 47.5546
L74.9320 47.4593
" />
<path d="M74.9320 47.4593
L74.9320 47.1736
" />
<path d="M74.9320 47.1736
L74.8844 47.0784
" />
<path d="M74.8844 47.0784
L74.8368 47.0308
" />
<path d="M74.8368 47.0308
L74.7415 46.9832
" />
<path d="M74.7415 46.9832
L74.5987 46.9832
" />
<path d="M74.5987 46.9832
L74.5034 47.0308
" />
<path d="M74.5034 47.0308
L74.4558 47.0784
" />
<path d="M74.4558 47.0784
L74.4082 47.1736
" />
<path d="M74.4082 47.1736
L74.4082 47.4593
" />
<path d="M74.4082 47.4593
L74.4558 47.5546
" />
<path d="M74.4558 47.5546
L74.5034 47.6022
" />
<path d="M74.5034 47.6022
L74.5987 47.6498
" />
<path d="M74.5987 47.6498
L74.7415 47.6498
" />
<path d="M73.9796 46.9832
L73.9796 47.9832
" />
<path d="M73.9796 47.0308
L73.8844 46.9832
" />
<path d="M73.8844 46.9832
L73.6939 46.9832
" />
<path d="M73.6939 46.9832
L73.5987 47.0308
" />
<path d="M73.5987 47.0308
L73.5511 47.0784
" />
<path d="M73.5511 47.0784
L73.5034 47.1736
" />
<path d="M73.5034 47.1736
L73.5034 47.4593
" />
<path d="M73.5034 47.4593
L73.5511 47.5546
" />
<path d="M73.5511 47.5546
L73.5987 47.6022
" />
<path d="M73.5987 47.6022
L73.6939 47.6498
" />
<path d="M73.6939 47.6498
L73.8844 47.6498
" />
<path d="M73.8844 47.6498
L73.9796 47.6022
" />
<path d="M73.0749 47.6498
L73.0749 46.9832
" />
<path d="M73.0749 46.6498
L73.1225 46.6974
" />
<path d="M73.1225 46.6974
L73.0749 46.7451
" />
<path d="M73.0749 46.7451
L73.0273 46.6974
" />
<path d="M73.0273 46.6974
L73.0749 46.6498
" />
<path d="M73.0749 46.6498
L73.0749 46.7451
" />
<path d="M72.6939 47.6498
L72.1701 46.9832
" />
<path d="M72.6939 46.9832
L72.1701 47.6498
" />
<path d="M71.4082 47.6022
L71.5034 47.6498
" />
<path d="M71.5034 47.6498
L71.6939 47.6498
" />
<path d="M71.6939 47.6498
L71.7892 47.6022
" />
<path d="M71.7892 47.6022
L71.8368 47.5070
" />
<path d="M71.8368 47.5070
L71.8368 47.1260
" />
<path d="M71.8368 47.1260
L71.7892 47.0308
" />
<path d="M71.7892 47.0308
L71.6939 46.9832
" />
<path d="M71.6939 46.9832
L71.5034 46.9832
" />
<path d="M71.5034 46.9832
L71.4082 47.0308
" />
<path d="M71.4082 47.0308
L71.3606 47.1260
" />
<path d="M71.3606 47.1260
L71.3606 47.2212
" />
<path d="M71.3606 47.2212
L71.8368 47.3165
" />
<path d="M70.7892 47.6498
L70.8844 47.6022
" />
<path d="M70.8844 47.6022
L70.9320 47.5070
" />
<path d="M70.9320 47.5070
L70.9320 46.6498
" />
<path d="M69.0749 47.6498
L69.4082 47.1736
" />
<path d="M69.6463 47.6498
L69.6463 46.6498
" />
<path d="M69.6463 46.6498
L69.2653 46.6498
" />
<path d="M69.2653 46.6498
L69.1701 46.6974
" />
<path d="M69.1701 46.6974
L69.1225 46.7451
" />
<path d="M69.1225 46.7451
L69.0749 46.8403
" />
<path d="M69.0749 46.8403
L69.0749 46.9832
" />
<path d="M69.0749 46.9832
L69.1225 47.0784
" />
<path d="M69.1225 47.0784
L69.1701 47.1260
" />
<path d="M69.1701 47.1260
L69.2653 47.1736
" />
<path d="M69.2653 47.1736
L69.6463 47.1736
" />
<path d="M68.6463 47.6498
L68.6463 46.9832
" />
<path d="M68.6463 46.6498
L68.6939 46.6974
" />
<path d="M68.6939 46.6974
L68.6463 46.7451
" />
<path d="M68.6463 46.7451
L68.5987 46.6974
" />
<path d="M68.5987 46.6974
L68.6463 46.6498
" />
<path d="M68.6463 46.6498
L68.6463 46.7451
" />
<path d="M68.1701 46.9832
L68.1701 47.6498
" />
<path d="M68.1701 47.0784
L68.1225 47.0308
" />
<path d="M68.1225 47.0308
L68.0273 46.9832
" />
<path d="M68.0273 46.9832
L67.8844 46.9832
" />
<path d="M67.8844 46.9832
L67.7892 47.0308
" />
<path d="M67.7892 47.0308
L67.7415 47.1260
" />
<path d="M67.7415 47.1260
L67.7415 47.6498
" />
<path d="M66.8368 46.9832
L66.8368 47.7927
" />
<path d="M66.8368 47.7927
L66.8844 47.8879
" />
<path d="M66.8844 47.8879
L66.9320 47.9355
" />
<path d="M66.9320 47.9355
L67.0273 47.9832
" />
<path d="M67.0273 47.9832
L67.1701 47.9832
" />
<path d="M67.1701 47.9832
L67.2653 47.9355
" />
<path d="M66.8368 47.6022
L66.9320 47.6498
" />
<path d="M66.9320 47.6498
L67.1225 47.6498
" />
<path d="M67.1225 47.6498
L67.2177 47.6022
" />
<path d="M67.2177 47.6022
L67.2653 47.5546
" />
<path d="M67.2653 47.5546
L67.3130 47.4593
" />
<path d="M67.3130 47.4593
L67.3130 47.1736
" />
<path d="M67.3130 47.1736
L67.2653 47.0784
" />
<path d="M67.2653 47.0784
L67.2177 47.0308
" />
<path d="M67.2177 47.0308
L67.1225 46.9832
" />
<path d="M67.1225 46.9832
L66.9320 46.9832
" />
<path d="M66.9320 46.9832
L66.8368 47.0308
" />
</g><text x="66.5000" y="49.3900"
transform="scale(-1 1) translate(-133.000000 0)"
textLength="24.1274" font-size="1.3333" lengthAdjust="spacingAndGlyphs"
text-anchor="end" opacity="0">https://github.com/pedalboard</text>
<g class="stroked-text"><desc>https://github.com/pedalboard</desc>
<path d="M90.3130 49.2598
L90.3130 48.2598
" />
<path d="M89.8844 49.2598
L89.8844 48.7360
" />
<path d="M89.8844 48.7360
L89.9320 48.6408
" />
<path d="M89.9320 48.6408
L90.0273 48.5932
" />
<path d="M90.0273 48.5932
L90.1701 48.5932
" />
<path d="M90.1701 48.5932
L90.2654 48.6408
" />
<path d="M90.2654 48.6408
L90.3130 48.6884
" />
<path d="M89.5511 48.5932
L89.1701 48.5932
" />
<path d="M89.4082 48.2598
L89.4082 49.1170
" />
<path d="M89.4082 49.1170
L89.3606 49.2122
" />
<path d="M89.3606 49.2122
L89.2654 49.2598
" />
<path d="M89.2654 49.2598
L89.1701 49.2598
" />
<path d="M88.9796 48.5932
L88.5987 48.5932
" />
<path d="M88.8368 48.2598
L88.8368 49.1170
" />
<path d="M88.8368 49.1170
L88.7892 49.2122
" />
<path d="M88.7892 49.2122
L88.6939 49.2598
" />
<path d="M88.6939 49.2598
L88.5987 49.2598
" />
<path d="M88.2654 48.5932
L88.2654 49.5932
" />
<path d="M88.2654 48.6408
L88.1701 48.5932
" />
<path d="M88.1701 48.5932
L87.9796 48.5932
" />
<path d="M87.9796 48.5932
L87.8844 48.6408
" />
<path d="M87.8844 48.6408
L87.8368 48.6884
" />
<path d="M87.8368 48.6884
L87.7892 48.7836
" />
<path d="M87.7892 48.7836
L87.7892 49.0693
" />
<path d="M87.7892 49.0693
L87.8368 49.1646
" />
<path d="M87.8368 49.1646
L87.8844 49.2122
" />
<path d="M87.8844 49.2122
L87.9796 49.2598
" />
<path d="M87.9796 49.2598
L88.1701 49.2598
" />
<path d="M88.1701 49.2598
L88.2654 49.2122
" />
<path d="M87.4082 49.2122
L87.3130 49.2598
" />
<path d="M87.3130 49.2598
L87.1225 49.2598
" />
<path d="M87.1225 49.2598
L87.0273 49.2122
" />
<path d="M87.0273 49.2122
L86.9796 49.1170
" />
<path d="M86.9796 49.1170
L86.9796 49.0693
" />
<path d="M86.9796 49.0693
L87.0273 48.9741
" />
<path d="M87.0273 48.9741
L87.1225 48.9265
" />
<path d="M87.1225 48.9265
L87.2654 48.9265
" />
<path d="M87.2654 48.9265
L87.3606 48.8789
" />
<path d="M87.3606 48.8789
L87.4082 48.7836
" />
<path d="M87.4082 48.7836
L87.4082 48.7360
" />
<path d="M87.4082 48.7360
L87.3606 48.6408
" />
<path d="M87.3606 48.6408
L87.2654 48.5932
" />
<path d="M87.2654 48.5932
L87.1225 48.5932
" />
<path d="M87.1225 48.5932
L87.0273 48.6408
" />
<path d="M86.5511 49.1646
L86.5034 49.2122
" />
<path d="M86.5034 49.2122
L86.5511 49.2598
" />
<path d="M86.5511 49.2598
L86.5987 49.2122
" />
<path d="M86.5987 49.2122
L86.5511 49.1646
" />
<path d="M86.5511 49.1646
L86.5511 49.2598
" />
<path d="M86.5511 48.6408
L86.5034 48.6884
" />
<path d="M86.5034 48.6884
L86.5511 48.7360
" />
<path d="M86.5511 48.7360
L86.5987 48.6884
" />
<path d="M86.5987 48.6884
L86.5511 48.6408
" />
<path d="M86.5511 48.6408
L86.5511 48.7360
" />
<path d="M85.3606 48.2122
L86.2177 49.4979
" />
<path d="M84.3130 48.2122
L85.1701 49.4979
" />
<path d="M83.5511 48.5932
L83.5511 49.4027
" />
<path d="M83.5511 49.4027
L83.5987 49.4979
" />
<path d="M83.5987 49.4979
L83.6463 49.5455
" />
<path d="M83.6463 49.5455
L83.7415 49.5932
" />
<path d="M83.7415 49.5932
L83.8844 49.5932
" />
<path d="M83.8844 49.5932
L83.9796 49.5455
" />
<path d="M83.5511 49.2122
L83.6463 49.2598
" />
<path d="M83.6463 49.2598
L83.8368 49.2598
" />
<path d="M83.8368 49.2598
L83.9320 49.2122
" />
<path d="M83.9320 49.2122
L83.9796 49.1646
" />
<path d="M83.9796 49.1646
L84.0273 49.0693
" />
<path d="M84.0273 49.0693
L84.0273 48.7836
" />
<path d="M84.0273 48.7836
L83.9796 48.6884
" />
<path d="M83.9796 48.6884
L83.9320 48.6408
" />
<path d="M83.9320 48.6408
L83.8368 48.5932
" />
<path d="M83.8368 48.5932
L83.6463 48.5932
" />
<path d="M83.6463 48.5932
L83.5511 48.6408
" />
<path d="M83.0749 49.2598
L83.0749 48.5932
" />
<path d="M83.0749 48.2598
L83.1225 48.3074
" />
<path d="M83.1225 48.3074
L83.0749 48.3551
" />
<path d="M83.0749 48.3551
L83.0273 48.3074
" />
<path d="M83.0273 48.3074
L83.0749 48.2598
" />
<path d="M83.0749 48.2598
L83.0749 48.3551
" />
<path d="M82.7415 48.5932
L82.3606 48.5932
" />
<path d="M82.5987 48.2598
L82.5987 49.1170
" />
<path d="M82.5987 49.1170
L82.5511 49.2122
" />
<path d="M82.5511 49.2122
L82.4558 49.2598
" />
<path d="M82.4558 49.2598
L82.3606 49.2598
" />
<path d="M82.0273 49.2598
L82.0273 48.2598
" />
<path d="M81.5987 49.2598
L81.5987 48.7360
" />
<path d="M81.5987 48.7360
L81.6463 48.6408
" />
<path d="M81.6463 48.6408
L81.7415 48.5932
" />
<path d="M81.7415 48.5932
L81.8844 48.5932
" />
<path d="M81.8844 48.5932
L81.9796 48.6408
" />
<path d="M81.9796 48.6408
L82.0273 48.6884
" />
<path d="M80.6939 48.5932
L80.6939 49.2598
" />
<path d="M81.1225 48.5932
L81.1225 49.1170
" />
<path d="M81.1225 49.1170
L81.0749 49.2122
" />
<path d="M81.0749 49.2122
L80.9796 49.2598
" />
<path d="M80.9796 49.2598
L80.8368 49.2598
" />
<path d="M80.8368 49.2598
L80.7415 49.2122
" />
<path d="M80.7415 49.2122
L80.6939 49.1646
" />
<path d="M80.2177 49.2598
L80.2177 48.2598
" />
<path d="M80.2177 48.6408
L80.1225 48.5932
" />
<path d="M80.1225 48.5932
L79.9320 48.5932
" />
<path d="M79.9320 48.5932
L79.8368 48.6408
" />
<path d="M79.8368 48.6408
L79.7892 48.6884
" />
<path d="M79.7892 48.6884
L79.7415 48.7836
" />
<path d="M79.7415 48.7836
L79.7415 49.0693
" />
<path d="M79.7415 49.0693
L79.7892 49.1646
" />
<path d="M79.7892 49.1646
L79.8368 49.2122
" />
<path d="M79.8368 49.2122
L79.9320 49.2598
" />
<path d="M79.9320 49.2598
L80.1225 49.2598
" />
<path d="M80.1225 49.2598
L80.2177 49.2122
" />
<path d="M79.3130 49.1646
L79.2654 49.2122
" />
<path d="M79.2654 49.2122
L79.3130 49.2598
" />
<path d="M79.3130 49.2598
L79.3606 49.2122
" />
<path d="M79.3606 49.2122
L79.3130 49.1646
" />
<path d="M79.3130 49.1646
L79.3130 49.2598
" />
<path d="M78.4082 49.2122
L78.5034 49.2598
" />
<path d="M78.5034 49.2598
L78.6939 49.2598
" />
<path d="M78.6939 49.2598
L78.7892 49.2122
" />
<path d="M78.7892 49.2122
L78.8368 49.1646
" />
<path d="M78.8368 49.1646
L78.8844 49.0693
" />
<path d="M78.8844 49.0693
L78.8844 48.7836
" />
<path d="M78.8844 48.7836
L78.8368 48.6884
" />
<path d="M78.8368 48.6884
L78.7892 48.6408
" />
<path d="M78.7892 48.6408
L78.6939 48.5932
" />
<path d="M78.6939 48.5932
L78.5034 48.5932
" />
<path d="M78.5034 48.5932
L78.4082 48.6408
" />
<path d="M77.8368 49.2598
L77.9320 49.2122
" />
<path d="M77.9320 49.2122
L77.9796 49.1646
" />
<path d="M77.9796 49.1646
L78.0273 49.0693
" />
<path d="M78.0273 49.0693
L78.0273 48.7836
" />
<path d="M78.0273 48.7836
L77.9796 48.6884
" />
<path d="M77.9796 48.6884
L77.9320 48.6408
" />
<path d="M77.9320 48.6408
L77.8368 48.5932
" />
<path d="M77.8368 48.5932
L77.6939 48.5932
" />
<path d="M77.6939 48.5932
L77.5987 48.6408
" />
<path d="M77.5987 48.6408
L77.5511 48.6884
" />
<path d="M77.5511 48.6884
L77.5034 48.7836
" />
<path d="M77.5034 48.7836
L77.5034 49.0693
" />
<path d="M77.5034 49.0693
L77.5511 49.1646
" />
<path d="M77.5511 49.1646
L77.5987 49.2122
" />
<path d="M77.5987 49.2122
L77.6939 49.2598
" />
<path d="M77.6939 49.2598
L77.8368 49.2598
" />
<path d="M77.0749 49.2598
L77.0749 48.5932
" />
<path d="M77.0749 48.6884
L77.0273 48.6408
" />
<path d="M77.0273 48.6408
L76.9320 48.5932
" />
<path d="M76.9320 48.5932
L76.7892 48.5932
" />
<path d="M76.7892 48.5932
L76.6939 48.6408
" />
<path d="M76.6939 48.6408
L76.6463 48.7360
" />
<path d="M76.6463 48.7360
L76.6463 49.2598
" />
<path d="M76.6463 48.7360
L76.5987 48.6408
" />
<path d="M76.5987 48.6408
L76.5034 48.5932
" />
<path d="M76.5034 48.5932
L76.3606 48.5932
" />
<path d="M76.3606 48.5932
L76.2654 48.6408
" />
<path d="M76.2654 48.6408
L76.2177 48.7360
" />
<path d="M76.2177 48.7360
L76.2177 49.2598
" />
<path d="M75.0273 48.2122
L75.8844 49.4979
" />
<path d="M74.6939 48.5932
L74.6939 49.5932
" />
<path d="M74.6939 48.6408
L74.5987 48.5932
" />
<path d="M74.5987 48.5932
L74.4082 48.5932
" />
<path d="M74.4082 48.5932
L74.3130 48.6408
" />
<path d="M74.3130 48.6408
L74.2654 48.6884
" />
<path d="M74.2654 48.6884
L74.2177 48.7836
" />
<path d="M74.2177 48.7836
L74.2177 49.0693
" />
<path d="M74.2177 49.0693
L74.2654 49.1646
" />
<path d="M74.2654 49.1646
L74.3130 49.2122
" />
<path d="M74.3130 49.2122
L74.4082 49.2598
" />
<path d="M74.4082 49.2598
L74.5987 49.2598
" />
<path d="M74.5987 49.2598
L74.6939 49.2122
" />
<path d="M73.4082 49.2122
L73.5034 49.2598
" />
<path d="M73.5034 49.2598
L73.6939 49.2598
" />
<path d="M73.6939 49.2598
L73.7892 49.2122
" />
<path d="M73.7892 49.2122
L73.8368 49.1170
" />
<path d="M73.8368 49.1170
L73.8368 48.7360
" />
<path d="M73.8368 48.7360
L73.7892 48.6408
" />
<path d="M73.7892 48.6408
L73.6939 48.5932
" />
<path d="M73.6939 48.5932
L73.5034 48.5932
" />
<path d="M73.5034 48.5932
L73.4082 48.6408
" />
<path d="M73.4082 48.6408
L73.3606 48.7360
" />
<path d="M73.3606 48.7360
L73.3606 48.8312
" />
<path d="M73.3606 48.8312
L73.8368 48.9265
" />
<path d="M72.5034 49.2598
L72.5034 48.2598
" />
<path d="M72.5034 49.2122
L72.5987 49.2598
" />
<path d="M72.5987 49.2598
L72.7892 49.2598
" />
<path d="M72.7892 49.2598
L72.8844 49.2122
" />
<path d="M72.8844 49.2122
L72.9320 49.1646
" />
<path d="M72.9320 49.1646
L72.9796 49.0693
" />
<path d="M72.9796 49.0693
L72.9796 48.7836
" />
<path d="M72.9796 48.7836
L72.9320 48.6884
" />
<path d="M72.9320 48.6884
L72.8844 48.6408
" />
<path d="M72.8844 48.6408
L72.7892 48.5932
" />
<path d="M72.7892 48.5932
L72.5987 48.5932
" />
<path d="M72.5987 48.5932
L72.5034 48.6408
" />
<path d="M71.5987 49.2598
L71.5987 48.7360
" />
<path d="M71.5987 48.7360
L71.6463 48.6408
" />
<path d="M71.6463 48.6408
L71.7415 48.5932
" />
<path d="M71.7415 48.5932
L71.9320 48.5932
" />
<path d="M71.9320 48.5932
L72.0273 48.6408
" />
<path d="M71.5987 49.2122
L71.6939 49.2598
" />
<path d="M71.6939 49.2598
L71.9320 49.2598
" />
<path d="M71.9320 49.2598
L72.0273 49.2122
" />
<path d="M72.0273 49.2122
L72.0749 49.1170
" />
<path d="M72.0749 49.1170
L72.0749 49.0217
" />
<path d="M72.0749 49.0217
L72.0273 48.9265
" />
<path d="M72.0273 48.9265
L71.9320 48.8789
" />
<path d="M71.9320 48.8789
L71.6939 48.8789
" />
<path d="M71.6939 48.8789
L71.5987 48.8312
" />
<path d="M70.9796 49.2598
L71.0749 49.2122
" />
<path d="M71.0749 49.2122
L71.1225 49.1170
" />
<path d="M71.1225 49.1170
L71.1225 48.2598
" />
<path d="M70.5987 49.2598
L70.5987 48.2598
" />
<path d="M70.5987 48.6408
L70.5034 48.5932
" />
<path d="M70.5034 48.5932
L70.3130 48.5932
" />
<path d="M70.3130 48.5932
L70.2177 48.6408
" />
<path d="M70.2177 48.6408
L70.1701 48.6884
" />
<path d="M70.1701 48.6884
L70.1225 48.7836
" />
<path d="M70.1225 48.7836
L70.1225 49.0693
" />
<path d="M70.1225 49.0693
L70.1701 49.1646
" />
<path d="M70.1701 49.1646
L70.2177 49.2122
" />
<path d="M70.2177 49.2122
L70.3130 49.2598
" />
<path d="M70.3130 49.2598
L70.5034 49.2598
" />
<path d="M70.5034 49.2598
L70.5987 49.2122
" />
<path d="M69.5511 49.2598
L69.6463 49.2122
" />
<path d="M69.6463 49.2122
L69.6939 49.1646
" />
<path d="M69.6939 49.1646
L69.7415 49.0693
" />
<path d="M69.7415 49.0693
L69.7415 48.7836
" />
<path d="M69.7415 48.7836
L69.6939 48.6884
" />
<path d="M69.6939 48.6884
L69.6463 48.6408
" />
<path d="M69.6463 48.6408
L69.5511 48.5932
" />
<path d="M69.5511 48.5932
L69.4082 48.5932
" />
<path d="M69.4082 48.5932
L69.3130 48.6408
" />
<path d="M69.3130 48.6408
L69.2654 48.6884
" />
<path d="M69.2654 48.6884
L69.2177 48.7836
" />
<path d="M69.2177 48.7836
L69.2177 49.0693
" />
<path d="M69.2177 49.0693
L69.2654 49.1646
" />
<path d="M69.2654 49.1646
L69.3130 49.2122
" />
<path d="M69.3130 49.2122
L69.4082 49.2598
" />
<path d="M69.4082 49.2598
L69.5511 49.2598
" />
<path d="M68.3606 49.2598
L68.3606 48.7360
" />
<path d="M68.3606 48.7360
L68.4082 48.6408
" />
<path d="M68.4082 48.6408
L68.5034 48.5932
" />
<path d="M68.5034 48.5932
L68.6939 48.5932
" />
<path d="M68.6939 48.5932
L68.7892 48.6408
" />
<path d="M68.3606 49.2122
L68.4558 49.2598
" />
<path d="M68.4558 49.2598
L68.6939 49.2598
" />
<path d="M68.6939 49.2598
L68.7892 49.2122
" />
<path d="M68.7892 49.2122
L68.8368 49.1170
" />
<path d="M68.8368 49.1170
L68.8368 49.0217
" />
<path d="M68.8368 49.0217
L68.7892 48.9265
" />
<path d="M68.7892 48.9265
L68.6939 48.8789
" />
<path d="M68.6939 48.8789
L68.4558 48.8789
" />
<path d="M68.4558 48.8789
L68.3606 48.8312
" />
<path d="M67.8844 49.2598
L67.8844 48.5932
" />
<path d="M67.8844 48.7836
L67.8368 48.6884
" />
<path d="M67.8368 48.6884
L67.7892 48.6408
" />
<path d="M67.7892 48.6408
L67.6939 48.5932
" />
<path d="M67.6939 48.5932
L67.5987 48.5932
" />
<path d="M66.8368 49.2598
L66.8368 48.2598
" />
<path d="M66.8368 49.2122
L66.9320 49.2598
" />
<path d="M66.9320 49.2598
L67.1225 49.2598
" />
<path d="M67.1225 49.2598
L67.2177 49.2122
" />
<path d="M67.2177 49.2122
L67.2653 49.1646
" />
<path d="M67.2653 49.1646
L67.3130 49.0693
" />
<path d="M67.3130 49.0693
L67.3130 48.7836
" />
<path d="M67.3130 48.7836
L67.2653 48.6884
" />
<path d="M67.2653 48.6884
L67.2177 48.6408
" />
<path d="M67.2177 48.6408
L67.1225 48.5932
" />
<path d="M67.1225 48.5932
L66.9320 48.5932
" />
<path d="M66.9320 48.5932
L66.8368 48.6408
" />
</g><text x="66.5000" y="51.0000"
transform="scale(-1 1) translate(-133.000000 0)"
textLength="8.2226" font-size="1.3333" lengthAdjust="spacingAndGlyphs"
text-anchor="end" opacity="0">BCB: 1.0.0</text>
<g class="stroked-text"><desc>BCB: 1.0.0</desc>
<path d="M74.0749 50.3460
L73.9320 50.3936
" />
<path d="M73.9320 50.3936
L73.8844 50.4412
" />
<path d="M73.8844 50.4412
L73.8368 50.5365
" />
<path d="M73.8368 50.5365
L73.8368 50.6793
" />
<path d="M73.8368 50.6793
L73.8844 50.7746
" />
<path d="M73.8844 50.7746
L73.9320 50.8222
" />
<path d="M73.9320 50.8222
L74.0273 50.8698
" />
<path d="M74.0273 50.8698
L74.4082 50.8698
" />
<path d="M74.4082 50.8698
L74.4082 49.8698
" />
<path d="M74.4082 49.8698
L74.0749 49.8698
" />
<path d="M74.0749 49.8698
L73.9796 49.9174
" />
<path d="M73.9796 49.9174
L73.9320 49.9651
" />
<path d="M73.9320 49.9651
L73.8844 50.0603
" />
<path d="M73.8844 50.0603
L73.8844 50.1555
" />
<path d="M73.8844 50.1555
L73.9320 50.2508
" />
<path d="M73.9320 50.2508
L73.9796 50.2984
" />
<path d="M73.9796 50.2984
L74.0749 50.3460
" />
<path d="M74.0749 50.3460
L74.4082 50.3460
" />
<path d="M72.8368 50.7746
L72.8844 50.8222
" />
<path d="M72.8844 50.8222
L73.0273 50.8698
" />
<path d="M73.0273 50.8698
L73.1225 50.8698
" />
<path d="M73.1225 50.8698
L73.2653 50.8222
" />
<path d="M73.2653 50.8222
L73.3606 50.7270
" />
<path d="M73.3606 50.7270
L73.4082 50.6317
" />
<path d="M73.4082 50.6317
L73.4558 50.4412
" />
<path d="M73.4558 50.4412
L73.4558 50.2984
" />
<path d="M73.4558 50.2984
L73.4082 50.1079
" />
<path d="M73.4082 50.1079
L73.3606 50.0127
" />
<path d="M73.3606 50.0127
L73.2653 49.9174
" />
<path d="M73.2653 49.9174
L73.1225 49.8698
" />
<path d="M73.1225 49.8698
L73.0273 49.8698
" />
<path d="M73.0273 49.8698
L72.8844 49.9174
" />
<path d="M72.8844 49.9174
L72.8368 49.9651
" />
<path d="M72.0749 50.3460
L71.9320 50.3936
" />
<path d="M71.9320 50.3936
L71.8844 50.4412
" />
<path d="M71.8844 50.4412
L71.8368 50.5365
" />
<path d="M71.8368 50.5365
L71.8368 50.6793
" />
<path d="M71.8368 50.6793
L71.8844 50.7746
" />
<path d="M71.8844 50.7746
L71.9320 50.8222
" />
<path d="M71.9320 50.8222
L72.0273 50.8698
" />
<path d="M72.0273 50.8698
L72.4082 50.8698
" />
<path d="M72.4082 50.8698
L72.4082 49.8698
" />
<path d="M72.4082 49.8698
L72.0749 49.8698
" />
<path d="M72.0749 49.8698
L71.9796 49.9174
" />
<path d="M71.9796 49.9174
L71.9320 49.9651
" />
<path d="M71.9320 49.9651
L71.8844 50.0603
" />
<path d="M71.8844 50.0603
L71.8844 50.1555
" />
<path d="M71.8844 50.1555
L71.9320 50.2508
" />
<path d="M71.9320 50.2508
L71.9796 50.2984
" />
<path d="M71.9796 50.2984
L72.0749 50.3460
" />
<path d="M72.0749 50.3460
L72.4082 50.3460
" />
<path d="M71.4082 50.7746
L71.3606 50.8222
" />
<path d="M71.3606 50.8222
L71.4082 50.8698
" />
<path d="M71.4082 50.8698
L71.4558 50.8222
" />
<path d="M71.4558 50.8222
L71.4082 50.7746
" />
<path d="M71.4082 50.7746
L71.4082 50.8698
" />
<path d="M71.4082 50.2508
L71.3606 50.2984
" />
<path d="M71.3606 50.2984
L71.4082 50.3460
" />
<path d="M71.4082 50.3460
L71.4558 50.2984
" />
<path d="M71.4558 50.2984
L71.4082 50.2508
" />
<path d="M71.4082 50.2508
L71.4082 50.3460
" />
<path d="M69.6463 50.8698
L70.2177 50.8698
" />
<path d="M69.9320 50.8698
L69.9320 49.8698
" />
<path d="M69.9320 49.8698
L70.0273 50.0127
" />
<path d="M70.0273 50.0127
L70.1225 50.1079
" />
<path d="M70.1225 50.1079
L70.2177 50.1555
" />
<path d="M69.2177 50.7746
L69.1701 50.8222
" />
<path d="M69.1701 50.8222
L69.2177 50.8698
" />
<path d="M69.2177 50.8698
L69.2653 50.8222
" />
<path d="M69.2653 50.8222
L69.2177 50.7746
" />
<path d="M69.2177 50.7746
L69.2177 50.8698
" />
<path d="M68.5511 49.8698
L68.4558 49.8698
" />
<path d="M68.4558 49.8698
L68.3606 49.9174
" />
<path d="M68.3606 49.9174
L68.3130 49.9651
" />
<path d="M68.3130 49.9651
L68.2653 50.0603
" />
<path d="M68.2653 50.0603
L68.2177 50.2508
" />
<path d="M68.2177 50.2508
L68.2177 50.4889
" />
<path d="M68.2177 50.4889
L68.2653 50.6793
" />
<path d="M68.2653 50.6793
L68.3130 50.7746
" />
<path d="M68.3130 50.7746
L68.3606 50.8222
" />
<path d="M68.3606 50.8222
L68.4558 50.8698
" />
<path d="M68.4558 50.8698
L68.5511 50.8698
" />
<path d="M68.5511 50.8698
L68.6463 50.8222
" />
<path d="M68.6463 50.8222
L68.6939 50.7746
" />
<path d="M68.6939 50.7746
L68.7415 50.6793
" />
<path d="M68.7415 50.6793
L68.7892 50.4889
" />
<path d="M68.7892 50.4889
L68.7892 50.2508
" />
<path d="M68.7892 50.2508
L68.7415 50.0603
" />
<path d="M68.7415 50.0603
L68.6939 49.9651
" />
<path d="M68.6939 49.9651
L68.6463 49.9174
" />
<path d="M68.6463 49.9174
L68.5511 49.8698
" />
<path d="M67.7892 50.7746
L67.7415 50.8222
" />
<path d="M67.7415 50.8222
L67.7892 50.8698
" />
<path d="M67.7892 50.8698
L67.8368 50.8222
" />
<path d="M67.8368 50.8222
L67.7892 50.7746
" />
<path d="M67.7892 50.7746
L67.7892 50.8698
" />
<path d="M67.1225 49.8698
L67.0273 49.8698
" />
<path d="M67.0273 49.8698
L66.9320 49.9174
" />
<path d="M66.9320 49.9174
L66.8844 49.9651
" />
<path d="M66.8844 49.9651
L66.8368 50.0603
" />
<path d="M66.8368 50.0603
L66.7892 50.2508
" />
<path d="M66.7892 50.2508
L66.7892 50.4889
" />
<path d="M66.7892 50.4889
L66.8368 50.6793
" />
<path d="M66.8368 50.6793
L66.8844 50.7746
" />
<path d="M66.8844 50.7746
L66.9320 50.8222
" />
<path d="M66.9320 50.8222
L67.0273 50.8698
" />
<path d="M67.0273 50.8698
L67.1225 50.8698
" />
<path d="M67.1225 50.8698
L67.2177 50.8222
" />
<path d="M67.2177 50.8222
L67.2653 50.7746
" />
<path d="M67.2653 50.7746
L67.3130 50.6793
" />
<path d="M67.3130 50.6793
L67.3606 50.4889
" />
<path d="M67.3606 50.4889
L67.3606 50.2508
" />
<path d="M67.3606 50.2508
L67.3130 50.0603
" />
<path d="M67.3130 50.0603
L67.2653 49.9651
" />
<path d="M67.2653 49.9651
L67.2177 49.9174
" />
<path d="M67.2177 49.9174
L67.1225 49.8698
" />
</g><g transform="rotate(-90.000000 92.8000 54.0000)">
<text x="92.8000" y="54.5000"
transform="scale(-1 1) translate(-185.600000 0)"
textLength="1.8893" font-size="1.3333" lengthAdjust="spacingAndGlyphs"
text-anchor="middle" opacity="0">J1</text>
</g>
<g class="stroked-text"><desc>J1</desc>
<path d="M92.2548 53.6667
L92.9691 53.6667
" />
<path d="M92.9691 53.6667
L93.1120 53.6190
" />
<path d="M93.1120 53.6190
L93.2072 53.5238
" />
<path d="M93.2072 53.5238
L93.2548 53.3810
" />
<path d="M93.2548 53.3810
L93.2548 53.2857
" />
<path d="M93.2548 54.6667
L93.2548 54.0952
" />
<path d="M93.2548 54.3810
L92.2548 54.3810
" />
<path d="M92.2548 54.3810
L92.3977 54.2857
" />
<path d="M92.3977 54.2857
L92.4929 54.1905
" />
<path d="M92.4929 54.1905
L92.5405 54.0952
" />
</g></g>
<g style="fill:#000000; fill-opacity:0.0; 
stroke:#000000; stroke-width:0.1200; stroke-opacity:1; 
stroke-linecap:round; stroke-linejoin:round;">
<path d="M88.9400 62.0600
L88.9400 57.9400
" />
<path d="M89.2400 62.0600
L88.9400 62.0600
" />
<path d="M91.2400 62.0600
L90.7600 62.0600
" />
<path d="M93.0600 62.0600
L92.7600 62.0600
" />
<path d="M93.0600 62.0600
L93.0600 57.9400
" />
<path d="M89.2400 57.9400
L88.9400 57.9400
" />
<path d="M91.2400 57.9400
L90.7600 57.9400
" />
<path d="M92.7600 57.9400
L92.7600 55.5600
" />
<path d="M93.0600 57.9400
L92.7600 57.9400
" />
<g >
</g>
<g >
</g>
<g >
</g>
<g >
</g>
<g >
</g>
<g >
</g>
<g >
</g>
<g >
</g>
<g >
</g>
<g >
</g>
<g >
</g>
<g >
</g>
<g >
</g>
<g >
</g>
<g >
</g>
<g >
</g>
<g >
</g>
<g >
</g>
<g >
</g>
<g >
</g>
<g >
</g>
<g >
</g>
<g >
</g>
<g >
</g>
<g >
</g>
<g >
</g>
<g >
</g>
<g >
</g>
</g>
<g style="fill:#FFFFFF; fill-opacity:0.0; 
stroke:#FFFFFF; stroke-width:0.1200; stroke-opacity:1; 
stroke-linecap:round; stroke-linejoin:round;">
</g>
<g style="fill:#FFFFFF; fill-opacity:1.0000; 
stroke:#FFFFFF; stroke-width:0.0000; stroke-opacity:1; 
stroke-linecap:round; stroke-linejoin:round;">
<circle cx="89.5000" cy="61.1000" r="0.2000" /> 
</g>
<g style="fill:#FFFFFF; fill-opacity:1.0000; 
stroke:#FFFFFF; stroke-width:0.0212; stroke-opacity:1; 
stroke-linecap:round; stroke-linejoin:round;">
</g>
<g style="fill:#FFFFFF; fill-opacity:1.0000; 
stroke:#FFFFFF; stroke-width:0.0000; stroke-opacity:1; 
stroke-linecap:round; stroke-linejoin:round;">
<circle cx="88.1000" cy="63.1000" r="0.2000" /> 
</g>
<g style="fill:#FFFFFF; fill-opacity:1.0000; 
stroke:#FFFFFF; stroke-width:0.0212; stroke-opacity:1; 
stroke-linecap:round; stroke-linejoin:round;">
</g>
<g style="fill:#FFFFFF; fill-opacity:1.0000; 
stroke:#FFFFFF; stroke-width:0.0000; stroke-opacity:1; 
stroke-linecap:round; stroke-linejoin:round;">
<circle cx="89.7263" cy="65.1536" r="0.2000" /> 
</g>
<g style="fill:#FFFFFF; fill-opacity:1.0000; 
stroke:#FFFFFF; stroke-width:0.0212; stroke-opacity:1; 
stroke-linecap:round; stroke-linejoin:round;">
</g>
<g style="fill:#FFFFFF; fill-opacity:1.0000; 
stroke:#FFFFFF; stroke-width:0.0000; stroke-opacity:1; 
stroke-linecap:round; stroke-linejoin:round;">
<circle cx="69.0000" cy="60.4000" r="0.2000" /> 
</g>
<g style="fill:#FFFFFF; fill-opacity:1.0000; 
stroke:#FFFFFF; stroke-width:0.0212; stroke-opacity:1; 
stroke-linecap:round; stroke-linejoin:round;">
</g>
<g style="fill:#FFFFFF; fill-opacity:1.0000; 
stroke:#FFFFFF; stroke-width:0.0000; stroke-opacity:1; 
stroke-linecap:round; stroke-linejoin:round;">
<circle cx="80.4000" cy="71.0000" r="0.2000" /> 
</g>
<g style="fill:#FFFFFF; fill-opacity:1.0000; 
stroke:#FFFFFF; stroke-width:0.0212; stroke-opacity:1; 
stroke-linecap:round; stroke-linejoin:round;">
</g>
<g style="fill:#FFFFFF; fill-opacity:1.0000; 
stroke:#FFFFFF; stroke-width:0.0000; stroke-opacity:1; 
stroke-linecap:round; stroke-linejoin:round;">
<circle cx="85.1536" cy="50.2737" r="0.2000" /> 
</g>
<g style="fill:#FFFFFF; fill-opacity:1.0000; 
stroke:#FFFFFF; stroke-width:0.0212; stroke-opacity:1; 
stroke-linecap:round; stroke-linejoin:round;">
</g>
<g style="fill:#FFFFFF; fill-opacity:1.0000; 
stroke:#FFFFFF; stroke-width:0.0000; stroke-opacity:1; 
stroke-linecap:round; stroke-linejoin:round;">
<circle cx="74.1536" cy="50.6737" r="0.2000" /> 
</g>
<g style="fill:#FFFFFF; fill-opacity:1.0000; 
stroke:#FFFFFF; stroke-width:0.0212; stroke-opacity:1; 
stroke-linecap:round; stroke-linejoin:round;">
</g>
<g style="fill:#FFFFFF; fill-opacity:1.0000; 
stroke:#FFFFFF; stroke-width:0.0000; stroke-opacity:1; 
stroke-linecap:round; stroke-linejoin:round;">
<circle cx="79.6000" cy="49.0000" r="0.2000" /> 
</g>
<g style="fill:#FFFFFF; fill-opacity:1.0000; 
stroke:#FFFFFF; stroke-width:0.0212; stroke-opacity:1; 
stroke-linecap:round; stroke-linejoin:round;">
</g>
<g style="fill:#FFFFFF; fill-opacity:1.0000; 
stroke:#FFFFFF; stroke-width:0.0000; stroke-opacity:1; 
stroke-linecap:round; stroke-linejoin:round;">
<circle cx="70.2737" cy="54.8464" r="0.2000" /> 
</g>
<g style="fill:#FFFFFF; fill-opacity:1.0000; 
stroke:#FFFFFF; stroke-width:0.0212; stroke-opacity:1; 
stroke-linecap:round; stroke-linejoin:round;">
</g>
<g style="fill:#FFFFFF; fill-opacity:1.0000; 
stroke:#FFFFFF; stroke-width:0.0000; stroke-opacity:1; 
stroke-linecap:round; stroke-linejoin:round;">
<circle cx="89.3263" cy="54.1536" r="0.2000" /> 
</g>
<g style="fill:#FFFFFF; fill-opacity:1.0000; 
stroke:#FFFFFF; stroke-width:0.0212; stroke-opacity:1; 
stroke-linecap:round; stroke-linejoin:round;">
</g>
<g style="fill:#FFFFFF; fill-opacity:1.0000; 
stroke:#FFFFFF; stroke-width:0.0000; stroke-opacity:1; 
stroke-linecap:round; stroke-linejoin:round;">
<circle cx="85.8464" cy="69.3263" r="0.2000" /> 
</g>
<g style="fill:#FFFFFF; fill-opacity:1.0000; 
stroke:#FFFFFF; stroke-width:0.0212; stroke-opacity:1; 
stroke-linecap:round; stroke-linejoin:round;">
</g>
<g style="fill:#FFFFFF; fill-opacity:1.0000; 
stroke:#FFFFFF; stroke-width:0.0000; stroke-opacity:1; 
stroke-linecap:round; stroke-linejoin:round;">
<circle cx="74.8464" cy="69.7263" r="0.2000" /> 
</g>
<g style="fill:#FFFFFF; fill-opacity:1.0000; 
stroke:#FFFFFF; stroke-width:0.0212; stroke-opacity:1; 
stroke-linecap:round; stroke-linejoin:round;">
</g>
<g style="fill:#FFFFFF; fill-opacity:1.0000; 
stroke:#FFFFFF; stroke-width:0.0000; stroke-opacity:1; 
stroke-linecap:round; stroke-linejoin:round;">
<circle cx="91.0000" cy="59.6000" r="0.2000" /> 
</g>
<g style="fill:#FFFFFF; fill-opacity:1.0000; 
stroke:#FFFFFF; stroke-width:0.0212; stroke-opacity:1; 
stroke-linecap:round; stroke-linejoin:round;">
</g>
<g style="fill:#FFFFFF; fill-opacity:1.0000; 
stroke:#FFFFFF; stroke-width:0.0000; stroke-opacity:1; 
stroke-linecap:round; stroke-linejoin:round;">
<circle cx="70.6737" cy="65.8464" r="0.2000" /> 
</g>
<g style="fill:#FFFFFF; fill-opacity:1.0000; 
stroke:#FFFFFF; stroke-width:0.0212; stroke-opacity:1; 
stroke-linecap:round; stroke-linejoin:round;">
</g>
<g style="fill:#FFFFFF; fill-opacity:1.0000; 
stroke:#FFFFFF; stroke-width:0.0000; stroke-opacity:1; 
stroke-linecap:round; stroke-linejoin:round;">
<circle cx="92.0000" cy="65.0000" r="0.2000" /> 
</g>
<g style="fill:#FFFFFF; fill-opacity:1.0000; 
stroke:#FFFFFF; stroke-width:0.0212; stroke-opacity:1; 
stroke-linecap:round; stroke-linejoin:round;">
</g>
<g style="fill:#FFFFFF; fill-opacity:1.0000; 
stroke:#FFFFFF; stroke-width:0.0000; stroke-opacity:1; 
stroke-linecap:round; stroke-linejoin:round;">
<circle cx="93.0000" cy="61.2000" r="0.2000" /> 
</g>
<g style="fill:#FFFFFF; fill-opacity:1.0000; 
stroke:#FFFFFF; stroke-width:0.0212; stroke-opacity:1; 
stroke-linecap:round; stroke-linejoin:round;">
</g>
<g style="fill:#FFFFFF; fill-opacity:1.0000; 
stroke:#FFFFFF; stroke-width:0.0000; stroke-opacity:1; 
stroke-linecap:round; stroke-linejoin:round;">
<circle cx="93.0000" cy="62.6000" r="0.2000" /> 
</g>
<g style="fill:#FFFFFF; fill-opacity:1.0000; 
stroke:#FFFFFF; stroke-width:0.0212; stroke-opacity:1; 
stroke-linecap:round; stroke-linejoin:round;">
</g>
<g style="fill:#FFFFFF; fill-opacity:1.0000; 
stroke:#FFFFFF; stroke-width:0.0000; stroke-opacity:1; 
stroke-linecap:round; stroke-linejoin:round;">
<circle cx="93.0000" cy="65.0000" r="0.2000" /> 
</g>
<g style="fill:#FFFFFF; fill-opacity:1.0000; 
stroke:#FFFFFF; stroke-width:0.0212; stroke-opacity:1; 
stroke-linecap:round; stroke-linejoin:round;">
</g>
<g style="fill:#FFFFFF; fill-opacity:1.0000; 
stroke:#FFFFFF; stroke-width:0.0000; stroke-opacity:1; 
stroke-linecap:round; stroke-linejoin:round;">
<circle cx="93.0000" cy="63.8000" r="0.2000" /> 
</g>
<g style="fill:#FFFFFF; fill-opacity:1.0000; 
stroke:#FFFFFF; stroke-width:0.0212; stroke-opacity:1; 
stroke-linecap:round; stroke-linejoin:round;">
</g>
<g style="fill:#FFFFFF; fill-opacity:1.0000; 
stroke:#FFFFFF; stroke-width:0.0000; stroke-opacity:1; 
stroke-linecap:round; stroke-linejoin:round;">
<circle cx="92.0000" cy="61.2000" r="0.2000" /> 
</g>
<g style="fill:#FFFFFF; fill-opacity:1.0000; 
stroke:#FFFFFF; stroke-width:0.0212; stroke-opacity:1; 
stroke-linecap:round; stroke-linejoin:round;">
</g>
<g style="fill:#000000; fill-opacity:1.0000; 
stroke:#000000; stroke-width:0.0212; stroke-opacity:1; 
stroke-linecap:round; stroke-linejoin:round;">
</g> 
</svg>
