<?xml version="1.0" standalone="no"?>
 <!DOCTYPE svg PUBLIC "-//W3C//DTD SVG 1.1//EN" 
 "http://www.w3.org/Graphics/SVG/1.1/DTD/svg11.dtd"> 
<svg
  xmlns:svg="http://www.w3.org/2000/svg"
  xmlns="http://www.w3.org/2000/svg"
  xmlns:xlink="http://www.w3.org/1999/xlink"
  version="1.1"
  width="297.0022mm" height="210.0072mm" viewBox="0.0000 0.0000 297.0022 210.0072">
<title>SVG Image created as pedalboard-led-ring-B_Silkscreen.svg date 2023/06/03 11:46:50 </title>
  <desc>Image generated by PCBNEW </desc>
<g style="fill:#000000; fill-opacity:1.0000;stroke:#000000; stroke-opacity:1.0000;
stroke-linecap:round; stroke-linejoin:round;"
 transform="translate(0 0) scale(1 1)">
</g>
<g style="fill:#000000; fill-opacity:0.0; 
stroke:#000000; stroke-width:0.0000; stroke-opacity:1; 
stroke-linecap:round; stroke-linejoin:round;">
</g>
<g style="fill:#000000; fill-opacity:0.0; 
stroke:#000000; stroke-width:0.1000; stroke-opacity:1; 
stroke-linecap:round; stroke-linejoin:round;">
<circle cx="80.0000" cy="60.0000" r="7.0500" /> 
</g>
<g style="fill:#000000; fill-opacity:0.0; 
stroke:#000000; stroke-width:0.1500; stroke-opacity:1; 
stroke-linecap:round; stroke-linejoin:round;">
<g transform="rotate(-90.000000 89.5000 53.5000)">
<text x="89.5000" y="53.5000"
transform="scale(-1 1) translate(-179.000000 0)"
textLength="1.3321" font-size="1.0000" lengthAdjust="spacingAndGlyphs"
text-anchor="start" opacity="0">DI</text>
</g>
<g class="stroked-text"><desc>DI</desc>
<path d="M89.4004 53.7773
L88.6504 53.7773
" />
<path d="M88.6504 53.7773
L88.6504 53.9558
" />
<path d="M88.6504 53.9558
L88.6861 54.0630
" />
<path d="M88.6861 54.0630
L88.7576 54.1344
" />
<path d="M88.7576 54.1344
L88.8290 54.1701
" />
<path d="M88.8290 54.1701
L88.9718 54.2058
" />
<path d="M88.9718 54.2058
L89.0790 54.2058
" />
<path d="M89.0790 54.2058
L89.2218 54.1701
" />
<path d="M89.2218 54.1701
L89.2933 54.1344
" />
<path d="M89.2933 54.1344
L89.3647 54.0630
" />
<path d="M89.3647 54.0630
L89.4004 53.9558
" />
<path d="M89.4004 53.9558
L89.4004 53.7773
" />
<path d="M89.4004 54.5273
L88.6504 54.5273
" />
</g><g transform="rotate(-90.000000 90.0000 65.5000)">
<text x="90.0000" y="65.5000"
transform="scale(-1 1) translate(-180.000000 0)"
textLength="1.6893" font-size="1.0000" lengthAdjust="spacingAndGlyphs"
text-anchor="start" opacity="0">D0</text>
</g>
<g class="stroked-text"><desc>D0</desc>
<path d="M89.9004 65.7773
L89.1504 65.7773
" />
<path d="M89.1504 65.7773
L89.1504 65.9558
" />
<path d="M89.1504 65.9558
L89.1861 66.0630
" />
<path d="M89.1861 66.0630
L89.2576 66.1344
" />
<path d="M89.2576 66.1344
L89.3290 66.1701
" />
<path d="M89.3290 66.1701
L89.4718 66.2058
" />
<path d="M89.4718 66.2058
L89.5790 66.2058
" />
<path d="M89.5790 66.2058
L89.7218 66.1701
" />
<path d="M89.7218 66.1701
L89.7933 66.1344
" />
<path d="M89.7933 66.1344
L89.8647 66.0630
" />
<path d="M89.8647 66.0630
L89.9004 65.9558
" />
<path d="M89.9004 65.9558
L89.9004 65.7773
" />
<path d="M89.1504 66.6701
L89.1504 66.7415
" />
<path d="M89.1504 66.7415
L89.1861 66.8130
" />
<path d="M89.1861 66.8130
L89.2218 66.8487
" />
<path d="M89.2218 66.8487
L89.2933 66.8844
" />
<path d="M89.2933 66.8844
L89.4361 66.9201
" />
<path d="M89.4361 66.9201
L89.6147 66.9201
" />
<path d="M89.6147 66.9201
L89.7576 66.8844
" />
<path d="M89.7576 66.8844
L89.8290 66.8487
" />
<path d="M89.8290 66.8487
L89.8647 66.8130
" />
<path d="M89.8647 66.8130
L89.9004 66.7415
" />
<path d="M89.9004 66.7415
L89.9004 66.6701
" />
<path d="M89.9004 66.6701
L89.8647 66.5987
" />
<path d="M89.8647 66.5987
L89.8290 66.5630
" />
<path d="M89.8290 66.5630
L89.7576 66.5273
" />
<path d="M89.7576 66.5273
L89.6147 66.4915
" />
<path d="M89.6147 66.4915
L89.4361 66.4915
" />
<path d="M89.4361 66.4915
L89.2933 66.5273
" />
<path d="M89.2933 66.5273
L89.2218 66.5630
" />
<path d="M89.2218 66.5630
L89.1861 66.5987
" />
<path d="M89.1861 66.5987
L89.1504 66.6701
" />
</g><text x="94.5000" y="73.0000"
transform="scale(-1 1) translate(-189.000000 0)"
textLength="2.3679" font-size="1.0000" lengthAdjust="spacingAndGlyphs"
text-anchor="start" opacity="0">VCC</text>
<g class="stroked-text"><desc>VCC</desc>
<path d="M94.3299 72.1504
L94.0799 72.9004
" />
<path d="M94.0799 72.9004
L93.8299 72.1504
" />
<path d="M93.1513 72.8290
L93.1870 72.8647
" />
<path d="M93.1870 72.8647
L93.2942 72.9004
" />
<path d="M93.2942 72.9004
L93.3656 72.9004
" />
<path d="M93.3656 72.9004
L93.4727 72.8647
" />
<path d="M93.4727 72.8647
L93.5442 72.7933
" />
<path d="M93.5442 72.7933
L93.5799 72.7218
" />
<path d="M93.5799 72.7218
L93.6156 72.5790
" />
<path d="M93.6156 72.5790
L93.6156 72.4718
" />
<path d="M93.6156 72.4718
L93.5799 72.3290
" />
<path d="M93.5799 72.3290
L93.5442 72.2576
" />
<path d="M93.5442 72.2576
L93.4727 72.1861
" />
<path d="M93.4727 72.1861
L93.3656 72.1504
" />
<path d="M93.3656 72.1504
L93.2942 72.1504
" />
<path d="M93.2942 72.1504
L93.1870 72.1861
" />
<path d="M93.1870 72.1861
L93.1513 72.2218
" />
<path d="M92.4013 72.8290
L92.4370 72.8647
" />
<path d="M92.4370 72.8647
L92.5442 72.9004
" />
<path d="M92.5442 72.9004
L92.6156 72.9004
" />
<path d="M92.6156 72.9004
L92.7227 72.8647
" />
<path d="M92.7227 72.8647
L92.7942 72.7933
" />
<path d="M92.7942 72.7933
L92.8299 72.7218
" />
<path d="M92.8299 72.7218
L92.8656 72.5790
" />
<path d="M92.8656 72.5790
L92.8656 72.4718
" />
<path d="M92.8656 72.4718
L92.8299 72.3290
" />
<path d="M92.8299 72.3290
L92.7942 72.2576
" />
<path d="M92.7942 72.2576
L92.7227 72.1861
" />
<path d="M92.7227 72.1861
L92.6156 72.1504
" />
<path d="M92.6156 72.1504
L92.5442 72.1504
" />
<path d="M92.5442 72.1504
L92.4370 72.1861
" />
<path d="M92.4370 72.1861
L92.4013 72.2218
" />
</g><g transform="rotate(-90.000000 91.5000 65.0000)">
<text x="91.5000" y="65.0000"
transform="scale(-1 1) translate(-183.000000 0)"
textLength="2.5107" font-size="1.0000" lengthAdjust="spacingAndGlyphs"
text-anchor="start" opacity="0">GND</text>
</g>
<g class="stroked-text"><desc>GND</desc>
<path d="M90.6861 65.6701
L90.6504 65.5987
" />
<path d="M90.6504 65.5987
L90.6504 65.4915
" />
<path d="M90.6504 65.4915
L90.6861 65.3844
" />
<path d="M90.6861 65.3844
L90.7576 65.3130
" />
<path d="M90.7576 65.3130
L90.8290 65.2773
" />
<path d="M90.8290 65.2773
L90.9718 65.2415
" />
<path d="M90.9718 65.2415
L91.0790 65.2415
" />
<path d="M91.0790 65.2415
L91.2218 65.2773
" />
<path d="M91.2218 65.2773
L91.2933 65.3130
" />
<path d="M91.2933 65.3130
L91.3647 65.3844
" />
<path d="M91.3647 65.3844
L91.4004 65.4915
" />
<path d="M91.4004 65.4915
L91.4004 65.5630
" />
<path d="M91.4004 65.5630
L91.3647 65.6701
" />
<path d="M91.3647 65.6701
L91.3290 65.7058
" />
<path d="M91.3290 65.7058
L91.0790 65.7058
" />
<path d="M91.0790 65.7058
L91.0790 65.5630
" />
<path d="M91.4004 66.0273
L90.6504 66.0273
" />
<path d="M90.6504 66.0273
L91.4004 66.4558
" />
<path d="M91.4004 66.4558
L90.6504 66.4558
" />
<path d="M91.4004 66.8130
L90.6504 66.8130
" />
<path d="M90.6504 66.8130
L90.6504 66.9915
" />
<path d="M90.6504 66.9915
L90.6861 67.0987
" />
<path d="M90.6861 67.0987
L90.7576 67.1701
" />
<path d="M90.7576 67.1701
L90.8290 67.2058
" />
<path d="M90.8290 67.2058
L90.9718 67.2415
" />
<path d="M90.9718 67.2415
L91.0790 67.2415
" />
<path d="M91.0790 67.2415
L91.2218 67.2058
" />
<path d="M91.2218 67.2058
L91.2933 67.1701
" />
<path d="M91.2933 67.1701
L91.3647 67.0987
" />
<path d="M91.3647 67.0987
L91.4004 66.9915
" />
<path d="M91.4004 66.9915
L91.4004 66.8130
" />
</g><text x="85.0000" y="71.5000"
transform="scale(-1 1) translate(-170.000000 0)"
textLength="2.5107" font-size="1.0000" lengthAdjust="spacingAndGlyphs"
text-anchor="start" opacity="0">GND</text>
<g class="stroked-text"><desc>GND</desc>
<path d="M84.3299 70.6861
L84.4013 70.6504
" />
<path d="M84.4013 70.6504
L84.5085 70.6504
" />
<path d="M84.5085 70.6504
L84.6156 70.6861
" />
<path d="M84.6156 70.6861
L84.6870 70.7576
" />
<path d="M84.6870 70.7576
L84.7227 70.8290
" />
<path d="M84.7227 70.8290
L84.7585 70.9718
" />
<path d="M84.7585 70.9718
L84.7585 71.0790
" />
<path d="M84.7585 71.0790
L84.7227 71.2218
" />
<path d="M84.7227 71.2218
L84.6870 71.2933
" />
<path d="M84.6870 71.2933
L84.6156 71.3647
" />
<path d="M84.6156 71.3647
L84.5085 71.4004
" />
<path d="M84.5085 71.4004
L84.4370 71.4004
" />
<path d="M84.4370 71.4004
L84.3299 71.3647
" />
<path d="M84.3299 71.3647
L84.2942 71.3290
" />
<path d="M84.2942 71.3290
L84.2942 71.0790
" />
<path d="M84.2942 71.0790
L84.4370 71.0790
" />
<path d="M83.9727 71.4004
L83.9727 70.6504
" />
<path d="M83.9727 70.6504
L83.5442 71.4004
" />
<path d="M83.5442 71.4004
L83.5442 70.6504
" />
<path d="M83.1870 71.4004
L83.1870 70.6504
" />
<path d="M83.1870 70.6504
L83.0085 70.6504
" />
<path d="M83.0085 70.6504
L82.9013 70.6861
" />
<path d="M82.9013 70.6861
L82.8299 70.7576
" />
<path d="M82.8299 70.7576
L82.7942 70.8290
" />
<path d="M82.7942 70.8290
L82.7585 70.9718
" />
<path d="M82.7585 70.9718
L82.7585 71.0790
" />
<path d="M82.7585 71.0790
L82.7942 71.2218
" />
<path d="M82.7942 71.2218
L82.8299 71.2933
" />
<path d="M82.8299 71.2933
L82.9013 71.3647
" />
<path d="M82.9013 71.3647
L83.0085 71.4004
" />
<path d="M83.0085 71.4004
L83.1870 71.4004
" />
</g><text x="94.5000" y="68.0000"
transform="scale(-1 1) translate(-189.000000 0)"
textLength="1.3321" font-size="1.0000" lengthAdjust="spacingAndGlyphs"
text-anchor="start" opacity="0">DI</text>
<g class="stroked-text"><desc>DI</desc>
<path d="M94.2227 67.9004
L94.2227 67.1504
" />
<path d="M94.2227 67.1504
L94.0442 67.1504
" />
<path d="M94.0442 67.1504
L93.9370 67.1861
" />
<path d="M93.9370 67.1861
L93.8656 67.2576
" />
<path d="M93.8656 67.2576
L93.8299 67.3290
" />
<path d="M93.8299 67.3290
L93.7942 67.4718
" />
<path d="M93.7942 67.4718
L93.7942 67.5790
" />
<path d="M93.7942 67.5790
L93.8299 67.7218
" />
<path d="M93.8299 67.7218
L93.8656 67.7933
" />
<path d="M93.8656 67.7933
L93.9370 67.8647
" />
<path d="M93.9370 67.8647
L94.0442 67.9004
" />
<path d="M94.0442 67.9004
L94.2227 67.9004
" />
<path d="M93.4727 67.9004
L93.4727 67.1504
" />
</g><g transform="rotate(-90.000000 91.5000 53.0000)">
<text x="91.5000" y="53.0000"
transform="scale(-1 1) translate(-183.000000 0)"
textLength="2.3679" font-size="1.0000" lengthAdjust="spacingAndGlyphs"
text-anchor="start" opacity="0">VCC</text>
</g>
<g class="stroked-text"><desc>VCC</desc>
<path d="M90.6504 53.1701
L91.4004 53.4201
" />
<path d="M91.4004 53.4201
L90.6504 53.6701
" />
<path d="M91.3290 54.3487
L91.3647 54.3130
" />
<path d="M91.3647 54.3130
L91.4004 54.2058
" />
<path d="M91.4004 54.2058
L91.4004 54.1344
" />
<path d="M91.4004 54.1344
L91.3647 54.0273
" />
<path d="M91.3647 54.0273
L91.2933 53.9558
" />
<path d="M91.2933 53.9558
L91.2218 53.9201
" />
<path d="M91.2218 53.9201
L91.0790 53.8844
" />
<path d="M91.0790 53.8844
L90.9718 53.8844
" />
<path d="M90.9718 53.8844
L90.8290 53.9201
" />
<path d="M90.8290 53.9201
L90.7576 53.9558
" />
<path d="M90.7576 53.9558
L90.6861 54.0273
" />
<path d="M90.6861 54.0273
L90.6504 54.1344
" />
<path d="M90.6504 54.1344
L90.6504 54.2058
" />
<path d="M90.6504 54.2058
L90.6861 54.3130
" />
<path d="M90.6861 54.3130
L90.7218 54.3487
" />
<path d="M91.3290 55.0987
L91.3647 55.0630
" />
<path d="M91.3647 55.0630
L91.4004 54.9558
" />
<path d="M91.4004 54.9558
L91.4004 54.8844
" />
<path d="M91.4004 54.8844
L91.3647 54.7773
" />
<path d="M91.3647 54.7773
L91.2933 54.7058
" />
<path d="M91.2933 54.7058
L91.2218 54.6701
" />
<path d="M91.2218 54.6701
L91.0790 54.6344
" />
<path d="M91.0790 54.6344
L90.9718 54.6344
" />
<path d="M90.9718 54.6344
L90.8290 54.6701
" />
<path d="M90.8290 54.6701
L90.7576 54.7058
" />
<path d="M90.7576 54.7058
L90.6861 54.7773
" />
<path d="M90.6861 54.7773
L90.6504 54.8844
" />
<path d="M90.6504 54.8844
L90.6504 54.9558
" />
<path d="M90.6504 54.9558
L90.6861 55.0630
" />
<path d="M90.6861 55.0630
L90.7218 55.0987
" />
</g></g>
<g style="fill:#000000; fill-opacity:0.0; 
stroke:#000000; stroke-width:0.1250; stroke-opacity:1; 
stroke-linecap:round; stroke-linejoin:round;">
<text x="90.0000" y="74.5000"
transform="scale(-1 1) translate(-180.000000 0)"
textLength="4.2363" font-size="0.6667" lengthAdjust="spacingAndGlyphs"
text-anchor="middle" opacity="0">PCB: 1.0.0</text>
<g class="stroked-text"><desc>PCB: 1.0.0</desc>
<path d="M91.8929 74.4323
L91.8929 73.9323
" />
<path d="M91.8929 73.9323
L91.7024 73.9323
" />
<path d="M91.7024 73.9323
L91.6548 73.9561
" />
<path d="M91.6548 73.9561
L91.6309 73.9799
" />
<path d="M91.6309 73.9799
L91.6071 74.0275
" />
<path d="M91.6071 74.0275
L91.6071 74.0990
" />
<path d="M91.6071 74.0990
L91.6309 74.1466
" />
<path d="M91.6309 74.1466
L91.6548 74.1704
" />
<path d="M91.6548 74.1704
L91.7024 74.1942
" />
<path d="M91.7024 74.1942
L91.8929 74.1942
" />
<path d="M91.1071 74.3847
L91.1309 74.4085
" />
<path d="M91.1309 74.4085
L91.2024 74.4323
" />
<path d="M91.2024 74.4323
L91.2500 74.4323
" />
<path d="M91.2500 74.4323
L91.3214 74.4085
" />
<path d="M91.3214 74.4085
L91.3690 74.3609
" />
<path d="M91.3690 74.3609
L91.3929 74.3133
" />
<path d="M91.3929 74.3133
L91.4167 74.2180
" />
<path d="M91.4167 74.2180
L91.4167 74.1466
" />
<path d="M91.4167 74.1466
L91.3929 74.0514
" />
<path d="M91.3929 74.0514
L91.3690 74.0037
" />
<path d="M91.3690 74.0037
L91.3214 73.9561
" />
<path d="M91.3214 73.9561
L91.2500 73.9323
" />
<path d="M91.2500 73.9323
L91.2024 73.9323
" />
<path d="M91.2024 73.9323
L91.1309 73.9561
" />
<path d="M91.1309 73.9561
L91.1071 73.9799
" />
<path d="M90.7262 74.1704
L90.6548 74.1942
" />
<path d="M90.6548 74.1942
L90.6309 74.2180
" />
<path d="M90.6309 74.2180
L90.6071 74.2656
" />
<path d="M90.6071 74.2656
L90.6071 74.3371
" />
<path d="M90.6071 74.3371
L90.6309 74.3847
" />
<path d="M90.6309 74.3847
L90.6548 74.4085
" />
<path d="M90.6548 74.4085
L90.7024 74.4323
" />
<path d="M90.7024 74.4323
L90.8929 74.4323
" />
<path d="M90.8929 74.4323
L90.8929 73.9323
" />
<path d="M90.8929 73.9323
L90.7262 73.9323
" />
<path d="M90.7262 73.9323
L90.6786 73.9561
" />
<path d="M90.6786 73.9561
L90.6548 73.9799
" />
<path d="M90.6548 73.9799
L90.6309 74.0275
" />
<path d="M90.6309 74.0275
L90.6309 74.0752
" />
<path d="M90.6309 74.0752
L90.6548 74.1228
" />
<path d="M90.6548 74.1228
L90.6786 74.1466
" />
<path d="M90.6786 74.1466
L90.7262 74.1704
" />
<path d="M90.7262 74.1704
L90.8929 74.1704
" />
<path d="M90.3929 74.3847
L90.3690 74.4085
" />
<path d="M90.3690 74.4085
L90.3929 74.4323
" />
<path d="M90.3929 74.4323
L90.4167 74.4085
" />
<path d="M90.4167 74.4085
L90.3929 74.3847
" />
<path d="M90.3929 74.3847
L90.3929 74.4323
" />
<path d="M90.3929 74.1228
L90.3690 74.1466
" />
<path d="M90.3690 74.1466
L90.3929 74.1704
" />
<path d="M90.3929 74.1704
L90.4167 74.1466
" />
<path d="M90.4167 74.1466
L90.3929 74.1228
" />
<path d="M90.3929 74.1228
L90.3929 74.1704
" />
<path d="M89.5119 74.4323
L89.7976 74.4323
" />
<path d="M89.6548 74.4323
L89.6548 73.9323
" />
<path d="M89.6548 73.9323
L89.7024 74.0037
" />
<path d="M89.7024 74.0037
L89.7500 74.0514
" />
<path d="M89.7500 74.0514
L89.7976 74.0752
" />
<path d="M89.2976 74.3847
L89.2738 74.4085
" />
<path d="M89.2738 74.4085
L89.2976 74.4323
" />
<path d="M89.2976 74.4323
L89.3214 74.4085
" />
<path d="M89.3214 74.4085
L89.2976 74.3847
" />
<path d="M89.2976 74.3847
L89.2976 74.4323
" />
<path d="M88.9643 73.9323
L88.9167 73.9323
" />
<path d="M88.9167 73.9323
L88.8690 73.9561
" />
<path d="M88.8690 73.9561
L88.8452 73.9799
" />
<path d="M88.8452 73.9799
L88.8214 74.0275
" />
<path d="M88.8214 74.0275
L88.7976 74.1228
" />
<path d="M88.7976 74.1228
L88.7976 74.2418
" />
<path d="M88.7976 74.2418
L88.8214 74.3371
" />
<path d="M88.8214 74.3371
L88.8452 74.3847
" />
<path d="M88.8452 74.3847
L88.8690 74.4085
" />
<path d="M88.8690 74.4085
L88.9167 74.4323
" />
<path d="M88.9167 74.4323
L88.9643 74.4323
" />
<path d="M88.9643 74.4323
L89.0119 74.4085
" />
<path d="M89.0119 74.4085
L89.0357 74.3847
" />
<path d="M89.0357 74.3847
L89.0595 74.3371
" />
<path d="M89.0595 74.3371
L89.0833 74.2418
" />
<path d="M89.0833 74.2418
L89.0833 74.1228
" />
<path d="M89.0833 74.1228
L89.0595 74.0275
" />
<path d="M89.0595 74.0275
L89.0357 73.9799
" />
<path d="M89.0357 73.9799
L89.0119 73.9561
" />
<path d="M89.0119 73.9561
L88.9643 73.9323
" />
<path d="M88.5833 74.3847
L88.5595 74.4085
" />
<path d="M88.5595 74.4085
L88.5833 74.4323
" />
<path d="M88.5833 74.4323
L88.6071 74.4085
" />
<path d="M88.6071 74.4085
L88.5833 74.3847
" />
<path d="M88.5833 74.3847
L88.5833 74.4323
" />
<path d="M88.2500 73.9323
L88.2024 73.9323
" />
<path d="M88.2024 73.9323
L88.1548 73.9561
" />
<path d="M88.1548 73.9561
L88.1310 73.9799
" />
<path d="M88.1310 73.9799
L88.1071 74.0275
" />
<path d="M88.1071 74.0275
L88.0833 74.1228
" />
<path d="M88.0833 74.1228
L88.0833 74.2418
" />
<path d="M88.0833 74.2418
L88.1071 74.3371
" />
<path d="M88.1071 74.3371
L88.1310 74.3847
" />
<path d="M88.1310 74.3847
L88.1548 74.4085
" />
<path d="M88.1548 74.4085
L88.2024 74.4323
" />
<path d="M88.2024 74.4323
L88.2500 74.4323
" />
<path d="M88.2500 74.4323
L88.2976 74.4085
" />
<path d="M88.2976 74.4085
L88.3214 74.3847
" />
<path d="M88.3214 74.3847
L88.3452 74.3371
" />
<path d="M88.3452 74.3371
L88.3690 74.2418
" />
<path d="M88.3690 74.2418
L88.3690 74.1228
" />
<path d="M88.3690 74.1228
L88.3452 74.0275
" />
<path d="M88.3452 74.0275
L88.3214 73.9799
" />
<path d="M88.3214 73.9799
L88.2976 73.9561
" />
<path d="M88.2976 73.9561
L88.2500 73.9323
" />
</g></g>
<g style="fill:#000000; fill-opacity:0.0; 
stroke:#000000; stroke-width:0.1500; stroke-opacity:1; 
stroke-linecap:round; stroke-linejoin:round;">
<text x="85.0000" y="69.5000"
transform="scale(-1 1) translate(-170.000000 0)"
textLength="1.7607" font-size="1.0000" lengthAdjust="spacingAndGlyphs"
text-anchor="start" opacity="0">DO</text>
<g class="stroked-text"><desc>DO</desc>
<path d="M84.7227 69.4004
L84.7227 68.6504
" />
<path d="M84.7227 68.6504
L84.5442 68.6504
" />
<path d="M84.5442 68.6504
L84.4370 68.6861
" />
<path d="M84.4370 68.6861
L84.3656 68.7576
" />
<path d="M84.3656 68.7576
L84.3299 68.8290
" />
<path d="M84.3299 68.8290
L84.2942 68.9718
" />
<path d="M84.2942 68.9718
L84.2942 69.0790
" />
<path d="M84.2942 69.0790
L84.3299 69.2218
" />
<path d="M84.3299 69.2218
L84.3656 69.2933
" />
<path d="M84.3656 69.2933
L84.4370 69.3647
" />
<path d="M84.4370 69.3647
L84.5442 69.4004
" />
<path d="M84.5442 69.4004
L84.7227 69.4004
" />
<path d="M83.8299 68.6504
L83.6870 68.6504
" />
<path d="M83.6870 68.6504
L83.6156 68.6861
" />
<path d="M83.6156 68.6861
L83.5442 68.7576
" />
<path d="M83.5442 68.7576
L83.5085 68.9004
" />
<path d="M83.5085 68.9004
L83.5085 69.1504
" />
<path d="M83.5085 69.1504
L83.5442 69.2933
" />
<path d="M83.5442 69.2933
L83.6156 69.3647
" />
<path d="M83.6156 69.3647
L83.6870 69.4004
" />
<path d="M83.6870 69.4004
L83.8299 69.4004
" />
<path d="M83.8299 69.4004
L83.9013 69.3647
" />
<path d="M83.9013 69.3647
L83.9727 69.2933
" />
<path d="M83.9727 69.2933
L84.0085 69.1504
" />
<path d="M84.0085 69.1504
L84.0085 68.9004
" />
<path d="M84.0085 68.9004
L83.9727 68.7576
" />
<path d="M83.9727 68.7576
L83.9013 68.6861
" />
<path d="M83.9013 68.6861
L83.8299 68.6504
" />
</g><text x="79.8000" y="46.7925"
transform="scale(-1 1) translate(-159.600000 0)"
textLength="12.1893" font-size="1.0000" lengthAdjust="spacingAndGlyphs"
text-anchor="middle" opacity="0">Pedalboard LED Ring</text>
<g class="stroked-text"><desc>Pedalboard LED Ring</desc>
<path d="M85.6036 46.6929
L85.6036 45.9429
" />
<path d="M85.6036 45.9429
L85.3179 45.9429
" />
<path d="M85.3179 45.9429
L85.2464 45.9786
" />
<path d="M85.2464 45.9786
L85.2107 46.0143
" />
<path d="M85.2107 46.0143
L85.1750 46.0858
" />
<path d="M85.1750 46.0858
L85.1750 46.1929
" />
<path d="M85.1750 46.1929
L85.2107 46.2643
" />
<path d="M85.2107 46.2643
L85.2464 46.3001
" />
<path d="M85.2464 46.3001
L85.3179 46.3358
" />
<path d="M85.3179 46.3358
L85.6036 46.3358
" />
<path d="M84.5679 46.6572
L84.6393 46.6929
" />
<path d="M84.6393 46.6929
L84.7821 46.6929
" />
<path d="M84.7821 46.6929
L84.8536 46.6572
" />
<path d="M84.8536 46.6572
L84.8893 46.5858
" />
<path d="M84.8893 46.5858
L84.8893 46.3001
" />
<path d="M84.8893 46.3001
L84.8536 46.2286
" />
<path d="M84.8536 46.2286
L84.7821 46.1929
" />
<path d="M84.7821 46.1929
L84.6393 46.1929
" />
<path d="M84.6393 46.1929
L84.5679 46.2286
" />
<path d="M84.5679 46.2286
L84.5321 46.3001
" />
<path d="M84.5321 46.3001
L84.5321 46.3715
" />
<path d="M84.5321 46.3715
L84.8893 46.4429
" />
<path d="M83.8893 46.6929
L83.8893 45.9429
" />
<path d="M83.8893 46.6572
L83.9607 46.6929
" />
<path d="M83.9607 46.6929
L84.1036 46.6929
" />
<path d="M84.1036 46.6929
L84.1750 46.6572
" />
<path d="M84.1750 46.6572
L84.2107 46.6215
" />
<path d="M84.2107 46.6215
L84.2464 46.5501
" />
<path d="M84.2464 46.5501
L84.2464 46.3358
" />
<path d="M84.2464 46.3358
L84.2107 46.2643
" />
<path d="M84.2107 46.2643
L84.1750 46.2286
" />
<path d="M84.1750 46.2286
L84.1036 46.1929
" />
<path d="M84.1036 46.1929
L83.9607 46.1929
" />
<path d="M83.9607 46.1929
L83.8893 46.2286
" />
<path d="M83.2107 46.6929
L83.2107 46.3001
" />
<path d="M83.2107 46.3001
L83.2464 46.2286
" />
<path d="M83.2464 46.2286
L83.3179 46.1929
" />
<path d="M83.3179 46.1929
L83.4607 46.1929
" />
<path d="M83.4607 46.1929
L83.5321 46.2286
" />
<path d="M83.2107 46.6572
L83.2821 46.6929
" />
<path d="M83.2821 46.6929
L83.4607 46.6929
" />
<path d="M83.4607 46.6929
L83.5321 46.6572
" />
<path d="M83.5321 46.6572
L83.5679 46.5858
" />
<path d="M83.5679 46.5858
L83.5679 46.5143
" />
<path d="M83.5679 46.5143
L83.5321 46.4429
" />
<path d="M83.5321 46.4429
L83.4607 46.4072
" />
<path d="M83.4607 46.4072
L83.2821 46.4072
" />
<path d="M83.2821 46.4072
L83.2107 46.3715
" />
<path d="M82.7464 46.6929
L82.8179 46.6572
" />
<path d="M82.8179 46.6572
L82.8536 46.5858
" />
<path d="M82.8536 46.5858
L82.8536 45.9429
" />
<path d="M82.4607 46.6929
L82.4607 45.9429
" />
<path d="M82.4607 46.2286
L82.3893 46.1929
" />
<path d="M82.3893 46.1929
L82.2464 46.1929
" />
<path d="M82.2464 46.1929
L82.1750 46.2286
" />
<path d="M82.1750 46.2286
L82.1393 46.2643
" />
<path d="M82.1393 46.2643
L82.1036 46.3358
" />
<path d="M82.1036 46.3358
L82.1036 46.5501
" />
<path d="M82.1036 46.5501
L82.1393 46.6215
" />
<path d="M82.1393 46.6215
L82.1750 46.6572
" />
<path d="M82.1750 46.6572
L82.2464 46.6929
" />
<path d="M82.2464 46.6929
L82.3893 46.6929
" />
<path d="M82.3893 46.6929
L82.4607 46.6572
" />
<path d="M81.6750 46.6929
L81.7464 46.6572
" />
<path d="M81.7464 46.6572
L81.7821 46.6215
" />
<path d="M81.7821 46.6215
L81.8179 46.5501
" />
<path d="M81.8179 46.5501
L81.8179 46.3358
" />
<path d="M81.8179 46.3358
L81.7821 46.2643
" />
<path d="M81.7821 46.2643
L81.7464 46.2286
" />
<path d="M81.7464 46.2286
L81.6750 46.1929
" />
<path d="M81.6750 46.1929
L81.5679 46.1929
" />
<path d="M81.5679 46.1929
L81.4964 46.2286
" />
<path d="M81.4964 46.2286
L81.4607 46.2643
" />
<path d="M81.4607 46.2643
L81.4250 46.3358
" />
<path d="M81.4250 46.3358
L81.4250 46.5501
" />
<path d="M81.4250 46.5501
L81.4607 46.6215
" />
<path d="M81.4607 46.6215
L81.4964 46.6572
" />
<path d="M81.4964 46.6572
L81.5679 46.6929
" />
<path d="M81.5679 46.6929
L81.6750 46.6929
" />
<path d="M80.7821 46.6929
L80.7821 46.3001
" />
<path d="M80.7821 46.3001
L80.8179 46.2286
" />
<path d="M80.8179 46.2286
L80.8893 46.1929
" />
<path d="M80.8893 46.1929
L81.0321 46.1929
" />
<path d="M81.0321 46.1929
L81.1036 46.2286
" />
<path d="M80.7821 46.6572
L80.8536 46.6929
" />
<path d="M80.8536 46.6929
L81.0321 46.6929
" />
<path d="M81.0321 46.6929
L81.1036 46.6572
" />
<path d="M81.1036 46.6572
L81.1393 46.5858
" />
<path d="M81.1393 46.5858
L81.1393 46.5143
" />
<path d="M81.1393 46.5143
L81.1036 46.4429
" />
<path d="M81.1036 46.4429
L81.0321 46.4072
" />
<path d="M81.0321 46.4072
L80.8536 46.4072
" />
<path d="M80.8536 46.4072
L80.7821 46.3715
" />
<path d="M80.4250 46.6929
L80.4250 46.1929
" />
<path d="M80.4250 46.3358
L80.3893 46.2643
" />
<path d="M80.3893 46.2643
L80.3536 46.2286
" />
<path d="M80.3536 46.2286
L80.2821 46.1929
" />
<path d="M80.2821 46.1929
L80.2107 46.1929
" />
<path d="M79.6393 46.6929
L79.6393 45.9429
" />
<path d="M79.6393 46.6572
L79.7107 46.6929
" />
<path d="M79.7107 46.6929
L79.8536 46.6929
" />
<path d="M79.8536 46.6929
L79.9250 46.6572
" />
<path d="M79.9250 46.6572
L79.9607 46.6215
" />
<path d="M79.9607 46.6215
L79.9964 46.5501
" />
<path d="M79.9964 46.5501
L79.9964 46.3358
" />
<path d="M79.9964 46.3358
L79.9607 46.2643
" />
<path d="M79.9607 46.2643
L79.9250 46.2286
" />
<path d="M79.9250 46.2286
L79.8536 46.1929
" />
<path d="M79.8536 46.1929
L79.7107 46.1929
" />
<path d="M79.7107 46.1929
L79.6393 46.2286
" />
<path d="M78.3536 46.6929
L78.7107 46.6929
" />
<path d="M78.7107 46.6929
L78.7107 45.9429
" />
<path d="M78.1036 46.3001
L77.8536 46.3001
" />
<path d="M77.7464 46.6929
L78.1036 46.6929
" />
<path d="M78.1036 46.6929
L78.1036 45.9429
" />
<path d="M78.1036 45.9429
L77.7464 45.9429
" />
<path d="M77.4250 46.6929
L77.4250 45.9429
" />
<path d="M77.4250 45.9429
L77.2464 45.9429
" />
<path d="M77.2464 45.9429
L77.1393 45.9786
" />
<path d="M77.1393 45.9786
L77.0679 46.0501
" />
<path d="M77.0679 46.0501
L77.0321 46.1215
" />
<path d="M77.0321 46.1215
L76.9964 46.2643
" />
<path d="M76.9964 46.2643
L76.9964 46.3715
" />
<path d="M76.9964 46.3715
L77.0321 46.5143
" />
<path d="M77.0321 46.5143
L77.0679 46.5858
" />
<path d="M77.0679 46.5858
L77.1393 46.6572
" />
<path d="M77.1393 46.6572
L77.2464 46.6929
" />
<path d="M77.2464 46.6929
L77.4250 46.6929
" />
<path d="M75.6750 46.6929
L75.9250 46.3358
" />
<path d="M76.1036 46.6929
L76.1036 45.9429
" />
<path d="M76.1036 45.9429
L75.8179 45.9429
" />
<path d="M75.8179 45.9429
L75.7464 45.9786
" />
<path d="M75.7464 45.9786
L75.7107 46.0143
" />
<path d="M75.7107 46.0143
L75.6750 46.0858
" />
<path d="M75.6750 46.0858
L75.6750 46.1929
" />
<path d="M75.6750 46.1929
L75.7107 46.2643
" />
<path d="M75.7107 46.2643
L75.7464 46.3001
" />
<path d="M75.7464 46.3001
L75.8179 46.3358
" />
<path d="M75.8179 46.3358
L76.1036 46.3358
" />
<path d="M75.3536 46.6929
L75.3536 46.1929
" />
<path d="M75.3536 45.9429
L75.3893 45.9786
" />
<path d="M75.3893 45.9786
L75.3536 46.0143
" />
<path d="M75.3536 46.0143
L75.3179 45.9786
" />
<path d="M75.3179 45.9786
L75.3536 45.9429
" />
<path d="M75.3536 45.9429
L75.3536 46.0143
" />
<path d="M74.9964 46.1929
L74.9964 46.6929
" />
<path d="M74.9964 46.2643
L74.9607 46.2286
" />
<path d="M74.9607 46.2286
L74.8893 46.1929
" />
<path d="M74.8893 46.1929
L74.7821 46.1929
" />
<path d="M74.7821 46.1929
L74.7107 46.2286
" />
<path d="M74.7107 46.2286
L74.6750 46.3001
" />
<path d="M74.6750 46.3001
L74.6750 46.6929
" />
<path d="M73.9964 46.1929
L73.9964 46.8001
" />
<path d="M73.9964 46.8001
L74.0321 46.8715
" />
<path d="M74.0321 46.8715
L74.0679 46.9072
" />
<path d="M74.0679 46.9072
L74.1393 46.9429
" />
<path d="M74.1393 46.9429
L74.2464 46.9429
" />
<path d="M74.2464 46.9429
L74.3179 46.9072
" />
<path d="M73.9964 46.6572
L74.0679 46.6929
" />
<path d="M74.0679 46.6929
L74.2107 46.6929
" />
<path d="M74.2107 46.6929
L74.2821 46.6572
" />
<path d="M74.2821 46.6572
L74.3179 46.6215
" />
<path d="M74.3179 46.6215
L74.3536 46.5501
" />
<path d="M74.3536 46.5501
L74.3536 46.3358
" />
<path d="M74.3536 46.3358
L74.3179 46.2643
" />
<path d="M74.3179 46.2643
L74.2821 46.2286
" />
<path d="M74.2821 46.2286
L74.2107 46.1929
" />
<path d="M74.2107 46.1929
L74.0679 46.1929
" />
<path d="M74.0679 46.1929
L73.9964 46.2286
" />
</g><text x="79.8000" y="48.0000"
transform="scale(-1 1) translate(-159.600000 0)"
textLength="18.1893" font-size="1.0000" lengthAdjust="spacingAndGlyphs"
text-anchor="middle" opacity="0">https://github.com/pedalboard</text>
<g class="stroked-text"><desc>https://github.com/pedalboard</desc>
<path d="M88.6036 47.9004
L88.6036 47.1504
" />
<path d="M88.2821 47.9004
L88.2821 47.5076
" />
<path d="M88.2821 47.5076
L88.3179 47.4361
" />
<path d="M88.3179 47.4361
L88.3893 47.4004
" />
<path d="M88.3893 47.4004
L88.4964 47.4004
" />
<path d="M88.4964 47.4004
L88.5679 47.4361
" />
<path d="M88.5679 47.4361
L88.6036 47.4718
" />
<path d="M88.0321 47.4004
L87.7464 47.4004
" />
<path d="M87.9250 47.1504
L87.9250 47.7933
" />
<path d="M87.9250 47.7933
L87.8893 47.8647
" />
<path d="M87.8893 47.8647
L87.8179 47.9004
" />
<path d="M87.8179 47.9004
L87.7464 47.9004
" />
<path d="M87.6036 47.4004
L87.3179 47.4004
" />
<path d="M87.4964 47.1504
L87.4964 47.7933
" />
<path d="M87.4964 47.7933
L87.4607 47.8647
" />
<path d="M87.4607 47.8647
L87.3893 47.9004
" />
<path d="M87.3893 47.9004
L87.3179 47.9004
" />
<path d="M87.0679 47.4004
L87.0679 48.1504
" />
<path d="M87.0679 47.4361
L86.9964 47.4004
" />
<path d="M86.9964 47.4004
L86.8536 47.4004
" />
<path d="M86.8536 47.4004
L86.7821 47.4361
" />
<path d="M86.7821 47.4361
L86.7464 47.4718
" />
<path d="M86.7464 47.4718
L86.7107 47.5433
" />
<path d="M86.7107 47.5433
L86.7107 47.7576
" />
<path d="M86.7107 47.7576
L86.7464 47.8290
" />
<path d="M86.7464 47.8290
L86.7821 47.8647
" />
<path d="M86.7821 47.8647
L86.8536 47.9004
" />
<path d="M86.8536 47.9004
L86.9964 47.9004
" />
<path d="M86.9964 47.9004
L87.0679 47.8647
" />
<path d="M86.4250 47.8647
L86.3536 47.9004
" />
<path d="M86.3536 47.9004
L86.2107 47.9004
" />
<path d="M86.2107 47.9004
L86.1393 47.8647
" />
<path d="M86.1393 47.8647
L86.1036 47.7933
" />
<path d="M86.1036 47.7933
L86.1036 47.7576
" />
<path d="M86.1036 47.7576
L86.1393 47.6861
" />
<path d="M86.1393 47.6861
L86.2107 47.6504
" />
<path d="M86.2107 47.6504
L86.3179 47.6504
" />
<path d="M86.3179 47.6504
L86.3893 47.6147
" />
<path d="M86.3893 47.6147
L86.4250 47.5433
" />
<path d="M86.4250 47.5433
L86.4250 47.5076
" />
<path d="M86.4250 47.5076
L86.3893 47.4361
" />
<path d="M86.3893 47.4361
L86.3179 47.4004
" />
<path d="M86.3179 47.4004
L86.2107 47.4004
" />
<path d="M86.2107 47.4004
L86.1393 47.4361
" />
<path d="M85.7821 47.8290
L85.7464 47.8647
" />
<path d="M85.7464 47.8647
L85.7821 47.9004
" />
<path d="M85.7821 47.9004
L85.8179 47.8647
" />
<path d="M85.8179 47.8647
L85.7821 47.8290
" />
<path d="M85.7821 47.8290
L85.7821 47.9004
" />
<path d="M85.7821 47.4361
L85.7464 47.4718
" />
<path d="M85.7464 47.4718
L85.7821 47.5076
" />
<path d="M85.7821 47.5076
L85.8179 47.4718
" />
<path d="M85.8179 47.4718
L85.7821 47.4361
" />
<path d="M85.7821 47.4361
L85.7821 47.5076
" />
<path d="M84.8893 47.1147
L85.5321 48.0790
" />
<path d="M84.1036 47.1147
L84.7464 48.0790
" />
<path d="M83.5321 47.4004
L83.5321 48.0076
" />
<path d="M83.5321 48.0076
L83.5679 48.0790
" />
<path d="M83.5679 48.0790
L83.6036 48.1147
" />
<path d="M83.6036 48.1147
L83.6750 48.1504
" />
<path d="M83.6750 48.1504
L83.7821 48.1504
" />
<path d="M83.7821 48.1504
L83.8536 48.1147
" />
<path d="M83.5321 47.8647
L83.6036 47.9004
" />
<path d="M83.6036 47.9004
L83.7464 47.9004
" />
<path d="M83.7464 47.9004
L83.8179 47.8647
" />
<path d="M83.8179 47.8647
L83.8536 47.8290
" />
<path d="M83.8536 47.8290
L83.8893 47.7576
" />
<path d="M83.8893 47.7576
L83.8893 47.5433
" />
<path d="M83.8893 47.5433
L83.8536 47.4718
" />
<path d="M83.8536 47.4718
L83.8179 47.4361
" />
<path d="M83.8179 47.4361
L83.7464 47.4004
" />
<path d="M83.7464 47.4004
L83.6036 47.4004
" />
<path d="M83.6036 47.4004
L83.5321 47.4361
" />
<path d="M83.1750 47.9004
L83.1750 47.4004
" />
<path d="M83.1750 47.1504
L83.2107 47.1861
" />
<path d="M83.2107 47.1861
L83.1750 47.2218
" />
<path d="M83.1750 47.2218
L83.1393 47.1861
" />
<path d="M83.1393 47.1861
L83.1750 47.1504
" />
<path d="M83.1750 47.1504
L83.1750 47.2218
" />
<path d="M82.9250 47.4004
L82.6393 47.4004
" />
<path d="M82.8179 47.1504
L82.8179 47.7933
" />
<path d="M82.8179 47.7933
L82.7821 47.8647
" />
<path d="M82.7821 47.8647
L82.7107 47.9004
" />
<path d="M82.7107 47.9004
L82.6393 47.9004
" />
<path d="M82.3893 47.9004
L82.3893 47.1504
" />
<path d="M82.0679 47.9004
L82.0679 47.5076
" />
<path d="M82.0679 47.5076
L82.1036 47.4361
" />
<path d="M82.1036 47.4361
L82.1750 47.4004
" />
<path d="M82.1750 47.4004
L82.2821 47.4004
" />
<path d="M82.2821 47.4004
L82.3536 47.4361
" />
<path d="M82.3536 47.4361
L82.3893 47.4718
" />
<path d="M81.3893 47.4004
L81.3893 47.9004
" />
<path d="M81.7107 47.4004
L81.7107 47.7933
" />
<path d="M81.7107 47.7933
L81.6750 47.8647
" />
<path d="M81.6750 47.8647
L81.6036 47.9004
" />
<path d="M81.6036 47.9004
L81.4964 47.9004
" />
<path d="M81.4964 47.9004
L81.4250 47.8647
" />
<path d="M81.4250 47.8647
L81.3893 47.8290
" />
<path d="M81.0321 47.9004
L81.0321 47.1504
" />
<path d="M81.0321 47.4361
L80.9607 47.4004
" />
<path d="M80.9607 47.4004
L80.8179 47.4004
" />
<path d="M80.8179 47.4004
L80.7464 47.4361
" />
<path d="M80.7464 47.4361
L80.7107 47.4718
" />
<path d="M80.7107 47.4718
L80.6750 47.5433
" />
<path d="M80.6750 47.5433
L80.6750 47.7576
" />
<path d="M80.6750 47.7576
L80.7107 47.8290
" />
<path d="M80.7107 47.8290
L80.7464 47.8647
" />
<path d="M80.7464 47.8647
L80.8179 47.9004
" />
<path d="M80.8179 47.9004
L80.9607 47.9004
" />
<path d="M80.9607 47.9004
L81.0321 47.8647
" />
<path d="M80.3536 47.8290
L80.3179 47.8647
" />
<path d="M80.3179 47.8647
L80.3536 47.9004
" />
<path d="M80.3536 47.9004
L80.3893 47.8647
" />
<path d="M80.3893 47.8647
L80.3536 47.8290
" />
<path d="M80.3536 47.8290
L80.3536 47.9004
" />
<path d="M79.6750 47.8647
L79.7464 47.9004
" />
<path d="M79.7464 47.9004
L79.8893 47.9004
" />
<path d="M79.8893 47.9004
L79.9607 47.8647
" />
<path d="M79.9607 47.8647
L79.9964 47.8290
" />
<path d="M79.9964 47.8290
L80.0321 47.7576
" />
<path d="M80.0321 47.7576
L80.0321 47.5433
" />
<path d="M80.0321 47.5433
L79.9964 47.4718
" />
<path d="M79.9964 47.4718
L79.9607 47.4361
" />
<path d="M79.9607 47.4361
L79.8893 47.4004
" />
<path d="M79.8893 47.4004
L79.7464 47.4004
" />
<path d="M79.7464 47.4004
L79.6750 47.4361
" />
<path d="M79.2464 47.9004
L79.3179 47.8647
" />
<path d="M79.3179 47.8647
L79.3536 47.8290
" />
<path d="M79.3536 47.8290
L79.3893 47.7576
" />
<path d="M79.3893 47.7576
L79.3893 47.5433
" />
<path d="M79.3893 47.5433
L79.3536 47.4718
" />
<path d="M79.3536 47.4718
L79.3179 47.4361
" />
<path d="M79.3179 47.4361
L79.2464 47.4004
" />
<path d="M79.2464 47.4004
L79.1393 47.4004
" />
<path d="M79.1393 47.4004
L79.0679 47.4361
" />
<path d="M79.0679 47.4361
L79.0321 47.4718
" />
<path d="M79.0321 47.4718
L78.9964 47.5433
" />
<path d="M78.9964 47.5433
L78.9964 47.7576
" />
<path d="M78.9964 47.7576
L79.0321 47.8290
" />
<path d="M79.0321 47.8290
L79.0679 47.8647
" />
<path d="M79.0679 47.8647
L79.1393 47.9004
" />
<path d="M79.1393 47.9004
L79.2464 47.9004
" />
<path d="M78.6750 47.9004
L78.6750 47.4004
" />
<path d="M78.6750 47.4718
L78.6393 47.4361
" />
<path d="M78.6393 47.4361
L78.5679 47.4004
" />
<path d="M78.5679 47.4004
L78.4607 47.4004
" />
<path d="M78.4607 47.4004
L78.3893 47.4361
" />
<path d="M78.3893 47.4361
L78.3536 47.5076
" />
<path d="M78.3536 47.5076
L78.3536 47.9004
" />
<path d="M78.3536 47.5076
L78.3179 47.4361
" />
<path d="M78.3179 47.4361
L78.2464 47.4004
" />
<path d="M78.2464 47.4004
L78.1393 47.4004
" />
<path d="M78.1393 47.4004
L78.0679 47.4361
" />
<path d="M78.0679 47.4361
L78.0321 47.5076
" />
<path d="M78.0321 47.5076
L78.0321 47.9004
" />
<path d="M77.1393 47.1147
L77.7821 48.0790
" />
<path d="M76.8893 47.4004
L76.8893 48.1504
" />
<path d="M76.8893 47.4361
L76.8179 47.4004
" />
<path d="M76.8179 47.4004
L76.6750 47.4004
" />
<path d="M76.6750 47.4004
L76.6036 47.4361
" />
<path d="M76.6036 47.4361
L76.5679 47.4718
" />
<path d="M76.5679 47.4718
L76.5321 47.5433
" />
<path d="M76.5321 47.5433
L76.5321 47.7576
" />
<path d="M76.5321 47.7576
L76.5679 47.8290
" />
<path d="M76.5679 47.8290
L76.6036 47.8647
" />
<path d="M76.6036 47.8647
L76.6750 47.9004
" />
<path d="M76.6750 47.9004
L76.8179 47.9004
" />
<path d="M76.8179 47.9004
L76.8893 47.8647
" />
<path d="M75.9250 47.8647
L75.9964 47.9004
" />
<path d="M75.9964 47.9004
L76.1393 47.9004
" />
<path d="M76.1393 47.9004
L76.2107 47.8647
" />
<path d="M76.2107 47.8647
L76.2464 47.7933
" />
<path d="M76.2464 47.7933
L76.2464 47.5076
" />
<path d="M76.2464 47.5076
L76.2107 47.4361
" />
<path d="M76.2107 47.4361
L76.1393 47.4004
" />
<path d="M76.1393 47.4004
L75.9964 47.4004
" />
<path d="M75.9964 47.4004
L75.9250 47.4361
" />
<path d="M75.9250 47.4361
L75.8893 47.5076
" />
<path d="M75.8893 47.5076
L75.8893 47.5790
" />
<path d="M75.8893 47.5790
L76.2464 47.6504
" />
<path d="M75.2464 47.9004
L75.2464 47.1504
" />
<path d="M75.2464 47.8647
L75.3179 47.9004
" />
<path d="M75.3179 47.9004
L75.4607 47.9004
" />
<path d="M75.4607 47.9004
L75.5321 47.8647
" />
<path d="M75.5321 47.8647
L75.5679 47.8290
" />
<path d="M75.5679 47.8290
L75.6036 47.7576
" />
<path d="M75.6036 47.7576
L75.6036 47.5433
" />
<path d="M75.6036 47.5433
L75.5679 47.4718
" />
<path d="M75.5679 47.4718
L75.5321 47.4361
" />
<path d="M75.5321 47.4361
L75.4607 47.4004
" />
<path d="M75.4607 47.4004
L75.3179 47.4004
" />
<path d="M75.3179 47.4004
L75.2464 47.4361
" />
<path d="M74.5679 47.9004
L74.5679 47.5076
" />
<path d="M74.5679 47.5076
L74.6036 47.4361
" />
<path d="M74.6036 47.4361
L74.6750 47.4004
" />
<path d="M74.6750 47.4004
L74.8179 47.4004
" />
<path d="M74.8179 47.4004
L74.8893 47.4361
" />
<path d="M74.5679 47.8647
L74.6393 47.9004
" />
<path d="M74.6393 47.9004
L74.8179 47.9004
" />
<path d="M74.8179 47.9004
L74.8893 47.8647
" />
<path d="M74.8893 47.8647
L74.9250 47.7933
" />
<path d="M74.9250 47.7933
L74.9250 47.7218
" />
<path d="M74.9250 47.7218
L74.8893 47.6504
" />
<path d="M74.8893 47.6504
L74.8179 47.6147
" />
<path d="M74.8179 47.6147
L74.6393 47.6147
" />
<path d="M74.6393 47.6147
L74.5679 47.5790
" />
<path d="M74.1036 47.9004
L74.1750 47.8647
" />
<path d="M74.1750 47.8647
L74.2107 47.7933
" />
<path d="M74.2107 47.7933
L74.2107 47.1504
" />
<path d="M73.8179 47.9004
L73.8179 47.1504
" />
<path d="M73.8179 47.4361
L73.7464 47.4004
" />
<path d="M73.7464 47.4004
L73.6036 47.4004
" />
<path d="M73.6036 47.4004
L73.5321 47.4361
" />
<path d="M73.5321 47.4361
L73.4964 47.4718
" />
<path d="M73.4964 47.4718
L73.4607 47.5433
" />
<path d="M73.4607 47.5433
L73.4607 47.7576
" />
<path d="M73.4607 47.7576
L73.4964 47.8290
" />
<path d="M73.4964 47.8290
L73.5321 47.8647
" />
<path d="M73.5321 47.8647
L73.6036 47.9004
" />
<path d="M73.6036 47.9004
L73.7464 47.9004
" />
<path d="M73.7464 47.9004
L73.8179 47.8647
" />
<path d="M73.0321 47.9004
L73.1036 47.8647
" />
<path d="M73.1036 47.8647
L73.1393 47.8290
" />
<path d="M73.1393 47.8290
L73.1750 47.7576
" />
<path d="M73.1750 47.7576
L73.1750 47.5433
" />
<path d="M73.1750 47.5433
L73.1393 47.4718
" />
<path d="M73.1393 47.4718
L73.1036 47.4361
" />
<path d="M73.1036 47.4361
L73.0321 47.4004
" />
<path d="M73.0321 47.4004
L72.9250 47.4004
" />
<path d="M72.9250 47.4004
L72.8536 47.4361
" />
<path d="M72.8536 47.4361
L72.8179 47.4718
" />
<path d="M72.8179 47.4718
L72.7821 47.5433
" />
<path d="M72.7821 47.5433
L72.7821 47.7576
" />
<path d="M72.7821 47.7576
L72.8179 47.8290
" />
<path d="M72.8179 47.8290
L72.8536 47.8647
" />
<path d="M72.8536 47.8647
L72.9250 47.9004
" />
<path d="M72.9250 47.9004
L73.0321 47.9004
" />
<path d="M72.1393 47.9004
L72.1393 47.5076
" />
<path d="M72.1393 47.5076
L72.1750 47.4361
" />
<path d="M72.1750 47.4361
L72.2464 47.4004
" />
<path d="M72.2464 47.4004
L72.3893 47.4004
" />
<path d="M72.3893 47.4004
L72.4607 47.4361
" />
<path d="M72.1393 47.8647
L72.2107 47.9004
" />
<path d="M72.2107 47.9004
L72.3893 47.9004
" />
<path d="M72.3893 47.9004
L72.4607 47.8647
" />
<path d="M72.4607 47.8647
L72.4964 47.7933
" />
<path d="M72.4964 47.7933
L72.4964 47.7218
" />
<path d="M72.4964 47.7218
L72.4607 47.6504
" />
<path d="M72.4607 47.6504
L72.3893 47.6147
" />
<path d="M72.3893 47.6147
L72.2107 47.6147
" />
<path d="M72.2107 47.6147
L72.1393 47.5790
" />
<path d="M71.7821 47.9004
L71.7821 47.4004
" />
<path d="M71.7821 47.5433
L71.7464 47.4718
" />
<path d="M71.7464 47.4718
L71.7107 47.4361
" />
<path d="M71.7107 47.4361
L71.6393 47.4004
" />
<path d="M71.6393 47.4004
L71.5679 47.4004
" />
<path d="M70.9964 47.9004
L70.9964 47.1504
" />
<path d="M70.9964 47.8647
L71.0679 47.9004
" />
<path d="M71.0679 47.9004
L71.2107 47.9004
" />
<path d="M71.2107 47.9004
L71.2821 47.8647
" />
<path d="M71.2821 47.8647
L71.3179 47.8290
" />
<path d="M71.3179 47.8290
L71.3536 47.7576
" />
<path d="M71.3536 47.7576
L71.3536 47.5433
" />
<path d="M71.3536 47.5433
L71.3179 47.4718
" />
<path d="M71.3179 47.4718
L71.2821 47.4361
" />
<path d="M71.2821 47.4361
L71.2107 47.4004
" />
<path d="M71.2107 47.4004
L71.0679 47.4004
" />
<path d="M71.0679 47.4004
L70.9964 47.4361
" />
</g></g>
<g style="fill:#000000; fill-opacity:0.0; 
stroke:#000000; stroke-width:0.1200; stroke-opacity:1; 
stroke-linecap:round; stroke-linejoin:round;">
<path d="M87.9400 62.0600
L87.9400 57.9400
" />
<path d="M88.2400 62.0600
L87.9400 62.0600
" />
<path d="M90.2400 62.0600
L89.7600 62.0600
" />
<path d="M92.0600 62.0600
L91.7600 62.0600
" />
<path d="M92.0600 62.0600
L92.0600 57.9400
" />
<path d="M88.2400 57.9400
L87.9400 57.9400
" />
<path d="M90.2400 57.9400
L89.7600 57.9400
" />
<path d="M91.7600 57.9400
L91.7600 55.5600
" />
<path d="M92.0600 57.9400
L91.7600 57.9400
" />
<path d="M87.9400 67.9400
L92.0600 67.9400
" />
<path d="M87.9400 68.2400
L87.9400 67.9400
" />
<path d="M87.9400 70.2400
L87.9400 69.7600
" />
<path d="M87.9400 72.0600
L87.9400 71.7600
" />
<path d="M87.9400 72.0600
L92.0600 72.0600
" />
<path d="M92.0600 68.2400
L92.0600 67.9400
" />
<path d="M92.0600 70.2400
L92.0600 69.7600
" />
<path d="M92.0600 71.7600
L94.4400 71.7600
" />
<path d="M92.0600 72.0600
L92.0600 71.7600
" />
<g >
</g>
<g >
</g>
<g >
</g>
<g >
</g>
<g >
</g>
<g >
</g>
<g >
</g>
<g >
</g>
<g >
</g>
<g >
</g>
<g >
</g>
<g >
</g>
<g >
</g>
<g >
</g>
<g >
</g>
<g >
</g>
<g >
</g>
<g >
</g>
<g >
</g>
<g >
</g>
<g >
</g>
<g >
</g>
<g >
</g>
<g >
</g>
<g >
</g>
<g >
</g>
<g >
</g>
<g >
</g>
<g >
</g>
<g >
</g>
<g >
</g>
<g >
</g>
<g >
</g>
<g >
</g>
</g>
<g style="fill:#FFFFFF; fill-opacity:0.0; 
stroke:#FFFFFF; stroke-width:0.1200; stroke-opacity:1; 
stroke-linecap:round; stroke-linejoin:round;">
</g>
<g style="fill:#FFFFFF; fill-opacity:1.0000; 
stroke:#FFFFFF; stroke-width:0.0000; stroke-opacity:1; 
stroke-linecap:round; stroke-linejoin:round;">
<circle cx="86.8000" cy="63.6000" r="0.2000" /> 
</g>
<g style="fill:#FFFFFF; fill-opacity:1.0000; 
stroke:#FFFFFF; stroke-width:0.0212; stroke-opacity:1; 
stroke-linecap:round; stroke-linejoin:round;">
</g>
<g style="fill:#FFFFFF; fill-opacity:1.0000; 
stroke:#FFFFFF; stroke-width:0.0000; stroke-opacity:1; 
stroke-linecap:round; stroke-linejoin:round;">
<circle cx="74.0000" cy="52.0000" r="0.2000" /> 
</g>
<g style="fill:#FFFFFF; fill-opacity:1.0000; 
stroke:#FFFFFF; stroke-width:0.0212; stroke-opacity:1; 
stroke-linecap:round; stroke-linejoin:round;">
</g>
<g style="fill:#FFFFFF; fill-opacity:1.0000; 
stroke:#FFFFFF; stroke-width:0.0000; stroke-opacity:1; 
stroke-linecap:round; stroke-linejoin:round;">
<circle cx="89.9282" cy="58.8038" r="0.2000" /> 
</g>
<g style="fill:#FFFFFF; fill-opacity:1.0000; 
stroke:#FFFFFF; stroke-width:0.0212; stroke-opacity:1; 
stroke-linecap:round; stroke-linejoin:round;">
</g>
<g style="fill:#FFFFFF; fill-opacity:1.0000; 
stroke:#FFFFFF; stroke-width:0.0000; stroke-opacity:1; 
stroke-linecap:round; stroke-linejoin:round;">
<circle cx="70.0718" cy="61.1962" r="0.2000" /> 
</g>
<g style="fill:#FFFFFF; fill-opacity:1.0000; 
stroke:#FFFFFF; stroke-width:0.0212; stroke-opacity:1; 
stroke-linecap:round; stroke-linejoin:round;">
</g>
<g style="fill:#FFFFFF; fill-opacity:1.0000; 
stroke:#FFFFFF; stroke-width:0.0000; stroke-opacity:1; 
stroke-linecap:round; stroke-linejoin:round;">
<circle cx="76.0718" cy="69.1962" r="0.2000" /> 
</g>
<g style="fill:#FFFFFF; fill-opacity:1.0000; 
stroke:#FFFFFF; stroke-width:0.0212; stroke-opacity:1; 
stroke-linecap:round; stroke-linejoin:round;">
</g>
<g style="fill:#FFFFFF; fill-opacity:1.0000; 
stroke:#FFFFFF; stroke-width:0.0000; stroke-opacity:1; 
stroke-linecap:round; stroke-linejoin:round;">
<circle cx="81.1962" cy="69.9282" r="0.2000" /> 
</g>
<g style="fill:#FFFFFF; fill-opacity:1.0000; 
stroke:#FFFFFF; stroke-width:0.0212; stroke-opacity:1; 
stroke-linecap:round; stroke-linejoin:round;">
</g>
<g style="fill:#FFFFFF; fill-opacity:1.0000; 
stroke:#FFFFFF; stroke-width:0.0000; stroke-opacity:1; 
stroke-linecap:round; stroke-linejoin:round;">
<circle cx="83.9282" cy="50.8038" r="0.2000" /> 
</g>
<g style="fill:#FFFFFF; fill-opacity:1.0000; 
stroke:#FFFFFF; stroke-width:0.0212; stroke-opacity:1; 
stroke-linecap:round; stroke-linejoin:round;">
</g>
<g style="fill:#FFFFFF; fill-opacity:1.0000; 
stroke:#FFFFFF; stroke-width:0.0000; stroke-opacity:1; 
stroke-linecap:round; stroke-linejoin:round;">
<circle cx="72.0000" cy="66.0000" r="0.2000" /> 
</g>
<g style="fill:#FFFFFF; fill-opacity:1.0000; 
stroke:#FFFFFF; stroke-width:0.0212; stroke-opacity:1; 
stroke-linecap:round; stroke-linejoin:round;">
</g>
<g style="fill:#FFFFFF; fill-opacity:1.0000; 
stroke:#FFFFFF; stroke-width:0.0000; stroke-opacity:1; 
stroke-linecap:round; stroke-linejoin:round;">
<circle cx="86.4000" cy="67.7000" r="0.2000" /> 
</g>
<g style="fill:#FFFFFF; fill-opacity:1.0000; 
stroke:#FFFFFF; stroke-width:0.0212; stroke-opacity:1; 
stroke-linecap:round; stroke-linejoin:round;">
</g>
<g style="fill:#FFFFFF; fill-opacity:1.0000; 
stroke:#FFFFFF; stroke-width:0.0000; stroke-opacity:1; 
stroke-linecap:round; stroke-linejoin:round;">
<circle cx="70.8038" cy="56.0718" r="0.2000" /> 
</g>
<g style="fill:#FFFFFF; fill-opacity:1.0000; 
stroke:#FFFFFF; stroke-width:0.0212; stroke-opacity:1; 
stroke-linecap:round; stroke-linejoin:round;">
</g>
<g style="fill:#FFFFFF; fill-opacity:1.0000; 
stroke:#FFFFFF; stroke-width:0.0000; stroke-opacity:1; 
stroke-linecap:round; stroke-linejoin:round;">
<circle cx="88.0000" cy="54.0000" r="0.2000" /> 
</g>
<g style="fill:#FFFFFF; fill-opacity:1.0000; 
stroke:#FFFFFF; stroke-width:0.0212; stroke-opacity:1; 
stroke-linecap:round; stroke-linejoin:round;">
</g>
<g style="fill:#FFFFFF; fill-opacity:1.0000; 
stroke:#FFFFFF; stroke-width:0.0000; stroke-opacity:1; 
stroke-linecap:round; stroke-linejoin:round;">
<circle cx="88.5000" cy="66.0000" r="0.2000" /> 
</g>
<g style="fill:#FFFFFF; fill-opacity:1.0000; 
stroke:#FFFFFF; stroke-width:0.0212; stroke-opacity:1; 
stroke-linecap:round; stroke-linejoin:round;">
</g>
<g style="fill:#FFFFFF; fill-opacity:1.0000; 
stroke:#FFFFFF; stroke-width:0.0000; stroke-opacity:1; 
stroke-linecap:round; stroke-linejoin:round;">
<circle cx="78.8038" cy="50.0718" r="0.2000" /> 
</g>
<g style="fill:#FFFFFF; fill-opacity:1.0000; 
stroke:#FFFFFF; stroke-width:0.0212; stroke-opacity:1; 
stroke-linecap:round; stroke-linejoin:round;">
</g>
<g style="fill:#FFFFFF; fill-opacity:1.0000; 
stroke:#FFFFFF; stroke-width:0.0000; stroke-opacity:1; 
stroke-linecap:round; stroke-linejoin:round;">
<circle cx="92.0000" cy="62.1000" r="0.2000" /> 
</g>
<g style="fill:#FFFFFF; fill-opacity:1.0000; 
stroke:#FFFFFF; stroke-width:0.0212; stroke-opacity:1; 
stroke-linecap:round; stroke-linejoin:round;">
</g>
<g style="fill:#FFFFFF; fill-opacity:1.0000; 
stroke:#FFFFFF; stroke-width:0.0000; stroke-opacity:1; 
stroke-linecap:round; stroke-linejoin:round;">
<circle cx="85.9000" cy="72.0000" r="0.2000" /> 
</g>
<g style="fill:#FFFFFF; fill-opacity:1.0000; 
stroke:#FFFFFF; stroke-width:0.0212; stroke-opacity:1; 
stroke-linecap:round; stroke-linejoin:round;">
</g>
<g style="fill:#FFFFFF; fill-opacity:1.0000; 
stroke:#FFFFFF; stroke-width:0.0000; stroke-opacity:1; 
stroke-linecap:round; stroke-linejoin:round;">
<circle cx="92.0000" cy="63.1000" r="0.2000" /> 
</g>
<g style="fill:#FFFFFF; fill-opacity:1.0000; 
stroke:#FFFFFF; stroke-width:0.0212; stroke-opacity:1; 
stroke-linecap:round; stroke-linejoin:round;">
</g>
<g style="fill:#FFFFFF; fill-opacity:1.0000; 
stroke:#FFFFFF; stroke-width:0.0000; stroke-opacity:1; 
stroke-linecap:round; stroke-linejoin:round;">
<circle cx="92.0000" cy="64.1000" r="0.2000" /> 
</g>
<g style="fill:#FFFFFF; fill-opacity:1.0000; 
stroke:#FFFFFF; stroke-width:0.0212; stroke-opacity:1; 
stroke-linecap:round; stroke-linejoin:round;">
</g>
<g style="fill:#FFFFFF; fill-opacity:1.0000; 
stroke:#FFFFFF; stroke-width:0.0000; stroke-opacity:1; 
stroke-linecap:round; stroke-linejoin:round;">
<circle cx="87.9000" cy="72.0000" r="0.2000" /> 
</g>
<g style="fill:#FFFFFF; fill-opacity:1.0000; 
stroke:#FFFFFF; stroke-width:0.0212; stroke-opacity:1; 
stroke-linecap:round; stroke-linejoin:round;">
</g>
<g style="fill:#FFFFFF; fill-opacity:1.0000; 
stroke:#FFFFFF; stroke-width:0.0000; stroke-opacity:1; 
stroke-linecap:round; stroke-linejoin:round;">
<circle cx="86.9000" cy="72.0000" r="0.2000" /> 
</g>
<g style="fill:#FFFFFF; fill-opacity:1.0000; 
stroke:#FFFFFF; stroke-width:0.0212; stroke-opacity:1; 
stroke-linecap:round; stroke-linejoin:round;">
</g>
<g style="fill:#FFFFFF; fill-opacity:1.0000; 
stroke:#FFFFFF; stroke-width:0.0000; stroke-opacity:1; 
stroke-linecap:round; stroke-linejoin:round;">
<circle cx="87.9100" cy="61.8200" r="0.2000" /> 
</g>
<g style="fill:#FFFFFF; fill-opacity:1.0000; 
stroke:#FFFFFF; stroke-width:0.0212; stroke-opacity:1; 
stroke-linecap:round; stroke-linejoin:round;">
</g>
<g style="fill:#FFFFFF; fill-opacity:1.0000; 
stroke:#FFFFFF; stroke-width:0.0000; stroke-opacity:1; 
stroke-linecap:round; stroke-linejoin:round;">
<circle cx="68.0000" cy="48.0000" r="1.1000" /> 
</g>
<g style="fill:#FFFFFF; fill-opacity:1.0000; 
stroke:#FFFFFF; stroke-width:0.0212; stroke-opacity:1; 
stroke-linecap:round; stroke-linejoin:round;">
</g>
<g style="fill:#FFFFFF; fill-opacity:1.0000; 
stroke:#FFFFFF; stroke-width:0.0000; stroke-opacity:1; 
stroke-linecap:round; stroke-linejoin:round;">
<circle cx="92.0000" cy="48.0000" r="1.1000" /> 
</g>
<g style="fill:#FFFFFF; fill-opacity:1.0000; 
stroke:#FFFFFF; stroke-width:0.0212; stroke-opacity:1; 
stroke-linecap:round; stroke-linejoin:round;">
</g>
<g style="fill:#FFFFFF; fill-opacity:1.0000; 
stroke:#FFFFFF; stroke-width:0.0000; stroke-opacity:1; 
stroke-linecap:round; stroke-linejoin:round;">
<circle cx="68.0000" cy="72.0000" r="1.1000" /> 
</g>
<g style="fill:#FFFFFF; fill-opacity:1.0000; 
stroke:#FFFFFF; stroke-width:0.0212; stroke-opacity:1; 
stroke-linecap:round; stroke-linejoin:round;">
</g>
<g style="fill:#000000; fill-opacity:1.0000; 
stroke:#000000; stroke-width:0.0212; stroke-opacity:1; 
stroke-linecap:round; stroke-linejoin:round;">
</g> 
</svg>
