<?xml version="1.0" standalone="no"?>
 <!DOCTYPE svg PUBLIC "-//W3C//DTD SVG 1.1//EN" 
 "http://www.w3.org/Graphics/SVG/1.1/DTD/svg11.dtd"> 
<svg
  xmlns:svg="http://www.w3.org/2000/svg"
  xmlns="http://www.w3.org/2000/svg"
  xmlns:xlink="http://www.w3.org/1999/xlink"
  version="1.1"
  width="297.0022mm" height="210.0072mm" viewBox="0.0000 0.0000 297.0022 210.0072">
<title>SVG Image created as pedalboard-led-ring-B_Cu.svg date 2023/06/03 19:21:59 </title>
  <desc>Image generated by PCBNEW </desc>
<g style="fill:#000000; fill-opacity:1.0000;stroke:#000000; stroke-opacity:1.0000;
stroke-linecap:round; stroke-linejoin:round;"
 transform="translate(0 0) scale(1 1)">
</g>
<g style="fill:#000000; fill-opacity:0.0; 
stroke:#000000; stroke-width:0.0000; stroke-opacity:1; 
stroke-linecap:round; stroke-linejoin:round;">
<g >
</g>
<g >
</g>
<g >
</g>
<g >
</g>
<g >
</g>
<g >
</g>
<g >
</g>
<g >
</g>
<g >
</g>
<g >
</g>
<g >
</g>
<g >
</g>
<g >
</g>
<g >
</g>
<g >
</g>
<g >
</g>
<g >
</g>
<g >
</g>
<g >
</g>
<g >
</g>
<g >
</g>
<g >
</g>
<g >
</g>
<g >
</g>
<g >
</g>
<g >
</g>
<g >
</g>
<g >
</g>
<g >
</g>
<g >
</g>
<g style="fill:#000000; fill-opacity:0.0; 
stroke:#000000; stroke-width:0.0000; stroke-opacity:1; 
stroke-linecap:round; stroke-linejoin:round;">
</g>
<g style="fill:#000000; fill-opacity:0.0; 
stroke:#000000; stroke-width:0.0000; stroke-opacity:1; 
stroke-linecap:round; stroke-linejoin:round;">
</g>
<g style="fill:#000000; fill-opacity:1.0000; 
stroke:#000000; stroke-width:0.0000; stroke-opacity:1; 
stroke-linecap:round; stroke-linejoin:round;">
<path style="fill:#000000; fill-opacity:1.0000; 
stroke:#000000; stroke-width:0.0000; stroke-opacity:1; 
stroke-linecap:round; stroke-linejoin:round;fill-rule:evenodd;"
d="M 91.5000,58.2500
90.5000,58.2500
90.5000,55.5000
91.5000,55.5000
Z" /> 
<path style="fill:#000000; fill-opacity:1.0000; 
stroke:#000000; stroke-width:0.0000; stroke-opacity:1; 
stroke-linecap:round; stroke-linejoin:round;fill-rule:evenodd;"
d="M 91.5000,64.5000
90.5000,64.5000
90.5000,61.7500
91.5000,61.7500
Z" /> 
<path style="fill:#000000; fill-opacity:1.0000; 
stroke:#000000; stroke-width:0.0000; stroke-opacity:1; 
stroke-linecap:round; stroke-linejoin:round;fill-rule:evenodd;"
d="M 89.5000,58.2500
88.5000,58.2500
88.5000,55.5000
89.5000,55.5000
Z" /> 
<path style="fill:#000000; fill-opacity:1.0000; 
stroke:#000000; stroke-width:0.0000; stroke-opacity:1; 
stroke-linecap:round; stroke-linejoin:round;fill-rule:evenodd;"
d="M 89.5000,64.5000
88.5000,64.5000
88.5000,61.7500
89.5000,61.7500
Z" /> 
</g>
<g >
</g>
<g style="fill:#000000; fill-opacity:1.0000; 
stroke:#000000; stroke-width:0.0000; stroke-opacity:1; 
stroke-linecap:round; stroke-linejoin:round;">
<path style="fill:#000000; fill-opacity:1.0000; 
stroke:#000000; stroke-width:0.0000; stroke-opacity:1; 
stroke-linecap:round; stroke-linejoin:round;fill-rule:evenodd;"
d="M 88.7500,69.5000
88.7500,68.5000
91.5000,68.5000
91.5000,69.5000
Z" /> 
<path style="fill:#000000; fill-opacity:1.0000; 
stroke:#000000; stroke-width:0.0000; stroke-opacity:1; 
stroke-linecap:round; stroke-linejoin:round;fill-rule:evenodd;"
d="M 82.5000,69.5000
82.5000,68.5000
85.2500,68.5000
85.2500,69.5000
Z" /> 
<path style="fill:#000000; fill-opacity:1.0000; 
stroke:#000000; stroke-width:0.0000; stroke-opacity:1; 
stroke-linecap:round; stroke-linejoin:round;fill-rule:evenodd;"
d="M 88.7500,67.5000
88.7500,66.5000
91.5000,66.5000
91.5000,67.5000
Z" /> 
<path style="fill:#000000; fill-opacity:1.0000; 
stroke:#000000; stroke-width:0.0000; stroke-opacity:1; 
stroke-linecap:round; stroke-linejoin:round;fill-rule:evenodd;"
d="M 82.5000,67.5000
82.5000,66.5000
85.2500,66.5000
85.2500,67.5000
Z" /> 
</g>
<g >
</g>
<g style="fill:#000000; fill-opacity:1.0000; 
stroke:#000000; stroke-width:0.0000; stroke-opacity:1; 
stroke-linecap:round; stroke-linejoin:round;">
<circle cx="86.8000" cy="63.6000" r="0.4000" /> 
</g>
<g style="fill:#000000; fill-opacity:1.0000; 
stroke:#000000; stroke-width:0.0212; stroke-opacity:1; 
stroke-linecap:round; stroke-linejoin:round;">
</g>
<g style="fill:#000000; fill-opacity:1.0000; 
stroke:#000000; stroke-width:0.0000; stroke-opacity:1; 
stroke-linecap:round; stroke-linejoin:round;">
<circle cx="74.0000" cy="52.0000" r="0.4000" /> 
</g>
<g style="fill:#000000; fill-opacity:1.0000; 
stroke:#000000; stroke-width:0.0212; stroke-opacity:1; 
stroke-linecap:round; stroke-linejoin:round;">
</g>
<g style="fill:#000000; fill-opacity:1.0000; 
stroke:#000000; stroke-width:0.0000; stroke-opacity:1; 
stroke-linecap:round; stroke-linejoin:round;">
<circle cx="89.9282" cy="58.8038" r="0.4000" /> 
</g>
<g style="fill:#000000; fill-opacity:1.0000; 
stroke:#000000; stroke-width:0.0212; stroke-opacity:1; 
stroke-linecap:round; stroke-linejoin:round;">
</g>
<g style="fill:#000000; fill-opacity:1.0000; 
stroke:#000000; stroke-width:0.0000; stroke-opacity:1; 
stroke-linecap:round; stroke-linejoin:round;">
<circle cx="70.0718" cy="61.1962" r="0.4000" /> 
</g>
<g style="fill:#000000; fill-opacity:1.0000; 
stroke:#000000; stroke-width:0.0212; stroke-opacity:1; 
stroke-linecap:round; stroke-linejoin:round;">
</g>
<g style="fill:#000000; fill-opacity:1.0000; 
stroke:#000000; stroke-width:0.0000; stroke-opacity:1; 
stroke-linecap:round; stroke-linejoin:round;">
<circle cx="76.0718" cy="69.1962" r="0.4000" /> 
</g>
<g style="fill:#000000; fill-opacity:1.0000; 
stroke:#000000; stroke-width:0.0212; stroke-opacity:1; 
stroke-linecap:round; stroke-linejoin:round;">
</g>
<g style="fill:#000000; fill-opacity:1.0000; 
stroke:#000000; stroke-width:0.0000; stroke-opacity:1; 
stroke-linecap:round; stroke-linejoin:round;">
<circle cx="81.1962" cy="69.9282" r="0.4000" /> 
</g>
<g style="fill:#000000; fill-opacity:1.0000; 
stroke:#000000; stroke-width:0.0212; stroke-opacity:1; 
stroke-linecap:round; stroke-linejoin:round;">
</g>
<g style="fill:#000000; fill-opacity:1.0000; 
stroke:#000000; stroke-width:0.0000; stroke-opacity:1; 
stroke-linecap:round; stroke-linejoin:round;">
<circle cx="83.9282" cy="50.8038" r="0.4000" /> 
</g>
<g style="fill:#000000; fill-opacity:1.0000; 
stroke:#000000; stroke-width:0.0212; stroke-opacity:1; 
stroke-linecap:round; stroke-linejoin:round;">
</g>
<g style="fill:#000000; fill-opacity:1.0000; 
stroke:#000000; stroke-width:0.0000; stroke-opacity:1; 
stroke-linecap:round; stroke-linejoin:round;">
<circle cx="72.0000" cy="66.0000" r="0.4000" /> 
</g>
<g style="fill:#000000; fill-opacity:1.0000; 
stroke:#000000; stroke-width:0.0212; stroke-opacity:1; 
stroke-linecap:round; stroke-linejoin:round;">
</g>
<g style="fill:#000000; fill-opacity:1.0000; 
stroke:#000000; stroke-width:0.0000; stroke-opacity:1; 
stroke-linecap:round; stroke-linejoin:round;">
<circle cx="86.4000" cy="67.7000" r="0.4000" /> 
</g>
<g style="fill:#000000; fill-opacity:1.0000; 
stroke:#000000; stroke-width:0.0212; stroke-opacity:1; 
stroke-linecap:round; stroke-linejoin:round;">
</g>
<g style="fill:#000000; fill-opacity:1.0000; 
stroke:#000000; stroke-width:0.0000; stroke-opacity:1; 
stroke-linecap:round; stroke-linejoin:round;">
<circle cx="70.8038" cy="56.0718" r="0.4000" /> 
</g>
<g style="fill:#000000; fill-opacity:1.0000; 
stroke:#000000; stroke-width:0.0212; stroke-opacity:1; 
stroke-linecap:round; stroke-linejoin:round;">
</g>
<g style="fill:#000000; fill-opacity:1.0000; 
stroke:#000000; stroke-width:0.0000; stroke-opacity:1; 
stroke-linecap:round; stroke-linejoin:round;">
<circle cx="88.0000" cy="54.0000" r="0.4000" /> 
</g>
<g style="fill:#000000; fill-opacity:1.0000; 
stroke:#000000; stroke-width:0.0212; stroke-opacity:1; 
stroke-linecap:round; stroke-linejoin:round;">
</g>
<g style="fill:#000000; fill-opacity:1.0000; 
stroke:#000000; stroke-width:0.0000; stroke-opacity:1; 
stroke-linecap:round; stroke-linejoin:round;">
<circle cx="88.2600" cy="66.0200" r="0.4000" /> 
</g>
<g style="fill:#000000; fill-opacity:1.0000; 
stroke:#000000; stroke-width:0.0212; stroke-opacity:1; 
stroke-linecap:round; stroke-linejoin:round;">
</g>
<g style="fill:#000000; fill-opacity:1.0000; 
stroke:#000000; stroke-width:0.0000; stroke-opacity:1; 
stroke-linecap:round; stroke-linejoin:round;">
<circle cx="78.8038" cy="50.0718" r="0.4000" /> 
</g>
<g style="fill:#000000; fill-opacity:1.0000; 
stroke:#000000; stroke-width:0.0212; stroke-opacity:1; 
stroke-linecap:round; stroke-linejoin:round;">
</g>
<g style="fill:#000000; fill-opacity:1.0000; 
stroke:#000000; stroke-width:0.0000; stroke-opacity:1; 
stroke-linecap:round; stroke-linejoin:round;">
<circle cx="90.3000" cy="61.4000" r="0.4000" /> 
</g>
<g style="fill:#000000; fill-opacity:1.0000; 
stroke:#000000; stroke-width:0.0212; stroke-opacity:1; 
stroke-linecap:round; stroke-linejoin:round;">
</g>
<g style="fill:#000000; fill-opacity:1.0000; 
stroke:#000000; stroke-width:0.0000; stroke-opacity:1; 
stroke-linecap:round; stroke-linejoin:round;">
<circle cx="83.0000" cy="70.0000" r="0.4000" /> 
</g>
<g style="fill:#000000; fill-opacity:1.0000; 
stroke:#000000; stroke-width:0.0212; stroke-opacity:1; 
stroke-linecap:round; stroke-linejoin:round;">
</g>
<g style="fill:#000000; fill-opacity:1.0000; 
stroke:#000000; stroke-width:0.0000; stroke-opacity:1; 
stroke-linecap:round; stroke-linejoin:round;">
<circle cx="91.1000" cy="61.4000" r="0.4000" /> 
</g>
<g style="fill:#000000; fill-opacity:1.0000; 
stroke:#000000; stroke-width:0.0212; stroke-opacity:1; 
stroke-linecap:round; stroke-linejoin:round;">
</g>
<g style="fill:#000000; fill-opacity:1.0000; 
stroke:#000000; stroke-width:0.0000; stroke-opacity:1; 
stroke-linecap:round; stroke-linejoin:round;">
<circle cx="91.1000" cy="64.9000" r="0.4000" /> 
</g>
<g style="fill:#000000; fill-opacity:1.0000; 
stroke:#000000; stroke-width:0.0212; stroke-opacity:1; 
stroke-linecap:round; stroke-linejoin:round;">
</g>
<g style="fill:#000000; fill-opacity:1.0000; 
stroke:#000000; stroke-width:0.0000; stroke-opacity:1; 
stroke-linecap:round; stroke-linejoin:round;">
<circle cx="90.3000" cy="64.9000" r="0.4000" /> 
</g>
<g style="fill:#000000; fill-opacity:1.0000; 
stroke:#000000; stroke-width:0.0212; stroke-opacity:1; 
stroke-linecap:round; stroke-linejoin:round;">
</g>
<g style="fill:#000000; fill-opacity:1.0000; 
stroke:#000000; stroke-width:0.0000; stroke-opacity:1; 
stroke-linecap:round; stroke-linejoin:round;">
<circle cx="85.0000" cy="70.0000" r="0.4000" /> 
</g>
<g style="fill:#000000; fill-opacity:1.0000; 
stroke:#000000; stroke-width:0.0212; stroke-opacity:1; 
stroke-linecap:round; stroke-linejoin:round;">
</g>
<g style="fill:#000000; fill-opacity:1.0000; 
stroke:#000000; stroke-width:0.0000; stroke-opacity:1; 
stroke-linecap:round; stroke-linejoin:round;">
<circle cx="86.0000" cy="69.5000" r="0.4000" /> 
</g>
<g style="fill:#000000; fill-opacity:1.0000; 
stroke:#000000; stroke-width:0.0212; stroke-opacity:1; 
stroke-linecap:round; stroke-linejoin:round;">
</g>
<g style="fill:#000000; fill-opacity:1.0000; 
stroke:#000000; stroke-width:0.0000; stroke-opacity:1; 
stroke-linecap:round; stroke-linejoin:round;">
<circle cx="84.0000" cy="70.0000" r="0.4000" /> 
</g>
<g style="fill:#000000; fill-opacity:1.0000; 
stroke:#000000; stroke-width:0.0212; stroke-opacity:1; 
stroke-linecap:round; stroke-linejoin:round;">
</g>
<g style="fill:#000000; fill-opacity:1.0000; 
stroke:#000000; stroke-width:0.0000; stroke-opacity:1; 
stroke-linecap:round; stroke-linejoin:round;">
<circle cx="87.9100" cy="61.8200" r="0.4000" /> 
</g>
<g style="fill:#000000; fill-opacity:1.0000; 
stroke:#000000; stroke-width:0.0212; stroke-opacity:1; 
stroke-linecap:round; stroke-linejoin:round;">
</g>
<g >
</g>
<g style="fill:#000000; fill-opacity:1.0000; 
stroke:#000000; stroke-width:0.0212; stroke-opacity:1; 
stroke-linecap:round; stroke-linejoin:round;">
</g>
<g style="fill:#000000; fill-opacity:1.0000; 
stroke:#000000; stroke-width:0.2500; stroke-opacity:1; 
stroke-linecap:round; stroke-linejoin:round;">
</g>
<g style="fill:#000000; fill-opacity:0.0; 
stroke:#000000; stroke-width:0.2500; stroke-opacity:1; 
stroke-linecap:round; stroke-linejoin:round;">
<path d="M88.6250 63.5000
L86.9000 63.5000
" />
<path d="M89.0000 63.1250
L88.6250 63.5000
" />
<path d="M86.8000 63.6000
L86.8000 64.8000
" />
<path d="M84.6000 67.0000
L83.8750 67.0000
" />
<path d="M86.9000 63.5000
L86.8000 63.6000
" />
<path d="M86.8000 64.8000
L84.6000 67.0000
" />
<path d="M85.5000 69.0000
L86.0000 69.5000
" />
<path d="M90.3000 61.4000
L90.3000 62.4250
" />
<path d="M83.8750 69.0000
L84.0000 69.0000
" />
<path d="M91.1000 63.2250
L91.0000 63.1250
" />
<path d="M91.1000 64.9000
L90.4000 64.9000
" />
<path d="M90.3000 63.8250
L91.0000 63.1250
" />
<path d="M90.3000 64.9000
L90.3000 63.8250
" />
<path d="M83.8750 69.0000
L83.8750 69.8750
" />
<path d="M90.3000 61.4000
L91.1000 61.4000
" />
<path d="M83.8750 69.0000
L85.5000 69.0000
" />
<path d="M90.3000 62.4250
L91.0000 63.1250
" />
<path d="M91.1000 61.4000
L91.1000 63.0250
" />
<path d="M91.1000 64.9000
L91.1000 63.2250
" />
<path d="M83.8750 69.8750
L84.0000 70.0000
" />
<path d="M83.8750 69.1250
L83.0000 70.0000
" />
<path d="M84.0000 69.0000
L85.0000 70.0000
" />
<path d="M91.1000 63.0250
L91.0000 63.1250
" />
<path d="M83.8750 69.0000
L83.8750 69.1250
" />
<path d="M91.0000 67.0000
L91.8300 66.1700
" />
<path d="M90.0080 60.6950
L89.5950 61.1080
" />
<path d="M88.0000 57.0000
L88.0000 61.7300
" />
<path d="M87.9100 61.6350
L87.9100 61.8200
" />
<path d="M89.5550 61.4450
L88.1000 61.4450
" />
<path d="M88.0000 61.7300
L87.9100 61.8200
" />
<path d="M89.5950 61.1080
L89.5950 61.4050
" />
<path d="M89.0000 56.8750
L88.1250 56.8750
" />
<path d="M88.1250 56.8750
L88.0000 57.0000
" />
<path d="M91.8300 60.8330
L91.6920 60.6950
" />
<path d="M89.5950 61.4050
L89.5550 61.4450
" />
<path d="M88.1000 61.4450
L87.9100 61.6350
" />
<path d="M91.6920 60.6950
L90.0080 60.6950
" />
<path d="M91.8300 66.1700
L91.8300 60.8330
" />
<path d="M90.1250 67.0000
L91.0000 67.0000
" />
</g>
<g >
</g>
<g style="fill:#000000; fill-opacity:0.0; 
stroke:#000000; stroke-width:0.2500; stroke-opacity:1; 
stroke-linecap:round; stroke-linejoin:round;">
<g >
</g>
<g style="fill:#000000; fill-opacity:1.0000; 
stroke:#000000; stroke-width:0.0000; stroke-opacity:1; 
stroke-linecap:round; stroke-linejoin:round;">
<path style="fill:#000000; fill-opacity:1.0000; 
stroke:#000000; stroke-width:0.0000; stroke-opacity:1; 
stroke-linecap:round; stroke-linejoin:round;fill-rule:evenodd;"
d="M 91.0021,48.0007
91.0455,48.0045
91.1738,48.0171
91.1897,48.0200
91.2576,48.0382
91.2590,48.0386
91.3533,48.0672
91.3664,48.0722
91.4357,48.1045
91.4381,48.1057
91.5230,48.1511
91.5281,48.1542
91.5952,48.2013
91.5982,48.2035
91.6329,48.2320
91.6713,48.2635
91.6749,48.2668
91.7332,48.3251
91.7365,48.3287
91.7965,48.4018
91.7987,48.4048
91.8458,48.4719
91.8489,48.4770
91.8943,48.5619
91.8955,48.5643
91.9278,48.6336
91.9328,48.6467
91.9614,48.7409
91.9618,48.7424
91.9800,48.8103
91.9829,48.8262
91.9955,48.9545
91.9993,48.9978
91.9995,49.0022
91.9995,60.3228
91.9806,60.3810
91.9311,60.4169
91.8699,60.4169
91.8437,60.4039
91.8317,60.3954
91.8317,60.3954
91.8317,60.3954
91.8317,60.3954
91.8302,60.3951
91.8064,60.3852
91.8051,60.3844
91.7647,60.3773
91.7605,60.3764
91.7342,60.3693
91.7208,60.3657
91.7208,60.3657
91.7164,60.3661
91.6799,60.3693
91.6756,60.3695
90.0244,60.3695
90.0201,60.3693
89.9792,60.3657
89.9395,60.3764
89.9353,60.3773
89.8949,60.3844
89.8949,60.3844
89.8936,60.3852
89.8698,60.3951
89.8683,60.3954
89.8683,60.3954
89.8347,60.4190
89.8311,60.4213
89.8229,60.4260
89.7955,60.4418
89.7692,60.4732
89.7662,60.4764
89.3764,60.8662
89.3732,60.8692
89.3418,60.8955
89.3418,60.8955
89.3213,60.9311
89.3190,60.9347
89.2954,60.9683
89.2954,60.9683
89.2951,60.9698
89.2852,60.9936
89.2844,60.9949
89.2844,60.9949
89.2773,61.0353
89.2764,61.0395
89.2746,61.0461
89.2413,61.0974
89.1842,61.1194
89.1790,61.1195
88.4245,61.1195
88.3663,61.1006
88.3303,61.0511
88.3255,61.0205
88.3255,58.5403
88.3444,58.4822
88.3939,58.4462
88.4438,58.4433
88.4716,58.4488
88.4802,58.4505
88.4802,58.4505
88.4803,58.4505
88.4803,58.4505
89.5197,58.4505
89.5197,58.4505
89.5782,58.4389
89.6446,58.3946
89.6889,58.3282
89.7005,58.2697
89.7005,57.0250
90.2000,57.0250
90.2000,58.2948
90.2029,58.3199
90.2482,58.4225
90.3275,58.5018
90.4301,58.5471
90.4552,58.5500
90.8500,58.5500
90.8500,58.5500
91.1500,58.5500
91.1500,58.5500
91.5448,58.5500
91.5448,58.5500
91.5699,58.5471
91.6725,58.5018
91.7518,58.4225
91.7971,58.3199
91.8000,58.2948
91.8000,58.2948
91.8000,57.0250
91.8000,57.0250
91.1500,57.0250
91.1500,57.0250
91.1500,58.5500
90.8500,58.5500
90.8500,57.0250
90.8500,57.0250
90.2000,57.0250
89.7005,57.0250
89.7005,56.7250
90.2000,56.7250
90.2000,56.7250
90.8500,56.7250
90.8500,56.7250
90.8500,55.2000
91.1500,55.2000
91.1500,56.7250
91.1500,56.7250
91.8000,56.7250
91.8000,56.7250
91.8000,55.4552
91.8000,55.4552
91.7971,55.4301
91.7518,55.3275
91.6725,55.2482
91.5699,55.2029
91.5448,55.2000
91.1500,55.2000
90.8500,55.2000
90.4552,55.2000
90.4552,55.2000
90.4301,55.2029
90.3275,55.2482
90.2482,55.3275
90.2029,55.4301
90.2000,55.4552
90.2000,56.7250
89.7005,56.7250
89.7005,55.4803
89.6889,55.4218
89.6446,55.3554
89.6445,55.3554
89.5782,55.3111
89.5782,55.3111
89.5782,55.3111
89.5782,55.3111
89.5198,55.2995
89.5197,55.2995
88.4803,55.2995
88.4803,55.2995
88.4802,55.2995
88.4218,55.3111
88.4218,55.3111
88.3555,55.3554
88.3554,55.3555
88.3111,55.4218
88.3111,55.4218
88.2995,55.4802
88.2995,55.4803
88.2995,56.4505
88.2806,56.5087
88.2311,56.5447
88.2005,56.5495
88.1414,56.5495
88.1371,56.5493
88.0962,56.5457
88.0962,56.5457
88.0566,56.5564
88.0523,56.5573
88.0120,56.5644
88.0119,56.5644
88.0106,56.5652
87.9868,56.5751
87.9853,56.5754
87.9853,56.5754
87.9517,56.5990
87.9481,56.6013
87.9399,56.6060
87.9125,56.6218
87.8862,56.6532
87.8833,56.6564
87.7814,56.7583
87.7782,56.7612
87.7468,56.7875
87.7468,56.7875
87.7263,56.8231
87.7240,56.8267
87.7004,56.8603
87.7004,56.8603
87.7001,56.8618
87.6902,56.8856
87.6894,56.8869
87.6894,56.8870
87.6823,56.9273
87.6814,56.9316
87.6707,56.9712
87.6707,56.9712
87.6743,57.0121
87.6745,57.0164
87.6745,61.2014
87.6556,61.2596
87.6134,61.2929
87.6072,61.2955
87.4817,61.3917
87.4817,61.3917
87.3855,61.5172
87.3855,61.5172
87.3250,61.6632
87.3250,61.6632
87.3043,61.8200
87.3043,61.8200
87.3250,61.9768
87.3250,61.9768
87.3855,62.1228
87.3855,62.1228
87.3855,62.1228
87.4817,62.2483
87.6072,62.3445
87.6072,62.3445
87.6072,62.3445
87.6574,62.3653
87.7532,62.4050
87.8708,62.4205
87.9100,62.4257
87.9100,62.4257
87.9100,62.4257
87.9414,62.4216
88.0668,62.4050
88.1626,62.3653
88.2236,62.3605
88.2758,62.3925
88.2992,62.4490
88.2995,62.4568
88.2995,63.0755
88.2806,63.1337
88.2311,63.1697
88.2005,63.1745
87.2655,63.1745
87.2073,63.1556
87.2052,63.1540
87.1028,63.0755
86.9568,63.0150
86.9568,63.0150
86.8000,62.9943
86.8000,62.9943
86.6432,63.0150
86.6432,63.0150
86.4972,63.0755
86.4972,63.0755
86.3717,63.1717
86.3717,63.1717
86.2755,63.2972
86.2755,63.2972
86.2150,63.4432
86.2150,63.4432
86.1943,63.6000
86.1943,63.6000
86.2150,63.7568
86.2150,63.7568
86.2755,63.9028
86.2755,63.9028
86.2755,63.9028
86.3717,64.0283
86.3983,64.0487
86.4358,64.0774
86.4704,64.1279
86.4745,64.1560
86.4745,64.6242
86.4556,64.6824
86.4455,64.6942
84.8692,66.2705
84.8147,66.2983
84.7992,66.2995
82.4803,66.2995
82.4803,66.2995
82.4802,66.2995
82.4218,66.3111
82.4218,66.3111
82.3555,66.3554
82.3554,66.3555
82.3111,66.4218
82.3111,66.4218
82.2995,66.4802
82.2995,66.4803
82.2995,67.5197
82.2995,67.5198
82.3111,67.5782
82.3111,67.5782
82.3554,67.6446
82.4218,67.6889
82.4662,67.6977
82.4802,67.7005
82.4802,67.7005
82.4803,67.7005
82.4803,67.7005
85.2697,67.7005
85.2697,67.7005
85.3282,67.6889
85.3946,67.6446
85.4389,67.5782
85.4505,67.5197
85.4505,66.6508
85.4694,66.5926
85.4795,66.5808
87.0186,65.0417
87.0218,65.0388
87.0532,65.0125
87.0737,64.9769
87.0760,64.9733
87.0996,64.9397
87.0999,64.9382
87.1098,64.9143
87.1106,64.9130
87.1177,64.8727
87.1186,64.8685
87.1293,64.8288
87.1257,64.7879
87.1255,64.7836
87.1255,64.1560
87.1444,64.0978
87.1642,64.0774
87.2283,64.0283
87.3245,63.9028
87.3313,63.8866
87.3710,63.8401
87.4227,63.8255
88.2005,63.8255
88.2587,63.8444
88.2947,63.8939
88.2995,63.9245
88.2995,64.5197
88.2995,64.5198
88.3111,64.5782
88.3111,64.5782
88.3554,64.6445
88.3554,64.6446
88.3555,64.6446
88.4189,64.6870
88.4218,64.6889
88.4662,64.6977
88.4802,64.7005
88.4802,64.7005
88.4803,64.7005
88.4803,64.7005
89.5197,64.7005
89.5197,64.7005
89.5782,64.6889
89.5782,64.6889
89.5878,64.6870
89.5884,64.6902
89.6330,64.6866
89.6851,64.7186
89.7086,64.7751
89.7080,64.7958
89.6943,64.9000
89.6943,64.9000
89.7150,65.0568
89.7150,65.0568
89.7755,65.2028
89.7755,65.2028
89.8717,65.3283
89.8717,65.3283
89.9972,65.4245
89.9972,65.4245
89.9972,65.4245
90.0980,65.4663
90.1432,65.4850
90.2608,65.5005
90.3000,65.5057
90.3000,65.5057
90.3000,65.5057
90.3314,65.5016
90.4568,65.4850
90.6028,65.4245
90.6397,65.3962
90.6974,65.3758
90.7561,65.3932
90.7603,65.3962
90.7972,65.4245
90.7972,65.4245
90.7972,65.4245
90.8980,65.4663
90.9432,65.4850
91.0608,65.5005
91.1000,65.5057
91.1000,65.5057
91.1000,65.5057
91.1314,65.5016
91.2568,65.4850
91.3676,65.4391
91.4286,65.4343
91.4808,65.4663
91.5042,65.5228
91.5045,65.5306
91.5045,65.9942
91.4856,66.0524
91.4755,66.0642
91.2692,66.2705
91.2147,66.2983
91.1992,66.2995
88.7303,66.2995
88.7303,66.2995
88.7302,66.2995
88.6718,66.3111
88.6718,66.3111
88.6055,66.3554
88.6054,66.3555
88.5611,66.4218
88.5611,66.4218
88.5495,66.4802
88.5495,66.4803
88.5495,67.5197
88.5495,67.5198
88.5611,67.5782
88.5611,67.5782
88.6054,67.6446
88.6718,67.6889
88.7162,67.6977
88.7302,67.7005
88.7302,67.7005
88.7303,67.7005
88.7303,67.7005
91.5197,67.7005
91.5197,67.7005
91.5782,67.6889
91.6446,67.6446
91.6889,67.5782
91.7005,67.5197
91.7005,66.8008
91.7194,66.7426
91.7295,66.7308
91.8305,66.6298
91.8850,66.6021
91.9454,66.6116
91.9887,66.6549
91.9995,66.6998
91.9995,70.9978
91.9993,71.0022
91.9955,71.0455
91.9829,71.1738
91.9800,71.1897
91.9618,71.2576
91.9614,71.2591
91.9328,71.3533
91.9278,71.3664
91.8955,71.4357
91.8943,71.4381
91.8489,71.5230
91.8458,71.5281
91.7987,71.5952
91.7965,71.5982
91.7365,71.6713
91.7332,71.6749
91.6749,71.7332
91.6713,71.7365
91.5982,71.7965
91.5952,71.7987
91.5281,71.8458
91.5230,71.8489
91.4381,71.8943
91.4357,71.8955
91.3664,71.9278
91.3533,71.9328
91.2591,71.9614
91.2576,71.9618
91.1897,71.9800
91.1738,71.9829
91.0455,71.9955
91.0022,71.9993
90.9978,71.9995
69.0022,71.9995
68.9978,71.9993
68.9545,71.9955
68.8262,71.9829
68.8103,71.9800
68.7734,71.9701
68.7424,71.9618
68.7409,71.9614
68.6467,71.9328
68.6336,71.9278
68.5643,71.8955
68.5619,71.8943
68.4770,71.8489
68.4719,71.8458
68.4048,71.7987
68.4018,71.7965
68.3287,71.7365
68.3251,71.7332
68.2668,71.6749
68.2635,71.6713
68.2035,71.5982
68.2013,71.5952
68.1542,71.5281
68.1511,71.5230
68.1057,71.4381
68.1045,71.4357
68.0722,71.3664
68.0672,71.3533
68.0386,71.2590
68.0382,71.2576
68.0200,71.1897
68.0171,71.1738
68.0045,71.0454
68.0039,71.0385
68.0007,71.0021
68.0005,70.9978
68.0005,70.0000
68.6443,70.0000
68.6649,70.2354
68.7261,70.4637
68.8260,70.6778
68.8260,70.6778
68.8260,70.6778
68.8260,70.6778
68.9615,70.8714
69.1286,71.0385
69.1286,71.0385
69.1286,71.0385
69.1929,71.0835
69.3222,71.1740
69.3222,71.1740
69.3222,71.1740
69.3222,71.1740
69.5363,71.2739
69.5363,71.2739
69.7646,71.3351
69.7646,71.3351
69.7646,71.3351
69.9410,71.3505
69.9410,71.3505
70.0590,71.3505
70.2354,71.3351
70.2354,71.3351
70.2354,71.3351
70.4637,71.2739
70.6778,71.1740
70.8714,71.0385
71.0385,70.8714
71.1740,70.6778
71.2739,70.4637
71.3351,70.2354
71.3351,70.2354
71.3557,70.0000
71.3557,70.0000
71.3351,69.7646
71.3351,69.7646
71.3351,69.7646
71.2739,69.5363
71.2662,69.5198
71.2662,69.5197
82.2995,69.5197
82.2995,69.5198
82.3111,69.5782
82.3111,69.5782
82.3554,69.6446
82.3972,69.6725
82.3990,69.6736
82.4368,69.7217
82.4392,69.7828
82.4354,69.7938
82.4150,69.8432
82.3943,70.0000
82.3943,70.0000
82.4150,70.1568
82.4150,70.1568
82.4755,70.3028
82.4755,70.3028
82.4755,70.3028
82.5717,70.4283
82.6972,70.5245
82.8432,70.5850
82.9608,70.6005
83.0000,70.6057
83.0000,70.6057
83.0000,70.6057
83.0314,70.6016
83.1568,70.5850
83.3028,70.5245
83.4283,70.4283
83.4283,70.4283
83.4300,70.4266
83.4315,70.4258
83.4334,70.4243
83.4337,70.4247
83.4845,70.3988
83.5449,70.4084
83.5700,70.4266
83.5717,70.4283
83.5717,70.4283
83.6972,70.5245
83.8432,70.5850
83.9608,70.6005
84.0000,70.6057
84.0000,70.6057
84.0000,70.6057
84.0314,70.6016
84.1568,70.5850
84.3028,70.5245
84.4283,70.4283
84.4283,70.4283
84.4300,70.4266
84.4315,70.4258
84.4334,70.4243
84.4337,70.4247
84.4845,70.3988
84.5449,70.4084
84.5700,70.4266
84.5717,70.4283
84.5717,70.4283
84.6972,70.5245
84.8432,70.5850
84.9608,70.6005
85.0000,70.6057
85.0000,70.6057
85.0000,70.6057
85.0314,70.6016
85.1568,70.5850
85.3028,70.5245
85.4283,70.4283
85.5245,70.3028
85.5850,70.1568
85.5905,70.1153
85.6168,70.0600
85.6706,70.0308
85.7265,70.0367
85.8432,70.0850
85.9608,70.1005
86.0000,70.1057
86.0000,70.1057
86.0000,70.1057
86.0314,70.1016
86.1568,70.0850
86.3028,70.0245
86.4283,69.9283
86.5245,69.8028
86.5850,69.6568
86.5998,69.5448
88.4500,69.5448
88.4529,69.5699
88.4982,69.6725
88.5775,69.7518
88.6801,69.7971
88.7052,69.8000
89.9750,69.8000
89.9750,69.8000
89.9750,69.1500
89.9750,69.1500
90.2750,69.1500
90.2750,69.8000
90.2750,69.8000
91.5448,69.8000
91.5448,69.8000
91.5699,69.7971
91.6725,69.7518
91.7518,69.6725
91.7971,69.5699
91.8000,69.5448
91.8000,69.5448
91.8000,69.1500
91.8000,69.1500
90.2750,69.1500
89.9750,69.1500
88.4500,69.1500
88.4500,69.1500
88.4500,69.5448
86.5998,69.5448
86.6057,69.5000
86.5850,69.3432
86.5245,69.1972
86.5245,69.1972
86.4283,69.0717
86.4283,69.0717
86.4283,69.0717
86.4283,69.0717
86.4283,69.0717
86.3028,68.9755
86.1568,68.9150
86.1568,68.9150
86.0000,68.8943
86.0000,68.8943
85.9200,68.9049
85.8598,68.8937
85.8370,68.8767
85.8103,68.8500
88.4500,68.8500
88.4500,68.8500
89.9750,68.8500
89.9750,68.8500
89.9750,68.2000
89.9750,68.2000
90.2750,68.2000
90.2750,68.8500
90.2750,68.8500
91.8000,68.8500
91.8000,68.8500
91.8000,68.4552
91.8000,68.4552
91.7971,68.4301
91.7518,68.3275
91.6725,68.2482
91.5699,68.2029
91.5448,68.2000
90.2750,68.2000
89.9750,68.2000
88.7052,68.2000
88.7052,68.2000
88.6801,68.2029
88.5775,68.2482
88.4982,68.3275
88.4529,68.4301
88.4500,68.4552
88.4500,68.8500
85.8103,68.8500
85.7417,68.7814
85.7388,68.7782
85.7125,68.7468
85.6898,68.7337
85.6769,68.7263
85.6733,68.7240
85.6397,68.7004
85.6397,68.7004
85.6382,68.7001
85.6143,68.6902
85.6130,68.6894
85.5727,68.6823
85.5684,68.6814
85.5288,68.6707
85.5239,68.6694
85.4726,68.6361
85.4506,68.5790
85.4505,68.5738
85.4505,68.4803
85.4505,68.4802
85.4455,68.4552
85.4389,68.4218
85.3946,68.3554
85.3945,68.3554
85.3282,68.3111
85.3282,68.3111
85.3282,68.3111
85.3282,68.3111
85.2698,68.2995
85.2697,68.2995
82.4803,68.2995
82.4803,68.2995
82.4802,68.2995
82.4218,68.3111
82.4218,68.3111
82.3555,68.3554
82.3554,68.3555
82.3111,68.4218
82.3111,68.4218
82.2995,68.4802
82.2995,68.4803
82.2995,69.5197
71.2662,69.5197
71.1740,69.3222
71.1740,69.3222
71.0385,69.1286
71.0385,69.1286
71.0385,69.1286
70.8714,68.9615
70.8714,68.9615
70.8714,68.9615
70.6778,68.8260
70.6778,68.8260
70.4637,68.7261
70.4637,68.7261
70.3539,68.6967
70.2354,68.6649
70.2354,68.6649
70.2354,68.6649
70.0590,68.6495
70.0590,68.6495
69.9410,68.6495
69.9410,68.6495
69.7646,68.6649
69.5363,68.7261
69.3222,68.8260
69.3222,68.8260
69.1286,68.9615
68.9615,69.1286
68.8260,69.3222
68.7261,69.5363
68.6649,69.7646
68.6443,70.0000
68.6443,70.0000
68.0005,70.0000
68.0005,60.0000
73.8945,60.0000
73.9143,60.4913
73.9143,60.4913
73.9143,60.4913
73.9143,60.4913
73.9736,60.9794
73.9736,60.9794
74.0720,61.4611
74.0720,61.4611
74.2087,61.9334
74.2088,61.9334
74.2806,62.1228
74.3831,62.3931
74.5129,62.6667
74.5926,62.8346
74.5939,62.8373
74.8397,63.2632
74.9096,63.3643
75.1190,63.6678
75.4300,64.0487
75.7696,64.4022
75.7706,64.4033
76.0905,64.6866
76.1386,64.7293
76.1386,64.7293
76.5317,65.0247
76.7159,65.1412
76.9473,65.2875
76.9473,65.2875
76.9473,65.2875
76.9473,65.2875
77.3346,65.4908
77.3826,65.5160
77.8350,65.7087
78.0655,65.7857
78.3013,65.8644
78.3014,65.8644
78.3014,65.8644
78.7788,65.9821
79.2641,66.0609
79.7542,66.1005
79.7542,66.1005
80.2458,66.1005
80.2458,66.1005
80.7359,66.0609
81.2212,65.9821
81.6986,65.8644
82.1650,65.7087
82.6174,65.5160
82.8631,65.3870
83.0527,65.2875
83.0527,65.2875
83.0527,65.2875
83.4683,65.0247
83.8614,64.7293
84.2294,64.4033
84.5700,64.0487
84.8810,63.6678
85.1603,63.2632
85.4061,62.8373
85.6169,62.3931
85.7912,61.9334
85.7912,61.9334
85.7912,61.9334
85.9280,61.4611
85.9280,61.4611
85.9280,61.4611
86.0264,60.9794
86.0594,60.7073
86.0857,60.4913
86.0857,60.4913
86.0857,60.4913
86.1055,60.0000
86.0857,59.5087
86.0857,59.5087
86.0857,59.5087
86.0264,59.0206
86.0264,59.0206
85.9280,58.5389
85.9280,58.5389
85.7912,58.0666
85.7912,58.0666
85.7732,58.0189
85.6169,57.6069
85.4061,57.1627
85.1603,56.7368
84.9626,56.4505
84.8810,56.3322
84.5700,55.9513
84.2294,55.5967
84.0979,55.4802
83.9534,55.3522
83.8614,55.2707
83.8614,55.2707
83.4683,54.9753
83.1770,54.7911
83.0527,54.7125
83.0527,54.7125
83.0527,54.7125
83.0527,54.7125
82.6174,54.4840
82.6174,54.4840
82.6174,54.4840
82.6174,54.4840
82.1650,54.2913
82.1650,54.2913
82.1650,54.2913
81.6987,54.1356
81.6986,54.1356
81.3373,54.0465
81.2212,54.0179
80.7359,53.9391
80.7359,53.9391
80.4610,53.9169
80.2458,53.8995
79.7542,53.8995
79.5563,53.9155
79.2641,53.9391
78.7788,54.0179
78.3014,54.1356
78.3013,54.1356
77.8350,54.2913
77.5424,54.4160
77.3826,54.4840
77.3826,54.4840
77.3826,54.4840
77.3826,54.4840
76.9473,54.7125
76.9473,54.7125
76.5317,54.9753
76.1386,55.2707
76.1386,55.2707
75.7706,55.5967
75.4300,55.9513
75.1190,56.3322
74.8397,56.7368
74.5939,57.1627
74.3831,57.6069
74.2088,58.0666
74.2087,58.0666
74.0720,58.5389
74.0720,58.5389
73.9736,59.0206
73.9736,59.0206
73.9143,59.5087
73.9143,59.5087
73.9143,59.5087
73.9143,59.5087
73.8945,60.0000
68.0005,60.0000
68.0005,50.0000
68.6443,50.0000
68.6649,50.2354
68.7261,50.4637
68.8260,50.6778
68.8260,50.6778
68.8260,50.6778
68.8260,50.6778
68.9615,50.8714
69.1286,51.0385
69.3222,51.1740
69.3222,51.1740
69.3222,51.1740
69.3222,51.1740
69.5363,51.2739
69.5363,51.2739
69.7646,51.3351
69.7646,51.3351
69.7646,51.3351
69.9410,51.3505
69.9410,51.3505
70.0590,51.3505
70.2354,51.3351
70.2354,51.3351
70.2354,51.3351
70.4637,51.2739
70.6778,51.1740
70.8714,51.0385
71.0385,50.8714
71.1740,50.6778
71.2739,50.4637
71.3351,50.2354
71.3557,50.0000
88.6443,50.0000
88.6649,50.2354
88.7261,50.4637
88.8260,50.6778
88.8260,50.6778
88.8260,50.6778
88.8260,50.6778
88.9615,50.8714
89.1286,51.0385
89.3222,51.1740
89.3222,51.1740
89.3222,51.1740
89.3222,51.1740
89.5363,51.2739
89.5363,51.2739
89.7646,51.3351
89.7646,51.3351
89.7646,51.3351
89.9410,51.3505
89.9410,51.3505
90.0590,51.3505
90.2354,51.3351
90.2354,51.3351
90.2354,51.3351
90.4637,51.2739
90.6778,51.1740
90.8714,51.0385
91.0385,50.8714
91.1740,50.6778
91.2739,50.4637
91.3351,50.2354
91.3557,50.0000
91.3351,49.7646
91.2739,49.5363
91.1740,49.3222
91.0385,49.1286
90.8714,48.9615
90.8714,48.9615
90.8714,48.9615
90.6782,48.8262
90.6778,48.8260
90.6778,48.8260
90.6778,48.8260
90.6778,48.8260
90.4637,48.7261
90.4637,48.7261
90.3876,48.7057
90.2354,48.6649
90.2354,48.6649
90.2354,48.6649
90.0590,48.6495
90.0590,48.6495
89.9410,48.6495
89.9410,48.6495
89.7646,48.6649
89.5363,48.7261
89.3222,48.8260
89.3222,48.8260
89.1286,48.9615
88.9615,49.1286
88.8260,49.3222
88.7261,49.5363
88.6649,49.7646
88.6443,50.0000
88.6443,50.0000
71.3557,50.0000
71.3557,50.0000
71.3351,49.7646
71.2739,49.5363
71.1740,49.3222
71.0385,49.1286
70.8714,48.9615
70.8714,48.9615
70.8714,48.9615
70.6782,48.8262
70.6778,48.8260
70.6778,48.8260
70.6778,48.8260
70.6778,48.8260
70.4637,48.7261
70.4637,48.7261
70.3876,48.7057
70.2354,48.6649
70.2354,48.6649
70.2354,48.6649
70.0590,48.6495
70.0590,48.6495
69.9410,48.6495
69.9410,48.6495
69.7646,48.6649
69.5363,48.7261
69.3222,48.8260
69.3222,48.8260
69.1286,48.9615
68.9615,49.1286
68.8260,49.3222
68.7261,49.5363
68.6649,49.7646
68.6443,50.0000
68.6443,50.0000
68.0005,50.0000
68.0005,49.0022
68.0007,48.9979
68.0045,48.9545
68.0171,48.8262
68.0200,48.8103
68.0382,48.7423
68.0386,48.7410
68.0672,48.6467
68.0722,48.6336
68.0993,48.5756
68.1046,48.5643
68.1057,48.5619
68.1511,48.4770
68.1542,48.4720
68.2013,48.4048
68.2035,48.4018
68.2635,48.3287
68.2667,48.3251
68.3251,48.2667
68.3287,48.2635
68.4018,48.2035
68.4048,48.2013
68.4720,48.1542
68.4770,48.1511
68.5619,48.1057
68.5643,48.1046
68.6336,48.0722
68.6467,48.0672
68.7410,48.0386
68.7423,48.0382
68.8103,48.0200
68.8262,48.0171
68.9545,48.0045
68.9979,48.0007
69.0022,48.0005
90.9978,48.0005
Z" /> 
</g>
</g>
</g>
<g style="fill:#FFFFFF; fill-opacity:1.0000; 
stroke:#FFFFFF; stroke-width:0.0000; stroke-opacity:1; 
stroke-linecap:round; stroke-linejoin:round;">
<circle cx="86.8000" cy="63.6000" r="0.2000" /> 
</g>
<g style="fill:#FFFFFF; fill-opacity:1.0000; 
stroke:#FFFFFF; stroke-width:0.0212; stroke-opacity:1; 
stroke-linecap:round; stroke-linejoin:round;">
</g>
<g style="fill:#FFFFFF; fill-opacity:1.0000; 
stroke:#FFFFFF; stroke-width:0.0000; stroke-opacity:1; 
stroke-linecap:round; stroke-linejoin:round;">
<circle cx="74.0000" cy="52.0000" r="0.2000" /> 
</g>
<g style="fill:#FFFFFF; fill-opacity:1.0000; 
stroke:#FFFFFF; stroke-width:0.0212; stroke-opacity:1; 
stroke-linecap:round; stroke-linejoin:round;">
</g>
<g style="fill:#FFFFFF; fill-opacity:1.0000; 
stroke:#FFFFFF; stroke-width:0.0000; stroke-opacity:1; 
stroke-linecap:round; stroke-linejoin:round;">
<circle cx="89.9282" cy="58.8038" r="0.2000" /> 
</g>
<g style="fill:#FFFFFF; fill-opacity:1.0000; 
stroke:#FFFFFF; stroke-width:0.0212; stroke-opacity:1; 
stroke-linecap:round; stroke-linejoin:round;">
</g>
<g style="fill:#FFFFFF; fill-opacity:1.0000; 
stroke:#FFFFFF; stroke-width:0.0000; stroke-opacity:1; 
stroke-linecap:round; stroke-linejoin:round;">
<circle cx="70.0718" cy="61.1962" r="0.2000" /> 
</g>
<g style="fill:#FFFFFF; fill-opacity:1.0000; 
stroke:#FFFFFF; stroke-width:0.0212; stroke-opacity:1; 
stroke-linecap:round; stroke-linejoin:round;">
</g>
<g style="fill:#FFFFFF; fill-opacity:1.0000; 
stroke:#FFFFFF; stroke-width:0.0000; stroke-opacity:1; 
stroke-linecap:round; stroke-linejoin:round;">
<circle cx="76.0718" cy="69.1962" r="0.2000" /> 
</g>
<g style="fill:#FFFFFF; fill-opacity:1.0000; 
stroke:#FFFFFF; stroke-width:0.0212; stroke-opacity:1; 
stroke-linecap:round; stroke-linejoin:round;">
</g>
<g style="fill:#FFFFFF; fill-opacity:1.0000; 
stroke:#FFFFFF; stroke-width:0.0000; stroke-opacity:1; 
stroke-linecap:round; stroke-linejoin:round;">
<circle cx="81.1962" cy="69.9282" r="0.2000" /> 
</g>
<g style="fill:#FFFFFF; fill-opacity:1.0000; 
stroke:#FFFFFF; stroke-width:0.0212; stroke-opacity:1; 
stroke-linecap:round; stroke-linejoin:round;">
</g>
<g style="fill:#FFFFFF; fill-opacity:1.0000; 
stroke:#FFFFFF; stroke-width:0.0000; stroke-opacity:1; 
stroke-linecap:round; stroke-linejoin:round;">
<circle cx="83.9282" cy="50.8038" r="0.2000" /> 
</g>
<g style="fill:#FFFFFF; fill-opacity:1.0000; 
stroke:#FFFFFF; stroke-width:0.0212; stroke-opacity:1; 
stroke-linecap:round; stroke-linejoin:round;">
</g>
<g style="fill:#FFFFFF; fill-opacity:1.0000; 
stroke:#FFFFFF; stroke-width:0.0000; stroke-opacity:1; 
stroke-linecap:round; stroke-linejoin:round;">
<circle cx="72.0000" cy="66.0000" r="0.2000" /> 
</g>
<g style="fill:#FFFFFF; fill-opacity:1.0000; 
stroke:#FFFFFF; stroke-width:0.0212; stroke-opacity:1; 
stroke-linecap:round; stroke-linejoin:round;">
</g>
<g style="fill:#FFFFFF; fill-opacity:1.0000; 
stroke:#FFFFFF; stroke-width:0.0000; stroke-opacity:1; 
stroke-linecap:round; stroke-linejoin:round;">
<circle cx="86.4000" cy="67.7000" r="0.2000" /> 
</g>
<g style="fill:#FFFFFF; fill-opacity:1.0000; 
stroke:#FFFFFF; stroke-width:0.0212; stroke-opacity:1; 
stroke-linecap:round; stroke-linejoin:round;">
</g>
<g style="fill:#FFFFFF; fill-opacity:1.0000; 
stroke:#FFFFFF; stroke-width:0.0000; stroke-opacity:1; 
stroke-linecap:round; stroke-linejoin:round;">
<circle cx="70.8038" cy="56.0718" r="0.2000" /> 
</g>
<g style="fill:#FFFFFF; fill-opacity:1.0000; 
stroke:#FFFFFF; stroke-width:0.0212; stroke-opacity:1; 
stroke-linecap:round; stroke-linejoin:round;">
</g>
<g style="fill:#FFFFFF; fill-opacity:1.0000; 
stroke:#FFFFFF; stroke-width:0.0000; stroke-opacity:1; 
stroke-linecap:round; stroke-linejoin:round;">
<circle cx="88.0000" cy="54.0000" r="0.2000" /> 
</g>
<g style="fill:#FFFFFF; fill-opacity:1.0000; 
stroke:#FFFFFF; stroke-width:0.0212; stroke-opacity:1; 
stroke-linecap:round; stroke-linejoin:round;">
</g>
<g style="fill:#FFFFFF; fill-opacity:1.0000; 
stroke:#FFFFFF; stroke-width:0.0000; stroke-opacity:1; 
stroke-linecap:round; stroke-linejoin:round;">
<circle cx="88.2600" cy="66.0200" r="0.2000" /> 
</g>
<g style="fill:#FFFFFF; fill-opacity:1.0000; 
stroke:#FFFFFF; stroke-width:0.0212; stroke-opacity:1; 
stroke-linecap:round; stroke-linejoin:round;">
</g>
<g style="fill:#FFFFFF; fill-opacity:1.0000; 
stroke:#FFFFFF; stroke-width:0.0000; stroke-opacity:1; 
stroke-linecap:round; stroke-linejoin:round;">
<circle cx="78.8038" cy="50.0718" r="0.2000" /> 
</g>
<g style="fill:#FFFFFF; fill-opacity:1.0000; 
stroke:#FFFFFF; stroke-width:0.0212; stroke-opacity:1; 
stroke-linecap:round; stroke-linejoin:round;">
</g>
<g style="fill:#FFFFFF; fill-opacity:1.0000; 
stroke:#FFFFFF; stroke-width:0.0000; stroke-opacity:1; 
stroke-linecap:round; stroke-linejoin:round;">
<circle cx="90.3000" cy="61.4000" r="0.2000" /> 
</g>
<g style="fill:#FFFFFF; fill-opacity:1.0000; 
stroke:#FFFFFF; stroke-width:0.0212; stroke-opacity:1; 
stroke-linecap:round; stroke-linejoin:round;">
</g>
<g style="fill:#FFFFFF; fill-opacity:1.0000; 
stroke:#FFFFFF; stroke-width:0.0000; stroke-opacity:1; 
stroke-linecap:round; stroke-linejoin:round;">
<circle cx="83.0000" cy="70.0000" r="0.2000" /> 
</g>
<g style="fill:#FFFFFF; fill-opacity:1.0000; 
stroke:#FFFFFF; stroke-width:0.0212; stroke-opacity:1; 
stroke-linecap:round; stroke-linejoin:round;">
</g>
<g style="fill:#FFFFFF; fill-opacity:1.0000; 
stroke:#FFFFFF; stroke-width:0.0000; stroke-opacity:1; 
stroke-linecap:round; stroke-linejoin:round;">
<circle cx="91.1000" cy="61.4000" r="0.2000" /> 
</g>
<g style="fill:#FFFFFF; fill-opacity:1.0000; 
stroke:#FFFFFF; stroke-width:0.0212; stroke-opacity:1; 
stroke-linecap:round; stroke-linejoin:round;">
</g>
<g style="fill:#FFFFFF; fill-opacity:1.0000; 
stroke:#FFFFFF; stroke-width:0.0000; stroke-opacity:1; 
stroke-linecap:round; stroke-linejoin:round;">
<circle cx="91.1000" cy="64.9000" r="0.2000" /> 
</g>
<g style="fill:#FFFFFF; fill-opacity:1.0000; 
stroke:#FFFFFF; stroke-width:0.0212; stroke-opacity:1; 
stroke-linecap:round; stroke-linejoin:round;">
</g>
<g style="fill:#FFFFFF; fill-opacity:1.0000; 
stroke:#FFFFFF; stroke-width:0.0000; stroke-opacity:1; 
stroke-linecap:round; stroke-linejoin:round;">
<circle cx="90.3000" cy="64.9000" r="0.2000" /> 
</g>
<g style="fill:#FFFFFF; fill-opacity:1.0000; 
stroke:#FFFFFF; stroke-width:0.0212; stroke-opacity:1; 
stroke-linecap:round; stroke-linejoin:round;">
</g>
<g style="fill:#FFFFFF; fill-opacity:1.0000; 
stroke:#FFFFFF; stroke-width:0.0000; stroke-opacity:1; 
stroke-linecap:round; stroke-linejoin:round;">
<circle cx="85.0000" cy="70.0000" r="0.2000" /> 
</g>
<g style="fill:#FFFFFF; fill-opacity:1.0000; 
stroke:#FFFFFF; stroke-width:0.0212; stroke-opacity:1; 
stroke-linecap:round; stroke-linejoin:round;">
</g>
<g style="fill:#FFFFFF; fill-opacity:1.0000; 
stroke:#FFFFFF; stroke-width:0.0000; stroke-opacity:1; 
stroke-linecap:round; stroke-linejoin:round;">
<circle cx="86.0000" cy="69.5000" r="0.2000" /> 
</g>
<g style="fill:#FFFFFF; fill-opacity:1.0000; 
stroke:#FFFFFF; stroke-width:0.0212; stroke-opacity:1; 
stroke-linecap:round; stroke-linejoin:round;">
</g>
<g style="fill:#FFFFFF; fill-opacity:1.0000; 
stroke:#FFFFFF; stroke-width:0.0000; stroke-opacity:1; 
stroke-linecap:round; stroke-linejoin:round;">
<circle cx="84.0000" cy="70.0000" r="0.2000" /> 
</g>
<g style="fill:#FFFFFF; fill-opacity:1.0000; 
stroke:#FFFFFF; stroke-width:0.0212; stroke-opacity:1; 
stroke-linecap:round; stroke-linejoin:round;">
</g>
<g style="fill:#FFFFFF; fill-opacity:1.0000; 
stroke:#FFFFFF; stroke-width:0.0000; stroke-opacity:1; 
stroke-linecap:round; stroke-linejoin:round;">
<circle cx="87.9100" cy="61.8200" r="0.2000" /> 
</g>
<g style="fill:#FFFFFF; fill-opacity:1.0000; 
stroke:#FFFFFF; stroke-width:0.0212; stroke-opacity:1; 
stroke-linecap:round; stroke-linejoin:round;">
</g>
<g style="fill:#FFFFFF; fill-opacity:1.0000; 
stroke:#FFFFFF; stroke-width:0.0000; stroke-opacity:1; 
stroke-linecap:round; stroke-linejoin:round;">
<circle cx="90.0000" cy="50.0000" r="1.1000" /> 
</g>
<g style="fill:#FFFFFF; fill-opacity:1.0000; 
stroke:#FFFFFF; stroke-width:0.0212; stroke-opacity:1; 
stroke-linecap:round; stroke-linejoin:round;">
</g>
<g style="fill:#FFFFFF; fill-opacity:1.0000; 
stroke:#FFFFFF; stroke-width:0.0000; stroke-opacity:1; 
stroke-linecap:round; stroke-linejoin:round;">
<circle cx="70.0000" cy="50.0000" r="1.1000" /> 
</g>
<g style="fill:#FFFFFF; fill-opacity:1.0000; 
stroke:#FFFFFF; stroke-width:0.0212; stroke-opacity:1; 
stroke-linecap:round; stroke-linejoin:round;">
</g>
<g style="fill:#FFFFFF; fill-opacity:1.0000; 
stroke:#FFFFFF; stroke-width:0.0000; stroke-opacity:1; 
stroke-linecap:round; stroke-linejoin:round;">
<circle cx="70.0000" cy="70.0000" r="1.1000" /> 
</g>
<g style="fill:#FFFFFF; fill-opacity:1.0000; 
stroke:#FFFFFF; stroke-width:0.0212; stroke-opacity:1; 
stroke-linecap:round; stroke-linejoin:round;">
</g>
<g style="fill:#000000; fill-opacity:1.0000; 
stroke:#000000; stroke-width:0.0212; stroke-opacity:1; 
stroke-linecap:round; stroke-linejoin:round;">
</g> 
</svg>
