<?xml version="1.0" standalone="no"?>
 <!DOCTYPE svg PUBLIC "-//W3C//DTD SVG 1.1//EN" 
 "http://www.w3.org/Graphics/SVG/1.1/DTD/svg11.dtd"> 
<svg
  xmlns:svg="http://www.w3.org/2000/svg"
  xmlns="http://www.w3.org/2000/svg"
  xmlns:xlink="http://www.w3.org/1999/xlink"
  version="1.1"
  width="297.0022mm" height="210.0072mm" viewBox="0.0000 0.0000 297.0022 210.0072">
<title>SVG Image created as pedalboard-led-ring-B_Courtyard.svg date 2023/05/22 19:41:27 </title>
  <desc>Image generated by PCBNEW </desc>
<g style="fill:#000000; fill-opacity:1.0000;stroke:#000000; stroke-opacity:1.0000;
stroke-linecap:round; stroke-linejoin:round;"
 transform="translate(0 0) scale(1 1)">
</g>
<g style="fill:#000000; fill-opacity:0.0; 
stroke:#000000; stroke-width:0.0000; stroke-opacity:1; 
stroke-linecap:round; stroke-linejoin:round;">
</g>
<g style="fill:#000000; fill-opacity:0.0; 
stroke:#000000; stroke-width:0.0500; stroke-opacity:1; 
stroke-linecap:round; stroke-linejoin:round;">
<path d="M91.2000 50.1000
L98.6000 50.1000
" />
<path d="M91.2000 55.5000
L91.2000 50.1000
" />
<path d="M98.6000 50.1000
L98.6000 55.5000
" />
<path d="M98.6000 55.5000
L91.2000 55.5000
" />
<path d="M99.9500 62.1000
L99.9500 73.9000
" />
<path d="M91.2500 62.1000
L99.9500 62.1000
" />
<path d="M99.9500 73.9000
L91.2500 73.9000
" />
<path d="M91.2500 73.9000
L91.2500 62.1000
" />
<path d="M89.7000 57.9500
L90.5000 57.9500
" />
<path d="M89.7000 60.0500
L89.7000 57.9500
" />
<path d="M90.5000 57.2500
L91.6500 56.1000
" />
<path d="M90.5000 57.9500
L90.5000 57.2500
" />
<path d="M90.5000 60.0500
L89.7000 60.0500
" />
<path d="M90.5000 60.7500
L90.5000 60.0500
" />
<path d="M90.5000 60.7500
L91.6500 61.9000
" />
<path d="M91.6500 56.1000
L96.3000 56.1000
" />
<path d="M91.6500 61.9000
L96.3000 61.9000
" />
<path d="M96.3000 57.9500
L96.3000 56.1000
" />
<path d="M96.3000 60.0500
L97.1000 60.0500
" />
<path d="M96.3000 61.9000
L96.3000 60.0500
" />
<path d="M97.1000 57.9500
L96.3000 57.9500
" />
<path d="M97.1000 60.0500
L97.1000 57.9500
" />
<path d="M98.6500 54.2000
L98.6500 51.0000
" />
<path d="M100.1500 54.2000
L98.6500 54.2000
" />
<path d="M100.1500 54.2000
L100.1500 51.0000
" />
<path d="M100.1500 51.0000
L98.6500 51.0000
" />
<path d="M100.1900 54.2100
L98.6100 54.2100
" />
<path d="M98.6100 54.2100
L98.6100 56.5900
" />
<path d="M100.1900 56.5900
L100.1900 54.2100
" />
<path d="M98.6100 56.5900
L100.1900 56.5900
" />
<g >
</g>
<g >
</g>
<g >
</g>
<g >
</g>
<g >
</g>
<g >
</g>
<g >
</g>
<g >
</g>
<g >
</g>
<g >
</g>
<g >
</g>
<g >
</g>
<g >
</g>
<g >
</g>
</g> 
</svg>
