<?xml version="1.0" standalone="no"?>
 <!DOCTYPE svg PUBLIC "-//W3C//DTD SVG 1.1//EN" 
 "http://www.w3.org/Graphics/SVG/1.1/DTD/svg11.dtd"> 
<svg
  xmlns:svg="http://www.w3.org/2000/svg"
  xmlns="http://www.w3.org/2000/svg"
  xmlns:xlink="http://www.w3.org/1999/xlink"
  version="1.1"
  width="297.0022mm" height="210.0072mm" viewBox="0.0000 0.0000 297.0022 210.0072">
<title>SVG Image created as pedalboard-led-ring-B_Fab.svg date 2023/05/26 17:26:16 </title>
  <desc>Image generated by PCBNEW </desc>
<g style="fill:#000000; fill-opacity:1.0000;stroke:#000000; stroke-opacity:1.0000;
stroke-linecap:round; stroke-linejoin:round;"
 transform="translate(0 0) scale(1 1)">
</g>
<g style="fill:#000000; fill-opacity:0.0; 
stroke:#000000; stroke-width:0.0000; stroke-opacity:1; 
stroke-linecap:round; stroke-linejoin:round;">
</g>
<g style="fill:#000000; fill-opacity:0.0; 
stroke:#000000; stroke-width:0.1500; stroke-opacity:1; 
stroke-linecap:round; stroke-linejoin:round;">
<text x="94.9000" y="49.9000"
transform="scale(-1 1) translate(-189.800000 0)"
textLength="6.5560" font-size="1.3333" lengthAdjust="spacingAndGlyphs"
text-anchor="middle" opacity="0">TLC5973</text>
<g class="stroked-text"><desc>TLC5973</desc>
<path d="M97.9952 48.8626
L97.4238 48.8626
" />
<path d="M97.7095 49.8626
L97.7095 48.8626
" />
<path d="M96.6143 49.8626
L97.0905 49.8626
" />
<path d="M97.0905 49.8626
L97.0905 48.8626
" />
<path d="M95.7095 49.7674
L95.7571 49.8150
" />
<path d="M95.7571 49.8150
L95.9000 49.8626
" />
<path d="M95.9000 49.8626
L95.9952 49.8626
" />
<path d="M95.9952 49.8626
L96.1381 49.8150
" />
<path d="M96.1381 49.8150
L96.2333 49.7198
" />
<path d="M96.2333 49.7198
L96.2810 49.6245
" />
<path d="M96.2810 49.6245
L96.3286 49.4340
" />
<path d="M96.3286 49.4340
L96.3286 49.2912
" />
<path d="M96.3286 49.2912
L96.2810 49.1007
" />
<path d="M96.2810 49.1007
L96.2333 49.0055
" />
<path d="M96.2333 49.0055
L96.1381 48.9102
" />
<path d="M96.1381 48.9102
L95.9952 48.8626
" />
<path d="M95.9952 48.8626
L95.9000 48.8626
" />
<path d="M95.9000 48.8626
L95.7571 48.9102
" />
<path d="M95.7571 48.9102
L95.7095 48.9579
" />
<path d="M94.8048 48.8626
L95.2810 48.8626
" />
<path d="M95.2810 48.8626
L95.3286 49.3388
" />
<path d="M95.3286 49.3388
L95.2810 49.2912
" />
<path d="M95.2810 49.2912
L95.1857 49.2436
" />
<path d="M95.1857 49.2436
L94.9476 49.2436
" />
<path d="M94.9476 49.2436
L94.8524 49.2912
" />
<path d="M94.8524 49.2912
L94.8048 49.3388
" />
<path d="M94.8048 49.3388
L94.7571 49.4340
" />
<path d="M94.7571 49.4340
L94.7571 49.6721
" />
<path d="M94.7571 49.6721
L94.8048 49.7674
" />
<path d="M94.8048 49.7674
L94.8524 49.8150
" />
<path d="M94.8524 49.8150
L94.9476 49.8626
" />
<path d="M94.9476 49.8626
L95.1857 49.8626
" />
<path d="M95.1857 49.8626
L95.2810 49.8150
" />
<path d="M95.2810 49.8150
L95.3286 49.7674
" />
<path d="M94.2810 49.8626
L94.0905 49.8626
" />
<path d="M94.0905 49.8626
L93.9952 49.8150
" />
<path d="M93.9952 49.8150
L93.9476 49.7674
" />
<path d="M93.9476 49.7674
L93.8524 49.6245
" />
<path d="M93.8524 49.6245
L93.8048 49.4340
" />
<path d="M93.8048 49.4340
L93.8048 49.0531
" />
<path d="M93.8048 49.0531
L93.8524 48.9579
" />
<path d="M93.8524 48.9579
L93.9000 48.9102
" />
<path d="M93.9000 48.9102
L93.9952 48.8626
" />
<path d="M93.9952 48.8626
L94.1857 48.8626
" />
<path d="M94.1857 48.8626
L94.2810 48.9102
" />
<path d="M94.2810 48.9102
L94.3286 48.9579
" />
<path d="M94.3286 48.9579
L94.3762 49.0531
" />
<path d="M94.3762 49.0531
L94.3762 49.2912
" />
<path d="M94.3762 49.2912
L94.3286 49.3864
" />
<path d="M94.3286 49.3864
L94.2810 49.4340
" />
<path d="M94.2810 49.4340
L94.1857 49.4817
" />
<path d="M94.1857 49.4817
L93.9952 49.4817
" />
<path d="M93.9952 49.4817
L93.9000 49.4340
" />
<path d="M93.9000 49.4340
L93.8524 49.3864
" />
<path d="M93.8524 49.3864
L93.8048 49.2912
" />
<path d="M93.4714 48.8626
L92.8048 48.8626
" />
<path d="M92.8048 48.8626
L93.2333 49.8626
" />
<path d="M92.5190 48.8626
L91.9000 48.8626
" />
<path d="M91.9000 48.8626
L92.2333 49.2436
" />
<path d="M92.2333 49.2436
L92.0905 49.2436
" />
<path d="M92.0905 49.2436
L91.9952 49.2912
" />
<path d="M91.9952 49.2912
L91.9476 49.3388
" />
<path d="M91.9476 49.3388
L91.9000 49.4340
" />
<path d="M91.9000 49.4340
L91.9000 49.6721
" />
<path d="M91.9000 49.6721
L91.9476 49.7674
" />
<path d="M91.9476 49.7674
L91.9952 49.8150
" />
<path d="M91.9952 49.8150
L92.0905 49.8626
" />
<path d="M92.0905 49.8626
L92.3762 49.8626
" />
<path d="M92.3762 49.8626
L92.4714 49.8150
" />
<path d="M92.4714 49.8150
L92.5190 49.7674
" />
</g><text x="94.9000" y="53.2900"
transform="scale(-1 1) translate(-189.800000 0)"
textLength="2.1390" font-size="1.3067" lengthAdjust="spacingAndGlyphs"
text-anchor="middle" opacity="0">U1</text>
<g class="stroked-text"><desc>U1</desc>
<path d="M95.6467 52.2734
L95.6467 53.0667
" />
<path d="M95.6467 53.0667
L95.6000 53.1600
" />
<path d="M95.6000 53.1600
L95.5533 53.2067
" />
<path d="M95.5533 53.2067
L95.4600 53.2534
" />
<path d="M95.4600 53.2534
L95.2733 53.2534
" />
<path d="M95.2733 53.2534
L95.1800 53.2067
" />
<path d="M95.1800 53.2067
L95.1333 53.1600
" />
<path d="M95.1333 53.1600
L95.0867 53.0667
" />
<path d="M95.0867 53.0667
L95.0867 52.2734
" />
<path d="M94.1067 53.2534
L94.6667 53.2534
" />
<path d="M94.3867 53.2534
L94.3867 52.2734
" />
<path d="M94.3867 52.2734
L94.4800 52.4134
" />
<path d="M94.4800 52.4134
L94.5733 52.5067
" />
<path d="M94.5733 52.5067
L94.6667 52.5534
" />
</g><text x="96.2900" y="65.1950"
transform="scale(-1 1) translate(-192.580000 0)"
textLength="4.0321" font-size="1.3333" lengthAdjust="spacingAndGlyphs"
text-anchor="middle" opacity="0">10uH</text>
<g class="stroked-text"><desc>10uH</desc>
<path d="M97.4567 65.1576
L98.0281 65.1576
" />
<path d="M97.7424 65.1576
L97.7424 64.1576
" />
<path d="M97.7424 64.1576
L97.8376 64.3005
" />
<path d="M97.8376 64.3005
L97.9329 64.3957
" />
<path d="M97.9329 64.3957
L98.0281 64.4433
" />
<path d="M96.8376 64.1576
L96.7424 64.1576
" />
<path d="M96.7424 64.1576
L96.6471 64.2052
" />
<path d="M96.6471 64.2052
L96.5995 64.2529
" />
<path d="M96.5995 64.2529
L96.5519 64.3481
" />
<path d="M96.5519 64.3481
L96.5043 64.5386
" />
<path d="M96.5043 64.5386
L96.5043 64.7767
" />
<path d="M96.5043 64.7767
L96.5519 64.9671
" />
<path d="M96.5519 64.9671
L96.5995 65.0624
" />
<path d="M96.5995 65.0624
L96.6471 65.1100
" />
<path d="M96.6471 65.1100
L96.7424 65.1576
" />
<path d="M96.7424 65.1576
L96.8376 65.1576
" />
<path d="M96.8376 65.1576
L96.9329 65.1100
" />
<path d="M96.9329 65.1100
L96.9805 65.0624
" />
<path d="M96.9805 65.0624
L97.0281 64.9671
" />
<path d="M97.0281 64.9671
L97.0757 64.7767
" />
<path d="M97.0757 64.7767
L97.0757 64.5386
" />
<path d="M97.0757 64.5386
L97.0281 64.3481
" />
<path d="M97.0281 64.3481
L96.9805 64.2529
" />
<path d="M96.9805 64.2529
L96.9329 64.2052
" />
<path d="M96.9329 64.2052
L96.8376 64.1576
" />
<path d="M95.6471 64.4910
L95.6471 65.1576
" />
<path d="M96.0757 64.4910
L96.0757 65.0148
" />
<path d="M96.0757 65.0148
L96.0281 65.1100
" />
<path d="M96.0281 65.1100
L95.9329 65.1576
" />
<path d="M95.9329 65.1576
L95.7900 65.1576
" />
<path d="M95.7900 65.1576
L95.6948 65.1100
" />
<path d="M95.6948 65.1100
L95.6471 65.0624
" />
<path d="M95.1710 65.1576
L95.1710 64.1576
" />
<path d="M95.1710 64.6338
L94.5995 64.6338
" />
<path d="M94.5995 65.1576
L94.5995 64.1576
" />
</g><text x="91.9000" y="58.2500"
transform="scale(-1 1) translate(-183.800000 0)"
textLength="12.4131" font-size="1.3333" lengthAdjust="spacingAndGlyphs"
text-anchor="middle" opacity="0">2.2uF_0603_25V</text>
<g class="stroked-text"><desc>2.2uF_0603_25V</desc>
<path d="M97.8286 57.3079
L97.7810 57.2602
" />
<path d="M97.7810 57.2602
L97.6857 57.2126
" />
<path d="M97.6857 57.2126
L97.4476 57.2126
" />
<path d="M97.4476 57.2126
L97.3524 57.2602
" />
<path d="M97.3524 57.2602
L97.3048 57.3079
" />
<path d="M97.3048 57.3079
L97.2571 57.4031
" />
<path d="M97.2571 57.4031
L97.2571 57.4983
" />
<path d="M97.2571 57.4983
L97.3048 57.6412
" />
<path d="M97.3048 57.6412
L97.8762 58.2126
" />
<path d="M97.8762 58.2126
L97.2571 58.2126
" />
<path d="M96.8286 58.1174
L96.7810 58.1650
" />
<path d="M96.7810 58.1650
L96.8286 58.2126
" />
<path d="M96.8286 58.2126
L96.8762 58.1650
" />
<path d="M96.8762 58.1650
L96.8286 58.1174
" />
<path d="M96.8286 58.1174
L96.8286 58.2126
" />
<path d="M96.4000 57.3079
L96.3524 57.2602
" />
<path d="M96.3524 57.2602
L96.2571 57.2126
" />
<path d="M96.2571 57.2126
L96.0190 57.2126
" />
<path d="M96.0190 57.2126
L95.9238 57.2602
" />
<path d="M95.9238 57.2602
L95.8762 57.3079
" />
<path d="M95.8762 57.3079
L95.8286 57.4031
" />
<path d="M95.8286 57.4031
L95.8286 57.4983
" />
<path d="M95.8286 57.4983
L95.8762 57.6412
" />
<path d="M95.8762 57.6412
L96.4476 58.2126
" />
<path d="M96.4476 58.2126
L95.8286 58.2126
" />
<path d="M94.9714 57.5460
L94.9714 58.2126
" />
<path d="M95.4000 57.5460
L95.4000 58.0698
" />
<path d="M95.4000 58.0698
L95.3524 58.1650
" />
<path d="M95.3524 58.1650
L95.2571 58.2126
" />
<path d="M95.2571 58.2126
L95.1143 58.2126
" />
<path d="M95.1143 58.2126
L95.0190 58.1650
" />
<path d="M95.0190 58.1650
L94.9714 58.1174
" />
<path d="M94.1619 57.6888
L94.4952 57.6888
" />
<path d="M94.4952 58.2126
L94.4952 57.2126
" />
<path d="M94.4952 57.2126
L94.0190 57.2126
" />
<path d="M93.8762 58.3079
L93.1143 58.3079
" />
<path d="M92.6857 57.2126
L92.5905 57.2126
" />
<path d="M92.5905 57.2126
L92.4952 57.2602
" />
<path d="M92.4952 57.2602
L92.4476 57.3079
" />
<path d="M92.4476 57.3079
L92.4000 57.4031
" />
<path d="M92.4000 57.4031
L92.3524 57.5936
" />
<path d="M92.3524 57.5936
L92.3524 57.8317
" />
<path d="M92.3524 57.8317
L92.4000 58.0221
" />
<path d="M92.4000 58.0221
L92.4476 58.1174
" />
<path d="M92.4476 58.1174
L92.4952 58.1650
" />
<path d="M92.4952 58.1650
L92.5905 58.2126
" />
<path d="M92.5905 58.2126
L92.6857 58.2126
" />
<path d="M92.6857 58.2126
L92.7810 58.1650
" />
<path d="M92.7810 58.1650
L92.8286 58.1174
" />
<path d="M92.8286 58.1174
L92.8762 58.0221
" />
<path d="M92.8762 58.0221
L92.9238 57.8317
" />
<path d="M92.9238 57.8317
L92.9238 57.5936
" />
<path d="M92.9238 57.5936
L92.8762 57.4031
" />
<path d="M92.8762 57.4031
L92.8286 57.3079
" />
<path d="M92.8286 57.3079
L92.7810 57.2602
" />
<path d="M92.7810 57.2602
L92.6857 57.2126
" />
<path d="M91.4952 57.2126
L91.6857 57.2126
" />
<path d="M91.6857 57.2126
L91.7810 57.2602
" />
<path d="M91.7810 57.2602
L91.8286 57.3079
" />
<path d="M91.8286 57.3079
L91.9238 57.4507
" />
<path d="M91.9238 57.4507
L91.9714 57.6412
" />
<path d="M91.9714 57.6412
L91.9714 58.0221
" />
<path d="M91.9714 58.0221
L91.9238 58.1174
" />
<path d="M91.9238 58.1174
L91.8762 58.1650
" />
<path d="M91.8762 58.1650
L91.7810 58.2126
" />
<path d="M91.7810 58.2126
L91.5905 58.2126
" />
<path d="M91.5905 58.2126
L91.4952 58.1650
" />
<path d="M91.4952 58.1650
L91.4476 58.1174
" />
<path d="M91.4476 58.1174
L91.4000 58.0221
" />
<path d="M91.4000 58.0221
L91.4000 57.7840
" />
<path d="M91.4000 57.7840
L91.4476 57.6888
" />
<path d="M91.4476 57.6888
L91.4952 57.6412
" />
<path d="M91.4952 57.6412
L91.5905 57.5936
" />
<path d="M91.5905 57.5936
L91.7810 57.5936
" />
<path d="M91.7810 57.5936
L91.8762 57.6412
" />
<path d="M91.8762 57.6412
L91.9238 57.6888
" />
<path d="M91.9238 57.6888
L91.9714 57.7840
" />
<path d="M90.7810 57.2126
L90.6857 57.2126
" />
<path d="M90.6857 57.2126
L90.5905 57.2602
" />
<path d="M90.5905 57.2602
L90.5429 57.3079
" />
<path d="M90.5429 57.3079
L90.4952 57.4031
" />
<path d="M90.4952 57.4031
L90.4476 57.5936
" />
<path d="M90.4476 57.5936
L90.4476 57.8317
" />
<path d="M90.4476 57.8317
L90.4952 58.0221
" />
<path d="M90.4952 58.0221
L90.5429 58.1174
" />
<path d="M90.5429 58.1174
L90.5905 58.1650
" />
<path d="M90.5905 58.1650
L90.6857 58.2126
" />
<path d="M90.6857 58.2126
L90.7810 58.2126
" />
<path d="M90.7810 58.2126
L90.8762 58.1650
" />
<path d="M90.8762 58.1650
L90.9238 58.1174
" />
<path d="M90.9238 58.1174
L90.9714 58.0221
" />
<path d="M90.9714 58.0221
L91.0190 57.8317
" />
<path d="M91.0190 57.8317
L91.0190 57.5936
" />
<path d="M91.0190 57.5936
L90.9714 57.4031
" />
<path d="M90.9714 57.4031
L90.9238 57.3079
" />
<path d="M90.9238 57.3079
L90.8762 57.2602
" />
<path d="M90.8762 57.2602
L90.7810 57.2126
" />
<path d="M90.1143 57.2126
L89.4952 57.2126
" />
<path d="M89.4952 57.2126
L89.8286 57.5936
" />
<path d="M89.8286 57.5936
L89.6857 57.5936
" />
<path d="M89.6857 57.5936
L89.5905 57.6412
" />
<path d="M89.5905 57.6412
L89.5429 57.6888
" />
<path d="M89.5429 57.6888
L89.4952 57.7840
" />
<path d="M89.4952 57.7840
L89.4952 58.0221
" />
<path d="M89.4952 58.0221
L89.5429 58.1174
" />
<path d="M89.5429 58.1174
L89.5905 58.1650
" />
<path d="M89.5905 58.1650
L89.6857 58.2126
" />
<path d="M89.6857 58.2126
L89.9714 58.2126
" />
<path d="M89.9714 58.2126
L90.0667 58.1650
" />
<path d="M90.0667 58.1650
L90.1143 58.1174
" />
<path d="M89.3048 58.3079
L88.5429 58.3079
" />
<path d="M88.3524 57.3079
L88.3048 57.2602
" />
<path d="M88.3048 57.2602
L88.2095 57.2126
" />
<path d="M88.2095 57.2126
L87.9714 57.2126
" />
<path d="M87.9714 57.2126
L87.8762 57.2602
" />
<path d="M87.8762 57.2602
L87.8286 57.3079
" />
<path d="M87.8286 57.3079
L87.7810 57.4031
" />
<path d="M87.7810 57.4031
L87.7810 57.4983
" />
<path d="M87.7810 57.4983
L87.8286 57.6412
" />
<path d="M87.8286 57.6412
L88.4000 58.2126
" />
<path d="M88.4000 58.2126
L87.7810 58.2126
" />
<path d="M86.8762 57.2126
L87.3524 57.2126
" />
<path d="M87.3524 57.2126
L87.4000 57.6888
" />
<path d="M87.4000 57.6888
L87.3524 57.6412
" />
<path d="M87.3524 57.6412
L87.2571 57.5936
" />
<path d="M87.2571 57.5936
L87.0190 57.5936
" />
<path d="M87.0190 57.5936
L86.9238 57.6412
" />
<path d="M86.9238 57.6412
L86.8762 57.6888
" />
<path d="M86.8762 57.6888
L86.8286 57.7840
" />
<path d="M86.8286 57.7840
L86.8286 58.0221
" />
<path d="M86.8286 58.0221
L86.8762 58.1174
" />
<path d="M86.8762 58.1174
L86.9238 58.1650
" />
<path d="M86.9238 58.1650
L87.0190 58.2126
" />
<path d="M87.0190 58.2126
L87.2571 58.2126
" />
<path d="M87.2571 58.2126
L87.3524 58.1650
" />
<path d="M87.3524 58.1650
L87.4000 58.1174
" />
<path d="M86.5429 57.2126
L86.2095 58.2126
" />
<path d="M86.2095 58.2126
L85.8762 57.2126
" />
</g></g>
<g style="fill:#000000; fill-opacity:0.0; 
stroke:#000000; stroke-width:0.1200; stroke-opacity:1; 
stroke-linecap:round; stroke-linejoin:round;">
<text x="91.9000" y="60.0000"
transform="scale(-1 1) translate(-183.800000 0)"
textLength="1.7019" font-size="1.0667" lengthAdjust="spacingAndGlyphs"
text-anchor="middle" opacity="0">C1</text>
<g class="stroked-text"><desc>C1</desc>
<path d="M92.0333 59.8939
L92.0714 59.9320
" />
<path d="M92.0714 59.9320
L92.1857 59.9701
" />
<path d="M92.1857 59.9701
L92.2619 59.9701
" />
<path d="M92.2619 59.9701
L92.3762 59.9320
" />
<path d="M92.3762 59.9320
L92.4524 59.8558
" />
<path d="M92.4524 59.8558
L92.4905 59.7796
" />
<path d="M92.4905 59.7796
L92.5286 59.6272
" />
<path d="M92.5286 59.6272
L92.5286 59.5130
" />
<path d="M92.5286 59.5130
L92.4905 59.3606
" />
<path d="M92.4905 59.3606
L92.4524 59.2844
" />
<path d="M92.4524 59.2844
L92.3762 59.2082
" />
<path d="M92.3762 59.2082
L92.2619 59.1701
" />
<path d="M92.2619 59.1701
L92.1857 59.1701
" />
<path d="M92.1857 59.1701
L92.0714 59.2082
" />
<path d="M92.0714 59.2082
L92.0333 59.2463
" />
<path d="M91.2714 59.9701
L91.7286 59.9701
" />
<path d="M91.5000 59.9701
L91.5000 59.1701
" />
<path d="M91.5000 59.1701
L91.5762 59.2844
" />
<path d="M91.5762 59.2844
L91.6524 59.3606
" />
<path d="M91.6524 59.3606
L91.7286 59.3987
" />
</g></g>
<g style="fill:#000000; fill-opacity:0.0; 
stroke:#000000; stroke-width:0.1500; stroke-opacity:1; 
stroke-linecap:round; stroke-linejoin:round;">
<g transform="rotate(-90.000000 101.8100 68.0000)">
<text x="101.8100" y="68.5000"
transform="scale(-1 1) translate(-203.620000 0)"
textLength="9.2702" font-size="1.3333" lengthAdjust="spacingAndGlyphs"
text-anchor="middle" opacity="0">Conn_02x03</text>
</g>
<g class="stroked-text"><desc>Conn_02x03</desc>
<path d="M102.1774 64.2619
L102.2250 64.2143
" />
<path d="M102.2250 64.2143
L102.2726 64.0714
" />
<path d="M102.2726 64.0714
L102.2726 63.9762
" />
<path d="M102.2726 63.9762
L102.2250 63.8333
" />
<path d="M102.2250 63.8333
L102.1298 63.7381
" />
<path d="M102.1298 63.7381
L102.0345 63.6905
" />
<path d="M102.0345 63.6905
L101.8440 63.6429
" />
<path d="M101.8440 63.6429
L101.7012 63.6429
" />
<path d="M101.7012 63.6429
L101.5107 63.6905
" />
<path d="M101.5107 63.6905
L101.4155 63.7381
" />
<path d="M101.4155 63.7381
L101.3202 63.8333
" />
<path d="M101.3202 63.8333
L101.2726 63.9762
" />
<path d="M101.2726 63.9762
L101.2726 64.0714
" />
<path d="M101.2726 64.0714
L101.3202 64.2143
" />
<path d="M101.3202 64.2143
L101.3679 64.2619
" />
<path d="M102.2726 64.8333
L102.2250 64.7381
" />
<path d="M102.2250 64.7381
L102.1774 64.6905
" />
<path d="M102.1774 64.6905
L102.0821 64.6429
" />
<path d="M102.0821 64.6429
L101.7964 64.6429
" />
<path d="M101.7964 64.6429
L101.7012 64.6905
" />
<path d="M101.7012 64.6905
L101.6536 64.7381
" />
<path d="M101.6536 64.7381
L101.6060 64.8333
" />
<path d="M101.6060 64.8333
L101.6060 64.9762
" />
<path d="M101.6060 64.9762
L101.6536 65.0714
" />
<path d="M101.6536 65.0714
L101.7012 65.1190
" />
<path d="M101.7012 65.1190
L101.7964 65.1667
" />
<path d="M101.7964 65.1667
L102.0821 65.1667
" />
<path d="M102.0821 65.1667
L102.1774 65.1190
" />
<path d="M102.1774 65.1190
L102.2250 65.0714
" />
<path d="M102.2250 65.0714
L102.2726 64.9762
" />
<path d="M102.2726 64.9762
L102.2726 64.8333
" />
<path d="M101.6060 65.5952
L102.2726 65.5952
" />
<path d="M101.7012 65.5952
L101.6536 65.6429
" />
<path d="M101.6536 65.6429
L101.6060 65.7381
" />
<path d="M101.6060 65.7381
L101.6060 65.8810
" />
<path d="M101.6060 65.8810
L101.6536 65.9762
" />
<path d="M101.6536 65.9762
L101.7488 66.0238
" />
<path d="M101.7488 66.0238
L102.2726 66.0238
" />
<path d="M101.6060 66.5000
L102.2726 66.5000
" />
<path d="M101.7012 66.5000
L101.6536 66.5476
" />
<path d="M101.6536 66.5476
L101.6060 66.6429
" />
<path d="M101.6060 66.6429
L101.6060 66.7857
" />
<path d="M101.6060 66.7857
L101.6536 66.8810
" />
<path d="M101.6536 66.8810
L101.7488 66.9286
" />
<path d="M101.7488 66.9286
L102.2726 66.9286
" />
<path d="M102.3679 67.1667
L102.3679 67.9286
" />
<path d="M101.2726 68.3571
L101.2726 68.4524
" />
<path d="M101.2726 68.4524
L101.3202 68.5476
" />
<path d="M101.3202 68.5476
L101.3679 68.5952
" />
<path d="M101.3679 68.5952
L101.4631 68.6429
" />
<path d="M101.4631 68.6429
L101.6536 68.6905
" />
<path d="M101.6536 68.6905
L101.8917 68.6905
" />
<path d="M101.8917 68.6905
L102.0821 68.6429
" />
<path d="M102.0821 68.6429
L102.1774 68.5952
" />
<path d="M102.1774 68.5952
L102.2250 68.5476
" />
<path d="M102.2250 68.5476
L102.2726 68.4524
" />
<path d="M102.2726 68.4524
L102.2726 68.3571
" />
<path d="M102.2726 68.3571
L102.2250 68.2619
" />
<path d="M102.2250 68.2619
L102.1774 68.2143
" />
<path d="M102.1774 68.2143
L102.0821 68.1667
" />
<path d="M102.0821 68.1667
L101.8917 68.1190
" />
<path d="M101.8917 68.1190
L101.6536 68.1190
" />
<path d="M101.6536 68.1190
L101.4631 68.1667
" />
<path d="M101.4631 68.1667
L101.3679 68.2143
" />
<path d="M101.3679 68.2143
L101.3202 68.2619
" />
<path d="M101.3202 68.2619
L101.2726 68.3571
" />
<path d="M101.3679 69.0714
L101.3202 69.1190
" />
<path d="M101.3202 69.1190
L101.2726 69.2143
" />
<path d="M101.2726 69.2143
L101.2726 69.4524
" />
<path d="M101.2726 69.4524
L101.3202 69.5476
" />
<path d="M101.3202 69.5476
L101.3679 69.5952
" />
<path d="M101.3679 69.5952
L101.4631 69.6429
" />
<path d="M101.4631 69.6429
L101.5583 69.6429
" />
<path d="M101.5583 69.6429
L101.7012 69.5952
" />
<path d="M101.7012 69.5952
L102.2726 69.0238
" />
<path d="M102.2726 69.0238
L102.2726 69.6429
" />
<path d="M102.2726 69.9762
L101.6060 70.5000
" />
<path d="M101.6060 69.9762
L102.2726 70.5000
" />
<path d="M101.2726 71.0714
L101.2726 71.1667
" />
<path d="M101.2726 71.1667
L101.3202 71.2619
" />
<path d="M101.3202 71.2619
L101.3679 71.3095
" />
<path d="M101.3679 71.3095
L101.4631 71.3571
" />
<path d="M101.4631 71.3571
L101.6536 71.4048
" />
<path d="M101.6536 71.4048
L101.8917 71.4048
" />
<path d="M101.8917 71.4048
L102.0821 71.3571
" />
<path d="M102.0821 71.3571
L102.1774 71.3095
" />
<path d="M102.1774 71.3095
L102.2250 71.2619
" />
<path d="M102.2250 71.2619
L102.2726 71.1667
" />
<path d="M102.2726 71.1667
L102.2726 71.0714
" />
<path d="M102.2726 71.0714
L102.2250 70.9762
" />
<path d="M102.2250 70.9762
L102.1774 70.9286
" />
<path d="M102.1774 70.9286
L102.0821 70.8810
" />
<path d="M102.0821 70.8810
L101.8917 70.8333
" />
<path d="M101.8917 70.8333
L101.6536 70.8333
" />
<path d="M101.6536 70.8333
L101.4631 70.8810
" />
<path d="M101.4631 70.8810
L101.3679 70.9286
" />
<path d="M101.3679 70.9286
L101.3202 70.9762
" />
<path d="M101.3202 70.9762
L101.2726 71.0714
" />
<path d="M101.2726 71.7381
L101.2726 72.3571
" />
<path d="M101.2726 72.3571
L101.6536 72.0238
" />
<path d="M101.6536 72.0238
L101.6536 72.1667
" />
<path d="M101.6536 72.1667
L101.7012 72.2619
" />
<path d="M101.7012 72.2619
L101.7488 72.3095
" />
<path d="M101.7488 72.3095
L101.8440 72.3571
" />
<path d="M101.8440 72.3571
L102.0821 72.3571
" />
<path d="M102.0821 72.3571
L102.1774 72.3095
" />
<path d="M102.1774 72.3095
L102.2250 72.2619
" />
<path d="M102.2250 72.2619
L102.2726 72.1667
" />
<path d="M102.2726 72.1667
L102.2726 71.8810
" />
<path d="M102.2726 71.8810
L102.2250 71.7857
" />
<path d="M102.2250 71.7857
L102.1774 71.7381
" />
</g><text x="96.5000" y="68.5000"
transform="scale(-1 1) translate(-193.000000 0)"
textLength="1.8893" font-size="1.3333" lengthAdjust="spacingAndGlyphs"
text-anchor="middle" opacity="0">J1</text>
<g class="stroked-text"><desc>J1</desc>
<path d="M96.8333 67.4626
L96.8333 68.1769
" />
<path d="M96.8333 68.1769
L96.8810 68.3198
" />
<path d="M96.8810 68.3198
L96.9762 68.4150
" />
<path d="M96.9762 68.4150
L97.1190 68.4626
" />
<path d="M97.1190 68.4626
L97.2143 68.4626
" />
<path d="M95.8333 68.4626
L96.4048 68.4626
" />
<path d="M96.1190 68.4626
L96.1190 67.4626
" />
<path d="M96.1190 67.4626
L96.2143 67.6055
" />
<path d="M96.2143 67.6055
L96.3095 67.7007
" />
<path d="M96.3095 67.7007
L96.4048 67.7483
" />
</g><text x="86.4000" y="75.0500"
transform="scale(-1 1) translate(-172.800000 0)"
textLength="13.1750" font-size="1.3333" lengthAdjust="spacingAndGlyphs"
text-anchor="middle" opacity="0">LT3494AEDDBPBF</text>
<g class="stroked-text"><desc>LT3494AEDDBPBF</desc>
<path d="M92.1857 75.0126
L92.6619 75.0126
" />
<path d="M92.6619 75.0126
L92.6619 74.0126
" />
<path d="M91.9952 74.0126
L91.4238 74.0126
" />
<path d="M91.7095 75.0126
L91.7095 74.0126
" />
<path d="M91.1857 74.0126
L90.5667 74.0126
" />
<path d="M90.5667 74.0126
L90.9000 74.3936
" />
<path d="M90.9000 74.3936
L90.7571 74.3936
" />
<path d="M90.7571 74.3936
L90.6619 74.4412
" />
<path d="M90.6619 74.4412
L90.6143 74.4888
" />
<path d="M90.6143 74.4888
L90.5667 74.5840
" />
<path d="M90.5667 74.5840
L90.5667 74.8221
" />
<path d="M90.5667 74.8221
L90.6143 74.9174
" />
<path d="M90.6143 74.9174
L90.6619 74.9650
" />
<path d="M90.6619 74.9650
L90.7571 75.0126
" />
<path d="M90.7571 75.0126
L91.0429 75.0126
" />
<path d="M91.0429 75.0126
L91.1381 74.9650
" />
<path d="M91.1381 74.9650
L91.1857 74.9174
" />
<path d="M89.7095 74.3460
L89.7095 75.0126
" />
<path d="M89.9476 73.9650
L90.1857 74.6793
" />
<path d="M90.1857 74.6793
L89.5667 74.6793
" />
<path d="M89.1381 75.0126
L88.9476 75.0126
" />
<path d="M88.9476 75.0126
L88.8524 74.9650
" />
<path d="M88.8524 74.9650
L88.8048 74.9174
" />
<path d="M88.8048 74.9174
L88.7095 74.7745
" />
<path d="M88.7095 74.7745
L88.6619 74.5840
" />
<path d="M88.6619 74.5840
L88.6619 74.2031
" />
<path d="M88.6619 74.2031
L88.7095 74.1079
" />
<path d="M88.7095 74.1079
L88.7571 74.0602
" />
<path d="M88.7571 74.0602
L88.8524 74.0126
" />
<path d="M88.8524 74.0126
L89.0429 74.0126
" />
<path d="M89.0429 74.0126
L89.1381 74.0602
" />
<path d="M89.1381 74.0602
L89.1857 74.1079
" />
<path d="M89.1857 74.1079
L89.2333 74.2031
" />
<path d="M89.2333 74.2031
L89.2333 74.4412
" />
<path d="M89.2333 74.4412
L89.1857 74.5364
" />
<path d="M89.1857 74.5364
L89.1381 74.5840
" />
<path d="M89.1381 74.5840
L89.0429 74.6317
" />
<path d="M89.0429 74.6317
L88.8524 74.6317
" />
<path d="M88.8524 74.6317
L88.7571 74.5840
" />
<path d="M88.7571 74.5840
L88.7095 74.5364
" />
<path d="M88.7095 74.5364
L88.6619 74.4412
" />
<path d="M87.8048 74.3460
L87.8048 75.0126
" />
<path d="M88.0429 73.9650
L88.2810 74.6793
" />
<path d="M88.2810 74.6793
L87.6619 74.6793
" />
<path d="M87.3286 74.7269
L86.8524 74.7269
" />
<path d="M87.4238 75.0126
L87.0905 74.0126
" />
<path d="M87.0905 74.0126
L86.7571 75.0126
" />
<path d="M86.4238 74.4888
L86.0905 74.4888
" />
<path d="M85.9476 75.0126
L86.4238 75.0126
" />
<path d="M86.4238 75.0126
L86.4238 74.0126
" />
<path d="M86.4238 74.0126
L85.9476 74.0126
" />
<path d="M85.5190 75.0126
L85.5190 74.0126
" />
<path d="M85.5190 74.0126
L85.2810 74.0126
" />
<path d="M85.2810 74.0126
L85.1381 74.0602
" />
<path d="M85.1381 74.0602
L85.0429 74.1555
" />
<path d="M85.0429 74.1555
L84.9952 74.2507
" />
<path d="M84.9952 74.2507
L84.9476 74.4412
" />
<path d="M84.9476 74.4412
L84.9476 74.5840
" />
<path d="M84.9476 74.5840
L84.9952 74.7745
" />
<path d="M84.9952 74.7745
L85.0429 74.8698
" />
<path d="M85.0429 74.8698
L85.1381 74.9650
" />
<path d="M85.1381 74.9650
L85.2810 75.0126
" />
<path d="M85.2810 75.0126
L85.5190 75.0126
" />
<path d="M84.5190 75.0126
L84.5190 74.0126
" />
<path d="M84.5190 74.0126
L84.2810 74.0126
" />
<path d="M84.2810 74.0126
L84.1381 74.0602
" />
<path d="M84.1381 74.0602
L84.0429 74.1555
" />
<path d="M84.0429 74.1555
L83.9952 74.2507
" />
<path d="M83.9952 74.2507
L83.9476 74.4412
" />
<path d="M83.9476 74.4412
L83.9476 74.5840
" />
<path d="M83.9476 74.5840
L83.9952 74.7745
" />
<path d="M83.9952 74.7745
L84.0429 74.8698
" />
<path d="M84.0429 74.8698
L84.1381 74.9650
" />
<path d="M84.1381 74.9650
L84.2810 75.0126
" />
<path d="M84.2810 75.0126
L84.5190 75.0126
" />
<path d="M83.1857 74.4888
L83.0429 74.5364
" />
<path d="M83.0429 74.5364
L82.9952 74.5840
" />
<path d="M82.9952 74.5840
L82.9476 74.6793
" />
<path d="M82.9476 74.6793
L82.9476 74.8221
" />
<path d="M82.9476 74.8221
L82.9952 74.9174
" />
<path d="M82.9952 74.9174
L83.0429 74.9650
" />
<path d="M83.0429 74.9650
L83.1381 75.0126
" />
<path d="M83.1381 75.0126
L83.5190 75.0126
" />
<path d="M83.5190 75.0126
L83.5190 74.0126
" />
<path d="M83.5190 74.0126
L83.1857 74.0126
" />
<path d="M83.1857 74.0126
L83.0905 74.0602
" />
<path d="M83.0905 74.0602
L83.0429 74.1079
" />
<path d="M83.0429 74.1079
L82.9952 74.2031
" />
<path d="M82.9952 74.2031
L82.9952 74.2983
" />
<path d="M82.9952 74.2983
L83.0429 74.3936
" />
<path d="M83.0429 74.3936
L83.0905 74.4412
" />
<path d="M83.0905 74.4412
L83.1857 74.4888
" />
<path d="M83.1857 74.4888
L83.5190 74.4888
" />
<path d="M82.5190 75.0126
L82.5190 74.0126
" />
<path d="M82.5190 74.0126
L82.1381 74.0126
" />
<path d="M82.1381 74.0126
L82.0429 74.0602
" />
<path d="M82.0429 74.0602
L81.9952 74.1079
" />
<path d="M81.9952 74.1079
L81.9476 74.2031
" />
<path d="M81.9476 74.2031
L81.9476 74.3460
" />
<path d="M81.9476 74.3460
L81.9952 74.4412
" />
<path d="M81.9952 74.4412
L82.0429 74.4888
" />
<path d="M82.0429 74.4888
L82.1381 74.5364
" />
<path d="M82.1381 74.5364
L82.5190 74.5364
" />
<path d="M81.1857 74.4888
L81.0429 74.5364
" />
<path d="M81.0429 74.5364
L80.9952 74.5840
" />
<path d="M80.9952 74.5840
L80.9476 74.6793
" />
<path d="M80.9476 74.6793
L80.9476 74.8221
" />
<path d="M80.9476 74.8221
L80.9952 74.9174
" />
<path d="M80.9952 74.9174
L81.0429 74.9650
" />
<path d="M81.0429 74.9650
L81.1381 75.0126
" />
<path d="M81.1381 75.0126
L81.5190 75.0126
" />
<path d="M81.5190 75.0126
L81.5190 74.0126
" />
<path d="M81.5190 74.0126
L81.1857 74.0126
" />
<path d="M81.1857 74.0126
L81.0905 74.0602
" />
<path d="M81.0905 74.0602
L81.0429 74.1079
" />
<path d="M81.0429 74.1079
L80.9952 74.2031
" />
<path d="M80.9952 74.2031
L80.9952 74.2983
" />
<path d="M80.9952 74.2983
L81.0429 74.3936
" />
<path d="M81.0429 74.3936
L81.0905 74.4412
" />
<path d="M81.0905 74.4412
L81.1857 74.4888
" />
<path d="M81.1857 74.4888
L81.5190 74.4888
" />
<path d="M80.1857 74.4888
L80.5190 74.4888
" />
<path d="M80.5190 75.0126
L80.5190 74.0126
" />
<path d="M80.5190 74.0126
L80.0429 74.0126
" />
</g></g>
<g style="fill:#000000; fill-opacity:0.0; 
stroke:#000000; stroke-width:0.0750; stroke-opacity:1; 
stroke-linecap:round; stroke-linejoin:round;">
<g transform="rotate(-90.000000 86.4000 72.0000)">
<text x="86.4000" y="72.2500"
transform="scale(-1 1) translate(-172.800000 0)"
textLength="1.0875" font-size="0.6667" lengthAdjust="spacingAndGlyphs"
text-anchor="middle" opacity="0">U2</text>
</g>
<g class="stroked-text"><desc>U2</desc>
<path d="M86.1313 71.6190
L86.5361 71.6190
" />
<path d="M86.5361 71.6190
L86.5837 71.6429
" />
<path d="M86.5837 71.6429
L86.6075 71.6667
" />
<path d="M86.6075 71.6667
L86.6313 71.7143
" />
<path d="M86.6313 71.7143
L86.6313 71.8095
" />
<path d="M86.6313 71.8095
L86.6075 71.8571
" />
<path d="M86.6075 71.8571
L86.5837 71.8810
" />
<path d="M86.5837 71.8810
L86.5361 71.9048
" />
<path d="M86.5361 71.9048
L86.1313 71.9048
" />
<path d="M86.1789 72.1190
L86.1551 72.1429
" />
<path d="M86.1551 72.1429
L86.1313 72.1905
" />
<path d="M86.1313 72.1905
L86.1313 72.3095
" />
<path d="M86.1313 72.3095
L86.1551 72.3571
" />
<path d="M86.1551 72.3571
L86.1789 72.3810
" />
<path d="M86.1789 72.3810
L86.2265 72.4048
" />
<path d="M86.2265 72.4048
L86.2742 72.4048
" />
<path d="M86.2742 72.4048
L86.3456 72.3810
" />
<path d="M86.3456 72.3810
L86.6313 72.0952
" />
<path d="M86.6313 72.0952
L86.6313 72.4048
" />
</g></g>
<g style="fill:#000000; fill-opacity:0.0; 
stroke:#000000; stroke-width:0.1500; stroke-opacity:1; 
stroke-linecap:round; stroke-linejoin:round;">
<g transform="rotate(-90.000000 99.4800 57.5000)">
<text x="99.4800" y="58.0000"
transform="scale(-1 1) translate(-198.960000 0)"
textLength="4.7940" font-size="1.3333" lengthAdjust="spacingAndGlyphs"
text-anchor="middle" opacity="0">330nF</text>
</g>
<g class="stroked-text"><desc>330nF</desc>
<path d="M98.9426 55.3333
L98.9426 55.9524
" />
<path d="M98.9426 55.9524
L99.3236 55.6190
" />
<path d="M99.3236 55.6190
L99.3236 55.7619
" />
<path d="M99.3236 55.7619
L99.3712 55.8571
" />
<path d="M99.3712 55.8571
L99.4188 55.9048
" />
<path d="M99.4188 55.9048
L99.5140 55.9524
" />
<path d="M99.5140 55.9524
L99.7521 55.9524
" />
<path d="M99.7521 55.9524
L99.8474 55.9048
" />
<path d="M99.8474 55.9048
L99.8950 55.8571
" />
<path d="M99.8950 55.8571
L99.9426 55.7619
" />
<path d="M99.9426 55.7619
L99.9426 55.4762
" />
<path d="M99.9426 55.4762
L99.8950 55.3810
" />
<path d="M99.8950 55.3810
L99.8474 55.3333
" />
<path d="M98.9426 56.2857
L98.9426 56.9048
" />
<path d="M98.9426 56.9048
L99.3236 56.5714
" />
<path d="M99.3236 56.5714
L99.3236 56.7143
" />
<path d="M99.3236 56.7143
L99.3712 56.8095
" />
<path d="M99.3712 56.8095
L99.4188 56.8571
" />
<path d="M99.4188 56.8571
L99.5140 56.9048
" />
<path d="M99.5140 56.9048
L99.7521 56.9048
" />
<path d="M99.7521 56.9048
L99.8474 56.8571
" />
<path d="M99.8474 56.8571
L99.8950 56.8095
" />
<path d="M99.8950 56.8095
L99.9426 56.7143
" />
<path d="M99.9426 56.7143
L99.9426 56.4286
" />
<path d="M99.9426 56.4286
L99.8950 56.3333
" />
<path d="M99.8950 56.3333
L99.8474 56.2857
" />
<path d="M98.9426 57.5238
L98.9426 57.6190
" />
<path d="M98.9426 57.6190
L98.9902 57.7143
" />
<path d="M98.9902 57.7143
L99.0379 57.7619
" />
<path d="M99.0379 57.7619
L99.1331 57.8095
" />
<path d="M99.1331 57.8095
L99.3236 57.8571
" />
<path d="M99.3236 57.8571
L99.5617 57.8571
" />
<path d="M99.5617 57.8571
L99.7521 57.8095
" />
<path d="M99.7521 57.8095
L99.8474 57.7619
" />
<path d="M99.8474 57.7619
L99.8950 57.7143
" />
<path d="M99.8950 57.7143
L99.9426 57.6190
" />
<path d="M99.9426 57.6190
L99.9426 57.5238
" />
<path d="M99.9426 57.5238
L99.8950 57.4286
" />
<path d="M99.8950 57.4286
L99.8474 57.3810
" />
<path d="M99.8474 57.3810
L99.7521 57.3333
" />
<path d="M99.7521 57.3333
L99.5617 57.2857
" />
<path d="M99.5617 57.2857
L99.3236 57.2857
" />
<path d="M99.3236 57.2857
L99.1331 57.3333
" />
<path d="M99.1331 57.3333
L99.0379 57.3810
" />
<path d="M99.0379 57.3810
L98.9902 57.4286
" />
<path d="M98.9902 57.4286
L98.9426 57.5238
" />
<path d="M99.2760 58.2857
L99.9426 58.2857
" />
<path d="M99.3712 58.2857
L99.3236 58.3333
" />
<path d="M99.3236 58.3333
L99.2760 58.4286
" />
<path d="M99.2760 58.4286
L99.2760 58.5714
" />
<path d="M99.2760 58.5714
L99.3236 58.6667
" />
<path d="M99.3236 58.6667
L99.4188 58.7143
" />
<path d="M99.4188 58.7143
L99.9426 58.7143
" />
<path d="M99.4188 59.5238
L99.4188 59.1905
" />
<path d="M99.9426 59.1905
L98.9426 59.1905
" />
<path d="M98.9426 59.1905
L98.9426 59.6667
" />
</g></g>
<g style="fill:#000000; fill-opacity:0.0; 
stroke:#000000; stroke-width:0.0800; stroke-opacity:1; 
stroke-linecap:round; stroke-linejoin:round;">
<g transform="rotate(-90.000000 97.8000 57.5000)">
<text x="97.8000" y="57.7500"
transform="scale(-1 1) translate(-195.600000 0)"
textLength="1.0762" font-size="0.6667" lengthAdjust="spacingAndGlyphs"
text-anchor="middle" opacity="0">C2</text>
</g>
<g class="stroked-text"><desc>C2</desc>
<path d="M97.9837 57.4167
L98.0075 57.3929
" />
<path d="M98.0075 57.3929
L98.0313 57.3214
" />
<path d="M98.0313 57.3214
L98.0313 57.2738
" />
<path d="M98.0313 57.2738
L98.0075 57.2024
" />
<path d="M98.0075 57.2024
L97.9599 57.1548
" />
<path d="M97.9599 57.1548
L97.9123 57.1310
" />
<path d="M97.9123 57.1310
L97.8170 57.1071
" />
<path d="M97.8170 57.1071
L97.7456 57.1071
" />
<path d="M97.7456 57.1071
L97.6504 57.1310
" />
<path d="M97.6504 57.1310
L97.6027 57.1548
" />
<path d="M97.6027 57.1548
L97.5551 57.2024
" />
<path d="M97.5551 57.2024
L97.5313 57.2738
" />
<path d="M97.5313 57.2738
L97.5313 57.3214
" />
<path d="M97.5313 57.3214
L97.5551 57.3929
" />
<path d="M97.5551 57.3929
L97.5789 57.4167
" />
<path d="M97.5789 57.6071
L97.5551 57.6310
" />
<path d="M97.5551 57.6310
L97.5313 57.6786
" />
<path d="M97.5313 57.6786
L97.5313 57.7976
" />
<path d="M97.5313 57.7976
L97.5551 57.8452
" />
<path d="M97.5551 57.8452
L97.5789 57.8690
" />
<path d="M97.5789 57.8690
L97.6265 57.8929
" />
<path d="M97.6265 57.8929
L97.6742 57.8929
" />
<path d="M97.6742 57.8929
L97.7456 57.8690
" />
<path d="M97.7456 57.8690
L98.0313 57.5833
" />
<path d="M98.0313 57.5833
L98.0313 57.8929
" />
</g></g>
<g style="fill:#000000; fill-opacity:0.0; 
stroke:#000000; stroke-width:0.1500; stroke-opacity:1; 
stroke-linecap:round; stroke-linejoin:round;">
<text x="82.9000" y="71.4800"
transform="scale(-1 1) translate(-165.800000 0)"
textLength="4.7940" font-size="1.3333" lengthAdjust="spacingAndGlyphs"
text-anchor="middle" opacity="0">330nF</text>
<g class="stroked-text"><desc>330nF</desc>
<path d="M85.0667 70.4426
L84.4476 70.4426
" />
<path d="M84.4476 70.4426
L84.7810 70.8236
" />
<path d="M84.7810 70.8236
L84.6381 70.8236
" />
<path d="M84.6381 70.8236
L84.5429 70.8712
" />
<path d="M84.5429 70.8712
L84.4952 70.9188
" />
<path d="M84.4952 70.9188
L84.4476 71.0140
" />
<path d="M84.4476 71.0140
L84.4476 71.2521
" />
<path d="M84.4476 71.2521
L84.4952 71.3474
" />
<path d="M84.4952 71.3474
L84.5429 71.3950
" />
<path d="M84.5429 71.3950
L84.6381 71.4426
" />
<path d="M84.6381 71.4426
L84.9238 71.4426
" />
<path d="M84.9238 71.4426
L85.0190 71.3950
" />
<path d="M85.0190 71.3950
L85.0667 71.3474
" />
<path d="M84.1143 70.4426
L83.4952 70.4426
" />
<path d="M83.4952 70.4426
L83.8286 70.8236
" />
<path d="M83.8286 70.8236
L83.6857 70.8236
" />
<path d="M83.6857 70.8236
L83.5905 70.8712
" />
<path d="M83.5905 70.8712
L83.5429 70.9188
" />
<path d="M83.5429 70.9188
L83.4952 71.0140
" />
<path d="M83.4952 71.0140
L83.4952 71.2521
" />
<path d="M83.4952 71.2521
L83.5429 71.3474
" />
<path d="M83.5429 71.3474
L83.5905 71.3950
" />
<path d="M83.5905 71.3950
L83.6857 71.4426
" />
<path d="M83.6857 71.4426
L83.9714 71.4426
" />
<path d="M83.9714 71.4426
L84.0667 71.3950
" />
<path d="M84.0667 71.3950
L84.1143 71.3474
" />
<path d="M82.8762 70.4426
L82.7810 70.4426
" />
<path d="M82.7810 70.4426
L82.6857 70.4902
" />
<path d="M82.6857 70.4902
L82.6381 70.5379
" />
<path d="M82.6381 70.5379
L82.5905 70.6331
" />
<path d="M82.5905 70.6331
L82.5429 70.8236
" />
<path d="M82.5429 70.8236
L82.5429 71.0617
" />
<path d="M82.5429 71.0617
L82.5905 71.2521
" />
<path d="M82.5905 71.2521
L82.6381 71.3474
" />
<path d="M82.6381 71.3474
L82.6857 71.3950
" />
<path d="M82.6857 71.3950
L82.7810 71.4426
" />
<path d="M82.7810 71.4426
L82.8762 71.4426
" />
<path d="M82.8762 71.4426
L82.9714 71.3950
" />
<path d="M82.9714 71.3950
L83.0190 71.3474
" />
<path d="M83.0190 71.3474
L83.0667 71.2521
" />
<path d="M83.0667 71.2521
L83.1143 71.0617
" />
<path d="M83.1143 71.0617
L83.1143 70.8236
" />
<path d="M83.1143 70.8236
L83.0667 70.6331
" />
<path d="M83.0667 70.6331
L83.0190 70.5379
" />
<path d="M83.0190 70.5379
L82.9714 70.4902
" />
<path d="M82.9714 70.4902
L82.8762 70.4426
" />
<path d="M82.1143 70.7760
L82.1143 71.4426
" />
<path d="M82.1143 70.8712
L82.0667 70.8236
" />
<path d="M82.0667 70.8236
L81.9714 70.7760
" />
<path d="M81.9714 70.7760
L81.8286 70.7760
" />
<path d="M81.8286 70.7760
L81.7333 70.8236
" />
<path d="M81.7333 70.8236
L81.6857 70.9188
" />
<path d="M81.6857 70.9188
L81.6857 71.4426
" />
<path d="M80.8762 70.9188
L81.2095 70.9188
" />
<path d="M81.2095 71.4426
L81.2095 70.4426
" />
<path d="M81.2095 70.4426
L80.7333 70.4426
" />
</g></g>
<g style="fill:#000000; fill-opacity:0.0; 
stroke:#000000; stroke-width:0.0800; stroke-opacity:1; 
stroke-linecap:round; stroke-linejoin:round;">
<text x="82.9000" y="69.5500"
transform="scale(-1 1) translate(-165.800000 0)"
textLength="1.0762" font-size="0.6667" lengthAdjust="spacingAndGlyphs"
text-anchor="middle" opacity="0">C4</text>
<g class="stroked-text"><desc>C4</desc>
<path d="M82.9833 69.4837
L83.0071 69.5075
" />
<path d="M83.0071 69.5075
L83.0786 69.5313
" />
<path d="M83.0786 69.5313
L83.1262 69.5313
" />
<path d="M83.1262 69.5313
L83.1976 69.5075
" />
<path d="M83.1976 69.5075
L83.2452 69.4599
" />
<path d="M83.2452 69.4599
L83.2690 69.4123
" />
<path d="M83.2690 69.4123
L83.2929 69.3170
" />
<path d="M83.2929 69.3170
L83.2929 69.2456
" />
<path d="M83.2929 69.2456
L83.2690 69.1504
" />
<path d="M83.2690 69.1504
L83.2452 69.1027
" />
<path d="M83.2452 69.1027
L83.1976 69.0551
" />
<path d="M83.1976 69.0551
L83.1262 69.0313
" />
<path d="M83.1262 69.0313
L83.0786 69.0313
" />
<path d="M83.0786 69.0313
L83.0071 69.0551
" />
<path d="M83.0071 69.0551
L82.9833 69.0789
" />
<path d="M82.5548 69.1980
L82.5548 69.5313
" />
<path d="M82.6738 69.0075
L82.7929 69.3646
" />
<path d="M82.7929 69.3646
L82.4833 69.3646
" />
</g></g>
<g style="fill:#000000; fill-opacity:0.0; 
stroke:#000000; stroke-width:0.1500; stroke-opacity:1; 
stroke-linecap:round; stroke-linejoin:round;">
<g transform="rotate(-90.000000 88.1500 71.1000)">
<text x="88.1500" y="71.6000"
transform="scale(-1 1) translate(-176.300000 0)"
textLength="11.9369" font-size="1.3333" lengthAdjust="spacingAndGlyphs"
text-anchor="middle" opacity="0">10uF_0805_25V</text>
</g>
<g class="stroked-text"><desc>10uF_0805_25V</desc>
<path d="M88.6126 65.9810
L88.6126 65.4095
" />
<path d="M88.6126 65.6952
L87.6126 65.6952
" />
<path d="M87.6126 65.6952
L87.7555 65.6000
" />
<path d="M87.7555 65.6000
L87.8507 65.5048
" />
<path d="M87.8507 65.5048
L87.8983 65.4095
" />
<path d="M87.6126 66.6000
L87.6126 66.6952
" />
<path d="M87.6126 66.6952
L87.6602 66.7905
" />
<path d="M87.6602 66.7905
L87.7079 66.8381
" />
<path d="M87.7079 66.8381
L87.8031 66.8857
" />
<path d="M87.8031 66.8857
L87.9936 66.9333
" />
<path d="M87.9936 66.9333
L88.2317 66.9333
" />
<path d="M88.2317 66.9333
L88.4221 66.8857
" />
<path d="M88.4221 66.8857
L88.5174 66.8381
" />
<path d="M88.5174 66.8381
L88.5650 66.7905
" />
<path d="M88.5650 66.7905
L88.6126 66.6952
" />
<path d="M88.6126 66.6952
L88.6126 66.6000
" />
<path d="M88.6126 66.6000
L88.5650 66.5048
" />
<path d="M88.5650 66.5048
L88.5174 66.4571
" />
<path d="M88.5174 66.4571
L88.4221 66.4095
" />
<path d="M88.4221 66.4095
L88.2317 66.3619
" />
<path d="M88.2317 66.3619
L87.9936 66.3619
" />
<path d="M87.9936 66.3619
L87.8031 66.4095
" />
<path d="M87.8031 66.4095
L87.7079 66.4571
" />
<path d="M87.7079 66.4571
L87.6602 66.5048
" />
<path d="M87.6602 66.5048
L87.6126 66.6000
" />
<path d="M87.9460 67.7905
L88.6126 67.7905
" />
<path d="M87.9460 67.3619
L88.4698 67.3619
" />
<path d="M88.4698 67.3619
L88.5650 67.4095
" />
<path d="M88.5650 67.4095
L88.6126 67.5048
" />
<path d="M88.6126 67.5048
L88.6126 67.6476
" />
<path d="M88.6126 67.6476
L88.5650 67.7429
" />
<path d="M88.5650 67.7429
L88.5174 67.7905
" />
<path d="M88.0888 68.6000
L88.0888 68.2667
" />
<path d="M88.6126 68.2667
L87.6126 68.2667
" />
<path d="M87.6126 68.2667
L87.6126 68.7429
" />
<path d="M88.7079 68.8857
L88.7079 69.6476
" />
<path d="M87.6126 70.0762
L87.6126 70.1714
" />
<path d="M87.6126 70.1714
L87.6602 70.2667
" />
<path d="M87.6602 70.2667
L87.7079 70.3143
" />
<path d="M87.7079 70.3143
L87.8031 70.3619
" />
<path d="M87.8031 70.3619
L87.9936 70.4095
" />
<path d="M87.9936 70.4095
L88.2317 70.4095
" />
<path d="M88.2317 70.4095
L88.4221 70.3619
" />
<path d="M88.4221 70.3619
L88.5174 70.3143
" />
<path d="M88.5174 70.3143
L88.5650 70.2667
" />
<path d="M88.5650 70.2667
L88.6126 70.1714
" />
<path d="M88.6126 70.1714
L88.6126 70.0762
" />
<path d="M88.6126 70.0762
L88.5650 69.9810
" />
<path d="M88.5650 69.9810
L88.5174 69.9333
" />
<path d="M88.5174 69.9333
L88.4221 69.8857
" />
<path d="M88.4221 69.8857
L88.2317 69.8381
" />
<path d="M88.2317 69.8381
L87.9936 69.8381
" />
<path d="M87.9936 69.8381
L87.8031 69.8857
" />
<path d="M87.8031 69.8857
L87.7079 69.9333
" />
<path d="M87.7079 69.9333
L87.6602 69.9810
" />
<path d="M87.6602 69.9810
L87.6126 70.0762
" />
<path d="M88.0412 70.9810
L87.9936 70.8857
" />
<path d="M87.9936 70.8857
L87.9460 70.8381
" />
<path d="M87.9460 70.8381
L87.8507 70.7905
" />
<path d="M87.8507 70.7905
L87.8031 70.7905
" />
<path d="M87.8031 70.7905
L87.7079 70.8381
" />
<path d="M87.7079 70.8381
L87.6602 70.8857
" />
<path d="M87.6602 70.8857
L87.6126 70.9810
" />
<path d="M87.6126 70.9810
L87.6126 71.1714
" />
<path d="M87.6126 71.1714
L87.6602 71.2667
" />
<path d="M87.6602 71.2667
L87.7079 71.3143
" />
<path d="M87.7079 71.3143
L87.8031 71.3619
" />
<path d="M87.8031 71.3619
L87.8507 71.3619
" />
<path d="M87.8507 71.3619
L87.9460 71.3143
" />
<path d="M87.9460 71.3143
L87.9936 71.2667
" />
<path d="M87.9936 71.2667
L88.0412 71.1714
" />
<path d="M88.0412 71.1714
L88.0412 70.9810
" />
<path d="M88.0412 70.9810
L88.0888 70.8857
" />
<path d="M88.0888 70.8857
L88.1364 70.8381
" />
<path d="M88.1364 70.8381
L88.2317 70.7905
" />
<path d="M88.2317 70.7905
L88.4221 70.7905
" />
<path d="M88.4221 70.7905
L88.5174 70.8381
" />
<path d="M88.5174 70.8381
L88.5650 70.8857
" />
<path d="M88.5650 70.8857
L88.6126 70.9810
" />
<path d="M88.6126 70.9810
L88.6126 71.1714
" />
<path d="M88.6126 71.1714
L88.5650 71.2667
" />
<path d="M88.5650 71.2667
L88.5174 71.3143
" />
<path d="M88.5174 71.3143
L88.4221 71.3619
" />
<path d="M88.4221 71.3619
L88.2317 71.3619
" />
<path d="M88.2317 71.3619
L88.1364 71.3143
" />
<path d="M88.1364 71.3143
L88.0888 71.2667
" />
<path d="M88.0888 71.2667
L88.0412 71.1714
" />
<path d="M87.6126 71.9810
L87.6126 72.0762
" />
<path d="M87.6126 72.0762
L87.6602 72.1714
" />
<path d="M87.6602 72.1714
L87.7079 72.2190
" />
<path d="M87.7079 72.2190
L87.8031 72.2667
" />
<path d="M87.8031 72.2667
L87.9936 72.3143
" />
<path d="M87.9936 72.3143
L88.2317 72.3143
" />
<path d="M88.2317 72.3143
L88.4221 72.2667
" />
<path d="M88.4221 72.2667
L88.5174 72.2190
" />
<path d="M88.5174 72.2190
L88.5650 72.1714
" />
<path d="M88.5650 72.1714
L88.6126 72.0762
" />
<path d="M88.6126 72.0762
L88.6126 71.9810
" />
<path d="M88.6126 71.9810
L88.5650 71.8857
" />
<path d="M88.5650 71.8857
L88.5174 71.8381
" />
<path d="M88.5174 71.8381
L88.4221 71.7905
" />
<path d="M88.4221 71.7905
L88.2317 71.7429
" />
<path d="M88.2317 71.7429
L87.9936 71.7429
" />
<path d="M87.9936 71.7429
L87.8031 71.7905
" />
<path d="M87.8031 71.7905
L87.7079 71.8381
" />
<path d="M87.7079 71.8381
L87.6602 71.8857
" />
<path d="M87.6602 71.8857
L87.6126 71.9810
" />
<path d="M87.6126 73.2190
L87.6126 72.7429
" />
<path d="M87.6126 72.7429
L88.0888 72.6952
" />
<path d="M88.0888 72.6952
L88.0412 72.7429
" />
<path d="M88.0412 72.7429
L87.9936 72.8381
" />
<path d="M87.9936 72.8381
L87.9936 73.0762
" />
<path d="M87.9936 73.0762
L88.0412 73.1714
" />
<path d="M88.0412 73.1714
L88.0888 73.2190
" />
<path d="M88.0888 73.2190
L88.1840 73.2667
" />
<path d="M88.1840 73.2667
L88.4221 73.2667
" />
<path d="M88.4221 73.2667
L88.5174 73.2190
" />
<path d="M88.5174 73.2190
L88.5650 73.1714
" />
<path d="M88.5650 73.1714
L88.6126 73.0762
" />
<path d="M88.6126 73.0762
L88.6126 72.8381
" />
<path d="M88.6126 72.8381
L88.5650 72.7429
" />
<path d="M88.5650 72.7429
L88.5174 72.6952
" />
<path d="M88.7079 73.4571
L88.7079 74.2190
" />
<path d="M87.7079 74.4095
L87.6602 74.4571
" />
<path d="M87.6602 74.4571
L87.6126 74.5524
" />
<path d="M87.6126 74.5524
L87.6126 74.7905
" />
<path d="M87.6126 74.7905
L87.6602 74.8857
" />
<path d="M87.6602 74.8857
L87.7079 74.9333
" />
<path d="M87.7079 74.9333
L87.8031 74.9810
" />
<path d="M87.8031 74.9810
L87.8983 74.9810
" />
<path d="M87.8983 74.9810
L88.0412 74.9333
" />
<path d="M88.0412 74.9333
L88.6126 74.3619
" />
<path d="M88.6126 74.3619
L88.6126 74.9810
" />
<path d="M87.6126 75.8857
L87.6126 75.4095
" />
<path d="M87.6126 75.4095
L88.0888 75.3619
" />
<path d="M88.0888 75.3619
L88.0412 75.4095
" />
<path d="M88.0412 75.4095
L87.9936 75.5048
" />
<path d="M87.9936 75.5048
L87.9936 75.7429
" />
<path d="M87.9936 75.7429
L88.0412 75.8381
" />
<path d="M88.0412 75.8381
L88.0888 75.8857
" />
<path d="M88.0888 75.8857
L88.1840 75.9333
" />
<path d="M88.1840 75.9333
L88.4221 75.9333
" />
<path d="M88.4221 75.9333
L88.5174 75.8857
" />
<path d="M88.5174 75.8857
L88.5650 75.8381
" />
<path d="M88.5650 75.8381
L88.6126 75.7429
" />
<path d="M88.6126 75.7429
L88.6126 75.5048
" />
<path d="M88.6126 75.5048
L88.5650 75.4095
" />
<path d="M88.5650 75.4095
L88.5174 75.3619
" />
<path d="M87.6126 76.2190
L88.6126 76.5524
" />
<path d="M88.6126 76.5524
L87.6126 76.8857
" />
</g></g>
<g style="fill:#000000; fill-opacity:0.0; 
stroke:#000000; stroke-width:0.1200; stroke-opacity:1; 
stroke-linecap:round; stroke-linejoin:round;">
<g transform="rotate(-90.000000 90.0000 71.1000)">
<text x="90.0000" y="71.5000"
transform="scale(-1 1) translate(-180.000000 0)"
textLength="1.7019" font-size="1.0667" lengthAdjust="spacingAndGlyphs"
text-anchor="middle" opacity="0">C3</text>
</g>
<g class="stroked-text"><desc>C3</desc>
<path d="M90.2939 70.9667
L90.3320 70.9286
" />
<path d="M90.3320 70.9286
L90.3701 70.8143
" />
<path d="M90.3701 70.8143
L90.3701 70.7381
" />
<path d="M90.3701 70.7381
L90.3320 70.6238
" />
<path d="M90.3320 70.6238
L90.2558 70.5476
" />
<path d="M90.2558 70.5476
L90.1796 70.5095
" />
<path d="M90.1796 70.5095
L90.0272 70.4714
" />
<path d="M90.0272 70.4714
L89.9130 70.4714
" />
<path d="M89.9130 70.4714
L89.7606 70.5095
" />
<path d="M89.7606 70.5095
L89.6844 70.5476
" />
<path d="M89.6844 70.5476
L89.6082 70.6238
" />
<path d="M89.6082 70.6238
L89.5701 70.7381
" />
<path d="M89.5701 70.7381
L89.5701 70.8143
" />
<path d="M89.5701 70.8143
L89.6082 70.9286
" />
<path d="M89.6082 70.9286
L89.6463 70.9667
" />
<path d="M89.5701 71.2333
L89.5701 71.7286
" />
<path d="M89.5701 71.7286
L89.8749 71.4619
" />
<path d="M89.8749 71.4619
L89.8749 71.5762
" />
<path d="M89.8749 71.5762
L89.9130 71.6524
" />
<path d="M89.9130 71.6524
L89.9510 71.6905
" />
<path d="M89.9510 71.6905
L90.0272 71.7286
" />
<path d="M90.0272 71.7286
L90.2177 71.7286
" />
<path d="M90.2177 71.7286
L90.2939 71.6905
" />
<path d="M90.2939 71.6905
L90.3320 71.6524
" />
<path d="M90.3320 71.6524
L90.3701 71.5762
" />
<path d="M90.3701 71.5762
L90.3701 71.3476
" />
<path d="M90.3701 71.3476
L90.3320 71.2714
" />
<path d="M90.3320 71.2714
L90.2939 71.2333
" />
</g></g>
<g style="fill:#000000; fill-opacity:0.0; 
stroke:#000000; stroke-width:0.1000; stroke-opacity:1; 
stroke-linecap:round; stroke-linejoin:round;">
<path d="M92.9500 50.3500
L92.9500 54.2750
" />
<path d="M92.9500 54.2750
L93.9250 55.2500
" />
<path d="M93.9250 55.2500
L96.8500 55.2500
" />
<path d="M96.8500 50.3500
L92.9500 50.3500
" />
<path d="M96.8500 55.2500
L96.8500 50.3500
" />
</g>
<g style="fill:#000000; fill-opacity:0.0; 
stroke:#000000; stroke-width:0.1270; stroke-opacity:1; 
stroke-linecap:round; stroke-linejoin:round;">
<path d="M86.3000 65.8500
L86.3000 68.3500
" />
<path d="M86.3000 68.3500
L89.5000 68.3500
" />
<path d="M89.5000 65.8500
L86.3000 65.8500
" />
<path d="M89.5000 68.3500
L89.5000 65.8500
" />
</g>
<g style="fill:#000000; fill-opacity:0.0; 
stroke:#000000; stroke-width:0.1000; stroke-opacity:1; 
stroke-linecap:round; stroke-linejoin:round;">
<path d="M90.3000 58.8000
L90.3000 60.4000
" />
<path d="M90.3000 60.4000
L93.5000 60.4000
" />
<path d="M93.5000 58.8000
L90.3000 58.8000
" />
<path d="M93.5000 60.4000
L93.5000 58.8000
" />
<path d="M99.3600 64.0800
L98.7200 64.0800
" />
<path d="M98.7200 64.0800
L98.7200 65.4600
" />
<path d="M96.8200 64.0800
L96.1800 64.0800
" />
<path d="M96.1800 64.0800
L96.1800 65.4600
" />
<path d="M94.2800 64.0800
L93.6400 64.0800
" />
<path d="M93.6400 64.0800
L93.6400 65.4600
" />
<path d="M100.3100 65.4600
L92.6900 65.4600
" />
<path d="M99.3600 65.4600
L99.3600 64.0800
" />
<path d="M96.8200 65.4600
L96.8200 64.0800
" />
<path d="M94.2800 65.4600
L94.2800 64.0800
" />
<path d="M92.6900 65.4600
L92.6900 69.5400
" />
<path d="M92.6900 69.5400
L93.6900 70.5400
" />
<path d="M100.3100 70.5400
L100.3100 65.4600
" />
<path d="M98.7200 70.5400
L98.7200 71.9200
" />
<path d="M96.1800 70.5400
L96.1800 71.9200
" />
<path d="M93.6900 70.5400
L100.3100 70.5400
" />
<path d="M93.6400 70.5400
L93.6400 71.9200
" />
<path d="M99.3600 71.9200
L99.3600 70.5400
" />
<path d="M98.7200 71.9200
L99.3600 71.9200
" />
<path d="M96.8200 71.9200
L96.8200 70.5400
" />
<path d="M96.1800 71.9200
L96.8200 71.9200
" />
<path d="M94.2800 71.9200
L94.2800 70.5400
" />
<path d="M93.6400 71.9200
L94.2800 71.9200
" />
</g>
<g style="fill:#000000; fill-opacity:0.0; 
stroke:#000000; stroke-width:0.1500; stroke-opacity:1; 
stroke-linecap:round; stroke-linejoin:round;">
<path d="M87.4000 73.5000
L87.4000 71.0000
" />
<path d="M87.4000 71.0000
L86.9000 70.5000
" />
<path d="M86.9000 70.5000
L85.4000 70.5000
" />
<path d="M85.4000 73.5000
L87.4000 73.5000
" />
<path d="M85.4000 70.5000
L85.4000 73.5000
" />
</g>
<g style="fill:#000000; fill-opacity:0.0; 
stroke:#000000; stroke-width:0.1000; stroke-opacity:1; 
stroke-linecap:round; stroke-linejoin:round;">
<path d="M98.4250 56.5000
L97.1750 56.5000
" />
<path d="M97.1750 56.5000
L97.1750 58.5000
" />
<path d="M98.4250 58.5000
L98.4250 56.5000
" />
<path d="M97.1750 58.5000
L98.4250 58.5000
" />
<path d="M83.9000 69.9250
L83.9000 68.6750
" />
<path d="M83.9000 68.6750
L81.9000 68.6750
" />
<path d="M81.9000 69.9250
L83.9000 69.9250
" />
<path d="M81.9000 68.6750
L81.9000 69.9250
" />
<path d="M89.2000 72.7000
L90.8000 72.7000
" />
<path d="M90.8000 72.7000
L90.8000 69.5000
" />
<path d="M89.2000 69.5000
L89.2000 72.7000
" />
<path d="M90.8000 69.5000
L89.2000 69.5000
" />
<g >
</g>
<g >
</g>
<g >
</g>
<g >
</g>
<g >
</g>
<g >
</g>
<g >
</g>
<g >
</g>
<g >
</g>
<g >
</g>
<g >
</g>
<g >
</g>
<g >
</g>
<g >
</g>
<g >
</g>
<g >
</g>
<g >
</g>
<g >
</g>
<g >
</g>
</g> 
</svg>
