<?xml version="1.0" standalone="no"?>
 <!DOCTYPE svg PUBLIC "-//W3C//DTD SVG 1.1//EN" 
 "http://www.w3.org/Graphics/SVG/1.1/DTD/svg11.dtd"> 
<svg
  xmlns:svg="http://www.w3.org/2000/svg"
  xmlns="http://www.w3.org/2000/svg"
  xmlns:xlink="http://www.w3.org/1999/xlink"
  version="1.1"
  width="297.0022mm" height="210.0072mm" viewBox="0.0000 0.0000 297.0022 210.0072">
<title>SVG Image created as pedalboard-led-ring-B_Fab.svg date 2023/05/22 19:41:27 </title>
  <desc>Image generated by PCBNEW </desc>
<g style="fill:#000000; fill-opacity:1.0000;stroke:#000000; stroke-opacity:1.0000;
stroke-linecap:round; stroke-linejoin:round;"
 transform="translate(0 0) scale(1 1)">
</g>
<g style="fill:#000000; fill-opacity:0.0; 
stroke:#000000; stroke-width:0.0000; stroke-opacity:1; 
stroke-linecap:round; stroke-linejoin:round;">
</g>
<g style="fill:#000000; fill-opacity:0.0; 
stroke:#000000; stroke-width:0.1500; stroke-opacity:1; 
stroke-linecap:round; stroke-linejoin:round;">
<text x="94.9000" y="49.9000"
transform="scale(-1 1) translate(-189.800000 0)"
textLength="6.5560" font-size="1.3333" lengthAdjust="spacingAndGlyphs"
text-anchor="middle" opacity="0">TLC5973</text>
<g class="stroked-text"><desc>TLC5973</desc>
<path d="M97.9952 48.8626
L97.4238 48.8626
" />
<path d="M97.7095 49.8626
L97.7095 48.8626
" />
<path d="M96.6143 49.8626
L97.0905 49.8626
" />
<path d="M97.0905 49.8626
L97.0905 48.8626
" />
<path d="M95.7095 49.7674
L95.7571 49.8150
" />
<path d="M95.7571 49.8150
L95.9000 49.8626
" />
<path d="M95.9000 49.8626
L95.9952 49.8626
" />
<path d="M95.9952 49.8626
L96.1381 49.8150
" />
<path d="M96.1381 49.8150
L96.2333 49.7198
" />
<path d="M96.2333 49.7198
L96.2810 49.6245
" />
<path d="M96.2810 49.6245
L96.3286 49.4340
" />
<path d="M96.3286 49.4340
L96.3286 49.2912
" />
<path d="M96.3286 49.2912
L96.2810 49.1007
" />
<path d="M96.2810 49.1007
L96.2333 49.0055
" />
<path d="M96.2333 49.0055
L96.1381 48.9102
" />
<path d="M96.1381 48.9102
L95.9952 48.8626
" />
<path d="M95.9952 48.8626
L95.9000 48.8626
" />
<path d="M95.9000 48.8626
L95.7571 48.9102
" />
<path d="M95.7571 48.9102
L95.7095 48.9579
" />
<path d="M94.8048 48.8626
L95.2810 48.8626
" />
<path d="M95.2810 48.8626
L95.3286 49.3388
" />
<path d="M95.3286 49.3388
L95.2810 49.2912
" />
<path d="M95.2810 49.2912
L95.1857 49.2436
" />
<path d="M95.1857 49.2436
L94.9476 49.2436
" />
<path d="M94.9476 49.2436
L94.8524 49.2912
" />
<path d="M94.8524 49.2912
L94.8048 49.3388
" />
<path d="M94.8048 49.3388
L94.7571 49.4340
" />
<path d="M94.7571 49.4340
L94.7571 49.6721
" />
<path d="M94.7571 49.6721
L94.8048 49.7674
" />
<path d="M94.8048 49.7674
L94.8524 49.8150
" />
<path d="M94.8524 49.8150
L94.9476 49.8626
" />
<path d="M94.9476 49.8626
L95.1857 49.8626
" />
<path d="M95.1857 49.8626
L95.2810 49.8150
" />
<path d="M95.2810 49.8150
L95.3286 49.7674
" />
<path d="M94.2810 49.8626
L94.0905 49.8626
" />
<path d="M94.0905 49.8626
L93.9952 49.8150
" />
<path d="M93.9952 49.8150
L93.9476 49.7674
" />
<path d="M93.9476 49.7674
L93.8524 49.6245
" />
<path d="M93.8524 49.6245
L93.8048 49.4340
" />
<path d="M93.8048 49.4340
L93.8048 49.0531
" />
<path d="M93.8048 49.0531
L93.8524 48.9579
" />
<path d="M93.8524 48.9579
L93.9000 48.9102
" />
<path d="M93.9000 48.9102
L93.9952 48.8626
" />
<path d="M93.9952 48.8626
L94.1857 48.8626
" />
<path d="M94.1857 48.8626
L94.2810 48.9102
" />
<path d="M94.2810 48.9102
L94.3286 48.9579
" />
<path d="M94.3286 48.9579
L94.3762 49.0531
" />
<path d="M94.3762 49.0531
L94.3762 49.2912
" />
<path d="M94.3762 49.2912
L94.3286 49.3864
" />
<path d="M94.3286 49.3864
L94.2810 49.4340
" />
<path d="M94.2810 49.4340
L94.1857 49.4817
" />
<path d="M94.1857 49.4817
L93.9952 49.4817
" />
<path d="M93.9952 49.4817
L93.9000 49.4340
" />
<path d="M93.9000 49.4340
L93.8524 49.3864
" />
<path d="M93.8524 49.3864
L93.8048 49.2912
" />
<path d="M93.4714 48.8626
L92.8048 48.8626
" />
<path d="M92.8048 48.8626
L93.2333 49.8626
" />
<path d="M92.5190 48.8626
L91.9000 48.8626
" />
<path d="M91.9000 48.8626
L92.2333 49.2436
" />
<path d="M92.2333 49.2436
L92.0905 49.2436
" />
<path d="M92.0905 49.2436
L91.9952 49.2912
" />
<path d="M91.9952 49.2912
L91.9476 49.3388
" />
<path d="M91.9476 49.3388
L91.9000 49.4340
" />
<path d="M91.9000 49.4340
L91.9000 49.6721
" />
<path d="M91.9000 49.6721
L91.9476 49.7674
" />
<path d="M91.9476 49.7674
L91.9952 49.8150
" />
<path d="M91.9952 49.8150
L92.0905 49.8626
" />
<path d="M92.0905 49.8626
L92.3762 49.8626
" />
<path d="M92.3762 49.8626
L92.4714 49.8150
" />
<path d="M92.4714 49.8150
L92.5190 49.7674
" />
</g><text x="94.9000" y="53.2900"
transform="scale(-1 1) translate(-189.800000 0)"
textLength="2.1390" font-size="1.3067" lengthAdjust="spacingAndGlyphs"
text-anchor="middle" opacity="0">U1</text>
<g class="stroked-text"><desc>U1</desc>
<path d="M95.6467 52.2734
L95.6467 53.0667
" />
<path d="M95.6467 53.0667
L95.6000 53.1600
" />
<path d="M95.6000 53.1600
L95.5533 53.2067
" />
<path d="M95.5533 53.2067
L95.4600 53.2534
" />
<path d="M95.4600 53.2534
L95.2733 53.2534
" />
<path d="M95.2733 53.2534
L95.1800 53.2067
" />
<path d="M95.1800 53.2067
L95.1333 53.1600
" />
<path d="M95.1333 53.1600
L95.0867 53.0667
" />
<path d="M95.0867 53.0667
L95.0867 52.2734
" />
<path d="M94.1067 53.2534
L94.6667 53.2534
" />
<path d="M94.3867 53.2534
L94.3867 52.2734
" />
<path d="M94.3867 52.2734
L94.4800 52.4134
" />
<path d="M94.4800 52.4134
L94.5733 52.5067
" />
<path d="M94.5733 52.5067
L94.6667 52.5534
" />
</g><g transform="rotate(-90.000000 100.4700 68.0000)">
<text x="100.4700" y="68.5000"
transform="scale(-1 1) translate(-200.940000 0)"
textLength="9.2702" font-size="1.3333" lengthAdjust="spacingAndGlyphs"
text-anchor="middle" opacity="0">Conn_02x03</text>
</g>
<g class="stroked-text"><desc>Conn_02x03</desc>
<path d="M100.8374 64.2619
L100.8850 64.2143
" />
<path d="M100.8850 64.2143
L100.9326 64.0714
" />
<path d="M100.9326 64.0714
L100.9326 63.9762
" />
<path d="M100.9326 63.9762
L100.8850 63.8333
" />
<path d="M100.8850 63.8333
L100.7898 63.7381
" />
<path d="M100.7898 63.7381
L100.6945 63.6905
" />
<path d="M100.6945 63.6905
L100.5040 63.6429
" />
<path d="M100.5040 63.6429
L100.3612 63.6429
" />
<path d="M100.3612 63.6429
L100.1707 63.6905
" />
<path d="M100.1707 63.6905
L100.0755 63.7381
" />
<path d="M100.0755 63.7381
L99.9802 63.8333
" />
<path d="M99.9802 63.8333
L99.9326 63.9762
" />
<path d="M99.9326 63.9762
L99.9326 64.0714
" />
<path d="M99.9326 64.0714
L99.9802 64.2143
" />
<path d="M99.9802 64.2143
L100.0279 64.2619
" />
<path d="M100.9326 64.8333
L100.8850 64.7381
" />
<path d="M100.8850 64.7381
L100.8374 64.6905
" />
<path d="M100.8374 64.6905
L100.7421 64.6429
" />
<path d="M100.7421 64.6429
L100.4564 64.6429
" />
<path d="M100.4564 64.6429
L100.3612 64.6905
" />
<path d="M100.3612 64.6905
L100.3136 64.7381
" />
<path d="M100.3136 64.7381
L100.2660 64.8333
" />
<path d="M100.2660 64.8333
L100.2660 64.9762
" />
<path d="M100.2660 64.9762
L100.3136 65.0714
" />
<path d="M100.3136 65.0714
L100.3612 65.1190
" />
<path d="M100.3612 65.1190
L100.4564 65.1667
" />
<path d="M100.4564 65.1667
L100.7421 65.1667
" />
<path d="M100.7421 65.1667
L100.8374 65.1190
" />
<path d="M100.8374 65.1190
L100.8850 65.0714
" />
<path d="M100.8850 65.0714
L100.9326 64.9762
" />
<path d="M100.9326 64.9762
L100.9326 64.8333
" />
<path d="M100.2660 65.5952
L100.9326 65.5952
" />
<path d="M100.3612 65.5952
L100.3136 65.6429
" />
<path d="M100.3136 65.6429
L100.2660 65.7381
" />
<path d="M100.2660 65.7381
L100.2660 65.8810
" />
<path d="M100.2660 65.8810
L100.3136 65.9762
" />
<path d="M100.3136 65.9762
L100.4088 66.0238
" />
<path d="M100.4088 66.0238
L100.9326 66.0238
" />
<path d="M100.2660 66.5000
L100.9326 66.5000
" />
<path d="M100.3612 66.5000
L100.3136 66.5476
" />
<path d="M100.3136 66.5476
L100.2660 66.6429
" />
<path d="M100.2660 66.6429
L100.2660 66.7857
" />
<path d="M100.2660 66.7857
L100.3136 66.8810
" />
<path d="M100.3136 66.8810
L100.4088 66.9286
" />
<path d="M100.4088 66.9286
L100.9326 66.9286
" />
<path d="M101.0279 67.1667
L101.0279 67.9286
" />
<path d="M99.9326 68.3571
L99.9326 68.4524
" />
<path d="M99.9326 68.4524
L99.9802 68.5476
" />
<path d="M99.9802 68.5476
L100.0279 68.5952
" />
<path d="M100.0279 68.5952
L100.1231 68.6429
" />
<path d="M100.1231 68.6429
L100.3136 68.6905
" />
<path d="M100.3136 68.6905
L100.5517 68.6905
" />
<path d="M100.5517 68.6905
L100.7421 68.6429
" />
<path d="M100.7421 68.6429
L100.8374 68.5952
" />
<path d="M100.8374 68.5952
L100.8850 68.5476
" />
<path d="M100.8850 68.5476
L100.9326 68.4524
" />
<path d="M100.9326 68.4524
L100.9326 68.3571
" />
<path d="M100.9326 68.3571
L100.8850 68.2619
" />
<path d="M100.8850 68.2619
L100.8374 68.2143
" />
<path d="M100.8374 68.2143
L100.7421 68.1667
" />
<path d="M100.7421 68.1667
L100.5517 68.1190
" />
<path d="M100.5517 68.1190
L100.3136 68.1190
" />
<path d="M100.3136 68.1190
L100.1231 68.1667
" />
<path d="M100.1231 68.1667
L100.0279 68.2143
" />
<path d="M100.0279 68.2143
L99.9802 68.2619
" />
<path d="M99.9802 68.2619
L99.9326 68.3571
" />
<path d="M100.0279 69.0714
L99.9802 69.1190
" />
<path d="M99.9802 69.1190
L99.9326 69.2143
" />
<path d="M99.9326 69.2143
L99.9326 69.4524
" />
<path d="M99.9326 69.4524
L99.9802 69.5476
" />
<path d="M99.9802 69.5476
L100.0279 69.5952
" />
<path d="M100.0279 69.5952
L100.1231 69.6429
" />
<path d="M100.1231 69.6429
L100.2183 69.6429
" />
<path d="M100.2183 69.6429
L100.3612 69.5952
" />
<path d="M100.3612 69.5952
L100.9326 69.0238
" />
<path d="M100.9326 69.0238
L100.9326 69.6429
" />
<path d="M100.9326 69.9762
L100.2660 70.5000
" />
<path d="M100.2660 69.9762
L100.9326 70.5000
" />
<path d="M99.9326 71.0714
L99.9326 71.1667
" />
<path d="M99.9326 71.1667
L99.9802 71.2619
" />
<path d="M99.9802 71.2619
L100.0279 71.3095
" />
<path d="M100.0279 71.3095
L100.1231 71.3571
" />
<path d="M100.1231 71.3571
L100.3136 71.4048
" />
<path d="M100.3136 71.4048
L100.5517 71.4048
" />
<path d="M100.5517 71.4048
L100.7421 71.3571
" />
<path d="M100.7421 71.3571
L100.8374 71.3095
" />
<path d="M100.8374 71.3095
L100.8850 71.2619
" />
<path d="M100.8850 71.2619
L100.9326 71.1667
" />
<path d="M100.9326 71.1667
L100.9326 71.0714
" />
<path d="M100.9326 71.0714
L100.8850 70.9762
" />
<path d="M100.8850 70.9762
L100.8374 70.9286
" />
<path d="M100.8374 70.9286
L100.7421 70.8810
" />
<path d="M100.7421 70.8810
L100.5517 70.8333
" />
<path d="M100.5517 70.8333
L100.3136 70.8333
" />
<path d="M100.3136 70.8333
L100.1231 70.8810
" />
<path d="M100.1231 70.8810
L100.0279 70.9286
" />
<path d="M100.0279 70.9286
L99.9802 70.9762
" />
<path d="M99.9802 70.9762
L99.9326 71.0714
" />
<path d="M99.9326 71.7381
L99.9326 72.3571
" />
<path d="M99.9326 72.3571
L100.3136 72.0238
" />
<path d="M100.3136 72.0238
L100.3136 72.1667
" />
<path d="M100.3136 72.1667
L100.3612 72.2619
" />
<path d="M100.3612 72.2619
L100.4088 72.3095
" />
<path d="M100.4088 72.3095
L100.5040 72.3571
" />
<path d="M100.5040 72.3571
L100.7421 72.3571
" />
<path d="M100.7421 72.3571
L100.8374 72.3095
" />
<path d="M100.8374 72.3095
L100.8850 72.2619
" />
<path d="M100.8850 72.2619
L100.9326 72.1667
" />
<path d="M100.9326 72.1667
L100.9326 71.8810
" />
<path d="M100.9326 71.8810
L100.8850 71.7857
" />
<path d="M100.8850 71.7857
L100.8374 71.7381
" />
</g><text x="95.6000" y="68.5000"
transform="scale(-1 1) translate(-191.200000 0)"
textLength="1.8893" font-size="1.3333" lengthAdjust="spacingAndGlyphs"
text-anchor="middle" opacity="0">J1</text>
<g class="stroked-text"><desc>J1</desc>
<path d="M95.9333 67.4626
L95.9333 68.1769
" />
<path d="M95.9333 68.1769
L95.9810 68.3198
" />
<path d="M95.9810 68.3198
L96.0762 68.4150
" />
<path d="M96.0762 68.4150
L96.2190 68.4626
" />
<path d="M96.2190 68.4626
L96.3143 68.4626
" />
<path d="M94.9333 68.4626
L95.5048 68.4626
" />
<path d="M95.2190 68.4626
L95.2190 67.4626
" />
<path d="M95.2190 67.4626
L95.3143 67.6055
" />
<path d="M95.3143 67.6055
L95.4095 67.7007
" />
<path d="M95.4095 67.7007
L95.5048 67.7483
" />
</g><text x="93.4000" y="59.5000"
transform="scale(-1 1) translate(-186.800000 0)"
textLength="2.1274" font-size="1.3333" lengthAdjust="spacingAndGlyphs"
text-anchor="middle" opacity="0">C1</text>
<g class="stroked-text"><desc>C1</desc>
<path d="M93.5667 59.3674
L93.6143 59.4150
" />
<path d="M93.6143 59.4150
L93.7571 59.4626
" />
<path d="M93.7571 59.4626
L93.8524 59.4626
" />
<path d="M93.8524 59.4626
L93.9952 59.4150
" />
<path d="M93.9952 59.4150
L94.0905 59.3198
" />
<path d="M94.0905 59.3198
L94.1381 59.2245
" />
<path d="M94.1381 59.2245
L94.1857 59.0340
" />
<path d="M94.1857 59.0340
L94.1857 58.8912
" />
<path d="M94.1857 58.8912
L94.1381 58.7007
" />
<path d="M94.1381 58.7007
L94.0905 58.6055
" />
<path d="M94.0905 58.6055
L93.9952 58.5102
" />
<path d="M93.9952 58.5102
L93.8524 58.4626
" />
<path d="M93.8524 58.4626
L93.7571 58.4626
" />
<path d="M93.7571 58.4626
L93.6143 58.5102
" />
<path d="M93.6143 58.5102
L93.5667 58.5579
" />
<path d="M92.6143 59.4626
L93.1857 59.4626
" />
<path d="M92.9000 59.4626
L92.9000 58.4626
" />
<path d="M92.9000 58.4626
L92.9952 58.6055
" />
<path d="M92.9952 58.6055
L93.0905 58.7007
" />
<path d="M93.0905 58.7007
L93.1857 58.7483
" />
</g><g transform="rotate(-90.000000 100.8900 55.4000)">
<text x="100.8900" y="55.9000"
transform="scale(-1 1) translate(-201.780000 0)"
textLength="4.7940" font-size="1.3333" lengthAdjust="spacingAndGlyphs"
text-anchor="middle" opacity="0">100nF</text>
</g>
<g class="stroked-text"><desc>100nF</desc>
<path d="M101.3526 53.8524
L101.3526 53.2810
" />
<path d="M101.3526 53.5667
L100.3526 53.5667
" />
<path d="M100.3526 53.5667
L100.4955 53.4714
" />
<path d="M100.4955 53.4714
L100.5907 53.3762
" />
<path d="M100.5907 53.3762
L100.6383 53.2810
" />
<path d="M100.3526 54.4714
L100.3526 54.5667
" />
<path d="M100.3526 54.5667
L100.4002 54.6619
" />
<path d="M100.4002 54.6619
L100.4479 54.7095
" />
<path d="M100.4479 54.7095
L100.5431 54.7571
" />
<path d="M100.5431 54.7571
L100.7336 54.8048
" />
<path d="M100.7336 54.8048
L100.9717 54.8048
" />
<path d="M100.9717 54.8048
L101.1621 54.7571
" />
<path d="M101.1621 54.7571
L101.2574 54.7095
" />
<path d="M101.2574 54.7095
L101.3050 54.6619
" />
<path d="M101.3050 54.6619
L101.3526 54.5667
" />
<path d="M101.3526 54.5667
L101.3526 54.4714
" />
<path d="M101.3526 54.4714
L101.3050 54.3762
" />
<path d="M101.3050 54.3762
L101.2574 54.3286
" />
<path d="M101.2574 54.3286
L101.1621 54.2810
" />
<path d="M101.1621 54.2810
L100.9717 54.2333
" />
<path d="M100.9717 54.2333
L100.7336 54.2333
" />
<path d="M100.7336 54.2333
L100.5431 54.2810
" />
<path d="M100.5431 54.2810
L100.4479 54.3286
" />
<path d="M100.4479 54.3286
L100.4002 54.3762
" />
<path d="M100.4002 54.3762
L100.3526 54.4714
" />
<path d="M100.3526 55.4238
L100.3526 55.5190
" />
<path d="M100.3526 55.5190
L100.4002 55.6143
" />
<path d="M100.4002 55.6143
L100.4479 55.6619
" />
<path d="M100.4479 55.6619
L100.5431 55.7095
" />
<path d="M100.5431 55.7095
L100.7336 55.7571
" />
<path d="M100.7336 55.7571
L100.9717 55.7571
" />
<path d="M100.9717 55.7571
L101.1621 55.7095
" />
<path d="M101.1621 55.7095
L101.2574 55.6619
" />
<path d="M101.2574 55.6619
L101.3050 55.6143
" />
<path d="M101.3050 55.6143
L101.3526 55.5190
" />
<path d="M101.3526 55.5190
L101.3526 55.4238
" />
<path d="M101.3526 55.4238
L101.3050 55.3286
" />
<path d="M101.3050 55.3286
L101.2574 55.2810
" />
<path d="M101.2574 55.2810
L101.1621 55.2333
" />
<path d="M101.1621 55.2333
L100.9717 55.1857
" />
<path d="M100.9717 55.1857
L100.7336 55.1857
" />
<path d="M100.7336 55.1857
L100.5431 55.2333
" />
<path d="M100.5431 55.2333
L100.4479 55.2810
" />
<path d="M100.4479 55.2810
L100.4002 55.3286
" />
<path d="M100.4002 55.3286
L100.3526 55.4238
" />
<path d="M100.6860 56.1857
L101.3526 56.1857
" />
<path d="M100.7812 56.1857
L100.7336 56.2333
" />
<path d="M100.7336 56.2333
L100.6860 56.3286
" />
<path d="M100.6860 56.3286
L100.6860 56.4714
" />
<path d="M100.6860 56.4714
L100.7336 56.5667
" />
<path d="M100.7336 56.5667
L100.8288 56.6143
" />
<path d="M100.8288 56.6143
L101.3526 56.6143
" />
<path d="M100.8288 57.4238
L100.8288 57.0905
" />
<path d="M101.3526 57.0905
L100.3526 57.0905
" />
<path d="M100.3526 57.0905
L100.3526 57.5667
" />
</g></g>
<g style="fill:#000000; fill-opacity:0.0; 
stroke:#000000; stroke-width:0.0400; stroke-opacity:1; 
stroke-linecap:round; stroke-linejoin:round;">
<g transform="rotate(-90.000000 99.4000 55.4000)">
<text x="99.4000" y="55.5450"
transform="scale(-1 1) translate(-198.800000 0)"
textLength="0.6082" font-size="0.3867" lengthAdjust="spacingAndGlyphs"
text-anchor="middle" opacity="0">C2</text>
</g>
<g class="stroked-text"><desc>C2</desc>
<path d="M99.5065 55.3517
L99.5203 55.3379
" />
<path d="M99.5203 55.3379
L99.5342 55.2964
" />
<path d="M99.5342 55.2964
L99.5342 55.2688
" />
<path d="M99.5342 55.2688
L99.5203 55.2274
" />
<path d="M99.5203 55.2274
L99.4927 55.1998
" />
<path d="M99.4927 55.1998
L99.4651 55.1860
" />
<path d="M99.4651 55.1860
L99.4099 55.1721
" />
<path d="M99.4099 55.1721
L99.3684 55.1721
" />
<path d="M99.3684 55.1721
L99.3132 55.1860
" />
<path d="M99.3132 55.1860
L99.2856 55.1998
" />
<path d="M99.2856 55.1998
L99.2580 55.2274
" />
<path d="M99.2580 55.2274
L99.2442 55.2688
" />
<path d="M99.2442 55.2688
L99.2442 55.2964
" />
<path d="M99.2442 55.2964
L99.2580 55.3379
" />
<path d="M99.2580 55.3379
L99.2718 55.3517
" />
<path d="M99.2718 55.4621
L99.2580 55.4760
" />
<path d="M99.2580 55.4760
L99.2442 55.5036
" />
<path d="M99.2442 55.5036
L99.2442 55.5726
" />
<path d="M99.2442 55.5726
L99.2580 55.6002
" />
<path d="M99.2580 55.6002
L99.2718 55.6140
" />
<path d="M99.2718 55.6140
L99.2994 55.6279
" />
<path d="M99.2994 55.6279
L99.3270 55.6279
" />
<path d="M99.3270 55.6279
L99.3684 55.6140
" />
<path d="M99.3684 55.6140
L99.5342 55.4483
" />
<path d="M99.5342 55.4483
L99.5342 55.6279
" />
</g></g>
<g style="fill:#000000; fill-opacity:0.0; 
stroke:#000000; stroke-width:0.1000; stroke-opacity:1; 
stroke-linecap:round; stroke-linejoin:round;">
<path d="M92.9500 50.3500
L92.9500 54.2750
" />
<path d="M92.9500 54.2750
L93.9250 55.2500
" />
<path d="M93.9250 55.2500
L96.8500 55.2500
" />
<path d="M96.8500 50.3500
L92.9500 50.3500
" />
<path d="M96.8500 55.2500
L96.8500 50.3500
" />
<path d="M98.4600 64.4000
L98.4600 65.4600
" />
<path d="M97.8200 64.4000
L98.4600 64.4000
" />
<path d="M95.9200 64.4000
L95.9200 65.4600
" />
<path d="M95.2800 64.4000
L95.9200 64.4000
" />
<path d="M93.3800 64.4000
L93.3800 65.4600
" />
<path d="M92.7400 64.4000
L93.3800 64.4000
" />
<path d="M99.4100 65.4600
L92.7400 65.4600
" />
<path d="M97.8200 65.4600
L97.8200 64.4000
" />
<path d="M95.2800 65.4600
L95.2800 64.4000
" />
<path d="M92.7400 65.4600
L92.7400 64.4000
" />
<path d="M92.7400 65.4600
L91.7900 66.4100
" />
<path d="M91.7900 66.4100
L91.7900 70.5400
" />
<path d="M99.4100 70.5400
L99.4100 65.4600
" />
<path d="M97.8200 70.5400
L97.8200 71.6000
" />
<path d="M95.2800 70.5400
L95.2800 71.6000
" />
<path d="M92.7400 70.5400
L92.7400 71.6000
" />
<path d="M91.7900 70.5400
L99.4100 70.5400
" />
<path d="M98.4600 71.6000
L98.4600 70.5400
" />
<path d="M97.8200 71.6000
L98.4600 71.6000
" />
<path d="M95.9200 71.6000
L95.9200 70.5400
" />
<path d="M95.2800 71.6000
L95.9200 71.6000
" />
<path d="M93.3800 71.6000
L93.3800 70.5400
" />
<path d="M92.7400 71.6000
L93.3800 71.6000
" />
<path d="M90.7500 57.3500
L91.7500 56.3500
" />
<path d="M90.7500 60.6500
L90.7500 57.3500
" />
<path d="M90.7500 60.6500
L91.7500 61.6500
" />
<path d="M91.7500 56.3500
L96.0500 56.3500
" />
<path d="M91.7500 61.6500
L96.0500 61.6500
" />
<path d="M96.0500 61.6500
L96.0500 56.3500
" />
<circle cx="93.4000" cy="59.0000" r="2.5000" /> 
<path d="M99.9100 54.8150
L98.8900 54.8150
" />
<path d="M98.8900 54.8150
L98.8900 55.9850
" />
<path d="M99.9100 55.9850
L99.9100 54.8150
" />
<path d="M98.8900 55.9850
L99.9100 55.9850
" />
<g >
</g>
<g >
</g>
<g >
</g>
<g >
</g>
<g >
</g>
<g >
</g>
<g >
</g>
<g >
</g>
<g >
</g>
<g >
</g>
<g >
</g>
<g >
</g>
<g >
</g>
<g >
</g>
</g> 
</svg>
