<?xml version="1.0" standalone="no"?>
 <!DOCTYPE svg PUBLIC "-//W3C//DTD SVG 1.1//EN" 
 "http://www.w3.org/Graphics/SVG/1.1/DTD/svg11.dtd"> 
<svg
  xmlns:svg="http://www.w3.org/2000/svg"
  xmlns="http://www.w3.org/2000/svg"
  xmlns:xlink="http://www.w3.org/1999/xlink"
  version="1.1"
  width="297.0022mm" height="210.0072mm" viewBox="0.0000 0.0000 297.0022 210.0072">
<title>SVG Image created as pedalboard-led-ring-B_Fab.svg date 2023/06/03 19:21:59 </title>
  <desc>Image generated by PCBNEW </desc>
<g style="fill:#000000; fill-opacity:1.0000;stroke:#000000; stroke-opacity:1.0000;
stroke-linecap:round; stroke-linejoin:round;"
 transform="translate(0 0) scale(1 1)">
</g>
<g style="fill:#000000; fill-opacity:0.0; 
stroke:#000000; stroke-width:0.0000; stroke-opacity:1; 
stroke-linecap:round; stroke-linejoin:round;">
</g>
<g style="fill:#000000; fill-opacity:0.0; 
stroke:#000000; stroke-width:0.1500; stroke-opacity:1; 
stroke-linecap:round; stroke-linejoin:round;">
<g transform="rotate(-90.000000 86.5000 60.0000)">
<text x="86.5000" y="60.5000"
transform="scale(-1 1) translate(-173.000000 0)"
textLength="5.1750" font-size="1.3333" lengthAdjust="spacingAndGlyphs"
text-anchor="middle" opacity="0">middle</text>
</g>
<g class="stroked-text"><desc>middle</desc>
<path d="M86.9548 57.7381
L86.2882 57.7381
" />
<path d="M86.3834 57.7381
L86.3358 57.7857
" />
<path d="M86.3358 57.7857
L86.2882 57.8810
" />
<path d="M86.2882 57.8810
L86.2882 58.0238
" />
<path d="M86.2882 58.0238
L86.3358 58.1190
" />
<path d="M86.3358 58.1190
L86.4310 58.1667
" />
<path d="M86.4310 58.1667
L86.9548 58.1667
" />
<path d="M86.4310 58.1667
L86.3358 58.2143
" />
<path d="M86.3358 58.2143
L86.2882 58.3095
" />
<path d="M86.2882 58.3095
L86.2882 58.4524
" />
<path d="M86.2882 58.4524
L86.3358 58.5476
" />
<path d="M86.3358 58.5476
L86.4310 58.5952
" />
<path d="M86.4310 58.5952
L86.9548 58.5952
" />
<path d="M86.9548 59.0714
L86.2882 59.0714
" />
<path d="M85.9548 59.0714
L86.0024 59.0238
" />
<path d="M86.0024 59.0238
L86.0501 59.0714
" />
<path d="M86.0501 59.0714
L86.0024 59.1190
" />
<path d="M86.0024 59.1190
L85.9548 59.0714
" />
<path d="M85.9548 59.0714
L86.0501 59.0714
" />
<path d="M86.9548 59.9762
L85.9548 59.9762
" />
<path d="M86.9072 59.9762
L86.9548 59.8810
" />
<path d="M86.9548 59.8810
L86.9548 59.6905
" />
<path d="M86.9548 59.6905
L86.9072 59.5952
" />
<path d="M86.9072 59.5952
L86.8596 59.5476
" />
<path d="M86.8596 59.5476
L86.7643 59.5000
" />
<path d="M86.7643 59.5000
L86.4786 59.5000
" />
<path d="M86.4786 59.5000
L86.3834 59.5476
" />
<path d="M86.3834 59.5476
L86.3358 59.5952
" />
<path d="M86.3358 59.5952
L86.2882 59.6905
" />
<path d="M86.2882 59.6905
L86.2882 59.8810
" />
<path d="M86.2882 59.8810
L86.3358 59.9762
" />
<path d="M86.9548 60.8810
L85.9548 60.8810
" />
<path d="M86.9072 60.8810
L86.9548 60.7857
" />
<path d="M86.9548 60.7857
L86.9548 60.5952
" />
<path d="M86.9548 60.5952
L86.9072 60.5000
" />
<path d="M86.9072 60.5000
L86.8596 60.4524
" />
<path d="M86.8596 60.4524
L86.7643 60.4048
" />
<path d="M86.7643 60.4048
L86.4786 60.4048
" />
<path d="M86.4786 60.4048
L86.3834 60.4524
" />
<path d="M86.3834 60.4524
L86.3358 60.5000
" />
<path d="M86.3358 60.5000
L86.2882 60.5952
" />
<path d="M86.2882 60.5952
L86.2882 60.7857
" />
<path d="M86.2882 60.7857
L86.3358 60.8810
" />
<path d="M86.9548 61.5000
L86.9072 61.4048
" />
<path d="M86.9072 61.4048
L86.8120 61.3571
" />
<path d="M86.8120 61.3571
L85.9548 61.3571
" />
<path d="M86.9072 62.2619
L86.9548 62.1667
" />
<path d="M86.9548 62.1667
L86.9548 61.9762
" />
<path d="M86.9548 61.9762
L86.9072 61.8810
" />
<path d="M86.9072 61.8810
L86.8120 61.8333
" />
<path d="M86.8120 61.8333
L86.4310 61.8333
" />
<path d="M86.4310 61.8333
L86.3358 61.8810
" />
<path d="M86.3358 61.8810
L86.2882 61.9762
" />
<path d="M86.2882 61.9762
L86.2882 62.1667
" />
<path d="M86.2882 62.1667
L86.3358 62.2619
" />
<path d="M86.3358 62.2619
L86.4310 62.3095
" />
<path d="M86.4310 62.3095
L86.5262 62.3095
" />
<path d="M86.5262 62.3095
L86.6215 61.8333
" />
</g><text x="90.0000" y="60.5000"
transform="scale(-1 1) translate(-180.000000 0)"
textLength="1.8893" font-size="1.3333" lengthAdjust="spacingAndGlyphs"
text-anchor="middle" opacity="0">J1</text>
<g class="stroked-text"><desc>J1</desc>
<path d="M90.3333 59.4548
L90.3333 60.1691
" />
<path d="M90.3333 60.1691
L90.3810 60.3120
" />
<path d="M90.3810 60.3120
L90.4762 60.4072
" />
<path d="M90.4762 60.4072
L90.6190 60.4548
" />
<path d="M90.6190 60.4548
L90.7143 60.4548
" />
<path d="M89.3333 60.4548
L89.9048 60.4548
" />
<path d="M89.6190 60.4548
L89.6190 59.4548
" />
<path d="M89.6190 59.4548
L89.7143 59.5977
" />
<path d="M89.7143 59.5977
L89.8095 59.6929
" />
<path d="M89.8095 59.6929
L89.9048 59.7405
" />
</g><text x="87.0000" y="65.0000"
transform="scale(-1 1) translate(-174.000000 0)"
textLength="3.6988" font-size="1.3333" lengthAdjust="spacingAndGlyphs"
text-anchor="middle" opacity="0">edge</text>
<g class="stroked-text"><desc>edge</desc>
<path d="M88.1429 64.9072
L88.2381 64.9548
" />
<path d="M88.2381 64.9548
L88.4286 64.9548
" />
<path d="M88.4286 64.9548
L88.5238 64.9072
" />
<path d="M88.5238 64.9072
L88.5714 64.8120
" />
<path d="M88.5714 64.8120
L88.5714 64.4310
" />
<path d="M88.5714 64.4310
L88.5238 64.3358
" />
<path d="M88.5238 64.3358
L88.4286 64.2882
" />
<path d="M88.4286 64.2882
L88.2381 64.2882
" />
<path d="M88.2381 64.2882
L88.1429 64.3358
" />
<path d="M88.1429 64.3358
L88.0952 64.4310
" />
<path d="M88.0952 64.4310
L88.0952 64.5262
" />
<path d="M88.0952 64.5262
L88.5714 64.6215
" />
<path d="M87.2381 64.9548
L87.2381 63.9548
" />
<path d="M87.2381 64.9072
L87.3333 64.9548
" />
<path d="M87.3333 64.9548
L87.5238 64.9548
" />
<path d="M87.5238 64.9548
L87.6190 64.9072
" />
<path d="M87.6190 64.9072
L87.6667 64.8596
" />
<path d="M87.6667 64.8596
L87.7143 64.7643
" />
<path d="M87.7143 64.7643
L87.7143 64.4786
" />
<path d="M87.7143 64.4786
L87.6667 64.3834
" />
<path d="M87.6667 64.3834
L87.6190 64.3358
" />
<path d="M87.6190 64.3358
L87.5238 64.2882
" />
<path d="M87.5238 64.2882
L87.3333 64.2882
" />
<path d="M87.3333 64.2882
L87.2381 64.3358
" />
<path d="M86.3333 64.2882
L86.3333 65.0977
" />
<path d="M86.3333 65.0977
L86.3810 65.1929
" />
<path d="M86.3810 65.1929
L86.4286 65.2405
" />
<path d="M86.4286 65.2405
L86.5238 65.2882
" />
<path d="M86.5238 65.2882
L86.6667 65.2882
" />
<path d="M86.6667 65.2882
L86.7619 65.2405
" />
<path d="M86.3333 64.9072
L86.4286 64.9548
" />
<path d="M86.4286 64.9548
L86.6190 64.9548
" />
<path d="M86.6190 64.9548
L86.7143 64.9072
" />
<path d="M86.7143 64.9072
L86.7619 64.8596
" />
<path d="M86.7619 64.8596
L86.8095 64.7643
" />
<path d="M86.8095 64.7643
L86.8095 64.4786
" />
<path d="M86.8095 64.4786
L86.7619 64.3834
" />
<path d="M86.7619 64.3834
L86.7143 64.3358
" />
<path d="M86.7143 64.3358
L86.6190 64.2882
" />
<path d="M86.6190 64.2882
L86.4286 64.2882
" />
<path d="M86.4286 64.2882
L86.3333 64.3358
" />
<path d="M85.4762 64.9072
L85.5714 64.9548
" />
<path d="M85.5714 64.9548
L85.7619 64.9548
" />
<path d="M85.7619 64.9548
L85.8571 64.9072
" />
<path d="M85.8571 64.9072
L85.9048 64.8120
" />
<path d="M85.9048 64.8120
L85.9048 64.4310
" />
<path d="M85.9048 64.4310
L85.8571 64.3358
" />
<path d="M85.8571 64.3358
L85.7619 64.2882
" />
<path d="M85.7619 64.2882
L85.5714 64.2882
" />
<path d="M85.5714 64.2882
L85.4762 64.3358
" />
<path d="M85.4762 64.3358
L85.4286 64.4310
" />
<path d="M85.4286 64.4310
L85.4286 64.5262
" />
<path d="M85.4286 64.5262
L85.9048 64.6215
" />
</g><g transform="rotate(-90.000000 87.0000 68.0000)">
<text x="87.0000" y="68.5000"
transform="scale(-1 1) translate(-174.000000 0)"
textLength="1.8893" font-size="1.3333" lengthAdjust="spacingAndGlyphs"
text-anchor="middle" opacity="0">J2</text>
</g>
<g class="stroked-text"><desc>J2</desc>
<path d="M86.4548 67.6667
L87.1691 67.6667
" />
<path d="M87.1691 67.6667
L87.3120 67.6190
" />
<path d="M87.3120 67.6190
L87.4072 67.5238
" />
<path d="M87.4072 67.5238
L87.4548 67.3810
" />
<path d="M87.4548 67.3810
L87.4548 67.2857
" />
<path d="M86.5501 68.0952
L86.5024 68.1429
" />
<path d="M86.5024 68.1429
L86.4548 68.2381
" />
<path d="M86.4548 68.2381
L86.4548 68.4762
" />
<path d="M86.4548 68.4762
L86.5024 68.5714
" />
<path d="M86.5024 68.5714
L86.5501 68.6190
" />
<path d="M86.5501 68.6190
L86.6453 68.6667
" />
<path d="M86.6453 68.6667
L86.7405 68.6667
" />
<path d="M86.7405 68.6667
L86.8834 68.6190
" />
<path d="M86.8834 68.6190
L87.4548 68.0476
" />
<path d="M87.4548 68.0476
L87.4548 68.6667
" />
</g></g>
<g style="fill:#000000; fill-opacity:0.0; 
stroke:#000000; stroke-width:0.1000; stroke-opacity:1; 
stroke-linecap:round; stroke-linejoin:round;">
<path d="M88.7500 63.0000
L89.2500 63.0000
" />
<path d="M89.2500 63.0000
L89.2500 62.0000
" />
<path d="M90.7500 63.0000
L91.2500 63.0000
" />
<path d="M91.2500 63.0000
L91.2500 62.0000
" />
<path d="M88.0000 62.0000
L92.0000 62.0000
" />
<path d="M88.7500 62.0000
L88.7500 63.0000
" />
<path d="M90.7500 62.0000
L90.7500 63.0000
" />
<path d="M92.0000 62.0000
L92.0000 59.0000
" />
<path d="M92.0000 59.0000
L91.0000 58.0000
" />
<path d="M88.0000 58.0000
L88.0000 62.0000
" />
<path d="M89.2500 58.0000
L89.2500 57.0000
" />
<path d="M91.0000 58.0000
L88.0000 58.0000
" />
<path d="M91.2500 58.0000
L91.2500 57.0000
" />
<path d="M88.7500 57.0000
L88.7500 58.0000
" />
<path d="M89.2500 57.0000
L88.7500 57.0000
" />
<path d="M90.7500 57.0000
L90.7500 58.0000
" />
<path d="M91.2500 57.0000
L90.7500 57.0000
" />
<path d="M84.0000 66.7500
L84.0000 67.2500
" />
<path d="M84.0000 67.2500
L85.0000 67.2500
" />
<path d="M84.0000 68.7500
L84.0000 69.2500
" />
<path d="M84.0000 69.2500
L85.0000 69.2500
" />
<path d="M85.0000 66.0000
L85.0000 70.0000
" />
<path d="M85.0000 66.7500
L84.0000 66.7500
" />
<path d="M85.0000 68.7500
L84.0000 68.7500
" />
<path d="M85.0000 70.0000
L88.0000 70.0000
" />
<path d="M88.0000 70.0000
L89.0000 69.0000
" />
<path d="M89.0000 66.0000
L85.0000 66.0000
" />
<path d="M89.0000 67.2500
L90.0000 67.2500
" />
<path d="M89.0000 69.0000
L89.0000 66.0000
" />
<path d="M89.0000 69.2500
L90.0000 69.2500
" />
<path d="M90.0000 66.7500
L89.0000 66.7500
" />
<path d="M90.0000 67.2500
L90.0000 66.7500
" />
<path d="M90.0000 68.7500
L89.0000 68.7500
" />
<path d="M90.0000 69.2500
L90.0000 68.7500
" />
<g >
</g>
<g >
</g>
<g >
</g>
<g >
</g>
<g >
</g>
<g >
</g>
<g >
</g>
<g >
</g>
<g >
</g>
<g >
</g>
<g >
</g>
<g >
</g>
<g >
</g>
<g >
</g>
<g >
</g>
<g >
</g>
<g >
</g>
<g >
</g>
<g >
</g>
<g >
</g>
<g >
</g>
<g >
</g>
<g >
</g>
<g >
</g>
<g >
</g>
<g >
</g>
<g >
</g>
<g >
</g>
<g >
</g>
<g >
</g>
<g >
</g>
<g >
</g>
<g >
</g>
<g >
</g>
</g> 
</svg>
