<?xml version="1.0" standalone="no"?>
 <!DOCTYPE svg PUBLIC "-//W3C//DTD SVG 1.1//EN" 
 "http://www.w3.org/Graphics/SVG/1.1/DTD/svg11.dtd"> 
<svg
  xmlns:svg="http://www.w3.org/2000/svg"
  xmlns="http://www.w3.org/2000/svg"
  xmlns:xlink="http://www.w3.org/1999/xlink"
  version="1.1"
  width="297.0022mm" height="210.0072mm" viewBox="0.0000 0.0000 297.0022 210.0072">
<title>SVG Image created as pedalboard-led-ring-B_Silkscreen.svg date 2023/05/26 12:46:22 </title>
  <desc>Image generated by PCBNEW </desc>
<g style="fill:#000000; fill-opacity:1.0000;stroke:#000000; stroke-opacity:1.0000;
stroke-linecap:round; stroke-linejoin:round;"
 transform="translate(0 0) scale(1 1)">
</g>
<g style="fill:#000000; fill-opacity:0.0; 
stroke:#000000; stroke-width:0.0000; stroke-opacity:1; 
stroke-linecap:round; stroke-linejoin:round;">
</g>
<g style="fill:#000000; fill-opacity:0.0; 
stroke:#000000; stroke-width:0.1000; stroke-opacity:1; 
stroke-linecap:round; stroke-linejoin:round;">
<circle cx="80.0000" cy="60.0000" r="7.0500" /> 
</g>
<g style="fill:#000000; fill-opacity:0.0; 
stroke:#000000; stroke-width:0.1500; stroke-opacity:1; 
stroke-linecap:round; stroke-linejoin:round;">
<text x="92.1000" y="49.8000"
transform="scale(-1 1) translate(-184.200000 0)"
textLength="2.1750" font-size="1.3333" lengthAdjust="spacingAndGlyphs"
text-anchor="middle" opacity="0">U1</text>
<g class="stroked-text"><desc>U1</desc>
<path d="M92.8619 48.7626
L92.8619 49.5721
" />
<path d="M92.8619 49.5721
L92.8143 49.6674
" />
<path d="M92.8143 49.6674
L92.7667 49.7150
" />
<path d="M92.7667 49.7150
L92.6714 49.7626
" />
<path d="M92.6714 49.7626
L92.4810 49.7626
" />
<path d="M92.4810 49.7626
L92.3857 49.7150
" />
<path d="M92.3857 49.7150
L92.3381 49.6674
" />
<path d="M92.3381 49.6674
L92.2905 49.5721
" />
<path d="M92.2905 49.5721
L92.2905 48.7626
" />
<path d="M91.2905 49.7626
L91.8619 49.7626
" />
<path d="M91.5762 49.7626
L91.5762 48.7626
" />
<path d="M91.5762 48.7626
L91.6714 48.9055
" />
<path d="M91.6714 48.9055
L91.7667 49.0007
" />
<path d="M91.7667 49.0007
L91.8619 49.0483
" />
</g><text x="88.6500" y="64.9000"
transform="scale(-1 1) translate(-177.300000 0)"
textLength="1.9369" font-size="1.3333" lengthAdjust="spacingAndGlyphs"
text-anchor="middle" opacity="0">L1</text>
<g class="stroked-text"><desc>L1</desc>
<path d="M88.8167 64.8626
L89.2929 64.8626
" />
<path d="M89.2929 64.8626
L89.2929 63.8626
" />
<path d="M87.9595 64.8626
L88.5310 64.8626
" />
<path d="M88.2452 64.8626
L88.2452 63.8626
" />
<path d="M88.2452 63.8626
L88.3405 64.0055
" />
<path d="M88.3405 64.0055
L88.4357 64.1007
" />
<path d="M88.4357 64.1007
L88.5310 64.1483
" />
</g><text x="91.9000" y="61.9500"
transform="scale(-1 1) translate(-183.800000 0)"
textLength="2.1274" font-size="1.3333" lengthAdjust="spacingAndGlyphs"
text-anchor="middle" opacity="0">C1</text>
<g class="stroked-text"><desc>C1</desc>
<path d="M92.0667 61.8174
L92.1143 61.8650
" />
<path d="M92.1143 61.8650
L92.2571 61.9126
" />
<path d="M92.2571 61.9126
L92.3524 61.9126
" />
<path d="M92.3524 61.9126
L92.4952 61.8650
" />
<path d="M92.4952 61.8650
L92.5905 61.7698
" />
<path d="M92.5905 61.7698
L92.6381 61.6745
" />
<path d="M92.6381 61.6745
L92.6857 61.4840
" />
<path d="M92.6857 61.4840
L92.6857 61.3412
" />
<path d="M92.6857 61.3412
L92.6381 61.1507
" />
<path d="M92.6381 61.1507
L92.5905 61.0555
" />
<path d="M92.5905 61.0555
L92.4952 60.9602
" />
<path d="M92.4952 60.9602
L92.3524 60.9126
" />
<path d="M92.3524 60.9126
L92.2571 60.9126
" />
<path d="M92.2571 60.9126
L92.1143 60.9602
" />
<path d="M92.1143 60.9602
L92.0667 61.0079
" />
<path d="M91.1143 61.9126
L91.6857 61.9126
" />
<path d="M91.4000 61.9126
L91.4000 60.9126
" />
<path d="M91.4000 60.9126
L91.4952 61.0555
" />
<path d="M91.4952 61.0555
L91.5905 61.1507
" />
<path d="M91.5905 61.1507
L91.6857 61.1983
" />
</g><g transform="rotate(-90.000000 90.2900 68.0000)">
<text x="90.2900" y="68.5000"
transform="scale(-1 1) translate(-180.580000 0)"
textLength="1.8893" font-size="1.3333" lengthAdjust="spacingAndGlyphs"
text-anchor="middle" opacity="0">J1</text>
</g>
<g class="stroked-text"><desc>J1</desc>
<path d="M89.7526 67.6667
L90.4669 67.6667
" />
<path d="M90.4669 67.6667
L90.6098 67.6190
" />
<path d="M90.6098 67.6190
L90.7050 67.5238
" />
<path d="M90.7050 67.5238
L90.7526 67.3810
" />
<path d="M90.7526 67.3810
L90.7526 67.2857
" />
<path d="M90.7526 68.6667
L90.7526 68.0952
" />
<path d="M90.7526 68.3810
L89.7526 68.3810
" />
<path d="M89.7526 68.3810
L89.8955 68.2857
" />
<path d="M89.8955 68.2857
L89.9907 68.1905
" />
<path d="M89.9907 68.1905
L90.0383 68.0952
" />
</g><g transform="rotate(-90.000000 82.7000 72.8000)">
<text x="82.7000" y="73.1250"
transform="scale(-1 1) translate(-165.400000 0)"
textLength="1.5140" font-size="0.8667" lengthAdjust="spacingAndGlyphs"
text-anchor="middle" opacity="0">R2</text>
</g>
<g class="stroked-text"><desc>R2</desc>
<path d="M83.0007 72.6917
L82.6912 72.4750
" />
<path d="M83.0007 72.3202
L82.3507 72.3202
" />
<path d="M82.3507 72.3202
L82.3507 72.5679
" />
<path d="M82.3507 72.5679
L82.3817 72.6298
" />
<path d="M82.3817 72.6298
L82.4126 72.6607
" />
<path d="M82.4126 72.6607
L82.4745 72.6917
" />
<path d="M82.4745 72.6917
L82.5674 72.6917
" />
<path d="M82.5674 72.6917
L82.6293 72.6607
" />
<path d="M82.6293 72.6607
L82.6602 72.6298
" />
<path d="M82.6602 72.6298
L82.6912 72.5679
" />
<path d="M82.6912 72.5679
L82.6912 72.3202
" />
<path d="M82.4126 72.9393
L82.3817 72.9702
" />
<path d="M82.3817 72.9702
L82.3507 73.0321
" />
<path d="M82.3507 73.0321
L82.3507 73.1869
" />
<path d="M82.3507 73.1869
L82.3817 73.2488
" />
<path d="M82.3817 73.2488
L82.4126 73.2798
" />
<path d="M82.4126 73.2798
L82.4745 73.3107
" />
<path d="M82.4745 73.3107
L82.5364 73.3107
" />
<path d="M82.5364 73.3107
L82.6293 73.2798
" />
<path d="M82.6293 73.2798
L83.0007 72.9083
" />
<path d="M83.0007 72.9083
L83.0007 73.3107
" />
</g><g transform="rotate(-90.000000 101.3000 53.1000)">
<text x="101.3000" y="53.4250"
transform="scale(-1 1) translate(-202.600000 0)"
textLength="1.5140" font-size="0.8667" lengthAdjust="spacingAndGlyphs"
text-anchor="middle" opacity="0">R1</text>
</g>
<g class="stroked-text"><desc>R1</desc>
<path d="M101.6007 52.9917
L101.2912 52.7750
" />
<path d="M101.6007 52.6202
L100.9507 52.6202
" />
<path d="M100.9507 52.6202
L100.9507 52.8679
" />
<path d="M100.9507 52.8679
L100.9817 52.9298
" />
<path d="M100.9817 52.9298
L101.0126 52.9607
" />
<path d="M101.0126 52.9607
L101.0745 52.9917
" />
<path d="M101.0745 52.9917
L101.1674 52.9917
" />
<path d="M101.1674 52.9917
L101.2293 52.9607
" />
<path d="M101.2293 52.9607
L101.2602 52.9298
" />
<path d="M101.2602 52.9298
L101.2912 52.8679
" />
<path d="M101.2912 52.8679
L101.2912 52.6202
" />
<path d="M101.6007 53.6107
L101.6007 53.2393
" />
<path d="M101.6007 53.4250
L100.9507 53.4250
" />
<path d="M100.9507 53.4250
L101.0436 53.3631
" />
<path d="M101.0436 53.3631
L101.1055 53.3012
" />
<path d="M101.1055 53.3012
L101.1364 53.2393
" />
</g><text x="86.4000" y="69.9500"
transform="scale(-1 1) translate(-172.800000 0)"
textLength="2.1750" font-size="1.3333" lengthAdjust="spacingAndGlyphs"
text-anchor="middle" opacity="0">U2</text>
<g class="stroked-text"><desc>U2</desc>
<path d="M87.1619 68.9126
L87.1619 69.7221
" />
<path d="M87.1619 69.7221
L87.1143 69.8174
" />
<path d="M87.1143 69.8174
L87.0667 69.8650
" />
<path d="M87.0667 69.8650
L86.9714 69.9126
" />
<path d="M86.9714 69.9126
L86.7810 69.9126
" />
<path d="M86.7810 69.9126
L86.6857 69.8650
" />
<path d="M86.6857 69.8650
L86.6381 69.8174
" />
<path d="M86.6381 69.8174
L86.5905 69.7221
" />
<path d="M86.5905 69.7221
L86.5905 68.9126
" />
<path d="M86.1619 69.0079
L86.1143 68.9602
" />
<path d="M86.1143 68.9602
L86.0190 68.9126
" />
<path d="M86.0190 68.9126
L85.7810 68.9126
" />
<path d="M85.7810 68.9126
L85.6857 68.9602
" />
<path d="M85.6857 68.9602
L85.6381 69.0079
" />
<path d="M85.6381 69.0079
L85.5905 69.1031
" />
<path d="M85.5905 69.1031
L85.5905 69.1983
" />
<path d="M85.5905 69.1983
L85.6381 69.3412
" />
<path d="M85.6381 69.3412
L86.2095 69.9126
" />
<path d="M86.2095 69.9126
L85.5905 69.9126
" />
</g><g transform="rotate(-90.000000 96.1200 57.5000)">
<text x="96.1200" y="58.0000"
transform="scale(-1 1) translate(-192.240000 0)"
textLength="2.1274" font-size="1.3333" lengthAdjust="spacingAndGlyphs"
text-anchor="middle" opacity="0">C2</text>
</g>
<g class="stroked-text"><desc>C2</desc>
<path d="M96.4874 57.3333
L96.5350 57.2857
" />
<path d="M96.5350 57.2857
L96.5826 57.1429
" />
<path d="M96.5826 57.1429
L96.5826 57.0476
" />
<path d="M96.5826 57.0476
L96.5350 56.9048
" />
<path d="M96.5350 56.9048
L96.4398 56.8095
" />
<path d="M96.4398 56.8095
L96.3445 56.7619
" />
<path d="M96.3445 56.7619
L96.1540 56.7143
" />
<path d="M96.1540 56.7143
L96.0112 56.7143
" />
<path d="M96.0112 56.7143
L95.8207 56.7619
" />
<path d="M95.8207 56.7619
L95.7255 56.8095
" />
<path d="M95.7255 56.8095
L95.6302 56.9048
" />
<path d="M95.6302 56.9048
L95.5826 57.0476
" />
<path d="M95.5826 57.0476
L95.5826 57.1429
" />
<path d="M95.5826 57.1429
L95.6302 57.2857
" />
<path d="M95.6302 57.2857
L95.6779 57.3333
" />
<path d="M95.6779 57.7143
L95.6302 57.7619
" />
<path d="M95.6302 57.7619
L95.5826 57.8571
" />
<path d="M95.5826 57.8571
L95.5826 58.0952
" />
<path d="M95.5826 58.0952
L95.6302 58.1905
" />
<path d="M95.6302 58.1905
L95.6779 58.2381
" />
<path d="M95.6779 58.2381
L95.7731 58.2857
" />
<path d="M95.7731 58.2857
L95.8683 58.2857
" />
<path d="M95.8683 58.2857
L96.0112 58.2381
" />
<path d="M96.0112 58.2381
L96.5826 57.6667
" />
<path d="M96.5826 57.6667
L96.5826 58.2857
" />
</g><text x="83.2000" y="68.0000"
transform="scale(-1 1) translate(-166.400000 0)"
textLength="2.1274" font-size="1.3333" lengthAdjust="spacingAndGlyphs"
text-anchor="middle" opacity="0">C4</text>
<g class="stroked-text"><desc>C4</desc>
<path d="M83.3667 67.8674
L83.4143 67.9150
" />
<path d="M83.4143 67.9150
L83.5571 67.9626
" />
<path d="M83.5571 67.9626
L83.6524 67.9626
" />
<path d="M83.6524 67.9626
L83.7952 67.9150
" />
<path d="M83.7952 67.9150
L83.8905 67.8198
" />
<path d="M83.8905 67.8198
L83.9381 67.7245
" />
<path d="M83.9381 67.7245
L83.9857 67.5340
" />
<path d="M83.9857 67.5340
L83.9857 67.3912
" />
<path d="M83.9857 67.3912
L83.9381 67.2007
" />
<path d="M83.9381 67.2007
L83.8905 67.1055
" />
<path d="M83.8905 67.1055
L83.7952 67.0102
" />
<path d="M83.7952 67.0102
L83.6524 66.9626
" />
<path d="M83.6524 66.9626
L83.5571 66.9626
" />
<path d="M83.5571 66.9626
L83.4143 67.0102
" />
<path d="M83.4143 67.0102
L83.3667 67.0579
" />
<path d="M82.5095 67.2960
L82.5095 67.9626
" />
<path d="M82.7476 66.9150
L82.9857 67.6293
" />
<path d="M82.9857 67.6293
L82.3667 67.6293
" />
</g><g transform="rotate(-90.000000 91.9000 72.9000)">
<text x="91.9000" y="73.4000"
transform="scale(-1 1) translate(-183.800000 0)"
textLength="2.1274" font-size="1.3333" lengthAdjust="spacingAndGlyphs"
text-anchor="middle" opacity="0">C3</text>
</g>
<g class="stroked-text"><desc>C3</desc>
<path d="M92.2674 72.7333
L92.3150 72.6857
" />
<path d="M92.3150 72.6857
L92.3626 72.5429
" />
<path d="M92.3626 72.5429
L92.3626 72.4476
" />
<path d="M92.3626 72.4476
L92.3150 72.3048
" />
<path d="M92.3150 72.3048
L92.2198 72.2095
" />
<path d="M92.2198 72.2095
L92.1245 72.1619
" />
<path d="M92.1245 72.1619
L91.9340 72.1143
" />
<path d="M91.9340 72.1143
L91.7912 72.1143
" />
<path d="M91.7912 72.1143
L91.6007 72.1619
" />
<path d="M91.6007 72.1619
L91.5055 72.2095
" />
<path d="M91.5055 72.2095
L91.4102 72.3048
" />
<path d="M91.4102 72.3048
L91.3626 72.4476
" />
<path d="M91.3626 72.4476
L91.3626 72.5429
" />
<path d="M91.3626 72.5429
L91.4102 72.6857
" />
<path d="M91.4102 72.6857
L91.4579 72.7333
" />
<path d="M91.3626 73.0667
L91.3626 73.6857
" />
<path d="M91.3626 73.6857
L91.7436 73.3524
" />
<path d="M91.7436 73.3524
L91.7436 73.4952
" />
<path d="M91.7436 73.4952
L91.7912 73.5905
" />
<path d="M91.7912 73.5905
L91.8388 73.6381
" />
<path d="M91.8388 73.6381
L91.9340 73.6857
" />
<path d="M91.9340 73.6857
L92.1721 73.6857
" />
<path d="M92.1721 73.6857
L92.2674 73.6381
" />
<path d="M92.2674 73.6381
L92.3150 73.5905
" />
<path d="M92.3150 73.5905
L92.3626 73.4952
" />
<path d="M92.3626 73.4952
L92.3626 73.2095
" />
<path d="M92.3626 73.2095
L92.3150 73.1143
" />
<path d="M92.3150 73.1143
L92.2674 73.0667
" />
</g></g>
<g style="fill:#000000; fill-opacity:0.0; 
stroke:#000000; stroke-width:0.1200; stroke-opacity:1; 
stroke-linecap:round; stroke-linejoin:round;">
<path d="M94.9000 50.2400
L92.9500 50.2400
" />
<path d="M94.9000 50.2400
L96.8500 50.2400
" />
<path d="M94.9000 55.3600
L91.4500 55.3600
" />
<path d="M94.9000 55.3600
L96.8500 55.3600
" />
</g>
<g style="fill:#000000; fill-opacity:0.0; 
stroke:#000000; stroke-width:0.1270; stroke-opacity:1; 
stroke-linecap:round; stroke-linejoin:round;">
<path d="M86.6500 67.9135
L89.8500 67.9135
" />
<path d="M89.8500 65.2865
L86.6500 65.2865
" />
</g>
<g style="fill:#000000; fill-opacity:0.0; 
stroke:#000000; stroke-width:0.1200; stroke-opacity:1; 
stroke-linecap:round; stroke-linejoin:round;">
<path d="M91.1887 58.6900
L92.6113 58.6900
" />
<path d="M91.1887 60.5100
L92.6113 60.5100
" />
<path d="M99.4700 65.4000
L99.4700 70.6000
" />
<path d="M98.9000 65.4000
L99.4700 65.4000
" />
<path d="M96.3600 65.4000
L97.3800 65.4000
" />
<path d="M93.8200 65.4000
L94.8400 65.4000
" />
<path d="M91.7300 65.4000
L92.3000 65.4000
" />
<path d="M91.7300 65.4000
L91.7300 70.6000
" />
<path d="M98.9000 70.6000
L99.4700 70.6000
" />
<path d="M96.3600 70.6000
L97.3800 70.6000
" />
<path d="M93.8200 70.6000
L94.8400 70.6000
" />
<path d="M92.3000 70.6000
L92.3000 71.9600
" />
<path d="M91.7300 70.6000
L92.3000 70.6000
" />
</g>
<g style="fill:#000000; fill-opacity:0.0; 
stroke:#000000; stroke-width:0.1500; stroke-opacity:1; 
stroke-linecap:round; stroke-linejoin:round;">
<path d="M83.3000 71.1500
L83.3000 72.8500
" />
<path d="M84.7000 72.8500
L84.7000 71.1500
" />
<path d="M100.5000 53.4500
L100.5000 51.7500
" />
<path d="M99.1000 51.7500
L99.1000 53.4500
" />
<path d="M87.4000 73.6250
L85.4000 73.6250
" />
<path d="M86.4000 70.3750
L85.4000 70.3750
" />
</g>
<g style="fill:#000000; fill-opacity:0.0; 
stroke:#000000; stroke-width:0.1200; stroke-opacity:1; 
stroke-linecap:round; stroke-linejoin:round;">
<path d="M98.5350 57.2387
L98.5350 57.7613
" />
<path d="M97.0650 57.2387
L97.0650 57.7613
" />
<path d="M83.2613 70.0350
L82.7387 70.0350
" />
<path d="M83.2613 68.5650
L82.7387 68.5650
" />
<path d="M89.0900 72.2113
L89.0900 70.7887
" />
<path d="M90.9100 72.2113
L90.9100 70.7887
" />
<g >
</g>
<g >
</g>
<g >
</g>
<g >
</g>
<g >
</g>
<g >
</g>
<g >
</g>
<g >
</g>
<g >
</g>
<g >
</g>
<g >
</g>
<g >
</g>
<g >
</g>
<g >
</g>
<g >
</g>
<g >
</g>
<g >
</g>
<g >
</g>
<g >
</g>
</g>
<g style="fill:#FFFFFF; fill-opacity:0.0; 
stroke:#FFFFFF; stroke-width:0.1200; stroke-opacity:1; 
stroke-linecap:round; stroke-linejoin:round;">
</g>
<g style="fill:#FFFFFF; fill-opacity:1.0000; 
stroke:#FFFFFF; stroke-width:0.0000; stroke-opacity:1; 
stroke-linecap:round; stroke-linejoin:round;">
<circle cx="89.5000" cy="61.4000" r="0.2000" /> 
</g>
<g style="fill:#FFFFFF; fill-opacity:1.0000; 
stroke:#FFFFFF; stroke-width:0.0212; stroke-opacity:1; 
stroke-linecap:round; stroke-linejoin:round;">
</g>
<g style="fill:#FFFFFF; fill-opacity:1.0000; 
stroke:#FFFFFF; stroke-width:0.0000; stroke-opacity:1; 
stroke-linecap:round; stroke-linejoin:round;">
<circle cx="90.5000" cy="61.4000" r="0.2000" /> 
</g>
<g style="fill:#FFFFFF; fill-opacity:1.0000; 
stroke:#FFFFFF; stroke-width:0.0212; stroke-opacity:1; 
stroke-linecap:round; stroke-linejoin:round;">
</g>
<g style="fill:#FFFFFF; fill-opacity:1.0000; 
stroke:#FFFFFF; stroke-width:0.0000; stroke-opacity:1; 
stroke-linecap:round; stroke-linejoin:round;">
<circle cx="82.7000" cy="71.1000" r="0.2000" /> 
</g>
<g style="fill:#FFFFFF; fill-opacity:1.0000; 
stroke:#FFFFFF; stroke-width:0.0212; stroke-opacity:1; 
stroke-linecap:round; stroke-linejoin:round;">
</g>
<g style="fill:#FFFFFF; fill-opacity:1.0000; 
stroke:#FFFFFF; stroke-width:0.0000; stroke-opacity:1; 
stroke-linecap:round; stroke-linejoin:round;">
<circle cx="98.1400" cy="72.5400" r="0.2000" /> 
</g>
<g style="fill:#FFFFFF; fill-opacity:1.0000; 
stroke:#FFFFFF; stroke-width:0.0212; stroke-opacity:1; 
stroke-linecap:round; stroke-linejoin:round;">
</g>
<g style="fill:#FFFFFF; fill-opacity:1.0000; 
stroke:#FFFFFF; stroke-width:0.0000; stroke-opacity:1; 
stroke-linecap:round; stroke-linejoin:round;">
<circle cx="99.2000" cy="55.2000" r="0.2000" /> 
</g>
<g style="fill:#FFFFFF; fill-opacity:1.0000; 
stroke:#FFFFFF; stroke-width:0.0212; stroke-opacity:1; 
stroke-linecap:round; stroke-linejoin:round;">
</g>
<g style="fill:#FFFFFF; fill-opacity:1.0000; 
stroke:#FFFFFF; stroke-width:0.0000; stroke-opacity:1; 
stroke-linecap:round; stroke-linejoin:round;">
<circle cx="92.4000" cy="55.5000" r="0.2000" /> 
</g>
<g style="fill:#FFFFFF; fill-opacity:1.0000; 
stroke:#FFFFFF; stroke-width:0.0212; stroke-opacity:1; 
stroke-linecap:round; stroke-linejoin:round;">
</g>
<g style="fill:#FFFFFF; fill-opacity:1.0000; 
stroke:#FFFFFF; stroke-width:0.0000; stroke-opacity:1; 
stroke-linecap:round; stroke-linejoin:round;">
<circle cx="90.8000" cy="53.4000" r="0.2000" /> 
</g>
<g style="fill:#FFFFFF; fill-opacity:1.0000; 
stroke:#FFFFFF; stroke-width:0.0212; stroke-opacity:1; 
stroke-linecap:round; stroke-linejoin:round;">
</g>
<g style="fill:#FFFFFF; fill-opacity:1.0000; 
stroke:#FFFFFF; stroke-width:0.0000; stroke-opacity:1; 
stroke-linecap:round; stroke-linejoin:round;">
<circle cx="90.8000" cy="52.2000" r="0.2000" /> 
</g>
<g style="fill:#FFFFFF; fill-opacity:1.0000; 
stroke:#FFFFFF; stroke-width:0.0212; stroke-opacity:1; 
stroke-linecap:round; stroke-linejoin:round;">
</g>
<g style="fill:#000000; fill-opacity:1.0000; 
stroke:#000000; stroke-width:0.0212; stroke-opacity:1; 
stroke-linecap:round; stroke-linejoin:round;">
</g> 
</svg>
