<?xml version="1.0" standalone="no"?>
 <!DOCTYPE svg PUBLIC "-//W3C//DTD SVG 1.1//EN" 
 "http://www.w3.org/Graphics/SVG/1.1/DTD/svg11.dtd"> 
<svg
  xmlns:svg="http://www.w3.org/2000/svg"
  xmlns="http://www.w3.org/2000/svg"
  xmlns:xlink="http://www.w3.org/1999/xlink"
  version="1.1"
  width="297.0022mm" height="210.0072mm" viewBox="0.0000 0.0000 297.0022 210.0072">
<title>SVG Image created as pedalboard-led-ring-B_Cu.svg date 2023/06/01 06:07:14 </title>
  <desc>Image generated by PCBNEW </desc>
<g style="fill:#000000; fill-opacity:1.0000;stroke:#000000; stroke-opacity:1.0000;
stroke-linecap:round; stroke-linejoin:round;"
 transform="translate(0 0) scale(1 1)">
</g>
<g style="fill:#000000; fill-opacity:0.0; 
stroke:#000000; stroke-width:0.0000; stroke-opacity:1; 
stroke-linecap:round; stroke-linejoin:round;">
<g >
</g>
<g >
</g>
<g >
</g>
<g >
</g>
<g >
</g>
<g >
</g>
<g >
</g>
<g >
</g>
<g >
</g>
<g >
</g>
<g >
</g>
<g >
</g>
<g >
</g>
<g >
</g>
<g >
</g>
<g >
</g>
<g >
</g>
<g >
</g>
<g >
</g>
<g >
</g>
<g >
</g>
<g >
</g>
<g >
</g>
<g >
</g>
<g >
</g>
<g style="fill:#000000; fill-opacity:0.0; 
stroke:#000000; stroke-width:0.0000; stroke-opacity:1; 
stroke-linecap:round; stroke-linejoin:round;">
</g>
<g style="fill:#000000; fill-opacity:0.0; 
stroke:#000000; stroke-width:0.0000; stroke-opacity:1; 
stroke-linecap:round; stroke-linejoin:round;">
</g>
<g style="fill:#000000; fill-opacity:1.0000; 
stroke:#000000; stroke-width:0.0000; stroke-opacity:1; 
stroke-linecap:round; stroke-linejoin:round;">
<path style="fill:#000000; fill-opacity:1.0000; 
stroke:#000000; stroke-width:0.0000; stroke-opacity:1; 
stroke-linecap:round; stroke-linejoin:round;fill-rule:evenodd;"
d="M 92.5000,58.2500
91.5000,58.2500
91.5000,55.5000
92.5000,55.5000
Z" /> 
<path style="fill:#000000; fill-opacity:1.0000; 
stroke:#000000; stroke-width:0.0000; stroke-opacity:1; 
stroke-linecap:round; stroke-linejoin:round;fill-rule:evenodd;"
d="M 92.5000,64.5000
91.5000,64.5000
91.5000,61.7500
92.5000,61.7500
Z" /> 
<path style="fill:#000000; fill-opacity:1.0000; 
stroke:#000000; stroke-width:0.0000; stroke-opacity:1; 
stroke-linecap:round; stroke-linejoin:round;fill-rule:evenodd;"
d="M 90.5000,58.2500
89.5000,58.2500
89.5000,55.5000
90.5000,55.5000
Z" /> 
<path style="fill:#000000; fill-opacity:1.0000; 
stroke:#000000; stroke-width:0.0000; stroke-opacity:1; 
stroke-linecap:round; stroke-linejoin:round;fill-rule:evenodd;"
d="M 90.5000,64.5000
89.5000,64.5000
89.5000,61.7500
90.5000,61.7500
Z" /> 
</g>
<g >
</g>
<g style="fill:#000000; fill-opacity:1.0000; 
stroke:#000000; stroke-width:0.0000; stroke-opacity:1; 
stroke-linecap:round; stroke-linejoin:round;">
<circle cx="89.5000" cy="61.1000" r="0.4000" /> 
</g>
<g style="fill:#000000; fill-opacity:1.0000; 
stroke:#000000; stroke-width:0.0212; stroke-opacity:1; 
stroke-linecap:round; stroke-linejoin:round;">
</g>
<g style="fill:#000000; fill-opacity:1.0000; 
stroke:#000000; stroke-width:0.0000; stroke-opacity:1; 
stroke-linecap:round; stroke-linejoin:round;">
<circle cx="88.1000" cy="63.1000" r="0.4000" /> 
</g>
<g style="fill:#000000; fill-opacity:1.0000; 
stroke:#000000; stroke-width:0.0212; stroke-opacity:1; 
stroke-linecap:round; stroke-linejoin:round;">
</g>
<g style="fill:#000000; fill-opacity:1.0000; 
stroke:#000000; stroke-width:0.0000; stroke-opacity:1; 
stroke-linecap:round; stroke-linejoin:round;">
<circle cx="89.7263" cy="65.1536" r="0.4000" /> 
</g>
<g style="fill:#000000; fill-opacity:1.0000; 
stroke:#000000; stroke-width:0.0212; stroke-opacity:1; 
stroke-linecap:round; stroke-linejoin:round;">
</g>
<g style="fill:#000000; fill-opacity:1.0000; 
stroke:#000000; stroke-width:0.0000; stroke-opacity:1; 
stroke-linecap:round; stroke-linejoin:round;">
<circle cx="69.0000" cy="60.4000" r="0.4000" /> 
</g>
<g style="fill:#000000; fill-opacity:1.0000; 
stroke:#000000; stroke-width:0.0212; stroke-opacity:1; 
stroke-linecap:round; stroke-linejoin:round;">
</g>
<g style="fill:#000000; fill-opacity:1.0000; 
stroke:#000000; stroke-width:0.0000; stroke-opacity:1; 
stroke-linecap:round; stroke-linejoin:round;">
<circle cx="80.4000" cy="71.0000" r="0.4000" /> 
</g>
<g style="fill:#000000; fill-opacity:1.0000; 
stroke:#000000; stroke-width:0.0212; stroke-opacity:1; 
stroke-linecap:round; stroke-linejoin:round;">
</g>
<g style="fill:#000000; fill-opacity:1.0000; 
stroke:#000000; stroke-width:0.0000; stroke-opacity:1; 
stroke-linecap:round; stroke-linejoin:round;">
<circle cx="85.1536" cy="50.2737" r="0.4000" /> 
</g>
<g style="fill:#000000; fill-opacity:1.0000; 
stroke:#000000; stroke-width:0.0212; stroke-opacity:1; 
stroke-linecap:round; stroke-linejoin:round;">
</g>
<g style="fill:#000000; fill-opacity:1.0000; 
stroke:#000000; stroke-width:0.0000; stroke-opacity:1; 
stroke-linecap:round; stroke-linejoin:round;">
<circle cx="74.1536" cy="50.6737" r="0.4000" /> 
</g>
<g style="fill:#000000; fill-opacity:1.0000; 
stroke:#000000; stroke-width:0.0212; stroke-opacity:1; 
stroke-linecap:round; stroke-linejoin:round;">
</g>
<g style="fill:#000000; fill-opacity:1.0000; 
stroke:#000000; stroke-width:0.0000; stroke-opacity:1; 
stroke-linecap:round; stroke-linejoin:round;">
<circle cx="79.6000" cy="49.0000" r="0.4000" /> 
</g>
<g style="fill:#000000; fill-opacity:1.0000; 
stroke:#000000; stroke-width:0.0212; stroke-opacity:1; 
stroke-linecap:round; stroke-linejoin:round;">
</g>
<g style="fill:#000000; fill-opacity:1.0000; 
stroke:#000000; stroke-width:0.0000; stroke-opacity:1; 
stroke-linecap:round; stroke-linejoin:round;">
<circle cx="70.2737" cy="54.8464" r="0.4000" /> 
</g>
<g style="fill:#000000; fill-opacity:1.0000; 
stroke:#000000; stroke-width:0.0212; stroke-opacity:1; 
stroke-linecap:round; stroke-linejoin:round;">
</g>
<g style="fill:#000000; fill-opacity:1.0000; 
stroke:#000000; stroke-width:0.0000; stroke-opacity:1; 
stroke-linecap:round; stroke-linejoin:round;">
<circle cx="89.3263" cy="54.1536" r="0.4000" /> 
</g>
<g style="fill:#000000; fill-opacity:1.0000; 
stroke:#000000; stroke-width:0.0212; stroke-opacity:1; 
stroke-linecap:round; stroke-linejoin:round;">
</g>
<g style="fill:#000000; fill-opacity:1.0000; 
stroke:#000000; stroke-width:0.0000; stroke-opacity:1; 
stroke-linecap:round; stroke-linejoin:round;">
<circle cx="85.8464" cy="69.3263" r="0.4000" /> 
</g>
<g style="fill:#000000; fill-opacity:1.0000; 
stroke:#000000; stroke-width:0.0212; stroke-opacity:1; 
stroke-linecap:round; stroke-linejoin:round;">
</g>
<g style="fill:#000000; fill-opacity:1.0000; 
stroke:#000000; stroke-width:0.0000; stroke-opacity:1; 
stroke-linecap:round; stroke-linejoin:round;">
<circle cx="74.8464" cy="69.7263" r="0.4000" /> 
</g>
<g style="fill:#000000; fill-opacity:1.0000; 
stroke:#000000; stroke-width:0.0212; stroke-opacity:1; 
stroke-linecap:round; stroke-linejoin:round;">
</g>
<g style="fill:#000000; fill-opacity:1.0000; 
stroke:#000000; stroke-width:0.0000; stroke-opacity:1; 
stroke-linecap:round; stroke-linejoin:round;">
<circle cx="91.0000" cy="59.6000" r="0.4000" /> 
</g>
<g style="fill:#000000; fill-opacity:1.0000; 
stroke:#000000; stroke-width:0.0212; stroke-opacity:1; 
stroke-linecap:round; stroke-linejoin:round;">
</g>
<g style="fill:#000000; fill-opacity:1.0000; 
stroke:#000000; stroke-width:0.0000; stroke-opacity:1; 
stroke-linecap:round; stroke-linejoin:round;">
<circle cx="70.6737" cy="65.8464" r="0.4000" /> 
</g>
<g style="fill:#000000; fill-opacity:1.0000; 
stroke:#000000; stroke-width:0.0212; stroke-opacity:1; 
stroke-linecap:round; stroke-linejoin:round;">
</g>
<g style="fill:#000000; fill-opacity:1.0000; 
stroke:#000000; stroke-width:0.0000; stroke-opacity:1; 
stroke-linecap:round; stroke-linejoin:round;">
<circle cx="92.0000" cy="65.0000" r="0.4000" /> 
</g>
<g style="fill:#000000; fill-opacity:1.0000; 
stroke:#000000; stroke-width:0.0212; stroke-opacity:1; 
stroke-linecap:round; stroke-linejoin:round;">
</g>
<g style="fill:#000000; fill-opacity:1.0000; 
stroke:#000000; stroke-width:0.0000; stroke-opacity:1; 
stroke-linecap:round; stroke-linejoin:round;">
<circle cx="93.0000" cy="61.2000" r="0.4000" /> 
</g>
<g style="fill:#000000; fill-opacity:1.0000; 
stroke:#000000; stroke-width:0.0212; stroke-opacity:1; 
stroke-linecap:round; stroke-linejoin:round;">
</g>
<g style="fill:#000000; fill-opacity:1.0000; 
stroke:#000000; stroke-width:0.0000; stroke-opacity:1; 
stroke-linecap:round; stroke-linejoin:round;">
<circle cx="93.0000" cy="62.6000" r="0.4000" /> 
</g>
<g style="fill:#000000; fill-opacity:1.0000; 
stroke:#000000; stroke-width:0.0212; stroke-opacity:1; 
stroke-linecap:round; stroke-linejoin:round;">
</g>
<g style="fill:#000000; fill-opacity:1.0000; 
stroke:#000000; stroke-width:0.0000; stroke-opacity:1; 
stroke-linecap:round; stroke-linejoin:round;">
<circle cx="93.0000" cy="65.0000" r="0.4000" /> 
</g>
<g style="fill:#000000; fill-opacity:1.0000; 
stroke:#000000; stroke-width:0.0212; stroke-opacity:1; 
stroke-linecap:round; stroke-linejoin:round;">
</g>
<g style="fill:#000000; fill-opacity:1.0000; 
stroke:#000000; stroke-width:0.0000; stroke-opacity:1; 
stroke-linecap:round; stroke-linejoin:round;">
<circle cx="93.0000" cy="63.8000" r="0.4000" /> 
</g>
<g style="fill:#000000; fill-opacity:1.0000; 
stroke:#000000; stroke-width:0.0212; stroke-opacity:1; 
stroke-linecap:round; stroke-linejoin:round;">
</g>
<g style="fill:#000000; fill-opacity:1.0000; 
stroke:#000000; stroke-width:0.0000; stroke-opacity:1; 
stroke-linecap:round; stroke-linejoin:round;">
<circle cx="92.0000" cy="61.2000" r="0.4000" /> 
</g>
<g style="fill:#000000; fill-opacity:1.0000; 
stroke:#000000; stroke-width:0.0212; stroke-opacity:1; 
stroke-linecap:round; stroke-linejoin:round;">
</g>
<g >
</g>
<g style="fill:#000000; fill-opacity:1.0000; 
stroke:#000000; stroke-width:0.0212; stroke-opacity:1; 
stroke-linecap:round; stroke-linejoin:round;">
</g>
<g style="fill:#000000; fill-opacity:1.0000; 
stroke:#000000; stroke-width:0.2500; stroke-opacity:1; 
stroke-linecap:round; stroke-linejoin:round;">
</g>
<g style="fill:#000000; fill-opacity:0.0; 
stroke:#000000; stroke-width:0.2500; stroke-opacity:1; 
stroke-linecap:round; stroke-linejoin:round;">
<path d="M90.0000 60.6705
L90.0000 56.8750
" />
<path d="M89.5000 61.1705
L90.0000 60.6705
" />
<path d="M88.1000 63.1000
L89.9750 63.1000
" />
<path d="M93.0000 65.0000
L93.0000 61.2000
" />
<path d="M93.0000 62.6000
L92.5250 62.6000
" />
<path d="M92.6750 63.8000
L92.0000 63.1250
" />
<path d="M93.0000 63.8000
L92.6750 63.8000
" />
<path d="M92.0000 63.1250
L92.0000 65.0000
" />
<path d="M92.0000 65.0000
L93.0000 65.0000
" />
<path d="M92.5250 62.6000
L92.0000 63.1250
" />
<path d="M93.0000 61.2000
L92.0000 61.2000
" />
<path d="M92.0000 61.2000
L92.0000 63.1250
" />
</g>
<g >
</g>
<g style="fill:#000000; fill-opacity:0.0; 
stroke:#000000; stroke-width:0.2500; stroke-opacity:1; 
stroke-linecap:round; stroke-linejoin:round;">
<g >
</g>
<g style="fill:#000000; fill-opacity:1.0000; 
stroke:#000000; stroke-width:0.0000; stroke-opacity:1; 
stroke-linecap:round; stroke-linejoin:round;">
<path style="fill:#000000; fill-opacity:1.0000; 
stroke:#000000; stroke-width:0.0000; stroke-opacity:1; 
stroke-linecap:round; stroke-linejoin:round;fill-rule:evenodd;"
d="M 93.0027,46.0007
93.0455,46.0045
93.1718,46.0169
93.1917,46.0205
93.2574,46.0382
93.2592,46.0387
93.3516,46.0667
93.3680,46.0730
93.4354,46.1044
93.4384,46.1059
93.4760,46.1260
93.5223,46.1508
93.5287,46.1547
93.5948,46.2010
93.5986,46.2038
93.6708,46.2631
93.6753,46.2672
93.7328,46.3247
93.7369,46.3292
93.7962,46.4014
93.7990,46.4052
93.8453,46.4713
93.8492,46.4777
93.8941,46.5616
93.8956,46.5646
93.9270,46.6320
93.9333,46.6484
93.9613,46.7407
93.9619,46.7426
93.9795,46.8083
93.9831,46.8282
93.9955,46.9546
93.9993,46.9973
93.9995,47.0027
93.9995,72.9973
93.9993,73.0027
93.9955,73.0454
93.9831,73.1718
93.9795,73.1917
93.9619,73.2574
93.9613,73.2593
93.9333,73.3516
93.9270,73.3680
93.8956,73.4354
93.8941,73.4384
93.8492,73.5223
93.8453,73.5287
93.7990,73.5948
93.7962,73.5986
93.7369,73.6708
93.7328,73.6753
93.6753,73.7328
93.6708,73.7369
93.5986,73.7962
93.5948,73.7990
93.5287,73.8453
93.5223,73.8492
93.4384,73.8941
93.4354,73.8956
93.3680,73.9270
93.3516,73.9333
93.2593,73.9613
93.2574,73.9619
93.1917,73.9795
93.1718,73.9831
93.0454,73.9955
93.0073,73.9989
93.0027,73.9993
92.9973,73.9995
67.0027,73.9995
66.9973,73.9993
66.9923,73.9988
66.9546,73.9955
66.8282,73.9831
66.8083,73.9795
66.7426,73.9619
66.7407,73.9613
66.7031,73.9499
66.6484,73.9333
66.6320,73.9270
66.5646,73.8956
66.5616,73.8941
66.4777,73.8492
66.4713,73.8453
66.4052,73.7990
66.4014,73.7962
66.3292,73.7369
66.3247,73.7328
66.2672,73.6753
66.2631,73.6708
66.2038,73.5986
66.2010,73.5948
66.1547,73.5287
66.1508,73.5223
66.1260,73.4760
66.1059,73.4384
66.1044,73.4354
66.0730,73.3680
66.0667,73.3516
66.0387,73.2592
66.0382,73.2574
66.0205,73.1917
66.0169,73.1718
66.0045,73.0454
66.0007,73.0027
66.0005,72.9973
66.0005,60.0000
73.8945,60.0000
73.9143,60.4913
73.9143,60.4913
73.9736,60.9794
74.0720,61.4611
74.2088,61.9334
74.3831,62.3931
74.5580,62.7617
74.5740,62.7955
74.5939,62.8374
74.8397,63.2632
74.8397,63.2632
74.8656,63.3006
75.1020,63.6432
75.1190,63.6678
75.4300,64.0486
75.4300,64.0487
75.7706,64.4033
75.7706,64.4033
76.1386,64.7293
76.2397,64.8052
76.5317,65.0247
76.9473,65.2875
76.9473,65.2875
76.9473,65.2875
76.9798,65.3045
77.3826,65.5160
77.8350,65.7087
78.3014,65.8644
78.7788,65.9821
78.7788,65.9821
78.7788,65.9821
79.2277,66.0550
79.2641,66.0609
79.7542,66.1005
79.7542,66.1005
80.2458,66.1005
80.2458,66.1005
80.7359,66.0609
80.8845,66.0368
81.2212,65.9821
81.2212,65.9821
81.2212,65.9821
81.6986,65.8644
82.1650,65.7087
82.6174,65.5160
83.0527,65.2875
83.4683,65.0247
83.8614,64.7293
83.8614,64.7293
83.8614,64.7293
84.2294,64.4033
84.2294,64.4033
84.2294,64.4033
84.5700,64.0487
84.8810,63.6678
85.1603,63.2632
85.2545,63.1000
87.4447,63.1000
87.4638,63.2568
87.4804,63.3006
87.5198,63.4045
87.6095,63.5345
87.7278,63.6393
87.7278,63.6393
87.8676,63.7127
88.0210,63.7505
88.0210,63.7505
88.1790,63.7505
88.3324,63.7127
88.4179,63.6678
88.4722,63.6393
88.5905,63.5345
88.5943,63.5291
88.6485,63.4851
88.6963,63.4755
89.1255,63.4755
89.1925,63.4952
89.2383,63.5480
89.2495,63.5995
89.2495,64.5247
89.2640,64.5977
89.2640,64.5977
89.2640,64.5977
89.3194,64.6806
89.3923,64.7293
89.4023,64.7360
89.4023,64.7360
89.4753,64.7505
89.4753,64.7505
89.4753,64.7505
90.5247,64.7505
90.5247,64.7505
90.5977,64.7360
90.6806,64.6806
90.7360,64.5977
90.7505,64.5247
91.2495,64.5247
91.2495,64.5247
91.2640,64.5977
91.2640,64.5977
91.2640,64.5977
91.3194,64.6806
91.3219,64.6823
91.3262,64.6875
91.3280,64.6892
91.3279,64.6894
91.3668,64.7359
91.3755,64.8052
91.3690,64.8294
91.3638,64.8432
91.3638,64.8432
91.3447,65.0000
91.3447,65.0000
91.3638,65.1568
91.4114,65.2823
91.4198,65.3045
91.5095,65.4345
91.6278,65.5393
91.6278,65.5393
91.7676,65.6127
91.9210,65.6505
91.9210,65.6505
92.0790,65.6505
92.2324,65.6127
92.3722,65.5393
92.3722,65.5393
92.3722,65.5393
92.4178,65.4989
92.4810,65.4692
92.5503,65.4784
92.5822,65.4989
92.6278,65.5393
92.6278,65.5393
92.7676,65.6127
92.9210,65.6505
92.9210,65.6505
93.0790,65.6505
93.2324,65.6127
93.2324,65.6127
93.3722,65.5393
93.4905,65.4345
93.5802,65.3045
93.6362,65.1568
93.6553,65.0000
93.6362,64.8432
93.5802,64.6955
93.4905,64.5655
93.4905,64.5655
93.4173,64.5006
93.3801,64.4414
93.3755,64.4078
93.3755,64.3922
93.3952,64.3252
93.4173,64.2994
93.4905,64.2345
93.4905,64.2345
93.5802,64.1045
93.6362,63.9568
93.6553,63.8000
93.6447,63.7127
93.6362,63.6432
93.6001,63.5480
93.5802,63.4955
93.4905,63.3655
93.4905,63.3655
93.4173,63.3006
93.3801,63.2414
93.3755,63.2078
93.3755,63.1922
93.3952,63.1252
93.4173,63.0994
93.4905,63.0345
93.4905,63.0345
93.5802,62.9045
93.6362,62.7568
93.6553,62.6000
93.6362,62.4432
93.5802,62.2955
93.4905,62.1655
93.4905,62.1655
93.4173,62.1006
93.3801,62.0414
93.3755,62.0078
93.3755,61.7922
93.3952,61.7252
93.4173,61.6994
93.4905,61.6345
93.4905,61.6345
93.5802,61.5045
93.6362,61.3568
93.6553,61.2000
93.6362,61.0432
93.5802,60.8955
93.4905,60.7655
93.3722,60.6607
93.3722,60.6607
93.3722,60.6607
93.2324,60.5873
93.0790,60.5495
93.0790,60.5495
92.9210,60.5495
92.9210,60.5495
92.7676,60.5873
92.6278,60.6607
92.6278,60.6607
92.5822,60.7011
92.5190,60.7308
92.4497,60.7216
92.4178,60.7011
92.3722,60.6607
92.3722,60.6607
92.2324,60.5873
92.0790,60.5495
92.0790,60.5495
91.9210,60.5495
91.9210,60.5495
91.7676,60.5873
91.6278,60.6607
91.5095,60.7655
91.4198,60.8955
91.4198,60.8955
91.3638,61.0432
91.3447,61.2000
91.3447,61.2000
91.3638,61.3568
91.3841,61.4105
91.3895,61.4802
91.3563,61.5417
91.3371,61.5576
91.3194,61.5694
91.2640,61.6523
91.2640,61.6523
91.2495,61.7253
91.2495,61.7253
91.2495,64.5247
90.7505,64.5247
90.7505,64.5247
90.7505,61.7253
90.7505,61.7253
90.7505,61.7253
90.7360,61.6523
90.7360,61.6523
90.7241,61.6345
90.6806,61.5694
90.5977,61.5140
90.5977,61.5140
90.5977,61.5140
90.5247,61.4995
90.5247,61.4995
90.2238,61.4995
90.1568,61.4798
90.1111,61.4270
90.1011,61.3579
90.1079,61.3315
90.1101,61.3256
90.1362,61.2568
90.1553,61.1000
90.1553,61.1000
90.1553,61.0976
90.1558,61.0959
90.1562,61.0926
90.1567,61.0926
90.1750,61.0306
90.1916,61.0099
90.1916,61.0099
90.2289,60.9726
90.2487,60.9565
90.2578,60.9506
90.2796,60.9226
90.2847,60.9168
90.2875,60.9140
90.3004,60.8960
90.3019,60.8940
90.3348,60.8517
90.3385,60.8448
90.3420,60.8377
90.3420,60.8377
90.3573,60.7863
90.3581,60.7839
90.3755,60.7332
90.3755,60.7332
90.3768,60.7254
90.3778,60.7176
90.3756,60.6640
90.3755,60.6615
90.3755,58.6245
90.3952,58.5575
90.4480,58.5117
90.4995,58.5005
90.5247,58.5005
90.5247,58.5005
90.5977,58.4860
90.6806,58.4306
90.7360,58.3477
90.7505,58.2747
90.7505,57.1250
91.0000,57.1250
91.0000,58.2978
91.0064,58.3574
91.0064,58.3574
91.0566,58.4921
91.0566,58.4921
91.1428,58.6072
91.1428,58.6072
91.2579,58.6933
91.2579,58.6934
91.3926,58.7436
91.3926,58.7436
91.4522,58.7500
91.4522,58.7500
91.7500,58.7500
91.7500,57.1250
92.2500,57.1250
92.2500,58.7500
92.5478,58.7500
92.5478,58.7500
92.6074,58.7436
92.6074,58.7436
92.7421,58.6934
92.7421,58.6933
92.8572,58.6072
92.8572,58.6072
92.9433,58.4921
92.9434,58.4921
92.9936,58.3574
92.9936,58.3574
93.0000,58.2978
93.0000,58.2978
93.0000,57.1250
92.2500,57.1250
91.7500,57.1250
91.0000,57.1250
90.7505,57.1250
90.7505,56.6250
91.0000,56.6250
91.7500,56.6250
91.7500,55.0000
92.2500,55.0000
92.2500,56.6250
93.0000,56.6250
93.0000,55.4522
93.0000,55.4522
92.9936,55.3926
92.9936,55.3926
92.9434,55.2579
92.9433,55.2579
92.8572,55.1428
92.8572,55.1428
92.7421,55.0566
92.7421,55.0566
92.6074,55.0064
92.6074,55.0064
92.5478,55.0000
92.2500,55.0000
91.7500,55.0000
91.4522,55.0000
91.3926,55.0064
91.3926,55.0064
91.2579,55.0566
91.2579,55.0566
91.1428,55.1428
91.1428,55.1428
91.0566,55.2579
91.0566,55.2579
91.0064,55.3926
91.0064,55.3926
91.0000,55.4522
91.0000,56.6250
90.7505,56.6250
90.7505,55.4753
90.7505,55.4753
90.7505,55.4753
90.7505,55.4753
90.7360,55.4023
90.7360,55.4023
90.7360,55.4023
90.6806,55.3194
90.5977,55.2640
90.5977,55.2640
90.5977,55.2640
90.5247,55.2495
90.5247,55.2495
89.4753,55.2495
89.4753,55.2495
89.4023,55.2640
89.4023,55.2640
89.3194,55.3194
89.2640,55.4023
89.2640,55.4023
89.2495,55.4753
89.2495,55.4753
89.2495,58.2747
89.2495,58.2747
89.2640,58.3477
89.2640,58.3477
89.2640,58.3477
89.3194,58.4306
89.4023,58.4860
89.4023,58.4860
89.4753,58.5005
89.4753,58.5005
89.4753,58.5005
89.5005,58.5005
89.5675,58.5202
89.6133,58.5730
89.6245,58.6245
89.6245,60.3255
89.6048,60.3925
89.5520,60.4383
89.5005,60.4495
89.4210,60.4495
89.2676,60.4873
89.1278,60.5607
89.1278,60.5607
89.1278,60.5607
89.0149,60.6607
89.0095,60.6655
88.9198,60.7955
88.9198,60.7955
88.8638,60.9432
88.8447,61.1000
88.8447,61.1000
88.8638,61.2568
88.8921,61.3315
88.9198,61.4045
89.0095,61.5345
89.1278,61.6393
89.1831,61.6683
89.2333,61.7169
89.2495,61.7781
89.2495,62.6005
89.2298,62.6675
89.1770,62.7133
89.1255,62.7245
88.6963,62.7245
88.6293,62.7048
88.5943,62.6709
88.5905,62.6655
88.4722,62.5607
88.4722,62.5607
88.4722,62.5607
88.3324,62.4873
88.1790,62.4495
88.1790,62.4495
88.0210,62.4495
88.0210,62.4495
87.8676,62.4873
87.7278,62.5607
87.6095,62.6655
87.5198,62.7955
87.5198,62.7955
87.4638,62.9432
87.4447,63.1000
87.4447,63.1000
85.2545,63.1000
85.4061,62.8373
85.6169,62.3931
85.7912,61.9334
85.9280,61.4611
86.0264,60.9794
86.0857,60.4913
86.0857,60.4913
86.1055,60.0000
86.1055,60.0000
86.0857,59.5087
86.0857,59.5087
86.0857,59.5087
86.0264,59.0206
85.9280,58.5389
85.8967,58.4306
85.7912,58.0666
85.7143,57.8636
85.6169,57.6069
85.4061,57.1627
85.1603,56.7368
85.1603,56.7368
85.1603,56.7368
84.8834,56.3358
84.8810,56.3322
84.8810,56.3322
84.8809,56.3322
84.5700,55.9513
84.5700,55.9513
84.2294,55.5967
84.2294,55.5967
83.8614,55.2707
83.6648,55.1230
83.4683,54.9753
83.0527,54.7125
83.0527,54.7125
83.0527,54.7125
82.6174,54.4840
82.4398,54.4084
82.1650,54.2913
82.1650,54.2913
82.1650,54.2913
81.9345,54.2144
81.6986,54.1356
81.6986,54.1356
81.6986,54.1356
81.5157,54.0905
81.2212,54.0179
81.2212,54.0179
81.2212,54.0179
81.2212,54.0179
80.7359,53.9391
80.2459,53.8995
80.2458,53.8995
79.7542,53.8995
79.7541,53.8995
79.2641,53.9391
78.7788,54.0179
78.7788,54.0179
78.7788,54.0179
78.7788,54.0179
78.7551,54.0238
78.3014,54.1356
78.3014,54.1356
77.8350,54.2913
77.8350,54.2913
77.8350,54.2913
77.7307,54.3357
77.3826,54.4840
76.9473,54.7125
76.5317,54.9753
76.5317,54.9753
76.1386,55.2707
75.7706,55.5967
75.7706,55.5967
75.4300,55.9513
75.4300,55.9513
75.1190,56.3322
74.8397,56.7368
74.8397,56.7368
74.5939,57.1626
74.3831,57.6069
74.2088,58.0666
74.0720,58.5389
73.9736,59.0206
73.9143,59.5087
73.9143,59.5087
73.8945,60.0000
73.8945,60.0000
66.0005,60.0000
66.0005,47.0027
66.0007,46.9973
66.0045,46.9546
66.0057,46.9418
66.0169,46.8282
66.0205,46.8083
66.0382,46.7425
66.0387,46.7408
66.0667,46.6484
66.0729,46.6320
66.1044,46.5646
66.1059,46.5617
66.1508,46.4777
66.1547,46.4713
66.1878,46.4239
66.2010,46.4052
66.2038,46.4014
66.2631,46.3292
66.2672,46.3247
66.3247,46.2672
66.3292,46.2631
66.4014,46.2038
66.4052,46.2010
66.4713,46.1547
66.4777,46.1508
66.5617,46.1059
66.5646,46.1044
66.6320,46.0729
66.6484,46.0667
66.7408,46.0387
66.7425,46.0382
66.8083,46.0205
66.8282,46.0169
66.9418,46.0057
66.9546,46.0045
66.9973,46.0007
67.0027,46.0005
92.9973,46.0005
Z" /> 
</g>
</g>
</g>
<g style="fill:#FFFFFF; fill-opacity:1.0000; 
stroke:#FFFFFF; stroke-width:0.0000; stroke-opacity:1; 
stroke-linecap:round; stroke-linejoin:round;">
<circle cx="89.5000" cy="61.1000" r="0.2000" /> 
</g>
<g style="fill:#FFFFFF; fill-opacity:1.0000; 
stroke:#FFFFFF; stroke-width:0.0212; stroke-opacity:1; 
stroke-linecap:round; stroke-linejoin:round;">
</g>
<g style="fill:#FFFFFF; fill-opacity:1.0000; 
stroke:#FFFFFF; stroke-width:0.0000; stroke-opacity:1; 
stroke-linecap:round; stroke-linejoin:round;">
<circle cx="88.1000" cy="63.1000" r="0.2000" /> 
</g>
<g style="fill:#FFFFFF; fill-opacity:1.0000; 
stroke:#FFFFFF; stroke-width:0.0212; stroke-opacity:1; 
stroke-linecap:round; stroke-linejoin:round;">
</g>
<g style="fill:#FFFFFF; fill-opacity:1.0000; 
stroke:#FFFFFF; stroke-width:0.0000; stroke-opacity:1; 
stroke-linecap:round; stroke-linejoin:round;">
<circle cx="89.7263" cy="65.1536" r="0.2000" /> 
</g>
<g style="fill:#FFFFFF; fill-opacity:1.0000; 
stroke:#FFFFFF; stroke-width:0.0212; stroke-opacity:1; 
stroke-linecap:round; stroke-linejoin:round;">
</g>
<g style="fill:#FFFFFF; fill-opacity:1.0000; 
stroke:#FFFFFF; stroke-width:0.0000; stroke-opacity:1; 
stroke-linecap:round; stroke-linejoin:round;">
<circle cx="69.0000" cy="60.4000" r="0.2000" /> 
</g>
<g style="fill:#FFFFFF; fill-opacity:1.0000; 
stroke:#FFFFFF; stroke-width:0.0212; stroke-opacity:1; 
stroke-linecap:round; stroke-linejoin:round;">
</g>
<g style="fill:#FFFFFF; fill-opacity:1.0000; 
stroke:#FFFFFF; stroke-width:0.0000; stroke-opacity:1; 
stroke-linecap:round; stroke-linejoin:round;">
<circle cx="80.4000" cy="71.0000" r="0.2000" /> 
</g>
<g style="fill:#FFFFFF; fill-opacity:1.0000; 
stroke:#FFFFFF; stroke-width:0.0212; stroke-opacity:1; 
stroke-linecap:round; stroke-linejoin:round;">
</g>
<g style="fill:#FFFFFF; fill-opacity:1.0000; 
stroke:#FFFFFF; stroke-width:0.0000; stroke-opacity:1; 
stroke-linecap:round; stroke-linejoin:round;">
<circle cx="85.1536" cy="50.2737" r="0.2000" /> 
</g>
<g style="fill:#FFFFFF; fill-opacity:1.0000; 
stroke:#FFFFFF; stroke-width:0.0212; stroke-opacity:1; 
stroke-linecap:round; stroke-linejoin:round;">
</g>
<g style="fill:#FFFFFF; fill-opacity:1.0000; 
stroke:#FFFFFF; stroke-width:0.0000; stroke-opacity:1; 
stroke-linecap:round; stroke-linejoin:round;">
<circle cx="74.1536" cy="50.6737" r="0.2000" /> 
</g>
<g style="fill:#FFFFFF; fill-opacity:1.0000; 
stroke:#FFFFFF; stroke-width:0.0212; stroke-opacity:1; 
stroke-linecap:round; stroke-linejoin:round;">
</g>
<g style="fill:#FFFFFF; fill-opacity:1.0000; 
stroke:#FFFFFF; stroke-width:0.0000; stroke-opacity:1; 
stroke-linecap:round; stroke-linejoin:round;">
<circle cx="79.6000" cy="49.0000" r="0.2000" /> 
</g>
<g style="fill:#FFFFFF; fill-opacity:1.0000; 
stroke:#FFFFFF; stroke-width:0.0212; stroke-opacity:1; 
stroke-linecap:round; stroke-linejoin:round;">
</g>
<g style="fill:#FFFFFF; fill-opacity:1.0000; 
stroke:#FFFFFF; stroke-width:0.0000; stroke-opacity:1; 
stroke-linecap:round; stroke-linejoin:round;">
<circle cx="70.2737" cy="54.8464" r="0.2000" /> 
</g>
<g style="fill:#FFFFFF; fill-opacity:1.0000; 
stroke:#FFFFFF; stroke-width:0.0212; stroke-opacity:1; 
stroke-linecap:round; stroke-linejoin:round;">
</g>
<g style="fill:#FFFFFF; fill-opacity:1.0000; 
stroke:#FFFFFF; stroke-width:0.0000; stroke-opacity:1; 
stroke-linecap:round; stroke-linejoin:round;">
<circle cx="89.3263" cy="54.1536" r="0.2000" /> 
</g>
<g style="fill:#FFFFFF; fill-opacity:1.0000; 
stroke:#FFFFFF; stroke-width:0.0212; stroke-opacity:1; 
stroke-linecap:round; stroke-linejoin:round;">
</g>
<g style="fill:#FFFFFF; fill-opacity:1.0000; 
stroke:#FFFFFF; stroke-width:0.0000; stroke-opacity:1; 
stroke-linecap:round; stroke-linejoin:round;">
<circle cx="85.8464" cy="69.3263" r="0.2000" /> 
</g>
<g style="fill:#FFFFFF; fill-opacity:1.0000; 
stroke:#FFFFFF; stroke-width:0.0212; stroke-opacity:1; 
stroke-linecap:round; stroke-linejoin:round;">
</g>
<g style="fill:#FFFFFF; fill-opacity:1.0000; 
stroke:#FFFFFF; stroke-width:0.0000; stroke-opacity:1; 
stroke-linecap:round; stroke-linejoin:round;">
<circle cx="74.8464" cy="69.7263" r="0.2000" /> 
</g>
<g style="fill:#FFFFFF; fill-opacity:1.0000; 
stroke:#FFFFFF; stroke-width:0.0212; stroke-opacity:1; 
stroke-linecap:round; stroke-linejoin:round;">
</g>
<g style="fill:#FFFFFF; fill-opacity:1.0000; 
stroke:#FFFFFF; stroke-width:0.0000; stroke-opacity:1; 
stroke-linecap:round; stroke-linejoin:round;">
<circle cx="91.0000" cy="59.6000" r="0.2000" /> 
</g>
<g style="fill:#FFFFFF; fill-opacity:1.0000; 
stroke:#FFFFFF; stroke-width:0.0212; stroke-opacity:1; 
stroke-linecap:round; stroke-linejoin:round;">
</g>
<g style="fill:#FFFFFF; fill-opacity:1.0000; 
stroke:#FFFFFF; stroke-width:0.0000; stroke-opacity:1; 
stroke-linecap:round; stroke-linejoin:round;">
<circle cx="70.6737" cy="65.8464" r="0.2000" /> 
</g>
<g style="fill:#FFFFFF; fill-opacity:1.0000; 
stroke:#FFFFFF; stroke-width:0.0212; stroke-opacity:1; 
stroke-linecap:round; stroke-linejoin:round;">
</g>
<g style="fill:#FFFFFF; fill-opacity:1.0000; 
stroke:#FFFFFF; stroke-width:0.0000; stroke-opacity:1; 
stroke-linecap:round; stroke-linejoin:round;">
<circle cx="92.0000" cy="65.0000" r="0.2000" /> 
</g>
<g style="fill:#FFFFFF; fill-opacity:1.0000; 
stroke:#FFFFFF; stroke-width:0.0212; stroke-opacity:1; 
stroke-linecap:round; stroke-linejoin:round;">
</g>
<g style="fill:#FFFFFF; fill-opacity:1.0000; 
stroke:#FFFFFF; stroke-width:0.0000; stroke-opacity:1; 
stroke-linecap:round; stroke-linejoin:round;">
<circle cx="93.0000" cy="61.2000" r="0.2000" /> 
</g>
<g style="fill:#FFFFFF; fill-opacity:1.0000; 
stroke:#FFFFFF; stroke-width:0.0212; stroke-opacity:1; 
stroke-linecap:round; stroke-linejoin:round;">
</g>
<g style="fill:#FFFFFF; fill-opacity:1.0000; 
stroke:#FFFFFF; stroke-width:0.0000; stroke-opacity:1; 
stroke-linecap:round; stroke-linejoin:round;">
<circle cx="93.0000" cy="62.6000" r="0.2000" /> 
</g>
<g style="fill:#FFFFFF; fill-opacity:1.0000; 
stroke:#FFFFFF; stroke-width:0.0212; stroke-opacity:1; 
stroke-linecap:round; stroke-linejoin:round;">
</g>
<g style="fill:#FFFFFF; fill-opacity:1.0000; 
stroke:#FFFFFF; stroke-width:0.0000; stroke-opacity:1; 
stroke-linecap:round; stroke-linejoin:round;">
<circle cx="93.0000" cy="65.0000" r="0.2000" /> 
</g>
<g style="fill:#FFFFFF; fill-opacity:1.0000; 
stroke:#FFFFFF; stroke-width:0.0212; stroke-opacity:1; 
stroke-linecap:round; stroke-linejoin:round;">
</g>
<g style="fill:#FFFFFF; fill-opacity:1.0000; 
stroke:#FFFFFF; stroke-width:0.0000; stroke-opacity:1; 
stroke-linecap:round; stroke-linejoin:round;">
<circle cx="93.0000" cy="63.8000" r="0.2000" /> 
</g>
<g style="fill:#FFFFFF; fill-opacity:1.0000; 
stroke:#FFFFFF; stroke-width:0.0212; stroke-opacity:1; 
stroke-linecap:round; stroke-linejoin:round;">
</g>
<g style="fill:#FFFFFF; fill-opacity:1.0000; 
stroke:#FFFFFF; stroke-width:0.0000; stroke-opacity:1; 
stroke-linecap:round; stroke-linejoin:round;">
<circle cx="92.0000" cy="61.2000" r="0.2000" /> 
</g>
<g style="fill:#FFFFFF; fill-opacity:1.0000; 
stroke:#FFFFFF; stroke-width:0.0212; stroke-opacity:1; 
stroke-linecap:round; stroke-linejoin:round;">
</g>
<g style="fill:#000000; fill-opacity:1.0000; 
stroke:#000000; stroke-width:0.0212; stroke-opacity:1; 
stroke-linecap:round; stroke-linejoin:round;">
</g> 
</svg>
