<?xml version="1.0" standalone="no"?>
 <!DOCTYPE svg PUBLIC "-//W3C//DTD SVG 1.1//EN" 
 "http://www.w3.org/Graphics/SVG/1.1/DTD/svg11.dtd"> 
<svg
  xmlns:svg="http://www.w3.org/2000/svg"
  xmlns="http://www.w3.org/2000/svg"
  xmlns:xlink="http://www.w3.org/1999/xlink"
  version="1.1"
  width="297.0022mm" height="210.0072mm" viewBox="0.0000 0.0000 297.0022 210.0072">
<title>SVG Image created as pedalboard-led-ring-F_Mask.svg date 2023/06/03 21:36:27 </title>
  <desc>Image generated by PCBNEW </desc>
<g style="fill:#000000; fill-opacity:1.0000;stroke:#000000; stroke-opacity:1.0000;
stroke-linecap:round; stroke-linejoin:round;"
 transform="translate(0 0) scale(1 1)">
</g>
<g style="fill:#000000; fill-opacity:0.0; 
stroke:#000000; stroke-width:0.0000; stroke-opacity:1; 
stroke-linecap:round; stroke-linejoin:round;">
<g >
</g>
<g style="fill:#000000; fill-opacity:0.0; 
stroke:#000000; stroke-width:0.0000; stroke-opacity:1; 
stroke-linecap:round; stroke-linejoin:round;">
</g>
<g style="fill:#000000; fill-opacity:1.0000; 
stroke:#000000; stroke-width:0.0000; stroke-opacity:1; 
stroke-linecap:round; stroke-linejoin:round;">
<path style="fill:#000000; fill-opacity:1.0000; 
stroke:#000000; stroke-width:0.0000; stroke-opacity:1; 
stroke-linecap:round; stroke-linejoin:round;fill-rule:evenodd;"
d="M 84.6768,68.5004
84.2438,68.7504
83.9938,68.3174
84.4268,68.0674
Z" /> 
<path style="fill:#000000; fill-opacity:1.0000; 
stroke:#000000; stroke-width:0.0000; stroke-opacity:1; 
stroke-linecap:round; stroke-linejoin:round;fill-rule:evenodd;"
d="M 85.4562,68.0504
85.0232,68.3004
84.7732,67.8674
85.2062,67.6174
Z" /> 
<path style="fill:#000000; fill-opacity:1.0000; 
stroke:#000000; stroke-width:0.0000; stroke-opacity:1; 
stroke-linecap:round; stroke-linejoin:round;fill-rule:evenodd;"
d="M 85.0062,67.2710
84.5732,67.5210
84.3232,67.0880
84.7562,66.8380
Z" /> 
<path style="fill:#000000; fill-opacity:1.0000; 
stroke:#000000; stroke-width:0.0000; stroke-opacity:1; 
stroke-linecap:round; stroke-linejoin:round;fill-rule:evenodd;"
d="M 84.2268,67.7210
83.7938,67.9710
83.5438,67.5380
83.9768,67.2880
Z" /> 
</g>
<g >
</g>
<g style="fill:#000000; fill-opacity:1.0000; 
stroke:#000000; stroke-width:0.0000; stroke-opacity:1; 
stroke-linecap:round; stroke-linejoin:round;">
<path style="fill:#000000; fill-opacity:1.0000; 
stroke:#000000; stroke-width:0.0000; stroke-opacity:1; 
stroke-linecap:round; stroke-linejoin:round;fill-rule:evenodd;"
d="M 78.7500,50.3350
78.7883,50.3426
78.8207,50.3643
78.8424,50.3967
78.8500,50.4350
78.8500,50.8700
78.8424,50.9083
78.8207,50.9407
78.7883,50.9624
78.7500,50.9700
78.5500,50.9700
78.5117,50.9624
78.4793,50.9407
78.4576,50.9083
78.4500,50.8700
78.4500,50.4350
78.4576,50.3967
78.4793,50.3643
78.5117,50.3426
78.5500,50.3350
Z" /> 
<path style="fill:#000000; fill-opacity:1.0000; 
stroke:#000000; stroke-width:0.0000; stroke-opacity:1; 
stroke-linecap:round; stroke-linejoin:round;fill-rule:evenodd;"
d="M 78.7500,51.1500
78.7883,51.1576
78.8207,51.1793
78.8424,51.2117
78.8500,51.2500
78.8500,51.6850
78.8424,51.7233
78.8207,51.7557
78.7883,51.7774
78.7500,51.7850
78.5500,51.7850
78.5117,51.7774
78.4793,51.7557
78.4576,51.7233
78.4500,51.6850
78.4500,51.2500
78.4576,51.2117
78.4793,51.1793
78.5117,51.1576
78.5500,51.1500
Z" /> 
</g>
<g >
</g>
<g style="fill:#000000; fill-opacity:1.0000; 
stroke:#000000; stroke-width:0.0000; stroke-opacity:1; 
stroke-linecap:round; stroke-linejoin:round;">
<path style="fill:#000000; fill-opacity:1.0000; 
stroke:#000000; stroke-width:0.0000; stroke-opacity:1; 
stroke-linecap:round; stroke-linejoin:round;fill-rule:evenodd;"
d="M 74.0850,52.2549
74.1219,52.2423
74.1609,52.2449
74.1958,52.2621
74.2216,52.2915
74.4391,52.6682
74.4516,52.7051
74.4491,52.7441
74.4318,52.7791
74.4025,52.8048
74.2293,52.9048
74.1923,52.9173
74.1534,52.9148
74.1184,52.8975
74.0927,52.8682
73.8752,52.4915
73.8626,52.4545
73.8652,52.4156
73.8824,52.3806
73.9118,52.3549
Z" /> 
<path style="fill:#000000; fill-opacity:1.0000; 
stroke:#000000; stroke-width:0.0000; stroke-opacity:1; 
stroke-linecap:round; stroke-linejoin:round;fill-rule:evenodd;"
d="M 74.4925,52.9607
74.5294,52.9481
74.5684,52.9507
74.6033,52.9679
74.6291,52.9973
74.8466,53.3740
74.8591,53.4109
74.8566,53.4499
74.8393,53.4849
74.8100,53.5106
74.6368,53.6106
74.5998,53.6231
74.5609,53.6206
74.5259,53.6033
74.5002,53.5740
74.2827,53.1973
74.2701,53.1603
74.2727,53.1214
74.2899,53.0864
74.3193,53.0607
Z" /> 
</g>
<g >
</g>
<g style="fill:#000000; fill-opacity:1.0000; 
stroke:#000000; stroke-width:0.0000; stroke-opacity:1; 
stroke-linecap:round; stroke-linejoin:round;">
<path style="fill:#000000; fill-opacity:1.0000; 
stroke:#000000; stroke-width:0.0000; stroke-opacity:1; 
stroke-linecap:round; stroke-linejoin:round;fill-rule:evenodd;"
d="M 89.7000,60.2000
89.7000,60.7000
89.2000,60.7000
89.2000,60.2000
Z" /> 
<path style="fill:#000000; fill-opacity:1.0000; 
stroke:#000000; stroke-width:0.0000; stroke-opacity:1; 
stroke-linecap:round; stroke-linejoin:round;fill-rule:evenodd;"
d="M 89.7000,59.3000
89.7000,59.8000
89.2000,59.8000
89.2000,59.3000
Z" /> 
<path style="fill:#000000; fill-opacity:1.0000; 
stroke:#000000; stroke-width:0.0000; stroke-opacity:1; 
stroke-linecap:round; stroke-linejoin:round;fill-rule:evenodd;"
d="M 88.8000,59.3000
88.8000,59.8000
88.3000,59.8000
88.3000,59.3000
Z" /> 
<path style="fill:#000000; fill-opacity:1.0000; 
stroke:#000000; stroke-width:0.0000; stroke-opacity:1; 
stroke-linecap:round; stroke-linejoin:round;fill-rule:evenodd;"
d="M 88.8000,60.2000
88.8000,60.7000
88.3000,60.7000
88.3000,60.2000
Z" /> 
</g>
<g >
</g>
<g style="fill:#000000; fill-opacity:1.0000; 
stroke:#000000; stroke-width:0.0000; stroke-opacity:1; 
stroke-linecap:round; stroke-linejoin:round;">
<path style="fill:#000000; fill-opacity:1.0000; 
stroke:#000000; stroke-width:0.0000; stroke-opacity:1; 
stroke-linecap:round; stroke-linejoin:round;fill-rule:evenodd;"
d="M 80.2000,50.3000
80.7000,50.3000
80.7000,50.8000
80.2000,50.8000
Z" /> 
<path style="fill:#000000; fill-opacity:1.0000; 
stroke:#000000; stroke-width:0.0000; stroke-opacity:1; 
stroke-linecap:round; stroke-linejoin:round;fill-rule:evenodd;"
d="M 79.3000,50.3000
79.8000,50.3000
79.8000,50.8000
79.3000,50.8000
Z" /> 
<path style="fill:#000000; fill-opacity:1.0000; 
stroke:#000000; stroke-width:0.0000; stroke-opacity:1; 
stroke-linecap:round; stroke-linejoin:round;fill-rule:evenodd;"
d="M 79.3000,51.2000
79.8000,51.2000
79.8000,51.7000
79.3000,51.7000
Z" /> 
<path style="fill:#000000; fill-opacity:1.0000; 
stroke:#000000; stroke-width:0.0000; stroke-opacity:1; 
stroke-linecap:round; stroke-linejoin:round;fill-rule:evenodd;"
d="M 80.2000,51.2000
80.7000,51.2000
80.7000,51.7000
80.2000,51.7000
Z" /> 
</g>
<g >
</g>
<g style="fill:#000000; fill-opacity:1.0000; 
stroke:#000000; stroke-width:0.0000; stroke-opacity:1; 
stroke-linecap:round; stroke-linejoin:round;">
<path style="fill:#000000; fill-opacity:1.0000; 
stroke:#000000; stroke-width:0.0000; stroke-opacity:1; 
stroke-linecap:round; stroke-linejoin:round;fill-rule:evenodd;"
d="M 88.3004,65.0232
88.0504,65.4562
87.6174,65.2062
87.8674,64.7732
Z" /> 
<path style="fill:#000000; fill-opacity:1.0000; 
stroke:#000000; stroke-width:0.0000; stroke-opacity:1; 
stroke-linecap:round; stroke-linejoin:round;fill-rule:evenodd;"
d="M 88.7504,64.2438
88.5004,64.6768
88.0674,64.4268
88.3174,63.9938
Z" /> 
<path style="fill:#000000; fill-opacity:1.0000; 
stroke:#000000; stroke-width:0.0000; stroke-opacity:1; 
stroke-linecap:round; stroke-linejoin:round;fill-rule:evenodd;"
d="M 87.9710,63.7938
87.7210,64.2268
87.2880,63.9768
87.5380,63.5438
Z" /> 
<path style="fill:#000000; fill-opacity:1.0000; 
stroke:#000000; stroke-width:0.0000; stroke-opacity:1; 
stroke-linecap:round; stroke-linejoin:round;fill-rule:evenodd;"
d="M 87.5210,64.5732
87.2710,65.0062
86.8380,64.7562
87.0880,64.3232
Z" /> 
</g>
<g >
</g>
<g style="fill:#000000; fill-opacity:1.0000; 
stroke:#000000; stroke-width:0.0000; stroke-opacity:1; 
stroke-linecap:round; stroke-linejoin:round;">
<path style="fill:#000000; fill-opacity:1.0000; 
stroke:#000000; stroke-width:0.0000; stroke-opacity:1; 
stroke-linecap:round; stroke-linejoin:round;fill-rule:evenodd;"
d="M 71.4996,64.6768
71.2496,64.2438
71.6826,63.9938
71.9326,64.4268
Z" /> 
<path style="fill:#000000; fill-opacity:1.0000; 
stroke:#000000; stroke-width:0.0000; stroke-opacity:1; 
stroke-linecap:round; stroke-linejoin:round;fill-rule:evenodd;"
d="M 71.9496,65.4562
71.6996,65.0232
72.1326,64.7732
72.3826,65.2062
Z" /> 
<path style="fill:#000000; fill-opacity:1.0000; 
stroke:#000000; stroke-width:0.0000; stroke-opacity:1; 
stroke-linecap:round; stroke-linejoin:round;fill-rule:evenodd;"
d="M 72.7290,65.0062
72.4790,64.5732
72.9120,64.3232
73.1620,64.7562
Z" /> 
<path style="fill:#000000; fill-opacity:1.0000; 
stroke:#000000; stroke-width:0.0000; stroke-opacity:1; 
stroke-linecap:round; stroke-linejoin:round;fill-rule:evenodd;"
d="M 72.2790,64.2268
72.0290,63.7938
72.4620,63.5438
72.7120,63.9768
Z" /> 
</g>
<g >
</g>
<g style="fill:#000000; fill-opacity:1.0000; 
stroke:#000000; stroke-width:0.0000; stroke-opacity:1; 
stroke-linecap:round; stroke-linejoin:round;">
<path style="fill:#000000; fill-opacity:1.0000; 
stroke:#000000; stroke-width:0.0000; stroke-opacity:1; 
stroke-linecap:round; stroke-linejoin:round;fill-rule:evenodd;"
d="M 79.8000,69.7000
79.3000,69.7000
79.3000,69.2000
79.8000,69.2000
Z" /> 
<path style="fill:#000000; fill-opacity:1.0000; 
stroke:#000000; stroke-width:0.0000; stroke-opacity:1; 
stroke-linecap:round; stroke-linejoin:round;fill-rule:evenodd;"
d="M 80.7000,69.7000
80.2000,69.7000
80.2000,69.2000
80.7000,69.2000
Z" /> 
<path style="fill:#000000; fill-opacity:1.0000; 
stroke:#000000; stroke-width:0.0000; stroke-opacity:1; 
stroke-linecap:round; stroke-linejoin:round;fill-rule:evenodd;"
d="M 80.7000,68.8000
80.2000,68.8000
80.2000,68.3000
80.7000,68.3000
Z" /> 
<path style="fill:#000000; fill-opacity:1.0000; 
stroke:#000000; stroke-width:0.0000; stroke-opacity:1; 
stroke-linecap:round; stroke-linejoin:round;fill-rule:evenodd;"
d="M 79.8000,68.8000
79.3000,68.8000
79.3000,68.3000
79.8000,68.3000
Z" /> 
</g>
<g >
</g>
<g style="fill:#000000; fill-opacity:1.0000; 
stroke:#000000; stroke-width:0.0000; stroke-opacity:1; 
stroke-linecap:round; stroke-linejoin:round;">
<path style="fill:#000000; fill-opacity:1.0000; 
stroke:#000000; stroke-width:0.0000; stroke-opacity:1; 
stroke-linecap:round; stroke-linejoin:round;fill-rule:evenodd;"
d="M 70.3000,59.8000
70.3000,59.3000
70.8000,59.3000
70.8000,59.8000
Z" /> 
<path style="fill:#000000; fill-opacity:1.0000; 
stroke:#000000; stroke-width:0.0000; stroke-opacity:1; 
stroke-linecap:round; stroke-linejoin:round;fill-rule:evenodd;"
d="M 70.3000,60.7000
70.3000,60.2000
70.8000,60.2000
70.8000,60.7000
Z" /> 
<path style="fill:#000000; fill-opacity:1.0000; 
stroke:#000000; stroke-width:0.0000; stroke-opacity:1; 
stroke-linecap:round; stroke-linejoin:round;fill-rule:evenodd;"
d="M 71.2000,60.7000
71.2000,60.2000
71.7000,60.2000
71.7000,60.7000
Z" /> 
<path style="fill:#000000; fill-opacity:1.0000; 
stroke:#000000; stroke-width:0.0000; stroke-opacity:1; 
stroke-linecap:round; stroke-linejoin:round;fill-rule:evenodd;"
d="M 71.2000,59.8000
71.2000,59.3000
71.7000,59.3000
71.7000,59.8000
Z" /> 
</g>
<g >
</g>
<g style="fill:#000000; fill-opacity:1.0000; 
stroke:#000000; stroke-width:0.0000; stroke-opacity:1; 
stroke-linecap:round; stroke-linejoin:round;">
<path style="fill:#000000; fill-opacity:1.0000; 
stroke:#000000; stroke-width:0.0000; stroke-opacity:1; 
stroke-linecap:round; stroke-linejoin:round;fill-rule:evenodd;"
d="M 71.6996,54.9768
71.9496,54.5438
72.3826,54.7938
72.1326,55.2268
Z" /> 
<path style="fill:#000000; fill-opacity:1.0000; 
stroke:#000000; stroke-width:0.0000; stroke-opacity:1; 
stroke-linecap:round; stroke-linejoin:round;fill-rule:evenodd;"
d="M 71.2496,55.7562
71.4996,55.3232
71.9326,55.5732
71.6826,56.0062
Z" /> 
<path style="fill:#000000; fill-opacity:1.0000; 
stroke:#000000; stroke-width:0.0000; stroke-opacity:1; 
stroke-linecap:round; stroke-linejoin:round;fill-rule:evenodd;"
d="M 72.0290,56.2062
72.2790,55.7732
72.7120,56.0232
72.4620,56.4562
Z" /> 
<path style="fill:#000000; fill-opacity:1.0000; 
stroke:#000000; stroke-width:0.0000; stroke-opacity:1; 
stroke-linecap:round; stroke-linejoin:round;fill-rule:evenodd;"
d="M 72.4790,55.4268
72.7290,54.9938
73.1620,55.2438
72.9120,55.6768
Z" /> 
</g>
<g >
</g>
<g style="fill:#000000; fill-opacity:1.0000; 
stroke:#000000; stroke-width:0.0000; stroke-opacity:1; 
stroke-linecap:round; stroke-linejoin:round;">
<circle cx="90.0000" cy="50.0000" r="1.1000" /> 
</g>
<g style="fill:#000000; fill-opacity:1.0000; 
stroke:#000000; stroke-width:0.0212; stroke-opacity:1; 
stroke-linecap:round; stroke-linejoin:round;">
</g>
<g >
</g>
<g style="fill:#000000; fill-opacity:1.0000; 
stroke:#000000; stroke-width:0.0212; stroke-opacity:1; 
stroke-linecap:round; stroke-linejoin:round;">
</g>
<g style="fill:#000000; fill-opacity:1.0000; 
stroke:#000000; stroke-width:0.0000; stroke-opacity:1; 
stroke-linecap:round; stroke-linejoin:round;">
<path style="fill:#000000; fill-opacity:1.0000; 
stroke:#000000; stroke-width:0.0000; stroke-opacity:1; 
stroke-linecap:round; stroke-linejoin:round;fill-rule:evenodd;"
d="M 70.3350,61.2500
70.3426,61.2117
70.3643,61.1793
70.3967,61.1576
70.4350,61.1500
70.8700,61.1500
70.9083,61.1576
70.9407,61.1793
70.9624,61.2117
70.9700,61.2500
70.9700,61.4500
70.9624,61.4883
70.9407,61.5207
70.9083,61.5424
70.8700,61.5500
70.4350,61.5500
70.3967,61.5424
70.3643,61.5207
70.3426,61.4883
70.3350,61.4500
Z" /> 
<path style="fill:#000000; fill-opacity:1.0000; 
stroke:#000000; stroke-width:0.0000; stroke-opacity:1; 
stroke-linecap:round; stroke-linejoin:round;fill-rule:evenodd;"
d="M 71.1500,61.2500
71.1576,61.2117
71.1793,61.1793
71.2117,61.1576
71.2500,61.1500
71.6850,61.1500
71.7233,61.1576
71.7557,61.1793
71.7774,61.2117
71.7850,61.2500
71.7850,61.4500
71.7774,61.4883
71.7557,61.5207
71.7233,61.5424
71.6850,61.5500
71.2500,61.5500
71.2117,61.5424
71.1793,61.5207
71.1576,61.4883
71.1500,61.4500
Z" /> 
</g>
<g >
</g>
<g style="fill:#000000; fill-opacity:1.0000; 
stroke:#000000; stroke-width:0.0000; stroke-opacity:1; 
stroke-linecap:round; stroke-linejoin:round;">
<path style="fill:#000000; fill-opacity:1.0000; 
stroke:#000000; stroke-width:0.0000; stroke-opacity:1; 
stroke-linecap:round; stroke-linejoin:round;fill-rule:evenodd;"
d="M 72.2549,65.9150
72.2423,65.8781
72.2449,65.8391
72.2621,65.8042
72.2915,65.7784
72.6682,65.5609
72.7051,65.5484
72.7441,65.5509
72.7791,65.5682
72.8048,65.5975
72.9048,65.7707
72.9173,65.8077
72.9148,65.8466
72.8975,65.8816
72.8682,65.9073
72.4915,66.1248
72.4545,66.1374
72.4156,66.1348
72.3806,66.1176
72.3549,66.0882
Z" /> 
<path style="fill:#000000; fill-opacity:1.0000; 
stroke:#000000; stroke-width:0.0000; stroke-opacity:1; 
stroke-linecap:round; stroke-linejoin:round;fill-rule:evenodd;"
d="M 72.9607,65.5075
72.9481,65.4706
72.9507,65.4316
72.9679,65.3967
72.9973,65.3709
73.3740,65.1534
73.4109,65.1409
73.4499,65.1434
73.4849,65.1607
73.5106,65.1900
73.6106,65.3632
73.6231,65.4002
73.6206,65.4391
73.6033,65.4741
73.5740,65.4998
73.1973,65.7173
73.1603,65.7299
73.1214,65.7273
73.0864,65.7101
73.0607,65.6807
Z" /> 
</g>
<g >
</g>
<g style="fill:#000000; fill-opacity:1.0000; 
stroke:#000000; stroke-width:0.0000; stroke-opacity:1; 
stroke-linecap:round; stroke-linejoin:round;">
<path style="fill:#000000; fill-opacity:1.0000; 
stroke:#000000; stroke-width:0.0000; stroke-opacity:1; 
stroke-linecap:round; stroke-linejoin:round;fill-rule:evenodd;"
d="M 76.2500,68.9951
76.2207,68.9694
76.2034,68.9344
76.2009,68.8955
76.2134,68.8585
76.4309,68.4818
76.4567,68.4525
76.4916,68.4352
76.5306,68.4327
76.5675,68.4452
76.7407,68.5452
76.7701,68.5709
76.7873,68.6059
76.7899,68.6449
76.7773,68.6818
76.5598,69.0585
76.5341,69.0879
76.4991,69.1051
76.4602,69.1077
76.4232,69.0951
Z" /> 
<path style="fill:#000000; fill-opacity:1.0000; 
stroke:#000000; stroke-width:0.0000; stroke-opacity:1; 
stroke-linecap:round; stroke-linejoin:round;fill-rule:evenodd;"
d="M 76.6575,68.2893
76.6282,68.2636
76.6109,68.2286
76.6084,68.1897
76.6209,68.1527
76.8384,67.7760
76.8642,67.7467
76.8991,67.7294
76.9381,67.7269
76.9750,67.7394
77.1482,67.8394
77.1776,67.8651
77.1948,67.9001
77.1974,67.9391
77.1848,67.9760
76.9673,68.3527
76.9416,68.3821
76.9066,68.3993
76.8677,68.4019
76.8307,68.3893
Z" /> 
</g>
<g >
</g>
<g >
</g>
<g style="fill:#000000; fill-opacity:1.0000; 
stroke:#000000; stroke-width:0.0000; stroke-opacity:1; 
stroke-linecap:round; stroke-linejoin:round;">
<circle cx="70.0000" cy="50.0000" r="1.1000" /> 
</g>
<g style="fill:#000000; fill-opacity:1.0000; 
stroke:#000000; stroke-width:0.0212; stroke-opacity:1; 
stroke-linecap:round; stroke-linejoin:round;">
</g>
<g >
</g>
<g style="fill:#000000; fill-opacity:1.0000; 
stroke:#000000; stroke-width:0.0212; stroke-opacity:1; 
stroke-linecap:round; stroke-linejoin:round;">
</g>
<g style="fill:#000000; fill-opacity:1.0000; 
stroke:#000000; stroke-width:0.0000; stroke-opacity:1; 
stroke-linecap:round; stroke-linejoin:round;">
<path style="fill:#000000; fill-opacity:1.0000; 
stroke:#000000; stroke-width:0.0000; stroke-opacity:1; 
stroke-linecap:round; stroke-linejoin:round;fill-rule:evenodd;"
d="M 85.9150,67.7451
85.8781,67.7577
85.8391,67.7551
85.8042,67.7379
85.7784,67.7085
85.5609,67.3318
85.5484,67.2949
85.5509,67.2559
85.5682,67.2209
85.5975,67.1952
85.7707,67.0952
85.8077,67.0827
85.8466,67.0852
85.8816,67.1025
85.9073,67.1318
86.1248,67.5085
86.1374,67.5455
86.1348,67.5844
86.1176,67.6194
86.0882,67.6451
Z" /> 
<path style="fill:#000000; fill-opacity:1.0000; 
stroke:#000000; stroke-width:0.0000; stroke-opacity:1; 
stroke-linecap:round; stroke-linejoin:round;fill-rule:evenodd;"
d="M 85.5075,67.0393
85.4706,67.0519
85.4316,67.0493
85.3967,67.0321
85.3709,67.0027
85.1534,66.6260
85.1409,66.5891
85.1434,66.5501
85.1607,66.5151
85.1900,66.4894
85.3632,66.3894
85.4002,66.3769
85.4391,66.3794
85.4741,66.3967
85.4998,66.4260
85.7173,66.8027
85.7299,66.8397
85.7273,66.8786
85.7101,66.9136
85.6807,66.9393
Z" /> 
</g>
<g >
</g>
<g style="fill:#000000; fill-opacity:1.0000; 
stroke:#000000; stroke-width:0.0000; stroke-opacity:1; 
stroke-linecap:round; stroke-linejoin:round;">
<path style="fill:#000000; fill-opacity:1.0000; 
stroke:#000000; stroke-width:0.0000; stroke-opacity:1; 
stroke-linecap:round; stroke-linejoin:round;fill-rule:evenodd;"
d="M 71.0049,56.2500
71.0306,56.2207
71.0656,56.2034
71.1045,56.2009
71.1415,56.2134
71.5182,56.4309
71.5475,56.4567
71.5648,56.4916
71.5673,56.5306
71.5548,56.5675
71.4548,56.7407
71.4291,56.7701
71.3941,56.7873
71.3551,56.7899
71.3182,56.7773
70.9415,56.5598
70.9121,56.5341
70.8949,56.4991
70.8923,56.4602
70.9049,56.4232
Z" /> 
<path style="fill:#000000; fill-opacity:1.0000; 
stroke:#000000; stroke-width:0.0000; stroke-opacity:1; 
stroke-linecap:round; stroke-linejoin:round;fill-rule:evenodd;"
d="M 71.7107,56.6575
71.7364,56.6282
71.7714,56.6109
71.8103,56.6084
71.8473,56.6209
72.2240,56.8384
72.2533,56.8642
72.2706,56.8991
72.2731,56.9381
72.2606,56.9750
72.1606,57.1482
72.1349,57.1776
72.0999,57.1948
72.0609,57.1974
72.0240,57.1848
71.6473,56.9673
71.6179,56.9416
71.6007,56.9066
71.5981,56.8677
71.6107,56.8307
Z" /> 
</g>
<g >
</g>
<g style="fill:#000000; fill-opacity:1.0000; 
stroke:#000000; stroke-width:0.0000; stroke-opacity:1; 
stroke-linecap:round; stroke-linejoin:round;">
<path style="fill:#000000; fill-opacity:1.0000; 
stroke:#000000; stroke-width:0.0000; stroke-opacity:1; 
stroke-linecap:round; stroke-linejoin:round;fill-rule:evenodd;"
d="M 81.2500,69.6650
81.2117,69.6574
81.1793,69.6357
81.1576,69.6033
81.1500,69.5650
81.1500,69.1300
81.1576,69.0917
81.1793,69.0593
81.2117,69.0376
81.2500,69.0300
81.4500,69.0300
81.4883,69.0376
81.5207,69.0593
81.5424,69.0917
81.5500,69.1300
81.5500,69.5650
81.5424,69.6033
81.5207,69.6357
81.4883,69.6574
81.4500,69.6650
Z" /> 
<path style="fill:#000000; fill-opacity:1.0000; 
stroke:#000000; stroke-width:0.0000; stroke-opacity:1; 
stroke-linecap:round; stroke-linejoin:round;fill-rule:evenodd;"
d="M 81.2500,68.8500
81.2117,68.8424
81.1793,68.8207
81.1576,68.7883
81.1500,68.7500
81.1500,68.3150
81.1576,68.2767
81.1793,68.2443
81.2117,68.2226
81.2500,68.2150
81.4500,68.2150
81.4883,68.2226
81.5207,68.2443
81.5424,68.2767
81.5500,68.3150
81.5500,68.7500
81.5424,68.7883
81.5207,68.8207
81.4883,68.8424
81.4500,68.8500
Z" /> 
</g>
<g >
</g>
<g style="fill:#000000; fill-opacity:1.0000; 
stroke:#000000; stroke-width:0.0000; stroke-opacity:1; 
stroke-linecap:round; stroke-linejoin:round;">
<path style="fill:#000000; fill-opacity:1.0000; 
stroke:#000000; stroke-width:0.0000; stroke-opacity:1; 
stroke-linecap:round; stroke-linejoin:round;fill-rule:evenodd;"
d="M 88.5004,55.3232
88.7504,55.7562
88.3174,56.0062
88.0674,55.5732
Z" /> 
<path style="fill:#000000; fill-opacity:1.0000; 
stroke:#000000; stroke-width:0.0000; stroke-opacity:1; 
stroke-linecap:round; stroke-linejoin:round;fill-rule:evenodd;"
d="M 88.0504,54.5438
88.3004,54.9768
87.8674,55.2268
87.6174,54.7938
Z" /> 
<path style="fill:#000000; fill-opacity:1.0000; 
stroke:#000000; stroke-width:0.0000; stroke-opacity:1; 
stroke-linecap:round; stroke-linejoin:round;fill-rule:evenodd;"
d="M 87.2710,54.9938
87.5210,55.4268
87.0880,55.6768
86.8380,55.2438
Z" /> 
<path style="fill:#000000; fill-opacity:1.0000; 
stroke:#000000; stroke-width:0.0000; stroke-opacity:1; 
stroke-linecap:round; stroke-linejoin:round;fill-rule:evenodd;"
d="M 87.7210,55.7732
87.9710,56.2062
87.5380,56.4562
87.2880,56.0232
Z" /> 
</g>
<g >
</g>
<g style="fill:#000000; fill-opacity:1.0000; 
stroke:#000000; stroke-width:0.0000; stroke-opacity:1; 
stroke-linecap:round; stroke-linejoin:round;">
<path style="fill:#000000; fill-opacity:1.0000; 
stroke:#000000; stroke-width:0.0000; stroke-opacity:1; 
stroke-linecap:round; stroke-linejoin:round;fill-rule:evenodd;"
d="M 89.6650,58.7500
89.6574,58.7883
89.6357,58.8207
89.6033,58.8424
89.5650,58.8500
89.1300,58.8500
89.0917,58.8424
89.0593,58.8207
89.0376,58.7883
89.0300,58.7500
89.0300,58.5500
89.0376,58.5117
89.0593,58.4793
89.0917,58.4576
89.1300,58.4500
89.5650,58.4500
89.6033,58.4576
89.6357,58.4793
89.6574,58.5117
89.6650,58.5500
Z" /> 
<path style="fill:#000000; fill-opacity:1.0000; 
stroke:#000000; stroke-width:0.0000; stroke-opacity:1; 
stroke-linecap:round; stroke-linejoin:round;fill-rule:evenodd;"
d="M 88.8500,58.7500
88.8424,58.7883
88.8207,58.8207
88.7883,58.8424
88.7500,58.8500
88.3150,58.8500
88.2767,58.8424
88.2443,58.8207
88.2226,58.7883
88.2150,58.7500
88.2150,58.5500
88.2226,58.5117
88.2443,58.4793
88.2767,58.4576
88.3150,58.4500
88.7500,58.4500
88.7883,58.4576
88.8207,58.4793
88.8424,58.5117
88.8500,58.5500
Z" /> 
</g>
<g >
</g>
<g style="fill:#000000; fill-opacity:1.0000; 
stroke:#000000; stroke-width:0.0000; stroke-opacity:1; 
stroke-linecap:round; stroke-linejoin:round;">
<path style="fill:#000000; fill-opacity:1.0000; 
stroke:#000000; stroke-width:0.0000; stroke-opacity:1; 
stroke-linecap:round; stroke-linejoin:round;fill-rule:evenodd;"
d="M 87.7451,54.0850
87.7577,54.1219
87.7551,54.1609
87.7379,54.1958
87.7085,54.2216
87.3318,54.4391
87.2949,54.4516
87.2559,54.4491
87.2209,54.4318
87.1952,54.4025
87.0952,54.2293
87.0827,54.1923
87.0852,54.1534
87.1025,54.1184
87.1318,54.0927
87.5085,53.8752
87.5455,53.8626
87.5844,53.8652
87.6194,53.8824
87.6451,53.9118
Z" /> 
<path style="fill:#000000; fill-opacity:1.0000; 
stroke:#000000; stroke-width:0.0000; stroke-opacity:1; 
stroke-linecap:round; stroke-linejoin:round;fill-rule:evenodd;"
d="M 87.0393,54.4925
87.0519,54.5294
87.0493,54.5684
87.0321,54.6033
87.0027,54.6291
86.6260,54.8466
86.5891,54.8591
86.5501,54.8566
86.5151,54.8393
86.4894,54.8100
86.3894,54.6368
86.3769,54.5998
86.3794,54.5609
86.3967,54.5259
86.4260,54.5002
86.8027,54.2827
86.8397,54.2701
86.8786,54.2727
86.9136,54.2899
86.9393,54.3193
Z" /> 
</g>
<g >
</g>
<g style="fill:#000000; fill-opacity:1.0000; 
stroke:#000000; stroke-width:0.0000; stroke-opacity:1; 
stroke-linecap:round; stroke-linejoin:round;">
<path style="fill:#000000; fill-opacity:1.0000; 
stroke:#000000; stroke-width:0.0000; stroke-opacity:1; 
stroke-linecap:round; stroke-linejoin:round;fill-rule:evenodd;"
d="M 75.3232,51.4996
75.7562,51.2496
76.0062,51.6826
75.5732,51.9326
Z" /> 
<path style="fill:#000000; fill-opacity:1.0000; 
stroke:#000000; stroke-width:0.0000; stroke-opacity:1; 
stroke-linecap:round; stroke-linejoin:round;fill-rule:evenodd;"
d="M 74.5438,51.9496
74.9768,51.6996
75.2268,52.1326
74.7938,52.3826
Z" /> 
<path style="fill:#000000; fill-opacity:1.0000; 
stroke:#000000; stroke-width:0.0000; stroke-opacity:1; 
stroke-linecap:round; stroke-linejoin:round;fill-rule:evenodd;"
d="M 74.9938,52.7290
75.4268,52.4790
75.6768,52.9120
75.2438,53.1620
Z" /> 
<path style="fill:#000000; fill-opacity:1.0000; 
stroke:#000000; stroke-width:0.0000; stroke-opacity:1; 
stroke-linecap:round; stroke-linejoin:round;fill-rule:evenodd;"
d="M 75.7732,52.2790
76.2062,52.0290
76.4562,52.4620
76.0232,52.7120
Z" /> 
</g>
<g >
</g>
<g style="fill:#000000; fill-opacity:1.0000; 
stroke:#000000; stroke-width:0.0000; stroke-opacity:1; 
stroke-linecap:round; stroke-linejoin:round;">
<path style="fill:#000000; fill-opacity:1.0000; 
stroke:#000000; stroke-width:0.0000; stroke-opacity:1; 
stroke-linecap:round; stroke-linejoin:round;fill-rule:evenodd;"
d="M 88.9951,63.7500
88.9694,63.7793
88.9344,63.7966
88.8955,63.7991
88.8585,63.7866
88.4818,63.5691
88.4525,63.5433
88.4352,63.5084
88.4327,63.4694
88.4452,63.4325
88.5452,63.2593
88.5709,63.2299
88.6059,63.2127
88.6449,63.2101
88.6818,63.2227
89.0585,63.4402
89.0879,63.4659
89.1051,63.5009
89.1077,63.5398
89.0951,63.5768
Z" /> 
<path style="fill:#000000; fill-opacity:1.0000; 
stroke:#000000; stroke-width:0.0000; stroke-opacity:1; 
stroke-linecap:round; stroke-linejoin:round;fill-rule:evenodd;"
d="M 88.2893,63.3425
88.2636,63.3718
88.2286,63.3891
88.1897,63.3916
88.1527,63.3791
87.7760,63.1616
87.7467,63.1358
87.7294,63.1009
87.7269,63.0619
87.7394,63.0250
87.8394,62.8518
87.8651,62.8224
87.9001,62.8052
87.9391,62.8026
87.9760,62.8152
88.3527,63.0327
88.3821,63.0584
88.3993,63.0934
88.4019,63.1323
88.3893,63.1693
Z" /> 
</g>
<g >
</g>
<g style="fill:#000000; fill-opacity:1.0000; 
stroke:#000000; stroke-width:0.0000; stroke-opacity:1; 
stroke-linecap:round; stroke-linejoin:round;">
<path style="fill:#000000; fill-opacity:1.0000; 
stroke:#000000; stroke-width:0.0000; stroke-opacity:1; 
stroke-linecap:round; stroke-linejoin:round;fill-rule:evenodd;"
d="M 74.9768,68.3004
74.5438,68.0504
74.7938,67.6174
75.2268,67.8674
Z" /> 
<path style="fill:#000000; fill-opacity:1.0000; 
stroke:#000000; stroke-width:0.0000; stroke-opacity:1; 
stroke-linecap:round; stroke-linejoin:round;fill-rule:evenodd;"
d="M 75.7562,68.7504
75.3232,68.5004
75.5732,68.0674
76.0062,68.3174
Z" /> 
<path style="fill:#000000; fill-opacity:1.0000; 
stroke:#000000; stroke-width:0.0000; stroke-opacity:1; 
stroke-linecap:round; stroke-linejoin:round;fill-rule:evenodd;"
d="M 76.2062,67.9710
75.7732,67.7210
76.0232,67.2880
76.4562,67.5380
Z" /> 
<path style="fill:#000000; fill-opacity:1.0000; 
stroke:#000000; stroke-width:0.0000; stroke-opacity:1; 
stroke-linecap:round; stroke-linejoin:round;fill-rule:evenodd;"
d="M 75.4268,67.5210
74.9938,67.2710
75.2438,66.8380
75.6768,67.0880
Z" /> 
</g>
<g >
</g>
<g style="fill:#000000; fill-opacity:1.0000; 
stroke:#000000; stroke-width:0.0000; stroke-opacity:1; 
stroke-linecap:round; stroke-linejoin:round;">
<path style="fill:#000000; fill-opacity:1.0000; 
stroke:#000000; stroke-width:0.0000; stroke-opacity:1; 
stroke-linecap:round; stroke-linejoin:round;fill-rule:evenodd;"
d="M 85.0232,51.6996
85.4562,51.9496
85.2062,52.3826
84.7732,52.1326
Z" /> 
<path style="fill:#000000; fill-opacity:1.0000; 
stroke:#000000; stroke-width:0.0000; stroke-opacity:1; 
stroke-linecap:round; stroke-linejoin:round;fill-rule:evenodd;"
d="M 84.2438,51.2496
84.6768,51.4996
84.4268,51.9326
83.9938,51.6826
Z" /> 
<path style="fill:#000000; fill-opacity:1.0000; 
stroke:#000000; stroke-width:0.0000; stroke-opacity:1; 
stroke-linecap:round; stroke-linejoin:round;fill-rule:evenodd;"
d="M 83.7938,52.0290
84.2268,52.2790
83.9768,52.7120
83.5438,52.4620
Z" /> 
<path style="fill:#000000; fill-opacity:1.0000; 
stroke:#000000; stroke-width:0.0000; stroke-opacity:1; 
stroke-linecap:round; stroke-linejoin:round;fill-rule:evenodd;"
d="M 84.5732,52.4790
85.0062,52.7290
84.7562,53.1620
84.3232,52.9120
Z" /> 
</g>
<g >
</g>
<g style="fill:#000000; fill-opacity:1.0000; 
stroke:#000000; stroke-width:0.0000; stroke-opacity:1; 
stroke-linecap:round; stroke-linejoin:round;">
<path style="fill:#000000; fill-opacity:1.0000; 
stroke:#000000; stroke-width:0.0000; stroke-opacity:1; 
stroke-linecap:round; stroke-linejoin:round;fill-rule:evenodd;"
d="M 89.6350,61.7800
89.6274,61.8183
89.6057,61.8507
89.5733,61.8724
89.5350,61.8800
89.1000,61.8800
89.0617,61.8724
89.0293,61.8507
89.0076,61.8183
89.0000,61.7800
89.0000,61.5800
89.0076,61.5417
89.0293,61.5093
89.0617,61.4876
89.1000,61.4800
89.5350,61.4800
89.5733,61.4876
89.6057,61.5093
89.6274,61.5417
89.6350,61.5800
Z" /> 
<path style="fill:#000000; fill-opacity:1.0000; 
stroke:#000000; stroke-width:0.0000; stroke-opacity:1; 
stroke-linecap:round; stroke-linejoin:round;fill-rule:evenodd;"
d="M 88.8200,61.7800
88.8124,61.8183
88.7907,61.8507
88.7583,61.8724
88.7200,61.8800
88.2850,61.8800
88.2467,61.8724
88.2143,61.8507
88.1926,61.8183
88.1850,61.7800
88.1850,61.5800
88.1926,61.5417
88.2143,61.5093
88.2467,61.4876
88.2850,61.4800
88.7200,61.4800
88.7583,61.4876
88.7907,61.5093
88.8124,61.5417
88.8200,61.5800
Z" /> 
</g>
<g >
</g>
<g style="fill:#000000; fill-opacity:1.0000; 
stroke:#000000; stroke-width:0.0000; stroke-opacity:1; 
stroke-linecap:round; stroke-linejoin:round;">
<circle cx="70.0000" cy="70.0000" r="1.1000" /> 
</g>
<g style="fill:#000000; fill-opacity:1.0000; 
stroke:#000000; stroke-width:0.0212; stroke-opacity:1; 
stroke-linecap:round; stroke-linejoin:round;">
</g>
<g >
</g>
<g style="fill:#000000; fill-opacity:1.0000; 
stroke:#000000; stroke-width:0.0212; stroke-opacity:1; 
stroke-linecap:round; stroke-linejoin:round;">
</g>
<g style="fill:#000000; fill-opacity:1.0000; 
stroke:#000000; stroke-width:0.0000; stroke-opacity:1; 
stroke-linecap:round; stroke-linejoin:round;">
<path style="fill:#000000; fill-opacity:1.0000; 
stroke:#000000; stroke-width:0.0000; stroke-opacity:1; 
stroke-linecap:round; stroke-linejoin:round;fill-rule:evenodd;"
d="M 83.7500,51.0049
83.7793,51.0306
83.7966,51.0656
83.7991,51.1045
83.7866,51.1415
83.5691,51.5182
83.5433,51.5475
83.5084,51.5648
83.4694,51.5673
83.4325,51.5548
83.2593,51.4548
83.2299,51.4291
83.2127,51.3941
83.2101,51.3551
83.2227,51.3182
83.4402,50.9415
83.4659,50.9121
83.5009,50.8949
83.5398,50.8923
83.5768,50.9049
Z" /> 
<path style="fill:#000000; fill-opacity:1.0000; 
stroke:#000000; stroke-width:0.0000; stroke-opacity:1; 
stroke-linecap:round; stroke-linejoin:round;fill-rule:evenodd;"
d="M 83.3425,51.7107
83.3718,51.7364
83.3891,51.7714
83.3916,51.8103
83.3791,51.8473
83.1616,52.2240
83.1358,52.2533
83.1009,52.2706
83.0619,52.2731
83.0250,52.2606
82.8518,52.1606
82.8224,52.1349
82.8052,52.0999
82.8026,52.0609
82.8152,52.0240
83.0327,51.6473
83.0584,51.6179
83.0934,51.6007
83.1323,51.5981
83.1693,51.6107
Z" /> 
</g>
<g >
</g>
<g >
</g>
<g >
</g>
<g >
</g>
<g >
</g>
</g> 
</svg>
