<?xml version="1.0" standalone="no"?>
 <!DOCTYPE svg PUBLIC "-//W3C//DTD SVG 1.1//EN" 
 "http://www.w3.org/Graphics/SVG/1.1/DTD/svg11.dtd"> 
<svg
  xmlns:svg="http://www.w3.org/2000/svg"
  xmlns="http://www.w3.org/2000/svg"
  xmlns:xlink="http://www.w3.org/1999/xlink"
  version="1.1"
  width="297.0022mm" height="210.0072mm" viewBox="0.0000 0.0000 297.0022 210.0072">
<title>SVG Image created as pedalboard-led-ring-F_Mask.svg date 2023/06/02 17:37:27 </title>
  <desc>Image generated by PCBNEW </desc>
<g style="fill:#000000; fill-opacity:1.0000;stroke:#000000; stroke-opacity:1.0000;
stroke-linecap:round; stroke-linejoin:round;"
 transform="translate(0 0) scale(1 1)">
</g>
<g style="fill:#000000; fill-opacity:0.0; 
stroke:#000000; stroke-width:0.0000; stroke-opacity:1; 
stroke-linecap:round; stroke-linejoin:round;">
<g >
</g>
<g style="fill:#000000; fill-opacity:0.0; 
stroke:#000000; stroke-width:0.0000; stroke-opacity:1; 
stroke-linecap:round; stroke-linejoin:round;">
</g>
<g style="fill:#000000; fill-opacity:1.0000; 
stroke:#000000; stroke-width:0.0000; stroke-opacity:1; 
stroke-linecap:round; stroke-linejoin:round;">
<path style="fill:#000000; fill-opacity:1.0000; 
stroke:#000000; stroke-width:0.0000; stroke-opacity:1; 
stroke-linecap:round; stroke-linejoin:round;fill-rule:evenodd;"
d="M 71.3125,65.8529
71.2756,65.8654
71.2367,65.8629
71.2017,65.8456
71.1759,65.8163
70.9584,65.4395
70.9459,65.4026
70.9484,65.3637
70.9657,65.3287
70.9950,65.3029
71.1682,65.2029
71.2052,65.1904
71.2441,65.1930
71.2791,65.2102
71.3048,65.2395
71.5223,65.6163
71.5349,65.6532
71.5323,65.6921
71.5151,65.7271
71.4857,65.7529
Z" /> 
<path style="fill:#000000; fill-opacity:1.0000; 
stroke:#000000; stroke-width:0.0000; stroke-opacity:1; 
stroke-linecap:round; stroke-linejoin:round;fill-rule:evenodd;"
d="M 70.9050,65.1471
70.8681,65.1596
70.8292,65.1570
70.7942,65.1398
70.7684,65.1105
70.5509,64.7337
70.5384,64.6968
70.5409,64.6579
70.5582,64.6229
70.5875,64.5971
70.7607,64.4971
70.7977,64.4846
70.8366,64.4871
70.8716,64.5044
70.8973,64.5337
71.1148,64.9105
71.1274,64.9474
71.1248,64.9863
71.1076,65.0213
71.0782,65.0471
Z" /> 
</g>
<g >
</g>
<g style="fill:#000000; fill-opacity:1.0000; 
stroke:#000000; stroke-width:0.0000; stroke-opacity:1; 
stroke-linecap:round; stroke-linejoin:round;">
<path style="fill:#000000; fill-opacity:1.0000; 
stroke:#000000; stroke-width:0.0000; stroke-opacity:1; 
stroke-linecap:round; stroke-linejoin:round;fill-rule:evenodd;"
d="M 84.3232,67.0880
84.7562,66.8380
85.0062,67.2710
84.5732,67.5210
Z" /> 
<path style="fill:#000000; fill-opacity:1.0000; 
stroke:#000000; stroke-width:0.0000; stroke-opacity:1; 
stroke-linecap:round; stroke-linejoin:round;fill-rule:evenodd;"
d="M 83.5438,67.5380
83.9768,67.2880
84.2268,67.7210
83.7938,67.9710
Z" /> 
<path style="fill:#000000; fill-opacity:1.0000; 
stroke:#000000; stroke-width:0.0000; stroke-opacity:1; 
stroke-linecap:round; stroke-linejoin:round;fill-rule:evenodd;"
d="M 83.9938,68.3174
84.4268,68.0674
84.6768,68.5004
84.2438,68.7504
Z" /> 
<path style="fill:#000000; fill-opacity:1.0000; 
stroke:#000000; stroke-width:0.0000; stroke-opacity:1; 
stroke-linecap:round; stroke-linejoin:round;fill-rule:evenodd;"
d="M 84.7732,67.8674
85.2062,67.6174
85.4562,68.0504
85.0232,68.3004
Z" /> 
</g>
<g >
</g>
<g style="fill:#000000; fill-opacity:1.0000; 
stroke:#000000; stroke-width:0.0000; stroke-opacity:1; 
stroke-linecap:round; stroke-linejoin:round;">
<path style="fill:#000000; fill-opacity:1.0000; 
stroke:#000000; stroke-width:0.0000; stroke-opacity:1; 
stroke-linecap:round; stroke-linejoin:round;fill-rule:evenodd;"
d="M 88.3000,59.8000
88.3000,59.3000
88.8000,59.3000
88.8000,59.8000
Z" /> 
<path style="fill:#000000; fill-opacity:1.0000; 
stroke:#000000; stroke-width:0.0000; stroke-opacity:1; 
stroke-linecap:round; stroke-linejoin:round;fill-rule:evenodd;"
d="M 88.3000,60.7000
88.3000,60.2000
88.8000,60.2000
88.8000,60.7000
Z" /> 
<path style="fill:#000000; fill-opacity:1.0000; 
stroke:#000000; stroke-width:0.0000; stroke-opacity:1; 
stroke-linecap:round; stroke-linejoin:round;fill-rule:evenodd;"
d="M 89.2000,60.7000
89.2000,60.2000
89.7000,60.2000
89.7000,60.7000
Z" /> 
<path style="fill:#000000; fill-opacity:1.0000; 
stroke:#000000; stroke-width:0.0000; stroke-opacity:1; 
stroke-linecap:round; stroke-linejoin:round;fill-rule:evenodd;"
d="M 89.2000,59.8000
89.2000,59.3000
89.7000,59.3000
89.7000,59.8000
Z" /> 
</g>
<g >
</g>
<g style="fill:#000000; fill-opacity:1.0000; 
stroke:#000000; stroke-width:0.0000; stroke-opacity:1; 
stroke-linecap:round; stroke-linejoin:round;">
<path style="fill:#000000; fill-opacity:1.0000; 
stroke:#000000; stroke-width:0.0000; stroke-opacity:1; 
stroke-linecap:round; stroke-linejoin:round;fill-rule:evenodd;"
d="M 79.8000,51.7000
79.3000,51.7000
79.3000,51.2000
79.8000,51.2000
Z" /> 
<path style="fill:#000000; fill-opacity:1.0000; 
stroke:#000000; stroke-width:0.0000; stroke-opacity:1; 
stroke-linecap:round; stroke-linejoin:round;fill-rule:evenodd;"
d="M 80.7000,51.7000
80.2000,51.7000
80.2000,51.2000
80.7000,51.2000
Z" /> 
<path style="fill:#000000; fill-opacity:1.0000; 
stroke:#000000; stroke-width:0.0000; stroke-opacity:1; 
stroke-linecap:round; stroke-linejoin:round;fill-rule:evenodd;"
d="M 80.7000,50.8000
80.2000,50.8000
80.2000,50.3000
80.7000,50.3000
Z" /> 
<path style="fill:#000000; fill-opacity:1.0000; 
stroke:#000000; stroke-width:0.0000; stroke-opacity:1; 
stroke-linecap:round; stroke-linejoin:round;fill-rule:evenodd;"
d="M 79.8000,50.8000
79.3000,50.8000
79.3000,50.3000
79.8000,50.3000
Z" /> 
</g>
<g >
</g>
<g style="fill:#000000; fill-opacity:1.0000; 
stroke:#000000; stroke-width:0.0000; stroke-opacity:1; 
stroke-linecap:round; stroke-linejoin:round;">
<path style="fill:#000000; fill-opacity:1.0000; 
stroke:#000000; stroke-width:0.0000; stroke-opacity:1; 
stroke-linecap:round; stroke-linejoin:round;fill-rule:evenodd;"
d="M 87.2880,63.9768
87.5380,63.5438
87.9710,63.7938
87.7210,64.2268
Z" /> 
<path style="fill:#000000; fill-opacity:1.0000; 
stroke:#000000; stroke-width:0.0000; stroke-opacity:1; 
stroke-linecap:round; stroke-linejoin:round;fill-rule:evenodd;"
d="M 86.8380,64.7562
87.0880,64.3232
87.5210,64.5732
87.2710,65.0062
Z" /> 
<path style="fill:#000000; fill-opacity:1.0000; 
stroke:#000000; stroke-width:0.0000; stroke-opacity:1; 
stroke-linecap:round; stroke-linejoin:round;fill-rule:evenodd;"
d="M 87.6174,65.2062
87.8674,64.7732
88.3004,65.0232
88.0504,65.4562
Z" /> 
<path style="fill:#000000; fill-opacity:1.0000; 
stroke:#000000; stroke-width:0.0000; stroke-opacity:1; 
stroke-linecap:round; stroke-linejoin:round;fill-rule:evenodd;"
d="M 88.0674,64.4268
88.3174,63.9938
88.7504,64.2438
88.5004,64.6768
Z" /> 
</g>
<g >
</g>
<g style="fill:#000000; fill-opacity:1.0000; 
stroke:#000000; stroke-width:0.0000; stroke-opacity:1; 
stroke-linecap:round; stroke-linejoin:round;">
<path style="fill:#000000; fill-opacity:1.0000; 
stroke:#000000; stroke-width:0.0000; stroke-opacity:1; 
stroke-linecap:round; stroke-linejoin:round;fill-rule:evenodd;"
d="M 72.9120,64.3232
73.1620,64.7562
72.7290,65.0062
72.4790,64.5732
Z" /> 
<path style="fill:#000000; fill-opacity:1.0000; 
stroke:#000000; stroke-width:0.0000; stroke-opacity:1; 
stroke-linecap:round; stroke-linejoin:round;fill-rule:evenodd;"
d="M 72.4620,63.5438
72.7120,63.9768
72.2790,64.2268
72.0290,63.7938
Z" /> 
<path style="fill:#000000; fill-opacity:1.0000; 
stroke:#000000; stroke-width:0.0000; stroke-opacity:1; 
stroke-linecap:round; stroke-linejoin:round;fill-rule:evenodd;"
d="M 71.6826,63.9938
71.9326,64.4268
71.4996,64.6768
71.2496,64.2438
Z" /> 
<path style="fill:#000000; fill-opacity:1.0000; 
stroke:#000000; stroke-width:0.0000; stroke-opacity:1; 
stroke-linecap:round; stroke-linejoin:round;fill-rule:evenodd;"
d="M 72.1326,64.7732
72.3826,65.2062
71.9496,65.4562
71.6996,65.0232
Z" /> 
</g>
<g >
</g>
<g style="fill:#000000; fill-opacity:1.0000; 
stroke:#000000; stroke-width:0.0000; stroke-opacity:1; 
stroke-linecap:round; stroke-linejoin:round;">
<circle cx="68.0000" cy="48.0000" r="1.1000" /> 
</g>
<g style="fill:#000000; fill-opacity:1.0000; 
stroke:#000000; stroke-width:0.0212; stroke-opacity:1; 
stroke-linecap:round; stroke-linejoin:round;">
</g>
<g >
</g>
<g style="fill:#000000; fill-opacity:1.0000; 
stroke:#000000; stroke-width:0.0212; stroke-opacity:1; 
stroke-linecap:round; stroke-linejoin:round;">
</g>
<g style="fill:#000000; fill-opacity:1.0000; 
stroke:#000000; stroke-width:0.0000; stroke-opacity:1; 
stroke-linecap:round; stroke-linejoin:round;">
<path style="fill:#000000; fill-opacity:1.0000; 
stroke:#000000; stroke-width:0.0000; stroke-opacity:1; 
stroke-linecap:round; stroke-linejoin:round;fill-rule:evenodd;"
d="M 80.2000,68.3000
80.7000,68.3000
80.7000,68.8000
80.2000,68.8000
Z" /> 
<path style="fill:#000000; fill-opacity:1.0000; 
stroke:#000000; stroke-width:0.0000; stroke-opacity:1; 
stroke-linecap:round; stroke-linejoin:round;fill-rule:evenodd;"
d="M 79.3000,68.3000
79.8000,68.3000
79.8000,68.8000
79.3000,68.8000
Z" /> 
<path style="fill:#000000; fill-opacity:1.0000; 
stroke:#000000; stroke-width:0.0000; stroke-opacity:1; 
stroke-linecap:round; stroke-linejoin:round;fill-rule:evenodd;"
d="M 79.3000,69.2000
79.8000,69.2000
79.8000,69.7000
79.3000,69.7000
Z" /> 
<path style="fill:#000000; fill-opacity:1.0000; 
stroke:#000000; stroke-width:0.0000; stroke-opacity:1; 
stroke-linecap:round; stroke-linejoin:round;fill-rule:evenodd;"
d="M 80.2000,69.2000
80.7000,69.2000
80.7000,69.7000
80.2000,69.7000
Z" /> 
</g>
<g >
</g>
<g style="fill:#000000; fill-opacity:1.0000; 
stroke:#000000; stroke-width:0.0000; stroke-opacity:1; 
stroke-linecap:round; stroke-linejoin:round;">
<path style="fill:#000000; fill-opacity:1.0000; 
stroke:#000000; stroke-width:0.0000; stroke-opacity:1; 
stroke-linecap:round; stroke-linejoin:round;fill-rule:evenodd;"
d="M 85.8529,68.6875
85.8654,68.7244
85.8629,68.7633
85.8456,68.7983
85.8163,68.8241
85.4395,69.0416
85.4026,69.0541
85.3637,69.0516
85.3287,69.0343
85.3029,69.0050
85.2029,68.8318
85.1904,68.7948
85.1930,68.7559
85.2102,68.7209
85.2395,68.6952
85.6163,68.4777
85.6532,68.4651
85.6921,68.4677
85.7271,68.4849
85.7529,68.5143
Z" /> 
<path style="fill:#000000; fill-opacity:1.0000; 
stroke:#000000; stroke-width:0.0000; stroke-opacity:1; 
stroke-linecap:round; stroke-linejoin:round;fill-rule:evenodd;"
d="M 85.1471,69.0950
85.1596,69.1319
85.1570,69.1708
85.1398,69.2058
85.1105,69.2316
84.7337,69.4491
84.6968,69.4616
84.6579,69.4591
84.6229,69.4418
84.5971,69.4125
84.4971,69.2393
84.4846,69.2023
84.4871,69.1634
84.5044,69.1284
84.5337,69.1027
84.9105,68.8852
84.9474,68.8726
84.9863,68.8752
85.0213,68.8924
85.0471,68.9218
Z" /> 
</g>
<g >
</g>
<g style="fill:#000000; fill-opacity:1.0000; 
stroke:#000000; stroke-width:0.0000; stroke-opacity:1; 
stroke-linecap:round; stroke-linejoin:round;">
<path style="fill:#000000; fill-opacity:1.0000; 
stroke:#000000; stroke-width:0.0000; stroke-opacity:1; 
stroke-linecap:round; stroke-linejoin:round;fill-rule:evenodd;"
d="M 71.7000,60.2000
71.7000,60.7000
71.2000,60.7000
71.2000,60.2000
Z" /> 
<path style="fill:#000000; fill-opacity:1.0000; 
stroke:#000000; stroke-width:0.0000; stroke-opacity:1; 
stroke-linecap:round; stroke-linejoin:round;fill-rule:evenodd;"
d="M 71.7000,59.3000
71.7000,59.8000
71.2000,59.8000
71.2000,59.3000
Z" /> 
<path style="fill:#000000; fill-opacity:1.0000; 
stroke:#000000; stroke-width:0.0000; stroke-opacity:1; 
stroke-linecap:round; stroke-linejoin:round;fill-rule:evenodd;"
d="M 70.8000,59.3000
70.8000,59.8000
70.3000,59.8000
70.3000,59.3000
Z" /> 
<path style="fill:#000000; fill-opacity:1.0000; 
stroke:#000000; stroke-width:0.0000; stroke-opacity:1; 
stroke-linecap:round; stroke-linejoin:round;fill-rule:evenodd;"
d="M 70.8000,60.2000
70.8000,60.7000
70.3000,60.7000
70.3000,60.2000
Z" /> 
</g>
<g >
</g>
<g style="fill:#000000; fill-opacity:1.0000; 
stroke:#000000; stroke-width:0.0000; stroke-opacity:1; 
stroke-linecap:round; stroke-linejoin:round;">
<path style="fill:#000000; fill-opacity:1.0000; 
stroke:#000000; stroke-width:0.0000; stroke-opacity:1; 
stroke-linecap:round; stroke-linejoin:round;fill-rule:evenodd;"
d="M 72.7120,56.0232
72.4620,56.4562
72.0290,56.2062
72.2790,55.7732
Z" /> 
<path style="fill:#000000; fill-opacity:1.0000; 
stroke:#000000; stroke-width:0.0000; stroke-opacity:1; 
stroke-linecap:round; stroke-linejoin:round;fill-rule:evenodd;"
d="M 73.1620,55.2438
72.9120,55.6768
72.4790,55.4268
72.7290,54.9938
Z" /> 
<path style="fill:#000000; fill-opacity:1.0000; 
stroke:#000000; stroke-width:0.0000; stroke-opacity:1; 
stroke-linecap:round; stroke-linejoin:round;fill-rule:evenodd;"
d="M 72.3826,54.7938
72.1326,55.2268
71.6996,54.9768
71.9496,54.5438
Z" /> 
<path style="fill:#000000; fill-opacity:1.0000; 
stroke:#000000; stroke-width:0.0000; stroke-opacity:1; 
stroke-linecap:round; stroke-linejoin:round;fill-rule:evenodd;"
d="M 71.9326,55.5732
71.6826,56.0062
71.2496,55.7562
71.4996,55.3232
Z" /> 
</g>
<g >
</g>
<g style="fill:#000000; fill-opacity:1.0000; 
stroke:#000000; stroke-width:0.0000; stroke-opacity:1; 
stroke-linecap:round; stroke-linejoin:round;">
<path style="fill:#000000; fill-opacity:1.0000; 
stroke:#000000; stroke-width:0.0000; stroke-opacity:1; 
stroke-linecap:round; stroke-linejoin:round;fill-rule:evenodd;"
d="M 88.6209,65.5779
88.5916,65.5521
88.5743,65.5171
88.5718,65.4782
88.5843,65.4413
88.8018,65.0645
88.8275,65.0352
88.8625,65.0180
88.9014,65.0154
88.9384,65.0279
89.1116,65.1279
89.1409,65.1537
89.1582,65.1887
89.1607,65.2276
89.1482,65.2645
88.9307,65.6413
88.9050,65.6706
88.8700,65.6879
88.8310,65.6904
88.7941,65.6779
Z" /> 
<path style="fill:#000000; fill-opacity:1.0000; 
stroke:#000000; stroke-width:0.0000; stroke-opacity:1; 
stroke-linecap:round; stroke-linejoin:round;fill-rule:evenodd;"
d="M 89.0284,64.8721
88.9991,64.8463
88.9818,64.8113
88.9793,64.7724
88.9918,64.7355
89.2093,64.3587
89.2350,64.3294
89.2700,64.3121
89.3089,64.3096
89.3459,64.3221
89.5191,64.4221
89.5484,64.4479
89.5657,64.4829
89.5682,64.5218
89.5557,64.5587
89.3382,64.9355
89.3125,64.9648
89.2775,64.9820
89.2385,64.9846
89.2016,64.9721
Z" /> 
</g>
<g >
</g>
<g style="fill:#000000; fill-opacity:1.0000; 
stroke:#000000; stroke-width:0.0000; stroke-opacity:1; 
stroke-linecap:round; stroke-linejoin:round;">
<circle cx="92.0000" cy="48.0000" r="1.1000" /> 
</g>
<g style="fill:#000000; fill-opacity:1.0000; 
stroke:#000000; stroke-width:0.0212; stroke-opacity:1; 
stroke-linecap:round; stroke-linejoin:round;">
</g>
<g >
</g>
<g style="fill:#000000; fill-opacity:1.0000; 
stroke:#000000; stroke-width:0.0212; stroke-opacity:1; 
stroke-linecap:round; stroke-linejoin:round;">
</g>
<g style="fill:#000000; fill-opacity:1.0000; 
stroke:#000000; stroke-width:0.0000; stroke-opacity:1; 
stroke-linecap:round; stroke-linejoin:round;">
<path style="fill:#000000; fill-opacity:1.0000; 
stroke:#000000; stroke-width:0.0000; stroke-opacity:1; 
stroke-linecap:round; stroke-linejoin:round;fill-rule:evenodd;"
d="M 70.5875,55.4029
70.5582,55.3771
70.5409,55.3421
70.5384,55.3032
70.5509,55.2663
70.7684,54.8895
70.7942,54.8602
70.8292,54.8430
70.8681,54.8404
70.9050,54.8529
71.0782,54.9529
71.1076,54.9787
71.1248,55.0137
71.1274,55.0526
71.1148,55.0895
70.8973,55.4663
70.8716,55.4956
70.8366,55.5129
70.7977,55.5154
70.7607,55.5029
Z" /> 
<path style="fill:#000000; fill-opacity:1.0000; 
stroke:#000000; stroke-width:0.0000; stroke-opacity:1; 
stroke-linecap:round; stroke-linejoin:round;fill-rule:evenodd;"
d="M 70.9950,54.6971
70.9657,54.6713
70.9484,54.6363
70.9459,54.5974
70.9584,54.5605
71.1759,54.1837
71.2017,54.1544
71.2367,54.1371
71.2756,54.1346
71.3125,54.1471
71.4857,54.2471
71.5151,54.2729
71.5323,54.3079
71.5349,54.3468
71.5223,54.3837
71.3048,54.7605
71.2791,54.7898
71.2441,54.8070
71.2052,54.8096
71.1682,54.7971
Z" /> 
</g>
<g >
</g>
<g >
</g>
<g style="fill:#000000; fill-opacity:1.0000; 
stroke:#000000; stroke-width:0.0000; stroke-opacity:1; 
stroke-linecap:round; stroke-linejoin:round;">
<path style="fill:#000000; fill-opacity:1.0000; 
stroke:#000000; stroke-width:0.0000; stroke-opacity:1; 
stroke-linecap:round; stroke-linejoin:round;fill-rule:evenodd;"
d="M 75.4029,69.4125
75.3771,69.4418
75.3421,69.4591
75.3032,69.4616
75.2663,69.4491
74.8895,69.2316
74.8602,69.2058
74.8430,69.1708
74.8404,69.1319
74.8529,69.0950
74.9529,68.9218
74.9787,68.8924
75.0137,68.8752
75.0526,68.8726
75.0895,68.8852
75.4663,69.1027
75.4956,69.1284
75.5129,69.1634
75.5154,69.2023
75.5029,69.2393
Z" /> 
<path style="fill:#000000; fill-opacity:1.0000; 
stroke:#000000; stroke-width:0.0000; stroke-opacity:1; 
stroke-linecap:round; stroke-linejoin:round;fill-rule:evenodd;"
d="M 74.6971,69.0050
74.6713,69.0343
74.6363,69.0516
74.5974,69.0541
74.5605,69.0416
74.1837,68.8241
74.1544,68.7983
74.1371,68.7633
74.1346,68.7244
74.1471,68.6875
74.2471,68.5143
74.2729,68.4849
74.3079,68.4677
74.3468,68.4651
74.3837,68.4777
74.7605,68.6952
74.7898,68.7209
74.8070,68.7559
74.8096,68.7948
74.7971,68.8318
Z" /> 
</g>
<g >
</g>
<g style="fill:#000000; fill-opacity:1.0000; 
stroke:#000000; stroke-width:0.0000; stroke-opacity:1; 
stroke-linecap:round; stroke-linejoin:round;">
<path style="fill:#000000; fill-opacity:1.0000; 
stroke:#000000; stroke-width:0.0000; stroke-opacity:1; 
stroke-linecap:round; stroke-linejoin:round;fill-rule:evenodd;"
d="M 69.5500,60.7250
69.5117,60.7174
69.4793,60.6957
69.4576,60.6633
69.4500,60.6250
69.4500,60.1900
69.4576,60.1517
69.4793,60.1193
69.5117,60.0976
69.5500,60.0900
69.7500,60.0900
69.7883,60.0976
69.8207,60.1193
69.8424,60.1517
69.8500,60.1900
69.8500,60.6250
69.8424,60.6633
69.8207,60.6957
69.7883,60.7174
69.7500,60.7250
Z" /> 
<path style="fill:#000000; fill-opacity:1.0000; 
stroke:#000000; stroke-width:0.0000; stroke-opacity:1; 
stroke-linecap:round; stroke-linejoin:round;fill-rule:evenodd;"
d="M 69.5500,59.9100
69.5117,59.9024
69.4793,59.8807
69.4576,59.8483
69.4500,59.8100
69.4500,59.3750
69.4576,59.3367
69.4793,59.3043
69.5117,59.2826
69.5500,59.2750
69.7500,59.2750
69.7883,59.2826
69.8207,59.3043
69.8424,59.3367
69.8500,59.3750
69.8500,59.8100
69.8424,59.8483
69.8207,59.8807
69.7883,59.9024
69.7500,59.9100
Z" /> 
</g>
<g >
</g>
<g style="fill:#000000; fill-opacity:1.0000; 
stroke:#000000; stroke-width:0.0000; stroke-opacity:1; 
stroke-linecap:round; stroke-linejoin:round;">
<path style="fill:#000000; fill-opacity:1.0000; 
stroke:#000000; stroke-width:0.0000; stroke-opacity:1; 
stroke-linecap:round; stroke-linejoin:round;fill-rule:evenodd;"
d="M 80.7250,70.4500
80.7174,70.4883
80.6957,70.5207
80.6633,70.5424
80.6250,70.5500
80.1900,70.5500
80.1517,70.5424
80.1193,70.5207
80.0976,70.4883
80.0900,70.4500
80.0900,70.2500
80.0976,70.2117
80.1193,70.1793
80.1517,70.1576
80.1900,70.1500
80.6250,70.1500
80.6633,70.1576
80.6957,70.1793
80.7174,70.2117
80.7250,70.2500
Z" /> 
<path style="fill:#000000; fill-opacity:1.0000; 
stroke:#000000; stroke-width:0.0000; stroke-opacity:1; 
stroke-linecap:round; stroke-linejoin:round;fill-rule:evenodd;"
d="M 79.9100,70.4500
79.9024,70.4883
79.8807,70.5207
79.8483,70.5424
79.8100,70.5500
79.3750,70.5500
79.3367,70.5424
79.3043,70.5207
79.2826,70.4883
79.2750,70.4500
79.2750,70.2500
79.2826,70.2117
79.3043,70.1793
79.3367,70.1576
79.3750,70.1500
79.8100,70.1500
79.8483,70.1576
79.8807,70.1793
79.9024,70.2117
79.9100,70.2500
Z" /> 
</g>
<g >
</g>
<g style="fill:#000000; fill-opacity:1.0000; 
stroke:#000000; stroke-width:0.0000; stroke-opacity:1; 
stroke-linecap:round; stroke-linejoin:round;">
<path style="fill:#000000; fill-opacity:1.0000; 
stroke:#000000; stroke-width:0.0000; stroke-opacity:1; 
stroke-linecap:round; stroke-linejoin:round;fill-rule:evenodd;"
d="M 84.5971,50.5875
84.6229,50.5582
84.6579,50.5409
84.6968,50.5384
84.7337,50.5509
85.1105,50.7684
85.1398,50.7942
85.1570,50.8292
85.1596,50.8681
85.1471,50.9050
85.0471,51.0782
85.0213,51.1076
84.9863,51.1248
84.9474,51.1274
84.9105,51.1148
84.5337,50.8973
84.5044,50.8716
84.4871,50.8366
84.4846,50.7977
84.4971,50.7607
Z" /> 
<path style="fill:#000000; fill-opacity:1.0000; 
stroke:#000000; stroke-width:0.0000; stroke-opacity:1; 
stroke-linecap:round; stroke-linejoin:round;fill-rule:evenodd;"
d="M 85.3029,50.9950
85.3287,50.9657
85.3637,50.9484
85.4026,50.9459
85.4395,50.9584
85.8163,51.1759
85.8456,51.2017
85.8629,51.2367
85.8654,51.2756
85.8529,51.3125
85.7529,51.4857
85.7271,51.5151
85.6921,51.5323
85.6532,51.5349
85.6163,51.5223
85.2395,51.3048
85.2102,51.2791
85.1930,51.2441
85.1904,51.2052
85.2029,51.1682
Z" /> 
</g>
<g >
</g>
<g style="fill:#000000; fill-opacity:1.0000; 
stroke:#000000; stroke-width:0.0000; stroke-opacity:1; 
stroke-linecap:round; stroke-linejoin:round;">
<path style="fill:#000000; fill-opacity:1.0000; 
stroke:#000000; stroke-width:0.0000; stroke-opacity:1; 
stroke-linecap:round; stroke-linejoin:round;fill-rule:evenodd;"
d="M 88.6875,54.1471
88.7244,54.1346
88.7633,54.1371
88.7983,54.1544
88.8241,54.1837
89.0416,54.5605
89.0541,54.5974
89.0516,54.6363
89.0343,54.6713
89.0050,54.6971
88.8318,54.7971
88.7948,54.8096
88.7559,54.8070
88.7209,54.7898
88.6952,54.7605
88.4777,54.3837
88.4651,54.3468
88.4677,54.3079
88.4849,54.2729
88.5143,54.2471
Z" /> 
<path style="fill:#000000; fill-opacity:1.0000; 
stroke:#000000; stroke-width:0.0000; stroke-opacity:1; 
stroke-linecap:round; stroke-linejoin:round;fill-rule:evenodd;"
d="M 89.0950,54.8529
89.1319,54.8404
89.1708,54.8430
89.2058,54.8602
89.2316,54.8895
89.4491,55.2663
89.4616,55.3032
89.4591,55.3421
89.4418,55.3771
89.4125,55.4029
89.2393,55.5029
89.2023,55.5154
89.1634,55.5129
89.1284,55.4956
89.1027,55.4663
88.8852,55.0895
88.8726,55.0526
88.8752,55.0137
88.8924,54.9787
88.9218,54.9529
Z" /> 
</g>
<g >
</g>
<g style="fill:#000000; fill-opacity:1.0000; 
stroke:#000000; stroke-width:0.0000; stroke-opacity:1; 
stroke-linecap:round; stroke-linejoin:round;">
<path style="fill:#000000; fill-opacity:1.0000; 
stroke:#000000; stroke-width:0.0000; stroke-opacity:1; 
stroke-linecap:round; stroke-linejoin:round;fill-rule:evenodd;"
d="M 74.1471,51.3125
74.1346,51.2756
74.1371,51.2367
74.1544,51.2017
74.1837,51.1759
74.5605,50.9584
74.5974,50.9459
74.6363,50.9484
74.6713,50.9657
74.6971,50.9950
74.7971,51.1682
74.8096,51.2052
74.8070,51.2441
74.7898,51.2791
74.7605,51.3048
74.3837,51.5223
74.3468,51.5349
74.3079,51.5323
74.2729,51.5151
74.2471,51.4857
Z" /> 
<path style="fill:#000000; fill-opacity:1.0000; 
stroke:#000000; stroke-width:0.0000; stroke-opacity:1; 
stroke-linecap:round; stroke-linejoin:round;fill-rule:evenodd;"
d="M 74.8529,50.9050
74.8404,50.8681
74.8430,50.8292
74.8602,50.7942
74.8895,50.7684
75.2663,50.5509
75.3032,50.5384
75.3421,50.5409
75.3771,50.5582
75.4029,50.5875
75.5029,50.7607
75.5154,50.7977
75.5129,50.8366
75.4956,50.8716
75.4663,50.8973
75.0895,51.1148
75.0526,51.1274
75.0137,51.1248
74.9787,51.1076
74.9529,51.0782
Z" /> 
</g>
<g >
</g>
<g style="fill:#000000; fill-opacity:1.0000; 
stroke:#000000; stroke-width:0.0000; stroke-opacity:1; 
stroke-linecap:round; stroke-linejoin:round;">
<circle cx="68.0000" cy="72.0000" r="1.1000" /> 
</g>
<g style="fill:#000000; fill-opacity:1.0000; 
stroke:#000000; stroke-width:0.0212; stroke-opacity:1; 
stroke-linecap:round; stroke-linejoin:round;">
</g>
<g >
</g>
<g style="fill:#000000; fill-opacity:1.0000; 
stroke:#000000; stroke-width:0.0212; stroke-opacity:1; 
stroke-linecap:round; stroke-linejoin:round;">
</g>
<g style="fill:#000000; fill-opacity:1.0000; 
stroke:#000000; stroke-width:0.0000; stroke-opacity:1; 
stroke-linecap:round; stroke-linejoin:round;">
<path style="fill:#000000; fill-opacity:1.0000; 
stroke:#000000; stroke-width:0.0000; stroke-opacity:1; 
stroke-linecap:round; stroke-linejoin:round;fill-rule:evenodd;"
d="M 87.0880,55.6768
86.8380,55.2438
87.2710,54.9938
87.5210,55.4268
Z" /> 
<path style="fill:#000000; fill-opacity:1.0000; 
stroke:#000000; stroke-width:0.0000; stroke-opacity:1; 
stroke-linecap:round; stroke-linejoin:round;fill-rule:evenodd;"
d="M 87.5380,56.4562
87.2880,56.0232
87.7210,55.7732
87.9710,56.2062
Z" /> 
<path style="fill:#000000; fill-opacity:1.0000; 
stroke:#000000; stroke-width:0.0000; stroke-opacity:1; 
stroke-linecap:round; stroke-linejoin:round;fill-rule:evenodd;"
d="M 88.3174,56.0062
88.0674,55.5732
88.5004,55.3232
88.7504,55.7562
Z" /> 
<path style="fill:#000000; fill-opacity:1.0000; 
stroke:#000000; stroke-width:0.0000; stroke-opacity:1; 
stroke-linecap:round; stroke-linejoin:round;fill-rule:evenodd;"
d="M 87.8674,55.2268
87.6174,54.7938
88.0504,54.5438
88.3004,54.9768
Z" /> 
</g>
<g >
</g>
<g style="fill:#000000; fill-opacity:1.0000; 
stroke:#000000; stroke-width:0.0000; stroke-opacity:1; 
stroke-linecap:round; stroke-linejoin:round;">
<path style="fill:#000000; fill-opacity:1.0000; 
stroke:#000000; stroke-width:0.0000; stroke-opacity:1; 
stroke-linecap:round; stroke-linejoin:round;fill-rule:evenodd;"
d="M 90.4500,59.2750
90.4883,59.2826
90.5207,59.3043
90.5424,59.3367
90.5500,59.3750
90.5500,59.8100
90.5424,59.8483
90.5207,59.8807
90.4883,59.9024
90.4500,59.9100
90.2500,59.9100
90.2117,59.9024
90.1793,59.8807
90.1576,59.8483
90.1500,59.8100
90.1500,59.3750
90.1576,59.3367
90.1793,59.3043
90.2117,59.2826
90.2500,59.2750
Z" /> 
<path style="fill:#000000; fill-opacity:1.0000; 
stroke:#000000; stroke-width:0.0000; stroke-opacity:1; 
stroke-linecap:round; stroke-linejoin:round;fill-rule:evenodd;"
d="M 90.4500,60.0900
90.4883,60.0976
90.5207,60.1193
90.5424,60.1517
90.5500,60.1900
90.5500,60.6250
90.5424,60.6633
90.5207,60.6957
90.4883,60.7174
90.4500,60.7250
90.2500,60.7250
90.2117,60.7174
90.1793,60.6957
90.1576,60.6633
90.1500,60.6250
90.1500,60.1900
90.1576,60.1517
90.1793,60.1193
90.2117,60.0976
90.2500,60.0900
Z" /> 
</g>
<g >
</g>
<g style="fill:#000000; fill-opacity:1.0000; 
stroke:#000000; stroke-width:0.0000; stroke-opacity:1; 
stroke-linecap:round; stroke-linejoin:round;">
<path style="fill:#000000; fill-opacity:1.0000; 
stroke:#000000; stroke-width:0.0000; stroke-opacity:1; 
stroke-linecap:round; stroke-linejoin:round;fill-rule:evenodd;"
d="M 75.6768,52.9120
75.2438,53.1620
74.9938,52.7290
75.4268,52.4790
Z" /> 
<path style="fill:#000000; fill-opacity:1.0000; 
stroke:#000000; stroke-width:0.0000; stroke-opacity:1; 
stroke-linecap:round; stroke-linejoin:round;fill-rule:evenodd;"
d="M 76.4562,52.4620
76.0232,52.7120
75.7732,52.2790
76.2062,52.0290
Z" /> 
<path style="fill:#000000; fill-opacity:1.0000; 
stroke:#000000; stroke-width:0.0000; stroke-opacity:1; 
stroke-linecap:round; stroke-linejoin:round;fill-rule:evenodd;"
d="M 76.0062,51.6826
75.5732,51.9326
75.3232,51.4996
75.7562,51.2496
Z" /> 
<path style="fill:#000000; fill-opacity:1.0000; 
stroke:#000000; stroke-width:0.0000; stroke-opacity:1; 
stroke-linecap:round; stroke-linejoin:round;fill-rule:evenodd;"
d="M 75.2268,52.1326
74.7938,52.3826
74.5438,51.9496
74.9768,51.6996
Z" /> 
</g>
<g >
</g>
<g style="fill:#000000; fill-opacity:1.0000; 
stroke:#000000; stroke-width:0.0000; stroke-opacity:1; 
stroke-linecap:round; stroke-linejoin:round;">
<path style="fill:#000000; fill-opacity:1.0000; 
stroke:#000000; stroke-width:0.0000; stroke-opacity:1; 
stroke-linecap:round; stroke-linejoin:round;fill-rule:evenodd;"
d="M 76.0232,67.2880
76.4562,67.5380
76.2062,67.9710
75.7732,67.7210
Z" /> 
<path style="fill:#000000; fill-opacity:1.0000; 
stroke:#000000; stroke-width:0.0000; stroke-opacity:1; 
stroke-linecap:round; stroke-linejoin:round;fill-rule:evenodd;"
d="M 75.2438,66.8380
75.6768,67.0880
75.4268,67.5210
74.9938,67.2710
Z" /> 
<path style="fill:#000000; fill-opacity:1.0000; 
stroke:#000000; stroke-width:0.0000; stroke-opacity:1; 
stroke-linecap:round; stroke-linejoin:round;fill-rule:evenodd;"
d="M 74.7938,67.6174
75.2268,67.8674
74.9768,68.3004
74.5438,68.0504
Z" /> 
<path style="fill:#000000; fill-opacity:1.0000; 
stroke:#000000; stroke-width:0.0000; stroke-opacity:1; 
stroke-linecap:round; stroke-linejoin:round;fill-rule:evenodd;"
d="M 75.5732,68.0674
76.0062,68.3174
75.7562,68.7504
75.3232,68.5004
Z" /> 
</g>
<g >
</g>
<g style="fill:#000000; fill-opacity:1.0000; 
stroke:#000000; stroke-width:0.0000; stroke-opacity:1; 
stroke-linecap:round; stroke-linejoin:round;">
<path style="fill:#000000; fill-opacity:1.0000; 
stroke:#000000; stroke-width:0.0000; stroke-opacity:1; 
stroke-linecap:round; stroke-linejoin:round;fill-rule:evenodd;"
d="M 83.9768,52.7120
83.5438,52.4620
83.7938,52.0290
84.2268,52.2790
Z" /> 
<path style="fill:#000000; fill-opacity:1.0000; 
stroke:#000000; stroke-width:0.0000; stroke-opacity:1; 
stroke-linecap:round; stroke-linejoin:round;fill-rule:evenodd;"
d="M 84.7562,53.1620
84.3232,52.9120
84.5732,52.4790
85.0062,52.7290
Z" /> 
<path style="fill:#000000; fill-opacity:1.0000; 
stroke:#000000; stroke-width:0.0000; stroke-opacity:1; 
stroke-linecap:round; stroke-linejoin:round;fill-rule:evenodd;"
d="M 85.2062,52.3826
84.7732,52.1326
85.0232,51.6996
85.4562,51.9496
Z" /> 
<path style="fill:#000000; fill-opacity:1.0000; 
stroke:#000000; stroke-width:0.0000; stroke-opacity:1; 
stroke-linecap:round; stroke-linejoin:round;fill-rule:evenodd;"
d="M 84.4268,51.9326
83.9938,51.6826
84.2438,51.2496
84.6768,51.4996
Z" /> 
</g>
<g >
</g>
<g style="fill:#000000; fill-opacity:1.0000; 
stroke:#000000; stroke-width:0.0000; stroke-opacity:1; 
stroke-linecap:round; stroke-linejoin:round;">
<path style="fill:#000000; fill-opacity:1.0000; 
stroke:#000000; stroke-width:0.0000; stroke-opacity:1; 
stroke-linecap:round; stroke-linejoin:round;fill-rule:evenodd;"
d="M 89.6350,61.7800
89.6274,61.8183
89.6057,61.8507
89.5733,61.8724
89.5350,61.8800
89.1000,61.8800
89.0617,61.8724
89.0293,61.8507
89.0076,61.8183
89.0000,61.7800
89.0000,61.5800
89.0076,61.5417
89.0293,61.5093
89.0617,61.4876
89.1000,61.4800
89.5350,61.4800
89.5733,61.4876
89.6057,61.5093
89.6274,61.5417
89.6350,61.5800
Z" /> 
<path style="fill:#000000; fill-opacity:1.0000; 
stroke:#000000; stroke-width:0.0000; stroke-opacity:1; 
stroke-linecap:round; stroke-linejoin:round;fill-rule:evenodd;"
d="M 88.8200,61.7800
88.8124,61.8183
88.7907,61.8507
88.7583,61.8724
88.7200,61.8800
88.2850,61.8800
88.2467,61.8724
88.2143,61.8507
88.1926,61.8183
88.1850,61.7800
88.1850,61.5800
88.1926,61.5417
88.2143,61.5093
88.2467,61.4876
88.2850,61.4800
88.7200,61.4800
88.7583,61.4876
88.7907,61.5093
88.8124,61.5417
88.8200,61.5800
Z" /> 
</g>
<g >
</g>
<g style="fill:#000000; fill-opacity:1.0000; 
stroke:#000000; stroke-width:0.0000; stroke-opacity:1; 
stroke-linecap:round; stroke-linejoin:round;">
<path style="fill:#000000; fill-opacity:1.0000; 
stroke:#000000; stroke-width:0.0000; stroke-opacity:1; 
stroke-linecap:round; stroke-linejoin:round;fill-rule:evenodd;"
d="M 79.2750,49.5500
79.2826,49.5117
79.3043,49.4793
79.3367,49.4576
79.3750,49.4500
79.8100,49.4500
79.8483,49.4576
79.8807,49.4793
79.9024,49.5117
79.9100,49.5500
79.9100,49.7500
79.9024,49.7883
79.8807,49.8207
79.8483,49.8424
79.8100,49.8500
79.3750,49.8500
79.3367,49.8424
79.3043,49.8207
79.2826,49.7883
79.2750,49.7500
Z" /> 
<path style="fill:#000000; fill-opacity:1.0000; 
stroke:#000000; stroke-width:0.0000; stroke-opacity:1; 
stroke-linecap:round; stroke-linejoin:round;fill-rule:evenodd;"
d="M 80.0900,49.5500
80.0976,49.5117
80.1193,49.4793
80.1517,49.4576
80.1900,49.4500
80.6250,49.4500
80.6633,49.4576
80.6957,49.4793
80.7174,49.5117
80.7250,49.5500
80.7250,49.7500
80.7174,49.7883
80.6957,49.8207
80.6633,49.8424
80.6250,49.8500
80.1900,49.8500
80.1517,49.8424
80.1193,49.8207
80.0976,49.7883
80.0900,49.7500
Z" /> 
</g>
<g >
</g>
<g >
</g>
<g >
</g>
<g >
</g>
<g >
</g>
</g> 
</svg>
