<?xml version="1.0" standalone="no"?>
 <!DOCTYPE svg PUBLIC "-//W3C//DTD SVG 1.1//EN" 
 "http://www.w3.org/Graphics/SVG/1.1/DTD/svg11.dtd"> 
<svg
  xmlns:svg="http://www.w3.org/2000/svg"
  xmlns="http://www.w3.org/2000/svg"
  xmlns:xlink="http://www.w3.org/1999/xlink"
  version="1.1"
  width="297.0022mm" height="210.0072mm" viewBox="0.0000 0.0000 297.0022 210.0072">
<title>SVG Image created as pedalboard-led-ring-B_Cu.svg date 2023/06/03 11:36:09 </title>
  <desc>Image generated by PCBNEW </desc>
<g style="fill:#000000; fill-opacity:1.0000;stroke:#000000; stroke-opacity:1.0000;
stroke-linecap:round; stroke-linejoin:round;"
 transform="translate(0 0) scale(1 1)">
</g>
<g style="fill:#000000; fill-opacity:0.0; 
stroke:#000000; stroke-width:0.0000; stroke-opacity:1; 
stroke-linecap:round; stroke-linejoin:round;">
<g >
</g>
<g >
</g>
<g >
</g>
<g >
</g>
<g >
</g>
<g >
</g>
<g >
</g>
<g >
</g>
<g >
</g>
<g >
</g>
<g >
</g>
<g >
</g>
<g >
</g>
<g >
</g>
<g >
</g>
<g >
</g>
<g >
</g>
<g >
</g>
<g >
</g>
<g >
</g>
<g >
</g>
<g >
</g>
<g >
</g>
<g >
</g>
<g >
</g>
<g >
</g>
<g >
</g>
<g >
</g>
<g >
</g>
<g >
</g>
<g style="fill:#000000; fill-opacity:0.0; 
stroke:#000000; stroke-width:0.0000; stroke-opacity:1; 
stroke-linecap:round; stroke-linejoin:round;">
</g>
<g style="fill:#000000; fill-opacity:0.0; 
stroke:#000000; stroke-width:0.0000; stroke-opacity:1; 
stroke-linecap:round; stroke-linejoin:round;">
</g>
<g style="fill:#000000; fill-opacity:1.0000; 
stroke:#000000; stroke-width:0.0000; stroke-opacity:1; 
stroke-linecap:round; stroke-linejoin:round;">
<path style="fill:#000000; fill-opacity:1.0000; 
stroke:#000000; stroke-width:0.0000; stroke-opacity:1; 
stroke-linecap:round; stroke-linejoin:round;fill-rule:evenodd;"
d="M 91.5000,58.2500
90.5000,58.2500
90.5000,55.5000
91.5000,55.5000
Z" /> 
<path style="fill:#000000; fill-opacity:1.0000; 
stroke:#000000; stroke-width:0.0000; stroke-opacity:1; 
stroke-linecap:round; stroke-linejoin:round;fill-rule:evenodd;"
d="M 91.5000,64.5000
90.5000,64.5000
90.5000,61.7500
91.5000,61.7500
Z" /> 
<path style="fill:#000000; fill-opacity:1.0000; 
stroke:#000000; stroke-width:0.0000; stroke-opacity:1; 
stroke-linecap:round; stroke-linejoin:round;fill-rule:evenodd;"
d="M 89.5000,58.2500
88.5000,58.2500
88.5000,55.5000
89.5000,55.5000
Z" /> 
<path style="fill:#000000; fill-opacity:1.0000; 
stroke:#000000; stroke-width:0.0000; stroke-opacity:1; 
stroke-linecap:round; stroke-linejoin:round;fill-rule:evenodd;"
d="M 89.5000,64.5000
88.5000,64.5000
88.5000,61.7500
89.5000,61.7500
Z" /> 
</g>
<g >
</g>
<g style="fill:#000000; fill-opacity:1.0000; 
stroke:#000000; stroke-width:0.0000; stroke-opacity:1; 
stroke-linecap:round; stroke-linejoin:round;">
<path style="fill:#000000; fill-opacity:1.0000; 
stroke:#000000; stroke-width:0.0000; stroke-opacity:1; 
stroke-linecap:round; stroke-linejoin:round;fill-rule:evenodd;"
d="M 91.7500,71.5000
91.7500,70.5000
94.5000,70.5000
94.5000,71.5000
Z" /> 
<path style="fill:#000000; fill-opacity:1.0000; 
stroke:#000000; stroke-width:0.0000; stroke-opacity:1; 
stroke-linecap:round; stroke-linejoin:round;fill-rule:evenodd;"
d="M 85.5000,71.5000
85.5000,70.5000
88.2500,70.5000
88.2500,71.5000
Z" /> 
<path style="fill:#000000; fill-opacity:1.0000; 
stroke:#000000; stroke-width:0.0000; stroke-opacity:1; 
stroke-linecap:round; stroke-linejoin:round;fill-rule:evenodd;"
d="M 91.7500,69.5000
91.7500,68.5000
94.5000,68.5000
94.5000,69.5000
Z" /> 
<path style="fill:#000000; fill-opacity:1.0000; 
stroke:#000000; stroke-width:0.0000; stroke-opacity:1; 
stroke-linecap:round; stroke-linejoin:round;fill-rule:evenodd;"
d="M 85.5000,69.5000
85.5000,68.5000
88.2500,68.5000
88.2500,69.5000
Z" /> 
</g>
<g >
</g>
<g style="fill:#000000; fill-opacity:1.0000; 
stroke:#000000; stroke-width:0.0000; stroke-opacity:1; 
stroke-linecap:round; stroke-linejoin:round;">
<circle cx="86.8000" cy="63.6000" r="0.4000" /> 
</g>
<g style="fill:#000000; fill-opacity:1.0000; 
stroke:#000000; stroke-width:0.0212; stroke-opacity:1; 
stroke-linecap:round; stroke-linejoin:round;">
</g>
<g style="fill:#000000; fill-opacity:1.0000; 
stroke:#000000; stroke-width:0.0000; stroke-opacity:1; 
stroke-linecap:round; stroke-linejoin:round;">
<circle cx="74.0000" cy="52.0000" r="0.4000" /> 
</g>
<g style="fill:#000000; fill-opacity:1.0000; 
stroke:#000000; stroke-width:0.0212; stroke-opacity:1; 
stroke-linecap:round; stroke-linejoin:round;">
</g>
<g style="fill:#000000; fill-opacity:1.0000; 
stroke:#000000; stroke-width:0.0000; stroke-opacity:1; 
stroke-linecap:round; stroke-linejoin:round;">
<circle cx="89.9282" cy="58.8038" r="0.4000" /> 
</g>
<g style="fill:#000000; fill-opacity:1.0000; 
stroke:#000000; stroke-width:0.0212; stroke-opacity:1; 
stroke-linecap:round; stroke-linejoin:round;">
</g>
<g style="fill:#000000; fill-opacity:1.0000; 
stroke:#000000; stroke-width:0.0000; stroke-opacity:1; 
stroke-linecap:round; stroke-linejoin:round;">
<circle cx="70.0718" cy="61.1962" r="0.4000" /> 
</g>
<g style="fill:#000000; fill-opacity:1.0000; 
stroke:#000000; stroke-width:0.0212; stroke-opacity:1; 
stroke-linecap:round; stroke-linejoin:round;">
</g>
<g style="fill:#000000; fill-opacity:1.0000; 
stroke:#000000; stroke-width:0.0000; stroke-opacity:1; 
stroke-linecap:round; stroke-linejoin:round;">
<circle cx="76.0718" cy="69.1962" r="0.4000" /> 
</g>
<g style="fill:#000000; fill-opacity:1.0000; 
stroke:#000000; stroke-width:0.0212; stroke-opacity:1; 
stroke-linecap:round; stroke-linejoin:round;">
</g>
<g style="fill:#000000; fill-opacity:1.0000; 
stroke:#000000; stroke-width:0.0000; stroke-opacity:1; 
stroke-linecap:round; stroke-linejoin:round;">
<circle cx="81.1962" cy="69.9282" r="0.4000" /> 
</g>
<g style="fill:#000000; fill-opacity:1.0000; 
stroke:#000000; stroke-width:0.0212; stroke-opacity:1; 
stroke-linecap:round; stroke-linejoin:round;">
</g>
<g style="fill:#000000; fill-opacity:1.0000; 
stroke:#000000; stroke-width:0.0000; stroke-opacity:1; 
stroke-linecap:round; stroke-linejoin:round;">
<circle cx="83.9282" cy="50.8038" r="0.4000" /> 
</g>
<g style="fill:#000000; fill-opacity:1.0000; 
stroke:#000000; stroke-width:0.0212; stroke-opacity:1; 
stroke-linecap:round; stroke-linejoin:round;">
</g>
<g style="fill:#000000; fill-opacity:1.0000; 
stroke:#000000; stroke-width:0.0000; stroke-opacity:1; 
stroke-linecap:round; stroke-linejoin:round;">
<circle cx="72.0000" cy="66.0000" r="0.4000" /> 
</g>
<g style="fill:#000000; fill-opacity:1.0000; 
stroke:#000000; stroke-width:0.0212; stroke-opacity:1; 
stroke-linecap:round; stroke-linejoin:round;">
</g>
<g style="fill:#000000; fill-opacity:1.0000; 
stroke:#000000; stroke-width:0.0000; stroke-opacity:1; 
stroke-linecap:round; stroke-linejoin:round;">
<circle cx="86.4000" cy="67.7000" r="0.4000" /> 
</g>
<g style="fill:#000000; fill-opacity:1.0000; 
stroke:#000000; stroke-width:0.0212; stroke-opacity:1; 
stroke-linecap:round; stroke-linejoin:round;">
</g>
<g style="fill:#000000; fill-opacity:1.0000; 
stroke:#000000; stroke-width:0.0000; stroke-opacity:1; 
stroke-linecap:round; stroke-linejoin:round;">
<circle cx="70.8038" cy="56.0718" r="0.4000" /> 
</g>
<g style="fill:#000000; fill-opacity:1.0000; 
stroke:#000000; stroke-width:0.0212; stroke-opacity:1; 
stroke-linecap:round; stroke-linejoin:round;">
</g>
<g style="fill:#000000; fill-opacity:1.0000; 
stroke:#000000; stroke-width:0.0000; stroke-opacity:1; 
stroke-linecap:round; stroke-linejoin:round;">
<circle cx="88.0000" cy="54.0000" r="0.4000" /> 
</g>
<g style="fill:#000000; fill-opacity:1.0000; 
stroke:#000000; stroke-width:0.0212; stroke-opacity:1; 
stroke-linecap:round; stroke-linejoin:round;">
</g>
<g style="fill:#000000; fill-opacity:1.0000; 
stroke:#000000; stroke-width:0.0000; stroke-opacity:1; 
stroke-linecap:round; stroke-linejoin:round;">
<circle cx="88.5000" cy="66.0000" r="0.4000" /> 
</g>
<g style="fill:#000000; fill-opacity:1.0000; 
stroke:#000000; stroke-width:0.0212; stroke-opacity:1; 
stroke-linecap:round; stroke-linejoin:round;">
</g>
<g style="fill:#000000; fill-opacity:1.0000; 
stroke:#000000; stroke-width:0.0000; stroke-opacity:1; 
stroke-linecap:round; stroke-linejoin:round;">
<circle cx="78.8038" cy="50.0718" r="0.4000" /> 
</g>
<g style="fill:#000000; fill-opacity:1.0000; 
stroke:#000000; stroke-width:0.0212; stroke-opacity:1; 
stroke-linecap:round; stroke-linejoin:round;">
</g>
<g style="fill:#000000; fill-opacity:1.0000; 
stroke:#000000; stroke-width:0.0000; stroke-opacity:1; 
stroke-linecap:round; stroke-linejoin:round;">
<circle cx="92.0000" cy="62.1000" r="0.4000" /> 
</g>
<g style="fill:#000000; fill-opacity:1.0000; 
stroke:#000000; stroke-width:0.0212; stroke-opacity:1; 
stroke-linecap:round; stroke-linejoin:round;">
</g>
<g style="fill:#000000; fill-opacity:1.0000; 
stroke:#000000; stroke-width:0.0000; stroke-opacity:1; 
stroke-linecap:round; stroke-linejoin:round;">
<circle cx="85.9000" cy="72.0000" r="0.4000" /> 
</g>
<g style="fill:#000000; fill-opacity:1.0000; 
stroke:#000000; stroke-width:0.0212; stroke-opacity:1; 
stroke-linecap:round; stroke-linejoin:round;">
</g>
<g style="fill:#000000; fill-opacity:1.0000; 
stroke:#000000; stroke-width:0.0000; stroke-opacity:1; 
stroke-linecap:round; stroke-linejoin:round;">
<circle cx="92.0000" cy="63.1000" r="0.4000" /> 
</g>
<g style="fill:#000000; fill-opacity:1.0000; 
stroke:#000000; stroke-width:0.0212; stroke-opacity:1; 
stroke-linecap:round; stroke-linejoin:round;">
</g>
<g style="fill:#000000; fill-opacity:1.0000; 
stroke:#000000; stroke-width:0.0000; stroke-opacity:1; 
stroke-linecap:round; stroke-linejoin:round;">
<circle cx="92.0000" cy="64.1000" r="0.4000" /> 
</g>
<g style="fill:#000000; fill-opacity:1.0000; 
stroke:#000000; stroke-width:0.0212; stroke-opacity:1; 
stroke-linecap:round; stroke-linejoin:round;">
</g>
<g style="fill:#000000; fill-opacity:1.0000; 
stroke:#000000; stroke-width:0.0000; stroke-opacity:1; 
stroke-linecap:round; stroke-linejoin:round;">
<circle cx="87.9000" cy="72.0000" r="0.4000" /> 
</g>
<g style="fill:#000000; fill-opacity:1.0000; 
stroke:#000000; stroke-width:0.0212; stroke-opacity:1; 
stroke-linecap:round; stroke-linejoin:round;">
</g>
<g style="fill:#000000; fill-opacity:1.0000; 
stroke:#000000; stroke-width:0.0000; stroke-opacity:1; 
stroke-linecap:round; stroke-linejoin:round;">
<circle cx="86.9000" cy="72.0000" r="0.4000" /> 
</g>
<g style="fill:#000000; fill-opacity:1.0000; 
stroke:#000000; stroke-width:0.0212; stroke-opacity:1; 
stroke-linecap:round; stroke-linejoin:round;">
</g>
<g style="fill:#000000; fill-opacity:1.0000; 
stroke:#000000; stroke-width:0.0000; stroke-opacity:1; 
stroke-linecap:round; stroke-linejoin:round;">
<circle cx="87.9100" cy="61.8200" r="0.4000" /> 
</g>
<g style="fill:#000000; fill-opacity:1.0000; 
stroke:#000000; stroke-width:0.0212; stroke-opacity:1; 
stroke-linecap:round; stroke-linejoin:round;">
</g>
<g >
</g>
<g style="fill:#000000; fill-opacity:1.0000; 
stroke:#000000; stroke-width:0.0212; stroke-opacity:1; 
stroke-linecap:round; stroke-linejoin:round;">
</g>
<g style="fill:#000000; fill-opacity:1.0000; 
stroke:#000000; stroke-width:0.2500; stroke-opacity:1; 
stroke-linecap:round; stroke-linejoin:round;">
</g>
<g style="fill:#000000; fill-opacity:0.0; 
stroke:#000000; stroke-width:0.2500; stroke-opacity:1; 
stroke-linecap:round; stroke-linejoin:round;">
<path d="M84.8000 67.1000
L86.8000 65.1000
" />
<path d="M89.0000 63.1250
L88.1250 64.0000
" />
<path d="M85.4000 69.0000
L84.8000 68.4000
" />
<path d="M86.8750 69.0000
L85.4000 69.0000
" />
<path d="M84.8000 68.4000
L84.8000 67.1000
" />
<path d="M87.2000 64.0000
L86.8000 63.6000
" />
<path d="M88.1250 64.0000
L87.2000 64.0000
" />
<path d="M86.8000 65.1000
L86.8000 63.6000
" />
<path d="M86.8750 71.0000
L86.8750 71.9750
" />
<path d="M91.0000 63.1250
L91.9750 63.1250
" />
<path d="M91.0000 63.1000
L92.0000 62.1000
" />
<path d="M86.8750 71.9750
L86.9000 72.0000
" />
<path d="M86.9000 71.0000
L87.9000 72.0000
" />
<path d="M86.8750 71.0250
L85.9000 72.0000
" />
<path d="M91.0250 63.1250
L92.0000 64.1000
" />
<path d="M91.9750 63.1250
L92.0000 63.1000
" />
<path d="M88.0000 57.0000
L88.0000 61.7300
" />
<path d="M92.8000 61.3000
L92.8000 68.6750
" />
<path d="M88.4300 61.3000
L92.8000 61.3000
" />
<path d="M88.0000 61.7300
L87.9100 61.8200
" />
<path d="M89.0000 56.8750
L88.1250 56.8750
" />
<path d="M88.1250 56.8750
L88.0000 57.0000
" />
<path d="M87.9100 61.8200
L88.4300 61.3000
" />
</g>
<g >
</g>
<g style="fill:#000000; fill-opacity:0.0; 
stroke:#000000; stroke-width:0.2500; stroke-opacity:1; 
stroke-linecap:round; stroke-linejoin:round;">
<g >
</g>
<g style="fill:#000000; fill-opacity:1.0000; 
stroke:#000000; stroke-width:0.0000; stroke-opacity:1; 
stroke-linecap:round; stroke-linejoin:round;">
<path style="fill:#000000; fill-opacity:1.0000; 
stroke:#000000; stroke-width:0.0000; stroke-opacity:1; 
stroke-linecap:round; stroke-linejoin:round;fill-rule:evenodd;"
d="M 94.0027,45.0007
94.0455,45.0045
94.1718,45.0169
94.1917,45.0205
94.2574,45.0382
94.2592,45.0387
94.3516,45.0667
94.3680,45.0730
94.4354,45.1044
94.4384,45.1059
94.4760,45.1260
94.5223,45.1508
94.5287,45.1547
94.5948,45.2010
94.5986,45.2038
94.6708,45.2631
94.6753,45.2672
94.7328,45.3247
94.7369,45.3292
94.7962,45.4014
94.7990,45.4052
94.8453,45.4713
94.8492,45.4777
94.8941,45.5616
94.8956,45.5646
94.9270,45.6320
94.9333,45.6484
94.9613,45.7407
94.9619,45.7426
94.9795,45.8083
94.9831,45.8282
94.9955,45.9546
94.9993,45.9973
94.9995,46.0027
94.9995,70.0016
94.9798,70.0687
94.9270,70.1144
94.8579,70.1244
94.8012,70.1009
94.7421,70.0566
94.7421,70.0566
94.6074,70.0064
94.6074,70.0064
94.5478,70.0000
93.3750,70.0000
93.3750,72.0000
94.5478,72.0000
94.5478,72.0000
94.6074,71.9936
94.6074,71.9936
94.7421,71.9434
94.7421,71.9434
94.8012,71.8991
94.8667,71.8747
94.9349,71.8895
94.9843,71.9389
94.9995,71.9984
94.9995,73.9973
94.9993,74.0027
94.9955,74.0454
94.9831,74.1718
94.9795,74.1917
94.9619,74.2574
94.9613,74.2593
94.9333,74.3516
94.9270,74.3680
94.8956,74.4354
94.8941,74.4384
94.8492,74.5223
94.8453,74.5287
94.7990,74.5948
94.7962,74.5986
94.7369,74.6708
94.7328,74.6753
94.6753,74.7328
94.6708,74.7369
94.5986,74.7962
94.5948,74.7990
94.5287,74.8453
94.5223,74.8492
94.4384,74.8941
94.4354,74.8956
94.3680,74.9270
94.3516,74.9333
94.2593,74.9613
94.2574,74.9619
94.1917,74.9795
94.1718,74.9831
94.0454,74.9955
94.0073,74.9989
94.0027,74.9993
93.9973,74.9995
66.0027,74.9995
65.9973,74.9993
65.9923,74.9988
65.9546,74.9955
65.8282,74.9831
65.8083,74.9795
65.7426,74.9619
65.7407,74.9613
65.7031,74.9499
65.6484,74.9333
65.6320,74.9270
65.5646,74.8956
65.5616,74.8941
65.4777,74.8492
65.4713,74.8453
65.4052,74.7990
65.4014,74.7962
65.3292,74.7369
65.3247,74.7328
65.2672,74.6753
65.2631,74.6708
65.2038,74.5986
65.2010,74.5948
65.1547,74.5287
65.1508,74.5223
65.1260,74.4760
65.1059,74.4384
65.1044,74.4354
65.0730,74.3680
65.0667,74.3516
65.0387,74.2592
65.0382,74.2574
65.0205,74.1917
65.0169,74.1718
65.0045,74.0454
65.0007,74.0027
65.0005,73.9973
65.0005,72.0000
66.6443,72.0000
66.6649,72.2354
66.6649,72.2354
66.7261,72.4637
66.7261,72.4637
66.7261,72.4637
66.7760,72.5707
66.8260,72.6778
66.8260,72.6778
66.9615,72.8714
67.1286,73.0385
67.3222,73.1740
67.3222,73.1740
67.5363,73.2739
67.7646,73.3351
67.9410,73.3505
67.9410,73.3505
67.9410,73.3505
68.0590,73.3505
68.0590,73.3505
68.2354,73.3351
68.4637,73.2739
68.6778,73.1740
68.8714,73.0385
69.0385,72.8714
69.1740,72.6778
69.2739,72.4637
69.3351,72.2354
69.3557,72.0000
85.2447,72.0000
85.2638,72.1568
85.2936,72.2354
85.3198,72.3045
85.4095,72.4345
85.5278,72.5393
85.5278,72.5393
85.6676,72.6127
85.8210,72.6505
85.8210,72.6505
85.9790,72.6505
86.1324,72.6127
86.2722,72.5393
86.2722,72.5393
86.2722,72.5393
86.3178,72.4989
86.3810,72.4692
86.4503,72.4784
86.4822,72.4989
86.5169,72.5297
86.5278,72.5393
86.6676,72.6127
86.8210,72.6505
86.8210,72.6505
86.9790,72.6505
87.1324,72.6127
87.2722,72.5393
87.2722,72.5393
87.2722,72.5393
87.3178,72.4989
87.3810,72.4692
87.4503,72.4784
87.4822,72.4989
87.5169,72.5297
87.5278,72.5393
87.6676,72.6127
87.8210,72.6505
87.8210,72.6505
87.9790,72.6505
88.1324,72.6127
88.1324,72.6127
88.2722,72.5393
88.3905,72.4345
88.4802,72.3045
88.5362,72.1568
88.5553,72.0000
88.5545,71.9936
88.5362,71.8432
88.5064,71.7646
88.4811,71.6977
88.4757,71.6280
88.4824,71.6063
88.4860,71.5977
88.4860,71.5977
88.5005,71.5247
88.5005,71.2500
91.2500,71.2500
91.2500,71.5478
91.2564,71.6074
91.2564,71.6074
91.3066,71.7421
91.3066,71.7421
91.3928,71.8572
91.3928,71.8572
91.5079,71.9433
91.5079,71.9434
91.6426,71.9936
91.6426,71.9936
91.7022,72.0000
91.7022,72.0000
92.8750,72.0000
92.8750,71.2500
91.2500,71.2500
88.5005,71.2500
88.5005,70.7500
91.2500,70.7500
92.8750,70.7500
92.8750,70.0000
91.7022,70.0000
91.6426,70.0064
91.6426,70.0064
91.5079,70.0566
91.5079,70.0566
91.3928,70.1428
91.3928,70.1428
91.3066,70.2579
91.3066,70.2579
91.2564,70.3926
91.2564,70.3926
91.2500,70.4522
91.2500,70.7500
88.5005,70.7500
88.5005,70.4753
88.5005,70.4753
88.5005,70.4753
88.4860,70.4023
88.4860,70.4023
88.4860,70.4023
88.4306,70.3194
88.3477,70.2640
88.3477,70.2640
88.3477,70.2640
88.2747,70.2495
88.2747,70.2495
85.4753,70.2495
85.4753,70.2495
85.4023,70.2640
85.4023,70.2640
85.3194,70.3194
85.2640,70.4023
85.2640,70.4023
85.2495,70.4753
85.2495,71.5247
85.2640,71.5977
85.2640,71.5977
85.2877,71.6332
85.3086,71.6999
85.3006,71.7461
85.2638,71.8432
85.2447,72.0000
85.2447,72.0000
69.3557,72.0000
69.3351,71.7646
69.2739,71.5363
69.1740,71.3222
69.1740,71.3222
69.0385,71.1286
68.8714,70.9615
68.6778,70.8260
68.6778,70.8260
68.5707,70.7760
68.4637,70.7261
68.4637,70.7261
68.4637,70.7261
68.2354,70.6649
68.2354,70.6649
68.0590,70.6495
68.0590,70.6495
67.9410,70.6495
67.9410,70.6495
67.7646,70.6649
67.7646,70.6649
67.5363,70.7261
67.5363,70.7261
67.3222,70.8260
67.3222,70.8260
67.1286,70.9615
66.9615,71.1286
66.9615,71.1286
66.8260,71.3222
66.8260,71.3222
66.7261,71.5363
66.7261,71.5363
66.6649,71.7646
66.6649,71.7646
66.6443,72.0000
66.6443,72.0000
65.0005,72.0000
65.0005,68.3843
84.4196,68.3843
84.4240,68.4195
84.4245,68.4272
84.4245,68.4311
84.4281,68.4529
84.4285,68.4554
84.4351,68.5086
84.4374,68.5161
84.4399,68.5236
84.4527,68.5472
84.4654,68.5708
84.4666,68.5730
84.4902,68.6212
84.4947,68.6276
84.4996,68.6338
84.5391,68.6702
84.5409,68.6719
85.0978,69.2289
85.1140,69.2487
85.1199,69.2578
85.1479,69.2796
85.1537,69.2847
85.1565,69.2875
85.1744,69.3003
85.1765,69.3019
85.2017,69.3215
85.2425,69.3782
85.2495,69.4193
85.2495,69.5247
85.2640,69.5977
85.2640,69.5977
85.2640,69.5977
85.3194,69.6806
85.4023,69.7360
85.4023,69.7360
85.4753,69.7505
85.4753,69.7505
85.4753,69.7505
88.2747,69.7505
88.2747,69.7505
88.3477,69.7360
88.4306,69.6806
88.4860,69.5977
88.5005,69.5247
88.5005,68.4753
88.5005,68.4753
88.5005,68.4753
88.5005,68.4753
88.4860,68.4023
88.4860,68.4023
88.4668,68.3736
88.4306,68.3194
88.3477,68.2640
88.3477,68.2640
88.3477,68.2640
88.2747,68.2495
88.2747,68.2495
85.4753,68.2495
85.4753,68.2495
85.4023,68.2640
85.4023,68.2640
85.3684,68.2867
85.3017,68.3075
85.2343,68.2891
85.1876,68.2371
85.1755,68.1836
85.1755,68.1255
85.1755,67.3069
85.1952,67.2399
85.2118,67.2192
87.0289,65.4021
87.0487,65.3860
87.0578,65.3801
87.0796,65.3521
87.0847,65.3463
87.0875,65.3435
87.1004,65.3255
87.1018,65.3235
87.1348,65.2812
87.1348,65.2812
87.1385,65.2743
87.1420,65.2672
87.1420,65.2672
87.1573,65.2158
87.1581,65.2134
87.1755,65.1627
87.1755,65.1627
87.1768,65.1549
87.1778,65.1471
87.1756,65.0935
87.1755,65.0910
87.1755,64.4995
87.1952,64.4325
87.2480,64.3867
87.2995,64.3755
88.0732,64.3755
88.0986,64.3781
88.1017,64.3788
88.1093,64.3804
88.1102,64.3803
88.1114,64.3805
88.1195,64.3808
88.1195,64.3818
88.1791,64.3915
88.2311,64.4382
88.2495,64.5033
88.2495,64.5247
88.2640,64.5977
88.2640,64.5977
88.2640,64.5977
88.3194,64.6806
88.3923,64.7293
88.4023,64.7360
88.4023,64.7360
88.4753,64.7505
88.4753,64.7505
88.4753,64.7505
89.5247,64.7505
89.5247,64.7505
89.5977,64.7360
89.6806,64.6806
89.7360,64.5977
89.7505,64.5247
89.7505,61.7995
89.7702,61.7325
89.8230,61.6867
89.8745,61.6755
90.1255,61.6755
90.1925,61.6952
90.2383,61.7480
90.2495,61.7995
90.2495,64.5247
90.2640,64.5977
90.2640,64.5977
90.2640,64.5977
90.3194,64.6806
90.3923,64.7293
90.4023,64.7360
90.4023,64.7360
90.4753,64.7505
90.4753,64.7505
90.4753,64.7505
91.5247,64.7505
91.5247,64.7505
91.5977,64.7360
91.6307,64.7139
91.6974,64.6931
91.7572,64.7072
91.7676,64.7127
91.8620,64.7360
91.9210,64.7505
91.9210,64.7505
92.0790,64.7505
92.2324,64.7127
92.2429,64.7072
92.3114,64.6935
92.3764,64.7189
92.4174,64.7756
92.4245,64.8170
92.4245,68.1255
92.4048,68.1925
92.3520,68.2383
92.3005,68.2495
91.7253,68.2495
91.6523,68.2640
91.6523,68.2640
91.5694,68.3194
91.5140,68.4023
91.5140,68.4023
91.4995,68.4753
91.4995,69.5247
91.5140,69.5977
91.5140,69.5977
91.5140,69.5977
91.5694,69.6806
91.6523,69.7360
91.6523,69.7360
91.6523,69.7360
91.7253,69.7505
91.7253,69.7505
91.7253,69.7505
94.5247,69.7505
94.5247,69.7505
94.5977,69.7360
94.6806,69.6806
94.7360,69.5977
94.7505,69.5247
94.7505,68.4753
94.7505,68.4753
94.7505,68.4753
94.7505,68.4753
94.7360,68.4023
94.7360,68.4023
94.7168,68.3736
94.6806,68.3194
94.5977,68.2640
94.5977,68.2640
94.5977,68.2640
94.5247,68.2495
94.5247,68.2495
93.2995,68.2495
93.2325,68.2298
93.1867,68.1770
93.1755,68.1255
93.1755,61.3181
93.1757,61.3130
93.1794,61.2686
93.1684,61.2254
93.1674,61.2204
93.1601,61.1764
93.1599,61.1760
93.1487,61.1475
93.1486,61.1471
93.1486,61.1471
93.1243,61.1098
93.1216,61.1054
93.1004,61.0662
93.1001,61.0659
93.0803,61.0425
93.0801,61.0422
93.0801,61.0422
93.0449,61.0148
93.0410,61.0115
93.0302,61.0015
93.0082,60.9813
93.0078,60.9811
92.9815,60.9654
92.9812,60.9652
92.9390,60.9507
92.9343,60.9489
92.8935,60.9310
92.8934,60.9310
92.8930,60.9309
92.8630,60.9246
92.8627,60.9245
92.8181,60.9245
92.8130,60.9243
92.8039,60.9235
92.7686,60.9206
92.7684,60.9207
92.7682,60.9207
92.7377,60.9245
88.4995,60.9245
88.4325,60.9048
88.3867,60.8520
88.3755,60.8005
88.3755,58.6245
88.3952,58.5575
88.4480,58.5117
88.4995,58.5005
89.5247,58.5005
89.5247,58.5005
89.5977,58.4860
89.6806,58.4306
89.7360,58.3477
89.7505,58.2747
89.7505,57.1250
90.0000,57.1250
90.0000,58.2978
90.0064,58.3574
90.0064,58.3574
90.0566,58.4921
90.0566,58.4921
90.1428,58.6072
90.1428,58.6072
90.2579,58.6933
90.2579,58.6934
90.3926,58.7436
90.3926,58.7436
90.4522,58.7500
90.4522,58.7500
90.7500,58.7500
90.7500,57.1250
91.2500,57.1250
91.2500,58.7500
91.5478,58.7500
91.5478,58.7500
91.6074,58.7436
91.6074,58.7436
91.7421,58.6934
91.7421,58.6933
91.8572,58.6072
91.8572,58.6072
91.9433,58.4921
91.9434,58.4921
91.9936,58.3574
91.9936,58.3574
92.0000,58.2978
92.0000,58.2978
92.0000,57.1250
91.2500,57.1250
90.7500,57.1250
90.0000,57.1250
89.7505,57.1250
89.7505,56.6250
90.0000,56.6250
90.7500,56.6250
90.7500,55.0000
91.2500,55.0000
91.2500,56.6250
92.0000,56.6250
92.0000,55.4522
92.0000,55.4522
91.9936,55.3926
91.9936,55.3926
91.9434,55.2579
91.9433,55.2579
91.8572,55.1428
91.8572,55.1428
91.7421,55.0566
91.7421,55.0566
91.6074,55.0064
91.6074,55.0064
91.5478,55.0000
91.2500,55.0000
90.7500,55.0000
90.4522,55.0000
90.3926,55.0064
90.3926,55.0064
90.2579,55.0566
90.2579,55.0566
90.1428,55.1428
90.1428,55.1428
90.0566,55.2579
90.0566,55.2579
90.0064,55.3926
90.0064,55.3926
90.0000,55.4522
90.0000,56.6250
89.7505,56.6250
89.7505,55.4753
89.7505,55.4753
89.7505,55.4753
89.7360,55.4023
89.7360,55.4023
89.7360,55.4023
89.6806,55.3194
89.5977,55.2640
89.5977,55.2640
89.5977,55.2640
89.5247,55.2495
89.5247,55.2495
88.4753,55.2495
88.4753,55.2495
88.4023,55.2640
88.4023,55.2640
88.3194,55.3194
88.2640,55.4023
88.2640,55.4023
88.2495,55.4753
88.2495,56.3716
88.2298,56.4386
88.1770,56.4844
88.1408,56.4946
88.1055,56.4990
88.0978,56.4995
88.0939,56.4995
88.0721,56.5031
88.0696,56.5035
88.0164,56.5101
88.0089,56.5124
88.0014,56.5149
87.9542,56.5404
87.9520,56.5416
87.9038,56.5652
87.8974,56.5697
87.8912,56.5746
87.8549,56.6140
87.8531,56.6159
87.7711,56.6979
87.7513,56.7140
87.7422,56.7199
87.7422,56.7199
87.7204,56.7479
87.7153,56.7537
87.7125,56.7565
87.7125,56.7565
87.6997,56.7744
87.6981,56.7765
87.6652,56.8188
87.6614,56.8257
87.6580,56.8328
87.6427,56.8842
87.6419,56.8866
87.6245,56.9373
87.6232,56.9451
87.6222,56.9529
87.6244,57.0065
87.6245,57.0090
87.6245,61.1602
87.6048,61.2273
87.5581,61.2700
87.5378,61.2807
87.5378,61.2807
87.4195,61.3855
87.3298,61.5155
87.3298,61.5155
87.2738,61.6632
87.2547,61.8200
87.2547,61.8200
87.2738,61.9768
87.3298,62.1245
87.3298,62.1245
87.4195,62.2545
87.5378,62.3593
87.5378,62.3593
87.6776,62.4327
87.8310,62.4705
87.8310,62.4705
87.9890,62.4705
88.0958,62.4442
88.1656,62.4472
88.2227,62.4876
88.2489,62.5523
88.2495,62.5646
88.2495,63.2931
88.2298,63.3601
88.2132,63.3808
88.0058,63.5882
87.9445,63.6217
87.9181,63.6245
87.5681,63.6245
87.5011,63.6048
87.4553,63.5520
87.4450,63.5154
87.4362,63.4432
87.3802,63.2955
87.2905,63.1655
87.1722,63.0607
87.1722,63.0607
87.1722,63.0607
87.0324,62.9873
86.8790,62.9495
86.8790,62.9495
86.7210,62.9495
86.7210,62.9495
86.5676,62.9873
86.4278,63.0607
86.3095,63.1655
86.2198,63.2955
86.2198,63.2955
86.1638,63.4432
86.1447,63.6000
86.1447,63.6000
86.1638,63.7568
86.2198,63.9045
86.2198,63.9045
86.3095,64.0345
86.3827,64.0994
86.4199,64.1586
86.4245,64.1922
86.4245,64.8931
86.4048,64.9601
86.3882,64.9808
84.5711,66.7979
84.5513,66.8140
84.5422,66.8199
84.5422,66.8199
84.5204,66.8479
84.5153,66.8537
84.5125,66.8565
84.5125,66.8565
84.4997,66.8744
84.4981,66.8765
84.4652,66.9188
84.4614,66.9257
84.4580,66.9328
84.4427,66.9842
84.4419,66.9866
84.4245,67.0373
84.4232,67.0451
84.4222,67.0529
84.4244,67.1065
84.4245,67.1090
84.4245,68.3482
84.4219,68.3736
84.4196,68.3843
84.4196,68.3843
84.4196,68.3843
65.0005,68.3843
65.0005,60.0000
73.8945,60.0000
73.9143,60.4913
73.9143,60.4913
73.9736,60.9794
74.0720,61.4611
74.2088,61.9334
74.3831,62.3931
74.5939,62.8374
74.8397,63.2632
74.8397,63.2632
74.8620,63.2955
75.0771,63.6070
75.1190,63.6678
75.4300,64.0486
75.4300,64.0487
75.4300,64.0487
75.7500,64.3818
75.7706,64.4033
75.7706,64.4033
76.1386,64.7293
76.2553,64.8170
76.5317,65.0247
76.9473,65.2875
76.9473,65.2875
76.9473,65.2875
77.0967,65.3659
77.3826,65.5160
77.8350,65.7087
78.3014,65.8644
78.7788,65.9821
78.7788,65.9821
78.7788,65.9821
79.2277,66.0550
79.2641,66.0609
79.7542,66.1005
79.7542,66.1005
80.2458,66.1005
80.2458,66.1005
80.7359,66.0609
80.8845,66.0368
81.2212,65.9821
81.2212,65.9821
81.2212,65.9821
81.6986,65.8644
82.1650,65.7087
82.6174,65.5160
83.0527,65.2875
83.4683,65.0247
83.8614,64.7293
83.8614,64.7293
83.8614,64.7293
84.2294,64.4033
84.2294,64.4033
84.2294,64.4033
84.5700,64.0487
84.8810,63.6678
85.1603,63.2632
85.4061,62.8373
85.6169,62.3931
85.7912,61.9334
85.9280,61.4611
86.0264,60.9794
86.0857,60.4913
86.0857,60.4913
86.1055,60.0000
86.1055,60.0000
86.0857,59.5087
86.0857,59.5087
86.0857,59.5087
86.0264,59.0206
85.9280,58.5389
85.8967,58.4306
85.7912,58.0666
85.7143,57.8636
85.6169,57.6069
85.4061,57.1627
85.2760,56.9373
85.1603,56.7368
85.1603,56.7368
85.1445,56.7140
84.8810,56.3322
84.8810,56.3322
84.8809,56.3322
84.5700,55.9513
84.5700,55.9513
84.2294,55.5967
84.2294,55.5967
83.8614,55.2707
83.6648,55.1230
83.4683,54.9753
83.0527,54.7125
83.0527,54.7125
83.0527,54.7125
82.6174,54.4840
82.4398,54.4084
82.1650,54.2913
82.1650,54.2913
82.1650,54.2913
81.9345,54.2144
81.6986,54.1356
81.6986,54.1356
81.6986,54.1356
81.5157,54.0905
81.2212,54.0179
81.2212,54.0179
81.2212,54.0179
81.2212,54.0179
80.7359,53.9391
80.2459,53.8995
80.2458,53.8995
79.7542,53.8995
79.7541,53.8995
79.2641,53.9391
78.7788,54.0179
78.7788,54.0179
78.7788,54.0179
78.7788,54.0179
78.7551,54.0238
78.3014,54.1356
78.3014,54.1356
77.8350,54.2913
77.8350,54.2913
77.8350,54.2913
77.7307,54.3357
77.3826,54.4840
76.9473,54.7125
76.5317,54.9753
76.5317,54.9753
76.1386,55.2707
75.7706,55.5967
75.7706,55.5967
75.4300,55.9513
75.4300,55.9513
75.1190,56.3322
74.8397,56.7368
74.8397,56.7368
74.5939,57.1626
74.3831,57.6069
74.2088,58.0666
74.0720,58.5389
73.9736,59.0206
73.9143,59.5087
73.9143,59.5087
73.8945,60.0000
73.8945,60.0000
65.0005,60.0000
65.0005,48.0000
66.6443,48.0000
66.6649,48.2354
66.6649,48.2354
66.7261,48.4637
66.7261,48.4637
66.7261,48.4637
66.7760,48.5707
66.8260,48.6778
66.8260,48.6778
66.9615,48.8714
67.1286,49.0385
67.3222,49.1740
67.3222,49.1740
67.5363,49.2739
67.7646,49.3351
67.9410,49.3505
67.9410,49.3505
67.9410,49.3505
68.0590,49.3505
68.0590,49.3505
68.2354,49.3351
68.4637,49.2739
68.6778,49.1740
68.8714,49.0385
69.0385,48.8714
69.1740,48.6778
69.2739,48.4637
69.3351,48.2354
69.3557,48.0000
90.6443,48.0000
90.6649,48.2354
90.6649,48.2354
90.7261,48.4637
90.7261,48.4637
90.7261,48.4637
90.7760,48.5707
90.8260,48.6778
90.8260,48.6778
90.9615,48.8714
91.1286,49.0385
91.3222,49.1740
91.3222,49.1740
91.5363,49.2739
91.7646,49.3351
91.9410,49.3505
91.9410,49.3505
91.9410,49.3505
92.0590,49.3505
92.0590,49.3505
92.2354,49.3351
92.4637,49.2739
92.6778,49.1740
92.8714,49.0385
93.0385,48.8714
93.1740,48.6778
93.2739,48.4637
93.3351,48.2354
93.3557,48.0000
93.3351,47.7646
93.2739,47.5363
93.1740,47.3222
93.1740,47.3222
93.0385,47.1286
92.8714,46.9615
92.6778,46.8260
92.6778,46.8260
92.5707,46.7760
92.4637,46.7261
92.4637,46.7261
92.4637,46.7261
92.2354,46.6649
92.2354,46.6649
92.0590,46.6495
92.0590,46.6495
91.9410,46.6495
91.9410,46.6495
91.7646,46.6649
91.7646,46.6649
91.5363,46.7261
91.5363,46.7261
91.3222,46.8260
91.3222,46.8260
91.1286,46.9615
90.9615,47.1286
90.9615,47.1286
90.8260,47.3222
90.8260,47.3222
90.7261,47.5363
90.7261,47.5363
90.6649,47.7646
90.6649,47.7646
90.6443,48.0000
90.6443,48.0000
69.3557,48.0000
69.3351,47.7646
69.2739,47.5363
69.1740,47.3222
69.1740,47.3222
69.0385,47.1286
68.8714,46.9615
68.6778,46.8260
68.6778,46.8260
68.5707,46.7760
68.4637,46.7261
68.4637,46.7261
68.4637,46.7261
68.2354,46.6649
68.2354,46.6649
68.0590,46.6495
68.0590,46.6495
67.9410,46.6495
67.9410,46.6495
67.7646,46.6649
67.7646,46.6649
67.5363,46.7261
67.5363,46.7261
67.3222,46.8260
67.3222,46.8260
67.1286,46.9615
66.9615,47.1286
66.9615,47.1286
66.8260,47.3222
66.8260,47.3222
66.7261,47.5363
66.7261,47.5363
66.6649,47.7646
66.6649,47.7646
66.6443,48.0000
66.6443,48.0000
65.0005,48.0000
65.0005,46.0027
65.0007,45.9973
65.0045,45.9545
65.0169,45.8282
65.0205,45.8083
65.0382,45.7425
65.0387,45.7408
65.0667,45.6484
65.0729,45.6320
65.1044,45.5646
65.1059,45.5617
65.1508,45.4777
65.1547,45.4713
65.1878,45.4239
65.2010,45.4052
65.2038,45.4014
65.2631,45.3292
65.2672,45.3247
65.3247,45.2672
65.3292,45.2631
65.4014,45.2038
65.4052,45.2010
65.4713,45.1547
65.4777,45.1508
65.5617,45.1059
65.5646,45.1044
65.6320,45.0729
65.6484,45.0667
65.7408,45.0387
65.7425,45.0382
65.8083,45.0205
65.8282,45.0169
65.9418,45.0057
65.9546,45.0045
65.9973,45.0007
66.0027,45.0005
93.9973,45.0005
Z" /> 
</g>
</g>
</g>
<g style="fill:#FFFFFF; fill-opacity:1.0000; 
stroke:#FFFFFF; stroke-width:0.0000; stroke-opacity:1; 
stroke-linecap:round; stroke-linejoin:round;">
<circle cx="86.8000" cy="63.6000" r="0.2000" /> 
</g>
<g style="fill:#FFFFFF; fill-opacity:1.0000; 
stroke:#FFFFFF; stroke-width:0.0212; stroke-opacity:1; 
stroke-linecap:round; stroke-linejoin:round;">
</g>
<g style="fill:#FFFFFF; fill-opacity:1.0000; 
stroke:#FFFFFF; stroke-width:0.0000; stroke-opacity:1; 
stroke-linecap:round; stroke-linejoin:round;">
<circle cx="74.0000" cy="52.0000" r="0.2000" /> 
</g>
<g style="fill:#FFFFFF; fill-opacity:1.0000; 
stroke:#FFFFFF; stroke-width:0.0212; stroke-opacity:1; 
stroke-linecap:round; stroke-linejoin:round;">
</g>
<g style="fill:#FFFFFF; fill-opacity:1.0000; 
stroke:#FFFFFF; stroke-width:0.0000; stroke-opacity:1; 
stroke-linecap:round; stroke-linejoin:round;">
<circle cx="89.9282" cy="58.8038" r="0.2000" /> 
</g>
<g style="fill:#FFFFFF; fill-opacity:1.0000; 
stroke:#FFFFFF; stroke-width:0.0212; stroke-opacity:1; 
stroke-linecap:round; stroke-linejoin:round;">
</g>
<g style="fill:#FFFFFF; fill-opacity:1.0000; 
stroke:#FFFFFF; stroke-width:0.0000; stroke-opacity:1; 
stroke-linecap:round; stroke-linejoin:round;">
<circle cx="70.0718" cy="61.1962" r="0.2000" /> 
</g>
<g style="fill:#FFFFFF; fill-opacity:1.0000; 
stroke:#FFFFFF; stroke-width:0.0212; stroke-opacity:1; 
stroke-linecap:round; stroke-linejoin:round;">
</g>
<g style="fill:#FFFFFF; fill-opacity:1.0000; 
stroke:#FFFFFF; stroke-width:0.0000; stroke-opacity:1; 
stroke-linecap:round; stroke-linejoin:round;">
<circle cx="76.0718" cy="69.1962" r="0.2000" /> 
</g>
<g style="fill:#FFFFFF; fill-opacity:1.0000; 
stroke:#FFFFFF; stroke-width:0.0212; stroke-opacity:1; 
stroke-linecap:round; stroke-linejoin:round;">
</g>
<g style="fill:#FFFFFF; fill-opacity:1.0000; 
stroke:#FFFFFF; stroke-width:0.0000; stroke-opacity:1; 
stroke-linecap:round; stroke-linejoin:round;">
<circle cx="81.1962" cy="69.9282" r="0.2000" /> 
</g>
<g style="fill:#FFFFFF; fill-opacity:1.0000; 
stroke:#FFFFFF; stroke-width:0.0212; stroke-opacity:1; 
stroke-linecap:round; stroke-linejoin:round;">
</g>
<g style="fill:#FFFFFF; fill-opacity:1.0000; 
stroke:#FFFFFF; stroke-width:0.0000; stroke-opacity:1; 
stroke-linecap:round; stroke-linejoin:round;">
<circle cx="83.9282" cy="50.8038" r="0.2000" /> 
</g>
<g style="fill:#FFFFFF; fill-opacity:1.0000; 
stroke:#FFFFFF; stroke-width:0.0212; stroke-opacity:1; 
stroke-linecap:round; stroke-linejoin:round;">
</g>
<g style="fill:#FFFFFF; fill-opacity:1.0000; 
stroke:#FFFFFF; stroke-width:0.0000; stroke-opacity:1; 
stroke-linecap:round; stroke-linejoin:round;">
<circle cx="72.0000" cy="66.0000" r="0.2000" /> 
</g>
<g style="fill:#FFFFFF; fill-opacity:1.0000; 
stroke:#FFFFFF; stroke-width:0.0212; stroke-opacity:1; 
stroke-linecap:round; stroke-linejoin:round;">
</g>
<g style="fill:#FFFFFF; fill-opacity:1.0000; 
stroke:#FFFFFF; stroke-width:0.0000; stroke-opacity:1; 
stroke-linecap:round; stroke-linejoin:round;">
<circle cx="86.4000" cy="67.7000" r="0.2000" /> 
</g>
<g style="fill:#FFFFFF; fill-opacity:1.0000; 
stroke:#FFFFFF; stroke-width:0.0212; stroke-opacity:1; 
stroke-linecap:round; stroke-linejoin:round;">
</g>
<g style="fill:#FFFFFF; fill-opacity:1.0000; 
stroke:#FFFFFF; stroke-width:0.0000; stroke-opacity:1; 
stroke-linecap:round; stroke-linejoin:round;">
<circle cx="70.8038" cy="56.0718" r="0.2000" /> 
</g>
<g style="fill:#FFFFFF; fill-opacity:1.0000; 
stroke:#FFFFFF; stroke-width:0.0212; stroke-opacity:1; 
stroke-linecap:round; stroke-linejoin:round;">
</g>
<g style="fill:#FFFFFF; fill-opacity:1.0000; 
stroke:#FFFFFF; stroke-width:0.0000; stroke-opacity:1; 
stroke-linecap:round; stroke-linejoin:round;">
<circle cx="88.0000" cy="54.0000" r="0.2000" /> 
</g>
<g style="fill:#FFFFFF; fill-opacity:1.0000; 
stroke:#FFFFFF; stroke-width:0.0212; stroke-opacity:1; 
stroke-linecap:round; stroke-linejoin:round;">
</g>
<g style="fill:#FFFFFF; fill-opacity:1.0000; 
stroke:#FFFFFF; stroke-width:0.0000; stroke-opacity:1; 
stroke-linecap:round; stroke-linejoin:round;">
<circle cx="88.5000" cy="66.0000" r="0.2000" /> 
</g>
<g style="fill:#FFFFFF; fill-opacity:1.0000; 
stroke:#FFFFFF; stroke-width:0.0212; stroke-opacity:1; 
stroke-linecap:round; stroke-linejoin:round;">
</g>
<g style="fill:#FFFFFF; fill-opacity:1.0000; 
stroke:#FFFFFF; stroke-width:0.0000; stroke-opacity:1; 
stroke-linecap:round; stroke-linejoin:round;">
<circle cx="78.8038" cy="50.0718" r="0.2000" /> 
</g>
<g style="fill:#FFFFFF; fill-opacity:1.0000; 
stroke:#FFFFFF; stroke-width:0.0212; stroke-opacity:1; 
stroke-linecap:round; stroke-linejoin:round;">
</g>
<g style="fill:#FFFFFF; fill-opacity:1.0000; 
stroke:#FFFFFF; stroke-width:0.0000; stroke-opacity:1; 
stroke-linecap:round; stroke-linejoin:round;">
<circle cx="92.0000" cy="62.1000" r="0.2000" /> 
</g>
<g style="fill:#FFFFFF; fill-opacity:1.0000; 
stroke:#FFFFFF; stroke-width:0.0212; stroke-opacity:1; 
stroke-linecap:round; stroke-linejoin:round;">
</g>
<g style="fill:#FFFFFF; fill-opacity:1.0000; 
stroke:#FFFFFF; stroke-width:0.0000; stroke-opacity:1; 
stroke-linecap:round; stroke-linejoin:round;">
<circle cx="85.9000" cy="72.0000" r="0.2000" /> 
</g>
<g style="fill:#FFFFFF; fill-opacity:1.0000; 
stroke:#FFFFFF; stroke-width:0.0212; stroke-opacity:1; 
stroke-linecap:round; stroke-linejoin:round;">
</g>
<g style="fill:#FFFFFF; fill-opacity:1.0000; 
stroke:#FFFFFF; stroke-width:0.0000; stroke-opacity:1; 
stroke-linecap:round; stroke-linejoin:round;">
<circle cx="92.0000" cy="63.1000" r="0.2000" /> 
</g>
<g style="fill:#FFFFFF; fill-opacity:1.0000; 
stroke:#FFFFFF; stroke-width:0.0212; stroke-opacity:1; 
stroke-linecap:round; stroke-linejoin:round;">
</g>
<g style="fill:#FFFFFF; fill-opacity:1.0000; 
stroke:#FFFFFF; stroke-width:0.0000; stroke-opacity:1; 
stroke-linecap:round; stroke-linejoin:round;">
<circle cx="92.0000" cy="64.1000" r="0.2000" /> 
</g>
<g style="fill:#FFFFFF; fill-opacity:1.0000; 
stroke:#FFFFFF; stroke-width:0.0212; stroke-opacity:1; 
stroke-linecap:round; stroke-linejoin:round;">
</g>
<g style="fill:#FFFFFF; fill-opacity:1.0000; 
stroke:#FFFFFF; stroke-width:0.0000; stroke-opacity:1; 
stroke-linecap:round; stroke-linejoin:round;">
<circle cx="87.9000" cy="72.0000" r="0.2000" /> 
</g>
<g style="fill:#FFFFFF; fill-opacity:1.0000; 
stroke:#FFFFFF; stroke-width:0.0212; stroke-opacity:1; 
stroke-linecap:round; stroke-linejoin:round;">
</g>
<g style="fill:#FFFFFF; fill-opacity:1.0000; 
stroke:#FFFFFF; stroke-width:0.0000; stroke-opacity:1; 
stroke-linecap:round; stroke-linejoin:round;">
<circle cx="86.9000" cy="72.0000" r="0.2000" /> 
</g>
<g style="fill:#FFFFFF; fill-opacity:1.0000; 
stroke:#FFFFFF; stroke-width:0.0212; stroke-opacity:1; 
stroke-linecap:round; stroke-linejoin:round;">
</g>
<g style="fill:#FFFFFF; fill-opacity:1.0000; 
stroke:#FFFFFF; stroke-width:0.0000; stroke-opacity:1; 
stroke-linecap:round; stroke-linejoin:round;">
<circle cx="87.9100" cy="61.8200" r="0.2000" /> 
</g>
<g style="fill:#FFFFFF; fill-opacity:1.0000; 
stroke:#FFFFFF; stroke-width:0.0212; stroke-opacity:1; 
stroke-linecap:round; stroke-linejoin:round;">
</g>
<g style="fill:#FFFFFF; fill-opacity:1.0000; 
stroke:#FFFFFF; stroke-width:0.0000; stroke-opacity:1; 
stroke-linecap:round; stroke-linejoin:round;">
<circle cx="68.0000" cy="48.0000" r="1.1000" /> 
</g>
<g style="fill:#FFFFFF; fill-opacity:1.0000; 
stroke:#FFFFFF; stroke-width:0.0212; stroke-opacity:1; 
stroke-linecap:round; stroke-linejoin:round;">
</g>
<g style="fill:#FFFFFF; fill-opacity:1.0000; 
stroke:#FFFFFF; stroke-width:0.0000; stroke-opacity:1; 
stroke-linecap:round; stroke-linejoin:round;">
<circle cx="92.0000" cy="48.0000" r="1.1000" /> 
</g>
<g style="fill:#FFFFFF; fill-opacity:1.0000; 
stroke:#FFFFFF; stroke-width:0.0212; stroke-opacity:1; 
stroke-linecap:round; stroke-linejoin:round;">
</g>
<g style="fill:#FFFFFF; fill-opacity:1.0000; 
stroke:#FFFFFF; stroke-width:0.0000; stroke-opacity:1; 
stroke-linecap:round; stroke-linejoin:round;">
<circle cx="68.0000" cy="72.0000" r="1.1000" /> 
</g>
<g style="fill:#FFFFFF; fill-opacity:1.0000; 
stroke:#FFFFFF; stroke-width:0.0212; stroke-opacity:1; 
stroke-linecap:round; stroke-linejoin:round;">
</g>
<g style="fill:#000000; fill-opacity:1.0000; 
stroke:#000000; stroke-width:0.0212; stroke-opacity:1; 
stroke-linecap:round; stroke-linejoin:round;">
</g> 
</svg>
