<?xml version="1.0" standalone="no"?>
 <!DOCTYPE svg PUBLIC "-//W3C//DTD SVG 1.1//EN" 
 "http://www.w3.org/Graphics/SVG/1.1/DTD/svg11.dtd"> 
<svg
  xmlns:svg="http://www.w3.org/2000/svg"
  xmlns="http://www.w3.org/2000/svg"
  xmlns:xlink="http://www.w3.org/1999/xlink"
  version="1.1"
  width="297.0022mm" height="210.0072mm" viewBox="0.0000 0.0000 297.0022 210.0072">
<title>SVG Image created as pedalboard-led-ring-B_Cu.svg date 2023/06/03 17:37:51 </title>
  <desc>Image generated by PCBNEW </desc>
<g style="fill:#000000; fill-opacity:1.0000;stroke:#000000; stroke-opacity:1.0000;
stroke-linecap:round; stroke-linejoin:round;"
 transform="translate(0 0) scale(1 1)">
</g>
<g style="fill:#000000; fill-opacity:0.0; 
stroke:#000000; stroke-width:0.0000; stroke-opacity:1; 
stroke-linecap:round; stroke-linejoin:round;">
<g >
</g>
<g >
</g>
<g >
</g>
<g >
</g>
<g >
</g>
<g >
</g>
<g >
</g>
<g >
</g>
<g >
</g>
<g >
</g>
<g >
</g>
<g >
</g>
<g >
</g>
<g >
</g>
<g >
</g>
<g >
</g>
<g >
</g>
<g >
</g>
<g >
</g>
<g >
</g>
<g >
</g>
<g >
</g>
<g >
</g>
<g >
</g>
<g >
</g>
<g >
</g>
<g >
</g>
<g >
</g>
<g >
</g>
<g >
</g>
<g style="fill:#000000; fill-opacity:0.0; 
stroke:#000000; stroke-width:0.0000; stroke-opacity:1; 
stroke-linecap:round; stroke-linejoin:round;">
</g>
<g style="fill:#000000; fill-opacity:0.0; 
stroke:#000000; stroke-width:0.0000; stroke-opacity:1; 
stroke-linecap:round; stroke-linejoin:round;">
</g>
<g style="fill:#000000; fill-opacity:1.0000; 
stroke:#000000; stroke-width:0.0000; stroke-opacity:1; 
stroke-linecap:round; stroke-linejoin:round;">
<path style="fill:#000000; fill-opacity:1.0000; 
stroke:#000000; stroke-width:0.0000; stroke-opacity:1; 
stroke-linecap:round; stroke-linejoin:round;fill-rule:evenodd;"
d="M 91.5000,58.2500
90.5000,58.2500
90.5000,55.5000
91.5000,55.5000
Z" /> 
<path style="fill:#000000; fill-opacity:1.0000; 
stroke:#000000; stroke-width:0.0000; stroke-opacity:1; 
stroke-linecap:round; stroke-linejoin:round;fill-rule:evenodd;"
d="M 91.5000,64.5000
90.5000,64.5000
90.5000,61.7500
91.5000,61.7500
Z" /> 
<path style="fill:#000000; fill-opacity:1.0000; 
stroke:#000000; stroke-width:0.0000; stroke-opacity:1; 
stroke-linecap:round; stroke-linejoin:round;fill-rule:evenodd;"
d="M 89.5000,58.2500
88.5000,58.2500
88.5000,55.5000
89.5000,55.5000
Z" /> 
<path style="fill:#000000; fill-opacity:1.0000; 
stroke:#000000; stroke-width:0.0000; stroke-opacity:1; 
stroke-linecap:round; stroke-linejoin:round;fill-rule:evenodd;"
d="M 89.5000,64.5000
88.5000,64.5000
88.5000,61.7500
89.5000,61.7500
Z" /> 
</g>
<g >
</g>
<g style="fill:#000000; fill-opacity:1.0000; 
stroke:#000000; stroke-width:0.0000; stroke-opacity:1; 
stroke-linecap:round; stroke-linejoin:round;">
<path style="fill:#000000; fill-opacity:1.0000; 
stroke:#000000; stroke-width:0.0000; stroke-opacity:1; 
stroke-linecap:round; stroke-linejoin:round;fill-rule:evenodd;"
d="M 91.7500,71.5000
91.7500,70.5000
94.5000,70.5000
94.5000,71.5000
Z" /> 
<path style="fill:#000000; fill-opacity:1.0000; 
stroke:#000000; stroke-width:0.0000; stroke-opacity:1; 
stroke-linecap:round; stroke-linejoin:round;fill-rule:evenodd;"
d="M 85.5000,71.5000
85.5000,70.5000
88.2500,70.5000
88.2500,71.5000
Z" /> 
<path style="fill:#000000; fill-opacity:1.0000; 
stroke:#000000; stroke-width:0.0000; stroke-opacity:1; 
stroke-linecap:round; stroke-linejoin:round;fill-rule:evenodd;"
d="M 91.7500,69.5000
91.7500,68.5000
94.5000,68.5000
94.5000,69.5000
Z" /> 
<path style="fill:#000000; fill-opacity:1.0000; 
stroke:#000000; stroke-width:0.0000; stroke-opacity:1; 
stroke-linecap:round; stroke-linejoin:round;fill-rule:evenodd;"
d="M 85.5000,69.5000
85.5000,68.5000
88.2500,68.5000
88.2500,69.5000
Z" /> 
</g>
<g >
</g>
<g style="fill:#000000; fill-opacity:1.0000; 
stroke:#000000; stroke-width:0.0000; stroke-opacity:1; 
stroke-linecap:round; stroke-linejoin:round;">
<circle cx="86.8000" cy="63.6000" r="0.4000" /> 
</g>
<g style="fill:#000000; fill-opacity:1.0000; 
stroke:#000000; stroke-width:0.0212; stroke-opacity:1; 
stroke-linecap:round; stroke-linejoin:round;">
</g>
<g style="fill:#000000; fill-opacity:1.0000; 
stroke:#000000; stroke-width:0.0000; stroke-opacity:1; 
stroke-linecap:round; stroke-linejoin:round;">
<circle cx="74.0000" cy="52.0000" r="0.4000" /> 
</g>
<g style="fill:#000000; fill-opacity:1.0000; 
stroke:#000000; stroke-width:0.0212; stroke-opacity:1; 
stroke-linecap:round; stroke-linejoin:round;">
</g>
<g style="fill:#000000; fill-opacity:1.0000; 
stroke:#000000; stroke-width:0.0000; stroke-opacity:1; 
stroke-linecap:round; stroke-linejoin:round;">
<circle cx="89.9282" cy="58.8038" r="0.4000" /> 
</g>
<g style="fill:#000000; fill-opacity:1.0000; 
stroke:#000000; stroke-width:0.0212; stroke-opacity:1; 
stroke-linecap:round; stroke-linejoin:round;">
</g>
<g style="fill:#000000; fill-opacity:1.0000; 
stroke:#000000; stroke-width:0.0000; stroke-opacity:1; 
stroke-linecap:round; stroke-linejoin:round;">
<circle cx="70.0718" cy="61.1962" r="0.4000" /> 
</g>
<g style="fill:#000000; fill-opacity:1.0000; 
stroke:#000000; stroke-width:0.0212; stroke-opacity:1; 
stroke-linecap:round; stroke-linejoin:round;">
</g>
<g style="fill:#000000; fill-opacity:1.0000; 
stroke:#000000; stroke-width:0.0000; stroke-opacity:1; 
stroke-linecap:round; stroke-linejoin:round;">
<circle cx="76.0718" cy="69.1962" r="0.4000" /> 
</g>
<g style="fill:#000000; fill-opacity:1.0000; 
stroke:#000000; stroke-width:0.0212; stroke-opacity:1; 
stroke-linecap:round; stroke-linejoin:round;">
</g>
<g style="fill:#000000; fill-opacity:1.0000; 
stroke:#000000; stroke-width:0.0000; stroke-opacity:1; 
stroke-linecap:round; stroke-linejoin:round;">
<circle cx="81.1962" cy="69.9282" r="0.4000" /> 
</g>
<g style="fill:#000000; fill-opacity:1.0000; 
stroke:#000000; stroke-width:0.0212; stroke-opacity:1; 
stroke-linecap:round; stroke-linejoin:round;">
</g>
<g style="fill:#000000; fill-opacity:1.0000; 
stroke:#000000; stroke-width:0.0000; stroke-opacity:1; 
stroke-linecap:round; stroke-linejoin:round;">
<circle cx="83.9282" cy="50.8038" r="0.4000" /> 
</g>
<g style="fill:#000000; fill-opacity:1.0000; 
stroke:#000000; stroke-width:0.0212; stroke-opacity:1; 
stroke-linecap:round; stroke-linejoin:round;">
</g>
<g style="fill:#000000; fill-opacity:1.0000; 
stroke:#000000; stroke-width:0.0000; stroke-opacity:1; 
stroke-linecap:round; stroke-linejoin:round;">
<circle cx="72.0000" cy="66.0000" r="0.4000" /> 
</g>
<g style="fill:#000000; fill-opacity:1.0000; 
stroke:#000000; stroke-width:0.0212; stroke-opacity:1; 
stroke-linecap:round; stroke-linejoin:round;">
</g>
<g style="fill:#000000; fill-opacity:1.0000; 
stroke:#000000; stroke-width:0.0000; stroke-opacity:1; 
stroke-linecap:round; stroke-linejoin:round;">
<circle cx="86.4000" cy="67.7000" r="0.4000" /> 
</g>
<g style="fill:#000000; fill-opacity:1.0000; 
stroke:#000000; stroke-width:0.0212; stroke-opacity:1; 
stroke-linecap:round; stroke-linejoin:round;">
</g>
<g style="fill:#000000; fill-opacity:1.0000; 
stroke:#000000; stroke-width:0.0000; stroke-opacity:1; 
stroke-linecap:round; stroke-linejoin:round;">
<circle cx="70.8038" cy="56.0718" r="0.4000" /> 
</g>
<g style="fill:#000000; fill-opacity:1.0000; 
stroke:#000000; stroke-width:0.0212; stroke-opacity:1; 
stroke-linecap:round; stroke-linejoin:round;">
</g>
<g style="fill:#000000; fill-opacity:1.0000; 
stroke:#000000; stroke-width:0.0000; stroke-opacity:1; 
stroke-linecap:round; stroke-linejoin:round;">
<circle cx="88.0000" cy="54.0000" r="0.4000" /> 
</g>
<g style="fill:#000000; fill-opacity:1.0000; 
stroke:#000000; stroke-width:0.0212; stroke-opacity:1; 
stroke-linecap:round; stroke-linejoin:round;">
</g>
<g style="fill:#000000; fill-opacity:1.0000; 
stroke:#000000; stroke-width:0.0000; stroke-opacity:1; 
stroke-linecap:round; stroke-linejoin:round;">
<circle cx="88.5000" cy="66.0000" r="0.4000" /> 
</g>
<g style="fill:#000000; fill-opacity:1.0000; 
stroke:#000000; stroke-width:0.0212; stroke-opacity:1; 
stroke-linecap:round; stroke-linejoin:round;">
</g>
<g style="fill:#000000; fill-opacity:1.0000; 
stroke:#000000; stroke-width:0.0000; stroke-opacity:1; 
stroke-linecap:round; stroke-linejoin:round;">
<circle cx="78.8038" cy="50.0718" r="0.4000" /> 
</g>
<g style="fill:#000000; fill-opacity:1.0000; 
stroke:#000000; stroke-width:0.0212; stroke-opacity:1; 
stroke-linecap:round; stroke-linejoin:round;">
</g>
<g style="fill:#000000; fill-opacity:1.0000; 
stroke:#000000; stroke-width:0.0000; stroke-opacity:1; 
stroke-linecap:round; stroke-linejoin:round;">
<circle cx="90.6000" cy="61.4000" r="0.4000" /> 
</g>
<g style="fill:#000000; fill-opacity:1.0000; 
stroke:#000000; stroke-width:0.0212; stroke-opacity:1; 
stroke-linecap:round; stroke-linejoin:round;">
</g>
<g style="fill:#000000; fill-opacity:1.0000; 
stroke:#000000; stroke-width:0.0000; stroke-opacity:1; 
stroke-linecap:round; stroke-linejoin:round;">
<circle cx="85.1000" cy="70.6000" r="0.4000" /> 
</g>
<g style="fill:#000000; fill-opacity:1.0000; 
stroke:#000000; stroke-width:0.0212; stroke-opacity:1; 
stroke-linecap:round; stroke-linejoin:round;">
</g>
<g style="fill:#000000; fill-opacity:1.0000; 
stroke:#000000; stroke-width:0.0000; stroke-opacity:1; 
stroke-linecap:round; stroke-linejoin:round;">
<circle cx="91.4000" cy="61.4000" r="0.4000" /> 
</g>
<g style="fill:#000000; fill-opacity:1.0000; 
stroke:#000000; stroke-width:0.0212; stroke-opacity:1; 
stroke-linecap:round; stroke-linejoin:round;">
</g>
<g style="fill:#000000; fill-opacity:1.0000; 
stroke:#000000; stroke-width:0.0000; stroke-opacity:1; 
stroke-linecap:round; stroke-linejoin:round;">
<circle cx="91.4000" cy="64.9000" r="0.4000" /> 
</g>
<g style="fill:#000000; fill-opacity:1.0000; 
stroke:#000000; stroke-width:0.0212; stroke-opacity:1; 
stroke-linecap:round; stroke-linejoin:round;">
</g>
<g style="fill:#000000; fill-opacity:1.0000; 
stroke:#000000; stroke-width:0.0000; stroke-opacity:1; 
stroke-linecap:round; stroke-linejoin:round;">
<circle cx="90.7000" cy="64.9000" r="0.4000" /> 
</g>
<g style="fill:#000000; fill-opacity:1.0000; 
stroke:#000000; stroke-width:0.0212; stroke-opacity:1; 
stroke-linecap:round; stroke-linejoin:round;">
</g>
<g style="fill:#000000; fill-opacity:1.0000; 
stroke:#000000; stroke-width:0.0000; stroke-opacity:1; 
stroke-linecap:round; stroke-linejoin:round;">
<circle cx="88.6000" cy="70.6000" r="0.4000" /> 
</g>
<g style="fill:#000000; fill-opacity:1.0000; 
stroke:#000000; stroke-width:0.0212; stroke-opacity:1; 
stroke-linecap:round; stroke-linejoin:round;">
</g>
<g style="fill:#000000; fill-opacity:1.0000; 
stroke:#000000; stroke-width:0.0000; stroke-opacity:1; 
stroke-linecap:round; stroke-linejoin:round;">
<circle cx="88.6000" cy="71.4000" r="0.4000" /> 
</g>
<g style="fill:#000000; fill-opacity:1.0000; 
stroke:#000000; stroke-width:0.0212; stroke-opacity:1; 
stroke-linecap:round; stroke-linejoin:round;">
</g>
<g style="fill:#000000; fill-opacity:1.0000; 
stroke:#000000; stroke-width:0.0000; stroke-opacity:1; 
stroke-linecap:round; stroke-linejoin:round;">
<circle cx="85.1000" cy="71.4000" r="0.4000" /> 
</g>
<g style="fill:#000000; fill-opacity:1.0000; 
stroke:#000000; stroke-width:0.0212; stroke-opacity:1; 
stroke-linecap:round; stroke-linejoin:round;">
</g>
<g style="fill:#000000; fill-opacity:1.0000; 
stroke:#000000; stroke-width:0.0000; stroke-opacity:1; 
stroke-linecap:round; stroke-linejoin:round;">
<circle cx="87.9100" cy="61.8200" r="0.4000" /> 
</g>
<g style="fill:#000000; fill-opacity:1.0000; 
stroke:#000000; stroke-width:0.0212; stroke-opacity:1; 
stroke-linecap:round; stroke-linejoin:round;">
</g>
<g >
</g>
<g style="fill:#000000; fill-opacity:1.0000; 
stroke:#000000; stroke-width:0.0212; stroke-opacity:1; 
stroke-linecap:round; stroke-linejoin:round;">
</g>
<g style="fill:#000000; fill-opacity:1.0000; 
stroke:#000000; stroke-width:0.2500; stroke-opacity:1; 
stroke-linecap:round; stroke-linejoin:round;">
</g>
<g style="fill:#000000; fill-opacity:0.0; 
stroke:#000000; stroke-width:0.2500; stroke-opacity:1; 
stroke-linecap:round; stroke-linejoin:round;">
<path d="M84.8000 67.1000
L86.8000 65.1000
" />
<path d="M89.0000 63.1250
L88.1250 64.0000
" />
<path d="M85.4000 69.0000
L84.8000 68.4000
" />
<path d="M86.8750 69.0000
L85.4000 69.0000
" />
<path d="M84.8000 68.4000
L84.8000 67.1000
" />
<path d="M87.2000 64.0000
L86.8000 63.6000
" />
<path d="M88.1250 64.0000
L87.2000 64.0000
" />
<path d="M86.8000 65.1000
L86.8000 63.6000
" />
<path d="M91.4000 61.4000
L91.4000 64.9000
" />
<path d="M85.1000 70.6000
L85.1000 71.4000
" />
<path d="M88.6000 70.6000
L88.6000 71.4000
" />
<path d="M90.7000 61.5000
L90.7000 64.9000
" />
<path d="M90.6000 61.4000
L91.4000 61.4000
" />
<path d="M90.6000 61.4000
L90.7000 61.5000
" />
<path d="M85.1000 71.4000
L88.6000 71.4000
" />
<path d="M90.7000 64.9000
L91.4000 64.9000
" />
<path d="M85.1000 70.6000
L88.6000 70.6000
" />
<path d="M88.0000 57.0000
L88.0000 61.7300
" />
<path d="M88.0000 61.7300
L87.9100 61.8200
" />
<path d="M92.8000 60.5000
L92.8000 68.6750
" />
<path d="M89.0000 56.8750
L88.1250 56.8750
" />
<path d="M88.1250 56.8750
L88.0000 57.0000
" />
<path d="M87.9100 61.8200
L89.2300 60.5000
" />
<path d="M89.2300 60.5000
L92.8000 60.5000
" />
</g>
<g >
</g>
<g style="fill:#000000; fill-opacity:0.0; 
stroke:#000000; stroke-width:0.2500; stroke-opacity:1; 
stroke-linecap:round; stroke-linejoin:round;">
<g >
</g>
<g style="fill:#000000; fill-opacity:1.0000; 
stroke:#000000; stroke-width:0.0000; stroke-opacity:1; 
stroke-linecap:round; stroke-linejoin:round;">
<path style="fill:#000000; fill-opacity:1.0000; 
stroke:#000000; stroke-width:0.0000; stroke-opacity:1; 
stroke-linecap:round; stroke-linejoin:round;fill-rule:evenodd;"
d="M 94.0027,48.0007
94.0455,48.0045
94.1718,48.0169
94.1917,48.0205
94.2574,48.0382
94.2592,48.0387
94.3516,48.0667
94.3680,48.0730
94.4354,48.1044
94.4384,48.1059
94.4760,48.1260
94.5223,48.1508
94.5287,48.1547
94.5948,48.2010
94.5986,48.2038
94.6708,48.2631
94.6753,48.2672
94.7328,48.3247
94.7369,48.3292
94.7962,48.4014
94.7990,48.4052
94.8453,48.4713
94.8492,48.4777
94.8941,48.5616
94.8956,48.5646
94.9270,48.6320
94.9333,48.6484
94.9613,48.7407
94.9619,48.7426
94.9795,48.8083
94.9831,48.8282
94.9955,48.9546
94.9993,48.9973
94.9995,49.0027
94.9995,70.0016
94.9798,70.0687
94.9270,70.1144
94.8579,70.1244
94.8012,70.1009
94.7421,70.0566
94.7421,70.0566
94.6074,70.0064
94.6074,70.0064
94.5478,70.0000
93.3750,70.0000
93.3750,71.1260
93.3553,71.1930
93.3025,71.2388
93.2510,71.2500
91.2500,71.2500
91.2500,71.5478
91.2564,71.6074
91.2564,71.6074
91.3066,71.7421
91.3066,71.7421
91.3509,71.8012
91.3753,71.8667
91.3605,71.9349
91.3111,71.9843
91.2516,71.9995
89.2129,71.9995
89.1458,71.9798
89.1001,71.9270
89.0901,71.8579
89.1108,71.8051
89.1312,71.7755
89.1802,71.7045
89.2362,71.5568
89.2553,71.4000
89.2400,71.2739
89.2362,71.2432
89.1802,71.0955
89.1802,71.0955
89.1629,71.0704
89.1411,71.0041
89.1585,70.9364
89.1629,70.9296
89.1802,70.9045
89.2362,70.7568
89.2371,70.7500
91.2500,70.7500
92.8750,70.7500
92.8750,70.0000
91.7022,70.0000
91.6426,70.0064
91.6426,70.0064
91.5079,70.0566
91.5079,70.0566
91.3928,70.1428
91.3928,70.1428
91.3066,70.2579
91.3066,70.2579
91.2564,70.3926
91.2564,70.3926
91.2500,70.4522
91.2500,70.7500
89.2371,70.7500
89.2553,70.6000
89.2362,70.4432
89.1802,70.2955
89.0905,70.1655
88.9722,70.0607
88.9722,70.0607
88.9722,70.0607
88.8324,69.9873
88.6790,69.9495
88.6790,69.9495
88.5210,69.9495
88.5210,69.9495
88.3676,69.9873
88.2278,70.0607
88.1095,70.1655
88.1071,70.1690
88.1057,70.1709
88.0515,70.2149
88.0037,70.2245
85.6963,70.2245
85.6293,70.2048
85.5943,70.1709
85.5905,70.1655
85.4722,70.0607
85.4722,70.0607
85.4722,70.0607
85.3324,69.9873
85.1790,69.9495
85.1790,69.9495
85.0210,69.9495
85.0210,69.9495
84.8676,69.9873
84.7278,70.0607
84.6095,70.1655
84.5198,70.2955
84.5198,70.2955
84.4638,70.4432
84.4447,70.6000
84.4447,70.6000
84.4638,70.7568
84.5198,70.9045
84.5198,70.9045
84.5371,70.9296
84.5589,70.9959
84.5415,71.0636
84.5371,71.0704
84.5198,71.0955
84.5198,71.0955
84.4638,71.2432
84.4447,71.4000
84.4447,71.4000
84.4638,71.5568
84.5198,71.7045
84.5198,71.7045
84.5892,71.8051
84.6111,71.8714
84.5936,71.9391
84.5423,71.9865
84.4871,71.9995
69.0027,71.9995
68.9973,71.9993
68.9923,71.9988
68.9546,71.9955
68.8282,71.9831
68.8083,71.9795
68.7426,71.9619
68.7407,71.9613
68.7031,71.9499
68.6484,71.9333
68.6320,71.9270
68.5646,71.8956
68.5616,71.8941
68.4777,71.8492
68.4713,71.8453
68.4052,71.7990
68.4014,71.7962
68.3292,71.7369
68.3247,71.7328
68.2672,71.6753
68.2631,71.6708
68.2038,71.5986
68.2010,71.5948
68.1547,71.5287
68.1508,71.5223
68.1260,71.4760
68.1059,71.4384
68.1044,71.4354
68.0730,71.3680
68.0667,71.3516
68.0387,71.2592
68.0382,71.2574
68.0205,71.1917
68.0169,71.1718
68.0045,71.0455
68.0011,71.0070
68.0007,71.0027
68.0005,70.9973
68.0005,70.0000
68.6443,70.0000
68.6649,70.2354
68.6649,70.2354
68.7261,70.4637
68.7261,70.4637
68.7261,70.4637
68.7760,70.5707
68.8260,70.6778
68.8260,70.6778
68.9615,70.8714
69.1286,71.0385
69.3222,71.1740
69.3222,71.1740
69.5363,71.2739
69.7646,71.3351
69.9410,71.3505
69.9410,71.3505
69.9410,71.3505
70.0590,71.3505
70.0590,71.3505
70.2354,71.3351
70.4637,71.2739
70.6778,71.1740
70.8714,71.0385
71.0385,70.8714
71.1740,70.6778
71.2739,70.4637
71.3351,70.2354
71.3557,70.0000
71.3351,69.7646
71.2739,69.5363
71.1740,69.3222
71.1740,69.3222
71.0385,69.1286
70.8714,68.9615
70.6778,68.8260
70.6778,68.8260
70.5707,68.7760
70.4637,68.7261
70.4637,68.7261
70.4637,68.7261
70.2354,68.6649
70.2354,68.6649
70.0590,68.6495
70.0590,68.6495
69.9410,68.6495
69.9410,68.6495
69.7646,68.6649
69.7646,68.6649
69.5363,68.7261
69.5363,68.7261
69.3222,68.8260
69.3222,68.8260
69.1286,68.9615
68.9615,69.1286
68.9615,69.1286
68.8260,69.3222
68.8260,69.3222
68.7261,69.5363
68.7261,69.5363
68.6649,69.7646
68.6649,69.7646
68.6443,70.0000
68.6443,70.0000
68.0005,70.0000
68.0005,68.3843
84.4196,68.3843
84.4240,68.4195
84.4245,68.4272
84.4245,68.4311
84.4281,68.4529
84.4285,68.4554
84.4351,68.5086
84.4374,68.5161
84.4399,68.5236
84.4527,68.5472
84.4654,68.5708
84.4666,68.5730
84.4902,68.6212
84.4947,68.6276
84.4996,68.6338
84.5391,68.6702
84.5409,68.6719
85.0978,69.2289
85.1140,69.2487
85.1199,69.2578
85.1479,69.2796
85.1537,69.2847
85.1565,69.2875
85.1744,69.3003
85.1765,69.3019
85.2017,69.3215
85.2425,69.3782
85.2495,69.4193
85.2495,69.5247
85.2640,69.5977
85.2640,69.5977
85.2640,69.5977
85.3194,69.6806
85.4023,69.7360
85.4023,69.7360
85.4753,69.7505
85.4753,69.7505
85.4753,69.7505
88.2747,69.7505
88.2747,69.7505
88.3477,69.7360
88.4306,69.6806
88.4860,69.5977
88.5005,69.5247
88.5005,68.4753
88.5005,68.4753
88.5005,68.4753
88.5005,68.4753
88.4860,68.4023
88.4860,68.4023
88.4668,68.3736
88.4306,68.3194
88.3477,68.2640
88.3477,68.2640
88.3477,68.2640
88.2747,68.2495
88.2747,68.2495
85.4753,68.2495
85.4753,68.2495
85.4023,68.2640
85.4023,68.2640
85.3684,68.2867
85.3017,68.3075
85.2343,68.2891
85.1876,68.2371
85.1755,68.1836
85.1755,68.1255
85.1755,67.3069
85.1952,67.2399
85.2118,67.2192
87.0289,65.4021
87.0487,65.3860
87.0578,65.3801
87.0796,65.3521
87.0847,65.3463
87.0875,65.3435
87.1004,65.3255
87.1018,65.3235
87.1348,65.2812
87.1348,65.2812
87.1385,65.2743
87.1420,65.2672
87.1420,65.2672
87.1573,65.2158
87.1581,65.2134
87.1755,65.1627
87.1755,65.1627
87.1768,65.1549
87.1778,65.1471
87.1756,65.0935
87.1755,65.0910
87.1755,64.4995
87.1952,64.4325
87.2480,64.3867
87.2995,64.3755
88.0732,64.3755
88.0986,64.3781
88.1017,64.3788
88.1093,64.3804
88.1102,64.3803
88.1114,64.3805
88.1195,64.3808
88.1195,64.3818
88.1791,64.3915
88.2311,64.4382
88.2495,64.5033
88.2495,64.5247
88.2640,64.5977
88.2640,64.5977
88.2640,64.5977
88.3194,64.6806
88.3923,64.7293
88.4023,64.7360
88.4023,64.7360
88.4753,64.7505
88.4753,64.7505
88.4753,64.7505
89.5247,64.7505
89.5247,64.7505
89.5977,64.7360
89.6806,64.6806
89.7360,64.5977
89.7505,64.5247
89.7505,61.7253
89.7505,61.7253
89.7396,61.6705
89.7360,61.6523
89.6806,61.5694
89.5999,61.5155
89.5977,61.5140
89.5977,61.5140
89.5247,61.4995
89.5247,61.4995
89.0609,61.4995
88.9939,61.4798
88.9481,61.4270
88.9382,61.3579
88.9672,61.2943
88.9732,61.2878
89.1008,61.1602
89.3492,60.9118
89.4105,60.8783
89.4369,60.8755
89.9354,60.8755
90.0024,60.8952
90.0482,60.9480
90.0581,61.0171
90.0374,61.0699
90.0198,61.0955
90.0198,61.0955
89.9638,61.2432
89.9447,61.4000
89.9447,61.4000
89.9638,61.5568
89.9651,61.5621
89.9649,61.5654
89.9668,61.5674
89.9729,61.5809
90.0198,61.7045
90.1095,61.8345
90.1701,61.8882
90.2077,61.9215
90.2449,61.9807
90.2495,62.0144
90.2495,64.3742
90.2298,64.4413
90.2142,64.4596
90.2145,64.4599
90.2095,64.4655
90.1198,64.5955
90.1198,64.5955
90.0638,64.7432
90.0447,64.9000
90.0447,64.9000
90.0638,65.0568
90.1039,65.1627
90.1198,65.2045
90.2095,65.3345
90.3278,65.4393
90.3278,65.4393
90.4676,65.5127
90.6210,65.5505
90.6210,65.5505
90.7790,65.5505
90.9324,65.5127
90.9924,65.4812
91.0609,65.4675
91.1076,65.4812
91.1676,65.5127
91.2443,65.5316
91.3210,65.5505
91.3210,65.5505
91.4790,65.5505
91.6324,65.5127
91.6364,65.5106
91.7722,65.4393
91.8905,65.3345
91.9802,65.2045
92.0362,65.0568
92.0553,64.9000
92.0371,64.7505
92.0362,64.7432
91.9811,64.5977
91.9802,64.5955
91.8905,64.4655
91.8841,64.4599
91.8173,64.4006
91.7801,64.3414
91.7755,64.3078
91.7755,61.9922
91.7952,61.9252
91.8173,61.8994
91.8905,61.8345
91.9005,61.8200
91.9802,61.7045
92.0362,61.5568
92.0553,61.4000
92.0502,61.3579
92.0362,61.2432
92.0048,61.1602
91.9802,61.0955
91.9626,61.0699
91.9407,61.0036
91.9582,60.9359
92.0094,60.8885
92.0646,60.8755
92.3005,60.8755
92.3675,60.8952
92.4133,60.9480
92.4245,60.9995
92.4245,68.1255
92.4048,68.1925
92.3520,68.2383
92.3005,68.2495
91.7253,68.2495
91.6523,68.2640
91.6523,68.2640
91.5694,68.3194
91.5140,68.4023
91.5140,68.4023
91.4995,68.4753
91.4995,69.5247
91.5140,69.5977
91.5140,69.5977
91.5140,69.5977
91.5694,69.6806
91.6523,69.7360
91.6523,69.7360
91.6523,69.7360
91.7253,69.7505
91.7253,69.7505
91.7253,69.7505
94.5247,69.7505
94.5247,69.7505
94.5977,69.7360
94.6806,69.6806
94.7360,69.5977
94.7505,69.5247
94.7505,68.4753
94.7505,68.4753
94.7505,68.4753
94.7505,68.4753
94.7360,68.4023
94.7360,68.4023
94.7168,68.3736
94.6806,68.3194
94.5977,68.2640
94.5977,68.2640
94.5977,68.2640
94.5247,68.2495
94.5247,68.2495
93.2995,68.2495
93.2325,68.2298
93.1867,68.1770
93.1755,68.1255
93.1755,60.5181
93.1757,60.5130
93.1775,60.4913
93.1794,60.4686
93.1684,60.4254
93.1674,60.4204
93.1601,60.3764
93.1599,60.3760
93.1487,60.3475
93.1486,60.3471
93.1486,60.3471
93.1243,60.3098
93.1216,60.3054
93.1004,60.2662
93.1001,60.2659
93.0803,60.2425
93.0801,60.2422
93.0801,60.2422
93.0449,60.2148
93.0410,60.2115
93.0228,60.1948
93.0082,60.1813
93.0078,60.1811
92.9815,60.1654
92.9812,60.1652
92.9390,60.1507
92.9343,60.1489
92.8935,60.1310
92.8934,60.1310
92.8930,60.1309
92.8630,60.1246
92.8627,60.1245
92.8181,60.1245
92.8130,60.1243
92.8039,60.1235
92.7686,60.1206
92.7684,60.1207
92.7682,60.1207
92.7377,60.1245
89.2818,60.1245
89.2564,60.1219
89.2457,60.1196
89.2457,60.1196
89.2105,60.1240
89.2028,60.1245
89.1989,60.1245
89.1771,60.1281
89.1746,60.1285
89.1214,60.1351
89.1139,60.1374
89.1064,60.1399
89.0592,60.1654
89.0570,60.1666
89.0088,60.1902
89.0024,60.1948
88.9962,60.1996
88.9599,60.2390
88.9581,60.2409
88.5872,60.6118
88.5259,60.6453
88.4562,60.6403
88.4002,60.5984
88.3758,60.5329
88.3755,60.5241
88.3755,58.6245
88.3952,58.5575
88.4480,58.5117
88.4995,58.5005
89.5247,58.5005
89.5247,58.5005
89.5977,58.4860
89.6806,58.4306
89.7360,58.3477
89.7505,58.2747
89.7505,57.1250
90.0000,57.1250
90.0000,58.2978
90.0064,58.3574
90.0064,58.3574
90.0566,58.4921
90.0566,58.4921
90.1428,58.6072
90.1428,58.6072
90.2579,58.6933
90.2579,58.6934
90.3926,58.7436
90.3926,58.7436
90.4522,58.7500
90.4522,58.7500
90.7500,58.7500
90.7500,57.1250
91.2500,57.1250
91.2500,58.7500
91.5478,58.7500
91.5478,58.7500
91.6074,58.7436
91.6074,58.7436
91.7421,58.6934
91.7421,58.6933
91.8572,58.6072
91.8572,58.6072
91.9433,58.4921
91.9434,58.4921
91.9936,58.3574
91.9936,58.3574
92.0000,58.2978
92.0000,58.2978
92.0000,57.1250
91.2500,57.1250
90.7500,57.1250
90.0000,57.1250
89.7505,57.1250
89.7505,56.6250
90.0000,56.6250
90.7500,56.6250
90.7500,55.0000
91.2500,55.0000
91.2500,56.6250
92.0000,56.6250
92.0000,55.4522
92.0000,55.4522
91.9936,55.3926
91.9936,55.3926
91.9434,55.2579
91.9433,55.2579
91.8572,55.1428
91.8572,55.1428
91.7421,55.0566
91.7421,55.0566
91.6074,55.0064
91.6074,55.0064
91.5478,55.0000
91.2500,55.0000
90.7500,55.0000
90.4522,55.0000
90.3926,55.0064
90.3926,55.0064
90.2579,55.0566
90.2579,55.0566
90.1428,55.1428
90.1428,55.1428
90.0566,55.2579
90.0566,55.2579
90.0064,55.3926
90.0064,55.3926
90.0000,55.4522
90.0000,56.6250
89.7505,56.6250
89.7505,55.4753
89.7505,55.4753
89.7505,55.4753
89.7360,55.4023
89.7360,55.4023
89.7360,55.4023
89.6806,55.3194
89.5977,55.2640
89.5977,55.2640
89.5977,55.2640
89.5247,55.2495
89.5247,55.2495
88.4753,55.2495
88.4753,55.2495
88.4023,55.2640
88.4023,55.2640
88.3194,55.3194
88.2640,55.4023
88.2640,55.4023
88.2495,55.4753
88.2495,56.3716
88.2298,56.4386
88.1770,56.4844
88.1408,56.4946
88.1055,56.4990
88.0978,56.4995
88.0939,56.4995
88.0721,56.5031
88.0696,56.5035
88.0164,56.5101
88.0089,56.5124
88.0014,56.5149
87.9542,56.5404
87.9520,56.5416
87.9038,56.5652
87.8974,56.5697
87.8912,56.5746
87.8549,56.6140
87.8531,56.6159
87.7711,56.6979
87.7513,56.7140
87.7422,56.7199
87.7422,56.7199
87.7204,56.7479
87.7153,56.7537
87.7125,56.7565
87.7125,56.7565
87.6997,56.7744
87.6981,56.7765
87.6652,56.8188
87.6614,56.8257
87.6580,56.8328
87.6427,56.8842
87.6419,56.8866
87.6245,56.9373
87.6232,56.9451
87.6222,56.9529
87.6244,57.0065
87.6245,57.0090
87.6245,61.1602
87.6048,61.2273
87.5581,61.2700
87.5378,61.2807
87.5378,61.2807
87.4507,61.3579
87.4195,61.3855
87.3298,61.5155
87.3298,61.5155
87.2738,61.6632
87.2547,61.8200
87.2547,61.8200
87.2738,61.9768
87.3298,62.1245
87.3298,62.1245
87.4195,62.2545
87.5378,62.3593
87.5378,62.3593
87.6776,62.4327
87.8310,62.4705
87.8310,62.4705
87.9890,62.4705
88.0958,62.4442
88.1656,62.4472
88.2227,62.4876
88.2489,62.5523
88.2495,62.5646
88.2495,63.2931
88.2298,63.3601
88.2132,63.3808
88.0058,63.5882
87.9445,63.6217
87.9181,63.6245
87.5681,63.6245
87.5011,63.6048
87.4553,63.5520
87.4450,63.5154
87.4362,63.4432
87.3802,63.2955
87.2905,63.1655
87.1722,63.0607
87.1722,63.0607
87.1722,63.0607
87.0324,62.9873
86.8790,62.9495
86.8790,62.9495
86.7210,62.9495
86.7210,62.9495
86.5676,62.9873
86.4278,63.0607
86.3095,63.1655
86.2198,63.2955
86.2198,63.2955
86.1638,63.4432
86.1447,63.6000
86.1447,63.6000
86.1638,63.7568
86.2198,63.9045
86.2198,63.9045
86.3095,64.0345
86.3827,64.0994
86.4199,64.1586
86.4245,64.1922
86.4245,64.8931
86.4048,64.9601
86.3882,64.9808
84.5711,66.7979
84.5513,66.8140
84.5422,66.8199
84.5422,66.8199
84.5204,66.8479
84.5153,66.8537
84.5125,66.8565
84.5125,66.8565
84.4997,66.8744
84.4981,66.8765
84.4652,66.9188
84.4614,66.9257
84.4580,66.9328
84.4427,66.9842
84.4419,66.9866
84.4245,67.0373
84.4232,67.0451
84.4222,67.0529
84.4244,67.1065
84.4245,67.1090
84.4245,68.3482
84.4219,68.3736
84.4196,68.3843
84.4196,68.3843
84.4196,68.3843
68.0005,68.3843
68.0005,60.0000
73.8945,60.0000
73.9143,60.4913
73.9143,60.4913
73.9143,60.4913
73.9194,60.5329
73.9736,60.9794
74.0720,61.4611
74.2088,61.9334
74.3831,62.3931
74.5939,62.8374
74.8397,63.2632
74.8397,63.2632
74.8620,63.2955
75.0722,63.6000
75.1190,63.6678
75.4300,64.0486
75.4300,64.0487
75.4300,64.0487
75.7500,64.3818
75.7706,64.4033
75.7706,64.4033
76.1386,64.7293
76.2866,64.8405
76.5317,65.0247
76.9473,65.2875
76.9473,65.2875
76.9473,65.2875
77.0967,65.3659
77.3826,65.5160
77.8350,65.7087
78.3014,65.8644
78.7788,65.9821
78.7788,65.9821
78.7788,65.9821
79.2277,66.0550
79.2641,66.0609
79.7542,66.1005
79.7542,66.1005
80.2458,66.1005
80.2458,66.1005
80.7359,66.0609
80.8845,66.0368
81.2212,65.9821
81.2212,65.9821
81.2212,65.9821
81.6986,65.8644
82.1650,65.7087
82.6174,65.5160
83.0527,65.2875
83.4683,65.0247
83.8614,64.7293
83.8614,64.7293
83.8614,64.7293
84.2294,64.4033
84.2294,64.4033
84.2294,64.4033
84.5700,64.0487
84.8810,63.6678
85.1603,63.2632
85.4061,62.8373
85.6169,62.3931
85.7912,61.9334
85.9280,61.4611
86.0264,60.9794
86.0857,60.4913
86.0857,60.4913
86.1055,60.0000
86.1055,60.0000
86.0857,59.5087
86.0857,59.5087
86.0857,59.5087
86.0264,59.0206
85.9280,58.5389
85.8967,58.4306
85.7912,58.0666
85.7143,57.8636
85.6169,57.6069
85.4061,57.1627
85.2760,56.9373
85.1603,56.7368
85.1603,56.7368
85.1445,56.7140
84.8810,56.3322
84.8810,56.3322
84.8809,56.3322
84.5700,55.9513
84.5700,55.9513
84.2294,55.5967
84.2294,55.5967
83.8614,55.2707
83.6648,55.1230
83.4683,54.9753
83.0527,54.7125
83.0527,54.7125
83.0527,54.7125
82.6174,54.4840
82.4398,54.4084
82.1650,54.2913
82.1650,54.2913
82.1650,54.2913
81.9345,54.2144
81.6986,54.1356
81.6986,54.1356
81.6986,54.1356
81.5157,54.0905
81.2212,54.0179
81.2212,54.0179
81.2212,54.0179
81.2212,54.0179
80.7359,53.9391
80.2459,53.8995
80.2458,53.8995
79.7542,53.8995
79.7541,53.8995
79.2641,53.9391
78.7788,54.0179
78.7788,54.0179
78.7788,54.0179
78.7788,54.0179
78.7551,54.0238
78.3014,54.1356
78.3014,54.1356
77.8350,54.2913
77.8350,54.2913
77.8350,54.2913
77.7307,54.3357
77.3826,54.4840
76.9473,54.7125
76.5317,54.9753
76.5317,54.9753
76.1386,55.2707
75.7706,55.5967
75.7706,55.5967
75.4300,55.9513
75.4300,55.9513
75.1190,56.3322
74.8397,56.7368
74.8397,56.7368
74.5939,57.1626
74.3831,57.6069
74.2088,58.0666
74.0720,58.5389
73.9736,59.0206
73.9143,59.5087
73.9143,59.5087
73.8945,60.0000
73.8945,60.0000
68.0005,60.0000
68.0005,50.0000
68.6443,50.0000
68.6649,50.2354
68.6649,50.2354
68.7261,50.4637
68.7261,50.4637
68.7261,50.4637
68.7760,50.5707
68.8260,50.6778
68.8260,50.6778
68.9615,50.8714
69.1286,51.0385
69.3222,51.1740
69.3222,51.1740
69.5363,51.2739
69.7646,51.3351
69.9410,51.3505
69.9410,51.3505
69.9410,51.3505
70.0590,51.3505
70.0590,51.3505
70.2354,51.3351
70.4637,51.2739
70.6778,51.1740
70.8714,51.0385
71.0385,50.8714
71.1740,50.6778
71.2739,50.4637
71.3351,50.2354
71.3557,50.0000
88.6443,50.0000
88.6649,50.2354
88.6649,50.2354
88.7261,50.4637
88.7261,50.4637
88.7261,50.4637
88.7760,50.5707
88.8260,50.6778
88.8260,50.6778
88.9615,50.8714
89.1286,51.0385
89.3222,51.1740
89.3222,51.1740
89.5363,51.2739
89.7646,51.3351
89.9410,51.3505
89.9410,51.3505
89.9410,51.3505
90.0590,51.3505
90.0590,51.3505
90.2354,51.3351
90.4637,51.2739
90.6778,51.1740
90.8714,51.0385
91.0385,50.8714
91.1740,50.6778
91.2739,50.4637
91.3351,50.2354
91.3557,50.0000
91.3351,49.7646
91.2739,49.5363
91.1740,49.3222
91.1740,49.3222
91.0385,49.1286
90.8714,48.9615
90.6778,48.8260
90.6778,48.8260
90.5707,48.7760
90.4637,48.7261
90.4637,48.7261
90.4637,48.7261
90.2354,48.6649
90.2354,48.6649
90.0590,48.6495
90.0590,48.6495
89.9410,48.6495
89.9410,48.6495
89.7646,48.6649
89.7646,48.6649
89.5363,48.7261
89.5363,48.7261
89.3222,48.8260
89.3222,48.8260
89.1286,48.9615
88.9615,49.1286
88.9615,49.1286
88.8260,49.3222
88.8260,49.3222
88.7261,49.5363
88.7261,49.5363
88.6649,49.7646
88.6649,49.7646
88.6443,50.0000
88.6443,50.0000
71.3557,50.0000
71.3351,49.7646
71.2739,49.5363
71.1740,49.3222
71.1740,49.3222
71.0385,49.1286
70.8714,48.9615
70.6778,48.8260
70.6778,48.8260
70.5707,48.7760
70.4637,48.7261
70.4637,48.7261
70.4637,48.7261
70.2354,48.6649
70.2354,48.6649
70.0590,48.6495
70.0590,48.6495
69.9410,48.6495
69.9410,48.6495
69.7646,48.6649
69.7646,48.6649
69.5363,48.7261
69.5363,48.7261
69.3222,48.8260
69.3222,48.8260
69.1286,48.9615
68.9615,49.1286
68.9615,49.1286
68.8260,49.3222
68.8260,49.3222
68.7261,49.5363
68.7261,49.5363
68.6649,49.7646
68.6649,49.7646
68.6443,50.0000
68.6443,50.0000
68.0005,50.0000
68.0005,49.0027
68.0007,48.9973
68.0045,48.9546
68.0057,48.9418
68.0169,48.8282
68.0205,48.8083
68.0382,48.7425
68.0387,48.7408
68.0667,48.6484
68.0729,48.6320
68.1044,48.5646
68.1059,48.5617
68.1508,48.4777
68.1547,48.4713
68.1878,48.4239
68.2010,48.4052
68.2038,48.4014
68.2631,48.3292
68.2672,48.3247
68.3247,48.2672
68.3292,48.2631
68.4014,48.2038
68.4052,48.2010
68.4713,48.1547
68.4777,48.1508
68.5617,48.1059
68.5646,48.1044
68.6320,48.0729
68.6484,48.0667
68.7408,48.0387
68.7425,48.0382
68.8083,48.0205
68.8282,48.0169
68.9418,48.0057
68.9546,48.0045
68.9973,48.0007
69.0027,48.0005
93.9973,48.0005
Z" /> 
</g>
</g>
</g>
<g style="fill:#FFFFFF; fill-opacity:1.0000; 
stroke:#FFFFFF; stroke-width:0.0000; stroke-opacity:1; 
stroke-linecap:round; stroke-linejoin:round;">
<circle cx="86.8000" cy="63.6000" r="0.2000" /> 
</g>
<g style="fill:#FFFFFF; fill-opacity:1.0000; 
stroke:#FFFFFF; stroke-width:0.0212; stroke-opacity:1; 
stroke-linecap:round; stroke-linejoin:round;">
</g>
<g style="fill:#FFFFFF; fill-opacity:1.0000; 
stroke:#FFFFFF; stroke-width:0.0000; stroke-opacity:1; 
stroke-linecap:round; stroke-linejoin:round;">
<circle cx="74.0000" cy="52.0000" r="0.2000" /> 
</g>
<g style="fill:#FFFFFF; fill-opacity:1.0000; 
stroke:#FFFFFF; stroke-width:0.0212; stroke-opacity:1; 
stroke-linecap:round; stroke-linejoin:round;">
</g>
<g style="fill:#FFFFFF; fill-opacity:1.0000; 
stroke:#FFFFFF; stroke-width:0.0000; stroke-opacity:1; 
stroke-linecap:round; stroke-linejoin:round;">
<circle cx="89.9282" cy="58.8038" r="0.2000" /> 
</g>
<g style="fill:#FFFFFF; fill-opacity:1.0000; 
stroke:#FFFFFF; stroke-width:0.0212; stroke-opacity:1; 
stroke-linecap:round; stroke-linejoin:round;">
</g>
<g style="fill:#FFFFFF; fill-opacity:1.0000; 
stroke:#FFFFFF; stroke-width:0.0000; stroke-opacity:1; 
stroke-linecap:round; stroke-linejoin:round;">
<circle cx="70.0718" cy="61.1962" r="0.2000" /> 
</g>
<g style="fill:#FFFFFF; fill-opacity:1.0000; 
stroke:#FFFFFF; stroke-width:0.0212; stroke-opacity:1; 
stroke-linecap:round; stroke-linejoin:round;">
</g>
<g style="fill:#FFFFFF; fill-opacity:1.0000; 
stroke:#FFFFFF; stroke-width:0.0000; stroke-opacity:1; 
stroke-linecap:round; stroke-linejoin:round;">
<circle cx="76.0718" cy="69.1962" r="0.2000" /> 
</g>
<g style="fill:#FFFFFF; fill-opacity:1.0000; 
stroke:#FFFFFF; stroke-width:0.0212; stroke-opacity:1; 
stroke-linecap:round; stroke-linejoin:round;">
</g>
<g style="fill:#FFFFFF; fill-opacity:1.0000; 
stroke:#FFFFFF; stroke-width:0.0000; stroke-opacity:1; 
stroke-linecap:round; stroke-linejoin:round;">
<circle cx="81.1962" cy="69.9282" r="0.2000" /> 
</g>
<g style="fill:#FFFFFF; fill-opacity:1.0000; 
stroke:#FFFFFF; stroke-width:0.0212; stroke-opacity:1; 
stroke-linecap:round; stroke-linejoin:round;">
</g>
<g style="fill:#FFFFFF; fill-opacity:1.0000; 
stroke:#FFFFFF; stroke-width:0.0000; stroke-opacity:1; 
stroke-linecap:round; stroke-linejoin:round;">
<circle cx="83.9282" cy="50.8038" r="0.2000" /> 
</g>
<g style="fill:#FFFFFF; fill-opacity:1.0000; 
stroke:#FFFFFF; stroke-width:0.0212; stroke-opacity:1; 
stroke-linecap:round; stroke-linejoin:round;">
</g>
<g style="fill:#FFFFFF; fill-opacity:1.0000; 
stroke:#FFFFFF; stroke-width:0.0000; stroke-opacity:1; 
stroke-linecap:round; stroke-linejoin:round;">
<circle cx="72.0000" cy="66.0000" r="0.2000" /> 
</g>
<g style="fill:#FFFFFF; fill-opacity:1.0000; 
stroke:#FFFFFF; stroke-width:0.0212; stroke-opacity:1; 
stroke-linecap:round; stroke-linejoin:round;">
</g>
<g style="fill:#FFFFFF; fill-opacity:1.0000; 
stroke:#FFFFFF; stroke-width:0.0000; stroke-opacity:1; 
stroke-linecap:round; stroke-linejoin:round;">
<circle cx="86.4000" cy="67.7000" r="0.2000" /> 
</g>
<g style="fill:#FFFFFF; fill-opacity:1.0000; 
stroke:#FFFFFF; stroke-width:0.0212; stroke-opacity:1; 
stroke-linecap:round; stroke-linejoin:round;">
</g>
<g style="fill:#FFFFFF; fill-opacity:1.0000; 
stroke:#FFFFFF; stroke-width:0.0000; stroke-opacity:1; 
stroke-linecap:round; stroke-linejoin:round;">
<circle cx="70.8038" cy="56.0718" r="0.2000" /> 
</g>
<g style="fill:#FFFFFF; fill-opacity:1.0000; 
stroke:#FFFFFF; stroke-width:0.0212; stroke-opacity:1; 
stroke-linecap:round; stroke-linejoin:round;">
</g>
<g style="fill:#FFFFFF; fill-opacity:1.0000; 
stroke:#FFFFFF; stroke-width:0.0000; stroke-opacity:1; 
stroke-linecap:round; stroke-linejoin:round;">
<circle cx="88.0000" cy="54.0000" r="0.2000" /> 
</g>
<g style="fill:#FFFFFF; fill-opacity:1.0000; 
stroke:#FFFFFF; stroke-width:0.0212; stroke-opacity:1; 
stroke-linecap:round; stroke-linejoin:round;">
</g>
<g style="fill:#FFFFFF; fill-opacity:1.0000; 
stroke:#FFFFFF; stroke-width:0.0000; stroke-opacity:1; 
stroke-linecap:round; stroke-linejoin:round;">
<circle cx="88.5000" cy="66.0000" r="0.2000" /> 
</g>
<g style="fill:#FFFFFF; fill-opacity:1.0000; 
stroke:#FFFFFF; stroke-width:0.0212; stroke-opacity:1; 
stroke-linecap:round; stroke-linejoin:round;">
</g>
<g style="fill:#FFFFFF; fill-opacity:1.0000; 
stroke:#FFFFFF; stroke-width:0.0000; stroke-opacity:1; 
stroke-linecap:round; stroke-linejoin:round;">
<circle cx="78.8038" cy="50.0718" r="0.2000" /> 
</g>
<g style="fill:#FFFFFF; fill-opacity:1.0000; 
stroke:#FFFFFF; stroke-width:0.0212; stroke-opacity:1; 
stroke-linecap:round; stroke-linejoin:round;">
</g>
<g style="fill:#FFFFFF; fill-opacity:1.0000; 
stroke:#FFFFFF; stroke-width:0.0000; stroke-opacity:1; 
stroke-linecap:round; stroke-linejoin:round;">
<circle cx="90.6000" cy="61.4000" r="0.2000" /> 
</g>
<g style="fill:#FFFFFF; fill-opacity:1.0000; 
stroke:#FFFFFF; stroke-width:0.0212; stroke-opacity:1; 
stroke-linecap:round; stroke-linejoin:round;">
</g>
<g style="fill:#FFFFFF; fill-opacity:1.0000; 
stroke:#FFFFFF; stroke-width:0.0000; stroke-opacity:1; 
stroke-linecap:round; stroke-linejoin:round;">
<circle cx="85.1000" cy="70.6000" r="0.2000" /> 
</g>
<g style="fill:#FFFFFF; fill-opacity:1.0000; 
stroke:#FFFFFF; stroke-width:0.0212; stroke-opacity:1; 
stroke-linecap:round; stroke-linejoin:round;">
</g>
<g style="fill:#FFFFFF; fill-opacity:1.0000; 
stroke:#FFFFFF; stroke-width:0.0000; stroke-opacity:1; 
stroke-linecap:round; stroke-linejoin:round;">
<circle cx="91.4000" cy="61.4000" r="0.2000" /> 
</g>
<g style="fill:#FFFFFF; fill-opacity:1.0000; 
stroke:#FFFFFF; stroke-width:0.0212; stroke-opacity:1; 
stroke-linecap:round; stroke-linejoin:round;">
</g>
<g style="fill:#FFFFFF; fill-opacity:1.0000; 
stroke:#FFFFFF; stroke-width:0.0000; stroke-opacity:1; 
stroke-linecap:round; stroke-linejoin:round;">
<circle cx="91.4000" cy="64.9000" r="0.2000" /> 
</g>
<g style="fill:#FFFFFF; fill-opacity:1.0000; 
stroke:#FFFFFF; stroke-width:0.0212; stroke-opacity:1; 
stroke-linecap:round; stroke-linejoin:round;">
</g>
<g style="fill:#FFFFFF; fill-opacity:1.0000; 
stroke:#FFFFFF; stroke-width:0.0000; stroke-opacity:1; 
stroke-linecap:round; stroke-linejoin:round;">
<circle cx="90.7000" cy="64.9000" r="0.2000" /> 
</g>
<g style="fill:#FFFFFF; fill-opacity:1.0000; 
stroke:#FFFFFF; stroke-width:0.0212; stroke-opacity:1; 
stroke-linecap:round; stroke-linejoin:round;">
</g>
<g style="fill:#FFFFFF; fill-opacity:1.0000; 
stroke:#FFFFFF; stroke-width:0.0000; stroke-opacity:1; 
stroke-linecap:round; stroke-linejoin:round;">
<circle cx="88.6000" cy="70.6000" r="0.2000" /> 
</g>
<g style="fill:#FFFFFF; fill-opacity:1.0000; 
stroke:#FFFFFF; stroke-width:0.0212; stroke-opacity:1; 
stroke-linecap:round; stroke-linejoin:round;">
</g>
<g style="fill:#FFFFFF; fill-opacity:1.0000; 
stroke:#FFFFFF; stroke-width:0.0000; stroke-opacity:1; 
stroke-linecap:round; stroke-linejoin:round;">
<circle cx="88.6000" cy="71.4000" r="0.2000" /> 
</g>
<g style="fill:#FFFFFF; fill-opacity:1.0000; 
stroke:#FFFFFF; stroke-width:0.0212; stroke-opacity:1; 
stroke-linecap:round; stroke-linejoin:round;">
</g>
<g style="fill:#FFFFFF; fill-opacity:1.0000; 
stroke:#FFFFFF; stroke-width:0.0000; stroke-opacity:1; 
stroke-linecap:round; stroke-linejoin:round;">
<circle cx="85.1000" cy="71.4000" r="0.2000" /> 
</g>
<g style="fill:#FFFFFF; fill-opacity:1.0000; 
stroke:#FFFFFF; stroke-width:0.0212; stroke-opacity:1; 
stroke-linecap:round; stroke-linejoin:round;">
</g>
<g style="fill:#FFFFFF; fill-opacity:1.0000; 
stroke:#FFFFFF; stroke-width:0.0000; stroke-opacity:1; 
stroke-linecap:round; stroke-linejoin:round;">
<circle cx="87.9100" cy="61.8200" r="0.2000" /> 
</g>
<g style="fill:#FFFFFF; fill-opacity:1.0000; 
stroke:#FFFFFF; stroke-width:0.0212; stroke-opacity:1; 
stroke-linecap:round; stroke-linejoin:round;">
</g>
<g style="fill:#FFFFFF; fill-opacity:1.0000; 
stroke:#FFFFFF; stroke-width:0.0000; stroke-opacity:1; 
stroke-linecap:round; stroke-linejoin:round;">
<circle cx="90.0000" cy="50.0000" r="1.1000" /> 
</g>
<g style="fill:#FFFFFF; fill-opacity:1.0000; 
stroke:#FFFFFF; stroke-width:0.0212; stroke-opacity:1; 
stroke-linecap:round; stroke-linejoin:round;">
</g>
<g style="fill:#FFFFFF; fill-opacity:1.0000; 
stroke:#FFFFFF; stroke-width:0.0000; stroke-opacity:1; 
stroke-linecap:round; stroke-linejoin:round;">
<circle cx="70.0000" cy="50.0000" r="1.1000" /> 
</g>
<g style="fill:#FFFFFF; fill-opacity:1.0000; 
stroke:#FFFFFF; stroke-width:0.0212; stroke-opacity:1; 
stroke-linecap:round; stroke-linejoin:round;">
</g>
<g style="fill:#FFFFFF; fill-opacity:1.0000; 
stroke:#FFFFFF; stroke-width:0.0000; stroke-opacity:1; 
stroke-linecap:round; stroke-linejoin:round;">
<circle cx="70.0000" cy="70.0000" r="1.1000" /> 
</g>
<g style="fill:#FFFFFF; fill-opacity:1.0000; 
stroke:#FFFFFF; stroke-width:0.0212; stroke-opacity:1; 
stroke-linecap:round; stroke-linejoin:round;">
</g>
<g style="fill:#000000; fill-opacity:1.0000; 
stroke:#000000; stroke-width:0.0212; stroke-opacity:1; 
stroke-linecap:round; stroke-linejoin:round;">
</g> 
</svg>
