<?xml version="1.0" standalone="no"?>
 <!DOCTYPE svg PUBLIC "-//W3C//DTD SVG 1.1//EN" 
 "http://www.w3.org/Graphics/SVG/1.1/DTD/svg11.dtd"> 
<svg
  xmlns:svg="http://www.w3.org/2000/svg"
  xmlns="http://www.w3.org/2000/svg"
  xmlns:xlink="http://www.w3.org/1999/xlink"
  version="1.1"
  width="297.0022mm" height="210.0072mm" viewBox="0.0000 0.0000 297.0022 210.0072">
<title>SVG Image created as pedalboard-led-ring-B_Fab.svg date 2023/05/26 11:24:12 </title>
  <desc>Image generated by PCBNEW </desc>
<g style="fill:#000000; fill-opacity:1.0000;stroke:#000000; stroke-opacity:1.0000;
stroke-linecap:round; stroke-linejoin:round;"
 transform="translate(0 0) scale(1 1)">
</g>
<g style="fill:#000000; fill-opacity:0.0; 
stroke:#000000; stroke-width:0.0000; stroke-opacity:1; 
stroke-linecap:round; stroke-linejoin:round;">
</g>
<g style="fill:#000000; fill-opacity:0.0; 
stroke:#000000; stroke-width:0.1500; stroke-opacity:1; 
stroke-linecap:round; stroke-linejoin:round;">
<text x="94.9000" y="49.9000"
transform="scale(-1 1) translate(-189.800000 0)"
textLength="6.5560" font-size="1.3333" lengthAdjust="spacingAndGlyphs"
text-anchor="middle" opacity="0">TLC5973</text>
<g class="stroked-text"><desc>TLC5973</desc>
<path d="M97.9952 48.8626
L97.4238 48.8626
" />
<path d="M97.7095 49.8626
L97.7095 48.8626
" />
<path d="M96.6143 49.8626
L97.0905 49.8626
" />
<path d="M97.0905 49.8626
L97.0905 48.8626
" />
<path d="M95.7095 49.7674
L95.7571 49.8150
" />
<path d="M95.7571 49.8150
L95.9000 49.8626
" />
<path d="M95.9000 49.8626
L95.9952 49.8626
" />
<path d="M95.9952 49.8626
L96.1381 49.8150
" />
<path d="M96.1381 49.8150
L96.2333 49.7198
" />
<path d="M96.2333 49.7198
L96.2810 49.6245
" />
<path d="M96.2810 49.6245
L96.3286 49.4340
" />
<path d="M96.3286 49.4340
L96.3286 49.2912
" />
<path d="M96.3286 49.2912
L96.2810 49.1007
" />
<path d="M96.2810 49.1007
L96.2333 49.0055
" />
<path d="M96.2333 49.0055
L96.1381 48.9102
" />
<path d="M96.1381 48.9102
L95.9952 48.8626
" />
<path d="M95.9952 48.8626
L95.9000 48.8626
" />
<path d="M95.9000 48.8626
L95.7571 48.9102
" />
<path d="M95.7571 48.9102
L95.7095 48.9579
" />
<path d="M94.8048 48.8626
L95.2810 48.8626
" />
<path d="M95.2810 48.8626
L95.3286 49.3388
" />
<path d="M95.3286 49.3388
L95.2810 49.2912
" />
<path d="M95.2810 49.2912
L95.1857 49.2436
" />
<path d="M95.1857 49.2436
L94.9476 49.2436
" />
<path d="M94.9476 49.2436
L94.8524 49.2912
" />
<path d="M94.8524 49.2912
L94.8048 49.3388
" />
<path d="M94.8048 49.3388
L94.7571 49.4340
" />
<path d="M94.7571 49.4340
L94.7571 49.6721
" />
<path d="M94.7571 49.6721
L94.8048 49.7674
" />
<path d="M94.8048 49.7674
L94.8524 49.8150
" />
<path d="M94.8524 49.8150
L94.9476 49.8626
" />
<path d="M94.9476 49.8626
L95.1857 49.8626
" />
<path d="M95.1857 49.8626
L95.2810 49.8150
" />
<path d="M95.2810 49.8150
L95.3286 49.7674
" />
<path d="M94.2810 49.8626
L94.0905 49.8626
" />
<path d="M94.0905 49.8626
L93.9952 49.8150
" />
<path d="M93.9952 49.8150
L93.9476 49.7674
" />
<path d="M93.9476 49.7674
L93.8524 49.6245
" />
<path d="M93.8524 49.6245
L93.8048 49.4340
" />
<path d="M93.8048 49.4340
L93.8048 49.0531
" />
<path d="M93.8048 49.0531
L93.8524 48.9579
" />
<path d="M93.8524 48.9579
L93.9000 48.9102
" />
<path d="M93.9000 48.9102
L93.9952 48.8626
" />
<path d="M93.9952 48.8626
L94.1857 48.8626
" />
<path d="M94.1857 48.8626
L94.2810 48.9102
" />
<path d="M94.2810 48.9102
L94.3286 48.9579
" />
<path d="M94.3286 48.9579
L94.3762 49.0531
" />
<path d="M94.3762 49.0531
L94.3762 49.2912
" />
<path d="M94.3762 49.2912
L94.3286 49.3864
" />
<path d="M94.3286 49.3864
L94.2810 49.4340
" />
<path d="M94.2810 49.4340
L94.1857 49.4817
" />
<path d="M94.1857 49.4817
L93.9952 49.4817
" />
<path d="M93.9952 49.4817
L93.9000 49.4340
" />
<path d="M93.9000 49.4340
L93.8524 49.3864
" />
<path d="M93.8524 49.3864
L93.8048 49.2912
" />
<path d="M93.4714 48.8626
L92.8048 48.8626
" />
<path d="M92.8048 48.8626
L93.2333 49.8626
" />
<path d="M92.5190 48.8626
L91.9000 48.8626
" />
<path d="M91.9000 48.8626
L92.2333 49.2436
" />
<path d="M92.2333 49.2436
L92.0905 49.2436
" />
<path d="M92.0905 49.2436
L91.9952 49.2912
" />
<path d="M91.9952 49.2912
L91.9476 49.3388
" />
<path d="M91.9476 49.3388
L91.9000 49.4340
" />
<path d="M91.9000 49.4340
L91.9000 49.6721
" />
<path d="M91.9000 49.6721
L91.9476 49.7674
" />
<path d="M91.9476 49.7674
L91.9952 49.8150
" />
<path d="M91.9952 49.8150
L92.0905 49.8626
" />
<path d="M92.0905 49.8626
L92.3762 49.8626
" />
<path d="M92.3762 49.8626
L92.4714 49.8150
" />
<path d="M92.4714 49.8150
L92.5190 49.7674
" />
</g><text x="94.9000" y="53.2900"
transform="scale(-1 1) translate(-189.800000 0)"
textLength="2.1390" font-size="1.3067" lengthAdjust="spacingAndGlyphs"
text-anchor="middle" opacity="0">U1</text>
<g class="stroked-text"><desc>U1</desc>
<path d="M95.6467 52.2734
L95.6467 53.0667
" />
<path d="M95.6467 53.0667
L95.6000 53.1600
" />
<path d="M95.6000 53.1600
L95.5533 53.2067
" />
<path d="M95.5533 53.2067
L95.4600 53.2534
" />
<path d="M95.4600 53.2534
L95.2733 53.2534
" />
<path d="M95.2733 53.2534
L95.1800 53.2067
" />
<path d="M95.1800 53.2067
L95.1333 53.1600
" />
<path d="M95.1333 53.1600
L95.0867 53.0667
" />
<path d="M95.0867 53.0667
L95.0867 52.2734
" />
<path d="M94.1067 53.2534
L94.6667 53.2534
" />
<path d="M94.3867 53.2534
L94.3867 52.2734
" />
<path d="M94.3867 52.2734
L94.4800 52.4134
" />
<path d="M94.4800 52.4134
L94.5733 52.5067
" />
<path d="M94.5733 52.5067
L94.6667 52.5534
" />
</g><text x="96.6400" y="64.6950"
transform="scale(-1 1) translate(-193.280000 0)"
textLength="4.0321" font-size="1.3333" lengthAdjust="spacingAndGlyphs"
text-anchor="middle" opacity="0">10uH</text>
<g class="stroked-text"><desc>10uH</desc>
<path d="M97.8067 64.6576
L98.3781 64.6576
" />
<path d="M98.0924 64.6576
L98.0924 63.6576
" />
<path d="M98.0924 63.6576
L98.1876 63.8005
" />
<path d="M98.1876 63.8005
L98.2829 63.8957
" />
<path d="M98.2829 63.8957
L98.3781 63.9433
" />
<path d="M97.1876 63.6576
L97.0924 63.6576
" />
<path d="M97.0924 63.6576
L96.9971 63.7052
" />
<path d="M96.9971 63.7052
L96.9495 63.7529
" />
<path d="M96.9495 63.7529
L96.9019 63.8481
" />
<path d="M96.9019 63.8481
L96.8543 64.0386
" />
<path d="M96.8543 64.0386
L96.8543 64.2767
" />
<path d="M96.8543 64.2767
L96.9019 64.4671
" />
<path d="M96.9019 64.4671
L96.9495 64.5624
" />
<path d="M96.9495 64.5624
L96.9971 64.6100
" />
<path d="M96.9971 64.6100
L97.0924 64.6576
" />
<path d="M97.0924 64.6576
L97.1876 64.6576
" />
<path d="M97.1876 64.6576
L97.2829 64.6100
" />
<path d="M97.2829 64.6100
L97.3305 64.5624
" />
<path d="M97.3305 64.5624
L97.3781 64.4671
" />
<path d="M97.3781 64.4671
L97.4257 64.2767
" />
<path d="M97.4257 64.2767
L97.4257 64.0386
" />
<path d="M97.4257 64.0386
L97.3781 63.8481
" />
<path d="M97.3781 63.8481
L97.3305 63.7529
" />
<path d="M97.3305 63.7529
L97.2829 63.7052
" />
<path d="M97.2829 63.7052
L97.1876 63.6576
" />
<path d="M95.9971 63.9910
L95.9971 64.6576
" />
<path d="M96.4257 63.9910
L96.4257 64.5148
" />
<path d="M96.4257 64.5148
L96.3781 64.6100
" />
<path d="M96.3781 64.6100
L96.2829 64.6576
" />
<path d="M96.2829 64.6576
L96.1400 64.6576
" />
<path d="M96.1400 64.6576
L96.0448 64.6100
" />
<path d="M96.0448 64.6100
L95.9971 64.5624
" />
<path d="M95.5210 64.6576
L95.5210 63.6576
" />
<path d="M95.5210 64.1338
L94.9495 64.1338
" />
<path d="M94.9495 64.6576
L94.9495 63.6576
" />
</g><text x="91.9000" y="58.2500"
transform="scale(-1 1) translate(-183.800000 0)"
textLength="12.4131" font-size="1.3333" lengthAdjust="spacingAndGlyphs"
text-anchor="middle" opacity="0">2.2uF_0603_25V</text>
<g class="stroked-text"><desc>2.2uF_0603_25V</desc>
<path d="M97.8286 57.3079
L97.7810 57.2602
" />
<path d="M97.7810 57.2602
L97.6857 57.2126
" />
<path d="M97.6857 57.2126
L97.4476 57.2126
" />
<path d="M97.4476 57.2126
L97.3524 57.2602
" />
<path d="M97.3524 57.2602
L97.3048 57.3079
" />
<path d="M97.3048 57.3079
L97.2571 57.4031
" />
<path d="M97.2571 57.4031
L97.2571 57.4983
" />
<path d="M97.2571 57.4983
L97.3048 57.6412
" />
<path d="M97.3048 57.6412
L97.8762 58.2126
" />
<path d="M97.8762 58.2126
L97.2571 58.2126
" />
<path d="M96.8286 58.1174
L96.7810 58.1650
" />
<path d="M96.7810 58.1650
L96.8286 58.2126
" />
<path d="M96.8286 58.2126
L96.8762 58.1650
" />
<path d="M96.8762 58.1650
L96.8286 58.1174
" />
<path d="M96.8286 58.1174
L96.8286 58.2126
" />
<path d="M96.4000 57.3079
L96.3524 57.2602
" />
<path d="M96.3524 57.2602
L96.2571 57.2126
" />
<path d="M96.2571 57.2126
L96.0190 57.2126
" />
<path d="M96.0190 57.2126
L95.9238 57.2602
" />
<path d="M95.9238 57.2602
L95.8762 57.3079
" />
<path d="M95.8762 57.3079
L95.8286 57.4031
" />
<path d="M95.8286 57.4031
L95.8286 57.4983
" />
<path d="M95.8286 57.4983
L95.8762 57.6412
" />
<path d="M95.8762 57.6412
L96.4476 58.2126
" />
<path d="M96.4476 58.2126
L95.8286 58.2126
" />
<path d="M94.9714 57.5460
L94.9714 58.2126
" />
<path d="M95.4000 57.5460
L95.4000 58.0698
" />
<path d="M95.4000 58.0698
L95.3524 58.1650
" />
<path d="M95.3524 58.1650
L95.2571 58.2126
" />
<path d="M95.2571 58.2126
L95.1143 58.2126
" />
<path d="M95.1143 58.2126
L95.0190 58.1650
" />
<path d="M95.0190 58.1650
L94.9714 58.1174
" />
<path d="M94.1619 57.6888
L94.4952 57.6888
" />
<path d="M94.4952 58.2126
L94.4952 57.2126
" />
<path d="M94.4952 57.2126
L94.0190 57.2126
" />
<path d="M93.8762 58.3079
L93.1143 58.3079
" />
<path d="M92.6857 57.2126
L92.5905 57.2126
" />
<path d="M92.5905 57.2126
L92.4952 57.2602
" />
<path d="M92.4952 57.2602
L92.4476 57.3079
" />
<path d="M92.4476 57.3079
L92.4000 57.4031
" />
<path d="M92.4000 57.4031
L92.3524 57.5936
" />
<path d="M92.3524 57.5936
L92.3524 57.8317
" />
<path d="M92.3524 57.8317
L92.4000 58.0221
" />
<path d="M92.4000 58.0221
L92.4476 58.1174
" />
<path d="M92.4476 58.1174
L92.4952 58.1650
" />
<path d="M92.4952 58.1650
L92.5905 58.2126
" />
<path d="M92.5905 58.2126
L92.6857 58.2126
" />
<path d="M92.6857 58.2126
L92.7810 58.1650
" />
<path d="M92.7810 58.1650
L92.8286 58.1174
" />
<path d="M92.8286 58.1174
L92.8762 58.0221
" />
<path d="M92.8762 58.0221
L92.9238 57.8317
" />
<path d="M92.9238 57.8317
L92.9238 57.5936
" />
<path d="M92.9238 57.5936
L92.8762 57.4031
" />
<path d="M92.8762 57.4031
L92.8286 57.3079
" />
<path d="M92.8286 57.3079
L92.7810 57.2602
" />
<path d="M92.7810 57.2602
L92.6857 57.2126
" />
<path d="M91.4952 57.2126
L91.6857 57.2126
" />
<path d="M91.6857 57.2126
L91.7810 57.2602
" />
<path d="M91.7810 57.2602
L91.8286 57.3079
" />
<path d="M91.8286 57.3079
L91.9238 57.4507
" />
<path d="M91.9238 57.4507
L91.9714 57.6412
" />
<path d="M91.9714 57.6412
L91.9714 58.0221
" />
<path d="M91.9714 58.0221
L91.9238 58.1174
" />
<path d="M91.9238 58.1174
L91.8762 58.1650
" />
<path d="M91.8762 58.1650
L91.7810 58.2126
" />
<path d="M91.7810 58.2126
L91.5905 58.2126
" />
<path d="M91.5905 58.2126
L91.4952 58.1650
" />
<path d="M91.4952 58.1650
L91.4476 58.1174
" />
<path d="M91.4476 58.1174
L91.4000 58.0221
" />
<path d="M91.4000 58.0221
L91.4000 57.7840
" />
<path d="M91.4000 57.7840
L91.4476 57.6888
" />
<path d="M91.4476 57.6888
L91.4952 57.6412
" />
<path d="M91.4952 57.6412
L91.5905 57.5936
" />
<path d="M91.5905 57.5936
L91.7810 57.5936
" />
<path d="M91.7810 57.5936
L91.8762 57.6412
" />
<path d="M91.8762 57.6412
L91.9238 57.6888
" />
<path d="M91.9238 57.6888
L91.9714 57.7840
" />
<path d="M90.7810 57.2126
L90.6857 57.2126
" />
<path d="M90.6857 57.2126
L90.5905 57.2602
" />
<path d="M90.5905 57.2602
L90.5429 57.3079
" />
<path d="M90.5429 57.3079
L90.4952 57.4031
" />
<path d="M90.4952 57.4031
L90.4476 57.5936
" />
<path d="M90.4476 57.5936
L90.4476 57.8317
" />
<path d="M90.4476 57.8317
L90.4952 58.0221
" />
<path d="M90.4952 58.0221
L90.5429 58.1174
" />
<path d="M90.5429 58.1174
L90.5905 58.1650
" />
<path d="M90.5905 58.1650
L90.6857 58.2126
" />
<path d="M90.6857 58.2126
L90.7810 58.2126
" />
<path d="M90.7810 58.2126
L90.8762 58.1650
" />
<path d="M90.8762 58.1650
L90.9238 58.1174
" />
<path d="M90.9238 58.1174
L90.9714 58.0221
" />
<path d="M90.9714 58.0221
L91.0190 57.8317
" />
<path d="M91.0190 57.8317
L91.0190 57.5936
" />
<path d="M91.0190 57.5936
L90.9714 57.4031
" />
<path d="M90.9714 57.4031
L90.9238 57.3079
" />
<path d="M90.9238 57.3079
L90.8762 57.2602
" />
<path d="M90.8762 57.2602
L90.7810 57.2126
" />
<path d="M90.1143 57.2126
L89.4952 57.2126
" />
<path d="M89.4952 57.2126
L89.8286 57.5936
" />
<path d="M89.8286 57.5936
L89.6857 57.5936
" />
<path d="M89.6857 57.5936
L89.5905 57.6412
" />
<path d="M89.5905 57.6412
L89.5429 57.6888
" />
<path d="M89.5429 57.6888
L89.4952 57.7840
" />
<path d="M89.4952 57.7840
L89.4952 58.0221
" />
<path d="M89.4952 58.0221
L89.5429 58.1174
" />
<path d="M89.5429 58.1174
L89.5905 58.1650
" />
<path d="M89.5905 58.1650
L89.6857 58.2126
" />
<path d="M89.6857 58.2126
L89.9714 58.2126
" />
<path d="M89.9714 58.2126
L90.0667 58.1650
" />
<path d="M90.0667 58.1650
L90.1143 58.1174
" />
<path d="M89.3048 58.3079
L88.5429 58.3079
" />
<path d="M88.3524 57.3079
L88.3048 57.2602
" />
<path d="M88.3048 57.2602
L88.2095 57.2126
" />
<path d="M88.2095 57.2126
L87.9714 57.2126
" />
<path d="M87.9714 57.2126
L87.8762 57.2602
" />
<path d="M87.8762 57.2602
L87.8286 57.3079
" />
<path d="M87.8286 57.3079
L87.7810 57.4031
" />
<path d="M87.7810 57.4031
L87.7810 57.4983
" />
<path d="M87.7810 57.4983
L87.8286 57.6412
" />
<path d="M87.8286 57.6412
L88.4000 58.2126
" />
<path d="M88.4000 58.2126
L87.7810 58.2126
" />
<path d="M86.8762 57.2126
L87.3524 57.2126
" />
<path d="M87.3524 57.2126
L87.4000 57.6888
" />
<path d="M87.4000 57.6888
L87.3524 57.6412
" />
<path d="M87.3524 57.6412
L87.2571 57.5936
" />
<path d="M87.2571 57.5936
L87.0190 57.5936
" />
<path d="M87.0190 57.5936
L86.9238 57.6412
" />
<path d="M86.9238 57.6412
L86.8762 57.6888
" />
<path d="M86.8762 57.6888
L86.8286 57.7840
" />
<path d="M86.8286 57.7840
L86.8286 58.0221
" />
<path d="M86.8286 58.0221
L86.8762 58.1174
" />
<path d="M86.8762 58.1174
L86.9238 58.1650
" />
<path d="M86.9238 58.1650
L87.0190 58.2126
" />
<path d="M87.0190 58.2126
L87.2571 58.2126
" />
<path d="M87.2571 58.2126
L87.3524 58.1650
" />
<path d="M87.3524 58.1650
L87.4000 58.1174
" />
<path d="M86.5429 57.2126
L86.2095 58.2126
" />
<path d="M86.2095 58.2126
L85.8762 57.2126
" />
</g></g>
<g style="fill:#000000; fill-opacity:0.0; 
stroke:#000000; stroke-width:0.1200; stroke-opacity:1; 
stroke-linecap:round; stroke-linejoin:round;">
<text x="91.9000" y="60.0000"
transform="scale(-1 1) translate(-183.800000 0)"
textLength="1.7019" font-size="1.0667" lengthAdjust="spacingAndGlyphs"
text-anchor="middle" opacity="0">C1</text>
<g class="stroked-text"><desc>C1</desc>
<path d="M92.0333 59.8939
L92.0714 59.9320
" />
<path d="M92.0714 59.9320
L92.1857 59.9701
" />
<path d="M92.1857 59.9701
L92.2619 59.9701
" />
<path d="M92.2619 59.9701
L92.3762 59.9320
" />
<path d="M92.3762 59.9320
L92.4524 59.8558
" />
<path d="M92.4524 59.8558
L92.4905 59.7796
" />
<path d="M92.4905 59.7796
L92.5286 59.6272
" />
<path d="M92.5286 59.6272
L92.5286 59.5130
" />
<path d="M92.5286 59.5130
L92.4905 59.3606
" />
<path d="M92.4905 59.3606
L92.4524 59.2844
" />
<path d="M92.4524 59.2844
L92.3762 59.2082
" />
<path d="M92.3762 59.2082
L92.2619 59.1701
" />
<path d="M92.2619 59.1701
L92.1857 59.1701
" />
<path d="M92.1857 59.1701
L92.0714 59.2082
" />
<path d="M92.0714 59.2082
L92.0333 59.2463
" />
<path d="M91.2714 59.9701
L91.7286 59.9701
" />
<path d="M91.5000 59.9701
L91.5000 59.1701
" />
<path d="M91.5000 59.1701
L91.5762 59.2844
" />
<path d="M91.5762 59.2844
L91.6524 59.3606
" />
<path d="M91.6524 59.3606
L91.7286 59.3987
" />
</g></g>
<g style="fill:#000000; fill-opacity:0.0; 
stroke:#000000; stroke-width:0.1500; stroke-opacity:1; 
stroke-linecap:round; stroke-linejoin:round;">
<g transform="rotate(-90.000000 100.9100 68.0000)">
<text x="100.9100" y="68.5000"
transform="scale(-1 1) translate(-201.820000 0)"
textLength="9.2702" font-size="1.3333" lengthAdjust="spacingAndGlyphs"
text-anchor="middle" opacity="0">Conn_02x03</text>
</g>
<g class="stroked-text"><desc>Conn_02x03</desc>
<path d="M101.2774 64.2619
L101.3250 64.2143
" />
<path d="M101.3250 64.2143
L101.3726 64.0714
" />
<path d="M101.3726 64.0714
L101.3726 63.9762
" />
<path d="M101.3726 63.9762
L101.3250 63.8333
" />
<path d="M101.3250 63.8333
L101.2298 63.7381
" />
<path d="M101.2298 63.7381
L101.1345 63.6905
" />
<path d="M101.1345 63.6905
L100.9440 63.6429
" />
<path d="M100.9440 63.6429
L100.8012 63.6429
" />
<path d="M100.8012 63.6429
L100.6107 63.6905
" />
<path d="M100.6107 63.6905
L100.5155 63.7381
" />
<path d="M100.5155 63.7381
L100.4202 63.8333
" />
<path d="M100.4202 63.8333
L100.3726 63.9762
" />
<path d="M100.3726 63.9762
L100.3726 64.0714
" />
<path d="M100.3726 64.0714
L100.4202 64.2143
" />
<path d="M100.4202 64.2143
L100.4679 64.2619
" />
<path d="M101.3726 64.8333
L101.3250 64.7381
" />
<path d="M101.3250 64.7381
L101.2774 64.6905
" />
<path d="M101.2774 64.6905
L101.1821 64.6429
" />
<path d="M101.1821 64.6429
L100.8964 64.6429
" />
<path d="M100.8964 64.6429
L100.8012 64.6905
" />
<path d="M100.8012 64.6905
L100.7536 64.7381
" />
<path d="M100.7536 64.7381
L100.7060 64.8333
" />
<path d="M100.7060 64.8333
L100.7060 64.9762
" />
<path d="M100.7060 64.9762
L100.7536 65.0714
" />
<path d="M100.7536 65.0714
L100.8012 65.1190
" />
<path d="M100.8012 65.1190
L100.8964 65.1667
" />
<path d="M100.8964 65.1667
L101.1821 65.1667
" />
<path d="M101.1821 65.1667
L101.2774 65.1190
" />
<path d="M101.2774 65.1190
L101.3250 65.0714
" />
<path d="M101.3250 65.0714
L101.3726 64.9762
" />
<path d="M101.3726 64.9762
L101.3726 64.8333
" />
<path d="M100.7060 65.5952
L101.3726 65.5952
" />
<path d="M100.8012 65.5952
L100.7536 65.6429
" />
<path d="M100.7536 65.6429
L100.7060 65.7381
" />
<path d="M100.7060 65.7381
L100.7060 65.8810
" />
<path d="M100.7060 65.8810
L100.7536 65.9762
" />
<path d="M100.7536 65.9762
L100.8488 66.0238
" />
<path d="M100.8488 66.0238
L101.3726 66.0238
" />
<path d="M100.7060 66.5000
L101.3726 66.5000
" />
<path d="M100.8012 66.5000
L100.7536 66.5476
" />
<path d="M100.7536 66.5476
L100.7060 66.6429
" />
<path d="M100.7060 66.6429
L100.7060 66.7857
" />
<path d="M100.7060 66.7857
L100.7536 66.8810
" />
<path d="M100.7536 66.8810
L100.8488 66.9286
" />
<path d="M100.8488 66.9286
L101.3726 66.9286
" />
<path d="M101.4679 67.1667
L101.4679 67.9286
" />
<path d="M100.3726 68.3571
L100.3726 68.4524
" />
<path d="M100.3726 68.4524
L100.4202 68.5476
" />
<path d="M100.4202 68.5476
L100.4679 68.5952
" />
<path d="M100.4679 68.5952
L100.5631 68.6429
" />
<path d="M100.5631 68.6429
L100.7536 68.6905
" />
<path d="M100.7536 68.6905
L100.9917 68.6905
" />
<path d="M100.9917 68.6905
L101.1821 68.6429
" />
<path d="M101.1821 68.6429
L101.2774 68.5952
" />
<path d="M101.2774 68.5952
L101.3250 68.5476
" />
<path d="M101.3250 68.5476
L101.3726 68.4524
" />
<path d="M101.3726 68.4524
L101.3726 68.3571
" />
<path d="M101.3726 68.3571
L101.3250 68.2619
" />
<path d="M101.3250 68.2619
L101.2774 68.2143
" />
<path d="M101.2774 68.2143
L101.1821 68.1667
" />
<path d="M101.1821 68.1667
L100.9917 68.1190
" />
<path d="M100.9917 68.1190
L100.7536 68.1190
" />
<path d="M100.7536 68.1190
L100.5631 68.1667
" />
<path d="M100.5631 68.1667
L100.4679 68.2143
" />
<path d="M100.4679 68.2143
L100.4202 68.2619
" />
<path d="M100.4202 68.2619
L100.3726 68.3571
" />
<path d="M100.4679 69.0714
L100.4202 69.1190
" />
<path d="M100.4202 69.1190
L100.3726 69.2143
" />
<path d="M100.3726 69.2143
L100.3726 69.4524
" />
<path d="M100.3726 69.4524
L100.4202 69.5476
" />
<path d="M100.4202 69.5476
L100.4679 69.5952
" />
<path d="M100.4679 69.5952
L100.5631 69.6429
" />
<path d="M100.5631 69.6429
L100.6583 69.6429
" />
<path d="M100.6583 69.6429
L100.8012 69.5952
" />
<path d="M100.8012 69.5952
L101.3726 69.0238
" />
<path d="M101.3726 69.0238
L101.3726 69.6429
" />
<path d="M101.3726 69.9762
L100.7060 70.5000
" />
<path d="M100.7060 69.9762
L101.3726 70.5000
" />
<path d="M100.3726 71.0714
L100.3726 71.1667
" />
<path d="M100.3726 71.1667
L100.4202 71.2619
" />
<path d="M100.4202 71.2619
L100.4679 71.3095
" />
<path d="M100.4679 71.3095
L100.5631 71.3571
" />
<path d="M100.5631 71.3571
L100.7536 71.4048
" />
<path d="M100.7536 71.4048
L100.9917 71.4048
" />
<path d="M100.9917 71.4048
L101.1821 71.3571
" />
<path d="M101.1821 71.3571
L101.2774 71.3095
" />
<path d="M101.2774 71.3095
L101.3250 71.2619
" />
<path d="M101.3250 71.2619
L101.3726 71.1667
" />
<path d="M101.3726 71.1667
L101.3726 71.0714
" />
<path d="M101.3726 71.0714
L101.3250 70.9762
" />
<path d="M101.3250 70.9762
L101.2774 70.9286
" />
<path d="M101.2774 70.9286
L101.1821 70.8810
" />
<path d="M101.1821 70.8810
L100.9917 70.8333
" />
<path d="M100.9917 70.8333
L100.7536 70.8333
" />
<path d="M100.7536 70.8333
L100.5631 70.8810
" />
<path d="M100.5631 70.8810
L100.4679 70.9286
" />
<path d="M100.4679 70.9286
L100.4202 70.9762
" />
<path d="M100.4202 70.9762
L100.3726 71.0714
" />
<path d="M100.3726 71.7381
L100.3726 72.3571
" />
<path d="M100.3726 72.3571
L100.7536 72.0238
" />
<path d="M100.7536 72.0238
L100.7536 72.1667
" />
<path d="M100.7536 72.1667
L100.8012 72.2619
" />
<path d="M100.8012 72.2619
L100.8488 72.3095
" />
<path d="M100.8488 72.3095
L100.9440 72.3571
" />
<path d="M100.9440 72.3571
L101.1821 72.3571
" />
<path d="M101.1821 72.3571
L101.2774 72.3095
" />
<path d="M101.2774 72.3095
L101.3250 72.2619
" />
<path d="M101.3250 72.2619
L101.3726 72.1667
" />
<path d="M101.3726 72.1667
L101.3726 71.8810
" />
<path d="M101.3726 71.8810
L101.3250 71.7857
" />
<path d="M101.3250 71.7857
L101.2774 71.7381
" />
</g><text x="95.6000" y="68.5000"
transform="scale(-1 1) translate(-191.200000 0)"
textLength="1.8893" font-size="1.3333" lengthAdjust="spacingAndGlyphs"
text-anchor="middle" opacity="0">J1</text>
<g class="stroked-text"><desc>J1</desc>
<path d="M95.9333 67.4626
L95.9333 68.1769
" />
<path d="M95.9333 68.1769
L95.9810 68.3198
" />
<path d="M95.9810 68.3198
L96.0762 68.4150
" />
<path d="M96.0762 68.4150
L96.2190 68.4626
" />
<path d="M96.2190 68.4626
L96.3143 68.4626
" />
<path d="M94.9333 68.4626
L95.5048 68.4626
" />
<path d="M95.2190 68.4626
L95.2190 67.4626
" />
<path d="M95.2190 67.4626
L95.3143 67.6055
" />
<path d="M95.3143 67.6055
L95.4095 67.7007
" />
<path d="M95.4095 67.7007
L95.5048 67.7483
" />
</g><text x="86.4000" y="75.0500"
transform="scale(-1 1) translate(-172.800000 0)"
textLength="13.1750" font-size="1.3333" lengthAdjust="spacingAndGlyphs"
text-anchor="middle" opacity="0">LT3494AEDDBPBF</text>
<g class="stroked-text"><desc>LT3494AEDDBPBF</desc>
<path d="M92.1857 75.0126
L92.6619 75.0126
" />
<path d="M92.6619 75.0126
L92.6619 74.0126
" />
<path d="M91.9952 74.0126
L91.4238 74.0126
" />
<path d="M91.7095 75.0126
L91.7095 74.0126
" />
<path d="M91.1857 74.0126
L90.5667 74.0126
" />
<path d="M90.5667 74.0126
L90.9000 74.3936
" />
<path d="M90.9000 74.3936
L90.7571 74.3936
" />
<path d="M90.7571 74.3936
L90.6619 74.4412
" />
<path d="M90.6619 74.4412
L90.6143 74.4888
" />
<path d="M90.6143 74.4888
L90.5667 74.5840
" />
<path d="M90.5667 74.5840
L90.5667 74.8221
" />
<path d="M90.5667 74.8221
L90.6143 74.9174
" />
<path d="M90.6143 74.9174
L90.6619 74.9650
" />
<path d="M90.6619 74.9650
L90.7571 75.0126
" />
<path d="M90.7571 75.0126
L91.0429 75.0126
" />
<path d="M91.0429 75.0126
L91.1381 74.9650
" />
<path d="M91.1381 74.9650
L91.1857 74.9174
" />
<path d="M89.7095 74.3460
L89.7095 75.0126
" />
<path d="M89.9476 73.9650
L90.1857 74.6793
" />
<path d="M90.1857 74.6793
L89.5667 74.6793
" />
<path d="M89.1381 75.0126
L88.9476 75.0126
" />
<path d="M88.9476 75.0126
L88.8524 74.9650
" />
<path d="M88.8524 74.9650
L88.8048 74.9174
" />
<path d="M88.8048 74.9174
L88.7095 74.7745
" />
<path d="M88.7095 74.7745
L88.6619 74.5840
" />
<path d="M88.6619 74.5840
L88.6619 74.2031
" />
<path d="M88.6619 74.2031
L88.7095 74.1079
" />
<path d="M88.7095 74.1079
L88.7571 74.0602
" />
<path d="M88.7571 74.0602
L88.8524 74.0126
" />
<path d="M88.8524 74.0126
L89.0429 74.0126
" />
<path d="M89.0429 74.0126
L89.1381 74.0602
" />
<path d="M89.1381 74.0602
L89.1857 74.1079
" />
<path d="M89.1857 74.1079
L89.2333 74.2031
" />
<path d="M89.2333 74.2031
L89.2333 74.4412
" />
<path d="M89.2333 74.4412
L89.1857 74.5364
" />
<path d="M89.1857 74.5364
L89.1381 74.5840
" />
<path d="M89.1381 74.5840
L89.0429 74.6317
" />
<path d="M89.0429 74.6317
L88.8524 74.6317
" />
<path d="M88.8524 74.6317
L88.7571 74.5840
" />
<path d="M88.7571 74.5840
L88.7095 74.5364
" />
<path d="M88.7095 74.5364
L88.6619 74.4412
" />
<path d="M87.8048 74.3460
L87.8048 75.0126
" />
<path d="M88.0429 73.9650
L88.2810 74.6793
" />
<path d="M88.2810 74.6793
L87.6619 74.6793
" />
<path d="M87.3286 74.7269
L86.8524 74.7269
" />
<path d="M87.4238 75.0126
L87.0905 74.0126
" />
<path d="M87.0905 74.0126
L86.7571 75.0126
" />
<path d="M86.4238 74.4888
L86.0905 74.4888
" />
<path d="M85.9476 75.0126
L86.4238 75.0126
" />
<path d="M86.4238 75.0126
L86.4238 74.0126
" />
<path d="M86.4238 74.0126
L85.9476 74.0126
" />
<path d="M85.5190 75.0126
L85.5190 74.0126
" />
<path d="M85.5190 74.0126
L85.2810 74.0126
" />
<path d="M85.2810 74.0126
L85.1381 74.0602
" />
<path d="M85.1381 74.0602
L85.0429 74.1555
" />
<path d="M85.0429 74.1555
L84.9952 74.2507
" />
<path d="M84.9952 74.2507
L84.9476 74.4412
" />
<path d="M84.9476 74.4412
L84.9476 74.5840
" />
<path d="M84.9476 74.5840
L84.9952 74.7745
" />
<path d="M84.9952 74.7745
L85.0429 74.8698
" />
<path d="M85.0429 74.8698
L85.1381 74.9650
" />
<path d="M85.1381 74.9650
L85.2810 75.0126
" />
<path d="M85.2810 75.0126
L85.5190 75.0126
" />
<path d="M84.5190 75.0126
L84.5190 74.0126
" />
<path d="M84.5190 74.0126
L84.2810 74.0126
" />
<path d="M84.2810 74.0126
L84.1381 74.0602
" />
<path d="M84.1381 74.0602
L84.0429 74.1555
" />
<path d="M84.0429 74.1555
L83.9952 74.2507
" />
<path d="M83.9952 74.2507
L83.9476 74.4412
" />
<path d="M83.9476 74.4412
L83.9476 74.5840
" />
<path d="M83.9476 74.5840
L83.9952 74.7745
" />
<path d="M83.9952 74.7745
L84.0429 74.8698
" />
<path d="M84.0429 74.8698
L84.1381 74.9650
" />
<path d="M84.1381 74.9650
L84.2810 75.0126
" />
<path d="M84.2810 75.0126
L84.5190 75.0126
" />
<path d="M83.1857 74.4888
L83.0429 74.5364
" />
<path d="M83.0429 74.5364
L82.9952 74.5840
" />
<path d="M82.9952 74.5840
L82.9476 74.6793
" />
<path d="M82.9476 74.6793
L82.9476 74.8221
" />
<path d="M82.9476 74.8221
L82.9952 74.9174
" />
<path d="M82.9952 74.9174
L83.0429 74.9650
" />
<path d="M83.0429 74.9650
L83.1381 75.0126
" />
<path d="M83.1381 75.0126
L83.5190 75.0126
" />
<path d="M83.5190 75.0126
L83.5190 74.0126
" />
<path d="M83.5190 74.0126
L83.1857 74.0126
" />
<path d="M83.1857 74.0126
L83.0905 74.0602
" />
<path d="M83.0905 74.0602
L83.0429 74.1079
" />
<path d="M83.0429 74.1079
L82.9952 74.2031
" />
<path d="M82.9952 74.2031
L82.9952 74.2983
" />
<path d="M82.9952 74.2983
L83.0429 74.3936
" />
<path d="M83.0429 74.3936
L83.0905 74.4412
" />
<path d="M83.0905 74.4412
L83.1857 74.4888
" />
<path d="M83.1857 74.4888
L83.5190 74.4888
" />
<path d="M82.5190 75.0126
L82.5190 74.0126
" />
<path d="M82.5190 74.0126
L82.1381 74.0126
" />
<path d="M82.1381 74.0126
L82.0429 74.0602
" />
<path d="M82.0429 74.0602
L81.9952 74.1079
" />
<path d="M81.9952 74.1079
L81.9476 74.2031
" />
<path d="M81.9476 74.2031
L81.9476 74.3460
" />
<path d="M81.9476 74.3460
L81.9952 74.4412
" />
<path d="M81.9952 74.4412
L82.0429 74.4888
" />
<path d="M82.0429 74.4888
L82.1381 74.5364
" />
<path d="M82.1381 74.5364
L82.5190 74.5364
" />
<path d="M81.1857 74.4888
L81.0429 74.5364
" />
<path d="M81.0429 74.5364
L80.9952 74.5840
" />
<path d="M80.9952 74.5840
L80.9476 74.6793
" />
<path d="M80.9476 74.6793
L80.9476 74.8221
" />
<path d="M80.9476 74.8221
L80.9952 74.9174
" />
<path d="M80.9952 74.9174
L81.0429 74.9650
" />
<path d="M81.0429 74.9650
L81.1381 75.0126
" />
<path d="M81.1381 75.0126
L81.5190 75.0126
" />
<path d="M81.5190 75.0126
L81.5190 74.0126
" />
<path d="M81.5190 74.0126
L81.1857 74.0126
" />
<path d="M81.1857 74.0126
L81.0905 74.0602
" />
<path d="M81.0905 74.0602
L81.0429 74.1079
" />
<path d="M81.0429 74.1079
L80.9952 74.2031
" />
<path d="M80.9952 74.2031
L80.9952 74.2983
" />
<path d="M80.9952 74.2983
L81.0429 74.3936
" />
<path d="M81.0429 74.3936
L81.0905 74.4412
" />
<path d="M81.0905 74.4412
L81.1857 74.4888
" />
<path d="M81.1857 74.4888
L81.5190 74.4888
" />
<path d="M80.1857 74.4888
L80.5190 74.4888
" />
<path d="M80.5190 75.0126
L80.5190 74.0126
" />
<path d="M80.5190 74.0126
L80.0429 74.0126
" />
</g></g>
<g style="fill:#000000; fill-opacity:0.0; 
stroke:#000000; stroke-width:0.0750; stroke-opacity:1; 
stroke-linecap:round; stroke-linejoin:round;">
<g transform="rotate(-90.000000 86.4000 72.0000)">
<text x="86.4000" y="72.2500"
transform="scale(-1 1) translate(-172.800000 0)"
textLength="1.0875" font-size="0.6667" lengthAdjust="spacingAndGlyphs"
text-anchor="middle" opacity="0">U2</text>
</g>
<g class="stroked-text"><desc>U2</desc>
<path d="M86.1313 71.6190
L86.5361 71.6190
" />
<path d="M86.5361 71.6190
L86.5837 71.6429
" />
<path d="M86.5837 71.6429
L86.6075 71.6667
" />
<path d="M86.6075 71.6667
L86.6313 71.7143
" />
<path d="M86.6313 71.7143
L86.6313 71.8095
" />
<path d="M86.6313 71.8095
L86.6075 71.8571
" />
<path d="M86.6075 71.8571
L86.5837 71.8810
" />
<path d="M86.5837 71.8810
L86.5361 71.9048
" />
<path d="M86.5361 71.9048
L86.1313 71.9048
" />
<path d="M86.1789 72.1190
L86.1551 72.1429
" />
<path d="M86.1551 72.1429
L86.1313 72.1905
" />
<path d="M86.1313 72.1905
L86.1313 72.3095
" />
<path d="M86.1313 72.3095
L86.1551 72.3571
" />
<path d="M86.1551 72.3571
L86.1789 72.3810
" />
<path d="M86.1789 72.3810
L86.2265 72.4048
" />
<path d="M86.2265 72.4048
L86.2742 72.4048
" />
<path d="M86.2742 72.4048
L86.3456 72.3810
" />
<path d="M86.3456 72.3810
L86.6313 72.0952
" />
<path d="M86.6313 72.0952
L86.6313 72.4048
" />
</g></g>
<g style="fill:#000000; fill-opacity:0.0; 
stroke:#000000; stroke-width:0.1500; stroke-opacity:1; 
stroke-linecap:round; stroke-linejoin:round;">
<g transform="rotate(-90.000000 99.4800 57.5000)">
<text x="99.4800" y="58.0000"
transform="scale(-1 1) translate(-198.960000 0)"
textLength="4.7940" font-size="1.3333" lengthAdjust="spacingAndGlyphs"
text-anchor="middle" opacity="0">100nF</text>
</g>
<g class="stroked-text"><desc>100nF</desc>
<path d="M99.9426 55.9524
L99.9426 55.3810
" />
<path d="M99.9426 55.6667
L98.9426 55.6667
" />
<path d="M98.9426 55.6667
L99.0855 55.5714
" />
<path d="M99.0855 55.5714
L99.1807 55.4762
" />
<path d="M99.1807 55.4762
L99.2283 55.3810
" />
<path d="M98.9426 56.5714
L98.9426 56.6667
" />
<path d="M98.9426 56.6667
L98.9902 56.7619
" />
<path d="M98.9902 56.7619
L99.0379 56.8095
" />
<path d="M99.0379 56.8095
L99.1331 56.8571
" />
<path d="M99.1331 56.8571
L99.3236 56.9048
" />
<path d="M99.3236 56.9048
L99.5617 56.9048
" />
<path d="M99.5617 56.9048
L99.7521 56.8571
" />
<path d="M99.7521 56.8571
L99.8474 56.8095
" />
<path d="M99.8474 56.8095
L99.8950 56.7619
" />
<path d="M99.8950 56.7619
L99.9426 56.6667
" />
<path d="M99.9426 56.6667
L99.9426 56.5714
" />
<path d="M99.9426 56.5714
L99.8950 56.4762
" />
<path d="M99.8950 56.4762
L99.8474 56.4286
" />
<path d="M99.8474 56.4286
L99.7521 56.3810
" />
<path d="M99.7521 56.3810
L99.5617 56.3333
" />
<path d="M99.5617 56.3333
L99.3236 56.3333
" />
<path d="M99.3236 56.3333
L99.1331 56.3810
" />
<path d="M99.1331 56.3810
L99.0379 56.4286
" />
<path d="M99.0379 56.4286
L98.9902 56.4762
" />
<path d="M98.9902 56.4762
L98.9426 56.5714
" />
<path d="M98.9426 57.5238
L98.9426 57.6190
" />
<path d="M98.9426 57.6190
L98.9902 57.7143
" />
<path d="M98.9902 57.7143
L99.0379 57.7619
" />
<path d="M99.0379 57.7619
L99.1331 57.8095
" />
<path d="M99.1331 57.8095
L99.3236 57.8571
" />
<path d="M99.3236 57.8571
L99.5617 57.8571
" />
<path d="M99.5617 57.8571
L99.7521 57.8095
" />
<path d="M99.7521 57.8095
L99.8474 57.7619
" />
<path d="M99.8474 57.7619
L99.8950 57.7143
" />
<path d="M99.8950 57.7143
L99.9426 57.6190
" />
<path d="M99.9426 57.6190
L99.9426 57.5238
" />
<path d="M99.9426 57.5238
L99.8950 57.4286
" />
<path d="M99.8950 57.4286
L99.8474 57.3810
" />
<path d="M99.8474 57.3810
L99.7521 57.3333
" />
<path d="M99.7521 57.3333
L99.5617 57.2857
" />
<path d="M99.5617 57.2857
L99.3236 57.2857
" />
<path d="M99.3236 57.2857
L99.1331 57.3333
" />
<path d="M99.1331 57.3333
L99.0379 57.3810
" />
<path d="M99.0379 57.3810
L98.9902 57.4286
" />
<path d="M98.9902 57.4286
L98.9426 57.5238
" />
<path d="M99.2760 58.2857
L99.9426 58.2857
" />
<path d="M99.3712 58.2857
L99.3236 58.3333
" />
<path d="M99.3236 58.3333
L99.2760 58.4286
" />
<path d="M99.2760 58.4286
L99.2760 58.5714
" />
<path d="M99.2760 58.5714
L99.3236 58.6667
" />
<path d="M99.3236 58.6667
L99.4188 58.7143
" />
<path d="M99.4188 58.7143
L99.9426 58.7143
" />
<path d="M99.4188 59.5238
L99.4188 59.1905
" />
<path d="M99.9426 59.1905
L98.9426 59.1905
" />
<path d="M98.9426 59.1905
L98.9426 59.6667
" />
</g></g>
<g style="fill:#000000; fill-opacity:0.0; 
stroke:#000000; stroke-width:0.0800; stroke-opacity:1; 
stroke-linecap:round; stroke-linejoin:round;">
<g transform="rotate(-90.000000 97.8000 57.5000)">
<text x="97.8000" y="57.7500"
transform="scale(-1 1) translate(-195.600000 0)"
textLength="1.0762" font-size="0.6667" lengthAdjust="spacingAndGlyphs"
text-anchor="middle" opacity="0">C2</text>
</g>
<g class="stroked-text"><desc>C2</desc>
<path d="M97.9837 57.4167
L98.0075 57.3929
" />
<path d="M98.0075 57.3929
L98.0313 57.3214
" />
<path d="M98.0313 57.3214
L98.0313 57.2738
" />
<path d="M98.0313 57.2738
L98.0075 57.2024
" />
<path d="M98.0075 57.2024
L97.9599 57.1548
" />
<path d="M97.9599 57.1548
L97.9123 57.1310
" />
<path d="M97.9123 57.1310
L97.8170 57.1071
" />
<path d="M97.8170 57.1071
L97.7456 57.1071
" />
<path d="M97.7456 57.1071
L97.6504 57.1310
" />
<path d="M97.6504 57.1310
L97.6027 57.1548
" />
<path d="M97.6027 57.1548
L97.5551 57.2024
" />
<path d="M97.5551 57.2024
L97.5313 57.2738
" />
<path d="M97.5313 57.2738
L97.5313 57.3214
" />
<path d="M97.5313 57.3214
L97.5551 57.3929
" />
<path d="M97.5551 57.3929
L97.5789 57.4167
" />
<path d="M97.5789 57.6071
L97.5551 57.6310
" />
<path d="M97.5551 57.6310
L97.5313 57.6786
" />
<path d="M97.5313 57.6786
L97.5313 57.7976
" />
<path d="M97.5313 57.7976
L97.5551 57.8452
" />
<path d="M97.5551 57.8452
L97.5789 57.8690
" />
<path d="M97.5789 57.8690
L97.6265 57.8929
" />
<path d="M97.6265 57.8929
L97.6742 57.8929
" />
<path d="M97.6742 57.8929
L97.7456 57.8690
" />
<path d="M97.7456 57.8690
L98.0313 57.5833
" />
<path d="M98.0313 57.5833
L98.0313 57.8929
" />
</g></g>
<g style="fill:#000000; fill-opacity:0.0; 
stroke:#000000; stroke-width:0.1500; stroke-opacity:1; 
stroke-linecap:round; stroke-linejoin:round;">
<text x="83.0000" y="71.4800"
transform="scale(-1 1) translate(-166.000000 0)"
textLength="13.3655" font-size="1.3333" lengthAdjust="spacingAndGlyphs"
text-anchor="middle" opacity="0">0.22uF_0603_25V</text>
<g class="stroked-text"><desc>0.22uF_0603_25V</desc>
<path d="M89.1667 70.4426
L89.0714 70.4426
" />
<path d="M89.0714 70.4426
L88.9762 70.4902
" />
<path d="M88.9762 70.4902
L88.9286 70.5379
" />
<path d="M88.9286 70.5379
L88.8810 70.6331
" />
<path d="M88.8810 70.6331
L88.8333 70.8236
" />
<path d="M88.8333 70.8236
L88.8333 71.0617
" />
<path d="M88.8333 71.0617
L88.8810 71.2521
" />
<path d="M88.8810 71.2521
L88.9286 71.3474
" />
<path d="M88.9286 71.3474
L88.9762 71.3950
" />
<path d="M88.9762 71.3950
L89.0714 71.4426
" />
<path d="M89.0714 71.4426
L89.1667 71.4426
" />
<path d="M89.1667 71.4426
L89.2619 71.3950
" />
<path d="M89.2619 71.3950
L89.3095 71.3474
" />
<path d="M89.3095 71.3474
L89.3571 71.2521
" />
<path d="M89.3571 71.2521
L89.4048 71.0617
" />
<path d="M89.4048 71.0617
L89.4048 70.8236
" />
<path d="M89.4048 70.8236
L89.3571 70.6331
" />
<path d="M89.3571 70.6331
L89.3095 70.5379
" />
<path d="M89.3095 70.5379
L89.2619 70.4902
" />
<path d="M89.2619 70.4902
L89.1667 70.4426
" />
<path d="M88.4048 71.3474
L88.3571 71.3950
" />
<path d="M88.3571 71.3950
L88.4048 71.4426
" />
<path d="M88.4048 71.4426
L88.4524 71.3950
" />
<path d="M88.4524 71.3950
L88.4048 71.3474
" />
<path d="M88.4048 71.3474
L88.4048 71.4426
" />
<path d="M87.9762 70.5379
L87.9286 70.4902
" />
<path d="M87.9286 70.4902
L87.8333 70.4426
" />
<path d="M87.8333 70.4426
L87.5952 70.4426
" />
<path d="M87.5952 70.4426
L87.5000 70.4902
" />
<path d="M87.5000 70.4902
L87.4524 70.5379
" />
<path d="M87.4524 70.5379
L87.4048 70.6331
" />
<path d="M87.4048 70.6331
L87.4048 70.7283
" />
<path d="M87.4048 70.7283
L87.4524 70.8712
" />
<path d="M87.4524 70.8712
L88.0238 71.4426
" />
<path d="M88.0238 71.4426
L87.4048 71.4426
" />
<path d="M87.0238 70.5379
L86.9762 70.4902
" />
<path d="M86.9762 70.4902
L86.8810 70.4426
" />
<path d="M86.8810 70.4426
L86.6429 70.4426
" />
<path d="M86.6429 70.4426
L86.5476 70.4902
" />
<path d="M86.5476 70.4902
L86.5000 70.5379
" />
<path d="M86.5000 70.5379
L86.4524 70.6331
" />
<path d="M86.4524 70.6331
L86.4524 70.7283
" />
<path d="M86.4524 70.7283
L86.5000 70.8712
" />
<path d="M86.5000 70.8712
L87.0714 71.4426
" />
<path d="M87.0714 71.4426
L86.4524 71.4426
" />
<path d="M85.5952 70.7760
L85.5952 71.4426
" />
<path d="M86.0238 70.7760
L86.0238 71.2998
" />
<path d="M86.0238 71.2998
L85.9762 71.3950
" />
<path d="M85.9762 71.3950
L85.8810 71.4426
" />
<path d="M85.8810 71.4426
L85.7381 71.4426
" />
<path d="M85.7381 71.4426
L85.6429 71.3950
" />
<path d="M85.6429 71.3950
L85.5952 71.3474
" />
<path d="M84.7857 70.9188
L85.1190 70.9188
" />
<path d="M85.1190 71.4426
L85.1190 70.4426
" />
<path d="M85.1190 70.4426
L84.6429 70.4426
" />
<path d="M84.5000 71.5379
L83.7381 71.5379
" />
<path d="M83.3095 70.4426
L83.2143 70.4426
" />
<path d="M83.2143 70.4426
L83.1190 70.4902
" />
<path d="M83.1190 70.4902
L83.0714 70.5379
" />
<path d="M83.0714 70.5379
L83.0238 70.6331
" />
<path d="M83.0238 70.6331
L82.9762 70.8236
" />
<path d="M82.9762 70.8236
L82.9762 71.0617
" />
<path d="M82.9762 71.0617
L83.0238 71.2521
" />
<path d="M83.0238 71.2521
L83.0714 71.3474
" />
<path d="M83.0714 71.3474
L83.1190 71.3950
" />
<path d="M83.1190 71.3950
L83.2143 71.4426
" />
<path d="M83.2143 71.4426
L83.3095 71.4426
" />
<path d="M83.3095 71.4426
L83.4048 71.3950
" />
<path d="M83.4048 71.3950
L83.4524 71.3474
" />
<path d="M83.4524 71.3474
L83.5000 71.2521
" />
<path d="M83.5000 71.2521
L83.5476 71.0617
" />
<path d="M83.5476 71.0617
L83.5476 70.8236
" />
<path d="M83.5476 70.8236
L83.5000 70.6331
" />
<path d="M83.5000 70.6331
L83.4524 70.5379
" />
<path d="M83.4524 70.5379
L83.4048 70.4902
" />
<path d="M83.4048 70.4902
L83.3095 70.4426
" />
<path d="M82.1190 70.4426
L82.3095 70.4426
" />
<path d="M82.3095 70.4426
L82.4048 70.4902
" />
<path d="M82.4048 70.4902
L82.4524 70.5379
" />
<path d="M82.4524 70.5379
L82.5476 70.6807
" />
<path d="M82.5476 70.6807
L82.5952 70.8712
" />
<path d="M82.5952 70.8712
L82.5952 71.2521
" />
<path d="M82.5952 71.2521
L82.5476 71.3474
" />
<path d="M82.5476 71.3474
L82.5000 71.3950
" />
<path d="M82.5000 71.3950
L82.4048 71.4426
" />
<path d="M82.4048 71.4426
L82.2143 71.4426
" />
<path d="M82.2143 71.4426
L82.1190 71.3950
" />
<path d="M82.1190 71.3950
L82.0714 71.3474
" />
<path d="M82.0714 71.3474
L82.0238 71.2521
" />
<path d="M82.0238 71.2521
L82.0238 71.0140
" />
<path d="M82.0238 71.0140
L82.0714 70.9188
" />
<path d="M82.0714 70.9188
L82.1190 70.8712
" />
<path d="M82.1190 70.8712
L82.2143 70.8236
" />
<path d="M82.2143 70.8236
L82.4048 70.8236
" />
<path d="M82.4048 70.8236
L82.5000 70.8712
" />
<path d="M82.5000 70.8712
L82.5476 70.9188
" />
<path d="M82.5476 70.9188
L82.5952 71.0140
" />
<path d="M81.4048 70.4426
L81.3095 70.4426
" />
<path d="M81.3095 70.4426
L81.2143 70.4902
" />
<path d="M81.2143 70.4902
L81.1667 70.5379
" />
<path d="M81.1667 70.5379
L81.1190 70.6331
" />
<path d="M81.1190 70.6331
L81.0714 70.8236
" />
<path d="M81.0714 70.8236
L81.0714 71.0617
" />
<path d="M81.0714 71.0617
L81.1190 71.2521
" />
<path d="M81.1190 71.2521
L81.1667 71.3474
" />
<path d="M81.1667 71.3474
L81.2143 71.3950
" />
<path d="M81.2143 71.3950
L81.3095 71.4426
" />
<path d="M81.3095 71.4426
L81.4048 71.4426
" />
<path d="M81.4048 71.4426
L81.5000 71.3950
" />
<path d="M81.5000 71.3950
L81.5476 71.3474
" />
<path d="M81.5476 71.3474
L81.5952 71.2521
" />
<path d="M81.5952 71.2521
L81.6429 71.0617
" />
<path d="M81.6429 71.0617
L81.6429 70.8236
" />
<path d="M81.6429 70.8236
L81.5952 70.6331
" />
<path d="M81.5952 70.6331
L81.5476 70.5379
" />
<path d="M81.5476 70.5379
L81.5000 70.4902
" />
<path d="M81.5000 70.4902
L81.4048 70.4426
" />
<path d="M80.7381 70.4426
L80.1190 70.4426
" />
<path d="M80.1190 70.4426
L80.4524 70.8236
" />
<path d="M80.4524 70.8236
L80.3095 70.8236
" />
<path d="M80.3095 70.8236
L80.2143 70.8712
" />
<path d="M80.2143 70.8712
L80.1667 70.9188
" />
<path d="M80.1667 70.9188
L80.1190 71.0140
" />
<path d="M80.1190 71.0140
L80.1190 71.2521
" />
<path d="M80.1190 71.2521
L80.1667 71.3474
" />
<path d="M80.1667 71.3474
L80.2143 71.3950
" />
<path d="M80.2143 71.3950
L80.3095 71.4426
" />
<path d="M80.3095 71.4426
L80.5952 71.4426
" />
<path d="M80.5952 71.4426
L80.6905 71.3950
" />
<path d="M80.6905 71.3950
L80.7381 71.3474
" />
<path d="M79.9286 71.5379
L79.1667 71.5379
" />
<path d="M78.9762 70.5379
L78.9286 70.4902
" />
<path d="M78.9286 70.4902
L78.8333 70.4426
" />
<path d="M78.8333 70.4426
L78.5952 70.4426
" />
<path d="M78.5952 70.4426
L78.5000 70.4902
" />
<path d="M78.5000 70.4902
L78.4524 70.5379
" />
<path d="M78.4524 70.5379
L78.4048 70.6331
" />
<path d="M78.4048 70.6331
L78.4048 70.7283
" />
<path d="M78.4048 70.7283
L78.4524 70.8712
" />
<path d="M78.4524 70.8712
L79.0238 71.4426
" />
<path d="M79.0238 71.4426
L78.4048 71.4426
" />
<path d="M77.5000 70.4426
L77.9762 70.4426
" />
<path d="M77.9762 70.4426
L78.0238 70.9188
" />
<path d="M78.0238 70.9188
L77.9762 70.8712
" />
<path d="M77.9762 70.8712
L77.8810 70.8236
" />
<path d="M77.8810 70.8236
L77.6429 70.8236
" />
<path d="M77.6429 70.8236
L77.5476 70.8712
" />
<path d="M77.5476 70.8712
L77.5000 70.9188
" />
<path d="M77.5000 70.9188
L77.4524 71.0140
" />
<path d="M77.4524 71.0140
L77.4524 71.2521
" />
<path d="M77.4524 71.2521
L77.5000 71.3474
" />
<path d="M77.5000 71.3474
L77.5476 71.3950
" />
<path d="M77.5476 71.3950
L77.6429 71.4426
" />
<path d="M77.6429 71.4426
L77.8810 71.4426
" />
<path d="M77.8810 71.4426
L77.9762 71.3950
" />
<path d="M77.9762 71.3950
L78.0238 71.3474
" />
<path d="M77.1667 70.4426
L76.8333 71.4426
" />
<path d="M76.8333 71.4426
L76.5000 70.4426
" />
</g></g>
<g style="fill:#000000; fill-opacity:0.0; 
stroke:#000000; stroke-width:0.0800; stroke-opacity:1; 
stroke-linecap:round; stroke-linejoin:round;">
<text x="83.0000" y="69.5500"
transform="scale(-1 1) translate(-166.000000 0)"
textLength="1.0762" font-size="0.6667" lengthAdjust="spacingAndGlyphs"
text-anchor="middle" opacity="0">C4</text>
<g class="stroked-text"><desc>C4</desc>
<path d="M83.0833 69.4837
L83.1071 69.5075
" />
<path d="M83.1071 69.5075
L83.1786 69.5313
" />
<path d="M83.1786 69.5313
L83.2262 69.5313
" />
<path d="M83.2262 69.5313
L83.2976 69.5075
" />
<path d="M83.2976 69.5075
L83.3452 69.4599
" />
<path d="M83.3452 69.4599
L83.3690 69.4123
" />
<path d="M83.3690 69.4123
L83.3929 69.3170
" />
<path d="M83.3929 69.3170
L83.3929 69.2456
" />
<path d="M83.3929 69.2456
L83.3690 69.1504
" />
<path d="M83.3690 69.1504
L83.3452 69.1027
" />
<path d="M83.3452 69.1027
L83.2976 69.0551
" />
<path d="M83.2976 69.0551
L83.2262 69.0313
" />
<path d="M83.2262 69.0313
L83.1786 69.0313
" />
<path d="M83.1786 69.0313
L83.1071 69.0551
" />
<path d="M83.1071 69.0551
L83.0833 69.0789
" />
<path d="M82.6548 69.1980
L82.6548 69.5313
" />
<path d="M82.7738 69.0075
L82.8929 69.3646
" />
<path d="M82.8929 69.3646
L82.5833 69.3646
" />
</g></g>
<g style="fill:#000000; fill-opacity:0.0; 
stroke:#000000; stroke-width:0.1500; stroke-opacity:1; 
stroke-linecap:round; stroke-linejoin:round;">
<g transform="rotate(-90.000000 88.1500 71.5000)">
<text x="88.1500" y="72.0000"
transform="scale(-1 1) translate(-176.300000 0)"
textLength="11.9369" font-size="1.3333" lengthAdjust="spacingAndGlyphs"
text-anchor="middle" opacity="0">10uF_0805_25V</text>
</g>
<g class="stroked-text"><desc>10uF_0805_25V</desc>
<path d="M88.6126 66.3810
L88.6126 65.8095
" />
<path d="M88.6126 66.0952
L87.6126 66.0952
" />
<path d="M87.6126 66.0952
L87.7555 66.0000
" />
<path d="M87.7555 66.0000
L87.8507 65.9048
" />
<path d="M87.8507 65.9048
L87.8983 65.8095
" />
<path d="M87.6126 67.0000
L87.6126 67.0952
" />
<path d="M87.6126 67.0952
L87.6602 67.1905
" />
<path d="M87.6602 67.1905
L87.7079 67.2381
" />
<path d="M87.7079 67.2381
L87.8031 67.2857
" />
<path d="M87.8031 67.2857
L87.9936 67.3333
" />
<path d="M87.9936 67.3333
L88.2317 67.3333
" />
<path d="M88.2317 67.3333
L88.4221 67.2857
" />
<path d="M88.4221 67.2857
L88.5174 67.2381
" />
<path d="M88.5174 67.2381
L88.5650 67.1905
" />
<path d="M88.5650 67.1905
L88.6126 67.0952
" />
<path d="M88.6126 67.0952
L88.6126 67.0000
" />
<path d="M88.6126 67.0000
L88.5650 66.9048
" />
<path d="M88.5650 66.9048
L88.5174 66.8571
" />
<path d="M88.5174 66.8571
L88.4221 66.8095
" />
<path d="M88.4221 66.8095
L88.2317 66.7619
" />
<path d="M88.2317 66.7619
L87.9936 66.7619
" />
<path d="M87.9936 66.7619
L87.8031 66.8095
" />
<path d="M87.8031 66.8095
L87.7079 66.8571
" />
<path d="M87.7079 66.8571
L87.6602 66.9048
" />
<path d="M87.6602 66.9048
L87.6126 67.0000
" />
<path d="M87.9460 68.1905
L88.6126 68.1905
" />
<path d="M87.9460 67.7619
L88.4698 67.7619
" />
<path d="M88.4698 67.7619
L88.5650 67.8095
" />
<path d="M88.5650 67.8095
L88.6126 67.9048
" />
<path d="M88.6126 67.9048
L88.6126 68.0476
" />
<path d="M88.6126 68.0476
L88.5650 68.1429
" />
<path d="M88.5650 68.1429
L88.5174 68.1905
" />
<path d="M88.0888 69.0000
L88.0888 68.6667
" />
<path d="M88.6126 68.6667
L87.6126 68.6667
" />
<path d="M87.6126 68.6667
L87.6126 69.1429
" />
<path d="M88.7079 69.2857
L88.7079 70.0476
" />
<path d="M87.6126 70.4762
L87.6126 70.5714
" />
<path d="M87.6126 70.5714
L87.6602 70.6667
" />
<path d="M87.6602 70.6667
L87.7079 70.7143
" />
<path d="M87.7079 70.7143
L87.8031 70.7619
" />
<path d="M87.8031 70.7619
L87.9936 70.8095
" />
<path d="M87.9936 70.8095
L88.2317 70.8095
" />
<path d="M88.2317 70.8095
L88.4221 70.7619
" />
<path d="M88.4221 70.7619
L88.5174 70.7143
" />
<path d="M88.5174 70.7143
L88.5650 70.6667
" />
<path d="M88.5650 70.6667
L88.6126 70.5714
" />
<path d="M88.6126 70.5714
L88.6126 70.4762
" />
<path d="M88.6126 70.4762
L88.5650 70.3810
" />
<path d="M88.5650 70.3810
L88.5174 70.3333
" />
<path d="M88.5174 70.3333
L88.4221 70.2857
" />
<path d="M88.4221 70.2857
L88.2317 70.2381
" />
<path d="M88.2317 70.2381
L87.9936 70.2381
" />
<path d="M87.9936 70.2381
L87.8031 70.2857
" />
<path d="M87.8031 70.2857
L87.7079 70.3333
" />
<path d="M87.7079 70.3333
L87.6602 70.3810
" />
<path d="M87.6602 70.3810
L87.6126 70.4762
" />
<path d="M88.0412 71.3810
L87.9936 71.2857
" />
<path d="M87.9936 71.2857
L87.9460 71.2381
" />
<path d="M87.9460 71.2381
L87.8507 71.1905
" />
<path d="M87.8507 71.1905
L87.8031 71.1905
" />
<path d="M87.8031 71.1905
L87.7079 71.2381
" />
<path d="M87.7079 71.2381
L87.6602 71.2857
" />
<path d="M87.6602 71.2857
L87.6126 71.3810
" />
<path d="M87.6126 71.3810
L87.6126 71.5714
" />
<path d="M87.6126 71.5714
L87.6602 71.6667
" />
<path d="M87.6602 71.6667
L87.7079 71.7143
" />
<path d="M87.7079 71.7143
L87.8031 71.7619
" />
<path d="M87.8031 71.7619
L87.8507 71.7619
" />
<path d="M87.8507 71.7619
L87.9460 71.7143
" />
<path d="M87.9460 71.7143
L87.9936 71.6667
" />
<path d="M87.9936 71.6667
L88.0412 71.5714
" />
<path d="M88.0412 71.5714
L88.0412 71.3810
" />
<path d="M88.0412 71.3810
L88.0888 71.2857
" />
<path d="M88.0888 71.2857
L88.1364 71.2381
" />
<path d="M88.1364 71.2381
L88.2317 71.1905
" />
<path d="M88.2317 71.1905
L88.4221 71.1905
" />
<path d="M88.4221 71.1905
L88.5174 71.2381
" />
<path d="M88.5174 71.2381
L88.5650 71.2857
" />
<path d="M88.5650 71.2857
L88.6126 71.3810
" />
<path d="M88.6126 71.3810
L88.6126 71.5714
" />
<path d="M88.6126 71.5714
L88.5650 71.6667
" />
<path d="M88.5650 71.6667
L88.5174 71.7143
" />
<path d="M88.5174 71.7143
L88.4221 71.7619
" />
<path d="M88.4221 71.7619
L88.2317 71.7619
" />
<path d="M88.2317 71.7619
L88.1364 71.7143
" />
<path d="M88.1364 71.7143
L88.0888 71.6667
" />
<path d="M88.0888 71.6667
L88.0412 71.5714
" />
<path d="M87.6126 72.3810
L87.6126 72.4762
" />
<path d="M87.6126 72.4762
L87.6602 72.5714
" />
<path d="M87.6602 72.5714
L87.7079 72.6190
" />
<path d="M87.7079 72.6190
L87.8031 72.6667
" />
<path d="M87.8031 72.6667
L87.9936 72.7143
" />
<path d="M87.9936 72.7143
L88.2317 72.7143
" />
<path d="M88.2317 72.7143
L88.4221 72.6667
" />
<path d="M88.4221 72.6667
L88.5174 72.6190
" />
<path d="M88.5174 72.6190
L88.5650 72.5714
" />
<path d="M88.5650 72.5714
L88.6126 72.4762
" />
<path d="M88.6126 72.4762
L88.6126 72.3810
" />
<path d="M88.6126 72.3810
L88.5650 72.2857
" />
<path d="M88.5650 72.2857
L88.5174 72.2381
" />
<path d="M88.5174 72.2381
L88.4221 72.1905
" />
<path d="M88.4221 72.1905
L88.2317 72.1429
" />
<path d="M88.2317 72.1429
L87.9936 72.1429
" />
<path d="M87.9936 72.1429
L87.8031 72.1905
" />
<path d="M87.8031 72.1905
L87.7079 72.2381
" />
<path d="M87.7079 72.2381
L87.6602 72.2857
" />
<path d="M87.6602 72.2857
L87.6126 72.3810
" />
<path d="M87.6126 73.6190
L87.6126 73.1429
" />
<path d="M87.6126 73.1429
L88.0888 73.0952
" />
<path d="M88.0888 73.0952
L88.0412 73.1429
" />
<path d="M88.0412 73.1429
L87.9936 73.2381
" />
<path d="M87.9936 73.2381
L87.9936 73.4762
" />
<path d="M87.9936 73.4762
L88.0412 73.5714
" />
<path d="M88.0412 73.5714
L88.0888 73.6190
" />
<path d="M88.0888 73.6190
L88.1840 73.6667
" />
<path d="M88.1840 73.6667
L88.4221 73.6667
" />
<path d="M88.4221 73.6667
L88.5174 73.6190
" />
<path d="M88.5174 73.6190
L88.5650 73.5714
" />
<path d="M88.5650 73.5714
L88.6126 73.4762
" />
<path d="M88.6126 73.4762
L88.6126 73.2381
" />
<path d="M88.6126 73.2381
L88.5650 73.1429
" />
<path d="M88.5650 73.1429
L88.5174 73.0952
" />
<path d="M88.7079 73.8571
L88.7079 74.6190
" />
<path d="M87.7079 74.8095
L87.6602 74.8571
" />
<path d="M87.6602 74.8571
L87.6126 74.9524
" />
<path d="M87.6126 74.9524
L87.6126 75.1905
" />
<path d="M87.6126 75.1905
L87.6602 75.2857
" />
<path d="M87.6602 75.2857
L87.7079 75.3333
" />
<path d="M87.7079 75.3333
L87.8031 75.3810
" />
<path d="M87.8031 75.3810
L87.8983 75.3810
" />
<path d="M87.8983 75.3810
L88.0412 75.3333
" />
<path d="M88.0412 75.3333
L88.6126 74.7619
" />
<path d="M88.6126 74.7619
L88.6126 75.3810
" />
<path d="M87.6126 76.2857
L87.6126 75.8095
" />
<path d="M87.6126 75.8095
L88.0888 75.7619
" />
<path d="M88.0888 75.7619
L88.0412 75.8095
" />
<path d="M88.0412 75.8095
L87.9936 75.9048
" />
<path d="M87.9936 75.9048
L87.9936 76.1429
" />
<path d="M87.9936 76.1429
L88.0412 76.2381
" />
<path d="M88.0412 76.2381
L88.0888 76.2857
" />
<path d="M88.0888 76.2857
L88.1840 76.3333
" />
<path d="M88.1840 76.3333
L88.4221 76.3333
" />
<path d="M88.4221 76.3333
L88.5174 76.2857
" />
<path d="M88.5174 76.2857
L88.5650 76.2381
" />
<path d="M88.5650 76.2381
L88.6126 76.1429
" />
<path d="M88.6126 76.1429
L88.6126 75.9048
" />
<path d="M88.6126 75.9048
L88.5650 75.8095
" />
<path d="M88.5650 75.8095
L88.5174 75.7619
" />
<path d="M87.6126 76.6190
L88.6126 76.9524
" />
<path d="M88.6126 76.9524
L87.6126 77.2857
" />
</g></g>
<g style="fill:#000000; fill-opacity:0.0; 
stroke:#000000; stroke-width:0.1200; stroke-opacity:1; 
stroke-linecap:round; stroke-linejoin:round;">
<g transform="rotate(-90.000000 90.0000 71.5000)">
<text x="90.0000" y="71.9000"
transform="scale(-1 1) translate(-180.000000 0)"
textLength="1.7019" font-size="1.0667" lengthAdjust="spacingAndGlyphs"
text-anchor="middle" opacity="0">C3</text>
</g>
<g class="stroked-text"><desc>C3</desc>
<path d="M90.2939 71.3667
L90.3320 71.3286
" />
<path d="M90.3320 71.3286
L90.3701 71.2143
" />
<path d="M90.3701 71.2143
L90.3701 71.1381
" />
<path d="M90.3701 71.1381
L90.3320 71.0238
" />
<path d="M90.3320 71.0238
L90.2558 70.9476
" />
<path d="M90.2558 70.9476
L90.1796 70.9095
" />
<path d="M90.1796 70.9095
L90.0272 70.8714
" />
<path d="M90.0272 70.8714
L89.9130 70.8714
" />
<path d="M89.9130 70.8714
L89.7606 70.9095
" />
<path d="M89.7606 70.9095
L89.6844 70.9476
" />
<path d="M89.6844 70.9476
L89.6082 71.0238
" />
<path d="M89.6082 71.0238
L89.5701 71.1381
" />
<path d="M89.5701 71.1381
L89.5701 71.2143
" />
<path d="M89.5701 71.2143
L89.6082 71.3286
" />
<path d="M89.6082 71.3286
L89.6463 71.3667
" />
<path d="M89.5701 71.6333
L89.5701 72.1286
" />
<path d="M89.5701 72.1286
L89.8749 71.8619
" />
<path d="M89.8749 71.8619
L89.8749 71.9762
" />
<path d="M89.8749 71.9762
L89.9130 72.0524
" />
<path d="M89.9130 72.0524
L89.9510 72.0905
" />
<path d="M89.9510 72.0905
L90.0272 72.1286
" />
<path d="M90.0272 72.1286
L90.2177 72.1286
" />
<path d="M90.2177 72.1286
L90.2939 72.0905
" />
<path d="M90.2939 72.0905
L90.3320 72.0524
" />
<path d="M90.3320 72.0524
L90.3701 71.9762
" />
<path d="M90.3701 71.9762
L90.3701 71.7476
" />
<path d="M90.3701 71.7476
L90.3320 71.6714
" />
<path d="M90.3320 71.6714
L90.2939 71.6333
" />
</g></g>
<g style="fill:#000000; fill-opacity:0.0; 
stroke:#000000; stroke-width:0.1000; stroke-opacity:1; 
stroke-linecap:round; stroke-linejoin:round;">
<path d="M92.9500 50.3500
L92.9500 54.2750
" />
<path d="M92.9500 54.2750
L93.9250 55.2500
" />
<path d="M93.9250 55.2500
L96.8500 55.2500
" />
<path d="M96.8500 50.3500
L92.9500 50.3500
" />
<path d="M96.8500 55.2500
L96.8500 50.3500
" />
</g>
<g style="fill:#000000; fill-opacity:0.0; 
stroke:#000000; stroke-width:0.1270; stroke-opacity:1; 
stroke-linecap:round; stroke-linejoin:round;">
<path d="M86.6500 65.3500
L86.6500 67.8500
" />
<path d="M86.6500 67.8500
L89.8500 67.8500
" />
<path d="M89.8500 65.3500
L86.6500 65.3500
" />
<path d="M89.8500 67.8500
L89.8500 65.3500
" />
</g>
<g style="fill:#000000; fill-opacity:0.0; 
stroke:#000000; stroke-width:0.1000; stroke-opacity:1; 
stroke-linecap:round; stroke-linejoin:round;">
<path d="M90.3000 58.8000
L90.3000 60.4000
" />
<path d="M90.3000 60.4000
L93.5000 60.4000
" />
<path d="M93.5000 58.8000
L90.3000 58.8000
" />
<path d="M93.5000 60.4000
L93.5000 58.8000
" />
<path d="M98.4600 64.0800
L97.8200 64.0800
" />
<path d="M97.8200 64.0800
L97.8200 65.4600
" />
<path d="M95.9200 64.0800
L95.2800 64.0800
" />
<path d="M95.2800 64.0800
L95.2800 65.4600
" />
<path d="M93.3800 64.0800
L92.7400 64.0800
" />
<path d="M92.7400 64.0800
L92.7400 65.4600
" />
<path d="M99.4100 65.4600
L91.7900 65.4600
" />
<path d="M98.4600 65.4600
L98.4600 64.0800
" />
<path d="M95.9200 65.4600
L95.9200 64.0800
" />
<path d="M93.3800 65.4600
L93.3800 64.0800
" />
<path d="M91.7900 65.4600
L91.7900 69.5400
" />
<path d="M91.7900 69.5400
L92.7900 70.5400
" />
<path d="M99.4100 70.5400
L99.4100 65.4600
" />
<path d="M97.8200 70.5400
L97.8200 71.9200
" />
<path d="M95.2800 70.5400
L95.2800 71.9200
" />
<path d="M92.7900 70.5400
L99.4100 70.5400
" />
<path d="M92.7400 70.5400
L92.7400 71.9200
" />
<path d="M98.4600 71.9200
L98.4600 70.5400
" />
<path d="M97.8200 71.9200
L98.4600 71.9200
" />
<path d="M95.9200 71.9200
L95.9200 70.5400
" />
<path d="M95.2800 71.9200
L95.9200 71.9200
" />
<path d="M93.3800 71.9200
L93.3800 70.5400
" />
<path d="M92.7400 71.9200
L93.3800 71.9200
" />
</g>
<g style="fill:#000000; fill-opacity:0.0; 
stroke:#000000; stroke-width:0.1500; stroke-opacity:1; 
stroke-linecap:round; stroke-linejoin:round;">
<path d="M87.4000 73.5000
L87.4000 71.0000
" />
<path d="M87.4000 71.0000
L86.9000 70.5000
" />
<path d="M86.9000 70.5000
L85.4000 70.5000
" />
<path d="M85.4000 73.5000
L87.4000 73.5000
" />
<path d="M85.4000 70.5000
L85.4000 73.5000
" />
</g>
<g style="fill:#000000; fill-opacity:0.0; 
stroke:#000000; stroke-width:0.1000; stroke-opacity:1; 
stroke-linecap:round; stroke-linejoin:round;">
<path d="M98.4250 56.5000
L97.1750 56.5000
" />
<path d="M97.1750 56.5000
L97.1750 58.5000
" />
<path d="M98.4250 58.5000
L98.4250 56.5000
" />
<path d="M97.1750 58.5000
L98.4250 58.5000
" />
<path d="M84.0000 69.9250
L84.0000 68.6750
" />
<path d="M84.0000 68.6750
L82.0000 68.6750
" />
<path d="M82.0000 69.9250
L84.0000 69.9250
" />
<path d="M82.0000 68.6750
L82.0000 69.9250
" />
<path d="M89.2000 73.1000
L90.8000 73.1000
" />
<path d="M90.8000 73.1000
L90.8000 69.9000
" />
<path d="M89.2000 69.9000
L89.2000 73.1000
" />
<path d="M90.8000 69.9000
L89.2000 69.9000
" />
<g >
</g>
<g >
</g>
<g >
</g>
<g >
</g>
<g >
</g>
<g >
</g>
<g >
</g>
<g >
</g>
<g >
</g>
<g >
</g>
<g >
</g>
<g >
</g>
<g >
</g>
<g >
</g>
<g >
</g>
<g >
</g>
<g >
</g>
<g >
</g>
<g >
</g>
</g> 
</svg>
