<?xml version="1.0" standalone="no"?>
 <!DOCTYPE svg PUBLIC "-//W3C//DTD SVG 1.1//EN" 
 "http://www.w3.org/Graphics/SVG/1.1/DTD/svg11.dtd"> 
<svg
  xmlns:svg="http://www.w3.org/2000/svg"
  xmlns="http://www.w3.org/2000/svg"
  xmlns:xlink="http://www.w3.org/1999/xlink"
  version="1.1"
  width="297.0022mm" height="210.0072mm" viewBox="0.0000 0.0000 297.0022 210.0072">
<title>SVG Image created as pedalboard-led-ring-B_Silkscreen.svg date 2023/06/03 21:36:27 </title>
  <desc>Image generated by PCBNEW </desc>
<g style="fill:#000000; fill-opacity:1.0000;stroke:#000000; stroke-opacity:1.0000;
stroke-linecap:round; stroke-linejoin:round;"
 transform="translate(0 0) scale(1 1)">
</g>
<g style="fill:#000000; fill-opacity:0.0; 
stroke:#000000; stroke-width:0.0000; stroke-opacity:1; 
stroke-linecap:round; stroke-linejoin:round;">
</g>
<g style="fill:#000000; fill-opacity:0.0; 
stroke:#000000; stroke-width:0.1000; stroke-opacity:1; 
stroke-linecap:round; stroke-linejoin:round;">
<circle cx="80.0000" cy="60.0000" r="7.0500" /> 
<g transform="rotate(-90.000000 87.9000 56.0300)">
<text x="87.9000" y="56.0300"
transform="scale(-1 1) translate(-175.800000 0)"
textLength="1.1433" font-size="0.9333" lengthAdjust="spacingAndGlyphs"
text-anchor="start" opacity="0">DI</text>
</g>
<g class="stroked-text"><desc>DI</desc>
<path d="M87.8091 56.2625
L87.1091 56.2625
" />
<path d="M87.1091 56.2625
L87.1091 56.4291
" />
<path d="M87.1091 56.4291
L87.1425 56.5291
" />
<path d="M87.1425 56.5291
L87.2091 56.5958
" />
<path d="M87.2091 56.5958
L87.2758 56.6291
" />
<path d="M87.2758 56.6291
L87.4091 56.6625
" />
<path d="M87.4091 56.6625
L87.5091 56.6625
" />
<path d="M87.5091 56.6625
L87.6425 56.6291
" />
<path d="M87.6425 56.6291
L87.7091 56.5958
" />
<path d="M87.7091 56.5958
L87.7758 56.5291
" />
<path d="M87.7758 56.5291
L87.8091 56.4291
" />
<path d="M87.8091 56.4291
L87.8091 56.2625
" />
<path d="M87.8091 56.9625
L87.1091 56.9625
" />
</g><g transform="rotate(-90.000000 87.9500 62.5000)">
<text x="87.9500" y="62.5000"
transform="scale(-1 1) translate(-175.900000 0)"
textLength="1.3014" font-size="0.8000" lengthAdjust="spacingAndGlyphs"
text-anchor="start" opacity="0">D0</text>
</g>
<g class="stroked-text"><desc>D0</desc>
<path d="M87.8714 62.7086
L87.2714 62.7086
" />
<path d="M87.2714 62.7086
L87.2714 62.8515
" />
<path d="M87.2714 62.8515
L87.2999 62.9372
" />
<path d="M87.2999 62.9372
L87.3571 62.9944
" />
<path d="M87.3571 62.9944
L87.4142 63.0229
" />
<path d="M87.4142 63.0229
L87.5285 63.0515
" />
<path d="M87.5285 63.0515
L87.6142 63.0515
" />
<path d="M87.6142 63.0515
L87.7285 63.0229
" />
<path d="M87.7285 63.0229
L87.7857 62.9944
" />
<path d="M87.7857 62.9944
L87.8428 62.9372
" />
<path d="M87.8428 62.9372
L87.8714 62.8515
" />
<path d="M87.8714 62.8515
L87.8714 62.7086
" />
<path d="M87.2714 63.4229
L87.2714 63.4801
" />
<path d="M87.2714 63.4801
L87.2999 63.5372
" />
<path d="M87.2999 63.5372
L87.3285 63.5658
" />
<path d="M87.3285 63.5658
L87.3857 63.5944
" />
<path d="M87.3857 63.5944
L87.4999 63.6229
" />
<path d="M87.4999 63.6229
L87.6428 63.6229
" />
<path d="M87.6428 63.6229
L87.7571 63.5944
" />
<path d="M87.7571 63.5944
L87.8142 63.5658
" />
<path d="M87.8142 63.5658
L87.8428 63.5372
" />
<path d="M87.8428 63.5372
L87.8714 63.4801
" />
<path d="M87.8714 63.4801
L87.8714 63.4229
" />
<path d="M87.8714 63.4229
L87.8428 63.3658
" />
<path d="M87.8428 63.3658
L87.8142 63.3372
" />
<path d="M87.8142 63.3372
L87.7571 63.3086
" />
<path d="M87.7571 63.3086
L87.6428 63.2801
" />
<path d="M87.6428 63.2801
L87.4999 63.2801
" />
<path d="M87.4999 63.2801
L87.3857 63.3086
" />
<path d="M87.3857 63.3086
L87.3285 63.3372
" />
<path d="M87.3285 63.3372
L87.2999 63.3658
" />
<path d="M87.2999 63.3658
L87.2714 63.4229
" />
</g><text x="91.1400" y="69.9000"
transform="scale(-1 1) translate(-182.280000 0)"
textLength="1.8443" font-size="0.8000" lengthAdjust="spacingAndGlyphs"
text-anchor="start" opacity="0">VCC</text>
<g class="stroked-text"><desc>VCC</desc>
<path d="M91.0171 69.2214
L90.8171 69.8214
" />
<path d="M90.8171 69.8214
L90.6171 69.2214
" />
<path d="M90.0742 69.7642
L90.1028 69.7928
" />
<path d="M90.1028 69.7928
L90.1885 69.8214
" />
<path d="M90.1885 69.8214
L90.2456 69.8214
" />
<path d="M90.2456 69.8214
L90.3314 69.7928
" />
<path d="M90.3314 69.7928
L90.3885 69.7357
" />
<path d="M90.3885 69.7357
L90.4171 69.6785
" />
<path d="M90.4171 69.6785
L90.4456 69.5642
" />
<path d="M90.4456 69.5642
L90.4456 69.4785
" />
<path d="M90.4456 69.4785
L90.4171 69.3642
" />
<path d="M90.4171 69.3642
L90.3885 69.3071
" />
<path d="M90.3885 69.3071
L90.3314 69.2499
" />
<path d="M90.3314 69.2499
L90.2456 69.2214
" />
<path d="M90.2456 69.2214
L90.1885 69.2214
" />
<path d="M90.1885 69.2214
L90.1028 69.2499
" />
<path d="M90.1028 69.2499
L90.0742 69.2785
" />
<path d="M89.4742 69.7642
L89.5028 69.7928
" />
<path d="M89.5028 69.7928
L89.5885 69.8214
" />
<path d="M89.5885 69.8214
L89.6456 69.8214
" />
<path d="M89.6456 69.8214
L89.7314 69.7928
" />
<path d="M89.7314 69.7928
L89.7885 69.7357
" />
<path d="M89.7885 69.7357
L89.8171 69.6785
" />
<path d="M89.8171 69.6785
L89.8456 69.5642
" />
<path d="M89.8456 69.5642
L89.8456 69.4785
" />
<path d="M89.8456 69.4785
L89.8171 69.3642
" />
<path d="M89.8171 69.3642
L89.7885 69.3071
" />
<path d="M89.7885 69.3071
L89.7314 69.2499
" />
<path d="M89.7314 69.2499
L89.6456 69.2214
" />
<path d="M89.6456 69.2214
L89.5885 69.2214
" />
<path d="M89.5885 69.2214
L89.5028 69.2499
" />
<path d="M89.5028 69.2499
L89.4742 69.2785
" />
</g><g transform="rotate(-90.000000 89.9000 62.3500)">
<text x="89.9000" y="62.3500"
transform="scale(-1 1) translate(-179.800000 0)"
textLength="1.9586" font-size="0.8000" lengthAdjust="spacingAndGlyphs"
text-anchor="start" opacity="0">GND</text>
</g>
<g class="stroked-text"><desc>GND</desc>
<path d="M89.2499 62.8729
L89.2214 62.8158
" />
<path d="M89.2214 62.8158
L89.2214 62.7301
" />
<path d="M89.2214 62.7301
L89.2499 62.6444
" />
<path d="M89.2499 62.6444
L89.3071 62.5872
" />
<path d="M89.3071 62.5872
L89.3642 62.5586
" />
<path d="M89.3642 62.5586
L89.4785 62.5301
" />
<path d="M89.4785 62.5301
L89.5642 62.5301
" />
<path d="M89.5642 62.5301
L89.6785 62.5586
" />
<path d="M89.6785 62.5586
L89.7357 62.5872
" />
<path d="M89.7357 62.5872
L89.7928 62.6444
" />
<path d="M89.7928 62.6444
L89.8214 62.7301
" />
<path d="M89.8214 62.7301
L89.8214 62.7872
" />
<path d="M89.8214 62.7872
L89.7928 62.8729
" />
<path d="M89.7928 62.8729
L89.7642 62.9015
" />
<path d="M89.7642 62.9015
L89.5642 62.9015
" />
<path d="M89.5642 62.9015
L89.5642 62.7872
" />
<path d="M89.8214 63.1586
L89.2214 63.1586
" />
<path d="M89.2214 63.1586
L89.8214 63.5015
" />
<path d="M89.8214 63.5015
L89.2214 63.5015
" />
<path d="M89.8214 63.7872
L89.2214 63.7872
" />
<path d="M89.2214 63.7872
L89.2214 63.9301
" />
<path d="M89.2214 63.9301
L89.2499 64.0158
" />
<path d="M89.2499 64.0158
L89.3071 64.0729
" />
<path d="M89.3071 64.0729
L89.3642 64.1015
" />
<path d="M89.3642 64.1015
L89.4785 64.1301
" />
<path d="M89.4785 64.1301
L89.5642 64.1301
" />
<path d="M89.5642 64.1301
L89.6785 64.1015
" />
<path d="M89.6785 64.1015
L89.7357 64.0729
" />
<path d="M89.7357 64.0729
L89.7928 64.0158
" />
<path d="M89.7928 64.0158
L89.8214 63.9301
" />
<path d="M89.8214 63.9301
L89.8214 63.7872
" />
</g><text x="84.5250" y="69.8750"
transform="scale(-1 1) translate(-169.050000 0)"
textLength="1.9586" font-size="0.8000" lengthAdjust="spacingAndGlyphs"
text-anchor="start" opacity="0">GND</text>
<g class="stroked-text"><desc>GND</desc>
<path d="M84.0021 69.2249
L84.0592 69.1964
" />
<path d="M84.0592 69.1964
L84.1449 69.1964
" />
<path d="M84.1449 69.1964
L84.2306 69.2249
" />
<path d="M84.2306 69.2249
L84.2878 69.2821
" />
<path d="M84.2878 69.2821
L84.3164 69.3392
" />
<path d="M84.3164 69.3392
L84.3449 69.4535
" />
<path d="M84.3449 69.4535
L84.3449 69.5392
" />
<path d="M84.3449 69.5392
L84.3164 69.6535
" />
<path d="M84.3164 69.6535
L84.2878 69.7107
" />
<path d="M84.2878 69.7107
L84.2306 69.7678
" />
<path d="M84.2306 69.7678
L84.1449 69.7964
" />
<path d="M84.1449 69.7964
L84.0878 69.7964
" />
<path d="M84.0878 69.7964
L84.0021 69.7678
" />
<path d="M84.0021 69.7678
L83.9735 69.7392
" />
<path d="M83.9735 69.7392
L83.9735 69.5392
" />
<path d="M83.9735 69.5392
L84.0878 69.5392
" />
<path d="M83.7164 69.7964
L83.7164 69.1964
" />
<path d="M83.7164 69.1964
L83.3735 69.7964
" />
<path d="M83.3735 69.7964
L83.3735 69.1964
" />
<path d="M83.0878 69.7964
L83.0878 69.1964
" />
<path d="M83.0878 69.1964
L82.9449 69.1964
" />
<path d="M82.9449 69.1964
L82.8592 69.2249
" />
<path d="M82.8592 69.2249
L82.8021 69.2821
" />
<path d="M82.8021 69.2821
L82.7735 69.3392
" />
<path d="M82.7735 69.3392
L82.7449 69.4535
" />
<path d="M82.7449 69.4535
L82.7449 69.5392
" />
<path d="M82.7449 69.5392
L82.7735 69.6535
" />
<path d="M82.7735 69.6535
L82.8021 69.7107
" />
<path d="M82.8021 69.7107
L82.8592 69.7678
" />
<path d="M82.8592 69.7678
L82.9449 69.7964
" />
<path d="M82.9449 69.7964
L83.0878 69.7964
" />
</g><g transform="rotate(-90.000000 69.1600 60.2700)">
<text x="69.1600" y="60.2700"
transform="scale(-1 1) translate(-138.320000 0)"
textLength="16.8767" font-size="0.9333" lengthAdjust="spacingAndGlyphs"
text-anchor="middle" opacity="0">https://github.com/pedalboard</text>
</g>
<g class="stroked-text"><desc>https://github.com/pedalboard</desc>
<path d="M69.0691 52.0533
L68.3691 52.0533
" />
<path d="M69.0691 52.3533
L68.7025 52.3533
" />
<path d="M68.7025 52.3533
L68.6358 52.3200
" />
<path d="M68.6358 52.3200
L68.6025 52.2533
" />
<path d="M68.6025 52.2533
L68.6025 52.1533
" />
<path d="M68.6025 52.1533
L68.6358 52.0867
" />
<path d="M68.6358 52.0867
L68.6691 52.0533
" />
<path d="M68.6025 52.5867
L68.6025 52.8533
" />
<path d="M68.3691 52.6867
L68.9691 52.6867
" />
<path d="M68.9691 52.6867
L69.0358 52.7200
" />
<path d="M69.0358 52.7200
L69.0691 52.7867
" />
<path d="M69.0691 52.7867
L69.0691 52.8533
" />
<path d="M68.6025 52.9867
L68.6025 53.2533
" />
<path d="M68.3691 53.0867
L68.9691 53.0867
" />
<path d="M68.9691 53.0867
L69.0358 53.1200
" />
<path d="M69.0358 53.1200
L69.0691 53.1867
" />
<path d="M69.0691 53.1867
L69.0691 53.2533
" />
<path d="M68.6025 53.4867
L69.3025 53.4867
" />
<path d="M68.6358 53.4867
L68.6025 53.5533
" />
<path d="M68.6025 53.5533
L68.6025 53.6867
" />
<path d="M68.6025 53.6867
L68.6358 53.7533
" />
<path d="M68.6358 53.7533
L68.6691 53.7867
" />
<path d="M68.6691 53.7867
L68.7358 53.8200
" />
<path d="M68.7358 53.8200
L68.9358 53.8200
" />
<path d="M68.9358 53.8200
L69.0025 53.7867
" />
<path d="M69.0025 53.7867
L69.0358 53.7533
" />
<path d="M69.0358 53.7533
L69.0691 53.6867
" />
<path d="M69.0691 53.6867
L69.0691 53.5533
" />
<path d="M69.0691 53.5533
L69.0358 53.4867
" />
<path d="M69.0358 54.0867
L69.0691 54.1533
" />
<path d="M69.0691 54.1533
L69.0691 54.2867
" />
<path d="M69.0691 54.2867
L69.0358 54.3533
" />
<path d="M69.0358 54.3533
L68.9691 54.3867
" />
<path d="M68.9691 54.3867
L68.9358 54.3867
" />
<path d="M68.9358 54.3867
L68.8691 54.3533
" />
<path d="M68.8691 54.3533
L68.8358 54.2867
" />
<path d="M68.8358 54.2867
L68.8358 54.1867
" />
<path d="M68.8358 54.1867
L68.8025 54.1200
" />
<path d="M68.8025 54.1200
L68.7358 54.0867
" />
<path d="M68.7358 54.0867
L68.7025 54.0867
" />
<path d="M68.7025 54.0867
L68.6358 54.1200
" />
<path d="M68.6358 54.1200
L68.6025 54.1867
" />
<path d="M68.6025 54.1867
L68.6025 54.2867
" />
<path d="M68.6025 54.2867
L68.6358 54.3533
" />
<path d="M69.0025 54.6867
L69.0358 54.7200
" />
<path d="M69.0358 54.7200
L69.0691 54.6867
" />
<path d="M69.0691 54.6867
L69.0358 54.6533
" />
<path d="M69.0358 54.6533
L69.0025 54.6867
" />
<path d="M69.0025 54.6867
L69.0691 54.6867
" />
<path d="M68.6358 54.6867
L68.6691 54.7200
" />
<path d="M68.6691 54.7200
L68.7025 54.6867
" />
<path d="M68.7025 54.6867
L68.6691 54.6533
" />
<path d="M68.6691 54.6533
L68.6358 54.6867
" />
<path d="M68.6358 54.6867
L68.7025 54.6867
" />
<path d="M68.3358 55.5200
L69.2358 54.9200
" />
<path d="M68.3358 56.2533
L69.2358 55.6533
" />
<path d="M68.6025 56.7867
L69.1691 56.7867
" />
<path d="M69.1691 56.7867
L69.2358 56.7533
" />
<path d="M69.2358 56.7533
L69.2691 56.7200
" />
<path d="M69.2691 56.7200
L69.3025 56.6533
" />
<path d="M69.3025 56.6533
L69.3025 56.5533
" />
<path d="M69.3025 56.5533
L69.2691 56.4867
" />
<path d="M69.0358 56.7867
L69.0691 56.7200
" />
<path d="M69.0691 56.7200
L69.0691 56.5867
" />
<path d="M69.0691 56.5867
L69.0358 56.5200
" />
<path d="M69.0358 56.5200
L69.0025 56.4867
" />
<path d="M69.0025 56.4867
L68.9358 56.4533
" />
<path d="M68.9358 56.4533
L68.7358 56.4533
" />
<path d="M68.7358 56.4533
L68.6691 56.4867
" />
<path d="M68.6691 56.4867
L68.6358 56.5200
" />
<path d="M68.6358 56.5200
L68.6025 56.5867
" />
<path d="M68.6025 56.5867
L68.6025 56.7200
" />
<path d="M68.6025 56.7200
L68.6358 56.7867
" />
<path d="M69.0691 57.1200
L68.6025 57.1200
" />
<path d="M68.3691 57.1200
L68.4025 57.0867
" />
<path d="M68.4025 57.0867
L68.4358 57.1200
" />
<path d="M68.4358 57.1200
L68.4025 57.1533
" />
<path d="M68.4025 57.1533
L68.3691 57.1200
" />
<path d="M68.3691 57.1200
L68.4358 57.1200
" />
<path d="M68.6025 57.3533
L68.6025 57.6200
" />
<path d="M68.3691 57.4533
L68.9691 57.4533
" />
<path d="M68.9691 57.4533
L69.0358 57.4867
" />
<path d="M69.0358 57.4867
L69.0691 57.5533
" />
<path d="M69.0691 57.5533
L69.0691 57.6200
" />
<path d="M69.0691 57.8533
L68.3691 57.8533
" />
<path d="M69.0691 58.1533
L68.7025 58.1533
" />
<path d="M68.7025 58.1533
L68.6358 58.1200
" />
<path d="M68.6358 58.1200
L68.6025 58.0533
" />
<path d="M68.6025 58.0533
L68.6025 57.9533
" />
<path d="M68.6025 57.9533
L68.6358 57.8867
" />
<path d="M68.6358 57.8867
L68.6691 57.8533
" />
<path d="M68.6025 58.7867
L69.0691 58.7867
" />
<path d="M68.6025 58.4867
L68.9691 58.4867
" />
<path d="M68.9691 58.4867
L69.0358 58.5200
" />
<path d="M69.0358 58.5200
L69.0691 58.5867
" />
<path d="M69.0691 58.5867
L69.0691 58.6867
" />
<path d="M69.0691 58.6867
L69.0358 58.7533
" />
<path d="M69.0358 58.7533
L69.0025 58.7867
" />
<path d="M69.0691 59.1200
L68.3691 59.1200
" />
<path d="M68.6358 59.1200
L68.6025 59.1867
" />
<path d="M68.6025 59.1867
L68.6025 59.3200
" />
<path d="M68.6025 59.3200
L68.6358 59.3867
" />
<path d="M68.6358 59.3867
L68.6691 59.4200
" />
<path d="M68.6691 59.4200
L68.7358 59.4533
" />
<path d="M68.7358 59.4533
L68.9358 59.4533
" />
<path d="M68.9358 59.4533
L69.0025 59.4200
" />
<path d="M69.0025 59.4200
L69.0358 59.3867
" />
<path d="M69.0358 59.3867
L69.0691 59.3200
" />
<path d="M69.0691 59.3200
L69.0691 59.1867
" />
<path d="M69.0691 59.1867
L69.0358 59.1200
" />
<path d="M69.0025 59.7533
L69.0358 59.7867
" />
<path d="M69.0358 59.7867
L69.0691 59.7533
" />
<path d="M69.0691 59.7533
L69.0358 59.7200
" />
<path d="M69.0358 59.7200
L69.0025 59.7533
" />
<path d="M69.0025 59.7533
L69.0691 59.7533
" />
<path d="M69.0358 60.3867
L69.0691 60.3200
" />
<path d="M69.0691 60.3200
L69.0691 60.1867
" />
<path d="M69.0691 60.1867
L69.0358 60.1200
" />
<path d="M69.0358 60.1200
L69.0025 60.0867
" />
<path d="M69.0025 60.0867
L68.9358 60.0533
" />
<path d="M68.9358 60.0533
L68.7358 60.0533
" />
<path d="M68.7358 60.0533
L68.6691 60.0867
" />
<path d="M68.6691 60.0867
L68.6358 60.1200
" />
<path d="M68.6358 60.1200
L68.6025 60.1867
" />
<path d="M68.6025 60.1867
L68.6025 60.3200
" />
<path d="M68.6025 60.3200
L68.6358 60.3867
" />
<path d="M69.0691 60.7867
L69.0358 60.7200
" />
<path d="M69.0358 60.7200
L69.0025 60.6867
" />
<path d="M69.0025 60.6867
L68.9358 60.6533
" />
<path d="M68.9358 60.6533
L68.7358 60.6533
" />
<path d="M68.7358 60.6533
L68.6691 60.6867
" />
<path d="M68.6691 60.6867
L68.6358 60.7200
" />
<path d="M68.6358 60.7200
L68.6025 60.7867
" />
<path d="M68.6025 60.7867
L68.6025 60.8867
" />
<path d="M68.6025 60.8867
L68.6358 60.9533
" />
<path d="M68.6358 60.9533
L68.6691 60.9867
" />
<path d="M68.6691 60.9867
L68.7358 61.0200
" />
<path d="M68.7358 61.0200
L68.9358 61.0200
" />
<path d="M68.9358 61.0200
L69.0025 60.9867
" />
<path d="M69.0025 60.9867
L69.0358 60.9533
" />
<path d="M69.0358 60.9533
L69.0691 60.8867
" />
<path d="M69.0691 60.8867
L69.0691 60.7867
" />
<path d="M69.0691 61.3200
L68.6025 61.3200
" />
<path d="M68.6691 61.3200
L68.6358 61.3533
" />
<path d="M68.6358 61.3533
L68.6025 61.4200
" />
<path d="M68.6025 61.4200
L68.6025 61.5200
" />
<path d="M68.6025 61.5200
L68.6358 61.5867
" />
<path d="M68.6358 61.5867
L68.7025 61.6200
" />
<path d="M68.7025 61.6200
L69.0691 61.6200
" />
<path d="M68.7025 61.6200
L68.6358 61.6533
" />
<path d="M68.6358 61.6533
L68.6025 61.7200
" />
<path d="M68.6025 61.7200
L68.6025 61.8200
" />
<path d="M68.6025 61.8200
L68.6358 61.8867
" />
<path d="M68.6358 61.8867
L68.7025 61.9200
" />
<path d="M68.7025 61.9200
L69.0691 61.9200
" />
<path d="M68.3358 62.7533
L69.2358 62.1533
" />
<path d="M68.6025 62.9867
L69.3025 62.9867
" />
<path d="M68.6358 62.9867
L68.6025 63.0533
" />
<path d="M68.6025 63.0533
L68.6025 63.1867
" />
<path d="M68.6025 63.1867
L68.6358 63.2533
" />
<path d="M68.6358 63.2533
L68.6691 63.2867
" />
<path d="M68.6691 63.2867
L68.7358 63.3200
" />
<path d="M68.7358 63.3200
L68.9358 63.3200
" />
<path d="M68.9358 63.3200
L69.0025 63.2867
" />
<path d="M69.0025 63.2867
L69.0358 63.2533
" />
<path d="M69.0358 63.2533
L69.0691 63.1867
" />
<path d="M69.0691 63.1867
L69.0691 63.0533
" />
<path d="M69.0691 63.0533
L69.0358 62.9867
" />
<path d="M69.0358 63.8867
L69.0691 63.8200
" />
<path d="M69.0691 63.8200
L69.0691 63.6867
" />
<path d="M69.0691 63.6867
L69.0358 63.6200
" />
<path d="M69.0358 63.6200
L68.9691 63.5867
" />
<path d="M68.9691 63.5867
L68.7025 63.5867
" />
<path d="M68.7025 63.5867
L68.6358 63.6200
" />
<path d="M68.6358 63.6200
L68.6025 63.6867
" />
<path d="M68.6025 63.6867
L68.6025 63.8200
" />
<path d="M68.6025 63.8200
L68.6358 63.8867
" />
<path d="M68.6358 63.8867
L68.7025 63.9200
" />
<path d="M68.7025 63.9200
L68.7691 63.9200
" />
<path d="M68.7691 63.9200
L68.8358 63.5867
" />
<path d="M69.0691 64.5200
L68.3691 64.5200
" />
<path d="M69.0358 64.5200
L69.0691 64.4533
" />
<path d="M69.0691 64.4533
L69.0691 64.3200
" />
<path d="M69.0691 64.3200
L69.0358 64.2533
" />
<path d="M69.0358 64.2533
L69.0025 64.2200
" />
<path d="M69.0025 64.2200
L68.9358 64.1867
" />
<path d="M68.9358 64.1867
L68.7358 64.1867
" />
<path d="M68.7358 64.1867
L68.6691 64.2200
" />
<path d="M68.6691 64.2200
L68.6358 64.2533
" />
<path d="M68.6358 64.2533
L68.6025 64.3200
" />
<path d="M68.6025 64.3200
L68.6025 64.4533
" />
<path d="M68.6025 64.4533
L68.6358 64.5200
" />
<path d="M69.0691 65.1533
L68.7025 65.1533
" />
<path d="M68.7025 65.1533
L68.6358 65.1200
" />
<path d="M68.6358 65.1200
L68.6025 65.0533
" />
<path d="M68.6025 65.0533
L68.6025 64.9200
" />
<path d="M68.6025 64.9200
L68.6358 64.8533
" />
<path d="M69.0358 65.1533
L69.0691 65.0867
" />
<path d="M69.0691 65.0867
L69.0691 64.9200
" />
<path d="M69.0691 64.9200
L69.0358 64.8533
" />
<path d="M69.0358 64.8533
L68.9691 64.8200
" />
<path d="M68.9691 64.8200
L68.9025 64.8200
" />
<path d="M68.9025 64.8200
L68.8358 64.8533
" />
<path d="M68.8358 64.8533
L68.8025 64.9200
" />
<path d="M68.8025 64.9200
L68.8025 65.0867
" />
<path d="M68.8025 65.0867
L68.7691 65.1533
" />
<path d="M69.0691 65.5867
L69.0358 65.5200
" />
<path d="M69.0358 65.5200
L68.9691 65.4867
" />
<path d="M68.9691 65.4867
L68.3691 65.4867
" />
<path d="M69.0691 65.8533
L68.3691 65.8533
" />
<path d="M68.6358 65.8533
L68.6025 65.9200
" />
<path d="M68.6025 65.9200
L68.6025 66.0533
" />
<path d="M68.6025 66.0533
L68.6358 66.1200
" />
<path d="M68.6358 66.1200
L68.6691 66.1533
" />
<path d="M68.6691 66.1533
L68.7358 66.1867
" />
<path d="M68.7358 66.1867
L68.9358 66.1867
" />
<path d="M68.9358 66.1867
L69.0025 66.1533
" />
<path d="M69.0025 66.1533
L69.0358 66.1200
" />
<path d="M69.0358 66.1200
L69.0691 66.0533
" />
<path d="M69.0691 66.0533
L69.0691 65.9200
" />
<path d="M69.0691 65.9200
L69.0358 65.8533
" />
<path d="M69.0691 66.5867
L69.0358 66.5200
" />
<path d="M69.0358 66.5200
L69.0025 66.4867
" />
<path d="M69.0025 66.4867
L68.9358 66.4533
" />
<path d="M68.9358 66.4533
L68.7358 66.4533
" />
<path d="M68.7358 66.4533
L68.6691 66.4867
" />
<path d="M68.6691 66.4867
L68.6358 66.5200
" />
<path d="M68.6358 66.5200
L68.6025 66.5867
" />
<path d="M68.6025 66.5867
L68.6025 66.6867
" />
<path d="M68.6025 66.6867
L68.6358 66.7533
" />
<path d="M68.6358 66.7533
L68.6691 66.7867
" />
<path d="M68.6691 66.7867
L68.7358 66.8200
" />
<path d="M68.7358 66.8200
L68.9358 66.8200
" />
<path d="M68.9358 66.8200
L69.0025 66.7867
" />
<path d="M69.0025 66.7867
L69.0358 66.7533
" />
<path d="M69.0358 66.7533
L69.0691 66.6867
" />
<path d="M69.0691 66.6867
L69.0691 66.5867
" />
<path d="M69.0691 67.4200
L68.7025 67.4200
" />
<path d="M68.7025 67.4200
L68.6358 67.3867
" />
<path d="M68.6358 67.3867
L68.6025 67.3200
" />
<path d="M68.6025 67.3200
L68.6025 67.1867
" />
<path d="M68.6025 67.1867
L68.6358 67.1200
" />
<path d="M69.0358 67.4200
L69.0691 67.3533
" />
<path d="M69.0691 67.3533
L69.0691 67.1867
" />
<path d="M69.0691 67.1867
L69.0358 67.1200
" />
<path d="M69.0358 67.1200
L68.9691 67.0867
" />
<path d="M68.9691 67.0867
L68.9025 67.0867
" />
<path d="M68.9025 67.0867
L68.8358 67.1200
" />
<path d="M68.8358 67.1200
L68.8025 67.1867
" />
<path d="M68.8025 67.1867
L68.8025 67.3533
" />
<path d="M68.8025 67.3533
L68.7691 67.4200
" />
<path d="M69.0691 67.7533
L68.6025 67.7533
" />
<path d="M68.7358 67.7533
L68.6691 67.7867
" />
<path d="M68.6691 67.7867
L68.6358 67.8200
" />
<path d="M68.6358 67.8200
L68.6025 67.8867
" />
<path d="M68.6025 67.8867
L68.6025 67.9533
" />
<path d="M69.0691 68.4867
L68.3691 68.4867
" />
<path d="M69.0358 68.4867
L69.0691 68.4200
" />
<path d="M69.0691 68.4200
L69.0691 68.2867
" />
<path d="M69.0691 68.2867
L69.0358 68.2200
" />
<path d="M69.0358 68.2200
L69.0025 68.1867
" />
<path d="M69.0025 68.1867
L68.9358 68.1533
" />
<path d="M68.9358 68.1533
L68.7358 68.1533
" />
<path d="M68.7358 68.1533
L68.6691 68.1867
" />
<path d="M68.6691 68.1867
L68.6358 68.2200
" />
<path d="M68.6358 68.2200
L68.6025 68.2867
" />
<path d="M68.6025 68.2867
L68.6025 68.4200
" />
<path d="M68.6025 68.4200
L68.6358 68.4867
" />
</g><text x="90.6900" y="67.8000"
transform="scale(-1 1) translate(-181.380000 0)"
textLength="1.0157" font-size="0.8000" lengthAdjust="spacingAndGlyphs"
text-anchor="start" opacity="0">DI</text>
<g class="stroked-text"><desc>DI</desc>
<path d="M90.4814 67.7214
L90.4814 67.1214
" />
<path d="M90.4814 67.1214
L90.3385 67.1214
" />
<path d="M90.3385 67.1214
L90.2528 67.1499
" />
<path d="M90.2528 67.1499
L90.1956 67.2071
" />
<path d="M90.1956 67.2071
L90.1671 67.2642
" />
<path d="M90.1671 67.2642
L90.1385 67.3785
" />
<path d="M90.1385 67.3785
L90.1385 67.4642
" />
<path d="M90.1385 67.4642
L90.1671 67.5785
" />
<path d="M90.1671 67.5785
L90.1956 67.6357
" />
<path d="M90.1956 67.6357
L90.2528 67.6928
" />
<path d="M90.2528 67.6928
L90.3385 67.7214
" />
<path d="M90.3385 67.7214
L90.4814 67.7214
" />
<path d="M89.8814 67.7214
L89.8814 67.1214
" />
</g><g transform="rotate(-90.000000 89.9000 55.7200)">
<text x="89.9000" y="55.7200"
transform="scale(-1 1) translate(-179.800000 0)"
textLength="1.8443" font-size="0.8000" lengthAdjust="spacingAndGlyphs"
text-anchor="start" opacity="0">VCC</text>
</g>
<g class="stroked-text"><desc>VCC</desc>
<path d="M89.2214 55.8429
L89.8214 56.0429
" />
<path d="M89.8214 56.0429
L89.2214 56.2429
" />
<path d="M89.7642 56.7858
L89.7928 56.7572
" />
<path d="M89.7928 56.7572
L89.8214 56.6715
" />
<path d="M89.8214 56.6715
L89.8214 56.6144
" />
<path d="M89.8214 56.6144
L89.7928 56.5286
" />
<path d="M89.7928 56.5286
L89.7357 56.4715
" />
<path d="M89.7357 56.4715
L89.6785 56.4429
" />
<path d="M89.6785 56.4429
L89.5642 56.4144
" />
<path d="M89.5642 56.4144
L89.4785 56.4144
" />
<path d="M89.4785 56.4144
L89.3642 56.4429
" />
<path d="M89.3642 56.4429
L89.3071 56.4715
" />
<path d="M89.3071 56.4715
L89.2499 56.5286
" />
<path d="M89.2499 56.5286
L89.2214 56.6144
" />
<path d="M89.2214 56.6144
L89.2214 56.6715
" />
<path d="M89.2214 56.6715
L89.2499 56.7572
" />
<path d="M89.2499 56.7572
L89.2785 56.7858
" />
<path d="M89.7642 57.3858
L89.7928 57.3572
" />
<path d="M89.7928 57.3572
L89.8214 57.2715
" />
<path d="M89.8214 57.2715
L89.8214 57.2144
" />
<path d="M89.8214 57.2144
L89.7928 57.1286
" />
<path d="M89.7928 57.1286
L89.7357 57.0715
" />
<path d="M89.7357 57.0715
L89.6785 57.0429
" />
<path d="M89.6785 57.0429
L89.5642 57.0144
" />
<path d="M89.5642 57.0144
L89.4785 57.0144
" />
<path d="M89.4785 57.0144
L89.3642 57.0429
" />
<path d="M89.3642 57.0429
L89.3071 57.0715
" />
<path d="M89.3071 57.0715
L89.2499 57.1286
" />
<path d="M89.2499 57.1286
L89.2214 57.2144
" />
<path d="M89.2214 57.2144
L89.2214 57.2715
" />
<path d="M89.2214 57.2715
L89.2499 57.3572
" />
<path d="M89.2499 57.3572
L89.2785 57.3858
" />
</g><text x="78.2500" y="71.5000"
transform="scale(-1 1) translate(-156.500000 0)"
textLength="4.5548" font-size="0.6667" lengthAdjust="spacingAndGlyphs"
text-anchor="middle" opacity="0">PCB: v1.0.0</text>
<g class="stroked-text"><desc>PCB: v1.0.0</desc>
<path d="M80.3333 71.4336
L80.3333 70.9336
" />
<path d="M80.3333 70.9336
L80.1429 70.9336
" />
<path d="M80.1429 70.9336
L80.0952 70.9574
" />
<path d="M80.0952 70.9574
L80.0714 70.9812
" />
<path d="M80.0714 70.9812
L80.0476 71.0288
" />
<path d="M80.0476 71.0288
L80.0476 71.1003
" />
<path d="M80.0476 71.1003
L80.0714 71.1479
" />
<path d="M80.0714 71.1479
L80.0952 71.1717
" />
<path d="M80.0952 71.1717
L80.1429 71.1955
" />
<path d="M80.1429 71.1955
L80.3333 71.1955
" />
<path d="M79.5476 71.3860
L79.5714 71.4098
" />
<path d="M79.5714 71.4098
L79.6429 71.4336
" />
<path d="M79.6429 71.4336
L79.6905 71.4336
" />
<path d="M79.6905 71.4336
L79.7619 71.4098
" />
<path d="M79.7619 71.4098
L79.8095 71.3622
" />
<path d="M79.8095 71.3622
L79.8333 71.3146
" />
<path d="M79.8333 71.3146
L79.8571 71.2193
" />
<path d="M79.8571 71.2193
L79.8571 71.1479
" />
<path d="M79.8571 71.1479
L79.8333 71.0527
" />
<path d="M79.8333 71.0527
L79.8095 71.0050
" />
<path d="M79.8095 71.0050
L79.7619 70.9574
" />
<path d="M79.7619 70.9574
L79.6905 70.9336
" />
<path d="M79.6905 70.9336
L79.6429 70.9336
" />
<path d="M79.6429 70.9336
L79.5714 70.9574
" />
<path d="M79.5714 70.9574
L79.5476 70.9812
" />
<path d="M79.1667 71.1717
L79.0952 71.1955
" />
<path d="M79.0952 71.1955
L79.0714 71.2193
" />
<path d="M79.0714 71.2193
L79.0476 71.2669
" />
<path d="M79.0476 71.2669
L79.0476 71.3384
" />
<path d="M79.0476 71.3384
L79.0714 71.3860
" />
<path d="M79.0714 71.3860
L79.0952 71.4098
" />
<path d="M79.0952 71.4098
L79.1429 71.4336
" />
<path d="M79.1429 71.4336
L79.3333 71.4336
" />
<path d="M79.3333 71.4336
L79.3333 70.9336
" />
<path d="M79.3333 70.9336
L79.1667 70.9336
" />
<path d="M79.1667 70.9336
L79.1190 70.9574
" />
<path d="M79.1190 70.9574
L79.0952 70.9812
" />
<path d="M79.0952 70.9812
L79.0714 71.0288
" />
<path d="M79.0714 71.0288
L79.0714 71.0765
" />
<path d="M79.0714 71.0765
L79.0952 71.1241
" />
<path d="M79.0952 71.1241
L79.1190 71.1479
" />
<path d="M79.1190 71.1479
L79.1667 71.1717
" />
<path d="M79.1667 71.1717
L79.3333 71.1717
" />
<path d="M78.8333 71.3860
L78.8095 71.4098
" />
<path d="M78.8095 71.4098
L78.8333 71.4336
" />
<path d="M78.8333 71.4336
L78.8571 71.4098
" />
<path d="M78.8571 71.4098
L78.8333 71.3860
" />
<path d="M78.8333 71.3860
L78.8333 71.4336
" />
<path d="M78.8333 71.1241
L78.8095 71.1479
" />
<path d="M78.8095 71.1479
L78.8333 71.1717
" />
<path d="M78.8333 71.1717
L78.8571 71.1479
" />
<path d="M78.8571 71.1479
L78.8333 71.1241
" />
<path d="M78.8333 71.1241
L78.8333 71.1717
" />
<path d="M78.2619 71.1003
L78.1429 71.4336
" />
<path d="M78.1429 71.4336
L78.0238 71.1003
" />
<path d="M77.5714 71.4336
L77.8571 71.4336
" />
<path d="M77.7143 71.4336
L77.7143 70.9336
" />
<path d="M77.7143 70.9336
L77.7619 71.0050
" />
<path d="M77.7619 71.0050
L77.8095 71.0527
" />
<path d="M77.8095 71.0527
L77.8571 71.0765
" />
<path d="M77.3571 71.3860
L77.3333 71.4098
" />
<path d="M77.3333 71.4098
L77.3571 71.4336
" />
<path d="M77.3571 71.4336
L77.3810 71.4098
" />
<path d="M77.3810 71.4098
L77.3571 71.3860
" />
<path d="M77.3571 71.3860
L77.3571 71.4336
" />
<path d="M77.0238 70.9336
L76.9762 70.9336
" />
<path d="M76.9762 70.9336
L76.9286 70.9574
" />
<path d="M76.9286 70.9574
L76.9048 70.9812
" />
<path d="M76.9048 70.9812
L76.8810 71.0288
" />
<path d="M76.8810 71.0288
L76.8571 71.1241
" />
<path d="M76.8571 71.1241
L76.8571 71.2431
" />
<path d="M76.8571 71.2431
L76.8810 71.3384
" />
<path d="M76.8810 71.3384
L76.9048 71.3860
" />
<path d="M76.9048 71.3860
L76.9286 71.4098
" />
<path d="M76.9286 71.4098
L76.9762 71.4336
" />
<path d="M76.9762 71.4336
L77.0238 71.4336
" />
<path d="M77.0238 71.4336
L77.0714 71.4098
" />
<path d="M77.0714 71.4098
L77.0952 71.3860
" />
<path d="M77.0952 71.3860
L77.1190 71.3384
" />
<path d="M77.1190 71.3384
L77.1429 71.2431
" />
<path d="M77.1429 71.2431
L77.1429 71.1241
" />
<path d="M77.1429 71.1241
L77.1190 71.0288
" />
<path d="M77.1190 71.0288
L77.0952 70.9812
" />
<path d="M77.0952 70.9812
L77.0714 70.9574
" />
<path d="M77.0714 70.9574
L77.0238 70.9336
" />
<path d="M76.6429 71.3860
L76.6190 71.4098
" />
<path d="M76.6190 71.4098
L76.6429 71.4336
" />
<path d="M76.6429 71.4336
L76.6667 71.4098
" />
<path d="M76.6667 71.4098
L76.6429 71.3860
" />
<path d="M76.6429 71.3860
L76.6429 71.4336
" />
<path d="M76.3095 70.9336
L76.2619 70.9336
" />
<path d="M76.2619 70.9336
L76.2143 70.9574
" />
<path d="M76.2143 70.9574
L76.1905 70.9812
" />
<path d="M76.1905 70.9812
L76.1667 71.0288
" />
<path d="M76.1667 71.0288
L76.1429 71.1241
" />
<path d="M76.1429 71.1241
L76.1429 71.2431
" />
<path d="M76.1429 71.2431
L76.1667 71.3384
" />
<path d="M76.1667 71.3384
L76.1905 71.3860
" />
<path d="M76.1905 71.3860
L76.2143 71.4098
" />
<path d="M76.2143 71.4098
L76.2619 71.4336
" />
<path d="M76.2619 71.4336
L76.3095 71.4336
" />
<path d="M76.3095 71.4336
L76.3571 71.4098
" />
<path d="M76.3571 71.4098
L76.3810 71.3860
" />
<path d="M76.3810 71.3860
L76.4048 71.3384
" />
<path d="M76.4048 71.3384
L76.4286 71.2431
" />
<path d="M76.4286 71.2431
L76.4286 71.1241
" />
<path d="M76.4286 71.1241
L76.4048 71.0288
" />
<path d="M76.4048 71.0288
L76.3810 70.9812
" />
<path d="M76.3810 70.9812
L76.3571 70.9574
" />
<path d="M76.3571 70.9574
L76.3095 70.9336
" />
</g><text x="84.2750" y="67.7800"
transform="scale(-1 1) translate(-168.550000 0)"
textLength="1.3586" font-size="0.8000" lengthAdjust="spacingAndGlyphs"
text-anchor="start" opacity="0">DO</text>
<g class="stroked-text"><desc>DO</desc>
<path d="M84.0664 67.7014
L84.0664 67.1014
" />
<path d="M84.0664 67.1014
L83.9235 67.1014
" />
<path d="M83.9235 67.1014
L83.8378 67.1299
" />
<path d="M83.8378 67.1299
L83.7806 67.1871
" />
<path d="M83.7806 67.1871
L83.7521 67.2442
" />
<path d="M83.7521 67.2442
L83.7235 67.3585
" />
<path d="M83.7235 67.3585
L83.7235 67.4442
" />
<path d="M83.7235 67.4442
L83.7521 67.5585
" />
<path d="M83.7521 67.5585
L83.7806 67.6157
" />
<path d="M83.7806 67.6157
L83.8378 67.6728
" />
<path d="M83.8378 67.6728
L83.9235 67.7014
" />
<path d="M83.9235 67.7014
L84.0664 67.7014
" />
<path d="M83.3521 67.1014
L83.2378 67.1014
" />
<path d="M83.2378 67.1014
L83.1806 67.1299
" />
<path d="M83.1806 67.1299
L83.1235 67.1871
" />
<path d="M83.1235 67.1871
L83.0949 67.3014
" />
<path d="M83.0949 67.3014
L83.0949 67.5014
" />
<path d="M83.0949 67.5014
L83.1235 67.6157
" />
<path d="M83.1235 67.6157
L83.1806 67.6728
" />
<path d="M83.1806 67.6728
L83.2378 67.7014
" />
<path d="M83.2378 67.7014
L83.3521 67.7014
" />
<path d="M83.3521 67.7014
L83.4092 67.6728
" />
<path d="M83.4092 67.6728
L83.4664 67.6157
" />
<path d="M83.4664 67.6157
L83.4949 67.5014
" />
<path d="M83.4949 67.5014
L83.4949 67.3014
" />
<path d="M83.4949 67.3014
L83.4664 67.1871
" />
<path d="M83.4664 67.1871
L83.4092 67.1299
" />
<path d="M83.4092 67.1299
L83.3521 67.1014
" />
</g><text x="80.2600" y="49.2300"
transform="scale(-1 1) translate(-160.520000 0)"
textLength="11.2767" font-size="0.9333" lengthAdjust="spacingAndGlyphs"
text-anchor="middle" opacity="0">Pedalboard LED Ring</text>
<g class="stroked-text"><desc>Pedalboard LED Ring</desc>
<path d="M85.6767 49.1391
L85.6767 48.4391
" />
<path d="M85.6767 48.4391
L85.4100 48.4391
" />
<path d="M85.4100 48.4391
L85.3433 48.4725
" />
<path d="M85.3433 48.4725
L85.3100 48.5058
" />
<path d="M85.3100 48.5058
L85.2767 48.5725
" />
<path d="M85.2767 48.5725
L85.2767 48.6725
" />
<path d="M85.2767 48.6725
L85.3100 48.7391
" />
<path d="M85.3100 48.7391
L85.3433 48.7725
" />
<path d="M85.3433 48.7725
L85.4100 48.8058
" />
<path d="M85.4100 48.8058
L85.6767 48.8058
" />
<path d="M84.7100 49.1058
L84.7767 49.1391
" />
<path d="M84.7767 49.1391
L84.9100 49.1391
" />
<path d="M84.9100 49.1391
L84.9767 49.1058
" />
<path d="M84.9767 49.1058
L85.0100 49.0391
" />
<path d="M85.0100 49.0391
L85.0100 48.7725
" />
<path d="M85.0100 48.7725
L84.9767 48.7058
" />
<path d="M84.9767 48.7058
L84.9100 48.6725
" />
<path d="M84.9100 48.6725
L84.7767 48.6725
" />
<path d="M84.7767 48.6725
L84.7100 48.7058
" />
<path d="M84.7100 48.7058
L84.6767 48.7725
" />
<path d="M84.6767 48.7725
L84.6767 48.8391
" />
<path d="M84.6767 48.8391
L85.0100 48.9058
" />
<path d="M84.0767 49.1391
L84.0767 48.4391
" />
<path d="M84.0767 49.1058
L84.1433 49.1391
" />
<path d="M84.1433 49.1391
L84.2767 49.1391
" />
<path d="M84.2767 49.1391
L84.3433 49.1058
" />
<path d="M84.3433 49.1058
L84.3767 49.0725
" />
<path d="M84.3767 49.0725
L84.4100 49.0058
" />
<path d="M84.4100 49.0058
L84.4100 48.8058
" />
<path d="M84.4100 48.8058
L84.3767 48.7391
" />
<path d="M84.3767 48.7391
L84.3433 48.7058
" />
<path d="M84.3433 48.7058
L84.2767 48.6725
" />
<path d="M84.2767 48.6725
L84.1433 48.6725
" />
<path d="M84.1433 48.6725
L84.0767 48.7058
" />
<path d="M83.4433 49.1391
L83.4433 48.7725
" />
<path d="M83.4433 48.7725
L83.4767 48.7058
" />
<path d="M83.4767 48.7058
L83.5433 48.6725
" />
<path d="M83.5433 48.6725
L83.6767 48.6725
" />
<path d="M83.6767 48.6725
L83.7433 48.7058
" />
<path d="M83.4433 49.1058
L83.5100 49.1391
" />
<path d="M83.5100 49.1391
L83.6767 49.1391
" />
<path d="M83.6767 49.1391
L83.7433 49.1058
" />
<path d="M83.7433 49.1058
L83.7767 49.0391
" />
<path d="M83.7767 49.0391
L83.7767 48.9725
" />
<path d="M83.7767 48.9725
L83.7433 48.9058
" />
<path d="M83.7433 48.9058
L83.6767 48.8725
" />
<path d="M83.6767 48.8725
L83.5100 48.8725
" />
<path d="M83.5100 48.8725
L83.4433 48.8391
" />
<path d="M83.0100 49.1391
L83.0767 49.1058
" />
<path d="M83.0767 49.1058
L83.1100 49.0391
" />
<path d="M83.1100 49.0391
L83.1100 48.4391
" />
<path d="M82.7433 49.1391
L82.7433 48.4391
" />
<path d="M82.7433 48.7058
L82.6767 48.6725
" />
<path d="M82.6767 48.6725
L82.5433 48.6725
" />
<path d="M82.5433 48.6725
L82.4767 48.7058
" />
<path d="M82.4767 48.7058
L82.4433 48.7391
" />
<path d="M82.4433 48.7391
L82.4100 48.8058
" />
<path d="M82.4100 48.8058
L82.4100 49.0058
" />
<path d="M82.4100 49.0058
L82.4433 49.0725
" />
<path d="M82.4433 49.0725
L82.4767 49.1058
" />
<path d="M82.4767 49.1058
L82.5433 49.1391
" />
<path d="M82.5433 49.1391
L82.6767 49.1391
" />
<path d="M82.6767 49.1391
L82.7433 49.1058
" />
<path d="M82.0100 49.1391
L82.0767 49.1058
" />
<path d="M82.0767 49.1058
L82.1100 49.0725
" />
<path d="M82.1100 49.0725
L82.1433 49.0058
" />
<path d="M82.1433 49.0058
L82.1433 48.8058
" />
<path d="M82.1433 48.8058
L82.1100 48.7391
" />
<path d="M82.1100 48.7391
L82.0767 48.7058
" />
<path d="M82.0767 48.7058
L82.0100 48.6725
" />
<path d="M82.0100 48.6725
L81.9100 48.6725
" />
<path d="M81.9100 48.6725
L81.8433 48.7058
" />
<path d="M81.8433 48.7058
L81.8100 48.7391
" />
<path d="M81.8100 48.7391
L81.7767 48.8058
" />
<path d="M81.7767 48.8058
L81.7767 49.0058
" />
<path d="M81.7767 49.0058
L81.8100 49.0725
" />
<path d="M81.8100 49.0725
L81.8433 49.1058
" />
<path d="M81.8433 49.1058
L81.9100 49.1391
" />
<path d="M81.9100 49.1391
L82.0100 49.1391
" />
<path d="M81.1767 49.1391
L81.1767 48.7725
" />
<path d="M81.1767 48.7725
L81.2100 48.7058
" />
<path d="M81.2100 48.7058
L81.2767 48.6725
" />
<path d="M81.2767 48.6725
L81.4100 48.6725
" />
<path d="M81.4100 48.6725
L81.4767 48.7058
" />
<path d="M81.1767 49.1058
L81.2433 49.1391
" />
<path d="M81.2433 49.1391
L81.4100 49.1391
" />
<path d="M81.4100 49.1391
L81.4767 49.1058
" />
<path d="M81.4767 49.1058
L81.5100 49.0391
" />
<path d="M81.5100 49.0391
L81.5100 48.9725
" />
<path d="M81.5100 48.9725
L81.4767 48.9058
" />
<path d="M81.4767 48.9058
L81.4100 48.8725
" />
<path d="M81.4100 48.8725
L81.2433 48.8725
" />
<path d="M81.2433 48.8725
L81.1767 48.8391
" />
<path d="M80.8433 49.1391
L80.8433 48.6725
" />
<path d="M80.8433 48.8058
L80.8100 48.7391
" />
<path d="M80.8100 48.7391
L80.7767 48.7058
" />
<path d="M80.7767 48.7058
L80.7100 48.6725
" />
<path d="M80.7100 48.6725
L80.6433 48.6725
" />
<path d="M80.1100 49.1391
L80.1100 48.4391
" />
<path d="M80.1100 49.1058
L80.1767 49.1391
" />
<path d="M80.1767 49.1391
L80.3100 49.1391
" />
<path d="M80.3100 49.1391
L80.3767 49.1058
" />
<path d="M80.3767 49.1058
L80.4100 49.0725
" />
<path d="M80.4100 49.0725
L80.4433 49.0058
" />
<path d="M80.4433 49.0058
L80.4433 48.8058
" />
<path d="M80.4433 48.8058
L80.4100 48.7391
" />
<path d="M80.4100 48.7391
L80.3767 48.7058
" />
<path d="M80.3767 48.7058
L80.3100 48.6725
" />
<path d="M80.3100 48.6725
L80.1767 48.6725
" />
<path d="M80.1767 48.6725
L80.1100 48.7058
" />
<path d="M78.9100 49.1391
L79.2433 49.1391
" />
<path d="M79.2433 49.1391
L79.2433 48.4391
" />
<path d="M78.6767 48.7725
L78.4433 48.7725
" />
<path d="M78.3433 49.1391
L78.6767 49.1391
" />
<path d="M78.6767 49.1391
L78.6767 48.4391
" />
<path d="M78.6767 48.4391
L78.3433 48.4391
" />
<path d="M78.0433 49.1391
L78.0433 48.4391
" />
<path d="M78.0433 48.4391
L77.8767 48.4391
" />
<path d="M77.8767 48.4391
L77.7767 48.4725
" />
<path d="M77.7767 48.4725
L77.7100 48.5391
" />
<path d="M77.7100 48.5391
L77.6767 48.6058
" />
<path d="M77.6767 48.6058
L77.6433 48.7391
" />
<path d="M77.6433 48.7391
L77.6433 48.8391
" />
<path d="M77.6433 48.8391
L77.6767 48.9725
" />
<path d="M77.6767 48.9725
L77.7100 49.0391
" />
<path d="M77.7100 49.0391
L77.7767 49.1058
" />
<path d="M77.7767 49.1058
L77.8767 49.1391
" />
<path d="M77.8767 49.1391
L78.0433 49.1391
" />
<path d="M76.4100 49.1391
L76.6433 48.8058
" />
<path d="M76.8100 49.1391
L76.8100 48.4391
" />
<path d="M76.8100 48.4391
L76.5433 48.4391
" />
<path d="M76.5433 48.4391
L76.4767 48.4725
" />
<path d="M76.4767 48.4725
L76.4433 48.5058
" />
<path d="M76.4433 48.5058
L76.4100 48.5725
" />
<path d="M76.4100 48.5725
L76.4100 48.6725
" />
<path d="M76.4100 48.6725
L76.4433 48.7391
" />
<path d="M76.4433 48.7391
L76.4767 48.7725
" />
<path d="M76.4767 48.7725
L76.5433 48.8058
" />
<path d="M76.5433 48.8058
L76.8100 48.8058
" />
<path d="M76.1100 49.1391
L76.1100 48.6725
" />
<path d="M76.1100 48.4391
L76.1433 48.4725
" />
<path d="M76.1433 48.4725
L76.1100 48.5058
" />
<path d="M76.1100 48.5058
L76.0767 48.4725
" />
<path d="M76.0767 48.4725
L76.1100 48.4391
" />
<path d="M76.1100 48.4391
L76.1100 48.5058
" />
<path d="M75.7767 48.6725
L75.7767 49.1391
" />
<path d="M75.7767 48.7391
L75.7433 48.7058
" />
<path d="M75.7433 48.7058
L75.6767 48.6725
" />
<path d="M75.6767 48.6725
L75.5767 48.6725
" />
<path d="M75.5767 48.6725
L75.5100 48.7058
" />
<path d="M75.5100 48.7058
L75.4767 48.7725
" />
<path d="M75.4767 48.7725
L75.4767 49.1391
" />
<path d="M74.8433 48.6725
L74.8433 49.2391
" />
<path d="M74.8433 49.2391
L74.8767 49.3058
" />
<path d="M74.8767 49.3058
L74.9100 49.3391
" />
<path d="M74.9100 49.3391
L74.9767 49.3725
" />
<path d="M74.9767 49.3725
L75.0767 49.3725
" />
<path d="M75.0767 49.3725
L75.1433 49.3391
" />
<path d="M74.8433 49.1058
L74.9100 49.1391
" />
<path d="M74.9100 49.1391
L75.0433 49.1391
" />
<path d="M75.0433 49.1391
L75.1100 49.1058
" />
<path d="M75.1100 49.1058
L75.1433 49.0725
" />
<path d="M75.1433 49.0725
L75.1767 49.0058
" />
<path d="M75.1767 49.0058
L75.1767 48.8058
" />
<path d="M75.1767 48.8058
L75.1433 48.7391
" />
<path d="M75.1433 48.7391
L75.1100 48.7058
" />
<path d="M75.1100 48.7058
L75.0433 48.6725
" />
<path d="M75.0433 48.6725
L74.9100 48.6725
" />
<path d="M74.9100 48.6725
L74.8433 48.7058
" />
</g></g>
<g style="fill:#000000; fill-opacity:0.0; 
stroke:#000000; stroke-width:0.1200; stroke-opacity:1; 
stroke-linecap:round; stroke-linejoin:round;">
<path d="M87.4400 62.0600
L87.4400 57.9400
" />
<path d="M87.7400 62.0600
L87.4400 62.0600
" />
<path d="M89.7400 62.0600
L89.2600 62.0600
" />
<path d="M91.5600 62.0600
L91.2600 62.0600
" />
<path d="M91.5600 62.0600
L91.5600 57.9400
" />
<path d="M87.7400 57.9400
L87.4400 57.9400
" />
<path d="M89.7400 57.9400
L89.2600 57.9400
" />
<path d="M91.2600 57.9400
L91.2600 55.5600
" />
<path d="M91.5600 57.9400
L91.2600 57.9400
" />
<path d="M84.9400 67.4400
L89.0600 67.4400
" />
<path d="M84.9400 67.7400
L84.9400 67.4400
" />
<path d="M84.9400 69.7400
L84.9400 69.2600
" />
<path d="M84.9400 71.5600
L84.9400 71.2600
" />
<path d="M84.9400 71.5600
L89.0600 71.5600
" />
<path d="M89.0600 67.7400
L89.0600 67.4400
" />
<path d="M89.0600 69.7400
L89.0600 69.2600
" />
<path d="M89.0600 71.2600
L91.4400 71.2600
" />
<path d="M89.0600 71.5600
L89.0600 71.2600
" />
<g >
</g>
<g >
</g>
<g >
</g>
<g >
</g>
<g >
</g>
<g >
</g>
<g >
</g>
<g >
</g>
<g >
</g>
<g >
</g>
<g >
</g>
<g >
</g>
<g >
</g>
<g >
</g>
<g >
</g>
<g >
</g>
<g >
</g>
<g >
</g>
<g >
</g>
<g >
</g>
<g >
</g>
<g >
</g>
<g >
</g>
<g >
</g>
<g >
</g>
<g >
</g>
<g >
</g>
<g >
</g>
<g >
</g>
<g >
</g>
<g >
</g>
<g >
</g>
<g >
</g>
<g >
</g>
</g>
<g style="fill:#FFFFFF; fill-opacity:0.0; 
stroke:#FFFFFF; stroke-width:0.1200; stroke-opacity:1; 
stroke-linecap:round; stroke-linejoin:round;">
</g>
<g style="fill:#FFFFFF; fill-opacity:1.0000; 
stroke:#FFFFFF; stroke-width:0.0000; stroke-opacity:1; 
stroke-linecap:round; stroke-linejoin:round;">
<circle cx="86.8000" cy="63.6000" r="0.2000" /> 
</g>
<g style="fill:#FFFFFF; fill-opacity:1.0000; 
stroke:#FFFFFF; stroke-width:0.0212; stroke-opacity:1; 
stroke-linecap:round; stroke-linejoin:round;">
</g>
<g style="fill:#FFFFFF; fill-opacity:1.0000; 
stroke:#FFFFFF; stroke-width:0.0000; stroke-opacity:1; 
stroke-linecap:round; stroke-linejoin:round;">
<circle cx="74.0000" cy="52.0000" r="0.2000" /> 
</g>
<g style="fill:#FFFFFF; fill-opacity:1.0000; 
stroke:#FFFFFF; stroke-width:0.0212; stroke-opacity:1; 
stroke-linecap:round; stroke-linejoin:round;">
</g>
<g style="fill:#FFFFFF; fill-opacity:1.0000; 
stroke:#FFFFFF; stroke-width:0.0000; stroke-opacity:1; 
stroke-linecap:round; stroke-linejoin:round;">
<circle cx="89.9282" cy="58.8038" r="0.2000" /> 
</g>
<g style="fill:#FFFFFF; fill-opacity:1.0000; 
stroke:#FFFFFF; stroke-width:0.0212; stroke-opacity:1; 
stroke-linecap:round; stroke-linejoin:round;">
</g>
<g style="fill:#FFFFFF; fill-opacity:1.0000; 
stroke:#FFFFFF; stroke-width:0.0000; stroke-opacity:1; 
stroke-linecap:round; stroke-linejoin:round;">
<circle cx="70.0718" cy="61.1962" r="0.2000" /> 
</g>
<g style="fill:#FFFFFF; fill-opacity:1.0000; 
stroke:#FFFFFF; stroke-width:0.0212; stroke-opacity:1; 
stroke-linecap:round; stroke-linejoin:round;">
</g>
<g style="fill:#FFFFFF; fill-opacity:1.0000; 
stroke:#FFFFFF; stroke-width:0.0000; stroke-opacity:1; 
stroke-linecap:round; stroke-linejoin:round;">
<circle cx="76.0718" cy="69.1962" r="0.2000" /> 
</g>
<g style="fill:#FFFFFF; fill-opacity:1.0000; 
stroke:#FFFFFF; stroke-width:0.0212; stroke-opacity:1; 
stroke-linecap:round; stroke-linejoin:round;">
</g>
<g style="fill:#FFFFFF; fill-opacity:1.0000; 
stroke:#FFFFFF; stroke-width:0.0000; stroke-opacity:1; 
stroke-linecap:round; stroke-linejoin:round;">
<circle cx="81.1962" cy="69.9282" r="0.2000" /> 
</g>
<g style="fill:#FFFFFF; fill-opacity:1.0000; 
stroke:#FFFFFF; stroke-width:0.0212; stroke-opacity:1; 
stroke-linecap:round; stroke-linejoin:round;">
</g>
<g style="fill:#FFFFFF; fill-opacity:1.0000; 
stroke:#FFFFFF; stroke-width:0.0000; stroke-opacity:1; 
stroke-linecap:round; stroke-linejoin:round;">
<circle cx="83.9282" cy="50.8038" r="0.2000" /> 
</g>
<g style="fill:#FFFFFF; fill-opacity:1.0000; 
stroke:#FFFFFF; stroke-width:0.0212; stroke-opacity:1; 
stroke-linecap:round; stroke-linejoin:round;">
</g>
<g style="fill:#FFFFFF; fill-opacity:1.0000; 
stroke:#FFFFFF; stroke-width:0.0000; stroke-opacity:1; 
stroke-linecap:round; stroke-linejoin:round;">
<circle cx="72.0000" cy="66.0000" r="0.2000" /> 
</g>
<g style="fill:#FFFFFF; fill-opacity:1.0000; 
stroke:#FFFFFF; stroke-width:0.0212; stroke-opacity:1; 
stroke-linecap:round; stroke-linejoin:round;">
</g>
<g style="fill:#FFFFFF; fill-opacity:1.0000; 
stroke:#FFFFFF; stroke-width:0.0000; stroke-opacity:1; 
stroke-linecap:round; stroke-linejoin:round;">
<circle cx="86.0000" cy="67.9400" r="0.2000" /> 
</g>
<g style="fill:#FFFFFF; fill-opacity:1.0000; 
stroke:#FFFFFF; stroke-width:0.0212; stroke-opacity:1; 
stroke-linecap:round; stroke-linejoin:round;">
</g>
<g style="fill:#FFFFFF; fill-opacity:1.0000; 
stroke:#FFFFFF; stroke-width:0.0000; stroke-opacity:1; 
stroke-linecap:round; stroke-linejoin:round;">
<circle cx="70.8038" cy="56.0718" r="0.2000" /> 
</g>
<g style="fill:#FFFFFF; fill-opacity:1.0000; 
stroke:#FFFFFF; stroke-width:0.0212; stroke-opacity:1; 
stroke-linecap:round; stroke-linejoin:round;">
</g>
<g style="fill:#FFFFFF; fill-opacity:1.0000; 
stroke:#FFFFFF; stroke-width:0.0000; stroke-opacity:1; 
stroke-linecap:round; stroke-linejoin:round;">
<circle cx="88.0000" cy="54.0000" r="0.2000" /> 
</g>
<g style="fill:#FFFFFF; fill-opacity:1.0000; 
stroke:#FFFFFF; stroke-width:0.0212; stroke-opacity:1; 
stroke-linecap:round; stroke-linejoin:round;">
</g>
<g style="fill:#FFFFFF; fill-opacity:1.0000; 
stroke:#FFFFFF; stroke-width:0.0000; stroke-opacity:1; 
stroke-linecap:round; stroke-linejoin:round;">
<circle cx="88.2600" cy="66.0200" r="0.2000" /> 
</g>
<g style="fill:#FFFFFF; fill-opacity:1.0000; 
stroke:#FFFFFF; stroke-width:0.0212; stroke-opacity:1; 
stroke-linecap:round; stroke-linejoin:round;">
</g>
<g style="fill:#FFFFFF; fill-opacity:1.0000; 
stroke:#FFFFFF; stroke-width:0.0000; stroke-opacity:1; 
stroke-linecap:round; stroke-linejoin:round;">
<circle cx="78.8038" cy="50.0718" r="0.2000" /> 
</g>
<g style="fill:#FFFFFF; fill-opacity:1.0000; 
stroke:#FFFFFF; stroke-width:0.0212; stroke-opacity:1; 
stroke-linecap:round; stroke-linejoin:round;">
</g>
<g style="fill:#FFFFFF; fill-opacity:1.0000; 
stroke:#FFFFFF; stroke-width:0.0000; stroke-opacity:1; 
stroke-linecap:round; stroke-linejoin:round;">
<circle cx="90.2000" cy="61.4000" r="0.2000" /> 
</g>
<g style="fill:#FFFFFF; fill-opacity:1.0000; 
stroke:#FFFFFF; stroke-width:0.0212; stroke-opacity:1; 
stroke-linecap:round; stroke-linejoin:round;">
</g>
<g style="fill:#FFFFFF; fill-opacity:1.0000; 
stroke:#FFFFFF; stroke-width:0.0000; stroke-opacity:1; 
stroke-linecap:round; stroke-linejoin:round;">
<circle cx="82.9000" cy="71.4000" r="0.2000" /> 
</g>
<g style="fill:#FFFFFF; fill-opacity:1.0000; 
stroke:#FFFFFF; stroke-width:0.0212; stroke-opacity:1; 
stroke-linecap:round; stroke-linejoin:round;">
</g>
<g style="fill:#FFFFFF; fill-opacity:1.0000; 
stroke:#FFFFFF; stroke-width:0.0000; stroke-opacity:1; 
stroke-linecap:round; stroke-linejoin:round;">
<circle cx="90.9500" cy="61.4000" r="0.2000" /> 
</g>
<g style="fill:#FFFFFF; fill-opacity:1.0000; 
stroke:#FFFFFF; stroke-width:0.0212; stroke-opacity:1; 
stroke-linecap:round; stroke-linejoin:round;">
</g>
<g style="fill:#FFFFFF; fill-opacity:1.0000; 
stroke:#FFFFFF; stroke-width:0.0000; stroke-opacity:1; 
stroke-linecap:round; stroke-linejoin:round;">
<circle cx="90.9000" cy="64.9000" r="0.2000" /> 
</g>
<g style="fill:#FFFFFF; fill-opacity:1.0000; 
stroke:#FFFFFF; stroke-width:0.0212; stroke-opacity:1; 
stroke-linecap:round; stroke-linejoin:round;">
</g>
<g style="fill:#FFFFFF; fill-opacity:1.0000; 
stroke:#FFFFFF; stroke-width:0.0000; stroke-opacity:1; 
stroke-linecap:round; stroke-linejoin:round;">
<circle cx="90.1500" cy="64.9000" r="0.2000" /> 
</g>
<g style="fill:#FFFFFF; fill-opacity:1.0000; 
stroke:#FFFFFF; stroke-width:0.0212; stroke-opacity:1; 
stroke-linecap:round; stroke-linejoin:round;">
</g>
<g style="fill:#FFFFFF; fill-opacity:1.0000; 
stroke:#FFFFFF; stroke-width:0.0000; stroke-opacity:1; 
stroke-linecap:round; stroke-linejoin:round;">
<circle cx="84.9000" cy="71.4000" r="0.2000" /> 
</g>
<g style="fill:#FFFFFF; fill-opacity:1.0000; 
stroke:#FFFFFF; stroke-width:0.0212; stroke-opacity:1; 
stroke-linecap:round; stroke-linejoin:round;">
</g>
<g style="fill:#FFFFFF; fill-opacity:1.0000; 
stroke:#FFFFFF; stroke-width:0.0000; stroke-opacity:1; 
stroke-linecap:round; stroke-linejoin:round;">
<circle cx="85.7000" cy="70.5000" r="0.2000" /> 
</g>
<g style="fill:#FFFFFF; fill-opacity:1.0000; 
stroke:#FFFFFF; stroke-width:0.0212; stroke-opacity:1; 
stroke-linecap:round; stroke-linejoin:round;">
</g>
<g style="fill:#FFFFFF; fill-opacity:1.0000; 
stroke:#FFFFFF; stroke-width:0.0000; stroke-opacity:1; 
stroke-linecap:round; stroke-linejoin:round;">
<circle cx="83.9000" cy="71.4000" r="0.2000" /> 
</g>
<g style="fill:#FFFFFF; fill-opacity:1.0000; 
stroke:#FFFFFF; stroke-width:0.0212; stroke-opacity:1; 
stroke-linecap:round; stroke-linejoin:round;">
</g>
<g style="fill:#FFFFFF; fill-opacity:1.0000; 
stroke:#FFFFFF; stroke-width:0.0000; stroke-opacity:1; 
stroke-linecap:round; stroke-linejoin:round;">
<circle cx="87.9100" cy="61.1500" r="0.2000" /> 
</g>
<g style="fill:#FFFFFF; fill-opacity:1.0000; 
stroke:#FFFFFF; stroke-width:0.0212; stroke-opacity:1; 
stroke-linecap:round; stroke-linejoin:round;">
</g>
<g style="fill:#FFFFFF; fill-opacity:1.0000; 
stroke:#FFFFFF; stroke-width:0.0000; stroke-opacity:1; 
stroke-linecap:round; stroke-linejoin:round;">
<circle cx="90.0000" cy="50.0000" r="1.1000" /> 
</g>
<g style="fill:#FFFFFF; fill-opacity:1.0000; 
stroke:#FFFFFF; stroke-width:0.0212; stroke-opacity:1; 
stroke-linecap:round; stroke-linejoin:round;">
</g>
<g style="fill:#FFFFFF; fill-opacity:1.0000; 
stroke:#FFFFFF; stroke-width:0.0000; stroke-opacity:1; 
stroke-linecap:round; stroke-linejoin:round;">
<circle cx="70.0000" cy="50.0000" r="1.1000" /> 
</g>
<g style="fill:#FFFFFF; fill-opacity:1.0000; 
stroke:#FFFFFF; stroke-width:0.0212; stroke-opacity:1; 
stroke-linecap:round; stroke-linejoin:round;">
</g>
<g style="fill:#FFFFFF; fill-opacity:1.0000; 
stroke:#FFFFFF; stroke-width:0.0000; stroke-opacity:1; 
stroke-linecap:round; stroke-linejoin:round;">
<circle cx="70.0000" cy="70.0000" r="1.1000" /> 
</g>
<g style="fill:#FFFFFF; fill-opacity:1.0000; 
stroke:#FFFFFF; stroke-width:0.0212; stroke-opacity:1; 
stroke-linecap:round; stroke-linejoin:round;">
</g>
<g style="fill:#000000; fill-opacity:1.0000; 
stroke:#000000; stroke-width:0.0212; stroke-opacity:1; 
stroke-linecap:round; stroke-linejoin:round;">
</g> 
</svg>
