<?xml version="1.0" standalone="no"?>
 <!DOCTYPE svg PUBLIC "-//W3C//DTD SVG 1.1//EN" 
 "http://www.w3.org/Graphics/SVG/1.1/DTD/svg11.dtd"> 
<svg
  xmlns:svg="http://www.w3.org/2000/svg"
  xmlns="http://www.w3.org/2000/svg"
  xmlns:xlink="http://www.w3.org/1999/xlink"
  version="1.1"
  width="297.0022mm" height="210.0072mm" viewBox="0.0000 0.0000 297.0022 210.0072">
<title>SVG Image created as pedalboard-led-ring-B_Silkscreen.svg date 2023/06/20 15:30:51 </title>
  <desc>Image generated by PCBNEW </desc>
<g style="fill:#000000; fill-opacity:1.0000;stroke:#000000; stroke-opacity:1.0000;
stroke-linecap:round; stroke-linejoin:round;"
 transform="translate(0 0) scale(1 1)">
</g>
<g style="fill:#000000; fill-opacity:0.0; 
stroke:#000000; stroke-width:0.0000; stroke-opacity:1; 
stroke-linecap:round; stroke-linejoin:round;">
</g>
<g style="fill:#000000; fill-opacity:0.0; 
stroke:#000000; stroke-width:0.1000; stroke-opacity:1; 
stroke-linecap:round; stroke-linejoin:round;">
<circle cx="217.0022" cy="60.0000" r="7.0500" /> 
<g transform="rotate(-90.000000 208.8022 56.0300)">
<text x="208.8022" y="56.0300"
transform="scale(-1 1) translate(-417.604400 0)"
textLength="1.1433" font-size="0.9333" lengthAdjust="spacingAndGlyphs"
text-anchor="start" opacity="0">DI</text>
</g>
<g class="stroked-text"><desc>DI</desc>
<path d="M208.8931 56.2625
L209.5931 56.2625
" />
<path d="M209.5931 56.2625
L209.5931 56.4291
" />
<path d="M209.5931 56.4291
L209.5597 56.5291
" />
<path d="M209.5597 56.5291
L209.4931 56.5958
" />
<path d="M209.4931 56.5958
L209.4264 56.6291
" />
<path d="M209.4264 56.6291
L209.2931 56.6625
" />
<path d="M209.2931 56.6625
L209.1931 56.6625
" />
<path d="M209.1931 56.6625
L209.0597 56.6291
" />
<path d="M209.0597 56.6291
L208.9931 56.5958
" />
<path d="M208.9931 56.5958
L208.9264 56.5291
" />
<path d="M208.9264 56.5291
L208.8931 56.4291
" />
<path d="M208.8931 56.4291
L208.8931 56.2625
" />
<path d="M208.8931 56.9625
L209.5931 56.9625
" />
</g><g transform="rotate(-90.000000 208.8022 62.5000)">
<text x="208.8022" y="62.5000"
transform="scale(-1 1) translate(-417.604400 0)"
textLength="1.3014" font-size="0.8000" lengthAdjust="spacingAndGlyphs"
text-anchor="start" opacity="0">D0</text>
</g>
<g class="stroked-text"><desc>D0</desc>
<path d="M208.8808 62.7086
L209.4808 62.7086
" />
<path d="M209.4808 62.7086
L209.4808 62.8515
" />
<path d="M209.4808 62.8515
L209.4523 62.9372
" />
<path d="M209.4523 62.9372
L209.3951 62.9944
" />
<path d="M209.3951 62.9944
L209.3380 63.0229
" />
<path d="M209.3380 63.0229
L209.2237 63.0515
" />
<path d="M209.2237 63.0515
L209.1380 63.0515
" />
<path d="M209.1380 63.0515
L209.0237 63.0229
" />
<path d="M209.0237 63.0229
L208.9665 62.9944
" />
<path d="M208.9665 62.9944
L208.9094 62.9372
" />
<path d="M208.9094 62.9372
L208.8808 62.8515
" />
<path d="M208.8808 62.8515
L208.8808 62.7086
" />
<path d="M209.4808 63.4229
L209.4808 63.4801
" />
<path d="M209.4808 63.4801
L209.4523 63.5372
" />
<path d="M209.4523 63.5372
L209.4237 63.5658
" />
<path d="M209.4237 63.5658
L209.3665 63.5944
" />
<path d="M209.3665 63.5944
L209.2523 63.6229
" />
<path d="M209.2523 63.6229
L209.1094 63.6229
" />
<path d="M209.1094 63.6229
L208.9951 63.5944
" />
<path d="M208.9951 63.5944
L208.9380 63.5658
" />
<path d="M208.9380 63.5658
L208.9094 63.5372
" />
<path d="M208.9094 63.5372
L208.8808 63.4801
" />
<path d="M208.8808 63.4801
L208.8808 63.4229
" />
<path d="M208.8808 63.4229
L208.9094 63.3658
" />
<path d="M208.9094 63.3658
L208.9380 63.3372
" />
<path d="M208.9380 63.3372
L208.9951 63.3086
" />
<path d="M208.9951 63.3086
L209.1094 63.2801
" />
<path d="M209.1094 63.2801
L209.2523 63.2801
" />
<path d="M209.2523 63.2801
L209.3665 63.3086
" />
<path d="M209.3665 63.3086
L209.4237 63.3372
" />
<path d="M209.4237 63.3372
L209.4523 63.3658
" />
<path d="M209.4523 63.3658
L209.4808 63.4229
" />
</g><text x="205.8622" y="69.9000"
transform="scale(-1 1) translate(-411.724400 0)"
textLength="1.8443" font-size="0.8000" lengthAdjust="spacingAndGlyphs"
text-anchor="start" opacity="0">VCC</text>
<g class="stroked-text"><desc>VCC</desc>
<path d="M205.9851 69.2214
L206.1851 69.8214
" />
<path d="M206.1851 69.8214
L206.3851 69.2214
" />
<path d="M206.9280 69.7642
L206.8994 69.7928
" />
<path d="M206.8994 69.7928
L206.8137 69.8214
" />
<path d="M206.8137 69.8214
L206.7566 69.8214
" />
<path d="M206.7566 69.8214
L206.6708 69.7928
" />
<path d="M206.6708 69.7928
L206.6137 69.7357
" />
<path d="M206.6137 69.7357
L206.5851 69.6785
" />
<path d="M206.5851 69.6785
L206.5566 69.5642
" />
<path d="M206.5566 69.5642
L206.5566 69.4785
" />
<path d="M206.5566 69.4785
L206.5851 69.3642
" />
<path d="M206.5851 69.3642
L206.6137 69.3071
" />
<path d="M206.6137 69.3071
L206.6708 69.2499
" />
<path d="M206.6708 69.2499
L206.7566 69.2214
" />
<path d="M206.7566 69.2214
L206.8137 69.2214
" />
<path d="M206.8137 69.2214
L206.8994 69.2499
" />
<path d="M206.8994 69.2499
L206.9280 69.2785
" />
<path d="M207.5280 69.7642
L207.4994 69.7928
" />
<path d="M207.4994 69.7928
L207.4137 69.8214
" />
<path d="M207.4137 69.8214
L207.3566 69.8214
" />
<path d="M207.3566 69.8214
L207.2708 69.7928
" />
<path d="M207.2708 69.7928
L207.2137 69.7357
" />
<path d="M207.2137 69.7357
L207.1851 69.6785
" />
<path d="M207.1851 69.6785
L207.1566 69.5642
" />
<path d="M207.1566 69.5642
L207.1566 69.4785
" />
<path d="M207.1566 69.4785
L207.1851 69.3642
" />
<path d="M207.1851 69.3642
L207.2137 69.3071
" />
<path d="M207.2137 69.3071
L207.2708 69.2499
" />
<path d="M207.2708 69.2499
L207.3566 69.2214
" />
<path d="M207.3566 69.2214
L207.4137 69.2214
" />
<path d="M207.4137 69.2214
L207.4994 69.2499
" />
<path d="M207.4994 69.2499
L207.5280 69.2785
" />
</g><g transform="rotate(-90.000000 206.6022 62.3500)">
<text x="206.6022" y="62.3500"
transform="scale(-1 1) translate(-413.204400 0)"
textLength="1.9586" font-size="0.8000" lengthAdjust="spacingAndGlyphs"
text-anchor="start" opacity="0">GND</text>
</g>
<g class="stroked-text"><desc>GND</desc>
<path d="M207.2523 62.8729
L207.2808 62.8158
" />
<path d="M207.2808 62.8158
L207.2808 62.7301
" />
<path d="M207.2808 62.7301
L207.2523 62.6444
" />
<path d="M207.2523 62.6444
L207.1951 62.5872
" />
<path d="M207.1951 62.5872
L207.1380 62.5586
" />
<path d="M207.1380 62.5586
L207.0237 62.5301
" />
<path d="M207.0237 62.5301
L206.9380 62.5301
" />
<path d="M206.9380 62.5301
L206.8237 62.5586
" />
<path d="M206.8237 62.5586
L206.7665 62.5872
" />
<path d="M206.7665 62.5872
L206.7094 62.6444
" />
<path d="M206.7094 62.6444
L206.6808 62.7301
" />
<path d="M206.6808 62.7301
L206.6808 62.7872
" />
<path d="M206.6808 62.7872
L206.7094 62.8729
" />
<path d="M206.7094 62.8729
L206.7380 62.9015
" />
<path d="M206.7380 62.9015
L206.9380 62.9015
" />
<path d="M206.9380 62.9015
L206.9380 62.7872
" />
<path d="M206.6808 63.1586
L207.2808 63.1586
" />
<path d="M207.2808 63.1586
L206.6808 63.5015
" />
<path d="M206.6808 63.5015
L207.2808 63.5015
" />
<path d="M206.6808 63.7872
L207.2808 63.7872
" />
<path d="M207.2808 63.7872
L207.2808 63.9301
" />
<path d="M207.2808 63.9301
L207.2523 64.0158
" />
<path d="M207.2523 64.0158
L207.1951 64.0729
" />
<path d="M207.1951 64.0729
L207.1380 64.1015
" />
<path d="M207.1380 64.1015
L207.0237 64.1301
" />
<path d="M207.0237 64.1301
L206.9380 64.1301
" />
<path d="M206.9380 64.1301
L206.8237 64.1015
" />
<path d="M206.8237 64.1015
L206.7665 64.0729
" />
<path d="M206.7665 64.0729
L206.7094 64.0158
" />
<path d="M206.7094 64.0158
L206.6808 63.9301
" />
<path d="M206.6808 63.9301
L206.6808 63.7872
" />
</g><text x="212.4772" y="69.8750"
transform="scale(-1 1) translate(-424.954400 0)"
textLength="1.9586" font-size="0.8000" lengthAdjust="spacingAndGlyphs"
text-anchor="start" opacity="0">GND</text>
<g class="stroked-text"><desc>GND</desc>
<path d="M213.0001 69.2249
L212.9430 69.1964
" />
<path d="M212.9430 69.1964
L212.8573 69.1964
" />
<path d="M212.8573 69.1964
L212.7716 69.2249
" />
<path d="M212.7716 69.2249
L212.7144 69.2821
" />
<path d="M212.7144 69.2821
L212.6858 69.3392
" />
<path d="M212.6858 69.3392
L212.6573 69.4535
" />
<path d="M212.6573 69.4535
L212.6573 69.5392
" />
<path d="M212.6573 69.5392
L212.6858 69.6535
" />
<path d="M212.6858 69.6535
L212.7144 69.7107
" />
<path d="M212.7144 69.7107
L212.7716 69.7678
" />
<path d="M212.7716 69.7678
L212.8573 69.7964
" />
<path d="M212.8573 69.7964
L212.9144 69.7964
" />
<path d="M212.9144 69.7964
L213.0001 69.7678
" />
<path d="M213.0001 69.7678
L213.0287 69.7392
" />
<path d="M213.0287 69.7392
L213.0287 69.5392
" />
<path d="M213.0287 69.5392
L212.9144 69.5392
" />
<path d="M213.2858 69.7964
L213.2858 69.1964
" />
<path d="M213.2858 69.1964
L213.6287 69.7964
" />
<path d="M213.6287 69.7964
L213.6287 69.1964
" />
<path d="M213.9144 69.7964
L213.9144 69.1964
" />
<path d="M213.9144 69.1964
L214.0573 69.1964
" />
<path d="M214.0573 69.1964
L214.1430 69.2249
" />
<path d="M214.1430 69.2249
L214.2001 69.2821
" />
<path d="M214.2001 69.2821
L214.2287 69.3392
" />
<path d="M214.2287 69.3392
L214.2573 69.4535
" />
<path d="M214.2573 69.4535
L214.2573 69.5392
" />
<path d="M214.2573 69.5392
L214.2287 69.6535
" />
<path d="M214.2287 69.6535
L214.2001 69.7107
" />
<path d="M214.2001 69.7107
L214.1430 69.7678
" />
<path d="M214.1430 69.7678
L214.0573 69.7964
" />
<path d="M214.0573 69.7964
L213.9144 69.7964
" />
</g><g transform="rotate(-90.000000 227.8422 60.2700)">
<text x="227.8422" y="60.2700"
transform="scale(-1 1) translate(-455.684400 0)"
textLength="16.8767" font-size="0.9333" lengthAdjust="spacingAndGlyphs"
text-anchor="middle" opacity="0">https://github.com/pedalboard</text>
</g>
<g class="stroked-text"><desc>https://github.com/pedalboard</desc>
<path d="M227.9331 52.0533
L228.6331 52.0533
" />
<path d="M227.9331 52.3533
L228.2997 52.3533
" />
<path d="M228.2997 52.3533
L228.3664 52.3200
" />
<path d="M228.3664 52.3200
L228.3997 52.2533
" />
<path d="M228.3997 52.2533
L228.3997 52.1533
" />
<path d="M228.3997 52.1533
L228.3664 52.0867
" />
<path d="M228.3664 52.0867
L228.3331 52.0533
" />
<path d="M228.3997 52.5867
L228.3997 52.8533
" />
<path d="M228.6331 52.6867
L228.0331 52.6867
" />
<path d="M228.0331 52.6867
L227.9664 52.7200
" />
<path d="M227.9664 52.7200
L227.9331 52.7867
" />
<path d="M227.9331 52.7867
L227.9331 52.8533
" />
<path d="M228.3997 52.9867
L228.3997 53.2533
" />
<path d="M228.6331 53.0867
L228.0331 53.0867
" />
<path d="M228.0331 53.0867
L227.9664 53.1200
" />
<path d="M227.9664 53.1200
L227.9331 53.1867
" />
<path d="M227.9331 53.1867
L227.9331 53.2533
" />
<path d="M228.3997 53.4867
L227.6997 53.4867
" />
<path d="M228.3664 53.4867
L228.3997 53.5533
" />
<path d="M228.3997 53.5533
L228.3997 53.6867
" />
<path d="M228.3997 53.6867
L228.3664 53.7533
" />
<path d="M228.3664 53.7533
L228.3331 53.7867
" />
<path d="M228.3331 53.7867
L228.2664 53.8200
" />
<path d="M228.2664 53.8200
L228.0664 53.8200
" />
<path d="M228.0664 53.8200
L227.9997 53.7867
" />
<path d="M227.9997 53.7867
L227.9664 53.7533
" />
<path d="M227.9664 53.7533
L227.9331 53.6867
" />
<path d="M227.9331 53.6867
L227.9331 53.5533
" />
<path d="M227.9331 53.5533
L227.9664 53.4867
" />
<path d="M227.9664 54.0867
L227.9331 54.1533
" />
<path d="M227.9331 54.1533
L227.9331 54.2867
" />
<path d="M227.9331 54.2867
L227.9664 54.3533
" />
<path d="M227.9664 54.3533
L228.0331 54.3867
" />
<path d="M228.0331 54.3867
L228.0664 54.3867
" />
<path d="M228.0664 54.3867
L228.1331 54.3533
" />
<path d="M228.1331 54.3533
L228.1664 54.2867
" />
<path d="M228.1664 54.2867
L228.1664 54.1867
" />
<path d="M228.1664 54.1867
L228.1997 54.1200
" />
<path d="M228.1997 54.1200
L228.2664 54.0867
" />
<path d="M228.2664 54.0867
L228.2997 54.0867
" />
<path d="M228.2997 54.0867
L228.3664 54.1200
" />
<path d="M228.3664 54.1200
L228.3997 54.1867
" />
<path d="M228.3997 54.1867
L228.3997 54.2867
" />
<path d="M228.3997 54.2867
L228.3664 54.3533
" />
<path d="M227.9997 54.6867
L227.9664 54.7200
" />
<path d="M227.9664 54.7200
L227.9331 54.6867
" />
<path d="M227.9331 54.6867
L227.9664 54.6533
" />
<path d="M227.9664 54.6533
L227.9997 54.6867
" />
<path d="M227.9997 54.6867
L227.9331 54.6867
" />
<path d="M228.3664 54.6867
L228.3331 54.7200
" />
<path d="M228.3331 54.7200
L228.2997 54.6867
" />
<path d="M228.2997 54.6867
L228.3331 54.6533
" />
<path d="M228.3331 54.6533
L228.3664 54.6867
" />
<path d="M228.3664 54.6867
L228.2997 54.6867
" />
<path d="M228.6664 55.5200
L227.7664 54.9200
" />
<path d="M228.6664 56.2533
L227.7664 55.6533
" />
<path d="M228.3997 56.7867
L227.8331 56.7867
" />
<path d="M227.8331 56.7867
L227.7664 56.7533
" />
<path d="M227.7664 56.7533
L227.7331 56.7200
" />
<path d="M227.7331 56.7200
L227.6997 56.6533
" />
<path d="M227.6997 56.6533
L227.6997 56.5533
" />
<path d="M227.6997 56.5533
L227.7331 56.4867
" />
<path d="M227.9664 56.7867
L227.9331 56.7200
" />
<path d="M227.9331 56.7200
L227.9331 56.5867
" />
<path d="M227.9331 56.5867
L227.9664 56.5200
" />
<path d="M227.9664 56.5200
L227.9997 56.4867
" />
<path d="M227.9997 56.4867
L228.0664 56.4533
" />
<path d="M228.0664 56.4533
L228.2664 56.4533
" />
<path d="M228.2664 56.4533
L228.3331 56.4867
" />
<path d="M228.3331 56.4867
L228.3664 56.5200
" />
<path d="M228.3664 56.5200
L228.3997 56.5867
" />
<path d="M228.3997 56.5867
L228.3997 56.7200
" />
<path d="M228.3997 56.7200
L228.3664 56.7867
" />
<path d="M227.9331 57.1200
L228.3997 57.1200
" />
<path d="M228.6331 57.1200
L228.5997 57.0867
" />
<path d="M228.5997 57.0867
L228.5664 57.1200
" />
<path d="M228.5664 57.1200
L228.5997 57.1533
" />
<path d="M228.5997 57.1533
L228.6331 57.1200
" />
<path d="M228.6331 57.1200
L228.5664 57.1200
" />
<path d="M228.3997 57.3533
L228.3997 57.6200
" />
<path d="M228.6331 57.4533
L228.0331 57.4533
" />
<path d="M228.0331 57.4533
L227.9664 57.4867
" />
<path d="M227.9664 57.4867
L227.9331 57.5533
" />
<path d="M227.9331 57.5533
L227.9331 57.6200
" />
<path d="M227.9331 57.8533
L228.6331 57.8533
" />
<path d="M227.9331 58.1533
L228.2997 58.1533
" />
<path d="M228.2997 58.1533
L228.3664 58.1200
" />
<path d="M228.3664 58.1200
L228.3997 58.0533
" />
<path d="M228.3997 58.0533
L228.3997 57.9533
" />
<path d="M228.3997 57.9533
L228.3664 57.8867
" />
<path d="M228.3664 57.8867
L228.3331 57.8533
" />
<path d="M228.3997 58.7867
L227.9331 58.7867
" />
<path d="M228.3997 58.4867
L228.0331 58.4867
" />
<path d="M228.0331 58.4867
L227.9664 58.5200
" />
<path d="M227.9664 58.5200
L227.9331 58.5867
" />
<path d="M227.9331 58.5867
L227.9331 58.6867
" />
<path d="M227.9331 58.6867
L227.9664 58.7533
" />
<path d="M227.9664 58.7533
L227.9997 58.7867
" />
<path d="M227.9331 59.1200
L228.6331 59.1200
" />
<path d="M228.3664 59.1200
L228.3997 59.1867
" />
<path d="M228.3997 59.1867
L228.3997 59.3200
" />
<path d="M228.3997 59.3200
L228.3664 59.3867
" />
<path d="M228.3664 59.3867
L228.3331 59.4200
" />
<path d="M228.3331 59.4200
L228.2664 59.4533
" />
<path d="M228.2664 59.4533
L228.0664 59.4533
" />
<path d="M228.0664 59.4533
L227.9997 59.4200
" />
<path d="M227.9997 59.4200
L227.9664 59.3867
" />
<path d="M227.9664 59.3867
L227.9331 59.3200
" />
<path d="M227.9331 59.3200
L227.9331 59.1867
" />
<path d="M227.9331 59.1867
L227.9664 59.1200
" />
<path d="M227.9997 59.7533
L227.9664 59.7867
" />
<path d="M227.9664 59.7867
L227.9331 59.7533
" />
<path d="M227.9331 59.7533
L227.9664 59.7200
" />
<path d="M227.9664 59.7200
L227.9997 59.7533
" />
<path d="M227.9997 59.7533
L227.9331 59.7533
" />
<path d="M227.9664 60.3867
L227.9331 60.3200
" />
<path d="M227.9331 60.3200
L227.9331 60.1867
" />
<path d="M227.9331 60.1867
L227.9664 60.1200
" />
<path d="M227.9664 60.1200
L227.9997 60.0867
" />
<path d="M227.9997 60.0867
L228.0664 60.0533
" />
<path d="M228.0664 60.0533
L228.2664 60.0533
" />
<path d="M228.2664 60.0533
L228.3331 60.0867
" />
<path d="M228.3331 60.0867
L228.3664 60.1200
" />
<path d="M228.3664 60.1200
L228.3997 60.1867
" />
<path d="M228.3997 60.1867
L228.3997 60.3200
" />
<path d="M228.3997 60.3200
L228.3664 60.3867
" />
<path d="M227.9331 60.7867
L227.9664 60.7200
" />
<path d="M227.9664 60.7200
L227.9997 60.6867
" />
<path d="M227.9997 60.6867
L228.0664 60.6533
" />
<path d="M228.0664 60.6533
L228.2664 60.6533
" />
<path d="M228.2664 60.6533
L228.3331 60.6867
" />
<path d="M228.3331 60.6867
L228.3664 60.7200
" />
<path d="M228.3664 60.7200
L228.3997 60.7867
" />
<path d="M228.3997 60.7867
L228.3997 60.8867
" />
<path d="M228.3997 60.8867
L228.3664 60.9533
" />
<path d="M228.3664 60.9533
L228.3331 60.9867
" />
<path d="M228.3331 60.9867
L228.2664 61.0200
" />
<path d="M228.2664 61.0200
L228.0664 61.0200
" />
<path d="M228.0664 61.0200
L227.9997 60.9867
" />
<path d="M227.9997 60.9867
L227.9664 60.9533
" />
<path d="M227.9664 60.9533
L227.9331 60.8867
" />
<path d="M227.9331 60.8867
L227.9331 60.7867
" />
<path d="M227.9331 61.3200
L228.3997 61.3200
" />
<path d="M228.3331 61.3200
L228.3664 61.3533
" />
<path d="M228.3664 61.3533
L228.3997 61.4200
" />
<path d="M228.3997 61.4200
L228.3997 61.5200
" />
<path d="M228.3997 61.5200
L228.3664 61.5867
" />
<path d="M228.3664 61.5867
L228.2997 61.6200
" />
<path d="M228.2997 61.6200
L227.9331 61.6200
" />
<path d="M228.2997 61.6200
L228.3664 61.6533
" />
<path d="M228.3664 61.6533
L228.3997 61.7200
" />
<path d="M228.3997 61.7200
L228.3997 61.8200
" />
<path d="M228.3997 61.8200
L228.3664 61.8867
" />
<path d="M228.3664 61.8867
L228.2997 61.9200
" />
<path d="M228.2997 61.9200
L227.9331 61.9200
" />
<path d="M228.6664 62.7533
L227.7664 62.1533
" />
<path d="M228.3997 62.9867
L227.6997 62.9867
" />
<path d="M228.3664 62.9867
L228.3997 63.0533
" />
<path d="M228.3997 63.0533
L228.3997 63.1867
" />
<path d="M228.3997 63.1867
L228.3664 63.2533
" />
<path d="M228.3664 63.2533
L228.3331 63.2867
" />
<path d="M228.3331 63.2867
L228.2664 63.3200
" />
<path d="M228.2664 63.3200
L228.0664 63.3200
" />
<path d="M228.0664 63.3200
L227.9997 63.2867
" />
<path d="M227.9997 63.2867
L227.9664 63.2533
" />
<path d="M227.9664 63.2533
L227.9331 63.1867
" />
<path d="M227.9331 63.1867
L227.9331 63.0533
" />
<path d="M227.9331 63.0533
L227.9664 62.9867
" />
<path d="M227.9664 63.8867
L227.9331 63.8200
" />
<path d="M227.9331 63.8200
L227.9331 63.6867
" />
<path d="M227.9331 63.6867
L227.9664 63.6200
" />
<path d="M227.9664 63.6200
L228.0331 63.5867
" />
<path d="M228.0331 63.5867
L228.2997 63.5867
" />
<path d="M228.2997 63.5867
L228.3664 63.6200
" />
<path d="M228.3664 63.6200
L228.3997 63.6867
" />
<path d="M228.3997 63.6867
L228.3997 63.8200
" />
<path d="M228.3997 63.8200
L228.3664 63.8867
" />
<path d="M228.3664 63.8867
L228.2997 63.9200
" />
<path d="M228.2997 63.9200
L228.2331 63.9200
" />
<path d="M228.2331 63.9200
L228.1664 63.5867
" />
<path d="M227.9331 64.5200
L228.6331 64.5200
" />
<path d="M227.9664 64.5200
L227.9331 64.4533
" />
<path d="M227.9331 64.4533
L227.9331 64.3200
" />
<path d="M227.9331 64.3200
L227.9664 64.2533
" />
<path d="M227.9664 64.2533
L227.9997 64.2200
" />
<path d="M227.9997 64.2200
L228.0664 64.1867
" />
<path d="M228.0664 64.1867
L228.2664 64.1867
" />
<path d="M228.2664 64.1867
L228.3331 64.2200
" />
<path d="M228.3331 64.2200
L228.3664 64.2533
" />
<path d="M228.3664 64.2533
L228.3997 64.3200
" />
<path d="M228.3997 64.3200
L228.3997 64.4533
" />
<path d="M228.3997 64.4533
L228.3664 64.5200
" />
<path d="M227.9331 65.1533
L228.2997 65.1533
" />
<path d="M228.2997 65.1533
L228.3664 65.1200
" />
<path d="M228.3664 65.1200
L228.3997 65.0533
" />
<path d="M228.3997 65.0533
L228.3997 64.9200
" />
<path d="M228.3997 64.9200
L228.3664 64.8533
" />
<path d="M227.9664 65.1533
L227.9331 65.0867
" />
<path d="M227.9331 65.0867
L227.9331 64.9200
" />
<path d="M227.9331 64.9200
L227.9664 64.8533
" />
<path d="M227.9664 64.8533
L228.0331 64.8200
" />
<path d="M228.0331 64.8200
L228.0997 64.8200
" />
<path d="M228.0997 64.8200
L228.1664 64.8533
" />
<path d="M228.1664 64.8533
L228.1997 64.9200
" />
<path d="M228.1997 64.9200
L228.1997 65.0867
" />
<path d="M228.1997 65.0867
L228.2331 65.1533
" />
<path d="M227.9331 65.5867
L227.9664 65.5200
" />
<path d="M227.9664 65.5200
L228.0331 65.4867
" />
<path d="M228.0331 65.4867
L228.6331 65.4867
" />
<path d="M227.9331 65.8533
L228.6331 65.8533
" />
<path d="M228.3664 65.8533
L228.3997 65.9200
" />
<path d="M228.3997 65.9200
L228.3997 66.0533
" />
<path d="M228.3997 66.0533
L228.3664 66.1200
" />
<path d="M228.3664 66.1200
L228.3331 66.1533
" />
<path d="M228.3331 66.1533
L228.2664 66.1867
" />
<path d="M228.2664 66.1867
L228.0664 66.1867
" />
<path d="M228.0664 66.1867
L227.9997 66.1533
" />
<path d="M227.9997 66.1533
L227.9664 66.1200
" />
<path d="M227.9664 66.1200
L227.9331 66.0533
" />
<path d="M227.9331 66.0533
L227.9331 65.9200
" />
<path d="M227.9331 65.9200
L227.9664 65.8533
" />
<path d="M227.9331 66.5867
L227.9664 66.5200
" />
<path d="M227.9664 66.5200
L227.9997 66.4867
" />
<path d="M227.9997 66.4867
L228.0664 66.4533
" />
<path d="M228.0664 66.4533
L228.2664 66.4533
" />
<path d="M228.2664 66.4533
L228.3331 66.4867
" />
<path d="M228.3331 66.4867
L228.3664 66.5200
" />
<path d="M228.3664 66.5200
L228.3997 66.5867
" />
<path d="M228.3997 66.5867
L228.3997 66.6867
" />
<path d="M228.3997 66.6867
L228.3664 66.7533
" />
<path d="M228.3664 66.7533
L228.3331 66.7867
" />
<path d="M228.3331 66.7867
L228.2664 66.8200
" />
<path d="M228.2664 66.8200
L228.0664 66.8200
" />
<path d="M228.0664 66.8200
L227.9997 66.7867
" />
<path d="M227.9997 66.7867
L227.9664 66.7533
" />
<path d="M227.9664 66.7533
L227.9331 66.6867
" />
<path d="M227.9331 66.6867
L227.9331 66.5867
" />
<path d="M227.9331 67.4200
L228.2997 67.4200
" />
<path d="M228.2997 67.4200
L228.3664 67.3867
" />
<path d="M228.3664 67.3867
L228.3997 67.3200
" />
<path d="M228.3997 67.3200
L228.3997 67.1867
" />
<path d="M228.3997 67.1867
L228.3664 67.1200
" />
<path d="M227.9664 67.4200
L227.9331 67.3533
" />
<path d="M227.9331 67.3533
L227.9331 67.1867
" />
<path d="M227.9331 67.1867
L227.9664 67.1200
" />
<path d="M227.9664 67.1200
L228.0331 67.0867
" />
<path d="M228.0331 67.0867
L228.0997 67.0867
" />
<path d="M228.0997 67.0867
L228.1664 67.1200
" />
<path d="M228.1664 67.1200
L228.1997 67.1867
" />
<path d="M228.1997 67.1867
L228.1997 67.3533
" />
<path d="M228.1997 67.3533
L228.2331 67.4200
" />
<path d="M227.9331 67.7533
L228.3997 67.7533
" />
<path d="M228.2664 67.7533
L228.3331 67.7867
" />
<path d="M228.3331 67.7867
L228.3664 67.8200
" />
<path d="M228.3664 67.8200
L228.3997 67.8867
" />
<path d="M228.3997 67.8867
L228.3997 67.9533
" />
<path d="M227.9331 68.4867
L228.6331 68.4867
" />
<path d="M227.9664 68.4867
L227.9331 68.4200
" />
<path d="M227.9331 68.4200
L227.9331 68.2867
" />
<path d="M227.9331 68.2867
L227.9664 68.2200
" />
<path d="M227.9664 68.2200
L227.9997 68.1867
" />
<path d="M227.9997 68.1867
L228.0664 68.1533
" />
<path d="M228.0664 68.1533
L228.2664 68.1533
" />
<path d="M228.2664 68.1533
L228.3331 68.1867
" />
<path d="M228.3331 68.1867
L228.3664 68.2200
" />
<path d="M228.3664 68.2200
L228.3997 68.2867
" />
<path d="M228.3997 68.2867
L228.3997 68.4200
" />
<path d="M228.3997 68.4200
L228.3664 68.4867
" />
</g><text x="206.3122" y="67.8000"
transform="scale(-1 1) translate(-412.624400 0)"
textLength="1.0157" font-size="0.8000" lengthAdjust="spacingAndGlyphs"
text-anchor="start" opacity="0">DI</text>
<g class="stroked-text"><desc>DI</desc>
<path d="M206.5208 67.7214
L206.5208 67.1214
" />
<path d="M206.5208 67.1214
L206.6637 67.1214
" />
<path d="M206.6637 67.1214
L206.7494 67.1499
" />
<path d="M206.7494 67.1499
L206.8066 67.2071
" />
<path d="M206.8066 67.2071
L206.8351 67.2642
" />
<path d="M206.8351 67.2642
L206.8637 67.3785
" />
<path d="M206.8637 67.3785
L206.8637 67.4642
" />
<path d="M206.8637 67.4642
L206.8351 67.5785
" />
<path d="M206.8351 67.5785
L206.8066 67.6357
" />
<path d="M206.8066 67.6357
L206.7494 67.6928
" />
<path d="M206.7494 67.6928
L206.6637 67.7214
" />
<path d="M206.6637 67.7214
L206.5208 67.7214
" />
<path d="M207.1208 67.7214
L207.1208 67.1214
" />
</g><g transform="rotate(-90.000000 206.6022 55.7200)">
<text x="206.6022" y="55.7200"
transform="scale(-1 1) translate(-413.204400 0)"
textLength="1.8443" font-size="0.8000" lengthAdjust="spacingAndGlyphs"
text-anchor="start" opacity="0">VCC</text>
</g>
<g class="stroked-text"><desc>VCC</desc>
<path d="M207.2808 55.8429
L206.6808 56.0429
" />
<path d="M206.6808 56.0429
L207.2808 56.2429
" />
<path d="M206.7380 56.7858
L206.7094 56.7572
" />
<path d="M206.7094 56.7572
L206.6808 56.6715
" />
<path d="M206.6808 56.6715
L206.6808 56.6144
" />
<path d="M206.6808 56.6144
L206.7094 56.5286
" />
<path d="M206.7094 56.5286
L206.7665 56.4715
" />
<path d="M206.7665 56.4715
L206.8237 56.4429
" />
<path d="M206.8237 56.4429
L206.9380 56.4144
" />
<path d="M206.9380 56.4144
L207.0237 56.4144
" />
<path d="M207.0237 56.4144
L207.1380 56.4429
" />
<path d="M207.1380 56.4429
L207.1951 56.4715
" />
<path d="M207.1951 56.4715
L207.2523 56.5286
" />
<path d="M207.2523 56.5286
L207.2808 56.6144
" />
<path d="M207.2808 56.6144
L207.2808 56.6715
" />
<path d="M207.2808 56.6715
L207.2523 56.7572
" />
<path d="M207.2523 56.7572
L207.2237 56.7858
" />
<path d="M206.7380 57.3858
L206.7094 57.3572
" />
<path d="M206.7094 57.3572
L206.6808 57.2715
" />
<path d="M206.6808 57.2715
L206.6808 57.2144
" />
<path d="M206.6808 57.2144
L206.7094 57.1286
" />
<path d="M206.7094 57.1286
L206.7665 57.0715
" />
<path d="M206.7665 57.0715
L206.8237 57.0429
" />
<path d="M206.8237 57.0429
L206.9380 57.0144
" />
<path d="M206.9380 57.0144
L207.0237 57.0144
" />
<path d="M207.0237 57.0144
L207.1380 57.0429
" />
<path d="M207.1380 57.0429
L207.1951 57.0715
" />
<path d="M207.1951 57.0715
L207.2523 57.1286
" />
<path d="M207.2523 57.1286
L207.2808 57.2144
" />
<path d="M207.2808 57.2144
L207.2808 57.2715
" />
<path d="M207.2808 57.2715
L207.2523 57.3572
" />
<path d="M207.2523 57.3572
L207.2237 57.3858
" />
</g><text x="218.7522" y="71.5000"
transform="scale(-1 1) translate(-437.504400 0)"
textLength="4.5548" font-size="0.6667" lengthAdjust="spacingAndGlyphs"
text-anchor="middle" opacity="0">PCB: v1.0.0</text>
<g class="stroked-text"><desc>PCB: v1.0.0</desc>
<path d="M216.6689 71.4336
L216.6689 70.9336
" />
<path d="M216.6689 70.9336
L216.8593 70.9336
" />
<path d="M216.8593 70.9336
L216.9070 70.9574
" />
<path d="M216.9070 70.9574
L216.9308 70.9812
" />
<path d="M216.9308 70.9812
L216.9546 71.0288
" />
<path d="M216.9546 71.0288
L216.9546 71.1003
" />
<path d="M216.9546 71.1003
L216.9308 71.1479
" />
<path d="M216.9308 71.1479
L216.9070 71.1717
" />
<path d="M216.9070 71.1717
L216.8593 71.1955
" />
<path d="M216.8593 71.1955
L216.6689 71.1955
" />
<path d="M217.4546 71.3860
L217.4308 71.4098
" />
<path d="M217.4308 71.4098
L217.3593 71.4336
" />
<path d="M217.3593 71.4336
L217.3117 71.4336
" />
<path d="M217.3117 71.4336
L217.2403 71.4098
" />
<path d="M217.2403 71.4098
L217.1927 71.3622
" />
<path d="M217.1927 71.3622
L217.1689 71.3146
" />
<path d="M217.1689 71.3146
L217.1451 71.2193
" />
<path d="M217.1451 71.2193
L217.1451 71.1479
" />
<path d="M217.1451 71.1479
L217.1689 71.0527
" />
<path d="M217.1689 71.0527
L217.1927 71.0050
" />
<path d="M217.1927 71.0050
L217.2403 70.9574
" />
<path d="M217.2403 70.9574
L217.3117 70.9336
" />
<path d="M217.3117 70.9336
L217.3593 70.9336
" />
<path d="M217.3593 70.9336
L217.4308 70.9574
" />
<path d="M217.4308 70.9574
L217.4546 70.9812
" />
<path d="M217.8355 71.1717
L217.9070 71.1955
" />
<path d="M217.9070 71.1955
L217.9308 71.2193
" />
<path d="M217.9308 71.2193
L217.9546 71.2669
" />
<path d="M217.9546 71.2669
L217.9546 71.3384
" />
<path d="M217.9546 71.3384
L217.9308 71.3860
" />
<path d="M217.9308 71.3860
L217.9070 71.4098
" />
<path d="M217.9070 71.4098
L217.8593 71.4336
" />
<path d="M217.8593 71.4336
L217.6689 71.4336
" />
<path d="M217.6689 71.4336
L217.6689 70.9336
" />
<path d="M217.6689 70.9336
L217.8355 70.9336
" />
<path d="M217.8355 70.9336
L217.8832 70.9574
" />
<path d="M217.8832 70.9574
L217.9070 70.9812
" />
<path d="M217.9070 70.9812
L217.9308 71.0288
" />
<path d="M217.9308 71.0288
L217.9308 71.0765
" />
<path d="M217.9308 71.0765
L217.9070 71.1241
" />
<path d="M217.9070 71.1241
L217.8832 71.1479
" />
<path d="M217.8832 71.1479
L217.8355 71.1717
" />
<path d="M217.8355 71.1717
L217.6689 71.1717
" />
<path d="M218.1689 71.3860
L218.1927 71.4098
" />
<path d="M218.1927 71.4098
L218.1689 71.4336
" />
<path d="M218.1689 71.4336
L218.1451 71.4098
" />
<path d="M218.1451 71.4098
L218.1689 71.3860
" />
<path d="M218.1689 71.3860
L218.1689 71.4336
" />
<path d="M218.1689 71.1241
L218.1927 71.1479
" />
<path d="M218.1927 71.1479
L218.1689 71.1717
" />
<path d="M218.1689 71.1717
L218.1451 71.1479
" />
<path d="M218.1451 71.1479
L218.1689 71.1241
" />
<path d="M218.1689 71.1241
L218.1689 71.1717
" />
<path d="M218.7403 71.1003
L218.8593 71.4336
" />
<path d="M218.8593 71.4336
L218.9784 71.1003
" />
<path d="M219.4308 71.4336
L219.1451 71.4336
" />
<path d="M219.2879 71.4336
L219.2879 70.9336
" />
<path d="M219.2879 70.9336
L219.2403 71.0050
" />
<path d="M219.2403 71.0050
L219.1927 71.0527
" />
<path d="M219.1927 71.0527
L219.1451 71.0765
" />
<path d="M219.6451 71.3860
L219.6689 71.4098
" />
<path d="M219.6689 71.4098
L219.6451 71.4336
" />
<path d="M219.6451 71.4336
L219.6212 71.4098
" />
<path d="M219.6212 71.4098
L219.6451 71.3860
" />
<path d="M219.6451 71.3860
L219.6451 71.4336
" />
<path d="M219.9784 70.9336
L220.0260 70.9336
" />
<path d="M220.0260 70.9336
L220.0736 70.9574
" />
<path d="M220.0736 70.9574
L220.0974 70.9812
" />
<path d="M220.0974 70.9812
L220.1212 71.0288
" />
<path d="M220.1212 71.0288
L220.1451 71.1241
" />
<path d="M220.1451 71.1241
L220.1451 71.2431
" />
<path d="M220.1451 71.2431
L220.1212 71.3384
" />
<path d="M220.1212 71.3384
L220.0974 71.3860
" />
<path d="M220.0974 71.3860
L220.0736 71.4098
" />
<path d="M220.0736 71.4098
L220.0260 71.4336
" />
<path d="M220.0260 71.4336
L219.9784 71.4336
" />
<path d="M219.9784 71.4336
L219.9308 71.4098
" />
<path d="M219.9308 71.4098
L219.9070 71.3860
" />
<path d="M219.9070 71.3860
L219.8832 71.3384
" />
<path d="M219.8832 71.3384
L219.8593 71.2431
" />
<path d="M219.8593 71.2431
L219.8593 71.1241
" />
<path d="M219.8593 71.1241
L219.8832 71.0288
" />
<path d="M219.8832 71.0288
L219.9070 70.9812
" />
<path d="M219.9070 70.9812
L219.9308 70.9574
" />
<path d="M219.9308 70.9574
L219.9784 70.9336
" />
<path d="M220.3593 71.3860
L220.3832 71.4098
" />
<path d="M220.3832 71.4098
L220.3593 71.4336
" />
<path d="M220.3593 71.4336
L220.3355 71.4098
" />
<path d="M220.3355 71.4098
L220.3593 71.3860
" />
<path d="M220.3593 71.3860
L220.3593 71.4336
" />
<path d="M220.6927 70.9336
L220.7403 70.9336
" />
<path d="M220.7403 70.9336
L220.7879 70.9574
" />
<path d="M220.7879 70.9574
L220.8117 70.9812
" />
<path d="M220.8117 70.9812
L220.8355 71.0288
" />
<path d="M220.8355 71.0288
L220.8593 71.1241
" />
<path d="M220.8593 71.1241
L220.8593 71.2431
" />
<path d="M220.8593 71.2431
L220.8355 71.3384
" />
<path d="M220.8355 71.3384
L220.8117 71.3860
" />
<path d="M220.8117 71.3860
L220.7879 71.4098
" />
<path d="M220.7879 71.4098
L220.7403 71.4336
" />
<path d="M220.7403 71.4336
L220.6927 71.4336
" />
<path d="M220.6927 71.4336
L220.6451 71.4098
" />
<path d="M220.6451 71.4098
L220.6212 71.3860
" />
<path d="M220.6212 71.3860
L220.5974 71.3384
" />
<path d="M220.5974 71.3384
L220.5736 71.2431
" />
<path d="M220.5736 71.2431
L220.5736 71.1241
" />
<path d="M220.5736 71.1241
L220.5974 71.0288
" />
<path d="M220.5974 71.0288
L220.6212 70.9812
" />
<path d="M220.6212 70.9812
L220.6451 70.9574
" />
<path d="M220.6451 70.9574
L220.6927 70.9336
" />
</g><text x="212.7272" y="67.7800"
transform="scale(-1 1) translate(-425.454400 0)"
textLength="1.3586" font-size="0.8000" lengthAdjust="spacingAndGlyphs"
text-anchor="start" opacity="0">DO</text>
<g class="stroked-text"><desc>DO</desc>
<path d="M212.9358 67.7014
L212.9358 67.1014
" />
<path d="M212.9358 67.1014
L213.0787 67.1014
" />
<path d="M213.0787 67.1014
L213.1644 67.1299
" />
<path d="M213.1644 67.1299
L213.2216 67.1871
" />
<path d="M213.2216 67.1871
L213.2501 67.2442
" />
<path d="M213.2501 67.2442
L213.2787 67.3585
" />
<path d="M213.2787 67.3585
L213.2787 67.4442
" />
<path d="M213.2787 67.4442
L213.2501 67.5585
" />
<path d="M213.2501 67.5585
L213.2216 67.6157
" />
<path d="M213.2216 67.6157
L213.1644 67.6728
" />
<path d="M213.1644 67.6728
L213.0787 67.7014
" />
<path d="M213.0787 67.7014
L212.9358 67.7014
" />
<path d="M213.6501 67.1014
L213.7644 67.1014
" />
<path d="M213.7644 67.1014
L213.8216 67.1299
" />
<path d="M213.8216 67.1299
L213.8787 67.1871
" />
<path d="M213.8787 67.1871
L213.9073 67.3014
" />
<path d="M213.9073 67.3014
L213.9073 67.5014
" />
<path d="M213.9073 67.5014
L213.8787 67.6157
" />
<path d="M213.8787 67.6157
L213.8216 67.6728
" />
<path d="M213.8216 67.6728
L213.7644 67.7014
" />
<path d="M213.7644 67.7014
L213.6501 67.7014
" />
<path d="M213.6501 67.7014
L213.5930 67.6728
" />
<path d="M213.5930 67.6728
L213.5358 67.6157
" />
<path d="M213.5358 67.6157
L213.5073 67.5014
" />
<path d="M213.5073 67.5014
L213.5073 67.3014
" />
<path d="M213.5073 67.3014
L213.5358 67.1871
" />
<path d="M213.5358 67.1871
L213.5930 67.1299
" />
<path d="M213.5930 67.1299
L213.6501 67.1014
" />
</g><text x="216.7422" y="49.2300"
transform="scale(-1 1) translate(-433.484400 0)"
textLength="11.2767" font-size="0.9333" lengthAdjust="spacingAndGlyphs"
text-anchor="middle" opacity="0">Pedalboard LED Ring</text>
<g class="stroked-text"><desc>Pedalboard LED Ring</desc>
<path d="M211.3255 49.1391
L211.3255 48.4391
" />
<path d="M211.3255 48.4391
L211.5922 48.4391
" />
<path d="M211.5922 48.4391
L211.6589 48.4725
" />
<path d="M211.6589 48.4725
L211.6922 48.5058
" />
<path d="M211.6922 48.5058
L211.7255 48.5725
" />
<path d="M211.7255 48.5725
L211.7255 48.6725
" />
<path d="M211.7255 48.6725
L211.6922 48.7391
" />
<path d="M211.6922 48.7391
L211.6589 48.7725
" />
<path d="M211.6589 48.7725
L211.5922 48.8058
" />
<path d="M211.5922 48.8058
L211.3255 48.8058
" />
<path d="M212.2922 49.1058
L212.2255 49.1391
" />
<path d="M212.2255 49.1391
L212.0922 49.1391
" />
<path d="M212.0922 49.1391
L212.0255 49.1058
" />
<path d="M212.0255 49.1058
L211.9922 49.0391
" />
<path d="M211.9922 49.0391
L211.9922 48.7725
" />
<path d="M211.9922 48.7725
L212.0255 48.7058
" />
<path d="M212.0255 48.7058
L212.0922 48.6725
" />
<path d="M212.0922 48.6725
L212.2255 48.6725
" />
<path d="M212.2255 48.6725
L212.2922 48.7058
" />
<path d="M212.2922 48.7058
L212.3255 48.7725
" />
<path d="M212.3255 48.7725
L212.3255 48.8391
" />
<path d="M212.3255 48.8391
L211.9922 48.9058
" />
<path d="M212.9255 49.1391
L212.9255 48.4391
" />
<path d="M212.9255 49.1058
L212.8589 49.1391
" />
<path d="M212.8589 49.1391
L212.7255 49.1391
" />
<path d="M212.7255 49.1391
L212.6589 49.1058
" />
<path d="M212.6589 49.1058
L212.6255 49.0725
" />
<path d="M212.6255 49.0725
L212.5922 49.0058
" />
<path d="M212.5922 49.0058
L212.5922 48.8058
" />
<path d="M212.5922 48.8058
L212.6255 48.7391
" />
<path d="M212.6255 48.7391
L212.6589 48.7058
" />
<path d="M212.6589 48.7058
L212.7255 48.6725
" />
<path d="M212.7255 48.6725
L212.8589 48.6725
" />
<path d="M212.8589 48.6725
L212.9255 48.7058
" />
<path d="M213.5589 49.1391
L213.5589 48.7725
" />
<path d="M213.5589 48.7725
L213.5255 48.7058
" />
<path d="M213.5255 48.7058
L213.4589 48.6725
" />
<path d="M213.4589 48.6725
L213.3255 48.6725
" />
<path d="M213.3255 48.6725
L213.2589 48.7058
" />
<path d="M213.5589 49.1058
L213.4922 49.1391
" />
<path d="M213.4922 49.1391
L213.3255 49.1391
" />
<path d="M213.3255 49.1391
L213.2589 49.1058
" />
<path d="M213.2589 49.1058
L213.2255 49.0391
" />
<path d="M213.2255 49.0391
L213.2255 48.9725
" />
<path d="M213.2255 48.9725
L213.2589 48.9058
" />
<path d="M213.2589 48.9058
L213.3255 48.8725
" />
<path d="M213.3255 48.8725
L213.4922 48.8725
" />
<path d="M213.4922 48.8725
L213.5589 48.8391
" />
<path d="M213.9922 49.1391
L213.9255 49.1058
" />
<path d="M213.9255 49.1058
L213.8922 49.0391
" />
<path d="M213.8922 49.0391
L213.8922 48.4391
" />
<path d="M214.2589 49.1391
L214.2589 48.4391
" />
<path d="M214.2589 48.7058
L214.3255 48.6725
" />
<path d="M214.3255 48.6725
L214.4589 48.6725
" />
<path d="M214.4589 48.6725
L214.5255 48.7058
" />
<path d="M214.5255 48.7058
L214.5589 48.7391
" />
<path d="M214.5589 48.7391
L214.5922 48.8058
" />
<path d="M214.5922 48.8058
L214.5922 49.0058
" />
<path d="M214.5922 49.0058
L214.5589 49.0725
" />
<path d="M214.5589 49.0725
L214.5255 49.1058
" />
<path d="M214.5255 49.1058
L214.4589 49.1391
" />
<path d="M214.4589 49.1391
L214.3255 49.1391
" />
<path d="M214.3255 49.1391
L214.2589 49.1058
" />
<path d="M214.9922 49.1391
L214.9255 49.1058
" />
<path d="M214.9255 49.1058
L214.8922 49.0725
" />
<path d="M214.8922 49.0725
L214.8589 49.0058
" />
<path d="M214.8589 49.0058
L214.8589 48.8058
" />
<path d="M214.8589 48.8058
L214.8922 48.7391
" />
<path d="M214.8922 48.7391
L214.9255 48.7058
" />
<path d="M214.9255 48.7058
L214.9922 48.6725
" />
<path d="M214.9922 48.6725
L215.0922 48.6725
" />
<path d="M215.0922 48.6725
L215.1589 48.7058
" />
<path d="M215.1589 48.7058
L215.1922 48.7391
" />
<path d="M215.1922 48.7391
L215.2255 48.8058
" />
<path d="M215.2255 48.8058
L215.2255 49.0058
" />
<path d="M215.2255 49.0058
L215.1922 49.0725
" />
<path d="M215.1922 49.0725
L215.1589 49.1058
" />
<path d="M215.1589 49.1058
L215.0922 49.1391
" />
<path d="M215.0922 49.1391
L214.9922 49.1391
" />
<path d="M215.8255 49.1391
L215.8255 48.7725
" />
<path d="M215.8255 48.7725
L215.7922 48.7058
" />
<path d="M215.7922 48.7058
L215.7255 48.6725
" />
<path d="M215.7255 48.6725
L215.5922 48.6725
" />
<path d="M215.5922 48.6725
L215.5255 48.7058
" />
<path d="M215.8255 49.1058
L215.7589 49.1391
" />
<path d="M215.7589 49.1391
L215.5922 49.1391
" />
<path d="M215.5922 49.1391
L215.5255 49.1058
" />
<path d="M215.5255 49.1058
L215.4922 49.0391
" />
<path d="M215.4922 49.0391
L215.4922 48.9725
" />
<path d="M215.4922 48.9725
L215.5255 48.9058
" />
<path d="M215.5255 48.9058
L215.5922 48.8725
" />
<path d="M215.5922 48.8725
L215.7589 48.8725
" />
<path d="M215.7589 48.8725
L215.8255 48.8391
" />
<path d="M216.1589 49.1391
L216.1589 48.6725
" />
<path d="M216.1589 48.8058
L216.1922 48.7391
" />
<path d="M216.1922 48.7391
L216.2255 48.7058
" />
<path d="M216.2255 48.7058
L216.2922 48.6725
" />
<path d="M216.2922 48.6725
L216.3589 48.6725
" />
<path d="M216.8922 49.1391
L216.8922 48.4391
" />
<path d="M216.8922 49.1058
L216.8255 49.1391
" />
<path d="M216.8255 49.1391
L216.6922 49.1391
" />
<path d="M216.6922 49.1391
L216.6255 49.1058
" />
<path d="M216.6255 49.1058
L216.5922 49.0725
" />
<path d="M216.5922 49.0725
L216.5589 49.0058
" />
<path d="M216.5589 49.0058
L216.5589 48.8058
" />
<path d="M216.5589 48.8058
L216.5922 48.7391
" />
<path d="M216.5922 48.7391
L216.6255 48.7058
" />
<path d="M216.6255 48.7058
L216.6922 48.6725
" />
<path d="M216.6922 48.6725
L216.8255 48.6725
" />
<path d="M216.8255 48.6725
L216.8922 48.7058
" />
<path d="M218.0922 49.1391
L217.7589 49.1391
" />
<path d="M217.7589 49.1391
L217.7589 48.4391
" />
<path d="M218.3255 48.7725
L218.5589 48.7725
" />
<path d="M218.6589 49.1391
L218.3255 49.1391
" />
<path d="M218.3255 49.1391
L218.3255 48.4391
" />
<path d="M218.3255 48.4391
L218.6589 48.4391
" />
<path d="M218.9589 49.1391
L218.9589 48.4391
" />
<path d="M218.9589 48.4391
L219.1255 48.4391
" />
<path d="M219.1255 48.4391
L219.2255 48.4725
" />
<path d="M219.2255 48.4725
L219.2922 48.5391
" />
<path d="M219.2922 48.5391
L219.3255 48.6058
" />
<path d="M219.3255 48.6058
L219.3589 48.7391
" />
<path d="M219.3589 48.7391
L219.3589 48.8391
" />
<path d="M219.3589 48.8391
L219.3255 48.9725
" />
<path d="M219.3255 48.9725
L219.2922 49.0391
" />
<path d="M219.2922 49.0391
L219.2255 49.1058
" />
<path d="M219.2255 49.1058
L219.1255 49.1391
" />
<path d="M219.1255 49.1391
L218.9589 49.1391
" />
<path d="M220.5922 49.1391
L220.3589 48.8058
" />
<path d="M220.1922 49.1391
L220.1922 48.4391
" />
<path d="M220.1922 48.4391
L220.4589 48.4391
" />
<path d="M220.4589 48.4391
L220.5255 48.4725
" />
<path d="M220.5255 48.4725
L220.5589 48.5058
" />
<path d="M220.5589 48.5058
L220.5922 48.5725
" />
<path d="M220.5922 48.5725
L220.5922 48.6725
" />
<path d="M220.5922 48.6725
L220.5589 48.7391
" />
<path d="M220.5589 48.7391
L220.5255 48.7725
" />
<path d="M220.5255 48.7725
L220.4589 48.8058
" />
<path d="M220.4589 48.8058
L220.1922 48.8058
" />
<path d="M220.8922 49.1391
L220.8922 48.6725
" />
<path d="M220.8922 48.4391
L220.8589 48.4725
" />
<path d="M220.8589 48.4725
L220.8922 48.5058
" />
<path d="M220.8922 48.5058
L220.9255 48.4725
" />
<path d="M220.9255 48.4725
L220.8922 48.4391
" />
<path d="M220.8922 48.4391
L220.8922 48.5058
" />
<path d="M221.2255 48.6725
L221.2255 49.1391
" />
<path d="M221.2255 48.7391
L221.2589 48.7058
" />
<path d="M221.2589 48.7058
L221.3255 48.6725
" />
<path d="M221.3255 48.6725
L221.4255 48.6725
" />
<path d="M221.4255 48.6725
L221.4922 48.7058
" />
<path d="M221.4922 48.7058
L221.5255 48.7725
" />
<path d="M221.5255 48.7725
L221.5255 49.1391
" />
<path d="M222.1589 48.6725
L222.1589 49.2391
" />
<path d="M222.1589 49.2391
L222.1255 49.3058
" />
<path d="M222.1255 49.3058
L222.0922 49.3391
" />
<path d="M222.0922 49.3391
L222.0255 49.3725
" />
<path d="M222.0255 49.3725
L221.9255 49.3725
" />
<path d="M221.9255 49.3725
L221.8589 49.3391
" />
<path d="M222.1589 49.1058
L222.0922 49.1391
" />
<path d="M222.0922 49.1391
L221.9589 49.1391
" />
<path d="M221.9589 49.1391
L221.8922 49.1058
" />
<path d="M221.8922 49.1058
L221.8589 49.0725
" />
<path d="M221.8589 49.0725
L221.8255 49.0058
" />
<path d="M221.8255 49.0058
L221.8255 48.8058
" />
<path d="M221.8255 48.8058
L221.8589 48.7391
" />
<path d="M221.8589 48.7391
L221.8922 48.7058
" />
<path d="M221.8922 48.7058
L221.9589 48.6725
" />
<path d="M221.9589 48.6725
L222.0922 48.6725
" />
<path d="M222.0922 48.6725
L222.1589 48.7058
" />
</g></g>
<g style="fill:#000000; fill-opacity:0.0; 
stroke:#000000; stroke-width:0.1200; stroke-opacity:1; 
stroke-linecap:round; stroke-linejoin:round;">
<path d="M209.0622 62.0600
L209.0622 57.9400
" />
<path d="M208.7622 62.0600
L209.0622 62.0600
" />
<path d="M206.7622 62.0600
L207.2422 62.0600
" />
<path d="M204.9422 62.0600
L205.2422 62.0600
" />
<path d="M204.9422 62.0600
L204.9422 57.9400
" />
<path d="M208.7622 57.9400
L209.0622 57.9400
" />
<path d="M206.7622 57.9400
L207.2422 57.9400
" />
<path d="M205.2422 57.9400
L205.2422 55.5600
" />
<path d="M204.9422 57.9400
L205.2422 57.9400
" />
<path d="M212.0622 67.4400
L207.9422 67.4400
" />
<path d="M212.0622 67.7400
L212.0622 67.4400
" />
<path d="M212.0622 69.7400
L212.0622 69.2600
" />
<path d="M212.0622 71.5600
L212.0622 71.2600
" />
<path d="M212.0622 71.5600
L207.9422 71.5600
" />
<path d="M207.9422 67.7400
L207.9422 67.4400
" />
<path d="M207.9422 69.7400
L207.9422 69.2600
" />
<path d="M207.9422 71.2600
L205.5622 71.2600
" />
<path d="M207.9422 71.5600
L207.9422 71.2600
" />
<g >
</g>
<g >
</g>
<g >
</g>
<g >
</g>
<g >
</g>
<g >
</g>
<g >
</g>
<g >
</g>
<g >
</g>
<g >
</g>
<g >
</g>
<g >
</g>
<g >
</g>
<g >
</g>
<g >
</g>
<g >
</g>
<g >
</g>
<g >
</g>
<g >
</g>
<g >
</g>
<g >
</g>
<g >
</g>
<g >
</g>
<g >
</g>
<g >
</g>
<g >
</g>
<g >
</g>
<g >
</g>
<g >
</g>
<g >
</g>
<g >
</g>
<g >
</g>
<g >
</g>
<g >
</g>
<g >
</g>
<g >
</g>
</g> 
</svg>
