<?xml version="1.0" standalone="no"?>
 <!DOCTYPE svg PUBLIC "-//W3C//DTD SVG 1.1//EN" 
 "http://www.w3.org/Graphics/SVG/1.1/DTD/svg11.dtd"> 
<svg
  xmlns:svg="http://www.w3.org/2000/svg"
  xmlns="http://www.w3.org/2000/svg"
  xmlns:xlink="http://www.w3.org/1999/xlink"
  version="1.1"
  width="297.0022mm" height="210.0072mm" viewBox="0.0000 0.0000 297.0022 210.0072">
<title>SVG Image created as pedalboard-led-ring-B_Silkscreen.svg date 2023/06/03 20:00:49 </title>
  <desc>Image generated by PCBNEW </desc>
<g style="fill:#000000; fill-opacity:1.0000;stroke:#000000; stroke-opacity:1.0000;
stroke-linecap:round; stroke-linejoin:round;"
 transform="translate(0 0) scale(1 1)">
</g>
<g style="fill:#000000; fill-opacity:0.0; 
stroke:#000000; stroke-width:0.0000; stroke-opacity:1; 
stroke-linecap:round; stroke-linejoin:round;">
</g>
<g style="fill:#000000; fill-opacity:0.0; 
stroke:#000000; stroke-width:0.1000; stroke-opacity:1; 
stroke-linecap:round; stroke-linejoin:round;">
<circle cx="217.0022" cy="60.0000" r="7.0500" /> 
<g transform="rotate(-90.000000 209.1022 56.0300)">
<text x="209.1022" y="56.0300"
transform="scale(-1 1) translate(-418.204400 0)"
textLength="1.1433" font-size="0.9333" lengthAdjust="spacingAndGlyphs"
text-anchor="start" opacity="0">DI</text>
</g>
<g class="stroked-text"><desc>DI</desc>
<path d="M209.1931 56.2625
L209.8931 56.2625
" />
<path d="M209.8931 56.2625
L209.8931 56.4291
" />
<path d="M209.8931 56.4291
L209.8597 56.5291
" />
<path d="M209.8597 56.5291
L209.7931 56.5958
" />
<path d="M209.7931 56.5958
L209.7264 56.6291
" />
<path d="M209.7264 56.6291
L209.5931 56.6625
" />
<path d="M209.5931 56.6625
L209.4931 56.6625
" />
<path d="M209.4931 56.6625
L209.3597 56.6291
" />
<path d="M209.3597 56.6291
L209.2931 56.5958
" />
<path d="M209.2931 56.5958
L209.2264 56.5291
" />
<path d="M209.2264 56.5291
L209.1931 56.4291
" />
<path d="M209.1931 56.4291
L209.1931 56.2625
" />
<path d="M209.1931 56.9625
L209.8931 56.9625
" />
</g><g transform="rotate(-90.000000 209.0522 62.5000)">
<text x="209.0522" y="62.5000"
transform="scale(-1 1) translate(-418.104400 0)"
textLength="1.3014" font-size="0.8000" lengthAdjust="spacingAndGlyphs"
text-anchor="start" opacity="0">D0</text>
</g>
<g class="stroked-text"><desc>D0</desc>
<path d="M209.1308 62.7086
L209.7308 62.7086
" />
<path d="M209.7308 62.7086
L209.7308 62.8515
" />
<path d="M209.7308 62.8515
L209.7023 62.9372
" />
<path d="M209.7023 62.9372
L209.6451 62.9944
" />
<path d="M209.6451 62.9944
L209.5880 63.0229
" />
<path d="M209.5880 63.0229
L209.4737 63.0515
" />
<path d="M209.4737 63.0515
L209.3880 63.0515
" />
<path d="M209.3880 63.0515
L209.2737 63.0229
" />
<path d="M209.2737 63.0229
L209.2165 62.9944
" />
<path d="M209.2165 62.9944
L209.1594 62.9372
" />
<path d="M209.1594 62.9372
L209.1308 62.8515
" />
<path d="M209.1308 62.8515
L209.1308 62.7086
" />
<path d="M209.7308 63.4229
L209.7308 63.4801
" />
<path d="M209.7308 63.4801
L209.7023 63.5372
" />
<path d="M209.7023 63.5372
L209.6737 63.5658
" />
<path d="M209.6737 63.5658
L209.6165 63.5944
" />
<path d="M209.6165 63.5944
L209.5023 63.6229
" />
<path d="M209.5023 63.6229
L209.3594 63.6229
" />
<path d="M209.3594 63.6229
L209.2451 63.5944
" />
<path d="M209.2451 63.5944
L209.1880 63.5658
" />
<path d="M209.1880 63.5658
L209.1594 63.5372
" />
<path d="M209.1594 63.5372
L209.1308 63.4801
" />
<path d="M209.1308 63.4801
L209.1308 63.4229
" />
<path d="M209.1308 63.4229
L209.1594 63.3658
" />
<path d="M209.1594 63.3658
L209.1880 63.3372
" />
<path d="M209.1880 63.3372
L209.2451 63.3086
" />
<path d="M209.2451 63.3086
L209.3594 63.2801
" />
<path d="M209.3594 63.2801
L209.5023 63.2801
" />
<path d="M209.5023 63.2801
L209.6165 63.3086
" />
<path d="M209.6165 63.3086
L209.6737 63.3372
" />
<path d="M209.6737 63.3372
L209.7023 63.3658
" />
<path d="M209.7023 63.3658
L209.7308 63.4229
" />
</g><text x="205.8622" y="69.9000"
transform="scale(-1 1) translate(-411.724400 0)"
textLength="1.8443" font-size="0.8000" lengthAdjust="spacingAndGlyphs"
text-anchor="start" opacity="0">VCC</text>
<g class="stroked-text"><desc>VCC</desc>
<path d="M205.9851 69.2214
L206.1851 69.8214
" />
<path d="M206.1851 69.8214
L206.3851 69.2214
" />
<path d="M206.9280 69.7642
L206.8994 69.7928
" />
<path d="M206.8994 69.7928
L206.8137 69.8214
" />
<path d="M206.8137 69.8214
L206.7566 69.8214
" />
<path d="M206.7566 69.8214
L206.6708 69.7928
" />
<path d="M206.6708 69.7928
L206.6137 69.7357
" />
<path d="M206.6137 69.7357
L206.5851 69.6785
" />
<path d="M206.5851 69.6785
L206.5566 69.5642
" />
<path d="M206.5566 69.5642
L206.5566 69.4785
" />
<path d="M206.5566 69.4785
L206.5851 69.3642
" />
<path d="M206.5851 69.3642
L206.6137 69.3071
" />
<path d="M206.6137 69.3071
L206.6708 69.2499
" />
<path d="M206.6708 69.2499
L206.7566 69.2214
" />
<path d="M206.7566 69.2214
L206.8137 69.2214
" />
<path d="M206.8137 69.2214
L206.8994 69.2499
" />
<path d="M206.8994 69.2499
L206.9280 69.2785
" />
<path d="M207.5280 69.7642
L207.4994 69.7928
" />
<path d="M207.4994 69.7928
L207.4137 69.8214
" />
<path d="M207.4137 69.8214
L207.3566 69.8214
" />
<path d="M207.3566 69.8214
L207.2708 69.7928
" />
<path d="M207.2708 69.7928
L207.2137 69.7357
" />
<path d="M207.2137 69.7357
L207.1851 69.6785
" />
<path d="M207.1851 69.6785
L207.1566 69.5642
" />
<path d="M207.1566 69.5642
L207.1566 69.4785
" />
<path d="M207.1566 69.4785
L207.1851 69.3642
" />
<path d="M207.1851 69.3642
L207.2137 69.3071
" />
<path d="M207.2137 69.3071
L207.2708 69.2499
" />
<path d="M207.2708 69.2499
L207.3566 69.2214
" />
<path d="M207.3566 69.2214
L207.4137 69.2214
" />
<path d="M207.4137 69.2214
L207.4994 69.2499
" />
<path d="M207.4994 69.2499
L207.5280 69.2785
" />
</g><g transform="rotate(-90.000000 207.1022 62.3500)">
<text x="207.1022" y="62.3500"
transform="scale(-1 1) translate(-414.204400 0)"
textLength="1.9586" font-size="0.8000" lengthAdjust="spacingAndGlyphs"
text-anchor="start" opacity="0">GND</text>
</g>
<g class="stroked-text"><desc>GND</desc>
<path d="M207.7523 62.8729
L207.7808 62.8158
" />
<path d="M207.7808 62.8158
L207.7808 62.7301
" />
<path d="M207.7808 62.7301
L207.7523 62.6444
" />
<path d="M207.7523 62.6444
L207.6951 62.5872
" />
<path d="M207.6951 62.5872
L207.6380 62.5586
" />
<path d="M207.6380 62.5586
L207.5237 62.5301
" />
<path d="M207.5237 62.5301
L207.4380 62.5301
" />
<path d="M207.4380 62.5301
L207.3237 62.5586
" />
<path d="M207.3237 62.5586
L207.2665 62.5872
" />
<path d="M207.2665 62.5872
L207.2094 62.6444
" />
<path d="M207.2094 62.6444
L207.1808 62.7301
" />
<path d="M207.1808 62.7301
L207.1808 62.7872
" />
<path d="M207.1808 62.7872
L207.2094 62.8729
" />
<path d="M207.2094 62.8729
L207.2380 62.9015
" />
<path d="M207.2380 62.9015
L207.4380 62.9015
" />
<path d="M207.4380 62.9015
L207.4380 62.7872
" />
<path d="M207.1808 63.1586
L207.7808 63.1586
" />
<path d="M207.7808 63.1586
L207.1808 63.5015
" />
<path d="M207.1808 63.5015
L207.7808 63.5015
" />
<path d="M207.1808 63.7872
L207.7808 63.7872
" />
<path d="M207.7808 63.7872
L207.7808 63.9301
" />
<path d="M207.7808 63.9301
L207.7523 64.0158
" />
<path d="M207.7523 64.0158
L207.6951 64.0729
" />
<path d="M207.6951 64.0729
L207.6380 64.1015
" />
<path d="M207.6380 64.1015
L207.5237 64.1301
" />
<path d="M207.5237 64.1301
L207.4380 64.1301
" />
<path d="M207.4380 64.1301
L207.3237 64.1015
" />
<path d="M207.3237 64.1015
L207.2665 64.0729
" />
<path d="M207.2665 64.0729
L207.2094 64.0158
" />
<path d="M207.2094 64.0158
L207.1808 63.9301
" />
<path d="M207.1808 63.9301
L207.1808 63.7872
" />
</g><text x="212.4772" y="69.8750"
transform="scale(-1 1) translate(-424.954400 0)"
textLength="1.9586" font-size="0.8000" lengthAdjust="spacingAndGlyphs"
text-anchor="start" opacity="0">GND</text>
<g class="stroked-text"><desc>GND</desc>
<path d="M213.0001 69.2249
L212.9430 69.1964
" />
<path d="M212.9430 69.1964
L212.8573 69.1964
" />
<path d="M212.8573 69.1964
L212.7716 69.2249
" />
<path d="M212.7716 69.2249
L212.7144 69.2821
" />
<path d="M212.7144 69.2821
L212.6858 69.3392
" />
<path d="M212.6858 69.3392
L212.6573 69.4535
" />
<path d="M212.6573 69.4535
L212.6573 69.5392
" />
<path d="M212.6573 69.5392
L212.6858 69.6535
" />
<path d="M212.6858 69.6535
L212.7144 69.7107
" />
<path d="M212.7144 69.7107
L212.7716 69.7678
" />
<path d="M212.7716 69.7678
L212.8573 69.7964
" />
<path d="M212.8573 69.7964
L212.9144 69.7964
" />
<path d="M212.9144 69.7964
L213.0001 69.7678
" />
<path d="M213.0001 69.7678
L213.0287 69.7392
" />
<path d="M213.0287 69.7392
L213.0287 69.5392
" />
<path d="M213.0287 69.5392
L212.9144 69.5392
" />
<path d="M213.2858 69.7964
L213.2858 69.1964
" />
<path d="M213.2858 69.1964
L213.6287 69.7964
" />
<path d="M213.6287 69.7964
L213.6287 69.1964
" />
<path d="M213.9144 69.7964
L213.9144 69.1964
" />
<path d="M213.9144 69.1964
L214.0573 69.1964
" />
<path d="M214.0573 69.1964
L214.1430 69.2249
" />
<path d="M214.1430 69.2249
L214.2001 69.2821
" />
<path d="M214.2001 69.2821
L214.2287 69.3392
" />
<path d="M214.2287 69.3392
L214.2573 69.4535
" />
<path d="M214.2573 69.4535
L214.2573 69.5392
" />
<path d="M214.2573 69.5392
L214.2287 69.6535
" />
<path d="M214.2287 69.6535
L214.2001 69.7107
" />
<path d="M214.2001 69.7107
L214.1430 69.7678
" />
<path d="M214.1430 69.7678
L214.0573 69.7964
" />
<path d="M214.0573 69.7964
L213.9144 69.7964
" />
</g><text x="206.3122" y="67.8000"
transform="scale(-1 1) translate(-412.624400 0)"
textLength="1.0157" font-size="0.8000" lengthAdjust="spacingAndGlyphs"
text-anchor="start" opacity="0">DI</text>
<g class="stroked-text"><desc>DI</desc>
<path d="M206.5208 67.7214
L206.5208 67.1214
" />
<path d="M206.5208 67.1214
L206.6637 67.1214
" />
<path d="M206.6637 67.1214
L206.7494 67.1499
" />
<path d="M206.7494 67.1499
L206.8066 67.2071
" />
<path d="M206.8066 67.2071
L206.8351 67.2642
" />
<path d="M206.8351 67.2642
L206.8637 67.3785
" />
<path d="M206.8637 67.3785
L206.8637 67.4642
" />
<path d="M206.8637 67.4642
L206.8351 67.5785
" />
<path d="M206.8351 67.5785
L206.8066 67.6357
" />
<path d="M206.8066 67.6357
L206.7494 67.6928
" />
<path d="M206.7494 67.6928
L206.6637 67.7214
" />
<path d="M206.6637 67.7214
L206.5208 67.7214
" />
<path d="M207.1208 67.7214
L207.1208 67.1214
" />
</g><g transform="rotate(-90.000000 207.1022 55.7200)">
<text x="207.1022" y="55.7200"
transform="scale(-1 1) translate(-414.204400 0)"
textLength="1.8443" font-size="0.8000" lengthAdjust="spacingAndGlyphs"
text-anchor="start" opacity="0">VCC</text>
</g>
<g class="stroked-text"><desc>VCC</desc>
<path d="M207.7808 55.8429
L207.1808 56.0429
" />
<path d="M207.1808 56.0429
L207.7808 56.2429
" />
<path d="M207.2380 56.7858
L207.2094 56.7572
" />
<path d="M207.2094 56.7572
L207.1808 56.6715
" />
<path d="M207.1808 56.6715
L207.1808 56.6144
" />
<path d="M207.1808 56.6144
L207.2094 56.5286
" />
<path d="M207.2094 56.5286
L207.2665 56.4715
" />
<path d="M207.2665 56.4715
L207.3237 56.4429
" />
<path d="M207.3237 56.4429
L207.4380 56.4144
" />
<path d="M207.4380 56.4144
L207.5237 56.4144
" />
<path d="M207.5237 56.4144
L207.6380 56.4429
" />
<path d="M207.6380 56.4429
L207.6951 56.4715
" />
<path d="M207.6951 56.4715
L207.7523 56.5286
" />
<path d="M207.7523 56.5286
L207.7808 56.6144
" />
<path d="M207.7808 56.6144
L207.7808 56.6715
" />
<path d="M207.7808 56.6715
L207.7523 56.7572
" />
<path d="M207.7523 56.7572
L207.7237 56.7858
" />
<path d="M207.2380 57.3858
L207.2094 57.3572
" />
<path d="M207.2094 57.3572
L207.1808 57.2715
" />
<path d="M207.1808 57.2715
L207.1808 57.2144
" />
<path d="M207.1808 57.2144
L207.2094 57.1286
" />
<path d="M207.2094 57.1286
L207.2665 57.0715
" />
<path d="M207.2665 57.0715
L207.3237 57.0429
" />
<path d="M207.3237 57.0429
L207.4380 57.0144
" />
<path d="M207.4380 57.0144
L207.5237 57.0144
" />
<path d="M207.5237 57.0144
L207.6380 57.0429
" />
<path d="M207.6380 57.0429
L207.6951 57.0715
" />
<path d="M207.6951 57.0715
L207.7523 57.1286
" />
<path d="M207.7523 57.1286
L207.7808 57.2144
" />
<path d="M207.7808 57.2144
L207.7808 57.2715
" />
<path d="M207.7808 57.2715
L207.7523 57.3572
" />
<path d="M207.7523 57.3572
L207.7237 57.3858
" />
</g><text x="223.1422" y="71.4800"
transform="scale(-1 1) translate(-446.284400 0)"
textLength="4.5548" font-size="0.6667" lengthAdjust="spacingAndGlyphs"
text-anchor="middle" opacity="0">PCB: v1.0.0</text>
<g class="stroked-text"><desc>PCB: v1.0.0</desc>
<path d="M221.0589 71.4136
L221.0589 70.9136
" />
<path d="M221.0589 70.9136
L221.2493 70.9136
" />
<path d="M221.2493 70.9136
L221.2970 70.9374
" />
<path d="M221.2970 70.9374
L221.3208 70.9612
" />
<path d="M221.3208 70.9612
L221.3446 71.0088
" />
<path d="M221.3446 71.0088
L221.3446 71.0803
" />
<path d="M221.3446 71.0803
L221.3208 71.1279
" />
<path d="M221.3208 71.1279
L221.2970 71.1517
" />
<path d="M221.2970 71.1517
L221.2493 71.1755
" />
<path d="M221.2493 71.1755
L221.0589 71.1755
" />
<path d="M221.8446 71.3660
L221.8208 71.3898
" />
<path d="M221.8208 71.3898
L221.7493 71.4136
" />
<path d="M221.7493 71.4136
L221.7017 71.4136
" />
<path d="M221.7017 71.4136
L221.6303 71.3898
" />
<path d="M221.6303 71.3898
L221.5827 71.3422
" />
<path d="M221.5827 71.3422
L221.5589 71.2946
" />
<path d="M221.5589 71.2946
L221.5351 71.1993
" />
<path d="M221.5351 71.1993
L221.5351 71.1279
" />
<path d="M221.5351 71.1279
L221.5589 71.0327
" />
<path d="M221.5589 71.0327
L221.5827 70.9850
" />
<path d="M221.5827 70.9850
L221.6303 70.9374
" />
<path d="M221.6303 70.9374
L221.7017 70.9136
" />
<path d="M221.7017 70.9136
L221.7493 70.9136
" />
<path d="M221.7493 70.9136
L221.8208 70.9374
" />
<path d="M221.8208 70.9374
L221.8446 70.9612
" />
<path d="M222.2255 71.1517
L222.2970 71.1755
" />
<path d="M222.2970 71.1755
L222.3208 71.1993
" />
<path d="M222.3208 71.1993
L222.3446 71.2469
" />
<path d="M222.3446 71.2469
L222.3446 71.3184
" />
<path d="M222.3446 71.3184
L222.3208 71.3660
" />
<path d="M222.3208 71.3660
L222.2970 71.3898
" />
<path d="M222.2970 71.3898
L222.2493 71.4136
" />
<path d="M222.2493 71.4136
L222.0589 71.4136
" />
<path d="M222.0589 71.4136
L222.0589 70.9136
" />
<path d="M222.0589 70.9136
L222.2255 70.9136
" />
<path d="M222.2255 70.9136
L222.2732 70.9374
" />
<path d="M222.2732 70.9374
L222.2970 70.9612
" />
<path d="M222.2970 70.9612
L222.3208 71.0088
" />
<path d="M222.3208 71.0088
L222.3208 71.0565
" />
<path d="M222.3208 71.0565
L222.2970 71.1041
" />
<path d="M222.2970 71.1041
L222.2732 71.1279
" />
<path d="M222.2732 71.1279
L222.2255 71.1517
" />
<path d="M222.2255 71.1517
L222.0589 71.1517
" />
<path d="M222.5589 71.3660
L222.5827 71.3898
" />
<path d="M222.5827 71.3898
L222.5589 71.4136
" />
<path d="M222.5589 71.4136
L222.5351 71.3898
" />
<path d="M222.5351 71.3898
L222.5589 71.3660
" />
<path d="M222.5589 71.3660
L222.5589 71.4136
" />
<path d="M222.5589 71.1041
L222.5827 71.1279
" />
<path d="M222.5827 71.1279
L222.5589 71.1517
" />
<path d="M222.5589 71.1517
L222.5351 71.1279
" />
<path d="M222.5351 71.1279
L222.5589 71.1041
" />
<path d="M222.5589 71.1041
L222.5589 71.1517
" />
<path d="M223.1303 71.0803
L223.2493 71.4136
" />
<path d="M223.2493 71.4136
L223.3684 71.0803
" />
<path d="M223.8208 71.4136
L223.5351 71.4136
" />
<path d="M223.6779 71.4136
L223.6779 70.9136
" />
<path d="M223.6779 70.9136
L223.6303 70.9850
" />
<path d="M223.6303 70.9850
L223.5827 71.0327
" />
<path d="M223.5827 71.0327
L223.5351 71.0565
" />
<path d="M224.0351 71.3660
L224.0589 71.3898
" />
<path d="M224.0589 71.3898
L224.0351 71.4136
" />
<path d="M224.0351 71.4136
L224.0112 71.3898
" />
<path d="M224.0112 71.3898
L224.0351 71.3660
" />
<path d="M224.0351 71.3660
L224.0351 71.4136
" />
<path d="M224.3684 70.9136
L224.4160 70.9136
" />
<path d="M224.4160 70.9136
L224.4636 70.9374
" />
<path d="M224.4636 70.9374
L224.4874 70.9612
" />
<path d="M224.4874 70.9612
L224.5112 71.0088
" />
<path d="M224.5112 71.0088
L224.5351 71.1041
" />
<path d="M224.5351 71.1041
L224.5351 71.2231
" />
<path d="M224.5351 71.2231
L224.5112 71.3184
" />
<path d="M224.5112 71.3184
L224.4874 71.3660
" />
<path d="M224.4874 71.3660
L224.4636 71.3898
" />
<path d="M224.4636 71.3898
L224.4160 71.4136
" />
<path d="M224.4160 71.4136
L224.3684 71.4136
" />
<path d="M224.3684 71.4136
L224.3208 71.3898
" />
<path d="M224.3208 71.3898
L224.2970 71.3660
" />
<path d="M224.2970 71.3660
L224.2732 71.3184
" />
<path d="M224.2732 71.3184
L224.2493 71.2231
" />
<path d="M224.2493 71.2231
L224.2493 71.1041
" />
<path d="M224.2493 71.1041
L224.2732 71.0088
" />
<path d="M224.2732 71.0088
L224.2970 70.9612
" />
<path d="M224.2970 70.9612
L224.3208 70.9374
" />
<path d="M224.3208 70.9374
L224.3684 70.9136
" />
<path d="M224.7493 71.3660
L224.7732 71.3898
" />
<path d="M224.7732 71.3898
L224.7493 71.4136
" />
<path d="M224.7493 71.4136
L224.7255 71.3898
" />
<path d="M224.7255 71.3898
L224.7493 71.3660
" />
<path d="M224.7493 71.3660
L224.7493 71.4136
" />
<path d="M225.0827 70.9136
L225.1303 70.9136
" />
<path d="M225.1303 70.9136
L225.1779 70.9374
" />
<path d="M225.1779 70.9374
L225.2017 70.9612
" />
<path d="M225.2017 70.9612
L225.2255 71.0088
" />
<path d="M225.2255 71.0088
L225.2493 71.1041
" />
<path d="M225.2493 71.1041
L225.2493 71.2231
" />
<path d="M225.2493 71.2231
L225.2255 71.3184
" />
<path d="M225.2255 71.3184
L225.2017 71.3660
" />
<path d="M225.2017 71.3660
L225.1779 71.3898
" />
<path d="M225.1779 71.3898
L225.1303 71.4136
" />
<path d="M225.1303 71.4136
L225.0827 71.4136
" />
<path d="M225.0827 71.4136
L225.0351 71.3898
" />
<path d="M225.0351 71.3898
L225.0112 71.3660
" />
<path d="M225.0112 71.3660
L224.9874 71.3184
" />
<path d="M224.9874 71.3184
L224.9636 71.2231
" />
<path d="M224.9636 71.2231
L224.9636 71.1041
" />
<path d="M224.9636 71.1041
L224.9874 71.0088
" />
<path d="M224.9874 71.0088
L225.0112 70.9612
" />
<path d="M225.0112 70.9612
L225.0351 70.9374
" />
<path d="M225.0351 70.9374
L225.0827 70.9136
" />
</g><text x="212.7272" y="67.7800"
transform="scale(-1 1) translate(-425.454400 0)"
textLength="1.3586" font-size="0.8000" lengthAdjust="spacingAndGlyphs"
text-anchor="start" opacity="0">DO</text>
<g class="stroked-text"><desc>DO</desc>
<path d="M212.9358 67.7014
L212.9358 67.1014
" />
<path d="M212.9358 67.1014
L213.0787 67.1014
" />
<path d="M213.0787 67.1014
L213.1644 67.1299
" />
<path d="M213.1644 67.1299
L213.2216 67.1871
" />
<path d="M213.2216 67.1871
L213.2501 67.2442
" />
<path d="M213.2501 67.2442
L213.2787 67.3585
" />
<path d="M213.2787 67.3585
L213.2787 67.4442
" />
<path d="M213.2787 67.4442
L213.2501 67.5585
" />
<path d="M213.2501 67.5585
L213.2216 67.6157
" />
<path d="M213.2216 67.6157
L213.1644 67.6728
" />
<path d="M213.1644 67.6728
L213.0787 67.7014
" />
<path d="M213.0787 67.7014
L212.9358 67.7014
" />
<path d="M213.6501 67.1014
L213.7644 67.1014
" />
<path d="M213.7644 67.1014
L213.8216 67.1299
" />
<path d="M213.8216 67.1299
L213.8787 67.1871
" />
<path d="M213.8787 67.1871
L213.9073 67.3014
" />
<path d="M213.9073 67.3014
L213.9073 67.5014
" />
<path d="M213.9073 67.5014
L213.8787 67.6157
" />
<path d="M213.8787 67.6157
L213.8216 67.6728
" />
<path d="M213.8216 67.6728
L213.7644 67.7014
" />
<path d="M213.7644 67.7014
L213.6501 67.7014
" />
<path d="M213.6501 67.7014
L213.5930 67.6728
" />
<path d="M213.5930 67.6728
L213.5358 67.6157
" />
<path d="M213.5358 67.6157
L213.5073 67.5014
" />
<path d="M213.5073 67.5014
L213.5073 67.3014
" />
<path d="M213.5073 67.3014
L213.5358 67.1871
" />
<path d="M213.5358 67.1871
L213.5930 67.1299
" />
<path d="M213.5930 67.1299
L213.6501 67.1014
" />
</g><text x="217.0422" y="51.1130"
transform="scale(-1 1) translate(-434.084400 0)"
textLength="11.2767" font-size="0.9333" lengthAdjust="spacingAndGlyphs"
text-anchor="middle" opacity="0">Pedalboard LED Ring</text>
<g class="stroked-text"><desc>Pedalboard LED Ring</desc>
<path d="M211.6255 51.0221
L211.6255 50.3221
" />
<path d="M211.6255 50.3221
L211.8922 50.3221
" />
<path d="M211.8922 50.3221
L211.9589 50.3555
" />
<path d="M211.9589 50.3555
L211.9922 50.3888
" />
<path d="M211.9922 50.3888
L212.0255 50.4555
" />
<path d="M212.0255 50.4555
L212.0255 50.5555
" />
<path d="M212.0255 50.5555
L211.9922 50.6221
" />
<path d="M211.9922 50.6221
L211.9589 50.6555
" />
<path d="M211.9589 50.6555
L211.8922 50.6888
" />
<path d="M211.8922 50.6888
L211.6255 50.6888
" />
<path d="M212.5922 50.9888
L212.5255 51.0221
" />
<path d="M212.5255 51.0221
L212.3922 51.0221
" />
<path d="M212.3922 51.0221
L212.3255 50.9888
" />
<path d="M212.3255 50.9888
L212.2922 50.9221
" />
<path d="M212.2922 50.9221
L212.2922 50.6555
" />
<path d="M212.2922 50.6555
L212.3255 50.5888
" />
<path d="M212.3255 50.5888
L212.3922 50.5555
" />
<path d="M212.3922 50.5555
L212.5255 50.5555
" />
<path d="M212.5255 50.5555
L212.5922 50.5888
" />
<path d="M212.5922 50.5888
L212.6255 50.6555
" />
<path d="M212.6255 50.6555
L212.6255 50.7221
" />
<path d="M212.6255 50.7221
L212.2922 50.7888
" />
<path d="M213.2255 51.0221
L213.2255 50.3221
" />
<path d="M213.2255 50.9888
L213.1589 51.0221
" />
<path d="M213.1589 51.0221
L213.0255 51.0221
" />
<path d="M213.0255 51.0221
L212.9589 50.9888
" />
<path d="M212.9589 50.9888
L212.9255 50.9555
" />
<path d="M212.9255 50.9555
L212.8922 50.8888
" />
<path d="M212.8922 50.8888
L212.8922 50.6888
" />
<path d="M212.8922 50.6888
L212.9255 50.6221
" />
<path d="M212.9255 50.6221
L212.9589 50.5888
" />
<path d="M212.9589 50.5888
L213.0255 50.5555
" />
<path d="M213.0255 50.5555
L213.1589 50.5555
" />
<path d="M213.1589 50.5555
L213.2255 50.5888
" />
<path d="M213.8589 51.0221
L213.8589 50.6555
" />
<path d="M213.8589 50.6555
L213.8255 50.5888
" />
<path d="M213.8255 50.5888
L213.7589 50.5555
" />
<path d="M213.7589 50.5555
L213.6255 50.5555
" />
<path d="M213.6255 50.5555
L213.5589 50.5888
" />
<path d="M213.8589 50.9888
L213.7922 51.0221
" />
<path d="M213.7922 51.0221
L213.6255 51.0221
" />
<path d="M213.6255 51.0221
L213.5589 50.9888
" />
<path d="M213.5589 50.9888
L213.5255 50.9221
" />
<path d="M213.5255 50.9221
L213.5255 50.8555
" />
<path d="M213.5255 50.8555
L213.5589 50.7888
" />
<path d="M213.5589 50.7888
L213.6255 50.7555
" />
<path d="M213.6255 50.7555
L213.7922 50.7555
" />
<path d="M213.7922 50.7555
L213.8589 50.7221
" />
<path d="M214.2922 51.0221
L214.2255 50.9888
" />
<path d="M214.2255 50.9888
L214.1922 50.9221
" />
<path d="M214.1922 50.9221
L214.1922 50.3221
" />
<path d="M214.5589 51.0221
L214.5589 50.3221
" />
<path d="M214.5589 50.5888
L214.6255 50.5555
" />
<path d="M214.6255 50.5555
L214.7589 50.5555
" />
<path d="M214.7589 50.5555
L214.8255 50.5888
" />
<path d="M214.8255 50.5888
L214.8589 50.6221
" />
<path d="M214.8589 50.6221
L214.8922 50.6888
" />
<path d="M214.8922 50.6888
L214.8922 50.8888
" />
<path d="M214.8922 50.8888
L214.8589 50.9555
" />
<path d="M214.8589 50.9555
L214.8255 50.9888
" />
<path d="M214.8255 50.9888
L214.7589 51.0221
" />
<path d="M214.7589 51.0221
L214.6255 51.0221
" />
<path d="M214.6255 51.0221
L214.5589 50.9888
" />
<path d="M215.2922 51.0221
L215.2255 50.9888
" />
<path d="M215.2255 50.9888
L215.1922 50.9555
" />
<path d="M215.1922 50.9555
L215.1589 50.8888
" />
<path d="M215.1589 50.8888
L215.1589 50.6888
" />
<path d="M215.1589 50.6888
L215.1922 50.6221
" />
<path d="M215.1922 50.6221
L215.2255 50.5888
" />
<path d="M215.2255 50.5888
L215.2922 50.5555
" />
<path d="M215.2922 50.5555
L215.3922 50.5555
" />
<path d="M215.3922 50.5555
L215.4589 50.5888
" />
<path d="M215.4589 50.5888
L215.4922 50.6221
" />
<path d="M215.4922 50.6221
L215.5255 50.6888
" />
<path d="M215.5255 50.6888
L215.5255 50.8888
" />
<path d="M215.5255 50.8888
L215.4922 50.9555
" />
<path d="M215.4922 50.9555
L215.4589 50.9888
" />
<path d="M215.4589 50.9888
L215.3922 51.0221
" />
<path d="M215.3922 51.0221
L215.2922 51.0221
" />
<path d="M216.1255 51.0221
L216.1255 50.6555
" />
<path d="M216.1255 50.6555
L216.0922 50.5888
" />
<path d="M216.0922 50.5888
L216.0255 50.5555
" />
<path d="M216.0255 50.5555
L215.8922 50.5555
" />
<path d="M215.8922 50.5555
L215.8255 50.5888
" />
<path d="M216.1255 50.9888
L216.0589 51.0221
" />
<path d="M216.0589 51.0221
L215.8922 51.0221
" />
<path d="M215.8922 51.0221
L215.8255 50.9888
" />
<path d="M215.8255 50.9888
L215.7922 50.9221
" />
<path d="M215.7922 50.9221
L215.7922 50.8555
" />
<path d="M215.7922 50.8555
L215.8255 50.7888
" />
<path d="M215.8255 50.7888
L215.8922 50.7555
" />
<path d="M215.8922 50.7555
L216.0589 50.7555
" />
<path d="M216.0589 50.7555
L216.1255 50.7221
" />
<path d="M216.4589 51.0221
L216.4589 50.5555
" />
<path d="M216.4589 50.6888
L216.4922 50.6221
" />
<path d="M216.4922 50.6221
L216.5255 50.5888
" />
<path d="M216.5255 50.5888
L216.5922 50.5555
" />
<path d="M216.5922 50.5555
L216.6589 50.5555
" />
<path d="M217.1922 51.0221
L217.1922 50.3221
" />
<path d="M217.1922 50.9888
L217.1255 51.0221
" />
<path d="M217.1255 51.0221
L216.9922 51.0221
" />
<path d="M216.9922 51.0221
L216.9255 50.9888
" />
<path d="M216.9255 50.9888
L216.8922 50.9555
" />
<path d="M216.8922 50.9555
L216.8589 50.8888
" />
<path d="M216.8589 50.8888
L216.8589 50.6888
" />
<path d="M216.8589 50.6888
L216.8922 50.6221
" />
<path d="M216.8922 50.6221
L216.9255 50.5888
" />
<path d="M216.9255 50.5888
L216.9922 50.5555
" />
<path d="M216.9922 50.5555
L217.1255 50.5555
" />
<path d="M217.1255 50.5555
L217.1922 50.5888
" />
<path d="M218.3922 51.0221
L218.0589 51.0221
" />
<path d="M218.0589 51.0221
L218.0589 50.3221
" />
<path d="M218.6255 50.6555
L218.8589 50.6555
" />
<path d="M218.9589 51.0221
L218.6255 51.0221
" />
<path d="M218.6255 51.0221
L218.6255 50.3221
" />
<path d="M218.6255 50.3221
L218.9589 50.3221
" />
<path d="M219.2589 51.0221
L219.2589 50.3221
" />
<path d="M219.2589 50.3221
L219.4255 50.3221
" />
<path d="M219.4255 50.3221
L219.5255 50.3555
" />
<path d="M219.5255 50.3555
L219.5922 50.4221
" />
<path d="M219.5922 50.4221
L219.6255 50.4888
" />
<path d="M219.6255 50.4888
L219.6589 50.6221
" />
<path d="M219.6589 50.6221
L219.6589 50.7221
" />
<path d="M219.6589 50.7221
L219.6255 50.8555
" />
<path d="M219.6255 50.8555
L219.5922 50.9221
" />
<path d="M219.5922 50.9221
L219.5255 50.9888
" />
<path d="M219.5255 50.9888
L219.4255 51.0221
" />
<path d="M219.4255 51.0221
L219.2589 51.0221
" />
<path d="M220.8922 51.0221
L220.6589 50.6888
" />
<path d="M220.4922 51.0221
L220.4922 50.3221
" />
<path d="M220.4922 50.3221
L220.7589 50.3221
" />
<path d="M220.7589 50.3221
L220.8255 50.3555
" />
<path d="M220.8255 50.3555
L220.8589 50.3888
" />
<path d="M220.8589 50.3888
L220.8922 50.4555
" />
<path d="M220.8922 50.4555
L220.8922 50.5555
" />
<path d="M220.8922 50.5555
L220.8589 50.6221
" />
<path d="M220.8589 50.6221
L220.8255 50.6555
" />
<path d="M220.8255 50.6555
L220.7589 50.6888
" />
<path d="M220.7589 50.6888
L220.4922 50.6888
" />
<path d="M221.1922 51.0221
L221.1922 50.5555
" />
<path d="M221.1922 50.3221
L221.1589 50.3555
" />
<path d="M221.1589 50.3555
L221.1922 50.3888
" />
<path d="M221.1922 50.3888
L221.2255 50.3555
" />
<path d="M221.2255 50.3555
L221.1922 50.3221
" />
<path d="M221.1922 50.3221
L221.1922 50.3888
" />
<path d="M221.5255 50.5555
L221.5255 51.0221
" />
<path d="M221.5255 50.6221
L221.5589 50.5888
" />
<path d="M221.5589 50.5888
L221.6255 50.5555
" />
<path d="M221.6255 50.5555
L221.7255 50.5555
" />
<path d="M221.7255 50.5555
L221.7922 50.5888
" />
<path d="M221.7922 50.5888
L221.8255 50.6555
" />
<path d="M221.8255 50.6555
L221.8255 51.0221
" />
<path d="M222.4589 50.5555
L222.4589 51.1221
" />
<path d="M222.4589 51.1221
L222.4255 51.1888
" />
<path d="M222.4255 51.1888
L222.3922 51.2221
" />
<path d="M222.3922 51.2221
L222.3255 51.2555
" />
<path d="M222.3255 51.2555
L222.2255 51.2555
" />
<path d="M222.2255 51.2555
L222.1589 51.2221
" />
<path d="M222.4589 50.9888
L222.3922 51.0221
" />
<path d="M222.3922 51.0221
L222.2589 51.0221
" />
<path d="M222.2589 51.0221
L222.1922 50.9888
" />
<path d="M222.1922 50.9888
L222.1589 50.9555
" />
<path d="M222.1589 50.9555
L222.1255 50.8888
" />
<path d="M222.1255 50.8888
L222.1255 50.6888
" />
<path d="M222.1255 50.6888
L222.1589 50.6221
" />
<path d="M222.1589 50.6221
L222.1922 50.5888
" />
<path d="M222.1922 50.5888
L222.2589 50.5555
" />
<path d="M222.2589 50.5555
L222.3922 50.5555
" />
<path d="M222.3922 50.5555
L222.4589 50.5888
" />
</g><text x="217.0422" y="52.2400"
transform="scale(-1 1) translate(-434.084400 0)"
textLength="16.8767" font-size="0.9333" lengthAdjust="spacingAndGlyphs"
text-anchor="middle" opacity="0">https://github.com/pedalboard</text>
<g class="stroked-text"><desc>https://github.com/pedalboard</desc>
<path d="M208.8255 52.1491
L208.8255 51.4491
" />
<path d="M209.1255 52.1491
L209.1255 51.7825
" />
<path d="M209.1255 51.7825
L209.0922 51.7158
" />
<path d="M209.0922 51.7158
L209.0255 51.6825
" />
<path d="M209.0255 51.6825
L208.9255 51.6825
" />
<path d="M208.9255 51.6825
L208.8589 51.7158
" />
<path d="M208.8589 51.7158
L208.8255 51.7491
" />
<path d="M209.3589 51.6825
L209.6255 51.6825
" />
<path d="M209.4589 51.4491
L209.4589 52.0491
" />
<path d="M209.4589 52.0491
L209.4922 52.1158
" />
<path d="M209.4922 52.1158
L209.5589 52.1491
" />
<path d="M209.5589 52.1491
L209.6255 52.1491
" />
<path d="M209.7589 51.6825
L210.0255 51.6825
" />
<path d="M209.8589 51.4491
L209.8589 52.0491
" />
<path d="M209.8589 52.0491
L209.8922 52.1158
" />
<path d="M209.8922 52.1158
L209.9589 52.1491
" />
<path d="M209.9589 52.1491
L210.0255 52.1491
" />
<path d="M210.2589 51.6825
L210.2589 52.3825
" />
<path d="M210.2589 51.7158
L210.3255 51.6825
" />
<path d="M210.3255 51.6825
L210.4589 51.6825
" />
<path d="M210.4589 51.6825
L210.5255 51.7158
" />
<path d="M210.5255 51.7158
L210.5589 51.7491
" />
<path d="M210.5589 51.7491
L210.5922 51.8158
" />
<path d="M210.5922 51.8158
L210.5922 52.0158
" />
<path d="M210.5922 52.0158
L210.5589 52.0825
" />
<path d="M210.5589 52.0825
L210.5255 52.1158
" />
<path d="M210.5255 52.1158
L210.4589 52.1491
" />
<path d="M210.4589 52.1491
L210.3255 52.1491
" />
<path d="M210.3255 52.1491
L210.2589 52.1158
" />
<path d="M210.8589 52.1158
L210.9255 52.1491
" />
<path d="M210.9255 52.1491
L211.0589 52.1491
" />
<path d="M211.0589 52.1491
L211.1255 52.1158
" />
<path d="M211.1255 52.1158
L211.1589 52.0491
" />
<path d="M211.1589 52.0491
L211.1589 52.0158
" />
<path d="M211.1589 52.0158
L211.1255 51.9491
" />
<path d="M211.1255 51.9491
L211.0589 51.9158
" />
<path d="M211.0589 51.9158
L210.9589 51.9158
" />
<path d="M210.9589 51.9158
L210.8922 51.8825
" />
<path d="M210.8922 51.8825
L210.8589 51.8158
" />
<path d="M210.8589 51.8158
L210.8589 51.7825
" />
<path d="M210.8589 51.7825
L210.8922 51.7158
" />
<path d="M210.8922 51.7158
L210.9589 51.6825
" />
<path d="M210.9589 51.6825
L211.0589 51.6825
" />
<path d="M211.0589 51.6825
L211.1255 51.7158
" />
<path d="M211.4589 52.0825
L211.4922 52.1158
" />
<path d="M211.4922 52.1158
L211.4589 52.1491
" />
<path d="M211.4589 52.1491
L211.4255 52.1158
" />
<path d="M211.4255 52.1158
L211.4589 52.0825
" />
<path d="M211.4589 52.0825
L211.4589 52.1491
" />
<path d="M211.4589 51.7158
L211.4922 51.7491
" />
<path d="M211.4922 51.7491
L211.4589 51.7825
" />
<path d="M211.4589 51.7825
L211.4255 51.7491
" />
<path d="M211.4255 51.7491
L211.4589 51.7158
" />
<path d="M211.4589 51.7158
L211.4589 51.7825
" />
<path d="M212.2922 51.4158
L211.6922 52.3158
" />
<path d="M213.0255 51.4158
L212.4255 52.3158
" />
<path d="M213.5589 51.6825
L213.5589 52.2491
" />
<path d="M213.5589 52.2491
L213.5255 52.3158
" />
<path d="M213.5255 52.3158
L213.4922 52.3491
" />
<path d="M213.4922 52.3491
L213.4255 52.3825
" />
<path d="M213.4255 52.3825
L213.3255 52.3825
" />
<path d="M213.3255 52.3825
L213.2589 52.3491
" />
<path d="M213.5589 52.1158
L213.4922 52.1491
" />
<path d="M213.4922 52.1491
L213.3589 52.1491
" />
<path d="M213.3589 52.1491
L213.2922 52.1158
" />
<path d="M213.2922 52.1158
L213.2589 52.0825
" />
<path d="M213.2589 52.0825
L213.2255 52.0158
" />
<path d="M213.2255 52.0158
L213.2255 51.8158
" />
<path d="M213.2255 51.8158
L213.2589 51.7491
" />
<path d="M213.2589 51.7491
L213.2922 51.7158
" />
<path d="M213.2922 51.7158
L213.3589 51.6825
" />
<path d="M213.3589 51.6825
L213.4922 51.6825
" />
<path d="M213.4922 51.6825
L213.5589 51.7158
" />
<path d="M213.8922 52.1491
L213.8922 51.6825
" />
<path d="M213.8922 51.4491
L213.8589 51.4825
" />
<path d="M213.8589 51.4825
L213.8922 51.5158
" />
<path d="M213.8922 51.5158
L213.9255 51.4825
" />
<path d="M213.9255 51.4825
L213.8922 51.4491
" />
<path d="M213.8922 51.4491
L213.8922 51.5158
" />
<path d="M214.1255 51.6825
L214.3922 51.6825
" />
<path d="M214.2255 51.4491
L214.2255 52.0491
" />
<path d="M214.2255 52.0491
L214.2589 52.1158
" />
<path d="M214.2589 52.1158
L214.3255 52.1491
" />
<path d="M214.3255 52.1491
L214.3922 52.1491
" />
<path d="M214.6255 52.1491
L214.6255 51.4491
" />
<path d="M214.9255 52.1491
L214.9255 51.7825
" />
<path d="M214.9255 51.7825
L214.8922 51.7158
" />
<path d="M214.8922 51.7158
L214.8255 51.6825
" />
<path d="M214.8255 51.6825
L214.7255 51.6825
" />
<path d="M214.7255 51.6825
L214.6589 51.7158
" />
<path d="M214.6589 51.7158
L214.6255 51.7491
" />
<path d="M215.5589 51.6825
L215.5589 52.1491
" />
<path d="M215.2589 51.6825
L215.2589 52.0491
" />
<path d="M215.2589 52.0491
L215.2922 52.1158
" />
<path d="M215.2922 52.1158
L215.3589 52.1491
" />
<path d="M215.3589 52.1491
L215.4589 52.1491
" />
<path d="M215.4589 52.1491
L215.5255 52.1158
" />
<path d="M215.5255 52.1158
L215.5589 52.0825
" />
<path d="M215.8922 52.1491
L215.8922 51.4491
" />
<path d="M215.8922 51.7158
L215.9589 51.6825
" />
<path d="M215.9589 51.6825
L216.0922 51.6825
" />
<path d="M216.0922 51.6825
L216.1589 51.7158
" />
<path d="M216.1589 51.7158
L216.1922 51.7491
" />
<path d="M216.1922 51.7491
L216.2255 51.8158
" />
<path d="M216.2255 51.8158
L216.2255 52.0158
" />
<path d="M216.2255 52.0158
L216.1922 52.0825
" />
<path d="M216.1922 52.0825
L216.1589 52.1158
" />
<path d="M216.1589 52.1158
L216.0922 52.1491
" />
<path d="M216.0922 52.1491
L215.9589 52.1491
" />
<path d="M215.9589 52.1491
L215.8922 52.1158
" />
<path d="M216.5255 52.0825
L216.5589 52.1158
" />
<path d="M216.5589 52.1158
L216.5255 52.1491
" />
<path d="M216.5255 52.1491
L216.4922 52.1158
" />
<path d="M216.4922 52.1158
L216.5255 52.0825
" />
<path d="M216.5255 52.0825
L216.5255 52.1491
" />
<path d="M217.1589 52.1158
L217.0922 52.1491
" />
<path d="M217.0922 52.1491
L216.9589 52.1491
" />
<path d="M216.9589 52.1491
L216.8922 52.1158
" />
<path d="M216.8922 52.1158
L216.8589 52.0825
" />
<path d="M216.8589 52.0825
L216.8255 52.0158
" />
<path d="M216.8255 52.0158
L216.8255 51.8158
" />
<path d="M216.8255 51.8158
L216.8589 51.7491
" />
<path d="M216.8589 51.7491
L216.8922 51.7158
" />
<path d="M216.8922 51.7158
L216.9589 51.6825
" />
<path d="M216.9589 51.6825
L217.0922 51.6825
" />
<path d="M217.0922 51.6825
L217.1589 51.7158
" />
<path d="M217.5589 52.1491
L217.4922 52.1158
" />
<path d="M217.4922 52.1158
L217.4589 52.0825
" />
<path d="M217.4589 52.0825
L217.4255 52.0158
" />
<path d="M217.4255 52.0158
L217.4255 51.8158
" />
<path d="M217.4255 51.8158
L217.4589 51.7491
" />
<path d="M217.4589 51.7491
L217.4922 51.7158
" />
<path d="M217.4922 51.7158
L217.5589 51.6825
" />
<path d="M217.5589 51.6825
L217.6589 51.6825
" />
<path d="M217.6589 51.6825
L217.7255 51.7158
" />
<path d="M217.7255 51.7158
L217.7589 51.7491
" />
<path d="M217.7589 51.7491
L217.7922 51.8158
" />
<path d="M217.7922 51.8158
L217.7922 52.0158
" />
<path d="M217.7922 52.0158
L217.7589 52.0825
" />
<path d="M217.7589 52.0825
L217.7255 52.1158
" />
<path d="M217.7255 52.1158
L217.6589 52.1491
" />
<path d="M217.6589 52.1491
L217.5589 52.1491
" />
<path d="M218.0922 52.1491
L218.0922 51.6825
" />
<path d="M218.0922 51.7491
L218.1255 51.7158
" />
<path d="M218.1255 51.7158
L218.1922 51.6825
" />
<path d="M218.1922 51.6825
L218.2922 51.6825
" />
<path d="M218.2922 51.6825
L218.3589 51.7158
" />
<path d="M218.3589 51.7158
L218.3922 51.7825
" />
<path d="M218.3922 51.7825
L218.3922 52.1491
" />
<path d="M218.3922 51.7825
L218.4255 51.7158
" />
<path d="M218.4255 51.7158
L218.4922 51.6825
" />
<path d="M218.4922 51.6825
L218.5922 51.6825
" />
<path d="M218.5922 51.6825
L218.6589 51.7158
" />
<path d="M218.6589 51.7158
L218.6922 51.7825
" />
<path d="M218.6922 51.7825
L218.6922 52.1491
" />
<path d="M219.5255 51.4158
L218.9255 52.3158
" />
<path d="M219.7589 51.6825
L219.7589 52.3825
" />
<path d="M219.7589 51.7158
L219.8255 51.6825
" />
<path d="M219.8255 51.6825
L219.9589 51.6825
" />
<path d="M219.9589 51.6825
L220.0255 51.7158
" />
<path d="M220.0255 51.7158
L220.0589 51.7491
" />
<path d="M220.0589 51.7491
L220.0922 51.8158
" />
<path d="M220.0922 51.8158
L220.0922 52.0158
" />
<path d="M220.0922 52.0158
L220.0589 52.0825
" />
<path d="M220.0589 52.0825
L220.0255 52.1158
" />
<path d="M220.0255 52.1158
L219.9589 52.1491
" />
<path d="M219.9589 52.1491
L219.8255 52.1491
" />
<path d="M219.8255 52.1491
L219.7589 52.1158
" />
<path d="M220.6589 52.1158
L220.5922 52.1491
" />
<path d="M220.5922 52.1491
L220.4589 52.1491
" />
<path d="M220.4589 52.1491
L220.3922 52.1158
" />
<path d="M220.3922 52.1158
L220.3589 52.0491
" />
<path d="M220.3589 52.0491
L220.3589 51.7825
" />
<path d="M220.3589 51.7825
L220.3922 51.7158
" />
<path d="M220.3922 51.7158
L220.4589 51.6825
" />
<path d="M220.4589 51.6825
L220.5922 51.6825
" />
<path d="M220.5922 51.6825
L220.6589 51.7158
" />
<path d="M220.6589 51.7158
L220.6922 51.7825
" />
<path d="M220.6922 51.7825
L220.6922 51.8491
" />
<path d="M220.6922 51.8491
L220.3589 51.9158
" />
<path d="M221.2922 52.1491
L221.2922 51.4491
" />
<path d="M221.2922 52.1158
L221.2255 52.1491
" />
<path d="M221.2255 52.1491
L221.0922 52.1491
" />
<path d="M221.0922 52.1491
L221.0255 52.1158
" />
<path d="M221.0255 52.1158
L220.9922 52.0825
" />
<path d="M220.9922 52.0825
L220.9589 52.0158
" />
<path d="M220.9589 52.0158
L220.9589 51.8158
" />
<path d="M220.9589 51.8158
L220.9922 51.7491
" />
<path d="M220.9922 51.7491
L221.0255 51.7158
" />
<path d="M221.0255 51.7158
L221.0922 51.6825
" />
<path d="M221.0922 51.6825
L221.2255 51.6825
" />
<path d="M221.2255 51.6825
L221.2922 51.7158
" />
<path d="M221.9255 52.1491
L221.9255 51.7825
" />
<path d="M221.9255 51.7825
L221.8922 51.7158
" />
<path d="M221.8922 51.7158
L221.8255 51.6825
" />
<path d="M221.8255 51.6825
L221.6922 51.6825
" />
<path d="M221.6922 51.6825
L221.6255 51.7158
" />
<path d="M221.9255 52.1158
L221.8589 52.1491
" />
<path d="M221.8589 52.1491
L221.6922 52.1491
" />
<path d="M221.6922 52.1491
L221.6255 52.1158
" />
<path d="M221.6255 52.1158
L221.5922 52.0491
" />
<path d="M221.5922 52.0491
L221.5922 51.9825
" />
<path d="M221.5922 51.9825
L221.6255 51.9158
" />
<path d="M221.6255 51.9158
L221.6922 51.8825
" />
<path d="M221.6922 51.8825
L221.8589 51.8825
" />
<path d="M221.8589 51.8825
L221.9255 51.8491
" />
<path d="M222.3589 52.1491
L222.2922 52.1158
" />
<path d="M222.2922 52.1158
L222.2589 52.0491
" />
<path d="M222.2589 52.0491
L222.2589 51.4491
" />
<path d="M222.6255 52.1491
L222.6255 51.4491
" />
<path d="M222.6255 51.7158
L222.6922 51.6825
" />
<path d="M222.6922 51.6825
L222.8255 51.6825
" />
<path d="M222.8255 51.6825
L222.8922 51.7158
" />
<path d="M222.8922 51.7158
L222.9255 51.7491
" />
<path d="M222.9255 51.7491
L222.9589 51.8158
" />
<path d="M222.9589 51.8158
L222.9589 52.0158
" />
<path d="M222.9589 52.0158
L222.9255 52.0825
" />
<path d="M222.9255 52.0825
L222.8922 52.1158
" />
<path d="M222.8922 52.1158
L222.8255 52.1491
" />
<path d="M222.8255 52.1491
L222.6922 52.1491
" />
<path d="M222.6922 52.1491
L222.6255 52.1158
" />
<path d="M223.3589 52.1491
L223.2922 52.1158
" />
<path d="M223.2922 52.1158
L223.2589 52.0825
" />
<path d="M223.2589 52.0825
L223.2255 52.0158
" />
<path d="M223.2255 52.0158
L223.2255 51.8158
" />
<path d="M223.2255 51.8158
L223.2589 51.7491
" />
<path d="M223.2589 51.7491
L223.2922 51.7158
" />
<path d="M223.2922 51.7158
L223.3589 51.6825
" />
<path d="M223.3589 51.6825
L223.4589 51.6825
" />
<path d="M223.4589 51.6825
L223.5255 51.7158
" />
<path d="M223.5255 51.7158
L223.5589 51.7491
" />
<path d="M223.5589 51.7491
L223.5922 51.8158
" />
<path d="M223.5922 51.8158
L223.5922 52.0158
" />
<path d="M223.5922 52.0158
L223.5589 52.0825
" />
<path d="M223.5589 52.0825
L223.5255 52.1158
" />
<path d="M223.5255 52.1158
L223.4589 52.1491
" />
<path d="M223.4589 52.1491
L223.3589 52.1491
" />
<path d="M224.1922 52.1491
L224.1922 51.7825
" />
<path d="M224.1922 51.7825
L224.1589 51.7158
" />
<path d="M224.1589 51.7158
L224.0922 51.6825
" />
<path d="M224.0922 51.6825
L223.9589 51.6825
" />
<path d="M223.9589 51.6825
L223.8922 51.7158
" />
<path d="M224.1922 52.1158
L224.1255 52.1491
" />
<path d="M224.1255 52.1491
L223.9589 52.1491
" />
<path d="M223.9589 52.1491
L223.8922 52.1158
" />
<path d="M223.8922 52.1158
L223.8589 52.0491
" />
<path d="M223.8589 52.0491
L223.8589 51.9825
" />
<path d="M223.8589 51.9825
L223.8922 51.9158
" />
<path d="M223.8922 51.9158
L223.9589 51.8825
" />
<path d="M223.9589 51.8825
L224.1255 51.8825
" />
<path d="M224.1255 51.8825
L224.1922 51.8491
" />
<path d="M224.5255 52.1491
L224.5255 51.6825
" />
<path d="M224.5255 51.8158
L224.5589 51.7491
" />
<path d="M224.5589 51.7491
L224.5922 51.7158
" />
<path d="M224.5922 51.7158
L224.6589 51.6825
" />
<path d="M224.6589 51.6825
L224.7255 51.6825
" />
<path d="M225.2589 52.1491
L225.2589 51.4491
" />
<path d="M225.2589 52.1158
L225.1922 52.1491
" />
<path d="M225.1922 52.1491
L225.0589 52.1491
" />
<path d="M225.0589 52.1491
L224.9922 52.1158
" />
<path d="M224.9922 52.1158
L224.9589 52.0825
" />
<path d="M224.9589 52.0825
L224.9255 52.0158
" />
<path d="M224.9255 52.0158
L224.9255 51.8158
" />
<path d="M224.9255 51.8158
L224.9589 51.7491
" />
<path d="M224.9589 51.7491
L224.9922 51.7158
" />
<path d="M224.9922 51.7158
L225.0589 51.6825
" />
<path d="M225.0589 51.6825
L225.1922 51.6825
" />
<path d="M225.1922 51.6825
L225.2589 51.7158
" />
</g></g>
<g style="fill:#000000; fill-opacity:0.0; 
stroke:#000000; stroke-width:0.1200; stroke-opacity:1; 
stroke-linecap:round; stroke-linejoin:round;">
<path d="M209.5622 62.0600
L209.5622 57.9400
" />
<path d="M209.2622 62.0600
L209.5622 62.0600
" />
<path d="M207.2622 62.0600
L207.7422 62.0600
" />
<path d="M205.4422 62.0600
L205.7422 62.0600
" />
<path d="M205.4422 62.0600
L205.4422 57.9400
" />
<path d="M209.2622 57.9400
L209.5622 57.9400
" />
<path d="M207.2622 57.9400
L207.7422 57.9400
" />
<path d="M205.7422 57.9400
L205.7422 55.5600
" />
<path d="M205.4422 57.9400
L205.7422 57.9400
" />
<path d="M212.0622 67.4400
L207.9422 67.4400
" />
<path d="M212.0622 67.7400
L212.0622 67.4400
" />
<path d="M212.0622 69.7400
L212.0622 69.2600
" />
<path d="M212.0622 71.5600
L212.0622 71.2600
" />
<path d="M212.0622 71.5600
L207.9422 71.5600
" />
<path d="M207.9422 67.7400
L207.9422 67.4400
" />
<path d="M207.9422 69.7400
L207.9422 69.2600
" />
<path d="M207.9422 71.2600
L205.5622 71.2600
" />
<path d="M207.9422 71.5600
L207.9422 71.2600
" />
<g >
</g>
<g >
</g>
<g >
</g>
<g >
</g>
<g >
</g>
<g >
</g>
<g >
</g>
<g >
</g>
<g >
</g>
<g >
</g>
<g >
</g>
<g >
</g>
<g >
</g>
<g >
</g>
<g >
</g>
<g >
</g>
<g >
</g>
<g >
</g>
<g >
</g>
<g >
</g>
<g >
</g>
<g >
</g>
<g >
</g>
<g >
</g>
<g >
</g>
<g >
</g>
<g >
</g>
<g >
</g>
<g >
</g>
<g >
</g>
<g >
</g>
<g >
</g>
<g >
</g>
<g >
</g>
</g> 
</svg>
