<?xml version="1.0" standalone="no"?>
 <!DOCTYPE svg PUBLIC "-//W3C//DTD SVG 1.1//EN" 
 "http://www.w3.org/Graphics/SVG/1.1/DTD/svg11.dtd"> 
<svg
  xmlns:svg="http://www.w3.org/2000/svg"
  xmlns="http://www.w3.org/2000/svg"
  xmlns:xlink="http://www.w3.org/1999/xlink"
  version="1.1"
  width="297.0022mm" height="210.0072mm" viewBox="0.0000 0.0000 297.0022 210.0072">
<title>SVG Image created as pedalboard-led-ring-B_Silkscreen.svg date 2023/06/02 14:36:14 </title>
  <desc>Image generated by PCBNEW </desc>
<g style="fill:#000000; fill-opacity:1.0000;stroke:#000000; stroke-opacity:1.0000;
stroke-linecap:round; stroke-linejoin:round;"
 transform="translate(0 0) scale(1 1)">
</g>
<g style="fill:#000000; fill-opacity:0.0; 
stroke:#000000; stroke-width:0.0000; stroke-opacity:1; 
stroke-linecap:round; stroke-linejoin:round;">
</g>
<g style="fill:#000000; fill-opacity:0.0; 
stroke:#000000; stroke-width:0.1000; stroke-opacity:1; 
stroke-linecap:round; stroke-linejoin:round;">
<circle cx="217.0022" cy="60.0000" r="7.0500" /> 
</g>
<g style="fill:#000000; fill-opacity:0.0; 
stroke:#000000; stroke-width:0.1250; stroke-opacity:1; 
stroke-linecap:round; stroke-linejoin:round;">
<text x="217.0022" y="73.4000"
transform="scale(-1 1) translate(-434.004400 0)"
textLength="4.2363" font-size="0.6667" lengthAdjust="spacingAndGlyphs"
text-anchor="middle" opacity="0">PCB: 1.0.0</text>
<g class="stroked-text"><desc>PCB: 1.0.0</desc>
<path d="M215.1093 73.3323
L215.1093 72.8323
" />
<path d="M215.1093 72.8323
L215.2998 72.8323
" />
<path d="M215.2998 72.8323
L215.3474 72.8561
" />
<path d="M215.3474 72.8561
L215.3713 72.8799
" />
<path d="M215.3713 72.8799
L215.3951 72.9275
" />
<path d="M215.3951 72.9275
L215.3951 72.9990
" />
<path d="M215.3951 72.9990
L215.3713 73.0466
" />
<path d="M215.3713 73.0466
L215.3474 73.0704
" />
<path d="M215.3474 73.0704
L215.2998 73.0942
" />
<path d="M215.2998 73.0942
L215.1093 73.0942
" />
<path d="M215.8951 73.2847
L215.8713 73.3085
" />
<path d="M215.8713 73.3085
L215.7998 73.3323
" />
<path d="M215.7998 73.3323
L215.7522 73.3323
" />
<path d="M215.7522 73.3323
L215.6808 73.3085
" />
<path d="M215.6808 73.3085
L215.6332 73.2609
" />
<path d="M215.6332 73.2609
L215.6093 73.2133
" />
<path d="M215.6093 73.2133
L215.5855 73.1180
" />
<path d="M215.5855 73.1180
L215.5855 73.0466
" />
<path d="M215.5855 73.0466
L215.6093 72.9514
" />
<path d="M215.6093 72.9514
L215.6332 72.9037
" />
<path d="M215.6332 72.9037
L215.6808 72.8561
" />
<path d="M215.6808 72.8561
L215.7522 72.8323
" />
<path d="M215.7522 72.8323
L215.7998 72.8323
" />
<path d="M215.7998 72.8323
L215.8713 72.8561
" />
<path d="M215.8713 72.8561
L215.8951 72.8799
" />
<path d="M216.2760 73.0704
L216.3474 73.0942
" />
<path d="M216.3474 73.0942
L216.3713 73.1180
" />
<path d="M216.3713 73.1180
L216.3951 73.1656
" />
<path d="M216.3951 73.1656
L216.3951 73.2371
" />
<path d="M216.3951 73.2371
L216.3713 73.2847
" />
<path d="M216.3713 73.2847
L216.3474 73.3085
" />
<path d="M216.3474 73.3085
L216.2998 73.3323
" />
<path d="M216.2998 73.3323
L216.1093 73.3323
" />
<path d="M216.1093 73.3323
L216.1093 72.8323
" />
<path d="M216.1093 72.8323
L216.2760 72.8323
" />
<path d="M216.2760 72.8323
L216.3236 72.8561
" />
<path d="M216.3236 72.8561
L216.3474 72.8799
" />
<path d="M216.3474 72.8799
L216.3713 72.9275
" />
<path d="M216.3713 72.9275
L216.3713 72.9752
" />
<path d="M216.3713 72.9752
L216.3474 73.0228
" />
<path d="M216.3474 73.0228
L216.3236 73.0466
" />
<path d="M216.3236 73.0466
L216.2760 73.0704
" />
<path d="M216.2760 73.0704
L216.1093 73.0704
" />
<path d="M216.6093 73.2847
L216.6332 73.3085
" />
<path d="M216.6332 73.3085
L216.6093 73.3323
" />
<path d="M216.6093 73.3323
L216.5855 73.3085
" />
<path d="M216.5855 73.3085
L216.6093 73.2847
" />
<path d="M216.6093 73.2847
L216.6093 73.3323
" />
<path d="M216.6093 73.0228
L216.6332 73.0466
" />
<path d="M216.6332 73.0466
L216.6093 73.0704
" />
<path d="M216.6093 73.0704
L216.5855 73.0466
" />
<path d="M216.5855 73.0466
L216.6093 73.0228
" />
<path d="M216.6093 73.0228
L216.6093 73.0704
" />
<path d="M217.4903 73.3323
L217.2046 73.3323
" />
<path d="M217.3474 73.3323
L217.3474 72.8323
" />
<path d="M217.3474 72.8323
L217.2998 72.9037
" />
<path d="M217.2998 72.9037
L217.2522 72.9514
" />
<path d="M217.2522 72.9514
L217.2046 72.9752
" />
<path d="M217.7046 73.2847
L217.7284 73.3085
" />
<path d="M217.7284 73.3085
L217.7046 73.3323
" />
<path d="M217.7046 73.3323
L217.6808 73.3085
" />
<path d="M217.6808 73.3085
L217.7046 73.2847
" />
<path d="M217.7046 73.2847
L217.7046 73.3323
" />
<path d="M218.0379 72.8323
L218.0855 72.8323
" />
<path d="M218.0855 72.8323
L218.1332 72.8561
" />
<path d="M218.1332 72.8561
L218.1570 72.8799
" />
<path d="M218.1570 72.8799
L218.1808 72.9275
" />
<path d="M218.1808 72.9275
L218.2046 73.0228
" />
<path d="M218.2046 73.0228
L218.2046 73.1418
" />
<path d="M218.2046 73.1418
L218.1808 73.2371
" />
<path d="M218.1808 73.2371
L218.1570 73.2847
" />
<path d="M218.1570 73.2847
L218.1332 73.3085
" />
<path d="M218.1332 73.3085
L218.0855 73.3323
" />
<path d="M218.0855 73.3323
L218.0379 73.3323
" />
<path d="M218.0379 73.3323
L217.9903 73.3085
" />
<path d="M217.9903 73.3085
L217.9665 73.2847
" />
<path d="M217.9665 73.2847
L217.9427 73.2371
" />
<path d="M217.9427 73.2371
L217.9189 73.1418
" />
<path d="M217.9189 73.1418
L217.9189 73.0228
" />
<path d="M217.9189 73.0228
L217.9427 72.9275
" />
<path d="M217.9427 72.9275
L217.9665 72.8799
" />
<path d="M217.9665 72.8799
L217.9903 72.8561
" />
<path d="M217.9903 72.8561
L218.0379 72.8323
" />
<path d="M218.4189 73.2847
L218.4427 73.3085
" />
<path d="M218.4427 73.3085
L218.4189 73.3323
" />
<path d="M218.4189 73.3323
L218.3951 73.3085
" />
<path d="M218.3951 73.3085
L218.4189 73.2847
" />
<path d="M218.4189 73.2847
L218.4189 73.3323
" />
<path d="M218.7522 72.8323
L218.7998 72.8323
" />
<path d="M218.7998 72.8323
L218.8474 72.8561
" />
<path d="M218.8474 72.8561
L218.8712 72.8799
" />
<path d="M218.8712 72.8799
L218.8951 72.9275
" />
<path d="M218.8951 72.9275
L218.9189 73.0228
" />
<path d="M218.9189 73.0228
L218.9189 73.1418
" />
<path d="M218.9189 73.1418
L218.8951 73.2371
" />
<path d="M218.8951 73.2371
L218.8712 73.2847
" />
<path d="M218.8712 73.2847
L218.8474 73.3085
" />
<path d="M218.8474 73.3085
L218.7998 73.3323
" />
<path d="M218.7998 73.3323
L218.7522 73.3323
" />
<path d="M218.7522 73.3323
L218.7046 73.3085
" />
<path d="M218.7046 73.3085
L218.6808 73.2847
" />
<path d="M218.6808 73.2847
L218.6570 73.2371
" />
<path d="M218.6570 73.2371
L218.6332 73.1418
" />
<path d="M218.6332 73.1418
L218.6332 73.0228
" />
<path d="M218.6332 73.0228
L218.6570 72.9275
" />
<path d="M218.6570 72.9275
L218.6808 72.8799
" />
<path d="M218.6808 72.8799
L218.7046 72.8561
" />
<path d="M218.7046 72.8561
L218.7522 72.8323
" />
</g></g>
<g style="fill:#000000; fill-opacity:0.0; 
stroke:#000000; stroke-width:0.1500; stroke-opacity:1; 
stroke-linecap:round; stroke-linejoin:round;">
<text x="217.2022" y="47.1925"
transform="scale(-1 1) translate(-434.404400 0)"
textLength="12.1893" font-size="1.0000" lengthAdjust="spacingAndGlyphs"
text-anchor="middle" opacity="0">Pedalboard LED Ring</text>
<g class="stroked-text"><desc>Pedalboard LED Ring</desc>
<path d="M211.3986 47.0929
L211.3986 46.3429
" />
<path d="M211.3986 46.3429
L211.6843 46.3429
" />
<path d="M211.6843 46.3429
L211.7558 46.3786
" />
<path d="M211.7558 46.3786
L211.7915 46.4143
" />
<path d="M211.7915 46.4143
L211.8272 46.4858
" />
<path d="M211.8272 46.4858
L211.8272 46.5929
" />
<path d="M211.8272 46.5929
L211.7915 46.6643
" />
<path d="M211.7915 46.6643
L211.7558 46.7001
" />
<path d="M211.7558 46.7001
L211.6843 46.7358
" />
<path d="M211.6843 46.7358
L211.3986 46.7358
" />
<path d="M212.4343 47.0572
L212.3629 47.0929
" />
<path d="M212.3629 47.0929
L212.2201 47.0929
" />
<path d="M212.2201 47.0929
L212.1486 47.0572
" />
<path d="M212.1486 47.0572
L212.1129 46.9858
" />
<path d="M212.1129 46.9858
L212.1129 46.7001
" />
<path d="M212.1129 46.7001
L212.1486 46.6286
" />
<path d="M212.1486 46.6286
L212.2201 46.5929
" />
<path d="M212.2201 46.5929
L212.3629 46.5929
" />
<path d="M212.3629 46.5929
L212.4343 46.6286
" />
<path d="M212.4343 46.6286
L212.4701 46.7001
" />
<path d="M212.4701 46.7001
L212.4701 46.7715
" />
<path d="M212.4701 46.7715
L212.1129 46.8429
" />
<path d="M213.1129 47.0929
L213.1129 46.3429
" />
<path d="M213.1129 47.0572
L213.0415 47.0929
" />
<path d="M213.0415 47.0929
L212.8986 47.0929
" />
<path d="M212.8986 47.0929
L212.8272 47.0572
" />
<path d="M212.8272 47.0572
L212.7915 47.0215
" />
<path d="M212.7915 47.0215
L212.7558 46.9501
" />
<path d="M212.7558 46.9501
L212.7558 46.7358
" />
<path d="M212.7558 46.7358
L212.7915 46.6643
" />
<path d="M212.7915 46.6643
L212.8272 46.6286
" />
<path d="M212.8272 46.6286
L212.8986 46.5929
" />
<path d="M212.8986 46.5929
L213.0415 46.5929
" />
<path d="M213.0415 46.5929
L213.1129 46.6286
" />
<path d="M213.7915 47.0929
L213.7915 46.7001
" />
<path d="M213.7915 46.7001
L213.7558 46.6286
" />
<path d="M213.7558 46.6286
L213.6843 46.5929
" />
<path d="M213.6843 46.5929
L213.5415 46.5929
" />
<path d="M213.5415 46.5929
L213.4701 46.6286
" />
<path d="M213.7915 47.0572
L213.7201 47.0929
" />
<path d="M213.7201 47.0929
L213.5415 47.0929
" />
<path d="M213.5415 47.0929
L213.4701 47.0572
" />
<path d="M213.4701 47.0572
L213.4343 46.9858
" />
<path d="M213.4343 46.9858
L213.4343 46.9143
" />
<path d="M213.4343 46.9143
L213.4701 46.8429
" />
<path d="M213.4701 46.8429
L213.5415 46.8072
" />
<path d="M213.5415 46.8072
L213.7201 46.8072
" />
<path d="M213.7201 46.8072
L213.7915 46.7715
" />
<path d="M214.2558 47.0929
L214.1843 47.0572
" />
<path d="M214.1843 47.0572
L214.1486 46.9858
" />
<path d="M214.1486 46.9858
L214.1486 46.3429
" />
<path d="M214.5415 47.0929
L214.5415 46.3429
" />
<path d="M214.5415 46.6286
L214.6129 46.5929
" />
<path d="M214.6129 46.5929
L214.7558 46.5929
" />
<path d="M214.7558 46.5929
L214.8272 46.6286
" />
<path d="M214.8272 46.6286
L214.8629 46.6643
" />
<path d="M214.8629 46.6643
L214.8986 46.7358
" />
<path d="M214.8986 46.7358
L214.8986 46.9501
" />
<path d="M214.8986 46.9501
L214.8629 47.0215
" />
<path d="M214.8629 47.0215
L214.8272 47.0572
" />
<path d="M214.8272 47.0572
L214.7558 47.0929
" />
<path d="M214.7558 47.0929
L214.6129 47.0929
" />
<path d="M214.6129 47.0929
L214.5415 47.0572
" />
<path d="M215.3272 47.0929
L215.2558 47.0572
" />
<path d="M215.2558 47.0572
L215.2201 47.0215
" />
<path d="M215.2201 47.0215
L215.1843 46.9501
" />
<path d="M215.1843 46.9501
L215.1843 46.7358
" />
<path d="M215.1843 46.7358
L215.2201 46.6643
" />
<path d="M215.2201 46.6643
L215.2558 46.6286
" />
<path d="M215.2558 46.6286
L215.3272 46.5929
" />
<path d="M215.3272 46.5929
L215.4343 46.5929
" />
<path d="M215.4343 46.5929
L215.5058 46.6286
" />
<path d="M215.5058 46.6286
L215.5415 46.6643
" />
<path d="M215.5415 46.6643
L215.5772 46.7358
" />
<path d="M215.5772 46.7358
L215.5772 46.9501
" />
<path d="M215.5772 46.9501
L215.5415 47.0215
" />
<path d="M215.5415 47.0215
L215.5058 47.0572
" />
<path d="M215.5058 47.0572
L215.4343 47.0929
" />
<path d="M215.4343 47.0929
L215.3272 47.0929
" />
<path d="M216.2201 47.0929
L216.2201 46.7001
" />
<path d="M216.2201 46.7001
L216.1843 46.6286
" />
<path d="M216.1843 46.6286
L216.1129 46.5929
" />
<path d="M216.1129 46.5929
L215.9701 46.5929
" />
<path d="M215.9701 46.5929
L215.8986 46.6286
" />
<path d="M216.2201 47.0572
L216.1486 47.0929
" />
<path d="M216.1486 47.0929
L215.9701 47.0929
" />
<path d="M215.9701 47.0929
L215.8986 47.0572
" />
<path d="M215.8986 47.0572
L215.8629 46.9858
" />
<path d="M215.8629 46.9858
L215.8629 46.9143
" />
<path d="M215.8629 46.9143
L215.8986 46.8429
" />
<path d="M215.8986 46.8429
L215.9701 46.8072
" />
<path d="M215.9701 46.8072
L216.1486 46.8072
" />
<path d="M216.1486 46.8072
L216.2201 46.7715
" />
<path d="M216.5772 47.0929
L216.5772 46.5929
" />
<path d="M216.5772 46.7358
L216.6129 46.6643
" />
<path d="M216.6129 46.6643
L216.6486 46.6286
" />
<path d="M216.6486 46.6286
L216.7201 46.5929
" />
<path d="M216.7201 46.5929
L216.7915 46.5929
" />
<path d="M217.3629 47.0929
L217.3629 46.3429
" />
<path d="M217.3629 47.0572
L217.2915 47.0929
" />
<path d="M217.2915 47.0929
L217.1486 47.0929
" />
<path d="M217.1486 47.0929
L217.0772 47.0572
" />
<path d="M217.0772 47.0572
L217.0415 47.0215
" />
<path d="M217.0415 47.0215
L217.0058 46.9501
" />
<path d="M217.0058 46.9501
L217.0058 46.7358
" />
<path d="M217.0058 46.7358
L217.0415 46.6643
" />
<path d="M217.0415 46.6643
L217.0772 46.6286
" />
<path d="M217.0772 46.6286
L217.1486 46.5929
" />
<path d="M217.1486 46.5929
L217.2915 46.5929
" />
<path d="M217.2915 46.5929
L217.3629 46.6286
" />
<path d="M218.6486 47.0929
L218.2915 47.0929
" />
<path d="M218.2915 47.0929
L218.2915 46.3429
" />
<path d="M218.8986 46.7001
L219.1486 46.7001
" />
<path d="M219.2558 47.0929
L218.8986 47.0929
" />
<path d="M218.8986 47.0929
L218.8986 46.3429
" />
<path d="M218.8986 46.3429
L219.2558 46.3429
" />
<path d="M219.5772 47.0929
L219.5772 46.3429
" />
<path d="M219.5772 46.3429
L219.7558 46.3429
" />
<path d="M219.7558 46.3429
L219.8629 46.3786
" />
<path d="M219.8629 46.3786
L219.9343 46.4501
" />
<path d="M219.9343 46.4501
L219.9701 46.5215
" />
<path d="M219.9701 46.5215
L220.0058 46.6643
" />
<path d="M220.0058 46.6643
L220.0058 46.7715
" />
<path d="M220.0058 46.7715
L219.9701 46.9143
" />
<path d="M219.9701 46.9143
L219.9343 46.9858
" />
<path d="M219.9343 46.9858
L219.8629 47.0572
" />
<path d="M219.8629 47.0572
L219.7558 47.0929
" />
<path d="M219.7558 47.0929
L219.5772 47.0929
" />
<path d="M221.3272 47.0929
L221.0772 46.7358
" />
<path d="M220.8986 47.0929
L220.8986 46.3429
" />
<path d="M220.8986 46.3429
L221.1843 46.3429
" />
<path d="M221.1843 46.3429
L221.2558 46.3786
" />
<path d="M221.2558 46.3786
L221.2915 46.4143
" />
<path d="M221.2915 46.4143
L221.3272 46.4858
" />
<path d="M221.3272 46.4858
L221.3272 46.5929
" />
<path d="M221.3272 46.5929
L221.2915 46.6643
" />
<path d="M221.2915 46.6643
L221.2558 46.7001
" />
<path d="M221.2558 46.7001
L221.1843 46.7358
" />
<path d="M221.1843 46.7358
L220.8986 46.7358
" />
<path d="M221.6486 47.0929
L221.6486 46.5929
" />
<path d="M221.6486 46.3429
L221.6129 46.3786
" />
<path d="M221.6129 46.3786
L221.6486 46.4143
" />
<path d="M221.6486 46.4143
L221.6843 46.3786
" />
<path d="M221.6843 46.3786
L221.6486 46.3429
" />
<path d="M221.6486 46.3429
L221.6486 46.4143
" />
<path d="M222.0058 46.5929
L222.0058 47.0929
" />
<path d="M222.0058 46.6643
L222.0415 46.6286
" />
<path d="M222.0415 46.6286
L222.1129 46.5929
" />
<path d="M222.1129 46.5929
L222.2201 46.5929
" />
<path d="M222.2201 46.5929
L222.2915 46.6286
" />
<path d="M222.2915 46.6286
L222.3272 46.7001
" />
<path d="M222.3272 46.7001
L222.3272 47.0929
" />
<path d="M223.0058 46.5929
L223.0058 47.2001
" />
<path d="M223.0058 47.2001
L222.9701 47.2715
" />
<path d="M222.9701 47.2715
L222.9343 47.3072
" />
<path d="M222.9343 47.3072
L222.8629 47.3429
" />
<path d="M222.8629 47.3429
L222.7558 47.3429
" />
<path d="M222.7558 47.3429
L222.6843 47.3072
" />
<path d="M223.0058 47.0572
L222.9343 47.0929
" />
<path d="M222.9343 47.0929
L222.7915 47.0929
" />
<path d="M222.7915 47.0929
L222.7201 47.0572
" />
<path d="M222.7201 47.0572
L222.6843 47.0215
" />
<path d="M222.6843 47.0215
L222.6486 46.9501
" />
<path d="M222.6486 46.9501
L222.6486 46.7358
" />
<path d="M222.6486 46.7358
L222.6843 46.6643
" />
<path d="M222.6843 46.6643
L222.7201 46.6286
" />
<path d="M222.7201 46.6286
L222.7915 46.5929
" />
<path d="M222.7915 46.5929
L222.9343 46.5929
" />
<path d="M222.9343 46.5929
L223.0058 46.6286
" />
</g><text x="217.2022" y="48.4000"
transform="scale(-1 1) translate(-434.404400 0)"
textLength="18.1893" font-size="1.0000" lengthAdjust="spacingAndGlyphs"
text-anchor="middle" opacity="0">https://github.com/pedalboard</text>
<g class="stroked-text"><desc>https://github.com/pedalboard</desc>
<path d="M208.3986 48.3004
L208.3986 47.5504
" />
<path d="M208.7201 48.3004
L208.7201 47.9076
" />
<path d="M208.7201 47.9076
L208.6843 47.8361
" />
<path d="M208.6843 47.8361
L208.6129 47.8004
" />
<path d="M208.6129 47.8004
L208.5058 47.8004
" />
<path d="M208.5058 47.8004
L208.4343 47.8361
" />
<path d="M208.4343 47.8361
L208.3986 47.8718
" />
<path d="M208.9701 47.8004
L209.2558 47.8004
" />
<path d="M209.0772 47.5504
L209.0772 48.1933
" />
<path d="M209.0772 48.1933
L209.1129 48.2647
" />
<path d="M209.1129 48.2647
L209.1843 48.3004
" />
<path d="M209.1843 48.3004
L209.2558 48.3004
" />
<path d="M209.3986 47.8004
L209.6843 47.8004
" />
<path d="M209.5058 47.5504
L209.5058 48.1933
" />
<path d="M209.5058 48.1933
L209.5415 48.2647
" />
<path d="M209.5415 48.2647
L209.6129 48.3004
" />
<path d="M209.6129 48.3004
L209.6843 48.3004
" />
<path d="M209.9343 47.8004
L209.9343 48.5504
" />
<path d="M209.9343 47.8361
L210.0058 47.8004
" />
<path d="M210.0058 47.8004
L210.1486 47.8004
" />
<path d="M210.1486 47.8004
L210.2201 47.8361
" />
<path d="M210.2201 47.8361
L210.2558 47.8718
" />
<path d="M210.2558 47.8718
L210.2915 47.9433
" />
<path d="M210.2915 47.9433
L210.2915 48.1576
" />
<path d="M210.2915 48.1576
L210.2558 48.2290
" />
<path d="M210.2558 48.2290
L210.2201 48.2647
" />
<path d="M210.2201 48.2647
L210.1486 48.3004
" />
<path d="M210.1486 48.3004
L210.0058 48.3004
" />
<path d="M210.0058 48.3004
L209.9343 48.2647
" />
<path d="M210.5772 48.2647
L210.6486 48.3004
" />
<path d="M210.6486 48.3004
L210.7915 48.3004
" />
<path d="M210.7915 48.3004
L210.8629 48.2647
" />
<path d="M210.8629 48.2647
L210.8986 48.1933
" />
<path d="M210.8986 48.1933
L210.8986 48.1576
" />
<path d="M210.8986 48.1576
L210.8629 48.0861
" />
<path d="M210.8629 48.0861
L210.7915 48.0504
" />
<path d="M210.7915 48.0504
L210.6843 48.0504
" />
<path d="M210.6843 48.0504
L210.6129 48.0147
" />
<path d="M210.6129 48.0147
L210.5772 47.9433
" />
<path d="M210.5772 47.9433
L210.5772 47.9076
" />
<path d="M210.5772 47.9076
L210.6129 47.8361
" />
<path d="M210.6129 47.8361
L210.6843 47.8004
" />
<path d="M210.6843 47.8004
L210.7915 47.8004
" />
<path d="M210.7915 47.8004
L210.8629 47.8361
" />
<path d="M211.2201 48.2290
L211.2558 48.2647
" />
<path d="M211.2558 48.2647
L211.2201 48.3004
" />
<path d="M211.2201 48.3004
L211.1843 48.2647
" />
<path d="M211.1843 48.2647
L211.2201 48.2290
" />
<path d="M211.2201 48.2290
L211.2201 48.3004
" />
<path d="M211.2201 47.8361
L211.2558 47.8718
" />
<path d="M211.2558 47.8718
L211.2201 47.9076
" />
<path d="M211.2201 47.9076
L211.1843 47.8718
" />
<path d="M211.1843 47.8718
L211.2201 47.8361
" />
<path d="M211.2201 47.8361
L211.2201 47.9076
" />
<path d="M212.1129 47.5147
L211.4701 48.4790
" />
<path d="M212.8986 47.5147
L212.2558 48.4790
" />
<path d="M213.4701 47.8004
L213.4701 48.4076
" />
<path d="M213.4701 48.4076
L213.4343 48.4790
" />
<path d="M213.4343 48.4790
L213.3986 48.5147
" />
<path d="M213.3986 48.5147
L213.3272 48.5504
" />
<path d="M213.3272 48.5504
L213.2201 48.5504
" />
<path d="M213.2201 48.5504
L213.1486 48.5147
" />
<path d="M213.4701 48.2647
L213.3986 48.3004
" />
<path d="M213.3986 48.3004
L213.2558 48.3004
" />
<path d="M213.2558 48.3004
L213.1843 48.2647
" />
<path d="M213.1843 48.2647
L213.1486 48.2290
" />
<path d="M213.1486 48.2290
L213.1129 48.1576
" />
<path d="M213.1129 48.1576
L213.1129 47.9433
" />
<path d="M213.1129 47.9433
L213.1486 47.8718
" />
<path d="M213.1486 47.8718
L213.1843 47.8361
" />
<path d="M213.1843 47.8361
L213.2558 47.8004
" />
<path d="M213.2558 47.8004
L213.3986 47.8004
" />
<path d="M213.3986 47.8004
L213.4701 47.8361
" />
<path d="M213.8272 48.3004
L213.8272 47.8004
" />
<path d="M213.8272 47.5504
L213.7915 47.5861
" />
<path d="M213.7915 47.5861
L213.8272 47.6218
" />
<path d="M213.8272 47.6218
L213.8629 47.5861
" />
<path d="M213.8629 47.5861
L213.8272 47.5504
" />
<path d="M213.8272 47.5504
L213.8272 47.6218
" />
<path d="M214.0772 47.8004
L214.3629 47.8004
" />
<path d="M214.1843 47.5504
L214.1843 48.1933
" />
<path d="M214.1843 48.1933
L214.2201 48.2647
" />
<path d="M214.2201 48.2647
L214.2915 48.3004
" />
<path d="M214.2915 48.3004
L214.3629 48.3004
" />
<path d="M214.6129 48.3004
L214.6129 47.5504
" />
<path d="M214.9343 48.3004
L214.9343 47.9076
" />
<path d="M214.9343 47.9076
L214.8986 47.8361
" />
<path d="M214.8986 47.8361
L214.8272 47.8004
" />
<path d="M214.8272 47.8004
L214.7201 47.8004
" />
<path d="M214.7201 47.8004
L214.6486 47.8361
" />
<path d="M214.6486 47.8361
L214.6129 47.8718
" />
<path d="M215.6129 47.8004
L215.6129 48.3004
" />
<path d="M215.2915 47.8004
L215.2915 48.1933
" />
<path d="M215.2915 48.1933
L215.3272 48.2647
" />
<path d="M215.3272 48.2647
L215.3986 48.3004
" />
<path d="M215.3986 48.3004
L215.5058 48.3004
" />
<path d="M215.5058 48.3004
L215.5772 48.2647
" />
<path d="M215.5772 48.2647
L215.6129 48.2290
" />
<path d="M215.9701 48.3004
L215.9701 47.5504
" />
<path d="M215.9701 47.8361
L216.0415 47.8004
" />
<path d="M216.0415 47.8004
L216.1843 47.8004
" />
<path d="M216.1843 47.8004
L216.2558 47.8361
" />
<path d="M216.2558 47.8361
L216.2915 47.8718
" />
<path d="M216.2915 47.8718
L216.3272 47.9433
" />
<path d="M216.3272 47.9433
L216.3272 48.1576
" />
<path d="M216.3272 48.1576
L216.2915 48.2290
" />
<path d="M216.2915 48.2290
L216.2558 48.2647
" />
<path d="M216.2558 48.2647
L216.1843 48.3004
" />
<path d="M216.1843 48.3004
L216.0415 48.3004
" />
<path d="M216.0415 48.3004
L215.9701 48.2647
" />
<path d="M216.6486 48.2290
L216.6843 48.2647
" />
<path d="M216.6843 48.2647
L216.6486 48.3004
" />
<path d="M216.6486 48.3004
L216.6129 48.2647
" />
<path d="M216.6129 48.2647
L216.6486 48.2290
" />
<path d="M216.6486 48.2290
L216.6486 48.3004
" />
<path d="M217.3272 48.2647
L217.2558 48.3004
" />
<path d="M217.2558 48.3004
L217.1129 48.3004
" />
<path d="M217.1129 48.3004
L217.0415 48.2647
" />
<path d="M217.0415 48.2647
L217.0058 48.2290
" />
<path d="M217.0058 48.2290
L216.9701 48.1576
" />
<path d="M216.9701 48.1576
L216.9701 47.9433
" />
<path d="M216.9701 47.9433
L217.0058 47.8718
" />
<path d="M217.0058 47.8718
L217.0415 47.8361
" />
<path d="M217.0415 47.8361
L217.1129 47.8004
" />
<path d="M217.1129 47.8004
L217.2558 47.8004
" />
<path d="M217.2558 47.8004
L217.3272 47.8361
" />
<path d="M217.7558 48.3004
L217.6843 48.2647
" />
<path d="M217.6843 48.2647
L217.6486 48.2290
" />
<path d="M217.6486 48.2290
L217.6129 48.1576
" />
<path d="M217.6129 48.1576
L217.6129 47.9433
" />
<path d="M217.6129 47.9433
L217.6486 47.8718
" />
<path d="M217.6486 47.8718
L217.6843 47.8361
" />
<path d="M217.6843 47.8361
L217.7558 47.8004
" />
<path d="M217.7558 47.8004
L217.8629 47.8004
" />
<path d="M217.8629 47.8004
L217.9343 47.8361
" />
<path d="M217.9343 47.8361
L217.9701 47.8718
" />
<path d="M217.9701 47.8718
L218.0058 47.9433
" />
<path d="M218.0058 47.9433
L218.0058 48.1576
" />
<path d="M218.0058 48.1576
L217.9701 48.2290
" />
<path d="M217.9701 48.2290
L217.9343 48.2647
" />
<path d="M217.9343 48.2647
L217.8629 48.3004
" />
<path d="M217.8629 48.3004
L217.7558 48.3004
" />
<path d="M218.3272 48.3004
L218.3272 47.8004
" />
<path d="M218.3272 47.8718
L218.3629 47.8361
" />
<path d="M218.3629 47.8361
L218.4343 47.8004
" />
<path d="M218.4343 47.8004
L218.5415 47.8004
" />
<path d="M218.5415 47.8004
L218.6129 47.8361
" />
<path d="M218.6129 47.8361
L218.6486 47.9076
" />
<path d="M218.6486 47.9076
L218.6486 48.3004
" />
<path d="M218.6486 47.9076
L218.6843 47.8361
" />
<path d="M218.6843 47.8361
L218.7558 47.8004
" />
<path d="M218.7558 47.8004
L218.8629 47.8004
" />
<path d="M218.8629 47.8004
L218.9343 47.8361
" />
<path d="M218.9343 47.8361
L218.9701 47.9076
" />
<path d="M218.9701 47.9076
L218.9701 48.3004
" />
<path d="M219.8629 47.5147
L219.2201 48.4790
" />
<path d="M220.1129 47.8004
L220.1129 48.5504
" />
<path d="M220.1129 47.8361
L220.1843 47.8004
" />
<path d="M220.1843 47.8004
L220.3272 47.8004
" />
<path d="M220.3272 47.8004
L220.3986 47.8361
" />
<path d="M220.3986 47.8361
L220.4343 47.8718
" />
<path d="M220.4343 47.8718
L220.4701 47.9433
" />
<path d="M220.4701 47.9433
L220.4701 48.1576
" />
<path d="M220.4701 48.1576
L220.4343 48.2290
" />
<path d="M220.4343 48.2290
L220.3986 48.2647
" />
<path d="M220.3986 48.2647
L220.3272 48.3004
" />
<path d="M220.3272 48.3004
L220.1843 48.3004
" />
<path d="M220.1843 48.3004
L220.1129 48.2647
" />
<path d="M221.0772 48.2647
L221.0058 48.3004
" />
<path d="M221.0058 48.3004
L220.8629 48.3004
" />
<path d="M220.8629 48.3004
L220.7915 48.2647
" />
<path d="M220.7915 48.2647
L220.7558 48.1933
" />
<path d="M220.7558 48.1933
L220.7558 47.9076
" />
<path d="M220.7558 47.9076
L220.7915 47.8361
" />
<path d="M220.7915 47.8361
L220.8629 47.8004
" />
<path d="M220.8629 47.8004
L221.0058 47.8004
" />
<path d="M221.0058 47.8004
L221.0772 47.8361
" />
<path d="M221.0772 47.8361
L221.1129 47.9076
" />
<path d="M221.1129 47.9076
L221.1129 47.9790
" />
<path d="M221.1129 47.9790
L220.7558 48.0504
" />
<path d="M221.7558 48.3004
L221.7558 47.5504
" />
<path d="M221.7558 48.2647
L221.6843 48.3004
" />
<path d="M221.6843 48.3004
L221.5415 48.3004
" />
<path d="M221.5415 48.3004
L221.4701 48.2647
" />
<path d="M221.4701 48.2647
L221.4343 48.2290
" />
<path d="M221.4343 48.2290
L221.3986 48.1576
" />
<path d="M221.3986 48.1576
L221.3986 47.9433
" />
<path d="M221.3986 47.9433
L221.4343 47.8718
" />
<path d="M221.4343 47.8718
L221.4701 47.8361
" />
<path d="M221.4701 47.8361
L221.5415 47.8004
" />
<path d="M221.5415 47.8004
L221.6843 47.8004
" />
<path d="M221.6843 47.8004
L221.7558 47.8361
" />
<path d="M222.4343 48.3004
L222.4343 47.9076
" />
<path d="M222.4343 47.9076
L222.3986 47.8361
" />
<path d="M222.3986 47.8361
L222.3272 47.8004
" />
<path d="M222.3272 47.8004
L222.1843 47.8004
" />
<path d="M222.1843 47.8004
L222.1129 47.8361
" />
<path d="M222.4343 48.2647
L222.3629 48.3004
" />
<path d="M222.3629 48.3004
L222.1843 48.3004
" />
<path d="M222.1843 48.3004
L222.1129 48.2647
" />
<path d="M222.1129 48.2647
L222.0772 48.1933
" />
<path d="M222.0772 48.1933
L222.0772 48.1218
" />
<path d="M222.0772 48.1218
L222.1129 48.0504
" />
<path d="M222.1129 48.0504
L222.1843 48.0147
" />
<path d="M222.1843 48.0147
L222.3629 48.0147
" />
<path d="M222.3629 48.0147
L222.4343 47.9790
" />
<path d="M222.8986 48.3004
L222.8272 48.2647
" />
<path d="M222.8272 48.2647
L222.7915 48.1933
" />
<path d="M222.7915 48.1933
L222.7915 47.5504
" />
<path d="M223.1843 48.3004
L223.1843 47.5504
" />
<path d="M223.1843 47.8361
L223.2558 47.8004
" />
<path d="M223.2558 47.8004
L223.3986 47.8004
" />
<path d="M223.3986 47.8004
L223.4701 47.8361
" />
<path d="M223.4701 47.8361
L223.5058 47.8718
" />
<path d="M223.5058 47.8718
L223.5415 47.9433
" />
<path d="M223.5415 47.9433
L223.5415 48.1576
" />
<path d="M223.5415 48.1576
L223.5058 48.2290
" />
<path d="M223.5058 48.2290
L223.4701 48.2647
" />
<path d="M223.4701 48.2647
L223.3986 48.3004
" />
<path d="M223.3986 48.3004
L223.2558 48.3004
" />
<path d="M223.2558 48.3004
L223.1843 48.2647
" />
<path d="M223.9701 48.3004
L223.8986 48.2647
" />
<path d="M223.8986 48.2647
L223.8629 48.2290
" />
<path d="M223.8629 48.2290
L223.8272 48.1576
" />
<path d="M223.8272 48.1576
L223.8272 47.9433
" />
<path d="M223.8272 47.9433
L223.8629 47.8718
" />
<path d="M223.8629 47.8718
L223.8986 47.8361
" />
<path d="M223.8986 47.8361
L223.9701 47.8004
" />
<path d="M223.9701 47.8004
L224.0772 47.8004
" />
<path d="M224.0772 47.8004
L224.1486 47.8361
" />
<path d="M224.1486 47.8361
L224.1843 47.8718
" />
<path d="M224.1843 47.8718
L224.2201 47.9433
" />
<path d="M224.2201 47.9433
L224.2201 48.1576
" />
<path d="M224.2201 48.1576
L224.1843 48.2290
" />
<path d="M224.1843 48.2290
L224.1486 48.2647
" />
<path d="M224.1486 48.2647
L224.0772 48.3004
" />
<path d="M224.0772 48.3004
L223.9701 48.3004
" />
<path d="M224.8629 48.3004
L224.8629 47.9076
" />
<path d="M224.8629 47.9076
L224.8272 47.8361
" />
<path d="M224.8272 47.8361
L224.7558 47.8004
" />
<path d="M224.7558 47.8004
L224.6129 47.8004
" />
<path d="M224.6129 47.8004
L224.5415 47.8361
" />
<path d="M224.8629 48.2647
L224.7915 48.3004
" />
<path d="M224.7915 48.3004
L224.6129 48.3004
" />
<path d="M224.6129 48.3004
L224.5415 48.2647
" />
<path d="M224.5415 48.2647
L224.5058 48.1933
" />
<path d="M224.5058 48.1933
L224.5058 48.1218
" />
<path d="M224.5058 48.1218
L224.5415 48.0504
" />
<path d="M224.5415 48.0504
L224.6129 48.0147
" />
<path d="M224.6129 48.0147
L224.7915 48.0147
" />
<path d="M224.7915 48.0147
L224.8629 47.9790
" />
<path d="M225.2201 48.3004
L225.2201 47.8004
" />
<path d="M225.2201 47.9433
L225.2558 47.8718
" />
<path d="M225.2558 47.8718
L225.2915 47.8361
" />
<path d="M225.2915 47.8361
L225.3629 47.8004
" />
<path d="M225.3629 47.8004
L225.4343 47.8004
" />
<path d="M226.0058 48.3004
L226.0058 47.5504
" />
<path d="M226.0058 48.2647
L225.9343 48.3004
" />
<path d="M225.9343 48.3004
L225.7915 48.3004
" />
<path d="M225.7915 48.3004
L225.7201 48.2647
" />
<path d="M225.7201 48.2647
L225.6843 48.2290
" />
<path d="M225.6843 48.2290
L225.6486 48.1576
" />
<path d="M225.6486 48.1576
L225.6486 47.9433
" />
<path d="M225.6486 47.9433
L225.6843 47.8718
" />
<path d="M225.6843 47.8718
L225.7201 47.8361
" />
<path d="M225.7201 47.8361
L225.7915 47.8004
" />
<path d="M225.7915 47.8004
L225.9343 47.8004
" />
<path d="M225.9343 47.8004
L226.0058 47.8361
" />
</g><g transform="rotate(-90.000000 205.2022 54.0000)">
<text x="205.2022" y="54.5000"
transform="scale(-1 1) translate(-410.404400 0)"
textLength="1.8893" font-size="1.3333" lengthAdjust="spacingAndGlyphs"
text-anchor="middle" opacity="0">J1</text>
</g>
<g class="stroked-text"><desc>J1</desc>
<path d="M205.7474 53.6667
L205.0331 53.6667
" />
<path d="M205.0331 53.6667
L204.8902 53.6190
" />
<path d="M204.8902 53.6190
L204.7950 53.5238
" />
<path d="M204.7950 53.5238
L204.7474 53.3810
" />
<path d="M204.7474 53.3810
L204.7474 53.2857
" />
<path d="M204.7474 54.6667
L204.7474 54.0952
" />
<path d="M204.7474 54.3810
L205.7474 54.3810
" />
<path d="M205.7474 54.3810
L205.6045 54.2857
" />
<path d="M205.6045 54.2857
L205.5093 54.1905
" />
<path d="M205.5093 54.1905
L205.4617 54.0952
" />
</g><text x="207.0022" y="74.0000"
transform="scale(-1 1) translate(-414.004400 0)"
textLength="1.8893" font-size="1.3333" lengthAdjust="spacingAndGlyphs"
text-anchor="middle" opacity="0">J2</text>
<g class="stroked-text"><desc>J2</desc>
<path d="M206.6689 72.9548
L206.6689 73.6691
" />
<path d="M206.6689 73.6691
L206.6212 73.8120
" />
<path d="M206.6212 73.8120
L206.5260 73.9072
" />
<path d="M206.5260 73.9072
L206.3832 73.9548
" />
<path d="M206.3832 73.9548
L206.2879 73.9548
" />
<path d="M207.0974 73.0501
L207.1451 73.0024
" />
<path d="M207.1451 73.0024
L207.2403 72.9548
" />
<path d="M207.2403 72.9548
L207.4784 72.9548
" />
<path d="M207.4784 72.9548
L207.5736 73.0024
" />
<path d="M207.5736 73.0024
L207.6212 73.0501
" />
<path d="M207.6212 73.0501
L207.6689 73.1453
" />
<path d="M207.6689 73.1453
L207.6689 73.2405
" />
<path d="M207.6689 73.2405
L207.6212 73.3834
" />
<path d="M207.6212 73.3834
L207.0498 73.9548
" />
<path d="M207.0498 73.9548
L207.6689 73.9548
" />
</g></g>
<g style="fill:#000000; fill-opacity:0.0; 
stroke:#000000; stroke-width:0.1200; stroke-opacity:1; 
stroke-linecap:round; stroke-linejoin:round;">
<path d="M209.0622 62.0600
L209.0622 57.9400
" />
<path d="M208.7622 62.0600
L209.0622 62.0600
" />
<path d="M206.7622 62.0600
L207.2422 62.0600
" />
<path d="M204.9422 62.0600
L205.2422 62.0600
" />
<path d="M204.9422 62.0600
L204.9422 57.9400
" />
<path d="M208.7622 57.9400
L209.0622 57.9400
" />
<path d="M206.7622 57.9400
L207.2422 57.9400
" />
<path d="M205.2422 57.9400
L205.2422 55.5600
" />
<path d="M204.9422 57.9400
L205.2422 57.9400
" />
<path d="M209.0622 67.9400
L204.9422 67.9400
" />
<path d="M209.0622 68.2400
L209.0622 67.9400
" />
<path d="M209.0622 70.2400
L209.0622 69.7600
" />
<path d="M209.0622 72.0600
L209.0622 71.7600
" />
<path d="M209.0622 72.0600
L204.9422 72.0600
" />
<path d="M204.9422 68.2400
L204.9422 67.9400
" />
<path d="M204.9422 70.2400
L204.9422 69.7600
" />
<path d="M204.9422 71.7600
L202.5622 71.7600
" />
<path d="M204.9422 72.0600
L204.9422 71.7600
" />
<g >
</g>
<g >
</g>
<g >
</g>
<g >
</g>
<g >
</g>
<g >
</g>
<g >
</g>
<g >
</g>
<g >
</g>
<g >
</g>
<g >
</g>
<g >
</g>
<g >
</g>
<g >
</g>
<g >
</g>
<g >
</g>
<g >
</g>
<g >
</g>
<g >
</g>
<g >
</g>
<g >
</g>
<g >
</g>
<g >
</g>
<g >
</g>
<g >
</g>
<g >
</g>
<g >
</g>
<g >
</g>
<g >
</g>
<g >
</g>
</g> 
</svg>
