<?xml version="1.0" standalone="no"?>
 <!DOCTYPE svg PUBLIC "-//W3C//DTD SVG 1.1//EN" 
 "http://www.w3.org/Graphics/SVG/1.1/DTD/svg11.dtd"> 
<svg
  xmlns:svg="http://www.w3.org/2000/svg"
  xmlns="http://www.w3.org/2000/svg"
  xmlns:xlink="http://www.w3.org/1999/xlink"
  version="1.1"
  width="297.0022mm" height="210.0072mm" viewBox="0.0000 0.0000 297.0022 210.0072">
<title>SVG Image created as pedalboard-led-ring-B_Cu.svg date 2023/06/02 11:33:00 </title>
  <desc>Image generated by PCBNEW </desc>
<g style="fill:#000000; fill-opacity:1.0000;stroke:#000000; stroke-opacity:1.0000;
stroke-linecap:round; stroke-linejoin:round;"
 transform="translate(0 0) scale(1 1)">
</g>
<g style="fill:#000000; fill-opacity:0.0; 
stroke:#000000; stroke-width:0.0000; stroke-opacity:1; 
stroke-linecap:round; stroke-linejoin:round;">
<g >
</g>
<g >
</g>
<g >
</g>
<g >
</g>
<g >
</g>
<g >
</g>
<g >
</g>
<g >
</g>
<g >
</g>
<g >
</g>
<g >
</g>
<g >
</g>
<g >
</g>
<g >
</g>
<g >
</g>
<g >
</g>
<g >
</g>
<g >
</g>
<g >
</g>
<g >
</g>
<g >
</g>
<g >
</g>
<g >
</g>
<g >
</g>
<g >
</g>
<g style="fill:#000000; fill-opacity:0.0; 
stroke:#000000; stroke-width:0.0000; stroke-opacity:1; 
stroke-linecap:round; stroke-linejoin:round;">
</g>
<g style="fill:#000000; fill-opacity:0.0; 
stroke:#000000; stroke-width:0.0000; stroke-opacity:1; 
stroke-linecap:round; stroke-linejoin:round;">
</g>
<g style="fill:#000000; fill-opacity:1.0000; 
stroke:#000000; stroke-width:0.0000; stroke-opacity:1; 
stroke-linecap:round; stroke-linejoin:round;">
<path style="fill:#000000; fill-opacity:1.0000; 
stroke:#000000; stroke-width:0.0000; stroke-opacity:1; 
stroke-linecap:round; stroke-linejoin:round;fill-rule:evenodd;"
d="M 204.5022,58.2500
205.5022,58.2500
205.5022,55.5000
204.5022,55.5000
Z" /> 
<path style="fill:#000000; fill-opacity:1.0000; 
stroke:#000000; stroke-width:0.0000; stroke-opacity:1; 
stroke-linecap:round; stroke-linejoin:round;fill-rule:evenodd;"
d="M 204.5022,64.5000
205.5022,64.5000
205.5022,61.7500
204.5022,61.7500
Z" /> 
<path style="fill:#000000; fill-opacity:1.0000; 
stroke:#000000; stroke-width:0.0000; stroke-opacity:1; 
stroke-linecap:round; stroke-linejoin:round;fill-rule:evenodd;"
d="M 206.5022,58.2500
207.5022,58.2500
207.5022,55.5000
206.5022,55.5000
Z" /> 
<path style="fill:#000000; fill-opacity:1.0000; 
stroke:#000000; stroke-width:0.0000; stroke-opacity:1; 
stroke-linecap:round; stroke-linejoin:round;fill-rule:evenodd;"
d="M 206.5022,64.5000
207.5022,64.5000
207.5022,61.7500
206.5022,61.7500
Z" /> 
</g>
<g >
</g>
<g style="fill:#000000; fill-opacity:1.0000; 
stroke:#000000; stroke-width:0.0000; stroke-opacity:1; 
stroke-linecap:round; stroke-linejoin:round;">
<circle cx="207.5022" cy="61.1000" r="0.4000" /> 
</g>
<g style="fill:#000000; fill-opacity:1.0000; 
stroke:#000000; stroke-width:0.0212; stroke-opacity:1; 
stroke-linecap:round; stroke-linejoin:round;">
</g>
<g style="fill:#000000; fill-opacity:1.0000; 
stroke:#000000; stroke-width:0.0000; stroke-opacity:1; 
stroke-linecap:round; stroke-linejoin:round;">
<circle cx="208.9022" cy="63.1000" r="0.4000" /> 
</g>
<g style="fill:#000000; fill-opacity:1.0000; 
stroke:#000000; stroke-width:0.0212; stroke-opacity:1; 
stroke-linecap:round; stroke-linejoin:round;">
</g>
<g style="fill:#000000; fill-opacity:1.0000; 
stroke:#000000; stroke-width:0.0000; stroke-opacity:1; 
stroke-linecap:round; stroke-linejoin:round;">
<circle cx="207.2759" cy="65.1536" r="0.4000" /> 
</g>
<g style="fill:#000000; fill-opacity:1.0000; 
stroke:#000000; stroke-width:0.0212; stroke-opacity:1; 
stroke-linecap:round; stroke-linejoin:round;">
</g>
<g style="fill:#000000; fill-opacity:1.0000; 
stroke:#000000; stroke-width:0.0000; stroke-opacity:1; 
stroke-linecap:round; stroke-linejoin:round;">
<circle cx="228.0022" cy="60.4000" r="0.4000" /> 
</g>
<g style="fill:#000000; fill-opacity:1.0000; 
stroke:#000000; stroke-width:0.0212; stroke-opacity:1; 
stroke-linecap:round; stroke-linejoin:round;">
</g>
<g style="fill:#000000; fill-opacity:1.0000; 
stroke:#000000; stroke-width:0.0000; stroke-opacity:1; 
stroke-linecap:round; stroke-linejoin:round;">
<circle cx="216.6022" cy="71.0000" r="0.4000" /> 
</g>
<g style="fill:#000000; fill-opacity:1.0000; 
stroke:#000000; stroke-width:0.0212; stroke-opacity:1; 
stroke-linecap:round; stroke-linejoin:round;">
</g>
<g style="fill:#000000; fill-opacity:1.0000; 
stroke:#000000; stroke-width:0.0000; stroke-opacity:1; 
stroke-linecap:round; stroke-linejoin:round;">
<circle cx="211.8486" cy="50.2737" r="0.4000" /> 
</g>
<g style="fill:#000000; fill-opacity:1.0000; 
stroke:#000000; stroke-width:0.0212; stroke-opacity:1; 
stroke-linecap:round; stroke-linejoin:round;">
</g>
<g style="fill:#000000; fill-opacity:1.0000; 
stroke:#000000; stroke-width:0.0000; stroke-opacity:1; 
stroke-linecap:round; stroke-linejoin:round;">
<circle cx="222.8486" cy="50.6737" r="0.4000" /> 
</g>
<g style="fill:#000000; fill-opacity:1.0000; 
stroke:#000000; stroke-width:0.0212; stroke-opacity:1; 
stroke-linecap:round; stroke-linejoin:round;">
</g>
<g style="fill:#000000; fill-opacity:1.0000; 
stroke:#000000; stroke-width:0.0000; stroke-opacity:1; 
stroke-linecap:round; stroke-linejoin:round;">
<circle cx="217.4022" cy="49.0000" r="0.4000" /> 
</g>
<g style="fill:#000000; fill-opacity:1.0000; 
stroke:#000000; stroke-width:0.0212; stroke-opacity:1; 
stroke-linecap:round; stroke-linejoin:round;">
</g>
<g style="fill:#000000; fill-opacity:1.0000; 
stroke:#000000; stroke-width:0.0000; stroke-opacity:1; 
stroke-linecap:round; stroke-linejoin:round;">
<circle cx="226.7285" cy="54.8464" r="0.4000" /> 
</g>
<g style="fill:#000000; fill-opacity:1.0000; 
stroke:#000000; stroke-width:0.0212; stroke-opacity:1; 
stroke-linecap:round; stroke-linejoin:round;">
</g>
<g style="fill:#000000; fill-opacity:1.0000; 
stroke:#000000; stroke-width:0.0000; stroke-opacity:1; 
stroke-linecap:round; stroke-linejoin:round;">
<circle cx="207.6759" cy="54.1536" r="0.4000" /> 
</g>
<g style="fill:#000000; fill-opacity:1.0000; 
stroke:#000000; stroke-width:0.0212; stroke-opacity:1; 
stroke-linecap:round; stroke-linejoin:round;">
</g>
<g style="fill:#000000; fill-opacity:1.0000; 
stroke:#000000; stroke-width:0.0000; stroke-opacity:1; 
stroke-linecap:round; stroke-linejoin:round;">
<circle cx="211.1558" cy="69.3263" r="0.4000" /> 
</g>
<g style="fill:#000000; fill-opacity:1.0000; 
stroke:#000000; stroke-width:0.0212; stroke-opacity:1; 
stroke-linecap:round; stroke-linejoin:round;">
</g>
<g style="fill:#000000; fill-opacity:1.0000; 
stroke:#000000; stroke-width:0.0000; stroke-opacity:1; 
stroke-linecap:round; stroke-linejoin:round;">
<circle cx="222.1558" cy="69.7263" r="0.4000" /> 
</g>
<g style="fill:#000000; fill-opacity:1.0000; 
stroke:#000000; stroke-width:0.0212; stroke-opacity:1; 
stroke-linecap:round; stroke-linejoin:round;">
</g>
<g style="fill:#000000; fill-opacity:1.0000; 
stroke:#000000; stroke-width:0.0000; stroke-opacity:1; 
stroke-linecap:round; stroke-linejoin:round;">
<circle cx="206.0022" cy="59.6000" r="0.4000" /> 
</g>
<g style="fill:#000000; fill-opacity:1.0000; 
stroke:#000000; stroke-width:0.0212; stroke-opacity:1; 
stroke-linecap:round; stroke-linejoin:round;">
</g>
<g style="fill:#000000; fill-opacity:1.0000; 
stroke:#000000; stroke-width:0.0000; stroke-opacity:1; 
stroke-linecap:round; stroke-linejoin:round;">
<circle cx="226.3285" cy="65.8464" r="0.4000" /> 
</g>
<g style="fill:#000000; fill-opacity:1.0000; 
stroke:#000000; stroke-width:0.0212; stroke-opacity:1; 
stroke-linecap:round; stroke-linejoin:round;">
</g>
<g style="fill:#000000; fill-opacity:1.0000; 
stroke:#000000; stroke-width:0.0000; stroke-opacity:1; 
stroke-linecap:round; stroke-linejoin:round;">
<circle cx="205.0022" cy="65.0000" r="0.4000" /> 
</g>
<g style="fill:#000000; fill-opacity:1.0000; 
stroke:#000000; stroke-width:0.0212; stroke-opacity:1; 
stroke-linecap:round; stroke-linejoin:round;">
</g>
<g style="fill:#000000; fill-opacity:1.0000; 
stroke:#000000; stroke-width:0.0000; stroke-opacity:1; 
stroke-linecap:round; stroke-linejoin:round;">
<circle cx="204.0022" cy="61.2000" r="0.4000" /> 
</g>
<g style="fill:#000000; fill-opacity:1.0000; 
stroke:#000000; stroke-width:0.0212; stroke-opacity:1; 
stroke-linecap:round; stroke-linejoin:round;">
</g>
<g style="fill:#000000; fill-opacity:1.0000; 
stroke:#000000; stroke-width:0.0000; stroke-opacity:1; 
stroke-linecap:round; stroke-linejoin:round;">
<circle cx="204.0022" cy="62.6000" r="0.4000" /> 
</g>
<g style="fill:#000000; fill-opacity:1.0000; 
stroke:#000000; stroke-width:0.0212; stroke-opacity:1; 
stroke-linecap:round; stroke-linejoin:round;">
</g>
<g style="fill:#000000; fill-opacity:1.0000; 
stroke:#000000; stroke-width:0.0000; stroke-opacity:1; 
stroke-linecap:round; stroke-linejoin:round;">
<circle cx="204.0022" cy="65.0000" r="0.4000" /> 
</g>
<g style="fill:#000000; fill-opacity:1.0000; 
stroke:#000000; stroke-width:0.0212; stroke-opacity:1; 
stroke-linecap:round; stroke-linejoin:round;">
</g>
<g style="fill:#000000; fill-opacity:1.0000; 
stroke:#000000; stroke-width:0.0000; stroke-opacity:1; 
stroke-linecap:round; stroke-linejoin:round;">
<circle cx="204.0022" cy="63.8000" r="0.4000" /> 
</g>
<g style="fill:#000000; fill-opacity:1.0000; 
stroke:#000000; stroke-width:0.0212; stroke-opacity:1; 
stroke-linecap:round; stroke-linejoin:round;">
</g>
<g style="fill:#000000; fill-opacity:1.0000; 
stroke:#000000; stroke-width:0.0000; stroke-opacity:1; 
stroke-linecap:round; stroke-linejoin:round;">
<circle cx="205.0022" cy="61.2000" r="0.4000" /> 
</g>
<g style="fill:#000000; fill-opacity:1.0000; 
stroke:#000000; stroke-width:0.0212; stroke-opacity:1; 
stroke-linecap:round; stroke-linejoin:round;">
</g>
<g >
</g>
<g style="fill:#000000; fill-opacity:1.0000; 
stroke:#000000; stroke-width:0.0212; stroke-opacity:1; 
stroke-linecap:round; stroke-linejoin:round;">
</g>
<g style="fill:#000000; fill-opacity:1.0000; 
stroke:#000000; stroke-width:0.2500; stroke-opacity:1; 
stroke-linecap:round; stroke-linejoin:round;">
</g>
<g style="fill:#000000; fill-opacity:0.0; 
stroke:#000000; stroke-width:0.2500; stroke-opacity:1; 
stroke-linecap:round; stroke-linejoin:round;">
<path d="M207.0022 60.6705
L207.0022 56.8750
" />
<path d="M207.5022 61.1705
L207.0022 60.6705
" />
<path d="M208.9022 63.1000
L207.0272 63.1000
" />
<path d="M204.0022 65.0000
L204.0022 61.2000
" />
<path d="M204.0022 62.6000
L204.4772 62.6000
" />
<path d="M204.3272 63.8000
L205.0022 63.1250
" />
<path d="M204.0022 63.8000
L204.3272 63.8000
" />
<path d="M205.0022 63.1250
L205.0022 65.0000
" />
<path d="M205.0022 65.0000
L204.0022 65.0000
" />
<path d="M204.4772 62.6000
L205.0022 63.1250
" />
<path d="M204.0022 61.2000
L205.0022 61.2000
" />
<path d="M205.0022 61.2000
L205.0022 63.1250
" />
</g>
<g >
</g>
<g style="fill:#000000; fill-opacity:0.0; 
stroke:#000000; stroke-width:0.2500; stroke-opacity:1; 
stroke-linecap:round; stroke-linejoin:round;">
<g >
</g>
<g style="fill:#000000; fill-opacity:1.0000; 
stroke:#000000; stroke-width:0.0000; stroke-opacity:1; 
stroke-linecap:round; stroke-linejoin:round;">
<path style="fill:#000000; fill-opacity:1.0000; 
stroke:#000000; stroke-width:0.0000; stroke-opacity:1; 
stroke-linecap:round; stroke-linejoin:round;fill-rule:evenodd;"
d="M 203.9995,46.0007
203.9567,46.0045
203.8304,46.0169
203.8105,46.0205
203.7448,46.0382
203.7430,46.0387
203.6506,46.0667
203.6342,46.0730
203.5668,46.1044
203.5638,46.1059
203.5262,46.1260
203.4799,46.1508
203.4735,46.1547
203.4074,46.2010
203.4036,46.2038
203.3314,46.2631
203.3269,46.2672
203.2694,46.3247
203.2653,46.3292
203.2060,46.4014
203.2032,46.4052
203.1569,46.4713
203.1530,46.4777
203.1081,46.5616
203.1066,46.5646
203.0752,46.6320
203.0689,46.6484
203.0409,46.7407
203.0403,46.7426
203.0227,46.8083
203.0191,46.8282
203.0067,46.9546
203.0029,46.9973
203.0027,47.0027
203.0027,72.9973
203.0029,73.0027
203.0067,73.0454
203.0191,73.1718
203.0227,73.1917
203.0403,73.2574
203.0409,73.2593
203.0689,73.3516
203.0752,73.3680
203.1066,73.4354
203.1081,73.4384
203.1530,73.5223
203.1569,73.5287
203.2032,73.5948
203.2060,73.5986
203.2653,73.6708
203.2694,73.6753
203.3269,73.7328
203.3314,73.7369
203.4036,73.7962
203.4074,73.7990
203.4735,73.8453
203.4799,73.8492
203.5638,73.8941
203.5668,73.8956
203.6342,73.9270
203.6506,73.9333
203.7429,73.9613
203.7448,73.9619
203.8105,73.9795
203.8304,73.9831
203.9568,73.9955
203.9949,73.9989
203.9995,73.9993
204.0049,73.9995
229.9995,73.9995
230.0049,73.9993
230.0099,73.9988
230.0476,73.9955
230.1740,73.9831
230.1939,73.9795
230.2596,73.9619
230.2615,73.9613
230.2991,73.9499
230.3538,73.9333
230.3702,73.9270
230.4376,73.8956
230.4406,73.8941
230.5245,73.8492
230.5309,73.8453
230.5970,73.7990
230.6008,73.7962
230.6730,73.7369
230.6775,73.7328
230.7350,73.6753
230.7391,73.6708
230.7984,73.5986
230.8012,73.5948
230.8475,73.5287
230.8514,73.5223
230.8762,73.4760
230.8963,73.4384
230.8978,73.4354
230.9292,73.3680
230.9355,73.3516
230.9635,73.2592
230.9640,73.2574
230.9817,73.1917
230.9853,73.1718
230.9977,73.0454
231.0015,73.0027
231.0017,72.9973
231.0017,60.0000
223.1077,60.0000
223.0879,60.4913
223.0879,60.4913
223.0286,60.9794
222.9302,61.4611
222.7934,61.9334
222.6191,62.3931
222.4442,62.7617
222.4282,62.7955
222.4083,62.8374
222.1625,63.2632
222.1625,63.2632
222.1366,63.3006
221.9002,63.6432
221.8832,63.6678
221.5722,64.0486
221.5722,64.0487
221.2316,64.4033
221.2316,64.4033
220.8636,64.7293
220.7625,64.8052
220.4705,65.0247
220.0549,65.2875
220.0549,65.2875
220.0549,65.2875
220.0224,65.3045
219.6196,65.5160
219.1672,65.7087
218.7008,65.8644
218.2234,65.9821
218.2234,65.9821
218.2234,65.9821
217.7745,66.0550
217.7381,66.0609
217.2480,66.1005
217.2480,66.1005
216.7564,66.1005
216.7564,66.1005
216.2663,66.0609
216.1177,66.0368
215.7810,65.9821
215.7810,65.9821
215.7810,65.9821
215.3036,65.8644
214.8372,65.7087
214.3848,65.5160
213.9495,65.2875
213.5339,65.0247
213.1408,64.7293
213.1408,64.7293
213.1408,64.7293
212.7728,64.4033
212.7728,64.4033
212.7728,64.4033
212.4322,64.0487
212.1212,63.6678
211.8419,63.2632
211.7477,63.1000
209.5575,63.1000
209.5384,63.2568
209.5218,63.3006
209.4824,63.4045
209.3927,63.5345
209.2744,63.6393
209.2744,63.6393
209.1346,63.7127
208.9812,63.7505
208.9812,63.7505
208.8232,63.7505
208.6698,63.7127
208.5843,63.6678
208.5300,63.6393
208.4117,63.5345
208.4079,63.5291
208.3537,63.4851
208.3059,63.4755
207.8767,63.4755
207.8097,63.4952
207.7639,63.5480
207.7527,63.5995
207.7527,64.5247
207.7382,64.5977
207.7382,64.5977
207.7382,64.5977
207.6828,64.6806
207.6099,64.7293
207.5999,64.7360
207.5999,64.7360
207.5269,64.7505
207.5269,64.7505
207.5269,64.7505
206.4775,64.7505
206.4775,64.7505
206.4045,64.7360
206.3216,64.6806
206.2662,64.5977
206.2517,64.5247
205.7527,64.5247
205.7527,64.5247
205.7382,64.5977
205.7382,64.5977
205.7382,64.5977
205.6828,64.6806
205.6803,64.6823
205.6760,64.6875
205.6742,64.6892
205.6743,64.6894
205.6354,64.7359
205.6267,64.8052
205.6332,64.8294
205.6384,64.8432
205.6384,64.8432
205.6575,65.0000
205.6575,65.0000
205.6384,65.1568
205.5908,65.2823
205.5824,65.3045
205.4927,65.4345
205.3744,65.5393
205.3744,65.5393
205.2346,65.6127
205.0812,65.6505
205.0812,65.6505
204.9232,65.6505
204.7698,65.6127
204.6300,65.5393
204.6300,65.5393
204.6300,65.5393
204.5844,65.4989
204.5212,65.4692
204.4519,65.4784
204.4200,65.4989
204.3744,65.5393
204.3744,65.5393
204.2346,65.6127
204.0812,65.6505
204.0812,65.6505
203.9232,65.6505
203.7698,65.6127
203.7698,65.6127
203.6300,65.5393
203.5117,65.4345
203.4220,65.3045
203.3660,65.1568
203.3469,65.0000
203.3660,64.8432
203.4220,64.6955
203.5117,64.5655
203.5117,64.5655
203.5849,64.5006
203.6221,64.4414
203.6267,64.4078
203.6267,64.3922
203.6070,64.3252
203.5849,64.2994
203.5117,64.2345
203.5117,64.2345
203.4220,64.1045
203.3660,63.9568
203.3469,63.8000
203.3575,63.7127
203.3660,63.6432
203.4021,63.5480
203.4220,63.4955
203.5117,63.3655
203.5117,63.3655
203.5849,63.3006
203.6221,63.2414
203.6267,63.2078
203.6267,63.1922
203.6070,63.1252
203.5849,63.0994
203.5117,63.0345
203.5117,63.0345
203.4220,62.9045
203.3660,62.7568
203.3469,62.6000
203.3660,62.4432
203.4220,62.2955
203.5117,62.1655
203.5117,62.1655
203.5849,62.1006
203.6221,62.0414
203.6267,62.0078
203.6267,61.7922
203.6070,61.7252
203.5849,61.6994
203.5117,61.6345
203.5117,61.6345
203.4220,61.5045
203.3660,61.3568
203.3469,61.2000
203.3660,61.0432
203.4220,60.8955
203.5117,60.7655
203.6300,60.6607
203.6300,60.6607
203.6300,60.6607
203.7698,60.5873
203.9232,60.5495
203.9232,60.5495
204.0812,60.5495
204.0812,60.5495
204.2346,60.5873
204.3744,60.6607
204.3744,60.6607
204.4200,60.7011
204.4832,60.7308
204.5525,60.7216
204.5844,60.7011
204.6300,60.6607
204.6300,60.6607
204.7698,60.5873
204.9232,60.5495
204.9232,60.5495
205.0812,60.5495
205.0812,60.5495
205.2346,60.5873
205.3744,60.6607
205.4927,60.7655
205.5824,60.8955
205.5824,60.8955
205.6384,61.0432
205.6575,61.2000
205.6575,61.2000
205.6384,61.3568
205.6181,61.4105
205.6127,61.4802
205.6459,61.5417
205.6651,61.5576
205.6828,61.5694
205.7382,61.6523
205.7382,61.6523
205.7527,61.7253
205.7527,61.7253
205.7527,64.5247
206.2517,64.5247
206.2517,64.5247
206.2517,61.7253
206.2517,61.7253
206.2517,61.7253
206.2662,61.6523
206.2662,61.6523
206.2781,61.6345
206.3216,61.5694
206.4045,61.5140
206.4045,61.5140
206.4045,61.5140
206.4775,61.4995
206.4775,61.4995
206.7784,61.4995
206.8454,61.4798
206.8911,61.4270
206.9011,61.3579
206.8943,61.3315
206.8921,61.3256
206.8660,61.2568
206.8469,61.1000
206.8469,61.1000
206.8469,61.0976
206.8464,61.0959
206.8460,61.0926
206.8455,61.0926
206.8272,61.0306
206.8106,61.0099
206.8106,61.0099
206.7733,60.9726
206.7535,60.9565
206.7444,60.9506
206.7226,60.9226
206.7175,60.9168
206.7147,60.9140
206.7018,60.8960
206.7003,60.8940
206.6674,60.8517
206.6637,60.8448
206.6602,60.8377
206.6602,60.8377
206.6449,60.7863
206.6441,60.7839
206.6267,60.7332
206.6267,60.7332
206.6254,60.7254
206.6244,60.7176
206.6266,60.6640
206.6267,60.6615
206.6267,58.6245
206.6070,58.5575
206.5542,58.5117
206.5027,58.5005
206.4775,58.5005
206.4775,58.5005
206.4045,58.4860
206.3216,58.4306
206.2662,58.3477
206.2517,58.2747
206.2517,57.1250
206.0022,57.1250
206.0022,58.2978
205.9958,58.3574
205.9958,58.3574
205.9456,58.4921
205.9456,58.4921
205.8594,58.6072
205.8594,58.6072
205.7443,58.6933
205.7443,58.6934
205.6096,58.7436
205.6096,58.7436
205.5500,58.7500
205.5500,58.7500
205.2522,58.7500
205.2522,57.1250
204.7522,57.1250
204.7522,58.7500
204.4544,58.7500
204.4544,58.7500
204.3948,58.7436
204.3948,58.7436
204.2601,58.6934
204.2601,58.6933
204.1450,58.6072
204.1450,58.6072
204.0588,58.4921
204.0588,58.4921
204.0086,58.3574
204.0086,58.3574
204.0022,58.2978
204.0022,58.2978
204.0022,57.1250
204.7522,57.1250
205.2522,57.1250
206.0022,57.1250
206.2517,57.1250
206.2517,56.6250
206.0022,56.6250
205.2522,56.6250
205.2522,55.0000
204.7522,55.0000
204.7522,56.6250
204.0022,56.6250
204.0022,55.4522
204.0022,55.4522
204.0086,55.3926
204.0086,55.3926
204.0588,55.2579
204.0588,55.2579
204.1450,55.1428
204.1450,55.1428
204.2601,55.0566
204.2601,55.0566
204.3948,55.0064
204.3948,55.0064
204.4544,55.0000
204.7522,55.0000
205.2522,55.0000
205.5500,55.0000
205.6096,55.0064
205.6096,55.0064
205.7443,55.0566
205.7443,55.0566
205.8594,55.1428
205.8594,55.1428
205.9456,55.2579
205.9456,55.2579
205.9958,55.3926
205.9958,55.3926
206.0022,55.4522
206.0022,56.6250
206.2517,56.6250
206.2517,55.4753
206.2517,55.4753
206.2517,55.4753
206.2517,55.4753
206.2662,55.4023
206.2662,55.4023
206.2662,55.4023
206.3216,55.3194
206.4045,55.2640
206.4045,55.2640
206.4045,55.2640
206.4775,55.2495
206.4775,55.2495
207.5269,55.2495
207.5269,55.2495
207.5999,55.2640
207.5999,55.2640
207.6828,55.3194
207.7382,55.4023
207.7382,55.4023
207.7527,55.4753
207.7527,55.4753
207.7527,58.2747
207.7527,58.2747
207.7382,58.3477
207.7382,58.3477
207.7382,58.3477
207.6828,58.4306
207.5999,58.4860
207.5999,58.4860
207.5269,58.5005
207.5269,58.5005
207.5269,58.5005
207.5017,58.5005
207.4347,58.5202
207.3889,58.5730
207.3777,58.6245
207.3777,60.3255
207.3974,60.3925
207.4502,60.4383
207.5017,60.4495
207.5812,60.4495
207.7346,60.4873
207.8744,60.5607
207.8744,60.5607
207.8744,60.5607
207.9873,60.6607
207.9927,60.6655
208.0824,60.7955
208.0824,60.7955
208.1384,60.9432
208.1575,61.1000
208.1575,61.1000
208.1384,61.2568
208.1101,61.3315
208.0824,61.4045
207.9927,61.5345
207.8744,61.6393
207.8191,61.6683
207.7689,61.7169
207.7527,61.7781
207.7527,62.6005
207.7724,62.6675
207.8252,62.7133
207.8767,62.7245
208.3059,62.7245
208.3729,62.7048
208.4079,62.6709
208.4117,62.6655
208.5300,62.5607
208.5300,62.5607
208.5300,62.5607
208.6698,62.4873
208.8232,62.4495
208.8232,62.4495
208.9812,62.4495
208.9812,62.4495
209.1346,62.4873
209.2744,62.5607
209.3927,62.6655
209.4824,62.7955
209.4824,62.7955
209.5384,62.9432
209.5575,63.1000
209.5575,63.1000
211.7477,63.1000
211.5961,62.8373
211.3853,62.3931
211.2110,61.9334
211.0742,61.4611
210.9758,60.9794
210.9165,60.4913
210.9165,60.4913
210.8967,60.0000
210.8967,60.0000
210.9165,59.5087
210.9165,59.5087
210.9165,59.5087
210.9758,59.0206
211.0742,58.5389
211.1055,58.4306
211.2110,58.0666
211.2879,57.8636
211.3853,57.6069
211.5961,57.1627
211.8419,56.7368
211.8419,56.7368
211.8419,56.7368
212.1188,56.3358
212.1212,56.3322
212.1212,56.3322
212.1213,56.3322
212.4322,55.9513
212.4322,55.9513
212.7728,55.5967
212.7728,55.5967
213.1408,55.2707
213.3374,55.1230
213.5339,54.9753
213.9495,54.7125
213.9495,54.7125
213.9495,54.7125
214.3848,54.4840
214.5624,54.4084
214.8372,54.2913
214.8372,54.2913
214.8372,54.2913
215.0677,54.2144
215.3036,54.1356
215.3036,54.1356
215.3036,54.1356
215.4865,54.0905
215.7810,54.0179
215.7810,54.0179
215.7810,54.0179
215.7810,54.0179
216.2663,53.9391
216.7563,53.8995
216.7564,53.8995
217.2480,53.8995
217.2481,53.8995
217.7381,53.9391
218.2234,54.0179
218.2234,54.0179
218.2234,54.0179
218.2234,54.0179
218.2471,54.0238
218.7008,54.1356
218.7008,54.1356
219.1672,54.2913
219.1672,54.2913
219.1672,54.2913
219.2715,54.3357
219.6196,54.4840
220.0549,54.7125
220.4705,54.9753
220.4705,54.9753
220.8636,55.2707
221.2316,55.5967
221.2316,55.5967
221.5722,55.9513
221.5722,55.9513
221.8832,56.3322
222.1625,56.7368
222.1625,56.7368
222.4083,57.1626
222.6191,57.6069
222.7934,58.0666
222.9302,58.5389
223.0286,59.0206
223.0879,59.5087
223.0879,59.5087
223.1077,60.0000
223.1077,60.0000
231.0017,60.0000
231.0017,47.0027
231.0015,46.9973
230.9977,46.9546
230.9965,46.9418
230.9853,46.8282
230.9817,46.8083
230.9640,46.7425
230.9635,46.7408
230.9355,46.6484
230.9293,46.6320
230.8978,46.5646
230.8963,46.5617
230.8514,46.4777
230.8475,46.4713
230.8144,46.4239
230.8012,46.4052
230.7984,46.4014
230.7391,46.3292
230.7350,46.3247
230.6775,46.2672
230.6730,46.2631
230.6008,46.2038
230.5970,46.2010
230.5309,46.1547
230.5245,46.1508
230.4405,46.1059
230.4376,46.1044
230.3702,46.0729
230.3538,46.0667
230.2614,46.0387
230.2597,46.0382
230.1939,46.0205
230.1740,46.0169
230.0604,46.0057
230.0476,46.0045
230.0049,46.0007
229.9995,46.0005
204.0049,46.0005
Z" /> 
</g>
</g>
</g>
<g style="fill:#FFFFFF; fill-opacity:1.0000; 
stroke:#FFFFFF; stroke-width:0.0000; stroke-opacity:1; 
stroke-linecap:round; stroke-linejoin:round;">
<circle cx="207.5022" cy="61.1000" r="0.2000" /> 
</g>
<g style="fill:#FFFFFF; fill-opacity:1.0000; 
stroke:#FFFFFF; stroke-width:0.0212; stroke-opacity:1; 
stroke-linecap:round; stroke-linejoin:round;">
</g>
<g style="fill:#FFFFFF; fill-opacity:1.0000; 
stroke:#FFFFFF; stroke-width:0.0000; stroke-opacity:1; 
stroke-linecap:round; stroke-linejoin:round;">
<circle cx="208.9022" cy="63.1000" r="0.2000" /> 
</g>
<g style="fill:#FFFFFF; fill-opacity:1.0000; 
stroke:#FFFFFF; stroke-width:0.0212; stroke-opacity:1; 
stroke-linecap:round; stroke-linejoin:round;">
</g>
<g style="fill:#FFFFFF; fill-opacity:1.0000; 
stroke:#FFFFFF; stroke-width:0.0000; stroke-opacity:1; 
stroke-linecap:round; stroke-linejoin:round;">
<circle cx="207.2759" cy="65.1536" r="0.2000" /> 
</g>
<g style="fill:#FFFFFF; fill-opacity:1.0000; 
stroke:#FFFFFF; stroke-width:0.0212; stroke-opacity:1; 
stroke-linecap:round; stroke-linejoin:round;">
</g>
<g style="fill:#FFFFFF; fill-opacity:1.0000; 
stroke:#FFFFFF; stroke-width:0.0000; stroke-opacity:1; 
stroke-linecap:round; stroke-linejoin:round;">
<circle cx="228.0022" cy="60.4000" r="0.2000" /> 
</g>
<g style="fill:#FFFFFF; fill-opacity:1.0000; 
stroke:#FFFFFF; stroke-width:0.0212; stroke-opacity:1; 
stroke-linecap:round; stroke-linejoin:round;">
</g>
<g style="fill:#FFFFFF; fill-opacity:1.0000; 
stroke:#FFFFFF; stroke-width:0.0000; stroke-opacity:1; 
stroke-linecap:round; stroke-linejoin:round;">
<circle cx="216.6022" cy="71.0000" r="0.2000" /> 
</g>
<g style="fill:#FFFFFF; fill-opacity:1.0000; 
stroke:#FFFFFF; stroke-width:0.0212; stroke-opacity:1; 
stroke-linecap:round; stroke-linejoin:round;">
</g>
<g style="fill:#FFFFFF; fill-opacity:1.0000; 
stroke:#FFFFFF; stroke-width:0.0000; stroke-opacity:1; 
stroke-linecap:round; stroke-linejoin:round;">
<circle cx="211.8486" cy="50.2737" r="0.2000" /> 
</g>
<g style="fill:#FFFFFF; fill-opacity:1.0000; 
stroke:#FFFFFF; stroke-width:0.0212; stroke-opacity:1; 
stroke-linecap:round; stroke-linejoin:round;">
</g>
<g style="fill:#FFFFFF; fill-opacity:1.0000; 
stroke:#FFFFFF; stroke-width:0.0000; stroke-opacity:1; 
stroke-linecap:round; stroke-linejoin:round;">
<circle cx="222.8486" cy="50.6737" r="0.2000" /> 
</g>
<g style="fill:#FFFFFF; fill-opacity:1.0000; 
stroke:#FFFFFF; stroke-width:0.0212; stroke-opacity:1; 
stroke-linecap:round; stroke-linejoin:round;">
</g>
<g style="fill:#FFFFFF; fill-opacity:1.0000; 
stroke:#FFFFFF; stroke-width:0.0000; stroke-opacity:1; 
stroke-linecap:round; stroke-linejoin:round;">
<circle cx="217.4022" cy="49.0000" r="0.2000" /> 
</g>
<g style="fill:#FFFFFF; fill-opacity:1.0000; 
stroke:#FFFFFF; stroke-width:0.0212; stroke-opacity:1; 
stroke-linecap:round; stroke-linejoin:round;">
</g>
<g style="fill:#FFFFFF; fill-opacity:1.0000; 
stroke:#FFFFFF; stroke-width:0.0000; stroke-opacity:1; 
stroke-linecap:round; stroke-linejoin:round;">
<circle cx="226.7285" cy="54.8464" r="0.2000" /> 
</g>
<g style="fill:#FFFFFF; fill-opacity:1.0000; 
stroke:#FFFFFF; stroke-width:0.0212; stroke-opacity:1; 
stroke-linecap:round; stroke-linejoin:round;">
</g>
<g style="fill:#FFFFFF; fill-opacity:1.0000; 
stroke:#FFFFFF; stroke-width:0.0000; stroke-opacity:1; 
stroke-linecap:round; stroke-linejoin:round;">
<circle cx="207.6759" cy="54.1536" r="0.2000" /> 
</g>
<g style="fill:#FFFFFF; fill-opacity:1.0000; 
stroke:#FFFFFF; stroke-width:0.0212; stroke-opacity:1; 
stroke-linecap:round; stroke-linejoin:round;">
</g>
<g style="fill:#FFFFFF; fill-opacity:1.0000; 
stroke:#FFFFFF; stroke-width:0.0000; stroke-opacity:1; 
stroke-linecap:round; stroke-linejoin:round;">
<circle cx="211.1558" cy="69.3263" r="0.2000" /> 
</g>
<g style="fill:#FFFFFF; fill-opacity:1.0000; 
stroke:#FFFFFF; stroke-width:0.0212; stroke-opacity:1; 
stroke-linecap:round; stroke-linejoin:round;">
</g>
<g style="fill:#FFFFFF; fill-opacity:1.0000; 
stroke:#FFFFFF; stroke-width:0.0000; stroke-opacity:1; 
stroke-linecap:round; stroke-linejoin:round;">
<circle cx="222.1558" cy="69.7263" r="0.2000" /> 
</g>
<g style="fill:#FFFFFF; fill-opacity:1.0000; 
stroke:#FFFFFF; stroke-width:0.0212; stroke-opacity:1; 
stroke-linecap:round; stroke-linejoin:round;">
</g>
<g style="fill:#FFFFFF; fill-opacity:1.0000; 
stroke:#FFFFFF; stroke-width:0.0000; stroke-opacity:1; 
stroke-linecap:round; stroke-linejoin:round;">
<circle cx="206.0022" cy="59.6000" r="0.2000" /> 
</g>
<g style="fill:#FFFFFF; fill-opacity:1.0000; 
stroke:#FFFFFF; stroke-width:0.0212; stroke-opacity:1; 
stroke-linecap:round; stroke-linejoin:round;">
</g>
<g style="fill:#FFFFFF; fill-opacity:1.0000; 
stroke:#FFFFFF; stroke-width:0.0000; stroke-opacity:1; 
stroke-linecap:round; stroke-linejoin:round;">
<circle cx="226.3285" cy="65.8464" r="0.2000" /> 
</g>
<g style="fill:#FFFFFF; fill-opacity:1.0000; 
stroke:#FFFFFF; stroke-width:0.0212; stroke-opacity:1; 
stroke-linecap:round; stroke-linejoin:round;">
</g>
<g style="fill:#FFFFFF; fill-opacity:1.0000; 
stroke:#FFFFFF; stroke-width:0.0000; stroke-opacity:1; 
stroke-linecap:round; stroke-linejoin:round;">
<circle cx="205.0022" cy="65.0000" r="0.2000" /> 
</g>
<g style="fill:#FFFFFF; fill-opacity:1.0000; 
stroke:#FFFFFF; stroke-width:0.0212; stroke-opacity:1; 
stroke-linecap:round; stroke-linejoin:round;">
</g>
<g style="fill:#FFFFFF; fill-opacity:1.0000; 
stroke:#FFFFFF; stroke-width:0.0000; stroke-opacity:1; 
stroke-linecap:round; stroke-linejoin:round;">
<circle cx="204.0022" cy="61.2000" r="0.2000" /> 
</g>
<g style="fill:#FFFFFF; fill-opacity:1.0000; 
stroke:#FFFFFF; stroke-width:0.0212; stroke-opacity:1; 
stroke-linecap:round; stroke-linejoin:round;">
</g>
<g style="fill:#FFFFFF; fill-opacity:1.0000; 
stroke:#FFFFFF; stroke-width:0.0000; stroke-opacity:1; 
stroke-linecap:round; stroke-linejoin:round;">
<circle cx="204.0022" cy="62.6000" r="0.2000" /> 
</g>
<g style="fill:#FFFFFF; fill-opacity:1.0000; 
stroke:#FFFFFF; stroke-width:0.0212; stroke-opacity:1; 
stroke-linecap:round; stroke-linejoin:round;">
</g>
<g style="fill:#FFFFFF; fill-opacity:1.0000; 
stroke:#FFFFFF; stroke-width:0.0000; stroke-opacity:1; 
stroke-linecap:round; stroke-linejoin:round;">
<circle cx="204.0022" cy="65.0000" r="0.2000" /> 
</g>
<g style="fill:#FFFFFF; fill-opacity:1.0000; 
stroke:#FFFFFF; stroke-width:0.0212; stroke-opacity:1; 
stroke-linecap:round; stroke-linejoin:round;">
</g>
<g style="fill:#FFFFFF; fill-opacity:1.0000; 
stroke:#FFFFFF; stroke-width:0.0000; stroke-opacity:1; 
stroke-linecap:round; stroke-linejoin:round;">
<circle cx="204.0022" cy="63.8000" r="0.2000" /> 
</g>
<g style="fill:#FFFFFF; fill-opacity:1.0000; 
stroke:#FFFFFF; stroke-width:0.0212; stroke-opacity:1; 
stroke-linecap:round; stroke-linejoin:round;">
</g>
<g style="fill:#FFFFFF; fill-opacity:1.0000; 
stroke:#FFFFFF; stroke-width:0.0000; stroke-opacity:1; 
stroke-linecap:round; stroke-linejoin:round;">
<circle cx="205.0022" cy="61.2000" r="0.2000" /> 
</g>
<g style="fill:#FFFFFF; fill-opacity:1.0000; 
stroke:#FFFFFF; stroke-width:0.0212; stroke-opacity:1; 
stroke-linecap:round; stroke-linejoin:round;">
</g>
<g style="fill:#000000; fill-opacity:1.0000; 
stroke:#000000; stroke-width:0.0212; stroke-opacity:1; 
stroke-linecap:round; stroke-linejoin:round;">
</g> 
</svg>
