<?xml version="1.0" standalone="no"?>
 <!DOCTYPE svg PUBLIC "-//W3C//DTD SVG 1.1//EN" 
 "http://www.w3.org/Graphics/SVG/1.1/DTD/svg11.dtd"> 
<svg
  xmlns:svg="http://www.w3.org/2000/svg"
  xmlns="http://www.w3.org/2000/svg"
  xmlns:xlink="http://www.w3.org/1999/xlink"
  version="1.1"
  width="297.0022mm" height="210.0072mm" viewBox="0.0000 0.0000 297.0022 210.0072">
<title>SVG Image created as pedalboard-led-ring-B_Cu.svg date 2023/06/03 17:44:50 </title>
  <desc>Image generated by PCBNEW </desc>
<g style="fill:#000000; fill-opacity:1.0000;stroke:#000000; stroke-opacity:1.0000;
stroke-linecap:round; stroke-linejoin:round;"
 transform="translate(0 0) scale(1 1)">
</g>
<g style="fill:#000000; fill-opacity:0.0; 
stroke:#000000; stroke-width:0.0000; stroke-opacity:1; 
stroke-linecap:round; stroke-linejoin:round;">
<g >
</g>
<g >
</g>
<g >
</g>
<g >
</g>
<g >
</g>
<g >
</g>
<g >
</g>
<g >
</g>
<g >
</g>
<g >
</g>
<g >
</g>
<g >
</g>
<g >
</g>
<g >
</g>
<g >
</g>
<g >
</g>
<g >
</g>
<g >
</g>
<g >
</g>
<g >
</g>
<g >
</g>
<g >
</g>
<g >
</g>
<g >
</g>
<g >
</g>
<g >
</g>
<g >
</g>
<g >
</g>
<g >
</g>
<g >
</g>
<g style="fill:#000000; fill-opacity:0.0; 
stroke:#000000; stroke-width:0.0000; stroke-opacity:1; 
stroke-linecap:round; stroke-linejoin:round;">
</g>
<g style="fill:#000000; fill-opacity:0.0; 
stroke:#000000; stroke-width:0.0000; stroke-opacity:1; 
stroke-linecap:round; stroke-linejoin:round;">
</g>
<g style="fill:#000000; fill-opacity:1.0000; 
stroke:#000000; stroke-width:0.0000; stroke-opacity:1; 
stroke-linecap:round; stroke-linejoin:round;">
<path style="fill:#000000; fill-opacity:1.0000; 
stroke:#000000; stroke-width:0.0000; stroke-opacity:1; 
stroke-linecap:round; stroke-linejoin:round;fill-rule:evenodd;"
d="M 205.5022,58.2500
206.5022,58.2500
206.5022,55.5000
205.5022,55.5000
Z" /> 
<path style="fill:#000000; fill-opacity:1.0000; 
stroke:#000000; stroke-width:0.0000; stroke-opacity:1; 
stroke-linecap:round; stroke-linejoin:round;fill-rule:evenodd;"
d="M 205.5022,64.5000
206.5022,64.5000
206.5022,61.7500
205.5022,61.7500
Z" /> 
<path style="fill:#000000; fill-opacity:1.0000; 
stroke:#000000; stroke-width:0.0000; stroke-opacity:1; 
stroke-linecap:round; stroke-linejoin:round;fill-rule:evenodd;"
d="M 207.5022,58.2500
208.5022,58.2500
208.5022,55.5000
207.5022,55.5000
Z" /> 
<path style="fill:#000000; fill-opacity:1.0000; 
stroke:#000000; stroke-width:0.0000; stroke-opacity:1; 
stroke-linecap:round; stroke-linejoin:round;fill-rule:evenodd;"
d="M 207.5022,64.5000
208.5022,64.5000
208.5022,61.7500
207.5022,61.7500
Z" /> 
</g>
<g >
</g>
<g style="fill:#000000; fill-opacity:1.0000; 
stroke:#000000; stroke-width:0.0000; stroke-opacity:1; 
stroke-linecap:round; stroke-linejoin:round;">
<path style="fill:#000000; fill-opacity:1.0000; 
stroke:#000000; stroke-width:0.0000; stroke-opacity:1; 
stroke-linecap:round; stroke-linejoin:round;fill-rule:evenodd;"
d="M 205.2522,71.5000
205.2522,70.5000
202.5022,70.5000
202.5022,71.5000
Z" /> 
<path style="fill:#000000; fill-opacity:1.0000; 
stroke:#000000; stroke-width:0.0000; stroke-opacity:1; 
stroke-linecap:round; stroke-linejoin:round;fill-rule:evenodd;"
d="M 211.5022,71.5000
211.5022,70.5000
208.7522,70.5000
208.7522,71.5000
Z" /> 
<path style="fill:#000000; fill-opacity:1.0000; 
stroke:#000000; stroke-width:0.0000; stroke-opacity:1; 
stroke-linecap:round; stroke-linejoin:round;fill-rule:evenodd;"
d="M 205.2522,69.5000
205.2522,68.5000
202.5022,68.5000
202.5022,69.5000
Z" /> 
<path style="fill:#000000; fill-opacity:1.0000; 
stroke:#000000; stroke-width:0.0000; stroke-opacity:1; 
stroke-linecap:round; stroke-linejoin:round;fill-rule:evenodd;"
d="M 211.5022,69.5000
211.5022,68.5000
208.7522,68.5000
208.7522,69.5000
Z" /> 
</g>
<g >
</g>
<g style="fill:#000000; fill-opacity:1.0000; 
stroke:#000000; stroke-width:0.0000; stroke-opacity:1; 
stroke-linecap:round; stroke-linejoin:round;">
<circle cx="210.2022" cy="63.6000" r="0.4000" /> 
</g>
<g style="fill:#000000; fill-opacity:1.0000; 
stroke:#000000; stroke-width:0.0212; stroke-opacity:1; 
stroke-linecap:round; stroke-linejoin:round;">
</g>
<g style="fill:#000000; fill-opacity:1.0000; 
stroke:#000000; stroke-width:0.0000; stroke-opacity:1; 
stroke-linecap:round; stroke-linejoin:round;">
<circle cx="223.0022" cy="52.0000" r="0.4000" /> 
</g>
<g style="fill:#000000; fill-opacity:1.0000; 
stroke:#000000; stroke-width:0.0212; stroke-opacity:1; 
stroke-linecap:round; stroke-linejoin:round;">
</g>
<g style="fill:#000000; fill-opacity:1.0000; 
stroke:#000000; stroke-width:0.0000; stroke-opacity:1; 
stroke-linecap:round; stroke-linejoin:round;">
<circle cx="207.0740" cy="58.8038" r="0.4000" /> 
</g>
<g style="fill:#000000; fill-opacity:1.0000; 
stroke:#000000; stroke-width:0.0212; stroke-opacity:1; 
stroke-linecap:round; stroke-linejoin:round;">
</g>
<g style="fill:#000000; fill-opacity:1.0000; 
stroke:#000000; stroke-width:0.0000; stroke-opacity:1; 
stroke-linecap:round; stroke-linejoin:round;">
<circle cx="226.9304" cy="61.1962" r="0.4000" /> 
</g>
<g style="fill:#000000; fill-opacity:1.0000; 
stroke:#000000; stroke-width:0.0212; stroke-opacity:1; 
stroke-linecap:round; stroke-linejoin:round;">
</g>
<g style="fill:#000000; fill-opacity:1.0000; 
stroke:#000000; stroke-width:0.0000; stroke-opacity:1; 
stroke-linecap:round; stroke-linejoin:round;">
<circle cx="220.9304" cy="69.1962" r="0.4000" /> 
</g>
<g style="fill:#000000; fill-opacity:1.0000; 
stroke:#000000; stroke-width:0.0212; stroke-opacity:1; 
stroke-linecap:round; stroke-linejoin:round;">
</g>
<g style="fill:#000000; fill-opacity:1.0000; 
stroke:#000000; stroke-width:0.0000; stroke-opacity:1; 
stroke-linecap:round; stroke-linejoin:round;">
<circle cx="215.8060" cy="69.9282" r="0.4000" /> 
</g>
<g style="fill:#000000; fill-opacity:1.0000; 
stroke:#000000; stroke-width:0.0212; stroke-opacity:1; 
stroke-linecap:round; stroke-linejoin:round;">
</g>
<g style="fill:#000000; fill-opacity:1.0000; 
stroke:#000000; stroke-width:0.0000; stroke-opacity:1; 
stroke-linecap:round; stroke-linejoin:round;">
<circle cx="213.0740" cy="50.8038" r="0.4000" /> 
</g>
<g style="fill:#000000; fill-opacity:1.0000; 
stroke:#000000; stroke-width:0.0212; stroke-opacity:1; 
stroke-linecap:round; stroke-linejoin:round;">
</g>
<g style="fill:#000000; fill-opacity:1.0000; 
stroke:#000000; stroke-width:0.0000; stroke-opacity:1; 
stroke-linecap:round; stroke-linejoin:round;">
<circle cx="225.0022" cy="66.0000" r="0.4000" /> 
</g>
<g style="fill:#000000; fill-opacity:1.0000; 
stroke:#000000; stroke-width:0.0212; stroke-opacity:1; 
stroke-linecap:round; stroke-linejoin:round;">
</g>
<g style="fill:#000000; fill-opacity:1.0000; 
stroke:#000000; stroke-width:0.0000; stroke-opacity:1; 
stroke-linecap:round; stroke-linejoin:round;">
<circle cx="210.6022" cy="67.7000" r="0.4000" /> 
</g>
<g style="fill:#000000; fill-opacity:1.0000; 
stroke:#000000; stroke-width:0.0212; stroke-opacity:1; 
stroke-linecap:round; stroke-linejoin:round;">
</g>
<g style="fill:#000000; fill-opacity:1.0000; 
stroke:#000000; stroke-width:0.0000; stroke-opacity:1; 
stroke-linecap:round; stroke-linejoin:round;">
<circle cx="226.1984" cy="56.0718" r="0.4000" /> 
</g>
<g style="fill:#000000; fill-opacity:1.0000; 
stroke:#000000; stroke-width:0.0212; stroke-opacity:1; 
stroke-linecap:round; stroke-linejoin:round;">
</g>
<g style="fill:#000000; fill-opacity:1.0000; 
stroke:#000000; stroke-width:0.0000; stroke-opacity:1; 
stroke-linecap:round; stroke-linejoin:round;">
<circle cx="209.0022" cy="54.0000" r="0.4000" /> 
</g>
<g style="fill:#000000; fill-opacity:1.0000; 
stroke:#000000; stroke-width:0.0212; stroke-opacity:1; 
stroke-linecap:round; stroke-linejoin:round;">
</g>
<g style="fill:#000000; fill-opacity:1.0000; 
stroke:#000000; stroke-width:0.0000; stroke-opacity:1; 
stroke-linecap:round; stroke-linejoin:round;">
<circle cx="208.5022" cy="66.0000" r="0.4000" /> 
</g>
<g style="fill:#000000; fill-opacity:1.0000; 
stroke:#000000; stroke-width:0.0212; stroke-opacity:1; 
stroke-linecap:round; stroke-linejoin:round;">
</g>
<g style="fill:#000000; fill-opacity:1.0000; 
stroke:#000000; stroke-width:0.0000; stroke-opacity:1; 
stroke-linecap:round; stroke-linejoin:round;">
<circle cx="218.1984" cy="50.0718" r="0.4000" /> 
</g>
<g style="fill:#000000; fill-opacity:1.0000; 
stroke:#000000; stroke-width:0.0212; stroke-opacity:1; 
stroke-linecap:round; stroke-linejoin:round;">
</g>
<g style="fill:#000000; fill-opacity:1.0000; 
stroke:#000000; stroke-width:0.0000; stroke-opacity:1; 
stroke-linecap:round; stroke-linejoin:round;">
<circle cx="206.4022" cy="61.4000" r="0.4000" /> 
</g>
<g style="fill:#000000; fill-opacity:1.0000; 
stroke:#000000; stroke-width:0.0212; stroke-opacity:1; 
stroke-linecap:round; stroke-linejoin:round;">
</g>
<g style="fill:#000000; fill-opacity:1.0000; 
stroke:#000000; stroke-width:0.0000; stroke-opacity:1; 
stroke-linecap:round; stroke-linejoin:round;">
<circle cx="211.9022" cy="70.6000" r="0.4000" /> 
</g>
<g style="fill:#000000; fill-opacity:1.0000; 
stroke:#000000; stroke-width:0.0212; stroke-opacity:1; 
stroke-linecap:round; stroke-linejoin:round;">
</g>
<g style="fill:#000000; fill-opacity:1.0000; 
stroke:#000000; stroke-width:0.0000; stroke-opacity:1; 
stroke-linecap:round; stroke-linejoin:round;">
<circle cx="205.6022" cy="61.4000" r="0.4000" /> 
</g>
<g style="fill:#000000; fill-opacity:1.0000; 
stroke:#000000; stroke-width:0.0212; stroke-opacity:1; 
stroke-linecap:round; stroke-linejoin:round;">
</g>
<g style="fill:#000000; fill-opacity:1.0000; 
stroke:#000000; stroke-width:0.0000; stroke-opacity:1; 
stroke-linecap:round; stroke-linejoin:round;">
<circle cx="205.6022" cy="64.9000" r="0.4000" /> 
</g>
<g style="fill:#000000; fill-opacity:1.0000; 
stroke:#000000; stroke-width:0.0212; stroke-opacity:1; 
stroke-linecap:round; stroke-linejoin:round;">
</g>
<g style="fill:#000000; fill-opacity:1.0000; 
stroke:#000000; stroke-width:0.0000; stroke-opacity:1; 
stroke-linecap:round; stroke-linejoin:round;">
<circle cx="206.3022" cy="64.9000" r="0.4000" /> 
</g>
<g style="fill:#000000; fill-opacity:1.0000; 
stroke:#000000; stroke-width:0.0212; stroke-opacity:1; 
stroke-linecap:round; stroke-linejoin:round;">
</g>
<g style="fill:#000000; fill-opacity:1.0000; 
stroke:#000000; stroke-width:0.0000; stroke-opacity:1; 
stroke-linecap:round; stroke-linejoin:round;">
<circle cx="208.4022" cy="70.6000" r="0.4000" /> 
</g>
<g style="fill:#000000; fill-opacity:1.0000; 
stroke:#000000; stroke-width:0.0212; stroke-opacity:1; 
stroke-linecap:round; stroke-linejoin:round;">
</g>
<g style="fill:#000000; fill-opacity:1.0000; 
stroke:#000000; stroke-width:0.0000; stroke-opacity:1; 
stroke-linecap:round; stroke-linejoin:round;">
<circle cx="208.4022" cy="71.4000" r="0.4000" /> 
</g>
<g style="fill:#000000; fill-opacity:1.0000; 
stroke:#000000; stroke-width:0.0212; stroke-opacity:1; 
stroke-linecap:round; stroke-linejoin:round;">
</g>
<g style="fill:#000000; fill-opacity:1.0000; 
stroke:#000000; stroke-width:0.0000; stroke-opacity:1; 
stroke-linecap:round; stroke-linejoin:round;">
<circle cx="211.9022" cy="71.4000" r="0.4000" /> 
</g>
<g style="fill:#000000; fill-opacity:1.0000; 
stroke:#000000; stroke-width:0.0212; stroke-opacity:1; 
stroke-linecap:round; stroke-linejoin:round;">
</g>
<g style="fill:#000000; fill-opacity:1.0000; 
stroke:#000000; stroke-width:0.0000; stroke-opacity:1; 
stroke-linecap:round; stroke-linejoin:round;">
<circle cx="209.0922" cy="61.8200" r="0.4000" /> 
</g>
<g style="fill:#000000; fill-opacity:1.0000; 
stroke:#000000; stroke-width:0.0212; stroke-opacity:1; 
stroke-linecap:round; stroke-linejoin:round;">
</g>
<g >
</g>
<g style="fill:#000000; fill-opacity:1.0000; 
stroke:#000000; stroke-width:0.0212; stroke-opacity:1; 
stroke-linecap:round; stroke-linejoin:round;">
</g>
<g style="fill:#000000; fill-opacity:1.0000; 
stroke:#000000; stroke-width:0.2500; stroke-opacity:1; 
stroke-linecap:round; stroke-linejoin:round;">
</g>
<g style="fill:#000000; fill-opacity:0.0; 
stroke:#000000; stroke-width:0.2500; stroke-opacity:1; 
stroke-linecap:round; stroke-linejoin:round;">
<path d="M212.2022 67.1000
L210.2022 65.1000
" />
<path d="M208.0022 63.1250
L208.8772 64.0000
" />
<path d="M211.6022 69.0000
L212.2022 68.4000
" />
<path d="M210.1272 69.0000
L211.6022 69.0000
" />
<path d="M212.2022 68.4000
L212.2022 67.1000
" />
<path d="M209.8022 64.0000
L210.2022 63.6000
" />
<path d="M208.8772 64.0000
L209.8022 64.0000
" />
<path d="M210.2022 65.1000
L210.2022 63.6000
" />
<path d="M205.6022 61.4000
L205.6022 64.9000
" />
<path d="M211.9022 70.6000
L211.9022 71.4000
" />
<path d="M208.4022 70.6000
L208.4022 71.4000
" />
<path d="M206.3022 61.5000
L206.3022 64.9000
" />
<path d="M206.4022 61.4000
L205.6022 61.4000
" />
<path d="M206.4022 61.4000
L206.3022 61.5000
" />
<path d="M211.9022 71.4000
L208.4022 71.4000
" />
<path d="M206.3022 64.9000
L205.6022 64.9000
" />
<path d="M211.9022 70.6000
L208.4022 70.6000
" />
<path d="M209.0022 57.0000
L209.0022 61.7300
" />
<path d="M209.0022 61.7300
L209.0922 61.8200
" />
<path d="M204.2022 60.5000
L204.2022 68.6750
" />
<path d="M208.0022 56.8750
L208.8772 56.8750
" />
<path d="M208.8772 56.8750
L209.0022 57.0000
" />
<path d="M209.0922 61.8200
L207.7722 60.5000
" />
<path d="M207.7722 60.5000
L204.2022 60.5000
" />
</g>
<g >
</g>
<g style="fill:#000000; fill-opacity:0.0; 
stroke:#000000; stroke-width:0.2500; stroke-opacity:1; 
stroke-linecap:round; stroke-linejoin:round;">
<g >
</g>
<g style="fill:#000000; fill-opacity:1.0000; 
stroke:#000000; stroke-width:0.0000; stroke-opacity:1; 
stroke-linecap:round; stroke-linejoin:round;">
<path style="fill:#000000; fill-opacity:1.0000; 
stroke:#000000; stroke-width:0.0000; stroke-opacity:1; 
stroke-linecap:round; stroke-linejoin:round;fill-rule:evenodd;"
d="M 203.0001,48.0007
202.9567,48.0045
202.8284,48.0171
202.8125,48.0200
202.7446,48.0382
202.7432,48.0386
202.6489,48.0672
202.6358,48.0722
202.5665,48.1045
202.5641,48.1057
202.4792,48.1511
202.4741,48.1542
202.4070,48.2013
202.4040,48.2035
202.3693,48.2320
202.3309,48.2635
202.3273,48.2668
202.2690,48.3251
202.2657,48.3287
202.2057,48.4018
202.2035,48.4048
202.1564,48.4719
202.1533,48.4770
202.1079,48.5619
202.1067,48.5643
202.0744,48.6336
202.0694,48.6467
202.0408,48.7409
202.0404,48.7424
202.0222,48.8103
202.0193,48.8262
202.0067,48.9545
202.0029,48.9978
202.0027,49.0022
202.0027,70.9978
202.0029,71.0022
202.0067,71.0455
202.0131,71.1103
202.0376,71.1664
202.0904,71.1973
202.1513,71.1913
202.1816,71.1706
202.2022,71.1500
203.7272,71.1500
203.7272,71.1500
203.7272,71.8000
203.7272,71.8000
202.9894,71.8000
202.9312,71.8189
202.8952,71.8684
202.8952,71.9296
202.9312,71.9791
202.9807,71.9976
203.0000,71.9993
203.0044,71.9995
207.9061,71.9995
207.9643,71.9806
208.0003,71.9311
208.0003,71.8699
207.9761,71.8305
207.9739,71.8283
207.9739,71.8283
207.8777,71.7028
207.8172,71.5568
207.7965,71.4000
207.8172,71.2432
207.8172,71.2432
207.8558,71.1500
205.5522,71.1500
205.5522,71.5448
205.5493,71.5699
205.5040,71.6725
205.4247,71.7518
205.3221,71.7971
205.2970,71.8000
204.0272,71.8000
204.0272,71.8000
204.0272,71.1500
204.0272,71.1500
205.5522,71.1500
207.8558,71.1500
207.8777,71.0972
207.8777,71.0972
207.8777,71.0972
207.9060,71.0603
207.9264,71.0026
207.9090,70.9439
207.9060,70.9397
207.9060,70.9397
207.8777,70.9028
207.8558,70.8500
205.5522,70.8500
205.5522,70.8500
204.0272,70.8500
204.0272,70.8500
203.7272,70.8500
203.7272,70.8500
202.2022,70.8500
202.2022,70.8500
202.2022,70.4552
202.2022,70.4552
202.2051,70.4301
202.2504,70.3275
202.3297,70.2482
202.4323,70.2029
202.4574,70.2000
203.7272,70.2000
203.7272,70.2000
203.7272,70.8500
204.0272,70.8500
204.0272,70.2000
204.0272,70.2000
205.2970,70.2000
205.2970,70.2000
205.3221,70.2029
205.4247,70.2482
205.5040,70.3275
205.5493,70.4301
205.5522,70.4552
205.5522,70.8500
207.8558,70.8500
207.8172,70.7568
207.7965,70.6000
207.8172,70.4432
207.8777,70.2972
207.8777,70.2972
207.9739,70.1717
207.9739,70.1717
207.9739,70.1717
207.9739,70.1717
207.9739,70.1717
208.0994,70.0755
208.2454,70.0150
208.2454,70.0150
208.4022,69.9943
208.4022,69.9943
208.5590,70.0150
208.5590,70.0150
208.7050,70.0755
208.7050,70.0755
208.8305,70.1717
208.8305,70.1717
208.8544,70.2029
208.8793,70.2354
208.8796,70.2358
208.9301,70.2704
208.9582,70.2745
211.3462,70.2745
211.4044,70.2556
211.4248,70.2358
211.4251,70.2354
211.4739,70.1717
211.4739,70.1717
211.4739,70.1717
211.5994,70.0755
211.7454,70.0150
211.7454,70.0150
211.9022,69.9943
211.9022,69.9943
212.0590,70.0150
212.0590,70.0150
212.2050,70.0755
212.2050,70.0755
212.3305,70.1717
212.3305,70.1717
212.4267,70.2972
212.4267,70.2972
212.4872,70.4432
212.4872,70.4432
212.4899,70.4637
212.5079,70.6000
212.4872,70.7568
212.4267,70.9028
212.3984,70.9397
212.3780,70.9974
212.3954,71.0561
212.3984,71.0603
212.4267,71.0972
212.4267,71.0972
212.4872,71.2432
212.4872,71.2432
212.5079,71.4000
212.5079,71.4000
212.4872,71.5568
212.4872,71.5568
212.4267,71.7028
212.4267,71.7028
212.3305,71.8283
212.3305,71.8283
212.3305,71.8283
212.3283,71.8305
212.3272,71.8325
212.3265,71.8334
212.3267,71.8336
212.3005,71.8850
212.3101,71.9454
212.3533,71.9887
212.3983,71.9995
228.0000,71.9995
228.0044,71.9993
228.0477,71.9955
228.1760,71.9829
228.1919,71.9800
228.2288,71.9701
228.2598,71.9618
228.2613,71.9614
228.3555,71.9328
228.3686,71.9278
228.4379,71.8955
228.4403,71.8943
228.5252,71.8489
228.5303,71.8458
228.5974,71.7987
228.6004,71.7965
228.6735,71.7365
228.6771,71.7332
228.7354,71.6749
228.7387,71.6713
228.7987,71.5982
228.8009,71.5952
228.8279,71.5568
228.8480,71.5280
228.8511,71.5230
228.8965,71.4381
228.8977,71.4357
228.9300,71.3664
228.9350,71.3533
228.9636,71.2590
228.9640,71.2576
228.9822,71.1897
228.9851,71.1738
228.9977,71.0454
228.9983,71.0385
229.0015,71.0021
229.0017,70.9978
229.0017,70.0000
228.3579,70.0000
228.3373,70.2354
228.3373,70.2354
228.3373,70.2354
228.3126,70.3275
228.2761,70.4637
228.1762,70.6778
228.1762,70.6778
228.0557,70.8500
228.0407,70.8714
227.8736,71.0385
227.8736,71.0385
227.8736,71.0385
227.8485,71.0561
227.6800,71.1740
227.6800,71.1740
227.6800,71.1740
227.6800,71.1740
227.4659,71.2739
227.4659,71.2739
227.2376,71.3351
227.2376,71.3351
227.2376,71.3351
227.0612,71.3505
227.0612,71.3505
226.9432,71.3505
226.7668,71.3351
226.7668,71.3351
226.7668,71.3351
226.5385,71.2739
226.3244,71.1740
226.1308,71.0385
225.9637,70.8714
225.8282,70.6778
225.7283,70.4637
225.6671,70.2354
225.6671,70.2354
225.6465,70.0000
225.6465,70.0000
225.6671,69.7646
225.6671,69.7646
225.6671,69.7646
225.7283,69.5363
225.7360,69.5198
225.8282,69.3222
225.8282,69.3222
225.8363,69.3106
225.9637,69.1286
226.1308,68.9615
226.1308,68.9615
226.1308,68.9615
226.3244,68.8260
226.3244,68.8260
226.5385,68.7261
226.5385,68.7261
226.6146,68.7057
226.7668,68.6649
226.7668,68.6649
226.7668,68.6649
226.9432,68.6495
226.9432,68.6495
227.0612,68.6495
227.0612,68.6495
227.2376,68.6649
227.4659,68.7261
227.6800,68.8260
227.6800,68.8260
227.8736,68.9615
228.0407,69.1286
228.1762,69.3222
228.2761,69.5363
228.3373,69.7646
228.3579,70.0000
228.3579,70.0000
229.0017,70.0000
229.0017,68.4288
212.5315,68.4288
212.5208,68.4684
212.5199,68.4727
212.5128,68.5130
212.5120,68.5143
212.5021,68.5382
212.5018,68.5397
212.5018,68.5397
212.4782,68.5733
212.4759,68.5769
212.4554,68.6125
212.4240,68.6388
212.4208,68.6417
211.8439,69.2186
211.8410,69.2218
211.8147,69.2532
211.8147,69.2532
211.7791,69.2737
211.7755,69.2760
211.7449,69.2974
211.7081,69.3463
211.7027,69.3785
211.7027,69.5197
211.7027,69.5198
211.6911,69.5782
211.6911,69.5782
211.6468,69.6446
211.5804,69.6889
211.5360,69.6977
211.5220,69.7005
211.5220,69.7005
211.5219,69.7005
211.5219,69.7005
208.7325,69.7005
208.7325,69.7005
208.6740,69.6889
208.6076,69.6446
208.5633,69.5782
208.5517,69.5197
208.5517,68.4803
208.5633,68.4218
208.6076,68.3554
208.6077,68.3554
208.6740,68.3111
208.6740,68.3111
208.6740,68.3111
208.6740,68.3111
208.7324,68.2995
208.7325,68.2995
211.5219,68.2995
211.5219,68.2995
211.5220,68.2995
211.5804,68.3111
211.5804,68.3111
211.6549,68.3609
211.6555,68.3598
211.7011,68.3831
211.7615,68.3735
211.7866,68.3553
211.8477,68.2942
211.8755,68.2397
211.8767,68.2242
211.8767,67.2758
211.8578,67.2176
211.8477,67.2058
209.9836,65.3417
209.9804,65.3388
209.9490,65.3125
209.9285,65.2769
209.9262,65.2733
209.9026,65.2397
209.9023,65.2382
209.8924,65.2143
209.8916,65.2130
209.8916,65.2130
209.8916,65.2130
209.8845,65.1726
209.8836,65.1684
209.8729,65.1288
209.8765,65.0879
209.8767,65.0836
209.8767,64.4245
209.8578,64.3663
209.8083,64.3303
209.7777,64.3255
208.8936,64.3255
208.8893,64.3257
208.8484,64.3293
208.8273,64.3236
208.7662,64.3268
208.7187,64.3653
208.7027,64.4192
208.7027,64.5197
208.7027,64.5198
208.6911,64.5782
208.6911,64.5782
208.6468,64.6445
208.6468,64.6446
208.5804,64.6889
208.5360,64.6977
208.5220,64.7005
208.5220,64.7005
208.5219,64.7005
208.5219,64.7005
207.4825,64.7005
207.4825,64.7005
207.4240,64.6889
207.3576,64.6446
207.3133,64.5782
207.3017,64.5197
207.3017,61.7303
207.3133,61.6718
207.3576,61.6054
207.3577,61.6054
207.4240,61.5611
207.4240,61.5611
207.4240,61.5611
207.4240,61.5611
207.4824,61.5495
207.4825,61.5495
207.4825,61.5495
208.1224,61.5495
208.1806,61.5306
208.2165,61.4811
208.2165,61.4199
208.1924,61.3805
207.6664,60.8545
207.6119,60.8267
207.5964,60.8255
206.9190,60.8255
206.8608,60.8444
206.8249,60.8939
206.8249,60.9551
206.8405,60.9848
206.9267,61.0972
206.9267,61.0972
206.9872,61.2432
206.9872,61.2432
207.0079,61.4000
207.0079,61.4000
206.9872,61.5568
206.9872,61.5568
206.9267,61.7028
206.9267,61.7028
206.8368,61.8200
206.8305,61.8283
206.8305,61.8283
206.8305,61.8283
206.7414,61.8966
206.7068,61.9470
206.7027,61.9752
206.7027,64.4029
206.7216,64.4611
206.7289,64.4697
206.8267,64.5972
206.8267,64.5972
206.8872,64.7432
206.8872,64.7432
206.9079,64.9000
206.9079,64.9000
206.8872,65.0568
206.8872,65.0568
206.8267,65.2028
206.8267,65.2028
206.7305,65.3283
206.7305,65.3283
206.6050,65.4245
206.4590,65.4850
206.3414,65.5005
206.3022,65.5057
206.3022,65.5057
206.3022,65.5057
206.2708,65.5016
206.1454,65.4850
206.0917,65.4628
205.9934,65.4221
205.9926,65.4239
205.9419,65.4132
205.9114,65.4230
205.9110,65.4221
205.7590,65.4850
205.7590,65.4850
205.6414,65.5005
205.6022,65.5057
205.6022,65.5057
205.6022,65.5057
205.5708,65.5016
205.4454,65.4850
205.2994,65.4245
205.1739,65.3283
205.0777,65.2028
205.0172,65.0568
204.9965,64.9000
205.0172,64.7432
205.0349,64.7005
205.0777,64.5972
205.0777,64.5972
205.1739,64.4717
205.2380,64.4226
205.2726,64.3721
205.2767,64.3440
205.2767,61.9560
205.2578,61.8978
205.2380,61.8774
205.1739,61.8283
205.0777,61.7028
205.0172,61.5568
204.9965,61.4000
205.0172,61.2432
205.0777,61.0972
205.0777,61.0972
205.1639,60.9848
205.1843,60.9271
205.1670,60.8684
205.1184,60.8312
205.0854,60.8255
204.6267,60.8255
204.5685,60.8444
204.5325,60.8939
204.5277,60.9245
204.5277,68.2005
204.5466,68.2587
204.5961,68.2947
204.6267,68.2995
205.2719,68.2995
205.2719,68.2995
205.2720,68.2995
205.3304,68.3111
205.3304,68.3111
205.3967,68.3554
205.3968,68.3555
205.4411,68.4218
205.4411,68.4218
205.4527,68.4802
205.4527,68.4803
205.4527,69.5197
205.4527,69.5198
205.4411,69.5782
205.4411,69.5782
205.3968,69.6446
205.3304,69.6889
205.2860,69.6977
205.2720,69.7005
205.2720,69.7005
205.2719,69.7005
205.2719,69.7005
202.4825,69.7005
202.4825,69.7005
202.4240,69.6889
202.3576,69.6446
202.3133,69.5782
202.3017,69.5197
202.3017,68.4803
202.3133,68.4218
202.3576,68.3554
202.3577,68.3554
202.4240,68.3111
202.4240,68.3111
202.4240,68.3111
202.4240,68.3111
202.4824,68.2995
202.4825,68.2995
202.4825,68.2995
203.7777,68.2995
203.8359,68.2806
203.8719,68.2311
203.8767,68.2005
203.8767,60.4426
203.8836,60.4236
203.8881,60.4069
203.8916,60.3870
203.9017,60.3694
203.9090,60.3538
203.9160,60.3347
203.9160,60.3347
203.9290,60.3192
203.9389,60.3051
203.9490,60.2875
203.9645,60.2745
203.9767,60.2623
203.9897,60.2468
204.0073,60.2367
204.0214,60.2268
204.0369,60.2138
204.0369,60.2138
204.0560,60.2068
204.0716,60.1995
204.0892,60.1894
204.1091,60.1859
204.1258,60.1814
204.1448,60.1745
204.1448,60.1745
204.1737,60.1745
207.7558,60.1745
207.7601,60.1743
207.8010,60.1707
207.8010,60.1707
207.8406,60.1814
207.8449,60.1823
207.8852,60.1894
207.8853,60.1894
207.8866,60.1902
207.9104,60.2001
207.9119,60.2004
207.9119,60.2004
207.9455,60.2240
207.9491,60.2263
207.9500,60.2268
207.9847,60.2468
208.0110,60.2782
208.0139,60.2814
208.5077,60.7752
208.5622,60.8029
208.6226,60.7934
208.6659,60.7501
208.6767,60.7052
208.6767,58.5403
208.6578,58.4822
208.6083,58.4462
208.5584,58.4433
208.5306,58.4488
208.5220,58.4505
208.5220,58.4505
208.5219,58.4505
208.5219,58.4505
207.4825,58.4505
207.4825,58.4505
207.4240,58.4389
207.3576,58.3946
207.3133,58.3282
207.3017,58.2697
207.3017,57.0250
206.8022,57.0250
206.8022,58.2948
206.7993,58.3199
206.7540,58.4225
206.6747,58.5018
206.5721,58.5471
206.5470,58.5500
206.1522,58.5500
206.1522,58.5500
205.8522,58.5500
205.8522,58.5500
205.4574,58.5500
205.4574,58.5500
205.4323,58.5471
205.3297,58.5018
205.2504,58.4225
205.2051,58.3199
205.2022,58.2948
205.2022,58.2948
205.2022,57.0250
205.2022,57.0250
205.8522,57.0250
205.8522,57.0250
205.8522,58.5500
206.1522,58.5500
206.1522,57.0250
206.1522,57.0250
206.8022,57.0250
207.3017,57.0250
207.3017,56.7250
206.8022,56.7250
206.8022,56.7250
206.1522,56.7250
206.1522,56.7250
206.1522,55.2000
205.8522,55.2000
205.8522,56.7250
205.8522,56.7250
205.2022,56.7250
205.2022,56.7250
205.2022,55.4552
205.2022,55.4552
205.2051,55.4301
205.2504,55.3275
205.3297,55.2482
205.4323,55.2029
205.4574,55.2000
205.8522,55.2000
206.1522,55.2000
206.5470,55.2000
206.5470,55.2000
206.5721,55.2029
206.6747,55.2482
206.7540,55.3275
206.7993,55.4301
206.8022,55.4552
206.8022,56.7250
207.3017,56.7250
207.3017,55.4803
207.3133,55.4218
207.3576,55.3554
207.3577,55.3554
207.4240,55.3111
207.4240,55.3111
207.4240,55.3111
207.4240,55.3111
207.4824,55.2995
207.4825,55.2995
208.5219,55.2995
208.5219,55.2995
208.5220,55.2995
208.5804,55.3111
208.5804,55.3111
208.6467,55.3554
208.6468,55.3555
208.6911,55.4218
208.6911,55.4218
208.7027,55.4802
208.7027,55.4803
208.7027,56.4505
208.7216,56.5087
208.7711,56.5447
208.8017,56.5495
208.8608,56.5495
208.8651,56.5493
208.9060,56.5457
208.9060,56.5457
208.9456,56.5564
208.9499,56.5573
208.9902,56.5644
208.9903,56.5644
208.9916,56.5652
209.0154,56.5751
209.0169,56.5754
209.0169,56.5754
209.0505,56.5990
209.0541,56.6013
209.0623,56.6060
209.0897,56.6218
209.1160,56.6532
209.1189,56.6564
209.2208,56.7583
209.2240,56.7612
209.2554,56.7875
209.2554,56.7875
209.2759,56.8231
209.2782,56.8267
209.3018,56.8603
209.3018,56.8603
209.3021,56.8618
209.3120,56.8856
209.3128,56.8869
209.3128,56.8870
209.3199,56.9273
209.3208,56.9316
209.3315,56.9712
209.3315,56.9712
209.3279,57.0121
209.3277,57.0164
209.3277,61.2014
209.3466,61.2596
209.3888,61.2929
209.3950,61.2955
209.5205,61.3917
209.5205,61.3917
209.6167,61.5172
209.6167,61.5172
209.6772,61.6632
209.6772,61.6632
209.6979,61.8200
209.6979,61.8200
209.6772,61.9768
209.6772,61.9768
209.6167,62.1228
209.6167,62.1228
209.6167,62.1228
209.5205,62.2483
209.3950,62.3445
209.3950,62.3445
209.3950,62.3445
209.3448,62.3653
209.2490,62.4050
209.1314,62.4205
209.0922,62.4257
209.0922,62.4257
209.0922,62.4257
209.0608,62.4216
208.9354,62.4050
208.8396,62.3653
208.7786,62.3605
208.7264,62.3925
208.7030,62.4490
208.7027,62.4568
208.7027,63.3242
208.7216,63.3824
208.7317,63.3942
208.9830,63.6455
209.0375,63.6733
209.0530,63.6745
209.4999,63.6745
209.5581,63.6556
209.5940,63.6061
209.5980,63.5884
209.6172,63.4432
209.6172,63.4432
209.6777,63.2972
209.6777,63.2972
209.7739,63.1717
209.7739,63.1717
209.7739,63.1717
209.7739,63.1717
209.7739,63.1717
209.8994,63.0755
210.0454,63.0150
210.0454,63.0150
210.2022,62.9943
210.2022,62.9943
210.3590,63.0150
210.3590,63.0150
210.5050,63.0755
210.5050,63.0755
210.6305,63.1717
210.6305,63.1717
210.7267,63.2972
210.7267,63.2972
210.7872,63.4432
210.7872,63.4432
210.8079,63.6000
210.8079,63.6000
210.7872,63.7568
210.7872,63.7568
210.7267,63.9028
210.7267,63.9028
210.7267,63.9028
210.6305,64.0283
210.6039,64.0487
210.5664,64.0774
210.5318,64.1279
210.5277,64.1560
210.5277,64.9242
210.5466,64.9824
210.5567,64.9942
212.4208,66.8583
212.4240,66.8612
212.4554,66.8875
212.4554,66.8875
212.4759,66.9231
212.4782,66.9267
212.5018,66.9603
212.5018,66.9603
212.5021,66.9618
212.5120,66.9856
212.5128,66.9869
212.5128,66.9870
212.5199,67.0273
212.5208,67.0316
212.5315,67.0712
212.5315,67.0712
212.5279,67.1121
212.5277,67.1164
212.5277,68.3836
212.5279,68.3879
212.5308,68.4218
212.5315,68.4288
229.0017,68.4288
229.0017,60.0000
223.1077,60.0000
223.0879,60.4913
223.0879,60.4913
223.0879,60.4913
223.0879,60.4913
223.0286,60.9794
223.0286,60.9794
222.9302,61.4611
222.9302,61.4611
222.7934,61.9334
222.7934,61.9334
222.7216,62.1228
222.6191,62.3931
222.4642,62.7195
222.4096,62.8346
222.4083,62.8373
222.1625,63.2632
222.1625,63.2632
221.8832,63.6678
221.5722,64.0487
221.2319,64.4029
221.2316,64.4033
221.0341,64.5782
220.8636,64.7293
220.8636,64.7293
220.4705,65.0247
220.3773,65.0836
220.0549,65.2875
220.0549,65.2875
220.0549,65.2875
220.0549,65.2875
219.6676,65.4908
219.6196,65.5160
219.1672,65.7087
218.9367,65.7857
218.7009,65.8644
218.7008,65.8644
218.7008,65.8644
218.2234,65.9821
217.7381,66.0609
217.2480,66.1005
217.2480,66.1005
216.7564,66.1005
216.7564,66.1005
216.2663,66.0609
215.7810,65.9821
215.3036,65.8644
214.8372,65.7087
214.3848,65.5160
214.1391,65.3870
213.9495,65.2875
213.9495,65.2875
213.9495,65.2875
213.5339,65.0247
213.1408,64.7293
212.7728,64.4033
212.4322,64.0487
212.1212,63.6678
211.8419,63.2632
211.5961,62.8373
211.3853,62.3931
211.2110,61.9334
211.2110,61.9334
211.2110,61.9334
211.0742,61.4611
211.0742,61.4611
211.0742,61.4611
210.9758,60.9794
210.9425,60.7052
210.9165,60.4913
210.9165,60.4913
210.9165,60.4913
210.8967,60.0000
210.9165,59.5087
210.9165,59.5087
210.9165,59.5087
210.9758,59.0206
210.9758,59.0206
211.0742,58.5389
211.0742,58.5389
211.2110,58.0666
211.2110,58.0666
211.2290,58.0189
211.3853,57.6069
211.5961,57.1627
211.8419,56.7368
212.0396,56.4505
212.1212,56.3322
212.4322,55.9513
212.7728,55.5967
212.9043,55.4802
213.0488,55.3522
213.1408,55.2707
213.1408,55.2707
213.5339,54.9753
213.8252,54.7911
213.9495,54.7125
213.9495,54.7125
213.9495,54.7125
213.9495,54.7125
214.3848,54.4840
214.3848,54.4840
214.3848,54.4840
214.3848,54.4840
214.8372,54.2913
214.8372,54.2913
214.8372,54.2913
215.3035,54.1356
215.3036,54.1356
215.6649,54.0465
215.7810,54.0179
216.2663,53.9391
216.2663,53.9391
216.5412,53.9169
216.7564,53.8995
217.2480,53.8995
217.4459,53.9155
217.7381,53.9391
218.2234,54.0179
218.7008,54.1356
218.7009,54.1356
219.1672,54.2913
219.4598,54.4160
219.6196,54.4840
219.6196,54.4840
219.6196,54.4840
219.6196,54.4840
220.0549,54.7125
220.0549,54.7125
220.4705,54.9753
220.8636,55.2707
220.8636,55.2707
221.2316,55.5967
221.5722,55.9513
221.8832,56.3322
222.1625,56.7368
222.4083,57.1627
222.6191,57.6069
222.7934,58.0666
222.7934,58.0666
222.9302,58.5389
222.9302,58.5389
223.0286,59.0206
223.0286,59.0206
223.0879,59.5087
223.0879,59.5087
223.0879,59.5087
223.0879,59.5087
223.1077,60.0000
229.0017,60.0000
229.0017,50.0000
228.3579,50.0000
228.3373,50.2354
228.2761,50.4637
228.1762,50.6778
228.1762,50.6778
228.1762,50.6778
228.1762,50.6778
228.0407,50.8714
227.8736,51.0385
227.6800,51.1740
227.6800,51.1740
227.6800,51.1740
227.6800,51.1740
227.4659,51.2739
227.4659,51.2739
227.2376,51.3351
227.2376,51.3351
227.2376,51.3351
227.0612,51.3505
227.0612,51.3505
226.9432,51.3505
226.7668,51.3351
226.7668,51.3351
226.7668,51.3351
226.5385,51.2739
226.3244,51.1740
226.1308,51.0385
225.9637,50.8714
225.8282,50.6778
225.7283,50.4637
225.6671,50.2354
225.6465,50.0000
208.3579,50.0000
208.3373,50.2354
208.2761,50.4637
208.1762,50.6778
208.1762,50.6778
208.1762,50.6778
208.1762,50.6778
208.0407,50.8714
207.8736,51.0385
207.6800,51.1740
207.6800,51.1740
207.6800,51.1740
207.6800,51.1740
207.4659,51.2739
207.4659,51.2739
207.2376,51.3351
207.2376,51.3351
207.2376,51.3351
207.0612,51.3505
207.0612,51.3505
206.9432,51.3505
206.7668,51.3351
206.7668,51.3351
206.7668,51.3351
206.5385,51.2739
206.3244,51.1740
206.1308,51.0385
205.9637,50.8714
205.8282,50.6778
205.7283,50.4637
205.6671,50.2354
205.6465,50.0000
205.6671,49.7646
205.7283,49.5363
205.8282,49.3222
205.9637,49.1286
206.1308,48.9615
206.1308,48.9615
206.1308,48.9615
206.3240,48.8262
206.3244,48.8260
206.3244,48.8260
206.3244,48.8260
206.3244,48.8260
206.5385,48.7261
206.5385,48.7261
206.6146,48.7057
206.7668,48.6649
206.7668,48.6649
206.7668,48.6649
206.9432,48.6495
206.9432,48.6495
207.0612,48.6495
207.0612,48.6495
207.2376,48.6649
207.4659,48.7261
207.6800,48.8260
207.6800,48.8260
207.8736,48.9615
208.0407,49.1286
208.1762,49.3222
208.2761,49.5363
208.3373,49.7646
208.3579,50.0000
208.3579,50.0000
225.6465,50.0000
225.6465,50.0000
225.6671,49.7646
225.7283,49.5363
225.8282,49.3222
225.9637,49.1286
226.1308,48.9615
226.1308,48.9615
226.1308,48.9615
226.3240,48.8262
226.3244,48.8260
226.3244,48.8260
226.3244,48.8260
226.3244,48.8260
226.5385,48.7261
226.5385,48.7261
226.6146,48.7057
226.7668,48.6649
226.7668,48.6649
226.7668,48.6649
226.9432,48.6495
226.9432,48.6495
227.0612,48.6495
227.0612,48.6495
227.2376,48.6649
227.4659,48.7261
227.6800,48.8260
227.6800,48.8260
227.8736,48.9615
228.0407,49.1286
228.1762,49.3222
228.2761,49.5363
228.3373,49.7646
228.3579,50.0000
228.3579,50.0000
229.0017,50.0000
229.0017,49.0022
229.0015,48.9979
228.9977,48.9545
228.9851,48.8262
228.9822,48.8103
228.9640,48.7423
228.9636,48.7410
228.9350,48.6467
228.9300,48.6336
228.9029,48.5756
228.8976,48.5643
228.8965,48.5619
228.8511,48.4770
228.8480,48.4720
228.8009,48.4048
228.7987,48.4018
228.7387,48.3287
228.7355,48.3251
228.6771,48.2667
228.6735,48.2635
228.6004,48.2035
228.5974,48.2013
228.5302,48.1542
228.5252,48.1511
228.4403,48.1057
228.4379,48.1046
228.3686,48.0722
228.3555,48.0672
228.2612,48.0386
228.2599,48.0382
228.1919,48.0200
228.1760,48.0171
228.0477,48.0045
228.0043,48.0007
228.0000,48.0005
203.0044,48.0005
Z" /> 
</g>
</g>
</g>
<g style="fill:#FFFFFF; fill-opacity:1.0000; 
stroke:#FFFFFF; stroke-width:0.0000; stroke-opacity:1; 
stroke-linecap:round; stroke-linejoin:round;">
<circle cx="210.2022" cy="63.6000" r="0.2000" /> 
</g>
<g style="fill:#FFFFFF; fill-opacity:1.0000; 
stroke:#FFFFFF; stroke-width:0.0212; stroke-opacity:1; 
stroke-linecap:round; stroke-linejoin:round;">
</g>
<g style="fill:#FFFFFF; fill-opacity:1.0000; 
stroke:#FFFFFF; stroke-width:0.0000; stroke-opacity:1; 
stroke-linecap:round; stroke-linejoin:round;">
<circle cx="223.0022" cy="52.0000" r="0.2000" /> 
</g>
<g style="fill:#FFFFFF; fill-opacity:1.0000; 
stroke:#FFFFFF; stroke-width:0.0212; stroke-opacity:1; 
stroke-linecap:round; stroke-linejoin:round;">
</g>
<g style="fill:#FFFFFF; fill-opacity:1.0000; 
stroke:#FFFFFF; stroke-width:0.0000; stroke-opacity:1; 
stroke-linecap:round; stroke-linejoin:round;">
<circle cx="207.0740" cy="58.8038" r="0.2000" /> 
</g>
<g style="fill:#FFFFFF; fill-opacity:1.0000; 
stroke:#FFFFFF; stroke-width:0.0212; stroke-opacity:1; 
stroke-linecap:round; stroke-linejoin:round;">
</g>
<g style="fill:#FFFFFF; fill-opacity:1.0000; 
stroke:#FFFFFF; stroke-width:0.0000; stroke-opacity:1; 
stroke-linecap:round; stroke-linejoin:round;">
<circle cx="226.9304" cy="61.1962" r="0.2000" /> 
</g>
<g style="fill:#FFFFFF; fill-opacity:1.0000; 
stroke:#FFFFFF; stroke-width:0.0212; stroke-opacity:1; 
stroke-linecap:round; stroke-linejoin:round;">
</g>
<g style="fill:#FFFFFF; fill-opacity:1.0000; 
stroke:#FFFFFF; stroke-width:0.0000; stroke-opacity:1; 
stroke-linecap:round; stroke-linejoin:round;">
<circle cx="220.9304" cy="69.1962" r="0.2000" /> 
</g>
<g style="fill:#FFFFFF; fill-opacity:1.0000; 
stroke:#FFFFFF; stroke-width:0.0212; stroke-opacity:1; 
stroke-linecap:round; stroke-linejoin:round;">
</g>
<g style="fill:#FFFFFF; fill-opacity:1.0000; 
stroke:#FFFFFF; stroke-width:0.0000; stroke-opacity:1; 
stroke-linecap:round; stroke-linejoin:round;">
<circle cx="215.8060" cy="69.9282" r="0.2000" /> 
</g>
<g style="fill:#FFFFFF; fill-opacity:1.0000; 
stroke:#FFFFFF; stroke-width:0.0212; stroke-opacity:1; 
stroke-linecap:round; stroke-linejoin:round;">
</g>
<g style="fill:#FFFFFF; fill-opacity:1.0000; 
stroke:#FFFFFF; stroke-width:0.0000; stroke-opacity:1; 
stroke-linecap:round; stroke-linejoin:round;">
<circle cx="213.0740" cy="50.8038" r="0.2000" /> 
</g>
<g style="fill:#FFFFFF; fill-opacity:1.0000; 
stroke:#FFFFFF; stroke-width:0.0212; stroke-opacity:1; 
stroke-linecap:round; stroke-linejoin:round;">
</g>
<g style="fill:#FFFFFF; fill-opacity:1.0000; 
stroke:#FFFFFF; stroke-width:0.0000; stroke-opacity:1; 
stroke-linecap:round; stroke-linejoin:round;">
<circle cx="225.0022" cy="66.0000" r="0.2000" /> 
</g>
<g style="fill:#FFFFFF; fill-opacity:1.0000; 
stroke:#FFFFFF; stroke-width:0.0212; stroke-opacity:1; 
stroke-linecap:round; stroke-linejoin:round;">
</g>
<g style="fill:#FFFFFF; fill-opacity:1.0000; 
stroke:#FFFFFF; stroke-width:0.0000; stroke-opacity:1; 
stroke-linecap:round; stroke-linejoin:round;">
<circle cx="210.6022" cy="67.7000" r="0.2000" /> 
</g>
<g style="fill:#FFFFFF; fill-opacity:1.0000; 
stroke:#FFFFFF; stroke-width:0.0212; stroke-opacity:1; 
stroke-linecap:round; stroke-linejoin:round;">
</g>
<g style="fill:#FFFFFF; fill-opacity:1.0000; 
stroke:#FFFFFF; stroke-width:0.0000; stroke-opacity:1; 
stroke-linecap:round; stroke-linejoin:round;">
<circle cx="226.1984" cy="56.0718" r="0.2000" /> 
</g>
<g style="fill:#FFFFFF; fill-opacity:1.0000; 
stroke:#FFFFFF; stroke-width:0.0212; stroke-opacity:1; 
stroke-linecap:round; stroke-linejoin:round;">
</g>
<g style="fill:#FFFFFF; fill-opacity:1.0000; 
stroke:#FFFFFF; stroke-width:0.0000; stroke-opacity:1; 
stroke-linecap:round; stroke-linejoin:round;">
<circle cx="209.0022" cy="54.0000" r="0.2000" /> 
</g>
<g style="fill:#FFFFFF; fill-opacity:1.0000; 
stroke:#FFFFFF; stroke-width:0.0212; stroke-opacity:1; 
stroke-linecap:round; stroke-linejoin:round;">
</g>
<g style="fill:#FFFFFF; fill-opacity:1.0000; 
stroke:#FFFFFF; stroke-width:0.0000; stroke-opacity:1; 
stroke-linecap:round; stroke-linejoin:round;">
<circle cx="208.5022" cy="66.0000" r="0.2000" /> 
</g>
<g style="fill:#FFFFFF; fill-opacity:1.0000; 
stroke:#FFFFFF; stroke-width:0.0212; stroke-opacity:1; 
stroke-linecap:round; stroke-linejoin:round;">
</g>
<g style="fill:#FFFFFF; fill-opacity:1.0000; 
stroke:#FFFFFF; stroke-width:0.0000; stroke-opacity:1; 
stroke-linecap:round; stroke-linejoin:round;">
<circle cx="218.1984" cy="50.0718" r="0.2000" /> 
</g>
<g style="fill:#FFFFFF; fill-opacity:1.0000; 
stroke:#FFFFFF; stroke-width:0.0212; stroke-opacity:1; 
stroke-linecap:round; stroke-linejoin:round;">
</g>
<g style="fill:#FFFFFF; fill-opacity:1.0000; 
stroke:#FFFFFF; stroke-width:0.0000; stroke-opacity:1; 
stroke-linecap:round; stroke-linejoin:round;">
<circle cx="206.4022" cy="61.4000" r="0.2000" /> 
</g>
<g style="fill:#FFFFFF; fill-opacity:1.0000; 
stroke:#FFFFFF; stroke-width:0.0212; stroke-opacity:1; 
stroke-linecap:round; stroke-linejoin:round;">
</g>
<g style="fill:#FFFFFF; fill-opacity:1.0000; 
stroke:#FFFFFF; stroke-width:0.0000; stroke-opacity:1; 
stroke-linecap:round; stroke-linejoin:round;">
<circle cx="211.9022" cy="70.6000" r="0.2000" /> 
</g>
<g style="fill:#FFFFFF; fill-opacity:1.0000; 
stroke:#FFFFFF; stroke-width:0.0212; stroke-opacity:1; 
stroke-linecap:round; stroke-linejoin:round;">
</g>
<g style="fill:#FFFFFF; fill-opacity:1.0000; 
stroke:#FFFFFF; stroke-width:0.0000; stroke-opacity:1; 
stroke-linecap:round; stroke-linejoin:round;">
<circle cx="205.6022" cy="61.4000" r="0.2000" /> 
</g>
<g style="fill:#FFFFFF; fill-opacity:1.0000; 
stroke:#FFFFFF; stroke-width:0.0212; stroke-opacity:1; 
stroke-linecap:round; stroke-linejoin:round;">
</g>
<g style="fill:#FFFFFF; fill-opacity:1.0000; 
stroke:#FFFFFF; stroke-width:0.0000; stroke-opacity:1; 
stroke-linecap:round; stroke-linejoin:round;">
<circle cx="205.6022" cy="64.9000" r="0.2000" /> 
</g>
<g style="fill:#FFFFFF; fill-opacity:1.0000; 
stroke:#FFFFFF; stroke-width:0.0212; stroke-opacity:1; 
stroke-linecap:round; stroke-linejoin:round;">
</g>
<g style="fill:#FFFFFF; fill-opacity:1.0000; 
stroke:#FFFFFF; stroke-width:0.0000; stroke-opacity:1; 
stroke-linecap:round; stroke-linejoin:round;">
<circle cx="206.3022" cy="64.9000" r="0.2000" /> 
</g>
<g style="fill:#FFFFFF; fill-opacity:1.0000; 
stroke:#FFFFFF; stroke-width:0.0212; stroke-opacity:1; 
stroke-linecap:round; stroke-linejoin:round;">
</g>
<g style="fill:#FFFFFF; fill-opacity:1.0000; 
stroke:#FFFFFF; stroke-width:0.0000; stroke-opacity:1; 
stroke-linecap:round; stroke-linejoin:round;">
<circle cx="208.4022" cy="70.6000" r="0.2000" /> 
</g>
<g style="fill:#FFFFFF; fill-opacity:1.0000; 
stroke:#FFFFFF; stroke-width:0.0212; stroke-opacity:1; 
stroke-linecap:round; stroke-linejoin:round;">
</g>
<g style="fill:#FFFFFF; fill-opacity:1.0000; 
stroke:#FFFFFF; stroke-width:0.0000; stroke-opacity:1; 
stroke-linecap:round; stroke-linejoin:round;">
<circle cx="208.4022" cy="71.4000" r="0.2000" /> 
</g>
<g style="fill:#FFFFFF; fill-opacity:1.0000; 
stroke:#FFFFFF; stroke-width:0.0212; stroke-opacity:1; 
stroke-linecap:round; stroke-linejoin:round;">
</g>
<g style="fill:#FFFFFF; fill-opacity:1.0000; 
stroke:#FFFFFF; stroke-width:0.0000; stroke-opacity:1; 
stroke-linecap:round; stroke-linejoin:round;">
<circle cx="211.9022" cy="71.4000" r="0.2000" /> 
</g>
<g style="fill:#FFFFFF; fill-opacity:1.0000; 
stroke:#FFFFFF; stroke-width:0.0212; stroke-opacity:1; 
stroke-linecap:round; stroke-linejoin:round;">
</g>
<g style="fill:#FFFFFF; fill-opacity:1.0000; 
stroke:#FFFFFF; stroke-width:0.0000; stroke-opacity:1; 
stroke-linecap:round; stroke-linejoin:round;">
<circle cx="209.0922" cy="61.8200" r="0.2000" /> 
</g>
<g style="fill:#FFFFFF; fill-opacity:1.0000; 
stroke:#FFFFFF; stroke-width:0.0212; stroke-opacity:1; 
stroke-linecap:round; stroke-linejoin:round;">
</g>
<g style="fill:#FFFFFF; fill-opacity:1.0000; 
stroke:#FFFFFF; stroke-width:0.0000; stroke-opacity:1; 
stroke-linecap:round; stroke-linejoin:round;">
<circle cx="207.0022" cy="50.0000" r="1.1000" /> 
</g>
<g style="fill:#FFFFFF; fill-opacity:1.0000; 
stroke:#FFFFFF; stroke-width:0.0212; stroke-opacity:1; 
stroke-linecap:round; stroke-linejoin:round;">
</g>
<g style="fill:#FFFFFF; fill-opacity:1.0000; 
stroke:#FFFFFF; stroke-width:0.0000; stroke-opacity:1; 
stroke-linecap:round; stroke-linejoin:round;">
<circle cx="227.0022" cy="50.0000" r="1.1000" /> 
</g>
<g style="fill:#FFFFFF; fill-opacity:1.0000; 
stroke:#FFFFFF; stroke-width:0.0212; stroke-opacity:1; 
stroke-linecap:round; stroke-linejoin:round;">
</g>
<g style="fill:#FFFFFF; fill-opacity:1.0000; 
stroke:#FFFFFF; stroke-width:0.0000; stroke-opacity:1; 
stroke-linecap:round; stroke-linejoin:round;">
<circle cx="227.0022" cy="70.0000" r="1.1000" /> 
</g>
<g style="fill:#FFFFFF; fill-opacity:1.0000; 
stroke:#FFFFFF; stroke-width:0.0212; stroke-opacity:1; 
stroke-linecap:round; stroke-linejoin:round;">
</g>
<g style="fill:#000000; fill-opacity:1.0000; 
stroke:#000000; stroke-width:0.0212; stroke-opacity:1; 
stroke-linecap:round; stroke-linejoin:round;">
</g> 
</svg>
