<?xml version="1.0" standalone="no"?>
 <!DOCTYPE svg PUBLIC "-//W3C//DTD SVG 1.1//EN" 
 "http://www.w3.org/Graphics/SVG/1.1/DTD/svg11.dtd"> 
<svg
  xmlns:svg="http://www.w3.org/2000/svg"
  xmlns="http://www.w3.org/2000/svg"
  xmlns:xlink="http://www.w3.org/1999/xlink"
  version="1.1"
  width="2.6100000000000003cm" height="2.6100000000000003cm" viewBox="66.95 46.95 26.1 26.1">
<title>SVG Image created as pedalboard-led-ring-F_SilkS.svg date 2023/07/26 12:07:54 </title>
  <desc>Image generated by PCBNEW </desc>
<g style="fill:#000000; fill-opacity:1.000000;stroke:#000000; stroke-opacity:1.000000;
stroke-linecap:round; stroke-linejoin:round;"
 transform="translate(0 0) scale(1 1)">
</g>
<g style="fill:#000000; fill-opacity:0.0; 
stroke:#000000; stroke-width:0.000000; stroke-opacity:1; 
stroke-linecap:round; stroke-linejoin:round;">
</g>
<g style="fill:#000000; fill-opacity:0.0; 
stroke:#000000; stroke-width:0.100000; stroke-opacity:1; 
stroke-linecap:round; stroke-linejoin:round;">
<g transform="rotate(60.000000 83.350000 68.558458)">
<text x="83.350000" y="68.808458"
textLength="1.602380" font-size="0.666666" lengthAdjust="spacingAndGlyphs"
text-anchor="middle" opacity="0">D11</text>
</g>
<g class="stroked-text"><desc>D11</desc>
<path d="M82.850612 68.145712
L83.283624 67.895712
" />
<path d="M83.283624 67.895712
L83.343148 67.998810
" />
<path d="M83.343148 67.998810
L83.358243 68.072574
" />
<path d="M83.358243 68.072574
L83.340813 68.137622
" />
<path d="M83.340813 68.137622
L83.311479 68.182052
" />
<path d="M83.311479 68.182052
L83.240905 68.250290
" />
<path d="M83.240905 68.250290
L83.179046 68.286005
" />
<path d="M83.179046 68.286005
L83.084662 68.313004
" />
<path d="M83.084662 68.313004
L83.031518 68.316194
" />
<path d="M83.031518 68.316194
L82.966469 68.298764
" />
<path d="M82.966469 68.298764
L82.910136 68.248810
" />
<path d="M82.910136 68.248810
L82.850612 68.145712
" />
<path d="M83.231564 68.805540
L83.088707 68.558105
" />
<path d="M83.160136 68.681823
L83.593148 68.431823
" />
<path d="M83.593148 68.431823
L83.507480 68.426297
" />
<path d="M83.507480 68.426297
L83.442431 68.408868
" />
<path d="M83.442431 68.408868
L83.398002 68.379533
" />
<path d="M83.469659 69.217933
L83.326802 68.970497
" />
<path d="M83.398231 69.094215
L83.831243 68.844215
" />
<path d="M83.831243 68.844215
L83.745575 68.838690
" />
<path d="M83.745575 68.838690
L83.680526 68.821260
" />
<path d="M83.680526 68.821260
L83.636097 68.791926
" />
</g></g>
<g style="fill:#000000; fill-opacity:0.0; 
stroke:#000000; stroke-width:0.075000; stroke-opacity:1; 
stroke-linecap:round; stroke-linejoin:round;">
<g transform="rotate(60.000000 84.572789 68.820302)">
<text x="84.572789" y="68.970302"
textLength="0.413214" font-size="0.400000" lengthAdjust="spacingAndGlyphs"
text-anchor="middle" opacity="0">1</text>
</g>
<g class="stroked-text"><desc>1</desc>
<path d="M84.498831 68.961975
L84.413117 68.813514
" />
<path d="M84.455974 68.887744
L84.715782 68.737744
" />
<path d="M84.715782 68.737744
L84.664381 68.734429
" />
<path d="M84.664381 68.734429
L84.625351 68.723972
" />
<path d="M84.625351 68.723972
L84.598694 68.706371
" />
</g></g>
<g style="fill:#000000; fill-opacity:0.0; 
stroke:#000000; stroke-width:0.100000; stroke-opacity:1; 
stroke-linecap:round; stroke-linejoin:round;">
<text x="87.580000" y="60.390000"
textLength="1.126190" font-size="0.666666" lengthAdjust="spacingAndGlyphs"
text-anchor="middle" opacity="0">D1</text>
<g class="stroked-text"><desc>D1</desc>
<path d="M87.210952 60.366109
L87.210952 59.866109
" />
<path d="M87.210952 59.866109
L87.330000 59.866109
" />
<path d="M87.330000 59.866109
L87.401428 59.889919
" />
<path d="M87.401428 59.889919
L87.449047 59.937538
" />
<path d="M87.449047 59.937538
L87.472857 59.985157
" />
<path d="M87.472857 59.985157
L87.496666 60.080395
" />
<path d="M87.496666 60.080395
L87.496666 60.151823
" />
<path d="M87.496666 60.151823
L87.472857 60.247061
" />
<path d="M87.472857 60.247061
L87.449047 60.294680
" />
<path d="M87.449047 60.294680
L87.401428 60.342300
" />
<path d="M87.401428 60.342300
L87.330000 60.366109
" />
<path d="M87.330000 60.366109
L87.210952 60.366109
" />
<path d="M87.972857 60.366109
L87.687143 60.366109
" />
<path d="M87.830000 60.366109
L87.830000 59.866109
" />
<path d="M87.830000 59.866109
L87.782381 59.937538
" />
<path d="M87.782381 59.937538
L87.734762 59.985157
" />
<path d="M87.734762 59.985157
L87.687143 60.008966
" />
</g></g>
<g style="fill:#000000; fill-opacity:0.0; 
stroke:#000000; stroke-width:0.075000; stroke-opacity:1; 
stroke-linecap:round; stroke-linejoin:round;">
<text x="89.925000" y="60.600000"
textLength="0.413214" font-size="0.400000" lengthAdjust="spacingAndGlyphs"
text-anchor="middle" opacity="0">1</text>
<g class="stroked-text"><desc>1</desc>
<path d="M90.010714 60.584885
L89.839285 60.584885
" />
<path d="M89.925000 60.584885
L89.925000 60.284885
" />
<path d="M89.925000 60.284885
L89.896428 60.327742
" />
<path d="M89.896428 60.327742
L89.867857 60.356314
" />
<path d="M89.867857 60.356314
L89.839285 60.370600
" />
</g></g>
<g style="fill:#000000; fill-opacity:0.0; 
stroke:#000000; stroke-width:0.100000; stroke-opacity:1; 
stroke-linecap:round; stroke-linejoin:round;">
<g transform="rotate(-90.000000 81.400000 51.000000)">
<text x="81.400000" y="51.250000"
textLength="1.126190" font-size="0.666666" lengthAdjust="spacingAndGlyphs"
text-anchor="middle" opacity="0">D4</text>
</g>
<g class="stroked-text"><desc>D4</desc>
<path d="M81.626109 51.369047
L81.126109 51.369047
" />
<path d="M81.126109 51.369047
L81.126109 51.249999
" />
<path d="M81.126109 51.249999
L81.149919 51.178571
" />
<path d="M81.149919 51.178571
L81.197538 51.130952
" />
<path d="M81.197538 51.130952
L81.245157 51.107142
" />
<path d="M81.245157 51.107142
L81.340395 51.083333
" />
<path d="M81.340395 51.083333
L81.411823 51.083333
" />
<path d="M81.411823 51.083333
L81.507061 51.107142
" />
<path d="M81.507061 51.107142
L81.554680 51.130952
" />
<path d="M81.554680 51.130952
L81.602300 51.178571
" />
<path d="M81.602300 51.178571
L81.626109 51.249999
" />
<path d="M81.626109 51.249999
L81.626109 51.369047
" />
<path d="M81.292776 50.654761
L81.626109 50.654761
" />
<path d="M81.102300 50.773809
L81.459442 50.892856
" />
<path d="M81.459442 50.892856
L81.459442 50.583333
" />
</g></g>
<g style="fill:#000000; fill-opacity:0.0; 
stroke:#000000; stroke-width:0.075000; stroke-opacity:1; 
stroke-linecap:round; stroke-linejoin:round;">
<g transform="rotate(-90.000000 80.450000 50.075000)">
<text x="80.450000" y="50.225000"
textLength="0.413214" font-size="0.400000" lengthAdjust="spacingAndGlyphs"
text-anchor="middle" opacity="0">1</text>
</g>
<g class="stroked-text"><desc>1</desc>
<path d="M80.584885 49.989285
L80.584885 50.160714
" />
<path d="M80.584885 50.074999
L80.284885 50.074999
" />
<path d="M80.284885 50.074999
L80.327742 50.103571
" />
<path d="M80.327742 50.103571
L80.356314 50.132142
" />
<path d="M80.356314 50.132142
L80.370600 50.160714
" />
</g></g>
<g style="fill:#000000; fill-opacity:0.0; 
stroke:#000000; stroke-width:0.100000; stroke-opacity:1; 
stroke-linecap:round; stroke-linejoin:round;">
<g transform="rotate(30.000000 87.094229 65.712436)">
<text x="87.094229" y="65.962436"
textLength="1.602380" font-size="0.666666" lengthAdjust="spacingAndGlyphs"
text-anchor="middle" opacity="0">D12</text>
</g>
<g class="stroked-text"><desc>D12</desc>
<path d="M86.455373 65.604681
L86.705373 65.171668
" />
<path d="M86.705373 65.171668
L86.808471 65.231192
" />
<path d="M86.808471 65.231192
L86.858425 65.287526
" />
<path d="M86.858425 65.287526
L86.875855 65.352575
" />
<path d="M86.875855 65.352575
L86.872665 65.405719
" />
<path d="M86.872665 65.405719
L86.845666 65.500102
" />
<path d="M86.845666 65.500102
L86.809952 65.561961
" />
<path d="M86.809952 65.561961
L86.741713 65.632535
" />
<path d="M86.741713 65.632535
L86.697284 65.661870
" />
<path d="M86.697284 65.661870
L86.632235 65.679299
" />
<path d="M86.632235 65.679299
L86.558471 65.664205
" />
<path d="M86.558471 65.664205
L86.455373 65.604681
" />
<path d="M87.115202 65.985633
L86.867766 65.842776
" />
<path d="M86.991484 65.914205
L87.241484 65.481192
" />
<path d="M87.241484 65.481192
L87.164530 65.519241
" />
<path d="M87.164530 65.519241
L87.099482 65.536671
" />
<path d="M87.099482 65.536671
L87.046337 65.533481
" />
<path d="M87.506349 65.689098
L87.538874 65.680383
" />
<path d="M87.538874 65.680383
L87.592018 65.683573
" />
<path d="M87.592018 65.683573
L87.695116 65.743097
" />
<path d="M87.695116 65.743097
L87.724450 65.787526
" />
<path d="M87.724450 65.787526
L87.733165 65.820050
" />
<path d="M87.733165 65.820050
L87.729975 65.873194
" />
<path d="M87.729975 65.873194
L87.706166 65.914433
" />
<path d="M87.706166 65.914433
L87.649832 65.964388
" />
<path d="M87.649832 65.964388
L87.259539 66.068966
" />
<path d="M87.259539 66.068966
L87.527595 66.223728
" />
</g></g>
<g style="fill:#000000; fill-opacity:0.0; 
stroke:#000000; stroke-width:0.075000; stroke-opacity:1; 
stroke-linecap:round; stroke-linejoin:round;">
<g transform="rotate(30.000000 88.370302 65.352211)">
<text x="88.370302" y="65.502211"
textLength="0.413214" font-size="0.400000" lengthAdjust="spacingAndGlyphs"
text-anchor="middle" opacity="0">1</text>
</g>
<g class="stroked-text"><desc>1</desc>
<path d="M88.377090 65.511882
L88.228628 65.426168
" />
<path d="M88.302859 65.469025
L88.452859 65.209217
" />
<path d="M88.452859 65.209217
L88.406687 65.232047
" />
<path d="M88.406687 65.232047
L88.367657 65.242505
" />
<path d="M88.367657 65.242505
L88.335771 65.240591
" />
</g></g>
<g style="fill:#000000; fill-opacity:0.0; 
stroke:#000000; stroke-width:0.100000; stroke-opacity:1; 
stroke-linecap:round; stroke-linejoin:round;">
<g transform="rotate(-30.000000 71.505771 63.287564)">
<text x="71.505771" y="63.537564"
textLength="1.126190" font-size="0.666666" lengthAdjust="spacingAndGlyphs"
text-anchor="middle" opacity="0">D8</text>
</g>
<g class="stroked-text"><desc>D8</desc>
<path d="M71.299221 63.667904
L71.049221 63.234891
" />
<path d="M71.049221 63.234891
L71.152319 63.175367
" />
<path d="M71.152319 63.175367
L71.226083 63.160273
" />
<path d="M71.226083 63.160273
L71.291132 63.177702
" />
<path d="M71.291132 63.177702
L71.335561 63.207037
" />
<path d="M71.335561 63.207037
L71.403800 63.277611
" />
<path d="M71.403800 63.277611
L71.439514 63.339470
" />
<path d="M71.439514 63.339470
L71.466513 63.433853
" />
<path d="M71.466513 63.433853
L71.469703 63.486997
" />
<path d="M71.469703 63.486997
L71.452273 63.552046
" />
<path d="M71.452273 63.552046
L71.402319 63.608380
" />
<path d="M71.402319 63.608380
L71.299221 63.667904
" />
<path d="M71.651235 63.134754
L71.598091 63.137944
" />
<path d="M71.598091 63.137944
L71.565567 63.129229
" />
<path d="M71.565567 63.129229
L71.521138 63.099894
" />
<path d="M71.521138 63.099894
L71.509233 63.079274
" />
<path d="M71.509233 63.079274
L71.506043 63.026130
" />
<path d="M71.506043 63.026130
L71.514758 62.993606
" />
<path d="M71.514758 62.993606
L71.544093 62.949177
" />
<path d="M71.544093 62.949177
L71.626571 62.901558
" />
<path d="M71.626571 62.901558
L71.679715 62.898368
" />
<path d="M71.679715 62.898368
L71.712240 62.907083
" />
<path d="M71.712240 62.907083
L71.756669 62.936417
" />
<path d="M71.756669 62.936417
L71.768574 62.957037
" />
<path d="M71.768574 62.957037
L71.771763 63.010181
" />
<path d="M71.771763 63.010181
L71.763049 63.042705
" />
<path d="M71.763049 63.042705
L71.733714 63.087135
" />
<path d="M71.733714 63.087135
L71.651235 63.134754
" />
<path d="M71.651235 63.134754
L71.621901 63.179183
" />
<path d="M71.621901 63.179183
L71.613186 63.211707
" />
<path d="M71.613186 63.211707
L71.616376 63.264851
" />
<path d="M71.616376 63.264851
L71.663995 63.347330
" />
<path d="M71.663995 63.347330
L71.708424 63.376664
" />
<path d="M71.708424 63.376664
L71.740948 63.385379
" />
<path d="M71.740948 63.385379
L71.794093 63.382189
" />
<path d="M71.794093 63.382189
L71.876571 63.334570
" />
<path d="M71.876571 63.334570
L71.905906 63.290141
" />
<path d="M71.905906 63.290141
L71.914621 63.257617
" />
<path d="M71.914621 63.257617
L71.911431 63.204473
" />
<path d="M71.911431 63.204473
L71.863812 63.121994
" />
<path d="M71.863812 63.121994
L71.819382 63.092660
" />
<path d="M71.819382 63.092660
L71.786858 63.083945
" />
<path d="M71.786858 63.083945
L71.733714 63.087135
" />
</g></g>
<g style="fill:#000000; fill-opacity:0.0; 
stroke:#000000; stroke-width:0.075000; stroke-opacity:1; 
stroke-linecap:round; stroke-linejoin:round;">
<g transform="rotate(-30.000000 71.179698 64.572789)">
<text x="71.179698" y="64.722789"
textLength="0.413214" font-size="0.400000" lengthAdjust="spacingAndGlyphs"
text-anchor="middle" opacity="0">1</text>
</g>
<g class="stroked-text"><desc>1</desc>
<path d="M71.321371 64.646746
L71.172910 64.732460
" />
<path d="M71.247140 64.689603
L71.097140 64.429795
" />
<path d="M71.097140 64.429795
L71.093825 64.481196
" />
<path d="M71.093825 64.481196
L71.083368 64.520226
" />
<path d="M71.083368 64.520226
L71.065767 64.546883
" />
</g></g>
<g style="fill:#000000; fill-opacity:0.0; 
stroke:#000000; stroke-width:0.100000; stroke-opacity:1; 
stroke-linecap:round; stroke-linejoin:round;">
<g transform="rotate(-90.000000 78.560000 69.300000)">
<text x="78.560000" y="69.550000"
textLength="1.602380" font-size="0.666666" lengthAdjust="spacingAndGlyphs"
text-anchor="middle" opacity="0">D10</text>
</g>
<g class="stroked-text"><desc>D10</desc>
<path d="M78.786109 69.907142
L78.286109 69.907142
" />
<path d="M78.286109 69.907142
L78.286109 69.788094
" />
<path d="M78.286109 69.788094
L78.309919 69.716666
" />
<path d="M78.309919 69.716666
L78.357538 69.669047
" />
<path d="M78.357538 69.669047
L78.405157 69.645237
" />
<path d="M78.405157 69.645237
L78.500395 69.621428
" />
<path d="M78.500395 69.621428
L78.571823 69.621428
" />
<path d="M78.571823 69.621428
L78.667061 69.645237
" />
<path d="M78.667061 69.645237
L78.714680 69.669047
" />
<path d="M78.714680 69.669047
L78.762300 69.716666
" />
<path d="M78.762300 69.716666
L78.786109 69.788094
" />
<path d="M78.786109 69.788094
L78.786109 69.907142
" />
<path d="M78.786109 69.145237
L78.786109 69.430951
" />
<path d="M78.786109 69.288094
L78.286109 69.288094
" />
<path d="M78.286109 69.288094
L78.357538 69.335713
" />
<path d="M78.357538 69.335713
L78.405157 69.383332
" />
<path d="M78.405157 69.383332
L78.428966 69.430951
" />
<path d="M78.286109 68.835714
L78.286109 68.788095
" />
<path d="M78.286109 68.788095
L78.309919 68.740476
" />
<path d="M78.309919 68.740476
L78.333728 68.716666
" />
<path d="M78.333728 68.716666
L78.381347 68.692857
" />
<path d="M78.381347 68.692857
L78.476585 68.669047
" />
<path d="M78.476585 68.669047
L78.595633 68.669047
" />
<path d="M78.595633 68.669047
L78.690871 68.692857
" />
<path d="M78.690871 68.692857
L78.738490 68.716666
" />
<path d="M78.738490 68.716666
L78.762300 68.740476
" />
<path d="M78.762300 68.740476
L78.786109 68.788095
" />
<path d="M78.786109 68.788095
L78.786109 68.835714
" />
<path d="M78.786109 68.835714
L78.762300 68.883333
" />
<path d="M78.762300 68.883333
L78.738490 68.907142
" />
<path d="M78.738490 68.907142
L78.690871 68.930952
" />
<path d="M78.690871 68.930952
L78.595633 68.954761
" />
<path d="M78.595633 68.954761
L78.476585 68.954761
" />
<path d="M78.476585 68.954761
L78.381347 68.930952
" />
<path d="M78.381347 68.930952
L78.333728 68.907142
" />
<path d="M78.333728 68.907142
L78.309919 68.883333
" />
<path d="M78.309919 68.883333
L78.286109 68.835714
" />
</g></g>
<g style="fill:#000000; fill-opacity:0.0; 
stroke:#000000; stroke-width:0.075000; stroke-opacity:1; 
stroke-linecap:round; stroke-linejoin:round;">
<g transform="rotate(-90.000000 79.550000 69.925000)">
<text x="79.550000" y="70.075000"
textLength="0.413214" font-size="0.400000" lengthAdjust="spacingAndGlyphs"
text-anchor="middle" opacity="0">1</text>
</g>
<g class="stroked-text"><desc>1</desc>
<path d="M79.684885 69.839285
L79.684885 70.010714
" />
<path d="M79.684885 69.924999
L79.384885 69.924999
" />
<path d="M79.384885 69.924999
L79.427742 69.953571
" />
<path d="M79.427742 69.953571
L79.456314 69.982142
" />
<path d="M79.456314 69.982142
L79.470600 70.010714
" />
</g></g>
<g style="fill:#000000; fill-opacity:0.0; 
stroke:#000000; stroke-width:0.100000; stroke-opacity:1; 
stroke-linecap:round; stroke-linejoin:round;">
<text x="71.000000" y="58.850000"
textLength="1.126190" font-size="0.666666" lengthAdjust="spacingAndGlyphs"
text-anchor="middle" opacity="0">D7</text>
<g class="stroked-text"><desc>D7</desc>
<path d="M70.630952 58.826109
L70.630952 58.326109
" />
<path d="M70.630952 58.326109
L70.750000 58.326109
" />
<path d="M70.750000 58.326109
L70.821428 58.349919
" />
<path d="M70.821428 58.349919
L70.869047 58.397538
" />
<path d="M70.869047 58.397538
L70.892857 58.445157
" />
<path d="M70.892857 58.445157
L70.916666 58.540395
" />
<path d="M70.916666 58.540395
L70.916666 58.611823
" />
<path d="M70.916666 58.611823
L70.892857 58.707061
" />
<path d="M70.892857 58.707061
L70.869047 58.754680
" />
<path d="M70.869047 58.754680
L70.821428 58.802300
" />
<path d="M70.821428 58.802300
L70.750000 58.826109
" />
<path d="M70.750000 58.826109
L70.630952 58.826109
" />
<path d="M71.083333 58.326109
L71.416666 58.326109
" />
<path d="M71.416666 58.326109
L71.202381 58.826109
" />
</g></g>
<g style="fill:#000000; fill-opacity:0.0; 
stroke:#000000; stroke-width:0.075000; stroke-opacity:1; 
stroke-linecap:round; stroke-linejoin:round;">
<text x="70.075000" y="59.700000"
textLength="0.413214" font-size="0.400000" lengthAdjust="spacingAndGlyphs"
text-anchor="middle" opacity="0">1</text>
<g class="stroked-text"><desc>1</desc>
<path d="M70.160714 59.684885
L69.989285 59.684885
" />
<path d="M70.075000 59.684885
L70.075000 59.384885
" />
<path d="M70.075000 59.384885
L70.046428 59.427742
" />
<path d="M70.046428 59.427742
L70.017857 59.456314
" />
<path d="M70.017857 59.456314
L69.989285 59.470600
" />
</g></g>
<g style="fill:#000000; fill-opacity:0.0; 
stroke:#000000; stroke-width:0.100000; stroke-opacity:1; 
stroke-linecap:round; stroke-linejoin:round;">
<g transform="rotate(30.000000 72.905771 54.287564)">
<text x="72.905771" y="54.537564"
textLength="1.126190" font-size="0.666666" lengthAdjust="spacingAndGlyphs"
text-anchor="middle" opacity="0">D6</text>
</g>
<g class="stroked-text"><desc>D6</desc>
<path d="M72.473111 54.298856
L72.723111 53.865844
" />
<path d="M72.723111 53.865844
L72.826210 53.925368
" />
<path d="M72.826210 53.925368
L72.876164 53.981701
" />
<path d="M72.876164 53.981701
L72.893594 54.046750
" />
<path d="M72.893594 54.046750
L72.890404 54.099894
" />
<path d="M72.890404 54.099894
L72.863404 54.194278
" />
<path d="M72.863404 54.194278
L72.827690 54.256137
" />
<path d="M72.827690 54.256137
L72.759451 54.326711
" />
<path d="M72.759451 54.326711
L72.715022 54.356045
" />
<path d="M72.715022 54.356045
L72.649973 54.373475
" />
<path d="M72.649973 54.373475
L72.576210 54.358380
" />
<path d="M72.576210 54.358380
L72.473111 54.298856
" />
<path d="M73.341701 54.222987
L73.259222 54.175368
" />
<path d="M73.259222 54.175368
L73.206078 54.172178
" />
<path d="M73.206078 54.172178
L73.173554 54.180893
" />
<path d="M73.173554 54.180893
L73.096600 54.218942
" />
<path d="M73.096600 54.218942
L73.028362 54.289516
" />
<path d="M73.028362 54.289516
L72.933123 54.454473
" />
<path d="M72.933123 54.454473
L72.929934 54.507617
" />
<path d="M72.929934 54.507617
L72.938648 54.540142
" />
<path d="M72.938648 54.540142
L72.967983 54.584571
" />
<path d="M72.967983 54.584571
L73.050462 54.632190
" />
<path d="M73.050462 54.632190
L73.103606 54.635380
" />
<path d="M73.103606 54.635380
L73.136130 54.626665
" />
<path d="M73.136130 54.626665
L73.180559 54.597330
" />
<path d="M73.180559 54.597330
L73.240083 54.494232
" />
<path d="M73.240083 54.494232
L73.243273 54.441088
" />
<path d="M73.243273 54.441088
L73.234558 54.408563
" />
<path d="M73.234558 54.408563
L73.205224 54.364134
" />
<path d="M73.205224 54.364134
L73.122745 54.316515
" />
<path d="M73.122745 54.316515
L73.069601 54.313325
" />
<path d="M73.069601 54.313325
L73.037076 54.322040
" />
<path d="M73.037076 54.322040
L72.992647 54.351375
" />
</g></g>
<g style="fill:#000000; fill-opacity:0.0; 
stroke:#000000; stroke-width:0.075000; stroke-opacity:1; 
stroke-linecap:round; stroke-linejoin:round;">
<g transform="rotate(30.000000 71.629698 54.647789)">
<text x="71.629698" y="54.797789"
textLength="0.413214" font-size="0.400000" lengthAdjust="spacingAndGlyphs"
text-anchor="middle" opacity="0">1</text>
</g>
<g class="stroked-text"><desc>1</desc>
<path d="M71.636486 54.807460
L71.488024 54.721746
" />
<path d="M71.562255 54.764603
L71.712255 54.504795
" />
<path d="M71.712255 54.504795
L71.666083 54.527625
" />
<path d="M71.666083 54.527625
L71.627053 54.538083
" />
<path d="M71.627053 54.538083
L71.595167 54.536169
" />
</g></g>
<g style="fill:#000000; fill-opacity:0.0; 
stroke:#000000; stroke-width:0.100000; stroke-opacity:1; 
stroke-linecap:round; stroke-linejoin:round;">
<text x="90.400000" y="58.400000"
textLength="1.126190" font-size="0.666666" lengthAdjust="spacingAndGlyphs"
text-anchor="middle" opacity="0">R2</text>
<g class="stroked-text"><desc>R2</desc>
<path d="M90.316666 58.376109
L90.150000 58.138014
" />
<path d="M90.030952 58.376109
L90.030952 57.876109
" />
<path d="M90.030952 57.876109
L90.221428 57.876109
" />
<path d="M90.221428 57.876109
L90.269047 57.899919
" />
<path d="M90.269047 57.899919
L90.292857 57.923728
" />
<path d="M90.292857 57.923728
L90.316666 57.971347
" />
<path d="M90.316666 57.971347
L90.316666 58.042776
" />
<path d="M90.316666 58.042776
L90.292857 58.090395
" />
<path d="M90.292857 58.090395
L90.269047 58.114204
" />
<path d="M90.269047 58.114204
L90.221428 58.138014
" />
<path d="M90.221428 58.138014
L90.030952 58.138014
" />
<path d="M90.507143 57.923728
L90.530952 57.899919
" />
<path d="M90.530952 57.899919
L90.578571 57.876109
" />
<path d="M90.578571 57.876109
L90.697619 57.876109
" />
<path d="M90.697619 57.876109
L90.745238 57.899919
" />
<path d="M90.745238 57.899919
L90.769047 57.923728
" />
<path d="M90.769047 57.923728
L90.792857 57.971347
" />
<path d="M90.792857 57.971347
L90.792857 58.018966
" />
<path d="M90.792857 58.018966
L90.769047 58.090395
" />
<path d="M90.769047 58.090395
L90.483333 58.376109
" />
<path d="M90.483333 58.376109
L90.792857 58.376109
" />
</g><text x="90.250000" y="56.900000"
textLength="1.602380" font-size="0.666666" lengthAdjust="spacingAndGlyphs"
text-anchor="middle" opacity="0">D13</text>
<g class="stroked-text"><desc>D13</desc>
<path d="M89.642857 56.876109
L89.642857 56.376109
" />
<path d="M89.642857 56.376109
L89.761905 56.376109
" />
<path d="M89.761905 56.376109
L89.833333 56.399919
" />
<path d="M89.833333 56.399919
L89.880952 56.447538
" />
<path d="M89.880952 56.447538
L89.904762 56.495157
" />
<path d="M89.904762 56.495157
L89.928571 56.590395
" />
<path d="M89.928571 56.590395
L89.928571 56.661823
" />
<path d="M89.928571 56.661823
L89.904762 56.757061
" />
<path d="M89.904762 56.757061
L89.880952 56.804680
" />
<path d="M89.880952 56.804680
L89.833333 56.852300
" />
<path d="M89.833333 56.852300
L89.761905 56.876109
" />
<path d="M89.761905 56.876109
L89.642857 56.876109
" />
<path d="M90.404762 56.876109
L90.119048 56.876109
" />
<path d="M90.261905 56.876109
L90.261905 56.376109
" />
<path d="M90.261905 56.376109
L90.214286 56.447538
" />
<path d="M90.214286 56.447538
L90.166667 56.495157
" />
<path d="M90.166667 56.495157
L90.119048 56.518966
" />
<path d="M90.571428 56.376109
L90.880952 56.376109
" />
<path d="M90.880952 56.376109
L90.714285 56.566585
" />
<path d="M90.714285 56.566585
L90.785714 56.566585
" />
<path d="M90.785714 56.566585
L90.833333 56.590395
" />
<path d="M90.833333 56.590395
L90.857142 56.614204
" />
<path d="M90.857142 56.614204
L90.880952 56.661823
" />
<path d="M90.880952 56.661823
L90.880952 56.780871
" />
<path d="M90.880952 56.780871
L90.857142 56.828490
" />
<path d="M90.857142 56.828490
L90.833333 56.852300
" />
<path d="M90.833333 56.852300
L90.785714 56.876109
" />
<path d="M90.785714 56.876109
L90.642857 56.876109
" />
<path d="M90.642857 56.876109
L90.595238 56.852300
" />
<path d="M90.595238 56.852300
L90.571428 56.828490
" />
</g><g transform="rotate(-30.000000 89.300000 55.950000)">
<text x="89.300000" y="56.200000"
textLength="1.126190" font-size="0.666666" lengthAdjust="spacingAndGlyphs"
text-anchor="middle" opacity="0">D2</text>
</g>
<g class="stroked-text"><desc>D2</desc>
<path d="M89.093450 56.330340
L88.843450 55.897327
" />
<path d="M88.843450 55.897327
L88.946548 55.837803
" />
<path d="M88.946548 55.837803
L89.020312 55.822709
" />
<path d="M89.020312 55.822709
L89.085361 55.840138
" />
<path d="M89.085361 55.840138
L89.129790 55.869473
" />
<path d="M89.129790 55.869473
L89.198029 55.940047
" />
<path d="M89.198029 55.940047
L89.233743 56.001906
" />
<path d="M89.233743 56.001906
L89.260742 56.096289
" />
<path d="M89.260742 56.096289
L89.263932 56.149433
" />
<path d="M89.263932 56.149433
L89.246502 56.214482
" />
<path d="M89.246502 56.214482
L89.196548 56.270816
" />
<path d="M89.196548 56.270816
L89.093450 56.330340
" />
<path d="M89.279652 55.700471
L89.288367 55.667947
" />
<path d="M89.288367 55.667947
L89.317702 55.623518
" />
<path d="M89.317702 55.623518
L89.420800 55.563994
" />
<path d="M89.420800 55.563994
L89.473944 55.560804
" />
<path d="M89.473944 55.560804
L89.506469 55.569519
" />
<path d="M89.506469 55.569519
L89.550898 55.598853
" />
<path d="M89.550898 55.598853
L89.574707 55.640093
" />
<path d="M89.574707 55.640093
L89.589802 55.713856
" />
<path d="M89.589802 55.713856
L89.485223 56.104149
" />
<path d="M89.485223 56.104149
L89.753279 55.949387
" />
</g></g>
<g style="fill:#000000; fill-opacity:0.0; 
stroke:#000000; stroke-width:0.075000; stroke-opacity:1; 
stroke-linecap:round; stroke-linejoin:round;">
<g transform="rotate(-30.000000 88.820302 55.427211)">
<text x="88.820302" y="55.577211"
textLength="0.413214" font-size="0.400000" lengthAdjust="spacingAndGlyphs"
text-anchor="middle" opacity="0">1</text>
</g>
<g class="stroked-text"><desc>1</desc>
<path d="M88.961975 55.501168
L88.813514 55.586882
" />
<path d="M88.887744 55.544025
L88.737744 55.284217
" />
<path d="M88.737744 55.284217
L88.734429 55.335618
" />
<path d="M88.734429 55.335618
L88.723972 55.374648
" />
<path d="M88.723972 55.374648
L88.706371 55.401305
" />
</g></g>
<g style="fill:#000000; fill-opacity:0.0; 
stroke:#000000; stroke-width:0.100000; stroke-opacity:1; 
stroke-linecap:round; stroke-linejoin:round;">
<g transform="rotate(60.000000 76.712436 51.505771)">
<text x="76.712436" y="51.755771"
textLength="1.126190" font-size="0.666666" lengthAdjust="spacingAndGlyphs"
text-anchor="middle" opacity="0">D5</text>
</g>
<g class="stroked-text"><desc>D5</desc>
<path d="M76.332095 51.299221
L76.765108 51.049221
" />
<path d="M76.765108 51.049221
L76.824632 51.152319
" />
<path d="M76.824632 51.152319
L76.839726 51.226083
" />
<path d="M76.839726 51.226083
L76.822297 51.291132
" />
<path d="M76.822297 51.291132
L76.792962 51.335561
" />
<path d="M76.792962 51.335561
L76.722388 51.403800
" />
<path d="M76.722388 51.403800
L76.660529 51.439514
" />
<path d="M76.660529 51.439514
L76.566146 51.466513
" />
<path d="M76.566146 51.466513
L76.513002 51.469703
" />
<path d="M76.513002 51.469703
L76.447953 51.452273
" />
<path d="M76.447953 51.452273
L76.391619 51.402319
" />
<path d="M76.391619 51.402319
L76.332095 51.299221
" />
<path d="M77.134156 51.688430
L77.015108 51.482234
" />
<path d="M77.015108 51.482234
L76.797007 51.580662
" />
<path d="M76.797007 51.580662
L76.829531 51.589376
" />
<path d="M76.829531 51.589376
L76.873960 51.618711
" />
<path d="M76.873960 51.618711
L76.933484 51.721809
" />
<path d="M76.933484 51.721809
L76.936674 51.774953
" />
<path d="M76.936674 51.774953
L76.927959 51.807478
" />
<path d="M76.927959 51.807478
L76.898624 51.851907
" />
<path d="M76.898624 51.851907
L76.795526 51.911431
" />
<path d="M76.795526 51.911431
L76.742382 51.914621
" />
<path d="M76.742382 51.914621
L76.709858 51.905906
" />
<path d="M76.709858 51.905906
L76.665429 51.876571
" />
<path d="M76.665429 51.876571
L76.605905 51.773473
" />
<path d="M76.605905 51.773473
L76.602715 51.720329
" />
<path d="M76.602715 51.720329
L76.611430 51.687804
" />
</g></g>
<g style="fill:#000000; fill-opacity:0.0; 
stroke:#000000; stroke-width:0.075000; stroke-opacity:1; 
stroke-linecap:round; stroke-linejoin:round;">
<g transform="rotate(60.000000 75.427211 51.179698)">
<text x="75.427211" y="51.329698"
textLength="0.413214" font-size="0.400000" lengthAdjust="spacingAndGlyphs"
text-anchor="middle" opacity="0">1</text>
</g>
<g class="stroked-text"><desc>1</desc>
<path d="M75.353253 51.321371
L75.267539 51.172910
" />
<path d="M75.310396 51.247140
L75.570204 51.097140
" />
<path d="M75.570204 51.097140
L75.518803 51.093825
" />
<path d="M75.518803 51.093825
L75.479773 51.083368
" />
<path d="M75.479773 51.083368
L75.453116 51.065767
" />
</g></g>
<g style="fill:#000000; fill-opacity:0.0; 
stroke:#000000; stroke-width:0.100000; stroke-opacity:1; 
stroke-linecap:round; stroke-linejoin:round;">
<g transform="rotate(-60.000000 74.287564 67.094229)">
<text x="74.287564" y="67.344229"
textLength="1.126190" font-size="0.666666" lengthAdjust="spacingAndGlyphs"
text-anchor="middle" opacity="0">D9</text>
</g>
<g class="stroked-text"><desc>D9</desc>
<path d="M74.298856 67.526888
L73.865844 67.276888
" />
<path d="M73.865844 67.276888
L73.925368 67.173789
" />
<path d="M73.925368 67.173789
L73.981701 67.123835
" />
<path d="M73.981701 67.123835
L74.046750 67.106405
" />
<path d="M74.046750 67.106405
L74.099894 67.109595
" />
<path d="M74.099894 67.109595
L74.194278 67.136595
" />
<path d="M74.194278 67.136595
L74.256137 67.172309
" />
<path d="M74.256137 67.172309
L74.326711 67.240548
" />
<path d="M74.326711 67.240548
L74.356045 67.284977
" />
<path d="M74.356045 67.284977
L74.373475 67.350026
" />
<path d="M74.373475 67.350026
L74.358380 67.423789
" />
<path d="M74.358380 67.423789
L74.298856 67.526888
" />
<path d="M74.560761 67.073255
L74.608380 66.990777
" />
<path d="M74.608380 66.990777
L74.611570 66.937633
" />
<path d="M74.611570 66.937633
L74.602855 66.905108
" />
<path d="M74.602855 66.905108
L74.564806 66.828155
" />
<path d="M74.564806 66.828155
L74.494232 66.759916
" />
<path d="M74.494232 66.759916
L74.329275 66.664678
" />
<path d="M74.329275 66.664678
L74.276131 66.661488
" />
<path d="M74.276131 66.661488
L74.243606 66.670203
" />
<path d="M74.243606 66.670203
L74.199177 66.699537
" />
<path d="M74.199177 66.699537
L74.151558 66.782016
" />
<path d="M74.151558 66.782016
L74.148368 66.835160
" />
<path d="M74.148368 66.835160
L74.157083 66.867684
" />
<path d="M74.157083 66.867684
L74.186418 66.912114
" />
<path d="M74.186418 66.912114
L74.289516 66.971637
" />
<path d="M74.289516 66.971637
L74.342660 66.974827
" />
<path d="M74.342660 66.974827
L74.375184 66.966112
" />
<path d="M74.375184 66.966112
L74.419613 66.936778
" />
<path d="M74.419613 66.936778
L74.467233 66.854299
" />
<path d="M74.467233 66.854299
L74.470422 66.801155
" />
<path d="M74.470422 66.801155
L74.461707 66.768631
" />
<path d="M74.461707 66.768631
L74.432373 66.724202
" />
</g></g>
<g style="fill:#000000; fill-opacity:0.0; 
stroke:#000000; stroke-width:0.075000; stroke-opacity:1; 
stroke-linecap:round; stroke-linejoin:round;">
<g transform="rotate(-60.000000 74.647789 68.370302)">
<text x="74.647789" y="68.520302"
textLength="0.413214" font-size="0.400000" lengthAdjust="spacingAndGlyphs"
text-anchor="middle" opacity="0">1</text>
</g>
<g class="stroked-text"><desc>1</desc>
<path d="M74.807460 68.363513
L74.721746 68.511975
" />
<path d="M74.764603 68.437744
L74.504795 68.287744
" />
<path d="M74.504795 68.287744
L74.527625 68.333916
" />
<path d="M74.527625 68.333916
L74.538083 68.372946
" />
<path d="M74.538083 68.372946
L74.536169 68.404832
" />
</g></g>
<g style="fill:#000000; fill-opacity:0.0; 
stroke:#000000; stroke-width:0.100000; stroke-opacity:1; 
stroke-linecap:round; stroke-linejoin:round;">
<g transform="rotate(-60.000000 85.712436 52.905771)">
<text x="85.712436" y="53.155771"
textLength="1.126190" font-size="0.666666" lengthAdjust="spacingAndGlyphs"
text-anchor="middle" opacity="0">D3</text>
</g>
<g class="stroked-text"><desc>D3</desc>
<path d="M85.723728 53.338430
L85.290716 53.088430
" />
<path d="M85.290716 53.088430
L85.350240 52.985331
" />
<path d="M85.350240 52.985331
L85.406573 52.935377
" />
<path d="M85.406573 52.935377
L85.471622 52.917947
" />
<path d="M85.471622 52.917947
L85.524766 52.921137
" />
<path d="M85.524766 52.921137
L85.619150 52.948137
" />
<path d="M85.619150 52.948137
L85.681009 52.983851
" />
<path d="M85.681009 52.983851
L85.751583 53.052090
" />
<path d="M85.751583 53.052090
L85.780917 53.096519
" />
<path d="M85.780917 53.096519
L85.798347 53.161568
" />
<path d="M85.798347 53.161568
L85.783252 53.235331
" />
<path d="M85.783252 53.235331
L85.723728 53.338430
" />
<path d="M85.516906 52.696656
L85.671668 52.428601
" />
<path d="M85.671668 52.428601
L85.753292 52.668176
" />
<path d="M85.753292 52.668176
L85.789006 52.606317
" />
<path d="M85.789006 52.606317
L85.833435 52.576983
" />
<path d="M85.833435 52.576983
L85.865960 52.568268
" />
<path d="M85.865960 52.568268
L85.919104 52.571458
" />
<path d="M85.919104 52.571458
L86.022202 52.630982
" />
<path d="M86.022202 52.630982
L86.051537 52.675411
" />
<path d="M86.051537 52.675411
L86.060252 52.707935
" />
<path d="M86.060252 52.707935
L86.057062 52.761079
" />
<path d="M86.057062 52.761079
L85.985633 52.884797
" />
<path d="M85.985633 52.884797
L85.941204 52.914132
" />
<path d="M85.941204 52.914132
L85.908680 52.922847
" />
</g></g>
<g style="fill:#000000; fill-opacity:0.0; 
stroke:#000000; stroke-width:0.075000; stroke-opacity:1; 
stroke-linecap:round; stroke-linejoin:round;">
<g transform="rotate(-60.000000 85.352211 51.629698)">
<text x="85.352211" y="51.779698"
textLength="0.413214" font-size="0.400000" lengthAdjust="spacingAndGlyphs"
text-anchor="middle" opacity="0">1</text>
</g>
<g class="stroked-text"><desc>1</desc>
<path d="M85.511882 51.622909
L85.426168 51.771371
" />
<path d="M85.469025 51.697140
L85.209217 51.547140
" />
<path d="M85.209217 51.547140
L85.232047 51.593312
" />
<path d="M85.232047 51.593312
L85.242505 51.632342
" />
<path d="M85.242505 51.632342
L85.240591 51.664228
" />
</g></g>
<g style="fill:#000000; fill-opacity:0.0; 
stroke:#000000; stroke-width:0.100000; stroke-opacity:1; 
stroke-linecap:round; stroke-linejoin:round;">
<path d="M83.338878 67.483107
L83.663878 68.046024
" />
<path d="M83.901795 67.158107
L83.338878 67.483107
" />
<path d="M88.150000 60.850000
L88.800000 60.850000
" />
<path d="M88.150000 60.200000
L88.150000 60.850000
" />
<path d="M80.850000 51.850000
L80.850000 51.200000
" />
<path d="M80.200000 51.850000
L80.850000 51.850000
" />
<path d="M86.633107 64.811122
L87.196024 65.136122
" />
<path d="M86.958107 64.248205
L86.633107 64.811122
" />
<path d="M72.516893 63.338878
L71.953976 63.663878
" />
<path d="M72.841893 63.901795
L72.516893 63.338878
" />
<path d="M79.150000 68.150000
L79.150000 68.800000
" />
<path d="M79.800000 68.150000
L79.150000 68.150000
" />
<path d="M71.850000 59.150000
L71.200000 59.150000
" />
<path d="M71.850000 59.800000
L71.850000 59.150000
" />
<path d="M73.366893 55.188878
L72.803976 54.863878
" />
<path d="M73.041893 55.751795
L73.366893 55.188878
" />
</g>
<g style="fill:#000000; fill-opacity:0.0; 
stroke:#000000; stroke-width:0.120000; stroke-opacity:1; 
stroke-linecap:round; stroke-linejoin:round;">
<path d="M87.912500 56.750000
L87.912500 57.550000
" />
<path d="M89.272500 56.750000
L87.912500 56.750000
" />
<path d="M89.272500 57.550000
L87.912500 57.550000
" />
</g>
<g style="fill:#000000; fill-opacity:0.0; 
stroke:#000000; stroke-width:0.100000; stroke-opacity:1; 
stroke-linecap:round; stroke-linejoin:round;">
<path d="M87.483107 56.661122
L88.046024 56.336122
" />
<path d="M87.158107 56.098205
L87.483107 56.661122
" />
<path d="M76.661122 52.516893
L76.336122 51.953976
" />
<path d="M76.098205 52.841893
L76.661122 52.516893
" />
<path d="M75.188878 66.633107
L74.863878 67.196024
" />
<path d="M75.751795 66.958107
L75.188878 66.633107
" />
<path d="M84.811122 53.366893
L85.136122 52.803976
" />
<path d="M84.248205 53.041893
L84.811122 53.366893
" />
<g >
</g>
<g >
</g>
<g >
</g>
<g >
</g>
<g >
</g>
<g >
</g>
<g >
</g>
<g >
</g>
<g >
</g>
<g >
</g>
<g >
</g>
<g >
</g>
<g >
</g>
<g >
</g>
<g >
</g>
<g >
</g>
<g >
</g>
<g >
</g>
<g >
</g>
<g >
</g>
<g >
</g>
<g >
</g>
<g >
</g>
<g >
</g>
<g >
</g>
<g >
</g>
<g >
</g>
<g >
</g>
<g >
</g>
<g >
</g>
<g >
</g>
<g >
</g>
<g >
</g>
<g >
</g>
<g >
</g>
<g >
</g>
</g> 
</svg>
