<?xml version="1.0" standalone="no"?>
 <!DOCTYPE svg PUBLIC "-//W3C//DTD SVG 1.1//EN" 
 "http://www.w3.org/Graphics/SVG/1.1/DTD/svg11.dtd"> 
<svg
  xmlns:svg="http://www.w3.org/2000/svg"
  xmlns="http://www.w3.org/2000/svg"
  xmlns:xlink="http://www.w3.org/1999/xlink"
  version="1.1"
  width="297.0022mm" height="210.0072mm" viewBox="0.0000 0.0000 297.0022 210.0072">
<title>SVG Image created as pedalboard-led-ring-F_Cu.svg date 2023/06/03 13:05:16 </title>
  <desc>Image generated by PCBNEW </desc>
<g style="fill:#000000; fill-opacity:1.0000;stroke:#000000; stroke-opacity:1.0000;
stroke-linecap:round; stroke-linejoin:round;"
 transform="translate(0 0) scale(1 1)">
</g>
<g style="fill:#000000; fill-opacity:0.0; 
stroke:#000000; stroke-width:0.0000; stroke-opacity:1; 
stroke-linecap:round; stroke-linejoin:round;">
<g >
</g>
<g style="fill:#000000; fill-opacity:0.0; 
stroke:#000000; stroke-width:0.0000; stroke-opacity:1; 
stroke-linecap:round; stroke-linejoin:round;">
</g>
<g style="fill:#000000; fill-opacity:1.0000; 
stroke:#000000; stroke-width:0.0000; stroke-opacity:1; 
stroke-linecap:round; stroke-linejoin:round;">
<path style="fill:#000000; fill-opacity:1.0000; 
stroke:#000000; stroke-width:0.0000; stroke-opacity:1; 
stroke-linecap:round; stroke-linejoin:round;fill-rule:evenodd;"
d="M 71.3125,65.8529
71.2756,65.8654
71.2367,65.8629
71.2017,65.8456
71.1759,65.8163
70.9584,65.4395
70.9459,65.4026
70.9484,65.3637
70.9657,65.3287
70.9950,65.3029
71.1682,65.2029
71.2052,65.1904
71.2441,65.1930
71.2791,65.2102
71.3048,65.2395
71.5223,65.6163
71.5349,65.6532
71.5323,65.6921
71.5151,65.7271
71.4857,65.7529
Z" /> 
<path style="fill:#000000; fill-opacity:1.0000; 
stroke:#000000; stroke-width:0.0000; stroke-opacity:1; 
stroke-linecap:round; stroke-linejoin:round;fill-rule:evenodd;"
d="M 70.9050,65.1471
70.8681,65.1596
70.8292,65.1570
70.7942,65.1398
70.7684,65.1105
70.5509,64.7337
70.5384,64.6968
70.5409,64.6579
70.5582,64.6229
70.5875,64.5971
70.7607,64.4971
70.7977,64.4846
70.8366,64.4871
70.8716,64.5044
70.8973,64.5337
71.1148,64.9105
71.1274,64.9474
71.1248,64.9863
71.1076,65.0213
71.0782,65.0471
Z" /> 
</g>
<g >
</g>
<g style="fill:#000000; fill-opacity:1.0000; 
stroke:#000000; stroke-width:0.0000; stroke-opacity:1; 
stroke-linecap:round; stroke-linejoin:round;">
<path style="fill:#000000; fill-opacity:1.0000; 
stroke:#000000; stroke-width:0.0000; stroke-opacity:1; 
stroke-linecap:round; stroke-linejoin:round;fill-rule:evenodd;"
d="M 84.3232,67.0880
84.7562,66.8380
85.0062,67.2710
84.5732,67.5210
Z" /> 
<path style="fill:#000000; fill-opacity:1.0000; 
stroke:#000000; stroke-width:0.0000; stroke-opacity:1; 
stroke-linecap:round; stroke-linejoin:round;fill-rule:evenodd;"
d="M 83.5438,67.5380
83.9768,67.2880
84.2268,67.7210
83.7938,67.9710
Z" /> 
<path style="fill:#000000; fill-opacity:1.0000; 
stroke:#000000; stroke-width:0.0000; stroke-opacity:1; 
stroke-linecap:round; stroke-linejoin:round;fill-rule:evenodd;"
d="M 83.9938,68.3174
84.4268,68.0674
84.6768,68.5004
84.2438,68.7504
Z" /> 
<path style="fill:#000000; fill-opacity:1.0000; 
stroke:#000000; stroke-width:0.0000; stroke-opacity:1; 
stroke-linecap:round; stroke-linejoin:round;fill-rule:evenodd;"
d="M 84.7732,67.8674
85.2062,67.6174
85.4562,68.0504
85.0232,68.3004
Z" /> 
</g>
<g >
</g>
<g style="fill:#000000; fill-opacity:1.0000; 
stroke:#000000; stroke-width:0.0000; stroke-opacity:1; 
stroke-linecap:round; stroke-linejoin:round;">
<path style="fill:#000000; fill-opacity:1.0000; 
stroke:#000000; stroke-width:0.0000; stroke-opacity:1; 
stroke-linecap:round; stroke-linejoin:round;fill-rule:evenodd;"
d="M 88.3000,59.8000
88.3000,59.3000
88.8000,59.3000
88.8000,59.8000
Z" /> 
<path style="fill:#000000; fill-opacity:1.0000; 
stroke:#000000; stroke-width:0.0000; stroke-opacity:1; 
stroke-linecap:round; stroke-linejoin:round;fill-rule:evenodd;"
d="M 88.3000,60.7000
88.3000,60.2000
88.8000,60.2000
88.8000,60.7000
Z" /> 
<path style="fill:#000000; fill-opacity:1.0000; 
stroke:#000000; stroke-width:0.0000; stroke-opacity:1; 
stroke-linecap:round; stroke-linejoin:round;fill-rule:evenodd;"
d="M 89.2000,60.7000
89.2000,60.2000
89.7000,60.2000
89.7000,60.7000
Z" /> 
<path style="fill:#000000; fill-opacity:1.0000; 
stroke:#000000; stroke-width:0.0000; stroke-opacity:1; 
stroke-linecap:round; stroke-linejoin:round;fill-rule:evenodd;"
d="M 89.2000,59.8000
89.2000,59.3000
89.7000,59.3000
89.7000,59.8000
Z" /> 
</g>
<g >
</g>
<g style="fill:#000000; fill-opacity:1.0000; 
stroke:#000000; stroke-width:0.0000; stroke-opacity:1; 
stroke-linecap:round; stroke-linejoin:round;">
<path style="fill:#000000; fill-opacity:1.0000; 
stroke:#000000; stroke-width:0.0000; stroke-opacity:1; 
stroke-linecap:round; stroke-linejoin:round;fill-rule:evenodd;"
d="M 79.8000,51.7000
79.3000,51.7000
79.3000,51.2000
79.8000,51.2000
Z" /> 
<path style="fill:#000000; fill-opacity:1.0000; 
stroke:#000000; stroke-width:0.0000; stroke-opacity:1; 
stroke-linecap:round; stroke-linejoin:round;fill-rule:evenodd;"
d="M 80.7000,51.7000
80.2000,51.7000
80.2000,51.2000
80.7000,51.2000
Z" /> 
<path style="fill:#000000; fill-opacity:1.0000; 
stroke:#000000; stroke-width:0.0000; stroke-opacity:1; 
stroke-linecap:round; stroke-linejoin:round;fill-rule:evenodd;"
d="M 80.7000,50.8000
80.2000,50.8000
80.2000,50.3000
80.7000,50.3000
Z" /> 
<path style="fill:#000000; fill-opacity:1.0000; 
stroke:#000000; stroke-width:0.0000; stroke-opacity:1; 
stroke-linecap:round; stroke-linejoin:round;fill-rule:evenodd;"
d="M 79.8000,50.8000
79.3000,50.8000
79.3000,50.3000
79.8000,50.3000
Z" /> 
</g>
<g >
</g>
<g style="fill:#000000; fill-opacity:1.0000; 
stroke:#000000; stroke-width:0.0000; stroke-opacity:1; 
stroke-linecap:round; stroke-linejoin:round;">
<path style="fill:#000000; fill-opacity:1.0000; 
stroke:#000000; stroke-width:0.0000; stroke-opacity:1; 
stroke-linecap:round; stroke-linejoin:round;fill-rule:evenodd;"
d="M 87.2880,63.9768
87.5380,63.5438
87.9710,63.7938
87.7210,64.2268
Z" /> 
<path style="fill:#000000; fill-opacity:1.0000; 
stroke:#000000; stroke-width:0.0000; stroke-opacity:1; 
stroke-linecap:round; stroke-linejoin:round;fill-rule:evenodd;"
d="M 86.8380,64.7562
87.0880,64.3232
87.5210,64.5732
87.2710,65.0062
Z" /> 
<path style="fill:#000000; fill-opacity:1.0000; 
stroke:#000000; stroke-width:0.0000; stroke-opacity:1; 
stroke-linecap:round; stroke-linejoin:round;fill-rule:evenodd;"
d="M 87.6174,65.2062
87.8674,64.7732
88.3004,65.0232
88.0504,65.4562
Z" /> 
<path style="fill:#000000; fill-opacity:1.0000; 
stroke:#000000; stroke-width:0.0000; stroke-opacity:1; 
stroke-linecap:round; stroke-linejoin:round;fill-rule:evenodd;"
d="M 88.0674,64.4268
88.3174,63.9938
88.7504,64.2438
88.5004,64.6768
Z" /> 
</g>
<g >
</g>
<g style="fill:#000000; fill-opacity:1.0000; 
stroke:#000000; stroke-width:0.0000; stroke-opacity:1; 
stroke-linecap:round; stroke-linejoin:round;">
<path style="fill:#000000; fill-opacity:1.0000; 
stroke:#000000; stroke-width:0.0000; stroke-opacity:1; 
stroke-linecap:round; stroke-linejoin:round;fill-rule:evenodd;"
d="M 72.9120,64.3232
73.1620,64.7562
72.7290,65.0062
72.4790,64.5732
Z" /> 
<path style="fill:#000000; fill-opacity:1.0000; 
stroke:#000000; stroke-width:0.0000; stroke-opacity:1; 
stroke-linecap:round; stroke-linejoin:round;fill-rule:evenodd;"
d="M 72.4620,63.5438
72.7120,63.9768
72.2790,64.2268
72.0290,63.7938
Z" /> 
<path style="fill:#000000; fill-opacity:1.0000; 
stroke:#000000; stroke-width:0.0000; stroke-opacity:1; 
stroke-linecap:round; stroke-linejoin:round;fill-rule:evenodd;"
d="M 71.6826,63.9938
71.9326,64.4268
71.4996,64.6768
71.2496,64.2438
Z" /> 
<path style="fill:#000000; fill-opacity:1.0000; 
stroke:#000000; stroke-width:0.0000; stroke-opacity:1; 
stroke-linecap:round; stroke-linejoin:round;fill-rule:evenodd;"
d="M 72.1326,64.7732
72.3826,65.2062
71.9496,65.4562
71.6996,65.0232
Z" /> 
</g>
<g >
</g>
<g >
</g>
<g style="fill:#000000; fill-opacity:1.0000; 
stroke:#000000; stroke-width:0.0000; stroke-opacity:1; 
stroke-linecap:round; stroke-linejoin:round;">
<path style="fill:#000000; fill-opacity:1.0000; 
stroke:#000000; stroke-width:0.0000; stroke-opacity:1; 
stroke-linecap:round; stroke-linejoin:round;fill-rule:evenodd;"
d="M 80.2000,68.3000
80.7000,68.3000
80.7000,68.8000
80.2000,68.8000
Z" /> 
<path style="fill:#000000; fill-opacity:1.0000; 
stroke:#000000; stroke-width:0.0000; stroke-opacity:1; 
stroke-linecap:round; stroke-linejoin:round;fill-rule:evenodd;"
d="M 79.3000,68.3000
79.8000,68.3000
79.8000,68.8000
79.3000,68.8000
Z" /> 
<path style="fill:#000000; fill-opacity:1.0000; 
stroke:#000000; stroke-width:0.0000; stroke-opacity:1; 
stroke-linecap:round; stroke-linejoin:round;fill-rule:evenodd;"
d="M 79.3000,69.2000
79.8000,69.2000
79.8000,69.7000
79.3000,69.7000
Z" /> 
<path style="fill:#000000; fill-opacity:1.0000; 
stroke:#000000; stroke-width:0.0000; stroke-opacity:1; 
stroke-linecap:round; stroke-linejoin:round;fill-rule:evenodd;"
d="M 80.2000,69.2000
80.7000,69.2000
80.7000,69.7000
80.2000,69.7000
Z" /> 
</g>
<g >
</g>
<g style="fill:#000000; fill-opacity:1.0000; 
stroke:#000000; stroke-width:0.0000; stroke-opacity:1; 
stroke-linecap:round; stroke-linejoin:round;">
<path style="fill:#000000; fill-opacity:1.0000; 
stroke:#000000; stroke-width:0.0000; stroke-opacity:1; 
stroke-linecap:round; stroke-linejoin:round;fill-rule:evenodd;"
d="M 85.8529,68.6875
85.8654,68.7244
85.8629,68.7633
85.8456,68.7983
85.8163,68.8241
85.4395,69.0416
85.4026,69.0541
85.3637,69.0516
85.3287,69.0343
85.3029,69.0050
85.2029,68.8318
85.1904,68.7948
85.1930,68.7559
85.2102,68.7209
85.2395,68.6952
85.6163,68.4777
85.6532,68.4651
85.6921,68.4677
85.7271,68.4849
85.7529,68.5143
Z" /> 
<path style="fill:#000000; fill-opacity:1.0000; 
stroke:#000000; stroke-width:0.0000; stroke-opacity:1; 
stroke-linecap:round; stroke-linejoin:round;fill-rule:evenodd;"
d="M 85.1471,69.0950
85.1596,69.1319
85.1570,69.1708
85.1398,69.2058
85.1105,69.2316
84.7337,69.4491
84.6968,69.4616
84.6579,69.4591
84.6229,69.4418
84.5971,69.4125
84.4971,69.2393
84.4846,69.2023
84.4871,69.1634
84.5044,69.1284
84.5337,69.1027
84.9105,68.8852
84.9474,68.8726
84.9863,68.8752
85.0213,68.8924
85.0471,68.9218
Z" /> 
</g>
<g >
</g>
<g style="fill:#000000; fill-opacity:1.0000; 
stroke:#000000; stroke-width:0.0000; stroke-opacity:1; 
stroke-linecap:round; stroke-linejoin:round;">
<path style="fill:#000000; fill-opacity:1.0000; 
stroke:#000000; stroke-width:0.0000; stroke-opacity:1; 
stroke-linecap:round; stroke-linejoin:round;fill-rule:evenodd;"
d="M 71.7000,60.2000
71.7000,60.7000
71.2000,60.7000
71.2000,60.2000
Z" /> 
<path style="fill:#000000; fill-opacity:1.0000; 
stroke:#000000; stroke-width:0.0000; stroke-opacity:1; 
stroke-linecap:round; stroke-linejoin:round;fill-rule:evenodd;"
d="M 71.7000,59.3000
71.7000,59.8000
71.2000,59.8000
71.2000,59.3000
Z" /> 
<path style="fill:#000000; fill-opacity:1.0000; 
stroke:#000000; stroke-width:0.0000; stroke-opacity:1; 
stroke-linecap:round; stroke-linejoin:round;fill-rule:evenodd;"
d="M 70.8000,59.3000
70.8000,59.8000
70.3000,59.8000
70.3000,59.3000
Z" /> 
<path style="fill:#000000; fill-opacity:1.0000; 
stroke:#000000; stroke-width:0.0000; stroke-opacity:1; 
stroke-linecap:round; stroke-linejoin:round;fill-rule:evenodd;"
d="M 70.8000,60.2000
70.8000,60.7000
70.3000,60.7000
70.3000,60.2000
Z" /> 
</g>
<g >
</g>
<g style="fill:#000000; fill-opacity:1.0000; 
stroke:#000000; stroke-width:0.0000; stroke-opacity:1; 
stroke-linecap:round; stroke-linejoin:round;">
<path style="fill:#000000; fill-opacity:1.0000; 
stroke:#000000; stroke-width:0.0000; stroke-opacity:1; 
stroke-linecap:round; stroke-linejoin:round;fill-rule:evenodd;"
d="M 72.7120,56.0232
72.4620,56.4562
72.0290,56.2062
72.2790,55.7732
Z" /> 
<path style="fill:#000000; fill-opacity:1.0000; 
stroke:#000000; stroke-width:0.0000; stroke-opacity:1; 
stroke-linecap:round; stroke-linejoin:round;fill-rule:evenodd;"
d="M 73.1620,55.2438
72.9120,55.6768
72.4790,55.4268
72.7290,54.9938
Z" /> 
<path style="fill:#000000; fill-opacity:1.0000; 
stroke:#000000; stroke-width:0.0000; stroke-opacity:1; 
stroke-linecap:round; stroke-linejoin:round;fill-rule:evenodd;"
d="M 72.3826,54.7938
72.1326,55.2268
71.6996,54.9768
71.9496,54.5438
Z" /> 
<path style="fill:#000000; fill-opacity:1.0000; 
stroke:#000000; stroke-width:0.0000; stroke-opacity:1; 
stroke-linecap:round; stroke-linejoin:round;fill-rule:evenodd;"
d="M 71.9326,55.5732
71.6826,56.0062
71.2496,55.7562
71.4996,55.3232
Z" /> 
</g>
<g >
</g>
<g style="fill:#000000; fill-opacity:1.0000; 
stroke:#000000; stroke-width:0.0000; stroke-opacity:1; 
stroke-linecap:round; stroke-linejoin:round;">
<path style="fill:#000000; fill-opacity:1.0000; 
stroke:#000000; stroke-width:0.0000; stroke-opacity:1; 
stroke-linecap:round; stroke-linejoin:round;fill-rule:evenodd;"
d="M 88.6209,65.5779
88.5916,65.5521
88.5743,65.5171
88.5718,65.4782
88.5843,65.4413
88.8018,65.0645
88.8275,65.0352
88.8625,65.0180
88.9014,65.0154
88.9384,65.0279
89.1116,65.1279
89.1409,65.1537
89.1582,65.1887
89.1607,65.2276
89.1482,65.2645
88.9307,65.6413
88.9050,65.6706
88.8700,65.6879
88.8310,65.6904
88.7941,65.6779
Z" /> 
<path style="fill:#000000; fill-opacity:1.0000; 
stroke:#000000; stroke-width:0.0000; stroke-opacity:1; 
stroke-linecap:round; stroke-linejoin:round;fill-rule:evenodd;"
d="M 89.0284,64.8721
88.9991,64.8463
88.9818,64.8113
88.9793,64.7724
88.9918,64.7355
89.2093,64.3587
89.2350,64.3294
89.2700,64.3121
89.3089,64.3096
89.3459,64.3221
89.5191,64.4221
89.5484,64.4479
89.5657,64.4829
89.5682,64.5218
89.5557,64.5587
89.3382,64.9355
89.3125,64.9648
89.2775,64.9820
89.2385,64.9846
89.2016,64.9721
Z" /> 
</g>
<g >
</g>
<g >
</g>
<g style="fill:#000000; fill-opacity:1.0000; 
stroke:#000000; stroke-width:0.0000; stroke-opacity:1; 
stroke-linecap:round; stroke-linejoin:round;">
<path style="fill:#000000; fill-opacity:1.0000; 
stroke:#000000; stroke-width:0.0000; stroke-opacity:1; 
stroke-linecap:round; stroke-linejoin:round;fill-rule:evenodd;"
d="M 70.5875,55.4029
70.5582,55.3771
70.5409,55.3421
70.5384,55.3032
70.5509,55.2663
70.7684,54.8895
70.7942,54.8602
70.8292,54.8430
70.8681,54.8404
70.9050,54.8529
71.0782,54.9529
71.1076,54.9787
71.1248,55.0137
71.1274,55.0526
71.1148,55.0895
70.8973,55.4663
70.8716,55.4956
70.8366,55.5129
70.7977,55.5154
70.7607,55.5029
Z" /> 
<path style="fill:#000000; fill-opacity:1.0000; 
stroke:#000000; stroke-width:0.0000; stroke-opacity:1; 
stroke-linecap:round; stroke-linejoin:round;fill-rule:evenodd;"
d="M 70.9950,54.6971
70.9657,54.6713
70.9484,54.6363
70.9459,54.5974
70.9584,54.5605
71.1759,54.1837
71.2017,54.1544
71.2367,54.1371
71.2756,54.1346
71.3125,54.1471
71.4857,54.2471
71.5151,54.2729
71.5323,54.3079
71.5349,54.3468
71.5223,54.3837
71.3048,54.7605
71.2791,54.7898
71.2441,54.8070
71.2052,54.8096
71.1682,54.7971
Z" /> 
</g>
<g >
</g>
<g >
</g>
<g style="fill:#000000; fill-opacity:1.0000; 
stroke:#000000; stroke-width:0.0000; stroke-opacity:1; 
stroke-linecap:round; stroke-linejoin:round;">
<path style="fill:#000000; fill-opacity:1.0000; 
stroke:#000000; stroke-width:0.0000; stroke-opacity:1; 
stroke-linecap:round; stroke-linejoin:round;fill-rule:evenodd;"
d="M 75.4029,69.4125
75.3771,69.4418
75.3421,69.4591
75.3032,69.4616
75.2663,69.4491
74.8895,69.2316
74.8602,69.2058
74.8430,69.1708
74.8404,69.1319
74.8529,69.0950
74.9529,68.9218
74.9787,68.8924
75.0137,68.8752
75.0526,68.8726
75.0895,68.8852
75.4663,69.1027
75.4956,69.1284
75.5129,69.1634
75.5154,69.2023
75.5029,69.2393
Z" /> 
<path style="fill:#000000; fill-opacity:1.0000; 
stroke:#000000; stroke-width:0.0000; stroke-opacity:1; 
stroke-linecap:round; stroke-linejoin:round;fill-rule:evenodd;"
d="M 74.6971,69.0050
74.6713,69.0343
74.6363,69.0516
74.5974,69.0541
74.5605,69.0416
74.1837,68.8241
74.1544,68.7983
74.1371,68.7633
74.1346,68.7244
74.1471,68.6875
74.2471,68.5143
74.2729,68.4849
74.3079,68.4677
74.3468,68.4651
74.3837,68.4777
74.7605,68.6952
74.7898,68.7209
74.8070,68.7559
74.8096,68.7948
74.7971,68.8318
Z" /> 
</g>
<g >
</g>
<g style="fill:#000000; fill-opacity:1.0000; 
stroke:#000000; stroke-width:0.0000; stroke-opacity:1; 
stroke-linecap:round; stroke-linejoin:round;">
<path style="fill:#000000; fill-opacity:1.0000; 
stroke:#000000; stroke-width:0.0000; stroke-opacity:1; 
stroke-linecap:round; stroke-linejoin:round;fill-rule:evenodd;"
d="M 69.5500,60.7250
69.5117,60.7174
69.4793,60.6957
69.4576,60.6633
69.4500,60.6250
69.4500,60.1900
69.4576,60.1517
69.4793,60.1193
69.5117,60.0976
69.5500,60.0900
69.7500,60.0900
69.7883,60.0976
69.8207,60.1193
69.8424,60.1517
69.8500,60.1900
69.8500,60.6250
69.8424,60.6633
69.8207,60.6957
69.7883,60.7174
69.7500,60.7250
Z" /> 
<path style="fill:#000000; fill-opacity:1.0000; 
stroke:#000000; stroke-width:0.0000; stroke-opacity:1; 
stroke-linecap:round; stroke-linejoin:round;fill-rule:evenodd;"
d="M 69.5500,59.9100
69.5117,59.9024
69.4793,59.8807
69.4576,59.8483
69.4500,59.8100
69.4500,59.3750
69.4576,59.3367
69.4793,59.3043
69.5117,59.2826
69.5500,59.2750
69.7500,59.2750
69.7883,59.2826
69.8207,59.3043
69.8424,59.3367
69.8500,59.3750
69.8500,59.8100
69.8424,59.8483
69.8207,59.8807
69.7883,59.9024
69.7500,59.9100
Z" /> 
</g>
<g >
</g>
<g style="fill:#000000; fill-opacity:1.0000; 
stroke:#000000; stroke-width:0.0000; stroke-opacity:1; 
stroke-linecap:round; stroke-linejoin:round;">
<path style="fill:#000000; fill-opacity:1.0000; 
stroke:#000000; stroke-width:0.0000; stroke-opacity:1; 
stroke-linecap:round; stroke-linejoin:round;fill-rule:evenodd;"
d="M 80.7250,70.4500
80.7174,70.4883
80.6957,70.5207
80.6633,70.5424
80.6250,70.5500
80.1900,70.5500
80.1517,70.5424
80.1193,70.5207
80.0976,70.4883
80.0900,70.4500
80.0900,70.2500
80.0976,70.2117
80.1193,70.1793
80.1517,70.1576
80.1900,70.1500
80.6250,70.1500
80.6633,70.1576
80.6957,70.1793
80.7174,70.2117
80.7250,70.2500
Z" /> 
<path style="fill:#000000; fill-opacity:1.0000; 
stroke:#000000; stroke-width:0.0000; stroke-opacity:1; 
stroke-linecap:round; stroke-linejoin:round;fill-rule:evenodd;"
d="M 79.9100,70.4500
79.9024,70.4883
79.8807,70.5207
79.8483,70.5424
79.8100,70.5500
79.3750,70.5500
79.3367,70.5424
79.3043,70.5207
79.2826,70.4883
79.2750,70.4500
79.2750,70.2500
79.2826,70.2117
79.3043,70.1793
79.3367,70.1576
79.3750,70.1500
79.8100,70.1500
79.8483,70.1576
79.8807,70.1793
79.9024,70.2117
79.9100,70.2500
Z" /> 
</g>
<g >
</g>
<g style="fill:#000000; fill-opacity:1.0000; 
stroke:#000000; stroke-width:0.0000; stroke-opacity:1; 
stroke-linecap:round; stroke-linejoin:round;">
<path style="fill:#000000; fill-opacity:1.0000; 
stroke:#000000; stroke-width:0.0000; stroke-opacity:1; 
stroke-linecap:round; stroke-linejoin:round;fill-rule:evenodd;"
d="M 84.5971,50.5875
84.6229,50.5582
84.6579,50.5409
84.6968,50.5384
84.7337,50.5509
85.1105,50.7684
85.1398,50.7942
85.1570,50.8292
85.1596,50.8681
85.1471,50.9050
85.0471,51.0782
85.0213,51.1076
84.9863,51.1248
84.9474,51.1274
84.9105,51.1148
84.5337,50.8973
84.5044,50.8716
84.4871,50.8366
84.4846,50.7977
84.4971,50.7607
Z" /> 
<path style="fill:#000000; fill-opacity:1.0000; 
stroke:#000000; stroke-width:0.0000; stroke-opacity:1; 
stroke-linecap:round; stroke-linejoin:round;fill-rule:evenodd;"
d="M 85.3029,50.9950
85.3287,50.9657
85.3637,50.9484
85.4026,50.9459
85.4395,50.9584
85.8163,51.1759
85.8456,51.2017
85.8629,51.2367
85.8654,51.2756
85.8529,51.3125
85.7529,51.4857
85.7271,51.5151
85.6921,51.5323
85.6532,51.5349
85.6163,51.5223
85.2395,51.3048
85.2102,51.2791
85.1930,51.2441
85.1904,51.2052
85.2029,51.1682
Z" /> 
</g>
<g >
</g>
<g style="fill:#000000; fill-opacity:1.0000; 
stroke:#000000; stroke-width:0.0000; stroke-opacity:1; 
stroke-linecap:round; stroke-linejoin:round;">
<path style="fill:#000000; fill-opacity:1.0000; 
stroke:#000000; stroke-width:0.0000; stroke-opacity:1; 
stroke-linecap:round; stroke-linejoin:round;fill-rule:evenodd;"
d="M 88.6875,54.1471
88.7244,54.1346
88.7633,54.1371
88.7983,54.1544
88.8241,54.1837
89.0416,54.5605
89.0541,54.5974
89.0516,54.6363
89.0343,54.6713
89.0050,54.6971
88.8318,54.7971
88.7948,54.8096
88.7559,54.8070
88.7209,54.7898
88.6952,54.7605
88.4777,54.3837
88.4651,54.3468
88.4677,54.3079
88.4849,54.2729
88.5143,54.2471
Z" /> 
<path style="fill:#000000; fill-opacity:1.0000; 
stroke:#000000; stroke-width:0.0000; stroke-opacity:1; 
stroke-linecap:round; stroke-linejoin:round;fill-rule:evenodd;"
d="M 89.0950,54.8529
89.1319,54.8404
89.1708,54.8430
89.2058,54.8602
89.2316,54.8895
89.4491,55.2663
89.4616,55.3032
89.4591,55.3421
89.4418,55.3771
89.4125,55.4029
89.2393,55.5029
89.2023,55.5154
89.1634,55.5129
89.1284,55.4956
89.1027,55.4663
88.8852,55.0895
88.8726,55.0526
88.8752,55.0137
88.8924,54.9787
88.9218,54.9529
Z" /> 
</g>
<g >
</g>
<g style="fill:#000000; fill-opacity:1.0000; 
stroke:#000000; stroke-width:0.0000; stroke-opacity:1; 
stroke-linecap:round; stroke-linejoin:round;">
<path style="fill:#000000; fill-opacity:1.0000; 
stroke:#000000; stroke-width:0.0000; stroke-opacity:1; 
stroke-linecap:round; stroke-linejoin:round;fill-rule:evenodd;"
d="M 74.1471,51.3125
74.1346,51.2756
74.1371,51.2367
74.1544,51.2017
74.1837,51.1759
74.5605,50.9584
74.5974,50.9459
74.6363,50.9484
74.6713,50.9657
74.6971,50.9950
74.7971,51.1682
74.8096,51.2052
74.8070,51.2441
74.7898,51.2791
74.7605,51.3048
74.3837,51.5223
74.3468,51.5349
74.3079,51.5323
74.2729,51.5151
74.2471,51.4857
Z" /> 
<path style="fill:#000000; fill-opacity:1.0000; 
stroke:#000000; stroke-width:0.0000; stroke-opacity:1; 
stroke-linecap:round; stroke-linejoin:round;fill-rule:evenodd;"
d="M 74.8529,50.9050
74.8404,50.8681
74.8430,50.8292
74.8602,50.7942
74.8895,50.7684
75.2663,50.5509
75.3032,50.5384
75.3421,50.5409
75.3771,50.5582
75.4029,50.5875
75.5029,50.7607
75.5154,50.7977
75.5129,50.8366
75.4956,50.8716
75.4663,50.8973
75.0895,51.1148
75.0526,51.1274
75.0137,51.1248
74.9787,51.1076
74.9529,51.0782
Z" /> 
</g>
<g >
</g>
<g >
</g>
<g style="fill:#000000; fill-opacity:1.0000; 
stroke:#000000; stroke-width:0.0000; stroke-opacity:1; 
stroke-linecap:round; stroke-linejoin:round;">
<path style="fill:#000000; fill-opacity:1.0000; 
stroke:#000000; stroke-width:0.0000; stroke-opacity:1; 
stroke-linecap:round; stroke-linejoin:round;fill-rule:evenodd;"
d="M 87.0880,55.6768
86.8380,55.2438
87.2710,54.9938
87.5210,55.4268
Z" /> 
<path style="fill:#000000; fill-opacity:1.0000; 
stroke:#000000; stroke-width:0.0000; stroke-opacity:1; 
stroke-linecap:round; stroke-linejoin:round;fill-rule:evenodd;"
d="M 87.5380,56.4562
87.2880,56.0232
87.7210,55.7732
87.9710,56.2062
Z" /> 
<path style="fill:#000000; fill-opacity:1.0000; 
stroke:#000000; stroke-width:0.0000; stroke-opacity:1; 
stroke-linecap:round; stroke-linejoin:round;fill-rule:evenodd;"
d="M 88.3174,56.0062
88.0674,55.5732
88.5004,55.3232
88.7504,55.7562
Z" /> 
<path style="fill:#000000; fill-opacity:1.0000; 
stroke:#000000; stroke-width:0.0000; stroke-opacity:1; 
stroke-linecap:round; stroke-linejoin:round;fill-rule:evenodd;"
d="M 87.8674,55.2268
87.6174,54.7938
88.0504,54.5438
88.3004,54.9768
Z" /> 
</g>
<g >
</g>
<g style="fill:#000000; fill-opacity:1.0000; 
stroke:#000000; stroke-width:0.0000; stroke-opacity:1; 
stroke-linecap:round; stroke-linejoin:round;">
<path style="fill:#000000; fill-opacity:1.0000; 
stroke:#000000; stroke-width:0.0000; stroke-opacity:1; 
stroke-linecap:round; stroke-linejoin:round;fill-rule:evenodd;"
d="M 90.4500,59.2750
90.4883,59.2826
90.5207,59.3043
90.5424,59.3367
90.5500,59.3750
90.5500,59.8100
90.5424,59.8483
90.5207,59.8807
90.4883,59.9024
90.4500,59.9100
90.2500,59.9100
90.2117,59.9024
90.1793,59.8807
90.1576,59.8483
90.1500,59.8100
90.1500,59.3750
90.1576,59.3367
90.1793,59.3043
90.2117,59.2826
90.2500,59.2750
Z" /> 
<path style="fill:#000000; fill-opacity:1.0000; 
stroke:#000000; stroke-width:0.0000; stroke-opacity:1; 
stroke-linecap:round; stroke-linejoin:round;fill-rule:evenodd;"
d="M 90.4500,60.0900
90.4883,60.0976
90.5207,60.1193
90.5424,60.1517
90.5500,60.1900
90.5500,60.6250
90.5424,60.6633
90.5207,60.6957
90.4883,60.7174
90.4500,60.7250
90.2500,60.7250
90.2117,60.7174
90.1793,60.6957
90.1576,60.6633
90.1500,60.6250
90.1500,60.1900
90.1576,60.1517
90.1793,60.1193
90.2117,60.0976
90.2500,60.0900
Z" /> 
</g>
<g >
</g>
<g style="fill:#000000; fill-opacity:1.0000; 
stroke:#000000; stroke-width:0.0000; stroke-opacity:1; 
stroke-linecap:round; stroke-linejoin:round;">
<path style="fill:#000000; fill-opacity:1.0000; 
stroke:#000000; stroke-width:0.0000; stroke-opacity:1; 
stroke-linecap:round; stroke-linejoin:round;fill-rule:evenodd;"
d="M 75.6768,52.9120
75.2438,53.1620
74.9938,52.7290
75.4268,52.4790
Z" /> 
<path style="fill:#000000; fill-opacity:1.0000; 
stroke:#000000; stroke-width:0.0000; stroke-opacity:1; 
stroke-linecap:round; stroke-linejoin:round;fill-rule:evenodd;"
d="M 76.4562,52.4620
76.0232,52.7120
75.7732,52.2790
76.2062,52.0290
Z" /> 
<path style="fill:#000000; fill-opacity:1.0000; 
stroke:#000000; stroke-width:0.0000; stroke-opacity:1; 
stroke-linecap:round; stroke-linejoin:round;fill-rule:evenodd;"
d="M 76.0062,51.6826
75.5732,51.9326
75.3232,51.4996
75.7562,51.2496
Z" /> 
<path style="fill:#000000; fill-opacity:1.0000; 
stroke:#000000; stroke-width:0.0000; stroke-opacity:1; 
stroke-linecap:round; stroke-linejoin:round;fill-rule:evenodd;"
d="M 75.2268,52.1326
74.7938,52.3826
74.5438,51.9496
74.9768,51.6996
Z" /> 
</g>
<g >
</g>
<g style="fill:#000000; fill-opacity:1.0000; 
stroke:#000000; stroke-width:0.0000; stroke-opacity:1; 
stroke-linecap:round; stroke-linejoin:round;">
<path style="fill:#000000; fill-opacity:1.0000; 
stroke:#000000; stroke-width:0.0000; stroke-opacity:1; 
stroke-linecap:round; stroke-linejoin:round;fill-rule:evenodd;"
d="M 76.0232,67.2880
76.4562,67.5380
76.2062,67.9710
75.7732,67.7210
Z" /> 
<path style="fill:#000000; fill-opacity:1.0000; 
stroke:#000000; stroke-width:0.0000; stroke-opacity:1; 
stroke-linecap:round; stroke-linejoin:round;fill-rule:evenodd;"
d="M 75.2438,66.8380
75.6768,67.0880
75.4268,67.5210
74.9938,67.2710
Z" /> 
<path style="fill:#000000; fill-opacity:1.0000; 
stroke:#000000; stroke-width:0.0000; stroke-opacity:1; 
stroke-linecap:round; stroke-linejoin:round;fill-rule:evenodd;"
d="M 74.7938,67.6174
75.2268,67.8674
74.9768,68.3004
74.5438,68.0504
Z" /> 
<path style="fill:#000000; fill-opacity:1.0000; 
stroke:#000000; stroke-width:0.0000; stroke-opacity:1; 
stroke-linecap:round; stroke-linejoin:round;fill-rule:evenodd;"
d="M 75.5732,68.0674
76.0062,68.3174
75.7562,68.7504
75.3232,68.5004
Z" /> 
</g>
<g >
</g>
<g style="fill:#000000; fill-opacity:1.0000; 
stroke:#000000; stroke-width:0.0000; stroke-opacity:1; 
stroke-linecap:round; stroke-linejoin:round;">
<path style="fill:#000000; fill-opacity:1.0000; 
stroke:#000000; stroke-width:0.0000; stroke-opacity:1; 
stroke-linecap:round; stroke-linejoin:round;fill-rule:evenodd;"
d="M 83.9768,52.7120
83.5438,52.4620
83.7938,52.0290
84.2268,52.2790
Z" /> 
<path style="fill:#000000; fill-opacity:1.0000; 
stroke:#000000; stroke-width:0.0000; stroke-opacity:1; 
stroke-linecap:round; stroke-linejoin:round;fill-rule:evenodd;"
d="M 84.7562,53.1620
84.3232,52.9120
84.5732,52.4790
85.0062,52.7290
Z" /> 
<path style="fill:#000000; fill-opacity:1.0000; 
stroke:#000000; stroke-width:0.0000; stroke-opacity:1; 
stroke-linecap:round; stroke-linejoin:round;fill-rule:evenodd;"
d="M 85.2062,52.3826
84.7732,52.1326
85.0232,51.6996
85.4562,51.9496
Z" /> 
<path style="fill:#000000; fill-opacity:1.0000; 
stroke:#000000; stroke-width:0.0000; stroke-opacity:1; 
stroke-linecap:round; stroke-linejoin:round;fill-rule:evenodd;"
d="M 84.4268,51.9326
83.9938,51.6826
84.2438,51.2496
84.6768,51.4996
Z" /> 
</g>
<g >
</g>
<g style="fill:#000000; fill-opacity:1.0000; 
stroke:#000000; stroke-width:0.0000; stroke-opacity:1; 
stroke-linecap:round; stroke-linejoin:round;">
<path style="fill:#000000; fill-opacity:1.0000; 
stroke:#000000; stroke-width:0.0000; stroke-opacity:1; 
stroke-linecap:round; stroke-linejoin:round;fill-rule:evenodd;"
d="M 89.6350,61.7800
89.6274,61.8183
89.6057,61.8507
89.5733,61.8724
89.5350,61.8800
89.1000,61.8800
89.0617,61.8724
89.0293,61.8507
89.0076,61.8183
89.0000,61.7800
89.0000,61.5800
89.0076,61.5417
89.0293,61.5093
89.0617,61.4876
89.1000,61.4800
89.5350,61.4800
89.5733,61.4876
89.6057,61.5093
89.6274,61.5417
89.6350,61.5800
Z" /> 
<path style="fill:#000000; fill-opacity:1.0000; 
stroke:#000000; stroke-width:0.0000; stroke-opacity:1; 
stroke-linecap:round; stroke-linejoin:round;fill-rule:evenodd;"
d="M 88.8200,61.7800
88.8124,61.8183
88.7907,61.8507
88.7583,61.8724
88.7200,61.8800
88.2850,61.8800
88.2467,61.8724
88.2143,61.8507
88.1926,61.8183
88.1850,61.7800
88.1850,61.5800
88.1926,61.5417
88.2143,61.5093
88.2467,61.4876
88.2850,61.4800
88.7200,61.4800
88.7583,61.4876
88.7907,61.5093
88.8124,61.5417
88.8200,61.5800
Z" /> 
</g>
<g >
</g>
<g style="fill:#000000; fill-opacity:1.0000; 
stroke:#000000; stroke-width:0.0000; stroke-opacity:1; 
stroke-linecap:round; stroke-linejoin:round;">
<path style="fill:#000000; fill-opacity:1.0000; 
stroke:#000000; stroke-width:0.0000; stroke-opacity:1; 
stroke-linecap:round; stroke-linejoin:round;fill-rule:evenodd;"
d="M 79.2750,49.5500
79.2826,49.5117
79.3043,49.4793
79.3367,49.4576
79.3750,49.4500
79.8100,49.4500
79.8483,49.4576
79.8807,49.4793
79.9024,49.5117
79.9100,49.5500
79.9100,49.7500
79.9024,49.7883
79.8807,49.8207
79.8483,49.8424
79.8100,49.8500
79.3750,49.8500
79.3367,49.8424
79.3043,49.8207
79.2826,49.7883
79.2750,49.7500
Z" /> 
<path style="fill:#000000; fill-opacity:1.0000; 
stroke:#000000; stroke-width:0.0000; stroke-opacity:1; 
stroke-linecap:round; stroke-linejoin:round;fill-rule:evenodd;"
d="M 80.0900,49.5500
80.0976,49.5117
80.1193,49.4793
80.1517,49.4576
80.1900,49.4500
80.6250,49.4500
80.6633,49.4576
80.6957,49.4793
80.7174,49.5117
80.7250,49.5500
80.7250,49.7500
80.7174,49.7883
80.6957,49.8207
80.6633,49.8424
80.6250,49.8500
80.1900,49.8500
80.1517,49.8424
80.1193,49.8207
80.0976,49.7883
80.0900,49.7500
Z" /> 
</g>
<g >
</g>
<g >
</g>
<g >
</g>
<g style="fill:#000000; fill-opacity:1.0000; 
stroke:#000000; stroke-width:0.0000; stroke-opacity:1; 
stroke-linecap:round; stroke-linejoin:round;">
<circle cx="86.8000" cy="63.6000" r="0.4000" /> 
</g>
<g style="fill:#000000; fill-opacity:1.0000; 
stroke:#000000; stroke-width:0.0212; stroke-opacity:1; 
stroke-linecap:round; stroke-linejoin:round;">
</g>
<g style="fill:#000000; fill-opacity:1.0000; 
stroke:#000000; stroke-width:0.0000; stroke-opacity:1; 
stroke-linecap:round; stroke-linejoin:round;">
<circle cx="74.0000" cy="52.0000" r="0.4000" /> 
</g>
<g style="fill:#000000; fill-opacity:1.0000; 
stroke:#000000; stroke-width:0.0212; stroke-opacity:1; 
stroke-linecap:round; stroke-linejoin:round;">
</g>
<g style="fill:#000000; fill-opacity:1.0000; 
stroke:#000000; stroke-width:0.0000; stroke-opacity:1; 
stroke-linecap:round; stroke-linejoin:round;">
<circle cx="89.9282" cy="58.8038" r="0.4000" /> 
</g>
<g style="fill:#000000; fill-opacity:1.0000; 
stroke:#000000; stroke-width:0.0212; stroke-opacity:1; 
stroke-linecap:round; stroke-linejoin:round;">
</g>
<g style="fill:#000000; fill-opacity:1.0000; 
stroke:#000000; stroke-width:0.0000; stroke-opacity:1; 
stroke-linecap:round; stroke-linejoin:round;">
<circle cx="70.0718" cy="61.1962" r="0.4000" /> 
</g>
<g style="fill:#000000; fill-opacity:1.0000; 
stroke:#000000; stroke-width:0.0212; stroke-opacity:1; 
stroke-linecap:round; stroke-linejoin:round;">
</g>
<g style="fill:#000000; fill-opacity:1.0000; 
stroke:#000000; stroke-width:0.0000; stroke-opacity:1; 
stroke-linecap:round; stroke-linejoin:round;">
<circle cx="76.0718" cy="69.1962" r="0.4000" /> 
</g>
<g style="fill:#000000; fill-opacity:1.0000; 
stroke:#000000; stroke-width:0.0212; stroke-opacity:1; 
stroke-linecap:round; stroke-linejoin:round;">
</g>
<g style="fill:#000000; fill-opacity:1.0000; 
stroke:#000000; stroke-width:0.0000; stroke-opacity:1; 
stroke-linecap:round; stroke-linejoin:round;">
<circle cx="81.1962" cy="69.9282" r="0.4000" /> 
</g>
<g style="fill:#000000; fill-opacity:1.0000; 
stroke:#000000; stroke-width:0.0212; stroke-opacity:1; 
stroke-linecap:round; stroke-linejoin:round;">
</g>
<g style="fill:#000000; fill-opacity:1.0000; 
stroke:#000000; stroke-width:0.0000; stroke-opacity:1; 
stroke-linecap:round; stroke-linejoin:round;">
<circle cx="83.9282" cy="50.8038" r="0.4000" /> 
</g>
<g style="fill:#000000; fill-opacity:1.0000; 
stroke:#000000; stroke-width:0.0212; stroke-opacity:1; 
stroke-linecap:round; stroke-linejoin:round;">
</g>
<g style="fill:#000000; fill-opacity:1.0000; 
stroke:#000000; stroke-width:0.0000; stroke-opacity:1; 
stroke-linecap:round; stroke-linejoin:round;">
<circle cx="72.0000" cy="66.0000" r="0.4000" /> 
</g>
<g style="fill:#000000; fill-opacity:1.0000; 
stroke:#000000; stroke-width:0.0212; stroke-opacity:1; 
stroke-linecap:round; stroke-linejoin:round;">
</g>
<g style="fill:#000000; fill-opacity:1.0000; 
stroke:#000000; stroke-width:0.0000; stroke-opacity:1; 
stroke-linecap:round; stroke-linejoin:round;">
<circle cx="86.4000" cy="67.7000" r="0.4000" /> 
</g>
<g style="fill:#000000; fill-opacity:1.0000; 
stroke:#000000; stroke-width:0.0212; stroke-opacity:1; 
stroke-linecap:round; stroke-linejoin:round;">
</g>
<g style="fill:#000000; fill-opacity:1.0000; 
stroke:#000000; stroke-width:0.0000; stroke-opacity:1; 
stroke-linecap:round; stroke-linejoin:round;">
<circle cx="70.8038" cy="56.0718" r="0.4000" /> 
</g>
<g style="fill:#000000; fill-opacity:1.0000; 
stroke:#000000; stroke-width:0.0212; stroke-opacity:1; 
stroke-linecap:round; stroke-linejoin:round;">
</g>
<g style="fill:#000000; fill-opacity:1.0000; 
stroke:#000000; stroke-width:0.0000; stroke-opacity:1; 
stroke-linecap:round; stroke-linejoin:round;">
<circle cx="88.0000" cy="54.0000" r="0.4000" /> 
</g>
<g style="fill:#000000; fill-opacity:1.0000; 
stroke:#000000; stroke-width:0.0212; stroke-opacity:1; 
stroke-linecap:round; stroke-linejoin:round;">
</g>
<g style="fill:#000000; fill-opacity:1.0000; 
stroke:#000000; stroke-width:0.0000; stroke-opacity:1; 
stroke-linecap:round; stroke-linejoin:round;">
<circle cx="88.5000" cy="66.0000" r="0.4000" /> 
</g>
<g style="fill:#000000; fill-opacity:1.0000; 
stroke:#000000; stroke-width:0.0212; stroke-opacity:1; 
stroke-linecap:round; stroke-linejoin:round;">
</g>
<g style="fill:#000000; fill-opacity:1.0000; 
stroke:#000000; stroke-width:0.0000; stroke-opacity:1; 
stroke-linecap:round; stroke-linejoin:round;">
<circle cx="78.8038" cy="50.0718" r="0.4000" /> 
</g>
<g style="fill:#000000; fill-opacity:1.0000; 
stroke:#000000; stroke-width:0.0212; stroke-opacity:1; 
stroke-linecap:round; stroke-linejoin:round;">
</g>
<g style="fill:#000000; fill-opacity:1.0000; 
stroke:#000000; stroke-width:0.0000; stroke-opacity:1; 
stroke-linecap:round; stroke-linejoin:round;">
<circle cx="92.0000" cy="62.1000" r="0.4000" /> 
</g>
<g style="fill:#000000; fill-opacity:1.0000; 
stroke:#000000; stroke-width:0.0212; stroke-opacity:1; 
stroke-linecap:round; stroke-linejoin:round;">
</g>
<g style="fill:#000000; fill-opacity:1.0000; 
stroke:#000000; stroke-width:0.0000; stroke-opacity:1; 
stroke-linecap:round; stroke-linejoin:round;">
<circle cx="85.9000" cy="72.0000" r="0.4000" /> 
</g>
<g style="fill:#000000; fill-opacity:1.0000; 
stroke:#000000; stroke-width:0.0212; stroke-opacity:1; 
stroke-linecap:round; stroke-linejoin:round;">
</g>
<g style="fill:#000000; fill-opacity:1.0000; 
stroke:#000000; stroke-width:0.0000; stroke-opacity:1; 
stroke-linecap:round; stroke-linejoin:round;">
<circle cx="92.0000" cy="63.1000" r="0.4000" /> 
</g>
<g style="fill:#000000; fill-opacity:1.0000; 
stroke:#000000; stroke-width:0.0212; stroke-opacity:1; 
stroke-linecap:round; stroke-linejoin:round;">
</g>
<g style="fill:#000000; fill-opacity:1.0000; 
stroke:#000000; stroke-width:0.0000; stroke-opacity:1; 
stroke-linecap:round; stroke-linejoin:round;">
<circle cx="92.0000" cy="64.1000" r="0.4000" /> 
</g>
<g style="fill:#000000; fill-opacity:1.0000; 
stroke:#000000; stroke-width:0.0212; stroke-opacity:1; 
stroke-linecap:round; stroke-linejoin:round;">
</g>
<g style="fill:#000000; fill-opacity:1.0000; 
stroke:#000000; stroke-width:0.0000; stroke-opacity:1; 
stroke-linecap:round; stroke-linejoin:round;">
<circle cx="87.9000" cy="72.0000" r="0.4000" /> 
</g>
<g style="fill:#000000; fill-opacity:1.0000; 
stroke:#000000; stroke-width:0.0212; stroke-opacity:1; 
stroke-linecap:round; stroke-linejoin:round;">
</g>
<g style="fill:#000000; fill-opacity:1.0000; 
stroke:#000000; stroke-width:0.0000; stroke-opacity:1; 
stroke-linecap:round; stroke-linejoin:round;">
<circle cx="86.9000" cy="72.0000" r="0.4000" /> 
</g>
<g style="fill:#000000; fill-opacity:1.0000; 
stroke:#000000; stroke-width:0.0212; stroke-opacity:1; 
stroke-linecap:round; stroke-linejoin:round;">
</g>
<g style="fill:#000000; fill-opacity:1.0000; 
stroke:#000000; stroke-width:0.0000; stroke-opacity:1; 
stroke-linecap:round; stroke-linejoin:round;">
<circle cx="87.9100" cy="61.8200" r="0.4000" /> 
</g>
<g style="fill:#000000; fill-opacity:1.0000; 
stroke:#000000; stroke-width:0.0212; stroke-opacity:1; 
stroke-linecap:round; stroke-linejoin:round;">
</g>
<g >
</g>
<g style="fill:#000000; fill-opacity:1.0000; 
stroke:#000000; stroke-width:0.0212; stroke-opacity:1; 
stroke-linecap:round; stroke-linejoin:round;">
</g>
<g style="fill:#000000; fill-opacity:1.0000; 
stroke:#000000; stroke-width:0.2500; stroke-opacity:1; 
stroke-linecap:round; stroke-linejoin:round;">
</g>
<g style="fill:#000000; fill-opacity:0.0; 
stroke:#000000; stroke-width:0.2500; stroke-opacity:1; 
stroke-linecap:round; stroke-linejoin:round;">
<path d="M88.5500 59.5500
L88.5500 55.8058
" />
<path d="M88.5500 55.8058
L88.4089 55.6647
" />
<path d="M89.4500 60.4500
L89.4500 61.5475
" />
<path d="M89.4500 61.5475
L89.3175 61.6800
" />
<path d="M87.1795 55.3353
L87.1795 54.1059
" />
<path d="M87.1795 54.1059
L85.1147 52.0411
" />
<path d="M83.8853 52.3705
L82.0648 50.5500
" />
<path d="M82.0648 50.5500
L80.4500 50.5500
" />
<path d="M79.5500 51.4500
L75.8058 51.4500
" />
<path d="M75.8058 51.4500
L75.6647 51.5911
" />
<path d="M74.1059 52.8205
L72.0411 54.8853
" />
<path d="M75.3353 52.8205
L74.1059 52.8205
" />
<path d="M70.5500 57.9352
L70.5500 59.5500
" />
<path d="M72.3705 56.1147
L70.5500 57.9352
" />
<path d="M87.6295 63.8853
L87.0853 63.8853
" />
<path d="M87.0853 63.8853
L86.8000 63.6000
" />
<path d="M80.7744 70.3500
L81.1962 69.9282
" />
<path d="M80.4500 69.4500
L80.7179 69.4500
" />
<path d="M74.4721 51.2404
L74.4721 51.5279
" />
<path d="M75.6647 68.7891
L76.0718 69.1962
" />
<path d="M69.6500 60.7744
L70.0718 61.1962
" />
<path d="M88.8662 65.6337
L88.5000 66.0000
" />
<path d="M85.1147 67.9589
L86.1411 67.9589
" />
<path d="M80.7179 69.4500
L81.1962 69.9282
" />
<path d="M76.0428 69.1671
L76.0718 69.1962
" />
<path d="M71.5279 65.5279
L72.0000 66.0000
" />
<path d="M71.5911 55.6647
L71.2109 55.6647
" />
<path d="M84.8221 50.8329
L83.9572 50.8329
" />
<path d="M70.5500 60.4500
L70.5500 60.7179
" />
<path d="M72.0411 65.9589
L72.0000 66.0000
" />
<path d="M70.8329 55.1779
L70.8329 56.0428
" />
<path d="M88.6054 65.0621
L88.8962 65.3529
" />
<path d="M79.2821 50.5500
L78.8038 50.0718
" />
<path d="M79.5925 49.6500
L79.2256 49.6500
" />
<path d="M87.9589 54.0411
L88.0000 54.0000
" />
<path d="M74.0411 52.0411
L74.0000 52.0000
" />
<path d="M74.8853 52.0411
L74.0411 52.0411
" />
<path d="M80.4075 70.3500
L80.7744 70.3500
" />
<path d="M72.0411 65.1147
L72.0411 65.9589
" />
<path d="M89.4500 59.2821
L89.9282 58.8038
" />
<path d="M84.3353 51.2109
L83.9282 50.8038
" />
<path d="M85.1147 68.3464
L85.5279 68.7596
" />
<path d="M90.3500 59.5925
L90.3500 59.2256
" />
<path d="M75.6647 68.4089
L75.6647 68.7891
" />
<path d="M79.5500 50.5500
L79.2821 50.5500
" />
<path d="M79.2256 49.6500
L78.8038 50.0718
" />
<path d="M69.6500 60.4075
L69.6500 60.7744
" />
<path d="M85.1147 67.9589
L85.1147 68.3464
" />
<path d="M88.4089 64.3353
L88.6054 64.5318
" />
<path d="M83.9572 50.8329
L83.9282 50.8038
" />
<path d="M88.8662 65.3529
L88.8662 65.6337
" />
<path d="M71.2404 65.5279
L71.5279 65.5279
" />
<path d="M87.9589 54.8853
L87.9589 54.0411
" />
<path d="M75.1779 69.1671
L76.0428 69.1671
" />
<path d="M88.6054 64.5318
L88.6054 65.0621
" />
<path d="M71.2109 55.6647
L70.8038 56.0718
" />
<path d="M90.3500 59.2256
L89.9282 58.8038
" />
<path d="M88.7596 54.4721
L88.4721 54.4721
" />
<path d="M89.4500 59.5500
L89.4500 59.2821
" />
<path d="M70.8329 56.0428
L70.8038 56.0718
" />
<path d="M74.4721 51.5279
L74.0000 52.0000
" />
<path d="M86.1411 67.9589
L86.4000 67.7000
" />
<path d="M70.5500 60.7179
L70.0718 61.1962
" />
<path d="M84.3353 51.5911
L84.3353 51.2109
" />
<path d="M88.4721 54.4721
L88.0000 54.0000
" />
<path d="M71.4500 60.4500
L71.4500 64.1942
" />
<path d="M71.4500 64.1942
L71.5911 64.3353
" />
<path d="M72.8205 65.8941
L74.8853 67.9589
" />
<path d="M72.8205 64.6647
L72.8205 65.8941
" />
<path d="M76.1147 67.6295
L77.9352 69.4500
" />
<path d="M77.9352 69.4500
L79.5500 69.4500
" />
<path d="M85.8941 67.1795
L87.9589 65.1147
" />
<path d="M84.6647 67.1795
L85.8941 67.1795
" />
<path d="M84.1942 68.5500
L84.3353 68.4089
" />
<path d="M80.4500 68.5500
L84.1942 68.5500
" />
<path d="M88.3600 61.6800
L88.0500 61.9900
" />
</g>
<g >
</g>
<g style="fill:#000000; fill-opacity:0.0; 
stroke:#000000; stroke-width:0.2500; stroke-opacity:1; 
stroke-linecap:round; stroke-linejoin:round;">
<g >
</g>
<g style="fill:#000000; fill-opacity:1.0000; 
stroke:#000000; stroke-width:0.0000; stroke-opacity:1; 
stroke-linecap:round; stroke-linejoin:round;">
<path style="fill:#000000; fill-opacity:1.0000; 
stroke:#000000; stroke-width:0.0000; stroke-opacity:1; 
stroke-linecap:round; stroke-linejoin:round;fill-rule:evenodd;"
d="M 94.0021,45.0007
94.0455,45.0045
94.1738,45.0171
94.1897,45.0200
94.2576,45.0382
94.2590,45.0386
94.3533,45.0672
94.3664,45.0722
94.4357,45.1045
94.4381,45.1057
94.5230,45.1511
94.5281,45.1542
94.5952,45.2013
94.5982,45.2035
94.6329,45.2320
94.6713,45.2635
94.6749,45.2668
94.7332,45.3251
94.7365,45.3287
94.7965,45.4018
94.7987,45.4048
94.8458,45.4719
94.8489,45.4770
94.8943,45.5619
94.8955,45.5643
94.9278,45.6336
94.9328,45.6467
94.9614,45.7409
94.9618,45.7424
94.9800,45.8103
94.9829,45.8262
94.9955,45.9545
94.9993,45.9978
94.9995,46.0022
94.9995,73.9978
94.9993,74.0022
94.9955,74.0455
94.9829,74.1738
94.9800,74.1897
94.9618,74.2576
94.9614,74.2591
94.9328,74.3533
94.9278,74.3664
94.8955,74.4357
94.8943,74.4381
94.8489,74.5230
94.8458,74.5281
94.7987,74.5952
94.7965,74.5982
94.7365,74.6713
94.7332,74.6749
94.6749,74.7332
94.6713,74.7365
94.5982,74.7965
94.5952,74.7987
94.5281,74.8458
94.5230,74.8489
94.4381,74.8943
94.4357,74.8955
94.3664,74.9278
94.3533,74.9328
94.2591,74.9614
94.2576,74.9618
94.1897,74.9800
94.1738,74.9829
94.0455,74.9955
94.0022,74.9993
93.9978,74.9995
66.0022,74.9995
65.9978,74.9993
65.9545,74.9955
65.8262,74.9829
65.8103,74.9800
65.7734,74.9701
65.7424,74.9618
65.7409,74.9614
65.6467,74.9328
65.6336,74.9278
65.5643,74.8955
65.5619,74.8943
65.4770,74.8489
65.4719,74.8458
65.4048,74.7987
65.4018,74.7965
65.3287,74.7365
65.3251,74.7332
65.2668,74.6749
65.2635,74.6713
65.2035,74.5982
65.2013,74.5952
65.1542,74.5281
65.1511,74.5230
65.1057,74.4381
65.1045,74.4357
65.0722,74.3664
65.0672,74.3533
65.0386,74.2590
65.0382,74.2576
65.0200,74.1897
65.0171,74.1738
65.0045,74.0454
65.0007,74.0021
65.0005,73.9979
65.0005,72.0000
66.6443,72.0000
66.6649,72.2354
66.7261,72.4637
66.8260,72.6778
66.8260,72.6778
66.8260,72.6778
66.8260,72.6778
66.9615,72.8714
67.1286,73.0385
67.3222,73.1740
67.3222,73.1740
67.3222,73.1740
67.3222,73.1740
67.5363,73.2739
67.5363,73.2739
67.7646,73.3351
67.7646,73.3351
67.7646,73.3351
67.9410,73.3505
67.9410,73.3505
68.0590,73.3505
68.2354,73.3351
68.2354,73.3351
68.2354,73.3351
68.4637,73.2739
68.6778,73.1740
68.8714,73.0385
69.0385,72.8714
69.1740,72.6778
69.2739,72.4637
69.3351,72.2354
69.3557,72.0000
69.3351,71.7646
69.2739,71.5363
69.1740,71.3222
69.0385,71.1286
68.8714,70.9615
68.8714,70.9615
68.8714,70.9615
68.6778,70.8260
68.6778,70.8260
68.4637,70.7261
68.4637,70.7261
68.3399,70.6929
68.2354,70.6649
68.2354,70.6649
68.2354,70.6649
68.0590,70.6495
68.0590,70.6495
67.9410,70.6495
67.9410,70.6495
67.7646,70.6649
67.5363,70.7261
67.3222,70.8260
67.3222,70.8260
67.1286,70.9615
66.9615,71.1286
66.8260,71.3222
66.7261,71.5363
66.6649,71.7646
66.6443,72.0000
66.6443,72.0000
65.0005,72.0000
65.0005,70.5000
78.9779,70.5000
78.9898,70.5751
78.9898,70.5751
79.0474,70.6880
79.1370,70.7776
79.2498,70.8352
79.2499,70.8352
79.3435,70.8500
79.4425,70.8500
79.4425,70.5000
79.4425,70.5000
78.9779,70.5000
65.0005,70.5000
65.0005,68.7798
73.8310,68.7798
73.8638,68.9022
73.8638,68.9022
73.9328,69.0084
74.0065,69.0681
74.0065,69.0681
74.0922,69.1176
74.2672,68.8145
73.8649,68.5822
73.8376,68.6533
73.8376,68.6533
73.8310,68.7798
73.8310,68.7798
65.0005,68.7798
65.0005,64.6414
70.2348,64.6414
70.2414,64.7679
70.2414,64.7679
70.2754,64.8565
70.2754,64.8565
70.3249,64.9422
70.3249,64.9422
70.6280,64.7672
70.3957,64.3649
70.3366,64.4127
70.2676,64.5190
70.2676,64.5190
70.2348,64.6414
70.2348,64.6414
65.0005,64.6414
65.0005,59.8415
69.1500,59.8415
69.1648,59.9351
69.1648,59.9352
69.2224,60.0480
69.2229,60.0486
69.2233,60.0493
69.2269,60.0543
69.2261,60.0549
69.2507,60.1031
69.2513,60.1300
69.2495,60.1451
69.2495,60.6699
69.2495,60.6699
69.2524,60.6950
69.2645,60.7223
69.2978,60.7978
69.3071,60.8070
69.3346,60.8598
69.3394,60.8874
69.3402,60.8887
69.3501,60.9126
69.3504,60.9140
69.3504,60.9140
69.3712,60.9436
69.3740,60.9476
69.3763,60.9513
69.3920,60.9784
69.3968,60.9868
69.4282,61.0132
69.4314,61.0161
69.4485,61.0332
69.4763,61.0877
69.4767,61.1161
69.4661,61.1961
69.4661,61.1962
69.4868,61.3529
69.4868,61.3529
69.5473,61.4990
69.5473,61.4990
69.5750,61.5351
69.6435,61.6244
69.7690,61.7207
69.9150,61.7812
70.0326,61.7967
70.0718,61.8018
70.0718,61.8018
70.0718,61.8018
70.1031,61.7977
70.2286,61.7812
70.3746,61.7207
70.5001,61.6244
70.5963,61.4990
70.6568,61.3529
70.6775,61.1962
70.6669,61.1161
70.6781,61.0559
70.6951,61.0332
70.7686,60.9597
70.7718,60.9568
70.8032,60.9304
70.8032,60.9304
70.8076,60.9251
70.8595,60.8927
70.8641,60.8917
70.8782,60.8889
70.8782,60.8889
70.8782,60.8889
70.9446,60.8446
70.9446,60.8445
70.9450,60.8443
71.0039,60.8276
71.0550,60.8443
71.0805,60.8613
71.1184,60.9093
71.1245,60.9436
71.1245,64.0419
71.1056,64.1001
71.0908,64.1163
71.0874,64.1193
71.0874,64.1193
71.0691,64.1564
71.0264,64.2002
70.9661,64.2105
70.9547,64.2082
70.8531,64.1810
70.8531,64.1810
70.7265,64.1876
70.7265,64.1876
70.6555,64.2149
70.8878,64.6172
70.9883,64.7913
71.0010,64.8511
70.9761,64.9070
70.9521,64.9265
70.4749,65.2020
70.5244,65.2877
70.5840,65.3614
70.6903,65.4304
70.6911,65.4306
70.6917,65.4311
70.6974,65.4336
70.6970,65.4345
70.7424,65.4639
70.7563,65.4870
70.7624,65.5009
70.7624,65.5010
71.0247,65.9554
71.0398,65.9757
71.1203,66.0345
71.1305,66.0420
71.2390,66.0711
71.3052,66.0639
71.3651,66.0764
71.4061,66.1218
71.4140,66.1494
71.4150,66.1568
71.4150,66.1568
71.4755,66.3028
71.4755,66.3028
71.4755,66.3028
71.5717,66.4283
71.6972,66.5245
71.6972,66.5245
71.6972,66.5245
71.7485,66.5458
71.8432,66.5850
71.9608,66.6005
72.0000,66.6057
72.0000,66.6057
72.0000,66.6057
72.0314,66.6016
72.1568,66.5850
72.3028,66.5245
72.4283,66.4283
72.5245,66.3028
72.5394,66.2670
72.5791,66.2204
72.6386,66.2062
72.6952,66.2296
72.7009,66.2348
74.3353,67.8692
74.3630,67.9237
74.3590,67.9711
74.3411,68.0238
74.3411,68.0238
74.3438,68.0650
74.3287,68.1243
74.2817,68.1634
74.2706,68.1671
74.1690,68.1943
74.1690,68.1943
74.0627,68.2633
74.0627,68.2633
74.0149,68.3224
74.5913,68.6552
74.6322,68.7007
74.6386,68.7615
74.6275,68.7904
74.5283,68.9622
74.3520,69.2676
74.4377,69.3171
74.5263,69.3511
74.5263,69.3511
74.6528,69.3577
74.6528,69.3577
74.6535,69.3575
74.6543,69.3576
74.6605,69.3569
74.6606,69.3579
74.7146,69.3607
74.7382,69.3737
74.7504,69.3828
74.7866,69.4037
75.2049,69.6451
75.2049,69.6451
75.2049,69.6451
75.2281,69.6552
75.2281,69.6552
75.2281,69.6552
75.3398,69.6673
75.4483,69.6382
75.5020,69.5989
75.5602,69.5798
75.6184,69.5985
75.6390,69.6185
75.6435,69.6244
75.6435,69.6244
75.6435,69.6244
75.6447,69.6254
75.7690,69.7207
75.7690,69.7207
75.7690,69.7207
75.9079,69.7782
75.9150,69.7812
76.0154,69.7944
76.0718,69.8018
76.0718,69.8018
76.0718,69.8018
76.1031,69.7977
76.2286,69.7812
76.3746,69.7207
76.5001,69.6244
76.5963,69.4990
76.6568,69.3529
76.6775,69.1962
76.6568,69.0394
76.6401,68.9990
76.5963,68.8933
76.5963,68.8933
76.5001,68.7679
76.5001,68.7679
76.5001,68.7679
76.5001,68.7679
76.5001,68.7679
76.4053,68.6952
76.3746,68.6716
76.3746,68.6716
76.3746,68.6716
76.2286,68.6111
76.2286,68.6111
76.2264,68.6108
76.2250,68.6102
76.2223,68.6094
76.2224,68.6089
76.1712,68.5845
76.1420,68.5307
76.1500,68.4700
76.1536,68.4632
76.1897,68.4006
76.1983,68.3754
76.2349,68.3263
76.2933,68.3082
76.3513,68.3279
76.3620,68.3372
77.6935,69.6686
77.6964,69.6718
77.7227,69.7032
77.7583,69.7237
77.7619,69.7260
77.7955,69.7496
77.7970,69.7499
77.8209,69.7598
77.8221,69.7606
77.8310,69.7622
77.8626,69.7677
77.8667,69.7686
77.9064,69.7793
77.9473,69.7757
77.9516,69.7755
79.0448,69.7755
79.1030,69.7944
79.1390,69.8439
79.1390,69.9051
79.1148,69.9445
79.0474,70.0120
78.9898,70.1248
78.9898,70.1249
78.9779,70.2000
79.6435,70.2000
79.7017,70.2189
79.7377,70.2684
79.7425,70.2990
79.7425,70.8500
79.7425,70.8500
79.8415,70.8500
79.8415,70.8500
79.9351,70.8352
79.9351,70.8352
80.0480,70.7776
80.0486,70.7771
80.0493,70.7767
80.0543,70.7731
80.0549,70.7739
80.1031,70.7493
80.1300,70.7487
80.1451,70.7505
80.6699,70.7505
80.6950,70.7476
80.7978,70.7022
80.8070,70.6929
80.8598,70.6654
80.8627,70.6649
80.8874,70.6606
80.8887,70.6598
80.9126,70.6499
80.9128,70.6499
80.9140,70.6496
80.9477,70.6260
80.9513,70.6237
80.9868,70.6032
81.0132,70.5717
81.0161,70.5686
81.0332,70.5515
81.0877,70.5237
81.1161,70.5233
81.1962,70.5339
81.3529,70.5132
81.4990,70.4527
81.6244,70.3565
81.7207,70.2310
81.7812,70.0850
81.8018,69.9282
81.7812,69.7714
81.7759,69.7586
81.7207,69.6254
81.7207,69.6254
81.7045,69.6043
84.3649,69.6043
84.4127,69.6634
84.5190,69.7324
84.5190,69.7324
84.6414,69.7652
84.6414,69.7652
84.7679,69.7586
84.7679,69.7586
84.8565,69.7246
84.8565,69.7246
84.9422,69.6751
84.7672,69.3720
84.3649,69.6043
81.7045,69.6043
81.6244,69.4999
81.6244,69.4999
81.6244,69.4999
81.6244,69.4999
81.6244,69.4999
81.4990,69.4037
81.3529,69.3432
81.3529,69.3432
81.1962,69.3225
81.1962,69.3225
81.1161,69.3331
81.0559,69.3219
81.0332,69.3049
80.9597,69.2314
80.9568,69.2282
80.9304,69.1968
80.9251,69.1924
80.8927,69.1405
80.8917,69.1359
80.8889,69.1218
80.8446,69.0554
80.8443,69.0550
80.8276,68.9961
80.8443,68.9450
80.8613,68.9195
80.9093,68.8816
80.9436,68.8755
84.0419,68.8755
84.1001,68.8944
84.1163,68.9092
84.1193,68.9126
84.1564,68.9309
84.2002,68.9736
84.2105,69.0339
84.2082,69.0453
84.1810,69.1469
84.1810,69.1469
84.1876,69.2735
84.1876,69.2735
84.2149,69.3445
84.7913,69.0117
84.8511,68.9990
84.9070,69.0239
84.9265,69.0479
85.2020,69.5251
85.2877,69.4756
85.3614,69.4160
85.4304,69.3097
85.4304,69.3097
85.4306,69.3089
85.4311,69.3083
85.4336,69.3026
85.4345,69.3030
85.4639,69.2576
85.4870,69.2437
85.5009,69.2376
85.5130,69.2307
85.8443,69.0394
85.9554,68.9753
85.9757,68.9602
86.0420,68.8695
86.0711,68.7610
86.0590,68.6493
86.0489,68.6261
86.0403,68.6111
85.9780,68.5031
85.9374,68.4329
85.9247,68.3731
85.9496,68.3172
86.0026,68.2866
86.0232,68.2844
86.1247,68.2844
86.1290,68.2846
86.1699,68.2882
86.1868,68.2837
86.2381,68.2837
86.2432,68.2850
86.2432,68.2850
86.3477,68.2988
86.4000,68.3057
86.4000,68.3057
86.4000,68.3057
86.4314,68.3016
86.5568,68.2850
86.7028,68.2245
86.8283,68.1283
86.9245,68.0028
86.9850,67.8568
87.0057,67.7000
87.0014,67.6675
87.0002,67.6585
86.9850,67.5432
86.9283,67.4062
86.9245,67.3972
86.9245,67.3972
86.8283,67.2717
86.8283,67.2717
86.8283,67.2717
86.8283,67.2717
86.8283,67.2717
86.7349,67.2001
86.7028,67.1755
86.5962,67.1313
86.5497,67.0916
86.5354,67.0321
86.5589,66.9756
86.5641,66.9699
87.7427,65.7912
87.7972,65.7635
87.8577,65.7730
87.9009,65.8163
87.9109,65.8742
87.8943,66.0000
87.8943,66.0000
87.9150,66.1568
87.9150,66.1568
87.9755,66.3028
87.9755,66.3028
87.9755,66.3028
88.0717,66.4283
88.1972,66.5245
88.1972,66.5245
88.1972,66.5245
88.2485,66.5458
88.3432,66.5850
88.4608,66.6005
88.5000,66.6057
88.5000,66.6057
88.5000,66.6057
88.5314,66.6016
88.6568,66.5850
88.8028,66.5245
88.9283,66.4283
89.0245,66.3028
89.0850,66.1568
89.1057,66.0000
89.0957,65.9244
89.1069,65.8643
89.1181,65.8479
89.1194,65.8462
89.1194,65.8462
89.1400,65.8107
89.1423,65.8071
89.1658,65.7734
89.1662,65.7720
89.1761,65.7481
89.1768,65.7468
89.1791,65.7338
89.1840,65.7064
89.1849,65.7022
89.1955,65.6626
89.1947,65.6538
89.1922,65.6251
89.2051,65.5670
89.3443,65.3259
89.3503,65.3120
89.3908,65.2661
89.4156,65.2556
89.4163,65.2554
89.4163,65.2554
89.5226,65.1864
89.5226,65.1864
89.5823,65.1127
89.5823,65.1127
89.6318,65.0270
89.1546,64.7515
89.1136,64.7060
89.1072,64.6452
89.1183,64.6163
89.1322,64.5922
89.4787,64.5922
89.7818,64.7672
89.8313,64.6815
89.8652,64.5929
89.8652,64.5929
89.8719,64.4664
89.8719,64.4664
89.8391,64.3440
89.8391,64.3440
89.7701,64.2377
89.7109,64.1899
89.4787,64.5922
89.4787,64.5922
89.1322,64.5922
89.2188,64.4422
89.4511,64.0399
89.3801,64.0126
89.3801,64.0126
89.2536,64.0060
89.2536,64.0060
89.1312,64.0388
89.1312,64.0388
89.0184,64.1120
89.0169,64.1098
88.9725,64.1295
88.9126,64.1168
88.8969,64.1055
88.8678,64.0800
88.8277,64.0569
88.4006,63.8103
88.4006,63.8103
88.4006,63.8103
88.3441,63.7911
88.3441,63.7911
88.2640,63.7964
88.2047,63.7813
88.1687,63.7414
88.1685,63.7409
88.1685,63.7409
88.1332,63.6693
88.0884,63.6300
87.6212,63.3603
87.6212,63.3603
87.6212,63.3603
87.5647,63.3411
87.5647,63.3411
87.5050,63.3450
87.4851,63.3463
87.4851,63.3463
87.4851,63.3463
87.4635,63.3570
87.4029,63.3658
87.3488,63.3373
87.3282,63.3061
87.3245,63.2972
87.3245,63.2972
87.2283,63.1717
87.2283,63.1717
87.2283,63.1717
87.2283,63.1717
87.2283,63.1717
87.1028,63.0755
86.9568,63.0150
86.9568,63.0150
86.8000,62.9943
86.8000,62.9943
86.6432,63.0150
86.6432,63.0150
86.4972,63.0755
86.4972,63.0755
86.3717,63.1717
86.3717,63.1717
86.2755,63.2972
86.2755,63.2972
86.2150,63.4432
86.2150,63.4432
86.1943,63.6000
86.1943,63.6000
86.2150,63.7568
86.2150,63.7568
86.2755,63.9028
86.2755,63.9028
86.3597,64.0126
86.3717,64.0283
86.3717,64.0283
86.3717,64.0283
86.3854,64.0388
86.4972,64.1245
86.4972,64.1245
86.4972,64.1245
86.5338,64.1397
86.6432,64.1850
86.6968,64.1921
86.7520,64.2184
86.7758,64.2584
87.2987,64.5603
87.3396,64.6058
87.3460,64.6666
87.3349,64.6955
87.2446,64.8520
87.0344,65.2160
87.0344,65.2160
87.1527,65.2843
87.1937,65.3298
87.2001,65.3907
87.1732,65.4401
85.7883,66.8250
85.7338,66.8528
85.7183,66.8540
85.0541,66.8540
84.9959,66.8351
84.9684,66.8045
84.9200,66.7207
84.8807,66.6758
84.8091,66.6405
84.7826,66.6388
84.7295,66.6353
84.7295,66.6353
84.6731,66.6545
84.2059,66.9242
84.1772,66.9494
84.1610,66.9636
84.1610,66.9636
84.1537,66.9700
84.1529,66.9691
84.1106,66.9982
84.0569,66.9989
84.0003,66.9837
83.8888,66.9958
83.8888,66.9958
83.8656,67.0058
83.7402,67.0782
83.9402,67.4246
84.0407,67.5987
84.0534,67.6585
84.0285,67.7144
84.0045,67.7339
83.4840,68.0344
83.4840,68.0344
83.5080,68.0760
83.5207,68.1358
83.4958,68.1917
83.4428,68.2223
83.4222,68.2245
80.9436,68.2245
80.8854,68.2056
80.8613,68.1805
80.8446,68.1555
80.8446,68.1554
80.8444,68.1554
80.7782,68.1111
80.7782,68.1111
80.7782,68.1111
80.7782,68.1111
80.7198,68.0995
80.7197,68.0995
80.1803,68.0995
80.1802,68.0995
80.1122,68.1130
80.1120,68.1119
80.0608,68.1159
80.0139,68.0897
79.9725,68.0482
79.8699,68.0029
79.8448,68.0000
79.7000,68.0000
79.7000,68.0000
79.7000,68.6010
79.6811,68.6592
79.6316,68.6952
79.6010,68.7000
79.0000,68.7000
79.0000,68.7000
79.0000,68.8448
79.0029,68.8699
79.0519,68.9809
79.0498,68.9818
79.0635,69.0282
79.0430,69.0859
78.9925,69.1205
78.9645,69.1245
78.1110,69.1245
78.0528,69.1056
78.0410,69.0955
77.3652,68.4197
77.3455,68.4000
79.0000,68.4000
79.0000,68.4000
79.4000,68.4000
79.4000,68.4000
79.4000,68.0000
79.4000,68.0000
79.2552,68.0000
79.2552,68.0000
79.2301,68.0029
79.1275,68.0482
79.0482,68.1275
79.0029,68.2301
79.0000,68.2552
79.0000,68.4000
77.3455,68.4000
76.6647,67.7192
76.6370,67.6647
76.6410,67.6174
76.6589,67.5647
76.6556,67.5145
83.2395,67.5145
83.2516,67.6260
83.2516,67.6260
83.2616,67.6492
83.3340,67.7746
83.3340,67.7746
83.6804,67.5746
83.4804,67.2282
83.3550,67.3006
83.3347,67.3157
83.2685,67.4062
83.2685,67.4062
83.2395,67.5145
83.2395,67.5145
76.6556,67.5145
76.6537,67.4851
76.6184,67.4136
76.5736,67.3742
76.1064,67.1045
76.1063,67.1045
76.1063,67.1045
76.0407,67.0822
76.0410,67.0811
75.9947,67.0590
75.9672,67.0128
75.9521,66.9562
75.8859,66.8657
75.8859,66.8657
75.8656,66.8506
75.8656,66.8506
75.7402,66.7782
75.7402,66.7782
75.4397,67.2987
75.3942,67.3396
75.3334,67.3460
75.3045,67.3349
75.1534,67.2477
74.7840,67.0344
74.7157,67.1527
74.6702,67.1937
74.6093,67.2001
74.5599,67.1732
74.1613,66.7746
74.9340,66.7746
75.2804,66.9746
75.4804,66.6282
75.3550,66.5558
75.3318,66.5458
75.3318,66.5458
75.2203,66.5337
75.2203,66.5337
75.1120,66.5627
75.0214,66.6290
75.0214,66.6290
75.0064,66.6492
75.0064,66.6492
74.9340,66.7746
74.9340,66.7746
74.1613,66.7746
73.1750,65.7883
73.1472,65.7338
73.1460,65.7183
73.1460,65.0541
73.1649,64.9959
73.1955,64.9684
73.2793,64.9200
73.2793,64.9200
73.2793,64.9200
73.3242,64.8807
73.3594,64.8091
73.3647,64.7295
73.3531,64.6955
73.3455,64.6731
73.3455,64.6731
73.3455,64.6731
73.0758,64.2059
73.0364,64.1610
73.0364,64.1610
73.0300,64.1537
73.0309,64.1529
73.0018,64.1106
73.0011,64.0569
73.0163,64.0003
73.0163,64.0003
73.0042,63.8888
73.0042,63.8888
72.9942,63.8656
72.9218,63.7402
72.9218,63.7402
72.5331,63.9646
72.5331,63.9646
72.4013,64.0407
72.3415,64.0534
72.2856,64.0285
72.2661,64.0045
71.9656,63.4840
71.9656,63.4840
71.9240,63.5080
71.8642,63.5207
71.8083,63.4958
71.7777,63.4428
71.7755,63.4222
71.7755,63.3340
72.2254,63.3340
72.4254,63.6804
72.7718,63.4804
72.7718,63.4804
72.6994,63.3550
72.6843,63.3347
72.5938,63.2685
72.5938,63.2685
72.4855,63.2395
72.3740,63.2516
72.3740,63.2516
72.3508,63.2616
72.2254,63.3340
71.7755,63.3340
71.7755,60.9436
71.7944,60.8854
71.8195,60.8613
71.8248,60.8578
71.8446,60.8446
71.8889,60.7782
71.9005,60.7197
71.9005,60.1803
71.8962,60.1585
71.8870,60.1122
71.8881,60.1120
71.8841,60.0608
71.9103,60.0139
71.9243,60.0000
73.8945,60.0000
73.9143,60.4913
73.9143,60.4913
73.9143,60.4913
73.9143,60.4913
73.9736,60.9794
73.9736,60.9794
74.0720,61.4611
74.0720,61.4611
74.2087,61.9334
74.2088,61.9334
74.2806,62.1228
74.3831,62.3931
74.3986,62.4257
74.5926,62.8346
74.5939,62.8373
74.8397,63.2632
74.8891,63.3347
75.1190,63.6678
75.4300,64.0487
75.7706,64.4033
75.7706,64.4033
76.0437,64.6452
76.1386,64.7293
76.1386,64.7293
76.5317,65.0247
76.6873,65.1231
76.9473,65.2875
76.9473,65.2875
76.9473,65.2875
76.9473,65.2875
77.3274,65.4870
77.3826,65.5160
77.8350,65.7087
78.0289,65.7734
78.3013,65.8644
78.3014,65.8644
78.3014,65.8644
78.7788,65.9821
79.2641,66.0609
79.7542,66.1005
79.7542,66.1005
80.2458,66.1005
80.2458,66.1005
80.7359,66.0609
81.2212,65.9821
81.6986,65.8644
82.1650,65.7087
82.6174,65.5160
82.9794,65.3259
83.0527,65.2875
83.0527,65.2875
83.0527,65.2875
83.4683,65.0247
83.7943,64.7797
86.5337,64.7797
86.5627,64.8880
86.6290,64.9786
86.6290,64.9786
86.6492,64.9936
86.7746,65.0660
86.9746,64.7196
86.6282,64.5196
86.5558,64.6450
86.5458,64.6682
86.5458,64.6682
86.5337,64.7797
86.5337,64.7797
83.7943,64.7797
83.8614,64.7293
84.2294,64.4033
84.5700,64.0487
84.8810,63.6678
85.1603,63.2632
85.4061,62.8373
85.6169,62.3931
85.7912,61.9334
85.7912,61.9334
85.7912,61.9334
85.9280,61.4611
85.9280,61.4611
85.9280,61.4611
86.0264,60.9794
86.0428,60.8446
86.0549,60.7448
88.0000,60.7448
88.0029,60.7699
88.0482,60.8725
88.1275,60.9518
88.2301,60.9971
88.2552,61.0000
88.4000,61.0000
88.4000,60.6000
88.0000,60.6000
88.0000,60.6000
88.0000,60.7448
86.0549,60.7448
86.0857,60.4913
86.0857,60.4913
86.0857,60.4913
86.1055,60.0000
86.0857,59.5087
86.0857,59.5087
86.0857,59.5087
86.0264,59.0206
86.0264,59.0206
85.9280,58.5389
85.9280,58.5389
85.7912,58.0666
85.7912,58.0666
85.7732,58.0189
85.6169,57.6069
85.4061,57.1627
85.1603,56.7368
85.0103,56.5196
87.2282,56.5196
87.3006,56.6450
87.3157,56.6653
87.4062,56.7315
87.4062,56.7315
87.5145,56.7605
87.6260,56.7484
87.6260,56.7484
87.6492,56.7384
87.7746,56.6660
87.5746,56.3196
87.2282,56.5196
87.2282,56.5196
85.0103,56.5196
84.9968,56.5001
84.8810,56.3322
84.5700,55.9513
84.2294,55.5967
84.1975,55.5685
83.9248,55.3269
83.8614,55.2707
83.8614,55.2707
83.4683,54.9753
83.1127,54.7504
83.0527,54.7125
83.0527,54.7125
83.0527,54.7125
83.0527,54.7125
82.6174,54.4840
82.6174,54.4840
82.6174,54.4840
82.6174,54.4840
82.1650,54.2913
82.1650,54.2913
82.1650,54.2913
81.6987,54.1356
81.6986,54.1356
81.2472,54.0243
81.2212,54.0179
80.7359,53.9391
80.7359,53.9391
80.4610,53.9169
80.2458,53.8995
79.7542,53.8995
79.5563,53.9155
79.2641,53.9391
78.7788,54.0179
78.3014,54.1356
78.3013,54.1356
77.8350,54.2913
77.6761,54.3590
77.3826,54.4840
77.3826,54.4840
77.3826,54.4840
77.3826,54.4840
76.9473,54.7125
76.9473,54.7125
76.5317,54.9753
76.1386,55.2707
76.1386,55.2707
75.7706,55.5967
75.4300,55.9513
75.1190,56.3322
74.8397,56.7368
74.5939,57.1627
74.3831,57.6069
74.2088,58.0666
74.2087,58.0666
74.0720,58.5389
74.0720,58.5389
73.9736,59.0206
73.9736,59.0206
73.9143,59.5087
73.9143,59.5087
73.9143,59.5087
73.9143,59.5087
73.8945,60.0000
71.9243,60.0000
71.9518,59.9725
71.9971,59.8699
72.0000,59.8448
72.0000,59.8448
72.0000,59.7000
72.0000,59.7000
71.3990,59.7000
71.3408,59.6811
71.3048,59.6316
71.3000,59.6010
71.3000,59.4000
71.6000,59.4000
71.6000,59.4000
72.0000,59.4000
72.0000,59.4000
72.0000,59.2552
72.0000,59.2552
71.9971,59.2301
71.9518,59.1275
71.8725,59.0482
71.7699,59.0029
71.7448,59.0000
71.6000,59.0000
71.6000,59.0000
71.6000,59.4000
71.3000,59.4000
71.3000,59.0000
71.3000,59.0000
71.1552,59.0000
71.1552,59.0000
71.1301,59.0029
71.0191,59.0519
71.0182,59.0498
70.9717,59.0635
70.9141,59.0430
70.8795,58.9925
70.8755,58.9645
70.8755,58.1110
70.8944,58.0528
70.9045,58.0410
71.3387,57.6069
72.2808,56.6647
72.3353,56.6370
72.3826,56.6410
72.4353,56.6589
72.5149,56.6537
72.5864,56.6184
72.6258,56.5736
72.8955,56.1064
72.9147,56.0499
72.9147,56.0499
72.9178,56.0407
72.9189,56.0410
72.9410,55.9947
72.9872,55.9672
73.0438,55.9521
73.1343,55.8859
73.1343,55.8859
73.1494,55.8656
73.1494,55.8656
73.2218,55.7402
73.2218,55.7402
72.7013,55.4397
72.6604,55.3942
72.6540,55.3334
72.6651,55.3045
72.6790,55.2804
73.0254,55.2804
73.3718,55.4804
73.3718,55.4804
73.4442,55.3550
73.4442,55.3550
73.4542,55.3318
73.4542,55.3318
73.4663,55.2203
73.4663,55.2203
73.4373,55.1120
73.3710,55.0214
73.3710,55.0214
73.3508,55.0064
73.3508,55.0064
73.2254,54.9340
73.2254,54.9340
73.0254,55.2804
72.6790,55.2804
72.7656,55.1304
72.9656,54.7840
72.8473,54.7157
72.8063,54.6702
72.7999,54.6093
72.8267,54.5599
74.0149,53.3718
84.5196,53.3718
84.6450,53.4442
84.6682,53.4542
84.6682,53.4542
84.7797,53.4663
84.7797,53.4663
84.8880,53.4373
84.9786,53.3710
84.9786,53.3710
84.9936,53.3508
84.9936,53.3508
85.0660,53.2254
84.7196,53.0254
84.5196,53.3718
74.0149,53.3718
74.2117,53.1750
74.2662,53.1472
74.2817,53.1460
74.9459,53.1460
75.0041,53.1649
75.0316,53.1955
75.0468,53.2218
75.0800,53.2793
75.0800,53.2793
75.1193,53.3242
75.1909,53.3594
75.2705,53.3647
75.3269,53.3455
75.7941,53.0758
75.8306,53.0438
75.8463,53.0300
75.8471,53.0309
75.8894,53.0018
75.9431,53.0011
75.9997,53.0163
75.9997,53.0163
76.1112,53.0042
76.1112,53.0042
76.1344,52.9942
76.2598,52.9218
76.0201,52.5066
76.0201,52.5066
75.9732,52.4254
76.3196,52.4254
76.5196,52.7718
76.6450,52.6994
76.6653,52.6843
76.7315,52.5938
76.7315,52.5938
76.7605,52.4855
76.7605,52.4855
76.7484,52.3740
76.7484,52.3740
76.7384,52.3508
76.6660,52.2254
76.3196,52.4254
75.9732,52.4254
75.9593,52.4013
75.9466,52.3415
75.9715,52.2856
75.9955,52.2661
76.5160,51.9656
76.4920,51.9240
76.4793,51.8642
76.5042,51.8083
76.5572,51.7777
76.5778,51.7755
79.0564,51.7755
79.1146,51.7944
79.1387,51.8195
79.1546,51.8432
79.1554,51.8446
79.2218,51.8889
79.2609,51.8966
79.2802,51.9005
79.2802,51.9005
79.2803,51.9005
79.2803,51.9005
79.8197,51.9005
79.8197,51.9005
79.8782,51.8889
79.8782,51.8889
79.8878,51.8870
79.8880,51.8881
79.9392,51.8841
79.9861,51.9103
80.0275,51.9518
80.1301,51.9971
80.1552,52.0000
80.3000,52.0000
80.3000,52.0000
80.6000,52.0000
80.6000,52.0000
80.7448,52.0000
80.7448,52.0000
80.7699,51.9971
80.8725,51.9518
80.9518,51.8725
80.9971,51.7699
81.0000,51.7448
81.0000,51.7448
81.0000,51.6000
81.0000,51.6000
80.6000,51.6000
80.6000,51.6000
80.6000,52.0000
80.3000,52.0000
80.3000,51.3990
80.3189,51.3408
80.3684,51.3048
80.3990,51.3000
81.0000,51.3000
81.0000,51.3000
81.0000,51.1552
81.0000,51.1552
80.9971,51.1301
80.9481,51.0191
80.9502,51.0182
80.9365,50.9718
80.9570,50.9141
81.0075,50.8795
81.0355,50.8755
81.8890,50.8755
81.9472,50.8944
81.9590,50.9045
83.3353,52.2808
83.3630,52.3353
83.3590,52.3826
83.3411,52.4353
83.3411,52.4353
83.3463,52.5149
83.3816,52.5864
83.4264,52.6258
83.8936,52.8955
83.8937,52.8955
83.8937,52.8955
83.9593,52.9178
83.9590,52.9189
84.0053,52.9410
84.0328,52.9872
84.0479,53.0438
84.0479,53.0438
84.1141,53.1343
84.1141,53.1343
84.1344,53.1494
84.2598,53.2218
84.5603,52.7013
84.6058,52.6604
84.6666,52.6540
84.6955,52.6651
85.2160,52.9656
85.2843,52.8473
85.3298,52.8063
85.3907,52.7999
85.4401,52.8268
86.8250,54.2117
86.8528,54.2662
86.8540,54.2817
86.8540,54.9459
86.8351,55.0041
86.8045,55.0316
86.7207,55.0800
86.6758,55.1193
86.6405,55.1909
86.6405,55.1909
86.6353,55.2705
86.6353,55.2705
86.6545,55.3269
86.6545,55.3269
86.6545,55.3269
86.9097,55.7690
86.9243,55.7942
86.9700,55.8463
86.9691,55.8471
86.9982,55.8894
86.9989,55.9431
86.9837,55.9997
86.9837,55.9997
86.9958,56.1112
86.9958,56.1112
87.0058,56.1344
87.0782,56.2598
87.0782,56.2598
87.4418,56.0499
87.5987,55.9593
87.6585,55.9466
87.7144,55.9715
87.7339,55.9955
88.0344,56.5160
88.0760,56.4920
88.1358,56.4793
88.1917,56.5042
88.2223,56.5572
88.2245,56.5778
88.2245,59.0564
88.2056,59.1146
88.1805,59.1387
88.1555,59.1554
88.1554,59.1555
88.1111,59.2218
88.1111,59.2218
88.0995,59.2802
88.0995,59.2803
88.0995,59.8197
88.0995,59.8198
88.1130,59.8878
88.1119,59.8880
88.1159,59.9392
88.0897,59.9861
88.0482,60.0275
88.0029,60.1301
88.0000,60.1552
88.0000,60.3000
88.0000,60.3000
88.6010,60.3000
88.6592,60.3189
88.6952,60.3684
88.7000,60.3990
88.7000,61.0000
88.7000,61.0000
88.8448,61.0000
88.8448,61.0000
88.8699,60.9971
88.9809,60.9481
88.9818,60.9502
89.0282,60.9365
89.0859,60.9570
89.1205,61.0075
89.1245,61.0355
89.1245,61.1833
89.1056,61.2415
89.0561,61.2774
89.0369,61.2816
89.0300,61.2824
88.9500,61.3177
88.8891,61.3240
88.8700,61.3177
88.7900,61.2824
88.7900,61.2824
88.7649,61.2795
88.2401,61.2795
88.2401,61.2795
88.2142,61.2825
88.1649,61.2756
88.0668,61.2350
88.0668,61.2350
88.0668,61.2350
87.9100,61.2143
87.9100,61.2143
87.7532,61.2350
87.7532,61.2350
87.6072,61.2955
87.6072,61.2955
87.4817,61.3917
87.4817,61.3917
87.3855,61.5172
87.3855,61.5172
87.3250,61.6632
87.3250,61.6632
87.3043,61.8200
87.3043,61.8200
87.3250,61.9768
87.3250,61.9768
87.3855,62.1228
87.3855,62.1228
87.3855,62.1228
87.4817,62.2483
87.6072,62.3445
87.7532,62.4050
87.8708,62.4205
87.9100,62.4257
87.9100,62.4257
87.9100,62.4257
87.9414,62.4216
88.0668,62.4050
88.2128,62.3445
88.3383,62.2483
88.4345,62.1228
88.4345,62.1228
88.4373,62.1192
88.4877,62.0846
88.5158,62.0805
88.7649,62.0805
88.7649,62.0805
88.7900,62.0776
88.8700,62.0423
88.9309,62.0360
88.9500,62.0422
89.0300,62.0776
89.0551,62.0805
89.5799,62.0805
89.6050,62.0776
89.7078,62.0322
89.7872,61.9528
89.8326,61.8500
89.8355,61.8249
89.8355,61.5351
89.8326,61.5100
89.7872,61.4072
89.7872,61.4072
89.7839,61.3998
89.7755,61.3598
89.7755,60.9552
89.7944,60.8970
89.8439,60.8610
89.9051,60.8610
89.9445,60.8852
90.0120,60.9526
90.1249,61.0102
90.1249,61.0102
90.2000,61.0221
90.5000,61.0221
90.5751,61.0102
90.5751,61.0102
90.6880,60.9526
90.7776,60.8630
90.8352,60.7502
90.8352,60.7501
90.8500,60.6565
90.8500,60.5575
90.8500,60.5575
90.5000,60.5575
90.5000,60.5575
90.5000,61.0221
90.2000,61.0221
90.2000,61.0221
90.2000,60.3565
90.2189,60.2983
90.2684,60.2623
90.2990,60.2575
90.8500,60.2575
90.8500,60.2575
90.8500,60.1585
90.8500,60.1585
90.8352,60.0649
90.8352,60.0648
90.7776,59.9520
90.7771,59.9514
90.7767,59.9507
90.7731,59.9457
90.7739,59.9451
90.7493,59.8969
90.7487,59.8700
90.7488,59.8699
90.7505,59.8549
90.7505,59.3301
90.7476,59.3050
90.7022,59.2022
90.6929,59.1930
90.6654,59.1402
90.6606,59.1126
90.6598,59.1113
90.6499,59.0874
90.6496,59.0860
90.6496,59.0860
90.6496,59.0860
90.6260,59.0524
90.6237,59.0487
90.6234,59.0482
90.6032,59.0132
90.6032,59.0132
90.5754,58.9898
90.5718,58.9868
90.5686,58.9839
90.5515,58.9668
90.5237,58.9123
90.5233,58.8839
90.5339,58.8038
90.5132,58.6471
90.4690,58.5403
90.4527,58.5010
90.4527,58.5010
90.3565,58.3756
90.3565,58.3756
90.3565,58.3756
90.3565,58.3756
90.3565,58.3756
90.2310,58.2793
90.0850,58.2188
90.0850,58.2188
89.9282,58.1982
89.9282,58.1982
89.7714,58.2188
89.7714,58.2188
89.6254,58.2793
89.6254,58.2793
89.4999,58.3756
89.4999,58.3756
89.4037,58.5010
89.4037,58.5010
89.3432,58.6471
89.3432,58.6471
89.3225,58.8038
89.3225,58.8038
89.3331,58.8839
89.3219,58.9440
89.3049,58.9668
89.2314,59.0403
89.2282,59.0432
89.1968,59.0696
89.1924,59.0749
89.1405,59.1073
89.1359,59.1083
89.1218,59.1111
89.0550,59.1557
88.9961,59.1724
88.9450,59.1557
88.9195,59.1387
88.8816,59.0907
88.8755,59.0564
88.8755,55.9581
88.8944,55.8999
88.9092,55.8836
88.9126,55.8807
88.9309,55.8436
88.9736,55.7998
89.0339,55.7895
89.0453,55.7918
89.1469,55.8190
89.1469,55.8190
89.2735,55.8124
89.2735,55.8124
89.3445,55.7851
89.0256,55.2328
89.3720,55.2328
89.6043,55.6351
89.6634,55.5873
89.7324,55.4810
89.7324,55.4810
89.7652,55.3586
89.7652,55.3586
89.7586,55.2321
89.7586,55.2321
89.7246,55.1435
89.7246,55.1435
89.6751,55.0578
89.3720,55.2328
89.0256,55.2328
89.0117,55.2087
88.9990,55.1489
89.0239,55.0930
89.0479,55.0735
89.2220,54.9730
89.5251,54.7980
89.4756,54.7123
89.4160,54.6386
89.3097,54.5696
89.3097,54.5696
89.3089,54.5694
89.3082,54.5689
89.3026,54.5664
89.3030,54.5655
89.2576,54.5360
89.2437,54.5130
89.2376,54.4991
89.2376,54.4991
89.2376,54.4990
88.9753,54.0446
88.9702,54.0379
88.9602,54.0243
88.9602,54.0243
88.9602,54.0243
88.8695,53.9580
88.8695,53.9580
88.8695,53.9580
88.7610,53.9289
88.7610,53.9289
88.7610,53.9289
88.6948,53.9361
88.6349,53.9236
88.5938,53.8782
88.5860,53.8506
88.5850,53.8432
88.5850,53.8432
88.5527,53.7652
88.5245,53.6972
88.5245,53.6972
88.4283,53.5717
88.4283,53.5717
88.4283,53.5717
88.4283,53.5717
88.4283,53.5717
88.3028,53.4755
88.1568,53.4150
88.1568,53.4150
88.0000,53.3943
88.0000,53.3943
87.8432,53.4150
87.8432,53.4150
87.6972,53.4755
87.6972,53.4755
87.5717,53.5717
87.5717,53.5717
87.4755,53.6972
87.4755,53.6972
87.4606,53.7330
87.4209,53.7796
87.3614,53.7938
87.3048,53.7704
87.2991,53.7652
85.6647,52.1308
85.6370,52.0763
85.6410,52.0289
85.6589,51.9762
85.6562,51.9350
85.6713,51.8757
85.7183,51.8366
85.7294,51.8329
85.8310,51.8057
85.8310,51.8057
85.9373,51.7367
85.9851,51.6776
85.4087,51.3448
85.3678,51.2993
85.3614,51.2385
85.3725,51.2096
85.3864,51.1855
85.7328,51.1855
86.1351,51.4178
86.1624,51.3467
86.1624,51.3467
86.1690,51.2202
86.1690,51.2202
86.1362,51.0978
86.1362,51.0978
86.0672,50.9915
85.9935,50.9319
85.9078,50.8824
85.7328,51.1855
85.3864,51.1855
85.4730,51.0355
85.6480,50.7324
85.6480,50.7324
85.5623,50.6829
85.4737,50.6489
85.4737,50.6489
85.3472,50.6423
85.3472,50.6423
85.3464,50.6425
85.3456,50.6424
85.3395,50.6431
85.3394,50.6421
85.2853,50.6393
85.2618,50.6263
85.2496,50.6172
85.2496,50.6172
85.2496,50.6172
84.9572,50.4484
84.7951,50.3549
84.7951,50.3549
84.7951,50.3549
84.7951,50.3549
84.7719,50.3448
84.7719,50.3448
84.6602,50.3327
84.6602,50.3327
84.5517,50.3618
84.5517,50.3618
84.5517,50.3618
84.4980,50.4011
84.4398,50.4202
84.3816,50.4015
84.3610,50.3815
84.3565,50.3756
84.3565,50.3756
84.3565,50.3756
84.2853,50.3209
84.2310,50.2793
84.2310,50.2793
84.2310,50.2793
84.0850,50.2188
84.0850,50.2188
83.9282,50.1982
83.9282,50.1982
83.7714,50.2188
83.7714,50.2188
83.6254,50.2793
83.6254,50.2793
83.4999,50.3756
83.4999,50.3756
83.4037,50.5010
83.4037,50.5010
83.3432,50.6471
83.3432,50.6471
83.3225,50.8038
83.3225,50.8038
83.3432,50.9606
83.3432,50.9606
83.4037,51.1067
83.4037,51.1067
83.4999,51.2321
83.4999,51.2321
83.4999,51.2321
83.4999,51.2321
83.5293,51.2547
83.6254,51.3284
83.6254,51.3284
83.6254,51.3284
83.7714,51.3889
83.7714,51.3889
83.7736,51.3892
83.7750,51.3898
83.7777,51.3906
83.7776,51.3911
83.8288,51.4155
83.8580,51.4693
83.8500,51.5299
83.8464,51.5368
83.8103,51.5994
83.8017,51.6246
83.7651,51.6737
83.7067,51.6918
83.6487,51.6721
83.6380,51.6628
82.3065,50.3314
82.3036,50.3282
82.2773,50.2968
82.2470,50.2793
82.2417,50.2763
82.2381,50.2740
82.2045,50.2504
82.2045,50.2504
82.2030,50.2501
82.1792,50.2402
82.1779,50.2394
82.1375,50.2323
82.1332,50.2314
82.0975,50.2218
82.0936,50.2207
82.0936,50.2207
82.0892,50.2211
82.0527,50.2243
82.0484,50.2245
80.9552,50.2245
80.8970,50.2056
80.8610,50.1561
80.8610,50.0949
80.8852,50.0555
80.9526,49.9880
81.0102,49.8752
81.0102,49.8751
81.0221,49.8000
80.3565,49.8000
80.2983,49.7811
80.2623,49.7316
80.2575,49.7010
80.2575,49.5000
80.5575,49.5000
80.5575,49.5000
81.0221,49.5000
81.0221,49.5000
81.0102,49.4249
81.0102,49.4249
80.9526,49.3120
80.8630,49.2224
80.7502,49.1648
80.7501,49.1648
80.6565,49.1500
80.5575,49.1500
80.5575,49.1500
80.5575,49.5000
80.2575,49.5000
80.2575,49.1500
80.1585,49.1500
80.1585,49.1500
80.0649,49.1648
80.0648,49.1648
79.9519,49.2224
79.9514,49.2229
79.9507,49.2233
79.9456,49.2269
79.9451,49.2261
79.8969,49.2507
79.8700,49.2513
79.8640,49.2506
79.8549,49.2495
79.8549,49.2495
79.3301,49.2495
79.3301,49.2495
79.3050,49.2524
79.2022,49.2978
79.2022,49.2978
79.1930,49.3071
79.1402,49.3346
79.1126,49.3394
79.1126,49.3394
79.1113,49.3402
79.0874,49.3501
79.0860,49.3504
79.0860,49.3504
79.0524,49.3740
79.0487,49.3763
79.0405,49.3810
79.0132,49.3968
78.9868,49.4282
78.9839,49.4314
78.9668,49.4485
78.9123,49.4763
78.8839,49.4767
78.8038,49.4661
78.8038,49.4661
78.6471,49.4868
78.6471,49.4868
78.5010,49.5473
78.5010,49.5473
78.3756,49.6435
78.3756,49.6435
78.2793,49.7690
78.2793,49.7690
78.2188,49.9150
78.2188,49.9150
78.1982,50.0718
78.1982,50.0718
78.2188,50.2286
78.2188,50.2286
78.2793,50.3746
78.2793,50.3746
78.3756,50.5001
78.3756,50.5001
78.3756,50.5001
78.3756,50.5001
78.3768,50.5010
78.5010,50.5963
78.5010,50.5963
78.5010,50.5963
78.6279,50.6489
78.6471,50.6568
78.8038,50.6775
78.8839,50.6669
78.9440,50.6781
78.9668,50.6951
79.0403,50.7686
79.0432,50.7718
79.0696,50.8032
79.0749,50.8076
79.1073,50.8595
79.1083,50.8641
79.1111,50.8782
79.1111,50.8782
79.1557,50.9450
79.1724,51.0039
79.1557,51.0550
79.1387,51.0805
79.0907,51.1184
79.0564,51.1245
75.9581,51.1245
75.8999,51.1056
75.8837,51.0908
75.8807,51.0874
75.8436,51.0691
75.7998,51.0264
75.7895,50.9661
75.7918,50.9547
75.8190,50.8531
75.8190,50.8531
75.8124,50.7265
75.7851,50.6555
75.2087,50.9883
75.1489,51.0010
75.0930,50.9761
75.0735,50.9521
74.7980,50.4749
74.7123,50.5244
74.6386,50.5840
74.5696,50.6903
74.5696,50.6903
74.5694,50.6911
74.5689,50.6917
74.5664,50.6974
74.5655,50.6970
74.5360,50.7424
74.5130,50.7563
74.4991,50.7624
74.4990,50.7624
74.0446,51.0247
74.0243,51.0398
73.9580,51.1305
73.9580,51.1305
73.9580,51.1305
73.9340,51.2202
73.9289,51.2390
73.9289,51.2390
73.9361,51.3052
73.9236,51.3651
73.8782,51.4062
73.8506,51.4140
73.8432,51.4150
73.8432,51.4150
73.6972,51.4755
73.6972,51.4755
73.5717,51.5717
73.5717,51.5717
73.4755,51.6972
73.4755,51.6972
73.4150,51.8432
73.4150,51.8432
73.3943,52.0000
73.4150,52.1568
73.4150,52.1568
73.4755,52.3028
73.4755,52.3028
73.5695,52.4254
73.5717,52.4283
73.5717,52.4283
73.5717,52.4283
73.6586,52.4950
73.6972,52.5245
73.7330,52.5394
73.7796,52.5791
73.7938,52.6386
73.7704,52.6952
73.7652,52.7009
72.1308,54.3353
72.0763,54.3630
72.0289,54.3590
72.0028,54.3501
71.9762,54.3411
71.9762,54.3411
71.9762,54.3411
71.9486,54.3429
71.9350,54.3438
71.8757,54.3287
71.8366,54.2817
71.8329,54.2706
71.8057,54.1690
71.8057,54.1690
71.7367,54.0627
71.6776,54.0149
71.3448,54.5913
71.2993,54.6322
71.2385,54.6386
71.2096,54.6275
71.0585,54.5403
70.7324,54.3520
70.7324,54.3520
70.6829,54.4377
70.6829,54.4377
70.6489,54.5263
70.6489,54.5263
70.6423,54.6528
70.6423,54.6528
70.6425,54.6536
70.6424,54.6543
70.6431,54.6605
70.6421,54.6606
70.6393,54.7147
70.6263,54.7382
70.6172,54.7504
70.3549,55.2049
70.3549,55.2049
70.3448,55.2281
70.3448,55.2281
70.3327,55.3398
70.3327,55.3398
70.3618,55.4483
70.3618,55.4483
70.3618,55.4483
70.4011,55.5020
70.4202,55.5602
70.4015,55.6184
70.3815,55.6390
70.3756,55.6435
70.3756,55.6435
70.2793,55.7690
70.2793,55.7690
70.2188,55.9150
70.2188,55.9150
70.1982,56.0718
70.1982,56.0718
70.2188,56.2286
70.2188,56.2286
70.2793,56.3746
70.2793,56.3746
70.3756,56.5001
70.3756,56.5001
70.5010,56.5963
70.5010,56.5963
70.5010,56.5963
70.5991,56.6370
70.6471,56.6568
70.7647,56.6723
70.8038,56.6775
70.8038,56.6775
70.8038,56.6775
70.8352,56.6734
70.9606,56.6568
71.1067,56.5963
71.2321,56.5001
71.3284,56.3746
71.3889,56.2286
71.3892,56.2264
71.3898,56.2250
71.3906,56.2223
71.3911,56.2224
71.4155,56.1712
71.4693,56.1420
71.5299,56.1500
71.5368,56.1536
71.5994,56.1897
71.5994,56.1897
71.6246,56.1983
71.6737,56.2349
71.6918,56.2933
71.6721,56.3513
71.6628,56.3620
70.3314,57.6935
70.3282,57.6964
70.2968,57.7227
70.2968,57.7227
70.2763,57.7583
70.2740,57.7619
70.2504,57.7955
70.2504,57.7955
70.2501,57.7970
70.2402,57.8208
70.2394,57.8221
70.2394,57.8222
70.2323,57.8625
70.2314,57.8668
70.2207,57.9064
70.2207,57.9064
70.2243,57.9473
70.2245,57.9516
70.2245,59.0448
70.2056,59.1030
70.1561,59.1390
70.0949,59.1390
70.0555,59.1148
69.9880,59.0474
69.8752,58.9898
69.8751,58.9898
69.8000,58.9779
69.8000,59.6435
69.7811,59.7017
69.7316,59.7377
69.7010,59.7425
69.1500,59.7425
69.1500,59.8415
65.0005,59.8415
65.0005,59.4425
69.1500,59.4425
69.1500,59.4425
69.5000,59.4425
69.5000,59.4425
69.5000,58.9779
69.4249,58.9898
69.4248,58.9898
69.3120,59.0474
69.2224,59.1370
69.1648,59.2498
69.1648,59.2499
69.1500,59.3435
69.1500,59.4425
65.0005,59.4425
65.0005,54.0922
70.8824,54.0922
71.1855,54.2672
71.4178,53.8649
71.3467,53.8376
71.3467,53.8376
71.2202,53.8310
71.2202,53.8310
71.0978,53.8638
71.0978,53.8638
70.9915,53.9328
70.9319,54.0065
70.8824,54.0922
65.0005,54.0922
65.0005,50.3249
75.0578,50.3249
75.2328,50.6280
75.6351,50.3957
75.5873,50.3366
75.4810,50.2676
75.4810,50.2676
75.3586,50.2348
75.3586,50.2348
75.2321,50.2414
75.2321,50.2414
75.1435,50.2754
75.0578,50.3249
75.0578,50.3249
65.0005,50.3249
65.0005,48.0000
66.6443,48.0000
66.6649,48.2354
66.7261,48.4637
66.8260,48.6778
66.8260,48.6778
66.8260,48.6778
66.8260,48.6778
66.9615,48.8714
67.1286,49.0385
67.3222,49.1740
67.3222,49.1740
67.3222,49.1740
67.3222,49.1740
67.5363,49.2739
67.5363,49.2739
67.7646,49.3351
67.7646,49.3351
67.7646,49.3351
67.9410,49.3505
67.9410,49.3505
68.0590,49.3505
68.2354,49.3351
68.2354,49.3351
68.2354,49.3351
68.4637,49.2739
68.6778,49.1740
68.8714,49.0385
69.0385,48.8714
69.1740,48.6778
69.2739,48.4637
69.3351,48.2354
69.3557,48.0000
90.6443,48.0000
90.6649,48.2354
90.7261,48.4637
90.8260,48.6778
90.8260,48.6778
90.8260,48.6778
90.8260,48.6778
90.9615,48.8714
91.1286,49.0385
91.3222,49.1740
91.3222,49.1740
91.3222,49.1740
91.3222,49.1740
91.5363,49.2739
91.5363,49.2739
91.7646,49.3351
91.7646,49.3351
91.7646,49.3351
91.9410,49.3505
91.9410,49.3505
92.0590,49.3505
92.2354,49.3351
92.2354,49.3351
92.2354,49.3351
92.4637,49.2739
92.6778,49.1740
92.8714,49.0385
93.0385,48.8714
93.1740,48.6778
93.2739,48.4637
93.3351,48.2354
93.3557,48.0000
93.3351,47.7646
93.2739,47.5363
93.1740,47.3222
93.0385,47.1286
92.8714,46.9615
92.8714,46.9615
92.8714,46.9615
92.6778,46.8260
92.6778,46.8260
92.4637,46.7261
92.4637,46.7261
92.3876,46.7057
92.2354,46.6649
92.2354,46.6649
92.2354,46.6649
92.0590,46.6495
92.0590,46.6495
91.9410,46.6495
91.9410,46.6495
91.7646,46.6649
91.5363,46.7261
91.3222,46.8260
91.3222,46.8260
91.1286,46.9615
90.9615,47.1286
90.8260,47.3222
90.7261,47.5363
90.6649,47.7646
90.6443,48.0000
90.6443,48.0000
69.3557,48.0000
69.3557,48.0000
69.3351,47.7646
69.2739,47.5363
69.1740,47.3222
69.0385,47.1286
68.8714,46.9615
68.8714,46.9615
68.8714,46.9615
68.6778,46.8260
68.6778,46.8260
68.4637,46.7261
68.4637,46.7261
68.3876,46.7057
68.2354,46.6649
68.2354,46.6649
68.2354,46.6649
68.0590,46.6495
68.0590,46.6495
67.9410,46.6495
67.9410,46.6495
67.7646,46.6649
67.5363,46.7261
67.3222,46.8260
67.3222,46.8260
67.1286,46.9615
66.9615,47.1286
66.8260,47.3222
66.7261,47.5363
66.6649,47.7646
66.6443,48.0000
66.6443,48.0000
65.0005,48.0000
65.0005,46.0022
65.0007,45.9979
65.0045,45.9545
65.0171,45.8262
65.0200,45.8103
65.0382,45.7424
65.0386,45.7410
65.0672,45.6467
65.0722,45.6336
65.0993,45.5756
65.1046,45.5643
65.1057,45.5619
65.1511,45.4770
65.1542,45.4720
65.2013,45.4048
65.2035,45.4018
65.2635,45.3287
65.2667,45.3251
65.3251,45.2667
65.3287,45.2635
65.4018,45.2035
65.4048,45.2013
65.4720,45.1542
65.4770,45.1511
65.5619,45.1057
65.5643,45.1046
65.6336,45.0722
65.6467,45.0672
65.7410,45.0386
65.7423,45.0382
65.8103,45.0200
65.8262,45.0171
65.9545,45.0045
65.9979,45.0007
66.0022,45.0005
93.9978,45.0005
Z" /> 
</g>
</g>
</g>
<g style="fill:#FFFFFF; fill-opacity:1.0000; 
stroke:#FFFFFF; stroke-width:0.0000; stroke-opacity:1; 
stroke-linecap:round; stroke-linejoin:round;">
<circle cx="86.8000" cy="63.6000" r="0.2000" /> 
</g>
<g style="fill:#FFFFFF; fill-opacity:1.0000; 
stroke:#FFFFFF; stroke-width:0.0212; stroke-opacity:1; 
stroke-linecap:round; stroke-linejoin:round;">
</g>
<g style="fill:#FFFFFF; fill-opacity:1.0000; 
stroke:#FFFFFF; stroke-width:0.0000; stroke-opacity:1; 
stroke-linecap:round; stroke-linejoin:round;">
<circle cx="74.0000" cy="52.0000" r="0.2000" /> 
</g>
<g style="fill:#FFFFFF; fill-opacity:1.0000; 
stroke:#FFFFFF; stroke-width:0.0212; stroke-opacity:1; 
stroke-linecap:round; stroke-linejoin:round;">
</g>
<g style="fill:#FFFFFF; fill-opacity:1.0000; 
stroke:#FFFFFF; stroke-width:0.0000; stroke-opacity:1; 
stroke-linecap:round; stroke-linejoin:round;">
<circle cx="89.9282" cy="58.8038" r="0.2000" /> 
</g>
<g style="fill:#FFFFFF; fill-opacity:1.0000; 
stroke:#FFFFFF; stroke-width:0.0212; stroke-opacity:1; 
stroke-linecap:round; stroke-linejoin:round;">
</g>
<g style="fill:#FFFFFF; fill-opacity:1.0000; 
stroke:#FFFFFF; stroke-width:0.0000; stroke-opacity:1; 
stroke-linecap:round; stroke-linejoin:round;">
<circle cx="70.0718" cy="61.1962" r="0.2000" /> 
</g>
<g style="fill:#FFFFFF; fill-opacity:1.0000; 
stroke:#FFFFFF; stroke-width:0.0212; stroke-opacity:1; 
stroke-linecap:round; stroke-linejoin:round;">
</g>
<g style="fill:#FFFFFF; fill-opacity:1.0000; 
stroke:#FFFFFF; stroke-width:0.0000; stroke-opacity:1; 
stroke-linecap:round; stroke-linejoin:round;">
<circle cx="76.0718" cy="69.1962" r="0.2000" /> 
</g>
<g style="fill:#FFFFFF; fill-opacity:1.0000; 
stroke:#FFFFFF; stroke-width:0.0212; stroke-opacity:1; 
stroke-linecap:round; stroke-linejoin:round;">
</g>
<g style="fill:#FFFFFF; fill-opacity:1.0000; 
stroke:#FFFFFF; stroke-width:0.0000; stroke-opacity:1; 
stroke-linecap:round; stroke-linejoin:round;">
<circle cx="81.1962" cy="69.9282" r="0.2000" /> 
</g>
<g style="fill:#FFFFFF; fill-opacity:1.0000; 
stroke:#FFFFFF; stroke-width:0.0212; stroke-opacity:1; 
stroke-linecap:round; stroke-linejoin:round;">
</g>
<g style="fill:#FFFFFF; fill-opacity:1.0000; 
stroke:#FFFFFF; stroke-width:0.0000; stroke-opacity:1; 
stroke-linecap:round; stroke-linejoin:round;">
<circle cx="83.9282" cy="50.8038" r="0.2000" /> 
</g>
<g style="fill:#FFFFFF; fill-opacity:1.0000; 
stroke:#FFFFFF; stroke-width:0.0212; stroke-opacity:1; 
stroke-linecap:round; stroke-linejoin:round;">
</g>
<g style="fill:#FFFFFF; fill-opacity:1.0000; 
stroke:#FFFFFF; stroke-width:0.0000; stroke-opacity:1; 
stroke-linecap:round; stroke-linejoin:round;">
<circle cx="72.0000" cy="66.0000" r="0.2000" /> 
</g>
<g style="fill:#FFFFFF; fill-opacity:1.0000; 
stroke:#FFFFFF; stroke-width:0.0212; stroke-opacity:1; 
stroke-linecap:round; stroke-linejoin:round;">
</g>
<g style="fill:#FFFFFF; fill-opacity:1.0000; 
stroke:#FFFFFF; stroke-width:0.0000; stroke-opacity:1; 
stroke-linecap:round; stroke-linejoin:round;">
<circle cx="86.4000" cy="67.7000" r="0.2000" /> 
</g>
<g style="fill:#FFFFFF; fill-opacity:1.0000; 
stroke:#FFFFFF; stroke-width:0.0212; stroke-opacity:1; 
stroke-linecap:round; stroke-linejoin:round;">
</g>
<g style="fill:#FFFFFF; fill-opacity:1.0000; 
stroke:#FFFFFF; stroke-width:0.0000; stroke-opacity:1; 
stroke-linecap:round; stroke-linejoin:round;">
<circle cx="70.8038" cy="56.0718" r="0.2000" /> 
</g>
<g style="fill:#FFFFFF; fill-opacity:1.0000; 
stroke:#FFFFFF; stroke-width:0.0212; stroke-opacity:1; 
stroke-linecap:round; stroke-linejoin:round;">
</g>
<g style="fill:#FFFFFF; fill-opacity:1.0000; 
stroke:#FFFFFF; stroke-width:0.0000; stroke-opacity:1; 
stroke-linecap:round; stroke-linejoin:round;">
<circle cx="88.0000" cy="54.0000" r="0.2000" /> 
</g>
<g style="fill:#FFFFFF; fill-opacity:1.0000; 
stroke:#FFFFFF; stroke-width:0.0212; stroke-opacity:1; 
stroke-linecap:round; stroke-linejoin:round;">
</g>
<g style="fill:#FFFFFF; fill-opacity:1.0000; 
stroke:#FFFFFF; stroke-width:0.0000; stroke-opacity:1; 
stroke-linecap:round; stroke-linejoin:round;">
<circle cx="88.5000" cy="66.0000" r="0.2000" /> 
</g>
<g style="fill:#FFFFFF; fill-opacity:1.0000; 
stroke:#FFFFFF; stroke-width:0.0212; stroke-opacity:1; 
stroke-linecap:round; stroke-linejoin:round;">
</g>
<g style="fill:#FFFFFF; fill-opacity:1.0000; 
stroke:#FFFFFF; stroke-width:0.0000; stroke-opacity:1; 
stroke-linecap:round; stroke-linejoin:round;">
<circle cx="78.8038" cy="50.0718" r="0.2000" /> 
</g>
<g style="fill:#FFFFFF; fill-opacity:1.0000; 
stroke:#FFFFFF; stroke-width:0.0212; stroke-opacity:1; 
stroke-linecap:round; stroke-linejoin:round;">
</g>
<g style="fill:#FFFFFF; fill-opacity:1.0000; 
stroke:#FFFFFF; stroke-width:0.0000; stroke-opacity:1; 
stroke-linecap:round; stroke-linejoin:round;">
<circle cx="92.0000" cy="62.1000" r="0.2000" /> 
</g>
<g style="fill:#FFFFFF; fill-opacity:1.0000; 
stroke:#FFFFFF; stroke-width:0.0212; stroke-opacity:1; 
stroke-linecap:round; stroke-linejoin:round;">
</g>
<g style="fill:#FFFFFF; fill-opacity:1.0000; 
stroke:#FFFFFF; stroke-width:0.0000; stroke-opacity:1; 
stroke-linecap:round; stroke-linejoin:round;">
<circle cx="85.9000" cy="72.0000" r="0.2000" /> 
</g>
<g style="fill:#FFFFFF; fill-opacity:1.0000; 
stroke:#FFFFFF; stroke-width:0.0212; stroke-opacity:1; 
stroke-linecap:round; stroke-linejoin:round;">
</g>
<g style="fill:#FFFFFF; fill-opacity:1.0000; 
stroke:#FFFFFF; stroke-width:0.0000; stroke-opacity:1; 
stroke-linecap:round; stroke-linejoin:round;">
<circle cx="92.0000" cy="63.1000" r="0.2000" /> 
</g>
<g style="fill:#FFFFFF; fill-opacity:1.0000; 
stroke:#FFFFFF; stroke-width:0.0212; stroke-opacity:1; 
stroke-linecap:round; stroke-linejoin:round;">
</g>
<g style="fill:#FFFFFF; fill-opacity:1.0000; 
stroke:#FFFFFF; stroke-width:0.0000; stroke-opacity:1; 
stroke-linecap:round; stroke-linejoin:round;">
<circle cx="92.0000" cy="64.1000" r="0.2000" /> 
</g>
<g style="fill:#FFFFFF; fill-opacity:1.0000; 
stroke:#FFFFFF; stroke-width:0.0212; stroke-opacity:1; 
stroke-linecap:round; stroke-linejoin:round;">
</g>
<g style="fill:#FFFFFF; fill-opacity:1.0000; 
stroke:#FFFFFF; stroke-width:0.0000; stroke-opacity:1; 
stroke-linecap:round; stroke-linejoin:round;">
<circle cx="87.9000" cy="72.0000" r="0.2000" /> 
</g>
<g style="fill:#FFFFFF; fill-opacity:1.0000; 
stroke:#FFFFFF; stroke-width:0.0212; stroke-opacity:1; 
stroke-linecap:round; stroke-linejoin:round;">
</g>
<g style="fill:#FFFFFF; fill-opacity:1.0000; 
stroke:#FFFFFF; stroke-width:0.0000; stroke-opacity:1; 
stroke-linecap:round; stroke-linejoin:round;">
<circle cx="86.9000" cy="72.0000" r="0.2000" /> 
</g>
<g style="fill:#FFFFFF; fill-opacity:1.0000; 
stroke:#FFFFFF; stroke-width:0.0212; stroke-opacity:1; 
stroke-linecap:round; stroke-linejoin:round;">
</g>
<g style="fill:#FFFFFF; fill-opacity:1.0000; 
stroke:#FFFFFF; stroke-width:0.0000; stroke-opacity:1; 
stroke-linecap:round; stroke-linejoin:round;">
<circle cx="87.9100" cy="61.8200" r="0.2000" /> 
</g>
<g style="fill:#FFFFFF; fill-opacity:1.0000; 
stroke:#FFFFFF; stroke-width:0.0212; stroke-opacity:1; 
stroke-linecap:round; stroke-linejoin:round;">
</g>
<g style="fill:#FFFFFF; fill-opacity:1.0000; 
stroke:#FFFFFF; stroke-width:0.0000; stroke-opacity:1; 
stroke-linecap:round; stroke-linejoin:round;">
<circle cx="68.0000" cy="48.0000" r="1.1000" /> 
</g>
<g style="fill:#FFFFFF; fill-opacity:1.0000; 
stroke:#FFFFFF; stroke-width:0.0212; stroke-opacity:1; 
stroke-linecap:round; stroke-linejoin:round;">
</g>
<g style="fill:#FFFFFF; fill-opacity:1.0000; 
stroke:#FFFFFF; stroke-width:0.0000; stroke-opacity:1; 
stroke-linecap:round; stroke-linejoin:round;">
<circle cx="92.0000" cy="48.0000" r="1.1000" /> 
</g>
<g style="fill:#FFFFFF; fill-opacity:1.0000; 
stroke:#FFFFFF; stroke-width:0.0212; stroke-opacity:1; 
stroke-linecap:round; stroke-linejoin:round;">
</g>
<g style="fill:#FFFFFF; fill-opacity:1.0000; 
stroke:#FFFFFF; stroke-width:0.0000; stroke-opacity:1; 
stroke-linecap:round; stroke-linejoin:round;">
<circle cx="68.0000" cy="72.0000" r="1.1000" /> 
</g>
<g style="fill:#FFFFFF; fill-opacity:1.0000; 
stroke:#FFFFFF; stroke-width:0.0212; stroke-opacity:1; 
stroke-linecap:round; stroke-linejoin:round;">
</g>
<g style="fill:#000000; fill-opacity:1.0000; 
stroke:#000000; stroke-width:0.0212; stroke-opacity:1; 
stroke-linecap:round; stroke-linejoin:round;">
</g> 
</svg>
