<!DOCTYPE svg PUBLIC "-//W3C//DTD SVG 1.1//EN" "http://www.w3.org/Graphics/SVG/1.1/DTD/svg11.dtd">
<svg xmlns="http://www.w3.org/2000/svg" version="1.1" width="28.1mm" height="28.1mm" viewBox="-94.05 45.95 28.10000000000001 28.10000000000001">
            <title>Picture generated by PcbDraw </title>
            <desc>Picture generated by PcbDraw</desc>
        <defs><clipPath id="cut-off"><path d=" M 80.0000 60.0000 m-6.1000 0 a 6.1000 6.1000 0 1 0 12.2 0 a 6.1000 6.1000 0 1 0 -12.2 0  M 67.0 74.0 L 93.0 74.0 A 1 1 0 0 0 94.0 73.0 L 94.0 47.0 A 1 1 0 0 0 93.0 46.0 L 67.0 46.0 A 1 1 0 0 0 66.0 47.0 L 66.0 73.0 A 1 1 0 0 0 67.0 74.0 " style="fill-rule: evenodd;"/></clipPath><mask id="pads-mask"><g style="fill:#ffffff; fill-opacity:0.0;  stroke:#ffffff; stroke-width:0.0000; stroke-opacity:1;  stroke-linecap:round; stroke-linejoin:round;">
<g style="fill:#ffffff; fill-opacity:1.0000;  stroke:#ffffff; stroke-width:0.0000; stroke-opacity:1;  stroke-linecap:round; stroke-linejoin:round;">
<path style="fill:#ffffff; fill-opacity:1.0000;  stroke:#ffffff; stroke-width:0.0000; stroke-opacity:1;  stroke-linecap:round; stroke-linejoin:round;fill-rule:evenodd;" d="M 92.5000,58.2500 91.5000,58.2500 91.5000,55.5000 92.5000,55.5000 Z"/> 
<path style="fill:#ffffff; fill-opacity:1.0000;  stroke:#ffffff; stroke-width:0.0000; stroke-opacity:1;  stroke-linecap:round; stroke-linejoin:round;fill-rule:evenodd;" d="M 92.5000,64.5000 91.5000,64.5000 91.5000,61.7500 92.5000,61.7500 Z"/> 
<path style="fill:#ffffff; fill-opacity:1.0000;  stroke:#ffffff; stroke-width:0.0000; stroke-opacity:1;  stroke-linecap:round; stroke-linejoin:round;fill-rule:evenodd;" d="M 90.5000,58.2500 89.5000,58.2500 89.5000,55.5000 90.5000,55.5000 Z"/> 
<path style="fill:#ffffff; fill-opacity:1.0000;  stroke:#ffffff; stroke-width:0.0000; stroke-opacity:1;  stroke-linecap:round; stroke-linejoin:round;fill-rule:evenodd;" d="M 90.5000,64.5000 89.5000,64.5000 89.5000,61.7500 90.5000,61.7500 Z"/> 
</g>
</g> 
</mask><mask id="pads-mask-silkscreen"><rect x="65.95" y="45.95" width="28.1" height="28.1" fill="white"/><g style="fill:#000000; fill-opacity:0.0;  stroke:#000000; stroke-width:0.0000; stroke-opacity:1;  stroke-linecap:round; stroke-linejoin:round;">
<g style="fill:#000000; fill-opacity:1.0000;  stroke:#000000; stroke-width:0.0000; stroke-opacity:1;  stroke-linecap:round; stroke-linejoin:round;">
<path style="fill:#000000; fill-opacity:1.0000;  stroke:#000000; stroke-width:0.0000; stroke-opacity:1;  stroke-linecap:round; stroke-linejoin:round;fill-rule:evenodd;" d="M 92.5000,58.2500 91.5000,58.2500 91.5000,55.5000 92.5000,55.5000 Z"/> 
<path style="fill:#000000; fill-opacity:1.0000;  stroke:#000000; stroke-width:0.0000; stroke-opacity:1;  stroke-linecap:round; stroke-linejoin:round;fill-rule:evenodd;" d="M 92.5000,64.5000 91.5000,64.5000 91.5000,61.7500 92.5000,61.7500 Z"/> 
<path style="fill:#000000; fill-opacity:1.0000;  stroke:#000000; stroke-width:0.0000; stroke-opacity:1;  stroke-linecap:round; stroke-linejoin:round;fill-rule:evenodd;" d="M 90.5000,58.2500 89.5000,58.2500 89.5000,55.5000 90.5000,55.5000 Z"/> 
<path style="fill:#000000; fill-opacity:1.0000;  stroke:#000000; stroke-width:0.0000; stroke-opacity:1;  stroke-linecap:round; stroke-linejoin:round;fill-rule:evenodd;" d="M 90.5000,64.5000 89.5000,64.5000 89.5000,61.7500 90.5000,61.7500 Z"/> 
</g>
</g> 
</mask><mask id="hole-mask"><g><rect x="65.95" y="45.95" fill="white" width="28.1" height="28.1"/><polyline stroke-linecap="round" stroke="black" stroke-width="0.4" points="-0.0 0 0.0 0" transform="translate(89.5 61.1) rotate(-0.0)"/><polyline stroke-linecap="round" stroke="black" stroke-width="0.4" points="-0.0 0 0.0 0" transform="translate(88.1 63.1) rotate(-0.0)"/><polyline stroke-linecap="round" stroke="black" stroke-width="0.4" points="-0.0 0 0.0 0" transform="translate(89.726279 65.15359) rotate(-0.0)"/><polyline stroke-linecap="round" stroke="black" stroke-width="0.4" points="-0.0 0 0.0 0" transform="translate(69.0 60.4) rotate(-0.0)"/><polyline stroke-linecap="round" stroke="black" stroke-width="0.4" points="-0.0 0 0.0 0" transform="translate(80.4 71.0) rotate(-0.0)"/><polyline stroke-linecap="round" stroke="black" stroke-width="0.4" points="-0.0 0 0.0 0" transform="translate(85.15359 50.273721) rotate(-0.0)"/><polyline stroke-linecap="round" stroke="black" stroke-width="0.4" points="-0.0 0 0.0 0" transform="translate(74.15359 50.673721) rotate(-0.0)"/><polyline stroke-linecap="round" stroke="black" stroke-width="0.4" points="-0.0 0 0.0 0" transform="translate(79.6 49.0) rotate(-0.0)"/><polyline stroke-linecap="round" stroke="black" stroke-width="0.4" points="-0.0 0 0.0 0" transform="translate(70.273721 54.84641) rotate(-0.0)"/><polyline stroke-linecap="round" stroke="black" stroke-width="0.4" points="-0.0 0 0.0 0" transform="translate(89.326279 54.15359) rotate(-0.0)"/><polyline stroke-linecap="round" stroke="black" stroke-width="0.4" points="-0.0 0 0.0 0" transform="translate(85.84641 69.326279) rotate(-0.0)"/><polyline stroke-linecap="round" stroke="black" stroke-width="0.4" points="-0.0 0 0.0 0" transform="translate(74.84641 69.726279) rotate(-0.0)"/><polyline stroke-linecap="round" stroke="black" stroke-width="0.4" points="-0.0 0 0.0 0" transform="translate(91.0 59.6) rotate(-0.0)"/><polyline stroke-linecap="round" stroke="black" stroke-width="0.4" points="-0.0 0 0.0 0" transform="translate(70.673721 65.84641) rotate(-0.0)"/><polyline stroke-linecap="round" stroke="black" stroke-width="0.4" points="-0.0 0 0.0 0" transform="translate(92.0 65.0) rotate(-0.0)"/><polyline stroke-linecap="round" stroke="black" stroke-width="0.4" points="-0.0 0 0.0 0" transform="translate(93.0 61.2) rotate(-0.0)"/><polyline stroke-linecap="round" stroke="black" stroke-width="0.4" points="-0.0 0 0.0 0" transform="translate(93.0 62.6) rotate(-0.0)"/><polyline stroke-linecap="round" stroke="black" stroke-width="0.4" points="-0.0 0 0.0 0" transform="translate(93.0 65.0) rotate(-0.0)"/><polyline stroke-linecap="round" stroke="black" stroke-width="0.4" points="-0.0 0 0.0 0" transform="translate(93.0 63.8) rotate(-0.0)"/><polyline stroke-linecap="round" stroke="black" stroke-width="0.4" points="-0.0 0 0.0 0" transform="translate(92.0 61.2) rotate(-0.0)"/></g></mask></defs><g transform="scale(-1,1)" id="boardContainer"><g id="substrate" clip-path="url(#cut-off)" mask="url(#hole-mask)"><g id="substrate-board" style="fill:#285e3a; stroke:#285e3a;"><path d=" M 80.0000 60.0000 m-6.1000 0 a 6.1000 6.1000 0 1 0 12.2 0 a 6.1000 6.1000 0 1 0 -12.2 0  M 67.0 74.0 L 93.0 74.0 A 1 1 0 0 0 94.0 73.0 L 94.0 47.0 A 1 1 0 0 0 93.0 46.0 L 67.0 46.0 A 1 1 0 0 0 66.0 47.0 L 66.0 73.0 A 1 1 0 0 0 67.0 74.0 " style="fill-rule: evenodd;"/><g style="fill-opacity: 0.0;stroke-width: 0.1000;stroke-opacity: 1;stroke-linecap: round;stroke-linejoin: round">
<path d="M66.0000 73.0000 A1.0000 1.0000 0.0 0 0 67.0000 74.0000"/>
<circle cx="80.0000" cy="60.0000" r="6.1000"/> 
<path d="M94.0000 47.0000 L94.0000 73.0000 "/>
<path d="M66.0000 73.0000 L66.0000 47.0000 "/>
<path d="M93.0000 74.0000 A1.0000 1.0000 0.0 0 0 94.0000 73.0000"/>
<path d="M67.0000 46.0000 L93.0000 46.0000 "/>
<path d="M93.0000 74.0000 L67.0000 74.0000 "/>
<path d="M67.0000 46.0000 A1.0000 1.0000 0.0 0 0 66.0000 47.0000"/>
<path d="M94.0000 47.0000 A1.0000 1.0000 0.0 0 0 93.0000 46.0000"/>
</g> 
</g><g id="substrate-clad" style="fill:#9c6b28; stroke:#9c6b28;"><g style="fill-opacity: 0.0;stroke-width: 0.0000;stroke-opacity: 1;stroke-linecap: round;stroke-linejoin: round">
<g style="fill-opacity: 1.0000;stroke-width: 0.0000;stroke-opacity: 1;stroke-linecap: round;stroke-linejoin: round">
<path style="fill-opacity: 1.0000;stroke-width: 0.0000;stroke-opacity: 1;stroke-linecap: round;stroke-linejoin: round;fill-rule: evenodd" d="M 92.5000,58.2500 91.5000,58.2500 91.5000,55.5000 92.5000,55.5000 Z"/> 
<path style="fill-opacity: 1.0000;stroke-width: 0.0000;stroke-opacity: 1;stroke-linecap: round;stroke-linejoin: round;fill-rule: evenodd" d="M 92.5000,64.5000 91.5000,64.5000 91.5000,61.7500 92.5000,61.7500 Z"/> 
<path style="fill-opacity: 1.0000;stroke-width: 0.0000;stroke-opacity: 1;stroke-linecap: round;stroke-linejoin: round;fill-rule: evenodd" d="M 90.5000,58.2500 89.5000,58.2500 89.5000,55.5000 90.5000,55.5000 Z"/> 
<path style="fill-opacity: 1.0000;stroke-width: 0.0000;stroke-opacity: 1;stroke-linecap: round;stroke-linejoin: round;fill-rule: evenodd" d="M 90.5000,64.5000 89.5000,64.5000 89.5000,61.7500 90.5000,61.7500 Z"/> 
</g>
</g> 
</g><g id="substrate-copper" style="fill:#208b47; stroke:#208b47;"><g style="fill-opacity: 0.0;stroke-width: 0.0000;stroke-opacity: 1;stroke-linecap: round;stroke-linejoin: round">
<g style="fill-opacity: 1.0000;stroke-width: 0.0000;stroke-opacity: 1;stroke-linecap: round;stroke-linejoin: round">
<path style="fill-opacity: 1.0000;stroke-width: 0.0000;stroke-opacity: 1;stroke-linecap: round;stroke-linejoin: round;fill-rule: evenodd" d="M 92.5000,58.2500 91.5000,58.2500 91.5000,55.5000 92.5000,55.5000 Z"/> 
<path style="fill-opacity: 1.0000;stroke-width: 0.0000;stroke-opacity: 1;stroke-linecap: round;stroke-linejoin: round;fill-rule: evenodd" d="M 92.5000,64.5000 91.5000,64.5000 91.5000,61.7500 92.5000,61.7500 Z"/> 
<path style="fill-opacity: 1.0000;stroke-width: 0.0000;stroke-opacity: 1;stroke-linecap: round;stroke-linejoin: round;fill-rule: evenodd" d="M 90.5000,58.2500 89.5000,58.2500 89.5000,55.5000 90.5000,55.5000 Z"/> 
<path style="fill-opacity: 1.0000;stroke-width: 0.0000;stroke-opacity: 1;stroke-linecap: round;stroke-linejoin: round;fill-rule: evenodd" d="M 90.5000,64.5000 89.5000,64.5000 89.5000,61.7500 90.5000,61.7500 Z"/> 
</g>
<g style="fill-opacity: 1.0000;stroke-width: 0.0000;stroke-opacity: 1;stroke-linecap: round;stroke-linejoin: round">
<circle cx="89.5000" cy="61.1000" r="0.4000"/> 
</g>
<g style="fill-opacity: 1.0000;stroke-width: 0.0000;stroke-opacity: 1;stroke-linecap: round;stroke-linejoin: round">
<circle cx="88.1000" cy="63.1000" r="0.4000"/> 
</g>
<g style="fill-opacity: 1.0000;stroke-width: 0.0000;stroke-opacity: 1;stroke-linecap: round;stroke-linejoin: round">
<circle cx="89.7263" cy="65.1536" r="0.4000"/> 
</g>
<g style="fill-opacity: 1.0000;stroke-width: 0.0000;stroke-opacity: 1;stroke-linecap: round;stroke-linejoin: round">
<circle cx="69.0000" cy="60.4000" r="0.4000"/> 
</g>
<g style="fill-opacity: 1.0000;stroke-width: 0.0000;stroke-opacity: 1;stroke-linecap: round;stroke-linejoin: round">
<circle cx="80.4000" cy="71.0000" r="0.4000"/> 
</g>
<g style="fill-opacity: 1.0000;stroke-width: 0.0000;stroke-opacity: 1;stroke-linecap: round;stroke-linejoin: round">
<circle cx="85.1536" cy="50.2737" r="0.4000"/> 
</g>
<g style="fill-opacity: 1.0000;stroke-width: 0.0000;stroke-opacity: 1;stroke-linecap: round;stroke-linejoin: round">
<circle cx="74.1536" cy="50.6737" r="0.4000"/> 
</g>
<g style="fill-opacity: 1.0000;stroke-width: 0.0000;stroke-opacity: 1;stroke-linecap: round;stroke-linejoin: round">
<circle cx="79.6000" cy="49.0000" r="0.4000"/> 
</g>
<g style="fill-opacity: 1.0000;stroke-width: 0.0000;stroke-opacity: 1;stroke-linecap: round;stroke-linejoin: round">
<circle cx="70.2737" cy="54.8464" r="0.4000"/> 
</g>
<g style="fill-opacity: 1.0000;stroke-width: 0.0000;stroke-opacity: 1;stroke-linecap: round;stroke-linejoin: round">
<circle cx="89.3263" cy="54.1536" r="0.4000"/> 
</g>
<g style="fill-opacity: 1.0000;stroke-width: 0.0000;stroke-opacity: 1;stroke-linecap: round;stroke-linejoin: round">
<circle cx="85.8464" cy="69.3263" r="0.4000"/> 
</g>
<g style="fill-opacity: 1.0000;stroke-width: 0.0000;stroke-opacity: 1;stroke-linecap: round;stroke-linejoin: round">
<circle cx="74.8464" cy="69.7263" r="0.4000"/> 
</g>
<g style="fill-opacity: 1.0000;stroke-width: 0.0000;stroke-opacity: 1;stroke-linecap: round;stroke-linejoin: round">
<circle cx="91.0000" cy="59.6000" r="0.4000"/> 
</g>
<g style="fill-opacity: 1.0000;stroke-width: 0.0000;stroke-opacity: 1;stroke-linecap: round;stroke-linejoin: round">
<circle cx="70.6737" cy="65.8464" r="0.4000"/> 
</g>
<g style="fill-opacity: 1.0000;stroke-width: 0.0000;stroke-opacity: 1;stroke-linecap: round;stroke-linejoin: round">
<circle cx="92.0000" cy="65.0000" r="0.4000"/> 
</g>
<g style="fill-opacity: 1.0000;stroke-width: 0.0000;stroke-opacity: 1;stroke-linecap: round;stroke-linejoin: round">
<circle cx="93.0000" cy="61.2000" r="0.4000"/> 
</g>
<g style="fill-opacity: 1.0000;stroke-width: 0.0000;stroke-opacity: 1;stroke-linecap: round;stroke-linejoin: round">
<circle cx="93.0000" cy="62.6000" r="0.4000"/> 
</g>
<g style="fill-opacity: 1.0000;stroke-width: 0.0000;stroke-opacity: 1;stroke-linecap: round;stroke-linejoin: round">
<circle cx="93.0000" cy="65.0000" r="0.4000"/> 
</g>
<g style="fill-opacity: 1.0000;stroke-width: 0.0000;stroke-opacity: 1;stroke-linecap: round;stroke-linejoin: round">
<circle cx="93.0000" cy="63.8000" r="0.4000"/> 
</g>
<g style="fill-opacity: 1.0000;stroke-width: 0.0000;stroke-opacity: 1;stroke-linecap: round;stroke-linejoin: round">
<circle cx="92.0000" cy="61.2000" r="0.4000"/> 
</g>
<g style="fill-opacity: 0.0;stroke-width: 0.2500;stroke-opacity: 1;stroke-linecap: round;stroke-linejoin: round">
<path d="M90.0000 60.6705 L90.0000 56.8750 "/>
<path d="M89.5000 61.1705 L90.0000 60.6705 "/>
<path d="M88.1000 63.1000 L89.9750 63.1000 "/>
<path d="M93.0000 65.0000 L93.0000 61.2000 "/>
<path d="M93.0000 62.6000 L92.5250 62.6000 "/>
<path d="M92.6750 63.8000 L92.0000 63.1250 "/>
<path d="M93.0000 63.8000 L92.6750 63.8000 "/>
<path d="M92.0000 63.1250 L92.0000 65.0000 "/>
<path d="M92.0000 65.0000 L93.0000 65.0000 "/>
<path d="M92.5250 62.6000 L92.0000 63.1250 "/>
<path d="M93.0000 61.2000 L92.0000 61.2000 "/>
<path d="M92.0000 61.2000 L92.0000 63.1250 "/>
</g>
<g style="fill-opacity: 0.0;stroke-width: 0.2500;stroke-opacity: 1;stroke-linecap: round;stroke-linejoin: round">
<g style="fill-opacity: 1.0000;stroke-width: 0.0000;stroke-opacity: 1;stroke-linecap: round;stroke-linejoin: round">
<path style="fill-opacity: 1.0000;stroke-width: 0.0000;stroke-opacity: 1;stroke-linecap: round;stroke-linejoin: round;fill-rule: evenodd" d="M 93.0027,46.0007 93.0455,46.0045 93.1718,46.0169 93.1917,46.0205 93.2574,46.0382 93.2592,46.0387 93.3516,46.0667 93.3680,46.0730 93.4354,46.1044 93.4384,46.1059 93.4760,46.1260 93.5223,46.1508 93.5287,46.1547 93.5948,46.2010 93.5986,46.2038 93.6708,46.2631 93.6753,46.2672 93.7328,46.3247 93.7369,46.3292 93.7962,46.4014 93.7990,46.4052 93.8453,46.4713 93.8492,46.4777 93.8941,46.5616 93.8956,46.5646 93.9270,46.6320 93.9333,46.6484 93.9613,46.7407 93.9619,46.7426 93.9795,46.8083 93.9831,46.8282 93.9955,46.9546 93.9993,46.9973 93.9995,47.0027 93.9995,72.9973 93.9993,73.0027 93.9955,73.0454 93.9831,73.1718 93.9795,73.1917 93.9619,73.2574 93.9613,73.2593 93.9333,73.3516 93.9270,73.3680 93.8956,73.4354 93.8941,73.4384 93.8492,73.5223 93.8453,73.5287 93.7990,73.5948 93.7962,73.5986 93.7369,73.6708 93.7328,73.6753 93.6753,73.7328 93.6708,73.7369 93.5986,73.7962 93.5948,73.7990 93.5287,73.8453 93.5223,73.8492 93.4384,73.8941 93.4354,73.8956 93.3680,73.9270 93.3516,73.9333 93.2593,73.9613 93.2574,73.9619 93.1917,73.9795 93.1718,73.9831 93.0454,73.9955 93.0073,73.9989 93.0027,73.9993 92.9973,73.9995 67.0027,73.9995 66.9973,73.9993 66.9923,73.9988 66.9546,73.9955 66.8282,73.9831 66.8083,73.9795 66.7426,73.9619 66.7407,73.9613 66.7031,73.9499 66.6484,73.9333 66.6320,73.9270 66.5646,73.8956 66.5616,73.8941 66.4777,73.8492 66.4713,73.8453 66.4052,73.7990 66.4014,73.7962 66.3292,73.7369 66.3247,73.7328 66.2672,73.6753 66.2631,73.6708 66.2038,73.5986 66.2010,73.5948 66.1547,73.5287 66.1508,73.5223 66.1260,73.4760 66.1059,73.4384 66.1044,73.4354 66.0730,73.3680 66.0667,73.3516 66.0387,73.2592 66.0382,73.2574 66.0205,73.1917 66.0169,73.1718 66.0045,73.0454 66.0007,73.0027 66.0005,72.9973 66.0005,60.0000 73.8945,60.0000 73.9143,60.4913 73.9143,60.4913 73.9736,60.9794 74.0720,61.4611 74.2088,61.9334 74.3831,62.3931 74.5580,62.7617 74.5740,62.7955 74.5939,62.8374 74.8397,63.2632 74.8397,63.2632 74.8656,63.3006 75.1020,63.6432 75.1190,63.6678 75.4300,64.0486 75.4300,64.0487 75.7706,64.4033 75.7706,64.4033 76.1386,64.7293 76.2397,64.8052 76.5317,65.0247 76.9473,65.2875 76.9473,65.2875 76.9473,65.2875 76.9798,65.3045 77.3826,65.5160 77.8350,65.7087 78.3014,65.8644 78.7788,65.9821 78.7788,65.9821 78.7788,65.9821 79.2277,66.0550 79.2641,66.0609 79.7542,66.1005 79.7542,66.1005 80.2458,66.1005 80.2458,66.1005 80.7359,66.0609 80.8845,66.0368 81.2212,65.9821 81.2212,65.9821 81.2212,65.9821 81.6986,65.8644 82.1650,65.7087 82.6174,65.5160 83.0527,65.2875 83.4683,65.0247 83.8614,64.7293 83.8614,64.7293 83.8614,64.7293 84.2294,64.4033 84.2294,64.4033 84.2294,64.4033 84.5700,64.0487 84.8810,63.6678 85.1603,63.2632 85.2545,63.1000 87.4447,63.1000 87.4638,63.2568 87.4804,63.3006 87.5198,63.4045 87.6095,63.5345 87.7278,63.6393 87.7278,63.6393 87.8676,63.7127 88.0210,63.7505 88.0210,63.7505 88.1790,63.7505 88.3324,63.7127 88.4179,63.6678 88.4722,63.6393 88.5905,63.5345 88.5943,63.5291 88.6485,63.4851 88.6963,63.4755 89.1255,63.4755 89.1925,63.4952 89.2383,63.5480 89.2495,63.5995 89.2495,64.5247 89.2640,64.5977 89.2640,64.5977 89.2640,64.5977 89.3194,64.6806 89.3923,64.7293 89.4023,64.7360 89.4023,64.7360 89.4753,64.7505 89.4753,64.7505 89.4753,64.7505 90.5247,64.7505 90.5247,64.7505 90.5977,64.7360 90.6806,64.6806 90.7360,64.5977 90.7505,64.5247 91.2495,64.5247 91.2495,64.5247 91.2640,64.5977 91.2640,64.5977 91.2640,64.5977 91.3194,64.6806 91.3219,64.6823 91.3262,64.6875 91.3280,64.6892 91.3279,64.6894 91.3668,64.7359 91.3755,64.8052 91.3690,64.8294 91.3638,64.8432 91.3638,64.8432 91.3447,65.0000 91.3447,65.0000 91.3638,65.1568 91.4114,65.2823 91.4198,65.3045 91.5095,65.4345 91.6278,65.5393 91.6278,65.5393 91.7676,65.6127 91.9210,65.6505 91.9210,65.6505 92.0790,65.6505 92.2324,65.6127 92.3722,65.5393 92.3722,65.5393 92.3722,65.5393 92.4178,65.4989 92.4810,65.4692 92.5503,65.4784 92.5822,65.4989 92.6278,65.5393 92.6278,65.5393 92.7676,65.6127 92.9210,65.6505 92.9210,65.6505 93.0790,65.6505 93.2324,65.6127 93.2324,65.6127 93.3722,65.5393 93.4905,65.4345 93.5802,65.3045 93.6362,65.1568 93.6553,65.0000 93.6362,64.8432 93.5802,64.6955 93.4905,64.5655 93.4905,64.5655 93.4173,64.5006 93.3801,64.4414 93.3755,64.4078 93.3755,64.3922 93.3952,64.3252 93.4173,64.2994 93.4905,64.2345 93.4905,64.2345 93.5802,64.1045 93.6362,63.9568 93.6553,63.8000 93.6447,63.7127 93.6362,63.6432 93.6001,63.5480 93.5802,63.4955 93.4905,63.3655 93.4905,63.3655 93.4173,63.3006 93.3801,63.2414 93.3755,63.2078 93.3755,63.1922 93.3952,63.1252 93.4173,63.0994 93.4905,63.0345 93.4905,63.0345 93.5802,62.9045 93.6362,62.7568 93.6553,62.6000 93.6362,62.4432 93.5802,62.2955 93.4905,62.1655 93.4905,62.1655 93.4173,62.1006 93.3801,62.0414 93.3755,62.0078 93.3755,61.7922 93.3952,61.7252 93.4173,61.6994 93.4905,61.6345 93.4905,61.6345 93.5802,61.5045 93.6362,61.3568 93.6553,61.2000 93.6362,61.0432 93.5802,60.8955 93.4905,60.7655 93.3722,60.6607 93.3722,60.6607 93.3722,60.6607 93.2324,60.5873 93.0790,60.5495 93.0790,60.5495 92.9210,60.5495 92.9210,60.5495 92.7676,60.5873 92.6278,60.6607 92.6278,60.6607 92.5822,60.7011 92.5190,60.7308 92.4497,60.7216 92.4178,60.7011 92.3722,60.6607 92.3722,60.6607 92.2324,60.5873 92.0790,60.5495 92.0790,60.5495 91.9210,60.5495 91.9210,60.5495 91.7676,60.5873 91.6278,60.6607 91.5095,60.7655 91.4198,60.8955 91.4198,60.8955 91.3638,61.0432 91.3447,61.2000 91.3447,61.2000 91.3638,61.3568 91.3841,61.4105 91.3895,61.4802 91.3563,61.5417 91.3371,61.5576 91.3194,61.5694 91.2640,61.6523 91.2640,61.6523 91.2495,61.7253 91.2495,61.7253 91.2495,64.5247 90.7505,64.5247 90.7505,64.5247 90.7505,61.7253 90.7505,61.7253 90.7505,61.7253 90.7360,61.6523 90.7360,61.6523 90.7241,61.6345 90.6806,61.5694 90.5977,61.5140 90.5977,61.5140 90.5977,61.5140 90.5247,61.4995 90.5247,61.4995 90.2238,61.4995 90.1568,61.4798 90.1111,61.4270 90.1011,61.3579 90.1079,61.3315 90.1101,61.3256 90.1362,61.2568 90.1553,61.1000 90.1553,61.1000 90.1553,61.0976 90.1558,61.0959 90.1562,61.0926 90.1567,61.0926 90.1750,61.0306 90.1916,61.0099 90.1916,61.0099 90.2289,60.9726 90.2487,60.9565 90.2578,60.9506 90.2796,60.9226 90.2847,60.9168 90.2875,60.9140 90.3004,60.8960 90.3019,60.8940 90.3348,60.8517 90.3385,60.8448 90.3420,60.8377 90.3420,60.8377 90.3573,60.7863 90.3581,60.7839 90.3755,60.7332 90.3755,60.7332 90.3768,60.7254 90.3778,60.7176 90.3756,60.6640 90.3755,60.6615 90.3755,58.6245 90.3952,58.5575 90.4480,58.5117 90.4995,58.5005 90.5247,58.5005 90.5247,58.5005 90.5977,58.4860 90.6806,58.4306 90.7360,58.3477 90.7505,58.2747 90.7505,57.1250 91.0000,57.1250 91.0000,58.2978 91.0064,58.3574 91.0064,58.3574 91.0566,58.4921 91.0566,58.4921 91.1428,58.6072 91.1428,58.6072 91.2579,58.6933 91.2579,58.6934 91.3926,58.7436 91.3926,58.7436 91.4522,58.7500 91.4522,58.7500 91.7500,58.7500 91.7500,57.1250 92.2500,57.1250 92.2500,58.7500 92.5478,58.7500 92.5478,58.7500 92.6074,58.7436 92.6074,58.7436 92.7421,58.6934 92.7421,58.6933 92.8572,58.6072 92.8572,58.6072 92.9433,58.4921 92.9434,58.4921 92.9936,58.3574 92.9936,58.3574 93.0000,58.2978 93.0000,58.2978 93.0000,57.1250 92.2500,57.1250 91.7500,57.1250 91.0000,57.1250 90.7505,57.1250 90.7505,56.6250 91.0000,56.6250 91.7500,56.6250 91.7500,55.0000 92.2500,55.0000 92.2500,56.6250 93.0000,56.6250 93.0000,55.4522 93.0000,55.4522 92.9936,55.3926 92.9936,55.3926 92.9434,55.2579 92.9433,55.2579 92.8572,55.1428 92.8572,55.1428 92.7421,55.0566 92.7421,55.0566 92.6074,55.0064 92.6074,55.0064 92.5478,55.0000 92.2500,55.0000 91.7500,55.0000 91.4522,55.0000 91.3926,55.0064 91.3926,55.0064 91.2579,55.0566 91.2579,55.0566 91.1428,55.1428 91.1428,55.1428 91.0566,55.2579 91.0566,55.2579 91.0064,55.3926 91.0064,55.3926 91.0000,55.4522 91.0000,56.6250 90.7505,56.6250 90.7505,55.4753 90.7505,55.4753 90.7505,55.4753 90.7505,55.4753 90.7360,55.4023 90.7360,55.4023 90.7360,55.4023 90.6806,55.3194 90.5977,55.2640 90.5977,55.2640 90.5977,55.2640 90.5247,55.2495 90.5247,55.2495 89.4753,55.2495 89.4753,55.2495 89.4023,55.2640 89.4023,55.2640 89.3194,55.3194 89.2640,55.4023 89.2640,55.4023 89.2495,55.4753 89.2495,55.4753 89.2495,58.2747 89.2495,58.2747 89.2640,58.3477 89.2640,58.3477 89.2640,58.3477 89.3194,58.4306 89.4023,58.4860 89.4023,58.4860 89.4753,58.5005 89.4753,58.5005 89.4753,58.5005 89.5005,58.5005 89.5675,58.5202 89.6133,58.5730 89.6245,58.6245 89.6245,60.3255 89.6048,60.3925 89.5520,60.4383 89.5005,60.4495 89.4210,60.4495 89.2676,60.4873 89.1278,60.5607 89.1278,60.5607 89.1278,60.5607 89.0149,60.6607 89.0095,60.6655 88.9198,60.7955 88.9198,60.7955 88.8638,60.9432 88.8447,61.1000 88.8447,61.1000 88.8638,61.2568 88.8921,61.3315 88.9198,61.4045 89.0095,61.5345 89.1278,61.6393 89.1831,61.6683 89.2333,61.7169 89.2495,61.7781 89.2495,62.6005 89.2298,62.6675 89.1770,62.7133 89.1255,62.7245 88.6963,62.7245 88.6293,62.7048 88.5943,62.6709 88.5905,62.6655 88.4722,62.5607 88.4722,62.5607 88.4722,62.5607 88.3324,62.4873 88.1790,62.4495 88.1790,62.4495 88.0210,62.4495 88.0210,62.4495 87.8676,62.4873 87.7278,62.5607 87.6095,62.6655 87.5198,62.7955 87.5198,62.7955 87.4638,62.9432 87.4447,63.1000 87.4447,63.1000 85.2545,63.1000 85.4061,62.8373 85.6169,62.3931 85.7912,61.9334 85.9280,61.4611 86.0264,60.9794 86.0857,60.4913 86.0857,60.4913 86.1055,60.0000 86.1055,60.0000 86.0857,59.5087 86.0857,59.5087 86.0857,59.5087 86.0264,59.0206 85.9280,58.5389 85.8967,58.4306 85.7912,58.0666 85.7143,57.8636 85.6169,57.6069 85.4061,57.1627 85.1603,56.7368 85.1603,56.7368 85.1603,56.7368 84.8834,56.3358 84.8810,56.3322 84.8810,56.3322 84.8809,56.3322 84.5700,55.9513 84.5700,55.9513 84.2294,55.5967 84.2294,55.5967 83.8614,55.2707 83.6648,55.1230 83.4683,54.9753 83.0527,54.7125 83.0527,54.7125 83.0527,54.7125 82.6174,54.4840 82.4398,54.4084 82.1650,54.2913 82.1650,54.2913 82.1650,54.2913 81.9345,54.2144 81.6986,54.1356 81.6986,54.1356 81.6986,54.1356 81.5157,54.0905 81.2212,54.0179 81.2212,54.0179 81.2212,54.0179 81.2212,54.0179 80.7359,53.9391 80.2459,53.8995 80.2458,53.8995 79.7542,53.8995 79.7541,53.8995 79.2641,53.9391 78.7788,54.0179 78.7788,54.0179 78.7788,54.0179 78.7788,54.0179 78.7551,54.0238 78.3014,54.1356 78.3014,54.1356 77.8350,54.2913 77.8350,54.2913 77.8350,54.2913 77.7307,54.3357 77.3826,54.4840 76.9473,54.7125 76.5317,54.9753 76.5317,54.9753 76.1386,55.2707 75.7706,55.5967 75.7706,55.5967 75.4300,55.9513 75.4300,55.9513 75.1190,56.3322 74.8397,56.7368 74.8397,56.7368 74.5939,57.1626 74.3831,57.6069 74.2088,58.0666 74.0720,58.5389 73.9736,59.0206 73.9143,59.5087 73.9143,59.5087 73.8945,60.0000 73.8945,60.0000 66.0005,60.0000 66.0005,47.0027 66.0007,46.9973 66.0045,46.9546 66.0057,46.9418 66.0169,46.8282 66.0205,46.8083 66.0382,46.7425 66.0387,46.7408 66.0667,46.6484 66.0729,46.6320 66.1044,46.5646 66.1059,46.5617 66.1508,46.4777 66.1547,46.4713 66.1878,46.4239 66.2010,46.4052 66.2038,46.4014 66.2631,46.3292 66.2672,46.3247 66.3247,46.2672 66.3292,46.2631 66.4014,46.2038 66.4052,46.2010 66.4713,46.1547 66.4777,46.1508 66.5617,46.1059 66.5646,46.1044 66.6320,46.0729 66.6484,46.0667 66.7408,46.0387 66.7425,46.0382 66.8083,46.0205 66.8282,46.0169 66.9418,46.0057 66.9546,46.0045 66.9973,46.0007 67.0027,46.0005 92.9973,46.0005 Z"/> 
</g>
</g>
</g> 
</g><g id="substrate-pads" style="fill:#b5ae30; stroke:#b5ae30;" mask="url(#pads-mask)"><g style="fill-opacity: 0.0;stroke-width: 0.0000;stroke-opacity: 1;stroke-linecap: round;stroke-linejoin: round">
<g style="fill-opacity: 1.0000;stroke-width: 0.0000;stroke-opacity: 1;stroke-linecap: round;stroke-linejoin: round">
<path style="fill-opacity: 1.0000;stroke-width: 0.0000;stroke-opacity: 1;stroke-linecap: round;stroke-linejoin: round;fill-rule: evenodd" d="M 92.5000,58.2500 91.5000,58.2500 91.5000,55.5000 92.5000,55.5000 Z"/> 
<path style="fill-opacity: 1.0000;stroke-width: 0.0000;stroke-opacity: 1;stroke-linecap: round;stroke-linejoin: round;fill-rule: evenodd" d="M 92.5000,64.5000 91.5000,64.5000 91.5000,61.7500 92.5000,61.7500 Z"/> 
<path style="fill-opacity: 1.0000;stroke-width: 0.0000;stroke-opacity: 1;stroke-linecap: round;stroke-linejoin: round;fill-rule: evenodd" d="M 90.5000,58.2500 89.5000,58.2500 89.5000,55.5000 90.5000,55.5000 Z"/> 
<path style="fill-opacity: 1.0000;stroke-width: 0.0000;stroke-opacity: 1;stroke-linecap: round;stroke-linejoin: round;fill-rule: evenodd" d="M 90.5000,64.5000 89.5000,64.5000 89.5000,61.7500 90.5000,61.7500 Z"/> 
</g>
<g style="fill-opacity: 1.0000;stroke-width: 0.0000;stroke-opacity: 1;stroke-linecap: round;stroke-linejoin: round">
<circle cx="89.5000" cy="61.1000" r="0.4000"/> 
</g>
<g style="fill-opacity: 1.0000;stroke-width: 0.0000;stroke-opacity: 1;stroke-linecap: round;stroke-linejoin: round">
<circle cx="88.1000" cy="63.1000" r="0.4000"/> 
</g>
<g style="fill-opacity: 1.0000;stroke-width: 0.0000;stroke-opacity: 1;stroke-linecap: round;stroke-linejoin: round">
<circle cx="89.7263" cy="65.1536" r="0.4000"/> 
</g>
<g style="fill-opacity: 1.0000;stroke-width: 0.0000;stroke-opacity: 1;stroke-linecap: round;stroke-linejoin: round">
<circle cx="69.0000" cy="60.4000" r="0.4000"/> 
</g>
<g style="fill-opacity: 1.0000;stroke-width: 0.0000;stroke-opacity: 1;stroke-linecap: round;stroke-linejoin: round">
<circle cx="80.4000" cy="71.0000" r="0.4000"/> 
</g>
<g style="fill-opacity: 1.0000;stroke-width: 0.0000;stroke-opacity: 1;stroke-linecap: round;stroke-linejoin: round">
<circle cx="85.1536" cy="50.2737" r="0.4000"/> 
</g>
<g style="fill-opacity: 1.0000;stroke-width: 0.0000;stroke-opacity: 1;stroke-linecap: round;stroke-linejoin: round">
<circle cx="74.1536" cy="50.6737" r="0.4000"/> 
</g>
<g style="fill-opacity: 1.0000;stroke-width: 0.0000;stroke-opacity: 1;stroke-linecap: round;stroke-linejoin: round">
<circle cx="79.6000" cy="49.0000" r="0.4000"/> 
</g>
<g style="fill-opacity: 1.0000;stroke-width: 0.0000;stroke-opacity: 1;stroke-linecap: round;stroke-linejoin: round">
<circle cx="70.2737" cy="54.8464" r="0.4000"/> 
</g>
<g style="fill-opacity: 1.0000;stroke-width: 0.0000;stroke-opacity: 1;stroke-linecap: round;stroke-linejoin: round">
<circle cx="89.3263" cy="54.1536" r="0.4000"/> 
</g>
<g style="fill-opacity: 1.0000;stroke-width: 0.0000;stroke-opacity: 1;stroke-linecap: round;stroke-linejoin: round">
<circle cx="85.8464" cy="69.3263" r="0.4000"/> 
</g>
<g style="fill-opacity: 1.0000;stroke-width: 0.0000;stroke-opacity: 1;stroke-linecap: round;stroke-linejoin: round">
<circle cx="74.8464" cy="69.7263" r="0.4000"/> 
</g>
<g style="fill-opacity: 1.0000;stroke-width: 0.0000;stroke-opacity: 1;stroke-linecap: round;stroke-linejoin: round">
<circle cx="91.0000" cy="59.6000" r="0.4000"/> 
</g>
<g style="fill-opacity: 1.0000;stroke-width: 0.0000;stroke-opacity: 1;stroke-linecap: round;stroke-linejoin: round">
<circle cx="70.6737" cy="65.8464" r="0.4000"/> 
</g>
<g style="fill-opacity: 1.0000;stroke-width: 0.0000;stroke-opacity: 1;stroke-linecap: round;stroke-linejoin: round">
<circle cx="92.0000" cy="65.0000" r="0.4000"/> 
</g>
<g style="fill-opacity: 1.0000;stroke-width: 0.0000;stroke-opacity: 1;stroke-linecap: round;stroke-linejoin: round">
<circle cx="93.0000" cy="61.2000" r="0.4000"/> 
</g>
<g style="fill-opacity: 1.0000;stroke-width: 0.0000;stroke-opacity: 1;stroke-linecap: round;stroke-linejoin: round">
<circle cx="93.0000" cy="62.6000" r="0.4000"/> 
</g>
<g style="fill-opacity: 1.0000;stroke-width: 0.0000;stroke-opacity: 1;stroke-linecap: round;stroke-linejoin: round">
<circle cx="93.0000" cy="65.0000" r="0.4000"/> 
</g>
<g style="fill-opacity: 1.0000;stroke-width: 0.0000;stroke-opacity: 1;stroke-linecap: round;stroke-linejoin: round">
<circle cx="93.0000" cy="63.8000" r="0.4000"/> 
</g>
<g style="fill-opacity: 1.0000;stroke-width: 0.0000;stroke-opacity: 1;stroke-linecap: round;stroke-linejoin: round">
<circle cx="92.0000" cy="61.2000" r="0.4000"/> 
</g>
<g style="fill-opacity: 0.0;stroke-width: 0.2500;stroke-opacity: 1;stroke-linecap: round;stroke-linejoin: round">
<path d="M90.0000 60.6705 L90.0000 56.8750 "/>
<path d="M89.5000 61.1705 L90.0000 60.6705 "/>
<path d="M88.1000 63.1000 L89.9750 63.1000 "/>
<path d="M93.0000 65.0000 L93.0000 61.2000 "/>
<path d="M93.0000 62.6000 L92.5250 62.6000 "/>
<path d="M92.6750 63.8000 L92.0000 63.1250 "/>
<path d="M93.0000 63.8000 L92.6750 63.8000 "/>
<path d="M92.0000 63.1250 L92.0000 65.0000 "/>
<path d="M92.0000 65.0000 L93.0000 65.0000 "/>
<path d="M92.5250 62.6000 L92.0000 63.1250 "/>
<path d="M93.0000 61.2000 L92.0000 61.2000 "/>
<path d="M92.0000 61.2000 L92.0000 63.1250 "/>
</g>
<g style="fill-opacity: 0.0;stroke-width: 0.2500;stroke-opacity: 1;stroke-linecap: round;stroke-linejoin: round">
<g style="fill-opacity: 1.0000;stroke-width: 0.0000;stroke-opacity: 1;stroke-linecap: round;stroke-linejoin: round">
<path style="fill-opacity: 1.0000;stroke-width: 0.0000;stroke-opacity: 1;stroke-linecap: round;stroke-linejoin: round;fill-rule: evenodd" d="M 93.0027,46.0007 93.0455,46.0045 93.1718,46.0169 93.1917,46.0205 93.2574,46.0382 93.2592,46.0387 93.3516,46.0667 93.3680,46.0730 93.4354,46.1044 93.4384,46.1059 93.4760,46.1260 93.5223,46.1508 93.5287,46.1547 93.5948,46.2010 93.5986,46.2038 93.6708,46.2631 93.6753,46.2672 93.7328,46.3247 93.7369,46.3292 93.7962,46.4014 93.7990,46.4052 93.8453,46.4713 93.8492,46.4777 93.8941,46.5616 93.8956,46.5646 93.9270,46.6320 93.9333,46.6484 93.9613,46.7407 93.9619,46.7426 93.9795,46.8083 93.9831,46.8282 93.9955,46.9546 93.9993,46.9973 93.9995,47.0027 93.9995,72.9973 93.9993,73.0027 93.9955,73.0454 93.9831,73.1718 93.9795,73.1917 93.9619,73.2574 93.9613,73.2593 93.9333,73.3516 93.9270,73.3680 93.8956,73.4354 93.8941,73.4384 93.8492,73.5223 93.8453,73.5287 93.7990,73.5948 93.7962,73.5986 93.7369,73.6708 93.7328,73.6753 93.6753,73.7328 93.6708,73.7369 93.5986,73.7962 93.5948,73.7990 93.5287,73.8453 93.5223,73.8492 93.4384,73.8941 93.4354,73.8956 93.3680,73.9270 93.3516,73.9333 93.2593,73.9613 93.2574,73.9619 93.1917,73.9795 93.1718,73.9831 93.0454,73.9955 93.0073,73.9989 93.0027,73.9993 92.9973,73.9995 67.0027,73.9995 66.9973,73.9993 66.9923,73.9988 66.9546,73.9955 66.8282,73.9831 66.8083,73.9795 66.7426,73.9619 66.7407,73.9613 66.7031,73.9499 66.6484,73.9333 66.6320,73.9270 66.5646,73.8956 66.5616,73.8941 66.4777,73.8492 66.4713,73.8453 66.4052,73.7990 66.4014,73.7962 66.3292,73.7369 66.3247,73.7328 66.2672,73.6753 66.2631,73.6708 66.2038,73.5986 66.2010,73.5948 66.1547,73.5287 66.1508,73.5223 66.1260,73.4760 66.1059,73.4384 66.1044,73.4354 66.0730,73.3680 66.0667,73.3516 66.0387,73.2592 66.0382,73.2574 66.0205,73.1917 66.0169,73.1718 66.0045,73.0454 66.0007,73.0027 66.0005,72.9973 66.0005,60.0000 73.8945,60.0000 73.9143,60.4913 73.9143,60.4913 73.9736,60.9794 74.0720,61.4611 74.2088,61.9334 74.3831,62.3931 74.5580,62.7617 74.5740,62.7955 74.5939,62.8374 74.8397,63.2632 74.8397,63.2632 74.8656,63.3006 75.1020,63.6432 75.1190,63.6678 75.4300,64.0486 75.4300,64.0487 75.7706,64.4033 75.7706,64.4033 76.1386,64.7293 76.2397,64.8052 76.5317,65.0247 76.9473,65.2875 76.9473,65.2875 76.9473,65.2875 76.9798,65.3045 77.3826,65.5160 77.8350,65.7087 78.3014,65.8644 78.7788,65.9821 78.7788,65.9821 78.7788,65.9821 79.2277,66.0550 79.2641,66.0609 79.7542,66.1005 79.7542,66.1005 80.2458,66.1005 80.2458,66.1005 80.7359,66.0609 80.8845,66.0368 81.2212,65.9821 81.2212,65.9821 81.2212,65.9821 81.6986,65.8644 82.1650,65.7087 82.6174,65.5160 83.0527,65.2875 83.4683,65.0247 83.8614,64.7293 83.8614,64.7293 83.8614,64.7293 84.2294,64.4033 84.2294,64.4033 84.2294,64.4033 84.5700,64.0487 84.8810,63.6678 85.1603,63.2632 85.2545,63.1000 87.4447,63.1000 87.4638,63.2568 87.4804,63.3006 87.5198,63.4045 87.6095,63.5345 87.7278,63.6393 87.7278,63.6393 87.8676,63.7127 88.0210,63.7505 88.0210,63.7505 88.1790,63.7505 88.3324,63.7127 88.4179,63.6678 88.4722,63.6393 88.5905,63.5345 88.5943,63.5291 88.6485,63.4851 88.6963,63.4755 89.1255,63.4755 89.1925,63.4952 89.2383,63.5480 89.2495,63.5995 89.2495,64.5247 89.2640,64.5977 89.2640,64.5977 89.2640,64.5977 89.3194,64.6806 89.3923,64.7293 89.4023,64.7360 89.4023,64.7360 89.4753,64.7505 89.4753,64.7505 89.4753,64.7505 90.5247,64.7505 90.5247,64.7505 90.5977,64.7360 90.6806,64.6806 90.7360,64.5977 90.7505,64.5247 91.2495,64.5247 91.2495,64.5247 91.2640,64.5977 91.2640,64.5977 91.2640,64.5977 91.3194,64.6806 91.3219,64.6823 91.3262,64.6875 91.3280,64.6892 91.3279,64.6894 91.3668,64.7359 91.3755,64.8052 91.3690,64.8294 91.3638,64.8432 91.3638,64.8432 91.3447,65.0000 91.3447,65.0000 91.3638,65.1568 91.4114,65.2823 91.4198,65.3045 91.5095,65.4345 91.6278,65.5393 91.6278,65.5393 91.7676,65.6127 91.9210,65.6505 91.9210,65.6505 92.0790,65.6505 92.2324,65.6127 92.3722,65.5393 92.3722,65.5393 92.3722,65.5393 92.4178,65.4989 92.4810,65.4692 92.5503,65.4784 92.5822,65.4989 92.6278,65.5393 92.6278,65.5393 92.7676,65.6127 92.9210,65.6505 92.9210,65.6505 93.0790,65.6505 93.2324,65.6127 93.2324,65.6127 93.3722,65.5393 93.4905,65.4345 93.5802,65.3045 93.6362,65.1568 93.6553,65.0000 93.6362,64.8432 93.5802,64.6955 93.4905,64.5655 93.4905,64.5655 93.4173,64.5006 93.3801,64.4414 93.3755,64.4078 93.3755,64.3922 93.3952,64.3252 93.4173,64.2994 93.4905,64.2345 93.4905,64.2345 93.5802,64.1045 93.6362,63.9568 93.6553,63.8000 93.6447,63.7127 93.6362,63.6432 93.6001,63.5480 93.5802,63.4955 93.4905,63.3655 93.4905,63.3655 93.4173,63.3006 93.3801,63.2414 93.3755,63.2078 93.3755,63.1922 93.3952,63.1252 93.4173,63.0994 93.4905,63.0345 93.4905,63.0345 93.5802,62.9045 93.6362,62.7568 93.6553,62.6000 93.6362,62.4432 93.5802,62.2955 93.4905,62.1655 93.4905,62.1655 93.4173,62.1006 93.3801,62.0414 93.3755,62.0078 93.3755,61.7922 93.3952,61.7252 93.4173,61.6994 93.4905,61.6345 93.4905,61.6345 93.5802,61.5045 93.6362,61.3568 93.6553,61.2000 93.6362,61.0432 93.5802,60.8955 93.4905,60.7655 93.3722,60.6607 93.3722,60.6607 93.3722,60.6607 93.2324,60.5873 93.0790,60.5495 93.0790,60.5495 92.9210,60.5495 92.9210,60.5495 92.7676,60.5873 92.6278,60.6607 92.6278,60.6607 92.5822,60.7011 92.5190,60.7308 92.4497,60.7216 92.4178,60.7011 92.3722,60.6607 92.3722,60.6607 92.2324,60.5873 92.0790,60.5495 92.0790,60.5495 91.9210,60.5495 91.9210,60.5495 91.7676,60.5873 91.6278,60.6607 91.5095,60.7655 91.4198,60.8955 91.4198,60.8955 91.3638,61.0432 91.3447,61.2000 91.3447,61.2000 91.3638,61.3568 91.3841,61.4105 91.3895,61.4802 91.3563,61.5417 91.3371,61.5576 91.3194,61.5694 91.2640,61.6523 91.2640,61.6523 91.2495,61.7253 91.2495,61.7253 91.2495,64.5247 90.7505,64.5247 90.7505,64.5247 90.7505,61.7253 90.7505,61.7253 90.7505,61.7253 90.7360,61.6523 90.7360,61.6523 90.7241,61.6345 90.6806,61.5694 90.5977,61.5140 90.5977,61.5140 90.5977,61.5140 90.5247,61.4995 90.5247,61.4995 90.2238,61.4995 90.1568,61.4798 90.1111,61.4270 90.1011,61.3579 90.1079,61.3315 90.1101,61.3256 90.1362,61.2568 90.1553,61.1000 90.1553,61.1000 90.1553,61.0976 90.1558,61.0959 90.1562,61.0926 90.1567,61.0926 90.1750,61.0306 90.1916,61.0099 90.1916,61.0099 90.2289,60.9726 90.2487,60.9565 90.2578,60.9506 90.2796,60.9226 90.2847,60.9168 90.2875,60.9140 90.3004,60.8960 90.3019,60.8940 90.3348,60.8517 90.3385,60.8448 90.3420,60.8377 90.3420,60.8377 90.3573,60.7863 90.3581,60.7839 90.3755,60.7332 90.3755,60.7332 90.3768,60.7254 90.3778,60.7176 90.3756,60.6640 90.3755,60.6615 90.3755,58.6245 90.3952,58.5575 90.4480,58.5117 90.4995,58.5005 90.5247,58.5005 90.5247,58.5005 90.5977,58.4860 90.6806,58.4306 90.7360,58.3477 90.7505,58.2747 90.7505,57.1250 91.0000,57.1250 91.0000,58.2978 91.0064,58.3574 91.0064,58.3574 91.0566,58.4921 91.0566,58.4921 91.1428,58.6072 91.1428,58.6072 91.2579,58.6933 91.2579,58.6934 91.3926,58.7436 91.3926,58.7436 91.4522,58.7500 91.4522,58.7500 91.7500,58.7500 91.7500,57.1250 92.2500,57.1250 92.2500,58.7500 92.5478,58.7500 92.5478,58.7500 92.6074,58.7436 92.6074,58.7436 92.7421,58.6934 92.7421,58.6933 92.8572,58.6072 92.8572,58.6072 92.9433,58.4921 92.9434,58.4921 92.9936,58.3574 92.9936,58.3574 93.0000,58.2978 93.0000,58.2978 93.0000,57.1250 92.2500,57.1250 91.7500,57.1250 91.0000,57.1250 90.7505,57.1250 90.7505,56.6250 91.0000,56.6250 91.7500,56.6250 91.7500,55.0000 92.2500,55.0000 92.2500,56.6250 93.0000,56.6250 93.0000,55.4522 93.0000,55.4522 92.9936,55.3926 92.9936,55.3926 92.9434,55.2579 92.9433,55.2579 92.8572,55.1428 92.8572,55.1428 92.7421,55.0566 92.7421,55.0566 92.6074,55.0064 92.6074,55.0064 92.5478,55.0000 92.2500,55.0000 91.7500,55.0000 91.4522,55.0000 91.3926,55.0064 91.3926,55.0064 91.2579,55.0566 91.2579,55.0566 91.1428,55.1428 91.1428,55.1428 91.0566,55.2579 91.0566,55.2579 91.0064,55.3926 91.0064,55.3926 91.0000,55.4522 91.0000,56.6250 90.7505,56.6250 90.7505,55.4753 90.7505,55.4753 90.7505,55.4753 90.7505,55.4753 90.7360,55.4023 90.7360,55.4023 90.7360,55.4023 90.6806,55.3194 90.5977,55.2640 90.5977,55.2640 90.5977,55.2640 90.5247,55.2495 90.5247,55.2495 89.4753,55.2495 89.4753,55.2495 89.4023,55.2640 89.4023,55.2640 89.3194,55.3194 89.2640,55.4023 89.2640,55.4023 89.2495,55.4753 89.2495,55.4753 89.2495,58.2747 89.2495,58.2747 89.2640,58.3477 89.2640,58.3477 89.2640,58.3477 89.3194,58.4306 89.4023,58.4860 89.4023,58.4860 89.4753,58.5005 89.4753,58.5005 89.4753,58.5005 89.5005,58.5005 89.5675,58.5202 89.6133,58.5730 89.6245,58.6245 89.6245,60.3255 89.6048,60.3925 89.5520,60.4383 89.5005,60.4495 89.4210,60.4495 89.2676,60.4873 89.1278,60.5607 89.1278,60.5607 89.1278,60.5607 89.0149,60.6607 89.0095,60.6655 88.9198,60.7955 88.9198,60.7955 88.8638,60.9432 88.8447,61.1000 88.8447,61.1000 88.8638,61.2568 88.8921,61.3315 88.9198,61.4045 89.0095,61.5345 89.1278,61.6393 89.1831,61.6683 89.2333,61.7169 89.2495,61.7781 89.2495,62.6005 89.2298,62.6675 89.1770,62.7133 89.1255,62.7245 88.6963,62.7245 88.6293,62.7048 88.5943,62.6709 88.5905,62.6655 88.4722,62.5607 88.4722,62.5607 88.4722,62.5607 88.3324,62.4873 88.1790,62.4495 88.1790,62.4495 88.0210,62.4495 88.0210,62.4495 87.8676,62.4873 87.7278,62.5607 87.6095,62.6655 87.5198,62.7955 87.5198,62.7955 87.4638,62.9432 87.4447,63.1000 87.4447,63.1000 85.2545,63.1000 85.4061,62.8373 85.6169,62.3931 85.7912,61.9334 85.9280,61.4611 86.0264,60.9794 86.0857,60.4913 86.0857,60.4913 86.1055,60.0000 86.1055,60.0000 86.0857,59.5087 86.0857,59.5087 86.0857,59.5087 86.0264,59.0206 85.9280,58.5389 85.8967,58.4306 85.7912,58.0666 85.7143,57.8636 85.6169,57.6069 85.4061,57.1627 85.1603,56.7368 85.1603,56.7368 85.1603,56.7368 84.8834,56.3358 84.8810,56.3322 84.8810,56.3322 84.8809,56.3322 84.5700,55.9513 84.5700,55.9513 84.2294,55.5967 84.2294,55.5967 83.8614,55.2707 83.6648,55.1230 83.4683,54.9753 83.0527,54.7125 83.0527,54.7125 83.0527,54.7125 82.6174,54.4840 82.4398,54.4084 82.1650,54.2913 82.1650,54.2913 82.1650,54.2913 81.9345,54.2144 81.6986,54.1356 81.6986,54.1356 81.6986,54.1356 81.5157,54.0905 81.2212,54.0179 81.2212,54.0179 81.2212,54.0179 81.2212,54.0179 80.7359,53.9391 80.2459,53.8995 80.2458,53.8995 79.7542,53.8995 79.7541,53.8995 79.2641,53.9391 78.7788,54.0179 78.7788,54.0179 78.7788,54.0179 78.7788,54.0179 78.7551,54.0238 78.3014,54.1356 78.3014,54.1356 77.8350,54.2913 77.8350,54.2913 77.8350,54.2913 77.7307,54.3357 77.3826,54.4840 76.9473,54.7125 76.5317,54.9753 76.5317,54.9753 76.1386,55.2707 75.7706,55.5967 75.7706,55.5967 75.4300,55.9513 75.4300,55.9513 75.1190,56.3322 74.8397,56.7368 74.8397,56.7368 74.5939,57.1626 74.3831,57.6069 74.2088,58.0666 74.0720,58.5389 73.9736,59.0206 73.9143,59.5087 73.9143,59.5087 73.8945,60.0000 73.8945,60.0000 66.0005,60.0000 66.0005,47.0027 66.0007,46.9973 66.0045,46.9546 66.0057,46.9418 66.0169,46.8282 66.0205,46.8083 66.0382,46.7425 66.0387,46.7408 66.0667,46.6484 66.0729,46.6320 66.1044,46.5646 66.1059,46.5617 66.1508,46.4777 66.1547,46.4713 66.1878,46.4239 66.2010,46.4052 66.2038,46.4014 66.2631,46.3292 66.2672,46.3247 66.3247,46.2672 66.3292,46.2631 66.4014,46.2038 66.4052,46.2010 66.4713,46.1547 66.4777,46.1508 66.5617,46.1059 66.5646,46.1044 66.6320,46.0729 66.6484,46.0667 66.7408,46.0387 66.7425,46.0382 66.8083,46.0205 66.8282,46.0169 66.9418,46.0057 66.9546,46.0045 66.9973,46.0007 67.0027,46.0005 92.9973,46.0005 Z"/> 
</g>
</g>
</g> 
</g><g id="substrate-silk" style="fill:#f0f0f0; stroke:#f0f0f0;" mask="url(#pads-mask-silkscreen)"><g style="fill-opacity: 0.0;stroke-width: 0.1000;stroke-opacity: 1;stroke-linecap: round;stroke-linejoin: round">
<circle cx="80.0000" cy="60.0000" r="7.0500"/> 
</g>
<g style="fill-opacity: 0.0;stroke-width: 0.1500;stroke-opacity: 1;stroke-linecap: round;stroke-linejoin: round">
<text x="66.5000" y="47.7800" transform="scale(-1 1) translate(-133.000000 0)" textLength="19.6512" font-size="1.3333" lengthAdjust="spacingAndGlyphs" text-anchor="end" opacity="0">Pedalboard neopixel Ring</text>
<g class="stroked-text"><desc>Pedalboard neopixel Ring</desc>
<path d="M85.8368 47.6498 L85.8368 46.6498 "/>
<path d="M85.8368 46.6498 L85.4558 46.6498 "/>
<path d="M85.4558 46.6498 L85.3606 46.6974 "/>
<path d="M85.3606 46.6974 L85.3130 46.7451 "/>
<path d="M85.3130 46.7451 L85.2654 46.8403 "/>
<path d="M85.2654 46.8403 L85.2654 46.9832 "/>
<path d="M85.2654 46.9832 L85.3130 47.0784 "/>
<path d="M85.3130 47.0784 L85.3606 47.1260 "/>
<path d="M85.3606 47.1260 L85.4558 47.1736 "/>
<path d="M85.4558 47.1736 L85.8368 47.1736 "/>
<path d="M84.4558 47.6022 L84.5511 47.6498 "/>
<path d="M84.5511 47.6498 L84.7415 47.6498 "/>
<path d="M84.7415 47.6498 L84.8368 47.6022 "/>
<path d="M84.8368 47.6022 L84.8844 47.5070 "/>
<path d="M84.8844 47.5070 L84.8844 47.1260 "/>
<path d="M84.8844 47.1260 L84.8368 47.0308 "/>
<path d="M84.8368 47.0308 L84.7415 46.9832 "/>
<path d="M84.7415 46.9832 L84.5511 46.9832 "/>
<path d="M84.5511 46.9832 L84.4558 47.0308 "/>
<path d="M84.4558 47.0308 L84.4082 47.1260 "/>
<path d="M84.4082 47.1260 L84.4082 47.2212 "/>
<path d="M84.4082 47.2212 L84.8844 47.3165 "/>
<path d="M83.5511 47.6498 L83.5511 46.6498 "/>
<path d="M83.5511 47.6022 L83.6463 47.6498 "/>
<path d="M83.6463 47.6498 L83.8368 47.6498 "/>
<path d="M83.8368 47.6498 L83.9320 47.6022 "/>
<path d="M83.9320 47.6022 L83.9796 47.5546 "/>
<path d="M83.9796 47.5546 L84.0273 47.4593 "/>
<path d="M84.0273 47.4593 L84.0273 47.1736 "/>
<path d="M84.0273 47.1736 L83.9796 47.0784 "/>
<path d="M83.9796 47.0784 L83.9320 47.0308 "/>
<path d="M83.9320 47.0308 L83.8368 46.9832 "/>
<path d="M83.8368 46.9832 L83.6463 46.9832 "/>
<path d="M83.6463 46.9832 L83.5511 47.0308 "/>
<path d="M82.6463 47.6498 L82.6463 47.1260 "/>
<path d="M82.6463 47.1260 L82.6939 47.0308 "/>
<path d="M82.6939 47.0308 L82.7892 46.9832 "/>
<path d="M82.7892 46.9832 L82.9796 46.9832 "/>
<path d="M82.9796 46.9832 L83.0749 47.0308 "/>
<path d="M82.6463 47.6022 L82.7415 47.6498 "/>
<path d="M82.7415 47.6498 L82.9796 47.6498 "/>
<path d="M82.9796 47.6498 L83.0749 47.6022 "/>
<path d="M83.0749 47.6022 L83.1225 47.5070 "/>
<path d="M83.1225 47.5070 L83.1225 47.4117 "/>
<path d="M83.1225 47.4117 L83.0749 47.3165 "/>
<path d="M83.0749 47.3165 L82.9796 47.2689 "/>
<path d="M82.9796 47.2689 L82.7415 47.2689 "/>
<path d="M82.7415 47.2689 L82.6463 47.2212 "/>
<path d="M82.0273 47.6498 L82.1225 47.6022 "/>
<path d="M82.1225 47.6022 L82.1701 47.5070 "/>
<path d="M82.1701 47.5070 L82.1701 46.6498 "/>
<path d="M81.6463 47.6498 L81.6463 46.6498 "/>
<path d="M81.6463 47.0308 L81.5511 46.9832 "/>
<path d="M81.5511 46.9832 L81.3606 46.9832 "/>
<path d="M81.3606 46.9832 L81.2654 47.0308 "/>
<path d="M81.2654 47.0308 L81.2177 47.0784 "/>
<path d="M81.2177 47.0784 L81.1701 47.1736 "/>
<path d="M81.1701 47.1736 L81.1701 47.4593 "/>
<path d="M81.1701 47.4593 L81.2177 47.5546 "/>
<path d="M81.2177 47.5546 L81.2654 47.6022 "/>
<path d="M81.2654 47.6022 L81.3606 47.6498 "/>
<path d="M81.3606 47.6498 L81.5511 47.6498 "/>
<path d="M81.5511 47.6498 L81.6463 47.6022 "/>
<path d="M80.5987 47.6498 L80.6939 47.6022 "/>
<path d="M80.6939 47.6022 L80.7415 47.5546 "/>
<path d="M80.7415 47.5546 L80.7892 47.4593 "/>
<path d="M80.7892 47.4593 L80.7892 47.1736 "/>
<path d="M80.7892 47.1736 L80.7415 47.0784 "/>
<path d="M80.7415 47.0784 L80.6939 47.0308 "/>
<path d="M80.6939 47.0308 L80.5987 46.9832 "/>
<path d="M80.5987 46.9832 L80.4558 46.9832 "/>
<path d="M80.4558 46.9832 L80.3606 47.0308 "/>
<path d="M80.3606 47.0308 L80.3130 47.0784 "/>
<path d="M80.3130 47.0784 L80.2654 47.1736 "/>
<path d="M80.2654 47.1736 L80.2654 47.4593 "/>
<path d="M80.2654 47.4593 L80.3130 47.5546 "/>
<path d="M80.3130 47.5546 L80.3606 47.6022 "/>
<path d="M80.3606 47.6022 L80.4558 47.6498 "/>
<path d="M80.4558 47.6498 L80.5987 47.6498 "/>
<path d="M79.4082 47.6498 L79.4082 47.1260 "/>
<path d="M79.4082 47.1260 L79.4558 47.0308 "/>
<path d="M79.4558 47.0308 L79.5511 46.9832 "/>
<path d="M79.5511 46.9832 L79.7415 46.9832 "/>
<path d="M79.7415 46.9832 L79.8368 47.0308 "/>
<path d="M79.4082 47.6022 L79.5034 47.6498 "/>
<path d="M79.5034 47.6498 L79.7415 47.6498 "/>
<path d="M79.7415 47.6498 L79.8368 47.6022 "/>
<path d="M79.8368 47.6022 L79.8844 47.5070 "/>
<path d="M79.8844 47.5070 L79.8844 47.4117 "/>
<path d="M79.8844 47.4117 L79.8368 47.3165 "/>
<path d="M79.8368 47.3165 L79.7415 47.2689 "/>
<path d="M79.7415 47.2689 L79.5034 47.2689 "/>
<path d="M79.5034 47.2689 L79.4082 47.2212 "/>
<path d="M78.9320 47.6498 L78.9320 46.9832 "/>
<path d="M78.9320 47.1736 L78.8844 47.0784 "/>
<path d="M78.8844 47.0784 L78.8368 47.0308 "/>
<path d="M78.8368 47.0308 L78.7415 46.9832 "/>
<path d="M78.7415 46.9832 L78.6463 46.9832 "/>
<path d="M77.8844 47.6498 L77.8844 46.6498 "/>
<path d="M77.8844 47.6022 L77.9796 47.6498 "/>
<path d="M77.9796 47.6498 L78.1701 47.6498 "/>
<path d="M78.1701 47.6498 L78.2654 47.6022 "/>
<path d="M78.2654 47.6022 L78.3130 47.5546 "/>
<path d="M78.3130 47.5546 L78.3606 47.4593 "/>
<path d="M78.3606 47.4593 L78.3606 47.1736 "/>
<path d="M78.3606 47.1736 L78.3130 47.0784 "/>
<path d="M78.3130 47.0784 L78.2654 47.0308 "/>
<path d="M78.2654 47.0308 L78.1701 46.9832 "/>
<path d="M78.1701 46.9832 L77.9796 46.9832 "/>
<path d="M77.9796 46.9832 L77.8844 47.0308 "/>
<path d="M76.6463 46.9832 L76.6463 47.6498 "/>
<path d="M76.6463 47.0784 L76.5987 47.0308 "/>
<path d="M76.5987 47.0308 L76.5034 46.9832 "/>
<path d="M76.5034 46.9832 L76.3606 46.9832 "/>
<path d="M76.3606 46.9832 L76.2654 47.0308 "/>
<path d="M76.2654 47.0308 L76.2177 47.1260 "/>
<path d="M76.2177 47.1260 L76.2177 47.6498 "/>
<path d="M75.3606 47.6022 L75.4558 47.6498 "/>
<path d="M75.4558 47.6498 L75.6463 47.6498 "/>
<path d="M75.6463 47.6498 L75.7415 47.6022 "/>
<path d="M75.7415 47.6022 L75.7892 47.5070 "/>
<path d="M75.7892 47.5070 L75.7892 47.1260 "/>
<path d="M75.7892 47.1260 L75.7415 47.0308 "/>
<path d="M75.7415 47.0308 L75.6463 46.9832 "/>
<path d="M75.6463 46.9832 L75.4558 46.9832 "/>
<path d="M75.4558 46.9832 L75.3606 47.0308 "/>
<path d="M75.3606 47.0308 L75.3130 47.1260 "/>
<path d="M75.3130 47.1260 L75.3130 47.2212 "/>
<path d="M75.3130 47.2212 L75.7892 47.3165 "/>
<path d="M74.7415 47.6498 L74.8368 47.6022 "/>
<path d="M74.8368 47.6022 L74.8844 47.5546 "/>
<path d="M74.8844 47.5546 L74.9320 47.4593 "/>
<path d="M74.9320 47.4593 L74.9320 47.1736 "/>
<path d="M74.9320 47.1736 L74.8844 47.0784 "/>
<path d="M74.8844 47.0784 L74.8368 47.0308 "/>
<path d="M74.8368 47.0308 L74.7415 46.9832 "/>
<path d="M74.7415 46.9832 L74.5987 46.9832 "/>
<path d="M74.5987 46.9832 L74.5034 47.0308 "/>
<path d="M74.5034 47.0308 L74.4558 47.0784 "/>
<path d="M74.4558 47.0784 L74.4082 47.1736 "/>
<path d="M74.4082 47.1736 L74.4082 47.4593 "/>
<path d="M74.4082 47.4593 L74.4558 47.5546 "/>
<path d="M74.4558 47.5546 L74.5034 47.6022 "/>
<path d="M74.5034 47.6022 L74.5987 47.6498 "/>
<path d="M74.5987 47.6498 L74.7415 47.6498 "/>
<path d="M73.9796 46.9832 L73.9796 47.9832 "/>
<path d="M73.9796 47.0308 L73.8844 46.9832 "/>
<path d="M73.8844 46.9832 L73.6939 46.9832 "/>
<path d="M73.6939 46.9832 L73.5987 47.0308 "/>
<path d="M73.5987 47.0308 L73.5511 47.0784 "/>
<path d="M73.5511 47.0784 L73.5034 47.1736 "/>
<path d="M73.5034 47.1736 L73.5034 47.4593 "/>
<path d="M73.5034 47.4593 L73.5511 47.5546 "/>
<path d="M73.5511 47.5546 L73.5987 47.6022 "/>
<path d="M73.5987 47.6022 L73.6939 47.6498 "/>
<path d="M73.6939 47.6498 L73.8844 47.6498 "/>
<path d="M73.8844 47.6498 L73.9796 47.6022 "/>
<path d="M73.0749 47.6498 L73.0749 46.9832 "/>
<path d="M73.0749 46.6498 L73.1225 46.6974 "/>
<path d="M73.1225 46.6974 L73.0749 46.7451 "/>
<path d="M73.0749 46.7451 L73.0273 46.6974 "/>
<path d="M73.0273 46.6974 L73.0749 46.6498 "/>
<path d="M73.0749 46.6498 L73.0749 46.7451 "/>
<path d="M72.6939 47.6498 L72.1701 46.9832 "/>
<path d="M72.6939 46.9832 L72.1701 47.6498 "/>
<path d="M71.4082 47.6022 L71.5034 47.6498 "/>
<path d="M71.5034 47.6498 L71.6939 47.6498 "/>
<path d="M71.6939 47.6498 L71.7892 47.6022 "/>
<path d="M71.7892 47.6022 L71.8368 47.5070 "/>
<path d="M71.8368 47.5070 L71.8368 47.1260 "/>
<path d="M71.8368 47.1260 L71.7892 47.0308 "/>
<path d="M71.7892 47.0308 L71.6939 46.9832 "/>
<path d="M71.6939 46.9832 L71.5034 46.9832 "/>
<path d="M71.5034 46.9832 L71.4082 47.0308 "/>
<path d="M71.4082 47.0308 L71.3606 47.1260 "/>
<path d="M71.3606 47.1260 L71.3606 47.2212 "/>
<path d="M71.3606 47.2212 L71.8368 47.3165 "/>
<path d="M70.7892 47.6498 L70.8844 47.6022 "/>
<path d="M70.8844 47.6022 L70.9320 47.5070 "/>
<path d="M70.9320 47.5070 L70.9320 46.6498 "/>
<path d="M69.0749 47.6498 L69.4082 47.1736 "/>
<path d="M69.6463 47.6498 L69.6463 46.6498 "/>
<path d="M69.6463 46.6498 L69.2653 46.6498 "/>
<path d="M69.2653 46.6498 L69.1701 46.6974 "/>
<path d="M69.1701 46.6974 L69.1225 46.7451 "/>
<path d="M69.1225 46.7451 L69.0749 46.8403 "/>
<path d="M69.0749 46.8403 L69.0749 46.9832 "/>
<path d="M69.0749 46.9832 L69.1225 47.0784 "/>
<path d="M69.1225 47.0784 L69.1701 47.1260 "/>
<path d="M69.1701 47.1260 L69.2653 47.1736 "/>
<path d="M69.2653 47.1736 L69.6463 47.1736 "/>
<path d="M68.6463 47.6498 L68.6463 46.9832 "/>
<path d="M68.6463 46.6498 L68.6939 46.6974 "/>
<path d="M68.6939 46.6974 L68.6463 46.7451 "/>
<path d="M68.6463 46.7451 L68.5987 46.6974 "/>
<path d="M68.5987 46.6974 L68.6463 46.6498 "/>
<path d="M68.6463 46.6498 L68.6463 46.7451 "/>
<path d="M68.1701 46.9832 L68.1701 47.6498 "/>
<path d="M68.1701 47.0784 L68.1225 47.0308 "/>
<path d="M68.1225 47.0308 L68.0273 46.9832 "/>
<path d="M68.0273 46.9832 L67.8844 46.9832 "/>
<path d="M67.8844 46.9832 L67.7892 47.0308 "/>
<path d="M67.7892 47.0308 L67.7415 47.1260 "/>
<path d="M67.7415 47.1260 L67.7415 47.6498 "/>
<path d="M66.8368 46.9832 L66.8368 47.7927 "/>
<path d="M66.8368 47.7927 L66.8844 47.8879 "/>
<path d="M66.8844 47.8879 L66.9320 47.9355 "/>
<path d="M66.9320 47.9355 L67.0273 47.9832 "/>
<path d="M67.0273 47.9832 L67.1701 47.9832 "/>
<path d="M67.1701 47.9832 L67.2653 47.9355 "/>
<path d="M66.8368 47.6022 L66.9320 47.6498 "/>
<path d="M66.9320 47.6498 L67.1225 47.6498 "/>
<path d="M67.1225 47.6498 L67.2177 47.6022 "/>
<path d="M67.2177 47.6022 L67.2653 47.5546 "/>
<path d="M67.2653 47.5546 L67.3130 47.4593 "/>
<path d="M67.3130 47.4593 L67.3130 47.1736 "/>
<path d="M67.3130 47.1736 L67.2653 47.0784 "/>
<path d="M67.2653 47.0784 L67.2177 47.0308 "/>
<path d="M67.2177 47.0308 L67.1225 46.9832 "/>
<path d="M67.1225 46.9832 L66.9320 46.9832 "/>
<path d="M66.9320 46.9832 L66.8368 47.0308 "/>
</g><text x="66.5000" y="49.3900" transform="scale(-1 1) translate(-133.000000 0)" textLength="24.1274" font-size="1.3333" lengthAdjust="spacingAndGlyphs" text-anchor="end" opacity="0">https://github.com/pedalboard</text>
<g class="stroked-text"><desc>https://github.com/pedalboard</desc>
<path d="M90.3130 49.2598 L90.3130 48.2598 "/>
<path d="M89.8844 49.2598 L89.8844 48.7360 "/>
<path d="M89.8844 48.7360 L89.9320 48.6408 "/>
<path d="M89.9320 48.6408 L90.0273 48.5932 "/>
<path d="M90.0273 48.5932 L90.1701 48.5932 "/>
<path d="M90.1701 48.5932 L90.2654 48.6408 "/>
<path d="M90.2654 48.6408 L90.3130 48.6884 "/>
<path d="M89.5511 48.5932 L89.1701 48.5932 "/>
<path d="M89.4082 48.2598 L89.4082 49.1170 "/>
<path d="M89.4082 49.1170 L89.3606 49.2122 "/>
<path d="M89.3606 49.2122 L89.2654 49.2598 "/>
<path d="M89.2654 49.2598 L89.1701 49.2598 "/>
<path d="M88.9796 48.5932 L88.5987 48.5932 "/>
<path d="M88.8368 48.2598 L88.8368 49.1170 "/>
<path d="M88.8368 49.1170 L88.7892 49.2122 "/>
<path d="M88.7892 49.2122 L88.6939 49.2598 "/>
<path d="M88.6939 49.2598 L88.5987 49.2598 "/>
<path d="M88.2654 48.5932 L88.2654 49.5932 "/>
<path d="M88.2654 48.6408 L88.1701 48.5932 "/>
<path d="M88.1701 48.5932 L87.9796 48.5932 "/>
<path d="M87.9796 48.5932 L87.8844 48.6408 "/>
<path d="M87.8844 48.6408 L87.8368 48.6884 "/>
<path d="M87.8368 48.6884 L87.7892 48.7836 "/>
<path d="M87.7892 48.7836 L87.7892 49.0693 "/>
<path d="M87.7892 49.0693 L87.8368 49.1646 "/>
<path d="M87.8368 49.1646 L87.8844 49.2122 "/>
<path d="M87.8844 49.2122 L87.9796 49.2598 "/>
<path d="M87.9796 49.2598 L88.1701 49.2598 "/>
<path d="M88.1701 49.2598 L88.2654 49.2122 "/>
<path d="M87.4082 49.2122 L87.3130 49.2598 "/>
<path d="M87.3130 49.2598 L87.1225 49.2598 "/>
<path d="M87.1225 49.2598 L87.0273 49.2122 "/>
<path d="M87.0273 49.2122 L86.9796 49.1170 "/>
<path d="M86.9796 49.1170 L86.9796 49.0693 "/>
<path d="M86.9796 49.0693 L87.0273 48.9741 "/>
<path d="M87.0273 48.9741 L87.1225 48.9265 "/>
<path d="M87.1225 48.9265 L87.2654 48.9265 "/>
<path d="M87.2654 48.9265 L87.3606 48.8789 "/>
<path d="M87.3606 48.8789 L87.4082 48.7836 "/>
<path d="M87.4082 48.7836 L87.4082 48.7360 "/>
<path d="M87.4082 48.7360 L87.3606 48.6408 "/>
<path d="M87.3606 48.6408 L87.2654 48.5932 "/>
<path d="M87.2654 48.5932 L87.1225 48.5932 "/>
<path d="M87.1225 48.5932 L87.0273 48.6408 "/>
<path d="M86.5511 49.1646 L86.5034 49.2122 "/>
<path d="M86.5034 49.2122 L86.5511 49.2598 "/>
<path d="M86.5511 49.2598 L86.5987 49.2122 "/>
<path d="M86.5987 49.2122 L86.5511 49.1646 "/>
<path d="M86.5511 49.1646 L86.5511 49.2598 "/>
<path d="M86.5511 48.6408 L86.5034 48.6884 "/>
<path d="M86.5034 48.6884 L86.5511 48.7360 "/>
<path d="M86.5511 48.7360 L86.5987 48.6884 "/>
<path d="M86.5987 48.6884 L86.5511 48.6408 "/>
<path d="M86.5511 48.6408 L86.5511 48.7360 "/>
<path d="M85.3606 48.2122 L86.2177 49.4979 "/>
<path d="M84.3130 48.2122 L85.1701 49.4979 "/>
<path d="M83.5511 48.5932 L83.5511 49.4027 "/>
<path d="M83.5511 49.4027 L83.5987 49.4979 "/>
<path d="M83.5987 49.4979 L83.6463 49.5455 "/>
<path d="M83.6463 49.5455 L83.7415 49.5932 "/>
<path d="M83.7415 49.5932 L83.8844 49.5932 "/>
<path d="M83.8844 49.5932 L83.9796 49.5455 "/>
<path d="M83.5511 49.2122 L83.6463 49.2598 "/>
<path d="M83.6463 49.2598 L83.8368 49.2598 "/>
<path d="M83.8368 49.2598 L83.9320 49.2122 "/>
<path d="M83.9320 49.2122 L83.9796 49.1646 "/>
<path d="M83.9796 49.1646 L84.0273 49.0693 "/>
<path d="M84.0273 49.0693 L84.0273 48.7836 "/>
<path d="M84.0273 48.7836 L83.9796 48.6884 "/>
<path d="M83.9796 48.6884 L83.9320 48.6408 "/>
<path d="M83.9320 48.6408 L83.8368 48.5932 "/>
<path d="M83.8368 48.5932 L83.6463 48.5932 "/>
<path d="M83.6463 48.5932 L83.5511 48.6408 "/>
<path d="M83.0749 49.2598 L83.0749 48.5932 "/>
<path d="M83.0749 48.2598 L83.1225 48.3074 "/>
<path d="M83.1225 48.3074 L83.0749 48.3551 "/>
<path d="M83.0749 48.3551 L83.0273 48.3074 "/>
<path d="M83.0273 48.3074 L83.0749 48.2598 "/>
<path d="M83.0749 48.2598 L83.0749 48.3551 "/>
<path d="M82.7415 48.5932 L82.3606 48.5932 "/>
<path d="M82.5987 48.2598 L82.5987 49.1170 "/>
<path d="M82.5987 49.1170 L82.5511 49.2122 "/>
<path d="M82.5511 49.2122 L82.4558 49.2598 "/>
<path d="M82.4558 49.2598 L82.3606 49.2598 "/>
<path d="M82.0273 49.2598 L82.0273 48.2598 "/>
<path d="M81.5987 49.2598 L81.5987 48.7360 "/>
<path d="M81.5987 48.7360 L81.6463 48.6408 "/>
<path d="M81.6463 48.6408 L81.7415 48.5932 "/>
<path d="M81.7415 48.5932 L81.8844 48.5932 "/>
<path d="M81.8844 48.5932 L81.9796 48.6408 "/>
<path d="M81.9796 48.6408 L82.0273 48.6884 "/>
<path d="M80.6939 48.5932 L80.6939 49.2598 "/>
<path d="M81.1225 48.5932 L81.1225 49.1170 "/>
<path d="M81.1225 49.1170 L81.0749 49.2122 "/>
<path d="M81.0749 49.2122 L80.9796 49.2598 "/>
<path d="M80.9796 49.2598 L80.8368 49.2598 "/>
<path d="M80.8368 49.2598 L80.7415 49.2122 "/>
<path d="M80.7415 49.2122 L80.6939 49.1646 "/>
<path d="M80.2177 49.2598 L80.2177 48.2598 "/>
<path d="M80.2177 48.6408 L80.1225 48.5932 "/>
<path d="M80.1225 48.5932 L79.9320 48.5932 "/>
<path d="M79.9320 48.5932 L79.8368 48.6408 "/>
<path d="M79.8368 48.6408 L79.7892 48.6884 "/>
<path d="M79.7892 48.6884 L79.7415 48.7836 "/>
<path d="M79.7415 48.7836 L79.7415 49.0693 "/>
<path d="M79.7415 49.0693 L79.7892 49.1646 "/>
<path d="M79.7892 49.1646 L79.8368 49.2122 "/>
<path d="M79.8368 49.2122 L79.9320 49.2598 "/>
<path d="M79.9320 49.2598 L80.1225 49.2598 "/>
<path d="M80.1225 49.2598 L80.2177 49.2122 "/>
<path d="M79.3130 49.1646 L79.2654 49.2122 "/>
<path d="M79.2654 49.2122 L79.3130 49.2598 "/>
<path d="M79.3130 49.2598 L79.3606 49.2122 "/>
<path d="M79.3606 49.2122 L79.3130 49.1646 "/>
<path d="M79.3130 49.1646 L79.3130 49.2598 "/>
<path d="M78.4082 49.2122 L78.5034 49.2598 "/>
<path d="M78.5034 49.2598 L78.6939 49.2598 "/>
<path d="M78.6939 49.2598 L78.7892 49.2122 "/>
<path d="M78.7892 49.2122 L78.8368 49.1646 "/>
<path d="M78.8368 49.1646 L78.8844 49.0693 "/>
<path d="M78.8844 49.0693 L78.8844 48.7836 "/>
<path d="M78.8844 48.7836 L78.8368 48.6884 "/>
<path d="M78.8368 48.6884 L78.7892 48.6408 "/>
<path d="M78.7892 48.6408 L78.6939 48.5932 "/>
<path d="M78.6939 48.5932 L78.5034 48.5932 "/>
<path d="M78.5034 48.5932 L78.4082 48.6408 "/>
<path d="M77.8368 49.2598 L77.9320 49.2122 "/>
<path d="M77.9320 49.2122 L77.9796 49.1646 "/>
<path d="M77.9796 49.1646 L78.0273 49.0693 "/>
<path d="M78.0273 49.0693 L78.0273 48.7836 "/>
<path d="M78.0273 48.7836 L77.9796 48.6884 "/>
<path d="M77.9796 48.6884 L77.9320 48.6408 "/>
<path d="M77.9320 48.6408 L77.8368 48.5932 "/>
<path d="M77.8368 48.5932 L77.6939 48.5932 "/>
<path d="M77.6939 48.5932 L77.5987 48.6408 "/>
<path d="M77.5987 48.6408 L77.5511 48.6884 "/>
<path d="M77.5511 48.6884 L77.5034 48.7836 "/>
<path d="M77.5034 48.7836 L77.5034 49.0693 "/>
<path d="M77.5034 49.0693 L77.5511 49.1646 "/>
<path d="M77.5511 49.1646 L77.5987 49.2122 "/>
<path d="M77.5987 49.2122 L77.6939 49.2598 "/>
<path d="M77.6939 49.2598 L77.8368 49.2598 "/>
<path d="M77.0749 49.2598 L77.0749 48.5932 "/>
<path d="M77.0749 48.6884 L77.0273 48.6408 "/>
<path d="M77.0273 48.6408 L76.9320 48.5932 "/>
<path d="M76.9320 48.5932 L76.7892 48.5932 "/>
<path d="M76.7892 48.5932 L76.6939 48.6408 "/>
<path d="M76.6939 48.6408 L76.6463 48.7360 "/>
<path d="M76.6463 48.7360 L76.6463 49.2598 "/>
<path d="M76.6463 48.7360 L76.5987 48.6408 "/>
<path d="M76.5987 48.6408 L76.5034 48.5932 "/>
<path d="M76.5034 48.5932 L76.3606 48.5932 "/>
<path d="M76.3606 48.5932 L76.2654 48.6408 "/>
<path d="M76.2654 48.6408 L76.2177 48.7360 "/>
<path d="M76.2177 48.7360 L76.2177 49.2598 "/>
<path d="M75.0273 48.2122 L75.8844 49.4979 "/>
<path d="M74.6939 48.5932 L74.6939 49.5932 "/>
<path d="M74.6939 48.6408 L74.5987 48.5932 "/>
<path d="M74.5987 48.5932 L74.4082 48.5932 "/>
<path d="M74.4082 48.5932 L74.3130 48.6408 "/>
<path d="M74.3130 48.6408 L74.2654 48.6884 "/>
<path d="M74.2654 48.6884 L74.2177 48.7836 "/>
<path d="M74.2177 48.7836 L74.2177 49.0693 "/>
<path d="M74.2177 49.0693 L74.2654 49.1646 "/>
<path d="M74.2654 49.1646 L74.3130 49.2122 "/>
<path d="M74.3130 49.2122 L74.4082 49.2598 "/>
<path d="M74.4082 49.2598 L74.5987 49.2598 "/>
<path d="M74.5987 49.2598 L74.6939 49.2122 "/>
<path d="M73.4082 49.2122 L73.5034 49.2598 "/>
<path d="M73.5034 49.2598 L73.6939 49.2598 "/>
<path d="M73.6939 49.2598 L73.7892 49.2122 "/>
<path d="M73.7892 49.2122 L73.8368 49.1170 "/>
<path d="M73.8368 49.1170 L73.8368 48.7360 "/>
<path d="M73.8368 48.7360 L73.7892 48.6408 "/>
<path d="M73.7892 48.6408 L73.6939 48.5932 "/>
<path d="M73.6939 48.5932 L73.5034 48.5932 "/>
<path d="M73.5034 48.5932 L73.4082 48.6408 "/>
<path d="M73.4082 48.6408 L73.3606 48.7360 "/>
<path d="M73.3606 48.7360 L73.3606 48.8312 "/>
<path d="M73.3606 48.8312 L73.8368 48.9265 "/>
<path d="M72.5034 49.2598 L72.5034 48.2598 "/>
<path d="M72.5034 49.2122 L72.5987 49.2598 "/>
<path d="M72.5987 49.2598 L72.7892 49.2598 "/>
<path d="M72.7892 49.2598 L72.8844 49.2122 "/>
<path d="M72.8844 49.2122 L72.9320 49.1646 "/>
<path d="M72.9320 49.1646 L72.9796 49.0693 "/>
<path d="M72.9796 49.0693 L72.9796 48.7836 "/>
<path d="M72.9796 48.7836 L72.9320 48.6884 "/>
<path d="M72.9320 48.6884 L72.8844 48.6408 "/>
<path d="M72.8844 48.6408 L72.7892 48.5932 "/>
<path d="M72.7892 48.5932 L72.5987 48.5932 "/>
<path d="M72.5987 48.5932 L72.5034 48.6408 "/>
<path d="M71.5987 49.2598 L71.5987 48.7360 "/>
<path d="M71.5987 48.7360 L71.6463 48.6408 "/>
<path d="M71.6463 48.6408 L71.7415 48.5932 "/>
<path d="M71.7415 48.5932 L71.9320 48.5932 "/>
<path d="M71.9320 48.5932 L72.0273 48.6408 "/>
<path d="M71.5987 49.2122 L71.6939 49.2598 "/>
<path d="M71.6939 49.2598 L71.9320 49.2598 "/>
<path d="M71.9320 49.2598 L72.0273 49.2122 "/>
<path d="M72.0273 49.2122 L72.0749 49.1170 "/>
<path d="M72.0749 49.1170 L72.0749 49.0217 "/>
<path d="M72.0749 49.0217 L72.0273 48.9265 "/>
<path d="M72.0273 48.9265 L71.9320 48.8789 "/>
<path d="M71.9320 48.8789 L71.6939 48.8789 "/>
<path d="M71.6939 48.8789 L71.5987 48.8312 "/>
<path d="M70.9796 49.2598 L71.0749 49.2122 "/>
<path d="M71.0749 49.2122 L71.1225 49.1170 "/>
<path d="M71.1225 49.1170 L71.1225 48.2598 "/>
<path d="M70.5987 49.2598 L70.5987 48.2598 "/>
<path d="M70.5987 48.6408 L70.5034 48.5932 "/>
<path d="M70.5034 48.5932 L70.3130 48.5932 "/>
<path d="M70.3130 48.5932 L70.2177 48.6408 "/>
<path d="M70.2177 48.6408 L70.1701 48.6884 "/>
<path d="M70.1701 48.6884 L70.1225 48.7836 "/>
<path d="M70.1225 48.7836 L70.1225 49.0693 "/>
<path d="M70.1225 49.0693 L70.1701 49.1646 "/>
<path d="M70.1701 49.1646 L70.2177 49.2122 "/>
<path d="M70.2177 49.2122 L70.3130 49.2598 "/>
<path d="M70.3130 49.2598 L70.5034 49.2598 "/>
<path d="M70.5034 49.2598 L70.5987 49.2122 "/>
<path d="M69.5511 49.2598 L69.6463 49.2122 "/>
<path d="M69.6463 49.2122 L69.6939 49.1646 "/>
<path d="M69.6939 49.1646 L69.7415 49.0693 "/>
<path d="M69.7415 49.0693 L69.7415 48.7836 "/>
<path d="M69.7415 48.7836 L69.6939 48.6884 "/>
<path d="M69.6939 48.6884 L69.6463 48.6408 "/>
<path d="M69.6463 48.6408 L69.5511 48.5932 "/>
<path d="M69.5511 48.5932 L69.4082 48.5932 "/>
<path d="M69.4082 48.5932 L69.3130 48.6408 "/>
<path d="M69.3130 48.6408 L69.2654 48.6884 "/>
<path d="M69.2654 48.6884 L69.2177 48.7836 "/>
<path d="M69.2177 48.7836 L69.2177 49.0693 "/>
<path d="M69.2177 49.0693 L69.2654 49.1646 "/>
<path d="M69.2654 49.1646 L69.3130 49.2122 "/>
<path d="M69.3130 49.2122 L69.4082 49.2598 "/>
<path d="M69.4082 49.2598 L69.5511 49.2598 "/>
<path d="M68.3606 49.2598 L68.3606 48.7360 "/>
<path d="M68.3606 48.7360 L68.4082 48.6408 "/>
<path d="M68.4082 48.6408 L68.5034 48.5932 "/>
<path d="M68.5034 48.5932 L68.6939 48.5932 "/>
<path d="M68.6939 48.5932 L68.7892 48.6408 "/>
<path d="M68.3606 49.2122 L68.4558 49.2598 "/>
<path d="M68.4558 49.2598 L68.6939 49.2598 "/>
<path d="M68.6939 49.2598 L68.7892 49.2122 "/>
<path d="M68.7892 49.2122 L68.8368 49.1170 "/>
<path d="M68.8368 49.1170 L68.8368 49.0217 "/>
<path d="M68.8368 49.0217 L68.7892 48.9265 "/>
<path d="M68.7892 48.9265 L68.6939 48.8789 "/>
<path d="M68.6939 48.8789 L68.4558 48.8789 "/>
<path d="M68.4558 48.8789 L68.3606 48.8312 "/>
<path d="M67.8844 49.2598 L67.8844 48.5932 "/>
<path d="M67.8844 48.7836 L67.8368 48.6884 "/>
<path d="M67.8368 48.6884 L67.7892 48.6408 "/>
<path d="M67.7892 48.6408 L67.6939 48.5932 "/>
<path d="M67.6939 48.5932 L67.5987 48.5932 "/>
<path d="M66.8368 49.2598 L66.8368 48.2598 "/>
<path d="M66.8368 49.2122 L66.9320 49.2598 "/>
<path d="M66.9320 49.2598 L67.1225 49.2598 "/>
<path d="M67.1225 49.2598 L67.2177 49.2122 "/>
<path d="M67.2177 49.2122 L67.2653 49.1646 "/>
<path d="M67.2653 49.1646 L67.3130 49.0693 "/>
<path d="M67.3130 49.0693 L67.3130 48.7836 "/>
<path d="M67.3130 48.7836 L67.2653 48.6884 "/>
<path d="M67.2653 48.6884 L67.2177 48.6408 "/>
<path d="M67.2177 48.6408 L67.1225 48.5932 "/>
<path d="M67.1225 48.5932 L66.9320 48.5932 "/>
<path d="M66.9320 48.5932 L66.8368 48.6408 "/>
</g><text x="66.5000" y="51.0000" transform="scale(-1 1) translate(-133.000000 0)" textLength="8.2226" font-size="1.3333" lengthAdjust="spacingAndGlyphs" text-anchor="end" opacity="0">BCB: 1.0.0</text>
<g class="stroked-text"><desc>BCB: 1.0.0</desc>
<path d="M74.0749 50.3460 L73.9320 50.3936 "/>
<path d="M73.9320 50.3936 L73.8844 50.4412 "/>
<path d="M73.8844 50.4412 L73.8368 50.5365 "/>
<path d="M73.8368 50.5365 L73.8368 50.6793 "/>
<path d="M73.8368 50.6793 L73.8844 50.7746 "/>
<path d="M73.8844 50.7746 L73.9320 50.8222 "/>
<path d="M73.9320 50.8222 L74.0273 50.8698 "/>
<path d="M74.0273 50.8698 L74.4082 50.8698 "/>
<path d="M74.4082 50.8698 L74.4082 49.8698 "/>
<path d="M74.4082 49.8698 L74.0749 49.8698 "/>
<path d="M74.0749 49.8698 L73.9796 49.9174 "/>
<path d="M73.9796 49.9174 L73.9320 49.9651 "/>
<path d="M73.9320 49.9651 L73.8844 50.0603 "/>
<path d="M73.8844 50.0603 L73.8844 50.1555 "/>
<path d="M73.8844 50.1555 L73.9320 50.2508 "/>
<path d="M73.9320 50.2508 L73.9796 50.2984 "/>
<path d="M73.9796 50.2984 L74.0749 50.3460 "/>
<path d="M74.0749 50.3460 L74.4082 50.3460 "/>
<path d="M72.8368 50.7746 L72.8844 50.8222 "/>
<path d="M72.8844 50.8222 L73.0273 50.8698 "/>
<path d="M73.0273 50.8698 L73.1225 50.8698 "/>
<path d="M73.1225 50.8698 L73.2653 50.8222 "/>
<path d="M73.2653 50.8222 L73.3606 50.7270 "/>
<path d="M73.3606 50.7270 L73.4082 50.6317 "/>
<path d="M73.4082 50.6317 L73.4558 50.4412 "/>
<path d="M73.4558 50.4412 L73.4558 50.2984 "/>
<path d="M73.4558 50.2984 L73.4082 50.1079 "/>
<path d="M73.4082 50.1079 L73.3606 50.0127 "/>
<path d="M73.3606 50.0127 L73.2653 49.9174 "/>
<path d="M73.2653 49.9174 L73.1225 49.8698 "/>
<path d="M73.1225 49.8698 L73.0273 49.8698 "/>
<path d="M73.0273 49.8698 L72.8844 49.9174 "/>
<path d="M72.8844 49.9174 L72.8368 49.9651 "/>
<path d="M72.0749 50.3460 L71.9320 50.3936 "/>
<path d="M71.9320 50.3936 L71.8844 50.4412 "/>
<path d="M71.8844 50.4412 L71.8368 50.5365 "/>
<path d="M71.8368 50.5365 L71.8368 50.6793 "/>
<path d="M71.8368 50.6793 L71.8844 50.7746 "/>
<path d="M71.8844 50.7746 L71.9320 50.8222 "/>
<path d="M71.9320 50.8222 L72.0273 50.8698 "/>
<path d="M72.0273 50.8698 L72.4082 50.8698 "/>
<path d="M72.4082 50.8698 L72.4082 49.8698 "/>
<path d="M72.4082 49.8698 L72.0749 49.8698 "/>
<path d="M72.0749 49.8698 L71.9796 49.9174 "/>
<path d="M71.9796 49.9174 L71.9320 49.9651 "/>
<path d="M71.9320 49.9651 L71.8844 50.0603 "/>
<path d="M71.8844 50.0603 L71.8844 50.1555 "/>
<path d="M71.8844 50.1555 L71.9320 50.2508 "/>
<path d="M71.9320 50.2508 L71.9796 50.2984 "/>
<path d="M71.9796 50.2984 L72.0749 50.3460 "/>
<path d="M72.0749 50.3460 L72.4082 50.3460 "/>
<path d="M71.4082 50.7746 L71.3606 50.8222 "/>
<path d="M71.3606 50.8222 L71.4082 50.8698 "/>
<path d="M71.4082 50.8698 L71.4558 50.8222 "/>
<path d="M71.4558 50.8222 L71.4082 50.7746 "/>
<path d="M71.4082 50.7746 L71.4082 50.8698 "/>
<path d="M71.4082 50.2508 L71.3606 50.2984 "/>
<path d="M71.3606 50.2984 L71.4082 50.3460 "/>
<path d="M71.4082 50.3460 L71.4558 50.2984 "/>
<path d="M71.4558 50.2984 L71.4082 50.2508 "/>
<path d="M71.4082 50.2508 L71.4082 50.3460 "/>
<path d="M69.6463 50.8698 L70.2177 50.8698 "/>
<path d="M69.9320 50.8698 L69.9320 49.8698 "/>
<path d="M69.9320 49.8698 L70.0273 50.0127 "/>
<path d="M70.0273 50.0127 L70.1225 50.1079 "/>
<path d="M70.1225 50.1079 L70.2177 50.1555 "/>
<path d="M69.2177 50.7746 L69.1701 50.8222 "/>
<path d="M69.1701 50.8222 L69.2177 50.8698 "/>
<path d="M69.2177 50.8698 L69.2653 50.8222 "/>
<path d="M69.2653 50.8222 L69.2177 50.7746 "/>
<path d="M69.2177 50.7746 L69.2177 50.8698 "/>
<path d="M68.5511 49.8698 L68.4558 49.8698 "/>
<path d="M68.4558 49.8698 L68.3606 49.9174 "/>
<path d="M68.3606 49.9174 L68.3130 49.9651 "/>
<path d="M68.3130 49.9651 L68.2653 50.0603 "/>
<path d="M68.2653 50.0603 L68.2177 50.2508 "/>
<path d="M68.2177 50.2508 L68.2177 50.4889 "/>
<path d="M68.2177 50.4889 L68.2653 50.6793 "/>
<path d="M68.2653 50.6793 L68.3130 50.7746 "/>
<path d="M68.3130 50.7746 L68.3606 50.8222 "/>
<path d="M68.3606 50.8222 L68.4558 50.8698 "/>
<path d="M68.4558 50.8698 L68.5511 50.8698 "/>
<path d="M68.5511 50.8698 L68.6463 50.8222 "/>
<path d="M68.6463 50.8222 L68.6939 50.7746 "/>
<path d="M68.6939 50.7746 L68.7415 50.6793 "/>
<path d="M68.7415 50.6793 L68.7892 50.4889 "/>
<path d="M68.7892 50.4889 L68.7892 50.2508 "/>
<path d="M68.7892 50.2508 L68.7415 50.0603 "/>
<path d="M68.7415 50.0603 L68.6939 49.9651 "/>
<path d="M68.6939 49.9651 L68.6463 49.9174 "/>
<path d="M68.6463 49.9174 L68.5511 49.8698 "/>
<path d="M67.7892 50.7746 L67.7415 50.8222 "/>
<path d="M67.7415 50.8222 L67.7892 50.8698 "/>
<path d="M67.7892 50.8698 L67.8368 50.8222 "/>
<path d="M67.8368 50.8222 L67.7892 50.7746 "/>
<path d="M67.7892 50.7746 L67.7892 50.8698 "/>
<path d="M67.1225 49.8698 L67.0273 49.8698 "/>
<path d="M67.0273 49.8698 L66.9320 49.9174 "/>
<path d="M66.9320 49.9174 L66.8844 49.9651 "/>
<path d="M66.8844 49.9651 L66.8368 50.0603 "/>
<path d="M66.8368 50.0603 L66.7892 50.2508 "/>
<path d="M66.7892 50.2508 L66.7892 50.4889 "/>
<path d="M66.7892 50.4889 L66.8368 50.6793 "/>
<path d="M66.8368 50.6793 L66.8844 50.7746 "/>
<path d="M66.8844 50.7746 L66.9320 50.8222 "/>
<path d="M66.9320 50.8222 L67.0273 50.8698 "/>
<path d="M67.0273 50.8698 L67.1225 50.8698 "/>
<path d="M67.1225 50.8698 L67.2177 50.8222 "/>
<path d="M67.2177 50.8222 L67.2653 50.7746 "/>
<path d="M67.2653 50.7746 L67.3130 50.6793 "/>
<path d="M67.3130 50.6793 L67.3606 50.4889 "/>
<path d="M67.3606 50.4889 L67.3606 50.2508 "/>
<path d="M67.3606 50.2508 L67.3130 50.0603 "/>
<path d="M67.3130 50.0603 L67.2653 49.9651 "/>
<path d="M67.2653 49.9651 L67.2177 49.9174 "/>
<path d="M67.2177 49.9174 L67.1225 49.8698 "/>
</g><g transform="rotate(-90.000000 92.8000 54.0000)">
<text x="92.8000" y="54.5000" transform="scale(-1 1) translate(-185.600000 0)" textLength="1.8893" font-size="1.3333" lengthAdjust="spacingAndGlyphs" text-anchor="middle" opacity="0">J1</text>
</g>
<g class="stroked-text"><desc>J1</desc>
<path d="M92.2548 53.6667 L92.9691 53.6667 "/>
<path d="M92.9691 53.6667 L93.1120 53.6190 "/>
<path d="M93.1120 53.6190 L93.2072 53.5238 "/>
<path d="M93.2072 53.5238 L93.2548 53.3810 "/>
<path d="M93.2548 53.3810 L93.2548 53.2857 "/>
<path d="M93.2548 54.6667 L93.2548 54.0952 "/>
<path d="M93.2548 54.3810 L92.2548 54.3810 "/>
<path d="M92.2548 54.3810 L92.3977 54.2857 "/>
<path d="M92.3977 54.2857 L92.4929 54.1905 "/>
<path d="M92.4929 54.1905 L92.5405 54.0952 "/>
</g></g>
<g style="fill-opacity: 0.0;stroke-width: 0.1200;stroke-opacity: 1;stroke-linecap: round;stroke-linejoin: round">
<path d="M88.9400 62.0600 L88.9400 57.9400 "/>
<path d="M89.2400 62.0600 L88.9400 62.0600 "/>
<path d="M91.2400 62.0600 L90.7600 62.0600 "/>
<path d="M93.0600 62.0600 L92.7600 62.0600 "/>
<path d="M93.0600 62.0600 L93.0600 57.9400 "/>
<path d="M89.2400 57.9400 L88.9400 57.9400 "/>
<path d="M91.2400 57.9400 L90.7600 57.9400 "/>
<path d="M92.7600 57.9400 L92.7600 55.5600 "/>
<path d="M93.0600 57.9400 L92.7600 57.9400 "/>
</g> 
</g><g id="substrate-outline" style="fill:#000000; stroke:#000000; stroke-width: 0.15"><g style="fill-opacity: 0.0;stroke-opacity: 1;stroke-linecap: round;stroke-linejoin: round">
<path d="M66.0000 73.0000 A1.0000 1.0000 0.0 0 0 67.0000 74.0000"/>
<circle cx="80.0000" cy="60.0000" r="6.1000"/> 
<path d="M94.0000 47.0000 L94.0000 73.0000 "/>
<path d="M66.0000 73.0000 L66.0000 47.0000 "/>
<path d="M93.0000 74.0000 A1.0000 1.0000 0.0 0 0 94.0000 73.0000"/>
<path d="M67.0000 46.0000 L93.0000 46.0000 "/>
<path d="M93.0000 74.0000 L67.0000 74.0000 "/>
<path d="M67.0000 46.0000 A1.0000 1.0000 0.0 0 0 66.0000 47.0000"/>
<path d="M94.0000 47.0000 A1.0000 1.0000 0.0 0 0 93.0000 46.0000"/>
</g> 
<path d="M -0.2 0.0 A 0.2 0.2 0 1 1 0.2 0.0 L 0.2 -0.0 A 0.2 0.2 0 1 1 -0.2 -0.0 Z" transform="translate(89.5 61.1) rotate(-0.0)"/><path d="M -0.2 0.0 A 0.2 0.2 0 1 1 0.2 0.0 L 0.2 -0.0 A 0.2 0.2 0 1 1 -0.2 -0.0 Z" transform="translate(88.1 63.1) rotate(-0.0)"/><path d="M -0.2 0.0 A 0.2 0.2 0 1 1 0.2 0.0 L 0.2 -0.0 A 0.2 0.2 0 1 1 -0.2 -0.0 Z" transform="translate(89.726279 65.15359) rotate(-0.0)"/><path d="M -0.2 0.0 A 0.2 0.2 0 1 1 0.2 0.0 L 0.2 -0.0 A 0.2 0.2 0 1 1 -0.2 -0.0 Z" transform="translate(69.0 60.4) rotate(-0.0)"/><path d="M -0.2 0.0 A 0.2 0.2 0 1 1 0.2 0.0 L 0.2 -0.0 A 0.2 0.2 0 1 1 -0.2 -0.0 Z" transform="translate(80.4 71.0) rotate(-0.0)"/><path d="M -0.2 0.0 A 0.2 0.2 0 1 1 0.2 0.0 L 0.2 -0.0 A 0.2 0.2 0 1 1 -0.2 -0.0 Z" transform="translate(85.15359 50.273721) rotate(-0.0)"/><path d="M -0.2 0.0 A 0.2 0.2 0 1 1 0.2 0.0 L 0.2 -0.0 A 0.2 0.2 0 1 1 -0.2 -0.0 Z" transform="translate(74.15359 50.673721) rotate(-0.0)"/><path d="M -0.2 0.0 A 0.2 0.2 0 1 1 0.2 0.0 L 0.2 -0.0 A 0.2 0.2 0 1 1 -0.2 -0.0 Z" transform="translate(79.6 49.0) rotate(-0.0)"/><path d="M -0.2 0.0 A 0.2 0.2 0 1 1 0.2 0.0 L 0.2 -0.0 A 0.2 0.2 0 1 1 -0.2 -0.0 Z" transform="translate(70.273721 54.84641) rotate(-0.0)"/><path d="M -0.2 0.0 A 0.2 0.2 0 1 1 0.2 0.0 L 0.2 -0.0 A 0.2 0.2 0 1 1 -0.2 -0.0 Z" transform="translate(89.326279 54.15359) rotate(-0.0)"/><path d="M -0.2 0.0 A 0.2 0.2 0 1 1 0.2 0.0 L 0.2 -0.0 A 0.2 0.2 0 1 1 -0.2 -0.0 Z" transform="translate(85.84641 69.326279) rotate(-0.0)"/><path d="M -0.2 0.0 A 0.2 0.2 0 1 1 0.2 0.0 L 0.2 -0.0 A 0.2 0.2 0 1 1 -0.2 -0.0 Z" transform="translate(74.84641 69.726279) rotate(-0.0)"/><path d="M -0.2 0.0 A 0.2 0.2 0 1 1 0.2 0.0 L 0.2 -0.0 A 0.2 0.2 0 1 1 -0.2 -0.0 Z" transform="translate(91.0 59.6) rotate(-0.0)"/><path d="M -0.2 0.0 A 0.2 0.2 0 1 1 0.2 0.0 L 0.2 -0.0 A 0.2 0.2 0 1 1 -0.2 -0.0 Z" transform="translate(70.673721 65.84641) rotate(-0.0)"/><path d="M -0.2 0.0 A 0.2 0.2 0 1 1 0.2 0.0 L 0.2 -0.0 A 0.2 0.2 0 1 1 -0.2 -0.0 Z" transform="translate(92.0 65.0) rotate(-0.0)"/><path d="M -0.2 0.0 A 0.2 0.2 0 1 1 0.2 0.0 L 0.2 -0.0 A 0.2 0.2 0 1 1 -0.2 -0.0 Z" transform="translate(93.0 61.2) rotate(-0.0)"/><path d="M -0.2 0.0 A 0.2 0.2 0 1 1 0.2 0.0 L 0.2 -0.0 A 0.2 0.2 0 1 1 -0.2 -0.0 Z" transform="translate(93.0 62.6) rotate(-0.0)"/><path d="M -0.2 0.0 A 0.2 0.2 0 1 1 0.2 0.0 L 0.2 -0.0 A 0.2 0.2 0 1 1 -0.2 -0.0 Z" transform="translate(93.0 65.0) rotate(-0.0)"/><path d="M -0.2 0.0 A 0.2 0.2 0 1 1 0.2 0.0 L 0.2 -0.0 A 0.2 0.2 0 1 1 -0.2 -0.0 Z" transform="translate(93.0 63.8) rotate(-0.0)"/><path d="M -0.2 0.0 A 0.2 0.2 0 1 1 0.2 0.0 L 0.2 -0.0 A 0.2 0.2 0 1 1 -0.2 -0.0 Z" transform="translate(92.0 61.2) rotate(-0.0)"/></g></g><g id="substrate-paste" style="fill:#8a8a8a; stroke:#8a8a8a;"><g style="fill-opacity: 0.0;stroke-width: 0.0000;stroke-opacity: 1;stroke-linecap: round;stroke-linejoin: round">
<g style="fill-opacity: 1.0000;stroke-width: 0.0000;stroke-opacity: 1;stroke-linecap: round;stroke-linejoin: round">
<path style="fill-opacity: 1.0000;stroke-width: 0.0000;stroke-opacity: 1;stroke-linecap: round;stroke-linejoin: round;fill-rule: evenodd" d="M 92.5000,58.2500 91.5000,58.2500 91.5000,55.5000 92.5000,55.5000 Z"/> 
<path style="fill-opacity: 1.0000;stroke-width: 0.0000;stroke-opacity: 1;stroke-linecap: round;stroke-linejoin: round;fill-rule: evenodd" d="M 92.5000,64.5000 91.5000,64.5000 91.5000,61.7500 92.5000,61.7500 Z"/> 
<path style="fill-opacity: 1.0000;stroke-width: 0.0000;stroke-opacity: 1;stroke-linecap: round;stroke-linejoin: round;fill-rule: evenodd" d="M 90.5000,58.2500 89.5000,58.2500 89.5000,55.5000 90.5000,55.5000 Z"/> 
<path style="fill-opacity: 1.0000;stroke-width: 0.0000;stroke-opacity: 1;stroke-linecap: round;stroke-linejoin: round;fill-rule: evenodd" d="M 90.5000,64.5000 89.5000,64.5000 89.5000,61.7500 90.5000,61.7500 Z"/> 
</g>
</g> 
</g></g></svg>