<?xml version="1.0" standalone="no"?>
 <!DOCTYPE svg PUBLIC "-//W3C//DTD SVG 1.1//EN" 
 "http://www.w3.org/Graphics/SVG/1.1/DTD/svg11.dtd"> 
<svg
  xmlns:svg="http://www.w3.org/2000/svg"
  xmlns="http://www.w3.org/2000/svg"
  xmlns:xlink="http://www.w3.org/1999/xlink"
  version="1.1"
  width="297.0022mm" height="210.0072mm" viewBox="0.0000 0.0000 297.0022 210.0072">
<title>SVG Image created as pedalboard-led-ring-B_Fab.svg date 2023/05/31 21:04:14 </title>
  <desc>Image generated by PCBNEW </desc>
<g style="fill:#000000; fill-opacity:1.0000;stroke:#000000; stroke-opacity:1.0000;
stroke-linecap:round; stroke-linejoin:round;"
 transform="translate(0 0) scale(1 1)">
</g>
<g style="fill:#000000; fill-opacity:0.0; 
stroke:#000000; stroke-width:0.0000; stroke-opacity:1; 
stroke-linecap:round; stroke-linejoin:round;">
</g>
<g style="fill:#000000; fill-opacity:0.0; 
stroke:#000000; stroke-width:0.1500; stroke-opacity:1; 
stroke-linecap:round; stroke-linejoin:round;">
<g transform="rotate(-90.000000 209.5022 60.0000)">
<text x="209.5022" y="60.5000"
transform="scale(-1 1) translate(-419.004400 0)"
textLength="17.0798" font-size="1.3333" lengthAdjust="spacingAndGlyphs"
text-anchor="middle" opacity="0">Conn_02x02_Odd_Even</text>
</g>
<g class="stroked-text"><desc>Conn_02x02_Odd_Even</desc>
<path d="M209.1426 52.3571
L209.0950 52.3095
" />
<path d="M209.0950 52.3095
L209.0474 52.1667
" />
<path d="M209.0474 52.1667
L209.0474 52.0714
" />
<path d="M209.0474 52.0714
L209.0950 51.9286
" />
<path d="M209.0950 51.9286
L209.1902 51.8333
" />
<path d="M209.1902 51.8333
L209.2855 51.7857
" />
<path d="M209.2855 51.7857
L209.4760 51.7381
" />
<path d="M209.4760 51.7381
L209.6188 51.7381
" />
<path d="M209.6188 51.7381
L209.8093 51.7857
" />
<path d="M209.8093 51.7857
L209.9045 51.8333
" />
<path d="M209.9045 51.8333
L209.9998 51.9286
" />
<path d="M209.9998 51.9286
L210.0474 52.0714
" />
<path d="M210.0474 52.0714
L210.0474 52.1667
" />
<path d="M210.0474 52.1667
L209.9998 52.3095
" />
<path d="M209.9998 52.3095
L209.9521 52.3571
" />
<path d="M209.0474 52.9286
L209.0950 52.8333
" />
<path d="M209.0950 52.8333
L209.1426 52.7857
" />
<path d="M209.1426 52.7857
L209.2379 52.7381
" />
<path d="M209.2379 52.7381
L209.5236 52.7381
" />
<path d="M209.5236 52.7381
L209.6188 52.7857
" />
<path d="M209.6188 52.7857
L209.6664 52.8333
" />
<path d="M209.6664 52.8333
L209.7140 52.9286
" />
<path d="M209.7140 52.9286
L209.7140 53.0714
" />
<path d="M209.7140 53.0714
L209.6664 53.1667
" />
<path d="M209.6664 53.1667
L209.6188 53.2143
" />
<path d="M209.6188 53.2143
L209.5236 53.2619
" />
<path d="M209.5236 53.2619
L209.2379 53.2619
" />
<path d="M209.2379 53.2619
L209.1426 53.2143
" />
<path d="M209.1426 53.2143
L209.0950 53.1667
" />
<path d="M209.0950 53.1667
L209.0474 53.0714
" />
<path d="M209.0474 53.0714
L209.0474 52.9286
" />
<path d="M209.7140 53.6905
L209.0474 53.6905
" />
<path d="M209.6188 53.6905
L209.6664 53.7381
" />
<path d="M209.6664 53.7381
L209.7140 53.8333
" />
<path d="M209.7140 53.8333
L209.7140 53.9762
" />
<path d="M209.7140 53.9762
L209.6664 54.0714
" />
<path d="M209.6664 54.0714
L209.5712 54.1190
" />
<path d="M209.5712 54.1190
L209.0474 54.1190
" />
<path d="M209.7140 54.5952
L209.0474 54.5952
" />
<path d="M209.6188 54.5952
L209.6664 54.6429
" />
<path d="M209.6664 54.6429
L209.7140 54.7381
" />
<path d="M209.7140 54.7381
L209.7140 54.8810
" />
<path d="M209.7140 54.8810
L209.6664 54.9762
" />
<path d="M209.6664 54.9762
L209.5712 55.0238
" />
<path d="M209.5712 55.0238
L209.0474 55.0238
" />
<path d="M208.9521 55.2619
L208.9521 56.0238
" />
<path d="M210.0474 56.4524
L210.0474 56.5476
" />
<path d="M210.0474 56.5476
L209.9998 56.6429
" />
<path d="M209.9998 56.6429
L209.9521 56.6905
" />
<path d="M209.9521 56.6905
L209.8569 56.7381
" />
<path d="M209.8569 56.7381
L209.6664 56.7857
" />
<path d="M209.6664 56.7857
L209.4283 56.7857
" />
<path d="M209.4283 56.7857
L209.2379 56.7381
" />
<path d="M209.2379 56.7381
L209.1426 56.6905
" />
<path d="M209.1426 56.6905
L209.0950 56.6429
" />
<path d="M209.0950 56.6429
L209.0474 56.5476
" />
<path d="M209.0474 56.5476
L209.0474 56.4524
" />
<path d="M209.0474 56.4524
L209.0950 56.3571
" />
<path d="M209.0950 56.3571
L209.1426 56.3095
" />
<path d="M209.1426 56.3095
L209.2379 56.2619
" />
<path d="M209.2379 56.2619
L209.4283 56.2143
" />
<path d="M209.4283 56.2143
L209.6664 56.2143
" />
<path d="M209.6664 56.2143
L209.8569 56.2619
" />
<path d="M209.8569 56.2619
L209.9521 56.3095
" />
<path d="M209.9521 56.3095
L209.9998 56.3571
" />
<path d="M209.9998 56.3571
L210.0474 56.4524
" />
<path d="M209.9521 57.1667
L209.9998 57.2143
" />
<path d="M209.9998 57.2143
L210.0474 57.3095
" />
<path d="M210.0474 57.3095
L210.0474 57.5476
" />
<path d="M210.0474 57.5476
L209.9998 57.6429
" />
<path d="M209.9998 57.6429
L209.9521 57.6905
" />
<path d="M209.9521 57.6905
L209.8569 57.7381
" />
<path d="M209.8569 57.7381
L209.7617 57.7381
" />
<path d="M209.7617 57.7381
L209.6188 57.6905
" />
<path d="M209.6188 57.6905
L209.0474 57.1190
" />
<path d="M209.0474 57.1190
L209.0474 57.7381
" />
<path d="M209.0474 58.0714
L209.7140 58.5952
" />
<path d="M209.7140 58.0714
L209.0474 58.5952
" />
<path d="M210.0474 59.1667
L210.0474 59.2619
" />
<path d="M210.0474 59.2619
L209.9998 59.3571
" />
<path d="M209.9998 59.3571
L209.9521 59.4048
" />
<path d="M209.9521 59.4048
L209.8569 59.4524
" />
<path d="M209.8569 59.4524
L209.6664 59.5000
" />
<path d="M209.6664 59.5000
L209.4283 59.5000
" />
<path d="M209.4283 59.5000
L209.2379 59.4524
" />
<path d="M209.2379 59.4524
L209.1426 59.4048
" />
<path d="M209.1426 59.4048
L209.0950 59.3571
" />
<path d="M209.0950 59.3571
L209.0474 59.2619
" />
<path d="M209.0474 59.2619
L209.0474 59.1667
" />
<path d="M209.0474 59.1667
L209.0950 59.0714
" />
<path d="M209.0950 59.0714
L209.1426 59.0238
" />
<path d="M209.1426 59.0238
L209.2379 58.9762
" />
<path d="M209.2379 58.9762
L209.4283 58.9286
" />
<path d="M209.4283 58.9286
L209.6664 58.9286
" />
<path d="M209.6664 58.9286
L209.8569 58.9762
" />
<path d="M209.8569 58.9762
L209.9521 59.0238
" />
<path d="M209.9521 59.0238
L209.9998 59.0714
" />
<path d="M209.9998 59.0714
L210.0474 59.1667
" />
<path d="M209.9521 59.8810
L209.9998 59.9286
" />
<path d="M209.9998 59.9286
L210.0474 60.0238
" />
<path d="M210.0474 60.0238
L210.0474 60.2619
" />
<path d="M210.0474 60.2619
L209.9998 60.3571
" />
<path d="M209.9998 60.3571
L209.9521 60.4048
" />
<path d="M209.9521 60.4048
L209.8569 60.4524
" />
<path d="M209.8569 60.4524
L209.7617 60.4524
" />
<path d="M209.7617 60.4524
L209.6188 60.4048
" />
<path d="M209.6188 60.4048
L209.0474 59.8333
" />
<path d="M209.0474 59.8333
L209.0474 60.4524
" />
<path d="M208.9521 60.6429
L208.9521 61.4048
" />
<path d="M210.0474 61.8333
L210.0474 62.0238
" />
<path d="M210.0474 62.0238
L209.9998 62.1190
" />
<path d="M209.9998 62.1190
L209.9045 62.2143
" />
<path d="M209.9045 62.2143
L209.7140 62.2619
" />
<path d="M209.7140 62.2619
L209.3807 62.2619
" />
<path d="M209.3807 62.2619
L209.1902 62.2143
" />
<path d="M209.1902 62.2143
L209.0950 62.1190
" />
<path d="M209.0950 62.1190
L209.0474 62.0238
" />
<path d="M209.0474 62.0238
L209.0474 61.8333
" />
<path d="M209.0474 61.8333
L209.0950 61.7381
" />
<path d="M209.0950 61.7381
L209.1902 61.6429
" />
<path d="M209.1902 61.6429
L209.3807 61.5952
" />
<path d="M209.3807 61.5952
L209.7140 61.5952
" />
<path d="M209.7140 61.5952
L209.9045 61.6429
" />
<path d="M209.9045 61.6429
L209.9998 61.7381
" />
<path d="M209.9998 61.7381
L210.0474 61.8333
" />
<path d="M209.0474 63.1190
L210.0474 63.1190
" />
<path d="M209.0950 63.1190
L209.0474 63.0238
" />
<path d="M209.0474 63.0238
L209.0474 62.8333
" />
<path d="M209.0474 62.8333
L209.0950 62.7381
" />
<path d="M209.0950 62.7381
L209.1426 62.6905
" />
<path d="M209.1426 62.6905
L209.2379 62.6429
" />
<path d="M209.2379 62.6429
L209.5236 62.6429
" />
<path d="M209.5236 62.6429
L209.6188 62.6905
" />
<path d="M209.6188 62.6905
L209.6664 62.7381
" />
<path d="M209.6664 62.7381
L209.7140 62.8333
" />
<path d="M209.7140 62.8333
L209.7140 63.0238
" />
<path d="M209.7140 63.0238
L209.6664 63.1190
" />
<path d="M209.0474 64.0238
L210.0474 64.0238
" />
<path d="M209.0950 64.0238
L209.0474 63.9286
" />
<path d="M209.0474 63.9286
L209.0474 63.7381
" />
<path d="M209.0474 63.7381
L209.0950 63.6429
" />
<path d="M209.0950 63.6429
L209.1426 63.5952
" />
<path d="M209.1426 63.5952
L209.2379 63.5476
" />
<path d="M209.2379 63.5476
L209.5236 63.5476
" />
<path d="M209.5236 63.5476
L209.6188 63.5952
" />
<path d="M209.6188 63.5952
L209.6664 63.6429
" />
<path d="M209.6664 63.6429
L209.7140 63.7381
" />
<path d="M209.7140 63.7381
L209.7140 63.9286
" />
<path d="M209.7140 63.9286
L209.6664 64.0238
" />
<path d="M208.9521 64.2619
L208.9521 65.0238
" />
<path d="M209.5712 65.2619
L209.5712 65.5952
" />
<path d="M209.0474 65.7381
L209.0474 65.2619
" />
<path d="M209.0474 65.2619
L210.0474 65.2619
" />
<path d="M210.0474 65.2619
L210.0474 65.7381
" />
<path d="M209.7140 66.0714
L209.0474 66.3095
" />
<path d="M209.0474 66.3095
L209.7140 66.5476
" />
<path d="M209.0950 67.3095
L209.0474 67.2143
" />
<path d="M209.0474 67.2143
L209.0474 67.0238
" />
<path d="M209.0474 67.0238
L209.0950 66.9286
" />
<path d="M209.0950 66.9286
L209.1902 66.8810
" />
<path d="M209.1902 66.8810
L209.5712 66.8810
" />
<path d="M209.5712 66.8810
L209.6664 66.9286
" />
<path d="M209.6664 66.9286
L209.7140 67.0238
" />
<path d="M209.7140 67.0238
L209.7140 67.2143
" />
<path d="M209.7140 67.2143
L209.6664 67.3095
" />
<path d="M209.6664 67.3095
L209.5712 67.3571
" />
<path d="M209.5712 67.3571
L209.4760 67.3571
" />
<path d="M209.4760 67.3571
L209.3807 66.8810
" />
<path d="M209.7140 67.7857
L209.0474 67.7857
" />
<path d="M209.6188 67.7857
L209.6664 67.8333
" />
<path d="M209.6664 67.8333
L209.7140 67.9286
" />
<path d="M209.7140 67.9286
L209.7140 68.0714
" />
<path d="M209.7140 68.0714
L209.6664 68.1667
" />
<path d="M209.6664 68.1667
L209.5712 68.2143
" />
<path d="M209.5712 68.2143
L209.0474 68.2143
" />
</g><text x="206.0022" y="60.5000"
transform="scale(-1 1) translate(-412.004400 0)"
textLength="1.8893" font-size="1.3333" lengthAdjust="spacingAndGlyphs"
text-anchor="middle" opacity="0">J1</text>
<g class="stroked-text"><desc>J1</desc>
<path d="M205.6689 59.4548
L205.6689 60.1691
" />
<path d="M205.6689 60.1691
L205.6212 60.3120
" />
<path d="M205.6212 60.3120
L205.5260 60.4072
" />
<path d="M205.5260 60.4072
L205.3832 60.4548
" />
<path d="M205.3832 60.4548
L205.2879 60.4548
" />
<path d="M206.6689 60.4548
L206.0974 60.4548
" />
<path d="M206.3832 60.4548
L206.3832 59.4548
" />
<path d="M206.3832 59.4548
L206.2879 59.5977
" />
<path d="M206.2879 59.5977
L206.1927 59.6929
" />
<path d="M206.1927 59.6929
L206.0974 59.7405
" />
</g></g>
<g style="fill:#000000; fill-opacity:0.0; 
stroke:#000000; stroke-width:0.1000; stroke-opacity:1; 
stroke-linecap:round; stroke-linejoin:round;">
<path d="M207.2522 63.0000
L206.7522 63.0000
" />
<path d="M206.7522 63.0000
L206.7522 62.0000
" />
<path d="M205.2522 63.0000
L204.7522 63.0000
" />
<path d="M204.7522 63.0000
L204.7522 62.0000
" />
<path d="M208.0022 62.0000
L204.0022 62.0000
" />
<path d="M207.2522 62.0000
L207.2522 63.0000
" />
<path d="M205.2522 62.0000
L205.2522 63.0000
" />
<path d="M204.0022 62.0000
L204.0022 59.0000
" />
<path d="M204.0022 59.0000
L205.0022 58.0000
" />
<path d="M208.0022 58.0000
L208.0022 62.0000
" />
<path d="M206.7522 58.0000
L206.7522 57.0000
" />
<path d="M205.0022 58.0000
L208.0022 58.0000
" />
<path d="M204.7522 58.0000
L204.7522 57.0000
" />
<path d="M207.2522 57.0000
L207.2522 58.0000
" />
<path d="M206.7522 57.0000
L207.2522 57.0000
" />
<path d="M205.2522 57.0000
L205.2522 58.0000
" />
<path d="M204.7522 57.0000
L205.2522 57.0000
" />
<g >
</g>
<g >
</g>
<g >
</g>
<g >
</g>
<g >
</g>
<g >
</g>
<g >
</g>
<g >
</g>
<g >
</g>
<g >
</g>
<g >
</g>
<g >
</g>
<g >
</g>
<g >
</g>
<g >
</g>
<g >
</g>
<g >
</g>
<g >
</g>
<g >
</g>
<g >
</g>
<g >
</g>
<g >
</g>
<g >
</g>
<g >
</g>
<g >
</g>
<g >
</g>
<g >
</g>
<g >
</g>
</g> 
</svg>
