<?xml version="1.0" standalone="no"?>
 <!DOCTYPE svg PUBLIC "-//W3C//DTD SVG 1.1//EN" 
 "http://www.w3.org/Graphics/SVG/1.1/DTD/svg11.dtd"> 
<svg
  xmlns:svg="http://www.w3.org/2000/svg"
  xmlns="http://www.w3.org/2000/svg"
  xmlns:xlink="http://www.w3.org/1999/xlink"
  version="1.1"
  width="297.0022mm" height="210.0072mm" viewBox="0.0000 0.0000 297.0022 210.0072">
<title>SVG Image created as pedalboard-led-ring-B_Fab.svg date 2023/06/03 12:41:33 </title>
  <desc>Image generated by PCBNEW </desc>
<g style="fill:#000000; fill-opacity:1.0000;stroke:#000000; stroke-opacity:1.0000;
stroke-linecap:round; stroke-linejoin:round;"
 transform="translate(0 0) scale(1 1)">
</g>
<g style="fill:#000000; fill-opacity:0.0; 
stroke:#000000; stroke-width:0.0000; stroke-opacity:1; 
stroke-linecap:round; stroke-linejoin:round;">
</g>
<g style="fill:#000000; fill-opacity:0.0; 
stroke:#000000; stroke-width:0.1500; stroke-opacity:1; 
stroke-linecap:round; stroke-linejoin:round;">
<g transform="rotate(-90.000000 210.5022 60.0000)">
<text x="210.5022" y="60.5000"
transform="scale(-1 1) translate(-421.004400 0)"
textLength="5.1750" font-size="1.3333" lengthAdjust="spacingAndGlyphs"
text-anchor="middle" opacity="0">middle</text>
</g>
<g class="stroked-text"><desc>middle</desc>
<path d="M210.0474 57.7381
L210.7140 57.7381
" />
<path d="M210.6188 57.7381
L210.6664 57.7857
" />
<path d="M210.6664 57.7857
L210.7140 57.8810
" />
<path d="M210.7140 57.8810
L210.7140 58.0238
" />
<path d="M210.7140 58.0238
L210.6664 58.1190
" />
<path d="M210.6664 58.1190
L210.5712 58.1667
" />
<path d="M210.5712 58.1667
L210.0474 58.1667
" />
<path d="M210.5712 58.1667
L210.6664 58.2143
" />
<path d="M210.6664 58.2143
L210.7140 58.3095
" />
<path d="M210.7140 58.3095
L210.7140 58.4524
" />
<path d="M210.7140 58.4524
L210.6664 58.5476
" />
<path d="M210.6664 58.5476
L210.5712 58.5952
" />
<path d="M210.5712 58.5952
L210.0474 58.5952
" />
<path d="M210.0474 59.0714
L210.7140 59.0714
" />
<path d="M211.0474 59.0714
L210.9998 59.0238
" />
<path d="M210.9998 59.0238
L210.9521 59.0714
" />
<path d="M210.9521 59.0714
L210.9998 59.1190
" />
<path d="M210.9998 59.1190
L211.0474 59.0714
" />
<path d="M211.0474 59.0714
L210.9521 59.0714
" />
<path d="M210.0474 59.9762
L211.0474 59.9762
" />
<path d="M210.0950 59.9762
L210.0474 59.8810
" />
<path d="M210.0474 59.8810
L210.0474 59.6905
" />
<path d="M210.0474 59.6905
L210.0950 59.5952
" />
<path d="M210.0950 59.5952
L210.1426 59.5476
" />
<path d="M210.1426 59.5476
L210.2379 59.5000
" />
<path d="M210.2379 59.5000
L210.5236 59.5000
" />
<path d="M210.5236 59.5000
L210.6188 59.5476
" />
<path d="M210.6188 59.5476
L210.6664 59.5952
" />
<path d="M210.6664 59.5952
L210.7140 59.6905
" />
<path d="M210.7140 59.6905
L210.7140 59.8810
" />
<path d="M210.7140 59.8810
L210.6664 59.9762
" />
<path d="M210.0474 60.8810
L211.0474 60.8810
" />
<path d="M210.0950 60.8810
L210.0474 60.7857
" />
<path d="M210.0474 60.7857
L210.0474 60.5952
" />
<path d="M210.0474 60.5952
L210.0950 60.5000
" />
<path d="M210.0950 60.5000
L210.1426 60.4524
" />
<path d="M210.1426 60.4524
L210.2379 60.4048
" />
<path d="M210.2379 60.4048
L210.5236 60.4048
" />
<path d="M210.5236 60.4048
L210.6188 60.4524
" />
<path d="M210.6188 60.4524
L210.6664 60.5000
" />
<path d="M210.6664 60.5000
L210.7140 60.5952
" />
<path d="M210.7140 60.5952
L210.7140 60.7857
" />
<path d="M210.7140 60.7857
L210.6664 60.8810
" />
<path d="M210.0474 61.5000
L210.0950 61.4048
" />
<path d="M210.0950 61.4048
L210.1902 61.3571
" />
<path d="M210.1902 61.3571
L211.0474 61.3571
" />
<path d="M210.0950 62.2619
L210.0474 62.1667
" />
<path d="M210.0474 62.1667
L210.0474 61.9762
" />
<path d="M210.0474 61.9762
L210.0950 61.8810
" />
<path d="M210.0950 61.8810
L210.1902 61.8333
" />
<path d="M210.1902 61.8333
L210.5712 61.8333
" />
<path d="M210.5712 61.8333
L210.6664 61.8810
" />
<path d="M210.6664 61.8810
L210.7140 61.9762
" />
<path d="M210.7140 61.9762
L210.7140 62.1667
" />
<path d="M210.7140 62.1667
L210.6664 62.2619
" />
<path d="M210.6664 62.2619
L210.5712 62.3095
" />
<path d="M210.5712 62.3095
L210.4760 62.3095
" />
<path d="M210.4760 62.3095
L210.3807 61.8333
" />
</g><text x="207.0022" y="60.5000"
transform="scale(-1 1) translate(-414.004400 0)"
textLength="1.8893" font-size="1.3333" lengthAdjust="spacingAndGlyphs"
text-anchor="middle" opacity="0">J1</text>
<g class="stroked-text"><desc>J1</desc>
<path d="M206.6689 59.4548
L206.6689 60.1691
" />
<path d="M206.6689 60.1691
L206.6212 60.3120
" />
<path d="M206.6212 60.3120
L206.5260 60.4072
" />
<path d="M206.5260 60.4072
L206.3832 60.4548
" />
<path d="M206.3832 60.4548
L206.2879 60.4548
" />
<path d="M207.6689 60.4548
L207.0974 60.4548
" />
<path d="M207.3832 60.4548
L207.3832 59.4548
" />
<path d="M207.3832 59.4548
L207.2879 59.5977
" />
<path d="M207.2879 59.5977
L207.1927 59.6929
" />
<path d="M207.1927 59.6929
L207.0974 59.7405
" />
</g><text x="207.0022" y="67.0000"
transform="scale(-1 1) translate(-414.004400 0)"
textLength="3.6988" font-size="1.3333" lengthAdjust="spacingAndGlyphs"
text-anchor="middle" opacity="0">edge</text>
<g class="stroked-text"><desc>edge</desc>
<path d="M205.8593 66.9072
L205.7641 66.9548
" />
<path d="M205.7641 66.9548
L205.5736 66.9548
" />
<path d="M205.5736 66.9548
L205.4784 66.9072
" />
<path d="M205.4784 66.9072
L205.4308 66.8120
" />
<path d="M205.4308 66.8120
L205.4308 66.4310
" />
<path d="M205.4308 66.4310
L205.4784 66.3358
" />
<path d="M205.4784 66.3358
L205.5736 66.2882
" />
<path d="M205.5736 66.2882
L205.7641 66.2882
" />
<path d="M205.7641 66.2882
L205.8593 66.3358
" />
<path d="M205.8593 66.3358
L205.9070 66.4310
" />
<path d="M205.9070 66.4310
L205.9070 66.5262
" />
<path d="M205.9070 66.5262
L205.4308 66.6215
" />
<path d="M206.7641 66.9548
L206.7641 65.9548
" />
<path d="M206.7641 66.9072
L206.6689 66.9548
" />
<path d="M206.6689 66.9548
L206.4784 66.9548
" />
<path d="M206.4784 66.9548
L206.3832 66.9072
" />
<path d="M206.3832 66.9072
L206.3355 66.8596
" />
<path d="M206.3355 66.8596
L206.2879 66.7643
" />
<path d="M206.2879 66.7643
L206.2879 66.4786
" />
<path d="M206.2879 66.4786
L206.3355 66.3834
" />
<path d="M206.3355 66.3834
L206.3832 66.3358
" />
<path d="M206.3832 66.3358
L206.4784 66.2882
" />
<path d="M206.4784 66.2882
L206.6689 66.2882
" />
<path d="M206.6689 66.2882
L206.7641 66.3358
" />
<path d="M207.6689 66.2882
L207.6689 67.0977
" />
<path d="M207.6689 67.0977
L207.6212 67.1929
" />
<path d="M207.6212 67.1929
L207.5736 67.2405
" />
<path d="M207.5736 67.2405
L207.4784 67.2882
" />
<path d="M207.4784 67.2882
L207.3355 67.2882
" />
<path d="M207.3355 67.2882
L207.2403 67.2405
" />
<path d="M207.6689 66.9072
L207.5736 66.9548
" />
<path d="M207.5736 66.9548
L207.3832 66.9548
" />
<path d="M207.3832 66.9548
L207.2879 66.9072
" />
<path d="M207.2879 66.9072
L207.2403 66.8596
" />
<path d="M207.2403 66.8596
L207.1927 66.7643
" />
<path d="M207.1927 66.7643
L207.1927 66.4786
" />
<path d="M207.1927 66.4786
L207.2403 66.3834
" />
<path d="M207.2403 66.3834
L207.2879 66.3358
" />
<path d="M207.2879 66.3358
L207.3832 66.2882
" />
<path d="M207.3832 66.2882
L207.5736 66.2882
" />
<path d="M207.5736 66.2882
L207.6689 66.3358
" />
<path d="M208.5260 66.9072
L208.4308 66.9548
" />
<path d="M208.4308 66.9548
L208.2403 66.9548
" />
<path d="M208.2403 66.9548
L208.1451 66.9072
" />
<path d="M208.1451 66.9072
L208.0974 66.8120
" />
<path d="M208.0974 66.8120
L208.0974 66.4310
" />
<path d="M208.0974 66.4310
L208.1451 66.3358
" />
<path d="M208.1451 66.3358
L208.2403 66.2882
" />
<path d="M208.2403 66.2882
L208.4308 66.2882
" />
<path d="M208.4308 66.2882
L208.5260 66.3358
" />
<path d="M208.5260 66.3358
L208.5736 66.4310
" />
<path d="M208.5736 66.4310
L208.5736 66.5262
" />
<path d="M208.5736 66.5262
L208.0974 66.6215
" />
</g><g transform="rotate(-90.000000 207.0022 70.0000)">
<text x="207.0022" y="70.5000"
transform="scale(-1 1) translate(-414.004400 0)"
textLength="1.8893" font-size="1.3333" lengthAdjust="spacingAndGlyphs"
text-anchor="middle" opacity="0">J2</text>
</g>
<g class="stroked-text"><desc>J2</desc>
<path d="M207.5474 69.6667
L206.8331 69.6667
" />
<path d="M206.8331 69.6667
L206.6902 69.6190
" />
<path d="M206.6902 69.6190
L206.5950 69.5238
" />
<path d="M206.5950 69.5238
L206.5474 69.3810
" />
<path d="M206.5474 69.3810
L206.5474 69.2857
" />
<path d="M207.4521 70.0952
L207.4998 70.1429
" />
<path d="M207.4998 70.1429
L207.5474 70.2381
" />
<path d="M207.5474 70.2381
L207.5474 70.4762
" />
<path d="M207.5474 70.4762
L207.4998 70.5714
" />
<path d="M207.4998 70.5714
L207.4521 70.6190
" />
<path d="M207.4521 70.6190
L207.3569 70.6667
" />
<path d="M207.3569 70.6667
L207.2617 70.6667
" />
<path d="M207.2617 70.6667
L207.1188 70.6190
" />
<path d="M207.1188 70.6190
L206.5474 70.0476
" />
<path d="M206.5474 70.0476
L206.5474 70.6667
" />
</g></g>
<g style="fill:#000000; fill-opacity:0.0; 
stroke:#000000; stroke-width:0.1000; stroke-opacity:1; 
stroke-linecap:round; stroke-linejoin:round;">
<path d="M208.2522 63.0000
L207.7522 63.0000
" />
<path d="M207.7522 63.0000
L207.7522 62.0000
" />
<path d="M206.2522 63.0000
L205.7522 63.0000
" />
<path d="M205.7522 63.0000
L205.7522 62.0000
" />
<path d="M209.0022 62.0000
L205.0022 62.0000
" />
<path d="M208.2522 62.0000
L208.2522 63.0000
" />
<path d="M206.2522 62.0000
L206.2522 63.0000
" />
<path d="M205.0022 62.0000
L205.0022 59.0000
" />
<path d="M205.0022 59.0000
L206.0022 58.0000
" />
<path d="M209.0022 58.0000
L209.0022 62.0000
" />
<path d="M207.7522 58.0000
L207.7522 57.0000
" />
<path d="M206.0022 58.0000
L209.0022 58.0000
" />
<path d="M205.7522 58.0000
L205.7522 57.0000
" />
<path d="M208.2522 57.0000
L208.2522 58.0000
" />
<path d="M207.7522 57.0000
L208.2522 57.0000
" />
<path d="M206.2522 57.0000
L206.2522 58.0000
" />
<path d="M205.7522 57.0000
L206.2522 57.0000
" />
<path d="M210.0022 68.7500
L210.0022 69.2500
" />
<path d="M210.0022 69.2500
L209.0022 69.2500
" />
<path d="M210.0022 70.7500
L210.0022 71.2500
" />
<path d="M210.0022 71.2500
L209.0022 71.2500
" />
<path d="M209.0022 68.0000
L209.0022 72.0000
" />
<path d="M209.0022 68.7500
L210.0022 68.7500
" />
<path d="M209.0022 70.7500
L210.0022 70.7500
" />
<path d="M209.0022 72.0000
L206.0022 72.0000
" />
<path d="M206.0022 72.0000
L205.0022 71.0000
" />
<path d="M205.0022 68.0000
L209.0022 68.0000
" />
<path d="M205.0022 69.2500
L204.0022 69.2500
" />
<path d="M205.0022 71.0000
L205.0022 68.0000
" />
<path d="M205.0022 71.2500
L204.0022 71.2500
" />
<path d="M204.0022 68.7500
L205.0022 68.7500
" />
<path d="M204.0022 69.2500
L204.0022 68.7500
" />
<path d="M204.0022 70.7500
L205.0022 70.7500
" />
<path d="M204.0022 71.2500
L204.0022 70.7500
" />
<g >
</g>
<g >
</g>
<g >
</g>
<g >
</g>
<g >
</g>
<g >
</g>
<g >
</g>
<g >
</g>
<g >
</g>
<g >
</g>
<g >
</g>
<g >
</g>
<g >
</g>
<g >
</g>
<g >
</g>
<g >
</g>
<g >
</g>
<g >
</g>
<g >
</g>
<g >
</g>
<g >
</g>
<g >
</g>
<g >
</g>
<g >
</g>
<g >
</g>
<g >
</g>
<g >
</g>
<g >
</g>
<g >
</g>
<g >
</g>
<g >
</g>
<g >
</g>
<g >
</g>
<g >
</g>
</g> 
</svg>
