M48
INCH,TZ
T1C0.0157
%
G90
G05
T1
X27587Y-24093
X27876Y-22076
X28346Y-25984
X29134Y-20472
X29950Y-27243
X31025Y-19713
X31967Y-27531
X33043Y-20002
X33819Y-28346
X34016Y-26654
X34173Y-25039
X34213Y-28346
X34606Y-28346
X34610Y-24339
X34646Y-21260
X34843Y-25984
X35405Y-23151
X36220Y-24449
X36220Y-24843
X36220Y-25236
T0
M30
