G04 #@! TF.GenerationSoftware,KiCad,Pcbnew,7.0.5.1-1-g8f565ef7f0-dirty-deb11*
G04 #@! TF.CreationDate,2023-06-03T11:29:32+00:00*
G04 #@! TF.ProjectId,pedalboard-led-ring,70656461-6c62-46f6-9172-642d6c65642d,1.0.0*
G04 #@! TF.SameCoordinates,Original*
G04 #@! TF.FileFunction,Legend,Top*
G04 #@! TF.FilePolarity,Positive*
%FSLAX46Y46*%
G04 Gerber Fmt 4.6, Leading zero omitted, Abs format (unit mm)*
G04 Created by KiCad (PCBNEW 7.0.5.1-1-g8f565ef7f0-dirty-deb11) date 2023-06-03 11:29:32*
%MOMM*%
%LPD*%
G01*
G04 APERTURE LIST*
%ADD10C,0.100000*%
G04 APERTURE END LIST*
D10*
X79238095Y-59957419D02*
X79238095Y-58957419D01*
X79238095Y-59433609D02*
X79809523Y-59433609D01*
X79809523Y-59957419D02*
X79809523Y-58957419D01*
X80714285Y-59290752D02*
X80714285Y-59957419D01*
X80476190Y-58909800D02*
X80238095Y-59624085D01*
X80238095Y-59624085D02*
X80857142Y-59624085D01*
X85661122Y-68105351D02*
X85336122Y-67542434D01*
X85098205Y-68430351D02*
X85661122Y-68105351D01*
X89850000Y-59150000D02*
X89200000Y-59150000D01*
X89850000Y-59800000D02*
X89850000Y-59150000D01*
X79150000Y-50150000D02*
X79150000Y-50800000D01*
X79800000Y-50150000D02*
X79150000Y-50150000D01*
X88955351Y-64188878D02*
X88392434Y-63863878D01*
X88630351Y-64751795D02*
X88955351Y-64188878D01*
X71894649Y-65661122D02*
X72457566Y-65336122D01*
X71569649Y-65098205D02*
X71894649Y-65661122D01*
X80850000Y-69850000D02*
X80850000Y-69200000D01*
X80200000Y-69850000D02*
X80850000Y-69850000D01*
X70150000Y-60850000D02*
X70800000Y-60850000D01*
X70150000Y-60200000D02*
X70150000Y-60850000D01*
X71044649Y-55811122D02*
X71607566Y-56136122D01*
X71369649Y-55248205D02*
X71044649Y-55811122D01*
X88105351Y-54338878D02*
X87542434Y-54663878D01*
X88430351Y-54901795D02*
X88105351Y-54338878D01*
X74338878Y-51894649D02*
X74663878Y-52457566D01*
X74901795Y-51569649D02*
X74338878Y-51894649D01*
X75811122Y-68955351D02*
X76136122Y-68392434D01*
X75248205Y-68630351D02*
X75811122Y-68955351D01*
X84188878Y-51044649D02*
X83863878Y-51607566D01*
X84751795Y-51369649D02*
X84188878Y-51044649D01*
M02*
