G04 #@! TF.GenerationSoftware,KiCad,Pcbnew,7.0.5.1-1-g8f565ef7f0-dirty-deb11*
G04 #@! TF.CreationDate,2023-06-03T17:43:20+00:00*
G04 #@! TF.ProjectId,pedalboard-led-ring,70656461-6c62-46f6-9172-642d6c65642d,1.0.0*
G04 #@! TF.SameCoordinates,Original*
G04 #@! TF.FileFunction,Copper,L2,Bot*
G04 #@! TF.FilePolarity,Positive*
%FSLAX46Y46*%
G04 Gerber Fmt 4.6, Leading zero omitted, Abs format (unit mm)*
G04 Created by KiCad (PCBNEW 7.0.5.1-1-g8f565ef7f0-dirty-deb11) date 2023-06-03 17:43:20*
%MOMM*%
%LPD*%
G01*
G04 APERTURE LIST*
G04 #@! TA.AperFunction,SMDPad,CuDef*
%ADD10R,1.000000X2.750000*%
G04 #@! TD*
G04 #@! TA.AperFunction,SMDPad,CuDef*
%ADD11R,2.750000X1.000000*%
G04 #@! TD*
G04 #@! TA.AperFunction,ViaPad*
%ADD12C,0.800000*%
G04 #@! TD*
G04 #@! TA.AperFunction,Conductor*
%ADD13C,0.250000*%
G04 #@! TD*
G04 APERTURE END LIST*
D10*
X91000000Y-56875000D03*
X91000000Y-63125000D03*
X89000000Y-56875000D03*
X89000000Y-63125000D03*
D11*
X93125000Y-71000000D03*
X86875000Y-71000000D03*
X93125000Y-69000000D03*
X86875000Y-69000000D03*
D12*
X86800000Y-63600000D03*
X74000000Y-52000000D03*
X89928203Y-58803848D03*
X70071797Y-61196152D03*
X76071797Y-69196152D03*
X81196152Y-69928203D03*
X83928203Y-50803848D03*
X72000000Y-66000000D03*
X86400000Y-67700000D03*
X70803848Y-56071797D03*
X88000000Y-54000000D03*
X88500000Y-66000000D03*
X78803848Y-50071797D03*
X90600000Y-61400000D03*
X85100000Y-70600000D03*
X91400000Y-61400000D03*
X91400000Y-64900000D03*
X90700000Y-64900000D03*
X88600000Y-70600000D03*
X88600000Y-71400000D03*
X85100000Y-71400000D03*
X87910000Y-61820000D03*
D13*
X84800000Y-67100000D02*
X86800000Y-65100000D01*
X89000000Y-63125000D02*
X88125000Y-64000000D01*
X85400000Y-69000000D02*
X84800000Y-68400000D01*
X86875000Y-69000000D02*
X85400000Y-69000000D01*
X84800000Y-68400000D02*
X84800000Y-67100000D01*
X87200000Y-64000000D02*
X86800000Y-63600000D01*
X88125000Y-64000000D02*
X87200000Y-64000000D01*
X86800000Y-65100000D02*
X86800000Y-63600000D01*
X91400000Y-61400000D02*
X91400000Y-64900000D01*
X85100000Y-70600000D02*
X85100000Y-71400000D01*
X88600000Y-70600000D02*
X88600000Y-71400000D01*
X90700000Y-61500000D02*
X90700000Y-64900000D01*
X90600000Y-61400000D02*
X91400000Y-61400000D01*
X90600000Y-61400000D02*
X90700000Y-61500000D01*
X85100000Y-71400000D02*
X88600000Y-71400000D01*
X90700000Y-64900000D02*
X91400000Y-64900000D01*
X85100000Y-70600000D02*
X88600000Y-70600000D01*
X88000000Y-57000000D02*
X88000000Y-61730000D01*
X88000000Y-61730000D02*
X87910000Y-61820000D01*
X92800000Y-60500000D02*
X92800000Y-68675000D01*
X89000000Y-56875000D02*
X88125000Y-56875000D01*
X88125000Y-56875000D02*
X88000000Y-57000000D01*
X87910000Y-61820000D02*
X89230000Y-60500000D01*
X89230000Y-60500000D02*
X92800000Y-60500000D01*
G04 #@! TA.AperFunction,Conductor*
G36*
X94002140Y-48000687D02*
G01*
X94045464Y-48004477D01*
X94173816Y-48017119D01*
X94189696Y-48020008D01*
X94257626Y-48038209D01*
X94259036Y-48038612D01*
X94353264Y-48067196D01*
X94366359Y-48072207D01*
X94435690Y-48104536D01*
X94438085Y-48105733D01*
X94522989Y-48151115D01*
X94528052Y-48154225D01*
X94595221Y-48201258D01*
X94598233Y-48203543D01*
X94632865Y-48231964D01*
X94671280Y-48263491D01*
X94674877Y-48266751D01*
X94733247Y-48325121D01*
X94736512Y-48328723D01*
X94796455Y-48401765D01*
X94798740Y-48404777D01*
X94845773Y-48471946D01*
X94848883Y-48477009D01*
X94894255Y-48561893D01*
X94895462Y-48564308D01*
X94927791Y-48633639D01*
X94932804Y-48646739D01*
X94961364Y-48740887D01*
X94961809Y-48742445D01*
X94979986Y-48810282D01*
X94982882Y-48826202D01*
X94995520Y-48954525D01*
X94999311Y-48997843D01*
X94999500Y-49002161D01*
X94999500Y-70997837D01*
X94999311Y-71002155D01*
X94995520Y-71045473D01*
X94989134Y-71110308D01*
X94964614Y-71166365D01*
X94911827Y-71197304D01*
X94850937Y-71191307D01*
X94820607Y-71170608D01*
X94799999Y-71150000D01*
X93275001Y-71150000D01*
X93275000Y-71150001D01*
X93275000Y-71799998D01*
X93275001Y-71799999D01*
X94012829Y-71799999D01*
X94071020Y-71818906D01*
X94106984Y-71868406D01*
X94106984Y-71929592D01*
X94071020Y-71979092D01*
X94021460Y-71997622D01*
X94002155Y-71999311D01*
X93997838Y-71999500D01*
X89096071Y-71999500D01*
X89037880Y-71980593D01*
X89001916Y-71931093D01*
X89001916Y-71869907D01*
X89026067Y-71830496D01*
X89028273Y-71828288D01*
X89028282Y-71828282D01*
X89124536Y-71702841D01*
X89185044Y-71556762D01*
X89205682Y-71400000D01*
X89185044Y-71243238D01*
X89185042Y-71243233D01*
X89146424Y-71150000D01*
X91450001Y-71150000D01*
X91450001Y-71544791D01*
X91452909Y-71569874D01*
X91498213Y-71672477D01*
X91577522Y-71751786D01*
X91680127Y-71797090D01*
X91705203Y-71799999D01*
X92974998Y-71799999D01*
X92975000Y-71799998D01*
X92975000Y-71150001D01*
X92974999Y-71150000D01*
X91450001Y-71150000D01*
X89146424Y-71150000D01*
X89124537Y-71097161D01*
X89124536Y-71097160D01*
X89124536Y-71097159D01*
X89096227Y-71060266D01*
X89075804Y-71002592D01*
X89093181Y-70943926D01*
X89096228Y-70939732D01*
X89096229Y-70939731D01*
X89124536Y-70902841D01*
X89146424Y-70849999D01*
X91450000Y-70849999D01*
X91450001Y-70850000D01*
X92974999Y-70850000D01*
X92975000Y-70849999D01*
X93275000Y-70849999D01*
X93275001Y-70850000D01*
X94799998Y-70850000D01*
X94799999Y-70849999D01*
X94799999Y-70455210D01*
X94799998Y-70455208D01*
X94797090Y-70430125D01*
X94751786Y-70327522D01*
X94672477Y-70248213D01*
X94569872Y-70202909D01*
X94544797Y-70200000D01*
X93275001Y-70200000D01*
X93275000Y-70200001D01*
X93275000Y-70849999D01*
X92975000Y-70849999D01*
X92975000Y-70200001D01*
X92974999Y-70200000D01*
X91705210Y-70200000D01*
X91705208Y-70200001D01*
X91680125Y-70202909D01*
X91577522Y-70248213D01*
X91498213Y-70327522D01*
X91452909Y-70430127D01*
X91450000Y-70455202D01*
X91450000Y-70849999D01*
X89146424Y-70849999D01*
X89185044Y-70756762D01*
X89205682Y-70600000D01*
X89185044Y-70443238D01*
X89124537Y-70297161D01*
X89124537Y-70297160D01*
X89028286Y-70171723D01*
X89028285Y-70171722D01*
X89028282Y-70171718D01*
X89028277Y-70171714D01*
X89028276Y-70171713D01*
X88902838Y-70075462D01*
X88756766Y-70014957D01*
X88756758Y-70014955D01*
X88600001Y-69994318D01*
X88599999Y-69994318D01*
X88443241Y-70014955D01*
X88443233Y-70014957D01*
X88297161Y-70075462D01*
X88297160Y-70075462D01*
X88171723Y-70171713D01*
X88171714Y-70171722D01*
X88147784Y-70202909D01*
X88122854Y-70235400D01*
X88122572Y-70235767D01*
X88072148Y-70270423D01*
X88044030Y-70274500D01*
X85655970Y-70274500D01*
X85597779Y-70255593D01*
X85577428Y-70235767D01*
X85577146Y-70235400D01*
X85528282Y-70171718D01*
X85528277Y-70171714D01*
X85528276Y-70171713D01*
X85402838Y-70075462D01*
X85256766Y-70014957D01*
X85256758Y-70014955D01*
X85100001Y-69994318D01*
X85099999Y-69994318D01*
X84943241Y-70014955D01*
X84943233Y-70014957D01*
X84797161Y-70075462D01*
X84797160Y-70075462D01*
X84671723Y-70171713D01*
X84671713Y-70171723D01*
X84575462Y-70297160D01*
X84575462Y-70297161D01*
X84514957Y-70443233D01*
X84514955Y-70443241D01*
X84512266Y-70463667D01*
X84494318Y-70600000D01*
X84514956Y-70756762D01*
X84575464Y-70902841D01*
X84603773Y-70939734D01*
X84624196Y-70997407D01*
X84606819Y-71056073D01*
X84603773Y-71060265D01*
X84575464Y-71097158D01*
X84575463Y-71097160D01*
X84514957Y-71243236D01*
X84514955Y-71243241D01*
X84494318Y-71399999D01*
X84494318Y-71400000D01*
X84514955Y-71556758D01*
X84514957Y-71556766D01*
X84575462Y-71702838D01*
X84575462Y-71702839D01*
X84671713Y-71828276D01*
X84671718Y-71828282D01*
X84671722Y-71828285D01*
X84673933Y-71830496D01*
X84674953Y-71832498D01*
X84675668Y-71833430D01*
X84675495Y-71833562D01*
X84701710Y-71885013D01*
X84692139Y-71945445D01*
X84648874Y-71988710D01*
X84603929Y-71999500D01*
X69002162Y-71999500D01*
X68997844Y-71999311D01*
X68954525Y-71995520D01*
X68826202Y-71982882D01*
X68810284Y-71979986D01*
X68773391Y-71970101D01*
X68742445Y-71961809D01*
X68740887Y-71961364D01*
X68646739Y-71932804D01*
X68633639Y-71927791D01*
X68564308Y-71895462D01*
X68561893Y-71894255D01*
X68477009Y-71848883D01*
X68471946Y-71845773D01*
X68404777Y-71798740D01*
X68401765Y-71796455D01*
X68328723Y-71736512D01*
X68325121Y-71733247D01*
X68266751Y-71674877D01*
X68263486Y-71671275D01*
X68203543Y-71598233D01*
X68201258Y-71595221D01*
X68174328Y-71556762D01*
X68154222Y-71528048D01*
X68151115Y-71522989D01*
X68105733Y-71438085D01*
X68104536Y-71435690D01*
X68072207Y-71366359D01*
X68067194Y-71353259D01*
X68038612Y-71259036D01*
X68038209Y-71257626D01*
X68020008Y-71189696D01*
X68017119Y-71173816D01*
X68004476Y-71045447D01*
X68003868Y-71038495D01*
X68000687Y-71002140D01*
X68000500Y-70997840D01*
X68000500Y-70000004D01*
X68644341Y-70000004D01*
X68664935Y-70235400D01*
X68664936Y-70235407D01*
X68664937Y-70235408D01*
X68689619Y-70327522D01*
X68726098Y-70463667D01*
X68825959Y-70677818D01*
X68825963Y-70677826D01*
X68946519Y-70850000D01*
X68961505Y-70871401D01*
X69128599Y-71038495D01*
X69128602Y-71038497D01*
X69128603Y-71038498D01*
X69153703Y-71056073D01*
X69322171Y-71174035D01*
X69322172Y-71174035D01*
X69322173Y-71174036D01*
X69322181Y-71174040D01*
X69536333Y-71273901D01*
X69536337Y-71273903D01*
X69764592Y-71335063D01*
X69764596Y-71335063D01*
X69764599Y-71335064D01*
X69941026Y-71350500D01*
X69941034Y-71350500D01*
X70058974Y-71350500D01*
X70235400Y-71335064D01*
X70235401Y-71335063D01*
X70235408Y-71335063D01*
X70463663Y-71273903D01*
X70677829Y-71174035D01*
X70871401Y-71038495D01*
X71038495Y-70871401D01*
X71174035Y-70677830D01*
X71273903Y-70463663D01*
X71335063Y-70235408D01*
X71335064Y-70235400D01*
X71355659Y-70000004D01*
X71355659Y-69999995D01*
X71335064Y-69764599D01*
X71335063Y-69764596D01*
X71335063Y-69764592D01*
X71273903Y-69536337D01*
X71266172Y-69519758D01*
X71174040Y-69322181D01*
X71174036Y-69322173D01*
X71165924Y-69310588D01*
X71038495Y-69128599D01*
X70871401Y-68961505D01*
X70871397Y-68961502D01*
X70871396Y-68961501D01*
X70677826Y-68825963D01*
X70677818Y-68825959D01*
X70463666Y-68726098D01*
X70463667Y-68726098D01*
X70387577Y-68705710D01*
X70235408Y-68664937D01*
X70235407Y-68664936D01*
X70235400Y-68664935D01*
X70058974Y-68649500D01*
X70058966Y-68649500D01*
X69941034Y-68649500D01*
X69941026Y-68649500D01*
X69764599Y-68664935D01*
X69536332Y-68726098D01*
X69322181Y-68825959D01*
X69322173Y-68825963D01*
X69128603Y-68961501D01*
X68961501Y-69128603D01*
X68825964Y-69322171D01*
X68726097Y-69536337D01*
X68664935Y-69764599D01*
X68644341Y-69999995D01*
X68644341Y-70000004D01*
X68000500Y-70000004D01*
X68000500Y-68428806D01*
X84470736Y-68428806D01*
X84481354Y-68468436D01*
X84482289Y-68472652D01*
X84489411Y-68513045D01*
X84490164Y-68514348D01*
X84500054Y-68538224D01*
X84500443Y-68539679D01*
X84500446Y-68539684D01*
X84523971Y-68573281D01*
X84526292Y-68576924D01*
X84546806Y-68612455D01*
X84578224Y-68638818D01*
X84581410Y-68641737D01*
X85158257Y-69218584D01*
X85161175Y-69221769D01*
X85187544Y-69253193D01*
X85187545Y-69253194D01*
X85223073Y-69273706D01*
X85226712Y-69276024D01*
X85257283Y-69297430D01*
X85294106Y-69346295D01*
X85299500Y-69378527D01*
X85299500Y-69519746D01*
X85299501Y-69519758D01*
X85311132Y-69578227D01*
X85311133Y-69578231D01*
X85355448Y-69644552D01*
X85421769Y-69688867D01*
X85466231Y-69697711D01*
X85480241Y-69700498D01*
X85480246Y-69700498D01*
X85480252Y-69700500D01*
X85480253Y-69700500D01*
X88269747Y-69700500D01*
X88269748Y-69700500D01*
X88328231Y-69688867D01*
X88394552Y-69644552D01*
X88438867Y-69578231D01*
X88450500Y-69519748D01*
X88450500Y-68480252D01*
X88438867Y-68421769D01*
X88394552Y-68355448D01*
X88394548Y-68355445D01*
X88328233Y-68311134D01*
X88328231Y-68311133D01*
X88328228Y-68311132D01*
X88328227Y-68311132D01*
X88269758Y-68299501D01*
X88269748Y-68299500D01*
X85480252Y-68299500D01*
X85480251Y-68299500D01*
X85480241Y-68299501D01*
X85421772Y-68311132D01*
X85421766Y-68311134D01*
X85347341Y-68360865D01*
X85346659Y-68359845D01*
X85301091Y-68383059D01*
X85240659Y-68373483D01*
X85215607Y-68355281D01*
X85154496Y-68294170D01*
X85126719Y-68239653D01*
X85125500Y-68224166D01*
X85125500Y-67275833D01*
X85144407Y-67217642D01*
X85154490Y-67205835D01*
X87018583Y-65341741D01*
X87021760Y-65338829D01*
X87053194Y-65312455D01*
X87073714Y-65276911D01*
X87076012Y-65273303D01*
X87099554Y-65239684D01*
X87099941Y-65238236D01*
X87109838Y-65214345D01*
X87110586Y-65213048D01*
X87110585Y-65213048D01*
X87110588Y-65213045D01*
X87117713Y-65172628D01*
X87118641Y-65168443D01*
X87129263Y-65128807D01*
X87125687Y-65087934D01*
X87125500Y-65083634D01*
X87125500Y-64424500D01*
X87144407Y-64366309D01*
X87193907Y-64330345D01*
X87224500Y-64325500D01*
X88108626Y-64325500D01*
X88112926Y-64325687D01*
X88153807Y-64329264D01*
X88174876Y-64323618D01*
X88235976Y-64326819D01*
X88283527Y-64365322D01*
X88299500Y-64419244D01*
X88299500Y-64519746D01*
X88299501Y-64519758D01*
X88311132Y-64578227D01*
X88311134Y-64578233D01*
X88355445Y-64644548D01*
X88355448Y-64644552D01*
X88421769Y-64688867D01*
X88466231Y-64697711D01*
X88480241Y-64700498D01*
X88480246Y-64700498D01*
X88480252Y-64700500D01*
X88480253Y-64700500D01*
X89519747Y-64700500D01*
X89519748Y-64700500D01*
X89578231Y-64688867D01*
X89644552Y-64644552D01*
X89688867Y-64578231D01*
X89700500Y-64519748D01*
X89700500Y-61730252D01*
X89688867Y-61671769D01*
X89644552Y-61605448D01*
X89644548Y-61605445D01*
X89578233Y-61561134D01*
X89578231Y-61561133D01*
X89578228Y-61561132D01*
X89578227Y-61561132D01*
X89519758Y-61549501D01*
X89519748Y-61549500D01*
X89519747Y-61549500D01*
X88879834Y-61549500D01*
X88821643Y-61530593D01*
X88785679Y-61481093D01*
X88785679Y-61419907D01*
X88809830Y-61380496D01*
X89335830Y-60854496D01*
X89390347Y-60826719D01*
X89405834Y-60825500D01*
X90083163Y-60825500D01*
X90141354Y-60844407D01*
X90177318Y-60893907D01*
X90177318Y-60955093D01*
X90161705Y-60984767D01*
X90075462Y-61097160D01*
X90075462Y-61097161D01*
X90014957Y-61243233D01*
X90014955Y-61243241D01*
X89994318Y-61399999D01*
X89994318Y-61400000D01*
X90014955Y-61556758D01*
X90014957Y-61556766D01*
X90075462Y-61702838D01*
X90075462Y-61702839D01*
X90165362Y-61819999D01*
X90171718Y-61828282D01*
X90171722Y-61828285D01*
X90171723Y-61828286D01*
X90260767Y-61896612D01*
X90295423Y-61947037D01*
X90299500Y-61975154D01*
X90299500Y-64402929D01*
X90280593Y-64461120D01*
X90273276Y-64469687D01*
X90175462Y-64597160D01*
X90175462Y-64597161D01*
X90114957Y-64743233D01*
X90114955Y-64743241D01*
X90094318Y-64899999D01*
X90094318Y-64900000D01*
X90114955Y-65056758D01*
X90114957Y-65056766D01*
X90175462Y-65202838D01*
X90175462Y-65202839D01*
X90271713Y-65328276D01*
X90271718Y-65328282D01*
X90397159Y-65424536D01*
X90543238Y-65485044D01*
X90660809Y-65500522D01*
X90699999Y-65505682D01*
X90700000Y-65505682D01*
X90700001Y-65505682D01*
X90731352Y-65501554D01*
X90856762Y-65485044D01*
X90910470Y-65462797D01*
X91008837Y-65422053D01*
X91009623Y-65423950D01*
X91060338Y-65413165D01*
X91090751Y-65423047D01*
X91091163Y-65422053D01*
X91243233Y-65485042D01*
X91243238Y-65485044D01*
X91360809Y-65500522D01*
X91399999Y-65505682D01*
X91400000Y-65505682D01*
X91400001Y-65505682D01*
X91431352Y-65501554D01*
X91556762Y-65485044D01*
X91702841Y-65424536D01*
X91828282Y-65328282D01*
X91924536Y-65202841D01*
X91985044Y-65056762D01*
X92005682Y-64900000D01*
X91985044Y-64743238D01*
X91967341Y-64700500D01*
X91924537Y-64597161D01*
X91924537Y-64597160D01*
X91828281Y-64471717D01*
X91764232Y-64422570D01*
X91729577Y-64372145D01*
X91725500Y-64344028D01*
X91725500Y-61955970D01*
X91744407Y-61897779D01*
X91764233Y-61877428D01*
X91828282Y-61828282D01*
X91924536Y-61702841D01*
X91985044Y-61556762D01*
X92005682Y-61400000D01*
X91985044Y-61243238D01*
X91924537Y-61097161D01*
X91924537Y-61097160D01*
X91838295Y-60984767D01*
X91817871Y-60927091D01*
X91835249Y-60868426D01*
X91883790Y-60831178D01*
X91916837Y-60825500D01*
X92375500Y-60825500D01*
X92433691Y-60844407D01*
X92469655Y-60893907D01*
X92474500Y-60924500D01*
X92474500Y-68200500D01*
X92455593Y-68258691D01*
X92406093Y-68294655D01*
X92375500Y-68299500D01*
X91730252Y-68299500D01*
X91730251Y-68299500D01*
X91730241Y-68299501D01*
X91671772Y-68311132D01*
X91671766Y-68311134D01*
X91605451Y-68355445D01*
X91605445Y-68355451D01*
X91561134Y-68421766D01*
X91561132Y-68421772D01*
X91549501Y-68480241D01*
X91549500Y-68480253D01*
X91549500Y-69519746D01*
X91549501Y-69519758D01*
X91561132Y-69578227D01*
X91561133Y-69578231D01*
X91605448Y-69644552D01*
X91671769Y-69688867D01*
X91716231Y-69697711D01*
X91730241Y-69700498D01*
X91730246Y-69700498D01*
X91730252Y-69700500D01*
X91730253Y-69700500D01*
X94519747Y-69700500D01*
X94519748Y-69700500D01*
X94578231Y-69688867D01*
X94644552Y-69644552D01*
X94688867Y-69578231D01*
X94700500Y-69519748D01*
X94700500Y-68480252D01*
X94688867Y-68421769D01*
X94644552Y-68355448D01*
X94644548Y-68355445D01*
X94578233Y-68311134D01*
X94578231Y-68311133D01*
X94578228Y-68311132D01*
X94578227Y-68311132D01*
X94519758Y-68299501D01*
X94519748Y-68299500D01*
X94519747Y-68299500D01*
X93224500Y-68299500D01*
X93166309Y-68280593D01*
X93130345Y-68231093D01*
X93125500Y-68200500D01*
X93125500Y-60442606D01*
X93118569Y-60423563D01*
X93114107Y-60406912D01*
X93110588Y-60386955D01*
X93100460Y-60369412D01*
X93093168Y-60353774D01*
X93086240Y-60334741D01*
X93086240Y-60334740D01*
X93073216Y-60319219D01*
X93063321Y-60305086D01*
X93053194Y-60287545D01*
X93037672Y-60274520D01*
X93025471Y-60262318D01*
X93012454Y-60246805D01*
X92994912Y-60236677D01*
X92980777Y-60226779D01*
X92965263Y-60213761D01*
X92965258Y-60213758D01*
X92946221Y-60206829D01*
X92930587Y-60199539D01*
X92913046Y-60189412D01*
X92893094Y-60185894D01*
X92876426Y-60181427D01*
X92857395Y-60174500D01*
X92857394Y-60174500D01*
X92828475Y-60174500D01*
X89246374Y-60174500D01*
X89242073Y-60174312D01*
X89201193Y-60170736D01*
X89201187Y-60170736D01*
X89161564Y-60181353D01*
X89157349Y-60182287D01*
X89116960Y-60189410D01*
X89116948Y-60189414D01*
X89115640Y-60190170D01*
X89091786Y-60200051D01*
X89090324Y-60200442D01*
X89090316Y-60200446D01*
X89056716Y-60223972D01*
X89053080Y-60226288D01*
X89052231Y-60226779D01*
X89017545Y-60246805D01*
X88991181Y-60278224D01*
X88988263Y-60281408D01*
X88494503Y-60775169D01*
X88439986Y-60802946D01*
X88379554Y-60793375D01*
X88336289Y-60750110D01*
X88325500Y-60705169D01*
X88325500Y-58540349D01*
X88344407Y-58482158D01*
X88393907Y-58446194D01*
X88443814Y-58443252D01*
X88471612Y-58448781D01*
X88480246Y-58450499D01*
X88480249Y-58450499D01*
X88480252Y-58450500D01*
X88480253Y-58450500D01*
X89519747Y-58450500D01*
X89519748Y-58450500D01*
X89578231Y-58438867D01*
X89644552Y-58394552D01*
X89688867Y-58328231D01*
X89700500Y-58269748D01*
X89700500Y-57025000D01*
X90200001Y-57025000D01*
X90200001Y-58294791D01*
X90202909Y-58319874D01*
X90248213Y-58422477D01*
X90327522Y-58501786D01*
X90430127Y-58547090D01*
X90455203Y-58549999D01*
X90849998Y-58549999D01*
X90850000Y-58549998D01*
X91150000Y-58549998D01*
X91150001Y-58549999D01*
X91544790Y-58549999D01*
X91544791Y-58549998D01*
X91569874Y-58547090D01*
X91672477Y-58501786D01*
X91751786Y-58422477D01*
X91797090Y-58319872D01*
X91799999Y-58294797D01*
X91800000Y-58294794D01*
X91800000Y-57025001D01*
X91799999Y-57025000D01*
X91150001Y-57025000D01*
X91150000Y-57025001D01*
X91150000Y-58549998D01*
X90850000Y-58549998D01*
X90850000Y-57025001D01*
X90849999Y-57025000D01*
X90200001Y-57025000D01*
X89700500Y-57025000D01*
X89700500Y-56724999D01*
X90200000Y-56724999D01*
X90200001Y-56725000D01*
X90849999Y-56725000D01*
X90850000Y-56724999D01*
X90850000Y-55200000D01*
X91150000Y-55200000D01*
X91150000Y-56724999D01*
X91150001Y-56725000D01*
X91799998Y-56725000D01*
X91799999Y-56724998D01*
X91799999Y-55455209D01*
X91799998Y-55455208D01*
X91797090Y-55430125D01*
X91751786Y-55327522D01*
X91672477Y-55248213D01*
X91569872Y-55202909D01*
X91544797Y-55200000D01*
X91150000Y-55200000D01*
X90850000Y-55200000D01*
X90455210Y-55200000D01*
X90455207Y-55200001D01*
X90430125Y-55202909D01*
X90327522Y-55248213D01*
X90248213Y-55327522D01*
X90202909Y-55430127D01*
X90200000Y-55455202D01*
X90200000Y-56724999D01*
X89700500Y-56724999D01*
X89700500Y-55480252D01*
X89688867Y-55421769D01*
X89644552Y-55355448D01*
X89644548Y-55355445D01*
X89578233Y-55311134D01*
X89578231Y-55311133D01*
X89578228Y-55311132D01*
X89578227Y-55311132D01*
X89519758Y-55299501D01*
X89519748Y-55299500D01*
X88480252Y-55299500D01*
X88480251Y-55299500D01*
X88480241Y-55299501D01*
X88421772Y-55311132D01*
X88421766Y-55311134D01*
X88355451Y-55355445D01*
X88355445Y-55355451D01*
X88311134Y-55421766D01*
X88311132Y-55421772D01*
X88299501Y-55480241D01*
X88299500Y-55480253D01*
X88299500Y-56450500D01*
X88280593Y-56508691D01*
X88231093Y-56544655D01*
X88200500Y-56549500D01*
X88141374Y-56549500D01*
X88137073Y-56549312D01*
X88096193Y-56545736D01*
X88096187Y-56545736D01*
X88056564Y-56556353D01*
X88052349Y-56557287D01*
X88011960Y-56564410D01*
X88011948Y-56564414D01*
X88010640Y-56565170D01*
X87986786Y-56575051D01*
X87985324Y-56575442D01*
X87985316Y-56575446D01*
X87951716Y-56598972D01*
X87948080Y-56601288D01*
X87939875Y-56606025D01*
X87912545Y-56621805D01*
X87886181Y-56653224D01*
X87883263Y-56656408D01*
X87781413Y-56758259D01*
X87778229Y-56761176D01*
X87746807Y-56787542D01*
X87746806Y-56787544D01*
X87726292Y-56823075D01*
X87723972Y-56826716D01*
X87700446Y-56860316D01*
X87700442Y-56860324D01*
X87700051Y-56861786D01*
X87690170Y-56885640D01*
X87689414Y-56886948D01*
X87689410Y-56886960D01*
X87682287Y-56927349D01*
X87681353Y-56931564D01*
X87670736Y-56971187D01*
X87670736Y-56971193D01*
X87674312Y-57012072D01*
X87674500Y-57016373D01*
X87674500Y-61201420D01*
X87655593Y-61259611D01*
X87613389Y-61292883D01*
X87607160Y-61295463D01*
X87481723Y-61391713D01*
X87481713Y-61391723D01*
X87385462Y-61517160D01*
X87385462Y-61517161D01*
X87324957Y-61663233D01*
X87324955Y-61663241D01*
X87304318Y-61819999D01*
X87304318Y-61820000D01*
X87324955Y-61976758D01*
X87324957Y-61976766D01*
X87385462Y-62122838D01*
X87385462Y-62122839D01*
X87385464Y-62122841D01*
X87481718Y-62248282D01*
X87607159Y-62344536D01*
X87607160Y-62344536D01*
X87607161Y-62344537D01*
X87657384Y-62365340D01*
X87753238Y-62405044D01*
X87870809Y-62420522D01*
X87909999Y-62425682D01*
X87910000Y-62425682D01*
X87910001Y-62425682D01*
X87941352Y-62421554D01*
X88066762Y-62405044D01*
X88162616Y-62365339D01*
X88223611Y-62360539D01*
X88275780Y-62392508D01*
X88299195Y-62449036D01*
X88299500Y-62456804D01*
X88299500Y-63324166D01*
X88280593Y-63382357D01*
X88270504Y-63394169D01*
X88019171Y-63645503D01*
X87964654Y-63673281D01*
X87949167Y-63674500D01*
X87502311Y-63674500D01*
X87444120Y-63655593D01*
X87408156Y-63606093D01*
X87404158Y-63588422D01*
X87385044Y-63443241D01*
X87385044Y-63443238D01*
X87324537Y-63297161D01*
X87324537Y-63297160D01*
X87228286Y-63171723D01*
X87228285Y-63171722D01*
X87228282Y-63171718D01*
X87228277Y-63171714D01*
X87228276Y-63171713D01*
X87102838Y-63075462D01*
X86956766Y-63014957D01*
X86956758Y-63014955D01*
X86800001Y-62994318D01*
X86799999Y-62994318D01*
X86643241Y-63014955D01*
X86643233Y-63014957D01*
X86497161Y-63075462D01*
X86497160Y-63075462D01*
X86371723Y-63171713D01*
X86371713Y-63171723D01*
X86275462Y-63297160D01*
X86275462Y-63297161D01*
X86214957Y-63443233D01*
X86214955Y-63443241D01*
X86194318Y-63599999D01*
X86194318Y-63600000D01*
X86214955Y-63756758D01*
X86214957Y-63756766D01*
X86275462Y-63902838D01*
X86275462Y-63902839D01*
X86275464Y-63902841D01*
X86371718Y-64028282D01*
X86398280Y-64048664D01*
X86435767Y-64077428D01*
X86470423Y-64127852D01*
X86474500Y-64155970D01*
X86474500Y-64924164D01*
X86455593Y-64982355D01*
X86445504Y-64994168D01*
X84581413Y-66858259D01*
X84578229Y-66861176D01*
X84546807Y-66887542D01*
X84546806Y-66887544D01*
X84526292Y-66923075D01*
X84523972Y-66926716D01*
X84500446Y-66960316D01*
X84500442Y-66960324D01*
X84500051Y-66961786D01*
X84490170Y-66985640D01*
X84489414Y-66986948D01*
X84489410Y-66986960D01*
X84482287Y-67027349D01*
X84481353Y-67031564D01*
X84470736Y-67071187D01*
X84470736Y-67071193D01*
X84474312Y-67112072D01*
X84474500Y-67116373D01*
X84474500Y-68383625D01*
X84474312Y-68387927D01*
X84471352Y-68421766D01*
X84470736Y-68428806D01*
X68000500Y-68428806D01*
X68000500Y-60000000D01*
X73894548Y-60000000D01*
X73914346Y-60491285D01*
X73914346Y-60491291D01*
X73914347Y-60491297D01*
X73914347Y-60491306D01*
X73973609Y-60979365D01*
X73973613Y-60979392D01*
X74071962Y-61461136D01*
X74071962Y-61461137D01*
X74208750Y-61933386D01*
X74208753Y-61933395D01*
X74280601Y-62122841D01*
X74383110Y-62393133D01*
X74537956Y-62719464D01*
X74592578Y-62834579D01*
X74593891Y-62837345D01*
X74839733Y-63263155D01*
X74839734Y-63263156D01*
X75119038Y-63667800D01*
X75429999Y-64048659D01*
X75770280Y-64402929D01*
X75770605Y-64403267D01*
X75968094Y-64578227D01*
X76138635Y-64729313D01*
X76138640Y-64729317D01*
X76531707Y-65024688D01*
X76624923Y-65083634D01*
X76947274Y-65287477D01*
X76947281Y-65287480D01*
X76947280Y-65287480D01*
X76947293Y-65287488D01*
X77334618Y-65490770D01*
X77382638Y-65515973D01*
X77834977Y-65708697D01*
X78065494Y-65785654D01*
X78301341Y-65864392D01*
X78301351Y-65864395D01*
X78301357Y-65864397D01*
X78778753Y-65982065D01*
X79264069Y-66060936D01*
X79754158Y-66100500D01*
X79754163Y-66100500D01*
X80245837Y-66100500D01*
X80245842Y-66100500D01*
X80735931Y-66060936D01*
X81221247Y-65982065D01*
X81698643Y-65864397D01*
X82165023Y-65708697D01*
X82617362Y-65515973D01*
X82863115Y-65386991D01*
X83052706Y-65287488D01*
X83052711Y-65287484D01*
X83052726Y-65287477D01*
X83468292Y-65024688D01*
X83861365Y-64729313D01*
X84229395Y-64403267D01*
X84569996Y-64048664D01*
X84880959Y-63667803D01*
X85160267Y-63263155D01*
X85406109Y-62837345D01*
X85616890Y-62393133D01*
X85791244Y-61933401D01*
X85791246Y-61933395D01*
X85791249Y-61933386D01*
X85928037Y-61461137D01*
X85928037Y-61461136D01*
X85928039Y-61461130D01*
X86026388Y-60979383D01*
X86059684Y-60705165D01*
X86085652Y-60491306D01*
X86085652Y-60491301D01*
X86085654Y-60491285D01*
X86105452Y-60000000D01*
X86085654Y-59508715D01*
X86085652Y-59508698D01*
X86085652Y-59508693D01*
X86026390Y-59020634D01*
X86026388Y-59020617D01*
X85928039Y-58538870D01*
X85928037Y-58538862D01*
X85791249Y-58066613D01*
X85791246Y-58066604D01*
X85773157Y-58018910D01*
X85616890Y-57606867D01*
X85406109Y-57162655D01*
X85160267Y-56736845D01*
X84962618Y-56450500D01*
X84880961Y-56332199D01*
X84570000Y-55951340D01*
X84229398Y-55596736D01*
X84097902Y-55480241D01*
X83953372Y-55352198D01*
X83861364Y-55270686D01*
X83861359Y-55270682D01*
X83468292Y-54975311D01*
X83176978Y-54791095D01*
X83052726Y-54712523D01*
X83052722Y-54712520D01*
X83052719Y-54712519D01*
X83052706Y-54712511D01*
X82617376Y-54484034D01*
X82617372Y-54484032D01*
X82617369Y-54484030D01*
X82617362Y-54484027D01*
X82165023Y-54291303D01*
X82165024Y-54291303D01*
X82165021Y-54291302D01*
X81698658Y-54135607D01*
X81698638Y-54135601D01*
X81337278Y-54046534D01*
X81221247Y-54017935D01*
X80735931Y-53939064D01*
X80735925Y-53939063D01*
X80461028Y-53916871D01*
X80245842Y-53899500D01*
X79754158Y-53899500D01*
X79556342Y-53915469D01*
X79264074Y-53939063D01*
X78778753Y-54017935D01*
X78301361Y-54135601D01*
X78301341Y-54135607D01*
X77834978Y-54291302D01*
X77542369Y-54415971D01*
X77382638Y-54484027D01*
X77382634Y-54484028D01*
X77382627Y-54484032D01*
X77382623Y-54484034D01*
X76947293Y-54712511D01*
X76947280Y-54712519D01*
X76531707Y-54975311D01*
X76138640Y-55270682D01*
X76138635Y-55270686D01*
X75770601Y-55596736D01*
X75429999Y-55951340D01*
X75119038Y-56332199D01*
X74839734Y-56736843D01*
X74593885Y-57162666D01*
X74383108Y-57606872D01*
X74208753Y-58066604D01*
X74208750Y-58066613D01*
X74071962Y-58538862D01*
X74071962Y-58538863D01*
X73973613Y-59020607D01*
X73973609Y-59020634D01*
X73914347Y-59508693D01*
X73914347Y-59508702D01*
X73914346Y-59508709D01*
X73914346Y-59508715D01*
X73894548Y-60000000D01*
X68000500Y-60000000D01*
X68000500Y-50000004D01*
X68644341Y-50000004D01*
X68664935Y-50235400D01*
X68726098Y-50463667D01*
X68825959Y-50677818D01*
X68825963Y-50677826D01*
X68825964Y-50677828D01*
X68825965Y-50677829D01*
X68961505Y-50871401D01*
X69128599Y-51038495D01*
X69322171Y-51174035D01*
X69322172Y-51174035D01*
X69322173Y-51174036D01*
X69322181Y-51174040D01*
X69536333Y-51273901D01*
X69536337Y-51273903D01*
X69764592Y-51335063D01*
X69764596Y-51335063D01*
X69764599Y-51335064D01*
X69941026Y-51350500D01*
X69941034Y-51350500D01*
X70058974Y-51350500D01*
X70235400Y-51335064D01*
X70235401Y-51335063D01*
X70235408Y-51335063D01*
X70463663Y-51273903D01*
X70677829Y-51174035D01*
X70871401Y-51038495D01*
X71038495Y-50871401D01*
X71174035Y-50677830D01*
X71273903Y-50463663D01*
X71335063Y-50235408D01*
X71355659Y-50000004D01*
X88644341Y-50000004D01*
X88664935Y-50235400D01*
X88726098Y-50463667D01*
X88825959Y-50677818D01*
X88825963Y-50677826D01*
X88825964Y-50677828D01*
X88825965Y-50677829D01*
X88961505Y-50871401D01*
X89128599Y-51038495D01*
X89322171Y-51174035D01*
X89322172Y-51174035D01*
X89322173Y-51174036D01*
X89322181Y-51174040D01*
X89536333Y-51273901D01*
X89536337Y-51273903D01*
X89764592Y-51335063D01*
X89764596Y-51335063D01*
X89764599Y-51335064D01*
X89941026Y-51350500D01*
X89941034Y-51350500D01*
X90058974Y-51350500D01*
X90235400Y-51335064D01*
X90235401Y-51335063D01*
X90235408Y-51335063D01*
X90463663Y-51273903D01*
X90677829Y-51174035D01*
X90871401Y-51038495D01*
X91038495Y-50871401D01*
X91174035Y-50677830D01*
X91273903Y-50463663D01*
X91335063Y-50235408D01*
X91355659Y-50000000D01*
X91335063Y-49764592D01*
X91273903Y-49536337D01*
X91174035Y-49322171D01*
X91038495Y-49128599D01*
X90871401Y-48961505D01*
X90871397Y-48961502D01*
X90871396Y-48961501D01*
X90678167Y-48826202D01*
X90677829Y-48825965D01*
X90677828Y-48825964D01*
X90677826Y-48825963D01*
X90677818Y-48825959D01*
X90463666Y-48726098D01*
X90463667Y-48726098D01*
X90387578Y-48705710D01*
X90235408Y-48664937D01*
X90235407Y-48664936D01*
X90235400Y-48664935D01*
X90058974Y-48649500D01*
X90058966Y-48649500D01*
X89941034Y-48649500D01*
X89941026Y-48649500D01*
X89764599Y-48664935D01*
X89536332Y-48726098D01*
X89322181Y-48825959D01*
X89322173Y-48825963D01*
X89128603Y-48961501D01*
X88961501Y-49128603D01*
X88825964Y-49322171D01*
X88726097Y-49536337D01*
X88664935Y-49764599D01*
X88644341Y-49999995D01*
X88644341Y-50000004D01*
X71355659Y-50000004D01*
X71355659Y-50000000D01*
X71335063Y-49764592D01*
X71273903Y-49536337D01*
X71174035Y-49322171D01*
X71038495Y-49128599D01*
X70871401Y-48961505D01*
X70871397Y-48961502D01*
X70871396Y-48961501D01*
X70678167Y-48826202D01*
X70677829Y-48825965D01*
X70677828Y-48825964D01*
X70677826Y-48825963D01*
X70677818Y-48825959D01*
X70463666Y-48726098D01*
X70463667Y-48726098D01*
X70387578Y-48705710D01*
X70235408Y-48664937D01*
X70235407Y-48664936D01*
X70235400Y-48664935D01*
X70058974Y-48649500D01*
X70058966Y-48649500D01*
X69941034Y-48649500D01*
X69941026Y-48649500D01*
X69764599Y-48664935D01*
X69536332Y-48726098D01*
X69322181Y-48825959D01*
X69322173Y-48825963D01*
X69128603Y-48961501D01*
X68961501Y-49128603D01*
X68825964Y-49322171D01*
X68726097Y-49536337D01*
X68664935Y-49764599D01*
X68644341Y-49999995D01*
X68644341Y-50000004D01*
X68000500Y-50000004D01*
X68000500Y-49002158D01*
X68000687Y-48997860D01*
X68004483Y-48954465D01*
X68017120Y-48826179D01*
X68020007Y-48810307D01*
X68038218Y-48742342D01*
X68038603Y-48740995D01*
X68067199Y-48646725D01*
X68072207Y-48633639D01*
X68099292Y-48575555D01*
X68104551Y-48564276D01*
X68105718Y-48561943D01*
X68151123Y-48476994D01*
X68154212Y-48471965D01*
X68201271Y-48404759D01*
X68203528Y-48401784D01*
X68263508Y-48328698D01*
X68266741Y-48325131D01*
X68325131Y-48266741D01*
X68328698Y-48263508D01*
X68401784Y-48203528D01*
X68404759Y-48201271D01*
X68471965Y-48154212D01*
X68476994Y-48151123D01*
X68561943Y-48105718D01*
X68564276Y-48104551D01*
X68633641Y-48072205D01*
X68646725Y-48067199D01*
X68740995Y-48038603D01*
X68742342Y-48038218D01*
X68810307Y-48020007D01*
X68826179Y-48017120D01*
X68954484Y-48004482D01*
X68997859Y-48000687D01*
X69002159Y-48000500D01*
X93997840Y-48000500D01*
X94002140Y-48000687D01*
G37*
G04 #@! TD.AperFunction*
M02*
