G04 #@! TF.GenerationSoftware,KiCad,Pcbnew,7.0.5.1-1-g8f565ef7f0-dirty-deb11*
G04 #@! TF.CreationDate,2023-05-31T21:04:00+00:00*
G04 #@! TF.ProjectId,pedalboard-led-ring,70656461-6c62-46f6-9172-642d6c65642d,1.0.0*
G04 #@! TF.SameCoordinates,Original*
G04 #@! TF.FileFunction,Copper,L1,Top*
G04 #@! TF.FilePolarity,Positive*
%FSLAX46Y46*%
G04 Gerber Fmt 4.6, Leading zero omitted, Abs format (unit mm)*
G04 Created by KiCad (PCBNEW 7.0.5.1-1-g8f565ef7f0-dirty-deb11) date 2023-05-31 21:04:00*
%MOMM*%
%LPD*%
G01*
G04 APERTURE LIST*
G04 #@! TA.AperFunction,SMDPad,CuDef*
%ADD10R,0.500000X0.500000*%
G04 #@! TD*
G04 #@! TA.AperFunction,ViaPad*
%ADD11C,0.800000*%
G04 #@! TD*
G04 #@! TA.AperFunction,Conductor*
%ADD12C,0.250000*%
G04 #@! TD*
G04 APERTURE END LIST*
G04 #@! TA.AperFunction,SMDPad,CuDef*
G36*
G01*
X71485740Y-65752869D02*
X71312534Y-65852869D01*
G75*
G02*
X71175931Y-65816266I-50000J86603D01*
G01*
X70958431Y-65439544D01*
G75*
G02*
X70995034Y-65302941I86603J50000D01*
G01*
X71168240Y-65202941D01*
G75*
G02*
X71304843Y-65239544I50000J-86603D01*
G01*
X71522343Y-65616266D01*
G75*
G02*
X71485740Y-65752869I-86603J-50000D01*
G01*
G37*
G04 #@! TD.AperFunction*
G04 #@! TA.AperFunction,SMDPad,CuDef*
G36*
G01*
X71078240Y-65047059D02*
X70905034Y-65147059D01*
G75*
G02*
X70768431Y-65110456I-50000J86603D01*
G01*
X70550931Y-64733734D01*
G75*
G02*
X70587534Y-64597131I86603J50000D01*
G01*
X70760740Y-64497131D01*
G75*
G02*
X70897343Y-64533734I50000J-86603D01*
G01*
X71114843Y-64910456D01*
G75*
G02*
X71078240Y-65047059I-86603J-50000D01*
G01*
G37*
G04 #@! TD.AperFunction*
G04 #@! TA.AperFunction,SMDPad,CuDef*
G36*
X84323205Y-67088012D02*
G01*
X84756217Y-66838012D01*
X85006217Y-67271024D01*
X84573205Y-67521024D01*
X84323205Y-67088012D01*
G37*
G04 #@! TD.AperFunction*
G04 #@! TA.AperFunction,SMDPad,CuDef*
G36*
X83543783Y-67538012D02*
G01*
X83976795Y-67288012D01*
X84226795Y-67721024D01*
X83793783Y-67971024D01*
X83543783Y-67538012D01*
G37*
G04 #@! TD.AperFunction*
G04 #@! TA.AperFunction,SMDPad,CuDef*
G36*
X83993783Y-68317434D02*
G01*
X84426795Y-68067434D01*
X84676795Y-68500446D01*
X84243783Y-68750446D01*
X83993783Y-68317434D01*
G37*
G04 #@! TD.AperFunction*
G04 #@! TA.AperFunction,SMDPad,CuDef*
G36*
X84773205Y-67867434D02*
G01*
X85206217Y-67617434D01*
X85456217Y-68050446D01*
X85023205Y-68300446D01*
X84773205Y-67867434D01*
G37*
G04 #@! TD.AperFunction*
D10*
X88550000Y-59550000D03*
X88550000Y-60450000D03*
X89450000Y-60450000D03*
X89450000Y-59550000D03*
X79550000Y-51450000D03*
X80450000Y-51450000D03*
X80450000Y-50550000D03*
X79550000Y-50550000D03*
G04 #@! TA.AperFunction,SMDPad,CuDef*
G36*
X87288012Y-63976795D02*
G01*
X87538012Y-63543783D01*
X87971024Y-63793783D01*
X87721024Y-64226795D01*
X87288012Y-63976795D01*
G37*
G04 #@! TD.AperFunction*
G04 #@! TA.AperFunction,SMDPad,CuDef*
G36*
X86838012Y-64756217D02*
G01*
X87088012Y-64323205D01*
X87521024Y-64573205D01*
X87271024Y-65006217D01*
X86838012Y-64756217D01*
G37*
G04 #@! TD.AperFunction*
G04 #@! TA.AperFunction,SMDPad,CuDef*
G36*
X87617434Y-65206217D02*
G01*
X87867434Y-64773205D01*
X88300446Y-65023205D01*
X88050446Y-65456217D01*
X87617434Y-65206217D01*
G37*
G04 #@! TD.AperFunction*
G04 #@! TA.AperFunction,SMDPad,CuDef*
G36*
X88067434Y-64426795D02*
G01*
X88317434Y-63993783D01*
X88750446Y-64243783D01*
X88500446Y-64676795D01*
X88067434Y-64426795D01*
G37*
G04 #@! TD.AperFunction*
G04 #@! TA.AperFunction,SMDPad,CuDef*
G36*
X72911988Y-64323205D02*
G01*
X73161988Y-64756217D01*
X72728976Y-65006217D01*
X72478976Y-64573205D01*
X72911988Y-64323205D01*
G37*
G04 #@! TD.AperFunction*
G04 #@! TA.AperFunction,SMDPad,CuDef*
G36*
X72461988Y-63543783D02*
G01*
X72711988Y-63976795D01*
X72278976Y-64226795D01*
X72028976Y-63793783D01*
X72461988Y-63543783D01*
G37*
G04 #@! TD.AperFunction*
G04 #@! TA.AperFunction,SMDPad,CuDef*
G36*
X71682566Y-63993783D02*
G01*
X71932566Y-64426795D01*
X71499554Y-64676795D01*
X71249554Y-64243783D01*
X71682566Y-63993783D01*
G37*
G04 #@! TD.AperFunction*
G04 #@! TA.AperFunction,SMDPad,CuDef*
G36*
X72132566Y-64773205D02*
G01*
X72382566Y-65206217D01*
X71949554Y-65456217D01*
X71699554Y-65023205D01*
X72132566Y-64773205D01*
G37*
G04 #@! TD.AperFunction*
X80450000Y-68550000D03*
X79550000Y-68550000D03*
X79550000Y-69450000D03*
X80450000Y-69450000D03*
G04 #@! TA.AperFunction,SMDPad,CuDef*
G36*
G01*
X85752869Y-68514260D02*
X85852869Y-68687466D01*
G75*
G02*
X85816266Y-68824069I-86603J-50000D01*
G01*
X85439544Y-69041569D01*
G75*
G02*
X85302941Y-69004966I-50000J86603D01*
G01*
X85202941Y-68831760D01*
G75*
G02*
X85239544Y-68695157I86603J50000D01*
G01*
X85616266Y-68477657D01*
G75*
G02*
X85752869Y-68514260I50000J-86603D01*
G01*
G37*
G04 #@! TD.AperFunction*
G04 #@! TA.AperFunction,SMDPad,CuDef*
G36*
G01*
X85047059Y-68921760D02*
X85147059Y-69094966D01*
G75*
G02*
X85110456Y-69231569I-86603J-50000D01*
G01*
X84733734Y-69449069D01*
G75*
G02*
X84597131Y-69412466I-50000J86603D01*
G01*
X84497131Y-69239260D01*
G75*
G02*
X84533734Y-69102657I86603J50000D01*
G01*
X84910456Y-68885157D01*
G75*
G02*
X85047059Y-68921760I50000J-86603D01*
G01*
G37*
G04 #@! TD.AperFunction*
X71450000Y-60450000D03*
X71450000Y-59550000D03*
X70550000Y-59550000D03*
X70550000Y-60450000D03*
G04 #@! TA.AperFunction,SMDPad,CuDef*
G36*
X72711988Y-56023205D02*
G01*
X72461988Y-56456217D01*
X72028976Y-56206217D01*
X72278976Y-55773205D01*
X72711988Y-56023205D01*
G37*
G04 #@! TD.AperFunction*
G04 #@! TA.AperFunction,SMDPad,CuDef*
G36*
X73161988Y-55243783D02*
G01*
X72911988Y-55676795D01*
X72478976Y-55426795D01*
X72728976Y-54993783D01*
X73161988Y-55243783D01*
G37*
G04 #@! TD.AperFunction*
G04 #@! TA.AperFunction,SMDPad,CuDef*
G36*
X72382566Y-54793783D02*
G01*
X72132566Y-55226795D01*
X71699554Y-54976795D01*
X71949554Y-54543783D01*
X72382566Y-54793783D01*
G37*
G04 #@! TD.AperFunction*
G04 #@! TA.AperFunction,SMDPad,CuDef*
G36*
X71932566Y-55573205D02*
G01*
X71682566Y-56006217D01*
X71249554Y-55756217D01*
X71499554Y-55323205D01*
X71932566Y-55573205D01*
G37*
G04 #@! TD.AperFunction*
G04 #@! TA.AperFunction,SMDPad,CuDef*
G36*
G01*
X89239260Y-64497131D02*
X89412466Y-64597131D01*
G75*
G02*
X89449069Y-64733734I-50000J-86603D01*
G01*
X89231569Y-65110456D01*
G75*
G02*
X89094966Y-65147059I-86603J50000D01*
G01*
X88921760Y-65047059D01*
G75*
G02*
X88885157Y-64910456I50000J86603D01*
G01*
X89102657Y-64533734D01*
G75*
G02*
X89239260Y-64497131I86603J-50000D01*
G01*
G37*
G04 #@! TD.AperFunction*
G04 #@! TA.AperFunction,SMDPad,CuDef*
G36*
G01*
X88831760Y-65202941D02*
X89004966Y-65302941D01*
G75*
G02*
X89041569Y-65439544I-50000J-86603D01*
G01*
X88824069Y-65816266D01*
G75*
G02*
X88687466Y-65852869I-86603J50000D01*
G01*
X88514260Y-65752869D01*
G75*
G02*
X88477657Y-65616266I50000J86603D01*
G01*
X88695157Y-65239544D01*
G75*
G02*
X88831760Y-65202941I86603J-50000D01*
G01*
G37*
G04 #@! TD.AperFunction*
G04 #@! TA.AperFunction,SMDPad,CuDef*
G36*
G01*
X70760740Y-55502869D02*
X70587534Y-55402869D01*
G75*
G02*
X70550931Y-55266266I50000J86603D01*
G01*
X70768431Y-54889544D01*
G75*
G02*
X70905034Y-54852941I86603J-50000D01*
G01*
X71078240Y-54952941D01*
G75*
G02*
X71114843Y-55089544I-50000J-86603D01*
G01*
X70897343Y-55466266D01*
G75*
G02*
X70760740Y-55502869I-86603J50000D01*
G01*
G37*
G04 #@! TD.AperFunction*
G04 #@! TA.AperFunction,SMDPad,CuDef*
G36*
G01*
X71168240Y-54797059D02*
X70995034Y-54697059D01*
G75*
G02*
X70958431Y-54560456I50000J86603D01*
G01*
X71175931Y-54183734D01*
G75*
G02*
X71312534Y-54147131I86603J-50000D01*
G01*
X71485740Y-54247131D01*
G75*
G02*
X71522343Y-54383734I-50000J-86603D01*
G01*
X71304843Y-54760456D01*
G75*
G02*
X71168240Y-54797059I-86603J50000D01*
G01*
G37*
G04 #@! TD.AperFunction*
G04 #@! TA.AperFunction,SMDPad,CuDef*
G36*
G01*
X75502869Y-69239260D02*
X75402869Y-69412466D01*
G75*
G02*
X75266266Y-69449069I-86603J50000D01*
G01*
X74889544Y-69231569D01*
G75*
G02*
X74852941Y-69094966I50000J86603D01*
G01*
X74952941Y-68921760D01*
G75*
G02*
X75089544Y-68885157I86603J-50000D01*
G01*
X75466266Y-69102657D01*
G75*
G02*
X75502869Y-69239260I-50000J-86603D01*
G01*
G37*
G04 #@! TD.AperFunction*
G04 #@! TA.AperFunction,SMDPad,CuDef*
G36*
G01*
X74797059Y-68831760D02*
X74697059Y-69004966D01*
G75*
G02*
X74560456Y-69041569I-86603J50000D01*
G01*
X74183734Y-68824069D01*
G75*
G02*
X74147131Y-68687466I50000J86603D01*
G01*
X74247131Y-68514260D01*
G75*
G02*
X74383734Y-68477657I86603J-50000D01*
G01*
X74760456Y-68695157D01*
G75*
G02*
X74797059Y-68831760I-50000J-86603D01*
G01*
G37*
G04 #@! TD.AperFunction*
G04 #@! TA.AperFunction,SMDPad,CuDef*
G36*
G01*
X69750000Y-60725000D02*
X69550000Y-60725000D01*
G75*
G02*
X69450000Y-60625000I0J100000D01*
G01*
X69450000Y-60190000D01*
G75*
G02*
X69550000Y-60090000I100000J0D01*
G01*
X69750000Y-60090000D01*
G75*
G02*
X69850000Y-60190000I0J-100000D01*
G01*
X69850000Y-60625000D01*
G75*
G02*
X69750000Y-60725000I-100000J0D01*
G01*
G37*
G04 #@! TD.AperFunction*
G04 #@! TA.AperFunction,SMDPad,CuDef*
G36*
G01*
X69750000Y-59910000D02*
X69550000Y-59910000D01*
G75*
G02*
X69450000Y-59810000I0J100000D01*
G01*
X69450000Y-59375000D01*
G75*
G02*
X69550000Y-59275000I100000J0D01*
G01*
X69750000Y-59275000D01*
G75*
G02*
X69850000Y-59375000I0J-100000D01*
G01*
X69850000Y-59810000D01*
G75*
G02*
X69750000Y-59910000I-100000J0D01*
G01*
G37*
G04 #@! TD.AperFunction*
G04 #@! TA.AperFunction,SMDPad,CuDef*
G36*
G01*
X80725000Y-70250000D02*
X80725000Y-70450000D01*
G75*
G02*
X80625000Y-70550000I-100000J0D01*
G01*
X80190000Y-70550000D01*
G75*
G02*
X80090000Y-70450000I0J100000D01*
G01*
X80090000Y-70250000D01*
G75*
G02*
X80190000Y-70150000I100000J0D01*
G01*
X80625000Y-70150000D01*
G75*
G02*
X80725000Y-70250000I0J-100000D01*
G01*
G37*
G04 #@! TD.AperFunction*
G04 #@! TA.AperFunction,SMDPad,CuDef*
G36*
G01*
X79910000Y-70250000D02*
X79910000Y-70450000D01*
G75*
G02*
X79810000Y-70550000I-100000J0D01*
G01*
X79375000Y-70550000D01*
G75*
G02*
X79275000Y-70450000I0J100000D01*
G01*
X79275000Y-70250000D01*
G75*
G02*
X79375000Y-70150000I100000J0D01*
G01*
X79810000Y-70150000D01*
G75*
G02*
X79910000Y-70250000I0J-100000D01*
G01*
G37*
G04 #@! TD.AperFunction*
G04 #@! TA.AperFunction,SMDPad,CuDef*
G36*
G01*
X84497131Y-50760740D02*
X84597131Y-50587534D01*
G75*
G02*
X84733734Y-50550931I86603J-50000D01*
G01*
X85110456Y-50768431D01*
G75*
G02*
X85147059Y-50905034I-50000J-86603D01*
G01*
X85047059Y-51078240D01*
G75*
G02*
X84910456Y-51114843I-86603J50000D01*
G01*
X84533734Y-50897343D01*
G75*
G02*
X84497131Y-50760740I50000J86603D01*
G01*
G37*
G04 #@! TD.AperFunction*
G04 #@! TA.AperFunction,SMDPad,CuDef*
G36*
G01*
X85202941Y-51168240D02*
X85302941Y-50995034D01*
G75*
G02*
X85439544Y-50958431I86603J-50000D01*
G01*
X85816266Y-51175931D01*
G75*
G02*
X85852869Y-51312534I-50000J-86603D01*
G01*
X85752869Y-51485740D01*
G75*
G02*
X85616266Y-51522343I-86603J50000D01*
G01*
X85239544Y-51304843D01*
G75*
G02*
X85202941Y-51168240I50000J86603D01*
G01*
G37*
G04 #@! TD.AperFunction*
G04 #@! TA.AperFunction,SMDPad,CuDef*
G36*
G01*
X88514260Y-54247131D02*
X88687466Y-54147131D01*
G75*
G02*
X88824069Y-54183734I50000J-86603D01*
G01*
X89041569Y-54560456D01*
G75*
G02*
X89004966Y-54697059I-86603J-50000D01*
G01*
X88831760Y-54797059D01*
G75*
G02*
X88695157Y-54760456I-50000J86603D01*
G01*
X88477657Y-54383734D01*
G75*
G02*
X88514260Y-54247131I86603J50000D01*
G01*
G37*
G04 #@! TD.AperFunction*
G04 #@! TA.AperFunction,SMDPad,CuDef*
G36*
G01*
X88921760Y-54952941D02*
X89094966Y-54852941D01*
G75*
G02*
X89231569Y-54889544I50000J-86603D01*
G01*
X89449069Y-55266266D01*
G75*
G02*
X89412466Y-55402869I-86603J-50000D01*
G01*
X89239260Y-55502869D01*
G75*
G02*
X89102657Y-55466266I-50000J86603D01*
G01*
X88885157Y-55089544D01*
G75*
G02*
X88921760Y-54952941I86603J50000D01*
G01*
G37*
G04 #@! TD.AperFunction*
G04 #@! TA.AperFunction,SMDPad,CuDef*
G36*
G01*
X74247131Y-51485740D02*
X74147131Y-51312534D01*
G75*
G02*
X74183734Y-51175931I86603J50000D01*
G01*
X74560456Y-50958431D01*
G75*
G02*
X74697059Y-50995034I50000J-86603D01*
G01*
X74797059Y-51168240D01*
G75*
G02*
X74760456Y-51304843I-86603J-50000D01*
G01*
X74383734Y-51522343D01*
G75*
G02*
X74247131Y-51485740I-50000J86603D01*
G01*
G37*
G04 #@! TD.AperFunction*
G04 #@! TA.AperFunction,SMDPad,CuDef*
G36*
G01*
X74952941Y-51078240D02*
X74852941Y-50905034D01*
G75*
G02*
X74889544Y-50768431I86603J50000D01*
G01*
X75266266Y-50550931D01*
G75*
G02*
X75402869Y-50587534I50000J-86603D01*
G01*
X75502869Y-50760740D01*
G75*
G02*
X75466266Y-50897343I-86603J-50000D01*
G01*
X75089544Y-51114843D01*
G75*
G02*
X74952941Y-51078240I-50000J86603D01*
G01*
G37*
G04 #@! TD.AperFunction*
G04 #@! TA.AperFunction,SMDPad,CuDef*
G36*
X87088012Y-55676795D02*
G01*
X86838012Y-55243783D01*
X87271024Y-54993783D01*
X87521024Y-55426795D01*
X87088012Y-55676795D01*
G37*
G04 #@! TD.AperFunction*
G04 #@! TA.AperFunction,SMDPad,CuDef*
G36*
X87538012Y-56456217D02*
G01*
X87288012Y-56023205D01*
X87721024Y-55773205D01*
X87971024Y-56206217D01*
X87538012Y-56456217D01*
G37*
G04 #@! TD.AperFunction*
G04 #@! TA.AperFunction,SMDPad,CuDef*
G36*
X88317434Y-56006217D02*
G01*
X88067434Y-55573205D01*
X88500446Y-55323205D01*
X88750446Y-55756217D01*
X88317434Y-56006217D01*
G37*
G04 #@! TD.AperFunction*
G04 #@! TA.AperFunction,SMDPad,CuDef*
G36*
X87867434Y-55226795D02*
G01*
X87617434Y-54793783D01*
X88050446Y-54543783D01*
X88300446Y-54976795D01*
X87867434Y-55226795D01*
G37*
G04 #@! TD.AperFunction*
G04 #@! TA.AperFunction,SMDPad,CuDef*
G36*
G01*
X90250000Y-59275000D02*
X90450000Y-59275000D01*
G75*
G02*
X90550000Y-59375000I0J-100000D01*
G01*
X90550000Y-59810000D01*
G75*
G02*
X90450000Y-59910000I-100000J0D01*
G01*
X90250000Y-59910000D01*
G75*
G02*
X90150000Y-59810000I0J100000D01*
G01*
X90150000Y-59375000D01*
G75*
G02*
X90250000Y-59275000I100000J0D01*
G01*
G37*
G04 #@! TD.AperFunction*
G04 #@! TA.AperFunction,SMDPad,CuDef*
G36*
G01*
X90250000Y-60090000D02*
X90450000Y-60090000D01*
G75*
G02*
X90550000Y-60190000I0J-100000D01*
G01*
X90550000Y-60625000D01*
G75*
G02*
X90450000Y-60725000I-100000J0D01*
G01*
X90250000Y-60725000D01*
G75*
G02*
X90150000Y-60625000I0J100000D01*
G01*
X90150000Y-60190000D01*
G75*
G02*
X90250000Y-60090000I100000J0D01*
G01*
G37*
G04 #@! TD.AperFunction*
G04 #@! TA.AperFunction,SMDPad,CuDef*
G36*
X75676795Y-52911988D02*
G01*
X75243783Y-53161988D01*
X74993783Y-52728976D01*
X75426795Y-52478976D01*
X75676795Y-52911988D01*
G37*
G04 #@! TD.AperFunction*
G04 #@! TA.AperFunction,SMDPad,CuDef*
G36*
X76456217Y-52461988D02*
G01*
X76023205Y-52711988D01*
X75773205Y-52278976D01*
X76206217Y-52028976D01*
X76456217Y-52461988D01*
G37*
G04 #@! TD.AperFunction*
G04 #@! TA.AperFunction,SMDPad,CuDef*
G36*
X76006217Y-51682566D02*
G01*
X75573205Y-51932566D01*
X75323205Y-51499554D01*
X75756217Y-51249554D01*
X76006217Y-51682566D01*
G37*
G04 #@! TD.AperFunction*
G04 #@! TA.AperFunction,SMDPad,CuDef*
G36*
X75226795Y-52132566D02*
G01*
X74793783Y-52382566D01*
X74543783Y-51949554D01*
X74976795Y-51699554D01*
X75226795Y-52132566D01*
G37*
G04 #@! TD.AperFunction*
G04 #@! TA.AperFunction,SMDPad,CuDef*
G36*
X76023205Y-67288012D02*
G01*
X76456217Y-67538012D01*
X76206217Y-67971024D01*
X75773205Y-67721024D01*
X76023205Y-67288012D01*
G37*
G04 #@! TD.AperFunction*
G04 #@! TA.AperFunction,SMDPad,CuDef*
G36*
X75243783Y-66838012D02*
G01*
X75676795Y-67088012D01*
X75426795Y-67521024D01*
X74993783Y-67271024D01*
X75243783Y-66838012D01*
G37*
G04 #@! TD.AperFunction*
G04 #@! TA.AperFunction,SMDPad,CuDef*
G36*
X74793783Y-67617434D02*
G01*
X75226795Y-67867434D01*
X74976795Y-68300446D01*
X74543783Y-68050446D01*
X74793783Y-67617434D01*
G37*
G04 #@! TD.AperFunction*
G04 #@! TA.AperFunction,SMDPad,CuDef*
G36*
X75573205Y-68067434D02*
G01*
X76006217Y-68317434D01*
X75756217Y-68750446D01*
X75323205Y-68500446D01*
X75573205Y-68067434D01*
G37*
G04 #@! TD.AperFunction*
G04 #@! TA.AperFunction,SMDPad,CuDef*
G36*
X83976795Y-52711988D02*
G01*
X83543783Y-52461988D01*
X83793783Y-52028976D01*
X84226795Y-52278976D01*
X83976795Y-52711988D01*
G37*
G04 #@! TD.AperFunction*
G04 #@! TA.AperFunction,SMDPad,CuDef*
G36*
X84756217Y-53161988D02*
G01*
X84323205Y-52911988D01*
X84573205Y-52478976D01*
X85006217Y-52728976D01*
X84756217Y-53161988D01*
G37*
G04 #@! TD.AperFunction*
G04 #@! TA.AperFunction,SMDPad,CuDef*
G36*
X85206217Y-52382566D02*
G01*
X84773205Y-52132566D01*
X85023205Y-51699554D01*
X85456217Y-51949554D01*
X85206217Y-52382566D01*
G37*
G04 #@! TD.AperFunction*
G04 #@! TA.AperFunction,SMDPad,CuDef*
G36*
X84426795Y-51932566D02*
G01*
X83993783Y-51682566D01*
X84243783Y-51249554D01*
X84676795Y-51499554D01*
X84426795Y-51932566D01*
G37*
G04 #@! TD.AperFunction*
G04 #@! TA.AperFunction,SMDPad,CuDef*
G36*
G01*
X79275000Y-49750000D02*
X79275000Y-49550000D01*
G75*
G02*
X79375000Y-49450000I100000J0D01*
G01*
X79810000Y-49450000D01*
G75*
G02*
X79910000Y-49550000I0J-100000D01*
G01*
X79910000Y-49750000D01*
G75*
G02*
X79810000Y-49850000I-100000J0D01*
G01*
X79375000Y-49850000D01*
G75*
G02*
X79275000Y-49750000I0J100000D01*
G01*
G37*
G04 #@! TD.AperFunction*
G04 #@! TA.AperFunction,SMDPad,CuDef*
G36*
G01*
X80090000Y-49750000D02*
X80090000Y-49550000D01*
G75*
G02*
X80190000Y-49450000I100000J0D01*
G01*
X80625000Y-49450000D01*
G75*
G02*
X80725000Y-49550000I0J-100000D01*
G01*
X80725000Y-49750000D01*
G75*
G02*
X80625000Y-49850000I-100000J0D01*
G01*
X80190000Y-49850000D01*
G75*
G02*
X80090000Y-49750000I0J100000D01*
G01*
G37*
G04 #@! TD.AperFunction*
D11*
X89500000Y-61100000D03*
X88100000Y-63100000D03*
X89726279Y-65153590D03*
X69000000Y-60400000D03*
X80400000Y-71000000D03*
X85153590Y-50273721D03*
X74153590Y-50673721D03*
X79600000Y-49000000D03*
X70273721Y-54846410D03*
X89326279Y-54153590D03*
X85846410Y-69326279D03*
X74846410Y-69726279D03*
X91000000Y-59600000D03*
X70673721Y-65846410D03*
X92000000Y-65000000D03*
X93000000Y-61200000D03*
X93000000Y-62600000D03*
X93000000Y-65000000D03*
X93000000Y-63800000D03*
X92000000Y-61200000D03*
D12*
X88550000Y-59550000D02*
X88550000Y-55805771D01*
X88550000Y-55805771D02*
X88408940Y-55664711D01*
X89450000Y-60450000D02*
X89450000Y-61120498D01*
X87179518Y-55335289D02*
X87179518Y-54105867D01*
X87179518Y-54105867D02*
X85114711Y-52041060D01*
X83885289Y-52370482D02*
X82064807Y-50550000D01*
X82064807Y-50550000D02*
X80450000Y-50550000D01*
X79550000Y-51450000D02*
X75805771Y-51450000D01*
X75805771Y-51450000D02*
X75664711Y-51591060D01*
X74105867Y-52820482D02*
X72041060Y-54885289D01*
X75335289Y-52820482D02*
X74105867Y-52820482D01*
X70550000Y-57935193D02*
X70550000Y-59550000D01*
X72370482Y-56114711D02*
X70550000Y-57935193D01*
X87629518Y-63885289D02*
X87629518Y-63570482D01*
X87629518Y-63570482D02*
X88100000Y-63100000D01*
X90350000Y-59592500D02*
X90992500Y-59592500D01*
X70832887Y-55177905D02*
X70605216Y-55177905D01*
X85527905Y-68759613D02*
X85527905Y-69007774D01*
X85527905Y-68372134D02*
X85114711Y-67958940D01*
X88759613Y-54472095D02*
X88372134Y-54472095D01*
X88895746Y-64822095D02*
X88408940Y-64335289D01*
X75177905Y-69167113D02*
X75177905Y-69394784D01*
X88372134Y-54472095D02*
X87958940Y-54885289D01*
X88759613Y-54472095D02*
X89007774Y-54472095D01*
X84822095Y-50832887D02*
X84822095Y-51104254D01*
X69650000Y-60407500D02*
X69007500Y-60407500D01*
X84822095Y-50832887D02*
X84822095Y-50605216D01*
X70992226Y-65527905D02*
X70673721Y-65846410D01*
X75177905Y-68895746D02*
X75664711Y-68408940D01*
X71627866Y-65527905D02*
X72041060Y-65114711D01*
X89167113Y-64822095D02*
X88895746Y-64822095D01*
X74472095Y-50992226D02*
X74153590Y-50673721D01*
X71104254Y-55177905D02*
X71591060Y-55664711D01*
X70605216Y-55177905D02*
X70273721Y-54846410D01*
X71240387Y-65527905D02*
X70992226Y-65527905D01*
X84822095Y-50605216D02*
X85153590Y-50273721D01*
X69650000Y-60407500D02*
X70507500Y-60407500D01*
X89007774Y-54472095D02*
X89326279Y-54153590D01*
X90350000Y-59592500D02*
X89492500Y-59592500D01*
X75177905Y-69394784D02*
X74846410Y-69726279D01*
X74472095Y-51240387D02*
X74472095Y-50992226D01*
X74472095Y-51627866D02*
X74885289Y-52041060D01*
X89167113Y-64822095D02*
X89394784Y-64822095D01*
X80407500Y-70350000D02*
X80407500Y-70992500D01*
X84822095Y-51104254D02*
X84335289Y-51591060D01*
X74472095Y-51240387D02*
X74472095Y-51627866D01*
X80407500Y-70350000D02*
X80407500Y-69492500D01*
X80407500Y-70992500D02*
X80400000Y-71000000D01*
X89394784Y-64822095D02*
X89726279Y-65153590D01*
X79592500Y-49007500D02*
X79600000Y-49000000D01*
X71240387Y-65527905D02*
X71627866Y-65527905D01*
X90992500Y-59592500D02*
X91000000Y-59600000D01*
X85527905Y-69007774D02*
X85846410Y-69326279D01*
X79592500Y-49650000D02*
X79592500Y-50507500D01*
X69007500Y-60407500D02*
X69000000Y-60400000D01*
X79592500Y-49650000D02*
X79592500Y-49007500D01*
X70832887Y-55177905D02*
X71104254Y-55177905D01*
X85527905Y-68759613D02*
X85527905Y-68372134D01*
X75177905Y-69167113D02*
X75177905Y-68895746D01*
X71450000Y-60450000D02*
X71450000Y-64194229D01*
X71450000Y-64194229D02*
X71591060Y-64335289D01*
X72820482Y-65894133D02*
X74885289Y-67958940D01*
X72820482Y-64664711D02*
X72820482Y-65894133D01*
X76114711Y-67629518D02*
X77935193Y-69450000D01*
X77935193Y-69450000D02*
X79550000Y-69450000D01*
X85894133Y-67179518D02*
X87958940Y-65114711D01*
X84664711Y-67179518D02*
X85894133Y-67179518D01*
X84194229Y-68550000D02*
X84335289Y-68408940D01*
X80450000Y-68550000D02*
X84194229Y-68550000D01*
G04 #@! TA.AperFunction,Conductor*
G36*
X93002140Y-46000687D02*
G01*
X93045464Y-46004477D01*
X93173816Y-46017119D01*
X93189696Y-46020008D01*
X93257626Y-46038209D01*
X93259036Y-46038612D01*
X93353264Y-46067196D01*
X93366359Y-46072207D01*
X93435690Y-46104536D01*
X93438085Y-46105733D01*
X93522989Y-46151115D01*
X93528052Y-46154225D01*
X93595221Y-46201258D01*
X93598233Y-46203543D01*
X93632865Y-46231964D01*
X93671280Y-46263491D01*
X93674877Y-46266751D01*
X93733247Y-46325121D01*
X93736512Y-46328723D01*
X93796455Y-46401765D01*
X93798740Y-46404777D01*
X93845773Y-46471946D01*
X93848883Y-46477009D01*
X93894255Y-46561893D01*
X93895462Y-46564308D01*
X93927791Y-46633639D01*
X93932804Y-46646739D01*
X93961364Y-46740887D01*
X93961809Y-46742445D01*
X93979986Y-46810282D01*
X93982882Y-46826202D01*
X93995520Y-46954525D01*
X93999311Y-46997843D01*
X93999500Y-47002161D01*
X93999500Y-72997837D01*
X93999311Y-73002155D01*
X93995520Y-73045473D01*
X93982882Y-73173796D01*
X93979986Y-73189716D01*
X93961809Y-73257553D01*
X93961364Y-73259111D01*
X93932804Y-73353259D01*
X93927791Y-73366359D01*
X93895462Y-73435690D01*
X93894255Y-73438105D01*
X93848883Y-73522989D01*
X93845773Y-73528052D01*
X93798740Y-73595221D01*
X93796455Y-73598233D01*
X93736512Y-73671275D01*
X93733247Y-73674877D01*
X93674877Y-73733247D01*
X93671275Y-73736512D01*
X93598233Y-73796455D01*
X93595221Y-73798740D01*
X93528052Y-73845773D01*
X93522989Y-73848883D01*
X93438105Y-73894255D01*
X93435690Y-73895462D01*
X93366359Y-73927791D01*
X93353259Y-73932804D01*
X93259111Y-73961364D01*
X93257553Y-73961809D01*
X93189716Y-73979986D01*
X93173796Y-73982882D01*
X93045473Y-73995520D01*
X93002156Y-73999311D01*
X92997838Y-73999500D01*
X67002162Y-73999500D01*
X66997844Y-73999311D01*
X66954525Y-73995520D01*
X66826202Y-73982882D01*
X66810284Y-73979986D01*
X66773391Y-73970101D01*
X66742445Y-73961809D01*
X66740887Y-73961364D01*
X66646739Y-73932804D01*
X66633639Y-73927791D01*
X66564308Y-73895462D01*
X66561893Y-73894255D01*
X66477009Y-73848883D01*
X66471946Y-73845773D01*
X66404777Y-73798740D01*
X66401765Y-73796455D01*
X66328723Y-73736512D01*
X66325121Y-73733247D01*
X66266751Y-73674877D01*
X66263486Y-73671275D01*
X66203543Y-73598233D01*
X66201258Y-73595221D01*
X66154225Y-73528052D01*
X66151115Y-73522989D01*
X66105733Y-73438085D01*
X66104536Y-73435690D01*
X66072207Y-73366359D01*
X66067194Y-73353259D01*
X66038612Y-73259036D01*
X66038209Y-73257626D01*
X66020008Y-73189696D01*
X66017119Y-73173816D01*
X66004476Y-73045447D01*
X66000687Y-73002140D01*
X66000500Y-72997840D01*
X66000500Y-70500000D01*
X78977934Y-70500000D01*
X78989833Y-70575142D01*
X78989834Y-70575145D01*
X79047359Y-70688044D01*
X79136956Y-70777641D01*
X79249848Y-70835163D01*
X79249852Y-70835164D01*
X79343515Y-70849999D01*
X79442500Y-70849999D01*
X79442500Y-70500001D01*
X79442499Y-70500000D01*
X78977934Y-70500000D01*
X66000500Y-70500000D01*
X66000500Y-68779798D01*
X73830967Y-68779798D01*
X73863761Y-68902189D01*
X73863763Y-68902192D01*
X73932768Y-69008450D01*
X74006471Y-69068134D01*
X74006479Y-69068140D01*
X74092190Y-69117624D01*
X74267189Y-68814517D01*
X73864863Y-68582234D01*
X73837598Y-68653260D01*
X73837597Y-68653267D01*
X73830967Y-68779792D01*
X73830967Y-68779798D01*
X66000500Y-68779798D01*
X66000500Y-64641407D01*
X70234767Y-64641407D01*
X70241397Y-64767932D01*
X70241398Y-64767936D01*
X70275384Y-64856470D01*
X70275389Y-64856481D01*
X70324873Y-64942189D01*
X70324874Y-64942189D01*
X70627981Y-64767190D01*
X70395699Y-64364865D01*
X70336568Y-64412749D01*
X70267563Y-64519007D01*
X70267561Y-64519010D01*
X70234767Y-64641401D01*
X70234767Y-64641407D01*
X66000500Y-64641407D01*
X66000500Y-60400000D01*
X68394318Y-60400000D01*
X68414955Y-60556758D01*
X68414957Y-60556766D01*
X68475462Y-60702838D01*
X68475462Y-60702839D01*
X68571229Y-60827645D01*
X68571718Y-60828282D01*
X68571722Y-60828285D01*
X68571723Y-60828286D01*
X68592924Y-60844554D01*
X68697159Y-60924536D01*
X68697160Y-60924536D01*
X68697161Y-60924537D01*
X68762946Y-60951786D01*
X68843238Y-60985044D01*
X68956826Y-60999998D01*
X68999999Y-61005682D01*
X69000000Y-61005682D01*
X69000001Y-61005682D01*
X69043174Y-60999998D01*
X69156762Y-60985044D01*
X69302841Y-60924536D01*
X69322601Y-60909373D01*
X69380274Y-60888948D01*
X69422852Y-60897348D01*
X69480009Y-60922585D01*
X69505135Y-60925500D01*
X69794864Y-60925499D01*
X69819991Y-60922585D01*
X69922765Y-60877206D01*
X69990029Y-60809941D01*
X70044543Y-60782165D01*
X70104975Y-60791736D01*
X70142346Y-60824944D01*
X70144576Y-60828282D01*
X70155448Y-60844552D01*
X70221769Y-60888867D01*
X70264411Y-60897349D01*
X70280241Y-60900498D01*
X70280246Y-60900498D01*
X70280252Y-60900500D01*
X70280253Y-60900500D01*
X70819747Y-60900500D01*
X70819748Y-60900500D01*
X70878231Y-60888867D01*
X70944552Y-60844552D01*
X70944553Y-60844549D01*
X70944996Y-60844254D01*
X71003884Y-60827645D01*
X71055000Y-60844253D01*
X71080501Y-60861292D01*
X71118381Y-60909342D01*
X71124500Y-60943608D01*
X71124500Y-64041916D01*
X71105593Y-64100107D01*
X71090779Y-64116345D01*
X71087370Y-64119334D01*
X71087369Y-64119335D01*
X71069112Y-64156358D01*
X71026418Y-64200185D01*
X70966116Y-64210546D01*
X70954699Y-64208198D01*
X70853072Y-64180967D01*
X70853066Y-64180967D01*
X70726541Y-64187597D01*
X70726534Y-64187598D01*
X70655508Y-64214863D01*
X70887791Y-64617191D01*
X70988290Y-64791262D01*
X71001011Y-64851111D01*
X70976124Y-64907006D01*
X70952053Y-64926499D01*
X70474872Y-65201999D01*
X70464361Y-65241228D01*
X70431037Y-65292542D01*
X70406623Y-65307067D01*
X70370882Y-65321872D01*
X70370881Y-65321872D01*
X70245444Y-65418123D01*
X70245434Y-65418133D01*
X70149183Y-65543570D01*
X70149183Y-65543571D01*
X70088678Y-65689643D01*
X70088676Y-65689651D01*
X70068039Y-65846409D01*
X70068039Y-65846410D01*
X70088676Y-66003168D01*
X70088678Y-66003176D01*
X70149183Y-66149248D01*
X70149183Y-66149249D01*
X70159276Y-66162402D01*
X70245439Y-66274692D01*
X70370880Y-66370946D01*
X70516959Y-66431454D01*
X70634530Y-66446932D01*
X70673720Y-66452092D01*
X70673721Y-66452092D01*
X70673722Y-66452092D01*
X70705073Y-66447964D01*
X70830483Y-66431454D01*
X70976562Y-66370946D01*
X71102003Y-66274692D01*
X71198257Y-66149251D01*
X71207788Y-66126239D01*
X71247522Y-66079714D01*
X71288599Y-66065699D01*
X71350713Y-66058977D01*
X71373930Y-66048939D01*
X71624842Y-65904073D01*
X71645146Y-65888986D01*
X71649851Y-65882550D01*
X71699459Y-65846737D01*
X71712562Y-65843491D01*
X71740911Y-65838493D01*
X71740913Y-65838492D01*
X71742211Y-65837743D01*
X71766102Y-65827847D01*
X71766330Y-65827785D01*
X71767550Y-65827459D01*
X71801169Y-65803917D01*
X71804777Y-65801619D01*
X71840321Y-65781099D01*
X71866704Y-65749655D01*
X71869592Y-65746503D01*
X71931097Y-65684998D01*
X71969278Y-65661257D01*
X71976233Y-65658895D01*
X71976237Y-65658896D01*
X72032701Y-65639729D01*
X72346483Y-65458566D01*
X72406330Y-65445846D01*
X72462226Y-65470733D01*
X72492819Y-65523721D01*
X72494982Y-65544304D01*
X72494982Y-65877758D01*
X72494794Y-65882060D01*
X72494752Y-65882552D01*
X72491218Y-65922939D01*
X72501836Y-65962569D01*
X72502771Y-65966785D01*
X72509893Y-66007178D01*
X72510646Y-66008481D01*
X72520536Y-66032357D01*
X72520925Y-66033812D01*
X72520928Y-66033817D01*
X72531516Y-66048939D01*
X72544453Y-66067414D01*
X72546770Y-66071051D01*
X72563773Y-66100500D01*
X72567288Y-66106588D01*
X72598706Y-66132951D01*
X72601892Y-66135870D01*
X74335253Y-67869230D01*
X74363030Y-67923747D01*
X74358995Y-67971055D01*
X74341104Y-68023759D01*
X74341104Y-68023765D01*
X74343804Y-68064953D01*
X74328744Y-68124256D01*
X74281702Y-68163381D01*
X74270640Y-68167056D01*
X74169008Y-68194288D01*
X74169007Y-68194289D01*
X74062747Y-68263295D01*
X74062746Y-68263295D01*
X74014863Y-68322424D01*
X74591262Y-68655208D01*
X74632203Y-68700678D01*
X74638599Y-68761528D01*
X74627499Y-68790445D01*
X74528332Y-68962209D01*
X74351998Y-69267624D01*
X74362510Y-69306855D01*
X74359307Y-69367957D01*
X74345427Y-69392742D01*
X74321874Y-69423438D01*
X74321873Y-69423439D01*
X74261367Y-69569515D01*
X74261365Y-69569520D01*
X74240728Y-69726278D01*
X74240728Y-69726279D01*
X74261365Y-69883037D01*
X74261367Y-69883045D01*
X74321872Y-70029117D01*
X74321872Y-70029118D01*
X74418123Y-70154555D01*
X74418128Y-70154561D01*
X74543569Y-70250815D01*
X74543570Y-70250815D01*
X74543571Y-70250816D01*
X74689643Y-70311321D01*
X74689648Y-70311323D01*
X74807219Y-70326801D01*
X74846409Y-70331961D01*
X74846410Y-70331961D01*
X74846411Y-70331961D01*
X74877762Y-70327833D01*
X75003172Y-70311323D01*
X75149251Y-70250815D01*
X75274692Y-70154561D01*
X75370946Y-70029120D01*
X75431454Y-69883041D01*
X75452092Y-69726279D01*
X75448840Y-69701582D01*
X75459989Y-69641424D01*
X75488552Y-69608751D01*
X75538986Y-69571872D01*
X75554074Y-69551570D01*
X75698937Y-69300657D01*
X75708977Y-69277439D01*
X75721065Y-69165745D01*
X75720534Y-69163765D01*
X75716022Y-69146925D01*
X75696444Y-69073859D01*
X75699645Y-69012761D01*
X75738150Y-68965210D01*
X75785593Y-68949450D01*
X75809127Y-68947908D01*
X75880665Y-68912630D01*
X75919981Y-68867799D01*
X76189729Y-68400581D01*
X76198291Y-68375357D01*
X76234897Y-68326333D01*
X76293330Y-68308187D01*
X76351269Y-68327853D01*
X76362041Y-68337175D01*
X77693461Y-69668596D01*
X77696380Y-69671782D01*
X77722738Y-69703194D01*
X77758267Y-69723707D01*
X77761902Y-69726022D01*
X77795509Y-69749554D01*
X77796960Y-69749942D01*
X77820852Y-69759840D01*
X77822147Y-69760588D01*
X77831047Y-69762157D01*
X77862558Y-69767713D01*
X77866737Y-69768638D01*
X77906386Y-69779263D01*
X77947258Y-69775687D01*
X77951558Y-69775500D01*
X79044807Y-69775500D01*
X79102998Y-69794407D01*
X79138962Y-69843907D01*
X79138962Y-69905093D01*
X79114811Y-69944504D01*
X79047358Y-70011956D01*
X78989836Y-70124848D01*
X78989835Y-70124852D01*
X78977933Y-70200000D01*
X79643500Y-70200000D01*
X79701691Y-70218907D01*
X79737655Y-70268407D01*
X79742500Y-70299000D01*
X79742500Y-70849998D01*
X79771218Y-70878716D01*
X79798995Y-70933233D01*
X79799367Y-70961640D01*
X79794318Y-70999997D01*
X79794318Y-71000000D01*
X79814955Y-71156758D01*
X79814957Y-71156766D01*
X79875462Y-71302838D01*
X79875462Y-71302839D01*
X79875464Y-71302841D01*
X79971718Y-71428282D01*
X80097159Y-71524536D01*
X80243238Y-71585044D01*
X80360809Y-71600522D01*
X80399999Y-71605682D01*
X80400000Y-71605682D01*
X80400001Y-71605682D01*
X80431352Y-71601554D01*
X80556762Y-71585044D01*
X80702841Y-71524536D01*
X80828282Y-71428282D01*
X80924536Y-71302841D01*
X80985044Y-71156762D01*
X81005682Y-71000000D01*
X80985044Y-70843238D01*
X80924537Y-70697161D01*
X80924537Y-70697160D01*
X80917542Y-70688044D01*
X80909372Y-70677397D01*
X80888948Y-70619723D01*
X80897349Y-70577144D01*
X80922585Y-70519991D01*
X80925500Y-70494865D01*
X80925499Y-70205136D01*
X80922585Y-70180009D01*
X80877206Y-70077235D01*
X80809940Y-70009969D01*
X80782165Y-69955455D01*
X80791736Y-69895023D01*
X80824944Y-69857653D01*
X80844552Y-69844552D01*
X80888867Y-69778231D01*
X80900500Y-69719748D01*
X80900500Y-69604299D01*
X84364865Y-69604299D01*
X84412747Y-69663430D01*
X84519007Y-69732436D01*
X84519010Y-69732438D01*
X84641401Y-69765232D01*
X84641407Y-69765232D01*
X84767932Y-69758602D01*
X84767936Y-69758601D01*
X84856470Y-69724615D01*
X84856478Y-69724612D01*
X84942189Y-69675125D01*
X84767190Y-69372017D01*
X84364865Y-69604299D01*
X80900500Y-69604299D01*
X80900500Y-69180252D01*
X80888867Y-69121769D01*
X80844552Y-69055448D01*
X80844254Y-69055002D01*
X80827645Y-68996114D01*
X80844254Y-68944998D01*
X80861293Y-68919498D01*
X80909344Y-68881619D01*
X80943608Y-68875500D01*
X84041917Y-68875500D01*
X84100108Y-68894407D01*
X84116348Y-68909225D01*
X84119335Y-68912630D01*
X84156356Y-68930886D01*
X84200184Y-68973580D01*
X84210547Y-69033881D01*
X84208198Y-69045299D01*
X84180967Y-69146925D01*
X84180967Y-69146933D01*
X84187597Y-69273458D01*
X84187598Y-69273463D01*
X84214863Y-69344489D01*
X84791262Y-69011708D01*
X84851110Y-68998987D01*
X84907006Y-69023874D01*
X84926499Y-69047945D01*
X85201998Y-69525124D01*
X85241227Y-69535636D01*
X85292542Y-69568960D01*
X85307068Y-69593376D01*
X85321874Y-69629120D01*
X85348201Y-69663430D01*
X85396426Y-69726279D01*
X85418128Y-69754561D01*
X85418132Y-69754564D01*
X85418133Y-69754565D01*
X85432035Y-69765232D01*
X85543569Y-69850815D01*
X85543570Y-69850815D01*
X85543571Y-69850816D01*
X85650296Y-69895023D01*
X85689648Y-69911323D01*
X85807219Y-69926801D01*
X85846409Y-69931961D01*
X85846410Y-69931961D01*
X85846411Y-69931961D01*
X85877762Y-69927833D01*
X86003172Y-69911323D01*
X86149251Y-69850815D01*
X86274692Y-69754561D01*
X86370946Y-69629120D01*
X86431454Y-69483041D01*
X86452092Y-69326279D01*
X86431454Y-69169517D01*
X86429323Y-69164372D01*
X86370947Y-69023440D01*
X86370947Y-69023439D01*
X86274696Y-68898002D01*
X86274695Y-68898001D01*
X86274692Y-68897997D01*
X86274687Y-68897993D01*
X86274686Y-68897992D01*
X86205352Y-68844791D01*
X86149251Y-68801743D01*
X86134668Y-68795702D01*
X86126237Y-68792210D01*
X86079712Y-68752472D01*
X86065699Y-68711398D01*
X86059407Y-68653260D01*
X86058977Y-68649287D01*
X86048939Y-68626070D01*
X85904073Y-68375158D01*
X85888986Y-68354854D01*
X85882544Y-68350143D01*
X85846735Y-68300530D01*
X85843489Y-68287423D01*
X85839451Y-68264524D01*
X85838493Y-68259089D01*
X85837745Y-68257793D01*
X85827847Y-68233901D01*
X85827459Y-68232450D01*
X85827457Y-68232447D01*
X85827456Y-68232445D01*
X85803930Y-68198846D01*
X85801608Y-68195202D01*
X85801080Y-68194288D01*
X85781099Y-68159679D01*
X85781098Y-68159677D01*
X85759974Y-68141953D01*
X85749670Y-68133307D01*
X85746493Y-68130395D01*
X85684999Y-68068902D01*
X85661256Y-68030719D01*
X85658895Y-68023765D01*
X85658896Y-68023763D01*
X85639729Y-67967299D01*
X85458566Y-67653516D01*
X85445846Y-67593670D01*
X85470733Y-67537774D01*
X85523721Y-67507181D01*
X85544304Y-67505018D01*
X85877759Y-67505018D01*
X85882059Y-67505205D01*
X85922940Y-67508782D01*
X85962585Y-67498158D01*
X85966783Y-67497228D01*
X86007178Y-67490106D01*
X86008478Y-67489356D01*
X86032369Y-67479460D01*
X86032597Y-67479398D01*
X86033817Y-67479072D01*
X86067436Y-67455530D01*
X86071044Y-67453232D01*
X86106588Y-67432712D01*
X86132971Y-67401268D01*
X86135859Y-67398116D01*
X87398840Y-66135135D01*
X88582234Y-66135135D01*
X88653267Y-66162402D01*
X88779792Y-66169032D01*
X88779798Y-66169032D01*
X88902189Y-66136238D01*
X88902192Y-66136236D01*
X89008452Y-66067230D01*
X89008453Y-66067230D01*
X89068128Y-65993538D01*
X89068136Y-65993526D01*
X89117624Y-65907808D01*
X88814517Y-65732809D01*
X88582234Y-66135135D01*
X87398840Y-66135135D01*
X87869231Y-65664744D01*
X87923746Y-65636969D01*
X87971055Y-65641004D01*
X88023763Y-65658896D01*
X88064953Y-65656196D01*
X88124256Y-65671256D01*
X88163381Y-65718298D01*
X88167056Y-65729360D01*
X88194288Y-65830991D01*
X88194289Y-65830992D01*
X88263294Y-65937250D01*
X88322425Y-65985134D01*
X88655208Y-65408737D01*
X88700678Y-65367796D01*
X88761528Y-65361400D01*
X88790445Y-65372501D01*
X88936094Y-65456592D01*
X88936095Y-65456592D01*
X89267624Y-65647999D01*
X89306852Y-65637488D01*
X89367953Y-65640689D01*
X89392740Y-65654571D01*
X89423438Y-65678126D01*
X89423439Y-65678126D01*
X89423440Y-65678127D01*
X89555454Y-65732809D01*
X89569517Y-65738634D01*
X89653413Y-65749679D01*
X89726278Y-65759272D01*
X89726279Y-65759272D01*
X89726280Y-65759272D01*
X89757631Y-65755144D01*
X89883041Y-65738634D01*
X90029120Y-65678126D01*
X90154561Y-65581872D01*
X90250815Y-65456431D01*
X90311323Y-65310352D01*
X90331961Y-65153590D01*
X90311323Y-64996828D01*
X90306318Y-64984745D01*
X90250816Y-64850751D01*
X90250816Y-64850750D01*
X90154565Y-64725313D01*
X90154564Y-64725312D01*
X90154561Y-64725308D01*
X90154556Y-64725304D01*
X90154555Y-64725303D01*
X90064044Y-64655852D01*
X90029120Y-64629054D01*
X90029119Y-64629053D01*
X90029117Y-64629052D01*
X89883045Y-64568547D01*
X89883037Y-64568545D01*
X89726280Y-64547908D01*
X89726278Y-64547908D01*
X89701582Y-64551159D01*
X89641421Y-64540008D01*
X89608749Y-64511444D01*
X89571872Y-64461014D01*
X89571871Y-64461013D01*
X89571869Y-64461011D01*
X89551574Y-64445928D01*
X89345460Y-64326930D01*
X89300657Y-64301063D01*
X89300654Y-64301062D01*
X89300653Y-64301061D01*
X89300643Y-64301056D01*
X89277441Y-64291023D01*
X89277437Y-64291022D01*
X89165746Y-64278935D01*
X89165744Y-64278935D01*
X89128853Y-64288820D01*
X89073859Y-64303555D01*
X89012760Y-64300354D01*
X88965210Y-64261849D01*
X88949450Y-64214404D01*
X88949197Y-64210546D01*
X88947908Y-64190873D01*
X88912630Y-64119335D01*
X88867799Y-64080019D01*
X88400581Y-63810271D01*
X88400575Y-63810269D01*
X88400572Y-63810267D01*
X88396146Y-63808261D01*
X88397119Y-63806113D01*
X88355419Y-63774957D01*
X88337291Y-63716519D01*
X88356974Y-63658586D01*
X88398399Y-63626376D01*
X88398700Y-63626250D01*
X88402841Y-63624536D01*
X88528282Y-63528282D01*
X88624536Y-63402841D01*
X88685044Y-63256762D01*
X88705682Y-63100000D01*
X88685044Y-62943238D01*
X88624537Y-62797161D01*
X88624537Y-62797160D01*
X88528286Y-62671723D01*
X88528285Y-62671722D01*
X88528282Y-62671718D01*
X88528277Y-62671714D01*
X88528276Y-62671713D01*
X88402838Y-62575462D01*
X88256766Y-62514957D01*
X88256758Y-62514955D01*
X88100001Y-62494318D01*
X88099999Y-62494318D01*
X87943241Y-62514955D01*
X87943233Y-62514957D01*
X87797161Y-62575462D01*
X87797160Y-62575462D01*
X87671723Y-62671713D01*
X87671713Y-62671723D01*
X87575462Y-62797160D01*
X87575462Y-62797161D01*
X87514957Y-62943233D01*
X87514955Y-62943241D01*
X87494318Y-63099999D01*
X87494318Y-63100000D01*
X87504855Y-63180040D01*
X87493705Y-63240201D01*
X87476706Y-63262966D01*
X87410931Y-63328741D01*
X87407747Y-63331658D01*
X87376325Y-63358024D01*
X87376324Y-63358026D01*
X87355810Y-63393557D01*
X87353490Y-63397198D01*
X87329964Y-63430798D01*
X87329960Y-63430806D01*
X87329569Y-63432268D01*
X87319688Y-63456122D01*
X87318932Y-63457430D01*
X87318928Y-63457442D01*
X87311805Y-63497831D01*
X87310871Y-63502045D01*
X87298014Y-63550038D01*
X87296255Y-63549566D01*
X87287949Y-63575901D01*
X87104498Y-63893650D01*
X87082199Y-63959345D01*
X87081094Y-63958969D01*
X87058988Y-64005301D01*
X87012809Y-64032771D01*
X86956200Y-64047940D01*
X86956197Y-64047941D01*
X86865661Y-64114147D01*
X86865660Y-64114148D01*
X86850600Y-64134414D01*
X86850594Y-64134424D01*
X86778204Y-64259805D01*
X86778204Y-64259806D01*
X87298685Y-64560306D01*
X87339626Y-64605776D01*
X87346022Y-64666626D01*
X87334922Y-64695542D01*
X87281705Y-64787719D01*
X87034422Y-65216022D01*
X87034422Y-65216023D01*
X87152742Y-65284335D01*
X87193683Y-65329805D01*
X87200079Y-65390655D01*
X87173246Y-65440075D01*
X85788303Y-66825021D01*
X85733786Y-66852799D01*
X85718299Y-66854018D01*
X85054133Y-66854018D01*
X84995942Y-66835111D01*
X84968397Y-66804518D01*
X84919981Y-66720659D01*
X84880665Y-66675828D01*
X84809127Y-66640550D01*
X84782595Y-66638810D01*
X84729536Y-66635333D01*
X84729532Y-66635333D01*
X84673075Y-66654497D01*
X84205851Y-66924248D01*
X84177183Y-66949389D01*
X84161021Y-66963564D01*
X84161020Y-66963564D01*
X84153691Y-66969993D01*
X84152920Y-66969114D01*
X84110619Y-66998185D01*
X84056883Y-66998888D01*
X84000271Y-66983719D01*
X83888766Y-66995786D01*
X83888764Y-66995787D01*
X83865591Y-67005806D01*
X83740193Y-67078204D01*
X83940193Y-67424614D01*
X84040692Y-67598685D01*
X84053413Y-67658534D01*
X84028526Y-67714429D01*
X84004455Y-67733921D01*
X83483975Y-68034420D01*
X83483975Y-68034421D01*
X83507981Y-68076000D01*
X83520702Y-68135848D01*
X83495815Y-68191744D01*
X83442827Y-68222337D01*
X83422244Y-68224500D01*
X80943608Y-68224500D01*
X80885417Y-68205593D01*
X80861293Y-68180502D01*
X80844554Y-68155451D01*
X80844552Y-68155448D01*
X80844419Y-68155359D01*
X80778233Y-68111134D01*
X80778231Y-68111133D01*
X80778228Y-68111132D01*
X80778227Y-68111132D01*
X80719758Y-68099501D01*
X80719748Y-68099500D01*
X80180252Y-68099500D01*
X80180249Y-68099500D01*
X80112206Y-68113035D01*
X80111978Y-68111890D01*
X80060802Y-68115913D01*
X80013919Y-68089655D01*
X79972477Y-68048213D01*
X79869872Y-68002909D01*
X79844797Y-68000000D01*
X79700001Y-68000000D01*
X79700000Y-68000001D01*
X79700000Y-68601000D01*
X79681093Y-68659191D01*
X79631593Y-68695155D01*
X79601000Y-68700000D01*
X79000002Y-68700000D01*
X79000001Y-68700001D01*
X79000001Y-68844791D01*
X79002909Y-68869874D01*
X79051919Y-68980870D01*
X79049815Y-68981798D01*
X79063496Y-69028242D01*
X79042984Y-69085886D01*
X78992507Y-69120466D01*
X78964534Y-69124500D01*
X78111028Y-69124500D01*
X78052837Y-69105593D01*
X78041024Y-69095504D01*
X77365245Y-68419725D01*
X77345518Y-68399998D01*
X79000000Y-68399998D01*
X79000001Y-68400000D01*
X79399999Y-68400000D01*
X79400000Y-68399999D01*
X79400000Y-68000001D01*
X79399999Y-68000000D01*
X79255210Y-68000000D01*
X79255207Y-68000001D01*
X79230125Y-68002909D01*
X79127522Y-68048213D01*
X79048213Y-68127522D01*
X79002909Y-68230127D01*
X79000000Y-68255202D01*
X79000000Y-68399998D01*
X77345518Y-68399998D01*
X76664745Y-67719226D01*
X76636969Y-67664710D01*
X76641003Y-67617403D01*
X76658896Y-67564695D01*
X76655608Y-67514536D01*
X83239490Y-67514536D01*
X83251557Y-67626040D01*
X83251558Y-67626042D01*
X83261582Y-67649226D01*
X83333974Y-67774612D01*
X83333975Y-67774612D01*
X83680383Y-67574613D01*
X83480384Y-67228204D01*
X83354989Y-67300602D01*
X83334723Y-67315662D01*
X83268520Y-67406194D01*
X83268519Y-67406196D01*
X83239490Y-67514534D01*
X83239490Y-67514536D01*
X76655608Y-67514536D01*
X76653679Y-67485102D01*
X76618401Y-67413564D01*
X76573570Y-67374248D01*
X76106352Y-67104500D01*
X76106350Y-67104499D01*
X76106346Y-67104497D01*
X76040655Y-67082199D01*
X76041029Y-67081094D01*
X75994699Y-67058989D01*
X75967227Y-67012808D01*
X75952058Y-66956197D01*
X75885852Y-66865661D01*
X75885851Y-66865660D01*
X75865585Y-66850600D01*
X75865575Y-66850594D01*
X75740193Y-66778204D01*
X75740191Y-66778204D01*
X75439692Y-67298684D01*
X75394223Y-67339625D01*
X75333373Y-67346021D01*
X75304456Y-67334921D01*
X75153358Y-67247685D01*
X74783974Y-67034422D01*
X74715663Y-67152743D01*
X74670193Y-67193684D01*
X74609343Y-67200080D01*
X74559922Y-67173247D01*
X74161288Y-66774613D01*
X74933975Y-66774613D01*
X75280384Y-66974612D01*
X75480383Y-66628204D01*
X75354990Y-66555808D01*
X75331814Y-66545787D01*
X75331807Y-66545786D01*
X75220307Y-66533719D01*
X75220305Y-66533719D01*
X75111968Y-66562748D01*
X75021432Y-66628954D01*
X75021431Y-66628955D01*
X75006371Y-66649221D01*
X75006365Y-66649231D01*
X74933975Y-66774612D01*
X74933975Y-66774613D01*
X74161288Y-66774613D01*
X73174978Y-65788302D01*
X73147201Y-65733785D01*
X73145982Y-65718298D01*
X73145982Y-65054133D01*
X73164889Y-64995942D01*
X73195483Y-64968396D01*
X73279339Y-64919982D01*
X73279338Y-64919982D01*
X73279341Y-64919981D01*
X73324172Y-64880665D01*
X73359450Y-64809127D01*
X73364667Y-64729534D01*
X73345500Y-64673070D01*
X73075752Y-64205852D01*
X73036436Y-64161021D01*
X73036434Y-64161020D01*
X73030007Y-64153691D01*
X73030885Y-64152920D01*
X73001815Y-64110625D01*
X73001112Y-64056882D01*
X73016280Y-64000275D01*
X73016280Y-64000270D01*
X73004213Y-63888766D01*
X73004212Y-63888764D01*
X72994188Y-63865580D01*
X72921796Y-63740193D01*
X72921794Y-63740193D01*
X72533104Y-63964603D01*
X72533103Y-63964604D01*
X72401314Y-64040692D01*
X72341465Y-64053413D01*
X72285570Y-64028526D01*
X72266078Y-64004455D01*
X71965578Y-63483975D01*
X71965577Y-63483975D01*
X71924000Y-63507980D01*
X71864152Y-63520702D01*
X71808256Y-63495816D01*
X71777663Y-63442828D01*
X71775500Y-63422244D01*
X71775500Y-63333975D01*
X72225386Y-63333975D01*
X72425385Y-63680383D01*
X72771794Y-63480384D01*
X72771794Y-63480383D01*
X72699400Y-63354993D01*
X72684337Y-63334723D01*
X72593805Y-63268520D01*
X72593803Y-63268519D01*
X72485464Y-63239490D01*
X72373959Y-63251557D01*
X72373957Y-63251558D01*
X72350784Y-63261577D01*
X72225386Y-63333975D01*
X71775500Y-63333975D01*
X71775500Y-60943608D01*
X71794407Y-60885417D01*
X71819498Y-60861293D01*
X71824755Y-60857780D01*
X71844552Y-60844552D01*
X71888867Y-60778231D01*
X71900500Y-60719748D01*
X71900500Y-60180252D01*
X71888867Y-60121769D01*
X71886965Y-60112207D01*
X71888109Y-60111979D01*
X71884082Y-60060816D01*
X71910344Y-60013920D01*
X71924264Y-60000000D01*
X73894548Y-60000000D01*
X73914346Y-60491285D01*
X73914346Y-60491291D01*
X73914347Y-60491297D01*
X73914347Y-60491306D01*
X73973609Y-60979365D01*
X73973613Y-60979392D01*
X74071962Y-61461136D01*
X74071962Y-61461137D01*
X74208750Y-61933386D01*
X74208753Y-61933395D01*
X74335071Y-62266467D01*
X74383110Y-62393133D01*
X74537956Y-62719464D01*
X74592578Y-62834579D01*
X74593891Y-62837345D01*
X74839733Y-63263155D01*
X74889133Y-63334723D01*
X75119038Y-63667800D01*
X75429999Y-64048659D01*
X75770601Y-64403263D01*
X75770605Y-64403267D01*
X76053540Y-64653925D01*
X76138635Y-64729313D01*
X76138640Y-64729317D01*
X76531707Y-65024688D01*
X76651503Y-65100442D01*
X76947274Y-65287477D01*
X76947281Y-65287480D01*
X76947280Y-65287480D01*
X76947293Y-65287488D01*
X77296440Y-65470733D01*
X77382638Y-65515973D01*
X77834977Y-65708697D01*
X77986468Y-65759272D01*
X78301341Y-65864392D01*
X78301351Y-65864395D01*
X78301357Y-65864397D01*
X78778753Y-65982065D01*
X79264069Y-66060936D01*
X79754158Y-66100500D01*
X79754163Y-66100500D01*
X80245837Y-66100500D01*
X80245842Y-66100500D01*
X80735931Y-66060936D01*
X81221247Y-65982065D01*
X81698643Y-65864397D01*
X82165023Y-65708697D01*
X82617362Y-65515973D01*
X82890726Y-65372501D01*
X83052706Y-65287488D01*
X83052711Y-65287484D01*
X83052726Y-65287477D01*
X83468292Y-65024688D01*
X83794320Y-64779694D01*
X86533719Y-64779694D01*
X86562748Y-64888031D01*
X86628954Y-64978567D01*
X86628955Y-64978568D01*
X86649219Y-64993627D01*
X86774613Y-65066023D01*
X86974612Y-64719614D01*
X86628204Y-64519615D01*
X86555808Y-64645009D01*
X86545787Y-64668185D01*
X86545786Y-64668192D01*
X86533719Y-64779692D01*
X86533719Y-64779694D01*
X83794320Y-64779694D01*
X83861365Y-64729313D01*
X84229395Y-64403267D01*
X84569996Y-64048664D01*
X84880959Y-63667803D01*
X85160267Y-63263155D01*
X85406109Y-62837345D01*
X85616890Y-62393133D01*
X85791244Y-61933401D01*
X85791246Y-61933395D01*
X85791249Y-61933386D01*
X85928037Y-61461137D01*
X85928037Y-61461136D01*
X85928039Y-61461130D01*
X86026388Y-60979383D01*
X86042759Y-60844554D01*
X86054873Y-60744791D01*
X88000001Y-60744791D01*
X88002909Y-60769874D01*
X88048213Y-60872477D01*
X88127522Y-60951786D01*
X88230127Y-60997090D01*
X88255203Y-60999999D01*
X88399999Y-60999999D01*
X88399999Y-60600000D01*
X88000002Y-60600000D01*
X88000001Y-60600001D01*
X88000001Y-60744791D01*
X86054873Y-60744791D01*
X86085652Y-60491306D01*
X86085652Y-60491301D01*
X86085654Y-60491285D01*
X86105452Y-60000000D01*
X86085654Y-59508715D01*
X86085652Y-59508698D01*
X86085652Y-59508693D01*
X86026390Y-59020634D01*
X86026388Y-59020617D01*
X85928039Y-58538870D01*
X85928037Y-58538862D01*
X85791249Y-58066613D01*
X85791246Y-58066604D01*
X85773157Y-58018910D01*
X85616890Y-57606867D01*
X85406109Y-57162655D01*
X85160267Y-56736845D01*
X85010324Y-56519615D01*
X87228204Y-56519615D01*
X87300599Y-56645006D01*
X87315662Y-56665276D01*
X87406194Y-56731479D01*
X87406196Y-56731480D01*
X87514535Y-56760509D01*
X87626040Y-56748442D01*
X87626042Y-56748441D01*
X87649222Y-56738419D01*
X87774612Y-56666024D01*
X87574613Y-56319615D01*
X87228204Y-56519614D01*
X87228204Y-56519615D01*
X85010324Y-56519615D01*
X84894125Y-56351271D01*
X84880961Y-56332199D01*
X84570000Y-55951340D01*
X84229398Y-55596736D01*
X84181239Y-55554071D01*
X83924850Y-55326930D01*
X83861364Y-55270686D01*
X83861359Y-55270682D01*
X83468292Y-54975311D01*
X83126653Y-54759272D01*
X83052726Y-54712523D01*
X83052722Y-54712520D01*
X83052719Y-54712519D01*
X83052706Y-54712511D01*
X82617376Y-54484034D01*
X82617372Y-54484032D01*
X82617369Y-54484030D01*
X82617362Y-54484027D01*
X82236769Y-54321871D01*
X82165021Y-54291302D01*
X81698658Y-54135607D01*
X81698638Y-54135601D01*
X81300357Y-54037434D01*
X81221247Y-54017935D01*
X80735931Y-53939064D01*
X80735925Y-53939063D01*
X80461028Y-53916871D01*
X80245842Y-53899500D01*
X79754158Y-53899500D01*
X79556342Y-53915469D01*
X79264074Y-53939063D01*
X78778753Y-54017935D01*
X78301361Y-54135601D01*
X78301341Y-54135607D01*
X77834978Y-54291302D01*
X77666630Y-54363029D01*
X77382638Y-54484027D01*
X77382634Y-54484028D01*
X77382627Y-54484032D01*
X77382623Y-54484034D01*
X76947293Y-54712511D01*
X76947280Y-54712519D01*
X76531707Y-54975311D01*
X76138640Y-55270682D01*
X76138635Y-55270686D01*
X75770601Y-55596736D01*
X75429999Y-55951340D01*
X75119038Y-56332199D01*
X74839734Y-56736843D01*
X74593885Y-57162666D01*
X74383108Y-57606872D01*
X74208753Y-58066604D01*
X74208750Y-58066613D01*
X74071962Y-58538862D01*
X74071962Y-58538863D01*
X73973613Y-59020607D01*
X73973609Y-59020634D01*
X73914347Y-59508693D01*
X73914347Y-59508702D01*
X73914346Y-59508709D01*
X73914346Y-59508715D01*
X73894548Y-60000000D01*
X71924264Y-60000000D01*
X71951785Y-59972478D01*
X71997090Y-59869872D01*
X71999999Y-59844797D01*
X72000000Y-59844795D01*
X72000000Y-59700001D01*
X71999999Y-59700000D01*
X71399000Y-59700000D01*
X71340809Y-59681093D01*
X71304845Y-59631593D01*
X71300000Y-59601000D01*
X71300000Y-59399999D01*
X71600000Y-59399999D01*
X71600001Y-59400000D01*
X71999998Y-59400000D01*
X71999999Y-59399998D01*
X71999999Y-59255209D01*
X71999998Y-59255208D01*
X71997090Y-59230125D01*
X71951786Y-59127522D01*
X71872477Y-59048213D01*
X71769872Y-59002909D01*
X71744797Y-59000000D01*
X71600001Y-59000000D01*
X71600000Y-59000001D01*
X71600000Y-59399999D01*
X71300000Y-59399999D01*
X71300000Y-59000001D01*
X71299999Y-59000000D01*
X71155210Y-59000000D01*
X71155207Y-59000001D01*
X71130125Y-59002909D01*
X71019130Y-59051919D01*
X71018202Y-59049817D01*
X70971744Y-59063495D01*
X70914102Y-59042975D01*
X70879530Y-58992493D01*
X70875500Y-58964533D01*
X70875500Y-58111027D01*
X70894407Y-58052836D01*
X70904496Y-58041023D01*
X71338652Y-57606867D01*
X72280774Y-56664744D01*
X72335289Y-56636969D01*
X72382596Y-56641003D01*
X72435305Y-56658896D01*
X72514898Y-56653679D01*
X72586436Y-56618401D01*
X72625752Y-56573570D01*
X72895500Y-56106352D01*
X72914667Y-56049888D01*
X72914666Y-56049887D01*
X72917801Y-56040655D01*
X72918906Y-56041030D01*
X72941003Y-55994706D01*
X72987192Y-55967227D01*
X73043802Y-55952058D01*
X73134338Y-55885852D01*
X73134339Y-55885851D01*
X73149399Y-55865585D01*
X73149402Y-55865581D01*
X73221794Y-55740192D01*
X73221794Y-55740191D01*
X72701315Y-55439692D01*
X72660374Y-55394223D01*
X72653978Y-55333373D01*
X72665078Y-55304456D01*
X72678976Y-55280384D01*
X73025386Y-55280384D01*
X73371794Y-55480383D01*
X73371795Y-55480383D01*
X73444187Y-55354997D01*
X73444188Y-55354996D01*
X73454212Y-55331814D01*
X73454213Y-55331807D01*
X73466280Y-55220307D01*
X73466280Y-55220305D01*
X73437251Y-55111968D01*
X73371045Y-55021432D01*
X73371044Y-55021431D01*
X73350778Y-55006371D01*
X73350768Y-55006365D01*
X73225386Y-54933975D01*
X73225385Y-54933975D01*
X73025386Y-55280384D01*
X72678976Y-55280384D01*
X72765578Y-55130385D01*
X72965576Y-54783975D01*
X72847255Y-54715663D01*
X72806314Y-54670193D01*
X72799918Y-54609343D01*
X72826749Y-54559924D01*
X74014880Y-53371794D01*
X84519615Y-53371794D01*
X84645010Y-53444191D01*
X84668185Y-53454212D01*
X84668192Y-53454213D01*
X84779692Y-53466280D01*
X84779694Y-53466280D01*
X84888031Y-53437251D01*
X84978567Y-53371045D01*
X84978568Y-53371044D01*
X84993628Y-53350778D01*
X84993631Y-53350774D01*
X85066023Y-53225385D01*
X84719614Y-53025386D01*
X84519615Y-53371794D01*
X74014880Y-53371794D01*
X74211696Y-53174978D01*
X74266214Y-53147201D01*
X74281701Y-53145982D01*
X74945867Y-53145982D01*
X75004058Y-53164889D01*
X75031602Y-53195481D01*
X75046794Y-53221794D01*
X75080017Y-53279339D01*
X75080019Y-53279341D01*
X75119335Y-53324172D01*
X75190873Y-53359450D01*
X75270466Y-53364667D01*
X75326930Y-53345500D01*
X75794148Y-53075752D01*
X75830580Y-53043802D01*
X75846311Y-53030007D01*
X75847081Y-53030885D01*
X75889367Y-53001818D01*
X75943118Y-53001112D01*
X75999724Y-53016280D01*
X75999729Y-53016280D01*
X76111233Y-53004213D01*
X76111235Y-53004212D01*
X76134415Y-52994190D01*
X76259805Y-52921795D01*
X76020108Y-52506626D01*
X76020108Y-52506625D01*
X75973204Y-52425385D01*
X76319615Y-52425385D01*
X76519614Y-52771794D01*
X76645012Y-52699395D01*
X76665276Y-52684337D01*
X76731479Y-52593805D01*
X76731480Y-52593803D01*
X76760509Y-52485465D01*
X76760509Y-52485463D01*
X76748442Y-52373959D01*
X76748441Y-52373957D01*
X76738417Y-52350773D01*
X76666024Y-52225386D01*
X76319615Y-52425385D01*
X75973204Y-52425385D01*
X75959307Y-52401314D01*
X75946585Y-52341466D01*
X75971472Y-52285570D01*
X75995543Y-52266077D01*
X76516023Y-51965577D01*
X76492019Y-51924000D01*
X76479297Y-51864152D01*
X76504183Y-51808256D01*
X76557171Y-51777663D01*
X76577755Y-51775500D01*
X79056392Y-51775500D01*
X79114583Y-51794407D01*
X79138707Y-51819498D01*
X79150146Y-51836618D01*
X79155448Y-51844552D01*
X79221769Y-51888867D01*
X79260867Y-51896644D01*
X79280241Y-51900498D01*
X79280246Y-51900498D01*
X79280252Y-51900500D01*
X79280253Y-51900500D01*
X79819747Y-51900500D01*
X79819748Y-51900500D01*
X79878231Y-51888867D01*
X79878232Y-51888865D01*
X79887794Y-51886964D01*
X79888022Y-51888111D01*
X79939175Y-51884080D01*
X79986079Y-51910343D01*
X80027522Y-51951786D01*
X80130127Y-51997090D01*
X80155203Y-51999999D01*
X80300000Y-51999999D01*
X80300000Y-51999997D01*
X80600000Y-51999997D01*
X80600001Y-51999999D01*
X80744790Y-51999999D01*
X80744791Y-51999998D01*
X80769874Y-51997090D01*
X80872477Y-51951786D01*
X80951786Y-51872477D01*
X80997090Y-51769872D01*
X80999999Y-51744797D01*
X81000000Y-51744795D01*
X81000000Y-51600001D01*
X80999999Y-51600000D01*
X80600001Y-51600000D01*
X80600000Y-51600001D01*
X80600000Y-51999997D01*
X80300000Y-51999997D01*
X80300000Y-51399000D01*
X80318907Y-51340809D01*
X80368407Y-51304845D01*
X80399000Y-51300000D01*
X80999998Y-51300000D01*
X80999999Y-51299999D01*
X80999999Y-51155209D01*
X80999998Y-51155208D01*
X80997090Y-51130125D01*
X80948081Y-51019130D01*
X80950184Y-51018201D01*
X80936504Y-50971758D01*
X80957016Y-50914114D01*
X81007493Y-50879534D01*
X81035466Y-50875500D01*
X81888973Y-50875500D01*
X81947164Y-50894407D01*
X81958977Y-50904496D01*
X83335252Y-52280772D01*
X83363029Y-52335289D01*
X83358995Y-52382596D01*
X83344471Y-52425385D01*
X83341104Y-52435305D01*
X83346321Y-52514898D01*
X83381599Y-52586436D01*
X83426430Y-52625752D01*
X83893648Y-52895500D01*
X83893651Y-52895501D01*
X83893653Y-52895502D01*
X83959345Y-52917801D01*
X83958969Y-52918906D01*
X84005294Y-52941004D01*
X84032771Y-52987190D01*
X84047940Y-53043800D01*
X84047941Y-53043802D01*
X84114147Y-53134338D01*
X84114148Y-53134339D01*
X84134412Y-53149398D01*
X84259806Y-53221794D01*
X84560305Y-52701314D01*
X84605775Y-52660373D01*
X84666625Y-52653977D01*
X84695542Y-52665077D01*
X85216023Y-52965576D01*
X85284336Y-52847256D01*
X85329806Y-52806315D01*
X85390656Y-52799919D01*
X85440077Y-52826752D01*
X86825022Y-54211697D01*
X86852799Y-54266214D01*
X86854018Y-54281701D01*
X86854018Y-54945866D01*
X86835111Y-55004057D01*
X86804518Y-55031602D01*
X86720662Y-55080016D01*
X86675828Y-55119335D01*
X86640550Y-55190872D01*
X86640550Y-55190874D01*
X86635333Y-55270463D01*
X86635333Y-55270467D01*
X86654497Y-55326924D01*
X86654499Y-55326928D01*
X86654500Y-55326930D01*
X86869687Y-55699645D01*
X86924250Y-55794151D01*
X86969993Y-55846311D01*
X86969114Y-55847081D01*
X86998182Y-55889370D01*
X86998887Y-55943114D01*
X86983719Y-55999723D01*
X86983719Y-55999729D01*
X86995786Y-56111233D01*
X86995787Y-56111235D01*
X87005811Y-56134419D01*
X87078203Y-56259805D01*
X87078204Y-56259805D01*
X87441795Y-56049888D01*
X87598684Y-55959307D01*
X87658533Y-55946585D01*
X87714428Y-55971471D01*
X87733922Y-55995543D01*
X88034421Y-56516023D01*
X88076000Y-56492018D01*
X88135848Y-56479297D01*
X88191744Y-56504184D01*
X88222337Y-56557172D01*
X88224500Y-56577755D01*
X88224500Y-59056392D01*
X88205593Y-59114583D01*
X88180502Y-59138707D01*
X88155451Y-59155445D01*
X88155445Y-59155451D01*
X88111134Y-59221766D01*
X88111132Y-59221772D01*
X88099501Y-59280241D01*
X88099500Y-59280253D01*
X88099500Y-59819746D01*
X88099501Y-59819758D01*
X88113035Y-59887793D01*
X88111890Y-59888020D01*
X88115916Y-59939188D01*
X88089656Y-59986078D01*
X88048214Y-60027520D01*
X88002909Y-60130127D01*
X88000000Y-60155202D01*
X88000000Y-60299999D01*
X88000001Y-60300000D01*
X88601000Y-60300000D01*
X88659191Y-60318907D01*
X88695155Y-60368407D01*
X88700000Y-60399000D01*
X88700000Y-60999998D01*
X88700001Y-60999999D01*
X88795318Y-60999999D01*
X88853509Y-61018906D01*
X88889473Y-61068406D01*
X88893458Y-61093568D01*
X88893471Y-61093567D01*
X88893536Y-61094063D01*
X88894318Y-61098999D01*
X88894318Y-61100000D01*
X88914955Y-61256758D01*
X88914957Y-61256766D01*
X88975462Y-61402838D01*
X88975462Y-61402839D01*
X89020195Y-61461136D01*
X89071718Y-61528282D01*
X89197159Y-61624536D01*
X89343238Y-61685044D01*
X89460809Y-61700522D01*
X89499999Y-61705682D01*
X89500000Y-61705682D01*
X89500001Y-61705682D01*
X89531352Y-61701554D01*
X89656762Y-61685044D01*
X89802841Y-61624536D01*
X89928282Y-61528282D01*
X90024536Y-61402841D01*
X90085044Y-61256762D01*
X90104394Y-61109780D01*
X90130735Y-61054556D01*
X90184505Y-61025361D01*
X90196322Y-61025206D01*
X90199999Y-61022066D01*
X90500000Y-61022066D01*
X90575142Y-61010166D01*
X90575145Y-61010165D01*
X90688044Y-60952640D01*
X90777641Y-60863043D01*
X90835163Y-60750151D01*
X90835164Y-60750147D01*
X90850000Y-60656484D01*
X90850000Y-60557501D01*
X90849999Y-60557500D01*
X90500001Y-60557500D01*
X90500000Y-60557501D01*
X90500000Y-61022066D01*
X90199999Y-61022066D01*
X90200000Y-61022065D01*
X90200000Y-60356500D01*
X90218907Y-60298309D01*
X90268407Y-60262345D01*
X90299000Y-60257500D01*
X90849998Y-60257500D01*
X90878716Y-60228782D01*
X90933232Y-60201004D01*
X90961641Y-60200632D01*
X91000000Y-60205682D01*
X91000001Y-60205682D01*
X91038359Y-60200632D01*
X91156762Y-60185044D01*
X91302841Y-60124536D01*
X91428282Y-60028282D01*
X91524536Y-59902841D01*
X91585044Y-59756762D01*
X91605682Y-59600000D01*
X91585044Y-59443238D01*
X91584738Y-59442499D01*
X91524537Y-59297161D01*
X91524537Y-59297160D01*
X91428286Y-59171723D01*
X91428285Y-59171722D01*
X91428282Y-59171718D01*
X91428277Y-59171714D01*
X91428276Y-59171713D01*
X91338724Y-59102998D01*
X91302841Y-59075464D01*
X91302840Y-59075463D01*
X91302838Y-59075462D01*
X91156766Y-59014957D01*
X91156758Y-59014955D01*
X91000001Y-58994318D01*
X90999999Y-58994318D01*
X90843241Y-59014955D01*
X90843238Y-59014955D01*
X90843238Y-59014956D01*
X90829571Y-59020617D01*
X90697160Y-59075463D01*
X90697159Y-59075464D01*
X90677395Y-59090629D01*
X90619719Y-59111051D01*
X90577143Y-59102650D01*
X90519991Y-59077415D01*
X90519990Y-59077414D01*
X90519988Y-59077414D01*
X90494868Y-59074500D01*
X90205140Y-59074500D01*
X90205135Y-59074501D01*
X90180009Y-59077414D01*
X90077233Y-59122795D01*
X90009971Y-59190057D01*
X89955454Y-59217834D01*
X89895022Y-59208262D01*
X89857653Y-59175055D01*
X89844553Y-59155450D01*
X89844552Y-59155448D01*
X89844548Y-59155445D01*
X89778233Y-59111134D01*
X89778231Y-59111133D01*
X89778228Y-59111132D01*
X89778227Y-59111132D01*
X89719758Y-59099501D01*
X89719748Y-59099500D01*
X89180252Y-59099500D01*
X89180251Y-59099500D01*
X89180241Y-59099501D01*
X89121772Y-59111132D01*
X89121767Y-59111134D01*
X89055001Y-59155746D01*
X88996113Y-59172354D01*
X88945000Y-59155746D01*
X88919500Y-59138708D01*
X88881620Y-59090659D01*
X88875500Y-59056392D01*
X88875500Y-55958083D01*
X88894407Y-55899892D01*
X88909226Y-55883650D01*
X88912630Y-55880665D01*
X88930887Y-55843641D01*
X88973579Y-55799815D01*
X89033881Y-55789452D01*
X89045300Y-55791801D01*
X89146927Y-55819032D01*
X89146933Y-55819032D01*
X89273455Y-55812403D01*
X89273461Y-55812401D01*
X89344490Y-55785134D01*
X89025605Y-55232808D01*
X89372017Y-55232808D01*
X89604300Y-55635134D01*
X89663430Y-55587252D01*
X89732436Y-55480992D01*
X89732438Y-55480989D01*
X89765232Y-55358598D01*
X89765232Y-55358592D01*
X89758602Y-55232067D01*
X89758601Y-55232063D01*
X89724615Y-55143529D01*
X89724610Y-55143518D01*
X89675125Y-55057809D01*
X89372017Y-55232808D01*
X89025605Y-55232808D01*
X89011708Y-55208737D01*
X88998987Y-55148889D01*
X89023874Y-55092993D01*
X89047945Y-55073500D01*
X89222017Y-54973000D01*
X89525124Y-54798000D01*
X89535635Y-54758772D01*
X89568958Y-54707457D01*
X89593371Y-54692933D01*
X89629120Y-54678126D01*
X89754561Y-54581872D01*
X89850815Y-54456431D01*
X89911323Y-54310352D01*
X89931961Y-54153590D01*
X89911323Y-53996828D01*
X89909127Y-53991526D01*
X89850816Y-53850751D01*
X89850816Y-53850750D01*
X89754565Y-53725313D01*
X89754564Y-53725312D01*
X89754561Y-53725308D01*
X89754556Y-53725304D01*
X89754555Y-53725303D01*
X89629117Y-53629052D01*
X89483045Y-53568547D01*
X89483037Y-53568545D01*
X89326280Y-53547908D01*
X89326278Y-53547908D01*
X89169520Y-53568545D01*
X89169512Y-53568547D01*
X89023440Y-53629052D01*
X89023439Y-53629052D01*
X88898002Y-53725303D01*
X88897992Y-53725313D01*
X88801743Y-53850747D01*
X88801741Y-53850751D01*
X88792209Y-53873763D01*
X88752471Y-53920288D01*
X88711399Y-53934300D01*
X88649288Y-53941022D01*
X88626073Y-53951059D01*
X88626061Y-53951065D01*
X88375156Y-54095928D01*
X88354851Y-54111016D01*
X88350141Y-54117457D01*
X88300528Y-54153264D01*
X88287429Y-54156508D01*
X88259094Y-54161505D01*
X88259082Y-54161509D01*
X88257774Y-54162265D01*
X88233920Y-54172146D01*
X88232458Y-54172537D01*
X88232450Y-54172541D01*
X88198850Y-54196067D01*
X88195214Y-54198383D01*
X88187009Y-54203120D01*
X88159679Y-54218900D01*
X88133315Y-54250319D01*
X88130397Y-54253503D01*
X88068902Y-54314999D01*
X88030722Y-54338741D01*
X87967301Y-54360270D01*
X87967299Y-54360270D01*
X87967299Y-54360271D01*
X87655545Y-54540262D01*
X87653518Y-54541432D01*
X87593669Y-54554153D01*
X87537774Y-54529266D01*
X87507181Y-54476278D01*
X87505018Y-54455695D01*
X87505018Y-54122240D01*
X87505205Y-54117939D01*
X87508782Y-54077060D01*
X87498158Y-54037415D01*
X87497228Y-54033215D01*
X87493992Y-54014864D01*
X87490106Y-53992822D01*
X87489358Y-53991526D01*
X87479460Y-53967634D01*
X87479072Y-53966183D01*
X87479070Y-53966180D01*
X87479069Y-53966178D01*
X87455543Y-53932579D01*
X87453221Y-53928935D01*
X87432711Y-53893410D01*
X87409295Y-53873763D01*
X87401283Y-53867040D01*
X87398106Y-53864128D01*
X85664746Y-52130769D01*
X85636969Y-52076252D01*
X85641003Y-52028945D01*
X85658896Y-51976237D01*
X85656196Y-51935045D01*
X85671257Y-51875743D01*
X85718298Y-51836618D01*
X85729361Y-51832943D01*
X85830989Y-51805712D01*
X85830992Y-51805710D01*
X85937252Y-51736704D01*
X85985135Y-51677573D01*
X85408738Y-51344790D01*
X85367797Y-51299321D01*
X85361401Y-51238471D01*
X85372501Y-51209554D01*
X85386400Y-51185481D01*
X85732809Y-51185481D01*
X86135134Y-51417764D01*
X86162401Y-51346735D01*
X86162403Y-51346729D01*
X86169032Y-51220207D01*
X86169032Y-51220201D01*
X86136238Y-51097810D01*
X86136236Y-51097807D01*
X86067231Y-50991549D01*
X85993524Y-50931862D01*
X85907808Y-50882374D01*
X85732809Y-51185481D01*
X85386400Y-51185481D01*
X85473001Y-51035483D01*
X85647999Y-50732375D01*
X85637488Y-50693148D01*
X85640690Y-50632046D01*
X85654574Y-50607256D01*
X85678124Y-50576564D01*
X85678126Y-50576562D01*
X85738634Y-50430483D01*
X85759272Y-50273721D01*
X85755016Y-50241397D01*
X85743786Y-50156093D01*
X85738634Y-50116959D01*
X85736221Y-50111133D01*
X85678127Y-49970882D01*
X85678127Y-49970881D01*
X85581876Y-49845444D01*
X85581875Y-49845443D01*
X85581872Y-49845439D01*
X85581867Y-49845435D01*
X85581866Y-49845434D01*
X85456428Y-49749183D01*
X85310356Y-49688678D01*
X85310348Y-49688676D01*
X85153591Y-49668039D01*
X85153589Y-49668039D01*
X84996831Y-49688676D01*
X84996823Y-49688678D01*
X84850751Y-49749183D01*
X84850750Y-49749183D01*
X84725313Y-49845434D01*
X84725303Y-49845444D01*
X84629052Y-49970881D01*
X84629052Y-49970882D01*
X84568547Y-50116954D01*
X84568545Y-50116962D01*
X84547908Y-50273720D01*
X84547908Y-50273721D01*
X84551159Y-50298417D01*
X84540009Y-50358577D01*
X84511445Y-50391249D01*
X84490426Y-50406620D01*
X84461011Y-50428130D01*
X84445928Y-50448425D01*
X84301061Y-50699346D01*
X84301056Y-50699356D01*
X84291023Y-50722558D01*
X84291022Y-50722562D01*
X84278935Y-50834253D01*
X84278935Y-50834258D01*
X84303555Y-50926137D01*
X84300354Y-50987239D01*
X84261849Y-51034789D01*
X84214407Y-51050549D01*
X84193917Y-51051892D01*
X84190873Y-51052092D01*
X84190872Y-51052092D01*
X84119335Y-51087370D01*
X84080019Y-51132200D01*
X83893047Y-51456047D01*
X83842972Y-51542780D01*
X83810270Y-51599421D01*
X83801708Y-51624644D01*
X83765098Y-51673668D01*
X83706665Y-51691812D01*
X83648727Y-51672143D01*
X83637958Y-51662824D01*
X82306548Y-50331414D01*
X82303629Y-50328229D01*
X82277263Y-50296806D01*
X82244236Y-50277738D01*
X82241725Y-50276288D01*
X82238095Y-50273975D01*
X82204491Y-50250446D01*
X82204486Y-50250443D01*
X82203031Y-50250054D01*
X82179155Y-50240164D01*
X82177852Y-50239411D01*
X82137459Y-50232289D01*
X82133243Y-50231354D01*
X82106960Y-50224312D01*
X82093614Y-50220736D01*
X82093613Y-50220736D01*
X82089188Y-50221123D01*
X82052733Y-50224312D01*
X82048433Y-50224500D01*
X80955193Y-50224500D01*
X80897002Y-50205593D01*
X80861038Y-50156093D01*
X80861038Y-50094907D01*
X80885189Y-50055496D01*
X80952641Y-49988043D01*
X81010163Y-49875151D01*
X81010164Y-49875147D01*
X81022067Y-49800000D01*
X80356500Y-49800000D01*
X80298309Y-49781093D01*
X80262345Y-49731593D01*
X80257500Y-49701000D01*
X80257500Y-49499999D01*
X80557500Y-49499999D01*
X80557501Y-49500000D01*
X81022065Y-49500000D01*
X81022066Y-49499999D01*
X81010166Y-49424857D01*
X81010165Y-49424854D01*
X80952640Y-49311955D01*
X80863043Y-49222358D01*
X80750151Y-49164836D01*
X80750147Y-49164835D01*
X80656484Y-49150000D01*
X80557501Y-49150000D01*
X80557500Y-49150001D01*
X80557500Y-49499999D01*
X80257500Y-49499999D01*
X80257500Y-49150000D01*
X80228781Y-49121282D01*
X80201004Y-49066765D01*
X80200632Y-49038355D01*
X80205682Y-48999999D01*
X80185044Y-48843241D01*
X80185044Y-48843238D01*
X80124537Y-48697161D01*
X80124537Y-48697160D01*
X80028286Y-48571723D01*
X80028285Y-48571722D01*
X80028282Y-48571718D01*
X80028277Y-48571714D01*
X80028276Y-48571713D01*
X79902838Y-48475462D01*
X79756766Y-48414957D01*
X79756758Y-48414955D01*
X79600001Y-48394318D01*
X79599999Y-48394318D01*
X79443241Y-48414955D01*
X79443233Y-48414957D01*
X79297161Y-48475462D01*
X79297160Y-48475462D01*
X79171723Y-48571713D01*
X79171713Y-48571723D01*
X79075462Y-48697160D01*
X79075462Y-48697161D01*
X79014957Y-48843233D01*
X79014955Y-48843241D01*
X78994318Y-48999999D01*
X78994318Y-49000000D01*
X79014955Y-49156758D01*
X79014957Y-49156766D01*
X79075462Y-49302838D01*
X79075465Y-49302843D01*
X79090626Y-49322601D01*
X79111051Y-49380276D01*
X79102650Y-49422856D01*
X79077415Y-49480008D01*
X79077414Y-49480011D01*
X79074500Y-49505130D01*
X79074500Y-49794859D01*
X79074501Y-49794864D01*
X79077414Y-49819990D01*
X79101769Y-49875147D01*
X79122794Y-49922765D01*
X79190058Y-49990029D01*
X79217834Y-50044544D01*
X79208263Y-50104976D01*
X79175057Y-50142345D01*
X79155450Y-50155446D01*
X79155445Y-50155451D01*
X79111134Y-50221766D01*
X79111132Y-50221772D01*
X79099501Y-50280241D01*
X79099500Y-50280253D01*
X79099500Y-50819746D01*
X79099501Y-50819758D01*
X79111132Y-50878227D01*
X79111134Y-50878233D01*
X79155745Y-50944997D01*
X79172354Y-51003885D01*
X79155747Y-51054998D01*
X79138709Y-51080499D01*
X79090661Y-51118380D01*
X79056392Y-51124500D01*
X75958083Y-51124500D01*
X75899892Y-51105593D01*
X75883650Y-51090774D01*
X75880665Y-51087370D01*
X75843641Y-51069112D01*
X75799814Y-51026418D01*
X75789452Y-50966117D01*
X75791801Y-50954698D01*
X75819032Y-50853070D01*
X75819032Y-50853066D01*
X75812402Y-50726541D01*
X75785135Y-50655508D01*
X75208737Y-50988291D01*
X75148889Y-51001012D01*
X75092993Y-50976125D01*
X75073500Y-50952054D01*
X74797999Y-50474873D01*
X74758770Y-50464361D01*
X74707456Y-50431037D01*
X74692930Y-50406620D01*
X74678127Y-50370883D01*
X74678125Y-50370878D01*
X74642825Y-50324874D01*
X75057809Y-50324874D01*
X75232808Y-50627981D01*
X75635133Y-50395698D01*
X75587252Y-50336569D01*
X75480992Y-50267563D01*
X75480989Y-50267561D01*
X75358598Y-50234767D01*
X75358592Y-50234767D01*
X75232067Y-50241397D01*
X75232063Y-50241398D01*
X75143528Y-50275384D01*
X75057809Y-50324873D01*
X75057809Y-50324874D01*
X74642825Y-50324874D01*
X74581876Y-50245444D01*
X74581875Y-50245443D01*
X74581872Y-50245439D01*
X74581867Y-50245435D01*
X74581866Y-50245434D01*
X74510694Y-50190822D01*
X74456431Y-50149185D01*
X74456430Y-50149184D01*
X74456428Y-50149183D01*
X74310356Y-50088678D01*
X74310348Y-50088676D01*
X74153591Y-50068039D01*
X74153589Y-50068039D01*
X73996831Y-50088676D01*
X73996823Y-50088678D01*
X73850751Y-50149183D01*
X73850750Y-50149183D01*
X73725313Y-50245434D01*
X73725303Y-50245444D01*
X73629052Y-50370881D01*
X73629052Y-50370882D01*
X73568547Y-50516954D01*
X73568545Y-50516962D01*
X73547908Y-50673720D01*
X73547908Y-50673721D01*
X73568545Y-50830479D01*
X73568547Y-50830487D01*
X73629052Y-50976559D01*
X73629052Y-50976560D01*
X73725303Y-51101997D01*
X73725308Y-51102003D01*
X73725312Y-51102006D01*
X73725313Y-51102007D01*
X73731617Y-51106844D01*
X73850749Y-51198257D01*
X73873761Y-51207788D01*
X73920285Y-51247523D01*
X73934300Y-51288599D01*
X73941022Y-51350711D01*
X73951059Y-51373926D01*
X73951065Y-51373938D01*
X74033110Y-51516042D01*
X74095927Y-51624842D01*
X74111014Y-51645146D01*
X74111015Y-51645146D01*
X74111016Y-51645148D01*
X74117449Y-51649852D01*
X74153262Y-51699461D01*
X74156510Y-51712574D01*
X74161506Y-51740911D01*
X74162259Y-51742214D01*
X74172149Y-51766090D01*
X74172538Y-51767545D01*
X74172541Y-51767550D01*
X74191346Y-51794407D01*
X74196066Y-51801147D01*
X74198383Y-51804784D01*
X74210804Y-51826297D01*
X74218901Y-51840321D01*
X74250319Y-51866684D01*
X74253505Y-51869603D01*
X74314999Y-51931096D01*
X74338741Y-51969277D01*
X74349170Y-51999999D01*
X74360271Y-52032701D01*
X74538537Y-52341466D01*
X74541433Y-52346482D01*
X74554154Y-52406330D01*
X74529267Y-52462226D01*
X74476279Y-52492819D01*
X74455696Y-52494982D01*
X74122241Y-52494982D01*
X74117940Y-52494794D01*
X74077060Y-52491218D01*
X74077054Y-52491218D01*
X74037431Y-52501835D01*
X74033216Y-52502769D01*
X73992827Y-52509892D01*
X73992815Y-52509896D01*
X73991507Y-52510652D01*
X73967653Y-52520533D01*
X73966191Y-52520924D01*
X73966183Y-52520928D01*
X73932583Y-52544454D01*
X73928947Y-52546770D01*
X73920742Y-52551507D01*
X73893412Y-52567287D01*
X73867048Y-52598706D01*
X73864130Y-52601890D01*
X72130769Y-54335252D01*
X72076252Y-54363029D01*
X72028944Y-54358995D01*
X72002828Y-54350130D01*
X71976237Y-54341104D01*
X71976235Y-54341104D01*
X71976234Y-54341104D01*
X71948572Y-54342917D01*
X71935045Y-54343803D01*
X71875743Y-54328743D01*
X71836618Y-54281702D01*
X71832943Y-54270639D01*
X71805712Y-54169010D01*
X71805710Y-54169007D01*
X71736705Y-54062749D01*
X71677572Y-54014864D01*
X71344790Y-54591261D01*
X71299321Y-54632202D01*
X71238471Y-54638598D01*
X71209554Y-54627498D01*
X71058456Y-54540262D01*
X70732375Y-54351999D01*
X70693145Y-54362511D01*
X70632043Y-54359308D01*
X70607260Y-54345429D01*
X70576562Y-54321874D01*
X70576559Y-54321873D01*
X70576557Y-54321871D01*
X70430487Y-54261367D01*
X70430479Y-54261365D01*
X70273722Y-54240728D01*
X70273720Y-54240728D01*
X70116962Y-54261365D01*
X70116954Y-54261367D01*
X69970882Y-54321872D01*
X69970881Y-54321872D01*
X69845444Y-54418123D01*
X69845434Y-54418133D01*
X69749183Y-54543570D01*
X69749183Y-54543571D01*
X69688678Y-54689643D01*
X69688676Y-54689651D01*
X69668039Y-54846409D01*
X69668039Y-54846410D01*
X69688676Y-55003168D01*
X69688678Y-55003176D01*
X69749183Y-55149248D01*
X69749183Y-55149249D01*
X69845434Y-55274686D01*
X69845439Y-55274692D01*
X69970880Y-55370946D01*
X69970881Y-55370946D01*
X69970882Y-55370947D01*
X70099584Y-55424257D01*
X70116959Y-55431454D01*
X70273721Y-55452092D01*
X70298415Y-55448840D01*
X70358573Y-55459989D01*
X70391249Y-55488554D01*
X70428128Y-55538986D01*
X70428129Y-55538986D01*
X70428130Y-55538988D01*
X70448425Y-55554071D01*
X70448429Y-55554073D01*
X70448430Y-55554074D01*
X70699343Y-55698937D01*
X70699350Y-55698940D01*
X70699356Y-55698943D01*
X70722558Y-55708976D01*
X70722559Y-55708976D01*
X70722561Y-55708977D01*
X70834255Y-55721065D01*
X70926139Y-55696444D01*
X70987238Y-55699645D01*
X71034789Y-55738149D01*
X71050549Y-55785592D01*
X71052092Y-55809127D01*
X71087370Y-55880665D01*
X71132201Y-55919981D01*
X71599419Y-56189729D01*
X71599422Y-56189730D01*
X71599424Y-56189731D01*
X71624641Y-56198291D01*
X71673666Y-56234899D01*
X71691811Y-56293332D01*
X71672144Y-56351271D01*
X71662823Y-56362041D01*
X70331413Y-57693451D01*
X70328229Y-57696369D01*
X70296807Y-57722735D01*
X70296806Y-57722737D01*
X70276292Y-57758268D01*
X70273972Y-57761909D01*
X70250446Y-57795509D01*
X70250442Y-57795517D01*
X70250051Y-57796979D01*
X70240170Y-57820833D01*
X70239414Y-57822141D01*
X70239410Y-57822153D01*
X70232287Y-57862542D01*
X70231353Y-57866757D01*
X70220736Y-57906380D01*
X70220736Y-57906386D01*
X70224312Y-57947265D01*
X70224500Y-57951566D01*
X70224500Y-59044807D01*
X70205593Y-59102998D01*
X70156093Y-59138962D01*
X70094907Y-59138962D01*
X70055496Y-59114811D01*
X69988043Y-59047358D01*
X69875151Y-58989836D01*
X69875147Y-58989835D01*
X69800000Y-58977932D01*
X69800000Y-59643500D01*
X69781093Y-59701691D01*
X69731593Y-59737655D01*
X69701000Y-59742500D01*
X69150000Y-59742500D01*
X69121282Y-59771218D01*
X69066765Y-59798995D01*
X69038359Y-59799367D01*
X69000003Y-59794318D01*
X68999999Y-59794318D01*
X68843241Y-59814955D01*
X68843233Y-59814957D01*
X68697161Y-59875462D01*
X68697160Y-59875462D01*
X68571723Y-59971713D01*
X68571713Y-59971723D01*
X68475462Y-60097160D01*
X68475462Y-60097161D01*
X68414957Y-60243233D01*
X68414955Y-60243241D01*
X68394318Y-60399999D01*
X68394318Y-60400000D01*
X66000500Y-60400000D01*
X66000500Y-59442498D01*
X69150000Y-59442498D01*
X69150001Y-59442500D01*
X69499999Y-59442500D01*
X69500000Y-59442499D01*
X69500000Y-58977932D01*
X69424852Y-58989835D01*
X69424848Y-58989836D01*
X69311956Y-59047358D01*
X69222358Y-59136956D01*
X69164836Y-59249848D01*
X69164835Y-59249852D01*
X69150000Y-59343515D01*
X69150000Y-59442498D01*
X66000500Y-59442498D01*
X66000500Y-54092190D01*
X70882374Y-54092190D01*
X71185481Y-54267189D01*
X71417764Y-53864863D01*
X71346737Y-53837598D01*
X71346732Y-53837597D01*
X71220207Y-53830967D01*
X71220201Y-53830967D01*
X71097810Y-53863761D01*
X71097807Y-53863763D01*
X70991549Y-53932768D01*
X70931864Y-54006473D01*
X70882374Y-54092190D01*
X66000500Y-54092190D01*
X66000500Y-47002158D01*
X66000687Y-46997860D01*
X66004483Y-46954465D01*
X66017120Y-46826179D01*
X66020007Y-46810307D01*
X66038218Y-46742342D01*
X66038603Y-46740995D01*
X66067199Y-46646725D01*
X66072207Y-46633639D01*
X66099292Y-46575555D01*
X66104551Y-46564276D01*
X66105718Y-46561943D01*
X66151123Y-46476994D01*
X66154212Y-46471965D01*
X66201271Y-46404759D01*
X66203528Y-46401784D01*
X66263508Y-46328698D01*
X66266741Y-46325131D01*
X66325131Y-46266741D01*
X66328698Y-46263508D01*
X66401784Y-46203528D01*
X66404759Y-46201271D01*
X66471965Y-46154212D01*
X66476994Y-46151123D01*
X66561943Y-46105718D01*
X66564276Y-46104551D01*
X66633641Y-46072205D01*
X66646725Y-46067199D01*
X66740995Y-46038603D01*
X66742342Y-46038218D01*
X66810307Y-46020007D01*
X66826179Y-46017120D01*
X66954484Y-46004482D01*
X66997859Y-46000687D01*
X67002159Y-46000500D01*
X92997840Y-46000500D01*
X93002140Y-46000687D01*
G37*
G04 #@! TD.AperFunction*
M02*
