M48
INCH,TZ
T1C0.0157
%
G90
G05
T1
X27165Y-23780
X27667Y-21593
X27824Y-25924
X29194Y-19950
X29467Y-27451
X31339Y-19291
X31654Y-27953
X33525Y-19793
X33798Y-27294
X34685Y-24843
X35168Y-21320
X35236Y-24055
X35325Y-25651
X35827Y-23465
X36220Y-24094
X36220Y-25591
X36614Y-24094
X36614Y-24646
X36614Y-25118
X36614Y-25591
T0
M30
