G04 #@! TF.GenerationSoftware,KiCad,Pcbnew,7.0.2.1-36-g582732918d-dirty-deb11*
G04 #@! TF.CreationDate,2023-05-28T08:23:43+00:00*
G04 #@! TF.ProjectId,pedalboard-led-ring,70656461-6c62-46f6-9172-642d6c65642d,rev?*
G04 #@! TF.SameCoordinates,Original*
G04 #@! TF.FileFunction,Copper,L1,Top*
G04 #@! TF.FilePolarity,Positive*
%FSLAX46Y46*%
G04 Gerber Fmt 4.6, Leading zero omitted, Abs format (unit mm)*
G04 Created by KiCad (PCBNEW 7.0.2.1-36-g582732918d-dirty-deb11) date 2023-05-28 08:23:43*
%MOMM*%
%LPD*%
G01*
G04 APERTURE LIST*
G04 #@! TA.AperFunction,SMDPad,CuDef*
%ADD10R,0.830000X0.750000*%
G04 #@! TD*
G04 #@! TA.AperFunction,SMDPad,CuDef*
%ADD11R,0.830000X0.500000*%
G04 #@! TD*
G04 #@! TA.AperFunction,ViaPad*
%ADD12C,0.800000*%
G04 #@! TD*
G04 #@! TA.AperFunction,Conductor*
%ADD13C,0.250000*%
G04 #@! TD*
G04 APERTURE END LIST*
G04 #@! TA.AperFunction,SMDPad,CuDef*
G36*
X87819890Y-54716439D02*
G01*
X88469410Y-54341439D01*
X88884410Y-55060241D01*
X88234890Y-55435241D01*
X87819890Y-54716439D01*
G37*
G04 #@! TD.AperFunction*
G04 #@! TA.AperFunction,SMDPad,CuDef*
G36*
X87230994Y-55056439D02*
G01*
X87664006Y-54806439D01*
X88079006Y-55525241D01*
X87645994Y-55775241D01*
X87230994Y-55056439D01*
G37*
G04 #@! TD.AperFunction*
G04 #@! TA.AperFunction,SMDPad,CuDef*
G36*
X86425590Y-55521439D02*
G01*
X87075110Y-55146439D01*
X87490110Y-55865241D01*
X86840590Y-56240241D01*
X86425590Y-55521439D01*
G37*
G04 #@! TD.AperFunction*
G04 #@! TA.AperFunction,SMDPad,CuDef*
G36*
X87215590Y-56889759D02*
G01*
X87865110Y-56514759D01*
X88280110Y-57233561D01*
X87630590Y-57608561D01*
X87215590Y-56889759D01*
G37*
G04 #@! TD.AperFunction*
G04 #@! TA.AperFunction,SMDPad,CuDef*
G36*
X88020994Y-56424759D02*
G01*
X88454006Y-56174759D01*
X88869006Y-56893561D01*
X88435994Y-57143561D01*
X88020994Y-56424759D01*
G37*
G04 #@! TD.AperFunction*
G04 #@! TA.AperFunction,SMDPad,CuDef*
G36*
X88609890Y-56084759D02*
G01*
X89259410Y-55709759D01*
X89674410Y-56428561D01*
X89024890Y-56803561D01*
X88609890Y-56084759D01*
G37*
G04 #@! TD.AperFunction*
D10*
X80790000Y-69805000D03*
D11*
X80790000Y-69000000D03*
D10*
X80790000Y-68195000D03*
X79210000Y-68195000D03*
D11*
X79210000Y-69000000D03*
D10*
X79210000Y-69805000D03*
X79210000Y-50195000D03*
D11*
X79210000Y-51000000D03*
D10*
X79210000Y-51805000D03*
X80790000Y-51805000D03*
D11*
X80790000Y-51000000D03*
D10*
X80790000Y-50195000D03*
G04 #@! TA.AperFunction,SMDPad,CuDef*
G36*
X72180110Y-65283561D02*
G01*
X71530590Y-65658561D01*
X71115590Y-64939759D01*
X71765110Y-64564759D01*
X72180110Y-65283561D01*
G37*
G04 #@! TD.AperFunction*
G04 #@! TA.AperFunction,SMDPad,CuDef*
G36*
X72769006Y-64943561D02*
G01*
X72335994Y-65193561D01*
X71920994Y-64474759D01*
X72354006Y-64224759D01*
X72769006Y-64943561D01*
G37*
G04 #@! TD.AperFunction*
G04 #@! TA.AperFunction,SMDPad,CuDef*
G36*
X73574410Y-64478561D02*
G01*
X72924890Y-64853561D01*
X72509890Y-64134759D01*
X73159410Y-63759759D01*
X73574410Y-64478561D01*
G37*
G04 #@! TD.AperFunction*
G04 #@! TA.AperFunction,SMDPad,CuDef*
G36*
X72784410Y-63110241D02*
G01*
X72134890Y-63485241D01*
X71719890Y-62766439D01*
X72369410Y-62391439D01*
X72784410Y-63110241D01*
G37*
G04 #@! TD.AperFunction*
G04 #@! TA.AperFunction,SMDPad,CuDef*
G36*
X71979006Y-63575241D02*
G01*
X71545994Y-63825241D01*
X71130994Y-63106439D01*
X71564006Y-62856439D01*
X71979006Y-63575241D01*
G37*
G04 #@! TD.AperFunction*
G04 #@! TA.AperFunction,SMDPad,CuDef*
G36*
X71390110Y-63915241D02*
G01*
X70740590Y-64290241D01*
X70325590Y-63571439D01*
X70975110Y-63196439D01*
X71390110Y-63915241D01*
G37*
G04 #@! TD.AperFunction*
G04 #@! TA.AperFunction,SMDPad,CuDef*
G36*
X70975110Y-56803561D02*
G01*
X70325590Y-56428561D01*
X70740590Y-55709759D01*
X71390110Y-56084759D01*
X70975110Y-56803561D01*
G37*
G04 #@! TD.AperFunction*
G04 #@! TA.AperFunction,SMDPad,CuDef*
G36*
X71564006Y-57143561D02*
G01*
X71130994Y-56893561D01*
X71545994Y-56174759D01*
X71979006Y-56424759D01*
X71564006Y-57143561D01*
G37*
G04 #@! TD.AperFunction*
G04 #@! TA.AperFunction,SMDPad,CuDef*
G36*
X72369410Y-57608561D02*
G01*
X71719890Y-57233561D01*
X72134890Y-56514759D01*
X72784410Y-56889759D01*
X72369410Y-57608561D01*
G37*
G04 #@! TD.AperFunction*
G04 #@! TA.AperFunction,SMDPad,CuDef*
G36*
X73159410Y-56240241D02*
G01*
X72509890Y-55865241D01*
X72924890Y-55146439D01*
X73574410Y-55521439D01*
X73159410Y-56240241D01*
G37*
G04 #@! TD.AperFunction*
G04 #@! TA.AperFunction,SMDPad,CuDef*
G36*
X72354006Y-55775241D02*
G01*
X71920994Y-55525241D01*
X72335994Y-54806439D01*
X72769006Y-55056439D01*
X72354006Y-55775241D01*
G37*
G04 #@! TD.AperFunction*
G04 #@! TA.AperFunction,SMDPad,CuDef*
G36*
X71765110Y-55435241D02*
G01*
X71115590Y-55060241D01*
X71530590Y-54341439D01*
X72180110Y-54716439D01*
X71765110Y-55435241D01*
G37*
G04 #@! TD.AperFunction*
G04 #@! TA.AperFunction,SMDPad,CuDef*
G36*
X89024890Y-63196439D02*
G01*
X89674410Y-63571439D01*
X89259410Y-64290241D01*
X88609890Y-63915241D01*
X89024890Y-63196439D01*
G37*
G04 #@! TD.AperFunction*
G04 #@! TA.AperFunction,SMDPad,CuDef*
G36*
X88435994Y-62856439D02*
G01*
X88869006Y-63106439D01*
X88454006Y-63825241D01*
X88020994Y-63575241D01*
X88435994Y-62856439D01*
G37*
G04 #@! TD.AperFunction*
G04 #@! TA.AperFunction,SMDPad,CuDef*
G36*
X87630590Y-62391439D02*
G01*
X88280110Y-62766439D01*
X87865110Y-63485241D01*
X87215590Y-63110241D01*
X87630590Y-62391439D01*
G37*
G04 #@! TD.AperFunction*
G04 #@! TA.AperFunction,SMDPad,CuDef*
G36*
X86840590Y-63759759D02*
G01*
X87490110Y-64134759D01*
X87075110Y-64853561D01*
X86425590Y-64478561D01*
X86840590Y-63759759D01*
G37*
G04 #@! TD.AperFunction*
G04 #@! TA.AperFunction,SMDPad,CuDef*
G36*
X87645994Y-64224759D02*
G01*
X88079006Y-64474759D01*
X87664006Y-65193561D01*
X87230994Y-64943561D01*
X87645994Y-64224759D01*
G37*
G04 #@! TD.AperFunction*
G04 #@! TA.AperFunction,SMDPad,CuDef*
G36*
X88234890Y-64564759D02*
G01*
X88884410Y-64939759D01*
X88469410Y-65658561D01*
X87819890Y-65283561D01*
X88234890Y-64564759D01*
G37*
G04 #@! TD.AperFunction*
D12*
X89500000Y-61400000D03*
X90500000Y-61400000D03*
X83000000Y-71200000D03*
X86400000Y-69750000D03*
X87900000Y-69750000D03*
X81250000Y-70800000D03*
X96550000Y-58500000D03*
X91800000Y-69500000D03*
X101050000Y-51750000D03*
X96500000Y-72550000D03*
X96500000Y-68400000D03*
X90800000Y-50850000D03*
X93450000Y-58050000D03*
X99040000Y-72540000D03*
X99200000Y-55200000D03*
X92400000Y-55500000D03*
X90800000Y-53400000D03*
X90800000Y-52200000D03*
D13*
X84300000Y-67000000D02*
X81985000Y-67000000D01*
X81985000Y-67000000D02*
X80790000Y-68195000D01*
X86957850Y-64342150D02*
X84300000Y-67000000D01*
X86957850Y-64306660D02*
X86957850Y-64342150D01*
X87655000Y-64745000D02*
X84750000Y-67650000D01*
X84750000Y-67650000D02*
X82735000Y-67650000D01*
X87655000Y-64709160D02*
X87655000Y-64745000D01*
X82735000Y-67650000D02*
X81385000Y-69000000D01*
X81385000Y-69000000D02*
X80790000Y-69000000D01*
X88352150Y-65111660D02*
X85063810Y-68400000D01*
X81188112Y-69805000D02*
X80790000Y-69805000D01*
X85063810Y-68400000D02*
X82593112Y-68400000D01*
X82593112Y-68400000D02*
X81188112Y-69805000D01*
X76795000Y-68195000D02*
X73042150Y-64442150D01*
X79210000Y-68195000D02*
X76795000Y-68195000D01*
X73042150Y-64442150D02*
X73042150Y-64306660D01*
X76500000Y-69000000D02*
X72345000Y-64845000D01*
X72345000Y-64845000D02*
X72345000Y-64709160D01*
X79210000Y-69000000D02*
X76500000Y-69000000D01*
X79210000Y-69805000D02*
X76341190Y-69805000D01*
X76341190Y-69805000D02*
X71647850Y-65111660D01*
X72252150Y-62938340D02*
X72100000Y-62786190D01*
X72100000Y-57213810D02*
X72252150Y-57061660D01*
X72100000Y-62786190D02*
X72100000Y-57213810D01*
X71300000Y-63085840D02*
X71300000Y-56914160D01*
X71555000Y-63340840D02*
X71300000Y-63085840D01*
X71300000Y-56914160D02*
X71555000Y-56659160D01*
X70857850Y-63743340D02*
X70600000Y-63485490D01*
X70600000Y-63485490D02*
X70600000Y-56514510D01*
X70600000Y-56514510D02*
X70857850Y-56256660D01*
X76930490Y-51805000D02*
X79210000Y-51805000D01*
X73042150Y-55693340D02*
X76930490Y-51805000D01*
X76611709Y-51000000D02*
X72332934Y-55278775D01*
X79210000Y-51000000D02*
X76611709Y-51000000D01*
X79210000Y-50195000D02*
X76341190Y-50195000D01*
X76341190Y-50195000D02*
X71647850Y-54888340D01*
X80790000Y-51805000D02*
X83069510Y-51805000D01*
X83069510Y-51805000D02*
X86957850Y-55693340D01*
X85600000Y-53200000D02*
X85600000Y-53211709D01*
X83400000Y-51000000D02*
X85600000Y-53200000D01*
X80790000Y-51000000D02*
X83400000Y-51000000D01*
X85600000Y-53211709D02*
X87667066Y-55278775D01*
X83658810Y-50195000D02*
X88352150Y-54888340D01*
X80790000Y-50195000D02*
X83658810Y-50195000D01*
X87747850Y-57061660D02*
X88250000Y-57563810D01*
X88300000Y-57800000D02*
X88250000Y-57750000D01*
X88250000Y-57563810D02*
X88250000Y-57750000D01*
X92400000Y-55500000D02*
X90100000Y-57800000D01*
X90100000Y-57800000D02*
X88300000Y-57800000D01*
X90800000Y-53400000D02*
X90800000Y-56100000D01*
X90800000Y-56100000D02*
X89600000Y-57300000D01*
X89061709Y-57300000D02*
X88432934Y-56671225D01*
X89600000Y-57300000D02*
X89061709Y-57300000D01*
X90100000Y-55500000D02*
X90075000Y-55475000D01*
X89600000Y-56000000D02*
X90100000Y-55500000D01*
X89398810Y-56000000D02*
X89600000Y-56000000D01*
X90075000Y-55475000D02*
X90075000Y-52925000D01*
X90075000Y-52925000D02*
X90800000Y-52200000D01*
X89142150Y-56256660D02*
X89398810Y-56000000D01*
G04 #@! TA.AperFunction,Conductor*
G36*
X101005394Y-46000971D02*
G01*
X101045519Y-46004482D01*
X101171780Y-46016919D01*
X101191682Y-46020540D01*
X101256467Y-46037899D01*
X101260203Y-46038966D01*
X101351570Y-46066682D01*
X101367959Y-46072952D01*
X101433867Y-46103686D01*
X101439867Y-46106685D01*
X101482639Y-46129548D01*
X101519046Y-46149008D01*
X101531715Y-46156791D01*
X101592889Y-46199625D01*
X101600430Y-46205346D01*
X101668455Y-46261172D01*
X101677472Y-46269345D01*
X101730653Y-46322526D01*
X101738826Y-46331543D01*
X101794652Y-46399568D01*
X101800373Y-46407109D01*
X101843207Y-46468283D01*
X101850990Y-46480952D01*
X101893304Y-46560114D01*
X101896328Y-46566163D01*
X101927041Y-46632027D01*
X101933319Y-46648436D01*
X101961008Y-46739713D01*
X101962123Y-46743616D01*
X101979454Y-46808298D01*
X101983082Y-46828237D01*
X101995523Y-46954554D01*
X101997207Y-46973801D01*
X101999030Y-46994638D01*
X101999500Y-47005406D01*
X101999500Y-54321817D01*
X101979815Y-54388856D01*
X101927011Y-54434611D01*
X101876833Y-54445810D01*
X101871424Y-54445868D01*
X101871423Y-54445868D01*
X100345518Y-54462275D01*
X97473140Y-54493161D01*
X97473133Y-54493161D01*
X97469915Y-54493196D01*
X97466721Y-54493565D01*
X97466712Y-54493566D01*
X97420216Y-54498944D01*
X97420200Y-54498946D01*
X97417007Y-54499316D01*
X97413848Y-54500020D01*
X97413848Y-54500021D01*
X97368377Y-54510169D01*
X97368353Y-54510174D01*
X97366834Y-54510514D01*
X97365329Y-54510931D01*
X97365298Y-54510939D01*
X97341802Y-54517453D01*
X97255173Y-54566783D01*
X97204459Y-54610727D01*
X97204445Y-54610740D01*
X97202368Y-54612540D01*
X97200453Y-54614525D01*
X97170742Y-54645315D01*
X97124535Y-54733648D01*
X97104849Y-54800688D01*
X97094500Y-54872673D01*
X97094500Y-73875500D01*
X97074815Y-73942539D01*
X97022011Y-73988294D01*
X96970500Y-73999500D01*
X67005416Y-73999500D01*
X66994606Y-73999028D01*
X66954554Y-73995523D01*
X66828234Y-73983082D01*
X66808302Y-73979455D01*
X66743616Y-73962123D01*
X66739713Y-73961008D01*
X66648436Y-73933319D01*
X66632027Y-73927041D01*
X66566163Y-73896328D01*
X66560114Y-73893304D01*
X66480952Y-73850990D01*
X66468283Y-73843207D01*
X66407109Y-73800373D01*
X66399568Y-73794652D01*
X66331543Y-73738826D01*
X66322526Y-73730653D01*
X66269345Y-73677472D01*
X66261172Y-73668455D01*
X66205346Y-73600430D01*
X66199625Y-73592889D01*
X66156791Y-73531715D01*
X66149008Y-73519046D01*
X66129548Y-73482639D01*
X66106685Y-73439867D01*
X66103686Y-73433867D01*
X66072952Y-73367959D01*
X66066682Y-73351570D01*
X66038966Y-73260203D01*
X66037899Y-73256467D01*
X66020541Y-73191685D01*
X66016918Y-73171773D01*
X66004476Y-73045444D01*
X66004269Y-73043087D01*
X66000968Y-73005360D01*
X66000500Y-72994597D01*
X66000500Y-64973097D01*
X70862368Y-64973097D01*
X70886314Y-65043642D01*
X71325987Y-65805178D01*
X71325988Y-65805179D01*
X71375108Y-65861189D01*
X71464486Y-65905266D01*
X71563928Y-65911783D01*
X71634472Y-65887837D01*
X71715965Y-65840786D01*
X71783862Y-65824313D01*
X71849889Y-65847164D01*
X71865645Y-65860492D01*
X76039040Y-70033887D01*
X76055167Y-70053746D01*
X76061106Y-70062836D01*
X76072401Y-70071627D01*
X76086084Y-70082277D01*
X76097602Y-70092449D01*
X76097671Y-70092518D01*
X76114579Y-70104590D01*
X76118684Y-70107650D01*
X76160001Y-70139809D01*
X76160002Y-70139809D01*
X76166233Y-70144659D01*
X76166424Y-70144757D01*
X76173990Y-70147009D01*
X76173991Y-70147010D01*
X76224145Y-70161941D01*
X76228982Y-70163490D01*
X76278530Y-70180500D01*
X76285987Y-70183060D01*
X76286220Y-70183093D01*
X76294099Y-70182767D01*
X76294102Y-70182768D01*
X76346383Y-70180605D01*
X76351506Y-70180500D01*
X78437928Y-70180500D01*
X78504967Y-70200185D01*
X78550722Y-70252989D01*
X78558417Y-70276815D01*
X78559033Y-70277737D01*
X78559034Y-70277740D01*
X78614399Y-70360601D01*
X78697260Y-70415966D01*
X78733792Y-70423232D01*
X78770325Y-70430500D01*
X78770326Y-70430500D01*
X79649675Y-70430500D01*
X79674029Y-70425655D01*
X79722740Y-70415966D01*
X79805601Y-70360601D01*
X79860966Y-70277740D01*
X79875500Y-70204674D01*
X80124500Y-70204674D01*
X80139033Y-70277738D01*
X80139033Y-70277739D01*
X80139034Y-70277740D01*
X80194399Y-70360601D01*
X80277260Y-70415966D01*
X80313792Y-70423232D01*
X80350325Y-70430500D01*
X80350326Y-70430500D01*
X81229675Y-70430500D01*
X81254029Y-70425655D01*
X81302740Y-70415966D01*
X81385601Y-70360601D01*
X81440966Y-70277740D01*
X81455500Y-70204674D01*
X81455500Y-70120010D01*
X81475185Y-70052971D01*
X81491819Y-70032329D01*
X82712330Y-68811819D01*
X82773653Y-68778334D01*
X82800011Y-68775500D01*
X85012005Y-68775500D01*
X85037451Y-68778139D01*
X85041250Y-68778935D01*
X85048078Y-68780367D01*
X85077948Y-68776643D01*
X85079487Y-68776452D01*
X85094824Y-68775500D01*
X85094921Y-68775500D01*
X85094924Y-68775500D01*
X85115453Y-68772073D01*
X85120469Y-68771342D01*
X85172436Y-68764866D01*
X85172438Y-68764864D01*
X85180267Y-68763889D01*
X85180476Y-68763822D01*
X85187417Y-68760065D01*
X85187420Y-68760065D01*
X85233476Y-68735140D01*
X85237954Y-68732835D01*
X85285021Y-68709826D01*
X85285022Y-68709824D01*
X85292118Y-68706356D01*
X85292286Y-68706230D01*
X85297634Y-68700419D01*
X85297636Y-68700419D01*
X85333104Y-68661889D01*
X85336605Y-68658240D01*
X88134355Y-65860490D01*
X88195676Y-65827007D01*
X88265368Y-65831991D01*
X88284033Y-65840785D01*
X88365528Y-65887837D01*
X88365529Y-65887837D01*
X88372942Y-65892117D01*
X88421158Y-65942684D01*
X88434937Y-66000631D01*
X88397930Y-70071627D01*
X88377637Y-70138485D01*
X88324419Y-70183758D01*
X88273935Y-70194500D01*
X82574000Y-70194500D01*
X82570720Y-70194852D01*
X82570712Y-70194853D01*
X82522987Y-70199984D01*
X82522982Y-70199984D01*
X82519687Y-70200339D01*
X82516446Y-70201043D01*
X82516440Y-70201045D01*
X82469781Y-70211195D01*
X82469751Y-70211202D01*
X82468176Y-70211545D01*
X82466613Y-70211973D01*
X82466600Y-70211977D01*
X82449496Y-70216669D01*
X82441802Y-70218781D01*
X82441801Y-70218781D01*
X82441799Y-70218782D01*
X82355174Y-70268109D01*
X82304459Y-70312054D01*
X82304445Y-70312067D01*
X82302368Y-70313867D01*
X82300453Y-70315852D01*
X82270742Y-70346642D01*
X82224535Y-70434975D01*
X82204849Y-70502015D01*
X82194500Y-70574000D01*
X82194500Y-71426000D01*
X82200339Y-71480313D01*
X82201044Y-71483556D01*
X82201045Y-71483559D01*
X82211195Y-71530218D01*
X82211200Y-71530239D01*
X82211545Y-71531824D01*
X82211975Y-71533394D01*
X82211977Y-71533399D01*
X82218782Y-71558200D01*
X82268109Y-71644825D01*
X82312054Y-71695540D01*
X82313867Y-71697632D01*
X82346641Y-71729257D01*
X82434976Y-71775465D01*
X82502015Y-71795150D01*
X82574000Y-71805500D01*
X82723383Y-71805500D01*
X82753058Y-71809103D01*
X82767634Y-71812695D01*
X82767635Y-71812696D01*
X82921015Y-71850500D01*
X82921016Y-71850500D01*
X83078984Y-71850500D01*
X83078985Y-71850500D01*
X83232365Y-71812696D01*
X83232365Y-71812695D01*
X83246942Y-71809103D01*
X83276617Y-71805500D01*
X90973678Y-71805500D01*
X90976936Y-71805500D01*
X91030303Y-71799864D01*
X91080958Y-71789045D01*
X91106435Y-71782211D01*
X91193437Y-71733539D01*
X91246587Y-71688186D01*
X91278466Y-71655646D01*
X91325340Y-71567662D01*
X91345531Y-71500773D01*
X91356425Y-71428875D01*
X91400963Y-65550000D01*
X91401095Y-65532434D01*
X91402352Y-65515737D01*
X91405500Y-65493852D01*
X91405500Y-60771681D01*
X91400162Y-60719727D01*
X91389908Y-60670353D01*
X91383651Y-60646210D01*
X91335964Y-60558664D01*
X91326777Y-60547648D01*
X91292991Y-60507136D01*
X91292983Y-60507128D01*
X91291214Y-60505006D01*
X91289264Y-60503052D01*
X91289253Y-60503040D01*
X91259042Y-60472768D01*
X91171595Y-60424901D01*
X91149377Y-60417919D01*
X91104943Y-60403956D01*
X91081526Y-60400136D01*
X91033163Y-60392248D01*
X88500000Y-60344500D01*
X87878539Y-60344500D01*
X87874263Y-60345100D01*
X87874254Y-60345101D01*
X87812468Y-60353777D01*
X87812465Y-60353777D01*
X87808175Y-60354380D01*
X87804015Y-60355571D01*
X87804009Y-60355573D01*
X87745080Y-60372454D01*
X87745057Y-60372461D01*
X87742518Y-60373189D01*
X87722335Y-60380900D01*
X87701540Y-60388845D01*
X87622014Y-60448957D01*
X87575562Y-60501157D01*
X87535443Y-60561808D01*
X86775082Y-62170268D01*
X86662514Y-62408392D01*
X86477832Y-62799065D01*
X86398078Y-62967774D01*
X86331683Y-63108226D01*
X86317930Y-63137318D01*
X86316991Y-63139854D01*
X86316989Y-63139860D01*
X86303436Y-63176482D01*
X86303431Y-63176496D01*
X86302496Y-63179024D01*
X86301784Y-63181623D01*
X86301781Y-63181633D01*
X86291139Y-63220492D01*
X86290641Y-63222507D01*
X86287163Y-63237150D01*
X86286787Y-63336879D01*
X86299626Y-63402728D01*
X86299629Y-63402742D01*
X86300159Y-63405458D01*
X86312823Y-63449202D01*
X86366402Y-63533271D01*
X86366404Y-63533273D01*
X86414724Y-63583732D01*
X86471989Y-63628567D01*
X86480693Y-63633567D01*
X86529020Y-63684027D01*
X86542395Y-63752604D01*
X86526318Y-63803091D01*
X86196314Y-64374677D01*
X86172368Y-64445222D01*
X86178004Y-64531222D01*
X86162745Y-64599405D01*
X86141950Y-64627011D01*
X84180781Y-66588181D01*
X84119458Y-66621666D01*
X84093100Y-66624500D01*
X82036805Y-66624500D01*
X82011359Y-66621861D01*
X82000733Y-66619633D01*
X82000732Y-66619633D01*
X81984422Y-66621666D01*
X81969323Y-66623548D01*
X81953986Y-66624500D01*
X81953884Y-66624500D01*
X81933399Y-66627918D01*
X81928332Y-66628657D01*
X81868567Y-66636107D01*
X81868312Y-66636189D01*
X81815370Y-66664838D01*
X81810820Y-66667180D01*
X81756715Y-66693632D01*
X81756505Y-66693788D01*
X81715719Y-66738093D01*
X81712172Y-66741789D01*
X80920781Y-67533181D01*
X80859458Y-67566666D01*
X80833100Y-67569500D01*
X80350325Y-67569500D01*
X80277261Y-67584033D01*
X80194399Y-67639399D01*
X80139033Y-67722261D01*
X80124500Y-67795325D01*
X80124500Y-68594674D01*
X80132682Y-68635808D01*
X80132682Y-68684192D01*
X80124500Y-68725325D01*
X80124500Y-69274674D01*
X80132682Y-69315808D01*
X80132682Y-69364192D01*
X80124500Y-69405325D01*
X80124500Y-70204674D01*
X79875500Y-70204674D01*
X79875500Y-69405326D01*
X79867317Y-69364189D01*
X79867317Y-69315808D01*
X79875500Y-69274674D01*
X79875500Y-68725326D01*
X79867317Y-68684189D01*
X79867317Y-68635808D01*
X79875500Y-68594674D01*
X79875500Y-67795326D01*
X79860966Y-67722260D01*
X79805601Y-67639399D01*
X79722740Y-67584034D01*
X79722739Y-67584033D01*
X79722738Y-67584033D01*
X79649675Y-67569500D01*
X79649674Y-67569500D01*
X78770326Y-67569500D01*
X78770325Y-67569500D01*
X78697261Y-67584033D01*
X78697259Y-67584034D01*
X78697260Y-67584034D01*
X78614399Y-67639399D01*
X78559034Y-67722260D01*
X78559033Y-67722261D01*
X78555198Y-67728002D01*
X78527160Y-67781603D01*
X78466444Y-67816177D01*
X78437928Y-67819500D01*
X77001900Y-67819500D01*
X76934861Y-67799815D01*
X76914219Y-67783181D01*
X73835921Y-64704883D01*
X73802436Y-64643560D01*
X73807420Y-64573868D01*
X73812390Y-64562357D01*
X73821115Y-64544665D01*
X73827632Y-64445223D01*
X73803686Y-64374679D01*
X73656556Y-64119843D01*
X73364012Y-63613141D01*
X73314892Y-63557131D01*
X73266509Y-63533271D01*
X73225514Y-63513054D01*
X73126072Y-63506537D01*
X73126071Y-63506537D01*
X73055526Y-63530483D01*
X72363271Y-63930156D01*
X72331736Y-63957812D01*
X72289837Y-63982002D01*
X72250125Y-63995482D01*
X71774374Y-64270156D01*
X71742839Y-64297812D01*
X71700940Y-64322002D01*
X71661228Y-64335482D01*
X70968972Y-64735156D01*
X70912962Y-64784276D01*
X70868885Y-64873655D01*
X70862368Y-64973097D01*
X66000500Y-64973097D01*
X66000500Y-63604777D01*
X70072368Y-63604777D01*
X70096314Y-63675322D01*
X70535987Y-64436858D01*
X70535988Y-64436859D01*
X70585108Y-64492869D01*
X70674486Y-64536946D01*
X70773928Y-64543463D01*
X70844472Y-64519517D01*
X71536728Y-64119843D01*
X71568260Y-64092188D01*
X71610159Y-64067997D01*
X71649875Y-64054517D01*
X72125625Y-63779843D01*
X72157157Y-63752188D01*
X72199056Y-63727997D01*
X72238772Y-63714517D01*
X72931028Y-63314843D01*
X72987038Y-63265723D01*
X73031115Y-63176345D01*
X73037632Y-63076903D01*
X73013686Y-63006359D01*
X72574012Y-62244821D01*
X72524892Y-62188811D01*
X72524891Y-62188810D01*
X72508630Y-62170268D01*
X72511333Y-62167897D01*
X72493222Y-62151228D01*
X72475500Y-62087345D01*
X72475500Y-60000000D01*
X73894548Y-60000000D01*
X73894649Y-60002506D01*
X73914245Y-60488793D01*
X73914246Y-60488807D01*
X73914346Y-60491285D01*
X73914643Y-60493736D01*
X73914645Y-60493753D01*
X73973310Y-60976900D01*
X73973312Y-60976912D01*
X73973612Y-60979383D01*
X73974108Y-60981817D01*
X73974112Y-60981836D01*
X74071462Y-61458687D01*
X74071961Y-61461130D01*
X74072649Y-61463508D01*
X74072654Y-61463525D01*
X74185886Y-61854446D01*
X74208756Y-61933401D01*
X74209636Y-61935723D01*
X74209638Y-61935727D01*
X74305620Y-62188811D01*
X74383110Y-62393133D01*
X74384169Y-62395366D01*
X74384176Y-62395381D01*
X74592819Y-62835087D01*
X74592824Y-62835098D01*
X74593891Y-62837345D01*
X74595140Y-62839509D01*
X74595142Y-62839512D01*
X74789613Y-63176345D01*
X74839733Y-63263155D01*
X74841145Y-63265202D01*
X74841151Y-63265210D01*
X75117623Y-63665749D01*
X75119041Y-63667803D01*
X75430004Y-64048664D01*
X75770605Y-64403267D01*
X75772480Y-64404928D01*
X75772482Y-64404930D01*
X75963174Y-64573868D01*
X76138635Y-64729313D01*
X76140623Y-64730807D01*
X76140633Y-64730815D01*
X76529706Y-65023184D01*
X76529712Y-65023188D01*
X76531708Y-65024688D01*
X76947274Y-65287477D01*
X77382638Y-65515973D01*
X77834977Y-65708697D01*
X78301357Y-65864397D01*
X78778753Y-65982065D01*
X79264069Y-66060936D01*
X79754158Y-66100500D01*
X79756643Y-66100500D01*
X80243357Y-66100500D01*
X80245842Y-66100500D01*
X80735931Y-66060936D01*
X81221247Y-65982065D01*
X81698643Y-65864397D01*
X82165023Y-65708697D01*
X82617362Y-65515973D01*
X83052726Y-65287477D01*
X83468292Y-65024688D01*
X83861365Y-64729313D01*
X84229395Y-64403267D01*
X84569996Y-64048664D01*
X84880959Y-63667803D01*
X85160267Y-63263155D01*
X85406109Y-62837345D01*
X85616890Y-62393133D01*
X85791244Y-61933401D01*
X85928039Y-61461130D01*
X86026388Y-60979383D01*
X86085654Y-60491285D01*
X86105452Y-60000000D01*
X86085654Y-59508715D01*
X86026388Y-59020617D01*
X85928039Y-58538870D01*
X85791244Y-58066599D01*
X85616890Y-57606867D01*
X85407421Y-57165421D01*
X85407180Y-57164912D01*
X85407179Y-57164911D01*
X85406109Y-57162655D01*
X85267800Y-56923097D01*
X86962368Y-56923097D01*
X86986314Y-56993642D01*
X87341707Y-57609200D01*
X87425988Y-57755179D01*
X87475108Y-57811189D01*
X87564486Y-57855266D01*
X87663928Y-57861783D01*
X87734472Y-57837837D01*
X87734472Y-57837836D01*
X87746038Y-57833911D01*
X87747091Y-57837014D01*
X87795674Y-57825224D01*
X87861703Y-57848069D01*
X87898840Y-57890066D01*
X87911064Y-57912655D01*
X87914827Y-57919607D01*
X87917171Y-57924162D01*
X87943634Y-57978292D01*
X87943777Y-57978482D01*
X87949579Y-57983824D01*
X87949581Y-57983826D01*
X87988108Y-58019293D01*
X87991780Y-58022817D01*
X87997850Y-58028887D01*
X88013977Y-58048746D01*
X88019915Y-58057836D01*
X88044893Y-58077277D01*
X88056410Y-58087448D01*
X88056481Y-58087519D01*
X88073397Y-58099597D01*
X88077505Y-58102660D01*
X88125040Y-58139658D01*
X88125232Y-58139757D01*
X88159601Y-58149988D01*
X88182955Y-58156941D01*
X88187792Y-58158490D01*
X88237340Y-58175500D01*
X88244797Y-58178060D01*
X88245030Y-58178093D01*
X88252909Y-58177767D01*
X88252912Y-58177768D01*
X88305193Y-58175605D01*
X88310316Y-58175500D01*
X90048195Y-58175500D01*
X90073641Y-58178139D01*
X90077440Y-58178935D01*
X90084268Y-58180367D01*
X90114138Y-58176643D01*
X90115677Y-58176452D01*
X90131014Y-58175500D01*
X90131111Y-58175500D01*
X90131114Y-58175500D01*
X90151643Y-58172073D01*
X90156659Y-58171342D01*
X90208626Y-58164866D01*
X90208628Y-58164864D01*
X90216457Y-58163889D01*
X90216666Y-58163822D01*
X90223607Y-58160065D01*
X90223610Y-58160065D01*
X90269666Y-58135140D01*
X90274144Y-58132835D01*
X90321211Y-58109826D01*
X90321212Y-58109824D01*
X90328308Y-58106356D01*
X90328476Y-58106230D01*
X90333824Y-58100419D01*
X90333826Y-58100419D01*
X90369294Y-58061889D01*
X90372795Y-58058240D01*
X92244217Y-56186819D01*
X92305540Y-56153334D01*
X92331898Y-56150500D01*
X92478985Y-56150500D01*
X92632365Y-56112696D01*
X92772240Y-56039283D01*
X92890483Y-55934530D01*
X92980220Y-55804523D01*
X93036237Y-55656818D01*
X93055278Y-55500000D01*
X93036237Y-55343182D01*
X92980220Y-55195477D01*
X92890483Y-55065470D01*
X92772240Y-54960717D01*
X92758994Y-54953764D01*
X92632364Y-54887303D01*
X92478985Y-54849500D01*
X92321015Y-54849500D01*
X92167635Y-54887303D01*
X92027761Y-54960716D01*
X91909515Y-55065471D01*
X91819780Y-55195476D01*
X91763763Y-55343181D01*
X91744721Y-55500000D01*
X91750896Y-55550853D01*
X91739435Y-55619777D01*
X91715481Y-55653480D01*
X91387181Y-55981781D01*
X91325858Y-56015266D01*
X91256167Y-56010282D01*
X91200233Y-55968411D01*
X91175816Y-55902946D01*
X91175500Y-55894100D01*
X91175500Y-53992202D01*
X91195185Y-53925163D01*
X91217269Y-53899390D01*
X91290483Y-53834530D01*
X91380220Y-53704523D01*
X91436237Y-53556818D01*
X91455278Y-53400000D01*
X91436237Y-53243182D01*
X91380220Y-53095477D01*
X91315487Y-53001695D01*
X91290484Y-52965471D01*
X91272018Y-52949112D01*
X91208471Y-52892814D01*
X91171345Y-52833626D01*
X91172113Y-52763761D01*
X91208471Y-52707185D01*
X91290483Y-52634530D01*
X91380220Y-52504523D01*
X91436237Y-52356818D01*
X91455278Y-52200000D01*
X91436237Y-52043182D01*
X91380220Y-51895477D01*
X91290483Y-51765470D01*
X91172240Y-51660717D01*
X91158994Y-51653764D01*
X91032364Y-51587303D01*
X90878985Y-51549500D01*
X90721015Y-51549500D01*
X90567635Y-51587303D01*
X90427761Y-51660716D01*
X90309515Y-51765471D01*
X90219780Y-51895476D01*
X90163763Y-52043181D01*
X90144721Y-52200000D01*
X90150896Y-52250853D01*
X90139435Y-52319777D01*
X90115481Y-52353480D01*
X89846108Y-52622852D01*
X89826254Y-52638976D01*
X89817165Y-52644914D01*
X89797722Y-52669894D01*
X89787563Y-52681398D01*
X89787484Y-52681476D01*
X89787479Y-52681482D01*
X89787480Y-52681482D01*
X89775390Y-52698414D01*
X89772341Y-52702504D01*
X89735354Y-52750024D01*
X89735237Y-52750253D01*
X89718057Y-52807955D01*
X89716495Y-52812831D01*
X89696941Y-52869792D01*
X89696906Y-52870034D01*
X89699394Y-52930191D01*
X89699500Y-52935315D01*
X89699500Y-55318100D01*
X89679815Y-55385139D01*
X89663185Y-55405776D01*
X89613627Y-55455335D01*
X89576132Y-55492830D01*
X89514808Y-55526314D01*
X89445117Y-55521330D01*
X89433606Y-55516360D01*
X89325514Y-55463054D01*
X89226072Y-55456537D01*
X89226071Y-55456537D01*
X89155526Y-55480483D01*
X88463271Y-55880156D01*
X88431736Y-55907812D01*
X88389837Y-55932002D01*
X88350125Y-55945482D01*
X87874374Y-56220156D01*
X87842839Y-56247812D01*
X87800940Y-56272002D01*
X87761228Y-56285482D01*
X87068972Y-56685156D01*
X87012962Y-56734276D01*
X86968885Y-56823655D01*
X86962368Y-56923097D01*
X85267800Y-56923097D01*
X85160267Y-56736845D01*
X85158494Y-56734277D01*
X84882376Y-56334250D01*
X84880959Y-56332197D01*
X84569996Y-55951336D01*
X84229395Y-55596733D01*
X84191477Y-55563141D01*
X83863240Y-55272348D01*
X83863238Y-55272346D01*
X83861365Y-55270687D01*
X83859379Y-55269194D01*
X83859366Y-55269184D01*
X83470293Y-54976815D01*
X83470282Y-54976807D01*
X83468292Y-54975312D01*
X83466178Y-54973975D01*
X83466172Y-54973971D01*
X83060878Y-54717678D01*
X83052726Y-54712523D01*
X83050535Y-54711373D01*
X83050528Y-54711369D01*
X82619575Y-54485188D01*
X82619565Y-54485183D01*
X82617362Y-54484027D01*
X82615058Y-54483045D01*
X82615051Y-54483042D01*
X82167319Y-54292281D01*
X82167313Y-54292279D01*
X82165023Y-54291303D01*
X81911863Y-54206786D01*
X81700993Y-54136387D01*
X81700980Y-54136383D01*
X81698643Y-54135603D01*
X81532832Y-54094734D01*
X81223667Y-54018531D01*
X81223655Y-54018528D01*
X81221247Y-54017935D01*
X81218786Y-54017535D01*
X81218781Y-54017534D01*
X80738391Y-53939463D01*
X80738371Y-53939460D01*
X80735931Y-53939064D01*
X80733470Y-53938865D01*
X80733451Y-53938863D01*
X80248317Y-53899699D01*
X80248297Y-53899698D01*
X80245842Y-53899500D01*
X79754158Y-53899500D01*
X79751703Y-53899698D01*
X79751682Y-53899699D01*
X79266548Y-53938863D01*
X79266526Y-53938865D01*
X79264069Y-53939064D01*
X79261631Y-53939460D01*
X79261608Y-53939463D01*
X78781218Y-54017534D01*
X78781208Y-54017535D01*
X78778753Y-54017935D01*
X78776349Y-54018527D01*
X78776332Y-54018531D01*
X78303766Y-54135009D01*
X78303760Y-54135010D01*
X78301357Y-54135603D01*
X78299025Y-54136381D01*
X78299006Y-54136387D01*
X77837334Y-54290516D01*
X77834977Y-54291303D01*
X77832694Y-54292275D01*
X77832680Y-54292281D01*
X77384948Y-54483042D01*
X77384931Y-54483049D01*
X77382638Y-54484027D01*
X77380443Y-54485178D01*
X77380424Y-54485188D01*
X76949471Y-54711369D01*
X76949453Y-54711379D01*
X76947274Y-54712523D01*
X76945174Y-54713850D01*
X76945167Y-54713855D01*
X76533827Y-54973971D01*
X76533809Y-54973983D01*
X76531708Y-54975312D01*
X76529728Y-54976799D01*
X76529706Y-54976815D01*
X76140633Y-55269184D01*
X76140608Y-55269204D01*
X76138635Y-55270687D01*
X76136773Y-55272336D01*
X76136759Y-55272348D01*
X75772482Y-55595069D01*
X75772466Y-55595083D01*
X75770605Y-55596733D01*
X75768874Y-55598534D01*
X75768871Y-55598538D01*
X75431730Y-55949538D01*
X75431718Y-55949551D01*
X75430004Y-55951336D01*
X75428433Y-55953259D01*
X75428426Y-55953268D01*
X75120620Y-56330262D01*
X75120609Y-56330275D01*
X75119041Y-56332197D01*
X75117634Y-56334235D01*
X75117623Y-56334250D01*
X74841151Y-56734789D01*
X74841138Y-56734808D01*
X74839733Y-56736845D01*
X74838490Y-56738997D01*
X74838483Y-56739009D01*
X74595142Y-57160487D01*
X74595135Y-57160500D01*
X74593891Y-57162655D01*
X74592829Y-57164891D01*
X74592819Y-57164912D01*
X74384176Y-57604618D01*
X74384165Y-57604641D01*
X74383110Y-57606867D01*
X74382232Y-57609180D01*
X74382226Y-57609196D01*
X74209638Y-58064272D01*
X74209634Y-58064283D01*
X74208756Y-58066599D01*
X74208064Y-58068987D01*
X74208063Y-58068991D01*
X74072654Y-58536474D01*
X74072648Y-58536497D01*
X74071961Y-58538870D01*
X74071464Y-58541301D01*
X74071462Y-58541312D01*
X73974112Y-59018163D01*
X73974108Y-59018186D01*
X73973612Y-59020617D01*
X73973312Y-59023083D01*
X73973310Y-59023099D01*
X73914645Y-59506246D01*
X73914643Y-59506265D01*
X73914346Y-59508715D01*
X73914246Y-59511190D01*
X73914245Y-59511206D01*
X73894649Y-59997493D01*
X73894548Y-60000000D01*
X72475500Y-60000000D01*
X72475500Y-57912655D01*
X72495185Y-57845616D01*
X72510820Y-57831656D01*
X72508629Y-57829734D01*
X72551267Y-57781114D01*
X72574012Y-57755179D01*
X73013686Y-56993641D01*
X73037632Y-56923097D01*
X73031115Y-56823655D01*
X72987038Y-56734277D01*
X72931028Y-56685157D01*
X72931027Y-56685156D01*
X72238771Y-56285482D01*
X72199057Y-56272001D01*
X72157157Y-56247810D01*
X72125625Y-56220157D01*
X71649874Y-55945482D01*
X71610160Y-55932001D01*
X71568260Y-55907810D01*
X71536728Y-55880157D01*
X70844473Y-55480483D01*
X70773928Y-55456537D01*
X70674486Y-55463054D01*
X70585107Y-55507131D01*
X70535987Y-55563141D01*
X70096314Y-56324677D01*
X70093065Y-56334250D01*
X70072368Y-56395223D01*
X70075491Y-56442868D01*
X70078885Y-56494664D01*
X70122962Y-56584043D01*
X70182260Y-56636047D01*
X70219683Y-56695049D01*
X70224500Y-56729274D01*
X70224500Y-63270726D01*
X70204815Y-63337765D01*
X70182260Y-63363953D01*
X70122962Y-63415956D01*
X70078885Y-63505335D01*
X70072368Y-63604777D01*
X66000500Y-63604777D01*
X66000500Y-55026903D01*
X70862368Y-55026903D01*
X70868885Y-55126345D01*
X70912962Y-55215723D01*
X70968972Y-55264843D01*
X71661228Y-55664517D01*
X71700940Y-55677997D01*
X71742840Y-55702187D01*
X71774375Y-55729843D01*
X72250125Y-56004517D01*
X72289837Y-56017997D01*
X72331737Y-56042187D01*
X72363272Y-56069843D01*
X72912358Y-56386858D01*
X73009370Y-56442868D01*
X73055528Y-56469517D01*
X73126072Y-56493463D01*
X73225514Y-56486946D01*
X73314892Y-56442869D01*
X73364012Y-56386859D01*
X73803686Y-55625321D01*
X73827632Y-55554777D01*
X73824178Y-55502082D01*
X73839435Y-55433902D01*
X73860227Y-55406298D01*
X77049707Y-52216819D01*
X77111031Y-52183334D01*
X77137389Y-52180500D01*
X78437928Y-52180500D01*
X78504967Y-52200185D01*
X78550722Y-52252989D01*
X78558417Y-52276815D01*
X78559033Y-52277737D01*
X78559034Y-52277740D01*
X78614399Y-52360601D01*
X78697260Y-52415966D01*
X78733792Y-52423232D01*
X78770325Y-52430500D01*
X78770326Y-52430500D01*
X79649675Y-52430500D01*
X79674029Y-52425655D01*
X79722740Y-52415966D01*
X79805601Y-52360601D01*
X79860966Y-52277740D01*
X79875500Y-52204674D01*
X80124500Y-52204674D01*
X80139033Y-52277738D01*
X80139033Y-52277739D01*
X80139034Y-52277740D01*
X80194399Y-52360601D01*
X80277260Y-52415966D01*
X80313792Y-52423232D01*
X80350325Y-52430500D01*
X80350326Y-52430500D01*
X81229675Y-52430500D01*
X81254029Y-52425655D01*
X81302740Y-52415966D01*
X81385601Y-52360601D01*
X81440966Y-52277740D01*
X81440966Y-52277735D01*
X81444801Y-52271997D01*
X81472840Y-52218397D01*
X81533556Y-52183823D01*
X81562072Y-52180500D01*
X82862611Y-52180500D01*
X82929650Y-52200185D01*
X82950292Y-52216819D01*
X86139767Y-55406294D01*
X86173252Y-55467617D01*
X86175821Y-55502082D01*
X86172368Y-55554776D01*
X86196314Y-55625322D01*
X86605614Y-56334250D01*
X86635988Y-56386859D01*
X86685108Y-56442869D01*
X86774486Y-56486946D01*
X86873928Y-56493463D01*
X86944472Y-56469517D01*
X87636728Y-56069843D01*
X87668260Y-56042188D01*
X87710159Y-56017997D01*
X87749875Y-56004517D01*
X88225625Y-55729843D01*
X88257157Y-55702188D01*
X88299056Y-55677997D01*
X88338772Y-55664517D01*
X89031028Y-55264843D01*
X89087038Y-55215723D01*
X89131115Y-55126345D01*
X89137632Y-55026903D01*
X89113686Y-54956359D01*
X88888765Y-54566785D01*
X88674012Y-54194821D01*
X88624892Y-54138811D01*
X88617182Y-54135009D01*
X88535514Y-54094734D01*
X88436072Y-54088217D01*
X88436071Y-54088217D01*
X88365527Y-54112163D01*
X88284033Y-54159213D01*
X88216133Y-54175684D01*
X88150106Y-54152832D01*
X88134353Y-54139506D01*
X83960959Y-49966111D01*
X83944832Y-49946253D01*
X83938893Y-49937162D01*
X83913920Y-49917725D01*
X83902403Y-49907554D01*
X83902329Y-49907480D01*
X83885404Y-49895397D01*
X83881290Y-49892330D01*
X83839999Y-49860191D01*
X83839996Y-49860190D01*
X83833773Y-49855346D01*
X83833571Y-49855242D01*
X83826010Y-49852990D01*
X83826009Y-49852990D01*
X83775846Y-49838055D01*
X83770984Y-49836497D01*
X83752447Y-49830134D01*
X83714012Y-49816939D01*
X83713779Y-49816906D01*
X83674075Y-49818548D01*
X83653616Y-49819394D01*
X83648494Y-49819500D01*
X81562072Y-49819500D01*
X81495033Y-49799815D01*
X81449278Y-49747011D01*
X81441582Y-49723184D01*
X81440966Y-49722262D01*
X81440966Y-49722260D01*
X81385601Y-49639399D01*
X81302740Y-49584034D01*
X81302739Y-49584033D01*
X81302738Y-49584033D01*
X81229675Y-49569500D01*
X81229674Y-49569500D01*
X80350326Y-49569500D01*
X80350325Y-49569500D01*
X80277261Y-49584033D01*
X80194399Y-49639399D01*
X80139033Y-49722261D01*
X80124500Y-49795325D01*
X80124500Y-50594674D01*
X80132682Y-50635808D01*
X80132682Y-50684192D01*
X80124500Y-50725325D01*
X80124500Y-51274674D01*
X80132682Y-51315808D01*
X80132682Y-51364192D01*
X80124500Y-51405325D01*
X80124500Y-52204674D01*
X79875500Y-52204674D01*
X79875500Y-51405326D01*
X79867317Y-51364189D01*
X79867317Y-51315808D01*
X79875500Y-51274674D01*
X79875500Y-50725326D01*
X79867317Y-50684189D01*
X79867317Y-50635808D01*
X79875500Y-50594674D01*
X79875500Y-49795326D01*
X79860966Y-49722260D01*
X79805601Y-49639399D01*
X79722740Y-49584034D01*
X79722739Y-49584033D01*
X79722738Y-49584033D01*
X79649675Y-49569500D01*
X79649674Y-49569500D01*
X78770326Y-49569500D01*
X78770325Y-49569500D01*
X78697261Y-49584033D01*
X78697259Y-49584034D01*
X78697260Y-49584034D01*
X78614399Y-49639399D01*
X78559034Y-49722260D01*
X78559033Y-49722261D01*
X78555198Y-49728002D01*
X78527160Y-49781603D01*
X78466444Y-49816177D01*
X78437928Y-49819500D01*
X76392995Y-49819500D01*
X76367549Y-49816861D01*
X76356923Y-49814633D01*
X76356922Y-49814633D01*
X76339048Y-49816861D01*
X76325513Y-49818548D01*
X76310176Y-49819500D01*
X76310074Y-49819500D01*
X76289589Y-49822918D01*
X76284522Y-49823657D01*
X76224757Y-49831107D01*
X76224502Y-49831189D01*
X76171560Y-49859838D01*
X76167010Y-49862180D01*
X76112905Y-49888632D01*
X76112695Y-49888788D01*
X76071908Y-49933094D01*
X76068361Y-49936790D01*
X71865645Y-54139505D01*
X71804322Y-54172990D01*
X71734630Y-54168006D01*
X71715965Y-54159212D01*
X71634472Y-54112163D01*
X71563928Y-54088217D01*
X71464486Y-54094734D01*
X71375107Y-54138811D01*
X71325987Y-54194821D01*
X70886314Y-54956357D01*
X70867499Y-55011786D01*
X70862368Y-55026903D01*
X66000500Y-55026903D01*
X66000500Y-47005412D01*
X66000972Y-46994605D01*
X66004476Y-46954554D01*
X66016919Y-46828215D01*
X66020539Y-46808322D01*
X66037908Y-46743498D01*
X66038956Y-46739828D01*
X66066685Y-46648419D01*
X66072948Y-46632049D01*
X66103700Y-46566102D01*
X66106670Y-46560161D01*
X66149012Y-46480944D01*
X66156786Y-46468289D01*
X66199639Y-46407089D01*
X66205330Y-46399587D01*
X66261191Y-46331521D01*
X66269325Y-46322547D01*
X66322547Y-46269325D01*
X66331521Y-46261191D01*
X66399587Y-46205330D01*
X66407089Y-46199639D01*
X66468289Y-46156786D01*
X66480944Y-46149012D01*
X66560161Y-46106670D01*
X66566102Y-46103700D01*
X66632049Y-46072948D01*
X66648419Y-46066685D01*
X66739828Y-46038956D01*
X66743498Y-46037908D01*
X66808318Y-46020540D01*
X66828221Y-46016918D01*
X66954471Y-46004483D01*
X66994640Y-46000968D01*
X67005402Y-46000500D01*
X100994587Y-46000500D01*
X101005394Y-46000971D01*
G37*
G04 #@! TD.AperFunction*
G04 #@! TA.AperFunction,Conductor*
G36*
X91028345Y-60647704D02*
G01*
X91094996Y-60668649D01*
X91139746Y-60722307D01*
X91150000Y-60771681D01*
X91150000Y-65493852D01*
X91145771Y-65508253D01*
X91145455Y-65550000D01*
X88821340Y-65550000D01*
X89113686Y-65043641D01*
X89137632Y-64973097D01*
X89131115Y-64873655D01*
X89087038Y-64784277D01*
X89031028Y-64735157D01*
X89031027Y-64735156D01*
X88338771Y-64335482D01*
X88299057Y-64322001D01*
X88257157Y-64297810D01*
X88225625Y-64270157D01*
X87749874Y-63995482D01*
X87710160Y-63982001D01*
X87705390Y-63979247D01*
X88220753Y-63979247D01*
X88350329Y-64054058D01*
X88390091Y-64067555D01*
X88431994Y-64091748D01*
X88463565Y-64119435D01*
X89155733Y-64519058D01*
X89226139Y-64542958D01*
X89325381Y-64536453D01*
X89414582Y-64492463D01*
X89463606Y-64436563D01*
X89620915Y-64164092D01*
X89620915Y-64164091D01*
X89187903Y-63914093D01*
X88812902Y-63697586D01*
X89312902Y-63697586D01*
X89745915Y-63947585D01*
X89745916Y-63947585D01*
X89903227Y-63675115D01*
X89927127Y-63604709D01*
X89920622Y-63505467D01*
X89876633Y-63416267D01*
X89820734Y-63367245D01*
X89582902Y-63229932D01*
X89582901Y-63229932D01*
X89312902Y-63697585D01*
X89312902Y-63697586D01*
X88812902Y-63697586D01*
X88490752Y-63511593D01*
X88490751Y-63511593D01*
X88220753Y-63979246D01*
X88220753Y-63979247D01*
X87705390Y-63979247D01*
X87668260Y-63957810D01*
X87636728Y-63930157D01*
X86944473Y-63530483D01*
X86909200Y-63518510D01*
X86873928Y-63506537D01*
X86873927Y-63506537D01*
X86820263Y-63510054D01*
X86752080Y-63494795D01*
X86750450Y-63493875D01*
X86599259Y-63407021D01*
X86550936Y-63356559D01*
X86537564Y-63287981D01*
X86548921Y-63246513D01*
X86629069Y-63076969D01*
X86962872Y-63076969D01*
X86969377Y-63176212D01*
X87013366Y-63265412D01*
X87069265Y-63314434D01*
X87761435Y-63714059D01*
X87801196Y-63727556D01*
X87843097Y-63751747D01*
X87874669Y-63779435D01*
X88004246Y-63854246D01*
X88004247Y-63854246D01*
X88274246Y-63386592D01*
X88274246Y-63386591D01*
X88113894Y-63294012D01*
X88613889Y-63294012D01*
X89096395Y-63572586D01*
X89096396Y-63572586D01*
X89366395Y-63104932D01*
X89366395Y-63104931D01*
X89128567Y-62967622D01*
X89088799Y-62954122D01*
X89046902Y-62929932D01*
X89015329Y-62902244D01*
X88885752Y-62827432D01*
X88885751Y-62827432D01*
X88651547Y-63233087D01*
X88622322Y-63260952D01*
X88622706Y-63268995D01*
X88621976Y-63271854D01*
X88619977Y-63279315D01*
X88613889Y-63294012D01*
X88113894Y-63294012D01*
X87793603Y-63109093D01*
X87418601Y-62892586D01*
X87918602Y-62892586D01*
X88399246Y-63170085D01*
X88404281Y-63168736D01*
X88419259Y-63154453D01*
X88419114Y-63153440D01*
X88434465Y-63109087D01*
X88669245Y-62702432D01*
X88669245Y-62702431D01*
X88539671Y-62627622D01*
X88499903Y-62614122D01*
X88458005Y-62589931D01*
X88426434Y-62562244D01*
X88188602Y-62424932D01*
X88188601Y-62424932D01*
X87918602Y-62892585D01*
X87918602Y-62892586D01*
X87418601Y-62892586D01*
X87144083Y-62734093D01*
X87144082Y-62734093D01*
X86986771Y-63006566D01*
X86962872Y-63076969D01*
X86629069Y-63076969D01*
X86893504Y-62517587D01*
X87269083Y-62517587D01*
X87702095Y-62767586D01*
X87702096Y-62767586D01*
X87972095Y-62299932D01*
X87972095Y-62299931D01*
X87734264Y-62162620D01*
X87663861Y-62138721D01*
X87564618Y-62145226D01*
X87475418Y-62189215D01*
X87426396Y-62245114D01*
X87269083Y-62517586D01*
X87269083Y-62517587D01*
X86893504Y-62517587D01*
X87766434Y-60671005D01*
X87812882Y-60618809D01*
X87878539Y-60600000D01*
X88500000Y-60600000D01*
X91028345Y-60647704D01*
G37*
G04 #@! TD.AperFunction*
G04 #@! TA.AperFunction,Conductor*
G36*
X101941414Y-54720315D02*
G01*
X101987734Y-54772624D01*
X101999500Y-54825345D01*
X101999500Y-72994583D01*
X101999028Y-73005393D01*
X101995523Y-73045445D01*
X101983082Y-73171764D01*
X101979455Y-73191696D01*
X101962123Y-73256382D01*
X101961008Y-73260285D01*
X101933319Y-73351562D01*
X101927041Y-73367971D01*
X101896328Y-73433835D01*
X101893304Y-73439884D01*
X101850990Y-73519046D01*
X101843207Y-73531715D01*
X101800373Y-73592889D01*
X101794652Y-73600430D01*
X101738826Y-73668455D01*
X101730653Y-73677472D01*
X101677472Y-73730653D01*
X101668455Y-73738826D01*
X101600430Y-73794652D01*
X101592889Y-73800373D01*
X101531715Y-73843207D01*
X101519046Y-73850990D01*
X101439884Y-73893304D01*
X101433835Y-73896328D01*
X101367971Y-73927041D01*
X101351562Y-73933319D01*
X101260285Y-73961008D01*
X101256382Y-73962123D01*
X101191700Y-73979454D01*
X101171761Y-73983082D01*
X101045445Y-73995523D01*
X101026131Y-73997213D01*
X101005360Y-73999031D01*
X100994594Y-73999500D01*
X97474000Y-73999500D01*
X97406961Y-73979815D01*
X97361206Y-73927011D01*
X97350000Y-73875500D01*
X97350000Y-54872673D01*
X97369685Y-54805634D01*
X97422489Y-54759879D01*
X97472662Y-54748681D01*
X101874170Y-54701353D01*
X101941414Y-54720315D01*
G37*
G04 #@! TD.AperFunction*
G04 #@! TA.AperFunction,Conductor*
G36*
X91145771Y-65508252D02*
G01*
X91145771Y-65508253D01*
X91100932Y-71426939D01*
X91080741Y-71493828D01*
X91027591Y-71539181D01*
X90976936Y-71550000D01*
X82574000Y-71550000D01*
X82506961Y-71530315D01*
X82461206Y-71477511D01*
X82450000Y-71426000D01*
X82450000Y-70574000D01*
X82469685Y-70506961D01*
X82522489Y-70461206D01*
X82574000Y-70450000D01*
X88649999Y-70450000D01*
X88650000Y-70450000D01*
X88692220Y-65805742D01*
X88708825Y-65744879D01*
X89113686Y-65043641D01*
X89137632Y-64973097D01*
X89136118Y-64950000D01*
X91150000Y-64950000D01*
X91145771Y-65508252D01*
G37*
G04 #@! TD.AperFunction*
M02*
