G04 #@! TF.GenerationSoftware,KiCad,Pcbnew,7.0.5.1-1-g8f565ef7f0-dirty-deb11*
G04 #@! TF.CreationDate,2023-06-03T19:15:57+00:00*
G04 #@! TF.ProjectId,pedalboard-led-ring,70656461-6c62-46f6-9172-642d6c65642d,1.0.0*
G04 #@! TF.SameCoordinates,Original*
G04 #@! TF.FileFunction,Legend,Bot*
G04 #@! TF.FilePolarity,Positive*
%FSLAX46Y46*%
G04 Gerber Fmt 4.6, Leading zero omitted, Abs format (unit mm)*
G04 Created by KiCad (PCBNEW 7.0.5.1-1-g8f565ef7f0-dirty-deb11) date 2023-06-03 19:15:57*
%MOMM*%
%LPD*%
G01*
G04 APERTURE LIST*
%ADD10C,0.100000*%
%ADD11C,0.120000*%
G04 APERTURE END LIST*
D10*
X87050000Y-60000000D02*
G75*
G03*
X87050000Y-60000000I-7050000J0D01*
G01*
X88299133Y-56262455D02*
X87599133Y-56262455D01*
X87599133Y-56262455D02*
X87599133Y-56429122D01*
X87599133Y-56429122D02*
X87632466Y-56529122D01*
X87632466Y-56529122D02*
X87699133Y-56595789D01*
X87699133Y-56595789D02*
X87765800Y-56629122D01*
X87765800Y-56629122D02*
X87899133Y-56662455D01*
X87899133Y-56662455D02*
X87999133Y-56662455D01*
X87999133Y-56662455D02*
X88132466Y-56629122D01*
X88132466Y-56629122D02*
X88199133Y-56595789D01*
X88199133Y-56595789D02*
X88265800Y-56529122D01*
X88265800Y-56529122D02*
X88299133Y-56429122D01*
X88299133Y-56429122D02*
X88299133Y-56262455D01*
X88299133Y-56962455D02*
X87599133Y-56962455D01*
X88151371Y-63068646D02*
X87551371Y-63068646D01*
X87551371Y-63068646D02*
X87551371Y-63211503D01*
X87551371Y-63211503D02*
X87579942Y-63297217D01*
X87579942Y-63297217D02*
X87637085Y-63354360D01*
X87637085Y-63354360D02*
X87694228Y-63382931D01*
X87694228Y-63382931D02*
X87808514Y-63411503D01*
X87808514Y-63411503D02*
X87894228Y-63411503D01*
X87894228Y-63411503D02*
X88008514Y-63382931D01*
X88008514Y-63382931D02*
X88065657Y-63354360D01*
X88065657Y-63354360D02*
X88122800Y-63297217D01*
X88122800Y-63297217D02*
X88151371Y-63211503D01*
X88151371Y-63211503D02*
X88151371Y-63068646D01*
X87551371Y-63782931D02*
X87551371Y-63840074D01*
X87551371Y-63840074D02*
X87579942Y-63897217D01*
X87579942Y-63897217D02*
X87608514Y-63925789D01*
X87608514Y-63925789D02*
X87665657Y-63954360D01*
X87665657Y-63954360D02*
X87779942Y-63982931D01*
X87779942Y-63982931D02*
X87922800Y-63982931D01*
X87922800Y-63982931D02*
X88037085Y-63954360D01*
X88037085Y-63954360D02*
X88094228Y-63925789D01*
X88094228Y-63925789D02*
X88122800Y-63897217D01*
X88122800Y-63897217D02*
X88151371Y-63840074D01*
X88151371Y-63840074D02*
X88151371Y-63782931D01*
X88151371Y-63782931D02*
X88122800Y-63725789D01*
X88122800Y-63725789D02*
X88094228Y-63697217D01*
X88094228Y-63697217D02*
X88037085Y-63668646D01*
X88037085Y-63668646D02*
X87922800Y-63640074D01*
X87922800Y-63640074D02*
X87779942Y-63640074D01*
X87779942Y-63640074D02*
X87665657Y-63668646D01*
X87665657Y-63668646D02*
X87608514Y-63697217D01*
X87608514Y-63697217D02*
X87579942Y-63725789D01*
X87579942Y-63725789D02*
X87551371Y-63782931D01*
X91017068Y-70121371D02*
X90817068Y-70721371D01*
X90817068Y-70721371D02*
X90617068Y-70121371D01*
X90074210Y-70664228D02*
X90102782Y-70692800D01*
X90102782Y-70692800D02*
X90188496Y-70721371D01*
X90188496Y-70721371D02*
X90245639Y-70721371D01*
X90245639Y-70721371D02*
X90331353Y-70692800D01*
X90331353Y-70692800D02*
X90388496Y-70635657D01*
X90388496Y-70635657D02*
X90417067Y-70578514D01*
X90417067Y-70578514D02*
X90445639Y-70464228D01*
X90445639Y-70464228D02*
X90445639Y-70378514D01*
X90445639Y-70378514D02*
X90417067Y-70264228D01*
X90417067Y-70264228D02*
X90388496Y-70207085D01*
X90388496Y-70207085D02*
X90331353Y-70149942D01*
X90331353Y-70149942D02*
X90245639Y-70121371D01*
X90245639Y-70121371D02*
X90188496Y-70121371D01*
X90188496Y-70121371D02*
X90102782Y-70149942D01*
X90102782Y-70149942D02*
X90074210Y-70178514D01*
X89474210Y-70664228D02*
X89502782Y-70692800D01*
X89502782Y-70692800D02*
X89588496Y-70721371D01*
X89588496Y-70721371D02*
X89645639Y-70721371D01*
X89645639Y-70721371D02*
X89731353Y-70692800D01*
X89731353Y-70692800D02*
X89788496Y-70635657D01*
X89788496Y-70635657D02*
X89817067Y-70578514D01*
X89817067Y-70578514D02*
X89845639Y-70464228D01*
X89845639Y-70464228D02*
X89845639Y-70378514D01*
X89845639Y-70378514D02*
X89817067Y-70264228D01*
X89817067Y-70264228D02*
X89788496Y-70207085D01*
X89788496Y-70207085D02*
X89731353Y-70149942D01*
X89731353Y-70149942D02*
X89645639Y-70121371D01*
X89645639Y-70121371D02*
X89588496Y-70121371D01*
X89588496Y-70121371D02*
X89502782Y-70149942D01*
X89502782Y-70149942D02*
X89474210Y-70178514D01*
X89729942Y-63212931D02*
X89701371Y-63155789D01*
X89701371Y-63155789D02*
X89701371Y-63070074D01*
X89701371Y-63070074D02*
X89729942Y-62984360D01*
X89729942Y-62984360D02*
X89787085Y-62927217D01*
X89787085Y-62927217D02*
X89844228Y-62898646D01*
X89844228Y-62898646D02*
X89958514Y-62870074D01*
X89958514Y-62870074D02*
X90044228Y-62870074D01*
X90044228Y-62870074D02*
X90158514Y-62898646D01*
X90158514Y-62898646D02*
X90215657Y-62927217D01*
X90215657Y-62927217D02*
X90272800Y-62984360D01*
X90272800Y-62984360D02*
X90301371Y-63070074D01*
X90301371Y-63070074D02*
X90301371Y-63127217D01*
X90301371Y-63127217D02*
X90272800Y-63212931D01*
X90272800Y-63212931D02*
X90244228Y-63241503D01*
X90244228Y-63241503D02*
X90044228Y-63241503D01*
X90044228Y-63241503D02*
X90044228Y-63127217D01*
X90301371Y-63498646D02*
X89701371Y-63498646D01*
X89701371Y-63498646D02*
X90301371Y-63841503D01*
X90301371Y-63841503D02*
X89701371Y-63841503D01*
X90301371Y-64127217D02*
X89701371Y-64127217D01*
X89701371Y-64127217D02*
X89701371Y-64270074D01*
X89701371Y-64270074D02*
X89729942Y-64355788D01*
X89729942Y-64355788D02*
X89787085Y-64412931D01*
X89787085Y-64412931D02*
X89844228Y-64441502D01*
X89844228Y-64441502D02*
X89958514Y-64470074D01*
X89958514Y-64470074D02*
X90044228Y-64470074D01*
X90044228Y-64470074D02*
X90158514Y-64441502D01*
X90158514Y-64441502D02*
X90215657Y-64412931D01*
X90215657Y-64412931D02*
X90272800Y-64355788D01*
X90272800Y-64355788D02*
X90301371Y-64270074D01*
X90301371Y-64270074D02*
X90301371Y-64127217D01*
X81687068Y-68739942D02*
X81744211Y-68711371D01*
X81744211Y-68711371D02*
X81829925Y-68711371D01*
X81829925Y-68711371D02*
X81915639Y-68739942D01*
X81915639Y-68739942D02*
X81972782Y-68797085D01*
X81972782Y-68797085D02*
X82001353Y-68854228D01*
X82001353Y-68854228D02*
X82029925Y-68968514D01*
X82029925Y-68968514D02*
X82029925Y-69054228D01*
X82029925Y-69054228D02*
X82001353Y-69168514D01*
X82001353Y-69168514D02*
X81972782Y-69225657D01*
X81972782Y-69225657D02*
X81915639Y-69282800D01*
X81915639Y-69282800D02*
X81829925Y-69311371D01*
X81829925Y-69311371D02*
X81772782Y-69311371D01*
X81772782Y-69311371D02*
X81687068Y-69282800D01*
X81687068Y-69282800D02*
X81658496Y-69254228D01*
X81658496Y-69254228D02*
X81658496Y-69054228D01*
X81658496Y-69054228D02*
X81772782Y-69054228D01*
X81401353Y-69311371D02*
X81401353Y-68711371D01*
X81401353Y-68711371D02*
X81058496Y-69311371D01*
X81058496Y-69311371D02*
X81058496Y-68711371D01*
X80772782Y-69311371D02*
X80772782Y-68711371D01*
X80772782Y-68711371D02*
X80629925Y-68711371D01*
X80629925Y-68711371D02*
X80544211Y-68739942D01*
X80544211Y-68739942D02*
X80487068Y-68797085D01*
X80487068Y-68797085D02*
X80458497Y-68854228D01*
X80458497Y-68854228D02*
X80429925Y-68968514D01*
X80429925Y-68968514D02*
X80429925Y-69054228D01*
X80429925Y-69054228D02*
X80458497Y-69168514D01*
X80458497Y-69168514D02*
X80487068Y-69225657D01*
X80487068Y-69225657D02*
X80544211Y-69282800D01*
X80544211Y-69282800D02*
X80629925Y-69311371D01*
X80629925Y-69311371D02*
X80772782Y-69311371D01*
X90481353Y-68311371D02*
X90481353Y-67711371D01*
X90481353Y-67711371D02*
X90338496Y-67711371D01*
X90338496Y-67711371D02*
X90252782Y-67739942D01*
X90252782Y-67739942D02*
X90195639Y-67797085D01*
X90195639Y-67797085D02*
X90167068Y-67854228D01*
X90167068Y-67854228D02*
X90138496Y-67968514D01*
X90138496Y-67968514D02*
X90138496Y-68054228D01*
X90138496Y-68054228D02*
X90167068Y-68168514D01*
X90167068Y-68168514D02*
X90195639Y-68225657D01*
X90195639Y-68225657D02*
X90252782Y-68282800D01*
X90252782Y-68282800D02*
X90338496Y-68311371D01*
X90338496Y-68311371D02*
X90481353Y-68311371D01*
X89881353Y-68311371D02*
X89881353Y-67711371D01*
X89701371Y-55842931D02*
X90301371Y-56042931D01*
X90301371Y-56042931D02*
X89701371Y-56242931D01*
X90244228Y-56785789D02*
X90272800Y-56757217D01*
X90272800Y-56757217D02*
X90301371Y-56671503D01*
X90301371Y-56671503D02*
X90301371Y-56614360D01*
X90301371Y-56614360D02*
X90272800Y-56528646D01*
X90272800Y-56528646D02*
X90215657Y-56471503D01*
X90215657Y-56471503D02*
X90158514Y-56442932D01*
X90158514Y-56442932D02*
X90044228Y-56414360D01*
X90044228Y-56414360D02*
X89958514Y-56414360D01*
X89958514Y-56414360D02*
X89844228Y-56442932D01*
X89844228Y-56442932D02*
X89787085Y-56471503D01*
X89787085Y-56471503D02*
X89729942Y-56528646D01*
X89729942Y-56528646D02*
X89701371Y-56614360D01*
X89701371Y-56614360D02*
X89701371Y-56671503D01*
X89701371Y-56671503D02*
X89729942Y-56757217D01*
X89729942Y-56757217D02*
X89758514Y-56785789D01*
X90244228Y-57385789D02*
X90272800Y-57357217D01*
X90272800Y-57357217D02*
X90301371Y-57271503D01*
X90301371Y-57271503D02*
X90301371Y-57214360D01*
X90301371Y-57214360D02*
X90272800Y-57128646D01*
X90272800Y-57128646D02*
X90215657Y-57071503D01*
X90215657Y-57071503D02*
X90158514Y-57042932D01*
X90158514Y-57042932D02*
X90044228Y-57014360D01*
X90044228Y-57014360D02*
X89958514Y-57014360D01*
X89958514Y-57014360D02*
X89844228Y-57042932D01*
X89844228Y-57042932D02*
X89787085Y-57071503D01*
X89787085Y-57071503D02*
X89729942Y-57128646D01*
X89729942Y-57128646D02*
X89701371Y-57214360D01*
X89701371Y-57214360D02*
X89701371Y-57271503D01*
X89701371Y-57271503D02*
X89729942Y-57357217D01*
X89729942Y-57357217D02*
X89758514Y-57385789D01*
X75943331Y-71413609D02*
X75943331Y-70913609D01*
X75943331Y-70913609D02*
X75752855Y-70913609D01*
X75752855Y-70913609D02*
X75705236Y-70937419D01*
X75705236Y-70937419D02*
X75681426Y-70961228D01*
X75681426Y-70961228D02*
X75657617Y-71008847D01*
X75657617Y-71008847D02*
X75657617Y-71080276D01*
X75657617Y-71080276D02*
X75681426Y-71127895D01*
X75681426Y-71127895D02*
X75705236Y-71151704D01*
X75705236Y-71151704D02*
X75752855Y-71175514D01*
X75752855Y-71175514D02*
X75943331Y-71175514D01*
X75157617Y-71365990D02*
X75181426Y-71389800D01*
X75181426Y-71389800D02*
X75252855Y-71413609D01*
X75252855Y-71413609D02*
X75300474Y-71413609D01*
X75300474Y-71413609D02*
X75371902Y-71389800D01*
X75371902Y-71389800D02*
X75419521Y-71342180D01*
X75419521Y-71342180D02*
X75443331Y-71294561D01*
X75443331Y-71294561D02*
X75467140Y-71199323D01*
X75467140Y-71199323D02*
X75467140Y-71127895D01*
X75467140Y-71127895D02*
X75443331Y-71032657D01*
X75443331Y-71032657D02*
X75419521Y-70985038D01*
X75419521Y-70985038D02*
X75371902Y-70937419D01*
X75371902Y-70937419D02*
X75300474Y-70913609D01*
X75300474Y-70913609D02*
X75252855Y-70913609D01*
X75252855Y-70913609D02*
X75181426Y-70937419D01*
X75181426Y-70937419D02*
X75157617Y-70961228D01*
X74776664Y-71151704D02*
X74705236Y-71175514D01*
X74705236Y-71175514D02*
X74681426Y-71199323D01*
X74681426Y-71199323D02*
X74657617Y-71246942D01*
X74657617Y-71246942D02*
X74657617Y-71318371D01*
X74657617Y-71318371D02*
X74681426Y-71365990D01*
X74681426Y-71365990D02*
X74705236Y-71389800D01*
X74705236Y-71389800D02*
X74752855Y-71413609D01*
X74752855Y-71413609D02*
X74943331Y-71413609D01*
X74943331Y-71413609D02*
X74943331Y-70913609D01*
X74943331Y-70913609D02*
X74776664Y-70913609D01*
X74776664Y-70913609D02*
X74729045Y-70937419D01*
X74729045Y-70937419D02*
X74705236Y-70961228D01*
X74705236Y-70961228D02*
X74681426Y-71008847D01*
X74681426Y-71008847D02*
X74681426Y-71056466D01*
X74681426Y-71056466D02*
X74705236Y-71104085D01*
X74705236Y-71104085D02*
X74729045Y-71127895D01*
X74729045Y-71127895D02*
X74776664Y-71151704D01*
X74776664Y-71151704D02*
X74943331Y-71151704D01*
X74443331Y-71365990D02*
X74419521Y-71389800D01*
X74419521Y-71389800D02*
X74443331Y-71413609D01*
X74443331Y-71413609D02*
X74467140Y-71389800D01*
X74467140Y-71389800D02*
X74443331Y-71365990D01*
X74443331Y-71365990D02*
X74443331Y-71413609D01*
X74443331Y-71104085D02*
X74419521Y-71127895D01*
X74419521Y-71127895D02*
X74443331Y-71151704D01*
X74443331Y-71151704D02*
X74467140Y-71127895D01*
X74467140Y-71127895D02*
X74443331Y-71104085D01*
X74443331Y-71104085D02*
X74443331Y-71151704D01*
X73871903Y-71080276D02*
X73752855Y-71413609D01*
X73752855Y-71413609D02*
X73633808Y-71080276D01*
X73181427Y-71413609D02*
X73467141Y-71413609D01*
X73324284Y-71413609D02*
X73324284Y-70913609D01*
X73324284Y-70913609D02*
X73371903Y-70985038D01*
X73371903Y-70985038D02*
X73419522Y-71032657D01*
X73419522Y-71032657D02*
X73467141Y-71056466D01*
X72967142Y-71365990D02*
X72943332Y-71389800D01*
X72943332Y-71389800D02*
X72967142Y-71413609D01*
X72967142Y-71413609D02*
X72990951Y-71389800D01*
X72990951Y-71389800D02*
X72967142Y-71365990D01*
X72967142Y-71365990D02*
X72967142Y-71413609D01*
X72633809Y-70913609D02*
X72586190Y-70913609D01*
X72586190Y-70913609D02*
X72538571Y-70937419D01*
X72538571Y-70937419D02*
X72514761Y-70961228D01*
X72514761Y-70961228D02*
X72490952Y-71008847D01*
X72490952Y-71008847D02*
X72467142Y-71104085D01*
X72467142Y-71104085D02*
X72467142Y-71223133D01*
X72467142Y-71223133D02*
X72490952Y-71318371D01*
X72490952Y-71318371D02*
X72514761Y-71365990D01*
X72514761Y-71365990D02*
X72538571Y-71389800D01*
X72538571Y-71389800D02*
X72586190Y-71413609D01*
X72586190Y-71413609D02*
X72633809Y-71413609D01*
X72633809Y-71413609D02*
X72681428Y-71389800D01*
X72681428Y-71389800D02*
X72705237Y-71365990D01*
X72705237Y-71365990D02*
X72729047Y-71318371D01*
X72729047Y-71318371D02*
X72752856Y-71223133D01*
X72752856Y-71223133D02*
X72752856Y-71104085D01*
X72752856Y-71104085D02*
X72729047Y-71008847D01*
X72729047Y-71008847D02*
X72705237Y-70961228D01*
X72705237Y-70961228D02*
X72681428Y-70937419D01*
X72681428Y-70937419D02*
X72633809Y-70913609D01*
X72252857Y-71365990D02*
X72229047Y-71389800D01*
X72229047Y-71389800D02*
X72252857Y-71413609D01*
X72252857Y-71413609D02*
X72276666Y-71389800D01*
X72276666Y-71389800D02*
X72252857Y-71365990D01*
X72252857Y-71365990D02*
X72252857Y-71413609D01*
X71919524Y-70913609D02*
X71871905Y-70913609D01*
X71871905Y-70913609D02*
X71824286Y-70937419D01*
X71824286Y-70937419D02*
X71800476Y-70961228D01*
X71800476Y-70961228D02*
X71776667Y-71008847D01*
X71776667Y-71008847D02*
X71752857Y-71104085D01*
X71752857Y-71104085D02*
X71752857Y-71223133D01*
X71752857Y-71223133D02*
X71776667Y-71318371D01*
X71776667Y-71318371D02*
X71800476Y-71365990D01*
X71800476Y-71365990D02*
X71824286Y-71389800D01*
X71824286Y-71389800D02*
X71871905Y-71413609D01*
X71871905Y-71413609D02*
X71919524Y-71413609D01*
X71919524Y-71413609D02*
X71967143Y-71389800D01*
X71967143Y-71389800D02*
X71990952Y-71365990D01*
X71990952Y-71365990D02*
X72014762Y-71318371D01*
X72014762Y-71318371D02*
X72038571Y-71223133D01*
X72038571Y-71223133D02*
X72038571Y-71104085D01*
X72038571Y-71104085D02*
X72014762Y-71008847D01*
X72014762Y-71008847D02*
X71990952Y-70961228D01*
X71990952Y-70961228D02*
X71967143Y-70937419D01*
X71967143Y-70937419D02*
X71919524Y-70913609D01*
X82031353Y-67921371D02*
X82031353Y-67321371D01*
X82031353Y-67321371D02*
X81888496Y-67321371D01*
X81888496Y-67321371D02*
X81802782Y-67349942D01*
X81802782Y-67349942D02*
X81745639Y-67407085D01*
X81745639Y-67407085D02*
X81717068Y-67464228D01*
X81717068Y-67464228D02*
X81688496Y-67578514D01*
X81688496Y-67578514D02*
X81688496Y-67664228D01*
X81688496Y-67664228D02*
X81717068Y-67778514D01*
X81717068Y-67778514D02*
X81745639Y-67835657D01*
X81745639Y-67835657D02*
X81802782Y-67892800D01*
X81802782Y-67892800D02*
X81888496Y-67921371D01*
X81888496Y-67921371D02*
X82031353Y-67921371D01*
X81317068Y-67321371D02*
X81202782Y-67321371D01*
X81202782Y-67321371D02*
X81145639Y-67349942D01*
X81145639Y-67349942D02*
X81088496Y-67407085D01*
X81088496Y-67407085D02*
X81059925Y-67521371D01*
X81059925Y-67521371D02*
X81059925Y-67721371D01*
X81059925Y-67721371D02*
X81088496Y-67835657D01*
X81088496Y-67835657D02*
X81145639Y-67892800D01*
X81145639Y-67892800D02*
X81202782Y-67921371D01*
X81202782Y-67921371D02*
X81317068Y-67921371D01*
X81317068Y-67921371D02*
X81374211Y-67892800D01*
X81374211Y-67892800D02*
X81431353Y-67835657D01*
X81431353Y-67835657D02*
X81459925Y-67721371D01*
X81459925Y-67721371D02*
X81459925Y-67521371D01*
X81459925Y-67521371D02*
X81431353Y-67407085D01*
X81431353Y-67407085D02*
X81374211Y-67349942D01*
X81374211Y-67349942D02*
X81317068Y-67321371D01*
X85376664Y-51022133D02*
X85376664Y-50322133D01*
X85376664Y-50322133D02*
X85109997Y-50322133D01*
X85109997Y-50322133D02*
X85043331Y-50355466D01*
X85043331Y-50355466D02*
X85009997Y-50388800D01*
X85009997Y-50388800D02*
X84976664Y-50455466D01*
X84976664Y-50455466D02*
X84976664Y-50555466D01*
X84976664Y-50555466D02*
X85009997Y-50622133D01*
X85009997Y-50622133D02*
X85043331Y-50655466D01*
X85043331Y-50655466D02*
X85109997Y-50688800D01*
X85109997Y-50688800D02*
X85376664Y-50688800D01*
X84409997Y-50988800D02*
X84476664Y-51022133D01*
X84476664Y-51022133D02*
X84609997Y-51022133D01*
X84609997Y-51022133D02*
X84676664Y-50988800D01*
X84676664Y-50988800D02*
X84709997Y-50922133D01*
X84709997Y-50922133D02*
X84709997Y-50655466D01*
X84709997Y-50655466D02*
X84676664Y-50588800D01*
X84676664Y-50588800D02*
X84609997Y-50555466D01*
X84609997Y-50555466D02*
X84476664Y-50555466D01*
X84476664Y-50555466D02*
X84409997Y-50588800D01*
X84409997Y-50588800D02*
X84376664Y-50655466D01*
X84376664Y-50655466D02*
X84376664Y-50722133D01*
X84376664Y-50722133D02*
X84709997Y-50788800D01*
X83776664Y-51022133D02*
X83776664Y-50322133D01*
X83776664Y-50988800D02*
X83843331Y-51022133D01*
X83843331Y-51022133D02*
X83976664Y-51022133D01*
X83976664Y-51022133D02*
X84043331Y-50988800D01*
X84043331Y-50988800D02*
X84076664Y-50955466D01*
X84076664Y-50955466D02*
X84109997Y-50888800D01*
X84109997Y-50888800D02*
X84109997Y-50688800D01*
X84109997Y-50688800D02*
X84076664Y-50622133D01*
X84076664Y-50622133D02*
X84043331Y-50588800D01*
X84043331Y-50588800D02*
X83976664Y-50555466D01*
X83976664Y-50555466D02*
X83843331Y-50555466D01*
X83843331Y-50555466D02*
X83776664Y-50588800D01*
X83143331Y-51022133D02*
X83143331Y-50655466D01*
X83143331Y-50655466D02*
X83176664Y-50588800D01*
X83176664Y-50588800D02*
X83243331Y-50555466D01*
X83243331Y-50555466D02*
X83376664Y-50555466D01*
X83376664Y-50555466D02*
X83443331Y-50588800D01*
X83143331Y-50988800D02*
X83209998Y-51022133D01*
X83209998Y-51022133D02*
X83376664Y-51022133D01*
X83376664Y-51022133D02*
X83443331Y-50988800D01*
X83443331Y-50988800D02*
X83476664Y-50922133D01*
X83476664Y-50922133D02*
X83476664Y-50855466D01*
X83476664Y-50855466D02*
X83443331Y-50788800D01*
X83443331Y-50788800D02*
X83376664Y-50755466D01*
X83376664Y-50755466D02*
X83209998Y-50755466D01*
X83209998Y-50755466D02*
X83143331Y-50722133D01*
X82709998Y-51022133D02*
X82776665Y-50988800D01*
X82776665Y-50988800D02*
X82809998Y-50922133D01*
X82809998Y-50922133D02*
X82809998Y-50322133D01*
X82443331Y-51022133D02*
X82443331Y-50322133D01*
X82443331Y-50588800D02*
X82376664Y-50555466D01*
X82376664Y-50555466D02*
X82243331Y-50555466D01*
X82243331Y-50555466D02*
X82176664Y-50588800D01*
X82176664Y-50588800D02*
X82143331Y-50622133D01*
X82143331Y-50622133D02*
X82109998Y-50688800D01*
X82109998Y-50688800D02*
X82109998Y-50888800D01*
X82109998Y-50888800D02*
X82143331Y-50955466D01*
X82143331Y-50955466D02*
X82176664Y-50988800D01*
X82176664Y-50988800D02*
X82243331Y-51022133D01*
X82243331Y-51022133D02*
X82376664Y-51022133D01*
X82376664Y-51022133D02*
X82443331Y-50988800D01*
X81709998Y-51022133D02*
X81776665Y-50988800D01*
X81776665Y-50988800D02*
X81809998Y-50955466D01*
X81809998Y-50955466D02*
X81843331Y-50888800D01*
X81843331Y-50888800D02*
X81843331Y-50688800D01*
X81843331Y-50688800D02*
X81809998Y-50622133D01*
X81809998Y-50622133D02*
X81776665Y-50588800D01*
X81776665Y-50588800D02*
X81709998Y-50555466D01*
X81709998Y-50555466D02*
X81609998Y-50555466D01*
X81609998Y-50555466D02*
X81543331Y-50588800D01*
X81543331Y-50588800D02*
X81509998Y-50622133D01*
X81509998Y-50622133D02*
X81476665Y-50688800D01*
X81476665Y-50688800D02*
X81476665Y-50888800D01*
X81476665Y-50888800D02*
X81509998Y-50955466D01*
X81509998Y-50955466D02*
X81543331Y-50988800D01*
X81543331Y-50988800D02*
X81609998Y-51022133D01*
X81609998Y-51022133D02*
X81709998Y-51022133D01*
X80876665Y-51022133D02*
X80876665Y-50655466D01*
X80876665Y-50655466D02*
X80909998Y-50588800D01*
X80909998Y-50588800D02*
X80976665Y-50555466D01*
X80976665Y-50555466D02*
X81109998Y-50555466D01*
X81109998Y-50555466D02*
X81176665Y-50588800D01*
X80876665Y-50988800D02*
X80943332Y-51022133D01*
X80943332Y-51022133D02*
X81109998Y-51022133D01*
X81109998Y-51022133D02*
X81176665Y-50988800D01*
X81176665Y-50988800D02*
X81209998Y-50922133D01*
X81209998Y-50922133D02*
X81209998Y-50855466D01*
X81209998Y-50855466D02*
X81176665Y-50788800D01*
X81176665Y-50788800D02*
X81109998Y-50755466D01*
X81109998Y-50755466D02*
X80943332Y-50755466D01*
X80943332Y-50755466D02*
X80876665Y-50722133D01*
X80543332Y-51022133D02*
X80543332Y-50555466D01*
X80543332Y-50688800D02*
X80509999Y-50622133D01*
X80509999Y-50622133D02*
X80476665Y-50588800D01*
X80476665Y-50588800D02*
X80409999Y-50555466D01*
X80409999Y-50555466D02*
X80343332Y-50555466D01*
X79809999Y-51022133D02*
X79809999Y-50322133D01*
X79809999Y-50988800D02*
X79876666Y-51022133D01*
X79876666Y-51022133D02*
X80009999Y-51022133D01*
X80009999Y-51022133D02*
X80076666Y-50988800D01*
X80076666Y-50988800D02*
X80109999Y-50955466D01*
X80109999Y-50955466D02*
X80143332Y-50888800D01*
X80143332Y-50888800D02*
X80143332Y-50688800D01*
X80143332Y-50688800D02*
X80109999Y-50622133D01*
X80109999Y-50622133D02*
X80076666Y-50588800D01*
X80076666Y-50588800D02*
X80009999Y-50555466D01*
X80009999Y-50555466D02*
X79876666Y-50555466D01*
X79876666Y-50555466D02*
X79809999Y-50588800D01*
X78610000Y-51022133D02*
X78943333Y-51022133D01*
X78943333Y-51022133D02*
X78943333Y-50322133D01*
X78376666Y-50655466D02*
X78143333Y-50655466D01*
X78043333Y-51022133D02*
X78376666Y-51022133D01*
X78376666Y-51022133D02*
X78376666Y-50322133D01*
X78376666Y-50322133D02*
X78043333Y-50322133D01*
X77743333Y-51022133D02*
X77743333Y-50322133D01*
X77743333Y-50322133D02*
X77576666Y-50322133D01*
X77576666Y-50322133D02*
X77476666Y-50355466D01*
X77476666Y-50355466D02*
X77410000Y-50422133D01*
X77410000Y-50422133D02*
X77376666Y-50488800D01*
X77376666Y-50488800D02*
X77343333Y-50622133D01*
X77343333Y-50622133D02*
X77343333Y-50722133D01*
X77343333Y-50722133D02*
X77376666Y-50855466D01*
X77376666Y-50855466D02*
X77410000Y-50922133D01*
X77410000Y-50922133D02*
X77476666Y-50988800D01*
X77476666Y-50988800D02*
X77576666Y-51022133D01*
X77576666Y-51022133D02*
X77743333Y-51022133D01*
X76110000Y-51022133D02*
X76343333Y-50688800D01*
X76510000Y-51022133D02*
X76510000Y-50322133D01*
X76510000Y-50322133D02*
X76243333Y-50322133D01*
X76243333Y-50322133D02*
X76176667Y-50355466D01*
X76176667Y-50355466D02*
X76143333Y-50388800D01*
X76143333Y-50388800D02*
X76110000Y-50455466D01*
X76110000Y-50455466D02*
X76110000Y-50555466D01*
X76110000Y-50555466D02*
X76143333Y-50622133D01*
X76143333Y-50622133D02*
X76176667Y-50655466D01*
X76176667Y-50655466D02*
X76243333Y-50688800D01*
X76243333Y-50688800D02*
X76510000Y-50688800D01*
X75810000Y-51022133D02*
X75810000Y-50555466D01*
X75810000Y-50322133D02*
X75843333Y-50355466D01*
X75843333Y-50355466D02*
X75810000Y-50388800D01*
X75810000Y-50388800D02*
X75776667Y-50355466D01*
X75776667Y-50355466D02*
X75810000Y-50322133D01*
X75810000Y-50322133D02*
X75810000Y-50388800D01*
X75476667Y-50555466D02*
X75476667Y-51022133D01*
X75476667Y-50622133D02*
X75443334Y-50588800D01*
X75443334Y-50588800D02*
X75376667Y-50555466D01*
X75376667Y-50555466D02*
X75276667Y-50555466D01*
X75276667Y-50555466D02*
X75210000Y-50588800D01*
X75210000Y-50588800D02*
X75176667Y-50655466D01*
X75176667Y-50655466D02*
X75176667Y-51022133D01*
X74543334Y-50555466D02*
X74543334Y-51122133D01*
X74543334Y-51122133D02*
X74576667Y-51188800D01*
X74576667Y-51188800D02*
X74610001Y-51222133D01*
X74610001Y-51222133D02*
X74676667Y-51255466D01*
X74676667Y-51255466D02*
X74776667Y-51255466D01*
X74776667Y-51255466D02*
X74843334Y-51222133D01*
X74543334Y-50988800D02*
X74610001Y-51022133D01*
X74610001Y-51022133D02*
X74743334Y-51022133D01*
X74743334Y-51022133D02*
X74810001Y-50988800D01*
X74810001Y-50988800D02*
X74843334Y-50955466D01*
X74843334Y-50955466D02*
X74876667Y-50888800D01*
X74876667Y-50888800D02*
X74876667Y-50688800D01*
X74876667Y-50688800D02*
X74843334Y-50622133D01*
X74843334Y-50622133D02*
X74810001Y-50588800D01*
X74810001Y-50588800D02*
X74743334Y-50555466D01*
X74743334Y-50555466D02*
X74610001Y-50555466D01*
X74610001Y-50555466D02*
X74543334Y-50588800D01*
X88176663Y-52149133D02*
X88176663Y-51449133D01*
X87876663Y-52149133D02*
X87876663Y-51782466D01*
X87876663Y-51782466D02*
X87909996Y-51715800D01*
X87909996Y-51715800D02*
X87976663Y-51682466D01*
X87976663Y-51682466D02*
X88076663Y-51682466D01*
X88076663Y-51682466D02*
X88143330Y-51715800D01*
X88143330Y-51715800D02*
X88176663Y-51749133D01*
X87643330Y-51682466D02*
X87376663Y-51682466D01*
X87543330Y-51449133D02*
X87543330Y-52049133D01*
X87543330Y-52049133D02*
X87509997Y-52115800D01*
X87509997Y-52115800D02*
X87443330Y-52149133D01*
X87443330Y-52149133D02*
X87376663Y-52149133D01*
X87243330Y-51682466D02*
X86976663Y-51682466D01*
X87143330Y-51449133D02*
X87143330Y-52049133D01*
X87143330Y-52049133D02*
X87109997Y-52115800D01*
X87109997Y-52115800D02*
X87043330Y-52149133D01*
X87043330Y-52149133D02*
X86976663Y-52149133D01*
X86743330Y-51682466D02*
X86743330Y-52382466D01*
X86743330Y-51715800D02*
X86676663Y-51682466D01*
X86676663Y-51682466D02*
X86543330Y-51682466D01*
X86543330Y-51682466D02*
X86476663Y-51715800D01*
X86476663Y-51715800D02*
X86443330Y-51749133D01*
X86443330Y-51749133D02*
X86409997Y-51815800D01*
X86409997Y-51815800D02*
X86409997Y-52015800D01*
X86409997Y-52015800D02*
X86443330Y-52082466D01*
X86443330Y-52082466D02*
X86476663Y-52115800D01*
X86476663Y-52115800D02*
X86543330Y-52149133D01*
X86543330Y-52149133D02*
X86676663Y-52149133D01*
X86676663Y-52149133D02*
X86743330Y-52115800D01*
X86143330Y-52115800D02*
X86076664Y-52149133D01*
X86076664Y-52149133D02*
X85943330Y-52149133D01*
X85943330Y-52149133D02*
X85876664Y-52115800D01*
X85876664Y-52115800D02*
X85843330Y-52049133D01*
X85843330Y-52049133D02*
X85843330Y-52015800D01*
X85843330Y-52015800D02*
X85876664Y-51949133D01*
X85876664Y-51949133D02*
X85943330Y-51915800D01*
X85943330Y-51915800D02*
X86043330Y-51915800D01*
X86043330Y-51915800D02*
X86109997Y-51882466D01*
X86109997Y-51882466D02*
X86143330Y-51815800D01*
X86143330Y-51815800D02*
X86143330Y-51782466D01*
X86143330Y-51782466D02*
X86109997Y-51715800D01*
X86109997Y-51715800D02*
X86043330Y-51682466D01*
X86043330Y-51682466D02*
X85943330Y-51682466D01*
X85943330Y-51682466D02*
X85876664Y-51715800D01*
X85543330Y-52082466D02*
X85509997Y-52115800D01*
X85509997Y-52115800D02*
X85543330Y-52149133D01*
X85543330Y-52149133D02*
X85576663Y-52115800D01*
X85576663Y-52115800D02*
X85543330Y-52082466D01*
X85543330Y-52082466D02*
X85543330Y-52149133D01*
X85543330Y-51715800D02*
X85509997Y-51749133D01*
X85509997Y-51749133D02*
X85543330Y-51782466D01*
X85543330Y-51782466D02*
X85576663Y-51749133D01*
X85576663Y-51749133D02*
X85543330Y-51715800D01*
X85543330Y-51715800D02*
X85543330Y-51782466D01*
X84709997Y-51415800D02*
X85309997Y-52315800D01*
X83976664Y-51415800D02*
X84576664Y-52315800D01*
X83443331Y-51682466D02*
X83443331Y-52249133D01*
X83443331Y-52249133D02*
X83476664Y-52315800D01*
X83476664Y-52315800D02*
X83509998Y-52349133D01*
X83509998Y-52349133D02*
X83576664Y-52382466D01*
X83576664Y-52382466D02*
X83676664Y-52382466D01*
X83676664Y-52382466D02*
X83743331Y-52349133D01*
X83443331Y-52115800D02*
X83509998Y-52149133D01*
X83509998Y-52149133D02*
X83643331Y-52149133D01*
X83643331Y-52149133D02*
X83709998Y-52115800D01*
X83709998Y-52115800D02*
X83743331Y-52082466D01*
X83743331Y-52082466D02*
X83776664Y-52015800D01*
X83776664Y-52015800D02*
X83776664Y-51815800D01*
X83776664Y-51815800D02*
X83743331Y-51749133D01*
X83743331Y-51749133D02*
X83709998Y-51715800D01*
X83709998Y-51715800D02*
X83643331Y-51682466D01*
X83643331Y-51682466D02*
X83509998Y-51682466D01*
X83509998Y-51682466D02*
X83443331Y-51715800D01*
X83109998Y-52149133D02*
X83109998Y-51682466D01*
X83109998Y-51449133D02*
X83143331Y-51482466D01*
X83143331Y-51482466D02*
X83109998Y-51515800D01*
X83109998Y-51515800D02*
X83076665Y-51482466D01*
X83076665Y-51482466D02*
X83109998Y-51449133D01*
X83109998Y-51449133D02*
X83109998Y-51515800D01*
X82876665Y-51682466D02*
X82609998Y-51682466D01*
X82776665Y-51449133D02*
X82776665Y-52049133D01*
X82776665Y-52049133D02*
X82743332Y-52115800D01*
X82743332Y-52115800D02*
X82676665Y-52149133D01*
X82676665Y-52149133D02*
X82609998Y-52149133D01*
X82376665Y-52149133D02*
X82376665Y-51449133D01*
X82076665Y-52149133D02*
X82076665Y-51782466D01*
X82076665Y-51782466D02*
X82109998Y-51715800D01*
X82109998Y-51715800D02*
X82176665Y-51682466D01*
X82176665Y-51682466D02*
X82276665Y-51682466D01*
X82276665Y-51682466D02*
X82343332Y-51715800D01*
X82343332Y-51715800D02*
X82376665Y-51749133D01*
X81443332Y-51682466D02*
X81443332Y-52149133D01*
X81743332Y-51682466D02*
X81743332Y-52049133D01*
X81743332Y-52049133D02*
X81709999Y-52115800D01*
X81709999Y-52115800D02*
X81643332Y-52149133D01*
X81643332Y-52149133D02*
X81543332Y-52149133D01*
X81543332Y-52149133D02*
X81476665Y-52115800D01*
X81476665Y-52115800D02*
X81443332Y-52082466D01*
X81109999Y-52149133D02*
X81109999Y-51449133D01*
X81109999Y-51715800D02*
X81043332Y-51682466D01*
X81043332Y-51682466D02*
X80909999Y-51682466D01*
X80909999Y-51682466D02*
X80843332Y-51715800D01*
X80843332Y-51715800D02*
X80809999Y-51749133D01*
X80809999Y-51749133D02*
X80776666Y-51815800D01*
X80776666Y-51815800D02*
X80776666Y-52015800D01*
X80776666Y-52015800D02*
X80809999Y-52082466D01*
X80809999Y-52082466D02*
X80843332Y-52115800D01*
X80843332Y-52115800D02*
X80909999Y-52149133D01*
X80909999Y-52149133D02*
X81043332Y-52149133D01*
X81043332Y-52149133D02*
X81109999Y-52115800D01*
X80476666Y-52082466D02*
X80443333Y-52115800D01*
X80443333Y-52115800D02*
X80476666Y-52149133D01*
X80476666Y-52149133D02*
X80509999Y-52115800D01*
X80509999Y-52115800D02*
X80476666Y-52082466D01*
X80476666Y-52082466D02*
X80476666Y-52149133D01*
X79843333Y-52115800D02*
X79910000Y-52149133D01*
X79910000Y-52149133D02*
X80043333Y-52149133D01*
X80043333Y-52149133D02*
X80110000Y-52115800D01*
X80110000Y-52115800D02*
X80143333Y-52082466D01*
X80143333Y-52082466D02*
X80176666Y-52015800D01*
X80176666Y-52015800D02*
X80176666Y-51815800D01*
X80176666Y-51815800D02*
X80143333Y-51749133D01*
X80143333Y-51749133D02*
X80110000Y-51715800D01*
X80110000Y-51715800D02*
X80043333Y-51682466D01*
X80043333Y-51682466D02*
X79910000Y-51682466D01*
X79910000Y-51682466D02*
X79843333Y-51715800D01*
X79443333Y-52149133D02*
X79510000Y-52115800D01*
X79510000Y-52115800D02*
X79543333Y-52082466D01*
X79543333Y-52082466D02*
X79576666Y-52015800D01*
X79576666Y-52015800D02*
X79576666Y-51815800D01*
X79576666Y-51815800D02*
X79543333Y-51749133D01*
X79543333Y-51749133D02*
X79510000Y-51715800D01*
X79510000Y-51715800D02*
X79443333Y-51682466D01*
X79443333Y-51682466D02*
X79343333Y-51682466D01*
X79343333Y-51682466D02*
X79276666Y-51715800D01*
X79276666Y-51715800D02*
X79243333Y-51749133D01*
X79243333Y-51749133D02*
X79210000Y-51815800D01*
X79210000Y-51815800D02*
X79210000Y-52015800D01*
X79210000Y-52015800D02*
X79243333Y-52082466D01*
X79243333Y-52082466D02*
X79276666Y-52115800D01*
X79276666Y-52115800D02*
X79343333Y-52149133D01*
X79343333Y-52149133D02*
X79443333Y-52149133D01*
X78910000Y-52149133D02*
X78910000Y-51682466D01*
X78910000Y-51749133D02*
X78876667Y-51715800D01*
X78876667Y-51715800D02*
X78810000Y-51682466D01*
X78810000Y-51682466D02*
X78710000Y-51682466D01*
X78710000Y-51682466D02*
X78643333Y-51715800D01*
X78643333Y-51715800D02*
X78610000Y-51782466D01*
X78610000Y-51782466D02*
X78610000Y-52149133D01*
X78610000Y-51782466D02*
X78576667Y-51715800D01*
X78576667Y-51715800D02*
X78510000Y-51682466D01*
X78510000Y-51682466D02*
X78410000Y-51682466D01*
X78410000Y-51682466D02*
X78343333Y-51715800D01*
X78343333Y-51715800D02*
X78310000Y-51782466D01*
X78310000Y-51782466D02*
X78310000Y-52149133D01*
X77476667Y-51415800D02*
X78076667Y-52315800D01*
X77243334Y-51682466D02*
X77243334Y-52382466D01*
X77243334Y-51715800D02*
X77176667Y-51682466D01*
X77176667Y-51682466D02*
X77043334Y-51682466D01*
X77043334Y-51682466D02*
X76976667Y-51715800D01*
X76976667Y-51715800D02*
X76943334Y-51749133D01*
X76943334Y-51749133D02*
X76910001Y-51815800D01*
X76910001Y-51815800D02*
X76910001Y-52015800D01*
X76910001Y-52015800D02*
X76943334Y-52082466D01*
X76943334Y-52082466D02*
X76976667Y-52115800D01*
X76976667Y-52115800D02*
X77043334Y-52149133D01*
X77043334Y-52149133D02*
X77176667Y-52149133D01*
X77176667Y-52149133D02*
X77243334Y-52115800D01*
X76343334Y-52115800D02*
X76410001Y-52149133D01*
X76410001Y-52149133D02*
X76543334Y-52149133D01*
X76543334Y-52149133D02*
X76610001Y-52115800D01*
X76610001Y-52115800D02*
X76643334Y-52049133D01*
X76643334Y-52049133D02*
X76643334Y-51782466D01*
X76643334Y-51782466D02*
X76610001Y-51715800D01*
X76610001Y-51715800D02*
X76543334Y-51682466D01*
X76543334Y-51682466D02*
X76410001Y-51682466D01*
X76410001Y-51682466D02*
X76343334Y-51715800D01*
X76343334Y-51715800D02*
X76310001Y-51782466D01*
X76310001Y-51782466D02*
X76310001Y-51849133D01*
X76310001Y-51849133D02*
X76643334Y-51915800D01*
X75710001Y-52149133D02*
X75710001Y-51449133D01*
X75710001Y-52115800D02*
X75776668Y-52149133D01*
X75776668Y-52149133D02*
X75910001Y-52149133D01*
X75910001Y-52149133D02*
X75976668Y-52115800D01*
X75976668Y-52115800D02*
X76010001Y-52082466D01*
X76010001Y-52082466D02*
X76043334Y-52015800D01*
X76043334Y-52015800D02*
X76043334Y-51815800D01*
X76043334Y-51815800D02*
X76010001Y-51749133D01*
X76010001Y-51749133D02*
X75976668Y-51715800D01*
X75976668Y-51715800D02*
X75910001Y-51682466D01*
X75910001Y-51682466D02*
X75776668Y-51682466D01*
X75776668Y-51682466D02*
X75710001Y-51715800D01*
X75076668Y-52149133D02*
X75076668Y-51782466D01*
X75076668Y-51782466D02*
X75110001Y-51715800D01*
X75110001Y-51715800D02*
X75176668Y-51682466D01*
X75176668Y-51682466D02*
X75310001Y-51682466D01*
X75310001Y-51682466D02*
X75376668Y-51715800D01*
X75076668Y-52115800D02*
X75143335Y-52149133D01*
X75143335Y-52149133D02*
X75310001Y-52149133D01*
X75310001Y-52149133D02*
X75376668Y-52115800D01*
X75376668Y-52115800D02*
X75410001Y-52049133D01*
X75410001Y-52049133D02*
X75410001Y-51982466D01*
X75410001Y-51982466D02*
X75376668Y-51915800D01*
X75376668Y-51915800D02*
X75310001Y-51882466D01*
X75310001Y-51882466D02*
X75143335Y-51882466D01*
X75143335Y-51882466D02*
X75076668Y-51849133D01*
X74643335Y-52149133D02*
X74710002Y-52115800D01*
X74710002Y-52115800D02*
X74743335Y-52049133D01*
X74743335Y-52049133D02*
X74743335Y-51449133D01*
X74376668Y-52149133D02*
X74376668Y-51449133D01*
X74376668Y-51715800D02*
X74310001Y-51682466D01*
X74310001Y-51682466D02*
X74176668Y-51682466D01*
X74176668Y-51682466D02*
X74110001Y-51715800D01*
X74110001Y-51715800D02*
X74076668Y-51749133D01*
X74076668Y-51749133D02*
X74043335Y-51815800D01*
X74043335Y-51815800D02*
X74043335Y-52015800D01*
X74043335Y-52015800D02*
X74076668Y-52082466D01*
X74076668Y-52082466D02*
X74110001Y-52115800D01*
X74110001Y-52115800D02*
X74176668Y-52149133D01*
X74176668Y-52149133D02*
X74310001Y-52149133D01*
X74310001Y-52149133D02*
X74376668Y-52115800D01*
X73643335Y-52149133D02*
X73710002Y-52115800D01*
X73710002Y-52115800D02*
X73743335Y-52082466D01*
X73743335Y-52082466D02*
X73776668Y-52015800D01*
X73776668Y-52015800D02*
X73776668Y-51815800D01*
X73776668Y-51815800D02*
X73743335Y-51749133D01*
X73743335Y-51749133D02*
X73710002Y-51715800D01*
X73710002Y-51715800D02*
X73643335Y-51682466D01*
X73643335Y-51682466D02*
X73543335Y-51682466D01*
X73543335Y-51682466D02*
X73476668Y-51715800D01*
X73476668Y-51715800D02*
X73443335Y-51749133D01*
X73443335Y-51749133D02*
X73410002Y-51815800D01*
X73410002Y-51815800D02*
X73410002Y-52015800D01*
X73410002Y-52015800D02*
X73443335Y-52082466D01*
X73443335Y-52082466D02*
X73476668Y-52115800D01*
X73476668Y-52115800D02*
X73543335Y-52149133D01*
X73543335Y-52149133D02*
X73643335Y-52149133D01*
X72810002Y-52149133D02*
X72810002Y-51782466D01*
X72810002Y-51782466D02*
X72843335Y-51715800D01*
X72843335Y-51715800D02*
X72910002Y-51682466D01*
X72910002Y-51682466D02*
X73043335Y-51682466D01*
X73043335Y-51682466D02*
X73110002Y-51715800D01*
X72810002Y-52115800D02*
X72876669Y-52149133D01*
X72876669Y-52149133D02*
X73043335Y-52149133D01*
X73043335Y-52149133D02*
X73110002Y-52115800D01*
X73110002Y-52115800D02*
X73143335Y-52049133D01*
X73143335Y-52049133D02*
X73143335Y-51982466D01*
X73143335Y-51982466D02*
X73110002Y-51915800D01*
X73110002Y-51915800D02*
X73043335Y-51882466D01*
X73043335Y-51882466D02*
X72876669Y-51882466D01*
X72876669Y-51882466D02*
X72810002Y-51849133D01*
X72476669Y-52149133D02*
X72476669Y-51682466D01*
X72476669Y-51815800D02*
X72443336Y-51749133D01*
X72443336Y-51749133D02*
X72410002Y-51715800D01*
X72410002Y-51715800D02*
X72343336Y-51682466D01*
X72343336Y-51682466D02*
X72276669Y-51682466D01*
X71743336Y-52149133D02*
X71743336Y-51449133D01*
X71743336Y-52115800D02*
X71810003Y-52149133D01*
X71810003Y-52149133D02*
X71943336Y-52149133D01*
X71943336Y-52149133D02*
X72010003Y-52115800D01*
X72010003Y-52115800D02*
X72043336Y-52082466D01*
X72043336Y-52082466D02*
X72076669Y-52015800D01*
X72076669Y-52015800D02*
X72076669Y-51815800D01*
X72076669Y-51815800D02*
X72043336Y-51749133D01*
X72043336Y-51749133D02*
X72010003Y-51715800D01*
X72010003Y-51715800D02*
X71943336Y-51682466D01*
X71943336Y-51682466D02*
X71810003Y-51682466D01*
X71810003Y-51682466D02*
X71743336Y-51715800D01*
D11*
X87940000Y-62060000D02*
X87940000Y-57940000D01*
X88240000Y-62060000D02*
X87940000Y-62060000D01*
X90240000Y-62060000D02*
X89760000Y-62060000D01*
X92060000Y-62060000D02*
X91760000Y-62060000D01*
X92060000Y-62060000D02*
X92060000Y-57940000D01*
X88240000Y-57940000D02*
X87940000Y-57940000D01*
X90240000Y-57940000D02*
X89760000Y-57940000D01*
X91760000Y-57940000D02*
X91760000Y-55560000D01*
X92060000Y-57940000D02*
X91760000Y-57940000D01*
X84940000Y-65940000D02*
X89060000Y-65940000D01*
X84940000Y-66240000D02*
X84940000Y-65940000D01*
X84940000Y-68240000D02*
X84940000Y-67760000D01*
X84940000Y-70060000D02*
X84940000Y-69760000D01*
X84940000Y-70060000D02*
X89060000Y-70060000D01*
X89060000Y-66240000D02*
X89060000Y-65940000D01*
X89060000Y-68240000D02*
X89060000Y-67760000D01*
X89060000Y-69760000D02*
X91440000Y-69760000D01*
X89060000Y-70060000D02*
X89060000Y-69760000D01*
M02*
