M48
INCH,TZ
T1C0.0157
%
G90
G05
T1
X27587Y-24093
X27876Y-22076
X28346Y-25984
X29134Y-20472
X29950Y-27243
X31025Y-19713
X31967Y-27531
X33043Y-20002
X33504Y-27795
X33504Y-28110
X34016Y-26654
X34173Y-25039
X34610Y-24339
X34646Y-21260
X34843Y-25984
X34882Y-27795
X34882Y-28110
X35405Y-23151
X35669Y-24173
X35709Y-25551
X35984Y-24173
X35984Y-25551
T0
M30
