M48
INCH,TZ
T1C0.0157
%
G90
G05
T1
X27587Y-24093
X27876Y-22076
X28346Y-25984
X29134Y-20472
X29950Y-27243
X31025Y-19713
X31967Y-27531
X32677Y-27559
X33043Y-20002
X33071Y-27559
X33465Y-27559
X33858Y-27362
X34016Y-26654
X34173Y-25039
X34610Y-24339
X34646Y-21260
X34748Y-25992
X35405Y-23151
X35551Y-24173
X35551Y-25551
X35866Y-24173
X35866Y-25551
T0
M30
