M48
INCH,TZ
T1C0.0157
%
G90
G05
T1
X27165Y-23780
X27667Y-21593
X27824Y-25924
X29194Y-19950
X29467Y-27451
X31339Y-19291
X31654Y-27953
X33525Y-19793
X33819Y-28346
X34016Y-25000
X34016Y-26693
X34213Y-28346
X34606Y-28346
X34610Y-24339
X35168Y-21320
X35325Y-25651
X35827Y-23465
X36220Y-24449
X36220Y-24843
X36220Y-25236
T0
M30
