M48
INCH,TZ
T1C0.0157
%
G90
G05
T1
X27587Y-24093
X27876Y-22076
X28346Y-25984
X29134Y-20472
X29950Y-27243
X31025Y-19713
X31967Y-27531
X32638Y-28110
X33031Y-28110
X33043Y-20002
X33425Y-28110
X33740Y-27756
X33858Y-26748
X34173Y-25039
X34610Y-24075
X34646Y-21260
X34748Y-25992
X35405Y-23151
X35492Y-25551
X35512Y-24173
X35787Y-25551
X35807Y-24173
T0
M30
