G04 #@! TF.GenerationSoftware,KiCad,Pcbnew,7.0.5.1-1-g8f565ef7f0-dirty-deb11*
G04 #@! TF.CreationDate,2023-06-03T12:27:23+00:00*
G04 #@! TF.ProjectId,pedalboard-led-ring,70656461-6c62-46f6-9172-642d6c65642d,1.0.0*
G04 #@! TF.SameCoordinates,Original*
G04 #@! TF.FileFunction,Legend,Bot*
G04 #@! TF.FilePolarity,Positive*
%FSLAX46Y46*%
G04 Gerber Fmt 4.6, Leading zero omitted, Abs format (unit mm)*
G04 Created by KiCad (PCBNEW 7.0.5.1-1-g8f565ef7f0-dirty-deb11) date 2023-06-03 12:27:23*
%MOMM*%
%LPD*%
G01*
G04 APERTURE LIST*
%ADD10C,0.100000*%
%ADD11C,0.150000*%
%ADD12C,0.125000*%
%ADD13C,0.120000*%
G04 APERTURE END LIST*
D10*
X87050000Y-60000000D02*
G75*
G03*
X87050000Y-60000000I-7050000J0D01*
G01*
D11*
X89400414Y-53777255D02*
X88650414Y-53777255D01*
X88650414Y-53777255D02*
X88650414Y-53955826D01*
X88650414Y-53955826D02*
X88686128Y-54062969D01*
X88686128Y-54062969D02*
X88757557Y-54134398D01*
X88757557Y-54134398D02*
X88828985Y-54170112D01*
X88828985Y-54170112D02*
X88971842Y-54205826D01*
X88971842Y-54205826D02*
X89078985Y-54205826D01*
X89078985Y-54205826D02*
X89221842Y-54170112D01*
X89221842Y-54170112D02*
X89293271Y-54134398D01*
X89293271Y-54134398D02*
X89364700Y-54062969D01*
X89364700Y-54062969D02*
X89400414Y-53955826D01*
X89400414Y-53955826D02*
X89400414Y-53777255D01*
X89400414Y-54527255D02*
X88650414Y-54527255D01*
X89900414Y-65777255D02*
X89150414Y-65777255D01*
X89150414Y-65777255D02*
X89150414Y-65955826D01*
X89150414Y-65955826D02*
X89186128Y-66062969D01*
X89186128Y-66062969D02*
X89257557Y-66134398D01*
X89257557Y-66134398D02*
X89328985Y-66170112D01*
X89328985Y-66170112D02*
X89471842Y-66205826D01*
X89471842Y-66205826D02*
X89578985Y-66205826D01*
X89578985Y-66205826D02*
X89721842Y-66170112D01*
X89721842Y-66170112D02*
X89793271Y-66134398D01*
X89793271Y-66134398D02*
X89864700Y-66062969D01*
X89864700Y-66062969D02*
X89900414Y-65955826D01*
X89900414Y-65955826D02*
X89900414Y-65777255D01*
X89150414Y-66670112D02*
X89150414Y-66741541D01*
X89150414Y-66741541D02*
X89186128Y-66812969D01*
X89186128Y-66812969D02*
X89221842Y-66848684D01*
X89221842Y-66848684D02*
X89293271Y-66884398D01*
X89293271Y-66884398D02*
X89436128Y-66920112D01*
X89436128Y-66920112D02*
X89614700Y-66920112D01*
X89614700Y-66920112D02*
X89757557Y-66884398D01*
X89757557Y-66884398D02*
X89828985Y-66848684D01*
X89828985Y-66848684D02*
X89864700Y-66812969D01*
X89864700Y-66812969D02*
X89900414Y-66741541D01*
X89900414Y-66741541D02*
X89900414Y-66670112D01*
X89900414Y-66670112D02*
X89864700Y-66598684D01*
X89864700Y-66598684D02*
X89828985Y-66562969D01*
X89828985Y-66562969D02*
X89757557Y-66527255D01*
X89757557Y-66527255D02*
X89614700Y-66491541D01*
X89614700Y-66491541D02*
X89436128Y-66491541D01*
X89436128Y-66491541D02*
X89293271Y-66527255D01*
X89293271Y-66527255D02*
X89221842Y-66562969D01*
X89221842Y-66562969D02*
X89186128Y-66598684D01*
X89186128Y-66598684D02*
X89150414Y-66670112D01*
X94329887Y-72150414D02*
X94079887Y-72900414D01*
X94079887Y-72900414D02*
X93829887Y-72150414D01*
X93151316Y-72828985D02*
X93187030Y-72864700D01*
X93187030Y-72864700D02*
X93294173Y-72900414D01*
X93294173Y-72900414D02*
X93365601Y-72900414D01*
X93365601Y-72900414D02*
X93472744Y-72864700D01*
X93472744Y-72864700D02*
X93544173Y-72793271D01*
X93544173Y-72793271D02*
X93579887Y-72721842D01*
X93579887Y-72721842D02*
X93615601Y-72578985D01*
X93615601Y-72578985D02*
X93615601Y-72471842D01*
X93615601Y-72471842D02*
X93579887Y-72328985D01*
X93579887Y-72328985D02*
X93544173Y-72257557D01*
X93544173Y-72257557D02*
X93472744Y-72186128D01*
X93472744Y-72186128D02*
X93365601Y-72150414D01*
X93365601Y-72150414D02*
X93294173Y-72150414D01*
X93294173Y-72150414D02*
X93187030Y-72186128D01*
X93187030Y-72186128D02*
X93151316Y-72221842D01*
X92401316Y-72828985D02*
X92437030Y-72864700D01*
X92437030Y-72864700D02*
X92544173Y-72900414D01*
X92544173Y-72900414D02*
X92615601Y-72900414D01*
X92615601Y-72900414D02*
X92722744Y-72864700D01*
X92722744Y-72864700D02*
X92794173Y-72793271D01*
X92794173Y-72793271D02*
X92829887Y-72721842D01*
X92829887Y-72721842D02*
X92865601Y-72578985D01*
X92865601Y-72578985D02*
X92865601Y-72471842D01*
X92865601Y-72471842D02*
X92829887Y-72328985D01*
X92829887Y-72328985D02*
X92794173Y-72257557D01*
X92794173Y-72257557D02*
X92722744Y-72186128D01*
X92722744Y-72186128D02*
X92615601Y-72150414D01*
X92615601Y-72150414D02*
X92544173Y-72150414D01*
X92544173Y-72150414D02*
X92437030Y-72186128D01*
X92437030Y-72186128D02*
X92401316Y-72221842D01*
X90686128Y-65670112D02*
X90650414Y-65598684D01*
X90650414Y-65598684D02*
X90650414Y-65491541D01*
X90650414Y-65491541D02*
X90686128Y-65384398D01*
X90686128Y-65384398D02*
X90757557Y-65312969D01*
X90757557Y-65312969D02*
X90828985Y-65277255D01*
X90828985Y-65277255D02*
X90971842Y-65241541D01*
X90971842Y-65241541D02*
X91078985Y-65241541D01*
X91078985Y-65241541D02*
X91221842Y-65277255D01*
X91221842Y-65277255D02*
X91293271Y-65312969D01*
X91293271Y-65312969D02*
X91364700Y-65384398D01*
X91364700Y-65384398D02*
X91400414Y-65491541D01*
X91400414Y-65491541D02*
X91400414Y-65562969D01*
X91400414Y-65562969D02*
X91364700Y-65670112D01*
X91364700Y-65670112D02*
X91328985Y-65705826D01*
X91328985Y-65705826D02*
X91078985Y-65705826D01*
X91078985Y-65705826D02*
X91078985Y-65562969D01*
X91400414Y-66027255D02*
X90650414Y-66027255D01*
X90650414Y-66027255D02*
X91400414Y-66455826D01*
X91400414Y-66455826D02*
X90650414Y-66455826D01*
X91400414Y-66812969D02*
X90650414Y-66812969D01*
X90650414Y-66812969D02*
X90650414Y-66991540D01*
X90650414Y-66991540D02*
X90686128Y-67098683D01*
X90686128Y-67098683D02*
X90757557Y-67170112D01*
X90757557Y-67170112D02*
X90828985Y-67205826D01*
X90828985Y-67205826D02*
X90971842Y-67241540D01*
X90971842Y-67241540D02*
X91078985Y-67241540D01*
X91078985Y-67241540D02*
X91221842Y-67205826D01*
X91221842Y-67205826D02*
X91293271Y-67170112D01*
X91293271Y-67170112D02*
X91364700Y-67098683D01*
X91364700Y-67098683D02*
X91400414Y-66991540D01*
X91400414Y-66991540D02*
X91400414Y-66812969D01*
X84329887Y-70686128D02*
X84401316Y-70650414D01*
X84401316Y-70650414D02*
X84508458Y-70650414D01*
X84508458Y-70650414D02*
X84615601Y-70686128D01*
X84615601Y-70686128D02*
X84687030Y-70757557D01*
X84687030Y-70757557D02*
X84722744Y-70828985D01*
X84722744Y-70828985D02*
X84758458Y-70971842D01*
X84758458Y-70971842D02*
X84758458Y-71078985D01*
X84758458Y-71078985D02*
X84722744Y-71221842D01*
X84722744Y-71221842D02*
X84687030Y-71293271D01*
X84687030Y-71293271D02*
X84615601Y-71364700D01*
X84615601Y-71364700D02*
X84508458Y-71400414D01*
X84508458Y-71400414D02*
X84437030Y-71400414D01*
X84437030Y-71400414D02*
X84329887Y-71364700D01*
X84329887Y-71364700D02*
X84294173Y-71328985D01*
X84294173Y-71328985D02*
X84294173Y-71078985D01*
X84294173Y-71078985D02*
X84437030Y-71078985D01*
X83972744Y-71400414D02*
X83972744Y-70650414D01*
X83972744Y-70650414D02*
X83544173Y-71400414D01*
X83544173Y-71400414D02*
X83544173Y-70650414D01*
X83187030Y-71400414D02*
X83187030Y-70650414D01*
X83187030Y-70650414D02*
X83008459Y-70650414D01*
X83008459Y-70650414D02*
X82901316Y-70686128D01*
X82901316Y-70686128D02*
X82829887Y-70757557D01*
X82829887Y-70757557D02*
X82794173Y-70828985D01*
X82794173Y-70828985D02*
X82758459Y-70971842D01*
X82758459Y-70971842D02*
X82758459Y-71078985D01*
X82758459Y-71078985D02*
X82794173Y-71221842D01*
X82794173Y-71221842D02*
X82829887Y-71293271D01*
X82829887Y-71293271D02*
X82901316Y-71364700D01*
X82901316Y-71364700D02*
X83008459Y-71400414D01*
X83008459Y-71400414D02*
X83187030Y-71400414D01*
X94222744Y-67900414D02*
X94222744Y-67150414D01*
X94222744Y-67150414D02*
X94044173Y-67150414D01*
X94044173Y-67150414D02*
X93937030Y-67186128D01*
X93937030Y-67186128D02*
X93865601Y-67257557D01*
X93865601Y-67257557D02*
X93829887Y-67328985D01*
X93829887Y-67328985D02*
X93794173Y-67471842D01*
X93794173Y-67471842D02*
X93794173Y-67578985D01*
X93794173Y-67578985D02*
X93829887Y-67721842D01*
X93829887Y-67721842D02*
X93865601Y-67793271D01*
X93865601Y-67793271D02*
X93937030Y-67864700D01*
X93937030Y-67864700D02*
X94044173Y-67900414D01*
X94044173Y-67900414D02*
X94222744Y-67900414D01*
X93472744Y-67900414D02*
X93472744Y-67150414D01*
X90650414Y-53170112D02*
X91400414Y-53420112D01*
X91400414Y-53420112D02*
X90650414Y-53670112D01*
X91328985Y-54348683D02*
X91364700Y-54312969D01*
X91364700Y-54312969D02*
X91400414Y-54205826D01*
X91400414Y-54205826D02*
X91400414Y-54134398D01*
X91400414Y-54134398D02*
X91364700Y-54027255D01*
X91364700Y-54027255D02*
X91293271Y-53955826D01*
X91293271Y-53955826D02*
X91221842Y-53920112D01*
X91221842Y-53920112D02*
X91078985Y-53884398D01*
X91078985Y-53884398D02*
X90971842Y-53884398D01*
X90971842Y-53884398D02*
X90828985Y-53920112D01*
X90828985Y-53920112D02*
X90757557Y-53955826D01*
X90757557Y-53955826D02*
X90686128Y-54027255D01*
X90686128Y-54027255D02*
X90650414Y-54134398D01*
X90650414Y-54134398D02*
X90650414Y-54205826D01*
X90650414Y-54205826D02*
X90686128Y-54312969D01*
X90686128Y-54312969D02*
X90721842Y-54348683D01*
X91328985Y-55098683D02*
X91364700Y-55062969D01*
X91364700Y-55062969D02*
X91400414Y-54955826D01*
X91400414Y-54955826D02*
X91400414Y-54884398D01*
X91400414Y-54884398D02*
X91364700Y-54777255D01*
X91364700Y-54777255D02*
X91293271Y-54705826D01*
X91293271Y-54705826D02*
X91221842Y-54670112D01*
X91221842Y-54670112D02*
X91078985Y-54634398D01*
X91078985Y-54634398D02*
X90971842Y-54634398D01*
X90971842Y-54634398D02*
X90828985Y-54670112D01*
X90828985Y-54670112D02*
X90757557Y-54705826D01*
X90757557Y-54705826D02*
X90686128Y-54777255D01*
X90686128Y-54777255D02*
X90650414Y-54884398D01*
X90650414Y-54884398D02*
X90650414Y-54955826D01*
X90650414Y-54955826D02*
X90686128Y-55062969D01*
X90686128Y-55062969D02*
X90721842Y-55098683D01*
D12*
X91892855Y-74432309D02*
X91892855Y-73932309D01*
X91892855Y-73932309D02*
X91702379Y-73932309D01*
X91702379Y-73932309D02*
X91654760Y-73956119D01*
X91654760Y-73956119D02*
X91630950Y-73979928D01*
X91630950Y-73979928D02*
X91607141Y-74027547D01*
X91607141Y-74027547D02*
X91607141Y-74098976D01*
X91607141Y-74098976D02*
X91630950Y-74146595D01*
X91630950Y-74146595D02*
X91654760Y-74170404D01*
X91654760Y-74170404D02*
X91702379Y-74194214D01*
X91702379Y-74194214D02*
X91892855Y-74194214D01*
X91107141Y-74384690D02*
X91130950Y-74408500D01*
X91130950Y-74408500D02*
X91202379Y-74432309D01*
X91202379Y-74432309D02*
X91249998Y-74432309D01*
X91249998Y-74432309D02*
X91321426Y-74408500D01*
X91321426Y-74408500D02*
X91369045Y-74360880D01*
X91369045Y-74360880D02*
X91392855Y-74313261D01*
X91392855Y-74313261D02*
X91416664Y-74218023D01*
X91416664Y-74218023D02*
X91416664Y-74146595D01*
X91416664Y-74146595D02*
X91392855Y-74051357D01*
X91392855Y-74051357D02*
X91369045Y-74003738D01*
X91369045Y-74003738D02*
X91321426Y-73956119D01*
X91321426Y-73956119D02*
X91249998Y-73932309D01*
X91249998Y-73932309D02*
X91202379Y-73932309D01*
X91202379Y-73932309D02*
X91130950Y-73956119D01*
X91130950Y-73956119D02*
X91107141Y-73979928D01*
X90726188Y-74170404D02*
X90654760Y-74194214D01*
X90654760Y-74194214D02*
X90630950Y-74218023D01*
X90630950Y-74218023D02*
X90607141Y-74265642D01*
X90607141Y-74265642D02*
X90607141Y-74337071D01*
X90607141Y-74337071D02*
X90630950Y-74384690D01*
X90630950Y-74384690D02*
X90654760Y-74408500D01*
X90654760Y-74408500D02*
X90702379Y-74432309D01*
X90702379Y-74432309D02*
X90892855Y-74432309D01*
X90892855Y-74432309D02*
X90892855Y-73932309D01*
X90892855Y-73932309D02*
X90726188Y-73932309D01*
X90726188Y-73932309D02*
X90678569Y-73956119D01*
X90678569Y-73956119D02*
X90654760Y-73979928D01*
X90654760Y-73979928D02*
X90630950Y-74027547D01*
X90630950Y-74027547D02*
X90630950Y-74075166D01*
X90630950Y-74075166D02*
X90654760Y-74122785D01*
X90654760Y-74122785D02*
X90678569Y-74146595D01*
X90678569Y-74146595D02*
X90726188Y-74170404D01*
X90726188Y-74170404D02*
X90892855Y-74170404D01*
X90392855Y-74384690D02*
X90369045Y-74408500D01*
X90369045Y-74408500D02*
X90392855Y-74432309D01*
X90392855Y-74432309D02*
X90416664Y-74408500D01*
X90416664Y-74408500D02*
X90392855Y-74384690D01*
X90392855Y-74384690D02*
X90392855Y-74432309D01*
X90392855Y-74122785D02*
X90369045Y-74146595D01*
X90369045Y-74146595D02*
X90392855Y-74170404D01*
X90392855Y-74170404D02*
X90416664Y-74146595D01*
X90416664Y-74146595D02*
X90392855Y-74122785D01*
X90392855Y-74122785D02*
X90392855Y-74170404D01*
X89511903Y-74432309D02*
X89797617Y-74432309D01*
X89654760Y-74432309D02*
X89654760Y-73932309D01*
X89654760Y-73932309D02*
X89702379Y-74003738D01*
X89702379Y-74003738D02*
X89749998Y-74051357D01*
X89749998Y-74051357D02*
X89797617Y-74075166D01*
X89297618Y-74384690D02*
X89273808Y-74408500D01*
X89273808Y-74408500D02*
X89297618Y-74432309D01*
X89297618Y-74432309D02*
X89321427Y-74408500D01*
X89321427Y-74408500D02*
X89297618Y-74384690D01*
X89297618Y-74384690D02*
X89297618Y-74432309D01*
X88964285Y-73932309D02*
X88916666Y-73932309D01*
X88916666Y-73932309D02*
X88869047Y-73956119D01*
X88869047Y-73956119D02*
X88845237Y-73979928D01*
X88845237Y-73979928D02*
X88821428Y-74027547D01*
X88821428Y-74027547D02*
X88797618Y-74122785D01*
X88797618Y-74122785D02*
X88797618Y-74241833D01*
X88797618Y-74241833D02*
X88821428Y-74337071D01*
X88821428Y-74337071D02*
X88845237Y-74384690D01*
X88845237Y-74384690D02*
X88869047Y-74408500D01*
X88869047Y-74408500D02*
X88916666Y-74432309D01*
X88916666Y-74432309D02*
X88964285Y-74432309D01*
X88964285Y-74432309D02*
X89011904Y-74408500D01*
X89011904Y-74408500D02*
X89035713Y-74384690D01*
X89035713Y-74384690D02*
X89059523Y-74337071D01*
X89059523Y-74337071D02*
X89083332Y-74241833D01*
X89083332Y-74241833D02*
X89083332Y-74122785D01*
X89083332Y-74122785D02*
X89059523Y-74027547D01*
X89059523Y-74027547D02*
X89035713Y-73979928D01*
X89035713Y-73979928D02*
X89011904Y-73956119D01*
X89011904Y-73956119D02*
X88964285Y-73932309D01*
X88583333Y-74384690D02*
X88559523Y-74408500D01*
X88559523Y-74408500D02*
X88583333Y-74432309D01*
X88583333Y-74432309D02*
X88607142Y-74408500D01*
X88607142Y-74408500D02*
X88583333Y-74384690D01*
X88583333Y-74384690D02*
X88583333Y-74432309D01*
X88250000Y-73932309D02*
X88202381Y-73932309D01*
X88202381Y-73932309D02*
X88154762Y-73956119D01*
X88154762Y-73956119D02*
X88130952Y-73979928D01*
X88130952Y-73979928D02*
X88107143Y-74027547D01*
X88107143Y-74027547D02*
X88083333Y-74122785D01*
X88083333Y-74122785D02*
X88083333Y-74241833D01*
X88083333Y-74241833D02*
X88107143Y-74337071D01*
X88107143Y-74337071D02*
X88130952Y-74384690D01*
X88130952Y-74384690D02*
X88154762Y-74408500D01*
X88154762Y-74408500D02*
X88202381Y-74432309D01*
X88202381Y-74432309D02*
X88250000Y-74432309D01*
X88250000Y-74432309D02*
X88297619Y-74408500D01*
X88297619Y-74408500D02*
X88321428Y-74384690D01*
X88321428Y-74384690D02*
X88345238Y-74337071D01*
X88345238Y-74337071D02*
X88369047Y-74241833D01*
X88369047Y-74241833D02*
X88369047Y-74122785D01*
X88369047Y-74122785D02*
X88345238Y-74027547D01*
X88345238Y-74027547D02*
X88321428Y-73979928D01*
X88321428Y-73979928D02*
X88297619Y-73956119D01*
X88297619Y-73956119D02*
X88250000Y-73932309D01*
D11*
X84722744Y-69400414D02*
X84722744Y-68650414D01*
X84722744Y-68650414D02*
X84544173Y-68650414D01*
X84544173Y-68650414D02*
X84437030Y-68686128D01*
X84437030Y-68686128D02*
X84365601Y-68757557D01*
X84365601Y-68757557D02*
X84329887Y-68828985D01*
X84329887Y-68828985D02*
X84294173Y-68971842D01*
X84294173Y-68971842D02*
X84294173Y-69078985D01*
X84294173Y-69078985D02*
X84329887Y-69221842D01*
X84329887Y-69221842D02*
X84365601Y-69293271D01*
X84365601Y-69293271D02*
X84437030Y-69364700D01*
X84437030Y-69364700D02*
X84544173Y-69400414D01*
X84544173Y-69400414D02*
X84722744Y-69400414D01*
X83829887Y-68650414D02*
X83687030Y-68650414D01*
X83687030Y-68650414D02*
X83615601Y-68686128D01*
X83615601Y-68686128D02*
X83544173Y-68757557D01*
X83544173Y-68757557D02*
X83508458Y-68900414D01*
X83508458Y-68900414D02*
X83508458Y-69150414D01*
X83508458Y-69150414D02*
X83544173Y-69293271D01*
X83544173Y-69293271D02*
X83615601Y-69364700D01*
X83615601Y-69364700D02*
X83687030Y-69400414D01*
X83687030Y-69400414D02*
X83829887Y-69400414D01*
X83829887Y-69400414D02*
X83901316Y-69364700D01*
X83901316Y-69364700D02*
X83972744Y-69293271D01*
X83972744Y-69293271D02*
X84008458Y-69150414D01*
X84008458Y-69150414D02*
X84008458Y-68900414D01*
X84008458Y-68900414D02*
X83972744Y-68757557D01*
X83972744Y-68757557D02*
X83901316Y-68686128D01*
X83901316Y-68686128D02*
X83829887Y-68650414D01*
X85603569Y-46692914D02*
X85603569Y-45942914D01*
X85603569Y-45942914D02*
X85317855Y-45942914D01*
X85317855Y-45942914D02*
X85246426Y-45978628D01*
X85246426Y-45978628D02*
X85210712Y-46014342D01*
X85210712Y-46014342D02*
X85174998Y-46085771D01*
X85174998Y-46085771D02*
X85174998Y-46192914D01*
X85174998Y-46192914D02*
X85210712Y-46264342D01*
X85210712Y-46264342D02*
X85246426Y-46300057D01*
X85246426Y-46300057D02*
X85317855Y-46335771D01*
X85317855Y-46335771D02*
X85603569Y-46335771D01*
X84567855Y-46657200D02*
X84639283Y-46692914D01*
X84639283Y-46692914D02*
X84782141Y-46692914D01*
X84782141Y-46692914D02*
X84853569Y-46657200D01*
X84853569Y-46657200D02*
X84889283Y-46585771D01*
X84889283Y-46585771D02*
X84889283Y-46300057D01*
X84889283Y-46300057D02*
X84853569Y-46228628D01*
X84853569Y-46228628D02*
X84782141Y-46192914D01*
X84782141Y-46192914D02*
X84639283Y-46192914D01*
X84639283Y-46192914D02*
X84567855Y-46228628D01*
X84567855Y-46228628D02*
X84532141Y-46300057D01*
X84532141Y-46300057D02*
X84532141Y-46371485D01*
X84532141Y-46371485D02*
X84889283Y-46442914D01*
X83889284Y-46692914D02*
X83889284Y-45942914D01*
X83889284Y-46657200D02*
X83960712Y-46692914D01*
X83960712Y-46692914D02*
X84103569Y-46692914D01*
X84103569Y-46692914D02*
X84174998Y-46657200D01*
X84174998Y-46657200D02*
X84210712Y-46621485D01*
X84210712Y-46621485D02*
X84246426Y-46550057D01*
X84246426Y-46550057D02*
X84246426Y-46335771D01*
X84246426Y-46335771D02*
X84210712Y-46264342D01*
X84210712Y-46264342D02*
X84174998Y-46228628D01*
X84174998Y-46228628D02*
X84103569Y-46192914D01*
X84103569Y-46192914D02*
X83960712Y-46192914D01*
X83960712Y-46192914D02*
X83889284Y-46228628D01*
X83210713Y-46692914D02*
X83210713Y-46300057D01*
X83210713Y-46300057D02*
X83246427Y-46228628D01*
X83246427Y-46228628D02*
X83317855Y-46192914D01*
X83317855Y-46192914D02*
X83460713Y-46192914D01*
X83460713Y-46192914D02*
X83532141Y-46228628D01*
X83210713Y-46657200D02*
X83282141Y-46692914D01*
X83282141Y-46692914D02*
X83460713Y-46692914D01*
X83460713Y-46692914D02*
X83532141Y-46657200D01*
X83532141Y-46657200D02*
X83567855Y-46585771D01*
X83567855Y-46585771D02*
X83567855Y-46514342D01*
X83567855Y-46514342D02*
X83532141Y-46442914D01*
X83532141Y-46442914D02*
X83460713Y-46407200D01*
X83460713Y-46407200D02*
X83282141Y-46407200D01*
X83282141Y-46407200D02*
X83210713Y-46371485D01*
X82746427Y-46692914D02*
X82817856Y-46657200D01*
X82817856Y-46657200D02*
X82853570Y-46585771D01*
X82853570Y-46585771D02*
X82853570Y-45942914D01*
X82460713Y-46692914D02*
X82460713Y-45942914D01*
X82460713Y-46228628D02*
X82389285Y-46192914D01*
X82389285Y-46192914D02*
X82246427Y-46192914D01*
X82246427Y-46192914D02*
X82174999Y-46228628D01*
X82174999Y-46228628D02*
X82139285Y-46264342D01*
X82139285Y-46264342D02*
X82103570Y-46335771D01*
X82103570Y-46335771D02*
X82103570Y-46550057D01*
X82103570Y-46550057D02*
X82139285Y-46621485D01*
X82139285Y-46621485D02*
X82174999Y-46657200D01*
X82174999Y-46657200D02*
X82246427Y-46692914D01*
X82246427Y-46692914D02*
X82389285Y-46692914D01*
X82389285Y-46692914D02*
X82460713Y-46657200D01*
X81674999Y-46692914D02*
X81746428Y-46657200D01*
X81746428Y-46657200D02*
X81782142Y-46621485D01*
X81782142Y-46621485D02*
X81817856Y-46550057D01*
X81817856Y-46550057D02*
X81817856Y-46335771D01*
X81817856Y-46335771D02*
X81782142Y-46264342D01*
X81782142Y-46264342D02*
X81746428Y-46228628D01*
X81746428Y-46228628D02*
X81674999Y-46192914D01*
X81674999Y-46192914D02*
X81567856Y-46192914D01*
X81567856Y-46192914D02*
X81496428Y-46228628D01*
X81496428Y-46228628D02*
X81460714Y-46264342D01*
X81460714Y-46264342D02*
X81424999Y-46335771D01*
X81424999Y-46335771D02*
X81424999Y-46550057D01*
X81424999Y-46550057D02*
X81460714Y-46621485D01*
X81460714Y-46621485D02*
X81496428Y-46657200D01*
X81496428Y-46657200D02*
X81567856Y-46692914D01*
X81567856Y-46692914D02*
X81674999Y-46692914D01*
X80782143Y-46692914D02*
X80782143Y-46300057D01*
X80782143Y-46300057D02*
X80817857Y-46228628D01*
X80817857Y-46228628D02*
X80889285Y-46192914D01*
X80889285Y-46192914D02*
X81032143Y-46192914D01*
X81032143Y-46192914D02*
X81103571Y-46228628D01*
X80782143Y-46657200D02*
X80853571Y-46692914D01*
X80853571Y-46692914D02*
X81032143Y-46692914D01*
X81032143Y-46692914D02*
X81103571Y-46657200D01*
X81103571Y-46657200D02*
X81139285Y-46585771D01*
X81139285Y-46585771D02*
X81139285Y-46514342D01*
X81139285Y-46514342D02*
X81103571Y-46442914D01*
X81103571Y-46442914D02*
X81032143Y-46407200D01*
X81032143Y-46407200D02*
X80853571Y-46407200D01*
X80853571Y-46407200D02*
X80782143Y-46371485D01*
X80425000Y-46692914D02*
X80425000Y-46192914D01*
X80425000Y-46335771D02*
X80389286Y-46264342D01*
X80389286Y-46264342D02*
X80353572Y-46228628D01*
X80353572Y-46228628D02*
X80282143Y-46192914D01*
X80282143Y-46192914D02*
X80210714Y-46192914D01*
X79639286Y-46692914D02*
X79639286Y-45942914D01*
X79639286Y-46657200D02*
X79710714Y-46692914D01*
X79710714Y-46692914D02*
X79853571Y-46692914D01*
X79853571Y-46692914D02*
X79925000Y-46657200D01*
X79925000Y-46657200D02*
X79960714Y-46621485D01*
X79960714Y-46621485D02*
X79996428Y-46550057D01*
X79996428Y-46550057D02*
X79996428Y-46335771D01*
X79996428Y-46335771D02*
X79960714Y-46264342D01*
X79960714Y-46264342D02*
X79925000Y-46228628D01*
X79925000Y-46228628D02*
X79853571Y-46192914D01*
X79853571Y-46192914D02*
X79710714Y-46192914D01*
X79710714Y-46192914D02*
X79639286Y-46228628D01*
X78353571Y-46692914D02*
X78710714Y-46692914D01*
X78710714Y-46692914D02*
X78710714Y-45942914D01*
X78103571Y-46300057D02*
X77853571Y-46300057D01*
X77746428Y-46692914D02*
X78103571Y-46692914D01*
X78103571Y-46692914D02*
X78103571Y-45942914D01*
X78103571Y-45942914D02*
X77746428Y-45942914D01*
X77425000Y-46692914D02*
X77425000Y-45942914D01*
X77425000Y-45942914D02*
X77246429Y-45942914D01*
X77246429Y-45942914D02*
X77139286Y-45978628D01*
X77139286Y-45978628D02*
X77067857Y-46050057D01*
X77067857Y-46050057D02*
X77032143Y-46121485D01*
X77032143Y-46121485D02*
X76996429Y-46264342D01*
X76996429Y-46264342D02*
X76996429Y-46371485D01*
X76996429Y-46371485D02*
X77032143Y-46514342D01*
X77032143Y-46514342D02*
X77067857Y-46585771D01*
X77067857Y-46585771D02*
X77139286Y-46657200D01*
X77139286Y-46657200D02*
X77246429Y-46692914D01*
X77246429Y-46692914D02*
X77425000Y-46692914D01*
X75675000Y-46692914D02*
X75925000Y-46335771D01*
X76103571Y-46692914D02*
X76103571Y-45942914D01*
X76103571Y-45942914D02*
X75817857Y-45942914D01*
X75817857Y-45942914D02*
X75746428Y-45978628D01*
X75746428Y-45978628D02*
X75710714Y-46014342D01*
X75710714Y-46014342D02*
X75675000Y-46085771D01*
X75675000Y-46085771D02*
X75675000Y-46192914D01*
X75675000Y-46192914D02*
X75710714Y-46264342D01*
X75710714Y-46264342D02*
X75746428Y-46300057D01*
X75746428Y-46300057D02*
X75817857Y-46335771D01*
X75817857Y-46335771D02*
X76103571Y-46335771D01*
X75353571Y-46692914D02*
X75353571Y-46192914D01*
X75353571Y-45942914D02*
X75389285Y-45978628D01*
X75389285Y-45978628D02*
X75353571Y-46014342D01*
X75353571Y-46014342D02*
X75317857Y-45978628D01*
X75317857Y-45978628D02*
X75353571Y-45942914D01*
X75353571Y-45942914D02*
X75353571Y-46014342D01*
X74996428Y-46192914D02*
X74996428Y-46692914D01*
X74996428Y-46264342D02*
X74960714Y-46228628D01*
X74960714Y-46228628D02*
X74889285Y-46192914D01*
X74889285Y-46192914D02*
X74782142Y-46192914D01*
X74782142Y-46192914D02*
X74710714Y-46228628D01*
X74710714Y-46228628D02*
X74675000Y-46300057D01*
X74675000Y-46300057D02*
X74675000Y-46692914D01*
X73996429Y-46192914D02*
X73996429Y-46800057D01*
X73996429Y-46800057D02*
X74032143Y-46871485D01*
X74032143Y-46871485D02*
X74067857Y-46907200D01*
X74067857Y-46907200D02*
X74139286Y-46942914D01*
X74139286Y-46942914D02*
X74246429Y-46942914D01*
X74246429Y-46942914D02*
X74317857Y-46907200D01*
X73996429Y-46657200D02*
X74067857Y-46692914D01*
X74067857Y-46692914D02*
X74210714Y-46692914D01*
X74210714Y-46692914D02*
X74282143Y-46657200D01*
X74282143Y-46657200D02*
X74317857Y-46621485D01*
X74317857Y-46621485D02*
X74353571Y-46550057D01*
X74353571Y-46550057D02*
X74353571Y-46335771D01*
X74353571Y-46335771D02*
X74317857Y-46264342D01*
X74317857Y-46264342D02*
X74282143Y-46228628D01*
X74282143Y-46228628D02*
X74210714Y-46192914D01*
X74210714Y-46192914D02*
X74067857Y-46192914D01*
X74067857Y-46192914D02*
X73996429Y-46228628D01*
X88603567Y-47900414D02*
X88603567Y-47150414D01*
X88282139Y-47900414D02*
X88282139Y-47507557D01*
X88282139Y-47507557D02*
X88317853Y-47436128D01*
X88317853Y-47436128D02*
X88389281Y-47400414D01*
X88389281Y-47400414D02*
X88496424Y-47400414D01*
X88496424Y-47400414D02*
X88567853Y-47436128D01*
X88567853Y-47436128D02*
X88603567Y-47471842D01*
X88032139Y-47400414D02*
X87746425Y-47400414D01*
X87924996Y-47150414D02*
X87924996Y-47793271D01*
X87924996Y-47793271D02*
X87889282Y-47864700D01*
X87889282Y-47864700D02*
X87817853Y-47900414D01*
X87817853Y-47900414D02*
X87746425Y-47900414D01*
X87603568Y-47400414D02*
X87317854Y-47400414D01*
X87496425Y-47150414D02*
X87496425Y-47793271D01*
X87496425Y-47793271D02*
X87460711Y-47864700D01*
X87460711Y-47864700D02*
X87389282Y-47900414D01*
X87389282Y-47900414D02*
X87317854Y-47900414D01*
X87067854Y-47400414D02*
X87067854Y-48150414D01*
X87067854Y-47436128D02*
X86996426Y-47400414D01*
X86996426Y-47400414D02*
X86853568Y-47400414D01*
X86853568Y-47400414D02*
X86782140Y-47436128D01*
X86782140Y-47436128D02*
X86746426Y-47471842D01*
X86746426Y-47471842D02*
X86710711Y-47543271D01*
X86710711Y-47543271D02*
X86710711Y-47757557D01*
X86710711Y-47757557D02*
X86746426Y-47828985D01*
X86746426Y-47828985D02*
X86782140Y-47864700D01*
X86782140Y-47864700D02*
X86853568Y-47900414D01*
X86853568Y-47900414D02*
X86996426Y-47900414D01*
X86996426Y-47900414D02*
X87067854Y-47864700D01*
X86424997Y-47864700D02*
X86353569Y-47900414D01*
X86353569Y-47900414D02*
X86210712Y-47900414D01*
X86210712Y-47900414D02*
X86139283Y-47864700D01*
X86139283Y-47864700D02*
X86103569Y-47793271D01*
X86103569Y-47793271D02*
X86103569Y-47757557D01*
X86103569Y-47757557D02*
X86139283Y-47686128D01*
X86139283Y-47686128D02*
X86210712Y-47650414D01*
X86210712Y-47650414D02*
X86317855Y-47650414D01*
X86317855Y-47650414D02*
X86389283Y-47614700D01*
X86389283Y-47614700D02*
X86424997Y-47543271D01*
X86424997Y-47543271D02*
X86424997Y-47507557D01*
X86424997Y-47507557D02*
X86389283Y-47436128D01*
X86389283Y-47436128D02*
X86317855Y-47400414D01*
X86317855Y-47400414D02*
X86210712Y-47400414D01*
X86210712Y-47400414D02*
X86139283Y-47436128D01*
X85782140Y-47828985D02*
X85746426Y-47864700D01*
X85746426Y-47864700D02*
X85782140Y-47900414D01*
X85782140Y-47900414D02*
X85817854Y-47864700D01*
X85817854Y-47864700D02*
X85782140Y-47828985D01*
X85782140Y-47828985D02*
X85782140Y-47900414D01*
X85782140Y-47436128D02*
X85746426Y-47471842D01*
X85746426Y-47471842D02*
X85782140Y-47507557D01*
X85782140Y-47507557D02*
X85817854Y-47471842D01*
X85817854Y-47471842D02*
X85782140Y-47436128D01*
X85782140Y-47436128D02*
X85782140Y-47507557D01*
X84889283Y-47114700D02*
X85532140Y-48078985D01*
X84103569Y-47114700D02*
X84746426Y-48078985D01*
X83532141Y-47400414D02*
X83532141Y-48007557D01*
X83532141Y-48007557D02*
X83567855Y-48078985D01*
X83567855Y-48078985D02*
X83603569Y-48114700D01*
X83603569Y-48114700D02*
X83674998Y-48150414D01*
X83674998Y-48150414D02*
X83782141Y-48150414D01*
X83782141Y-48150414D02*
X83853569Y-48114700D01*
X83532141Y-47864700D02*
X83603569Y-47900414D01*
X83603569Y-47900414D02*
X83746426Y-47900414D01*
X83746426Y-47900414D02*
X83817855Y-47864700D01*
X83817855Y-47864700D02*
X83853569Y-47828985D01*
X83853569Y-47828985D02*
X83889283Y-47757557D01*
X83889283Y-47757557D02*
X83889283Y-47543271D01*
X83889283Y-47543271D02*
X83853569Y-47471842D01*
X83853569Y-47471842D02*
X83817855Y-47436128D01*
X83817855Y-47436128D02*
X83746426Y-47400414D01*
X83746426Y-47400414D02*
X83603569Y-47400414D01*
X83603569Y-47400414D02*
X83532141Y-47436128D01*
X83174998Y-47900414D02*
X83174998Y-47400414D01*
X83174998Y-47150414D02*
X83210712Y-47186128D01*
X83210712Y-47186128D02*
X83174998Y-47221842D01*
X83174998Y-47221842D02*
X83139284Y-47186128D01*
X83139284Y-47186128D02*
X83174998Y-47150414D01*
X83174998Y-47150414D02*
X83174998Y-47221842D01*
X82924998Y-47400414D02*
X82639284Y-47400414D01*
X82817855Y-47150414D02*
X82817855Y-47793271D01*
X82817855Y-47793271D02*
X82782141Y-47864700D01*
X82782141Y-47864700D02*
X82710712Y-47900414D01*
X82710712Y-47900414D02*
X82639284Y-47900414D01*
X82389284Y-47900414D02*
X82389284Y-47150414D01*
X82067856Y-47900414D02*
X82067856Y-47507557D01*
X82067856Y-47507557D02*
X82103570Y-47436128D01*
X82103570Y-47436128D02*
X82174998Y-47400414D01*
X82174998Y-47400414D02*
X82282141Y-47400414D01*
X82282141Y-47400414D02*
X82353570Y-47436128D01*
X82353570Y-47436128D02*
X82389284Y-47471842D01*
X81389285Y-47400414D02*
X81389285Y-47900414D01*
X81710713Y-47400414D02*
X81710713Y-47793271D01*
X81710713Y-47793271D02*
X81674999Y-47864700D01*
X81674999Y-47864700D02*
X81603570Y-47900414D01*
X81603570Y-47900414D02*
X81496427Y-47900414D01*
X81496427Y-47900414D02*
X81424999Y-47864700D01*
X81424999Y-47864700D02*
X81389285Y-47828985D01*
X81032142Y-47900414D02*
X81032142Y-47150414D01*
X81032142Y-47436128D02*
X80960714Y-47400414D01*
X80960714Y-47400414D02*
X80817856Y-47400414D01*
X80817856Y-47400414D02*
X80746428Y-47436128D01*
X80746428Y-47436128D02*
X80710714Y-47471842D01*
X80710714Y-47471842D02*
X80674999Y-47543271D01*
X80674999Y-47543271D02*
X80674999Y-47757557D01*
X80674999Y-47757557D02*
X80710714Y-47828985D01*
X80710714Y-47828985D02*
X80746428Y-47864700D01*
X80746428Y-47864700D02*
X80817856Y-47900414D01*
X80817856Y-47900414D02*
X80960714Y-47900414D01*
X80960714Y-47900414D02*
X81032142Y-47864700D01*
X80353571Y-47828985D02*
X80317857Y-47864700D01*
X80317857Y-47864700D02*
X80353571Y-47900414D01*
X80353571Y-47900414D02*
X80389285Y-47864700D01*
X80389285Y-47864700D02*
X80353571Y-47828985D01*
X80353571Y-47828985D02*
X80353571Y-47900414D01*
X79675000Y-47864700D02*
X79746428Y-47900414D01*
X79746428Y-47900414D02*
X79889285Y-47900414D01*
X79889285Y-47900414D02*
X79960714Y-47864700D01*
X79960714Y-47864700D02*
X79996428Y-47828985D01*
X79996428Y-47828985D02*
X80032142Y-47757557D01*
X80032142Y-47757557D02*
X80032142Y-47543271D01*
X80032142Y-47543271D02*
X79996428Y-47471842D01*
X79996428Y-47471842D02*
X79960714Y-47436128D01*
X79960714Y-47436128D02*
X79889285Y-47400414D01*
X79889285Y-47400414D02*
X79746428Y-47400414D01*
X79746428Y-47400414D02*
X79675000Y-47436128D01*
X79246428Y-47900414D02*
X79317857Y-47864700D01*
X79317857Y-47864700D02*
X79353571Y-47828985D01*
X79353571Y-47828985D02*
X79389285Y-47757557D01*
X79389285Y-47757557D02*
X79389285Y-47543271D01*
X79389285Y-47543271D02*
X79353571Y-47471842D01*
X79353571Y-47471842D02*
X79317857Y-47436128D01*
X79317857Y-47436128D02*
X79246428Y-47400414D01*
X79246428Y-47400414D02*
X79139285Y-47400414D01*
X79139285Y-47400414D02*
X79067857Y-47436128D01*
X79067857Y-47436128D02*
X79032143Y-47471842D01*
X79032143Y-47471842D02*
X78996428Y-47543271D01*
X78996428Y-47543271D02*
X78996428Y-47757557D01*
X78996428Y-47757557D02*
X79032143Y-47828985D01*
X79032143Y-47828985D02*
X79067857Y-47864700D01*
X79067857Y-47864700D02*
X79139285Y-47900414D01*
X79139285Y-47900414D02*
X79246428Y-47900414D01*
X78675000Y-47900414D02*
X78675000Y-47400414D01*
X78675000Y-47471842D02*
X78639286Y-47436128D01*
X78639286Y-47436128D02*
X78567857Y-47400414D01*
X78567857Y-47400414D02*
X78460714Y-47400414D01*
X78460714Y-47400414D02*
X78389286Y-47436128D01*
X78389286Y-47436128D02*
X78353572Y-47507557D01*
X78353572Y-47507557D02*
X78353572Y-47900414D01*
X78353572Y-47507557D02*
X78317857Y-47436128D01*
X78317857Y-47436128D02*
X78246429Y-47400414D01*
X78246429Y-47400414D02*
X78139286Y-47400414D01*
X78139286Y-47400414D02*
X78067857Y-47436128D01*
X78067857Y-47436128D02*
X78032143Y-47507557D01*
X78032143Y-47507557D02*
X78032143Y-47900414D01*
X77139286Y-47114700D02*
X77782143Y-48078985D01*
X76889286Y-47400414D02*
X76889286Y-48150414D01*
X76889286Y-47436128D02*
X76817858Y-47400414D01*
X76817858Y-47400414D02*
X76675000Y-47400414D01*
X76675000Y-47400414D02*
X76603572Y-47436128D01*
X76603572Y-47436128D02*
X76567858Y-47471842D01*
X76567858Y-47471842D02*
X76532143Y-47543271D01*
X76532143Y-47543271D02*
X76532143Y-47757557D01*
X76532143Y-47757557D02*
X76567858Y-47828985D01*
X76567858Y-47828985D02*
X76603572Y-47864700D01*
X76603572Y-47864700D02*
X76675000Y-47900414D01*
X76675000Y-47900414D02*
X76817858Y-47900414D01*
X76817858Y-47900414D02*
X76889286Y-47864700D01*
X75925001Y-47864700D02*
X75996429Y-47900414D01*
X75996429Y-47900414D02*
X76139287Y-47900414D01*
X76139287Y-47900414D02*
X76210715Y-47864700D01*
X76210715Y-47864700D02*
X76246429Y-47793271D01*
X76246429Y-47793271D02*
X76246429Y-47507557D01*
X76246429Y-47507557D02*
X76210715Y-47436128D01*
X76210715Y-47436128D02*
X76139287Y-47400414D01*
X76139287Y-47400414D02*
X75996429Y-47400414D01*
X75996429Y-47400414D02*
X75925001Y-47436128D01*
X75925001Y-47436128D02*
X75889287Y-47507557D01*
X75889287Y-47507557D02*
X75889287Y-47578985D01*
X75889287Y-47578985D02*
X76246429Y-47650414D01*
X75246430Y-47900414D02*
X75246430Y-47150414D01*
X75246430Y-47864700D02*
X75317858Y-47900414D01*
X75317858Y-47900414D02*
X75460715Y-47900414D01*
X75460715Y-47900414D02*
X75532144Y-47864700D01*
X75532144Y-47864700D02*
X75567858Y-47828985D01*
X75567858Y-47828985D02*
X75603572Y-47757557D01*
X75603572Y-47757557D02*
X75603572Y-47543271D01*
X75603572Y-47543271D02*
X75567858Y-47471842D01*
X75567858Y-47471842D02*
X75532144Y-47436128D01*
X75532144Y-47436128D02*
X75460715Y-47400414D01*
X75460715Y-47400414D02*
X75317858Y-47400414D01*
X75317858Y-47400414D02*
X75246430Y-47436128D01*
X74567859Y-47900414D02*
X74567859Y-47507557D01*
X74567859Y-47507557D02*
X74603573Y-47436128D01*
X74603573Y-47436128D02*
X74675001Y-47400414D01*
X74675001Y-47400414D02*
X74817859Y-47400414D01*
X74817859Y-47400414D02*
X74889287Y-47436128D01*
X74567859Y-47864700D02*
X74639287Y-47900414D01*
X74639287Y-47900414D02*
X74817859Y-47900414D01*
X74817859Y-47900414D02*
X74889287Y-47864700D01*
X74889287Y-47864700D02*
X74925001Y-47793271D01*
X74925001Y-47793271D02*
X74925001Y-47721842D01*
X74925001Y-47721842D02*
X74889287Y-47650414D01*
X74889287Y-47650414D02*
X74817859Y-47614700D01*
X74817859Y-47614700D02*
X74639287Y-47614700D01*
X74639287Y-47614700D02*
X74567859Y-47578985D01*
X74103573Y-47900414D02*
X74175002Y-47864700D01*
X74175002Y-47864700D02*
X74210716Y-47793271D01*
X74210716Y-47793271D02*
X74210716Y-47150414D01*
X73817859Y-47900414D02*
X73817859Y-47150414D01*
X73817859Y-47436128D02*
X73746431Y-47400414D01*
X73746431Y-47400414D02*
X73603573Y-47400414D01*
X73603573Y-47400414D02*
X73532145Y-47436128D01*
X73532145Y-47436128D02*
X73496431Y-47471842D01*
X73496431Y-47471842D02*
X73460716Y-47543271D01*
X73460716Y-47543271D02*
X73460716Y-47757557D01*
X73460716Y-47757557D02*
X73496431Y-47828985D01*
X73496431Y-47828985D02*
X73532145Y-47864700D01*
X73532145Y-47864700D02*
X73603573Y-47900414D01*
X73603573Y-47900414D02*
X73746431Y-47900414D01*
X73746431Y-47900414D02*
X73817859Y-47864700D01*
X73032145Y-47900414D02*
X73103574Y-47864700D01*
X73103574Y-47864700D02*
X73139288Y-47828985D01*
X73139288Y-47828985D02*
X73175002Y-47757557D01*
X73175002Y-47757557D02*
X73175002Y-47543271D01*
X73175002Y-47543271D02*
X73139288Y-47471842D01*
X73139288Y-47471842D02*
X73103574Y-47436128D01*
X73103574Y-47436128D02*
X73032145Y-47400414D01*
X73032145Y-47400414D02*
X72925002Y-47400414D01*
X72925002Y-47400414D02*
X72853574Y-47436128D01*
X72853574Y-47436128D02*
X72817860Y-47471842D01*
X72817860Y-47471842D02*
X72782145Y-47543271D01*
X72782145Y-47543271D02*
X72782145Y-47757557D01*
X72782145Y-47757557D02*
X72817860Y-47828985D01*
X72817860Y-47828985D02*
X72853574Y-47864700D01*
X72853574Y-47864700D02*
X72925002Y-47900414D01*
X72925002Y-47900414D02*
X73032145Y-47900414D01*
X72139289Y-47900414D02*
X72139289Y-47507557D01*
X72139289Y-47507557D02*
X72175003Y-47436128D01*
X72175003Y-47436128D02*
X72246431Y-47400414D01*
X72246431Y-47400414D02*
X72389289Y-47400414D01*
X72389289Y-47400414D02*
X72460717Y-47436128D01*
X72139289Y-47864700D02*
X72210717Y-47900414D01*
X72210717Y-47900414D02*
X72389289Y-47900414D01*
X72389289Y-47900414D02*
X72460717Y-47864700D01*
X72460717Y-47864700D02*
X72496431Y-47793271D01*
X72496431Y-47793271D02*
X72496431Y-47721842D01*
X72496431Y-47721842D02*
X72460717Y-47650414D01*
X72460717Y-47650414D02*
X72389289Y-47614700D01*
X72389289Y-47614700D02*
X72210717Y-47614700D01*
X72210717Y-47614700D02*
X72139289Y-47578985D01*
X71782146Y-47900414D02*
X71782146Y-47400414D01*
X71782146Y-47543271D02*
X71746432Y-47471842D01*
X71746432Y-47471842D02*
X71710718Y-47436128D01*
X71710718Y-47436128D02*
X71639289Y-47400414D01*
X71639289Y-47400414D02*
X71567860Y-47400414D01*
X70996432Y-47900414D02*
X70996432Y-47150414D01*
X70996432Y-47864700D02*
X71067860Y-47900414D01*
X71067860Y-47900414D02*
X71210717Y-47900414D01*
X71210717Y-47900414D02*
X71282146Y-47864700D01*
X71282146Y-47864700D02*
X71317860Y-47828985D01*
X71317860Y-47828985D02*
X71353574Y-47757557D01*
X71353574Y-47757557D02*
X71353574Y-47543271D01*
X71353574Y-47543271D02*
X71317860Y-47471842D01*
X71317860Y-47471842D02*
X71282146Y-47436128D01*
X71282146Y-47436128D02*
X71210717Y-47400414D01*
X71210717Y-47400414D02*
X71067860Y-47400414D01*
X71067860Y-47400414D02*
X70996432Y-47436128D01*
D13*
X87940000Y-62060000D02*
X87940000Y-57940000D01*
X88240000Y-62060000D02*
X87940000Y-62060000D01*
X90240000Y-62060000D02*
X89760000Y-62060000D01*
X92060000Y-62060000D02*
X91760000Y-62060000D01*
X92060000Y-62060000D02*
X92060000Y-57940000D01*
X88240000Y-57940000D02*
X87940000Y-57940000D01*
X90240000Y-57940000D02*
X89760000Y-57940000D01*
X91760000Y-57940000D02*
X91760000Y-55560000D01*
X92060000Y-57940000D02*
X91760000Y-57940000D01*
X87940000Y-67940000D02*
X92060000Y-67940000D01*
X87940000Y-68240000D02*
X87940000Y-67940000D01*
X87940000Y-70240000D02*
X87940000Y-69760000D01*
X87940000Y-72060000D02*
X87940000Y-71760000D01*
X87940000Y-72060000D02*
X92060000Y-72060000D01*
X92060000Y-68240000D02*
X92060000Y-67940000D01*
X92060000Y-70240000D02*
X92060000Y-69760000D01*
X92060000Y-71760000D02*
X94440000Y-71760000D01*
X92060000Y-72060000D02*
X92060000Y-71760000D01*
M02*
