<?xml version="1.0" standalone="no"?>
 <!DOCTYPE svg PUBLIC "-//W3C//DTD SVG 1.1//EN" 
 "http://www.w3.org/Graphics/SVG/1.1/DTD/svg11.dtd"> 
<svg
  xmlns:svg="http://www.w3.org/2000/svg"
  xmlns="http://www.w3.org/2000/svg"
  xmlns:xlink="http://www.w3.org/1999/xlink"
  version="1.1"
  width="297.0022mm" height="210.0072mm" viewBox="0.0000 0.0000 297.0022 210.0072">
<title>SVG Image created as pedalboard-led-ring-B_Silkscreen.svg date 2023/05/26 17:23:59 </title>
  <desc>Image generated by PCBNEW </desc>
<g style="fill:#000000; fill-opacity:1.0000;stroke:#000000; stroke-opacity:1.0000;
stroke-linecap:round; stroke-linejoin:round;"
 transform="translate(0 0) scale(1 1)">
</g>
<g style="fill:#000000; fill-opacity:0.0; 
stroke:#000000; stroke-width:0.0000; stroke-opacity:1; 
stroke-linecap:round; stroke-linejoin:round;">
</g>
<g style="fill:#000000; fill-opacity:0.0; 
stroke:#000000; stroke-width:0.1000; stroke-opacity:1; 
stroke-linecap:round; stroke-linejoin:round;">
<circle cx="217.0022" cy="60.0000" r="7.0500" /> 
</g>
<g style="fill:#000000; fill-opacity:0.0; 
stroke:#000000; stroke-width:0.1500; stroke-opacity:1; 
stroke-linecap:round; stroke-linejoin:round;">
<text x="204.9022" y="49.8000"
transform="scale(-1 1) translate(-409.804400 0)"
textLength="2.1750" font-size="1.3333" lengthAdjust="spacingAndGlyphs"
text-anchor="middle" opacity="0">U1</text>
<g class="stroked-text"><desc>U1</desc>
<path d="M204.1403 48.7626
L204.1403 49.5721
" />
<path d="M204.1403 49.5721
L204.1879 49.6674
" />
<path d="M204.1879 49.6674
L204.2355 49.7150
" />
<path d="M204.2355 49.7150
L204.3308 49.7626
" />
<path d="M204.3308 49.7626
L204.5212 49.7626
" />
<path d="M204.5212 49.7626
L204.6165 49.7150
" />
<path d="M204.6165 49.7150
L204.6641 49.6674
" />
<path d="M204.6641 49.6674
L204.7117 49.5721
" />
<path d="M204.7117 49.5721
L204.7117 48.7626
" />
<path d="M205.7117 49.7626
L205.1403 49.7626
" />
<path d="M205.4260 49.7626
L205.4260 48.7626
" />
<path d="M205.4260 48.7626
L205.3308 48.9055
" />
<path d="M205.3308 48.9055
L205.2355 49.0007
" />
<path d="M205.2355 49.0007
L205.1403 49.0483
" />
</g><text x="208.7022" y="65.4000"
transform="scale(-1 1) translate(-417.404400 0)"
textLength="1.9369" font-size="1.3333" lengthAdjust="spacingAndGlyphs"
text-anchor="middle" opacity="0">L1</text>
<g class="stroked-text"><desc>L1</desc>
<path d="M208.5355 65.3626
L208.0593 65.3626
" />
<path d="M208.0593 65.3626
L208.0593 64.3626
" />
<path d="M209.3927 65.3626
L208.8212 65.3626
" />
<path d="M209.1070 65.3626
L209.1070 64.3626
" />
<path d="M209.1070 64.3626
L209.0117 64.5055
" />
<path d="M209.0117 64.5055
L208.9165 64.6007
" />
<path d="M208.9165 64.6007
L208.8212 64.6483
" />
</g><text x="205.1022" y="61.9500"
transform="scale(-1 1) translate(-410.204400 0)"
textLength="2.1274" font-size="1.3333" lengthAdjust="spacingAndGlyphs"
text-anchor="middle" opacity="0">C1</text>
<g class="stroked-text"><desc>C1</desc>
<path d="M204.9355 61.8174
L204.8879 61.8650
" />
<path d="M204.8879 61.8650
L204.7451 61.9126
" />
<path d="M204.7451 61.9126
L204.6498 61.9126
" />
<path d="M204.6498 61.9126
L204.5070 61.8650
" />
<path d="M204.5070 61.8650
L204.4117 61.7698
" />
<path d="M204.4117 61.7698
L204.3641 61.6745
" />
<path d="M204.3641 61.6745
L204.3165 61.4840
" />
<path d="M204.3165 61.4840
L204.3165 61.3412
" />
<path d="M204.3165 61.3412
L204.3641 61.1507
" />
<path d="M204.3641 61.1507
L204.4117 61.0555
" />
<path d="M204.4117 61.0555
L204.5070 60.9602
" />
<path d="M204.5070 60.9602
L204.6498 60.9126
" />
<path d="M204.6498 60.9126
L204.7451 60.9126
" />
<path d="M204.7451 60.9126
L204.8879 60.9602
" />
<path d="M204.8879 60.9602
L204.9355 61.0079
" />
<path d="M205.8879 61.9126
L205.3165 61.9126
" />
<path d="M205.6022 61.9126
L205.6022 60.9126
" />
<path d="M205.6022 60.9126
L205.5070 61.0555
" />
<path d="M205.5070 61.0555
L205.4117 61.1507
" />
<path d="M205.4117 61.1507
L205.3165 61.1983
" />
</g><text x="195.2022" y="72.4000"
transform="scale(-1 1) translate(-390.404400 0)"
textLength="1.8893" font-size="1.3333" lengthAdjust="spacingAndGlyphs"
text-anchor="middle" opacity="0">J1</text>
<g class="stroked-text"><desc>J1</desc>
<path d="M194.8689 71.3626
L194.8689 72.0769
" />
<path d="M194.8689 72.0769
L194.8212 72.2198
" />
<path d="M194.8212 72.2198
L194.7260 72.3150
" />
<path d="M194.7260 72.3150
L194.5832 72.3626
" />
<path d="M194.5832 72.3626
L194.4879 72.3626
" />
<path d="M195.8689 72.3626
L195.2974 72.3626
" />
<path d="M195.5832 72.3626
L195.5832 71.3626
" />
<path d="M195.5832 71.3626
L195.4879 71.5055
" />
<path d="M195.4879 71.5055
L195.3927 71.6007
" />
<path d="M195.3927 71.6007
L195.2974 71.6483
" />
</g><g transform="rotate(-90.000000 214.3022 72.8000)">
<text x="214.3022" y="73.1250"
transform="scale(-1 1) translate(-428.604400 0)"
textLength="1.5140" font-size="0.8667" lengthAdjust="spacingAndGlyphs"
text-anchor="middle" opacity="0">R2</text>
</g>
<g class="stroked-text"><desc>R2</desc>
<path d="M214.0015 72.6917
L214.3110 72.4750
" />
<path d="M214.0015 72.3202
L214.6515 72.3202
" />
<path d="M214.6515 72.3202
L214.6515 72.5679
" />
<path d="M214.6515 72.5679
L214.6205 72.6298
" />
<path d="M214.6205 72.6298
L214.5896 72.6607
" />
<path d="M214.5896 72.6607
L214.5277 72.6917
" />
<path d="M214.5277 72.6917
L214.4348 72.6917
" />
<path d="M214.4348 72.6917
L214.3729 72.6607
" />
<path d="M214.3729 72.6607
L214.3420 72.6298
" />
<path d="M214.3420 72.6298
L214.3110 72.5679
" />
<path d="M214.3110 72.5679
L214.3110 72.3202
" />
<path d="M214.5896 72.9393
L214.6205 72.9702
" />
<path d="M214.6205 72.9702
L214.6515 73.0321
" />
<path d="M214.6515 73.0321
L214.6515 73.1869
" />
<path d="M214.6515 73.1869
L214.6205 73.2488
" />
<path d="M214.6205 73.2488
L214.5896 73.2798
" />
<path d="M214.5896 73.2798
L214.5277 73.3107
" />
<path d="M214.5277 73.3107
L214.4658 73.3107
" />
<path d="M214.4658 73.3107
L214.3729 73.2798
" />
<path d="M214.3729 73.2798
L214.0015 72.9083
" />
<path d="M214.0015 72.9083
L214.0015 73.3107
" />
</g><g transform="rotate(-90.000000 195.7022 53.1000)">
<text x="195.7022" y="53.4250"
transform="scale(-1 1) translate(-391.404400 0)"
textLength="1.5140" font-size="0.8667" lengthAdjust="spacingAndGlyphs"
text-anchor="middle" opacity="0">R1</text>
</g>
<g class="stroked-text"><desc>R1</desc>
<path d="M195.4015 52.9917
L195.7110 52.7750
" />
<path d="M195.4015 52.6202
L196.0515 52.6202
" />
<path d="M196.0515 52.6202
L196.0515 52.8679
" />
<path d="M196.0515 52.8679
L196.0205 52.9298
" />
<path d="M196.0205 52.9298
L195.9896 52.9607
" />
<path d="M195.9896 52.9607
L195.9277 52.9917
" />
<path d="M195.9277 52.9917
L195.8348 52.9917
" />
<path d="M195.8348 52.9917
L195.7729 52.9607
" />
<path d="M195.7729 52.9607
L195.7420 52.9298
" />
<path d="M195.7420 52.9298
L195.7110 52.8679
" />
<path d="M195.7110 52.8679
L195.7110 52.6202
" />
<path d="M195.4015 53.6107
L195.4015 53.2393
" />
<path d="M195.4015 53.4250
L196.0515 53.4250
" />
<path d="M196.0515 53.4250
L195.9586 53.3631
" />
<path d="M195.9586 53.3631
L195.8967 53.3012
" />
<path d="M195.8967 53.3012
L195.8658 53.2393
" />
</g><text x="208.6522" y="73.9000"
transform="scale(-1 1) translate(-417.304400 0)"
textLength="1.6350" font-size="0.9333" lengthAdjust="spacingAndGlyphs"
text-anchor="middle" opacity="0">U2</text>
<g class="stroked-text"><desc>U2</desc>
<path d="M208.1189 73.1738
L208.1189 73.7405
" />
<path d="M208.1189 73.7405
L208.1522 73.8072
" />
<path d="M208.1522 73.8072
L208.1855 73.8405
" />
<path d="M208.1855 73.8405
L208.2522 73.8738
" />
<path d="M208.2522 73.8738
L208.3855 73.8738
" />
<path d="M208.3855 73.8738
L208.4522 73.8405
" />
<path d="M208.4522 73.8405
L208.4855 73.8072
" />
<path d="M208.4855 73.8072
L208.5189 73.7405
" />
<path d="M208.5189 73.7405
L208.5189 73.1738
" />
<path d="M208.8189 73.2405
L208.8522 73.2072
" />
<path d="M208.8522 73.2072
L208.9189 73.1738
" />
<path d="M208.9189 73.1738
L209.0855 73.1738
" />
<path d="M209.0855 73.1738
L209.1522 73.2072
" />
<path d="M209.1522 73.2072
L209.1855 73.2405
" />
<path d="M209.1855 73.2405
L209.2189 73.3072
" />
<path d="M209.2189 73.3072
L209.2189 73.3738
" />
<path d="M209.2189 73.3738
L209.1855 73.4738
" />
<path d="M209.1855 73.4738
L208.7855 73.8738
" />
<path d="M208.7855 73.8738
L209.2189 73.8738
" />
</g><g transform="rotate(-90.000000 200.8822 57.5000)">
<text x="200.8822" y="58.0000"
transform="scale(-1 1) translate(-401.764400 0)"
textLength="2.1274" font-size="1.3333" lengthAdjust="spacingAndGlyphs"
text-anchor="middle" opacity="0">C2</text>
</g>
<g class="stroked-text"><desc>C2</desc>
<path d="M200.5148 57.3333
L200.4672 57.2857
" />
<path d="M200.4672 57.2857
L200.4196 57.1429
" />
<path d="M200.4196 57.1429
L200.4196 57.0476
" />
<path d="M200.4196 57.0476
L200.4672 56.9048
" />
<path d="M200.4672 56.9048
L200.5624 56.8095
" />
<path d="M200.5624 56.8095
L200.6577 56.7619
" />
<path d="M200.6577 56.7619
L200.8482 56.7143
" />
<path d="M200.8482 56.7143
L200.9910 56.7143
" />
<path d="M200.9910 56.7143
L201.1815 56.7619
" />
<path d="M201.1815 56.7619
L201.2767 56.8095
" />
<path d="M201.2767 56.8095
L201.3720 56.9048
" />
<path d="M201.3720 56.9048
L201.4196 57.0476
" />
<path d="M201.4196 57.0476
L201.4196 57.1429
" />
<path d="M201.4196 57.1429
L201.3720 57.2857
" />
<path d="M201.3720 57.2857
L201.3243 57.3333
" />
<path d="M201.3243 57.7143
L201.3720 57.7619
" />
<path d="M201.3720 57.7619
L201.4196 57.8571
" />
<path d="M201.4196 57.8571
L201.4196 58.0952
" />
<path d="M201.4196 58.0952
L201.3720 58.1905
" />
<path d="M201.3720 58.1905
L201.3243 58.2381
" />
<path d="M201.3243 58.2381
L201.2291 58.2857
" />
<path d="M201.2291 58.2857
L201.1339 58.2857
" />
<path d="M201.1339 58.2857
L200.9910 58.2381
" />
<path d="M200.9910 58.2381
L200.4196 57.6667
" />
<path d="M200.4196 57.6667
L200.4196 58.2857
" />
</g><text x="213.9022" y="68.0000"
transform="scale(-1 1) translate(-427.804400 0)"
textLength="2.1274" font-size="1.3333" lengthAdjust="spacingAndGlyphs"
text-anchor="middle" opacity="0">C4</text>
<g class="stroked-text"><desc>C4</desc>
<path d="M213.7355 67.8674
L213.6879 67.9150
" />
<path d="M213.6879 67.9150
L213.5451 67.9626
" />
<path d="M213.5451 67.9626
L213.4498 67.9626
" />
<path d="M213.4498 67.9626
L213.3070 67.9150
" />
<path d="M213.3070 67.9150
L213.2117 67.8198
" />
<path d="M213.2117 67.8198
L213.1641 67.7245
" />
<path d="M213.1641 67.7245
L213.1165 67.5340
" />
<path d="M213.1165 67.5340
L213.1165 67.3912
" />
<path d="M213.1165 67.3912
L213.1641 67.2007
" />
<path d="M213.1641 67.2007
L213.2117 67.1055
" />
<path d="M213.2117 67.1055
L213.3070 67.0102
" />
<path d="M213.3070 67.0102
L213.4498 66.9626
" />
<path d="M213.4498 66.9626
L213.5451 66.9626
" />
<path d="M213.5451 66.9626
L213.6879 67.0102
" />
<path d="M213.6879 67.0102
L213.7355 67.0579
" />
<path d="M214.5927 67.2960
L214.5927 67.9626
" />
<path d="M214.3546 66.9150
L214.1165 67.6293
" />
<path d="M214.1165 67.6293
L214.7355 67.6293
" />
</g><text x="204.7022" y="73.7000"
transform="scale(-1 1) translate(-409.404400 0)"
textLength="2.1274" font-size="1.3333" lengthAdjust="spacingAndGlyphs"
text-anchor="middle" opacity="0">C3</text>
<g class="stroked-text"><desc>C3</desc>
<path d="M204.5355 73.5674
L204.4879 73.6150
" />
<path d="M204.4879 73.6150
L204.3451 73.6626
" />
<path d="M204.3451 73.6626
L204.2498 73.6626
" />
<path d="M204.2498 73.6626
L204.1070 73.6150
" />
<path d="M204.1070 73.6150
L204.0117 73.5198
" />
<path d="M204.0117 73.5198
L203.9641 73.4245
" />
<path d="M203.9641 73.4245
L203.9165 73.2340
" />
<path d="M203.9165 73.2340
L203.9165 73.0912
" />
<path d="M203.9165 73.0912
L203.9641 72.9007
" />
<path d="M203.9641 72.9007
L204.0117 72.8055
" />
<path d="M204.0117 72.8055
L204.1070 72.7102
" />
<path d="M204.1070 72.7102
L204.2498 72.6626
" />
<path d="M204.2498 72.6626
L204.3451 72.6626
" />
<path d="M204.3451 72.6626
L204.4879 72.7102
" />
<path d="M204.4879 72.7102
L204.5355 72.7579
" />
<path d="M204.8689 72.6626
L205.4879 72.6626
" />
<path d="M205.4879 72.6626
L205.1546 73.0436
" />
<path d="M205.1546 73.0436
L205.2974 73.0436
" />
<path d="M205.2974 73.0436
L205.3927 73.0912
" />
<path d="M205.3927 73.0912
L205.4403 73.1388
" />
<path d="M205.4403 73.1388
L205.4879 73.2340
" />
<path d="M205.4879 73.2340
L205.4879 73.4721
" />
<path d="M205.4879 73.4721
L205.4403 73.5674
" />
<path d="M205.4403 73.5674
L205.3927 73.6150
" />
<path d="M205.3927 73.6150
L205.2974 73.6626
" />
<path d="M205.2974 73.6626
L205.0117 73.6626
" />
<path d="M205.0117 73.6626
L204.9165 73.6150
" />
<path d="M204.9165 73.6150
L204.8689 73.5674
" />
</g></g>
<g style="fill:#000000; fill-opacity:0.0; 
stroke:#000000; stroke-width:0.1200; stroke-opacity:1; 
stroke-linecap:round; stroke-linejoin:round;">
<path d="M202.1022 50.2400
L204.0522 50.2400
" />
<path d="M202.1022 50.2400
L200.1522 50.2400
" />
<path d="M202.1022 55.3600
L205.5522 55.3600
" />
<path d="M202.1022 55.3600
L200.1522 55.3600
" />
</g>
<g style="fill:#000000; fill-opacity:0.0; 
stroke:#000000; stroke-width:0.1270; stroke-opacity:1; 
stroke-linecap:round; stroke-linejoin:round;">
<path d="M210.7022 68.4135
L207.5022 68.4135
" />
<path d="M207.5022 65.7865
L210.7022 65.7865
" />
</g>
<g style="fill:#000000; fill-opacity:0.0; 
stroke:#000000; stroke-width:0.1200; stroke-opacity:1; 
stroke-linecap:round; stroke-linejoin:round;">
<path d="M205.8135 58.6900
L204.3909 58.6900
" />
<path d="M205.8135 60.5100
L204.3909 60.5100
" />
<path d="M196.6322 65.4000
L196.6322 70.6000
" />
<path d="M197.2022 65.4000
L196.6322 65.4000
" />
<path d="M199.7422 65.4000
L198.7222 65.4000
" />
<path d="M202.2822 65.4000
L201.2622 65.4000
" />
<path d="M204.3722 65.4000
L203.8022 65.4000
" />
<path d="M204.3722 65.4000
L204.3722 70.6000
" />
<path d="M197.2022 70.6000
L196.6322 70.6000
" />
<path d="M199.7422 70.6000
L198.7222 70.6000
" />
<path d="M202.2822 70.6000
L201.2622 70.6000
" />
<path d="M203.8022 70.6000
L203.8022 71.9600
" />
<path d="M204.3722 70.6000
L203.8022 70.6000
" />
</g>
<g style="fill:#000000; fill-opacity:0.0; 
stroke:#000000; stroke-width:0.1500; stroke-opacity:1; 
stroke-linecap:round; stroke-linejoin:round;">
<path d="M213.7022 71.1500
L213.7022 72.8500
" />
<path d="M212.3022 72.8500
L212.3022 71.1500
" />
<path d="M196.5022 53.4500
L196.5022 51.7500
" />
<path d="M197.9022 51.7500
L197.9022 53.4500
" />
<path d="M209.6022 73.6250
L211.6022 73.6250
" />
<path d="M210.6022 70.3750
L211.6022 70.3750
" />
</g>
<g style="fill:#000000; fill-opacity:0.0; 
stroke:#000000; stroke-width:0.1200; stroke-opacity:1; 
stroke-linecap:round; stroke-linejoin:round;">
<path d="M198.4672 57.2387
L198.4672 57.7613
" />
<path d="M199.9372 57.2387
L199.9372 57.7613
" />
<path d="M213.8409 70.0350
L214.3635 70.0350
" />
<path d="M213.8409 68.5650
L214.3635 68.5650
" />
<path d="M207.9122 71.8113
L207.9122 70.3887
" />
<path d="M206.0922 71.8113
L206.0922 70.3887
" />
<g >
</g>
<g >
</g>
<g >
</g>
<g >
</g>
<g >
</g>
<g >
</g>
<g >
</g>
<g >
</g>
<g >
</g>
<g >
</g>
<g >
</g>
<g >
</g>
<g >
</g>
<g >
</g>
<g >
</g>
<g >
</g>
<g >
</g>
<g >
</g>
<g >
</g>
</g> 
</svg>
