<?xml version="1.0" standalone="no"?>
 <!DOCTYPE svg PUBLIC "-//W3C//DTD SVG 1.1//EN" 
 "http://www.w3.org/Graphics/SVG/1.1/DTD/svg11.dtd"> 
<svg
  xmlns:svg="http://www.w3.org/2000/svg"
  xmlns="http://www.w3.org/2000/svg"
  xmlns:xlink="http://www.w3.org/1999/xlink"
  version="1.1"
  width="297.0022mm" height="210.0072mm" viewBox="0.0000 0.0000 297.0022 210.0072">
<title>SVG Image created as pedalboard-led-ring-Edge_Cuts.svg date 2023/06/20 15:30:18 </title>
  <desc>Image generated by PCBNEW </desc>
<g style="fill:#000000; fill-opacity:1.0000;stroke:#000000; stroke-opacity:1.0000;
stroke-linecap:round; stroke-linejoin:round;"
 transform="translate(0 0) scale(1 1)">
</g>
<g style="fill:#000000; fill-opacity:0.0; 
stroke:#000000; stroke-width:0.0000; stroke-opacity:1; 
stroke-linecap:round; stroke-linejoin:round;">
</g>
<g style="fill:#000000; fill-opacity:0.0; 
stroke:#000000; stroke-width:0.1000; stroke-opacity:1; 
stroke-linecap:round; stroke-linejoin:round;">
<path d="M228.0022 72.0000 A1.0000 1.0000 0.0 0 0 229.0022 71.0000" />
<circle cx="217.0022" cy="60.0000" r="6.1000" /> 
<path d="M205.0022 49.0000
L205.0022 71.0000
" />
<path d="M229.0022 71.0000
L229.0022 49.0000
" />
<path d="M205.0022 71.0000 A1.0000 1.0000 0.0 0 0 206.0022 72.0000" />
<path d="M228.0022 48.0000
L206.0022 48.0000
" />
<path d="M206.0022 72.0000
L228.0022 72.0000
" />
<path d="M229.0022 49.0000 A1.0000 1.0000 0.0 0 0 228.0022 48.0000" />
<path d="M206.0022 48.0000 A1.0000 1.0000 0.0 0 0 205.0022 49.0000" />
<g >
</g>
<g >
</g>
<g >
</g>
<g >
</g>
<g >
</g>
<g >
</g>
<g >
</g>
<g >
</g>
<g >
</g>
<g >
</g>
<g >
</g>
<g >
</g>
<g >
</g>
<g >
</g>
<g >
</g>
<g >
</g>
<g >
</g>
<g >
</g>
<g >
</g>
<g >
</g>
<g >
</g>
<g >
</g>
<g >
</g>
<g >
</g>
<g >
</g>
<g >
</g>
<g >
</g>
<g >
</g>
<g >
</g>
<g >
</g>
<g >
</g>
<g >
</g>
<g >
</g>
<g >
</g>
<g >
</g>
<g >
</g>
</g> 
</svg>
