G04 #@! TF.GenerationSoftware,KiCad,Pcbnew,7.0.9-7.0.9~ubuntu23.04.1*
G04 #@! TF.CreationDate,2024-01-08T22:13:00+00:00*
G04 #@! TF.ProjectId,pedalboard-led-ring,70656461-6c62-46f6-9172-642d6c65642d,1.1.0-RC1*
G04 #@! TF.SameCoordinates,Original*
G04 #@! TF.FileFunction,Legend,Bot*
G04 #@! TF.FilePolarity,Positive*
%FSLAX46Y46*%
G04 Gerber Fmt 4.6, Leading zero omitted, Abs format (unit mm)*
G04 Created by KiCad (PCBNEW 7.0.9-7.0.9~ubuntu23.04.1) date 2024-01-08 22:13:00*
%MOMM*%
%LPD*%
G01*
G04 APERTURE LIST*
%ADD10C,0.100000*%
%ADD11C,0.120000*%
G04 APERTURE END LIST*
D10*
X87050000Y-60000000D02*
G75*
G03*
X87050000Y-60000000I-7050000J0D01*
G01*
X88203609Y-55384836D02*
X87703609Y-55384836D01*
X87703609Y-55384836D02*
X87703609Y-55503884D01*
X87703609Y-55503884D02*
X87727419Y-55575312D01*
X87727419Y-55575312D02*
X87775038Y-55622931D01*
X87775038Y-55622931D02*
X87822657Y-55646741D01*
X87822657Y-55646741D02*
X87917895Y-55670550D01*
X87917895Y-55670550D02*
X87989323Y-55670550D01*
X87989323Y-55670550D02*
X88084561Y-55646741D01*
X88084561Y-55646741D02*
X88132180Y-55622931D01*
X88132180Y-55622931D02*
X88179800Y-55575312D01*
X88179800Y-55575312D02*
X88203609Y-55503884D01*
X88203609Y-55503884D02*
X88203609Y-55384836D01*
X88203609Y-55884836D02*
X87703609Y-55884836D01*
X88121371Y-62708646D02*
X87521371Y-62708646D01*
X87521371Y-62708646D02*
X87521371Y-62851503D01*
X87521371Y-62851503D02*
X87549942Y-62937217D01*
X87549942Y-62937217D02*
X87607085Y-62994360D01*
X87607085Y-62994360D02*
X87664228Y-63022931D01*
X87664228Y-63022931D02*
X87778514Y-63051503D01*
X87778514Y-63051503D02*
X87864228Y-63051503D01*
X87864228Y-63051503D02*
X87978514Y-63022931D01*
X87978514Y-63022931D02*
X88035657Y-62994360D01*
X88035657Y-62994360D02*
X88092800Y-62937217D01*
X88092800Y-62937217D02*
X88121371Y-62851503D01*
X88121371Y-62851503D02*
X88121371Y-62708646D01*
X87521371Y-63422931D02*
X87521371Y-63480074D01*
X87521371Y-63480074D02*
X87549942Y-63537217D01*
X87549942Y-63537217D02*
X87578514Y-63565789D01*
X87578514Y-63565789D02*
X87635657Y-63594360D01*
X87635657Y-63594360D02*
X87749942Y-63622931D01*
X87749942Y-63622931D02*
X87892800Y-63622931D01*
X87892800Y-63622931D02*
X88007085Y-63594360D01*
X88007085Y-63594360D02*
X88064228Y-63565789D01*
X88064228Y-63565789D02*
X88092800Y-63537217D01*
X88092800Y-63537217D02*
X88121371Y-63480074D01*
X88121371Y-63480074D02*
X88121371Y-63422931D01*
X88121371Y-63422931D02*
X88092800Y-63365789D01*
X88092800Y-63365789D02*
X88064228Y-63337217D01*
X88064228Y-63337217D02*
X88007085Y-63308646D01*
X88007085Y-63308646D02*
X87892800Y-63280074D01*
X87892800Y-63280074D02*
X87749942Y-63280074D01*
X87749942Y-63280074D02*
X87635657Y-63308646D01*
X87635657Y-63308646D02*
X87578514Y-63337217D01*
X87578514Y-63337217D02*
X87549942Y-63365789D01*
X87549942Y-63365789D02*
X87521371Y-63422931D01*
X89749942Y-62872931D02*
X89721371Y-62815789D01*
X89721371Y-62815789D02*
X89721371Y-62730074D01*
X89721371Y-62730074D02*
X89749942Y-62644360D01*
X89749942Y-62644360D02*
X89807085Y-62587217D01*
X89807085Y-62587217D02*
X89864228Y-62558646D01*
X89864228Y-62558646D02*
X89978514Y-62530074D01*
X89978514Y-62530074D02*
X90064228Y-62530074D01*
X90064228Y-62530074D02*
X90178514Y-62558646D01*
X90178514Y-62558646D02*
X90235657Y-62587217D01*
X90235657Y-62587217D02*
X90292800Y-62644360D01*
X90292800Y-62644360D02*
X90321371Y-62730074D01*
X90321371Y-62730074D02*
X90321371Y-62787217D01*
X90321371Y-62787217D02*
X90292800Y-62872931D01*
X90292800Y-62872931D02*
X90264228Y-62901503D01*
X90264228Y-62901503D02*
X90064228Y-62901503D01*
X90064228Y-62901503D02*
X90064228Y-62787217D01*
X90321371Y-63158646D02*
X89721371Y-63158646D01*
X89721371Y-63158646D02*
X90321371Y-63501503D01*
X90321371Y-63501503D02*
X89721371Y-63501503D01*
X90321371Y-63787217D02*
X89721371Y-63787217D01*
X89721371Y-63787217D02*
X89721371Y-63930074D01*
X89721371Y-63930074D02*
X89749942Y-64015788D01*
X89749942Y-64015788D02*
X89807085Y-64072931D01*
X89807085Y-64072931D02*
X89864228Y-64101502D01*
X89864228Y-64101502D02*
X89978514Y-64130074D01*
X89978514Y-64130074D02*
X90064228Y-64130074D01*
X90064228Y-64130074D02*
X90178514Y-64101502D01*
X90178514Y-64101502D02*
X90235657Y-64072931D01*
X90235657Y-64072931D02*
X90292800Y-64015788D01*
X90292800Y-64015788D02*
X90321371Y-63930074D01*
X90321371Y-63930074D02*
X90321371Y-63787217D01*
X72249133Y-51703336D02*
X71549133Y-51703336D01*
X72249133Y-52003336D02*
X71882466Y-52003336D01*
X71882466Y-52003336D02*
X71815800Y-51970003D01*
X71815800Y-51970003D02*
X71782466Y-51903336D01*
X71782466Y-51903336D02*
X71782466Y-51803336D01*
X71782466Y-51803336D02*
X71815800Y-51736670D01*
X71815800Y-51736670D02*
X71849133Y-51703336D01*
X71782466Y-52236669D02*
X71782466Y-52503336D01*
X71549133Y-52336669D02*
X72149133Y-52336669D01*
X72149133Y-52336669D02*
X72215800Y-52370003D01*
X72215800Y-52370003D02*
X72249133Y-52436669D01*
X72249133Y-52436669D02*
X72249133Y-52503336D01*
X71782466Y-52636669D02*
X71782466Y-52903336D01*
X71549133Y-52736669D02*
X72149133Y-52736669D01*
X72149133Y-52736669D02*
X72215800Y-52770003D01*
X72215800Y-52770003D02*
X72249133Y-52836669D01*
X72249133Y-52836669D02*
X72249133Y-52903336D01*
X71782466Y-53136669D02*
X72482466Y-53136669D01*
X71815800Y-53136669D02*
X71782466Y-53203336D01*
X71782466Y-53203336D02*
X71782466Y-53336669D01*
X71782466Y-53336669D02*
X71815800Y-53403336D01*
X71815800Y-53403336D02*
X71849133Y-53436669D01*
X71849133Y-53436669D02*
X71915800Y-53470003D01*
X71915800Y-53470003D02*
X72115800Y-53470003D01*
X72115800Y-53470003D02*
X72182466Y-53436669D01*
X72182466Y-53436669D02*
X72215800Y-53403336D01*
X72215800Y-53403336D02*
X72249133Y-53336669D01*
X72249133Y-53336669D02*
X72249133Y-53203336D01*
X72249133Y-53203336D02*
X72215800Y-53136669D01*
X72215800Y-53736669D02*
X72249133Y-53803336D01*
X72249133Y-53803336D02*
X72249133Y-53936669D01*
X72249133Y-53936669D02*
X72215800Y-54003336D01*
X72215800Y-54003336D02*
X72149133Y-54036669D01*
X72149133Y-54036669D02*
X72115800Y-54036669D01*
X72115800Y-54036669D02*
X72049133Y-54003336D01*
X72049133Y-54003336D02*
X72015800Y-53936669D01*
X72015800Y-53936669D02*
X72015800Y-53836669D01*
X72015800Y-53836669D02*
X71982466Y-53770002D01*
X71982466Y-53770002D02*
X71915800Y-53736669D01*
X71915800Y-53736669D02*
X71882466Y-53736669D01*
X71882466Y-53736669D02*
X71815800Y-53770002D01*
X71815800Y-53770002D02*
X71782466Y-53836669D01*
X71782466Y-53836669D02*
X71782466Y-53936669D01*
X71782466Y-53936669D02*
X71815800Y-54003336D01*
X72182466Y-54336669D02*
X72215800Y-54370003D01*
X72215800Y-54370003D02*
X72249133Y-54336669D01*
X72249133Y-54336669D02*
X72215800Y-54303336D01*
X72215800Y-54303336D02*
X72182466Y-54336669D01*
X72182466Y-54336669D02*
X72249133Y-54336669D01*
X71815800Y-54336669D02*
X71849133Y-54370003D01*
X71849133Y-54370003D02*
X71882466Y-54336669D01*
X71882466Y-54336669D02*
X71849133Y-54303336D01*
X71849133Y-54303336D02*
X71815800Y-54336669D01*
X71815800Y-54336669D02*
X71882466Y-54336669D01*
X71515800Y-55170002D02*
X72415800Y-54570002D01*
X71515800Y-55903335D02*
X72415800Y-55303335D01*
X71782466Y-56436668D02*
X72349133Y-56436668D01*
X72349133Y-56436668D02*
X72415800Y-56403335D01*
X72415800Y-56403335D02*
X72449133Y-56370002D01*
X72449133Y-56370002D02*
X72482466Y-56303335D01*
X72482466Y-56303335D02*
X72482466Y-56203335D01*
X72482466Y-56203335D02*
X72449133Y-56136668D01*
X72215800Y-56436668D02*
X72249133Y-56370002D01*
X72249133Y-56370002D02*
X72249133Y-56236668D01*
X72249133Y-56236668D02*
X72215800Y-56170002D01*
X72215800Y-56170002D02*
X72182466Y-56136668D01*
X72182466Y-56136668D02*
X72115800Y-56103335D01*
X72115800Y-56103335D02*
X71915800Y-56103335D01*
X71915800Y-56103335D02*
X71849133Y-56136668D01*
X71849133Y-56136668D02*
X71815800Y-56170002D01*
X71815800Y-56170002D02*
X71782466Y-56236668D01*
X71782466Y-56236668D02*
X71782466Y-56370002D01*
X71782466Y-56370002D02*
X71815800Y-56436668D01*
X72249133Y-56770001D02*
X71782466Y-56770001D01*
X71549133Y-56770001D02*
X71582466Y-56736668D01*
X71582466Y-56736668D02*
X71615800Y-56770001D01*
X71615800Y-56770001D02*
X71582466Y-56803335D01*
X71582466Y-56803335D02*
X71549133Y-56770001D01*
X71549133Y-56770001D02*
X71615800Y-56770001D01*
X71782466Y-57003334D02*
X71782466Y-57270001D01*
X71549133Y-57103334D02*
X72149133Y-57103334D01*
X72149133Y-57103334D02*
X72215800Y-57136668D01*
X72215800Y-57136668D02*
X72249133Y-57203334D01*
X72249133Y-57203334D02*
X72249133Y-57270001D01*
X72249133Y-57503334D02*
X71549133Y-57503334D01*
X72249133Y-57803334D02*
X71882466Y-57803334D01*
X71882466Y-57803334D02*
X71815800Y-57770001D01*
X71815800Y-57770001D02*
X71782466Y-57703334D01*
X71782466Y-57703334D02*
X71782466Y-57603334D01*
X71782466Y-57603334D02*
X71815800Y-57536668D01*
X71815800Y-57536668D02*
X71849133Y-57503334D01*
X71782466Y-58436667D02*
X72249133Y-58436667D01*
X71782466Y-58136667D02*
X72149133Y-58136667D01*
X72149133Y-58136667D02*
X72215800Y-58170001D01*
X72215800Y-58170001D02*
X72249133Y-58236667D01*
X72249133Y-58236667D02*
X72249133Y-58336667D01*
X72249133Y-58336667D02*
X72215800Y-58403334D01*
X72215800Y-58403334D02*
X72182466Y-58436667D01*
X72249133Y-58770000D02*
X71549133Y-58770000D01*
X71815800Y-58770000D02*
X71782466Y-58836667D01*
X71782466Y-58836667D02*
X71782466Y-58970000D01*
X71782466Y-58970000D02*
X71815800Y-59036667D01*
X71815800Y-59036667D02*
X71849133Y-59070000D01*
X71849133Y-59070000D02*
X71915800Y-59103334D01*
X71915800Y-59103334D02*
X72115800Y-59103334D01*
X72115800Y-59103334D02*
X72182466Y-59070000D01*
X72182466Y-59070000D02*
X72215800Y-59036667D01*
X72215800Y-59036667D02*
X72249133Y-58970000D01*
X72249133Y-58970000D02*
X72249133Y-58836667D01*
X72249133Y-58836667D02*
X72215800Y-58770000D01*
X72182466Y-59403333D02*
X72215800Y-59436667D01*
X72215800Y-59436667D02*
X72249133Y-59403333D01*
X72249133Y-59403333D02*
X72215800Y-59370000D01*
X72215800Y-59370000D02*
X72182466Y-59403333D01*
X72182466Y-59403333D02*
X72249133Y-59403333D01*
X72215800Y-60036666D02*
X72249133Y-59970000D01*
X72249133Y-59970000D02*
X72249133Y-59836666D01*
X72249133Y-59836666D02*
X72215800Y-59770000D01*
X72215800Y-59770000D02*
X72182466Y-59736666D01*
X72182466Y-59736666D02*
X72115800Y-59703333D01*
X72115800Y-59703333D02*
X71915800Y-59703333D01*
X71915800Y-59703333D02*
X71849133Y-59736666D01*
X71849133Y-59736666D02*
X71815800Y-59770000D01*
X71815800Y-59770000D02*
X71782466Y-59836666D01*
X71782466Y-59836666D02*
X71782466Y-59970000D01*
X71782466Y-59970000D02*
X71815800Y-60036666D01*
X72249133Y-60436666D02*
X72215800Y-60370000D01*
X72215800Y-60370000D02*
X72182466Y-60336666D01*
X72182466Y-60336666D02*
X72115800Y-60303333D01*
X72115800Y-60303333D02*
X71915800Y-60303333D01*
X71915800Y-60303333D02*
X71849133Y-60336666D01*
X71849133Y-60336666D02*
X71815800Y-60370000D01*
X71815800Y-60370000D02*
X71782466Y-60436666D01*
X71782466Y-60436666D02*
X71782466Y-60536666D01*
X71782466Y-60536666D02*
X71815800Y-60603333D01*
X71815800Y-60603333D02*
X71849133Y-60636666D01*
X71849133Y-60636666D02*
X71915800Y-60670000D01*
X71915800Y-60670000D02*
X72115800Y-60670000D01*
X72115800Y-60670000D02*
X72182466Y-60636666D01*
X72182466Y-60636666D02*
X72215800Y-60603333D01*
X72215800Y-60603333D02*
X72249133Y-60536666D01*
X72249133Y-60536666D02*
X72249133Y-60436666D01*
X72249133Y-60969999D02*
X71782466Y-60969999D01*
X71849133Y-60969999D02*
X71815800Y-61003333D01*
X71815800Y-61003333D02*
X71782466Y-61069999D01*
X71782466Y-61069999D02*
X71782466Y-61169999D01*
X71782466Y-61169999D02*
X71815800Y-61236666D01*
X71815800Y-61236666D02*
X71882466Y-61269999D01*
X71882466Y-61269999D02*
X72249133Y-61269999D01*
X71882466Y-61269999D02*
X71815800Y-61303333D01*
X71815800Y-61303333D02*
X71782466Y-61369999D01*
X71782466Y-61369999D02*
X71782466Y-61469999D01*
X71782466Y-61469999D02*
X71815800Y-61536666D01*
X71815800Y-61536666D02*
X71882466Y-61569999D01*
X71882466Y-61569999D02*
X72249133Y-61569999D01*
X71515800Y-62403332D02*
X72415800Y-61803332D01*
X71782466Y-62636665D02*
X72482466Y-62636665D01*
X71815800Y-62636665D02*
X71782466Y-62703332D01*
X71782466Y-62703332D02*
X71782466Y-62836665D01*
X71782466Y-62836665D02*
X71815800Y-62903332D01*
X71815800Y-62903332D02*
X71849133Y-62936665D01*
X71849133Y-62936665D02*
X71915800Y-62969999D01*
X71915800Y-62969999D02*
X72115800Y-62969999D01*
X72115800Y-62969999D02*
X72182466Y-62936665D01*
X72182466Y-62936665D02*
X72215800Y-62903332D01*
X72215800Y-62903332D02*
X72249133Y-62836665D01*
X72249133Y-62836665D02*
X72249133Y-62703332D01*
X72249133Y-62703332D02*
X72215800Y-62636665D01*
X72215800Y-63536665D02*
X72249133Y-63469998D01*
X72249133Y-63469998D02*
X72249133Y-63336665D01*
X72249133Y-63336665D02*
X72215800Y-63269998D01*
X72215800Y-63269998D02*
X72149133Y-63236665D01*
X72149133Y-63236665D02*
X71882466Y-63236665D01*
X71882466Y-63236665D02*
X71815800Y-63269998D01*
X71815800Y-63269998D02*
X71782466Y-63336665D01*
X71782466Y-63336665D02*
X71782466Y-63469998D01*
X71782466Y-63469998D02*
X71815800Y-63536665D01*
X71815800Y-63536665D02*
X71882466Y-63569998D01*
X71882466Y-63569998D02*
X71949133Y-63569998D01*
X71949133Y-63569998D02*
X72015800Y-63236665D01*
X72249133Y-64169998D02*
X71549133Y-64169998D01*
X72215800Y-64169998D02*
X72249133Y-64103332D01*
X72249133Y-64103332D02*
X72249133Y-63969998D01*
X72249133Y-63969998D02*
X72215800Y-63903332D01*
X72215800Y-63903332D02*
X72182466Y-63869998D01*
X72182466Y-63869998D02*
X72115800Y-63836665D01*
X72115800Y-63836665D02*
X71915800Y-63836665D01*
X71915800Y-63836665D02*
X71849133Y-63869998D01*
X71849133Y-63869998D02*
X71815800Y-63903332D01*
X71815800Y-63903332D02*
X71782466Y-63969998D01*
X71782466Y-63969998D02*
X71782466Y-64103332D01*
X71782466Y-64103332D02*
X71815800Y-64169998D01*
X72249133Y-64803331D02*
X71882466Y-64803331D01*
X71882466Y-64803331D02*
X71815800Y-64769998D01*
X71815800Y-64769998D02*
X71782466Y-64703331D01*
X71782466Y-64703331D02*
X71782466Y-64569998D01*
X71782466Y-64569998D02*
X71815800Y-64503331D01*
X72215800Y-64803331D02*
X72249133Y-64736665D01*
X72249133Y-64736665D02*
X72249133Y-64569998D01*
X72249133Y-64569998D02*
X72215800Y-64503331D01*
X72215800Y-64503331D02*
X72149133Y-64469998D01*
X72149133Y-64469998D02*
X72082466Y-64469998D01*
X72082466Y-64469998D02*
X72015800Y-64503331D01*
X72015800Y-64503331D02*
X71982466Y-64569998D01*
X71982466Y-64569998D02*
X71982466Y-64736665D01*
X71982466Y-64736665D02*
X71949133Y-64803331D01*
X72249133Y-65236664D02*
X72215800Y-65169998D01*
X72215800Y-65169998D02*
X72149133Y-65136664D01*
X72149133Y-65136664D02*
X71549133Y-65136664D01*
X72249133Y-65503331D02*
X71549133Y-65503331D01*
X71815800Y-65503331D02*
X71782466Y-65569998D01*
X71782466Y-65569998D02*
X71782466Y-65703331D01*
X71782466Y-65703331D02*
X71815800Y-65769998D01*
X71815800Y-65769998D02*
X71849133Y-65803331D01*
X71849133Y-65803331D02*
X71915800Y-65836665D01*
X71915800Y-65836665D02*
X72115800Y-65836665D01*
X72115800Y-65836665D02*
X72182466Y-65803331D01*
X72182466Y-65803331D02*
X72215800Y-65769998D01*
X72215800Y-65769998D02*
X72249133Y-65703331D01*
X72249133Y-65703331D02*
X72249133Y-65569998D01*
X72249133Y-65569998D02*
X72215800Y-65503331D01*
X72249133Y-66236664D02*
X72215800Y-66169998D01*
X72215800Y-66169998D02*
X72182466Y-66136664D01*
X72182466Y-66136664D02*
X72115800Y-66103331D01*
X72115800Y-66103331D02*
X71915800Y-66103331D01*
X71915800Y-66103331D02*
X71849133Y-66136664D01*
X71849133Y-66136664D02*
X71815800Y-66169998D01*
X71815800Y-66169998D02*
X71782466Y-66236664D01*
X71782466Y-66236664D02*
X71782466Y-66336664D01*
X71782466Y-66336664D02*
X71815800Y-66403331D01*
X71815800Y-66403331D02*
X71849133Y-66436664D01*
X71849133Y-66436664D02*
X71915800Y-66469998D01*
X71915800Y-66469998D02*
X72115800Y-66469998D01*
X72115800Y-66469998D02*
X72182466Y-66436664D01*
X72182466Y-66436664D02*
X72215800Y-66403331D01*
X72215800Y-66403331D02*
X72249133Y-66336664D01*
X72249133Y-66336664D02*
X72249133Y-66236664D01*
X72249133Y-67069997D02*
X71882466Y-67069997D01*
X71882466Y-67069997D02*
X71815800Y-67036664D01*
X71815800Y-67036664D02*
X71782466Y-66969997D01*
X71782466Y-66969997D02*
X71782466Y-66836664D01*
X71782466Y-66836664D02*
X71815800Y-66769997D01*
X72215800Y-67069997D02*
X72249133Y-67003331D01*
X72249133Y-67003331D02*
X72249133Y-66836664D01*
X72249133Y-66836664D02*
X72215800Y-66769997D01*
X72215800Y-66769997D02*
X72149133Y-66736664D01*
X72149133Y-66736664D02*
X72082466Y-66736664D01*
X72082466Y-66736664D02*
X72015800Y-66769997D01*
X72015800Y-66769997D02*
X71982466Y-66836664D01*
X71982466Y-66836664D02*
X71982466Y-67003331D01*
X71982466Y-67003331D02*
X71949133Y-67069997D01*
X72249133Y-67403330D02*
X71782466Y-67403330D01*
X71915800Y-67403330D02*
X71849133Y-67436664D01*
X71849133Y-67436664D02*
X71815800Y-67469997D01*
X71815800Y-67469997D02*
X71782466Y-67536664D01*
X71782466Y-67536664D02*
X71782466Y-67603330D01*
X72249133Y-68136663D02*
X71549133Y-68136663D01*
X72215800Y-68136663D02*
X72249133Y-68069997D01*
X72249133Y-68069997D02*
X72249133Y-67936663D01*
X72249133Y-67936663D02*
X72215800Y-67869997D01*
X72215800Y-67869997D02*
X72182466Y-67836663D01*
X72182466Y-67836663D02*
X72115800Y-67803330D01*
X72115800Y-67803330D02*
X71915800Y-67803330D01*
X71915800Y-67803330D02*
X71849133Y-67836663D01*
X71849133Y-67836663D02*
X71815800Y-67869997D01*
X71815800Y-67869997D02*
X71782466Y-67936663D01*
X71782466Y-67936663D02*
X71782466Y-68069997D01*
X71782466Y-68069997D02*
X71815800Y-68136663D01*
X89711371Y-54462931D02*
X90311371Y-54662931D01*
X90311371Y-54662931D02*
X89711371Y-54862931D01*
X90254228Y-55405789D02*
X90282800Y-55377217D01*
X90282800Y-55377217D02*
X90311371Y-55291503D01*
X90311371Y-55291503D02*
X90311371Y-55234360D01*
X90311371Y-55234360D02*
X90282800Y-55148646D01*
X90282800Y-55148646D02*
X90225657Y-55091503D01*
X90225657Y-55091503D02*
X90168514Y-55062932D01*
X90168514Y-55062932D02*
X90054228Y-55034360D01*
X90054228Y-55034360D02*
X89968514Y-55034360D01*
X89968514Y-55034360D02*
X89854228Y-55062932D01*
X89854228Y-55062932D02*
X89797085Y-55091503D01*
X89797085Y-55091503D02*
X89739942Y-55148646D01*
X89739942Y-55148646D02*
X89711371Y-55234360D01*
X89711371Y-55234360D02*
X89711371Y-55291503D01*
X89711371Y-55291503D02*
X89739942Y-55377217D01*
X89739942Y-55377217D02*
X89768514Y-55405789D01*
X90254228Y-56005789D02*
X90282800Y-55977217D01*
X90282800Y-55977217D02*
X90311371Y-55891503D01*
X90311371Y-55891503D02*
X90311371Y-55834360D01*
X90311371Y-55834360D02*
X90282800Y-55748646D01*
X90282800Y-55748646D02*
X90225657Y-55691503D01*
X90225657Y-55691503D02*
X90168514Y-55662932D01*
X90168514Y-55662932D02*
X90054228Y-55634360D01*
X90054228Y-55634360D02*
X89968514Y-55634360D01*
X89968514Y-55634360D02*
X89854228Y-55662932D01*
X89854228Y-55662932D02*
X89797085Y-55691503D01*
X89797085Y-55691503D02*
X89739942Y-55748646D01*
X89739942Y-55748646D02*
X89711371Y-55834360D01*
X89711371Y-55834360D02*
X89711371Y-55891503D01*
X89711371Y-55891503D02*
X89739942Y-55977217D01*
X89739942Y-55977217D02*
X89768514Y-56005789D01*
X83351426Y-68078609D02*
X83351426Y-67578609D01*
X83351426Y-67578609D02*
X83160950Y-67578609D01*
X83160950Y-67578609D02*
X83113331Y-67602419D01*
X83113331Y-67602419D02*
X83089521Y-67626228D01*
X83089521Y-67626228D02*
X83065712Y-67673847D01*
X83065712Y-67673847D02*
X83065712Y-67745276D01*
X83065712Y-67745276D02*
X83089521Y-67792895D01*
X83089521Y-67792895D02*
X83113331Y-67816704D01*
X83113331Y-67816704D02*
X83160950Y-67840514D01*
X83160950Y-67840514D02*
X83351426Y-67840514D01*
X82565712Y-68030990D02*
X82589521Y-68054800D01*
X82589521Y-68054800D02*
X82660950Y-68078609D01*
X82660950Y-68078609D02*
X82708569Y-68078609D01*
X82708569Y-68078609D02*
X82779997Y-68054800D01*
X82779997Y-68054800D02*
X82827616Y-68007180D01*
X82827616Y-68007180D02*
X82851426Y-67959561D01*
X82851426Y-67959561D02*
X82875235Y-67864323D01*
X82875235Y-67864323D02*
X82875235Y-67792895D01*
X82875235Y-67792895D02*
X82851426Y-67697657D01*
X82851426Y-67697657D02*
X82827616Y-67650038D01*
X82827616Y-67650038D02*
X82779997Y-67602419D01*
X82779997Y-67602419D02*
X82708569Y-67578609D01*
X82708569Y-67578609D02*
X82660950Y-67578609D01*
X82660950Y-67578609D02*
X82589521Y-67602419D01*
X82589521Y-67602419D02*
X82565712Y-67626228D01*
X82184759Y-67816704D02*
X82113331Y-67840514D01*
X82113331Y-67840514D02*
X82089521Y-67864323D01*
X82089521Y-67864323D02*
X82065712Y-67911942D01*
X82065712Y-67911942D02*
X82065712Y-67983371D01*
X82065712Y-67983371D02*
X82089521Y-68030990D01*
X82089521Y-68030990D02*
X82113331Y-68054800D01*
X82113331Y-68054800D02*
X82160950Y-68078609D01*
X82160950Y-68078609D02*
X82351426Y-68078609D01*
X82351426Y-68078609D02*
X82351426Y-67578609D01*
X82351426Y-67578609D02*
X82184759Y-67578609D01*
X82184759Y-67578609D02*
X82137140Y-67602419D01*
X82137140Y-67602419D02*
X82113331Y-67626228D01*
X82113331Y-67626228D02*
X82089521Y-67673847D01*
X82089521Y-67673847D02*
X82089521Y-67721466D01*
X82089521Y-67721466D02*
X82113331Y-67769085D01*
X82113331Y-67769085D02*
X82137140Y-67792895D01*
X82137140Y-67792895D02*
X82184759Y-67816704D01*
X82184759Y-67816704D02*
X82351426Y-67816704D01*
X81851426Y-68030990D02*
X81827616Y-68054800D01*
X81827616Y-68054800D02*
X81851426Y-68078609D01*
X81851426Y-68078609D02*
X81875235Y-68054800D01*
X81875235Y-68054800D02*
X81851426Y-68030990D01*
X81851426Y-68030990D02*
X81851426Y-68078609D01*
X81851426Y-67769085D02*
X81827616Y-67792895D01*
X81827616Y-67792895D02*
X81851426Y-67816704D01*
X81851426Y-67816704D02*
X81875235Y-67792895D01*
X81875235Y-67792895D02*
X81851426Y-67769085D01*
X81851426Y-67769085D02*
X81851426Y-67816704D01*
X81279998Y-67745276D02*
X81160950Y-68078609D01*
X81160950Y-68078609D02*
X81041903Y-67745276D01*
X80589522Y-68078609D02*
X80875236Y-68078609D01*
X80732379Y-68078609D02*
X80732379Y-67578609D01*
X80732379Y-67578609D02*
X80779998Y-67650038D01*
X80779998Y-67650038D02*
X80827617Y-67697657D01*
X80827617Y-67697657D02*
X80875236Y-67721466D01*
X80375237Y-68030990D02*
X80351427Y-68054800D01*
X80351427Y-68054800D02*
X80375237Y-68078609D01*
X80375237Y-68078609D02*
X80399046Y-68054800D01*
X80399046Y-68054800D02*
X80375237Y-68030990D01*
X80375237Y-68030990D02*
X80375237Y-68078609D01*
X79875237Y-68078609D02*
X80160951Y-68078609D01*
X80018094Y-68078609D02*
X80018094Y-67578609D01*
X80018094Y-67578609D02*
X80065713Y-67650038D01*
X80065713Y-67650038D02*
X80113332Y-67697657D01*
X80113332Y-67697657D02*
X80160951Y-67721466D01*
X79660952Y-68030990D02*
X79637142Y-68054800D01*
X79637142Y-68054800D02*
X79660952Y-68078609D01*
X79660952Y-68078609D02*
X79684761Y-68054800D01*
X79684761Y-68054800D02*
X79660952Y-68030990D01*
X79660952Y-68030990D02*
X79660952Y-68078609D01*
X79327619Y-67578609D02*
X79280000Y-67578609D01*
X79280000Y-67578609D02*
X79232381Y-67602419D01*
X79232381Y-67602419D02*
X79208571Y-67626228D01*
X79208571Y-67626228D02*
X79184762Y-67673847D01*
X79184762Y-67673847D02*
X79160952Y-67769085D01*
X79160952Y-67769085D02*
X79160952Y-67888133D01*
X79160952Y-67888133D02*
X79184762Y-67983371D01*
X79184762Y-67983371D02*
X79208571Y-68030990D01*
X79208571Y-68030990D02*
X79232381Y-68054800D01*
X79232381Y-68054800D02*
X79280000Y-68078609D01*
X79280000Y-68078609D02*
X79327619Y-68078609D01*
X79327619Y-68078609D02*
X79375238Y-68054800D01*
X79375238Y-68054800D02*
X79399047Y-68030990D01*
X79399047Y-68030990D02*
X79422857Y-67983371D01*
X79422857Y-67983371D02*
X79446666Y-67888133D01*
X79446666Y-67888133D02*
X79446666Y-67769085D01*
X79446666Y-67769085D02*
X79422857Y-67673847D01*
X79422857Y-67673847D02*
X79399047Y-67626228D01*
X79399047Y-67626228D02*
X79375238Y-67602419D01*
X79375238Y-67602419D02*
X79327619Y-67578609D01*
X78946667Y-67888133D02*
X78565715Y-67888133D01*
X78041905Y-68078609D02*
X78208571Y-67840514D01*
X78327619Y-68078609D02*
X78327619Y-67578609D01*
X78327619Y-67578609D02*
X78137143Y-67578609D01*
X78137143Y-67578609D02*
X78089524Y-67602419D01*
X78089524Y-67602419D02*
X78065714Y-67626228D01*
X78065714Y-67626228D02*
X78041905Y-67673847D01*
X78041905Y-67673847D02*
X78041905Y-67745276D01*
X78041905Y-67745276D02*
X78065714Y-67792895D01*
X78065714Y-67792895D02*
X78089524Y-67816704D01*
X78089524Y-67816704D02*
X78137143Y-67840514D01*
X78137143Y-67840514D02*
X78327619Y-67840514D01*
X77541905Y-68030990D02*
X77565714Y-68054800D01*
X77565714Y-68054800D02*
X77637143Y-68078609D01*
X77637143Y-68078609D02*
X77684762Y-68078609D01*
X77684762Y-68078609D02*
X77756190Y-68054800D01*
X77756190Y-68054800D02*
X77803809Y-68007180D01*
X77803809Y-68007180D02*
X77827619Y-67959561D01*
X77827619Y-67959561D02*
X77851428Y-67864323D01*
X77851428Y-67864323D02*
X77851428Y-67792895D01*
X77851428Y-67792895D02*
X77827619Y-67697657D01*
X77827619Y-67697657D02*
X77803809Y-67650038D01*
X77803809Y-67650038D02*
X77756190Y-67602419D01*
X77756190Y-67602419D02*
X77684762Y-67578609D01*
X77684762Y-67578609D02*
X77637143Y-67578609D01*
X77637143Y-67578609D02*
X77565714Y-67602419D01*
X77565714Y-67602419D02*
X77541905Y-67626228D01*
X77065714Y-68078609D02*
X77351428Y-68078609D01*
X77208571Y-68078609D02*
X77208571Y-67578609D01*
X77208571Y-67578609D02*
X77256190Y-67650038D01*
X77256190Y-67650038D02*
X77303809Y-67697657D01*
X77303809Y-67697657D02*
X77351428Y-67721466D01*
X81863330Y-68859800D02*
X81791902Y-68883609D01*
X81791902Y-68883609D02*
X81672854Y-68883609D01*
X81672854Y-68883609D02*
X81625235Y-68859800D01*
X81625235Y-68859800D02*
X81601426Y-68835990D01*
X81601426Y-68835990D02*
X81577616Y-68788371D01*
X81577616Y-68788371D02*
X81577616Y-68740752D01*
X81577616Y-68740752D02*
X81601426Y-68693133D01*
X81601426Y-68693133D02*
X81625235Y-68669323D01*
X81625235Y-68669323D02*
X81672854Y-68645514D01*
X81672854Y-68645514D02*
X81768092Y-68621704D01*
X81768092Y-68621704D02*
X81815711Y-68597895D01*
X81815711Y-68597895D02*
X81839521Y-68574085D01*
X81839521Y-68574085D02*
X81863330Y-68526466D01*
X81863330Y-68526466D02*
X81863330Y-68478847D01*
X81863330Y-68478847D02*
X81839521Y-68431228D01*
X81839521Y-68431228D02*
X81815711Y-68407419D01*
X81815711Y-68407419D02*
X81768092Y-68383609D01*
X81768092Y-68383609D02*
X81649045Y-68383609D01*
X81649045Y-68383609D02*
X81577616Y-68407419D01*
X81720473Y-68312180D02*
X81720473Y-68955038D01*
X81363331Y-68835990D02*
X81339521Y-68859800D01*
X81339521Y-68859800D02*
X81363331Y-68883609D01*
X81363331Y-68883609D02*
X81387140Y-68859800D01*
X81387140Y-68859800D02*
X81363331Y-68835990D01*
X81363331Y-68835990D02*
X81363331Y-68883609D01*
X81363331Y-68574085D02*
X81339521Y-68597895D01*
X81339521Y-68597895D02*
X81363331Y-68621704D01*
X81363331Y-68621704D02*
X81387140Y-68597895D01*
X81387140Y-68597895D02*
X81363331Y-68574085D01*
X81363331Y-68574085D02*
X81363331Y-68621704D01*
X81172855Y-68383609D02*
X80863331Y-68383609D01*
X80863331Y-68383609D02*
X81029998Y-68574085D01*
X81029998Y-68574085D02*
X80958569Y-68574085D01*
X80958569Y-68574085D02*
X80910950Y-68597895D01*
X80910950Y-68597895D02*
X80887141Y-68621704D01*
X80887141Y-68621704D02*
X80863331Y-68669323D01*
X80863331Y-68669323D02*
X80863331Y-68788371D01*
X80863331Y-68788371D02*
X80887141Y-68835990D01*
X80887141Y-68835990D02*
X80910950Y-68859800D01*
X80910950Y-68859800D02*
X80958569Y-68883609D01*
X80958569Y-68883609D02*
X81101426Y-68883609D01*
X81101426Y-68883609D02*
X81149045Y-68859800D01*
X81149045Y-68859800D02*
X81172855Y-68835990D01*
X80577617Y-68597895D02*
X80625236Y-68574085D01*
X80625236Y-68574085D02*
X80649046Y-68550276D01*
X80649046Y-68550276D02*
X80672855Y-68502657D01*
X80672855Y-68502657D02*
X80672855Y-68478847D01*
X80672855Y-68478847D02*
X80649046Y-68431228D01*
X80649046Y-68431228D02*
X80625236Y-68407419D01*
X80625236Y-68407419D02*
X80577617Y-68383609D01*
X80577617Y-68383609D02*
X80482379Y-68383609D01*
X80482379Y-68383609D02*
X80434760Y-68407419D01*
X80434760Y-68407419D02*
X80410951Y-68431228D01*
X80410951Y-68431228D02*
X80387141Y-68478847D01*
X80387141Y-68478847D02*
X80387141Y-68502657D01*
X80387141Y-68502657D02*
X80410951Y-68550276D01*
X80410951Y-68550276D02*
X80434760Y-68574085D01*
X80434760Y-68574085D02*
X80482379Y-68597895D01*
X80482379Y-68597895D02*
X80577617Y-68597895D01*
X80577617Y-68597895D02*
X80625236Y-68621704D01*
X80625236Y-68621704D02*
X80649046Y-68645514D01*
X80649046Y-68645514D02*
X80672855Y-68693133D01*
X80672855Y-68693133D02*
X80672855Y-68788371D01*
X80672855Y-68788371D02*
X80649046Y-68835990D01*
X80649046Y-68835990D02*
X80625236Y-68859800D01*
X80625236Y-68859800D02*
X80577617Y-68883609D01*
X80577617Y-68883609D02*
X80482379Y-68883609D01*
X80482379Y-68883609D02*
X80434760Y-68859800D01*
X80434760Y-68859800D02*
X80410951Y-68835990D01*
X80410951Y-68835990D02*
X80387141Y-68788371D01*
X80387141Y-68788371D02*
X80387141Y-68693133D01*
X80387141Y-68693133D02*
X80410951Y-68645514D01*
X80410951Y-68645514D02*
X80434760Y-68621704D01*
X80434760Y-68621704D02*
X80482379Y-68597895D01*
X80244284Y-68550276D02*
X80053808Y-68550276D01*
X80172856Y-68883609D02*
X80172856Y-68455038D01*
X80172856Y-68455038D02*
X80149046Y-68407419D01*
X80149046Y-68407419D02*
X80101427Y-68383609D01*
X80101427Y-68383609D02*
X80053808Y-68383609D01*
X79625237Y-68883609D02*
X79910951Y-68883609D01*
X79768094Y-68883609D02*
X79768094Y-68383609D01*
X79768094Y-68383609D02*
X79815713Y-68455038D01*
X79815713Y-68455038D02*
X79863332Y-68502657D01*
X79863332Y-68502657D02*
X79910951Y-68526466D01*
X79387142Y-68883609D02*
X79291904Y-68883609D01*
X79291904Y-68883609D02*
X79244285Y-68859800D01*
X79244285Y-68859800D02*
X79220476Y-68835990D01*
X79220476Y-68835990D02*
X79172857Y-68764561D01*
X79172857Y-68764561D02*
X79149047Y-68669323D01*
X79149047Y-68669323D02*
X79149047Y-68478847D01*
X79149047Y-68478847D02*
X79172857Y-68431228D01*
X79172857Y-68431228D02*
X79196666Y-68407419D01*
X79196666Y-68407419D02*
X79244285Y-68383609D01*
X79244285Y-68383609D02*
X79339523Y-68383609D01*
X79339523Y-68383609D02*
X79387142Y-68407419D01*
X79387142Y-68407419D02*
X79410952Y-68431228D01*
X79410952Y-68431228D02*
X79434761Y-68478847D01*
X79434761Y-68478847D02*
X79434761Y-68597895D01*
X79434761Y-68597895D02*
X79410952Y-68645514D01*
X79410952Y-68645514D02*
X79387142Y-68669323D01*
X79387142Y-68669323D02*
X79339523Y-68693133D01*
X79339523Y-68693133D02*
X79244285Y-68693133D01*
X79244285Y-68693133D02*
X79196666Y-68669323D01*
X79196666Y-68669323D02*
X79172857Y-68645514D01*
X79172857Y-68645514D02*
X79149047Y-68597895D01*
X78672857Y-68883609D02*
X78958571Y-68883609D01*
X78815714Y-68883609D02*
X78815714Y-68383609D01*
X78815714Y-68383609D02*
X78863333Y-68455038D01*
X78863333Y-68455038D02*
X78910952Y-68502657D01*
X78910952Y-68502657D02*
X78958571Y-68526466D01*
X78506191Y-68383609D02*
X78172858Y-68383609D01*
X78172858Y-68383609D02*
X78387143Y-68883609D01*
X85146664Y-51529133D02*
X85146664Y-50829133D01*
X85146664Y-50829133D02*
X84879997Y-50829133D01*
X84879997Y-50829133D02*
X84813331Y-50862466D01*
X84813331Y-50862466D02*
X84779997Y-50895800D01*
X84779997Y-50895800D02*
X84746664Y-50962466D01*
X84746664Y-50962466D02*
X84746664Y-51062466D01*
X84746664Y-51062466D02*
X84779997Y-51129133D01*
X84779997Y-51129133D02*
X84813331Y-51162466D01*
X84813331Y-51162466D02*
X84879997Y-51195800D01*
X84879997Y-51195800D02*
X85146664Y-51195800D01*
X84179997Y-51495800D02*
X84246664Y-51529133D01*
X84246664Y-51529133D02*
X84379997Y-51529133D01*
X84379997Y-51529133D02*
X84446664Y-51495800D01*
X84446664Y-51495800D02*
X84479997Y-51429133D01*
X84479997Y-51429133D02*
X84479997Y-51162466D01*
X84479997Y-51162466D02*
X84446664Y-51095800D01*
X84446664Y-51095800D02*
X84379997Y-51062466D01*
X84379997Y-51062466D02*
X84246664Y-51062466D01*
X84246664Y-51062466D02*
X84179997Y-51095800D01*
X84179997Y-51095800D02*
X84146664Y-51162466D01*
X84146664Y-51162466D02*
X84146664Y-51229133D01*
X84146664Y-51229133D02*
X84479997Y-51295800D01*
X83546664Y-51529133D02*
X83546664Y-50829133D01*
X83546664Y-51495800D02*
X83613331Y-51529133D01*
X83613331Y-51529133D02*
X83746664Y-51529133D01*
X83746664Y-51529133D02*
X83813331Y-51495800D01*
X83813331Y-51495800D02*
X83846664Y-51462466D01*
X83846664Y-51462466D02*
X83879997Y-51395800D01*
X83879997Y-51395800D02*
X83879997Y-51195800D01*
X83879997Y-51195800D02*
X83846664Y-51129133D01*
X83846664Y-51129133D02*
X83813331Y-51095800D01*
X83813331Y-51095800D02*
X83746664Y-51062466D01*
X83746664Y-51062466D02*
X83613331Y-51062466D01*
X83613331Y-51062466D02*
X83546664Y-51095800D01*
X82913331Y-51529133D02*
X82913331Y-51162466D01*
X82913331Y-51162466D02*
X82946664Y-51095800D01*
X82946664Y-51095800D02*
X83013331Y-51062466D01*
X83013331Y-51062466D02*
X83146664Y-51062466D01*
X83146664Y-51062466D02*
X83213331Y-51095800D01*
X82913331Y-51495800D02*
X82979998Y-51529133D01*
X82979998Y-51529133D02*
X83146664Y-51529133D01*
X83146664Y-51529133D02*
X83213331Y-51495800D01*
X83213331Y-51495800D02*
X83246664Y-51429133D01*
X83246664Y-51429133D02*
X83246664Y-51362466D01*
X83246664Y-51362466D02*
X83213331Y-51295800D01*
X83213331Y-51295800D02*
X83146664Y-51262466D01*
X83146664Y-51262466D02*
X82979998Y-51262466D01*
X82979998Y-51262466D02*
X82913331Y-51229133D01*
X82479998Y-51529133D02*
X82546665Y-51495800D01*
X82546665Y-51495800D02*
X82579998Y-51429133D01*
X82579998Y-51429133D02*
X82579998Y-50829133D01*
X82213331Y-51529133D02*
X82213331Y-50829133D01*
X82213331Y-51095800D02*
X82146664Y-51062466D01*
X82146664Y-51062466D02*
X82013331Y-51062466D01*
X82013331Y-51062466D02*
X81946664Y-51095800D01*
X81946664Y-51095800D02*
X81913331Y-51129133D01*
X81913331Y-51129133D02*
X81879998Y-51195800D01*
X81879998Y-51195800D02*
X81879998Y-51395800D01*
X81879998Y-51395800D02*
X81913331Y-51462466D01*
X81913331Y-51462466D02*
X81946664Y-51495800D01*
X81946664Y-51495800D02*
X82013331Y-51529133D01*
X82013331Y-51529133D02*
X82146664Y-51529133D01*
X82146664Y-51529133D02*
X82213331Y-51495800D01*
X81479998Y-51529133D02*
X81546665Y-51495800D01*
X81546665Y-51495800D02*
X81579998Y-51462466D01*
X81579998Y-51462466D02*
X81613331Y-51395800D01*
X81613331Y-51395800D02*
X81613331Y-51195800D01*
X81613331Y-51195800D02*
X81579998Y-51129133D01*
X81579998Y-51129133D02*
X81546665Y-51095800D01*
X81546665Y-51095800D02*
X81479998Y-51062466D01*
X81479998Y-51062466D02*
X81379998Y-51062466D01*
X81379998Y-51062466D02*
X81313331Y-51095800D01*
X81313331Y-51095800D02*
X81279998Y-51129133D01*
X81279998Y-51129133D02*
X81246665Y-51195800D01*
X81246665Y-51195800D02*
X81246665Y-51395800D01*
X81246665Y-51395800D02*
X81279998Y-51462466D01*
X81279998Y-51462466D02*
X81313331Y-51495800D01*
X81313331Y-51495800D02*
X81379998Y-51529133D01*
X81379998Y-51529133D02*
X81479998Y-51529133D01*
X80646665Y-51529133D02*
X80646665Y-51162466D01*
X80646665Y-51162466D02*
X80679998Y-51095800D01*
X80679998Y-51095800D02*
X80746665Y-51062466D01*
X80746665Y-51062466D02*
X80879998Y-51062466D01*
X80879998Y-51062466D02*
X80946665Y-51095800D01*
X80646665Y-51495800D02*
X80713332Y-51529133D01*
X80713332Y-51529133D02*
X80879998Y-51529133D01*
X80879998Y-51529133D02*
X80946665Y-51495800D01*
X80946665Y-51495800D02*
X80979998Y-51429133D01*
X80979998Y-51429133D02*
X80979998Y-51362466D01*
X80979998Y-51362466D02*
X80946665Y-51295800D01*
X80946665Y-51295800D02*
X80879998Y-51262466D01*
X80879998Y-51262466D02*
X80713332Y-51262466D01*
X80713332Y-51262466D02*
X80646665Y-51229133D01*
X80313332Y-51529133D02*
X80313332Y-51062466D01*
X80313332Y-51195800D02*
X80279999Y-51129133D01*
X80279999Y-51129133D02*
X80246665Y-51095800D01*
X80246665Y-51095800D02*
X80179999Y-51062466D01*
X80179999Y-51062466D02*
X80113332Y-51062466D01*
X79579999Y-51529133D02*
X79579999Y-50829133D01*
X79579999Y-51495800D02*
X79646666Y-51529133D01*
X79646666Y-51529133D02*
X79779999Y-51529133D01*
X79779999Y-51529133D02*
X79846666Y-51495800D01*
X79846666Y-51495800D02*
X79879999Y-51462466D01*
X79879999Y-51462466D02*
X79913332Y-51395800D01*
X79913332Y-51395800D02*
X79913332Y-51195800D01*
X79913332Y-51195800D02*
X79879999Y-51129133D01*
X79879999Y-51129133D02*
X79846666Y-51095800D01*
X79846666Y-51095800D02*
X79779999Y-51062466D01*
X79779999Y-51062466D02*
X79646666Y-51062466D01*
X79646666Y-51062466D02*
X79579999Y-51095800D01*
X78380000Y-51529133D02*
X78713333Y-51529133D01*
X78713333Y-51529133D02*
X78713333Y-50829133D01*
X78146666Y-51162466D02*
X77913333Y-51162466D01*
X77813333Y-51529133D02*
X78146666Y-51529133D01*
X78146666Y-51529133D02*
X78146666Y-50829133D01*
X78146666Y-50829133D02*
X77813333Y-50829133D01*
X77513333Y-51529133D02*
X77513333Y-50829133D01*
X77513333Y-50829133D02*
X77346666Y-50829133D01*
X77346666Y-50829133D02*
X77246666Y-50862466D01*
X77246666Y-50862466D02*
X77180000Y-50929133D01*
X77180000Y-50929133D02*
X77146666Y-50995800D01*
X77146666Y-50995800D02*
X77113333Y-51129133D01*
X77113333Y-51129133D02*
X77113333Y-51229133D01*
X77113333Y-51229133D02*
X77146666Y-51362466D01*
X77146666Y-51362466D02*
X77180000Y-51429133D01*
X77180000Y-51429133D02*
X77246666Y-51495800D01*
X77246666Y-51495800D02*
X77346666Y-51529133D01*
X77346666Y-51529133D02*
X77513333Y-51529133D01*
X75880000Y-51529133D02*
X76113333Y-51195800D01*
X76280000Y-51529133D02*
X76280000Y-50829133D01*
X76280000Y-50829133D02*
X76013333Y-50829133D01*
X76013333Y-50829133D02*
X75946667Y-50862466D01*
X75946667Y-50862466D02*
X75913333Y-50895800D01*
X75913333Y-50895800D02*
X75880000Y-50962466D01*
X75880000Y-50962466D02*
X75880000Y-51062466D01*
X75880000Y-51062466D02*
X75913333Y-51129133D01*
X75913333Y-51129133D02*
X75946667Y-51162466D01*
X75946667Y-51162466D02*
X76013333Y-51195800D01*
X76013333Y-51195800D02*
X76280000Y-51195800D01*
X75580000Y-51529133D02*
X75580000Y-51062466D01*
X75580000Y-50829133D02*
X75613333Y-50862466D01*
X75613333Y-50862466D02*
X75580000Y-50895800D01*
X75580000Y-50895800D02*
X75546667Y-50862466D01*
X75546667Y-50862466D02*
X75580000Y-50829133D01*
X75580000Y-50829133D02*
X75580000Y-50895800D01*
X75246667Y-51062466D02*
X75246667Y-51529133D01*
X75246667Y-51129133D02*
X75213334Y-51095800D01*
X75213334Y-51095800D02*
X75146667Y-51062466D01*
X75146667Y-51062466D02*
X75046667Y-51062466D01*
X75046667Y-51062466D02*
X74980000Y-51095800D01*
X74980000Y-51095800D02*
X74946667Y-51162466D01*
X74946667Y-51162466D02*
X74946667Y-51529133D01*
X74313334Y-51062466D02*
X74313334Y-51629133D01*
X74313334Y-51629133D02*
X74346667Y-51695800D01*
X74346667Y-51695800D02*
X74380001Y-51729133D01*
X74380001Y-51729133D02*
X74446667Y-51762466D01*
X74446667Y-51762466D02*
X74546667Y-51762466D01*
X74546667Y-51762466D02*
X74613334Y-51729133D01*
X74313334Y-51495800D02*
X74380001Y-51529133D01*
X74380001Y-51529133D02*
X74513334Y-51529133D01*
X74513334Y-51529133D02*
X74580001Y-51495800D01*
X74580001Y-51495800D02*
X74613334Y-51462466D01*
X74613334Y-51462466D02*
X74646667Y-51395800D01*
X74646667Y-51395800D02*
X74646667Y-51195800D01*
X74646667Y-51195800D02*
X74613334Y-51129133D01*
X74613334Y-51129133D02*
X74580001Y-51095800D01*
X74580001Y-51095800D02*
X74513334Y-51062466D01*
X74513334Y-51062466D02*
X74380001Y-51062466D01*
X74380001Y-51062466D02*
X74313334Y-51095800D01*
X87137640Y-53103131D02*
X86864052Y-53332698D01*
X86864052Y-53332698D02*
X86824639Y-53396851D01*
X86824639Y-53396851D02*
X86818770Y-53463938D01*
X86818770Y-53463938D02*
X86846444Y-53533960D01*
X86846444Y-53533960D02*
X86877053Y-53570438D01*
X86601573Y-53242134D02*
X86984595Y-52920740D01*
X86984595Y-52920740D02*
X86862160Y-52774826D01*
X86862160Y-52774826D02*
X86813311Y-52753653D01*
X86813311Y-52753653D02*
X86779768Y-52750718D01*
X86779768Y-52750718D02*
X86727985Y-52763088D01*
X86727985Y-52763088D02*
X86673268Y-52809001D01*
X86673268Y-52809001D02*
X86652094Y-52857849D01*
X86652094Y-52857849D02*
X86649159Y-52891393D01*
X86649159Y-52891393D02*
X86661529Y-52943176D01*
X86661529Y-52943176D02*
X86783965Y-53089089D01*
X86111830Y-52658481D02*
X86295484Y-52877350D01*
X86203657Y-52767916D02*
X86586679Y-52446522D01*
X86586679Y-52446522D02*
X86562571Y-52528913D01*
X86562571Y-52528913D02*
X86556701Y-52596001D01*
X86556701Y-52596001D02*
X86569071Y-52647783D01*
D11*
X87940000Y-62060000D02*
X87940000Y-57940000D01*
X88240000Y-62060000D02*
X87940000Y-62060000D01*
X90240000Y-62060000D02*
X89760000Y-62060000D01*
X92060000Y-62060000D02*
X91760000Y-62060000D01*
X92060000Y-62060000D02*
X92060000Y-57940000D01*
X88240000Y-57940000D02*
X87940000Y-57940000D01*
X90240000Y-57940000D02*
X89760000Y-57940000D01*
X91760000Y-57940000D02*
X91760000Y-55560000D01*
X92060000Y-57940000D02*
X91760000Y-57940000D01*
X86470089Y-55465299D02*
X86929716Y-55079626D01*
X87015996Y-54093444D02*
X86116093Y-53020981D01*
X84584004Y-54306556D02*
X85483907Y-55379019D01*
X85129911Y-52934701D02*
X84670284Y-53320374D01*
X85483908Y-55379018D02*
G75*
G03*
X86470088Y-55465298I536230J449949D01*
G01*
X86929715Y-55079625D02*
G75*
G03*
X87015995Y-54093445I-449949J536230D01*
G01*
X84670284Y-53320375D02*
G75*
G03*
X84584005Y-54306556I449951J-536230D01*
G01*
X86116093Y-53020981D02*
G75*
G03*
X85129911Y-52934701I-536231J-449952D01*
G01*
M02*
