G04 #@! TF.GenerationSoftware,KiCad,Pcbnew,7.0.9-7.0.9~ubuntu23.04.1*
G04 #@! TF.CreationDate,2024-01-10T19:27:55+00:00*
G04 #@! TF.ProjectId,pedalboard-led-ring,70656461-6c62-46f6-9172-642d6c65642d,1.1.0-RC1*
G04 #@! TF.SameCoordinates,Original*
G04 #@! TF.FileFunction,Copper,L2,Bot*
G04 #@! TF.FilePolarity,Positive*
%FSLAX46Y46*%
G04 Gerber Fmt 4.6, Leading zero omitted, Abs format (unit mm)*
G04 Created by KiCad (PCBNEW 7.0.9-7.0.9~ubuntu23.04.1) date 2024-01-10 19:27:55*
%MOMM*%
%LPD*%
G01*
G04 APERTURE LIST*
G04 #@! TA.AperFunction,SMDPad,CuDef*
%ADD10R,1.000000X2.750000*%
G04 #@! TD*
G04 #@! TA.AperFunction,ViaPad*
%ADD11C,0.800000*%
G04 #@! TD*
G04 #@! TA.AperFunction,Conductor*
%ADD12C,0.250000*%
G04 #@! TD*
G04 APERTURE END LIST*
G04 #@! TA.AperFunction,EtchedComponent*
G36*
X86190510Y-54198675D02*
G01*
X85730884Y-54584347D01*
X85409490Y-54201325D01*
X85869116Y-53815653D01*
X86190510Y-54198675D01*
G37*
G04 #@! TD.AperFunction*
D10*
X91000000Y-56875000D03*
X91000000Y-63125000D03*
X89000000Y-56875000D03*
X89000000Y-63125000D03*
G04 #@! TA.AperFunction,SMDPad,CuDef*
G36*
X86470952Y-53832816D02*
G01*
X86792345Y-54215838D01*
X86788447Y-54219109D01*
X86834186Y-54273619D01*
X86891245Y-54403996D01*
X86909260Y-54545165D01*
X86886774Y-54685693D01*
X86825608Y-54814192D01*
X86730717Y-54920254D01*
X86347695Y-55241648D01*
X86226766Y-55316680D01*
X86089598Y-55354603D01*
X85947300Y-55352345D01*
X85811404Y-55310090D01*
X85692916Y-55231258D01*
X85647177Y-55176749D01*
X85643279Y-55180020D01*
X85321885Y-54796997D01*
X86470952Y-53832816D01*
G37*
G04 #@! TD.AperFunction*
G04 #@! TA.AperFunction,SMDPad,CuDef*
G36*
X84811553Y-54180891D02*
G01*
X84765814Y-54126381D01*
X84708755Y-53996004D01*
X84690740Y-53854835D01*
X84713226Y-53714307D01*
X84774392Y-53585808D01*
X84869283Y-53479746D01*
X85252305Y-53158352D01*
X85373234Y-53083320D01*
X85510402Y-53045397D01*
X85652700Y-53047655D01*
X85788596Y-53089910D01*
X85907084Y-53168742D01*
X85952823Y-53223251D01*
X85956721Y-53219980D01*
X86278115Y-53603003D01*
X85129048Y-54567184D01*
X84807655Y-54184162D01*
X84811553Y-54180891D01*
G37*
G04 #@! TD.AperFunction*
D11*
X86950000Y-63150000D03*
X74000000Y-52000000D03*
X70071797Y-61196152D03*
X76071797Y-69196152D03*
X90079502Y-56650000D03*
X81196152Y-69928203D03*
X83928203Y-50803848D03*
X72000000Y-66000000D03*
X86000000Y-67940000D03*
X70803848Y-56071797D03*
X88000000Y-54000000D03*
X88260000Y-66020000D03*
X78803848Y-50071797D03*
X90400000Y-61400000D03*
X91150000Y-61400000D03*
X91150000Y-64850000D03*
X90400000Y-64850000D03*
X87698157Y-58551843D03*
X87910000Y-61150000D03*
D12*
X86950000Y-63150000D02*
X88975000Y-63150000D01*
X88975000Y-63150000D02*
X89000000Y-63125000D01*
X91000000Y-64250000D02*
X90400000Y-64850000D01*
X91000000Y-64700000D02*
X91150000Y-64850000D01*
X91100000Y-64900000D02*
X90400000Y-64900000D01*
X91000000Y-63125000D02*
X91000000Y-61550000D01*
X91000000Y-62000000D02*
X90400000Y-61400000D01*
X91000000Y-61550000D02*
X91150000Y-61400000D01*
X91000000Y-63125000D02*
X91000000Y-64700000D01*
X87698157Y-58551843D02*
X87698157Y-57398157D01*
X86017812Y-55717812D02*
X86017812Y-54697929D01*
X87698157Y-57398157D02*
X86017812Y-55717812D01*
X87910000Y-61200000D02*
X89000000Y-61200000D01*
X89000000Y-61200000D02*
X89000000Y-56875000D01*
G04 #@! TA.AperFunction,Conductor*
G36*
X80329649Y-48009493D02*
G01*
X80662213Y-48019071D01*
X80664833Y-48019216D01*
X80675246Y-48020070D01*
X81005442Y-48047150D01*
X81238041Y-48067291D01*
X81332588Y-48075478D01*
X81335048Y-48075753D01*
X81362018Y-48079454D01*
X81674614Y-48122351D01*
X81998793Y-48169345D01*
X82000963Y-48169711D01*
X82337916Y-48234840D01*
X82659622Y-48300569D01*
X82993785Y-48384289D01*
X83242335Y-48450175D01*
X83310959Y-48468367D01*
X83640167Y-48570216D01*
X83951871Y-48672373D01*
X84275077Y-48792036D01*
X84580336Y-48911942D01*
X84896588Y-49049073D01*
X85194372Y-49186318D01*
X85502695Y-49340497D01*
X85792081Y-49494649D01*
X86091562Y-49665423D01*
X86272868Y-49775845D01*
X86371594Y-49835973D01*
X86661270Y-50022791D01*
X86931081Y-50209214D01*
X87096830Y-50329392D01*
X87210114Y-50411530D01*
X87468769Y-50613188D01*
X87736340Y-50830405D01*
X87983000Y-51046649D01*
X88238290Y-51278097D01*
X88472187Y-51508267D01*
X88714388Y-51753200D01*
X88934767Y-51996579D01*
X89162393Y-52253382D01*
X89163894Y-52255158D01*
X89369367Y-52510153D01*
X89582406Y-52778676D01*
X89583896Y-52780653D01*
X89774842Y-53047735D01*
X89972367Y-53326692D01*
X89973827Y-53328874D01*
X90151262Y-53609948D01*
X90318589Y-53875902D01*
X90319695Y-53878485D01*
X90326181Y-53888064D01*
X90327828Y-53890667D01*
X90329664Y-53893781D01*
X90341737Y-53899152D01*
X91955276Y-54970893D01*
X91993287Y-55018837D01*
X91999500Y-55053357D01*
X91999500Y-64951943D01*
X91980593Y-65010134D01*
X91962049Y-65029485D01*
X91896850Y-65081237D01*
X91839517Y-65102605D01*
X91780574Y-65086193D01*
X91742535Y-65038270D01*
X91737148Y-64990776D01*
X91755682Y-64850000D01*
X91735044Y-64693238D01*
X91699884Y-64608356D01*
X91694252Y-64551157D01*
X91700500Y-64519748D01*
X91700500Y-61730252D01*
X91700499Y-61730250D01*
X91700499Y-61730244D01*
X91694252Y-61698841D01*
X91699884Y-61641643D01*
X91735044Y-61556762D01*
X91755682Y-61400000D01*
X91735044Y-61243238D01*
X91725689Y-61220652D01*
X91674537Y-61097161D01*
X91674537Y-61097160D01*
X91578286Y-60971723D01*
X91578285Y-60971722D01*
X91578282Y-60971718D01*
X91578277Y-60971714D01*
X91578276Y-60971713D01*
X91491350Y-60905013D01*
X91452841Y-60875464D01*
X91452840Y-60875463D01*
X91452838Y-60875462D01*
X91306766Y-60814957D01*
X91306758Y-60814955D01*
X91150001Y-60794318D01*
X91149999Y-60794318D01*
X90993241Y-60814955D01*
X90993236Y-60814957D01*
X90847164Y-60875462D01*
X90847159Y-60875464D01*
X90835264Y-60884590D01*
X90777591Y-60905013D01*
X90718925Y-60887635D01*
X90714758Y-60884608D01*
X90702841Y-60875464D01*
X90556762Y-60814956D01*
X90556759Y-60814955D01*
X90556758Y-60814955D01*
X90400001Y-60794318D01*
X90399999Y-60794318D01*
X90243241Y-60814955D01*
X90243233Y-60814957D01*
X90097161Y-60875462D01*
X90097160Y-60875462D01*
X89971723Y-60971713D01*
X89971713Y-60971723D01*
X89875462Y-61097160D01*
X89875462Y-61097161D01*
X89814957Y-61243233D01*
X89814955Y-61243241D01*
X89794318Y-61399999D01*
X89794318Y-61400000D01*
X89810105Y-61519919D01*
X89798955Y-61580080D01*
X89754572Y-61622197D01*
X89693910Y-61630183D01*
X89653838Y-61609100D01*
X89652659Y-61610865D01*
X89578233Y-61561134D01*
X89578231Y-61561133D01*
X89578228Y-61561132D01*
X89578227Y-61561132D01*
X89519758Y-61549501D01*
X89519748Y-61549500D01*
X89345544Y-61549500D01*
X89287353Y-61530593D01*
X89251389Y-61481093D01*
X89251389Y-61419907D01*
X89259800Y-61401012D01*
X89260385Y-61399999D01*
X89263318Y-61394918D01*
X89273221Y-61380775D01*
X89286238Y-61365263D01*
X89286237Y-61365263D01*
X89286240Y-61365261D01*
X89293173Y-61346211D01*
X89300459Y-61330588D01*
X89310588Y-61313045D01*
X89314104Y-61293096D01*
X89318572Y-61276426D01*
X89325500Y-61257394D01*
X89325500Y-61142606D01*
X89325500Y-58549500D01*
X89344407Y-58491309D01*
X89393907Y-58455345D01*
X89424500Y-58450500D01*
X89519747Y-58450500D01*
X89519748Y-58450500D01*
X89578231Y-58438867D01*
X89644552Y-58394552D01*
X89688867Y-58328231D01*
X89695519Y-58294791D01*
X90200001Y-58294791D01*
X90202909Y-58319874D01*
X90248213Y-58422477D01*
X90327522Y-58501786D01*
X90430127Y-58547090D01*
X90455203Y-58549999D01*
X90849998Y-58549999D01*
X90850000Y-58549998D01*
X91150000Y-58549998D01*
X91150001Y-58549999D01*
X91544790Y-58549999D01*
X91544791Y-58549998D01*
X91569874Y-58547090D01*
X91672477Y-58501786D01*
X91751786Y-58422477D01*
X91797090Y-58319872D01*
X91799999Y-58294797D01*
X91800000Y-58294795D01*
X91800000Y-57025001D01*
X91799999Y-57025000D01*
X91150001Y-57025000D01*
X91150000Y-57025001D01*
X91150000Y-58549998D01*
X90850000Y-58549998D01*
X90850000Y-57025001D01*
X90849999Y-57025000D01*
X90200002Y-57025000D01*
X90200001Y-57025001D01*
X90200001Y-58294791D01*
X89695519Y-58294791D01*
X89700500Y-58269748D01*
X89700500Y-56724999D01*
X90200000Y-56724999D01*
X90200001Y-56725000D01*
X90849999Y-56725000D01*
X90850000Y-56724999D01*
X91150000Y-56724999D01*
X91150001Y-56725000D01*
X91799998Y-56725000D01*
X91799999Y-56724999D01*
X91799999Y-55455210D01*
X91799998Y-55455208D01*
X91797090Y-55430125D01*
X91751786Y-55327522D01*
X91672477Y-55248213D01*
X91569872Y-55202909D01*
X91544797Y-55200000D01*
X91150001Y-55200000D01*
X91150000Y-55200001D01*
X91150000Y-56724999D01*
X90850000Y-56724999D01*
X90850000Y-55200001D01*
X90849999Y-55200000D01*
X90455210Y-55200000D01*
X90455207Y-55200001D01*
X90430125Y-55202909D01*
X90327522Y-55248213D01*
X90248213Y-55327522D01*
X90202909Y-55430127D01*
X90200000Y-55455202D01*
X90200000Y-56724999D01*
X89700500Y-56724999D01*
X89700500Y-55480252D01*
X89688867Y-55421769D01*
X89644552Y-55355448D01*
X89644548Y-55355445D01*
X89578233Y-55311134D01*
X89578231Y-55311133D01*
X89578228Y-55311132D01*
X89578227Y-55311132D01*
X89519758Y-55299501D01*
X89519748Y-55299500D01*
X88480252Y-55299500D01*
X88480251Y-55299500D01*
X88480241Y-55299501D01*
X88421772Y-55311132D01*
X88421766Y-55311134D01*
X88355451Y-55355445D01*
X88355445Y-55355451D01*
X88311134Y-55421766D01*
X88311132Y-55421772D01*
X88299501Y-55480241D01*
X88299500Y-55480253D01*
X88299500Y-58057614D01*
X88280593Y-58115805D01*
X88231093Y-58151769D01*
X88169907Y-58151769D01*
X88130496Y-58127618D01*
X88126437Y-58123559D01*
X88062389Y-58074413D01*
X88027734Y-58023988D01*
X88023657Y-57995871D01*
X88023657Y-57414530D01*
X88023844Y-57410229D01*
X88027421Y-57369350D01*
X88016797Y-57329705D01*
X88015867Y-57325505D01*
X88008745Y-57285112D01*
X88007997Y-57283816D01*
X87998099Y-57259924D01*
X87997711Y-57258473D01*
X87997709Y-57258470D01*
X87997708Y-57258468D01*
X87974182Y-57224869D01*
X87971860Y-57221225D01*
X87951350Y-57185700D01*
X87927181Y-57165421D01*
X87919922Y-57159330D01*
X87916745Y-57156418D01*
X86448354Y-55688028D01*
X86420577Y-55633511D01*
X86430148Y-55573079D01*
X86466161Y-55533902D01*
X86512176Y-55505352D01*
X86578830Y-55449423D01*
X86583623Y-55444064D01*
X86593761Y-55434241D01*
X86877653Y-55196027D01*
X86889092Y-55187745D01*
X86895200Y-55183957D01*
X86961853Y-55128028D01*
X87057720Y-55020875D01*
X87105918Y-54948430D01*
X87167713Y-54818609D01*
X87193549Y-54735523D01*
X87197230Y-54712524D01*
X87216265Y-54593563D01*
X87216266Y-54593556D01*
X87216267Y-54593551D01*
X87217647Y-54506545D01*
X87199445Y-54363924D01*
X87176260Y-54280061D01*
X87170905Y-54267826D01*
X87141146Y-54199826D01*
X87118615Y-54148343D01*
X87118613Y-54148340D01*
X87118612Y-54148337D01*
X87072739Y-54074406D01*
X87072734Y-54074400D01*
X87064878Y-54065038D01*
X87026528Y-54019334D01*
X86990627Y-53976549D01*
X86705140Y-53636317D01*
X86686009Y-53615546D01*
X86686010Y-53615546D01*
X86677747Y-53609948D01*
X86592996Y-53552529D01*
X86592995Y-53552528D01*
X86592993Y-53552527D01*
X86483507Y-53527369D01*
X86483500Y-53527369D01*
X86372314Y-53543461D01*
X86274450Y-53598630D01*
X85940990Y-53878435D01*
X85929561Y-53886711D01*
X85923457Y-53890499D01*
X85923440Y-53890511D01*
X85856795Y-53946433D01*
X85851990Y-53951803D01*
X85841854Y-53961620D01*
X85557972Y-54199826D01*
X85546541Y-54208105D01*
X85540424Y-54211901D01*
X85540416Y-54211907D01*
X85473774Y-54267826D01*
X85468972Y-54273193D01*
X85458835Y-54283011D01*
X85212867Y-54489404D01*
X85125382Y-54562813D01*
X85112920Y-54574291D01*
X85104617Y-54581939D01*
X85104608Y-54581949D01*
X85041598Y-54674951D01*
X85041596Y-54674955D01*
X85016438Y-54784441D01*
X85016438Y-54784448D01*
X85023392Y-54832500D01*
X85032530Y-54895633D01*
X85057313Y-54939596D01*
X85087702Y-54993503D01*
X85354226Y-55311134D01*
X85362885Y-55321453D01*
X85455305Y-55431594D01*
X85455308Y-55431596D01*
X85455312Y-55431601D01*
X85520148Y-55489608D01*
X85520150Y-55489609D01*
X85520152Y-55489611D01*
X85586721Y-55533900D01*
X85639860Y-55569254D01*
X85642126Y-55570538D01*
X85642648Y-55571108D01*
X85642802Y-55571211D01*
X85642776Y-55571249D01*
X85683429Y-55615679D01*
X85692312Y-55656667D01*
X85692312Y-55701437D01*
X85692124Y-55705739D01*
X85689241Y-55738694D01*
X85688548Y-55746618D01*
X85699166Y-55786248D01*
X85700101Y-55790464D01*
X85707223Y-55830857D01*
X85707976Y-55832160D01*
X85717866Y-55856036D01*
X85718255Y-55857491D01*
X85718258Y-55857496D01*
X85741783Y-55891093D01*
X85744104Y-55894736D01*
X85764618Y-55930267D01*
X85796036Y-55956630D01*
X85799222Y-55959549D01*
X87343661Y-57503987D01*
X87371438Y-57558504D01*
X87372657Y-57573991D01*
X87372657Y-57995871D01*
X87353750Y-58054062D01*
X87333925Y-58074413D01*
X87269875Y-58123560D01*
X87173619Y-58249003D01*
X87173619Y-58249004D01*
X87113114Y-58395076D01*
X87113112Y-58395084D01*
X87092475Y-58551842D01*
X87092475Y-58551843D01*
X87113112Y-58708601D01*
X87113114Y-58708609D01*
X87173619Y-58854681D01*
X87173619Y-58854682D01*
X87269870Y-58980119D01*
X87269875Y-58980125D01*
X87395316Y-59076379D01*
X87395317Y-59076379D01*
X87395318Y-59076380D01*
X87541390Y-59136885D01*
X87541395Y-59136887D01*
X87658966Y-59152365D01*
X87698156Y-59157525D01*
X87698157Y-59157525D01*
X87698158Y-59157525D01*
X87729509Y-59153397D01*
X87854919Y-59136887D01*
X88000998Y-59076379D01*
X88126439Y-58980125D01*
X88222693Y-58854684D01*
X88283201Y-58708605D01*
X88303839Y-58551843D01*
X88303427Y-58548717D01*
X88303839Y-58546496D01*
X88303839Y-58545354D01*
X88304051Y-58545354D01*
X88314572Y-58488559D01*
X88358950Y-58446438D01*
X88419612Y-58438446D01*
X88420894Y-58438693D01*
X88480241Y-58450498D01*
X88480246Y-58450498D01*
X88480252Y-58450500D01*
X88575500Y-58450500D01*
X88633691Y-58469407D01*
X88669655Y-58518907D01*
X88674500Y-58549500D01*
X88674500Y-60775500D01*
X88655593Y-60833691D01*
X88606093Y-60869655D01*
X88575500Y-60874500D01*
X88504336Y-60874500D01*
X88446145Y-60855593D01*
X88425796Y-60835769D01*
X88338282Y-60721718D01*
X88338277Y-60721714D01*
X88338276Y-60721713D01*
X88212838Y-60625462D01*
X88066766Y-60564957D01*
X88066758Y-60564955D01*
X87910001Y-60544318D01*
X87909999Y-60544318D01*
X87753241Y-60564955D01*
X87753233Y-60564957D01*
X87607161Y-60625462D01*
X87607160Y-60625462D01*
X87481723Y-60721713D01*
X87481713Y-60721723D01*
X87385462Y-60847160D01*
X87385462Y-60847161D01*
X87324957Y-60993233D01*
X87324955Y-60993241D01*
X87304318Y-61149999D01*
X87304318Y-61150000D01*
X87324955Y-61306758D01*
X87324957Y-61306766D01*
X87385462Y-61452838D01*
X87385462Y-61452839D01*
X87465205Y-61556762D01*
X87481718Y-61578282D01*
X87607159Y-61674536D01*
X87607160Y-61674536D01*
X87607161Y-61674537D01*
X87753233Y-61735042D01*
X87753238Y-61735044D01*
X87870809Y-61750522D01*
X87909999Y-61755682D01*
X87910000Y-61755682D01*
X87910001Y-61755682D01*
X87941352Y-61751554D01*
X88066762Y-61735044D01*
X88162616Y-61695339D01*
X88223611Y-61690539D01*
X88275780Y-61722508D01*
X88299195Y-61779036D01*
X88299500Y-61786804D01*
X88299500Y-62725500D01*
X88280593Y-62783691D01*
X88231093Y-62819655D01*
X88200500Y-62824500D01*
X87505970Y-62824500D01*
X87447779Y-62805593D01*
X87427428Y-62785767D01*
X87378285Y-62721722D01*
X87378282Y-62721718D01*
X87378277Y-62721714D01*
X87378276Y-62721713D01*
X87252838Y-62625462D01*
X87106766Y-62564957D01*
X87106758Y-62564955D01*
X86950001Y-62544318D01*
X86949999Y-62544318D01*
X86793241Y-62564955D01*
X86793233Y-62564957D01*
X86647161Y-62625462D01*
X86647160Y-62625462D01*
X86521723Y-62721713D01*
X86521713Y-62721723D01*
X86425462Y-62847160D01*
X86425462Y-62847161D01*
X86364957Y-62993233D01*
X86364955Y-62993241D01*
X86344318Y-63149999D01*
X86344318Y-63150000D01*
X86364955Y-63306758D01*
X86364957Y-63306766D01*
X86425462Y-63452838D01*
X86425462Y-63452839D01*
X86495341Y-63543907D01*
X86521718Y-63578282D01*
X86521722Y-63578285D01*
X86521723Y-63578286D01*
X86551082Y-63600813D01*
X86647159Y-63674536D01*
X86793238Y-63735044D01*
X86910809Y-63750522D01*
X86949999Y-63755682D01*
X86950000Y-63755682D01*
X86950001Y-63755682D01*
X86981352Y-63751554D01*
X87106762Y-63735044D01*
X87252841Y-63674536D01*
X87378282Y-63578282D01*
X87427428Y-63514232D01*
X87477852Y-63479577D01*
X87505970Y-63475500D01*
X88200500Y-63475500D01*
X88258691Y-63494407D01*
X88294655Y-63543907D01*
X88299500Y-63574500D01*
X88299500Y-64519746D01*
X88299501Y-64519758D01*
X88311132Y-64578227D01*
X88311134Y-64578233D01*
X88355445Y-64644548D01*
X88355448Y-64644552D01*
X88421769Y-64688867D01*
X88466231Y-64697711D01*
X88480241Y-64700498D01*
X88480246Y-64700498D01*
X88480252Y-64700500D01*
X88480253Y-64700500D01*
X89519747Y-64700500D01*
X89519748Y-64700500D01*
X89578231Y-64688867D01*
X89644552Y-64644552D01*
X89644552Y-64644551D01*
X89652659Y-64639135D01*
X89653937Y-64641048D01*
X89696454Y-64619379D01*
X89756887Y-64628943D01*
X89800156Y-64672203D01*
X89810105Y-64730080D01*
X89794318Y-64849999D01*
X89794318Y-64850000D01*
X89814955Y-65006758D01*
X89814957Y-65006766D01*
X89875462Y-65152838D01*
X89875462Y-65152839D01*
X89875464Y-65152841D01*
X89971718Y-65278282D01*
X90097159Y-65374536D01*
X90243238Y-65435044D01*
X90360809Y-65450522D01*
X90399999Y-65455682D01*
X90400000Y-65455682D01*
X90400001Y-65455682D01*
X90431352Y-65451554D01*
X90556762Y-65435044D01*
X90702841Y-65374536D01*
X90714731Y-65365411D01*
X90772407Y-65344987D01*
X90831073Y-65362363D01*
X90835258Y-65365404D01*
X90847159Y-65374536D01*
X90993238Y-65435044D01*
X91150000Y-65455682D01*
X91150001Y-65455681D01*
X91154416Y-65456263D01*
X91209641Y-65482604D01*
X91238836Y-65536374D01*
X91230850Y-65597036D01*
X91203044Y-65631957D01*
X90080960Y-66522629D01*
X90067922Y-66528784D01*
X90063854Y-66535047D01*
X90062594Y-66536763D01*
X90060955Y-66539392D01*
X89887469Y-66790921D01*
X89679996Y-67090680D01*
X89678428Y-67092822D01*
X89471795Y-67359588D01*
X89260750Y-67629321D01*
X89259164Y-67631245D01*
X89035156Y-67889602D01*
X88811582Y-68143261D01*
X88809999Y-68144975D01*
X88570765Y-68391907D01*
X88333161Y-68631638D01*
X88079128Y-68866388D01*
X87828605Y-69091193D01*
X87561555Y-69311919D01*
X87298785Y-69521315D01*
X87019615Y-69727205D01*
X86745382Y-69920643D01*
X86455091Y-70110915D01*
X86170145Y-70287908D01*
X85869730Y-70461892D01*
X85574965Y-70621896D01*
X85265397Y-70779023D01*
X84961718Y-70921546D01*
X84644051Y-71061290D01*
X84332399Y-71185876D01*
X84007658Y-71307803D01*
X83688948Y-71414053D01*
X83358308Y-71517752D01*
X83033390Y-71605330D01*
X82698061Y-71690474D01*
X82367644Y-71759098D01*
X82030221Y-71825181D01*
X82027921Y-71825576D01*
X81693408Y-71874857D01*
X81354695Y-71921947D01*
X81352218Y-71922228D01*
X81011097Y-71952243D01*
X80674786Y-71980182D01*
X80672136Y-71980331D01*
X80307475Y-71991002D01*
X80001401Y-71999461D01*
X79998619Y-71999459D01*
X79316373Y-71979969D01*
X79313550Y-71979808D01*
X78765173Y-71932708D01*
X78629748Y-71920859D01*
X78627017Y-71920544D01*
X78158630Y-71853200D01*
X77945296Y-71821950D01*
X77942640Y-71821487D01*
X77512394Y-71734309D01*
X77267690Y-71683780D01*
X77265116Y-71683177D01*
X76858829Y-71576384D01*
X76599189Y-71506812D01*
X76596704Y-71506076D01*
X76208485Y-71379937D01*
X75942009Y-71291636D01*
X75939620Y-71290775D01*
X75566908Y-71145667D01*
X75298325Y-71038965D01*
X75296037Y-71037989D01*
X75082841Y-70940627D01*
X74937606Y-70874301D01*
X74670265Y-70749637D01*
X74668098Y-70748561D01*
X74323640Y-70566810D01*
X74282773Y-70544775D01*
X74059888Y-70424596D01*
X74057891Y-70423456D01*
X73789982Y-70261901D01*
X73727386Y-70224154D01*
X73469352Y-70064996D01*
X73467398Y-70063726D01*
X73151161Y-69847489D01*
X72900473Y-69671955D01*
X72898638Y-69670606D01*
X72597123Y-69438103D01*
X72355193Y-69246809D01*
X72353479Y-69245390D01*
X72067160Y-68997294D01*
X71834520Y-68790262D01*
X71563143Y-68526527D01*
X71341847Y-68305231D01*
X71193192Y-68143261D01*
X71086889Y-68027436D01*
X70877931Y-67792631D01*
X70639994Y-67501648D01*
X70444310Y-67254164D01*
X70223955Y-66950871D01*
X70042453Y-66691659D01*
X69840200Y-66376949D01*
X69673660Y-66106945D01*
X69490066Y-65781844D01*
X69399648Y-65614154D01*
X69339159Y-65501969D01*
X69306253Y-65435042D01*
X69174684Y-65167444D01*
X69040078Y-64878779D01*
X68895166Y-64535877D01*
X68777376Y-64239380D01*
X68754584Y-64175501D01*
X68652430Y-63889197D01*
X68551945Y-63585948D01*
X68543582Y-63557468D01*
X68447291Y-63229530D01*
X68364529Y-62920658D01*
X68280456Y-62559117D01*
X68215738Y-62245686D01*
X68209407Y-62209105D01*
X68152476Y-61880130D01*
X68144883Y-61828286D01*
X68106071Y-61563324D01*
X68063796Y-61194888D01*
X68046155Y-60993241D01*
X68035877Y-60875776D01*
X68014711Y-60505621D01*
X68005393Y-60185346D01*
X68005393Y-60000000D01*
X73894548Y-60000000D01*
X73901815Y-60180342D01*
X73902474Y-60196682D01*
X73902474Y-60245717D01*
X73906420Y-60294603D01*
X73914346Y-60491285D01*
X73914346Y-60491291D01*
X73914347Y-60491296D01*
X73938070Y-60686674D01*
X73942019Y-60735580D01*
X73942019Y-60735581D01*
X73949887Y-60783992D01*
X73973611Y-60979379D01*
X74012985Y-61172247D01*
X74020851Y-61220647D01*
X74032587Y-61268263D01*
X74034252Y-61276419D01*
X74071959Y-61461122D01*
X74071962Y-61461134D01*
X74126726Y-61650203D01*
X74138462Y-61697816D01*
X74153990Y-61744329D01*
X74177513Y-61825539D01*
X74208756Y-61933401D01*
X74208759Y-61933410D01*
X74208760Y-61933412D01*
X74278549Y-62117432D01*
X74294087Y-62163970D01*
X74294087Y-62163971D01*
X74313317Y-62209105D01*
X74383106Y-62393124D01*
X74383110Y-62393133D01*
X74432892Y-62498047D01*
X74467486Y-62570953D01*
X74486717Y-62616088D01*
X74509513Y-62659523D01*
X74593892Y-62837347D01*
X74692298Y-63007792D01*
X74715104Y-63051244D01*
X74741325Y-63092710D01*
X74811630Y-63214480D01*
X74839733Y-63263155D01*
X74839736Y-63263159D01*
X74839737Y-63263161D01*
X74951532Y-63425124D01*
X74977759Y-63466598D01*
X74977767Y-63466610D01*
X75007230Y-63505817D01*
X75119041Y-63667803D01*
X75151901Y-63708049D01*
X75243523Y-63820266D01*
X75272992Y-63859482D01*
X75292162Y-63881120D01*
X75305518Y-63896197D01*
X75430001Y-64048661D01*
X75566359Y-64190625D01*
X75598877Y-64227330D01*
X75634250Y-64261307D01*
X75770602Y-64403264D01*
X75917921Y-64533778D01*
X75953310Y-64567769D01*
X75991304Y-64598789D01*
X76074171Y-64672203D01*
X76138634Y-64729313D01*
X76138634Y-64729312D01*
X76295981Y-64847551D01*
X76298981Y-64850000D01*
X76333985Y-64878580D01*
X76333988Y-64878582D01*
X76374358Y-64906447D01*
X76403702Y-64928498D01*
X76531704Y-65024686D01*
X76698058Y-65129882D01*
X76738435Y-65157752D01*
X76780916Y-65182278D01*
X76947274Y-65287477D01*
X77121564Y-65378951D01*
X77164038Y-65403474D01*
X77208356Y-65424503D01*
X77228436Y-65435042D01*
X77382632Y-65515970D01*
X77382631Y-65515970D01*
X77382637Y-65515972D01*
X77382638Y-65515973D01*
X77563717Y-65593123D01*
X77608033Y-65614152D01*
X77653903Y-65631548D01*
X77834977Y-65708697D01*
X77834981Y-65708698D01*
X77834982Y-65708699D01*
X77892391Y-65727864D01*
X78021697Y-65771033D01*
X78067541Y-65788420D01*
X78080332Y-65792125D01*
X78114653Y-65802067D01*
X78301349Y-65864395D01*
X78301350Y-65864395D01*
X78301353Y-65864395D01*
X78301357Y-65864397D01*
X78492471Y-65911502D01*
X78519988Y-65919473D01*
X78539584Y-65925150D01*
X78561493Y-65929622D01*
X78587649Y-65934962D01*
X78778753Y-65982065D01*
X78778755Y-65982065D01*
X78778758Y-65982066D01*
X78778757Y-65982066D01*
X78817338Y-65988335D01*
X78973054Y-66013641D01*
X79021094Y-66023450D01*
X79069777Y-66029360D01*
X79189161Y-66048762D01*
X79264071Y-66060937D01*
X79315638Y-66065099D01*
X79460270Y-66076775D01*
X79508955Y-66082687D01*
X79557952Y-66084660D01*
X79754158Y-66100500D01*
X79754163Y-66100500D01*
X79950967Y-66100500D01*
X80000000Y-66102476D01*
X80049033Y-66100500D01*
X80245837Y-66100500D01*
X80245842Y-66100500D01*
X80442050Y-66084660D01*
X80491045Y-66082687D01*
X80539732Y-66076774D01*
X80683022Y-66065207D01*
X80735929Y-66060937D01*
X80819819Y-66047302D01*
X80930212Y-66029362D01*
X80978906Y-66023450D01*
X81026959Y-66013639D01*
X81221247Y-65982065D01*
X81412360Y-65934959D01*
X81441483Y-65929014D01*
X81460416Y-65925150D01*
X81475649Y-65920737D01*
X81507515Y-65911505D01*
X81698643Y-65864397D01*
X81698646Y-65864395D01*
X81698650Y-65864395D01*
X81698651Y-65864395D01*
X81763570Y-65842721D01*
X81885369Y-65802058D01*
X81895469Y-65799134D01*
X81932448Y-65788424D01*
X81932459Y-65788420D01*
X81978308Y-65771031D01*
X82107444Y-65727919D01*
X82165018Y-65708699D01*
X82165018Y-65708698D01*
X82165023Y-65708697D01*
X82346113Y-65631541D01*
X82381359Y-65618174D01*
X82391968Y-65614152D01*
X82407583Y-65606742D01*
X82436278Y-65593125D01*
X82617362Y-65515973D01*
X82617362Y-65515972D01*
X82617369Y-65515970D01*
X82617368Y-65515970D01*
X82791657Y-65424496D01*
X82835962Y-65403474D01*
X82878424Y-65378957D01*
X83052726Y-65287477D01*
X83219100Y-65182267D01*
X83261565Y-65157752D01*
X83301942Y-65129882D01*
X83378867Y-65081237D01*
X83468292Y-65024688D01*
X83468294Y-65024686D01*
X83468301Y-65024682D01*
X83513426Y-64990772D01*
X83625653Y-64906438D01*
X83663227Y-64880503D01*
X83666018Y-64878578D01*
X83701020Y-64849999D01*
X83704002Y-64847562D01*
X83861365Y-64729313D01*
X83861366Y-64729312D01*
X83861366Y-64729313D01*
X83902085Y-64693238D01*
X84008698Y-64598786D01*
X84035563Y-64576854D01*
X84046686Y-64567773D01*
X84046685Y-64567773D01*
X84046690Y-64567769D01*
X84082053Y-64533800D01*
X84229395Y-64403267D01*
X84229397Y-64403265D01*
X84229398Y-64403265D01*
X84322042Y-64306810D01*
X84365755Y-64261300D01*
X84394500Y-64233692D01*
X84401118Y-64227336D01*
X84411053Y-64216120D01*
X84433625Y-64190640D01*
X84569996Y-64048664D01*
X84569995Y-64048664D01*
X84569999Y-64048661D01*
X84694481Y-63896197D01*
X84727009Y-63859481D01*
X84727009Y-63859482D01*
X84737098Y-63846053D01*
X84756470Y-63820273D01*
X84880959Y-63667803D01*
X84992771Y-63505813D01*
X85022239Y-63466601D01*
X85048455Y-63425141D01*
X85160263Y-63263161D01*
X85160269Y-63263153D01*
X85189939Y-63211760D01*
X85258681Y-63092696D01*
X85275394Y-63066268D01*
X85284901Y-63051236D01*
X85307701Y-63007792D01*
X85358021Y-62920635D01*
X85406109Y-62837345D01*
X85407422Y-62834579D01*
X85431568Y-62783691D01*
X85490498Y-62659498D01*
X85513284Y-62616086D01*
X85513286Y-62616082D01*
X85513286Y-62616083D01*
X85532513Y-62570953D01*
X85616890Y-62393133D01*
X85686689Y-62209087D01*
X85705914Y-62163968D01*
X85721438Y-62117461D01*
X85768850Y-61992450D01*
X85791245Y-61933401D01*
X85808802Y-61872780D01*
X85846013Y-61744313D01*
X85861538Y-61697815D01*
X85873266Y-61650227D01*
X85928039Y-61461130D01*
X85928039Y-61461126D01*
X85928041Y-61461122D01*
X85928041Y-61461123D01*
X85943088Y-61387413D01*
X85967415Y-61268250D01*
X85979148Y-61220652D01*
X85987013Y-61172253D01*
X86026388Y-60979383D01*
X86050115Y-60783969D01*
X86057982Y-60735572D01*
X86061929Y-60686674D01*
X86085654Y-60491285D01*
X86093580Y-60294602D01*
X86097526Y-60245722D01*
X86098183Y-60180358D01*
X86105452Y-60000000D01*
X86098183Y-59819643D01*
X86097526Y-59754277D01*
X86097205Y-59750313D01*
X86093580Y-59705395D01*
X86085654Y-59508715D01*
X86061928Y-59313317D01*
X86057983Y-59264430D01*
X86053737Y-59238313D01*
X86050113Y-59216009D01*
X86026388Y-59020617D01*
X85987012Y-58827740D01*
X85979148Y-58779350D01*
X85967416Y-58731753D01*
X85930688Y-58551845D01*
X85928041Y-58538877D01*
X85928041Y-58538878D01*
X85928040Y-58538877D01*
X85922256Y-58518907D01*
X85873272Y-58349795D01*
X85861537Y-58302184D01*
X85861536Y-58302178D01*
X85861536Y-58302177D01*
X85846009Y-58255670D01*
X85791245Y-58066599D01*
X85721449Y-57882566D01*
X85705916Y-57836037D01*
X85705916Y-57836036D01*
X85701033Y-57824577D01*
X85686689Y-57790911D01*
X85642475Y-57674329D01*
X85616894Y-57606875D01*
X85616893Y-57606875D01*
X85616890Y-57606867D01*
X85532513Y-57429046D01*
X85513281Y-57383907D01*
X85513281Y-57383908D01*
X85490486Y-57340476D01*
X85406109Y-57162655D01*
X85403387Y-57157941D01*
X85326634Y-57025001D01*
X85307701Y-56992207D01*
X85284899Y-56948762D01*
X85258673Y-56907289D01*
X85160267Y-56736845D01*
X85048462Y-56574867D01*
X85030831Y-56546986D01*
X85022244Y-56533406D01*
X85022236Y-56533396D01*
X84992765Y-56494176D01*
X84880961Y-56332200D01*
X84756476Y-56179733D01*
X84727008Y-56140518D01*
X84706455Y-56117319D01*
X84694481Y-56103802D01*
X84569999Y-55951339D01*
X84433640Y-55809374D01*
X84401123Y-55772670D01*
X84401120Y-55772667D01*
X84365751Y-55738694D01*
X84365750Y-55738693D01*
X84229398Y-55596736D01*
X84226559Y-55594221D01*
X84082073Y-55466217D01*
X84079887Y-55464117D01*
X84046690Y-55432231D01*
X84008678Y-55401194D01*
X83918668Y-55321453D01*
X83861366Y-55270687D01*
X83861366Y-55270688D01*
X83861365Y-55270687D01*
X83750983Y-55187740D01*
X83704018Y-55152448D01*
X83674106Y-55128026D01*
X83666015Y-55121420D01*
X83625637Y-55093549D01*
X83526213Y-55018837D01*
X83468292Y-54975312D01*
X83468289Y-54975310D01*
X83468290Y-54975310D01*
X83301940Y-54870117D01*
X83261570Y-54842251D01*
X83219079Y-54817718D01*
X83089094Y-54735521D01*
X83052726Y-54712523D01*
X83052722Y-54712520D01*
X83052719Y-54712519D01*
X83052718Y-54712518D01*
X82878445Y-54621053D01*
X82862263Y-54611710D01*
X82835962Y-54596526D01*
X82835952Y-54596521D01*
X82835950Y-54596520D01*
X82791641Y-54575495D01*
X82617369Y-54484030D01*
X82617368Y-54484030D01*
X82617362Y-54484027D01*
X82436285Y-54406877D01*
X82417574Y-54397999D01*
X82391968Y-54385848D01*
X82391969Y-54385849D01*
X82391967Y-54385848D01*
X82346096Y-54368451D01*
X82308582Y-54352468D01*
X82165023Y-54291303D01*
X82165017Y-54291301D01*
X82165010Y-54291298D01*
X82165011Y-54291298D01*
X81978315Y-54228971D01*
X81932466Y-54211582D01*
X81932467Y-54211582D01*
X81885347Y-54197933D01*
X81698647Y-54135604D01*
X81507540Y-54088500D01*
X81460422Y-54074852D01*
X81460420Y-54074851D01*
X81460418Y-54074851D01*
X81412351Y-54065038D01*
X81360157Y-54052173D01*
X81221247Y-54017935D01*
X81221244Y-54017934D01*
X81221243Y-54017934D01*
X81026965Y-53986361D01*
X80978902Y-53976549D01*
X80930210Y-53970637D01*
X80735926Y-53939063D01*
X80539745Y-53923226D01*
X80491056Y-53917314D01*
X80491051Y-53917313D01*
X80491045Y-53917313D01*
X80469087Y-53916428D01*
X80442027Y-53915337D01*
X80328818Y-53906198D01*
X80245842Y-53899500D01*
X80049010Y-53899500D01*
X80000000Y-53897525D01*
X79950990Y-53899500D01*
X79754158Y-53899500D01*
X79680491Y-53905447D01*
X79557972Y-53915337D01*
X79531067Y-53916421D01*
X79508955Y-53917313D01*
X79508947Y-53917313D01*
X79508945Y-53917314D01*
X79508946Y-53917314D01*
X79460254Y-53923226D01*
X79264074Y-53939063D01*
X79069789Y-53970637D01*
X79021100Y-53976549D01*
X79021096Y-53976549D01*
X79021094Y-53976550D01*
X79005795Y-53979673D01*
X78973034Y-53986361D01*
X78778757Y-54017934D01*
X78778755Y-54017934D01*
X78778753Y-54017935D01*
X78755092Y-54023767D01*
X78587648Y-54065038D01*
X78558058Y-54071078D01*
X78539582Y-54074851D01*
X78539579Y-54074851D01*
X78539578Y-54074852D01*
X78492459Y-54088500D01*
X78301353Y-54135604D01*
X78114652Y-54197933D01*
X78067538Y-54211581D01*
X78021683Y-54228971D01*
X77834978Y-54291302D01*
X77834979Y-54291302D01*
X77653897Y-54368454D01*
X77608036Y-54385847D01*
X77608035Y-54385847D01*
X77563714Y-54406877D01*
X77461031Y-54450626D01*
X77382638Y-54484027D01*
X77382632Y-54484030D01*
X77382631Y-54484030D01*
X77208358Y-54575494D01*
X77164032Y-54596529D01*
X77164031Y-54596530D01*
X77121555Y-54621053D01*
X77029106Y-54669574D01*
X76947274Y-54712523D01*
X76947272Y-54712524D01*
X76780921Y-54817718D01*
X76738440Y-54842245D01*
X76738441Y-54842244D01*
X76698058Y-54870117D01*
X76531710Y-54975310D01*
X76531711Y-54975310D01*
X76374362Y-55093549D01*
X76333978Y-55121425D01*
X76333979Y-55121425D01*
X76295981Y-55152448D01*
X76138634Y-55270687D01*
X75991317Y-55401199D01*
X75953313Y-55432228D01*
X75917924Y-55466219D01*
X75873749Y-55505355D01*
X75773441Y-55594221D01*
X75770602Y-55596736D01*
X75634249Y-55738694D01*
X75598882Y-55772664D01*
X75566359Y-55809374D01*
X75502110Y-55876264D01*
X75430004Y-55951336D01*
X75429996Y-55951346D01*
X75429995Y-55951346D01*
X75305518Y-56103802D01*
X75272993Y-56140516D01*
X75243523Y-56179733D01*
X75162084Y-56279477D01*
X75119041Y-56332197D01*
X75021145Y-56474023D01*
X75007235Y-56494176D01*
X74977761Y-56533399D01*
X74977757Y-56533406D01*
X74951538Y-56574867D01*
X74839733Y-56736845D01*
X74820357Y-56770406D01*
X74741326Y-56907289D01*
X74715101Y-56948762D01*
X74692298Y-56992207D01*
X74593892Y-57162653D01*
X74509513Y-57340476D01*
X74495127Y-57367886D01*
X74486716Y-57383914D01*
X74486715Y-57383917D01*
X74467486Y-57429046D01*
X74383110Y-57606865D01*
X74313317Y-57790894D01*
X74313317Y-57790895D01*
X74294086Y-57836032D01*
X74286726Y-57858076D01*
X74278550Y-57882566D01*
X74208758Y-58066593D01*
X74208758Y-58066592D01*
X74153990Y-58255670D01*
X74138462Y-58302184D01*
X74126726Y-58349796D01*
X74077743Y-58518907D01*
X74071961Y-58538870D01*
X74071670Y-58540294D01*
X74032587Y-58731736D01*
X74020852Y-58779348D01*
X74020851Y-58779355D01*
X74020851Y-58779354D01*
X74012985Y-58827752D01*
X73973611Y-59020621D01*
X73949887Y-59216006D01*
X73942019Y-59264421D01*
X73938070Y-59313325D01*
X73914347Y-59508705D01*
X73914346Y-59508715D01*
X73914327Y-59509194D01*
X73906420Y-59705395D01*
X73902475Y-59754277D01*
X73902474Y-59754284D01*
X73902474Y-59803317D01*
X73894548Y-60000000D01*
X68005393Y-60000000D01*
X68005393Y-59814653D01*
X68005723Y-59803317D01*
X68014710Y-59494396D01*
X68035877Y-59124226D01*
X68063794Y-58805129D01*
X68106073Y-58436657D01*
X68152475Y-58119876D01*
X68215743Y-57754286D01*
X68280451Y-57440904D01*
X68364526Y-57079354D01*
X68447288Y-56770477D01*
X68551946Y-56414046D01*
X68579067Y-56332201D01*
X68652417Y-56110839D01*
X68777381Y-55760604D01*
X68895153Y-55464152D01*
X69040076Y-55121225D01*
X69174670Y-54832583D01*
X69339166Y-54498015D01*
X69490040Y-54218201D01*
X69673662Y-53893049D01*
X69840192Y-53623063D01*
X70025104Y-53335336D01*
X70042453Y-53308340D01*
X70223955Y-53049128D01*
X70224967Y-53047735D01*
X70444324Y-52745815D01*
X70639964Y-52498388D01*
X70877933Y-52207365D01*
X71086848Y-51972608D01*
X71341858Y-51694756D01*
X71563107Y-51473507D01*
X71834529Y-51209728D01*
X72067142Y-51002721D01*
X72353515Y-50754577D01*
X72355156Y-50753218D01*
X72597052Y-50561951D01*
X72898699Y-50329346D01*
X72900417Y-50328083D01*
X73151160Y-50152511D01*
X73467439Y-49936245D01*
X73469312Y-49935027D01*
X73727324Y-49775882D01*
X74057973Y-49576494D01*
X74059824Y-49575437D01*
X74323593Y-49433214D01*
X74668141Y-49251415D01*
X74670215Y-49250385D01*
X74937554Y-49125722D01*
X75296045Y-48962005D01*
X75298292Y-48961047D01*
X75566780Y-48854382D01*
X75939627Y-48709219D01*
X75941972Y-48708375D01*
X76208399Y-48620090D01*
X76596709Y-48493920D01*
X76599181Y-48493188D01*
X76858728Y-48423642D01*
X77265150Y-48316812D01*
X77267679Y-48316220D01*
X77512217Y-48265726D01*
X77942681Y-48178503D01*
X77945291Y-48178048D01*
X78158486Y-48146820D01*
X78627068Y-48079448D01*
X78629721Y-48079142D01*
X78764585Y-48067341D01*
X79313562Y-48020190D01*
X79316373Y-48020030D01*
X79696071Y-48009182D01*
X79998635Y-48000538D01*
X80001357Y-48000537D01*
X80329649Y-48009493D01*
G37*
G04 #@! TD.AperFunction*
M02*
