<?xml version="1.0" standalone="no"?>
 <!DOCTYPE svg PUBLIC "-//W3C//DTD SVG 1.1//EN" 
 "http://www.w3.org/Graphics/SVG/1.1/DTD/svg11.dtd"> 
<svg
  xmlns:svg="http://www.w3.org/2000/svg"
  xmlns="http://www.w3.org/2000/svg"
  xmlns:xlink="http://www.w3.org/1999/xlink"
  version="1.1"
  width="297.0022mm" height="210.0072mm" viewBox="0.0000 0.0000 297.0022 210.0072">
<title>SVG Image created as pedalboard-led-ring-F_Silkscreen.svg date 2023/10/20 09:29:36 </title>
  <desc>Image generated by PCBNEW </desc>
<g style="fill:#000000; fill-opacity:1.0000;stroke:#000000; stroke-opacity:1.0000;
stroke-linecap:round; stroke-linejoin:round;"
 transform="translate(0 0) scale(1 1)">
</g>
<g style="fill:#000000; fill-opacity:0.0; 
stroke:#000000; stroke-width:0.0000; stroke-opacity:1; 
stroke-linecap:round; stroke-linejoin:round;">
</g>
<g style="fill:#000000; fill-opacity:0.0; 
stroke:#000000; stroke-width:0.1500; stroke-opacity:1; 
stroke-linecap:round; stroke-linejoin:round;">
<text x="80.0000" y="70.0000"
textLength="3.5357" font-size="1.3333" lengthAdjust="spacingAndGlyphs"
text-anchor="middle" opacity="0">FID2</text>
<g class="stroked-text"><desc>FID2</desc>
<path d="M78.9286 69.4310
L78.5952 69.4310
" />
<path d="M78.5952 69.9548
L78.5952 68.9548
" />
<path d="M78.5952 68.9548
L79.0714 68.9548
" />
<path d="M79.4524 69.9548
L79.4524 68.9548
" />
<path d="M79.9286 69.9548
L79.9286 68.9548
" />
<path d="M79.9286 68.9548
L80.1667 68.9548
" />
<path d="M80.1667 68.9548
L80.3095 69.0024
" />
<path d="M80.3095 69.0024
L80.4048 69.0977
" />
<path d="M80.4048 69.0977
L80.4524 69.1929
" />
<path d="M80.4524 69.1929
L80.5000 69.3834
" />
<path d="M80.5000 69.3834
L80.5000 69.5262
" />
<path d="M80.5000 69.5262
L80.4524 69.7167
" />
<path d="M80.4524 69.7167
L80.4048 69.8120
" />
<path d="M80.4048 69.8120
L80.3095 69.9072
" />
<path d="M80.3095 69.9072
L80.1667 69.9548
" />
<path d="M80.1667 69.9548
L79.9286 69.9548
" />
<path d="M80.8810 69.0501
L80.9286 69.0024
" />
<path d="M80.9286 69.0024
L81.0238 68.9548
" />
<path d="M81.0238 68.9548
L81.2619 68.9548
" />
<path d="M81.2619 68.9548
L81.3571 69.0024
" />
<path d="M81.3571 69.0024
L81.4048 69.0501
" />
<path d="M81.4048 69.0501
L81.4524 69.1453
" />
<path d="M81.4524 69.1453
L81.4524 69.2405
" />
<path d="M81.4524 69.2405
L81.4048 69.3834
" />
<path d="M81.4048 69.3834
L80.8333 69.9548
" />
<path d="M80.8333 69.9548
L81.4524 69.9548
" />
</g></g>
<g style="fill:#000000; fill-opacity:0.0; 
stroke:#000000; stroke-width:0.1000; stroke-opacity:1; 
stroke-linecap:round; stroke-linejoin:round;">
<g transform="rotate(60.000000 83.3500 68.5585)">
<text x="83.3500" y="68.8085"
textLength="1.6524" font-size="0.6667" lengthAdjust="spacingAndGlyphs"
text-anchor="middle" opacity="0">D11</text>
</g>
<g class="stroked-text"><desc>D11</desc>
<path d="M82.8506 68.1457
L83.2836 67.8957
" />
<path d="M83.2836 67.8957
L83.3431 67.9988
" />
<path d="M83.3431 67.9988
L83.3582 68.0726
" />
<path d="M83.3582 68.0726
L83.3408 68.1376
" />
<path d="M83.3408 68.1376
L83.3115 68.1821
" />
<path d="M83.3115 68.1821
L83.2409 68.2503
" />
<path d="M83.2409 68.2503
L83.1790 68.2860
" />
<path d="M83.1790 68.2860
L83.0847 68.3130
" />
<path d="M83.0847 68.3130
L83.0315 68.3162
" />
<path d="M83.0315 68.3162
L82.9665 68.2988
" />
<path d="M82.9665 68.2988
L82.9101 68.2488
" />
<path d="M82.9101 68.2488
L82.8506 68.1457
" />
<path d="M83.2316 68.8055
L83.0887 68.5581
" />
<path d="M83.1601 68.6818
L83.5931 68.4318
" />
<path d="M83.5931 68.4318
L83.5075 68.4263
" />
<path d="M83.5075 68.4263
L83.4424 68.4089
" />
<path d="M83.4424 68.4089
L83.3980 68.3795
" />
<path d="M83.4697 69.2179
L83.3268 68.9705
" />
<path d="M83.3982 69.0942
L83.8312 68.8442
" />
<path d="M83.8312 68.8442
L83.7456 68.8387
" />
<path d="M83.7456 68.8387
L83.6805 68.8213
" />
<path d="M83.6805 68.8213
L83.6361 68.7919
" />
</g></g>
<g style="fill:#000000; fill-opacity:0.0; 
stroke:#000000; stroke-width:0.0750; stroke-opacity:1; 
stroke-linecap:round; stroke-linejoin:round;">
<g transform="rotate(60.000000 84.5728 68.8203)">
<text x="84.5728" y="68.9703"
textLength="0.4507" font-size="0.4000" lengthAdjust="spacingAndGlyphs"
text-anchor="middle" opacity="0">1</text>
</g>
<g class="stroked-text"><desc>1</desc>
<path d="M84.4988 68.9620
L84.4131 68.8135
" />
<path d="M84.4560 68.8877
L84.7158 68.7377
" />
<path d="M84.7158 68.7377
L84.6644 68.7344
" />
<path d="M84.6644 68.7344
L84.6254 68.7240
" />
<path d="M84.6254 68.7240
L84.5987 68.7064
" />
</g></g>
<g style="fill:#000000; fill-opacity:0.0; 
stroke:#000000; stroke-width:0.1000; stroke-opacity:1; 
stroke-linecap:round; stroke-linejoin:round;">
<g transform="rotate(-90.000000 77.8500 51.0000)">
<text x="77.8500" y="51.2500"
textLength="1.1762" font-size="0.6667" lengthAdjust="spacingAndGlyphs"
text-anchor="middle" opacity="0">C4</text>
</g>
<g class="stroked-text"><desc>C4</desc>
<path d="M78.0285 51.0833
L78.0523 51.1071
" />
<path d="M78.0523 51.1071
L78.0761 51.1786
" />
<path d="M78.0761 51.1786
L78.0761 51.2262
" />
<path d="M78.0761 51.2262
L78.0523 51.2976
" />
<path d="M78.0523 51.2976
L78.0047 51.3452
" />
<path d="M78.0047 51.3452
L77.9571 51.3690
" />
<path d="M77.9571 51.3690
L77.8618 51.3929
" />
<path d="M77.8618 51.3929
L77.7904 51.3929
" />
<path d="M77.7904 51.3929
L77.6952 51.3690
" />
<path d="M77.6952 51.3690
L77.6475 51.3452
" />
<path d="M77.6475 51.3452
L77.5999 51.2976
" />
<path d="M77.5999 51.2976
L77.5761 51.2262
" />
<path d="M77.5761 51.2262
L77.5761 51.1786
" />
<path d="M77.5761 51.1786
L77.5999 51.1071
" />
<path d="M77.5999 51.1071
L77.6237 51.0833
" />
<path d="M77.7428 50.6548
L78.0761 50.6548
" />
<path d="M77.5523 50.7738
L77.9094 50.8929
" />
<path d="M77.9094 50.8929
L77.9094 50.5833
" />
</g><g transform="rotate(60.000000 73.5500 53.2000)">
<text x="73.5500" y="53.4500"
textLength="1.1762" font-size="0.6667" lengthAdjust="spacingAndGlyphs"
text-anchor="middle" opacity="0">C5</text>
</g>
<g class="stroked-text"><desc>C5</desc>
<path d="M73.3538 53.2171
L73.3212 53.2084
" />
<path d="M73.3212 53.2084
L73.2649 53.1584
" />
<path d="M73.2649 53.1584
L73.2411 53.1172
" />
<path d="M73.2411 53.1172
L73.2260 53.0434
" />
<path d="M73.2260 53.0434
L73.2434 52.9784
" />
<path d="M73.2434 52.9784
L73.2728 52.9339
" />
<path d="M73.2728 52.9339
L73.3433 52.8657
" />
<path d="M73.3433 52.8657
L73.4052 52.8300
" />
<path d="M73.4052 52.8300
L73.4996 52.8030
" />
<path d="M73.4996 52.8030
L73.5527 52.7998
" />
<path d="M73.5527 52.7998
L73.6178 52.8172
" />
<path d="M73.6178 52.8172
L73.6741 52.8672
" />
<path d="M73.6741 52.8672
L73.6979 52.9084
" />
<path d="M73.6979 52.9084
L73.7130 52.9822
" />
<path d="M73.7130 52.9822
L73.7043 53.0147
" />
<path d="M73.9717 53.3827
L73.8527 53.1765
" />
<path d="M73.8527 53.1765
L73.6346 53.2749
" />
<path d="M73.6346 53.2749
L73.6671 53.2836
" />
<path d="M73.6671 53.2836
L73.7115 53.3129
" />
<path d="M73.7115 53.3129
L73.7710 53.4160
" />
<path d="M73.7710 53.4160
L73.7742 53.4692
" />
<path d="M73.7742 53.4692
L73.7655 53.5017
" />
<path d="M73.7655 53.5017
L73.7362 53.5461
" />
<path d="M73.7362 53.5461
L73.6331 53.6057
" />
<path d="M73.6331 53.6057
L73.5799 53.6088
" />
<path d="M73.5799 53.6088
L73.5474 53.6001
" />
<path d="M73.5474 53.6001
L73.5030 53.5708
" />
<path d="M73.5030 53.5708
L73.4435 53.4677
" />
<path d="M73.4435 53.4677
L73.4403 53.4146
" />
<path d="M73.4403 53.4146
L73.4490 53.3820
" />
</g><text x="90.5900" y="60.3500"
textLength="1.1762" font-size="0.6667" lengthAdjust="spacingAndGlyphs"
text-anchor="middle" opacity="0">D1</text>
<g class="stroked-text"><desc>D1</desc>
<path d="M90.2210 60.3261
L90.2210 59.8261
" />
<path d="M90.2210 59.8261
L90.3400 59.8261
" />
<path d="M90.3400 59.8261
L90.4114 59.8499
" />
<path d="M90.4114 59.8499
L90.4590 59.8975
" />
<path d="M90.4590 59.8975
L90.4829 59.9452
" />
<path d="M90.4829 59.9452
L90.5067 60.0404
" />
<path d="M90.5067 60.0404
L90.5067 60.1118
" />
<path d="M90.5067 60.1118
L90.4829 60.2071
" />
<path d="M90.4829 60.2071
L90.4590 60.2547
" />
<path d="M90.4590 60.2547
L90.4114 60.3023
" />
<path d="M90.4114 60.3023
L90.3400 60.3261
" />
<path d="M90.3400 60.3261
L90.2210 60.3261
" />
<path d="M90.9829 60.3261
L90.6971 60.3261
" />
<path d="M90.8400 60.3261
L90.8400 59.8261
" />
<path d="M90.8400 59.8261
L90.7924 59.8975
" />
<path d="M90.7924 59.8975
L90.7448 59.9452
" />
<path d="M90.7448 59.9452
L90.6971 59.9690
" />
</g></g>
<g style="fill:#000000; fill-opacity:0.0; 
stroke:#000000; stroke-width:0.0750; stroke-opacity:1; 
stroke-linecap:round; stroke-linejoin:round;">
<text x="89.9250" y="60.6000"
textLength="0.4507" font-size="0.4000" lengthAdjust="spacingAndGlyphs"
text-anchor="middle" opacity="0">1</text>
<g class="stroked-text"><desc>1</desc>
<path d="M90.0107 60.5849
L89.8393 60.5849
" />
<path d="M89.9250 60.5849
L89.9250 60.2849
" />
<path d="M89.9250 60.2849
L89.8964 60.3277
" />
<path d="M89.8964 60.3277
L89.8679 60.3563
" />
<path d="M89.8679 60.3563
L89.8393 60.3706
" />
</g></g>
<g style="fill:#000000; fill-opacity:0.0; 
stroke:#000000; stroke-width:0.1000; stroke-opacity:1; 
stroke-linecap:round; stroke-linejoin:round;">
<g transform="rotate(-90.000000 81.4000 51.0000)">
<text x="81.4000" y="51.2500"
textLength="1.1762" font-size="0.6667" lengthAdjust="spacingAndGlyphs"
text-anchor="middle" opacity="0">D4</text>
</g>
<g class="stroked-text"><desc>D4</desc>
<path d="M81.6261 51.3690
L81.1261 51.3690
" />
<path d="M81.1261 51.3690
L81.1261 51.2500
" />
<path d="M81.1261 51.2500
L81.1499 51.1786
" />
<path d="M81.1499 51.1786
L81.1975 51.1310
" />
<path d="M81.1975 51.1310
L81.2452 51.1071
" />
<path d="M81.2452 51.1071
L81.3404 51.0833
" />
<path d="M81.3404 51.0833
L81.4118 51.0833
" />
<path d="M81.4118 51.0833
L81.5071 51.1071
" />
<path d="M81.5071 51.1071
L81.5547 51.1310
" />
<path d="M81.5547 51.1310
L81.6023 51.1786
" />
<path d="M81.6023 51.1786
L81.6261 51.2500
" />
<path d="M81.6261 51.2500
L81.6261 51.3690
" />
<path d="M81.2928 50.6548
L81.6261 50.6548
" />
<path d="M81.1023 50.7738
L81.4594 50.8929
" />
<path d="M81.4594 50.8929
L81.4594 50.5833
" />
</g></g>
<g style="fill:#000000; fill-opacity:0.0; 
stroke:#000000; stroke-width:0.0750; stroke-opacity:1; 
stroke-linecap:round; stroke-linejoin:round;">
<g transform="rotate(-90.000000 80.4500 50.0750)">
<text x="80.4500" y="50.2250"
textLength="0.4507" font-size="0.4000" lengthAdjust="spacingAndGlyphs"
text-anchor="middle" opacity="0">1</text>
</g>
<g class="stroked-text"><desc>1</desc>
<path d="M80.5849 49.9893
L80.5849 50.1607
" />
<path d="M80.5849 50.0750
L80.2849 50.0750
" />
<path d="M80.2849 50.0750
L80.3277 50.1036
" />
<path d="M80.3277 50.1036
L80.3563 50.1321
" />
<path d="M80.3563 50.1321
L80.3706 50.1607
" />
</g></g>
<g style="fill:#000000; fill-opacity:0.0; 
stroke:#000000; stroke-width:0.1000; stroke-opacity:1; 
stroke-linecap:round; stroke-linejoin:round;">
<g transform="rotate(30.000000 87.0942 65.7124)">
<text x="87.0942" y="65.9624"
textLength="1.6524" font-size="0.6667" lengthAdjust="spacingAndGlyphs"
text-anchor="middle" opacity="0">D12</text>
</g>
<g class="stroked-text"><desc>D12</desc>
<path d="M86.4554 65.6047
L86.7054 65.1717
" />
<path d="M86.7054 65.1717
L86.8085 65.2312
" />
<path d="M86.8085 65.2312
L86.8584 65.2875
" />
<path d="M86.8584 65.2875
L86.8759 65.3526
" />
<path d="M86.8759 65.3526
L86.8727 65.4057
" />
<path d="M86.8727 65.4057
L86.8457 65.5001
" />
<path d="M86.8457 65.5001
L86.8100 65.5620
" />
<path d="M86.8100 65.5620
L86.7417 65.6325
" />
<path d="M86.7417 65.6325
L86.6973 65.6619
" />
<path d="M86.6973 65.6619
L86.6322 65.6793
" />
<path d="M86.6322 65.6793
L86.5585 65.6642
" />
<path d="M86.5585 65.6642
L86.4554 65.6047
" />
<path d="M87.1152 65.9856
L86.8678 65.8428
" />
<path d="M86.9915 65.9142
L87.2415 65.4812
" />
<path d="M87.2415 65.4812
L87.1645 65.5192
" />
<path d="M87.1645 65.5192
L87.0995 65.5367
" />
<path d="M87.0995 65.5367
L87.0463 65.5335
" />
<path d="M87.5063 65.6891
L87.5389 65.6804
" />
<path d="M87.5389 65.6804
L87.5920 65.6836
" />
<path d="M87.5920 65.6836
L87.6951 65.7431
" />
<path d="M87.6951 65.7431
L87.7244 65.7875
" />
<path d="M87.7244 65.7875
L87.7332 65.8200
" />
<path d="M87.7332 65.8200
L87.7300 65.8732
" />
<path d="M87.7300 65.8732
L87.7062 65.9144
" />
<path d="M87.7062 65.9144
L87.6498 65.9644
" />
<path d="M87.6498 65.9644
L87.2595 66.0690
" />
<path d="M87.2595 66.0690
L87.5276 66.2237
" />
</g></g>
<g style="fill:#000000; fill-opacity:0.0; 
stroke:#000000; stroke-width:0.0750; stroke-opacity:1; 
stroke-linecap:round; stroke-linejoin:round;">
<g transform="rotate(30.000000 88.3703 65.3522)">
<text x="88.3703" y="65.5022"
textLength="0.4507" font-size="0.4000" lengthAdjust="spacingAndGlyphs"
text-anchor="middle" opacity="0">1</text>
</g>
<g class="stroked-text"><desc>1</desc>
<path d="M88.3771 65.5119
L88.2286 65.4262
" />
<path d="M88.3029 65.4690
L88.4529 65.2092
" />
<path d="M88.4529 65.2092
L88.4067 65.2320
" />
<path d="M88.4067 65.2320
L88.3677 65.2425
" />
<path d="M88.3677 65.2425
L88.3358 65.2406
" />
</g></g>
<g style="fill:#000000; fill-opacity:0.0; 
stroke:#000000; stroke-width:0.1000; stroke-opacity:1; 
stroke-linecap:round; stroke-linejoin:round;">
<g transform="rotate(-30.000000 71.5058 63.2876)">
<text x="71.5058" y="63.5376"
textLength="1.1762" font-size="0.6667" lengthAdjust="spacingAndGlyphs"
text-anchor="middle" opacity="0">D8</text>
</g>
<g class="stroked-text"><desc>D8</desc>
<path d="M71.2992 63.6679
L71.0492 63.2349
" />
<path d="M71.0492 63.2349
L71.1523 63.1754
" />
<path d="M71.1523 63.1754
L71.2261 63.1603
" />
<path d="M71.2261 63.1603
L71.2911 63.1777
" />
<path d="M71.2911 63.1777
L71.3356 63.2070
" />
<path d="M71.3356 63.2070
L71.4038 63.2776
" />
<path d="M71.4038 63.2776
L71.4395 63.3395
" />
<path d="M71.4395 63.3395
L71.4665 63.4339
" />
<path d="M71.4665 63.4339
L71.4697 63.4870
" />
<path d="M71.4697 63.4870
L71.4523 63.5520
" />
<path d="M71.4523 63.5520
L71.4023 63.6084
" />
<path d="M71.4023 63.6084
L71.2992 63.6679
" />
<path d="M71.6512 63.1348
L71.5981 63.1379
" />
<path d="M71.5981 63.1379
L71.5656 63.1292
" />
<path d="M71.5656 63.1292
L71.5211 63.0999
" />
<path d="M71.5211 63.0999
L71.5092 63.0793
" />
<path d="M71.5092 63.0793
L71.5060 63.0261
" />
<path d="M71.5060 63.0261
L71.5148 62.9936
" />
<path d="M71.5148 62.9936
L71.5441 62.9492
" />
<path d="M71.5441 62.9492
L71.6266 62.9016
" />
<path d="M71.6266 62.9016
L71.6797 62.8984
" />
<path d="M71.6797 62.8984
L71.7122 62.9071
" />
<path d="M71.7122 62.9071
L71.7567 62.9364
" />
<path d="M71.7567 62.9364
L71.7686 62.9570
" />
<path d="M71.7686 62.9570
L71.7718 63.0102
" />
<path d="M71.7718 63.0102
L71.7630 63.0427
" />
<path d="M71.7630 63.0427
L71.7337 63.0871
" />
<path d="M71.7337 63.0871
L71.6512 63.1348
" />
<path d="M71.6512 63.1348
L71.6219 63.1792
" />
<path d="M71.6219 63.1792
L71.6132 63.2117
" />
<path d="M71.6132 63.2117
L71.6164 63.2649
" />
<path d="M71.6164 63.2649
L71.6640 63.3473
" />
<path d="M71.6640 63.3473
L71.7084 63.3767
" />
<path d="M71.7084 63.3767
L71.7409 63.3854
" />
<path d="M71.7409 63.3854
L71.7941 63.3822
" />
<path d="M71.7941 63.3822
L71.8766 63.3346
" />
<path d="M71.8766 63.3346
L71.9059 63.2901
" />
<path d="M71.9059 63.2901
L71.9146 63.2576
" />
<path d="M71.9146 63.2576
L71.9114 63.2045
" />
<path d="M71.9114 63.2045
L71.8638 63.1220
" />
<path d="M71.8638 63.1220
L71.8194 63.0927
" />
<path d="M71.8194 63.0927
L71.7869 63.0839
" />
<path d="M71.7869 63.0839
L71.7337 63.0871
" />
</g></g>
<g style="fill:#000000; fill-opacity:0.0; 
stroke:#000000; stroke-width:0.0750; stroke-opacity:1; 
stroke-linecap:round; stroke-linejoin:round;">
<g transform="rotate(-30.000000 71.1797 64.5728)">
<text x="71.1797" y="64.7228"
textLength="0.4507" font-size="0.4000" lengthAdjust="spacingAndGlyphs"
text-anchor="middle" opacity="0">1</text>
</g>
<g class="stroked-text"><desc>1</desc>
<path d="M71.3214 64.6467
L71.1729 64.7325
" />
<path d="M71.2471 64.6896
L71.0971 64.4298
" />
<path d="M71.0971 64.4298
L71.0938 64.4812
" />
<path d="M71.0938 64.4812
L71.0834 64.5202
" />
<path d="M71.0834 64.5202
L71.0658 64.5469
" />
</g></g>
<g style="fill:#000000; fill-opacity:0.0; 
stroke:#000000; stroke-width:0.1000; stroke-opacity:1; 
stroke-linecap:round; stroke-linejoin:round;">
<g transform="rotate(-90.000000 78.5600 69.3000)">
<text x="78.5600" y="69.5500"
textLength="1.6524" font-size="0.6667" lengthAdjust="spacingAndGlyphs"
text-anchor="middle" opacity="0">D10</text>
</g>
<g class="stroked-text"><desc>D10</desc>
<path d="M78.7861 69.9071
L78.2861 69.9071
" />
<path d="M78.2861 69.9071
L78.2861 69.7881
" />
<path d="M78.2861 69.7881
L78.3099 69.7167
" />
<path d="M78.3099 69.7167
L78.3575 69.6690
" />
<path d="M78.3575 69.6690
L78.4052 69.6452
" />
<path d="M78.4052 69.6452
L78.5004 69.6214
" />
<path d="M78.5004 69.6214
L78.5718 69.6214
" />
<path d="M78.5718 69.6214
L78.6671 69.6452
" />
<path d="M78.6671 69.6452
L78.7147 69.6690
" />
<path d="M78.7147 69.6690
L78.7623 69.7167
" />
<path d="M78.7623 69.7167
L78.7861 69.7881
" />
<path d="M78.7861 69.7881
L78.7861 69.9071
" />
<path d="M78.7861 69.1452
L78.7861 69.4310
" />
<path d="M78.7861 69.2881
L78.2861 69.2881
" />
<path d="M78.2861 69.2881
L78.3575 69.3357
" />
<path d="M78.3575 69.3357
L78.4052 69.3833
" />
<path d="M78.4052 69.3833
L78.4290 69.4310
" />
<path d="M78.2861 68.8357
L78.2861 68.7881
" />
<path d="M78.2861 68.7881
L78.3099 68.7405
" />
<path d="M78.3099 68.7405
L78.3337 68.7167
" />
<path d="M78.3337 68.7167
L78.3813 68.6929
" />
<path d="M78.3813 68.6929
L78.4766 68.6690
" />
<path d="M78.4766 68.6690
L78.5956 68.6690
" />
<path d="M78.5956 68.6690
L78.6909 68.6929
" />
<path d="M78.6909 68.6929
L78.7385 68.7167
" />
<path d="M78.7385 68.7167
L78.7623 68.7405
" />
<path d="M78.7623 68.7405
L78.7861 68.7881
" />
<path d="M78.7861 68.7881
L78.7861 68.8357
" />
<path d="M78.7861 68.8357
L78.7623 68.8833
" />
<path d="M78.7623 68.8833
L78.7385 68.9071
" />
<path d="M78.7385 68.9071
L78.6909 68.9310
" />
<path d="M78.6909 68.9310
L78.5956 68.9548
" />
<path d="M78.5956 68.9548
L78.4766 68.9548
" />
<path d="M78.4766 68.9548
L78.3813 68.9310
" />
<path d="M78.3813 68.9310
L78.3337 68.9071
" />
<path d="M78.3337 68.9071
L78.3099 68.8833
" />
<path d="M78.3099 68.8833
L78.2861 68.8357
" />
</g></g>
<g style="fill:#000000; fill-opacity:0.0; 
stroke:#000000; stroke-width:0.0750; stroke-opacity:1; 
stroke-linecap:round; stroke-linejoin:round;">
<g transform="rotate(-90.000000 79.5500 69.9250)">
<text x="79.5500" y="70.0750"
textLength="0.4507" font-size="0.4000" lengthAdjust="spacingAndGlyphs"
text-anchor="middle" opacity="0">1</text>
</g>
<g class="stroked-text"><desc>1</desc>
<path d="M79.6849 69.8393
L79.6849 70.0107
" />
<path d="M79.6849 69.9250
L79.3849 69.9250
" />
<path d="M79.3849 69.9250
L79.4277 69.9536
" />
<path d="M79.4277 69.9536
L79.4563 69.9821
" />
<path d="M79.4563 69.9821
L79.4706 70.0107
" />
</g></g>
<g style="fill:#000000; fill-opacity:0.0; 
stroke:#000000; stroke-width:0.1000; stroke-opacity:1; 
stroke-linecap:round; stroke-linejoin:round;">
<text x="71.0000" y="58.8500"
textLength="1.1762" font-size="0.6667" lengthAdjust="spacingAndGlyphs"
text-anchor="middle" opacity="0">D7</text>
<g class="stroked-text"><desc>D7</desc>
<path d="M70.6310 58.8261
L70.6310 58.3261
" />
<path d="M70.6310 58.3261
L70.7500 58.3261
" />
<path d="M70.7500 58.3261
L70.8214 58.3499
" />
<path d="M70.8214 58.3499
L70.8690 58.3975
" />
<path d="M70.8690 58.3975
L70.8929 58.4452
" />
<path d="M70.8929 58.4452
L70.9167 58.5404
" />
<path d="M70.9167 58.5404
L70.9167 58.6118
" />
<path d="M70.9167 58.6118
L70.8929 58.7071
" />
<path d="M70.8929 58.7071
L70.8690 58.7547
" />
<path d="M70.8690 58.7547
L70.8214 58.8023
" />
<path d="M70.8214 58.8023
L70.7500 58.8261
" />
<path d="M70.7500 58.8261
L70.6310 58.8261
" />
<path d="M71.0833 58.3261
L71.4167 58.3261
" />
<path d="M71.4167 58.3261
L71.2024 58.8261
" />
</g></g>
<g style="fill:#000000; fill-opacity:0.0; 
stroke:#000000; stroke-width:0.0750; stroke-opacity:1; 
stroke-linecap:round; stroke-linejoin:round;">
<text x="70.0750" y="59.7000"
textLength="0.4507" font-size="0.4000" lengthAdjust="spacingAndGlyphs"
text-anchor="middle" opacity="0">1</text>
<g class="stroked-text"><desc>1</desc>
<path d="M70.1607 59.6849
L69.9893 59.6849
" />
<path d="M70.0750 59.6849
L70.0750 59.3849
" />
<path d="M70.0750 59.3849
L70.0464 59.4277
" />
<path d="M70.0464 59.4277
L70.0179 59.4563
" />
<path d="M70.0179 59.4563
L69.9893 59.4706
" />
</g></g>
<g style="fill:#000000; fill-opacity:0.0; 
stroke:#000000; stroke-width:0.1000; stroke-opacity:1; 
stroke-linecap:round; stroke-linejoin:round;">
<g transform="rotate(30.000000 72.9058 54.2876)">
<text x="72.9058" y="54.5376"
textLength="1.1762" font-size="0.6667" lengthAdjust="spacingAndGlyphs"
text-anchor="middle" opacity="0">D6</text>
</g>
<g class="stroked-text"><desc>D6</desc>
<path d="M72.4731 54.2989
L72.7231 53.8658
" />
<path d="M72.7231 53.8658
L72.8262 53.9254
" />
<path d="M72.8262 53.9254
L72.8762 53.9817
" />
<path d="M72.8762 53.9817
L72.8936 54.0467
" />
<path d="M72.8936 54.0467
L72.8904 54.0999
" />
<path d="M72.8904 54.0999
L72.8634 54.1943
" />
<path d="M72.8634 54.1943
L72.8277 54.2561
" />
<path d="M72.8277 54.2561
L72.7595 54.3267
" />
<path d="M72.7595 54.3267
L72.7150 54.3560
" />
<path d="M72.7150 54.3560
L72.6500 54.3735
" />
<path d="M72.6500 54.3735
L72.5762 54.3584
" />
<path d="M72.5762 54.3584
L72.4731 54.2989
" />
<path d="M73.3417 54.2230
L73.2592 54.1754
" />
<path d="M73.2592 54.1754
L73.2061 54.1722
" />
<path d="M73.2061 54.1722
L73.1736 54.1809
" />
<path d="M73.1736 54.1809
L73.0966 54.2189
" />
<path d="M73.0966 54.2189
L73.0284 54.2895
" />
<path d="M73.0284 54.2895
L72.9331 54.4545
" />
<path d="M72.9331 54.4545
L72.9299 54.5076
" />
<path d="M72.9299 54.5076
L72.9386 54.5401
" />
<path d="M72.9386 54.5401
L72.9680 54.5846
" />
<path d="M72.9680 54.5846
L73.0505 54.6322
" />
<path d="M73.0505 54.6322
L73.1036 54.6354
" />
<path d="M73.1036 54.6354
L73.1361 54.6267
" />
<path d="M73.1361 54.6267
L73.1806 54.5973
" />
<path d="M73.1806 54.5973
L73.2401 54.4942
" />
<path d="M73.2401 54.4942
L73.2433 54.4411
" />
<path d="M73.2433 54.4411
L73.2346 54.4086
" />
<path d="M73.2346 54.4086
L73.2052 54.3641
" />
<path d="M73.2052 54.3641
L73.1227 54.3165
" />
<path d="M73.1227 54.3165
L73.0696 54.3133
" />
<path d="M73.0696 54.3133
L73.0371 54.3220
" />
<path d="M73.0371 54.3220
L72.9926 54.3514
" />
</g></g>
<g style="fill:#000000; fill-opacity:0.0; 
stroke:#000000; stroke-width:0.0750; stroke-opacity:1; 
stroke-linecap:round; stroke-linejoin:round;">
<g transform="rotate(30.000000 71.6297 54.6478)">
<text x="71.6297" y="54.7978"
textLength="0.4507" font-size="0.4000" lengthAdjust="spacingAndGlyphs"
text-anchor="middle" opacity="0">1</text>
</g>
<g class="stroked-text"><desc>1</desc>
<path d="M71.6365 54.8075
L71.4880 54.7217
" />
<path d="M71.5623 54.7646
L71.7123 54.5048
" />
<path d="M71.7123 54.5048
L71.6661 54.5276
" />
<path d="M71.6661 54.5276
L71.6271 54.5381
" />
<path d="M71.6271 54.5381
L71.5952 54.5362
" />
</g></g>
<g style="fill:#000000; fill-opacity:0.0; 
stroke:#000000; stroke-width:0.1500; stroke-opacity:1; 
stroke-linecap:round; stroke-linejoin:round;">
<text x="80.0000" y="48.0000"
textLength="3.5357" font-size="1.3333" lengthAdjust="spacingAndGlyphs"
text-anchor="middle" opacity="0">FID1</text>
<g class="stroked-text"><desc>FID1</desc>
<path d="M78.9286 47.4310
L78.5952 47.4310
" />
<path d="M78.5952 47.9548
L78.5952 46.9548
" />
<path d="M78.5952 46.9548
L79.0714 46.9548
" />
<path d="M79.4524 47.9548
L79.4524 46.9548
" />
<path d="M79.9286 47.9548
L79.9286 46.9548
" />
<path d="M79.9286 46.9548
L80.1667 46.9548
" />
<path d="M80.1667 46.9548
L80.3095 47.0024
" />
<path d="M80.3095 47.0024
L80.4048 47.0977
" />
<path d="M80.4048 47.0977
L80.4524 47.1929
" />
<path d="M80.4524 47.1929
L80.5000 47.3834
" />
<path d="M80.5000 47.3834
L80.5000 47.5262
" />
<path d="M80.5000 47.5262
L80.4524 47.7167
" />
<path d="M80.4524 47.7167
L80.4048 47.8120
" />
<path d="M80.4048 47.8120
L80.3095 47.9072
" />
<path d="M80.3095 47.9072
L80.1667 47.9548
" />
<path d="M80.1667 47.9548
L79.9286 47.9548
" />
<path d="M81.4524 47.9548
L80.8810 47.9548
" />
<path d="M81.1667 47.9548
L81.1667 46.9548
" />
<path d="M81.1667 46.9548
L81.0714 47.0977
" />
<path d="M81.0714 47.0977
L80.9762 47.1929
" />
<path d="M80.9762 47.1929
L80.8810 47.2405
" />
</g></g>
<g style="fill:#000000; fill-opacity:0.0; 
stroke:#000000; stroke-width:0.1000; stroke-opacity:1; 
stroke-linecap:round; stroke-linejoin:round;">
<text x="70.9500" y="62.5000"
textLength="1.1762" font-size="0.6667" lengthAdjust="spacingAndGlyphs"
text-anchor="middle" opacity="0">C7</text>
<g class="stroked-text"><desc>C7</desc>
<path d="M70.8667 62.4285
L70.8429 62.4523
" />
<path d="M70.8429 62.4523
L70.7714 62.4761
" />
<path d="M70.7714 62.4761
L70.7238 62.4761
" />
<path d="M70.7238 62.4761
L70.6524 62.4523
" />
<path d="M70.6524 62.4523
L70.6048 62.4047
" />
<path d="M70.6048 62.4047
L70.5810 62.3571
" />
<path d="M70.5810 62.3571
L70.5571 62.2618
" />
<path d="M70.5571 62.2618
L70.5571 62.1904
" />
<path d="M70.5571 62.1904
L70.5810 62.0952
" />
<path d="M70.5810 62.0952
L70.6048 62.0475
" />
<path d="M70.6048 62.0475
L70.6524 61.9999
" />
<path d="M70.6524 61.9999
L70.7238 61.9761
" />
<path d="M70.7238 61.9761
L70.7714 61.9761
" />
<path d="M70.7714 61.9761
L70.8429 61.9999
" />
<path d="M70.8429 61.9999
L70.8667 62.0237
" />
<path d="M71.0333 61.9761
L71.3667 61.9761
" />
<path d="M71.3667 61.9761
L71.1524 62.4761
" />
</g><g transform="rotate(-90.000000 88.0700 57.3000)">
<text x="88.0700" y="57.5500"
textLength="1.6524" font-size="0.6667" lengthAdjust="spacingAndGlyphs"
text-anchor="middle" opacity="0">D13</text>
</g>
<g class="stroked-text"><desc>D13</desc>
<path d="M88.2961 57.9071
L87.7961 57.9071
" />
<path d="M87.7961 57.9071
L87.7961 57.7881
" />
<path d="M87.7961 57.7881
L87.8199 57.7167
" />
<path d="M87.8199 57.7167
L87.8675 57.6690
" />
<path d="M87.8675 57.6690
L87.9152 57.6452
" />
<path d="M87.9152 57.6452
L88.0104 57.6214
" />
<path d="M88.0104 57.6214
L88.0818 57.6214
" />
<path d="M88.0818 57.6214
L88.1771 57.6452
" />
<path d="M88.1771 57.6452
L88.2247 57.6690
" />
<path d="M88.2247 57.6690
L88.2723 57.7167
" />
<path d="M88.2723 57.7167
L88.2961 57.7881
" />
<path d="M88.2961 57.7881
L88.2961 57.9071
" />
<path d="M88.2961 57.1452
L88.2961 57.4310
" />
<path d="M88.2961 57.2881
L87.7961 57.2881
" />
<path d="M87.7961 57.2881
L87.8675 57.3357
" />
<path d="M87.8675 57.3357
L87.9152 57.3833
" />
<path d="M87.9152 57.3833
L87.9390 57.4310
" />
<path d="M87.7961 56.9786
L87.7961 56.6690
" />
<path d="M87.7961 56.6690
L87.9866 56.8357
" />
<path d="M87.9866 56.8357
L87.9866 56.7643
" />
<path d="M87.9866 56.7643
L88.0104 56.7167
" />
<path d="M88.0104 56.7167
L88.0342 56.6929
" />
<path d="M88.0342 56.6929
L88.0818 56.6690
" />
<path d="M88.0818 56.6690
L88.2009 56.6690
" />
<path d="M88.2009 56.6690
L88.2485 56.6929
" />
<path d="M88.2485 56.6929
L88.2723 56.7167
" />
<path d="M88.2723 56.7167
L88.2961 56.7643
" />
<path d="M88.2961 56.7643
L88.2961 56.9071
" />
<path d="M88.2961 56.9071
L88.2723 56.9548
" />
<path d="M88.2723 56.9548
L88.2485 56.9786
" />
</g><g transform="rotate(-30.000000 73.4000 66.4500)">
<text x="73.4000" y="66.7000"
textLength="1.1762" font-size="0.6667" lengthAdjust="spacingAndGlyphs"
text-anchor="middle" opacity="0">C8</text>
</g>
<g class="stroked-text"><desc>C8</desc>
<path d="M73.4171 66.6462
L73.4084 66.6788
" />
<path d="M73.4084 66.6788
L73.3584 66.7351
" />
<path d="M73.3584 66.7351
L73.3172 66.7589
" />
<path d="M73.3172 66.7589
L73.2434 66.7740
" />
<path d="M73.2434 66.7740
L73.1784 66.7566
" />
<path d="M73.1784 66.7566
L73.1339 66.7272
" />
<path d="M73.1339 66.7272
L73.0657 66.6567
" />
<path d="M73.0657 66.6567
L73.0300 66.5948
" />
<path d="M73.0300 66.5948
L73.0030 66.5004
" />
<path d="M73.0030 66.5004
L72.9998 66.4473
" />
<path d="M72.9998 66.4473
L73.0172 66.3822
" />
<path d="M73.0172 66.3822
L73.0672 66.3259
" />
<path d="M73.0672 66.3259
L73.1084 66.3021
" />
<path d="M73.1084 66.3021
L73.1822 66.2870
" />
<path d="M73.1822 66.2870
L73.2147 66.2957
" />
<path d="M73.5455 66.2972
L73.4923 66.3004
" />
<path d="M73.4923 66.3004
L73.4598 66.2917
" />
<path d="M73.4598 66.2917
L73.4154 66.2623
" />
<path d="M73.4154 66.2623
L73.4035 66.2417
" />
<path d="M73.4035 66.2417
L73.4003 66.1886
" />
<path d="M73.4003 66.1886
L73.4090 66.1560
" />
<path d="M73.4090 66.1560
L73.4383 66.1116
" />
<path d="M73.4383 66.1116
L73.5208 66.0640
" />
<path d="M73.5208 66.0640
L73.5739 66.0608
" />
<path d="M73.5739 66.0608
L73.6065 66.0695
" />
<path d="M73.6065 66.0695
L73.6509 66.0989
" />
<path d="M73.6509 66.0989
L73.6628 66.1195
" />
<path d="M73.6628 66.1195
L73.6660 66.1726
" />
<path d="M73.6660 66.1726
L73.6573 66.2051
" />
<path d="M73.6573 66.2051
L73.6279 66.2496
" />
<path d="M73.6279 66.2496
L73.5455 66.2972
" />
<path d="M73.5455 66.2972
L73.5161 66.3416
" />
<path d="M73.5161 66.3416
L73.5074 66.3741
" />
<path d="M73.5074 66.3741
L73.5106 66.4273
" />
<path d="M73.5106 66.4273
L73.5582 66.5098
" />
<path d="M73.5582 66.5098
L73.6027 66.5391
" />
<path d="M73.6027 66.5391
L73.6352 66.5478
" />
<path d="M73.6352 66.5478
L73.6883 66.5446
" />
<path d="M73.6883 66.5446
L73.7708 66.4970
" />
<path d="M73.7708 66.4970
L73.8001 66.4526
" />
<path d="M73.8001 66.4526
L73.8088 66.4201
" />
<path d="M73.8088 66.4201
L73.8057 66.3669
" />
<path d="M73.8057 66.3669
L73.7580 66.2844
" />
<path d="M73.7580 66.2844
L73.7136 66.2551
" />
<path d="M73.7136 66.2551
L73.6811 66.2464
" />
<path d="M73.6811 66.2464
L73.6279 66.2496
" />
</g><g transform="rotate(-60.000000 77.4500 68.8500)">
<text x="77.4500" y="69.1000"
textLength="1.1762" font-size="0.6667" lengthAdjust="spacingAndGlyphs"
text-anchor="middle" opacity="0">C9</text>
</g>
<g class="stroked-text"><desc>C9</desc>
<path d="M77.5629 69.0114
L77.5716 69.0439
" />
<path d="M77.5716 69.0439
L77.5565 69.1177
" />
<path d="M77.5565 69.1177
L77.5327 69.1589
" />
<path d="M77.5327 69.1589
L77.4764 69.2089
" />
<path d="M77.4764 69.2089
L77.4113 69.2263
" />
<path d="M77.4113 69.2263
L77.3582 69.2231
" />
<path d="M77.3582 69.2231
L77.2638 69.1961
" />
<path d="M77.2638 69.1961
L77.2020 69.1604
" />
<path d="M77.2020 69.1604
L77.1314 69.0922
" />
<path d="M77.1314 69.0922
L77.1020 69.0478
" />
<path d="M77.1020 69.0478
L77.0846 68.9827
" />
<path d="M77.0846 68.9827
L77.0997 68.9089
" />
<path d="M77.0997 68.9089
L77.1235 68.8677
" />
<path d="M77.1235 68.8677
L77.1799 68.8177
" />
<path d="M77.1799 68.8177
L77.2124 68.8090
" />
<path d="M77.7232 68.8290
L77.7708 68.7465
" />
<path d="M77.7708 68.7465
L77.7740 68.6934
" />
<path d="M77.7740 68.6934
L77.7653 68.6609
" />
<path d="M77.7653 68.6609
L77.7272 68.5839
" />
<path d="M77.7272 68.5839
L77.6567 68.5157
" />
<path d="M77.6567 68.5157
L77.4917 68.4204
" />
<path d="M77.4917 68.4204
L77.4386 68.4173
" />
<path d="M77.4386 68.4173
L77.4060 68.4260
" />
<path d="M77.4060 68.4260
L77.3616 68.4553
" />
<path d="M77.3616 68.4553
L77.3140 68.5378
" />
<path d="M77.3140 68.5378
L77.3108 68.5909
" />
<path d="M77.3108 68.5909
L77.3195 68.6235
" />
<path d="M77.3195 68.6235
L77.3489 68.6679
" />
<path d="M77.3489 68.6679
L77.4520 68.7274
" />
<path d="M77.4520 68.7274
L77.5051 68.7306
" />
<path d="M77.5051 68.7306
L77.5376 68.7219
" />
<path d="M77.5376 68.7219
L77.5820 68.6925
" />
<path d="M77.5820 68.6925
L77.6297 68.6101
" />
<path d="M77.6297 68.6101
L77.6329 68.5569
" />
<path d="M77.6329 68.5569
L77.6241 68.5244
" />
<path d="M77.6241 68.5244
L77.5948 68.4800
" />
</g><g transform="rotate(60.000000 86.5000 66.7000)">
<text x="86.5000" y="66.9500"
textLength="1.6524" font-size="0.6667" lengthAdjust="spacingAndGlyphs"
text-anchor="middle" opacity="0">C11</text>
</g>
<g class="stroked-text"><desc>C11</desc>
<path d="M86.1847 66.5109
L86.1522 66.5022
" />
<path d="M86.1522 66.5022
L86.0958 66.4522
" />
<path d="M86.0958 66.4522
L86.0720 66.4110
" />
<path d="M86.0720 66.4110
L86.0569 66.3372
" />
<path d="M86.0569 66.3372
L86.0744 66.2722
" />
<path d="M86.0744 66.2722
L86.1037 66.2277
" />
<path d="M86.1037 66.2277
L86.1743 66.1595
" />
<path d="M86.1743 66.1595
L86.2361 66.1238
" />
<path d="M86.2361 66.1238
L86.3305 66.0968
" />
<path d="M86.3305 66.0968
L86.3837 66.0936
" />
<path d="M86.3837 66.0936
L86.4487 66.1110
" />
<path d="M86.4487 66.1110
L86.5051 66.1610
" />
<path d="M86.5051 66.1610
L86.5289 66.2022
" />
<path d="M86.5289 66.2022
L86.5440 66.2760
" />
<path d="M86.5440 66.2760
L86.5352 66.3085
" />
<path d="M86.3816 66.9471
L86.2387 66.6996
" />
<path d="M86.3101 66.8234
L86.7431 66.5734
" />
<path d="M86.7431 66.5734
L86.6575 66.5678
" />
<path d="M86.6575 66.5678
L86.5924 66.5504
" />
<path d="M86.5924 66.5504
L86.5480 66.5211
" />
<path d="M86.6197 67.3595
L86.4768 67.1120
" />
<path d="M86.5482 67.2358
L86.9812 66.9858
" />
<path d="M86.9812 66.9858
L86.8956 66.9802
" />
<path d="M86.8956 66.9802
L86.8305 66.9628
" />
<path d="M86.8305 66.9628
L86.7861 66.9335
" />
</g><g transform="rotate(30.000000 71.0000 57.3500)">
<text x="71.0000" y="57.6000"
textLength="1.1762" font-size="0.6667" lengthAdjust="spacingAndGlyphs"
text-anchor="middle" opacity="0">C6</text>
</g>
<g class="stroked-text"><desc>C6</desc>
<path d="M70.8386 57.4629
L70.8061 57.4716
" />
<path d="M70.8061 57.4716
L70.7323 57.4565
" />
<path d="M70.7323 57.4565
L70.6911 57.4327
" />
<path d="M70.6911 57.4327
L70.6411 57.3764
" />
<path d="M70.6411 57.3764
L70.6237 57.3113
" />
<path d="M70.6237 57.3113
L70.6269 57.2582
" />
<path d="M70.6269 57.2582
L70.6539 57.1638
" />
<path d="M70.6539 57.1638
L70.6896 57.1020
" />
<path d="M70.6896 57.1020
L70.7578 57.0314
" />
<path d="M70.7578 57.0314
L70.8022 57.0020
" />
<path d="M70.8022 57.0020
L70.8673 56.9846
" />
<path d="M70.8673 56.9846
L70.9411 56.9997
" />
<path d="M70.9411 56.9997
L70.9823 57.0235
" />
<path d="M70.9823 57.0235
L71.0323 57.0799
" />
<path d="M71.0323 57.0799
L71.0410 57.1124
" />
<path d="M71.4359 57.2854
L71.3535 57.2378
" />
<path d="M71.3535 57.2378
L71.3003 57.2346
" />
<path d="M71.3003 57.2346
L71.2678 57.2433
" />
<path d="M71.2678 57.2433
L71.1908 57.2814
" />
<path d="M71.1908 57.2814
L71.1226 57.3520
" />
<path d="M71.1226 57.3520
L71.0274 57.5169
" />
<path d="M71.0274 57.5169
L71.0242 57.5701
" />
<path d="M71.0242 57.5701
L71.0329 57.6026
" />
<path d="M71.0329 57.6026
L71.0622 57.6470
" />
<path d="M71.0622 57.6470
L71.1447 57.6946
" />
<path d="M71.1447 57.6946
L71.1978 57.6978
" />
<path d="M71.1978 57.6978
L71.2304 57.6891
" />
<path d="M71.2304 57.6891
L71.2748 57.6598
" />
<path d="M71.2748 57.6598
L71.3343 57.5567
" />
<path d="M71.3343 57.5567
L71.3375 57.5035
" />
<path d="M71.3375 57.5035
L71.3288 57.4710
" />
<path d="M71.3288 57.4710
L71.2995 57.4266
" />
<path d="M71.2995 57.4266
L71.2170 57.3790
" />
<path d="M71.2170 57.3790
L71.1638 57.3758
" />
<path d="M71.1638 57.3758
L71.1313 57.3845
" />
<path d="M71.1313 57.3845
L71.0869 57.4138
" />
</g><g transform="rotate(-90.000000 82.2500 69.2000)">
<text x="82.2500" y="69.4500"
textLength="1.6524" font-size="0.6667" lengthAdjust="spacingAndGlyphs"
text-anchor="middle" opacity="0">C10</text>
</g>
<g class="stroked-text"><desc>C10</desc>
<path d="M82.4285 69.5214
L82.4523 69.5452
" />
<path d="M82.4523 69.5452
L82.4761 69.6167
" />
<path d="M82.4761 69.6167
L82.4761 69.6643
" />
<path d="M82.4761 69.6643
L82.4523 69.7357
" />
<path d="M82.4523 69.7357
L82.4047 69.7833
" />
<path d="M82.4047 69.7833
L82.3571 69.8071
" />
<path d="M82.3571 69.8071
L82.2618 69.8310
" />
<path d="M82.2618 69.8310
L82.1904 69.8310
" />
<path d="M82.1904 69.8310
L82.0952 69.8071
" />
<path d="M82.0952 69.8071
L82.0475 69.7833
" />
<path d="M82.0475 69.7833
L81.9999 69.7357
" />
<path d="M81.9999 69.7357
L81.9761 69.6643
" />
<path d="M81.9761 69.6643
L81.9761 69.6167
" />
<path d="M81.9761 69.6167
L81.9999 69.5452
" />
<path d="M81.9999 69.5452
L82.0237 69.5214
" />
<path d="M82.4761 69.0452
L82.4761 69.3310
" />
<path d="M82.4761 69.1881
L81.9761 69.1881
" />
<path d="M81.9761 69.1881
L82.0475 69.2357
" />
<path d="M82.0475 69.2357
L82.0952 69.2833
" />
<path d="M82.0952 69.2833
L82.1190 69.3310
" />
<path d="M81.9761 68.7357
L81.9761 68.6881
" />
<path d="M81.9761 68.6881
L81.9999 68.6405
" />
<path d="M81.9999 68.6405
L82.0237 68.6167
" />
<path d="M82.0237 68.6167
L82.0713 68.5929
" />
<path d="M82.0713 68.5929
L82.1666 68.5690
" />
<path d="M82.1666 68.5690
L82.2856 68.5690
" />
<path d="M82.2856 68.5690
L82.3809 68.5929
" />
<path d="M82.3809 68.5929
L82.4285 68.6167
" />
<path d="M82.4285 68.6167
L82.4523 68.6405
" />
<path d="M82.4523 68.6405
L82.4761 68.6881
" />
<path d="M82.4761 68.6881
L82.4761 68.7357
" />
<path d="M82.4761 68.7357
L82.4523 68.7833
" />
<path d="M82.4523 68.7833
L82.4285 68.8071
" />
<path d="M82.4285 68.8071
L82.3809 68.8310
" />
<path d="M82.3809 68.8310
L82.2856 68.8548
" />
<path d="M82.2856 68.8548
L82.1666 68.8548
" />
<path d="M82.1666 68.8548
L82.0713 68.8310
" />
<path d="M82.0713 68.8310
L82.0237 68.8071
" />
<path d="M82.0237 68.8071
L81.9999 68.7833
" />
<path d="M81.9999 68.7833
L81.9761 68.7357
" />
</g><g transform="rotate(-30.000000 89.3000 55.1500)">
<text x="89.3000" y="55.4000"
textLength="1.1762" font-size="0.6667" lengthAdjust="spacingAndGlyphs"
text-anchor="middle" opacity="0">D2</text>
</g>
<g class="stroked-text"><desc>D2</desc>
<path d="M89.0934 55.5303
L88.8434 55.0973
" />
<path d="M88.8434 55.0973
L88.9465 55.0378
" />
<path d="M88.9465 55.0378
L89.0203 55.0227
" />
<path d="M89.0203 55.0227
L89.0854 55.0401
" />
<path d="M89.0854 55.0401
L89.1298 55.0695
" />
<path d="M89.1298 55.0695
L89.1980 55.1400
" />
<path d="M89.1980 55.1400
L89.2337 55.2019
" />
<path d="M89.2337 55.2019
L89.2607 55.2963
" />
<path d="M89.2607 55.2963
L89.2639 55.3494
" />
<path d="M89.2639 55.3494
L89.2465 55.4145
" />
<path d="M89.2465 55.4145
L89.1965 55.4708
" />
<path d="M89.1965 55.4708
L89.0934 55.5303
" />
<path d="M89.2797 54.9005
L89.2884 54.8679
" />
<path d="M89.2884 54.8679
L89.3177 54.8235
" />
<path d="M89.3177 54.8235
L89.4208 54.7640
" />
<path d="M89.4208 54.7640
L89.4739 54.7608
" />
<path d="M89.4739 54.7608
L89.5065 54.7695
" />
<path d="M89.5065 54.7695
L89.5509 54.7989
" />
<path d="M89.5509 54.7989
L89.5747 54.8401
" />
<path d="M89.5747 54.8401
L89.5898 54.9139
" />
<path d="M89.5898 54.9139
L89.4852 55.3041
" />
<path d="M89.4852 55.3041
L89.7533 55.1494
" />
</g></g>
<g style="fill:#000000; fill-opacity:0.0; 
stroke:#000000; stroke-width:0.0750; stroke-opacity:1; 
stroke-linecap:round; stroke-linejoin:round;">
<g transform="rotate(-30.000000 88.8203 55.4272)">
<text x="88.8203" y="55.5772"
textLength="0.4507" font-size="0.4000" lengthAdjust="spacingAndGlyphs"
text-anchor="middle" opacity="0">1</text>
</g>
<g class="stroked-text"><desc>1</desc>
<path d="M88.9620 55.5012
L88.8135 55.5869
" />
<path d="M88.8877 55.5440
L88.7377 55.2842
" />
<path d="M88.7377 55.2842
L88.7344 55.3356
" />
<path d="M88.7344 55.3356
L88.7240 55.3746
" />
<path d="M88.7240 55.3746
L88.7064 55.4013
" />
</g></g>
<g style="fill:#000000; fill-opacity:0.0; 
stroke:#000000; stroke-width:0.1000; stroke-opacity:1; 
stroke-linecap:round; stroke-linejoin:round;">
<text x="90.5500" y="59.1600"
textLength="1.1762" font-size="0.6667" lengthAdjust="spacingAndGlyphs"
text-anchor="middle" opacity="0">C1</text>
<g class="stroked-text"><desc>C1</desc>
<path d="M90.4667 59.0885
L90.4429 59.1123
" />
<path d="M90.4429 59.1123
L90.3714 59.1361
" />
<path d="M90.3714 59.1361
L90.3238 59.1361
" />
<path d="M90.3238 59.1361
L90.2524 59.1123
" />
<path d="M90.2524 59.1123
L90.2048 59.0647
" />
<path d="M90.2048 59.0647
L90.1810 59.0171
" />
<path d="M90.1810 59.0171
L90.1571 58.9218
" />
<path d="M90.1571 58.9218
L90.1571 58.8504
" />
<path d="M90.1571 58.8504
L90.1810 58.7552
" />
<path d="M90.1810 58.7552
L90.2048 58.7075
" />
<path d="M90.2048 58.7075
L90.2524 58.6599
" />
<path d="M90.2524 58.6599
L90.3238 58.6361
" />
<path d="M90.3238 58.6361
L90.3714 58.6361
" />
<path d="M90.3714 58.6361
L90.4429 58.6599
" />
<path d="M90.4429 58.6599
L90.4667 58.6837
" />
<path d="M90.9429 59.1361
L90.6571 59.1361
" />
<path d="M90.8000 59.1361
L90.8000 58.6361
" />
<path d="M90.8000 58.6361
L90.7524 58.7075
" />
<path d="M90.7524 58.7075
L90.7048 58.7552
" />
<path d="M90.7048 58.7552
L90.6571 58.7790
" />
</g><g transform="rotate(-30.000000 86.7000 53.6500)">
<text x="86.7000" y="53.9000"
textLength="1.1762" font-size="0.6667" lengthAdjust="spacingAndGlyphs"
text-anchor="middle" opacity="0">C2</text>
</g>
<g class="stroked-text"><desc>C2</desc>
<path d="M86.7171 53.8462
L86.7084 53.8788
" />
<path d="M86.7084 53.8788
L86.6584 53.9351
" />
<path d="M86.6584 53.9351
L86.6172 53.9589
" />
<path d="M86.6172 53.9589
L86.5434 53.9740
" />
<path d="M86.5434 53.9740
L86.4784 53.9566
" />
<path d="M86.4784 53.9566
L86.4339 53.9272
" />
<path d="M86.4339 53.9272
L86.3657 53.8567
" />
<path d="M86.3657 53.8567
L86.3300 53.7948
" />
<path d="M86.3300 53.7948
L86.3030 53.7004
" />
<path d="M86.3030 53.7004
L86.2998 53.6473
" />
<path d="M86.2998 53.6473
L86.3172 53.5822
" />
<path d="M86.3172 53.5822
L86.3672 53.5259
" />
<path d="M86.3672 53.5259
L86.4084 53.5021
" />
<path d="M86.4084 53.5021
L86.4822 53.4870
" />
<path d="M86.4822 53.4870
L86.5147 53.4957
" />
<path d="M86.6797 53.4005
L86.6884 53.3679
" />
<path d="M86.6884 53.3679
L86.7177 53.3235
" />
<path d="M86.7177 53.3235
L86.8208 53.2640
" />
<path d="M86.8208 53.2640
L86.8739 53.2608
" />
<path d="M86.8739 53.2608
L86.9065 53.2695
" />
<path d="M86.9065 53.2695
L86.9509 53.2989
" />
<path d="M86.9509 53.2989
L86.9747 53.3401
" />
<path d="M86.9747 53.3401
L86.9898 53.4139
" />
<path d="M86.9898 53.4139
L86.8852 53.8041
" />
<path d="M86.8852 53.8041
L87.1533 53.6494
" />
</g><g transform="rotate(60.000000 76.7124 51.5058)">
<text x="76.7124" y="51.7558"
textLength="1.1762" font-size="0.6667" lengthAdjust="spacingAndGlyphs"
text-anchor="middle" opacity="0">D5</text>
</g>
<g class="stroked-text"><desc>D5</desc>
<path d="M76.3321 51.2992
L76.7651 51.0492
" />
<path d="M76.7651 51.0492
L76.8246 51.1523
" />
<path d="M76.8246 51.1523
L76.8397 51.2261
" />
<path d="M76.8397 51.2261
L76.8223 51.2911
" />
<path d="M76.8223 51.2911
L76.7930 51.3356
" />
<path d="M76.7930 51.3356
L76.7224 51.4038
" />
<path d="M76.7224 51.4038
L76.6605 51.4395
" />
<path d="M76.6605 51.4395
L76.5661 51.4665
" />
<path d="M76.5661 51.4665
L76.5130 51.4697
" />
<path d="M76.5130 51.4697
L76.4480 51.4523
" />
<path d="M76.4480 51.4523
L76.3916 51.4023
" />
<path d="M76.3916 51.4023
L76.3321 51.2992
" />
<path d="M77.1342 51.6884
L77.0151 51.4822
" />
<path d="M77.0151 51.4822
L76.7970 51.5807
" />
<path d="M76.7970 51.5807
L76.8295 51.5894
" />
<path d="M76.8295 51.5894
L76.8740 51.6187
" />
<path d="M76.8740 51.6187
L76.9335 51.7218
" />
<path d="M76.9335 51.7218
L76.9367 51.7750
" />
<path d="M76.9367 51.7750
L76.9280 51.8075
" />
<path d="M76.9280 51.8075
L76.8986 51.8519
" />
<path d="M76.8986 51.8519
L76.7955 51.9114
" />
<path d="M76.7955 51.9114
L76.7424 51.9146
" />
<path d="M76.7424 51.9146
L76.7099 51.9059
" />
<path d="M76.7099 51.9059
L76.6654 51.8766
" />
<path d="M76.6654 51.8766
L76.6059 51.7735
" />
<path d="M76.6059 51.7735
L76.6027 51.7203
" />
<path d="M76.6027 51.7203
L76.6114 51.6878
" />
</g></g>
<g style="fill:#000000; fill-opacity:0.0; 
stroke:#000000; stroke-width:0.0750; stroke-opacity:1; 
stroke-linecap:round; stroke-linejoin:round;">
<g transform="rotate(60.000000 75.4272 51.1797)">
<text x="75.4272" y="51.3297"
textLength="0.4507" font-size="0.4000" lengthAdjust="spacingAndGlyphs"
text-anchor="middle" opacity="0">1</text>
</g>
<g class="stroked-text"><desc>1</desc>
<path d="M75.3533 51.3214
L75.2675 51.1729
" />
<path d="M75.3104 51.2471
L75.5702 51.0971
" />
<path d="M75.5702 51.0971
L75.5188 51.0938
" />
<path d="M75.5188 51.0938
L75.4798 51.0834
" />
<path d="M75.4798 51.0834
L75.4531 51.0658
" />
</g></g>
<g style="fill:#000000; fill-opacity:0.0; 
stroke:#000000; stroke-width:0.1000; stroke-opacity:1; 
stroke-linecap:round; stroke-linejoin:round;">
<g transform="rotate(30.000000 89.7500 63.1500)">
<text x="89.7500" y="63.4000"
textLength="1.6524" font-size="0.6667" lengthAdjust="spacingAndGlyphs"
text-anchor="middle" opacity="0">C12</text>
</g>
<g class="stroked-text"><desc>C12</desc>
<path d="M89.3824 63.1439
L89.3499 63.1526
" />
<path d="M89.3499 63.1526
L89.2761 63.1375
" />
<path d="M89.2761 63.1375
L89.2349 63.1137
" />
<path d="M89.2349 63.1137
L89.1849 63.0573
" />
<path d="M89.1849 63.0573
L89.1675 62.9923
" />
<path d="M89.1675 62.9923
L89.1707 62.9391
" />
<path d="M89.1707 62.9391
L89.1977 62.8448
" />
<path d="M89.1977 62.8448
L89.2334 62.7829
" />
<path d="M89.2334 62.7829
L89.3016 62.7123
" />
<path d="M89.3016 62.7123
L89.3460 62.6830
" />
<path d="M89.3460 62.6830
L89.4111 62.6656
" />
<path d="M89.4111 62.6656
L89.4849 62.6807
" />
<path d="M89.4849 62.6807
L89.5261 62.7045
" />
<path d="M89.5261 62.7045
L89.5761 62.7608
" />
<path d="M89.5761 62.7608
L89.5848 62.7933
" />
<path d="M89.7710 63.4232
L89.5235 63.2803
" />
<path d="M89.6473 63.3518
L89.8973 62.9188
" />
<path d="M89.8973 62.9188
L89.8203 62.9568
" />
<path d="M89.8203 62.9568
L89.7553 62.9742
" />
<path d="M89.7553 62.9742
L89.7021 62.9710
" />
<path d="M90.1621 63.1267
L90.1946 63.1179
" />
<path d="M90.1946 63.1179
L90.2478 63.1211
" />
<path d="M90.2478 63.1211
L90.3509 63.1807
" />
<path d="M90.3509 63.1807
L90.3802 63.2251
" />
<path d="M90.3802 63.2251
L90.3889 63.2576
" />
<path d="M90.3889 63.2576
L90.3857 63.3108
" />
<path d="M90.3857 63.3108
L90.3619 63.3520
" />
<path d="M90.3619 63.3520
L90.3056 63.4020
" />
<path d="M90.3056 63.4020
L89.9153 63.5065
" />
<path d="M89.9153 63.5065
L90.1834 63.6613
" />
</g><g transform="rotate(-60.000000 74.2876 67.0942)">
<text x="74.2876" y="67.3442"
textLength="1.1762" font-size="0.6667" lengthAdjust="spacingAndGlyphs"
text-anchor="middle" opacity="0">D9</text>
</g>
<g class="stroked-text"><desc>D9</desc>
<path d="M74.2989 67.5269
L73.8658 67.2769
" />
<path d="M73.8658 67.2769
L73.9254 67.1738
" />
<path d="M73.9254 67.1738
L73.9817 67.1238
" />
<path d="M73.9817 67.1238
L74.0468 67.1064
" />
<path d="M74.0468 67.1064
L74.0999 67.1096
" />
<path d="M74.0999 67.1096
L74.1943 67.1366
" />
<path d="M74.1943 67.1366
L74.2561 67.1723
" />
<path d="M74.2561 67.1723
L74.3267 67.2405
" />
<path d="M74.3267 67.2405
L74.3560 67.2850
" />
<path d="M74.3560 67.2850
L74.3735 67.3500
" />
<path d="M74.3735 67.3500
L74.3584 67.4238
" />
<path d="M74.3584 67.4238
L74.2989 67.5269
" />
<path d="M74.5608 67.0733
L74.6084 66.9908
" />
<path d="M74.6084 66.9908
L74.6116 66.9376
" />
<path d="M74.6116 66.9376
L74.6029 66.9051
" />
<path d="M74.6029 66.9051
L74.5648 66.8282
" />
<path d="M74.5648 66.8282
L74.4942 66.7599
" />
<path d="M74.4942 66.7599
L74.3293 66.6647
" />
<path d="M74.3293 66.6647
L74.2761 66.6615
" />
<path d="M74.2761 66.6615
L74.2436 66.6702
" />
<path d="M74.2436 66.6702
L74.1992 66.6995
" />
<path d="M74.1992 66.6995
L74.1516 66.7820
" />
<path d="M74.1516 66.7820
L74.1484 66.8352
" />
<path d="M74.1484 66.8352
L74.1571 66.8677
" />
<path d="M74.1571 66.8677
L74.1864 66.9121
" />
<path d="M74.1864 66.9121
L74.2895 66.9716
" />
<path d="M74.2895 66.9716
L74.3427 66.9748
" />
<path d="M74.3427 66.9748
L74.3752 66.9661
" />
<path d="M74.3752 66.9661
L74.4196 66.9368
" />
<path d="M74.4196 66.9368
L74.4672 66.8543
" />
<path d="M74.4672 66.8543
L74.4704 66.8012
" />
<path d="M74.4704 66.8012
L74.4617 66.7686
" />
<path d="M74.4617 66.7686
L74.4324 66.7242
" />
</g></g>
<g style="fill:#000000; fill-opacity:0.0; 
stroke:#000000; stroke-width:0.0750; stroke-opacity:1; 
stroke-linecap:round; stroke-linejoin:round;">
<g transform="rotate(-60.000000 74.6478 68.3703)">
<text x="74.6478" y="68.5203"
textLength="0.4507" font-size="0.4000" lengthAdjust="spacingAndGlyphs"
text-anchor="middle" opacity="0">1</text>
</g>
<g class="stroked-text"><desc>1</desc>
<path d="M74.8075 68.3635
L74.7217 68.5120
" />
<path d="M74.7646 68.4377
L74.5048 68.2877
" />
<path d="M74.5048 68.2877
L74.5276 68.3339
" />
<path d="M74.5276 68.3339
L74.5381 68.3729
" />
<path d="M74.5381 68.3729
L74.5362 68.4048
" />
</g></g>
<g style="fill:#000000; fill-opacity:0.0; 
stroke:#000000; stroke-width:0.1000; stroke-opacity:1; 
stroke-linecap:round; stroke-linejoin:round;">
<g transform="rotate(-60.000000 85.7124 52.9058)">
<text x="85.7124" y="53.1558"
textLength="1.1762" font-size="0.6667" lengthAdjust="spacingAndGlyphs"
text-anchor="middle" opacity="0">D3</text>
</g>
<g class="stroked-text"><desc>D3</desc>
<path d="M85.7237 53.3384
L85.2907 53.0884
" />
<path d="M85.2907 53.0884
L85.3502 52.9853
" />
<path d="M85.3502 52.9853
L85.4066 52.9354
" />
<path d="M85.4066 52.9354
L85.4716 52.9179
" />
<path d="M85.4716 52.9179
L85.5248 52.9211
" />
<path d="M85.5248 52.9211
L85.6191 52.9481
" />
<path d="M85.6191 52.9481
L85.6810 52.9839
" />
<path d="M85.6810 52.9839
L85.7516 53.0521
" />
<path d="M85.7516 53.0521
L85.7809 53.0965
" />
<path d="M85.7809 53.0965
L85.7983 53.1616
" />
<path d="M85.7983 53.1616
L85.7833 53.2353
" />
<path d="M85.7833 53.2353
L85.7237 53.3384
" />
<path d="M85.5169 52.6967
L85.6717 52.4286
" />
<path d="M85.6717 52.4286
L85.7533 52.6682
" />
<path d="M85.7533 52.6682
L85.7890 52.6063
" />
<path d="M85.7890 52.6063
L85.8334 52.5770
" />
<path d="M85.8334 52.5770
L85.8660 52.5683
" />
<path d="M85.8660 52.5683
L85.9191 52.5715
" />
<path d="M85.9191 52.5715
L86.0222 52.6310
" />
<path d="M86.0222 52.6310
L86.0515 52.6754
" />
<path d="M86.0515 52.6754
L86.0603 52.7079
" />
<path d="M86.0603 52.7079
L86.0571 52.7611
" />
<path d="M86.0571 52.7611
L85.9856 52.8848
" />
<path d="M85.9856 52.8848
L85.9412 52.9141
" />
<path d="M85.9412 52.9141
L85.9087 52.9228
" />
</g></g>
<g style="fill:#000000; fill-opacity:0.0; 
stroke:#000000; stroke-width:0.0750; stroke-opacity:1; 
stroke-linecap:round; stroke-linejoin:round;">
<g transform="rotate(-60.000000 85.3522 51.6297)">
<text x="85.3522" y="51.7797"
textLength="0.4507" font-size="0.4000" lengthAdjust="spacingAndGlyphs"
text-anchor="middle" opacity="0">1</text>
</g>
<g class="stroked-text"><desc>1</desc>
<path d="M85.5119 51.6229
L85.4262 51.7714
" />
<path d="M85.4690 51.6971
L85.2092 51.5471
" />
<path d="M85.2092 51.5471
L85.2320 51.5933
" />
<path d="M85.2320 51.5933
L85.2425 51.6323
" />
<path d="M85.2425 51.6323
L85.2406 51.6642
" />
</g></g>
<g style="fill:#000000; fill-opacity:0.0; 
stroke:#000000; stroke-width:0.1000; stroke-opacity:1; 
stroke-linecap:round; stroke-linejoin:round;">
<text x="88.7000" y="62.6000"
textLength="1.1762" font-size="0.6667" lengthAdjust="spacingAndGlyphs"
text-anchor="middle" opacity="0">R1</text>
<g class="stroked-text"><desc>R1</desc>
<path d="M88.6167 62.5761
L88.4500 62.3380
" />
<path d="M88.3310 62.5761
L88.3310 62.0761
" />
<path d="M88.3310 62.0761
L88.5214 62.0761
" />
<path d="M88.5214 62.0761
L88.5690 62.0999
" />
<path d="M88.5690 62.0999
L88.5929 62.1237
" />
<path d="M88.5929 62.1237
L88.6167 62.1713
" />
<path d="M88.6167 62.1713
L88.6167 62.2428
" />
<path d="M88.6167 62.2428
L88.5929 62.2904
" />
<path d="M88.5929 62.2904
L88.5690 62.3142
" />
<path d="M88.5690 62.3142
L88.5214 62.3380
" />
<path d="M88.5214 62.3380
L88.3310 62.3380
" />
<path d="M89.0929 62.5761
L88.8071 62.5761
" />
<path d="M88.9500 62.5761
L88.9500 62.0761
" />
<path d="M88.9500 62.0761
L88.9024 62.1475
" />
<path d="M88.9024 62.1475
L88.8548 62.1952
" />
<path d="M88.8548 62.1952
L88.8071 62.2190
" />
</g><g transform="rotate(-60.000000 82.6000 51.1500)">
<text x="82.6000" y="51.4000"
textLength="1.1762" font-size="0.6667" lengthAdjust="spacingAndGlyphs"
text-anchor="middle" opacity="0">C3</text>
</g>
<g class="stroked-text"><desc>C3</desc>
<path d="M82.7129 51.3114
L82.7216 51.3439
" />
<path d="M82.7216 51.3439
L82.7065 51.4177
" />
<path d="M82.7065 51.4177
L82.6827 51.4589
" />
<path d="M82.6827 51.4589
L82.6264 51.5089
" />
<path d="M82.6264 51.5089
L82.5613 51.5263
" />
<path d="M82.5613 51.5263
L82.5082 51.5231
" />
<path d="M82.5082 51.5231
L82.4138 51.4961
" />
<path d="M82.4138 51.4961
L82.3520 51.4604
" />
<path d="M82.3520 51.4604
L82.2814 51.3922
" />
<path d="M82.2814 51.3922
L82.2520 51.3478
" />
<path d="M82.2520 51.3478
L82.2346 51.2827
" />
<path d="M82.2346 51.2827
L82.2497 51.2089
" />
<path d="M82.2497 51.2089
L82.2735 51.1677
" />
<path d="M82.2735 51.1677
L82.3299 51.1177
" />
<path d="M82.3299 51.1177
L82.3624 51.1090
" />
<path d="M82.4045 50.9409
L82.5592 50.6728
" />
<path d="M82.5592 50.6728
L82.6409 50.9124
" />
<path d="M82.6409 50.9124
L82.6766 50.8505
" />
<path d="M82.6766 50.8505
L82.7210 50.8212
" />
<path d="M82.7210 50.8212
L82.7535 50.8125
" />
<path d="M82.7535 50.8125
L82.8067 50.8157
" />
<path d="M82.8067 50.8157
L82.9098 50.8752
" />
<path d="M82.9098 50.8752
L82.9391 50.9196
" />
<path d="M82.9391 50.9196
L82.9478 50.9522
" />
<path d="M82.9478 50.9522
L82.9446 51.0053
" />
<path d="M82.9446 51.0053
L82.8732 51.1290
" />
<path d="M82.8732 51.1290
L82.8288 51.1584
" />
<path d="M82.8288 51.1584
L82.7962 51.1671
" />
</g><path d="M83.3389 67.4831
L83.6639 68.0460
" />
<path d="M83.9018 67.1581
L83.3389 67.4831
" />
<path d="M88.1500 60.8500
L88.8000 60.8500
" />
<path d="M88.1500 60.2000
L88.1500 60.8500
" />
<path d="M80.8500 51.8500
L80.8500 51.2000
" />
<path d="M80.2000 51.8500
L80.8500 51.8500
" />
<path d="M86.6331 64.8111
L87.1960 65.1361
" />
<path d="M86.9581 64.2482
L86.6331 64.8111
" />
<path d="M72.5169 63.3389
L71.9540 63.6639
" />
<path d="M72.8419 63.9018
L72.5169 63.3389
" />
<path d="M79.1500 68.1500
L79.1500 68.8000
" />
<path d="M79.8000 68.1500
L79.1500 68.1500
" />
<path d="M71.8500 59.1500
L71.2000 59.1500
" />
<path d="M71.8500 59.8000
L71.8500 59.1500
" />
<path d="M73.3669 55.1889
L72.8040 54.8639
" />
<path d="M73.0419 55.7518
L73.3669 55.1889
" />
</g>
<g style="fill:#000000; fill-opacity:0.0; 
stroke:#000000; stroke-width:0.1200; stroke-opacity:1; 
stroke-linecap:round; stroke-linejoin:round;">
<path d="M88.4500 58.0600
L89.2500 58.0600
" />
<path d="M88.4500 56.7000
L88.4500 58.0600
" />
<path d="M89.2500 56.7000
L89.2500 58.0600
" />
</g>
<g style="fill:#000000; fill-opacity:0.0; 
stroke:#000000; stroke-width:0.1000; stroke-opacity:1; 
stroke-linecap:round; stroke-linejoin:round;">
<path d="M87.4831 56.6611
L88.0460 56.3361
" />
<path d="M87.1581 56.0982
L87.4831 56.6611
" />
<path d="M76.6611 52.5169
L76.3361 51.9540
" />
<path d="M76.0982 52.8419
L76.6611 52.5169
" />
<path d="M75.1889 66.6331
L74.8639 67.1960
" />
<path d="M75.7518 66.9581
L75.1889 66.6331
" />
<path d="M84.8111 53.3669
L85.1361 52.8040
" />
<path d="M84.2482 53.0419
L84.8111 53.3669
" />
<g >
</g>
<g >
</g>
<g >
</g>
<g >
</g>
<g >
</g>
<g >
</g>
<g >
</g>
<g >
</g>
<g >
</g>
<g >
</g>
<g >
</g>
<g >
</g>
<g >
</g>
<g >
</g>
<g >
</g>
<g >
</g>
<g >
</g>
<g >
</g>
<g >
</g>
<g >
</g>
<g >
</g>
<g >
</g>
<g >
</g>
<g >
</g>
<g >
</g>
<g >
</g>
<g >
</g>
<g >
</g>
<g >
</g>
<g >
</g>
<g >
</g>
<g >
</g>
<g >
</g>
<g >
</g>
</g> 
</svg>
