%TF.GenerationSoftware,KiCad,Pcbnew,7.0.5.1-1-g8f565ef7f0-dirty-deb11*%
%TF.CreationDate,2023-06-20T15:23:10+00:00*%
%TF.ProjectId,pedalboard-led-ring,70656461-6c62-46f6-9172-642d6c65642d,1.0.0*%
%TF.SameCoordinates,Original*%
%TF.FileFunction,Copper,L1,Top*%
%TF.FilePolarity,Positive*%
%FSLAX46Y46*%
G04 Gerber Fmt 4.6, Leading zero omitted, Abs format (unit mm)*
G04 Created by KiCad (PCBNEW 7.0.5.1-1-g8f565ef7f0-dirty-deb11) date 2023-06-20 15:23:10*
%MOMM*%
%LPD*%
G01*
G04 APERTURE LIST*
G04 Aperture macros list*
%AMRoundRect*
0 Rectangle with rounded corners*
0 $1 Rounding radius*
0 $2 $3 $4 $5 $6 $7 $8 $9 X,Y pos of 4 corners*
0 Add a 4 corners polygon primitive as box body*
4,1,4,$2,$3,$4,$5,$6,$7,$8,$9,$2,$3,0*
0 Add four circle primitives for the rounded corners*
1,1,$1+$1,$2,$3*
1,1,$1+$1,$4,$5*
1,1,$1+$1,$6,$7*
1,1,$1+$1,$8,$9*
0 Add four rect primitives between the rounded corners*
20,1,$1+$1,$2,$3,$4,$5,0*
20,1,$1+$1,$4,$5,$6,$7,0*
20,1,$1+$1,$6,$7,$8,$9,0*
20,1,$1+$1,$8,$9,$2,$3,0*%
%AMRotRect*
0 Rectangle, with rotation*
0 The origin of the aperture is its center*
0 $1 length*
0 $2 width*
0 $3 Rotation angle, in degrees counterclockwise*
0 Add horizontal line*
21,1,$1,$2,0,0,$3*%
G04 Aperture macros list end*
%TA.AperFunction,SMDPad,CuDef*%
%ADD10RotRect,0.500000X0.500000X120.000000*%
%TD*%
%TA.AperFunction,SMDPad,CuDef*%
%ADD11RoundRect,0.100000X-0.100000X0.217500X-0.100000X-0.217500X0.100000X-0.217500X0.100000X0.217500X0*%
%TD*%
%TA.AperFunction,SMDPad,CuDef*%
%ADD12RoundRect,0.100000X-0.195353X0.138361X0.022147X-0.238361X0.195353X-0.138361X-0.022147X0.238361X0*%
%TD*%
%TA.AperFunction,SMDPad,CuDef*%
%ADD13R,0.500000X0.500000*%
%TD*%
%TA.AperFunction,SMDPad,CuDef*%
%ADD14RotRect,0.500000X0.500000X150.000000*%
%TD*%
%TA.AperFunction,SMDPad,CuDef*%
%ADD15RotRect,0.500000X0.500000X30.000000*%
%TD*%
%TA.AperFunction,SMDPad,CuDef*%
%ADD16RotRect,0.500000X0.500000X330.000000*%
%TD*%
%TA.AperFunction,SMDPad,CuDef*%
%ADD17RoundRect,0.100000X0.217500X0.100000X-0.217500X0.100000X-0.217500X-0.100000X0.217500X-0.100000X0*%
%TD*%
%TA.AperFunction,SMDPad,CuDef*%
%ADD18RoundRect,0.100000X-0.217500X-0.100000X0.217500X-0.100000X0.217500X0.100000X-0.217500X0.100000X0*%
%TD*%
%TA.AperFunction,SMDPad,CuDef*%
%ADD19RoundRect,0.062500X0.117500X0.062500X-0.117500X0.062500X-0.117500X-0.062500X0.117500X-0.062500X0*%
%TD*%
%TA.AperFunction,SMDPad,CuDef*%
%ADD20RoundRect,0.100000X-0.138361X-0.195353X0.238361X0.022147X0.138361X0.195353X-0.238361X-0.022147X0*%
%TD*%
%TA.AperFunction,SMDPad,CuDef*%
%ADD21RoundRect,0.100000X-0.022147X-0.238361X0.195353X0.138361X0.022147X0.238361X-0.195353X-0.138361X0*%
%TD*%
%TA.AperFunction,SMDPad,CuDef*%
%ADD22RoundRect,0.100000X0.195353X-0.138361X-0.022147X0.238361X-0.195353X0.138361X0.022147X-0.238361X0*%
%TD*%
%TA.AperFunction,SMDPad,CuDef*%
%ADD23RoundRect,0.100000X-0.238361X0.022147X0.138361X-0.195353X0.238361X-0.022147X-0.138361X0.195353X0*%
%TD*%
%TA.AperFunction,SMDPad,CuDef*%
%ADD24RoundRect,0.100000X0.100000X-0.217500X0.100000X0.217500X-0.100000X0.217500X-0.100000X-0.217500X0*%
%TD*%
%TA.AperFunction,SMDPad,CuDef*%
%ADD25RotRect,0.500000X0.500000X210.000000*%
%TD*%
%TA.AperFunction,SMDPad,CuDef*%
%ADD26RoundRect,0.100000X0.138361X0.195353X-0.238361X-0.022147X-0.138361X-0.195353X0.238361X0.022147X0*%
%TD*%
%TA.AperFunction,SMDPad,CuDef*%
%ADD27RotRect,0.500000X0.500000X300.000000*%
%TD*%
%TA.AperFunction,SMDPad,CuDef*%
%ADD28RoundRect,0.100000X0.238361X-0.022147X-0.138361X0.195353X-0.238361X0.022147X0.138361X-0.195353X0*%
%TD*%
%TA.AperFunction,SMDPad,CuDef*%
%ADD29RotRect,0.500000X0.500000X60.000000*%
%TD*%
%TA.AperFunction,SMDPad,CuDef*%
%ADD30RotRect,0.500000X0.500000X240.000000*%
%TD*%
%TA.AperFunction,SMDPad,CuDef*%
%ADD31RoundRect,0.100000X0.022147X0.238361X-0.195353X-0.138361X-0.022147X-0.238361X0.195353X0.138361X0*%
%TD*%
%TA.AperFunction,ViaPad*%
%ADD32C,0.800000*%
%TD*%
%TA.AperFunction,Conductor*%
%ADD33C,0.250000*%
%TD*%
G04 APERTURE END LIST*
D10*
%TO.P,D11,1,DIN*%
%TO.N,Net-(D10-DOUT)*%
X84335289Y-68408940D03*
%TO.P,D11,2,VDD*%
%TO.N,VCC*%
X85114711Y-67958940D03*
%TO.P,D11,3,DOUT*%
%TO.N,Net-(D11-DOUT)*%
X84664711Y-67179518D03*
%TO.P,D11,4,VSS*%
%TO.N,GND*%
X83885289Y-67629518D03*
%TD*%
D11*
%TO.P,C4,1*%
%TO.N,VCC*%
X78650000Y-50652500D03*
%TO.P,C4,2*%
%TO.N,GND*%
X78650000Y-51467500D03*
%TD*%
D12*
%TO.P,C5,1*%
%TO.N,VCC*%
X74157116Y-52579828D03*
%TO.P,C5,2*%
%TO.N,GND*%
X74564616Y-53285638D03*
%TD*%
D13*
%TO.P,D1,1,DIN*%
%TO.N,Net-(D1-DIN)*%
X89450000Y-60450000D03*
%TO.P,D1,2,VDD*%
%TO.N,Net-(D1-VDD)*%
X89450000Y-59550000D03*
%TO.P,D1,3,DOUT*%
%TO.N,Net-(D1-DOUT)*%
X88550000Y-59550000D03*
%TO.P,D1,4,VSS*%
%TO.N,GND*%
X88550000Y-60450000D03*
%TD*%
%TO.P,D4,1,DIN*%
%TO.N,Net-(D3-DOUT)*%
X80450000Y-50550000D03*
%TO.P,D4,2,VDD*%
%TO.N,VCC*%
X79550000Y-50550000D03*
%TO.P,D4,3,DOUT*%
%TO.N,Net-(D4-DOUT)*%
X79550000Y-51450000D03*
%TO.P,D4,4,VSS*%
%TO.N,GND*%
X80450000Y-51450000D03*
%TD*%
D14*
%TO.P,D12,1,DIN*%
%TO.N,Net-(D11-DOUT)*%
X87958940Y-65114711D03*
%TO.P,D12,2,VDD*%
%TO.N,VCC*%
X88408940Y-64335289D03*
%TO.P,D12,3,DOUT*%
%TO.N,Net-(D12-DOUT)*%
X87629518Y-63885289D03*
%TO.P,D12,4,VSS*%
%TO.N,GND*%
X87179518Y-64664711D03*
%TD*%
D15*
%TO.P,D8,1,DIN*%
%TO.N,Net-(D7-DOUT)*%
X71591060Y-64335289D03*
%TO.P,D8,2,VDD*%
%TO.N,VCC*%
X72041060Y-65114711D03*
%TO.P,D8,3,DOUT*%
%TO.N,Net-(D8-DOUT)*%
X72820482Y-64664711D03*
%TO.P,D8,4,VSS*%
%TO.N,GND*%
X72370482Y-63885289D03*
%TD*%
D13*
%TO.P,D10,1,DIN*%
%TO.N,Net-(D10-DIN)*%
X79550000Y-69450000D03*
%TO.P,D10,2,VDD*%
%TO.N,VCC*%
X80450000Y-69450000D03*
%TO.P,D10,3,DOUT*%
%TO.N,Net-(D10-DOUT)*%
X80450000Y-68550000D03*
%TO.P,D10,4,VSS*%
%TO.N,GND*%
X79550000Y-68550000D03*
%TD*%
%TO.P,D7,1,DIN*%
%TO.N,Net-(D6-DOUT)*%
X70550000Y-59550000D03*
%TO.P,D7,2,VDD*%
%TO.N,VCC*%
X70550000Y-60450000D03*
%TO.P,D7,3,DOUT*%
%TO.N,Net-(D7-DOUT)*%
X71450000Y-60450000D03*
%TO.P,D7,4,VSS*%
%TO.N,GND*%
X71450000Y-59550000D03*
%TD*%
D16*
%TO.P,D6,1,DIN*%
%TO.N,Net-(D5-DOUT)*%
X72041060Y-54885289D03*
%TO.P,D6,2,VDD*%
%TO.N,VCC*%
X71591060Y-55664711D03*
%TO.P,D6,3,DOUT*%
%TO.N,Net-(D6-DOUT)*%
X72370482Y-56114711D03*
%TO.P,D6,4,VSS*%
%TO.N,GND*%
X72820482Y-55335289D03*
%TD*%
D17*
%TO.P,R2,1*%
%TO.N,VCC*%
X89407500Y-57950000D03*
%TO.P,R2,2*%
%TO.N,Net-(D1-VDD)*%
X88592500Y-57950000D03*
%TD*%
D18*
%TO.P,C7,1*%
%TO.N,VCC*%
X70652500Y-61350000D03*
%TO.P,C7,2*%
%TO.N,GND*%
X71467500Y-61350000D03*
%TD*%
D19*
%TO.P,D13,1,K*%
%TO.N,Net-(D1-VDD)*%
X88352500Y-57150000D03*
%TO.P,D13,2,A*%
%TO.N,VCC*%
X89192500Y-57150000D03*
%TD*%
D20*
%TO.P,C8,1*%
%TO.N,VCC*%
X72579828Y-65842884D03*
%TO.P,C8,2*%
%TO.N,GND*%
X73285638Y-65435384D03*
%TD*%
D21*
%TO.P,C9,1*%
%TO.N,VCC*%
X76495384Y-68770172D03*
%TO.P,C9,2*%
%TO.N,GND*%
X76902884Y-68064362D03*
%TD*%
D22*
%TO.P,C11,1*%
%TO.N,VCC*%
X85842884Y-67420172D03*
%TO.P,C11,2*%
%TO.N,GND*%
X85435384Y-66714362D03*
%TD*%
D23*
%TO.P,C6,1*%
%TO.N,VCC*%
X71229828Y-56495384D03*
%TO.P,C6,2*%
%TO.N,GND*%
X71935638Y-56902884D03*
%TD*%
D24*
%TO.P,C10,1*%
%TO.N,VCC*%
X81350000Y-69347500D03*
%TO.P,C10,2*%
%TO.N,GND*%
X81350000Y-68532500D03*
%TD*%
D25*
%TO.P,D2,1,DIN*%
%TO.N,Net-(D1-DOUT)*%
X88408940Y-55664711D03*
%TO.P,D2,2,VDD*%
%TO.N,VCC*%
X87958940Y-54885289D03*
%TO.P,D2,3,DOUT*%
%TO.N,Net-(D2-DOUT)*%
X87179518Y-55335289D03*
%TO.P,D2,4,VSS*%
%TO.N,GND*%
X87629518Y-56114711D03*
%TD*%
D18*
%TO.P,C1,1*%
%TO.N,Net-(D1-VDD)*%
X88742500Y-58650000D03*
%TO.P,C1,2*%
%TO.N,GND*%
X89557500Y-58650000D03*
%TD*%
D26*
%TO.P,C2,1*%
%TO.N,VCC*%
X87420172Y-54157116D03*
%TO.P,C2,2*%
%TO.N,GND*%
X86714362Y-54564616D03*
%TD*%
D27*
%TO.P,D5,1,DIN*%
%TO.N,Net-(D4-DOUT)*%
X75664711Y-51591060D03*
%TO.P,D5,2,VDD*%
%TO.N,VCC*%
X74885289Y-52041060D03*
%TO.P,D5,3,DOUT*%
%TO.N,Net-(D5-DOUT)*%
X75335289Y-52820482D03*
%TO.P,D5,4,VSS*%
%TO.N,GND*%
X76114711Y-52370482D03*
%TD*%
D28*
%TO.P,C12,1*%
%TO.N,VCC*%
X88770172Y-63504616D03*
%TO.P,C12,2*%
%TO.N,GND*%
X88064362Y-63097116D03*
%TD*%
D29*
%TO.P,D9,1,DIN*%
%TO.N,Net-(D8-DOUT)*%
X74885289Y-67958940D03*
%TO.P,D9,2,VDD*%
%TO.N,VCC*%
X75664711Y-68408940D03*
%TO.P,D9,3,DOUT*%
%TO.N,Net-(D10-DIN)*%
X76114711Y-67629518D03*
%TO.P,D9,4,VSS*%
%TO.N,GND*%
X75335289Y-67179518D03*
%TD*%
D30*
%TO.P,D3,1,DIN*%
%TO.N,Net-(D2-DOUT)*%
X85114711Y-52041060D03*
%TO.P,D3,2,VDD*%
%TO.N,VCC*%
X84335289Y-51591060D03*
%TO.P,D3,3,DOUT*%
%TO.N,Net-(D3-DOUT)*%
X83885289Y-52370482D03*
%TO.P,D3,4,VSS*%
%TO.N,GND*%
X84664711Y-52820482D03*
%TD*%
D17*
%TO.P,R1,1*%
%TO.N,Net-(D1-DIN)*%
X89317500Y-61680000D03*
%TO.P,R1,2*%
%TO.N,Net-(J1-Pin_3)*%
X88502500Y-61680000D03*
%TD*%
D31*
%TO.P,C3,1*%
%TO.N,VCC*%
X83504616Y-51229828D03*
%TO.P,C3,2*%
%TO.N,GND*%
X83097116Y-51935638D03*
%TD*%
D32*
%TO.N,Net-(D12-DOUT)*%
X86800000Y-63600000D03*
%TO.N,VCC*%
X74000000Y-52000000D03*
X70071797Y-61196152D03*
X76071797Y-69196152D03*
X90079502Y-57365000D03*
X81196152Y-69928203D03*
X83928203Y-50803848D03*
X72000000Y-66000000D03*
X86000000Y-67940000D03*
X70803848Y-56071797D03*
X88000000Y-54000000D03*
X88260000Y-66020000D03*
X78803848Y-50071797D03*
%TO.N,GND*%
X90400000Y-61400000D03*
X82900000Y-71400000D03*
X91150000Y-61400000D03*
X91150000Y-64850000D03*
X90400000Y-64850000D03*
X84900000Y-71400000D03*
X85700000Y-70500000D03*
X83900000Y-71400000D03*
%TO.N,Net-(J1-Pin_3)*%
X87910000Y-61150000D03*
%TD*%
D33*
%TO.N,Net-(D1-DOUT)*%
X87550000Y-58550000D02*
X87550000Y-57200000D01*
X87550000Y-57200000D02*
X88408940Y-56341060D01*
X88408940Y-56341060D02*
X88408940Y-55664711D01*
X88550000Y-59550000D02*
X87550000Y-58550000D01*
%TO.N,Net-(D1-DIN)*%
X89495000Y-60495000D02*
X89495000Y-61467500D01*
X89495000Y-61467500D02*
X89300000Y-61662500D01*
%TO.N,Net-(D2-DOUT)*%
X86220000Y-52360000D02*
X86220000Y-53200000D01*
X85210000Y-54630000D02*
X85930000Y-55350000D01*
X85210000Y-54210000D02*
X85210000Y-54630000D01*
X86220000Y-53200000D02*
X85210000Y-54210000D01*
X85114711Y-52041060D02*
X85901060Y-52041060D01*
X85930000Y-55350000D02*
X87164807Y-55350000D01*
X85901060Y-52041060D02*
X86220000Y-52360000D01*
X87164807Y-55350000D02*
X87179518Y-55335289D01*
%TO.N,Net-(D3-DOUT)*%
X81350000Y-50550000D02*
X80450000Y-50550000D01*
X83885289Y-52370482D02*
X83295771Y-52960000D01*
X81950000Y-52500000D02*
X81950000Y-51150000D01*
X82410000Y-52960000D02*
X81950000Y-52500000D01*
X83295771Y-52960000D02*
X82410000Y-52960000D01*
X81950000Y-51150000D02*
X81350000Y-50550000D01*
%TO.N,Net-(D4-DOUT)*%
X79550000Y-52080000D02*
X78930000Y-52700000D01*
X79550000Y-51450000D02*
X79550000Y-52080000D01*
X78120000Y-52700000D02*
X77011060Y-51591060D01*
X78930000Y-52700000D02*
X78120000Y-52700000D01*
X77011060Y-51591060D02*
X75664711Y-51591060D01*
%TO.N,Net-(D5-DOUT)*%
X74130000Y-54690000D02*
X73660000Y-54220000D01*
X75335289Y-52995289D02*
X75550000Y-53210000D01*
X72706349Y-54220000D02*
X72041060Y-54885289D01*
X75335289Y-52820482D02*
X75335289Y-52995289D01*
X75550000Y-53840000D02*
X74700000Y-54690000D01*
X73660000Y-54220000D02*
X72706349Y-54220000D01*
X75550000Y-53210000D02*
X75550000Y-53840000D01*
X74700000Y-54690000D02*
X74130000Y-54690000D01*
%TO.N,Net-(D6-DOUT)*%
X72360000Y-58370000D02*
X71120000Y-58370000D01*
X71120000Y-58370000D02*
X70550000Y-58940000D01*
X73200000Y-56944229D02*
X73200000Y-57530000D01*
X73200000Y-57530000D02*
X72360000Y-58370000D01*
X72370482Y-56114711D02*
X73200000Y-56944229D01*
X70550000Y-58940000D02*
X70550000Y-59550000D01*
%TO.N,Net-(D12-DOUT)*%
X87629518Y-63885289D02*
X87085289Y-63885289D01*
X87085289Y-63885289D02*
X86800000Y-63600000D01*
%TO.N,VCC*%
X80450000Y-69450000D02*
X80717949Y-69450000D01*
X75664711Y-68789066D02*
X76071797Y-69196152D01*
X80717949Y-69450000D02*
X81196152Y-69928203D01*
X71591060Y-55664711D02*
X71210934Y-55664711D01*
X70550000Y-60450000D02*
X70550000Y-60717949D01*
X72041060Y-65958940D02*
X72000000Y-66000000D01*
X79282051Y-50550000D02*
X78803848Y-50071797D01*
X86000000Y-67940000D02*
X85981060Y-67958940D01*
X88830000Y-65480000D02*
X88800000Y-65480000D01*
X88408940Y-64335289D02*
X88408940Y-63865848D01*
X89407500Y-57365000D02*
X89407500Y-57950000D01*
X87958940Y-54041060D02*
X88000000Y-54000000D01*
X74041060Y-52041060D02*
X74000000Y-52000000D01*
X74885289Y-52041060D02*
X74041060Y-52041060D01*
X72041060Y-65114711D02*
X72041060Y-65958940D01*
X83928203Y-50803848D02*
X84335289Y-51210934D01*
X89192500Y-57150000D02*
X89407500Y-57365000D01*
X75664711Y-68408940D02*
X75664711Y-68789066D01*
X79550000Y-50550000D02*
X79282051Y-50550000D01*
X88800000Y-65480000D02*
X88260000Y-66020000D01*
X85981060Y-67958940D02*
X85114711Y-67958940D01*
X89407500Y-57365000D02*
X90079502Y-57365000D01*
X87958940Y-54885289D02*
X87958940Y-54041060D01*
X88408940Y-63865848D02*
X88770172Y-63504616D01*
X70803848Y-56071797D02*
X71210934Y-55664711D01*
X88830000Y-64756349D02*
X88830000Y-65480000D01*
X70550000Y-60717949D02*
X70071797Y-61196152D01*
X84335289Y-51591060D02*
X84335289Y-51210934D01*
X88408940Y-64335289D02*
X88830000Y-64756349D01*
%TO.N,Net-(D7-DOUT)*%
X71270000Y-63380000D02*
X71270000Y-64014229D01*
X72700000Y-61950000D02*
X71270000Y-63380000D01*
X71270000Y-64014229D02*
X71591060Y-64335289D01*
X71450000Y-60450000D02*
X71860000Y-60450000D01*
X72700000Y-61290000D02*
X72700000Y-61950000D01*
X71860000Y-60450000D02*
X72700000Y-61290000D01*
%TO.N,Net-(D8-DOUT)*%
X74330000Y-66090000D02*
X74330000Y-67403651D01*
X74064711Y-64664711D02*
X74660000Y-65260000D01*
X74330000Y-67403651D02*
X74885289Y-67958940D01*
X74660000Y-65260000D02*
X74660000Y-65760000D01*
X72820482Y-64664711D02*
X74064711Y-64664711D01*
X74660000Y-65760000D02*
X74330000Y-66090000D01*
%TO.N,Net-(D10-DIN)*%
X76754229Y-66990000D02*
X77680000Y-66990000D01*
X78250000Y-68690000D02*
X79010000Y-69450000D01*
X76114711Y-67629518D02*
X76754229Y-66990000D01*
X77680000Y-66990000D02*
X78250000Y-67560000D01*
X78250000Y-67560000D02*
X78250000Y-68690000D01*
X79010000Y-69450000D02*
X79550000Y-69450000D01*
%TO.N,Net-(D11-DOUT)*%
X84140000Y-66654807D02*
X84140000Y-66280000D01*
X85150000Y-65270000D02*
X85840000Y-65270000D01*
X85840000Y-65270000D02*
X86620000Y-66050000D01*
X86620000Y-66050000D02*
X87050000Y-66050000D01*
X87050000Y-66050000D02*
X87050000Y-66023651D01*
X87050000Y-66023651D02*
X87958940Y-65114711D01*
X84140000Y-66280000D02*
X85150000Y-65270000D01*
X84664711Y-67179518D02*
X84140000Y-66654807D01*
%TO.N,Net-(D10-DOUT)*%
X80970000Y-67190000D02*
X81870000Y-67190000D01*
X81870000Y-67190000D02*
X83088940Y-68408940D01*
X83088940Y-68408940D02*
X84335289Y-68408940D01*
X80530000Y-68470000D02*
X80530000Y-67630000D01*
X80530000Y-67630000D02*
X80970000Y-67190000D01*
%TO.N,Net-(J1-Pin_3)*%
X88390000Y-61680000D02*
X87910000Y-61200000D01*
%TO.N,Net-(D1-VDD)*%
X88352500Y-57710000D02*
X88592500Y-57950000D01*
X88592500Y-57950000D02*
X88592500Y-58500000D01*
X88592500Y-58500000D02*
X88742500Y-58650000D01*
X88352500Y-57150000D02*
X88352500Y-57710000D01*
X89450000Y-59550000D02*
X89450000Y-59452979D01*
X89450000Y-59452979D02*
X88742500Y-58745479D01*
X88742500Y-58745479D02*
X88742500Y-58650000D01*
%TD*%
%TA.AperFunction,Conductor*%
%TO.N,GND*%
G36*
X91002140Y-48000687D02*
G01*
X91045464Y-48004477D01*
X91173816Y-48017119D01*
X91189696Y-48020008D01*
X91257626Y-48038209D01*
X91259036Y-48038612D01*
X91353264Y-48067196D01*
X91366359Y-48072207D01*
X91435690Y-48104536D01*
X91438085Y-48105733D01*
X91522989Y-48151115D01*
X91528052Y-48154225D01*
X91595221Y-48201258D01*
X91598233Y-48203543D01*
X91632865Y-48231964D01*
X91671280Y-48263491D01*
X91674877Y-48266751D01*
X91733247Y-48325121D01*
X91736512Y-48328723D01*
X91796455Y-48401765D01*
X91798740Y-48404777D01*
X91845773Y-48471946D01*
X91848883Y-48477009D01*
X91894255Y-48561893D01*
X91895462Y-48564308D01*
X91927791Y-48633639D01*
X91932804Y-48646739D01*
X91961364Y-48740887D01*
X91961809Y-48742445D01*
X91979986Y-48810282D01*
X91982882Y-48826202D01*
X91995520Y-48954525D01*
X91999311Y-48997843D01*
X91999500Y-49002161D01*
X91999500Y-70997837D01*
X91999311Y-71002155D01*
X91995520Y-71045473D01*
X91982882Y-71173796D01*
X91979986Y-71189716D01*
X91961809Y-71257553D01*
X91961364Y-71259111D01*
X91932804Y-71353259D01*
X91927791Y-71366359D01*
X91895462Y-71435690D01*
X91894255Y-71438105D01*
X91848883Y-71522989D01*
X91845773Y-71528052D01*
X91798740Y-71595221D01*
X91796455Y-71598233D01*
X91736512Y-71671275D01*
X91733247Y-71674877D01*
X91674877Y-71733247D01*
X91671275Y-71736512D01*
X91598233Y-71796455D01*
X91595221Y-71798740D01*
X91528052Y-71845773D01*
X91522989Y-71848883D01*
X91438105Y-71894255D01*
X91435690Y-71895462D01*
X91366359Y-71927791D01*
X91353259Y-71932804D01*
X91259111Y-71961364D01*
X91257553Y-71961809D01*
X91189716Y-71979986D01*
X91173796Y-71982882D01*
X91045473Y-71995520D01*
X91002156Y-71999311D01*
X90997838Y-71999500D01*
X69002162Y-71999500D01*
X68997844Y-71999311D01*
X68954525Y-71995520D01*
X68826202Y-71982882D01*
X68810284Y-71979986D01*
X68773391Y-71970101D01*
X68742445Y-71961809D01*
X68740887Y-71961364D01*
X68646739Y-71932804D01*
X68633639Y-71927791D01*
X68564308Y-71895462D01*
X68561893Y-71894255D01*
X68477009Y-71848883D01*
X68471946Y-71845773D01*
X68404777Y-71798740D01*
X68401765Y-71796455D01*
X68328723Y-71736512D01*
X68325121Y-71733247D01*
X68266751Y-71674877D01*
X68263486Y-71671275D01*
X68203543Y-71598233D01*
X68201258Y-71595221D01*
X68154225Y-71528052D01*
X68151115Y-71522989D01*
X68105733Y-71438085D01*
X68104536Y-71435690D01*
X68072207Y-71366359D01*
X68067194Y-71353259D01*
X68038612Y-71259036D01*
X68038209Y-71257626D01*
X68020008Y-71189696D01*
X68017119Y-71173816D01*
X68004476Y-71045447D01*
X68003868Y-71038495D01*
X68000687Y-71002140D01*
X68000500Y-70997840D01*
X68000500Y-70000004D01*
X68644341Y-70000004D01*
X68664935Y-70235400D01*
X68664936Y-70235407D01*
X68664937Y-70235408D01*
X68697379Y-70356485D01*
X68726098Y-70463667D01*
X68825959Y-70677818D01*
X68825963Y-70677826D01*
X68825964Y-70677828D01*
X68825965Y-70677829D01*
X68961505Y-70871401D01*
X69128599Y-71038495D01*
X69128602Y-71038497D01*
X69128603Y-71038498D01*
X69192906Y-71083523D01*
X69322171Y-71174035D01*
X69322172Y-71174035D01*
X69322173Y-71174036D01*
X69322181Y-71174040D01*
X69536333Y-71273901D01*
X69536337Y-71273903D01*
X69764592Y-71335063D01*
X69764596Y-71335063D01*
X69764599Y-71335064D01*
X69941026Y-71350500D01*
X69941034Y-71350500D01*
X70058974Y-71350500D01*
X70235400Y-71335064D01*
X70235401Y-71335063D01*
X70235408Y-71335063D01*
X70463663Y-71273903D01*
X70677829Y-71174035D01*
X70871401Y-71038495D01*
X71038495Y-70871401D01*
X71174035Y-70677830D01*
X71273903Y-70463663D01*
X71335063Y-70235408D01*
X71348225Y-70084969D01*
X71355659Y-70000004D01*
X71355659Y-69999995D01*
X71335064Y-69764599D01*
X71335063Y-69764596D01*
X71335063Y-69764592D01*
X71273903Y-69536337D01*
X71188369Y-69352910D01*
X71174040Y-69322181D01*
X71174036Y-69322173D01*
X71104619Y-69223035D01*
X71038495Y-69128599D01*
X70871401Y-68961505D01*
X70871397Y-68961502D01*
X70871396Y-68961501D01*
X70690477Y-68834821D01*
X70677829Y-68825965D01*
X70677828Y-68825964D01*
X70677826Y-68825963D01*
X70677818Y-68825959D01*
X70463666Y-68726098D01*
X70463667Y-68726098D01*
X70301496Y-68682645D01*
X70235408Y-68664937D01*
X70235407Y-68664936D01*
X70235400Y-68664935D01*
X70058974Y-68649500D01*
X70058966Y-68649500D01*
X69941034Y-68649500D01*
X69941026Y-68649500D01*
X69764599Y-68664935D01*
X69536332Y-68726098D01*
X69322181Y-68825959D01*
X69322173Y-68825963D01*
X69128603Y-68961501D01*
X68961501Y-69128603D01*
X68825964Y-69322171D01*
X68726097Y-69536337D01*
X68664935Y-69764599D01*
X68644341Y-69999995D01*
X68644341Y-70000004D01*
X68000500Y-70000004D01*
X68000500Y-61196152D01*
X69466115Y-61196152D01*
X69486752Y-61352910D01*
X69486754Y-61352918D01*
X69547259Y-61498990D01*
X69547259Y-61498991D01*
X69608101Y-61578282D01*
X69643515Y-61624434D01*
X69768956Y-61720688D01*
X69768957Y-61720688D01*
X69768958Y-61720689D01*
X69906452Y-61777641D01*
X69915035Y-61781196D01*
X70032606Y-61796674D01*
X70071796Y-61801834D01*
X70071797Y-61801834D01*
X70071798Y-61801834D01*
X70110987Y-61796674D01*
X70228559Y-61781196D01*
X70300385Y-61751443D01*
X70357588Y-61746941D01*
X70357613Y-61746727D01*
X70358703Y-61746853D01*
X70361379Y-61746643D01*
X70364264Y-61747382D01*
X70365005Y-61747583D01*
X70365009Y-61747585D01*
X70390135Y-61750500D01*
X70914864Y-61750499D01*
X70929985Y-61748745D01*
X70989965Y-61760820D01*
X71011396Y-61777081D01*
X71011956Y-61777641D01*
X71124848Y-61835163D01*
X71124852Y-61835164D01*
X71218515Y-61849999D01*
X71317500Y-61849999D01*
X71317500Y-61849998D01*
X71617500Y-61849998D01*
X71617501Y-61849999D01*
X71716483Y-61849999D01*
X71716485Y-61849998D01*
X71810141Y-61835166D01*
X71810151Y-61835163D01*
X71923043Y-61777641D01*
X72012641Y-61688043D01*
X72070163Y-61575151D01*
X72070164Y-61575147D01*
X72082067Y-61500000D01*
X71617501Y-61500000D01*
X71617500Y-61500001D01*
X71617500Y-61849998D01*
X71317500Y-61849998D01*
X71317500Y-61299000D01*
X71336407Y-61240809D01*
X71385907Y-61204845D01*
X71416500Y-61200000D01*
X72108666Y-61200000D01*
X72166857Y-61218907D01*
X72178670Y-61228996D01*
X72345504Y-61395830D01*
X72373281Y-61450347D01*
X72374500Y-61465834D01*
X72374500Y-61774165D01*
X72355593Y-61832356D01*
X72345504Y-61844169D01*
X71051413Y-63138259D01*
X71048228Y-63141176D01*
X71016807Y-63167542D01*
X71016806Y-63167544D01*
X71003306Y-63190925D01*
X71000118Y-63196449D01*
X70996292Y-63203075D01*
X70993972Y-63206716D01*
X70970446Y-63240316D01*
X70970442Y-63240324D01*
X70970051Y-63241786D01*
X70960170Y-63265640D01*
X70959414Y-63266948D01*
X70959410Y-63266960D01*
X70952287Y-63307349D01*
X70951353Y-63311564D01*
X70940736Y-63351187D01*
X70940736Y-63351193D01*
X70944312Y-63392072D01*
X70944500Y-63396373D01*
X70944500Y-63997854D01*
X70944312Y-64002156D01*
X70940736Y-64043036D01*
X70944446Y-64056882D01*
X70951354Y-64082665D01*
X70952289Y-64086881D01*
X70959411Y-64127274D01*
X70960164Y-64128577D01*
X70970054Y-64152453D01*
X70970443Y-64153908D01*
X70970446Y-64153913D01*
X70992242Y-64185042D01*
X70993971Y-64187510D01*
X70996288Y-64191147D01*
X71016806Y-64226684D01*
X71016860Y-64226729D01*
X71016929Y-64226830D01*
X71022376Y-64233322D01*
X71021736Y-64233858D01*
X71046969Y-64270744D01*
X71064766Y-64323171D01*
X71066042Y-64326930D01*
X71335790Y-64794148D01*
X71375106Y-64838979D01*
X71446644Y-64874257D01*
X71446645Y-64874257D01*
X71447124Y-64874493D01*
X71490952Y-64917187D01*
X71502127Y-64969759D01*
X71496874Y-65049884D01*
X71496875Y-65049889D01*
X71516039Y-65106346D01*
X71516041Y-65106350D01*
X71516042Y-65106352D01*
X71675918Y-65383265D01*
X71688639Y-65443112D01*
X71663752Y-65499008D01*
X71650448Y-65511306D01*
X71571723Y-65571713D01*
X71571713Y-65571723D01*
X71475462Y-65697160D01*
X71475462Y-65697161D01*
X71414957Y-65843233D01*
X71414955Y-65843241D01*
X71394318Y-65999999D01*
X71394318Y-66000000D01*
X71414955Y-66156758D01*
X71414957Y-66156766D01*
X71475462Y-66302838D01*
X71475462Y-66302839D01*
X71571713Y-66428276D01*
X71571718Y-66428282D01*
X71697159Y-66524536D01*
X71697160Y-66524536D01*
X71697161Y-66524537D01*
X71748461Y-66545786D01*
X71843238Y-66585044D01*
X71960809Y-66600522D01*
X71999999Y-66605682D01*
X72000000Y-66605682D01*
X72000001Y-66605682D01*
X72031352Y-66601554D01*
X72156762Y-66585044D01*
X72302841Y-66524536D01*
X72428282Y-66428282D01*
X72475610Y-66366601D01*
X72522894Y-66334103D01*
X72522809Y-66333905D01*
X72523817Y-66333468D01*
X72526032Y-66331947D01*
X72528906Y-66331143D01*
X72529641Y-66330948D01*
X72529646Y-66330948D01*
X72552863Y-66320910D01*
X72584165Y-66302838D01*
X72654113Y-66262453D01*
X73007291Y-66058544D01*
X73019511Y-66049463D01*
X73077494Y-66029932D01*
X73104185Y-66033300D01*
X73104943Y-66033503D01*
X73104949Y-66033504D01*
X73231475Y-66026873D01*
X73231479Y-66026872D01*
X73320013Y-65992886D01*
X73320018Y-65992884D01*
X73405732Y-65943396D01*
X73222007Y-65625173D01*
X73144131Y-65490288D01*
X73490542Y-65490288D01*
X73665541Y-65793395D01*
X73751260Y-65743906D01*
X73824963Y-65684223D01*
X73893969Y-65577963D01*
X73893971Y-65577960D01*
X73926765Y-65455569D01*
X73926765Y-65455563D01*
X73920135Y-65329038D01*
X73892868Y-65258005D01*
X73490542Y-65490288D01*
X73144131Y-65490288D01*
X73130233Y-65466215D01*
X73117512Y-65406366D01*
X73142399Y-65350471D01*
X73166470Y-65330978D01*
X73733725Y-65003474D01*
X73783225Y-64990211D01*
X73888877Y-64990211D01*
X73947068Y-65009118D01*
X73958880Y-65019207D01*
X74305503Y-65365829D01*
X74333281Y-65420346D01*
X74334500Y-65435833D01*
X74334500Y-65584164D01*
X74315593Y-65642355D01*
X74305504Y-65654168D01*
X74111413Y-65848259D01*
X74108229Y-65851176D01*
X74076807Y-65877542D01*
X74076806Y-65877544D01*
X74056292Y-65913075D01*
X74053972Y-65916716D01*
X74030446Y-65950316D01*
X74030442Y-65950324D01*
X74030051Y-65951786D01*
X74020170Y-65975640D01*
X74019414Y-65976948D01*
X74019410Y-65976960D01*
X74012287Y-66017349D01*
X74011353Y-66021564D01*
X74000736Y-66061187D01*
X74000736Y-66061193D01*
X74004312Y-66102072D01*
X74004500Y-66106373D01*
X74004500Y-67387276D01*
X74004312Y-67391578D01*
X74000736Y-67432458D01*
X74001246Y-67434362D01*
X74011354Y-67472087D01*
X74012289Y-67476303D01*
X74019411Y-67516696D01*
X74020164Y-67517999D01*
X74030054Y-67541875D01*
X74030443Y-67543330D01*
X74030446Y-67543335D01*
X74053578Y-67576372D01*
X74053971Y-67576932D01*
X74056292Y-67580575D01*
X74076806Y-67616106D01*
X74108224Y-67642469D01*
X74111410Y-67645388D01*
X74335253Y-67869230D01*
X74363030Y-67923747D01*
X74358995Y-67971055D01*
X74341104Y-68023759D01*
X74341104Y-68023763D01*
X74346321Y-68103356D01*
X74381599Y-68174894D01*
X74426430Y-68214210D01*
X74893648Y-68483958D01*
X74893651Y-68483959D01*
X74893653Y-68483960D01*
X74921050Y-68493259D01*
X74950112Y-68503125D01*
X75029705Y-68497908D01*
X75029707Y-68497906D01*
X75030239Y-68497872D01*
X75089542Y-68512932D01*
X75125506Y-68552874D01*
X75125742Y-68553354D01*
X75125743Y-68553356D01*
X75161021Y-68624894D01*
X75205852Y-68664210D01*
X75287393Y-68711287D01*
X75328334Y-68756757D01*
X75336516Y-68805652D01*
X75335447Y-68817871D01*
X75335447Y-68817873D01*
X75338562Y-68829500D01*
X75346065Y-68857502D01*
X75347000Y-68861718D01*
X75354122Y-68902111D01*
X75354875Y-68903414D01*
X75364765Y-68927290D01*
X75365154Y-68928745D01*
X75365157Y-68928750D01*
X75388089Y-68961501D01*
X75388682Y-68962347D01*
X75391003Y-68965990D01*
X75411517Y-69001521D01*
X75442935Y-69027884D01*
X75446121Y-69030803D01*
X75448503Y-69033184D01*
X75476280Y-69087701D01*
X75476652Y-69116109D01*
X75466115Y-69196150D01*
X75466115Y-69196152D01*
X75486752Y-69352910D01*
X75486754Y-69352918D01*
X75547259Y-69498990D01*
X75547259Y-69498991D01*
X75632339Y-69609869D01*
X75643515Y-69624434D01*
X75768956Y-69720688D01*
X75768957Y-69720688D01*
X75768958Y-69720689D01*
X75907877Y-69778231D01*
X75915035Y-69781196D01*
X76015383Y-69794407D01*
X76071796Y-69801834D01*
X76071797Y-69801834D01*
X76071798Y-69801834D01*
X76103149Y-69797706D01*
X76228559Y-69781196D01*
X76374638Y-69720688D01*
X76500079Y-69624434D01*
X76596333Y-69498993D01*
X76656841Y-69352914D01*
X76666988Y-69275833D01*
X76691688Y-69224045D01*
X76691515Y-69223917D01*
X76692170Y-69223035D01*
X76693327Y-69220610D01*
X76695420Y-69218470D01*
X76695949Y-69217944D01*
X76695957Y-69217939D01*
X76711045Y-69197637D01*
X76973408Y-68743208D01*
X76979450Y-68729234D01*
X77019898Y-68683328D01*
X77044704Y-68672897D01*
X77045463Y-68672693D01*
X77045464Y-68672692D01*
X77151723Y-68603687D01*
X77151724Y-68603687D01*
X77211399Y-68529995D01*
X77211407Y-68529983D01*
X77260895Y-68444265D01*
X76783717Y-68168766D01*
X76742776Y-68123296D01*
X76736380Y-68062446D01*
X76747480Y-68033529D01*
X76761377Y-68009458D01*
X77107788Y-68009458D01*
X77410894Y-68184457D01*
X77460385Y-68098737D01*
X77494372Y-68010203D01*
X77494374Y-68010196D01*
X77501003Y-67883674D01*
X77501003Y-67883668D01*
X77468209Y-67761277D01*
X77468207Y-67761274D01*
X77399202Y-67655016D01*
X77340070Y-67607131D01*
X77107788Y-68009457D01*
X77107788Y-68009458D01*
X76761377Y-68009458D01*
X76847980Y-67859458D01*
X77080261Y-67457130D01*
X77076868Y-67447547D01*
X77075266Y-67386383D01*
X77109921Y-67335958D01*
X77167597Y-67315534D01*
X77170189Y-67315500D01*
X77504166Y-67315500D01*
X77562357Y-67334407D01*
X77574170Y-67344496D01*
X77895504Y-67665830D01*
X77923281Y-67720347D01*
X77924500Y-67735834D01*
X77924500Y-68673625D01*
X77924312Y-68677927D01*
X77920736Y-68718807D01*
X77923089Y-68727587D01*
X77931354Y-68758436D01*
X77932289Y-68762652D01*
X77939411Y-68803045D01*
X77940164Y-68804348D01*
X77950054Y-68828224D01*
X77950443Y-68829679D01*
X77950446Y-68829684D01*
X77972876Y-68861718D01*
X77973971Y-68863281D01*
X77976288Y-68866918D01*
X77982568Y-68877794D01*
X77996806Y-68902455D01*
X78028224Y-68928818D01*
X78031410Y-68931737D01*
X78768268Y-69668596D01*
X78771187Y-69671782D01*
X78797545Y-69703194D01*
X78833074Y-69723707D01*
X78836709Y-69726022D01*
X78870316Y-69749554D01*
X78871767Y-69749942D01*
X78895659Y-69759840D01*
X78896954Y-69760588D01*
X78905854Y-69762157D01*
X78937365Y-69767713D01*
X78941544Y-69768638D01*
X78981193Y-69779263D01*
X79022065Y-69775687D01*
X79026365Y-69775500D01*
X79056392Y-69775500D01*
X79114583Y-69794407D01*
X79138707Y-69819498D01*
X79155448Y-69844552D01*
X79221769Y-69888867D01*
X79266231Y-69897711D01*
X79280241Y-69900498D01*
X79280246Y-69900498D01*
X79280252Y-69900500D01*
X79280253Y-69900500D01*
X79819747Y-69900500D01*
X79819748Y-69900500D01*
X79878231Y-69888867D01*
X79944552Y-69844552D01*
X79944553Y-69844549D01*
X79944997Y-69844253D01*
X80003885Y-69827644D01*
X80055003Y-69844253D01*
X80055446Y-69844549D01*
X80055448Y-69844552D01*
X80121769Y-69888867D01*
X80166231Y-69897711D01*
X80180241Y-69900498D01*
X80180246Y-69900498D01*
X80180252Y-69900500D01*
X80500002Y-69900500D01*
X80558193Y-69919407D01*
X80594157Y-69968907D01*
X80598155Y-69986578D01*
X80611107Y-70084961D01*
X80611109Y-70084969D01*
X80671614Y-70231041D01*
X80671614Y-70231042D01*
X80767865Y-70356479D01*
X80767870Y-70356485D01*
X80893311Y-70452739D01*
X80893312Y-70452739D01*
X80893313Y-70452740D01*
X80919693Y-70463667D01*
X81039390Y-70513247D01*
X81156961Y-70528725D01*
X81196151Y-70533885D01*
X81196152Y-70533885D01*
X81196153Y-70533885D01*
X81227504Y-70529757D01*
X81352914Y-70513247D01*
X81498993Y-70452739D01*
X81624434Y-70356485D01*
X81720688Y-70231044D01*
X81781196Y-70084965D01*
X81801834Y-69928203D01*
X81781196Y-69771441D01*
X81751443Y-69699614D01*
X81746941Y-69642412D01*
X81746727Y-69642388D01*
X81746853Y-69641295D01*
X81746643Y-69638618D01*
X81747384Y-69635725D01*
X81747581Y-69634999D01*
X81747585Y-69634991D01*
X81750500Y-69609865D01*
X81750499Y-69085136D01*
X81748745Y-69070013D01*
X81760820Y-69010034D01*
X81777087Y-68988598D01*
X81777641Y-68988043D01*
X81835164Y-68875149D01*
X81835164Y-68875147D01*
X81850000Y-68781484D01*
X81850000Y-68682501D01*
X81849999Y-68682500D01*
X81299000Y-68682500D01*
X81240809Y-68663593D01*
X81204845Y-68614093D01*
X81200000Y-68583500D01*
X81200000Y-67917932D01*
X81500000Y-67917932D01*
X81500000Y-68382499D01*
X81500001Y-68382500D01*
X81849998Y-68382500D01*
X81849999Y-68382499D01*
X81849999Y-68283516D01*
X81849998Y-68283514D01*
X81835166Y-68189858D01*
X81835163Y-68189848D01*
X81777641Y-68076956D01*
X81688043Y-67987358D01*
X81575151Y-67929836D01*
X81575147Y-67929835D01*
X81500000Y-67917932D01*
X81200000Y-67917932D01*
X81124852Y-67929835D01*
X81124848Y-67929836D01*
X81005014Y-67990896D01*
X81004324Y-67989543D01*
X80954495Y-68005732D01*
X80896306Y-67986822D01*
X80860344Y-67937320D01*
X80855500Y-67906732D01*
X80855500Y-67805834D01*
X80874407Y-67747643D01*
X80884496Y-67735830D01*
X81075830Y-67544496D01*
X81130347Y-67516719D01*
X81145834Y-67515500D01*
X81694166Y-67515500D01*
X81752357Y-67534407D01*
X81764170Y-67544496D01*
X82847208Y-68627536D01*
X82850127Y-68630722D01*
X82876485Y-68662134D01*
X82912023Y-68682651D01*
X82915656Y-68684966D01*
X82949256Y-68708493D01*
X82950706Y-68708881D01*
X82974589Y-68718774D01*
X82975895Y-68719528D01*
X83016306Y-68726653D01*
X83020495Y-68727581D01*
X83060133Y-68738203D01*
X83101005Y-68734627D01*
X83105305Y-68734440D01*
X83945867Y-68734440D01*
X84004058Y-68753347D01*
X84031602Y-68783939D01*
X84049903Y-68815637D01*
X84080017Y-68867797D01*
X84080019Y-68867799D01*
X84119335Y-68912630D01*
X84190873Y-68947908D01*
X84270466Y-68953125D01*
X84326930Y-68933958D01*
X84794148Y-68664210D01*
X84838979Y-68624894D01*
X84874257Y-68553356D01*
X84874257Y-68553353D01*
X84874493Y-68552875D01*
X84917187Y-68509047D01*
X84969760Y-68497872D01*
X84970292Y-68497906D01*
X84970295Y-68497908D01*
X85049888Y-68503125D01*
X85106352Y-68483958D01*
X85415171Y-68305661D01*
X85475017Y-68292941D01*
X85530913Y-68317828D01*
X85543210Y-68331131D01*
X85571712Y-68368275D01*
X85571713Y-68368276D01*
X85571718Y-68368282D01*
X85697159Y-68464536D01*
X85697160Y-68464536D01*
X85697161Y-68464537D01*
X85790321Y-68503125D01*
X85843238Y-68525044D01*
X85960809Y-68540522D01*
X85999999Y-68545682D01*
X86000000Y-68545682D01*
X86000001Y-68545682D01*
X86031352Y-68541554D01*
X86156762Y-68525044D01*
X86302841Y-68464536D01*
X86428282Y-68368282D01*
X86524536Y-68242841D01*
X86585044Y-68096762D01*
X86605682Y-67940000D01*
X86585044Y-67783238D01*
X86581190Y-67773934D01*
X86524537Y-67637161D01*
X86524537Y-67637160D01*
X86428286Y-67511723D01*
X86428285Y-67511722D01*
X86428282Y-67511718D01*
X86338984Y-67443198D01*
X86318072Y-67427151D01*
X86292604Y-67398109D01*
X86070148Y-67012808D01*
X86058544Y-66992709D01*
X86049462Y-66980486D01*
X86029932Y-66922502D01*
X86033301Y-66895811D01*
X86033503Y-66895055D01*
X86033504Y-66895050D01*
X86026873Y-66768524D01*
X86026872Y-66768520D01*
X85992886Y-66679986D01*
X85992881Y-66679975D01*
X85943396Y-66594266D01*
X85598007Y-66793676D01*
X85598001Y-66793677D01*
X85466215Y-66869765D01*
X85406367Y-66882487D01*
X85350471Y-66857601D01*
X85330978Y-66833529D01*
X84998196Y-66257132D01*
X84939065Y-66305016D01*
X84870060Y-66411274D01*
X84870058Y-66411277D01*
X84837264Y-66533668D01*
X84836450Y-66541419D01*
X84834552Y-66541219D01*
X84821307Y-66590625D01*
X84773751Y-66629123D01*
X84731811Y-66635482D01*
X84729537Y-66635332D01*
X84729535Y-66635333D01*
X84729534Y-66635333D01*
X84714039Y-66640593D01*
X84676825Y-66653225D01*
X84615645Y-66654024D01*
X84575000Y-66629481D01*
X84539785Y-66594266D01*
X84494496Y-66548976D01*
X84466719Y-66494459D01*
X84465500Y-66478973D01*
X84465500Y-66455834D01*
X84484407Y-66397643D01*
X84494496Y-66385830D01*
X84773196Y-66107130D01*
X85258005Y-66107130D01*
X85490288Y-66509456D01*
X85793395Y-66334457D01*
X85743906Y-66248739D01*
X85684223Y-66175036D01*
X85577963Y-66106030D01*
X85577960Y-66106028D01*
X85455569Y-66073234D01*
X85455563Y-66073234D01*
X85329038Y-66079864D01*
X85329031Y-66079865D01*
X85258005Y-66107130D01*
X84773196Y-66107130D01*
X85255830Y-65624496D01*
X85310347Y-65596719D01*
X85325834Y-65595500D01*
X85664166Y-65595500D01*
X85722357Y-65614407D01*
X85734170Y-65624496D01*
X86378257Y-66268584D01*
X86381175Y-66271769D01*
X86407246Y-66302838D01*
X86407545Y-66303194D01*
X86443073Y-66323706D01*
X86446712Y-66326025D01*
X86480311Y-66349551D01*
X86480313Y-66349552D01*
X86480316Y-66349554D01*
X86481767Y-66349942D01*
X86505659Y-66359840D01*
X86506186Y-66360143D01*
X86506955Y-66360588D01*
X86547351Y-66367710D01*
X86551548Y-66368640D01*
X86591193Y-66379264D01*
X86632077Y-66375687D01*
X86636377Y-66375500D01*
X87107394Y-66375500D01*
X87126432Y-66368570D01*
X87143096Y-66364105D01*
X87163045Y-66360588D01*
X87180591Y-66350457D01*
X87196224Y-66343168D01*
X87215260Y-66336240D01*
X87230779Y-66323216D01*
X87244910Y-66313322D01*
X87262455Y-66303194D01*
X87275479Y-66287671D01*
X87287672Y-66275478D01*
X87303194Y-66262455D01*
X87313317Y-66244918D01*
X87323221Y-66230775D01*
X87336238Y-66215263D01*
X87336237Y-66215263D01*
X87336240Y-66215261D01*
X87338760Y-66208335D01*
X87361784Y-66172191D01*
X87496039Y-66037936D01*
X87550554Y-66010161D01*
X87610986Y-66019732D01*
X87654251Y-66062997D01*
X87664194Y-66095019D01*
X87674955Y-66176759D01*
X87674957Y-66176766D01*
X87735462Y-66322838D01*
X87735462Y-66322839D01*
X87831713Y-66448276D01*
X87831718Y-66448282D01*
X87957159Y-66544536D01*
X87957160Y-66544536D01*
X87957161Y-66544537D01*
X88103233Y-66605042D01*
X88103238Y-66605044D01*
X88220809Y-66620522D01*
X88259999Y-66625682D01*
X88260000Y-66625682D01*
X88260001Y-66625682D01*
X88291352Y-66621554D01*
X88416762Y-66605044D01*
X88562841Y-66544536D01*
X88688282Y-66448282D01*
X88784536Y-66322841D01*
X88845044Y-66176762D01*
X88865682Y-66020000D01*
X88855143Y-65939955D01*
X88866292Y-65879797D01*
X88883289Y-65857036D01*
X88946452Y-65793873D01*
X88982597Y-65770848D01*
X88995260Y-65766240D01*
X89010779Y-65753216D01*
X89024910Y-65743322D01*
X89042455Y-65733194D01*
X89055479Y-65717671D01*
X89067672Y-65705478D01*
X89083194Y-65692455D01*
X89093317Y-65674918D01*
X89103221Y-65660775D01*
X89108766Y-65654168D01*
X89116240Y-65645261D01*
X89123173Y-65626211D01*
X89130459Y-65610588D01*
X89140588Y-65593045D01*
X89144104Y-65573096D01*
X89148572Y-65556426D01*
X89155500Y-65537394D01*
X89155500Y-65422606D01*
X89155500Y-65422605D01*
X89155499Y-64772723D01*
X89155688Y-64768407D01*
X89156709Y-64756732D01*
X89159264Y-64727542D01*
X89148640Y-64687897D01*
X89147710Y-64683697D01*
X89142800Y-64655852D01*
X89140588Y-64643304D01*
X89139840Y-64642008D01*
X89129942Y-64618116D01*
X89129554Y-64616665D01*
X89129552Y-64616662D01*
X89129551Y-64616660D01*
X89106025Y-64583061D01*
X89103703Y-64579417D01*
X89083193Y-64543892D01*
X89055070Y-64520295D01*
X89051765Y-64517522D01*
X89048588Y-64514610D01*
X88958975Y-64424998D01*
X88931198Y-64370481D01*
X88935232Y-64323174D01*
X88953125Y-64270466D01*
X88947908Y-64190873D01*
X88946790Y-64188606D01*
X88918346Y-64130926D01*
X88909566Y-64070374D01*
X88938055Y-64016226D01*
X88981510Y-63991514D01*
X89040567Y-63975690D01*
X89131253Y-63909375D01*
X89146341Y-63889073D01*
X89291204Y-63638160D01*
X89301244Y-63614942D01*
X89313332Y-63503248D01*
X89284254Y-63394729D01*
X89282299Y-63392056D01*
X89221910Y-63309474D01*
X89217939Y-63304043D01*
X89217938Y-63304042D01*
X89217936Y-63304040D01*
X89197637Y-63288955D01*
X89159532Y-63266955D01*
X88743208Y-63026592D01*
X88743205Y-63026591D01*
X88743204Y-63026590D01*
X88743200Y-63026588D01*
X88729232Y-63020548D01*
X88683325Y-62980097D01*
X88672897Y-62955295D01*
X88672693Y-62954536D01*
X88603688Y-62848278D01*
X88529981Y-62788591D01*
X88444265Y-62739103D01*
X88168766Y-63216283D01*
X88123296Y-63257224D01*
X88062446Y-63263620D01*
X88033529Y-63252520D01*
X87457130Y-62919737D01*
X87429865Y-62990763D01*
X87429864Y-62990770D01*
X87423234Y-63117295D01*
X87424049Y-63125048D01*
X87420650Y-63125405D01*
X87418222Y-63171668D01*
X87379713Y-63219215D01*
X87320611Y-63235046D01*
X87263492Y-63213114D01*
X87247259Y-63196449D01*
X87228286Y-63171723D01*
X87228285Y-63171722D01*
X87228282Y-63171718D01*
X87228277Y-63171714D01*
X87228276Y-63171713D01*
X87102838Y-63075462D01*
X86956766Y-63014957D01*
X86956758Y-63014955D01*
X86800001Y-62994318D01*
X86799999Y-62994318D01*
X86643241Y-63014955D01*
X86643233Y-63014957D01*
X86497161Y-63075462D01*
X86497160Y-63075462D01*
X86371723Y-63171713D01*
X86371713Y-63171723D01*
X86275462Y-63297160D01*
X86275462Y-63297161D01*
X86214957Y-63443233D01*
X86214955Y-63443241D01*
X86194318Y-63599999D01*
X86194318Y-63600000D01*
X86214955Y-63756758D01*
X86214957Y-63756766D01*
X86275462Y-63902838D01*
X86275462Y-63902839D01*
X86353435Y-64004455D01*
X86371718Y-64028282D01*
X86371722Y-64028285D01*
X86371723Y-64028286D01*
X86390946Y-64043036D01*
X86497159Y-64124536D01*
X86497160Y-64124536D01*
X86497161Y-64124537D01*
X86564556Y-64152453D01*
X86643238Y-64185044D01*
X86696790Y-64192094D01*
X86752015Y-64218435D01*
X86775805Y-64258422D01*
X87270257Y-64543895D01*
X87298685Y-64560308D01*
X87339626Y-64605777D01*
X87346022Y-64666627D01*
X87334921Y-64695544D01*
X87034422Y-65216022D01*
X87034422Y-65216023D01*
X87152743Y-65284335D01*
X87193684Y-65329805D01*
X87200080Y-65390655D01*
X87173247Y-65440075D01*
X86917822Y-65695503D01*
X86863306Y-65723281D01*
X86847818Y-65724500D01*
X86795834Y-65724500D01*
X86737643Y-65705593D01*
X86725830Y-65695504D01*
X86081741Y-65051414D01*
X86078822Y-65048229D01*
X86052456Y-65016806D01*
X86029364Y-65003474D01*
X86016918Y-64996288D01*
X86013283Y-64993972D01*
X85979684Y-64970446D01*
X85979679Y-64970443D01*
X85978224Y-64970054D01*
X85954348Y-64960164D01*
X85953045Y-64959411D01*
X85912652Y-64952289D01*
X85908436Y-64951354D01*
X85882153Y-64944312D01*
X85868807Y-64940736D01*
X85868806Y-64940736D01*
X85864381Y-64941123D01*
X85827926Y-64944312D01*
X85823626Y-64944500D01*
X85166374Y-64944500D01*
X85162073Y-64944312D01*
X85121193Y-64940736D01*
X85121187Y-64940736D01*
X85081564Y-64951353D01*
X85077349Y-64952287D01*
X85036960Y-64959410D01*
X85036948Y-64959414D01*
X85035640Y-64960170D01*
X85011786Y-64970051D01*
X85010324Y-64970442D01*
X85010316Y-64970446D01*
X84976716Y-64993972D01*
X84973080Y-64996288D01*
X84966277Y-65000216D01*
X84937548Y-65016803D01*
X84937545Y-65016806D01*
X84911175Y-65048231D01*
X84908257Y-65051415D01*
X83921413Y-66038259D01*
X83918228Y-66041176D01*
X83886807Y-66067542D01*
X83886806Y-66067544D01*
X83873306Y-66090925D01*
X83867779Y-66100500D01*
X83866292Y-66103075D01*
X83863972Y-66106716D01*
X83840446Y-66140316D01*
X83840442Y-66140324D01*
X83840051Y-66141786D01*
X83830170Y-66165640D01*
X83829414Y-66166948D01*
X83829410Y-66166960D01*
X83822287Y-66207349D01*
X83821353Y-66211564D01*
X83810736Y-66251187D01*
X83810736Y-66251193D01*
X83814312Y-66292072D01*
X83814500Y-66296373D01*
X83814500Y-66638432D01*
X83814312Y-66642734D01*
X83811809Y-66671353D01*
X83810736Y-66683613D01*
X83821354Y-66723243D01*
X83822289Y-66727459D01*
X83829411Y-66767852D01*
X83830164Y-66769155D01*
X83840054Y-66793031D01*
X83840443Y-66794486D01*
X83840446Y-66794491D01*
X83863971Y-66828088D01*
X83866288Y-66831725D01*
X83885881Y-66865660D01*
X83891137Y-66874763D01*
X83888215Y-66876449D01*
X83905279Y-66918720D01*
X83890459Y-66978083D01*
X83856018Y-67011333D01*
X83740193Y-67078204D01*
X83940193Y-67424614D01*
X84040692Y-67598685D01*
X84053413Y-67658534D01*
X84028526Y-67714429D01*
X84004455Y-67733922D01*
X83469108Y-68043004D01*
X83457176Y-68061378D01*
X83400054Y-68083304D01*
X83394874Y-68083440D01*
X83264775Y-68083440D01*
X83206584Y-68064533D01*
X83194771Y-68054444D01*
X82654863Y-67514536D01*
X83239490Y-67514536D01*
X83251557Y-67626040D01*
X83251558Y-67626042D01*
X83261581Y-67649224D01*
X83333974Y-67774612D01*
X83333975Y-67774612D01*
X83680383Y-67574613D01*
X83480384Y-67228204D01*
X83354989Y-67300602D01*
X83334723Y-67315662D01*
X83268520Y-67406194D01*
X83268519Y-67406196D01*
X83239490Y-67514534D01*
X83239490Y-67514536D01*
X82654863Y-67514536D01*
X82111741Y-66971414D01*
X82108822Y-66968229D01*
X82082456Y-66936806D01*
X82051130Y-66918720D01*
X82046918Y-66916288D01*
X82043283Y-66913972D01*
X82009684Y-66890446D01*
X82009679Y-66890443D01*
X82008224Y-66890054D01*
X81984348Y-66880164D01*
X81983045Y-66879411D01*
X81942652Y-66872289D01*
X81938436Y-66871354D01*
X81912153Y-66864312D01*
X81898807Y-66860736D01*
X81898806Y-66860736D01*
X81894381Y-66861123D01*
X81857926Y-66864312D01*
X81853626Y-66864500D01*
X80986374Y-66864500D01*
X80982073Y-66864312D01*
X80941193Y-66860736D01*
X80941187Y-66860736D01*
X80901564Y-66871353D01*
X80897349Y-66872287D01*
X80856960Y-66879410D01*
X80856948Y-66879414D01*
X80855640Y-66880170D01*
X80831786Y-66890051D01*
X80830324Y-66890442D01*
X80830316Y-66890446D01*
X80796716Y-66913972D01*
X80793080Y-66916288D01*
X80784875Y-66921025D01*
X80757545Y-66936805D01*
X80731181Y-66968224D01*
X80728263Y-66971408D01*
X80311413Y-67388259D01*
X80308229Y-67391176D01*
X80276807Y-67417542D01*
X80276806Y-67417544D01*
X80267826Y-67433098D01*
X80259484Y-67447547D01*
X80256292Y-67453075D01*
X80253972Y-67456716D01*
X80230446Y-67490316D01*
X80230442Y-67490324D01*
X80230051Y-67491786D01*
X80220170Y-67515640D01*
X80219414Y-67516948D01*
X80219410Y-67516960D01*
X80212287Y-67557349D01*
X80211353Y-67561564D01*
X80200736Y-67601187D01*
X80200736Y-67601193D01*
X80204312Y-67642072D01*
X80204500Y-67646373D01*
X80204500Y-68013429D01*
X80185593Y-68071620D01*
X80136093Y-68107584D01*
X80124815Y-68110527D01*
X80112207Y-68113035D01*
X80111979Y-68111890D01*
X80060802Y-68115913D01*
X80013919Y-68089655D01*
X79972477Y-68048213D01*
X79869872Y-68002909D01*
X79844797Y-68000000D01*
X79700001Y-68000000D01*
X79700000Y-68000001D01*
X79700000Y-68601000D01*
X79681093Y-68659191D01*
X79631593Y-68695155D01*
X79601000Y-68700000D01*
X79000002Y-68700000D01*
X79000001Y-68700001D01*
X79000001Y-68740666D01*
X78981094Y-68798857D01*
X78931594Y-68834821D01*
X78870408Y-68834821D01*
X78830997Y-68810670D01*
X78604495Y-68584168D01*
X78576718Y-68529651D01*
X78575499Y-68514164D01*
X78575499Y-68399998D01*
X79000000Y-68399998D01*
X79000001Y-68400000D01*
X79399999Y-68400000D01*
X79400000Y-68399999D01*
X79400000Y-68000001D01*
X79399999Y-68000000D01*
X79255210Y-68000000D01*
X79255207Y-68000001D01*
X79230125Y-68002909D01*
X79127522Y-68048213D01*
X79048213Y-68127522D01*
X79002909Y-68230127D01*
X79000000Y-68255202D01*
X79000000Y-68399998D01*
X78575499Y-68399998D01*
X78575499Y-68071620D01*
X78575499Y-67576349D01*
X78575687Y-67572073D01*
X78579264Y-67531193D01*
X78568640Y-67491548D01*
X78567710Y-67487348D01*
X78560588Y-67446955D01*
X78559840Y-67445659D01*
X78549942Y-67421767D01*
X78549554Y-67420316D01*
X78549552Y-67420313D01*
X78549551Y-67420311D01*
X78526025Y-67386712D01*
X78523703Y-67383068D01*
X78503193Y-67347543D01*
X78482069Y-67329819D01*
X78471765Y-67321173D01*
X78468588Y-67318261D01*
X77921741Y-66771414D01*
X77918822Y-66768229D01*
X77892456Y-66736806D01*
X77864488Y-66720659D01*
X77856918Y-66716288D01*
X77853283Y-66713972D01*
X77819684Y-66690446D01*
X77819679Y-66690443D01*
X77818224Y-66690054D01*
X77794348Y-66680164D01*
X77793045Y-66679411D01*
X77752652Y-66672289D01*
X77748436Y-66671354D01*
X77722153Y-66664312D01*
X77708807Y-66660736D01*
X77708806Y-66660736D01*
X77704381Y-66661123D01*
X77667926Y-66664312D01*
X77663626Y-66664500D01*
X76770603Y-66664500D01*
X76766302Y-66664312D01*
X76725422Y-66660736D01*
X76725416Y-66660736D01*
X76685793Y-66671353D01*
X76681578Y-66672287D01*
X76641189Y-66679410D01*
X76641177Y-66679414D01*
X76639869Y-66680170D01*
X76616015Y-66690051D01*
X76614553Y-66690442D01*
X76614545Y-66690446D01*
X76580945Y-66713972D01*
X76577309Y-66716288D01*
X76569740Y-66720659D01*
X76541774Y-66736805D01*
X76515410Y-66768224D01*
X76512492Y-66771408D01*
X76204420Y-67079481D01*
X76149903Y-67107258D01*
X76102595Y-67103224D01*
X76075380Y-67093986D01*
X76049888Y-67085333D01*
X76049886Y-67085333D01*
X76040656Y-67082200D01*
X76041030Y-67081095D01*
X75994699Y-67058989D01*
X75967227Y-67012808D01*
X75952058Y-66956197D01*
X75885852Y-66865661D01*
X75885851Y-66865660D01*
X75865585Y-66850600D01*
X75865575Y-66850594D01*
X75740193Y-66778204D01*
X75740191Y-66778204D01*
X75439692Y-67298684D01*
X75394223Y-67339625D01*
X75333373Y-67346021D01*
X75304456Y-67334921D01*
X75153358Y-67247685D01*
X74783973Y-67034422D01*
X74780122Y-67035454D01*
X74719021Y-67032251D01*
X74671471Y-66993746D01*
X74655500Y-66939827D01*
X74655500Y-66774613D01*
X74933975Y-66774613D01*
X75280384Y-66974612D01*
X75480383Y-66628204D01*
X75354990Y-66555808D01*
X75331814Y-66545787D01*
X75331807Y-66545786D01*
X75220307Y-66533719D01*
X75220305Y-66533719D01*
X75111968Y-66562748D01*
X75021432Y-66628954D01*
X75021431Y-66628955D01*
X75006371Y-66649221D01*
X75006365Y-66649231D01*
X74933975Y-66774612D01*
X74933975Y-66774613D01*
X74655500Y-66774613D01*
X74655500Y-66265834D01*
X74674407Y-66207643D01*
X74684496Y-66195831D01*
X74878589Y-66001737D01*
X74881766Y-65998824D01*
X74913194Y-65972455D01*
X74933709Y-65936919D01*
X74936027Y-65933283D01*
X74950176Y-65913075D01*
X74959553Y-65899684D01*
X74959942Y-65898231D01*
X74969833Y-65874352D01*
X74970588Y-65873045D01*
X74977714Y-65832624D01*
X74978642Y-65828439D01*
X74989263Y-65788807D01*
X74985687Y-65747934D01*
X74985500Y-65743634D01*
X74985500Y-65510596D01*
X74985500Y-65276349D01*
X74985687Y-65272073D01*
X74989264Y-65231193D01*
X74978640Y-65191548D01*
X74977710Y-65187348D01*
X74974369Y-65168401D01*
X74970588Y-65146955D01*
X74969840Y-65145659D01*
X74959942Y-65121767D01*
X74959554Y-65120316D01*
X74959552Y-65120313D01*
X74959551Y-65120311D01*
X74936025Y-65086712D01*
X74933703Y-65083068D01*
X74913193Y-65047543D01*
X74885954Y-65024688D01*
X74881765Y-65021173D01*
X74878588Y-65018261D01*
X74306452Y-64446125D01*
X74303533Y-64442940D01*
X74277167Y-64411517D01*
X74254529Y-64398447D01*
X74241629Y-64390999D01*
X74237999Y-64388686D01*
X74204395Y-64365157D01*
X74204390Y-64365154D01*
X74202935Y-64364765D01*
X74179059Y-64354875D01*
X74177756Y-64354122D01*
X74137363Y-64347000D01*
X74133147Y-64346065D01*
X74106864Y-64339023D01*
X74093518Y-64335447D01*
X74093517Y-64335447D01*
X74089092Y-64335834D01*
X74052637Y-64339023D01*
X74048337Y-64339211D01*
X73209904Y-64339211D01*
X73151713Y-64320304D01*
X73124168Y-64289711D01*
X73087864Y-64226830D01*
X73075753Y-64205853D01*
X73062861Y-64191153D01*
X73036436Y-64161021D01*
X73036434Y-64161020D01*
X73030007Y-64153691D01*
X73030885Y-64152920D01*
X73001815Y-64110625D01*
X73001112Y-64056882D01*
X73016280Y-64000275D01*
X73016280Y-64000270D01*
X73004213Y-63888766D01*
X73004212Y-63888764D01*
X72994188Y-63865580D01*
X72921796Y-63740193D01*
X72921794Y-63740193D01*
X72533104Y-63964603D01*
X72533103Y-63964604D01*
X72401314Y-64040692D01*
X72341465Y-64053413D01*
X72285570Y-64028526D01*
X72266078Y-64004455D01*
X71965578Y-63483975D01*
X71965577Y-63483975D01*
X71840182Y-63556373D01*
X71819916Y-63571433D01*
X71774413Y-63633659D01*
X71724802Y-63669470D01*
X71663617Y-63669282D01*
X71614228Y-63633166D01*
X71595500Y-63575222D01*
X71595500Y-63555833D01*
X71614407Y-63497642D01*
X71624490Y-63485835D01*
X71776350Y-63333975D01*
X72225386Y-63333975D01*
X72425385Y-63680383D01*
X72771794Y-63480384D01*
X72771794Y-63480383D01*
X72699400Y-63354993D01*
X72684337Y-63334723D01*
X72593805Y-63268520D01*
X72593803Y-63268519D01*
X72485464Y-63239490D01*
X72373959Y-63251557D01*
X72373957Y-63251558D01*
X72350784Y-63261577D01*
X72225386Y-63333975D01*
X71776350Y-63333975D01*
X72918588Y-62191736D01*
X72921766Y-62188824D01*
X72953194Y-62162455D01*
X72973709Y-62126919D01*
X72976027Y-62123283D01*
X72987935Y-62106275D01*
X72999553Y-62089684D01*
X72999942Y-62088231D01*
X73009833Y-62064352D01*
X73010588Y-62063045D01*
X73017714Y-62022624D01*
X73018642Y-62018439D01*
X73029263Y-61978807D01*
X73025687Y-61937934D01*
X73025500Y-61933634D01*
X73025500Y-61306362D01*
X73025687Y-61302061D01*
X73029263Y-61261193D01*
X73018642Y-61221559D01*
X73017712Y-61217360D01*
X73016607Y-61211093D01*
X73010588Y-61176955D01*
X73009834Y-61175649D01*
X72999941Y-61151765D01*
X72999553Y-61150316D01*
X72976026Y-61116716D01*
X72973711Y-61113083D01*
X72953194Y-61077545D01*
X72921771Y-61051178D01*
X72918594Y-61048266D01*
X72101741Y-60231414D01*
X72098822Y-60228229D01*
X72072456Y-60196806D01*
X72039429Y-60177738D01*
X72036918Y-60176288D01*
X72033288Y-60173975D01*
X71999684Y-60150446D01*
X71999679Y-60150443D01*
X71998224Y-60150054D01*
X71974348Y-60140164D01*
X71965544Y-60135081D01*
X71967440Y-60131796D01*
X71932489Y-60104085D01*
X71916046Y-60045150D01*
X71932846Y-60000000D01*
X73894548Y-60000000D01*
X73914346Y-60491285D01*
X73914346Y-60491291D01*
X73914347Y-60491297D01*
X73914347Y-60491306D01*
X73973609Y-60979365D01*
X73973613Y-60979392D01*
X74071962Y-61461136D01*
X74071962Y-61461137D01*
X74208750Y-61933386D01*
X74208753Y-61933395D01*
X74295625Y-62162455D01*
X74383110Y-62393133D01*
X74452617Y-62539615D01*
X74592578Y-62834579D01*
X74593891Y-62837345D01*
X74839733Y-63263155D01*
X74889133Y-63334723D01*
X75119038Y-63667800D01*
X75429999Y-64048659D01*
X75770601Y-64403263D01*
X75770605Y-64403267D01*
X76053540Y-64653925D01*
X76138635Y-64729313D01*
X76138640Y-64729317D01*
X76531707Y-65024688D01*
X76705143Y-65134362D01*
X76947274Y-65287477D01*
X76947281Y-65287480D01*
X76947280Y-65287480D01*
X76947293Y-65287488D01*
X77287832Y-65466215D01*
X77382638Y-65515973D01*
X77834977Y-65708697D01*
X78007340Y-65766240D01*
X78301341Y-65864392D01*
X78301351Y-65864395D01*
X78301357Y-65864397D01*
X78778753Y-65982065D01*
X79264069Y-66060936D01*
X79754158Y-66100500D01*
X79754163Y-66100500D01*
X80245837Y-66100500D01*
X80245842Y-66100500D01*
X80735931Y-66060936D01*
X81221247Y-65982065D01*
X81698643Y-65864397D01*
X82165023Y-65708697D01*
X82617362Y-65515973D01*
X82870219Y-65383264D01*
X83052706Y-65287488D01*
X83052711Y-65287484D01*
X83052726Y-65287477D01*
X83468292Y-65024688D01*
X83794320Y-64779694D01*
X86533719Y-64779694D01*
X86562748Y-64888031D01*
X86628954Y-64978567D01*
X86628955Y-64978568D01*
X86649219Y-64993627D01*
X86774613Y-65066023D01*
X86974612Y-64719614D01*
X86628204Y-64519615D01*
X86555808Y-64645009D01*
X86545787Y-64668185D01*
X86545786Y-64668192D01*
X86533719Y-64779692D01*
X86533719Y-64779694D01*
X83794320Y-64779694D01*
X83861365Y-64729313D01*
X84229395Y-64403267D01*
X84569996Y-64048664D01*
X84880959Y-63667803D01*
X85160267Y-63263155D01*
X85406109Y-62837345D01*
X85490295Y-62659927D01*
X87607130Y-62659927D01*
X88009457Y-62892210D01*
X88009458Y-62892210D01*
X88184456Y-62589105D01*
X88184456Y-62589103D01*
X88098741Y-62539615D01*
X88010203Y-62505627D01*
X88010196Y-62505625D01*
X87883674Y-62498996D01*
X87883668Y-62498996D01*
X87761277Y-62531790D01*
X87761274Y-62531792D01*
X87655014Y-62600798D01*
X87655013Y-62600798D01*
X87607130Y-62659927D01*
X85490295Y-62659927D01*
X85616890Y-62393133D01*
X85791244Y-61933401D01*
X85791246Y-61933395D01*
X85791249Y-61933386D01*
X85928037Y-61461137D01*
X85928037Y-61461136D01*
X85928039Y-61461130D01*
X86026388Y-60979383D01*
X86042443Y-60847159D01*
X86085652Y-60491306D01*
X86085652Y-60491301D01*
X86085654Y-60491285D01*
X86105452Y-60000000D01*
X86085654Y-59508715D01*
X86085652Y-59508698D01*
X86085652Y-59508693D01*
X86026390Y-59020634D01*
X86026388Y-59020617D01*
X85928039Y-58538870D01*
X85928037Y-58538862D01*
X85791249Y-58066613D01*
X85791246Y-58066604D01*
X85747040Y-57950044D01*
X85616890Y-57606867D01*
X85406109Y-57162655D01*
X85160267Y-56736845D01*
X84996842Y-56500083D01*
X84880961Y-56332199D01*
X84570000Y-55951340D01*
X84229398Y-55596736D01*
X84173552Y-55547261D01*
X83861365Y-55270687D01*
X83861364Y-55270686D01*
X83861359Y-55270682D01*
X83468292Y-54975311D01*
X83165718Y-54783975D01*
X83052726Y-54712523D01*
X83052722Y-54712520D01*
X83052719Y-54712519D01*
X83052706Y-54712511D01*
X82617376Y-54484034D01*
X82617372Y-54484032D01*
X82617369Y-54484030D01*
X82617362Y-54484027D01*
X82165023Y-54291303D01*
X82165024Y-54291303D01*
X82165021Y-54291302D01*
X81698658Y-54135607D01*
X81698638Y-54135601D01*
X81282672Y-54033075D01*
X81221247Y-54017935D01*
X80735931Y-53939064D01*
X80735925Y-53939063D01*
X80458680Y-53916682D01*
X80245842Y-53899500D01*
X79754158Y-53899500D01*
X79556342Y-53915469D01*
X79264074Y-53939063D01*
X78778753Y-54017935D01*
X78301361Y-54135601D01*
X78301341Y-54135607D01*
X77834978Y-54291302D01*
X77623045Y-54381599D01*
X77382638Y-54484027D01*
X77382634Y-54484028D01*
X77382627Y-54484032D01*
X77382623Y-54484034D01*
X76947293Y-54712511D01*
X76947280Y-54712519D01*
X76531707Y-54975311D01*
X76138640Y-55270682D01*
X76138635Y-55270686D01*
X75770601Y-55596736D01*
X75429999Y-55951340D01*
X75119038Y-56332199D01*
X74839734Y-56736843D01*
X74839733Y-56736845D01*
X74611842Y-57131564D01*
X74593885Y-57162666D01*
X74469801Y-57424169D01*
X74387416Y-57597794D01*
X74383108Y-57606872D01*
X74208753Y-58066604D01*
X74208750Y-58066613D01*
X74071962Y-58538862D01*
X74071962Y-58538863D01*
X73973613Y-59020607D01*
X73973609Y-59020634D01*
X73914347Y-59508693D01*
X73914347Y-59508702D01*
X73914346Y-59508709D01*
X73914346Y-59508715D01*
X73894548Y-60000000D01*
X71932846Y-60000000D01*
X71937383Y-59987806D01*
X71944957Y-59979307D01*
X71951786Y-59972478D01*
X71997090Y-59869872D01*
X71999999Y-59844797D01*
X72000000Y-59844795D01*
X72000000Y-59700001D01*
X71999999Y-59700000D01*
X71399000Y-59700000D01*
X71340809Y-59681093D01*
X71304845Y-59631593D01*
X71300000Y-59601000D01*
X71300000Y-59399999D01*
X71600000Y-59399999D01*
X71600001Y-59400000D01*
X71999998Y-59400000D01*
X71999999Y-59399998D01*
X71999999Y-59255209D01*
X71999998Y-59255208D01*
X71997090Y-59230125D01*
X71951786Y-59127522D01*
X71872477Y-59048213D01*
X71769872Y-59002909D01*
X71744797Y-59000000D01*
X71600001Y-59000000D01*
X71600000Y-59000001D01*
X71600000Y-59399999D01*
X71300000Y-59399999D01*
X71300000Y-59000001D01*
X71299999Y-59000000D01*
X71189333Y-59000000D01*
X71131142Y-58981093D01*
X71095178Y-58931593D01*
X71095178Y-58870407D01*
X71119330Y-58830996D01*
X71225831Y-58724496D01*
X71280347Y-58696719D01*
X71295834Y-58695500D01*
X72343626Y-58695500D01*
X72347926Y-58695687D01*
X72388807Y-58699264D01*
X72428452Y-58688640D01*
X72432650Y-58687710D01*
X72473045Y-58680588D01*
X72474345Y-58679838D01*
X72498236Y-58669942D01*
X72498464Y-58669880D01*
X72499684Y-58669554D01*
X72533303Y-58646012D01*
X72536911Y-58643714D01*
X72572455Y-58623194D01*
X72598827Y-58591763D01*
X72601726Y-58588598D01*
X73418588Y-57771737D01*
X73421766Y-57768824D01*
X73453194Y-57742455D01*
X73473709Y-57706919D01*
X73476027Y-57703283D01*
X73487935Y-57686275D01*
X73499553Y-57669684D01*
X73499942Y-57668231D01*
X73509833Y-57644352D01*
X73510588Y-57643045D01*
X73517714Y-57602624D01*
X73518642Y-57598439D01*
X73529263Y-57558807D01*
X73525687Y-57517934D01*
X73525500Y-57513634D01*
X73525500Y-56960602D01*
X73525687Y-56956301D01*
X73529264Y-56915422D01*
X73518640Y-56875777D01*
X73517710Y-56871577D01*
X73512224Y-56840464D01*
X73510588Y-56831184D01*
X73509840Y-56829888D01*
X73499942Y-56805996D01*
X73499554Y-56804545D01*
X73499552Y-56804542D01*
X73499551Y-56804540D01*
X73476025Y-56770941D01*
X73473703Y-56767297D01*
X73469096Y-56759318D01*
X73453194Y-56731774D01*
X73453193Y-56731772D01*
X73428489Y-56711044D01*
X73421765Y-56705402D01*
X73418588Y-56702490D01*
X72920517Y-56204420D01*
X72892740Y-56149903D01*
X72896774Y-56102596D01*
X72914667Y-56049888D01*
X72914666Y-56049886D01*
X72917801Y-56040654D01*
X72918906Y-56041029D01*
X72941003Y-55994706D01*
X72987192Y-55967227D01*
X73043802Y-55952058D01*
X73134338Y-55885852D01*
X73134339Y-55885851D01*
X73149399Y-55865585D01*
X73149402Y-55865581D01*
X73221794Y-55740192D01*
X73221794Y-55740191D01*
X72701315Y-55439692D01*
X72660374Y-55394223D01*
X72653978Y-55333373D01*
X72665078Y-55304456D01*
X72678976Y-55280384D01*
X73025386Y-55280384D01*
X73371794Y-55480383D01*
X73371795Y-55480383D01*
X73444187Y-55354997D01*
X73444188Y-55354996D01*
X73454212Y-55331814D01*
X73454213Y-55331807D01*
X73466280Y-55220307D01*
X73466280Y-55220305D01*
X73437251Y-55111968D01*
X73371045Y-55021432D01*
X73371044Y-55021431D01*
X73350778Y-55006371D01*
X73350768Y-55006365D01*
X73225386Y-54933975D01*
X73225385Y-54933975D01*
X73025386Y-55280384D01*
X72678976Y-55280384D01*
X72765578Y-55130385D01*
X72965576Y-54783975D01*
X72872498Y-54730237D01*
X72831557Y-54684767D01*
X72825161Y-54623917D01*
X72855754Y-54570929D01*
X72911649Y-54546042D01*
X72921998Y-54545500D01*
X73484167Y-54545500D01*
X73542358Y-54564407D01*
X73554170Y-54574496D01*
X73721665Y-54741992D01*
X73888263Y-54908590D01*
X73891182Y-54911776D01*
X73917545Y-54943194D01*
X73929531Y-54950114D01*
X73953074Y-54963707D01*
X73956709Y-54966022D01*
X73990316Y-54989554D01*
X73991767Y-54989942D01*
X74015659Y-54999840D01*
X74016954Y-55000588D01*
X74025854Y-55002157D01*
X74057365Y-55007713D01*
X74061544Y-55008638D01*
X74101193Y-55019263D01*
X74142065Y-55015687D01*
X74146365Y-55015500D01*
X74683626Y-55015500D01*
X74687926Y-55015687D01*
X74728807Y-55019264D01*
X74768452Y-55008640D01*
X74772650Y-55007710D01*
X74813045Y-55000588D01*
X74814345Y-54999838D01*
X74838236Y-54989942D01*
X74838464Y-54989880D01*
X74839684Y-54989554D01*
X74873303Y-54966012D01*
X74876911Y-54963714D01*
X74912455Y-54943194D01*
X74938838Y-54911750D01*
X74941726Y-54908598D01*
X75768583Y-54081742D01*
X75771760Y-54078829D01*
X75803194Y-54052455D01*
X75823714Y-54016911D01*
X75826012Y-54013303D01*
X75849554Y-53979684D01*
X75849941Y-53978236D01*
X75859838Y-53954345D01*
X75860587Y-53953047D01*
X75860587Y-53953046D01*
X75860588Y-53953045D01*
X75867712Y-53912635D01*
X75868641Y-53908446D01*
X75879264Y-53868806D01*
X75875687Y-53827921D01*
X75875500Y-53823622D01*
X75875500Y-53371794D01*
X84519615Y-53371794D01*
X84645010Y-53444191D01*
X84668185Y-53454212D01*
X84668192Y-53454213D01*
X84779692Y-53466280D01*
X84779694Y-53466280D01*
X84888031Y-53437251D01*
X84978567Y-53371045D01*
X84978568Y-53371044D01*
X84993628Y-53350778D01*
X84993631Y-53350774D01*
X85066023Y-53225385D01*
X84719614Y-53025386D01*
X84519615Y-53371794D01*
X75875500Y-53371794D01*
X75875500Y-53226364D01*
X75875687Y-53222067D01*
X75879263Y-53181193D01*
X75868643Y-53141560D01*
X75867714Y-53137375D01*
X75865741Y-53126183D01*
X75874256Y-53065596D01*
X75916759Y-53021583D01*
X75977015Y-53010958D01*
X75988863Y-53013369D01*
X75999729Y-53016280D01*
X76111233Y-53004213D01*
X76111235Y-53004212D01*
X76134415Y-52994190D01*
X76259805Y-52921795D01*
X76056775Y-52570135D01*
X75973204Y-52425385D01*
X76319615Y-52425385D01*
X76519614Y-52771794D01*
X76645012Y-52699395D01*
X76665276Y-52684337D01*
X76731479Y-52593805D01*
X76731480Y-52593803D01*
X76760509Y-52485465D01*
X76760509Y-52485463D01*
X76748442Y-52373959D01*
X76748441Y-52373957D01*
X76738417Y-52350773D01*
X76666024Y-52225386D01*
X76319615Y-52425385D01*
X75973204Y-52425385D01*
X75959306Y-52401313D01*
X75946585Y-52341464D01*
X75971472Y-52285569D01*
X75995543Y-52266076D01*
X76530891Y-51956993D01*
X76542824Y-51938621D01*
X76599946Y-51916696D01*
X76605124Y-51916560D01*
X76835226Y-51916560D01*
X76893417Y-51935467D01*
X76905230Y-51945556D01*
X77878257Y-52918584D01*
X77881175Y-52921769D01*
X77897316Y-52941004D01*
X77907545Y-52953194D01*
X77943073Y-52973706D01*
X77946712Y-52976025D01*
X77980311Y-52999551D01*
X77980313Y-52999552D01*
X77980316Y-52999554D01*
X77981767Y-52999942D01*
X78005659Y-53009840D01*
X78006186Y-53010143D01*
X78006955Y-53010588D01*
X78047351Y-53017710D01*
X78051548Y-53018640D01*
X78091193Y-53029264D01*
X78132073Y-53025687D01*
X78136374Y-53025500D01*
X78913626Y-53025500D01*
X78917926Y-53025687D01*
X78958807Y-53029264D01*
X78998452Y-53018640D01*
X79002650Y-53017710D01*
X79043045Y-53010588D01*
X79043047Y-53010587D01*
X79044345Y-53009838D01*
X79068236Y-52999942D01*
X79068464Y-52999880D01*
X79069684Y-52999554D01*
X79103303Y-52976012D01*
X79106911Y-52973714D01*
X79142455Y-52953194D01*
X79168827Y-52921763D01*
X79171726Y-52918598D01*
X79768588Y-52321737D01*
X79771766Y-52318824D01*
X79803194Y-52292455D01*
X79823709Y-52256919D01*
X79826027Y-52253283D01*
X79849111Y-52220315D01*
X79849553Y-52219684D01*
X79849942Y-52218231D01*
X79859833Y-52194352D01*
X79860588Y-52193045D01*
X79867714Y-52152624D01*
X79868642Y-52148439D01*
X79879263Y-52108807D01*
X79875687Y-52067934D01*
X79875500Y-52063634D01*
X79875500Y-52035466D01*
X79894407Y-51977275D01*
X79943907Y-51941311D01*
X80005093Y-51941311D01*
X80019079Y-51948195D01*
X80019130Y-51948081D01*
X80130127Y-51997090D01*
X80155203Y-51999999D01*
X80300000Y-51999999D01*
X80300000Y-51999997D01*
X80600000Y-51999997D01*
X80600001Y-51999999D01*
X80744790Y-51999999D01*
X80744791Y-51999998D01*
X80769874Y-51997090D01*
X80872477Y-51951786D01*
X80951786Y-51872477D01*
X80997090Y-51769872D01*
X80999999Y-51744797D01*
X81000000Y-51744795D01*
X81000000Y-51600001D01*
X80999999Y-51600000D01*
X80600001Y-51600000D01*
X80600000Y-51600001D01*
X80600000Y-51999997D01*
X80300000Y-51999997D01*
X80300000Y-51399000D01*
X80318907Y-51340809D01*
X80368407Y-51304845D01*
X80399000Y-51300000D01*
X80999998Y-51300000D01*
X80999999Y-51299999D01*
X80999999Y-51155209D01*
X80999998Y-51155208D01*
X80997090Y-51130125D01*
X80948081Y-51019130D01*
X80950184Y-51018201D01*
X80936504Y-50971758D01*
X80957016Y-50914114D01*
X81007493Y-50879534D01*
X81035466Y-50875500D01*
X81174166Y-50875500D01*
X81232357Y-50894407D01*
X81244170Y-50904496D01*
X81595504Y-51255830D01*
X81623281Y-51310347D01*
X81624500Y-51325834D01*
X81624500Y-52483625D01*
X81624312Y-52487927D01*
X81620736Y-52528807D01*
X81620959Y-52529640D01*
X81631354Y-52568436D01*
X81632289Y-52572652D01*
X81639411Y-52613045D01*
X81640164Y-52614348D01*
X81650054Y-52638224D01*
X81650443Y-52639679D01*
X81650446Y-52639684D01*
X81664932Y-52660373D01*
X81673971Y-52673281D01*
X81676292Y-52676924D01*
X81696806Y-52712455D01*
X81728230Y-52738823D01*
X81731416Y-52741742D01*
X82168263Y-53178590D01*
X82171182Y-53181776D01*
X82176355Y-53187941D01*
X82197545Y-53213194D01*
X82197547Y-53213195D01*
X82233074Y-53233707D01*
X82236709Y-53236022D01*
X82270316Y-53259554D01*
X82271767Y-53259942D01*
X82295659Y-53269840D01*
X82296954Y-53270588D01*
X82305854Y-53272157D01*
X82337365Y-53277713D01*
X82341544Y-53278638D01*
X82381193Y-53289263D01*
X82422065Y-53285687D01*
X82426365Y-53285500D01*
X83279397Y-53285500D01*
X83283697Y-53285687D01*
X83324578Y-53289264D01*
X83364223Y-53278640D01*
X83368421Y-53277710D01*
X83408816Y-53270588D01*
X83408925Y-53270525D01*
X83410116Y-53269838D01*
X83434007Y-53259942D01*
X83434235Y-53259880D01*
X83435455Y-53259554D01*
X83469074Y-53236012D01*
X83472682Y-53233714D01*
X83508226Y-53213194D01*
X83534609Y-53181750D01*
X83537497Y-53178598D01*
X83795580Y-52920515D01*
X83850095Y-52892740D01*
X83897404Y-52896775D01*
X83934743Y-52909450D01*
X83959345Y-52917801D01*
X83958969Y-52918906D01*
X84005294Y-52941004D01*
X84032771Y-52987190D01*
X84047940Y-53043800D01*
X84047941Y-53043802D01*
X84114147Y-53134338D01*
X84114148Y-53134339D01*
X84134412Y-53149398D01*
X84259806Y-53221794D01*
X84560306Y-52701314D01*
X84605776Y-52660373D01*
X84666626Y-52653977D01*
X84695543Y-52665078D01*
X84852433Y-52755659D01*
X84852434Y-52755659D01*
X85216023Y-52965576D01*
X85216024Y-52965576D01*
X85288416Y-52840190D01*
X85288417Y-52840189D01*
X85298441Y-52817007D01*
X85298442Y-52817000D01*
X85310509Y-52705500D01*
X85310509Y-52705495D01*
X85295341Y-52648889D01*
X85298542Y-52587788D01*
X85324822Y-52552596D01*
X85324236Y-52552082D01*
X85369979Y-52499921D01*
X85369981Y-52499919D01*
X85411338Y-52428286D01*
X85418397Y-52416060D01*
X85463865Y-52375119D01*
X85504133Y-52366560D01*
X85725226Y-52366560D01*
X85783417Y-52385467D01*
X85795230Y-52395556D01*
X85865503Y-52465829D01*
X85893280Y-52520346D01*
X85894499Y-52535833D01*
X85894499Y-53024165D01*
X85875592Y-53082356D01*
X85865503Y-53094169D01*
X84991413Y-53968259D01*
X84988229Y-53971176D01*
X84956807Y-53997542D01*
X84956806Y-53997544D01*
X84936292Y-54033075D01*
X84933972Y-54036716D01*
X84910446Y-54070316D01*
X84910442Y-54070324D01*
X84910051Y-54071786D01*
X84900170Y-54095640D01*
X84899414Y-54096948D01*
X84899410Y-54096960D01*
X84892287Y-54137349D01*
X84891353Y-54141564D01*
X84880736Y-54181187D01*
X84880736Y-54181193D01*
X84884312Y-54222072D01*
X84884500Y-54226373D01*
X84884500Y-54613625D01*
X84884312Y-54617927D01*
X84883789Y-54623917D01*
X84880736Y-54658806D01*
X84891354Y-54698436D01*
X84892289Y-54702652D01*
X84899411Y-54743045D01*
X84900164Y-54744348D01*
X84910054Y-54768224D01*
X84910443Y-54769679D01*
X84910446Y-54769684D01*
X84929097Y-54796321D01*
X84933971Y-54803281D01*
X84936288Y-54806918D01*
X84950538Y-54831599D01*
X84956806Y-54842455D01*
X84988224Y-54868818D01*
X84991410Y-54871737D01*
X85688257Y-55568584D01*
X85691175Y-55571769D01*
X85712126Y-55596736D01*
X85717545Y-55603194D01*
X85753073Y-55623706D01*
X85756712Y-55626025D01*
X85790311Y-55649551D01*
X85790313Y-55649552D01*
X85790316Y-55649554D01*
X85791767Y-55649942D01*
X85815659Y-55659840D01*
X85816186Y-55660143D01*
X85816955Y-55660588D01*
X85857351Y-55667710D01*
X85861548Y-55668640D01*
X85901193Y-55679264D01*
X85942077Y-55675687D01*
X85946377Y-55675500D01*
X86798589Y-55675500D01*
X86856780Y-55694407D01*
X86884325Y-55724998D01*
X86909704Y-55768957D01*
X86924250Y-55794151D01*
X86969993Y-55846311D01*
X86969114Y-55847081D01*
X86998182Y-55889370D01*
X86998887Y-55943114D01*
X86983719Y-55999723D01*
X86983719Y-55999729D01*
X86995786Y-56111233D01*
X86995787Y-56111235D01*
X87005811Y-56134419D01*
X87078203Y-56259805D01*
X87078204Y-56259805D01*
X87598685Y-55959306D01*
X87658533Y-55946585D01*
X87714429Y-55971472D01*
X87733922Y-55995544D01*
X87784921Y-56083879D01*
X87797642Y-56143727D01*
X87772755Y-56199623D01*
X87748684Y-56219114D01*
X87228204Y-56519613D01*
X87228204Y-56519615D01*
X87300599Y-56645006D01*
X87315662Y-56665276D01*
X87400716Y-56727473D01*
X87436527Y-56777084D01*
X87436339Y-56838269D01*
X87412283Y-56877390D01*
X87331419Y-56958254D01*
X87328234Y-56961171D01*
X87296807Y-56987542D01*
X87296806Y-56987544D01*
X87276292Y-57023075D01*
X87273972Y-57026716D01*
X87250446Y-57060316D01*
X87250442Y-57060324D01*
X87250051Y-57061786D01*
X87240170Y-57085640D01*
X87239414Y-57086948D01*
X87239410Y-57086960D01*
X87232287Y-57127349D01*
X87231353Y-57131564D01*
X87220736Y-57171187D01*
X87220736Y-57171193D01*
X87224312Y-57212072D01*
X87224500Y-57216373D01*
X87224500Y-58533625D01*
X87224312Y-58537927D01*
X87220736Y-58578807D01*
X87223765Y-58590110D01*
X87231354Y-58618436D01*
X87232289Y-58622652D01*
X87239411Y-58663045D01*
X87240164Y-58664348D01*
X87250054Y-58688224D01*
X87250443Y-58689679D01*
X87250446Y-58689684D01*
X87258369Y-58701000D01*
X87273971Y-58723281D01*
X87276288Y-58726918D01*
X87296806Y-58762454D01*
X87296806Y-58762455D01*
X87328224Y-58788818D01*
X87331410Y-58791737D01*
X88070504Y-59530830D01*
X88098281Y-59585347D01*
X88099500Y-59600834D01*
X88099500Y-59819746D01*
X88099501Y-59819758D01*
X88113035Y-59887793D01*
X88111890Y-59888020D01*
X88115916Y-59939188D01*
X88089656Y-59986078D01*
X88048214Y-60027520D01*
X88002909Y-60130127D01*
X88000000Y-60155202D01*
X88000000Y-60299999D01*
X88000001Y-60300000D01*
X88601000Y-60300000D01*
X88659191Y-60318907D01*
X88695155Y-60368407D01*
X88700000Y-60399000D01*
X88700000Y-60999998D01*
X88700001Y-60999999D01*
X88844790Y-60999999D01*
X88844791Y-60999998D01*
X88869874Y-60997090D01*
X88972477Y-60951786D01*
X89000496Y-60923768D01*
X89055013Y-60895991D01*
X89115445Y-60905562D01*
X89158710Y-60948827D01*
X89169500Y-60993772D01*
X89169500Y-61180500D01*
X89150593Y-61238691D01*
X89101093Y-61274655D01*
X89070505Y-61279500D01*
X89055141Y-61279500D01*
X89055135Y-61279501D01*
X89030009Y-61282414D01*
X88949987Y-61317748D01*
X88889117Y-61323956D01*
X88870018Y-61317750D01*
X88789991Y-61282415D01*
X88789988Y-61282414D01*
X88764869Y-61279500D01*
X88764865Y-61279500D01*
X88611521Y-61279500D01*
X88553330Y-61260593D01*
X88517366Y-61211093D01*
X88513368Y-61167578D01*
X88515682Y-61150000D01*
X88515682Y-61149999D01*
X88503062Y-61054143D01*
X88503200Y-61053394D01*
X88502847Y-61052508D01*
X88495934Y-60999998D01*
X88495044Y-60993238D01*
X88434536Y-60847159D01*
X88420456Y-60828809D01*
X88400034Y-60771133D01*
X88400000Y-60768544D01*
X88400000Y-60600001D01*
X88399999Y-60600000D01*
X88171058Y-60600000D01*
X88133172Y-60592464D01*
X88066764Y-60564957D01*
X88066766Y-60564957D01*
X88066762Y-60564956D01*
X88066760Y-60564955D01*
X88066758Y-60564955D01*
X87910001Y-60544318D01*
X87909999Y-60544318D01*
X87753241Y-60564955D01*
X87753233Y-60564957D01*
X87607161Y-60625462D01*
X87607160Y-60625462D01*
X87481723Y-60721713D01*
X87481713Y-60721723D01*
X87385462Y-60847160D01*
X87385462Y-60847161D01*
X87324957Y-60993233D01*
X87324955Y-60993241D01*
X87304318Y-61149999D01*
X87304318Y-61150000D01*
X87324955Y-61306758D01*
X87324957Y-61306766D01*
X87385462Y-61452838D01*
X87385462Y-61452839D01*
X87481713Y-61578276D01*
X87481718Y-61578282D01*
X87607159Y-61674536D01*
X87607160Y-61674536D01*
X87607161Y-61674537D01*
X87718582Y-61720689D01*
X87753238Y-61735044D01*
X87900982Y-61754494D01*
X87956206Y-61780835D01*
X87985401Y-61834605D01*
X87986400Y-61841240D01*
X87987415Y-61849991D01*
X88032794Y-61952765D01*
X88112235Y-62032206D01*
X88215009Y-62077585D01*
X88240135Y-62080500D01*
X88764864Y-62080499D01*
X88789991Y-62077585D01*
X88870013Y-62042251D01*
X88930881Y-62036044D01*
X88949984Y-62042250D01*
X89030009Y-62077585D01*
X89055135Y-62080500D01*
X89579864Y-62080499D01*
X89604991Y-62077585D01*
X89707765Y-62032206D01*
X89787206Y-61952765D01*
X89832585Y-61849991D01*
X89835500Y-61824865D01*
X89835499Y-61535136D01*
X89832585Y-61510009D01*
X89830329Y-61504900D01*
X89822272Y-61473543D01*
X89820687Y-61455426D01*
X89820500Y-61451124D01*
X89820500Y-60909610D01*
X89839407Y-60851419D01*
X89841961Y-60848428D01*
X89844550Y-60844553D01*
X89844552Y-60844552D01*
X89888867Y-60778231D01*
X89900500Y-60719748D01*
X89900500Y-60180252D01*
X89899497Y-60175212D01*
X89894571Y-60150446D01*
X89888867Y-60121769D01*
X89844552Y-60055448D01*
X89844549Y-60055446D01*
X89844253Y-60055003D01*
X89827644Y-59996115D01*
X89844253Y-59944997D01*
X89844549Y-59944553D01*
X89844552Y-59944552D01*
X89888867Y-59878231D01*
X89900500Y-59819748D01*
X89900500Y-59280252D01*
X89900499Y-59280250D01*
X89900499Y-59280243D01*
X89888884Y-59221856D01*
X89896074Y-59161094D01*
X89937606Y-59116164D01*
X89941036Y-59114330D01*
X90013044Y-59077640D01*
X90102641Y-58988043D01*
X90160163Y-58875151D01*
X90160164Y-58875147D01*
X90172067Y-58800000D01*
X89506500Y-58800000D01*
X89448309Y-58781093D01*
X89412345Y-58731593D01*
X89407500Y-58701000D01*
X89407500Y-58599000D01*
X89426407Y-58540809D01*
X89475907Y-58504845D01*
X89506500Y-58500000D01*
X90172065Y-58500000D01*
X90172066Y-58499999D01*
X90160166Y-58424857D01*
X90160165Y-58424854D01*
X90102640Y-58311955D01*
X90013043Y-58222358D01*
X89977747Y-58204374D01*
X89934482Y-58161109D01*
X89924352Y-58104752D01*
X89925500Y-58094865D01*
X89925499Y-58063295D01*
X89944405Y-58005107D01*
X89993904Y-57969141D01*
X90037421Y-57965142D01*
X90079501Y-57970682D01*
X90079502Y-57970682D01*
X90079503Y-57970682D01*
X90110854Y-57966554D01*
X90236264Y-57950044D01*
X90382343Y-57889536D01*
X90507784Y-57793282D01*
X90604038Y-57667841D01*
X90664546Y-57521762D01*
X90685184Y-57365000D01*
X90664546Y-57208238D01*
X90664544Y-57208233D01*
X90604039Y-57062161D01*
X90604039Y-57062160D01*
X90507788Y-56936723D01*
X90507787Y-56936722D01*
X90507784Y-56936718D01*
X90507779Y-56936714D01*
X90507778Y-56936713D01*
X90382340Y-56840462D01*
X90236268Y-56779957D01*
X90236260Y-56779955D01*
X90079503Y-56759318D01*
X90079501Y-56759318D01*
X89922743Y-56779955D01*
X89922735Y-56779957D01*
X89776663Y-56840462D01*
X89776662Y-56840462D01*
X89652006Y-56936114D01*
X89594330Y-56956538D01*
X89535664Y-56939160D01*
X89509424Y-56912573D01*
X89499612Y-56897888D01*
X89412617Y-56839760D01*
X89412613Y-56839759D01*
X89335911Y-56824501D01*
X89335901Y-56824500D01*
X89335900Y-56824500D01*
X89248387Y-56824500D01*
X89222767Y-56821127D01*
X89221308Y-56820736D01*
X89221305Y-56820736D01*
X89212158Y-56821536D01*
X89180422Y-56824312D01*
X89176121Y-56824500D01*
X89049102Y-56824500D01*
X89049095Y-56824501D01*
X88972383Y-56839759D01*
X88972381Y-56839760D01*
X88885390Y-56897886D01*
X88885385Y-56897891D01*
X88854815Y-56943643D01*
X88806765Y-56981522D01*
X88745627Y-56983924D01*
X88694753Y-56949931D01*
X88690185Y-56943643D01*
X88659614Y-56897891D01*
X88659612Y-56897888D01*
X88572617Y-56839760D01*
X88566632Y-56837281D01*
X88520105Y-56797546D01*
X88505820Y-56738052D01*
X88529233Y-56681523D01*
X88534481Y-56675843D01*
X88627529Y-56582795D01*
X88630704Y-56579887D01*
X88636016Y-56575428D01*
X88662134Y-56553515D01*
X88682654Y-56517971D01*
X88684952Y-56514363D01*
X88708494Y-56480744D01*
X88708881Y-56479296D01*
X88718778Y-56455405D01*
X88719528Y-56454105D01*
X88726649Y-56413716D01*
X88727580Y-56409512D01*
X88738204Y-56369867D01*
X88734627Y-56328982D01*
X88734440Y-56324683D01*
X88734440Y-56054133D01*
X88753347Y-55995942D01*
X88783941Y-55968396D01*
X88867797Y-55919982D01*
X88867796Y-55919982D01*
X88867799Y-55919981D01*
X88912630Y-55880665D01*
X88947908Y-55809127D01*
X88953125Y-55729534D01*
X88933958Y-55673070D01*
X88664210Y-55205852D01*
X88624894Y-55161021D01*
X88553356Y-55125743D01*
X88553354Y-55125742D01*
X88552874Y-55125506D01*
X88509047Y-55082812D01*
X88497872Y-55030239D01*
X88497906Y-55029707D01*
X88497908Y-55029705D01*
X88503125Y-54950112D01*
X88483958Y-54893648D01*
X88324081Y-54616735D01*
X88311360Y-54556888D01*
X88336246Y-54500992D01*
X88349551Y-54488694D01*
X88355627Y-54484032D01*
X88428282Y-54428282D01*
X88524536Y-54302841D01*
X88585044Y-54156762D01*
X88605682Y-54000000D01*
X88605667Y-53999889D01*
X88599500Y-53953045D01*
X88585044Y-53843238D01*
X88549713Y-53757942D01*
X88524537Y-53697161D01*
X88524537Y-53697160D01*
X88428286Y-53571723D01*
X88428285Y-53571722D01*
X88428282Y-53571718D01*
X88428277Y-53571714D01*
X88428276Y-53571713D01*
X88302838Y-53475462D01*
X88156766Y-53414957D01*
X88156758Y-53414955D01*
X88000001Y-53394318D01*
X87999999Y-53394318D01*
X87843241Y-53414955D01*
X87843233Y-53414957D01*
X87697161Y-53475462D01*
X87697160Y-53475462D01*
X87571723Y-53571713D01*
X87571716Y-53571720D01*
X87524389Y-53633398D01*
X87477102Y-53665896D01*
X87477189Y-53666097D01*
X87476167Y-53666538D01*
X87473964Y-53668053D01*
X87471106Y-53668854D01*
X87470352Y-53669052D01*
X87447140Y-53679088D01*
X87447120Y-53679098D01*
X86992709Y-53941455D01*
X86980483Y-53950540D01*
X86922497Y-53970067D01*
X86895825Y-53966702D01*
X86895060Y-53966497D01*
X86895049Y-53966496D01*
X86768524Y-53973126D01*
X86768520Y-53973127D01*
X86679985Y-54007113D01*
X86594266Y-54056602D01*
X86594266Y-54056603D01*
X86769266Y-54359712D01*
X86869765Y-54533783D01*
X86882486Y-54593632D01*
X86857599Y-54649527D01*
X86833528Y-54669019D01*
X86240792Y-55011236D01*
X86191292Y-55024500D01*
X86105834Y-55024500D01*
X86047643Y-55005593D01*
X86035830Y-54995504D01*
X85584762Y-54544436D01*
X86073234Y-54544436D01*
X86079864Y-54670961D01*
X86079865Y-54670966D01*
X86107130Y-54741992D01*
X86509456Y-54509710D01*
X86334457Y-54206603D01*
X86248737Y-54256095D01*
X86175036Y-54315776D01*
X86106030Y-54422036D01*
X86106028Y-54422039D01*
X86073234Y-54544430D01*
X86073234Y-54544436D01*
X85584762Y-54544436D01*
X85564496Y-54524170D01*
X85536719Y-54469653D01*
X85535500Y-54454166D01*
X85535500Y-54385833D01*
X85554407Y-54327642D01*
X85564490Y-54315835D01*
X86438583Y-53441741D01*
X86441760Y-53438829D01*
X86473194Y-53412455D01*
X86493714Y-53376911D01*
X86496012Y-53373303D01*
X86519554Y-53339684D01*
X86519941Y-53338236D01*
X86529838Y-53314345D01*
X86530588Y-53313045D01*
X86534781Y-53289262D01*
X86537710Y-53272650D01*
X86538640Y-53268452D01*
X86549264Y-53228807D01*
X86545687Y-53187920D01*
X86545500Y-53183646D01*
X86545500Y-52376364D01*
X86545687Y-52372067D01*
X86549263Y-52331193D01*
X86538638Y-52291544D01*
X86537713Y-52287365D01*
X86530588Y-52246955D01*
X86530588Y-52246954D01*
X86529840Y-52245659D01*
X86519942Y-52221767D01*
X86519554Y-52220316D01*
X86496022Y-52186709D01*
X86493707Y-52183074D01*
X86478513Y-52156758D01*
X86473194Y-52147545D01*
X86441765Y-52121172D01*
X86438588Y-52118261D01*
X86142806Y-51822480D01*
X86139887Y-51819295D01*
X86113516Y-51787866D01*
X86082349Y-51769872D01*
X86077978Y-51767348D01*
X86074348Y-51765035D01*
X86040744Y-51741506D01*
X86040739Y-51741503D01*
X86039284Y-51741114D01*
X86015408Y-51731224D01*
X86014105Y-51730471D01*
X85973712Y-51723349D01*
X85969496Y-51722414D01*
X85943213Y-51715372D01*
X85929867Y-51711796D01*
X85929866Y-51711796D01*
X85925441Y-51712183D01*
X85888986Y-51715372D01*
X85884686Y-51715560D01*
X85478456Y-51715560D01*
X85428956Y-51702297D01*
X85262159Y-51605997D01*
X85106352Y-51516042D01*
X85106350Y-51516041D01*
X85106346Y-51516039D01*
X85049889Y-51496875D01*
X85049884Y-51496874D01*
X84969759Y-51502127D01*
X84910456Y-51487066D01*
X84874493Y-51447124D01*
X84874257Y-51446645D01*
X84874257Y-51446644D01*
X84838979Y-51375106D01*
X84794148Y-51335790D01*
X84712605Y-51288711D01*
X84671665Y-51243242D01*
X84663483Y-51194346D01*
X84664553Y-51182128D01*
X84653930Y-51142486D01*
X84652998Y-51138279D01*
X84651927Y-51132202D01*
X84645877Y-51097889D01*
X84645124Y-51096585D01*
X84635233Y-51072705D01*
X84634844Y-51071253D01*
X84634843Y-51071252D01*
X84634843Y-51071250D01*
X84634841Y-51071247D01*
X84634840Y-51071245D01*
X84611314Y-51037646D01*
X84608992Y-51034002D01*
X84603426Y-51024362D01*
X84588483Y-50998479D01*
X84588482Y-50998477D01*
X84562542Y-50976712D01*
X84557054Y-50972107D01*
X84553877Y-50969195D01*
X84551495Y-50966814D01*
X84523718Y-50912297D01*
X84523346Y-50883894D01*
X84533885Y-50803848D01*
X84513247Y-50647086D01*
X84452740Y-50501009D01*
X84452740Y-50501008D01*
X84356489Y-50375571D01*
X84356488Y-50375570D01*
X84356485Y-50375566D01*
X84356480Y-50375562D01*
X84356479Y-50375561D01*
X84285307Y-50320949D01*
X84231044Y-50279312D01*
X84231043Y-50279311D01*
X84231041Y-50279310D01*
X84084969Y-50218805D01*
X84084961Y-50218803D01*
X83928204Y-50198166D01*
X83928202Y-50198166D01*
X83771444Y-50218803D01*
X83771436Y-50218805D01*
X83625364Y-50279310D01*
X83625363Y-50279310D01*
X83499926Y-50375561D01*
X83499916Y-50375571D01*
X83403665Y-50501008D01*
X83403665Y-50501009D01*
X83343159Y-50647085D01*
X83333010Y-50724167D01*
X83308307Y-50775954D01*
X83308484Y-50776086D01*
X83307816Y-50776984D01*
X83306668Y-50779392D01*
X83304601Y-50781506D01*
X83304047Y-50782054D01*
X83288953Y-50802365D01*
X83026590Y-51256795D01*
X83026585Y-51256805D01*
X83020546Y-51270770D01*
X82980093Y-51316675D01*
X82955314Y-51327096D01*
X82954546Y-51327301D01*
X82954536Y-51327306D01*
X82848278Y-51396311D01*
X82788593Y-51470016D01*
X82739103Y-51555733D01*
X82739103Y-51555734D01*
X83042211Y-51730734D01*
X83042212Y-51730734D01*
X83216282Y-51831233D01*
X83257223Y-51876703D01*
X83263619Y-51937553D01*
X83252519Y-51966470D01*
X82896918Y-52582393D01*
X82894917Y-52581238D01*
X82872366Y-52614046D01*
X82814689Y-52634466D01*
X82812104Y-52634500D01*
X82585835Y-52634500D01*
X82527644Y-52615593D01*
X82515831Y-52605504D01*
X82304496Y-52394169D01*
X82276719Y-52339652D01*
X82275500Y-52324165D01*
X82275500Y-52116331D01*
X82498996Y-52116331D01*
X82531790Y-52238722D01*
X82531792Y-52238725D01*
X82600797Y-52344983D01*
X82659928Y-52392867D01*
X82892210Y-51990541D01*
X82892210Y-51990540D01*
X82589105Y-51815542D01*
X82589103Y-51815542D01*
X82539613Y-51901263D01*
X82539613Y-51901264D01*
X82505627Y-51989796D01*
X82505625Y-51989803D01*
X82498996Y-52116325D01*
X82498996Y-52116331D01*
X82275500Y-52116331D01*
X82275500Y-51166364D01*
X82275687Y-51162067D01*
X82279263Y-51121193D01*
X82268638Y-51081544D01*
X82267713Y-51077365D01*
X82260588Y-51036955D01*
X82260588Y-51036954D01*
X82259840Y-51035659D01*
X82249942Y-51011767D01*
X82249554Y-51010316D01*
X82249552Y-51010313D01*
X82249551Y-51010311D01*
X82226025Y-50976712D01*
X82223703Y-50973068D01*
X82223152Y-50972114D01*
X82203194Y-50937545D01*
X82203193Y-50937543D01*
X82176164Y-50914864D01*
X82171765Y-50911173D01*
X82168588Y-50908261D01*
X81591741Y-50331414D01*
X81588822Y-50328229D01*
X81562456Y-50296806D01*
X81532155Y-50279312D01*
X81526918Y-50276288D01*
X81523288Y-50273975D01*
X81489684Y-50250446D01*
X81489679Y-50250443D01*
X81488224Y-50250054D01*
X81464348Y-50240164D01*
X81463045Y-50239411D01*
X81422652Y-50232289D01*
X81418436Y-50231354D01*
X81382662Y-50221769D01*
X81378807Y-50220736D01*
X81378806Y-50220736D01*
X81374381Y-50221123D01*
X81337926Y-50224312D01*
X81333626Y-50224500D01*
X80943608Y-50224500D01*
X80885417Y-50205593D01*
X80861293Y-50180502D01*
X80844554Y-50155451D01*
X80844552Y-50155448D01*
X80844548Y-50155445D01*
X80778233Y-50111134D01*
X80778231Y-50111133D01*
X80778228Y-50111132D01*
X80778227Y-50111132D01*
X80719758Y-50099501D01*
X80719748Y-50099500D01*
X80180252Y-50099500D01*
X80180251Y-50099500D01*
X80180241Y-50099501D01*
X80121772Y-50111132D01*
X80121766Y-50111134D01*
X80055002Y-50155746D01*
X79996114Y-50172355D01*
X79944998Y-50155746D01*
X79878233Y-50111134D01*
X79878231Y-50111133D01*
X79878228Y-50111132D01*
X79878227Y-50111132D01*
X79819758Y-50099501D01*
X79819748Y-50099500D01*
X79819747Y-50099500D01*
X79499998Y-50099500D01*
X79441807Y-50080593D01*
X79405843Y-50031093D01*
X79401845Y-50013422D01*
X79400078Y-50000004D01*
X88644341Y-50000004D01*
X88664935Y-50235400D01*
X88664936Y-50235407D01*
X88664937Y-50235408D01*
X88675270Y-50273971D01*
X88726098Y-50463667D01*
X88825959Y-50677818D01*
X88825963Y-50677826D01*
X88925899Y-50820551D01*
X88961505Y-50871401D01*
X89128599Y-51038495D01*
X89128602Y-51038497D01*
X89128603Y-51038498D01*
X89152810Y-51055448D01*
X89322171Y-51174035D01*
X89322172Y-51174035D01*
X89322173Y-51174036D01*
X89322181Y-51174040D01*
X89339526Y-51182128D01*
X89529618Y-51270770D01*
X89536333Y-51273901D01*
X89536337Y-51273903D01*
X89764592Y-51335063D01*
X89764596Y-51335063D01*
X89764599Y-51335064D01*
X89941026Y-51350500D01*
X89941034Y-51350500D01*
X90058974Y-51350500D01*
X90235400Y-51335064D01*
X90235401Y-51335063D01*
X90235408Y-51335063D01*
X90463663Y-51273903D01*
X90677829Y-51174035D01*
X90871401Y-51038495D01*
X91038495Y-50871401D01*
X91174035Y-50677830D01*
X91273903Y-50463663D01*
X91335063Y-50235408D01*
X91335662Y-50228561D01*
X91355659Y-50000004D01*
X91355659Y-49999995D01*
X91335064Y-49764599D01*
X91335063Y-49764596D01*
X91335063Y-49764592D01*
X91273903Y-49536337D01*
X91250782Y-49486754D01*
X91174040Y-49322181D01*
X91174036Y-49322173D01*
X91038498Y-49128603D01*
X91038497Y-49128602D01*
X91038495Y-49128599D01*
X90871401Y-48961505D01*
X90871397Y-48961502D01*
X90871396Y-48961501D01*
X90678167Y-48826202D01*
X90677829Y-48825965D01*
X90677828Y-48825964D01*
X90677826Y-48825963D01*
X90677818Y-48825959D01*
X90463666Y-48726098D01*
X90463667Y-48726098D01*
X90387578Y-48705710D01*
X90235408Y-48664937D01*
X90235407Y-48664936D01*
X90235400Y-48664935D01*
X90058974Y-48649500D01*
X90058966Y-48649500D01*
X89941034Y-48649500D01*
X89941026Y-48649500D01*
X89764599Y-48664935D01*
X89536332Y-48726098D01*
X89322181Y-48825959D01*
X89322173Y-48825963D01*
X89128603Y-48961501D01*
X88961501Y-49128603D01*
X88825964Y-49322171D01*
X88726097Y-49536337D01*
X88664935Y-49764599D01*
X88644341Y-49999995D01*
X88644341Y-50000004D01*
X79400078Y-50000004D01*
X79388892Y-49915038D01*
X79388892Y-49915035D01*
X79328385Y-49768958D01*
X79328385Y-49768957D01*
X79232134Y-49643520D01*
X79232133Y-49643519D01*
X79232130Y-49643515D01*
X79232125Y-49643511D01*
X79232124Y-49643510D01*
X79106686Y-49547259D01*
X78960614Y-49486754D01*
X78960606Y-49486752D01*
X78803849Y-49466115D01*
X78803847Y-49466115D01*
X78647089Y-49486752D01*
X78647081Y-49486754D01*
X78501009Y-49547259D01*
X78501008Y-49547259D01*
X78375571Y-49643510D01*
X78375561Y-49643520D01*
X78279310Y-49768957D01*
X78279310Y-49768958D01*
X78218805Y-49915030D01*
X78218803Y-49915038D01*
X78198166Y-50071796D01*
X78198166Y-50071797D01*
X78218269Y-50224500D01*
X78218804Y-50228559D01*
X78223611Y-50240164D01*
X78248555Y-50300384D01*
X78253057Y-50357587D01*
X78253273Y-50357613D01*
X78253145Y-50358709D01*
X78253356Y-50361381D01*
X78252620Y-50364256D01*
X78252414Y-50365010D01*
X78249500Y-50390130D01*
X78249500Y-50914860D01*
X78249501Y-50914863D01*
X78251255Y-50929987D01*
X78239177Y-50989968D01*
X78222923Y-51011389D01*
X78222361Y-51011950D01*
X78164836Y-51124848D01*
X78164835Y-51124852D01*
X78150000Y-51218515D01*
X78150000Y-51317499D01*
X78150001Y-51317500D01*
X78701000Y-51317500D01*
X78759191Y-51336407D01*
X78795155Y-51385907D01*
X78800000Y-51416500D01*
X78800000Y-52082066D01*
X78840794Y-52075606D01*
X78901226Y-52085178D01*
X78944489Y-52128444D01*
X78954060Y-52188876D01*
X78926283Y-52243390D01*
X78824171Y-52345503D01*
X78769654Y-52373281D01*
X78754167Y-52374500D01*
X78295834Y-52374500D01*
X78237643Y-52355593D01*
X78225830Y-52345504D01*
X77596812Y-51716485D01*
X78150001Y-51716485D01*
X78164833Y-51810141D01*
X78164836Y-51810151D01*
X78222358Y-51923043D01*
X78311955Y-52012640D01*
X78424854Y-52070165D01*
X78424857Y-52070166D01*
X78499999Y-52082066D01*
X78500000Y-52082065D01*
X78500000Y-51617501D01*
X78499999Y-51617500D01*
X78150002Y-51617500D01*
X78150001Y-51617501D01*
X78150001Y-51716485D01*
X77596812Y-51716485D01*
X77252801Y-51372474D01*
X77249882Y-51369289D01*
X77223516Y-51337866D01*
X77200878Y-51324796D01*
X77187978Y-51317348D01*
X77184348Y-51315035D01*
X77150744Y-51291506D01*
X77150739Y-51291503D01*
X77149284Y-51291114D01*
X77125408Y-51281224D01*
X77124105Y-51280471D01*
X77083712Y-51273349D01*
X77079496Y-51272414D01*
X77053213Y-51265372D01*
X77039867Y-51261796D01*
X77039866Y-51261796D01*
X77035441Y-51262183D01*
X76998986Y-51265372D01*
X76994686Y-51265560D01*
X76054133Y-51265560D01*
X75995942Y-51246653D01*
X75968397Y-51216060D01*
X75925926Y-51142498D01*
X75919982Y-51132202D01*
X75913536Y-51124852D01*
X75880665Y-51087370D01*
X75809127Y-51052092D01*
X75782595Y-51050353D01*
X75729536Y-51046875D01*
X75729532Y-51046875D01*
X75673075Y-51066039D01*
X75205851Y-51335790D01*
X75161021Y-51375106D01*
X75125506Y-51447125D01*
X75082811Y-51490953D01*
X75030240Y-51502127D01*
X74950115Y-51496874D01*
X74950110Y-51496875D01*
X74893653Y-51516039D01*
X74616735Y-51675917D01*
X74556886Y-51688638D01*
X74500991Y-51663751D01*
X74488693Y-51650447D01*
X74428286Y-51571723D01*
X74428285Y-51571722D01*
X74428282Y-51571718D01*
X74428277Y-51571714D01*
X74428276Y-51571713D01*
X74337543Y-51502092D01*
X74302841Y-51475464D01*
X74302840Y-51475463D01*
X74302838Y-51475462D01*
X74156766Y-51414957D01*
X74156758Y-51414955D01*
X74000001Y-51394318D01*
X73999999Y-51394318D01*
X73843241Y-51414955D01*
X73843233Y-51414957D01*
X73697161Y-51475462D01*
X73697160Y-51475462D01*
X73571723Y-51571713D01*
X73571713Y-51571723D01*
X73475462Y-51697160D01*
X73475462Y-51697161D01*
X73414957Y-51843233D01*
X73414955Y-51843241D01*
X73394318Y-51999999D01*
X73414955Y-52156758D01*
X73414957Y-52156766D01*
X73475462Y-52302838D01*
X73475462Y-52302839D01*
X73569495Y-52425385D01*
X73571718Y-52428282D01*
X73571722Y-52428285D01*
X73571723Y-52428286D01*
X73633396Y-52475609D01*
X73665896Y-52522897D01*
X73666097Y-52522811D01*
X73666537Y-52523828D01*
X73668052Y-52526033D01*
X73668851Y-52528887D01*
X73669049Y-52529640D01*
X73679088Y-52552859D01*
X73679098Y-52552879D01*
X73939678Y-53004212D01*
X73941456Y-53007291D01*
X73949197Y-53017709D01*
X73950538Y-53019513D01*
X73970067Y-53077498D01*
X73966703Y-53104168D01*
X73966497Y-53104933D01*
X73966496Y-53104951D01*
X73973126Y-53231475D01*
X73973127Y-53231479D01*
X74007113Y-53320013D01*
X74007118Y-53320024D01*
X74056602Y-53405732D01*
X74056603Y-53405732D01*
X74390093Y-53213194D01*
X74533782Y-53130234D01*
X74593631Y-53117512D01*
X74649526Y-53142398D01*
X74669019Y-53166470D01*
X75010505Y-53757942D01*
X75026631Y-53766697D01*
X75052973Y-53821922D01*
X75041823Y-53882083D01*
X75024824Y-53904848D01*
X74594170Y-54335503D01*
X74539653Y-54363281D01*
X74524166Y-54364500D01*
X74305834Y-54364500D01*
X74247643Y-54345593D01*
X74235831Y-54335504D01*
X73901746Y-54001420D01*
X73898827Y-53998235D01*
X73872456Y-53966806D01*
X73844282Y-53950540D01*
X73836918Y-53946288D01*
X73833283Y-53943972D01*
X73799684Y-53920446D01*
X73799679Y-53920443D01*
X73798224Y-53920054D01*
X73774348Y-53910164D01*
X73773045Y-53909411D01*
X73732652Y-53902289D01*
X73728436Y-53901354D01*
X73702153Y-53894312D01*
X73688807Y-53890736D01*
X73688806Y-53890736D01*
X73684381Y-53891123D01*
X73647926Y-53894312D01*
X73643626Y-53894500D01*
X72722723Y-53894500D01*
X72718422Y-53894312D01*
X72677542Y-53890736D01*
X72677536Y-53890736D01*
X72637913Y-53901353D01*
X72633698Y-53902287D01*
X72593309Y-53909410D01*
X72593297Y-53909414D01*
X72591989Y-53910170D01*
X72568135Y-53920051D01*
X72566673Y-53920442D01*
X72566665Y-53920446D01*
X72533065Y-53943972D01*
X72529429Y-53946288D01*
X72522066Y-53950540D01*
X72493894Y-53966805D01*
X72467530Y-53998224D01*
X72464612Y-54001408D01*
X72130769Y-54335252D01*
X72076252Y-54363029D01*
X72028944Y-54358995D01*
X72002828Y-54350130D01*
X71976237Y-54341104D01*
X71976235Y-54341104D01*
X71976234Y-54341104D01*
X71919452Y-54344826D01*
X71896644Y-54346321D01*
X71896643Y-54346321D01*
X71825106Y-54381599D01*
X71785790Y-54426429D01*
X71516039Y-54893653D01*
X71496875Y-54950110D01*
X71496874Y-54950115D01*
X71502127Y-55030240D01*
X71487066Y-55089542D01*
X71447125Y-55125506D01*
X71375106Y-55161021D01*
X71335787Y-55205855D01*
X71288711Y-55287393D01*
X71243242Y-55328334D01*
X71194346Y-55336516D01*
X71182129Y-55335447D01*
X71182128Y-55335447D01*
X71142498Y-55346065D01*
X71138282Y-55347000D01*
X71097890Y-55354122D01*
X71097882Y-55354125D01*
X71096574Y-55354881D01*
X71072720Y-55364762D01*
X71071258Y-55365153D01*
X71071250Y-55365157D01*
X71037650Y-55388683D01*
X71034014Y-55390999D01*
X71028432Y-55394223D01*
X70998479Y-55411516D01*
X70972115Y-55442935D01*
X70969197Y-55446119D01*
X70966814Y-55448503D01*
X70912297Y-55476280D01*
X70883888Y-55476652D01*
X70803849Y-55466115D01*
X70803847Y-55466115D01*
X70647089Y-55486752D01*
X70647081Y-55486754D01*
X70501009Y-55547259D01*
X70501008Y-55547259D01*
X70375571Y-55643510D01*
X70375561Y-55643520D01*
X70279310Y-55768957D01*
X70279310Y-55768958D01*
X70218805Y-55915030D01*
X70218803Y-55915038D01*
X70198166Y-56071796D01*
X70198166Y-56071797D01*
X70218803Y-56228555D01*
X70218805Y-56228563D01*
X70279310Y-56374635D01*
X70279310Y-56374636D01*
X70375561Y-56500073D01*
X70375566Y-56500079D01*
X70501007Y-56596333D01*
X70647086Y-56656841D01*
X70724164Y-56666988D01*
X70775953Y-56691689D01*
X70776083Y-56691515D01*
X70776968Y-56692173D01*
X70779390Y-56693328D01*
X70781517Y-56695409D01*
X70782060Y-56695956D01*
X70782061Y-56695957D01*
X70802363Y-56711045D01*
X71256792Y-56973408D01*
X71256799Y-56973411D01*
X71270766Y-56979451D01*
X71316672Y-57019902D01*
X71327096Y-57044685D01*
X71327302Y-57045455D01*
X71327306Y-57045463D01*
X71396311Y-57151721D01*
X71470014Y-57211405D01*
X71470022Y-57211411D01*
X71555733Y-57260895D01*
X71831233Y-56783716D01*
X71876703Y-56742775D01*
X71937553Y-56736379D01*
X71966470Y-56747479D01*
X72542867Y-57080261D01*
X72570134Y-57009232D01*
X72570136Y-57009226D01*
X72570178Y-57008426D01*
X72570465Y-57007677D01*
X72571756Y-57001607D01*
X72572716Y-57001811D01*
X72592103Y-56951304D01*
X72643417Y-56917979D01*
X72704518Y-56921180D01*
X72739046Y-56943601D01*
X72845504Y-57050059D01*
X72873281Y-57104576D01*
X72874500Y-57120063D01*
X72874500Y-57354165D01*
X72855593Y-57412356D01*
X72845504Y-57424169D01*
X72254170Y-58015504D01*
X72199653Y-58043281D01*
X72184166Y-58044500D01*
X71136374Y-58044500D01*
X71132073Y-58044312D01*
X71091193Y-58040736D01*
X71091187Y-58040736D01*
X71051564Y-58051353D01*
X71047349Y-58052287D01*
X71006960Y-58059410D01*
X71006948Y-58059414D01*
X71005640Y-58060170D01*
X70981786Y-58070051D01*
X70980324Y-58070442D01*
X70980316Y-58070446D01*
X70946716Y-58093972D01*
X70943080Y-58096288D01*
X70934875Y-58101025D01*
X70907545Y-58116805D01*
X70881181Y-58148224D01*
X70878263Y-58151408D01*
X70331413Y-58698259D01*
X70328229Y-58701176D01*
X70296807Y-58727542D01*
X70296806Y-58727544D01*
X70276292Y-58763075D01*
X70273972Y-58766715D01*
X70256453Y-58791737D01*
X70250446Y-58800316D01*
X70250442Y-58800324D01*
X70250051Y-58801786D01*
X70240170Y-58825640D01*
X70239414Y-58826948D01*
X70239410Y-58826960D01*
X70232287Y-58867349D01*
X70231353Y-58871564D01*
X70220736Y-58911187D01*
X70220736Y-58911193D01*
X70224312Y-58952072D01*
X70224500Y-58956373D01*
X70224500Y-59056392D01*
X70205593Y-59114583D01*
X70180502Y-59138707D01*
X70155451Y-59155445D01*
X70155445Y-59155451D01*
X70111134Y-59221766D01*
X70111132Y-59221772D01*
X70099501Y-59280241D01*
X70099500Y-59280253D01*
X70099500Y-59819746D01*
X70099501Y-59819758D01*
X70109470Y-59869872D01*
X70111133Y-59878231D01*
X70155448Y-59944552D01*
X70155450Y-59944553D01*
X70155746Y-59944996D01*
X70172355Y-60003884D01*
X70155746Y-60055001D01*
X70111134Y-60121766D01*
X70111132Y-60121772D01*
X70099501Y-60180241D01*
X70099500Y-60180253D01*
X70099500Y-60500002D01*
X70080593Y-60558193D01*
X70031093Y-60594157D01*
X70013422Y-60598155D01*
X69915038Y-60611107D01*
X69915030Y-60611109D01*
X69768958Y-60671614D01*
X69768957Y-60671614D01*
X69643520Y-60767865D01*
X69643510Y-60767875D01*
X69547259Y-60893312D01*
X69547259Y-60893313D01*
X69486754Y-61039385D01*
X69486752Y-61039393D01*
X69466115Y-61196151D01*
X69466115Y-61196152D01*
X68000500Y-61196152D01*
X68000500Y-57410896D01*
X71815542Y-57410896D01*
X71901258Y-57460384D01*
X71989796Y-57494372D01*
X71989803Y-57494374D01*
X72116325Y-57501003D01*
X72116331Y-57501003D01*
X72238722Y-57468209D01*
X72238725Y-57468207D01*
X72344985Y-57399201D01*
X72392867Y-57340071D01*
X71990541Y-57107788D01*
X71990540Y-57107788D01*
X71815542Y-57410893D01*
X71815542Y-57410896D01*
X68000500Y-57410896D01*
X68000500Y-53665541D01*
X74206603Y-53665541D01*
X74256093Y-53751260D01*
X74315776Y-53824963D01*
X74422036Y-53893969D01*
X74422039Y-53893971D01*
X74544430Y-53926765D01*
X74544436Y-53926765D01*
X74670958Y-53920136D01*
X74670964Y-53920134D01*
X74741993Y-53892867D01*
X74509710Y-53490542D01*
X74206603Y-53665541D01*
X68000500Y-53665541D01*
X68000500Y-50000004D01*
X68644341Y-50000004D01*
X68664935Y-50235400D01*
X68664936Y-50235407D01*
X68664937Y-50235408D01*
X68675270Y-50273971D01*
X68726098Y-50463667D01*
X68825959Y-50677818D01*
X68825963Y-50677826D01*
X68925899Y-50820551D01*
X68961505Y-50871401D01*
X69128599Y-51038495D01*
X69128602Y-51038497D01*
X69128603Y-51038498D01*
X69152810Y-51055448D01*
X69322171Y-51174035D01*
X69322172Y-51174035D01*
X69322173Y-51174036D01*
X69322181Y-51174040D01*
X69339526Y-51182128D01*
X69529618Y-51270770D01*
X69536333Y-51273901D01*
X69536337Y-51273903D01*
X69764592Y-51335063D01*
X69764596Y-51335063D01*
X69764599Y-51335064D01*
X69941026Y-51350500D01*
X69941034Y-51350500D01*
X70058974Y-51350500D01*
X70235400Y-51335064D01*
X70235401Y-51335063D01*
X70235408Y-51335063D01*
X70463663Y-51273903D01*
X70677829Y-51174035D01*
X70871401Y-51038495D01*
X71038495Y-50871401D01*
X71174035Y-50677830D01*
X71273903Y-50463663D01*
X71335063Y-50235408D01*
X71335662Y-50228561D01*
X71355659Y-50000004D01*
X71355659Y-49999995D01*
X71335064Y-49764599D01*
X71335063Y-49764596D01*
X71335063Y-49764592D01*
X71273903Y-49536337D01*
X71250782Y-49486754D01*
X71174040Y-49322181D01*
X71174036Y-49322173D01*
X71038498Y-49128603D01*
X71038497Y-49128602D01*
X71038495Y-49128599D01*
X70871401Y-48961505D01*
X70871397Y-48961502D01*
X70871396Y-48961501D01*
X70678167Y-48826202D01*
X70677829Y-48825965D01*
X70677828Y-48825964D01*
X70677826Y-48825963D01*
X70677818Y-48825959D01*
X70463666Y-48726098D01*
X70463667Y-48726098D01*
X70387578Y-48705710D01*
X70235408Y-48664937D01*
X70235407Y-48664936D01*
X70235400Y-48664935D01*
X70058974Y-48649500D01*
X70058966Y-48649500D01*
X69941034Y-48649500D01*
X69941026Y-48649500D01*
X69764599Y-48664935D01*
X69536332Y-48726098D01*
X69322181Y-48825959D01*
X69322173Y-48825963D01*
X69128603Y-48961501D01*
X68961501Y-49128603D01*
X68825964Y-49322171D01*
X68726097Y-49536337D01*
X68664935Y-49764599D01*
X68644341Y-49999995D01*
X68644341Y-50000004D01*
X68000500Y-50000004D01*
X68000500Y-49002158D01*
X68000687Y-48997860D01*
X68004483Y-48954465D01*
X68017120Y-48826179D01*
X68020007Y-48810307D01*
X68038218Y-48742342D01*
X68038603Y-48740995D01*
X68067199Y-48646725D01*
X68072207Y-48633639D01*
X68099292Y-48575555D01*
X68104551Y-48564276D01*
X68105718Y-48561943D01*
X68151123Y-48476994D01*
X68154212Y-48471965D01*
X68201271Y-48404759D01*
X68203528Y-48401784D01*
X68263508Y-48328698D01*
X68266741Y-48325131D01*
X68325131Y-48266741D01*
X68328698Y-48263508D01*
X68401784Y-48203528D01*
X68404759Y-48201271D01*
X68471965Y-48154212D01*
X68476994Y-48151123D01*
X68561943Y-48105718D01*
X68564276Y-48104551D01*
X68633641Y-48072205D01*
X68646725Y-48067199D01*
X68740995Y-48038603D01*
X68742342Y-48038218D01*
X68810307Y-48020007D01*
X68826179Y-48017120D01*
X68954484Y-48004482D01*
X68997859Y-48000687D01*
X69002159Y-48000500D01*
X90997840Y-48000500D01*
X91002140Y-48000687D01*
G37*
%TD.AperFunction*%
%TD*%
M02*
