%TF.GenerationSoftware,KiCad,Pcbnew,7.0.2.1-36-g582732918d-dirty-deb11*%
%TF.CreationDate,2023-05-29T10:57:50+00:00*%
%TF.ProjectId,pedalboard-led-ring,70656461-6c62-46f6-9172-642d6c65642d,1.0.0*%
%TF.SameCoordinates,Original*%
%TF.FileFunction,Soldermask,Bot*%
%TF.FilePolarity,Negative*%
%FSLAX46Y46*%
G04 Gerber Fmt 4.6, Leading zero omitted, Abs format (unit mm)*
G04 Created by KiCad (PCBNEW 7.0.2.1-36-g582732918d-dirty-deb11) date 2023-05-29 10:57:50*
%MOMM*%
%LPD*%
G01*
G04 APERTURE LIST*
G04 Aperture macros list*
%AMRoundRect*
0 Rectangle with rounded corners*
0 $1 Rounding radius*
0 $2 $3 $4 $5 $6 $7 $8 $9 X,Y pos of 4 corners*
0 Add a 4 corners polygon primitive as box body*
4,1,4,$2,$3,$4,$5,$6,$7,$8,$9,$2,$3,0*
0 Add four circle primitives for the rounded corners*
1,1,$1+$1,$2,$3*
1,1,$1+$1,$4,$5*
1,1,$1+$1,$6,$7*
1,1,$1+$1,$8,$9*
0 Add four rect primitives between the rounded corners*
20,1,$1+$1,$2,$3,$4,$5,0*
20,1,$1+$1,$4,$5,$6,$7,0*
20,1,$1+$1,$6,$7,$8,$9,0*
20,1,$1+$1,$8,$9,$2,$3,0*%
G04 Aperture macros list end*
%ADD10C,0.010000*%
%ADD11RoundRect,0.150000X-0.825000X-0.150000X0.825000X-0.150000X0.825000X0.150000X-0.825000X0.150000X0*%
%ADD12RoundRect,0.250000X-0.412500X-0.650000X0.412500X-0.650000X0.412500X0.650000X-0.412500X0.650000X0*%
%ADD13R,1.000000X3.000000*%
%ADD14R,1.000000X1.000000*%
%ADD15R,0.700000X0.250000*%
%ADD16R,0.610000X2.200000*%
%ADD17RoundRect,0.250000X-0.475000X0.337500X-0.475000X-0.337500X0.475000X-0.337500X0.475000X0.337500X0*%
%ADD18RoundRect,0.250000X0.337500X0.475000X-0.337500X0.475000X-0.337500X-0.475000X0.337500X-0.475000X0*%
%ADD19RoundRect,0.250000X0.650000X-0.412500X0.650000X0.412500X-0.650000X0.412500X-0.650000X-0.412500X0*%
G04 APERTURE END LIST*
%TO.C,L1*%
D10*
X87350000Y-68200000D02*
X86150000Y-68200000D01*
X86150000Y-67700000D01*
X85050000Y-67700000D01*
X85050000Y-66500000D01*
X86150000Y-66500000D01*
X86150000Y-66000000D01*
X87350000Y-66000000D01*
X87350000Y-68200000D01*
G36*
X87350000Y-68200000D02*
G01*
X86150000Y-68200000D01*
X86150000Y-67700000D01*
X85050000Y-67700000D01*
X85050000Y-66500000D01*
X86150000Y-66500000D01*
X86150000Y-66000000D01*
X87350000Y-66000000D01*
X87350000Y-68200000D01*
G37*
X89650000Y-66500000D02*
X90750000Y-66500000D01*
X90750000Y-67700000D01*
X89650000Y-67700000D01*
X89650000Y-68200000D01*
X88450000Y-68200000D01*
X88450000Y-66000000D01*
X89650000Y-66000000D01*
X89650000Y-66500000D01*
G36*
X89650000Y-66500000D02*
G01*
X90750000Y-66500000D01*
X90750000Y-67700000D01*
X89650000Y-67700000D01*
X89650000Y-68200000D01*
X88450000Y-68200000D01*
X88450000Y-66000000D01*
X89650000Y-66000000D01*
X89650000Y-66500000D01*
G37*
%TD*%
D11*
%TO.C,U1*%
X92425000Y-54705000D03*
X92425000Y-53435000D03*
X92425000Y-52165000D03*
X92425000Y-50895000D03*
X97375000Y-50895000D03*
X97375000Y-52165000D03*
X97375000Y-53435000D03*
X97375000Y-54705000D03*
%TD*%
D12*
%TO.C,C1*%
X90337500Y-59600000D03*
X93462500Y-59600000D03*
%TD*%
D13*
%TO.C,J1*%
X93960000Y-70520000D03*
X93960000Y-65480000D03*
X96500000Y-70520000D03*
X96500000Y-65480000D03*
X99040000Y-70520000D03*
X99040000Y-65480000D03*
%TD*%
D14*
%TO.C,R2*%
X84000000Y-71150000D03*
X84000000Y-72850000D03*
%TD*%
%TO.C,R1*%
X99800000Y-53450000D03*
X99800000Y-51750000D03*
%TD*%
D15*
%TO.C,U2*%
X87325000Y-71250000D03*
X87325000Y-71750000D03*
X87325000Y-72250000D03*
X87325000Y-72750000D03*
X85475000Y-72750000D03*
X85475000Y-72250000D03*
X85475000Y-71750000D03*
X85475000Y-71250000D03*
D16*
X86400000Y-72000000D03*
%TD*%
D17*
%TO.C,C2*%
X97800000Y-56462500D03*
X97800000Y-58537500D03*
%TD*%
D18*
%TO.C,C4*%
X83937500Y-69300000D03*
X81862500Y-69300000D03*
%TD*%
D19*
%TO.C,C3*%
X90000000Y-72662500D03*
X90000000Y-69537500D03*
%TD*%
M02*
