%TF.GenerationSoftware,KiCad,Pcbnew,7.0.5.1-1-g8f565ef7f0-dirty-deb11*%
%TF.CreationDate,2023-06-03T12:37:27+00:00*%
%TF.ProjectId,pedalboard-led-ring,70656461-6c62-46f6-9172-642d6c65642d,1.0.0*%
%TF.SameCoordinates,Original*%
%TF.FileFunction,Other,User*%
%FSLAX46Y46*%
G04 Gerber Fmt 4.6, Leading zero omitted, Abs format (unit mm)*
G04 Created by KiCad (PCBNEW 7.0.5.1-1-g8f565ef7f0-dirty-deb11) date 2023-06-03 12:37:27*
%MOMM*%
%LPD*%
G01*
G04 APERTURE LIST*
%ADD10C,0.050000*%
G04 APERTURE END LIST*
D10*
%TO.C,C8*%
X71173528Y-66112102D02*
X70293528Y-64587898D01*
X71779746Y-65762102D02*
X71173528Y-66112102D01*
X70293528Y-64587898D02*
X70899746Y-64237898D01*
X70899746Y-64237898D02*
X71779746Y-65762102D01*
%TO.C,D11*%
X84866025Y-66428204D02*
X85866025Y-68160254D01*
X83133975Y-67428204D02*
X84866025Y-66428204D01*
X85866025Y-68160254D02*
X84133975Y-69160254D01*
X84133975Y-69160254D02*
X83133975Y-67428204D01*
%TO.C,D1*%
X88000000Y-59000000D02*
X90000000Y-59000000D01*
X88000000Y-61000000D02*
X88000000Y-59000000D01*
X90000000Y-59000000D02*
X90000000Y-61000000D01*
X90000000Y-61000000D02*
X88000000Y-61000000D01*
%TO.C,D4*%
X79000000Y-52000000D02*
X79000000Y-50000000D01*
X81000000Y-52000000D02*
X79000000Y-52000000D01*
X79000000Y-50000000D02*
X81000000Y-50000000D01*
X81000000Y-50000000D02*
X81000000Y-52000000D01*
%TO.C,D12*%
X87428204Y-63133975D02*
X89160254Y-64133975D01*
X86428204Y-64866025D02*
X87428204Y-63133975D01*
X89160254Y-64133975D02*
X88160254Y-65866025D01*
X88160254Y-65866025D02*
X86428204Y-64866025D01*
%TO.C,D8*%
X73571796Y-64866025D02*
X71839746Y-65866025D01*
X72571796Y-63133975D02*
X73571796Y-64866025D01*
X71839746Y-65866025D02*
X70839746Y-64133975D01*
X70839746Y-64133975D02*
X72571796Y-63133975D01*
%TO.C,H3*%
X70450000Y-48000000D02*
G75*
G03*
X70450000Y-48000000I-2450000J0D01*
G01*
%TO.C,D10*%
X81000000Y-68000000D02*
X81000000Y-70000000D01*
X79000000Y-68000000D02*
X81000000Y-68000000D01*
X81000000Y-70000000D02*
X79000000Y-70000000D01*
X79000000Y-70000000D02*
X79000000Y-68000000D01*
%TO.C,C11*%
X86112102Y-68826472D02*
X84587898Y-69706472D01*
X85762102Y-68220254D02*
X86112102Y-68826472D01*
X84587898Y-69706472D02*
X84237898Y-69100254D01*
X84237898Y-69100254D02*
X85762102Y-68220254D01*
%TO.C,D7*%
X72000000Y-61000000D02*
X70000000Y-61000000D01*
X72000000Y-59000000D02*
X72000000Y-61000000D01*
X70000000Y-61000000D02*
X70000000Y-59000000D01*
X70000000Y-59000000D02*
X72000000Y-59000000D01*
%TO.C,D6*%
X72571796Y-56866025D02*
X70839746Y-55866025D01*
X73571796Y-55133975D02*
X72571796Y-56866025D01*
X70839746Y-55866025D02*
X71839746Y-54133975D01*
X71839746Y-54133975D02*
X73571796Y-55133975D01*
%TO.C,C12*%
X88326891Y-65587102D02*
X89206891Y-64062898D01*
X88933109Y-65937102D02*
X88326891Y-65587102D01*
X89206891Y-64062898D02*
X89813109Y-64412898D01*
X89813109Y-64412898D02*
X88933109Y-65937102D01*
%TO.C,H2*%
X94450000Y-48000000D02*
G75*
G03*
X94450000Y-48000000I-2450000J0D01*
G01*
%TO.C,C6*%
X70293528Y-55412102D02*
X71173528Y-53887898D01*
X70899746Y-55762102D02*
X70293528Y-55412102D01*
X71173528Y-53887898D02*
X71779746Y-54237898D01*
X71779746Y-54237898D02*
X70899746Y-55762102D01*
%TO.C,C9*%
X75412102Y-69706472D02*
X73887898Y-68826472D01*
X75762102Y-69100254D02*
X75412102Y-69706472D01*
X73887898Y-68826472D02*
X74237898Y-68220254D01*
X74237898Y-68220254D02*
X75762102Y-69100254D01*
%TO.C,C7*%
X69300000Y-60880000D02*
X69300000Y-59120000D01*
X70000000Y-60880000D02*
X69300000Y-60880000D01*
X69300000Y-59120000D02*
X70000000Y-59120000D01*
X70000000Y-59120000D02*
X70000000Y-60880000D01*
%TO.C,C10*%
X80880000Y-70700000D02*
X79120000Y-70700000D01*
X80880000Y-70000000D02*
X80880000Y-70700000D01*
X79120000Y-70700000D02*
X79120000Y-70000000D01*
X79120000Y-70000000D02*
X80880000Y-70000000D01*
%TO.C,C3*%
X84587898Y-50293528D02*
X86112102Y-51173528D01*
X84237898Y-50899746D02*
X84587898Y-50293528D01*
X86112102Y-51173528D02*
X85762102Y-51779746D01*
X85762102Y-51779746D02*
X84237898Y-50899746D01*
%TO.C,C2*%
X88826472Y-53887898D02*
X89706472Y-55412102D01*
X88220254Y-54237898D02*
X88826472Y-53887898D01*
X89706472Y-55412102D02*
X89100254Y-55762102D01*
X89100254Y-55762102D02*
X88220254Y-54237898D01*
%TO.C,C5*%
X73887898Y-51173528D02*
X75412102Y-50293528D01*
X74237898Y-51779746D02*
X73887898Y-51173528D01*
X75412102Y-50293528D02*
X75762102Y-50899746D01*
X75762102Y-50899746D02*
X74237898Y-51779746D01*
%TO.C,H1*%
X70450000Y-72000000D02*
G75*
G03*
X70450000Y-72000000I-2450000J0D01*
G01*
%TO.C,D2*%
X86428204Y-55133975D02*
X88160254Y-54133975D01*
X87428204Y-56866025D02*
X86428204Y-55133975D01*
X88160254Y-54133975D02*
X89160254Y-55866025D01*
X89160254Y-55866025D02*
X87428204Y-56866025D01*
%TO.C,C1*%
X90700000Y-59120000D02*
X90700000Y-60880000D01*
X90000000Y-59120000D02*
X90700000Y-59120000D01*
X90700000Y-60880000D02*
X90000000Y-60880000D01*
X90000000Y-60880000D02*
X90000000Y-59120000D01*
%TO.C,D5*%
X75133975Y-53571796D02*
X74133975Y-51839746D01*
X76866025Y-52571796D02*
X75133975Y-53571796D01*
X74133975Y-51839746D02*
X75866025Y-50839746D01*
X75866025Y-50839746D02*
X76866025Y-52571796D01*
%TO.C,D9*%
X76866025Y-67428204D02*
X75866025Y-69160254D01*
X75133975Y-66428204D02*
X76866025Y-67428204D01*
X75866025Y-69160254D02*
X74133975Y-68160254D01*
X74133975Y-68160254D02*
X75133975Y-66428204D01*
%TO.C,D3*%
X83133975Y-52571796D02*
X84133975Y-50839746D01*
X84866025Y-53571796D02*
X83133975Y-52571796D01*
X84133975Y-50839746D02*
X85866025Y-51839746D01*
X85866025Y-51839746D02*
X84866025Y-53571796D01*
%TO.C,R1*%
X89790000Y-62030000D02*
X88030000Y-62030000D01*
X89790000Y-61330000D02*
X89790000Y-62030000D01*
X88030000Y-62030000D02*
X88030000Y-61330000D01*
X88030000Y-61330000D02*
X89790000Y-61330000D01*
%TO.C,C4*%
X79120000Y-49300000D02*
X80880000Y-49300000D01*
X79120000Y-50000000D02*
X79120000Y-49300000D01*
X80880000Y-49300000D02*
X80880000Y-50000000D01*
X80880000Y-50000000D02*
X79120000Y-50000000D01*
%TD*%
M02*
