M48
; DRILL file {KiCad 7.0.5.1-1-g8f565ef7f0-dirty-deb11} date Sat Jun  3 19:15:51 2023
; FORMAT={-:-/ absolute / metric / decimal}
; #@! TF.CreationDate,2023-06-03T19:15:51+00:00
; #@! TF.GenerationSoftware,Kicad,Pcbnew,7.0.5.1-1-g8f565ef7f0-dirty-deb11
; #@! TF.FileFunction,MixedPlating,1,2
FMAT,2
METRIC
; #@! TA.AperFunction,Plated,PTH,ViaDrill
T1C0.400
; #@! TA.AperFunction,NonPlated,NPTH,ComponentDrill
T2C2.200
%
G90
G05
T1
X70.072Y-61.196
X70.804Y-56.072
X72.0Y-66.0
X74.0Y-52.0
X76.072Y-69.196
X78.804Y-50.072
X81.196Y-69.928
X83.0Y-70.0
X83.928Y-50.804
X84.0Y-70.0
X85.0Y-70.0
X86.0Y-69.5
X86.4Y-67.7
X86.8Y-63.6
X87.91Y-61.82
X88.0Y-54.0
X88.26Y-66.02
X89.928Y-58.804
X90.3Y-61.4
X90.3Y-64.9
X91.1Y-61.4
X91.1Y-64.9
T2
X70.0Y-50.0
X70.0Y-70.0
X90.0Y-50.0
T0
M30
