%TF.GenerationSoftware,KiCad,Pcbnew,7.0.5.1-1-g8f565ef7f0-dirty-deb11*%
%TF.CreationDate,2023-06-03T12:37:27+00:00*%
%TF.ProjectId,pedalboard-led-ring,70656461-6c62-46f6-9172-642d6c65642d,1.0.0*%
%TF.SameCoordinates,Original*%
%TF.FileFunction,AssemblyDrawing,Top*%
%FSLAX46Y46*%
G04 Gerber Fmt 4.6, Leading zero omitted, Abs format (unit mm)*
G04 Created by KiCad (PCBNEW 7.0.5.1-1-g8f565ef7f0-dirty-deb11) date 2023-06-03 12:37:27*
%MOMM*%
%LPD*%
G01*
G04 APERTURE LIST*
%ADD10C,0.150000*%
%ADD11C,0.040000*%
%ADD12C,0.050000*%
%ADD13C,0.100000*%
G04 APERTURE END LIST*
D10*
%TO.C,C8*%
X71254460Y-64361918D02*
X70968745Y-63867046D01*
X71111602Y-64114482D02*
X71977628Y-63614482D01*
X71977628Y-63614482D02*
X71806291Y-63603432D01*
X71806291Y-63603432D02*
X71676193Y-63568572D01*
X71676193Y-63568572D02*
X71587335Y-63509903D01*
X72260381Y-64770892D02*
X71683031Y-65104225D01*
X72046096Y-64399738D02*
X71592463Y-64661643D01*
X71592463Y-64661643D02*
X71533794Y-64750501D01*
X71533794Y-64750501D02*
X71540174Y-64856789D01*
X71540174Y-64856789D02*
X71611602Y-64980507D01*
X71611602Y-64980507D02*
X71700461Y-65039176D01*
X71700461Y-65039176D02*
X71765510Y-65056606D01*
X72541425Y-65543389D02*
X72374759Y-65254713D01*
X71921126Y-65516618D02*
X72787152Y-65016618D01*
X72787152Y-65016618D02*
X73025247Y-65429011D01*
D11*
X70349167Y-65523798D02*
X70332905Y-65519441D01*
X70332905Y-65519441D02*
X70304738Y-65494464D01*
X70304738Y-65494464D02*
X70292834Y-65473844D01*
X70292834Y-65473844D02*
X70285286Y-65436962D01*
X70285286Y-65436962D02*
X70294001Y-65404438D01*
X70294001Y-65404438D02*
X70308668Y-65382223D01*
X70308668Y-65382223D02*
X70343955Y-65348104D01*
X70343955Y-65348104D02*
X70374885Y-65330247D01*
X70374885Y-65330247D02*
X70422076Y-65316747D01*
X70422076Y-65316747D02*
X70448649Y-65315152D01*
X70448649Y-65315152D02*
X70481173Y-65323867D01*
X70481173Y-65323867D02*
X70509340Y-65348844D01*
X70509340Y-65348844D02*
X70521245Y-65369464D01*
X70521245Y-65369464D02*
X70528792Y-65406346D01*
X70528792Y-65406346D02*
X70524435Y-65422608D01*
X70523694Y-65587992D02*
X70522099Y-65561420D01*
X70522099Y-65561420D02*
X70526457Y-65545158D01*
X70526457Y-65545158D02*
X70541124Y-65522944D01*
X70541124Y-65522944D02*
X70551434Y-65516991D01*
X70551434Y-65516991D02*
X70578006Y-65515396D01*
X70578006Y-65515396D02*
X70594268Y-65519754D01*
X70594268Y-65519754D02*
X70616483Y-65534421D01*
X70616483Y-65534421D02*
X70640292Y-65575660D01*
X70640292Y-65575660D02*
X70641887Y-65602232D01*
X70641887Y-65602232D02*
X70637530Y-65618494D01*
X70637530Y-65618494D02*
X70622863Y-65640709D01*
X70622863Y-65640709D02*
X70612553Y-65646661D01*
X70612553Y-65646661D02*
X70585981Y-65648256D01*
X70585981Y-65648256D02*
X70569718Y-65643899D01*
X70569718Y-65643899D02*
X70547504Y-65629232D01*
X70547504Y-65629232D02*
X70523694Y-65587992D01*
X70523694Y-65587992D02*
X70501480Y-65573325D01*
X70501480Y-65573325D02*
X70485218Y-65568968D01*
X70485218Y-65568968D02*
X70458646Y-65570563D01*
X70458646Y-65570563D02*
X70417406Y-65594372D01*
X70417406Y-65594372D02*
X70402739Y-65616587D01*
X70402739Y-65616587D02*
X70398381Y-65632849D01*
X70398381Y-65632849D02*
X70399976Y-65659421D01*
X70399976Y-65659421D02*
X70423786Y-65700660D01*
X70423786Y-65700660D02*
X70446001Y-65715328D01*
X70446001Y-65715328D02*
X70462263Y-65719685D01*
X70462263Y-65719685D02*
X70488835Y-65718090D01*
X70488835Y-65718090D02*
X70530074Y-65694281D01*
X70530074Y-65694281D02*
X70544741Y-65672066D01*
X70544741Y-65672066D02*
X70549099Y-65655804D01*
X70549099Y-65655804D02*
X70547504Y-65629232D01*
D10*
%TO.C,D11*%
X80143715Y-64563321D02*
X80173904Y-64710848D01*
X80173904Y-64710848D02*
X80292951Y-64917045D01*
X80292951Y-64917045D02*
X80381810Y-64975714D01*
X80381810Y-64975714D02*
X80446859Y-64993144D01*
X80446859Y-64993144D02*
X80553147Y-64986764D01*
X80553147Y-64986764D02*
X80635625Y-64939145D01*
X80635625Y-64939145D02*
X80694294Y-64850287D01*
X80694294Y-64850287D02*
X80711724Y-64785238D01*
X80711724Y-64785238D02*
X80705344Y-64678950D01*
X80705344Y-64678950D02*
X80651346Y-64490183D01*
X80651346Y-64490183D02*
X80644966Y-64383895D01*
X80644966Y-64383895D02*
X80662396Y-64318846D01*
X80662396Y-64318846D02*
X80721065Y-64229988D01*
X80721065Y-64229988D02*
X80803543Y-64182368D01*
X80803543Y-64182368D02*
X80909832Y-64175989D01*
X80909832Y-64175989D02*
X80974880Y-64193419D01*
X80974880Y-64193419D02*
X81063739Y-64252088D01*
X81063739Y-64252088D02*
X81182786Y-64458284D01*
X81182786Y-64458284D02*
X81212976Y-64605812D01*
X80602475Y-65453156D02*
X81468501Y-64953156D01*
X80888190Y-65948027D02*
X81168776Y-65291159D01*
X81754215Y-65448027D02*
X80973629Y-65238870D01*
X82182786Y-66190335D02*
X82087548Y-66025378D01*
X82087548Y-66025378D02*
X81998690Y-65966709D01*
X81998690Y-65966709D02*
X81933641Y-65949279D01*
X81933641Y-65949279D02*
X81762304Y-65938229D01*
X81762304Y-65938229D02*
X81573537Y-65992228D01*
X81573537Y-65992228D02*
X81243623Y-66182704D01*
X81243623Y-66182704D02*
X81184954Y-66271562D01*
X81184954Y-66271562D02*
X81167524Y-66336611D01*
X81167524Y-66336611D02*
X81173904Y-66442899D01*
X81173904Y-66442899D02*
X81269142Y-66607856D01*
X81269142Y-66607856D02*
X81358000Y-66666525D01*
X81358000Y-66666525D02*
X81423049Y-66683955D01*
X81423049Y-66683955D02*
X81529337Y-66677575D01*
X81529337Y-66677575D02*
X81735534Y-66558528D01*
X81735534Y-66558528D02*
X81794203Y-66469670D01*
X81794203Y-66469670D02*
X81811633Y-66404621D01*
X81811633Y-66404621D02*
X81805253Y-66298333D01*
X81805253Y-66298333D02*
X81710015Y-66133375D01*
X81710015Y-66133375D02*
X81621156Y-66074706D01*
X81621156Y-66074706D02*
X81556108Y-66057276D01*
X81556108Y-66057276D02*
X81449819Y-66063656D01*
X82144966Y-66981971D02*
X82138586Y-66875683D01*
X82138586Y-66875683D02*
X82156016Y-66810634D01*
X82156016Y-66810634D02*
X82214685Y-66721776D01*
X82214685Y-66721776D02*
X82255924Y-66697966D01*
X82255924Y-66697966D02*
X82362213Y-66691586D01*
X82362213Y-66691586D02*
X82427261Y-66709016D01*
X82427261Y-66709016D02*
X82516120Y-66767685D01*
X82516120Y-66767685D02*
X82611358Y-66932642D01*
X82611358Y-66932642D02*
X82617738Y-67038931D01*
X82617738Y-67038931D02*
X82600308Y-67103979D01*
X82600308Y-67103979D02*
X82541639Y-67192838D01*
X82541639Y-67192838D02*
X82500399Y-67216647D01*
X82500399Y-67216647D02*
X82394111Y-67223027D01*
X82394111Y-67223027D02*
X82329062Y-67205597D01*
X82329062Y-67205597D02*
X82240204Y-67146928D01*
X82240204Y-67146928D02*
X82144966Y-66981971D01*
X82144966Y-66981971D02*
X82056108Y-66923302D01*
X82056108Y-66923302D02*
X81991059Y-66905872D01*
X81991059Y-66905872D02*
X81884771Y-66912252D01*
X81884771Y-66912252D02*
X81719813Y-67007490D01*
X81719813Y-67007490D02*
X81661144Y-67096348D01*
X81661144Y-67096348D02*
X81643715Y-67161397D01*
X81643715Y-67161397D02*
X81650094Y-67267685D01*
X81650094Y-67267685D02*
X81745332Y-67432642D01*
X81745332Y-67432642D02*
X81834191Y-67491312D01*
X81834191Y-67491312D02*
X81899240Y-67508741D01*
X81899240Y-67508741D02*
X82005528Y-67502362D01*
X82005528Y-67502362D02*
X82170485Y-67407124D01*
X82170485Y-67407124D02*
X82229154Y-67318265D01*
X82229154Y-67318265D02*
X82246584Y-67253216D01*
X82246584Y-67253216D02*
X82240204Y-67146928D01*
X82316761Y-68422386D02*
X82031047Y-67927514D01*
X82173904Y-68174950D02*
X83039929Y-67674950D01*
X83039929Y-67674950D02*
X82868592Y-67663900D01*
X82868592Y-67663900D02*
X82738495Y-67629040D01*
X82738495Y-67629040D02*
X82649636Y-67570371D01*
X83290784Y-68299919D02*
X83355833Y-68317349D01*
X83355833Y-68317349D02*
X83444691Y-68376018D01*
X83444691Y-68376018D02*
X83563739Y-68582215D01*
X83563739Y-68582215D02*
X83570119Y-68688503D01*
X83570119Y-68688503D02*
X83552689Y-68753552D01*
X83552689Y-68753552D02*
X83494020Y-68842410D01*
X83494020Y-68842410D02*
X83411541Y-68890029D01*
X83411541Y-68890029D02*
X83264014Y-68920218D01*
X83264014Y-68920218D02*
X82483428Y-68711061D01*
X82483428Y-68711061D02*
X82792952Y-69247172D01*
X82805711Y-69459748D02*
X83186663Y-70119577D01*
X83841822Y-70016250D02*
X84008489Y-70304925D01*
X83626285Y-70690548D02*
X83388190Y-70278155D01*
X83388190Y-70278155D02*
X84254215Y-69778155D01*
X84254215Y-69778155D02*
X84492310Y-70190548D01*
X84208764Y-71508954D02*
X84143715Y-71491525D01*
X84143715Y-71491525D02*
X84031047Y-71391616D01*
X84031047Y-71391616D02*
X83983428Y-71309138D01*
X83983428Y-71309138D02*
X83953239Y-71161610D01*
X83953239Y-71161610D02*
X83988098Y-71031512D01*
X83988098Y-71031512D02*
X84046767Y-70942654D01*
X84046767Y-70942654D02*
X84187915Y-70806177D01*
X84187915Y-70806177D02*
X84311633Y-70734748D01*
X84311633Y-70734748D02*
X84500400Y-70680749D01*
X84500400Y-70680749D02*
X84606688Y-70674370D01*
X84606688Y-70674370D02*
X84736785Y-70709229D01*
X84736785Y-70709229D02*
X84849453Y-70809138D01*
X84849453Y-70809138D02*
X84897072Y-70891616D01*
X84897072Y-70891616D02*
X84927262Y-71039144D01*
X84927262Y-71039144D02*
X84909832Y-71104192D01*
X84602476Y-72381359D02*
X84316761Y-71886488D01*
X84459618Y-72133924D02*
X85325644Y-71633924D01*
X85325644Y-71633924D02*
X85154307Y-71622874D01*
X85154307Y-71622874D02*
X85024209Y-71588014D01*
X85024209Y-71588014D02*
X84935351Y-71529345D01*
X85920882Y-72664906D02*
X85682787Y-72252513D01*
X85682787Y-72252513D02*
X85246584Y-72449369D01*
X85246584Y-72449369D02*
X85311633Y-72466799D01*
X85311633Y-72466799D02*
X85400491Y-72525468D01*
X85400491Y-72525468D02*
X85519539Y-72731665D01*
X85519539Y-72731665D02*
X85525919Y-72837953D01*
X85525919Y-72837953D02*
X85508489Y-72903002D01*
X85508489Y-72903002D02*
X85449820Y-72991860D01*
X85449820Y-72991860D02*
X85243623Y-73110908D01*
X85243623Y-73110908D02*
X85137335Y-73117287D01*
X85137335Y-73117287D02*
X85072286Y-73099858D01*
X85072286Y-73099858D02*
X84983428Y-73041188D01*
X84983428Y-73041188D02*
X84864380Y-72834992D01*
X84864380Y-72834992D02*
X84858001Y-72728704D01*
X84858001Y-72728704D02*
X84875430Y-72663655D01*
D12*
X84212416Y-67568492D02*
X84472224Y-67418492D01*
X84472224Y-67418492D02*
X84507938Y-67480351D01*
X84507938Y-67480351D02*
X84516995Y-67524609D01*
X84516995Y-67524609D02*
X84506537Y-67563638D01*
X84506537Y-67563638D02*
X84488937Y-67590296D01*
X84488937Y-67590296D02*
X84446592Y-67631239D01*
X84446592Y-67631239D02*
X84409477Y-67652668D01*
X84409477Y-67652668D02*
X84352847Y-67668867D01*
X84352847Y-67668867D02*
X84320960Y-67670781D01*
X84320960Y-67670781D02*
X84281931Y-67660323D01*
X84281931Y-67660323D02*
X84248131Y-67630351D01*
X84248131Y-67630351D02*
X84212416Y-67568492D01*
X84440988Y-67964389D02*
X84355274Y-67815928D01*
X84398131Y-67890159D02*
X84657938Y-67740159D01*
X84657938Y-67740159D02*
X84606537Y-67736843D01*
X84606537Y-67736843D02*
X84567508Y-67726386D01*
X84567508Y-67726386D02*
X84540851Y-67708785D01*
X84583845Y-68211825D02*
X84498131Y-68063363D01*
X84540988Y-68137594D02*
X84800795Y-67987594D01*
X84800795Y-67987594D02*
X84749394Y-67984279D01*
X84749394Y-67984279D02*
X84710365Y-67973821D01*
X84710365Y-67973821D02*
X84683708Y-67956220D01*
D10*
%TO.C,D1*%
X84023809Y-62157200D02*
X84166666Y-62204819D01*
X84166666Y-62204819D02*
X84404761Y-62204819D01*
X84404761Y-62204819D02*
X84499999Y-62157200D01*
X84499999Y-62157200D02*
X84547618Y-62109580D01*
X84547618Y-62109580D02*
X84595237Y-62014342D01*
X84595237Y-62014342D02*
X84595237Y-61919104D01*
X84595237Y-61919104D02*
X84547618Y-61823866D01*
X84547618Y-61823866D02*
X84499999Y-61776247D01*
X84499999Y-61776247D02*
X84404761Y-61728628D01*
X84404761Y-61728628D02*
X84214285Y-61681009D01*
X84214285Y-61681009D02*
X84119047Y-61633390D01*
X84119047Y-61633390D02*
X84071428Y-61585771D01*
X84071428Y-61585771D02*
X84023809Y-61490533D01*
X84023809Y-61490533D02*
X84023809Y-61395295D01*
X84023809Y-61395295D02*
X84071428Y-61300057D01*
X84071428Y-61300057D02*
X84119047Y-61252438D01*
X84119047Y-61252438D02*
X84214285Y-61204819D01*
X84214285Y-61204819D02*
X84452380Y-61204819D01*
X84452380Y-61204819D02*
X84595237Y-61252438D01*
X85023809Y-62204819D02*
X85023809Y-61204819D01*
X85595237Y-62204819D02*
X85166666Y-61633390D01*
X85595237Y-61204819D02*
X85023809Y-61776247D01*
X86452380Y-61204819D02*
X86261904Y-61204819D01*
X86261904Y-61204819D02*
X86166666Y-61252438D01*
X86166666Y-61252438D02*
X86119047Y-61300057D01*
X86119047Y-61300057D02*
X86023809Y-61442914D01*
X86023809Y-61442914D02*
X85976190Y-61633390D01*
X85976190Y-61633390D02*
X85976190Y-62014342D01*
X85976190Y-62014342D02*
X86023809Y-62109580D01*
X86023809Y-62109580D02*
X86071428Y-62157200D01*
X86071428Y-62157200D02*
X86166666Y-62204819D01*
X86166666Y-62204819D02*
X86357142Y-62204819D01*
X86357142Y-62204819D02*
X86452380Y-62157200D01*
X86452380Y-62157200D02*
X86499999Y-62109580D01*
X86499999Y-62109580D02*
X86547618Y-62014342D01*
X86547618Y-62014342D02*
X86547618Y-61776247D01*
X86547618Y-61776247D02*
X86499999Y-61681009D01*
X86499999Y-61681009D02*
X86452380Y-61633390D01*
X86452380Y-61633390D02*
X86357142Y-61585771D01*
X86357142Y-61585771D02*
X86166666Y-61585771D01*
X86166666Y-61585771D02*
X86071428Y-61633390D01*
X86071428Y-61633390D02*
X86023809Y-61681009D01*
X86023809Y-61681009D02*
X85976190Y-61776247D01*
X87119047Y-61633390D02*
X87023809Y-61585771D01*
X87023809Y-61585771D02*
X86976190Y-61538152D01*
X86976190Y-61538152D02*
X86928571Y-61442914D01*
X86928571Y-61442914D02*
X86928571Y-61395295D01*
X86928571Y-61395295D02*
X86976190Y-61300057D01*
X86976190Y-61300057D02*
X87023809Y-61252438D01*
X87023809Y-61252438D02*
X87119047Y-61204819D01*
X87119047Y-61204819D02*
X87309523Y-61204819D01*
X87309523Y-61204819D02*
X87404761Y-61252438D01*
X87404761Y-61252438D02*
X87452380Y-61300057D01*
X87452380Y-61300057D02*
X87499999Y-61395295D01*
X87499999Y-61395295D02*
X87499999Y-61442914D01*
X87499999Y-61442914D02*
X87452380Y-61538152D01*
X87452380Y-61538152D02*
X87404761Y-61585771D01*
X87404761Y-61585771D02*
X87309523Y-61633390D01*
X87309523Y-61633390D02*
X87119047Y-61633390D01*
X87119047Y-61633390D02*
X87023809Y-61681009D01*
X87023809Y-61681009D02*
X86976190Y-61728628D01*
X86976190Y-61728628D02*
X86928571Y-61823866D01*
X86928571Y-61823866D02*
X86928571Y-62014342D01*
X86928571Y-62014342D02*
X86976190Y-62109580D01*
X86976190Y-62109580D02*
X87023809Y-62157200D01*
X87023809Y-62157200D02*
X87119047Y-62204819D01*
X87119047Y-62204819D02*
X87309523Y-62204819D01*
X87309523Y-62204819D02*
X87404761Y-62157200D01*
X87404761Y-62157200D02*
X87452380Y-62109580D01*
X87452380Y-62109580D02*
X87499999Y-62014342D01*
X87499999Y-62014342D02*
X87499999Y-61823866D01*
X87499999Y-61823866D02*
X87452380Y-61728628D01*
X87452380Y-61728628D02*
X87404761Y-61681009D01*
X87404761Y-61681009D02*
X87309523Y-61633390D01*
X88452380Y-62204819D02*
X87880952Y-62204819D01*
X88166666Y-62204819D02*
X88166666Y-61204819D01*
X88166666Y-61204819D02*
X88071428Y-61347676D01*
X88071428Y-61347676D02*
X87976190Y-61442914D01*
X87976190Y-61442914D02*
X87880952Y-61490533D01*
X88833333Y-61300057D02*
X88880952Y-61252438D01*
X88880952Y-61252438D02*
X88976190Y-61204819D01*
X88976190Y-61204819D02*
X89214285Y-61204819D01*
X89214285Y-61204819D02*
X89309523Y-61252438D01*
X89309523Y-61252438D02*
X89357142Y-61300057D01*
X89357142Y-61300057D02*
X89404761Y-61395295D01*
X89404761Y-61395295D02*
X89404761Y-61490533D01*
X89404761Y-61490533D02*
X89357142Y-61633390D01*
X89357142Y-61633390D02*
X88785714Y-62204819D01*
X88785714Y-62204819D02*
X89404761Y-62204819D01*
X89595238Y-62300057D02*
X90357142Y-62300057D01*
X90595238Y-61681009D02*
X90928571Y-61681009D01*
X91071428Y-62204819D02*
X90595238Y-62204819D01*
X90595238Y-62204819D02*
X90595238Y-61204819D01*
X90595238Y-61204819D02*
X91071428Y-61204819D01*
X92071428Y-62109580D02*
X92023809Y-62157200D01*
X92023809Y-62157200D02*
X91880952Y-62204819D01*
X91880952Y-62204819D02*
X91785714Y-62204819D01*
X91785714Y-62204819D02*
X91642857Y-62157200D01*
X91642857Y-62157200D02*
X91547619Y-62061961D01*
X91547619Y-62061961D02*
X91500000Y-61966723D01*
X91500000Y-61966723D02*
X91452381Y-61776247D01*
X91452381Y-61776247D02*
X91452381Y-61633390D01*
X91452381Y-61633390D02*
X91500000Y-61442914D01*
X91500000Y-61442914D02*
X91547619Y-61347676D01*
X91547619Y-61347676D02*
X91642857Y-61252438D01*
X91642857Y-61252438D02*
X91785714Y-61204819D01*
X91785714Y-61204819D02*
X91880952Y-61204819D01*
X91880952Y-61204819D02*
X92023809Y-61252438D01*
X92023809Y-61252438D02*
X92071428Y-61300057D01*
X93023809Y-62204819D02*
X92452381Y-62204819D01*
X92738095Y-62204819D02*
X92738095Y-61204819D01*
X92738095Y-61204819D02*
X92642857Y-61347676D01*
X92642857Y-61347676D02*
X92547619Y-61442914D01*
X92547619Y-61442914D02*
X92452381Y-61490533D01*
X93928571Y-61204819D02*
X93452381Y-61204819D01*
X93452381Y-61204819D02*
X93404762Y-61681009D01*
X93404762Y-61681009D02*
X93452381Y-61633390D01*
X93452381Y-61633390D02*
X93547619Y-61585771D01*
X93547619Y-61585771D02*
X93785714Y-61585771D01*
X93785714Y-61585771D02*
X93880952Y-61633390D01*
X93880952Y-61633390D02*
X93928571Y-61681009D01*
X93928571Y-61681009D02*
X93976190Y-61776247D01*
X93976190Y-61776247D02*
X93976190Y-62014342D01*
X93976190Y-62014342D02*
X93928571Y-62109580D01*
X93928571Y-62109580D02*
X93880952Y-62157200D01*
X93880952Y-62157200D02*
X93785714Y-62204819D01*
X93785714Y-62204819D02*
X93547619Y-62204819D01*
X93547619Y-62204819D02*
X93452381Y-62157200D01*
X93452381Y-62157200D02*
X93404762Y-62109580D01*
D12*
X88803571Y-60136185D02*
X88803571Y-59836185D01*
X88803571Y-59836185D02*
X88875000Y-59836185D01*
X88875000Y-59836185D02*
X88917857Y-59850471D01*
X88917857Y-59850471D02*
X88946428Y-59879042D01*
X88946428Y-59879042D02*
X88960714Y-59907614D01*
X88960714Y-59907614D02*
X88975000Y-59964757D01*
X88975000Y-59964757D02*
X88975000Y-60007614D01*
X88975000Y-60007614D02*
X88960714Y-60064757D01*
X88960714Y-60064757D02*
X88946428Y-60093328D01*
X88946428Y-60093328D02*
X88917857Y-60121900D01*
X88917857Y-60121900D02*
X88875000Y-60136185D01*
X88875000Y-60136185D02*
X88803571Y-60136185D01*
X89260714Y-60136185D02*
X89089285Y-60136185D01*
X89175000Y-60136185D02*
X89175000Y-59836185D01*
X89175000Y-59836185D02*
X89146428Y-59879042D01*
X89146428Y-59879042D02*
X89117857Y-59907614D01*
X89117857Y-59907614D02*
X89089285Y-59921900D01*
D10*
%TO.C,D4*%
X82157200Y-55976190D02*
X82204819Y-55833333D01*
X82204819Y-55833333D02*
X82204819Y-55595238D01*
X82204819Y-55595238D02*
X82157200Y-55500000D01*
X82157200Y-55500000D02*
X82109580Y-55452381D01*
X82109580Y-55452381D02*
X82014342Y-55404762D01*
X82014342Y-55404762D02*
X81919104Y-55404762D01*
X81919104Y-55404762D02*
X81823866Y-55452381D01*
X81823866Y-55452381D02*
X81776247Y-55500000D01*
X81776247Y-55500000D02*
X81728628Y-55595238D01*
X81728628Y-55595238D02*
X81681009Y-55785714D01*
X81681009Y-55785714D02*
X81633390Y-55880952D01*
X81633390Y-55880952D02*
X81585771Y-55928571D01*
X81585771Y-55928571D02*
X81490533Y-55976190D01*
X81490533Y-55976190D02*
X81395295Y-55976190D01*
X81395295Y-55976190D02*
X81300057Y-55928571D01*
X81300057Y-55928571D02*
X81252438Y-55880952D01*
X81252438Y-55880952D02*
X81204819Y-55785714D01*
X81204819Y-55785714D02*
X81204819Y-55547619D01*
X81204819Y-55547619D02*
X81252438Y-55404762D01*
X82204819Y-54976190D02*
X81204819Y-54976190D01*
X82204819Y-54404762D02*
X81633390Y-54833333D01*
X81204819Y-54404762D02*
X81776247Y-54976190D01*
X81204819Y-53547619D02*
X81204819Y-53738095D01*
X81204819Y-53738095D02*
X81252438Y-53833333D01*
X81252438Y-53833333D02*
X81300057Y-53880952D01*
X81300057Y-53880952D02*
X81442914Y-53976190D01*
X81442914Y-53976190D02*
X81633390Y-54023809D01*
X81633390Y-54023809D02*
X82014342Y-54023809D01*
X82014342Y-54023809D02*
X82109580Y-53976190D01*
X82109580Y-53976190D02*
X82157200Y-53928571D01*
X82157200Y-53928571D02*
X82204819Y-53833333D01*
X82204819Y-53833333D02*
X82204819Y-53642857D01*
X82204819Y-53642857D02*
X82157200Y-53547619D01*
X82157200Y-53547619D02*
X82109580Y-53500000D01*
X82109580Y-53500000D02*
X82014342Y-53452381D01*
X82014342Y-53452381D02*
X81776247Y-53452381D01*
X81776247Y-53452381D02*
X81681009Y-53500000D01*
X81681009Y-53500000D02*
X81633390Y-53547619D01*
X81633390Y-53547619D02*
X81585771Y-53642857D01*
X81585771Y-53642857D02*
X81585771Y-53833333D01*
X81585771Y-53833333D02*
X81633390Y-53928571D01*
X81633390Y-53928571D02*
X81681009Y-53976190D01*
X81681009Y-53976190D02*
X81776247Y-54023809D01*
X81633390Y-52880952D02*
X81585771Y-52976190D01*
X81585771Y-52976190D02*
X81538152Y-53023809D01*
X81538152Y-53023809D02*
X81442914Y-53071428D01*
X81442914Y-53071428D02*
X81395295Y-53071428D01*
X81395295Y-53071428D02*
X81300057Y-53023809D01*
X81300057Y-53023809D02*
X81252438Y-52976190D01*
X81252438Y-52976190D02*
X81204819Y-52880952D01*
X81204819Y-52880952D02*
X81204819Y-52690476D01*
X81204819Y-52690476D02*
X81252438Y-52595238D01*
X81252438Y-52595238D02*
X81300057Y-52547619D01*
X81300057Y-52547619D02*
X81395295Y-52500000D01*
X81395295Y-52500000D02*
X81442914Y-52500000D01*
X81442914Y-52500000D02*
X81538152Y-52547619D01*
X81538152Y-52547619D02*
X81585771Y-52595238D01*
X81585771Y-52595238D02*
X81633390Y-52690476D01*
X81633390Y-52690476D02*
X81633390Y-52880952D01*
X81633390Y-52880952D02*
X81681009Y-52976190D01*
X81681009Y-52976190D02*
X81728628Y-53023809D01*
X81728628Y-53023809D02*
X81823866Y-53071428D01*
X81823866Y-53071428D02*
X82014342Y-53071428D01*
X82014342Y-53071428D02*
X82109580Y-53023809D01*
X82109580Y-53023809D02*
X82157200Y-52976190D01*
X82157200Y-52976190D02*
X82204819Y-52880952D01*
X82204819Y-52880952D02*
X82204819Y-52690476D01*
X82204819Y-52690476D02*
X82157200Y-52595238D01*
X82157200Y-52595238D02*
X82109580Y-52547619D01*
X82109580Y-52547619D02*
X82014342Y-52500000D01*
X82014342Y-52500000D02*
X81823866Y-52500000D01*
X81823866Y-52500000D02*
X81728628Y-52547619D01*
X81728628Y-52547619D02*
X81681009Y-52595238D01*
X81681009Y-52595238D02*
X81633390Y-52690476D01*
X82204819Y-51547619D02*
X82204819Y-52119047D01*
X82204819Y-51833333D02*
X81204819Y-51833333D01*
X81204819Y-51833333D02*
X81347676Y-51928571D01*
X81347676Y-51928571D02*
X81442914Y-52023809D01*
X81442914Y-52023809D02*
X81490533Y-52119047D01*
X81300057Y-51166666D02*
X81252438Y-51119047D01*
X81252438Y-51119047D02*
X81204819Y-51023809D01*
X81204819Y-51023809D02*
X81204819Y-50785714D01*
X81204819Y-50785714D02*
X81252438Y-50690476D01*
X81252438Y-50690476D02*
X81300057Y-50642857D01*
X81300057Y-50642857D02*
X81395295Y-50595238D01*
X81395295Y-50595238D02*
X81490533Y-50595238D01*
X81490533Y-50595238D02*
X81633390Y-50642857D01*
X81633390Y-50642857D02*
X82204819Y-51214285D01*
X82204819Y-51214285D02*
X82204819Y-50595238D01*
X82300057Y-50404762D02*
X82300057Y-49642857D01*
X81681009Y-49404761D02*
X81681009Y-49071428D01*
X82204819Y-48928571D02*
X82204819Y-49404761D01*
X82204819Y-49404761D02*
X81204819Y-49404761D01*
X81204819Y-49404761D02*
X81204819Y-48928571D01*
X82109580Y-47928571D02*
X82157200Y-47976190D01*
X82157200Y-47976190D02*
X82204819Y-48119047D01*
X82204819Y-48119047D02*
X82204819Y-48214285D01*
X82204819Y-48214285D02*
X82157200Y-48357142D01*
X82157200Y-48357142D02*
X82061961Y-48452380D01*
X82061961Y-48452380D02*
X81966723Y-48499999D01*
X81966723Y-48499999D02*
X81776247Y-48547618D01*
X81776247Y-48547618D02*
X81633390Y-48547618D01*
X81633390Y-48547618D02*
X81442914Y-48499999D01*
X81442914Y-48499999D02*
X81347676Y-48452380D01*
X81347676Y-48452380D02*
X81252438Y-48357142D01*
X81252438Y-48357142D02*
X81204819Y-48214285D01*
X81204819Y-48214285D02*
X81204819Y-48119047D01*
X81204819Y-48119047D02*
X81252438Y-47976190D01*
X81252438Y-47976190D02*
X81300057Y-47928571D01*
X82204819Y-46976190D02*
X82204819Y-47547618D01*
X82204819Y-47261904D02*
X81204819Y-47261904D01*
X81204819Y-47261904D02*
X81347676Y-47357142D01*
X81347676Y-47357142D02*
X81442914Y-47452380D01*
X81442914Y-47452380D02*
X81490533Y-47547618D01*
X81204819Y-46071428D02*
X81204819Y-46547618D01*
X81204819Y-46547618D02*
X81681009Y-46595237D01*
X81681009Y-46595237D02*
X81633390Y-46547618D01*
X81633390Y-46547618D02*
X81585771Y-46452380D01*
X81585771Y-46452380D02*
X81585771Y-46214285D01*
X81585771Y-46214285D02*
X81633390Y-46119047D01*
X81633390Y-46119047D02*
X81681009Y-46071428D01*
X81681009Y-46071428D02*
X81776247Y-46023809D01*
X81776247Y-46023809D02*
X82014342Y-46023809D01*
X82014342Y-46023809D02*
X82109580Y-46071428D01*
X82109580Y-46071428D02*
X82157200Y-46119047D01*
X82157200Y-46119047D02*
X82204819Y-46214285D01*
X82204819Y-46214285D02*
X82204819Y-46452380D01*
X82204819Y-46452380D02*
X82157200Y-46547618D01*
X82157200Y-46547618D02*
X82109580Y-46595237D01*
D12*
X80136185Y-51196428D02*
X79836185Y-51196428D01*
X79836185Y-51196428D02*
X79836185Y-51124999D01*
X79836185Y-51124999D02*
X79850471Y-51082142D01*
X79850471Y-51082142D02*
X79879042Y-51053571D01*
X79879042Y-51053571D02*
X79907614Y-51039285D01*
X79907614Y-51039285D02*
X79964757Y-51024999D01*
X79964757Y-51024999D02*
X80007614Y-51024999D01*
X80007614Y-51024999D02*
X80064757Y-51039285D01*
X80064757Y-51039285D02*
X80093328Y-51053571D01*
X80093328Y-51053571D02*
X80121900Y-51082142D01*
X80121900Y-51082142D02*
X80136185Y-51124999D01*
X80136185Y-51124999D02*
X80136185Y-51196428D01*
X79936185Y-50767857D02*
X80136185Y-50767857D01*
X79821900Y-50839285D02*
X80036185Y-50910714D01*
X80036185Y-50910714D02*
X80036185Y-50724999D01*
D10*
%TO.C,D12*%
X82406121Y-63880094D02*
X82506029Y-63992762D01*
X82506029Y-63992762D02*
X82712226Y-64111809D01*
X82712226Y-64111809D02*
X82818514Y-64118189D01*
X82818514Y-64118189D02*
X82883563Y-64100759D01*
X82883563Y-64100759D02*
X82972421Y-64042090D01*
X82972421Y-64042090D02*
X83020040Y-63959611D01*
X83020040Y-63959611D02*
X83026420Y-63853323D01*
X83026420Y-63853323D02*
X83008990Y-63788274D01*
X83008990Y-63788274D02*
X82950321Y-63699416D01*
X82950321Y-63699416D02*
X82809173Y-63562939D01*
X82809173Y-63562939D02*
X82750504Y-63474080D01*
X82750504Y-63474080D02*
X82733074Y-63409032D01*
X82733074Y-63409032D02*
X82739454Y-63302743D01*
X82739454Y-63302743D02*
X82787073Y-63220265D01*
X82787073Y-63220265D02*
X82875932Y-63161596D01*
X82875932Y-63161596D02*
X82940980Y-63144166D01*
X82940980Y-63144166D02*
X83047269Y-63150546D01*
X83047269Y-63150546D02*
X83253465Y-63269593D01*
X83253465Y-63269593D02*
X83353373Y-63382261D01*
X83248337Y-64421333D02*
X83748337Y-63555308D01*
X83743208Y-64707047D02*
X83657769Y-63997890D01*
X84243208Y-63841022D02*
X83462622Y-64050179D01*
X84985516Y-64269593D02*
X84820559Y-64174355D01*
X84820559Y-64174355D02*
X84714271Y-64167975D01*
X84714271Y-64167975D02*
X84649222Y-64185405D01*
X84649222Y-64185405D02*
X84495315Y-64261504D01*
X84495315Y-64261504D02*
X84358837Y-64402652D01*
X84358837Y-64402652D02*
X84168361Y-64732566D01*
X84168361Y-64732566D02*
X84161981Y-64838854D01*
X84161981Y-64838854D02*
X84179411Y-64903903D01*
X84179411Y-64903903D02*
X84238080Y-64992762D01*
X84238080Y-64992762D02*
X84403037Y-65088000D01*
X84403037Y-65088000D02*
X84509325Y-65094379D01*
X84509325Y-65094379D02*
X84574374Y-65076950D01*
X84574374Y-65076950D02*
X84663233Y-65018281D01*
X84663233Y-65018281D02*
X84782280Y-64812084D01*
X84782280Y-64812084D02*
X84788660Y-64705796D01*
X84788660Y-64705796D02*
X84771230Y-64640747D01*
X84771230Y-64640747D02*
X84712561Y-64551889D01*
X84712561Y-64551889D02*
X84547604Y-64456651D01*
X84547604Y-64456651D02*
X84441316Y-64450271D01*
X84441316Y-64450271D02*
X84376267Y-64467701D01*
X84376267Y-64467701D02*
X84287409Y-64526370D01*
X85348581Y-64974080D02*
X85289911Y-64885222D01*
X85289911Y-64885222D02*
X85272482Y-64820173D01*
X85272482Y-64820173D02*
X85278861Y-64713885D01*
X85278861Y-64713885D02*
X85302671Y-64672646D01*
X85302671Y-64672646D02*
X85391529Y-64613977D01*
X85391529Y-64613977D02*
X85456578Y-64596547D01*
X85456578Y-64596547D02*
X85562866Y-64602927D01*
X85562866Y-64602927D02*
X85727823Y-64698165D01*
X85727823Y-64698165D02*
X85786493Y-64787023D01*
X85786493Y-64787023D02*
X85803922Y-64852072D01*
X85803922Y-64852072D02*
X85797543Y-64958360D01*
X85797543Y-64958360D02*
X85773733Y-64999599D01*
X85773733Y-64999599D02*
X85684875Y-65058268D01*
X85684875Y-65058268D02*
X85619826Y-65075698D01*
X85619826Y-65075698D02*
X85513538Y-65069318D01*
X85513538Y-65069318D02*
X85348581Y-64974080D01*
X85348581Y-64974080D02*
X85242292Y-64967701D01*
X85242292Y-64967701D02*
X85177244Y-64985130D01*
X85177244Y-64985130D02*
X85088385Y-65043800D01*
X85088385Y-65043800D02*
X84993147Y-65208757D01*
X84993147Y-65208757D02*
X84986767Y-65315045D01*
X84986767Y-65315045D02*
X85004197Y-65380094D01*
X85004197Y-65380094D02*
X85062866Y-65468952D01*
X85062866Y-65468952D02*
X85227823Y-65564190D01*
X85227823Y-65564190D02*
X85334112Y-65570570D01*
X85334112Y-65570570D02*
X85399160Y-65553140D01*
X85399160Y-65553140D02*
X85488019Y-65494471D01*
X85488019Y-65494471D02*
X85583257Y-65329514D01*
X85583257Y-65329514D02*
X85589637Y-65223226D01*
X85589637Y-65223226D02*
X85572207Y-65158177D01*
X85572207Y-65158177D02*
X85513538Y-65069318D01*
X86217567Y-66135619D02*
X85722695Y-65849904D01*
X85970131Y-65992762D02*
X86470131Y-65126736D01*
X86470131Y-65126736D02*
X86316224Y-65202835D01*
X86316224Y-65202835D02*
X86186126Y-65237695D01*
X86186126Y-65237695D02*
X86079838Y-65231315D01*
X86999862Y-65542548D02*
X87064911Y-65525118D01*
X87064911Y-65525118D02*
X87171199Y-65531498D01*
X87171199Y-65531498D02*
X87377396Y-65650546D01*
X87377396Y-65650546D02*
X87436065Y-65739404D01*
X87436065Y-65739404D02*
X87453495Y-65804453D01*
X87453495Y-65804453D02*
X87447115Y-65910741D01*
X87447115Y-65910741D02*
X87399496Y-65993220D01*
X87399496Y-65993220D02*
X87286828Y-66093128D01*
X87286828Y-66093128D02*
X86506242Y-66302285D01*
X86506242Y-66302285D02*
X87042353Y-66611809D01*
X87159691Y-66789526D02*
X87819520Y-67170478D01*
X88335241Y-66753415D02*
X88623916Y-66920082D01*
X88485729Y-67445143D02*
X88073336Y-67207047D01*
X88073336Y-67207047D02*
X88573336Y-66341022D01*
X88573336Y-66341022D02*
X88985729Y-66579117D01*
X89399373Y-67862664D02*
X89334325Y-67880094D01*
X89334325Y-67880094D02*
X89186797Y-67849905D01*
X89186797Y-67849905D02*
X89104319Y-67802286D01*
X89104319Y-67802286D02*
X89004410Y-67689618D01*
X89004410Y-67689618D02*
X88969551Y-67559520D01*
X88969551Y-67559520D02*
X88975930Y-67453232D01*
X88975930Y-67453232D02*
X89029929Y-67264465D01*
X89029929Y-67264465D02*
X89101358Y-67140747D01*
X89101358Y-67140747D02*
X89237835Y-66999600D01*
X89237835Y-66999600D02*
X89326693Y-66940931D01*
X89326693Y-66940931D02*
X89456791Y-66906071D01*
X89456791Y-66906071D02*
X89604319Y-66936260D01*
X89604319Y-66936260D02*
X89686797Y-66983879D01*
X89686797Y-66983879D02*
X89786706Y-67096547D01*
X89786706Y-67096547D02*
X89804135Y-67161596D01*
X90176540Y-68421333D02*
X89681669Y-68135619D01*
X89929105Y-68278476D02*
X90429105Y-67412451D01*
X90429105Y-67412451D02*
X90275197Y-67488550D01*
X90275197Y-67488550D02*
X90145100Y-67523409D01*
X90145100Y-67523409D02*
X90038812Y-67517029D01*
X91460087Y-68007689D02*
X91047694Y-67769594D01*
X91047694Y-67769594D02*
X90768360Y-68158177D01*
X90768360Y-68158177D02*
X90833409Y-68140747D01*
X90833409Y-68140747D02*
X90939697Y-68147127D01*
X90939697Y-68147127D02*
X91145893Y-68266175D01*
X91145893Y-68266175D02*
X91204562Y-68355033D01*
X91204562Y-68355033D02*
X91221992Y-68420082D01*
X91221992Y-68420082D02*
X91215612Y-68526370D01*
X91215612Y-68526370D02*
X91096565Y-68732567D01*
X91096565Y-68732567D02*
X91007706Y-68791236D01*
X91007706Y-68791236D02*
X90942658Y-68808665D01*
X90942658Y-68808665D02*
X90836369Y-68802286D01*
X90836369Y-68802286D02*
X90630173Y-68683238D01*
X90630173Y-68683238D02*
X90571504Y-68594380D01*
X90571504Y-68594380D02*
X90554074Y-68529331D01*
D12*
X87432306Y-64448297D02*
X87582306Y-64188489D01*
X87582306Y-64188489D02*
X87644165Y-64224204D01*
X87644165Y-64224204D02*
X87674138Y-64258004D01*
X87674138Y-64258004D02*
X87684596Y-64297033D01*
X87684596Y-64297033D02*
X87682682Y-64328920D01*
X87682682Y-64328920D02*
X87666482Y-64385550D01*
X87666482Y-64385550D02*
X87645053Y-64422665D01*
X87645053Y-64422665D02*
X87604110Y-64465010D01*
X87604110Y-64465010D02*
X87577453Y-64482610D01*
X87577453Y-64482610D02*
X87538423Y-64493068D01*
X87538423Y-64493068D02*
X87494165Y-64484011D01*
X87494165Y-64484011D02*
X87432306Y-64448297D01*
X87828204Y-64676869D02*
X87679742Y-64591154D01*
X87753973Y-64634011D02*
X87903973Y-64374204D01*
X87903973Y-64374204D02*
X87857801Y-64397033D01*
X87857801Y-64397033D02*
X87818771Y-64407491D01*
X87818771Y-64407491D02*
X87786885Y-64405577D01*
X88062892Y-64498947D02*
X88082407Y-64493718D01*
X88082407Y-64493718D02*
X88114293Y-64495632D01*
X88114293Y-64495632D02*
X88176152Y-64531346D01*
X88176152Y-64531346D02*
X88193753Y-64558004D01*
X88193753Y-64558004D02*
X88198982Y-64577519D01*
X88198982Y-64577519D02*
X88197068Y-64609405D01*
X88197068Y-64609405D02*
X88182782Y-64634149D01*
X88182782Y-64634149D02*
X88148982Y-64664121D01*
X88148982Y-64664121D02*
X87914806Y-64726868D01*
X87914806Y-64726868D02*
X88075639Y-64819726D01*
D10*
%TO.C,D8*%
X67224863Y-65825196D02*
X67372390Y-65795007D01*
X67372390Y-65795007D02*
X67578587Y-65675960D01*
X67578587Y-65675960D02*
X67637256Y-65587101D01*
X67637256Y-65587101D02*
X67654686Y-65522052D01*
X67654686Y-65522052D02*
X67648306Y-65415764D01*
X67648306Y-65415764D02*
X67600687Y-65333286D01*
X67600687Y-65333286D02*
X67511829Y-65274617D01*
X67511829Y-65274617D02*
X67446780Y-65257187D01*
X67446780Y-65257187D02*
X67340492Y-65263567D01*
X67340492Y-65263567D02*
X67151725Y-65317565D01*
X67151725Y-65317565D02*
X67045437Y-65323945D01*
X67045437Y-65323945D02*
X66980388Y-65306515D01*
X66980388Y-65306515D02*
X66891530Y-65247846D01*
X66891530Y-65247846D02*
X66843910Y-65165368D01*
X66843910Y-65165368D02*
X66837531Y-65059079D01*
X66837531Y-65059079D02*
X66854961Y-64994031D01*
X66854961Y-64994031D02*
X66913630Y-64905172D01*
X66913630Y-64905172D02*
X67119826Y-64786125D01*
X67119826Y-64786125D02*
X67267354Y-64755935D01*
X68114698Y-65366436D02*
X67614698Y-64500410D01*
X68609569Y-65080721D02*
X67952701Y-64800135D01*
X68109569Y-64214696D02*
X67900412Y-64995282D01*
X68851877Y-63786125D02*
X68686920Y-63881363D01*
X68686920Y-63881363D02*
X68628251Y-63970221D01*
X68628251Y-63970221D02*
X68610821Y-64035270D01*
X68610821Y-64035270D02*
X68599771Y-64206607D01*
X68599771Y-64206607D02*
X68653770Y-64395374D01*
X68653770Y-64395374D02*
X68844246Y-64725288D01*
X68844246Y-64725288D02*
X68933104Y-64783957D01*
X68933104Y-64783957D02*
X68998153Y-64801387D01*
X68998153Y-64801387D02*
X69104441Y-64795007D01*
X69104441Y-64795007D02*
X69269398Y-64699769D01*
X69269398Y-64699769D02*
X69328067Y-64610911D01*
X69328067Y-64610911D02*
X69345497Y-64545862D01*
X69345497Y-64545862D02*
X69339117Y-64439574D01*
X69339117Y-64439574D02*
X69220070Y-64233377D01*
X69220070Y-64233377D02*
X69131212Y-64174708D01*
X69131212Y-64174708D02*
X69066163Y-64157278D01*
X69066163Y-64157278D02*
X68959875Y-64163658D01*
X68959875Y-64163658D02*
X68794917Y-64258896D01*
X68794917Y-64258896D02*
X68736248Y-64347755D01*
X68736248Y-64347755D02*
X68718818Y-64412803D01*
X68718818Y-64412803D02*
X68725198Y-64519092D01*
X69643513Y-63823945D02*
X69537225Y-63830325D01*
X69537225Y-63830325D02*
X69472176Y-63812895D01*
X69472176Y-63812895D02*
X69383318Y-63754226D01*
X69383318Y-63754226D02*
X69359508Y-63712987D01*
X69359508Y-63712987D02*
X69353128Y-63606698D01*
X69353128Y-63606698D02*
X69370558Y-63541650D01*
X69370558Y-63541650D02*
X69429227Y-63452791D01*
X69429227Y-63452791D02*
X69594184Y-63357553D01*
X69594184Y-63357553D02*
X69700473Y-63351173D01*
X69700473Y-63351173D02*
X69765521Y-63368603D01*
X69765521Y-63368603D02*
X69854380Y-63427272D01*
X69854380Y-63427272D02*
X69878189Y-63468512D01*
X69878189Y-63468512D02*
X69884569Y-63574800D01*
X69884569Y-63574800D02*
X69867139Y-63639849D01*
X69867139Y-63639849D02*
X69808470Y-63728707D01*
X69808470Y-63728707D02*
X69643513Y-63823945D01*
X69643513Y-63823945D02*
X69584844Y-63912803D01*
X69584844Y-63912803D02*
X69567414Y-63977852D01*
X69567414Y-63977852D02*
X69573794Y-64084140D01*
X69573794Y-64084140D02*
X69669032Y-64249098D01*
X69669032Y-64249098D02*
X69757890Y-64307767D01*
X69757890Y-64307767D02*
X69822939Y-64325196D01*
X69822939Y-64325196D02*
X69929227Y-64318817D01*
X69929227Y-64318817D02*
X70094184Y-64223579D01*
X70094184Y-64223579D02*
X70152854Y-64134720D01*
X70152854Y-64134720D02*
X70170283Y-64069671D01*
X70170283Y-64069671D02*
X70163904Y-63963383D01*
X70163904Y-63963383D02*
X70068666Y-63798426D01*
X70068666Y-63798426D02*
X69979807Y-63739757D01*
X69979807Y-63739757D02*
X69914758Y-63722327D01*
X69914758Y-63722327D02*
X69808470Y-63728707D01*
X71083928Y-63652150D02*
X70589056Y-63937864D01*
X70836492Y-63795007D02*
X70336492Y-62928982D01*
X70336492Y-62928982D02*
X70325442Y-63100319D01*
X70325442Y-63100319D02*
X70290582Y-63230416D01*
X70290582Y-63230416D02*
X70231913Y-63319275D01*
X70961461Y-62678127D02*
X70978891Y-62613078D01*
X70978891Y-62613078D02*
X71037560Y-62524220D01*
X71037560Y-62524220D02*
X71243757Y-62405172D01*
X71243757Y-62405172D02*
X71350045Y-62398792D01*
X71350045Y-62398792D02*
X71415094Y-62416222D01*
X71415094Y-62416222D02*
X71503952Y-62474891D01*
X71503952Y-62474891D02*
X71551571Y-62557370D01*
X71551571Y-62557370D02*
X71581760Y-62704897D01*
X71581760Y-62704897D02*
X71372603Y-63485483D01*
X71372603Y-63485483D02*
X71908714Y-63175959D01*
X72121290Y-63163200D02*
X72781119Y-62782248D01*
X72677792Y-62127089D02*
X72966467Y-61960422D01*
X73352090Y-62342626D02*
X72939697Y-62580721D01*
X72939697Y-62580721D02*
X72439697Y-61714696D01*
X72439697Y-61714696D02*
X72852090Y-61476601D01*
X74170496Y-61760147D02*
X74153067Y-61825196D01*
X74153067Y-61825196D02*
X74053158Y-61937864D01*
X74053158Y-61937864D02*
X73970680Y-61985483D01*
X73970680Y-61985483D02*
X73823152Y-62015672D01*
X73823152Y-62015672D02*
X73693054Y-61980813D01*
X73693054Y-61980813D02*
X73604196Y-61922144D01*
X73604196Y-61922144D02*
X73467719Y-61780996D01*
X73467719Y-61780996D02*
X73396290Y-61657278D01*
X73396290Y-61657278D02*
X73342291Y-61468511D01*
X73342291Y-61468511D02*
X73335912Y-61362223D01*
X73335912Y-61362223D02*
X73370771Y-61232126D01*
X73370771Y-61232126D02*
X73470680Y-61119458D01*
X73470680Y-61119458D02*
X73553158Y-61071839D01*
X73553158Y-61071839D02*
X73700686Y-61041649D01*
X73700686Y-61041649D02*
X73765734Y-61059079D01*
X75042901Y-61366435D02*
X74548030Y-61652150D01*
X74795466Y-61509293D02*
X74295466Y-60643267D01*
X74295466Y-60643267D02*
X74284416Y-60814604D01*
X74284416Y-60814604D02*
X74249556Y-60944702D01*
X74249556Y-60944702D02*
X74190887Y-61033560D01*
X75326448Y-60048029D02*
X74914055Y-60286124D01*
X74914055Y-60286124D02*
X75110911Y-60722327D01*
X75110911Y-60722327D02*
X75128341Y-60657278D01*
X75128341Y-60657278D02*
X75187010Y-60568420D01*
X75187010Y-60568420D02*
X75393207Y-60449372D01*
X75393207Y-60449372D02*
X75499495Y-60442992D01*
X75499495Y-60442992D02*
X75564544Y-60460422D01*
X75564544Y-60460422D02*
X75653402Y-60519091D01*
X75653402Y-60519091D02*
X75772450Y-60725288D01*
X75772450Y-60725288D02*
X75778829Y-60831576D01*
X75778829Y-60831576D02*
X75761400Y-60896625D01*
X75761400Y-60896625D02*
X75702730Y-60985483D01*
X75702730Y-60985483D02*
X75496534Y-61104531D01*
X75496534Y-61104531D02*
X75390246Y-61110910D01*
X75390246Y-61110910D02*
X75325197Y-61093481D01*
D12*
X72060450Y-64741154D02*
X71910450Y-64481346D01*
X71910450Y-64481346D02*
X71972309Y-64445632D01*
X71972309Y-64445632D02*
X72016567Y-64436575D01*
X72016567Y-64436575D02*
X72055596Y-64447033D01*
X72055596Y-64447033D02*
X72082254Y-64464634D01*
X72082254Y-64464634D02*
X72123197Y-64506978D01*
X72123197Y-64506978D02*
X72144625Y-64544094D01*
X72144625Y-64544094D02*
X72160825Y-64600724D01*
X72160825Y-64600724D02*
X72162739Y-64632610D01*
X72162739Y-64632610D02*
X72152281Y-64671639D01*
X72152281Y-64671639D02*
X72122309Y-64705440D01*
X72122309Y-64705440D02*
X72060450Y-64741154D01*
X72271658Y-64421264D02*
X72239772Y-64423178D01*
X72239772Y-64423178D02*
X72220257Y-64417949D01*
X72220257Y-64417949D02*
X72193600Y-64400348D01*
X72193600Y-64400348D02*
X72186457Y-64387976D01*
X72186457Y-64387976D02*
X72184543Y-64356090D01*
X72184543Y-64356090D02*
X72189772Y-64336575D01*
X72189772Y-64336575D02*
X72207373Y-64309918D01*
X72207373Y-64309918D02*
X72256860Y-64281346D01*
X72256860Y-64281346D02*
X72288746Y-64279432D01*
X72288746Y-64279432D02*
X72308261Y-64284661D01*
X72308261Y-64284661D02*
X72334918Y-64302262D01*
X72334918Y-64302262D02*
X72342061Y-64314634D01*
X72342061Y-64314634D02*
X72343975Y-64346520D01*
X72343975Y-64346520D02*
X72338746Y-64366035D01*
X72338746Y-64366035D02*
X72321146Y-64392693D01*
X72321146Y-64392693D02*
X72271658Y-64421264D01*
X72271658Y-64421264D02*
X72254058Y-64447921D01*
X72254058Y-64447921D02*
X72248829Y-64467436D01*
X72248829Y-64467436D02*
X72250743Y-64499323D01*
X72250743Y-64499323D02*
X72279314Y-64548810D01*
X72279314Y-64548810D02*
X72305972Y-64566410D01*
X72305972Y-64566410D02*
X72325486Y-64571639D01*
X72325486Y-64571639D02*
X72357373Y-64569725D01*
X72357373Y-64569725D02*
X72406860Y-64541154D01*
X72406860Y-64541154D02*
X72424461Y-64514496D01*
X72424461Y-64514496D02*
X72429690Y-64494982D01*
X72429690Y-64494982D02*
X72427776Y-64463095D01*
X72427776Y-64463095D02*
X72399204Y-64413608D01*
X72399204Y-64413608D02*
X72372547Y-64396008D01*
X72372547Y-64396008D02*
X72353032Y-64390779D01*
X72353032Y-64390779D02*
X72321146Y-64392693D01*
D10*
%TO.C,H3*%
X63214285Y-51654819D02*
X63214285Y-50654819D01*
X63214285Y-50654819D02*
X63547618Y-51369104D01*
X63547618Y-51369104D02*
X63880951Y-50654819D01*
X63880951Y-50654819D02*
X63880951Y-51654819D01*
X64499999Y-51654819D02*
X64404761Y-51607200D01*
X64404761Y-51607200D02*
X64357142Y-51559580D01*
X64357142Y-51559580D02*
X64309523Y-51464342D01*
X64309523Y-51464342D02*
X64309523Y-51178628D01*
X64309523Y-51178628D02*
X64357142Y-51083390D01*
X64357142Y-51083390D02*
X64404761Y-51035771D01*
X64404761Y-51035771D02*
X64499999Y-50988152D01*
X64499999Y-50988152D02*
X64642856Y-50988152D01*
X64642856Y-50988152D02*
X64738094Y-51035771D01*
X64738094Y-51035771D02*
X64785713Y-51083390D01*
X64785713Y-51083390D02*
X64833332Y-51178628D01*
X64833332Y-51178628D02*
X64833332Y-51464342D01*
X64833332Y-51464342D02*
X64785713Y-51559580D01*
X64785713Y-51559580D02*
X64738094Y-51607200D01*
X64738094Y-51607200D02*
X64642856Y-51654819D01*
X64642856Y-51654819D02*
X64499999Y-51654819D01*
X65690475Y-50988152D02*
X65690475Y-51654819D01*
X65261904Y-50988152D02*
X65261904Y-51511961D01*
X65261904Y-51511961D02*
X65309523Y-51607200D01*
X65309523Y-51607200D02*
X65404761Y-51654819D01*
X65404761Y-51654819D02*
X65547618Y-51654819D01*
X65547618Y-51654819D02*
X65642856Y-51607200D01*
X65642856Y-51607200D02*
X65690475Y-51559580D01*
X66166666Y-50988152D02*
X66166666Y-51654819D01*
X66166666Y-51083390D02*
X66214285Y-51035771D01*
X66214285Y-51035771D02*
X66309523Y-50988152D01*
X66309523Y-50988152D02*
X66452380Y-50988152D01*
X66452380Y-50988152D02*
X66547618Y-51035771D01*
X66547618Y-51035771D02*
X66595237Y-51131009D01*
X66595237Y-51131009D02*
X66595237Y-51654819D01*
X66928571Y-50988152D02*
X67309523Y-50988152D01*
X67071428Y-50654819D02*
X67071428Y-51511961D01*
X67071428Y-51511961D02*
X67119047Y-51607200D01*
X67119047Y-51607200D02*
X67214285Y-51654819D01*
X67214285Y-51654819D02*
X67309523Y-51654819D01*
X67642857Y-51654819D02*
X67642857Y-50988152D01*
X67642857Y-50654819D02*
X67595238Y-50702438D01*
X67595238Y-50702438D02*
X67642857Y-50750057D01*
X67642857Y-50750057D02*
X67690476Y-50702438D01*
X67690476Y-50702438D02*
X67642857Y-50654819D01*
X67642857Y-50654819D02*
X67642857Y-50750057D01*
X68119047Y-50988152D02*
X68119047Y-51654819D01*
X68119047Y-51083390D02*
X68166666Y-51035771D01*
X68166666Y-51035771D02*
X68261904Y-50988152D01*
X68261904Y-50988152D02*
X68404761Y-50988152D01*
X68404761Y-50988152D02*
X68499999Y-51035771D01*
X68499999Y-51035771D02*
X68547618Y-51131009D01*
X68547618Y-51131009D02*
X68547618Y-51654819D01*
X69452380Y-50988152D02*
X69452380Y-51797676D01*
X69452380Y-51797676D02*
X69404761Y-51892914D01*
X69404761Y-51892914D02*
X69357142Y-51940533D01*
X69357142Y-51940533D02*
X69261904Y-51988152D01*
X69261904Y-51988152D02*
X69119047Y-51988152D01*
X69119047Y-51988152D02*
X69023809Y-51940533D01*
X69452380Y-51607200D02*
X69357142Y-51654819D01*
X69357142Y-51654819D02*
X69166666Y-51654819D01*
X69166666Y-51654819D02*
X69071428Y-51607200D01*
X69071428Y-51607200D02*
X69023809Y-51559580D01*
X69023809Y-51559580D02*
X68976190Y-51464342D01*
X68976190Y-51464342D02*
X68976190Y-51178628D01*
X68976190Y-51178628D02*
X69023809Y-51083390D01*
X69023809Y-51083390D02*
X69071428Y-51035771D01*
X69071428Y-51035771D02*
X69166666Y-50988152D01*
X69166666Y-50988152D02*
X69357142Y-50988152D01*
X69357142Y-50988152D02*
X69452380Y-51035771D01*
X69928571Y-51654819D02*
X69928571Y-50654819D01*
X69928571Y-51131009D02*
X70499999Y-51131009D01*
X70499999Y-51654819D02*
X70499999Y-50654819D01*
X71119047Y-51654819D02*
X71023809Y-51607200D01*
X71023809Y-51607200D02*
X70976190Y-51559580D01*
X70976190Y-51559580D02*
X70928571Y-51464342D01*
X70928571Y-51464342D02*
X70928571Y-51178628D01*
X70928571Y-51178628D02*
X70976190Y-51083390D01*
X70976190Y-51083390D02*
X71023809Y-51035771D01*
X71023809Y-51035771D02*
X71119047Y-50988152D01*
X71119047Y-50988152D02*
X71261904Y-50988152D01*
X71261904Y-50988152D02*
X71357142Y-51035771D01*
X71357142Y-51035771D02*
X71404761Y-51083390D01*
X71404761Y-51083390D02*
X71452380Y-51178628D01*
X71452380Y-51178628D02*
X71452380Y-51464342D01*
X71452380Y-51464342D02*
X71404761Y-51559580D01*
X71404761Y-51559580D02*
X71357142Y-51607200D01*
X71357142Y-51607200D02*
X71261904Y-51654819D01*
X71261904Y-51654819D02*
X71119047Y-51654819D01*
X72023809Y-51654819D02*
X71928571Y-51607200D01*
X71928571Y-51607200D02*
X71880952Y-51511961D01*
X71880952Y-51511961D02*
X71880952Y-50654819D01*
X72785714Y-51607200D02*
X72690476Y-51654819D01*
X72690476Y-51654819D02*
X72500000Y-51654819D01*
X72500000Y-51654819D02*
X72404762Y-51607200D01*
X72404762Y-51607200D02*
X72357143Y-51511961D01*
X72357143Y-51511961D02*
X72357143Y-51131009D01*
X72357143Y-51131009D02*
X72404762Y-51035771D01*
X72404762Y-51035771D02*
X72500000Y-50988152D01*
X72500000Y-50988152D02*
X72690476Y-50988152D01*
X72690476Y-50988152D02*
X72785714Y-51035771D01*
X72785714Y-51035771D02*
X72833333Y-51131009D01*
X72833333Y-51131009D02*
X72833333Y-51226247D01*
X72833333Y-51226247D02*
X72357143Y-51321485D01*
X67238095Y-48454819D02*
X67238095Y-47454819D01*
X67238095Y-47931009D02*
X67809523Y-47931009D01*
X67809523Y-48454819D02*
X67809523Y-47454819D01*
X68190476Y-47454819D02*
X68809523Y-47454819D01*
X68809523Y-47454819D02*
X68476190Y-47835771D01*
X68476190Y-47835771D02*
X68619047Y-47835771D01*
X68619047Y-47835771D02*
X68714285Y-47883390D01*
X68714285Y-47883390D02*
X68761904Y-47931009D01*
X68761904Y-47931009D02*
X68809523Y-48026247D01*
X68809523Y-48026247D02*
X68809523Y-48264342D01*
X68809523Y-48264342D02*
X68761904Y-48359580D01*
X68761904Y-48359580D02*
X68714285Y-48407200D01*
X68714285Y-48407200D02*
X68619047Y-48454819D01*
X68619047Y-48454819D02*
X68333333Y-48454819D01*
X68333333Y-48454819D02*
X68238095Y-48407200D01*
X68238095Y-48407200D02*
X68190476Y-48359580D01*
%TO.C,D10*%
X78657200Y-73976190D02*
X78704819Y-73833333D01*
X78704819Y-73833333D02*
X78704819Y-73595238D01*
X78704819Y-73595238D02*
X78657200Y-73500000D01*
X78657200Y-73500000D02*
X78609580Y-73452381D01*
X78609580Y-73452381D02*
X78514342Y-73404762D01*
X78514342Y-73404762D02*
X78419104Y-73404762D01*
X78419104Y-73404762D02*
X78323866Y-73452381D01*
X78323866Y-73452381D02*
X78276247Y-73500000D01*
X78276247Y-73500000D02*
X78228628Y-73595238D01*
X78228628Y-73595238D02*
X78181009Y-73785714D01*
X78181009Y-73785714D02*
X78133390Y-73880952D01*
X78133390Y-73880952D02*
X78085771Y-73928571D01*
X78085771Y-73928571D02*
X77990533Y-73976190D01*
X77990533Y-73976190D02*
X77895295Y-73976190D01*
X77895295Y-73976190D02*
X77800057Y-73928571D01*
X77800057Y-73928571D02*
X77752438Y-73880952D01*
X77752438Y-73880952D02*
X77704819Y-73785714D01*
X77704819Y-73785714D02*
X77704819Y-73547619D01*
X77704819Y-73547619D02*
X77752438Y-73404762D01*
X78704819Y-72976190D02*
X77704819Y-72976190D01*
X78704819Y-72404762D02*
X78133390Y-72833333D01*
X77704819Y-72404762D02*
X78276247Y-72976190D01*
X77704819Y-71547619D02*
X77704819Y-71738095D01*
X77704819Y-71738095D02*
X77752438Y-71833333D01*
X77752438Y-71833333D02*
X77800057Y-71880952D01*
X77800057Y-71880952D02*
X77942914Y-71976190D01*
X77942914Y-71976190D02*
X78133390Y-72023809D01*
X78133390Y-72023809D02*
X78514342Y-72023809D01*
X78514342Y-72023809D02*
X78609580Y-71976190D01*
X78609580Y-71976190D02*
X78657200Y-71928571D01*
X78657200Y-71928571D02*
X78704819Y-71833333D01*
X78704819Y-71833333D02*
X78704819Y-71642857D01*
X78704819Y-71642857D02*
X78657200Y-71547619D01*
X78657200Y-71547619D02*
X78609580Y-71500000D01*
X78609580Y-71500000D02*
X78514342Y-71452381D01*
X78514342Y-71452381D02*
X78276247Y-71452381D01*
X78276247Y-71452381D02*
X78181009Y-71500000D01*
X78181009Y-71500000D02*
X78133390Y-71547619D01*
X78133390Y-71547619D02*
X78085771Y-71642857D01*
X78085771Y-71642857D02*
X78085771Y-71833333D01*
X78085771Y-71833333D02*
X78133390Y-71928571D01*
X78133390Y-71928571D02*
X78181009Y-71976190D01*
X78181009Y-71976190D02*
X78276247Y-72023809D01*
X78133390Y-70880952D02*
X78085771Y-70976190D01*
X78085771Y-70976190D02*
X78038152Y-71023809D01*
X78038152Y-71023809D02*
X77942914Y-71071428D01*
X77942914Y-71071428D02*
X77895295Y-71071428D01*
X77895295Y-71071428D02*
X77800057Y-71023809D01*
X77800057Y-71023809D02*
X77752438Y-70976190D01*
X77752438Y-70976190D02*
X77704819Y-70880952D01*
X77704819Y-70880952D02*
X77704819Y-70690476D01*
X77704819Y-70690476D02*
X77752438Y-70595238D01*
X77752438Y-70595238D02*
X77800057Y-70547619D01*
X77800057Y-70547619D02*
X77895295Y-70500000D01*
X77895295Y-70500000D02*
X77942914Y-70500000D01*
X77942914Y-70500000D02*
X78038152Y-70547619D01*
X78038152Y-70547619D02*
X78085771Y-70595238D01*
X78085771Y-70595238D02*
X78133390Y-70690476D01*
X78133390Y-70690476D02*
X78133390Y-70880952D01*
X78133390Y-70880952D02*
X78181009Y-70976190D01*
X78181009Y-70976190D02*
X78228628Y-71023809D01*
X78228628Y-71023809D02*
X78323866Y-71071428D01*
X78323866Y-71071428D02*
X78514342Y-71071428D01*
X78514342Y-71071428D02*
X78609580Y-71023809D01*
X78609580Y-71023809D02*
X78657200Y-70976190D01*
X78657200Y-70976190D02*
X78704819Y-70880952D01*
X78704819Y-70880952D02*
X78704819Y-70690476D01*
X78704819Y-70690476D02*
X78657200Y-70595238D01*
X78657200Y-70595238D02*
X78609580Y-70547619D01*
X78609580Y-70547619D02*
X78514342Y-70500000D01*
X78514342Y-70500000D02*
X78323866Y-70500000D01*
X78323866Y-70500000D02*
X78228628Y-70547619D01*
X78228628Y-70547619D02*
X78181009Y-70595238D01*
X78181009Y-70595238D02*
X78133390Y-70690476D01*
X78704819Y-69547619D02*
X78704819Y-70119047D01*
X78704819Y-69833333D02*
X77704819Y-69833333D01*
X77704819Y-69833333D02*
X77847676Y-69928571D01*
X77847676Y-69928571D02*
X77942914Y-70023809D01*
X77942914Y-70023809D02*
X77990533Y-70119047D01*
X77800057Y-69166666D02*
X77752438Y-69119047D01*
X77752438Y-69119047D02*
X77704819Y-69023809D01*
X77704819Y-69023809D02*
X77704819Y-68785714D01*
X77704819Y-68785714D02*
X77752438Y-68690476D01*
X77752438Y-68690476D02*
X77800057Y-68642857D01*
X77800057Y-68642857D02*
X77895295Y-68595238D01*
X77895295Y-68595238D02*
X77990533Y-68595238D01*
X77990533Y-68595238D02*
X78133390Y-68642857D01*
X78133390Y-68642857D02*
X78704819Y-69214285D01*
X78704819Y-69214285D02*
X78704819Y-68595238D01*
X78800057Y-68404762D02*
X78800057Y-67642857D01*
X78181009Y-67404761D02*
X78181009Y-67071428D01*
X78704819Y-66928571D02*
X78704819Y-67404761D01*
X78704819Y-67404761D02*
X77704819Y-67404761D01*
X77704819Y-67404761D02*
X77704819Y-66928571D01*
X78609580Y-65928571D02*
X78657200Y-65976190D01*
X78657200Y-65976190D02*
X78704819Y-66119047D01*
X78704819Y-66119047D02*
X78704819Y-66214285D01*
X78704819Y-66214285D02*
X78657200Y-66357142D01*
X78657200Y-66357142D02*
X78561961Y-66452380D01*
X78561961Y-66452380D02*
X78466723Y-66499999D01*
X78466723Y-66499999D02*
X78276247Y-66547618D01*
X78276247Y-66547618D02*
X78133390Y-66547618D01*
X78133390Y-66547618D02*
X77942914Y-66499999D01*
X77942914Y-66499999D02*
X77847676Y-66452380D01*
X77847676Y-66452380D02*
X77752438Y-66357142D01*
X77752438Y-66357142D02*
X77704819Y-66214285D01*
X77704819Y-66214285D02*
X77704819Y-66119047D01*
X77704819Y-66119047D02*
X77752438Y-65976190D01*
X77752438Y-65976190D02*
X77800057Y-65928571D01*
X78704819Y-64976190D02*
X78704819Y-65547618D01*
X78704819Y-65261904D02*
X77704819Y-65261904D01*
X77704819Y-65261904D02*
X77847676Y-65357142D01*
X77847676Y-65357142D02*
X77942914Y-65452380D01*
X77942914Y-65452380D02*
X77990533Y-65547618D01*
X77704819Y-64071428D02*
X77704819Y-64547618D01*
X77704819Y-64547618D02*
X78181009Y-64595237D01*
X78181009Y-64595237D02*
X78133390Y-64547618D01*
X78133390Y-64547618D02*
X78085771Y-64452380D01*
X78085771Y-64452380D02*
X78085771Y-64214285D01*
X78085771Y-64214285D02*
X78133390Y-64119047D01*
X78133390Y-64119047D02*
X78181009Y-64071428D01*
X78181009Y-64071428D02*
X78276247Y-64023809D01*
X78276247Y-64023809D02*
X78514342Y-64023809D01*
X78514342Y-64023809D02*
X78609580Y-64071428D01*
X78609580Y-64071428D02*
X78657200Y-64119047D01*
X78657200Y-64119047D02*
X78704819Y-64214285D01*
X78704819Y-64214285D02*
X78704819Y-64452380D01*
X78704819Y-64452380D02*
X78657200Y-64547618D01*
X78657200Y-64547618D02*
X78609580Y-64595237D01*
D12*
X80136185Y-69389285D02*
X79836185Y-69389285D01*
X79836185Y-69389285D02*
X79836185Y-69317856D01*
X79836185Y-69317856D02*
X79850471Y-69274999D01*
X79850471Y-69274999D02*
X79879042Y-69246428D01*
X79879042Y-69246428D02*
X79907614Y-69232142D01*
X79907614Y-69232142D02*
X79964757Y-69217856D01*
X79964757Y-69217856D02*
X80007614Y-69217856D01*
X80007614Y-69217856D02*
X80064757Y-69232142D01*
X80064757Y-69232142D02*
X80093328Y-69246428D01*
X80093328Y-69246428D02*
X80121900Y-69274999D01*
X80121900Y-69274999D02*
X80136185Y-69317856D01*
X80136185Y-69317856D02*
X80136185Y-69389285D01*
X80136185Y-68932142D02*
X80136185Y-69103571D01*
X80136185Y-69017856D02*
X79836185Y-69017856D01*
X79836185Y-69017856D02*
X79879042Y-69046428D01*
X79879042Y-69046428D02*
X79907614Y-69074999D01*
X79907614Y-69074999D02*
X79921900Y-69103571D01*
X79836185Y-68746428D02*
X79836185Y-68717857D01*
X79836185Y-68717857D02*
X79850471Y-68689285D01*
X79850471Y-68689285D02*
X79864757Y-68675000D01*
X79864757Y-68675000D02*
X79893328Y-68660714D01*
X79893328Y-68660714D02*
X79950471Y-68646428D01*
X79950471Y-68646428D02*
X80021900Y-68646428D01*
X80021900Y-68646428D02*
X80079042Y-68660714D01*
X80079042Y-68660714D02*
X80107614Y-68675000D01*
X80107614Y-68675000D02*
X80121900Y-68689285D01*
X80121900Y-68689285D02*
X80136185Y-68717857D01*
X80136185Y-68717857D02*
X80136185Y-68746428D01*
X80136185Y-68746428D02*
X80121900Y-68775000D01*
X80121900Y-68775000D02*
X80107614Y-68789285D01*
X80107614Y-68789285D02*
X80079042Y-68803571D01*
X80079042Y-68803571D02*
X80021900Y-68817857D01*
X80021900Y-68817857D02*
X79950471Y-68817857D01*
X79950471Y-68817857D02*
X79893328Y-68803571D01*
X79893328Y-68803571D02*
X79864757Y-68789285D01*
X79864757Y-68789285D02*
X79850471Y-68775000D01*
X79850471Y-68775000D02*
X79836185Y-68746428D01*
D10*
%TO.C,C11*%
X84361918Y-68745539D02*
X83867046Y-69031254D01*
X84114482Y-68888397D02*
X83614482Y-68022371D01*
X83614482Y-68022371D02*
X83603432Y-68193708D01*
X83603432Y-68193708D02*
X83568572Y-68323806D01*
X83568572Y-68323806D02*
X83509903Y-68412664D01*
X84770892Y-67739618D02*
X85104225Y-68316968D01*
X84399738Y-67953903D02*
X84661643Y-68407536D01*
X84661643Y-68407536D02*
X84750501Y-68466205D01*
X84750501Y-68466205D02*
X84856789Y-68459825D01*
X84856789Y-68459825D02*
X84980507Y-68388397D01*
X84980507Y-68388397D02*
X85039176Y-68299538D01*
X85039176Y-68299538D02*
X85056606Y-68234489D01*
X85543389Y-67458574D02*
X85254713Y-67625240D01*
X85516618Y-68078873D02*
X85016618Y-67212847D01*
X85016618Y-67212847D02*
X85429011Y-66974752D01*
D11*
X85420700Y-69710356D02*
X85416342Y-69726618D01*
X85416342Y-69726618D02*
X85391365Y-69754785D01*
X85391365Y-69754785D02*
X85370745Y-69766689D01*
X85370745Y-69766689D02*
X85333864Y-69774237D01*
X85333864Y-69774237D02*
X85301339Y-69765522D01*
X85301339Y-69765522D02*
X85279125Y-69750855D01*
X85279125Y-69750855D02*
X85245005Y-69715568D01*
X85245005Y-69715568D02*
X85227148Y-69684638D01*
X85227148Y-69684638D02*
X85213648Y-69637447D01*
X85213648Y-69637447D02*
X85212053Y-69610874D01*
X85212053Y-69610874D02*
X85220768Y-69578350D01*
X85220768Y-69578350D02*
X85245745Y-69550183D01*
X85245745Y-69550183D02*
X85266365Y-69538278D01*
X85266365Y-69538278D02*
X85303247Y-69530731D01*
X85303247Y-69530731D02*
X85319509Y-69535088D01*
X85638801Y-69611928D02*
X85515083Y-69683356D01*
X85576942Y-69647642D02*
X85451942Y-69431135D01*
X85451942Y-69431135D02*
X85449179Y-69473970D01*
X85449179Y-69473970D02*
X85440465Y-69506494D01*
X85440465Y-69506494D02*
X85425797Y-69528709D01*
X85844997Y-69492880D02*
X85721279Y-69564309D01*
X85783138Y-69528594D02*
X85658138Y-69312088D01*
X85658138Y-69312088D02*
X85655376Y-69354922D01*
X85655376Y-69354922D02*
X85646661Y-69387447D01*
X85646661Y-69387447D02*
X85631994Y-69409661D01*
D10*
%TO.C,D7*%
X66023809Y-58657200D02*
X66166666Y-58704819D01*
X66166666Y-58704819D02*
X66404761Y-58704819D01*
X66404761Y-58704819D02*
X66499999Y-58657200D01*
X66499999Y-58657200D02*
X66547618Y-58609580D01*
X66547618Y-58609580D02*
X66595237Y-58514342D01*
X66595237Y-58514342D02*
X66595237Y-58419104D01*
X66595237Y-58419104D02*
X66547618Y-58323866D01*
X66547618Y-58323866D02*
X66499999Y-58276247D01*
X66499999Y-58276247D02*
X66404761Y-58228628D01*
X66404761Y-58228628D02*
X66214285Y-58181009D01*
X66214285Y-58181009D02*
X66119047Y-58133390D01*
X66119047Y-58133390D02*
X66071428Y-58085771D01*
X66071428Y-58085771D02*
X66023809Y-57990533D01*
X66023809Y-57990533D02*
X66023809Y-57895295D01*
X66023809Y-57895295D02*
X66071428Y-57800057D01*
X66071428Y-57800057D02*
X66119047Y-57752438D01*
X66119047Y-57752438D02*
X66214285Y-57704819D01*
X66214285Y-57704819D02*
X66452380Y-57704819D01*
X66452380Y-57704819D02*
X66595237Y-57752438D01*
X67023809Y-58704819D02*
X67023809Y-57704819D01*
X67595237Y-58704819D02*
X67166666Y-58133390D01*
X67595237Y-57704819D02*
X67023809Y-58276247D01*
X68452380Y-57704819D02*
X68261904Y-57704819D01*
X68261904Y-57704819D02*
X68166666Y-57752438D01*
X68166666Y-57752438D02*
X68119047Y-57800057D01*
X68119047Y-57800057D02*
X68023809Y-57942914D01*
X68023809Y-57942914D02*
X67976190Y-58133390D01*
X67976190Y-58133390D02*
X67976190Y-58514342D01*
X67976190Y-58514342D02*
X68023809Y-58609580D01*
X68023809Y-58609580D02*
X68071428Y-58657200D01*
X68071428Y-58657200D02*
X68166666Y-58704819D01*
X68166666Y-58704819D02*
X68357142Y-58704819D01*
X68357142Y-58704819D02*
X68452380Y-58657200D01*
X68452380Y-58657200D02*
X68499999Y-58609580D01*
X68499999Y-58609580D02*
X68547618Y-58514342D01*
X68547618Y-58514342D02*
X68547618Y-58276247D01*
X68547618Y-58276247D02*
X68499999Y-58181009D01*
X68499999Y-58181009D02*
X68452380Y-58133390D01*
X68452380Y-58133390D02*
X68357142Y-58085771D01*
X68357142Y-58085771D02*
X68166666Y-58085771D01*
X68166666Y-58085771D02*
X68071428Y-58133390D01*
X68071428Y-58133390D02*
X68023809Y-58181009D01*
X68023809Y-58181009D02*
X67976190Y-58276247D01*
X69119047Y-58133390D02*
X69023809Y-58085771D01*
X69023809Y-58085771D02*
X68976190Y-58038152D01*
X68976190Y-58038152D02*
X68928571Y-57942914D01*
X68928571Y-57942914D02*
X68928571Y-57895295D01*
X68928571Y-57895295D02*
X68976190Y-57800057D01*
X68976190Y-57800057D02*
X69023809Y-57752438D01*
X69023809Y-57752438D02*
X69119047Y-57704819D01*
X69119047Y-57704819D02*
X69309523Y-57704819D01*
X69309523Y-57704819D02*
X69404761Y-57752438D01*
X69404761Y-57752438D02*
X69452380Y-57800057D01*
X69452380Y-57800057D02*
X69499999Y-57895295D01*
X69499999Y-57895295D02*
X69499999Y-57942914D01*
X69499999Y-57942914D02*
X69452380Y-58038152D01*
X69452380Y-58038152D02*
X69404761Y-58085771D01*
X69404761Y-58085771D02*
X69309523Y-58133390D01*
X69309523Y-58133390D02*
X69119047Y-58133390D01*
X69119047Y-58133390D02*
X69023809Y-58181009D01*
X69023809Y-58181009D02*
X68976190Y-58228628D01*
X68976190Y-58228628D02*
X68928571Y-58323866D01*
X68928571Y-58323866D02*
X68928571Y-58514342D01*
X68928571Y-58514342D02*
X68976190Y-58609580D01*
X68976190Y-58609580D02*
X69023809Y-58657200D01*
X69023809Y-58657200D02*
X69119047Y-58704819D01*
X69119047Y-58704819D02*
X69309523Y-58704819D01*
X69309523Y-58704819D02*
X69404761Y-58657200D01*
X69404761Y-58657200D02*
X69452380Y-58609580D01*
X69452380Y-58609580D02*
X69499999Y-58514342D01*
X69499999Y-58514342D02*
X69499999Y-58323866D01*
X69499999Y-58323866D02*
X69452380Y-58228628D01*
X69452380Y-58228628D02*
X69404761Y-58181009D01*
X69404761Y-58181009D02*
X69309523Y-58133390D01*
X70452380Y-58704819D02*
X69880952Y-58704819D01*
X70166666Y-58704819D02*
X70166666Y-57704819D01*
X70166666Y-57704819D02*
X70071428Y-57847676D01*
X70071428Y-57847676D02*
X69976190Y-57942914D01*
X69976190Y-57942914D02*
X69880952Y-57990533D01*
X70833333Y-57800057D02*
X70880952Y-57752438D01*
X70880952Y-57752438D02*
X70976190Y-57704819D01*
X70976190Y-57704819D02*
X71214285Y-57704819D01*
X71214285Y-57704819D02*
X71309523Y-57752438D01*
X71309523Y-57752438D02*
X71357142Y-57800057D01*
X71357142Y-57800057D02*
X71404761Y-57895295D01*
X71404761Y-57895295D02*
X71404761Y-57990533D01*
X71404761Y-57990533D02*
X71357142Y-58133390D01*
X71357142Y-58133390D02*
X70785714Y-58704819D01*
X70785714Y-58704819D02*
X71404761Y-58704819D01*
X71595238Y-58800057D02*
X72357142Y-58800057D01*
X72595238Y-58181009D02*
X72928571Y-58181009D01*
X73071428Y-58704819D02*
X72595238Y-58704819D01*
X72595238Y-58704819D02*
X72595238Y-57704819D01*
X72595238Y-57704819D02*
X73071428Y-57704819D01*
X74071428Y-58609580D02*
X74023809Y-58657200D01*
X74023809Y-58657200D02*
X73880952Y-58704819D01*
X73880952Y-58704819D02*
X73785714Y-58704819D01*
X73785714Y-58704819D02*
X73642857Y-58657200D01*
X73642857Y-58657200D02*
X73547619Y-58561961D01*
X73547619Y-58561961D02*
X73500000Y-58466723D01*
X73500000Y-58466723D02*
X73452381Y-58276247D01*
X73452381Y-58276247D02*
X73452381Y-58133390D01*
X73452381Y-58133390D02*
X73500000Y-57942914D01*
X73500000Y-57942914D02*
X73547619Y-57847676D01*
X73547619Y-57847676D02*
X73642857Y-57752438D01*
X73642857Y-57752438D02*
X73785714Y-57704819D01*
X73785714Y-57704819D02*
X73880952Y-57704819D01*
X73880952Y-57704819D02*
X74023809Y-57752438D01*
X74023809Y-57752438D02*
X74071428Y-57800057D01*
X75023809Y-58704819D02*
X74452381Y-58704819D01*
X74738095Y-58704819D02*
X74738095Y-57704819D01*
X74738095Y-57704819D02*
X74642857Y-57847676D01*
X74642857Y-57847676D02*
X74547619Y-57942914D01*
X74547619Y-57942914D02*
X74452381Y-57990533D01*
X75928571Y-57704819D02*
X75452381Y-57704819D01*
X75452381Y-57704819D02*
X75404762Y-58181009D01*
X75404762Y-58181009D02*
X75452381Y-58133390D01*
X75452381Y-58133390D02*
X75547619Y-58085771D01*
X75547619Y-58085771D02*
X75785714Y-58085771D01*
X75785714Y-58085771D02*
X75880952Y-58133390D01*
X75880952Y-58133390D02*
X75928571Y-58181009D01*
X75928571Y-58181009D02*
X75976190Y-58276247D01*
X75976190Y-58276247D02*
X75976190Y-58514342D01*
X75976190Y-58514342D02*
X75928571Y-58609580D01*
X75928571Y-58609580D02*
X75880952Y-58657200D01*
X75880952Y-58657200D02*
X75785714Y-58704819D01*
X75785714Y-58704819D02*
X75547619Y-58704819D01*
X75547619Y-58704819D02*
X75452381Y-58657200D01*
X75452381Y-58657200D02*
X75404762Y-58609580D01*
D12*
X70753571Y-60136185D02*
X70753571Y-59836185D01*
X70753571Y-59836185D02*
X70825000Y-59836185D01*
X70825000Y-59836185D02*
X70867857Y-59850471D01*
X70867857Y-59850471D02*
X70896428Y-59879042D01*
X70896428Y-59879042D02*
X70910714Y-59907614D01*
X70910714Y-59907614D02*
X70925000Y-59964757D01*
X70925000Y-59964757D02*
X70925000Y-60007614D01*
X70925000Y-60007614D02*
X70910714Y-60064757D01*
X70910714Y-60064757D02*
X70896428Y-60093328D01*
X70896428Y-60093328D02*
X70867857Y-60121900D01*
X70867857Y-60121900D02*
X70825000Y-60136185D01*
X70825000Y-60136185D02*
X70753571Y-60136185D01*
X71025000Y-59836185D02*
X71225000Y-59836185D01*
X71225000Y-59836185D02*
X71096428Y-60136185D01*
D10*
%TO.C,D6*%
X68567663Y-51849006D02*
X68667571Y-51961674D01*
X68667571Y-51961674D02*
X68873768Y-52080721D01*
X68873768Y-52080721D02*
X68980056Y-52087101D01*
X68980056Y-52087101D02*
X69045105Y-52069671D01*
X69045105Y-52069671D02*
X69133963Y-52011002D01*
X69133963Y-52011002D02*
X69181582Y-51928523D01*
X69181582Y-51928523D02*
X69187962Y-51822235D01*
X69187962Y-51822235D02*
X69170532Y-51757186D01*
X69170532Y-51757186D02*
X69111863Y-51668328D01*
X69111863Y-51668328D02*
X68970715Y-51531851D01*
X68970715Y-51531851D02*
X68912046Y-51442992D01*
X68912046Y-51442992D02*
X68894616Y-51377944D01*
X68894616Y-51377944D02*
X68900996Y-51271655D01*
X68900996Y-51271655D02*
X68948615Y-51189177D01*
X68948615Y-51189177D02*
X69037474Y-51130508D01*
X69037474Y-51130508D02*
X69102522Y-51113078D01*
X69102522Y-51113078D02*
X69208811Y-51119458D01*
X69208811Y-51119458D02*
X69415007Y-51238505D01*
X69415007Y-51238505D02*
X69514915Y-51351173D01*
X69409879Y-52390245D02*
X69909879Y-51524220D01*
X69904750Y-52675959D02*
X69819311Y-51966802D01*
X70404750Y-51809934D02*
X69624164Y-52019091D01*
X71147058Y-52238505D02*
X70982101Y-52143267D01*
X70982101Y-52143267D02*
X70875813Y-52136887D01*
X70875813Y-52136887D02*
X70810764Y-52154317D01*
X70810764Y-52154317D02*
X70656857Y-52230416D01*
X70656857Y-52230416D02*
X70520379Y-52371564D01*
X70520379Y-52371564D02*
X70329903Y-52701478D01*
X70329903Y-52701478D02*
X70323523Y-52807766D01*
X70323523Y-52807766D02*
X70340953Y-52872815D01*
X70340953Y-52872815D02*
X70399622Y-52961674D01*
X70399622Y-52961674D02*
X70564579Y-53056912D01*
X70564579Y-53056912D02*
X70670867Y-53063291D01*
X70670867Y-53063291D02*
X70735916Y-53045862D01*
X70735916Y-53045862D02*
X70824775Y-52987193D01*
X70824775Y-52987193D02*
X70943822Y-52780996D01*
X70943822Y-52780996D02*
X70950202Y-52674708D01*
X70950202Y-52674708D02*
X70932772Y-52609659D01*
X70932772Y-52609659D02*
X70874103Y-52520801D01*
X70874103Y-52520801D02*
X70709146Y-52425563D01*
X70709146Y-52425563D02*
X70602858Y-52419183D01*
X70602858Y-52419183D02*
X70537809Y-52436613D01*
X70537809Y-52436613D02*
X70448951Y-52495282D01*
X71510123Y-52942992D02*
X71451453Y-52854134D01*
X71451453Y-52854134D02*
X71434024Y-52789085D01*
X71434024Y-52789085D02*
X71440403Y-52682797D01*
X71440403Y-52682797D02*
X71464213Y-52641558D01*
X71464213Y-52641558D02*
X71553071Y-52582889D01*
X71553071Y-52582889D02*
X71618120Y-52565459D01*
X71618120Y-52565459D02*
X71724408Y-52571839D01*
X71724408Y-52571839D02*
X71889365Y-52667077D01*
X71889365Y-52667077D02*
X71948035Y-52755935D01*
X71948035Y-52755935D02*
X71965464Y-52820984D01*
X71965464Y-52820984D02*
X71959085Y-52927272D01*
X71959085Y-52927272D02*
X71935275Y-52968511D01*
X71935275Y-52968511D02*
X71846417Y-53027180D01*
X71846417Y-53027180D02*
X71781368Y-53044610D01*
X71781368Y-53044610D02*
X71675080Y-53038230D01*
X71675080Y-53038230D02*
X71510123Y-52942992D01*
X71510123Y-52942992D02*
X71403834Y-52936613D01*
X71403834Y-52936613D02*
X71338786Y-52954042D01*
X71338786Y-52954042D02*
X71249927Y-53012712D01*
X71249927Y-53012712D02*
X71154689Y-53177669D01*
X71154689Y-53177669D02*
X71148309Y-53283957D01*
X71148309Y-53283957D02*
X71165739Y-53349006D01*
X71165739Y-53349006D02*
X71224408Y-53437864D01*
X71224408Y-53437864D02*
X71389365Y-53533102D01*
X71389365Y-53533102D02*
X71495654Y-53539482D01*
X71495654Y-53539482D02*
X71560702Y-53522052D01*
X71560702Y-53522052D02*
X71649561Y-53463383D01*
X71649561Y-53463383D02*
X71744799Y-53298426D01*
X71744799Y-53298426D02*
X71751179Y-53192138D01*
X71751179Y-53192138D02*
X71733749Y-53127089D01*
X71733749Y-53127089D02*
X71675080Y-53038230D01*
X72379109Y-54104531D02*
X71884237Y-53818816D01*
X72131673Y-53961674D02*
X72631673Y-53095648D01*
X72631673Y-53095648D02*
X72477766Y-53171747D01*
X72477766Y-53171747D02*
X72347668Y-53206607D01*
X72347668Y-53206607D02*
X72241380Y-53200227D01*
X73161404Y-53511460D02*
X73226453Y-53494030D01*
X73226453Y-53494030D02*
X73332741Y-53500410D01*
X73332741Y-53500410D02*
X73538938Y-53619458D01*
X73538938Y-53619458D02*
X73597607Y-53708316D01*
X73597607Y-53708316D02*
X73615037Y-53773365D01*
X73615037Y-53773365D02*
X73608657Y-53879653D01*
X73608657Y-53879653D02*
X73561038Y-53962132D01*
X73561038Y-53962132D02*
X73448370Y-54062040D01*
X73448370Y-54062040D02*
X72667784Y-54271197D01*
X72667784Y-54271197D02*
X73203895Y-54580721D01*
X73321233Y-54758438D02*
X73981062Y-55139390D01*
X74496783Y-54722327D02*
X74785458Y-54888994D01*
X74647271Y-55414055D02*
X74234878Y-55175959D01*
X74234878Y-55175959D02*
X74734878Y-54309934D01*
X74734878Y-54309934D02*
X75147271Y-54548029D01*
X75560915Y-55831576D02*
X75495867Y-55849006D01*
X75495867Y-55849006D02*
X75348339Y-55818817D01*
X75348339Y-55818817D02*
X75265861Y-55771198D01*
X75265861Y-55771198D02*
X75165952Y-55658530D01*
X75165952Y-55658530D02*
X75131093Y-55528432D01*
X75131093Y-55528432D02*
X75137472Y-55422144D01*
X75137472Y-55422144D02*
X75191471Y-55233377D01*
X75191471Y-55233377D02*
X75262900Y-55109659D01*
X75262900Y-55109659D02*
X75399377Y-54968512D01*
X75399377Y-54968512D02*
X75488235Y-54909843D01*
X75488235Y-54909843D02*
X75618333Y-54874983D01*
X75618333Y-54874983D02*
X75765861Y-54905172D01*
X75765861Y-54905172D02*
X75848339Y-54952791D01*
X75848339Y-54952791D02*
X75948248Y-55065459D01*
X75948248Y-55065459D02*
X75965677Y-55130508D01*
X76338082Y-56390245D02*
X75843211Y-56104531D01*
X76090647Y-56247388D02*
X76590647Y-55381363D01*
X76590647Y-55381363D02*
X76436739Y-55457462D01*
X76436739Y-55457462D02*
X76306642Y-55492321D01*
X76306642Y-55492321D02*
X76200354Y-55485941D01*
X77621629Y-55976601D02*
X77209236Y-55738506D01*
X77209236Y-55738506D02*
X76929902Y-56127089D01*
X76929902Y-56127089D02*
X76994951Y-56109659D01*
X76994951Y-56109659D02*
X77101239Y-56116039D01*
X77101239Y-56116039D02*
X77307435Y-56235087D01*
X77307435Y-56235087D02*
X77366104Y-56323945D01*
X77366104Y-56323945D02*
X77383534Y-56388994D01*
X77383534Y-56388994D02*
X77377154Y-56495282D01*
X77377154Y-56495282D02*
X77258107Y-56701479D01*
X77258107Y-56701479D02*
X77169248Y-56760148D01*
X77169248Y-56760148D02*
X77104200Y-56777577D01*
X77104200Y-56777577D02*
X76997911Y-56771198D01*
X76997911Y-56771198D02*
X76791715Y-56652150D01*
X76791715Y-56652150D02*
X76733046Y-56563292D01*
X76733046Y-56563292D02*
X76715616Y-56498243D01*
D12*
X71924264Y-55494726D02*
X72074264Y-55234918D01*
X72074264Y-55234918D02*
X72136123Y-55270632D01*
X72136123Y-55270632D02*
X72166095Y-55304433D01*
X72166095Y-55304433D02*
X72176553Y-55343462D01*
X72176553Y-55343462D02*
X72174639Y-55375348D01*
X72174639Y-55375348D02*
X72158440Y-55431978D01*
X72158440Y-55431978D02*
X72137011Y-55469094D01*
X72137011Y-55469094D02*
X72096068Y-55511438D01*
X72096068Y-55511438D02*
X72069410Y-55529039D01*
X72069410Y-55529039D02*
X72030381Y-55539497D01*
X72030381Y-55539497D02*
X71986123Y-55530440D01*
X71986123Y-55530440D02*
X71924264Y-55494726D01*
X72445418Y-55449204D02*
X72395931Y-55420632D01*
X72395931Y-55420632D02*
X72364044Y-55418718D01*
X72364044Y-55418718D02*
X72344529Y-55423947D01*
X72344529Y-55423947D02*
X72298357Y-55446777D01*
X72298357Y-55446777D02*
X72257414Y-55489121D01*
X72257414Y-55489121D02*
X72200271Y-55588096D01*
X72200271Y-55588096D02*
X72198357Y-55619982D01*
X72198357Y-55619982D02*
X72203586Y-55639497D01*
X72203586Y-55639497D02*
X72221187Y-55666154D01*
X72221187Y-55666154D02*
X72270674Y-55694726D01*
X72270674Y-55694726D02*
X72302561Y-55696639D01*
X72302561Y-55696639D02*
X72322075Y-55691411D01*
X72322075Y-55691411D02*
X72348733Y-55673810D01*
X72348733Y-55673810D02*
X72384447Y-55611951D01*
X72384447Y-55611951D02*
X72386361Y-55580064D01*
X72386361Y-55580064D02*
X72381132Y-55560550D01*
X72381132Y-55560550D02*
X72363531Y-55533892D01*
X72363531Y-55533892D02*
X72314044Y-55505321D01*
X72314044Y-55505321D02*
X72282158Y-55503407D01*
X72282158Y-55503407D02*
X72262643Y-55508636D01*
X72262643Y-55508636D02*
X72235986Y-55526237D01*
D10*
%TO.C,C12*%
X90075592Y-66267900D02*
X89789878Y-66762772D01*
X89932735Y-66515336D02*
X89066710Y-66015336D01*
X89066710Y-66015336D02*
X89142809Y-66169243D01*
X89142809Y-66169243D02*
X89177668Y-66299341D01*
X89177668Y-66299341D02*
X89171288Y-66405629D01*
X89926813Y-65192260D02*
X90504164Y-65525593D01*
X89712528Y-65563413D02*
X90166160Y-65825318D01*
X90166160Y-65825318D02*
X90272448Y-65831698D01*
X90272448Y-65831698D02*
X90361307Y-65773029D01*
X90361307Y-65773029D02*
X90432735Y-65649311D01*
X90432735Y-65649311D02*
X90439115Y-65543023D01*
X90439115Y-65543023D02*
X90421685Y-65477974D01*
X90455293Y-64562620D02*
X90288627Y-64851295D01*
X90742259Y-65113200D02*
X89876234Y-64613200D01*
X89876234Y-64613200D02*
X90114329Y-64200807D01*
D11*
X88478484Y-64844065D02*
X88482842Y-64860327D01*
X88482842Y-64860327D02*
X88475295Y-64897209D01*
X88475295Y-64897209D02*
X88463390Y-64917828D01*
X88463390Y-64917828D02*
X88435223Y-64942805D01*
X88435223Y-64942805D02*
X88402698Y-64951520D01*
X88402698Y-64951520D02*
X88376126Y-64949925D01*
X88376126Y-64949925D02*
X88328935Y-64936426D01*
X88328935Y-64936426D02*
X88298005Y-64918568D01*
X88298005Y-64918568D02*
X88262718Y-64884449D01*
X88262718Y-64884449D02*
X88248051Y-64862235D01*
X88248051Y-64862235D02*
X88239336Y-64829710D01*
X88239336Y-64829710D02*
X88246883Y-64792828D01*
X88246883Y-64792828D02*
X88258788Y-64772209D01*
X88258788Y-64772209D02*
X88286955Y-64747232D01*
X88286955Y-64747232D02*
X88303217Y-64742874D01*
X88618152Y-64649773D02*
X88546723Y-64773491D01*
X88582437Y-64711632D02*
X88365931Y-64586632D01*
X88365931Y-64586632D02*
X88384956Y-64625109D01*
X88384956Y-64625109D02*
X88393671Y-64657633D01*
X88393671Y-64657633D02*
X88392076Y-64684205D01*
X88469884Y-64454199D02*
X88465527Y-64437937D01*
X88465527Y-64437937D02*
X88467121Y-64411365D01*
X88467121Y-64411365D02*
X88496883Y-64359816D01*
X88496883Y-64359816D02*
X88519098Y-64345149D01*
X88519098Y-64345149D02*
X88535360Y-64340791D01*
X88535360Y-64340791D02*
X88561932Y-64342386D01*
X88561932Y-64342386D02*
X88582552Y-64354291D01*
X88582552Y-64354291D02*
X88607529Y-64382458D01*
X88607529Y-64382458D02*
X88659818Y-64577604D01*
X88659818Y-64577604D02*
X88737199Y-64443576D01*
D10*
%TO.C,H2*%
X87214285Y-51654819D02*
X87214285Y-50654819D01*
X87214285Y-50654819D02*
X87547618Y-51369104D01*
X87547618Y-51369104D02*
X87880951Y-50654819D01*
X87880951Y-50654819D02*
X87880951Y-51654819D01*
X88499999Y-51654819D02*
X88404761Y-51607200D01*
X88404761Y-51607200D02*
X88357142Y-51559580D01*
X88357142Y-51559580D02*
X88309523Y-51464342D01*
X88309523Y-51464342D02*
X88309523Y-51178628D01*
X88309523Y-51178628D02*
X88357142Y-51083390D01*
X88357142Y-51083390D02*
X88404761Y-51035771D01*
X88404761Y-51035771D02*
X88499999Y-50988152D01*
X88499999Y-50988152D02*
X88642856Y-50988152D01*
X88642856Y-50988152D02*
X88738094Y-51035771D01*
X88738094Y-51035771D02*
X88785713Y-51083390D01*
X88785713Y-51083390D02*
X88833332Y-51178628D01*
X88833332Y-51178628D02*
X88833332Y-51464342D01*
X88833332Y-51464342D02*
X88785713Y-51559580D01*
X88785713Y-51559580D02*
X88738094Y-51607200D01*
X88738094Y-51607200D02*
X88642856Y-51654819D01*
X88642856Y-51654819D02*
X88499999Y-51654819D01*
X89690475Y-50988152D02*
X89690475Y-51654819D01*
X89261904Y-50988152D02*
X89261904Y-51511961D01*
X89261904Y-51511961D02*
X89309523Y-51607200D01*
X89309523Y-51607200D02*
X89404761Y-51654819D01*
X89404761Y-51654819D02*
X89547618Y-51654819D01*
X89547618Y-51654819D02*
X89642856Y-51607200D01*
X89642856Y-51607200D02*
X89690475Y-51559580D01*
X90166666Y-50988152D02*
X90166666Y-51654819D01*
X90166666Y-51083390D02*
X90214285Y-51035771D01*
X90214285Y-51035771D02*
X90309523Y-50988152D01*
X90309523Y-50988152D02*
X90452380Y-50988152D01*
X90452380Y-50988152D02*
X90547618Y-51035771D01*
X90547618Y-51035771D02*
X90595237Y-51131009D01*
X90595237Y-51131009D02*
X90595237Y-51654819D01*
X90928571Y-50988152D02*
X91309523Y-50988152D01*
X91071428Y-50654819D02*
X91071428Y-51511961D01*
X91071428Y-51511961D02*
X91119047Y-51607200D01*
X91119047Y-51607200D02*
X91214285Y-51654819D01*
X91214285Y-51654819D02*
X91309523Y-51654819D01*
X91642857Y-51654819D02*
X91642857Y-50988152D01*
X91642857Y-50654819D02*
X91595238Y-50702438D01*
X91595238Y-50702438D02*
X91642857Y-50750057D01*
X91642857Y-50750057D02*
X91690476Y-50702438D01*
X91690476Y-50702438D02*
X91642857Y-50654819D01*
X91642857Y-50654819D02*
X91642857Y-50750057D01*
X92119047Y-50988152D02*
X92119047Y-51654819D01*
X92119047Y-51083390D02*
X92166666Y-51035771D01*
X92166666Y-51035771D02*
X92261904Y-50988152D01*
X92261904Y-50988152D02*
X92404761Y-50988152D01*
X92404761Y-50988152D02*
X92499999Y-51035771D01*
X92499999Y-51035771D02*
X92547618Y-51131009D01*
X92547618Y-51131009D02*
X92547618Y-51654819D01*
X93452380Y-50988152D02*
X93452380Y-51797676D01*
X93452380Y-51797676D02*
X93404761Y-51892914D01*
X93404761Y-51892914D02*
X93357142Y-51940533D01*
X93357142Y-51940533D02*
X93261904Y-51988152D01*
X93261904Y-51988152D02*
X93119047Y-51988152D01*
X93119047Y-51988152D02*
X93023809Y-51940533D01*
X93452380Y-51607200D02*
X93357142Y-51654819D01*
X93357142Y-51654819D02*
X93166666Y-51654819D01*
X93166666Y-51654819D02*
X93071428Y-51607200D01*
X93071428Y-51607200D02*
X93023809Y-51559580D01*
X93023809Y-51559580D02*
X92976190Y-51464342D01*
X92976190Y-51464342D02*
X92976190Y-51178628D01*
X92976190Y-51178628D02*
X93023809Y-51083390D01*
X93023809Y-51083390D02*
X93071428Y-51035771D01*
X93071428Y-51035771D02*
X93166666Y-50988152D01*
X93166666Y-50988152D02*
X93357142Y-50988152D01*
X93357142Y-50988152D02*
X93452380Y-51035771D01*
X93928571Y-51654819D02*
X93928571Y-50654819D01*
X93928571Y-51131009D02*
X94499999Y-51131009D01*
X94499999Y-51654819D02*
X94499999Y-50654819D01*
X95119047Y-51654819D02*
X95023809Y-51607200D01*
X95023809Y-51607200D02*
X94976190Y-51559580D01*
X94976190Y-51559580D02*
X94928571Y-51464342D01*
X94928571Y-51464342D02*
X94928571Y-51178628D01*
X94928571Y-51178628D02*
X94976190Y-51083390D01*
X94976190Y-51083390D02*
X95023809Y-51035771D01*
X95023809Y-51035771D02*
X95119047Y-50988152D01*
X95119047Y-50988152D02*
X95261904Y-50988152D01*
X95261904Y-50988152D02*
X95357142Y-51035771D01*
X95357142Y-51035771D02*
X95404761Y-51083390D01*
X95404761Y-51083390D02*
X95452380Y-51178628D01*
X95452380Y-51178628D02*
X95452380Y-51464342D01*
X95452380Y-51464342D02*
X95404761Y-51559580D01*
X95404761Y-51559580D02*
X95357142Y-51607200D01*
X95357142Y-51607200D02*
X95261904Y-51654819D01*
X95261904Y-51654819D02*
X95119047Y-51654819D01*
X96023809Y-51654819D02*
X95928571Y-51607200D01*
X95928571Y-51607200D02*
X95880952Y-51511961D01*
X95880952Y-51511961D02*
X95880952Y-50654819D01*
X96785714Y-51607200D02*
X96690476Y-51654819D01*
X96690476Y-51654819D02*
X96500000Y-51654819D01*
X96500000Y-51654819D02*
X96404762Y-51607200D01*
X96404762Y-51607200D02*
X96357143Y-51511961D01*
X96357143Y-51511961D02*
X96357143Y-51131009D01*
X96357143Y-51131009D02*
X96404762Y-51035771D01*
X96404762Y-51035771D02*
X96500000Y-50988152D01*
X96500000Y-50988152D02*
X96690476Y-50988152D01*
X96690476Y-50988152D02*
X96785714Y-51035771D01*
X96785714Y-51035771D02*
X96833333Y-51131009D01*
X96833333Y-51131009D02*
X96833333Y-51226247D01*
X96833333Y-51226247D02*
X96357143Y-51321485D01*
X91238095Y-48454819D02*
X91238095Y-47454819D01*
X91238095Y-47931009D02*
X91809523Y-47931009D01*
X91809523Y-48454819D02*
X91809523Y-47454819D01*
X92238095Y-47550057D02*
X92285714Y-47502438D01*
X92285714Y-47502438D02*
X92380952Y-47454819D01*
X92380952Y-47454819D02*
X92619047Y-47454819D01*
X92619047Y-47454819D02*
X92714285Y-47502438D01*
X92714285Y-47502438D02*
X92761904Y-47550057D01*
X92761904Y-47550057D02*
X92809523Y-47645295D01*
X92809523Y-47645295D02*
X92809523Y-47740533D01*
X92809523Y-47740533D02*
X92761904Y-47883390D01*
X92761904Y-47883390D02*
X92190476Y-48454819D01*
X92190476Y-48454819D02*
X92809523Y-48454819D01*
%TO.C,C6*%
X72042229Y-56092900D02*
X71756515Y-56587772D01*
X71899372Y-56340336D02*
X71033347Y-55840336D01*
X71033347Y-55840336D02*
X71109446Y-55994243D01*
X71109446Y-55994243D02*
X71144305Y-56124341D01*
X71144305Y-56124341D02*
X71137925Y-56230629D01*
X71893450Y-55017260D02*
X72470801Y-55350593D01*
X71679165Y-55388413D02*
X72132797Y-55650318D01*
X72132797Y-55650318D02*
X72239085Y-55656698D01*
X72239085Y-55656698D02*
X72327944Y-55598029D01*
X72327944Y-55598029D02*
X72399372Y-55474311D01*
X72399372Y-55474311D02*
X72405752Y-55368023D01*
X72405752Y-55368023D02*
X72388322Y-55302974D01*
X72421930Y-54387620D02*
X72255264Y-54676295D01*
X72708896Y-54938200D02*
X71842871Y-54438200D01*
X71842871Y-54438200D02*
X72080966Y-54025807D01*
D11*
X70504645Y-54565966D02*
X70509003Y-54582228D01*
X70509003Y-54582228D02*
X70501456Y-54619110D01*
X70501456Y-54619110D02*
X70489551Y-54639730D01*
X70489551Y-54639730D02*
X70461384Y-54664707D01*
X70461384Y-54664707D02*
X70428859Y-54673422D01*
X70428859Y-54673422D02*
X70402287Y-54671827D01*
X70402287Y-54671827D02*
X70355096Y-54658327D01*
X70355096Y-54658327D02*
X70324166Y-54640470D01*
X70324166Y-54640470D02*
X70288879Y-54606351D01*
X70288879Y-54606351D02*
X70274212Y-54584136D01*
X70274212Y-54584136D02*
X70265497Y-54551612D01*
X70265497Y-54551612D02*
X70273044Y-54514730D01*
X70273044Y-54514730D02*
X70284949Y-54494110D01*
X70284949Y-54494110D02*
X70313116Y-54469133D01*
X70313116Y-54469133D02*
X70329378Y-54464775D01*
X70415902Y-54267294D02*
X70392092Y-54308533D01*
X70392092Y-54308533D02*
X70390497Y-54335105D01*
X70390497Y-54335105D02*
X70394855Y-54351367D01*
X70394855Y-54351367D02*
X70413879Y-54389844D01*
X70413879Y-54389844D02*
X70449166Y-54423964D01*
X70449166Y-54423964D02*
X70531645Y-54471583D01*
X70531645Y-54471583D02*
X70558217Y-54473178D01*
X70558217Y-54473178D02*
X70574479Y-54468820D01*
X70574479Y-54468820D02*
X70596694Y-54454153D01*
X70596694Y-54454153D02*
X70620503Y-54412914D01*
X70620503Y-54412914D02*
X70622098Y-54386341D01*
X70622098Y-54386341D02*
X70617741Y-54370079D01*
X70617741Y-54370079D02*
X70603073Y-54347865D01*
X70603073Y-54347865D02*
X70551524Y-54318103D01*
X70551524Y-54318103D02*
X70524952Y-54316508D01*
X70524952Y-54316508D02*
X70508690Y-54320865D01*
X70508690Y-54320865D02*
X70486475Y-54335533D01*
X70486475Y-54335533D02*
X70462666Y-54376772D01*
X70462666Y-54376772D02*
X70461071Y-54403344D01*
X70461071Y-54403344D02*
X70465428Y-54419606D01*
X70465428Y-54419606D02*
X70480096Y-54441821D01*
D10*
%TO.C,H4*%
X75047618Y-61169104D02*
X75523808Y-61169104D01*
X74952380Y-61454819D02*
X75285713Y-60454819D01*
X75285713Y-60454819D02*
X75619046Y-61454819D01*
X76380951Y-61407200D02*
X76285713Y-61454819D01*
X76285713Y-61454819D02*
X76095237Y-61454819D01*
X76095237Y-61454819D02*
X75999999Y-61407200D01*
X75999999Y-61407200D02*
X75952380Y-61359580D01*
X75952380Y-61359580D02*
X75904761Y-61264342D01*
X75904761Y-61264342D02*
X75904761Y-60978628D01*
X75904761Y-60978628D02*
X75952380Y-60883390D01*
X75952380Y-60883390D02*
X75999999Y-60835771D01*
X75999999Y-60835771D02*
X76095237Y-60788152D01*
X76095237Y-60788152D02*
X76285713Y-60788152D01*
X76285713Y-60788152D02*
X76380951Y-60835771D01*
X76666666Y-60788152D02*
X77047618Y-60788152D01*
X76809523Y-60454819D02*
X76809523Y-61311961D01*
X76809523Y-61311961D02*
X76857142Y-61407200D01*
X76857142Y-61407200D02*
X76952380Y-61454819D01*
X76952380Y-61454819D02*
X77047618Y-61454819D01*
X77809523Y-60788152D02*
X77809523Y-61454819D01*
X77380952Y-60788152D02*
X77380952Y-61311961D01*
X77380952Y-61311961D02*
X77428571Y-61407200D01*
X77428571Y-61407200D02*
X77523809Y-61454819D01*
X77523809Y-61454819D02*
X77666666Y-61454819D01*
X77666666Y-61454819D02*
X77761904Y-61407200D01*
X77761904Y-61407200D02*
X77809523Y-61359580D01*
X78714285Y-61454819D02*
X78714285Y-60931009D01*
X78714285Y-60931009D02*
X78666666Y-60835771D01*
X78666666Y-60835771D02*
X78571428Y-60788152D01*
X78571428Y-60788152D02*
X78380952Y-60788152D01*
X78380952Y-60788152D02*
X78285714Y-60835771D01*
X78714285Y-61407200D02*
X78619047Y-61454819D01*
X78619047Y-61454819D02*
X78380952Y-61454819D01*
X78380952Y-61454819D02*
X78285714Y-61407200D01*
X78285714Y-61407200D02*
X78238095Y-61311961D01*
X78238095Y-61311961D02*
X78238095Y-61216723D01*
X78238095Y-61216723D02*
X78285714Y-61121485D01*
X78285714Y-61121485D02*
X78380952Y-61073866D01*
X78380952Y-61073866D02*
X78619047Y-61073866D01*
X78619047Y-61073866D02*
X78714285Y-61026247D01*
X79047619Y-60788152D02*
X79428571Y-60788152D01*
X79190476Y-60454819D02*
X79190476Y-61311961D01*
X79190476Y-61311961D02*
X79238095Y-61407200D01*
X79238095Y-61407200D02*
X79333333Y-61454819D01*
X79333333Y-61454819D02*
X79428571Y-61454819D01*
X79904762Y-61454819D02*
X79809524Y-61407200D01*
X79809524Y-61407200D02*
X79761905Y-61359580D01*
X79761905Y-61359580D02*
X79714286Y-61264342D01*
X79714286Y-61264342D02*
X79714286Y-60978628D01*
X79714286Y-60978628D02*
X79761905Y-60883390D01*
X79761905Y-60883390D02*
X79809524Y-60835771D01*
X79809524Y-60835771D02*
X79904762Y-60788152D01*
X79904762Y-60788152D02*
X80047619Y-60788152D01*
X80047619Y-60788152D02*
X80142857Y-60835771D01*
X80142857Y-60835771D02*
X80190476Y-60883390D01*
X80190476Y-60883390D02*
X80238095Y-60978628D01*
X80238095Y-60978628D02*
X80238095Y-61264342D01*
X80238095Y-61264342D02*
X80190476Y-61359580D01*
X80190476Y-61359580D02*
X80142857Y-61407200D01*
X80142857Y-61407200D02*
X80047619Y-61454819D01*
X80047619Y-61454819D02*
X79904762Y-61454819D01*
X80666667Y-61454819D02*
X80666667Y-60788152D01*
X80666667Y-60978628D02*
X80714286Y-60883390D01*
X80714286Y-60883390D02*
X80761905Y-60835771D01*
X80761905Y-60835771D02*
X80857143Y-60788152D01*
X80857143Y-60788152D02*
X80952381Y-60788152D01*
X82047620Y-61454819D02*
X82047620Y-60454819D01*
X82047620Y-60931009D02*
X82619048Y-60931009D01*
X82619048Y-61454819D02*
X82619048Y-60454819D01*
X83238096Y-61454819D02*
X83142858Y-61407200D01*
X83142858Y-61407200D02*
X83095239Y-61359580D01*
X83095239Y-61359580D02*
X83047620Y-61264342D01*
X83047620Y-61264342D02*
X83047620Y-60978628D01*
X83047620Y-60978628D02*
X83095239Y-60883390D01*
X83095239Y-60883390D02*
X83142858Y-60835771D01*
X83142858Y-60835771D02*
X83238096Y-60788152D01*
X83238096Y-60788152D02*
X83380953Y-60788152D01*
X83380953Y-60788152D02*
X83476191Y-60835771D01*
X83476191Y-60835771D02*
X83523810Y-60883390D01*
X83523810Y-60883390D02*
X83571429Y-60978628D01*
X83571429Y-60978628D02*
X83571429Y-61264342D01*
X83571429Y-61264342D02*
X83523810Y-61359580D01*
X83523810Y-61359580D02*
X83476191Y-61407200D01*
X83476191Y-61407200D02*
X83380953Y-61454819D01*
X83380953Y-61454819D02*
X83238096Y-61454819D01*
X84142858Y-61454819D02*
X84047620Y-61407200D01*
X84047620Y-61407200D02*
X84000001Y-61311961D01*
X84000001Y-61311961D02*
X84000001Y-60454819D01*
X84904763Y-61407200D02*
X84809525Y-61454819D01*
X84809525Y-61454819D02*
X84619049Y-61454819D01*
X84619049Y-61454819D02*
X84523811Y-61407200D01*
X84523811Y-61407200D02*
X84476192Y-61311961D01*
X84476192Y-61311961D02*
X84476192Y-60931009D01*
X84476192Y-60931009D02*
X84523811Y-60835771D01*
X84523811Y-60835771D02*
X84619049Y-60788152D01*
X84619049Y-60788152D02*
X84809525Y-60788152D01*
X84809525Y-60788152D02*
X84904763Y-60835771D01*
X84904763Y-60835771D02*
X84952382Y-60931009D01*
X84952382Y-60931009D02*
X84952382Y-61026247D01*
X84952382Y-61026247D02*
X84476192Y-61121485D01*
X79238095Y-62954819D02*
X79238095Y-61954819D01*
X79238095Y-62431009D02*
X79809523Y-62431009D01*
X79809523Y-62954819D02*
X79809523Y-61954819D01*
X80714285Y-62288152D02*
X80714285Y-62954819D01*
X80476190Y-61907200D02*
X80238095Y-62621485D01*
X80238095Y-62621485D02*
X80857142Y-62621485D01*
%TO.C,C9*%
X74607099Y-68150301D02*
X74112227Y-67864587D01*
X74359663Y-68007444D02*
X74859663Y-67141419D01*
X74859663Y-67141419D02*
X74705756Y-67217518D01*
X74705756Y-67217518D02*
X74575658Y-67252377D01*
X74575658Y-67252377D02*
X74469370Y-67245997D01*
X75682739Y-68001522D02*
X75349406Y-68578873D01*
X75311586Y-67787237D02*
X75049681Y-68240869D01*
X75049681Y-68240869D02*
X75043301Y-68347157D01*
X75043301Y-68347157D02*
X75101970Y-68436016D01*
X75101970Y-68436016D02*
X75225688Y-68507444D01*
X75225688Y-68507444D02*
X75331976Y-68513824D01*
X75331976Y-68513824D02*
X75397025Y-68496394D01*
X76312379Y-68530002D02*
X76023704Y-68363336D01*
X75761799Y-68816968D02*
X76261799Y-67950943D01*
X76261799Y-67950943D02*
X76674192Y-68189038D01*
D11*
X74404033Y-69609165D02*
X74387771Y-69613523D01*
X74387771Y-69613523D02*
X74350889Y-69605976D01*
X74350889Y-69605976D02*
X74330269Y-69594071D01*
X74330269Y-69594071D02*
X74305292Y-69565904D01*
X74305292Y-69565904D02*
X74296577Y-69533379D01*
X74296577Y-69533379D02*
X74298172Y-69506807D01*
X74298172Y-69506807D02*
X74311672Y-69459616D01*
X74311672Y-69459616D02*
X74329529Y-69428686D01*
X74329529Y-69428686D02*
X74363648Y-69393399D01*
X74363648Y-69393399D02*
X74385863Y-69378732D01*
X74385863Y-69378732D02*
X74418387Y-69370017D01*
X74418387Y-69370017D02*
X74455269Y-69377564D01*
X74455269Y-69377564D02*
X74475889Y-69389469D01*
X74475889Y-69389469D02*
X74500866Y-69417636D01*
X74500866Y-69417636D02*
X74505224Y-69433898D01*
X74495227Y-69689309D02*
X74536466Y-69713118D01*
X74536466Y-69713118D02*
X74563038Y-69714713D01*
X74563038Y-69714713D02*
X74579300Y-69710356D01*
X74579300Y-69710356D02*
X74617777Y-69691331D01*
X74617777Y-69691331D02*
X74651896Y-69656044D01*
X74651896Y-69656044D02*
X74699515Y-69573566D01*
X74699515Y-69573566D02*
X74701110Y-69546994D01*
X74701110Y-69546994D02*
X74696753Y-69530731D01*
X74696753Y-69530731D02*
X74682085Y-69508517D01*
X74682085Y-69508517D02*
X74640846Y-69484707D01*
X74640846Y-69484707D02*
X74614274Y-69483112D01*
X74614274Y-69483112D02*
X74598012Y-69487470D01*
X74598012Y-69487470D02*
X74575797Y-69502137D01*
X74575797Y-69502137D02*
X74546035Y-69553686D01*
X74546035Y-69553686D02*
X74544441Y-69580258D01*
X74544441Y-69580258D02*
X74548798Y-69596520D01*
X74548798Y-69596520D02*
X74563465Y-69618735D01*
X74563465Y-69618735D02*
X74604705Y-69642545D01*
X74604705Y-69642545D02*
X74631277Y-69644140D01*
X74631277Y-69644140D02*
X74647539Y-69639782D01*
X74647539Y-69639782D02*
X74669753Y-69625115D01*
D10*
%TO.C,C7*%
X71154819Y-60595238D02*
X71154819Y-61166666D01*
X71154819Y-60880952D02*
X70154819Y-60880952D01*
X70154819Y-60880952D02*
X70297676Y-60976190D01*
X70297676Y-60976190D02*
X70392914Y-61071428D01*
X70392914Y-61071428D02*
X70440533Y-61166666D01*
X70488152Y-59738095D02*
X71154819Y-59738095D01*
X70488152Y-60166666D02*
X71011961Y-60166666D01*
X71011961Y-60166666D02*
X71107200Y-60119047D01*
X71107200Y-60119047D02*
X71154819Y-60023809D01*
X71154819Y-60023809D02*
X71154819Y-59880952D01*
X71154819Y-59880952D02*
X71107200Y-59785714D01*
X71107200Y-59785714D02*
X71059580Y-59738095D01*
X70631009Y-58928571D02*
X70631009Y-59261904D01*
X71154819Y-59261904D02*
X70154819Y-59261904D01*
X70154819Y-59261904D02*
X70154819Y-58785714D01*
D11*
X69059765Y-60041666D02*
X69071670Y-60053570D01*
X69071670Y-60053570D02*
X69083574Y-60089285D01*
X69083574Y-60089285D02*
X69083574Y-60113094D01*
X69083574Y-60113094D02*
X69071670Y-60148808D01*
X69071670Y-60148808D02*
X69047860Y-60172618D01*
X69047860Y-60172618D02*
X69024050Y-60184523D01*
X69024050Y-60184523D02*
X68976431Y-60196427D01*
X68976431Y-60196427D02*
X68940717Y-60196427D01*
X68940717Y-60196427D02*
X68893098Y-60184523D01*
X68893098Y-60184523D02*
X68869289Y-60172618D01*
X68869289Y-60172618D02*
X68845479Y-60148808D01*
X68845479Y-60148808D02*
X68833574Y-60113094D01*
X68833574Y-60113094D02*
X68833574Y-60089285D01*
X68833574Y-60089285D02*
X68845479Y-60053570D01*
X68845479Y-60053570D02*
X68857384Y-60041666D01*
X68833574Y-59958332D02*
X68833574Y-59791666D01*
X68833574Y-59791666D02*
X69083574Y-59898808D01*
D10*
%TO.C,C10*%
X79404761Y-69754819D02*
X78833333Y-69754819D01*
X79119047Y-69754819D02*
X79119047Y-68754819D01*
X79119047Y-68754819D02*
X79023809Y-68897676D01*
X79023809Y-68897676D02*
X78928571Y-68992914D01*
X78928571Y-68992914D02*
X78833333Y-69040533D01*
X80261904Y-69088152D02*
X80261904Y-69754819D01*
X79833333Y-69088152D02*
X79833333Y-69611961D01*
X79833333Y-69611961D02*
X79880952Y-69707200D01*
X79880952Y-69707200D02*
X79976190Y-69754819D01*
X79976190Y-69754819D02*
X80119047Y-69754819D01*
X80119047Y-69754819D02*
X80214285Y-69707200D01*
X80214285Y-69707200D02*
X80261904Y-69659580D01*
X81071428Y-69231009D02*
X80738095Y-69231009D01*
X80738095Y-69754819D02*
X80738095Y-68754819D01*
X80738095Y-68754819D02*
X81214285Y-68754819D01*
D11*
X79839285Y-71119765D02*
X79827381Y-71131670D01*
X79827381Y-71131670D02*
X79791666Y-71143574D01*
X79791666Y-71143574D02*
X79767857Y-71143574D01*
X79767857Y-71143574D02*
X79732143Y-71131670D01*
X79732143Y-71131670D02*
X79708333Y-71107860D01*
X79708333Y-71107860D02*
X79696428Y-71084050D01*
X79696428Y-71084050D02*
X79684524Y-71036431D01*
X79684524Y-71036431D02*
X79684524Y-71000717D01*
X79684524Y-71000717D02*
X79696428Y-70953098D01*
X79696428Y-70953098D02*
X79708333Y-70929289D01*
X79708333Y-70929289D02*
X79732143Y-70905479D01*
X79732143Y-70905479D02*
X79767857Y-70893574D01*
X79767857Y-70893574D02*
X79791666Y-70893574D01*
X79791666Y-70893574D02*
X79827381Y-70905479D01*
X79827381Y-70905479D02*
X79839285Y-70917384D01*
X80077381Y-71143574D02*
X79934524Y-71143574D01*
X80005952Y-71143574D02*
X80005952Y-70893574D01*
X80005952Y-70893574D02*
X79982143Y-70929289D01*
X79982143Y-70929289D02*
X79958333Y-70953098D01*
X79958333Y-70953098D02*
X79934524Y-70965003D01*
X80232142Y-70893574D02*
X80255952Y-70893574D01*
X80255952Y-70893574D02*
X80279761Y-70905479D01*
X80279761Y-70905479D02*
X80291666Y-70917384D01*
X80291666Y-70917384D02*
X80303571Y-70941193D01*
X80303571Y-70941193D02*
X80315476Y-70988812D01*
X80315476Y-70988812D02*
X80315476Y-71048336D01*
X80315476Y-71048336D02*
X80303571Y-71095955D01*
X80303571Y-71095955D02*
X80291666Y-71119765D01*
X80291666Y-71119765D02*
X80279761Y-71131670D01*
X80279761Y-71131670D02*
X80255952Y-71143574D01*
X80255952Y-71143574D02*
X80232142Y-71143574D01*
X80232142Y-71143574D02*
X80208333Y-71131670D01*
X80208333Y-71131670D02*
X80196428Y-71119765D01*
X80196428Y-71119765D02*
X80184523Y-71095955D01*
X80184523Y-71095955D02*
X80172619Y-71048336D01*
X80172619Y-71048336D02*
X80172619Y-70988812D01*
X80172619Y-70988812D02*
X80184523Y-70941193D01*
X80184523Y-70941193D02*
X80196428Y-70917384D01*
X80196428Y-70917384D02*
X80208333Y-70905479D01*
X80208333Y-70905479D02*
X80232142Y-70893574D01*
D10*
%TO.C,C3*%
X83907099Y-52042229D02*
X83412227Y-51756515D01*
X83659663Y-51899372D02*
X84159663Y-51033347D01*
X84159663Y-51033347D02*
X84005756Y-51109446D01*
X84005756Y-51109446D02*
X83875658Y-51144305D01*
X83875658Y-51144305D02*
X83769370Y-51137925D01*
X84982739Y-51893450D02*
X84649406Y-52470801D01*
X84611586Y-51679165D02*
X84349681Y-52132797D01*
X84349681Y-52132797D02*
X84343301Y-52239085D01*
X84343301Y-52239085D02*
X84401970Y-52327944D01*
X84401970Y-52327944D02*
X84525688Y-52399372D01*
X84525688Y-52399372D02*
X84631976Y-52405752D01*
X84631976Y-52405752D02*
X84697025Y-52388322D01*
X85612379Y-52421930D02*
X85323704Y-52255264D01*
X85061799Y-52708896D02*
X85561799Y-51842871D01*
X85561799Y-51842871D02*
X85974192Y-52080966D01*
D11*
X85434033Y-50504645D02*
X85417771Y-50509003D01*
X85417771Y-50509003D02*
X85380889Y-50501456D01*
X85380889Y-50501456D02*
X85360269Y-50489551D01*
X85360269Y-50489551D02*
X85335292Y-50461384D01*
X85335292Y-50461384D02*
X85326577Y-50428859D01*
X85326577Y-50428859D02*
X85328172Y-50402287D01*
X85328172Y-50402287D02*
X85341672Y-50355096D01*
X85341672Y-50355096D02*
X85359529Y-50324166D01*
X85359529Y-50324166D02*
X85393648Y-50288879D01*
X85393648Y-50288879D02*
X85415863Y-50274212D01*
X85415863Y-50274212D02*
X85448387Y-50265497D01*
X85448387Y-50265497D02*
X85485269Y-50273044D01*
X85485269Y-50273044D02*
X85505889Y-50284949D01*
X85505889Y-50284949D02*
X85530866Y-50313116D01*
X85530866Y-50313116D02*
X85535224Y-50329378D01*
X85619297Y-50350425D02*
X85753325Y-50427806D01*
X85753325Y-50427806D02*
X85633537Y-50468618D01*
X85633537Y-50468618D02*
X85664466Y-50486475D01*
X85664466Y-50486475D02*
X85679134Y-50508690D01*
X85679134Y-50508690D02*
X85683491Y-50524952D01*
X85683491Y-50524952D02*
X85681896Y-50551524D01*
X85681896Y-50551524D02*
X85652134Y-50603073D01*
X85652134Y-50603073D02*
X85629920Y-50617741D01*
X85629920Y-50617741D02*
X85613658Y-50622098D01*
X85613658Y-50622098D02*
X85587085Y-50620503D01*
X85587085Y-50620503D02*
X85525227Y-50584789D01*
X85525227Y-50584789D02*
X85510559Y-50562574D01*
X85510559Y-50562574D02*
X85506202Y-50546312D01*
D10*
%TO.C,C2*%
X87362532Y-55061918D02*
X87076817Y-54567046D01*
X87219674Y-54814482D02*
X88085700Y-54314482D01*
X88085700Y-54314482D02*
X87914363Y-54303432D01*
X87914363Y-54303432D02*
X87784265Y-54268572D01*
X87784265Y-54268572D02*
X87695407Y-54209903D01*
X88368453Y-55470892D02*
X87791103Y-55804225D01*
X88154168Y-55099738D02*
X87700535Y-55361643D01*
X87700535Y-55361643D02*
X87641866Y-55450501D01*
X87641866Y-55450501D02*
X87648246Y-55556789D01*
X87648246Y-55556789D02*
X87719674Y-55680507D01*
X87719674Y-55680507D02*
X87808533Y-55739176D01*
X87808533Y-55739176D02*
X87873582Y-55756606D01*
X88649497Y-56243389D02*
X88482831Y-55954713D01*
X88029198Y-56216618D02*
X88895224Y-55716618D01*
X88895224Y-55716618D02*
X89133319Y-56129011D01*
D11*
X89453687Y-54493798D02*
X89437425Y-54489441D01*
X89437425Y-54489441D02*
X89409258Y-54464464D01*
X89409258Y-54464464D02*
X89397354Y-54443844D01*
X89397354Y-54443844D02*
X89389806Y-54406962D01*
X89389806Y-54406962D02*
X89398521Y-54374438D01*
X89398521Y-54374438D02*
X89413188Y-54352223D01*
X89413188Y-54352223D02*
X89448475Y-54318104D01*
X89448475Y-54318104D02*
X89479405Y-54300247D01*
X89479405Y-54300247D02*
X89526596Y-54286747D01*
X89526596Y-54286747D02*
X89553169Y-54285152D01*
X89553169Y-54285152D02*
X89585693Y-54293867D01*
X89585693Y-54293867D02*
X89613860Y-54318844D01*
X89613860Y-54318844D02*
X89625765Y-54339464D01*
X89625765Y-54339464D02*
X89633312Y-54376346D01*
X89633312Y-54376346D02*
X89628955Y-54392608D01*
X89676574Y-54475086D02*
X89692836Y-54479444D01*
X89692836Y-54479444D02*
X89715050Y-54494111D01*
X89715050Y-54494111D02*
X89744812Y-54545660D01*
X89744812Y-54545660D02*
X89746407Y-54572232D01*
X89746407Y-54572232D02*
X89742050Y-54588494D01*
X89742050Y-54588494D02*
X89727383Y-54610709D01*
X89727383Y-54610709D02*
X89706763Y-54622614D01*
X89706763Y-54622614D02*
X89669881Y-54630161D01*
X89669881Y-54630161D02*
X89474735Y-54577872D01*
X89474735Y-54577872D02*
X89552115Y-54711900D01*
D10*
%TO.C,C5*%
X75061918Y-52637467D02*
X74567046Y-52923182D01*
X74814482Y-52780325D02*
X74314482Y-51914299D01*
X74314482Y-51914299D02*
X74303432Y-52085636D01*
X74303432Y-52085636D02*
X74268572Y-52215734D01*
X74268572Y-52215734D02*
X74209903Y-52304592D01*
X75470892Y-51631546D02*
X75804225Y-52208896D01*
X75099738Y-51845831D02*
X75361643Y-52299464D01*
X75361643Y-52299464D02*
X75450501Y-52358133D01*
X75450501Y-52358133D02*
X75556789Y-52351753D01*
X75556789Y-52351753D02*
X75680507Y-52280325D01*
X75680507Y-52280325D02*
X75739176Y-52191466D01*
X75739176Y-52191466D02*
X75756606Y-52126417D01*
X76243389Y-51350502D02*
X75954713Y-51517168D01*
X76216618Y-51970801D02*
X75716618Y-51104775D01*
X75716618Y-51104775D02*
X76129011Y-50866680D01*
D11*
X74493798Y-50546312D02*
X74489441Y-50562574D01*
X74489441Y-50562574D02*
X74464464Y-50590741D01*
X74464464Y-50590741D02*
X74443844Y-50602645D01*
X74443844Y-50602645D02*
X74406962Y-50610193D01*
X74406962Y-50610193D02*
X74374438Y-50601478D01*
X74374438Y-50601478D02*
X74352223Y-50586811D01*
X74352223Y-50586811D02*
X74318104Y-50551524D01*
X74318104Y-50551524D02*
X74300247Y-50520594D01*
X74300247Y-50520594D02*
X74286747Y-50473403D01*
X74286747Y-50473403D02*
X74285152Y-50446830D01*
X74285152Y-50446830D02*
X74293867Y-50414306D01*
X74293867Y-50414306D02*
X74318844Y-50386139D01*
X74318844Y-50386139D02*
X74339464Y-50374234D01*
X74339464Y-50374234D02*
X74376346Y-50366687D01*
X74376346Y-50366687D02*
X74392608Y-50371044D01*
X74576590Y-50237330D02*
X74473491Y-50296853D01*
X74473491Y-50296853D02*
X74522705Y-50405904D01*
X74522705Y-50405904D02*
X74527063Y-50389642D01*
X74527063Y-50389642D02*
X74541730Y-50367427D01*
X74541730Y-50367427D02*
X74593279Y-50337665D01*
X74593279Y-50337665D02*
X74619851Y-50336070D01*
X74619851Y-50336070D02*
X74636114Y-50340428D01*
X74636114Y-50340428D02*
X74658328Y-50355095D01*
X74658328Y-50355095D02*
X74688090Y-50406644D01*
X74688090Y-50406644D02*
X74689685Y-50433216D01*
X74689685Y-50433216D02*
X74685328Y-50449478D01*
X74685328Y-50449478D02*
X74670660Y-50471693D01*
X74670660Y-50471693D02*
X74619111Y-50501455D01*
X74619111Y-50501455D02*
X74592539Y-50503050D01*
X74592539Y-50503050D02*
X74576277Y-50498692D01*
D10*
%TO.C,H1*%
X63214285Y-75654819D02*
X63214285Y-74654819D01*
X63214285Y-74654819D02*
X63547618Y-75369104D01*
X63547618Y-75369104D02*
X63880951Y-74654819D01*
X63880951Y-74654819D02*
X63880951Y-75654819D01*
X64499999Y-75654819D02*
X64404761Y-75607200D01*
X64404761Y-75607200D02*
X64357142Y-75559580D01*
X64357142Y-75559580D02*
X64309523Y-75464342D01*
X64309523Y-75464342D02*
X64309523Y-75178628D01*
X64309523Y-75178628D02*
X64357142Y-75083390D01*
X64357142Y-75083390D02*
X64404761Y-75035771D01*
X64404761Y-75035771D02*
X64499999Y-74988152D01*
X64499999Y-74988152D02*
X64642856Y-74988152D01*
X64642856Y-74988152D02*
X64738094Y-75035771D01*
X64738094Y-75035771D02*
X64785713Y-75083390D01*
X64785713Y-75083390D02*
X64833332Y-75178628D01*
X64833332Y-75178628D02*
X64833332Y-75464342D01*
X64833332Y-75464342D02*
X64785713Y-75559580D01*
X64785713Y-75559580D02*
X64738094Y-75607200D01*
X64738094Y-75607200D02*
X64642856Y-75654819D01*
X64642856Y-75654819D02*
X64499999Y-75654819D01*
X65690475Y-74988152D02*
X65690475Y-75654819D01*
X65261904Y-74988152D02*
X65261904Y-75511961D01*
X65261904Y-75511961D02*
X65309523Y-75607200D01*
X65309523Y-75607200D02*
X65404761Y-75654819D01*
X65404761Y-75654819D02*
X65547618Y-75654819D01*
X65547618Y-75654819D02*
X65642856Y-75607200D01*
X65642856Y-75607200D02*
X65690475Y-75559580D01*
X66166666Y-74988152D02*
X66166666Y-75654819D01*
X66166666Y-75083390D02*
X66214285Y-75035771D01*
X66214285Y-75035771D02*
X66309523Y-74988152D01*
X66309523Y-74988152D02*
X66452380Y-74988152D01*
X66452380Y-74988152D02*
X66547618Y-75035771D01*
X66547618Y-75035771D02*
X66595237Y-75131009D01*
X66595237Y-75131009D02*
X66595237Y-75654819D01*
X66928571Y-74988152D02*
X67309523Y-74988152D01*
X67071428Y-74654819D02*
X67071428Y-75511961D01*
X67071428Y-75511961D02*
X67119047Y-75607200D01*
X67119047Y-75607200D02*
X67214285Y-75654819D01*
X67214285Y-75654819D02*
X67309523Y-75654819D01*
X67642857Y-75654819D02*
X67642857Y-74988152D01*
X67642857Y-74654819D02*
X67595238Y-74702438D01*
X67595238Y-74702438D02*
X67642857Y-74750057D01*
X67642857Y-74750057D02*
X67690476Y-74702438D01*
X67690476Y-74702438D02*
X67642857Y-74654819D01*
X67642857Y-74654819D02*
X67642857Y-74750057D01*
X68119047Y-74988152D02*
X68119047Y-75654819D01*
X68119047Y-75083390D02*
X68166666Y-75035771D01*
X68166666Y-75035771D02*
X68261904Y-74988152D01*
X68261904Y-74988152D02*
X68404761Y-74988152D01*
X68404761Y-74988152D02*
X68499999Y-75035771D01*
X68499999Y-75035771D02*
X68547618Y-75131009D01*
X68547618Y-75131009D02*
X68547618Y-75654819D01*
X69452380Y-74988152D02*
X69452380Y-75797676D01*
X69452380Y-75797676D02*
X69404761Y-75892914D01*
X69404761Y-75892914D02*
X69357142Y-75940533D01*
X69357142Y-75940533D02*
X69261904Y-75988152D01*
X69261904Y-75988152D02*
X69119047Y-75988152D01*
X69119047Y-75988152D02*
X69023809Y-75940533D01*
X69452380Y-75607200D02*
X69357142Y-75654819D01*
X69357142Y-75654819D02*
X69166666Y-75654819D01*
X69166666Y-75654819D02*
X69071428Y-75607200D01*
X69071428Y-75607200D02*
X69023809Y-75559580D01*
X69023809Y-75559580D02*
X68976190Y-75464342D01*
X68976190Y-75464342D02*
X68976190Y-75178628D01*
X68976190Y-75178628D02*
X69023809Y-75083390D01*
X69023809Y-75083390D02*
X69071428Y-75035771D01*
X69071428Y-75035771D02*
X69166666Y-74988152D01*
X69166666Y-74988152D02*
X69357142Y-74988152D01*
X69357142Y-74988152D02*
X69452380Y-75035771D01*
X69928571Y-75654819D02*
X69928571Y-74654819D01*
X69928571Y-75131009D02*
X70499999Y-75131009D01*
X70499999Y-75654819D02*
X70499999Y-74654819D01*
X71119047Y-75654819D02*
X71023809Y-75607200D01*
X71023809Y-75607200D02*
X70976190Y-75559580D01*
X70976190Y-75559580D02*
X70928571Y-75464342D01*
X70928571Y-75464342D02*
X70928571Y-75178628D01*
X70928571Y-75178628D02*
X70976190Y-75083390D01*
X70976190Y-75083390D02*
X71023809Y-75035771D01*
X71023809Y-75035771D02*
X71119047Y-74988152D01*
X71119047Y-74988152D02*
X71261904Y-74988152D01*
X71261904Y-74988152D02*
X71357142Y-75035771D01*
X71357142Y-75035771D02*
X71404761Y-75083390D01*
X71404761Y-75083390D02*
X71452380Y-75178628D01*
X71452380Y-75178628D02*
X71452380Y-75464342D01*
X71452380Y-75464342D02*
X71404761Y-75559580D01*
X71404761Y-75559580D02*
X71357142Y-75607200D01*
X71357142Y-75607200D02*
X71261904Y-75654819D01*
X71261904Y-75654819D02*
X71119047Y-75654819D01*
X72023809Y-75654819D02*
X71928571Y-75607200D01*
X71928571Y-75607200D02*
X71880952Y-75511961D01*
X71880952Y-75511961D02*
X71880952Y-74654819D01*
X72785714Y-75607200D02*
X72690476Y-75654819D01*
X72690476Y-75654819D02*
X72500000Y-75654819D01*
X72500000Y-75654819D02*
X72404762Y-75607200D01*
X72404762Y-75607200D02*
X72357143Y-75511961D01*
X72357143Y-75511961D02*
X72357143Y-75131009D01*
X72357143Y-75131009D02*
X72404762Y-75035771D01*
X72404762Y-75035771D02*
X72500000Y-74988152D01*
X72500000Y-74988152D02*
X72690476Y-74988152D01*
X72690476Y-74988152D02*
X72785714Y-75035771D01*
X72785714Y-75035771D02*
X72833333Y-75131009D01*
X72833333Y-75131009D02*
X72833333Y-75226247D01*
X72833333Y-75226247D02*
X72357143Y-75321485D01*
X67238095Y-72454819D02*
X67238095Y-71454819D01*
X67238095Y-71931009D02*
X67809523Y-71931009D01*
X67809523Y-72454819D02*
X67809523Y-71454819D01*
X68809523Y-72454819D02*
X68238095Y-72454819D01*
X68523809Y-72454819D02*
X68523809Y-71454819D01*
X68523809Y-71454819D02*
X68428571Y-71597676D01*
X68428571Y-71597676D02*
X68333333Y-71692914D01*
X68333333Y-71692914D02*
X68238095Y-71740533D01*
%TO.C,D2*%
X84563321Y-59856284D02*
X84710848Y-59826095D01*
X84710848Y-59826095D02*
X84917045Y-59707048D01*
X84917045Y-59707048D02*
X84975714Y-59618189D01*
X84975714Y-59618189D02*
X84993144Y-59553140D01*
X84993144Y-59553140D02*
X84986764Y-59446852D01*
X84986764Y-59446852D02*
X84939145Y-59364374D01*
X84939145Y-59364374D02*
X84850287Y-59305705D01*
X84850287Y-59305705D02*
X84785238Y-59288275D01*
X84785238Y-59288275D02*
X84678950Y-59294655D01*
X84678950Y-59294655D02*
X84490183Y-59348653D01*
X84490183Y-59348653D02*
X84383895Y-59355033D01*
X84383895Y-59355033D02*
X84318846Y-59337603D01*
X84318846Y-59337603D02*
X84229988Y-59278934D01*
X84229988Y-59278934D02*
X84182368Y-59196456D01*
X84182368Y-59196456D02*
X84175989Y-59090167D01*
X84175989Y-59090167D02*
X84193419Y-59025119D01*
X84193419Y-59025119D02*
X84252088Y-58936260D01*
X84252088Y-58936260D02*
X84458284Y-58817213D01*
X84458284Y-58817213D02*
X84605812Y-58787023D01*
X85453156Y-59397524D02*
X84953156Y-58531498D01*
X85948027Y-59111809D02*
X85291159Y-58831223D01*
X85448027Y-58245784D02*
X85238870Y-59026370D01*
X86190335Y-57817213D02*
X86025378Y-57912451D01*
X86025378Y-57912451D02*
X85966709Y-58001309D01*
X85966709Y-58001309D02*
X85949279Y-58066358D01*
X85949279Y-58066358D02*
X85938229Y-58237695D01*
X85938229Y-58237695D02*
X85992228Y-58426462D01*
X85992228Y-58426462D02*
X86182704Y-58756376D01*
X86182704Y-58756376D02*
X86271562Y-58815045D01*
X86271562Y-58815045D02*
X86336611Y-58832475D01*
X86336611Y-58832475D02*
X86442899Y-58826095D01*
X86442899Y-58826095D02*
X86607856Y-58730857D01*
X86607856Y-58730857D02*
X86666525Y-58641999D01*
X86666525Y-58641999D02*
X86683955Y-58576950D01*
X86683955Y-58576950D02*
X86677575Y-58470662D01*
X86677575Y-58470662D02*
X86558528Y-58264465D01*
X86558528Y-58264465D02*
X86469670Y-58205796D01*
X86469670Y-58205796D02*
X86404621Y-58188366D01*
X86404621Y-58188366D02*
X86298333Y-58194746D01*
X86298333Y-58194746D02*
X86133375Y-58289984D01*
X86133375Y-58289984D02*
X86074706Y-58378843D01*
X86074706Y-58378843D02*
X86057276Y-58443891D01*
X86057276Y-58443891D02*
X86063656Y-58550180D01*
X86981971Y-57855033D02*
X86875683Y-57861413D01*
X86875683Y-57861413D02*
X86810634Y-57843983D01*
X86810634Y-57843983D02*
X86721776Y-57785314D01*
X86721776Y-57785314D02*
X86697966Y-57744075D01*
X86697966Y-57744075D02*
X86691586Y-57637786D01*
X86691586Y-57637786D02*
X86709016Y-57572738D01*
X86709016Y-57572738D02*
X86767685Y-57483879D01*
X86767685Y-57483879D02*
X86932642Y-57388641D01*
X86932642Y-57388641D02*
X87038931Y-57382261D01*
X87038931Y-57382261D02*
X87103979Y-57399691D01*
X87103979Y-57399691D02*
X87192838Y-57458360D01*
X87192838Y-57458360D02*
X87216647Y-57499600D01*
X87216647Y-57499600D02*
X87223027Y-57605888D01*
X87223027Y-57605888D02*
X87205597Y-57670937D01*
X87205597Y-57670937D02*
X87146928Y-57759795D01*
X87146928Y-57759795D02*
X86981971Y-57855033D01*
X86981971Y-57855033D02*
X86923302Y-57943891D01*
X86923302Y-57943891D02*
X86905872Y-58008940D01*
X86905872Y-58008940D02*
X86912252Y-58115228D01*
X86912252Y-58115228D02*
X87007490Y-58280186D01*
X87007490Y-58280186D02*
X87096348Y-58338855D01*
X87096348Y-58338855D02*
X87161397Y-58356284D01*
X87161397Y-58356284D02*
X87267685Y-58349905D01*
X87267685Y-58349905D02*
X87432642Y-58254667D01*
X87432642Y-58254667D02*
X87491312Y-58165808D01*
X87491312Y-58165808D02*
X87508741Y-58100759D01*
X87508741Y-58100759D02*
X87502362Y-57994471D01*
X87502362Y-57994471D02*
X87407124Y-57829514D01*
X87407124Y-57829514D02*
X87318265Y-57770845D01*
X87318265Y-57770845D02*
X87253216Y-57753415D01*
X87253216Y-57753415D02*
X87146928Y-57759795D01*
X88422386Y-57683238D02*
X87927514Y-57968952D01*
X88174950Y-57826095D02*
X87674950Y-56960070D01*
X87674950Y-56960070D02*
X87663900Y-57131407D01*
X87663900Y-57131407D02*
X87629040Y-57261504D01*
X87629040Y-57261504D02*
X87570371Y-57350363D01*
X88299919Y-56709215D02*
X88317349Y-56644166D01*
X88317349Y-56644166D02*
X88376018Y-56555308D01*
X88376018Y-56555308D02*
X88582215Y-56436260D01*
X88582215Y-56436260D02*
X88688503Y-56429880D01*
X88688503Y-56429880D02*
X88753552Y-56447310D01*
X88753552Y-56447310D02*
X88842410Y-56505979D01*
X88842410Y-56505979D02*
X88890029Y-56588458D01*
X88890029Y-56588458D02*
X88920218Y-56735985D01*
X88920218Y-56735985D02*
X88711061Y-57516571D01*
X88711061Y-57516571D02*
X89247172Y-57207047D01*
X89459748Y-57194288D02*
X90119577Y-56813336D01*
X90016250Y-56158177D02*
X90304925Y-55991510D01*
X90690548Y-56373714D02*
X90278155Y-56611809D01*
X90278155Y-56611809D02*
X89778155Y-55745784D01*
X89778155Y-55745784D02*
X90190548Y-55507689D01*
X91508954Y-55791235D02*
X91491525Y-55856284D01*
X91491525Y-55856284D02*
X91391616Y-55968952D01*
X91391616Y-55968952D02*
X91309138Y-56016571D01*
X91309138Y-56016571D02*
X91161610Y-56046760D01*
X91161610Y-56046760D02*
X91031512Y-56011901D01*
X91031512Y-56011901D02*
X90942654Y-55953232D01*
X90942654Y-55953232D02*
X90806177Y-55812084D01*
X90806177Y-55812084D02*
X90734748Y-55688366D01*
X90734748Y-55688366D02*
X90680749Y-55499599D01*
X90680749Y-55499599D02*
X90674370Y-55393311D01*
X90674370Y-55393311D02*
X90709229Y-55263214D01*
X90709229Y-55263214D02*
X90809138Y-55150546D01*
X90809138Y-55150546D02*
X90891616Y-55102927D01*
X90891616Y-55102927D02*
X91039144Y-55072737D01*
X91039144Y-55072737D02*
X91104192Y-55090167D01*
X92381359Y-55397523D02*
X91886488Y-55683238D01*
X92133924Y-55540381D02*
X91633924Y-54674355D01*
X91633924Y-54674355D02*
X91622874Y-54845692D01*
X91622874Y-54845692D02*
X91588014Y-54975790D01*
X91588014Y-54975790D02*
X91529345Y-55064648D01*
X92664906Y-54079117D02*
X92252513Y-54317212D01*
X92252513Y-54317212D02*
X92449369Y-54753415D01*
X92449369Y-54753415D02*
X92466799Y-54688366D01*
X92466799Y-54688366D02*
X92525468Y-54599508D01*
X92525468Y-54599508D02*
X92731665Y-54480460D01*
X92731665Y-54480460D02*
X92837953Y-54474080D01*
X92837953Y-54474080D02*
X92903002Y-54491510D01*
X92903002Y-54491510D02*
X92991860Y-54550179D01*
X92991860Y-54550179D02*
X93110908Y-54756376D01*
X93110908Y-54756376D02*
X93117287Y-54862664D01*
X93117287Y-54862664D02*
X93099858Y-54927713D01*
X93099858Y-54927713D02*
X93041188Y-55016571D01*
X93041188Y-55016571D02*
X92834992Y-55135619D01*
X92834992Y-55135619D02*
X92728704Y-55141998D01*
X92728704Y-55141998D02*
X92663655Y-55124569D01*
D12*
X87692210Y-55716154D02*
X87542210Y-55456346D01*
X87542210Y-55456346D02*
X87604069Y-55420632D01*
X87604069Y-55420632D02*
X87648327Y-55411575D01*
X87648327Y-55411575D02*
X87687356Y-55422033D01*
X87687356Y-55422033D02*
X87714014Y-55439634D01*
X87714014Y-55439634D02*
X87754957Y-55481978D01*
X87754957Y-55481978D02*
X87776385Y-55519094D01*
X87776385Y-55519094D02*
X87792585Y-55575724D01*
X87792585Y-55575724D02*
X87794499Y-55607610D01*
X87794499Y-55607610D02*
X87784041Y-55646639D01*
X87784041Y-55646639D02*
X87754069Y-55680440D01*
X87754069Y-55680440D02*
X87692210Y-55716154D01*
X87803931Y-55338233D02*
X87809160Y-55318718D01*
X87809160Y-55318718D02*
X87826761Y-55292061D01*
X87826761Y-55292061D02*
X87888620Y-55256346D01*
X87888620Y-55256346D02*
X87920506Y-55254432D01*
X87920506Y-55254432D02*
X87940021Y-55259661D01*
X87940021Y-55259661D02*
X87966678Y-55277262D01*
X87966678Y-55277262D02*
X87980964Y-55302006D01*
X87980964Y-55302006D02*
X87990021Y-55346264D01*
X87990021Y-55346264D02*
X87927274Y-55580440D01*
X87927274Y-55580440D02*
X88088107Y-55487583D01*
D10*
%TO.C,C1*%
X89754819Y-60595238D02*
X89754819Y-61166666D01*
X89754819Y-60880952D02*
X88754819Y-60880952D01*
X88754819Y-60880952D02*
X88897676Y-60976190D01*
X88897676Y-60976190D02*
X88992914Y-61071428D01*
X88992914Y-61071428D02*
X89040533Y-61166666D01*
X89088152Y-59738095D02*
X89754819Y-59738095D01*
X89088152Y-60166666D02*
X89611961Y-60166666D01*
X89611961Y-60166666D02*
X89707200Y-60119047D01*
X89707200Y-60119047D02*
X89754819Y-60023809D01*
X89754819Y-60023809D02*
X89754819Y-59880952D01*
X89754819Y-59880952D02*
X89707200Y-59785714D01*
X89707200Y-59785714D02*
X89659580Y-59738095D01*
X89231009Y-58928571D02*
X89231009Y-59261904D01*
X89754819Y-59261904D02*
X88754819Y-59261904D01*
X88754819Y-59261904D02*
X88754819Y-58785714D01*
D11*
X91119765Y-60041666D02*
X91131670Y-60053570D01*
X91131670Y-60053570D02*
X91143574Y-60089285D01*
X91143574Y-60089285D02*
X91143574Y-60113094D01*
X91143574Y-60113094D02*
X91131670Y-60148808D01*
X91131670Y-60148808D02*
X91107860Y-60172618D01*
X91107860Y-60172618D02*
X91084050Y-60184523D01*
X91084050Y-60184523D02*
X91036431Y-60196427D01*
X91036431Y-60196427D02*
X91000717Y-60196427D01*
X91000717Y-60196427D02*
X90953098Y-60184523D01*
X90953098Y-60184523D02*
X90929289Y-60172618D01*
X90929289Y-60172618D02*
X90905479Y-60148808D01*
X90905479Y-60148808D02*
X90893574Y-60113094D01*
X90893574Y-60113094D02*
X90893574Y-60089285D01*
X90893574Y-60089285D02*
X90905479Y-60053570D01*
X90905479Y-60053570D02*
X90917384Y-60041666D01*
X91143574Y-59803570D02*
X91143574Y-59946427D01*
X91143574Y-59874999D02*
X90893574Y-59874999D01*
X90893574Y-59874999D02*
X90929289Y-59898808D01*
X90929289Y-59898808D02*
X90953098Y-59922618D01*
X90953098Y-59922618D02*
X90965003Y-59946427D01*
D10*
%TO.C,D5*%
X74174803Y-47224863D02*
X74204992Y-47372390D01*
X74204992Y-47372390D02*
X74324039Y-47578587D01*
X74324039Y-47578587D02*
X74412898Y-47637256D01*
X74412898Y-47637256D02*
X74477947Y-47654686D01*
X74477947Y-47654686D02*
X74584235Y-47648306D01*
X74584235Y-47648306D02*
X74666713Y-47600687D01*
X74666713Y-47600687D02*
X74725382Y-47511829D01*
X74725382Y-47511829D02*
X74742812Y-47446780D01*
X74742812Y-47446780D02*
X74736432Y-47340492D01*
X74736432Y-47340492D02*
X74682434Y-47151725D01*
X74682434Y-47151725D02*
X74676054Y-47045437D01*
X74676054Y-47045437D02*
X74693484Y-46980388D01*
X74693484Y-46980388D02*
X74752153Y-46891530D01*
X74752153Y-46891530D02*
X74834631Y-46843910D01*
X74834631Y-46843910D02*
X74940920Y-46837531D01*
X74940920Y-46837531D02*
X75005968Y-46854961D01*
X75005968Y-46854961D02*
X75094827Y-46913630D01*
X75094827Y-46913630D02*
X75213874Y-47119826D01*
X75213874Y-47119826D02*
X75244064Y-47267354D01*
X74633563Y-48114698D02*
X75499589Y-47614698D01*
X74919278Y-48609569D02*
X75199864Y-47952701D01*
X75785303Y-48109569D02*
X75004717Y-47900412D01*
X76213874Y-48851877D02*
X76118636Y-48686920D01*
X76118636Y-48686920D02*
X76029778Y-48628251D01*
X76029778Y-48628251D02*
X75964729Y-48610821D01*
X75964729Y-48610821D02*
X75793392Y-48599771D01*
X75793392Y-48599771D02*
X75604625Y-48653770D01*
X75604625Y-48653770D02*
X75274711Y-48844246D01*
X75274711Y-48844246D02*
X75216042Y-48933104D01*
X75216042Y-48933104D02*
X75198612Y-48998153D01*
X75198612Y-48998153D02*
X75204992Y-49104441D01*
X75204992Y-49104441D02*
X75300230Y-49269398D01*
X75300230Y-49269398D02*
X75389088Y-49328067D01*
X75389088Y-49328067D02*
X75454137Y-49345497D01*
X75454137Y-49345497D02*
X75560425Y-49339117D01*
X75560425Y-49339117D02*
X75766622Y-49220070D01*
X75766622Y-49220070D02*
X75825291Y-49131212D01*
X75825291Y-49131212D02*
X75842721Y-49066163D01*
X75842721Y-49066163D02*
X75836341Y-48959875D01*
X75836341Y-48959875D02*
X75741103Y-48794917D01*
X75741103Y-48794917D02*
X75652244Y-48736248D01*
X75652244Y-48736248D02*
X75587196Y-48718818D01*
X75587196Y-48718818D02*
X75480907Y-48725198D01*
X76176054Y-49643513D02*
X76169674Y-49537225D01*
X76169674Y-49537225D02*
X76187104Y-49472176D01*
X76187104Y-49472176D02*
X76245773Y-49383318D01*
X76245773Y-49383318D02*
X76287012Y-49359508D01*
X76287012Y-49359508D02*
X76393301Y-49353128D01*
X76393301Y-49353128D02*
X76458349Y-49370558D01*
X76458349Y-49370558D02*
X76547208Y-49429227D01*
X76547208Y-49429227D02*
X76642446Y-49594184D01*
X76642446Y-49594184D02*
X76648826Y-49700473D01*
X76648826Y-49700473D02*
X76631396Y-49765521D01*
X76631396Y-49765521D02*
X76572727Y-49854380D01*
X76572727Y-49854380D02*
X76531487Y-49878189D01*
X76531487Y-49878189D02*
X76425199Y-49884569D01*
X76425199Y-49884569D02*
X76360150Y-49867139D01*
X76360150Y-49867139D02*
X76271292Y-49808470D01*
X76271292Y-49808470D02*
X76176054Y-49643513D01*
X76176054Y-49643513D02*
X76087196Y-49584844D01*
X76087196Y-49584844D02*
X76022147Y-49567414D01*
X76022147Y-49567414D02*
X75915859Y-49573794D01*
X75915859Y-49573794D02*
X75750901Y-49669032D01*
X75750901Y-49669032D02*
X75692232Y-49757890D01*
X75692232Y-49757890D02*
X75674803Y-49822939D01*
X75674803Y-49822939D02*
X75681182Y-49929227D01*
X75681182Y-49929227D02*
X75776420Y-50094184D01*
X75776420Y-50094184D02*
X75865279Y-50152854D01*
X75865279Y-50152854D02*
X75930328Y-50170283D01*
X75930328Y-50170283D02*
X76036616Y-50163904D01*
X76036616Y-50163904D02*
X76201573Y-50068666D01*
X76201573Y-50068666D02*
X76260242Y-49979807D01*
X76260242Y-49979807D02*
X76277672Y-49914758D01*
X76277672Y-49914758D02*
X76271292Y-49808470D01*
X76347849Y-51083928D02*
X76062135Y-50589056D01*
X76204992Y-50836492D02*
X77071017Y-50336492D01*
X77071017Y-50336492D02*
X76899680Y-50325442D01*
X76899680Y-50325442D02*
X76769583Y-50290582D01*
X76769583Y-50290582D02*
X76680724Y-50231913D01*
X77321872Y-50961461D02*
X77386921Y-50978891D01*
X77386921Y-50978891D02*
X77475779Y-51037560D01*
X77475779Y-51037560D02*
X77594827Y-51243757D01*
X77594827Y-51243757D02*
X77601207Y-51350045D01*
X77601207Y-51350045D02*
X77583777Y-51415094D01*
X77583777Y-51415094D02*
X77525108Y-51503952D01*
X77525108Y-51503952D02*
X77442629Y-51551571D01*
X77442629Y-51551571D02*
X77295102Y-51581760D01*
X77295102Y-51581760D02*
X76514516Y-51372603D01*
X76514516Y-51372603D02*
X76824040Y-51908714D01*
X76836799Y-52121290D02*
X77217751Y-52781119D01*
X77872910Y-52677792D02*
X78039577Y-52966467D01*
X77657373Y-53352090D02*
X77419278Y-52939697D01*
X77419278Y-52939697D02*
X78285303Y-52439697D01*
X78285303Y-52439697D02*
X78523398Y-52852090D01*
X78239852Y-54170496D02*
X78174803Y-54153067D01*
X78174803Y-54153067D02*
X78062135Y-54053158D01*
X78062135Y-54053158D02*
X78014516Y-53970680D01*
X78014516Y-53970680D02*
X77984327Y-53823152D01*
X77984327Y-53823152D02*
X78019186Y-53693054D01*
X78019186Y-53693054D02*
X78077855Y-53604196D01*
X78077855Y-53604196D02*
X78219003Y-53467719D01*
X78219003Y-53467719D02*
X78342721Y-53396290D01*
X78342721Y-53396290D02*
X78531488Y-53342291D01*
X78531488Y-53342291D02*
X78637776Y-53335912D01*
X78637776Y-53335912D02*
X78767873Y-53370771D01*
X78767873Y-53370771D02*
X78880541Y-53470680D01*
X78880541Y-53470680D02*
X78928160Y-53553158D01*
X78928160Y-53553158D02*
X78958350Y-53700686D01*
X78958350Y-53700686D02*
X78940920Y-53765734D01*
X78633564Y-55042901D02*
X78347849Y-54548030D01*
X78490706Y-54795466D02*
X79356732Y-54295466D01*
X79356732Y-54295466D02*
X79185395Y-54284416D01*
X79185395Y-54284416D02*
X79055297Y-54249556D01*
X79055297Y-54249556D02*
X78966439Y-54190887D01*
X79951970Y-55326448D02*
X79713875Y-54914055D01*
X79713875Y-54914055D02*
X79277672Y-55110911D01*
X79277672Y-55110911D02*
X79342721Y-55128341D01*
X79342721Y-55128341D02*
X79431579Y-55187010D01*
X79431579Y-55187010D02*
X79550627Y-55393207D01*
X79550627Y-55393207D02*
X79557007Y-55499495D01*
X79557007Y-55499495D02*
X79539577Y-55564544D01*
X79539577Y-55564544D02*
X79480908Y-55653402D01*
X79480908Y-55653402D02*
X79274711Y-55772450D01*
X79274711Y-55772450D02*
X79168423Y-55778829D01*
X79168423Y-55778829D02*
X79103374Y-55761400D01*
X79103374Y-55761400D02*
X79014516Y-55702730D01*
X79014516Y-55702730D02*
X78895468Y-55496534D01*
X78895468Y-55496534D02*
X78889089Y-55390246D01*
X78889089Y-55390246D02*
X78906518Y-55325197D01*
D12*
X75258845Y-52060450D02*
X75518653Y-51910450D01*
X75518653Y-51910450D02*
X75554367Y-51972309D01*
X75554367Y-51972309D02*
X75563424Y-52016567D01*
X75563424Y-52016567D02*
X75552966Y-52055596D01*
X75552966Y-52055596D02*
X75535365Y-52082254D01*
X75535365Y-52082254D02*
X75493021Y-52123197D01*
X75493021Y-52123197D02*
X75455905Y-52144625D01*
X75455905Y-52144625D02*
X75399275Y-52160825D01*
X75399275Y-52160825D02*
X75367389Y-52162739D01*
X75367389Y-52162739D02*
X75328360Y-52152281D01*
X75328360Y-52152281D02*
X75294559Y-52122309D01*
X75294559Y-52122309D02*
X75258845Y-52060450D01*
X75740081Y-52293975D02*
X75668653Y-52170257D01*
X75668653Y-52170257D02*
X75537792Y-52229314D01*
X75537792Y-52229314D02*
X75557306Y-52234543D01*
X75557306Y-52234543D02*
X75583964Y-52252144D01*
X75583964Y-52252144D02*
X75619678Y-52314003D01*
X75619678Y-52314003D02*
X75621592Y-52345889D01*
X75621592Y-52345889D02*
X75616363Y-52365404D01*
X75616363Y-52365404D02*
X75598763Y-52392061D01*
X75598763Y-52392061D02*
X75536904Y-52427776D01*
X75536904Y-52427776D02*
X75505017Y-52429690D01*
X75505017Y-52429690D02*
X75485503Y-52424461D01*
X75485503Y-52424461D02*
X75458845Y-52406860D01*
X75458845Y-52406860D02*
X75423131Y-52345001D01*
X75423131Y-52345001D02*
X75421217Y-52313114D01*
X75421217Y-52313114D02*
X75426446Y-52293600D01*
D10*
%TO.C,D9*%
X71849006Y-71432336D02*
X71961674Y-71332428D01*
X71961674Y-71332428D02*
X72080721Y-71126231D01*
X72080721Y-71126231D02*
X72087101Y-71019943D01*
X72087101Y-71019943D02*
X72069671Y-70954894D01*
X72069671Y-70954894D02*
X72011002Y-70866036D01*
X72011002Y-70866036D02*
X71928523Y-70818417D01*
X71928523Y-70818417D02*
X71822235Y-70812037D01*
X71822235Y-70812037D02*
X71757186Y-70829467D01*
X71757186Y-70829467D02*
X71668328Y-70888136D01*
X71668328Y-70888136D02*
X71531851Y-71029284D01*
X71531851Y-71029284D02*
X71442992Y-71087953D01*
X71442992Y-71087953D02*
X71377944Y-71105383D01*
X71377944Y-71105383D02*
X71271655Y-71099003D01*
X71271655Y-71099003D02*
X71189177Y-71051384D01*
X71189177Y-71051384D02*
X71130508Y-70962525D01*
X71130508Y-70962525D02*
X71113078Y-70897477D01*
X71113078Y-70897477D02*
X71119458Y-70791188D01*
X71119458Y-70791188D02*
X71238505Y-70584992D01*
X71238505Y-70584992D02*
X71351173Y-70485084D01*
X72390245Y-70590120D02*
X71524220Y-70090120D01*
X72675959Y-70095249D02*
X71966802Y-70180688D01*
X71809934Y-69595249D02*
X72019091Y-70375835D01*
X72238505Y-68852941D02*
X72143267Y-69017898D01*
X72143267Y-69017898D02*
X72136887Y-69124186D01*
X72136887Y-69124186D02*
X72154317Y-69189235D01*
X72154317Y-69189235D02*
X72230416Y-69343142D01*
X72230416Y-69343142D02*
X72371564Y-69479620D01*
X72371564Y-69479620D02*
X72701478Y-69670096D01*
X72701478Y-69670096D02*
X72807766Y-69676476D01*
X72807766Y-69676476D02*
X72872815Y-69659046D01*
X72872815Y-69659046D02*
X72961674Y-69600377D01*
X72961674Y-69600377D02*
X73056912Y-69435420D01*
X73056912Y-69435420D02*
X73063291Y-69329132D01*
X73063291Y-69329132D02*
X73045862Y-69264083D01*
X73045862Y-69264083D02*
X72987193Y-69175224D01*
X72987193Y-69175224D02*
X72780996Y-69056177D01*
X72780996Y-69056177D02*
X72674708Y-69049797D01*
X72674708Y-69049797D02*
X72609659Y-69067227D01*
X72609659Y-69067227D02*
X72520801Y-69125896D01*
X72520801Y-69125896D02*
X72425563Y-69290853D01*
X72425563Y-69290853D02*
X72419183Y-69397141D01*
X72419183Y-69397141D02*
X72436613Y-69462190D01*
X72436613Y-69462190D02*
X72495282Y-69551048D01*
X72942992Y-68489876D02*
X72854134Y-68548546D01*
X72854134Y-68548546D02*
X72789085Y-68565975D01*
X72789085Y-68565975D02*
X72682797Y-68559596D01*
X72682797Y-68559596D02*
X72641558Y-68535786D01*
X72641558Y-68535786D02*
X72582889Y-68446928D01*
X72582889Y-68446928D02*
X72565459Y-68381879D01*
X72565459Y-68381879D02*
X72571839Y-68275591D01*
X72571839Y-68275591D02*
X72667077Y-68110634D01*
X72667077Y-68110634D02*
X72755935Y-68051964D01*
X72755935Y-68051964D02*
X72820984Y-68034535D01*
X72820984Y-68034535D02*
X72927272Y-68040914D01*
X72927272Y-68040914D02*
X72968511Y-68064724D01*
X72968511Y-68064724D02*
X73027180Y-68153582D01*
X73027180Y-68153582D02*
X73044610Y-68218631D01*
X73044610Y-68218631D02*
X73038230Y-68324919D01*
X73038230Y-68324919D02*
X72942992Y-68489876D01*
X72942992Y-68489876D02*
X72936613Y-68596165D01*
X72936613Y-68596165D02*
X72954042Y-68661213D01*
X72954042Y-68661213D02*
X73012712Y-68750072D01*
X73012712Y-68750072D02*
X73177669Y-68845310D01*
X73177669Y-68845310D02*
X73283957Y-68851690D01*
X73283957Y-68851690D02*
X73349006Y-68834260D01*
X73349006Y-68834260D02*
X73437864Y-68775591D01*
X73437864Y-68775591D02*
X73533102Y-68610634D01*
X73533102Y-68610634D02*
X73539482Y-68504345D01*
X73539482Y-68504345D02*
X73522052Y-68439297D01*
X73522052Y-68439297D02*
X73463383Y-68350438D01*
X73463383Y-68350438D02*
X73298426Y-68255200D01*
X73298426Y-68255200D02*
X73192138Y-68248820D01*
X73192138Y-68248820D02*
X73127089Y-68266250D01*
X73127089Y-68266250D02*
X73038230Y-68324919D01*
X74104531Y-67620890D02*
X73818816Y-68115762D01*
X73961674Y-67868326D02*
X73095648Y-67368326D01*
X73095648Y-67368326D02*
X73171747Y-67522233D01*
X73171747Y-67522233D02*
X73206607Y-67652331D01*
X73206607Y-67652331D02*
X73200227Y-67758619D01*
X73511460Y-66838595D02*
X73494030Y-66773546D01*
X73494030Y-66773546D02*
X73500410Y-66667258D01*
X73500410Y-66667258D02*
X73619458Y-66461061D01*
X73619458Y-66461061D02*
X73708316Y-66402392D01*
X73708316Y-66402392D02*
X73773365Y-66384962D01*
X73773365Y-66384962D02*
X73879653Y-66391342D01*
X73879653Y-66391342D02*
X73962132Y-66438961D01*
X73962132Y-66438961D02*
X74062040Y-66551629D01*
X74062040Y-66551629D02*
X74271197Y-67332215D01*
X74271197Y-67332215D02*
X74580721Y-66796104D01*
X74758438Y-66678766D02*
X75139390Y-66018937D01*
X74722327Y-65503216D02*
X74888994Y-65214541D01*
X75414055Y-65352728D02*
X75175959Y-65765121D01*
X75175959Y-65765121D02*
X74309934Y-65265121D01*
X74309934Y-65265121D02*
X74548029Y-64852728D01*
X75831576Y-64439084D02*
X75849006Y-64504132D01*
X75849006Y-64504132D02*
X75818817Y-64651660D01*
X75818817Y-64651660D02*
X75771198Y-64734138D01*
X75771198Y-64734138D02*
X75658530Y-64834047D01*
X75658530Y-64834047D02*
X75528432Y-64868906D01*
X75528432Y-64868906D02*
X75422144Y-64862527D01*
X75422144Y-64862527D02*
X75233377Y-64808528D01*
X75233377Y-64808528D02*
X75109659Y-64737099D01*
X75109659Y-64737099D02*
X74968512Y-64600622D01*
X74968512Y-64600622D02*
X74909843Y-64511764D01*
X74909843Y-64511764D02*
X74874983Y-64381666D01*
X74874983Y-64381666D02*
X74905172Y-64234138D01*
X74905172Y-64234138D02*
X74952791Y-64151660D01*
X74952791Y-64151660D02*
X75065459Y-64051751D01*
X75065459Y-64051751D02*
X75130508Y-64034322D01*
X76390245Y-63661917D02*
X76104531Y-64156788D01*
X76247388Y-63909352D02*
X75381363Y-63409352D01*
X75381363Y-63409352D02*
X75457462Y-63563260D01*
X75457462Y-63563260D02*
X75492321Y-63693357D01*
X75492321Y-63693357D02*
X75485941Y-63799645D01*
X75976601Y-62378370D02*
X75738506Y-62790763D01*
X75738506Y-62790763D02*
X76127089Y-63070097D01*
X76127089Y-63070097D02*
X76109659Y-63005048D01*
X76109659Y-63005048D02*
X76116039Y-62898760D01*
X76116039Y-62898760D02*
X76235087Y-62692564D01*
X76235087Y-62692564D02*
X76323945Y-62633895D01*
X76323945Y-62633895D02*
X76388994Y-62616465D01*
X76388994Y-62616465D02*
X76495282Y-62622845D01*
X76495282Y-62622845D02*
X76701479Y-62741892D01*
X76701479Y-62741892D02*
X76760148Y-62830751D01*
X76760148Y-62830751D02*
X76777577Y-62895799D01*
X76777577Y-62895799D02*
X76771198Y-63002088D01*
X76771198Y-63002088D02*
X76652150Y-63208284D01*
X76652150Y-63208284D02*
X76563292Y-63266953D01*
X76563292Y-63266953D02*
X76498243Y-63284383D01*
D12*
X75494726Y-68075735D02*
X75234918Y-67925735D01*
X75234918Y-67925735D02*
X75270632Y-67863876D01*
X75270632Y-67863876D02*
X75304433Y-67833904D01*
X75304433Y-67833904D02*
X75343462Y-67823446D01*
X75343462Y-67823446D02*
X75375348Y-67825360D01*
X75375348Y-67825360D02*
X75431978Y-67841559D01*
X75431978Y-67841559D02*
X75469094Y-67862988D01*
X75469094Y-67862988D02*
X75511438Y-67903931D01*
X75511438Y-67903931D02*
X75529039Y-67930589D01*
X75529039Y-67930589D02*
X75539497Y-67969618D01*
X75539497Y-67969618D02*
X75530440Y-68013876D01*
X75530440Y-68013876D02*
X75494726Y-68075735D01*
X75651868Y-67803556D02*
X75680440Y-67754068D01*
X75680440Y-67754068D02*
X75682354Y-67722182D01*
X75682354Y-67722182D02*
X75677125Y-67702667D01*
X75677125Y-67702667D02*
X75654295Y-67656495D01*
X75654295Y-67656495D02*
X75611951Y-67615552D01*
X75611951Y-67615552D02*
X75512977Y-67558409D01*
X75512977Y-67558409D02*
X75481090Y-67556495D01*
X75481090Y-67556495D02*
X75461575Y-67561724D01*
X75461575Y-67561724D02*
X75434918Y-67579325D01*
X75434918Y-67579325D02*
X75406347Y-67628812D01*
X75406347Y-67628812D02*
X75404433Y-67660698D01*
X75404433Y-67660698D02*
X75409662Y-67680213D01*
X75409662Y-67680213D02*
X75427262Y-67706871D01*
X75427262Y-67706871D02*
X75489121Y-67742585D01*
X75489121Y-67742585D02*
X75521008Y-67744499D01*
X75521008Y-67744499D02*
X75540522Y-67739270D01*
X75540522Y-67739270D02*
X75567180Y-67721669D01*
X75567180Y-67721669D02*
X75595751Y-67672182D01*
X75595751Y-67672182D02*
X75597665Y-67640296D01*
X75597665Y-67640296D02*
X75592436Y-67620781D01*
X75592436Y-67620781D02*
X75574836Y-67594123D01*
D10*
%TO.C,D3*%
X83880094Y-57593878D02*
X83992762Y-57493970D01*
X83992762Y-57493970D02*
X84111809Y-57287773D01*
X84111809Y-57287773D02*
X84118189Y-57181485D01*
X84118189Y-57181485D02*
X84100759Y-57116436D01*
X84100759Y-57116436D02*
X84042090Y-57027578D01*
X84042090Y-57027578D02*
X83959611Y-56979959D01*
X83959611Y-56979959D02*
X83853323Y-56973579D01*
X83853323Y-56973579D02*
X83788274Y-56991009D01*
X83788274Y-56991009D02*
X83699416Y-57049678D01*
X83699416Y-57049678D02*
X83562939Y-57190826D01*
X83562939Y-57190826D02*
X83474080Y-57249495D01*
X83474080Y-57249495D02*
X83409032Y-57266925D01*
X83409032Y-57266925D02*
X83302743Y-57260545D01*
X83302743Y-57260545D02*
X83220265Y-57212926D01*
X83220265Y-57212926D02*
X83161596Y-57124067D01*
X83161596Y-57124067D02*
X83144166Y-57059019D01*
X83144166Y-57059019D02*
X83150546Y-56952730D01*
X83150546Y-56952730D02*
X83269593Y-56746534D01*
X83269593Y-56746534D02*
X83382261Y-56646626D01*
X84421333Y-56751662D02*
X83555308Y-56251662D01*
X84707047Y-56256791D02*
X83997890Y-56342230D01*
X83841022Y-55756791D02*
X84050179Y-56537377D01*
X84269593Y-55014483D02*
X84174355Y-55179440D01*
X84174355Y-55179440D02*
X84167975Y-55285728D01*
X84167975Y-55285728D02*
X84185405Y-55350777D01*
X84185405Y-55350777D02*
X84261504Y-55504684D01*
X84261504Y-55504684D02*
X84402652Y-55641162D01*
X84402652Y-55641162D02*
X84732566Y-55831638D01*
X84732566Y-55831638D02*
X84838854Y-55838018D01*
X84838854Y-55838018D02*
X84903903Y-55820588D01*
X84903903Y-55820588D02*
X84992762Y-55761919D01*
X84992762Y-55761919D02*
X85088000Y-55596962D01*
X85088000Y-55596962D02*
X85094379Y-55490674D01*
X85094379Y-55490674D02*
X85076950Y-55425625D01*
X85076950Y-55425625D02*
X85018281Y-55336766D01*
X85018281Y-55336766D02*
X84812084Y-55217719D01*
X84812084Y-55217719D02*
X84705796Y-55211339D01*
X84705796Y-55211339D02*
X84640747Y-55228769D01*
X84640747Y-55228769D02*
X84551889Y-55287438D01*
X84551889Y-55287438D02*
X84456651Y-55452395D01*
X84456651Y-55452395D02*
X84450271Y-55558683D01*
X84450271Y-55558683D02*
X84467701Y-55623732D01*
X84467701Y-55623732D02*
X84526370Y-55712590D01*
X84974080Y-54651418D02*
X84885222Y-54710088D01*
X84885222Y-54710088D02*
X84820173Y-54727517D01*
X84820173Y-54727517D02*
X84713885Y-54721138D01*
X84713885Y-54721138D02*
X84672646Y-54697328D01*
X84672646Y-54697328D02*
X84613977Y-54608470D01*
X84613977Y-54608470D02*
X84596547Y-54543421D01*
X84596547Y-54543421D02*
X84602927Y-54437133D01*
X84602927Y-54437133D02*
X84698165Y-54272176D01*
X84698165Y-54272176D02*
X84787023Y-54213506D01*
X84787023Y-54213506D02*
X84852072Y-54196077D01*
X84852072Y-54196077D02*
X84958360Y-54202456D01*
X84958360Y-54202456D02*
X84999599Y-54226266D01*
X84999599Y-54226266D02*
X85058268Y-54315124D01*
X85058268Y-54315124D02*
X85075698Y-54380173D01*
X85075698Y-54380173D02*
X85069318Y-54486461D01*
X85069318Y-54486461D02*
X84974080Y-54651418D01*
X84974080Y-54651418D02*
X84967701Y-54757707D01*
X84967701Y-54757707D02*
X84985130Y-54822755D01*
X84985130Y-54822755D02*
X85043800Y-54911614D01*
X85043800Y-54911614D02*
X85208757Y-55006852D01*
X85208757Y-55006852D02*
X85315045Y-55013232D01*
X85315045Y-55013232D02*
X85380094Y-54995802D01*
X85380094Y-54995802D02*
X85468952Y-54937133D01*
X85468952Y-54937133D02*
X85564190Y-54772176D01*
X85564190Y-54772176D02*
X85570570Y-54665887D01*
X85570570Y-54665887D02*
X85553140Y-54600839D01*
X85553140Y-54600839D02*
X85494471Y-54511980D01*
X85494471Y-54511980D02*
X85329514Y-54416742D01*
X85329514Y-54416742D02*
X85223226Y-54410362D01*
X85223226Y-54410362D02*
X85158177Y-54427792D01*
X85158177Y-54427792D02*
X85069318Y-54486461D01*
X86135619Y-53782432D02*
X85849904Y-54277304D01*
X85992762Y-54029868D02*
X85126736Y-53529868D01*
X85126736Y-53529868D02*
X85202835Y-53683775D01*
X85202835Y-53683775D02*
X85237695Y-53813873D01*
X85237695Y-53813873D02*
X85231315Y-53920161D01*
X85542548Y-53000137D02*
X85525118Y-52935088D01*
X85525118Y-52935088D02*
X85531498Y-52828800D01*
X85531498Y-52828800D02*
X85650546Y-52622603D01*
X85650546Y-52622603D02*
X85739404Y-52563934D01*
X85739404Y-52563934D02*
X85804453Y-52546504D01*
X85804453Y-52546504D02*
X85910741Y-52552884D01*
X85910741Y-52552884D02*
X85993220Y-52600503D01*
X85993220Y-52600503D02*
X86093128Y-52713171D01*
X86093128Y-52713171D02*
X86302285Y-53493757D01*
X86302285Y-53493757D02*
X86611809Y-52957646D01*
X86789526Y-52840308D02*
X87170478Y-52180479D01*
X86753415Y-51664758D02*
X86920082Y-51376083D01*
X87445143Y-51514270D02*
X87207047Y-51926663D01*
X87207047Y-51926663D02*
X86341022Y-51426663D01*
X86341022Y-51426663D02*
X86579117Y-51014270D01*
X87862664Y-50600626D02*
X87880094Y-50665674D01*
X87880094Y-50665674D02*
X87849905Y-50813202D01*
X87849905Y-50813202D02*
X87802286Y-50895680D01*
X87802286Y-50895680D02*
X87689618Y-50995589D01*
X87689618Y-50995589D02*
X87559520Y-51030448D01*
X87559520Y-51030448D02*
X87453232Y-51024069D01*
X87453232Y-51024069D02*
X87264465Y-50970070D01*
X87264465Y-50970070D02*
X87140747Y-50898641D01*
X87140747Y-50898641D02*
X86999600Y-50762164D01*
X86999600Y-50762164D02*
X86940931Y-50673306D01*
X86940931Y-50673306D02*
X86906071Y-50543208D01*
X86906071Y-50543208D02*
X86936260Y-50395680D01*
X86936260Y-50395680D02*
X86983879Y-50313202D01*
X86983879Y-50313202D02*
X87096547Y-50213293D01*
X87096547Y-50213293D02*
X87161596Y-50195864D01*
X88421333Y-49823459D02*
X88135619Y-50318330D01*
X88278476Y-50070894D02*
X87412451Y-49570894D01*
X87412451Y-49570894D02*
X87488550Y-49724802D01*
X87488550Y-49724802D02*
X87523409Y-49854899D01*
X87523409Y-49854899D02*
X87517029Y-49961187D01*
X88007689Y-48539912D02*
X87769594Y-48952305D01*
X87769594Y-48952305D02*
X88158177Y-49231639D01*
X88158177Y-49231639D02*
X88140747Y-49166590D01*
X88140747Y-49166590D02*
X88147127Y-49060302D01*
X88147127Y-49060302D02*
X88266175Y-48854106D01*
X88266175Y-48854106D02*
X88355033Y-48795437D01*
X88355033Y-48795437D02*
X88420082Y-48778007D01*
X88420082Y-48778007D02*
X88526370Y-48784387D01*
X88526370Y-48784387D02*
X88732567Y-48903434D01*
X88732567Y-48903434D02*
X88791236Y-48992293D01*
X88791236Y-48992293D02*
X88808665Y-49057341D01*
X88808665Y-49057341D02*
X88802286Y-49163630D01*
X88802286Y-49163630D02*
X88683238Y-49369826D01*
X88683238Y-49369826D02*
X88594380Y-49428495D01*
X88594380Y-49428495D02*
X88529331Y-49445925D01*
D12*
X84519726Y-52443975D02*
X84259918Y-52293975D01*
X84259918Y-52293975D02*
X84295632Y-52232116D01*
X84295632Y-52232116D02*
X84329433Y-52202144D01*
X84329433Y-52202144D02*
X84368462Y-52191686D01*
X84368462Y-52191686D02*
X84400348Y-52193600D01*
X84400348Y-52193600D02*
X84456978Y-52209799D01*
X84456978Y-52209799D02*
X84494094Y-52231228D01*
X84494094Y-52231228D02*
X84536438Y-52272171D01*
X84536438Y-52272171D02*
X84554039Y-52298829D01*
X84554039Y-52298829D02*
X84564497Y-52337858D01*
X84564497Y-52337858D02*
X84555440Y-52382116D01*
X84555440Y-52382116D02*
X84519726Y-52443975D01*
X84395632Y-52058911D02*
X84488489Y-51898078D01*
X84488489Y-51898078D02*
X84537464Y-52041823D01*
X84537464Y-52041823D02*
X84558892Y-52004708D01*
X84558892Y-52004708D02*
X84585550Y-51987107D01*
X84585550Y-51987107D02*
X84605064Y-51981878D01*
X84605064Y-51981878D02*
X84636951Y-51983792D01*
X84636951Y-51983792D02*
X84698810Y-52019506D01*
X84698810Y-52019506D02*
X84716411Y-52046164D01*
X84716411Y-52046164D02*
X84721639Y-52065678D01*
X84721639Y-52065678D02*
X84719726Y-52097565D01*
X84719726Y-52097565D02*
X84676868Y-52171796D01*
X84676868Y-52171796D02*
X84650211Y-52189396D01*
X84650211Y-52189396D02*
X84630696Y-52194625D01*
D10*
%TO.C,R1*%
X87624286Y-60084819D02*
X88243333Y-60084819D01*
X88243333Y-60084819D02*
X87910000Y-60465771D01*
X87910000Y-60465771D02*
X88052857Y-60465771D01*
X88052857Y-60465771D02*
X88148095Y-60513390D01*
X88148095Y-60513390D02*
X88195714Y-60561009D01*
X88195714Y-60561009D02*
X88243333Y-60656247D01*
X88243333Y-60656247D02*
X88243333Y-60894342D01*
X88243333Y-60894342D02*
X88195714Y-60989580D01*
X88195714Y-60989580D02*
X88148095Y-61037200D01*
X88148095Y-61037200D02*
X88052857Y-61084819D01*
X88052857Y-61084819D02*
X87767143Y-61084819D01*
X87767143Y-61084819D02*
X87671905Y-61037200D01*
X87671905Y-61037200D02*
X87624286Y-60989580D01*
X88576667Y-60084819D02*
X89195714Y-60084819D01*
X89195714Y-60084819D02*
X88862381Y-60465771D01*
X88862381Y-60465771D02*
X89005238Y-60465771D01*
X89005238Y-60465771D02*
X89100476Y-60513390D01*
X89100476Y-60513390D02*
X89148095Y-60561009D01*
X89148095Y-60561009D02*
X89195714Y-60656247D01*
X89195714Y-60656247D02*
X89195714Y-60894342D01*
X89195714Y-60894342D02*
X89148095Y-60989580D01*
X89148095Y-60989580D02*
X89100476Y-61037200D01*
X89100476Y-61037200D02*
X89005238Y-61084819D01*
X89005238Y-61084819D02*
X88719524Y-61084819D01*
X88719524Y-61084819D02*
X88624286Y-61037200D01*
X88624286Y-61037200D02*
X88576667Y-60989580D01*
X89814762Y-60084819D02*
X89910000Y-60084819D01*
X89910000Y-60084819D02*
X90005238Y-60132438D01*
X90005238Y-60132438D02*
X90052857Y-60180057D01*
X90052857Y-60180057D02*
X90100476Y-60275295D01*
X90100476Y-60275295D02*
X90148095Y-60465771D01*
X90148095Y-60465771D02*
X90148095Y-60703866D01*
X90148095Y-60703866D02*
X90100476Y-60894342D01*
X90100476Y-60894342D02*
X90052857Y-60989580D01*
X90052857Y-60989580D02*
X90005238Y-61037200D01*
X90005238Y-61037200D02*
X89910000Y-61084819D01*
X89910000Y-61084819D02*
X89814762Y-61084819D01*
X89814762Y-61084819D02*
X89719524Y-61037200D01*
X89719524Y-61037200D02*
X89671905Y-60989580D01*
X89671905Y-60989580D02*
X89624286Y-60894342D01*
X89624286Y-60894342D02*
X89576667Y-60703866D01*
X89576667Y-60703866D02*
X89576667Y-60465771D01*
X89576667Y-60465771D02*
X89624286Y-60275295D01*
X89624286Y-60275295D02*
X89671905Y-60180057D01*
X89671905Y-60180057D02*
X89719524Y-60132438D01*
X89719524Y-60132438D02*
X89814762Y-60084819D01*
D11*
X88868333Y-62473574D02*
X88785000Y-62354527D01*
X88725476Y-62473574D02*
X88725476Y-62223574D01*
X88725476Y-62223574D02*
X88820714Y-62223574D01*
X88820714Y-62223574D02*
X88844524Y-62235479D01*
X88844524Y-62235479D02*
X88856429Y-62247384D01*
X88856429Y-62247384D02*
X88868333Y-62271193D01*
X88868333Y-62271193D02*
X88868333Y-62306908D01*
X88868333Y-62306908D02*
X88856429Y-62330717D01*
X88856429Y-62330717D02*
X88844524Y-62342622D01*
X88844524Y-62342622D02*
X88820714Y-62354527D01*
X88820714Y-62354527D02*
X88725476Y-62354527D01*
X89106429Y-62473574D02*
X88963572Y-62473574D01*
X89035000Y-62473574D02*
X89035000Y-62223574D01*
X89035000Y-62223574D02*
X89011191Y-62259289D01*
X89011191Y-62259289D02*
X88987381Y-62283098D01*
X88987381Y-62283098D02*
X88963572Y-62295003D01*
D10*
%TO.C,C4*%
X79404761Y-51154819D02*
X78833333Y-51154819D01*
X79119047Y-51154819D02*
X79119047Y-50154819D01*
X79119047Y-50154819D02*
X79023809Y-50297676D01*
X79023809Y-50297676D02*
X78928571Y-50392914D01*
X78928571Y-50392914D02*
X78833333Y-50440533D01*
X80261904Y-50488152D02*
X80261904Y-51154819D01*
X79833333Y-50488152D02*
X79833333Y-51011961D01*
X79833333Y-51011961D02*
X79880952Y-51107200D01*
X79880952Y-51107200D02*
X79976190Y-51154819D01*
X79976190Y-51154819D02*
X80119047Y-51154819D01*
X80119047Y-51154819D02*
X80214285Y-51107200D01*
X80214285Y-51107200D02*
X80261904Y-51059580D01*
X81071428Y-50631009D02*
X80738095Y-50631009D01*
X80738095Y-51154819D02*
X80738095Y-50154819D01*
X80738095Y-50154819D02*
X81214285Y-50154819D01*
D11*
X79958333Y-49059765D02*
X79946429Y-49071670D01*
X79946429Y-49071670D02*
X79910714Y-49083574D01*
X79910714Y-49083574D02*
X79886905Y-49083574D01*
X79886905Y-49083574D02*
X79851191Y-49071670D01*
X79851191Y-49071670D02*
X79827381Y-49047860D01*
X79827381Y-49047860D02*
X79815476Y-49024050D01*
X79815476Y-49024050D02*
X79803572Y-48976431D01*
X79803572Y-48976431D02*
X79803572Y-48940717D01*
X79803572Y-48940717D02*
X79815476Y-48893098D01*
X79815476Y-48893098D02*
X79827381Y-48869289D01*
X79827381Y-48869289D02*
X79851191Y-48845479D01*
X79851191Y-48845479D02*
X79886905Y-48833574D01*
X79886905Y-48833574D02*
X79910714Y-48833574D01*
X79910714Y-48833574D02*
X79946429Y-48845479D01*
X79946429Y-48845479D02*
X79958333Y-48857384D01*
X80172619Y-48916908D02*
X80172619Y-49083574D01*
X80113095Y-48821670D02*
X80053572Y-49000241D01*
X80053572Y-49000241D02*
X80208333Y-49000241D01*
D13*
%TO.C,C8*%
X71056733Y-65509808D02*
X70756733Y-64990192D01*
X71316541Y-65359808D02*
X71056733Y-65509808D01*
X70756733Y-64990192D02*
X71016541Y-64840192D01*
X71016541Y-64840192D02*
X71316541Y-65359808D01*
%TO.C,D11*%
X84774519Y-66769710D02*
X85337019Y-67743989D01*
X83475481Y-67519710D02*
X84774519Y-66769710D01*
X85337019Y-67743989D02*
X85199760Y-68256248D01*
X85199760Y-68256248D02*
X84225481Y-68818748D01*
X84225481Y-68818748D02*
X83475481Y-67519710D01*
X84358494Y-68049133D02*
X84012083Y-68249133D01*
X84035289Y-67889325D01*
X84358494Y-68049133D01*
G36*
X84358494Y-68049133D02*
G01*
X84012083Y-68249133D01*
X84035289Y-67889325D01*
X84358494Y-68049133D01*
G37*
%TO.C,D1*%
X88250000Y-59250000D02*
X89375000Y-59250000D01*
X88250000Y-60750000D02*
X88250000Y-59250000D01*
X89375000Y-59250000D02*
X89750000Y-59625000D01*
X89750000Y-59625000D02*
X89750000Y-60750000D01*
X89750000Y-60750000D02*
X88250000Y-60750000D01*
X89150000Y-60650000D02*
X88850000Y-60450000D01*
X89150000Y-60250000D01*
X89150000Y-60650000D01*
G36*
X89150000Y-60650000D02*
G01*
X88850000Y-60450000D01*
X89150000Y-60250000D01*
X89150000Y-60650000D01*
G37*
%TO.C,D4*%
X79250000Y-51750000D02*
X79250000Y-50625000D01*
X80750000Y-51750000D02*
X79250000Y-51750000D01*
X79250000Y-50625000D02*
X79625000Y-50250000D01*
X79625000Y-50250000D02*
X80750000Y-50250000D01*
X80750000Y-50250000D02*
X80750000Y-51750000D01*
X80450000Y-51150000D02*
X80250000Y-50850000D01*
X80650000Y-50850000D01*
X80450000Y-51150000D01*
G36*
X80450000Y-51150000D02*
G01*
X80250000Y-50850000D01*
X80650000Y-50850000D01*
X80450000Y-51150000D01*
G37*
%TO.C,D12*%
X87519710Y-63475481D02*
X88493989Y-64037981D01*
X86769710Y-64774519D02*
X87519710Y-63475481D01*
X88493989Y-64037981D02*
X88631248Y-64550240D01*
X88631248Y-64550240D02*
X88068748Y-65524519D01*
X88068748Y-65524519D02*
X86769710Y-64774519D01*
X87599133Y-65137917D02*
X87439325Y-64814711D01*
X87799133Y-64791506D01*
X87599133Y-65137917D01*
G36*
X87599133Y-65137917D02*
G01*
X87439325Y-64814711D01*
X87799133Y-64791506D01*
X87599133Y-65137917D01*
G37*
%TO.C,D8*%
X73230290Y-64774519D02*
X72256011Y-65337019D01*
X72480290Y-63475481D02*
X73230290Y-64774519D01*
X72256011Y-65337019D02*
X71743752Y-65199760D01*
X71743752Y-65199760D02*
X71181252Y-64225481D01*
X71181252Y-64225481D02*
X72480290Y-63475481D01*
X72110675Y-64035289D02*
X71950867Y-64358494D01*
X71750867Y-64012083D01*
X72110675Y-64035289D01*
G36*
X72110675Y-64035289D02*
G01*
X71950867Y-64358494D01*
X71750867Y-64012083D01*
X72110675Y-64035289D01*
G37*
%TO.C,D10*%
X80750000Y-68250000D02*
X80750000Y-69375000D01*
X79250000Y-68250000D02*
X80750000Y-68250000D01*
X80750000Y-69375000D02*
X80375000Y-69750000D01*
X80375000Y-69750000D02*
X79250000Y-69750000D01*
X79250000Y-69750000D02*
X79250000Y-68250000D01*
X79750000Y-69150000D02*
X79350000Y-69150000D01*
X79550000Y-68850000D01*
X79750000Y-69150000D01*
G36*
X79750000Y-69150000D02*
G01*
X79350000Y-69150000D01*
X79550000Y-68850000D01*
X79750000Y-69150000D01*
G37*
%TO.C,C11*%
X85509808Y-68943267D02*
X84990192Y-69243267D01*
X85359808Y-68683459D02*
X85509808Y-68943267D01*
X84990192Y-69243267D02*
X84840192Y-68983459D01*
X84840192Y-68983459D02*
X85359808Y-68683459D01*
%TO.C,D7*%
X71750000Y-60750000D02*
X70625000Y-60750000D01*
X71750000Y-59250000D02*
X71750000Y-60750000D01*
X70625000Y-60750000D02*
X70250000Y-60375000D01*
X70250000Y-60375000D02*
X70250000Y-59250000D01*
X70250000Y-59250000D02*
X71750000Y-59250000D01*
X71150000Y-59550000D02*
X70850000Y-59750000D01*
X70850000Y-59350000D01*
X71150000Y-59550000D01*
G36*
X71150000Y-59550000D02*
G01*
X70850000Y-59750000D01*
X70850000Y-59350000D01*
X71150000Y-59550000D01*
G37*
%TO.C,D6*%
X72480290Y-56524519D02*
X71506011Y-55962019D01*
X73230290Y-55225481D02*
X72480290Y-56524519D01*
X71506011Y-55962019D02*
X71368752Y-55449760D01*
X71368752Y-55449760D02*
X71931252Y-54475481D01*
X71931252Y-54475481D02*
X73230290Y-55225481D01*
X72560675Y-55185289D02*
X72200867Y-55208494D01*
X72400867Y-54862083D01*
X72560675Y-55185289D01*
G36*
X72560675Y-55185289D02*
G01*
X72200867Y-55208494D01*
X72400867Y-54862083D01*
X72560675Y-55185289D01*
G37*
%TO.C,C12*%
X88790096Y-65184808D02*
X89090096Y-64665192D01*
X89049904Y-65334808D02*
X88790096Y-65184808D01*
X89090096Y-64665192D02*
X89349904Y-64815192D01*
X89349904Y-64815192D02*
X89049904Y-65334808D01*
%TO.C,C6*%
X70756733Y-55009808D02*
X71056733Y-54490192D01*
X71016541Y-55159808D02*
X70756733Y-55009808D01*
X71056733Y-54490192D02*
X71316541Y-54640192D01*
X71316541Y-54640192D02*
X71016541Y-55159808D01*
%TO.C,C9*%
X75009808Y-69243267D02*
X74490192Y-68943267D01*
X75159808Y-68983459D02*
X75009808Y-69243267D01*
X74490192Y-68943267D02*
X74640192Y-68683459D01*
X74640192Y-68683459D02*
X75159808Y-68983459D01*
%TO.C,C7*%
X69500000Y-60300000D02*
X69500000Y-59700000D01*
X69800000Y-60300000D02*
X69500000Y-60300000D01*
X69500000Y-59700000D02*
X69800000Y-59700000D01*
X69800000Y-59700000D02*
X69800000Y-60300000D01*
%TO.C,C10*%
X80300000Y-70500000D02*
X79700000Y-70500000D01*
X80300000Y-70200000D02*
X80300000Y-70500000D01*
X79700000Y-70500000D02*
X79700000Y-70200000D01*
X79700000Y-70200000D02*
X80300000Y-70200000D01*
%TO.C,C3*%
X84990192Y-50756733D02*
X85509808Y-51056733D01*
X84840192Y-51016541D02*
X84990192Y-50756733D01*
X85509808Y-51056733D02*
X85359808Y-51316541D01*
X85359808Y-51316541D02*
X84840192Y-51016541D01*
%TO.C,C2*%
X88943267Y-54490192D02*
X89243267Y-55009808D01*
X88683459Y-54640192D02*
X88943267Y-54490192D01*
X89243267Y-55009808D02*
X88983459Y-55159808D01*
X88983459Y-55159808D02*
X88683459Y-54640192D01*
%TO.C,C5*%
X74490192Y-51056733D02*
X75009808Y-50756733D01*
X74640192Y-51316541D02*
X74490192Y-51056733D01*
X75009808Y-50756733D02*
X75159808Y-51016541D01*
X75159808Y-51016541D02*
X74640192Y-51316541D01*
%TO.C,D2*%
X86769710Y-55225481D02*
X87743989Y-54662981D01*
X87519710Y-56524519D02*
X86769710Y-55225481D01*
X87743989Y-54662981D02*
X88256248Y-54800240D01*
X88256248Y-54800240D02*
X88818748Y-55774519D01*
X88818748Y-55774519D02*
X87519710Y-56524519D01*
X88249133Y-55987917D02*
X87889325Y-55964711D01*
X88049133Y-55641506D01*
X88249133Y-55987917D01*
G36*
X88249133Y-55987917D02*
G01*
X87889325Y-55964711D01*
X88049133Y-55641506D01*
X88249133Y-55987917D01*
G37*
%TO.C,C1*%
X90500000Y-59700000D02*
X90500000Y-60300000D01*
X90200000Y-59700000D02*
X90500000Y-59700000D01*
X90500000Y-60300000D02*
X90200000Y-60300000D01*
X90200000Y-60300000D02*
X90200000Y-59700000D01*
%TO.C,D5*%
X75225481Y-53230290D02*
X74662981Y-52256011D01*
X76524519Y-52480290D02*
X75225481Y-53230290D01*
X74662981Y-52256011D02*
X74800240Y-51743752D01*
X74800240Y-51743752D02*
X75774519Y-51181252D01*
X75774519Y-51181252D02*
X76524519Y-52480290D01*
X75964711Y-52110675D02*
X75641506Y-51950867D01*
X75987917Y-51750867D01*
X75964711Y-52110675D01*
G36*
X75964711Y-52110675D02*
G01*
X75641506Y-51950867D01*
X75987917Y-51750867D01*
X75964711Y-52110675D01*
G37*
%TO.C,D9*%
X76524519Y-67519710D02*
X75962019Y-68493989D01*
X75225481Y-66769710D02*
X76524519Y-67519710D01*
X75962019Y-68493989D02*
X75449760Y-68631248D01*
X75449760Y-68631248D02*
X74475481Y-68068748D01*
X74475481Y-68068748D02*
X75225481Y-66769710D01*
X75208494Y-67799133D02*
X74862083Y-67599133D01*
X75185289Y-67439325D01*
X75208494Y-67799133D01*
G36*
X75208494Y-67799133D02*
G01*
X74862083Y-67599133D01*
X75185289Y-67439325D01*
X75208494Y-67799133D01*
G37*
%TO.C,D3*%
X83475481Y-52480290D02*
X84037981Y-51506011D01*
X84774519Y-53230290D02*
X83475481Y-52480290D01*
X84037981Y-51506011D02*
X84550240Y-51368752D01*
X84550240Y-51368752D02*
X85524519Y-51931252D01*
X85524519Y-51931252D02*
X84774519Y-53230290D01*
X85137917Y-52400867D02*
X84814711Y-52560675D01*
X84791506Y-52200867D01*
X85137917Y-52400867D01*
G36*
X85137917Y-52400867D02*
G01*
X84814711Y-52560675D01*
X84791506Y-52200867D01*
X85137917Y-52400867D01*
G37*
%TO.C,R1*%
X89210000Y-61830000D02*
X88610000Y-61830000D01*
X89210000Y-61530000D02*
X89210000Y-61830000D01*
X88610000Y-61830000D02*
X88610000Y-61530000D01*
X88610000Y-61530000D02*
X89210000Y-61530000D01*
%TO.C,C4*%
X79700000Y-49500000D02*
X80300000Y-49500000D01*
X79700000Y-49800000D02*
X79700000Y-49500000D01*
X80300000Y-49500000D02*
X80300000Y-49800000D01*
X80300000Y-49800000D02*
X79700000Y-49800000D01*
%TD*%
M02*
