%TF.GenerationSoftware,KiCad,Pcbnew,7.0.5.1-1-g8f565ef7f0-dirty-deb11*%
%TF.CreationDate,2023-06-02T14:34:49+00:00*%
%TF.ProjectId,pedalboard-led-ring,70656461-6c62-46f6-9172-642d6c65642d,1.0.0*%
%TF.SameCoordinates,Original*%
%TF.FileFunction,Drillmap*%
%TF.FilePolarity,Positive*%
%FSLAX45Y45*%
G04 Gerber Fmt 4.5, Leading zero omitted, Abs format (unit mm)*
G04 Created by KiCad (PCBNEW 7.0.5.1-1-g8f565ef7f0-dirty-deb11) date 2023-06-02 14:34:49*
%MOMM*%
%LPD*%
G01*
G04 APERTURE LIST*
%ADD10C,0.100000*%
%ADD11C,0.200000*%
G04 APERTURE END LIST*
D10*
X6500000Y-7400000D02*
G75*
G03*
X6600000Y-7500000I100000J0D01*
G01*
X8610000Y-6000000D02*
G75*
G03*
X8610000Y-6000000I-610000J0D01*
G01*
X9500000Y-4600000D02*
X9500000Y-7400000D01*
X6500000Y-7400000D02*
X6500000Y-4600000D01*
X9400000Y-7500000D02*
G75*
G03*
X9500000Y-7400000I0J100000D01*
G01*
X6600000Y-4500000D02*
X9400000Y-4500000D01*
X9400000Y-7500000D02*
X6600000Y-7500000D01*
X6600000Y-4500000D02*
G75*
G03*
X6500000Y-4600000I0J-100000D01*
G01*
X9500000Y-4600000D02*
G75*
G03*
X9400000Y-4500000I-100000J0D01*
G01*
D11*
X6755777Y-7816484D02*
X6755777Y-7616484D01*
X6755777Y-7616484D02*
X6803396Y-7616484D01*
X6803396Y-7616484D02*
X6831967Y-7626008D01*
X6831967Y-7626008D02*
X6851015Y-7645055D01*
X6851015Y-7645055D02*
X6860539Y-7664103D01*
X6860539Y-7664103D02*
X6870062Y-7702198D01*
X6870062Y-7702198D02*
X6870062Y-7730769D01*
X6870062Y-7730769D02*
X6860539Y-7768865D01*
X6860539Y-7768865D02*
X6851015Y-7787912D01*
X6851015Y-7787912D02*
X6831967Y-7806960D01*
X6831967Y-7806960D02*
X6803396Y-7816484D01*
X6803396Y-7816484D02*
X6755777Y-7816484D01*
X6955777Y-7816484D02*
X6955777Y-7683150D01*
X6955777Y-7721246D02*
X6965301Y-7702198D01*
X6965301Y-7702198D02*
X6974824Y-7692674D01*
X6974824Y-7692674D02*
X6993872Y-7683150D01*
X6993872Y-7683150D02*
X7012920Y-7683150D01*
X7079586Y-7816484D02*
X7079586Y-7683150D01*
X7079586Y-7616484D02*
X7070062Y-7626008D01*
X7070062Y-7626008D02*
X7079586Y-7635531D01*
X7079586Y-7635531D02*
X7089110Y-7626008D01*
X7089110Y-7626008D02*
X7079586Y-7616484D01*
X7079586Y-7616484D02*
X7079586Y-7635531D01*
X7203396Y-7816484D02*
X7184348Y-7806960D01*
X7184348Y-7806960D02*
X7174824Y-7787912D01*
X7174824Y-7787912D02*
X7174824Y-7616484D01*
X7308158Y-7816484D02*
X7289110Y-7806960D01*
X7289110Y-7806960D02*
X7279586Y-7787912D01*
X7279586Y-7787912D02*
X7279586Y-7616484D01*
X7536729Y-7816484D02*
X7536729Y-7616484D01*
X7536729Y-7616484D02*
X7603396Y-7759341D01*
X7603396Y-7759341D02*
X7670062Y-7616484D01*
X7670062Y-7616484D02*
X7670062Y-7816484D01*
X7851015Y-7816484D02*
X7851015Y-7711722D01*
X7851015Y-7711722D02*
X7841491Y-7692674D01*
X7841491Y-7692674D02*
X7822443Y-7683150D01*
X7822443Y-7683150D02*
X7784348Y-7683150D01*
X7784348Y-7683150D02*
X7765301Y-7692674D01*
X7851015Y-7806960D02*
X7831967Y-7816484D01*
X7831967Y-7816484D02*
X7784348Y-7816484D01*
X7784348Y-7816484D02*
X7765301Y-7806960D01*
X7765301Y-7806960D02*
X7755777Y-7787912D01*
X7755777Y-7787912D02*
X7755777Y-7768865D01*
X7755777Y-7768865D02*
X7765301Y-7749817D01*
X7765301Y-7749817D02*
X7784348Y-7740293D01*
X7784348Y-7740293D02*
X7831967Y-7740293D01*
X7831967Y-7740293D02*
X7851015Y-7730769D01*
X7946253Y-7683150D02*
X7946253Y-7883150D01*
X7946253Y-7692674D02*
X7965301Y-7683150D01*
X7965301Y-7683150D02*
X8003396Y-7683150D01*
X8003396Y-7683150D02*
X8022443Y-7692674D01*
X8022443Y-7692674D02*
X8031967Y-7702198D01*
X8031967Y-7702198D02*
X8041491Y-7721246D01*
X8041491Y-7721246D02*
X8041491Y-7778388D01*
X8041491Y-7778388D02*
X8031967Y-7797436D01*
X8031967Y-7797436D02*
X8022443Y-7806960D01*
X8022443Y-7806960D02*
X8003396Y-7816484D01*
X8003396Y-7816484D02*
X7965301Y-7816484D01*
X7965301Y-7816484D02*
X7946253Y-7806960D01*
X8127205Y-7797436D02*
X8136729Y-7806960D01*
X8136729Y-7806960D02*
X8127205Y-7816484D01*
X8127205Y-7816484D02*
X8117682Y-7806960D01*
X8117682Y-7806960D02*
X8127205Y-7797436D01*
X8127205Y-7797436D02*
X8127205Y-7816484D01*
X8127205Y-7692674D02*
X8136729Y-7702198D01*
X8136729Y-7702198D02*
X8127205Y-7711722D01*
X8127205Y-7711722D02*
X8117682Y-7702198D01*
X8117682Y-7702198D02*
X8127205Y-7692674D01*
X8127205Y-7692674D02*
X8127205Y-7711722D01*
M02*
