%TF.GenerationSoftware,KiCad,Pcbnew,7.0.2.1-36-g582732918d-dirty-deb11*%
%TF.CreationDate,2023-05-26T11:33:27+00:00*%
%TF.ProjectId,pedalboard-led-ring,70656461-6c62-46f6-9172-642d6c65642d,rev?*%
%TF.SameCoordinates,Original*%
%TF.FileFunction,Legend,Top*%
%TF.FilePolarity,Positive*%
%FSLAX46Y46*%
G04 Gerber Fmt 4.6, Leading zero omitted, Abs format (unit mm)*
G04 Created by KiCad (PCBNEW 7.0.2.1-36-g582732918d-dirty-deb11) date 2023-05-26 11:33:27*
%MOMM*%
%LPD*%
G01*
G04 APERTURE LIST*
%ADD10C,0.150000*%
%ADD11C,0.120000*%
G04 APERTURE END LIST*
D10*
%TO.C,D6*%
X89677070Y-57933359D02*
X90369890Y-57533359D01*
X90369890Y-57533359D02*
X90465128Y-57698316D01*
X90465128Y-57698316D02*
X90489280Y-57816338D01*
X90489280Y-57816338D02*
X90461392Y-57920416D01*
X90461392Y-57920416D02*
X90414457Y-57991503D01*
X90414457Y-57991503D02*
X90301538Y-58100685D01*
X90301538Y-58100685D02*
X90202564Y-58157828D01*
X90202564Y-58157828D02*
X90051551Y-58201027D01*
X90051551Y-58201027D02*
X89966520Y-58206131D01*
X89966520Y-58206131D02*
X89862442Y-58178243D01*
X89862442Y-58178243D02*
X89772308Y-58098316D01*
X89772308Y-58098316D02*
X89677070Y-57933359D01*
X90941319Y-58523102D02*
X90865128Y-58391137D01*
X90865128Y-58391137D02*
X90794041Y-58344201D01*
X90794041Y-58344201D02*
X90742002Y-58330258D01*
X90742002Y-58330258D02*
X90604933Y-58321417D01*
X90604933Y-58321417D02*
X90453919Y-58364617D01*
X90453919Y-58364617D02*
X90189988Y-58516997D01*
X90189988Y-58516997D02*
X90143053Y-58588084D01*
X90143053Y-58588084D02*
X90129109Y-58640123D01*
X90129109Y-58640123D02*
X90134213Y-58725154D01*
X90134213Y-58725154D02*
X90210403Y-58857119D01*
X90210403Y-58857119D02*
X90281490Y-58904055D01*
X90281490Y-58904055D02*
X90333529Y-58917999D01*
X90333529Y-58917999D02*
X90418559Y-58912895D01*
X90418559Y-58912895D02*
X90583517Y-58817657D01*
X90583517Y-58817657D02*
X90630452Y-58746570D01*
X90630452Y-58746570D02*
X90644396Y-58694531D01*
X90644396Y-58694531D02*
X90639292Y-58609500D01*
X90639292Y-58609500D02*
X90563101Y-58477535D01*
X90563101Y-58477535D02*
X90492015Y-58430599D01*
X90492015Y-58430599D02*
X90439976Y-58416656D01*
X90439976Y-58416656D02*
X90354945Y-58421759D01*
%TO.C,D2*%
X76309524Y-70170095D02*
X76309524Y-69370095D01*
X76309524Y-69370095D02*
X76500000Y-69370095D01*
X76500000Y-69370095D02*
X76614286Y-69408190D01*
X76614286Y-69408190D02*
X76690476Y-69484380D01*
X76690476Y-69484380D02*
X76728571Y-69560571D01*
X76728571Y-69560571D02*
X76766667Y-69712952D01*
X76766667Y-69712952D02*
X76766667Y-69827238D01*
X76766667Y-69827238D02*
X76728571Y-69979619D01*
X76728571Y-69979619D02*
X76690476Y-70055809D01*
X76690476Y-70055809D02*
X76614286Y-70132000D01*
X76614286Y-70132000D02*
X76500000Y-70170095D01*
X76500000Y-70170095D02*
X76309524Y-70170095D01*
X77071428Y-69446285D02*
X77109524Y-69408190D01*
X77109524Y-69408190D02*
X77185714Y-69370095D01*
X77185714Y-69370095D02*
X77376190Y-69370095D01*
X77376190Y-69370095D02*
X77452381Y-69408190D01*
X77452381Y-69408190D02*
X77490476Y-69446285D01*
X77490476Y-69446285D02*
X77528571Y-69522476D01*
X77528571Y-69522476D02*
X77528571Y-69598666D01*
X77528571Y-69598666D02*
X77490476Y-69712952D01*
X77490476Y-69712952D02*
X77033333Y-70170095D01*
X77033333Y-70170095D02*
X77528571Y-70170095D01*
%TO.C,D5*%
X82509524Y-50570095D02*
X82509524Y-49770095D01*
X82509524Y-49770095D02*
X82700000Y-49770095D01*
X82700000Y-49770095D02*
X82814286Y-49808190D01*
X82814286Y-49808190D02*
X82890476Y-49884380D01*
X82890476Y-49884380D02*
X82928571Y-49960571D01*
X82928571Y-49960571D02*
X82966667Y-50112952D01*
X82966667Y-50112952D02*
X82966667Y-50227238D01*
X82966667Y-50227238D02*
X82928571Y-50379619D01*
X82928571Y-50379619D02*
X82890476Y-50455809D01*
X82890476Y-50455809D02*
X82814286Y-50532000D01*
X82814286Y-50532000D02*
X82700000Y-50570095D01*
X82700000Y-50570095D02*
X82509524Y-50570095D01*
X83690476Y-49770095D02*
X83309524Y-49770095D01*
X83309524Y-49770095D02*
X83271428Y-50151047D01*
X83271428Y-50151047D02*
X83309524Y-50112952D01*
X83309524Y-50112952D02*
X83385714Y-50074857D01*
X83385714Y-50074857D02*
X83576190Y-50074857D01*
X83576190Y-50074857D02*
X83652381Y-50112952D01*
X83652381Y-50112952D02*
X83690476Y-50151047D01*
X83690476Y-50151047D02*
X83728571Y-50227238D01*
X83728571Y-50227238D02*
X83728571Y-50417714D01*
X83728571Y-50417714D02*
X83690476Y-50493904D01*
X83690476Y-50493904D02*
X83652381Y-50532000D01*
X83652381Y-50532000D02*
X83576190Y-50570095D01*
X83576190Y-50570095D02*
X83385714Y-50570095D01*
X83385714Y-50570095D02*
X83309524Y-50532000D01*
X83309524Y-50532000D02*
X83271428Y-50493904D01*
%TO.C,D3*%
X69091430Y-61414001D02*
X69784250Y-61014001D01*
X69784250Y-61014001D02*
X69879488Y-61178958D01*
X69879488Y-61178958D02*
X69903640Y-61296980D01*
X69903640Y-61296980D02*
X69875752Y-61401058D01*
X69875752Y-61401058D02*
X69828817Y-61472145D01*
X69828817Y-61472145D02*
X69715898Y-61581327D01*
X69715898Y-61581327D02*
X69616924Y-61638470D01*
X69616924Y-61638470D02*
X69465911Y-61681669D01*
X69465911Y-61681669D02*
X69380880Y-61686773D01*
X69380880Y-61686773D02*
X69276802Y-61658885D01*
X69276802Y-61658885D02*
X69186668Y-61578958D01*
X69186668Y-61578958D02*
X69091430Y-61414001D01*
X70146155Y-61640839D02*
X70393774Y-62069727D01*
X70393774Y-62069727D02*
X69996509Y-61991168D01*
X69996509Y-61991168D02*
X70053652Y-62090142D01*
X70053652Y-62090142D02*
X70058756Y-62175173D01*
X70058756Y-62175173D02*
X70044812Y-62227212D01*
X70044812Y-62227212D02*
X69997877Y-62298299D01*
X69997877Y-62298299D02*
X69832919Y-62393537D01*
X69832919Y-62393537D02*
X69747889Y-62398641D01*
X69747889Y-62398641D02*
X69695850Y-62384697D01*
X69695850Y-62384697D02*
X69624763Y-62337761D01*
X69624763Y-62337761D02*
X69510477Y-62139813D01*
X69510477Y-62139813D02*
X69505374Y-62054782D01*
X69505374Y-62054782D02*
X69519317Y-62002743D01*
%TO.C,D4*%
X72832453Y-53586735D02*
X72139633Y-53186735D01*
X72139633Y-53186735D02*
X72234871Y-53021778D01*
X72234871Y-53021778D02*
X72325006Y-52941851D01*
X72325006Y-52941851D02*
X72429084Y-52913964D01*
X72429084Y-52913964D02*
X72514114Y-52919067D01*
X72514114Y-52919067D02*
X72665128Y-52962266D01*
X72665128Y-52962266D02*
X72764102Y-53019409D01*
X72764102Y-53019409D02*
X72877020Y-53128591D01*
X72877020Y-53128591D02*
X72923955Y-53199678D01*
X72923955Y-53199678D02*
X72951843Y-53303756D01*
X72951843Y-53303756D02*
X72927692Y-53421778D01*
X72927692Y-53421778D02*
X72832453Y-53586735D01*
X72942002Y-52330325D02*
X73403882Y-52596992D01*
X72582832Y-52342901D02*
X72982466Y-52793573D01*
X72982466Y-52793573D02*
X73230085Y-52364684D01*
%TO.C,D1*%
X87218093Y-67806093D02*
X86525273Y-67406093D01*
X86525273Y-67406093D02*
X86620511Y-67241136D01*
X86620511Y-67241136D02*
X86710646Y-67161209D01*
X86710646Y-67161209D02*
X86814724Y-67133322D01*
X86814724Y-67133322D02*
X86899754Y-67138425D01*
X86899754Y-67138425D02*
X87050768Y-67181624D01*
X87050768Y-67181624D02*
X87149742Y-67238767D01*
X87149742Y-67238767D02*
X87262660Y-67347949D01*
X87262660Y-67347949D02*
X87309595Y-67419036D01*
X87309595Y-67419036D02*
X87337483Y-67523114D01*
X87337483Y-67523114D02*
X87313332Y-67641136D01*
X87313332Y-67641136D02*
X87218093Y-67806093D01*
X87827617Y-66750367D02*
X87599046Y-67146264D01*
X87713332Y-66948316D02*
X87020511Y-66548316D01*
X87020511Y-66548316D02*
X87081390Y-66671441D01*
X87081390Y-66671441D02*
X87109278Y-66775519D01*
X87109278Y-66775519D02*
X87104174Y-66860550D01*
D11*
%TO.C,D6*%
X86447372Y-55399167D02*
X88352628Y-54299167D01*
X88007180Y-57500833D02*
X89392820Y-56700833D01*
%TO.C,D2*%
X81300000Y-67900000D02*
X81300000Y-70100000D01*
X78700000Y-68200000D02*
X78700000Y-69800000D01*
%TO.C,D5*%
X78700000Y-52100000D02*
X78700000Y-49900000D01*
X81300000Y-51800000D02*
X81300000Y-50200000D01*
%TO.C,D3*%
X73552628Y-64600833D02*
X71647372Y-65700833D01*
X71992820Y-62499167D02*
X70607180Y-63299167D01*
%TO.C,D4*%
X72252628Y-57650833D02*
X70347372Y-56550833D01*
X73292820Y-55249167D02*
X71907180Y-54449167D01*
%TO.C,D1*%
X87747372Y-62349167D02*
X89652628Y-63449167D01*
X86707180Y-64750833D02*
X88092820Y-65550833D01*
%TD*%
M02*
