%TF.GenerationSoftware,KiCad,Pcbnew,7.0.2.1-36-g582732918d-dirty-deb11*%
%TF.CreationDate,2023-05-26T17:28:03+00:00*%
%TF.ProjectId,pedalboard-led-ring,70656461-6c62-46f6-9172-642d6c65642d,rev?*%
%TF.SameCoordinates,Original*%
%TF.FileFunction,Legend,Bot*%
%TF.FilePolarity,Positive*%
%FSLAX46Y46*%
G04 Gerber Fmt 4.6, Leading zero omitted, Abs format (unit mm)*
G04 Created by KiCad (PCBNEW 7.0.2.1-36-g582732918d-dirty-deb11) date 2023-05-26 17:28:03*
%MOMM*%
%LPD*%
G01*
G04 APERTURE LIST*
%ADD10C,0.100000*%
%ADD11C,0.150000*%
%ADD12C,0.120000*%
%ADD13C,0.127000*%
G04 APERTURE END LIST*
D10*
X87050000Y-60000000D02*
G75*
G03*
X87050000Y-60000000I-7050000J0D01*
G01*
D11*
%TO.C,U1*%
X92861904Y-48762619D02*
X92861904Y-49572142D01*
X92861904Y-49572142D02*
X92814285Y-49667380D01*
X92814285Y-49667380D02*
X92766666Y-49715000D01*
X92766666Y-49715000D02*
X92671428Y-49762619D01*
X92671428Y-49762619D02*
X92480952Y-49762619D01*
X92480952Y-49762619D02*
X92385714Y-49715000D01*
X92385714Y-49715000D02*
X92338095Y-49667380D01*
X92338095Y-49667380D02*
X92290476Y-49572142D01*
X92290476Y-49572142D02*
X92290476Y-48762619D01*
X91290476Y-49762619D02*
X91861904Y-49762619D01*
X91576190Y-49762619D02*
X91576190Y-48762619D01*
X91576190Y-48762619D02*
X91671428Y-48905476D01*
X91671428Y-48905476D02*
X91766666Y-49000714D01*
X91766666Y-49000714D02*
X91861904Y-49048333D01*
%TO.C,L1*%
X88466666Y-65362619D02*
X88942856Y-65362619D01*
X88942856Y-65362619D02*
X88942856Y-64362619D01*
X87609523Y-65362619D02*
X88180951Y-65362619D01*
X87895237Y-65362619D02*
X87895237Y-64362619D01*
X87895237Y-64362619D02*
X87990475Y-64505476D01*
X87990475Y-64505476D02*
X88085713Y-64600714D01*
X88085713Y-64600714D02*
X88180951Y-64648333D01*
%TO.C,C1*%
X92066666Y-61817380D02*
X92114285Y-61865000D01*
X92114285Y-61865000D02*
X92257142Y-61912619D01*
X92257142Y-61912619D02*
X92352380Y-61912619D01*
X92352380Y-61912619D02*
X92495237Y-61865000D01*
X92495237Y-61865000D02*
X92590475Y-61769761D01*
X92590475Y-61769761D02*
X92638094Y-61674523D01*
X92638094Y-61674523D02*
X92685713Y-61484047D01*
X92685713Y-61484047D02*
X92685713Y-61341190D01*
X92685713Y-61341190D02*
X92638094Y-61150714D01*
X92638094Y-61150714D02*
X92590475Y-61055476D01*
X92590475Y-61055476D02*
X92495237Y-60960238D01*
X92495237Y-60960238D02*
X92352380Y-60912619D01*
X92352380Y-60912619D02*
X92257142Y-60912619D01*
X92257142Y-60912619D02*
X92114285Y-60960238D01*
X92114285Y-60960238D02*
X92066666Y-61007857D01*
X91114285Y-61912619D02*
X91685713Y-61912619D01*
X91399999Y-61912619D02*
X91399999Y-60912619D01*
X91399999Y-60912619D02*
X91495237Y-61055476D01*
X91495237Y-61055476D02*
X91590475Y-61150714D01*
X91590475Y-61150714D02*
X91685713Y-61198333D01*
%TO.C,J1*%
X101183333Y-71362619D02*
X101183333Y-72076904D01*
X101183333Y-72076904D02*
X101230952Y-72219761D01*
X101230952Y-72219761D02*
X101326190Y-72315000D01*
X101326190Y-72315000D02*
X101469047Y-72362619D01*
X101469047Y-72362619D02*
X101564285Y-72362619D01*
X100183333Y-72362619D02*
X100754761Y-72362619D01*
X100469047Y-72362619D02*
X100469047Y-71362619D01*
X100469047Y-71362619D02*
X100564285Y-71505476D01*
X100564285Y-71505476D02*
X100659523Y-71600714D01*
X100659523Y-71600714D02*
X100754761Y-71648333D01*
%TO.C,R2*%
X83000702Y-72691666D02*
X82691178Y-72474999D01*
X83000702Y-72320237D02*
X82350702Y-72320237D01*
X82350702Y-72320237D02*
X82350702Y-72567856D01*
X82350702Y-72567856D02*
X82381654Y-72629761D01*
X82381654Y-72629761D02*
X82412607Y-72660714D01*
X82412607Y-72660714D02*
X82474511Y-72691666D01*
X82474511Y-72691666D02*
X82567369Y-72691666D01*
X82567369Y-72691666D02*
X82629273Y-72660714D01*
X82629273Y-72660714D02*
X82660226Y-72629761D01*
X82660226Y-72629761D02*
X82691178Y-72567856D01*
X82691178Y-72567856D02*
X82691178Y-72320237D01*
X82412607Y-72939285D02*
X82381654Y-72970237D01*
X82381654Y-72970237D02*
X82350702Y-73032142D01*
X82350702Y-73032142D02*
X82350702Y-73186904D01*
X82350702Y-73186904D02*
X82381654Y-73248809D01*
X82381654Y-73248809D02*
X82412607Y-73279761D01*
X82412607Y-73279761D02*
X82474511Y-73310714D01*
X82474511Y-73310714D02*
X82536416Y-73310714D01*
X82536416Y-73310714D02*
X82629273Y-73279761D01*
X82629273Y-73279761D02*
X83000702Y-72908333D01*
X83000702Y-72908333D02*
X83000702Y-73310714D01*
%TO.C,R1*%
X101600702Y-52991666D02*
X101291178Y-52774999D01*
X101600702Y-52620237D02*
X100950702Y-52620237D01*
X100950702Y-52620237D02*
X100950702Y-52867856D01*
X100950702Y-52867856D02*
X100981654Y-52929761D01*
X100981654Y-52929761D02*
X101012607Y-52960714D01*
X101012607Y-52960714D02*
X101074511Y-52991666D01*
X101074511Y-52991666D02*
X101167369Y-52991666D01*
X101167369Y-52991666D02*
X101229273Y-52960714D01*
X101229273Y-52960714D02*
X101260226Y-52929761D01*
X101260226Y-52929761D02*
X101291178Y-52867856D01*
X101291178Y-52867856D02*
X101291178Y-52620237D01*
X101600702Y-53610714D02*
X101600702Y-53239285D01*
X101600702Y-53424999D02*
X100950702Y-53424999D01*
X100950702Y-53424999D02*
X101043559Y-53363095D01*
X101043559Y-53363095D02*
X101105464Y-53301190D01*
X101105464Y-53301190D02*
X101136416Y-53239285D01*
%TO.C,U2*%
X88883333Y-73173833D02*
X88883333Y-73740500D01*
X88883333Y-73740500D02*
X88850000Y-73807166D01*
X88850000Y-73807166D02*
X88816666Y-73840500D01*
X88816666Y-73840500D02*
X88750000Y-73873833D01*
X88750000Y-73873833D02*
X88616666Y-73873833D01*
X88616666Y-73873833D02*
X88550000Y-73840500D01*
X88550000Y-73840500D02*
X88516666Y-73807166D01*
X88516666Y-73807166D02*
X88483333Y-73740500D01*
X88483333Y-73740500D02*
X88483333Y-73173833D01*
X88183333Y-73240500D02*
X88150000Y-73207166D01*
X88150000Y-73207166D02*
X88083333Y-73173833D01*
X88083333Y-73173833D02*
X87916667Y-73173833D01*
X87916667Y-73173833D02*
X87850000Y-73207166D01*
X87850000Y-73207166D02*
X87816667Y-73240500D01*
X87816667Y-73240500D02*
X87783333Y-73307166D01*
X87783333Y-73307166D02*
X87783333Y-73373833D01*
X87783333Y-73373833D02*
X87816667Y-73473833D01*
X87816667Y-73473833D02*
X88216667Y-73873833D01*
X88216667Y-73873833D02*
X87783333Y-73873833D01*
%TO.C,C2*%
X96487380Y-57333333D02*
X96535000Y-57285714D01*
X96535000Y-57285714D02*
X96582619Y-57142857D01*
X96582619Y-57142857D02*
X96582619Y-57047619D01*
X96582619Y-57047619D02*
X96535000Y-56904762D01*
X96535000Y-56904762D02*
X96439761Y-56809524D01*
X96439761Y-56809524D02*
X96344523Y-56761905D01*
X96344523Y-56761905D02*
X96154047Y-56714286D01*
X96154047Y-56714286D02*
X96011190Y-56714286D01*
X96011190Y-56714286D02*
X95820714Y-56761905D01*
X95820714Y-56761905D02*
X95725476Y-56809524D01*
X95725476Y-56809524D02*
X95630238Y-56904762D01*
X95630238Y-56904762D02*
X95582619Y-57047619D01*
X95582619Y-57047619D02*
X95582619Y-57142857D01*
X95582619Y-57142857D02*
X95630238Y-57285714D01*
X95630238Y-57285714D02*
X95677857Y-57333333D01*
X95677857Y-57714286D02*
X95630238Y-57761905D01*
X95630238Y-57761905D02*
X95582619Y-57857143D01*
X95582619Y-57857143D02*
X95582619Y-58095238D01*
X95582619Y-58095238D02*
X95630238Y-58190476D01*
X95630238Y-58190476D02*
X95677857Y-58238095D01*
X95677857Y-58238095D02*
X95773095Y-58285714D01*
X95773095Y-58285714D02*
X95868333Y-58285714D01*
X95868333Y-58285714D02*
X96011190Y-58238095D01*
X96011190Y-58238095D02*
X96582619Y-57666667D01*
X96582619Y-57666667D02*
X96582619Y-58285714D01*
%TO.C,C4*%
X83266666Y-67867380D02*
X83314285Y-67915000D01*
X83314285Y-67915000D02*
X83457142Y-67962619D01*
X83457142Y-67962619D02*
X83552380Y-67962619D01*
X83552380Y-67962619D02*
X83695237Y-67915000D01*
X83695237Y-67915000D02*
X83790475Y-67819761D01*
X83790475Y-67819761D02*
X83838094Y-67724523D01*
X83838094Y-67724523D02*
X83885713Y-67534047D01*
X83885713Y-67534047D02*
X83885713Y-67391190D01*
X83885713Y-67391190D02*
X83838094Y-67200714D01*
X83838094Y-67200714D02*
X83790475Y-67105476D01*
X83790475Y-67105476D02*
X83695237Y-67010238D01*
X83695237Y-67010238D02*
X83552380Y-66962619D01*
X83552380Y-66962619D02*
X83457142Y-66962619D01*
X83457142Y-66962619D02*
X83314285Y-67010238D01*
X83314285Y-67010238D02*
X83266666Y-67057857D01*
X82409523Y-67295952D02*
X82409523Y-67962619D01*
X82647618Y-66915000D02*
X82885713Y-67629285D01*
X82885713Y-67629285D02*
X82266666Y-67629285D01*
%TO.C,C3*%
X92466666Y-73567380D02*
X92514285Y-73615000D01*
X92514285Y-73615000D02*
X92657142Y-73662619D01*
X92657142Y-73662619D02*
X92752380Y-73662619D01*
X92752380Y-73662619D02*
X92895237Y-73615000D01*
X92895237Y-73615000D02*
X92990475Y-73519761D01*
X92990475Y-73519761D02*
X93038094Y-73424523D01*
X93038094Y-73424523D02*
X93085713Y-73234047D01*
X93085713Y-73234047D02*
X93085713Y-73091190D01*
X93085713Y-73091190D02*
X93038094Y-72900714D01*
X93038094Y-72900714D02*
X92990475Y-72805476D01*
X92990475Y-72805476D02*
X92895237Y-72710238D01*
X92895237Y-72710238D02*
X92752380Y-72662619D01*
X92752380Y-72662619D02*
X92657142Y-72662619D01*
X92657142Y-72662619D02*
X92514285Y-72710238D01*
X92514285Y-72710238D02*
X92466666Y-72757857D01*
X92133332Y-72662619D02*
X91514285Y-72662619D01*
X91514285Y-72662619D02*
X91847618Y-73043571D01*
X91847618Y-73043571D02*
X91704761Y-73043571D01*
X91704761Y-73043571D02*
X91609523Y-73091190D01*
X91609523Y-73091190D02*
X91561904Y-73138809D01*
X91561904Y-73138809D02*
X91514285Y-73234047D01*
X91514285Y-73234047D02*
X91514285Y-73472142D01*
X91514285Y-73472142D02*
X91561904Y-73567380D01*
X91561904Y-73567380D02*
X91609523Y-73615000D01*
X91609523Y-73615000D02*
X91704761Y-73662619D01*
X91704761Y-73662619D02*
X91990475Y-73662619D01*
X91990475Y-73662619D02*
X92085713Y-73615000D01*
X92085713Y-73615000D02*
X92133332Y-73567380D01*
D12*
%TO.C,U1*%
X94900000Y-50240000D02*
X92950000Y-50240000D01*
X94900000Y-50240000D02*
X96850000Y-50240000D01*
X94900000Y-55360000D02*
X91450000Y-55360000D01*
X94900000Y-55360000D02*
X96850000Y-55360000D01*
D13*
%TO.C,L1*%
X86300000Y-68413500D02*
X89500000Y-68413500D01*
X89500000Y-65786500D02*
X86300000Y-65786500D01*
D12*
%TO.C,C1*%
X91188748Y-58690000D02*
X92611252Y-58690000D01*
X91188748Y-60510000D02*
X92611252Y-60510000D01*
%TO.C,J1*%
X100370000Y-65400000D02*
X100370000Y-70600000D01*
X99800000Y-65400000D02*
X100370000Y-65400000D01*
X97260000Y-65400000D02*
X98280000Y-65400000D01*
X94720000Y-65400000D02*
X95740000Y-65400000D01*
X92630000Y-65400000D02*
X93200000Y-65400000D01*
X92630000Y-65400000D02*
X92630000Y-70600000D01*
X99800000Y-70600000D02*
X100370000Y-70600000D01*
X97260000Y-70600000D02*
X98280000Y-70600000D01*
X94720000Y-70600000D02*
X95740000Y-70600000D01*
X93200000Y-70600000D02*
X93200000Y-71960000D01*
X92630000Y-70600000D02*
X93200000Y-70600000D01*
D11*
%TO.C,R2*%
X83300000Y-71150000D02*
X83300000Y-72850000D01*
X84700000Y-72850000D02*
X84700000Y-71150000D01*
%TO.C,R1*%
X100500000Y-53450000D02*
X100500000Y-51750000D01*
X99100000Y-51750000D02*
X99100000Y-53450000D01*
%TO.C,U2*%
X87400000Y-73625000D02*
X85400000Y-73625000D01*
X86400000Y-70375000D02*
X85400000Y-70375000D01*
D12*
%TO.C,C2*%
X98535000Y-57238748D02*
X98535000Y-57761252D01*
X97065000Y-57238748D02*
X97065000Y-57761252D01*
%TO.C,C4*%
X83161252Y-70035000D02*
X82638748Y-70035000D01*
X83161252Y-68565000D02*
X82638748Y-68565000D01*
%TO.C,C3*%
X89090000Y-71811252D02*
X89090000Y-70388748D01*
X90910000Y-71811252D02*
X90910000Y-70388748D01*
%TD*%
M02*
