%TF.GenerationSoftware,KiCad,Pcbnew,7.0.5.1-1-g8f565ef7f0-dirty-deb11*%
%TF.CreationDate,2023-06-02T13:43:08+00:00*%
%TF.ProjectId,pedalboard-led-ring,70656461-6c62-46f6-9172-642d6c65642d,1.0.0*%
%TF.SameCoordinates,Original*%
%TF.FileFunction,Drillmap*%
%TF.FilePolarity,Positive*%
%FSLAX45Y45*%
G04 Gerber Fmt 4.5, Leading zero omitted, Abs format (unit mm)*
G04 Created by KiCad (PCBNEW 7.0.5.1-1-g8f565ef7f0-dirty-deb11) date 2023-06-02 13:43:08*
%MOMM*%
%LPD*%
G01*
G04 APERTURE LIST*
%ADD10C,0.100000*%
%ADD11C,0.200000*%
%ADD12C,0.040000*%
G04 APERTURE END LIST*
D10*
X6500000Y-7400000D02*
G75*
G03*
X6600000Y-7500000I100000J0D01*
G01*
X8610000Y-6000000D02*
G75*
G03*
X8610000Y-6000000I-610000J0D01*
G01*
X9500000Y-4600000D02*
X9500000Y-7400000D01*
X6500000Y-7400000D02*
X6500000Y-4600000D01*
X9400000Y-7500000D02*
G75*
G03*
X9500000Y-7400000I0J100000D01*
G01*
X6600000Y-4500000D02*
X9400000Y-4500000D01*
X9400000Y-7500000D02*
X6600000Y-7500000D01*
X6600000Y-4500000D02*
G75*
G03*
X6500000Y-4600000I0J-100000D01*
G01*
X9500000Y-4600000D02*
G75*
G03*
X9400000Y-4500000I-100000J0D01*
G01*
D11*
D12*
X6880000Y-6020000D02*
X6920000Y-6060000D01*
X6920000Y-6020000D02*
X6880000Y-6060000D01*
X7007372Y-5464641D02*
X7047372Y-5504641D01*
X7047372Y-5464641D02*
X7007372Y-5504641D01*
X7047372Y-6564641D02*
X7087372Y-6604641D01*
X7087372Y-6564641D02*
X7047372Y-6604641D01*
X7395359Y-5047372D02*
X7435359Y-5087372D01*
X7435359Y-5047372D02*
X7395359Y-5087372D01*
X7464641Y-6952628D02*
X7504641Y-6992628D01*
X7504641Y-6952628D02*
X7464641Y-6992628D01*
X7940000Y-4880000D02*
X7980000Y-4920000D01*
X7980000Y-4880000D02*
X7940000Y-4920000D01*
X8020000Y-7080000D02*
X8060000Y-7120000D01*
X8060000Y-7080000D02*
X8020000Y-7120000D01*
X8495359Y-5007372D02*
X8535359Y-5047372D01*
X8535359Y-5007372D02*
X8495359Y-5047372D01*
X8570000Y-7180000D02*
X8610000Y-7220000D01*
X8610000Y-7180000D02*
X8570000Y-7220000D01*
X8620000Y-6330000D02*
X8660000Y-6370000D01*
X8660000Y-6330000D02*
X8620000Y-6370000D01*
X8620000Y-6760000D02*
X8660000Y-6800000D01*
X8660000Y-6760000D02*
X8620000Y-6800000D01*
X8670000Y-7180000D02*
X8710000Y-7220000D01*
X8710000Y-7180000D02*
X8670000Y-7220000D01*
X8770000Y-7180000D02*
X8810000Y-7220000D01*
X8810000Y-7180000D02*
X8770000Y-7220000D01*
X8771000Y-6162000D02*
X8811000Y-6202000D01*
X8811000Y-6162000D02*
X8771000Y-6202000D01*
X8912628Y-5395359D02*
X8952628Y-5435359D01*
X8952628Y-5395359D02*
X8912628Y-5435359D01*
X8952628Y-6495359D02*
X8992628Y-6535359D01*
X8992628Y-6495359D02*
X8952628Y-6535359D01*
X9080000Y-5940000D02*
X9120000Y-5980000D01*
X9120000Y-5940000D02*
X9080000Y-5980000D01*
X9180000Y-6190000D02*
X9220000Y-6230000D01*
X9220000Y-6190000D02*
X9180000Y-6230000D01*
X9180000Y-6290000D02*
X9220000Y-6330000D01*
X9220000Y-6290000D02*
X9180000Y-6330000D01*
X9180000Y-6390000D02*
X9220000Y-6430000D01*
X9220000Y-6390000D02*
X9180000Y-6430000D01*
D11*
X6755777Y-7816484D02*
X6755777Y-7616484D01*
X6755777Y-7616484D02*
X6803396Y-7616484D01*
X6803396Y-7616484D02*
X6831967Y-7626008D01*
X6831967Y-7626008D02*
X6851015Y-7645055D01*
X6851015Y-7645055D02*
X6860539Y-7664103D01*
X6860539Y-7664103D02*
X6870062Y-7702198D01*
X6870062Y-7702198D02*
X6870062Y-7730769D01*
X6870062Y-7730769D02*
X6860539Y-7768865D01*
X6860539Y-7768865D02*
X6851015Y-7787912D01*
X6851015Y-7787912D02*
X6831967Y-7806960D01*
X6831967Y-7806960D02*
X6803396Y-7816484D01*
X6803396Y-7816484D02*
X6755777Y-7816484D01*
X6955777Y-7816484D02*
X6955777Y-7683150D01*
X6955777Y-7721246D02*
X6965301Y-7702198D01*
X6965301Y-7702198D02*
X6974824Y-7692674D01*
X6974824Y-7692674D02*
X6993872Y-7683150D01*
X6993872Y-7683150D02*
X7012920Y-7683150D01*
X7079586Y-7816484D02*
X7079586Y-7683150D01*
X7079586Y-7616484D02*
X7070062Y-7626008D01*
X7070062Y-7626008D02*
X7079586Y-7635531D01*
X7079586Y-7635531D02*
X7089110Y-7626008D01*
X7089110Y-7626008D02*
X7079586Y-7616484D01*
X7079586Y-7616484D02*
X7079586Y-7635531D01*
X7203396Y-7816484D02*
X7184348Y-7806960D01*
X7184348Y-7806960D02*
X7174824Y-7787912D01*
X7174824Y-7787912D02*
X7174824Y-7616484D01*
X7308158Y-7816484D02*
X7289110Y-7806960D01*
X7289110Y-7806960D02*
X7279586Y-7787912D01*
X7279586Y-7787912D02*
X7279586Y-7616484D01*
X7536729Y-7816484D02*
X7536729Y-7616484D01*
X7536729Y-7616484D02*
X7603396Y-7759341D01*
X7603396Y-7759341D02*
X7670062Y-7616484D01*
X7670062Y-7616484D02*
X7670062Y-7816484D01*
X7851015Y-7816484D02*
X7851015Y-7711722D01*
X7851015Y-7711722D02*
X7841491Y-7692674D01*
X7841491Y-7692674D02*
X7822443Y-7683150D01*
X7822443Y-7683150D02*
X7784348Y-7683150D01*
X7784348Y-7683150D02*
X7765301Y-7692674D01*
X7851015Y-7806960D02*
X7831967Y-7816484D01*
X7831967Y-7816484D02*
X7784348Y-7816484D01*
X7784348Y-7816484D02*
X7765301Y-7806960D01*
X7765301Y-7806960D02*
X7755777Y-7787912D01*
X7755777Y-7787912D02*
X7755777Y-7768865D01*
X7755777Y-7768865D02*
X7765301Y-7749817D01*
X7765301Y-7749817D02*
X7784348Y-7740293D01*
X7784348Y-7740293D02*
X7831967Y-7740293D01*
X7831967Y-7740293D02*
X7851015Y-7730769D01*
X7946253Y-7683150D02*
X7946253Y-7883150D01*
X7946253Y-7692674D02*
X7965301Y-7683150D01*
X7965301Y-7683150D02*
X8003396Y-7683150D01*
X8003396Y-7683150D02*
X8022443Y-7692674D01*
X8022443Y-7692674D02*
X8031967Y-7702198D01*
X8031967Y-7702198D02*
X8041491Y-7721246D01*
X8041491Y-7721246D02*
X8041491Y-7778388D01*
X8041491Y-7778388D02*
X8031967Y-7797436D01*
X8031967Y-7797436D02*
X8022443Y-7806960D01*
X8022443Y-7806960D02*
X8003396Y-7816484D01*
X8003396Y-7816484D02*
X7965301Y-7816484D01*
X7965301Y-7816484D02*
X7946253Y-7806960D01*
X8127205Y-7797436D02*
X8136729Y-7806960D01*
X8136729Y-7806960D02*
X8127205Y-7816484D01*
X8127205Y-7816484D02*
X8117682Y-7806960D01*
X8117682Y-7806960D02*
X8127205Y-7797436D01*
X8127205Y-7797436D02*
X8127205Y-7816484D01*
X8127205Y-7692674D02*
X8136729Y-7702198D01*
X8136729Y-7702198D02*
X8127205Y-7711722D01*
X8127205Y-7711722D02*
X8117682Y-7702198D01*
X8117682Y-7702198D02*
X8127205Y-7692674D01*
X8127205Y-7692674D02*
X8127205Y-7711722D01*
D12*
X6455000Y-8125000D02*
X6495000Y-8165000D01*
X6495000Y-8125000D02*
X6455000Y-8165000D01*
D11*
X6793872Y-8036484D02*
X6812920Y-8036484D01*
X6812920Y-8036484D02*
X6831967Y-8046008D01*
X6831967Y-8046008D02*
X6841491Y-8055531D01*
X6841491Y-8055531D02*
X6851015Y-8074579D01*
X6851015Y-8074579D02*
X6860539Y-8112674D01*
X6860539Y-8112674D02*
X6860539Y-8160293D01*
X6860539Y-8160293D02*
X6851015Y-8198388D01*
X6851015Y-8198388D02*
X6841491Y-8217436D01*
X6841491Y-8217436D02*
X6831967Y-8226960D01*
X6831967Y-8226960D02*
X6812920Y-8236484D01*
X6812920Y-8236484D02*
X6793872Y-8236484D01*
X6793872Y-8236484D02*
X6774824Y-8226960D01*
X6774824Y-8226960D02*
X6765301Y-8217436D01*
X6765301Y-8217436D02*
X6755777Y-8198388D01*
X6755777Y-8198388D02*
X6746253Y-8160293D01*
X6746253Y-8160293D02*
X6746253Y-8112674D01*
X6746253Y-8112674D02*
X6755777Y-8074579D01*
X6755777Y-8074579D02*
X6765301Y-8055531D01*
X6765301Y-8055531D02*
X6774824Y-8046008D01*
X6774824Y-8046008D02*
X6793872Y-8036484D01*
X6946253Y-8217436D02*
X6955777Y-8226960D01*
X6955777Y-8226960D02*
X6946253Y-8236484D01*
X6946253Y-8236484D02*
X6936729Y-8226960D01*
X6936729Y-8226960D02*
X6946253Y-8217436D01*
X6946253Y-8217436D02*
X6946253Y-8236484D01*
X7127205Y-8103150D02*
X7127205Y-8236484D01*
X7079586Y-8026960D02*
X7031967Y-8169817D01*
X7031967Y-8169817D02*
X7155777Y-8169817D01*
X7270062Y-8036484D02*
X7289110Y-8036484D01*
X7289110Y-8036484D02*
X7308158Y-8046008D01*
X7308158Y-8046008D02*
X7317682Y-8055531D01*
X7317682Y-8055531D02*
X7327205Y-8074579D01*
X7327205Y-8074579D02*
X7336729Y-8112674D01*
X7336729Y-8112674D02*
X7336729Y-8160293D01*
X7336729Y-8160293D02*
X7327205Y-8198388D01*
X7327205Y-8198388D02*
X7317682Y-8217436D01*
X7317682Y-8217436D02*
X7308158Y-8226960D01*
X7308158Y-8226960D02*
X7289110Y-8236484D01*
X7289110Y-8236484D02*
X7270062Y-8236484D01*
X7270062Y-8236484D02*
X7251015Y-8226960D01*
X7251015Y-8226960D02*
X7241491Y-8217436D01*
X7241491Y-8217436D02*
X7231967Y-8198388D01*
X7231967Y-8198388D02*
X7222443Y-8160293D01*
X7222443Y-8160293D02*
X7222443Y-8112674D01*
X7222443Y-8112674D02*
X7231967Y-8074579D01*
X7231967Y-8074579D02*
X7241491Y-8055531D01*
X7241491Y-8055531D02*
X7251015Y-8046008D01*
X7251015Y-8046008D02*
X7270062Y-8036484D01*
X7460539Y-8036484D02*
X7479586Y-8036484D01*
X7479586Y-8036484D02*
X7498634Y-8046008D01*
X7498634Y-8046008D02*
X7508158Y-8055531D01*
X7508158Y-8055531D02*
X7517682Y-8074579D01*
X7517682Y-8074579D02*
X7527205Y-8112674D01*
X7527205Y-8112674D02*
X7527205Y-8160293D01*
X7527205Y-8160293D02*
X7517682Y-8198388D01*
X7517682Y-8198388D02*
X7508158Y-8217436D01*
X7508158Y-8217436D02*
X7498634Y-8226960D01*
X7498634Y-8226960D02*
X7479586Y-8236484D01*
X7479586Y-8236484D02*
X7460539Y-8236484D01*
X7460539Y-8236484D02*
X7441491Y-8226960D01*
X7441491Y-8226960D02*
X7431967Y-8217436D01*
X7431967Y-8217436D02*
X7422443Y-8198388D01*
X7422443Y-8198388D02*
X7412920Y-8160293D01*
X7412920Y-8160293D02*
X7412920Y-8112674D01*
X7412920Y-8112674D02*
X7422443Y-8074579D01*
X7422443Y-8074579D02*
X7431967Y-8055531D01*
X7431967Y-8055531D02*
X7441491Y-8046008D01*
X7441491Y-8046008D02*
X7460539Y-8036484D01*
X7612920Y-8236484D02*
X7612920Y-8103150D01*
X7612920Y-8122198D02*
X7622443Y-8112674D01*
X7622443Y-8112674D02*
X7641491Y-8103150D01*
X7641491Y-8103150D02*
X7670063Y-8103150D01*
X7670063Y-8103150D02*
X7689110Y-8112674D01*
X7689110Y-8112674D02*
X7698634Y-8131722D01*
X7698634Y-8131722D02*
X7698634Y-8236484D01*
X7698634Y-8131722D02*
X7708158Y-8112674D01*
X7708158Y-8112674D02*
X7727205Y-8103150D01*
X7727205Y-8103150D02*
X7755777Y-8103150D01*
X7755777Y-8103150D02*
X7774824Y-8112674D01*
X7774824Y-8112674D02*
X7784348Y-8131722D01*
X7784348Y-8131722D02*
X7784348Y-8236484D01*
X7879586Y-8236484D02*
X7879586Y-8103150D01*
X7879586Y-8122198D02*
X7889110Y-8112674D01*
X7889110Y-8112674D02*
X7908158Y-8103150D01*
X7908158Y-8103150D02*
X7936729Y-8103150D01*
X7936729Y-8103150D02*
X7955777Y-8112674D01*
X7955777Y-8112674D02*
X7965301Y-8131722D01*
X7965301Y-8131722D02*
X7965301Y-8236484D01*
X7965301Y-8131722D02*
X7974824Y-8112674D01*
X7974824Y-8112674D02*
X7993872Y-8103150D01*
X7993872Y-8103150D02*
X8022443Y-8103150D01*
X8022443Y-8103150D02*
X8041491Y-8112674D01*
X8041491Y-8112674D02*
X8051015Y-8131722D01*
X8051015Y-8131722D02*
X8051015Y-8236484D01*
X8441491Y-8026960D02*
X8270063Y-8284103D01*
X8698634Y-8036484D02*
X8717682Y-8036484D01*
X8717682Y-8036484D02*
X8736729Y-8046008D01*
X8736729Y-8046008D02*
X8746253Y-8055531D01*
X8746253Y-8055531D02*
X8755777Y-8074579D01*
X8755777Y-8074579D02*
X8765301Y-8112674D01*
X8765301Y-8112674D02*
X8765301Y-8160293D01*
X8765301Y-8160293D02*
X8755777Y-8198388D01*
X8755777Y-8198388D02*
X8746253Y-8217436D01*
X8746253Y-8217436D02*
X8736729Y-8226960D01*
X8736729Y-8226960D02*
X8717682Y-8236484D01*
X8717682Y-8236484D02*
X8698634Y-8236484D01*
X8698634Y-8236484D02*
X8679587Y-8226960D01*
X8679587Y-8226960D02*
X8670063Y-8217436D01*
X8670063Y-8217436D02*
X8660539Y-8198388D01*
X8660539Y-8198388D02*
X8651015Y-8160293D01*
X8651015Y-8160293D02*
X8651015Y-8112674D01*
X8651015Y-8112674D02*
X8660539Y-8074579D01*
X8660539Y-8074579D02*
X8670063Y-8055531D01*
X8670063Y-8055531D02*
X8679587Y-8046008D01*
X8679587Y-8046008D02*
X8698634Y-8036484D01*
X8851015Y-8217436D02*
X8860539Y-8226960D01*
X8860539Y-8226960D02*
X8851015Y-8236484D01*
X8851015Y-8236484D02*
X8841491Y-8226960D01*
X8841491Y-8226960D02*
X8851015Y-8217436D01*
X8851015Y-8217436D02*
X8851015Y-8236484D01*
X8984348Y-8036484D02*
X9003396Y-8036484D01*
X9003396Y-8036484D02*
X9022444Y-8046008D01*
X9022444Y-8046008D02*
X9031968Y-8055531D01*
X9031968Y-8055531D02*
X9041491Y-8074579D01*
X9041491Y-8074579D02*
X9051015Y-8112674D01*
X9051015Y-8112674D02*
X9051015Y-8160293D01*
X9051015Y-8160293D02*
X9041491Y-8198388D01*
X9041491Y-8198388D02*
X9031968Y-8217436D01*
X9031968Y-8217436D02*
X9022444Y-8226960D01*
X9022444Y-8226960D02*
X9003396Y-8236484D01*
X9003396Y-8236484D02*
X8984348Y-8236484D01*
X8984348Y-8236484D02*
X8965301Y-8226960D01*
X8965301Y-8226960D02*
X8955777Y-8217436D01*
X8955777Y-8217436D02*
X8946253Y-8198388D01*
X8946253Y-8198388D02*
X8936729Y-8160293D01*
X8936729Y-8160293D02*
X8936729Y-8112674D01*
X8936729Y-8112674D02*
X8946253Y-8074579D01*
X8946253Y-8074579D02*
X8955777Y-8055531D01*
X8955777Y-8055531D02*
X8965301Y-8046008D01*
X8965301Y-8046008D02*
X8984348Y-8036484D01*
X9241491Y-8236484D02*
X9127206Y-8236484D01*
X9184348Y-8236484D02*
X9184348Y-8036484D01*
X9184348Y-8036484D02*
X9165301Y-8065055D01*
X9165301Y-8065055D02*
X9146253Y-8084103D01*
X9146253Y-8084103D02*
X9127206Y-8093627D01*
X9422444Y-8036484D02*
X9327206Y-8036484D01*
X9327206Y-8036484D02*
X9317682Y-8131722D01*
X9317682Y-8131722D02*
X9327206Y-8122198D01*
X9327206Y-8122198D02*
X9346253Y-8112674D01*
X9346253Y-8112674D02*
X9393872Y-8112674D01*
X9393872Y-8112674D02*
X9412920Y-8122198D01*
X9412920Y-8122198D02*
X9422444Y-8131722D01*
X9422444Y-8131722D02*
X9431968Y-8150769D01*
X9431968Y-8150769D02*
X9431968Y-8198388D01*
X9431968Y-8198388D02*
X9422444Y-8217436D01*
X9422444Y-8217436D02*
X9412920Y-8226960D01*
X9412920Y-8226960D02*
X9393872Y-8236484D01*
X9393872Y-8236484D02*
X9346253Y-8236484D01*
X9346253Y-8236484D02*
X9327206Y-8226960D01*
X9327206Y-8226960D02*
X9317682Y-8217436D01*
X9498634Y-8036484D02*
X9631968Y-8036484D01*
X9631968Y-8036484D02*
X9546253Y-8236484D01*
X9698634Y-8036484D02*
X9698634Y-8074579D01*
X9774825Y-8036484D02*
X9774825Y-8074579D01*
X10070063Y-8312674D02*
X10060539Y-8303150D01*
X10060539Y-8303150D02*
X10041491Y-8274579D01*
X10041491Y-8274579D02*
X10031968Y-8255531D01*
X10031968Y-8255531D02*
X10022444Y-8226960D01*
X10022444Y-8226960D02*
X10012920Y-8179341D01*
X10012920Y-8179341D02*
X10012920Y-8141246D01*
X10012920Y-8141246D02*
X10022444Y-8093627D01*
X10022444Y-8093627D02*
X10031968Y-8065055D01*
X10031968Y-8065055D02*
X10041491Y-8046008D01*
X10041491Y-8046008D02*
X10060539Y-8017436D01*
X10060539Y-8017436D02*
X10070063Y-8007912D01*
X10136730Y-8055531D02*
X10146253Y-8046008D01*
X10146253Y-8046008D02*
X10165301Y-8036484D01*
X10165301Y-8036484D02*
X10212920Y-8036484D01*
X10212920Y-8036484D02*
X10231968Y-8046008D01*
X10231968Y-8046008D02*
X10241491Y-8055531D01*
X10241491Y-8055531D02*
X10251015Y-8074579D01*
X10251015Y-8074579D02*
X10251015Y-8093627D01*
X10251015Y-8093627D02*
X10241491Y-8122198D01*
X10241491Y-8122198D02*
X10127206Y-8236484D01*
X10127206Y-8236484D02*
X10251015Y-8236484D01*
X10374825Y-8036484D02*
X10393872Y-8036484D01*
X10393872Y-8036484D02*
X10412920Y-8046008D01*
X10412920Y-8046008D02*
X10422444Y-8055531D01*
X10422444Y-8055531D02*
X10431968Y-8074579D01*
X10431968Y-8074579D02*
X10441491Y-8112674D01*
X10441491Y-8112674D02*
X10441491Y-8160293D01*
X10441491Y-8160293D02*
X10431968Y-8198388D01*
X10431968Y-8198388D02*
X10422444Y-8217436D01*
X10422444Y-8217436D02*
X10412920Y-8226960D01*
X10412920Y-8226960D02*
X10393872Y-8236484D01*
X10393872Y-8236484D02*
X10374825Y-8236484D01*
X10374825Y-8236484D02*
X10355777Y-8226960D01*
X10355777Y-8226960D02*
X10346253Y-8217436D01*
X10346253Y-8217436D02*
X10336730Y-8198388D01*
X10336730Y-8198388D02*
X10327206Y-8160293D01*
X10327206Y-8160293D02*
X10327206Y-8112674D01*
X10327206Y-8112674D02*
X10336730Y-8074579D01*
X10336730Y-8074579D02*
X10346253Y-8055531D01*
X10346253Y-8055531D02*
X10355777Y-8046008D01*
X10355777Y-8046008D02*
X10374825Y-8036484D01*
X10679587Y-8236484D02*
X10679587Y-8036484D01*
X10765301Y-8236484D02*
X10765301Y-8131722D01*
X10765301Y-8131722D02*
X10755777Y-8112674D01*
X10755777Y-8112674D02*
X10736730Y-8103150D01*
X10736730Y-8103150D02*
X10708158Y-8103150D01*
X10708158Y-8103150D02*
X10689111Y-8112674D01*
X10689111Y-8112674D02*
X10679587Y-8122198D01*
X10889111Y-8236484D02*
X10870063Y-8226960D01*
X10870063Y-8226960D02*
X10860539Y-8217436D01*
X10860539Y-8217436D02*
X10851015Y-8198388D01*
X10851015Y-8198388D02*
X10851015Y-8141246D01*
X10851015Y-8141246D02*
X10860539Y-8122198D01*
X10860539Y-8122198D02*
X10870063Y-8112674D01*
X10870063Y-8112674D02*
X10889111Y-8103150D01*
X10889111Y-8103150D02*
X10917682Y-8103150D01*
X10917682Y-8103150D02*
X10936730Y-8112674D01*
X10936730Y-8112674D02*
X10946253Y-8122198D01*
X10946253Y-8122198D02*
X10955777Y-8141246D01*
X10955777Y-8141246D02*
X10955777Y-8198388D01*
X10955777Y-8198388D02*
X10946253Y-8217436D01*
X10946253Y-8217436D02*
X10936730Y-8226960D01*
X10936730Y-8226960D02*
X10917682Y-8236484D01*
X10917682Y-8236484D02*
X10889111Y-8236484D01*
X11070063Y-8236484D02*
X11051015Y-8226960D01*
X11051015Y-8226960D02*
X11041492Y-8207912D01*
X11041492Y-8207912D02*
X11041492Y-8036484D01*
X11222444Y-8226960D02*
X11203396Y-8236484D01*
X11203396Y-8236484D02*
X11165301Y-8236484D01*
X11165301Y-8236484D02*
X11146253Y-8226960D01*
X11146253Y-8226960D02*
X11136730Y-8207912D01*
X11136730Y-8207912D02*
X11136730Y-8131722D01*
X11136730Y-8131722D02*
X11146253Y-8112674D01*
X11146253Y-8112674D02*
X11165301Y-8103150D01*
X11165301Y-8103150D02*
X11203396Y-8103150D01*
X11203396Y-8103150D02*
X11222444Y-8112674D01*
X11222444Y-8112674D02*
X11231968Y-8131722D01*
X11231968Y-8131722D02*
X11231968Y-8150769D01*
X11231968Y-8150769D02*
X11136730Y-8169817D01*
X11308158Y-8226960D02*
X11327206Y-8236484D01*
X11327206Y-8236484D02*
X11365301Y-8236484D01*
X11365301Y-8236484D02*
X11384349Y-8226960D01*
X11384349Y-8226960D02*
X11393872Y-8207912D01*
X11393872Y-8207912D02*
X11393872Y-8198388D01*
X11393872Y-8198388D02*
X11384349Y-8179341D01*
X11384349Y-8179341D02*
X11365301Y-8169817D01*
X11365301Y-8169817D02*
X11336730Y-8169817D01*
X11336730Y-8169817D02*
X11317682Y-8160293D01*
X11317682Y-8160293D02*
X11308158Y-8141246D01*
X11308158Y-8141246D02*
X11308158Y-8131722D01*
X11308158Y-8131722D02*
X11317682Y-8112674D01*
X11317682Y-8112674D02*
X11336730Y-8103150D01*
X11336730Y-8103150D02*
X11365301Y-8103150D01*
X11365301Y-8103150D02*
X11384349Y-8112674D01*
X11460539Y-8312674D02*
X11470063Y-8303150D01*
X11470063Y-8303150D02*
X11489111Y-8274579D01*
X11489111Y-8274579D02*
X11498634Y-8255531D01*
X11498634Y-8255531D02*
X11508158Y-8226960D01*
X11508158Y-8226960D02*
X11517682Y-8179341D01*
X11517682Y-8179341D02*
X11517682Y-8141246D01*
X11517682Y-8141246D02*
X11508158Y-8093627D01*
X11508158Y-8093627D02*
X11498634Y-8065055D01*
X11498634Y-8065055D02*
X11489111Y-8046008D01*
X11489111Y-8046008D02*
X11470063Y-8017436D01*
X11470063Y-8017436D02*
X11460539Y-8007912D01*
M02*
