%TF.GenerationSoftware,KiCad,Pcbnew,7.0.2.1-36-g582732918d-dirty-deb11*%
%TF.CreationDate,2023-05-29T10:57:50+00:00*%
%TF.ProjectId,pedalboard-led-ring,70656461-6c62-46f6-9172-642d6c65642d,1.0.0*%
%TF.SameCoordinates,Original*%
%TF.FileFunction,Copper,L2,Bot*%
%TF.FilePolarity,Positive*%
%FSLAX46Y46*%
G04 Gerber Fmt 4.6, Leading zero omitted, Abs format (unit mm)*
G04 Created by KiCad (PCBNEW 7.0.2.1-36-g582732918d-dirty-deb11) date 2023-05-29 10:57:50*
%MOMM*%
%LPD*%
G01*
G04 APERTURE LIST*
G04 Aperture macros list*
%AMRoundRect*
0 Rectangle with rounded corners*
0 $1 Rounding radius*
0 $2 $3 $4 $5 $6 $7 $8 $9 X,Y pos of 4 corners*
0 Add a 4 corners polygon primitive as box body*
4,1,4,$2,$3,$4,$5,$6,$7,$8,$9,$2,$3,0*
0 Add four circle primitives for the rounded corners*
1,1,$1+$1,$2,$3*
1,1,$1+$1,$4,$5*
1,1,$1+$1,$6,$7*
1,1,$1+$1,$8,$9*
0 Add four rect primitives between the rounded corners*
20,1,$1+$1,$2,$3,$4,$5,0*
20,1,$1+$1,$4,$5,$6,$7,0*
20,1,$1+$1,$6,$7,$8,$9,0*
20,1,$1+$1,$8,$9,$2,$3,0*%
%AMFreePoly0*
4,1,21,0.503536,1.003536,0.505000,1.000000,0.505000,-1.000000,0.503536,-1.003536,0.500000,-1.005000,-0.500000,-1.005000,-0.503536,-1.003536,-0.505000,-1.000000,-0.505000,-0.505000,-1.600000,-0.505000,-1.603536,-0.503536,-1.605000,-0.500000,-1.605000,0.500000,-1.603536,0.503536,-1.600000,0.505000,-0.505000,0.505000,-0.505000,1.000000,-0.503536,1.003536,-0.500000,1.005000,0.500000,1.005000,
0.503536,1.003536,0.503536,1.003536,$1*%
%AMFreePoly1*
4,1,21,0.503536,1.003536,0.505000,1.000000,0.505000,0.505000,1.600000,0.505000,1.603536,0.503536,1.605000,0.500000,1.605000,-0.500000,1.603536,-0.503536,1.600000,-0.505000,0.505000,-0.505000,0.505000,-1.000000,0.503536,-1.003536,0.500000,-1.005000,-0.500000,-1.005000,-0.503536,-1.003536,-0.505000,-1.000000,-0.505000,1.000000,-0.503536,1.003536,-0.500000,1.005000,0.500000,1.005000,
0.503536,1.003536,0.503536,1.003536,$1*%
G04 Aperture macros list end*
%TA.AperFunction,SMDPad,CuDef*%
%ADD10RoundRect,0.150000X-0.825000X-0.150000X0.825000X-0.150000X0.825000X0.150000X-0.825000X0.150000X0*%
%TD*%
%TA.AperFunction,SMDPad,CuDef*%
%ADD11FreePoly0,0.000000*%
%TD*%
%TA.AperFunction,SMDPad,CuDef*%
%ADD12FreePoly1,0.000000*%
%TD*%
%TA.AperFunction,SMDPad,CuDef*%
%ADD13RoundRect,0.250000X-0.412500X-0.650000X0.412500X-0.650000X0.412500X0.650000X-0.412500X0.650000X0*%
%TD*%
%TA.AperFunction,SMDPad,CuDef*%
%ADD14R,1.000000X3.000000*%
%TD*%
%TA.AperFunction,SMDPad,CuDef*%
%ADD15R,1.000000X1.000000*%
%TD*%
%TA.AperFunction,SMDPad,CuDef*%
%ADD16R,0.700000X0.250000*%
%TD*%
%TA.AperFunction,SMDPad,CuDef*%
%ADD17R,0.610000X2.200000*%
%TD*%
%TA.AperFunction,SMDPad,CuDef*%
%ADD18RoundRect,0.250000X-0.475000X0.337500X-0.475000X-0.337500X0.475000X-0.337500X0.475000X0.337500X0*%
%TD*%
%TA.AperFunction,SMDPad,CuDef*%
%ADD19RoundRect,0.250000X0.337500X0.475000X-0.337500X0.475000X-0.337500X-0.475000X0.337500X-0.475000X0*%
%TD*%
%TA.AperFunction,SMDPad,CuDef*%
%ADD20RoundRect,0.250000X0.650000X-0.412500X0.650000X0.412500X-0.650000X0.412500X-0.650000X-0.412500X0*%
%TD*%
%TA.AperFunction,ViaPad*%
%ADD21C,0.800000*%
%TD*%
%TA.AperFunction,Conductor*%
%ADD22C,0.250000*%
%TD*%
%TA.AperFunction,Conductor*%
%ADD23C,0.600000*%
%TD*%
%TA.AperFunction,Conductor*%
%ADD24C,0.800000*%
%TD*%
G04 APERTURE END LIST*
D10*
%TO.P,U1,1,OUT0*%
%TO.N,Net-(D6-KB)*%
X92425000Y-54705000D03*
%TO.P,U1,2,OUT1*%
%TO.N,Net-(D6-KR)*%
X92425000Y-53435000D03*
%TO.P,U1,3,OUT2*%
%TO.N,Net-(D6-KG)*%
X92425000Y-52165000D03*
%TO.P,U1,4,GND*%
%TO.N,GND*%
X92425000Y-50895000D03*
%TO.P,U1,5,SDO*%
%TO.N,Net-(J1-VLED)*%
X97375000Y-50895000D03*
%TO.P,U1,6,SDI*%
%TO.N,Net-(U1-SDI)*%
X97375000Y-52165000D03*
%TO.P,U1,7,IREF*%
%TO.N,Net-(U1-IREF)*%
X97375000Y-53435000D03*
%TO.P,U1,8,VCC*%
%TO.N,VCC*%
X97375000Y-54705000D03*
%TD*%
D11*
%TO.P,L1,1,1*%
%TO.N,Net-(U2-SW)*%
X86750000Y-67100000D03*
D12*
%TO.P,L1,2,2*%
%TO.N,Net-(J1-SDO)*%
X89050000Y-67100000D03*
%TD*%
D13*
%TO.P,C1,1*%
%TO.N,VDC*%
X90337500Y-59600000D03*
%TO.P,C1,2*%
%TO.N,GND*%
X93462500Y-59600000D03*
%TD*%
D14*
%TO.P,J1,1,SDO*%
%TO.N,Net-(J1-SDO)*%
X93960000Y-70520000D03*
%TO.P,J1,2,SDI*%
%TO.N,VDC*%
X93960000Y-65480000D03*
%TO.P,J1,3,VCC*%
%TO.N,GND*%
X96500000Y-70520000D03*
%TO.P,J1,4,VLED*%
%TO.N,Net-(J1-VLED)*%
X96500000Y-65480000D03*
%TO.P,J1,5,GND*%
%TO.N,VCC*%
X99040000Y-70520000D03*
%TO.P,J1,6,GND*%
%TO.N,Net-(U1-SDI)*%
X99040000Y-65480000D03*
%TD*%
D15*
%TO.P,R2,1*%
%TO.N,VDC*%
X84000000Y-71150000D03*
%TO.P,R2,2*%
%TO.N,Net-(U2-FB)*%
X84000000Y-72850000D03*
%TD*%
%TO.P,R1,1*%
%TO.N,Net-(U1-IREF)*%
X99800000Y-53450000D03*
%TO.P,R1,2*%
%TO.N,GND*%
X99800000Y-51750000D03*
%TD*%
D16*
%TO.P,U2,1,SW*%
%TO.N,Net-(U2-SW)*%
X87325000Y-71250000D03*
%TO.P,U2,2,GND*%
%TO.N,GND*%
X87325000Y-71750000D03*
%TO.P,U2,3,VCC*%
%TO.N,Net-(J1-SDO)*%
X87325000Y-72250000D03*
%TO.P,U2,4,CTRL*%
X87325000Y-72750000D03*
%TO.P,U2,5,~SHDN*%
X85475000Y-72750000D03*
%TO.P,U2,6,FB*%
%TO.N,Net-(U2-FB)*%
X85475000Y-72250000D03*
%TO.P,U2,7,VOUT*%
%TO.N,VDC*%
X85475000Y-71750000D03*
%TO.P,U2,8,CAP*%
%TO.N,Net-(U2-CAP)*%
X85475000Y-71250000D03*
D17*
%TO.P,U2,9,EP*%
%TO.N,GND*%
X86400000Y-72000000D03*
%TD*%
D18*
%TO.P,C2,1*%
%TO.N,VCC*%
X97800000Y-56462500D03*
%TO.P,C2,2*%
%TO.N,GND*%
X97800000Y-58537500D03*
%TD*%
D19*
%TO.P,C4,1*%
%TO.N,Net-(U2-CAP)*%
X83937500Y-69300000D03*
%TO.P,C4,2*%
%TO.N,GND*%
X81862500Y-69300000D03*
%TD*%
D20*
%TO.P,C3,1*%
%TO.N,Net-(J1-SDO)*%
X90000000Y-72662500D03*
%TO.P,C3,2*%
%TO.N,GND*%
X90000000Y-69537500D03*
%TD*%
D21*
%TO.N,VDC*%
X89500000Y-61400000D03*
X90500000Y-61400000D03*
X83000000Y-71200000D03*
%TO.N,GND*%
X86400000Y-69750000D03*
X87900000Y-69750000D03*
X81250000Y-70800000D03*
X96550000Y-58500000D03*
X91800000Y-69500000D03*
X101050000Y-51750000D03*
X96500000Y-72550000D03*
X96500000Y-68400000D03*
X90800000Y-50850000D03*
X93450000Y-58050000D03*
%TO.N,VCC*%
X99040000Y-72540000D03*
X99200000Y-55200000D03*
%TO.N,Net-(D6-KB)*%
X92400000Y-55500000D03*
%TO.N,Net-(D6-KR)*%
X90800000Y-53400000D03*
%TO.N,Net-(D6-KG)*%
X90800000Y-52200000D03*
%TD*%
D22*
%TO.N,VDC*%
X84000000Y-71150000D02*
X83050000Y-71150000D01*
X85460200Y-71746000D02*
X84596000Y-71746000D01*
X83050000Y-71150000D02*
X83000000Y-71200000D01*
X84596000Y-71746000D02*
X84000000Y-71150000D01*
%TO.N,GND*%
X86654000Y-71746000D02*
X86400000Y-72000000D01*
X87339800Y-71746000D02*
X86654000Y-71746000D01*
D23*
%TO.N,VCC*%
X97375000Y-54705000D02*
X97375000Y-54775000D01*
D24*
X99040000Y-72540000D02*
X99040000Y-70525000D01*
D23*
X97375000Y-54775000D02*
X97800000Y-55200000D01*
X97800000Y-55200000D02*
X97800000Y-56472500D01*
X97800000Y-55200000D02*
X99200000Y-55200000D01*
D22*
%TO.N,Net-(D6-KB)*%
X92425000Y-54705000D02*
X92425000Y-55475000D01*
X92425000Y-55475000D02*
X92400000Y-55500000D01*
%TO.N,Net-(D6-KR)*%
X90835000Y-53435000D02*
X90800000Y-53400000D01*
X92425000Y-53435000D02*
X90835000Y-53435000D01*
%TO.N,Net-(D6-KG)*%
X92425000Y-52165000D02*
X90835000Y-52165000D01*
X90835000Y-52165000D02*
X90800000Y-52200000D01*
%TO.N,Net-(U1-IREF)*%
X97390000Y-53450000D02*
X97375000Y-53435000D01*
X99400000Y-53450000D02*
X97390000Y-53450000D01*
%TO.N,Net-(J1-VLED)*%
X96500000Y-65480000D02*
X96500000Y-60668112D01*
X96500000Y-60668112D02*
X95400000Y-59568112D01*
X95400000Y-51500000D02*
X96000000Y-50900000D01*
X97370000Y-50900000D02*
X97375000Y-50895000D01*
X95400000Y-59568112D02*
X95400000Y-51500000D01*
X96000000Y-50900000D02*
X97370000Y-50900000D01*
%TO.N,Net-(U2-CAP)*%
X85460200Y-70380200D02*
X84380000Y-69300000D01*
X84380000Y-69300000D02*
X84037500Y-69300000D01*
X85460200Y-71238000D02*
X85460200Y-70380200D01*
%TO.N,Net-(U2-SW)*%
X87105000Y-71003200D02*
X87105000Y-67300000D01*
X86905000Y-67100000D02*
X87105000Y-67300000D01*
X86750000Y-67100000D02*
X86905000Y-67100000D01*
X87339800Y-71238000D02*
X87105000Y-71003200D01*
%TO.N,Net-(U2-FB)*%
X84596000Y-72254000D02*
X84000000Y-72850000D01*
X85460200Y-72254000D02*
X84596000Y-72254000D01*
%TO.N,Net-(U1-SDI)*%
X95830000Y-59390000D02*
X99040000Y-62600000D01*
X97340000Y-52200000D02*
X95830000Y-52200000D01*
X97375000Y-52165000D02*
X97340000Y-52200000D01*
X95830000Y-52200000D02*
X95830000Y-59390000D01*
X99040000Y-62600000D02*
X99040000Y-65480000D01*
%TO.N,Net-(J1-SDO)*%
X87339800Y-72254000D02*
X88700000Y-72254000D01*
X85460200Y-72762000D02*
X85790000Y-73091800D01*
X85790000Y-73091800D02*
X85790000Y-73405000D01*
X88700000Y-67800000D02*
X89400000Y-67100000D01*
X85790000Y-73405000D02*
X87195000Y-73405000D01*
X87339800Y-72254000D02*
X87339800Y-72762000D01*
X87339800Y-73260200D02*
X87339800Y-72762000D01*
X89212000Y-72762000D02*
X89400000Y-72950000D01*
X90000000Y-72762500D02*
X90462500Y-72300000D01*
X90462500Y-72300000D02*
X92180000Y-72300000D01*
X87195000Y-73405000D02*
X87339800Y-73260200D01*
X87339800Y-72762000D02*
X89212000Y-72762000D01*
X88700000Y-72254000D02*
X88700000Y-67800000D01*
X92180000Y-72300000D02*
X93960000Y-70520000D01*
%TD*%
%TA.AperFunction,Conductor*%
%TO.N,VDC*%
G36*
X91741086Y-58119685D02*
G01*
X91786841Y-58172489D01*
X91798032Y-58225937D01*
X91774609Y-59725000D01*
X91750000Y-61300000D01*
X94936193Y-61300000D01*
X95003232Y-61319685D01*
X95048987Y-61372489D01*
X95060193Y-61423806D01*
X95069806Y-67575806D01*
X95050226Y-67642876D01*
X94997494Y-67688714D01*
X94945806Y-67700000D01*
X91724000Y-67700000D01*
X91656961Y-67680315D01*
X91611206Y-67627511D01*
X91600000Y-67576000D01*
X91600000Y-65605000D01*
X93210000Y-65605000D01*
X93210000Y-67004624D01*
X93224504Y-67077543D01*
X93279760Y-67160239D01*
X93362456Y-67215495D01*
X93435375Y-67230000D01*
X93835000Y-67230000D01*
X93835000Y-65605000D01*
X94085000Y-65605000D01*
X94085000Y-67230000D01*
X94484625Y-67230000D01*
X94557543Y-67215495D01*
X94640239Y-67160239D01*
X94695495Y-67077543D01*
X94710000Y-67004624D01*
X94710000Y-65605000D01*
X94085000Y-65605000D01*
X93835000Y-65605000D01*
X93210000Y-65605000D01*
X91600000Y-65605000D01*
X91600000Y-65354999D01*
X93209999Y-65354999D01*
X93210000Y-65355000D01*
X93835000Y-65355000D01*
X93835000Y-63730000D01*
X94085000Y-63730000D01*
X94085000Y-65355000D01*
X94710000Y-65355000D01*
X94710000Y-63955375D01*
X94695495Y-63882456D01*
X94640239Y-63799760D01*
X94557543Y-63744504D01*
X94484625Y-63730000D01*
X94085000Y-63730000D01*
X93835000Y-63730000D01*
X93435375Y-63730000D01*
X93362456Y-63744504D01*
X93279760Y-63799760D01*
X93224504Y-63882456D01*
X93210000Y-63955375D01*
X93209999Y-65354999D01*
X91600000Y-65354999D01*
X91600000Y-63600000D01*
X88974000Y-63600000D01*
X88906961Y-63580315D01*
X88861206Y-63527511D01*
X88850000Y-63476000D01*
X88850000Y-59725000D01*
X89425000Y-59725000D01*
X89425000Y-60294518D01*
X89425354Y-60301132D01*
X89431400Y-60357371D01*
X89481647Y-60492089D01*
X89567811Y-60607188D01*
X89682910Y-60693352D01*
X89817628Y-60743599D01*
X89873867Y-60749645D01*
X89880482Y-60750000D01*
X90212500Y-60750000D01*
X90212500Y-59725000D01*
X90462500Y-59725000D01*
X90462500Y-60750000D01*
X90794518Y-60750000D01*
X90801132Y-60749645D01*
X90857371Y-60743599D01*
X90992089Y-60693352D01*
X91107188Y-60607188D01*
X91193352Y-60492089D01*
X91243599Y-60357371D01*
X91249645Y-60301132D01*
X91250000Y-60294518D01*
X91250000Y-59725000D01*
X90462500Y-59725000D01*
X90212500Y-59725000D01*
X89425000Y-59725000D01*
X88850000Y-59725000D01*
X88850000Y-59475000D01*
X89425000Y-59475000D01*
X90212500Y-59475000D01*
X90212500Y-58450000D01*
X90462500Y-58450000D01*
X90462500Y-59475000D01*
X91250000Y-59475000D01*
X91250000Y-58905481D01*
X91249645Y-58898867D01*
X91243599Y-58842628D01*
X91193352Y-58707910D01*
X91107188Y-58592811D01*
X90992089Y-58506647D01*
X90857371Y-58456400D01*
X90801132Y-58450354D01*
X90794518Y-58450000D01*
X90462500Y-58450000D01*
X90212500Y-58450000D01*
X89880482Y-58450000D01*
X89873867Y-58450354D01*
X89817628Y-58456400D01*
X89682910Y-58506647D01*
X89567811Y-58592811D01*
X89481647Y-58707910D01*
X89431400Y-58842628D01*
X89425354Y-58898867D01*
X89425000Y-58905481D01*
X89425000Y-59475000D01*
X88850000Y-59475000D01*
X88850000Y-58224000D01*
X88869685Y-58156961D01*
X88922489Y-58111206D01*
X88974000Y-58100000D01*
X91674047Y-58100000D01*
X91741086Y-58119685D01*
G37*
%TD.AperFunction*%
%TD*%
%TA.AperFunction,Conductor*%
%TO.N,GND*%
G36*
X101004309Y-46000877D02*
G01*
X101045519Y-46004482D01*
X101173820Y-46017120D01*
X101189703Y-46020010D01*
X101256837Y-46037998D01*
X101259807Y-46038846D01*
X101353264Y-46067196D01*
X101366359Y-46072207D01*
X101434466Y-46103966D01*
X101439295Y-46106380D01*
X101520369Y-46149715D01*
X101530485Y-46155929D01*
X101593673Y-46200174D01*
X101599693Y-46204742D01*
X101669396Y-46261945D01*
X101676596Y-46268469D01*
X101731529Y-46323402D01*
X101738053Y-46330602D01*
X101795256Y-46400305D01*
X101799824Y-46406325D01*
X101844069Y-46469513D01*
X101850283Y-46479629D01*
X101893618Y-46560703D01*
X101896032Y-46565532D01*
X101927791Y-46633639D01*
X101932804Y-46646739D01*
X101961129Y-46740112D01*
X101962019Y-46743228D01*
X101979986Y-46810282D01*
X101982882Y-46826202D01*
X101995523Y-46954554D01*
X101999124Y-46995699D01*
X101999500Y-47004316D01*
X101999500Y-72995676D01*
X101999123Y-73004307D01*
X101995523Y-73045445D01*
X101982882Y-73173799D01*
X101979986Y-73189713D01*
X101962019Y-73256769D01*
X101961129Y-73259886D01*
X101932804Y-73353259D01*
X101927791Y-73366359D01*
X101896032Y-73434466D01*
X101893618Y-73439295D01*
X101850283Y-73520369D01*
X101844069Y-73530485D01*
X101799824Y-73593673D01*
X101795256Y-73599693D01*
X101738053Y-73669396D01*
X101731529Y-73676596D01*
X101676596Y-73731529D01*
X101669396Y-73738053D01*
X101599693Y-73795256D01*
X101593673Y-73799824D01*
X101530485Y-73844069D01*
X101520369Y-73850283D01*
X101439295Y-73893618D01*
X101434466Y-73896032D01*
X101366359Y-73927791D01*
X101353259Y-73932804D01*
X101259886Y-73961129D01*
X101256770Y-73962019D01*
X101189716Y-73979986D01*
X101173796Y-73982882D01*
X101045445Y-73995523D01*
X101013912Y-73998282D01*
X101004294Y-73999124D01*
X100995684Y-73999500D01*
X67004323Y-73999500D01*
X66995692Y-73999123D01*
X66954554Y-73995523D01*
X66848097Y-73985038D01*
X66826196Y-73982881D01*
X66810285Y-73979986D01*
X66743229Y-73962019D01*
X66740112Y-73961129D01*
X66646739Y-73932804D01*
X66633639Y-73927791D01*
X66565532Y-73896032D01*
X66560703Y-73893618D01*
X66479629Y-73850283D01*
X66469513Y-73844069D01*
X66406325Y-73799824D01*
X66400305Y-73795256D01*
X66330602Y-73738053D01*
X66323402Y-73731529D01*
X66268469Y-73676596D01*
X66261945Y-73669396D01*
X66204742Y-73599693D01*
X66200174Y-73593673D01*
X66155929Y-73530485D01*
X66149715Y-73520369D01*
X66106380Y-73439295D01*
X66103966Y-73434466D01*
X66072207Y-73366359D01*
X66067194Y-73353259D01*
X66061648Y-73334976D01*
X66038846Y-73259806D01*
X66038002Y-73256853D01*
X66020008Y-73189696D01*
X66017119Y-73173816D01*
X66004482Y-73045519D01*
X66000875Y-73004294D01*
X66000500Y-72995686D01*
X66000500Y-71200000D01*
X82394318Y-71200000D01*
X82414955Y-71356761D01*
X82475464Y-71502841D01*
X82571717Y-71628282D01*
X82640195Y-71680826D01*
X82697159Y-71724536D01*
X82843238Y-71785044D01*
X83000000Y-71805682D01*
X83156762Y-71785044D01*
X83232342Y-71753737D01*
X83293335Y-71748937D01*
X83345505Y-71780906D01*
X83352540Y-71790201D01*
X83355446Y-71794551D01*
X83362853Y-71799500D01*
X83421769Y-71838867D01*
X83480252Y-71850500D01*
X84199165Y-71850500D01*
X84257356Y-71869407D01*
X84269169Y-71879496D01*
X84319669Y-71929996D01*
X84347446Y-71984513D01*
X84337875Y-72044945D01*
X84319669Y-72070003D01*
X84269170Y-72120503D01*
X84214654Y-72148281D01*
X84199166Y-72149500D01*
X83480252Y-72149500D01*
X83451010Y-72155316D01*
X83421768Y-72161133D01*
X83355447Y-72205447D01*
X83311133Y-72271768D01*
X83311132Y-72271769D01*
X83311133Y-72271769D01*
X83299500Y-72330252D01*
X83299500Y-73369748D01*
X83310380Y-73424445D01*
X83311133Y-73428231D01*
X83355447Y-73494552D01*
X83390607Y-73518045D01*
X83421769Y-73538867D01*
X83480252Y-73550500D01*
X83480253Y-73550500D01*
X84519747Y-73550500D01*
X84519748Y-73550500D01*
X84578231Y-73538867D01*
X84644552Y-73494552D01*
X84688867Y-73428231D01*
X84700500Y-73369748D01*
X84700500Y-72678499D01*
X84719407Y-72620309D01*
X84768907Y-72584345D01*
X84799500Y-72579500D01*
X84825500Y-72579500D01*
X84883691Y-72598407D01*
X84919655Y-72647907D01*
X84924500Y-72678500D01*
X84924500Y-72894748D01*
X84935911Y-72952116D01*
X84936133Y-72953231D01*
X84980447Y-73019552D01*
X85019196Y-73045443D01*
X85046769Y-73063867D01*
X85105252Y-73075500D01*
X85272366Y-73075500D01*
X85330557Y-73094407D01*
X85342370Y-73104496D01*
X85435504Y-73197630D01*
X85463281Y-73252147D01*
X85464500Y-73267634D01*
X85464500Y-73462394D01*
X85471430Y-73481437D01*
X85475894Y-73498099D01*
X85479411Y-73518044D01*
X85489539Y-73535586D01*
X85496831Y-73551224D01*
X85503758Y-73570258D01*
X85503760Y-73570260D01*
X85516781Y-73585777D01*
X85526675Y-73599908D01*
X85536806Y-73617455D01*
X85552332Y-73630483D01*
X85564517Y-73642668D01*
X85577545Y-73658194D01*
X85595084Y-73668320D01*
X85609220Y-73678218D01*
X85624737Y-73691239D01*
X85624738Y-73691239D01*
X85624739Y-73691240D01*
X85643777Y-73698169D01*
X85659413Y-73705460D01*
X85676955Y-73715588D01*
X85696901Y-73719104D01*
X85713569Y-73723570D01*
X85732606Y-73730500D01*
X85761525Y-73730500D01*
X87176466Y-73730500D01*
X87185093Y-73730876D01*
X87198357Y-73732037D01*
X87223805Y-73734264D01*
X87223805Y-73734263D01*
X87223807Y-73734264D01*
X87261359Y-73724201D01*
X87269777Y-73722335D01*
X87308045Y-73715588D01*
X87309346Y-73714836D01*
X87333232Y-73704942D01*
X87334684Y-73704554D01*
X87366529Y-73682254D01*
X87373785Y-73677632D01*
X87407455Y-73658194D01*
X87432442Y-73628414D01*
X87438254Y-73622070D01*
X87556866Y-73503458D01*
X87563210Y-73497644D01*
X87592994Y-73472655D01*
X87612432Y-73438985D01*
X87617054Y-73431729D01*
X87639354Y-73399884D01*
X87639743Y-73398429D01*
X87649637Y-73374545D01*
X87650388Y-73373245D01*
X87657140Y-73334948D01*
X87658997Y-73326571D01*
X87669063Y-73289007D01*
X87665677Y-73250302D01*
X87665300Y-73241673D01*
X87665300Y-73186500D01*
X87684207Y-73128309D01*
X87733707Y-73092345D01*
X87764300Y-73087500D01*
X88806847Y-73087500D01*
X88865038Y-73106407D01*
X88900292Y-73153803D01*
X88902353Y-73159694D01*
X88902354Y-73159699D01*
X88947207Y-73287882D01*
X89027850Y-73397150D01*
X89137118Y-73477793D01*
X89265301Y-73522646D01*
X89295734Y-73525500D01*
X89298045Y-73525500D01*
X90701955Y-73525500D01*
X90704266Y-73525500D01*
X90734699Y-73522646D01*
X90862882Y-73477793D01*
X90972150Y-73397150D01*
X91052793Y-73287882D01*
X91097646Y-73159699D01*
X91100500Y-73129266D01*
X91100500Y-72724499D01*
X91119407Y-72666309D01*
X91168907Y-72630345D01*
X91199500Y-72625500D01*
X92161466Y-72625500D01*
X92170093Y-72625876D01*
X92183357Y-72627037D01*
X92208805Y-72629264D01*
X92208805Y-72629263D01*
X92208807Y-72629264D01*
X92246359Y-72619201D01*
X92254777Y-72617335D01*
X92293045Y-72610588D01*
X92294346Y-72609836D01*
X92318232Y-72599942D01*
X92319684Y-72599554D01*
X92351529Y-72577254D01*
X92358785Y-72572632D01*
X92392455Y-72553194D01*
X92417442Y-72523414D01*
X92423254Y-72517070D01*
X93090497Y-71849828D01*
X93145013Y-71822052D01*
X93205445Y-71831623D01*
X93248710Y-71874888D01*
X93259500Y-71919833D01*
X93259500Y-72039748D01*
X93265518Y-72070003D01*
X93271133Y-72098231D01*
X93315447Y-72164552D01*
X93351605Y-72188712D01*
X93381769Y-72208867D01*
X93440252Y-72220500D01*
X93440253Y-72220500D01*
X94479747Y-72220500D01*
X94479748Y-72220500D01*
X94538231Y-72208867D01*
X94604552Y-72164552D01*
X94648867Y-72098231D01*
X94660500Y-72039748D01*
X94660500Y-72039697D01*
X95800000Y-72039697D01*
X95811604Y-72098036D01*
X95855807Y-72164192D01*
X95921963Y-72208395D01*
X95980303Y-72220000D01*
X96399999Y-72220000D01*
X96399999Y-72219999D01*
X96600000Y-72219999D01*
X96600001Y-72220000D01*
X97019697Y-72220000D01*
X97078036Y-72208395D01*
X97144192Y-72164192D01*
X97188395Y-72098036D01*
X97199990Y-72039748D01*
X98339500Y-72039748D01*
X98351133Y-72098231D01*
X98395448Y-72164552D01*
X98395501Y-72164587D01*
X98433381Y-72212637D01*
X98439500Y-72246903D01*
X98439500Y-72494149D01*
X98438653Y-72507070D01*
X98434318Y-72539999D01*
X98434318Y-72540000D01*
X98443511Y-72609826D01*
X98448662Y-72648955D01*
X98454955Y-72696761D01*
X98515464Y-72842841D01*
X98611717Y-72968282D01*
X98707970Y-73042139D01*
X98737159Y-73064536D01*
X98883238Y-73125044D01*
X99040000Y-73145682D01*
X99196762Y-73125044D01*
X99342841Y-73064536D01*
X99468282Y-72968282D01*
X99564536Y-72842841D01*
X99625044Y-72696762D01*
X99631338Y-72648955D01*
X99645682Y-72540000D01*
X99641347Y-72507070D01*
X99640500Y-72494149D01*
X99640500Y-72246903D01*
X99659407Y-72188712D01*
X99684497Y-72164588D01*
X99684552Y-72164552D01*
X99728867Y-72098231D01*
X99740500Y-72039748D01*
X99740500Y-69000252D01*
X99728867Y-68941769D01*
X99709212Y-68912354D01*
X99684552Y-68875447D01*
X99618231Y-68831133D01*
X99618230Y-68831132D01*
X99559748Y-68819500D01*
X98520252Y-68819500D01*
X98491010Y-68825316D01*
X98461768Y-68831133D01*
X98395447Y-68875447D01*
X98351133Y-68941768D01*
X98351132Y-68941769D01*
X98351133Y-68941769D01*
X98339500Y-69000252D01*
X98339500Y-72039748D01*
X97199990Y-72039748D01*
X97200000Y-72039697D01*
X97200000Y-70620001D01*
X97199999Y-70620000D01*
X96600001Y-70620000D01*
X96600000Y-70620001D01*
X96600000Y-72219999D01*
X96399999Y-72219999D01*
X96399999Y-70620000D01*
X95800001Y-70620000D01*
X95800000Y-70620001D01*
X95800000Y-72039697D01*
X94660500Y-72039697D01*
X94660500Y-70419998D01*
X95800000Y-70419998D01*
X95800001Y-70420000D01*
X96399999Y-70420000D01*
X96399999Y-70419999D01*
X96600000Y-70419999D01*
X96600001Y-70420000D01*
X97199999Y-70420000D01*
X97200000Y-70419999D01*
X97200000Y-69000302D01*
X97188395Y-68941963D01*
X97144192Y-68875807D01*
X97078036Y-68831604D01*
X97019697Y-68820000D01*
X96600001Y-68820000D01*
X96600000Y-68820001D01*
X96600000Y-70419999D01*
X96399999Y-70419999D01*
X96399999Y-68820000D01*
X95980303Y-68820000D01*
X95921963Y-68831604D01*
X95855807Y-68875807D01*
X95811604Y-68941963D01*
X95800000Y-69000302D01*
X95800000Y-70419998D01*
X94660500Y-70419998D01*
X94660500Y-69000252D01*
X94648867Y-68941769D01*
X94629212Y-68912354D01*
X94604552Y-68875447D01*
X94538231Y-68831133D01*
X94538230Y-68831132D01*
X94479748Y-68819500D01*
X93440252Y-68819500D01*
X93411010Y-68825316D01*
X93381768Y-68831133D01*
X93315447Y-68875447D01*
X93271133Y-68941768D01*
X93259500Y-69000253D01*
X93259500Y-70719165D01*
X93240593Y-70777356D01*
X93230504Y-70789169D01*
X92074170Y-71945504D01*
X92019653Y-71973281D01*
X92004166Y-71974500D01*
X91056556Y-71974500D01*
X90998365Y-71955593D01*
X90976902Y-71934289D01*
X90972150Y-71927850D01*
X90862882Y-71847207D01*
X90734699Y-71802354D01*
X90734697Y-71802353D01*
X90734695Y-71802353D01*
X90706577Y-71799716D01*
X90706561Y-71799715D01*
X90704266Y-71799500D01*
X89295734Y-71799500D01*
X89293439Y-71799715D01*
X89293422Y-71799716D01*
X89265304Y-71802353D01*
X89157197Y-71840181D01*
X89096027Y-71841553D01*
X89045733Y-71806709D01*
X89025525Y-71748957D01*
X89025500Y-71746736D01*
X89025500Y-70452733D01*
X89044407Y-70394542D01*
X89093907Y-70358578D01*
X89155093Y-70358578D01*
X89157198Y-70359289D01*
X89265396Y-70397149D01*
X89293484Y-70399783D01*
X89298108Y-70399999D01*
X89899998Y-70399999D01*
X89900000Y-70399998D01*
X90100000Y-70399998D01*
X90100001Y-70399999D01*
X90701888Y-70399999D01*
X90706504Y-70399783D01*
X90734604Y-70397148D01*
X90862645Y-70352345D01*
X90971791Y-70271791D01*
X91052345Y-70162645D01*
X91097149Y-70034601D01*
X91099783Y-70006515D01*
X91100000Y-70001891D01*
X91100000Y-69637501D01*
X91099999Y-69637500D01*
X90100001Y-69637500D01*
X90100000Y-69637501D01*
X90100000Y-70399998D01*
X89900000Y-70399998D01*
X89900000Y-69437499D01*
X90100000Y-69437499D01*
X90100001Y-69437500D01*
X91099998Y-69437500D01*
X91099999Y-69437499D01*
X91099999Y-69073112D01*
X91099783Y-69068495D01*
X91097148Y-69040395D01*
X91052345Y-68912354D01*
X90971791Y-68803208D01*
X90862645Y-68722654D01*
X90734601Y-68677850D01*
X90706515Y-68675216D01*
X90701892Y-68675000D01*
X90100001Y-68675000D01*
X90100000Y-68675001D01*
X90100000Y-69437499D01*
X89900000Y-69437499D01*
X89900000Y-68675000D01*
X89298112Y-68675000D01*
X89293495Y-68675216D01*
X89265395Y-68677851D01*
X89157197Y-68715711D01*
X89096027Y-68717083D01*
X89045733Y-68682239D01*
X89025525Y-68624487D01*
X89025500Y-68622266D01*
X89025500Y-68408428D01*
X89044407Y-68350237D01*
X89093907Y-68314273D01*
X89124500Y-68309428D01*
X89538173Y-68309428D01*
X89547460Y-68310342D01*
X89549987Y-68309839D01*
X89549991Y-68309840D01*
X89628223Y-68294282D01*
X89630049Y-68293525D01*
X89631876Y-68292815D01*
X89632055Y-68292694D01*
X89632061Y-68292693D01*
X89698382Y-68248377D01*
X89742695Y-68182055D01*
X89743849Y-68179269D01*
X89744261Y-68178275D01*
X89744269Y-68178254D01*
X89759840Y-68100025D01*
X89759839Y-68100024D01*
X89760342Y-68097501D01*
X89759428Y-68088209D01*
X89759428Y-67908428D01*
X89778335Y-67850237D01*
X89827835Y-67814273D01*
X89858428Y-67809428D01*
X90638173Y-67809428D01*
X90647460Y-67810342D01*
X90649987Y-67809839D01*
X90649991Y-67809840D01*
X90728223Y-67794282D01*
X90730049Y-67793525D01*
X90731876Y-67792815D01*
X90732055Y-67792694D01*
X90732061Y-67792693D01*
X90798382Y-67748377D01*
X90842695Y-67682055D01*
X90843849Y-67679269D01*
X90844261Y-67678275D01*
X90844269Y-67678254D01*
X90859840Y-67600025D01*
X90859839Y-67600024D01*
X90860342Y-67597501D01*
X90859428Y-67588209D01*
X90859428Y-66611830D01*
X90860343Y-66602541D01*
X90859839Y-66600010D01*
X90859840Y-66600009D01*
X90844282Y-66521777D01*
X90843529Y-66519958D01*
X90842816Y-66518124D01*
X90842693Y-66517941D01*
X90842693Y-66517939D01*
X90798377Y-66451618D01*
X90798375Y-66451617D01*
X90798375Y-66451616D01*
X90732059Y-66407307D01*
X90732056Y-66407305D01*
X90732055Y-66407305D01*
X90729203Y-66406124D01*
X90728208Y-66405712D01*
X90728206Y-66405711D01*
X90728205Y-66405711D01*
X90647499Y-66389657D01*
X90638209Y-66390572D01*
X89858428Y-66390572D01*
X89800237Y-66371665D01*
X89764273Y-66322165D01*
X89759428Y-66291572D01*
X89759428Y-66111830D01*
X89760343Y-66102541D01*
X89759839Y-66100010D01*
X89759840Y-66100009D01*
X89744282Y-66021777D01*
X89743529Y-66019958D01*
X89742816Y-66018124D01*
X89742693Y-66017941D01*
X89742693Y-66017939D01*
X89698377Y-65951618D01*
X89698375Y-65951617D01*
X89698375Y-65951616D01*
X89632059Y-65907307D01*
X89632056Y-65907305D01*
X89632055Y-65907305D01*
X89629203Y-65906124D01*
X89628208Y-65905712D01*
X89628206Y-65905711D01*
X89628205Y-65905711D01*
X89547499Y-65889657D01*
X89538209Y-65890572D01*
X88561848Y-65890572D01*
X88552555Y-65889656D01*
X88471788Y-65905712D01*
X88470771Y-65906134D01*
X88467950Y-65907303D01*
X88467936Y-65907308D01*
X88401613Y-65951627D01*
X88357302Y-66017950D01*
X88355718Y-66021776D01*
X88339657Y-66102502D01*
X88340572Y-66111793D01*
X88340572Y-68088235D01*
X88339657Y-68097527D01*
X88355738Y-68178273D01*
X88356150Y-68179267D01*
X88356150Y-68179268D01*
X88356151Y-68179269D01*
X88357305Y-68182055D01*
X88357310Y-68182066D01*
X88357810Y-68182815D01*
X88358160Y-68183966D01*
X88360647Y-68189408D01*
X88359912Y-68189741D01*
X88374500Y-68237823D01*
X88374500Y-71829500D01*
X88355593Y-71887691D01*
X88306093Y-71923655D01*
X88275500Y-71928500D01*
X87974000Y-71928500D01*
X87915809Y-71909593D01*
X87879845Y-71860093D01*
X87878857Y-71853858D01*
X87874999Y-71850000D01*
X87324000Y-71850000D01*
X87265809Y-71831093D01*
X87229845Y-71781593D01*
X87225000Y-71751000D01*
X87225000Y-71749000D01*
X87243907Y-71690809D01*
X87293407Y-71654845D01*
X87324000Y-71650000D01*
X87874999Y-71650000D01*
X87875000Y-71649999D01*
X87875000Y-71605302D01*
X87859554Y-71527650D01*
X87861136Y-71527335D01*
X87852458Y-71496570D01*
X87860249Y-71472590D01*
X87860025Y-71472546D01*
X87863867Y-71453231D01*
X87875500Y-71394748D01*
X87875500Y-71105252D01*
X87863867Y-71046769D01*
X87849162Y-71024762D01*
X87819552Y-70980447D01*
X87753231Y-70936133D01*
X87744986Y-70934493D01*
X87694748Y-70924500D01*
X87694747Y-70924500D01*
X87529500Y-70924500D01*
X87471309Y-70905593D01*
X87435345Y-70856093D01*
X87430500Y-70825500D01*
X87430500Y-68230337D01*
X87442033Y-68192336D01*
X87438963Y-68191065D01*
X87443848Y-68179271D01*
X87444251Y-68178299D01*
X87444261Y-68178275D01*
X87444269Y-68178254D01*
X87459840Y-68100025D01*
X87459839Y-68100024D01*
X87460342Y-68097501D01*
X87459428Y-68088209D01*
X87459428Y-66111830D01*
X87460343Y-66102541D01*
X87459839Y-66100010D01*
X87459840Y-66100009D01*
X87444282Y-66021777D01*
X87443529Y-66019958D01*
X87442816Y-66018124D01*
X87442693Y-66017941D01*
X87442693Y-66017939D01*
X87398377Y-65951618D01*
X87398375Y-65951617D01*
X87398375Y-65951616D01*
X87332059Y-65907307D01*
X87332056Y-65907305D01*
X87332055Y-65907305D01*
X87329203Y-65906124D01*
X87328208Y-65905712D01*
X87328206Y-65905711D01*
X87328205Y-65905711D01*
X87247499Y-65889657D01*
X87238209Y-65890572D01*
X86261848Y-65890572D01*
X86252555Y-65889656D01*
X86171788Y-65905712D01*
X86170771Y-65906134D01*
X86167950Y-65907303D01*
X86167936Y-65907308D01*
X86101613Y-65951627D01*
X86057302Y-66017950D01*
X86055718Y-66021776D01*
X86039657Y-66102502D01*
X86040572Y-66111793D01*
X86040572Y-66291572D01*
X86021665Y-66349763D01*
X85972165Y-66385727D01*
X85941572Y-66390572D01*
X85161848Y-66390572D01*
X85152555Y-66389656D01*
X85071788Y-66405712D01*
X85070771Y-66406134D01*
X85067950Y-66407303D01*
X85067936Y-66407308D01*
X85001613Y-66451627D01*
X84957302Y-66517950D01*
X84955718Y-66521776D01*
X84939657Y-66602502D01*
X84940572Y-66611793D01*
X84940571Y-67588235D01*
X84939657Y-67597526D01*
X84955738Y-67678273D01*
X84956150Y-67679267D01*
X84956150Y-67679268D01*
X84956151Y-67679269D01*
X84957305Y-67682055D01*
X84957310Y-67682066D01*
X85001627Y-67748386D01*
X85067950Y-67792697D01*
X85071777Y-67794282D01*
X85149975Y-67809840D01*
X85149975Y-67809839D01*
X85152500Y-67810342D01*
X85161790Y-67809428D01*
X85941572Y-67809428D01*
X85999763Y-67828335D01*
X86035727Y-67877835D01*
X86040572Y-67908428D01*
X86040572Y-68088235D01*
X86039657Y-68097527D01*
X86055738Y-68178273D01*
X86056150Y-68179267D01*
X86056150Y-68179268D01*
X86056151Y-68179269D01*
X86057305Y-68182055D01*
X86057310Y-68182066D01*
X86101627Y-68248386D01*
X86167950Y-68292697D01*
X86171777Y-68294282D01*
X86249975Y-68309840D01*
X86249975Y-68309839D01*
X86252500Y-68310342D01*
X86261790Y-68309428D01*
X86680500Y-68309428D01*
X86738691Y-68328335D01*
X86774655Y-68377835D01*
X86779500Y-68408428D01*
X86779500Y-70601000D01*
X86760593Y-70659191D01*
X86711093Y-70695155D01*
X86680500Y-70700000D01*
X86500001Y-70700000D01*
X86500000Y-70700001D01*
X86500000Y-72001000D01*
X86481093Y-72059191D01*
X86431593Y-72095155D01*
X86401000Y-72100000D01*
X86399000Y-72100000D01*
X86340809Y-72081093D01*
X86304845Y-72031593D01*
X86300000Y-72001000D01*
X86300000Y-70700001D01*
X86299999Y-70700000D01*
X86075303Y-70700000D01*
X86016963Y-70711604D01*
X85939701Y-70763229D01*
X85880813Y-70779837D01*
X85823409Y-70758659D01*
X85789417Y-70707785D01*
X85785700Y-70680913D01*
X85785700Y-70398722D01*
X85786077Y-70390092D01*
X85789463Y-70351392D01*
X85779407Y-70313865D01*
X85777537Y-70305431D01*
X85771605Y-70271791D01*
X85770788Y-70267155D01*
X85770028Y-70265840D01*
X85760144Y-70241976D01*
X85759753Y-70240516D01*
X85737461Y-70208680D01*
X85732825Y-70201401D01*
X85713394Y-70167745D01*
X85683634Y-70142773D01*
X85677266Y-70136939D01*
X84754496Y-69214169D01*
X84726719Y-69159652D01*
X84725500Y-69144165D01*
X84725500Y-68773045D01*
X84725500Y-68770734D01*
X84722646Y-68740301D01*
X84677793Y-68612118D01*
X84597150Y-68502850D01*
X84487882Y-68422207D01*
X84359699Y-68377354D01*
X84359697Y-68377353D01*
X84359695Y-68377353D01*
X84331577Y-68374716D01*
X84331561Y-68374715D01*
X84329266Y-68374500D01*
X83545734Y-68374500D01*
X83543439Y-68374715D01*
X83543422Y-68374716D01*
X83515304Y-68377353D01*
X83515301Y-68377353D01*
X83515301Y-68377354D01*
X83387118Y-68422207D01*
X83387117Y-68422207D01*
X83387116Y-68422208D01*
X83386512Y-68422654D01*
X83277850Y-68502850D01*
X83197207Y-68612118D01*
X83174206Y-68677851D01*
X83152353Y-68740304D01*
X83149716Y-68768422D01*
X83149715Y-68768439D01*
X83149500Y-68770734D01*
X83149500Y-69829266D01*
X83149715Y-69831561D01*
X83149716Y-69831577D01*
X83152353Y-69859695D01*
X83152353Y-69859697D01*
X83152354Y-69859699D01*
X83197207Y-69987882D01*
X83277850Y-70097150D01*
X83387118Y-70177793D01*
X83515301Y-70222646D01*
X83545734Y-70225500D01*
X83548045Y-70225500D01*
X84326955Y-70225500D01*
X84329266Y-70225500D01*
X84359699Y-70222646D01*
X84487882Y-70177793D01*
X84597150Y-70097150D01*
X84597150Y-70097149D01*
X84597457Y-70096923D01*
X84655504Y-70077581D01*
X84713835Y-70096052D01*
X84726236Y-70106563D01*
X85105705Y-70486031D01*
X85133481Y-70540546D01*
X85134700Y-70556033D01*
X85134700Y-70837395D01*
X85115793Y-70895586D01*
X85066293Y-70931550D01*
X85055018Y-70934492D01*
X85050570Y-70935376D01*
X85046768Y-70936133D01*
X84980447Y-70980447D01*
X84936133Y-71046768D01*
X84924500Y-71105253D01*
X84924500Y-71321500D01*
X84905593Y-71379691D01*
X84856093Y-71415655D01*
X84825500Y-71420500D01*
X84799500Y-71420500D01*
X84741309Y-71401593D01*
X84705345Y-71352093D01*
X84700500Y-71321500D01*
X84700500Y-70630253D01*
X84699654Y-70626000D01*
X84688867Y-70571769D01*
X84650952Y-70515026D01*
X84644552Y-70505447D01*
X84578231Y-70461133D01*
X84536001Y-70452733D01*
X84519748Y-70449500D01*
X83480252Y-70449500D01*
X83463999Y-70452733D01*
X83421768Y-70461133D01*
X83355447Y-70505447D01*
X83300206Y-70588121D01*
X83252156Y-70626000D01*
X83191017Y-70628402D01*
X83180007Y-70624584D01*
X83156761Y-70614955D01*
X83000000Y-70594318D01*
X82843238Y-70614955D01*
X82697158Y-70675464D01*
X82571717Y-70771717D01*
X82475464Y-70897158D01*
X82414955Y-71043238D01*
X82394318Y-71200000D01*
X66000500Y-71200000D01*
X66000500Y-69826888D01*
X81075001Y-69826888D01*
X81075216Y-69831504D01*
X81077851Y-69859604D01*
X81122654Y-69987645D01*
X81203208Y-70096791D01*
X81312354Y-70177345D01*
X81440398Y-70222149D01*
X81468484Y-70224783D01*
X81473108Y-70224999D01*
X81762498Y-70224999D01*
X81762500Y-70224998D01*
X81962500Y-70224998D01*
X81962501Y-70224999D01*
X82251888Y-70224999D01*
X82256504Y-70224783D01*
X82284604Y-70222148D01*
X82412645Y-70177345D01*
X82521791Y-70096791D01*
X82602345Y-69987645D01*
X82647149Y-69859601D01*
X82649783Y-69831515D01*
X82650000Y-69826891D01*
X82650000Y-69400001D01*
X82649999Y-69400000D01*
X81962501Y-69400000D01*
X81962500Y-69400001D01*
X81962500Y-70224998D01*
X81762500Y-70224998D01*
X81762500Y-69400001D01*
X81762499Y-69400000D01*
X81075002Y-69400000D01*
X81075001Y-69400001D01*
X81075001Y-69826888D01*
X66000500Y-69826888D01*
X66000500Y-69199999D01*
X81075000Y-69199999D01*
X81075001Y-69200000D01*
X81762499Y-69200000D01*
X81762500Y-69199999D01*
X81962500Y-69199999D01*
X81962501Y-69200000D01*
X82649998Y-69200000D01*
X82649999Y-69199999D01*
X82649999Y-68773112D01*
X82649783Y-68768495D01*
X82647148Y-68740395D01*
X82602345Y-68612354D01*
X82521791Y-68503208D01*
X82412645Y-68422654D01*
X82284601Y-68377850D01*
X82256515Y-68375216D01*
X82251892Y-68375000D01*
X81962501Y-68375000D01*
X81962500Y-68375001D01*
X81962500Y-69199999D01*
X81762500Y-69199999D01*
X81762500Y-68375001D01*
X81762499Y-68375000D01*
X81473112Y-68375000D01*
X81468495Y-68375216D01*
X81440395Y-68377851D01*
X81312354Y-68422654D01*
X81203208Y-68503208D01*
X81122654Y-68612354D01*
X81077850Y-68740398D01*
X81075216Y-68768484D01*
X81075000Y-68773108D01*
X81075000Y-69199999D01*
X66000500Y-69199999D01*
X66000500Y-60000000D01*
X73894548Y-60000000D01*
X73894628Y-60001985D01*
X73906899Y-60306504D01*
X73914346Y-60491285D01*
X73914588Y-60493278D01*
X73973369Y-60977388D01*
X73973372Y-60977406D01*
X73973612Y-60979383D01*
X73974013Y-60981348D01*
X73974014Y-60981353D01*
X74064800Y-61426056D01*
X74071961Y-61461130D01*
X74072514Y-61463041D01*
X74072518Y-61463055D01*
X74208202Y-61931489D01*
X74208756Y-61933401D01*
X74209458Y-61935252D01*
X74209459Y-61935255D01*
X74369305Y-62356734D01*
X74383110Y-62393133D01*
X74383960Y-62394924D01*
X74383962Y-62394929D01*
X74593040Y-62835553D01*
X74593047Y-62835566D01*
X74593891Y-62837345D01*
X74594881Y-62839060D01*
X74594888Y-62839073D01*
X74837896Y-63259974D01*
X74839733Y-63263155D01*
X74840870Y-63264802D01*
X75116572Y-63664227D01*
X75119041Y-63667803D01*
X75120303Y-63669348D01*
X75120304Y-63669350D01*
X75357818Y-63960253D01*
X75430004Y-64048664D01*
X75770605Y-64403267D01*
X76138635Y-64729313D01*
X76140219Y-64730503D01*
X76140226Y-64730509D01*
X76530105Y-65023484D01*
X76530114Y-65023490D01*
X76531708Y-65024688D01*
X76947274Y-65287477D01*
X77382638Y-65515973D01*
X77834977Y-65708697D01*
X78301357Y-65864397D01*
X78778753Y-65982065D01*
X79264069Y-66060936D01*
X79754158Y-66100500D01*
X79756159Y-66100500D01*
X80243841Y-66100500D01*
X80245842Y-66100500D01*
X80735931Y-66060936D01*
X81221247Y-65982065D01*
X81698643Y-65864397D01*
X82165023Y-65708697D01*
X82617362Y-65515973D01*
X83052726Y-65287477D01*
X83468292Y-65024688D01*
X83861365Y-64729313D01*
X84229395Y-64403267D01*
X84569996Y-64048664D01*
X84880959Y-63667803D01*
X85013351Y-63476000D01*
X88594500Y-63476000D01*
X88594781Y-63478617D01*
X88594782Y-63478629D01*
X88600056Y-63527685D01*
X88600339Y-63530313D01*
X88600898Y-63532885D01*
X88600901Y-63532900D01*
X88611261Y-63580522D01*
X88611267Y-63580548D01*
X88611545Y-63581824D01*
X88611889Y-63583078D01*
X88611892Y-63583090D01*
X88618782Y-63608200D01*
X88653603Y-63669350D01*
X88668112Y-63694828D01*
X88713867Y-63747632D01*
X88746641Y-63779257D01*
X88834976Y-63825465D01*
X88902014Y-63845149D01*
X88902015Y-63845150D01*
X88973997Y-63855500D01*
X88974000Y-63855500D01*
X91245500Y-63855500D01*
X91303691Y-63874407D01*
X91339655Y-63923907D01*
X91344500Y-63954500D01*
X91344499Y-67573353D01*
X91344500Y-67573371D01*
X91344500Y-67576000D01*
X91344781Y-67578617D01*
X91344782Y-67578629D01*
X91347085Y-67600048D01*
X91350339Y-67630313D01*
X91350898Y-67632885D01*
X91350901Y-67632900D01*
X91361261Y-67680522D01*
X91361267Y-67680548D01*
X91361545Y-67681824D01*
X91361889Y-67683078D01*
X91361892Y-67683090D01*
X91368782Y-67708200D01*
X91417800Y-67794281D01*
X91418112Y-67794828D01*
X91463867Y-67847632D01*
X91496641Y-67879257D01*
X91584976Y-67925465D01*
X91652015Y-67945149D01*
X91652015Y-67945150D01*
X91723997Y-67955500D01*
X91724000Y-67955500D01*
X94943151Y-67955500D01*
X94945806Y-67955500D01*
X95000310Y-67949619D01*
X95051998Y-67938333D01*
X95078562Y-67931012D01*
X95118078Y-67908428D01*
X95165113Y-67881546D01*
X95165112Y-67881546D01*
X95165115Y-67881545D01*
X95217847Y-67835707D01*
X95249419Y-67802884D01*
X95295488Y-67714476D01*
X95315068Y-67647406D01*
X95325306Y-67575407D01*
X95315693Y-61423407D01*
X95309811Y-61369297D01*
X95298605Y-61317980D01*
X95291412Y-61291802D01*
X95242081Y-61205172D01*
X95196326Y-61152368D01*
X95163552Y-61120743D01*
X95075217Y-61074535D01*
X95075214Y-61074534D01*
X95008177Y-61054849D01*
X94936196Y-61044500D01*
X94936193Y-61044500D01*
X92110083Y-61044500D01*
X92051892Y-61025593D01*
X92015928Y-60976093D01*
X92011095Y-60943953D01*
X92030531Y-59700000D01*
X92600001Y-59700000D01*
X92600001Y-60301888D01*
X92600216Y-60306504D01*
X92602851Y-60334604D01*
X92647654Y-60462645D01*
X92728208Y-60571791D01*
X92837354Y-60652345D01*
X92965398Y-60697149D01*
X92993484Y-60699783D01*
X92998108Y-60699999D01*
X93362498Y-60699999D01*
X93362499Y-60699998D01*
X93562500Y-60699998D01*
X93562501Y-60699999D01*
X93926888Y-60699999D01*
X93931504Y-60699783D01*
X93959604Y-60697148D01*
X94087645Y-60652345D01*
X94196791Y-60571791D01*
X94277345Y-60462645D01*
X94322149Y-60334601D01*
X94324783Y-60306515D01*
X94325000Y-60301891D01*
X94325000Y-59700001D01*
X94324999Y-59700000D01*
X93562501Y-59700000D01*
X93562500Y-59700001D01*
X93562500Y-60699998D01*
X93362499Y-60699998D01*
X93362500Y-60699997D01*
X93362500Y-59700001D01*
X93362499Y-59700000D01*
X92600001Y-59700000D01*
X92030531Y-59700000D01*
X92030629Y-59693749D01*
X92032142Y-59596918D01*
X95070735Y-59596918D01*
X95080795Y-59634462D01*
X95082663Y-59642890D01*
X95089411Y-59681154D01*
X95089412Y-59681157D01*
X95090166Y-59682464D01*
X95100055Y-59706337D01*
X95100446Y-59707797D01*
X95122732Y-59739626D01*
X95127370Y-59746906D01*
X95146803Y-59780564D01*
X95146805Y-59780566D01*
X95146806Y-59780567D01*
X95176583Y-59805553D01*
X95182937Y-59811375D01*
X96145505Y-60773943D01*
X96173281Y-60828458D01*
X96174500Y-60843945D01*
X96174500Y-63680500D01*
X96155593Y-63738691D01*
X96106093Y-63774655D01*
X96075500Y-63779500D01*
X95980252Y-63779500D01*
X95951010Y-63785316D01*
X95921768Y-63791133D01*
X95855447Y-63835447D01*
X95811133Y-63901768D01*
X95799500Y-63960253D01*
X95799500Y-66999746D01*
X95811133Y-67058231D01*
X95855447Y-67124552D01*
X95899762Y-67154162D01*
X95921769Y-67168867D01*
X95980252Y-67180500D01*
X95980253Y-67180500D01*
X97019747Y-67180500D01*
X97019748Y-67180500D01*
X97078231Y-67168867D01*
X97144552Y-67124552D01*
X97188867Y-67058231D01*
X97200500Y-66999748D01*
X97200500Y-63960252D01*
X97188867Y-63901769D01*
X97151035Y-63845150D01*
X97144552Y-63835447D01*
X97078231Y-63791133D01*
X97078230Y-63791132D01*
X97019748Y-63779500D01*
X97019747Y-63779500D01*
X96924500Y-63779500D01*
X96866309Y-63760593D01*
X96830345Y-63711093D01*
X96825500Y-63680500D01*
X96825500Y-61084833D01*
X96844407Y-61026642D01*
X96893907Y-60990678D01*
X96955093Y-60990678D01*
X96994501Y-61014827D01*
X97911163Y-61931489D01*
X98685504Y-62705830D01*
X98713281Y-62760347D01*
X98714500Y-62775834D01*
X98714500Y-63680500D01*
X98695593Y-63738691D01*
X98646093Y-63774655D01*
X98615500Y-63779500D01*
X98520252Y-63779500D01*
X98491010Y-63785316D01*
X98461768Y-63791133D01*
X98395447Y-63835447D01*
X98351133Y-63901768D01*
X98339500Y-63960253D01*
X98339500Y-66999746D01*
X98351133Y-67058231D01*
X98395447Y-67124552D01*
X98439762Y-67154162D01*
X98461769Y-67168867D01*
X98520252Y-67180500D01*
X98520253Y-67180500D01*
X99559747Y-67180500D01*
X99559748Y-67180500D01*
X99618231Y-67168867D01*
X99684552Y-67124552D01*
X99728867Y-67058231D01*
X99740500Y-66999748D01*
X99740500Y-63960252D01*
X99728867Y-63901769D01*
X99691035Y-63845150D01*
X99684552Y-63835447D01*
X99618231Y-63791133D01*
X99618230Y-63791132D01*
X99559748Y-63779500D01*
X99559747Y-63779500D01*
X99464500Y-63779500D01*
X99406309Y-63760593D01*
X99370345Y-63711093D01*
X99365500Y-63680500D01*
X99365500Y-62618534D01*
X99365877Y-62609904D01*
X99369264Y-62571193D01*
X99359204Y-62533652D01*
X99357334Y-62525216D01*
X99356326Y-62519501D01*
X99350588Y-62486955D01*
X99349834Y-62485650D01*
X99339943Y-62461768D01*
X99339942Y-62461765D01*
X99339554Y-62460316D01*
X99317260Y-62428477D01*
X99312633Y-62421215D01*
X99293194Y-62387545D01*
X99263428Y-62362568D01*
X99257060Y-62356734D01*
X96184496Y-59284170D01*
X96156719Y-59229653D01*
X96155500Y-59214166D01*
X96155500Y-58637500D01*
X96875001Y-58637500D01*
X96875001Y-58926888D01*
X96875216Y-58931504D01*
X96877851Y-58959604D01*
X96922654Y-59087645D01*
X97003208Y-59196791D01*
X97112354Y-59277345D01*
X97240398Y-59322149D01*
X97268484Y-59324783D01*
X97273108Y-59324999D01*
X97699998Y-59324999D01*
X97700000Y-59324998D01*
X97700000Y-58637500D01*
X97900000Y-58637500D01*
X97900000Y-59324998D01*
X97900001Y-59324999D01*
X98326888Y-59324999D01*
X98331504Y-59324783D01*
X98359604Y-59322148D01*
X98487645Y-59277345D01*
X98596791Y-59196791D01*
X98677345Y-59087645D01*
X98722149Y-58959601D01*
X98724783Y-58931515D01*
X98725000Y-58926891D01*
X98725000Y-58637501D01*
X98724999Y-58637500D01*
X97900000Y-58637500D01*
X97700000Y-58637500D01*
X96875001Y-58637500D01*
X96155500Y-58637500D01*
X96155500Y-58437498D01*
X96875000Y-58437498D01*
X96875001Y-58437500D01*
X97699999Y-58437500D01*
X97700000Y-58437499D01*
X97900000Y-58437499D01*
X97900001Y-58437500D01*
X98724998Y-58437500D01*
X98724999Y-58437498D01*
X98724999Y-58148112D01*
X98724783Y-58143495D01*
X98722148Y-58115395D01*
X98677345Y-57987354D01*
X98596791Y-57878208D01*
X98487645Y-57797654D01*
X98359601Y-57752850D01*
X98331515Y-57750216D01*
X98326892Y-57750000D01*
X97900001Y-57750000D01*
X97900000Y-57750001D01*
X97900000Y-58437499D01*
X97700000Y-58437499D01*
X97700000Y-57750001D01*
X97699999Y-57750000D01*
X97273112Y-57750000D01*
X97268495Y-57750216D01*
X97240395Y-57752851D01*
X97112354Y-57797654D01*
X97003208Y-57878208D01*
X96922654Y-57987354D01*
X96877850Y-58115398D01*
X96875216Y-58143484D01*
X96875000Y-58148108D01*
X96875000Y-58437498D01*
X96155500Y-58437498D01*
X96155500Y-55195188D01*
X96174407Y-55136997D01*
X96223907Y-55101033D01*
X96285093Y-55101033D01*
X96324501Y-55125182D01*
X96343517Y-55144198D01*
X96448607Y-55195573D01*
X96516740Y-55205500D01*
X97056678Y-55205500D01*
X97114869Y-55224407D01*
X97126682Y-55234496D01*
X97270504Y-55378318D01*
X97298281Y-55432835D01*
X97299500Y-55448322D01*
X97299500Y-55586395D01*
X97280593Y-55644586D01*
X97233198Y-55679839D01*
X97112118Y-55722206D01*
X97002850Y-55802850D01*
X96922208Y-55912116D01*
X96877353Y-56040304D01*
X96874716Y-56068422D01*
X96874715Y-56068439D01*
X96874500Y-56070734D01*
X96874500Y-56854266D01*
X96874715Y-56856561D01*
X96874716Y-56856577D01*
X96877353Y-56884695D01*
X96877353Y-56884697D01*
X96877354Y-56884699D01*
X96922207Y-57012882D01*
X97002850Y-57122150D01*
X97112118Y-57202793D01*
X97240301Y-57247646D01*
X97270734Y-57250500D01*
X97273045Y-57250500D01*
X98326955Y-57250500D01*
X98329266Y-57250500D01*
X98359699Y-57247646D01*
X98487882Y-57202793D01*
X98597150Y-57122150D01*
X98677793Y-57012882D01*
X98722646Y-56884699D01*
X98725500Y-56854266D01*
X98725500Y-56070734D01*
X98722646Y-56040301D01*
X98677793Y-55912118D01*
X98638065Y-55858288D01*
X98618723Y-55800240D01*
X98637194Y-55741910D01*
X98686424Y-55705577D01*
X98717720Y-55700500D01*
X98832229Y-55700500D01*
X98890420Y-55719407D01*
X98892451Y-55720923D01*
X98897159Y-55724536D01*
X99043238Y-55785044D01*
X99200000Y-55805682D01*
X99356762Y-55785044D01*
X99502841Y-55724536D01*
X99628282Y-55628282D01*
X99724536Y-55502841D01*
X99785044Y-55356762D01*
X99805682Y-55200000D01*
X99785044Y-55043238D01*
X99724536Y-54897159D01*
X99702139Y-54867970D01*
X99628282Y-54771717D01*
X99502841Y-54675464D01*
X99356761Y-54614955D01*
X99200000Y-54594318D01*
X99043238Y-54614955D01*
X98897160Y-54675463D01*
X98897158Y-54675464D01*
X98897159Y-54675464D01*
X98892493Y-54679043D01*
X98834820Y-54699466D01*
X98832229Y-54699500D01*
X98649500Y-54699500D01*
X98591309Y-54680593D01*
X98555345Y-54631093D01*
X98550500Y-54600500D01*
X98550500Y-54521743D01*
X98550500Y-54521740D01*
X98540573Y-54453607D01*
X98489198Y-54348517D01*
X98406483Y-54265802D01*
X98301393Y-54214427D01*
X98233260Y-54204500D01*
X96516740Y-54204500D01*
X96465640Y-54211945D01*
X96448606Y-54214427D01*
X96343515Y-54265802D01*
X96324502Y-54284816D01*
X96269985Y-54312592D01*
X96209554Y-54303020D01*
X96166290Y-54259755D01*
X96155500Y-54214811D01*
X96155500Y-53925188D01*
X96174407Y-53866997D01*
X96223907Y-53831033D01*
X96285093Y-53831033D01*
X96324501Y-53855182D01*
X96343517Y-53874198D01*
X96448607Y-53925573D01*
X96516740Y-53935500D01*
X96516743Y-53935500D01*
X98233257Y-53935500D01*
X98233260Y-53935500D01*
X98301393Y-53925573D01*
X98406483Y-53874198D01*
X98476186Y-53804494D01*
X98530701Y-53776719D01*
X98546188Y-53775500D01*
X99000500Y-53775500D01*
X99058691Y-53794407D01*
X99094655Y-53843907D01*
X99099500Y-53874500D01*
X99099500Y-53969746D01*
X99111133Y-54028231D01*
X99155447Y-54094552D01*
X99199761Y-54124162D01*
X99221769Y-54138867D01*
X99280252Y-54150500D01*
X99280253Y-54150500D01*
X100319747Y-54150500D01*
X100319748Y-54150500D01*
X100378231Y-54138867D01*
X100444552Y-54094552D01*
X100488867Y-54028231D01*
X100500500Y-53969748D01*
X100500500Y-52930252D01*
X100488867Y-52871769D01*
X100474162Y-52849761D01*
X100444552Y-52805447D01*
X100378231Y-52761133D01*
X100378230Y-52761132D01*
X100319748Y-52749500D01*
X99280252Y-52749500D01*
X99251010Y-52755316D01*
X99221768Y-52761133D01*
X99155447Y-52805447D01*
X99111133Y-52871768D01*
X99099500Y-52930253D01*
X99099500Y-53025500D01*
X99080593Y-53083691D01*
X99031093Y-53119655D01*
X99000500Y-53124500D01*
X98573476Y-53124500D01*
X98515285Y-53105593D01*
X98501682Y-53089395D01*
X98500879Y-53090199D01*
X98489198Y-53078518D01*
X98489198Y-53078517D01*
X98406483Y-52995802D01*
X98301393Y-52944427D01*
X98233260Y-52934500D01*
X96516740Y-52934500D01*
X96465640Y-52941945D01*
X96448606Y-52944427D01*
X96343518Y-52995801D01*
X96343517Y-52995801D01*
X96343517Y-52995802D01*
X96324501Y-53014817D01*
X96269987Y-53042593D01*
X96209555Y-53033022D01*
X96166290Y-52989757D01*
X96155500Y-52944812D01*
X96155500Y-52655188D01*
X96174407Y-52596997D01*
X96223907Y-52561033D01*
X96285093Y-52561033D01*
X96324501Y-52585182D01*
X96343517Y-52604198D01*
X96448607Y-52655573D01*
X96516740Y-52665500D01*
X96516743Y-52665500D01*
X98233257Y-52665500D01*
X98233260Y-52665500D01*
X98301393Y-52655573D01*
X98406483Y-52604198D01*
X98489198Y-52521483D01*
X98540573Y-52416393D01*
X98550500Y-52348260D01*
X98550500Y-51981740D01*
X98540573Y-51913607D01*
X98509478Y-51850001D01*
X99099999Y-51850001D01*
X99100000Y-52269697D01*
X99111604Y-52328036D01*
X99155807Y-52394192D01*
X99221963Y-52438395D01*
X99280303Y-52450000D01*
X99699999Y-52450000D01*
X99700000Y-52449999D01*
X99700000Y-51850001D01*
X99699999Y-51850000D01*
X99900000Y-51850000D01*
X99900000Y-52449999D01*
X99900001Y-52450000D01*
X100319697Y-52450000D01*
X100378036Y-52438395D01*
X100444192Y-52394192D01*
X100488395Y-52328036D01*
X100500000Y-52269697D01*
X100500000Y-51850001D01*
X100499999Y-51850000D01*
X99900000Y-51850000D01*
X99699999Y-51850000D01*
X99100001Y-51850000D01*
X99099999Y-51850001D01*
X98509478Y-51850001D01*
X98489198Y-51808517D01*
X98406483Y-51725802D01*
X98301393Y-51674427D01*
X98233260Y-51664500D01*
X96516740Y-51664500D01*
X96465640Y-51671945D01*
X96448606Y-51674427D01*
X96343518Y-51725801D01*
X96343517Y-51725802D01*
X96260802Y-51808517D01*
X96255685Y-51818982D01*
X96213143Y-51862955D01*
X96166746Y-51874500D01*
X95824500Y-51874500D01*
X95766309Y-51855593D01*
X95730345Y-51806093D01*
X95725500Y-51775500D01*
X95725500Y-51675832D01*
X95733894Y-51649998D01*
X99099999Y-51649998D01*
X99100001Y-51650000D01*
X99699999Y-51650000D01*
X99700000Y-51649999D01*
X99900000Y-51649999D01*
X99900001Y-51650000D01*
X100499999Y-51650000D01*
X100500000Y-51649999D01*
X100500000Y-51230302D01*
X100488395Y-51171963D01*
X100444192Y-51105807D01*
X100378036Y-51061604D01*
X100319697Y-51050000D01*
X99900001Y-51050000D01*
X99900000Y-51050001D01*
X99900000Y-51649999D01*
X99700000Y-51649999D01*
X99700000Y-51649998D01*
X99700000Y-51050001D01*
X99699999Y-51050000D01*
X99280303Y-51050000D01*
X99221963Y-51061604D01*
X99155807Y-51105807D01*
X99111604Y-51171963D01*
X99100000Y-51230302D01*
X99099999Y-51649998D01*
X95733894Y-51649998D01*
X95744407Y-51617641D01*
X95754497Y-51605828D01*
X96105830Y-51254496D01*
X96160346Y-51226719D01*
X96175833Y-51225500D01*
X96193812Y-51225500D01*
X96252003Y-51244407D01*
X96263809Y-51254490D01*
X96343517Y-51334198D01*
X96448607Y-51385573D01*
X96516740Y-51395500D01*
X96516743Y-51395500D01*
X98233257Y-51395500D01*
X98233260Y-51395500D01*
X98301393Y-51385573D01*
X98406483Y-51334198D01*
X98489198Y-51251483D01*
X98540573Y-51146393D01*
X98550500Y-51078260D01*
X98550500Y-50711740D01*
X98540573Y-50643607D01*
X98489198Y-50538517D01*
X98406483Y-50455802D01*
X98301393Y-50404427D01*
X98233260Y-50394500D01*
X96516740Y-50394500D01*
X96465640Y-50401945D01*
X96448606Y-50404427D01*
X96343518Y-50455801D01*
X96343517Y-50455801D01*
X96343517Y-50455802D01*
X96260802Y-50538517D01*
X96260801Y-50538518D01*
X96253816Y-50545504D01*
X96199299Y-50573281D01*
X96183812Y-50574500D01*
X96018526Y-50574500D01*
X96009898Y-50574123D01*
X96007971Y-50573954D01*
X95971193Y-50570736D01*
X95933656Y-50580794D01*
X95925227Y-50582663D01*
X95886954Y-50589412D01*
X95885645Y-50590168D01*
X95861780Y-50600053D01*
X95860318Y-50600444D01*
X95828484Y-50622734D01*
X95821204Y-50627371D01*
X95787544Y-50646805D01*
X95762569Y-50676569D01*
X95756736Y-50682936D01*
X95182940Y-51256732D01*
X95176574Y-51262565D01*
X95146804Y-51287545D01*
X95127371Y-51321204D01*
X95122734Y-51328484D01*
X95100444Y-51360318D01*
X95100053Y-51361780D01*
X95090168Y-51385645D01*
X95089410Y-51386956D01*
X95082662Y-51425223D01*
X95080794Y-51433649D01*
X95070735Y-51471191D01*
X95074123Y-51509903D01*
X95074500Y-51518533D01*
X95074500Y-59549577D01*
X95074123Y-59558207D01*
X95070735Y-59596918D01*
X92032142Y-59596918D01*
X92033656Y-59499999D01*
X92600000Y-59499999D01*
X92600001Y-59500000D01*
X93362499Y-59500000D01*
X93362500Y-59499998D01*
X93362500Y-58500001D01*
X93362499Y-58500000D01*
X93562500Y-58500000D01*
X93562500Y-59499998D01*
X93562501Y-59500000D01*
X94324998Y-59500000D01*
X94324999Y-59499999D01*
X94324999Y-58898112D01*
X94324783Y-58893495D01*
X94322148Y-58865395D01*
X94277345Y-58737354D01*
X94196791Y-58628208D01*
X94087645Y-58547654D01*
X93959601Y-58502850D01*
X93931515Y-58500216D01*
X93926892Y-58500000D01*
X93562500Y-58500000D01*
X93362499Y-58500000D01*
X92998112Y-58500000D01*
X92993495Y-58500216D01*
X92965395Y-58502851D01*
X92837354Y-58547654D01*
X92728208Y-58628208D01*
X92647654Y-58737354D01*
X92602850Y-58865398D01*
X92600216Y-58893484D01*
X92600000Y-58898108D01*
X92600000Y-59499999D01*
X92033656Y-59499999D01*
X92053501Y-58229929D01*
X92048109Y-58173576D01*
X92036918Y-58120128D01*
X92029266Y-58091802D01*
X91979935Y-58005172D01*
X91934180Y-57952368D01*
X91901406Y-57920743D01*
X91813071Y-57874535D01*
X91813068Y-57874534D01*
X91746031Y-57854849D01*
X91674050Y-57844500D01*
X91674047Y-57844500D01*
X88974000Y-57844500D01*
X88971383Y-57844781D01*
X88971370Y-57844782D01*
X88922314Y-57850056D01*
X88922303Y-57850057D01*
X88919687Y-57850339D01*
X88917117Y-57850898D01*
X88917099Y-57850901D01*
X88869477Y-57861261D01*
X88869442Y-57861269D01*
X88868176Y-57861545D01*
X88866930Y-57861886D01*
X88866909Y-57861892D01*
X88847404Y-57867243D01*
X88841802Y-57868781D01*
X88841801Y-57868781D01*
X88841799Y-57868782D01*
X88755172Y-57918111D01*
X88704043Y-57962415D01*
X88704035Y-57962422D01*
X88702368Y-57963867D01*
X88700840Y-57965449D01*
X88700831Y-57965459D01*
X88670743Y-57996640D01*
X88624534Y-58084978D01*
X88604849Y-58152015D01*
X88594500Y-58223997D01*
X88594500Y-58224000D01*
X88594500Y-59219500D01*
X88594500Y-59980500D01*
X88594500Y-63476000D01*
X85013351Y-63476000D01*
X85160267Y-63263155D01*
X85406109Y-62837345D01*
X85616890Y-62393133D01*
X85791244Y-61933401D01*
X85928039Y-61461130D01*
X86026388Y-60979383D01*
X86085654Y-60491285D01*
X86105452Y-60000000D01*
X86085654Y-59508715D01*
X86026388Y-59020617D01*
X85928039Y-58538870D01*
X85791244Y-58066599D01*
X85616890Y-57606867D01*
X85425154Y-57202791D01*
X85406959Y-57164446D01*
X85406957Y-57164442D01*
X85406109Y-57162655D01*
X85382723Y-57122150D01*
X85161267Y-56738577D01*
X85161266Y-56738576D01*
X85160267Y-56736845D01*
X84880959Y-56332197D01*
X84799789Y-56232782D01*
X84571261Y-55952885D01*
X84571257Y-55952880D01*
X84569996Y-55951336D01*
X84229395Y-55596733D01*
X84061874Y-55448322D01*
X83862851Y-55272003D01*
X83862844Y-55271997D01*
X83861365Y-55270687D01*
X83859783Y-55269498D01*
X83859773Y-55269490D01*
X83469894Y-54976515D01*
X83469880Y-54976505D01*
X83468292Y-54975312D01*
X83438374Y-54956393D01*
X83330631Y-54888260D01*
X91249500Y-54888260D01*
X91259427Y-54956393D01*
X91310802Y-55061483D01*
X91393517Y-55144198D01*
X91498607Y-55195573D01*
X91566740Y-55205500D01*
X91723845Y-55205500D01*
X91782036Y-55224407D01*
X91818000Y-55273907D01*
X91818000Y-55335093D01*
X91815309Y-55342386D01*
X91814955Y-55343238D01*
X91794318Y-55500000D01*
X91814955Y-55656761D01*
X91875464Y-55802841D01*
X91971717Y-55928282D01*
X92003781Y-55952885D01*
X92097159Y-56024536D01*
X92243238Y-56085044D01*
X92400000Y-56105682D01*
X92556762Y-56085044D01*
X92702841Y-56024536D01*
X92828282Y-55928282D01*
X92924536Y-55802841D01*
X92985044Y-55656762D01*
X93005682Y-55500000D01*
X92985044Y-55343238D01*
X92984690Y-55342385D01*
X92984332Y-55337833D01*
X92983343Y-55330316D01*
X92983736Y-55330264D01*
X92979890Y-55281390D01*
X93011859Y-55229220D01*
X93068387Y-55205805D01*
X93076155Y-55205500D01*
X93283257Y-55205500D01*
X93283260Y-55205500D01*
X93351393Y-55195573D01*
X93456483Y-55144198D01*
X93539198Y-55061483D01*
X93590573Y-54956393D01*
X93600500Y-54888260D01*
X93600500Y-54521740D01*
X93590573Y-54453607D01*
X93539198Y-54348517D01*
X93456483Y-54265802D01*
X93351393Y-54214427D01*
X93283260Y-54204500D01*
X91566740Y-54204500D01*
X91515640Y-54211945D01*
X91498606Y-54214427D01*
X91393518Y-54265801D01*
X91310801Y-54348518D01*
X91259427Y-54453606D01*
X91259427Y-54453607D01*
X91249500Y-54521740D01*
X91249500Y-54888260D01*
X83330631Y-54888260D01*
X83054412Y-54713589D01*
X83054408Y-54713587D01*
X83052726Y-54712523D01*
X83050961Y-54711597D01*
X83050953Y-54711592D01*
X82619142Y-54484961D01*
X82619137Y-54484958D01*
X82617362Y-54484027D01*
X82615525Y-54483244D01*
X82615518Y-54483241D01*
X82166862Y-54292086D01*
X82166850Y-54292081D01*
X82165023Y-54291303D01*
X82163138Y-54290673D01*
X82163123Y-54290668D01*
X81700544Y-54136237D01*
X81700529Y-54136232D01*
X81698643Y-54135603D01*
X81696708Y-54135126D01*
X81696694Y-54135122D01*
X81223179Y-54018411D01*
X81223174Y-54018410D01*
X81221247Y-54017935D01*
X81219298Y-54017618D01*
X81219287Y-54017616D01*
X80737890Y-53939382D01*
X80737881Y-53939380D01*
X80735931Y-53939064D01*
X80733954Y-53938904D01*
X80733951Y-53938904D01*
X80247835Y-53899660D01*
X80247813Y-53899659D01*
X80245842Y-53899500D01*
X79754158Y-53899500D01*
X79752187Y-53899659D01*
X79752164Y-53899660D01*
X79266048Y-53938904D01*
X79266042Y-53938904D01*
X79264069Y-53939064D01*
X79262121Y-53939380D01*
X79262109Y-53939382D01*
X78780712Y-54017616D01*
X78780696Y-54017619D01*
X78778753Y-54017935D01*
X78776830Y-54018408D01*
X78776820Y-54018411D01*
X78303305Y-54135122D01*
X78303285Y-54135127D01*
X78301357Y-54135603D01*
X78299477Y-54136230D01*
X78299455Y-54136237D01*
X77836876Y-54290668D01*
X77836853Y-54290676D01*
X77834977Y-54291303D01*
X77833157Y-54292078D01*
X77833137Y-54292086D01*
X77384481Y-54483241D01*
X77384465Y-54483248D01*
X77382638Y-54484027D01*
X77380871Y-54484954D01*
X77380857Y-54484961D01*
X76949046Y-54711592D01*
X76949027Y-54711602D01*
X76947274Y-54712523D01*
X76945601Y-54713580D01*
X76945587Y-54713589D01*
X76533399Y-54974242D01*
X76533387Y-54974250D01*
X76531708Y-54975312D01*
X76530130Y-54976497D01*
X76530105Y-54976515D01*
X76140226Y-55269490D01*
X76140203Y-55269508D01*
X76138635Y-55270687D01*
X76137167Y-55271986D01*
X76137148Y-55272003D01*
X75772096Y-55595411D01*
X75772081Y-55595425D01*
X75770605Y-55596733D01*
X75769233Y-55598160D01*
X75769224Y-55598170D01*
X75431388Y-55949894D01*
X75431375Y-55949908D01*
X75430004Y-55951336D01*
X75428754Y-55952866D01*
X75428738Y-55952885D01*
X75120304Y-56330649D01*
X75120293Y-56330662D01*
X75119041Y-56332197D01*
X75117914Y-56333829D01*
X75117901Y-56333847D01*
X74840870Y-56735197D01*
X74840864Y-56735206D01*
X74839733Y-56736845D01*
X74838743Y-56738558D01*
X74838732Y-56738577D01*
X74594888Y-57160926D01*
X74594875Y-57160949D01*
X74593891Y-57162655D01*
X74593052Y-57164423D01*
X74593040Y-57164446D01*
X74383962Y-57605070D01*
X74383955Y-57605084D01*
X74383110Y-57606867D01*
X74382409Y-57608714D01*
X74382404Y-57608727D01*
X74209459Y-58064744D01*
X74209455Y-58064755D01*
X74208756Y-58066599D01*
X74208205Y-58068499D01*
X74208202Y-58068510D01*
X74072518Y-58536944D01*
X74072513Y-58536964D01*
X74071961Y-58538870D01*
X74071562Y-58540820D01*
X74071559Y-58540836D01*
X73974014Y-59018646D01*
X73973612Y-59020617D01*
X73973372Y-59022589D01*
X73973369Y-59022611D01*
X73936999Y-59322148D01*
X73914346Y-59508715D01*
X73914265Y-59510705D01*
X73914265Y-59510715D01*
X73904898Y-59743166D01*
X73894548Y-60000000D01*
X66000500Y-60000000D01*
X66000500Y-53400000D01*
X90194318Y-53400000D01*
X90214955Y-53556761D01*
X90275464Y-53702841D01*
X90371717Y-53828282D01*
X90464531Y-53899500D01*
X90497159Y-53924536D01*
X90643238Y-53985044D01*
X90800000Y-54005682D01*
X90956762Y-53985044D01*
X91102841Y-53924536D01*
X91193223Y-53855184D01*
X91226917Y-53829330D01*
X91284593Y-53808906D01*
X91343259Y-53826284D01*
X91357182Y-53837863D01*
X91393517Y-53874198D01*
X91498607Y-53925573D01*
X91566740Y-53935500D01*
X91566743Y-53935500D01*
X93283257Y-53935500D01*
X93283260Y-53935500D01*
X93351393Y-53925573D01*
X93456483Y-53874198D01*
X93539198Y-53791483D01*
X93590573Y-53686393D01*
X93600500Y-53618260D01*
X93600500Y-53251740D01*
X93590573Y-53183607D01*
X93539198Y-53078517D01*
X93456483Y-52995802D01*
X93351393Y-52944427D01*
X93283260Y-52934500D01*
X91566740Y-52934500D01*
X91515640Y-52941945D01*
X91498606Y-52944427D01*
X91393514Y-52995803D01*
X91390300Y-52999018D01*
X91335783Y-53026794D01*
X91275351Y-53017220D01*
X91241757Y-52989279D01*
X91228282Y-52971718D01*
X91193217Y-52944812D01*
X91106851Y-52878541D01*
X91072196Y-52828118D01*
X91073797Y-52766953D01*
X91106852Y-52721458D01*
X91179778Y-52665500D01*
X91228282Y-52628282D01*
X91241757Y-52610719D01*
X91292179Y-52576064D01*
X91353344Y-52577665D01*
X91390300Y-52600981D01*
X91393517Y-52604198D01*
X91498607Y-52655573D01*
X91566740Y-52665500D01*
X91566743Y-52665500D01*
X93283257Y-52665500D01*
X93283260Y-52665500D01*
X93351393Y-52655573D01*
X93456483Y-52604198D01*
X93539198Y-52521483D01*
X93590573Y-52416393D01*
X93600500Y-52348260D01*
X93600500Y-51981740D01*
X93590573Y-51913607D01*
X93539198Y-51808517D01*
X93456483Y-51725802D01*
X93351393Y-51674427D01*
X93283260Y-51664500D01*
X91566740Y-51664500D01*
X91515640Y-51671945D01*
X91498606Y-51674427D01*
X91393516Y-51725802D01*
X91357187Y-51762131D01*
X91302670Y-51789908D01*
X91242238Y-51780336D01*
X91226917Y-51770670D01*
X91161225Y-51720263D01*
X91102841Y-51675464D01*
X91102839Y-51675463D01*
X90956761Y-51614955D01*
X90800000Y-51594318D01*
X90643238Y-51614955D01*
X90497158Y-51675464D01*
X90371717Y-51771717D01*
X90275464Y-51897158D01*
X90214955Y-52043238D01*
X90194318Y-52200000D01*
X90214955Y-52356761D01*
X90275464Y-52502841D01*
X90371717Y-52628282D01*
X90493147Y-52721458D01*
X90527803Y-52771882D01*
X90526202Y-52833047D01*
X90493147Y-52878542D01*
X90371717Y-52971717D01*
X90275464Y-53097158D01*
X90214955Y-53243238D01*
X90194318Y-53400000D01*
X66000500Y-53400000D01*
X66000500Y-50995000D01*
X91250001Y-50995000D01*
X91250001Y-51078216D01*
X91259911Y-51146247D01*
X91311214Y-51251188D01*
X91393812Y-51333786D01*
X91498750Y-51385087D01*
X91566784Y-51394999D01*
X92324997Y-51394999D01*
X92324998Y-51394998D01*
X92524999Y-51394998D01*
X92525000Y-51394999D01*
X93283217Y-51394999D01*
X93351247Y-51385088D01*
X93456188Y-51333785D01*
X93538786Y-51251187D01*
X93590087Y-51146249D01*
X93600000Y-51078215D01*
X93600000Y-50995001D01*
X93599999Y-50995000D01*
X92525001Y-50995000D01*
X92524999Y-50995001D01*
X92524999Y-51394998D01*
X92324998Y-51394998D01*
X92324999Y-51394997D01*
X92324999Y-50995000D01*
X91250001Y-50995000D01*
X66000500Y-50995000D01*
X66000500Y-50794999D01*
X91250000Y-50794999D01*
X91250001Y-50795000D01*
X92324999Y-50795000D01*
X92324999Y-50395001D01*
X92324998Y-50395000D01*
X92524999Y-50395000D01*
X92524999Y-50794998D01*
X92525001Y-50795000D01*
X93599998Y-50795000D01*
X93599999Y-50794999D01*
X93599999Y-50711783D01*
X93590088Y-50643752D01*
X93538785Y-50538811D01*
X93456187Y-50456213D01*
X93351249Y-50404912D01*
X93283216Y-50395000D01*
X92524999Y-50395000D01*
X92324998Y-50395000D01*
X91566782Y-50395000D01*
X91498752Y-50404911D01*
X91393811Y-50456214D01*
X91311213Y-50538812D01*
X91259912Y-50643750D01*
X91250000Y-50711784D01*
X91250000Y-50794999D01*
X66000500Y-50794999D01*
X66000500Y-47004318D01*
X66000877Y-46995689D01*
X66004476Y-46954553D01*
X66017120Y-46826175D01*
X66020009Y-46810301D01*
X66038007Y-46743128D01*
X66038836Y-46740224D01*
X66067199Y-46646725D01*
X66072207Y-46633639D01*
X66103966Y-46565532D01*
X66106368Y-46560726D01*
X66149720Y-46479619D01*
X66155919Y-46469528D01*
X66200188Y-46406306D01*
X66204742Y-46400305D01*
X66261956Y-46330589D01*
X66268449Y-46323423D01*
X66323423Y-46268449D01*
X66330589Y-46261956D01*
X66400311Y-46204737D01*
X66406305Y-46200188D01*
X66469528Y-46155919D01*
X66479619Y-46149720D01*
X66560726Y-46106368D01*
X66565523Y-46103970D01*
X66633641Y-46072205D01*
X66646725Y-46067199D01*
X66740225Y-46038836D01*
X66743112Y-46038011D01*
X66810307Y-46020007D01*
X66826179Y-46017120D01*
X66954542Y-46004477D01*
X66995707Y-46000875D01*
X67004312Y-46000500D01*
X100995680Y-46000500D01*
X101004309Y-46000877D01*
G37*
%TD.AperFunction*%
%TD*%
M02*
