%TF.GenerationSoftware,KiCad,Pcbnew,7.0.2.1-36-g582732918d-dirty-deb11*%
%TF.CreationDate,2023-05-22T19:38:29+00:00*%
%TF.ProjectId,pedalboard-led-ring,70656461-6c62-46f6-9172-642d6c65642d,rev?*%
%TF.SameCoordinates,Original*%
%TF.FileFunction,Legend,Bot*%
%TF.FilePolarity,Positive*%
%FSLAX46Y46*%
G04 Gerber Fmt 4.6, Leading zero omitted, Abs format (unit mm)*
G04 Created by KiCad (PCBNEW 7.0.2.1-36-g582732918d-dirty-deb11) date 2023-05-22 19:38:29*
%MOMM*%
%LPD*%
G01*
G04 APERTURE LIST*
%ADD10C,0.100000*%
%ADD11C,0.150000*%
%ADD12C,0.120000*%
G04 APERTURE END LIST*
D10*
X87050000Y-60000000D02*
G75*
G03*
X87050000Y-60000000I-7050000J0D01*
G01*
D11*
%TO.C,U1*%
X92861904Y-48762619D02*
X92861904Y-49572142D01*
X92861904Y-49572142D02*
X92814285Y-49667380D01*
X92814285Y-49667380D02*
X92766666Y-49715000D01*
X92766666Y-49715000D02*
X92671428Y-49762619D01*
X92671428Y-49762619D02*
X92480952Y-49762619D01*
X92480952Y-49762619D02*
X92385714Y-49715000D01*
X92385714Y-49715000D02*
X92338095Y-49667380D01*
X92338095Y-49667380D02*
X92290476Y-49572142D01*
X92290476Y-49572142D02*
X92290476Y-48762619D01*
X91290476Y-49762619D02*
X91861904Y-49762619D01*
X91576190Y-49762619D02*
X91576190Y-48762619D01*
X91576190Y-48762619D02*
X91671428Y-48905476D01*
X91671428Y-48905476D02*
X91766666Y-49000714D01*
X91766666Y-49000714D02*
X91861904Y-49048333D01*
%TO.C,J1*%
X90192619Y-67666666D02*
X90906904Y-67666666D01*
X90906904Y-67666666D02*
X91049761Y-67619047D01*
X91049761Y-67619047D02*
X91145000Y-67523809D01*
X91145000Y-67523809D02*
X91192619Y-67380952D01*
X91192619Y-67380952D02*
X91192619Y-67285714D01*
X91192619Y-68666666D02*
X91192619Y-68095238D01*
X91192619Y-68380952D02*
X90192619Y-68380952D01*
X90192619Y-68380952D02*
X90335476Y-68285714D01*
X90335476Y-68285714D02*
X90430714Y-68190476D01*
X90430714Y-68190476D02*
X90478333Y-68095238D01*
%TO.C,C1*%
X97666666Y-61617380D02*
X97714285Y-61665000D01*
X97714285Y-61665000D02*
X97857142Y-61712619D01*
X97857142Y-61712619D02*
X97952380Y-61712619D01*
X97952380Y-61712619D02*
X98095237Y-61665000D01*
X98095237Y-61665000D02*
X98190475Y-61569761D01*
X98190475Y-61569761D02*
X98238094Y-61474523D01*
X98238094Y-61474523D02*
X98285713Y-61284047D01*
X98285713Y-61284047D02*
X98285713Y-61141190D01*
X98285713Y-61141190D02*
X98238094Y-60950714D01*
X98238094Y-60950714D02*
X98190475Y-60855476D01*
X98190475Y-60855476D02*
X98095237Y-60760238D01*
X98095237Y-60760238D02*
X97952380Y-60712619D01*
X97952380Y-60712619D02*
X97857142Y-60712619D01*
X97857142Y-60712619D02*
X97714285Y-60760238D01*
X97714285Y-60760238D02*
X97666666Y-60807857D01*
X96714285Y-61712619D02*
X97285713Y-61712619D01*
X96999999Y-61712619D02*
X96999999Y-60712619D01*
X96999999Y-60712619D02*
X97095237Y-60855476D01*
X97095237Y-60855476D02*
X97190475Y-60950714D01*
X97190475Y-60950714D02*
X97285713Y-60998333D01*
%TO.C,R1*%
X101200702Y-52991666D02*
X100891178Y-52774999D01*
X101200702Y-52620237D02*
X100550702Y-52620237D01*
X100550702Y-52620237D02*
X100550702Y-52867856D01*
X100550702Y-52867856D02*
X100581654Y-52929761D01*
X100581654Y-52929761D02*
X100612607Y-52960714D01*
X100612607Y-52960714D02*
X100674511Y-52991666D01*
X100674511Y-52991666D02*
X100767369Y-52991666D01*
X100767369Y-52991666D02*
X100829273Y-52960714D01*
X100829273Y-52960714D02*
X100860226Y-52929761D01*
X100860226Y-52929761D02*
X100891178Y-52867856D01*
X100891178Y-52867856D02*
X100891178Y-52620237D01*
X101200702Y-53610714D02*
X101200702Y-53239285D01*
X101200702Y-53424999D02*
X100550702Y-53424999D01*
X100550702Y-53424999D02*
X100643559Y-53363095D01*
X100643559Y-53363095D02*
X100705464Y-53301190D01*
X100705464Y-53301190D02*
X100736416Y-53239285D01*
%TO.C,C2*%
X101038797Y-55141666D02*
X101069750Y-55110714D01*
X101069750Y-55110714D02*
X101100702Y-55017856D01*
X101100702Y-55017856D02*
X101100702Y-54955952D01*
X101100702Y-54955952D02*
X101069750Y-54863095D01*
X101069750Y-54863095D02*
X101007845Y-54801190D01*
X101007845Y-54801190D02*
X100945940Y-54770237D01*
X100945940Y-54770237D02*
X100822130Y-54739285D01*
X100822130Y-54739285D02*
X100729273Y-54739285D01*
X100729273Y-54739285D02*
X100605464Y-54770237D01*
X100605464Y-54770237D02*
X100543559Y-54801190D01*
X100543559Y-54801190D02*
X100481654Y-54863095D01*
X100481654Y-54863095D02*
X100450702Y-54955952D01*
X100450702Y-54955952D02*
X100450702Y-55017856D01*
X100450702Y-55017856D02*
X100481654Y-55110714D01*
X100481654Y-55110714D02*
X100512607Y-55141666D01*
X100512607Y-55389285D02*
X100481654Y-55420237D01*
X100481654Y-55420237D02*
X100450702Y-55482142D01*
X100450702Y-55482142D02*
X100450702Y-55636904D01*
X100450702Y-55636904D02*
X100481654Y-55698809D01*
X100481654Y-55698809D02*
X100512607Y-55729761D01*
X100512607Y-55729761D02*
X100574511Y-55760714D01*
X100574511Y-55760714D02*
X100636416Y-55760714D01*
X100636416Y-55760714D02*
X100729273Y-55729761D01*
X100729273Y-55729761D02*
X101100702Y-55358333D01*
X101100702Y-55358333D02*
X101100702Y-55760714D01*
D12*
%TO.C,U1*%
X94900000Y-50240000D02*
X92950000Y-50240000D01*
X94900000Y-50240000D02*
X96850000Y-50240000D01*
X94900000Y-55360000D02*
X91450000Y-55360000D01*
X94900000Y-55360000D02*
X96850000Y-55360000D01*
%TO.C,J1*%
X92300000Y-63960000D02*
X92300000Y-65400000D01*
X99470000Y-65400000D02*
X99470000Y-70600000D01*
X98900000Y-65400000D02*
X99470000Y-65400000D01*
X96360000Y-65400000D02*
X97380000Y-65400000D01*
X93820000Y-65400000D02*
X94840000Y-65400000D01*
X91730000Y-65400000D02*
X92300000Y-65400000D01*
X91730000Y-65400000D02*
X91730000Y-70600000D01*
X98900000Y-70600000D02*
X99470000Y-70600000D01*
X96360000Y-70600000D02*
X97380000Y-70600000D01*
X93820000Y-70600000D02*
X94840000Y-70600000D01*
X91730000Y-70600000D02*
X92300000Y-70600000D01*
%TO.C,C1*%
X89600000Y-57900000D02*
X89600000Y-60100000D01*
X89600000Y-60100000D02*
X90400000Y-60100000D01*
X90400000Y-57200000D02*
X90400000Y-57900000D01*
X90400000Y-57900000D02*
X89600000Y-57900000D01*
X90400000Y-60100000D02*
X90400000Y-60700000D01*
X90400000Y-60700000D02*
X90400000Y-60800000D01*
X90400000Y-60800000D02*
X91600000Y-62000000D01*
X91600000Y-56000000D02*
X90400000Y-57200000D01*
X91600000Y-62000000D02*
X96400000Y-62000000D01*
X96400000Y-56000000D02*
X91600000Y-56000000D01*
X96400000Y-57900000D02*
X96400000Y-56000000D01*
X96400000Y-60100000D02*
X97200000Y-60100000D01*
X96400000Y-62000000D02*
X96400000Y-60100000D01*
X97200000Y-57900000D02*
X96400000Y-57900000D01*
X97200000Y-60100000D02*
X97200000Y-57900000D01*
D11*
%TO.C,R1*%
X100100000Y-53450000D02*
X100100000Y-51750000D01*
X98700000Y-51750000D02*
X98700000Y-53450000D01*
D12*
%TO.C,C2*%
X100020000Y-55298031D02*
X100020000Y-55501969D01*
X98780000Y-55298031D02*
X98780000Y-55501969D01*
%TD*%
M02*
