%TF.GenerationSoftware,KiCad,Pcbnew,7.0.2.1-36-g582732918d-dirty-deb11*%
%TF.CreationDate,2023-05-29T10:57:50+00:00*%
%TF.ProjectId,pedalboard-led-ring,70656461-6c62-46f6-9172-642d6c65642d,1.0.0*%
%TF.SameCoordinates,Original*%
%TF.FileFunction,AssemblyDrawing,Bot*%
%FSLAX46Y46*%
G04 Gerber Fmt 4.6, Leading zero omitted, Abs format (unit mm)*
G04 Created by KiCad (PCBNEW 7.0.2.1-36-g582732918d-dirty-deb11) date 2023-05-29 10:57:50*
%MOMM*%
%LPD*%
G01*
G04 APERTURE LIST*
%ADD10C,0.150000*%
%ADD11C,0.120000*%
%ADD12C,0.075000*%
%ADD13C,0.080000*%
%ADD14C,0.100000*%
%ADD15C,0.127000*%
G04 APERTURE END LIST*
D10*
%TO.C,U1*%
X97995237Y-48862619D02*
X97423809Y-48862619D01*
X97709523Y-49862619D02*
X97709523Y-48862619D01*
X96614285Y-49862619D02*
X97090475Y-49862619D01*
X97090475Y-49862619D02*
X97090475Y-48862619D01*
X95709523Y-49767380D02*
X95757142Y-49815000D01*
X95757142Y-49815000D02*
X95899999Y-49862619D01*
X95899999Y-49862619D02*
X95995237Y-49862619D01*
X95995237Y-49862619D02*
X96138094Y-49815000D01*
X96138094Y-49815000D02*
X96233332Y-49719761D01*
X96233332Y-49719761D02*
X96280951Y-49624523D01*
X96280951Y-49624523D02*
X96328570Y-49434047D01*
X96328570Y-49434047D02*
X96328570Y-49291190D01*
X96328570Y-49291190D02*
X96280951Y-49100714D01*
X96280951Y-49100714D02*
X96233332Y-49005476D01*
X96233332Y-49005476D02*
X96138094Y-48910238D01*
X96138094Y-48910238D02*
X95995237Y-48862619D01*
X95995237Y-48862619D02*
X95899999Y-48862619D01*
X95899999Y-48862619D02*
X95757142Y-48910238D01*
X95757142Y-48910238D02*
X95709523Y-48957857D01*
X94804761Y-48862619D02*
X95280951Y-48862619D01*
X95280951Y-48862619D02*
X95328570Y-49338809D01*
X95328570Y-49338809D02*
X95280951Y-49291190D01*
X95280951Y-49291190D02*
X95185713Y-49243571D01*
X95185713Y-49243571D02*
X94947618Y-49243571D01*
X94947618Y-49243571D02*
X94852380Y-49291190D01*
X94852380Y-49291190D02*
X94804761Y-49338809D01*
X94804761Y-49338809D02*
X94757142Y-49434047D01*
X94757142Y-49434047D02*
X94757142Y-49672142D01*
X94757142Y-49672142D02*
X94804761Y-49767380D01*
X94804761Y-49767380D02*
X94852380Y-49815000D01*
X94852380Y-49815000D02*
X94947618Y-49862619D01*
X94947618Y-49862619D02*
X95185713Y-49862619D01*
X95185713Y-49862619D02*
X95280951Y-49815000D01*
X95280951Y-49815000D02*
X95328570Y-49767380D01*
X94280951Y-49862619D02*
X94090475Y-49862619D01*
X94090475Y-49862619D02*
X93995237Y-49815000D01*
X93995237Y-49815000D02*
X93947618Y-49767380D01*
X93947618Y-49767380D02*
X93852380Y-49624523D01*
X93852380Y-49624523D02*
X93804761Y-49434047D01*
X93804761Y-49434047D02*
X93804761Y-49053095D01*
X93804761Y-49053095D02*
X93852380Y-48957857D01*
X93852380Y-48957857D02*
X93899999Y-48910238D01*
X93899999Y-48910238D02*
X93995237Y-48862619D01*
X93995237Y-48862619D02*
X94185713Y-48862619D01*
X94185713Y-48862619D02*
X94280951Y-48910238D01*
X94280951Y-48910238D02*
X94328570Y-48957857D01*
X94328570Y-48957857D02*
X94376189Y-49053095D01*
X94376189Y-49053095D02*
X94376189Y-49291190D01*
X94376189Y-49291190D02*
X94328570Y-49386428D01*
X94328570Y-49386428D02*
X94280951Y-49434047D01*
X94280951Y-49434047D02*
X94185713Y-49481666D01*
X94185713Y-49481666D02*
X93995237Y-49481666D01*
X93995237Y-49481666D02*
X93899999Y-49434047D01*
X93899999Y-49434047D02*
X93852380Y-49386428D01*
X93852380Y-49386428D02*
X93804761Y-49291190D01*
X93471427Y-48862619D02*
X92804761Y-48862619D01*
X92804761Y-48862619D02*
X93233332Y-49862619D01*
X92519046Y-48862619D02*
X91899999Y-48862619D01*
X91899999Y-48862619D02*
X92233332Y-49243571D01*
X92233332Y-49243571D02*
X92090475Y-49243571D01*
X92090475Y-49243571D02*
X91995237Y-49291190D01*
X91995237Y-49291190D02*
X91947618Y-49338809D01*
X91947618Y-49338809D02*
X91899999Y-49434047D01*
X91899999Y-49434047D02*
X91899999Y-49672142D01*
X91899999Y-49672142D02*
X91947618Y-49767380D01*
X91947618Y-49767380D02*
X91995237Y-49815000D01*
X91995237Y-49815000D02*
X92090475Y-49862619D01*
X92090475Y-49862619D02*
X92376189Y-49862619D01*
X92376189Y-49862619D02*
X92471427Y-49815000D01*
X92471427Y-49815000D02*
X92519046Y-49767380D01*
X95646666Y-52273366D02*
X95646666Y-53066700D01*
X95646666Y-53066700D02*
X95600000Y-53160033D01*
X95600000Y-53160033D02*
X95553333Y-53206700D01*
X95553333Y-53206700D02*
X95460000Y-53253366D01*
X95460000Y-53253366D02*
X95273333Y-53253366D01*
X95273333Y-53253366D02*
X95180000Y-53206700D01*
X95180000Y-53206700D02*
X95133333Y-53160033D01*
X95133333Y-53160033D02*
X95086666Y-53066700D01*
X95086666Y-53066700D02*
X95086666Y-52273366D01*
X94106666Y-53253366D02*
X94666666Y-53253366D01*
X94386666Y-53253366D02*
X94386666Y-52273366D01*
X94386666Y-52273366D02*
X94479999Y-52413366D01*
X94479999Y-52413366D02*
X94573333Y-52506700D01*
X94573333Y-52506700D02*
X94666666Y-52553366D01*
%TO.C,L1*%
X97456666Y-65157619D02*
X98028094Y-65157619D01*
X97742380Y-65157619D02*
X97742380Y-64157619D01*
X97742380Y-64157619D02*
X97837618Y-64300476D01*
X97837618Y-64300476D02*
X97932856Y-64395714D01*
X97932856Y-64395714D02*
X98028094Y-64443333D01*
X96837618Y-64157619D02*
X96742380Y-64157619D01*
X96742380Y-64157619D02*
X96647142Y-64205238D01*
X96647142Y-64205238D02*
X96599523Y-64252857D01*
X96599523Y-64252857D02*
X96551904Y-64348095D01*
X96551904Y-64348095D02*
X96504285Y-64538571D01*
X96504285Y-64538571D02*
X96504285Y-64776666D01*
X96504285Y-64776666D02*
X96551904Y-64967142D01*
X96551904Y-64967142D02*
X96599523Y-65062380D01*
X96599523Y-65062380D02*
X96647142Y-65110000D01*
X96647142Y-65110000D02*
X96742380Y-65157619D01*
X96742380Y-65157619D02*
X96837618Y-65157619D01*
X96837618Y-65157619D02*
X96932856Y-65110000D01*
X96932856Y-65110000D02*
X96980475Y-65062380D01*
X96980475Y-65062380D02*
X97028094Y-64967142D01*
X97028094Y-64967142D02*
X97075713Y-64776666D01*
X97075713Y-64776666D02*
X97075713Y-64538571D01*
X97075713Y-64538571D02*
X97028094Y-64348095D01*
X97028094Y-64348095D02*
X96980475Y-64252857D01*
X96980475Y-64252857D02*
X96932856Y-64205238D01*
X96932856Y-64205238D02*
X96837618Y-64157619D01*
X95647142Y-64490952D02*
X95647142Y-65157619D01*
X96075713Y-64490952D02*
X96075713Y-65014761D01*
X96075713Y-65014761D02*
X96028094Y-65110000D01*
X96028094Y-65110000D02*
X95932856Y-65157619D01*
X95932856Y-65157619D02*
X95789999Y-65157619D01*
X95789999Y-65157619D02*
X95694761Y-65110000D01*
X95694761Y-65110000D02*
X95647142Y-65062380D01*
X95170951Y-65157619D02*
X95170951Y-64157619D01*
X95170951Y-64633809D02*
X94599523Y-64633809D01*
X94599523Y-65157619D02*
X94599523Y-64157619D01*
%TO.C,C1*%
X97828571Y-57307857D02*
X97780952Y-57260238D01*
X97780952Y-57260238D02*
X97685714Y-57212619D01*
X97685714Y-57212619D02*
X97447619Y-57212619D01*
X97447619Y-57212619D02*
X97352381Y-57260238D01*
X97352381Y-57260238D02*
X97304762Y-57307857D01*
X97304762Y-57307857D02*
X97257143Y-57403095D01*
X97257143Y-57403095D02*
X97257143Y-57498333D01*
X97257143Y-57498333D02*
X97304762Y-57641190D01*
X97304762Y-57641190D02*
X97876190Y-58212619D01*
X97876190Y-58212619D02*
X97257143Y-58212619D01*
X96828571Y-58117380D02*
X96780952Y-58165000D01*
X96780952Y-58165000D02*
X96828571Y-58212619D01*
X96828571Y-58212619D02*
X96876190Y-58165000D01*
X96876190Y-58165000D02*
X96828571Y-58117380D01*
X96828571Y-58117380D02*
X96828571Y-58212619D01*
X96400000Y-57307857D02*
X96352381Y-57260238D01*
X96352381Y-57260238D02*
X96257143Y-57212619D01*
X96257143Y-57212619D02*
X96019048Y-57212619D01*
X96019048Y-57212619D02*
X95923810Y-57260238D01*
X95923810Y-57260238D02*
X95876191Y-57307857D01*
X95876191Y-57307857D02*
X95828572Y-57403095D01*
X95828572Y-57403095D02*
X95828572Y-57498333D01*
X95828572Y-57498333D02*
X95876191Y-57641190D01*
X95876191Y-57641190D02*
X96447619Y-58212619D01*
X96447619Y-58212619D02*
X95828572Y-58212619D01*
X94971429Y-57545952D02*
X94971429Y-58212619D01*
X95400000Y-57545952D02*
X95400000Y-58069761D01*
X95400000Y-58069761D02*
X95352381Y-58165000D01*
X95352381Y-58165000D02*
X95257143Y-58212619D01*
X95257143Y-58212619D02*
X95114286Y-58212619D01*
X95114286Y-58212619D02*
X95019048Y-58165000D01*
X95019048Y-58165000D02*
X94971429Y-58117380D01*
X94161905Y-57688809D02*
X94495238Y-57688809D01*
X94495238Y-58212619D02*
X94495238Y-57212619D01*
X94495238Y-57212619D02*
X94019048Y-57212619D01*
X93876191Y-58307857D02*
X93114286Y-58307857D01*
X92685714Y-57212619D02*
X92590476Y-57212619D01*
X92590476Y-57212619D02*
X92495238Y-57260238D01*
X92495238Y-57260238D02*
X92447619Y-57307857D01*
X92447619Y-57307857D02*
X92400000Y-57403095D01*
X92400000Y-57403095D02*
X92352381Y-57593571D01*
X92352381Y-57593571D02*
X92352381Y-57831666D01*
X92352381Y-57831666D02*
X92400000Y-58022142D01*
X92400000Y-58022142D02*
X92447619Y-58117380D01*
X92447619Y-58117380D02*
X92495238Y-58165000D01*
X92495238Y-58165000D02*
X92590476Y-58212619D01*
X92590476Y-58212619D02*
X92685714Y-58212619D01*
X92685714Y-58212619D02*
X92780952Y-58165000D01*
X92780952Y-58165000D02*
X92828571Y-58117380D01*
X92828571Y-58117380D02*
X92876190Y-58022142D01*
X92876190Y-58022142D02*
X92923809Y-57831666D01*
X92923809Y-57831666D02*
X92923809Y-57593571D01*
X92923809Y-57593571D02*
X92876190Y-57403095D01*
X92876190Y-57403095D02*
X92828571Y-57307857D01*
X92828571Y-57307857D02*
X92780952Y-57260238D01*
X92780952Y-57260238D02*
X92685714Y-57212619D01*
X91495238Y-57212619D02*
X91685714Y-57212619D01*
X91685714Y-57212619D02*
X91780952Y-57260238D01*
X91780952Y-57260238D02*
X91828571Y-57307857D01*
X91828571Y-57307857D02*
X91923809Y-57450714D01*
X91923809Y-57450714D02*
X91971428Y-57641190D01*
X91971428Y-57641190D02*
X91971428Y-58022142D01*
X91971428Y-58022142D02*
X91923809Y-58117380D01*
X91923809Y-58117380D02*
X91876190Y-58165000D01*
X91876190Y-58165000D02*
X91780952Y-58212619D01*
X91780952Y-58212619D02*
X91590476Y-58212619D01*
X91590476Y-58212619D02*
X91495238Y-58165000D01*
X91495238Y-58165000D02*
X91447619Y-58117380D01*
X91447619Y-58117380D02*
X91400000Y-58022142D01*
X91400000Y-58022142D02*
X91400000Y-57784047D01*
X91400000Y-57784047D02*
X91447619Y-57688809D01*
X91447619Y-57688809D02*
X91495238Y-57641190D01*
X91495238Y-57641190D02*
X91590476Y-57593571D01*
X91590476Y-57593571D02*
X91780952Y-57593571D01*
X91780952Y-57593571D02*
X91876190Y-57641190D01*
X91876190Y-57641190D02*
X91923809Y-57688809D01*
X91923809Y-57688809D02*
X91971428Y-57784047D01*
X90780952Y-57212619D02*
X90685714Y-57212619D01*
X90685714Y-57212619D02*
X90590476Y-57260238D01*
X90590476Y-57260238D02*
X90542857Y-57307857D01*
X90542857Y-57307857D02*
X90495238Y-57403095D01*
X90495238Y-57403095D02*
X90447619Y-57593571D01*
X90447619Y-57593571D02*
X90447619Y-57831666D01*
X90447619Y-57831666D02*
X90495238Y-58022142D01*
X90495238Y-58022142D02*
X90542857Y-58117380D01*
X90542857Y-58117380D02*
X90590476Y-58165000D01*
X90590476Y-58165000D02*
X90685714Y-58212619D01*
X90685714Y-58212619D02*
X90780952Y-58212619D01*
X90780952Y-58212619D02*
X90876190Y-58165000D01*
X90876190Y-58165000D02*
X90923809Y-58117380D01*
X90923809Y-58117380D02*
X90971428Y-58022142D01*
X90971428Y-58022142D02*
X91019047Y-57831666D01*
X91019047Y-57831666D02*
X91019047Y-57593571D01*
X91019047Y-57593571D02*
X90971428Y-57403095D01*
X90971428Y-57403095D02*
X90923809Y-57307857D01*
X90923809Y-57307857D02*
X90876190Y-57260238D01*
X90876190Y-57260238D02*
X90780952Y-57212619D01*
X90114285Y-57212619D02*
X89495238Y-57212619D01*
X89495238Y-57212619D02*
X89828571Y-57593571D01*
X89828571Y-57593571D02*
X89685714Y-57593571D01*
X89685714Y-57593571D02*
X89590476Y-57641190D01*
X89590476Y-57641190D02*
X89542857Y-57688809D01*
X89542857Y-57688809D02*
X89495238Y-57784047D01*
X89495238Y-57784047D02*
X89495238Y-58022142D01*
X89495238Y-58022142D02*
X89542857Y-58117380D01*
X89542857Y-58117380D02*
X89590476Y-58165000D01*
X89590476Y-58165000D02*
X89685714Y-58212619D01*
X89685714Y-58212619D02*
X89971428Y-58212619D01*
X89971428Y-58212619D02*
X90066666Y-58165000D01*
X90066666Y-58165000D02*
X90114285Y-58117380D01*
X89304762Y-58307857D02*
X88542857Y-58307857D01*
X88352380Y-57307857D02*
X88304761Y-57260238D01*
X88304761Y-57260238D02*
X88209523Y-57212619D01*
X88209523Y-57212619D02*
X87971428Y-57212619D01*
X87971428Y-57212619D02*
X87876190Y-57260238D01*
X87876190Y-57260238D02*
X87828571Y-57307857D01*
X87828571Y-57307857D02*
X87780952Y-57403095D01*
X87780952Y-57403095D02*
X87780952Y-57498333D01*
X87780952Y-57498333D02*
X87828571Y-57641190D01*
X87828571Y-57641190D02*
X88399999Y-58212619D01*
X88399999Y-58212619D02*
X87780952Y-58212619D01*
X86876190Y-57212619D02*
X87352380Y-57212619D01*
X87352380Y-57212619D02*
X87399999Y-57688809D01*
X87399999Y-57688809D02*
X87352380Y-57641190D01*
X87352380Y-57641190D02*
X87257142Y-57593571D01*
X87257142Y-57593571D02*
X87019047Y-57593571D01*
X87019047Y-57593571D02*
X86923809Y-57641190D01*
X86923809Y-57641190D02*
X86876190Y-57688809D01*
X86876190Y-57688809D02*
X86828571Y-57784047D01*
X86828571Y-57784047D02*
X86828571Y-58022142D01*
X86828571Y-58022142D02*
X86876190Y-58117380D01*
X86876190Y-58117380D02*
X86923809Y-58165000D01*
X86923809Y-58165000D02*
X87019047Y-58212619D01*
X87019047Y-58212619D02*
X87257142Y-58212619D01*
X87257142Y-58212619D02*
X87352380Y-58165000D01*
X87352380Y-58165000D02*
X87399999Y-58117380D01*
X86542856Y-57212619D02*
X86209523Y-58212619D01*
X86209523Y-58212619D02*
X85876190Y-57212619D01*
D11*
X92033332Y-59893904D02*
X92071428Y-59932000D01*
X92071428Y-59932000D02*
X92185713Y-59970095D01*
X92185713Y-59970095D02*
X92261904Y-59970095D01*
X92261904Y-59970095D02*
X92376190Y-59932000D01*
X92376190Y-59932000D02*
X92452380Y-59855809D01*
X92452380Y-59855809D02*
X92490475Y-59779619D01*
X92490475Y-59779619D02*
X92528571Y-59627238D01*
X92528571Y-59627238D02*
X92528571Y-59512952D01*
X92528571Y-59512952D02*
X92490475Y-59360571D01*
X92490475Y-59360571D02*
X92452380Y-59284380D01*
X92452380Y-59284380D02*
X92376190Y-59208190D01*
X92376190Y-59208190D02*
X92261904Y-59170095D01*
X92261904Y-59170095D02*
X92185713Y-59170095D01*
X92185713Y-59170095D02*
X92071428Y-59208190D01*
X92071428Y-59208190D02*
X92033332Y-59246285D01*
X91271428Y-59970095D02*
X91728571Y-59970095D01*
X91499999Y-59970095D02*
X91499999Y-59170095D01*
X91499999Y-59170095D02*
X91576190Y-59284380D01*
X91576190Y-59284380D02*
X91652380Y-59360571D01*
X91652380Y-59360571D02*
X91728571Y-59398666D01*
D10*
%TO.C,J1*%
X102177380Y-64261904D02*
X102225000Y-64214285D01*
X102225000Y-64214285D02*
X102272619Y-64071428D01*
X102272619Y-64071428D02*
X102272619Y-63976190D01*
X102272619Y-63976190D02*
X102225000Y-63833333D01*
X102225000Y-63833333D02*
X102129761Y-63738095D01*
X102129761Y-63738095D02*
X102034523Y-63690476D01*
X102034523Y-63690476D02*
X101844047Y-63642857D01*
X101844047Y-63642857D02*
X101701190Y-63642857D01*
X101701190Y-63642857D02*
X101510714Y-63690476D01*
X101510714Y-63690476D02*
X101415476Y-63738095D01*
X101415476Y-63738095D02*
X101320238Y-63833333D01*
X101320238Y-63833333D02*
X101272619Y-63976190D01*
X101272619Y-63976190D02*
X101272619Y-64071428D01*
X101272619Y-64071428D02*
X101320238Y-64214285D01*
X101320238Y-64214285D02*
X101367857Y-64261904D01*
X102272619Y-64833333D02*
X102225000Y-64738095D01*
X102225000Y-64738095D02*
X102177380Y-64690476D01*
X102177380Y-64690476D02*
X102082142Y-64642857D01*
X102082142Y-64642857D02*
X101796428Y-64642857D01*
X101796428Y-64642857D02*
X101701190Y-64690476D01*
X101701190Y-64690476D02*
X101653571Y-64738095D01*
X101653571Y-64738095D02*
X101605952Y-64833333D01*
X101605952Y-64833333D02*
X101605952Y-64976190D01*
X101605952Y-64976190D02*
X101653571Y-65071428D01*
X101653571Y-65071428D02*
X101701190Y-65119047D01*
X101701190Y-65119047D02*
X101796428Y-65166666D01*
X101796428Y-65166666D02*
X102082142Y-65166666D01*
X102082142Y-65166666D02*
X102177380Y-65119047D01*
X102177380Y-65119047D02*
X102225000Y-65071428D01*
X102225000Y-65071428D02*
X102272619Y-64976190D01*
X102272619Y-64976190D02*
X102272619Y-64833333D01*
X101605952Y-65595238D02*
X102272619Y-65595238D01*
X101701190Y-65595238D02*
X101653571Y-65642857D01*
X101653571Y-65642857D02*
X101605952Y-65738095D01*
X101605952Y-65738095D02*
X101605952Y-65880952D01*
X101605952Y-65880952D02*
X101653571Y-65976190D01*
X101653571Y-65976190D02*
X101748809Y-66023809D01*
X101748809Y-66023809D02*
X102272619Y-66023809D01*
X101605952Y-66500000D02*
X102272619Y-66500000D01*
X101701190Y-66500000D02*
X101653571Y-66547619D01*
X101653571Y-66547619D02*
X101605952Y-66642857D01*
X101605952Y-66642857D02*
X101605952Y-66785714D01*
X101605952Y-66785714D02*
X101653571Y-66880952D01*
X101653571Y-66880952D02*
X101748809Y-66928571D01*
X101748809Y-66928571D02*
X102272619Y-66928571D01*
X102367857Y-67166667D02*
X102367857Y-67928571D01*
X101272619Y-68357143D02*
X101272619Y-68452381D01*
X101272619Y-68452381D02*
X101320238Y-68547619D01*
X101320238Y-68547619D02*
X101367857Y-68595238D01*
X101367857Y-68595238D02*
X101463095Y-68642857D01*
X101463095Y-68642857D02*
X101653571Y-68690476D01*
X101653571Y-68690476D02*
X101891666Y-68690476D01*
X101891666Y-68690476D02*
X102082142Y-68642857D01*
X102082142Y-68642857D02*
X102177380Y-68595238D01*
X102177380Y-68595238D02*
X102225000Y-68547619D01*
X102225000Y-68547619D02*
X102272619Y-68452381D01*
X102272619Y-68452381D02*
X102272619Y-68357143D01*
X102272619Y-68357143D02*
X102225000Y-68261905D01*
X102225000Y-68261905D02*
X102177380Y-68214286D01*
X102177380Y-68214286D02*
X102082142Y-68166667D01*
X102082142Y-68166667D02*
X101891666Y-68119048D01*
X101891666Y-68119048D02*
X101653571Y-68119048D01*
X101653571Y-68119048D02*
X101463095Y-68166667D01*
X101463095Y-68166667D02*
X101367857Y-68214286D01*
X101367857Y-68214286D02*
X101320238Y-68261905D01*
X101320238Y-68261905D02*
X101272619Y-68357143D01*
X101367857Y-69071429D02*
X101320238Y-69119048D01*
X101320238Y-69119048D02*
X101272619Y-69214286D01*
X101272619Y-69214286D02*
X101272619Y-69452381D01*
X101272619Y-69452381D02*
X101320238Y-69547619D01*
X101320238Y-69547619D02*
X101367857Y-69595238D01*
X101367857Y-69595238D02*
X101463095Y-69642857D01*
X101463095Y-69642857D02*
X101558333Y-69642857D01*
X101558333Y-69642857D02*
X101701190Y-69595238D01*
X101701190Y-69595238D02*
X102272619Y-69023810D01*
X102272619Y-69023810D02*
X102272619Y-69642857D01*
X102272619Y-69976191D02*
X101605952Y-70500000D01*
X101605952Y-69976191D02*
X102272619Y-70500000D01*
X101272619Y-71071429D02*
X101272619Y-71166667D01*
X101272619Y-71166667D02*
X101320238Y-71261905D01*
X101320238Y-71261905D02*
X101367857Y-71309524D01*
X101367857Y-71309524D02*
X101463095Y-71357143D01*
X101463095Y-71357143D02*
X101653571Y-71404762D01*
X101653571Y-71404762D02*
X101891666Y-71404762D01*
X101891666Y-71404762D02*
X102082142Y-71357143D01*
X102082142Y-71357143D02*
X102177380Y-71309524D01*
X102177380Y-71309524D02*
X102225000Y-71261905D01*
X102225000Y-71261905D02*
X102272619Y-71166667D01*
X102272619Y-71166667D02*
X102272619Y-71071429D01*
X102272619Y-71071429D02*
X102225000Y-70976191D01*
X102225000Y-70976191D02*
X102177380Y-70928572D01*
X102177380Y-70928572D02*
X102082142Y-70880953D01*
X102082142Y-70880953D02*
X101891666Y-70833334D01*
X101891666Y-70833334D02*
X101653571Y-70833334D01*
X101653571Y-70833334D02*
X101463095Y-70880953D01*
X101463095Y-70880953D02*
X101367857Y-70928572D01*
X101367857Y-70928572D02*
X101320238Y-70976191D01*
X101320238Y-70976191D02*
X101272619Y-71071429D01*
X101272619Y-71738096D02*
X101272619Y-72357143D01*
X101272619Y-72357143D02*
X101653571Y-72023810D01*
X101653571Y-72023810D02*
X101653571Y-72166667D01*
X101653571Y-72166667D02*
X101701190Y-72261905D01*
X101701190Y-72261905D02*
X101748809Y-72309524D01*
X101748809Y-72309524D02*
X101844047Y-72357143D01*
X101844047Y-72357143D02*
X102082142Y-72357143D01*
X102082142Y-72357143D02*
X102177380Y-72309524D01*
X102177380Y-72309524D02*
X102225000Y-72261905D01*
X102225000Y-72261905D02*
X102272619Y-72166667D01*
X102272619Y-72166667D02*
X102272619Y-71880953D01*
X102272619Y-71880953D02*
X102225000Y-71785715D01*
X102225000Y-71785715D02*
X102177380Y-71738096D01*
X96833333Y-67462619D02*
X96833333Y-68176904D01*
X96833333Y-68176904D02*
X96880952Y-68319761D01*
X96880952Y-68319761D02*
X96976190Y-68415000D01*
X96976190Y-68415000D02*
X97119047Y-68462619D01*
X97119047Y-68462619D02*
X97214285Y-68462619D01*
X95833333Y-68462619D02*
X96404761Y-68462619D01*
X96119047Y-68462619D02*
X96119047Y-67462619D01*
X96119047Y-67462619D02*
X96214285Y-67605476D01*
X96214285Y-67605476D02*
X96309523Y-67700714D01*
X96309523Y-67700714D02*
X96404761Y-67748333D01*
%TO.C,U2*%
X92185714Y-75012619D02*
X92661904Y-75012619D01*
X92661904Y-75012619D02*
X92661904Y-74012619D01*
X91995237Y-74012619D02*
X91423809Y-74012619D01*
X91709523Y-75012619D02*
X91709523Y-74012619D01*
X91185713Y-74012619D02*
X90566666Y-74012619D01*
X90566666Y-74012619D02*
X90899999Y-74393571D01*
X90899999Y-74393571D02*
X90757142Y-74393571D01*
X90757142Y-74393571D02*
X90661904Y-74441190D01*
X90661904Y-74441190D02*
X90614285Y-74488809D01*
X90614285Y-74488809D02*
X90566666Y-74584047D01*
X90566666Y-74584047D02*
X90566666Y-74822142D01*
X90566666Y-74822142D02*
X90614285Y-74917380D01*
X90614285Y-74917380D02*
X90661904Y-74965000D01*
X90661904Y-74965000D02*
X90757142Y-75012619D01*
X90757142Y-75012619D02*
X91042856Y-75012619D01*
X91042856Y-75012619D02*
X91138094Y-74965000D01*
X91138094Y-74965000D02*
X91185713Y-74917380D01*
X89709523Y-74345952D02*
X89709523Y-75012619D01*
X89947618Y-73965000D02*
X90185713Y-74679285D01*
X90185713Y-74679285D02*
X89566666Y-74679285D01*
X89138094Y-75012619D02*
X88947618Y-75012619D01*
X88947618Y-75012619D02*
X88852380Y-74965000D01*
X88852380Y-74965000D02*
X88804761Y-74917380D01*
X88804761Y-74917380D02*
X88709523Y-74774523D01*
X88709523Y-74774523D02*
X88661904Y-74584047D01*
X88661904Y-74584047D02*
X88661904Y-74203095D01*
X88661904Y-74203095D02*
X88709523Y-74107857D01*
X88709523Y-74107857D02*
X88757142Y-74060238D01*
X88757142Y-74060238D02*
X88852380Y-74012619D01*
X88852380Y-74012619D02*
X89042856Y-74012619D01*
X89042856Y-74012619D02*
X89138094Y-74060238D01*
X89138094Y-74060238D02*
X89185713Y-74107857D01*
X89185713Y-74107857D02*
X89233332Y-74203095D01*
X89233332Y-74203095D02*
X89233332Y-74441190D01*
X89233332Y-74441190D02*
X89185713Y-74536428D01*
X89185713Y-74536428D02*
X89138094Y-74584047D01*
X89138094Y-74584047D02*
X89042856Y-74631666D01*
X89042856Y-74631666D02*
X88852380Y-74631666D01*
X88852380Y-74631666D02*
X88757142Y-74584047D01*
X88757142Y-74584047D02*
X88709523Y-74536428D01*
X88709523Y-74536428D02*
X88661904Y-74441190D01*
X87804761Y-74345952D02*
X87804761Y-75012619D01*
X88042856Y-73965000D02*
X88280951Y-74679285D01*
X88280951Y-74679285D02*
X87661904Y-74679285D01*
X87328570Y-74726904D02*
X86852380Y-74726904D01*
X87423808Y-75012619D02*
X87090475Y-74012619D01*
X87090475Y-74012619D02*
X86757142Y-75012619D01*
X86423808Y-74488809D02*
X86090475Y-74488809D01*
X85947618Y-75012619D02*
X86423808Y-75012619D01*
X86423808Y-75012619D02*
X86423808Y-74012619D01*
X86423808Y-74012619D02*
X85947618Y-74012619D01*
X85519046Y-75012619D02*
X85519046Y-74012619D01*
X85519046Y-74012619D02*
X85280951Y-74012619D01*
X85280951Y-74012619D02*
X85138094Y-74060238D01*
X85138094Y-74060238D02*
X85042856Y-74155476D01*
X85042856Y-74155476D02*
X84995237Y-74250714D01*
X84995237Y-74250714D02*
X84947618Y-74441190D01*
X84947618Y-74441190D02*
X84947618Y-74584047D01*
X84947618Y-74584047D02*
X84995237Y-74774523D01*
X84995237Y-74774523D02*
X85042856Y-74869761D01*
X85042856Y-74869761D02*
X85138094Y-74965000D01*
X85138094Y-74965000D02*
X85280951Y-75012619D01*
X85280951Y-75012619D02*
X85519046Y-75012619D01*
X84519046Y-75012619D02*
X84519046Y-74012619D01*
X84519046Y-74012619D02*
X84280951Y-74012619D01*
X84280951Y-74012619D02*
X84138094Y-74060238D01*
X84138094Y-74060238D02*
X84042856Y-74155476D01*
X84042856Y-74155476D02*
X83995237Y-74250714D01*
X83995237Y-74250714D02*
X83947618Y-74441190D01*
X83947618Y-74441190D02*
X83947618Y-74584047D01*
X83947618Y-74584047D02*
X83995237Y-74774523D01*
X83995237Y-74774523D02*
X84042856Y-74869761D01*
X84042856Y-74869761D02*
X84138094Y-74965000D01*
X84138094Y-74965000D02*
X84280951Y-75012619D01*
X84280951Y-75012619D02*
X84519046Y-75012619D01*
X83185713Y-74488809D02*
X83042856Y-74536428D01*
X83042856Y-74536428D02*
X82995237Y-74584047D01*
X82995237Y-74584047D02*
X82947618Y-74679285D01*
X82947618Y-74679285D02*
X82947618Y-74822142D01*
X82947618Y-74822142D02*
X82995237Y-74917380D01*
X82995237Y-74917380D02*
X83042856Y-74965000D01*
X83042856Y-74965000D02*
X83138094Y-75012619D01*
X83138094Y-75012619D02*
X83519046Y-75012619D01*
X83519046Y-75012619D02*
X83519046Y-74012619D01*
X83519046Y-74012619D02*
X83185713Y-74012619D01*
X83185713Y-74012619D02*
X83090475Y-74060238D01*
X83090475Y-74060238D02*
X83042856Y-74107857D01*
X83042856Y-74107857D02*
X82995237Y-74203095D01*
X82995237Y-74203095D02*
X82995237Y-74298333D01*
X82995237Y-74298333D02*
X83042856Y-74393571D01*
X83042856Y-74393571D02*
X83090475Y-74441190D01*
X83090475Y-74441190D02*
X83185713Y-74488809D01*
X83185713Y-74488809D02*
X83519046Y-74488809D01*
X82519046Y-75012619D02*
X82519046Y-74012619D01*
X82519046Y-74012619D02*
X82138094Y-74012619D01*
X82138094Y-74012619D02*
X82042856Y-74060238D01*
X82042856Y-74060238D02*
X81995237Y-74107857D01*
X81995237Y-74107857D02*
X81947618Y-74203095D01*
X81947618Y-74203095D02*
X81947618Y-74345952D01*
X81947618Y-74345952D02*
X81995237Y-74441190D01*
X81995237Y-74441190D02*
X82042856Y-74488809D01*
X82042856Y-74488809D02*
X82138094Y-74536428D01*
X82138094Y-74536428D02*
X82519046Y-74536428D01*
X81185713Y-74488809D02*
X81042856Y-74536428D01*
X81042856Y-74536428D02*
X80995237Y-74584047D01*
X80995237Y-74584047D02*
X80947618Y-74679285D01*
X80947618Y-74679285D02*
X80947618Y-74822142D01*
X80947618Y-74822142D02*
X80995237Y-74917380D01*
X80995237Y-74917380D02*
X81042856Y-74965000D01*
X81042856Y-74965000D02*
X81138094Y-75012619D01*
X81138094Y-75012619D02*
X81519046Y-75012619D01*
X81519046Y-75012619D02*
X81519046Y-74012619D01*
X81519046Y-74012619D02*
X81185713Y-74012619D01*
X81185713Y-74012619D02*
X81090475Y-74060238D01*
X81090475Y-74060238D02*
X81042856Y-74107857D01*
X81042856Y-74107857D02*
X80995237Y-74203095D01*
X80995237Y-74203095D02*
X80995237Y-74298333D01*
X80995237Y-74298333D02*
X81042856Y-74393571D01*
X81042856Y-74393571D02*
X81090475Y-74441190D01*
X81090475Y-74441190D02*
X81185713Y-74488809D01*
X81185713Y-74488809D02*
X81519046Y-74488809D01*
X80185713Y-74488809D02*
X80519046Y-74488809D01*
X80519046Y-75012619D02*
X80519046Y-74012619D01*
X80519046Y-74012619D02*
X80042856Y-74012619D01*
D12*
X86131309Y-71619047D02*
X86536071Y-71619047D01*
X86536071Y-71619047D02*
X86583690Y-71642857D01*
X86583690Y-71642857D02*
X86607500Y-71666666D01*
X86607500Y-71666666D02*
X86631309Y-71714285D01*
X86631309Y-71714285D02*
X86631309Y-71809523D01*
X86631309Y-71809523D02*
X86607500Y-71857142D01*
X86607500Y-71857142D02*
X86583690Y-71880952D01*
X86583690Y-71880952D02*
X86536071Y-71904761D01*
X86536071Y-71904761D02*
X86131309Y-71904761D01*
X86178928Y-72119048D02*
X86155119Y-72142857D01*
X86155119Y-72142857D02*
X86131309Y-72190476D01*
X86131309Y-72190476D02*
X86131309Y-72309524D01*
X86131309Y-72309524D02*
X86155119Y-72357143D01*
X86155119Y-72357143D02*
X86178928Y-72380952D01*
X86178928Y-72380952D02*
X86226547Y-72404762D01*
X86226547Y-72404762D02*
X86274166Y-72404762D01*
X86274166Y-72404762D02*
X86345595Y-72380952D01*
X86345595Y-72380952D02*
X86631309Y-72095238D01*
X86631309Y-72095238D02*
X86631309Y-72404762D01*
D10*
%TO.C,C2*%
X98942619Y-55333333D02*
X98942619Y-55952380D01*
X98942619Y-55952380D02*
X99323571Y-55619047D01*
X99323571Y-55619047D02*
X99323571Y-55761904D01*
X99323571Y-55761904D02*
X99371190Y-55857142D01*
X99371190Y-55857142D02*
X99418809Y-55904761D01*
X99418809Y-55904761D02*
X99514047Y-55952380D01*
X99514047Y-55952380D02*
X99752142Y-55952380D01*
X99752142Y-55952380D02*
X99847380Y-55904761D01*
X99847380Y-55904761D02*
X99895000Y-55857142D01*
X99895000Y-55857142D02*
X99942619Y-55761904D01*
X99942619Y-55761904D02*
X99942619Y-55476190D01*
X99942619Y-55476190D02*
X99895000Y-55380952D01*
X99895000Y-55380952D02*
X99847380Y-55333333D01*
X98942619Y-56285714D02*
X98942619Y-56904761D01*
X98942619Y-56904761D02*
X99323571Y-56571428D01*
X99323571Y-56571428D02*
X99323571Y-56714285D01*
X99323571Y-56714285D02*
X99371190Y-56809523D01*
X99371190Y-56809523D02*
X99418809Y-56857142D01*
X99418809Y-56857142D02*
X99514047Y-56904761D01*
X99514047Y-56904761D02*
X99752142Y-56904761D01*
X99752142Y-56904761D02*
X99847380Y-56857142D01*
X99847380Y-56857142D02*
X99895000Y-56809523D01*
X99895000Y-56809523D02*
X99942619Y-56714285D01*
X99942619Y-56714285D02*
X99942619Y-56428571D01*
X99942619Y-56428571D02*
X99895000Y-56333333D01*
X99895000Y-56333333D02*
X99847380Y-56285714D01*
X98942619Y-57523809D02*
X98942619Y-57619047D01*
X98942619Y-57619047D02*
X98990238Y-57714285D01*
X98990238Y-57714285D02*
X99037857Y-57761904D01*
X99037857Y-57761904D02*
X99133095Y-57809523D01*
X99133095Y-57809523D02*
X99323571Y-57857142D01*
X99323571Y-57857142D02*
X99561666Y-57857142D01*
X99561666Y-57857142D02*
X99752142Y-57809523D01*
X99752142Y-57809523D02*
X99847380Y-57761904D01*
X99847380Y-57761904D02*
X99895000Y-57714285D01*
X99895000Y-57714285D02*
X99942619Y-57619047D01*
X99942619Y-57619047D02*
X99942619Y-57523809D01*
X99942619Y-57523809D02*
X99895000Y-57428571D01*
X99895000Y-57428571D02*
X99847380Y-57380952D01*
X99847380Y-57380952D02*
X99752142Y-57333333D01*
X99752142Y-57333333D02*
X99561666Y-57285714D01*
X99561666Y-57285714D02*
X99323571Y-57285714D01*
X99323571Y-57285714D02*
X99133095Y-57333333D01*
X99133095Y-57333333D02*
X99037857Y-57380952D01*
X99037857Y-57380952D02*
X98990238Y-57428571D01*
X98990238Y-57428571D02*
X98942619Y-57523809D01*
X99275952Y-58285714D02*
X99942619Y-58285714D01*
X99371190Y-58285714D02*
X99323571Y-58333333D01*
X99323571Y-58333333D02*
X99275952Y-58428571D01*
X99275952Y-58428571D02*
X99275952Y-58571428D01*
X99275952Y-58571428D02*
X99323571Y-58666666D01*
X99323571Y-58666666D02*
X99418809Y-58714285D01*
X99418809Y-58714285D02*
X99942619Y-58714285D01*
X99418809Y-59523809D02*
X99418809Y-59190476D01*
X99942619Y-59190476D02*
X98942619Y-59190476D01*
X98942619Y-59190476D02*
X98942619Y-59666666D01*
D13*
X97983690Y-57416666D02*
X98007500Y-57392857D01*
X98007500Y-57392857D02*
X98031309Y-57321428D01*
X98031309Y-57321428D02*
X98031309Y-57273809D01*
X98031309Y-57273809D02*
X98007500Y-57202381D01*
X98007500Y-57202381D02*
X97959880Y-57154762D01*
X97959880Y-57154762D02*
X97912261Y-57130952D01*
X97912261Y-57130952D02*
X97817023Y-57107143D01*
X97817023Y-57107143D02*
X97745595Y-57107143D01*
X97745595Y-57107143D02*
X97650357Y-57130952D01*
X97650357Y-57130952D02*
X97602738Y-57154762D01*
X97602738Y-57154762D02*
X97555119Y-57202381D01*
X97555119Y-57202381D02*
X97531309Y-57273809D01*
X97531309Y-57273809D02*
X97531309Y-57321428D01*
X97531309Y-57321428D02*
X97555119Y-57392857D01*
X97555119Y-57392857D02*
X97578928Y-57416666D01*
X97578928Y-57607143D02*
X97555119Y-57630952D01*
X97555119Y-57630952D02*
X97531309Y-57678571D01*
X97531309Y-57678571D02*
X97531309Y-57797619D01*
X97531309Y-57797619D02*
X97555119Y-57845238D01*
X97555119Y-57845238D02*
X97578928Y-57869047D01*
X97578928Y-57869047D02*
X97626547Y-57892857D01*
X97626547Y-57892857D02*
X97674166Y-57892857D01*
X97674166Y-57892857D02*
X97745595Y-57869047D01*
X97745595Y-57869047D02*
X98031309Y-57583333D01*
X98031309Y-57583333D02*
X98031309Y-57892857D01*
D10*
%TO.C,C4*%
X85066666Y-70442619D02*
X84447619Y-70442619D01*
X84447619Y-70442619D02*
X84780952Y-70823571D01*
X84780952Y-70823571D02*
X84638095Y-70823571D01*
X84638095Y-70823571D02*
X84542857Y-70871190D01*
X84542857Y-70871190D02*
X84495238Y-70918809D01*
X84495238Y-70918809D02*
X84447619Y-71014047D01*
X84447619Y-71014047D02*
X84447619Y-71252142D01*
X84447619Y-71252142D02*
X84495238Y-71347380D01*
X84495238Y-71347380D02*
X84542857Y-71395000D01*
X84542857Y-71395000D02*
X84638095Y-71442619D01*
X84638095Y-71442619D02*
X84923809Y-71442619D01*
X84923809Y-71442619D02*
X85019047Y-71395000D01*
X85019047Y-71395000D02*
X85066666Y-71347380D01*
X84114285Y-70442619D02*
X83495238Y-70442619D01*
X83495238Y-70442619D02*
X83828571Y-70823571D01*
X83828571Y-70823571D02*
X83685714Y-70823571D01*
X83685714Y-70823571D02*
X83590476Y-70871190D01*
X83590476Y-70871190D02*
X83542857Y-70918809D01*
X83542857Y-70918809D02*
X83495238Y-71014047D01*
X83495238Y-71014047D02*
X83495238Y-71252142D01*
X83495238Y-71252142D02*
X83542857Y-71347380D01*
X83542857Y-71347380D02*
X83590476Y-71395000D01*
X83590476Y-71395000D02*
X83685714Y-71442619D01*
X83685714Y-71442619D02*
X83971428Y-71442619D01*
X83971428Y-71442619D02*
X84066666Y-71395000D01*
X84066666Y-71395000D02*
X84114285Y-71347380D01*
X82876190Y-70442619D02*
X82780952Y-70442619D01*
X82780952Y-70442619D02*
X82685714Y-70490238D01*
X82685714Y-70490238D02*
X82638095Y-70537857D01*
X82638095Y-70537857D02*
X82590476Y-70633095D01*
X82590476Y-70633095D02*
X82542857Y-70823571D01*
X82542857Y-70823571D02*
X82542857Y-71061666D01*
X82542857Y-71061666D02*
X82590476Y-71252142D01*
X82590476Y-71252142D02*
X82638095Y-71347380D01*
X82638095Y-71347380D02*
X82685714Y-71395000D01*
X82685714Y-71395000D02*
X82780952Y-71442619D01*
X82780952Y-71442619D02*
X82876190Y-71442619D01*
X82876190Y-71442619D02*
X82971428Y-71395000D01*
X82971428Y-71395000D02*
X83019047Y-71347380D01*
X83019047Y-71347380D02*
X83066666Y-71252142D01*
X83066666Y-71252142D02*
X83114285Y-71061666D01*
X83114285Y-71061666D02*
X83114285Y-70823571D01*
X83114285Y-70823571D02*
X83066666Y-70633095D01*
X83066666Y-70633095D02*
X83019047Y-70537857D01*
X83019047Y-70537857D02*
X82971428Y-70490238D01*
X82971428Y-70490238D02*
X82876190Y-70442619D01*
X82114285Y-70775952D02*
X82114285Y-71442619D01*
X82114285Y-70871190D02*
X82066666Y-70823571D01*
X82066666Y-70823571D02*
X81971428Y-70775952D01*
X81971428Y-70775952D02*
X81828571Y-70775952D01*
X81828571Y-70775952D02*
X81733333Y-70823571D01*
X81733333Y-70823571D02*
X81685714Y-70918809D01*
X81685714Y-70918809D02*
X81685714Y-71442619D01*
X80876190Y-70918809D02*
X81209523Y-70918809D01*
X81209523Y-71442619D02*
X81209523Y-70442619D01*
X81209523Y-70442619D02*
X80733333Y-70442619D01*
D13*
X82983333Y-69483690D02*
X83007142Y-69507500D01*
X83007142Y-69507500D02*
X83078571Y-69531309D01*
X83078571Y-69531309D02*
X83126190Y-69531309D01*
X83126190Y-69531309D02*
X83197618Y-69507500D01*
X83197618Y-69507500D02*
X83245237Y-69459880D01*
X83245237Y-69459880D02*
X83269047Y-69412261D01*
X83269047Y-69412261D02*
X83292856Y-69317023D01*
X83292856Y-69317023D02*
X83292856Y-69245595D01*
X83292856Y-69245595D02*
X83269047Y-69150357D01*
X83269047Y-69150357D02*
X83245237Y-69102738D01*
X83245237Y-69102738D02*
X83197618Y-69055119D01*
X83197618Y-69055119D02*
X83126190Y-69031309D01*
X83126190Y-69031309D02*
X83078571Y-69031309D01*
X83078571Y-69031309D02*
X83007142Y-69055119D01*
X83007142Y-69055119D02*
X82983333Y-69078928D01*
X82554761Y-69197976D02*
X82554761Y-69531309D01*
X82673809Y-69007500D02*
X82792856Y-69364642D01*
X82792856Y-69364642D02*
X82483333Y-69364642D01*
D10*
%TO.C,C3*%
X88612619Y-65980951D02*
X88612619Y-65409523D01*
X88612619Y-65695237D02*
X87612619Y-65695237D01*
X87612619Y-65695237D02*
X87755476Y-65599999D01*
X87755476Y-65599999D02*
X87850714Y-65504761D01*
X87850714Y-65504761D02*
X87898333Y-65409523D01*
X87612619Y-66599999D02*
X87612619Y-66695237D01*
X87612619Y-66695237D02*
X87660238Y-66790475D01*
X87660238Y-66790475D02*
X87707857Y-66838094D01*
X87707857Y-66838094D02*
X87803095Y-66885713D01*
X87803095Y-66885713D02*
X87993571Y-66933332D01*
X87993571Y-66933332D02*
X88231666Y-66933332D01*
X88231666Y-66933332D02*
X88422142Y-66885713D01*
X88422142Y-66885713D02*
X88517380Y-66838094D01*
X88517380Y-66838094D02*
X88565000Y-66790475D01*
X88565000Y-66790475D02*
X88612619Y-66695237D01*
X88612619Y-66695237D02*
X88612619Y-66599999D01*
X88612619Y-66599999D02*
X88565000Y-66504761D01*
X88565000Y-66504761D02*
X88517380Y-66457142D01*
X88517380Y-66457142D02*
X88422142Y-66409523D01*
X88422142Y-66409523D02*
X88231666Y-66361904D01*
X88231666Y-66361904D02*
X87993571Y-66361904D01*
X87993571Y-66361904D02*
X87803095Y-66409523D01*
X87803095Y-66409523D02*
X87707857Y-66457142D01*
X87707857Y-66457142D02*
X87660238Y-66504761D01*
X87660238Y-66504761D02*
X87612619Y-66599999D01*
X87945952Y-67790475D02*
X88612619Y-67790475D01*
X87945952Y-67361904D02*
X88469761Y-67361904D01*
X88469761Y-67361904D02*
X88565000Y-67409523D01*
X88565000Y-67409523D02*
X88612619Y-67504761D01*
X88612619Y-67504761D02*
X88612619Y-67647618D01*
X88612619Y-67647618D02*
X88565000Y-67742856D01*
X88565000Y-67742856D02*
X88517380Y-67790475D01*
X88088809Y-68599999D02*
X88088809Y-68266666D01*
X88612619Y-68266666D02*
X87612619Y-68266666D01*
X87612619Y-68266666D02*
X87612619Y-68742856D01*
X88707857Y-68885714D02*
X88707857Y-69647618D01*
X87612619Y-70076190D02*
X87612619Y-70171428D01*
X87612619Y-70171428D02*
X87660238Y-70266666D01*
X87660238Y-70266666D02*
X87707857Y-70314285D01*
X87707857Y-70314285D02*
X87803095Y-70361904D01*
X87803095Y-70361904D02*
X87993571Y-70409523D01*
X87993571Y-70409523D02*
X88231666Y-70409523D01*
X88231666Y-70409523D02*
X88422142Y-70361904D01*
X88422142Y-70361904D02*
X88517380Y-70314285D01*
X88517380Y-70314285D02*
X88565000Y-70266666D01*
X88565000Y-70266666D02*
X88612619Y-70171428D01*
X88612619Y-70171428D02*
X88612619Y-70076190D01*
X88612619Y-70076190D02*
X88565000Y-69980952D01*
X88565000Y-69980952D02*
X88517380Y-69933333D01*
X88517380Y-69933333D02*
X88422142Y-69885714D01*
X88422142Y-69885714D02*
X88231666Y-69838095D01*
X88231666Y-69838095D02*
X87993571Y-69838095D01*
X87993571Y-69838095D02*
X87803095Y-69885714D01*
X87803095Y-69885714D02*
X87707857Y-69933333D01*
X87707857Y-69933333D02*
X87660238Y-69980952D01*
X87660238Y-69980952D02*
X87612619Y-70076190D01*
X88041190Y-70980952D02*
X87993571Y-70885714D01*
X87993571Y-70885714D02*
X87945952Y-70838095D01*
X87945952Y-70838095D02*
X87850714Y-70790476D01*
X87850714Y-70790476D02*
X87803095Y-70790476D01*
X87803095Y-70790476D02*
X87707857Y-70838095D01*
X87707857Y-70838095D02*
X87660238Y-70885714D01*
X87660238Y-70885714D02*
X87612619Y-70980952D01*
X87612619Y-70980952D02*
X87612619Y-71171428D01*
X87612619Y-71171428D02*
X87660238Y-71266666D01*
X87660238Y-71266666D02*
X87707857Y-71314285D01*
X87707857Y-71314285D02*
X87803095Y-71361904D01*
X87803095Y-71361904D02*
X87850714Y-71361904D01*
X87850714Y-71361904D02*
X87945952Y-71314285D01*
X87945952Y-71314285D02*
X87993571Y-71266666D01*
X87993571Y-71266666D02*
X88041190Y-71171428D01*
X88041190Y-71171428D02*
X88041190Y-70980952D01*
X88041190Y-70980952D02*
X88088809Y-70885714D01*
X88088809Y-70885714D02*
X88136428Y-70838095D01*
X88136428Y-70838095D02*
X88231666Y-70790476D01*
X88231666Y-70790476D02*
X88422142Y-70790476D01*
X88422142Y-70790476D02*
X88517380Y-70838095D01*
X88517380Y-70838095D02*
X88565000Y-70885714D01*
X88565000Y-70885714D02*
X88612619Y-70980952D01*
X88612619Y-70980952D02*
X88612619Y-71171428D01*
X88612619Y-71171428D02*
X88565000Y-71266666D01*
X88565000Y-71266666D02*
X88517380Y-71314285D01*
X88517380Y-71314285D02*
X88422142Y-71361904D01*
X88422142Y-71361904D02*
X88231666Y-71361904D01*
X88231666Y-71361904D02*
X88136428Y-71314285D01*
X88136428Y-71314285D02*
X88088809Y-71266666D01*
X88088809Y-71266666D02*
X88041190Y-71171428D01*
X87612619Y-71980952D02*
X87612619Y-72076190D01*
X87612619Y-72076190D02*
X87660238Y-72171428D01*
X87660238Y-72171428D02*
X87707857Y-72219047D01*
X87707857Y-72219047D02*
X87803095Y-72266666D01*
X87803095Y-72266666D02*
X87993571Y-72314285D01*
X87993571Y-72314285D02*
X88231666Y-72314285D01*
X88231666Y-72314285D02*
X88422142Y-72266666D01*
X88422142Y-72266666D02*
X88517380Y-72219047D01*
X88517380Y-72219047D02*
X88565000Y-72171428D01*
X88565000Y-72171428D02*
X88612619Y-72076190D01*
X88612619Y-72076190D02*
X88612619Y-71980952D01*
X88612619Y-71980952D02*
X88565000Y-71885714D01*
X88565000Y-71885714D02*
X88517380Y-71838095D01*
X88517380Y-71838095D02*
X88422142Y-71790476D01*
X88422142Y-71790476D02*
X88231666Y-71742857D01*
X88231666Y-71742857D02*
X87993571Y-71742857D01*
X87993571Y-71742857D02*
X87803095Y-71790476D01*
X87803095Y-71790476D02*
X87707857Y-71838095D01*
X87707857Y-71838095D02*
X87660238Y-71885714D01*
X87660238Y-71885714D02*
X87612619Y-71980952D01*
X87612619Y-73219047D02*
X87612619Y-72742857D01*
X87612619Y-72742857D02*
X88088809Y-72695238D01*
X88088809Y-72695238D02*
X88041190Y-72742857D01*
X88041190Y-72742857D02*
X87993571Y-72838095D01*
X87993571Y-72838095D02*
X87993571Y-73076190D01*
X87993571Y-73076190D02*
X88041190Y-73171428D01*
X88041190Y-73171428D02*
X88088809Y-73219047D01*
X88088809Y-73219047D02*
X88184047Y-73266666D01*
X88184047Y-73266666D02*
X88422142Y-73266666D01*
X88422142Y-73266666D02*
X88517380Y-73219047D01*
X88517380Y-73219047D02*
X88565000Y-73171428D01*
X88565000Y-73171428D02*
X88612619Y-73076190D01*
X88612619Y-73076190D02*
X88612619Y-72838095D01*
X88612619Y-72838095D02*
X88565000Y-72742857D01*
X88565000Y-72742857D02*
X88517380Y-72695238D01*
X88707857Y-73457143D02*
X88707857Y-74219047D01*
X87707857Y-74409524D02*
X87660238Y-74457143D01*
X87660238Y-74457143D02*
X87612619Y-74552381D01*
X87612619Y-74552381D02*
X87612619Y-74790476D01*
X87612619Y-74790476D02*
X87660238Y-74885714D01*
X87660238Y-74885714D02*
X87707857Y-74933333D01*
X87707857Y-74933333D02*
X87803095Y-74980952D01*
X87803095Y-74980952D02*
X87898333Y-74980952D01*
X87898333Y-74980952D02*
X88041190Y-74933333D01*
X88041190Y-74933333D02*
X88612619Y-74361905D01*
X88612619Y-74361905D02*
X88612619Y-74980952D01*
X87612619Y-75885714D02*
X87612619Y-75409524D01*
X87612619Y-75409524D02*
X88088809Y-75361905D01*
X88088809Y-75361905D02*
X88041190Y-75409524D01*
X88041190Y-75409524D02*
X87993571Y-75504762D01*
X87993571Y-75504762D02*
X87993571Y-75742857D01*
X87993571Y-75742857D02*
X88041190Y-75838095D01*
X88041190Y-75838095D02*
X88088809Y-75885714D01*
X88088809Y-75885714D02*
X88184047Y-75933333D01*
X88184047Y-75933333D02*
X88422142Y-75933333D01*
X88422142Y-75933333D02*
X88517380Y-75885714D01*
X88517380Y-75885714D02*
X88565000Y-75838095D01*
X88565000Y-75838095D02*
X88612619Y-75742857D01*
X88612619Y-75742857D02*
X88612619Y-75504762D01*
X88612619Y-75504762D02*
X88565000Y-75409524D01*
X88565000Y-75409524D02*
X88517380Y-75361905D01*
X87612619Y-76219048D02*
X88612619Y-76552381D01*
X88612619Y-76552381D02*
X87612619Y-76885714D01*
D11*
X90293904Y-70966667D02*
X90332000Y-70928571D01*
X90332000Y-70928571D02*
X90370095Y-70814286D01*
X90370095Y-70814286D02*
X90370095Y-70738095D01*
X90370095Y-70738095D02*
X90332000Y-70623809D01*
X90332000Y-70623809D02*
X90255809Y-70547619D01*
X90255809Y-70547619D02*
X90179619Y-70509524D01*
X90179619Y-70509524D02*
X90027238Y-70471428D01*
X90027238Y-70471428D02*
X89912952Y-70471428D01*
X89912952Y-70471428D02*
X89760571Y-70509524D01*
X89760571Y-70509524D02*
X89684380Y-70547619D01*
X89684380Y-70547619D02*
X89608190Y-70623809D01*
X89608190Y-70623809D02*
X89570095Y-70738095D01*
X89570095Y-70738095D02*
X89570095Y-70814286D01*
X89570095Y-70814286D02*
X89608190Y-70928571D01*
X89608190Y-70928571D02*
X89646285Y-70966667D01*
X89570095Y-71233333D02*
X89570095Y-71728571D01*
X89570095Y-71728571D02*
X89874857Y-71461905D01*
X89874857Y-71461905D02*
X89874857Y-71576190D01*
X89874857Y-71576190D02*
X89912952Y-71652381D01*
X89912952Y-71652381D02*
X89951047Y-71690476D01*
X89951047Y-71690476D02*
X90027238Y-71728571D01*
X90027238Y-71728571D02*
X90217714Y-71728571D01*
X90217714Y-71728571D02*
X90293904Y-71690476D01*
X90293904Y-71690476D02*
X90332000Y-71652381D01*
X90332000Y-71652381D02*
X90370095Y-71576190D01*
X90370095Y-71576190D02*
X90370095Y-71347619D01*
X90370095Y-71347619D02*
X90332000Y-71271428D01*
X90332000Y-71271428D02*
X90293904Y-71233333D01*
D14*
%TO.C,U1*%
X92950000Y-50350000D02*
X92950000Y-54275000D01*
X92950000Y-54275000D02*
X93925000Y-55250000D01*
X93925000Y-55250000D02*
X96850000Y-55250000D01*
X96850000Y-50350000D02*
X92950000Y-50350000D01*
X96850000Y-55250000D02*
X96850000Y-50350000D01*
D15*
%TO.C,L1*%
X86300000Y-65850000D02*
X86300000Y-68350000D01*
X86300000Y-68350000D02*
X89500000Y-68350000D01*
X89500000Y-65850000D02*
X86300000Y-65850000D01*
X89500000Y-68350000D02*
X89500000Y-65850000D01*
D14*
%TO.C,C1*%
X90300000Y-58800000D02*
X90300000Y-60400000D01*
X90300000Y-60400000D02*
X93500000Y-60400000D01*
X93500000Y-58800000D02*
X90300000Y-58800000D01*
X93500000Y-60400000D02*
X93500000Y-58800000D01*
%TO.C,J1*%
X99360000Y-64080000D02*
X98720000Y-64080000D01*
X98720000Y-64080000D02*
X98720000Y-65460000D01*
X96820000Y-64080000D02*
X96180000Y-64080000D01*
X96180000Y-64080000D02*
X96180000Y-65460000D01*
X94280000Y-64080000D02*
X93640000Y-64080000D01*
X93640000Y-64080000D02*
X93640000Y-65460000D01*
X100310000Y-65460000D02*
X92690000Y-65460000D01*
X99360000Y-65460000D02*
X99360000Y-64080000D01*
X96820000Y-65460000D02*
X96820000Y-64080000D01*
X94280000Y-65460000D02*
X94280000Y-64080000D01*
X92690000Y-65460000D02*
X92690000Y-69540000D01*
X92690000Y-69540000D02*
X93690000Y-70540000D01*
X100310000Y-70540000D02*
X100310000Y-65460000D01*
X98720000Y-70540000D02*
X98720000Y-71920000D01*
X96180000Y-70540000D02*
X96180000Y-71920000D01*
X93690000Y-70540000D02*
X100310000Y-70540000D01*
X93640000Y-70540000D02*
X93640000Y-71920000D01*
X99360000Y-71920000D02*
X99360000Y-70540000D01*
X98720000Y-71920000D02*
X99360000Y-71920000D01*
X96820000Y-71920000D02*
X96820000Y-70540000D01*
X96180000Y-71920000D02*
X96820000Y-71920000D01*
X94280000Y-71920000D02*
X94280000Y-70540000D01*
X93640000Y-71920000D02*
X94280000Y-71920000D01*
D10*
%TO.C,U2*%
X87400000Y-73500000D02*
X87400000Y-71000000D01*
X87400000Y-71000000D02*
X86900000Y-70500000D01*
X86900000Y-70500000D02*
X85400000Y-70500000D01*
X85400000Y-73500000D02*
X87400000Y-73500000D01*
X85400000Y-70500000D02*
X85400000Y-73500000D01*
D14*
%TO.C,C2*%
X98425000Y-56500000D02*
X97175000Y-56500000D01*
X97175000Y-56500000D02*
X97175000Y-58500000D01*
X98425000Y-58500000D02*
X98425000Y-56500000D01*
X97175000Y-58500000D02*
X98425000Y-58500000D01*
%TO.C,C4*%
X83900000Y-69925000D02*
X83900000Y-68675000D01*
X83900000Y-68675000D02*
X81900000Y-68675000D01*
X81900000Y-69925000D02*
X83900000Y-69925000D01*
X81900000Y-68675000D02*
X81900000Y-69925000D01*
%TO.C,C3*%
X89200000Y-72700000D02*
X90800000Y-72700000D01*
X90800000Y-72700000D02*
X90800000Y-69500000D01*
X89200000Y-69500000D02*
X89200000Y-72700000D01*
X90800000Y-69500000D02*
X89200000Y-69500000D01*
%TD*%
M02*
