%TF.GenerationSoftware,KiCad,Pcbnew,7.0.5.1-1-g8f565ef7f0-dirty-deb11*%
%TF.CreationDate,2023-06-01T06:03:29+00:00*%
%TF.ProjectId,pedalboard-led-ring,70656461-6c62-46f6-9172-642d6c65642d,1.0.0*%
%TF.SameCoordinates,Original*%
%TF.FileFunction,Drillmap*%
%TF.FilePolarity,Positive*%
%FSLAX45Y45*%
G04 Gerber Fmt 4.5, Leading zero omitted, Abs format (unit mm)*
G04 Created by KiCad (PCBNEW 7.0.5.1-1-g8f565ef7f0-dirty-deb11) date 2023-06-01 06:03:29*
%MOMM*%
%LPD*%
G01*
G04 APERTURE LIST*
%ADD10C,0.100000*%
%ADD11C,0.200000*%
%ADD12C,0.040000*%
G04 APERTURE END LIST*
D10*
X6600000Y-7300000D02*
G75*
G03*
X6700000Y-7400000I100000J0D01*
G01*
X8610000Y-6000000D02*
G75*
G03*
X8610000Y-6000000I-610000J0D01*
G01*
X9400000Y-4700000D02*
X9400000Y-7300000D01*
X6600000Y-7300000D02*
X6600000Y-4700000D01*
X9300000Y-7400000D02*
G75*
G03*
X9400000Y-7300000I0J100000D01*
G01*
X6700000Y-4600000D02*
X9300000Y-4600000D01*
X9300000Y-7400000D02*
X6700000Y-7400000D01*
X6700000Y-4600000D02*
G75*
G03*
X6600000Y-4700000I0J-100000D01*
G01*
X9400000Y-4700000D02*
G75*
G03*
X9300000Y-4600000I-100000J0D01*
G01*
D11*
D12*
X6880000Y-6020000D02*
X6920000Y-6060000D01*
X6920000Y-6020000D02*
X6880000Y-6060000D01*
X7007372Y-5464641D02*
X7047372Y-5504641D01*
X7047372Y-5464641D02*
X7007372Y-5504641D01*
X7047372Y-6564641D02*
X7087372Y-6604641D01*
X7087372Y-6564641D02*
X7047372Y-6604641D01*
X7395359Y-5047372D02*
X7435359Y-5087372D01*
X7435359Y-5047372D02*
X7395359Y-5087372D01*
X7464641Y-6952628D02*
X7504641Y-6992628D01*
X7504641Y-6952628D02*
X7464641Y-6992628D01*
X7940000Y-4880000D02*
X7980000Y-4920000D01*
X7980000Y-4880000D02*
X7940000Y-4920000D01*
X8020000Y-7080000D02*
X8060000Y-7120000D01*
X8060000Y-7080000D02*
X8020000Y-7120000D01*
X8495359Y-5007372D02*
X8535359Y-5047372D01*
X8535359Y-5007372D02*
X8495359Y-5047372D01*
X8564641Y-6912628D02*
X8604641Y-6952628D01*
X8604641Y-6912628D02*
X8564641Y-6952628D01*
X8790000Y-6290000D02*
X8830000Y-6330000D01*
X8830000Y-6290000D02*
X8790000Y-6330000D01*
X8912628Y-5395359D02*
X8952628Y-5435359D01*
X8952628Y-5395359D02*
X8912628Y-5435359D01*
X8930000Y-6090000D02*
X8970000Y-6130000D01*
X8970000Y-6090000D02*
X8930000Y-6130000D01*
X8952628Y-6495359D02*
X8992628Y-6535359D01*
X8992628Y-6495359D02*
X8952628Y-6535359D01*
X9080000Y-5940000D02*
X9120000Y-5980000D01*
X9120000Y-5940000D02*
X9080000Y-5980000D01*
X9180000Y-6100000D02*
X9220000Y-6140000D01*
X9220000Y-6100000D02*
X9180000Y-6140000D01*
X9180000Y-6480000D02*
X9220000Y-6520000D01*
X9220000Y-6480000D02*
X9180000Y-6520000D01*
X9280000Y-6100000D02*
X9320000Y-6140000D01*
X9320000Y-6100000D02*
X9280000Y-6140000D01*
X9280000Y-6240000D02*
X9320000Y-6280000D01*
X9320000Y-6240000D02*
X9280000Y-6280000D01*
X9280000Y-6360000D02*
X9320000Y-6400000D01*
X9320000Y-6360000D02*
X9280000Y-6400000D01*
X9280000Y-6480000D02*
X9320000Y-6520000D01*
X9320000Y-6480000D02*
X9280000Y-6520000D01*
D11*
X6855777Y-7716484D02*
X6855777Y-7516484D01*
X6855777Y-7516484D02*
X6903396Y-7516484D01*
X6903396Y-7516484D02*
X6931967Y-7526008D01*
X6931967Y-7526008D02*
X6951015Y-7545055D01*
X6951015Y-7545055D02*
X6960539Y-7564103D01*
X6960539Y-7564103D02*
X6970062Y-7602198D01*
X6970062Y-7602198D02*
X6970062Y-7630769D01*
X6970062Y-7630769D02*
X6960539Y-7668865D01*
X6960539Y-7668865D02*
X6951015Y-7687912D01*
X6951015Y-7687912D02*
X6931967Y-7706960D01*
X6931967Y-7706960D02*
X6903396Y-7716484D01*
X6903396Y-7716484D02*
X6855777Y-7716484D01*
X7055777Y-7716484D02*
X7055777Y-7583150D01*
X7055777Y-7621246D02*
X7065301Y-7602198D01*
X7065301Y-7602198D02*
X7074824Y-7592674D01*
X7074824Y-7592674D02*
X7093872Y-7583150D01*
X7093872Y-7583150D02*
X7112920Y-7583150D01*
X7179586Y-7716484D02*
X7179586Y-7583150D01*
X7179586Y-7516484D02*
X7170062Y-7526008D01*
X7170062Y-7526008D02*
X7179586Y-7535531D01*
X7179586Y-7535531D02*
X7189110Y-7526008D01*
X7189110Y-7526008D02*
X7179586Y-7516484D01*
X7179586Y-7516484D02*
X7179586Y-7535531D01*
X7303396Y-7716484D02*
X7284348Y-7706960D01*
X7284348Y-7706960D02*
X7274824Y-7687912D01*
X7274824Y-7687912D02*
X7274824Y-7516484D01*
X7408158Y-7716484D02*
X7389110Y-7706960D01*
X7389110Y-7706960D02*
X7379586Y-7687912D01*
X7379586Y-7687912D02*
X7379586Y-7516484D01*
X7636729Y-7716484D02*
X7636729Y-7516484D01*
X7636729Y-7516484D02*
X7703396Y-7659341D01*
X7703396Y-7659341D02*
X7770062Y-7516484D01*
X7770062Y-7516484D02*
X7770062Y-7716484D01*
X7951015Y-7716484D02*
X7951015Y-7611722D01*
X7951015Y-7611722D02*
X7941491Y-7592674D01*
X7941491Y-7592674D02*
X7922443Y-7583150D01*
X7922443Y-7583150D02*
X7884348Y-7583150D01*
X7884348Y-7583150D02*
X7865301Y-7592674D01*
X7951015Y-7706960D02*
X7931967Y-7716484D01*
X7931967Y-7716484D02*
X7884348Y-7716484D01*
X7884348Y-7716484D02*
X7865301Y-7706960D01*
X7865301Y-7706960D02*
X7855777Y-7687912D01*
X7855777Y-7687912D02*
X7855777Y-7668865D01*
X7855777Y-7668865D02*
X7865301Y-7649817D01*
X7865301Y-7649817D02*
X7884348Y-7640293D01*
X7884348Y-7640293D02*
X7931967Y-7640293D01*
X7931967Y-7640293D02*
X7951015Y-7630769D01*
X8046253Y-7583150D02*
X8046253Y-7783150D01*
X8046253Y-7592674D02*
X8065301Y-7583150D01*
X8065301Y-7583150D02*
X8103396Y-7583150D01*
X8103396Y-7583150D02*
X8122443Y-7592674D01*
X8122443Y-7592674D02*
X8131967Y-7602198D01*
X8131967Y-7602198D02*
X8141491Y-7621246D01*
X8141491Y-7621246D02*
X8141491Y-7678388D01*
X8141491Y-7678388D02*
X8131967Y-7697436D01*
X8131967Y-7697436D02*
X8122443Y-7706960D01*
X8122443Y-7706960D02*
X8103396Y-7716484D01*
X8103396Y-7716484D02*
X8065301Y-7716484D01*
X8065301Y-7716484D02*
X8046253Y-7706960D01*
X8227205Y-7697436D02*
X8236729Y-7706960D01*
X8236729Y-7706960D02*
X8227205Y-7716484D01*
X8227205Y-7716484D02*
X8217682Y-7706960D01*
X8217682Y-7706960D02*
X8227205Y-7697436D01*
X8227205Y-7697436D02*
X8227205Y-7716484D01*
X8227205Y-7592674D02*
X8236729Y-7602198D01*
X8236729Y-7602198D02*
X8227205Y-7611722D01*
X8227205Y-7611722D02*
X8217682Y-7602198D01*
X8217682Y-7602198D02*
X8227205Y-7592674D01*
X8227205Y-7592674D02*
X8227205Y-7611722D01*
D12*
X6555000Y-8025000D02*
X6595000Y-8065000D01*
X6595000Y-8025000D02*
X6555000Y-8065000D01*
D11*
X6893872Y-7936484D02*
X6912920Y-7936484D01*
X6912920Y-7936484D02*
X6931967Y-7946008D01*
X6931967Y-7946008D02*
X6941491Y-7955531D01*
X6941491Y-7955531D02*
X6951015Y-7974579D01*
X6951015Y-7974579D02*
X6960539Y-8012674D01*
X6960539Y-8012674D02*
X6960539Y-8060293D01*
X6960539Y-8060293D02*
X6951015Y-8098388D01*
X6951015Y-8098388D02*
X6941491Y-8117436D01*
X6941491Y-8117436D02*
X6931967Y-8126960D01*
X6931967Y-8126960D02*
X6912920Y-8136484D01*
X6912920Y-8136484D02*
X6893872Y-8136484D01*
X6893872Y-8136484D02*
X6874824Y-8126960D01*
X6874824Y-8126960D02*
X6865301Y-8117436D01*
X6865301Y-8117436D02*
X6855777Y-8098388D01*
X6855777Y-8098388D02*
X6846253Y-8060293D01*
X6846253Y-8060293D02*
X6846253Y-8012674D01*
X6846253Y-8012674D02*
X6855777Y-7974579D01*
X6855777Y-7974579D02*
X6865301Y-7955531D01*
X6865301Y-7955531D02*
X6874824Y-7946008D01*
X6874824Y-7946008D02*
X6893872Y-7936484D01*
X7046253Y-8117436D02*
X7055777Y-8126960D01*
X7055777Y-8126960D02*
X7046253Y-8136484D01*
X7046253Y-8136484D02*
X7036729Y-8126960D01*
X7036729Y-8126960D02*
X7046253Y-8117436D01*
X7046253Y-8117436D02*
X7046253Y-8136484D01*
X7227205Y-8003150D02*
X7227205Y-8136484D01*
X7179586Y-7926960D02*
X7131967Y-8069817D01*
X7131967Y-8069817D02*
X7255777Y-8069817D01*
X7370062Y-7936484D02*
X7389110Y-7936484D01*
X7389110Y-7936484D02*
X7408158Y-7946008D01*
X7408158Y-7946008D02*
X7417682Y-7955531D01*
X7417682Y-7955531D02*
X7427205Y-7974579D01*
X7427205Y-7974579D02*
X7436729Y-8012674D01*
X7436729Y-8012674D02*
X7436729Y-8060293D01*
X7436729Y-8060293D02*
X7427205Y-8098388D01*
X7427205Y-8098388D02*
X7417682Y-8117436D01*
X7417682Y-8117436D02*
X7408158Y-8126960D01*
X7408158Y-8126960D02*
X7389110Y-8136484D01*
X7389110Y-8136484D02*
X7370062Y-8136484D01*
X7370062Y-8136484D02*
X7351015Y-8126960D01*
X7351015Y-8126960D02*
X7341491Y-8117436D01*
X7341491Y-8117436D02*
X7331967Y-8098388D01*
X7331967Y-8098388D02*
X7322443Y-8060293D01*
X7322443Y-8060293D02*
X7322443Y-8012674D01*
X7322443Y-8012674D02*
X7331967Y-7974579D01*
X7331967Y-7974579D02*
X7341491Y-7955531D01*
X7341491Y-7955531D02*
X7351015Y-7946008D01*
X7351015Y-7946008D02*
X7370062Y-7936484D01*
X7560539Y-7936484D02*
X7579586Y-7936484D01*
X7579586Y-7936484D02*
X7598634Y-7946008D01*
X7598634Y-7946008D02*
X7608158Y-7955531D01*
X7608158Y-7955531D02*
X7617682Y-7974579D01*
X7617682Y-7974579D02*
X7627205Y-8012674D01*
X7627205Y-8012674D02*
X7627205Y-8060293D01*
X7627205Y-8060293D02*
X7617682Y-8098388D01*
X7617682Y-8098388D02*
X7608158Y-8117436D01*
X7608158Y-8117436D02*
X7598634Y-8126960D01*
X7598634Y-8126960D02*
X7579586Y-8136484D01*
X7579586Y-8136484D02*
X7560539Y-8136484D01*
X7560539Y-8136484D02*
X7541491Y-8126960D01*
X7541491Y-8126960D02*
X7531967Y-8117436D01*
X7531967Y-8117436D02*
X7522443Y-8098388D01*
X7522443Y-8098388D02*
X7512920Y-8060293D01*
X7512920Y-8060293D02*
X7512920Y-8012674D01*
X7512920Y-8012674D02*
X7522443Y-7974579D01*
X7522443Y-7974579D02*
X7531967Y-7955531D01*
X7531967Y-7955531D02*
X7541491Y-7946008D01*
X7541491Y-7946008D02*
X7560539Y-7936484D01*
X7712920Y-8136484D02*
X7712920Y-8003150D01*
X7712920Y-8022198D02*
X7722443Y-8012674D01*
X7722443Y-8012674D02*
X7741491Y-8003150D01*
X7741491Y-8003150D02*
X7770063Y-8003150D01*
X7770063Y-8003150D02*
X7789110Y-8012674D01*
X7789110Y-8012674D02*
X7798634Y-8031722D01*
X7798634Y-8031722D02*
X7798634Y-8136484D01*
X7798634Y-8031722D02*
X7808158Y-8012674D01*
X7808158Y-8012674D02*
X7827205Y-8003150D01*
X7827205Y-8003150D02*
X7855777Y-8003150D01*
X7855777Y-8003150D02*
X7874824Y-8012674D01*
X7874824Y-8012674D02*
X7884348Y-8031722D01*
X7884348Y-8031722D02*
X7884348Y-8136484D01*
X7979586Y-8136484D02*
X7979586Y-8003150D01*
X7979586Y-8022198D02*
X7989110Y-8012674D01*
X7989110Y-8012674D02*
X8008158Y-8003150D01*
X8008158Y-8003150D02*
X8036729Y-8003150D01*
X8036729Y-8003150D02*
X8055777Y-8012674D01*
X8055777Y-8012674D02*
X8065301Y-8031722D01*
X8065301Y-8031722D02*
X8065301Y-8136484D01*
X8065301Y-8031722D02*
X8074824Y-8012674D01*
X8074824Y-8012674D02*
X8093872Y-8003150D01*
X8093872Y-8003150D02*
X8122443Y-8003150D01*
X8122443Y-8003150D02*
X8141491Y-8012674D01*
X8141491Y-8012674D02*
X8151015Y-8031722D01*
X8151015Y-8031722D02*
X8151015Y-8136484D01*
X8541491Y-7926960D02*
X8370063Y-8184103D01*
X8798634Y-7936484D02*
X8817682Y-7936484D01*
X8817682Y-7936484D02*
X8836729Y-7946008D01*
X8836729Y-7946008D02*
X8846253Y-7955531D01*
X8846253Y-7955531D02*
X8855777Y-7974579D01*
X8855777Y-7974579D02*
X8865301Y-8012674D01*
X8865301Y-8012674D02*
X8865301Y-8060293D01*
X8865301Y-8060293D02*
X8855777Y-8098388D01*
X8855777Y-8098388D02*
X8846253Y-8117436D01*
X8846253Y-8117436D02*
X8836729Y-8126960D01*
X8836729Y-8126960D02*
X8817682Y-8136484D01*
X8817682Y-8136484D02*
X8798634Y-8136484D01*
X8798634Y-8136484D02*
X8779587Y-8126960D01*
X8779587Y-8126960D02*
X8770063Y-8117436D01*
X8770063Y-8117436D02*
X8760539Y-8098388D01*
X8760539Y-8098388D02*
X8751015Y-8060293D01*
X8751015Y-8060293D02*
X8751015Y-8012674D01*
X8751015Y-8012674D02*
X8760539Y-7974579D01*
X8760539Y-7974579D02*
X8770063Y-7955531D01*
X8770063Y-7955531D02*
X8779587Y-7946008D01*
X8779587Y-7946008D02*
X8798634Y-7936484D01*
X8951015Y-8117436D02*
X8960539Y-8126960D01*
X8960539Y-8126960D02*
X8951015Y-8136484D01*
X8951015Y-8136484D02*
X8941491Y-8126960D01*
X8941491Y-8126960D02*
X8951015Y-8117436D01*
X8951015Y-8117436D02*
X8951015Y-8136484D01*
X9084348Y-7936484D02*
X9103396Y-7936484D01*
X9103396Y-7936484D02*
X9122444Y-7946008D01*
X9122444Y-7946008D02*
X9131968Y-7955531D01*
X9131968Y-7955531D02*
X9141491Y-7974579D01*
X9141491Y-7974579D02*
X9151015Y-8012674D01*
X9151015Y-8012674D02*
X9151015Y-8060293D01*
X9151015Y-8060293D02*
X9141491Y-8098388D01*
X9141491Y-8098388D02*
X9131968Y-8117436D01*
X9131968Y-8117436D02*
X9122444Y-8126960D01*
X9122444Y-8126960D02*
X9103396Y-8136484D01*
X9103396Y-8136484D02*
X9084348Y-8136484D01*
X9084348Y-8136484D02*
X9065301Y-8126960D01*
X9065301Y-8126960D02*
X9055777Y-8117436D01*
X9055777Y-8117436D02*
X9046253Y-8098388D01*
X9046253Y-8098388D02*
X9036729Y-8060293D01*
X9036729Y-8060293D02*
X9036729Y-8012674D01*
X9036729Y-8012674D02*
X9046253Y-7974579D01*
X9046253Y-7974579D02*
X9055777Y-7955531D01*
X9055777Y-7955531D02*
X9065301Y-7946008D01*
X9065301Y-7946008D02*
X9084348Y-7936484D01*
X9341491Y-8136484D02*
X9227206Y-8136484D01*
X9284348Y-8136484D02*
X9284348Y-7936484D01*
X9284348Y-7936484D02*
X9265301Y-7965055D01*
X9265301Y-7965055D02*
X9246253Y-7984103D01*
X9246253Y-7984103D02*
X9227206Y-7993627D01*
X9522444Y-7936484D02*
X9427206Y-7936484D01*
X9427206Y-7936484D02*
X9417682Y-8031722D01*
X9417682Y-8031722D02*
X9427206Y-8022198D01*
X9427206Y-8022198D02*
X9446253Y-8012674D01*
X9446253Y-8012674D02*
X9493872Y-8012674D01*
X9493872Y-8012674D02*
X9512920Y-8022198D01*
X9512920Y-8022198D02*
X9522444Y-8031722D01*
X9522444Y-8031722D02*
X9531968Y-8050769D01*
X9531968Y-8050769D02*
X9531968Y-8098388D01*
X9531968Y-8098388D02*
X9522444Y-8117436D01*
X9522444Y-8117436D02*
X9512920Y-8126960D01*
X9512920Y-8126960D02*
X9493872Y-8136484D01*
X9493872Y-8136484D02*
X9446253Y-8136484D01*
X9446253Y-8136484D02*
X9427206Y-8126960D01*
X9427206Y-8126960D02*
X9417682Y-8117436D01*
X9598634Y-7936484D02*
X9731968Y-7936484D01*
X9731968Y-7936484D02*
X9646253Y-8136484D01*
X9798634Y-7936484D02*
X9798634Y-7974579D01*
X9874825Y-7936484D02*
X9874825Y-7974579D01*
X10170063Y-8212674D02*
X10160539Y-8203150D01*
X10160539Y-8203150D02*
X10141491Y-8174579D01*
X10141491Y-8174579D02*
X10131968Y-8155531D01*
X10131968Y-8155531D02*
X10122444Y-8126960D01*
X10122444Y-8126960D02*
X10112920Y-8079341D01*
X10112920Y-8079341D02*
X10112920Y-8041246D01*
X10112920Y-8041246D02*
X10122444Y-7993627D01*
X10122444Y-7993627D02*
X10131968Y-7965055D01*
X10131968Y-7965055D02*
X10141491Y-7946008D01*
X10141491Y-7946008D02*
X10160539Y-7917436D01*
X10160539Y-7917436D02*
X10170063Y-7907912D01*
X10236730Y-7955531D02*
X10246253Y-7946008D01*
X10246253Y-7946008D02*
X10265301Y-7936484D01*
X10265301Y-7936484D02*
X10312920Y-7936484D01*
X10312920Y-7936484D02*
X10331968Y-7946008D01*
X10331968Y-7946008D02*
X10341491Y-7955531D01*
X10341491Y-7955531D02*
X10351015Y-7974579D01*
X10351015Y-7974579D02*
X10351015Y-7993627D01*
X10351015Y-7993627D02*
X10341491Y-8022198D01*
X10341491Y-8022198D02*
X10227206Y-8136484D01*
X10227206Y-8136484D02*
X10351015Y-8136484D01*
X10474825Y-7936484D02*
X10493872Y-7936484D01*
X10493872Y-7936484D02*
X10512920Y-7946008D01*
X10512920Y-7946008D02*
X10522444Y-7955531D01*
X10522444Y-7955531D02*
X10531968Y-7974579D01*
X10531968Y-7974579D02*
X10541491Y-8012674D01*
X10541491Y-8012674D02*
X10541491Y-8060293D01*
X10541491Y-8060293D02*
X10531968Y-8098388D01*
X10531968Y-8098388D02*
X10522444Y-8117436D01*
X10522444Y-8117436D02*
X10512920Y-8126960D01*
X10512920Y-8126960D02*
X10493872Y-8136484D01*
X10493872Y-8136484D02*
X10474825Y-8136484D01*
X10474825Y-8136484D02*
X10455777Y-8126960D01*
X10455777Y-8126960D02*
X10446253Y-8117436D01*
X10446253Y-8117436D02*
X10436730Y-8098388D01*
X10436730Y-8098388D02*
X10427206Y-8060293D01*
X10427206Y-8060293D02*
X10427206Y-8012674D01*
X10427206Y-8012674D02*
X10436730Y-7974579D01*
X10436730Y-7974579D02*
X10446253Y-7955531D01*
X10446253Y-7955531D02*
X10455777Y-7946008D01*
X10455777Y-7946008D02*
X10474825Y-7936484D01*
X10779587Y-8136484D02*
X10779587Y-7936484D01*
X10865301Y-8136484D02*
X10865301Y-8031722D01*
X10865301Y-8031722D02*
X10855777Y-8012674D01*
X10855777Y-8012674D02*
X10836730Y-8003150D01*
X10836730Y-8003150D02*
X10808158Y-8003150D01*
X10808158Y-8003150D02*
X10789111Y-8012674D01*
X10789111Y-8012674D02*
X10779587Y-8022198D01*
X10989111Y-8136484D02*
X10970063Y-8126960D01*
X10970063Y-8126960D02*
X10960539Y-8117436D01*
X10960539Y-8117436D02*
X10951015Y-8098388D01*
X10951015Y-8098388D02*
X10951015Y-8041246D01*
X10951015Y-8041246D02*
X10960539Y-8022198D01*
X10960539Y-8022198D02*
X10970063Y-8012674D01*
X10970063Y-8012674D02*
X10989111Y-8003150D01*
X10989111Y-8003150D02*
X11017682Y-8003150D01*
X11017682Y-8003150D02*
X11036730Y-8012674D01*
X11036730Y-8012674D02*
X11046253Y-8022198D01*
X11046253Y-8022198D02*
X11055777Y-8041246D01*
X11055777Y-8041246D02*
X11055777Y-8098388D01*
X11055777Y-8098388D02*
X11046253Y-8117436D01*
X11046253Y-8117436D02*
X11036730Y-8126960D01*
X11036730Y-8126960D02*
X11017682Y-8136484D01*
X11017682Y-8136484D02*
X10989111Y-8136484D01*
X11170063Y-8136484D02*
X11151015Y-8126960D01*
X11151015Y-8126960D02*
X11141492Y-8107912D01*
X11141492Y-8107912D02*
X11141492Y-7936484D01*
X11322444Y-8126960D02*
X11303396Y-8136484D01*
X11303396Y-8136484D02*
X11265301Y-8136484D01*
X11265301Y-8136484D02*
X11246253Y-8126960D01*
X11246253Y-8126960D02*
X11236730Y-8107912D01*
X11236730Y-8107912D02*
X11236730Y-8031722D01*
X11236730Y-8031722D02*
X11246253Y-8012674D01*
X11246253Y-8012674D02*
X11265301Y-8003150D01*
X11265301Y-8003150D02*
X11303396Y-8003150D01*
X11303396Y-8003150D02*
X11322444Y-8012674D01*
X11322444Y-8012674D02*
X11331968Y-8031722D01*
X11331968Y-8031722D02*
X11331968Y-8050769D01*
X11331968Y-8050769D02*
X11236730Y-8069817D01*
X11408158Y-8126960D02*
X11427206Y-8136484D01*
X11427206Y-8136484D02*
X11465301Y-8136484D01*
X11465301Y-8136484D02*
X11484349Y-8126960D01*
X11484349Y-8126960D02*
X11493872Y-8107912D01*
X11493872Y-8107912D02*
X11493872Y-8098388D01*
X11493872Y-8098388D02*
X11484349Y-8079341D01*
X11484349Y-8079341D02*
X11465301Y-8069817D01*
X11465301Y-8069817D02*
X11436730Y-8069817D01*
X11436730Y-8069817D02*
X11417682Y-8060293D01*
X11417682Y-8060293D02*
X11408158Y-8041246D01*
X11408158Y-8041246D02*
X11408158Y-8031722D01*
X11408158Y-8031722D02*
X11417682Y-8012674D01*
X11417682Y-8012674D02*
X11436730Y-8003150D01*
X11436730Y-8003150D02*
X11465301Y-8003150D01*
X11465301Y-8003150D02*
X11484349Y-8012674D01*
X11560539Y-8212674D02*
X11570063Y-8203150D01*
X11570063Y-8203150D02*
X11589111Y-8174579D01*
X11589111Y-8174579D02*
X11598634Y-8155531D01*
X11598634Y-8155531D02*
X11608158Y-8126960D01*
X11608158Y-8126960D02*
X11617682Y-8079341D01*
X11617682Y-8079341D02*
X11617682Y-8041246D01*
X11617682Y-8041246D02*
X11608158Y-7993627D01*
X11608158Y-7993627D02*
X11598634Y-7965055D01*
X11598634Y-7965055D02*
X11589111Y-7946008D01*
X11589111Y-7946008D02*
X11570063Y-7917436D01*
X11570063Y-7917436D02*
X11560539Y-7907912D01*
M02*
