%TF.GenerationSoftware,KiCad,Pcbnew,7.0.8-7.0.8~ubuntu23.04.1*%
%TF.CreationDate,2023-10-20T09:27:14+00:00*%
%TF.ProjectId,pedalboard-led-ring,70656461-6c62-46f6-9172-642d6c65642d,1.0.0*%
%TF.SameCoordinates,Original*%
%TF.FileFunction,Copper,L2,Bot*%
%TF.FilePolarity,Positive*%
%FSLAX46Y46*%
G04 Gerber Fmt 4.6, Leading zero omitted, Abs format (unit mm)*
G04 Created by KiCad (PCBNEW 7.0.8-7.0.8~ubuntu23.04.1) date 2023-10-20 09:27:14*
%MOMM*%
%LPD*%
G01*
G04 APERTURE LIST*
%TA.AperFunction,SMDPad,CuDef*%
%ADD10R,1.000000X2.750000*%
%TD*%
%TA.AperFunction,SMDPad,CuDef*%
%ADD11R,2.750000X1.000000*%
%TD*%
%TA.AperFunction,ViaPad*%
%ADD12C,0.800000*%
%TD*%
%TA.AperFunction,Conductor*%
%ADD13C,0.250000*%
%TD*%
G04 APERTURE END LIST*
D10*
%TO.P,J1,1,Pin_1*%
%TO.N,VCC*%
X91000000Y-56875000D03*
%TO.P,J1,2,Pin_2*%
%TO.N,GND*%
X91000000Y-63125000D03*
%TO.P,J1,3,Pin_3*%
%TO.N,Net-(J1-Pin_3)*%
X89000000Y-56875000D03*
%TO.P,J1,4,Pin_4*%
%TO.N,Net-(D12-DOUT)*%
X89000000Y-63125000D03*
%TD*%
D11*
%TO.P,J2,1,Pin_1*%
%TO.N,VCC*%
X90125000Y-70500000D03*
%TO.P,J2,2,Pin_2*%
%TO.N,GND*%
X83875000Y-70500000D03*
%TO.P,J2,3,Pin_3*%
%TO.N,Net-(J1-Pin_3)*%
X90125000Y-68500000D03*
%TO.P,J2,4,Pin_4*%
%TO.N,Net-(D12-DOUT)*%
X83875000Y-68500000D03*
%TD*%
D12*
%TO.N,Net-(D12-DOUT)*%
X86800000Y-63600000D03*
%TO.N,VCC*%
X74000000Y-52000000D03*
X70071797Y-61196152D03*
X76071797Y-69196152D03*
X90079502Y-57365000D03*
X81196152Y-69928203D03*
X83928203Y-50803848D03*
X72000000Y-66000000D03*
X86000000Y-67940000D03*
X70803848Y-56071797D03*
X88000000Y-54000000D03*
X88260000Y-66020000D03*
X78803848Y-50071797D03*
%TO.N,GND*%
X90400000Y-61400000D03*
X82900000Y-71400000D03*
X91150000Y-61400000D03*
X91150000Y-64850000D03*
X90400000Y-64850000D03*
X84900000Y-71400000D03*
X85700000Y-70500000D03*
X83900000Y-71400000D03*
%TO.N,Net-(J1-Pin_3)*%
X87910000Y-61150000D03*
%TD*%
D13*
%TO.N,Net-(D12-DOUT)*%
X88625000Y-63500000D02*
X86900000Y-63500000D01*
X86800000Y-64680000D02*
X83875000Y-67605000D01*
X86900000Y-63500000D02*
X86800000Y-63600000D01*
X83875000Y-67605000D02*
X83875000Y-68500000D01*
X86800000Y-63600000D02*
X86800000Y-64680000D01*
%TO.N,GND*%
X91000000Y-64250000D02*
X90400000Y-64850000D01*
X91000000Y-64700000D02*
X91150000Y-64850000D01*
X91100000Y-64900000D02*
X90400000Y-64900000D01*
X83800000Y-70500000D02*
X82900000Y-71400000D01*
X91000000Y-63125000D02*
X91000000Y-61550000D01*
X83875000Y-70500000D02*
X85700000Y-70500000D01*
X83875000Y-70500000D02*
X83875000Y-71375000D01*
X91000000Y-62000000D02*
X90400000Y-61400000D01*
X91000000Y-61550000D02*
X91150000Y-61400000D01*
X84000000Y-70500000D02*
X84900000Y-71400000D01*
X83875000Y-71375000D02*
X83900000Y-71400000D01*
X91000000Y-63125000D02*
X91000000Y-64700000D01*
%TO.N,Net-(J1-Pin_3)*%
X91875000Y-61127979D02*
X91875000Y-67250000D01*
X89695000Y-61200000D02*
X89695000Y-61107979D01*
X90107979Y-60695000D02*
X91442021Y-60695000D01*
X91875000Y-67250000D02*
X91125000Y-68000000D01*
X89695000Y-61107979D02*
X90107979Y-60695000D01*
X91442021Y-60695000D02*
X91875000Y-61127979D01*
X87910000Y-61200000D02*
X89695000Y-61200000D01*
X89000000Y-61200000D02*
X89000000Y-56875000D01*
%TD*%
%TA.AperFunction,Conductor*%
%TO.N,VCC*%
G36*
X91002140Y-48000687D02*
G01*
X91045519Y-48004482D01*
X91173804Y-48017118D01*
X91189710Y-48020012D01*
X91258339Y-48038400D01*
X91353264Y-48067196D01*
X91366359Y-48072207D01*
X91435690Y-48104536D01*
X91438085Y-48105733D01*
X91522989Y-48151115D01*
X91528052Y-48154225D01*
X91595221Y-48201258D01*
X91598233Y-48203543D01*
X91632865Y-48231964D01*
X91671280Y-48263491D01*
X91674877Y-48266751D01*
X91733247Y-48325121D01*
X91736512Y-48328723D01*
X91796455Y-48401765D01*
X91798740Y-48404777D01*
X91845773Y-48471946D01*
X91848883Y-48477009D01*
X91894255Y-48561893D01*
X91895462Y-48564308D01*
X91927791Y-48633639D01*
X91932804Y-48646739D01*
X91949347Y-48701271D01*
X91961601Y-48741669D01*
X91967560Y-48763909D01*
X91979985Y-48810284D01*
X91982881Y-48826201D01*
X91995523Y-48954554D01*
X91999311Y-48997844D01*
X91999500Y-49002161D01*
X91999500Y-60553145D01*
X91980593Y-60611336D01*
X91931093Y-60647300D01*
X91869907Y-60647300D01*
X91830496Y-60623149D01*
X91683762Y-60476414D01*
X91680843Y-60473229D01*
X91654477Y-60441806D01*
X91631839Y-60428736D01*
X91618939Y-60421288D01*
X91615304Y-60418972D01*
X91581705Y-60395446D01*
X91581700Y-60395443D01*
X91580245Y-60395054D01*
X91556369Y-60385164D01*
X91555066Y-60384411D01*
X91514673Y-60377289D01*
X91510457Y-60376354D01*
X91484174Y-60369312D01*
X91470828Y-60365736D01*
X91470827Y-60365736D01*
X91466402Y-60366123D01*
X91429947Y-60369312D01*
X91425647Y-60369500D01*
X90124354Y-60369500D01*
X90120053Y-60369312D01*
X90079173Y-60365736D01*
X90039543Y-60376354D01*
X90035327Y-60377289D01*
X89994935Y-60384411D01*
X89994927Y-60384414D01*
X89993619Y-60385170D01*
X89969765Y-60395051D01*
X89968303Y-60395442D01*
X89968295Y-60395446D01*
X89934695Y-60418972D01*
X89931059Y-60421288D01*
X89922854Y-60426025D01*
X89895524Y-60441805D01*
X89869160Y-60473224D01*
X89866242Y-60476408D01*
X89497148Y-60845503D01*
X89442631Y-60873281D01*
X89427144Y-60874500D01*
X89424500Y-60874500D01*
X89366309Y-60855593D01*
X89330345Y-60806093D01*
X89325500Y-60775500D01*
X89325500Y-58549500D01*
X89344407Y-58491309D01*
X89393907Y-58455345D01*
X89424500Y-58450500D01*
X89519747Y-58450500D01*
X89519748Y-58450500D01*
X89578231Y-58438867D01*
X89644552Y-58394552D01*
X89688867Y-58328231D01*
X89695519Y-58294791D01*
X90200001Y-58294791D01*
X90202909Y-58319874D01*
X90248213Y-58422477D01*
X90327522Y-58501786D01*
X90430127Y-58547090D01*
X90455203Y-58549999D01*
X90849998Y-58549999D01*
X90850000Y-58549998D01*
X91150000Y-58549998D01*
X91150001Y-58549999D01*
X91544790Y-58549999D01*
X91544791Y-58549998D01*
X91569874Y-58547090D01*
X91672477Y-58501786D01*
X91751786Y-58422477D01*
X91797090Y-58319872D01*
X91799999Y-58294797D01*
X91800000Y-58294795D01*
X91800000Y-57025001D01*
X91799999Y-57025000D01*
X91150001Y-57025000D01*
X91150000Y-57025001D01*
X91150000Y-58549998D01*
X90850000Y-58549998D01*
X90850000Y-57025001D01*
X90849999Y-57025000D01*
X90200002Y-57025000D01*
X90200001Y-57025001D01*
X90200001Y-58294791D01*
X89695519Y-58294791D01*
X89700500Y-58269748D01*
X89700500Y-56724999D01*
X90200000Y-56724999D01*
X90200001Y-56725000D01*
X90849999Y-56725000D01*
X90850000Y-56724999D01*
X91150000Y-56724999D01*
X91150001Y-56725000D01*
X91799998Y-56725000D01*
X91799999Y-56724999D01*
X91799999Y-55455210D01*
X91799998Y-55455208D01*
X91797090Y-55430125D01*
X91751786Y-55327522D01*
X91672477Y-55248213D01*
X91569872Y-55202909D01*
X91544797Y-55200000D01*
X91150001Y-55200000D01*
X91150000Y-55200001D01*
X91150000Y-56724999D01*
X90850000Y-56724999D01*
X90850000Y-55200001D01*
X90849999Y-55200000D01*
X90455210Y-55200000D01*
X90455207Y-55200001D01*
X90430125Y-55202909D01*
X90327522Y-55248213D01*
X90248213Y-55327522D01*
X90202909Y-55430127D01*
X90200000Y-55455202D01*
X90200000Y-56724999D01*
X89700500Y-56724999D01*
X89700500Y-55480252D01*
X89688867Y-55421769D01*
X89644552Y-55355448D01*
X89644548Y-55355445D01*
X89578233Y-55311134D01*
X89578231Y-55311133D01*
X89578228Y-55311132D01*
X89578227Y-55311132D01*
X89519758Y-55299501D01*
X89519748Y-55299500D01*
X88480252Y-55299500D01*
X88480251Y-55299500D01*
X88480241Y-55299501D01*
X88421772Y-55311132D01*
X88421766Y-55311134D01*
X88355451Y-55355445D01*
X88355445Y-55355451D01*
X88311134Y-55421766D01*
X88311132Y-55421772D01*
X88299501Y-55480241D01*
X88299500Y-55480253D01*
X88299500Y-58269746D01*
X88299501Y-58269758D01*
X88311132Y-58328227D01*
X88311134Y-58328233D01*
X88355445Y-58394548D01*
X88355448Y-58394552D01*
X88421769Y-58438867D01*
X88466231Y-58447711D01*
X88480241Y-58450498D01*
X88480246Y-58450498D01*
X88480252Y-58450500D01*
X88575500Y-58450500D01*
X88633691Y-58469407D01*
X88669655Y-58518907D01*
X88674500Y-58549500D01*
X88674500Y-60775500D01*
X88655593Y-60833691D01*
X88606093Y-60869655D01*
X88575500Y-60874500D01*
X88504336Y-60874500D01*
X88446145Y-60855593D01*
X88425796Y-60835769D01*
X88338282Y-60721718D01*
X88338277Y-60721714D01*
X88338276Y-60721713D01*
X88212838Y-60625462D01*
X88066766Y-60564957D01*
X88066758Y-60564955D01*
X87910001Y-60544318D01*
X87909999Y-60544318D01*
X87753241Y-60564955D01*
X87753233Y-60564957D01*
X87607161Y-60625462D01*
X87607160Y-60625462D01*
X87481723Y-60721713D01*
X87481713Y-60721723D01*
X87385462Y-60847160D01*
X87385462Y-60847161D01*
X87324957Y-60993233D01*
X87324955Y-60993241D01*
X87304318Y-61149999D01*
X87304318Y-61150000D01*
X87324955Y-61306758D01*
X87324957Y-61306766D01*
X87385462Y-61452838D01*
X87385462Y-61452839D01*
X87465205Y-61556762D01*
X87481718Y-61578282D01*
X87607159Y-61674536D01*
X87607160Y-61674536D01*
X87607161Y-61674537D01*
X87688614Y-61708276D01*
X87753238Y-61735044D01*
X87870809Y-61750522D01*
X87909999Y-61755682D01*
X87910000Y-61755682D01*
X87910001Y-61755682D01*
X87941352Y-61751554D01*
X88066762Y-61735044D01*
X88162616Y-61695339D01*
X88223611Y-61690539D01*
X88275780Y-61722508D01*
X88299195Y-61779036D01*
X88299500Y-61786804D01*
X88299500Y-63075500D01*
X88280593Y-63133691D01*
X88231093Y-63169655D01*
X88200500Y-63174500D01*
X87265514Y-63174500D01*
X87207323Y-63155593D01*
X87205247Y-63154042D01*
X87102838Y-63075462D01*
X86956766Y-63014957D01*
X86956758Y-63014955D01*
X86800001Y-62994318D01*
X86799999Y-62994318D01*
X86643241Y-63014955D01*
X86643233Y-63014957D01*
X86497161Y-63075462D01*
X86497160Y-63075462D01*
X86371723Y-63171713D01*
X86371713Y-63171723D01*
X86275462Y-63297160D01*
X86275462Y-63297161D01*
X86214957Y-63443233D01*
X86214955Y-63443241D01*
X86194318Y-63599999D01*
X86194318Y-63600000D01*
X86214955Y-63756758D01*
X86214957Y-63756766D01*
X86275462Y-63902838D01*
X86275462Y-63902839D01*
X86275464Y-63902841D01*
X86371718Y-64028282D01*
X86398280Y-64048664D01*
X86435767Y-64077428D01*
X86470423Y-64127852D01*
X86474500Y-64155970D01*
X86474500Y-64504165D01*
X86455593Y-64562356D01*
X86445504Y-64574169D01*
X83656413Y-67363259D01*
X83653228Y-67366176D01*
X83621807Y-67392542D01*
X83621806Y-67392544D01*
X83601292Y-67428075D01*
X83598972Y-67431716D01*
X83575446Y-67465316D01*
X83575442Y-67465324D01*
X83575051Y-67466786D01*
X83565170Y-67490640D01*
X83564414Y-67491948D01*
X83564410Y-67491960D01*
X83557287Y-67532349D01*
X83556353Y-67536564D01*
X83545736Y-67576187D01*
X83545736Y-67576193D01*
X83549312Y-67617072D01*
X83549500Y-67621373D01*
X83549500Y-67700500D01*
X83530593Y-67758691D01*
X83481093Y-67794655D01*
X83450500Y-67799500D01*
X82480252Y-67799500D01*
X82480251Y-67799500D01*
X82480241Y-67799501D01*
X82421772Y-67811132D01*
X82421766Y-67811134D01*
X82355451Y-67855445D01*
X82355445Y-67855451D01*
X82311134Y-67921766D01*
X82311132Y-67921772D01*
X82299501Y-67980241D01*
X82299500Y-67980253D01*
X82299500Y-69019746D01*
X82299501Y-69019758D01*
X82311132Y-69078227D01*
X82311133Y-69078231D01*
X82355448Y-69144552D01*
X82421769Y-69188867D01*
X82466231Y-69197711D01*
X82480241Y-69200498D01*
X82480246Y-69200498D01*
X82480252Y-69200500D01*
X82480253Y-69200500D01*
X85269747Y-69200500D01*
X85269748Y-69200500D01*
X85328231Y-69188867D01*
X85394552Y-69144552D01*
X85438867Y-69078231D01*
X85450500Y-69019748D01*
X85450500Y-67980252D01*
X85438867Y-67921769D01*
X85394552Y-67855448D01*
X85348736Y-67824834D01*
X85328233Y-67811134D01*
X85328231Y-67811133D01*
X85328228Y-67811132D01*
X85328227Y-67811132D01*
X85269758Y-67799501D01*
X85269748Y-67799500D01*
X85269747Y-67799500D01*
X84379834Y-67799500D01*
X84321643Y-67780593D01*
X84285679Y-67731093D01*
X84285679Y-67669907D01*
X84309830Y-67630496D01*
X87018583Y-64921742D01*
X87021760Y-64918829D01*
X87053194Y-64892455D01*
X87073714Y-64856911D01*
X87076012Y-64853303D01*
X87099554Y-64819684D01*
X87099942Y-64818236D01*
X87109838Y-64794345D01*
X87110588Y-64793045D01*
X87117709Y-64752656D01*
X87118640Y-64748452D01*
X87129264Y-64708807D01*
X87125687Y-64667922D01*
X87125500Y-64663623D01*
X87125500Y-64155970D01*
X87144407Y-64097779D01*
X87164233Y-64077428D01*
X87228282Y-64028282D01*
X87324536Y-63902841D01*
X87331258Y-63886613D01*
X87370996Y-63840088D01*
X87422722Y-63825500D01*
X88200500Y-63825500D01*
X88258691Y-63844407D01*
X88294655Y-63893907D01*
X88299500Y-63924500D01*
X88299500Y-64519746D01*
X88299501Y-64519758D01*
X88311132Y-64578227D01*
X88311134Y-64578233D01*
X88355445Y-64644548D01*
X88355448Y-64644552D01*
X88421769Y-64688867D01*
X88466231Y-64697711D01*
X88480241Y-64700498D01*
X88480246Y-64700498D01*
X88480252Y-64700500D01*
X88480253Y-64700500D01*
X89519747Y-64700500D01*
X89519748Y-64700500D01*
X89578231Y-64688867D01*
X89644552Y-64644552D01*
X89644552Y-64644551D01*
X89652659Y-64639135D01*
X89653937Y-64641048D01*
X89696454Y-64619379D01*
X89756887Y-64628943D01*
X89800156Y-64672203D01*
X89810105Y-64730080D01*
X89794318Y-64849999D01*
X89794318Y-64850000D01*
X89814955Y-65006758D01*
X89814957Y-65006766D01*
X89875462Y-65152838D01*
X89875462Y-65152839D01*
X89875464Y-65152841D01*
X89971718Y-65278282D01*
X90097159Y-65374536D01*
X90097160Y-65374536D01*
X90097161Y-65374537D01*
X90167021Y-65403474D01*
X90243238Y-65435044D01*
X90360809Y-65450522D01*
X90399999Y-65455682D01*
X90400000Y-65455682D01*
X90400001Y-65455682D01*
X90431352Y-65451554D01*
X90556762Y-65435044D01*
X90702841Y-65374536D01*
X90714731Y-65365411D01*
X90772407Y-65344987D01*
X90831073Y-65362363D01*
X90835258Y-65365404D01*
X90847159Y-65374536D01*
X90847160Y-65374536D01*
X90847161Y-65374537D01*
X90917021Y-65403474D01*
X90993238Y-65435044D01*
X91110809Y-65450522D01*
X91149999Y-65455682D01*
X91150000Y-65455682D01*
X91150001Y-65455682D01*
X91181352Y-65451554D01*
X91306762Y-65435044D01*
X91412615Y-65391197D01*
X91473611Y-65386397D01*
X91525780Y-65418366D01*
X91549195Y-65474894D01*
X91549500Y-65482662D01*
X91549500Y-67074165D01*
X91530593Y-67132356D01*
X91520504Y-67144169D01*
X90894170Y-67770504D01*
X90839653Y-67798281D01*
X90824166Y-67799500D01*
X88730252Y-67799500D01*
X88730251Y-67799500D01*
X88730241Y-67799501D01*
X88671772Y-67811132D01*
X88671766Y-67811134D01*
X88605451Y-67855445D01*
X88605445Y-67855451D01*
X88561134Y-67921766D01*
X88561132Y-67921772D01*
X88549501Y-67980241D01*
X88549500Y-67980253D01*
X88549500Y-69019746D01*
X88549501Y-69019758D01*
X88561132Y-69078227D01*
X88561133Y-69078231D01*
X88605448Y-69144552D01*
X88671769Y-69188867D01*
X88716231Y-69197711D01*
X88730241Y-69200498D01*
X88730246Y-69200498D01*
X88730252Y-69200500D01*
X88730253Y-69200500D01*
X91519747Y-69200500D01*
X91519748Y-69200500D01*
X91578231Y-69188867D01*
X91644552Y-69144552D01*
X91688867Y-69078231D01*
X91700500Y-69019748D01*
X91700500Y-67980252D01*
X91694992Y-67952559D01*
X91702182Y-67891798D01*
X91722086Y-67863240D01*
X91830497Y-67754830D01*
X91885013Y-67727053D01*
X91945445Y-67736625D01*
X91988710Y-67779889D01*
X91999500Y-67824834D01*
X91999500Y-70997838D01*
X91999311Y-71002155D01*
X91997623Y-71021448D01*
X91978058Y-71067536D01*
X91987060Y-71083017D01*
X91988810Y-71113603D01*
X91982881Y-71173797D01*
X91979985Y-71189713D01*
X91964881Y-71246088D01*
X91961613Y-71258290D01*
X91961602Y-71258330D01*
X91932804Y-71353259D01*
X91927791Y-71366359D01*
X91895462Y-71435690D01*
X91894255Y-71438105D01*
X91848883Y-71522989D01*
X91845773Y-71528052D01*
X91798740Y-71595221D01*
X91796455Y-71598233D01*
X91736512Y-71671275D01*
X91733247Y-71674877D01*
X91674877Y-71733247D01*
X91671275Y-71736512D01*
X91598233Y-71796455D01*
X91595221Y-71798740D01*
X91528052Y-71845773D01*
X91522989Y-71848883D01*
X91438105Y-71894255D01*
X91435690Y-71895462D01*
X91366359Y-71927791D01*
X91353259Y-71932804D01*
X91277827Y-71955687D01*
X91258325Y-71961602D01*
X91251144Y-71963526D01*
X91189713Y-71979985D01*
X91173797Y-71982881D01*
X91045446Y-71995523D01*
X91002155Y-71999311D01*
X90997838Y-71999500D01*
X85396071Y-71999500D01*
X85337880Y-71980593D01*
X85301916Y-71931093D01*
X85301916Y-71869907D01*
X85326067Y-71830496D01*
X85328273Y-71828288D01*
X85328282Y-71828282D01*
X85424536Y-71702841D01*
X85485044Y-71556762D01*
X85505682Y-71400000D01*
X85485044Y-71243238D01*
X85478001Y-71226236D01*
X85473200Y-71165243D01*
X85505168Y-71113073D01*
X85561695Y-71089656D01*
X85582387Y-71090198D01*
X85699999Y-71105682D01*
X85700000Y-71105682D01*
X85700001Y-71105682D01*
X85752927Y-71098714D01*
X85856762Y-71085044D01*
X85953941Y-71044791D01*
X88450001Y-71044791D01*
X88452909Y-71069874D01*
X88498213Y-71172477D01*
X88577522Y-71251786D01*
X88680127Y-71297090D01*
X88705203Y-71299999D01*
X89974998Y-71299999D01*
X89975000Y-71299998D01*
X90275000Y-71299998D01*
X90275001Y-71299999D01*
X91544790Y-71299999D01*
X91544791Y-71299998D01*
X91569874Y-71297090D01*
X91672477Y-71251786D01*
X91751787Y-71172476D01*
X91799722Y-71063912D01*
X91810751Y-71051586D01*
X91800000Y-71012817D01*
X91800000Y-70650001D01*
X91799999Y-70650000D01*
X90275001Y-70650000D01*
X90275000Y-70650001D01*
X90275000Y-71299998D01*
X89975000Y-71299998D01*
X89975000Y-70650001D01*
X89974999Y-70650000D01*
X88450002Y-70650000D01*
X88450001Y-70650001D01*
X88450001Y-71044791D01*
X85953941Y-71044791D01*
X86002841Y-71024536D01*
X86128282Y-70928282D01*
X86224536Y-70802841D01*
X86285044Y-70656762D01*
X86305682Y-70500000D01*
X86285934Y-70349999D01*
X88450000Y-70349999D01*
X88450001Y-70350000D01*
X89974999Y-70350000D01*
X89975000Y-70349999D01*
X90275000Y-70349999D01*
X90275001Y-70350000D01*
X91799998Y-70350000D01*
X91799999Y-70349999D01*
X91799999Y-69955210D01*
X91799998Y-69955208D01*
X91797090Y-69930125D01*
X91751786Y-69827522D01*
X91672477Y-69748213D01*
X91569872Y-69702909D01*
X91544797Y-69700000D01*
X90275001Y-69700000D01*
X90275000Y-69700001D01*
X90275000Y-70349999D01*
X89975000Y-70349999D01*
X89975000Y-69700001D01*
X89974999Y-69700000D01*
X88705210Y-69700000D01*
X88705208Y-69700001D01*
X88680125Y-69702909D01*
X88577522Y-69748213D01*
X88498213Y-69827522D01*
X88452909Y-69930127D01*
X88450000Y-69955202D01*
X88450000Y-70349999D01*
X86285934Y-70349999D01*
X86285044Y-70343238D01*
X86224537Y-70197161D01*
X86224537Y-70197160D01*
X86128286Y-70071723D01*
X86128285Y-70071722D01*
X86128282Y-70071718D01*
X86128277Y-70071714D01*
X86128276Y-70071713D01*
X86034817Y-70000000D01*
X86002841Y-69975464D01*
X86002840Y-69975463D01*
X86002838Y-69975462D01*
X85856766Y-69914957D01*
X85856758Y-69914955D01*
X85700001Y-69894318D01*
X85699999Y-69894318D01*
X85543238Y-69914955D01*
X85543238Y-69914956D01*
X85532984Y-69919203D01*
X85471987Y-69924001D01*
X85419820Y-69892029D01*
X85412788Y-69882740D01*
X85394552Y-69855448D01*
X85394548Y-69855445D01*
X85328233Y-69811134D01*
X85328231Y-69811133D01*
X85328228Y-69811132D01*
X85328227Y-69811132D01*
X85269758Y-69799501D01*
X85269748Y-69799500D01*
X82480252Y-69799500D01*
X82480251Y-69799500D01*
X82480241Y-69799501D01*
X82421772Y-69811132D01*
X82421766Y-69811134D01*
X82355451Y-69855445D01*
X82355445Y-69855451D01*
X82311134Y-69921766D01*
X82311132Y-69921772D01*
X82299501Y-69980241D01*
X82299500Y-69980253D01*
X82299500Y-71019746D01*
X82299501Y-71019758D01*
X82311132Y-71078227D01*
X82311134Y-71078233D01*
X82326286Y-71100909D01*
X82342895Y-71159797D01*
X82335436Y-71193791D01*
X82314957Y-71243236D01*
X82314955Y-71243241D01*
X82294318Y-71399999D01*
X82294318Y-71400000D01*
X82314955Y-71556758D01*
X82314957Y-71556766D01*
X82375462Y-71702838D01*
X82375462Y-71702839D01*
X82471713Y-71828276D01*
X82471718Y-71828282D01*
X82471722Y-71828285D01*
X82473933Y-71830496D01*
X82474953Y-71832498D01*
X82475668Y-71833430D01*
X82475495Y-71833562D01*
X82501710Y-71885013D01*
X82492139Y-71945445D01*
X82448874Y-71988710D01*
X82403929Y-71999500D01*
X69002162Y-71999500D01*
X68997845Y-71999311D01*
X68954554Y-71995523D01*
X68826201Y-71982881D01*
X68810284Y-71979985D01*
X68763909Y-71967560D01*
X68741669Y-71961601D01*
X68701271Y-71949347D01*
X68646739Y-71932804D01*
X68633639Y-71927791D01*
X68564308Y-71895462D01*
X68561893Y-71894255D01*
X68477009Y-71848883D01*
X68471946Y-71845773D01*
X68404777Y-71798740D01*
X68401765Y-71796455D01*
X68328723Y-71736512D01*
X68325121Y-71733247D01*
X68266751Y-71674877D01*
X68263486Y-71671275D01*
X68203543Y-71598233D01*
X68201258Y-71595221D01*
X68174328Y-71556762D01*
X68154222Y-71528048D01*
X68151115Y-71522989D01*
X68105733Y-71438085D01*
X68104536Y-71435690D01*
X68072207Y-71366359D01*
X68067194Y-71353259D01*
X68038398Y-71258330D01*
X68020012Y-71189710D01*
X68017118Y-71173804D01*
X68004482Y-71045519D01*
X68000687Y-71002140D01*
X68000500Y-70997840D01*
X68000500Y-70000004D01*
X68644341Y-70000004D01*
X68664935Y-70235400D01*
X68726098Y-70463667D01*
X68825959Y-70677818D01*
X68825963Y-70677826D01*
X68913497Y-70802839D01*
X68961505Y-70871401D01*
X69128599Y-71038495D01*
X69128602Y-71038497D01*
X69128603Y-71038498D01*
X69138522Y-71045443D01*
X69322171Y-71174035D01*
X69322172Y-71174035D01*
X69322173Y-71174036D01*
X69322181Y-71174040D01*
X69536333Y-71273901D01*
X69536337Y-71273903D01*
X69764592Y-71335063D01*
X69764596Y-71335063D01*
X69764599Y-71335064D01*
X69941028Y-71350500D01*
X69941034Y-71350500D01*
X70058972Y-71350500D01*
X70235400Y-71335064D01*
X70235401Y-71335063D01*
X70235408Y-71335063D01*
X70463663Y-71273903D01*
X70677829Y-71174035D01*
X70871401Y-71038495D01*
X71038495Y-70871401D01*
X71174035Y-70677830D01*
X71273903Y-70463663D01*
X71335063Y-70235408D01*
X71335064Y-70235400D01*
X71355659Y-70000004D01*
X71355659Y-69999995D01*
X71335064Y-69764599D01*
X71335063Y-69764596D01*
X71335063Y-69764592D01*
X71273903Y-69536337D01*
X71174035Y-69322171D01*
X71049667Y-69144554D01*
X71038498Y-69128603D01*
X71038497Y-69128602D01*
X71038495Y-69128599D01*
X70871401Y-68961505D01*
X70871397Y-68961502D01*
X70871396Y-68961501D01*
X70677826Y-68825963D01*
X70677818Y-68825959D01*
X70463666Y-68726098D01*
X70463667Y-68726098D01*
X70387578Y-68705710D01*
X70235408Y-68664937D01*
X70235407Y-68664936D01*
X70235400Y-68664935D01*
X70058972Y-68649500D01*
X70058966Y-68649500D01*
X69941034Y-68649500D01*
X69941028Y-68649500D01*
X69764599Y-68664935D01*
X69536332Y-68726098D01*
X69322181Y-68825959D01*
X69322173Y-68825963D01*
X69128603Y-68961501D01*
X68961501Y-69128603D01*
X68825964Y-69322171D01*
X68726097Y-69536337D01*
X68664935Y-69764599D01*
X68644341Y-69999995D01*
X68644341Y-70000004D01*
X68000500Y-70000004D01*
X68000500Y-60000000D01*
X73894548Y-60000000D01*
X73901815Y-60180342D01*
X73902474Y-60196682D01*
X73902474Y-60245717D01*
X73906420Y-60294603D01*
X73914346Y-60491285D01*
X73914346Y-60491291D01*
X73914347Y-60491296D01*
X73938070Y-60686674D01*
X73942019Y-60735580D01*
X73942019Y-60735581D01*
X73949887Y-60783992D01*
X73973611Y-60979379D01*
X74012985Y-61172247D01*
X74020851Y-61220647D01*
X74032587Y-61268263D01*
X74040446Y-61306758D01*
X74071959Y-61461122D01*
X74071962Y-61461134D01*
X74126726Y-61650203D01*
X74138462Y-61697816D01*
X74153990Y-61744329D01*
X74177513Y-61825539D01*
X74208756Y-61933401D01*
X74208759Y-61933410D01*
X74208760Y-61933412D01*
X74278549Y-62117432D01*
X74294087Y-62163970D01*
X74294087Y-62163971D01*
X74313317Y-62209105D01*
X74383106Y-62393124D01*
X74383110Y-62393133D01*
X74432892Y-62498047D01*
X74467486Y-62570953D01*
X74486717Y-62616088D01*
X74509513Y-62659523D01*
X74593892Y-62837347D01*
X74692298Y-63007792D01*
X74715104Y-63051244D01*
X74741325Y-63092710D01*
X74811630Y-63214480D01*
X74839733Y-63263155D01*
X74839736Y-63263159D01*
X74839737Y-63263161D01*
X74951538Y-63425132D01*
X74977767Y-63466610D01*
X75007230Y-63505817D01*
X75119041Y-63667803D01*
X75191674Y-63756762D01*
X75243523Y-63820266D01*
X75272992Y-63859482D01*
X75292162Y-63881120D01*
X75305518Y-63896197D01*
X75430001Y-64048661D01*
X75566359Y-64190625D01*
X75598877Y-64227330D01*
X75634250Y-64261307D01*
X75770602Y-64403264D01*
X75917921Y-64533778D01*
X75953310Y-64567769D01*
X75991304Y-64598789D01*
X76069358Y-64667939D01*
X76138634Y-64729313D01*
X76138634Y-64729312D01*
X76295981Y-64847551D01*
X76307462Y-64856925D01*
X76333985Y-64878580D01*
X76354086Y-64892455D01*
X76374358Y-64906447D01*
X76390826Y-64918822D01*
X76531704Y-65024686D01*
X76698058Y-65129882D01*
X76738435Y-65157752D01*
X76780916Y-65182278D01*
X76947274Y-65287477D01*
X77121564Y-65378951D01*
X77164038Y-65403474D01*
X77208356Y-65424503D01*
X77228436Y-65435042D01*
X77382632Y-65515970D01*
X77382631Y-65515970D01*
X77382637Y-65515972D01*
X77382638Y-65515973D01*
X77563717Y-65593123D01*
X77608033Y-65614152D01*
X77653903Y-65631548D01*
X77834977Y-65708697D01*
X77834981Y-65708698D01*
X77834982Y-65708699D01*
X77892391Y-65727864D01*
X78021697Y-65771033D01*
X78067541Y-65788420D01*
X78080332Y-65792125D01*
X78114653Y-65802067D01*
X78301349Y-65864395D01*
X78301350Y-65864395D01*
X78301353Y-65864395D01*
X78301357Y-65864397D01*
X78492471Y-65911502D01*
X78519988Y-65919473D01*
X78539584Y-65925150D01*
X78561493Y-65929622D01*
X78587649Y-65934962D01*
X78778753Y-65982065D01*
X78778755Y-65982065D01*
X78778758Y-65982066D01*
X78778757Y-65982066D01*
X78817338Y-65988335D01*
X78973054Y-66013641D01*
X79021094Y-66023450D01*
X79069777Y-66029360D01*
X79189161Y-66048762D01*
X79264071Y-66060937D01*
X79315638Y-66065099D01*
X79460270Y-66076775D01*
X79508955Y-66082687D01*
X79557952Y-66084660D01*
X79754158Y-66100500D01*
X79754163Y-66100500D01*
X79950967Y-66100500D01*
X80000000Y-66102476D01*
X80049033Y-66100500D01*
X80245837Y-66100500D01*
X80245842Y-66100500D01*
X80442050Y-66084660D01*
X80491045Y-66082687D01*
X80539732Y-66076774D01*
X80683022Y-66065207D01*
X80735929Y-66060937D01*
X80819819Y-66047302D01*
X80930212Y-66029362D01*
X80978906Y-66023450D01*
X81026959Y-66013639D01*
X81221247Y-65982065D01*
X81412360Y-65934959D01*
X81441483Y-65929014D01*
X81460416Y-65925150D01*
X81475649Y-65920737D01*
X81507515Y-65911505D01*
X81698643Y-65864397D01*
X81698646Y-65864395D01*
X81698650Y-65864395D01*
X81698651Y-65864395D01*
X81763570Y-65842721D01*
X81885369Y-65802058D01*
X81895469Y-65799134D01*
X81932448Y-65788424D01*
X81932459Y-65788420D01*
X81978308Y-65771031D01*
X82107444Y-65727919D01*
X82165018Y-65708699D01*
X82165018Y-65708698D01*
X82165023Y-65708697D01*
X82346113Y-65631541D01*
X82381359Y-65618174D01*
X82391968Y-65614152D01*
X82407583Y-65606742D01*
X82436278Y-65593125D01*
X82617362Y-65515973D01*
X82617362Y-65515972D01*
X82617369Y-65515970D01*
X82617368Y-65515970D01*
X82791657Y-65424496D01*
X82835962Y-65403474D01*
X82878424Y-65378957D01*
X83052726Y-65287477D01*
X83219100Y-65182267D01*
X83261565Y-65157752D01*
X83301942Y-65129882D01*
X83468301Y-65024682D01*
X83511665Y-64992095D01*
X83625653Y-64906438D01*
X83666015Y-64878580D01*
X83666014Y-64878580D01*
X83666018Y-64878578D01*
X83682894Y-64864798D01*
X83704002Y-64847562D01*
X83861365Y-64729313D01*
X83861366Y-64729312D01*
X83861366Y-64729313D01*
X83907021Y-64688865D01*
X84008698Y-64598786D01*
X84035563Y-64576854D01*
X84046686Y-64567773D01*
X84046685Y-64567773D01*
X84046690Y-64567769D01*
X84082053Y-64533800D01*
X84229395Y-64403267D01*
X84229397Y-64403265D01*
X84229398Y-64403265D01*
X84322042Y-64306810D01*
X84365755Y-64261300D01*
X84394500Y-64233692D01*
X84401118Y-64227336D01*
X84411053Y-64216120D01*
X84433625Y-64190640D01*
X84569996Y-64048664D01*
X84569995Y-64048664D01*
X84569999Y-64048661D01*
X84671373Y-63924500D01*
X84694484Y-63896192D01*
X84727009Y-63859481D01*
X84727009Y-63859482D01*
X84738336Y-63844407D01*
X84756470Y-63820273D01*
X84880959Y-63667803D01*
X84992771Y-63505813D01*
X85022239Y-63466601D01*
X85048462Y-63425132D01*
X85117780Y-63324707D01*
X85160269Y-63263153D01*
X85189939Y-63211760D01*
X85258681Y-63092696D01*
X85275394Y-63066268D01*
X85284901Y-63051236D01*
X85307701Y-63007792D01*
X85315480Y-62994318D01*
X85406109Y-62837345D01*
X85407422Y-62834579D01*
X85414887Y-62818844D01*
X85490498Y-62659498D01*
X85513284Y-62616086D01*
X85513286Y-62616082D01*
X85513286Y-62616083D01*
X85532513Y-62570953D01*
X85616890Y-62393133D01*
X85686689Y-62209087D01*
X85705914Y-62163968D01*
X85721438Y-62117461D01*
X85768850Y-61992450D01*
X85791245Y-61933401D01*
X85808802Y-61872780D01*
X85846013Y-61744313D01*
X85861538Y-61697815D01*
X85873266Y-61650227D01*
X85928039Y-61461130D01*
X85928039Y-61461126D01*
X85928041Y-61461122D01*
X85928041Y-61461123D01*
X85939179Y-61406558D01*
X85967415Y-61268250D01*
X85979148Y-61220652D01*
X85987013Y-61172253D01*
X86026388Y-60979383D01*
X86050115Y-60783969D01*
X86057982Y-60735572D01*
X86061929Y-60686674D01*
X86085654Y-60491285D01*
X86093580Y-60294602D01*
X86097526Y-60245722D01*
X86098183Y-60180358D01*
X86105452Y-60000000D01*
X86098183Y-59819643D01*
X86097526Y-59754277D01*
X86097205Y-59750313D01*
X86093580Y-59705395D01*
X86085654Y-59508715D01*
X86061928Y-59313317D01*
X86057983Y-59264430D01*
X86053737Y-59238313D01*
X86050113Y-59216009D01*
X86026388Y-59020617D01*
X85987012Y-58827740D01*
X85979148Y-58779350D01*
X85967416Y-58731753D01*
X85930311Y-58549998D01*
X85928041Y-58538877D01*
X85928041Y-58538878D01*
X85928040Y-58538877D01*
X85922256Y-58518907D01*
X85873272Y-58349795D01*
X85861537Y-58302184D01*
X85861536Y-58302178D01*
X85861536Y-58302177D01*
X85846009Y-58255670D01*
X85791245Y-58066599D01*
X85721449Y-57882566D01*
X85705916Y-57836037D01*
X85705916Y-57836036D01*
X85701033Y-57824577D01*
X85686689Y-57790911D01*
X85642475Y-57674329D01*
X85616894Y-57606875D01*
X85616893Y-57606875D01*
X85616890Y-57606867D01*
X85532513Y-57429046D01*
X85513281Y-57383907D01*
X85513281Y-57383908D01*
X85490486Y-57340476D01*
X85406109Y-57162655D01*
X85307701Y-56992207D01*
X85284899Y-56948762D01*
X85258673Y-56907289D01*
X85160267Y-56736845D01*
X85048462Y-56574867D01*
X85030831Y-56546986D01*
X85022244Y-56533406D01*
X85022236Y-56533396D01*
X84992765Y-56494176D01*
X84880961Y-56332200D01*
X84756476Y-56179733D01*
X84727008Y-56140518D01*
X84706455Y-56117319D01*
X84694481Y-56103802D01*
X84569999Y-55951339D01*
X84433640Y-55809374D01*
X84401123Y-55772670D01*
X84401120Y-55772667D01*
X84365751Y-55738694D01*
X84365750Y-55738693D01*
X84229398Y-55596736D01*
X84082075Y-55466219D01*
X84046690Y-55432231D01*
X84008678Y-55401194D01*
X83924452Y-55326578D01*
X83861366Y-55270687D01*
X83861366Y-55270688D01*
X83861365Y-55270687D01*
X83767298Y-55200000D01*
X83704018Y-55152448D01*
X83666021Y-55121425D01*
X83666015Y-55121420D01*
X83625637Y-55093549D01*
X83468289Y-54975310D01*
X83468290Y-54975310D01*
X83301940Y-54870117D01*
X83261570Y-54842251D01*
X83219079Y-54817718D01*
X83118190Y-54753920D01*
X83052726Y-54712523D01*
X83052722Y-54712520D01*
X83052719Y-54712519D01*
X83052718Y-54712518D01*
X82878445Y-54621053D01*
X82862263Y-54611710D01*
X82835962Y-54596526D01*
X82835952Y-54596521D01*
X82835950Y-54596520D01*
X82791641Y-54575495D01*
X82617369Y-54484030D01*
X82617368Y-54484030D01*
X82617362Y-54484027D01*
X82436285Y-54406877D01*
X82417574Y-54397999D01*
X82391968Y-54385848D01*
X82391969Y-54385849D01*
X82391967Y-54385848D01*
X82346096Y-54368451D01*
X82308582Y-54352468D01*
X82165023Y-54291303D01*
X82165017Y-54291301D01*
X82165010Y-54291298D01*
X82165011Y-54291298D01*
X81978315Y-54228971D01*
X81932466Y-54211582D01*
X81932467Y-54211582D01*
X81885347Y-54197933D01*
X81698647Y-54135604D01*
X81507540Y-54088500D01*
X81460422Y-54074852D01*
X81460420Y-54074851D01*
X81460418Y-54074851D01*
X81412351Y-54065038D01*
X81360157Y-54052173D01*
X81221247Y-54017935D01*
X81221244Y-54017934D01*
X81221243Y-54017934D01*
X81026965Y-53986361D01*
X80978902Y-53976549D01*
X80930210Y-53970637D01*
X80735926Y-53939063D01*
X80539745Y-53923226D01*
X80491056Y-53917314D01*
X80491051Y-53917313D01*
X80491045Y-53917313D01*
X80469087Y-53916428D01*
X80442027Y-53915337D01*
X80328818Y-53906198D01*
X80245842Y-53899500D01*
X80049010Y-53899500D01*
X80000000Y-53897525D01*
X79950990Y-53899500D01*
X79754158Y-53899500D01*
X79680491Y-53905447D01*
X79557972Y-53915337D01*
X79531067Y-53916421D01*
X79508955Y-53917313D01*
X79508947Y-53917313D01*
X79508945Y-53917314D01*
X79508946Y-53917314D01*
X79460254Y-53923226D01*
X79264074Y-53939063D01*
X79069789Y-53970637D01*
X79021100Y-53976549D01*
X79021096Y-53976549D01*
X79021094Y-53976550D01*
X79005795Y-53979673D01*
X78973034Y-53986361D01*
X78778757Y-54017934D01*
X78778755Y-54017934D01*
X78778753Y-54017935D01*
X78755092Y-54023767D01*
X78587648Y-54065038D01*
X78558058Y-54071078D01*
X78539582Y-54074851D01*
X78539579Y-54074851D01*
X78539578Y-54074852D01*
X78492459Y-54088500D01*
X78301353Y-54135604D01*
X78114652Y-54197933D01*
X78067538Y-54211581D01*
X78021683Y-54228971D01*
X77834978Y-54291302D01*
X77834979Y-54291302D01*
X77653897Y-54368454D01*
X77608036Y-54385847D01*
X77608035Y-54385847D01*
X77563714Y-54406877D01*
X77461031Y-54450626D01*
X77382638Y-54484027D01*
X77382632Y-54484030D01*
X77382631Y-54484030D01*
X77208358Y-54575494D01*
X77164032Y-54596529D01*
X77164031Y-54596530D01*
X77121555Y-54621053D01*
X77029106Y-54669574D01*
X76947274Y-54712523D01*
X76947272Y-54712524D01*
X76780921Y-54817718D01*
X76738440Y-54842245D01*
X76738441Y-54842244D01*
X76698058Y-54870117D01*
X76531710Y-54975310D01*
X76531711Y-54975310D01*
X76374362Y-55093549D01*
X76333978Y-55121425D01*
X76333979Y-55121425D01*
X76295981Y-55152448D01*
X76138634Y-55270687D01*
X75991317Y-55401199D01*
X75953313Y-55432228D01*
X75917924Y-55466219D01*
X75770602Y-55596736D01*
X75634249Y-55738694D01*
X75598882Y-55772664D01*
X75566359Y-55809374D01*
X75502110Y-55876264D01*
X75430004Y-55951336D01*
X75429996Y-55951346D01*
X75429995Y-55951346D01*
X75305518Y-56103802D01*
X75272993Y-56140516D01*
X75243523Y-56179733D01*
X75162084Y-56279477D01*
X75119041Y-56332197D01*
X75116573Y-56335773D01*
X75007235Y-56494176D01*
X74977761Y-56533399D01*
X74977757Y-56533406D01*
X74951538Y-56574867D01*
X74839733Y-56736845D01*
X74788421Y-56825718D01*
X74741326Y-56907289D01*
X74715101Y-56948762D01*
X74692298Y-56992207D01*
X74593892Y-57162653D01*
X74509513Y-57340476D01*
X74495127Y-57367886D01*
X74486716Y-57383914D01*
X74486715Y-57383917D01*
X74467486Y-57429046D01*
X74383110Y-57606865D01*
X74313317Y-57790894D01*
X74313317Y-57790895D01*
X74294086Y-57836032D01*
X74286726Y-57858076D01*
X74278550Y-57882566D01*
X74208758Y-58066593D01*
X74208758Y-58066592D01*
X74153990Y-58255670D01*
X74138462Y-58302184D01*
X74126726Y-58349796D01*
X74077743Y-58518907D01*
X74071961Y-58538870D01*
X74071670Y-58540294D01*
X74032587Y-58731736D01*
X74020852Y-58779348D01*
X74020851Y-58779355D01*
X74020851Y-58779354D01*
X74012985Y-58827752D01*
X73973611Y-59020621D01*
X73949887Y-59216006D01*
X73942019Y-59264421D01*
X73938070Y-59313325D01*
X73914347Y-59508705D01*
X73914346Y-59508715D01*
X73914327Y-59509194D01*
X73906420Y-59705395D01*
X73902475Y-59754277D01*
X73902474Y-59754284D01*
X73902474Y-59803317D01*
X73894548Y-60000000D01*
X68000500Y-60000000D01*
X68000500Y-50000004D01*
X68644341Y-50000004D01*
X68664935Y-50235400D01*
X68726098Y-50463667D01*
X68825959Y-50677818D01*
X68825963Y-50677826D01*
X68825964Y-50677828D01*
X68825965Y-50677829D01*
X68961505Y-50871401D01*
X69128599Y-51038495D01*
X69322171Y-51174035D01*
X69322172Y-51174035D01*
X69322173Y-51174036D01*
X69322181Y-51174040D01*
X69536333Y-51273901D01*
X69536337Y-51273903D01*
X69764592Y-51335063D01*
X69764596Y-51335063D01*
X69764599Y-51335064D01*
X69941028Y-51350500D01*
X69941034Y-51350500D01*
X70058972Y-51350500D01*
X70235400Y-51335064D01*
X70235401Y-51335063D01*
X70235408Y-51335063D01*
X70463663Y-51273903D01*
X70677829Y-51174035D01*
X70871401Y-51038495D01*
X71038495Y-50871401D01*
X71174035Y-50677830D01*
X71273903Y-50463663D01*
X71335063Y-50235408D01*
X71355659Y-50000004D01*
X88644341Y-50000004D01*
X88664935Y-50235400D01*
X88726098Y-50463667D01*
X88825959Y-50677818D01*
X88825963Y-50677826D01*
X88825964Y-50677828D01*
X88825965Y-50677829D01*
X88961505Y-50871401D01*
X89128599Y-51038495D01*
X89322171Y-51174035D01*
X89322172Y-51174035D01*
X89322173Y-51174036D01*
X89322181Y-51174040D01*
X89536333Y-51273901D01*
X89536337Y-51273903D01*
X89764592Y-51335063D01*
X89764596Y-51335063D01*
X89764599Y-51335064D01*
X89941028Y-51350500D01*
X89941034Y-51350500D01*
X90058972Y-51350500D01*
X90235400Y-51335064D01*
X90235401Y-51335063D01*
X90235408Y-51335063D01*
X90463663Y-51273903D01*
X90677829Y-51174035D01*
X90871401Y-51038495D01*
X91038495Y-50871401D01*
X91174035Y-50677830D01*
X91273903Y-50463663D01*
X91335063Y-50235408D01*
X91355659Y-50000000D01*
X91335063Y-49764592D01*
X91273903Y-49536337D01*
X91174035Y-49322171D01*
X91038495Y-49128599D01*
X90871401Y-48961505D01*
X90871397Y-48961502D01*
X90871396Y-48961501D01*
X90677826Y-48825963D01*
X90677818Y-48825959D01*
X90463666Y-48726098D01*
X90463667Y-48726098D01*
X90371010Y-48701271D01*
X90235408Y-48664937D01*
X90235407Y-48664936D01*
X90235400Y-48664935D01*
X90058972Y-48649500D01*
X90058966Y-48649500D01*
X89941034Y-48649500D01*
X89941028Y-48649500D01*
X89764599Y-48664935D01*
X89536332Y-48726098D01*
X89322181Y-48825959D01*
X89322173Y-48825963D01*
X89128603Y-48961501D01*
X88961501Y-49128603D01*
X88825964Y-49322171D01*
X88726097Y-49536337D01*
X88664935Y-49764599D01*
X88644341Y-49999995D01*
X88644341Y-50000004D01*
X71355659Y-50000004D01*
X71355659Y-50000000D01*
X71335063Y-49764592D01*
X71273903Y-49536337D01*
X71174035Y-49322171D01*
X71038495Y-49128599D01*
X70871401Y-48961505D01*
X70871397Y-48961502D01*
X70871396Y-48961501D01*
X70677826Y-48825963D01*
X70677818Y-48825959D01*
X70463666Y-48726098D01*
X70463667Y-48726098D01*
X70371010Y-48701271D01*
X70235408Y-48664937D01*
X70235407Y-48664936D01*
X70235400Y-48664935D01*
X70058972Y-48649500D01*
X70058966Y-48649500D01*
X69941034Y-48649500D01*
X69941028Y-48649500D01*
X69764599Y-48664935D01*
X69536332Y-48726098D01*
X69322181Y-48825959D01*
X69322173Y-48825963D01*
X69128603Y-48961501D01*
X68961501Y-49128603D01*
X68825964Y-49322171D01*
X68726097Y-49536337D01*
X68664935Y-49764599D01*
X68644341Y-49999995D01*
X68644341Y-50000004D01*
X68000500Y-50000004D01*
X68000500Y-49002158D01*
X68000687Y-48997861D01*
X68004476Y-48954544D01*
X68017118Y-48826191D01*
X68020011Y-48810293D01*
X68038406Y-48741641D01*
X68067197Y-48646730D01*
X68072207Y-48633639D01*
X68099292Y-48575555D01*
X68104551Y-48564276D01*
X68105718Y-48561943D01*
X68151123Y-48476994D01*
X68154212Y-48471965D01*
X68201271Y-48404759D01*
X68203528Y-48401784D01*
X68263508Y-48328698D01*
X68266741Y-48325131D01*
X68325131Y-48266741D01*
X68328698Y-48263508D01*
X68401784Y-48203528D01*
X68404759Y-48201271D01*
X68471965Y-48154212D01*
X68476994Y-48151123D01*
X68561943Y-48105718D01*
X68564276Y-48104551D01*
X68633641Y-48072205D01*
X68646730Y-48067197D01*
X68741641Y-48038406D01*
X68810293Y-48020011D01*
X68826191Y-48017118D01*
X68954542Y-48004477D01*
X68997860Y-48000687D01*
X69002159Y-48000500D01*
X90997840Y-48000500D01*
X91002140Y-48000687D01*
G37*
%TD.AperFunction*%
%TD*%
M02*
