%TF.GenerationSoftware,KiCad,Pcbnew,7.0.5.1-1-g8f565ef7f0-dirty-deb11*%
%TF.CreationDate,2023-06-03T20:06:42+00:00*%
%TF.ProjectId,pedalboard-led-ring,70656461-6c62-46f6-9172-642d6c65642d,1.0.0*%
%TF.SameCoordinates,Original*%
%TF.FileFunction,Copper,L2,Bot*%
%TF.FilePolarity,Positive*%
%FSLAX46Y46*%
G04 Gerber Fmt 4.6, Leading zero omitted, Abs format (unit mm)*
G04 Created by KiCad (PCBNEW 7.0.5.1-1-g8f565ef7f0-dirty-deb11) date 2023-06-03 20:06:42*
%MOMM*%
%LPD*%
G01*
G04 APERTURE LIST*
%TA.AperFunction,SMDPad,CuDef*%
%ADD10R,1.000000X2.750000*%
%TD*%
%TA.AperFunction,SMDPad,CuDef*%
%ADD11R,2.750000X1.000000*%
%TD*%
%TA.AperFunction,ViaPad*%
%ADD12C,0.800000*%
%TD*%
%TA.AperFunction,Conductor*%
%ADD13C,0.250000*%
%TD*%
G04 APERTURE END LIST*
D10*
%TO.P,J1,1,Pin_1*%
%TO.N,VCC*%
X90500000Y-56875000D03*
%TO.P,J1,2,Pin_2*%
%TO.N,GND*%
X90500000Y-63125000D03*
%TO.P,J1,3,Pin_3*%
%TO.N,Net-(J1-Pin_3)*%
X88500000Y-56875000D03*
%TO.P,J1,4,Pin_4*%
%TO.N,Net-(D12-DOUT)*%
X88500000Y-63125000D03*
%TD*%
D11*
%TO.P,J2,1,Pin_1*%
%TO.N,VCC*%
X90125000Y-70500000D03*
%TO.P,J2,2,Pin_2*%
%TO.N,GND*%
X83875000Y-70500000D03*
%TO.P,J2,3,Pin_3*%
%TO.N,Net-(J1-Pin_3)*%
X90125000Y-68500000D03*
%TO.P,J2,4,Pin_4*%
%TO.N,Net-(D12-DOUT)*%
X83875000Y-68500000D03*
%TD*%
D12*
%TO.N,Net-(D12-DOUT)*%
X86800000Y-63600000D03*
%TO.N,VCC*%
X74000000Y-52000000D03*
X89928203Y-58803848D03*
X70071797Y-61196152D03*
X76071797Y-69196152D03*
X81196152Y-69928203D03*
X83928203Y-50803848D03*
X72000000Y-66000000D03*
X86000000Y-67940000D03*
X70803848Y-56071797D03*
X88000000Y-54000000D03*
X88260000Y-66020000D03*
X78803848Y-50071797D03*
%TO.N,GND*%
X90200000Y-61400000D03*
X82900000Y-71400000D03*
X90950000Y-61400000D03*
X90900000Y-64900000D03*
X90150000Y-64900000D03*
X84900000Y-71400000D03*
X85700000Y-70500000D03*
X83900000Y-71400000D03*
%TO.N,Net-(J1-Pin_3)*%
X87910000Y-61150000D03*
%TD*%
D13*
%TO.N,Net-(D12-DOUT)*%
X88625000Y-63500000D02*
X86900000Y-63500000D01*
X86800000Y-64680000D02*
X83875000Y-67605000D01*
X86900000Y-63500000D02*
X86800000Y-63600000D01*
X83875000Y-67605000D02*
X83875000Y-68500000D01*
X86800000Y-63600000D02*
X86800000Y-64680000D01*
%TO.N,GND*%
X91100000Y-64900000D02*
X90400000Y-64900000D01*
X83800000Y-70500000D02*
X82900000Y-71400000D01*
X83875000Y-70500000D02*
X85700000Y-70500000D01*
X83875000Y-70500000D02*
X83875000Y-71375000D01*
X84000000Y-70500000D02*
X84900000Y-71400000D01*
X83875000Y-71375000D02*
X83900000Y-71400000D01*
%TO.N,Net-(J1-Pin_3)*%
X87910000Y-61200000D02*
X88550000Y-60560000D01*
X91655000Y-67470000D02*
X91125000Y-68000000D01*
X88500000Y-56875000D02*
X88500000Y-60560000D01*
X91107021Y-60560000D02*
X91655000Y-61107979D01*
X91655000Y-61107979D02*
X91655000Y-67470000D01*
X88550000Y-60560000D02*
X91107021Y-60560000D01*
%TD*%
%TA.AperFunction,Conductor*%
%TO.N,VCC*%
G36*
X91002140Y-48000687D02*
G01*
X91045464Y-48004477D01*
X91173816Y-48017119D01*
X91189696Y-48020008D01*
X91257626Y-48038209D01*
X91259036Y-48038612D01*
X91353264Y-48067196D01*
X91366359Y-48072207D01*
X91435690Y-48104536D01*
X91438085Y-48105733D01*
X91522989Y-48151115D01*
X91528052Y-48154225D01*
X91595221Y-48201258D01*
X91598233Y-48203543D01*
X91632865Y-48231964D01*
X91671280Y-48263491D01*
X91674877Y-48266751D01*
X91733247Y-48325121D01*
X91736512Y-48328723D01*
X91796455Y-48401765D01*
X91798740Y-48404777D01*
X91845773Y-48471946D01*
X91848883Y-48477009D01*
X91894255Y-48561893D01*
X91895462Y-48564308D01*
X91927791Y-48633639D01*
X91932804Y-48646739D01*
X91961364Y-48740887D01*
X91961809Y-48742445D01*
X91979986Y-48810282D01*
X91982882Y-48826202D01*
X91995520Y-48954525D01*
X91999311Y-48997843D01*
X91999500Y-49002161D01*
X91999500Y-60753144D01*
X91980593Y-60811335D01*
X91931093Y-60847299D01*
X91869907Y-60847299D01*
X91830497Y-60823148D01*
X91348762Y-60341414D01*
X91345843Y-60338229D01*
X91319477Y-60306806D01*
X91296839Y-60293736D01*
X91283939Y-60286288D01*
X91280309Y-60283975D01*
X91246705Y-60260446D01*
X91246700Y-60260443D01*
X91245245Y-60260054D01*
X91221369Y-60250164D01*
X91220066Y-60249411D01*
X91179673Y-60242289D01*
X91175457Y-60241354D01*
X91149174Y-60234312D01*
X91135828Y-60230736D01*
X91135827Y-60230736D01*
X91131402Y-60231123D01*
X91094947Y-60234312D01*
X91090647Y-60234500D01*
X88924500Y-60234500D01*
X88866309Y-60215593D01*
X88830345Y-60166093D01*
X88825500Y-60135500D01*
X88825500Y-58549500D01*
X88844407Y-58491309D01*
X88893907Y-58455345D01*
X88924500Y-58450500D01*
X89019747Y-58450500D01*
X89019748Y-58450500D01*
X89078231Y-58438867D01*
X89144552Y-58394552D01*
X89188867Y-58328231D01*
X89200500Y-58269748D01*
X89200500Y-57025000D01*
X89700001Y-57025000D01*
X89700001Y-58294791D01*
X89702909Y-58319874D01*
X89748213Y-58422477D01*
X89827522Y-58501786D01*
X89930127Y-58547090D01*
X89955203Y-58549999D01*
X90349998Y-58549999D01*
X90350000Y-58549998D01*
X90650000Y-58549998D01*
X90650001Y-58549999D01*
X91044790Y-58549999D01*
X91044791Y-58549998D01*
X91069874Y-58547090D01*
X91172477Y-58501786D01*
X91251786Y-58422477D01*
X91297090Y-58319872D01*
X91299999Y-58294797D01*
X91300000Y-58294795D01*
X91300000Y-57025001D01*
X91299999Y-57025000D01*
X90650001Y-57025000D01*
X90650000Y-57025001D01*
X90650000Y-58549998D01*
X90350000Y-58549998D01*
X90350000Y-57025000D01*
X89700001Y-57025000D01*
X89200500Y-57025000D01*
X89200500Y-56724998D01*
X89700000Y-56724998D01*
X89700001Y-56725000D01*
X90349999Y-56725000D01*
X90350000Y-56724999D01*
X90350000Y-55200000D01*
X90650000Y-55200000D01*
X90650000Y-56724999D01*
X90650001Y-56725000D01*
X91299998Y-56725000D01*
X91299999Y-56724998D01*
X91299999Y-55455209D01*
X91299998Y-55455208D01*
X91297090Y-55430125D01*
X91251786Y-55327522D01*
X91172477Y-55248213D01*
X91069872Y-55202909D01*
X91044797Y-55200000D01*
X90650000Y-55200000D01*
X90350000Y-55200000D01*
X89955210Y-55200000D01*
X89955207Y-55200001D01*
X89930125Y-55202909D01*
X89827522Y-55248213D01*
X89748213Y-55327522D01*
X89702909Y-55430127D01*
X89700000Y-55455202D01*
X89700000Y-56724998D01*
X89200500Y-56724998D01*
X89200500Y-55480252D01*
X89188867Y-55421769D01*
X89144552Y-55355448D01*
X89144548Y-55355445D01*
X89078233Y-55311134D01*
X89078231Y-55311133D01*
X89078228Y-55311132D01*
X89078227Y-55311132D01*
X89019758Y-55299501D01*
X89019748Y-55299500D01*
X87980252Y-55299500D01*
X87980251Y-55299500D01*
X87980241Y-55299501D01*
X87921772Y-55311132D01*
X87921766Y-55311134D01*
X87855451Y-55355445D01*
X87855445Y-55355451D01*
X87811134Y-55421766D01*
X87811132Y-55421772D01*
X87799501Y-55480241D01*
X87799500Y-55480253D01*
X87799500Y-58269746D01*
X87799501Y-58269758D01*
X87811132Y-58328227D01*
X87811133Y-58328231D01*
X87855448Y-58394552D01*
X87921769Y-58438867D01*
X87966231Y-58447711D01*
X87980241Y-58450498D01*
X87980246Y-58450498D01*
X87980252Y-58450500D01*
X88075500Y-58450500D01*
X88133691Y-58469407D01*
X88169655Y-58518907D01*
X88174500Y-58549500D01*
X88174500Y-60434165D01*
X88155593Y-60492356D01*
X88145502Y-60504170D01*
X88117147Y-60532524D01*
X88062630Y-60560300D01*
X88034223Y-60560672D01*
X87910001Y-60544318D01*
X87909999Y-60544318D01*
X87753241Y-60564955D01*
X87753233Y-60564957D01*
X87607161Y-60625462D01*
X87607160Y-60625462D01*
X87481723Y-60721713D01*
X87481713Y-60721723D01*
X87385462Y-60847160D01*
X87385462Y-60847161D01*
X87324957Y-60993233D01*
X87324955Y-60993241D01*
X87304318Y-61149999D01*
X87304318Y-61150000D01*
X87324955Y-61306758D01*
X87324957Y-61306766D01*
X87385462Y-61452838D01*
X87385462Y-61452839D01*
X87465202Y-61556758D01*
X87481718Y-61578282D01*
X87607159Y-61674536D01*
X87738386Y-61728892D01*
X87784911Y-61768627D01*
X87799500Y-61820355D01*
X87799500Y-63075500D01*
X87780593Y-63133691D01*
X87731093Y-63169655D01*
X87700500Y-63174500D01*
X87265514Y-63174500D01*
X87207323Y-63155593D01*
X87205247Y-63154042D01*
X87102838Y-63075462D01*
X86956766Y-63014957D01*
X86956758Y-63014955D01*
X86800001Y-62994318D01*
X86799999Y-62994318D01*
X86643241Y-63014955D01*
X86643233Y-63014957D01*
X86497161Y-63075462D01*
X86497160Y-63075462D01*
X86371723Y-63171713D01*
X86371713Y-63171723D01*
X86275462Y-63297160D01*
X86275462Y-63297161D01*
X86214957Y-63443233D01*
X86214955Y-63443241D01*
X86194318Y-63599999D01*
X86194318Y-63600000D01*
X86214955Y-63756758D01*
X86214957Y-63756766D01*
X86275462Y-63902838D01*
X86275462Y-63902839D01*
X86275464Y-63902841D01*
X86371718Y-64028282D01*
X86398280Y-64048664D01*
X86435767Y-64077428D01*
X86470423Y-64127852D01*
X86474500Y-64155970D01*
X86474500Y-64504165D01*
X86455593Y-64562356D01*
X86445504Y-64574169D01*
X83656413Y-67363259D01*
X83653228Y-67366176D01*
X83621807Y-67392542D01*
X83621806Y-67392544D01*
X83601292Y-67428075D01*
X83598972Y-67431716D01*
X83575446Y-67465316D01*
X83575442Y-67465324D01*
X83575051Y-67466786D01*
X83565170Y-67490640D01*
X83564414Y-67491948D01*
X83564410Y-67491960D01*
X83557287Y-67532349D01*
X83556353Y-67536564D01*
X83545736Y-67576187D01*
X83545736Y-67576193D01*
X83549312Y-67617072D01*
X83549500Y-67621373D01*
X83549500Y-67700500D01*
X83530593Y-67758691D01*
X83481093Y-67794655D01*
X83450500Y-67799500D01*
X82480252Y-67799500D01*
X82480251Y-67799500D01*
X82480241Y-67799501D01*
X82421772Y-67811132D01*
X82421766Y-67811134D01*
X82355451Y-67855445D01*
X82355445Y-67855451D01*
X82311134Y-67921766D01*
X82311132Y-67921772D01*
X82299501Y-67980241D01*
X82299500Y-67980253D01*
X82299500Y-69019746D01*
X82299501Y-69019758D01*
X82311132Y-69078227D01*
X82311133Y-69078231D01*
X82355448Y-69144552D01*
X82421769Y-69188867D01*
X82466231Y-69197711D01*
X82480241Y-69200498D01*
X82480246Y-69200498D01*
X82480252Y-69200500D01*
X82480253Y-69200500D01*
X85269747Y-69200500D01*
X85269748Y-69200500D01*
X85328231Y-69188867D01*
X85394552Y-69144552D01*
X85438867Y-69078231D01*
X85450500Y-69019748D01*
X85450500Y-67980252D01*
X85438867Y-67921769D01*
X85394552Y-67855448D01*
X85348736Y-67824834D01*
X85328233Y-67811134D01*
X85328231Y-67811133D01*
X85328228Y-67811132D01*
X85328227Y-67811132D01*
X85269758Y-67799501D01*
X85269748Y-67799500D01*
X85269747Y-67799500D01*
X84379834Y-67799500D01*
X84321643Y-67780593D01*
X84285679Y-67731093D01*
X84285679Y-67669907D01*
X84309830Y-67630496D01*
X87018583Y-64921742D01*
X87021760Y-64918829D01*
X87053194Y-64892455D01*
X87073714Y-64856911D01*
X87076012Y-64853303D01*
X87099554Y-64819684D01*
X87099941Y-64818236D01*
X87109838Y-64794345D01*
X87110588Y-64793045D01*
X87117709Y-64752656D01*
X87118640Y-64748452D01*
X87129264Y-64708807D01*
X87125687Y-64667922D01*
X87125500Y-64663623D01*
X87125500Y-64155970D01*
X87144407Y-64097779D01*
X87164233Y-64077428D01*
X87228282Y-64028282D01*
X87324536Y-63902841D01*
X87331257Y-63886613D01*
X87370996Y-63840088D01*
X87422722Y-63825500D01*
X87700500Y-63825500D01*
X87758691Y-63844407D01*
X87794655Y-63893907D01*
X87799500Y-63924500D01*
X87799500Y-64519746D01*
X87799501Y-64519758D01*
X87811132Y-64578227D01*
X87811134Y-64578233D01*
X87855445Y-64644548D01*
X87855448Y-64644552D01*
X87921769Y-64688867D01*
X87966231Y-64697711D01*
X87980241Y-64700498D01*
X87980246Y-64700498D01*
X87980252Y-64700500D01*
X87980253Y-64700500D01*
X89019747Y-64700500D01*
X89019748Y-64700500D01*
X89078231Y-64688867D01*
X89144552Y-64644552D01*
X89188867Y-64578231D01*
X89200500Y-64519748D01*
X89200500Y-61730252D01*
X89188867Y-61671769D01*
X89144552Y-61605448D01*
X89103887Y-61578276D01*
X89078233Y-61561134D01*
X89078231Y-61561133D01*
X89078228Y-61561132D01*
X89078227Y-61561132D01*
X89019758Y-61549501D01*
X89019748Y-61549500D01*
X89019747Y-61549500D01*
X88542663Y-61549500D01*
X88484472Y-61530593D01*
X88448508Y-61481093D01*
X88448508Y-61419907D01*
X88451199Y-61412615D01*
X88495042Y-61306767D01*
X88495042Y-61306766D01*
X88495044Y-61306762D01*
X88515682Y-61150000D01*
X88510960Y-61114138D01*
X88522109Y-61053981D01*
X88539106Y-61031218D01*
X88655829Y-60914496D01*
X88710347Y-60886719D01*
X88725833Y-60885500D01*
X89637124Y-60885500D01*
X89695315Y-60904407D01*
X89731279Y-60953907D01*
X89731279Y-61015093D01*
X89715666Y-61044767D01*
X89675462Y-61097161D01*
X89614957Y-61243233D01*
X89614955Y-61243241D01*
X89594318Y-61399999D01*
X89594318Y-61400000D01*
X89614955Y-61556758D01*
X89614957Y-61556766D01*
X89675462Y-61702838D01*
X89675462Y-61702839D01*
X89775668Y-61833431D01*
X89774283Y-61834493D01*
X89798279Y-61881569D01*
X89799500Y-61897071D01*
X89799500Y-64363211D01*
X89780593Y-64421402D01*
X89760768Y-64441752D01*
X89721721Y-64471714D01*
X89721718Y-64471716D01*
X89625462Y-64597160D01*
X89625462Y-64597161D01*
X89564957Y-64743233D01*
X89564955Y-64743241D01*
X89544318Y-64899999D01*
X89544318Y-64900000D01*
X89564955Y-65056758D01*
X89564957Y-65056766D01*
X89625462Y-65202838D01*
X89625462Y-65202839D01*
X89720499Y-65326694D01*
X89721718Y-65328282D01*
X89847159Y-65424536D01*
X89847160Y-65424536D01*
X89847161Y-65424537D01*
X89922977Y-65455941D01*
X89993238Y-65485044D01*
X90110809Y-65500522D01*
X90149999Y-65505682D01*
X90150000Y-65505682D01*
X90150001Y-65505682D01*
X90181352Y-65501554D01*
X90306762Y-65485044D01*
X90452841Y-65424536D01*
X90464731Y-65415411D01*
X90522407Y-65394987D01*
X90581073Y-65412363D01*
X90585258Y-65415404D01*
X90597159Y-65424536D01*
X90597160Y-65424536D01*
X90597161Y-65424537D01*
X90672977Y-65455941D01*
X90743238Y-65485044D01*
X90860809Y-65500522D01*
X90899999Y-65505682D01*
X90900000Y-65505682D01*
X90900001Y-65505682D01*
X90931352Y-65501554D01*
X91056762Y-65485044D01*
X91192614Y-65428771D01*
X91253611Y-65423971D01*
X91305780Y-65455941D01*
X91329195Y-65512469D01*
X91329500Y-65520236D01*
X91329500Y-67294166D01*
X91310593Y-67352357D01*
X91300509Y-67364163D01*
X91088487Y-67576187D01*
X90894170Y-67770504D01*
X90839653Y-67798281D01*
X90824166Y-67799500D01*
X88730252Y-67799500D01*
X88730251Y-67799500D01*
X88730241Y-67799501D01*
X88671772Y-67811132D01*
X88671766Y-67811134D01*
X88605451Y-67855445D01*
X88605445Y-67855451D01*
X88561134Y-67921766D01*
X88561132Y-67921772D01*
X88549501Y-67980241D01*
X88549500Y-67980253D01*
X88549500Y-69019746D01*
X88549501Y-69019758D01*
X88561132Y-69078227D01*
X88561133Y-69078231D01*
X88605448Y-69144552D01*
X88671769Y-69188867D01*
X88716231Y-69197711D01*
X88730241Y-69200498D01*
X88730246Y-69200498D01*
X88730252Y-69200500D01*
X88730253Y-69200500D01*
X91519747Y-69200500D01*
X91519748Y-69200500D01*
X91578231Y-69188867D01*
X91644552Y-69144552D01*
X91688867Y-69078231D01*
X91700500Y-69019748D01*
X91700500Y-67980252D01*
X91694992Y-67952559D01*
X91702182Y-67891798D01*
X91722086Y-67863240D01*
X91830497Y-67754830D01*
X91885013Y-67727053D01*
X91945445Y-67736625D01*
X91988710Y-67779889D01*
X91999500Y-67824834D01*
X91999500Y-70997837D01*
X91999311Y-71002154D01*
X91997623Y-71021447D01*
X91978058Y-71067536D01*
X91987060Y-71083017D01*
X91988810Y-71113602D01*
X91982882Y-71173796D01*
X91979986Y-71189716D01*
X91961809Y-71257553D01*
X91961364Y-71259111D01*
X91932804Y-71353259D01*
X91927791Y-71366359D01*
X91895462Y-71435690D01*
X91894255Y-71438105D01*
X91848883Y-71522989D01*
X91845773Y-71528052D01*
X91798740Y-71595221D01*
X91796455Y-71598233D01*
X91736512Y-71671275D01*
X91733247Y-71674877D01*
X91674877Y-71733247D01*
X91671275Y-71736512D01*
X91598233Y-71796455D01*
X91595221Y-71798740D01*
X91528052Y-71845773D01*
X91522989Y-71848883D01*
X91438105Y-71894255D01*
X91435690Y-71895462D01*
X91366359Y-71927791D01*
X91353259Y-71932804D01*
X91259111Y-71961364D01*
X91257553Y-71961809D01*
X91189716Y-71979986D01*
X91173796Y-71982882D01*
X91045473Y-71995520D01*
X91002156Y-71999311D01*
X90997838Y-71999500D01*
X85396071Y-71999500D01*
X85337880Y-71980593D01*
X85301916Y-71931093D01*
X85301916Y-71869907D01*
X85326067Y-71830496D01*
X85328273Y-71828288D01*
X85328282Y-71828282D01*
X85424536Y-71702841D01*
X85485044Y-71556762D01*
X85505682Y-71400000D01*
X85485044Y-71243238D01*
X85478001Y-71226236D01*
X85473200Y-71165243D01*
X85505168Y-71113073D01*
X85561695Y-71089656D01*
X85582387Y-71090198D01*
X85699999Y-71105682D01*
X85700000Y-71105682D01*
X85700001Y-71105682D01*
X85752927Y-71098714D01*
X85856762Y-71085044D01*
X85953941Y-71044791D01*
X88450001Y-71044791D01*
X88452909Y-71069874D01*
X88498213Y-71172477D01*
X88577522Y-71251786D01*
X88680127Y-71297090D01*
X88705203Y-71299999D01*
X89974998Y-71299999D01*
X89974999Y-71299998D01*
X90275000Y-71299998D01*
X90275001Y-71299999D01*
X91544790Y-71299999D01*
X91544791Y-71299998D01*
X91569874Y-71297090D01*
X91672477Y-71251786D01*
X91751787Y-71172476D01*
X91799722Y-71063912D01*
X91810751Y-71051586D01*
X91800000Y-71012817D01*
X91800000Y-70650001D01*
X91799999Y-70650000D01*
X90275001Y-70650000D01*
X90275000Y-70650001D01*
X90275000Y-71299998D01*
X89974999Y-71299998D01*
X89975000Y-71299997D01*
X89975000Y-70650001D01*
X89974999Y-70650000D01*
X88450002Y-70650000D01*
X88450001Y-70650001D01*
X88450001Y-71044791D01*
X85953941Y-71044791D01*
X86002841Y-71024536D01*
X86128282Y-70928282D01*
X86224536Y-70802841D01*
X86285044Y-70656762D01*
X86305682Y-70500000D01*
X86285934Y-70349999D01*
X88450000Y-70349999D01*
X88450001Y-70350000D01*
X89974999Y-70350000D01*
X89975000Y-70349999D01*
X90275000Y-70349999D01*
X90275001Y-70350000D01*
X91799998Y-70350000D01*
X91799999Y-70349999D01*
X91799999Y-69955210D01*
X91799998Y-69955208D01*
X91797090Y-69930125D01*
X91751786Y-69827522D01*
X91672477Y-69748213D01*
X91569872Y-69702909D01*
X91544797Y-69700000D01*
X90275001Y-69700000D01*
X90275000Y-69700001D01*
X90275000Y-70349999D01*
X89975000Y-70349999D01*
X89975000Y-69700001D01*
X89974999Y-69700000D01*
X88705210Y-69700000D01*
X88705208Y-69700001D01*
X88680125Y-69702909D01*
X88577522Y-69748213D01*
X88498213Y-69827522D01*
X88452909Y-69930127D01*
X88450000Y-69955202D01*
X88450000Y-70349999D01*
X86285934Y-70349999D01*
X86285044Y-70343238D01*
X86224537Y-70197161D01*
X86224537Y-70197160D01*
X86128286Y-70071723D01*
X86128285Y-70071722D01*
X86128282Y-70071718D01*
X86128277Y-70071714D01*
X86128276Y-70071713D01*
X86034817Y-70000000D01*
X86002841Y-69975464D01*
X86002840Y-69975463D01*
X86002838Y-69975462D01*
X85856766Y-69914957D01*
X85856758Y-69914955D01*
X85700001Y-69894318D01*
X85699999Y-69894318D01*
X85543238Y-69914955D01*
X85543238Y-69914956D01*
X85532984Y-69919203D01*
X85471987Y-69924001D01*
X85419820Y-69892029D01*
X85412788Y-69882740D01*
X85394552Y-69855448D01*
X85394548Y-69855445D01*
X85328233Y-69811134D01*
X85328231Y-69811133D01*
X85328228Y-69811132D01*
X85328227Y-69811132D01*
X85269758Y-69799501D01*
X85269748Y-69799500D01*
X82480252Y-69799500D01*
X82480251Y-69799500D01*
X82480241Y-69799501D01*
X82421772Y-69811132D01*
X82421766Y-69811134D01*
X82355451Y-69855445D01*
X82355445Y-69855451D01*
X82311134Y-69921766D01*
X82311132Y-69921772D01*
X82299501Y-69980241D01*
X82299500Y-69980253D01*
X82299500Y-71019746D01*
X82299501Y-71019758D01*
X82311132Y-71078227D01*
X82311134Y-71078233D01*
X82326286Y-71100909D01*
X82342895Y-71159797D01*
X82335436Y-71193791D01*
X82314957Y-71243236D01*
X82314955Y-71243241D01*
X82294318Y-71399999D01*
X82294318Y-71400000D01*
X82314955Y-71556758D01*
X82314957Y-71556766D01*
X82375462Y-71702838D01*
X82375462Y-71702839D01*
X82471713Y-71828276D01*
X82471718Y-71828282D01*
X82471722Y-71828285D01*
X82473933Y-71830496D01*
X82474953Y-71832498D01*
X82475668Y-71833430D01*
X82475495Y-71833562D01*
X82501710Y-71885013D01*
X82492139Y-71945445D01*
X82448874Y-71988710D01*
X82403929Y-71999500D01*
X69002162Y-71999500D01*
X68997844Y-71999311D01*
X68954525Y-71995520D01*
X68826202Y-71982882D01*
X68810284Y-71979986D01*
X68773391Y-71970101D01*
X68742445Y-71961809D01*
X68740887Y-71961364D01*
X68646739Y-71932804D01*
X68633639Y-71927791D01*
X68564308Y-71895462D01*
X68561893Y-71894255D01*
X68477009Y-71848883D01*
X68471946Y-71845773D01*
X68404777Y-71798740D01*
X68401765Y-71796455D01*
X68328723Y-71736512D01*
X68325121Y-71733247D01*
X68266751Y-71674877D01*
X68263486Y-71671275D01*
X68203543Y-71598233D01*
X68201258Y-71595221D01*
X68174328Y-71556762D01*
X68154222Y-71528048D01*
X68151115Y-71522989D01*
X68105733Y-71438085D01*
X68104536Y-71435690D01*
X68072207Y-71366359D01*
X68067194Y-71353259D01*
X68038612Y-71259036D01*
X68038209Y-71257626D01*
X68020008Y-71189696D01*
X68017119Y-71173816D01*
X68004476Y-71045447D01*
X68004419Y-71044791D01*
X68000687Y-71002140D01*
X68000500Y-70997840D01*
X68000500Y-70000004D01*
X68644341Y-70000004D01*
X68664935Y-70235400D01*
X68726098Y-70463667D01*
X68825959Y-70677818D01*
X68825963Y-70677826D01*
X68913497Y-70802839D01*
X68961505Y-70871401D01*
X69128599Y-71038495D01*
X69128602Y-71038497D01*
X69128603Y-71038498D01*
X69147295Y-71051586D01*
X69322171Y-71174035D01*
X69322172Y-71174035D01*
X69322173Y-71174036D01*
X69322181Y-71174040D01*
X69536333Y-71273901D01*
X69536337Y-71273903D01*
X69764592Y-71335063D01*
X69764596Y-71335063D01*
X69764599Y-71335064D01*
X69941026Y-71350500D01*
X69941034Y-71350500D01*
X70058974Y-71350500D01*
X70235400Y-71335064D01*
X70235401Y-71335063D01*
X70235408Y-71335063D01*
X70463663Y-71273903D01*
X70677829Y-71174035D01*
X70871401Y-71038495D01*
X71038495Y-70871401D01*
X71174035Y-70677830D01*
X71273903Y-70463663D01*
X71335063Y-70235408D01*
X71335064Y-70235400D01*
X71355659Y-70000004D01*
X71355659Y-69999995D01*
X71335064Y-69764599D01*
X71335063Y-69764596D01*
X71335063Y-69764592D01*
X71273903Y-69536337D01*
X71174035Y-69322171D01*
X71049667Y-69144554D01*
X71038498Y-69128603D01*
X71038497Y-69128602D01*
X71038495Y-69128599D01*
X70871401Y-68961505D01*
X70871397Y-68961502D01*
X70871396Y-68961501D01*
X70677826Y-68825963D01*
X70677818Y-68825959D01*
X70463666Y-68726098D01*
X70463667Y-68726098D01*
X70387577Y-68705710D01*
X70235408Y-68664937D01*
X70235407Y-68664936D01*
X70235400Y-68664935D01*
X70058974Y-68649500D01*
X70058966Y-68649500D01*
X69941034Y-68649500D01*
X69941026Y-68649500D01*
X69764599Y-68664935D01*
X69536332Y-68726098D01*
X69322181Y-68825959D01*
X69322173Y-68825963D01*
X69128603Y-68961501D01*
X68961501Y-69128603D01*
X68825964Y-69322171D01*
X68726097Y-69536337D01*
X68664935Y-69764599D01*
X68644341Y-69999995D01*
X68644341Y-70000004D01*
X68000500Y-70000004D01*
X68000500Y-60000000D01*
X73894548Y-60000000D01*
X73914346Y-60491285D01*
X73914346Y-60491291D01*
X73914347Y-60491297D01*
X73914347Y-60491306D01*
X73973609Y-60979365D01*
X73973613Y-60979392D01*
X74071962Y-61461136D01*
X74071962Y-61461137D01*
X74208750Y-61933386D01*
X74208753Y-61933395D01*
X74335071Y-62266467D01*
X74383110Y-62393133D01*
X74537956Y-62719464D01*
X74592578Y-62834579D01*
X74593891Y-62837345D01*
X74839733Y-63263155D01*
X74839734Y-63263156D01*
X75119038Y-63667800D01*
X75429999Y-64048659D01*
X75770601Y-64403263D01*
X75770605Y-64403267D01*
X75963514Y-64574169D01*
X76138635Y-64729313D01*
X76138640Y-64729317D01*
X76531707Y-65024688D01*
X76715923Y-65141179D01*
X76947274Y-65287477D01*
X76947281Y-65287480D01*
X76947280Y-65287480D01*
X76947293Y-65287488D01*
X77334618Y-65490770D01*
X77382638Y-65515973D01*
X77834977Y-65708697D01*
X78065494Y-65785654D01*
X78301341Y-65864392D01*
X78301351Y-65864395D01*
X78301357Y-65864397D01*
X78778753Y-65982065D01*
X79264069Y-66060936D01*
X79754158Y-66100500D01*
X79754163Y-66100500D01*
X80245837Y-66100500D01*
X80245842Y-66100500D01*
X80735931Y-66060936D01*
X81221247Y-65982065D01*
X81698643Y-65864397D01*
X82165023Y-65708697D01*
X82617362Y-65515973D01*
X82974971Y-65328286D01*
X83052706Y-65287488D01*
X83052711Y-65287484D01*
X83052726Y-65287477D01*
X83468292Y-65024688D01*
X83861365Y-64729313D01*
X84229395Y-64403267D01*
X84569996Y-64048664D01*
X84880959Y-63667803D01*
X85160267Y-63263155D01*
X85406109Y-62837345D01*
X85616890Y-62393133D01*
X85791244Y-61933401D01*
X85791246Y-61933395D01*
X85791249Y-61933386D01*
X85928037Y-61461137D01*
X85928037Y-61461136D01*
X85928039Y-61461130D01*
X86026388Y-60979383D01*
X86046793Y-60811335D01*
X86085652Y-60491306D01*
X86085652Y-60491301D01*
X86085654Y-60491285D01*
X86105452Y-60000000D01*
X86085654Y-59508715D01*
X86085652Y-59508698D01*
X86085652Y-59508693D01*
X86026390Y-59020634D01*
X86026388Y-59020617D01*
X85928039Y-58538870D01*
X85922257Y-58518907D01*
X85791249Y-58066613D01*
X85791246Y-58066604D01*
X85773157Y-58018910D01*
X85616890Y-57606867D01*
X85406109Y-57162655D01*
X85160267Y-56736845D01*
X85020612Y-56534521D01*
X84880961Y-56332199D01*
X84570000Y-55951340D01*
X84229398Y-55596736D01*
X84097902Y-55480241D01*
X83953372Y-55352198D01*
X83861364Y-55270686D01*
X83861359Y-55270682D01*
X83468292Y-54975311D01*
X83176978Y-54791095D01*
X83052726Y-54712523D01*
X83052722Y-54712520D01*
X83052719Y-54712519D01*
X83052706Y-54712511D01*
X82617376Y-54484034D01*
X82617372Y-54484032D01*
X82617369Y-54484030D01*
X82617362Y-54484027D01*
X82165023Y-54291303D01*
X82165024Y-54291303D01*
X82165021Y-54291302D01*
X81698658Y-54135607D01*
X81698638Y-54135601D01*
X81337278Y-54046534D01*
X81221247Y-54017935D01*
X80735931Y-53939064D01*
X80735925Y-53939063D01*
X80461028Y-53916871D01*
X80245842Y-53899500D01*
X79754158Y-53899500D01*
X79556342Y-53915469D01*
X79264074Y-53939063D01*
X78778753Y-54017935D01*
X78301361Y-54135601D01*
X78301341Y-54135607D01*
X77834978Y-54291302D01*
X77542369Y-54415971D01*
X77382638Y-54484027D01*
X77382634Y-54484028D01*
X77382627Y-54484032D01*
X77382623Y-54484034D01*
X76947293Y-54712511D01*
X76947280Y-54712519D01*
X76531707Y-54975311D01*
X76138640Y-55270682D01*
X76138635Y-55270686D01*
X75770601Y-55596736D01*
X75429999Y-55951340D01*
X75119038Y-56332199D01*
X74839734Y-56736843D01*
X74593885Y-57162666D01*
X74383108Y-57606872D01*
X74208753Y-58066604D01*
X74208750Y-58066613D01*
X74071962Y-58538862D01*
X74071962Y-58538863D01*
X73973613Y-59020607D01*
X73973609Y-59020634D01*
X73914347Y-59508693D01*
X73914347Y-59508702D01*
X73914346Y-59508709D01*
X73914346Y-59508715D01*
X73894548Y-60000000D01*
X68000500Y-60000000D01*
X68000500Y-50000004D01*
X68644341Y-50000004D01*
X68664935Y-50235400D01*
X68726098Y-50463667D01*
X68825959Y-50677818D01*
X68825963Y-50677826D01*
X68825964Y-50677828D01*
X68825965Y-50677829D01*
X68961505Y-50871401D01*
X69128599Y-51038495D01*
X69322171Y-51174035D01*
X69322172Y-51174035D01*
X69322173Y-51174036D01*
X69322181Y-51174040D01*
X69536333Y-51273901D01*
X69536337Y-51273903D01*
X69764592Y-51335063D01*
X69764596Y-51335063D01*
X69764599Y-51335064D01*
X69941026Y-51350500D01*
X69941034Y-51350500D01*
X70058974Y-51350500D01*
X70235400Y-51335064D01*
X70235401Y-51335063D01*
X70235408Y-51335063D01*
X70463663Y-51273903D01*
X70677829Y-51174035D01*
X70871401Y-51038495D01*
X71038495Y-50871401D01*
X71174035Y-50677830D01*
X71273903Y-50463663D01*
X71335063Y-50235408D01*
X71355659Y-50000004D01*
X88644341Y-50000004D01*
X88664935Y-50235400D01*
X88726098Y-50463667D01*
X88825959Y-50677818D01*
X88825963Y-50677826D01*
X88825964Y-50677828D01*
X88825965Y-50677829D01*
X88961505Y-50871401D01*
X89128599Y-51038495D01*
X89322171Y-51174035D01*
X89322172Y-51174035D01*
X89322173Y-51174036D01*
X89322181Y-51174040D01*
X89536333Y-51273901D01*
X89536337Y-51273903D01*
X89764592Y-51335063D01*
X89764596Y-51335063D01*
X89764599Y-51335064D01*
X89941026Y-51350500D01*
X89941034Y-51350500D01*
X90058974Y-51350500D01*
X90235400Y-51335064D01*
X90235401Y-51335063D01*
X90235408Y-51335063D01*
X90463663Y-51273903D01*
X90677829Y-51174035D01*
X90871401Y-51038495D01*
X91038495Y-50871401D01*
X91174035Y-50677830D01*
X91273903Y-50463663D01*
X91335063Y-50235408D01*
X91355659Y-50000000D01*
X91335063Y-49764592D01*
X91273903Y-49536337D01*
X91174035Y-49322171D01*
X91038495Y-49128599D01*
X90871401Y-48961505D01*
X90871397Y-48961502D01*
X90871396Y-48961501D01*
X90678167Y-48826202D01*
X90677829Y-48825965D01*
X90677828Y-48825964D01*
X90677826Y-48825963D01*
X90677818Y-48825959D01*
X90463666Y-48726098D01*
X90463667Y-48726098D01*
X90387578Y-48705710D01*
X90235408Y-48664937D01*
X90235407Y-48664936D01*
X90235400Y-48664935D01*
X90058974Y-48649500D01*
X90058966Y-48649500D01*
X89941034Y-48649500D01*
X89941026Y-48649500D01*
X89764599Y-48664935D01*
X89536332Y-48726098D01*
X89322181Y-48825959D01*
X89322173Y-48825963D01*
X89128603Y-48961501D01*
X88961501Y-49128603D01*
X88825964Y-49322171D01*
X88726097Y-49536337D01*
X88664935Y-49764599D01*
X88644341Y-49999995D01*
X88644341Y-50000004D01*
X71355659Y-50000004D01*
X71355659Y-50000000D01*
X71335063Y-49764592D01*
X71273903Y-49536337D01*
X71174035Y-49322171D01*
X71038495Y-49128599D01*
X70871401Y-48961505D01*
X70871397Y-48961502D01*
X70871396Y-48961501D01*
X70678167Y-48826202D01*
X70677829Y-48825965D01*
X70677828Y-48825964D01*
X70677826Y-48825963D01*
X70677818Y-48825959D01*
X70463666Y-48726098D01*
X70463667Y-48726098D01*
X70387578Y-48705710D01*
X70235408Y-48664937D01*
X70235407Y-48664936D01*
X70235400Y-48664935D01*
X70058974Y-48649500D01*
X70058966Y-48649500D01*
X69941034Y-48649500D01*
X69941026Y-48649500D01*
X69764599Y-48664935D01*
X69536332Y-48726098D01*
X69322181Y-48825959D01*
X69322173Y-48825963D01*
X69128603Y-48961501D01*
X68961501Y-49128603D01*
X68825964Y-49322171D01*
X68726097Y-49536337D01*
X68664935Y-49764599D01*
X68644341Y-49999995D01*
X68644341Y-50000004D01*
X68000500Y-50000004D01*
X68000500Y-49002158D01*
X68000687Y-48997860D01*
X68004483Y-48954465D01*
X68017120Y-48826179D01*
X68020007Y-48810307D01*
X68038218Y-48742342D01*
X68038603Y-48740995D01*
X68067199Y-48646725D01*
X68072207Y-48633639D01*
X68099292Y-48575555D01*
X68104551Y-48564276D01*
X68105718Y-48561943D01*
X68151123Y-48476994D01*
X68154212Y-48471965D01*
X68201271Y-48404759D01*
X68203528Y-48401784D01*
X68263508Y-48328698D01*
X68266741Y-48325131D01*
X68325131Y-48266741D01*
X68328698Y-48263508D01*
X68401784Y-48203528D01*
X68404759Y-48201271D01*
X68471965Y-48154212D01*
X68476994Y-48151123D01*
X68561943Y-48105718D01*
X68564276Y-48104551D01*
X68633641Y-48072205D01*
X68646725Y-48067199D01*
X68740995Y-48038603D01*
X68742342Y-48038218D01*
X68810307Y-48020007D01*
X68826179Y-48017120D01*
X68954484Y-48004482D01*
X68997859Y-48000687D01*
X69002159Y-48000500D01*
X90997840Y-48000500D01*
X91002140Y-48000687D01*
G37*
%TD.AperFunction*%
%TD*%
M02*
