%TF.GenerationSoftware,KiCad,Pcbnew,7.0.5.1-1-g8f565ef7f0-dirty-deb11*%
%TF.CreationDate,2023-06-20T15:23:10+00:00*%
%TF.ProjectId,pedalboard-led-ring,70656461-6c62-46f6-9172-642d6c65642d,1.0.0*%
%TF.SameCoordinates,Original*%
%TF.FileFunction,AssemblyDrawing,Bot*%
%FSLAX46Y46*%
G04 Gerber Fmt 4.6, Leading zero omitted, Abs format (unit mm)*
G04 Created by KiCad (PCBNEW 7.0.5.1-1-g8f565ef7f0-dirty-deb11) date 2023-06-20 15:23:10*
%MOMM*%
%LPD*%
G01*
G04 APERTURE LIST*
%ADD10C,0.150000*%
%ADD11C,0.100000*%
G04 APERTURE END LIST*
D10*
%TO.C,J1*%
X86954819Y-57738095D02*
X86288152Y-57738095D01*
X86383390Y-57738095D02*
X86335771Y-57785714D01*
X86335771Y-57785714D02*
X86288152Y-57880952D01*
X86288152Y-57880952D02*
X86288152Y-58023809D01*
X86288152Y-58023809D02*
X86335771Y-58119047D01*
X86335771Y-58119047D02*
X86431009Y-58166666D01*
X86431009Y-58166666D02*
X86954819Y-58166666D01*
X86431009Y-58166666D02*
X86335771Y-58214285D01*
X86335771Y-58214285D02*
X86288152Y-58309523D01*
X86288152Y-58309523D02*
X86288152Y-58452380D01*
X86288152Y-58452380D02*
X86335771Y-58547619D01*
X86335771Y-58547619D02*
X86431009Y-58595238D01*
X86431009Y-58595238D02*
X86954819Y-58595238D01*
X86954819Y-59071428D02*
X86288152Y-59071428D01*
X85954819Y-59071428D02*
X86002438Y-59023809D01*
X86002438Y-59023809D02*
X86050057Y-59071428D01*
X86050057Y-59071428D02*
X86002438Y-59119047D01*
X86002438Y-59119047D02*
X85954819Y-59071428D01*
X85954819Y-59071428D02*
X86050057Y-59071428D01*
X86954819Y-59976189D02*
X85954819Y-59976189D01*
X86907200Y-59976189D02*
X86954819Y-59880951D01*
X86954819Y-59880951D02*
X86954819Y-59690475D01*
X86954819Y-59690475D02*
X86907200Y-59595237D01*
X86907200Y-59595237D02*
X86859580Y-59547618D01*
X86859580Y-59547618D02*
X86764342Y-59499999D01*
X86764342Y-59499999D02*
X86478628Y-59499999D01*
X86478628Y-59499999D02*
X86383390Y-59547618D01*
X86383390Y-59547618D02*
X86335771Y-59595237D01*
X86335771Y-59595237D02*
X86288152Y-59690475D01*
X86288152Y-59690475D02*
X86288152Y-59880951D01*
X86288152Y-59880951D02*
X86335771Y-59976189D01*
X86954819Y-60880951D02*
X85954819Y-60880951D01*
X86907200Y-60880951D02*
X86954819Y-60785713D01*
X86954819Y-60785713D02*
X86954819Y-60595237D01*
X86954819Y-60595237D02*
X86907200Y-60499999D01*
X86907200Y-60499999D02*
X86859580Y-60452380D01*
X86859580Y-60452380D02*
X86764342Y-60404761D01*
X86764342Y-60404761D02*
X86478628Y-60404761D01*
X86478628Y-60404761D02*
X86383390Y-60452380D01*
X86383390Y-60452380D02*
X86335771Y-60499999D01*
X86335771Y-60499999D02*
X86288152Y-60595237D01*
X86288152Y-60595237D02*
X86288152Y-60785713D01*
X86288152Y-60785713D02*
X86335771Y-60880951D01*
X86954819Y-61499999D02*
X86907200Y-61404761D01*
X86907200Y-61404761D02*
X86811961Y-61357142D01*
X86811961Y-61357142D02*
X85954819Y-61357142D01*
X86907200Y-62261904D02*
X86954819Y-62166666D01*
X86954819Y-62166666D02*
X86954819Y-61976190D01*
X86954819Y-61976190D02*
X86907200Y-61880952D01*
X86907200Y-61880952D02*
X86811961Y-61833333D01*
X86811961Y-61833333D02*
X86431009Y-61833333D01*
X86431009Y-61833333D02*
X86335771Y-61880952D01*
X86335771Y-61880952D02*
X86288152Y-61976190D01*
X86288152Y-61976190D02*
X86288152Y-62166666D01*
X86288152Y-62166666D02*
X86335771Y-62261904D01*
X86335771Y-62261904D02*
X86431009Y-62309523D01*
X86431009Y-62309523D02*
X86526247Y-62309523D01*
X86526247Y-62309523D02*
X86621485Y-61833333D01*
X90333333Y-59454819D02*
X90333333Y-60169104D01*
X90333333Y-60169104D02*
X90380952Y-60311961D01*
X90380952Y-60311961D02*
X90476190Y-60407200D01*
X90476190Y-60407200D02*
X90619047Y-60454819D01*
X90619047Y-60454819D02*
X90714285Y-60454819D01*
X89333333Y-60454819D02*
X89904761Y-60454819D01*
X89619047Y-60454819D02*
X89619047Y-59454819D01*
X89619047Y-59454819D02*
X89714285Y-59597676D01*
X89714285Y-59597676D02*
X89809523Y-59692914D01*
X89809523Y-59692914D02*
X89904761Y-59740533D01*
%TO.C,J2*%
X88142857Y-66407200D02*
X88238095Y-66454819D01*
X88238095Y-66454819D02*
X88428571Y-66454819D01*
X88428571Y-66454819D02*
X88523809Y-66407200D01*
X88523809Y-66407200D02*
X88571428Y-66311961D01*
X88571428Y-66311961D02*
X88571428Y-65931009D01*
X88571428Y-65931009D02*
X88523809Y-65835771D01*
X88523809Y-65835771D02*
X88428571Y-65788152D01*
X88428571Y-65788152D02*
X88238095Y-65788152D01*
X88238095Y-65788152D02*
X88142857Y-65835771D01*
X88142857Y-65835771D02*
X88095238Y-65931009D01*
X88095238Y-65931009D02*
X88095238Y-66026247D01*
X88095238Y-66026247D02*
X88571428Y-66121485D01*
X87238095Y-66454819D02*
X87238095Y-65454819D01*
X87238095Y-66407200D02*
X87333333Y-66454819D01*
X87333333Y-66454819D02*
X87523809Y-66454819D01*
X87523809Y-66454819D02*
X87619047Y-66407200D01*
X87619047Y-66407200D02*
X87666666Y-66359580D01*
X87666666Y-66359580D02*
X87714285Y-66264342D01*
X87714285Y-66264342D02*
X87714285Y-65978628D01*
X87714285Y-65978628D02*
X87666666Y-65883390D01*
X87666666Y-65883390D02*
X87619047Y-65835771D01*
X87619047Y-65835771D02*
X87523809Y-65788152D01*
X87523809Y-65788152D02*
X87333333Y-65788152D01*
X87333333Y-65788152D02*
X87238095Y-65835771D01*
X86333333Y-65788152D02*
X86333333Y-66597676D01*
X86333333Y-66597676D02*
X86380952Y-66692914D01*
X86380952Y-66692914D02*
X86428571Y-66740533D01*
X86428571Y-66740533D02*
X86523809Y-66788152D01*
X86523809Y-66788152D02*
X86666666Y-66788152D01*
X86666666Y-66788152D02*
X86761904Y-66740533D01*
X86333333Y-66407200D02*
X86428571Y-66454819D01*
X86428571Y-66454819D02*
X86619047Y-66454819D01*
X86619047Y-66454819D02*
X86714285Y-66407200D01*
X86714285Y-66407200D02*
X86761904Y-66359580D01*
X86761904Y-66359580D02*
X86809523Y-66264342D01*
X86809523Y-66264342D02*
X86809523Y-65978628D01*
X86809523Y-65978628D02*
X86761904Y-65883390D01*
X86761904Y-65883390D02*
X86714285Y-65835771D01*
X86714285Y-65835771D02*
X86619047Y-65788152D01*
X86619047Y-65788152D02*
X86428571Y-65788152D01*
X86428571Y-65788152D02*
X86333333Y-65835771D01*
X85476190Y-66407200D02*
X85571428Y-66454819D01*
X85571428Y-66454819D02*
X85761904Y-66454819D01*
X85761904Y-66454819D02*
X85857142Y-66407200D01*
X85857142Y-66407200D02*
X85904761Y-66311961D01*
X85904761Y-66311961D02*
X85904761Y-65931009D01*
X85904761Y-65931009D02*
X85857142Y-65835771D01*
X85857142Y-65835771D02*
X85761904Y-65788152D01*
X85761904Y-65788152D02*
X85571428Y-65788152D01*
X85571428Y-65788152D02*
X85476190Y-65835771D01*
X85476190Y-65835771D02*
X85428571Y-65931009D01*
X85428571Y-65931009D02*
X85428571Y-66026247D01*
X85428571Y-66026247D02*
X85904761Y-66121485D01*
X86454819Y-69166666D02*
X87169104Y-69166666D01*
X87169104Y-69166666D02*
X87311961Y-69119047D01*
X87311961Y-69119047D02*
X87407200Y-69023809D01*
X87407200Y-69023809D02*
X87454819Y-68880952D01*
X87454819Y-68880952D02*
X87454819Y-68785714D01*
X86550057Y-69595238D02*
X86502438Y-69642857D01*
X86502438Y-69642857D02*
X86454819Y-69738095D01*
X86454819Y-69738095D02*
X86454819Y-69976190D01*
X86454819Y-69976190D02*
X86502438Y-70071428D01*
X86502438Y-70071428D02*
X86550057Y-70119047D01*
X86550057Y-70119047D02*
X86645295Y-70166666D01*
X86645295Y-70166666D02*
X86740533Y-70166666D01*
X86740533Y-70166666D02*
X86883390Y-70119047D01*
X86883390Y-70119047D02*
X87454819Y-69547619D01*
X87454819Y-69547619D02*
X87454819Y-70166666D01*
D11*
%TO.C,J1*%
X88750000Y-63000000D02*
X89250000Y-63000000D01*
X89250000Y-63000000D02*
X89250000Y-62000000D01*
X90750000Y-63000000D02*
X91250000Y-63000000D01*
X91250000Y-63000000D02*
X91250000Y-62000000D01*
X88000000Y-62000000D02*
X92000000Y-62000000D01*
X88750000Y-62000000D02*
X88750000Y-63000000D01*
X90750000Y-62000000D02*
X90750000Y-63000000D01*
X92000000Y-62000000D02*
X92000000Y-59000000D01*
X92000000Y-59000000D02*
X91000000Y-58000000D01*
X88000000Y-58000000D02*
X88000000Y-62000000D01*
X89250000Y-58000000D02*
X89250000Y-57000000D01*
X91000000Y-58000000D02*
X88000000Y-58000000D01*
X91250000Y-58000000D02*
X91250000Y-57000000D01*
X88750000Y-57000000D02*
X88750000Y-58000000D01*
X89250000Y-57000000D02*
X88750000Y-57000000D01*
X90750000Y-57000000D02*
X90750000Y-58000000D01*
X91250000Y-57000000D02*
X90750000Y-57000000D01*
%TO.C,J2*%
X84000000Y-68250000D02*
X84000000Y-68750000D01*
X84000000Y-68750000D02*
X85000000Y-68750000D01*
X84000000Y-70250000D02*
X84000000Y-70750000D01*
X84000000Y-70750000D02*
X85000000Y-70750000D01*
X85000000Y-67500000D02*
X85000000Y-71500000D01*
X85000000Y-68250000D02*
X84000000Y-68250000D01*
X85000000Y-70250000D02*
X84000000Y-70250000D01*
X85000000Y-71500000D02*
X88000000Y-71500000D01*
X88000000Y-71500000D02*
X89000000Y-70500000D01*
X89000000Y-67500000D02*
X85000000Y-67500000D01*
X89000000Y-68750000D02*
X90000000Y-68750000D01*
X89000000Y-70500000D02*
X89000000Y-67500000D01*
X89000000Y-70750000D02*
X90000000Y-70750000D01*
X90000000Y-68250000D02*
X89000000Y-68250000D01*
X90000000Y-68750000D02*
X90000000Y-68250000D01*
X90000000Y-70250000D02*
X89000000Y-70250000D01*
X90000000Y-70750000D02*
X90000000Y-70250000D01*
%TD*%
M02*
