%TF.GenerationSoftware,KiCad,Pcbnew,7.0.5.1-1-g8f565ef7f0-dirty-deb11*%
%TF.CreationDate,2023-06-03T17:33:12+00:00*%
%TF.ProjectId,pedalboard-led-ring,70656461-6c62-46f6-9172-642d6c65642d,1.0.0*%
%TF.SameCoordinates,Original*%
%TF.FileFunction,Legend,Bot*%
%TF.FilePolarity,Positive*%
%FSLAX46Y46*%
G04 Gerber Fmt 4.6, Leading zero omitted, Abs format (unit mm)*
G04 Created by KiCad (PCBNEW 7.0.5.1-1-g8f565ef7f0-dirty-deb11) date 2023-06-03 17:33:12*
%MOMM*%
%LPD*%
G01*
G04 APERTURE LIST*
%ADD10C,0.100000*%
%ADD11C,0.125000*%
%ADD12C,0.120000*%
G04 APERTURE END LIST*
D10*
X87050000Y-60000000D02*
G75*
G03*
X87050000Y-60000000I-7050000J0D01*
G01*
X89409133Y-53732455D02*
X88709133Y-53732455D01*
X88709133Y-53732455D02*
X88709133Y-53899122D01*
X88709133Y-53899122D02*
X88742466Y-53999122D01*
X88742466Y-53999122D02*
X88809133Y-54065789D01*
X88809133Y-54065789D02*
X88875800Y-54099122D01*
X88875800Y-54099122D02*
X89009133Y-54132455D01*
X89009133Y-54132455D02*
X89109133Y-54132455D01*
X89109133Y-54132455D02*
X89242466Y-54099122D01*
X89242466Y-54099122D02*
X89309133Y-54065789D01*
X89309133Y-54065789D02*
X89375800Y-53999122D01*
X89375800Y-53999122D02*
X89409133Y-53899122D01*
X89409133Y-53899122D02*
X89409133Y-53732455D01*
X89409133Y-54432455D02*
X88709133Y-54432455D01*
X89709133Y-65532455D02*
X89009133Y-65532455D01*
X89009133Y-65532455D02*
X89009133Y-65699122D01*
X89009133Y-65699122D02*
X89042466Y-65799122D01*
X89042466Y-65799122D02*
X89109133Y-65865789D01*
X89109133Y-65865789D02*
X89175800Y-65899122D01*
X89175800Y-65899122D02*
X89309133Y-65932455D01*
X89309133Y-65932455D02*
X89409133Y-65932455D01*
X89409133Y-65932455D02*
X89542466Y-65899122D01*
X89542466Y-65899122D02*
X89609133Y-65865789D01*
X89609133Y-65865789D02*
X89675800Y-65799122D01*
X89675800Y-65799122D02*
X89709133Y-65699122D01*
X89709133Y-65699122D02*
X89709133Y-65532455D01*
X89009133Y-66365789D02*
X89009133Y-66432455D01*
X89009133Y-66432455D02*
X89042466Y-66499122D01*
X89042466Y-66499122D02*
X89075800Y-66532455D01*
X89075800Y-66532455D02*
X89142466Y-66565789D01*
X89142466Y-66565789D02*
X89275800Y-66599122D01*
X89275800Y-66599122D02*
X89442466Y-66599122D01*
X89442466Y-66599122D02*
X89575800Y-66565789D01*
X89575800Y-66565789D02*
X89642466Y-66532455D01*
X89642466Y-66532455D02*
X89675800Y-66499122D01*
X89675800Y-66499122D02*
X89709133Y-66432455D01*
X89709133Y-66432455D02*
X89709133Y-66365789D01*
X89709133Y-66365789D02*
X89675800Y-66299122D01*
X89675800Y-66299122D02*
X89642466Y-66265789D01*
X89642466Y-66265789D02*
X89575800Y-66232455D01*
X89575800Y-66232455D02*
X89442466Y-66199122D01*
X89442466Y-66199122D02*
X89275800Y-66199122D01*
X89275800Y-66199122D02*
X89142466Y-66232455D01*
X89142466Y-66232455D02*
X89075800Y-66265789D01*
X89075800Y-66265789D02*
X89042466Y-66299122D01*
X89042466Y-66299122D02*
X89009133Y-66365789D01*
X94467544Y-69609133D02*
X94234211Y-70309133D01*
X94234211Y-70309133D02*
X94000877Y-69609133D01*
X93367544Y-70242466D02*
X93400877Y-70275800D01*
X93400877Y-70275800D02*
X93500877Y-70309133D01*
X93500877Y-70309133D02*
X93567544Y-70309133D01*
X93567544Y-70309133D02*
X93667544Y-70275800D01*
X93667544Y-70275800D02*
X93734211Y-70209133D01*
X93734211Y-70209133D02*
X93767544Y-70142466D01*
X93767544Y-70142466D02*
X93800877Y-70009133D01*
X93800877Y-70009133D02*
X93800877Y-69909133D01*
X93800877Y-69909133D02*
X93767544Y-69775800D01*
X93767544Y-69775800D02*
X93734211Y-69709133D01*
X93734211Y-69709133D02*
X93667544Y-69642466D01*
X93667544Y-69642466D02*
X93567544Y-69609133D01*
X93567544Y-69609133D02*
X93500877Y-69609133D01*
X93500877Y-69609133D02*
X93400877Y-69642466D01*
X93400877Y-69642466D02*
X93367544Y-69675800D01*
X92667544Y-70242466D02*
X92700877Y-70275800D01*
X92700877Y-70275800D02*
X92800877Y-70309133D01*
X92800877Y-70309133D02*
X92867544Y-70309133D01*
X92867544Y-70309133D02*
X92967544Y-70275800D01*
X92967544Y-70275800D02*
X93034211Y-70209133D01*
X93034211Y-70209133D02*
X93067544Y-70142466D01*
X93067544Y-70142466D02*
X93100877Y-70009133D01*
X93100877Y-70009133D02*
X93100877Y-69909133D01*
X93100877Y-69909133D02*
X93067544Y-69775800D01*
X93067544Y-69775800D02*
X93034211Y-69709133D01*
X93034211Y-69709133D02*
X92967544Y-69642466D01*
X92967544Y-69642466D02*
X92867544Y-69609133D01*
X92867544Y-69609133D02*
X92800877Y-69609133D01*
X92800877Y-69609133D02*
X92700877Y-69642466D01*
X92700877Y-69642466D02*
X92667544Y-69675800D01*
X90742466Y-65899122D02*
X90709133Y-65832455D01*
X90709133Y-65832455D02*
X90709133Y-65732455D01*
X90709133Y-65732455D02*
X90742466Y-65632455D01*
X90742466Y-65632455D02*
X90809133Y-65565789D01*
X90809133Y-65565789D02*
X90875800Y-65532455D01*
X90875800Y-65532455D02*
X91009133Y-65499122D01*
X91009133Y-65499122D02*
X91109133Y-65499122D01*
X91109133Y-65499122D02*
X91242466Y-65532455D01*
X91242466Y-65532455D02*
X91309133Y-65565789D01*
X91309133Y-65565789D02*
X91375800Y-65632455D01*
X91375800Y-65632455D02*
X91409133Y-65732455D01*
X91409133Y-65732455D02*
X91409133Y-65799122D01*
X91409133Y-65799122D02*
X91375800Y-65899122D01*
X91375800Y-65899122D02*
X91342466Y-65932455D01*
X91342466Y-65932455D02*
X91109133Y-65932455D01*
X91109133Y-65932455D02*
X91109133Y-65799122D01*
X91409133Y-66232455D02*
X90709133Y-66232455D01*
X90709133Y-66232455D02*
X91409133Y-66632455D01*
X91409133Y-66632455D02*
X90709133Y-66632455D01*
X91409133Y-66965788D02*
X90709133Y-66965788D01*
X90709133Y-66965788D02*
X90709133Y-67132455D01*
X90709133Y-67132455D02*
X90742466Y-67232455D01*
X90742466Y-67232455D02*
X90809133Y-67299122D01*
X90809133Y-67299122D02*
X90875800Y-67332455D01*
X90875800Y-67332455D02*
X91009133Y-67365788D01*
X91009133Y-67365788D02*
X91109133Y-67365788D01*
X91109133Y-67365788D02*
X91242466Y-67332455D01*
X91242466Y-67332455D02*
X91309133Y-67299122D01*
X91309133Y-67299122D02*
X91375800Y-67232455D01*
X91375800Y-67232455D02*
X91409133Y-67132455D01*
X91409133Y-67132455D02*
X91409133Y-66965788D01*
X84000877Y-70742466D02*
X84067544Y-70709133D01*
X84067544Y-70709133D02*
X84167544Y-70709133D01*
X84167544Y-70709133D02*
X84267544Y-70742466D01*
X84267544Y-70742466D02*
X84334211Y-70809133D01*
X84334211Y-70809133D02*
X84367544Y-70875800D01*
X84367544Y-70875800D02*
X84400877Y-71009133D01*
X84400877Y-71009133D02*
X84400877Y-71109133D01*
X84400877Y-71109133D02*
X84367544Y-71242466D01*
X84367544Y-71242466D02*
X84334211Y-71309133D01*
X84334211Y-71309133D02*
X84267544Y-71375800D01*
X84267544Y-71375800D02*
X84167544Y-71409133D01*
X84167544Y-71409133D02*
X84100877Y-71409133D01*
X84100877Y-71409133D02*
X84000877Y-71375800D01*
X84000877Y-71375800D02*
X83967544Y-71342466D01*
X83967544Y-71342466D02*
X83967544Y-71109133D01*
X83967544Y-71109133D02*
X84100877Y-71109133D01*
X83667544Y-71409133D02*
X83667544Y-70709133D01*
X83667544Y-70709133D02*
X83267544Y-71409133D01*
X83267544Y-71409133D02*
X83267544Y-70709133D01*
X82934211Y-71409133D02*
X82934211Y-70709133D01*
X82934211Y-70709133D02*
X82767544Y-70709133D01*
X82767544Y-70709133D02*
X82667544Y-70742466D01*
X82667544Y-70742466D02*
X82600878Y-70809133D01*
X82600878Y-70809133D02*
X82567544Y-70875800D01*
X82567544Y-70875800D02*
X82534211Y-71009133D01*
X82534211Y-71009133D02*
X82534211Y-71109133D01*
X82534211Y-71109133D02*
X82567544Y-71242466D01*
X82567544Y-71242466D02*
X82600878Y-71309133D01*
X82600878Y-71309133D02*
X82667544Y-71375800D01*
X82667544Y-71375800D02*
X82767544Y-71409133D01*
X82767544Y-71409133D02*
X82934211Y-71409133D01*
X94267544Y-68109133D02*
X94267544Y-67409133D01*
X94267544Y-67409133D02*
X94100877Y-67409133D01*
X94100877Y-67409133D02*
X94000877Y-67442466D01*
X94000877Y-67442466D02*
X93934211Y-67509133D01*
X93934211Y-67509133D02*
X93900877Y-67575800D01*
X93900877Y-67575800D02*
X93867544Y-67709133D01*
X93867544Y-67709133D02*
X93867544Y-67809133D01*
X93867544Y-67809133D02*
X93900877Y-67942466D01*
X93900877Y-67942466D02*
X93934211Y-68009133D01*
X93934211Y-68009133D02*
X94000877Y-68075800D01*
X94000877Y-68075800D02*
X94100877Y-68109133D01*
X94100877Y-68109133D02*
X94267544Y-68109133D01*
X93567544Y-68109133D02*
X93567544Y-67409133D01*
X90709133Y-53132455D02*
X91409133Y-53365789D01*
X91409133Y-53365789D02*
X90709133Y-53599122D01*
X91342466Y-54232455D02*
X91375800Y-54199122D01*
X91375800Y-54199122D02*
X91409133Y-54099122D01*
X91409133Y-54099122D02*
X91409133Y-54032455D01*
X91409133Y-54032455D02*
X91375800Y-53932455D01*
X91375800Y-53932455D02*
X91309133Y-53865789D01*
X91309133Y-53865789D02*
X91242466Y-53832455D01*
X91242466Y-53832455D02*
X91109133Y-53799122D01*
X91109133Y-53799122D02*
X91009133Y-53799122D01*
X91009133Y-53799122D02*
X90875800Y-53832455D01*
X90875800Y-53832455D02*
X90809133Y-53865789D01*
X90809133Y-53865789D02*
X90742466Y-53932455D01*
X90742466Y-53932455D02*
X90709133Y-54032455D01*
X90709133Y-54032455D02*
X90709133Y-54099122D01*
X90709133Y-54099122D02*
X90742466Y-54199122D01*
X90742466Y-54199122D02*
X90775800Y-54232455D01*
X91342466Y-54932455D02*
X91375800Y-54899122D01*
X91375800Y-54899122D02*
X91409133Y-54799122D01*
X91409133Y-54799122D02*
X91409133Y-54732455D01*
X91409133Y-54732455D02*
X91375800Y-54632455D01*
X91375800Y-54632455D02*
X91309133Y-54565789D01*
X91309133Y-54565789D02*
X91242466Y-54532455D01*
X91242466Y-54532455D02*
X91109133Y-54499122D01*
X91109133Y-54499122D02*
X91009133Y-54499122D01*
X91009133Y-54499122D02*
X90875800Y-54532455D01*
X90875800Y-54532455D02*
X90809133Y-54565789D01*
X90809133Y-54565789D02*
X90742466Y-54632455D01*
X90742466Y-54632455D02*
X90709133Y-54732455D01*
X90709133Y-54732455D02*
X90709133Y-54799122D01*
X90709133Y-54799122D02*
X90742466Y-54899122D01*
X90742466Y-54899122D02*
X90775800Y-54932455D01*
D11*
X81892855Y-67732309D02*
X81892855Y-67232309D01*
X81892855Y-67232309D02*
X81702379Y-67232309D01*
X81702379Y-67232309D02*
X81654760Y-67256119D01*
X81654760Y-67256119D02*
X81630950Y-67279928D01*
X81630950Y-67279928D02*
X81607141Y-67327547D01*
X81607141Y-67327547D02*
X81607141Y-67398976D01*
X81607141Y-67398976D02*
X81630950Y-67446595D01*
X81630950Y-67446595D02*
X81654760Y-67470404D01*
X81654760Y-67470404D02*
X81702379Y-67494214D01*
X81702379Y-67494214D02*
X81892855Y-67494214D01*
X81107141Y-67684690D02*
X81130950Y-67708500D01*
X81130950Y-67708500D02*
X81202379Y-67732309D01*
X81202379Y-67732309D02*
X81249998Y-67732309D01*
X81249998Y-67732309D02*
X81321426Y-67708500D01*
X81321426Y-67708500D02*
X81369045Y-67660880D01*
X81369045Y-67660880D02*
X81392855Y-67613261D01*
X81392855Y-67613261D02*
X81416664Y-67518023D01*
X81416664Y-67518023D02*
X81416664Y-67446595D01*
X81416664Y-67446595D02*
X81392855Y-67351357D01*
X81392855Y-67351357D02*
X81369045Y-67303738D01*
X81369045Y-67303738D02*
X81321426Y-67256119D01*
X81321426Y-67256119D02*
X81249998Y-67232309D01*
X81249998Y-67232309D02*
X81202379Y-67232309D01*
X81202379Y-67232309D02*
X81130950Y-67256119D01*
X81130950Y-67256119D02*
X81107141Y-67279928D01*
X80726188Y-67470404D02*
X80654760Y-67494214D01*
X80654760Y-67494214D02*
X80630950Y-67518023D01*
X80630950Y-67518023D02*
X80607141Y-67565642D01*
X80607141Y-67565642D02*
X80607141Y-67637071D01*
X80607141Y-67637071D02*
X80630950Y-67684690D01*
X80630950Y-67684690D02*
X80654760Y-67708500D01*
X80654760Y-67708500D02*
X80702379Y-67732309D01*
X80702379Y-67732309D02*
X80892855Y-67732309D01*
X80892855Y-67732309D02*
X80892855Y-67232309D01*
X80892855Y-67232309D02*
X80726188Y-67232309D01*
X80726188Y-67232309D02*
X80678569Y-67256119D01*
X80678569Y-67256119D02*
X80654760Y-67279928D01*
X80654760Y-67279928D02*
X80630950Y-67327547D01*
X80630950Y-67327547D02*
X80630950Y-67375166D01*
X80630950Y-67375166D02*
X80654760Y-67422785D01*
X80654760Y-67422785D02*
X80678569Y-67446595D01*
X80678569Y-67446595D02*
X80726188Y-67470404D01*
X80726188Y-67470404D02*
X80892855Y-67470404D01*
X80392855Y-67684690D02*
X80369045Y-67708500D01*
X80369045Y-67708500D02*
X80392855Y-67732309D01*
X80392855Y-67732309D02*
X80416664Y-67708500D01*
X80416664Y-67708500D02*
X80392855Y-67684690D01*
X80392855Y-67684690D02*
X80392855Y-67732309D01*
X80392855Y-67422785D02*
X80369045Y-67446595D01*
X80369045Y-67446595D02*
X80392855Y-67470404D01*
X80392855Y-67470404D02*
X80416664Y-67446595D01*
X80416664Y-67446595D02*
X80392855Y-67422785D01*
X80392855Y-67422785D02*
X80392855Y-67470404D01*
X79511903Y-67732309D02*
X79797617Y-67732309D01*
X79654760Y-67732309D02*
X79654760Y-67232309D01*
X79654760Y-67232309D02*
X79702379Y-67303738D01*
X79702379Y-67303738D02*
X79749998Y-67351357D01*
X79749998Y-67351357D02*
X79797617Y-67375166D01*
X79297618Y-67684690D02*
X79273808Y-67708500D01*
X79273808Y-67708500D02*
X79297618Y-67732309D01*
X79297618Y-67732309D02*
X79321427Y-67708500D01*
X79321427Y-67708500D02*
X79297618Y-67684690D01*
X79297618Y-67684690D02*
X79297618Y-67732309D01*
X78964285Y-67232309D02*
X78916666Y-67232309D01*
X78916666Y-67232309D02*
X78869047Y-67256119D01*
X78869047Y-67256119D02*
X78845237Y-67279928D01*
X78845237Y-67279928D02*
X78821428Y-67327547D01*
X78821428Y-67327547D02*
X78797618Y-67422785D01*
X78797618Y-67422785D02*
X78797618Y-67541833D01*
X78797618Y-67541833D02*
X78821428Y-67637071D01*
X78821428Y-67637071D02*
X78845237Y-67684690D01*
X78845237Y-67684690D02*
X78869047Y-67708500D01*
X78869047Y-67708500D02*
X78916666Y-67732309D01*
X78916666Y-67732309D02*
X78964285Y-67732309D01*
X78964285Y-67732309D02*
X79011904Y-67708500D01*
X79011904Y-67708500D02*
X79035713Y-67684690D01*
X79035713Y-67684690D02*
X79059523Y-67637071D01*
X79059523Y-67637071D02*
X79083332Y-67541833D01*
X79083332Y-67541833D02*
X79083332Y-67422785D01*
X79083332Y-67422785D02*
X79059523Y-67327547D01*
X79059523Y-67327547D02*
X79035713Y-67279928D01*
X79035713Y-67279928D02*
X79011904Y-67256119D01*
X79011904Y-67256119D02*
X78964285Y-67232309D01*
X78583333Y-67684690D02*
X78559523Y-67708500D01*
X78559523Y-67708500D02*
X78583333Y-67732309D01*
X78583333Y-67732309D02*
X78607142Y-67708500D01*
X78607142Y-67708500D02*
X78583333Y-67684690D01*
X78583333Y-67684690D02*
X78583333Y-67732309D01*
X78250000Y-67232309D02*
X78202381Y-67232309D01*
X78202381Y-67232309D02*
X78154762Y-67256119D01*
X78154762Y-67256119D02*
X78130952Y-67279928D01*
X78130952Y-67279928D02*
X78107143Y-67327547D01*
X78107143Y-67327547D02*
X78083333Y-67422785D01*
X78083333Y-67422785D02*
X78083333Y-67541833D01*
X78083333Y-67541833D02*
X78107143Y-67637071D01*
X78107143Y-67637071D02*
X78130952Y-67684690D01*
X78130952Y-67684690D02*
X78154762Y-67708500D01*
X78154762Y-67708500D02*
X78202381Y-67732309D01*
X78202381Y-67732309D02*
X78250000Y-67732309D01*
X78250000Y-67732309D02*
X78297619Y-67708500D01*
X78297619Y-67708500D02*
X78321428Y-67684690D01*
X78321428Y-67684690D02*
X78345238Y-67637071D01*
X78345238Y-67637071D02*
X78369047Y-67541833D01*
X78369047Y-67541833D02*
X78369047Y-67422785D01*
X78369047Y-67422785D02*
X78345238Y-67327547D01*
X78345238Y-67327547D02*
X78321428Y-67279928D01*
X78321428Y-67279928D02*
X78297619Y-67256119D01*
X78297619Y-67256119D02*
X78250000Y-67232309D01*
D10*
X84267544Y-69409133D02*
X84267544Y-68709133D01*
X84267544Y-68709133D02*
X84100877Y-68709133D01*
X84100877Y-68709133D02*
X84000877Y-68742466D01*
X84000877Y-68742466D02*
X83934211Y-68809133D01*
X83934211Y-68809133D02*
X83900877Y-68875800D01*
X83900877Y-68875800D02*
X83867544Y-69009133D01*
X83867544Y-69009133D02*
X83867544Y-69109133D01*
X83867544Y-69109133D02*
X83900877Y-69242466D01*
X83900877Y-69242466D02*
X83934211Y-69309133D01*
X83934211Y-69309133D02*
X84000877Y-69375800D01*
X84000877Y-69375800D02*
X84100877Y-69409133D01*
X84100877Y-69409133D02*
X84267544Y-69409133D01*
X83434211Y-68709133D02*
X83300877Y-68709133D01*
X83300877Y-68709133D02*
X83234211Y-68742466D01*
X83234211Y-68742466D02*
X83167544Y-68809133D01*
X83167544Y-68809133D02*
X83134211Y-68942466D01*
X83134211Y-68942466D02*
X83134211Y-69175800D01*
X83134211Y-69175800D02*
X83167544Y-69309133D01*
X83167544Y-69309133D02*
X83234211Y-69375800D01*
X83234211Y-69375800D02*
X83300877Y-69409133D01*
X83300877Y-69409133D02*
X83434211Y-69409133D01*
X83434211Y-69409133D02*
X83500877Y-69375800D01*
X83500877Y-69375800D02*
X83567544Y-69309133D01*
X83567544Y-69309133D02*
X83600877Y-69175800D01*
X83600877Y-69175800D02*
X83600877Y-68942466D01*
X83600877Y-68942466D02*
X83567544Y-68809133D01*
X83567544Y-68809133D02*
X83500877Y-68742466D01*
X83500877Y-68742466D02*
X83434211Y-68709133D01*
X93282133Y-49832455D02*
X92582133Y-49832455D01*
X92582133Y-49832455D02*
X92582133Y-50099122D01*
X92582133Y-50099122D02*
X92615466Y-50165789D01*
X92615466Y-50165789D02*
X92648800Y-50199122D01*
X92648800Y-50199122D02*
X92715466Y-50232455D01*
X92715466Y-50232455D02*
X92815466Y-50232455D01*
X92815466Y-50232455D02*
X92882133Y-50199122D01*
X92882133Y-50199122D02*
X92915466Y-50165789D01*
X92915466Y-50165789D02*
X92948800Y-50099122D01*
X92948800Y-50099122D02*
X92948800Y-49832455D01*
X93248800Y-50799122D02*
X93282133Y-50732455D01*
X93282133Y-50732455D02*
X93282133Y-50599122D01*
X93282133Y-50599122D02*
X93248800Y-50532455D01*
X93248800Y-50532455D02*
X93182133Y-50499122D01*
X93182133Y-50499122D02*
X92915466Y-50499122D01*
X92915466Y-50499122D02*
X92848800Y-50532455D01*
X92848800Y-50532455D02*
X92815466Y-50599122D01*
X92815466Y-50599122D02*
X92815466Y-50732455D01*
X92815466Y-50732455D02*
X92848800Y-50799122D01*
X92848800Y-50799122D02*
X92915466Y-50832455D01*
X92915466Y-50832455D02*
X92982133Y-50832455D01*
X92982133Y-50832455D02*
X93048800Y-50499122D01*
X93282133Y-51432455D02*
X92582133Y-51432455D01*
X93248800Y-51432455D02*
X93282133Y-51365789D01*
X93282133Y-51365789D02*
X93282133Y-51232455D01*
X93282133Y-51232455D02*
X93248800Y-51165789D01*
X93248800Y-51165789D02*
X93215466Y-51132455D01*
X93215466Y-51132455D02*
X93148800Y-51099122D01*
X93148800Y-51099122D02*
X92948800Y-51099122D01*
X92948800Y-51099122D02*
X92882133Y-51132455D01*
X92882133Y-51132455D02*
X92848800Y-51165789D01*
X92848800Y-51165789D02*
X92815466Y-51232455D01*
X92815466Y-51232455D02*
X92815466Y-51365789D01*
X92815466Y-51365789D02*
X92848800Y-51432455D01*
X93282133Y-52065788D02*
X92915466Y-52065788D01*
X92915466Y-52065788D02*
X92848800Y-52032455D01*
X92848800Y-52032455D02*
X92815466Y-51965788D01*
X92815466Y-51965788D02*
X92815466Y-51832455D01*
X92815466Y-51832455D02*
X92848800Y-51765788D01*
X93248800Y-52065788D02*
X93282133Y-51999122D01*
X93282133Y-51999122D02*
X93282133Y-51832455D01*
X93282133Y-51832455D02*
X93248800Y-51765788D01*
X93248800Y-51765788D02*
X93182133Y-51732455D01*
X93182133Y-51732455D02*
X93115466Y-51732455D01*
X93115466Y-51732455D02*
X93048800Y-51765788D01*
X93048800Y-51765788D02*
X93015466Y-51832455D01*
X93015466Y-51832455D02*
X93015466Y-51999122D01*
X93015466Y-51999122D02*
X92982133Y-52065788D01*
X93282133Y-52499121D02*
X93248800Y-52432455D01*
X93248800Y-52432455D02*
X93182133Y-52399121D01*
X93182133Y-52399121D02*
X92582133Y-52399121D01*
X93282133Y-52765788D02*
X92582133Y-52765788D01*
X92848800Y-52765788D02*
X92815466Y-52832455D01*
X92815466Y-52832455D02*
X92815466Y-52965788D01*
X92815466Y-52965788D02*
X92848800Y-53032455D01*
X92848800Y-53032455D02*
X92882133Y-53065788D01*
X92882133Y-53065788D02*
X92948800Y-53099122D01*
X92948800Y-53099122D02*
X93148800Y-53099122D01*
X93148800Y-53099122D02*
X93215466Y-53065788D01*
X93215466Y-53065788D02*
X93248800Y-53032455D01*
X93248800Y-53032455D02*
X93282133Y-52965788D01*
X93282133Y-52965788D02*
X93282133Y-52832455D01*
X93282133Y-52832455D02*
X93248800Y-52765788D01*
X93282133Y-53499121D02*
X93248800Y-53432455D01*
X93248800Y-53432455D02*
X93215466Y-53399121D01*
X93215466Y-53399121D02*
X93148800Y-53365788D01*
X93148800Y-53365788D02*
X92948800Y-53365788D01*
X92948800Y-53365788D02*
X92882133Y-53399121D01*
X92882133Y-53399121D02*
X92848800Y-53432455D01*
X92848800Y-53432455D02*
X92815466Y-53499121D01*
X92815466Y-53499121D02*
X92815466Y-53599121D01*
X92815466Y-53599121D02*
X92848800Y-53665788D01*
X92848800Y-53665788D02*
X92882133Y-53699121D01*
X92882133Y-53699121D02*
X92948800Y-53732455D01*
X92948800Y-53732455D02*
X93148800Y-53732455D01*
X93148800Y-53732455D02*
X93215466Y-53699121D01*
X93215466Y-53699121D02*
X93248800Y-53665788D01*
X93248800Y-53665788D02*
X93282133Y-53599121D01*
X93282133Y-53599121D02*
X93282133Y-53499121D01*
X93282133Y-54332454D02*
X92915466Y-54332454D01*
X92915466Y-54332454D02*
X92848800Y-54299121D01*
X92848800Y-54299121D02*
X92815466Y-54232454D01*
X92815466Y-54232454D02*
X92815466Y-54099121D01*
X92815466Y-54099121D02*
X92848800Y-54032454D01*
X93248800Y-54332454D02*
X93282133Y-54265788D01*
X93282133Y-54265788D02*
X93282133Y-54099121D01*
X93282133Y-54099121D02*
X93248800Y-54032454D01*
X93248800Y-54032454D02*
X93182133Y-53999121D01*
X93182133Y-53999121D02*
X93115466Y-53999121D01*
X93115466Y-53999121D02*
X93048800Y-54032454D01*
X93048800Y-54032454D02*
X93015466Y-54099121D01*
X93015466Y-54099121D02*
X93015466Y-54265788D01*
X93015466Y-54265788D02*
X92982133Y-54332454D01*
X93282133Y-54665787D02*
X92815466Y-54665787D01*
X92948800Y-54665787D02*
X92882133Y-54699121D01*
X92882133Y-54699121D02*
X92848800Y-54732454D01*
X92848800Y-54732454D02*
X92815466Y-54799121D01*
X92815466Y-54799121D02*
X92815466Y-54865787D01*
X93282133Y-55399120D02*
X92582133Y-55399120D01*
X93248800Y-55399120D02*
X93282133Y-55332454D01*
X93282133Y-55332454D02*
X93282133Y-55199120D01*
X93282133Y-55199120D02*
X93248800Y-55132454D01*
X93248800Y-55132454D02*
X93215466Y-55099120D01*
X93215466Y-55099120D02*
X93148800Y-55065787D01*
X93148800Y-55065787D02*
X92948800Y-55065787D01*
X92948800Y-55065787D02*
X92882133Y-55099120D01*
X92882133Y-55099120D02*
X92848800Y-55132454D01*
X92848800Y-55132454D02*
X92815466Y-55199120D01*
X92815466Y-55199120D02*
X92815466Y-55332454D01*
X92815466Y-55332454D02*
X92848800Y-55399120D01*
X93282133Y-56599120D02*
X93282133Y-56265786D01*
X93282133Y-56265786D02*
X92582133Y-56265786D01*
X92915466Y-56832453D02*
X92915466Y-57065787D01*
X93282133Y-57165787D02*
X93282133Y-56832453D01*
X93282133Y-56832453D02*
X92582133Y-56832453D01*
X92582133Y-56832453D02*
X92582133Y-57165787D01*
X93282133Y-57465786D02*
X92582133Y-57465786D01*
X92582133Y-57465786D02*
X92582133Y-57632453D01*
X92582133Y-57632453D02*
X92615466Y-57732453D01*
X92615466Y-57732453D02*
X92682133Y-57799120D01*
X92682133Y-57799120D02*
X92748800Y-57832453D01*
X92748800Y-57832453D02*
X92882133Y-57865786D01*
X92882133Y-57865786D02*
X92982133Y-57865786D01*
X92982133Y-57865786D02*
X93115466Y-57832453D01*
X93115466Y-57832453D02*
X93182133Y-57799120D01*
X93182133Y-57799120D02*
X93248800Y-57732453D01*
X93248800Y-57732453D02*
X93282133Y-57632453D01*
X93282133Y-57632453D02*
X93282133Y-57465786D01*
X93282133Y-59099119D02*
X92948800Y-58865786D01*
X93282133Y-58699119D02*
X92582133Y-58699119D01*
X92582133Y-58699119D02*
X92582133Y-58965786D01*
X92582133Y-58965786D02*
X92615466Y-59032453D01*
X92615466Y-59032453D02*
X92648800Y-59065786D01*
X92648800Y-59065786D02*
X92715466Y-59099119D01*
X92715466Y-59099119D02*
X92815466Y-59099119D01*
X92815466Y-59099119D02*
X92882133Y-59065786D01*
X92882133Y-59065786D02*
X92915466Y-59032453D01*
X92915466Y-59032453D02*
X92948800Y-58965786D01*
X92948800Y-58965786D02*
X92948800Y-58699119D01*
X93282133Y-59399119D02*
X92815466Y-59399119D01*
X92582133Y-59399119D02*
X92615466Y-59365786D01*
X92615466Y-59365786D02*
X92648800Y-59399119D01*
X92648800Y-59399119D02*
X92615466Y-59432453D01*
X92615466Y-59432453D02*
X92582133Y-59399119D01*
X92582133Y-59399119D02*
X92648800Y-59399119D01*
X92815466Y-59732452D02*
X93282133Y-59732452D01*
X92882133Y-59732452D02*
X92848800Y-59765786D01*
X92848800Y-59765786D02*
X92815466Y-59832452D01*
X92815466Y-59832452D02*
X92815466Y-59932452D01*
X92815466Y-59932452D02*
X92848800Y-59999119D01*
X92848800Y-59999119D02*
X92915466Y-60032452D01*
X92915466Y-60032452D02*
X93282133Y-60032452D01*
X92815466Y-60665785D02*
X93382133Y-60665785D01*
X93382133Y-60665785D02*
X93448800Y-60632452D01*
X93448800Y-60632452D02*
X93482133Y-60599119D01*
X93482133Y-60599119D02*
X93515466Y-60532452D01*
X93515466Y-60532452D02*
X93515466Y-60432452D01*
X93515466Y-60432452D02*
X93482133Y-60365785D01*
X93248800Y-60665785D02*
X93282133Y-60599119D01*
X93282133Y-60599119D02*
X93282133Y-60465785D01*
X93282133Y-60465785D02*
X93248800Y-60399119D01*
X93248800Y-60399119D02*
X93215466Y-60365785D01*
X93215466Y-60365785D02*
X93148800Y-60332452D01*
X93148800Y-60332452D02*
X92948800Y-60332452D01*
X92948800Y-60332452D02*
X92882133Y-60365785D01*
X92882133Y-60365785D02*
X92848800Y-60399119D01*
X92848800Y-60399119D02*
X92815466Y-60465785D01*
X92815466Y-60465785D02*
X92815466Y-60599119D01*
X92815466Y-60599119D02*
X92848800Y-60665785D01*
X94409133Y-49832455D02*
X93709133Y-49832455D01*
X94409133Y-50132455D02*
X94042466Y-50132455D01*
X94042466Y-50132455D02*
X93975800Y-50099122D01*
X93975800Y-50099122D02*
X93942466Y-50032455D01*
X93942466Y-50032455D02*
X93942466Y-49932455D01*
X93942466Y-49932455D02*
X93975800Y-49865789D01*
X93975800Y-49865789D02*
X94009133Y-49832455D01*
X93942466Y-50365788D02*
X93942466Y-50632455D01*
X93709133Y-50465788D02*
X94309133Y-50465788D01*
X94309133Y-50465788D02*
X94375800Y-50499122D01*
X94375800Y-50499122D02*
X94409133Y-50565788D01*
X94409133Y-50565788D02*
X94409133Y-50632455D01*
X93942466Y-50765788D02*
X93942466Y-51032455D01*
X93709133Y-50865788D02*
X94309133Y-50865788D01*
X94309133Y-50865788D02*
X94375800Y-50899122D01*
X94375800Y-50899122D02*
X94409133Y-50965788D01*
X94409133Y-50965788D02*
X94409133Y-51032455D01*
X93942466Y-51265788D02*
X94642466Y-51265788D01*
X93975800Y-51265788D02*
X93942466Y-51332455D01*
X93942466Y-51332455D02*
X93942466Y-51465788D01*
X93942466Y-51465788D02*
X93975800Y-51532455D01*
X93975800Y-51532455D02*
X94009133Y-51565788D01*
X94009133Y-51565788D02*
X94075800Y-51599122D01*
X94075800Y-51599122D02*
X94275800Y-51599122D01*
X94275800Y-51599122D02*
X94342466Y-51565788D01*
X94342466Y-51565788D02*
X94375800Y-51532455D01*
X94375800Y-51532455D02*
X94409133Y-51465788D01*
X94409133Y-51465788D02*
X94409133Y-51332455D01*
X94409133Y-51332455D02*
X94375800Y-51265788D01*
X94375800Y-51865788D02*
X94409133Y-51932455D01*
X94409133Y-51932455D02*
X94409133Y-52065788D01*
X94409133Y-52065788D02*
X94375800Y-52132455D01*
X94375800Y-52132455D02*
X94309133Y-52165788D01*
X94309133Y-52165788D02*
X94275800Y-52165788D01*
X94275800Y-52165788D02*
X94209133Y-52132455D01*
X94209133Y-52132455D02*
X94175800Y-52065788D01*
X94175800Y-52065788D02*
X94175800Y-51965788D01*
X94175800Y-51965788D02*
X94142466Y-51899121D01*
X94142466Y-51899121D02*
X94075800Y-51865788D01*
X94075800Y-51865788D02*
X94042466Y-51865788D01*
X94042466Y-51865788D02*
X93975800Y-51899121D01*
X93975800Y-51899121D02*
X93942466Y-51965788D01*
X93942466Y-51965788D02*
X93942466Y-52065788D01*
X93942466Y-52065788D02*
X93975800Y-52132455D01*
X94342466Y-52465788D02*
X94375800Y-52499122D01*
X94375800Y-52499122D02*
X94409133Y-52465788D01*
X94409133Y-52465788D02*
X94375800Y-52432455D01*
X94375800Y-52432455D02*
X94342466Y-52465788D01*
X94342466Y-52465788D02*
X94409133Y-52465788D01*
X93975800Y-52465788D02*
X94009133Y-52499122D01*
X94009133Y-52499122D02*
X94042466Y-52465788D01*
X94042466Y-52465788D02*
X94009133Y-52432455D01*
X94009133Y-52432455D02*
X93975800Y-52465788D01*
X93975800Y-52465788D02*
X94042466Y-52465788D01*
X93675800Y-53299121D02*
X94575800Y-52699121D01*
X93675800Y-54032454D02*
X94575800Y-53432454D01*
X93942466Y-54565787D02*
X94509133Y-54565787D01*
X94509133Y-54565787D02*
X94575800Y-54532454D01*
X94575800Y-54532454D02*
X94609133Y-54499121D01*
X94609133Y-54499121D02*
X94642466Y-54432454D01*
X94642466Y-54432454D02*
X94642466Y-54332454D01*
X94642466Y-54332454D02*
X94609133Y-54265787D01*
X94375800Y-54565787D02*
X94409133Y-54499121D01*
X94409133Y-54499121D02*
X94409133Y-54365787D01*
X94409133Y-54365787D02*
X94375800Y-54299121D01*
X94375800Y-54299121D02*
X94342466Y-54265787D01*
X94342466Y-54265787D02*
X94275800Y-54232454D01*
X94275800Y-54232454D02*
X94075800Y-54232454D01*
X94075800Y-54232454D02*
X94009133Y-54265787D01*
X94009133Y-54265787D02*
X93975800Y-54299121D01*
X93975800Y-54299121D02*
X93942466Y-54365787D01*
X93942466Y-54365787D02*
X93942466Y-54499121D01*
X93942466Y-54499121D02*
X93975800Y-54565787D01*
X94409133Y-54899120D02*
X93942466Y-54899120D01*
X93709133Y-54899120D02*
X93742466Y-54865787D01*
X93742466Y-54865787D02*
X93775800Y-54899120D01*
X93775800Y-54899120D02*
X93742466Y-54932454D01*
X93742466Y-54932454D02*
X93709133Y-54899120D01*
X93709133Y-54899120D02*
X93775800Y-54899120D01*
X93942466Y-55132453D02*
X93942466Y-55399120D01*
X93709133Y-55232453D02*
X94309133Y-55232453D01*
X94309133Y-55232453D02*
X94375800Y-55265787D01*
X94375800Y-55265787D02*
X94409133Y-55332453D01*
X94409133Y-55332453D02*
X94409133Y-55399120D01*
X94409133Y-55632453D02*
X93709133Y-55632453D01*
X94409133Y-55932453D02*
X94042466Y-55932453D01*
X94042466Y-55932453D02*
X93975800Y-55899120D01*
X93975800Y-55899120D02*
X93942466Y-55832453D01*
X93942466Y-55832453D02*
X93942466Y-55732453D01*
X93942466Y-55732453D02*
X93975800Y-55665787D01*
X93975800Y-55665787D02*
X94009133Y-55632453D01*
X93942466Y-56565786D02*
X94409133Y-56565786D01*
X93942466Y-56265786D02*
X94309133Y-56265786D01*
X94309133Y-56265786D02*
X94375800Y-56299120D01*
X94375800Y-56299120D02*
X94409133Y-56365786D01*
X94409133Y-56365786D02*
X94409133Y-56465786D01*
X94409133Y-56465786D02*
X94375800Y-56532453D01*
X94375800Y-56532453D02*
X94342466Y-56565786D01*
X94409133Y-56899119D02*
X93709133Y-56899119D01*
X93975800Y-56899119D02*
X93942466Y-56965786D01*
X93942466Y-56965786D02*
X93942466Y-57099119D01*
X93942466Y-57099119D02*
X93975800Y-57165786D01*
X93975800Y-57165786D02*
X94009133Y-57199119D01*
X94009133Y-57199119D02*
X94075800Y-57232453D01*
X94075800Y-57232453D02*
X94275800Y-57232453D01*
X94275800Y-57232453D02*
X94342466Y-57199119D01*
X94342466Y-57199119D02*
X94375800Y-57165786D01*
X94375800Y-57165786D02*
X94409133Y-57099119D01*
X94409133Y-57099119D02*
X94409133Y-56965786D01*
X94409133Y-56965786D02*
X94375800Y-56899119D01*
X94342466Y-57532452D02*
X94375800Y-57565786D01*
X94375800Y-57565786D02*
X94409133Y-57532452D01*
X94409133Y-57532452D02*
X94375800Y-57499119D01*
X94375800Y-57499119D02*
X94342466Y-57532452D01*
X94342466Y-57532452D02*
X94409133Y-57532452D01*
X94375800Y-58165785D02*
X94409133Y-58099119D01*
X94409133Y-58099119D02*
X94409133Y-57965785D01*
X94409133Y-57965785D02*
X94375800Y-57899119D01*
X94375800Y-57899119D02*
X94342466Y-57865785D01*
X94342466Y-57865785D02*
X94275800Y-57832452D01*
X94275800Y-57832452D02*
X94075800Y-57832452D01*
X94075800Y-57832452D02*
X94009133Y-57865785D01*
X94009133Y-57865785D02*
X93975800Y-57899119D01*
X93975800Y-57899119D02*
X93942466Y-57965785D01*
X93942466Y-57965785D02*
X93942466Y-58099119D01*
X93942466Y-58099119D02*
X93975800Y-58165785D01*
X94409133Y-58565785D02*
X94375800Y-58499119D01*
X94375800Y-58499119D02*
X94342466Y-58465785D01*
X94342466Y-58465785D02*
X94275800Y-58432452D01*
X94275800Y-58432452D02*
X94075800Y-58432452D01*
X94075800Y-58432452D02*
X94009133Y-58465785D01*
X94009133Y-58465785D02*
X93975800Y-58499119D01*
X93975800Y-58499119D02*
X93942466Y-58565785D01*
X93942466Y-58565785D02*
X93942466Y-58665785D01*
X93942466Y-58665785D02*
X93975800Y-58732452D01*
X93975800Y-58732452D02*
X94009133Y-58765785D01*
X94009133Y-58765785D02*
X94075800Y-58799119D01*
X94075800Y-58799119D02*
X94275800Y-58799119D01*
X94275800Y-58799119D02*
X94342466Y-58765785D01*
X94342466Y-58765785D02*
X94375800Y-58732452D01*
X94375800Y-58732452D02*
X94409133Y-58665785D01*
X94409133Y-58665785D02*
X94409133Y-58565785D01*
X94409133Y-59099118D02*
X93942466Y-59099118D01*
X94009133Y-59099118D02*
X93975800Y-59132452D01*
X93975800Y-59132452D02*
X93942466Y-59199118D01*
X93942466Y-59199118D02*
X93942466Y-59299118D01*
X93942466Y-59299118D02*
X93975800Y-59365785D01*
X93975800Y-59365785D02*
X94042466Y-59399118D01*
X94042466Y-59399118D02*
X94409133Y-59399118D01*
X94042466Y-59399118D02*
X93975800Y-59432452D01*
X93975800Y-59432452D02*
X93942466Y-59499118D01*
X93942466Y-59499118D02*
X93942466Y-59599118D01*
X93942466Y-59599118D02*
X93975800Y-59665785D01*
X93975800Y-59665785D02*
X94042466Y-59699118D01*
X94042466Y-59699118D02*
X94409133Y-59699118D01*
X93675800Y-60532451D02*
X94575800Y-59932451D01*
X93942466Y-60765784D02*
X94642466Y-60765784D01*
X93975800Y-60765784D02*
X93942466Y-60832451D01*
X93942466Y-60832451D02*
X93942466Y-60965784D01*
X93942466Y-60965784D02*
X93975800Y-61032451D01*
X93975800Y-61032451D02*
X94009133Y-61065784D01*
X94009133Y-61065784D02*
X94075800Y-61099118D01*
X94075800Y-61099118D02*
X94275800Y-61099118D01*
X94275800Y-61099118D02*
X94342466Y-61065784D01*
X94342466Y-61065784D02*
X94375800Y-61032451D01*
X94375800Y-61032451D02*
X94409133Y-60965784D01*
X94409133Y-60965784D02*
X94409133Y-60832451D01*
X94409133Y-60832451D02*
X94375800Y-60765784D01*
X94375800Y-61665784D02*
X94409133Y-61599117D01*
X94409133Y-61599117D02*
X94409133Y-61465784D01*
X94409133Y-61465784D02*
X94375800Y-61399117D01*
X94375800Y-61399117D02*
X94309133Y-61365784D01*
X94309133Y-61365784D02*
X94042466Y-61365784D01*
X94042466Y-61365784D02*
X93975800Y-61399117D01*
X93975800Y-61399117D02*
X93942466Y-61465784D01*
X93942466Y-61465784D02*
X93942466Y-61599117D01*
X93942466Y-61599117D02*
X93975800Y-61665784D01*
X93975800Y-61665784D02*
X94042466Y-61699117D01*
X94042466Y-61699117D02*
X94109133Y-61699117D01*
X94109133Y-61699117D02*
X94175800Y-61365784D01*
X94409133Y-62299117D02*
X93709133Y-62299117D01*
X94375800Y-62299117D02*
X94409133Y-62232451D01*
X94409133Y-62232451D02*
X94409133Y-62099117D01*
X94409133Y-62099117D02*
X94375800Y-62032451D01*
X94375800Y-62032451D02*
X94342466Y-61999117D01*
X94342466Y-61999117D02*
X94275800Y-61965784D01*
X94275800Y-61965784D02*
X94075800Y-61965784D01*
X94075800Y-61965784D02*
X94009133Y-61999117D01*
X94009133Y-61999117D02*
X93975800Y-62032451D01*
X93975800Y-62032451D02*
X93942466Y-62099117D01*
X93942466Y-62099117D02*
X93942466Y-62232451D01*
X93942466Y-62232451D02*
X93975800Y-62299117D01*
X94409133Y-62932450D02*
X94042466Y-62932450D01*
X94042466Y-62932450D02*
X93975800Y-62899117D01*
X93975800Y-62899117D02*
X93942466Y-62832450D01*
X93942466Y-62832450D02*
X93942466Y-62699117D01*
X93942466Y-62699117D02*
X93975800Y-62632450D01*
X94375800Y-62932450D02*
X94409133Y-62865784D01*
X94409133Y-62865784D02*
X94409133Y-62699117D01*
X94409133Y-62699117D02*
X94375800Y-62632450D01*
X94375800Y-62632450D02*
X94309133Y-62599117D01*
X94309133Y-62599117D02*
X94242466Y-62599117D01*
X94242466Y-62599117D02*
X94175800Y-62632450D01*
X94175800Y-62632450D02*
X94142466Y-62699117D01*
X94142466Y-62699117D02*
X94142466Y-62865784D01*
X94142466Y-62865784D02*
X94109133Y-62932450D01*
X94409133Y-63365783D02*
X94375800Y-63299117D01*
X94375800Y-63299117D02*
X94309133Y-63265783D01*
X94309133Y-63265783D02*
X93709133Y-63265783D01*
X94409133Y-63632450D02*
X93709133Y-63632450D01*
X93975800Y-63632450D02*
X93942466Y-63699117D01*
X93942466Y-63699117D02*
X93942466Y-63832450D01*
X93942466Y-63832450D02*
X93975800Y-63899117D01*
X93975800Y-63899117D02*
X94009133Y-63932450D01*
X94009133Y-63932450D02*
X94075800Y-63965784D01*
X94075800Y-63965784D02*
X94275800Y-63965784D01*
X94275800Y-63965784D02*
X94342466Y-63932450D01*
X94342466Y-63932450D02*
X94375800Y-63899117D01*
X94375800Y-63899117D02*
X94409133Y-63832450D01*
X94409133Y-63832450D02*
X94409133Y-63699117D01*
X94409133Y-63699117D02*
X94375800Y-63632450D01*
X94409133Y-64365783D02*
X94375800Y-64299117D01*
X94375800Y-64299117D02*
X94342466Y-64265783D01*
X94342466Y-64265783D02*
X94275800Y-64232450D01*
X94275800Y-64232450D02*
X94075800Y-64232450D01*
X94075800Y-64232450D02*
X94009133Y-64265783D01*
X94009133Y-64265783D02*
X93975800Y-64299117D01*
X93975800Y-64299117D02*
X93942466Y-64365783D01*
X93942466Y-64365783D02*
X93942466Y-64465783D01*
X93942466Y-64465783D02*
X93975800Y-64532450D01*
X93975800Y-64532450D02*
X94009133Y-64565783D01*
X94009133Y-64565783D02*
X94075800Y-64599117D01*
X94075800Y-64599117D02*
X94275800Y-64599117D01*
X94275800Y-64599117D02*
X94342466Y-64565783D01*
X94342466Y-64565783D02*
X94375800Y-64532450D01*
X94375800Y-64532450D02*
X94409133Y-64465783D01*
X94409133Y-64465783D02*
X94409133Y-64365783D01*
X94409133Y-65199116D02*
X94042466Y-65199116D01*
X94042466Y-65199116D02*
X93975800Y-65165783D01*
X93975800Y-65165783D02*
X93942466Y-65099116D01*
X93942466Y-65099116D02*
X93942466Y-64965783D01*
X93942466Y-64965783D02*
X93975800Y-64899116D01*
X94375800Y-65199116D02*
X94409133Y-65132450D01*
X94409133Y-65132450D02*
X94409133Y-64965783D01*
X94409133Y-64965783D02*
X94375800Y-64899116D01*
X94375800Y-64899116D02*
X94309133Y-64865783D01*
X94309133Y-64865783D02*
X94242466Y-64865783D01*
X94242466Y-64865783D02*
X94175800Y-64899116D01*
X94175800Y-64899116D02*
X94142466Y-64965783D01*
X94142466Y-64965783D02*
X94142466Y-65132450D01*
X94142466Y-65132450D02*
X94109133Y-65199116D01*
X94409133Y-65532449D02*
X93942466Y-65532449D01*
X94075800Y-65532449D02*
X94009133Y-65565783D01*
X94009133Y-65565783D02*
X93975800Y-65599116D01*
X93975800Y-65599116D02*
X93942466Y-65665783D01*
X93942466Y-65665783D02*
X93942466Y-65732449D01*
X94409133Y-66265782D02*
X93709133Y-66265782D01*
X94375800Y-66265782D02*
X94409133Y-66199116D01*
X94409133Y-66199116D02*
X94409133Y-66065782D01*
X94409133Y-66065782D02*
X94375800Y-65999116D01*
X94375800Y-65999116D02*
X94342466Y-65965782D01*
X94342466Y-65965782D02*
X94275800Y-65932449D01*
X94275800Y-65932449D02*
X94075800Y-65932449D01*
X94075800Y-65932449D02*
X94009133Y-65965782D01*
X94009133Y-65965782D02*
X93975800Y-65999116D01*
X93975800Y-65999116D02*
X93942466Y-66065782D01*
X93942466Y-66065782D02*
X93942466Y-66199116D01*
X93942466Y-66199116D02*
X93975800Y-66265782D01*
D12*
%TO.C,J1*%
X87940000Y-62060000D02*
X87940000Y-57940000D01*
X88240000Y-62060000D02*
X87940000Y-62060000D01*
X90240000Y-62060000D02*
X89760000Y-62060000D01*
X92060000Y-62060000D02*
X91760000Y-62060000D01*
X92060000Y-62060000D02*
X92060000Y-57940000D01*
X88240000Y-57940000D02*
X87940000Y-57940000D01*
X90240000Y-57940000D02*
X89760000Y-57940000D01*
X91760000Y-57940000D02*
X91760000Y-55560000D01*
X92060000Y-57940000D02*
X91760000Y-57940000D01*
%TO.C,J2*%
X87940000Y-67940000D02*
X92060000Y-67940000D01*
X87940000Y-68240000D02*
X87940000Y-67940000D01*
X87940000Y-70240000D02*
X87940000Y-69760000D01*
X87940000Y-72060000D02*
X87940000Y-71760000D01*
X87940000Y-72060000D02*
X92060000Y-72060000D01*
X92060000Y-68240000D02*
X92060000Y-67940000D01*
X92060000Y-70240000D02*
X92060000Y-69760000D01*
X92060000Y-71760000D02*
X94440000Y-71760000D01*
X92060000Y-72060000D02*
X92060000Y-71760000D01*
%TD*%
M02*
