%TF.GenerationSoftware,KiCad,Pcbnew,7.0.5.1-1-g8f565ef7f0-dirty-deb11*%
%TF.CreationDate,2023-06-03T11:41:18+00:00*%
%TF.ProjectId,pedalboard-led-ring,70656461-6c62-46f6-9172-642d6c65642d,1.0.0*%
%TF.SameCoordinates,Original*%
%TF.FileFunction,Soldermask,Top*%
%TF.FilePolarity,Negative*%
%FSLAX46Y46*%
G04 Gerber Fmt 4.6, Leading zero omitted, Abs format (unit mm)*
G04 Created by KiCad (PCBNEW 7.0.5.1-1-g8f565ef7f0-dirty-deb11) date 2023-06-03 11:41:18*
%MOMM*%
%LPD*%
G01*
G04 APERTURE LIST*
G04 Aperture macros list*
%AMRoundRect*
0 Rectangle with rounded corners*
0 $1 Rounding radius*
0 $2 $3 $4 $5 $6 $7 $8 $9 X,Y pos of 4 corners*
0 Add a 4 corners polygon primitive as box body*
4,1,4,$2,$3,$4,$5,$6,$7,$8,$9,$2,$3,0*
0 Add four circle primitives for the rounded corners*
1,1,$1+$1,$2,$3*
1,1,$1+$1,$4,$5*
1,1,$1+$1,$6,$7*
1,1,$1+$1,$8,$9*
0 Add four rect primitives between the rounded corners*
20,1,$1+$1,$2,$3,$4,$5,0*
20,1,$1+$1,$4,$5,$6,$7,0*
20,1,$1+$1,$6,$7,$8,$9,0*
20,1,$1+$1,$8,$9,$2,$3,0*%
%AMRotRect*
0 Rectangle, with rotation*
0 The origin of the aperture is its center*
0 $1 length*
0 $2 width*
0 $3 Rotation angle, in degrees counterclockwise*
0 Add horizontal line*
21,1,$1,$2,0,0,$3*%
G04 Aperture macros list end*
%ADD10RoundRect,0.100000X0.195353X-0.138361X-0.022147X0.238361X-0.195353X0.138361X0.022147X-0.238361X0*%
%ADD11RotRect,0.500000X0.500000X300.000000*%
%ADD12R,0.500000X0.500000*%
%ADD13RotRect,0.500000X0.500000X330.000000*%
%ADD14RotRect,0.500000X0.500000X210.000000*%
%ADD15C,2.200000*%
%ADD16RoundRect,0.100000X0.138361X0.195353X-0.238361X-0.022147X-0.138361X-0.195353X0.238361X0.022147X0*%
%ADD17RotRect,0.500000X0.500000X150.000000*%
%ADD18RoundRect,0.100000X-0.022147X-0.238361X0.195353X0.138361X0.022147X0.238361X-0.195353X-0.138361X0*%
%ADD19RoundRect,0.100000X0.238361X-0.022147X-0.138361X0.195353X-0.238361X0.022147X0.138361X-0.195353X0*%
%ADD20RoundRect,0.100000X0.100000X-0.217500X0.100000X0.217500X-0.100000X0.217500X-0.100000X-0.217500X0*%
%ADD21RoundRect,0.100000X0.217500X0.100000X-0.217500X0.100000X-0.217500X-0.100000X0.217500X-0.100000X0*%
%ADD22RoundRect,0.100000X-0.238361X0.022147X0.138361X-0.195353X0.238361X-0.022147X-0.138361X0.195353X0*%
%ADD23RoundRect,0.100000X-0.195353X0.138361X0.022147X-0.238361X0.195353X-0.138361X-0.022147X0.238361X0*%
%ADD24RoundRect,0.100000X-0.138361X-0.195353X0.238361X0.022147X0.138361X0.195353X-0.238361X-0.022147X0*%
%ADD25RotRect,0.500000X0.500000X30.000000*%
%ADD26RoundRect,0.100000X-0.100000X0.217500X-0.100000X-0.217500X0.100000X-0.217500X0.100000X0.217500X0*%
%ADD27RotRect,0.500000X0.500000X120.000000*%
%ADD28RotRect,0.500000X0.500000X240.000000*%
%ADD29RotRect,0.500000X0.500000X60.000000*%
%ADD30RoundRect,0.100000X-0.217500X-0.100000X0.217500X-0.100000X0.217500X0.100000X-0.217500X0.100000X0*%
G04 APERTURE END LIST*
D10*
%TO.C,C8*%
X71240387Y-65527905D03*
X70832887Y-64822095D03*
%TD*%
D11*
%TO.C,D11*%
X84664711Y-67179518D03*
X83885289Y-67629518D03*
X84335289Y-68408940D03*
X85114711Y-67958940D03*
%TD*%
D12*
%TO.C,D1*%
X88550000Y-59550000D03*
X88550000Y-60450000D03*
X89450000Y-60450000D03*
X89450000Y-59550000D03*
%TD*%
%TO.C,D4*%
X79550000Y-51450000D03*
X80450000Y-51450000D03*
X80450000Y-50550000D03*
X79550000Y-50550000D03*
%TD*%
D13*
%TO.C,D12*%
X87629518Y-63885289D03*
X87179518Y-64664711D03*
X87958940Y-65114711D03*
X88408940Y-64335289D03*
%TD*%
D14*
%TO.C,D8*%
X72820482Y-64664711D03*
X72370482Y-63885289D03*
X71591060Y-64335289D03*
X72041060Y-65114711D03*
%TD*%
D15*
%TO.C,H3*%
X68000000Y-48000000D03*
%TD*%
D12*
%TO.C,D10*%
X80450000Y-68550000D03*
X79550000Y-68550000D03*
X79550000Y-69450000D03*
X80450000Y-69450000D03*
%TD*%
D16*
%TO.C,C11*%
X85527905Y-68759613D03*
X84822095Y-69167113D03*
%TD*%
D12*
%TO.C,D7*%
X71450000Y-60450000D03*
X71450000Y-59550000D03*
X70550000Y-59550000D03*
X70550000Y-60450000D03*
%TD*%
D17*
%TO.C,D6*%
X72370482Y-56114711D03*
X72820482Y-55335289D03*
X72041060Y-54885289D03*
X71591060Y-55664711D03*
%TD*%
D18*
%TO.C,C12*%
X88866250Y-65352905D03*
X89273750Y-64647095D03*
%TD*%
D15*
%TO.C,H2*%
X92000000Y-48000000D03*
%TD*%
D18*
%TO.C,C6*%
X70832887Y-55177905D03*
X71240387Y-54472095D03*
%TD*%
D19*
%TO.C,C9*%
X75177905Y-69167113D03*
X74472095Y-68759613D03*
%TD*%
D20*
%TO.C,C7*%
X69650000Y-60407500D03*
X69650000Y-59592500D03*
%TD*%
D21*
%TO.C,C10*%
X80407500Y-70350000D03*
X79592500Y-70350000D03*
%TD*%
D22*
%TO.C,C3*%
X84822095Y-50832887D03*
X85527905Y-51240387D03*
%TD*%
D23*
%TO.C,C2*%
X88759613Y-54472095D03*
X89167113Y-55177905D03*
%TD*%
D24*
%TO.C,C5*%
X74472095Y-51240387D03*
X75177905Y-50832887D03*
%TD*%
D15*
%TO.C,H1*%
X68000000Y-72000000D03*
%TD*%
D25*
%TO.C,D2*%
X87179518Y-55335289D03*
X87629518Y-56114711D03*
X88408940Y-55664711D03*
X87958940Y-54885289D03*
%TD*%
D26*
%TO.C,C1*%
X90350000Y-59592500D03*
X90350000Y-60407500D03*
%TD*%
D27*
%TO.C,D5*%
X75335289Y-52820482D03*
X76114711Y-52370482D03*
X75664711Y-51591060D03*
X74885289Y-52041060D03*
%TD*%
D28*
%TO.C,D9*%
X76114711Y-67629518D03*
X75335289Y-67179518D03*
X74885289Y-67958940D03*
X75664711Y-68408940D03*
%TD*%
D29*
%TO.C,D3*%
X83885289Y-52370482D03*
X84664711Y-52820482D03*
X85114711Y-52041060D03*
X84335289Y-51591060D03*
%TD*%
D21*
%TO.C,R1*%
X89317500Y-61680000D03*
X88502500Y-61680000D03*
%TD*%
D30*
%TO.C,C4*%
X79592500Y-49650000D03*
X80407500Y-49650000D03*
%TD*%
M02*
