%TF.GenerationSoftware,KiCad,Pcbnew,7.0.5.1-1-g8f565ef7f0-dirty-deb11*%
%TF.CreationDate,2023-06-03T10:49:04+00:00*%
%TF.ProjectId,pedalboard-led-ring,70656461-6c62-46f6-9172-642d6c65642d,1.0.0*%
%TF.SameCoordinates,Original*%
%TF.FileFunction,AssemblyDrawing,Bot*%
%FSLAX46Y46*%
G04 Gerber Fmt 4.6, Leading zero omitted, Abs format (unit mm)*
G04 Created by KiCad (PCBNEW 7.0.5.1-1-g8f565ef7f0-dirty-deb11) date 2023-06-03 10:49:04*
%MOMM*%
%LPD*%
G01*
G04 APERTURE LIST*
%ADD10C,0.150000*%
%ADD11C,0.100000*%
G04 APERTURE END LIST*
D10*
%TO.C,J1*%
X86954819Y-57738095D02*
X86288152Y-57738095D01*
X86383390Y-57738095D02*
X86335771Y-57785714D01*
X86335771Y-57785714D02*
X86288152Y-57880952D01*
X86288152Y-57880952D02*
X86288152Y-58023809D01*
X86288152Y-58023809D02*
X86335771Y-58119047D01*
X86335771Y-58119047D02*
X86431009Y-58166666D01*
X86431009Y-58166666D02*
X86954819Y-58166666D01*
X86431009Y-58166666D02*
X86335771Y-58214285D01*
X86335771Y-58214285D02*
X86288152Y-58309523D01*
X86288152Y-58309523D02*
X86288152Y-58452380D01*
X86288152Y-58452380D02*
X86335771Y-58547619D01*
X86335771Y-58547619D02*
X86431009Y-58595238D01*
X86431009Y-58595238D02*
X86954819Y-58595238D01*
X86954819Y-59071428D02*
X86288152Y-59071428D01*
X85954819Y-59071428D02*
X86002438Y-59023809D01*
X86002438Y-59023809D02*
X86050057Y-59071428D01*
X86050057Y-59071428D02*
X86002438Y-59119047D01*
X86002438Y-59119047D02*
X85954819Y-59071428D01*
X85954819Y-59071428D02*
X86050057Y-59071428D01*
X86954819Y-59976189D02*
X85954819Y-59976189D01*
X86907200Y-59976189D02*
X86954819Y-59880951D01*
X86954819Y-59880951D02*
X86954819Y-59690475D01*
X86954819Y-59690475D02*
X86907200Y-59595237D01*
X86907200Y-59595237D02*
X86859580Y-59547618D01*
X86859580Y-59547618D02*
X86764342Y-59499999D01*
X86764342Y-59499999D02*
X86478628Y-59499999D01*
X86478628Y-59499999D02*
X86383390Y-59547618D01*
X86383390Y-59547618D02*
X86335771Y-59595237D01*
X86335771Y-59595237D02*
X86288152Y-59690475D01*
X86288152Y-59690475D02*
X86288152Y-59880951D01*
X86288152Y-59880951D02*
X86335771Y-59976189D01*
X86954819Y-60880951D02*
X85954819Y-60880951D01*
X86907200Y-60880951D02*
X86954819Y-60785713D01*
X86954819Y-60785713D02*
X86954819Y-60595237D01*
X86954819Y-60595237D02*
X86907200Y-60499999D01*
X86907200Y-60499999D02*
X86859580Y-60452380D01*
X86859580Y-60452380D02*
X86764342Y-60404761D01*
X86764342Y-60404761D02*
X86478628Y-60404761D01*
X86478628Y-60404761D02*
X86383390Y-60452380D01*
X86383390Y-60452380D02*
X86335771Y-60499999D01*
X86335771Y-60499999D02*
X86288152Y-60595237D01*
X86288152Y-60595237D02*
X86288152Y-60785713D01*
X86288152Y-60785713D02*
X86335771Y-60880951D01*
X86954819Y-61499999D02*
X86907200Y-61404761D01*
X86907200Y-61404761D02*
X86811961Y-61357142D01*
X86811961Y-61357142D02*
X85954819Y-61357142D01*
X86907200Y-62261904D02*
X86954819Y-62166666D01*
X86954819Y-62166666D02*
X86954819Y-61976190D01*
X86954819Y-61976190D02*
X86907200Y-61880952D01*
X86907200Y-61880952D02*
X86811961Y-61833333D01*
X86811961Y-61833333D02*
X86431009Y-61833333D01*
X86431009Y-61833333D02*
X86335771Y-61880952D01*
X86335771Y-61880952D02*
X86288152Y-61976190D01*
X86288152Y-61976190D02*
X86288152Y-62166666D01*
X86288152Y-62166666D02*
X86335771Y-62261904D01*
X86335771Y-62261904D02*
X86431009Y-62309523D01*
X86431009Y-62309523D02*
X86526247Y-62309523D01*
X86526247Y-62309523D02*
X86621485Y-61833333D01*
X90333333Y-59454819D02*
X90333333Y-60169104D01*
X90333333Y-60169104D02*
X90380952Y-60311961D01*
X90380952Y-60311961D02*
X90476190Y-60407200D01*
X90476190Y-60407200D02*
X90619047Y-60454819D01*
X90619047Y-60454819D02*
X90714285Y-60454819D01*
X89333333Y-60454819D02*
X89904761Y-60454819D01*
X89619047Y-60454819D02*
X89619047Y-59454819D01*
X89619047Y-59454819D02*
X89714285Y-59597676D01*
X89714285Y-59597676D02*
X89809523Y-59692914D01*
X89809523Y-59692914D02*
X89904761Y-59740533D01*
%TO.C,J2*%
X91142857Y-66907200D02*
X91238095Y-66954819D01*
X91238095Y-66954819D02*
X91428571Y-66954819D01*
X91428571Y-66954819D02*
X91523809Y-66907200D01*
X91523809Y-66907200D02*
X91571428Y-66811961D01*
X91571428Y-66811961D02*
X91571428Y-66431009D01*
X91571428Y-66431009D02*
X91523809Y-66335771D01*
X91523809Y-66335771D02*
X91428571Y-66288152D01*
X91428571Y-66288152D02*
X91238095Y-66288152D01*
X91238095Y-66288152D02*
X91142857Y-66335771D01*
X91142857Y-66335771D02*
X91095238Y-66431009D01*
X91095238Y-66431009D02*
X91095238Y-66526247D01*
X91095238Y-66526247D02*
X91571428Y-66621485D01*
X90238095Y-66954819D02*
X90238095Y-65954819D01*
X90238095Y-66907200D02*
X90333333Y-66954819D01*
X90333333Y-66954819D02*
X90523809Y-66954819D01*
X90523809Y-66954819D02*
X90619047Y-66907200D01*
X90619047Y-66907200D02*
X90666666Y-66859580D01*
X90666666Y-66859580D02*
X90714285Y-66764342D01*
X90714285Y-66764342D02*
X90714285Y-66478628D01*
X90714285Y-66478628D02*
X90666666Y-66383390D01*
X90666666Y-66383390D02*
X90619047Y-66335771D01*
X90619047Y-66335771D02*
X90523809Y-66288152D01*
X90523809Y-66288152D02*
X90333333Y-66288152D01*
X90333333Y-66288152D02*
X90238095Y-66335771D01*
X89333333Y-66288152D02*
X89333333Y-67097676D01*
X89333333Y-67097676D02*
X89380952Y-67192914D01*
X89380952Y-67192914D02*
X89428571Y-67240533D01*
X89428571Y-67240533D02*
X89523809Y-67288152D01*
X89523809Y-67288152D02*
X89666666Y-67288152D01*
X89666666Y-67288152D02*
X89761904Y-67240533D01*
X89333333Y-66907200D02*
X89428571Y-66954819D01*
X89428571Y-66954819D02*
X89619047Y-66954819D01*
X89619047Y-66954819D02*
X89714285Y-66907200D01*
X89714285Y-66907200D02*
X89761904Y-66859580D01*
X89761904Y-66859580D02*
X89809523Y-66764342D01*
X89809523Y-66764342D02*
X89809523Y-66478628D01*
X89809523Y-66478628D02*
X89761904Y-66383390D01*
X89761904Y-66383390D02*
X89714285Y-66335771D01*
X89714285Y-66335771D02*
X89619047Y-66288152D01*
X89619047Y-66288152D02*
X89428571Y-66288152D01*
X89428571Y-66288152D02*
X89333333Y-66335771D01*
X88476190Y-66907200D02*
X88571428Y-66954819D01*
X88571428Y-66954819D02*
X88761904Y-66954819D01*
X88761904Y-66954819D02*
X88857142Y-66907200D01*
X88857142Y-66907200D02*
X88904761Y-66811961D01*
X88904761Y-66811961D02*
X88904761Y-66431009D01*
X88904761Y-66431009D02*
X88857142Y-66335771D01*
X88857142Y-66335771D02*
X88761904Y-66288152D01*
X88761904Y-66288152D02*
X88571428Y-66288152D01*
X88571428Y-66288152D02*
X88476190Y-66335771D01*
X88476190Y-66335771D02*
X88428571Y-66431009D01*
X88428571Y-66431009D02*
X88428571Y-66526247D01*
X88428571Y-66526247D02*
X88904761Y-66621485D01*
X89454819Y-69666666D02*
X90169104Y-69666666D01*
X90169104Y-69666666D02*
X90311961Y-69619047D01*
X90311961Y-69619047D02*
X90407200Y-69523809D01*
X90407200Y-69523809D02*
X90454819Y-69380952D01*
X90454819Y-69380952D02*
X90454819Y-69285714D01*
X89550057Y-70095238D02*
X89502438Y-70142857D01*
X89502438Y-70142857D02*
X89454819Y-70238095D01*
X89454819Y-70238095D02*
X89454819Y-70476190D01*
X89454819Y-70476190D02*
X89502438Y-70571428D01*
X89502438Y-70571428D02*
X89550057Y-70619047D01*
X89550057Y-70619047D02*
X89645295Y-70666666D01*
X89645295Y-70666666D02*
X89740533Y-70666666D01*
X89740533Y-70666666D02*
X89883390Y-70619047D01*
X89883390Y-70619047D02*
X90454819Y-70047619D01*
X90454819Y-70047619D02*
X90454819Y-70666666D01*
D11*
%TO.C,J1*%
X88750000Y-63000000D02*
X89250000Y-63000000D01*
X89250000Y-63000000D02*
X89250000Y-62000000D01*
X90750000Y-63000000D02*
X91250000Y-63000000D01*
X91250000Y-63000000D02*
X91250000Y-62000000D01*
X88000000Y-62000000D02*
X92000000Y-62000000D01*
X88750000Y-62000000D02*
X88750000Y-63000000D01*
X90750000Y-62000000D02*
X90750000Y-63000000D01*
X92000000Y-62000000D02*
X92000000Y-59000000D01*
X92000000Y-59000000D02*
X91000000Y-58000000D01*
X88000000Y-58000000D02*
X88000000Y-62000000D01*
X89250000Y-58000000D02*
X89250000Y-57000000D01*
X91000000Y-58000000D02*
X88000000Y-58000000D01*
X91250000Y-58000000D02*
X91250000Y-57000000D01*
X88750000Y-57000000D02*
X88750000Y-58000000D01*
X89250000Y-57000000D02*
X88750000Y-57000000D01*
X90750000Y-57000000D02*
X90750000Y-58000000D01*
X91250000Y-57000000D02*
X90750000Y-57000000D01*
%TO.C,J2*%
X87000000Y-68750000D02*
X87000000Y-69250000D01*
X87000000Y-69250000D02*
X88000000Y-69250000D01*
X87000000Y-70750000D02*
X87000000Y-71250000D01*
X87000000Y-71250000D02*
X88000000Y-71250000D01*
X88000000Y-68000000D02*
X88000000Y-72000000D01*
X88000000Y-68750000D02*
X87000000Y-68750000D01*
X88000000Y-70750000D02*
X87000000Y-70750000D01*
X88000000Y-72000000D02*
X91000000Y-72000000D01*
X91000000Y-72000000D02*
X92000000Y-71000000D01*
X92000000Y-68000000D02*
X88000000Y-68000000D01*
X92000000Y-69250000D02*
X93000000Y-69250000D01*
X92000000Y-71000000D02*
X92000000Y-68000000D01*
X92000000Y-71250000D02*
X93000000Y-71250000D01*
X93000000Y-68750000D02*
X92000000Y-68750000D01*
X93000000Y-69250000D02*
X93000000Y-68750000D01*
X93000000Y-70750000D02*
X92000000Y-70750000D01*
X93000000Y-71250000D02*
X93000000Y-70750000D01*
%TD*%
M02*
