%TF.GenerationSoftware,KiCad,Pcbnew,7.0.2.1-36-g582732918d-dirty-deb11*%
%TF.CreationDate,2023-05-22T19:38:29+00:00*%
%TF.ProjectId,pedalboard-led-ring,70656461-6c62-46f6-9172-642d6c65642d,rev?*%
%TF.SameCoordinates,Original*%
%TF.FileFunction,Other,User*%
%FSLAX46Y46*%
G04 Gerber Fmt 4.6, Leading zero omitted, Abs format (unit mm)*
G04 Created by KiCad (PCBNEW 7.0.2.1-36-g582732918d-dirty-deb11) date 2023-05-22 19:38:29*
%MOMM*%
%LPD*%
G01*
G04 APERTURE LIST*
%ADD10C,0.050000*%
G04 APERTURE END LIST*
D10*
%TO.C,U1*%
X91200000Y-50100000D02*
X98600000Y-50100000D01*
X91200000Y-55500000D02*
X91200000Y-50100000D01*
X98600000Y-50100000D02*
X98600000Y-55500000D01*
X98600000Y-55500000D02*
X91200000Y-55500000D01*
%TO.C,J1*%
X99950000Y-62100000D02*
X99950000Y-73900000D01*
X91250000Y-62100000D02*
X99950000Y-62100000D01*
X99950000Y-73900000D02*
X91250000Y-73900000D01*
X91250000Y-73900000D02*
X91250000Y-62100000D01*
%TO.C,C1*%
X89700000Y-57950000D02*
X90500000Y-57950000D01*
X89700000Y-60050000D02*
X89700000Y-57950000D01*
X90500000Y-57250000D02*
X91650000Y-56100000D01*
X90500000Y-57950000D02*
X90500000Y-57250000D01*
X90500000Y-60050000D02*
X89700000Y-60050000D01*
X90500000Y-60750000D02*
X90500000Y-60050000D01*
X90500000Y-60750000D02*
X91650000Y-61900000D01*
X91650000Y-56100000D02*
X96300000Y-56100000D01*
X91650000Y-61900000D02*
X96300000Y-61900000D01*
X96300000Y-57950000D02*
X96300000Y-56100000D01*
X96300000Y-60050000D02*
X97100000Y-60050000D01*
X96300000Y-61900000D02*
X96300000Y-60050000D01*
X97100000Y-57950000D02*
X96300000Y-57950000D01*
X97100000Y-60050000D02*
X97100000Y-57950000D01*
%TO.C,R1*%
X98650000Y-54200000D02*
X98650000Y-51000000D01*
X100150000Y-54200000D02*
X98650000Y-54200000D01*
X100150000Y-54200000D02*
X100150000Y-51000000D01*
X100150000Y-51000000D02*
X98650000Y-51000000D01*
%TO.C,C2*%
X100190000Y-54210000D02*
X98610000Y-54210000D01*
X98610000Y-54210000D02*
X98610000Y-56590000D01*
X100190000Y-56590000D02*
X100190000Y-54210000D01*
X98610000Y-56590000D02*
X100190000Y-56590000D01*
%TD*%
M02*
