%TF.GenerationSoftware,KiCad,Pcbnew,7.0.2.1-36-g582732918d-dirty-deb11*%
%TF.CreationDate,2023-05-26T12:49:15+00:00*%
%TF.ProjectId,pedalboard-led-ring,70656461-6c62-46f6-9172-642d6c65642d,rev?*%
%TF.SameCoordinates,Original*%
%TF.FileFunction,AssemblyDrawing,Top*%
%FSLAX46Y46*%
G04 Gerber Fmt 4.6, Leading zero omitted, Abs format (unit mm)*
G04 Created by KiCad (PCBNEW 7.0.2.1-36-g582732918d-dirty-deb11) date 2023-05-26 12:49:15*
%MOMM*%
%LPD*%
G01*
G04 APERTURE LIST*
%ADD10C,0.150000*%
%ADD11C,0.075000*%
%ADD12C,0.100000*%
G04 APERTURE END LIST*
D10*
%TO.C,D6*%
X84497374Y-54946908D02*
X84743100Y-54420138D01*
X84211659Y-54452037D02*
X85077685Y-53952037D01*
X85077685Y-53952037D02*
X85268161Y-54281951D01*
X85268161Y-54281951D02*
X85274541Y-54388239D01*
X85274541Y-54388239D02*
X85257111Y-54453288D01*
X85257111Y-54453288D02*
X85198442Y-54542146D01*
X85198442Y-54542146D02*
X85074724Y-54613575D01*
X85074724Y-54613575D02*
X84968436Y-54619955D01*
X84968436Y-54619955D02*
X84903387Y-54602525D01*
X84903387Y-54602525D02*
X84814529Y-54543856D01*
X84814529Y-54543856D02*
X84624052Y-54213941D01*
X85798350Y-55295504D02*
X85791970Y-55189216D01*
X85791970Y-55189216D02*
X85720542Y-55065498D01*
X85720542Y-55065498D02*
X85607874Y-54965590D01*
X85607874Y-54965590D02*
X85477776Y-54930730D01*
X85477776Y-54930730D02*
X85371488Y-54937110D01*
X85371488Y-54937110D02*
X85182721Y-54991109D01*
X85182721Y-54991109D02*
X85059003Y-55062537D01*
X85059003Y-55062537D02*
X84917856Y-55199014D01*
X84917856Y-55199014D02*
X84859187Y-55287873D01*
X84859187Y-55287873D02*
X84824327Y-55417970D01*
X84824327Y-55417970D02*
X84854516Y-55565498D01*
X84854516Y-55565498D02*
X84902135Y-55647977D01*
X84902135Y-55647977D02*
X85014803Y-55747885D01*
X85014803Y-55747885D02*
X85079852Y-55765315D01*
X85079852Y-55765315D02*
X85368527Y-55598648D01*
X85368527Y-55598648D02*
X85273289Y-55433691D01*
X85831958Y-56210858D02*
X85862148Y-56358385D01*
X85862148Y-56358385D02*
X85844718Y-56423434D01*
X85844718Y-56423434D02*
X85786049Y-56512293D01*
X85786049Y-56512293D02*
X85662331Y-56583721D01*
X85662331Y-56583721D02*
X85556043Y-56590101D01*
X85556043Y-56590101D02*
X85490994Y-56572671D01*
X85490994Y-56572671D02*
X85402135Y-56514002D01*
X85402135Y-56514002D02*
X85211659Y-56184088D01*
X85211659Y-56184088D02*
X86077685Y-55684088D01*
X86077685Y-55684088D02*
X86244351Y-55972763D01*
X86244351Y-55972763D02*
X86250731Y-56079051D01*
X86250731Y-56079051D02*
X86233301Y-56144100D01*
X86233301Y-56144100D02*
X86174632Y-56232958D01*
X86174632Y-56232958D02*
X86092154Y-56280577D01*
X86092154Y-56280577D02*
X85985865Y-56286957D01*
X85985865Y-56286957D02*
X85920817Y-56269527D01*
X85920817Y-56269527D02*
X85831958Y-56210858D01*
X85831958Y-56210858D02*
X85665292Y-55922183D01*
X86041574Y-56859637D02*
X86422526Y-57519466D01*
X86568802Y-58534728D02*
X86330707Y-58122335D01*
X86330707Y-58122335D02*
X87196732Y-57622335D01*
X87189101Y-58561498D02*
X87355768Y-58850173D01*
X86973564Y-59235796D02*
X86735469Y-58823403D01*
X86735469Y-58823403D02*
X87601494Y-58323403D01*
X87601494Y-58323403D02*
X87839589Y-58735796D01*
X87187850Y-59606950D02*
X88053875Y-59106950D01*
X88053875Y-59106950D02*
X88172923Y-59313146D01*
X88172923Y-59313146D02*
X88203112Y-59460674D01*
X88203112Y-59460674D02*
X88168252Y-59590771D01*
X88168252Y-59590771D02*
X88109583Y-59679630D01*
X88109583Y-59679630D02*
X87968436Y-59816107D01*
X87968436Y-59816107D02*
X87844718Y-59887536D01*
X87844718Y-59887536D02*
X87655951Y-59941535D01*
X87655951Y-59941535D02*
X87549663Y-59947914D01*
X87549663Y-59947914D02*
X87419565Y-59913055D01*
X87419565Y-59913055D02*
X87306897Y-59813146D01*
X87306897Y-59813146D02*
X87187850Y-59606950D01*
D11*
X87665156Y-55771050D02*
X88098169Y-55521050D01*
X88098169Y-55521050D02*
X88157692Y-55624148D01*
X88157692Y-55624148D02*
X88172787Y-55697912D01*
X88172787Y-55697912D02*
X88155357Y-55762961D01*
X88155357Y-55762961D02*
X88126023Y-55807390D01*
X88126023Y-55807390D02*
X88055449Y-55875629D01*
X88055449Y-55875629D02*
X87993590Y-55911343D01*
X87993590Y-55911343D02*
X87899207Y-55938342D01*
X87899207Y-55938342D02*
X87846062Y-55941532D01*
X87846062Y-55941532D02*
X87781014Y-55924102D01*
X87781014Y-55924102D02*
X87724680Y-55874148D01*
X87724680Y-55874148D02*
X87665156Y-55771050D01*
X88455311Y-56139639D02*
X88407692Y-56057161D01*
X88407692Y-56057161D02*
X88363263Y-56027826D01*
X88363263Y-56027826D02*
X88330739Y-56019111D01*
X88330739Y-56019111D02*
X88245070Y-56013586D01*
X88245070Y-56013586D02*
X88150687Y-56040586D01*
X88150687Y-56040586D02*
X87985730Y-56135824D01*
X87985730Y-56135824D02*
X87956395Y-56180253D01*
X87956395Y-56180253D02*
X87947680Y-56212777D01*
X87947680Y-56212777D02*
X87950870Y-56265922D01*
X87950870Y-56265922D02*
X87998489Y-56348400D01*
X87998489Y-56348400D02*
X88042918Y-56377735D01*
X88042918Y-56377735D02*
X88075443Y-56386450D01*
X88075443Y-56386450D02*
X88128587Y-56383260D01*
X88128587Y-56383260D02*
X88231685Y-56323736D01*
X88231685Y-56323736D02*
X88261020Y-56279307D01*
X88261020Y-56279307D02*
X88269735Y-56246782D01*
X88269735Y-56246782D02*
X88266545Y-56193638D01*
X88266545Y-56193638D02*
X88218926Y-56111160D01*
X88218926Y-56111160D02*
X88174496Y-56081825D01*
X88174496Y-56081825D02*
X88141972Y-56073110D01*
X88141972Y-56073110D02*
X88088828Y-56076300D01*
D10*
%TO.C,D2*%
X77333333Y-67362619D02*
X77000000Y-66886428D01*
X76761905Y-67362619D02*
X76761905Y-66362619D01*
X76761905Y-66362619D02*
X77142857Y-66362619D01*
X77142857Y-66362619D02*
X77238095Y-66410238D01*
X77238095Y-66410238D02*
X77285714Y-66457857D01*
X77285714Y-66457857D02*
X77333333Y-66553095D01*
X77333333Y-66553095D02*
X77333333Y-66695952D01*
X77333333Y-66695952D02*
X77285714Y-66791190D01*
X77285714Y-66791190D02*
X77238095Y-66838809D01*
X77238095Y-66838809D02*
X77142857Y-66886428D01*
X77142857Y-66886428D02*
X76761905Y-66886428D01*
X78285714Y-66410238D02*
X78190476Y-66362619D01*
X78190476Y-66362619D02*
X78047619Y-66362619D01*
X78047619Y-66362619D02*
X77904762Y-66410238D01*
X77904762Y-66410238D02*
X77809524Y-66505476D01*
X77809524Y-66505476D02*
X77761905Y-66600714D01*
X77761905Y-66600714D02*
X77714286Y-66791190D01*
X77714286Y-66791190D02*
X77714286Y-66934047D01*
X77714286Y-66934047D02*
X77761905Y-67124523D01*
X77761905Y-67124523D02*
X77809524Y-67219761D01*
X77809524Y-67219761D02*
X77904762Y-67315000D01*
X77904762Y-67315000D02*
X78047619Y-67362619D01*
X78047619Y-67362619D02*
X78142857Y-67362619D01*
X78142857Y-67362619D02*
X78285714Y-67315000D01*
X78285714Y-67315000D02*
X78333333Y-67267380D01*
X78333333Y-67267380D02*
X78333333Y-66934047D01*
X78333333Y-66934047D02*
X78142857Y-66934047D01*
X79095238Y-66838809D02*
X79238095Y-66886428D01*
X79238095Y-66886428D02*
X79285714Y-66934047D01*
X79285714Y-66934047D02*
X79333333Y-67029285D01*
X79333333Y-67029285D02*
X79333333Y-67172142D01*
X79333333Y-67172142D02*
X79285714Y-67267380D01*
X79285714Y-67267380D02*
X79238095Y-67315000D01*
X79238095Y-67315000D02*
X79142857Y-67362619D01*
X79142857Y-67362619D02*
X78761905Y-67362619D01*
X78761905Y-67362619D02*
X78761905Y-66362619D01*
X78761905Y-66362619D02*
X79095238Y-66362619D01*
X79095238Y-66362619D02*
X79190476Y-66410238D01*
X79190476Y-66410238D02*
X79238095Y-66457857D01*
X79238095Y-66457857D02*
X79285714Y-66553095D01*
X79285714Y-66553095D02*
X79285714Y-66648333D01*
X79285714Y-66648333D02*
X79238095Y-66743571D01*
X79238095Y-66743571D02*
X79190476Y-66791190D01*
X79190476Y-66791190D02*
X79095238Y-66838809D01*
X79095238Y-66838809D02*
X78761905Y-66838809D01*
X79761905Y-66981666D02*
X80523810Y-66981666D01*
X81476190Y-67362619D02*
X81000000Y-67362619D01*
X81000000Y-67362619D02*
X81000000Y-66362619D01*
X81809524Y-66838809D02*
X82142857Y-66838809D01*
X82285714Y-67362619D02*
X81809524Y-67362619D01*
X81809524Y-67362619D02*
X81809524Y-66362619D01*
X81809524Y-66362619D02*
X82285714Y-66362619D01*
X82714286Y-67362619D02*
X82714286Y-66362619D01*
X82714286Y-66362619D02*
X82952381Y-66362619D01*
X82952381Y-66362619D02*
X83095238Y-66410238D01*
X83095238Y-66410238D02*
X83190476Y-66505476D01*
X83190476Y-66505476D02*
X83238095Y-66600714D01*
X83238095Y-66600714D02*
X83285714Y-66791190D01*
X83285714Y-66791190D02*
X83285714Y-66934047D01*
X83285714Y-66934047D02*
X83238095Y-67124523D01*
X83238095Y-67124523D02*
X83190476Y-67219761D01*
X83190476Y-67219761D02*
X83095238Y-67315000D01*
X83095238Y-67315000D02*
X82952381Y-67362619D01*
X82952381Y-67362619D02*
X82714286Y-67362619D01*
D11*
X79630952Y-69231309D02*
X79630952Y-68731309D01*
X79630952Y-68731309D02*
X79750000Y-68731309D01*
X79750000Y-68731309D02*
X79821428Y-68755119D01*
X79821428Y-68755119D02*
X79869047Y-68802738D01*
X79869047Y-68802738D02*
X79892857Y-68850357D01*
X79892857Y-68850357D02*
X79916666Y-68945595D01*
X79916666Y-68945595D02*
X79916666Y-69017023D01*
X79916666Y-69017023D02*
X79892857Y-69112261D01*
X79892857Y-69112261D02*
X79869047Y-69159880D01*
X79869047Y-69159880D02*
X79821428Y-69207500D01*
X79821428Y-69207500D02*
X79750000Y-69231309D01*
X79750000Y-69231309D02*
X79630952Y-69231309D01*
X80107143Y-68778928D02*
X80130952Y-68755119D01*
X80130952Y-68755119D02*
X80178571Y-68731309D01*
X80178571Y-68731309D02*
X80297619Y-68731309D01*
X80297619Y-68731309D02*
X80345238Y-68755119D01*
X80345238Y-68755119D02*
X80369047Y-68778928D01*
X80369047Y-68778928D02*
X80392857Y-68826547D01*
X80392857Y-68826547D02*
X80392857Y-68874166D01*
X80392857Y-68874166D02*
X80369047Y-68945595D01*
X80369047Y-68945595D02*
X80083333Y-69231309D01*
X80083333Y-69231309D02*
X80392857Y-69231309D01*
D10*
%TO.C,D5*%
X77333333Y-53562619D02*
X77000000Y-53086428D01*
X76761905Y-53562619D02*
X76761905Y-52562619D01*
X76761905Y-52562619D02*
X77142857Y-52562619D01*
X77142857Y-52562619D02*
X77238095Y-52610238D01*
X77238095Y-52610238D02*
X77285714Y-52657857D01*
X77285714Y-52657857D02*
X77333333Y-52753095D01*
X77333333Y-52753095D02*
X77333333Y-52895952D01*
X77333333Y-52895952D02*
X77285714Y-52991190D01*
X77285714Y-52991190D02*
X77238095Y-53038809D01*
X77238095Y-53038809D02*
X77142857Y-53086428D01*
X77142857Y-53086428D02*
X76761905Y-53086428D01*
X78285714Y-52610238D02*
X78190476Y-52562619D01*
X78190476Y-52562619D02*
X78047619Y-52562619D01*
X78047619Y-52562619D02*
X77904762Y-52610238D01*
X77904762Y-52610238D02*
X77809524Y-52705476D01*
X77809524Y-52705476D02*
X77761905Y-52800714D01*
X77761905Y-52800714D02*
X77714286Y-52991190D01*
X77714286Y-52991190D02*
X77714286Y-53134047D01*
X77714286Y-53134047D02*
X77761905Y-53324523D01*
X77761905Y-53324523D02*
X77809524Y-53419761D01*
X77809524Y-53419761D02*
X77904762Y-53515000D01*
X77904762Y-53515000D02*
X78047619Y-53562619D01*
X78047619Y-53562619D02*
X78142857Y-53562619D01*
X78142857Y-53562619D02*
X78285714Y-53515000D01*
X78285714Y-53515000D02*
X78333333Y-53467380D01*
X78333333Y-53467380D02*
X78333333Y-53134047D01*
X78333333Y-53134047D02*
X78142857Y-53134047D01*
X79095238Y-53038809D02*
X79238095Y-53086428D01*
X79238095Y-53086428D02*
X79285714Y-53134047D01*
X79285714Y-53134047D02*
X79333333Y-53229285D01*
X79333333Y-53229285D02*
X79333333Y-53372142D01*
X79333333Y-53372142D02*
X79285714Y-53467380D01*
X79285714Y-53467380D02*
X79238095Y-53515000D01*
X79238095Y-53515000D02*
X79142857Y-53562619D01*
X79142857Y-53562619D02*
X78761905Y-53562619D01*
X78761905Y-53562619D02*
X78761905Y-52562619D01*
X78761905Y-52562619D02*
X79095238Y-52562619D01*
X79095238Y-52562619D02*
X79190476Y-52610238D01*
X79190476Y-52610238D02*
X79238095Y-52657857D01*
X79238095Y-52657857D02*
X79285714Y-52753095D01*
X79285714Y-52753095D02*
X79285714Y-52848333D01*
X79285714Y-52848333D02*
X79238095Y-52943571D01*
X79238095Y-52943571D02*
X79190476Y-52991190D01*
X79190476Y-52991190D02*
X79095238Y-53038809D01*
X79095238Y-53038809D02*
X78761905Y-53038809D01*
X79761905Y-53181666D02*
X80523810Y-53181666D01*
X81476190Y-53562619D02*
X81000000Y-53562619D01*
X81000000Y-53562619D02*
X81000000Y-52562619D01*
X81809524Y-53038809D02*
X82142857Y-53038809D01*
X82285714Y-53562619D02*
X81809524Y-53562619D01*
X81809524Y-53562619D02*
X81809524Y-52562619D01*
X81809524Y-52562619D02*
X82285714Y-52562619D01*
X82714286Y-53562619D02*
X82714286Y-52562619D01*
X82714286Y-52562619D02*
X82952381Y-52562619D01*
X82952381Y-52562619D02*
X83095238Y-52610238D01*
X83095238Y-52610238D02*
X83190476Y-52705476D01*
X83190476Y-52705476D02*
X83238095Y-52800714D01*
X83238095Y-52800714D02*
X83285714Y-52991190D01*
X83285714Y-52991190D02*
X83285714Y-53134047D01*
X83285714Y-53134047D02*
X83238095Y-53324523D01*
X83238095Y-53324523D02*
X83190476Y-53419761D01*
X83190476Y-53419761D02*
X83095238Y-53515000D01*
X83095238Y-53515000D02*
X82952381Y-53562619D01*
X82952381Y-53562619D02*
X82714286Y-53562619D01*
D11*
X79630952Y-51231309D02*
X79630952Y-50731309D01*
X79630952Y-50731309D02*
X79750000Y-50731309D01*
X79750000Y-50731309D02*
X79821428Y-50755119D01*
X79821428Y-50755119D02*
X79869047Y-50802738D01*
X79869047Y-50802738D02*
X79892857Y-50850357D01*
X79892857Y-50850357D02*
X79916666Y-50945595D01*
X79916666Y-50945595D02*
X79916666Y-51017023D01*
X79916666Y-51017023D02*
X79892857Y-51112261D01*
X79892857Y-51112261D02*
X79869047Y-51159880D01*
X79869047Y-51159880D02*
X79821428Y-51207500D01*
X79821428Y-51207500D02*
X79750000Y-51231309D01*
X79750000Y-51231309D02*
X79630952Y-51231309D01*
X80369047Y-50731309D02*
X80130952Y-50731309D01*
X80130952Y-50731309D02*
X80107143Y-50969404D01*
X80107143Y-50969404D02*
X80130952Y-50945595D01*
X80130952Y-50945595D02*
X80178571Y-50921785D01*
X80178571Y-50921785D02*
X80297619Y-50921785D01*
X80297619Y-50921785D02*
X80345238Y-50945595D01*
X80345238Y-50945595D02*
X80369047Y-50969404D01*
X80369047Y-50969404D02*
X80392857Y-51017023D01*
X80392857Y-51017023D02*
X80392857Y-51136071D01*
X80392857Y-51136071D02*
X80369047Y-51183690D01*
X80369047Y-51183690D02*
X80345238Y-51207500D01*
X80345238Y-51207500D02*
X80297619Y-51231309D01*
X80297619Y-51231309D02*
X80178571Y-51231309D01*
X80178571Y-51231309D02*
X80130952Y-51207500D01*
X80130952Y-51207500D02*
X80107143Y-51183690D01*
D10*
%TO.C,D3*%
X72034680Y-60896908D02*
X72280406Y-60370138D01*
X71748965Y-60402037D02*
X72614991Y-59902037D01*
X72614991Y-59902037D02*
X72805467Y-60231951D01*
X72805467Y-60231951D02*
X72811847Y-60338239D01*
X72811847Y-60338239D02*
X72794417Y-60403288D01*
X72794417Y-60403288D02*
X72735748Y-60492146D01*
X72735748Y-60492146D02*
X72612030Y-60563575D01*
X72612030Y-60563575D02*
X72505742Y-60569955D01*
X72505742Y-60569955D02*
X72440693Y-60552525D01*
X72440693Y-60552525D02*
X72351835Y-60493856D01*
X72351835Y-60493856D02*
X72161358Y-60163941D01*
X73335656Y-61245504D02*
X73329276Y-61139216D01*
X73329276Y-61139216D02*
X73257848Y-61015498D01*
X73257848Y-61015498D02*
X73145180Y-60915590D01*
X73145180Y-60915590D02*
X73015082Y-60880730D01*
X73015082Y-60880730D02*
X72908794Y-60887110D01*
X72908794Y-60887110D02*
X72720027Y-60941109D01*
X72720027Y-60941109D02*
X72596309Y-61012537D01*
X72596309Y-61012537D02*
X72455162Y-61149014D01*
X72455162Y-61149014D02*
X72396493Y-61237873D01*
X72396493Y-61237873D02*
X72361633Y-61367970D01*
X72361633Y-61367970D02*
X72391822Y-61515498D01*
X72391822Y-61515498D02*
X72439441Y-61597977D01*
X72439441Y-61597977D02*
X72552109Y-61697885D01*
X72552109Y-61697885D02*
X72617158Y-61715315D01*
X72617158Y-61715315D02*
X72905833Y-61548648D01*
X72905833Y-61548648D02*
X72810595Y-61383691D01*
X73369264Y-62160858D02*
X73399454Y-62308385D01*
X73399454Y-62308385D02*
X73382024Y-62373434D01*
X73382024Y-62373434D02*
X73323355Y-62462293D01*
X73323355Y-62462293D02*
X73199637Y-62533721D01*
X73199637Y-62533721D02*
X73093349Y-62540101D01*
X73093349Y-62540101D02*
X73028300Y-62522671D01*
X73028300Y-62522671D02*
X72939441Y-62464002D01*
X72939441Y-62464002D02*
X72748965Y-62134088D01*
X72748965Y-62134088D02*
X73614991Y-61634088D01*
X73614991Y-61634088D02*
X73781657Y-61922763D01*
X73781657Y-61922763D02*
X73788037Y-62029051D01*
X73788037Y-62029051D02*
X73770607Y-62094100D01*
X73770607Y-62094100D02*
X73711938Y-62182958D01*
X73711938Y-62182958D02*
X73629460Y-62230577D01*
X73629460Y-62230577D02*
X73523171Y-62236957D01*
X73523171Y-62236957D02*
X73458123Y-62219527D01*
X73458123Y-62219527D02*
X73369264Y-62160858D01*
X73369264Y-62160858D02*
X73202598Y-61872183D01*
X73578880Y-62809637D02*
X73959832Y-63469466D01*
X74106108Y-64484728D02*
X73868013Y-64072335D01*
X73868013Y-64072335D02*
X74734038Y-63572335D01*
X74726407Y-64511498D02*
X74893074Y-64800173D01*
X74510870Y-65185796D02*
X74272775Y-64773403D01*
X74272775Y-64773403D02*
X75138800Y-64273403D01*
X75138800Y-64273403D02*
X75376895Y-64685796D01*
X74725156Y-65556950D02*
X75591181Y-65056950D01*
X75591181Y-65056950D02*
X75710229Y-65263146D01*
X75710229Y-65263146D02*
X75740418Y-65410674D01*
X75740418Y-65410674D02*
X75705558Y-65540771D01*
X75705558Y-65540771D02*
X75646889Y-65629630D01*
X75646889Y-65629630D02*
X75505742Y-65766107D01*
X75505742Y-65766107D02*
X75382024Y-65837536D01*
X75382024Y-65837536D02*
X75193257Y-65891535D01*
X75193257Y-65891535D02*
X75086969Y-65897914D01*
X75086969Y-65897914D02*
X74956871Y-65863055D01*
X74956871Y-65863055D02*
X74844203Y-65763146D01*
X74844203Y-65763146D02*
X74725156Y-65556950D01*
D11*
X71565156Y-63821050D02*
X71998169Y-63571050D01*
X71998169Y-63571050D02*
X72057692Y-63674148D01*
X72057692Y-63674148D02*
X72072787Y-63747912D01*
X72072787Y-63747912D02*
X72055357Y-63812961D01*
X72055357Y-63812961D02*
X72026023Y-63857390D01*
X72026023Y-63857390D02*
X71955449Y-63925629D01*
X71955449Y-63925629D02*
X71893590Y-63961343D01*
X71893590Y-63961343D02*
X71799207Y-63988342D01*
X71799207Y-63988342D02*
X71746062Y-63991532D01*
X71746062Y-63991532D02*
X71681014Y-63974102D01*
X71681014Y-63974102D02*
X71624680Y-63924148D01*
X71624680Y-63924148D02*
X71565156Y-63821050D01*
X72224359Y-63962823D02*
X72379121Y-64230879D01*
X72379121Y-64230879D02*
X72130830Y-64181779D01*
X72130830Y-64181779D02*
X72166545Y-64243638D01*
X72166545Y-64243638D02*
X72169735Y-64296782D01*
X72169735Y-64296782D02*
X72161020Y-64329307D01*
X72161020Y-64329307D02*
X72131685Y-64373736D01*
X72131685Y-64373736D02*
X72028587Y-64433260D01*
X72028587Y-64433260D02*
X71975443Y-64436450D01*
X71975443Y-64436450D02*
X71942918Y-64427735D01*
X71942918Y-64427735D02*
X71898489Y-64398400D01*
X71898489Y-64398400D02*
X71827061Y-64274682D01*
X71827061Y-64274682D02*
X71823871Y-64221538D01*
X71823871Y-64221538D02*
X71832586Y-64189014D01*
D10*
%TO.C,D4*%
X72835959Y-59565710D02*
X72256900Y-59616290D01*
X72550245Y-60060581D02*
X71684220Y-59560581D01*
X71684220Y-59560581D02*
X71874696Y-59230667D01*
X71874696Y-59230667D02*
X71963554Y-59171998D01*
X71963554Y-59171998D02*
X72028603Y-59154568D01*
X72028603Y-59154568D02*
X72134891Y-59160948D01*
X72134891Y-59160948D02*
X72258609Y-59232376D01*
X72258609Y-59232376D02*
X72317278Y-59321235D01*
X72317278Y-59321235D02*
X72334708Y-59386284D01*
X72334708Y-59386284D02*
X72328328Y-59492572D01*
X72328328Y-59492572D02*
X72137852Y-59822486D01*
X72487364Y-58264733D02*
X72398505Y-58323402D01*
X72398505Y-58323402D02*
X72327077Y-58447120D01*
X72327077Y-58447120D02*
X72296887Y-58594648D01*
X72296887Y-58594648D02*
X72331747Y-58724745D01*
X72331747Y-58724745D02*
X72390416Y-58813604D01*
X72390416Y-58813604D02*
X72531564Y-58950081D01*
X72531564Y-58950081D02*
X72655282Y-59021510D01*
X72655282Y-59021510D02*
X72844048Y-59075508D01*
X72844048Y-59075508D02*
X72950337Y-59081888D01*
X72950337Y-59081888D02*
X73080434Y-59047029D01*
X73080434Y-59047029D02*
X73193102Y-58947120D01*
X73193102Y-58947120D02*
X73240721Y-58864642D01*
X73240721Y-58864642D02*
X73270910Y-58717114D01*
X73270910Y-58717114D02*
X73253481Y-58652065D01*
X73253481Y-58652065D02*
X72964806Y-58485399D01*
X72964806Y-58485399D02*
X72869567Y-58650356D01*
X73263279Y-57777951D02*
X73375947Y-57678042D01*
X73375947Y-57678042D02*
X73440996Y-57660612D01*
X73440996Y-57660612D02*
X73547284Y-57666992D01*
X73547284Y-57666992D02*
X73671002Y-57738421D01*
X73671002Y-57738421D02*
X73729671Y-57827279D01*
X73729671Y-57827279D02*
X73747101Y-57892328D01*
X73747101Y-57892328D02*
X73740721Y-57998616D01*
X73740721Y-57998616D02*
X73550245Y-58328531D01*
X73550245Y-58328531D02*
X72684220Y-57828531D01*
X72684220Y-57828531D02*
X72850886Y-57539855D01*
X72850886Y-57539855D02*
X72939745Y-57481186D01*
X72939745Y-57481186D02*
X73004793Y-57463757D01*
X73004793Y-57463757D02*
X73111082Y-57470136D01*
X73111082Y-57470136D02*
X73193560Y-57517755D01*
X73193560Y-57517755D02*
X73252229Y-57606614D01*
X73252229Y-57606614D02*
X73269659Y-57671663D01*
X73269659Y-57671663D02*
X73263279Y-57777951D01*
X73263279Y-57777951D02*
X73096613Y-58066626D01*
X73720331Y-57272029D02*
X74101283Y-56612200D01*
X74907388Y-55977890D02*
X74669292Y-56390283D01*
X74669292Y-56390283D02*
X73803267Y-55890283D01*
X74620422Y-55427310D02*
X74787089Y-55138635D01*
X75312150Y-55276822D02*
X75074054Y-55689215D01*
X75074054Y-55689215D02*
X74208029Y-55189215D01*
X74208029Y-55189215D02*
X74446124Y-54776822D01*
X75526435Y-54905668D02*
X74660410Y-54405668D01*
X74660410Y-54405668D02*
X74779458Y-54199472D01*
X74779458Y-54199472D02*
X74892126Y-54099563D01*
X74892126Y-54099563D02*
X75022223Y-54064704D01*
X75022223Y-54064704D02*
X75128511Y-54071083D01*
X75128511Y-54071083D02*
X75317278Y-54125082D01*
X75317278Y-54125082D02*
X75440996Y-54196511D01*
X75440996Y-54196511D02*
X75582144Y-54332988D01*
X75582144Y-54332988D02*
X75640813Y-54421847D01*
X75640813Y-54421847D02*
X75675672Y-54551944D01*
X75675672Y-54551944D02*
X75645483Y-54699472D01*
X75645483Y-54699472D02*
X75526435Y-54905668D01*
D11*
X71965796Y-56410259D02*
X71532783Y-56160259D01*
X71532783Y-56160259D02*
X71592307Y-56057160D01*
X71592307Y-56057160D02*
X71648641Y-56007206D01*
X71648641Y-56007206D02*
X71713690Y-55989776D01*
X71713690Y-55989776D02*
X71766834Y-55992966D01*
X71766834Y-55992966D02*
X71861217Y-56019966D01*
X71861217Y-56019966D02*
X71923076Y-56055680D01*
X71923076Y-56055680D02*
X71993650Y-56123919D01*
X71993650Y-56123919D02*
X72022984Y-56168348D01*
X72022984Y-56168348D02*
X72040414Y-56233397D01*
X72040414Y-56233397D02*
X72025320Y-56307160D01*
X72025320Y-56307160D02*
X71965796Y-56410259D01*
X72034263Y-55625002D02*
X72322939Y-55791669D01*
X71809782Y-55632863D02*
X72059553Y-55914532D01*
X72059553Y-55914532D02*
X72214315Y-55646477D01*
D10*
%TO.C,D1*%
X85298653Y-65515710D02*
X84719594Y-65566290D01*
X85012939Y-66010581D02*
X84146914Y-65510581D01*
X84146914Y-65510581D02*
X84337390Y-65180667D01*
X84337390Y-65180667D02*
X84426248Y-65121998D01*
X84426248Y-65121998D02*
X84491297Y-65104568D01*
X84491297Y-65104568D02*
X84597585Y-65110948D01*
X84597585Y-65110948D02*
X84721303Y-65182376D01*
X84721303Y-65182376D02*
X84779972Y-65271235D01*
X84779972Y-65271235D02*
X84797402Y-65336284D01*
X84797402Y-65336284D02*
X84791022Y-65442572D01*
X84791022Y-65442572D02*
X84600546Y-65772486D01*
X84950058Y-64214733D02*
X84861199Y-64273402D01*
X84861199Y-64273402D02*
X84789771Y-64397120D01*
X84789771Y-64397120D02*
X84759581Y-64544648D01*
X84759581Y-64544648D02*
X84794441Y-64674745D01*
X84794441Y-64674745D02*
X84853110Y-64763604D01*
X84853110Y-64763604D02*
X84994258Y-64900081D01*
X84994258Y-64900081D02*
X85117976Y-64971510D01*
X85117976Y-64971510D02*
X85306742Y-65025508D01*
X85306742Y-65025508D02*
X85413031Y-65031888D01*
X85413031Y-65031888D02*
X85543128Y-64997029D01*
X85543128Y-64997029D02*
X85655796Y-64897120D01*
X85655796Y-64897120D02*
X85703415Y-64814642D01*
X85703415Y-64814642D02*
X85733604Y-64667114D01*
X85733604Y-64667114D02*
X85716175Y-64602065D01*
X85716175Y-64602065D02*
X85427500Y-64435399D01*
X85427500Y-64435399D02*
X85332261Y-64600356D01*
X85725973Y-63727951D02*
X85838641Y-63628042D01*
X85838641Y-63628042D02*
X85903690Y-63610612D01*
X85903690Y-63610612D02*
X86009978Y-63616992D01*
X86009978Y-63616992D02*
X86133696Y-63688421D01*
X86133696Y-63688421D02*
X86192365Y-63777279D01*
X86192365Y-63777279D02*
X86209795Y-63842328D01*
X86209795Y-63842328D02*
X86203415Y-63948616D01*
X86203415Y-63948616D02*
X86012939Y-64278531D01*
X86012939Y-64278531D02*
X85146914Y-63778531D01*
X85146914Y-63778531D02*
X85313580Y-63489855D01*
X85313580Y-63489855D02*
X85402439Y-63431186D01*
X85402439Y-63431186D02*
X85467487Y-63413757D01*
X85467487Y-63413757D02*
X85573776Y-63420136D01*
X85573776Y-63420136D02*
X85656254Y-63467755D01*
X85656254Y-63467755D02*
X85714923Y-63556614D01*
X85714923Y-63556614D02*
X85732353Y-63621663D01*
X85732353Y-63621663D02*
X85725973Y-63727951D01*
X85725973Y-63727951D02*
X85559307Y-64016626D01*
X86183025Y-63222029D02*
X86563977Y-62562200D01*
X87370082Y-61927890D02*
X87131986Y-62340283D01*
X87131986Y-62340283D02*
X86265961Y-61840283D01*
X87083116Y-61377310D02*
X87249783Y-61088635D01*
X87774844Y-61226822D02*
X87536748Y-61639215D01*
X87536748Y-61639215D02*
X86670723Y-61139215D01*
X86670723Y-61139215D02*
X86908818Y-60726822D01*
X87989129Y-60855668D02*
X87123104Y-60355668D01*
X87123104Y-60355668D02*
X87242152Y-60149472D01*
X87242152Y-60149472D02*
X87354820Y-60049563D01*
X87354820Y-60049563D02*
X87484917Y-60014704D01*
X87484917Y-60014704D02*
X87591205Y-60021083D01*
X87591205Y-60021083D02*
X87779972Y-60075082D01*
X87779972Y-60075082D02*
X87903690Y-60146511D01*
X87903690Y-60146511D02*
X88044838Y-60282988D01*
X88044838Y-60282988D02*
X88103507Y-60371847D01*
X88103507Y-60371847D02*
X88138366Y-60501944D01*
X88138366Y-60501944D02*
X88108177Y-60649472D01*
X88108177Y-60649472D02*
X87989129Y-60855668D01*
D11*
X88065796Y-64460259D02*
X87632783Y-64210259D01*
X87632783Y-64210259D02*
X87692307Y-64107160D01*
X87692307Y-64107160D02*
X87748641Y-64057206D01*
X87748641Y-64057206D02*
X87813690Y-64039776D01*
X87813690Y-64039776D02*
X87866834Y-64042966D01*
X87866834Y-64042966D02*
X87961217Y-64069966D01*
X87961217Y-64069966D02*
X88023076Y-64105680D01*
X88023076Y-64105680D02*
X88093650Y-64173919D01*
X88093650Y-64173919D02*
X88122984Y-64218348D01*
X88122984Y-64218348D02*
X88140414Y-64283397D01*
X88140414Y-64283397D02*
X88125320Y-64357160D01*
X88125320Y-64357160D02*
X88065796Y-64460259D01*
X88446748Y-63800430D02*
X88303891Y-64047866D01*
X88375320Y-63924148D02*
X87942307Y-63674148D01*
X87942307Y-63674148D02*
X87980356Y-63751101D01*
X87980356Y-63751101D02*
X87997786Y-63816150D01*
X87997786Y-63816150D02*
X87994596Y-63869294D01*
D12*
%TO.C,D6*%
X88342820Y-54882180D02*
X86957180Y-55682180D01*
X88342820Y-54882180D02*
X89142820Y-56267820D01*
X86957180Y-55682180D02*
X87757180Y-57067820D01*
X87914808Y-55140840D02*
X88597820Y-55323853D01*
X89142820Y-56267820D02*
X87757180Y-57067820D01*
%TO.C,D2*%
X80800000Y-69800000D02*
X80800000Y-68200000D01*
X80800000Y-69800000D02*
X79200000Y-69800000D01*
X80800000Y-68200000D02*
X79200000Y-68200000D01*
X80790000Y-69300000D02*
X80290000Y-69800000D01*
X79200000Y-69800000D02*
X79200000Y-68200000D01*
%TO.C,D5*%
X79200000Y-50200000D02*
X79200000Y-51800000D01*
X79200000Y-50200000D02*
X80800000Y-50200000D01*
X79200000Y-51800000D02*
X80800000Y-51800000D01*
X79210000Y-50700000D02*
X79710000Y-50200000D01*
X80800000Y-50200000D02*
X80800000Y-51800000D01*
%TO.C,D3*%
X71657180Y-65117820D02*
X73042820Y-64317820D01*
X71657180Y-65117820D02*
X70857180Y-63732180D01*
X73042820Y-64317820D02*
X72242820Y-62932180D01*
X72085192Y-64859160D02*
X71402180Y-64676147D01*
X70857180Y-63732180D02*
X72242820Y-62932180D01*
%TO.C,D4*%
X70857180Y-56267820D02*
X72242820Y-57067820D01*
X70857180Y-56267820D02*
X71657180Y-54882180D01*
X72242820Y-57067820D02*
X73042820Y-55682180D01*
X71295192Y-56509160D02*
X71112180Y-55826147D01*
X71657180Y-54882180D02*
X73042820Y-55682180D01*
%TO.C,D1*%
X89142820Y-63732180D02*
X87757180Y-62932180D01*
X89142820Y-63732180D02*
X88342820Y-65117820D01*
X87757180Y-62932180D02*
X86957180Y-64317820D01*
X88704808Y-63490840D02*
X88887820Y-64173853D01*
X88342820Y-65117820D02*
X86957180Y-64317820D01*
%TD*%
M02*
