%TF.GenerationSoftware,KiCad,Pcbnew,7.0.2.1-36-g582732918d-dirty-deb11*%
%TF.CreationDate,2023-05-26T13:45:49+00:00*%
%TF.ProjectId,pedalboard-led-ring,70656461-6c62-46f6-9172-642d6c65642d,rev?*%
%TF.SameCoordinates,Original*%
%TF.FileFunction,Copper,L1,Top*%
%TF.FilePolarity,Positive*%
%FSLAX46Y46*%
G04 Gerber Fmt 4.6, Leading zero omitted, Abs format (unit mm)*
G04 Created by KiCad (PCBNEW 7.0.2.1-36-g582732918d-dirty-deb11) date 2023-05-26 13:45:49*
%MOMM*%
%LPD*%
G01*
G04 APERTURE LIST*
G04 Aperture macros list*
%AMRotRect*
0 Rectangle, with rotation*
0 The origin of the aperture is its center*
0 $1 length*
0 $2 width*
0 $3 Rotation angle, in degrees counterclockwise*
0 Add horizontal line*
21,1,$1,$2,0,0,$3*%
G04 Aperture macros list end*
%TA.AperFunction,SMDPad,CuDef*%
%ADD10RotRect,0.830000X0.750000X300.000000*%
%TD*%
%TA.AperFunction,SMDPad,CuDef*%
%ADD11RotRect,0.830000X0.500000X300.000000*%
%TD*%
%TA.AperFunction,SMDPad,CuDef*%
%ADD12R,0.830000X0.750000*%
%TD*%
%TA.AperFunction,SMDPad,CuDef*%
%ADD13R,0.830000X0.500000*%
%TD*%
%TA.AperFunction,SMDPad,CuDef*%
%ADD14RotRect,0.830000X0.750000X120.000000*%
%TD*%
%TA.AperFunction,SMDPad,CuDef*%
%ADD15RotRect,0.830000X0.500000X120.000000*%
%TD*%
%TA.AperFunction,SMDPad,CuDef*%
%ADD16RotRect,0.830000X0.750000X60.000000*%
%TD*%
%TA.AperFunction,SMDPad,CuDef*%
%ADD17RotRect,0.830000X0.500000X60.000000*%
%TD*%
%TA.AperFunction,SMDPad,CuDef*%
%ADD18RotRect,0.830000X0.750000X240.000000*%
%TD*%
%TA.AperFunction,SMDPad,CuDef*%
%ADD19RotRect,0.830000X0.500000X240.000000*%
%TD*%
%TA.AperFunction,ViaPad*%
%ADD20C,0.800000*%
%TD*%
%TA.AperFunction,Conductor*%
%ADD21C,0.250000*%
%TD*%
G04 APERTURE END LIST*
D10*
%TO.P,D6,1,AG*%
%TO.N,Net-(D5-KG)*%
X88352150Y-54888340D03*
D11*
%TO.P,D6,2,AR*%
%TO.N,Net-(D5-KR)*%
X87655000Y-55290840D03*
D10*
%TO.P,D6,3,AB*%
%TO.N,Net-(D5-KB)*%
X86957850Y-55693340D03*
%TO.P,D6,4,KB*%
%TO.N,Net-(D6-KB)*%
X87747850Y-57061660D03*
D11*
%TO.P,D6,5,KR*%
%TO.N,Net-(D6-KR)*%
X88445000Y-56659160D03*
D10*
%TO.P,D6,6,KG*%
%TO.N,Net-(D6-KG)*%
X89142150Y-56256660D03*
%TD*%
D12*
%TO.P,D2,1,AG*%
%TO.N,Net-(D1-KG)*%
X80790000Y-69805000D03*
D13*
%TO.P,D2,2,AR*%
%TO.N,Net-(D1-KR)*%
X80790000Y-69000000D03*
D12*
%TO.P,D2,3,AB*%
%TO.N,Net-(D1-KB)*%
X80790000Y-68195000D03*
%TO.P,D2,4,KB*%
%TO.N,Net-(D2-KB)*%
X79210000Y-68195000D03*
D13*
%TO.P,D2,5,KR*%
%TO.N,Net-(D2-KR)*%
X79210000Y-69000000D03*
D12*
%TO.P,D2,6,KG*%
%TO.N,Net-(D2-KG)*%
X79210000Y-69805000D03*
%TD*%
%TO.P,D5,1,AG*%
%TO.N,Net-(D4-KG)*%
X79210000Y-50195000D03*
D13*
%TO.P,D5,2,AR*%
%TO.N,Net-(D4-KR)*%
X79210000Y-51000000D03*
D12*
%TO.P,D5,3,AB*%
%TO.N,Net-(D4-KB)*%
X79210000Y-51805000D03*
%TO.P,D5,4,KB*%
%TO.N,Net-(D5-KB)*%
X80790000Y-51805000D03*
D13*
%TO.P,D5,5,KR*%
%TO.N,Net-(D5-KR)*%
X80790000Y-51000000D03*
D12*
%TO.P,D5,6,KG*%
%TO.N,Net-(D5-KG)*%
X80790000Y-50195000D03*
%TD*%
D14*
%TO.P,D3,1,AG*%
%TO.N,Net-(D2-KG)*%
X71647850Y-65111660D03*
D15*
%TO.P,D3,2,AR*%
%TO.N,Net-(D2-KR)*%
X72345000Y-64709160D03*
D14*
%TO.P,D3,3,AB*%
%TO.N,Net-(D2-KB)*%
X73042150Y-64306660D03*
%TO.P,D3,4,KB*%
%TO.N,Net-(D3-KB)*%
X72252150Y-62938340D03*
D15*
%TO.P,D3,5,KR*%
%TO.N,Net-(D3-KR)*%
X71555000Y-63340840D03*
D14*
%TO.P,D3,6,KG*%
%TO.N,Net-(D3-KG)*%
X70857850Y-63743340D03*
%TD*%
D16*
%TO.P,D4,1,AG*%
%TO.N,Net-(D3-KG)*%
X70857850Y-56256660D03*
D17*
%TO.P,D4,2,AR*%
%TO.N,Net-(D3-KR)*%
X71555000Y-56659160D03*
D16*
%TO.P,D4,3,AB*%
%TO.N,Net-(D3-KB)*%
X72252150Y-57061660D03*
%TO.P,D4,4,KB*%
%TO.N,Net-(D4-KB)*%
X73042150Y-55693340D03*
D17*
%TO.P,D4,5,KR*%
%TO.N,Net-(D4-KR)*%
X72345000Y-55290840D03*
D16*
%TO.P,D4,6,KG*%
%TO.N,Net-(D4-KG)*%
X71647850Y-54888340D03*
%TD*%
D18*
%TO.P,D1,1,AG*%
%TO.N,VDC*%
X89142150Y-63743340D03*
D19*
%TO.P,D1,2,AR*%
X88445000Y-63340840D03*
D18*
%TO.P,D1,3,AB*%
X87747850Y-62938340D03*
%TO.P,D1,4,KB*%
%TO.N,Net-(D1-KB)*%
X86957850Y-64306660D03*
D19*
%TO.P,D1,5,KR*%
%TO.N,Net-(D1-KR)*%
X87655000Y-64709160D03*
D18*
%TO.P,D1,6,KG*%
%TO.N,Net-(D1-KG)*%
X88352150Y-65111660D03*
%TD*%
D20*
%TO.N,VDC*%
X89500000Y-61400000D03*
X90500000Y-61400000D03*
X82700000Y-71100000D03*
%TO.N,VCC*%
X98140000Y-72540000D03*
X99200000Y-55200000D03*
%TO.N,Net-(D6-KB)*%
X92400000Y-55500000D03*
%TO.N,Net-(D6-KR)*%
X90800000Y-53400000D03*
%TO.N,Net-(D6-KG)*%
X90800000Y-52200000D03*
%TD*%
D21*
%TO.N,Net-(D1-KB)*%
X83105000Y-68195000D02*
X80790000Y-68195000D01*
X86957850Y-64306660D02*
X86957850Y-64342150D01*
X86957850Y-64342150D02*
X83105000Y-68195000D01*
%TO.N,Net-(D1-KR)*%
X87655000Y-64745000D02*
X83400000Y-69000000D01*
X87655000Y-64709160D02*
X87655000Y-64745000D01*
X83400000Y-69000000D02*
X80790000Y-69000000D01*
%TO.N,Net-(D1-KG)*%
X88352150Y-65111660D02*
X83658810Y-69805000D01*
X83658810Y-69805000D02*
X80790000Y-69805000D01*
%TO.N,Net-(D2-KB)*%
X76795000Y-68195000D02*
X73042150Y-64442150D01*
X79210000Y-68195000D02*
X76795000Y-68195000D01*
X73042150Y-64442150D02*
X73042150Y-64306660D01*
%TO.N,Net-(D2-KR)*%
X76500000Y-69000000D02*
X72345000Y-64845000D01*
X72345000Y-64845000D02*
X72345000Y-64709160D01*
X79210000Y-69000000D02*
X76500000Y-69000000D01*
%TO.N,Net-(D2-KG)*%
X79210000Y-69805000D02*
X76341190Y-69805000D01*
X76341190Y-69805000D02*
X71647850Y-65111660D01*
%TO.N,Net-(D3-KB)*%
X72252150Y-62938340D02*
X72100000Y-62786190D01*
X72100000Y-57213810D02*
X72252150Y-57061660D01*
X72100000Y-62786190D02*
X72100000Y-57213810D01*
%TO.N,Net-(D3-KR)*%
X71300000Y-63085840D02*
X71300000Y-56914160D01*
X71555000Y-63340840D02*
X71300000Y-63085840D01*
X71300000Y-56914160D02*
X71555000Y-56659160D01*
%TO.N,Net-(D3-KG)*%
X70857850Y-63743340D02*
X70600000Y-63485490D01*
X70600000Y-63485490D02*
X70600000Y-56514510D01*
X70600000Y-56514510D02*
X70857850Y-56256660D01*
%TO.N,Net-(D4-KB)*%
X76930490Y-51805000D02*
X79210000Y-51805000D01*
X73042150Y-55693340D02*
X76930490Y-51805000D01*
%TO.N,Net-(D4-KR)*%
X76611709Y-51000000D02*
X72332934Y-55278775D01*
X79210000Y-51000000D02*
X76611709Y-51000000D01*
%TO.N,Net-(D4-KG)*%
X79210000Y-50195000D02*
X76341190Y-50195000D01*
X76341190Y-50195000D02*
X71647850Y-54888340D01*
%TO.N,Net-(D5-KB)*%
X80790000Y-51805000D02*
X83069510Y-51805000D01*
X83069510Y-51805000D02*
X86957850Y-55693340D01*
%TO.N,Net-(D5-KR)*%
X85600000Y-53200000D02*
X85600000Y-53211709D01*
X83400000Y-51000000D02*
X85600000Y-53200000D01*
X80790000Y-51000000D02*
X83400000Y-51000000D01*
X85600000Y-53211709D02*
X87667066Y-55278775D01*
%TO.N,Net-(D5-KG)*%
X83658810Y-50195000D02*
X88352150Y-54888340D01*
X80790000Y-50195000D02*
X83658810Y-50195000D01*
%TO.N,Net-(D6-KB)*%
X87747850Y-57061660D02*
X88250000Y-57563810D01*
X88300000Y-57800000D02*
X88250000Y-57750000D01*
X88250000Y-57563810D02*
X88250000Y-57750000D01*
X92400000Y-55500000D02*
X90100000Y-57800000D01*
X90100000Y-57800000D02*
X88300000Y-57800000D01*
%TO.N,Net-(D6-KR)*%
X90800000Y-53400000D02*
X90800000Y-56100000D01*
X90800000Y-56100000D02*
X89600000Y-57300000D01*
X89061709Y-57300000D02*
X88432934Y-56671225D01*
X89600000Y-57300000D02*
X89061709Y-57300000D01*
%TO.N,Net-(D6-KG)*%
X90100000Y-55500000D02*
X90075000Y-55475000D01*
X89600000Y-56000000D02*
X90100000Y-55500000D01*
X89398810Y-56000000D02*
X89600000Y-56000000D01*
X90075000Y-55475000D02*
X90075000Y-52925000D01*
X90075000Y-52925000D02*
X90800000Y-52200000D01*
X89142150Y-56256660D02*
X89398810Y-56000000D01*
%TD*%
%TA.AperFunction,Conductor*%
%TO.N,VDC*%
G36*
X91143039Y-60619685D02*
G01*
X91188794Y-60672489D01*
X91200000Y-60724000D01*
X91200000Y-65500000D01*
X89200000Y-65400000D01*
X89300000Y-64900000D01*
X89299999Y-64899999D01*
X89078348Y-64773341D01*
X89058110Y-64758907D01*
X89031027Y-64735156D01*
X88338771Y-64335482D01*
X88299057Y-64322001D01*
X88257157Y-64297810D01*
X88225625Y-64270157D01*
X87749874Y-63995482D01*
X87710160Y-63982001D01*
X87705390Y-63979247D01*
X88220753Y-63979247D01*
X88350329Y-64054058D01*
X88390091Y-64067555D01*
X88431994Y-64091748D01*
X88463565Y-64119435D01*
X89155733Y-64519058D01*
X89226139Y-64542958D01*
X89325381Y-64536453D01*
X89414582Y-64492463D01*
X89463606Y-64436563D01*
X89620915Y-64164092D01*
X89620915Y-64164091D01*
X89187903Y-63914093D01*
X88812902Y-63697586D01*
X89312902Y-63697586D01*
X89745915Y-63947585D01*
X89745916Y-63947585D01*
X89903227Y-63675115D01*
X89927127Y-63604709D01*
X89920622Y-63505467D01*
X89876633Y-63416267D01*
X89820734Y-63367245D01*
X89582902Y-63229932D01*
X89582901Y-63229932D01*
X89312902Y-63697585D01*
X89312902Y-63697586D01*
X88812902Y-63697586D01*
X88490752Y-63511593D01*
X88490751Y-63511593D01*
X88220753Y-63979246D01*
X88220753Y-63979247D01*
X87705390Y-63979247D01*
X87668260Y-63957810D01*
X87636728Y-63930157D01*
X86944470Y-63530481D01*
X86854465Y-63499929D01*
X86832802Y-63490172D01*
X86600335Y-63357334D01*
X86551895Y-63306982D01*
X86538366Y-63238435D01*
X86550132Y-63195879D01*
X86559602Y-63176212D01*
X86607386Y-63076969D01*
X86962872Y-63076969D01*
X86969377Y-63176212D01*
X87013366Y-63265412D01*
X87069265Y-63314434D01*
X87761435Y-63714059D01*
X87801196Y-63727556D01*
X87843097Y-63751747D01*
X87874669Y-63779435D01*
X88004246Y-63854246D01*
X88004247Y-63854246D01*
X88274246Y-63386592D01*
X88274246Y-63386591D01*
X88113894Y-63294012D01*
X88613889Y-63294012D01*
X89096395Y-63572586D01*
X89096396Y-63572586D01*
X89366395Y-63104932D01*
X89366395Y-63104931D01*
X89128567Y-62967622D01*
X89088799Y-62954122D01*
X89046902Y-62929932D01*
X89015329Y-62902244D01*
X88885752Y-62827432D01*
X88885751Y-62827432D01*
X88651547Y-63233087D01*
X88622322Y-63260952D01*
X88622706Y-63268995D01*
X88621976Y-63271854D01*
X88619977Y-63279315D01*
X88613889Y-63294012D01*
X88113894Y-63294012D01*
X87793603Y-63109093D01*
X87418601Y-62892586D01*
X87918602Y-62892586D01*
X88399246Y-63170085D01*
X88404281Y-63168736D01*
X88419259Y-63154453D01*
X88419114Y-63153440D01*
X88434465Y-63109087D01*
X88669245Y-62702432D01*
X88669245Y-62702431D01*
X88539671Y-62627622D01*
X88499903Y-62614122D01*
X88458005Y-62589931D01*
X88426434Y-62562244D01*
X88188602Y-62424932D01*
X88188601Y-62424932D01*
X87918602Y-62892585D01*
X87918602Y-62892586D01*
X87418601Y-62892586D01*
X87144083Y-62734093D01*
X87144082Y-62734093D01*
X86986771Y-63006566D01*
X86962872Y-63076969D01*
X86607386Y-63076969D01*
X86876718Y-62517587D01*
X87269083Y-62517587D01*
X87702095Y-62767586D01*
X87702096Y-62767586D01*
X87972095Y-62299932D01*
X87972095Y-62299931D01*
X87734264Y-62162620D01*
X87663861Y-62138721D01*
X87564618Y-62145226D01*
X87475418Y-62189215D01*
X87426396Y-62245114D01*
X87269083Y-62517586D01*
X87269083Y-62517587D01*
X86876718Y-62517587D01*
X86937866Y-62390586D01*
X86940618Y-62391911D01*
X86941096Y-62390283D01*
X86938592Y-62389077D01*
X87435155Y-61357754D01*
X87766197Y-60670207D01*
X87813015Y-60618344D01*
X87877921Y-60600000D01*
X91076000Y-60600000D01*
X91143039Y-60619685D01*
G37*
%TD.AperFunction*%
%TD*%
%TA.AperFunction,Conductor*%
%TO.N,VCC*%
G36*
X101942539Y-54719685D02*
G01*
X101988294Y-54772489D01*
X101999500Y-54824000D01*
X101999500Y-72994583D01*
X101999028Y-73005393D01*
X101995523Y-73045445D01*
X101983082Y-73171764D01*
X101979455Y-73191696D01*
X101962123Y-73256382D01*
X101961008Y-73260285D01*
X101933319Y-73351562D01*
X101927041Y-73367971D01*
X101896328Y-73433835D01*
X101893304Y-73439884D01*
X101850990Y-73519046D01*
X101843207Y-73531715D01*
X101800373Y-73592889D01*
X101794652Y-73600430D01*
X101738826Y-73668455D01*
X101730653Y-73677472D01*
X101677472Y-73730653D01*
X101668455Y-73738826D01*
X101600430Y-73794652D01*
X101592889Y-73800373D01*
X101531715Y-73843207D01*
X101519046Y-73850990D01*
X101439884Y-73893304D01*
X101433835Y-73896328D01*
X101367971Y-73927041D01*
X101351561Y-73933320D01*
X101260285Y-73961008D01*
X101256383Y-73962122D01*
X101193479Y-73978977D01*
X101158907Y-73983177D01*
X97122155Y-73902443D01*
X97055522Y-73881422D01*
X97010832Y-73827714D01*
X97000636Y-73777822D01*
X97001005Y-73707107D01*
X97042403Y-65758623D01*
X97099358Y-54823354D01*
X97119391Y-54756418D01*
X97172433Y-54710939D01*
X97223356Y-54700000D01*
X101875500Y-54700000D01*
X101942539Y-54719685D01*
G37*
%TD.AperFunction*%
%TD*%
%TA.AperFunction,Conductor*%
%TO.N,VDC*%
G36*
X91200000Y-65500000D02*
G01*
X91200000Y-71701000D01*
X91181093Y-71759191D01*
X91131593Y-71795155D01*
X91101000Y-71800000D01*
X82099000Y-71800000D01*
X82040809Y-71781093D01*
X82004845Y-71731593D01*
X82000000Y-71701000D01*
X82000000Y-70229500D01*
X82018907Y-70171309D01*
X82068407Y-70135345D01*
X82099000Y-70130500D01*
X83640276Y-70130500D01*
X83648903Y-70130876D01*
X83662167Y-70132037D01*
X83687615Y-70134264D01*
X83687615Y-70134263D01*
X83687617Y-70134264D01*
X83725169Y-70124201D01*
X83733587Y-70122335D01*
X83771855Y-70115588D01*
X83773156Y-70114836D01*
X83797042Y-70104942D01*
X83798494Y-70104554D01*
X83830339Y-70082254D01*
X83837595Y-70077632D01*
X83871265Y-70058194D01*
X83896252Y-70028414D01*
X83902064Y-70022070D01*
X87453741Y-66470393D01*
X87472103Y-66455936D01*
X88424738Y-65873770D01*
X88469881Y-65859459D01*
X88522319Y-65856022D01*
X88593858Y-65820744D01*
X88633174Y-65775913D01*
X88646905Y-65752129D01*
X88681016Y-65717156D01*
X89008795Y-65516847D01*
X89199999Y-65400001D01*
X89199999Y-65400000D01*
X89200000Y-65400000D01*
X91200000Y-65500000D01*
G37*
%TD.AperFunction*%
%TD*%
M02*
