<?xml version='1.0' encoding='ASCII' standalone='yes'?>
<svg xmlns="http://www.w3.org/2000/svg" version="1.1" width="297.0022mm" height="210.0072mm" viewBox="0.0000 0.0000 297.0022 210.0072">
            <title>Picture generated by PcbDraw </title>
            <desc>Picture generated by PcbDraw</desc>
        <defs><clipPath id="cut-off"><path d=" M 80.0000 60.0000 m-6.1000 0 a 6.1000 6.1000 0 1 0 12.2 0 a 6.1000 6.1000 0 1 0 -12.2 0  M 90.0627 66.5378 L 92.0 65.0 L 92.0 55.0 L 90.3275 53.8891 A 12 12 0 0 0 80.0 48.0 A 12 12 0 0 0 80.0 72.0 A 12 12 0 0 0 90.0627 66.5378 " style="fill-rule: evenodd;"/></clipPath><mask id="pads-mask-silkscreen"><rect x="56.058334" y="43.76175" width="36.466666" height="28.313251" fill="white"/><g style="fill:#000000; fill-opacity:0.0;  stroke:#000000; stroke-width:0.0000; stroke-opacity:1;  stroke-linecap:round; stroke-linejoin:round;">
<g style="fill:#000000; fill-opacity:1.0000;  stroke:#000000; stroke-width:0.0000; stroke-opacity:1;  stroke-linecap:round; stroke-linejoin:round;">
<path style="fill:#000000; fill-opacity:1.0000;  stroke:#000000; stroke-width:0.0000; stroke-opacity:1;  stroke-linecap:round; stroke-linejoin:round;fill-rule:evenodd;" d="M 91.5000,58.2500 90.5000,58.2500 90.5000,55.5000 91.5000,55.5000 Z"/> 
<path style="fill:#000000; fill-opacity:1.0000;  stroke:#000000; stroke-width:0.0000; stroke-opacity:1;  stroke-linecap:round; stroke-linejoin:round;fill-rule:evenodd;" d="M 91.5000,64.5000 90.5000,64.5000 90.5000,61.7500 91.5000,61.7500 Z"/> 
<path style="fill:#000000; fill-opacity:1.0000;  stroke:#000000; stroke-width:0.0000; stroke-opacity:1;  stroke-linecap:round; stroke-linejoin:round;fill-rule:evenodd;" d="M 89.5000,58.2500 88.5000,58.2500 88.5000,55.5000 89.5000,55.5000 Z"/> 
<path style="fill:#000000; fill-opacity:1.0000;  stroke:#000000; stroke-width:0.0000; stroke-opacity:1;  stroke-linecap:round; stroke-linejoin:round;fill-rule:evenodd;" d="M 89.5000,64.5000 88.5000,64.5000 88.5000,61.7500 89.5000,61.7500 Z"/> 
</g>
<g style="fill:#000000; fill-opacity:1.0000;  stroke:#000000; stroke-width:0.0000; stroke-opacity:1;  stroke-linecap:round; stroke-linejoin:round;">
<path style="fill:#000000; fill-opacity:1.0000;  stroke:#000000; stroke-width:0.0000; stroke-opacity:1;  stroke-linecap:round; stroke-linejoin:round;fill-rule:evenodd;" d="M 86.4710,53.8328 86.7923,54.2158 86.7884,54.2191 86.8342,54.2736 86.8912,54.4040 86.9093,54.5452 86.8868,54.6857 86.8256,54.8142 86.7307,54.9203 86.3477,55.2416 86.2268,55.3167 86.0896,55.3546 85.9473,55.3523 85.8114,55.3101 85.6929,55.2313 85.6472,55.1767 85.6433,55.1800 85.3219,54.7970 Z"/> 
<path style="fill:#000000; fill-opacity:1.0000;  stroke:#000000; stroke-width:0.0000; stroke-opacity:1;  stroke-linecap:round; stroke-linejoin:round;fill-rule:evenodd;" d="M 84.8116,54.1809 84.7658,54.1264 84.7088,53.9960 84.6907,53.8548 84.7132,53.7143 84.7744,53.5858 84.8693,53.4797 85.2523,53.1584 85.3732,53.0833 85.5104,53.0454 85.6527,53.0477 85.7886,53.0899 85.9071,53.1687 85.9528,53.2233 85.9567,53.2200 86.2781,53.6030 85.1290,54.5672 84.8077,54.1842 Z"/> 
</g>
</g> 
</mask></defs><g transform="scale(-1,1) translate(-297,0)" id="boardContainer"><g id="substrate" clip-path="url(#cut-off)" mask="url(#pads-mask-silkscreen)"><g id="substrate-board" style="fill:#143324; fill-opacity:0.25098039215686274; stroke:#143324; stroke-width:0;"><path d=" M 80.0000 60.0000 m-6.1000 0 a 6.1000 6.1000 0 1 0 12.2 0 a 6.1000 6.1000 0 1 0 -12.2 0  M 90.0627 66.5378 L 92.0 65.0 L 92.0 55.0 L 90.3275 53.8891 A 12 12 0 0 0 80.0 48.0 A 12 12 0 0 0 80.0 72.0 A 12 12 0 0 0 90.0627 66.5378 " style="fill-rule: evenodd;"/><g style="fill-opacity: 0.0;stroke-width: 0.1000;stroke-opacity: 1;stroke-linecap: round;stroke-linejoin: round">
<path d="M80.0000 72.0000 A12.0000 12.0000 0.0 0 0 90.0627 66.5378"/>
<circle cx="80.0000" cy="60.0000" r="6.1000"/> 
<path d="M92.0000 55.0000 L92.0000 65.0000 "/>
<path d="M80.0000 48.0000 A12.0000 12.0000 0.0 0 0 80.0000 72.0000"/>
<path d="M90.0627 66.5378 L92.0000 65.0000 "/>
<path d="M90.3275 53.8891 A12.0000 12.0000 0.0 0 0 80.0000 48.0000"/>
<path d="M90.3275 53.8891 L92.0000 55.0000 "/>
</g> 
</g></g></g></svg>
