<?xml version="1.0" standalone="no"?>
 <!DOCTYPE svg PUBLIC "-//W3C//DTD SVG 1.1//EN" 
 "http://www.w3.org/Graphics/SVG/1.1/DTD/svg11.dtd"> 
<svg
  xmlns:svg="http://www.w3.org/2000/svg"
  xmlns="http://www.w3.org/2000/svg"
  xmlns:xlink="http://www.w3.org/1999/xlink"
  version="1.1"
  width="297.0022mm" height="210.0072mm" viewBox="0.0000 0.0000 297.0022 210.0072">
<title>SVG Image created as pedalboard-led-ring-B_Cu.svg date 2023/10/21 16:31:02 </title>
  <desc>Image generated by PCBNEW </desc>
<g style="fill:#000000; fill-opacity:1.0000;stroke:#000000; stroke-opacity:1.0000;
stroke-linecap:round; stroke-linejoin:round;"
 transform="translate(0 0) scale(1 1)">
</g>
<g style="fill:#000000; fill-opacity:0.0; 
stroke:#000000; stroke-width:0.0000; stroke-opacity:1; 
stroke-linecap:round; stroke-linejoin:round;">
</g>
<g style="fill:#000000; fill-opacity:1.0000; 
stroke:#000000; stroke-width:0.0000; stroke-opacity:1; 
stroke-linecap:round; stroke-linejoin:round;">
<path style="fill:#000000; fill-opacity:1.0000; 
stroke:#000000; stroke-width:0.0000; stroke-opacity:1; 
stroke-linecap:round; stroke-linejoin:round;fill-rule:evenodd;"
d="M 210.8117,54.1987
211.2713,54.5843
211.5927,54.2013
211.1331,53.8157
Z" /> 
<g >
</g>
<g >
</g>
<g >
</g>
<g >
</g>
<g >
</g>
<g >
</g>
<g >
</g>
<g >
</g>
<g >
</g>
<g >
</g>
<g >
</g>
<g >
</g>
<g >
</g>
<g >
</g>
<g >
</g>
<g >
</g>
<g >
</g>
<g >
</g>
<g >
</g>
<g >
</g>
<g >
</g>
<g >
</g>
<g >
</g>
<g >
</g>
<g >
</g>
<g >
</g>
<g >
</g>
<g >
</g>
<g >
</g>
<g >
</g>
<g >
</g>
<g style="fill:#000000; fill-opacity:1.0000; 
stroke:#000000; stroke-width:0.0000; stroke-opacity:1; 
stroke-linecap:round; stroke-linejoin:round;">
<path style="fill:#000000; fill-opacity:1.0000; 
stroke:#000000; stroke-width:0.0000; stroke-opacity:1; 
stroke-linecap:round; stroke-linejoin:round;fill-rule:evenodd;"
d="M 205.5022,58.2500
206.5022,58.2500
206.5022,55.5000
205.5022,55.5000
Z" /> 
<path style="fill:#000000; fill-opacity:1.0000; 
stroke:#000000; stroke-width:0.0000; stroke-opacity:1; 
stroke-linecap:round; stroke-linejoin:round;fill-rule:evenodd;"
d="M 205.5022,64.5000
206.5022,64.5000
206.5022,61.7500
205.5022,61.7500
Z" /> 
<path style="fill:#000000; fill-opacity:1.0000; 
stroke:#000000; stroke-width:0.0000; stroke-opacity:1; 
stroke-linecap:round; stroke-linejoin:round;fill-rule:evenodd;"
d="M 207.5022,58.2500
208.5022,58.2500
208.5022,55.5000
207.5022,55.5000
Z" /> 
<path style="fill:#000000; fill-opacity:1.0000; 
stroke:#000000; stroke-width:0.0000; stroke-opacity:1; 
stroke-linecap:round; stroke-linejoin:round;fill-rule:evenodd;"
d="M 207.5022,64.5000
208.5022,64.5000
208.5022,61.7500
207.5022,61.7500
Z" /> 
</g>
<g >
</g>
<g style="fill:#000000; fill-opacity:1.0000; 
stroke:#000000; stroke-width:0.0000; stroke-opacity:1; 
stroke-linecap:round; stroke-linejoin:round;">
<path style="fill:#000000; fill-opacity:1.0000; 
stroke:#000000; stroke-width:0.0000; stroke-opacity:1; 
stroke-linecap:round; stroke-linejoin:round;fill-rule:evenodd;"
d="M 210.5312,53.8328
210.2099,54.2158
210.2138,54.2191
210.1680,54.2736
210.1110,54.4040
210.0929,54.5452
210.1154,54.6857
210.1766,54.8142
210.2715,54.9203
210.6545,55.2416
210.7754,55.3167
210.9126,55.3546
211.0549,55.3523
211.1908,55.3101
211.3093,55.2313
211.3550,55.1767
211.3589,55.1800
211.6803,54.7970
Z" /> 
<path style="fill:#000000; fill-opacity:1.0000; 
stroke:#000000; stroke-width:0.0000; stroke-opacity:1; 
stroke-linecap:round; stroke-linejoin:round;fill-rule:evenodd;"
d="M 212.1906,54.1809
212.2364,54.1264
212.2934,53.9960
212.3115,53.8548
212.2890,53.7143
212.2278,53.5858
212.1329,53.4797
211.7499,53.1584
211.6290,53.0833
211.4918,53.0454
211.3495,53.0477
211.2136,53.0899
211.0951,53.1687
211.0494,53.2233
211.0455,53.2200
210.7241,53.6030
211.8732,54.5672
212.1945,54.1842
Z" /> 
</g>
<g >
</g>
<g style="fill:#000000; fill-opacity:1.0000; 
stroke:#000000; stroke-width:0.0000; stroke-opacity:1; 
stroke-linecap:round; stroke-linejoin:round;">
<circle cx="210.0522" cy="63.1500" r="0.4000" /> 
</g>
<g style="fill:#000000; fill-opacity:1.0000; 
stroke:#000000; stroke-width:0.0212; stroke-opacity:1; 
stroke-linecap:round; stroke-linejoin:round;">
</g>
<g style="fill:#000000; fill-opacity:1.0000; 
stroke:#000000; stroke-width:0.0000; stroke-opacity:1; 
stroke-linecap:round; stroke-linejoin:round;">
<circle cx="223.0022" cy="52.0000" r="0.4000" /> 
</g>
<g style="fill:#000000; fill-opacity:1.0000; 
stroke:#000000; stroke-width:0.0212; stroke-opacity:1; 
stroke-linecap:round; stroke-linejoin:round;">
</g>
<g style="fill:#000000; fill-opacity:1.0000; 
stroke:#000000; stroke-width:0.0000; stroke-opacity:1; 
stroke-linecap:round; stroke-linejoin:round;">
<circle cx="226.9304" cy="61.1962" r="0.4000" /> 
</g>
<g style="fill:#000000; fill-opacity:1.0000; 
stroke:#000000; stroke-width:0.0212; stroke-opacity:1; 
stroke-linecap:round; stroke-linejoin:round;">
</g>
<g style="fill:#000000; fill-opacity:1.0000; 
stroke:#000000; stroke-width:0.0000; stroke-opacity:1; 
stroke-linecap:round; stroke-linejoin:round;">
<circle cx="220.9304" cy="69.1962" r="0.4000" /> 
</g>
<g style="fill:#000000; fill-opacity:1.0000; 
stroke:#000000; stroke-width:0.0212; stroke-opacity:1; 
stroke-linecap:round; stroke-linejoin:round;">
</g>
<g style="fill:#000000; fill-opacity:1.0000; 
stroke:#000000; stroke-width:0.0000; stroke-opacity:1; 
stroke-linecap:round; stroke-linejoin:round;">
<circle cx="206.9227" cy="56.6500" r="0.4000" /> 
</g>
<g style="fill:#000000; fill-opacity:1.0000; 
stroke:#000000; stroke-width:0.0212; stroke-opacity:1; 
stroke-linecap:round; stroke-linejoin:round;">
</g>
<g style="fill:#000000; fill-opacity:1.0000; 
stroke:#000000; stroke-width:0.0000; stroke-opacity:1; 
stroke-linecap:round; stroke-linejoin:round;">
<circle cx="215.8060" cy="69.9282" r="0.4000" /> 
</g>
<g style="fill:#000000; fill-opacity:1.0000; 
stroke:#000000; stroke-width:0.0212; stroke-opacity:1; 
stroke-linecap:round; stroke-linejoin:round;">
</g>
<g style="fill:#000000; fill-opacity:1.0000; 
stroke:#000000; stroke-width:0.0000; stroke-opacity:1; 
stroke-linecap:round; stroke-linejoin:round;">
<circle cx="213.0740" cy="50.8038" r="0.4000" /> 
</g>
<g style="fill:#000000; fill-opacity:1.0000; 
stroke:#000000; stroke-width:0.0212; stroke-opacity:1; 
stroke-linecap:round; stroke-linejoin:round;">
</g>
<g style="fill:#000000; fill-opacity:1.0000; 
stroke:#000000; stroke-width:0.0000; stroke-opacity:1; 
stroke-linecap:round; stroke-linejoin:round;">
<circle cx="225.0022" cy="66.0000" r="0.4000" /> 
</g>
<g style="fill:#000000; fill-opacity:1.0000; 
stroke:#000000; stroke-width:0.0212; stroke-opacity:1; 
stroke-linecap:round; stroke-linejoin:round;">
</g>
<g style="fill:#000000; fill-opacity:1.0000; 
stroke:#000000; stroke-width:0.0000; stroke-opacity:1; 
stroke-linecap:round; stroke-linejoin:round;">
<circle cx="211.0022" cy="67.9400" r="0.4000" /> 
</g>
<g style="fill:#000000; fill-opacity:1.0000; 
stroke:#000000; stroke-width:0.0212; stroke-opacity:1; 
stroke-linecap:round; stroke-linejoin:round;">
</g>
<g style="fill:#000000; fill-opacity:1.0000; 
stroke:#000000; stroke-width:0.0000; stroke-opacity:1; 
stroke-linecap:round; stroke-linejoin:round;">
<circle cx="226.1984" cy="56.0718" r="0.4000" /> 
</g>
<g style="fill:#000000; fill-opacity:1.0000; 
stroke:#000000; stroke-width:0.0212; stroke-opacity:1; 
stroke-linecap:round; stroke-linejoin:round;">
</g>
<g style="fill:#000000; fill-opacity:1.0000; 
stroke:#000000; stroke-width:0.0000; stroke-opacity:1; 
stroke-linecap:round; stroke-linejoin:round;">
<circle cx="209.0022" cy="54.0000" r="0.4000" /> 
</g>
<g style="fill:#000000; fill-opacity:1.0000; 
stroke:#000000; stroke-width:0.0212; stroke-opacity:1; 
stroke-linecap:round; stroke-linejoin:round;">
</g>
<g style="fill:#000000; fill-opacity:1.0000; 
stroke:#000000; stroke-width:0.0000; stroke-opacity:1; 
stroke-linecap:round; stroke-linejoin:round;">
<circle cx="208.7422" cy="66.0200" r="0.4000" /> 
</g>
<g style="fill:#000000; fill-opacity:1.0000; 
stroke:#000000; stroke-width:0.0212; stroke-opacity:1; 
stroke-linecap:round; stroke-linejoin:round;">
</g>
<g style="fill:#000000; fill-opacity:1.0000; 
stroke:#000000; stroke-width:0.0000; stroke-opacity:1; 
stroke-linecap:round; stroke-linejoin:round;">
<circle cx="218.1984" cy="50.0718" r="0.4000" /> 
</g>
<g style="fill:#000000; fill-opacity:1.0000; 
stroke:#000000; stroke-width:0.0212; stroke-opacity:1; 
stroke-linecap:round; stroke-linejoin:round;">
</g>
<g style="fill:#000000; fill-opacity:1.0000; 
stroke:#000000; stroke-width:0.0000; stroke-opacity:1; 
stroke-linecap:round; stroke-linejoin:round;">
<circle cx="206.6022" cy="61.4000" r="0.4000" /> 
</g>
<g style="fill:#000000; fill-opacity:1.0000; 
stroke:#000000; stroke-width:0.0212; stroke-opacity:1; 
stroke-linecap:round; stroke-linejoin:round;">
</g>
<g style="fill:#000000; fill-opacity:1.0000; 
stroke:#000000; stroke-width:0.0000; stroke-opacity:1; 
stroke-linecap:round; stroke-linejoin:round;">
<circle cx="205.8522" cy="61.4000" r="0.4000" /> 
</g>
<g style="fill:#000000; fill-opacity:1.0000; 
stroke:#000000; stroke-width:0.0212; stroke-opacity:1; 
stroke-linecap:round; stroke-linejoin:round;">
</g>
<g style="fill:#000000; fill-opacity:1.0000; 
stroke:#000000; stroke-width:0.0000; stroke-opacity:1; 
stroke-linecap:round; stroke-linejoin:round;">
<circle cx="205.8522" cy="64.8500" r="0.4000" /> 
</g>
<g style="fill:#000000; fill-opacity:1.0000; 
stroke:#000000; stroke-width:0.0212; stroke-opacity:1; 
stroke-linecap:round; stroke-linejoin:round;">
</g>
<g style="fill:#000000; fill-opacity:1.0000; 
stroke:#000000; stroke-width:0.0000; stroke-opacity:1; 
stroke-linecap:round; stroke-linejoin:round;">
<circle cx="206.6022" cy="64.8500" r="0.4000" /> 
</g>
<g style="fill:#000000; fill-opacity:1.0000; 
stroke:#000000; stroke-width:0.0212; stroke-opacity:1; 
stroke-linecap:round; stroke-linejoin:round;">
</g>
<g style="fill:#000000; fill-opacity:1.0000; 
stroke:#000000; stroke-width:0.0000; stroke-opacity:1; 
stroke-linecap:round; stroke-linejoin:round;">
<circle cx="209.3040" cy="58.5518" r="0.4000" /> 
</g>
<g style="fill:#000000; fill-opacity:1.0000; 
stroke:#000000; stroke-width:0.0212; stroke-opacity:1; 
stroke-linecap:round; stroke-linejoin:round;">
</g>
<g style="fill:#000000; fill-opacity:1.0000; 
stroke:#000000; stroke-width:0.0000; stroke-opacity:1; 
stroke-linecap:round; stroke-linejoin:round;">
<circle cx="209.0922" cy="61.1500" r="0.4000" /> 
</g>
<g style="fill:#000000; fill-opacity:1.0000; 
stroke:#000000; stroke-width:0.0212; stroke-opacity:1; 
stroke-linecap:round; stroke-linejoin:round;">
</g>
<g >
</g>
<g style="fill:#000000; fill-opacity:1.0000; 
stroke:#000000; stroke-width:0.0212; stroke-opacity:1; 
stroke-linecap:round; stroke-linejoin:round;">
</g>
<g style="fill:#000000; fill-opacity:1.0000; 
stroke:#000000; stroke-width:0.2500; stroke-opacity:1; 
stroke-linecap:round; stroke-linejoin:round;">
</g>
<g style="fill:#000000; fill-opacity:0.0; 
stroke:#000000; stroke-width:0.2500; stroke-opacity:1; 
stroke-linecap:round; stroke-linejoin:round;">
<path d="M210.0522 63.1500
L208.0272 63.1500
" />
<path d="M208.0272 63.1500
L208.0022 63.1250
" />
<path d="M206.0022 64.2500
L206.6022 64.8500
" />
<path d="M206.0022 64.7000
L205.8522 64.8500
" />
<path d="M205.9022 64.9000
L206.6022 64.9000
" />
<path d="M206.0022 63.1250
L206.0022 61.5500
" />
<path d="M206.0022 62.0000
L206.6022 61.4000
" />
<path d="M206.0022 61.5500
L205.8522 61.4000
" />
<path d="M206.0022 63.1250
L206.0022 64.7000
" />
<path d="M209.3040 58.5518
L209.3040 57.3982
" />
<path d="M210.9844 55.7178
L210.9844 54.6979
" />
<path d="M209.3040 57.3982
L210.9844 55.7178
" />
<path d="M209.0922 61.2000
L208.0022 61.2000
" />
<path d="M208.0022 61.2000
L208.0022 56.8750
" />
</g>
<g >
</g>
<g style="fill:#000000; fill-opacity:0.0; 
stroke:#000000; stroke-width:0.2500; stroke-opacity:1; 
stroke-linecap:round; stroke-linejoin:round;">
<g >
</g>
<g style="fill:#000000; fill-opacity:1.0000; 
stroke:#000000; stroke-width:0.0000; stroke-opacity:1; 
stroke-linecap:round; stroke-linejoin:round;">
<path style="fill:#000000; fill-opacity:1.0000; 
stroke:#000000; stroke-width:0.0000; stroke-opacity:1; 
stroke-linecap:round; stroke-linejoin:round;fill-rule:evenodd;"
d="M 216.6726,48.0095
216.3400,48.0191
216.3374,48.0192
216.3270,48.0201
215.9968,48.0471
215.7642,48.0673
215.6696,48.0755
215.6672,48.0758
215.6402,48.0795
215.3276,48.1224
215.0034,48.1693
215.0012,48.1697
214.6643,48.2348
214.3426,48.3006
214.0084,48.3843
213.7599,48.4502
213.6912,48.4684
213.3620,48.5702
213.0503,48.6724
212.7271,48.7920
212.4219,48.9119
212.1056,49.0491
211.8078,49.1863
211.4995,49.3405
211.2101,49.4946
210.9106,49.6654
210.7293,49.7758
210.6306,49.8360
210.3409,50.0228
210.0711,50.2092
209.9054,50.3294
209.7921,50.4115
209.5334,50.6132
209.2659,50.8304
209.0192,51.0466
208.7639,51.2781
208.5300,51.5083
208.2878,51.7532
208.0674,51.9966
207.8398,52.2534
207.8383,52.2552
207.6328,52.5102
207.4198,52.7787
207.4183,52.7807
207.2274,53.0477
207.0298,53.3267
207.0284,53.3289
206.8509,53.6099
206.6836,53.8759
206.6825,53.8785
206.6760,53.8881
206.6744,53.8907
206.6725,53.8938
206.6605,53.8992
205.0469,54.9709
205.0089,55.0188
205.0027,55.0534
205.0027,64.9519
205.0216,65.0101
205.0402,65.0295
205.1053,65.0812
205.1627,65.1026
205.2216,65.0862
205.2597,65.0383
205.2651,64.9908
205.2465,64.8500
205.2672,64.6932
205.3023,64.6084
205.3079,64.5512
205.3017,64.5197
205.3017,61.7303
205.3017,61.7302
205.3017,61.7302
205.3079,61.6988
205.3023,61.6416
205.2672,61.5568
205.2465,61.4000
205.2672,61.2432
205.2765,61.2207
205.3277,61.0972
205.3277,61.0972
205.4239,60.9717
205.4239,60.9717
205.4239,60.9717
205.4239,60.9717
205.4239,60.9717
205.5108,60.9050
205.5494,60.8755
205.5494,60.8755
205.5494,60.8755
205.6954,60.8150
205.6954,60.8150
205.8522,60.7943
205.8522,60.7943
206.0090,60.8150
206.0090,60.8150
206.1550,60.8755
206.1550,60.8755
206.1669,60.8846
206.2246,60.9050
206.2833,60.8876
206.2874,60.8846
206.2994,60.8755
206.4454,60.8150
206.4454,60.8150
206.4454,60.8150
206.6022,60.7943
206.6022,60.7943
206.7590,60.8150
206.7590,60.8150
206.9050,60.8755
206.9050,60.8755
207.0305,60.9717
207.0305,60.9717
207.1267,61.0972
207.1267,61.0972
207.1872,61.2432
207.1872,61.2432
207.2079,61.4000
207.2079,61.4000
207.1921,61.5199
207.2032,61.5801
207.2476,61.6222
207.3083,61.6302
207.3484,61.6091
207.3495,61.6109
207.4240,61.5611
207.4240,61.5611
207.4240,61.5611
207.4240,61.5611
207.4824,61.5495
207.4825,61.5495
207.6567,61.5495
207.7148,61.5306
207.7508,61.4811
207.7508,61.4199
207.7424,61.4010
207.7418,61.4000
207.7389,61.3949
207.7290,61.3808
207.7160,61.3653
207.7160,61.3653
207.7160,61.3653
207.7090,61.3462
207.7017,61.3306
207.6916,61.3130
207.6881,61.2931
207.6836,61.2764
207.6767,61.2574
207.6767,61.1426
207.6767,58.5495
207.6578,58.4913
207.6083,58.4553
207.5777,58.4505
207.4825,58.4505
207.4825,58.4505
207.4240,58.4389
207.3576,58.3946
207.3133,58.3282
207.3067,58.2948
206.8022,58.2948
206.7993,58.3199
206.7540,58.4225
206.6747,58.5018
206.5721,58.5471
206.5470,58.5500
206.1522,58.5500
206.1522,58.5500
205.8522,58.5500
205.8522,58.5500
205.4574,58.5500
205.4574,58.5500
205.4323,58.5471
205.3297,58.5018
205.2504,58.4225
205.2051,58.3199
205.2022,58.2948
205.2022,58.2948
205.2022,57.0250
205.2022,57.0250
205.8522,57.0250
205.8522,57.0250
205.8522,58.5500
206.1522,58.5500
206.1522,57.0250
206.1522,57.0250
206.8022,57.0250
206.8022,57.0250
206.8022,58.2948
207.3067,58.2948
207.3017,58.2697
207.3017,56.7250
206.8022,56.7250
206.8022,56.7250
206.1522,56.7250
206.1522,56.7250
205.8522,56.7250
205.8522,56.7250
205.2022,56.7250
205.2022,56.7250
205.2022,55.4552
205.2022,55.4552
205.2051,55.4301
205.2504,55.3275
205.3297,55.2482
205.4323,55.2029
205.4574,55.2000
205.8522,55.2000
205.8522,55.2000
205.8522,56.7250
206.1522,56.7250
206.1522,55.2000
206.1522,55.2000
206.5470,55.2000
206.5470,55.2000
206.5721,55.2029
206.6747,55.2482
206.7540,55.3275
206.7993,55.4301
206.8022,55.4552
206.8022,56.7250
207.3017,56.7250
207.3017,55.4803
207.3133,55.4218
207.3576,55.3554
207.3577,55.3554
207.4240,55.3111
207.4240,55.3111
207.4240,55.3111
207.4240,55.3111
207.4824,55.2995
207.4825,55.2995
208.5219,55.2995
208.5219,55.2995
208.5220,55.2995
208.5804,55.3111
208.5804,55.3111
208.6467,55.3554
208.6468,55.3555
208.6911,55.4218
208.6911,55.4218
208.7027,55.4802
208.7027,55.4803
208.7027,58.0576
208.7216,58.1158
208.7711,58.1518
208.8323,58.1518
208.8717,58.1276
208.8758,58.1236
208.9398,58.0744
208.9745,58.0240
208.9785,57.9959
208.9785,57.4145
208.9784,57.4102
208.9748,57.3693
208.9854,57.3297
208.9863,57.3255
208.9935,57.2851
208.9942,57.2838
209.0041,57.2599
209.0045,57.2585
209.0045,57.2585
209.0045,57.2585
209.0280,57.2249
209.0303,57.2212
209.0508,57.1857
209.0750,57.1654
209.0823,57.1593
209.0855,57.1564
210.5538,55.6880
210.5816,55.6335
210.5721,55.5731
210.5360,55.5339
210.4900,55.5054
210.4234,55.4494
210.4186,55.4441
210.4084,55.4342
210.1245,55.1960
210.1131,55.1877
210.1070,55.1840
210.0403,55.1280
209.9445,55.0209
209.8963,54.9484
209.8345,54.8186
209.8087,54.7355
209.8050,54.7125
209.7859,54.5936
209.7859,54.5936
209.7859,54.5936
209.7846,54.5065
209.8028,54.3639
209.8259,54.2801
209.8313,54.2678
209.8611,54.1998
209.8836,54.1483
209.8836,54.1483
209.8836,54.1483
209.9295,54.0744
209.9295,54.0744
209.9373,54.0650
209.9757,54.0193
210.0116,53.9765
210.2971,53.6363
210.3162,53.6155
210.3162,53.6155
210.3245,53.6099
210.4092,53.5525
210.4092,53.5525
210.4092,53.5525
210.5187,53.5274
210.5187,53.5274
210.6299,53.5435
210.7277,53.5986
211.0612,53.8784
211.0726,53.8867
211.0787,53.8905
211.0788,53.8905
211.1454,53.9464
211.1502,53.9518
211.1603,53.9616
211.4442,54.1998
211.4557,54.2081
211.4618,54.2119
211.4618,54.2119
211.5284,54.2678
211.5332,54.2732
211.5434,54.2830
211.7893,54.4894
211.8768,54.5628
211.8893,54.5743
211.8976,54.5819
211.8976,54.5819
211.9606,54.6750
211.9606,54.6750
211.9858,54.7844
211.9858,54.7844
211.9788,54.8325
211.9697,54.8956
211.9449,54.9396
211.9145,54.9935
211.6480,55.3111
211.6393,55.3215
211.5469,55.4316
211.5469,55.4316
211.5469,55.4316
211.4821,55.4896
211.4820,55.4896
211.4820,55.4896
211.4155,55.5339
211.3623,55.5693
211.3601,55.5705
211.3596,55.5711
211.3594,55.5712
211.3594,55.5712
211.3188,55.6157
211.3099,55.6567
211.3099,55.7014
211.3101,55.7057
211.3130,55.7387
211.3137,55.7466
211.3030,55.7862
211.3021,55.7905
211.2950,55.8309
211.2942,55.8322
211.2843,55.8560
211.2839,55.8575
211.2839,55.8575
211.2604,55.8911
211.2581,55.8947
211.2376,55.9303
211.2062,55.9566
211.2030,55.9595
209.6585,57.5040
209.6308,57.5585
209.6295,57.5740
209.6295,57.9959
209.6484,58.0541
209.6683,58.0744
209.7323,58.1236
209.8286,58.2490
209.8286,58.2490
209.8891,58.3951
209.8891,58.3951
209.9097,58.5518
209.9097,58.5518
209.8891,58.7086
209.8891,58.7086
209.8286,58.8547
209.8286,58.8547
209.7323,58.9801
209.7323,58.9801
209.6069,59.0764
209.6069,59.0764
209.6069,59.0764
209.4608,59.1369
209.4608,59.1369
209.3432,59.1524
209.3040,59.1575
209.3040,59.1575
209.3040,59.1575
209.2727,59.1534
209.1473,59.1369
209.0012,59.0764
208.8758,58.9801
208.7795,58.8547
208.7190,58.7086
208.6984,58.5518
208.6988,58.5487
208.6984,58.5465
208.6984,58.5454
208.6981,58.5454
208.6876,58.4886
208.6432,58.4464
208.5826,58.4384
208.5813,58.4387
208.5220,58.4505
208.5220,58.4505
208.5219,58.4505
208.4267,58.4505
208.3685,58.4694
208.3325,58.5189
208.3277,58.5495
208.3277,60.7755
208.3466,60.8337
208.3961,60.8697
208.4267,60.8745
208.4979,60.8745
208.5561,60.8556
208.5764,60.8358
208.6639,60.7217
208.6639,60.7217
208.6639,60.7217
208.7894,60.6255
208.9354,60.5650
208.9354,60.5650
209.0922,60.5443
209.0922,60.5443
209.2490,60.5650
209.2490,60.5650
209.3950,60.6255
209.3950,60.6255
209.5205,60.7217
209.5205,60.7217
209.6167,60.8472
209.6167,60.8472
209.6772,60.9932
209.6772,60.9932
209.6979,61.1500
209.6979,61.1500
209.6772,61.3068
209.6772,61.3068
209.6167,61.4528
209.6167,61.4528
209.5370,61.5568
209.5205,61.5783
209.3950,61.6745
209.3950,61.6745
209.3950,61.6745
209.2490,61.7350
209.2490,61.7350
209.1314,61.7505
209.0922,61.7557
209.0922,61.7557
209.0922,61.7557
209.0608,61.7516
208.9354,61.7350
208.8396,61.6953
208.7786,61.6905
208.7264,61.7225
208.7030,61.7790
208.7027,61.7868
208.7027,62.7255
208.7216,62.7837
208.7711,62.8197
208.8017,62.8245
209.4962,62.8245
209.5544,62.8056
209.5748,62.7858
209.6239,62.7217
209.6239,62.7217
209.6239,62.7217
209.6239,62.7217
209.7494,62.6255
209.8954,62.5650
209.8954,62.5650
210.0522,62.5443
210.0522,62.5443
210.2090,62.5650
210.2090,62.5650
210.3550,62.6255
210.3550,62.6255
210.4805,62.7217
210.4805,62.7217
210.5767,62.8472
210.5767,62.8472
210.6372,62.9932
210.6372,62.9932
210.6579,63.1500
210.6579,63.1500
210.6372,63.3068
210.6372,63.3068
210.5767,63.4528
210.5767,63.4528
210.5069,63.5439
210.4805,63.5783
210.4805,63.5783
210.4805,63.5783
210.4511,63.6008
210.3550,63.6745
210.2090,63.7350
210.0914,63.7505
210.0522,63.7557
210.0522,63.7557
210.0522,63.7557
210.0208,63.7516
209.8954,63.7350
209.7494,63.6745
209.6239,63.5783
209.5748,63.5142
209.5243,63.4796
209.4962,63.4755
208.8017,63.4755
208.7435,63.4944
208.7075,63.5439
208.7027,63.5745
208.7027,64.5197
208.7027,64.5198
208.6911,64.5782
208.6911,64.5782
208.6468,64.6445
208.6468,64.6446
208.5804,64.6889
208.5360,64.6977
208.5220,64.7005
208.5220,64.7005
208.5219,64.7005
208.5219,64.7005
207.4825,64.7005
207.4825,64.7005
207.4240,64.6889
207.3576,64.6446
207.3576,64.6446
207.3495,64.6391
207.3483,64.6410
207.3057,64.6194
207.2453,64.6289
207.2020,64.6722
207.1921,64.7301
207.2079,64.8500
207.2079,64.8500
207.1872,65.0068
207.1872,65.0068
207.1267,65.1528
207.1267,65.1528
207.1267,65.1528
207.0305,65.2783
206.9050,65.3745
206.7590,65.4350
206.6414,65.4505
206.6022,65.4557
206.6022,65.4557
206.6022,65.4557
206.5708,65.4516
206.4454,65.4350
206.2994,65.3745
206.2875,65.3654
206.2298,65.3450
206.1711,65.3624
206.1669,65.3654
206.1550,65.3745
206.0090,65.4350
205.8522,65.4557
205.8522,65.4557
205.8478,65.4563
205.7926,65.4826
205.7634,65.5364
205.7713,65.5970
205.7992,65.6320
206.9212,66.5226
206.9343,66.5288
206.9383,66.5350
206.9396,66.5368
206.9412,66.5394
207.1147,66.7909
207.3222,67.0907
207.3238,67.0928
207.5304,67.3596
207.7414,67.6293
207.7430,67.6312
207.9670,67.8896
208.1906,68.1433
208.1922,68.1450
208.4314,68.3919
208.6690,68.6316
208.9231,68.8664
209.1736,69.0912
209.4406,69.3119
209.7034,69.5213
209.9826,69.7272
210.2568,69.9206
210.5471,70.1109
210.8321,70.2879
211.1325,70.4619
211.4272,70.6219
211.7368,70.7790
212.0405,70.9215
212.3581,71.0613
212.6698,71.1859
212.9945,71.3078
213.3133,71.4141
213.6439,71.5178
213.9688,71.6053
214.3041,71.6905
214.6346,71.7591
214.9720,71.8252
214.9743,71.8256
215.3088,71.8749
215.6475,71.9219
215.6500,71.9222
215.9911,71.9522
216.3274,71.9802
216.3301,71.9803
216.6947,71.9910
217.0008,71.9995
217.0036,71.9995
217.6858,71.9800
217.6886,71.9798
218.2370,71.9327
218.3725,71.9209
218.3752,71.9205
218.8436,71.8532
219.0569,71.8220
219.0596,71.8215
219.4898,71.7343
219.7345,71.6838
219.7371,71.6832
220.1434,71.5764
220.4030,71.5068
220.4055,71.5061
220.7937,71.3799
221.0602,71.2916
221.0626,71.2908
221.4353,71.1457
221.7039,71.0390
221.7062,71.0380
221.9194,70.9406
222.0646,70.8743
222.3319,70.7496
222.3341,70.7486
222.6786,70.5668
222.7194,70.5448
222.9423,70.4246
222.9443,70.4235
223.2122,70.2619
223.2748,70.2242
223.5328,70.0650
223.5348,70.0637
223.8510,69.8475
224.1017,69.6720
224.1036,69.6706
224.4051,69.4381
224.6470,69.2468
224.6487,69.2454
224.9350,68.9973
225.1677,68.7903
225.4391,68.5265
225.6604,68.3052
225.8090,68.1433
225.9153,68.0274
226.1243,67.7926
226.3622,67.5016
226.5579,67.2542
226.7782,66.9509
226.9597,66.6917
227.1620,66.3769
227.3285,66.1069
227.5121,65.7818
227.6026,65.6142
227.6630,65.5020
227.6959,65.4350
227.8275,65.1674
227.9621,64.8788
228.1070,64.5359
228.2248,64.2394
228.2476,64.1755
228.3498,63.8892
228.4503,63.5859
228.4586,63.5575
228.5549,63.2295
228.6377,62.9207
228.7217,62.5591
228.7865,62.2457
228.7928,62.2091
228.8497,61.8801
228.8573,61.8283
228.8961,61.5633
228.9384,61.1949
228.9560,60.9932
228.9663,60.8758
228.9875,60.5056
228.9968,60.1853
228.9968,60.0000
223.1077,60.0000
223.1004,60.1803
223.0997,60.1967
223.0997,60.2457
223.0958,60.2946
223.0879,60.4913
223.0879,60.4913
223.0879,60.4913
223.0641,60.6867
223.0602,60.7356
223.0602,60.7356
223.0523,60.7840
223.0286,60.9794
222.9892,61.1722
222.9813,61.2206
222.9696,61.2683
222.9679,61.2764
222.9302,61.4611
222.9302,61.4611
222.8755,61.6502
222.8637,61.6978
222.8482,61.7443
222.8247,61.8255
222.7934,61.9334
222.7934,61.9334
222.7934,61.9334
222.7237,62.1174
222.7081,62.1640
222.7081,62.1640
222.6889,62.2091
222.6191,62.3931
222.6191,62.3931
222.5693,62.4980
222.5347,62.5710
222.5155,62.6161
222.4927,62.6595
222.4083,62.8373
222.3099,63.0078
222.2871,63.0512
222.2609,63.0927
222.1906,63.2145
222.1625,63.2632
222.1625,63.2632
222.1625,63.2632
222.0507,63.4251
222.0244,63.4666
222.0244,63.4666
221.9950,63.5058
221.8832,63.6678
221.8503,63.7080
221.7587,63.8203
221.7292,63.8595
221.7100,63.8811
221.6967,63.8962
221.5722,64.0487
221.4358,64.1906
221.4033,64.2273
221.3679,64.2613
221.2316,64.4033
221.0843,64.5338
221.0489,64.5678
221.0109,64.5988
220.9280,64.6722
220.8636,64.7293
220.8636,64.7293
220.7062,64.8476
220.7032,64.8500
220.6682,64.8786
220.6682,64.8786
220.6278,64.9064
220.5985,64.9285
220.4705,65.0247
220.3041,65.1299
220.2638,65.1578
220.2213,65.1823
220.0549,65.2875
219.8806,65.3790
219.8382,65.4035
219.7938,65.4245
219.7738,65.4350
219.6196,65.5160
219.6196,65.5160
219.6196,65.5160
219.6196,65.5160
219.4385,65.5931
219.3942,65.6142
219.3483,65.6315
219.1672,65.7087
219.1672,65.7087
219.1672,65.7087
219.1098,65.7279
218.9805,65.7710
218.9347,65.7884
218.9219,65.7921
218.8875,65.8021
218.7009,65.8644
218.7009,65.8644
218.7008,65.8644
218.7008,65.8644
218.5097,65.9115
218.4822,65.9195
218.4626,65.9252
218.4407,65.9296
218.4146,65.9350
218.2234,65.9821
218.2234,65.9821
218.2234,65.9821
218.2234,65.9821
218.1849,65.9883
218.0291,66.0136
217.9811,66.0234
217.9324,66.0294
217.8130,66.0488
217.7381,66.0609
217.6866,66.0651
217.5419,66.0768
217.4932,66.0827
217.4442,66.0847
217.2480,66.1005
217.2480,66.1005
217.0512,66.1005
217.0022,66.1025
216.9532,66.1005
216.7564,66.1005
216.7564,66.1005
216.5601,66.0847
216.5112,66.0827
216.4625,66.0768
216.3192,66.0652
216.2663,66.0609
216.1824,66.0473
216.0720,66.0294
216.0233,66.0234
215.9752,66.0136
215.7810,65.9821
215.5898,65.9350
215.5607,65.9290
215.5418,65.9252
215.5266,65.9207
215.4947,65.9115
215.3036,65.8644
215.3036,65.8644
215.3036,65.8644
215.3035,65.8644
215.2386,65.8427
215.1168,65.8021
215.1067,65.7991
215.0698,65.7884
215.0697,65.7884
215.0239,65.7710
214.8948,65.7279
214.8372,65.7087
214.8372,65.7087
214.8372,65.7087
214.6561,65.6315
214.6208,65.6182
214.6102,65.6142
214.5946,65.6067
214.5659,65.5931
214.3848,65.5160
214.3848,65.5160
214.3848,65.5160
214.3848,65.5160
214.2105,65.4245
214.1662,65.4035
214.1238,65.3790
213.9495,65.2875
213.7831,65.1823
213.7406,65.1578
213.7003,65.1299
213.6233,65.0812
213.5339,65.0247
213.5339,65.0247
213.5339,65.0247
213.4888,64.9908
213.3765,64.9064
213.3390,64.8805
213.3362,64.8786
213.3012,64.8500
213.2982,64.8476
213.1408,64.7293
213.1408,64.7293
213.1408,64.7293
213.1001,64.6932
212.9935,64.5988
212.9666,64.5769
212.9555,64.5678
212.9555,64.5678
212.9555,64.5678
212.9201,64.5338
212.7728,64.4033
212.7728,64.4033
212.7728,64.4033
212.6802,64.3068
212.6364,64.2613
212.6077,64.2337
212.6011,64.2273
212.5911,64.2161
212.5686,64.1906
212.4322,64.0487
212.4322,64.0487
212.4322,64.0487
212.3077,63.8962
212.2752,63.8595
212.2752,63.8595
212.2651,63.8461
212.2457,63.8203
212.1212,63.6678
212.0094,63.5058
211.9800,63.4666
211.9537,63.4251
211.8419,63.2632
211.8419,63.2632
211.8123,63.2118
211.7435,63.0927
211.7268,63.0663
211.7173,63.0512
211.6945,63.0078
211.6442,62.9206
211.5961,62.8373
211.5948,62.8346
211.5706,62.7837
211.5117,62.6595
211.4889,62.6161
211.4889,62.6161
211.4889,62.6161
211.4697,62.5710
211.3853,62.3931
211.3155,62.2091
211.2963,62.1640
211.2808,62.1175
211.2334,61.9924
211.2110,61.9334
211.1934,61.8728
211.1562,61.7443
211.1407,61.6978
211.1289,61.6502
211.0742,61.4611
211.0742,61.4611
211.0742,61.4611
211.0742,61.4611
211.0591,61.3874
211.0348,61.2682
211.0231,61.2207
211.0152,61.1723
210.9758,60.9794
210.9521,60.7840
210.9442,60.7356
210.9403,60.6867
210.9165,60.4913
210.9086,60.2946
210.9047,60.2457
210.9040,60.1804
210.8967,60.0000
210.9040,59.8196
210.9047,59.7543
210.9050,59.7503
210.9086,59.7054
210.9165,59.5087
210.9403,59.3133
210.9442,59.2644
210.9485,59.2383
210.9521,59.2160
210.9758,59.0206
211.0152,58.8277
211.0231,58.7794
211.0348,58.7318
211.0715,58.5518
211.0742,58.5389
211.0742,58.5389
211.0742,58.5389
211.0799,58.5189
211.1289,58.3498
211.1407,58.3022
211.1407,58.3022
211.1407,58.3022
211.1562,58.2557
211.2110,58.0666
211.2808,57.8826
211.2963,57.8360
211.2963,57.8360
211.3012,57.8246
211.3155,57.7909
211.3597,57.6743
211.3853,57.6069
211.3853,57.6069
211.3853,57.6069
211.4697,57.4290
211.4889,57.3839
211.4889,57.3839
211.5117,57.3405
211.5961,57.1627
211.5988,57.1579
211.6756,57.0250
211.6945,56.9922
211.7173,56.9488
211.7435,56.9073
211.8419,56.7368
211.9537,56.5749
211.9714,56.5470
211.9800,56.5334
211.9800,56.5334
212.0094,56.4942
212.1212,56.3322
212.2457,56.1797
212.2752,56.1405
212.2957,56.1173
212.3077,56.1038
212.4322,55.9513
212.5686,55.8094
212.6011,55.7727
212.6011,55.7727
212.6364,55.7387
212.6364,55.7387
212.7728,55.5967
212.7756,55.5942
212.9201,55.4662
212.9223,55.4641
212.9555,55.4322
212.9935,55.4012
213.0835,55.3215
213.1408,55.2707
213.1408,55.2707
213.1408,55.2707
213.2512,55.1877
213.2982,55.1524
213.3281,55.1280
213.3362,55.1214
213.3766,55.0935
213.4760,55.0188
213.5339,54.9753
213.5339,54.9753
213.5339,54.9753
213.7003,54.8701
213.7406,54.8423
213.7831,54.8177
213.9131,54.7355
213.9495,54.7125
213.9495,54.7125
213.9495,54.7125
213.9495,54.7125
214.1238,54.6211
214.1399,54.6117
214.1662,54.5965
214.1662,54.5965
214.1662,54.5965
214.2106,54.5755
214.3848,54.4840
214.3848,54.4840
214.3848,54.4840
214.5659,54.4069
214.5846,54.3980
214.6102,54.3858
214.6102,54.3858
214.6102,54.3858
214.6561,54.3685
214.6936,54.3525
214.8372,54.2913
214.8372,54.2913
214.8372,54.2913
214.8372,54.2913
215.0239,54.2290
215.0697,54.2116
215.0697,54.2116
215.1169,54.1979
215.3036,54.1356
215.4947,54.0885
215.5418,54.0749
215.5418,54.0749
215.5418,54.0749
215.5898,54.0650
215.6420,54.0522
215.7810,54.0179
215.7810,54.0179
215.7810,54.0179
215.9752,53.9864
216.0233,53.9765
216.0720,53.9706
216.2663,53.9391
216.4625,53.9232
216.5111,53.9173
216.5111,53.9173
216.5112,53.9173
216.5331,53.9164
216.5602,53.9153
216.6734,53.9062
216.7564,53.8995
216.9532,53.8995
217.0022,53.8975
217.0512,53.8995
217.2480,53.8995
217.3217,53.9054
217.4442,53.9153
217.4711,53.9164
217.4932,53.9173
217.4933,53.9173
217.4933,53.9173
217.4933,53.9173
217.5419,53.9232
217.7381,53.9391
217.9324,53.9706
217.9811,53.9765
217.9811,53.9765
217.9811,53.9765
217.9964,53.9797
218.0292,53.9864
218.2234,54.0179
218.2234,54.0179
218.2234,54.0179
218.2471,54.0238
218.4146,54.0650
218.4441,54.0711
218.4626,54.0749
218.4626,54.0749
218.4626,54.0749
218.5097,54.0885
218.7008,54.1356
218.8875,54.1979
218.9347,54.2116
218.9805,54.2290
219.1672,54.2913
219.1672,54.2913
219.3483,54.3685
219.3942,54.3858
219.3942,54.3858
219.4385,54.4069
219.5412,54.4506
219.6196,54.4840
219.6196,54.4840
219.6196,54.4840
219.7938,54.5755
219.8382,54.5965
219.8382,54.5965
219.8806,54.6211
219.9731,54.6696
220.0549,54.7125
220.0549,54.7125
220.2213,54.8177
220.2638,54.8422
220.2638,54.8422
220.3041,54.8701
220.4705,54.9753
220.4705,54.9753
220.6278,55.0935
220.6682,55.1214
220.6682,55.1214
220.7062,55.1524
220.8636,55.2707
221.0109,55.4012
221.0489,55.4322
221.0843,55.4662
221.1285,55.5054
221.2288,55.5942
221.2316,55.5967
221.3680,55.7387
221.4033,55.7727
221.4358,55.8094
221.5001,55.8763
221.5722,55.9513
221.5722,55.9513
221.5722,55.9513
221.6967,56.1038
221.7292,56.1405
221.7587,56.1797
221.8401,56.2795
221.8832,56.3322
221.9811,56.4740
221.9950,56.4942
222.0244,56.5334
222.0244,56.5334
222.0507,56.5749
222.1625,56.7368
222.1818,56.7704
222.2609,56.9073
222.2871,56.9488
222.3099,56.9922
222.4083,57.1627
222.4927,57.3405
222.5071,57.3679
222.5155,57.3839
222.5155,57.3839
222.5347,57.4290
222.6191,57.6069
222.6889,57.7909
222.6889,57.7909
222.7081,57.8360
222.7155,57.8581
222.7236,57.8826
222.7934,58.0666
222.7934,58.0666
222.8482,58.2557
222.8637,58.3022
222.8755,58.3498
222.9245,58.5189
222.9302,58.5389
222.9305,58.5403
222.9696,58.7317
222.9813,58.7793
222.9813,58.7794
222.9813,58.7794
222.9892,58.8278
223.0286,59.0206
223.0523,59.2160
223.0602,59.2644
223.0641,59.3133
223.0879,59.5087
223.0879,59.5087
223.0879,59.5092
223.0958,59.7054
223.0997,59.7543
223.0997,59.7543
223.0997,59.8033
223.1077,60.0000
228.9968,60.0000
228.9968,59.8147
228.9965,59.8033
228.9875,59.4944
228.9663,59.1242
228.9384,58.8051
228.8961,58.4367
228.8497,58.1199
228.7865,57.7543
228.7217,57.4409
228.6377,57.0794
228.5549,56.7705
228.4503,56.4140
228.4231,56.3322
228.3498,56.1108
228.2248,55.7606
228.1070,55.4642
227.9621,55.1212
227.8275,54.8326
227.6630,54.4980
227.5122,54.2182
227.3285,53.8930
227.1620,53.6231
226.9771,53.3353
226.9597,53.3083
226.7782,53.0491
226.7772,53.0477
226.5579,52.7458
226.3622,52.4984
226.1243,52.2074
225.9154,51.9726
225.6603,51.6948
225.4391,51.4735
225.1677,51.2097
224.9351,51.0027
224.6487,50.7546
224.6470,50.7532
224.4051,50.5620
224.1035,50.3293
224.1018,50.3281
223.8510,50.1525
223.5348,49.9362
223.5329,49.9350
223.2749,49.7759
222.9442,49.5765
222.9424,49.5754
222.6786,49.4332
222.3341,49.2514
222.3320,49.2504
222.0646,49.1257
221.7062,48.9620
221.7039,48.9610
221.4354,48.8544
221.0626,48.7092
221.0602,48.7084
220.7938,48.6201
220.4055,48.4939
220.4030,48.4932
220.1435,48.4236
219.7370,48.3168
219.7345,48.3162
219.4900,48.2657
219.0595,48.1785
219.0569,48.1780
218.8437,48.1468
218.3751,48.0794
218.3725,48.0791
218.2376,48.0673
217.6886,48.0202
217.6858,48.0200
217.3061,48.0092
217.0036,48.0005
217.0008,48.0005
Z" /> 
</g>
</g>
</g>
<g style="fill:#FFFFFF; fill-opacity:1.0000; 
stroke:#FFFFFF; stroke-width:0.0000; stroke-opacity:1; 
stroke-linecap:round; stroke-linejoin:round;">
<circle cx="210.0522" cy="63.1500" r="0.2000" /> 
</g>
<g style="fill:#FFFFFF; fill-opacity:1.0000; 
stroke:#FFFFFF; stroke-width:0.0212; stroke-opacity:1; 
stroke-linecap:round; stroke-linejoin:round;">
</g>
<g style="fill:#FFFFFF; fill-opacity:1.0000; 
stroke:#FFFFFF; stroke-width:0.0000; stroke-opacity:1; 
stroke-linecap:round; stroke-linejoin:round;">
<circle cx="223.0022" cy="52.0000" r="0.2000" /> 
</g>
<g style="fill:#FFFFFF; fill-opacity:1.0000; 
stroke:#FFFFFF; stroke-width:0.0212; stroke-opacity:1; 
stroke-linecap:round; stroke-linejoin:round;">
</g>
<g style="fill:#FFFFFF; fill-opacity:1.0000; 
stroke:#FFFFFF; stroke-width:0.0000; stroke-opacity:1; 
stroke-linecap:round; stroke-linejoin:round;">
<circle cx="226.9304" cy="61.1962" r="0.2000" /> 
</g>
<g style="fill:#FFFFFF; fill-opacity:1.0000; 
stroke:#FFFFFF; stroke-width:0.0212; stroke-opacity:1; 
stroke-linecap:round; stroke-linejoin:round;">
</g>
<g style="fill:#FFFFFF; fill-opacity:1.0000; 
stroke:#FFFFFF; stroke-width:0.0000; stroke-opacity:1; 
stroke-linecap:round; stroke-linejoin:round;">
<circle cx="220.9304" cy="69.1962" r="0.2000" /> 
</g>
<g style="fill:#FFFFFF; fill-opacity:1.0000; 
stroke:#FFFFFF; stroke-width:0.0212; stroke-opacity:1; 
stroke-linecap:round; stroke-linejoin:round;">
</g>
<g style="fill:#FFFFFF; fill-opacity:1.0000; 
stroke:#FFFFFF; stroke-width:0.0000; stroke-opacity:1; 
stroke-linecap:round; stroke-linejoin:round;">
<circle cx="206.9227" cy="56.6500" r="0.2000" /> 
</g>
<g style="fill:#FFFFFF; fill-opacity:1.0000; 
stroke:#FFFFFF; stroke-width:0.0212; stroke-opacity:1; 
stroke-linecap:round; stroke-linejoin:round;">
</g>
<g style="fill:#FFFFFF; fill-opacity:1.0000; 
stroke:#FFFFFF; stroke-width:0.0000; stroke-opacity:1; 
stroke-linecap:round; stroke-linejoin:round;">
<circle cx="215.8060" cy="69.9282" r="0.2000" /> 
</g>
<g style="fill:#FFFFFF; fill-opacity:1.0000; 
stroke:#FFFFFF; stroke-width:0.0212; stroke-opacity:1; 
stroke-linecap:round; stroke-linejoin:round;">
</g>
<g style="fill:#FFFFFF; fill-opacity:1.0000; 
stroke:#FFFFFF; stroke-width:0.0000; stroke-opacity:1; 
stroke-linecap:round; stroke-linejoin:round;">
<circle cx="213.0740" cy="50.8038" r="0.2000" /> 
</g>
<g style="fill:#FFFFFF; fill-opacity:1.0000; 
stroke:#FFFFFF; stroke-width:0.0212; stroke-opacity:1; 
stroke-linecap:round; stroke-linejoin:round;">
</g>
<g style="fill:#FFFFFF; fill-opacity:1.0000; 
stroke:#FFFFFF; stroke-width:0.0000; stroke-opacity:1; 
stroke-linecap:round; stroke-linejoin:round;">
<circle cx="225.0022" cy="66.0000" r="0.2000" /> 
</g>
<g style="fill:#FFFFFF; fill-opacity:1.0000; 
stroke:#FFFFFF; stroke-width:0.0212; stroke-opacity:1; 
stroke-linecap:round; stroke-linejoin:round;">
</g>
<g style="fill:#FFFFFF; fill-opacity:1.0000; 
stroke:#FFFFFF; stroke-width:0.0000; stroke-opacity:1; 
stroke-linecap:round; stroke-linejoin:round;">
<circle cx="211.0022" cy="67.9400" r="0.2000" /> 
</g>
<g style="fill:#FFFFFF; fill-opacity:1.0000; 
stroke:#FFFFFF; stroke-width:0.0212; stroke-opacity:1; 
stroke-linecap:round; stroke-linejoin:round;">
</g>
<g style="fill:#FFFFFF; fill-opacity:1.0000; 
stroke:#FFFFFF; stroke-width:0.0000; stroke-opacity:1; 
stroke-linecap:round; stroke-linejoin:round;">
<circle cx="226.1984" cy="56.0718" r="0.2000" /> 
</g>
<g style="fill:#FFFFFF; fill-opacity:1.0000; 
stroke:#FFFFFF; stroke-width:0.0212; stroke-opacity:1; 
stroke-linecap:round; stroke-linejoin:round;">
</g>
<g style="fill:#FFFFFF; fill-opacity:1.0000; 
stroke:#FFFFFF; stroke-width:0.0000; stroke-opacity:1; 
stroke-linecap:round; stroke-linejoin:round;">
<circle cx="209.0022" cy="54.0000" r="0.2000" /> 
</g>
<g style="fill:#FFFFFF; fill-opacity:1.0000; 
stroke:#FFFFFF; stroke-width:0.0212; stroke-opacity:1; 
stroke-linecap:round; stroke-linejoin:round;">
</g>
<g style="fill:#FFFFFF; fill-opacity:1.0000; 
stroke:#FFFFFF; stroke-width:0.0000; stroke-opacity:1; 
stroke-linecap:round; stroke-linejoin:round;">
<circle cx="208.7422" cy="66.0200" r="0.2000" /> 
</g>
<g style="fill:#FFFFFF; fill-opacity:1.0000; 
stroke:#FFFFFF; stroke-width:0.0212; stroke-opacity:1; 
stroke-linecap:round; stroke-linejoin:round;">
</g>
<g style="fill:#FFFFFF; fill-opacity:1.0000; 
stroke:#FFFFFF; stroke-width:0.0000; stroke-opacity:1; 
stroke-linecap:round; stroke-linejoin:round;">
<circle cx="218.1984" cy="50.0718" r="0.2000" /> 
</g>
<g style="fill:#FFFFFF; fill-opacity:1.0000; 
stroke:#FFFFFF; stroke-width:0.0212; stroke-opacity:1; 
stroke-linecap:round; stroke-linejoin:round;">
</g>
<g style="fill:#FFFFFF; fill-opacity:1.0000; 
stroke:#FFFFFF; stroke-width:0.0000; stroke-opacity:1; 
stroke-linecap:round; stroke-linejoin:round;">
<circle cx="206.6022" cy="61.4000" r="0.2000" /> 
</g>
<g style="fill:#FFFFFF; fill-opacity:1.0000; 
stroke:#FFFFFF; stroke-width:0.0212; stroke-opacity:1; 
stroke-linecap:round; stroke-linejoin:round;">
</g>
<g style="fill:#FFFFFF; fill-opacity:1.0000; 
stroke:#FFFFFF; stroke-width:0.0000; stroke-opacity:1; 
stroke-linecap:round; stroke-linejoin:round;">
<circle cx="205.8522" cy="61.4000" r="0.2000" /> 
</g>
<g style="fill:#FFFFFF; fill-opacity:1.0000; 
stroke:#FFFFFF; stroke-width:0.0212; stroke-opacity:1; 
stroke-linecap:round; stroke-linejoin:round;">
</g>
<g style="fill:#FFFFFF; fill-opacity:1.0000; 
stroke:#FFFFFF; stroke-width:0.0000; stroke-opacity:1; 
stroke-linecap:round; stroke-linejoin:round;">
<circle cx="205.8522" cy="64.8500" r="0.2000" /> 
</g>
<g style="fill:#FFFFFF; fill-opacity:1.0000; 
stroke:#FFFFFF; stroke-width:0.0212; stroke-opacity:1; 
stroke-linecap:round; stroke-linejoin:round;">
</g>
<g style="fill:#FFFFFF; fill-opacity:1.0000; 
stroke:#FFFFFF; stroke-width:0.0000; stroke-opacity:1; 
stroke-linecap:round; stroke-linejoin:round;">
<circle cx="206.6022" cy="64.8500" r="0.2000" /> 
</g>
<g style="fill:#FFFFFF; fill-opacity:1.0000; 
stroke:#FFFFFF; stroke-width:0.0212; stroke-opacity:1; 
stroke-linecap:round; stroke-linejoin:round;">
</g>
<g style="fill:#FFFFFF; fill-opacity:1.0000; 
stroke:#FFFFFF; stroke-width:0.0000; stroke-opacity:1; 
stroke-linecap:round; stroke-linejoin:round;">
<circle cx="209.3040" cy="58.5518" r="0.2000" /> 
</g>
<g style="fill:#FFFFFF; fill-opacity:1.0000; 
stroke:#FFFFFF; stroke-width:0.0212; stroke-opacity:1; 
stroke-linecap:round; stroke-linejoin:round;">
</g>
<g style="fill:#FFFFFF; fill-opacity:1.0000; 
stroke:#FFFFFF; stroke-width:0.0000; stroke-opacity:1; 
stroke-linecap:round; stroke-linejoin:round;">
<circle cx="209.0922" cy="61.1500" r="0.2000" /> 
</g>
<g style="fill:#FFFFFF; fill-opacity:1.0000; 
stroke:#FFFFFF; stroke-width:0.0212; stroke-opacity:1; 
stroke-linecap:round; stroke-linejoin:round;">
</g>
<g style="fill:#000000; fill-opacity:1.0000; 
stroke:#000000; stroke-width:0.0212; stroke-opacity:1; 
stroke-linecap:round; stroke-linejoin:round;">
</g> 
</svg>
