<?xml version='1.0' encoding='ASCII' standalone='yes'?>
<svg xmlns="http://www.w3.org/2000/svg" version="1.1" width="297.0022mm" height="210.0072mm" viewBox="0.0000 0.0000 297.0022 210.0072">
            <title>Picture generated by PcbDraw </title>
            <desc>Picture generated by PcbDraw</desc>
        <defs><clipPath id="cut-off"><path d=" M 80.0000 60.0000 m-6.1000 0 a 6.1000 6.1000 0 1 0 12.2 0 a 6.1000 6.1000 0 1 0 -12.2 0  M 90.0627 66.5378 L 92.0 65.0 L 92.0 55.0 L 90.3275 53.8891 A 12 12 0 0 0 80.0 48.0 A 12 12 0 0 0 80.0 72.0 A 12 12 0 0 0 90.0627 66.5378 " style="fill-rule: evenodd;"/></clipPath><mask id="pads-mask-silkscreen"><rect x="56.058334" y="43.76175" width="36.016666" height="28.313251" fill="white"/><g style="fill:#000000; fill-opacity:0.0;  stroke:#000000; stroke-width:0.0000; stroke-opacity:1;  stroke-linecap:round; stroke-linejoin:round;">
<g style="fill:#000000; fill-opacity:1.0000;  stroke:#000000; stroke-width:0.0000; stroke-opacity:1;  stroke-linecap:round; stroke-linejoin:round;">
<circle cx="80.0000" cy="71.0000" r="0.5000"/> 
</g>
<g style="fill:#000000; fill-opacity:1.0000;  stroke:#000000; stroke-width:0.0000; stroke-opacity:1;  stroke-linecap:round; stroke-linejoin:round;">
<path style="fill:#000000; fill-opacity:1.0000;  stroke:#000000; stroke-width:0.0000; stroke-opacity:1;  stroke-linecap:round; stroke-linejoin:round;fill-rule:evenodd;" d="M 84.6768,68.5004 84.2438,68.7504 83.9938,68.3174 84.4268,68.0674 Z"/> 
<path style="fill:#000000; fill-opacity:1.0000;  stroke:#000000; stroke-width:0.0000; stroke-opacity:1;  stroke-linecap:round; stroke-linejoin:round;fill-rule:evenodd;" d="M 85.4562,68.0504 85.0232,68.3004 84.7732,67.8674 85.2062,67.6174 Z"/> 
<path style="fill:#000000; fill-opacity:1.0000;  stroke:#000000; stroke-width:0.0000; stroke-opacity:1;  stroke-linecap:round; stroke-linejoin:round;fill-rule:evenodd;" d="M 85.0062,67.2710 84.5732,67.5210 84.3232,67.0880 84.7562,66.8380 Z"/> 
<path style="fill:#000000; fill-opacity:1.0000;  stroke:#000000; stroke-width:0.0000; stroke-opacity:1;  stroke-linecap:round; stroke-linejoin:round;fill-rule:evenodd;" d="M 84.2268,67.7210 83.7938,67.9710 83.5438,67.5380 83.9768,67.2880 Z"/> 
</g>
<g style="fill:#000000; fill-opacity:1.0000;  stroke:#000000; stroke-width:0.0000; stroke-opacity:1;  stroke-linecap:round; stroke-linejoin:round;">
<path style="fill:#000000; fill-opacity:1.0000;  stroke:#000000; stroke-width:0.0000; stroke-opacity:1;  stroke-linecap:round; stroke-linejoin:round;fill-rule:evenodd;" d="M 78.6700,50.3000 78.7236,50.3107 78.7690,50.3410 78.7993,50.3864 78.8100,50.4400 78.8100,50.7200 78.7993,50.7736 78.7690,50.8190 78.7236,50.8493 78.6700,50.8600 78.3300,50.8600 78.2764,50.8493 78.2310,50.8190 78.2007,50.7736 78.1900,50.7200 78.1900,50.4400 78.2007,50.3864 78.2310,50.3410 78.2764,50.3107 78.3300,50.3000 Z"/> 
<path style="fill:#000000; fill-opacity:1.0000;  stroke:#000000; stroke-width:0.0000; stroke-opacity:1;  stroke-linecap:round; stroke-linejoin:round;fill-rule:evenodd;" d="M 78.6700,51.2600 78.7236,51.2707 78.7690,51.3010 78.7993,51.3464 78.8100,51.4000 78.8100,51.6800 78.7993,51.7336 78.7690,51.7790 78.7236,51.8093 78.6700,51.8200 78.3300,51.8200 78.2764,51.8093 78.2310,51.7790 78.2007,51.7336 78.1900,51.6800 78.1900,51.4000 78.2007,51.3464 78.2310,51.3010 78.2764,51.2707 78.3300,51.2600 Z"/> 
</g>
<g style="fill:#000000; fill-opacity:1.0000;  stroke:#000000; stroke-width:0.0000; stroke-opacity:1;  stroke-linecap:round; stroke-linejoin:round;">
<path style="fill:#000000; fill-opacity:1.0000;  stroke:#000000; stroke-width:0.0000; stroke-opacity:1;  stroke-linecap:round; stroke-linejoin:round;fill-rule:evenodd;" d="M 73.9572,52.1896 74.0090,52.1720 74.0635,52.1756 74.1125,52.1997 74.1485,52.2408 74.2885,52.4833 74.3060,52.5350 74.3025,52.5895 74.2783,52.6385 74.2372,52.6745 73.9428,52.8445 73.8910,52.8621 73.8365,52.8585 73.7875,52.8344 73.7515,52.7933 73.6115,52.5508 73.5940,52.4991 73.5975,52.4446 73.6217,52.3956 73.6628,52.3596 Z"/> 
<path style="fill:#000000; fill-opacity:1.0000;  stroke:#000000; stroke-width:0.0000; stroke-opacity:1;  stroke-linecap:round; stroke-linejoin:round;fill-rule:evenodd;" d="M 74.4372,53.0209 74.4890,53.0034 74.5435,53.0070 74.5925,53.0311 74.6285,53.0722 74.7685,53.3147 74.7860,53.3664 74.7825,53.4209 74.7583,53.4699 74.7172,53.5059 74.4228,53.6759 74.3710,53.6935 74.3165,53.6899 74.2675,53.6657 74.2315,53.6247 74.0915,53.3822 74.0740,53.3305 74.0775,53.2759 74.1017,53.2270 74.1428,53.1909 Z"/> 
</g>
<g style="fill:#000000; fill-opacity:1.0000;  stroke:#000000; stroke-width:0.0000; stroke-opacity:1;  stroke-linecap:round; stroke-linejoin:round;">
<path style="fill:#000000; fill-opacity:1.0000;  stroke:#000000; stroke-width:0.0000; stroke-opacity:1;  stroke-linecap:round; stroke-linejoin:round;fill-rule:evenodd;" d="M 89.7000,60.2000 89.7000,60.7000 89.2000,60.7000 89.2000,60.2000 Z"/> 
<path style="fill:#000000; fill-opacity:1.0000;  stroke:#000000; stroke-width:0.0000; stroke-opacity:1;  stroke-linecap:round; stroke-linejoin:round;fill-rule:evenodd;" d="M 89.7000,59.3000 89.7000,59.8000 89.2000,59.8000 89.2000,59.3000 Z"/> 
<path style="fill:#000000; fill-opacity:1.0000;  stroke:#000000; stroke-width:0.0000; stroke-opacity:1;  stroke-linecap:round; stroke-linejoin:round;fill-rule:evenodd;" d="M 88.8000,59.3000 88.8000,59.8000 88.3000,59.8000 88.3000,59.3000 Z"/> 
<path style="fill:#000000; fill-opacity:1.0000;  stroke:#000000; stroke-width:0.0000; stroke-opacity:1;  stroke-linecap:round; stroke-linejoin:round;fill-rule:evenodd;" d="M 88.8000,60.2000 88.8000,60.7000 88.3000,60.7000 88.3000,60.2000 Z"/> 
</g>
<g style="fill:#000000; fill-opacity:1.0000;  stroke:#000000; stroke-width:0.0000; stroke-opacity:1;  stroke-linecap:round; stroke-linejoin:round;">
<path style="fill:#000000; fill-opacity:1.0000;  stroke:#000000; stroke-width:0.0000; stroke-opacity:1;  stroke-linecap:round; stroke-linejoin:round;fill-rule:evenodd;" d="M 80.2000,50.3000 80.7000,50.3000 80.7000,50.8000 80.2000,50.8000 Z"/> 
<path style="fill:#000000; fill-opacity:1.0000;  stroke:#000000; stroke-width:0.0000; stroke-opacity:1;  stroke-linecap:round; stroke-linejoin:round;fill-rule:evenodd;" d="M 79.3000,50.3000 79.8000,50.3000 79.8000,50.8000 79.3000,50.8000 Z"/> 
<path style="fill:#000000; fill-opacity:1.0000;  stroke:#000000; stroke-width:0.0000; stroke-opacity:1;  stroke-linecap:round; stroke-linejoin:round;fill-rule:evenodd;" d="M 79.3000,51.2000 79.8000,51.2000 79.8000,51.7000 79.3000,51.7000 Z"/> 
<path style="fill:#000000; fill-opacity:1.0000;  stroke:#000000; stroke-width:0.0000; stroke-opacity:1;  stroke-linecap:round; stroke-linejoin:round;fill-rule:evenodd;" d="M 80.2000,51.2000 80.7000,51.2000 80.7000,51.7000 80.2000,51.7000 Z"/> 
</g>
<g style="fill:#000000; fill-opacity:1.0000;  stroke:#000000; stroke-width:0.0000; stroke-opacity:1;  stroke-linecap:round; stroke-linejoin:round;">
<path style="fill:#000000; fill-opacity:1.0000;  stroke:#000000; stroke-width:0.0000; stroke-opacity:1;  stroke-linecap:round; stroke-linejoin:round;fill-rule:evenodd;" d="M 88.3004,65.0232 88.0504,65.4562 87.6174,65.2062 87.8674,64.7732 Z"/> 
<path style="fill:#000000; fill-opacity:1.0000;  stroke:#000000; stroke-width:0.0000; stroke-opacity:1;  stroke-linecap:round; stroke-linejoin:round;fill-rule:evenodd;" d="M 88.7504,64.2438 88.5004,64.6768 88.0674,64.4268 88.3174,63.9938 Z"/> 
<path style="fill:#000000; fill-opacity:1.0000;  stroke:#000000; stroke-width:0.0000; stroke-opacity:1;  stroke-linecap:round; stroke-linejoin:round;fill-rule:evenodd;" d="M 87.9710,63.7938 87.7210,64.2268 87.2880,63.9768 87.5380,63.5438 Z"/> 
<path style="fill:#000000; fill-opacity:1.0000;  stroke:#000000; stroke-width:0.0000; stroke-opacity:1;  stroke-linecap:round; stroke-linejoin:round;fill-rule:evenodd;" d="M 87.5210,64.5732 87.2710,65.0062 86.8380,64.7562 87.0880,64.3232 Z"/> 
</g>
<g style="fill:#000000; fill-opacity:1.0000;  stroke:#000000; stroke-width:0.0000; stroke-opacity:1;  stroke-linecap:round; stroke-linejoin:round;">
<path style="fill:#000000; fill-opacity:1.0000;  stroke:#000000; stroke-width:0.0000; stroke-opacity:1;  stroke-linecap:round; stroke-linejoin:round;fill-rule:evenodd;" d="M 71.4996,64.6768 71.2496,64.2438 71.6826,63.9938 71.9326,64.4268 Z"/> 
<path style="fill:#000000; fill-opacity:1.0000;  stroke:#000000; stroke-width:0.0000; stroke-opacity:1;  stroke-linecap:round; stroke-linejoin:round;fill-rule:evenodd;" d="M 71.9496,65.4562 71.6996,65.0232 72.1326,64.7732 72.3826,65.2062 Z"/> 
<path style="fill:#000000; fill-opacity:1.0000;  stroke:#000000; stroke-width:0.0000; stroke-opacity:1;  stroke-linecap:round; stroke-linejoin:round;fill-rule:evenodd;" d="M 72.7290,65.0062 72.4790,64.5732 72.9120,64.3232 73.1620,64.7562 Z"/> 
<path style="fill:#000000; fill-opacity:1.0000;  stroke:#000000; stroke-width:0.0000; stroke-opacity:1;  stroke-linecap:round; stroke-linejoin:round;fill-rule:evenodd;" d="M 72.2790,64.2268 72.0290,63.7938 72.4620,63.5438 72.7120,63.9768 Z"/> 
</g>
<g style="fill:#000000; fill-opacity:1.0000;  stroke:#000000; stroke-width:0.0000; stroke-opacity:1;  stroke-linecap:round; stroke-linejoin:round;">
<path style="fill:#000000; fill-opacity:1.0000;  stroke:#000000; stroke-width:0.0000; stroke-opacity:1;  stroke-linecap:round; stroke-linejoin:round;fill-rule:evenodd;" d="M 79.8000,69.7000 79.3000,69.7000 79.3000,69.2000 79.8000,69.2000 Z"/> 
<path style="fill:#000000; fill-opacity:1.0000;  stroke:#000000; stroke-width:0.0000; stroke-opacity:1;  stroke-linecap:round; stroke-linejoin:round;fill-rule:evenodd;" d="M 80.7000,69.7000 80.2000,69.7000 80.2000,69.2000 80.7000,69.2000 Z"/> 
<path style="fill:#000000; fill-opacity:1.0000;  stroke:#000000; stroke-width:0.0000; stroke-opacity:1;  stroke-linecap:round; stroke-linejoin:round;fill-rule:evenodd;" d="M 80.7000,68.8000 80.2000,68.8000 80.2000,68.3000 80.7000,68.3000 Z"/> 
<path style="fill:#000000; fill-opacity:1.0000;  stroke:#000000; stroke-width:0.0000; stroke-opacity:1;  stroke-linecap:round; stroke-linejoin:round;fill-rule:evenodd;" d="M 79.8000,68.8000 79.3000,68.8000 79.3000,68.3000 79.8000,68.3000 Z"/> 
</g>
<g style="fill:#000000; fill-opacity:1.0000;  stroke:#000000; stroke-width:0.0000; stroke-opacity:1;  stroke-linecap:round; stroke-linejoin:round;">
<path style="fill:#000000; fill-opacity:1.0000;  stroke:#000000; stroke-width:0.0000; stroke-opacity:1;  stroke-linecap:round; stroke-linejoin:round;fill-rule:evenodd;" d="M 70.3000,59.8000 70.3000,59.3000 70.8000,59.3000 70.8000,59.8000 Z"/> 
<path style="fill:#000000; fill-opacity:1.0000;  stroke:#000000; stroke-width:0.0000; stroke-opacity:1;  stroke-linecap:round; stroke-linejoin:round;fill-rule:evenodd;" d="M 70.3000,60.7000 70.3000,60.2000 70.8000,60.2000 70.8000,60.7000 Z"/> 
<path style="fill:#000000; fill-opacity:1.0000;  stroke:#000000; stroke-width:0.0000; stroke-opacity:1;  stroke-linecap:round; stroke-linejoin:round;fill-rule:evenodd;" d="M 71.2000,60.7000 71.2000,60.2000 71.7000,60.2000 71.7000,60.7000 Z"/> 
<path style="fill:#000000; fill-opacity:1.0000;  stroke:#000000; stroke-width:0.0000; stroke-opacity:1;  stroke-linecap:round; stroke-linejoin:round;fill-rule:evenodd;" d="M 71.2000,59.8000 71.2000,59.3000 71.7000,59.3000 71.7000,59.8000 Z"/> 
</g>
<g style="fill:#000000; fill-opacity:1.0000;  stroke:#000000; stroke-width:0.0000; stroke-opacity:1;  stroke-linecap:round; stroke-linejoin:round;">
<path style="fill:#000000; fill-opacity:1.0000;  stroke:#000000; stroke-width:0.0000; stroke-opacity:1;  stroke-linecap:round; stroke-linejoin:round;fill-rule:evenodd;" d="M 71.6996,54.9768 71.9496,54.5438 72.3826,54.7938 72.1326,55.2268 Z"/> 
<path style="fill:#000000; fill-opacity:1.0000;  stroke:#000000; stroke-width:0.0000; stroke-opacity:1;  stroke-linecap:round; stroke-linejoin:round;fill-rule:evenodd;" d="M 71.2496,55.7562 71.4996,55.3232 71.9326,55.5732 71.6826,56.0062 Z"/> 
<path style="fill:#000000; fill-opacity:1.0000;  stroke:#000000; stroke-width:0.0000; stroke-opacity:1;  stroke-linecap:round; stroke-linejoin:round;fill-rule:evenodd;" d="M 72.0290,56.2062 72.2790,55.7732 72.7120,56.0232 72.4620,56.4562 Z"/> 
<path style="fill:#000000; fill-opacity:1.0000;  stroke:#000000; stroke-width:0.0000; stroke-opacity:1;  stroke-linecap:round; stroke-linejoin:round;fill-rule:evenodd;" d="M 72.4790,55.4268 72.7290,54.9938 73.1620,55.2438 72.9120,55.6768 Z"/> 
</g>
<g style="fill:#000000; fill-opacity:1.0000;  stroke:#000000; stroke-width:0.0000; stroke-opacity:1;  stroke-linecap:round; stroke-linejoin:round;">
<circle cx="80.0000" cy="49.0000" r="0.5000"/> 
</g>
<g style="fill:#000000; fill-opacity:1.0000;  stroke:#000000; stroke-width:0.0000; stroke-opacity:1;  stroke-linecap:round; stroke-linejoin:round;">
<path style="fill:#000000; fill-opacity:1.0000;  stroke:#000000; stroke-width:0.0000; stroke-opacity:1;  stroke-linecap:round; stroke-linejoin:round;fill-rule:evenodd;" d="M 70.2400,61.3300 70.2507,61.2764 70.2810,61.2310 70.3264,61.2007 70.3800,61.1900 70.6600,61.1900 70.7136,61.2007 70.7590,61.2310 70.7893,61.2764 70.8000,61.3300 70.8000,61.6700 70.7893,61.7236 70.7590,61.7690 70.7136,61.7993 70.6600,61.8100 70.3800,61.8100 70.3264,61.7993 70.2810,61.7690 70.2507,61.7236 70.2400,61.6700 Z"/> 
<path style="fill:#000000; fill-opacity:1.0000;  stroke:#000000; stroke-width:0.0000; stroke-opacity:1;  stroke-linecap:round; stroke-linejoin:round;fill-rule:evenodd;" d="M 71.2000,61.3300 71.2107,61.2764 71.2410,61.2310 71.2864,61.2007 71.3400,61.1900 71.6200,61.1900 71.6736,61.2007 71.7190,61.2310 71.7493,61.2764 71.7600,61.3300 71.7600,61.6700 71.7493,61.7236 71.7190,61.7690 71.6736,61.7993 71.6200,61.8100 71.3400,61.8100 71.2864,61.7993 71.2410,61.7690 71.2107,61.7236 71.2000,61.6700 Z"/> 
</g>
<g style="fill:#000000; fill-opacity:1.0000;  stroke:#000000; stroke-width:0.0000; stroke-opacity:1;  stroke-linecap:round; stroke-linejoin:round;">
<path style="fill:#000000; fill-opacity:1.0000;  stroke:#000000; stroke-width:0.0000; stroke-opacity:1;  stroke-linecap:round; stroke-linejoin:round;fill-rule:evenodd;" d="M 88.9125,57.3900 88.9364,57.3948 88.9567,57.4083 88.9702,57.4286 88.9750,57.4525 88.9750,57.6875 88.9702,57.7114 88.9567,57.7317 88.9364,57.7452 88.9125,57.7500 88.7875,57.7500 88.7636,57.7452 88.7433,57.7317 88.7298,57.7114 88.7250,57.6875 88.7250,57.4525 88.7298,57.4286 88.7433,57.4083 88.7636,57.3948 88.7875,57.3900 Z"/> 
<path style="fill:#000000; fill-opacity:1.0000;  stroke:#000000; stroke-width:0.0000; stroke-opacity:1;  stroke-linecap:round; stroke-linejoin:round;fill-rule:evenodd;" d="M 88.9125,56.5500 88.9364,56.5548 88.9567,56.5683 88.9702,56.5886 88.9750,56.6125 88.9750,56.8475 88.9702,56.8714 88.9567,56.8917 88.9364,56.9052 88.9125,56.9100 88.7875,56.9100 88.7636,56.9052 88.7433,56.8917 88.7298,56.8714 88.7250,56.8475 88.7250,56.6125 88.7298,56.5886 88.7433,56.5683 88.7636,56.5548 88.7875,56.5500 Z"/> 
</g>
<g style="fill:#000000; fill-opacity:1.0000;  stroke:#000000; stroke-width:0.0000; stroke-opacity:1;  stroke-linecap:round; stroke-linejoin:round;">
<path style="fill:#000000; fill-opacity:1.0000;  stroke:#000000; stroke-width:0.0000; stroke-opacity:1;  stroke-linecap:round; stroke-linejoin:round;fill-rule:evenodd;" d="M 72.2568,65.9828 72.2393,65.9310 72.2428,65.8765 72.2670,65.8275 72.3081,65.7915 72.5506,65.6515 72.6023,65.6340 72.6568,65.6375 72.7058,65.6617 72.7418,65.7028 72.9118,65.9972 72.9294,66.0490 72.9258,66.1035 72.9016,66.1525 72.8606,66.1885 72.6181,66.3285 72.5663,66.3460 72.5118,66.3425 72.4628,66.3183 72.4268,66.2772 Z"/> 
<path style="fill:#000000; fill-opacity:1.0000;  stroke:#000000; stroke-width:0.0000; stroke-opacity:1;  stroke-linecap:round; stroke-linejoin:round;fill-rule:evenodd;" d="M 73.0882,65.5028 73.0706,65.4510 73.0742,65.3965 73.0984,65.3475 73.1394,65.3115 73.3819,65.1715 73.4337,65.1540 73.4882,65.1575 73.5372,65.1817 73.5732,65.2228 73.7432,65.5172 73.7607,65.5690 73.7572,65.6235 73.7330,65.6725 73.6919,65.7085 73.4494,65.8485 73.3977,65.8660 73.3432,65.8625 73.2942,65.8383 73.2582,65.7972 Z"/> 
</g>
<g style="fill:#000000; fill-opacity:1.0000;  stroke:#000000; stroke-width:0.0000; stroke-opacity:1;  stroke-linecap:round; stroke-linejoin:round;">
<path style="fill:#000000; fill-opacity:1.0000;  stroke:#000000; stroke-width:0.0000; stroke-opacity:1;  stroke-linecap:round; stroke-linejoin:round;fill-rule:evenodd;" d="M 76.2728,69.0732 76.2317,69.0372 76.2075,68.9882 76.2040,68.9337 76.2215,68.8819 76.3615,68.6394 76.3975,68.5984 76.4465,68.5742 76.5010,68.5706 76.5528,68.5882 76.8472,68.7582 76.8883,68.7942 76.9125,68.8432 76.9160,68.8977 76.8985,68.9494 76.7585,69.1919 76.7225,69.2330 76.6735,69.2572 76.6190,69.2607 76.5672,69.2432 Z"/> 
<path style="fill:#000000; fill-opacity:1.0000;  stroke:#000000; stroke-width:0.0000; stroke-opacity:1;  stroke-linecap:round; stroke-linejoin:round;fill-rule:evenodd;" d="M 76.7528,68.2418 76.7117,68.2058 76.6875,68.1568 76.6840,68.1023 76.7015,68.0506 76.8415,67.8081 76.8775,67.7670 76.9265,67.7428 76.9810,67.7393 77.0328,67.7568 77.3272,67.9268 77.3683,67.9628 77.3925,68.0118 77.3960,68.0663 77.3785,68.1181 77.2385,68.3606 77.2025,68.4016 77.1535,68.4258 77.0990,68.4294 77.0472,68.4118 Z"/> 
</g>
<g style="fill:#000000; fill-opacity:1.0000;  stroke:#000000; stroke-width:0.0000; stroke-opacity:1;  stroke-linecap:round; stroke-linejoin:round;">
<path style="fill:#000000; fill-opacity:1.0000;  stroke:#000000; stroke-width:0.0000; stroke-opacity:1;  stroke-linecap:round; stroke-linejoin:round;fill-rule:evenodd;" d="M 86.0328,67.8104 85.9810,67.8280 85.9265,67.8244 85.8775,67.8003 85.8415,67.7592 85.7015,67.5167 85.6840,67.4650 85.6875,67.4105 85.7117,67.3615 85.7528,67.3255 86.0472,67.1555 86.0990,67.1379 86.1535,67.1415 86.2025,67.1656 86.2385,67.2067 86.3785,67.4492 86.3960,67.5009 86.3925,67.5554 86.3683,67.6044 86.3272,67.6404 Z"/> 
<path style="fill:#000000; fill-opacity:1.0000;  stroke:#000000; stroke-width:0.0000; stroke-opacity:1;  stroke-linecap:round; stroke-linejoin:round;fill-rule:evenodd;" d="M 85.5528,66.9791 85.5010,66.9966 85.4465,66.9930 85.3975,66.9689 85.3615,66.9278 85.2215,66.6853 85.2040,66.6336 85.2075,66.5791 85.2317,66.5301 85.2728,66.4941 85.5672,66.3241 85.6190,66.3065 85.6735,66.3101 85.7225,66.3343 85.7585,66.3753 85.8985,66.6178 85.9160,66.6695 85.9125,66.7241 85.8883,66.7730 85.8472,66.8091 Z"/> 
</g>
<g style="fill:#000000; fill-opacity:1.0000;  stroke:#000000; stroke-width:0.0000; stroke-opacity:1;  stroke-linecap:round; stroke-linejoin:round;">
<path style="fill:#000000; fill-opacity:1.0000;  stroke:#000000; stroke-width:0.0000; stroke-opacity:1;  stroke-linecap:round; stroke-linejoin:round;fill-rule:evenodd;" d="M 70.9268,56.2728 70.9628,56.2317 71.0118,56.2075 71.0663,56.2040 71.1181,56.2215 71.3606,56.3615 71.4016,56.3975 71.4258,56.4465 71.4294,56.5010 71.4118,56.5528 71.2418,56.8472 71.2058,56.8883 71.1568,56.9125 71.1023,56.9160 71.0506,56.8985 70.8081,56.7585 70.7670,56.7225 70.7428,56.6735 70.7393,56.6190 70.7568,56.5672 Z"/> 
<path style="fill:#000000; fill-opacity:1.0000;  stroke:#000000; stroke-width:0.0000; stroke-opacity:1;  stroke-linecap:round; stroke-linejoin:round;fill-rule:evenodd;" d="M 71.7582,56.7528 71.7942,56.7117 71.8432,56.6875 71.8977,56.6840 71.9494,56.7015 72.1919,56.8415 72.2330,56.8775 72.2572,56.9265 72.2607,56.9810 72.2432,57.0328 72.0732,57.3272 72.0372,57.3683 71.9882,57.3925 71.9337,57.3960 71.8819,57.3785 71.6394,57.2385 71.5984,57.2025 71.5742,57.1535 71.5706,57.0990 71.5882,57.0472 Z"/> 
</g>
<g style="fill:#000000; fill-opacity:1.0000;  stroke:#000000; stroke-width:0.0000; stroke-opacity:1;  stroke-linecap:round; stroke-linejoin:round;">
<path style="fill:#000000; fill-opacity:1.0000;  stroke:#000000; stroke-width:0.0000; stroke-opacity:1;  stroke-linecap:round; stroke-linejoin:round;fill-rule:evenodd;" d="M 81.3300,69.7900 81.2764,69.7793 81.2310,69.7490 81.2007,69.7036 81.1900,69.6500 81.1900,69.3700 81.2007,69.3164 81.2310,69.2710 81.2764,69.2407 81.3300,69.2300 81.6700,69.2300 81.7236,69.2407 81.7690,69.2710 81.7993,69.3164 81.8100,69.3700 81.8100,69.6500 81.7993,69.7036 81.7690,69.7490 81.7236,69.7793 81.6700,69.7900 Z"/> 
<path style="fill:#000000; fill-opacity:1.0000;  stroke:#000000; stroke-width:0.0000; stroke-opacity:1;  stroke-linecap:round; stroke-linejoin:round;fill-rule:evenodd;" d="M 81.3300,68.8300 81.2764,68.8193 81.2310,68.7890 81.2007,68.7436 81.1900,68.6900 81.1900,68.4100 81.2007,68.3564 81.2310,68.3110 81.2764,68.2807 81.3300,68.2700 81.6700,68.2700 81.7236,68.2807 81.7690,68.3110 81.7993,68.3564 81.8100,68.4100 81.8100,68.6900 81.7993,68.7436 81.7690,68.7890 81.7236,68.8193 81.6700,68.8300 Z"/> 
</g>
<g style="fill:#000000; fill-opacity:1.0000;  stroke:#000000; stroke-width:0.0000; stroke-opacity:1;  stroke-linecap:round; stroke-linejoin:round;">
<path style="fill:#000000; fill-opacity:1.0000;  stroke:#000000; stroke-width:0.0000; stroke-opacity:1;  stroke-linecap:round; stroke-linejoin:round;fill-rule:evenodd;" d="M 88.5004,55.3232 88.7504,55.7562 88.3174,56.0062 88.0674,55.5732 Z"/> 
<path style="fill:#000000; fill-opacity:1.0000;  stroke:#000000; stroke-width:0.0000; stroke-opacity:1;  stroke-linecap:round; stroke-linejoin:round;fill-rule:evenodd;" d="M 88.0504,54.5438 88.3004,54.9768 87.8674,55.2268 87.6174,54.7938 Z"/> 
<path style="fill:#000000; fill-opacity:1.0000;  stroke:#000000; stroke-width:0.0000; stroke-opacity:1;  stroke-linecap:round; stroke-linejoin:round;fill-rule:evenodd;" d="M 87.2710,54.9938 87.5210,55.4268 87.0880,55.6768 86.8380,55.2438 Z"/> 
<path style="fill:#000000; fill-opacity:1.0000;  stroke:#000000; stroke-width:0.0000; stroke-opacity:1;  stroke-linecap:round; stroke-linejoin:round;fill-rule:evenodd;" d="M 87.7210,55.7732 87.9710,56.2062 87.5380,56.4562 87.2880,56.0232 Z"/> 
</g>
<g style="fill:#000000; fill-opacity:1.0000;  stroke:#000000; stroke-width:0.0000; stroke-opacity:1;  stroke-linecap:round; stroke-linejoin:round;">
<path style="fill:#000000; fill-opacity:1.0000;  stroke:#000000; stroke-width:0.0000; stroke-opacity:1;  stroke-linecap:round; stroke-linejoin:round;fill-rule:evenodd;" d="M 88.3900,58.3600 88.4007,58.3064 88.4310,58.2610 88.4764,58.2307 88.5300,58.2200 88.8100,58.2200 88.8636,58.2307 88.9090,58.2610 88.9393,58.3064 88.9500,58.3600 88.9500,58.7000 88.9393,58.7536 88.9090,58.7990 88.8636,58.8293 88.8100,58.8400 88.5300,58.8400 88.4764,58.8293 88.4310,58.7990 88.4007,58.7536 88.3900,58.7000 Z"/> 
<path style="fill:#000000; fill-opacity:1.0000;  stroke:#000000; stroke-width:0.0000; stroke-opacity:1;  stroke-linecap:round; stroke-linejoin:round;fill-rule:evenodd;" d="M 89.3500,58.3600 89.3607,58.3064 89.3910,58.2610 89.4364,58.2307 89.4900,58.2200 89.7700,58.2200 89.8236,58.2307 89.8690,58.2610 89.8993,58.3064 89.9100,58.3600 89.9100,58.7000 89.8993,58.7536 89.8690,58.7990 89.8236,58.8293 89.7700,58.8400 89.4900,58.8400 89.4364,58.8293 89.3910,58.7990 89.3607,58.7536 89.3500,58.7000 Z"/> 
</g>
<g style="fill:#000000; fill-opacity:1.0000;  stroke:#000000; stroke-width:0.0000; stroke-opacity:1;  stroke-linecap:round; stroke-linejoin:round;">
<path style="fill:#000000; fill-opacity:1.0000;  stroke:#000000; stroke-width:0.0000; stroke-opacity:1;  stroke-linecap:round; stroke-linejoin:round;fill-rule:evenodd;" d="M 87.7432,54.0172 87.7607,54.0690 87.7572,54.1235 87.7330,54.1725 87.6919,54.2085 87.4494,54.3485 87.3977,54.3660 87.3432,54.3625 87.2942,54.3383 87.2582,54.2972 87.0882,54.0028 87.0706,53.9510 87.0742,53.8965 87.0984,53.8475 87.1394,53.8115 87.3819,53.6715 87.4337,53.6540 87.4882,53.6575 87.5372,53.6817 87.5732,53.7228 Z"/> 
<path style="fill:#000000; fill-opacity:1.0000;  stroke:#000000; stroke-width:0.0000; stroke-opacity:1;  stroke-linecap:round; stroke-linejoin:round;fill-rule:evenodd;" d="M 86.9118,54.4972 86.9294,54.5490 86.9258,54.6035 86.9016,54.6525 86.8606,54.6885 86.6181,54.8285 86.5663,54.8460 86.5118,54.8425 86.4628,54.8183 86.4268,54.7772 86.2568,54.4828 86.2393,54.4310 86.2428,54.3765 86.2670,54.3275 86.3081,54.2915 86.5506,54.1515 86.6023,54.1340 86.6568,54.1375 86.7058,54.1617 86.7418,54.2028 Z"/> 
</g>
<g style="fill:#000000; fill-opacity:1.0000;  stroke:#000000; stroke-width:0.0000; stroke-opacity:1;  stroke-linecap:round; stroke-linejoin:round;">
<path style="fill:#000000; fill-opacity:1.0000;  stroke:#000000; stroke-width:0.0000; stroke-opacity:1;  stroke-linecap:round; stroke-linejoin:round;fill-rule:evenodd;" d="M 75.3232,51.4996 75.7562,51.2496 76.0062,51.6826 75.5732,51.9326 Z"/> 
<path style="fill:#000000; fill-opacity:1.0000;  stroke:#000000; stroke-width:0.0000; stroke-opacity:1;  stroke-linecap:round; stroke-linejoin:round;fill-rule:evenodd;" d="M 74.5438,51.9496 74.9768,51.6996 75.2268,52.1326 74.7938,52.3826 Z"/> 
<path style="fill:#000000; fill-opacity:1.0000;  stroke:#000000; stroke-width:0.0000; stroke-opacity:1;  stroke-linecap:round; stroke-linejoin:round;fill-rule:evenodd;" d="M 74.9938,52.7290 75.4268,52.4790 75.6768,52.9120 75.2438,53.1620 Z"/> 
<path style="fill:#000000; fill-opacity:1.0000;  stroke:#000000; stroke-width:0.0000; stroke-opacity:1;  stroke-linecap:round; stroke-linejoin:round;fill-rule:evenodd;" d="M 75.7732,52.2790 76.2062,52.0290 76.4562,52.4620 76.0232,52.7120 Z"/> 
</g>
<g style="fill:#000000; fill-opacity:1.0000;  stroke:#000000; stroke-width:0.0000; stroke-opacity:1;  stroke-linecap:round; stroke-linejoin:round;">
<path style="fill:#000000; fill-opacity:1.0000;  stroke:#000000; stroke-width:0.0000; stroke-opacity:1;  stroke-linecap:round; stroke-linejoin:round;fill-rule:evenodd;" d="M 89.1232,63.7772 89.0872,63.8183 89.0382,63.8425 88.9837,63.8460 88.9319,63.8285 88.6894,63.6885 88.6484,63.6525 88.6242,63.6035 88.6206,63.5490 88.6382,63.4972 88.8082,63.2028 88.8442,63.1617 88.8932,63.1375 88.9477,63.1340 88.9994,63.1515 89.2419,63.2915 89.2830,63.3275 89.3072,63.3765 89.3107,63.4310 89.2932,63.4828 Z"/> 
<path style="fill:#000000; fill-opacity:1.0000;  stroke:#000000; stroke-width:0.0000; stroke-opacity:1;  stroke-linecap:round; stroke-linejoin:round;fill-rule:evenodd;" d="M 88.2918,63.2972 88.2558,63.3383 88.2068,63.3625 88.1523,63.3660 88.1006,63.3485 87.8581,63.2085 87.8170,63.1725 87.7928,63.1235 87.7893,63.0690 87.8068,63.0172 87.9768,62.7228 88.0128,62.6817 88.0618,62.6575 88.1163,62.6540 88.1681,62.6715 88.4106,62.8115 88.4516,62.8475 88.4758,62.8965 88.4794,62.9510 88.4618,63.0028 Z"/> 
</g>
<g style="fill:#000000; fill-opacity:1.0000;  stroke:#000000; stroke-width:0.0000; stroke-opacity:1;  stroke-linecap:round; stroke-linejoin:round;">
<path style="fill:#000000; fill-opacity:1.0000;  stroke:#000000; stroke-width:0.0000; stroke-opacity:1;  stroke-linecap:round; stroke-linejoin:round;fill-rule:evenodd;" d="M 74.9768,68.3004 74.5438,68.0504 74.7938,67.6174 75.2268,67.8674 Z"/> 
<path style="fill:#000000; fill-opacity:1.0000;  stroke:#000000; stroke-width:0.0000; stroke-opacity:1;  stroke-linecap:round; stroke-linejoin:round;fill-rule:evenodd;" d="M 75.7562,68.7504 75.3232,68.5004 75.5732,68.0674 76.0062,68.3174 Z"/> 
<path style="fill:#000000; fill-opacity:1.0000;  stroke:#000000; stroke-width:0.0000; stroke-opacity:1;  stroke-linecap:round; stroke-linejoin:round;fill-rule:evenodd;" d="M 76.2062,67.9710 75.7732,67.7210 76.0232,67.2880 76.4562,67.5380 Z"/> 
<path style="fill:#000000; fill-opacity:1.0000;  stroke:#000000; stroke-width:0.0000; stroke-opacity:1;  stroke-linecap:round; stroke-linejoin:round;fill-rule:evenodd;" d="M 75.4268,67.5210 74.9938,67.2710 75.2438,66.8380 75.6768,67.0880 Z"/> 
</g>
<g style="fill:#000000; fill-opacity:1.0000;  stroke:#000000; stroke-width:0.0000; stroke-opacity:1;  stroke-linecap:round; stroke-linejoin:round;">
<path style="fill:#000000; fill-opacity:1.0000;  stroke:#000000; stroke-width:0.0000; stroke-opacity:1;  stroke-linecap:round; stroke-linejoin:round;fill-rule:evenodd;" d="M 85.0232,51.6996 85.4562,51.9496 85.2062,52.3826 84.7732,52.1326 Z"/> 
<path style="fill:#000000; fill-opacity:1.0000;  stroke:#000000; stroke-width:0.0000; stroke-opacity:1;  stroke-linecap:round; stroke-linejoin:round;fill-rule:evenodd;" d="M 84.2438,51.2496 84.6768,51.4996 84.4268,51.9326 83.9938,51.6826 Z"/> 
<path style="fill:#000000; fill-opacity:1.0000;  stroke:#000000; stroke-width:0.0000; stroke-opacity:1;  stroke-linecap:round; stroke-linejoin:round;fill-rule:evenodd;" d="M 83.7938,52.0290 84.2268,52.2790 83.9768,52.7120 83.5438,52.4620 Z"/> 
<path style="fill:#000000; fill-opacity:1.0000;  stroke:#000000; stroke-width:0.0000; stroke-opacity:1;  stroke-linecap:round; stroke-linejoin:round;fill-rule:evenodd;" d="M 84.5732,52.4790 85.0062,52.7290 84.7562,53.1620 84.3232,52.9120 Z"/> 
</g>
<g style="fill:#000000; fill-opacity:1.0000;  stroke:#000000; stroke-width:0.0000; stroke-opacity:1;  stroke-linecap:round; stroke-linejoin:round;">
<path style="fill:#000000; fill-opacity:1.0000;  stroke:#000000; stroke-width:0.0000; stroke-opacity:1;  stroke-linecap:round; stroke-linejoin:round;fill-rule:evenodd;" d="M 89.6900,61.8350 89.6797,61.8867 89.6505,61.9305 89.6067,61.9597 89.5550,61.9700 89.2850,61.9700 89.2333,61.9597 89.1895,61.9305 89.1603,61.8867 89.1500,61.8350 89.1500,61.4650 89.1603,61.4133 89.1895,61.3695 89.2333,61.3403 89.2850,61.3300 89.5550,61.3300 89.6067,61.3403 89.6505,61.3695 89.6797,61.4133 89.6900,61.4650 Z"/> 
<path style="fill:#000000; fill-opacity:1.0000;  stroke:#000000; stroke-width:0.0000; stroke-opacity:1;  stroke-linecap:round; stroke-linejoin:round;fill-rule:evenodd;" d="M 88.6700,61.8350 88.6597,61.8867 88.6305,61.9305 88.5867,61.9597 88.5350,61.9700 88.2650,61.9700 88.2133,61.9597 88.1695,61.9305 88.1403,61.8867 88.1300,61.8350 88.1300,61.4650 88.1403,61.4133 88.1695,61.3695 88.2133,61.3403 88.2650,61.3300 88.5350,61.3300 88.5867,61.3403 88.6305,61.3695 88.6597,61.4133 88.6700,61.4650 Z"/> 
</g>
<g style="fill:#000000; fill-opacity:1.0000;  stroke:#000000; stroke-width:0.0000; stroke-opacity:1;  stroke-linecap:round; stroke-linejoin:round;">
<path style="fill:#000000; fill-opacity:1.0000;  stroke:#000000; stroke-width:0.0000; stroke-opacity:1;  stroke-linecap:round; stroke-linejoin:round;fill-rule:evenodd;" d="M 83.7272,50.9268 83.7683,50.9628 83.7925,51.0118 83.7960,51.0663 83.7785,51.1181 83.6385,51.3606 83.6025,51.4016 83.5535,51.4258 83.4990,51.4294 83.4472,51.4118 83.1528,51.2418 83.1117,51.2058 83.0875,51.1568 83.0840,51.1023 83.1015,51.0506 83.2415,50.8081 83.2775,50.7670 83.3265,50.7428 83.3810,50.7393 83.4328,50.7568 Z"/> 
<path style="fill:#000000; fill-opacity:1.0000;  stroke:#000000; stroke-width:0.0000; stroke-opacity:1;  stroke-linecap:round; stroke-linejoin:round;fill-rule:evenodd;" d="M 83.2472,51.7582 83.2883,51.7942 83.3125,51.8432 83.3160,51.8977 83.2985,51.9494 83.1585,52.1919 83.1225,52.2330 83.0735,52.2572 83.0190,52.2607 82.9672,52.2432 82.6728,52.0732 82.6317,52.0372 82.6075,51.9882 82.6040,51.9337 82.6215,51.8819 82.7615,51.6394 82.7975,51.5984 82.8465,51.5742 82.9010,51.5706 82.9528,51.5882 Z"/> 
</g>
</g> 
</mask></defs><g transform="" id="boardContainer"><g id="substrate" clip-path="url(#cut-off)" mask="url(#pads-mask-silkscreen)"><g id="substrate-board" style="fill:#143324; fill-opacity:0.25098039215686274; stroke:#143324; stroke-width:0;"><path d=" M 80.0000 60.0000 m-6.1000 0 a 6.1000 6.1000 0 1 0 12.2 0 a 6.1000 6.1000 0 1 0 -12.2 0  M 90.0627 66.5378 L 92.0 65.0 L 92.0 55.0 L 90.3275 53.8891 A 12 12 0 0 0 80.0 48.0 A 12 12 0 0 0 80.0 72.0 A 12 12 0 0 0 90.0627 66.5378 " style="fill-rule: evenodd;"/><g style="fill-opacity: 0.0;stroke-width: 0.1000;stroke-opacity: 1;stroke-linecap: round;stroke-linejoin: round">
<path d="M80.0000 72.0000 A12.0000 12.0000 0.0 0 0 90.0627 66.5378"/>
<circle cx="80.0000" cy="60.0000" r="6.1000"/> 
<path d="M92.0000 55.0000 L92.0000 65.0000 "/>
<path d="M80.0000 48.0000 A12.0000 12.0000 0.0 0 0 80.0000 72.0000"/>
<path d="M90.0627 66.5378 L92.0000 65.0000 "/>
<path d="M90.3275 53.8891 A12.0000 12.0000 0.0 0 0 80.0000 48.0000"/>
<path d="M90.3275 53.8891 L92.0000 55.0000 "/>
</g> 
</g></g></g></svg>
