<!DOCTYPE svg PUBLIC "-//W3C//DTD SVG 1.1//EN" "http://www.w3.org/Graphics/SVG/1.1/DTD/svg11.dtd">
<svg xmlns="http://www.w3.org/2000/svg" version="1.1" width="30.1mm" height="30.1mm" viewBox="-95.05 44.95 30.10000000000001 30.10000000000001">
            <title>Picture generated by PcbDraw </title>
            <desc>Picture generated by PcbDraw</desc>
        <defs><clipPath id="cut-off"><path d=" M 80.0000 60.0000 m-6.1000 0 a 6.1000 6.1000 0 1 0 12.2 0 a 6.1000 6.1000 0 1 0 -12.2 0  M 66.0 75.0 L 94.0 75.0 A 1 1 0 0 0 95.0 74.0 L 95.0 46.0 A 1 1 0 0 0 94.0 45.0 L 66.0 45.0 A 1 1 0 0 0 65.0 46.0 L 65.0 74.0 A 1 1 0 0 0 66.0 75.0 " style="fill-rule: evenodd;"/></clipPath><mask id="pads-mask"><g style="fill:#ffffff; fill-opacity:0.0;  stroke:#ffffff; stroke-width:0.0000; stroke-opacity:1;  stroke-linecap:round; stroke-linejoin:round;">
<g style="fill:#ffffff; fill-opacity:1.0000;  stroke:#ffffff; stroke-width:0.0000; stroke-opacity:1;  stroke-linecap:round; stroke-linejoin:round;">
<path style="fill:#ffffff; fill-opacity:1.0000;  stroke:#ffffff; stroke-width:0.0000; stroke-opacity:1;  stroke-linecap:round; stroke-linejoin:round;fill-rule:evenodd;" d="M 91.5000,58.2500 90.5000,58.2500 90.5000,55.5000 91.5000,55.5000 Z"/> 
<path style="fill:#ffffff; fill-opacity:1.0000;  stroke:#ffffff; stroke-width:0.0000; stroke-opacity:1;  stroke-linecap:round; stroke-linejoin:round;fill-rule:evenodd;" d="M 91.5000,64.5000 90.5000,64.5000 90.5000,61.7500 91.5000,61.7500 Z"/> 
<path style="fill:#ffffff; fill-opacity:1.0000;  stroke:#ffffff; stroke-width:0.0000; stroke-opacity:1;  stroke-linecap:round; stroke-linejoin:round;fill-rule:evenodd;" d="M 89.5000,58.2500 88.5000,58.2500 88.5000,55.5000 89.5000,55.5000 Z"/> 
<path style="fill:#ffffff; fill-opacity:1.0000;  stroke:#ffffff; stroke-width:0.0000; stroke-opacity:1;  stroke-linecap:round; stroke-linejoin:round;fill-rule:evenodd;" d="M 89.5000,64.5000 88.5000,64.5000 88.5000,61.7500 89.5000,61.7500 Z"/> 
</g>
<g style="fill:#ffffff; fill-opacity:1.0000;  stroke:#ffffff; stroke-width:0.0000; stroke-opacity:1;  stroke-linecap:round; stroke-linejoin:round;">
<path style="fill:#ffffff; fill-opacity:1.0000;  stroke:#ffffff; stroke-width:0.0000; stroke-opacity:1;  stroke-linecap:round; stroke-linejoin:round;fill-rule:evenodd;" d="M 91.7500,71.5000 91.7500,70.5000 94.5000,70.5000 94.5000,71.5000 Z"/> 
<path style="fill:#ffffff; fill-opacity:1.0000;  stroke:#ffffff; stroke-width:0.0000; stroke-opacity:1;  stroke-linecap:round; stroke-linejoin:round;fill-rule:evenodd;" d="M 85.5000,71.5000 85.5000,70.5000 88.2500,70.5000 88.2500,71.5000 Z"/> 
<path style="fill:#ffffff; fill-opacity:1.0000;  stroke:#ffffff; stroke-width:0.0000; stroke-opacity:1;  stroke-linecap:round; stroke-linejoin:round;fill-rule:evenodd;" d="M 91.7500,69.5000 91.7500,68.5000 94.5000,68.5000 94.5000,69.5000 Z"/> 
<path style="fill:#ffffff; fill-opacity:1.0000;  stroke:#ffffff; stroke-width:0.0000; stroke-opacity:1;  stroke-linecap:round; stroke-linejoin:round;fill-rule:evenodd;" d="M 85.5000,69.5000 85.5000,68.5000 88.2500,68.5000 88.2500,69.5000 Z"/> 
</g>
</g> 
</mask><mask id="pads-mask-silkscreen"><rect x="64.95" y="44.95" width="30.1" height="30.1" fill="white"/><g style="fill:#000000; fill-opacity:0.0;  stroke:#000000; stroke-width:0.0000; stroke-opacity:1;  stroke-linecap:round; stroke-linejoin:round;">
<g style="fill:#000000; fill-opacity:1.0000;  stroke:#000000; stroke-width:0.0000; stroke-opacity:1;  stroke-linecap:round; stroke-linejoin:round;">
<path style="fill:#000000; fill-opacity:1.0000;  stroke:#000000; stroke-width:0.0000; stroke-opacity:1;  stroke-linecap:round; stroke-linejoin:round;fill-rule:evenodd;" d="M 91.5000,58.2500 90.5000,58.2500 90.5000,55.5000 91.5000,55.5000 Z"/> 
<path style="fill:#000000; fill-opacity:1.0000;  stroke:#000000; stroke-width:0.0000; stroke-opacity:1;  stroke-linecap:round; stroke-linejoin:round;fill-rule:evenodd;" d="M 91.5000,64.5000 90.5000,64.5000 90.5000,61.7500 91.5000,61.7500 Z"/> 
<path style="fill:#000000; fill-opacity:1.0000;  stroke:#000000; stroke-width:0.0000; stroke-opacity:1;  stroke-linecap:round; stroke-linejoin:round;fill-rule:evenodd;" d="M 89.5000,58.2500 88.5000,58.2500 88.5000,55.5000 89.5000,55.5000 Z"/> 
<path style="fill:#000000; fill-opacity:1.0000;  stroke:#000000; stroke-width:0.0000; stroke-opacity:1;  stroke-linecap:round; stroke-linejoin:round;fill-rule:evenodd;" d="M 89.5000,64.5000 88.5000,64.5000 88.5000,61.7500 89.5000,61.7500 Z"/> 
</g>
<g style="fill:#000000; fill-opacity:1.0000;  stroke:#000000; stroke-width:0.0000; stroke-opacity:1;  stroke-linecap:round; stroke-linejoin:round;">
<path style="fill:#000000; fill-opacity:1.0000;  stroke:#000000; stroke-width:0.0000; stroke-opacity:1;  stroke-linecap:round; stroke-linejoin:round;fill-rule:evenodd;" d="M 91.7500,71.5000 91.7500,70.5000 94.5000,70.5000 94.5000,71.5000 Z"/> 
<path style="fill:#000000; fill-opacity:1.0000;  stroke:#000000; stroke-width:0.0000; stroke-opacity:1;  stroke-linecap:round; stroke-linejoin:round;fill-rule:evenodd;" d="M 85.5000,71.5000 85.5000,70.5000 88.2500,70.5000 88.2500,71.5000 Z"/> 
<path style="fill:#000000; fill-opacity:1.0000;  stroke:#000000; stroke-width:0.0000; stroke-opacity:1;  stroke-linecap:round; stroke-linejoin:round;fill-rule:evenodd;" d="M 91.7500,69.5000 91.7500,68.5000 94.5000,68.5000 94.5000,69.5000 Z"/> 
<path style="fill:#000000; fill-opacity:1.0000;  stroke:#000000; stroke-width:0.0000; stroke-opacity:1;  stroke-linecap:round; stroke-linejoin:round;fill-rule:evenodd;" d="M 85.5000,69.5000 85.5000,68.5000 88.2500,68.5000 88.2500,69.5000 Z"/> 
</g>
</g> 
</mask><mask id="hole-mask"><g><rect x="64.95" y="44.95" fill="white" width="30.1" height="30.1"/><polyline stroke-linecap="round" stroke="black" stroke-width="0.4" points="-0.0 0 0.0 0" transform="translate(86.4 63.5) rotate(-0.0)"/><polyline stroke-linecap="round" stroke="black" stroke-width="0.4" points="-0.0 0 0.0 0" transform="translate(89.726279 65.15359) rotate(-0.0)"/><polyline stroke-linecap="round" stroke="black" stroke-width="0.4" points="-0.0 0 0.0 0" transform="translate(69.0 60.4) rotate(-0.0)"/><polyline stroke-linecap="round" stroke="black" stroke-width="0.4" points="-0.0 0 0.0 0" transform="translate(80.4 71.0) rotate(-0.0)"/><polyline stroke-linecap="round" stroke="black" stroke-width="0.4" points="-0.0 0 0.0 0" transform="translate(85.15359 50.273721) rotate(-0.0)"/><polyline stroke-linecap="round" stroke="black" stroke-width="0.4" points="-0.0 0 0.0 0" transform="translate(74.15359 50.673721) rotate(-0.0)"/><polyline stroke-linecap="round" stroke="black" stroke-width="0.4" points="-0.0 0 0.0 0" transform="translate(79.6 49.0) rotate(-0.0)"/><polyline stroke-linecap="round" stroke="black" stroke-width="0.4" points="-0.0 0 0.0 0" transform="translate(70.273721 54.84641) rotate(-0.0)"/><polyline stroke-linecap="round" stroke="black" stroke-width="0.4" points="-0.0 0 0.0 0" transform="translate(89.326279 54.15359) rotate(-0.0)"/><polyline stroke-linecap="round" stroke="black" stroke-width="0.4" points="-0.0 0 0.0 0" transform="translate(86.4 67.8) rotate(-0.0)"/><polyline stroke-linecap="round" stroke="black" stroke-width="0.4" points="-0.0 0 0.0 0" transform="translate(74.84641 69.726279) rotate(-0.0)"/><polyline stroke-linecap="round" stroke="black" stroke-width="0.4" points="-0.0 0 0.0 0" transform="translate(91.0 59.6) rotate(-0.0)"/><polyline stroke-linecap="round" stroke="black" stroke-width="0.4" points="-0.0 0 0.0 0" transform="translate(70.673721 65.84641) rotate(-0.0)"/><polyline stroke-linecap="round" stroke="black" stroke-width="0.4" points="-0.0 0 0.0 0" transform="translate(92.0 62.1) rotate(-0.0)"/><polyline stroke-linecap="round" stroke="black" stroke-width="0.4" points="-0.0 0 0.0 0" transform="translate(85.9 72.0) rotate(-0.0)"/><polyline stroke-linecap="round" stroke="black" stroke-width="0.4" points="-0.0 0 0.0 0" transform="translate(92.0 63.1) rotate(-0.0)"/><polyline stroke-linecap="round" stroke="black" stroke-width="0.4" points="-0.0 0 0.0 0" transform="translate(92.0 64.1) rotate(-0.0)"/><polyline stroke-linecap="round" stroke="black" stroke-width="0.4" points="-0.0 0 0.0 0" transform="translate(87.9 72.0) rotate(-0.0)"/><polyline stroke-linecap="round" stroke="black" stroke-width="0.4" points="-0.0 0 0.0 0" transform="translate(86.9 72.0) rotate(-0.0)"/><polyline stroke-linecap="round" stroke="black" stroke-width="0.4" points="-0.0 0 0.0 0" transform="translate(87.91 61.82) rotate(-0.0)"/></g></mask></defs><g transform="scale(-1,1)" id="boardContainer"><g id="substrate" clip-path="url(#cut-off)" mask="url(#hole-mask)"><g id="substrate-board" style="fill:#208b47; stroke:#208b47;"><path d=" M 80.0000 60.0000 m-6.1000 0 a 6.1000 6.1000 0 1 0 12.2 0 a 6.1000 6.1000 0 1 0 -12.2 0  M 66.0 75.0 L 94.0 75.0 A 1 1 0 0 0 95.0 74.0 L 95.0 46.0 A 1 1 0 0 0 94.0 45.0 L 66.0 45.0 A 1 1 0 0 0 65.0 46.0 L 65.0 74.0 A 1 1 0 0 0 66.0 75.0 " style="fill-rule: evenodd;"/><g style="fill-opacity: 0.0;stroke-width: 0.1000;stroke-opacity: 1;stroke-linecap: round;stroke-linejoin: round">
<path d="M65.0000 74.0000 A1.0000 1.0000 0.0 0 0 66.0000 75.0000"/>
<circle cx="80.0000" cy="60.0000" r="6.1000"/> 
<path d="M95.0000 46.0000 L95.0000 74.0000 "/>
<path d="M65.0000 74.0000 L65.0000 46.0000 "/>
<path d="M94.0000 75.0000 A1.0000 1.0000 0.0 0 0 95.0000 74.0000"/>
<path d="M66.0000 45.0000 L94.0000 45.0000 "/>
<path d="M94.0000 75.0000 L66.0000 75.0000 "/>
<path d="M66.0000 45.0000 A1.0000 1.0000 0.0 0 0 65.0000 46.0000"/>
<path d="M95.0000 46.0000 A1.0000 1.0000 0.0 0 0 94.0000 45.0000"/>
</g> 
</g><g id="substrate-clad" style="fill:#332B16; stroke:#332B16;"><g style="fill-opacity: 0.0;stroke-width: 0.0000;stroke-opacity: 1;stroke-linecap: round;stroke-linejoin: round">
<g style="fill-opacity: 1.0000;stroke-width: 0.0000;stroke-opacity: 1;stroke-linecap: round;stroke-linejoin: round">
<path style="fill-opacity: 1.0000;stroke-width: 0.0000;stroke-opacity: 1;stroke-linecap: round;stroke-linejoin: round;fill-rule: evenodd" d="M 91.5000,58.2500 90.5000,58.2500 90.5000,55.5000 91.5000,55.5000 Z"/> 
<path style="fill-opacity: 1.0000;stroke-width: 0.0000;stroke-opacity: 1;stroke-linecap: round;stroke-linejoin: round;fill-rule: evenodd" d="M 91.5000,64.5000 90.5000,64.5000 90.5000,61.7500 91.5000,61.7500 Z"/> 
<path style="fill-opacity: 1.0000;stroke-width: 0.0000;stroke-opacity: 1;stroke-linecap: round;stroke-linejoin: round;fill-rule: evenodd" d="M 89.5000,58.2500 88.5000,58.2500 88.5000,55.5000 89.5000,55.5000 Z"/> 
<path style="fill-opacity: 1.0000;stroke-width: 0.0000;stroke-opacity: 1;stroke-linecap: round;stroke-linejoin: round;fill-rule: evenodd" d="M 89.5000,64.5000 88.5000,64.5000 88.5000,61.7500 89.5000,61.7500 Z"/> 
</g>
<g style="fill-opacity: 1.0000;stroke-width: 0.0000;stroke-opacity: 1;stroke-linecap: round;stroke-linejoin: round">
<path style="fill-opacity: 1.0000;stroke-width: 0.0000;stroke-opacity: 1;stroke-linecap: round;stroke-linejoin: round;fill-rule: evenodd" d="M 91.7500,71.5000 91.7500,70.5000 94.5000,70.5000 94.5000,71.5000 Z"/> 
<path style="fill-opacity: 1.0000;stroke-width: 0.0000;stroke-opacity: 1;stroke-linecap: round;stroke-linejoin: round;fill-rule: evenodd" d="M 85.5000,71.5000 85.5000,70.5000 88.2500,70.5000 88.2500,71.5000 Z"/> 
<path style="fill-opacity: 1.0000;stroke-width: 0.0000;stroke-opacity: 1;stroke-linecap: round;stroke-linejoin: round;fill-rule: evenodd" d="M 91.7500,69.5000 91.7500,68.5000 94.5000,68.5000 94.5000,69.5000 Z"/> 
<path style="fill-opacity: 1.0000;stroke-width: 0.0000;stroke-opacity: 1;stroke-linecap: round;stroke-linejoin: round;fill-rule: evenodd" d="M 85.5000,69.5000 85.5000,68.5000 88.2500,68.5000 88.2500,69.5000 Z"/> 
</g>
</g> 
</g><g id="substrate-copper" style="fill:#285e3a; stroke:#285e3a;"><g style="fill-opacity: 0.0;stroke-width: 0.0000;stroke-opacity: 1;stroke-linecap: round;stroke-linejoin: round">
<g style="fill-opacity: 1.0000;stroke-width: 0.0000;stroke-opacity: 1;stroke-linecap: round;stroke-linejoin: round">
<path style="fill-opacity: 1.0000;stroke-width: 0.0000;stroke-opacity: 1;stroke-linecap: round;stroke-linejoin: round;fill-rule: evenodd" d="M 91.5000,58.2500 90.5000,58.2500 90.5000,55.5000 91.5000,55.5000 Z"/> 
<path style="fill-opacity: 1.0000;stroke-width: 0.0000;stroke-opacity: 1;stroke-linecap: round;stroke-linejoin: round;fill-rule: evenodd" d="M 91.5000,64.5000 90.5000,64.5000 90.5000,61.7500 91.5000,61.7500 Z"/> 
<path style="fill-opacity: 1.0000;stroke-width: 0.0000;stroke-opacity: 1;stroke-linecap: round;stroke-linejoin: round;fill-rule: evenodd" d="M 89.5000,58.2500 88.5000,58.2500 88.5000,55.5000 89.5000,55.5000 Z"/> 
<path style="fill-opacity: 1.0000;stroke-width: 0.0000;stroke-opacity: 1;stroke-linecap: round;stroke-linejoin: round;fill-rule: evenodd" d="M 89.5000,64.5000 88.5000,64.5000 88.5000,61.7500 89.5000,61.7500 Z"/> 
</g>
<g style="fill-opacity: 1.0000;stroke-width: 0.0000;stroke-opacity: 1;stroke-linecap: round;stroke-linejoin: round">
<path style="fill-opacity: 1.0000;stroke-width: 0.0000;stroke-opacity: 1;stroke-linecap: round;stroke-linejoin: round;fill-rule: evenodd" d="M 91.7500,71.5000 91.7500,70.5000 94.5000,70.5000 94.5000,71.5000 Z"/> 
<path style="fill-opacity: 1.0000;stroke-width: 0.0000;stroke-opacity: 1;stroke-linecap: round;stroke-linejoin: round;fill-rule: evenodd" d="M 85.5000,71.5000 85.5000,70.5000 88.2500,70.5000 88.2500,71.5000 Z"/> 
<path style="fill-opacity: 1.0000;stroke-width: 0.0000;stroke-opacity: 1;stroke-linecap: round;stroke-linejoin: round;fill-rule: evenodd" d="M 91.7500,69.5000 91.7500,68.5000 94.5000,68.5000 94.5000,69.5000 Z"/> 
<path style="fill-opacity: 1.0000;stroke-width: 0.0000;stroke-opacity: 1;stroke-linecap: round;stroke-linejoin: round;fill-rule: evenodd" d="M 85.5000,69.5000 85.5000,68.5000 88.2500,68.5000 88.2500,69.5000 Z"/> 
</g>
<g style="fill-opacity: 1.0000;stroke-width: 0.0000;stroke-opacity: 1;stroke-linecap: round;stroke-linejoin: round">
<circle cx="86.4000" cy="63.5000" r="0.4000"/> 
</g>
<g style="fill-opacity: 1.0000;stroke-width: 0.0000;stroke-opacity: 1;stroke-linecap: round;stroke-linejoin: round">
<circle cx="89.7263" cy="65.1536" r="0.4000"/> 
</g>
<g style="fill-opacity: 1.0000;stroke-width: 0.0000;stroke-opacity: 1;stroke-linecap: round;stroke-linejoin: round">
<circle cx="69.0000" cy="60.4000" r="0.4000"/> 
</g>
<g style="fill-opacity: 1.0000;stroke-width: 0.0000;stroke-opacity: 1;stroke-linecap: round;stroke-linejoin: round">
<circle cx="80.4000" cy="71.0000" r="0.4000"/> 
</g>
<g style="fill-opacity: 1.0000;stroke-width: 0.0000;stroke-opacity: 1;stroke-linecap: round;stroke-linejoin: round">
<circle cx="85.1536" cy="50.2737" r="0.4000"/> 
</g>
<g style="fill-opacity: 1.0000;stroke-width: 0.0000;stroke-opacity: 1;stroke-linecap: round;stroke-linejoin: round">
<circle cx="74.1536" cy="50.6737" r="0.4000"/> 
</g>
<g style="fill-opacity: 1.0000;stroke-width: 0.0000;stroke-opacity: 1;stroke-linecap: round;stroke-linejoin: round">
<circle cx="79.6000" cy="49.0000" r="0.4000"/> 
</g>
<g style="fill-opacity: 1.0000;stroke-width: 0.0000;stroke-opacity: 1;stroke-linecap: round;stroke-linejoin: round">
<circle cx="70.2737" cy="54.8464" r="0.4000"/> 
</g>
<g style="fill-opacity: 1.0000;stroke-width: 0.0000;stroke-opacity: 1;stroke-linecap: round;stroke-linejoin: round">
<circle cx="89.3263" cy="54.1536" r="0.4000"/> 
</g>
<g style="fill-opacity: 1.0000;stroke-width: 0.0000;stroke-opacity: 1;stroke-linecap: round;stroke-linejoin: round">
<circle cx="86.4000" cy="67.8000" r="0.4000"/> 
</g>
<g style="fill-opacity: 1.0000;stroke-width: 0.0000;stroke-opacity: 1;stroke-linecap: round;stroke-linejoin: round">
<circle cx="74.8464" cy="69.7263" r="0.4000"/> 
</g>
<g style="fill-opacity: 1.0000;stroke-width: 0.0000;stroke-opacity: 1;stroke-linecap: round;stroke-linejoin: round">
<circle cx="91.0000" cy="59.6000" r="0.4000"/> 
</g>
<g style="fill-opacity: 1.0000;stroke-width: 0.0000;stroke-opacity: 1;stroke-linecap: round;stroke-linejoin: round">
<circle cx="70.6737" cy="65.8464" r="0.4000"/> 
</g>
<g style="fill-opacity: 1.0000;stroke-width: 0.0000;stroke-opacity: 1;stroke-linecap: round;stroke-linejoin: round">
<circle cx="92.0000" cy="62.1000" r="0.4000"/> 
</g>
<g style="fill-opacity: 1.0000;stroke-width: 0.0000;stroke-opacity: 1;stroke-linecap: round;stroke-linejoin: round">
<circle cx="85.9000" cy="72.0000" r="0.4000"/> 
</g>
<g style="fill-opacity: 1.0000;stroke-width: 0.0000;stroke-opacity: 1;stroke-linecap: round;stroke-linejoin: round">
<circle cx="92.0000" cy="63.1000" r="0.4000"/> 
</g>
<g style="fill-opacity: 1.0000;stroke-width: 0.0000;stroke-opacity: 1;stroke-linecap: round;stroke-linejoin: round">
<circle cx="92.0000" cy="64.1000" r="0.4000"/> 
</g>
<g style="fill-opacity: 1.0000;stroke-width: 0.0000;stroke-opacity: 1;stroke-linecap: round;stroke-linejoin: round">
<circle cx="87.9000" cy="72.0000" r="0.4000"/> 
</g>
<g style="fill-opacity: 1.0000;stroke-width: 0.0000;stroke-opacity: 1;stroke-linecap: round;stroke-linejoin: round">
<circle cx="86.9000" cy="72.0000" r="0.4000"/> 
</g>
<g style="fill-opacity: 1.0000;stroke-width: 0.0000;stroke-opacity: 1;stroke-linecap: round;stroke-linejoin: round">
<circle cx="87.9100" cy="61.8200" r="0.4000"/> 
</g>
<g style="fill-opacity: 0.0;stroke-width: 0.2500;stroke-opacity: 1;stroke-linecap: round;stroke-linejoin: round">
<path d="M86.4000 63.5000 L86.7750 63.1250 "/>
<path d="M86.4000 63.5000 L86.4000 65.5000 "/>
<path d="M86.7750 63.1250 L89.0000 63.1250 "/>
<path d="M86.4000 65.5000 L84.8000 67.1000 "/>
<path d="M84.8000 67.1000 L84.8000 68.4000 "/>
<path d="M84.8000 68.4000 L85.4000 69.0000 "/>
<path d="M85.4000 69.0000 L86.8750 69.0000 "/>
<path d="M91.0000 63.1250 L91.0250 63.1250 "/>
<path d="M86.8750 71.0000 L86.8750 71.0250 "/>
<path d="M86.8750 71.0000 L86.8750 71.9750 "/>
<path d="M91.0000 63.1250 L91.9750 63.1250 "/>
<path d="M91.0000 63.1000 L92.0000 62.1000 "/>
<path d="M86.8750 71.0000 L86.9000 71.0000 "/>
<path d="M86.8750 71.9750 L86.9000 72.0000 "/>
<path d="M86.9000 71.0000 L87.9000 72.0000 "/>
<path d="M86.8750 71.0250 L85.9000 72.0000 "/>
<path d="M91.0000 63.1250 L91.0000 63.1000 "/>
<path d="M91.0250 63.1250 L92.0000 64.1000 "/>
<path d="M91.9750 63.1250 L92.0000 63.1000 "/>
<path d="M88.0000 57.0000 L88.0000 61.7300 "/>
<path d="M92.8000 61.3000 L92.8000 68.6750 "/>
<path d="M88.4300 61.3000 L92.8000 61.3000 "/>
<path d="M92.8000 68.6750 L93.1250 69.0000 "/>
<path d="M88.0000 61.7300 L87.9100 61.8200 "/>
<path d="M89.0000 56.8750 L88.1250 56.8750 "/>
<path d="M88.1250 56.8750 L88.0000 57.0000 "/>
<path d="M87.9100 61.8200 L88.4300 61.3000 "/>
</g>
<g style="fill-opacity: 0.0;stroke-width: 0.2500;stroke-opacity: 1;stroke-linecap: round;stroke-linejoin: round">
<g style="fill-opacity: 1.0000;stroke-width: 0.0000;stroke-opacity: 1;stroke-linecap: round;stroke-linejoin: round">
<path style="fill-opacity: 1.0000;stroke-width: 0.0000;stroke-opacity: 1;stroke-linecap: round;stroke-linejoin: round;fill-rule: evenodd" d="M 94.0027,45.0007 94.0455,45.0045 94.1718,45.0169 94.1917,45.0205 94.2574,45.0382 94.2592,45.0387 94.3516,45.0667 94.3680,45.0730 94.4354,45.1044 94.4384,45.1059 94.4760,45.1260 94.5223,45.1508 94.5287,45.1547 94.5948,45.2010 94.5986,45.2038 94.6708,45.2631 94.6753,45.2672 94.7328,45.3247 94.7369,45.3292 94.7962,45.4014 94.7990,45.4052 94.8453,45.4713 94.8492,45.4777 94.8941,45.5616 94.8956,45.5646 94.9270,45.6320 94.9333,45.6484 94.9613,45.7407 94.9619,45.7426 94.9795,45.8083 94.9831,45.8282 94.9955,45.9546 94.9993,45.9973 94.9995,46.0027 94.9995,70.0016 94.9798,70.0687 94.9270,70.1144 94.8579,70.1244 94.8012,70.1009 94.7421,70.0566 94.7421,70.0566 94.6074,70.0064 94.6074,70.0064 94.5478,70.0000 93.3750,70.0000 93.3750,72.0000 94.5478,72.0000 94.5478,72.0000 94.6074,71.9936 94.6074,71.9936 94.7421,71.9434 94.7421,71.9434 94.8012,71.8991 94.8667,71.8747 94.9349,71.8895 94.9843,71.9389 94.9995,71.9984 94.9995,73.9973 94.9993,74.0027 94.9955,74.0454 94.9831,74.1718 94.9795,74.1917 94.9619,74.2574 94.9613,74.2593 94.9333,74.3516 94.9270,74.3680 94.8956,74.4354 94.8941,74.4384 94.8492,74.5223 94.8453,74.5287 94.7990,74.5948 94.7962,74.5986 94.7369,74.6708 94.7328,74.6753 94.6753,74.7328 94.6708,74.7369 94.5986,74.7962 94.5948,74.7990 94.5287,74.8453 94.5223,74.8492 94.4384,74.8941 94.4354,74.8956 94.3680,74.9270 94.3516,74.9333 94.2593,74.9613 94.2574,74.9619 94.1917,74.9795 94.1718,74.9831 94.0454,74.9955 94.0073,74.9989 94.0027,74.9993 93.9973,74.9995 66.0027,74.9995 65.9973,74.9993 65.9923,74.9988 65.9546,74.9955 65.8282,74.9831 65.8083,74.9795 65.7426,74.9619 65.7407,74.9613 65.7031,74.9499 65.6484,74.9333 65.6320,74.9270 65.5646,74.8956 65.5616,74.8941 65.4777,74.8492 65.4713,74.8453 65.4052,74.7990 65.4014,74.7962 65.3292,74.7369 65.3247,74.7328 65.2672,74.6753 65.2631,74.6708 65.2038,74.5986 65.2010,74.5948 65.1547,74.5287 65.1508,74.5223 65.1260,74.4760 65.1059,74.4384 65.1044,74.4354 65.0730,74.3680 65.0667,74.3516 65.0387,74.2592 65.0382,74.2574 65.0205,74.1917 65.0169,74.1718 65.0045,74.0454 65.0007,74.0027 65.0005,73.9973 65.0005,72.0000 85.2447,72.0000 85.2638,72.1568 85.3198,72.3045 85.4095,72.4345 85.5278,72.5393 85.5278,72.5393 85.6676,72.6127 85.8210,72.6505 85.8210,72.6505 85.9790,72.6505 86.1324,72.6127 86.2722,72.5393 86.2722,72.5393 86.2722,72.5393 86.3178,72.4989 86.3810,72.4692 86.4503,72.4784 86.4822,72.4989 86.5169,72.5297 86.5278,72.5393 86.6676,72.6127 86.8210,72.6505 86.8210,72.6505 86.9790,72.6505 87.1324,72.6127 87.2722,72.5393 87.2722,72.5393 87.2722,72.5393 87.3178,72.4989 87.3810,72.4692 87.4503,72.4784 87.4822,72.4989 87.5169,72.5297 87.5278,72.5393 87.6676,72.6127 87.8210,72.6505 87.8210,72.6505 87.9790,72.6505 88.1324,72.6127 88.1324,72.6127 88.2722,72.5393 88.3905,72.4345 88.4802,72.3045 88.5362,72.1568 88.5553,72.0000 88.5545,71.9936 88.5362,71.8432 88.5362,71.8432 88.4811,71.6977 88.4757,71.6280 88.4824,71.6063 88.4860,71.5977 88.4860,71.5977 88.5005,71.5247 88.5005,71.2500 91.2500,71.2500 91.2500,71.5478 91.2564,71.6074 91.2564,71.6074 91.3066,71.7421 91.3066,71.7421 91.3928,71.8572 91.3928,71.8572 91.5079,71.9433 91.5079,71.9434 91.6426,71.9936 91.6426,71.9936 91.7022,72.0000 91.7022,72.0000 92.8750,72.0000 92.8750,71.2500 91.2500,71.2500 88.5005,71.2500 88.5005,70.7500 91.2500,70.7500 92.8750,70.7500 92.8750,70.0000 91.7022,70.0000 91.6426,70.0064 91.6426,70.0064 91.5079,70.0566 91.5079,70.0566 91.3928,70.1428 91.3928,70.1428 91.3066,70.2579 91.3066,70.2579 91.2564,70.3926 91.2564,70.3926 91.2500,70.4522 91.2500,70.7500 88.5005,70.7500 88.5005,70.4753 88.5005,70.4753 88.5005,70.4753 88.4860,70.4023 88.4860,70.4023 88.4860,70.4023 88.4306,70.3194 88.3477,70.2640 88.3477,70.2640 88.3477,70.2640 88.2747,70.2495 88.2747,70.2495 85.4753,70.2495 85.4753,70.2495 85.4023,70.2640 85.4023,70.2640 85.3194,70.3194 85.2640,70.4023 85.2640,70.4023 85.2495,70.4753 85.2495,71.5247 85.2640,71.5977 85.2640,71.5977 85.2877,71.6332 85.3086,71.6999 85.3006,71.7461 85.2638,71.8432 85.2447,72.0000 85.2447,72.0000 65.0005,72.0000 65.0005,68.3843 84.4196,68.3843 84.4240,68.4195 84.4245,68.4272 84.4245,68.4311 84.4281,68.4529 84.4285,68.4554 84.4351,68.5086 84.4374,68.5161 84.4399,68.5236 84.4527,68.5472 84.4654,68.5708 84.4666,68.5730 84.4902,68.6212 84.4947,68.6276 84.4996,68.6338 84.5391,68.6702 84.5409,68.6719 85.0978,69.2289 85.1140,69.2487 85.1199,69.2578 85.1479,69.2796 85.1537,69.2847 85.1565,69.2875 85.1744,69.3003 85.1765,69.3019 85.2017,69.3215 85.2425,69.3782 85.2495,69.4193 85.2495,69.5247 85.2640,69.5977 85.2640,69.5977 85.2640,69.5977 85.3194,69.6806 85.4023,69.7360 85.4023,69.7360 85.4753,69.7505 85.4753,69.7505 85.4753,69.7505 88.2747,69.7505 88.2747,69.7505 88.3477,69.7360 88.4306,69.6806 88.4860,69.5977 88.5005,69.5247 88.5005,68.4753 88.5005,68.4753 88.5005,68.4753 88.5005,68.4753 88.4860,68.4023 88.4860,68.4023 88.4668,68.3736 88.4306,68.3194 88.3477,68.2640 88.3477,68.2640 88.3477,68.2640 88.2747,68.2495 88.2747,68.2495 85.4753,68.2495 85.4753,68.2495 85.4023,68.2640 85.4023,68.2640 85.3684,68.2867 85.3017,68.3075 85.2343,68.2891 85.1876,68.2371 85.1755,68.1836 85.1755,67.3069 85.1952,67.2399 85.2118,67.2192 86.6289,65.8021 86.6487,65.7860 86.6578,65.7801 86.6797,65.7521 86.6847,65.7463 86.6875,65.7435 86.7004,65.7255 86.7019,65.7235 86.7348,65.6812 86.7348,65.6812 86.7385,65.6743 86.7420,65.6672 86.7420,65.6672 86.7573,65.6158 86.7581,65.6134 86.7755,65.5627 86.7755,65.5627 86.7768,65.5549 86.7778,65.5471 86.7756,65.4935 86.7755,65.4910 86.7755,64.0922 86.7952,64.0252 86.8173,63.9994 86.8905,63.9345 86.8905,63.9345 86.9802,63.8045 87.0362,63.6568 87.0420,63.6096 87.0696,63.5454 87.1275,63.5063 87.1651,63.5005 88.1255,63.5005 88.1925,63.5202 88.2383,63.5730 88.2495,63.6245 88.2495,64.5247 88.2640,64.5977 88.2640,64.5977 88.2640,64.5977 88.3194,64.6806 88.3923,64.7293 88.4023,64.7360 88.4023,64.7360 88.4753,64.7505 88.4753,64.7505 88.4753,64.7505 89.5247,64.7505 89.5247,64.7505 89.5977,64.7360 89.6806,64.6806 89.7360,64.5977 89.7505,64.5247 89.7505,61.7995 89.7702,61.7325 89.8230,61.6867 89.8745,61.6755 90.1255,61.6755 90.1925,61.6952 90.2383,61.7480 90.2495,61.7995 90.2495,64.5247 90.2640,64.5977 90.2640,64.5977 90.2640,64.5977 90.3194,64.6806 90.3923,64.7293 90.4023,64.7360 90.4023,64.7360 90.4753,64.7505 90.4753,64.7505 90.4753,64.7505 91.5247,64.7505 91.5247,64.7505 91.5977,64.7360 91.6307,64.7139 91.6974,64.6931 91.7572,64.7072 91.7676,64.7127 91.8620,64.7360 91.9210,64.7505 91.9210,64.7505 92.0790,64.7505 92.2324,64.7127 92.2429,64.7072 92.3114,64.6935 92.3764,64.7189 92.4174,64.7756 92.4245,64.8170 92.4245,68.1255 92.4048,68.1925 92.3520,68.2383 92.3005,68.2495 91.7253,68.2495 91.6523,68.2640 91.6523,68.2640 91.5694,68.3194 91.5140,68.4023 91.5140,68.4023 91.4995,68.4753 91.4995,69.5247 91.5140,69.5977 91.5140,69.5977 91.5140,69.5977 91.5694,69.6806 91.6523,69.7360 91.6523,69.7360 91.6523,69.7360 91.7253,69.7505 91.7253,69.7505 91.7253,69.7505 94.5247,69.7505 94.5247,69.7505 94.5977,69.7360 94.6806,69.6806 94.7360,69.5977 94.7505,69.5247 94.7505,68.4753 94.7505,68.4753 94.7505,68.4753 94.7505,68.4753 94.7360,68.4023 94.7360,68.4023 94.7168,68.3736 94.6806,68.3194 94.5977,68.2640 94.5977,68.2640 94.5977,68.2640 94.5247,68.2495 94.5247,68.2495 93.2995,68.2495 93.2325,68.2298 93.1867,68.1770 93.1755,68.1255 93.1755,61.3181 93.1757,61.3130 93.1794,61.2686 93.1684,61.2254 93.1674,61.2204 93.1601,61.1764 93.1599,61.1760 93.1487,61.1475 93.1486,61.1471 93.1486,61.1471 93.1243,61.1098 93.1216,61.1054 93.1004,61.0662 93.1001,61.0659 93.0803,61.0425 93.0801,61.0422 93.0801,61.0422 93.0449,61.0148 93.0410,61.0115 93.0302,61.0015 93.0082,60.9813 93.0078,60.9811 92.9815,60.9654 92.9812,60.9652 92.9390,60.9507 92.9343,60.9489 92.8935,60.9310 92.8934,60.9310 92.8930,60.9309 92.8630,60.9246 92.8627,60.9245 92.8181,60.9245 92.8130,60.9243 92.8039,60.9235 92.7686,60.9206 92.7684,60.9207 92.7682,60.9207 92.7377,60.9245 88.4995,60.9245 88.4325,60.9048 88.3867,60.8520 88.3755,60.8005 88.3755,58.6245 88.3952,58.5575 88.4480,58.5117 88.4995,58.5005 89.5247,58.5005 89.5247,58.5005 89.5977,58.4860 89.6806,58.4306 89.7360,58.3477 89.7505,58.2747 89.7505,57.1250 90.0000,57.1250 90.0000,58.2978 90.0064,58.3574 90.0064,58.3574 90.0566,58.4921 90.0566,58.4921 90.1428,58.6072 90.1428,58.6072 90.2579,58.6933 90.2579,58.6934 90.3926,58.7436 90.3926,58.7436 90.4522,58.7500 90.4522,58.7500 90.7500,58.7500 90.7500,57.1250 91.2500,57.1250 91.2500,58.7500 91.5478,58.7500 91.5478,58.7500 91.6074,58.7436 91.6074,58.7436 91.7421,58.6934 91.7421,58.6933 91.8572,58.6072 91.8572,58.6072 91.9433,58.4921 91.9434,58.4921 91.9936,58.3574 91.9936,58.3574 92.0000,58.2978 92.0000,58.2978 92.0000,57.1250 91.2500,57.1250 90.7500,57.1250 90.0000,57.1250 89.7505,57.1250 89.7505,56.6250 90.0000,56.6250 90.7500,56.6250 90.7500,55.0000 91.2500,55.0000 91.2500,56.6250 92.0000,56.6250 92.0000,55.4522 92.0000,55.4522 91.9936,55.3926 91.9936,55.3926 91.9434,55.2579 91.9433,55.2579 91.8572,55.1428 91.8572,55.1428 91.7421,55.0566 91.7421,55.0566 91.6074,55.0064 91.6074,55.0064 91.5478,55.0000 91.2500,55.0000 90.7500,55.0000 90.4522,55.0000 90.3926,55.0064 90.3926,55.0064 90.2579,55.0566 90.2579,55.0566 90.1428,55.1428 90.1428,55.1428 90.0566,55.2579 90.0566,55.2579 90.0064,55.3926 90.0064,55.3926 90.0000,55.4522 90.0000,56.6250 89.7505,56.6250 89.7505,55.4753 89.7505,55.4753 89.7505,55.4753 89.7360,55.4023 89.7360,55.4023 89.7360,55.4023 89.6806,55.3194 89.5977,55.2640 89.5977,55.2640 89.5977,55.2640 89.5247,55.2495 89.5247,55.2495 88.4753,55.2495 88.4753,55.2495 88.4023,55.2640 88.4023,55.2640 88.3194,55.3194 88.2640,55.4023 88.2640,55.4023 88.2495,55.4753 88.2495,56.3716 88.2298,56.4386 88.1770,56.4844 88.1408,56.4946 88.1055,56.4990 88.0978,56.4995 88.0939,56.4995 88.0721,56.5031 88.0696,56.5035 88.0164,56.5101 88.0089,56.5124 88.0014,56.5149 87.9542,56.5404 87.9520,56.5416 87.9038,56.5652 87.8974,56.5697 87.8912,56.5746 87.8549,56.6140 87.8531,56.6159 87.7711,56.6979 87.7513,56.7140 87.7422,56.7199 87.7422,56.7199 87.7204,56.7479 87.7153,56.7537 87.7125,56.7565 87.7125,56.7565 87.6997,56.7744 87.6981,56.7765 87.6652,56.8188 87.6614,56.8257 87.6580,56.8328 87.6427,56.8842 87.6419,56.8866 87.6245,56.9373 87.6232,56.9451 87.6222,56.9529 87.6244,57.0065 87.6245,57.0090 87.6245,61.1602 87.6048,61.2273 87.5581,61.2700 87.5378,61.2807 87.5378,61.2807 87.4195,61.3855 87.3298,61.5155 87.3298,61.5155 87.2738,61.6632 87.2547,61.8200 87.2547,61.8200 87.2738,61.9768 87.3298,62.1245 87.3298,62.1245 87.4195,62.2545 87.5378,62.3593 87.5378,62.3593 87.6776,62.4327 87.8310,62.4705 87.8310,62.4705 87.9890,62.4705 88.0958,62.4442 88.1656,62.4472 88.2227,62.4876 88.2489,62.5523 88.2495,62.5646 88.2495,62.6255 88.2298,62.6925 88.1770,62.7383 88.1255,62.7495 86.8268,62.7495 86.8014,62.7469 86.7907,62.7446 86.7907,62.7446 86.7555,62.7490 86.7478,62.7495 86.7439,62.7495 86.7221,62.7531 86.7196,62.7535 86.6664,62.7601 86.6589,62.7624 86.6514,62.7649 86.6042,62.7904 86.6020,62.7916 86.5538,62.8152 86.5474,62.8197 86.5428,62.8233 86.5382,62.8251 86.5332,62.8289 86.5330,62.8290 86.5322,62.8275 86.4778,62.8490 86.4666,62.8495 86.3210,62.8495 86.1676,62.8873 86.0278,62.9607 85.9095,63.0655 85.8198,63.1955 85.8198,63.1955 85.7638,63.3432 85.7447,63.5000 85.7447,63.5000 85.7638,63.6568 85.8198,63.8045 85.8198,63.8045 85.9095,63.9345 85.9827,63.9994 86.0199,64.0586 86.0245,64.0922 86.0245,65.2931 86.0048,65.3601 85.9882,65.3808 84.5711,66.7979 84.5513,66.8140 84.5422,66.8199 84.5422,66.8199 84.5204,66.8479 84.5153,66.8537 84.5125,66.8565 84.5125,66.8565 84.4997,66.8744 84.4981,66.8765 84.4652,66.9188 84.4614,66.9257 84.4580,66.9328 84.4427,66.9842 84.4419,66.9866 84.4245,67.0373 84.4232,67.0451 84.4222,67.0529 84.4244,67.1065 84.4245,67.1090 84.4245,68.3482 84.4219,68.3736 84.4196,68.3843 84.4196,68.3843 84.4196,68.3843 65.0005,68.3843 65.0005,60.0000 73.8945,60.0000 73.9143,60.4913 73.9143,60.4913 73.9736,60.9794 74.0720,61.4611 74.2088,61.9334 74.3831,62.3931 74.4934,62.6255 74.5899,62.8290 74.5939,62.8374 74.8397,63.2632 74.8397,63.2632 74.9354,63.4018 75.1115,63.6568 75.1190,63.6678 75.4300,64.0486 75.4300,64.0487 75.7706,64.4033 75.7706,64.4033 76.1386,64.7293 76.2553,64.8170 76.5317,65.0247 76.9473,65.2875 76.9473,65.2875 76.9473,65.2875 77.0558,65.3445 77.3826,65.5160 77.8350,65.7087 78.3014,65.8644 78.7788,65.9821 78.7788,65.9821 78.7788,65.9821 79.2277,66.0550 79.2641,66.0609 79.7542,66.1005 79.7542,66.1005 80.2458,66.1005 80.2458,66.1005 80.7359,66.0609 80.8845,66.0368 81.2212,65.9821 81.2212,65.9821 81.2212,65.9821 81.6986,65.8644 82.1650,65.7087 82.6174,65.5160 83.0527,65.2875 83.4683,65.0247 83.8614,64.7293 83.8614,64.7293 83.8614,64.7293 84.2294,64.4033 84.2294,64.4033 84.2294,64.4033 84.5700,64.0487 84.8810,63.6678 85.1603,63.2632 85.4061,62.8373 85.6169,62.3931 85.7912,61.9334 85.9280,61.4611 86.0264,60.9794 86.0857,60.4913 86.0857,60.4913 86.1055,60.0000 86.1055,60.0000 86.0857,59.5087 86.0857,59.5087 86.0857,59.5087 86.0264,59.0206 85.9280,58.5389 85.8967,58.4306 85.7912,58.0666 85.7143,57.8636 85.6169,57.6069 85.4061,57.1627 85.2760,56.9373 85.1603,56.7368 85.1603,56.7368 85.1445,56.7140 84.8810,56.3322 84.8810,56.3322 84.8809,56.3322 84.5700,55.9513 84.5700,55.9513 84.2294,55.5967 84.2294,55.5967 83.8614,55.2707 83.6648,55.1230 83.4683,54.9753 83.0527,54.7125 83.0527,54.7125 83.0527,54.7125 82.6174,54.4840 82.4398,54.4084 82.1650,54.2913 82.1650,54.2913 82.1650,54.2913 81.9345,54.2144 81.6986,54.1356 81.6986,54.1356 81.6986,54.1356 81.5157,54.0905 81.2212,54.0179 81.2212,54.0179 81.2212,54.0179 81.2212,54.0179 80.7359,53.9391 80.2459,53.8995 80.2458,53.8995 79.7542,53.8995 79.7541,53.8995 79.2641,53.9391 78.7788,54.0179 78.7788,54.0179 78.7788,54.0179 78.7788,54.0179 78.7551,54.0238 78.3014,54.1356 78.3014,54.1356 77.8350,54.2913 77.8350,54.2913 77.8350,54.2913 77.7307,54.3357 77.3826,54.4840 76.9473,54.7125 76.5317,54.9753 76.5317,54.9753 76.1386,55.2707 75.7706,55.5967 75.7706,55.5967 75.4300,55.9513 75.4300,55.9513 75.1190,56.3322 74.8397,56.7368 74.8397,56.7368 74.5939,57.1626 74.3831,57.6069 74.2088,58.0666 74.0720,58.5389 73.9736,59.0206 73.9143,59.5087 73.9143,59.5087 73.8945,60.0000 73.8945,60.0000 65.0005,60.0000 65.0005,46.0027 65.0007,45.9973 65.0045,45.9545 65.0169,45.8282 65.0205,45.8083 65.0382,45.7425 65.0387,45.7408 65.0667,45.6484 65.0729,45.6320 65.1044,45.5646 65.1059,45.5617 65.1508,45.4777 65.1547,45.4713 65.1878,45.4239 65.2010,45.4052 65.2038,45.4014 65.2631,45.3292 65.2672,45.3247 65.3247,45.2672 65.3292,45.2631 65.4014,45.2038 65.4052,45.2010 65.4713,45.1547 65.4777,45.1508 65.5617,45.1059 65.5646,45.1044 65.6320,45.0729 65.6484,45.0667 65.7408,45.0387 65.7425,45.0382 65.8083,45.0205 65.8282,45.0169 65.9418,45.0057 65.9546,45.0045 65.9973,45.0007 66.0027,45.0005 93.9973,45.0005 Z"/> 
</g>
</g>
</g> 
</g><g id="substrate-pads" style="fill:#d39751; stroke:#d39751;" mask="url(#pads-mask)"><g style="fill-opacity: 0.0;stroke-width: 0.0000;stroke-opacity: 1;stroke-linecap: round;stroke-linejoin: round">
<g style="fill-opacity: 1.0000;stroke-width: 0.0000;stroke-opacity: 1;stroke-linecap: round;stroke-linejoin: round">
<path style="fill-opacity: 1.0000;stroke-width: 0.0000;stroke-opacity: 1;stroke-linecap: round;stroke-linejoin: round;fill-rule: evenodd" d="M 91.5000,58.2500 90.5000,58.2500 90.5000,55.5000 91.5000,55.5000 Z"/> 
<path style="fill-opacity: 1.0000;stroke-width: 0.0000;stroke-opacity: 1;stroke-linecap: round;stroke-linejoin: round;fill-rule: evenodd" d="M 91.5000,64.5000 90.5000,64.5000 90.5000,61.7500 91.5000,61.7500 Z"/> 
<path style="fill-opacity: 1.0000;stroke-width: 0.0000;stroke-opacity: 1;stroke-linecap: round;stroke-linejoin: round;fill-rule: evenodd" d="M 89.5000,58.2500 88.5000,58.2500 88.5000,55.5000 89.5000,55.5000 Z"/> 
<path style="fill-opacity: 1.0000;stroke-width: 0.0000;stroke-opacity: 1;stroke-linecap: round;stroke-linejoin: round;fill-rule: evenodd" d="M 89.5000,64.5000 88.5000,64.5000 88.5000,61.7500 89.5000,61.7500 Z"/> 
</g>
<g style="fill-opacity: 1.0000;stroke-width: 0.0000;stroke-opacity: 1;stroke-linecap: round;stroke-linejoin: round">
<path style="fill-opacity: 1.0000;stroke-width: 0.0000;stroke-opacity: 1;stroke-linecap: round;stroke-linejoin: round;fill-rule: evenodd" d="M 91.7500,71.5000 91.7500,70.5000 94.5000,70.5000 94.5000,71.5000 Z"/> 
<path style="fill-opacity: 1.0000;stroke-width: 0.0000;stroke-opacity: 1;stroke-linecap: round;stroke-linejoin: round;fill-rule: evenodd" d="M 85.5000,71.5000 85.5000,70.5000 88.2500,70.5000 88.2500,71.5000 Z"/> 
<path style="fill-opacity: 1.0000;stroke-width: 0.0000;stroke-opacity: 1;stroke-linecap: round;stroke-linejoin: round;fill-rule: evenodd" d="M 91.7500,69.5000 91.7500,68.5000 94.5000,68.5000 94.5000,69.5000 Z"/> 
<path style="fill-opacity: 1.0000;stroke-width: 0.0000;stroke-opacity: 1;stroke-linecap: round;stroke-linejoin: round;fill-rule: evenodd" d="M 85.5000,69.5000 85.5000,68.5000 88.2500,68.5000 88.2500,69.5000 Z"/> 
</g>
<g style="fill-opacity: 1.0000;stroke-width: 0.0000;stroke-opacity: 1;stroke-linecap: round;stroke-linejoin: round">
<circle cx="86.4000" cy="63.5000" r="0.4000"/> 
</g>
<g style="fill-opacity: 1.0000;stroke-width: 0.0000;stroke-opacity: 1;stroke-linecap: round;stroke-linejoin: round">
<circle cx="89.7263" cy="65.1536" r="0.4000"/> 
</g>
<g style="fill-opacity: 1.0000;stroke-width: 0.0000;stroke-opacity: 1;stroke-linecap: round;stroke-linejoin: round">
<circle cx="69.0000" cy="60.4000" r="0.4000"/> 
</g>
<g style="fill-opacity: 1.0000;stroke-width: 0.0000;stroke-opacity: 1;stroke-linecap: round;stroke-linejoin: round">
<circle cx="80.4000" cy="71.0000" r="0.4000"/> 
</g>
<g style="fill-opacity: 1.0000;stroke-width: 0.0000;stroke-opacity: 1;stroke-linecap: round;stroke-linejoin: round">
<circle cx="85.1536" cy="50.2737" r="0.4000"/> 
</g>
<g style="fill-opacity: 1.0000;stroke-width: 0.0000;stroke-opacity: 1;stroke-linecap: round;stroke-linejoin: round">
<circle cx="74.1536" cy="50.6737" r="0.4000"/> 
</g>
<g style="fill-opacity: 1.0000;stroke-width: 0.0000;stroke-opacity: 1;stroke-linecap: round;stroke-linejoin: round">
<circle cx="79.6000" cy="49.0000" r="0.4000"/> 
</g>
<g style="fill-opacity: 1.0000;stroke-width: 0.0000;stroke-opacity: 1;stroke-linecap: round;stroke-linejoin: round">
<circle cx="70.2737" cy="54.8464" r="0.4000"/> 
</g>
<g style="fill-opacity: 1.0000;stroke-width: 0.0000;stroke-opacity: 1;stroke-linecap: round;stroke-linejoin: round">
<circle cx="89.3263" cy="54.1536" r="0.4000"/> 
</g>
<g style="fill-opacity: 1.0000;stroke-width: 0.0000;stroke-opacity: 1;stroke-linecap: round;stroke-linejoin: round">
<circle cx="86.4000" cy="67.8000" r="0.4000"/> 
</g>
<g style="fill-opacity: 1.0000;stroke-width: 0.0000;stroke-opacity: 1;stroke-linecap: round;stroke-linejoin: round">
<circle cx="74.8464" cy="69.7263" r="0.4000"/> 
</g>
<g style="fill-opacity: 1.0000;stroke-width: 0.0000;stroke-opacity: 1;stroke-linecap: round;stroke-linejoin: round">
<circle cx="91.0000" cy="59.6000" r="0.4000"/> 
</g>
<g style="fill-opacity: 1.0000;stroke-width: 0.0000;stroke-opacity: 1;stroke-linecap: round;stroke-linejoin: round">
<circle cx="70.6737" cy="65.8464" r="0.4000"/> 
</g>
<g style="fill-opacity: 1.0000;stroke-width: 0.0000;stroke-opacity: 1;stroke-linecap: round;stroke-linejoin: round">
<circle cx="92.0000" cy="62.1000" r="0.4000"/> 
</g>
<g style="fill-opacity: 1.0000;stroke-width: 0.0000;stroke-opacity: 1;stroke-linecap: round;stroke-linejoin: round">
<circle cx="85.9000" cy="72.0000" r="0.4000"/> 
</g>
<g style="fill-opacity: 1.0000;stroke-width: 0.0000;stroke-opacity: 1;stroke-linecap: round;stroke-linejoin: round">
<circle cx="92.0000" cy="63.1000" r="0.4000"/> 
</g>
<g style="fill-opacity: 1.0000;stroke-width: 0.0000;stroke-opacity: 1;stroke-linecap: round;stroke-linejoin: round">
<circle cx="92.0000" cy="64.1000" r="0.4000"/> 
</g>
<g style="fill-opacity: 1.0000;stroke-width: 0.0000;stroke-opacity: 1;stroke-linecap: round;stroke-linejoin: round">
<circle cx="87.9000" cy="72.0000" r="0.4000"/> 
</g>
<g style="fill-opacity: 1.0000;stroke-width: 0.0000;stroke-opacity: 1;stroke-linecap: round;stroke-linejoin: round">
<circle cx="86.9000" cy="72.0000" r="0.4000"/> 
</g>
<g style="fill-opacity: 1.0000;stroke-width: 0.0000;stroke-opacity: 1;stroke-linecap: round;stroke-linejoin: round">
<circle cx="87.9100" cy="61.8200" r="0.4000"/> 
</g>
<g style="fill-opacity: 0.0;stroke-width: 0.2500;stroke-opacity: 1;stroke-linecap: round;stroke-linejoin: round">
<path d="M86.4000 63.5000 L86.7750 63.1250 "/>
<path d="M86.4000 63.5000 L86.4000 65.5000 "/>
<path d="M86.7750 63.1250 L89.0000 63.1250 "/>
<path d="M86.4000 65.5000 L84.8000 67.1000 "/>
<path d="M84.8000 67.1000 L84.8000 68.4000 "/>
<path d="M84.8000 68.4000 L85.4000 69.0000 "/>
<path d="M85.4000 69.0000 L86.8750 69.0000 "/>
<path d="M91.0000 63.1250 L91.0250 63.1250 "/>
<path d="M86.8750 71.0000 L86.8750 71.0250 "/>
<path d="M86.8750 71.0000 L86.8750 71.9750 "/>
<path d="M91.0000 63.1250 L91.9750 63.1250 "/>
<path d="M91.0000 63.1000 L92.0000 62.1000 "/>
<path d="M86.8750 71.0000 L86.9000 71.0000 "/>
<path d="M86.8750 71.9750 L86.9000 72.0000 "/>
<path d="M86.9000 71.0000 L87.9000 72.0000 "/>
<path d="M86.8750 71.0250 L85.9000 72.0000 "/>
<path d="M91.0000 63.1250 L91.0000 63.1000 "/>
<path d="M91.0250 63.1250 L92.0000 64.1000 "/>
<path d="M91.9750 63.1250 L92.0000 63.1000 "/>
<path d="M88.0000 57.0000 L88.0000 61.7300 "/>
<path d="M92.8000 61.3000 L92.8000 68.6750 "/>
<path d="M88.4300 61.3000 L92.8000 61.3000 "/>
<path d="M92.8000 68.6750 L93.1250 69.0000 "/>
<path d="M88.0000 61.7300 L87.9100 61.8200 "/>
<path d="M89.0000 56.8750 L88.1250 56.8750 "/>
<path d="M88.1250 56.8750 L88.0000 57.0000 "/>
<path d="M87.9100 61.8200 L88.4300 61.3000 "/>
</g>
<g style="fill-opacity: 0.0;stroke-width: 0.2500;stroke-opacity: 1;stroke-linecap: round;stroke-linejoin: round">
<g style="fill-opacity: 1.0000;stroke-width: 0.0000;stroke-opacity: 1;stroke-linecap: round;stroke-linejoin: round">
<path style="fill-opacity: 1.0000;stroke-width: 0.0000;stroke-opacity: 1;stroke-linecap: round;stroke-linejoin: round;fill-rule: evenodd" d="M 94.0027,45.0007 94.0455,45.0045 94.1718,45.0169 94.1917,45.0205 94.2574,45.0382 94.2592,45.0387 94.3516,45.0667 94.3680,45.0730 94.4354,45.1044 94.4384,45.1059 94.4760,45.1260 94.5223,45.1508 94.5287,45.1547 94.5948,45.2010 94.5986,45.2038 94.6708,45.2631 94.6753,45.2672 94.7328,45.3247 94.7369,45.3292 94.7962,45.4014 94.7990,45.4052 94.8453,45.4713 94.8492,45.4777 94.8941,45.5616 94.8956,45.5646 94.9270,45.6320 94.9333,45.6484 94.9613,45.7407 94.9619,45.7426 94.9795,45.8083 94.9831,45.8282 94.9955,45.9546 94.9993,45.9973 94.9995,46.0027 94.9995,70.0016 94.9798,70.0687 94.9270,70.1144 94.8579,70.1244 94.8012,70.1009 94.7421,70.0566 94.7421,70.0566 94.6074,70.0064 94.6074,70.0064 94.5478,70.0000 93.3750,70.0000 93.3750,72.0000 94.5478,72.0000 94.5478,72.0000 94.6074,71.9936 94.6074,71.9936 94.7421,71.9434 94.7421,71.9434 94.8012,71.8991 94.8667,71.8747 94.9349,71.8895 94.9843,71.9389 94.9995,71.9984 94.9995,73.9973 94.9993,74.0027 94.9955,74.0454 94.9831,74.1718 94.9795,74.1917 94.9619,74.2574 94.9613,74.2593 94.9333,74.3516 94.9270,74.3680 94.8956,74.4354 94.8941,74.4384 94.8492,74.5223 94.8453,74.5287 94.7990,74.5948 94.7962,74.5986 94.7369,74.6708 94.7328,74.6753 94.6753,74.7328 94.6708,74.7369 94.5986,74.7962 94.5948,74.7990 94.5287,74.8453 94.5223,74.8492 94.4384,74.8941 94.4354,74.8956 94.3680,74.9270 94.3516,74.9333 94.2593,74.9613 94.2574,74.9619 94.1917,74.9795 94.1718,74.9831 94.0454,74.9955 94.0073,74.9989 94.0027,74.9993 93.9973,74.9995 66.0027,74.9995 65.9973,74.9993 65.9923,74.9988 65.9546,74.9955 65.8282,74.9831 65.8083,74.9795 65.7426,74.9619 65.7407,74.9613 65.7031,74.9499 65.6484,74.9333 65.6320,74.9270 65.5646,74.8956 65.5616,74.8941 65.4777,74.8492 65.4713,74.8453 65.4052,74.7990 65.4014,74.7962 65.3292,74.7369 65.3247,74.7328 65.2672,74.6753 65.2631,74.6708 65.2038,74.5986 65.2010,74.5948 65.1547,74.5287 65.1508,74.5223 65.1260,74.4760 65.1059,74.4384 65.1044,74.4354 65.0730,74.3680 65.0667,74.3516 65.0387,74.2592 65.0382,74.2574 65.0205,74.1917 65.0169,74.1718 65.0045,74.0454 65.0007,74.0027 65.0005,73.9973 65.0005,72.0000 85.2447,72.0000 85.2638,72.1568 85.3198,72.3045 85.4095,72.4345 85.5278,72.5393 85.5278,72.5393 85.6676,72.6127 85.8210,72.6505 85.8210,72.6505 85.9790,72.6505 86.1324,72.6127 86.2722,72.5393 86.2722,72.5393 86.2722,72.5393 86.3178,72.4989 86.3810,72.4692 86.4503,72.4784 86.4822,72.4989 86.5169,72.5297 86.5278,72.5393 86.6676,72.6127 86.8210,72.6505 86.8210,72.6505 86.9790,72.6505 87.1324,72.6127 87.2722,72.5393 87.2722,72.5393 87.2722,72.5393 87.3178,72.4989 87.3810,72.4692 87.4503,72.4784 87.4822,72.4989 87.5169,72.5297 87.5278,72.5393 87.6676,72.6127 87.8210,72.6505 87.8210,72.6505 87.9790,72.6505 88.1324,72.6127 88.1324,72.6127 88.2722,72.5393 88.3905,72.4345 88.4802,72.3045 88.5362,72.1568 88.5553,72.0000 88.5545,71.9936 88.5362,71.8432 88.5362,71.8432 88.4811,71.6977 88.4757,71.6280 88.4824,71.6063 88.4860,71.5977 88.4860,71.5977 88.5005,71.5247 88.5005,71.2500 91.2500,71.2500 91.2500,71.5478 91.2564,71.6074 91.2564,71.6074 91.3066,71.7421 91.3066,71.7421 91.3928,71.8572 91.3928,71.8572 91.5079,71.9433 91.5079,71.9434 91.6426,71.9936 91.6426,71.9936 91.7022,72.0000 91.7022,72.0000 92.8750,72.0000 92.8750,71.2500 91.2500,71.2500 88.5005,71.2500 88.5005,70.7500 91.2500,70.7500 92.8750,70.7500 92.8750,70.0000 91.7022,70.0000 91.6426,70.0064 91.6426,70.0064 91.5079,70.0566 91.5079,70.0566 91.3928,70.1428 91.3928,70.1428 91.3066,70.2579 91.3066,70.2579 91.2564,70.3926 91.2564,70.3926 91.2500,70.4522 91.2500,70.7500 88.5005,70.7500 88.5005,70.4753 88.5005,70.4753 88.5005,70.4753 88.4860,70.4023 88.4860,70.4023 88.4860,70.4023 88.4306,70.3194 88.3477,70.2640 88.3477,70.2640 88.3477,70.2640 88.2747,70.2495 88.2747,70.2495 85.4753,70.2495 85.4753,70.2495 85.4023,70.2640 85.4023,70.2640 85.3194,70.3194 85.2640,70.4023 85.2640,70.4023 85.2495,70.4753 85.2495,71.5247 85.2640,71.5977 85.2640,71.5977 85.2877,71.6332 85.3086,71.6999 85.3006,71.7461 85.2638,71.8432 85.2447,72.0000 85.2447,72.0000 65.0005,72.0000 65.0005,68.3843 84.4196,68.3843 84.4240,68.4195 84.4245,68.4272 84.4245,68.4311 84.4281,68.4529 84.4285,68.4554 84.4351,68.5086 84.4374,68.5161 84.4399,68.5236 84.4527,68.5472 84.4654,68.5708 84.4666,68.5730 84.4902,68.6212 84.4947,68.6276 84.4996,68.6338 84.5391,68.6702 84.5409,68.6719 85.0978,69.2289 85.1140,69.2487 85.1199,69.2578 85.1479,69.2796 85.1537,69.2847 85.1565,69.2875 85.1744,69.3003 85.1765,69.3019 85.2017,69.3215 85.2425,69.3782 85.2495,69.4193 85.2495,69.5247 85.2640,69.5977 85.2640,69.5977 85.2640,69.5977 85.3194,69.6806 85.4023,69.7360 85.4023,69.7360 85.4753,69.7505 85.4753,69.7505 85.4753,69.7505 88.2747,69.7505 88.2747,69.7505 88.3477,69.7360 88.4306,69.6806 88.4860,69.5977 88.5005,69.5247 88.5005,68.4753 88.5005,68.4753 88.5005,68.4753 88.5005,68.4753 88.4860,68.4023 88.4860,68.4023 88.4668,68.3736 88.4306,68.3194 88.3477,68.2640 88.3477,68.2640 88.3477,68.2640 88.2747,68.2495 88.2747,68.2495 85.4753,68.2495 85.4753,68.2495 85.4023,68.2640 85.4023,68.2640 85.3684,68.2867 85.3017,68.3075 85.2343,68.2891 85.1876,68.2371 85.1755,68.1836 85.1755,67.3069 85.1952,67.2399 85.2118,67.2192 86.6289,65.8021 86.6487,65.7860 86.6578,65.7801 86.6797,65.7521 86.6847,65.7463 86.6875,65.7435 86.7004,65.7255 86.7019,65.7235 86.7348,65.6812 86.7348,65.6812 86.7385,65.6743 86.7420,65.6672 86.7420,65.6672 86.7573,65.6158 86.7581,65.6134 86.7755,65.5627 86.7755,65.5627 86.7768,65.5549 86.7778,65.5471 86.7756,65.4935 86.7755,65.4910 86.7755,64.0922 86.7952,64.0252 86.8173,63.9994 86.8905,63.9345 86.8905,63.9345 86.9802,63.8045 87.0362,63.6568 87.0420,63.6096 87.0696,63.5454 87.1275,63.5063 87.1651,63.5005 88.1255,63.5005 88.1925,63.5202 88.2383,63.5730 88.2495,63.6245 88.2495,64.5247 88.2640,64.5977 88.2640,64.5977 88.2640,64.5977 88.3194,64.6806 88.3923,64.7293 88.4023,64.7360 88.4023,64.7360 88.4753,64.7505 88.4753,64.7505 88.4753,64.7505 89.5247,64.7505 89.5247,64.7505 89.5977,64.7360 89.6806,64.6806 89.7360,64.5977 89.7505,64.5247 89.7505,61.7995 89.7702,61.7325 89.8230,61.6867 89.8745,61.6755 90.1255,61.6755 90.1925,61.6952 90.2383,61.7480 90.2495,61.7995 90.2495,64.5247 90.2640,64.5977 90.2640,64.5977 90.2640,64.5977 90.3194,64.6806 90.3923,64.7293 90.4023,64.7360 90.4023,64.7360 90.4753,64.7505 90.4753,64.7505 90.4753,64.7505 91.5247,64.7505 91.5247,64.7505 91.5977,64.7360 91.6307,64.7139 91.6974,64.6931 91.7572,64.7072 91.7676,64.7127 91.8620,64.7360 91.9210,64.7505 91.9210,64.7505 92.0790,64.7505 92.2324,64.7127 92.2429,64.7072 92.3114,64.6935 92.3764,64.7189 92.4174,64.7756 92.4245,64.8170 92.4245,68.1255 92.4048,68.1925 92.3520,68.2383 92.3005,68.2495 91.7253,68.2495 91.6523,68.2640 91.6523,68.2640 91.5694,68.3194 91.5140,68.4023 91.5140,68.4023 91.4995,68.4753 91.4995,69.5247 91.5140,69.5977 91.5140,69.5977 91.5140,69.5977 91.5694,69.6806 91.6523,69.7360 91.6523,69.7360 91.6523,69.7360 91.7253,69.7505 91.7253,69.7505 91.7253,69.7505 94.5247,69.7505 94.5247,69.7505 94.5977,69.7360 94.6806,69.6806 94.7360,69.5977 94.7505,69.5247 94.7505,68.4753 94.7505,68.4753 94.7505,68.4753 94.7505,68.4753 94.7360,68.4023 94.7360,68.4023 94.7168,68.3736 94.6806,68.3194 94.5977,68.2640 94.5977,68.2640 94.5977,68.2640 94.5247,68.2495 94.5247,68.2495 93.2995,68.2495 93.2325,68.2298 93.1867,68.1770 93.1755,68.1255 93.1755,61.3181 93.1757,61.3130 93.1794,61.2686 93.1684,61.2254 93.1674,61.2204 93.1601,61.1764 93.1599,61.1760 93.1487,61.1475 93.1486,61.1471 93.1486,61.1471 93.1243,61.1098 93.1216,61.1054 93.1004,61.0662 93.1001,61.0659 93.0803,61.0425 93.0801,61.0422 93.0801,61.0422 93.0449,61.0148 93.0410,61.0115 93.0302,61.0015 93.0082,60.9813 93.0078,60.9811 92.9815,60.9654 92.9812,60.9652 92.9390,60.9507 92.9343,60.9489 92.8935,60.9310 92.8934,60.9310 92.8930,60.9309 92.8630,60.9246 92.8627,60.9245 92.8181,60.9245 92.8130,60.9243 92.8039,60.9235 92.7686,60.9206 92.7684,60.9207 92.7682,60.9207 92.7377,60.9245 88.4995,60.9245 88.4325,60.9048 88.3867,60.8520 88.3755,60.8005 88.3755,58.6245 88.3952,58.5575 88.4480,58.5117 88.4995,58.5005 89.5247,58.5005 89.5247,58.5005 89.5977,58.4860 89.6806,58.4306 89.7360,58.3477 89.7505,58.2747 89.7505,57.1250 90.0000,57.1250 90.0000,58.2978 90.0064,58.3574 90.0064,58.3574 90.0566,58.4921 90.0566,58.4921 90.1428,58.6072 90.1428,58.6072 90.2579,58.6933 90.2579,58.6934 90.3926,58.7436 90.3926,58.7436 90.4522,58.7500 90.4522,58.7500 90.7500,58.7500 90.7500,57.1250 91.2500,57.1250 91.2500,58.7500 91.5478,58.7500 91.5478,58.7500 91.6074,58.7436 91.6074,58.7436 91.7421,58.6934 91.7421,58.6933 91.8572,58.6072 91.8572,58.6072 91.9433,58.4921 91.9434,58.4921 91.9936,58.3574 91.9936,58.3574 92.0000,58.2978 92.0000,58.2978 92.0000,57.1250 91.2500,57.1250 90.7500,57.1250 90.0000,57.1250 89.7505,57.1250 89.7505,56.6250 90.0000,56.6250 90.7500,56.6250 90.7500,55.0000 91.2500,55.0000 91.2500,56.6250 92.0000,56.6250 92.0000,55.4522 92.0000,55.4522 91.9936,55.3926 91.9936,55.3926 91.9434,55.2579 91.9433,55.2579 91.8572,55.1428 91.8572,55.1428 91.7421,55.0566 91.7421,55.0566 91.6074,55.0064 91.6074,55.0064 91.5478,55.0000 91.2500,55.0000 90.7500,55.0000 90.4522,55.0000 90.3926,55.0064 90.3926,55.0064 90.2579,55.0566 90.2579,55.0566 90.1428,55.1428 90.1428,55.1428 90.0566,55.2579 90.0566,55.2579 90.0064,55.3926 90.0064,55.3926 90.0000,55.4522 90.0000,56.6250 89.7505,56.6250 89.7505,55.4753 89.7505,55.4753 89.7505,55.4753 89.7360,55.4023 89.7360,55.4023 89.7360,55.4023 89.6806,55.3194 89.5977,55.2640 89.5977,55.2640 89.5977,55.2640 89.5247,55.2495 89.5247,55.2495 88.4753,55.2495 88.4753,55.2495 88.4023,55.2640 88.4023,55.2640 88.3194,55.3194 88.2640,55.4023 88.2640,55.4023 88.2495,55.4753 88.2495,56.3716 88.2298,56.4386 88.1770,56.4844 88.1408,56.4946 88.1055,56.4990 88.0978,56.4995 88.0939,56.4995 88.0721,56.5031 88.0696,56.5035 88.0164,56.5101 88.0089,56.5124 88.0014,56.5149 87.9542,56.5404 87.9520,56.5416 87.9038,56.5652 87.8974,56.5697 87.8912,56.5746 87.8549,56.6140 87.8531,56.6159 87.7711,56.6979 87.7513,56.7140 87.7422,56.7199 87.7422,56.7199 87.7204,56.7479 87.7153,56.7537 87.7125,56.7565 87.7125,56.7565 87.6997,56.7744 87.6981,56.7765 87.6652,56.8188 87.6614,56.8257 87.6580,56.8328 87.6427,56.8842 87.6419,56.8866 87.6245,56.9373 87.6232,56.9451 87.6222,56.9529 87.6244,57.0065 87.6245,57.0090 87.6245,61.1602 87.6048,61.2273 87.5581,61.2700 87.5378,61.2807 87.5378,61.2807 87.4195,61.3855 87.3298,61.5155 87.3298,61.5155 87.2738,61.6632 87.2547,61.8200 87.2547,61.8200 87.2738,61.9768 87.3298,62.1245 87.3298,62.1245 87.4195,62.2545 87.5378,62.3593 87.5378,62.3593 87.6776,62.4327 87.8310,62.4705 87.8310,62.4705 87.9890,62.4705 88.0958,62.4442 88.1656,62.4472 88.2227,62.4876 88.2489,62.5523 88.2495,62.5646 88.2495,62.6255 88.2298,62.6925 88.1770,62.7383 88.1255,62.7495 86.8268,62.7495 86.8014,62.7469 86.7907,62.7446 86.7907,62.7446 86.7555,62.7490 86.7478,62.7495 86.7439,62.7495 86.7221,62.7531 86.7196,62.7535 86.6664,62.7601 86.6589,62.7624 86.6514,62.7649 86.6042,62.7904 86.6020,62.7916 86.5538,62.8152 86.5474,62.8197 86.5428,62.8233 86.5382,62.8251 86.5332,62.8289 86.5330,62.8290 86.5322,62.8275 86.4778,62.8490 86.4666,62.8495 86.3210,62.8495 86.1676,62.8873 86.0278,62.9607 85.9095,63.0655 85.8198,63.1955 85.8198,63.1955 85.7638,63.3432 85.7447,63.5000 85.7447,63.5000 85.7638,63.6568 85.8198,63.8045 85.8198,63.8045 85.9095,63.9345 85.9827,63.9994 86.0199,64.0586 86.0245,64.0922 86.0245,65.2931 86.0048,65.3601 85.9882,65.3808 84.5711,66.7979 84.5513,66.8140 84.5422,66.8199 84.5422,66.8199 84.5204,66.8479 84.5153,66.8537 84.5125,66.8565 84.5125,66.8565 84.4997,66.8744 84.4981,66.8765 84.4652,66.9188 84.4614,66.9257 84.4580,66.9328 84.4427,66.9842 84.4419,66.9866 84.4245,67.0373 84.4232,67.0451 84.4222,67.0529 84.4244,67.1065 84.4245,67.1090 84.4245,68.3482 84.4219,68.3736 84.4196,68.3843 84.4196,68.3843 84.4196,68.3843 65.0005,68.3843 65.0005,60.0000 73.8945,60.0000 73.9143,60.4913 73.9143,60.4913 73.9736,60.9794 74.0720,61.4611 74.2088,61.9334 74.3831,62.3931 74.4934,62.6255 74.5899,62.8290 74.5939,62.8374 74.8397,63.2632 74.8397,63.2632 74.9354,63.4018 75.1115,63.6568 75.1190,63.6678 75.4300,64.0486 75.4300,64.0487 75.7706,64.4033 75.7706,64.4033 76.1386,64.7293 76.2553,64.8170 76.5317,65.0247 76.9473,65.2875 76.9473,65.2875 76.9473,65.2875 77.0558,65.3445 77.3826,65.5160 77.8350,65.7087 78.3014,65.8644 78.7788,65.9821 78.7788,65.9821 78.7788,65.9821 79.2277,66.0550 79.2641,66.0609 79.7542,66.1005 79.7542,66.1005 80.2458,66.1005 80.2458,66.1005 80.7359,66.0609 80.8845,66.0368 81.2212,65.9821 81.2212,65.9821 81.2212,65.9821 81.6986,65.8644 82.1650,65.7087 82.6174,65.5160 83.0527,65.2875 83.4683,65.0247 83.8614,64.7293 83.8614,64.7293 83.8614,64.7293 84.2294,64.4033 84.2294,64.4033 84.2294,64.4033 84.5700,64.0487 84.8810,63.6678 85.1603,63.2632 85.4061,62.8373 85.6169,62.3931 85.7912,61.9334 85.9280,61.4611 86.0264,60.9794 86.0857,60.4913 86.0857,60.4913 86.1055,60.0000 86.1055,60.0000 86.0857,59.5087 86.0857,59.5087 86.0857,59.5087 86.0264,59.0206 85.9280,58.5389 85.8967,58.4306 85.7912,58.0666 85.7143,57.8636 85.6169,57.6069 85.4061,57.1627 85.2760,56.9373 85.1603,56.7368 85.1603,56.7368 85.1445,56.7140 84.8810,56.3322 84.8810,56.3322 84.8809,56.3322 84.5700,55.9513 84.5700,55.9513 84.2294,55.5967 84.2294,55.5967 83.8614,55.2707 83.6648,55.1230 83.4683,54.9753 83.0527,54.7125 83.0527,54.7125 83.0527,54.7125 82.6174,54.4840 82.4398,54.4084 82.1650,54.2913 82.1650,54.2913 82.1650,54.2913 81.9345,54.2144 81.6986,54.1356 81.6986,54.1356 81.6986,54.1356 81.5157,54.0905 81.2212,54.0179 81.2212,54.0179 81.2212,54.0179 81.2212,54.0179 80.7359,53.9391 80.2459,53.8995 80.2458,53.8995 79.7542,53.8995 79.7541,53.8995 79.2641,53.9391 78.7788,54.0179 78.7788,54.0179 78.7788,54.0179 78.7788,54.0179 78.7551,54.0238 78.3014,54.1356 78.3014,54.1356 77.8350,54.2913 77.8350,54.2913 77.8350,54.2913 77.7307,54.3357 77.3826,54.4840 76.9473,54.7125 76.5317,54.9753 76.5317,54.9753 76.1386,55.2707 75.7706,55.5967 75.7706,55.5967 75.4300,55.9513 75.4300,55.9513 75.1190,56.3322 74.8397,56.7368 74.8397,56.7368 74.5939,57.1626 74.3831,57.6069 74.2088,58.0666 74.0720,58.5389 73.9736,59.0206 73.9143,59.5087 73.9143,59.5087 73.8945,60.0000 73.8945,60.0000 65.0005,60.0000 65.0005,46.0027 65.0007,45.9973 65.0045,45.9545 65.0169,45.8282 65.0205,45.8083 65.0382,45.7425 65.0387,45.7408 65.0667,45.6484 65.0729,45.6320 65.1044,45.5646 65.1059,45.5617 65.1508,45.4777 65.1547,45.4713 65.1878,45.4239 65.2010,45.4052 65.2038,45.4014 65.2631,45.3292 65.2672,45.3247 65.3247,45.2672 65.3292,45.2631 65.4014,45.2038 65.4052,45.2010 65.4713,45.1547 65.4777,45.1508 65.5617,45.1059 65.5646,45.1044 65.6320,45.0729 65.6484,45.0667 65.7408,45.0387 65.7425,45.0382 65.8083,45.0205 65.8282,45.0169 65.9418,45.0057 65.9546,45.0045 65.9973,45.0007 66.0027,45.0005 93.9973,45.0005 Z"/> 
</g>
</g>
</g> 
</g><g id="substrate-silk" style="fill:#d5dce4; stroke:#d5dce4;" mask="url(#pads-mask-silkscreen)"><g style="fill-opacity: 0.0;stroke-width: 0.1000;stroke-opacity: 1;stroke-linecap: round;stroke-linejoin: round">
<circle cx="80.0000" cy="60.0000" r="7.0500"/> 
</g>
<g style="fill-opacity: 0.0;stroke-width: 0.1250;stroke-opacity: 1;stroke-linecap: round;stroke-linejoin: round">
<text x="80.0000" y="73.4000" transform="scale(-1 1) translate(-160.000000 0)" textLength="4.2363" font-size="0.6667" lengthAdjust="spacingAndGlyphs" text-anchor="middle" opacity="0">PCB: 1.0.0</text>
<g class="stroked-text"><desc>PCB: 1.0.0</desc>
<path d="M81.8929 73.3323 L81.8929 72.8323 "/>
<path d="M81.8929 72.8323 L81.7024 72.8323 "/>
<path d="M81.7024 72.8323 L81.6548 72.8561 "/>
<path d="M81.6548 72.8561 L81.6309 72.8799 "/>
<path d="M81.6309 72.8799 L81.6071 72.9275 "/>
<path d="M81.6071 72.9275 L81.6071 72.9990 "/>
<path d="M81.6071 72.9990 L81.6309 73.0466 "/>
<path d="M81.6309 73.0466 L81.6548 73.0704 "/>
<path d="M81.6548 73.0704 L81.7024 73.0942 "/>
<path d="M81.7024 73.0942 L81.8929 73.0942 "/>
<path d="M81.1071 73.2847 L81.1309 73.3085 "/>
<path d="M81.1309 73.3085 L81.2024 73.3323 "/>
<path d="M81.2024 73.3323 L81.2500 73.3323 "/>
<path d="M81.2500 73.3323 L81.3214 73.3085 "/>
<path d="M81.3214 73.3085 L81.3690 73.2609 "/>
<path d="M81.3690 73.2609 L81.3929 73.2133 "/>
<path d="M81.3929 73.2133 L81.4167 73.1180 "/>
<path d="M81.4167 73.1180 L81.4167 73.0466 "/>
<path d="M81.4167 73.0466 L81.3929 72.9514 "/>
<path d="M81.3929 72.9514 L81.3690 72.9037 "/>
<path d="M81.3690 72.9037 L81.3214 72.8561 "/>
<path d="M81.3214 72.8561 L81.2500 72.8323 "/>
<path d="M81.2500 72.8323 L81.2024 72.8323 "/>
<path d="M81.2024 72.8323 L81.1309 72.8561 "/>
<path d="M81.1309 72.8561 L81.1071 72.8799 "/>
<path d="M80.7262 73.0704 L80.6548 73.0942 "/>
<path d="M80.6548 73.0942 L80.6309 73.1180 "/>
<path d="M80.6309 73.1180 L80.6071 73.1656 "/>
<path d="M80.6071 73.1656 L80.6071 73.2371 "/>
<path d="M80.6071 73.2371 L80.6309 73.2847 "/>
<path d="M80.6309 73.2847 L80.6548 73.3085 "/>
<path d="M80.6548 73.3085 L80.7024 73.3323 "/>
<path d="M80.7024 73.3323 L80.8929 73.3323 "/>
<path d="M80.8929 73.3323 L80.8929 72.8323 "/>
<path d="M80.8929 72.8323 L80.7262 72.8323 "/>
<path d="M80.7262 72.8323 L80.6786 72.8561 "/>
<path d="M80.6786 72.8561 L80.6548 72.8799 "/>
<path d="M80.6548 72.8799 L80.6309 72.9275 "/>
<path d="M80.6309 72.9275 L80.6309 72.9752 "/>
<path d="M80.6309 72.9752 L80.6548 73.0228 "/>
<path d="M80.6548 73.0228 L80.6786 73.0466 "/>
<path d="M80.6786 73.0466 L80.7262 73.0704 "/>
<path d="M80.7262 73.0704 L80.8929 73.0704 "/>
<path d="M80.3929 73.2847 L80.3690 73.3085 "/>
<path d="M80.3690 73.3085 L80.3929 73.3323 "/>
<path d="M80.3929 73.3323 L80.4167 73.3085 "/>
<path d="M80.4167 73.3085 L80.3929 73.2847 "/>
<path d="M80.3929 73.2847 L80.3929 73.3323 "/>
<path d="M80.3929 73.0228 L80.3690 73.0466 "/>
<path d="M80.3690 73.0466 L80.3929 73.0704 "/>
<path d="M80.3929 73.0704 L80.4167 73.0466 "/>
<path d="M80.4167 73.0466 L80.3929 73.0228 "/>
<path d="M80.3929 73.0228 L80.3929 73.0704 "/>
<path d="M79.5119 73.3323 L79.7976 73.3323 "/>
<path d="M79.6548 73.3323 L79.6548 72.8323 "/>
<path d="M79.6548 72.8323 L79.7024 72.9037 "/>
<path d="M79.7024 72.9037 L79.7500 72.9514 "/>
<path d="M79.7500 72.9514 L79.7976 72.9752 "/>
<path d="M79.2976 73.2847 L79.2738 73.3085 "/>
<path d="M79.2738 73.3085 L79.2976 73.3323 "/>
<path d="M79.2976 73.3323 L79.3214 73.3085 "/>
<path d="M79.3214 73.3085 L79.2976 73.2847 "/>
<path d="M79.2976 73.2847 L79.2976 73.3323 "/>
<path d="M78.9643 72.8323 L78.9167 72.8323 "/>
<path d="M78.9167 72.8323 L78.8690 72.8561 "/>
<path d="M78.8690 72.8561 L78.8452 72.8799 "/>
<path d="M78.8452 72.8799 L78.8214 72.9275 "/>
<path d="M78.8214 72.9275 L78.7976 73.0228 "/>
<path d="M78.7976 73.0228 L78.7976 73.1418 "/>
<path d="M78.7976 73.1418 L78.8214 73.2371 "/>
<path d="M78.8214 73.2371 L78.8452 73.2847 "/>
<path d="M78.8452 73.2847 L78.8690 73.3085 "/>
<path d="M78.8690 73.3085 L78.9167 73.3323 "/>
<path d="M78.9167 73.3323 L78.9643 73.3323 "/>
<path d="M78.9643 73.3323 L79.0119 73.3085 "/>
<path d="M79.0119 73.3085 L79.0357 73.2847 "/>
<path d="M79.0357 73.2847 L79.0595 73.2371 "/>
<path d="M79.0595 73.2371 L79.0833 73.1418 "/>
<path d="M79.0833 73.1418 L79.0833 73.0228 "/>
<path d="M79.0833 73.0228 L79.0595 72.9275 "/>
<path d="M79.0595 72.9275 L79.0357 72.8799 "/>
<path d="M79.0357 72.8799 L79.0119 72.8561 "/>
<path d="M79.0119 72.8561 L78.9643 72.8323 "/>
<path d="M78.5833 73.2847 L78.5595 73.3085 "/>
<path d="M78.5595 73.3085 L78.5833 73.3323 "/>
<path d="M78.5833 73.3323 L78.6071 73.3085 "/>
<path d="M78.6071 73.3085 L78.5833 73.2847 "/>
<path d="M78.5833 73.2847 L78.5833 73.3323 "/>
<path d="M78.2500 72.8323 L78.2024 72.8323 "/>
<path d="M78.2024 72.8323 L78.1548 72.8561 "/>
<path d="M78.1548 72.8561 L78.1310 72.8799 "/>
<path d="M78.1310 72.8799 L78.1071 72.9275 "/>
<path d="M78.1071 72.9275 L78.0833 73.0228 "/>
<path d="M78.0833 73.0228 L78.0833 73.1418 "/>
<path d="M78.0833 73.1418 L78.1071 73.2371 "/>
<path d="M78.1071 73.2371 L78.1310 73.2847 "/>
<path d="M78.1310 73.2847 L78.1548 73.3085 "/>
<path d="M78.1548 73.3085 L78.2024 73.3323 "/>
<path d="M78.2024 73.3323 L78.2500 73.3323 "/>
<path d="M78.2500 73.3323 L78.2976 73.3085 "/>
<path d="M78.2976 73.3085 L78.3214 73.2847 "/>
<path d="M78.3214 73.2847 L78.3452 73.2371 "/>
<path d="M78.3452 73.2371 L78.3690 73.1418 "/>
<path d="M78.3690 73.1418 L78.3690 73.0228 "/>
<path d="M78.3690 73.0228 L78.3452 72.9275 "/>
<path d="M78.3452 72.9275 L78.3214 72.8799 "/>
<path d="M78.3214 72.8799 L78.2976 72.8561 "/>
<path d="M78.2976 72.8561 L78.2500 72.8323 "/>
</g></g>
<g style="fill-opacity: 0.0;stroke-width: 0.1500;stroke-opacity: 1;stroke-linecap: round;stroke-linejoin: round">
<text x="79.8000" y="47.1925" transform="scale(-1 1) translate(-159.600000 0)" textLength="12.1893" font-size="1.0000" lengthAdjust="spacingAndGlyphs" text-anchor="middle" opacity="0">Pedalboard LED Ring</text>
<g class="stroked-text"><desc>Pedalboard LED Ring</desc>
<path d="M85.6036 47.0929 L85.6036 46.3429 "/>
<path d="M85.6036 46.3429 L85.3179 46.3429 "/>
<path d="M85.3179 46.3429 L85.2464 46.3786 "/>
<path d="M85.2464 46.3786 L85.2107 46.4143 "/>
<path d="M85.2107 46.4143 L85.1750 46.4858 "/>
<path d="M85.1750 46.4858 L85.1750 46.5929 "/>
<path d="M85.1750 46.5929 L85.2107 46.6643 "/>
<path d="M85.2107 46.6643 L85.2464 46.7001 "/>
<path d="M85.2464 46.7001 L85.3179 46.7358 "/>
<path d="M85.3179 46.7358 L85.6036 46.7358 "/>
<path d="M84.5679 47.0572 L84.6393 47.0929 "/>
<path d="M84.6393 47.0929 L84.7821 47.0929 "/>
<path d="M84.7821 47.0929 L84.8536 47.0572 "/>
<path d="M84.8536 47.0572 L84.8893 46.9858 "/>
<path d="M84.8893 46.9858 L84.8893 46.7001 "/>
<path d="M84.8893 46.7001 L84.8536 46.6286 "/>
<path d="M84.8536 46.6286 L84.7821 46.5929 "/>
<path d="M84.7821 46.5929 L84.6393 46.5929 "/>
<path d="M84.6393 46.5929 L84.5679 46.6286 "/>
<path d="M84.5679 46.6286 L84.5321 46.7001 "/>
<path d="M84.5321 46.7001 L84.5321 46.7715 "/>
<path d="M84.5321 46.7715 L84.8893 46.8429 "/>
<path d="M83.8893 47.0929 L83.8893 46.3429 "/>
<path d="M83.8893 47.0572 L83.9607 47.0929 "/>
<path d="M83.9607 47.0929 L84.1036 47.0929 "/>
<path d="M84.1036 47.0929 L84.1750 47.0572 "/>
<path d="M84.1750 47.0572 L84.2107 47.0215 "/>
<path d="M84.2107 47.0215 L84.2464 46.9501 "/>
<path d="M84.2464 46.9501 L84.2464 46.7358 "/>
<path d="M84.2464 46.7358 L84.2107 46.6643 "/>
<path d="M84.2107 46.6643 L84.1750 46.6286 "/>
<path d="M84.1750 46.6286 L84.1036 46.5929 "/>
<path d="M84.1036 46.5929 L83.9607 46.5929 "/>
<path d="M83.9607 46.5929 L83.8893 46.6286 "/>
<path d="M83.2107 47.0929 L83.2107 46.7001 "/>
<path d="M83.2107 46.7001 L83.2464 46.6286 "/>
<path d="M83.2464 46.6286 L83.3179 46.5929 "/>
<path d="M83.3179 46.5929 L83.4607 46.5929 "/>
<path d="M83.4607 46.5929 L83.5321 46.6286 "/>
<path d="M83.2107 47.0572 L83.2821 47.0929 "/>
<path d="M83.2821 47.0929 L83.4607 47.0929 "/>
<path d="M83.4607 47.0929 L83.5321 47.0572 "/>
<path d="M83.5321 47.0572 L83.5679 46.9858 "/>
<path d="M83.5679 46.9858 L83.5679 46.9143 "/>
<path d="M83.5679 46.9143 L83.5321 46.8429 "/>
<path d="M83.5321 46.8429 L83.4607 46.8072 "/>
<path d="M83.4607 46.8072 L83.2821 46.8072 "/>
<path d="M83.2821 46.8072 L83.2107 46.7715 "/>
<path d="M82.7464 47.0929 L82.8179 47.0572 "/>
<path d="M82.8179 47.0572 L82.8536 46.9858 "/>
<path d="M82.8536 46.9858 L82.8536 46.3429 "/>
<path d="M82.4607 47.0929 L82.4607 46.3429 "/>
<path d="M82.4607 46.6286 L82.3893 46.5929 "/>
<path d="M82.3893 46.5929 L82.2464 46.5929 "/>
<path d="M82.2464 46.5929 L82.1750 46.6286 "/>
<path d="M82.1750 46.6286 L82.1393 46.6643 "/>
<path d="M82.1393 46.6643 L82.1036 46.7358 "/>
<path d="M82.1036 46.7358 L82.1036 46.9501 "/>
<path d="M82.1036 46.9501 L82.1393 47.0215 "/>
<path d="M82.1393 47.0215 L82.1750 47.0572 "/>
<path d="M82.1750 47.0572 L82.2464 47.0929 "/>
<path d="M82.2464 47.0929 L82.3893 47.0929 "/>
<path d="M82.3893 47.0929 L82.4607 47.0572 "/>
<path d="M81.6750 47.0929 L81.7464 47.0572 "/>
<path d="M81.7464 47.0572 L81.7821 47.0215 "/>
<path d="M81.7821 47.0215 L81.8179 46.9501 "/>
<path d="M81.8179 46.9501 L81.8179 46.7358 "/>
<path d="M81.8179 46.7358 L81.7821 46.6643 "/>
<path d="M81.7821 46.6643 L81.7464 46.6286 "/>
<path d="M81.7464 46.6286 L81.6750 46.5929 "/>
<path d="M81.6750 46.5929 L81.5679 46.5929 "/>
<path d="M81.5679 46.5929 L81.4964 46.6286 "/>
<path d="M81.4964 46.6286 L81.4607 46.6643 "/>
<path d="M81.4607 46.6643 L81.4250 46.7358 "/>
<path d="M81.4250 46.7358 L81.4250 46.9501 "/>
<path d="M81.4250 46.9501 L81.4607 47.0215 "/>
<path d="M81.4607 47.0215 L81.4964 47.0572 "/>
<path d="M81.4964 47.0572 L81.5679 47.0929 "/>
<path d="M81.5679 47.0929 L81.6750 47.0929 "/>
<path d="M80.7821 47.0929 L80.7821 46.7001 "/>
<path d="M80.7821 46.7001 L80.8179 46.6286 "/>
<path d="M80.8179 46.6286 L80.8893 46.5929 "/>
<path d="M80.8893 46.5929 L81.0321 46.5929 "/>
<path d="M81.0321 46.5929 L81.1036 46.6286 "/>
<path d="M80.7821 47.0572 L80.8536 47.0929 "/>
<path d="M80.8536 47.0929 L81.0321 47.0929 "/>
<path d="M81.0321 47.0929 L81.1036 47.0572 "/>
<path d="M81.1036 47.0572 L81.1393 46.9858 "/>
<path d="M81.1393 46.9858 L81.1393 46.9143 "/>
<path d="M81.1393 46.9143 L81.1036 46.8429 "/>
<path d="M81.1036 46.8429 L81.0321 46.8072 "/>
<path d="M81.0321 46.8072 L80.8536 46.8072 "/>
<path d="M80.8536 46.8072 L80.7821 46.7715 "/>
<path d="M80.4250 47.0929 L80.4250 46.5929 "/>
<path d="M80.4250 46.7358 L80.3893 46.6643 "/>
<path d="M80.3893 46.6643 L80.3536 46.6286 "/>
<path d="M80.3536 46.6286 L80.2821 46.5929 "/>
<path d="M80.2821 46.5929 L80.2107 46.5929 "/>
<path d="M79.6393 47.0929 L79.6393 46.3429 "/>
<path d="M79.6393 47.0572 L79.7107 47.0929 "/>
<path d="M79.7107 47.0929 L79.8536 47.0929 "/>
<path d="M79.8536 47.0929 L79.9250 47.0572 "/>
<path d="M79.9250 47.0572 L79.9607 47.0215 "/>
<path d="M79.9607 47.0215 L79.9964 46.9501 "/>
<path d="M79.9964 46.9501 L79.9964 46.7358 "/>
<path d="M79.9964 46.7358 L79.9607 46.6643 "/>
<path d="M79.9607 46.6643 L79.9250 46.6286 "/>
<path d="M79.9250 46.6286 L79.8536 46.5929 "/>
<path d="M79.8536 46.5929 L79.7107 46.5929 "/>
<path d="M79.7107 46.5929 L79.6393 46.6286 "/>
<path d="M78.3536 47.0929 L78.7107 47.0929 "/>
<path d="M78.7107 47.0929 L78.7107 46.3429 "/>
<path d="M78.1036 46.7001 L77.8536 46.7001 "/>
<path d="M77.7464 47.0929 L78.1036 47.0929 "/>
<path d="M78.1036 47.0929 L78.1036 46.3429 "/>
<path d="M78.1036 46.3429 L77.7464 46.3429 "/>
<path d="M77.4250 47.0929 L77.4250 46.3429 "/>
<path d="M77.4250 46.3429 L77.2464 46.3429 "/>
<path d="M77.2464 46.3429 L77.1393 46.3786 "/>
<path d="M77.1393 46.3786 L77.0679 46.4501 "/>
<path d="M77.0679 46.4501 L77.0321 46.5215 "/>
<path d="M77.0321 46.5215 L76.9964 46.6643 "/>
<path d="M76.9964 46.6643 L76.9964 46.7715 "/>
<path d="M76.9964 46.7715 L77.0321 46.9143 "/>
<path d="M77.0321 46.9143 L77.0679 46.9858 "/>
<path d="M77.0679 46.9858 L77.1393 47.0572 "/>
<path d="M77.1393 47.0572 L77.2464 47.0929 "/>
<path d="M77.2464 47.0929 L77.4250 47.0929 "/>
<path d="M75.6750 47.0929 L75.9250 46.7358 "/>
<path d="M76.1036 47.0929 L76.1036 46.3429 "/>
<path d="M76.1036 46.3429 L75.8179 46.3429 "/>
<path d="M75.8179 46.3429 L75.7464 46.3786 "/>
<path d="M75.7464 46.3786 L75.7107 46.4143 "/>
<path d="M75.7107 46.4143 L75.6750 46.4858 "/>
<path d="M75.6750 46.4858 L75.6750 46.5929 "/>
<path d="M75.6750 46.5929 L75.7107 46.6643 "/>
<path d="M75.7107 46.6643 L75.7464 46.7001 "/>
<path d="M75.7464 46.7001 L75.8179 46.7358 "/>
<path d="M75.8179 46.7358 L76.1036 46.7358 "/>
<path d="M75.3536 47.0929 L75.3536 46.5929 "/>
<path d="M75.3536 46.3429 L75.3893 46.3786 "/>
<path d="M75.3893 46.3786 L75.3536 46.4143 "/>
<path d="M75.3536 46.4143 L75.3179 46.3786 "/>
<path d="M75.3179 46.3786 L75.3536 46.3429 "/>
<path d="M75.3536 46.3429 L75.3536 46.4143 "/>
<path d="M74.9964 46.5929 L74.9964 47.0929 "/>
<path d="M74.9964 46.6643 L74.9607 46.6286 "/>
<path d="M74.9607 46.6286 L74.8893 46.5929 "/>
<path d="M74.8893 46.5929 L74.7821 46.5929 "/>
<path d="M74.7821 46.5929 L74.7107 46.6286 "/>
<path d="M74.7107 46.6286 L74.6750 46.7001 "/>
<path d="M74.6750 46.7001 L74.6750 47.0929 "/>
<path d="M73.9964 46.5929 L73.9964 47.2001 "/>
<path d="M73.9964 47.2001 L74.0321 47.2715 "/>
<path d="M74.0321 47.2715 L74.0679 47.3072 "/>
<path d="M74.0679 47.3072 L74.1393 47.3429 "/>
<path d="M74.1393 47.3429 L74.2464 47.3429 "/>
<path d="M74.2464 47.3429 L74.3179 47.3072 "/>
<path d="M73.9964 47.0572 L74.0679 47.0929 "/>
<path d="M74.0679 47.0929 L74.2107 47.0929 "/>
<path d="M74.2107 47.0929 L74.2821 47.0572 "/>
<path d="M74.2821 47.0572 L74.3179 47.0215 "/>
<path d="M74.3179 47.0215 L74.3536 46.9501 "/>
<path d="M74.3536 46.9501 L74.3536 46.7358 "/>
<path d="M74.3536 46.7358 L74.3179 46.6643 "/>
<path d="M74.3179 46.6643 L74.2821 46.6286 "/>
<path d="M74.2821 46.6286 L74.2107 46.5929 "/>
<path d="M74.2107 46.5929 L74.0679 46.5929 "/>
<path d="M74.0679 46.5929 L73.9964 46.6286 "/>
</g><text x="79.8000" y="48.4000" transform="scale(-1 1) translate(-159.600000 0)" textLength="18.1893" font-size="1.0000" lengthAdjust="spacingAndGlyphs" text-anchor="middle" opacity="0">https://github.com/pedalboard</text>
<g class="stroked-text"><desc>https://github.com/pedalboard</desc>
<path d="M88.6036 48.3004 L88.6036 47.5504 "/>
<path d="M88.2821 48.3004 L88.2821 47.9076 "/>
<path d="M88.2821 47.9076 L88.3179 47.8361 "/>
<path d="M88.3179 47.8361 L88.3893 47.8004 "/>
<path d="M88.3893 47.8004 L88.4964 47.8004 "/>
<path d="M88.4964 47.8004 L88.5679 47.8361 "/>
<path d="M88.5679 47.8361 L88.6036 47.8718 "/>
<path d="M88.0321 47.8004 L87.7464 47.8004 "/>
<path d="M87.9250 47.5504 L87.9250 48.1933 "/>
<path d="M87.9250 48.1933 L87.8893 48.2647 "/>
<path d="M87.8893 48.2647 L87.8179 48.3004 "/>
<path d="M87.8179 48.3004 L87.7464 48.3004 "/>
<path d="M87.6036 47.8004 L87.3179 47.8004 "/>
<path d="M87.4964 47.5504 L87.4964 48.1933 "/>
<path d="M87.4964 48.1933 L87.4607 48.2647 "/>
<path d="M87.4607 48.2647 L87.3893 48.3004 "/>
<path d="M87.3893 48.3004 L87.3179 48.3004 "/>
<path d="M87.0679 47.8004 L87.0679 48.5504 "/>
<path d="M87.0679 47.8361 L86.9964 47.8004 "/>
<path d="M86.9964 47.8004 L86.8536 47.8004 "/>
<path d="M86.8536 47.8004 L86.7821 47.8361 "/>
<path d="M86.7821 47.8361 L86.7464 47.8718 "/>
<path d="M86.7464 47.8718 L86.7107 47.9433 "/>
<path d="M86.7107 47.9433 L86.7107 48.1576 "/>
<path d="M86.7107 48.1576 L86.7464 48.2290 "/>
<path d="M86.7464 48.2290 L86.7821 48.2647 "/>
<path d="M86.7821 48.2647 L86.8536 48.3004 "/>
<path d="M86.8536 48.3004 L86.9964 48.3004 "/>
<path d="M86.9964 48.3004 L87.0679 48.2647 "/>
<path d="M86.4250 48.2647 L86.3536 48.3004 "/>
<path d="M86.3536 48.3004 L86.2107 48.3004 "/>
<path d="M86.2107 48.3004 L86.1393 48.2647 "/>
<path d="M86.1393 48.2647 L86.1036 48.1933 "/>
<path d="M86.1036 48.1933 L86.1036 48.1576 "/>
<path d="M86.1036 48.1576 L86.1393 48.0861 "/>
<path d="M86.1393 48.0861 L86.2107 48.0504 "/>
<path d="M86.2107 48.0504 L86.3179 48.0504 "/>
<path d="M86.3179 48.0504 L86.3893 48.0147 "/>
<path d="M86.3893 48.0147 L86.4250 47.9433 "/>
<path d="M86.4250 47.9433 L86.4250 47.9076 "/>
<path d="M86.4250 47.9076 L86.3893 47.8361 "/>
<path d="M86.3893 47.8361 L86.3179 47.8004 "/>
<path d="M86.3179 47.8004 L86.2107 47.8004 "/>
<path d="M86.2107 47.8004 L86.1393 47.8361 "/>
<path d="M85.7821 48.2290 L85.7464 48.2647 "/>
<path d="M85.7464 48.2647 L85.7821 48.3004 "/>
<path d="M85.7821 48.3004 L85.8179 48.2647 "/>
<path d="M85.8179 48.2647 L85.7821 48.2290 "/>
<path d="M85.7821 48.2290 L85.7821 48.3004 "/>
<path d="M85.7821 47.8361 L85.7464 47.8718 "/>
<path d="M85.7464 47.8718 L85.7821 47.9076 "/>
<path d="M85.7821 47.9076 L85.8179 47.8718 "/>
<path d="M85.8179 47.8718 L85.7821 47.8361 "/>
<path d="M85.7821 47.8361 L85.7821 47.9076 "/>
<path d="M84.8893 47.5147 L85.5321 48.4790 "/>
<path d="M84.1036 47.5147 L84.7464 48.4790 "/>
<path d="M83.5321 47.8004 L83.5321 48.4076 "/>
<path d="M83.5321 48.4076 L83.5679 48.4790 "/>
<path d="M83.5679 48.4790 L83.6036 48.5147 "/>
<path d="M83.6036 48.5147 L83.6750 48.5504 "/>
<path d="M83.6750 48.5504 L83.7821 48.5504 "/>
<path d="M83.7821 48.5504 L83.8536 48.5147 "/>
<path d="M83.5321 48.2647 L83.6036 48.3004 "/>
<path d="M83.6036 48.3004 L83.7464 48.3004 "/>
<path d="M83.7464 48.3004 L83.8179 48.2647 "/>
<path d="M83.8179 48.2647 L83.8536 48.2290 "/>
<path d="M83.8536 48.2290 L83.8893 48.1576 "/>
<path d="M83.8893 48.1576 L83.8893 47.9433 "/>
<path d="M83.8893 47.9433 L83.8536 47.8718 "/>
<path d="M83.8536 47.8718 L83.8179 47.8361 "/>
<path d="M83.8179 47.8361 L83.7464 47.8004 "/>
<path d="M83.7464 47.8004 L83.6036 47.8004 "/>
<path d="M83.6036 47.8004 L83.5321 47.8361 "/>
<path d="M83.1750 48.3004 L83.1750 47.8004 "/>
<path d="M83.1750 47.5504 L83.2107 47.5861 "/>
<path d="M83.2107 47.5861 L83.1750 47.6218 "/>
<path d="M83.1750 47.6218 L83.1393 47.5861 "/>
<path d="M83.1393 47.5861 L83.1750 47.5504 "/>
<path d="M83.1750 47.5504 L83.1750 47.6218 "/>
<path d="M82.9250 47.8004 L82.6393 47.8004 "/>
<path d="M82.8179 47.5504 L82.8179 48.1933 "/>
<path d="M82.8179 48.1933 L82.7821 48.2647 "/>
<path d="M82.7821 48.2647 L82.7107 48.3004 "/>
<path d="M82.7107 48.3004 L82.6393 48.3004 "/>
<path d="M82.3893 48.3004 L82.3893 47.5504 "/>
<path d="M82.0679 48.3004 L82.0679 47.9076 "/>
<path d="M82.0679 47.9076 L82.1036 47.8361 "/>
<path d="M82.1036 47.8361 L82.1750 47.8004 "/>
<path d="M82.1750 47.8004 L82.2821 47.8004 "/>
<path d="M82.2821 47.8004 L82.3536 47.8361 "/>
<path d="M82.3536 47.8361 L82.3893 47.8718 "/>
<path d="M81.3893 47.8004 L81.3893 48.3004 "/>
<path d="M81.7107 47.8004 L81.7107 48.1933 "/>
<path d="M81.7107 48.1933 L81.6750 48.2647 "/>
<path d="M81.6750 48.2647 L81.6036 48.3004 "/>
<path d="M81.6036 48.3004 L81.4964 48.3004 "/>
<path d="M81.4964 48.3004 L81.4250 48.2647 "/>
<path d="M81.4250 48.2647 L81.3893 48.2290 "/>
<path d="M81.0321 48.3004 L81.0321 47.5504 "/>
<path d="M81.0321 47.8361 L80.9607 47.8004 "/>
<path d="M80.9607 47.8004 L80.8179 47.8004 "/>
<path d="M80.8179 47.8004 L80.7464 47.8361 "/>
<path d="M80.7464 47.8361 L80.7107 47.8718 "/>
<path d="M80.7107 47.8718 L80.6750 47.9433 "/>
<path d="M80.6750 47.9433 L80.6750 48.1576 "/>
<path d="M80.6750 48.1576 L80.7107 48.2290 "/>
<path d="M80.7107 48.2290 L80.7464 48.2647 "/>
<path d="M80.7464 48.2647 L80.8179 48.3004 "/>
<path d="M80.8179 48.3004 L80.9607 48.3004 "/>
<path d="M80.9607 48.3004 L81.0321 48.2647 "/>
<path d="M80.3536 48.2290 L80.3179 48.2647 "/>
<path d="M80.3179 48.2647 L80.3536 48.3004 "/>
<path d="M80.3536 48.3004 L80.3893 48.2647 "/>
<path d="M80.3893 48.2647 L80.3536 48.2290 "/>
<path d="M80.3536 48.2290 L80.3536 48.3004 "/>
<path d="M79.6750 48.2647 L79.7464 48.3004 "/>
<path d="M79.7464 48.3004 L79.8893 48.3004 "/>
<path d="M79.8893 48.3004 L79.9607 48.2647 "/>
<path d="M79.9607 48.2647 L79.9964 48.2290 "/>
<path d="M79.9964 48.2290 L80.0321 48.1576 "/>
<path d="M80.0321 48.1576 L80.0321 47.9433 "/>
<path d="M80.0321 47.9433 L79.9964 47.8718 "/>
<path d="M79.9964 47.8718 L79.9607 47.8361 "/>
<path d="M79.9607 47.8361 L79.8893 47.8004 "/>
<path d="M79.8893 47.8004 L79.7464 47.8004 "/>
<path d="M79.7464 47.8004 L79.6750 47.8361 "/>
<path d="M79.2464 48.3004 L79.3179 48.2647 "/>
<path d="M79.3179 48.2647 L79.3536 48.2290 "/>
<path d="M79.3536 48.2290 L79.3893 48.1576 "/>
<path d="M79.3893 48.1576 L79.3893 47.9433 "/>
<path d="M79.3893 47.9433 L79.3536 47.8718 "/>
<path d="M79.3536 47.8718 L79.3179 47.8361 "/>
<path d="M79.3179 47.8361 L79.2464 47.8004 "/>
<path d="M79.2464 47.8004 L79.1393 47.8004 "/>
<path d="M79.1393 47.8004 L79.0679 47.8361 "/>
<path d="M79.0679 47.8361 L79.0321 47.8718 "/>
<path d="M79.0321 47.8718 L78.9964 47.9433 "/>
<path d="M78.9964 47.9433 L78.9964 48.1576 "/>
<path d="M78.9964 48.1576 L79.0321 48.2290 "/>
<path d="M79.0321 48.2290 L79.0679 48.2647 "/>
<path d="M79.0679 48.2647 L79.1393 48.3004 "/>
<path d="M79.1393 48.3004 L79.2464 48.3004 "/>
<path d="M78.6750 48.3004 L78.6750 47.8004 "/>
<path d="M78.6750 47.8718 L78.6393 47.8361 "/>
<path d="M78.6393 47.8361 L78.5679 47.8004 "/>
<path d="M78.5679 47.8004 L78.4607 47.8004 "/>
<path d="M78.4607 47.8004 L78.3893 47.8361 "/>
<path d="M78.3893 47.8361 L78.3536 47.9076 "/>
<path d="M78.3536 47.9076 L78.3536 48.3004 "/>
<path d="M78.3536 47.9076 L78.3179 47.8361 "/>
<path d="M78.3179 47.8361 L78.2464 47.8004 "/>
<path d="M78.2464 47.8004 L78.1393 47.8004 "/>
<path d="M78.1393 47.8004 L78.0679 47.8361 "/>
<path d="M78.0679 47.8361 L78.0321 47.9076 "/>
<path d="M78.0321 47.9076 L78.0321 48.3004 "/>
<path d="M77.1393 47.5147 L77.7821 48.4790 "/>
<path d="M76.8893 47.8004 L76.8893 48.5504 "/>
<path d="M76.8893 47.8361 L76.8179 47.8004 "/>
<path d="M76.8179 47.8004 L76.6750 47.8004 "/>
<path d="M76.6750 47.8004 L76.6036 47.8361 "/>
<path d="M76.6036 47.8361 L76.5679 47.8718 "/>
<path d="M76.5679 47.8718 L76.5321 47.9433 "/>
<path d="M76.5321 47.9433 L76.5321 48.1576 "/>
<path d="M76.5321 48.1576 L76.5679 48.2290 "/>
<path d="M76.5679 48.2290 L76.6036 48.2647 "/>
<path d="M76.6036 48.2647 L76.6750 48.3004 "/>
<path d="M76.6750 48.3004 L76.8179 48.3004 "/>
<path d="M76.8179 48.3004 L76.8893 48.2647 "/>
<path d="M75.9250 48.2647 L75.9964 48.3004 "/>
<path d="M75.9964 48.3004 L76.1393 48.3004 "/>
<path d="M76.1393 48.3004 L76.2107 48.2647 "/>
<path d="M76.2107 48.2647 L76.2464 48.1933 "/>
<path d="M76.2464 48.1933 L76.2464 47.9076 "/>
<path d="M76.2464 47.9076 L76.2107 47.8361 "/>
<path d="M76.2107 47.8361 L76.1393 47.8004 "/>
<path d="M76.1393 47.8004 L75.9964 47.8004 "/>
<path d="M75.9964 47.8004 L75.9250 47.8361 "/>
<path d="M75.9250 47.8361 L75.8893 47.9076 "/>
<path d="M75.8893 47.9076 L75.8893 47.9790 "/>
<path d="M75.8893 47.9790 L76.2464 48.0504 "/>
<path d="M75.2464 48.3004 L75.2464 47.5504 "/>
<path d="M75.2464 48.2647 L75.3179 48.3004 "/>
<path d="M75.3179 48.3004 L75.4607 48.3004 "/>
<path d="M75.4607 48.3004 L75.5321 48.2647 "/>
<path d="M75.5321 48.2647 L75.5679 48.2290 "/>
<path d="M75.5679 48.2290 L75.6036 48.1576 "/>
<path d="M75.6036 48.1576 L75.6036 47.9433 "/>
<path d="M75.6036 47.9433 L75.5679 47.8718 "/>
<path d="M75.5679 47.8718 L75.5321 47.8361 "/>
<path d="M75.5321 47.8361 L75.4607 47.8004 "/>
<path d="M75.4607 47.8004 L75.3179 47.8004 "/>
<path d="M75.3179 47.8004 L75.2464 47.8361 "/>
<path d="M74.5679 48.3004 L74.5679 47.9076 "/>
<path d="M74.5679 47.9076 L74.6036 47.8361 "/>
<path d="M74.6036 47.8361 L74.6750 47.8004 "/>
<path d="M74.6750 47.8004 L74.8179 47.8004 "/>
<path d="M74.8179 47.8004 L74.8893 47.8361 "/>
<path d="M74.5679 48.2647 L74.6393 48.3004 "/>
<path d="M74.6393 48.3004 L74.8179 48.3004 "/>
<path d="M74.8179 48.3004 L74.8893 48.2647 "/>
<path d="M74.8893 48.2647 L74.9250 48.1933 "/>
<path d="M74.9250 48.1933 L74.9250 48.1218 "/>
<path d="M74.9250 48.1218 L74.8893 48.0504 "/>
<path d="M74.8893 48.0504 L74.8179 48.0147 "/>
<path d="M74.8179 48.0147 L74.6393 48.0147 "/>
<path d="M74.6393 48.0147 L74.5679 47.9790 "/>
<path d="M74.1036 48.3004 L74.1750 48.2647 "/>
<path d="M74.1750 48.2647 L74.2107 48.1933 "/>
<path d="M74.2107 48.1933 L74.2107 47.5504 "/>
<path d="M73.8179 48.3004 L73.8179 47.5504 "/>
<path d="M73.8179 47.8361 L73.7464 47.8004 "/>
<path d="M73.7464 47.8004 L73.6036 47.8004 "/>
<path d="M73.6036 47.8004 L73.5321 47.8361 "/>
<path d="M73.5321 47.8361 L73.4964 47.8718 "/>
<path d="M73.4964 47.8718 L73.4607 47.9433 "/>
<path d="M73.4607 47.9433 L73.4607 48.1576 "/>
<path d="M73.4607 48.1576 L73.4964 48.2290 "/>
<path d="M73.4964 48.2290 L73.5321 48.2647 "/>
<path d="M73.5321 48.2647 L73.6036 48.3004 "/>
<path d="M73.6036 48.3004 L73.7464 48.3004 "/>
<path d="M73.7464 48.3004 L73.8179 48.2647 "/>
<path d="M73.0321 48.3004 L73.1036 48.2647 "/>
<path d="M73.1036 48.2647 L73.1393 48.2290 "/>
<path d="M73.1393 48.2290 L73.1750 48.1576 "/>
<path d="M73.1750 48.1576 L73.1750 47.9433 "/>
<path d="M73.1750 47.9433 L73.1393 47.8718 "/>
<path d="M73.1393 47.8718 L73.1036 47.8361 "/>
<path d="M73.1036 47.8361 L73.0321 47.8004 "/>
<path d="M73.0321 47.8004 L72.9250 47.8004 "/>
<path d="M72.9250 47.8004 L72.8536 47.8361 "/>
<path d="M72.8536 47.8361 L72.8179 47.8718 "/>
<path d="M72.8179 47.8718 L72.7821 47.9433 "/>
<path d="M72.7821 47.9433 L72.7821 48.1576 "/>
<path d="M72.7821 48.1576 L72.8179 48.2290 "/>
<path d="M72.8179 48.2290 L72.8536 48.2647 "/>
<path d="M72.8536 48.2647 L72.9250 48.3004 "/>
<path d="M72.9250 48.3004 L73.0321 48.3004 "/>
<path d="M72.1393 48.3004 L72.1393 47.9076 "/>
<path d="M72.1393 47.9076 L72.1750 47.8361 "/>
<path d="M72.1750 47.8361 L72.2464 47.8004 "/>
<path d="M72.2464 47.8004 L72.3893 47.8004 "/>
<path d="M72.3893 47.8004 L72.4607 47.8361 "/>
<path d="M72.1393 48.2647 L72.2107 48.3004 "/>
<path d="M72.2107 48.3004 L72.3893 48.3004 "/>
<path d="M72.3893 48.3004 L72.4607 48.2647 "/>
<path d="M72.4607 48.2647 L72.4964 48.1933 "/>
<path d="M72.4964 48.1933 L72.4964 48.1218 "/>
<path d="M72.4964 48.1218 L72.4607 48.0504 "/>
<path d="M72.4607 48.0504 L72.3893 48.0147 "/>
<path d="M72.3893 48.0147 L72.2107 48.0147 "/>
<path d="M72.2107 48.0147 L72.1393 47.9790 "/>
<path d="M71.7821 48.3004 L71.7821 47.8004 "/>
<path d="M71.7821 47.9433 L71.7464 47.8718 "/>
<path d="M71.7464 47.8718 L71.7107 47.8361 "/>
<path d="M71.7107 47.8361 L71.6393 47.8004 "/>
<path d="M71.6393 47.8004 L71.5679 47.8004 "/>
<path d="M70.9964 48.3004 L70.9964 47.5504 "/>
<path d="M70.9964 48.2647 L71.0679 48.3004 "/>
<path d="M71.0679 48.3004 L71.2107 48.3004 "/>
<path d="M71.2107 48.3004 L71.2821 48.2647 "/>
<path d="M71.2821 48.2647 L71.3179 48.2290 "/>
<path d="M71.3179 48.2290 L71.3536 48.1576 "/>
<path d="M71.3536 48.1576 L71.3536 47.9433 "/>
<path d="M71.3536 47.9433 L71.3179 47.8718 "/>
<path d="M71.3179 47.8718 L71.2821 47.8361 "/>
<path d="M71.2821 47.8361 L71.2107 47.8004 "/>
<path d="M71.2107 47.8004 L71.0679 47.8004 "/>
<path d="M71.0679 47.8004 L70.9964 47.8361 "/>
</g><g transform="rotate(-90.000000 91.8000 54.0000)">
<text x="91.8000" y="54.5000" transform="scale(-1 1) translate(-183.600000 0)" textLength="1.8893" font-size="1.3333" lengthAdjust="spacingAndGlyphs" text-anchor="middle" opacity="0">J1</text>
</g>
<g class="stroked-text"><desc>J1</desc>
<path d="M91.2548 53.6667 L91.9691 53.6667 "/>
<path d="M91.9691 53.6667 L92.1120 53.6190 "/>
<path d="M92.1120 53.6190 L92.2072 53.5238 "/>
<path d="M92.2072 53.5238 L92.2548 53.3810 "/>
<path d="M92.2548 53.3810 L92.2548 53.2857 "/>
<path d="M92.2548 54.6667 L92.2548 54.0952 "/>
<path d="M92.2548 54.3810 L91.2548 54.3810 "/>
<path d="M91.2548 54.3810 L91.3977 54.2857 "/>
<path d="M91.3977 54.2857 L91.4929 54.1905 "/>
<path d="M91.4929 54.1905 L91.5405 54.0952 "/>
</g><text x="90.0000" y="74.0000" transform="scale(-1 1) translate(-180.000000 0)" textLength="1.8893" font-size="1.3333" lengthAdjust="spacingAndGlyphs" text-anchor="middle" opacity="0">J2</text>
<g class="stroked-text"><desc>J2</desc>
<path d="M90.3333 72.9548 L90.3333 73.6691 "/>
<path d="M90.3333 73.6691 L90.3810 73.8120 "/>
<path d="M90.3810 73.8120 L90.4762 73.9072 "/>
<path d="M90.4762 73.9072 L90.6190 73.9548 "/>
<path d="M90.6190 73.9548 L90.7143 73.9548 "/>
<path d="M89.9048 73.0501 L89.8571 73.0024 "/>
<path d="M89.8571 73.0024 L89.7619 72.9548 "/>
<path d="M89.7619 72.9548 L89.5238 72.9548 "/>
<path d="M89.5238 72.9548 L89.4286 73.0024 "/>
<path d="M89.4286 73.0024 L89.3810 73.0501 "/>
<path d="M89.3810 73.0501 L89.3333 73.1453 "/>
<path d="M89.3333 73.1453 L89.3333 73.2405 "/>
<path d="M89.3333 73.2405 L89.3810 73.3834 "/>
<path d="M89.3810 73.3834 L89.9524 73.9548 "/>
<path d="M89.9524 73.9548 L89.3333 73.9548 "/>
</g></g>
<g style="fill-opacity: 0.0;stroke-width: 0.1200;stroke-opacity: 1;stroke-linecap: round;stroke-linejoin: round">
<path d="M87.9400 62.0600 L87.9400 57.9400 "/>
<path d="M88.2400 62.0600 L87.9400 62.0600 "/>
<path d="M90.2400 62.0600 L89.7600 62.0600 "/>
<path d="M92.0600 62.0600 L91.7600 62.0600 "/>
<path d="M92.0600 62.0600 L92.0600 57.9400 "/>
<path d="M88.2400 57.9400 L87.9400 57.9400 "/>
<path d="M90.2400 57.9400 L89.7600 57.9400 "/>
<path d="M91.7600 57.9400 L91.7600 55.5600 "/>
<path d="M92.0600 57.9400 L91.7600 57.9400 "/>
<path d="M87.9400 67.9400 L92.0600 67.9400 "/>
<path d="M87.9400 68.2400 L87.9400 67.9400 "/>
<path d="M87.9400 70.2400 L87.9400 69.7600 "/>
<path d="M87.9400 72.0600 L87.9400 71.7600 "/>
<path d="M87.9400 72.0600 L92.0600 72.0600 "/>
<path d="M92.0600 68.2400 L92.0600 67.9400 "/>
<path d="M92.0600 70.2400 L92.0600 69.7600 "/>
<path d="M92.0600 71.7600 L94.4400 71.7600 "/>
<path d="M92.0600 72.0600 L92.0600 71.7600 "/>
</g> 
</g><g id="substrate-outline" style="fill:#000000; stroke:#000000; stroke-width: 0.15"><g style="fill-opacity: 0.0;stroke-opacity: 1;stroke-linecap: round;stroke-linejoin: round">
<path d="M65.0000 74.0000 A1.0000 1.0000 0.0 0 0 66.0000 75.0000"/>
<circle cx="80.0000" cy="60.0000" r="6.1000"/> 
<path d="M95.0000 46.0000 L95.0000 74.0000 "/>
<path d="M65.0000 74.0000 L65.0000 46.0000 "/>
<path d="M94.0000 75.0000 A1.0000 1.0000 0.0 0 0 95.0000 74.0000"/>
<path d="M66.0000 45.0000 L94.0000 45.0000 "/>
<path d="M94.0000 75.0000 L66.0000 75.0000 "/>
<path d="M66.0000 45.0000 A1.0000 1.0000 0.0 0 0 65.0000 46.0000"/>
<path d="M95.0000 46.0000 A1.0000 1.0000 0.0 0 0 94.0000 45.0000"/>
</g> 
<path d="M -0.2 0.0 A 0.2 0.2 0 1 1 0.2 0.0 L 0.2 -0.0 A 0.2 0.2 0 1 1 -0.2 -0.0 Z" transform="translate(86.4 63.5) rotate(-0.0)"/><path d="M -0.2 0.0 A 0.2 0.2 0 1 1 0.2 0.0 L 0.2 -0.0 A 0.2 0.2 0 1 1 -0.2 -0.0 Z" transform="translate(89.726279 65.15359) rotate(-0.0)"/><path d="M -0.2 0.0 A 0.2 0.2 0 1 1 0.2 0.0 L 0.2 -0.0 A 0.2 0.2 0 1 1 -0.2 -0.0 Z" transform="translate(69.0 60.4) rotate(-0.0)"/><path d="M -0.2 0.0 A 0.2 0.2 0 1 1 0.2 0.0 L 0.2 -0.0 A 0.2 0.2 0 1 1 -0.2 -0.0 Z" transform="translate(80.4 71.0) rotate(-0.0)"/><path d="M -0.2 0.0 A 0.2 0.2 0 1 1 0.2 0.0 L 0.2 -0.0 A 0.2 0.2 0 1 1 -0.2 -0.0 Z" transform="translate(85.15359 50.273721) rotate(-0.0)"/><path d="M -0.2 0.0 A 0.2 0.2 0 1 1 0.2 0.0 L 0.2 -0.0 A 0.2 0.2 0 1 1 -0.2 -0.0 Z" transform="translate(74.15359 50.673721) rotate(-0.0)"/><path d="M -0.2 0.0 A 0.2 0.2 0 1 1 0.2 0.0 L 0.2 -0.0 A 0.2 0.2 0 1 1 -0.2 -0.0 Z" transform="translate(79.6 49.0) rotate(-0.0)"/><path d="M -0.2 0.0 A 0.2 0.2 0 1 1 0.2 0.0 L 0.2 -0.0 A 0.2 0.2 0 1 1 -0.2 -0.0 Z" transform="translate(70.273721 54.84641) rotate(-0.0)"/><path d="M -0.2 0.0 A 0.2 0.2 0 1 1 0.2 0.0 L 0.2 -0.0 A 0.2 0.2 0 1 1 -0.2 -0.0 Z" transform="translate(89.326279 54.15359) rotate(-0.0)"/><path d="M -0.2 0.0 A 0.2 0.2 0 1 1 0.2 0.0 L 0.2 -0.0 A 0.2 0.2 0 1 1 -0.2 -0.0 Z" transform="translate(86.4 67.8) rotate(-0.0)"/><path d="M -0.2 0.0 A 0.2 0.2 0 1 1 0.2 0.0 L 0.2 -0.0 A 0.2 0.2 0 1 1 -0.2 -0.0 Z" transform="translate(74.84641 69.726279) rotate(-0.0)"/><path d="M -0.2 0.0 A 0.2 0.2 0 1 1 0.2 0.0 L 0.2 -0.0 A 0.2 0.2 0 1 1 -0.2 -0.0 Z" transform="translate(91.0 59.6) rotate(-0.0)"/><path d="M -0.2 0.0 A 0.2 0.2 0 1 1 0.2 0.0 L 0.2 -0.0 A 0.2 0.2 0 1 1 -0.2 -0.0 Z" transform="translate(70.673721 65.84641) rotate(-0.0)"/><path d="M -0.2 0.0 A 0.2 0.2 0 1 1 0.2 0.0 L 0.2 -0.0 A 0.2 0.2 0 1 1 -0.2 -0.0 Z" transform="translate(92.0 62.1) rotate(-0.0)"/><path d="M -0.2 0.0 A 0.2 0.2 0 1 1 0.2 0.0 L 0.2 -0.0 A 0.2 0.2 0 1 1 -0.2 -0.0 Z" transform="translate(85.9 72.0) rotate(-0.0)"/><path d="M -0.2 0.0 A 0.2 0.2 0 1 1 0.2 0.0 L 0.2 -0.0 A 0.2 0.2 0 1 1 -0.2 -0.0 Z" transform="translate(92.0 63.1) rotate(-0.0)"/><path d="M -0.2 0.0 A 0.2 0.2 0 1 1 0.2 0.0 L 0.2 -0.0 A 0.2 0.2 0 1 1 -0.2 -0.0 Z" transform="translate(92.0 64.1) rotate(-0.0)"/><path d="M -0.2 0.0 A 0.2 0.2 0 1 1 0.2 0.0 L 0.2 -0.0 A 0.2 0.2 0 1 1 -0.2 -0.0 Z" transform="translate(87.9 72.0) rotate(-0.0)"/><path d="M -0.2 0.0 A 0.2 0.2 0 1 1 0.2 0.0 L 0.2 -0.0 A 0.2 0.2 0 1 1 -0.2 -0.0 Z" transform="translate(86.9 72.0) rotate(-0.0)"/><path d="M -0.2 0.0 A 0.2 0.2 0 1 1 0.2 0.0 L 0.2 -0.0 A 0.2 0.2 0 1 1 -0.2 -0.0 Z" transform="translate(87.91 61.82) rotate(-0.0)"/></g></g><g id="substrate-paste" style="fill:#8a8a8a; stroke:#8a8a8a;"><g style="fill-opacity: 0.0;stroke-width: 0.0000;stroke-opacity: 1;stroke-linecap: round;stroke-linejoin: round">
<g style="fill-opacity: 1.0000;stroke-width: 0.0000;stroke-opacity: 1;stroke-linecap: round;stroke-linejoin: round">
<path style="fill-opacity: 1.0000;stroke-width: 0.0000;stroke-opacity: 1;stroke-linecap: round;stroke-linejoin: round;fill-rule: evenodd" d="M 91.5000,58.2500 90.5000,58.2500 90.5000,55.5000 91.5000,55.5000 Z"/> 
<path style="fill-opacity: 1.0000;stroke-width: 0.0000;stroke-opacity: 1;stroke-linecap: round;stroke-linejoin: round;fill-rule: evenodd" d="M 91.5000,64.5000 90.5000,64.5000 90.5000,61.7500 91.5000,61.7500 Z"/> 
<path style="fill-opacity: 1.0000;stroke-width: 0.0000;stroke-opacity: 1;stroke-linecap: round;stroke-linejoin: round;fill-rule: evenodd" d="M 89.5000,58.2500 88.5000,58.2500 88.5000,55.5000 89.5000,55.5000 Z"/> 
<path style="fill-opacity: 1.0000;stroke-width: 0.0000;stroke-opacity: 1;stroke-linecap: round;stroke-linejoin: round;fill-rule: evenodd" d="M 89.5000,64.5000 88.5000,64.5000 88.5000,61.7500 89.5000,61.7500 Z"/> 
</g>
<g style="fill-opacity: 1.0000;stroke-width: 0.0000;stroke-opacity: 1;stroke-linecap: round;stroke-linejoin: round">
<path style="fill-opacity: 1.0000;stroke-width: 0.0000;stroke-opacity: 1;stroke-linecap: round;stroke-linejoin: round;fill-rule: evenodd" d="M 91.7500,71.5000 91.7500,70.5000 94.5000,70.5000 94.5000,71.5000 Z"/> 
<path style="fill-opacity: 1.0000;stroke-width: 0.0000;stroke-opacity: 1;stroke-linecap: round;stroke-linejoin: round;fill-rule: evenodd" d="M 85.5000,71.5000 85.5000,70.5000 88.2500,70.5000 88.2500,71.5000 Z"/> 
<path style="fill-opacity: 1.0000;stroke-width: 0.0000;stroke-opacity: 1;stroke-linecap: round;stroke-linejoin: round;fill-rule: evenodd" d="M 91.7500,69.5000 91.7500,68.5000 94.5000,68.5000 94.5000,69.5000 Z"/> 
<path style="fill-opacity: 1.0000;stroke-width: 0.0000;stroke-opacity: 1;stroke-linecap: round;stroke-linejoin: round;fill-rule: evenodd" d="M 85.5000,69.5000 85.5000,68.5000 88.2500,68.5000 88.2500,69.5000 Z"/> 
</g>
</g> 
</g></g></svg>