<!DOCTYPE svg PUBLIC "-//W3C//DTD SVG 1.1//EN" "http://www.w3.org/Graphics/SVG/1.1/DTD/svg11.dtd">
<svg xmlns="http://www.w3.org/2000/svg" version="1.1" width="36.1mm" height="28.1mm" viewBox="65.95 45.95 36.10000000000001 28.10000000000001">
            <title>Picture generated by PcbDraw </title>
            <desc>Picture generated by PcbDraw</desc>
        <defs><clipPath id="cut-off"><path d=" M 80.0000 60.0000 m-6.1000 0 a 6.1000 6.1000 0 1 0 12.2 0 a 6.1000 6.1000 0 1 0 -12.2 0  M 67.0 74.0 L 101.0 74.0 A 1 1 0 0 0 102.0 73.0 L 102.0 47.0 A 1 1 0 0 0 101.0 46.0 L 67.0 46.0 A 1 1 0 0 0 66.0 47.0 L 66.0 73.0 A 1 1 0 0 0 67.0 74.0 " style="fill-rule: evenodd;"/></clipPath><mask id="pads-mask"><g style="fill:#ffffff; fill-opacity:0.0;  stroke:#ffffff; stroke-width:0.0000; stroke-opacity:1;  stroke-linecap:round; stroke-linejoin:round;">
<g style="fill:#ffffff; fill-opacity:1.0000;  stroke:#ffffff; stroke-width:0.0000; stroke-opacity:1;  stroke-linecap:round; stroke-linejoin:round;">
<path style="fill:#ffffff; fill-opacity:1.0000;  stroke:#ffffff; stroke-width:0.0000; stroke-opacity:1;  stroke-linecap:round; stroke-linejoin:round;fill-rule:evenodd;" d="M 87.8199,54.7164 88.4694,54.3414 88.8844,55.0602 88.2349,55.4352 Z"/> 
<path style="fill:#ffffff; fill-opacity:1.0000;  stroke:#ffffff; stroke-width:0.0000; stroke-opacity:1;  stroke-linecap:round; stroke-linejoin:round;fill-rule:evenodd;" d="M 87.2310,55.0564 87.6640,54.8064 88.0790,55.5252 87.6460,55.7752 Z"/> 
<path style="fill:#ffffff; fill-opacity:1.0000;  stroke:#ffffff; stroke-width:0.0000; stroke-opacity:1;  stroke-linecap:round; stroke-linejoin:round;fill-rule:evenodd;" d="M 86.4256,55.5214 87.0751,55.1464 87.4901,55.8652 86.8406,56.2402 Z"/> 
<path style="fill:#ffffff; fill-opacity:1.0000;  stroke:#ffffff; stroke-width:0.0000; stroke-opacity:1;  stroke-linecap:round; stroke-linejoin:round;fill-rule:evenodd;" d="M 87.2156,56.8898 87.8651,56.5148 88.2801,57.2336 87.6306,57.6086 Z"/> 
<path style="fill:#ffffff; fill-opacity:1.0000;  stroke:#ffffff; stroke-width:0.0000; stroke-opacity:1;  stroke-linecap:round; stroke-linejoin:round;fill-rule:evenodd;" d="M 88.0210,56.4248 88.4540,56.1748 88.8690,56.8936 88.4360,57.1436 Z"/> 
<path style="fill:#ffffff; fill-opacity:1.0000;  stroke:#ffffff; stroke-width:0.0000; stroke-opacity:1;  stroke-linecap:round; stroke-linejoin:round;fill-rule:evenodd;" d="M 88.6099,56.0848 89.2594,55.7098 89.6744,56.4286 89.0249,56.8036 Z"/> 
</g>
<g style="fill:#ffffff; fill-opacity:1.0000;  stroke:#ffffff; stroke-width:0.0000; stroke-opacity:1;  stroke-linecap:round; stroke-linejoin:round;">
<path style="fill:#ffffff; fill-opacity:1.0000;  stroke:#ffffff; stroke-width:0.0000; stroke-opacity:1;  stroke-linecap:round; stroke-linejoin:round;fill-rule:evenodd;" d="M 81.2050,69.4300 81.2050,70.1800 80.3750,70.1800 80.3750,69.4300 Z"/> 
<path style="fill:#ffffff; fill-opacity:1.0000;  stroke:#ffffff; stroke-width:0.0000; stroke-opacity:1;  stroke-linecap:round; stroke-linejoin:round;fill-rule:evenodd;" d="M 81.2050,68.7500 81.2050,69.2500 80.3750,69.2500 80.3750,68.7500 Z"/> 
<path style="fill:#ffffff; fill-opacity:1.0000;  stroke:#ffffff; stroke-width:0.0000; stroke-opacity:1;  stroke-linecap:round; stroke-linejoin:round;fill-rule:evenodd;" d="M 81.2050,67.8200 81.2050,68.5700 80.3750,68.5700 80.3750,67.8200 Z"/> 
<path style="fill:#ffffff; fill-opacity:1.0000;  stroke:#ffffff; stroke-width:0.0000; stroke-opacity:1;  stroke-linecap:round; stroke-linejoin:round;fill-rule:evenodd;" d="M 79.6250,67.8200 79.6250,68.5700 78.7950,68.5700 78.7950,67.8200 Z"/> 
<path style="fill:#ffffff; fill-opacity:1.0000;  stroke:#ffffff; stroke-width:0.0000; stroke-opacity:1;  stroke-linecap:round; stroke-linejoin:round;fill-rule:evenodd;" d="M 79.6250,68.7500 79.6250,69.2500 78.7950,69.2500 78.7950,68.7500 Z"/> 
<path style="fill:#ffffff; fill-opacity:1.0000;  stroke:#ffffff; stroke-width:0.0000; stroke-opacity:1;  stroke-linecap:round; stroke-linejoin:round;fill-rule:evenodd;" d="M 79.6250,69.4300 79.6250,70.1800 78.7950,70.1800 78.7950,69.4300 Z"/> 
</g>
<g style="fill:#ffffff; fill-opacity:1.0000;  stroke:#ffffff; stroke-width:0.0000; stroke-opacity:1;  stroke-linecap:round; stroke-linejoin:round;">
<path style="fill:#ffffff; fill-opacity:1.0000;  stroke:#ffffff; stroke-width:0.0000; stroke-opacity:1;  stroke-linecap:round; stroke-linejoin:round;fill-rule:evenodd;" d="M 78.7950,50.5700 78.7950,49.8200 79.6250,49.8200 79.6250,50.5700 Z"/> 
<path style="fill:#ffffff; fill-opacity:1.0000;  stroke:#ffffff; stroke-width:0.0000; stroke-opacity:1;  stroke-linecap:round; stroke-linejoin:round;fill-rule:evenodd;" d="M 78.7950,51.2500 78.7950,50.7500 79.6250,50.7500 79.6250,51.2500 Z"/> 
<path style="fill:#ffffff; fill-opacity:1.0000;  stroke:#ffffff; stroke-width:0.0000; stroke-opacity:1;  stroke-linecap:round; stroke-linejoin:round;fill-rule:evenodd;" d="M 78.7950,52.1800 78.7950,51.4300 79.6250,51.4300 79.6250,52.1800 Z"/> 
<path style="fill:#ffffff; fill-opacity:1.0000;  stroke:#ffffff; stroke-width:0.0000; stroke-opacity:1;  stroke-linecap:round; stroke-linejoin:round;fill-rule:evenodd;" d="M 80.3750,52.1800 80.3750,51.4300 81.2050,51.4300 81.2050,52.1800 Z"/> 
<path style="fill:#ffffff; fill-opacity:1.0000;  stroke:#ffffff; stroke-width:0.0000; stroke-opacity:1;  stroke-linecap:round; stroke-linejoin:round;fill-rule:evenodd;" d="M 80.3750,51.2500 80.3750,50.7500 81.2050,50.7500 81.2050,51.2500 Z"/> 
<path style="fill:#ffffff; fill-opacity:1.0000;  stroke:#ffffff; stroke-width:0.0000; stroke-opacity:1;  stroke-linecap:round; stroke-linejoin:round;fill-rule:evenodd;" d="M 80.3750,50.5700 80.3750,49.8200 81.2050,49.8200 81.2050,50.5700 Z"/> 
</g>
<g style="fill:#ffffff; fill-opacity:1.0000;  stroke:#ffffff; stroke-width:0.0000; stroke-opacity:1;  stroke-linecap:round; stroke-linejoin:round;">
<path style="fill:#ffffff; fill-opacity:1.0000;  stroke:#ffffff; stroke-width:0.0000; stroke-opacity:1;  stroke-linecap:round; stroke-linejoin:round;fill-rule:evenodd;" d="M 72.1801,65.2836 71.5306,65.6586 71.1156,64.9398 71.7651,64.5648 Z"/> 
<path style="fill:#ffffff; fill-opacity:1.0000;  stroke:#ffffff; stroke-width:0.0000; stroke-opacity:1;  stroke-linecap:round; stroke-linejoin:round;fill-rule:evenodd;" d="M 72.7690,64.9436 72.3360,65.1936 71.9210,64.4748 72.3540,64.2248 Z"/> 
<path style="fill:#ffffff; fill-opacity:1.0000;  stroke:#ffffff; stroke-width:0.0000; stroke-opacity:1;  stroke-linecap:round; stroke-linejoin:round;fill-rule:evenodd;" d="M 73.5744,64.4786 72.9249,64.8536 72.5099,64.1348 73.1594,63.7598 Z"/> 
<path style="fill:#ffffff; fill-opacity:1.0000;  stroke:#ffffff; stroke-width:0.0000; stroke-opacity:1;  stroke-linecap:round; stroke-linejoin:round;fill-rule:evenodd;" d="M 72.7844,63.1102 72.1349,63.4852 71.7199,62.7664 72.3694,62.3914 Z"/> 
<path style="fill:#ffffff; fill-opacity:1.0000;  stroke:#ffffff; stroke-width:0.0000; stroke-opacity:1;  stroke-linecap:round; stroke-linejoin:round;fill-rule:evenodd;" d="M 71.9790,63.5752 71.5460,63.8252 71.1310,63.1064 71.5640,62.8564 Z"/> 
<path style="fill:#ffffff; fill-opacity:1.0000;  stroke:#ffffff; stroke-width:0.0000; stroke-opacity:1;  stroke-linecap:round; stroke-linejoin:round;fill-rule:evenodd;" d="M 71.3901,63.9152 70.7406,64.2902 70.3256,63.5714 70.9751,63.1964 Z"/> 
</g>
<g style="fill:#ffffff; fill-opacity:1.0000;  stroke:#ffffff; stroke-width:0.0000; stroke-opacity:1;  stroke-linecap:round; stroke-linejoin:round;">
<path style="fill:#ffffff; fill-opacity:1.0000;  stroke:#ffffff; stroke-width:0.0000; stroke-opacity:1;  stroke-linecap:round; stroke-linejoin:round;fill-rule:evenodd;" d="M 70.9751,56.8036 70.3256,56.4286 70.7406,55.7098 71.3901,56.0848 Z"/> 
<path style="fill:#ffffff; fill-opacity:1.0000;  stroke:#ffffff; stroke-width:0.0000; stroke-opacity:1;  stroke-linecap:round; stroke-linejoin:round;fill-rule:evenodd;" d="M 71.5640,57.1436 71.1310,56.8936 71.5460,56.1748 71.9790,56.4248 Z"/> 
<path style="fill:#ffffff; fill-opacity:1.0000;  stroke:#ffffff; stroke-width:0.0000; stroke-opacity:1;  stroke-linecap:round; stroke-linejoin:round;fill-rule:evenodd;" d="M 72.3694,57.6086 71.7199,57.2336 72.1349,56.5148 72.7844,56.8898 Z"/> 
<path style="fill:#ffffff; fill-opacity:1.0000;  stroke:#ffffff; stroke-width:0.0000; stroke-opacity:1;  stroke-linecap:round; stroke-linejoin:round;fill-rule:evenodd;" d="M 73.1594,56.2402 72.5099,55.8652 72.9249,55.1464 73.5744,55.5214 Z"/> 
<path style="fill:#ffffff; fill-opacity:1.0000;  stroke:#ffffff; stroke-width:0.0000; stroke-opacity:1;  stroke-linecap:round; stroke-linejoin:round;fill-rule:evenodd;" d="M 72.3540,55.7752 71.9210,55.5252 72.3360,54.8064 72.7690,55.0564 Z"/> 
<path style="fill:#ffffff; fill-opacity:1.0000;  stroke:#ffffff; stroke-width:0.0000; stroke-opacity:1;  stroke-linecap:round; stroke-linejoin:round;fill-rule:evenodd;" d="M 71.7651,55.4352 71.1156,55.0602 71.5306,54.3414 72.1801,54.7164 Z"/> 
</g>
<g style="fill:#ffffff; fill-opacity:1.0000;  stroke:#ffffff; stroke-width:0.0000; stroke-opacity:1;  stroke-linecap:round; stroke-linejoin:round;">
<path style="fill:#ffffff; fill-opacity:1.0000;  stroke:#ffffff; stroke-width:0.0000; stroke-opacity:1;  stroke-linecap:round; stroke-linejoin:round;fill-rule:evenodd;" d="M 89.0249,63.1964 89.6744,63.5714 89.2594,64.2902 88.6099,63.9152 Z"/> 
<path style="fill:#ffffff; fill-opacity:1.0000;  stroke:#ffffff; stroke-width:0.0000; stroke-opacity:1;  stroke-linecap:round; stroke-linejoin:round;fill-rule:evenodd;" d="M 88.4360,62.8564 88.8690,63.1064 88.4540,63.8252 88.0210,63.5752 Z"/> 
<path style="fill:#ffffff; fill-opacity:1.0000;  stroke:#ffffff; stroke-width:0.0000; stroke-opacity:1;  stroke-linecap:round; stroke-linejoin:round;fill-rule:evenodd;" d="M 87.6306,62.3914 88.2801,62.7664 87.8651,63.4852 87.2156,63.1102 Z"/> 
<path style="fill:#ffffff; fill-opacity:1.0000;  stroke:#ffffff; stroke-width:0.0000; stroke-opacity:1;  stroke-linecap:round; stroke-linejoin:round;fill-rule:evenodd;" d="M 86.8406,63.7598 87.4901,64.1348 87.0751,64.8536 86.4256,64.4786 Z"/> 
<path style="fill:#ffffff; fill-opacity:1.0000;  stroke:#ffffff; stroke-width:0.0000; stroke-opacity:1;  stroke-linecap:round; stroke-linejoin:round;fill-rule:evenodd;" d="M 87.6460,64.2248 88.0790,64.4748 87.6640,65.1936 87.2310,64.9436 Z"/> 
<path style="fill:#ffffff; fill-opacity:1.0000;  stroke:#ffffff; stroke-width:0.0000; stroke-opacity:1;  stroke-linecap:round; stroke-linejoin:round;fill-rule:evenodd;" d="M 88.2349,64.5648 88.8844,64.9398 88.4694,65.6586 87.8199,65.2836 Z"/> 
</g>
</g> 
</mask><mask id="pads-mask-silkscreen"><rect x="65.95" y="45.95" width="36.1" height="28.1" fill="white"/><g style="fill:#000000; fill-opacity:0.0;  stroke:#000000; stroke-width:0.0000; stroke-opacity:1;  stroke-linecap:round; stroke-linejoin:round;">
<g style="fill:#000000; fill-opacity:1.0000;  stroke:#000000; stroke-width:0.0000; stroke-opacity:1;  stroke-linecap:round; stroke-linejoin:round;">
<path style="fill:#000000; fill-opacity:1.0000;  stroke:#000000; stroke-width:0.0000; stroke-opacity:1;  stroke-linecap:round; stroke-linejoin:round;fill-rule:evenodd;" d="M 87.8199,54.7164 88.4694,54.3414 88.8844,55.0602 88.2349,55.4352 Z"/> 
<path style="fill:#000000; fill-opacity:1.0000;  stroke:#000000; stroke-width:0.0000; stroke-opacity:1;  stroke-linecap:round; stroke-linejoin:round;fill-rule:evenodd;" d="M 87.2310,55.0564 87.6640,54.8064 88.0790,55.5252 87.6460,55.7752 Z"/> 
<path style="fill:#000000; fill-opacity:1.0000;  stroke:#000000; stroke-width:0.0000; stroke-opacity:1;  stroke-linecap:round; stroke-linejoin:round;fill-rule:evenodd;" d="M 86.4256,55.5214 87.0751,55.1464 87.4901,55.8652 86.8406,56.2402 Z"/> 
<path style="fill:#000000; fill-opacity:1.0000;  stroke:#000000; stroke-width:0.0000; stroke-opacity:1;  stroke-linecap:round; stroke-linejoin:round;fill-rule:evenodd;" d="M 87.2156,56.8898 87.8651,56.5148 88.2801,57.2336 87.6306,57.6086 Z"/> 
<path style="fill:#000000; fill-opacity:1.0000;  stroke:#000000; stroke-width:0.0000; stroke-opacity:1;  stroke-linecap:round; stroke-linejoin:round;fill-rule:evenodd;" d="M 88.0210,56.4248 88.4540,56.1748 88.8690,56.8936 88.4360,57.1436 Z"/> 
<path style="fill:#000000; fill-opacity:1.0000;  stroke:#000000; stroke-width:0.0000; stroke-opacity:1;  stroke-linecap:round; stroke-linejoin:round;fill-rule:evenodd;" d="M 88.6099,56.0848 89.2594,55.7098 89.6744,56.4286 89.0249,56.8036 Z"/> 
</g>
<g style="fill:#000000; fill-opacity:1.0000;  stroke:#000000; stroke-width:0.0000; stroke-opacity:1;  stroke-linecap:round; stroke-linejoin:round;">
<path style="fill:#000000; fill-opacity:1.0000;  stroke:#000000; stroke-width:0.0000; stroke-opacity:1;  stroke-linecap:round; stroke-linejoin:round;fill-rule:evenodd;" d="M 81.2050,69.4300 81.2050,70.1800 80.3750,70.1800 80.3750,69.4300 Z"/> 
<path style="fill:#000000; fill-opacity:1.0000;  stroke:#000000; stroke-width:0.0000; stroke-opacity:1;  stroke-linecap:round; stroke-linejoin:round;fill-rule:evenodd;" d="M 81.2050,68.7500 81.2050,69.2500 80.3750,69.2500 80.3750,68.7500 Z"/> 
<path style="fill:#000000; fill-opacity:1.0000;  stroke:#000000; stroke-width:0.0000; stroke-opacity:1;  stroke-linecap:round; stroke-linejoin:round;fill-rule:evenodd;" d="M 81.2050,67.8200 81.2050,68.5700 80.3750,68.5700 80.3750,67.8200 Z"/> 
<path style="fill:#000000; fill-opacity:1.0000;  stroke:#000000; stroke-width:0.0000; stroke-opacity:1;  stroke-linecap:round; stroke-linejoin:round;fill-rule:evenodd;" d="M 79.6250,67.8200 79.6250,68.5700 78.7950,68.5700 78.7950,67.8200 Z"/> 
<path style="fill:#000000; fill-opacity:1.0000;  stroke:#000000; stroke-width:0.0000; stroke-opacity:1;  stroke-linecap:round; stroke-linejoin:round;fill-rule:evenodd;" d="M 79.6250,68.7500 79.6250,69.2500 78.7950,69.2500 78.7950,68.7500 Z"/> 
<path style="fill:#000000; fill-opacity:1.0000;  stroke:#000000; stroke-width:0.0000; stroke-opacity:1;  stroke-linecap:round; stroke-linejoin:round;fill-rule:evenodd;" d="M 79.6250,69.4300 79.6250,70.1800 78.7950,70.1800 78.7950,69.4300 Z"/> 
</g>
<g style="fill:#000000; fill-opacity:1.0000;  stroke:#000000; stroke-width:0.0000; stroke-opacity:1;  stroke-linecap:round; stroke-linejoin:round;">
<path style="fill:#000000; fill-opacity:1.0000;  stroke:#000000; stroke-width:0.0000; stroke-opacity:1;  stroke-linecap:round; stroke-linejoin:round;fill-rule:evenodd;" d="M 78.7950,50.5700 78.7950,49.8200 79.6250,49.8200 79.6250,50.5700 Z"/> 
<path style="fill:#000000; fill-opacity:1.0000;  stroke:#000000; stroke-width:0.0000; stroke-opacity:1;  stroke-linecap:round; stroke-linejoin:round;fill-rule:evenodd;" d="M 78.7950,51.2500 78.7950,50.7500 79.6250,50.7500 79.6250,51.2500 Z"/> 
<path style="fill:#000000; fill-opacity:1.0000;  stroke:#000000; stroke-width:0.0000; stroke-opacity:1;  stroke-linecap:round; stroke-linejoin:round;fill-rule:evenodd;" d="M 78.7950,52.1800 78.7950,51.4300 79.6250,51.4300 79.6250,52.1800 Z"/> 
<path style="fill:#000000; fill-opacity:1.0000;  stroke:#000000; stroke-width:0.0000; stroke-opacity:1;  stroke-linecap:round; stroke-linejoin:round;fill-rule:evenodd;" d="M 80.3750,52.1800 80.3750,51.4300 81.2050,51.4300 81.2050,52.1800 Z"/> 
<path style="fill:#000000; fill-opacity:1.0000;  stroke:#000000; stroke-width:0.0000; stroke-opacity:1;  stroke-linecap:round; stroke-linejoin:round;fill-rule:evenodd;" d="M 80.3750,51.2500 80.3750,50.7500 81.2050,50.7500 81.2050,51.2500 Z"/> 
<path style="fill:#000000; fill-opacity:1.0000;  stroke:#000000; stroke-width:0.0000; stroke-opacity:1;  stroke-linecap:round; stroke-linejoin:round;fill-rule:evenodd;" d="M 80.3750,50.5700 80.3750,49.8200 81.2050,49.8200 81.2050,50.5700 Z"/> 
</g>
<g style="fill:#000000; fill-opacity:1.0000;  stroke:#000000; stroke-width:0.0000; stroke-opacity:1;  stroke-linecap:round; stroke-linejoin:round;">
<path style="fill:#000000; fill-opacity:1.0000;  stroke:#000000; stroke-width:0.0000; stroke-opacity:1;  stroke-linecap:round; stroke-linejoin:round;fill-rule:evenodd;" d="M 72.1801,65.2836 71.5306,65.6586 71.1156,64.9398 71.7651,64.5648 Z"/> 
<path style="fill:#000000; fill-opacity:1.0000;  stroke:#000000; stroke-width:0.0000; stroke-opacity:1;  stroke-linecap:round; stroke-linejoin:round;fill-rule:evenodd;" d="M 72.7690,64.9436 72.3360,65.1936 71.9210,64.4748 72.3540,64.2248 Z"/> 
<path style="fill:#000000; fill-opacity:1.0000;  stroke:#000000; stroke-width:0.0000; stroke-opacity:1;  stroke-linecap:round; stroke-linejoin:round;fill-rule:evenodd;" d="M 73.5744,64.4786 72.9249,64.8536 72.5099,64.1348 73.1594,63.7598 Z"/> 
<path style="fill:#000000; fill-opacity:1.0000;  stroke:#000000; stroke-width:0.0000; stroke-opacity:1;  stroke-linecap:round; stroke-linejoin:round;fill-rule:evenodd;" d="M 72.7844,63.1102 72.1349,63.4852 71.7199,62.7664 72.3694,62.3914 Z"/> 
<path style="fill:#000000; fill-opacity:1.0000;  stroke:#000000; stroke-width:0.0000; stroke-opacity:1;  stroke-linecap:round; stroke-linejoin:round;fill-rule:evenodd;" d="M 71.9790,63.5752 71.5460,63.8252 71.1310,63.1064 71.5640,62.8564 Z"/> 
<path style="fill:#000000; fill-opacity:1.0000;  stroke:#000000; stroke-width:0.0000; stroke-opacity:1;  stroke-linecap:round; stroke-linejoin:round;fill-rule:evenodd;" d="M 71.3901,63.9152 70.7406,64.2902 70.3256,63.5714 70.9751,63.1964 Z"/> 
</g>
<g style="fill:#000000; fill-opacity:1.0000;  stroke:#000000; stroke-width:0.0000; stroke-opacity:1;  stroke-linecap:round; stroke-linejoin:round;">
<path style="fill:#000000; fill-opacity:1.0000;  stroke:#000000; stroke-width:0.0000; stroke-opacity:1;  stroke-linecap:round; stroke-linejoin:round;fill-rule:evenodd;" d="M 70.9751,56.8036 70.3256,56.4286 70.7406,55.7098 71.3901,56.0848 Z"/> 
<path style="fill:#000000; fill-opacity:1.0000;  stroke:#000000; stroke-width:0.0000; stroke-opacity:1;  stroke-linecap:round; stroke-linejoin:round;fill-rule:evenodd;" d="M 71.5640,57.1436 71.1310,56.8936 71.5460,56.1748 71.9790,56.4248 Z"/> 
<path style="fill:#000000; fill-opacity:1.0000;  stroke:#000000; stroke-width:0.0000; stroke-opacity:1;  stroke-linecap:round; stroke-linejoin:round;fill-rule:evenodd;" d="M 72.3694,57.6086 71.7199,57.2336 72.1349,56.5148 72.7844,56.8898 Z"/> 
<path style="fill:#000000; fill-opacity:1.0000;  stroke:#000000; stroke-width:0.0000; stroke-opacity:1;  stroke-linecap:round; stroke-linejoin:round;fill-rule:evenodd;" d="M 73.1594,56.2402 72.5099,55.8652 72.9249,55.1464 73.5744,55.5214 Z"/> 
<path style="fill:#000000; fill-opacity:1.0000;  stroke:#000000; stroke-width:0.0000; stroke-opacity:1;  stroke-linecap:round; stroke-linejoin:round;fill-rule:evenodd;" d="M 72.3540,55.7752 71.9210,55.5252 72.3360,54.8064 72.7690,55.0564 Z"/> 
<path style="fill:#000000; fill-opacity:1.0000;  stroke:#000000; stroke-width:0.0000; stroke-opacity:1;  stroke-linecap:round; stroke-linejoin:round;fill-rule:evenodd;" d="M 71.7651,55.4352 71.1156,55.0602 71.5306,54.3414 72.1801,54.7164 Z"/> 
</g>
<g style="fill:#000000; fill-opacity:1.0000;  stroke:#000000; stroke-width:0.0000; stroke-opacity:1;  stroke-linecap:round; stroke-linejoin:round;">
<path style="fill:#000000; fill-opacity:1.0000;  stroke:#000000; stroke-width:0.0000; stroke-opacity:1;  stroke-linecap:round; stroke-linejoin:round;fill-rule:evenodd;" d="M 89.0249,63.1964 89.6744,63.5714 89.2594,64.2902 88.6099,63.9152 Z"/> 
<path style="fill:#000000; fill-opacity:1.0000;  stroke:#000000; stroke-width:0.0000; stroke-opacity:1;  stroke-linecap:round; stroke-linejoin:round;fill-rule:evenodd;" d="M 88.4360,62.8564 88.8690,63.1064 88.4540,63.8252 88.0210,63.5752 Z"/> 
<path style="fill:#000000; fill-opacity:1.0000;  stroke:#000000; stroke-width:0.0000; stroke-opacity:1;  stroke-linecap:round; stroke-linejoin:round;fill-rule:evenodd;" d="M 87.6306,62.3914 88.2801,62.7664 87.8651,63.4852 87.2156,63.1102 Z"/> 
<path style="fill:#000000; fill-opacity:1.0000;  stroke:#000000; stroke-width:0.0000; stroke-opacity:1;  stroke-linecap:round; stroke-linejoin:round;fill-rule:evenodd;" d="M 86.8406,63.7598 87.4901,64.1348 87.0751,64.8536 86.4256,64.4786 Z"/> 
<path style="fill:#000000; fill-opacity:1.0000;  stroke:#000000; stroke-width:0.0000; stroke-opacity:1;  stroke-linecap:round; stroke-linejoin:round;fill-rule:evenodd;" d="M 87.6460,64.2248 88.0790,64.4748 87.6640,65.1936 87.2310,64.9436 Z"/> 
<path style="fill:#000000; fill-opacity:1.0000;  stroke:#000000; stroke-width:0.0000; stroke-opacity:1;  stroke-linecap:round; stroke-linejoin:round;fill-rule:evenodd;" d="M 88.2349,64.5648 88.8844,64.9398 88.4694,65.6586 87.8199,65.2836 Z"/> 
</g>
</g> 
</mask><mask id="hole-mask"><g><rect x="65.95" y="45.95" fill="white" width="36.1" height="28.1"/><polyline stroke-linecap="round" stroke="black" stroke-width="0.4" points="-0.0 0 0.0 0" transform="translate(89.5 61.4) rotate(-0.0)"/><polyline stroke-linecap="round" stroke="black" stroke-width="0.4" points="-0.0 0 0.0 0" transform="translate(90.5 61.4) rotate(-0.0)"/><polyline stroke-linecap="round" stroke="black" stroke-width="0.4" points="-0.0 0 0.0 0" transform="translate(82.7 71.1) rotate(-0.0)"/><polyline stroke-linecap="round" stroke="black" stroke-width="0.4" points="-0.0 0 0.0 0" transform="translate(98.14 72.54) rotate(-0.0)"/><polyline stroke-linecap="round" stroke="black" stroke-width="0.4" points="-0.0 0 0.0 0" transform="translate(99.2 55.2) rotate(-0.0)"/><polyline stroke-linecap="round" stroke="black" stroke-width="0.4" points="-0.0 0 0.0 0" transform="translate(92.4 55.5) rotate(-0.0)"/><polyline stroke-linecap="round" stroke="black" stroke-width="0.4" points="-0.0 0 0.0 0" transform="translate(90.8 53.4) rotate(-0.0)"/><polyline stroke-linecap="round" stroke="black" stroke-width="0.4" points="-0.0 0 0.0 0" transform="translate(90.8 52.2) rotate(-0.0)"/></g></mask></defs><g transform="" id="boardContainer"><g id="substrate" clip-path="url(#cut-off)" mask="url(#hole-mask)"><g id="substrate-board" style="fill:#208b47; stroke:#208b47;"><path d=" M 80.0000 60.0000 m-6.1000 0 a 6.1000 6.1000 0 1 0 12.2 0 a 6.1000 6.1000 0 1 0 -12.2 0  M 67.0 74.0 L 101.0 74.0 A 1 1 0 0 0 102.0 73.0 L 102.0 47.0 A 1 1 0 0 0 101.0 46.0 L 67.0 46.0 A 1 1 0 0 0 66.0 47.0 L 66.0 73.0 A 1 1 0 0 0 67.0 74.0 " style="fill-rule: evenodd;"/><g style="fill-opacity: 0.0;stroke-width: 0.1000;stroke-opacity: 1;stroke-linecap: round;stroke-linejoin: round">
<path d="M66.0000 73.0000 A1.0000 1.0000 0.0 0 0 67.0000 74.0000"/>
<circle cx="80.0000" cy="60.0000" r="6.1000"/> 
<path d="M102.0000 47.0000 L102.0000 73.0000 "/>
<path d="M66.0000 73.0000 L66.0000 47.0000 "/>
<path d="M101.0000 74.0000 A1.0000 1.0000 0.0 0 0 102.0000 73.0000"/>
<path d="M67.0000 46.0000 L101.0000 46.0000 "/>
<path d="M101.0000 74.0000 L67.0000 74.0000 "/>
<path d="M67.0000 46.0000 A1.0000 1.0000 0.0 0 0 66.0000 47.0000"/>
<path d="M102.0000 47.0000 A1.0000 1.0000 0.0 0 0 101.0000 46.0000"/>
</g> 
</g><g id="substrate-clad" style="fill:#332B16; stroke:#332B16;"><g style="fill-opacity: 0.0;stroke-width: 0.0000;stroke-opacity: 1;stroke-linecap: round;stroke-linejoin: round">
<g style="fill-opacity: 1.0000;stroke-width: 0.0000;stroke-opacity: 1;stroke-linecap: round;stroke-linejoin: round">
<path style="fill-opacity: 1.0000;stroke-width: 0.0000;stroke-opacity: 1;stroke-linecap: round;stroke-linejoin: round;fill-rule: evenodd" d="M 87.8199,54.7164 88.4694,54.3414 88.8844,55.0602 88.2349,55.4352 Z"/> 
<path style="fill-opacity: 1.0000;stroke-width: 0.0000;stroke-opacity: 1;stroke-linecap: round;stroke-linejoin: round;fill-rule: evenodd" d="M 87.2310,55.0564 87.6640,54.8064 88.0790,55.5252 87.6460,55.7752 Z"/> 
<path style="fill-opacity: 1.0000;stroke-width: 0.0000;stroke-opacity: 1;stroke-linecap: round;stroke-linejoin: round;fill-rule: evenodd" d="M 86.4256,55.5214 87.0751,55.1464 87.4901,55.8652 86.8406,56.2402 Z"/> 
<path style="fill-opacity: 1.0000;stroke-width: 0.0000;stroke-opacity: 1;stroke-linecap: round;stroke-linejoin: round;fill-rule: evenodd" d="M 87.2156,56.8898 87.8651,56.5148 88.2801,57.2336 87.6306,57.6086 Z"/> 
<path style="fill-opacity: 1.0000;stroke-width: 0.0000;stroke-opacity: 1;stroke-linecap: round;stroke-linejoin: round;fill-rule: evenodd" d="M 88.0210,56.4248 88.4540,56.1748 88.8690,56.8936 88.4360,57.1436 Z"/> 
<path style="fill-opacity: 1.0000;stroke-width: 0.0000;stroke-opacity: 1;stroke-linecap: round;stroke-linejoin: round;fill-rule: evenodd" d="M 88.6099,56.0848 89.2594,55.7098 89.6744,56.4286 89.0249,56.8036 Z"/> 
</g>
<g style="fill-opacity: 1.0000;stroke-width: 0.0000;stroke-opacity: 1;stroke-linecap: round;stroke-linejoin: round">
<path style="fill-opacity: 1.0000;stroke-width: 0.0000;stroke-opacity: 1;stroke-linecap: round;stroke-linejoin: round;fill-rule: evenodd" d="M 81.2050,69.4300 81.2050,70.1800 80.3750,70.1800 80.3750,69.4300 Z"/> 
<path style="fill-opacity: 1.0000;stroke-width: 0.0000;stroke-opacity: 1;stroke-linecap: round;stroke-linejoin: round;fill-rule: evenodd" d="M 81.2050,68.7500 81.2050,69.2500 80.3750,69.2500 80.3750,68.7500 Z"/> 
<path style="fill-opacity: 1.0000;stroke-width: 0.0000;stroke-opacity: 1;stroke-linecap: round;stroke-linejoin: round;fill-rule: evenodd" d="M 81.2050,67.8200 81.2050,68.5700 80.3750,68.5700 80.3750,67.8200 Z"/> 
<path style="fill-opacity: 1.0000;stroke-width: 0.0000;stroke-opacity: 1;stroke-linecap: round;stroke-linejoin: round;fill-rule: evenodd" d="M 79.6250,67.8200 79.6250,68.5700 78.7950,68.5700 78.7950,67.8200 Z"/> 
<path style="fill-opacity: 1.0000;stroke-width: 0.0000;stroke-opacity: 1;stroke-linecap: round;stroke-linejoin: round;fill-rule: evenodd" d="M 79.6250,68.7500 79.6250,69.2500 78.7950,69.2500 78.7950,68.7500 Z"/> 
<path style="fill-opacity: 1.0000;stroke-width: 0.0000;stroke-opacity: 1;stroke-linecap: round;stroke-linejoin: round;fill-rule: evenodd" d="M 79.6250,69.4300 79.6250,70.1800 78.7950,70.1800 78.7950,69.4300 Z"/> 
</g>
<g style="fill-opacity: 1.0000;stroke-width: 0.0000;stroke-opacity: 1;stroke-linecap: round;stroke-linejoin: round">
<path style="fill-opacity: 1.0000;stroke-width: 0.0000;stroke-opacity: 1;stroke-linecap: round;stroke-linejoin: round;fill-rule: evenodd" d="M 78.7950,50.5700 78.7950,49.8200 79.6250,49.8200 79.6250,50.5700 Z"/> 
<path style="fill-opacity: 1.0000;stroke-width: 0.0000;stroke-opacity: 1;stroke-linecap: round;stroke-linejoin: round;fill-rule: evenodd" d="M 78.7950,51.2500 78.7950,50.7500 79.6250,50.7500 79.6250,51.2500 Z"/> 
<path style="fill-opacity: 1.0000;stroke-width: 0.0000;stroke-opacity: 1;stroke-linecap: round;stroke-linejoin: round;fill-rule: evenodd" d="M 78.7950,52.1800 78.7950,51.4300 79.6250,51.4300 79.6250,52.1800 Z"/> 
<path style="fill-opacity: 1.0000;stroke-width: 0.0000;stroke-opacity: 1;stroke-linecap: round;stroke-linejoin: round;fill-rule: evenodd" d="M 80.3750,52.1800 80.3750,51.4300 81.2050,51.4300 81.2050,52.1800 Z"/> 
<path style="fill-opacity: 1.0000;stroke-width: 0.0000;stroke-opacity: 1;stroke-linecap: round;stroke-linejoin: round;fill-rule: evenodd" d="M 80.3750,51.2500 80.3750,50.7500 81.2050,50.7500 81.2050,51.2500 Z"/> 
<path style="fill-opacity: 1.0000;stroke-width: 0.0000;stroke-opacity: 1;stroke-linecap: round;stroke-linejoin: round;fill-rule: evenodd" d="M 80.3750,50.5700 80.3750,49.8200 81.2050,49.8200 81.2050,50.5700 Z"/> 
</g>
<g style="fill-opacity: 1.0000;stroke-width: 0.0000;stroke-opacity: 1;stroke-linecap: round;stroke-linejoin: round">
<path style="fill-opacity: 1.0000;stroke-width: 0.0000;stroke-opacity: 1;stroke-linecap: round;stroke-linejoin: round;fill-rule: evenodd" d="M 72.1801,65.2836 71.5306,65.6586 71.1156,64.9398 71.7651,64.5648 Z"/> 
<path style="fill-opacity: 1.0000;stroke-width: 0.0000;stroke-opacity: 1;stroke-linecap: round;stroke-linejoin: round;fill-rule: evenodd" d="M 72.7690,64.9436 72.3360,65.1936 71.9210,64.4748 72.3540,64.2248 Z"/> 
<path style="fill-opacity: 1.0000;stroke-width: 0.0000;stroke-opacity: 1;stroke-linecap: round;stroke-linejoin: round;fill-rule: evenodd" d="M 73.5744,64.4786 72.9249,64.8536 72.5099,64.1348 73.1594,63.7598 Z"/> 
<path style="fill-opacity: 1.0000;stroke-width: 0.0000;stroke-opacity: 1;stroke-linecap: round;stroke-linejoin: round;fill-rule: evenodd" d="M 72.7844,63.1102 72.1349,63.4852 71.7199,62.7664 72.3694,62.3914 Z"/> 
<path style="fill-opacity: 1.0000;stroke-width: 0.0000;stroke-opacity: 1;stroke-linecap: round;stroke-linejoin: round;fill-rule: evenodd" d="M 71.9790,63.5752 71.5460,63.8252 71.1310,63.1064 71.5640,62.8564 Z"/> 
<path style="fill-opacity: 1.0000;stroke-width: 0.0000;stroke-opacity: 1;stroke-linecap: round;stroke-linejoin: round;fill-rule: evenodd" d="M 71.3901,63.9152 70.7406,64.2902 70.3256,63.5714 70.9751,63.1964 Z"/> 
</g>
<g style="fill-opacity: 1.0000;stroke-width: 0.0000;stroke-opacity: 1;stroke-linecap: round;stroke-linejoin: round">
<path style="fill-opacity: 1.0000;stroke-width: 0.0000;stroke-opacity: 1;stroke-linecap: round;stroke-linejoin: round;fill-rule: evenodd" d="M 70.9751,56.8036 70.3256,56.4286 70.7406,55.7098 71.3901,56.0848 Z"/> 
<path style="fill-opacity: 1.0000;stroke-width: 0.0000;stroke-opacity: 1;stroke-linecap: round;stroke-linejoin: round;fill-rule: evenodd" d="M 71.5640,57.1436 71.1310,56.8936 71.5460,56.1748 71.9790,56.4248 Z"/> 
<path style="fill-opacity: 1.0000;stroke-width: 0.0000;stroke-opacity: 1;stroke-linecap: round;stroke-linejoin: round;fill-rule: evenodd" d="M 72.3694,57.6086 71.7199,57.2336 72.1349,56.5148 72.7844,56.8898 Z"/> 
<path style="fill-opacity: 1.0000;stroke-width: 0.0000;stroke-opacity: 1;stroke-linecap: round;stroke-linejoin: round;fill-rule: evenodd" d="M 73.1594,56.2402 72.5099,55.8652 72.9249,55.1464 73.5744,55.5214 Z"/> 
<path style="fill-opacity: 1.0000;stroke-width: 0.0000;stroke-opacity: 1;stroke-linecap: round;stroke-linejoin: round;fill-rule: evenodd" d="M 72.3540,55.7752 71.9210,55.5252 72.3360,54.8064 72.7690,55.0564 Z"/> 
<path style="fill-opacity: 1.0000;stroke-width: 0.0000;stroke-opacity: 1;stroke-linecap: round;stroke-linejoin: round;fill-rule: evenodd" d="M 71.7651,55.4352 71.1156,55.0602 71.5306,54.3414 72.1801,54.7164 Z"/> 
</g>
<g style="fill-opacity: 1.0000;stroke-width: 0.0000;stroke-opacity: 1;stroke-linecap: round;stroke-linejoin: round">
<path style="fill-opacity: 1.0000;stroke-width: 0.0000;stroke-opacity: 1;stroke-linecap: round;stroke-linejoin: round;fill-rule: evenodd" d="M 89.0249,63.1964 89.6744,63.5714 89.2594,64.2902 88.6099,63.9152 Z"/> 
<path style="fill-opacity: 1.0000;stroke-width: 0.0000;stroke-opacity: 1;stroke-linecap: round;stroke-linejoin: round;fill-rule: evenodd" d="M 88.4360,62.8564 88.8690,63.1064 88.4540,63.8252 88.0210,63.5752 Z"/> 
<path style="fill-opacity: 1.0000;stroke-width: 0.0000;stroke-opacity: 1;stroke-linecap: round;stroke-linejoin: round;fill-rule: evenodd" d="M 87.6306,62.3914 88.2801,62.7664 87.8651,63.4852 87.2156,63.1102 Z"/> 
<path style="fill-opacity: 1.0000;stroke-width: 0.0000;stroke-opacity: 1;stroke-linecap: round;stroke-linejoin: round;fill-rule: evenodd" d="M 86.8406,63.7598 87.4901,64.1348 87.0751,64.8536 86.4256,64.4786 Z"/> 
<path style="fill-opacity: 1.0000;stroke-width: 0.0000;stroke-opacity: 1;stroke-linecap: round;stroke-linejoin: round;fill-rule: evenodd" d="M 87.6460,64.2248 88.0790,64.4748 87.6640,65.1936 87.2310,64.9436 Z"/> 
<path style="fill-opacity: 1.0000;stroke-width: 0.0000;stroke-opacity: 1;stroke-linecap: round;stroke-linejoin: round;fill-rule: evenodd" d="M 88.2349,64.5648 88.8844,64.9398 88.4694,65.6586 87.8199,65.2836 Z"/> 
</g>
</g> 
</g><g id="substrate-copper" style="fill:#285e3a; stroke:#285e3a;"><g style="fill-opacity: 0.0;stroke-width: 0.0000;stroke-opacity: 1;stroke-linecap: round;stroke-linejoin: round">
<g style="fill-opacity: 1.0000;stroke-width: 0.0000;stroke-opacity: 1;stroke-linecap: round;stroke-linejoin: round">
<path style="fill-opacity: 1.0000;stroke-width: 0.0000;stroke-opacity: 1;stroke-linecap: round;stroke-linejoin: round;fill-rule: evenodd" d="M 87.8199,54.7164 88.4694,54.3414 88.8844,55.0602 88.2349,55.4352 Z"/> 
<path style="fill-opacity: 1.0000;stroke-width: 0.0000;stroke-opacity: 1;stroke-linecap: round;stroke-linejoin: round;fill-rule: evenodd" d="M 87.2310,55.0564 87.6640,54.8064 88.0790,55.5252 87.6460,55.7752 Z"/> 
<path style="fill-opacity: 1.0000;stroke-width: 0.0000;stroke-opacity: 1;stroke-linecap: round;stroke-linejoin: round;fill-rule: evenodd" d="M 86.4256,55.5214 87.0751,55.1464 87.4901,55.8652 86.8406,56.2402 Z"/> 
<path style="fill-opacity: 1.0000;stroke-width: 0.0000;stroke-opacity: 1;stroke-linecap: round;stroke-linejoin: round;fill-rule: evenodd" d="M 87.2156,56.8898 87.8651,56.5148 88.2801,57.2336 87.6306,57.6086 Z"/> 
<path style="fill-opacity: 1.0000;stroke-width: 0.0000;stroke-opacity: 1;stroke-linecap: round;stroke-linejoin: round;fill-rule: evenodd" d="M 88.0210,56.4248 88.4540,56.1748 88.8690,56.8936 88.4360,57.1436 Z"/> 
<path style="fill-opacity: 1.0000;stroke-width: 0.0000;stroke-opacity: 1;stroke-linecap: round;stroke-linejoin: round;fill-rule: evenodd" d="M 88.6099,56.0848 89.2594,55.7098 89.6744,56.4286 89.0249,56.8036 Z"/> 
</g>
<g style="fill-opacity: 1.0000;stroke-width: 0.0000;stroke-opacity: 1;stroke-linecap: round;stroke-linejoin: round">
<path style="fill-opacity: 1.0000;stroke-width: 0.0000;stroke-opacity: 1;stroke-linecap: round;stroke-linejoin: round;fill-rule: evenodd" d="M 81.2050,69.4300 81.2050,70.1800 80.3750,70.1800 80.3750,69.4300 Z"/> 
<path style="fill-opacity: 1.0000;stroke-width: 0.0000;stroke-opacity: 1;stroke-linecap: round;stroke-linejoin: round;fill-rule: evenodd" d="M 81.2050,68.7500 81.2050,69.2500 80.3750,69.2500 80.3750,68.7500 Z"/> 
<path style="fill-opacity: 1.0000;stroke-width: 0.0000;stroke-opacity: 1;stroke-linecap: round;stroke-linejoin: round;fill-rule: evenodd" d="M 81.2050,67.8200 81.2050,68.5700 80.3750,68.5700 80.3750,67.8200 Z"/> 
<path style="fill-opacity: 1.0000;stroke-width: 0.0000;stroke-opacity: 1;stroke-linecap: round;stroke-linejoin: round;fill-rule: evenodd" d="M 79.6250,67.8200 79.6250,68.5700 78.7950,68.5700 78.7950,67.8200 Z"/> 
<path style="fill-opacity: 1.0000;stroke-width: 0.0000;stroke-opacity: 1;stroke-linecap: round;stroke-linejoin: round;fill-rule: evenodd" d="M 79.6250,68.7500 79.6250,69.2500 78.7950,69.2500 78.7950,68.7500 Z"/> 
<path style="fill-opacity: 1.0000;stroke-width: 0.0000;stroke-opacity: 1;stroke-linecap: round;stroke-linejoin: round;fill-rule: evenodd" d="M 79.6250,69.4300 79.6250,70.1800 78.7950,70.1800 78.7950,69.4300 Z"/> 
</g>
<g style="fill-opacity: 1.0000;stroke-width: 0.0000;stroke-opacity: 1;stroke-linecap: round;stroke-linejoin: round">
<path style="fill-opacity: 1.0000;stroke-width: 0.0000;stroke-opacity: 1;stroke-linecap: round;stroke-linejoin: round;fill-rule: evenodd" d="M 78.7950,50.5700 78.7950,49.8200 79.6250,49.8200 79.6250,50.5700 Z"/> 
<path style="fill-opacity: 1.0000;stroke-width: 0.0000;stroke-opacity: 1;stroke-linecap: round;stroke-linejoin: round;fill-rule: evenodd" d="M 78.7950,51.2500 78.7950,50.7500 79.6250,50.7500 79.6250,51.2500 Z"/> 
<path style="fill-opacity: 1.0000;stroke-width: 0.0000;stroke-opacity: 1;stroke-linecap: round;stroke-linejoin: round;fill-rule: evenodd" d="M 78.7950,52.1800 78.7950,51.4300 79.6250,51.4300 79.6250,52.1800 Z"/> 
<path style="fill-opacity: 1.0000;stroke-width: 0.0000;stroke-opacity: 1;stroke-linecap: round;stroke-linejoin: round;fill-rule: evenodd" d="M 80.3750,52.1800 80.3750,51.4300 81.2050,51.4300 81.2050,52.1800 Z"/> 
<path style="fill-opacity: 1.0000;stroke-width: 0.0000;stroke-opacity: 1;stroke-linecap: round;stroke-linejoin: round;fill-rule: evenodd" d="M 80.3750,51.2500 80.3750,50.7500 81.2050,50.7500 81.2050,51.2500 Z"/> 
<path style="fill-opacity: 1.0000;stroke-width: 0.0000;stroke-opacity: 1;stroke-linecap: round;stroke-linejoin: round;fill-rule: evenodd" d="M 80.3750,50.5700 80.3750,49.8200 81.2050,49.8200 81.2050,50.5700 Z"/> 
</g>
<g style="fill-opacity: 1.0000;stroke-width: 0.0000;stroke-opacity: 1;stroke-linecap: round;stroke-linejoin: round">
<path style="fill-opacity: 1.0000;stroke-width: 0.0000;stroke-opacity: 1;stroke-linecap: round;stroke-linejoin: round;fill-rule: evenodd" d="M 72.1801,65.2836 71.5306,65.6586 71.1156,64.9398 71.7651,64.5648 Z"/> 
<path style="fill-opacity: 1.0000;stroke-width: 0.0000;stroke-opacity: 1;stroke-linecap: round;stroke-linejoin: round;fill-rule: evenodd" d="M 72.7690,64.9436 72.3360,65.1936 71.9210,64.4748 72.3540,64.2248 Z"/> 
<path style="fill-opacity: 1.0000;stroke-width: 0.0000;stroke-opacity: 1;stroke-linecap: round;stroke-linejoin: round;fill-rule: evenodd" d="M 73.5744,64.4786 72.9249,64.8536 72.5099,64.1348 73.1594,63.7598 Z"/> 
<path style="fill-opacity: 1.0000;stroke-width: 0.0000;stroke-opacity: 1;stroke-linecap: round;stroke-linejoin: round;fill-rule: evenodd" d="M 72.7844,63.1102 72.1349,63.4852 71.7199,62.7664 72.3694,62.3914 Z"/> 
<path style="fill-opacity: 1.0000;stroke-width: 0.0000;stroke-opacity: 1;stroke-linecap: round;stroke-linejoin: round;fill-rule: evenodd" d="M 71.9790,63.5752 71.5460,63.8252 71.1310,63.1064 71.5640,62.8564 Z"/> 
<path style="fill-opacity: 1.0000;stroke-width: 0.0000;stroke-opacity: 1;stroke-linecap: round;stroke-linejoin: round;fill-rule: evenodd" d="M 71.3901,63.9152 70.7406,64.2902 70.3256,63.5714 70.9751,63.1964 Z"/> 
</g>
<g style="fill-opacity: 1.0000;stroke-width: 0.0000;stroke-opacity: 1;stroke-linecap: round;stroke-linejoin: round">
<path style="fill-opacity: 1.0000;stroke-width: 0.0000;stroke-opacity: 1;stroke-linecap: round;stroke-linejoin: round;fill-rule: evenodd" d="M 70.9751,56.8036 70.3256,56.4286 70.7406,55.7098 71.3901,56.0848 Z"/> 
<path style="fill-opacity: 1.0000;stroke-width: 0.0000;stroke-opacity: 1;stroke-linecap: round;stroke-linejoin: round;fill-rule: evenodd" d="M 71.5640,57.1436 71.1310,56.8936 71.5460,56.1748 71.9790,56.4248 Z"/> 
<path style="fill-opacity: 1.0000;stroke-width: 0.0000;stroke-opacity: 1;stroke-linecap: round;stroke-linejoin: round;fill-rule: evenodd" d="M 72.3694,57.6086 71.7199,57.2336 72.1349,56.5148 72.7844,56.8898 Z"/> 
<path style="fill-opacity: 1.0000;stroke-width: 0.0000;stroke-opacity: 1;stroke-linecap: round;stroke-linejoin: round;fill-rule: evenodd" d="M 73.1594,56.2402 72.5099,55.8652 72.9249,55.1464 73.5744,55.5214 Z"/> 
<path style="fill-opacity: 1.0000;stroke-width: 0.0000;stroke-opacity: 1;stroke-linecap: round;stroke-linejoin: round;fill-rule: evenodd" d="M 72.3540,55.7752 71.9210,55.5252 72.3360,54.8064 72.7690,55.0564 Z"/> 
<path style="fill-opacity: 1.0000;stroke-width: 0.0000;stroke-opacity: 1;stroke-linecap: round;stroke-linejoin: round;fill-rule: evenodd" d="M 71.7651,55.4352 71.1156,55.0602 71.5306,54.3414 72.1801,54.7164 Z"/> 
</g>
<g style="fill-opacity: 1.0000;stroke-width: 0.0000;stroke-opacity: 1;stroke-linecap: round;stroke-linejoin: round">
<path style="fill-opacity: 1.0000;stroke-width: 0.0000;stroke-opacity: 1;stroke-linecap: round;stroke-linejoin: round;fill-rule: evenodd" d="M 89.0249,63.1964 89.6744,63.5714 89.2594,64.2902 88.6099,63.9152 Z"/> 
<path style="fill-opacity: 1.0000;stroke-width: 0.0000;stroke-opacity: 1;stroke-linecap: round;stroke-linejoin: round;fill-rule: evenodd" d="M 88.4360,62.8564 88.8690,63.1064 88.4540,63.8252 88.0210,63.5752 Z"/> 
<path style="fill-opacity: 1.0000;stroke-width: 0.0000;stroke-opacity: 1;stroke-linecap: round;stroke-linejoin: round;fill-rule: evenodd" d="M 87.6306,62.3914 88.2801,62.7664 87.8651,63.4852 87.2156,63.1102 Z"/> 
<path style="fill-opacity: 1.0000;stroke-width: 0.0000;stroke-opacity: 1;stroke-linecap: round;stroke-linejoin: round;fill-rule: evenodd" d="M 86.8406,63.7598 87.4901,64.1348 87.0751,64.8536 86.4256,64.4786 Z"/> 
<path style="fill-opacity: 1.0000;stroke-width: 0.0000;stroke-opacity: 1;stroke-linecap: round;stroke-linejoin: round;fill-rule: evenodd" d="M 87.6460,64.2248 88.0790,64.4748 87.6640,65.1936 87.2310,64.9436 Z"/> 
<path style="fill-opacity: 1.0000;stroke-width: 0.0000;stroke-opacity: 1;stroke-linecap: round;stroke-linejoin: round;fill-rule: evenodd" d="M 88.2349,64.5648 88.8844,64.9398 88.4694,65.6586 87.8199,65.2836 Z"/> 
</g>
<g style="fill-opacity: 1.0000;stroke-width: 0.0000;stroke-opacity: 1;stroke-linecap: round;stroke-linejoin: round">
<circle cx="89.5000" cy="61.4000" r="0.4000"/> 
</g>
<g style="fill-opacity: 1.0000;stroke-width: 0.0000;stroke-opacity: 1;stroke-linecap: round;stroke-linejoin: round">
<circle cx="90.5000" cy="61.4000" r="0.4000"/> 
</g>
<g style="fill-opacity: 1.0000;stroke-width: 0.0000;stroke-opacity: 1;stroke-linecap: round;stroke-linejoin: round">
<circle cx="82.7000" cy="71.1000" r="0.4000"/> 
</g>
<g style="fill-opacity: 1.0000;stroke-width: 0.0000;stroke-opacity: 1;stroke-linecap: round;stroke-linejoin: round">
<circle cx="98.1400" cy="72.5400" r="0.4000"/> 
</g>
<g style="fill-opacity: 1.0000;stroke-width: 0.0000;stroke-opacity: 1;stroke-linecap: round;stroke-linejoin: round">
<circle cx="99.2000" cy="55.2000" r="0.4000"/> 
</g>
<g style="fill-opacity: 1.0000;stroke-width: 0.0000;stroke-opacity: 1;stroke-linecap: round;stroke-linejoin: round">
<circle cx="92.4000" cy="55.5000" r="0.4000"/> 
</g>
<g style="fill-opacity: 1.0000;stroke-width: 0.0000;stroke-opacity: 1;stroke-linecap: round;stroke-linejoin: round">
<circle cx="90.8000" cy="53.4000" r="0.4000"/> 
</g>
<g style="fill-opacity: 1.0000;stroke-width: 0.0000;stroke-opacity: 1;stroke-linecap: round;stroke-linejoin: round">
<circle cx="90.8000" cy="52.2000" r="0.4000"/> 
</g>
<g style="fill-opacity: 0.0;stroke-width: 0.2500;stroke-opacity: 1;stroke-linecap: round;stroke-linejoin: round">
<path d="M83.1050 68.1950 L80.7900 68.1950 "/>
<path d="M86.9578 64.3067 L86.9578 64.3422 "/>
<path d="M86.9578 64.3422 L83.1050 68.1950 "/>
<path d="M87.6550 64.7450 L83.4000 69.0000 "/>
<path d="M87.6550 64.7092 L87.6550 64.7450 "/>
<path d="M83.4000 69.0000 L80.7900 69.0000 "/>
<path d="M88.3521 65.1117 L83.6588 69.8050 "/>
<path d="M83.6588 69.8050 L80.7900 69.8050 "/>
<path d="M76.7950 68.1950 L73.0421 64.4421 "/>
<path d="M79.2100 68.1950 L76.7950 68.1950 "/>
<path d="M73.0421 64.4421 L73.0421 64.3067 "/>
<path d="M76.5000 69.0000 L72.3450 64.8450 "/>
<path d="M72.3450 64.8450 L72.3450 64.7092 "/>
<path d="M79.2100 69.0000 L76.5000 69.0000 "/>
<path d="M79.2100 69.8050 L76.3412 69.8050 "/>
<path d="M76.3412 69.8050 L71.6478 65.1117 "/>
<path d="M72.2522 62.9383 L72.1000 62.7862 "/>
<path d="M72.1000 57.2138 L72.2522 57.0617 "/>
<path d="M72.1000 62.7862 L72.1000 57.2138 "/>
<path d="M71.3000 63.0858 L71.3000 56.9142 "/>
<path d="M71.5550 63.3408 L71.3000 63.0858 "/>
<path d="M71.3000 56.9142 L71.5550 56.6592 "/>
<path d="M70.8578 63.7433 L70.6000 63.4855 "/>
<path d="M70.6000 63.4855 L70.6000 56.5145 "/>
<path d="M70.6000 56.5145 L70.8578 56.2567 "/>
<path d="M76.9305 51.8050 L79.2100 51.8050 "/>
<path d="M73.0421 55.6933 L76.9305 51.8050 "/>
<path d="M76.6117 51.0000 L72.3329 55.2788 "/>
<path d="M79.2100 51.0000 L76.6117 51.0000 "/>
<path d="M79.2100 50.1950 L76.3412 50.1950 "/>
<path d="M76.3412 50.1950 L71.6478 54.8883 "/>
<path d="M80.7900 51.8050 L83.0695 51.8050 "/>
<path d="M83.0695 51.8050 L86.9578 55.6933 "/>
<path d="M85.6000 53.2000 L85.6000 53.2117 "/>
<path d="M83.4000 51.0000 L85.6000 53.2000 "/>
<path d="M80.7900 51.0000 L83.4000 51.0000 "/>
<path d="M85.6000 53.2117 L87.6671 55.2788 "/>
<path d="M83.6588 50.1950 L88.3521 54.8883 "/>
<path d="M80.7900 50.1950 L83.6588 50.1950 "/>
<path d="M87.7478 57.0617 L88.2500 57.5638 "/>
<path d="M88.3000 57.8000 L88.2500 57.7500 "/>
<path d="M88.2500 57.5638 L88.2500 57.7500 "/>
<path d="M92.4000 55.5000 L90.1000 57.8000 "/>
<path d="M90.1000 57.8000 L88.3000 57.8000 "/>
<path d="M90.8000 53.4000 L90.8000 56.1000 "/>
<path d="M90.8000 56.1000 L89.6000 57.3000 "/>
<path d="M89.0617 57.3000 L88.4329 56.6712 "/>
<path d="M89.6000 57.3000 L89.0617 57.3000 "/>
<path d="M90.1000 55.5000 L90.0750 55.4750 "/>
<path d="M89.6000 56.0000 L90.1000 55.5000 "/>
<path d="M89.3988 56.0000 L89.6000 56.0000 "/>
<path d="M90.0750 55.4750 L90.0750 52.9250 "/>
<path d="M90.0750 52.9250 L90.8000 52.2000 "/>
<path d="M89.1422 56.2567 L89.3988 56.0000 "/>
</g>
<g style="fill-opacity: 0.0;stroke-width: 0.2500;stroke-opacity: 1;stroke-linecap: round;stroke-linejoin: round">
<g style="fill-opacity: 1.0000;stroke-width: 0.0000;stroke-opacity: 1;stroke-linecap: round;stroke-linejoin: round">
<path style="fill-opacity: 1.0000;stroke-width: 0.0000;stroke-opacity: 1;stroke-linecap: round;stroke-linejoin: round;fill-rule: evenodd" d="M 91.1430,60.6197 91.1888,60.6725 91.2000,60.7240 91.2000,65.5000 89.2000,65.4000 89.3000,64.9000 89.3000,64.9000 89.0783,64.7733 89.0581,64.7589 89.0310,64.7352 88.3388,64.3355 88.2991,64.3220 88.2572,64.2978 88.2256,64.2702 87.7499,63.9955 87.7102,63.9820 87.7054,63.9792 88.2208,63.9792 88.3503,64.0541 88.3901,64.0676 88.4320,64.0917 88.4636,64.1194 89.1557,64.5191 89.2261,64.5430 89.3254,64.5365 89.4146,64.4925 89.4636,64.4366 89.6209,64.1641 89.6209,64.1641 89.1879,63.9141 88.8129,63.6976 89.3129,63.6976 89.7459,63.9476 89.7459,63.9476 89.9032,63.6751 89.9271,63.6047 89.9206,63.5055 89.8766,63.4163 89.8207,63.3672 89.5829,63.2299 89.5829,63.2299 89.3129,63.6976 89.3129,63.6976 88.8129,63.6976 88.4908,63.5116 88.4908,63.5116 88.2208,63.9792 88.2208,63.9792 87.7054,63.9792 87.6683,63.9578 87.6367,63.9302 86.9445,63.5305 86.8545,63.4999 86.8328,63.4902 86.6003,63.3573 86.5519,63.3070 86.5384,63.2384 86.5501,63.1959 86.5596,63.1762 86.6074,63.0770 86.9629,63.0770 86.9694,63.1762 87.0134,63.2654 87.0693,63.3144 87.7614,63.7141 87.8012,63.7276 87.8431,63.7517 87.8747,63.7794 88.0042,63.8542 88.0042,63.8542 88.2742,63.3866 88.2742,63.3866 88.1139,63.2940 88.6139,63.2940 89.0964,63.5726 89.0964,63.5726 89.3664,63.1049 89.3664,63.1049 89.1286,62.9676 89.0888,62.9541 89.0469,62.9299 89.0153,62.9022 88.8858,62.8274 88.8858,62.8274 88.6515,63.2331 88.6223,63.2610 88.6227,63.2690 88.6220,63.2719 88.6200,63.2793 88.6139,63.2940 88.1139,63.2940 87.7936,63.1091 87.4186,62.8926 87.9186,62.8926 88.3992,63.1701 88.4043,63.1687 88.4193,63.1545 88.4191,63.1534 88.4345,63.1091 88.6692,62.7024 88.6692,62.7024 88.5397,62.6276 88.4999,62.6141 88.4580,62.5899 88.4264,62.5622 88.1886,62.4249 88.1886,62.4249 87.9186,62.8926 87.9186,62.8926 87.4186,62.8926 87.1441,62.7341 87.1441,62.7341 86.9868,63.0066 86.9629,63.0770 86.6074,63.0770 86.8767,62.5176 87.2691,62.5176 87.7021,62.7676 87.7021,62.7676 87.9721,62.2999 87.9721,62.2999 87.7343,62.1626 87.6639,62.1387 87.5646,62.1452 87.4754,62.1892 87.4264,62.2451 87.2691,62.5176 87.2691,62.5176 86.8767,62.5176 86.9379,62.3906 86.9406,62.3919 86.9411,62.3903 86.9386,62.3891 87.4352,61.3578 87.7662,60.6702 87.8130,60.6183 87.8779,60.6000 91.0760,60.6000 Z"/> 
</g>
</g>
<g style="fill-opacity: 1.0000;stroke-width: 0.0000;stroke-opacity: 1;stroke-linecap: round;stroke-linejoin: round">
<g>
<path style="fill-opacity: 1.0000;stroke-width: 0.0000;stroke-opacity: 1;stroke-linecap: round;stroke-linejoin: round;fill-rule: evenodd" d="M 101.9425,54.7197 101.9883,54.7725 101.9995,54.8240 101.9995,72.9946 101.9990,73.0054 101.9955,73.0454 101.9831,73.1718 101.9795,73.1917 101.9621,73.2564 101.9610,73.2603 101.9333,73.3516 101.9270,73.3680 101.8963,73.4338 101.8933,73.4399 101.8510,73.5190 101.8432,73.5317 101.8004,73.5929 101.7947,73.6004 101.7388,73.6685 101.7307,73.6775 101.6775,73.7307 101.6685,73.7388 101.6004,73.7947 101.5929,73.8004 101.5317,73.8432 101.5190,73.8510 101.4399,73.8933 101.4338,73.8963 101.3680,73.9270 101.3516,73.9333 101.2603,73.9610 101.2564,73.9621 101.1935,73.9790 101.1589,73.9832 97.1222,73.9024 97.0555,73.8814 97.0108,73.8277 97.0006,73.7778 97.0010,73.7071 97.0424,65.7586 97.0994,54.8234 97.1194,54.7564 97.1724,54.7109 97.2234,54.7000 101.8755,54.7000 Z"/> 
</g>
</g>
<g style="fill-opacity: 1.0000;stroke-width: 0.0000;stroke-opacity: 1;stroke-linecap: round;stroke-linejoin: round">
<g>
<path style="fill-opacity: 1.0000;stroke-width: 0.0000;stroke-opacity: 1;stroke-linecap: round;stroke-linejoin: round;fill-rule: evenodd" d="M 91.2000,65.5000 91.2000,71.7010 91.1811,71.7592 91.1316,71.7952 91.1010,71.8000 82.0990,71.8000 82.0408,71.7811 82.0048,71.7316 82.0000,71.7010 82.0000,70.2295 82.0189,70.1713 82.0684,70.1353 82.0990,70.1305 83.6403,70.1305 83.6489,70.1309 83.6622,70.1320 83.6876,70.1343 83.6876,70.1343 83.6876,70.1343 83.7252,70.1242 83.7336,70.1223 83.7719,70.1156 83.7732,70.1148 83.7970,70.1049 83.7985,70.1046 83.8303,70.0823 83.8376,70.0776 83.8713,70.0582 83.8963,70.0284 83.9021,70.0221 87.4537,66.4704 87.4721,66.4559 88.4247,65.8738 88.4699,65.8595 88.5223,65.8560 88.5939,65.8207 88.6332,65.7759 88.6469,65.7521 88.6810,65.7172 89.0088,65.5168 89.2000,65.4000 89.2000,65.4000 89.2000,65.4000 Z"/> 
</g>
</g>
</g> 
</g><g id="substrate-pads" style="fill:#d39751; stroke:#d39751;" mask="url(#pads-mask)"><g style="fill-opacity: 0.0;stroke-width: 0.0000;stroke-opacity: 1;stroke-linecap: round;stroke-linejoin: round">
<g style="fill-opacity: 1.0000;stroke-width: 0.0000;stroke-opacity: 1;stroke-linecap: round;stroke-linejoin: round">
<path style="fill-opacity: 1.0000;stroke-width: 0.0000;stroke-opacity: 1;stroke-linecap: round;stroke-linejoin: round;fill-rule: evenodd" d="M 87.8199,54.7164 88.4694,54.3414 88.8844,55.0602 88.2349,55.4352 Z"/> 
<path style="fill-opacity: 1.0000;stroke-width: 0.0000;stroke-opacity: 1;stroke-linecap: round;stroke-linejoin: round;fill-rule: evenodd" d="M 87.2310,55.0564 87.6640,54.8064 88.0790,55.5252 87.6460,55.7752 Z"/> 
<path style="fill-opacity: 1.0000;stroke-width: 0.0000;stroke-opacity: 1;stroke-linecap: round;stroke-linejoin: round;fill-rule: evenodd" d="M 86.4256,55.5214 87.0751,55.1464 87.4901,55.8652 86.8406,56.2402 Z"/> 
<path style="fill-opacity: 1.0000;stroke-width: 0.0000;stroke-opacity: 1;stroke-linecap: round;stroke-linejoin: round;fill-rule: evenodd" d="M 87.2156,56.8898 87.8651,56.5148 88.2801,57.2336 87.6306,57.6086 Z"/> 
<path style="fill-opacity: 1.0000;stroke-width: 0.0000;stroke-opacity: 1;stroke-linecap: round;stroke-linejoin: round;fill-rule: evenodd" d="M 88.0210,56.4248 88.4540,56.1748 88.8690,56.8936 88.4360,57.1436 Z"/> 
<path style="fill-opacity: 1.0000;stroke-width: 0.0000;stroke-opacity: 1;stroke-linecap: round;stroke-linejoin: round;fill-rule: evenodd" d="M 88.6099,56.0848 89.2594,55.7098 89.6744,56.4286 89.0249,56.8036 Z"/> 
</g>
<g style="fill-opacity: 1.0000;stroke-width: 0.0000;stroke-opacity: 1;stroke-linecap: round;stroke-linejoin: round">
<path style="fill-opacity: 1.0000;stroke-width: 0.0000;stroke-opacity: 1;stroke-linecap: round;stroke-linejoin: round;fill-rule: evenodd" d="M 81.2050,69.4300 81.2050,70.1800 80.3750,70.1800 80.3750,69.4300 Z"/> 
<path style="fill-opacity: 1.0000;stroke-width: 0.0000;stroke-opacity: 1;stroke-linecap: round;stroke-linejoin: round;fill-rule: evenodd" d="M 81.2050,68.7500 81.2050,69.2500 80.3750,69.2500 80.3750,68.7500 Z"/> 
<path style="fill-opacity: 1.0000;stroke-width: 0.0000;stroke-opacity: 1;stroke-linecap: round;stroke-linejoin: round;fill-rule: evenodd" d="M 81.2050,67.8200 81.2050,68.5700 80.3750,68.5700 80.3750,67.8200 Z"/> 
<path style="fill-opacity: 1.0000;stroke-width: 0.0000;stroke-opacity: 1;stroke-linecap: round;stroke-linejoin: round;fill-rule: evenodd" d="M 79.6250,67.8200 79.6250,68.5700 78.7950,68.5700 78.7950,67.8200 Z"/> 
<path style="fill-opacity: 1.0000;stroke-width: 0.0000;stroke-opacity: 1;stroke-linecap: round;stroke-linejoin: round;fill-rule: evenodd" d="M 79.6250,68.7500 79.6250,69.2500 78.7950,69.2500 78.7950,68.7500 Z"/> 
<path style="fill-opacity: 1.0000;stroke-width: 0.0000;stroke-opacity: 1;stroke-linecap: round;stroke-linejoin: round;fill-rule: evenodd" d="M 79.6250,69.4300 79.6250,70.1800 78.7950,70.1800 78.7950,69.4300 Z"/> 
</g>
<g style="fill-opacity: 1.0000;stroke-width: 0.0000;stroke-opacity: 1;stroke-linecap: round;stroke-linejoin: round">
<path style="fill-opacity: 1.0000;stroke-width: 0.0000;stroke-opacity: 1;stroke-linecap: round;stroke-linejoin: round;fill-rule: evenodd" d="M 78.7950,50.5700 78.7950,49.8200 79.6250,49.8200 79.6250,50.5700 Z"/> 
<path style="fill-opacity: 1.0000;stroke-width: 0.0000;stroke-opacity: 1;stroke-linecap: round;stroke-linejoin: round;fill-rule: evenodd" d="M 78.7950,51.2500 78.7950,50.7500 79.6250,50.7500 79.6250,51.2500 Z"/> 
<path style="fill-opacity: 1.0000;stroke-width: 0.0000;stroke-opacity: 1;stroke-linecap: round;stroke-linejoin: round;fill-rule: evenodd" d="M 78.7950,52.1800 78.7950,51.4300 79.6250,51.4300 79.6250,52.1800 Z"/> 
<path style="fill-opacity: 1.0000;stroke-width: 0.0000;stroke-opacity: 1;stroke-linecap: round;stroke-linejoin: round;fill-rule: evenodd" d="M 80.3750,52.1800 80.3750,51.4300 81.2050,51.4300 81.2050,52.1800 Z"/> 
<path style="fill-opacity: 1.0000;stroke-width: 0.0000;stroke-opacity: 1;stroke-linecap: round;stroke-linejoin: round;fill-rule: evenodd" d="M 80.3750,51.2500 80.3750,50.7500 81.2050,50.7500 81.2050,51.2500 Z"/> 
<path style="fill-opacity: 1.0000;stroke-width: 0.0000;stroke-opacity: 1;stroke-linecap: round;stroke-linejoin: round;fill-rule: evenodd" d="M 80.3750,50.5700 80.3750,49.8200 81.2050,49.8200 81.2050,50.5700 Z"/> 
</g>
<g style="fill-opacity: 1.0000;stroke-width: 0.0000;stroke-opacity: 1;stroke-linecap: round;stroke-linejoin: round">
<path style="fill-opacity: 1.0000;stroke-width: 0.0000;stroke-opacity: 1;stroke-linecap: round;stroke-linejoin: round;fill-rule: evenodd" d="M 72.1801,65.2836 71.5306,65.6586 71.1156,64.9398 71.7651,64.5648 Z"/> 
<path style="fill-opacity: 1.0000;stroke-width: 0.0000;stroke-opacity: 1;stroke-linecap: round;stroke-linejoin: round;fill-rule: evenodd" d="M 72.7690,64.9436 72.3360,65.1936 71.9210,64.4748 72.3540,64.2248 Z"/> 
<path style="fill-opacity: 1.0000;stroke-width: 0.0000;stroke-opacity: 1;stroke-linecap: round;stroke-linejoin: round;fill-rule: evenodd" d="M 73.5744,64.4786 72.9249,64.8536 72.5099,64.1348 73.1594,63.7598 Z"/> 
<path style="fill-opacity: 1.0000;stroke-width: 0.0000;stroke-opacity: 1;stroke-linecap: round;stroke-linejoin: round;fill-rule: evenodd" d="M 72.7844,63.1102 72.1349,63.4852 71.7199,62.7664 72.3694,62.3914 Z"/> 
<path style="fill-opacity: 1.0000;stroke-width: 0.0000;stroke-opacity: 1;stroke-linecap: round;stroke-linejoin: round;fill-rule: evenodd" d="M 71.9790,63.5752 71.5460,63.8252 71.1310,63.1064 71.5640,62.8564 Z"/> 
<path style="fill-opacity: 1.0000;stroke-width: 0.0000;stroke-opacity: 1;stroke-linecap: round;stroke-linejoin: round;fill-rule: evenodd" d="M 71.3901,63.9152 70.7406,64.2902 70.3256,63.5714 70.9751,63.1964 Z"/> 
</g>
<g style="fill-opacity: 1.0000;stroke-width: 0.0000;stroke-opacity: 1;stroke-linecap: round;stroke-linejoin: round">
<path style="fill-opacity: 1.0000;stroke-width: 0.0000;stroke-opacity: 1;stroke-linecap: round;stroke-linejoin: round;fill-rule: evenodd" d="M 70.9751,56.8036 70.3256,56.4286 70.7406,55.7098 71.3901,56.0848 Z"/> 
<path style="fill-opacity: 1.0000;stroke-width: 0.0000;stroke-opacity: 1;stroke-linecap: round;stroke-linejoin: round;fill-rule: evenodd" d="M 71.5640,57.1436 71.1310,56.8936 71.5460,56.1748 71.9790,56.4248 Z"/> 
<path style="fill-opacity: 1.0000;stroke-width: 0.0000;stroke-opacity: 1;stroke-linecap: round;stroke-linejoin: round;fill-rule: evenodd" d="M 72.3694,57.6086 71.7199,57.2336 72.1349,56.5148 72.7844,56.8898 Z"/> 
<path style="fill-opacity: 1.0000;stroke-width: 0.0000;stroke-opacity: 1;stroke-linecap: round;stroke-linejoin: round;fill-rule: evenodd" d="M 73.1594,56.2402 72.5099,55.8652 72.9249,55.1464 73.5744,55.5214 Z"/> 
<path style="fill-opacity: 1.0000;stroke-width: 0.0000;stroke-opacity: 1;stroke-linecap: round;stroke-linejoin: round;fill-rule: evenodd" d="M 72.3540,55.7752 71.9210,55.5252 72.3360,54.8064 72.7690,55.0564 Z"/> 
<path style="fill-opacity: 1.0000;stroke-width: 0.0000;stroke-opacity: 1;stroke-linecap: round;stroke-linejoin: round;fill-rule: evenodd" d="M 71.7651,55.4352 71.1156,55.0602 71.5306,54.3414 72.1801,54.7164 Z"/> 
</g>
<g style="fill-opacity: 1.0000;stroke-width: 0.0000;stroke-opacity: 1;stroke-linecap: round;stroke-linejoin: round">
<path style="fill-opacity: 1.0000;stroke-width: 0.0000;stroke-opacity: 1;stroke-linecap: round;stroke-linejoin: round;fill-rule: evenodd" d="M 89.0249,63.1964 89.6744,63.5714 89.2594,64.2902 88.6099,63.9152 Z"/> 
<path style="fill-opacity: 1.0000;stroke-width: 0.0000;stroke-opacity: 1;stroke-linecap: round;stroke-linejoin: round;fill-rule: evenodd" d="M 88.4360,62.8564 88.8690,63.1064 88.4540,63.8252 88.0210,63.5752 Z"/> 
<path style="fill-opacity: 1.0000;stroke-width: 0.0000;stroke-opacity: 1;stroke-linecap: round;stroke-linejoin: round;fill-rule: evenodd" d="M 87.6306,62.3914 88.2801,62.7664 87.8651,63.4852 87.2156,63.1102 Z"/> 
<path style="fill-opacity: 1.0000;stroke-width: 0.0000;stroke-opacity: 1;stroke-linecap: round;stroke-linejoin: round;fill-rule: evenodd" d="M 86.8406,63.7598 87.4901,64.1348 87.0751,64.8536 86.4256,64.4786 Z"/> 
<path style="fill-opacity: 1.0000;stroke-width: 0.0000;stroke-opacity: 1;stroke-linecap: round;stroke-linejoin: round;fill-rule: evenodd" d="M 87.6460,64.2248 88.0790,64.4748 87.6640,65.1936 87.2310,64.9436 Z"/> 
<path style="fill-opacity: 1.0000;stroke-width: 0.0000;stroke-opacity: 1;stroke-linecap: round;stroke-linejoin: round;fill-rule: evenodd" d="M 88.2349,64.5648 88.8844,64.9398 88.4694,65.6586 87.8199,65.2836 Z"/> 
</g>
<g style="fill-opacity: 1.0000;stroke-width: 0.0000;stroke-opacity: 1;stroke-linecap: round;stroke-linejoin: round">
<circle cx="89.5000" cy="61.4000" r="0.4000"/> 
</g>
<g style="fill-opacity: 1.0000;stroke-width: 0.0000;stroke-opacity: 1;stroke-linecap: round;stroke-linejoin: round">
<circle cx="90.5000" cy="61.4000" r="0.4000"/> 
</g>
<g style="fill-opacity: 1.0000;stroke-width: 0.0000;stroke-opacity: 1;stroke-linecap: round;stroke-linejoin: round">
<circle cx="82.7000" cy="71.1000" r="0.4000"/> 
</g>
<g style="fill-opacity: 1.0000;stroke-width: 0.0000;stroke-opacity: 1;stroke-linecap: round;stroke-linejoin: round">
<circle cx="98.1400" cy="72.5400" r="0.4000"/> 
</g>
<g style="fill-opacity: 1.0000;stroke-width: 0.0000;stroke-opacity: 1;stroke-linecap: round;stroke-linejoin: round">
<circle cx="99.2000" cy="55.2000" r="0.4000"/> 
</g>
<g style="fill-opacity: 1.0000;stroke-width: 0.0000;stroke-opacity: 1;stroke-linecap: round;stroke-linejoin: round">
<circle cx="92.4000" cy="55.5000" r="0.4000"/> 
</g>
<g style="fill-opacity: 1.0000;stroke-width: 0.0000;stroke-opacity: 1;stroke-linecap: round;stroke-linejoin: round">
<circle cx="90.8000" cy="53.4000" r="0.4000"/> 
</g>
<g style="fill-opacity: 1.0000;stroke-width: 0.0000;stroke-opacity: 1;stroke-linecap: round;stroke-linejoin: round">
<circle cx="90.8000" cy="52.2000" r="0.4000"/> 
</g>
<g style="fill-opacity: 0.0;stroke-width: 0.2500;stroke-opacity: 1;stroke-linecap: round;stroke-linejoin: round">
<path d="M83.1050 68.1950 L80.7900 68.1950 "/>
<path d="M86.9578 64.3067 L86.9578 64.3422 "/>
<path d="M86.9578 64.3422 L83.1050 68.1950 "/>
<path d="M87.6550 64.7450 L83.4000 69.0000 "/>
<path d="M87.6550 64.7092 L87.6550 64.7450 "/>
<path d="M83.4000 69.0000 L80.7900 69.0000 "/>
<path d="M88.3521 65.1117 L83.6588 69.8050 "/>
<path d="M83.6588 69.8050 L80.7900 69.8050 "/>
<path d="M76.7950 68.1950 L73.0421 64.4421 "/>
<path d="M79.2100 68.1950 L76.7950 68.1950 "/>
<path d="M73.0421 64.4421 L73.0421 64.3067 "/>
<path d="M76.5000 69.0000 L72.3450 64.8450 "/>
<path d="M72.3450 64.8450 L72.3450 64.7092 "/>
<path d="M79.2100 69.0000 L76.5000 69.0000 "/>
<path d="M79.2100 69.8050 L76.3412 69.8050 "/>
<path d="M76.3412 69.8050 L71.6478 65.1117 "/>
<path d="M72.2522 62.9383 L72.1000 62.7862 "/>
<path d="M72.1000 57.2138 L72.2522 57.0617 "/>
<path d="M72.1000 62.7862 L72.1000 57.2138 "/>
<path d="M71.3000 63.0858 L71.3000 56.9142 "/>
<path d="M71.5550 63.3408 L71.3000 63.0858 "/>
<path d="M71.3000 56.9142 L71.5550 56.6592 "/>
<path d="M70.8578 63.7433 L70.6000 63.4855 "/>
<path d="M70.6000 63.4855 L70.6000 56.5145 "/>
<path d="M70.6000 56.5145 L70.8578 56.2567 "/>
<path d="M76.9305 51.8050 L79.2100 51.8050 "/>
<path d="M73.0421 55.6933 L76.9305 51.8050 "/>
<path d="M76.6117 51.0000 L72.3329 55.2788 "/>
<path d="M79.2100 51.0000 L76.6117 51.0000 "/>
<path d="M79.2100 50.1950 L76.3412 50.1950 "/>
<path d="M76.3412 50.1950 L71.6478 54.8883 "/>
<path d="M80.7900 51.8050 L83.0695 51.8050 "/>
<path d="M83.0695 51.8050 L86.9578 55.6933 "/>
<path d="M85.6000 53.2000 L85.6000 53.2117 "/>
<path d="M83.4000 51.0000 L85.6000 53.2000 "/>
<path d="M80.7900 51.0000 L83.4000 51.0000 "/>
<path d="M85.6000 53.2117 L87.6671 55.2788 "/>
<path d="M83.6588 50.1950 L88.3521 54.8883 "/>
<path d="M80.7900 50.1950 L83.6588 50.1950 "/>
<path d="M87.7478 57.0617 L88.2500 57.5638 "/>
<path d="M88.3000 57.8000 L88.2500 57.7500 "/>
<path d="M88.2500 57.5638 L88.2500 57.7500 "/>
<path d="M92.4000 55.5000 L90.1000 57.8000 "/>
<path d="M90.1000 57.8000 L88.3000 57.8000 "/>
<path d="M90.8000 53.4000 L90.8000 56.1000 "/>
<path d="M90.8000 56.1000 L89.6000 57.3000 "/>
<path d="M89.0617 57.3000 L88.4329 56.6712 "/>
<path d="M89.6000 57.3000 L89.0617 57.3000 "/>
<path d="M90.1000 55.5000 L90.0750 55.4750 "/>
<path d="M89.6000 56.0000 L90.1000 55.5000 "/>
<path d="M89.3988 56.0000 L89.6000 56.0000 "/>
<path d="M90.0750 55.4750 L90.0750 52.9250 "/>
<path d="M90.0750 52.9250 L90.8000 52.2000 "/>
<path d="M89.1422 56.2567 L89.3988 56.0000 "/>
</g>
<g style="fill-opacity: 0.0;stroke-width: 0.2500;stroke-opacity: 1;stroke-linecap: round;stroke-linejoin: round">
<g style="fill-opacity: 1.0000;stroke-width: 0.0000;stroke-opacity: 1;stroke-linecap: round;stroke-linejoin: round">
<path style="fill-opacity: 1.0000;stroke-width: 0.0000;stroke-opacity: 1;stroke-linecap: round;stroke-linejoin: round;fill-rule: evenodd" d="M 91.1430,60.6197 91.1888,60.6725 91.2000,60.7240 91.2000,65.5000 89.2000,65.4000 89.3000,64.9000 89.3000,64.9000 89.0783,64.7733 89.0581,64.7589 89.0310,64.7352 88.3388,64.3355 88.2991,64.3220 88.2572,64.2978 88.2256,64.2702 87.7499,63.9955 87.7102,63.9820 87.7054,63.9792 88.2208,63.9792 88.3503,64.0541 88.3901,64.0676 88.4320,64.0917 88.4636,64.1194 89.1557,64.5191 89.2261,64.5430 89.3254,64.5365 89.4146,64.4925 89.4636,64.4366 89.6209,64.1641 89.6209,64.1641 89.1879,63.9141 88.8129,63.6976 89.3129,63.6976 89.7459,63.9476 89.7459,63.9476 89.9032,63.6751 89.9271,63.6047 89.9206,63.5055 89.8766,63.4163 89.8207,63.3672 89.5829,63.2299 89.5829,63.2299 89.3129,63.6976 89.3129,63.6976 88.8129,63.6976 88.4908,63.5116 88.4908,63.5116 88.2208,63.9792 88.2208,63.9792 87.7054,63.9792 87.6683,63.9578 87.6367,63.9302 86.9445,63.5305 86.8545,63.4999 86.8328,63.4902 86.6003,63.3573 86.5519,63.3070 86.5384,63.2384 86.5501,63.1959 86.5596,63.1762 86.6074,63.0770 86.9629,63.0770 86.9694,63.1762 87.0134,63.2654 87.0693,63.3144 87.7614,63.7141 87.8012,63.7276 87.8431,63.7517 87.8747,63.7794 88.0042,63.8542 88.0042,63.8542 88.2742,63.3866 88.2742,63.3866 88.1139,63.2940 88.6139,63.2940 89.0964,63.5726 89.0964,63.5726 89.3664,63.1049 89.3664,63.1049 89.1286,62.9676 89.0888,62.9541 89.0469,62.9299 89.0153,62.9022 88.8858,62.8274 88.8858,62.8274 88.6515,63.2331 88.6223,63.2610 88.6227,63.2690 88.6220,63.2719 88.6200,63.2793 88.6139,63.2940 88.1139,63.2940 87.7936,63.1091 87.4186,62.8926 87.9186,62.8926 88.3992,63.1701 88.4043,63.1687 88.4193,63.1545 88.4191,63.1534 88.4345,63.1091 88.6692,62.7024 88.6692,62.7024 88.5397,62.6276 88.4999,62.6141 88.4580,62.5899 88.4264,62.5622 88.1886,62.4249 88.1886,62.4249 87.9186,62.8926 87.9186,62.8926 87.4186,62.8926 87.1441,62.7341 87.1441,62.7341 86.9868,63.0066 86.9629,63.0770 86.6074,63.0770 86.8767,62.5176 87.2691,62.5176 87.7021,62.7676 87.7021,62.7676 87.9721,62.2999 87.9721,62.2999 87.7343,62.1626 87.6639,62.1387 87.5646,62.1452 87.4754,62.1892 87.4264,62.2451 87.2691,62.5176 87.2691,62.5176 86.8767,62.5176 86.9379,62.3906 86.9406,62.3919 86.9411,62.3903 86.9386,62.3891 87.4352,61.3578 87.7662,60.6702 87.8130,60.6183 87.8779,60.6000 91.0760,60.6000 Z"/> 
</g>
</g>
<g style="fill-opacity: 1.0000;stroke-width: 0.0000;stroke-opacity: 1;stroke-linecap: round;stroke-linejoin: round">
<g>
<path style="fill-opacity: 1.0000;stroke-width: 0.0000;stroke-opacity: 1;stroke-linecap: round;stroke-linejoin: round;fill-rule: evenodd" d="M 101.9425,54.7197 101.9883,54.7725 101.9995,54.8240 101.9995,72.9946 101.9990,73.0054 101.9955,73.0454 101.9831,73.1718 101.9795,73.1917 101.9621,73.2564 101.9610,73.2603 101.9333,73.3516 101.9270,73.3680 101.8963,73.4338 101.8933,73.4399 101.8510,73.5190 101.8432,73.5317 101.8004,73.5929 101.7947,73.6004 101.7388,73.6685 101.7307,73.6775 101.6775,73.7307 101.6685,73.7388 101.6004,73.7947 101.5929,73.8004 101.5317,73.8432 101.5190,73.8510 101.4399,73.8933 101.4338,73.8963 101.3680,73.9270 101.3516,73.9333 101.2603,73.9610 101.2564,73.9621 101.1935,73.9790 101.1589,73.9832 97.1222,73.9024 97.0555,73.8814 97.0108,73.8277 97.0006,73.7778 97.0010,73.7071 97.0424,65.7586 97.0994,54.8234 97.1194,54.7564 97.1724,54.7109 97.2234,54.7000 101.8755,54.7000 Z"/> 
</g>
</g>
<g style="fill-opacity: 1.0000;stroke-width: 0.0000;stroke-opacity: 1;stroke-linecap: round;stroke-linejoin: round">
<g>
<path style="fill-opacity: 1.0000;stroke-width: 0.0000;stroke-opacity: 1;stroke-linecap: round;stroke-linejoin: round;fill-rule: evenodd" d="M 91.2000,65.5000 91.2000,71.7010 91.1811,71.7592 91.1316,71.7952 91.1010,71.8000 82.0990,71.8000 82.0408,71.7811 82.0048,71.7316 82.0000,71.7010 82.0000,70.2295 82.0189,70.1713 82.0684,70.1353 82.0990,70.1305 83.6403,70.1305 83.6489,70.1309 83.6622,70.1320 83.6876,70.1343 83.6876,70.1343 83.6876,70.1343 83.7252,70.1242 83.7336,70.1223 83.7719,70.1156 83.7732,70.1148 83.7970,70.1049 83.7985,70.1046 83.8303,70.0823 83.8376,70.0776 83.8713,70.0582 83.8963,70.0284 83.9021,70.0221 87.4537,66.4704 87.4721,66.4559 88.4247,65.8738 88.4699,65.8595 88.5223,65.8560 88.5939,65.8207 88.6332,65.7759 88.6469,65.7521 88.6810,65.7172 89.0088,65.5168 89.2000,65.4000 89.2000,65.4000 89.2000,65.4000 Z"/> 
</g>
</g>
</g> 
</g><g id="substrate-silk" style="fill:#d5dce4; stroke:#d5dce4;" mask="url(#pads-mask-silkscreen)"><g style="fill-opacity: 0.0;stroke-width: 0.1500;stroke-opacity: 1;stroke-linecap: round;stroke-linejoin: round">
<g transform="rotate(60.000000 90.2928 58.2597)">
<text x="90.2928" y="58.6597" textLength="1.7769" font-size="1.0667" lengthAdjust="spacingAndGlyphs" text-anchor="middle" opacity="0">D6</text>
</g>
<g class="stroked-text"><desc>D6</desc>
<path d="M89.6771 57.9334 L90.3699 57.5334 "/>
<path d="M90.3699 57.5334 L90.4651 57.6983 "/>
<path d="M90.4651 57.6983 L90.4893 57.8163 "/>
<path d="M90.4893 57.8163 L90.4614 57.9204 "/>
<path d="M90.4614 57.9204 L90.4145 57.9915 "/>
<path d="M90.4145 57.9915 L90.3015 58.1007 "/>
<path d="M90.3015 58.1007 L90.2026 58.1578 "/>
<path d="M90.2026 58.1578 L90.0516 58.2010 "/>
<path d="M90.0516 58.2010 L89.9665 58.2061 "/>
<path d="M89.9665 58.2061 L89.8624 58.1782 "/>
<path d="M89.8624 58.1782 L89.7723 58.0983 "/>
<path d="M89.7723 58.0983 L89.6771 57.9334 "/>
<path d="M90.9413 58.5231 L90.8651 58.3911 "/>
<path d="M90.8651 58.3911 L90.7940 58.3442 "/>
<path d="M90.7940 58.3442 L90.7420 58.3303 "/>
<path d="M90.7420 58.3303 L90.6049 58.3214 "/>
<path d="M90.6049 58.3214 L90.4539 58.3646 "/>
<path d="M90.4539 58.3646 L90.1900 58.5170 "/>
<path d="M90.1900 58.5170 L90.1431 58.5881 "/>
<path d="M90.1431 58.5881 L90.1291 58.6401 "/>
<path d="M90.1291 58.6401 L90.1342 58.7252 "/>
<path d="M90.1342 58.7252 L90.2104 58.8571 "/>
<path d="M90.2104 58.8571 L90.2815 58.9041 "/>
<path d="M90.2815 58.9041 L90.3335 58.9180 "/>
<path d="M90.3335 58.9180 L90.4186 58.9129 "/>
<path d="M90.4186 58.9129 L90.5835 58.8177 "/>
<path d="M90.5835 58.8177 L90.6305 58.7466 "/>
<path d="M90.6305 58.7466 L90.6444 58.6945 "/>
<path d="M90.6444 58.6945 L90.6393 58.6095 "/>
<path d="M90.6393 58.6095 L90.5631 58.4775 "/>
<path d="M90.5631 58.4775 L90.4920 58.4306 "/>
<path d="M90.4920 58.4306 L90.4400 58.4167 "/>
<path d="M90.4400 58.4167 L90.3549 58.4218 "/>
</g><text x="76.9000" y="70.2000" textLength="1.7769" font-size="1.0667" lengthAdjust="spacingAndGlyphs" text-anchor="middle" opacity="0">D2</text>
<g class="stroked-text"><desc>D2</desc>
<path d="M76.3095 70.1701 L76.3095 69.3701 "/>
<path d="M76.3095 69.3701 L76.5000 69.3701 "/>
<path d="M76.5000 69.3701 L76.6143 69.4082 "/>
<path d="M76.6143 69.4082 L76.6905 69.4844 "/>
<path d="M76.6905 69.4844 L76.7286 69.5606 "/>
<path d="M76.7286 69.5606 L76.7667 69.7130 "/>
<path d="M76.7667 69.7130 L76.7667 69.8272 "/>
<path d="M76.7667 69.8272 L76.7286 69.9796 "/>
<path d="M76.7286 69.9796 L76.6905 70.0558 "/>
<path d="M76.6905 70.0558 L76.6143 70.1320 "/>
<path d="M76.6143 70.1320 L76.5000 70.1701 "/>
<path d="M76.5000 70.1701 L76.3095 70.1701 "/>
<path d="M77.0714 69.4463 L77.1095 69.4082 "/>
<path d="M77.1095 69.4082 L77.1857 69.3701 "/>
<path d="M77.1857 69.3701 L77.3762 69.3701 "/>
<path d="M77.3762 69.3701 L77.4524 69.4082 "/>
<path d="M77.4524 69.4082 L77.4905 69.4463 "/>
<path d="M77.4905 69.4463 L77.5286 69.5225 "/>
<path d="M77.5286 69.5225 L77.5286 69.5987 "/>
<path d="M77.5286 69.5987 L77.4905 69.7130 "/>
<path d="M77.4905 69.7130 L77.0333 70.1701 "/>
<path d="M77.0333 70.1701 L77.5286 70.1701 "/>
</g><text x="83.1000" y="50.6000" textLength="1.7769" font-size="1.0667" lengthAdjust="spacingAndGlyphs" text-anchor="middle" opacity="0">D5</text>
<g class="stroked-text"><desc>D5</desc>
<path d="M82.5095 50.5701 L82.5095 49.7701 "/>
<path d="M82.5095 49.7701 L82.7000 49.7701 "/>
<path d="M82.7000 49.7701 L82.8143 49.8082 "/>
<path d="M82.8143 49.8082 L82.8905 49.8844 "/>
<path d="M82.8905 49.8844 L82.9286 49.9606 "/>
<path d="M82.9286 49.9606 L82.9667 50.1130 "/>
<path d="M82.9667 50.1130 L82.9667 50.2272 "/>
<path d="M82.9667 50.2272 L82.9286 50.3796 "/>
<path d="M82.9286 50.3796 L82.8905 50.4558 "/>
<path d="M82.8905 50.4558 L82.8143 50.5320 "/>
<path d="M82.8143 50.5320 L82.7000 50.5701 "/>
<path d="M82.7000 50.5701 L82.5095 50.5701 "/>
<path d="M83.6905 49.7701 L83.3095 49.7701 "/>
<path d="M83.3095 49.7701 L83.2714 50.1510 "/>
<path d="M83.2714 50.1510 L83.3095 50.1130 "/>
<path d="M83.3095 50.1130 L83.3857 50.0749 "/>
<path d="M83.3857 50.0749 L83.5762 50.0749 "/>
<path d="M83.5762 50.0749 L83.6524 50.1130 "/>
<path d="M83.6524 50.1130 L83.6905 50.1510 "/>
<path d="M83.6905 50.1510 L83.7286 50.2272 "/>
<path d="M83.7286 50.2272 L83.7286 50.4177 "/>
<path d="M83.7286 50.4177 L83.6905 50.4939 "/>
<path d="M83.6905 50.4939 L83.6524 50.5320 "/>
<path d="M83.6524 50.5320 L83.5762 50.5701 "/>
<path d="M83.5762 50.5701 L83.3857 50.5701 "/>
<path d="M83.3857 50.5701 L83.3095 50.5320 "/>
<path d="M83.3095 50.5320 L83.2714 50.4939 "/>
</g><g transform="rotate(60.000000 69.7072 61.7403)">
<text x="69.7072" y="62.1403" textLength="1.7769" font-size="1.0667" lengthAdjust="spacingAndGlyphs" text-anchor="middle" opacity="0">D3</text>
</g>
<g class="stroked-text"><desc>D3</desc>
<path d="M69.0914 61.4140 L69.7843 61.0140 "/>
<path d="M69.7843 61.0140 L69.8795 61.1790 "/>
<path d="M69.8795 61.1790 L69.9036 61.2970 "/>
<path d="M69.9036 61.2970 L69.8758 61.4011 "/>
<path d="M69.8758 61.4011 L69.8288 61.4721 "/>
<path d="M69.8288 61.4721 L69.7159 61.5813 "/>
<path d="M69.7159 61.5813 L69.6169 61.6385 "/>
<path d="M69.6169 61.6385 L69.4659 61.6817 "/>
<path d="M69.4659 61.6817 L69.3809 61.6868 "/>
<path d="M69.3809 61.6868 L69.2768 61.6589 "/>
<path d="M69.2768 61.6589 L69.1867 61.5790 "/>
<path d="M69.1867 61.5790 L69.0914 61.4140 "/>
<path d="M70.1462 61.6408 L70.3938 62.0697 "/>
<path d="M70.3938 62.0697 L69.9965 61.9912 "/>
<path d="M69.9965 61.9912 L70.0537 62.0901 "/>
<path d="M70.0537 62.0901 L70.0588 62.1752 "/>
<path d="M70.0588 62.1752 L70.0448 62.2272 "/>
<path d="M70.0448 62.2272 L69.9979 62.2983 "/>
<path d="M69.9979 62.2983 L69.8329 62.3935 "/>
<path d="M69.8329 62.3935 L69.7479 62.3986 "/>
<path d="M69.7479 62.3986 L69.6958 62.3847 "/>
<path d="M69.6958 62.3847 L69.6248 62.3378 "/>
<path d="M69.6248 62.3378 L69.5105 62.1398 "/>
<path d="M69.5105 62.1398 L69.5054 62.0548 "/>
<path d="M69.5054 62.0548 L69.5193 62.0027 "/>
</g><g transform="rotate(-60.000000 72.8072 52.8903)">
<text x="72.8072" y="53.2903" textLength="1.7769" font-size="1.0667" lengthAdjust="spacingAndGlyphs" text-anchor="middle" opacity="0">D4</text>
</g>
<g class="stroked-text"><desc>D4</desc>
<path d="M72.8325 53.5867 L72.1396 53.1867 "/>
<path d="M72.1396 53.1867 L72.2349 53.0218 "/>
<path d="M72.2349 53.0218 L72.3250 52.9419 "/>
<path d="M72.3250 52.9419 L72.4291 52.9140 "/>
<path d="M72.4291 52.9140 L72.5141 52.9191 "/>
<path d="M72.5141 52.9191 L72.6651 52.9623 "/>
<path d="M72.6651 52.9623 L72.7641 53.0194 "/>
<path d="M72.7641 53.0194 L72.8770 53.1286 "/>
<path d="M72.8770 53.1286 L72.9240 53.1997 "/>
<path d="M72.9240 53.1997 L72.9518 53.3038 "/>
<path d="M72.9518 53.3038 L72.9277 53.4218 "/>
<path d="M72.9277 53.4218 L72.8325 53.5867 "/>
<path d="M72.9420 52.3303 L73.4039 52.5970 "/>
<path d="M72.5828 52.3429 L72.9825 52.7936 "/>
<path d="M72.9825 52.7936 L73.2301 52.3647 "/>
</g><g transform="rotate(-60.000000 87.1928 67.1097)">
<text x="87.1928" y="67.5097" textLength="1.7769" font-size="1.0667" lengthAdjust="spacingAndGlyphs" text-anchor="middle" opacity="0">D1</text>
</g>
<g class="stroked-text"><desc>D1</desc>
<path d="M87.2181 67.8061 L86.5253 67.4061 "/>
<path d="M86.5253 67.4061 L86.6205 67.2411 "/>
<path d="M86.6205 67.2411 L86.7106 67.1612 "/>
<path d="M86.7106 67.1612 L86.8147 67.1333 "/>
<path d="M86.8147 67.1333 L86.8998 67.1384 "/>
<path d="M86.8998 67.1384 L87.0508 67.1816 "/>
<path d="M87.0508 67.1816 L87.1497 67.2388 "/>
<path d="M87.1497 67.2388 L87.2627 67.3479 "/>
<path d="M87.2627 67.3479 L87.3096 67.4190 "/>
<path d="M87.3096 67.4190 L87.3375 67.5231 "/>
<path d="M87.3375 67.5231 L87.3133 67.6411 "/>
<path d="M87.3133 67.6411 L87.2181 67.8061 "/>
<path d="M87.8276 66.7504 L87.5990 67.1463 "/>
<path d="M87.7133 66.9483 L87.0205 66.5483 "/>
<path d="M87.0205 66.5483 L87.0814 66.6714 "/>
<path d="M87.0814 66.6714 L87.1093 66.7755 "/>
<path d="M87.1093 66.7755 L87.1042 66.8606 "/>
</g></g>
<g style="fill-opacity: 0.0;stroke-width: 0.1200;stroke-opacity: 1;stroke-linecap: round;stroke-linejoin: round">
<path d="M86.4474 55.3992 L88.3526 54.2992 "/>
<path d="M88.0072 57.5008 L89.3928 56.7008 "/>
<path d="M81.3000 67.9000 L81.3000 70.1000 "/>
<path d="M78.7000 68.2000 L78.7000 69.8000 "/>
<path d="M78.7000 52.1000 L78.7000 49.9000 "/>
<path d="M81.3000 51.8000 L81.3000 50.2000 "/>
<path d="M73.5526 64.6008 L71.6474 65.7008 "/>
<path d="M71.9928 62.4992 L70.6072 63.2992 "/>
<path d="M72.2526 57.6508 L70.3474 56.5508 "/>
<path d="M73.2928 55.2492 L71.9072 54.4492 "/>
<path d="M87.7474 62.3492 L89.6526 63.4492 "/>
<path d="M86.7072 64.7508 L88.0928 65.5508 "/>
</g> 
</g><g id="substrate-outline" style="fill:#000000; stroke:#000000; stroke-width: 0.15"><g style="fill-opacity: 0.0;stroke-opacity: 1;stroke-linecap: round;stroke-linejoin: round">
<path d="M66.0000 73.0000 A1.0000 1.0000 0.0 0 0 67.0000 74.0000"/>
<circle cx="80.0000" cy="60.0000" r="6.1000"/> 
<path d="M102.0000 47.0000 L102.0000 73.0000 "/>
<path d="M66.0000 73.0000 L66.0000 47.0000 "/>
<path d="M101.0000 74.0000 A1.0000 1.0000 0.0 0 0 102.0000 73.0000"/>
<path d="M67.0000 46.0000 L101.0000 46.0000 "/>
<path d="M101.0000 74.0000 L67.0000 74.0000 "/>
<path d="M67.0000 46.0000 A1.0000 1.0000 0.0 0 0 66.0000 47.0000"/>
<path d="M102.0000 47.0000 A1.0000 1.0000 0.0 0 0 101.0000 46.0000"/>
</g> 
<path d="M -0.2 0.0 A 0.2 0.2 0 1 1 0.2 0.0 L 0.2 -0.0 A 0.2 0.2 0 1 1 -0.2 -0.0 Z" transform="translate(89.5 61.4) rotate(-0.0)"/><path d="M -0.2 0.0 A 0.2 0.2 0 1 1 0.2 0.0 L 0.2 -0.0 A 0.2 0.2 0 1 1 -0.2 -0.0 Z" transform="translate(90.5 61.4) rotate(-0.0)"/><path d="M -0.2 0.0 A 0.2 0.2 0 1 1 0.2 0.0 L 0.2 -0.0 A 0.2 0.2 0 1 1 -0.2 -0.0 Z" transform="translate(82.7 71.1) rotate(-0.0)"/><path d="M -0.2 0.0 A 0.2 0.2 0 1 1 0.2 0.0 L 0.2 -0.0 A 0.2 0.2 0 1 1 -0.2 -0.0 Z" transform="translate(98.14 72.54) rotate(-0.0)"/><path d="M -0.2 0.0 A 0.2 0.2 0 1 1 0.2 0.0 L 0.2 -0.0 A 0.2 0.2 0 1 1 -0.2 -0.0 Z" transform="translate(99.2 55.2) rotate(-0.0)"/><path d="M -0.2 0.0 A 0.2 0.2 0 1 1 0.2 0.0 L 0.2 -0.0 A 0.2 0.2 0 1 1 -0.2 -0.0 Z" transform="translate(92.4 55.5) rotate(-0.0)"/><path d="M -0.2 0.0 A 0.2 0.2 0 1 1 0.2 0.0 L 0.2 -0.0 A 0.2 0.2 0 1 1 -0.2 -0.0 Z" transform="translate(90.8 53.4) rotate(-0.0)"/><path d="M -0.2 0.0 A 0.2 0.2 0 1 1 0.2 0.0 L 0.2 -0.0 A 0.2 0.2 0 1 1 -0.2 -0.0 Z" transform="translate(90.8 52.2) rotate(-0.0)"/></g></g><g id="substrate-paste" style="fill:#8a8a8a; stroke:#8a8a8a;"><g style="fill-opacity: 0.0;stroke-width: 0.0000;stroke-opacity: 1;stroke-linecap: round;stroke-linejoin: round">
<g style="fill-opacity: 1.0000;stroke-width: 0.0000;stroke-opacity: 1;stroke-linecap: round;stroke-linejoin: round">
<path style="fill-opacity: 1.0000;stroke-width: 0.0000;stroke-opacity: 1;stroke-linecap: round;stroke-linejoin: round;fill-rule: evenodd" d="M 87.8199,54.7164 88.4694,54.3414 88.8844,55.0602 88.2349,55.4352 Z"/> 
<path style="fill-opacity: 1.0000;stroke-width: 0.0000;stroke-opacity: 1;stroke-linecap: round;stroke-linejoin: round;fill-rule: evenodd" d="M 87.2310,55.0564 87.6640,54.8064 88.0790,55.5252 87.6460,55.7752 Z"/> 
<path style="fill-opacity: 1.0000;stroke-width: 0.0000;stroke-opacity: 1;stroke-linecap: round;stroke-linejoin: round;fill-rule: evenodd" d="M 86.4256,55.5214 87.0751,55.1464 87.4901,55.8652 86.8406,56.2402 Z"/> 
<path style="fill-opacity: 1.0000;stroke-width: 0.0000;stroke-opacity: 1;stroke-linecap: round;stroke-linejoin: round;fill-rule: evenodd" d="M 87.2156,56.8898 87.8651,56.5148 88.2801,57.2336 87.6306,57.6086 Z"/> 
<path style="fill-opacity: 1.0000;stroke-width: 0.0000;stroke-opacity: 1;stroke-linecap: round;stroke-linejoin: round;fill-rule: evenodd" d="M 88.0210,56.4248 88.4540,56.1748 88.8690,56.8936 88.4360,57.1436 Z"/> 
<path style="fill-opacity: 1.0000;stroke-width: 0.0000;stroke-opacity: 1;stroke-linecap: round;stroke-linejoin: round;fill-rule: evenodd" d="M 88.6099,56.0848 89.2594,55.7098 89.6744,56.4286 89.0249,56.8036 Z"/> 
</g>
<g style="fill-opacity: 1.0000;stroke-width: 0.0000;stroke-opacity: 1;stroke-linecap: round;stroke-linejoin: round">
<path style="fill-opacity: 1.0000;stroke-width: 0.0000;stroke-opacity: 1;stroke-linecap: round;stroke-linejoin: round;fill-rule: evenodd" d="M 81.2050,69.4300 81.2050,70.1800 80.3750,70.1800 80.3750,69.4300 Z"/> 
<path style="fill-opacity: 1.0000;stroke-width: 0.0000;stroke-opacity: 1;stroke-linecap: round;stroke-linejoin: round;fill-rule: evenodd" d="M 81.2050,68.7500 81.2050,69.2500 80.3750,69.2500 80.3750,68.7500 Z"/> 
<path style="fill-opacity: 1.0000;stroke-width: 0.0000;stroke-opacity: 1;stroke-linecap: round;stroke-linejoin: round;fill-rule: evenodd" d="M 81.2050,67.8200 81.2050,68.5700 80.3750,68.5700 80.3750,67.8200 Z"/> 
<path style="fill-opacity: 1.0000;stroke-width: 0.0000;stroke-opacity: 1;stroke-linecap: round;stroke-linejoin: round;fill-rule: evenodd" d="M 79.6250,67.8200 79.6250,68.5700 78.7950,68.5700 78.7950,67.8200 Z"/> 
<path style="fill-opacity: 1.0000;stroke-width: 0.0000;stroke-opacity: 1;stroke-linecap: round;stroke-linejoin: round;fill-rule: evenodd" d="M 79.6250,68.7500 79.6250,69.2500 78.7950,69.2500 78.7950,68.7500 Z"/> 
<path style="fill-opacity: 1.0000;stroke-width: 0.0000;stroke-opacity: 1;stroke-linecap: round;stroke-linejoin: round;fill-rule: evenodd" d="M 79.6250,69.4300 79.6250,70.1800 78.7950,70.1800 78.7950,69.4300 Z"/> 
</g>
<g style="fill-opacity: 1.0000;stroke-width: 0.0000;stroke-opacity: 1;stroke-linecap: round;stroke-linejoin: round">
<path style="fill-opacity: 1.0000;stroke-width: 0.0000;stroke-opacity: 1;stroke-linecap: round;stroke-linejoin: round;fill-rule: evenodd" d="M 78.7950,50.5700 78.7950,49.8200 79.6250,49.8200 79.6250,50.5700 Z"/> 
<path style="fill-opacity: 1.0000;stroke-width: 0.0000;stroke-opacity: 1;stroke-linecap: round;stroke-linejoin: round;fill-rule: evenodd" d="M 78.7950,51.2500 78.7950,50.7500 79.6250,50.7500 79.6250,51.2500 Z"/> 
<path style="fill-opacity: 1.0000;stroke-width: 0.0000;stroke-opacity: 1;stroke-linecap: round;stroke-linejoin: round;fill-rule: evenodd" d="M 78.7950,52.1800 78.7950,51.4300 79.6250,51.4300 79.6250,52.1800 Z"/> 
<path style="fill-opacity: 1.0000;stroke-width: 0.0000;stroke-opacity: 1;stroke-linecap: round;stroke-linejoin: round;fill-rule: evenodd" d="M 80.3750,52.1800 80.3750,51.4300 81.2050,51.4300 81.2050,52.1800 Z"/> 
<path style="fill-opacity: 1.0000;stroke-width: 0.0000;stroke-opacity: 1;stroke-linecap: round;stroke-linejoin: round;fill-rule: evenodd" d="M 80.3750,51.2500 80.3750,50.7500 81.2050,50.7500 81.2050,51.2500 Z"/> 
<path style="fill-opacity: 1.0000;stroke-width: 0.0000;stroke-opacity: 1;stroke-linecap: round;stroke-linejoin: round;fill-rule: evenodd" d="M 80.3750,50.5700 80.3750,49.8200 81.2050,49.8200 81.2050,50.5700 Z"/> 
</g>
<g style="fill-opacity: 1.0000;stroke-width: 0.0000;stroke-opacity: 1;stroke-linecap: round;stroke-linejoin: round">
<path style="fill-opacity: 1.0000;stroke-width: 0.0000;stroke-opacity: 1;stroke-linecap: round;stroke-linejoin: round;fill-rule: evenodd" d="M 72.1801,65.2836 71.5306,65.6586 71.1156,64.9398 71.7651,64.5648 Z"/> 
<path style="fill-opacity: 1.0000;stroke-width: 0.0000;stroke-opacity: 1;stroke-linecap: round;stroke-linejoin: round;fill-rule: evenodd" d="M 72.7690,64.9436 72.3360,65.1936 71.9210,64.4748 72.3540,64.2248 Z"/> 
<path style="fill-opacity: 1.0000;stroke-width: 0.0000;stroke-opacity: 1;stroke-linecap: round;stroke-linejoin: round;fill-rule: evenodd" d="M 73.5744,64.4786 72.9249,64.8536 72.5099,64.1348 73.1594,63.7598 Z"/> 
<path style="fill-opacity: 1.0000;stroke-width: 0.0000;stroke-opacity: 1;stroke-linecap: round;stroke-linejoin: round;fill-rule: evenodd" d="M 72.7844,63.1102 72.1349,63.4852 71.7199,62.7664 72.3694,62.3914 Z"/> 
<path style="fill-opacity: 1.0000;stroke-width: 0.0000;stroke-opacity: 1;stroke-linecap: round;stroke-linejoin: round;fill-rule: evenodd" d="M 71.9790,63.5752 71.5460,63.8252 71.1310,63.1064 71.5640,62.8564 Z"/> 
<path style="fill-opacity: 1.0000;stroke-width: 0.0000;stroke-opacity: 1;stroke-linecap: round;stroke-linejoin: round;fill-rule: evenodd" d="M 71.3901,63.9152 70.7406,64.2902 70.3256,63.5714 70.9751,63.1964 Z"/> 
</g>
<g style="fill-opacity: 1.0000;stroke-width: 0.0000;stroke-opacity: 1;stroke-linecap: round;stroke-linejoin: round">
<path style="fill-opacity: 1.0000;stroke-width: 0.0000;stroke-opacity: 1;stroke-linecap: round;stroke-linejoin: round;fill-rule: evenodd" d="M 70.9751,56.8036 70.3256,56.4286 70.7406,55.7098 71.3901,56.0848 Z"/> 
<path style="fill-opacity: 1.0000;stroke-width: 0.0000;stroke-opacity: 1;stroke-linecap: round;stroke-linejoin: round;fill-rule: evenodd" d="M 71.5640,57.1436 71.1310,56.8936 71.5460,56.1748 71.9790,56.4248 Z"/> 
<path style="fill-opacity: 1.0000;stroke-width: 0.0000;stroke-opacity: 1;stroke-linecap: round;stroke-linejoin: round;fill-rule: evenodd" d="M 72.3694,57.6086 71.7199,57.2336 72.1349,56.5148 72.7844,56.8898 Z"/> 
<path style="fill-opacity: 1.0000;stroke-width: 0.0000;stroke-opacity: 1;stroke-linecap: round;stroke-linejoin: round;fill-rule: evenodd" d="M 73.1594,56.2402 72.5099,55.8652 72.9249,55.1464 73.5744,55.5214 Z"/> 
<path style="fill-opacity: 1.0000;stroke-width: 0.0000;stroke-opacity: 1;stroke-linecap: round;stroke-linejoin: round;fill-rule: evenodd" d="M 72.3540,55.7752 71.9210,55.5252 72.3360,54.8064 72.7690,55.0564 Z"/> 
<path style="fill-opacity: 1.0000;stroke-width: 0.0000;stroke-opacity: 1;stroke-linecap: round;stroke-linejoin: round;fill-rule: evenodd" d="M 71.7651,55.4352 71.1156,55.0602 71.5306,54.3414 72.1801,54.7164 Z"/> 
</g>
<g style="fill-opacity: 1.0000;stroke-width: 0.0000;stroke-opacity: 1;stroke-linecap: round;stroke-linejoin: round">
<path style="fill-opacity: 1.0000;stroke-width: 0.0000;stroke-opacity: 1;stroke-linecap: round;stroke-linejoin: round;fill-rule: evenodd" d="M 89.0249,63.1964 89.6744,63.5714 89.2594,64.2902 88.6099,63.9152 Z"/> 
<path style="fill-opacity: 1.0000;stroke-width: 0.0000;stroke-opacity: 1;stroke-linecap: round;stroke-linejoin: round;fill-rule: evenodd" d="M 88.4360,62.8564 88.8690,63.1064 88.4540,63.8252 88.0210,63.5752 Z"/> 
<path style="fill-opacity: 1.0000;stroke-width: 0.0000;stroke-opacity: 1;stroke-linecap: round;stroke-linejoin: round;fill-rule: evenodd" d="M 87.6306,62.3914 88.2801,62.7664 87.8651,63.4852 87.2156,63.1102 Z"/> 
<path style="fill-opacity: 1.0000;stroke-width: 0.0000;stroke-opacity: 1;stroke-linecap: round;stroke-linejoin: round;fill-rule: evenodd" d="M 86.8406,63.7598 87.4901,64.1348 87.0751,64.8536 86.4256,64.4786 Z"/> 
<path style="fill-opacity: 1.0000;stroke-width: 0.0000;stroke-opacity: 1;stroke-linecap: round;stroke-linejoin: round;fill-rule: evenodd" d="M 87.6460,64.2248 88.0790,64.4748 87.6640,65.1936 87.2310,64.9436 Z"/> 
<path style="fill-opacity: 1.0000;stroke-width: 0.0000;stroke-opacity: 1;stroke-linecap: round;stroke-linejoin: round;fill-rule: evenodd" d="M 88.2349,64.5648 88.8844,64.9398 88.4694,65.6586 87.8199,65.2836 Z"/> 
</g>
</g> 
</g></g></svg>