<!DOCTYPE svg PUBLIC "-//W3C//DTD SVG 1.1//EN" "http://www.w3.org/Graphics/SVG/1.1/DTD/svg11.dtd">
<svg xmlns="http://www.w3.org/2000/svg" version="1.1" width="28.1mm" height="28.1mm" viewBox="-94.05 45.95 28.10000000000001 28.10000000000001">
            <title>Picture generated by PcbDraw </title>
            <desc>Picture generated by PcbDraw</desc>
        <defs><clipPath id="cut-off"><path d=" M 80.0000 60.0000 m-6.1000 0 a 6.1000 6.1000 0 1 0 12.2 0 a 6.1000 6.1000 0 1 0 -12.2 0  M 67.0 74.0 L 93.0 74.0 A 1 1 0 0 0 94.0 73.0 L 94.0 47.0 A 1 1 0 0 0 93.0 46.0 L 67.0 46.0 A 1 1 0 0 0 66.0 47.0 L 66.0 73.0 A 1 1 0 0 0 67.0 74.0 " style="fill-rule: evenodd;"/></clipPath><mask id="pads-mask"><g style="fill:#ffffff; fill-opacity:0.0;  stroke:#ffffff; stroke-width:0.0000; stroke-opacity:1;  stroke-linecap:round; stroke-linejoin:round;">
<g style="fill:#ffffff; fill-opacity:1.0000;  stroke:#ffffff; stroke-width:0.0000; stroke-opacity:1;  stroke-linecap:round; stroke-linejoin:round;">
<path style="fill:#ffffff; fill-opacity:1.0000;  stroke:#ffffff; stroke-width:0.0000; stroke-opacity:1;  stroke-linecap:round; stroke-linejoin:round;fill-rule:evenodd;" d="M 92.5000,58.2500 91.5000,58.2500 91.5000,55.5000 92.5000,55.5000 Z"/> 
<path style="fill:#ffffff; fill-opacity:1.0000;  stroke:#ffffff; stroke-width:0.0000; stroke-opacity:1;  stroke-linecap:round; stroke-linejoin:round;fill-rule:evenodd;" d="M 92.5000,64.5000 91.5000,64.5000 91.5000,61.7500 92.5000,61.7500 Z"/> 
<path style="fill:#ffffff; fill-opacity:1.0000;  stroke:#ffffff; stroke-width:0.0000; stroke-opacity:1;  stroke-linecap:round; stroke-linejoin:round;fill-rule:evenodd;" d="M 90.5000,58.2500 89.5000,58.2500 89.5000,55.5000 90.5000,55.5000 Z"/> 
<path style="fill:#ffffff; fill-opacity:1.0000;  stroke:#ffffff; stroke-width:0.0000; stroke-opacity:1;  stroke-linecap:round; stroke-linejoin:round;fill-rule:evenodd;" d="M 90.5000,64.5000 89.5000,64.5000 89.5000,61.7500 90.5000,61.7500 Z"/> 
</g>
</g> 
</mask><mask id="pads-mask-silkscreen"><rect x="65.95" y="45.95" width="28.1" height="28.1" fill="white"/><g style="fill:#000000; fill-opacity:0.0;  stroke:#000000; stroke-width:0.0000; stroke-opacity:1;  stroke-linecap:round; stroke-linejoin:round;">
<g style="fill:#000000; fill-opacity:1.0000;  stroke:#000000; stroke-width:0.0000; stroke-opacity:1;  stroke-linecap:round; stroke-linejoin:round;">
<path style="fill:#000000; fill-opacity:1.0000;  stroke:#000000; stroke-width:0.0000; stroke-opacity:1;  stroke-linecap:round; stroke-linejoin:round;fill-rule:evenodd;" d="M 92.5000,58.2500 91.5000,58.2500 91.5000,55.5000 92.5000,55.5000 Z"/> 
<path style="fill:#000000; fill-opacity:1.0000;  stroke:#000000; stroke-width:0.0000; stroke-opacity:1;  stroke-linecap:round; stroke-linejoin:round;fill-rule:evenodd;" d="M 92.5000,64.5000 91.5000,64.5000 91.5000,61.7500 92.5000,61.7500 Z"/> 
<path style="fill:#000000; fill-opacity:1.0000;  stroke:#000000; stroke-width:0.0000; stroke-opacity:1;  stroke-linecap:round; stroke-linejoin:round;fill-rule:evenodd;" d="M 90.5000,58.2500 89.5000,58.2500 89.5000,55.5000 90.5000,55.5000 Z"/> 
<path style="fill:#000000; fill-opacity:1.0000;  stroke:#000000; stroke-width:0.0000; stroke-opacity:1;  stroke-linecap:round; stroke-linejoin:round;fill-rule:evenodd;" d="M 90.5000,64.5000 89.5000,64.5000 89.5000,61.7500 90.5000,61.7500 Z"/> 
</g>
</g> 
</mask><mask id="hole-mask"><g><rect x="65.95" y="45.95" fill="white" width="28.1" height="28.1"/><polyline stroke-linecap="round" stroke="black" stroke-width="0.4" points="-0.0 0 0.0 0" transform="translate(89.5 61.1) rotate(-0.0)"/><polyline stroke-linecap="round" stroke="black" stroke-width="0.4" points="-0.0 0 0.0 0" transform="translate(88.1 63.1) rotate(-0.0)"/><polyline stroke-linecap="round" stroke="black" stroke-width="0.4" points="-0.0 0 0.0 0" transform="translate(89.726279 65.15359) rotate(-0.0)"/><polyline stroke-linecap="round" stroke="black" stroke-width="0.4" points="-0.0 0 0.0 0" transform="translate(69.0 60.4) rotate(-0.0)"/><polyline stroke-linecap="round" stroke="black" stroke-width="0.4" points="-0.0 0 0.0 0" transform="translate(80.4 71.0) rotate(-0.0)"/><polyline stroke-linecap="round" stroke="black" stroke-width="0.4" points="-0.0 0 0.0 0" transform="translate(85.15359 50.273721) rotate(-0.0)"/><polyline stroke-linecap="round" stroke="black" stroke-width="0.4" points="-0.0 0 0.0 0" transform="translate(74.15359 50.673721) rotate(-0.0)"/><polyline stroke-linecap="round" stroke="black" stroke-width="0.4" points="-0.0 0 0.0 0" transform="translate(79.6 49.0) rotate(-0.0)"/><polyline stroke-linecap="round" stroke="black" stroke-width="0.4" points="-0.0 0 0.0 0" transform="translate(70.273721 54.84641) rotate(-0.0)"/><polyline stroke-linecap="round" stroke="black" stroke-width="0.4" points="-0.0 0 0.0 0" transform="translate(89.326279 54.15359) rotate(-0.0)"/><polyline stroke-linecap="round" stroke="black" stroke-width="0.4" points="-0.0 0 0.0 0" transform="translate(85.84641 69.326279) rotate(-0.0)"/><polyline stroke-linecap="round" stroke="black" stroke-width="0.4" points="-0.0 0 0.0 0" transform="translate(74.84641 69.726279) rotate(-0.0)"/><polyline stroke-linecap="round" stroke="black" stroke-width="0.4" points="-0.0 0 0.0 0" transform="translate(91.0 59.6) rotate(-0.0)"/><polyline stroke-linecap="round" stroke="black" stroke-width="0.4" points="-0.0 0 0.0 0" transform="translate(70.673721 65.84641) rotate(-0.0)"/><polyline stroke-linecap="round" stroke="black" stroke-width="0.4" points="-0.0 0 0.0 0" transform="translate(92.0 65.0) rotate(-0.0)"/><polyline stroke-linecap="round" stroke="black" stroke-width="0.4" points="-0.0 0 0.0 0" transform="translate(93.0 61.2) rotate(-0.0)"/><polyline stroke-linecap="round" stroke="black" stroke-width="0.4" points="-0.0 0 0.0 0" transform="translate(93.0 62.6) rotate(-0.0)"/><polyline stroke-linecap="round" stroke="black" stroke-width="0.4" points="-0.0 0 0.0 0" transform="translate(93.0 65.0) rotate(-0.0)"/><polyline stroke-linecap="round" stroke="black" stroke-width="0.4" points="-0.0 0 0.0 0" transform="translate(93.0 63.8) rotate(-0.0)"/><polyline stroke-linecap="round" stroke="black" stroke-width="0.4" points="-0.0 0 0.0 0" transform="translate(92.0 61.2) rotate(-0.0)"/></g></mask></defs><g transform="scale(-1,1)" id="boardContainer"><g id="substrate" clip-path="url(#cut-off)" mask="url(#hole-mask)"><g id="substrate-board" style="fill:#208b47; stroke:#208b47;"><path d=" M 80.0000 60.0000 m-6.1000 0 a 6.1000 6.1000 0 1 0 12.2 0 a 6.1000 6.1000 0 1 0 -12.2 0  M 67.0 74.0 L 93.0 74.0 A 1 1 0 0 0 94.0 73.0 L 94.0 47.0 A 1 1 0 0 0 93.0 46.0 L 67.0 46.0 A 1 1 0 0 0 66.0 47.0 L 66.0 73.0 A 1 1 0 0 0 67.0 74.0 " style="fill-rule: evenodd;"/><g style="fill-opacity: 0.0;stroke-width: 0.1000;stroke-opacity: 1;stroke-linecap: round;stroke-linejoin: round">
<path d="M66.0000 73.0000 A1.0000 1.0000 0.0 0 0 67.0000 74.0000"/>
<circle cx="80.0000" cy="60.0000" r="6.1000"/> 
<path d="M94.0000 47.0000 L94.0000 73.0000 "/>
<path d="M66.0000 73.0000 L66.0000 47.0000 "/>
<path d="M93.0000 74.0000 A1.0000 1.0000 0.0 0 0 94.0000 73.0000"/>
<path d="M67.0000 46.0000 L93.0000 46.0000 "/>
<path d="M93.0000 74.0000 L67.0000 74.0000 "/>
<path d="M67.0000 46.0000 A1.0000 1.0000 0.0 0 0 66.0000 47.0000"/>
<path d="M94.0000 47.0000 A1.0000 1.0000 0.0 0 0 93.0000 46.0000"/>
</g> 
</g><g id="substrate-clad" style="fill:#332B16; stroke:#332B16;"><g style="fill-opacity: 0.0;stroke-width: 0.0000;stroke-opacity: 1;stroke-linecap: round;stroke-linejoin: round">
<g style="fill-opacity: 1.0000;stroke-width: 0.0000;stroke-opacity: 1;stroke-linecap: round;stroke-linejoin: round">
<path style="fill-opacity: 1.0000;stroke-width: 0.0000;stroke-opacity: 1;stroke-linecap: round;stroke-linejoin: round;fill-rule: evenodd" d="M 92.5000,58.2500 91.5000,58.2500 91.5000,55.5000 92.5000,55.5000 Z"/> 
<path style="fill-opacity: 1.0000;stroke-width: 0.0000;stroke-opacity: 1;stroke-linecap: round;stroke-linejoin: round;fill-rule: evenodd" d="M 92.5000,64.5000 91.5000,64.5000 91.5000,61.7500 92.5000,61.7500 Z"/> 
<path style="fill-opacity: 1.0000;stroke-width: 0.0000;stroke-opacity: 1;stroke-linecap: round;stroke-linejoin: round;fill-rule: evenodd" d="M 90.5000,58.2500 89.5000,58.2500 89.5000,55.5000 90.5000,55.5000 Z"/> 
<path style="fill-opacity: 1.0000;stroke-width: 0.0000;stroke-opacity: 1;stroke-linecap: round;stroke-linejoin: round;fill-rule: evenodd" d="M 90.5000,64.5000 89.5000,64.5000 89.5000,61.7500 90.5000,61.7500 Z"/> 
</g>
</g> 
</g><g id="substrate-copper" style="fill:#285e3a; stroke:#285e3a;"><g style="fill-opacity: 0.0;stroke-width: 0.0000;stroke-opacity: 1;stroke-linecap: round;stroke-linejoin: round">
<g style="fill-opacity: 1.0000;stroke-width: 0.0000;stroke-opacity: 1;stroke-linecap: round;stroke-linejoin: round">
<path style="fill-opacity: 1.0000;stroke-width: 0.0000;stroke-opacity: 1;stroke-linecap: round;stroke-linejoin: round;fill-rule: evenodd" d="M 92.5000,58.2500 91.5000,58.2500 91.5000,55.5000 92.5000,55.5000 Z"/> 
<path style="fill-opacity: 1.0000;stroke-width: 0.0000;stroke-opacity: 1;stroke-linecap: round;stroke-linejoin: round;fill-rule: evenodd" d="M 92.5000,64.5000 91.5000,64.5000 91.5000,61.7500 92.5000,61.7500 Z"/> 
<path style="fill-opacity: 1.0000;stroke-width: 0.0000;stroke-opacity: 1;stroke-linecap: round;stroke-linejoin: round;fill-rule: evenodd" d="M 90.5000,58.2500 89.5000,58.2500 89.5000,55.5000 90.5000,55.5000 Z"/> 
<path style="fill-opacity: 1.0000;stroke-width: 0.0000;stroke-opacity: 1;stroke-linecap: round;stroke-linejoin: round;fill-rule: evenodd" d="M 90.5000,64.5000 89.5000,64.5000 89.5000,61.7500 90.5000,61.7500 Z"/> 
</g>
<g style="fill-opacity: 1.0000;stroke-width: 0.0000;stroke-opacity: 1;stroke-linecap: round;stroke-linejoin: round">
<circle cx="89.5000" cy="61.1000" r="0.4000"/> 
</g>
<g style="fill-opacity: 1.0000;stroke-width: 0.0000;stroke-opacity: 1;stroke-linecap: round;stroke-linejoin: round">
<circle cx="88.1000" cy="63.1000" r="0.4000"/> 
</g>
<g style="fill-opacity: 1.0000;stroke-width: 0.0000;stroke-opacity: 1;stroke-linecap: round;stroke-linejoin: round">
<circle cx="89.7263" cy="65.1536" r="0.4000"/> 
</g>
<g style="fill-opacity: 1.0000;stroke-width: 0.0000;stroke-opacity: 1;stroke-linecap: round;stroke-linejoin: round">
<circle cx="69.0000" cy="60.4000" r="0.4000"/> 
</g>
<g style="fill-opacity: 1.0000;stroke-width: 0.0000;stroke-opacity: 1;stroke-linecap: round;stroke-linejoin: round">
<circle cx="80.4000" cy="71.0000" r="0.4000"/> 
</g>
<g style="fill-opacity: 1.0000;stroke-width: 0.0000;stroke-opacity: 1;stroke-linecap: round;stroke-linejoin: round">
<circle cx="85.1536" cy="50.2737" r="0.4000"/> 
</g>
<g style="fill-opacity: 1.0000;stroke-width: 0.0000;stroke-opacity: 1;stroke-linecap: round;stroke-linejoin: round">
<circle cx="74.1536" cy="50.6737" r="0.4000"/> 
</g>
<g style="fill-opacity: 1.0000;stroke-width: 0.0000;stroke-opacity: 1;stroke-linecap: round;stroke-linejoin: round">
<circle cx="79.6000" cy="49.0000" r="0.4000"/> 
</g>
<g style="fill-opacity: 1.0000;stroke-width: 0.0000;stroke-opacity: 1;stroke-linecap: round;stroke-linejoin: round">
<circle cx="70.2737" cy="54.8464" r="0.4000"/> 
</g>
<g style="fill-opacity: 1.0000;stroke-width: 0.0000;stroke-opacity: 1;stroke-linecap: round;stroke-linejoin: round">
<circle cx="89.3263" cy="54.1536" r="0.4000"/> 
</g>
<g style="fill-opacity: 1.0000;stroke-width: 0.0000;stroke-opacity: 1;stroke-linecap: round;stroke-linejoin: round">
<circle cx="85.8464" cy="69.3263" r="0.4000"/> 
</g>
<g style="fill-opacity: 1.0000;stroke-width: 0.0000;stroke-opacity: 1;stroke-linecap: round;stroke-linejoin: round">
<circle cx="74.8464" cy="69.7263" r="0.4000"/> 
</g>
<g style="fill-opacity: 1.0000;stroke-width: 0.0000;stroke-opacity: 1;stroke-linecap: round;stroke-linejoin: round">
<circle cx="91.0000" cy="59.6000" r="0.4000"/> 
</g>
<g style="fill-opacity: 1.0000;stroke-width: 0.0000;stroke-opacity: 1;stroke-linecap: round;stroke-linejoin: round">
<circle cx="70.6737" cy="65.8464" r="0.4000"/> 
</g>
<g style="fill-opacity: 1.0000;stroke-width: 0.0000;stroke-opacity: 1;stroke-linecap: round;stroke-linejoin: round">
<circle cx="92.0000" cy="65.0000" r="0.4000"/> 
</g>
<g style="fill-opacity: 1.0000;stroke-width: 0.0000;stroke-opacity: 1;stroke-linecap: round;stroke-linejoin: round">
<circle cx="93.0000" cy="61.2000" r="0.4000"/> 
</g>
<g style="fill-opacity: 1.0000;stroke-width: 0.0000;stroke-opacity: 1;stroke-linecap: round;stroke-linejoin: round">
<circle cx="93.0000" cy="62.6000" r="0.4000"/> 
</g>
<g style="fill-opacity: 1.0000;stroke-width: 0.0000;stroke-opacity: 1;stroke-linecap: round;stroke-linejoin: round">
<circle cx="93.0000" cy="65.0000" r="0.4000"/> 
</g>
<g style="fill-opacity: 1.0000;stroke-width: 0.0000;stroke-opacity: 1;stroke-linecap: round;stroke-linejoin: round">
<circle cx="93.0000" cy="63.8000" r="0.4000"/> 
</g>
<g style="fill-opacity: 1.0000;stroke-width: 0.0000;stroke-opacity: 1;stroke-linecap: round;stroke-linejoin: round">
<circle cx="92.0000" cy="61.2000" r="0.4000"/> 
</g>
<g style="fill-opacity: 0.0;stroke-width: 0.2500;stroke-opacity: 1;stroke-linecap: round;stroke-linejoin: round">
<path d="M90.0000 60.6705 L90.0000 56.8750 "/>
<path d="M89.5000 61.1705 L90.0000 60.6705 "/>
<path d="M88.1000 63.1000 L89.9750 63.1000 "/>
<path d="M93.0000 65.0000 L93.0000 61.2000 "/>
<path d="M93.0000 62.6000 L92.5250 62.6000 "/>
<path d="M92.6750 63.8000 L92.0000 63.1250 "/>
<path d="M93.0000 63.8000 L92.6750 63.8000 "/>
<path d="M92.0000 63.1250 L92.0000 65.0000 "/>
<path d="M92.0000 65.0000 L93.0000 65.0000 "/>
<path d="M92.5250 62.6000 L92.0000 63.1250 "/>
<path d="M93.0000 61.2000 L92.0000 61.2000 "/>
<path d="M92.0000 61.2000 L92.0000 63.1250 "/>
</g>
<g style="fill-opacity: 0.0;stroke-width: 0.2500;stroke-opacity: 1;stroke-linecap: round;stroke-linejoin: round">
<g style="fill-opacity: 1.0000;stroke-width: 0.0000;stroke-opacity: 1;stroke-linecap: round;stroke-linejoin: round">
<path style="fill-opacity: 1.0000;stroke-width: 0.0000;stroke-opacity: 1;stroke-linecap: round;stroke-linejoin: round;fill-rule: evenodd" d="M 93.0027,46.0007 93.0455,46.0045 93.1718,46.0169 93.1917,46.0205 93.2574,46.0382 93.2592,46.0387 93.3516,46.0667 93.3680,46.0730 93.4354,46.1044 93.4384,46.1059 93.4760,46.1260 93.5223,46.1508 93.5287,46.1547 93.5948,46.2010 93.5986,46.2038 93.6708,46.2631 93.6753,46.2672 93.7328,46.3247 93.7369,46.3292 93.7962,46.4014 93.7990,46.4052 93.8453,46.4713 93.8492,46.4777 93.8941,46.5616 93.8956,46.5646 93.9270,46.6320 93.9333,46.6484 93.9613,46.7407 93.9619,46.7426 93.9795,46.8083 93.9831,46.8282 93.9955,46.9546 93.9993,46.9973 93.9995,47.0027 93.9995,72.9973 93.9993,73.0027 93.9955,73.0454 93.9831,73.1718 93.9795,73.1917 93.9619,73.2574 93.9613,73.2593 93.9333,73.3516 93.9270,73.3680 93.8956,73.4354 93.8941,73.4384 93.8492,73.5223 93.8453,73.5287 93.7990,73.5948 93.7962,73.5986 93.7369,73.6708 93.7328,73.6753 93.6753,73.7328 93.6708,73.7369 93.5986,73.7962 93.5948,73.7990 93.5287,73.8453 93.5223,73.8492 93.4384,73.8941 93.4354,73.8956 93.3680,73.9270 93.3516,73.9333 93.2593,73.9613 93.2574,73.9619 93.1917,73.9795 93.1718,73.9831 93.0454,73.9955 93.0073,73.9989 93.0027,73.9993 92.9973,73.9995 67.0027,73.9995 66.9973,73.9993 66.9923,73.9988 66.9546,73.9955 66.8282,73.9831 66.8083,73.9795 66.7426,73.9619 66.7407,73.9613 66.7031,73.9499 66.6484,73.9333 66.6320,73.9270 66.5646,73.8956 66.5616,73.8941 66.4777,73.8492 66.4713,73.8453 66.4052,73.7990 66.4014,73.7962 66.3292,73.7369 66.3247,73.7328 66.2672,73.6753 66.2631,73.6708 66.2038,73.5986 66.2010,73.5948 66.1547,73.5287 66.1508,73.5223 66.1260,73.4760 66.1059,73.4384 66.1044,73.4354 66.0730,73.3680 66.0667,73.3516 66.0387,73.2592 66.0382,73.2574 66.0205,73.1917 66.0169,73.1718 66.0045,73.0454 66.0007,73.0027 66.0005,72.9973 66.0005,60.0000 73.8945,60.0000 73.9143,60.4913 73.9143,60.4913 73.9736,60.9794 74.0720,61.4611 74.2088,61.9334 74.3831,62.3931 74.5580,62.7617 74.5740,62.7955 74.5939,62.8374 74.8397,63.2632 74.8397,63.2632 74.8656,63.3006 75.1020,63.6432 75.1190,63.6678 75.4300,64.0486 75.4300,64.0487 75.7706,64.4033 75.7706,64.4033 76.1386,64.7293 76.2397,64.8052 76.5317,65.0247 76.9473,65.2875 76.9473,65.2875 76.9473,65.2875 76.9798,65.3045 77.3826,65.5160 77.8350,65.7087 78.3014,65.8644 78.7788,65.9821 78.7788,65.9821 78.7788,65.9821 79.2277,66.0550 79.2641,66.0609 79.7542,66.1005 79.7542,66.1005 80.2458,66.1005 80.2458,66.1005 80.7359,66.0609 80.8845,66.0368 81.2212,65.9821 81.2212,65.9821 81.2212,65.9821 81.6986,65.8644 82.1650,65.7087 82.6174,65.5160 83.0527,65.2875 83.4683,65.0247 83.8614,64.7293 83.8614,64.7293 83.8614,64.7293 84.2294,64.4033 84.2294,64.4033 84.2294,64.4033 84.5700,64.0487 84.8810,63.6678 85.1603,63.2632 85.2545,63.1000 87.4447,63.1000 87.4638,63.2568 87.4804,63.3006 87.5198,63.4045 87.6095,63.5345 87.7278,63.6393 87.7278,63.6393 87.8676,63.7127 88.0210,63.7505 88.0210,63.7505 88.1790,63.7505 88.3324,63.7127 88.4179,63.6678 88.4722,63.6393 88.5905,63.5345 88.5943,63.5291 88.6485,63.4851 88.6963,63.4755 89.1255,63.4755 89.1925,63.4952 89.2383,63.5480 89.2495,63.5995 89.2495,64.5247 89.2640,64.5977 89.2640,64.5977 89.2640,64.5977 89.3194,64.6806 89.3923,64.7293 89.4023,64.7360 89.4023,64.7360 89.4753,64.7505 89.4753,64.7505 89.4753,64.7505 90.5247,64.7505 90.5247,64.7505 90.5977,64.7360 90.6806,64.6806 90.7360,64.5977 90.7505,64.5247 91.2495,64.5247 91.2495,64.5247 91.2640,64.5977 91.2640,64.5977 91.2640,64.5977 91.3194,64.6806 91.3219,64.6823 91.3262,64.6875 91.3280,64.6892 91.3279,64.6894 91.3668,64.7359 91.3755,64.8052 91.3690,64.8294 91.3638,64.8432 91.3638,64.8432 91.3447,65.0000 91.3447,65.0000 91.3638,65.1568 91.4114,65.2823 91.4198,65.3045 91.5095,65.4345 91.6278,65.5393 91.6278,65.5393 91.7676,65.6127 91.9210,65.6505 91.9210,65.6505 92.0790,65.6505 92.2324,65.6127 92.3722,65.5393 92.3722,65.5393 92.3722,65.5393 92.4178,65.4989 92.4810,65.4692 92.5503,65.4784 92.5822,65.4989 92.6278,65.5393 92.6278,65.5393 92.7676,65.6127 92.9210,65.6505 92.9210,65.6505 93.0790,65.6505 93.2324,65.6127 93.2324,65.6127 93.3722,65.5393 93.4905,65.4345 93.5802,65.3045 93.6362,65.1568 93.6553,65.0000 93.6362,64.8432 93.5802,64.6955 93.4905,64.5655 93.4905,64.5655 93.4173,64.5006 93.3801,64.4414 93.3755,64.4078 93.3755,64.3922 93.3952,64.3252 93.4173,64.2994 93.4905,64.2345 93.4905,64.2345 93.5802,64.1045 93.6362,63.9568 93.6553,63.8000 93.6447,63.7127 93.6362,63.6432 93.6001,63.5480 93.5802,63.4955 93.4905,63.3655 93.4905,63.3655 93.4173,63.3006 93.3801,63.2414 93.3755,63.2078 93.3755,63.1922 93.3952,63.1252 93.4173,63.0994 93.4905,63.0345 93.4905,63.0345 93.5802,62.9045 93.6362,62.7568 93.6553,62.6000 93.6362,62.4432 93.5802,62.2955 93.4905,62.1655 93.4905,62.1655 93.4173,62.1006 93.3801,62.0414 93.3755,62.0078 93.3755,61.7922 93.3952,61.7252 93.4173,61.6994 93.4905,61.6345 93.4905,61.6345 93.5802,61.5045 93.6362,61.3568 93.6553,61.2000 93.6362,61.0432 93.5802,60.8955 93.4905,60.7655 93.3722,60.6607 93.3722,60.6607 93.3722,60.6607 93.2324,60.5873 93.0790,60.5495 93.0790,60.5495 92.9210,60.5495 92.9210,60.5495 92.7676,60.5873 92.6278,60.6607 92.6278,60.6607 92.5822,60.7011 92.5190,60.7308 92.4497,60.7216 92.4178,60.7011 92.3722,60.6607 92.3722,60.6607 92.2324,60.5873 92.0790,60.5495 92.0790,60.5495 91.9210,60.5495 91.9210,60.5495 91.7676,60.5873 91.6278,60.6607 91.5095,60.7655 91.4198,60.8955 91.4198,60.8955 91.3638,61.0432 91.3447,61.2000 91.3447,61.2000 91.3638,61.3568 91.3841,61.4105 91.3895,61.4802 91.3563,61.5417 91.3371,61.5576 91.3194,61.5694 91.2640,61.6523 91.2640,61.6523 91.2495,61.7253 91.2495,61.7253 91.2495,64.5247 90.7505,64.5247 90.7505,64.5247 90.7505,61.7253 90.7505,61.7253 90.7505,61.7253 90.7360,61.6523 90.7360,61.6523 90.7241,61.6345 90.6806,61.5694 90.5977,61.5140 90.5977,61.5140 90.5977,61.5140 90.5247,61.4995 90.5247,61.4995 90.2238,61.4995 90.1568,61.4798 90.1111,61.4270 90.1011,61.3579 90.1079,61.3315 90.1101,61.3256 90.1362,61.2568 90.1553,61.1000 90.1553,61.1000 90.1553,61.0976 90.1558,61.0959 90.1562,61.0926 90.1567,61.0926 90.1750,61.0306 90.1916,61.0099 90.1916,61.0099 90.2289,60.9726 90.2487,60.9565 90.2578,60.9506 90.2796,60.9226 90.2847,60.9168 90.2875,60.9140 90.3004,60.8960 90.3019,60.8940 90.3348,60.8517 90.3385,60.8448 90.3420,60.8377 90.3420,60.8377 90.3573,60.7863 90.3581,60.7839 90.3755,60.7332 90.3755,60.7332 90.3768,60.7254 90.3778,60.7176 90.3756,60.6640 90.3755,60.6615 90.3755,58.6245 90.3952,58.5575 90.4480,58.5117 90.4995,58.5005 90.5247,58.5005 90.5247,58.5005 90.5977,58.4860 90.6806,58.4306 90.7360,58.3477 90.7505,58.2747 90.7505,57.1250 91.0000,57.1250 91.0000,58.2978 91.0064,58.3574 91.0064,58.3574 91.0566,58.4921 91.0566,58.4921 91.1428,58.6072 91.1428,58.6072 91.2579,58.6933 91.2579,58.6934 91.3926,58.7436 91.3926,58.7436 91.4522,58.7500 91.4522,58.7500 91.7500,58.7500 91.7500,57.1250 92.2500,57.1250 92.2500,58.7500 92.5478,58.7500 92.5478,58.7500 92.6074,58.7436 92.6074,58.7436 92.7421,58.6934 92.7421,58.6933 92.8572,58.6072 92.8572,58.6072 92.9433,58.4921 92.9434,58.4921 92.9936,58.3574 92.9936,58.3574 93.0000,58.2978 93.0000,58.2978 93.0000,57.1250 92.2500,57.1250 91.7500,57.1250 91.0000,57.1250 90.7505,57.1250 90.7505,56.6250 91.0000,56.6250 91.7500,56.6250 91.7500,55.0000 92.2500,55.0000 92.2500,56.6250 93.0000,56.6250 93.0000,55.4522 93.0000,55.4522 92.9936,55.3926 92.9936,55.3926 92.9434,55.2579 92.9433,55.2579 92.8572,55.1428 92.8572,55.1428 92.7421,55.0566 92.7421,55.0566 92.6074,55.0064 92.6074,55.0064 92.5478,55.0000 92.2500,55.0000 91.7500,55.0000 91.4522,55.0000 91.3926,55.0064 91.3926,55.0064 91.2579,55.0566 91.2579,55.0566 91.1428,55.1428 91.1428,55.1428 91.0566,55.2579 91.0566,55.2579 91.0064,55.3926 91.0064,55.3926 91.0000,55.4522 91.0000,56.6250 90.7505,56.6250 90.7505,55.4753 90.7505,55.4753 90.7505,55.4753 90.7505,55.4753 90.7360,55.4023 90.7360,55.4023 90.7360,55.4023 90.6806,55.3194 90.5977,55.2640 90.5977,55.2640 90.5977,55.2640 90.5247,55.2495 90.5247,55.2495 89.4753,55.2495 89.4753,55.2495 89.4023,55.2640 89.4023,55.2640 89.3194,55.3194 89.2640,55.4023 89.2640,55.4023 89.2495,55.4753 89.2495,55.4753 89.2495,58.2747 89.2495,58.2747 89.2640,58.3477 89.2640,58.3477 89.2640,58.3477 89.3194,58.4306 89.4023,58.4860 89.4023,58.4860 89.4753,58.5005 89.4753,58.5005 89.4753,58.5005 89.5005,58.5005 89.5675,58.5202 89.6133,58.5730 89.6245,58.6245 89.6245,60.3255 89.6048,60.3925 89.5520,60.4383 89.5005,60.4495 89.4210,60.4495 89.2676,60.4873 89.1278,60.5607 89.1278,60.5607 89.1278,60.5607 89.0149,60.6607 89.0095,60.6655 88.9198,60.7955 88.9198,60.7955 88.8638,60.9432 88.8447,61.1000 88.8447,61.1000 88.8638,61.2568 88.8921,61.3315 88.9198,61.4045 89.0095,61.5345 89.1278,61.6393 89.1831,61.6683 89.2333,61.7169 89.2495,61.7781 89.2495,62.6005 89.2298,62.6675 89.1770,62.7133 89.1255,62.7245 88.6963,62.7245 88.6293,62.7048 88.5943,62.6709 88.5905,62.6655 88.4722,62.5607 88.4722,62.5607 88.4722,62.5607 88.3324,62.4873 88.1790,62.4495 88.1790,62.4495 88.0210,62.4495 88.0210,62.4495 87.8676,62.4873 87.7278,62.5607 87.6095,62.6655 87.5198,62.7955 87.5198,62.7955 87.4638,62.9432 87.4447,63.1000 87.4447,63.1000 85.2545,63.1000 85.4061,62.8373 85.6169,62.3931 85.7912,61.9334 85.9280,61.4611 86.0264,60.9794 86.0857,60.4913 86.0857,60.4913 86.1055,60.0000 86.1055,60.0000 86.0857,59.5087 86.0857,59.5087 86.0857,59.5087 86.0264,59.0206 85.9280,58.5389 85.8967,58.4306 85.7912,58.0666 85.7143,57.8636 85.6169,57.6069 85.4061,57.1627 85.1603,56.7368 85.1603,56.7368 85.1603,56.7368 84.8834,56.3358 84.8810,56.3322 84.8810,56.3322 84.8809,56.3322 84.5700,55.9513 84.5700,55.9513 84.2294,55.5967 84.2294,55.5967 83.8614,55.2707 83.6648,55.1230 83.4683,54.9753 83.0527,54.7125 83.0527,54.7125 83.0527,54.7125 82.6174,54.4840 82.4398,54.4084 82.1650,54.2913 82.1650,54.2913 82.1650,54.2913 81.9345,54.2144 81.6986,54.1356 81.6986,54.1356 81.6986,54.1356 81.5157,54.0905 81.2212,54.0179 81.2212,54.0179 81.2212,54.0179 81.2212,54.0179 80.7359,53.9391 80.2459,53.8995 80.2458,53.8995 79.7542,53.8995 79.7541,53.8995 79.2641,53.9391 78.7788,54.0179 78.7788,54.0179 78.7788,54.0179 78.7788,54.0179 78.7551,54.0238 78.3014,54.1356 78.3014,54.1356 77.8350,54.2913 77.8350,54.2913 77.8350,54.2913 77.7307,54.3357 77.3826,54.4840 76.9473,54.7125 76.5317,54.9753 76.5317,54.9753 76.1386,55.2707 75.7706,55.5967 75.7706,55.5967 75.4300,55.9513 75.4300,55.9513 75.1190,56.3322 74.8397,56.7368 74.8397,56.7368 74.5939,57.1626 74.3831,57.6069 74.2088,58.0666 74.0720,58.5389 73.9736,59.0206 73.9143,59.5087 73.9143,59.5087 73.8945,60.0000 73.8945,60.0000 66.0005,60.0000 66.0005,47.0027 66.0007,46.9973 66.0045,46.9546 66.0057,46.9418 66.0169,46.8282 66.0205,46.8083 66.0382,46.7425 66.0387,46.7408 66.0667,46.6484 66.0729,46.6320 66.1044,46.5646 66.1059,46.5617 66.1508,46.4777 66.1547,46.4713 66.1878,46.4239 66.2010,46.4052 66.2038,46.4014 66.2631,46.3292 66.2672,46.3247 66.3247,46.2672 66.3292,46.2631 66.4014,46.2038 66.4052,46.2010 66.4713,46.1547 66.4777,46.1508 66.5617,46.1059 66.5646,46.1044 66.6320,46.0729 66.6484,46.0667 66.7408,46.0387 66.7425,46.0382 66.8083,46.0205 66.8282,46.0169 66.9418,46.0057 66.9546,46.0045 66.9973,46.0007 67.0027,46.0005 92.9973,46.0005 Z"/> 
</g>
</g>
</g> 
</g><g id="substrate-pads" style="fill:#d39751; stroke:#d39751;" mask="url(#pads-mask)"><g style="fill-opacity: 0.0;stroke-width: 0.0000;stroke-opacity: 1;stroke-linecap: round;stroke-linejoin: round">
<g style="fill-opacity: 1.0000;stroke-width: 0.0000;stroke-opacity: 1;stroke-linecap: round;stroke-linejoin: round">
<path style="fill-opacity: 1.0000;stroke-width: 0.0000;stroke-opacity: 1;stroke-linecap: round;stroke-linejoin: round;fill-rule: evenodd" d="M 92.5000,58.2500 91.5000,58.2500 91.5000,55.5000 92.5000,55.5000 Z"/> 
<path style="fill-opacity: 1.0000;stroke-width: 0.0000;stroke-opacity: 1;stroke-linecap: round;stroke-linejoin: round;fill-rule: evenodd" d="M 92.5000,64.5000 91.5000,64.5000 91.5000,61.7500 92.5000,61.7500 Z"/> 
<path style="fill-opacity: 1.0000;stroke-width: 0.0000;stroke-opacity: 1;stroke-linecap: round;stroke-linejoin: round;fill-rule: evenodd" d="M 90.5000,58.2500 89.5000,58.2500 89.5000,55.5000 90.5000,55.5000 Z"/> 
<path style="fill-opacity: 1.0000;stroke-width: 0.0000;stroke-opacity: 1;stroke-linecap: round;stroke-linejoin: round;fill-rule: evenodd" d="M 90.5000,64.5000 89.5000,64.5000 89.5000,61.7500 90.5000,61.7500 Z"/> 
</g>
<g style="fill-opacity: 1.0000;stroke-width: 0.0000;stroke-opacity: 1;stroke-linecap: round;stroke-linejoin: round">
<circle cx="89.5000" cy="61.1000" r="0.4000"/> 
</g>
<g style="fill-opacity: 1.0000;stroke-width: 0.0000;stroke-opacity: 1;stroke-linecap: round;stroke-linejoin: round">
<circle cx="88.1000" cy="63.1000" r="0.4000"/> 
</g>
<g style="fill-opacity: 1.0000;stroke-width: 0.0000;stroke-opacity: 1;stroke-linecap: round;stroke-linejoin: round">
<circle cx="89.7263" cy="65.1536" r="0.4000"/> 
</g>
<g style="fill-opacity: 1.0000;stroke-width: 0.0000;stroke-opacity: 1;stroke-linecap: round;stroke-linejoin: round">
<circle cx="69.0000" cy="60.4000" r="0.4000"/> 
</g>
<g style="fill-opacity: 1.0000;stroke-width: 0.0000;stroke-opacity: 1;stroke-linecap: round;stroke-linejoin: round">
<circle cx="80.4000" cy="71.0000" r="0.4000"/> 
</g>
<g style="fill-opacity: 1.0000;stroke-width: 0.0000;stroke-opacity: 1;stroke-linecap: round;stroke-linejoin: round">
<circle cx="85.1536" cy="50.2737" r="0.4000"/> 
</g>
<g style="fill-opacity: 1.0000;stroke-width: 0.0000;stroke-opacity: 1;stroke-linecap: round;stroke-linejoin: round">
<circle cx="74.1536" cy="50.6737" r="0.4000"/> 
</g>
<g style="fill-opacity: 1.0000;stroke-width: 0.0000;stroke-opacity: 1;stroke-linecap: round;stroke-linejoin: round">
<circle cx="79.6000" cy="49.0000" r="0.4000"/> 
</g>
<g style="fill-opacity: 1.0000;stroke-width: 0.0000;stroke-opacity: 1;stroke-linecap: round;stroke-linejoin: round">
<circle cx="70.2737" cy="54.8464" r="0.4000"/> 
</g>
<g style="fill-opacity: 1.0000;stroke-width: 0.0000;stroke-opacity: 1;stroke-linecap: round;stroke-linejoin: round">
<circle cx="89.3263" cy="54.1536" r="0.4000"/> 
</g>
<g style="fill-opacity: 1.0000;stroke-width: 0.0000;stroke-opacity: 1;stroke-linecap: round;stroke-linejoin: round">
<circle cx="85.8464" cy="69.3263" r="0.4000"/> 
</g>
<g style="fill-opacity: 1.0000;stroke-width: 0.0000;stroke-opacity: 1;stroke-linecap: round;stroke-linejoin: round">
<circle cx="74.8464" cy="69.7263" r="0.4000"/> 
</g>
<g style="fill-opacity: 1.0000;stroke-width: 0.0000;stroke-opacity: 1;stroke-linecap: round;stroke-linejoin: round">
<circle cx="91.0000" cy="59.6000" r="0.4000"/> 
</g>
<g style="fill-opacity: 1.0000;stroke-width: 0.0000;stroke-opacity: 1;stroke-linecap: round;stroke-linejoin: round">
<circle cx="70.6737" cy="65.8464" r="0.4000"/> 
</g>
<g style="fill-opacity: 1.0000;stroke-width: 0.0000;stroke-opacity: 1;stroke-linecap: round;stroke-linejoin: round">
<circle cx="92.0000" cy="65.0000" r="0.4000"/> 
</g>
<g style="fill-opacity: 1.0000;stroke-width: 0.0000;stroke-opacity: 1;stroke-linecap: round;stroke-linejoin: round">
<circle cx="93.0000" cy="61.2000" r="0.4000"/> 
</g>
<g style="fill-opacity: 1.0000;stroke-width: 0.0000;stroke-opacity: 1;stroke-linecap: round;stroke-linejoin: round">
<circle cx="93.0000" cy="62.6000" r="0.4000"/> 
</g>
<g style="fill-opacity: 1.0000;stroke-width: 0.0000;stroke-opacity: 1;stroke-linecap: round;stroke-linejoin: round">
<circle cx="93.0000" cy="65.0000" r="0.4000"/> 
</g>
<g style="fill-opacity: 1.0000;stroke-width: 0.0000;stroke-opacity: 1;stroke-linecap: round;stroke-linejoin: round">
<circle cx="93.0000" cy="63.8000" r="0.4000"/> 
</g>
<g style="fill-opacity: 1.0000;stroke-width: 0.0000;stroke-opacity: 1;stroke-linecap: round;stroke-linejoin: round">
<circle cx="92.0000" cy="61.2000" r="0.4000"/> 
</g>
<g style="fill-opacity: 0.0;stroke-width: 0.2500;stroke-opacity: 1;stroke-linecap: round;stroke-linejoin: round">
<path d="M90.0000 60.6705 L90.0000 56.8750 "/>
<path d="M89.5000 61.1705 L90.0000 60.6705 "/>
<path d="M88.1000 63.1000 L89.9750 63.1000 "/>
<path d="M93.0000 65.0000 L93.0000 61.2000 "/>
<path d="M93.0000 62.6000 L92.5250 62.6000 "/>
<path d="M92.6750 63.8000 L92.0000 63.1250 "/>
<path d="M93.0000 63.8000 L92.6750 63.8000 "/>
<path d="M92.0000 63.1250 L92.0000 65.0000 "/>
<path d="M92.0000 65.0000 L93.0000 65.0000 "/>
<path d="M92.5250 62.6000 L92.0000 63.1250 "/>
<path d="M93.0000 61.2000 L92.0000 61.2000 "/>
<path d="M92.0000 61.2000 L92.0000 63.1250 "/>
</g>
<g style="fill-opacity: 0.0;stroke-width: 0.2500;stroke-opacity: 1;stroke-linecap: round;stroke-linejoin: round">
<g style="fill-opacity: 1.0000;stroke-width: 0.0000;stroke-opacity: 1;stroke-linecap: round;stroke-linejoin: round">
<path style="fill-opacity: 1.0000;stroke-width: 0.0000;stroke-opacity: 1;stroke-linecap: round;stroke-linejoin: round;fill-rule: evenodd" d="M 93.0027,46.0007 93.0455,46.0045 93.1718,46.0169 93.1917,46.0205 93.2574,46.0382 93.2592,46.0387 93.3516,46.0667 93.3680,46.0730 93.4354,46.1044 93.4384,46.1059 93.4760,46.1260 93.5223,46.1508 93.5287,46.1547 93.5948,46.2010 93.5986,46.2038 93.6708,46.2631 93.6753,46.2672 93.7328,46.3247 93.7369,46.3292 93.7962,46.4014 93.7990,46.4052 93.8453,46.4713 93.8492,46.4777 93.8941,46.5616 93.8956,46.5646 93.9270,46.6320 93.9333,46.6484 93.9613,46.7407 93.9619,46.7426 93.9795,46.8083 93.9831,46.8282 93.9955,46.9546 93.9993,46.9973 93.9995,47.0027 93.9995,72.9973 93.9993,73.0027 93.9955,73.0454 93.9831,73.1718 93.9795,73.1917 93.9619,73.2574 93.9613,73.2593 93.9333,73.3516 93.9270,73.3680 93.8956,73.4354 93.8941,73.4384 93.8492,73.5223 93.8453,73.5287 93.7990,73.5948 93.7962,73.5986 93.7369,73.6708 93.7328,73.6753 93.6753,73.7328 93.6708,73.7369 93.5986,73.7962 93.5948,73.7990 93.5287,73.8453 93.5223,73.8492 93.4384,73.8941 93.4354,73.8956 93.3680,73.9270 93.3516,73.9333 93.2593,73.9613 93.2574,73.9619 93.1917,73.9795 93.1718,73.9831 93.0454,73.9955 93.0073,73.9989 93.0027,73.9993 92.9973,73.9995 67.0027,73.9995 66.9973,73.9993 66.9923,73.9988 66.9546,73.9955 66.8282,73.9831 66.8083,73.9795 66.7426,73.9619 66.7407,73.9613 66.7031,73.9499 66.6484,73.9333 66.6320,73.9270 66.5646,73.8956 66.5616,73.8941 66.4777,73.8492 66.4713,73.8453 66.4052,73.7990 66.4014,73.7962 66.3292,73.7369 66.3247,73.7328 66.2672,73.6753 66.2631,73.6708 66.2038,73.5986 66.2010,73.5948 66.1547,73.5287 66.1508,73.5223 66.1260,73.4760 66.1059,73.4384 66.1044,73.4354 66.0730,73.3680 66.0667,73.3516 66.0387,73.2592 66.0382,73.2574 66.0205,73.1917 66.0169,73.1718 66.0045,73.0454 66.0007,73.0027 66.0005,72.9973 66.0005,60.0000 73.8945,60.0000 73.9143,60.4913 73.9143,60.4913 73.9736,60.9794 74.0720,61.4611 74.2088,61.9334 74.3831,62.3931 74.5580,62.7617 74.5740,62.7955 74.5939,62.8374 74.8397,63.2632 74.8397,63.2632 74.8656,63.3006 75.1020,63.6432 75.1190,63.6678 75.4300,64.0486 75.4300,64.0487 75.7706,64.4033 75.7706,64.4033 76.1386,64.7293 76.2397,64.8052 76.5317,65.0247 76.9473,65.2875 76.9473,65.2875 76.9473,65.2875 76.9798,65.3045 77.3826,65.5160 77.8350,65.7087 78.3014,65.8644 78.7788,65.9821 78.7788,65.9821 78.7788,65.9821 79.2277,66.0550 79.2641,66.0609 79.7542,66.1005 79.7542,66.1005 80.2458,66.1005 80.2458,66.1005 80.7359,66.0609 80.8845,66.0368 81.2212,65.9821 81.2212,65.9821 81.2212,65.9821 81.6986,65.8644 82.1650,65.7087 82.6174,65.5160 83.0527,65.2875 83.4683,65.0247 83.8614,64.7293 83.8614,64.7293 83.8614,64.7293 84.2294,64.4033 84.2294,64.4033 84.2294,64.4033 84.5700,64.0487 84.8810,63.6678 85.1603,63.2632 85.2545,63.1000 87.4447,63.1000 87.4638,63.2568 87.4804,63.3006 87.5198,63.4045 87.6095,63.5345 87.7278,63.6393 87.7278,63.6393 87.8676,63.7127 88.0210,63.7505 88.0210,63.7505 88.1790,63.7505 88.3324,63.7127 88.4179,63.6678 88.4722,63.6393 88.5905,63.5345 88.5943,63.5291 88.6485,63.4851 88.6963,63.4755 89.1255,63.4755 89.1925,63.4952 89.2383,63.5480 89.2495,63.5995 89.2495,64.5247 89.2640,64.5977 89.2640,64.5977 89.2640,64.5977 89.3194,64.6806 89.3923,64.7293 89.4023,64.7360 89.4023,64.7360 89.4753,64.7505 89.4753,64.7505 89.4753,64.7505 90.5247,64.7505 90.5247,64.7505 90.5977,64.7360 90.6806,64.6806 90.7360,64.5977 90.7505,64.5247 91.2495,64.5247 91.2495,64.5247 91.2640,64.5977 91.2640,64.5977 91.2640,64.5977 91.3194,64.6806 91.3219,64.6823 91.3262,64.6875 91.3280,64.6892 91.3279,64.6894 91.3668,64.7359 91.3755,64.8052 91.3690,64.8294 91.3638,64.8432 91.3638,64.8432 91.3447,65.0000 91.3447,65.0000 91.3638,65.1568 91.4114,65.2823 91.4198,65.3045 91.5095,65.4345 91.6278,65.5393 91.6278,65.5393 91.7676,65.6127 91.9210,65.6505 91.9210,65.6505 92.0790,65.6505 92.2324,65.6127 92.3722,65.5393 92.3722,65.5393 92.3722,65.5393 92.4178,65.4989 92.4810,65.4692 92.5503,65.4784 92.5822,65.4989 92.6278,65.5393 92.6278,65.5393 92.7676,65.6127 92.9210,65.6505 92.9210,65.6505 93.0790,65.6505 93.2324,65.6127 93.2324,65.6127 93.3722,65.5393 93.4905,65.4345 93.5802,65.3045 93.6362,65.1568 93.6553,65.0000 93.6362,64.8432 93.5802,64.6955 93.4905,64.5655 93.4905,64.5655 93.4173,64.5006 93.3801,64.4414 93.3755,64.4078 93.3755,64.3922 93.3952,64.3252 93.4173,64.2994 93.4905,64.2345 93.4905,64.2345 93.5802,64.1045 93.6362,63.9568 93.6553,63.8000 93.6447,63.7127 93.6362,63.6432 93.6001,63.5480 93.5802,63.4955 93.4905,63.3655 93.4905,63.3655 93.4173,63.3006 93.3801,63.2414 93.3755,63.2078 93.3755,63.1922 93.3952,63.1252 93.4173,63.0994 93.4905,63.0345 93.4905,63.0345 93.5802,62.9045 93.6362,62.7568 93.6553,62.6000 93.6362,62.4432 93.5802,62.2955 93.4905,62.1655 93.4905,62.1655 93.4173,62.1006 93.3801,62.0414 93.3755,62.0078 93.3755,61.7922 93.3952,61.7252 93.4173,61.6994 93.4905,61.6345 93.4905,61.6345 93.5802,61.5045 93.6362,61.3568 93.6553,61.2000 93.6362,61.0432 93.5802,60.8955 93.4905,60.7655 93.3722,60.6607 93.3722,60.6607 93.3722,60.6607 93.2324,60.5873 93.0790,60.5495 93.0790,60.5495 92.9210,60.5495 92.9210,60.5495 92.7676,60.5873 92.6278,60.6607 92.6278,60.6607 92.5822,60.7011 92.5190,60.7308 92.4497,60.7216 92.4178,60.7011 92.3722,60.6607 92.3722,60.6607 92.2324,60.5873 92.0790,60.5495 92.0790,60.5495 91.9210,60.5495 91.9210,60.5495 91.7676,60.5873 91.6278,60.6607 91.5095,60.7655 91.4198,60.8955 91.4198,60.8955 91.3638,61.0432 91.3447,61.2000 91.3447,61.2000 91.3638,61.3568 91.3841,61.4105 91.3895,61.4802 91.3563,61.5417 91.3371,61.5576 91.3194,61.5694 91.2640,61.6523 91.2640,61.6523 91.2495,61.7253 91.2495,61.7253 91.2495,64.5247 90.7505,64.5247 90.7505,64.5247 90.7505,61.7253 90.7505,61.7253 90.7505,61.7253 90.7360,61.6523 90.7360,61.6523 90.7241,61.6345 90.6806,61.5694 90.5977,61.5140 90.5977,61.5140 90.5977,61.5140 90.5247,61.4995 90.5247,61.4995 90.2238,61.4995 90.1568,61.4798 90.1111,61.4270 90.1011,61.3579 90.1079,61.3315 90.1101,61.3256 90.1362,61.2568 90.1553,61.1000 90.1553,61.1000 90.1553,61.0976 90.1558,61.0959 90.1562,61.0926 90.1567,61.0926 90.1750,61.0306 90.1916,61.0099 90.1916,61.0099 90.2289,60.9726 90.2487,60.9565 90.2578,60.9506 90.2796,60.9226 90.2847,60.9168 90.2875,60.9140 90.3004,60.8960 90.3019,60.8940 90.3348,60.8517 90.3385,60.8448 90.3420,60.8377 90.3420,60.8377 90.3573,60.7863 90.3581,60.7839 90.3755,60.7332 90.3755,60.7332 90.3768,60.7254 90.3778,60.7176 90.3756,60.6640 90.3755,60.6615 90.3755,58.6245 90.3952,58.5575 90.4480,58.5117 90.4995,58.5005 90.5247,58.5005 90.5247,58.5005 90.5977,58.4860 90.6806,58.4306 90.7360,58.3477 90.7505,58.2747 90.7505,57.1250 91.0000,57.1250 91.0000,58.2978 91.0064,58.3574 91.0064,58.3574 91.0566,58.4921 91.0566,58.4921 91.1428,58.6072 91.1428,58.6072 91.2579,58.6933 91.2579,58.6934 91.3926,58.7436 91.3926,58.7436 91.4522,58.7500 91.4522,58.7500 91.7500,58.7500 91.7500,57.1250 92.2500,57.1250 92.2500,58.7500 92.5478,58.7500 92.5478,58.7500 92.6074,58.7436 92.6074,58.7436 92.7421,58.6934 92.7421,58.6933 92.8572,58.6072 92.8572,58.6072 92.9433,58.4921 92.9434,58.4921 92.9936,58.3574 92.9936,58.3574 93.0000,58.2978 93.0000,58.2978 93.0000,57.1250 92.2500,57.1250 91.7500,57.1250 91.0000,57.1250 90.7505,57.1250 90.7505,56.6250 91.0000,56.6250 91.7500,56.6250 91.7500,55.0000 92.2500,55.0000 92.2500,56.6250 93.0000,56.6250 93.0000,55.4522 93.0000,55.4522 92.9936,55.3926 92.9936,55.3926 92.9434,55.2579 92.9433,55.2579 92.8572,55.1428 92.8572,55.1428 92.7421,55.0566 92.7421,55.0566 92.6074,55.0064 92.6074,55.0064 92.5478,55.0000 92.2500,55.0000 91.7500,55.0000 91.4522,55.0000 91.3926,55.0064 91.3926,55.0064 91.2579,55.0566 91.2579,55.0566 91.1428,55.1428 91.1428,55.1428 91.0566,55.2579 91.0566,55.2579 91.0064,55.3926 91.0064,55.3926 91.0000,55.4522 91.0000,56.6250 90.7505,56.6250 90.7505,55.4753 90.7505,55.4753 90.7505,55.4753 90.7505,55.4753 90.7360,55.4023 90.7360,55.4023 90.7360,55.4023 90.6806,55.3194 90.5977,55.2640 90.5977,55.2640 90.5977,55.2640 90.5247,55.2495 90.5247,55.2495 89.4753,55.2495 89.4753,55.2495 89.4023,55.2640 89.4023,55.2640 89.3194,55.3194 89.2640,55.4023 89.2640,55.4023 89.2495,55.4753 89.2495,55.4753 89.2495,58.2747 89.2495,58.2747 89.2640,58.3477 89.2640,58.3477 89.2640,58.3477 89.3194,58.4306 89.4023,58.4860 89.4023,58.4860 89.4753,58.5005 89.4753,58.5005 89.4753,58.5005 89.5005,58.5005 89.5675,58.5202 89.6133,58.5730 89.6245,58.6245 89.6245,60.3255 89.6048,60.3925 89.5520,60.4383 89.5005,60.4495 89.4210,60.4495 89.2676,60.4873 89.1278,60.5607 89.1278,60.5607 89.1278,60.5607 89.0149,60.6607 89.0095,60.6655 88.9198,60.7955 88.9198,60.7955 88.8638,60.9432 88.8447,61.1000 88.8447,61.1000 88.8638,61.2568 88.8921,61.3315 88.9198,61.4045 89.0095,61.5345 89.1278,61.6393 89.1831,61.6683 89.2333,61.7169 89.2495,61.7781 89.2495,62.6005 89.2298,62.6675 89.1770,62.7133 89.1255,62.7245 88.6963,62.7245 88.6293,62.7048 88.5943,62.6709 88.5905,62.6655 88.4722,62.5607 88.4722,62.5607 88.4722,62.5607 88.3324,62.4873 88.1790,62.4495 88.1790,62.4495 88.0210,62.4495 88.0210,62.4495 87.8676,62.4873 87.7278,62.5607 87.6095,62.6655 87.5198,62.7955 87.5198,62.7955 87.4638,62.9432 87.4447,63.1000 87.4447,63.1000 85.2545,63.1000 85.4061,62.8373 85.6169,62.3931 85.7912,61.9334 85.9280,61.4611 86.0264,60.9794 86.0857,60.4913 86.0857,60.4913 86.1055,60.0000 86.1055,60.0000 86.0857,59.5087 86.0857,59.5087 86.0857,59.5087 86.0264,59.0206 85.9280,58.5389 85.8967,58.4306 85.7912,58.0666 85.7143,57.8636 85.6169,57.6069 85.4061,57.1627 85.1603,56.7368 85.1603,56.7368 85.1603,56.7368 84.8834,56.3358 84.8810,56.3322 84.8810,56.3322 84.8809,56.3322 84.5700,55.9513 84.5700,55.9513 84.2294,55.5967 84.2294,55.5967 83.8614,55.2707 83.6648,55.1230 83.4683,54.9753 83.0527,54.7125 83.0527,54.7125 83.0527,54.7125 82.6174,54.4840 82.4398,54.4084 82.1650,54.2913 82.1650,54.2913 82.1650,54.2913 81.9345,54.2144 81.6986,54.1356 81.6986,54.1356 81.6986,54.1356 81.5157,54.0905 81.2212,54.0179 81.2212,54.0179 81.2212,54.0179 81.2212,54.0179 80.7359,53.9391 80.2459,53.8995 80.2458,53.8995 79.7542,53.8995 79.7541,53.8995 79.2641,53.9391 78.7788,54.0179 78.7788,54.0179 78.7788,54.0179 78.7788,54.0179 78.7551,54.0238 78.3014,54.1356 78.3014,54.1356 77.8350,54.2913 77.8350,54.2913 77.8350,54.2913 77.7307,54.3357 77.3826,54.4840 76.9473,54.7125 76.5317,54.9753 76.5317,54.9753 76.1386,55.2707 75.7706,55.5967 75.7706,55.5967 75.4300,55.9513 75.4300,55.9513 75.1190,56.3322 74.8397,56.7368 74.8397,56.7368 74.5939,57.1626 74.3831,57.6069 74.2088,58.0666 74.0720,58.5389 73.9736,59.0206 73.9143,59.5087 73.9143,59.5087 73.8945,60.0000 73.8945,60.0000 66.0005,60.0000 66.0005,47.0027 66.0007,46.9973 66.0045,46.9546 66.0057,46.9418 66.0169,46.8282 66.0205,46.8083 66.0382,46.7425 66.0387,46.7408 66.0667,46.6484 66.0729,46.6320 66.1044,46.5646 66.1059,46.5617 66.1508,46.4777 66.1547,46.4713 66.1878,46.4239 66.2010,46.4052 66.2038,46.4014 66.2631,46.3292 66.2672,46.3247 66.3247,46.2672 66.3292,46.2631 66.4014,46.2038 66.4052,46.2010 66.4713,46.1547 66.4777,46.1508 66.5617,46.1059 66.5646,46.1044 66.6320,46.0729 66.6484,46.0667 66.7408,46.0387 66.7425,46.0382 66.8083,46.0205 66.8282,46.0169 66.9418,46.0057 66.9546,46.0045 66.9973,46.0007 67.0027,46.0005 92.9973,46.0005 Z"/> 
</g>
</g>
</g> 
</g><g id="substrate-silk" style="fill:#d5dce4; stroke:#d5dce4;" mask="url(#pads-mask-silkscreen)"><g style="fill-opacity: 0.0;stroke-width: 0.1000;stroke-opacity: 1;stroke-linecap: round;stroke-linejoin: round">
<circle cx="80.0000" cy="60.0000" r="7.0500"/> 
</g>
<g style="fill-opacity: 0.0;stroke-width: 0.1250;stroke-opacity: 1;stroke-linecap: round;stroke-linejoin: round">
<text x="80.0000" y="73.4000" transform="scale(-1 1) translate(-160.000000 0)" textLength="4.2363" font-size="0.6667" lengthAdjust="spacingAndGlyphs" text-anchor="middle" opacity="0">PCB: 1.0.0</text>
<g class="stroked-text"><desc>PCB: 1.0.0</desc>
<path d="M81.8929 73.3323 L81.8929 72.8323 "/>
<path d="M81.8929 72.8323 L81.7024 72.8323 "/>
<path d="M81.7024 72.8323 L81.6548 72.8561 "/>
<path d="M81.6548 72.8561 L81.6309 72.8799 "/>
<path d="M81.6309 72.8799 L81.6071 72.9275 "/>
<path d="M81.6071 72.9275 L81.6071 72.9990 "/>
<path d="M81.6071 72.9990 L81.6309 73.0466 "/>
<path d="M81.6309 73.0466 L81.6548 73.0704 "/>
<path d="M81.6548 73.0704 L81.7024 73.0942 "/>
<path d="M81.7024 73.0942 L81.8929 73.0942 "/>
<path d="M81.1071 73.2847 L81.1309 73.3085 "/>
<path d="M81.1309 73.3085 L81.2024 73.3323 "/>
<path d="M81.2024 73.3323 L81.2500 73.3323 "/>
<path d="M81.2500 73.3323 L81.3214 73.3085 "/>
<path d="M81.3214 73.3085 L81.3690 73.2609 "/>
<path d="M81.3690 73.2609 L81.3929 73.2133 "/>
<path d="M81.3929 73.2133 L81.4167 73.1180 "/>
<path d="M81.4167 73.1180 L81.4167 73.0466 "/>
<path d="M81.4167 73.0466 L81.3929 72.9514 "/>
<path d="M81.3929 72.9514 L81.3690 72.9037 "/>
<path d="M81.3690 72.9037 L81.3214 72.8561 "/>
<path d="M81.3214 72.8561 L81.2500 72.8323 "/>
<path d="M81.2500 72.8323 L81.2024 72.8323 "/>
<path d="M81.2024 72.8323 L81.1309 72.8561 "/>
<path d="M81.1309 72.8561 L81.1071 72.8799 "/>
<path d="M80.7262 73.0704 L80.6548 73.0942 "/>
<path d="M80.6548 73.0942 L80.6309 73.1180 "/>
<path d="M80.6309 73.1180 L80.6071 73.1656 "/>
<path d="M80.6071 73.1656 L80.6071 73.2371 "/>
<path d="M80.6071 73.2371 L80.6309 73.2847 "/>
<path d="M80.6309 73.2847 L80.6548 73.3085 "/>
<path d="M80.6548 73.3085 L80.7024 73.3323 "/>
<path d="M80.7024 73.3323 L80.8929 73.3323 "/>
<path d="M80.8929 73.3323 L80.8929 72.8323 "/>
<path d="M80.8929 72.8323 L80.7262 72.8323 "/>
<path d="M80.7262 72.8323 L80.6786 72.8561 "/>
<path d="M80.6786 72.8561 L80.6548 72.8799 "/>
<path d="M80.6548 72.8799 L80.6309 72.9275 "/>
<path d="M80.6309 72.9275 L80.6309 72.9752 "/>
<path d="M80.6309 72.9752 L80.6548 73.0228 "/>
<path d="M80.6548 73.0228 L80.6786 73.0466 "/>
<path d="M80.6786 73.0466 L80.7262 73.0704 "/>
<path d="M80.7262 73.0704 L80.8929 73.0704 "/>
<path d="M80.3929 73.2847 L80.3690 73.3085 "/>
<path d="M80.3690 73.3085 L80.3929 73.3323 "/>
<path d="M80.3929 73.3323 L80.4167 73.3085 "/>
<path d="M80.4167 73.3085 L80.3929 73.2847 "/>
<path d="M80.3929 73.2847 L80.3929 73.3323 "/>
<path d="M80.3929 73.0228 L80.3690 73.0466 "/>
<path d="M80.3690 73.0466 L80.3929 73.0704 "/>
<path d="M80.3929 73.0704 L80.4167 73.0466 "/>
<path d="M80.4167 73.0466 L80.3929 73.0228 "/>
<path d="M80.3929 73.0228 L80.3929 73.0704 "/>
<path d="M79.5119 73.3323 L79.7976 73.3323 "/>
<path d="M79.6548 73.3323 L79.6548 72.8323 "/>
<path d="M79.6548 72.8323 L79.7024 72.9037 "/>
<path d="M79.7024 72.9037 L79.7500 72.9514 "/>
<path d="M79.7500 72.9514 L79.7976 72.9752 "/>
<path d="M79.2976 73.2847 L79.2738 73.3085 "/>
<path d="M79.2738 73.3085 L79.2976 73.3323 "/>
<path d="M79.2976 73.3323 L79.3214 73.3085 "/>
<path d="M79.3214 73.3085 L79.2976 73.2847 "/>
<path d="M79.2976 73.2847 L79.2976 73.3323 "/>
<path d="M78.9643 72.8323 L78.9167 72.8323 "/>
<path d="M78.9167 72.8323 L78.8690 72.8561 "/>
<path d="M78.8690 72.8561 L78.8452 72.8799 "/>
<path d="M78.8452 72.8799 L78.8214 72.9275 "/>
<path d="M78.8214 72.9275 L78.7976 73.0228 "/>
<path d="M78.7976 73.0228 L78.7976 73.1418 "/>
<path d="M78.7976 73.1418 L78.8214 73.2371 "/>
<path d="M78.8214 73.2371 L78.8452 73.2847 "/>
<path d="M78.8452 73.2847 L78.8690 73.3085 "/>
<path d="M78.8690 73.3085 L78.9167 73.3323 "/>
<path d="M78.9167 73.3323 L78.9643 73.3323 "/>
<path d="M78.9643 73.3323 L79.0119 73.3085 "/>
<path d="M79.0119 73.3085 L79.0357 73.2847 "/>
<path d="M79.0357 73.2847 L79.0595 73.2371 "/>
<path d="M79.0595 73.2371 L79.0833 73.1418 "/>
<path d="M79.0833 73.1418 L79.0833 73.0228 "/>
<path d="M79.0833 73.0228 L79.0595 72.9275 "/>
<path d="M79.0595 72.9275 L79.0357 72.8799 "/>
<path d="M79.0357 72.8799 L79.0119 72.8561 "/>
<path d="M79.0119 72.8561 L78.9643 72.8323 "/>
<path d="M78.5833 73.2847 L78.5595 73.3085 "/>
<path d="M78.5595 73.3085 L78.5833 73.3323 "/>
<path d="M78.5833 73.3323 L78.6071 73.3085 "/>
<path d="M78.6071 73.3085 L78.5833 73.2847 "/>
<path d="M78.5833 73.2847 L78.5833 73.3323 "/>
<path d="M78.2500 72.8323 L78.2024 72.8323 "/>
<path d="M78.2024 72.8323 L78.1548 72.8561 "/>
<path d="M78.1548 72.8561 L78.1310 72.8799 "/>
<path d="M78.1310 72.8799 L78.1071 72.9275 "/>
<path d="M78.1071 72.9275 L78.0833 73.0228 "/>
<path d="M78.0833 73.0228 L78.0833 73.1418 "/>
<path d="M78.0833 73.1418 L78.1071 73.2371 "/>
<path d="M78.1071 73.2371 L78.1310 73.2847 "/>
<path d="M78.1310 73.2847 L78.1548 73.3085 "/>
<path d="M78.1548 73.3085 L78.2024 73.3323 "/>
<path d="M78.2024 73.3323 L78.2500 73.3323 "/>
<path d="M78.2500 73.3323 L78.2976 73.3085 "/>
<path d="M78.2976 73.3085 L78.3214 73.2847 "/>
<path d="M78.3214 73.2847 L78.3452 73.2371 "/>
<path d="M78.3452 73.2371 L78.3690 73.1418 "/>
<path d="M78.3690 73.1418 L78.3690 73.0228 "/>
<path d="M78.3690 73.0228 L78.3452 72.9275 "/>
<path d="M78.3452 72.9275 L78.3214 72.8799 "/>
<path d="M78.3214 72.8799 L78.2976 72.8561 "/>
<path d="M78.2976 72.8561 L78.2500 72.8323 "/>
</g></g>
<g style="fill-opacity: 0.0;stroke-width: 0.1500;stroke-opacity: 1;stroke-linecap: round;stroke-linejoin: round">
<text x="79.8000" y="47.1925" transform="scale(-1 1) translate(-159.600000 0)" textLength="12.1893" font-size="1.0000" lengthAdjust="spacingAndGlyphs" text-anchor="middle" opacity="0">Pedalboard LED Ring</text>
<g class="stroked-text"><desc>Pedalboard LED Ring</desc>
<path d="M85.6036 47.0929 L85.6036 46.3429 "/>
<path d="M85.6036 46.3429 L85.3179 46.3429 "/>
<path d="M85.3179 46.3429 L85.2464 46.3786 "/>
<path d="M85.2464 46.3786 L85.2107 46.4143 "/>
<path d="M85.2107 46.4143 L85.1750 46.4858 "/>
<path d="M85.1750 46.4858 L85.1750 46.5929 "/>
<path d="M85.1750 46.5929 L85.2107 46.6643 "/>
<path d="M85.2107 46.6643 L85.2464 46.7001 "/>
<path d="M85.2464 46.7001 L85.3179 46.7358 "/>
<path d="M85.3179 46.7358 L85.6036 46.7358 "/>
<path d="M84.5679 47.0572 L84.6393 47.0929 "/>
<path d="M84.6393 47.0929 L84.7821 47.0929 "/>
<path d="M84.7821 47.0929 L84.8536 47.0572 "/>
<path d="M84.8536 47.0572 L84.8893 46.9858 "/>
<path d="M84.8893 46.9858 L84.8893 46.7001 "/>
<path d="M84.8893 46.7001 L84.8536 46.6286 "/>
<path d="M84.8536 46.6286 L84.7821 46.5929 "/>
<path d="M84.7821 46.5929 L84.6393 46.5929 "/>
<path d="M84.6393 46.5929 L84.5679 46.6286 "/>
<path d="M84.5679 46.6286 L84.5321 46.7001 "/>
<path d="M84.5321 46.7001 L84.5321 46.7715 "/>
<path d="M84.5321 46.7715 L84.8893 46.8429 "/>
<path d="M83.8893 47.0929 L83.8893 46.3429 "/>
<path d="M83.8893 47.0572 L83.9607 47.0929 "/>
<path d="M83.9607 47.0929 L84.1036 47.0929 "/>
<path d="M84.1036 47.0929 L84.1750 47.0572 "/>
<path d="M84.1750 47.0572 L84.2107 47.0215 "/>
<path d="M84.2107 47.0215 L84.2464 46.9501 "/>
<path d="M84.2464 46.9501 L84.2464 46.7358 "/>
<path d="M84.2464 46.7358 L84.2107 46.6643 "/>
<path d="M84.2107 46.6643 L84.1750 46.6286 "/>
<path d="M84.1750 46.6286 L84.1036 46.5929 "/>
<path d="M84.1036 46.5929 L83.9607 46.5929 "/>
<path d="M83.9607 46.5929 L83.8893 46.6286 "/>
<path d="M83.2107 47.0929 L83.2107 46.7001 "/>
<path d="M83.2107 46.7001 L83.2464 46.6286 "/>
<path d="M83.2464 46.6286 L83.3179 46.5929 "/>
<path d="M83.3179 46.5929 L83.4607 46.5929 "/>
<path d="M83.4607 46.5929 L83.5321 46.6286 "/>
<path d="M83.2107 47.0572 L83.2821 47.0929 "/>
<path d="M83.2821 47.0929 L83.4607 47.0929 "/>
<path d="M83.4607 47.0929 L83.5321 47.0572 "/>
<path d="M83.5321 47.0572 L83.5679 46.9858 "/>
<path d="M83.5679 46.9858 L83.5679 46.9143 "/>
<path d="M83.5679 46.9143 L83.5321 46.8429 "/>
<path d="M83.5321 46.8429 L83.4607 46.8072 "/>
<path d="M83.4607 46.8072 L83.2821 46.8072 "/>
<path d="M83.2821 46.8072 L83.2107 46.7715 "/>
<path d="M82.7464 47.0929 L82.8179 47.0572 "/>
<path d="M82.8179 47.0572 L82.8536 46.9858 "/>
<path d="M82.8536 46.9858 L82.8536 46.3429 "/>
<path d="M82.4607 47.0929 L82.4607 46.3429 "/>
<path d="M82.4607 46.6286 L82.3893 46.5929 "/>
<path d="M82.3893 46.5929 L82.2464 46.5929 "/>
<path d="M82.2464 46.5929 L82.1750 46.6286 "/>
<path d="M82.1750 46.6286 L82.1393 46.6643 "/>
<path d="M82.1393 46.6643 L82.1036 46.7358 "/>
<path d="M82.1036 46.7358 L82.1036 46.9501 "/>
<path d="M82.1036 46.9501 L82.1393 47.0215 "/>
<path d="M82.1393 47.0215 L82.1750 47.0572 "/>
<path d="M82.1750 47.0572 L82.2464 47.0929 "/>
<path d="M82.2464 47.0929 L82.3893 47.0929 "/>
<path d="M82.3893 47.0929 L82.4607 47.0572 "/>
<path d="M81.6750 47.0929 L81.7464 47.0572 "/>
<path d="M81.7464 47.0572 L81.7821 47.0215 "/>
<path d="M81.7821 47.0215 L81.8179 46.9501 "/>
<path d="M81.8179 46.9501 L81.8179 46.7358 "/>
<path d="M81.8179 46.7358 L81.7821 46.6643 "/>
<path d="M81.7821 46.6643 L81.7464 46.6286 "/>
<path d="M81.7464 46.6286 L81.6750 46.5929 "/>
<path d="M81.6750 46.5929 L81.5679 46.5929 "/>
<path d="M81.5679 46.5929 L81.4964 46.6286 "/>
<path d="M81.4964 46.6286 L81.4607 46.6643 "/>
<path d="M81.4607 46.6643 L81.4250 46.7358 "/>
<path d="M81.4250 46.7358 L81.4250 46.9501 "/>
<path d="M81.4250 46.9501 L81.4607 47.0215 "/>
<path d="M81.4607 47.0215 L81.4964 47.0572 "/>
<path d="M81.4964 47.0572 L81.5679 47.0929 "/>
<path d="M81.5679 47.0929 L81.6750 47.0929 "/>
<path d="M80.7821 47.0929 L80.7821 46.7001 "/>
<path d="M80.7821 46.7001 L80.8179 46.6286 "/>
<path d="M80.8179 46.6286 L80.8893 46.5929 "/>
<path d="M80.8893 46.5929 L81.0321 46.5929 "/>
<path d="M81.0321 46.5929 L81.1036 46.6286 "/>
<path d="M80.7821 47.0572 L80.8536 47.0929 "/>
<path d="M80.8536 47.0929 L81.0321 47.0929 "/>
<path d="M81.0321 47.0929 L81.1036 47.0572 "/>
<path d="M81.1036 47.0572 L81.1393 46.9858 "/>
<path d="M81.1393 46.9858 L81.1393 46.9143 "/>
<path d="M81.1393 46.9143 L81.1036 46.8429 "/>
<path d="M81.1036 46.8429 L81.0321 46.8072 "/>
<path d="M81.0321 46.8072 L80.8536 46.8072 "/>
<path d="M80.8536 46.8072 L80.7821 46.7715 "/>
<path d="M80.4250 47.0929 L80.4250 46.5929 "/>
<path d="M80.4250 46.7358 L80.3893 46.6643 "/>
<path d="M80.3893 46.6643 L80.3536 46.6286 "/>
<path d="M80.3536 46.6286 L80.2821 46.5929 "/>
<path d="M80.2821 46.5929 L80.2107 46.5929 "/>
<path d="M79.6393 47.0929 L79.6393 46.3429 "/>
<path d="M79.6393 47.0572 L79.7107 47.0929 "/>
<path d="M79.7107 47.0929 L79.8536 47.0929 "/>
<path d="M79.8536 47.0929 L79.9250 47.0572 "/>
<path d="M79.9250 47.0572 L79.9607 47.0215 "/>
<path d="M79.9607 47.0215 L79.9964 46.9501 "/>
<path d="M79.9964 46.9501 L79.9964 46.7358 "/>
<path d="M79.9964 46.7358 L79.9607 46.6643 "/>
<path d="M79.9607 46.6643 L79.9250 46.6286 "/>
<path d="M79.9250 46.6286 L79.8536 46.5929 "/>
<path d="M79.8536 46.5929 L79.7107 46.5929 "/>
<path d="M79.7107 46.5929 L79.6393 46.6286 "/>
<path d="M78.3536 47.0929 L78.7107 47.0929 "/>
<path d="M78.7107 47.0929 L78.7107 46.3429 "/>
<path d="M78.1036 46.7001 L77.8536 46.7001 "/>
<path d="M77.7464 47.0929 L78.1036 47.0929 "/>
<path d="M78.1036 47.0929 L78.1036 46.3429 "/>
<path d="M78.1036 46.3429 L77.7464 46.3429 "/>
<path d="M77.4250 47.0929 L77.4250 46.3429 "/>
<path d="M77.4250 46.3429 L77.2464 46.3429 "/>
<path d="M77.2464 46.3429 L77.1393 46.3786 "/>
<path d="M77.1393 46.3786 L77.0679 46.4501 "/>
<path d="M77.0679 46.4501 L77.0321 46.5215 "/>
<path d="M77.0321 46.5215 L76.9964 46.6643 "/>
<path d="M76.9964 46.6643 L76.9964 46.7715 "/>
<path d="M76.9964 46.7715 L77.0321 46.9143 "/>
<path d="M77.0321 46.9143 L77.0679 46.9858 "/>
<path d="M77.0679 46.9858 L77.1393 47.0572 "/>
<path d="M77.1393 47.0572 L77.2464 47.0929 "/>
<path d="M77.2464 47.0929 L77.4250 47.0929 "/>
<path d="M75.6750 47.0929 L75.9250 46.7358 "/>
<path d="M76.1036 47.0929 L76.1036 46.3429 "/>
<path d="M76.1036 46.3429 L75.8179 46.3429 "/>
<path d="M75.8179 46.3429 L75.7464 46.3786 "/>
<path d="M75.7464 46.3786 L75.7107 46.4143 "/>
<path d="M75.7107 46.4143 L75.6750 46.4858 "/>
<path d="M75.6750 46.4858 L75.6750 46.5929 "/>
<path d="M75.6750 46.5929 L75.7107 46.6643 "/>
<path d="M75.7107 46.6643 L75.7464 46.7001 "/>
<path d="M75.7464 46.7001 L75.8179 46.7358 "/>
<path d="M75.8179 46.7358 L76.1036 46.7358 "/>
<path d="M75.3536 47.0929 L75.3536 46.5929 "/>
<path d="M75.3536 46.3429 L75.3893 46.3786 "/>
<path d="M75.3893 46.3786 L75.3536 46.4143 "/>
<path d="M75.3536 46.4143 L75.3179 46.3786 "/>
<path d="M75.3179 46.3786 L75.3536 46.3429 "/>
<path d="M75.3536 46.3429 L75.3536 46.4143 "/>
<path d="M74.9964 46.5929 L74.9964 47.0929 "/>
<path d="M74.9964 46.6643 L74.9607 46.6286 "/>
<path d="M74.9607 46.6286 L74.8893 46.5929 "/>
<path d="M74.8893 46.5929 L74.7821 46.5929 "/>
<path d="M74.7821 46.5929 L74.7107 46.6286 "/>
<path d="M74.7107 46.6286 L74.6750 46.7001 "/>
<path d="M74.6750 46.7001 L74.6750 47.0929 "/>
<path d="M73.9964 46.5929 L73.9964 47.2001 "/>
<path d="M73.9964 47.2001 L74.0321 47.2715 "/>
<path d="M74.0321 47.2715 L74.0679 47.3072 "/>
<path d="M74.0679 47.3072 L74.1393 47.3429 "/>
<path d="M74.1393 47.3429 L74.2464 47.3429 "/>
<path d="M74.2464 47.3429 L74.3179 47.3072 "/>
<path d="M73.9964 47.0572 L74.0679 47.0929 "/>
<path d="M74.0679 47.0929 L74.2107 47.0929 "/>
<path d="M74.2107 47.0929 L74.2821 47.0572 "/>
<path d="M74.2821 47.0572 L74.3179 47.0215 "/>
<path d="M74.3179 47.0215 L74.3536 46.9501 "/>
<path d="M74.3536 46.9501 L74.3536 46.7358 "/>
<path d="M74.3536 46.7358 L74.3179 46.6643 "/>
<path d="M74.3179 46.6643 L74.2821 46.6286 "/>
<path d="M74.2821 46.6286 L74.2107 46.5929 "/>
<path d="M74.2107 46.5929 L74.0679 46.5929 "/>
<path d="M74.0679 46.5929 L73.9964 46.6286 "/>
</g><text x="79.8000" y="48.4000" transform="scale(-1 1) translate(-159.600000 0)" textLength="18.1893" font-size="1.0000" lengthAdjust="spacingAndGlyphs" text-anchor="middle" opacity="0">https://github.com/pedalboard</text>
<g class="stroked-text"><desc>https://github.com/pedalboard</desc>
<path d="M88.6036 48.3004 L88.6036 47.5504 "/>
<path d="M88.2821 48.3004 L88.2821 47.9076 "/>
<path d="M88.2821 47.9076 L88.3179 47.8361 "/>
<path d="M88.3179 47.8361 L88.3893 47.8004 "/>
<path d="M88.3893 47.8004 L88.4964 47.8004 "/>
<path d="M88.4964 47.8004 L88.5679 47.8361 "/>
<path d="M88.5679 47.8361 L88.6036 47.8718 "/>
<path d="M88.0321 47.8004 L87.7464 47.8004 "/>
<path d="M87.9250 47.5504 L87.9250 48.1933 "/>
<path d="M87.9250 48.1933 L87.8893 48.2647 "/>
<path d="M87.8893 48.2647 L87.8179 48.3004 "/>
<path d="M87.8179 48.3004 L87.7464 48.3004 "/>
<path d="M87.6036 47.8004 L87.3179 47.8004 "/>
<path d="M87.4964 47.5504 L87.4964 48.1933 "/>
<path d="M87.4964 48.1933 L87.4607 48.2647 "/>
<path d="M87.4607 48.2647 L87.3893 48.3004 "/>
<path d="M87.3893 48.3004 L87.3179 48.3004 "/>
<path d="M87.0679 47.8004 L87.0679 48.5504 "/>
<path d="M87.0679 47.8361 L86.9964 47.8004 "/>
<path d="M86.9964 47.8004 L86.8536 47.8004 "/>
<path d="M86.8536 47.8004 L86.7821 47.8361 "/>
<path d="M86.7821 47.8361 L86.7464 47.8718 "/>
<path d="M86.7464 47.8718 L86.7107 47.9433 "/>
<path d="M86.7107 47.9433 L86.7107 48.1576 "/>
<path d="M86.7107 48.1576 L86.7464 48.2290 "/>
<path d="M86.7464 48.2290 L86.7821 48.2647 "/>
<path d="M86.7821 48.2647 L86.8536 48.3004 "/>
<path d="M86.8536 48.3004 L86.9964 48.3004 "/>
<path d="M86.9964 48.3004 L87.0679 48.2647 "/>
<path d="M86.4250 48.2647 L86.3536 48.3004 "/>
<path d="M86.3536 48.3004 L86.2107 48.3004 "/>
<path d="M86.2107 48.3004 L86.1393 48.2647 "/>
<path d="M86.1393 48.2647 L86.1036 48.1933 "/>
<path d="M86.1036 48.1933 L86.1036 48.1576 "/>
<path d="M86.1036 48.1576 L86.1393 48.0861 "/>
<path d="M86.1393 48.0861 L86.2107 48.0504 "/>
<path d="M86.2107 48.0504 L86.3179 48.0504 "/>
<path d="M86.3179 48.0504 L86.3893 48.0147 "/>
<path d="M86.3893 48.0147 L86.4250 47.9433 "/>
<path d="M86.4250 47.9433 L86.4250 47.9076 "/>
<path d="M86.4250 47.9076 L86.3893 47.8361 "/>
<path d="M86.3893 47.8361 L86.3179 47.8004 "/>
<path d="M86.3179 47.8004 L86.2107 47.8004 "/>
<path d="M86.2107 47.8004 L86.1393 47.8361 "/>
<path d="M85.7821 48.2290 L85.7464 48.2647 "/>
<path d="M85.7464 48.2647 L85.7821 48.3004 "/>
<path d="M85.7821 48.3004 L85.8179 48.2647 "/>
<path d="M85.8179 48.2647 L85.7821 48.2290 "/>
<path d="M85.7821 48.2290 L85.7821 48.3004 "/>
<path d="M85.7821 47.8361 L85.7464 47.8718 "/>
<path d="M85.7464 47.8718 L85.7821 47.9076 "/>
<path d="M85.7821 47.9076 L85.8179 47.8718 "/>
<path d="M85.8179 47.8718 L85.7821 47.8361 "/>
<path d="M85.7821 47.8361 L85.7821 47.9076 "/>
<path d="M84.8893 47.5147 L85.5321 48.4790 "/>
<path d="M84.1036 47.5147 L84.7464 48.4790 "/>
<path d="M83.5321 47.8004 L83.5321 48.4076 "/>
<path d="M83.5321 48.4076 L83.5679 48.4790 "/>
<path d="M83.5679 48.4790 L83.6036 48.5147 "/>
<path d="M83.6036 48.5147 L83.6750 48.5504 "/>
<path d="M83.6750 48.5504 L83.7821 48.5504 "/>
<path d="M83.7821 48.5504 L83.8536 48.5147 "/>
<path d="M83.5321 48.2647 L83.6036 48.3004 "/>
<path d="M83.6036 48.3004 L83.7464 48.3004 "/>
<path d="M83.7464 48.3004 L83.8179 48.2647 "/>
<path d="M83.8179 48.2647 L83.8536 48.2290 "/>
<path d="M83.8536 48.2290 L83.8893 48.1576 "/>
<path d="M83.8893 48.1576 L83.8893 47.9433 "/>
<path d="M83.8893 47.9433 L83.8536 47.8718 "/>
<path d="M83.8536 47.8718 L83.8179 47.8361 "/>
<path d="M83.8179 47.8361 L83.7464 47.8004 "/>
<path d="M83.7464 47.8004 L83.6036 47.8004 "/>
<path d="M83.6036 47.8004 L83.5321 47.8361 "/>
<path d="M83.1750 48.3004 L83.1750 47.8004 "/>
<path d="M83.1750 47.5504 L83.2107 47.5861 "/>
<path d="M83.2107 47.5861 L83.1750 47.6218 "/>
<path d="M83.1750 47.6218 L83.1393 47.5861 "/>
<path d="M83.1393 47.5861 L83.1750 47.5504 "/>
<path d="M83.1750 47.5504 L83.1750 47.6218 "/>
<path d="M82.9250 47.8004 L82.6393 47.8004 "/>
<path d="M82.8179 47.5504 L82.8179 48.1933 "/>
<path d="M82.8179 48.1933 L82.7821 48.2647 "/>
<path d="M82.7821 48.2647 L82.7107 48.3004 "/>
<path d="M82.7107 48.3004 L82.6393 48.3004 "/>
<path d="M82.3893 48.3004 L82.3893 47.5504 "/>
<path d="M82.0679 48.3004 L82.0679 47.9076 "/>
<path d="M82.0679 47.9076 L82.1036 47.8361 "/>
<path d="M82.1036 47.8361 L82.1750 47.8004 "/>
<path d="M82.1750 47.8004 L82.2821 47.8004 "/>
<path d="M82.2821 47.8004 L82.3536 47.8361 "/>
<path d="M82.3536 47.8361 L82.3893 47.8718 "/>
<path d="M81.3893 47.8004 L81.3893 48.3004 "/>
<path d="M81.7107 47.8004 L81.7107 48.1933 "/>
<path d="M81.7107 48.1933 L81.6750 48.2647 "/>
<path d="M81.6750 48.2647 L81.6036 48.3004 "/>
<path d="M81.6036 48.3004 L81.4964 48.3004 "/>
<path d="M81.4964 48.3004 L81.4250 48.2647 "/>
<path d="M81.4250 48.2647 L81.3893 48.2290 "/>
<path d="M81.0321 48.3004 L81.0321 47.5504 "/>
<path d="M81.0321 47.8361 L80.9607 47.8004 "/>
<path d="M80.9607 47.8004 L80.8179 47.8004 "/>
<path d="M80.8179 47.8004 L80.7464 47.8361 "/>
<path d="M80.7464 47.8361 L80.7107 47.8718 "/>
<path d="M80.7107 47.8718 L80.6750 47.9433 "/>
<path d="M80.6750 47.9433 L80.6750 48.1576 "/>
<path d="M80.6750 48.1576 L80.7107 48.2290 "/>
<path d="M80.7107 48.2290 L80.7464 48.2647 "/>
<path d="M80.7464 48.2647 L80.8179 48.3004 "/>
<path d="M80.8179 48.3004 L80.9607 48.3004 "/>
<path d="M80.9607 48.3004 L81.0321 48.2647 "/>
<path d="M80.3536 48.2290 L80.3179 48.2647 "/>
<path d="M80.3179 48.2647 L80.3536 48.3004 "/>
<path d="M80.3536 48.3004 L80.3893 48.2647 "/>
<path d="M80.3893 48.2647 L80.3536 48.2290 "/>
<path d="M80.3536 48.2290 L80.3536 48.3004 "/>
<path d="M79.6750 48.2647 L79.7464 48.3004 "/>
<path d="M79.7464 48.3004 L79.8893 48.3004 "/>
<path d="M79.8893 48.3004 L79.9607 48.2647 "/>
<path d="M79.9607 48.2647 L79.9964 48.2290 "/>
<path d="M79.9964 48.2290 L80.0321 48.1576 "/>
<path d="M80.0321 48.1576 L80.0321 47.9433 "/>
<path d="M80.0321 47.9433 L79.9964 47.8718 "/>
<path d="M79.9964 47.8718 L79.9607 47.8361 "/>
<path d="M79.9607 47.8361 L79.8893 47.8004 "/>
<path d="M79.8893 47.8004 L79.7464 47.8004 "/>
<path d="M79.7464 47.8004 L79.6750 47.8361 "/>
<path d="M79.2464 48.3004 L79.3179 48.2647 "/>
<path d="M79.3179 48.2647 L79.3536 48.2290 "/>
<path d="M79.3536 48.2290 L79.3893 48.1576 "/>
<path d="M79.3893 48.1576 L79.3893 47.9433 "/>
<path d="M79.3893 47.9433 L79.3536 47.8718 "/>
<path d="M79.3536 47.8718 L79.3179 47.8361 "/>
<path d="M79.3179 47.8361 L79.2464 47.8004 "/>
<path d="M79.2464 47.8004 L79.1393 47.8004 "/>
<path d="M79.1393 47.8004 L79.0679 47.8361 "/>
<path d="M79.0679 47.8361 L79.0321 47.8718 "/>
<path d="M79.0321 47.8718 L78.9964 47.9433 "/>
<path d="M78.9964 47.9433 L78.9964 48.1576 "/>
<path d="M78.9964 48.1576 L79.0321 48.2290 "/>
<path d="M79.0321 48.2290 L79.0679 48.2647 "/>
<path d="M79.0679 48.2647 L79.1393 48.3004 "/>
<path d="M79.1393 48.3004 L79.2464 48.3004 "/>
<path d="M78.6750 48.3004 L78.6750 47.8004 "/>
<path d="M78.6750 47.8718 L78.6393 47.8361 "/>
<path d="M78.6393 47.8361 L78.5679 47.8004 "/>
<path d="M78.5679 47.8004 L78.4607 47.8004 "/>
<path d="M78.4607 47.8004 L78.3893 47.8361 "/>
<path d="M78.3893 47.8361 L78.3536 47.9076 "/>
<path d="M78.3536 47.9076 L78.3536 48.3004 "/>
<path d="M78.3536 47.9076 L78.3179 47.8361 "/>
<path d="M78.3179 47.8361 L78.2464 47.8004 "/>
<path d="M78.2464 47.8004 L78.1393 47.8004 "/>
<path d="M78.1393 47.8004 L78.0679 47.8361 "/>
<path d="M78.0679 47.8361 L78.0321 47.9076 "/>
<path d="M78.0321 47.9076 L78.0321 48.3004 "/>
<path d="M77.1393 47.5147 L77.7821 48.4790 "/>
<path d="M76.8893 47.8004 L76.8893 48.5504 "/>
<path d="M76.8893 47.8361 L76.8179 47.8004 "/>
<path d="M76.8179 47.8004 L76.6750 47.8004 "/>
<path d="M76.6750 47.8004 L76.6036 47.8361 "/>
<path d="M76.6036 47.8361 L76.5679 47.8718 "/>
<path d="M76.5679 47.8718 L76.5321 47.9433 "/>
<path d="M76.5321 47.9433 L76.5321 48.1576 "/>
<path d="M76.5321 48.1576 L76.5679 48.2290 "/>
<path d="M76.5679 48.2290 L76.6036 48.2647 "/>
<path d="M76.6036 48.2647 L76.6750 48.3004 "/>
<path d="M76.6750 48.3004 L76.8179 48.3004 "/>
<path d="M76.8179 48.3004 L76.8893 48.2647 "/>
<path d="M75.9250 48.2647 L75.9964 48.3004 "/>
<path d="M75.9964 48.3004 L76.1393 48.3004 "/>
<path d="M76.1393 48.3004 L76.2107 48.2647 "/>
<path d="M76.2107 48.2647 L76.2464 48.1933 "/>
<path d="M76.2464 48.1933 L76.2464 47.9076 "/>
<path d="M76.2464 47.9076 L76.2107 47.8361 "/>
<path d="M76.2107 47.8361 L76.1393 47.8004 "/>
<path d="M76.1393 47.8004 L75.9964 47.8004 "/>
<path d="M75.9964 47.8004 L75.9250 47.8361 "/>
<path d="M75.9250 47.8361 L75.8893 47.9076 "/>
<path d="M75.8893 47.9076 L75.8893 47.9790 "/>
<path d="M75.8893 47.9790 L76.2464 48.0504 "/>
<path d="M75.2464 48.3004 L75.2464 47.5504 "/>
<path d="M75.2464 48.2647 L75.3179 48.3004 "/>
<path d="M75.3179 48.3004 L75.4607 48.3004 "/>
<path d="M75.4607 48.3004 L75.5321 48.2647 "/>
<path d="M75.5321 48.2647 L75.5679 48.2290 "/>
<path d="M75.5679 48.2290 L75.6036 48.1576 "/>
<path d="M75.6036 48.1576 L75.6036 47.9433 "/>
<path d="M75.6036 47.9433 L75.5679 47.8718 "/>
<path d="M75.5679 47.8718 L75.5321 47.8361 "/>
<path d="M75.5321 47.8361 L75.4607 47.8004 "/>
<path d="M75.4607 47.8004 L75.3179 47.8004 "/>
<path d="M75.3179 47.8004 L75.2464 47.8361 "/>
<path d="M74.5679 48.3004 L74.5679 47.9076 "/>
<path d="M74.5679 47.9076 L74.6036 47.8361 "/>
<path d="M74.6036 47.8361 L74.6750 47.8004 "/>
<path d="M74.6750 47.8004 L74.8179 47.8004 "/>
<path d="M74.8179 47.8004 L74.8893 47.8361 "/>
<path d="M74.5679 48.2647 L74.6393 48.3004 "/>
<path d="M74.6393 48.3004 L74.8179 48.3004 "/>
<path d="M74.8179 48.3004 L74.8893 48.2647 "/>
<path d="M74.8893 48.2647 L74.9250 48.1933 "/>
<path d="M74.9250 48.1933 L74.9250 48.1218 "/>
<path d="M74.9250 48.1218 L74.8893 48.0504 "/>
<path d="M74.8893 48.0504 L74.8179 48.0147 "/>
<path d="M74.8179 48.0147 L74.6393 48.0147 "/>
<path d="M74.6393 48.0147 L74.5679 47.9790 "/>
<path d="M74.1036 48.3004 L74.1750 48.2647 "/>
<path d="M74.1750 48.2647 L74.2107 48.1933 "/>
<path d="M74.2107 48.1933 L74.2107 47.5504 "/>
<path d="M73.8179 48.3004 L73.8179 47.5504 "/>
<path d="M73.8179 47.8361 L73.7464 47.8004 "/>
<path d="M73.7464 47.8004 L73.6036 47.8004 "/>
<path d="M73.6036 47.8004 L73.5321 47.8361 "/>
<path d="M73.5321 47.8361 L73.4964 47.8718 "/>
<path d="M73.4964 47.8718 L73.4607 47.9433 "/>
<path d="M73.4607 47.9433 L73.4607 48.1576 "/>
<path d="M73.4607 48.1576 L73.4964 48.2290 "/>
<path d="M73.4964 48.2290 L73.5321 48.2647 "/>
<path d="M73.5321 48.2647 L73.6036 48.3004 "/>
<path d="M73.6036 48.3004 L73.7464 48.3004 "/>
<path d="M73.7464 48.3004 L73.8179 48.2647 "/>
<path d="M73.0321 48.3004 L73.1036 48.2647 "/>
<path d="M73.1036 48.2647 L73.1393 48.2290 "/>
<path d="M73.1393 48.2290 L73.1750 48.1576 "/>
<path d="M73.1750 48.1576 L73.1750 47.9433 "/>
<path d="M73.1750 47.9433 L73.1393 47.8718 "/>
<path d="M73.1393 47.8718 L73.1036 47.8361 "/>
<path d="M73.1036 47.8361 L73.0321 47.8004 "/>
<path d="M73.0321 47.8004 L72.9250 47.8004 "/>
<path d="M72.9250 47.8004 L72.8536 47.8361 "/>
<path d="M72.8536 47.8361 L72.8179 47.8718 "/>
<path d="M72.8179 47.8718 L72.7821 47.9433 "/>
<path d="M72.7821 47.9433 L72.7821 48.1576 "/>
<path d="M72.7821 48.1576 L72.8179 48.2290 "/>
<path d="M72.8179 48.2290 L72.8536 48.2647 "/>
<path d="M72.8536 48.2647 L72.9250 48.3004 "/>
<path d="M72.9250 48.3004 L73.0321 48.3004 "/>
<path d="M72.1393 48.3004 L72.1393 47.9076 "/>
<path d="M72.1393 47.9076 L72.1750 47.8361 "/>
<path d="M72.1750 47.8361 L72.2464 47.8004 "/>
<path d="M72.2464 47.8004 L72.3893 47.8004 "/>
<path d="M72.3893 47.8004 L72.4607 47.8361 "/>
<path d="M72.1393 48.2647 L72.2107 48.3004 "/>
<path d="M72.2107 48.3004 L72.3893 48.3004 "/>
<path d="M72.3893 48.3004 L72.4607 48.2647 "/>
<path d="M72.4607 48.2647 L72.4964 48.1933 "/>
<path d="M72.4964 48.1933 L72.4964 48.1218 "/>
<path d="M72.4964 48.1218 L72.4607 48.0504 "/>
<path d="M72.4607 48.0504 L72.3893 48.0147 "/>
<path d="M72.3893 48.0147 L72.2107 48.0147 "/>
<path d="M72.2107 48.0147 L72.1393 47.9790 "/>
<path d="M71.7821 48.3004 L71.7821 47.8004 "/>
<path d="M71.7821 47.9433 L71.7464 47.8718 "/>
<path d="M71.7464 47.8718 L71.7107 47.8361 "/>
<path d="M71.7107 47.8361 L71.6393 47.8004 "/>
<path d="M71.6393 47.8004 L71.5679 47.8004 "/>
<path d="M70.9964 48.3004 L70.9964 47.5504 "/>
<path d="M70.9964 48.2647 L71.0679 48.3004 "/>
<path d="M71.0679 48.3004 L71.2107 48.3004 "/>
<path d="M71.2107 48.3004 L71.2821 48.2647 "/>
<path d="M71.2821 48.2647 L71.3179 48.2290 "/>
<path d="M71.3179 48.2290 L71.3536 48.1576 "/>
<path d="M71.3536 48.1576 L71.3536 47.9433 "/>
<path d="M71.3536 47.9433 L71.3179 47.8718 "/>
<path d="M71.3179 47.8718 L71.2821 47.8361 "/>
<path d="M71.2821 47.8361 L71.2107 47.8004 "/>
<path d="M71.2107 47.8004 L71.0679 47.8004 "/>
<path d="M71.0679 47.8004 L70.9964 47.8361 "/>
</g><g transform="rotate(-90.000000 92.8000 54.0000)">
<text x="92.8000" y="54.5000" transform="scale(-1 1) translate(-185.600000 0)" textLength="1.8893" font-size="1.3333" lengthAdjust="spacingAndGlyphs" text-anchor="middle" opacity="0">J1</text>
</g>
<g class="stroked-text"><desc>J1</desc>
<path d="M92.2548 53.6667 L92.9691 53.6667 "/>
<path d="M92.9691 53.6667 L93.1120 53.6190 "/>
<path d="M93.1120 53.6190 L93.2072 53.5238 "/>
<path d="M93.2072 53.5238 L93.2548 53.3810 "/>
<path d="M93.2548 53.3810 L93.2548 53.2857 "/>
<path d="M93.2548 54.6667 L93.2548 54.0952 "/>
<path d="M93.2548 54.3810 L92.2548 54.3810 "/>
<path d="M92.2548 54.3810 L92.3977 54.2857 "/>
<path d="M92.3977 54.2857 L92.4929 54.1905 "/>
<path d="M92.4929 54.1905 L92.5405 54.0952 "/>
</g></g>
<g style="fill-opacity: 0.0;stroke-width: 0.1200;stroke-opacity: 1;stroke-linecap: round;stroke-linejoin: round">
<path d="M88.9400 62.0600 L88.9400 57.9400 "/>
<path d="M89.2400 62.0600 L88.9400 62.0600 "/>
<path d="M91.2400 62.0600 L90.7600 62.0600 "/>
<path d="M93.0600 62.0600 L92.7600 62.0600 "/>
<path d="M93.0600 62.0600 L93.0600 57.9400 "/>
<path d="M89.2400 57.9400 L88.9400 57.9400 "/>
<path d="M91.2400 57.9400 L90.7600 57.9400 "/>
<path d="M92.7600 57.9400 L92.7600 55.5600 "/>
<path d="M93.0600 57.9400 L92.7600 57.9400 "/>
</g> 
</g><g id="substrate-outline" style="fill:#000000; stroke:#000000; stroke-width: 0.15"><g style="fill-opacity: 0.0;stroke-opacity: 1;stroke-linecap: round;stroke-linejoin: round">
<path d="M66.0000 73.0000 A1.0000 1.0000 0.0 0 0 67.0000 74.0000"/>
<circle cx="80.0000" cy="60.0000" r="6.1000"/> 
<path d="M94.0000 47.0000 L94.0000 73.0000 "/>
<path d="M66.0000 73.0000 L66.0000 47.0000 "/>
<path d="M93.0000 74.0000 A1.0000 1.0000 0.0 0 0 94.0000 73.0000"/>
<path d="M67.0000 46.0000 L93.0000 46.0000 "/>
<path d="M93.0000 74.0000 L67.0000 74.0000 "/>
<path d="M67.0000 46.0000 A1.0000 1.0000 0.0 0 0 66.0000 47.0000"/>
<path d="M94.0000 47.0000 A1.0000 1.0000 0.0 0 0 93.0000 46.0000"/>
</g> 
<path d="M -0.2 0.0 A 0.2 0.2 0 1 1 0.2 0.0 L 0.2 -0.0 A 0.2 0.2 0 1 1 -0.2 -0.0 Z" transform="translate(89.5 61.1) rotate(-0.0)"/><path d="M -0.2 0.0 A 0.2 0.2 0 1 1 0.2 0.0 L 0.2 -0.0 A 0.2 0.2 0 1 1 -0.2 -0.0 Z" transform="translate(88.1 63.1) rotate(-0.0)"/><path d="M -0.2 0.0 A 0.2 0.2 0 1 1 0.2 0.0 L 0.2 -0.0 A 0.2 0.2 0 1 1 -0.2 -0.0 Z" transform="translate(89.726279 65.15359) rotate(-0.0)"/><path d="M -0.2 0.0 A 0.2 0.2 0 1 1 0.2 0.0 L 0.2 -0.0 A 0.2 0.2 0 1 1 -0.2 -0.0 Z" transform="translate(69.0 60.4) rotate(-0.0)"/><path d="M -0.2 0.0 A 0.2 0.2 0 1 1 0.2 0.0 L 0.2 -0.0 A 0.2 0.2 0 1 1 -0.2 -0.0 Z" transform="translate(80.4 71.0) rotate(-0.0)"/><path d="M -0.2 0.0 A 0.2 0.2 0 1 1 0.2 0.0 L 0.2 -0.0 A 0.2 0.2 0 1 1 -0.2 -0.0 Z" transform="translate(85.15359 50.273721) rotate(-0.0)"/><path d="M -0.2 0.0 A 0.2 0.2 0 1 1 0.2 0.0 L 0.2 -0.0 A 0.2 0.2 0 1 1 -0.2 -0.0 Z" transform="translate(74.15359 50.673721) rotate(-0.0)"/><path d="M -0.2 0.0 A 0.2 0.2 0 1 1 0.2 0.0 L 0.2 -0.0 A 0.2 0.2 0 1 1 -0.2 -0.0 Z" transform="translate(79.6 49.0) rotate(-0.0)"/><path d="M -0.2 0.0 A 0.2 0.2 0 1 1 0.2 0.0 L 0.2 -0.0 A 0.2 0.2 0 1 1 -0.2 -0.0 Z" transform="translate(70.273721 54.84641) rotate(-0.0)"/><path d="M -0.2 0.0 A 0.2 0.2 0 1 1 0.2 0.0 L 0.2 -0.0 A 0.2 0.2 0 1 1 -0.2 -0.0 Z" transform="translate(89.326279 54.15359) rotate(-0.0)"/><path d="M -0.2 0.0 A 0.2 0.2 0 1 1 0.2 0.0 L 0.2 -0.0 A 0.2 0.2 0 1 1 -0.2 -0.0 Z" transform="translate(85.84641 69.326279) rotate(-0.0)"/><path d="M -0.2 0.0 A 0.2 0.2 0 1 1 0.2 0.0 L 0.2 -0.0 A 0.2 0.2 0 1 1 -0.2 -0.0 Z" transform="translate(74.84641 69.726279) rotate(-0.0)"/><path d="M -0.2 0.0 A 0.2 0.2 0 1 1 0.2 0.0 L 0.2 -0.0 A 0.2 0.2 0 1 1 -0.2 -0.0 Z" transform="translate(91.0 59.6) rotate(-0.0)"/><path d="M -0.2 0.0 A 0.2 0.2 0 1 1 0.2 0.0 L 0.2 -0.0 A 0.2 0.2 0 1 1 -0.2 -0.0 Z" transform="translate(70.673721 65.84641) rotate(-0.0)"/><path d="M -0.2 0.0 A 0.2 0.2 0 1 1 0.2 0.0 L 0.2 -0.0 A 0.2 0.2 0 1 1 -0.2 -0.0 Z" transform="translate(92.0 65.0) rotate(-0.0)"/><path d="M -0.2 0.0 A 0.2 0.2 0 1 1 0.2 0.0 L 0.2 -0.0 A 0.2 0.2 0 1 1 -0.2 -0.0 Z" transform="translate(93.0 61.2) rotate(-0.0)"/><path d="M -0.2 0.0 A 0.2 0.2 0 1 1 0.2 0.0 L 0.2 -0.0 A 0.2 0.2 0 1 1 -0.2 -0.0 Z" transform="translate(93.0 62.6) rotate(-0.0)"/><path d="M -0.2 0.0 A 0.2 0.2 0 1 1 0.2 0.0 L 0.2 -0.0 A 0.2 0.2 0 1 1 -0.2 -0.0 Z" transform="translate(93.0 65.0) rotate(-0.0)"/><path d="M -0.2 0.0 A 0.2 0.2 0 1 1 0.2 0.0 L 0.2 -0.0 A 0.2 0.2 0 1 1 -0.2 -0.0 Z" transform="translate(93.0 63.8) rotate(-0.0)"/><path d="M -0.2 0.0 A 0.2 0.2 0 1 1 0.2 0.0 L 0.2 -0.0 A 0.2 0.2 0 1 1 -0.2 -0.0 Z" transform="translate(92.0 61.2) rotate(-0.0)"/></g></g><g id="substrate-paste" style="fill:#8a8a8a; stroke:#8a8a8a;"><g style="fill-opacity: 0.0;stroke-width: 0.0000;stroke-opacity: 1;stroke-linecap: round;stroke-linejoin: round">
<g style="fill-opacity: 1.0000;stroke-width: 0.0000;stroke-opacity: 1;stroke-linecap: round;stroke-linejoin: round">
<path style="fill-opacity: 1.0000;stroke-width: 0.0000;stroke-opacity: 1;stroke-linecap: round;stroke-linejoin: round;fill-rule: evenodd" d="M 92.5000,58.2500 91.5000,58.2500 91.5000,55.5000 92.5000,55.5000 Z"/> 
<path style="fill-opacity: 1.0000;stroke-width: 0.0000;stroke-opacity: 1;stroke-linecap: round;stroke-linejoin: round;fill-rule: evenodd" d="M 92.5000,64.5000 91.5000,64.5000 91.5000,61.7500 92.5000,61.7500 Z"/> 
<path style="fill-opacity: 1.0000;stroke-width: 0.0000;stroke-opacity: 1;stroke-linecap: round;stroke-linejoin: round;fill-rule: evenodd" d="M 90.5000,58.2500 89.5000,58.2500 89.5000,55.5000 90.5000,55.5000 Z"/> 
<path style="fill-opacity: 1.0000;stroke-width: 0.0000;stroke-opacity: 1;stroke-linecap: round;stroke-linejoin: round;fill-rule: evenodd" d="M 90.5000,64.5000 89.5000,64.5000 89.5000,61.7500 90.5000,61.7500 Z"/> 
</g>
</g> 
</g></g></svg>