<?xml version="1.0" standalone="no"?>
 <!DOCTYPE svg PUBLIC "-//W3C//DTD SVG 1.1//EN" 
 "http://www.w3.org/Graphics/SVG/1.1/DTD/svg11.dtd"> 
<svg
  xmlns:svg="http://www.w3.org/2000/svg"
  xmlns="http://www.w3.org/2000/svg"
  xmlns:xlink="http://www.w3.org/1999/xlink"
  version="1.1"
  width="2.6100000000000003cm" height="2.6100000000000003cm" viewBox="66.95 46.95 26.1 26.1">
<title>SVG Image created as pedalboard-led-ring-B_Cu.svg date 2023/10/17 15:19:48 </title>
  <desc>Image generated by PCBNEW </desc>
<g style="fill:#000000; fill-opacity:1.000000;stroke:#000000; stroke-opacity:1.000000;
stroke-linecap:round; stroke-linejoin:round;"
 transform="translate(0 0) scale(1 1)">
</g>
<g style="fill:#000000; fill-opacity:0.0; 
stroke:#000000; stroke-width:0.000000; stroke-opacity:1; 
stroke-linecap:round; stroke-linejoin:round;">
<g >
</g>
<g >
</g>
<g >
</g>
<g >
</g>
<g >
</g>
<g >
</g>
<g >
</g>
<g >
</g>
<g >
</g>
<g >
</g>
<g >
</g>
<g >
</g>
<g >
</g>
<g >
</g>
<g >
</g>
<g >
</g>
<g >
</g>
<g >
</g>
<g >
</g>
<g >
</g>
<g >
</g>
<g >
</g>
<g >
</g>
<g >
</g>
<g >
</g>
<g >
</g>
<g >
</g>
<g >
</g>
<g >
</g>
<g >
</g>
<g >
</g>
<g >
</g>
<g style="fill:#000000; fill-opacity:0.0; 
stroke:#000000; stroke-width:0.000000; stroke-opacity:1; 
stroke-linecap:round; stroke-linejoin:round;">
</g>
<g style="fill:#000000; fill-opacity:0.0; 
stroke:#000000; stroke-width:0.000000; stroke-opacity:1; 
stroke-linecap:round; stroke-linejoin:round;">
</g>
<g style="fill:#000000; fill-opacity:1.000000; 
stroke:#000000; stroke-width:0.000000; stroke-opacity:1; 
stroke-linecap:round; stroke-linejoin:round;">
<path style="fill:#000000; fill-opacity:1.000000; 
stroke:#000000; stroke-width:0.000000; stroke-opacity:1; 
stroke-linecap:round; stroke-linejoin:round;fill-rule:evenodd;"
d="M 91.500000,58.250000
90.500000,58.250000
90.500000,55.500000
91.500000,55.500000
Z" /> 
<path style="fill:#000000; fill-opacity:1.000000; 
stroke:#000000; stroke-width:0.000000; stroke-opacity:1; 
stroke-linecap:round; stroke-linejoin:round;fill-rule:evenodd;"
d="M 91.500000,64.500000
90.500000,64.500000
90.500000,61.750000
91.500000,61.750000
Z" /> 
<path style="fill:#000000; fill-opacity:1.000000; 
stroke:#000000; stroke-width:0.000000; stroke-opacity:1; 
stroke-linecap:round; stroke-linejoin:round;fill-rule:evenodd;"
d="M 89.500000,58.250000
88.500000,58.250000
88.500000,55.500000
89.500000,55.500000
Z" /> 
<path style="fill:#000000; fill-opacity:1.000000; 
stroke:#000000; stroke-width:0.000000; stroke-opacity:1; 
stroke-linecap:round; stroke-linejoin:round;fill-rule:evenodd;"
d="M 89.500000,64.500000
88.500000,64.500000
88.500000,61.750000
89.500000,61.750000
Z" /> 
</g>
<g >
</g>
<g style="fill:#000000; fill-opacity:1.000000; 
stroke:#000000; stroke-width:0.000000; stroke-opacity:1; 
stroke-linecap:round; stroke-linejoin:round;">
<path style="fill:#000000; fill-opacity:1.000000; 
stroke:#000000; stroke-width:0.000000; stroke-opacity:1; 
stroke-linecap:round; stroke-linejoin:round;fill-rule:evenodd;"
d="M 88.750000,71.000000
88.750000,70.000000
91.500000,70.000000
91.500000,71.000000
Z" /> 
<path style="fill:#000000; fill-opacity:1.000000; 
stroke:#000000; stroke-width:0.000000; stroke-opacity:1; 
stroke-linecap:round; stroke-linejoin:round;fill-rule:evenodd;"
d="M 82.500000,71.000000
82.500000,70.000000
85.250000,70.000000
85.250000,71.000000
Z" /> 
<path style="fill:#000000; fill-opacity:1.000000; 
stroke:#000000; stroke-width:0.000000; stroke-opacity:1; 
stroke-linecap:round; stroke-linejoin:round;fill-rule:evenodd;"
d="M 88.750000,69.000000
88.750000,68.000000
91.500000,68.000000
91.500000,69.000000
Z" /> 
<path style="fill:#000000; fill-opacity:1.000000; 
stroke:#000000; stroke-width:0.000000; stroke-opacity:1; 
stroke-linecap:round; stroke-linejoin:round;fill-rule:evenodd;"
d="M 82.500000,69.000000
82.500000,68.000000
85.250000,68.000000
85.250000,69.000000
Z" /> 
</g>
<g >
</g>
<g style="fill:#000000; fill-opacity:1.000000; 
stroke:#000000; stroke-width:0.000000; stroke-opacity:1; 
stroke-linecap:round; stroke-linejoin:round;">
<circle cx="86.800000" cy="63.600000" r="0.400000" /> 
</g>
<g style="fill:#000000; fill-opacity:1.000000; 
stroke:#000000; stroke-width:0.021200; stroke-opacity:1; 
stroke-linecap:round; stroke-linejoin:round;">
</g>
<g style="fill:#000000; fill-opacity:1.000000; 
stroke:#000000; stroke-width:0.000000; stroke-opacity:1; 
stroke-linecap:round; stroke-linejoin:round;">
<circle cx="74.000000" cy="52.000000" r="0.400000" /> 
</g>
<g style="fill:#000000; fill-opacity:1.000000; 
stroke:#000000; stroke-width:0.021200; stroke-opacity:1; 
stroke-linecap:round; stroke-linejoin:round;">
</g>
<g style="fill:#000000; fill-opacity:1.000000; 
stroke:#000000; stroke-width:0.000000; stroke-opacity:1; 
stroke-linecap:round; stroke-linejoin:round;">
<circle cx="70.071797" cy="61.196152" r="0.400000" /> 
</g>
<g style="fill:#000000; fill-opacity:1.000000; 
stroke:#000000; stroke-width:0.021200; stroke-opacity:1; 
stroke-linecap:round; stroke-linejoin:round;">
</g>
<g style="fill:#000000; fill-opacity:1.000000; 
stroke:#000000; stroke-width:0.000000; stroke-opacity:1; 
stroke-linecap:round; stroke-linejoin:round;">
<circle cx="76.071797" cy="69.196152" r="0.400000" /> 
</g>
<g style="fill:#000000; fill-opacity:1.000000; 
stroke:#000000; stroke-width:0.021200; stroke-opacity:1; 
stroke-linecap:round; stroke-linejoin:round;">
</g>
<g style="fill:#000000; fill-opacity:1.000000; 
stroke:#000000; stroke-width:0.000000; stroke-opacity:1; 
stroke-linecap:round; stroke-linejoin:round;">
<circle cx="90.079502" cy="57.365000" r="0.400000" /> 
</g>
<g style="fill:#000000; fill-opacity:1.000000; 
stroke:#000000; stroke-width:0.021200; stroke-opacity:1; 
stroke-linecap:round; stroke-linejoin:round;">
</g>
<g style="fill:#000000; fill-opacity:1.000000; 
stroke:#000000; stroke-width:0.000000; stroke-opacity:1; 
stroke-linecap:round; stroke-linejoin:round;">
<circle cx="81.196152" cy="69.928203" r="0.400000" /> 
</g>
<g style="fill:#000000; fill-opacity:1.000000; 
stroke:#000000; stroke-width:0.021200; stroke-opacity:1; 
stroke-linecap:round; stroke-linejoin:round;">
</g>
<g style="fill:#000000; fill-opacity:1.000000; 
stroke:#000000; stroke-width:0.000000; stroke-opacity:1; 
stroke-linecap:round; stroke-linejoin:round;">
<circle cx="83.928203" cy="50.803848" r="0.400000" /> 
</g>
<g style="fill:#000000; fill-opacity:1.000000; 
stroke:#000000; stroke-width:0.021200; stroke-opacity:1; 
stroke-linecap:round; stroke-linejoin:round;">
</g>
<g style="fill:#000000; fill-opacity:1.000000; 
stroke:#000000; stroke-width:0.000000; stroke-opacity:1; 
stroke-linecap:round; stroke-linejoin:round;">
<circle cx="72.000000" cy="66.000000" r="0.400000" /> 
</g>
<g style="fill:#000000; fill-opacity:1.000000; 
stroke:#000000; stroke-width:0.021200; stroke-opacity:1; 
stroke-linecap:round; stroke-linejoin:round;">
</g>
<g style="fill:#000000; fill-opacity:1.000000; 
stroke:#000000; stroke-width:0.000000; stroke-opacity:1; 
stroke-linecap:round; stroke-linejoin:round;">
<circle cx="86.000000" cy="67.940000" r="0.400000" /> 
</g>
<g style="fill:#000000; fill-opacity:1.000000; 
stroke:#000000; stroke-width:0.021200; stroke-opacity:1; 
stroke-linecap:round; stroke-linejoin:round;">
</g>
<g style="fill:#000000; fill-opacity:1.000000; 
stroke:#000000; stroke-width:0.000000; stroke-opacity:1; 
stroke-linecap:round; stroke-linejoin:round;">
<circle cx="70.803848" cy="56.071797" r="0.400000" /> 
</g>
<g style="fill:#000000; fill-opacity:1.000000; 
stroke:#000000; stroke-width:0.021200; stroke-opacity:1; 
stroke-linecap:round; stroke-linejoin:round;">
</g>
<g style="fill:#000000; fill-opacity:1.000000; 
stroke:#000000; stroke-width:0.000000; stroke-opacity:1; 
stroke-linecap:round; stroke-linejoin:round;">
<circle cx="88.000000" cy="54.000000" r="0.400000" /> 
</g>
<g style="fill:#000000; fill-opacity:1.000000; 
stroke:#000000; stroke-width:0.021200; stroke-opacity:1; 
stroke-linecap:round; stroke-linejoin:round;">
</g>
<g style="fill:#000000; fill-opacity:1.000000; 
stroke:#000000; stroke-width:0.000000; stroke-opacity:1; 
stroke-linecap:round; stroke-linejoin:round;">
<circle cx="88.260000" cy="66.020000" r="0.400000" /> 
</g>
<g style="fill:#000000; fill-opacity:1.000000; 
stroke:#000000; stroke-width:0.021200; stroke-opacity:1; 
stroke-linecap:round; stroke-linejoin:round;">
</g>
<g style="fill:#000000; fill-opacity:1.000000; 
stroke:#000000; stroke-width:0.000000; stroke-opacity:1; 
stroke-linecap:round; stroke-linejoin:round;">
<circle cx="78.803848" cy="50.071797" r="0.400000" /> 
</g>
<g style="fill:#000000; fill-opacity:1.000000; 
stroke:#000000; stroke-width:0.021200; stroke-opacity:1; 
stroke-linecap:round; stroke-linejoin:round;">
</g>
<g style="fill:#000000; fill-opacity:1.000000; 
stroke:#000000; stroke-width:0.000000; stroke-opacity:1; 
stroke-linecap:round; stroke-linejoin:round;">
<circle cx="90.400000" cy="61.400000" r="0.400000" /> 
</g>
<g style="fill:#000000; fill-opacity:1.000000; 
stroke:#000000; stroke-width:0.021200; stroke-opacity:1; 
stroke-linecap:round; stroke-linejoin:round;">
</g>
<g style="fill:#000000; fill-opacity:1.000000; 
stroke:#000000; stroke-width:0.000000; stroke-opacity:1; 
stroke-linecap:round; stroke-linejoin:round;">
<circle cx="82.900000" cy="71.400000" r="0.400000" /> 
</g>
<g style="fill:#000000; fill-opacity:1.000000; 
stroke:#000000; stroke-width:0.021200; stroke-opacity:1; 
stroke-linecap:round; stroke-linejoin:round;">
</g>
<g style="fill:#000000; fill-opacity:1.000000; 
stroke:#000000; stroke-width:0.000000; stroke-opacity:1; 
stroke-linecap:round; stroke-linejoin:round;">
<circle cx="91.150000" cy="61.400000" r="0.400000" /> 
</g>
<g style="fill:#000000; fill-opacity:1.000000; 
stroke:#000000; stroke-width:0.021200; stroke-opacity:1; 
stroke-linecap:round; stroke-linejoin:round;">
</g>
<g style="fill:#000000; fill-opacity:1.000000; 
stroke:#000000; stroke-width:0.000000; stroke-opacity:1; 
stroke-linecap:round; stroke-linejoin:round;">
<circle cx="91.150000" cy="64.850000" r="0.400000" /> 
</g>
<g style="fill:#000000; fill-opacity:1.000000; 
stroke:#000000; stroke-width:0.021200; stroke-opacity:1; 
stroke-linecap:round; stroke-linejoin:round;">
</g>
<g style="fill:#000000; fill-opacity:1.000000; 
stroke:#000000; stroke-width:0.000000; stroke-opacity:1; 
stroke-linecap:round; stroke-linejoin:round;">
<circle cx="90.400000" cy="64.850000" r="0.400000" /> 
</g>
<g style="fill:#000000; fill-opacity:1.000000; 
stroke:#000000; stroke-width:0.021200; stroke-opacity:1; 
stroke-linecap:round; stroke-linejoin:round;">
</g>
<g style="fill:#000000; fill-opacity:1.000000; 
stroke:#000000; stroke-width:0.000000; stroke-opacity:1; 
stroke-linecap:round; stroke-linejoin:round;">
<circle cx="84.900000" cy="71.400000" r="0.400000" /> 
</g>
<g style="fill:#000000; fill-opacity:1.000000; 
stroke:#000000; stroke-width:0.021200; stroke-opacity:1; 
stroke-linecap:round; stroke-linejoin:round;">
</g>
<g style="fill:#000000; fill-opacity:1.000000; 
stroke:#000000; stroke-width:0.000000; stroke-opacity:1; 
stroke-linecap:round; stroke-linejoin:round;">
<circle cx="85.700000" cy="70.500000" r="0.400000" /> 
</g>
<g style="fill:#000000; fill-opacity:1.000000; 
stroke:#000000; stroke-width:0.021200; stroke-opacity:1; 
stroke-linecap:round; stroke-linejoin:round;">
</g>
<g style="fill:#000000; fill-opacity:1.000000; 
stroke:#000000; stroke-width:0.000000; stroke-opacity:1; 
stroke-linecap:round; stroke-linejoin:round;">
<circle cx="83.900000" cy="71.400000" r="0.400000" /> 
</g>
<g style="fill:#000000; fill-opacity:1.000000; 
stroke:#000000; stroke-width:0.021200; stroke-opacity:1; 
stroke-linecap:round; stroke-linejoin:round;">
</g>
<g style="fill:#000000; fill-opacity:1.000000; 
stroke:#000000; stroke-width:0.000000; stroke-opacity:1; 
stroke-linecap:round; stroke-linejoin:round;">
<circle cx="87.910000" cy="61.150000" r="0.400000" /> 
</g>
<g style="fill:#000000; fill-opacity:1.000000; 
stroke:#000000; stroke-width:0.021200; stroke-opacity:1; 
stroke-linecap:round; stroke-linejoin:round;">
</g>
<g >
</g>
<g style="fill:#000000; fill-opacity:1.000000; 
stroke:#000000; stroke-width:0.021200; stroke-opacity:1; 
stroke-linecap:round; stroke-linejoin:round;">
</g>
<g style="fill:#000000; fill-opacity:1.000000; 
stroke:#000000; stroke-width:0.250000; stroke-opacity:1; 
stroke-linecap:round; stroke-linejoin:round;">
</g>
<g style="fill:#000000; fill-opacity:0.0; 
stroke:#000000; stroke-width:0.250000; stroke-opacity:1; 
stroke-linecap:round; stroke-linejoin:round;">
<path d="M88.625000 63.500000
L86.900000 63.500000
" />
<path d="M86.800000 64.680000
L83.875000 67.605000
" />
<path d="M86.900000 63.500000
L86.800000 63.600000
" />
<path d="M83.875000 67.605000
L83.875000 68.500000
" />
<path d="M86.800000 63.600000
L86.800000 64.680000
" />
<path d="M91.000000 64.250000
L90.400000 64.850000
" />
<path d="M91.000000 64.700000
L91.150000 64.850000
" />
<path d="M91.100000 64.900000
L90.400000 64.900000
" />
<path d="M83.800000 70.500000
L82.900000 71.400000
" />
<path d="M91.000000 63.125000
L91.000000 61.550000
" />
<path d="M83.875000 70.500000
L85.700000 70.500000
" />
<path d="M83.875000 70.500000
L83.875000 71.375000
" />
<path d="M91.000000 62.000000
L90.400000 61.400000
" />
<path d="M91.000000 61.550000
L91.150000 61.400000
" />
<path d="M84.000000 70.500000
L84.900000 71.400000
" />
<path d="M83.875000 71.375000
L83.900000 71.400000
" />
<path d="M91.000000 63.125000
L91.000000 64.700000
" />
<path d="M91.875000 61.127979
L91.875000 67.250000
" />
<path d="M89.695000 61.200000
L89.695000 61.107979
" />
<path d="M90.107979 60.695000
L91.442021 60.695000
" />
<path d="M91.875000 67.250000
L91.125000 68.000000
" />
<path d="M89.695000 61.107979
L90.107979 60.695000
" />
<path d="M91.442021 60.695000
L91.875000 61.127979
" />
<path d="M87.910000 61.200000
L89.695000 61.200000
" />
<path d="M89.000000 61.200000
L89.000000 56.875000
" />
</g>
<g >
</g>
<g style="fill:#000000; fill-opacity:0.0; 
stroke:#000000; stroke-width:0.250000; stroke-opacity:1; 
stroke-linecap:round; stroke-linejoin:round;">
<g >
</g>
<g style="fill:#000000; fill-opacity:1.000000; 
stroke:#000000; stroke-width:0.000000; stroke-opacity:1; 
stroke-linecap:round; stroke-linejoin:round;">
<path style="fill:#000000; fill-opacity:1.000000; 
stroke:#000000; stroke-width:0.000000; stroke-opacity:1; 
stroke-linecap:round; stroke-linejoin:round;fill-rule:evenodd;"
d="M 91.002140,48.000687
91.045519,48.004482
91.173804,48.017118
91.189710,48.020012
91.258339,48.038400
91.353264,48.067196
91.366359,48.072207
91.435690,48.104536
91.438085,48.105733
91.522989,48.151115
91.528052,48.154225
91.595221,48.201258
91.598233,48.203543
91.632865,48.231964
91.671280,48.263491
91.674877,48.266751
91.733247,48.325121
91.736512,48.328723
91.796455,48.401765
91.798740,48.404777
91.845773,48.471946
91.848883,48.477009
91.894255,48.561893
91.895462,48.564308
91.927791,48.633639
91.932804,48.646739
91.949347,48.701271
91.961601,48.741669
91.967560,48.763909
91.979985,48.810284
91.982881,48.826201
91.995523,48.954554
91.999311,48.997844
91.999500,49.002161
91.999500,60.553145
91.980593,60.611336
91.931093,60.647300
91.869907,60.647300
91.830496,60.623149
91.683762,60.476414
91.680843,60.473229
91.654477,60.441806
91.631839,60.428736
91.618939,60.421288
91.615304,60.418972
91.581705,60.395446
91.581700,60.395443
91.580245,60.395054
91.556369,60.385164
91.555066,60.384411
91.514673,60.377289
91.510457,60.376354
91.484174,60.369312
91.470828,60.365736
91.470827,60.365736
91.466402,60.366123
91.429947,60.369312
91.425647,60.369500
90.124354,60.369500
90.120053,60.369312
90.079173,60.365736
90.039543,60.376354
90.035327,60.377289
89.994935,60.384411
89.994927,60.384414
89.993619,60.385170
89.969765,60.395051
89.968303,60.395442
89.968295,60.395446
89.934695,60.418972
89.931059,60.421288
89.922854,60.426025
89.895524,60.441805
89.869160,60.473224
89.866242,60.476408
89.497148,60.845503
89.442631,60.873281
89.427144,60.874500
89.424500,60.874500
89.366309,60.855593
89.330345,60.806093
89.325500,60.775500
89.325500,58.549500
89.344407,58.491309
89.393907,58.455345
89.424500,58.450500
89.519747,58.450500
89.519748,58.450500
89.578231,58.438867
89.644552,58.394552
89.688867,58.328231
89.700500,58.269748
89.700500,57.025000
90.200001,57.025000
90.200001,58.294791
90.202909,58.319874
90.248213,58.422477
90.327522,58.501786
90.430127,58.547090
90.455203,58.549999
90.849998,58.549999
90.850000,58.549998
91.150000,58.549998
91.150001,58.549999
91.544790,58.549999
91.544791,58.549998
91.569874,58.547090
91.672477,58.501786
91.751786,58.422477
91.797090,58.319872
91.799999,58.294797
91.800000,58.294794
91.800000,57.025001
91.799999,57.025000
91.150001,57.025000
91.150000,57.025001
91.150000,58.549998
90.850000,58.549998
90.850000,57.025001
90.849999,57.025000
90.200001,57.025000
89.700500,57.025000
89.700500,56.724999
90.200000,56.724999
90.200001,56.725000
90.849999,56.725000
90.850000,56.724999
90.850000,55.200000
91.150000,55.200000
91.150000,56.724999
91.150001,56.725000
91.799998,56.725000
91.799999,56.724998
91.799999,55.455209
91.799998,55.455208
91.797090,55.430125
91.751786,55.327522
91.672477,55.248213
91.569872,55.202909
91.544797,55.200000
91.150000,55.200000
90.850000,55.200000
90.455210,55.200000
90.455207,55.200001
90.430125,55.202909
90.327522,55.248213
90.248213,55.327522
90.202909,55.430127
90.200000,55.455202
90.200000,56.724999
89.700500,56.724999
89.700500,55.480252
89.688867,55.421769
89.644552,55.355448
89.644548,55.355445
89.578233,55.311134
89.578231,55.311133
89.578228,55.311132
89.578227,55.311132
89.519758,55.299501
89.519748,55.299500
88.480252,55.299500
88.480251,55.299500
88.480241,55.299501
88.421772,55.311132
88.421766,55.311134
88.355451,55.355445
88.355445,55.355451
88.311134,55.421766
88.311132,55.421772
88.299501,55.480241
88.299500,55.480253
88.299500,58.269746
88.299501,58.269758
88.311132,58.328227
88.311134,58.328233
88.355445,58.394548
88.355448,58.394552
88.421769,58.438867
88.466231,58.447711
88.480241,58.450498
88.480246,58.450498
88.480252,58.450500
88.575500,58.450500
88.633691,58.469407
88.669655,58.518907
88.674500,58.549500
88.674500,60.775500
88.655593,60.833691
88.606093,60.869655
88.575500,60.874500
88.504336,60.874500
88.446145,60.855593
88.425796,60.835769
88.338282,60.721718
88.338277,60.721714
88.338276,60.721713
88.212838,60.625462
88.066766,60.564957
88.066758,60.564955
87.910001,60.544318
87.909999,60.544318
87.753241,60.564955
87.753233,60.564957
87.607161,60.625462
87.607160,60.625462
87.481723,60.721713
87.481713,60.721723
87.385462,60.847160
87.385462,60.847161
87.324957,60.993233
87.324955,60.993241
87.304318,61.149999
87.304318,61.150000
87.324955,61.306758
87.324957,61.306766
87.385462,61.452838
87.385462,61.452839
87.465205,61.556762
87.481718,61.578282
87.607159,61.674536
87.607160,61.674536
87.607161,61.674537
87.688614,61.708276
87.753238,61.735044
87.870809,61.750522
87.909999,61.755682
87.910000,61.755682
87.910001,61.755682
87.941352,61.751554
88.066762,61.735044
88.162616,61.695339
88.223611,61.690539
88.275780,61.722508
88.299195,61.779036
88.299500,61.786804
88.299500,63.075500
88.280593,63.133691
88.231093,63.169655
88.200500,63.174500
87.265514,63.174500
87.207323,63.155593
87.205247,63.154042
87.102838,63.075462
86.956766,63.014957
86.956758,63.014955
86.800001,62.994318
86.799999,62.994318
86.643241,63.014955
86.643233,63.014957
86.497161,63.075462
86.497160,63.075462
86.371723,63.171713
86.371713,63.171723
86.275462,63.297160
86.275462,63.297161
86.214957,63.443233
86.214955,63.443241
86.194318,63.599999
86.194318,63.600000
86.214955,63.756758
86.214957,63.756766
86.275462,63.902838
86.275462,63.902839
86.275464,63.902841
86.371718,64.028282
86.398280,64.048664
86.435767,64.077428
86.470423,64.127852
86.474500,64.155970
86.474500,64.504165
86.455593,64.562356
86.445504,64.574169
83.656413,67.363259
83.653228,67.366176
83.621807,67.392542
83.621806,67.392544
83.601292,67.428075
83.598972,67.431716
83.575446,67.465316
83.575442,67.465324
83.575051,67.466786
83.565170,67.490640
83.564414,67.491948
83.564410,67.491960
83.557287,67.532349
83.556353,67.536564
83.545736,67.576187
83.545736,67.576193
83.549312,67.617072
83.549500,67.621373
83.549500,67.700500
83.530593,67.758691
83.481093,67.794655
83.450500,67.799500
82.480252,67.799500
82.480251,67.799500
82.480241,67.799501
82.421772,67.811132
82.421766,67.811134
82.355451,67.855445
82.355445,67.855451
82.311134,67.921766
82.311132,67.921772
82.299501,67.980241
82.299500,67.980253
82.299500,69.019746
82.299501,69.019758
82.311132,69.078227
82.311133,69.078231
82.355448,69.144552
82.421769,69.188867
82.466231,69.197711
82.480241,69.200498
82.480246,69.200498
82.480252,69.200500
82.480253,69.200500
85.269747,69.200500
85.269748,69.200500
85.328231,69.188867
85.394552,69.144552
85.438867,69.078231
85.450500,69.019748
85.450500,67.980252
85.438867,67.921769
85.394552,67.855448
85.348736,67.824834
85.328233,67.811134
85.328231,67.811133
85.328228,67.811132
85.328227,67.811132
85.269758,67.799501
85.269748,67.799500
85.269747,67.799500
84.379834,67.799500
84.321643,67.780593
84.285679,67.731093
84.285679,67.669907
84.309830,67.630496
87.018583,64.921742
87.021760,64.918829
87.053194,64.892455
87.073714,64.856911
87.076012,64.853303
87.099554,64.819684
87.099941,64.818236
87.109838,64.794345
87.110588,64.793045
87.117709,64.752656
87.118640,64.748452
87.129264,64.708807
87.125687,64.667922
87.125500,64.663623
87.125500,64.155970
87.144407,64.097779
87.164233,64.077428
87.228282,64.028282
87.324536,63.902841
87.331257,63.886613
87.370996,63.840088
87.422722,63.825500
88.200500,63.825500
88.258691,63.844407
88.294655,63.893907
88.299500,63.924500
88.299500,64.519746
88.299501,64.519758
88.311132,64.578227
88.311134,64.578233
88.355445,64.644548
88.355448,64.644552
88.421769,64.688867
88.466231,64.697711
88.480241,64.700498
88.480246,64.700498
88.480252,64.700500
88.480253,64.700500
89.519747,64.700500
89.519748,64.700500
89.578231,64.688867
89.644552,64.644552
89.644552,64.644551
89.652659,64.639135
89.653937,64.641048
89.696454,64.619379
89.756887,64.628943
89.800156,64.672203
89.810105,64.730080
89.794318,64.849999
89.794318,64.850000
89.814955,65.006758
89.814957,65.006766
89.875462,65.152838
89.875462,65.152839
89.875464,65.152841
89.971718,65.278282
90.097159,65.374536
90.097160,65.374536
90.097161,65.374537
90.167021,65.403474
90.243238,65.435044
90.360809,65.450522
90.399999,65.455682
90.400000,65.455682
90.400001,65.455682
90.431352,65.451554
90.556762,65.435044
90.702841,65.374536
90.714731,65.365411
90.772407,65.344987
90.831073,65.362363
90.835258,65.365404
90.847159,65.374536
90.847160,65.374536
90.847161,65.374537
90.917021,65.403474
90.993238,65.435044
91.110809,65.450522
91.149999,65.455682
91.150000,65.455682
91.150001,65.455682
91.181352,65.451554
91.306762,65.435044
91.412615,65.391197
91.473611,65.386397
91.525780,65.418366
91.549195,65.474894
91.549500,65.482662
91.549500,67.074165
91.530593,67.132356
91.520504,67.144169
90.894170,67.770504
90.839653,67.798281
90.824166,67.799500
88.730252,67.799500
88.730251,67.799500
88.730241,67.799501
88.671772,67.811132
88.671766,67.811134
88.605451,67.855445
88.605445,67.855451
88.561134,67.921766
88.561132,67.921772
88.549501,67.980241
88.549500,67.980253
88.549500,69.019746
88.549501,69.019758
88.561132,69.078227
88.561133,69.078231
88.605448,69.144552
88.671769,69.188867
88.716231,69.197711
88.730241,69.200498
88.730246,69.200498
88.730252,69.200500
88.730253,69.200500
91.519747,69.200500
91.519748,69.200500
91.578231,69.188867
91.644552,69.144552
91.688867,69.078231
91.700500,69.019748
91.700500,67.980252
91.694992,67.952559
91.702182,67.891798
91.722086,67.863240
91.830497,67.754830
91.885013,67.727053
91.945445,67.736625
91.988710,67.779889
91.999500,67.824834
91.999500,70.997839
91.999311,71.002160
91.997622,71.021454
91.978057,71.067534
91.987060,71.083017
91.988810,71.113603
91.982881,71.173797
91.979985,71.189713
91.964881,71.246088
91.961613,71.258290
91.961602,71.258330
91.932804,71.353259
91.927791,71.366359
91.895462,71.435690
91.894255,71.438105
91.848883,71.522989
91.845773,71.528052
91.798740,71.595221
91.796455,71.598233
91.736512,71.671275
91.733247,71.674877
91.674877,71.733247
91.671275,71.736512
91.598233,71.796455
91.595221,71.798740
91.528052,71.845773
91.522989,71.848883
91.438105,71.894255
91.435690,71.895462
91.366359,71.927791
91.353259,71.932804
91.277827,71.955687
91.258325,71.961602
91.251144,71.963526
91.189713,71.979985
91.173797,71.982881
91.045446,71.995523
91.002155,71.999311
90.997838,71.999500
85.396071,71.999500
85.337880,71.980593
85.301916,71.931093
85.301916,71.869907
85.326067,71.830496
85.328273,71.828288
85.328282,71.828282
85.424536,71.702841
85.485044,71.556762
85.505682,71.400000
85.485044,71.243238
85.478001,71.226236
85.473200,71.165243
85.505168,71.113073
85.561695,71.089656
85.582387,71.090198
85.699999,71.105682
85.700000,71.105682
85.700001,71.105682
85.752927,71.098714
85.856762,71.085044
85.953941,71.044791
88.450001,71.044791
88.452909,71.069874
88.498213,71.172477
88.577522,71.251786
88.680127,71.297090
88.705203,71.299999
89.974998,71.299999
89.974999,71.299998
90.275000,71.299998
90.275001,71.299999
91.544790,71.299999
91.544791,71.299998
91.569874,71.297090
91.672477,71.251786
91.751787,71.172476
91.799722,71.063912
91.810749,71.051588
91.799999,71.012817
91.799999,70.650000
90.275001,70.650000
90.275000,70.650001
90.275000,71.299998
89.974999,71.299998
89.975000,71.299997
89.975000,70.650001
89.974999,70.650000
88.450002,70.650000
88.450001,70.650001
88.450001,71.044791
85.953941,71.044791
86.002841,71.024536
86.128282,70.928282
86.224536,70.802841
86.285044,70.656762
86.305682,70.500000
86.285934,70.349999
88.450000,70.349999
88.450001,70.350000
89.974999,70.350000
89.975000,70.349999
90.275000,70.349999
90.275001,70.350000
91.799998,70.350000
91.799999,70.349999
91.799999,69.955210
91.799998,69.955208
91.797090,69.930125
91.751786,69.827522
91.672477,69.748213
91.569872,69.702909
91.544797,69.700000
90.275001,69.700000
90.275000,69.700001
90.275000,70.349999
89.975000,70.349999
89.975000,69.700001
89.974999,69.700000
88.705210,69.700000
88.705208,69.700001
88.680125,69.702909
88.577522,69.748213
88.498213,69.827522
88.452909,69.930127
88.450000,69.955202
88.450000,70.349999
86.285934,70.349999
86.285044,70.343238
86.224537,70.197161
86.224537,70.197160
86.128286,70.071723
86.128285,70.071722
86.128282,70.071718
86.128277,70.071714
86.128276,70.071713
86.034817,70.000000
86.002841,69.975464
86.002840,69.975463
86.002838,69.975462
85.856766,69.914957
85.856758,69.914955
85.700001,69.894318
85.699999,69.894318
85.543238,69.914955
85.543238,69.914956
85.532984,69.919203
85.471987,69.924001
85.419820,69.892029
85.412788,69.882740
85.394552,69.855448
85.394548,69.855445
85.328233,69.811134
85.328231,69.811133
85.328228,69.811132
85.328227,69.811132
85.269758,69.799501
85.269748,69.799500
82.480252,69.799500
82.480251,69.799500
82.480241,69.799501
82.421772,69.811132
82.421766,69.811134
82.355451,69.855445
82.355445,69.855451
82.311134,69.921766
82.311132,69.921772
82.299501,69.980241
82.299500,69.980253
82.299500,71.019746
82.299501,71.019758
82.311132,71.078227
82.311134,71.078233
82.326286,71.100909
82.342895,71.159797
82.335436,71.193791
82.314957,71.243236
82.314955,71.243241
82.294318,71.399999
82.294318,71.400000
82.314955,71.556758
82.314957,71.556766
82.375462,71.702838
82.375462,71.702839
82.471713,71.828276
82.471718,71.828282
82.471722,71.828285
82.473933,71.830496
82.474953,71.832498
82.475668,71.833430
82.475495,71.833562
82.501710,71.885013
82.492139,71.945445
82.448874,71.988710
82.403929,71.999500
69.002162,71.999500
68.997845,71.999311
68.954554,71.995523
68.826201,71.982881
68.810284,71.979985
68.763909,71.967560
68.741669,71.961601
68.701271,71.949347
68.646739,71.932804
68.633639,71.927791
68.564308,71.895462
68.561893,71.894255
68.477009,71.848883
68.471946,71.845773
68.404777,71.798740
68.401765,71.796455
68.328723,71.736512
68.325121,71.733247
68.266751,71.674877
68.263486,71.671275
68.203543,71.598233
68.201258,71.595221
68.174328,71.556762
68.154222,71.528048
68.151115,71.522989
68.105733,71.438085
68.104536,71.435690
68.072207,71.366359
68.067194,71.353259
68.038398,71.258330
68.020012,71.189710
68.017118,71.173804
68.004482,71.045519
68.000687,71.002140
68.000500,70.997840
68.000500,70.000004
68.644341,70.000004
68.664935,70.235400
68.726098,70.463667
68.825959,70.677818
68.825963,70.677826
68.913497,70.802839
68.961505,70.871401
69.128599,71.038495
69.128602,71.038497
69.128603,71.038498
69.138522,71.045443
69.322171,71.174035
69.322172,71.174035
69.322173,71.174036
69.322181,71.174040
69.536333,71.273901
69.536337,71.273903
69.764592,71.335063
69.764596,71.335063
69.764599,71.335064
69.941028,71.350500
69.941034,71.350500
70.058972,71.350500
70.235400,71.335064
70.235401,71.335063
70.235408,71.335063
70.463663,71.273903
70.677829,71.174035
70.871401,71.038495
71.038495,70.871401
71.174035,70.677830
71.273903,70.463663
71.335063,70.235408
71.335064,70.235400
71.355659,70.000004
71.355659,69.999995
71.335064,69.764599
71.335063,69.764596
71.335063,69.764592
71.273903,69.536337
71.174035,69.322171
71.049667,69.144554
71.038498,69.128603
71.038497,69.128602
71.038495,69.128599
70.871401,68.961505
70.871397,68.961502
70.871396,68.961501
70.677826,68.825963
70.677818,68.825959
70.463666,68.726098
70.463667,68.726098
70.387577,68.705710
70.235408,68.664937
70.235407,68.664936
70.235400,68.664935
70.058972,68.649500
70.058966,68.649500
69.941034,68.649500
69.941028,68.649500
69.764599,68.664935
69.536332,68.726098
69.322181,68.825959
69.322173,68.825963
69.128603,68.961501
68.961501,69.128603
68.825964,69.322171
68.726097,69.536337
68.664935,69.764599
68.644341,69.999995
68.644341,70.000004
68.000500,70.000004
68.000500,60.000000
73.894548,60.000000
73.901815,60.180342
73.902474,60.196682
73.902474,60.245717
73.906420,60.294603
73.914346,60.491285
73.914346,60.491291
73.914347,60.491296
73.938070,60.686674
73.942019,60.735580
73.942019,60.735581
73.949887,60.783992
73.973611,60.979379
74.012985,61.172247
74.020851,61.220647
74.032587,61.268263
74.040446,61.306758
74.071959,61.461122
74.071962,61.461134
74.126726,61.650203
74.138462,61.697816
74.153990,61.744329
74.177513,61.825539
74.208756,61.933401
74.208759,61.933410
74.208760,61.933412
74.278549,62.117432
74.294087,62.163970
74.294087,62.163971
74.313317,62.209105
74.383106,62.393124
74.383110,62.393133
74.432892,62.498047
74.467486,62.570953
74.486717,62.616088
74.509513,62.659523
74.593892,62.837347
74.692298,63.007792
74.715104,63.051244
74.741325,63.092710
74.811630,63.214480
74.839733,63.263155
74.839736,63.263159
74.839737,63.263161
74.951538,63.425132
74.977767,63.466610
75.007230,63.505817
75.119041,63.667803
75.191674,63.756762
75.243523,63.820266
75.272992,63.859482
75.292162,63.881120
75.305518,63.896197
75.430001,64.048661
75.566359,64.190625
75.598877,64.227330
75.634250,64.261307
75.770602,64.403264
75.917921,64.533778
75.953310,64.567769
75.991304,64.598789
76.069358,64.667939
76.138634,64.729313
76.138634,64.729312
76.295981,64.847551
76.307462,64.856925
76.333985,64.878580
76.354086,64.892455
76.374358,64.906447
76.390826,64.918822
76.531704,65.024686
76.698058,65.129882
76.738435,65.157752
76.780916,65.182278
76.947274,65.287477
77.121564,65.378951
77.164038,65.403474
77.208356,65.424503
77.228436,65.435042
77.382632,65.515970
77.382631,65.515970
77.382637,65.515972
77.382638,65.515973
77.563717,65.593123
77.608033,65.614152
77.653903,65.631548
77.834977,65.708697
77.834981,65.708698
77.834982,65.708699
77.892391,65.727864
78.021697,65.771033
78.067541,65.788420
78.080332,65.792125
78.114653,65.802067
78.301349,65.864395
78.301350,65.864395
78.301353,65.864395
78.301357,65.864397
78.492471,65.911502
78.519988,65.919473
78.539584,65.925150
78.561493,65.929622
78.587649,65.934962
78.778753,65.982065
78.778755,65.982065
78.778758,65.982066
78.778757,65.982066
78.817338,65.988335
78.973054,66.013641
79.021094,66.023450
79.069777,66.029360
79.189161,66.048762
79.264071,66.060937
79.315638,66.065099
79.460270,66.076775
79.508955,66.082687
79.557952,66.084660
79.754158,66.100500
79.754163,66.100500
79.950967,66.100500
80.000000,66.102476
80.049033,66.100500
80.245837,66.100500
80.245842,66.100500
80.442050,66.084660
80.491045,66.082687
80.539732,66.076774
80.683022,66.065207
80.735929,66.060937
80.819819,66.047302
80.930212,66.029362
80.978906,66.023450
81.026959,66.013639
81.221247,65.982065
81.412360,65.934959
81.441483,65.929014
81.460416,65.925150
81.475649,65.920737
81.507515,65.911505
81.698643,65.864397
81.698646,65.864395
81.698650,65.864395
81.698651,65.864395
81.763570,65.842721
81.885369,65.802058
81.895469,65.799134
81.932448,65.788424
81.932459,65.788420
81.978308,65.771031
82.107444,65.727919
82.165018,65.708699
82.165018,65.708698
82.165023,65.708697
82.346113,65.631541
82.381359,65.618174
82.391968,65.614152
82.407583,65.606742
82.436278,65.593125
82.617362,65.515973
82.617362,65.515972
82.617369,65.515970
82.617368,65.515970
82.791657,65.424496
82.835962,65.403474
82.878424,65.378957
83.052726,65.287477
83.219100,65.182267
83.261565,65.157752
83.301942,65.129882
83.468301,65.024682
83.511665,64.992095
83.625653,64.906438
83.666015,64.878580
83.666014,64.878580
83.666018,64.878578
83.682894,64.864798
83.704002,64.847562
83.861365,64.729313
83.861366,64.729312
83.861366,64.729313
83.907021,64.688865
84.008698,64.598786
84.035563,64.576854
84.046686,64.567773
84.046685,64.567773
84.046690,64.567769
84.082053,64.533800
84.229395,64.403267
84.229397,64.403265
84.229398,64.403265
84.322042,64.306810
84.365755,64.261300
84.394500,64.233692
84.401118,64.227336
84.411053,64.216120
84.433625,64.190640
84.569996,64.048664
84.569995,64.048664
84.569999,64.048661
84.671373,63.924500
84.694484,63.896192
84.727009,63.859481
84.727009,63.859482
84.738336,63.844407
84.756470,63.820273
84.880959,63.667803
84.992771,63.505813
85.022239,63.466601
85.048462,63.425132
85.117780,63.324707
85.160269,63.263153
85.189939,63.211760
85.258681,63.092696
85.275394,63.066268
85.284901,63.051236
85.307701,63.007792
85.315480,62.994318
85.406109,62.837345
85.407422,62.834579
85.414887,62.818844
85.490498,62.659498
85.513284,62.616086
85.513286,62.616082
85.513286,62.616083
85.532513,62.570953
85.616890,62.393133
85.686689,62.209087
85.705914,62.163968
85.721438,62.117461
85.768850,61.992450
85.791245,61.933401
85.808802,61.872780
85.846013,61.744313
85.861538,61.697815
85.873266,61.650227
85.928039,61.461130
85.928039,61.461126
85.928041,61.461122
85.928041,61.461123
85.939179,61.406558
85.967415,61.268250
85.979148,61.220652
85.987013,61.172253
86.026388,60.979383
86.050115,60.783969
86.057982,60.735572
86.061929,60.686674
86.085654,60.491285
86.093580,60.294602
86.097526,60.245722
86.098183,60.180358
86.105452,60.000000
86.098183,59.819643
86.097526,59.754277
86.097205,59.750313
86.093580,59.705395
86.085654,59.508715
86.061928,59.313317
86.057983,59.264430
86.053737,59.238313
86.050113,59.216009
86.026388,59.020617
85.987012,58.827740
85.979148,58.779350
85.967416,58.731753
85.930311,58.549998
85.928041,58.538877
85.928041,58.538878
85.928040,58.538877
85.922256,58.518907
85.873272,58.349795
85.861537,58.302184
85.861536,58.302178
85.861536,58.302177
85.846009,58.255670
85.791245,58.066599
85.721449,57.882566
85.705916,57.836037
85.705916,57.836036
85.701033,57.824577
85.686689,57.790911
85.642475,57.674329
85.616894,57.606875
85.616893,57.606875
85.616890,57.606867
85.532513,57.429046
85.513281,57.383907
85.513281,57.383908
85.490486,57.340476
85.406109,57.162655
85.307701,56.992207
85.284899,56.948762
85.258673,56.907289
85.160267,56.736845
85.048462,56.574867
85.030831,56.546986
85.022244,56.533406
85.022236,56.533396
84.992765,56.494176
84.880961,56.332200
84.756476,56.179733
84.727008,56.140518
84.706455,56.117319
84.694481,56.103802
84.569999,55.951339
84.433640,55.809374
84.401123,55.772670
84.401120,55.772667
84.365751,55.738694
84.365750,55.738693
84.229398,55.596736
84.082075,55.466219
84.046690,55.432231
84.008678,55.401194
83.924452,55.326578
83.861366,55.270687
83.861366,55.270688
83.861365,55.270687
83.767298,55.200000
83.704018,55.152448
83.666021,55.121425
83.666015,55.121420
83.625637,55.093549
83.468289,54.975310
83.468290,54.975310
83.301940,54.870117
83.261570,54.842251
83.219079,54.817718
83.118190,54.753920
83.052726,54.712523
83.052722,54.712520
83.052719,54.712519
83.052718,54.712518
82.878445,54.621053
82.862263,54.611710
82.835962,54.596526
82.835952,54.596521
82.835950,54.596520
82.791641,54.575495
82.617369,54.484030
82.617368,54.484030
82.617362,54.484027
82.436285,54.406877
82.417574,54.397999
82.391968,54.385848
82.391969,54.385849
82.391967,54.385848
82.346096,54.368451
82.308582,54.352468
82.165023,54.291303
82.165017,54.291301
82.165010,54.291298
82.165011,54.291298
81.978315,54.228971
81.932466,54.211582
81.932467,54.211582
81.885347,54.197933
81.698647,54.135604
81.507540,54.088500
81.460422,54.074852
81.460420,54.074851
81.460418,54.074851
81.412353,54.065038
81.244908,54.023767
81.221247,54.017935
81.221244,54.017934
81.221243,54.017934
81.026965,53.986361
80.978902,53.976549
80.930210,53.970637
80.735926,53.939063
80.539745,53.923226
80.491056,53.917314
80.491051,53.917313
80.491045,53.917313
80.469087,53.916428
80.442027,53.915337
80.328818,53.906198
80.245842,53.899500
80.049010,53.899500
80.000000,53.897525
79.950990,53.899500
79.754158,53.899500
79.680491,53.905447
79.557972,53.915337
79.531067,53.916421
79.508955,53.917313
79.508947,53.917313
79.508945,53.917314
79.508946,53.917314
79.460254,53.923226
79.264074,53.939063
79.069789,53.970637
79.021100,53.976549
79.021096,53.976549
79.021094,53.976550
79.005795,53.979673
78.973034,53.986361
78.778757,54.017934
78.778755,54.017934
78.778753,54.017935
78.755092,54.023767
78.587648,54.065038
78.558058,54.071078
78.539582,54.074851
78.539579,54.074851
78.539578,54.074852
78.492459,54.088500
78.301353,54.135604
78.114652,54.197933
78.067538,54.211581
78.021683,54.228971
77.834978,54.291302
77.834979,54.291302
77.653897,54.368454
77.608036,54.385847
77.608035,54.385847
77.563714,54.406877
77.461031,54.450626
77.382638,54.484027
77.382632,54.484030
77.382631,54.484030
77.208358,54.575494
77.164032,54.596529
77.164031,54.596530
77.121555,54.621053
77.029106,54.669574
76.947274,54.712523
76.947272,54.712524
76.780921,54.817718
76.738440,54.842245
76.738441,54.842244
76.698058,54.870117
76.531710,54.975310
76.531711,54.975310
76.374362,55.093549
76.333978,55.121425
76.333979,55.121425
76.295981,55.152448
76.138634,55.270687
75.991317,55.401199
75.953313,55.432228
75.917924,55.466219
75.770602,55.596736
75.634249,55.738694
75.598882,55.772664
75.566359,55.809374
75.502110,55.876264
75.430004,55.951336
75.429996,55.951346
75.429995,55.951346
75.305518,56.103802
75.272993,56.140516
75.243523,56.179733
75.162084,56.279477
75.119041,56.332197
75.116573,56.335773
75.007235,56.494176
74.977761,56.533399
74.977757,56.533406
74.951538,56.574867
74.839733,56.736845
74.788421,56.825718
74.741326,56.907289
74.715101,56.948762
74.692298,56.992207
74.593892,57.162653
74.509513,57.340476
74.495127,57.367886
74.486716,57.383914
74.486715,57.383917
74.467486,57.429046
74.383110,57.606865
74.313317,57.790894
74.313317,57.790895
74.294086,57.836032
74.286726,57.858076
74.278550,57.882566
74.208758,58.066593
74.208758,58.066592
74.153990,58.255670
74.138462,58.302184
74.126726,58.349796
74.077743,58.518907
74.071961,58.538870
74.071670,58.540294
74.032587,58.731736
74.020852,58.779348
74.020851,58.779355
74.020851,58.779354
74.012985,58.827752
73.973611,59.020621
73.949887,59.216006
73.942019,59.264421
73.938070,59.313325
73.914347,59.508705
73.914346,59.508715
73.914327,59.509194
73.906420,59.705395
73.902475,59.754277
73.902474,59.754284
73.902474,59.803317
73.894548,60.000000
68.000500,60.000000
68.000500,50.000004
68.644341,50.000004
68.664935,50.235400
68.726098,50.463667
68.825959,50.677818
68.825963,50.677826
68.825964,50.677828
68.825965,50.677829
68.961505,50.871401
69.128599,51.038495
69.322171,51.174035
69.322172,51.174035
69.322173,51.174036
69.322181,51.174040
69.536333,51.273901
69.536337,51.273903
69.764592,51.335063
69.764596,51.335063
69.764599,51.335064
69.941028,51.350500
69.941034,51.350500
70.058972,51.350500
70.235400,51.335064
70.235401,51.335063
70.235408,51.335063
70.463663,51.273903
70.677829,51.174035
70.871401,51.038495
71.038495,50.871401
71.174035,50.677830
71.273903,50.463663
71.335063,50.235408
71.355659,50.000004
88.644341,50.000004
88.664935,50.235400
88.726098,50.463667
88.825959,50.677818
88.825963,50.677826
88.825964,50.677828
88.825965,50.677829
88.961505,50.871401
89.128599,51.038495
89.322171,51.174035
89.322172,51.174035
89.322173,51.174036
89.322181,51.174040
89.536333,51.273901
89.536337,51.273903
89.764592,51.335063
89.764596,51.335063
89.764599,51.335064
89.941028,51.350500
89.941034,51.350500
90.058972,51.350500
90.235400,51.335064
90.235401,51.335063
90.235408,51.335063
90.463663,51.273903
90.677829,51.174035
90.871401,51.038495
91.038495,50.871401
91.174035,50.677830
91.273903,50.463663
91.335063,50.235408
91.355659,50.000000
91.335063,49.764592
91.273903,49.536337
91.174035,49.322171
91.038495,49.128599
90.871401,48.961505
90.871397,48.961502
90.871396,48.961501
90.677826,48.825963
90.677818,48.825959
90.463666,48.726098
90.463667,48.726098
90.371010,48.701271
90.235408,48.664937
90.235407,48.664936
90.235400,48.664935
90.058972,48.649500
90.058966,48.649500
89.941034,48.649500
89.941028,48.649500
89.764599,48.664935
89.536332,48.726098
89.322181,48.825959
89.322173,48.825963
89.128603,48.961501
88.961501,49.128603
88.825964,49.322171
88.726097,49.536337
88.664935,49.764599
88.644341,49.999995
88.644341,50.000004
71.355659,50.000004
71.355659,50.000000
71.335063,49.764592
71.273903,49.536337
71.174035,49.322171
71.038495,49.128599
70.871401,48.961505
70.871397,48.961502
70.871396,48.961501
70.677826,48.825963
70.677818,48.825959
70.463666,48.726098
70.463667,48.726098
70.371010,48.701271
70.235408,48.664937
70.235407,48.664936
70.235400,48.664935
70.058972,48.649500
70.058966,48.649500
69.941034,48.649500
69.941028,48.649500
69.764599,48.664935
69.536332,48.726098
69.322181,48.825959
69.322173,48.825963
69.128603,48.961501
68.961501,49.128603
68.825964,49.322171
68.726097,49.536337
68.664935,49.764599
68.644341,49.999995
68.644341,50.000004
68.000500,50.000004
68.000500,49.002158
68.000687,48.997861
68.004476,48.954544
68.017118,48.826191
68.020011,48.810293
68.038406,48.741641
68.067197,48.646730
68.072207,48.633639
68.099292,48.575555
68.104551,48.564276
68.105718,48.561943
68.151123,48.476994
68.154212,48.471965
68.201271,48.404759
68.203528,48.401784
68.263508,48.328698
68.266741,48.325131
68.325131,48.266741
68.328698,48.263508
68.401784,48.203528
68.404759,48.201271
68.471965,48.154212
68.476994,48.151123
68.561943,48.105718
68.564276,48.104551
68.633641,48.072205
68.646730,48.067197
68.741641,48.038406
68.810293,48.020011
68.826191,48.017118
68.954542,48.004477
68.997860,48.000687
69.002159,48.000500
90.997840,48.000500
Z" /> 
</g>
</g>
</g> 
</svg>
