<?xml version="1.0" standalone="no"?>
 <!DOCTYPE svg PUBLIC "-//W3C//DTD SVG 1.1//EN" 
 "http://www.w3.org/Graphics/SVG/1.1/DTD/svg11.dtd"> 
<svg
  xmlns:svg="http://www.w3.org/2000/svg"
  xmlns="http://www.w3.org/2000/svg"
  xmlns:xlink="http://www.w3.org/1999/xlink"
  version="1.1"
  width="2.6100000000000003cm" height="2.6100000000000003cm" viewBox="66.95 46.95 26.1 26.1">
<title>SVG Image created as pedalboard-led-ring-B_Cu.svg date 2023/10/21 16:34:08 </title>
  <desc>Image generated by PCBNEW </desc>
<g style="fill:#000000; fill-opacity:1.000000;stroke:#000000; stroke-opacity:1.000000;
stroke-linecap:round; stroke-linejoin:round;"
 transform="translate(0 0) scale(1 1)">
</g>
<g style="fill:#000000; fill-opacity:0.0; 
stroke:#000000; stroke-width:0.000000; stroke-opacity:1; 
stroke-linecap:round; stroke-linejoin:round;">
</g>
<g style="fill:#000000; fill-opacity:1.000000; 
stroke:#000000; stroke-width:0.000000; stroke-opacity:1; 
stroke-linecap:round; stroke-linejoin:round;">
<path style="fill:#000000; fill-opacity:1.000000; 
stroke:#000000; stroke-width:0.000000; stroke-opacity:1; 
stroke-linecap:round; stroke-linejoin:round;fill-rule:evenodd;"
d="M 86.190510,54.198675
85.730884,54.584347
85.409490,54.201325
85.869116,53.815653
Z" /> 
<g >
</g>
<g >
</g>
<g >
</g>
<g >
</g>
<g >
</g>
<g >
</g>
<g >
</g>
<g >
</g>
<g >
</g>
<g >
</g>
<g >
</g>
<g >
</g>
<g >
</g>
<g >
</g>
<g >
</g>
<g >
</g>
<g >
</g>
<g >
</g>
<g >
</g>
<g >
</g>
<g >
</g>
<g >
</g>
<g >
</g>
<g >
</g>
<g >
</g>
<g >
</g>
<g >
</g>
<g >
</g>
<g >
</g>
<g >
</g>
<g >
</g>
<g style="fill:#000000; fill-opacity:1.000000; 
stroke:#000000; stroke-width:0.000000; stroke-opacity:1; 
stroke-linecap:round; stroke-linejoin:round;">
<path style="fill:#000000; fill-opacity:1.000000; 
stroke:#000000; stroke-width:0.000000; stroke-opacity:1; 
stroke-linecap:round; stroke-linejoin:round;fill-rule:evenodd;"
d="M 91.500000,58.250000
90.500000,58.250000
90.500000,55.500000
91.500000,55.500000
Z" /> 
<path style="fill:#000000; fill-opacity:1.000000; 
stroke:#000000; stroke-width:0.000000; stroke-opacity:1; 
stroke-linecap:round; stroke-linejoin:round;fill-rule:evenodd;"
d="M 91.500000,64.500000
90.500000,64.500000
90.500000,61.750000
91.500000,61.750000
Z" /> 
<path style="fill:#000000; fill-opacity:1.000000; 
stroke:#000000; stroke-width:0.000000; stroke-opacity:1; 
stroke-linecap:round; stroke-linejoin:round;fill-rule:evenodd;"
d="M 89.500000,58.250000
88.500000,58.250000
88.500000,55.500000
89.500000,55.500000
Z" /> 
<path style="fill:#000000; fill-opacity:1.000000; 
stroke:#000000; stroke-width:0.000000; stroke-opacity:1; 
stroke-linecap:round; stroke-linejoin:round;fill-rule:evenodd;"
d="M 89.500000,64.500000
88.500000,64.500000
88.500000,61.750000
89.500000,61.750000
Z" /> 
</g>
<g >
</g>
<g style="fill:#000000; fill-opacity:1.000000; 
stroke:#000000; stroke-width:0.000000; stroke-opacity:1; 
stroke-linecap:round; stroke-linejoin:round;">
<path style="fill:#000000; fill-opacity:1.000000; 
stroke:#000000; stroke-width:0.000000; stroke-opacity:1; 
stroke-linecap:round; stroke-linejoin:round;fill-rule:evenodd;"
d="M 86.470952,53.832816
86.792345,54.215838
86.788447,54.219109
86.834186,54.273619
86.891245,54.403996
86.909260,54.545165
86.886774,54.685693
86.825608,54.814192
86.730717,54.920254
86.347695,55.241648
86.226766,55.316680
86.089598,55.354603
85.947300,55.352345
85.811404,55.310090
85.692916,55.231258
85.647177,55.176749
85.643279,55.180020
85.321885,54.796997
Z" /> 
<path style="fill:#000000; fill-opacity:1.000000; 
stroke:#000000; stroke-width:0.000000; stroke-opacity:1; 
stroke-linecap:round; stroke-linejoin:round;fill-rule:evenodd;"
d="M 84.811553,54.180891
84.765814,54.126381
84.708755,53.996004
84.690740,53.854835
84.713226,53.714307
84.774392,53.585808
84.869283,53.479746
85.252305,53.158352
85.373234,53.083320
85.510402,53.045397
85.652700,53.047655
85.788596,53.089910
85.907084,53.168742
85.952823,53.223251
85.956721,53.219980
86.278115,53.603003
85.129048,54.567184
84.807655,54.184162
Z" /> 
</g>
<g >
</g>
<g style="fill:#000000; fill-opacity:1.000000; 
stroke:#000000; stroke-width:0.000000; stroke-opacity:1; 
stroke-linecap:round; stroke-linejoin:round;">
<circle cx="86.950000" cy="63.150000" r="0.400000" /> 
</g>
<g style="fill:#000000; fill-opacity:1.000000; 
stroke:#000000; stroke-width:0.021200; stroke-opacity:1; 
stroke-linecap:round; stroke-linejoin:round;">
</g>
<g style="fill:#000000; fill-opacity:1.000000; 
stroke:#000000; stroke-width:0.000000; stroke-opacity:1; 
stroke-linecap:round; stroke-linejoin:round;">
<circle cx="74.000000" cy="52.000000" r="0.400000" /> 
</g>
<g style="fill:#000000; fill-opacity:1.000000; 
stroke:#000000; stroke-width:0.021200; stroke-opacity:1; 
stroke-linecap:round; stroke-linejoin:round;">
</g>
<g style="fill:#000000; fill-opacity:1.000000; 
stroke:#000000; stroke-width:0.000000; stroke-opacity:1; 
stroke-linecap:round; stroke-linejoin:round;">
<circle cx="70.071797" cy="61.196152" r="0.400000" /> 
</g>
<g style="fill:#000000; fill-opacity:1.000000; 
stroke:#000000; stroke-width:0.021200; stroke-opacity:1; 
stroke-linecap:round; stroke-linejoin:round;">
</g>
<g style="fill:#000000; fill-opacity:1.000000; 
stroke:#000000; stroke-width:0.000000; stroke-opacity:1; 
stroke-linecap:round; stroke-linejoin:round;">
<circle cx="76.071797" cy="69.196152" r="0.400000" /> 
</g>
<g style="fill:#000000; fill-opacity:1.000000; 
stroke:#000000; stroke-width:0.021200; stroke-opacity:1; 
stroke-linecap:round; stroke-linejoin:round;">
</g>
<g style="fill:#000000; fill-opacity:1.000000; 
stroke:#000000; stroke-width:0.000000; stroke-opacity:1; 
stroke-linecap:round; stroke-linejoin:round;">
<circle cx="90.079502" cy="56.650000" r="0.400000" /> 
</g>
<g style="fill:#000000; fill-opacity:1.000000; 
stroke:#000000; stroke-width:0.021200; stroke-opacity:1; 
stroke-linecap:round; stroke-linejoin:round;">
</g>
<g style="fill:#000000; fill-opacity:1.000000; 
stroke:#000000; stroke-width:0.000000; stroke-opacity:1; 
stroke-linecap:round; stroke-linejoin:round;">
<circle cx="81.196152" cy="69.928203" r="0.400000" /> 
</g>
<g style="fill:#000000; fill-opacity:1.000000; 
stroke:#000000; stroke-width:0.021200; stroke-opacity:1; 
stroke-linecap:round; stroke-linejoin:round;">
</g>
<g style="fill:#000000; fill-opacity:1.000000; 
stroke:#000000; stroke-width:0.000000; stroke-opacity:1; 
stroke-linecap:round; stroke-linejoin:round;">
<circle cx="83.928203" cy="50.803848" r="0.400000" /> 
</g>
<g style="fill:#000000; fill-opacity:1.000000; 
stroke:#000000; stroke-width:0.021200; stroke-opacity:1; 
stroke-linecap:round; stroke-linejoin:round;">
</g>
<g style="fill:#000000; fill-opacity:1.000000; 
stroke:#000000; stroke-width:0.000000; stroke-opacity:1; 
stroke-linecap:round; stroke-linejoin:round;">
<circle cx="72.000000" cy="66.000000" r="0.400000" /> 
</g>
<g style="fill:#000000; fill-opacity:1.000000; 
stroke:#000000; stroke-width:0.021200; stroke-opacity:1; 
stroke-linecap:round; stroke-linejoin:round;">
</g>
<g style="fill:#000000; fill-opacity:1.000000; 
stroke:#000000; stroke-width:0.000000; stroke-opacity:1; 
stroke-linecap:round; stroke-linejoin:round;">
<circle cx="86.000000" cy="67.940000" r="0.400000" /> 
</g>
<g style="fill:#000000; fill-opacity:1.000000; 
stroke:#000000; stroke-width:0.021200; stroke-opacity:1; 
stroke-linecap:round; stroke-linejoin:round;">
</g>
<g style="fill:#000000; fill-opacity:1.000000; 
stroke:#000000; stroke-width:0.000000; stroke-opacity:1; 
stroke-linecap:round; stroke-linejoin:round;">
<circle cx="70.803848" cy="56.071797" r="0.400000" /> 
</g>
<g style="fill:#000000; fill-opacity:1.000000; 
stroke:#000000; stroke-width:0.021200; stroke-opacity:1; 
stroke-linecap:round; stroke-linejoin:round;">
</g>
<g style="fill:#000000; fill-opacity:1.000000; 
stroke:#000000; stroke-width:0.000000; stroke-opacity:1; 
stroke-linecap:round; stroke-linejoin:round;">
<circle cx="88.000000" cy="54.000000" r="0.400000" /> 
</g>
<g style="fill:#000000; fill-opacity:1.000000; 
stroke:#000000; stroke-width:0.021200; stroke-opacity:1; 
stroke-linecap:round; stroke-linejoin:round;">
</g>
<g style="fill:#000000; fill-opacity:1.000000; 
stroke:#000000; stroke-width:0.000000; stroke-opacity:1; 
stroke-linecap:round; stroke-linejoin:round;">
<circle cx="88.260000" cy="66.020000" r="0.400000" /> 
</g>
<g style="fill:#000000; fill-opacity:1.000000; 
stroke:#000000; stroke-width:0.021200; stroke-opacity:1; 
stroke-linecap:round; stroke-linejoin:round;">
</g>
<g style="fill:#000000; fill-opacity:1.000000; 
stroke:#000000; stroke-width:0.000000; stroke-opacity:1; 
stroke-linecap:round; stroke-linejoin:round;">
<circle cx="78.803848" cy="50.071797" r="0.400000" /> 
</g>
<g style="fill:#000000; fill-opacity:1.000000; 
stroke:#000000; stroke-width:0.021200; stroke-opacity:1; 
stroke-linecap:round; stroke-linejoin:round;">
</g>
<g style="fill:#000000; fill-opacity:1.000000; 
stroke:#000000; stroke-width:0.000000; stroke-opacity:1; 
stroke-linecap:round; stroke-linejoin:round;">
<circle cx="90.400000" cy="61.400000" r="0.400000" /> 
</g>
<g style="fill:#000000; fill-opacity:1.000000; 
stroke:#000000; stroke-width:0.021200; stroke-opacity:1; 
stroke-linecap:round; stroke-linejoin:round;">
</g>
<g style="fill:#000000; fill-opacity:1.000000; 
stroke:#000000; stroke-width:0.000000; stroke-opacity:1; 
stroke-linecap:round; stroke-linejoin:round;">
<circle cx="91.150000" cy="61.400000" r="0.400000" /> 
</g>
<g style="fill:#000000; fill-opacity:1.000000; 
stroke:#000000; stroke-width:0.021200; stroke-opacity:1; 
stroke-linecap:round; stroke-linejoin:round;">
</g>
<g style="fill:#000000; fill-opacity:1.000000; 
stroke:#000000; stroke-width:0.000000; stroke-opacity:1; 
stroke-linecap:round; stroke-linejoin:round;">
<circle cx="91.150000" cy="64.850000" r="0.400000" /> 
</g>
<g style="fill:#000000; fill-opacity:1.000000; 
stroke:#000000; stroke-width:0.021200; stroke-opacity:1; 
stroke-linecap:round; stroke-linejoin:round;">
</g>
<g style="fill:#000000; fill-opacity:1.000000; 
stroke:#000000; stroke-width:0.000000; stroke-opacity:1; 
stroke-linecap:round; stroke-linejoin:round;">
<circle cx="90.400000" cy="64.850000" r="0.400000" /> 
</g>
<g style="fill:#000000; fill-opacity:1.000000; 
stroke:#000000; stroke-width:0.021200; stroke-opacity:1; 
stroke-linecap:round; stroke-linejoin:round;">
</g>
<g style="fill:#000000; fill-opacity:1.000000; 
stroke:#000000; stroke-width:0.000000; stroke-opacity:1; 
stroke-linecap:round; stroke-linejoin:round;">
<circle cx="87.698157" cy="58.551843" r="0.400000" /> 
</g>
<g style="fill:#000000; fill-opacity:1.000000; 
stroke:#000000; stroke-width:0.021200; stroke-opacity:1; 
stroke-linecap:round; stroke-linejoin:round;">
</g>
<g style="fill:#000000; fill-opacity:1.000000; 
stroke:#000000; stroke-width:0.000000; stroke-opacity:1; 
stroke-linecap:round; stroke-linejoin:round;">
<circle cx="87.910000" cy="61.150000" r="0.400000" /> 
</g>
<g style="fill:#000000; fill-opacity:1.000000; 
stroke:#000000; stroke-width:0.021200; stroke-opacity:1; 
stroke-linecap:round; stroke-linejoin:round;">
</g>
<g >
</g>
<g style="fill:#000000; fill-opacity:1.000000; 
stroke:#000000; stroke-width:0.021200; stroke-opacity:1; 
stroke-linecap:round; stroke-linejoin:round;">
</g>
<g style="fill:#000000; fill-opacity:1.000000; 
stroke:#000000; stroke-width:0.250000; stroke-opacity:1; 
stroke-linecap:round; stroke-linejoin:round;">
</g>
<g style="fill:#000000; fill-opacity:0.0; 
stroke:#000000; stroke-width:0.250000; stroke-opacity:1; 
stroke-linecap:round; stroke-linejoin:round;">
<path d="M86.950000 63.150000
L88.975000 63.150000
" />
<path d="M88.975000 63.150000
L89.000000 63.125000
" />
<path d="M91.000000 64.250000
L90.400000 64.850000
" />
<path d="M91.000000 64.700000
L91.150000 64.850000
" />
<path d="M91.100000 64.900000
L90.400000 64.900000
" />
<path d="M91.000000 63.125000
L91.000000 61.550000
" />
<path d="M91.000000 62.000000
L90.400000 61.400000
" />
<path d="M91.000000 61.550000
L91.150000 61.400000
" />
<path d="M91.000000 63.125000
L91.000000 64.700000
" />
<path d="M87.698157 58.551843
L87.698157 57.398157
" />
<path d="M86.017812 55.717812
L86.017812 54.697929
" />
<path d="M87.698157 57.398157
L86.017812 55.717812
" />
<path d="M87.910000 61.200000
L89.000000 61.200000
" />
<path d="M89.000000 61.200000
L89.000000 56.875000
" />
</g>
<g >
</g>
<g style="fill:#000000; fill-opacity:0.0; 
stroke:#000000; stroke-width:0.250000; stroke-opacity:1; 
stroke-linecap:round; stroke-linejoin:round;">
<g >
</g>
<g style="fill:#000000; fill-opacity:1.000000; 
stroke:#000000; stroke-width:0.000000; stroke-opacity:1; 
stroke-linecap:round; stroke-linejoin:round;">
<path style="fill:#000000; fill-opacity:1.000000; 
stroke:#000000; stroke-width:0.000000; stroke-opacity:1; 
stroke-linecap:round; stroke-linejoin:round;fill-rule:evenodd;"
d="M 80.329649,48.009493
80.662213,48.019071
80.664833,48.019216
80.675246,48.020070
81.005442,48.047150
81.238041,48.067291
81.332588,48.075478
81.335048,48.075753
81.362018,48.079454
81.674614,48.122351
81.998793,48.169345
82.000963,48.169711
82.337916,48.234840
82.659622,48.300569
82.993785,48.384289
83.242335,48.450175
83.310959,48.468367
83.640167,48.570216
83.951871,48.672373
84.275077,48.792036
84.580336,48.911942
84.896588,49.049073
85.194372,49.186318
85.502695,49.340497
85.792081,49.494649
86.091562,49.665423
86.272868,49.775845
86.371594,49.835973
86.661270,50.022791
86.931081,50.209214
87.096830,50.329392
87.210114,50.411530
87.468769,50.613188
87.736340,50.830405
87.983000,51.046649
88.238290,51.278097
88.472187,51.508267
88.714388,51.753200
88.934767,51.996579
89.162393,52.253382
89.163894,52.255158
89.369367,52.510153
89.582406,52.778676
89.583896,52.780653
89.774842,53.047735
89.972367,53.326692
89.973827,53.328874
90.151262,53.609948
90.318589,53.875902
90.319695,53.878485
90.326181,53.888064
90.327828,53.890667
90.329664,53.893781
90.341737,53.899152
91.955276,54.970893
91.993287,55.018837
91.999500,55.053357
91.999500,64.951943
91.980593,65.010134
91.962049,65.029485
91.896850,65.081237
91.839517,65.102605
91.780574,65.086193
91.742535,65.038270
91.737148,64.990776
91.755682,64.850000
91.735044,64.693238
91.699884,64.608356
91.694252,64.551157
91.700500,64.519748
91.700500,61.730252
91.700499,61.730250
91.700499,61.730244
91.694252,61.698841
91.699884,61.641643
91.735044,61.556762
91.755682,61.400000
91.735044,61.243238
91.725689,61.220652
91.674537,61.097161
91.674537,61.097160
91.578286,60.971723
91.578285,60.971722
91.578282,60.971718
91.578277,60.971714
91.578276,60.971713
91.491350,60.905013
91.452841,60.875464
91.452840,60.875463
91.452838,60.875462
91.306766,60.814957
91.306758,60.814955
91.150001,60.794318
91.149999,60.794318
90.993241,60.814955
90.993236,60.814957
90.847164,60.875462
90.847159,60.875464
90.835264,60.884590
90.777591,60.905013
90.718925,60.887635
90.714758,60.884608
90.702841,60.875464
90.556762,60.814956
90.556759,60.814955
90.556758,60.814955
90.400001,60.794318
90.399999,60.794318
90.243241,60.814955
90.243233,60.814957
90.097161,60.875462
90.097160,60.875462
89.971723,60.971713
89.971713,60.971723
89.875462,61.097160
89.875462,61.097161
89.814957,61.243233
89.814955,61.243241
89.794318,61.399999
89.794318,61.400000
89.810105,61.519919
89.798955,61.580080
89.754572,61.622197
89.693910,61.630183
89.653838,61.609100
89.652659,61.610865
89.578233,61.561134
89.578231,61.561133
89.578228,61.561132
89.578227,61.561132
89.519758,61.549501
89.519748,61.549500
89.345544,61.549500
89.287353,61.530593
89.251389,61.481093
89.251389,61.419907
89.259800,61.401012
89.260385,61.399999
89.263318,61.394918
89.273221,61.380775
89.286238,61.365263
89.286237,61.365263
89.286240,61.365261
89.293173,61.346211
89.300459,61.330588
89.310588,61.313045
89.314104,61.293096
89.318572,61.276426
89.325500,61.257394
89.325500,61.142606
89.325500,58.549500
89.344407,58.491309
89.393907,58.455345
89.424500,58.450500
89.519747,58.450500
89.519748,58.450500
89.578231,58.438867
89.644552,58.394552
89.688867,58.328231
89.695519,58.294791
90.200001,58.294791
90.202909,58.319874
90.248213,58.422477
90.327522,58.501786
90.430127,58.547090
90.455203,58.549999
90.849998,58.549999
90.850000,58.549998
91.150000,58.549998
91.150001,58.549999
91.544790,58.549999
91.544791,58.549998
91.569874,58.547090
91.672477,58.501786
91.751786,58.422477
91.797090,58.319872
91.799999,58.294797
91.800000,58.294795
91.800000,57.025001
91.799999,57.025000
91.150001,57.025000
91.150000,57.025001
91.150000,58.549998
90.850000,58.549998
90.850000,57.025001
90.849999,57.025000
90.200002,57.025000
90.200001,57.025001
90.200001,58.294791
89.695519,58.294791
89.700500,58.269748
89.700500,56.724999
90.200000,56.724999
90.200001,56.725000
90.849999,56.725000
90.850000,56.724999
91.150000,56.724999
91.150001,56.725000
91.799998,56.725000
91.799999,56.724999
91.799999,55.455210
91.799998,55.455208
91.797090,55.430125
91.751786,55.327522
91.672477,55.248213
91.569872,55.202909
91.544797,55.200000
91.150001,55.200000
91.150000,55.200001
91.150000,56.724999
90.850000,56.724999
90.850000,55.200001
90.849999,55.200000
90.455210,55.200000
90.455207,55.200001
90.430125,55.202909
90.327522,55.248213
90.248213,55.327522
90.202909,55.430127
90.200000,55.455202
90.200000,56.724999
89.700500,56.724999
89.700500,55.480252
89.688867,55.421769
89.644552,55.355448
89.644548,55.355445
89.578233,55.311134
89.578231,55.311133
89.578228,55.311132
89.578227,55.311132
89.519758,55.299501
89.519748,55.299500
88.480252,55.299500
88.480251,55.299500
88.480241,55.299501
88.421772,55.311132
88.421766,55.311134
88.355451,55.355445
88.355445,55.355451
88.311134,55.421766
88.311132,55.421772
88.299501,55.480241
88.299500,55.480253
88.299500,58.057614
88.280593,58.115805
88.231093,58.151769
88.169907,58.151769
88.130496,58.127618
88.126437,58.123559
88.062389,58.074413
88.027734,58.023988
88.023657,57.995871
88.023657,57.414530
88.023844,57.410229
88.027421,57.369350
88.016797,57.329705
88.015867,57.325505
88.008745,57.285112
88.007997,57.283816
87.998099,57.259924
87.997711,57.258473
87.997709,57.258470
87.997708,57.258468
87.974182,57.224869
87.971860,57.221225
87.951350,57.185700
87.927181,57.165421
87.919922,57.159330
87.916745,57.156418
86.448354,55.688028
86.420577,55.633511
86.430148,55.573079
86.466161,55.533902
86.512176,55.505352
86.578830,55.449423
86.583623,55.444064
86.593761,55.434241
86.877653,55.196027
86.889092,55.187745
86.895200,55.183957
86.961853,55.128028
87.057720,55.020875
87.105918,54.948430
87.167713,54.818609
87.193549,54.735523
87.197230,54.712524
87.216265,54.593563
87.216266,54.593556
87.216267,54.593551
87.217647,54.506545
87.199445,54.363924
87.176260,54.280061
87.170905,54.267826
87.141146,54.199826
87.118615,54.148343
87.118613,54.148340
87.118612,54.148337
87.072739,54.074406
87.072734,54.074400
87.064878,54.065038
87.026528,54.019334
86.990627,53.976549
86.705140,53.636317
86.686009,53.615546
86.686010,53.615546
86.677747,53.609948
86.592996,53.552529
86.592995,53.552528
86.592993,53.552527
86.483507,53.527369
86.483500,53.527369
86.372314,53.543461
86.274450,53.598630
85.940990,53.878435
85.929561,53.886711
85.923457,53.890499
85.923440,53.890511
85.856795,53.946433
85.851990,53.951803
85.841854,53.961620
85.557972,54.199826
85.546541,54.208105
85.540424,54.211901
85.540416,54.211907
85.473774,54.267826
85.468972,54.273193
85.458835,54.283011
85.212867,54.489404
85.125382,54.562813
85.112920,54.574291
85.104617,54.581939
85.104608,54.581949
85.041598,54.674951
85.041596,54.674955
85.016438,54.784441
85.016438,54.784448
85.023392,54.832500
85.032530,54.895633
85.057313,54.939596
85.087702,54.993503
85.354226,55.311134
85.362885,55.321453
85.455305,55.431594
85.455308,55.431596
85.455312,55.431601
85.520148,55.489608
85.520150,55.489609
85.520152,55.489611
85.586721,55.533900
85.639860,55.569254
85.642126,55.570538
85.642648,55.571108
85.642802,55.571211
85.642776,55.571249
85.683429,55.615679
85.692312,55.656667
85.692312,55.701437
85.692124,55.705739
85.689241,55.738694
85.688548,55.746618
85.699166,55.786248
85.700101,55.790464
85.707223,55.830857
85.707976,55.832160
85.717866,55.856036
85.718255,55.857491
85.718258,55.857496
85.741783,55.891093
85.744104,55.894736
85.764618,55.930267
85.796036,55.956630
85.799222,55.959549
87.343661,57.503987
87.371438,57.558504
87.372657,57.573991
87.372657,57.995871
87.353750,58.054062
87.333925,58.074413
87.269875,58.123560
87.173619,58.249003
87.173619,58.249004
87.113114,58.395076
87.113112,58.395084
87.092475,58.551842
87.092475,58.551843
87.113112,58.708601
87.113114,58.708609
87.173619,58.854681
87.173619,58.854682
87.269870,58.980119
87.269875,58.980125
87.395316,59.076379
87.395317,59.076379
87.395318,59.076380
87.541390,59.136885
87.541395,59.136887
87.658966,59.152365
87.698156,59.157525
87.698157,59.157525
87.698158,59.157525
87.729509,59.153397
87.854919,59.136887
88.000998,59.076379
88.126439,58.980125
88.222693,58.854684
88.283201,58.708605
88.303839,58.551843
88.303427,58.548717
88.303839,58.546496
88.303839,58.545354
88.304051,58.545354
88.314572,58.488559
88.358950,58.446438
88.419612,58.438446
88.420894,58.438693
88.480241,58.450498
88.480246,58.450498
88.480252,58.450500
88.575500,58.450500
88.633691,58.469407
88.669655,58.518907
88.674500,58.549500
88.674500,60.775500
88.655593,60.833691
88.606093,60.869655
88.575500,60.874500
88.504336,60.874500
88.446145,60.855593
88.425796,60.835769
88.338282,60.721718
88.338277,60.721714
88.338276,60.721713
88.212838,60.625462
88.066766,60.564957
88.066758,60.564955
87.910001,60.544318
87.909999,60.544318
87.753241,60.564955
87.753233,60.564957
87.607161,60.625462
87.607160,60.625462
87.481723,60.721713
87.481713,60.721723
87.385462,60.847160
87.385462,60.847161
87.324957,60.993233
87.324955,60.993241
87.304318,61.149999
87.304318,61.150000
87.324955,61.306758
87.324957,61.306766
87.385462,61.452838
87.385462,61.452839
87.465205,61.556762
87.481718,61.578282
87.607159,61.674536
87.607160,61.674536
87.607161,61.674537
87.753233,61.735042
87.753238,61.735044
87.870809,61.750522
87.909999,61.755682
87.910000,61.755682
87.910001,61.755682
87.941352,61.751554
88.066762,61.735044
88.162616,61.695339
88.223611,61.690539
88.275780,61.722508
88.299195,61.779036
88.299500,61.786804
88.299500,62.725500
88.280593,62.783691
88.231093,62.819655
88.200500,62.824500
87.505970,62.824500
87.447779,62.805593
87.427428,62.785767
87.378285,62.721722
87.378282,62.721718
87.378277,62.721714
87.378276,62.721713
87.252838,62.625462
87.106766,62.564957
87.106758,62.564955
86.950001,62.544318
86.949999,62.544318
86.793241,62.564955
86.793233,62.564957
86.647161,62.625462
86.647160,62.625462
86.521723,62.721713
86.521713,62.721723
86.425462,62.847160
86.425462,62.847161
86.364957,62.993233
86.364955,62.993241
86.344318,63.149999
86.344318,63.150000
86.364955,63.306758
86.364957,63.306766
86.425462,63.452838
86.425462,63.452839
86.495341,63.543907
86.521718,63.578282
86.521722,63.578285
86.521723,63.578286
86.551082,63.600813
86.647159,63.674536
86.793238,63.735044
86.910809,63.750522
86.949999,63.755682
86.950000,63.755682
86.950001,63.755682
86.981352,63.751554
87.106762,63.735044
87.252841,63.674536
87.378282,63.578282
87.427428,63.514232
87.477852,63.479577
87.505970,63.475500
88.200500,63.475500
88.258691,63.494407
88.294655,63.543907
88.299500,63.574500
88.299500,64.519746
88.299501,64.519758
88.311132,64.578227
88.311134,64.578233
88.355445,64.644548
88.355448,64.644552
88.421769,64.688867
88.466231,64.697711
88.480241,64.700498
88.480246,64.700498
88.480252,64.700500
88.480253,64.700500
89.519747,64.700500
89.519748,64.700500
89.578231,64.688867
89.644552,64.644552
89.644552,64.644551
89.652659,64.639135
89.653937,64.641048
89.696454,64.619379
89.756887,64.628943
89.800156,64.672203
89.810105,64.730080
89.794318,64.849999
89.794318,64.850000
89.814955,65.006758
89.814957,65.006766
89.875462,65.152838
89.875462,65.152839
89.875464,65.152841
89.971718,65.278282
90.097159,65.374536
90.243238,65.435044
90.360809,65.450522
90.399999,65.455682
90.400000,65.455682
90.400001,65.455682
90.431352,65.451554
90.556762,65.435044
90.702841,65.374536
90.714731,65.365411
90.772407,65.344987
90.831073,65.362363
90.835258,65.365404
90.847159,65.374536
90.993238,65.435044
91.150000,65.455682
91.150001,65.455681
91.154416,65.456263
91.209641,65.482604
91.238836,65.536374
91.230850,65.597036
91.203044,65.631957
90.080960,66.522629
90.067922,66.528784
90.063854,66.535047
90.062594,66.536763
90.060955,66.539392
89.887469,66.790921
89.679996,67.090680
89.678428,67.092822
89.471795,67.359588
89.260750,67.629321
89.259164,67.631245
89.035156,67.889602
88.811582,68.143261
88.809999,68.144975
88.570765,68.391907
88.333161,68.631638
88.079128,68.866388
87.828605,69.091193
87.561555,69.311919
87.298785,69.521315
87.019615,69.727205
86.745382,69.920643
86.455091,70.110915
86.170145,70.287908
85.869730,70.461892
85.574965,70.621896
85.265397,70.779023
84.961718,70.921546
84.644051,71.061290
84.332399,71.185876
84.007658,71.307803
83.688948,71.414053
83.358308,71.517752
83.033390,71.605330
82.698061,71.690474
82.367644,71.759098
82.030221,71.825181
82.027921,71.825576
81.693408,71.874857
81.354695,71.921947
81.352218,71.922228
81.011097,71.952243
80.674786,71.980182
80.672136,71.980331
80.307475,71.991002
80.001401,71.999461
79.998619,71.999459
79.316373,71.979969
79.313550,71.979808
78.765173,71.932708
78.629748,71.920859
78.627017,71.920544
78.158630,71.853200
77.945296,71.821950
77.942640,71.821487
77.512394,71.734309
77.267690,71.683780
77.265116,71.683177
76.858829,71.576384
76.599189,71.506812
76.596704,71.506076
76.208485,71.379937
75.942009,71.291636
75.939620,71.290775
75.566908,71.145667
75.298325,71.038965
75.296037,71.037989
75.082841,70.940627
74.937606,70.874301
74.670265,70.749637
74.668098,70.748561
74.323640,70.566810
74.282773,70.544775
74.059888,70.424596
74.057891,70.423456
73.789982,70.261901
73.727386,70.224154
73.469352,70.064996
73.467398,70.063726
73.151161,69.847489
72.900473,69.671955
72.898638,69.670606
72.597123,69.438103
72.355193,69.246809
72.353479,69.245390
72.067160,68.997294
71.834520,68.790262
71.563143,68.526527
71.341847,68.305231
71.193192,68.143261
71.086889,68.027436
70.877931,67.792631
70.639994,67.501648
70.444310,67.254164
70.223955,66.950871
70.042453,66.691659
69.840200,66.376949
69.673660,66.106945
69.490066,65.781844
69.399648,65.614154
69.339159,65.501969
69.306253,65.435042
69.174684,65.167444
69.040078,64.878779
68.895166,64.535877
68.777376,64.239380
68.754584,64.175501
68.652430,63.889197
68.551945,63.585948
68.543582,63.557468
68.447291,63.229530
68.364529,62.920658
68.280456,62.559117
68.215738,62.245686
68.209407,62.209105
68.152476,61.880130
68.144883,61.828286
68.106071,61.563324
68.063796,61.194888
68.046155,60.993241
68.035877,60.875776
68.014711,60.505621
68.005393,60.185346
68.005393,60.000000
73.894548,60.000000
73.901815,60.180342
73.902474,60.196682
73.902474,60.245717
73.906420,60.294603
73.914346,60.491285
73.914346,60.491291
73.914347,60.491296
73.938070,60.686674
73.942019,60.735580
73.942019,60.735581
73.949887,60.783992
73.973611,60.979379
74.012985,61.172247
74.020851,61.220647
74.032587,61.268263
74.034252,61.276419
74.071959,61.461122
74.071962,61.461134
74.126726,61.650203
74.138462,61.697816
74.153990,61.744329
74.177513,61.825539
74.208756,61.933401
74.208759,61.933410
74.208760,61.933412
74.278549,62.117432
74.294087,62.163970
74.294087,62.163971
74.313317,62.209105
74.383106,62.393124
74.383110,62.393133
74.432892,62.498047
74.467486,62.570953
74.486717,62.616088
74.509513,62.659523
74.593892,62.837347
74.692298,63.007792
74.715104,63.051244
74.741325,63.092710
74.811630,63.214480
74.839733,63.263155
74.839736,63.263159
74.839737,63.263161
74.951532,63.425124
74.977759,63.466598
74.977767,63.466610
75.007230,63.505817
75.119041,63.667803
75.151901,63.708049
75.243523,63.820266
75.272992,63.859482
75.292162,63.881120
75.305518,63.896197
75.430001,64.048661
75.566359,64.190625
75.598877,64.227330
75.634250,64.261307
75.770602,64.403264
75.917921,64.533778
75.953310,64.567769
75.991304,64.598789
76.074171,64.672203
76.138634,64.729313
76.138634,64.729312
76.295981,64.847551
76.298981,64.850000
76.333985,64.878580
76.333988,64.878582
76.374358,64.906447
76.403702,64.928498
76.531704,65.024686
76.698058,65.129882
76.738435,65.157752
76.780916,65.182278
76.947274,65.287477
77.121564,65.378951
77.164038,65.403474
77.208356,65.424503
77.228436,65.435042
77.382632,65.515970
77.382631,65.515970
77.382637,65.515972
77.382638,65.515973
77.563717,65.593123
77.608033,65.614152
77.653903,65.631548
77.834977,65.708697
77.834981,65.708698
77.834982,65.708699
77.892391,65.727864
78.021697,65.771033
78.067541,65.788420
78.080332,65.792125
78.114653,65.802067
78.301349,65.864395
78.301350,65.864395
78.301353,65.864395
78.301357,65.864397
78.492471,65.911502
78.519988,65.919473
78.539584,65.925150
78.561493,65.929622
78.587649,65.934962
78.778753,65.982065
78.778755,65.982065
78.778758,65.982066
78.778757,65.982066
78.817338,65.988335
78.973054,66.013641
79.021094,66.023450
79.069777,66.029360
79.189161,66.048762
79.264071,66.060937
79.315638,66.065099
79.460270,66.076775
79.508955,66.082687
79.557952,66.084660
79.754158,66.100500
79.754163,66.100500
79.950967,66.100500
80.000000,66.102476
80.049033,66.100500
80.245837,66.100500
80.245842,66.100500
80.442050,66.084660
80.491045,66.082687
80.539732,66.076774
80.683022,66.065207
80.735929,66.060937
80.819819,66.047302
80.930212,66.029362
80.978906,66.023450
81.026959,66.013639
81.221247,65.982065
81.412360,65.934959
81.441483,65.929014
81.460416,65.925150
81.475649,65.920737
81.507515,65.911505
81.698643,65.864397
81.698646,65.864395
81.698650,65.864395
81.698651,65.864395
81.763570,65.842721
81.885369,65.802058
81.895469,65.799134
81.932448,65.788424
81.932459,65.788420
81.978308,65.771031
82.107444,65.727919
82.165018,65.708699
82.165018,65.708698
82.165023,65.708697
82.346113,65.631541
82.381359,65.618174
82.391968,65.614152
82.407583,65.606742
82.436278,65.593125
82.617362,65.515973
82.617362,65.515972
82.617369,65.515970
82.617368,65.515970
82.791657,65.424496
82.835962,65.403474
82.878424,65.378957
83.052726,65.287477
83.219100,65.182267
83.261565,65.157752
83.301942,65.129882
83.378867,65.081237
83.468292,65.024688
83.468294,65.024686
83.468301,65.024682
83.513426,64.990772
83.625653,64.906438
83.663227,64.880503
83.666018,64.878578
83.701020,64.849999
83.704002,64.847562
83.861365,64.729313
83.861366,64.729312
83.861366,64.729313
83.902085,64.693238
84.008698,64.598786
84.035563,64.576854
84.046686,64.567773
84.046685,64.567773
84.046690,64.567769
84.082053,64.533800
84.229395,64.403267
84.229397,64.403265
84.229398,64.403265
84.322042,64.306810
84.365755,64.261300
84.394500,64.233692
84.401118,64.227336
84.411053,64.216120
84.433625,64.190640
84.569996,64.048664
84.569995,64.048664
84.569999,64.048661
84.694481,63.896197
84.727009,63.859481
84.727009,63.859482
84.737098,63.846053
84.756470,63.820273
84.880959,63.667803
84.992771,63.505813
85.022239,63.466601
85.048455,63.425141
85.160263,63.263161
85.160269,63.263153
85.189939,63.211760
85.258681,63.092696
85.275394,63.066268
85.284901,63.051236
85.307701,63.007792
85.358021,62.920635
85.406109,62.837345
85.407422,62.834579
85.431568,62.783691
85.490498,62.659498
85.513284,62.616086
85.513286,62.616082
85.513286,62.616083
85.532513,62.570953
85.616890,62.393133
85.686689,62.209087
85.705914,62.163968
85.721438,62.117461
85.768850,61.992450
85.791245,61.933401
85.808802,61.872780
85.846013,61.744313
85.861538,61.697815
85.873266,61.650227
85.928039,61.461130
85.928039,61.461126
85.928041,61.461122
85.928041,61.461123
85.943088,61.387413
85.967415,61.268250
85.979148,61.220652
85.987013,61.172253
86.026388,60.979383
86.050115,60.783969
86.057982,60.735572
86.061929,60.686674
86.085654,60.491285
86.093580,60.294602
86.097526,60.245722
86.098183,60.180358
86.105452,60.000000
86.098183,59.819643
86.097526,59.754277
86.097205,59.750313
86.093580,59.705395
86.085654,59.508715
86.061928,59.313317
86.057983,59.264430
86.053737,59.238313
86.050113,59.216009
86.026388,59.020617
85.987012,58.827740
85.979148,58.779350
85.967416,58.731753
85.930688,58.551845
85.928041,58.538877
85.928041,58.538878
85.928040,58.538877
85.922256,58.518907
85.873272,58.349795
85.861537,58.302184
85.861536,58.302178
85.861536,58.302177
85.846009,58.255670
85.791245,58.066599
85.721449,57.882566
85.705916,57.836037
85.705916,57.836036
85.701033,57.824577
85.686689,57.790911
85.642475,57.674329
85.616894,57.606875
85.616893,57.606875
85.616890,57.606867
85.532513,57.429046
85.513281,57.383907
85.513281,57.383908
85.490486,57.340476
85.406109,57.162655
85.403387,57.157941
85.326634,57.025001
85.307701,56.992207
85.284899,56.948762
85.258673,56.907289
85.160267,56.736845
85.048462,56.574867
85.030831,56.546986
85.022244,56.533406
85.022236,56.533396
84.992765,56.494176
84.880961,56.332200
84.756476,56.179733
84.727008,56.140518
84.706455,56.117319
84.694481,56.103802
84.569999,55.951339
84.433640,55.809374
84.401123,55.772670
84.401120,55.772667
84.365751,55.738694
84.365750,55.738693
84.229398,55.596736
84.226559,55.594221
84.082073,55.466217
84.079887,55.464117
84.046690,55.432231
84.008678,55.401194
83.918668,55.321453
83.861366,55.270687
83.861366,55.270688
83.861365,55.270687
83.750983,55.187740
83.704018,55.152448
83.674106,55.128026
83.666015,55.121420
83.625637,55.093549
83.526213,55.018837
83.468292,54.975312
83.468289,54.975310
83.468290,54.975310
83.301940,54.870117
83.261570,54.842251
83.219079,54.817718
83.089094,54.735521
83.052726,54.712523
83.052722,54.712520
83.052719,54.712519
83.052718,54.712518
82.878445,54.621053
82.862263,54.611710
82.835962,54.596526
82.835952,54.596521
82.835950,54.596520
82.791641,54.575495
82.617369,54.484030
82.617368,54.484030
82.617362,54.484027
82.436285,54.406877
82.417574,54.397999
82.391968,54.385848
82.391969,54.385849
82.391967,54.385848
82.346096,54.368451
82.308582,54.352468
82.165023,54.291303
82.165017,54.291301
82.165010,54.291298
82.165011,54.291298
81.978315,54.228971
81.932466,54.211582
81.932467,54.211582
81.885347,54.197933
81.698647,54.135604
81.507540,54.088500
81.460422,54.074852
81.460420,54.074851
81.460418,54.074851
81.412351,54.065038
81.360157,54.052173
81.221247,54.017935
81.221244,54.017934
81.221243,54.017934
81.026965,53.986361
80.978902,53.976549
80.930210,53.970637
80.735926,53.939063
80.539745,53.923226
80.491056,53.917314
80.491051,53.917313
80.491045,53.917313
80.469087,53.916428
80.442027,53.915337
80.328818,53.906198
80.245842,53.899500
80.049010,53.899500
80.000000,53.897525
79.950990,53.899500
79.754158,53.899500
79.680491,53.905447
79.557972,53.915337
79.531067,53.916421
79.508955,53.917313
79.508947,53.917313
79.508945,53.917314
79.508946,53.917314
79.460254,53.923226
79.264074,53.939063
79.069789,53.970637
79.021100,53.976549
79.021096,53.976549
79.021094,53.976550
79.005795,53.979673
78.973034,53.986361
78.778757,54.017934
78.778755,54.017934
78.778753,54.017935
78.755092,54.023767
78.587648,54.065038
78.558058,54.071078
78.539582,54.074851
78.539579,54.074851
78.539578,54.074852
78.492459,54.088500
78.301353,54.135604
78.114652,54.197933
78.067538,54.211581
78.021683,54.228971
77.834978,54.291302
77.834979,54.291302
77.653897,54.368454
77.608036,54.385847
77.608035,54.385847
77.563714,54.406877
77.461031,54.450626
77.382638,54.484027
77.382632,54.484030
77.382631,54.484030
77.208358,54.575494
77.164032,54.596529
77.164031,54.596530
77.121555,54.621053
77.029106,54.669574
76.947274,54.712523
76.947272,54.712524
76.780921,54.817718
76.738440,54.842245
76.738441,54.842244
76.698058,54.870117
76.531710,54.975310
76.531711,54.975310
76.374362,55.093549
76.333978,55.121425
76.333979,55.121425
76.295981,55.152448
76.138634,55.270687
75.991317,55.401199
75.953313,55.432228
75.917924,55.466219
75.873749,55.505355
75.773441,55.594221
75.770602,55.596736
75.634249,55.738694
75.598882,55.772664
75.566359,55.809374
75.502110,55.876264
75.430004,55.951336
75.429996,55.951346
75.429995,55.951346
75.305518,56.103802
75.272993,56.140516
75.243523,56.179733
75.162084,56.279477
75.119041,56.332197
75.021145,56.474023
75.007235,56.494176
74.977761,56.533399
74.977757,56.533406
74.951538,56.574867
74.839733,56.736845
74.820357,56.770406
74.741326,56.907289
74.715101,56.948762
74.692298,56.992207
74.593892,57.162653
74.509513,57.340476
74.495127,57.367886
74.486716,57.383914
74.486715,57.383917
74.467486,57.429046
74.383110,57.606865
74.313317,57.790894
74.313317,57.790895
74.294086,57.836032
74.286726,57.858076
74.278550,57.882566
74.208758,58.066593
74.208758,58.066592
74.153990,58.255670
74.138462,58.302184
74.126726,58.349796
74.077743,58.518907
74.071961,58.538870
74.071670,58.540294
74.032587,58.731736
74.020852,58.779348
74.020851,58.779355
74.020851,58.779354
74.012985,58.827752
73.973611,59.020621
73.949887,59.216006
73.942019,59.264421
73.938070,59.313325
73.914347,59.508705
73.914346,59.508715
73.914327,59.509194
73.906420,59.705395
73.902475,59.754277
73.902474,59.754284
73.902474,59.803317
73.894548,60.000000
68.005393,60.000000
68.005393,59.814653
68.005723,59.803317
68.014710,59.494396
68.035877,59.124226
68.063794,58.805129
68.106073,58.436657
68.152475,58.119876
68.215743,57.754286
68.280451,57.440904
68.364526,57.079354
68.447288,56.770477
68.551946,56.414046
68.579067,56.332201
68.652417,56.110839
68.777381,55.760604
68.895153,55.464152
69.040076,55.121225
69.174670,54.832583
69.339166,54.498015
69.490040,54.218201
69.673662,53.893049
69.840192,53.623063
70.025104,53.335336
70.042453,53.308340
70.223955,53.049128
70.224967,53.047735
70.444324,52.745815
70.639964,52.498388
70.877933,52.207365
71.086848,51.972608
71.341858,51.694756
71.563107,51.473507
71.834529,51.209728
72.067142,51.002721
72.353515,50.754577
72.355156,50.753218
72.597052,50.561951
72.898699,50.329346
72.900417,50.328083
73.151160,50.152511
73.467439,49.936245
73.469312,49.935027
73.727324,49.775882
74.057973,49.576494
74.059824,49.575437
74.323593,49.433214
74.668141,49.251415
74.670215,49.250385
74.937554,49.125722
75.296045,48.962005
75.298292,48.961047
75.566780,48.854382
75.939627,48.709219
75.941972,48.708375
76.208399,48.620090
76.596709,48.493920
76.599181,48.493188
76.858728,48.423642
77.265150,48.316812
77.267679,48.316220
77.512217,48.265726
77.942681,48.178503
77.945291,48.178048
78.158486,48.146820
78.627068,48.079448
78.629721,48.079142
78.764585,48.067341
79.313562,48.020190
79.316373,48.020030
79.696071,48.009182
79.998635,48.000538
80.001357,48.000537
Z" /> 
</g>
</g>
</g> 
</svg>
