<?xml version="1.0" standalone="no"?>
 <!DOCTYPE svg PUBLIC "-//W3C//DTD SVG 1.1//EN" 
 "http://www.w3.org/Graphics/SVG/1.1/DTD/svg11.dtd"> 
<svg
  xmlns:svg="http://www.w3.org/2000/svg"
  xmlns="http://www.w3.org/2000/svg"
  xmlns:xlink="http://www.w3.org/1999/xlink"
  version="1.1"
  width="2.6100000000000003cm" height="2.6100000000000003cm" viewBox="66.95 46.95 26.1 26.1">
<title>SVG Image created as pedalboard-led-ring-B_SilkS.svg date 2024/01/08 21:18:59 </title>
  <desc>Image generated by PCBNEW </desc>
<g style="fill:#000000; fill-opacity:1.000000;stroke:#000000; stroke-opacity:1.000000;
stroke-linecap:round; stroke-linejoin:round;"
 transform="translate(0 0) scale(1 1)">
</g>
<g style="fill:#000000; fill-opacity:0.0; 
stroke:#000000; stroke-width:0.000000; stroke-opacity:1; 
stroke-linecap:round; stroke-linejoin:round;">
</g>
<g style="fill:#000000; fill-opacity:0.0; 
stroke:#000000; stroke-width:0.100000; stroke-opacity:1; 
stroke-linecap:round; stroke-linejoin:round;">
<circle cx="80.000000" cy="60.000000" r="7.050000" /> 
<g transform="rotate(-90.000000 88.270000 55.200000)">
<text x="88.270000" y="55.200000"
transform="scale(-1 1) translate(-176.540000 0)"
textLength="0.938095" font-size="0.666666" lengthAdjust="spacingAndGlyphs"
text-anchor="start" opacity="0">DI</text>
</g>
<g class="stroked-text"><desc>DI</desc>
<path d="M88.203609 55.384836
L87.703609 55.384836
" />
<path d="M87.703609 55.384836
L87.703609 55.503884
" />
<path d="M87.703609 55.503884
L87.727419 55.575312
" />
<path d="M87.727419 55.575312
L87.775038 55.622931
" />
<path d="M87.775038 55.622931
L87.822657 55.646741
" />
<path d="M87.822657 55.646741
L87.917895 55.670550
" />
<path d="M87.917895 55.670550
L87.989323 55.670550
" />
<path d="M87.989323 55.670550
L88.084561 55.646741
" />
<path d="M88.084561 55.646741
L88.132180 55.622931
" />
<path d="M88.132180 55.622931
L88.179800 55.575312
" />
<path d="M88.179800 55.575312
L88.203609 55.503884
" />
<path d="M88.203609 55.503884
L88.203609 55.384836
" />
<path d="M88.203609 55.884836
L87.703609 55.884836
" />
</g><g transform="rotate(-90.000000 88.200000 62.500000)">
<text x="88.200000" y="62.500000"
transform="scale(-1 1) translate(-176.400000 0)"
textLength="1.351429" font-size="0.800000" lengthAdjust="spacingAndGlyphs"
text-anchor="start" opacity="0">D0</text>
</g>
<g class="stroked-text"><desc>D0</desc>
<path d="M88.121371 62.708646
L87.521371 62.708646
" />
<path d="M87.521371 62.708646
L87.521371 62.851503
" />
<path d="M87.521371 62.851503
L87.549942 62.937217
" />
<path d="M87.549942 62.937217
L87.607085 62.994360
" />
<path d="M87.607085 62.994360
L87.664228 63.022931
" />
<path d="M87.664228 63.022931
L87.778514 63.051503
" />
<path d="M87.778514 63.051503
L87.864228 63.051503
" />
<path d="M87.864228 63.051503
L87.978514 63.022931
" />
<path d="M87.978514 63.022931
L88.035657 62.994360
" />
<path d="M88.035657 62.994360
L88.092800 62.937217
" />
<path d="M88.092800 62.937217
L88.121371 62.851503
" />
<path d="M88.121371 62.851503
L88.121371 62.708646
" />
<path d="M87.521371 63.422931
L87.521371 63.480074
" />
<path d="M87.521371 63.480074
L87.549942 63.537217
" />
<path d="M87.549942 63.537217
L87.578514 63.565789
" />
<path d="M87.578514 63.565789
L87.635657 63.594360
" />
<path d="M87.635657 63.594360
L87.749942 63.622931
" />
<path d="M87.749942 63.622931
L87.892800 63.622931
" />
<path d="M87.892800 63.622931
L88.007085 63.594360
" />
<path d="M88.007085 63.594360
L88.064228 63.565789
" />
<path d="M88.064228 63.565789
L88.092800 63.537217
" />
<path d="M88.092800 63.537217
L88.121371 63.480074
" />
<path d="M88.121371 63.480074
L88.121371 63.422931
" />
<path d="M88.121371 63.422931
L88.092800 63.365789
" />
<path d="M88.092800 63.365789
L88.064228 63.337217
" />
<path d="M88.064228 63.337217
L88.007085 63.308646
" />
<path d="M88.007085 63.308646
L87.892800 63.280074
" />
<path d="M87.892800 63.280074
L87.749942 63.280074
" />
<path d="M87.749942 63.280074
L87.635657 63.308646
" />
<path d="M87.635657 63.308646
L87.578514 63.337217
" />
<path d="M87.578514 63.337217
L87.549942 63.365789
" />
<path d="M87.549942 63.365789
L87.521371 63.422931
" />
</g><g transform="rotate(-90.000000 90.400000 62.350000)">
<text x="90.400000" y="62.350000"
transform="scale(-1 1) translate(-180.800000 0)"
textLength="2.008571" font-size="0.800000" lengthAdjust="spacingAndGlyphs"
text-anchor="start" opacity="0">GND</text>
</g>
<g class="stroked-text"><desc>GND</desc>
<path d="M89.749942 62.872931
L89.721371 62.815789
" />
<path d="M89.721371 62.815789
L89.721371 62.730074
" />
<path d="M89.721371 62.730074
L89.749942 62.644360
" />
<path d="M89.749942 62.644360
L89.807085 62.587217
" />
<path d="M89.807085 62.587217
L89.864228 62.558646
" />
<path d="M89.864228 62.558646
L89.978514 62.530074
" />
<path d="M89.978514 62.530074
L90.064228 62.530074
" />
<path d="M90.064228 62.530074
L90.178514 62.558646
" />
<path d="M90.178514 62.558646
L90.235657 62.587217
" />
<path d="M90.235657 62.587217
L90.292800 62.644360
" />
<path d="M90.292800 62.644360
L90.321371 62.730074
" />
<path d="M90.321371 62.730074
L90.321371 62.787217
" />
<path d="M90.321371 62.787217
L90.292800 62.872931
" />
<path d="M90.292800 62.872931
L90.264228 62.901503
" />
<path d="M90.264228 62.901503
L90.064228 62.901503
" />
<path d="M90.064228 62.901503
L90.064228 62.787217
" />
<path d="M90.321371 63.158646
L89.721371 63.158646
" />
<path d="M89.721371 63.158646
L90.321371 63.501503
" />
<path d="M90.321371 63.501503
L89.721371 63.501503
" />
<path d="M90.321371 63.787217
L89.721371 63.787217
" />
<path d="M89.721371 63.787217
L89.721371 63.930074
" />
<path d="M89.721371 63.930074
L89.749942 64.015788
" />
<path d="M89.749942 64.015788
L89.807085 64.072931
" />
<path d="M89.807085 64.072931
L89.864228 64.101502
" />
<path d="M89.864228 64.101502
L89.978514 64.130074
" />
<path d="M89.978514 64.130074
L90.064228 64.130074
" />
<path d="M90.064228 64.130074
L90.178514 64.101502
" />
<path d="M90.178514 64.101502
L90.235657 64.072931
" />
<path d="M90.235657 64.072931
L90.292800 64.015788
" />
<path d="M90.292800 64.015788
L90.321371 63.930074
" />
<path d="M90.321371 63.930074
L90.321371 63.787217
" />
</g><g transform="rotate(-90.000000 72.340000 59.920000)">
<text x="72.340000" y="59.920000"
transform="scale(-1 1) translate(-144.680000 0)"
textLength="16.926660" font-size="0.933333" lengthAdjust="spacingAndGlyphs"
text-anchor="middle" opacity="0">https://github.com/pedalboard</text>
</g>
<g class="stroked-text"><desc>https://github.com/pedalboard</desc>
<path d="M72.249133 51.703336
L71.549133 51.703336
" />
<path d="M72.249133 52.003336
L71.882466 52.003336
" />
<path d="M71.882466 52.003336
L71.815800 51.970003
" />
<path d="M71.815800 51.970003
L71.782466 51.903336
" />
<path d="M71.782466 51.903336
L71.782466 51.803336
" />
<path d="M71.782466 51.803336
L71.815800 51.736670
" />
<path d="M71.815800 51.736670
L71.849133 51.703336
" />
<path d="M71.782466 52.236669
L71.782466 52.503336
" />
<path d="M71.549133 52.336669
L72.149133 52.336669
" />
<path d="M72.149133 52.336669
L72.215800 52.370003
" />
<path d="M72.215800 52.370003
L72.249133 52.436669
" />
<path d="M72.249133 52.436669
L72.249133 52.503336
" />
<path d="M71.782466 52.636669
L71.782466 52.903336
" />
<path d="M71.549133 52.736669
L72.149133 52.736669
" />
<path d="M72.149133 52.736669
L72.215800 52.770003
" />
<path d="M72.215800 52.770003
L72.249133 52.836669
" />
<path d="M72.249133 52.836669
L72.249133 52.903336
" />
<path d="M71.782466 53.136669
L72.482466 53.136669
" />
<path d="M71.815800 53.136669
L71.782466 53.203336
" />
<path d="M71.782466 53.203336
L71.782466 53.336669
" />
<path d="M71.782466 53.336669
L71.815800 53.403336
" />
<path d="M71.815800 53.403336
L71.849133 53.436669
" />
<path d="M71.849133 53.436669
L71.915800 53.470003
" />
<path d="M71.915800 53.470003
L72.115800 53.470003
" />
<path d="M72.115800 53.470003
L72.182466 53.436669
" />
<path d="M72.182466 53.436669
L72.215800 53.403336
" />
<path d="M72.215800 53.403336
L72.249133 53.336669
" />
<path d="M72.249133 53.336669
L72.249133 53.203336
" />
<path d="M72.249133 53.203336
L72.215800 53.136669
" />
<path d="M72.215800 53.736669
L72.249133 53.803336
" />
<path d="M72.249133 53.803336
L72.249133 53.936669
" />
<path d="M72.249133 53.936669
L72.215800 54.003336
" />
<path d="M72.215800 54.003336
L72.149133 54.036669
" />
<path d="M72.149133 54.036669
L72.115800 54.036669
" />
<path d="M72.115800 54.036669
L72.049133 54.003336
" />
<path d="M72.049133 54.003336
L72.015800 53.936669
" />
<path d="M72.015800 53.936669
L72.015800 53.836669
" />
<path d="M72.015800 53.836669
L71.982466 53.770002
" />
<path d="M71.982466 53.770002
L71.915800 53.736669
" />
<path d="M71.915800 53.736669
L71.882466 53.736669
" />
<path d="M71.882466 53.736669
L71.815800 53.770002
" />
<path d="M71.815800 53.770002
L71.782466 53.836669
" />
<path d="M71.782466 53.836669
L71.782466 53.936669
" />
<path d="M71.782466 53.936669
L71.815800 54.003336
" />
<path d="M72.182466 54.336669
L72.215800 54.370003
" />
<path d="M72.215800 54.370003
L72.249133 54.336669
" />
<path d="M72.249133 54.336669
L72.215800 54.303336
" />
<path d="M72.215800 54.303336
L72.182466 54.336669
" />
<path d="M72.182466 54.336669
L72.249133 54.336669
" />
<path d="M71.815800 54.336669
L71.849133 54.370003
" />
<path d="M71.849133 54.370003
L71.882466 54.336669
" />
<path d="M71.882466 54.336669
L71.849133 54.303336
" />
<path d="M71.849133 54.303336
L71.815800 54.336669
" />
<path d="M71.815800 54.336669
L71.882466 54.336669
" />
<path d="M71.515800 55.170002
L72.415800 54.570002
" />
<path d="M71.515800 55.903335
L72.415800 55.303335
" />
<path d="M71.782466 56.436668
L72.349133 56.436668
" />
<path d="M72.349133 56.436668
L72.415800 56.403335
" />
<path d="M72.415800 56.403335
L72.449133 56.370002
" />
<path d="M72.449133 56.370002
L72.482466 56.303335
" />
<path d="M72.482466 56.303335
L72.482466 56.203335
" />
<path d="M72.482466 56.203335
L72.449133 56.136668
" />
<path d="M72.215800 56.436668
L72.249133 56.370002
" />
<path d="M72.249133 56.370002
L72.249133 56.236668
" />
<path d="M72.249133 56.236668
L72.215800 56.170002
" />
<path d="M72.215800 56.170002
L72.182466 56.136668
" />
<path d="M72.182466 56.136668
L72.115800 56.103335
" />
<path d="M72.115800 56.103335
L71.915800 56.103335
" />
<path d="M71.915800 56.103335
L71.849133 56.136668
" />
<path d="M71.849133 56.136668
L71.815800 56.170002
" />
<path d="M71.815800 56.170002
L71.782466 56.236668
" />
<path d="M71.782466 56.236668
L71.782466 56.370002
" />
<path d="M71.782466 56.370002
L71.815800 56.436668
" />
<path d="M72.249133 56.770001
L71.782466 56.770001
" />
<path d="M71.549133 56.770001
L71.582466 56.736668
" />
<path d="M71.582466 56.736668
L71.615800 56.770001
" />
<path d="M71.615800 56.770001
L71.582466 56.803335
" />
<path d="M71.582466 56.803335
L71.549133 56.770001
" />
<path d="M71.549133 56.770001
L71.615800 56.770001
" />
<path d="M71.782466 57.003334
L71.782466 57.270001
" />
<path d="M71.549133 57.103334
L72.149133 57.103334
" />
<path d="M72.149133 57.103334
L72.215800 57.136668
" />
<path d="M72.215800 57.136668
L72.249133 57.203334
" />
<path d="M72.249133 57.203334
L72.249133 57.270001
" />
<path d="M72.249133 57.503334
L71.549133 57.503334
" />
<path d="M72.249133 57.803334
L71.882466 57.803334
" />
<path d="M71.882466 57.803334
L71.815800 57.770001
" />
<path d="M71.815800 57.770001
L71.782466 57.703334
" />
<path d="M71.782466 57.703334
L71.782466 57.603334
" />
<path d="M71.782466 57.603334
L71.815800 57.536668
" />
<path d="M71.815800 57.536668
L71.849133 57.503334
" />
<path d="M71.782466 58.436667
L72.249133 58.436667
" />
<path d="M71.782466 58.136667
L72.149133 58.136667
" />
<path d="M72.149133 58.136667
L72.215800 58.170001
" />
<path d="M72.215800 58.170001
L72.249133 58.236667
" />
<path d="M72.249133 58.236667
L72.249133 58.336667
" />
<path d="M72.249133 58.336667
L72.215800 58.403334
" />
<path d="M72.215800 58.403334
L72.182466 58.436667
" />
<path d="M72.249133 58.770000
L71.549133 58.770000
" />
<path d="M71.815800 58.770000
L71.782466 58.836667
" />
<path d="M71.782466 58.836667
L71.782466 58.970000
" />
<path d="M71.782466 58.970000
L71.815800 59.036667
" />
<path d="M71.815800 59.036667
L71.849133 59.070000
" />
<path d="M71.849133 59.070000
L71.915800 59.103334
" />
<path d="M71.915800 59.103334
L72.115800 59.103334
" />
<path d="M72.115800 59.103334
L72.182466 59.070000
" />
<path d="M72.182466 59.070000
L72.215800 59.036667
" />
<path d="M72.215800 59.036667
L72.249133 58.970000
" />
<path d="M72.249133 58.970000
L72.249133 58.836667
" />
<path d="M72.249133 58.836667
L72.215800 58.770000
" />
<path d="M72.182466 59.403333
L72.215800 59.436667
" />
<path d="M72.215800 59.436667
L72.249133 59.403333
" />
<path d="M72.249133 59.403333
L72.215800 59.370000
" />
<path d="M72.215800 59.370000
L72.182466 59.403333
" />
<path d="M72.182466 59.403333
L72.249133 59.403333
" />
<path d="M72.215800 60.036666
L72.249133 59.970000
" />
<path d="M72.249133 59.970000
L72.249133 59.836666
" />
<path d="M72.249133 59.836666
L72.215800 59.770000
" />
<path d="M72.215800 59.770000
L72.182466 59.736666
" />
<path d="M72.182466 59.736666
L72.115800 59.703333
" />
<path d="M72.115800 59.703333
L71.915800 59.703333
" />
<path d="M71.915800 59.703333
L71.849133 59.736666
" />
<path d="M71.849133 59.736666
L71.815800 59.770000
" />
<path d="M71.815800 59.770000
L71.782466 59.836666
" />
<path d="M71.782466 59.836666
L71.782466 59.970000
" />
<path d="M71.782466 59.970000
L71.815800 60.036666
" />
<path d="M72.249133 60.436666
L72.215800 60.370000
" />
<path d="M72.215800 60.370000
L72.182466 60.336666
" />
<path d="M72.182466 60.336666
L72.115800 60.303333
" />
<path d="M72.115800 60.303333
L71.915800 60.303333
" />
<path d="M71.915800 60.303333
L71.849133 60.336666
" />
<path d="M71.849133 60.336666
L71.815800 60.370000
" />
<path d="M71.815800 60.370000
L71.782466 60.436666
" />
<path d="M71.782466 60.436666
L71.782466 60.536666
" />
<path d="M71.782466 60.536666
L71.815800 60.603333
" />
<path d="M71.815800 60.603333
L71.849133 60.636666
" />
<path d="M71.849133 60.636666
L71.915800 60.670000
" />
<path d="M71.915800 60.670000
L72.115800 60.670000
" />
<path d="M72.115800 60.670000
L72.182466 60.636666
" />
<path d="M72.182466 60.636666
L72.215800 60.603333
" />
<path d="M72.215800 60.603333
L72.249133 60.536666
" />
<path d="M72.249133 60.536666
L72.249133 60.436666
" />
<path d="M72.249133 60.969999
L71.782466 60.969999
" />
<path d="M71.849133 60.969999
L71.815800 61.003333
" />
<path d="M71.815800 61.003333
L71.782466 61.069999
" />
<path d="M71.782466 61.069999
L71.782466 61.169999
" />
<path d="M71.782466 61.169999
L71.815800 61.236666
" />
<path d="M71.815800 61.236666
L71.882466 61.269999
" />
<path d="M71.882466 61.269999
L72.249133 61.269999
" />
<path d="M71.882466 61.269999
L71.815800 61.303333
" />
<path d="M71.815800 61.303333
L71.782466 61.369999
" />
<path d="M71.782466 61.369999
L71.782466 61.469999
" />
<path d="M71.782466 61.469999
L71.815800 61.536666
" />
<path d="M71.815800 61.536666
L71.882466 61.569999
" />
<path d="M71.882466 61.569999
L72.249133 61.569999
" />
<path d="M71.515800 62.403332
L72.415800 61.803332
" />
<path d="M71.782466 62.636665
L72.482466 62.636665
" />
<path d="M71.815800 62.636665
L71.782466 62.703332
" />
<path d="M71.782466 62.703332
L71.782466 62.836665
" />
<path d="M71.782466 62.836665
L71.815800 62.903332
" />
<path d="M71.815800 62.903332
L71.849133 62.936665
" />
<path d="M71.849133 62.936665
L71.915800 62.969999
" />
<path d="M71.915800 62.969999
L72.115800 62.969999
" />
<path d="M72.115800 62.969999
L72.182466 62.936665
" />
<path d="M72.182466 62.936665
L72.215800 62.903332
" />
<path d="M72.215800 62.903332
L72.249133 62.836665
" />
<path d="M72.249133 62.836665
L72.249133 62.703332
" />
<path d="M72.249133 62.703332
L72.215800 62.636665
" />
<path d="M72.215800 63.536665
L72.249133 63.469998
" />
<path d="M72.249133 63.469998
L72.249133 63.336665
" />
<path d="M72.249133 63.336665
L72.215800 63.269998
" />
<path d="M72.215800 63.269998
L72.149133 63.236665
" />
<path d="M72.149133 63.236665
L71.882466 63.236665
" />
<path d="M71.882466 63.236665
L71.815800 63.269998
" />
<path d="M71.815800 63.269998
L71.782466 63.336665
" />
<path d="M71.782466 63.336665
L71.782466 63.469998
" />
<path d="M71.782466 63.469998
L71.815800 63.536665
" />
<path d="M71.815800 63.536665
L71.882466 63.569998
" />
<path d="M71.882466 63.569998
L71.949133 63.569998
" />
<path d="M71.949133 63.569998
L72.015800 63.236665
" />
<path d="M72.249133 64.169998
L71.549133 64.169998
" />
<path d="M72.215800 64.169998
L72.249133 64.103332
" />
<path d="M72.249133 64.103332
L72.249133 63.969998
" />
<path d="M72.249133 63.969998
L72.215800 63.903332
" />
<path d="M72.215800 63.903332
L72.182466 63.869998
" />
<path d="M72.182466 63.869998
L72.115800 63.836665
" />
<path d="M72.115800 63.836665
L71.915800 63.836665
" />
<path d="M71.915800 63.836665
L71.849133 63.869998
" />
<path d="M71.849133 63.869998
L71.815800 63.903332
" />
<path d="M71.815800 63.903332
L71.782466 63.969998
" />
<path d="M71.782466 63.969998
L71.782466 64.103332
" />
<path d="M71.782466 64.103332
L71.815800 64.169998
" />
<path d="M72.249133 64.803331
L71.882466 64.803331
" />
<path d="M71.882466 64.803331
L71.815800 64.769998
" />
<path d="M71.815800 64.769998
L71.782466 64.703331
" />
<path d="M71.782466 64.703331
L71.782466 64.569998
" />
<path d="M71.782466 64.569998
L71.815800 64.503331
" />
<path d="M72.215800 64.803331
L72.249133 64.736665
" />
<path d="M72.249133 64.736665
L72.249133 64.569998
" />
<path d="M72.249133 64.569998
L72.215800 64.503331
" />
<path d="M72.215800 64.503331
L72.149133 64.469998
" />
<path d="M72.149133 64.469998
L72.082466 64.469998
" />
<path d="M72.082466 64.469998
L72.015800 64.503331
" />
<path d="M72.015800 64.503331
L71.982466 64.569998
" />
<path d="M71.982466 64.569998
L71.982466 64.736665
" />
<path d="M71.982466 64.736665
L71.949133 64.803331
" />
<path d="M72.249133 65.236664
L72.215800 65.169998
" />
<path d="M72.215800 65.169998
L72.149133 65.136664
" />
<path d="M72.149133 65.136664
L71.549133 65.136664
" />
<path d="M72.249133 65.503331
L71.549133 65.503331
" />
<path d="M71.815800 65.503331
L71.782466 65.569998
" />
<path d="M71.782466 65.569998
L71.782466 65.703331
" />
<path d="M71.782466 65.703331
L71.815800 65.769998
" />
<path d="M71.815800 65.769998
L71.849133 65.803331
" />
<path d="M71.849133 65.803331
L71.915800 65.836665
" />
<path d="M71.915800 65.836665
L72.115800 65.836665
" />
<path d="M72.115800 65.836665
L72.182466 65.803331
" />
<path d="M72.182466 65.803331
L72.215800 65.769998
" />
<path d="M72.215800 65.769998
L72.249133 65.703331
" />
<path d="M72.249133 65.703331
L72.249133 65.569998
" />
<path d="M72.249133 65.569998
L72.215800 65.503331
" />
<path d="M72.249133 66.236664
L72.215800 66.169998
" />
<path d="M72.215800 66.169998
L72.182466 66.136664
" />
<path d="M72.182466 66.136664
L72.115800 66.103331
" />
<path d="M72.115800 66.103331
L71.915800 66.103331
" />
<path d="M71.915800 66.103331
L71.849133 66.136664
" />
<path d="M71.849133 66.136664
L71.815800 66.169998
" />
<path d="M71.815800 66.169998
L71.782466 66.236664
" />
<path d="M71.782466 66.236664
L71.782466 66.336664
" />
<path d="M71.782466 66.336664
L71.815800 66.403331
" />
<path d="M71.815800 66.403331
L71.849133 66.436664
" />
<path d="M71.849133 66.436664
L71.915800 66.469998
" />
<path d="M71.915800 66.469998
L72.115800 66.469998
" />
<path d="M72.115800 66.469998
L72.182466 66.436664
" />
<path d="M72.182466 66.436664
L72.215800 66.403331
" />
<path d="M72.215800 66.403331
L72.249133 66.336664
" />
<path d="M72.249133 66.336664
L72.249133 66.236664
" />
<path d="M72.249133 67.069997
L71.882466 67.069997
" />
<path d="M71.882466 67.069997
L71.815800 67.036664
" />
<path d="M71.815800 67.036664
L71.782466 66.969997
" />
<path d="M71.782466 66.969997
L71.782466 66.836664
" />
<path d="M71.782466 66.836664
L71.815800 66.769997
" />
<path d="M72.215800 67.069997
L72.249133 67.003331
" />
<path d="M72.249133 67.003331
L72.249133 66.836664
" />
<path d="M72.249133 66.836664
L72.215800 66.769997
" />
<path d="M72.215800 66.769997
L72.149133 66.736664
" />
<path d="M72.149133 66.736664
L72.082466 66.736664
" />
<path d="M72.082466 66.736664
L72.015800 66.769997
" />
<path d="M72.015800 66.769997
L71.982466 66.836664
" />
<path d="M71.982466 66.836664
L71.982466 67.003331
" />
<path d="M71.982466 67.003331
L71.949133 67.069997
" />
<path d="M72.249133 67.403330
L71.782466 67.403330
" />
<path d="M71.915800 67.403330
L71.849133 67.436664
" />
<path d="M71.849133 67.436664
L71.815800 67.469997
" />
<path d="M71.815800 67.469997
L71.782466 67.536664
" />
<path d="M71.782466 67.536664
L71.782466 67.603330
" />
<path d="M72.249133 68.136663
L71.549133 68.136663
" />
<path d="M72.215800 68.136663
L72.249133 68.069997
" />
<path d="M72.249133 68.069997
L72.249133 67.936663
" />
<path d="M72.249133 67.936663
L72.215800 67.869997
" />
<path d="M72.215800 67.869997
L72.182466 67.836663
" />
<path d="M72.182466 67.836663
L72.115800 67.803330
" />
<path d="M72.115800 67.803330
L71.915800 67.803330
" />
<path d="M71.915800 67.803330
L71.849133 67.836663
" />
<path d="M71.849133 67.836663
L71.815800 67.869997
" />
<path d="M71.815800 67.869997
L71.782466 67.936663
" />
<path d="M71.782466 67.936663
L71.782466 68.069997
" />
<path d="M71.782466 68.069997
L71.815800 68.136663
" />
</g><g transform="rotate(-90.000000 90.390000 54.340000)">
<text x="90.390000" y="54.340000"
transform="scale(-1 1) translate(-180.780000 0)"
textLength="1.894286" font-size="0.800000" lengthAdjust="spacingAndGlyphs"
text-anchor="start" opacity="0">VCC</text>
</g>
<g class="stroked-text"><desc>VCC</desc>
<path d="M89.711371 54.462931
L90.311371 54.662931
" />
<path d="M90.311371 54.662931
L89.711371 54.862931
" />
<path d="M90.254228 55.405789
L90.282800 55.377217
" />
<path d="M90.282800 55.377217
L90.311371 55.291503
" />
<path d="M90.311371 55.291503
L90.311371 55.234360
" />
<path d="M90.311371 55.234360
L90.282800 55.148646
" />
<path d="M90.282800 55.148646
L90.225657 55.091503
" />
<path d="M90.225657 55.091503
L90.168514 55.062932
" />
<path d="M90.168514 55.062932
L90.054228 55.034360
" />
<path d="M90.054228 55.034360
L89.968514 55.034360
" />
<path d="M89.968514 55.034360
L89.854228 55.062932
" />
<path d="M89.854228 55.062932
L89.797085 55.091503
" />
<path d="M89.797085 55.091503
L89.739942 55.148646
" />
<path d="M89.739942 55.148646
L89.711371 55.234360
" />
<path d="M89.711371 55.234360
L89.711371 55.291503
" />
<path d="M89.711371 55.291503
L89.739942 55.377217
" />
<path d="M89.739942 55.377217
L89.768514 55.405789
" />
<path d="M90.254228 56.005789
L90.282800 55.977217
" />
<path d="M90.282800 55.977217
L90.311371 55.891503
" />
<path d="M90.311371 55.891503
L90.311371 55.834360
" />
<path d="M90.311371 55.834360
L90.282800 55.748646
" />
<path d="M90.282800 55.748646
L90.225657 55.691503
" />
<path d="M90.225657 55.691503
L90.168514 55.662932
" />
<path d="M90.168514 55.662932
L90.054228 55.634360
" />
<path d="M90.054228 55.634360
L89.968514 55.634360
" />
<path d="M89.968514 55.634360
L89.854228 55.662932
" />
<path d="M89.854228 55.662932
L89.797085 55.691503
" />
<path d="M89.797085 55.691503
L89.739942 55.748646
" />
<path d="M89.739942 55.748646
L89.711371 55.834360
" />
<path d="M89.711371 55.834360
L89.711371 55.891503
" />
<path d="M89.711371 55.891503
L89.739942 55.977217
" />
<path d="M89.739942 55.977217
L89.768514 56.005789
" />
</g><text x="79.950000" y="69.835000"
transform="scale(-1 1) translate(-159.900000 0)"
textLength="7.080949" font-size="0.666666" lengthAdjust="spacingAndGlyphs"
text-anchor="middle" opacity="0">PCB: v1.1.0-RC1 </text>
<g class="stroked-text"><desc>PCB: v1.1.0-RC1 </desc>
<path d="M83.271426 69.768609
L83.271426 69.268609
" />
<path d="M83.271426 69.268609
L83.080950 69.268609
" />
<path d="M83.080950 69.268609
L83.033331 69.292419
" />
<path d="M83.033331 69.292419
L83.009521 69.316228
" />
<path d="M83.009521 69.316228
L82.985712 69.363847
" />
<path d="M82.985712 69.363847
L82.985712 69.435276
" />
<path d="M82.985712 69.435276
L83.009521 69.482895
" />
<path d="M83.009521 69.482895
L83.033331 69.506704
" />
<path d="M83.033331 69.506704
L83.080950 69.530514
" />
<path d="M83.080950 69.530514
L83.271426 69.530514
" />
<path d="M82.485712 69.720990
L82.509521 69.744800
" />
<path d="M82.509521 69.744800
L82.580950 69.768609
" />
<path d="M82.580950 69.768609
L82.628569 69.768609
" />
<path d="M82.628569 69.768609
L82.699997 69.744800
" />
<path d="M82.699997 69.744800
L82.747616 69.697180
" />
<path d="M82.747616 69.697180
L82.771426 69.649561
" />
<path d="M82.771426 69.649561
L82.795235 69.554323
" />
<path d="M82.795235 69.554323
L82.795235 69.482895
" />
<path d="M82.795235 69.482895
L82.771426 69.387657
" />
<path d="M82.771426 69.387657
L82.747616 69.340038
" />
<path d="M82.747616 69.340038
L82.699997 69.292419
" />
<path d="M82.699997 69.292419
L82.628569 69.268609
" />
<path d="M82.628569 69.268609
L82.580950 69.268609
" />
<path d="M82.580950 69.268609
L82.509521 69.292419
" />
<path d="M82.509521 69.292419
L82.485712 69.316228
" />
<path d="M82.104759 69.506704
L82.033331 69.530514
" />
<path d="M82.033331 69.530514
L82.009521 69.554323
" />
<path d="M82.009521 69.554323
L81.985712 69.601942
" />
<path d="M81.985712 69.601942
L81.985712 69.673371
" />
<path d="M81.985712 69.673371
L82.009521 69.720990
" />
<path d="M82.009521 69.720990
L82.033331 69.744800
" />
<path d="M82.033331 69.744800
L82.080950 69.768609
" />
<path d="M82.080950 69.768609
L82.271426 69.768609
" />
<path d="M82.271426 69.768609
L82.271426 69.268609
" />
<path d="M82.271426 69.268609
L82.104759 69.268609
" />
<path d="M82.104759 69.268609
L82.057140 69.292419
" />
<path d="M82.057140 69.292419
L82.033331 69.316228
" />
<path d="M82.033331 69.316228
L82.009521 69.363847
" />
<path d="M82.009521 69.363847
L82.009521 69.411466
" />
<path d="M82.009521 69.411466
L82.033331 69.459085
" />
<path d="M82.033331 69.459085
L82.057140 69.482895
" />
<path d="M82.057140 69.482895
L82.104759 69.506704
" />
<path d="M82.104759 69.506704
L82.271426 69.506704
" />
<path d="M81.771426 69.720990
L81.747616 69.744800
" />
<path d="M81.747616 69.744800
L81.771426 69.768609
" />
<path d="M81.771426 69.768609
L81.795235 69.744800
" />
<path d="M81.795235 69.744800
L81.771426 69.720990
" />
<path d="M81.771426 69.720990
L81.771426 69.768609
" />
<path d="M81.771426 69.459085
L81.747616 69.482895
" />
<path d="M81.747616 69.482895
L81.771426 69.506704
" />
<path d="M81.771426 69.506704
L81.795235 69.482895
" />
<path d="M81.795235 69.482895
L81.771426 69.459085
" />
<path d="M81.771426 69.459085
L81.771426 69.506704
" />
<path d="M81.199998 69.435276
L81.080950 69.768609
" />
<path d="M81.080950 69.768609
L80.961903 69.435276
" />
<path d="M80.509522 69.768609
L80.795236 69.768609
" />
<path d="M80.652379 69.768609
L80.652379 69.268609
" />
<path d="M80.652379 69.268609
L80.699998 69.340038
" />
<path d="M80.699998 69.340038
L80.747617 69.387657
" />
<path d="M80.747617 69.387657
L80.795236 69.411466
" />
<path d="M80.295237 69.720990
L80.271427 69.744800
" />
<path d="M80.271427 69.744800
L80.295237 69.768609
" />
<path d="M80.295237 69.768609
L80.319046 69.744800
" />
<path d="M80.319046 69.744800
L80.295237 69.720990
" />
<path d="M80.295237 69.720990
L80.295237 69.768609
" />
<path d="M79.795237 69.768609
L80.080951 69.768609
" />
<path d="M79.938094 69.768609
L79.938094 69.268609
" />
<path d="M79.938094 69.268609
L79.985713 69.340038
" />
<path d="M79.985713 69.340038
L80.033332 69.387657
" />
<path d="M80.033332 69.387657
L80.080951 69.411466
" />
<path d="M79.580952 69.720990
L79.557142 69.744800
" />
<path d="M79.557142 69.744800
L79.580952 69.768609
" />
<path d="M79.580952 69.768609
L79.604761 69.744800
" />
<path d="M79.604761 69.744800
L79.580952 69.720990
" />
<path d="M79.580952 69.720990
L79.580952 69.768609
" />
<path d="M79.247619 69.268609
L79.200000 69.268609
" />
<path d="M79.200000 69.268609
L79.152381 69.292419
" />
<path d="M79.152381 69.292419
L79.128571 69.316228
" />
<path d="M79.128571 69.316228
L79.104762 69.363847
" />
<path d="M79.104762 69.363847
L79.080952 69.459085
" />
<path d="M79.080952 69.459085
L79.080952 69.578133
" />
<path d="M79.080952 69.578133
L79.104762 69.673371
" />
<path d="M79.104762 69.673371
L79.128571 69.720990
" />
<path d="M79.128571 69.720990
L79.152381 69.744800
" />
<path d="M79.152381 69.744800
L79.200000 69.768609
" />
<path d="M79.200000 69.768609
L79.247619 69.768609
" />
<path d="M79.247619 69.768609
L79.295238 69.744800
" />
<path d="M79.295238 69.744800
L79.319047 69.720990
" />
<path d="M79.319047 69.720990
L79.342857 69.673371
" />
<path d="M79.342857 69.673371
L79.366666 69.578133
" />
<path d="M79.366666 69.578133
L79.366666 69.459085
" />
<path d="M79.366666 69.459085
L79.342857 69.363847
" />
<path d="M79.342857 69.363847
L79.319047 69.316228
" />
<path d="M79.319047 69.316228
L79.295238 69.292419
" />
<path d="M79.295238 69.292419
L79.247619 69.268609
" />
<path d="M78.866667 69.578133
L78.485715 69.578133
" />
<path d="M77.961905 69.768609
L78.128571 69.530514
" />
<path d="M78.247619 69.768609
L78.247619 69.268609
" />
<path d="M78.247619 69.268609
L78.057143 69.268609
" />
<path d="M78.057143 69.268609
L78.009524 69.292419
" />
<path d="M78.009524 69.292419
L77.985714 69.316228
" />
<path d="M77.985714 69.316228
L77.961905 69.363847
" />
<path d="M77.961905 69.363847
L77.961905 69.435276
" />
<path d="M77.961905 69.435276
L77.985714 69.482895
" />
<path d="M77.985714 69.482895
L78.009524 69.506704
" />
<path d="M78.009524 69.506704
L78.057143 69.530514
" />
<path d="M78.057143 69.530514
L78.247619 69.530514
" />
<path d="M77.461905 69.720990
L77.485714 69.744800
" />
<path d="M77.485714 69.744800
L77.557143 69.768609
" />
<path d="M77.557143 69.768609
L77.604762 69.768609
" />
<path d="M77.604762 69.768609
L77.676190 69.744800
" />
<path d="M77.676190 69.744800
L77.723809 69.697180
" />
<path d="M77.723809 69.697180
L77.747619 69.649561
" />
<path d="M77.747619 69.649561
L77.771428 69.554323
" />
<path d="M77.771428 69.554323
L77.771428 69.482895
" />
<path d="M77.771428 69.482895
L77.747619 69.387657
" />
<path d="M77.747619 69.387657
L77.723809 69.340038
" />
<path d="M77.723809 69.340038
L77.676190 69.292419
" />
<path d="M77.676190 69.292419
L77.604762 69.268609
" />
<path d="M77.604762 69.268609
L77.557143 69.268609
" />
<path d="M77.557143 69.268609
L77.485714 69.292419
" />
<path d="M77.485714 69.292419
L77.461905 69.316228
" />
<path d="M76.985714 69.768609
L77.271428 69.768609
" />
<path d="M77.128571 69.768609
L77.128571 69.268609
" />
<path d="M77.128571 69.268609
L77.176190 69.340038
" />
<path d="M77.176190 69.340038
L77.223809 69.387657
" />
<path d="M77.223809 69.387657
L77.271428 69.411466
" />
</g><text x="79.950000" y="70.640000"
transform="scale(-1 1) translate(-159.900000 0)"
textLength="4.319046" font-size="0.666666" lengthAdjust="spacingAndGlyphs"
text-anchor="middle" opacity="0">{GIT_HASH}</text>
<g class="stroked-text"><desc>{GIT_HASH}</desc>
<path d="M81.747618 70.764085
L81.771427 70.764085
" />
<path d="M81.771427 70.764085
L81.819046 70.740276
" />
<path d="M81.819046 70.740276
L81.842856 70.692657
" />
<path d="M81.842856 70.692657
L81.842856 70.454561
" />
<path d="M81.842856 70.454561
L81.866665 70.406942
" />
<path d="M81.866665 70.406942
L81.914284 70.383133
" />
<path d="M81.914284 70.383133
L81.866665 70.359323
" />
<path d="M81.866665 70.359323
L81.842856 70.311704
" />
<path d="M81.842856 70.311704
L81.842856 70.073609
" />
<path d="M81.842856 70.073609
L81.819046 70.025990
" />
<path d="M81.819046 70.025990
L81.771427 70.002180
" />
<path d="M81.771427 70.002180
L81.747618 70.002180
" />
<path d="M81.295237 70.097419
L81.342856 70.073609
" />
<path d="M81.342856 70.073609
L81.414285 70.073609
" />
<path d="M81.414285 70.073609
L81.485713 70.097419
" />
<path d="M81.485713 70.097419
L81.533332 70.145038
" />
<path d="M81.533332 70.145038
L81.557142 70.192657
" />
<path d="M81.557142 70.192657
L81.580951 70.287895
" />
<path d="M81.580951 70.287895
L81.580951 70.359323
" />
<path d="M81.580951 70.359323
L81.557142 70.454561
" />
<path d="M81.557142 70.454561
L81.533332 70.502180
" />
<path d="M81.533332 70.502180
L81.485713 70.549800
" />
<path d="M81.485713 70.549800
L81.414285 70.573609
" />
<path d="M81.414285 70.573609
L81.366666 70.573609
" />
<path d="M81.366666 70.573609
L81.295237 70.549800
" />
<path d="M81.295237 70.549800
L81.271428 70.525990
" />
<path d="M81.271428 70.525990
L81.271428 70.359323
" />
<path d="M81.271428 70.359323
L81.366666 70.359323
" />
<path d="M81.057142 70.573609
L81.057142 70.073609
" />
<path d="M80.890475 70.073609
L80.604761 70.073609
" />
<path d="M80.747618 70.573609
L80.747618 70.073609
" />
<path d="M80.557143 70.621228
L80.176190 70.621228
" />
<path d="M80.057143 70.573609
L80.057143 70.073609
" />
<path d="M80.057143 70.311704
L79.771429 70.311704
" />
<path d="M79.771429 70.573609
L79.771429 70.073609
" />
<path d="M79.557142 70.430752
L79.319047 70.430752
" />
<path d="M79.604761 70.573609
L79.438095 70.073609
" />
<path d="M79.438095 70.073609
L79.271428 70.573609
" />
<path d="M79.128571 70.549800
L79.057143 70.573609
" />
<path d="M79.057143 70.573609
L78.938095 70.573609
" />
<path d="M78.938095 70.573609
L78.890476 70.549800
" />
<path d="M78.890476 70.549800
L78.866667 70.525990
" />
<path d="M78.866667 70.525990
L78.842857 70.478371
" />
<path d="M78.842857 70.478371
L78.842857 70.430752
" />
<path d="M78.842857 70.430752
L78.866667 70.383133
" />
<path d="M78.866667 70.383133
L78.890476 70.359323
" />
<path d="M78.890476 70.359323
L78.938095 70.335514
" />
<path d="M78.938095 70.335514
L79.033333 70.311704
" />
<path d="M79.033333 70.311704
L79.080952 70.287895
" />
<path d="M79.080952 70.287895
L79.104762 70.264085
" />
<path d="M79.104762 70.264085
L79.128571 70.216466
" />
<path d="M79.128571 70.216466
L79.128571 70.168847
" />
<path d="M79.128571 70.168847
L79.104762 70.121228
" />
<path d="M79.104762 70.121228
L79.080952 70.097419
" />
<path d="M79.080952 70.097419
L79.033333 70.073609
" />
<path d="M79.033333 70.073609
L78.914286 70.073609
" />
<path d="M78.914286 70.073609
L78.842857 70.097419
" />
<path d="M78.628572 70.573609
L78.628572 70.073609
" />
<path d="M78.628572 70.311704
L78.342858 70.311704
" />
<path d="M78.342858 70.573609
L78.342858 70.073609
" />
<path d="M78.152381 70.764085
L78.128571 70.764085
" />
<path d="M78.128571 70.764085
L78.080952 70.740276
" />
<path d="M78.080952 70.740276
L78.057143 70.692657
" />
<path d="M78.057143 70.692657
L78.057143 70.454561
" />
<path d="M78.057143 70.454561
L78.033333 70.406942
" />
<path d="M78.033333 70.406942
L77.985714 70.383133
" />
<path d="M77.985714 70.383133
L78.033333 70.359323
" />
<path d="M78.033333 70.359323
L78.057143 70.311704
" />
<path d="M78.057143 70.311704
L78.057143 70.073609
" />
<path d="M78.057143 70.073609
L78.080952 70.025990
" />
<path d="M78.080952 70.025990
L78.128571 70.002180
" />
<path d="M78.128571 70.002180
L78.152381 70.002180
" />
</g><text x="79.730000" y="51.620000"
transform="scale(-1 1) translate(-159.460000 0)"
textLength="11.326663" font-size="0.933333" lengthAdjust="spacingAndGlyphs"
text-anchor="middle" opacity="0">Pedalboard LED Ring</text>
<g class="stroked-text"><desc>Pedalboard LED Ring</desc>
<path d="M85.146664 51.529133
L85.146664 50.829133
" />
<path d="M85.146664 50.829133
L84.879997 50.829133
" />
<path d="M84.879997 50.829133
L84.813331 50.862466
" />
<path d="M84.813331 50.862466
L84.779997 50.895800
" />
<path d="M84.779997 50.895800
L84.746664 50.962466
" />
<path d="M84.746664 50.962466
L84.746664 51.062466
" />
<path d="M84.746664 51.062466
L84.779997 51.129133
" />
<path d="M84.779997 51.129133
L84.813331 51.162466
" />
<path d="M84.813331 51.162466
L84.879997 51.195800
" />
<path d="M84.879997 51.195800
L85.146664 51.195800
" />
<path d="M84.179997 51.495800
L84.246664 51.529133
" />
<path d="M84.246664 51.529133
L84.379997 51.529133
" />
<path d="M84.379997 51.529133
L84.446664 51.495800
" />
<path d="M84.446664 51.495800
L84.479997 51.429133
" />
<path d="M84.479997 51.429133
L84.479997 51.162466
" />
<path d="M84.479997 51.162466
L84.446664 51.095800
" />
<path d="M84.446664 51.095800
L84.379997 51.062466
" />
<path d="M84.379997 51.062466
L84.246664 51.062466
" />
<path d="M84.246664 51.062466
L84.179997 51.095800
" />
<path d="M84.179997 51.095800
L84.146664 51.162466
" />
<path d="M84.146664 51.162466
L84.146664 51.229133
" />
<path d="M84.146664 51.229133
L84.479997 51.295800
" />
<path d="M83.546664 51.529133
L83.546664 50.829133
" />
<path d="M83.546664 51.495800
L83.613331 51.529133
" />
<path d="M83.613331 51.529133
L83.746664 51.529133
" />
<path d="M83.746664 51.529133
L83.813331 51.495800
" />
<path d="M83.813331 51.495800
L83.846664 51.462466
" />
<path d="M83.846664 51.462466
L83.879997 51.395800
" />
<path d="M83.879997 51.395800
L83.879997 51.195800
" />
<path d="M83.879997 51.195800
L83.846664 51.129133
" />
<path d="M83.846664 51.129133
L83.813331 51.095800
" />
<path d="M83.813331 51.095800
L83.746664 51.062466
" />
<path d="M83.746664 51.062466
L83.613331 51.062466
" />
<path d="M83.613331 51.062466
L83.546664 51.095800
" />
<path d="M82.913331 51.529133
L82.913331 51.162466
" />
<path d="M82.913331 51.162466
L82.946664 51.095800
" />
<path d="M82.946664 51.095800
L83.013331 51.062466
" />
<path d="M83.013331 51.062466
L83.146664 51.062466
" />
<path d="M83.146664 51.062466
L83.213331 51.095800
" />
<path d="M82.913331 51.495800
L82.979998 51.529133
" />
<path d="M82.979998 51.529133
L83.146664 51.529133
" />
<path d="M83.146664 51.529133
L83.213331 51.495800
" />
<path d="M83.213331 51.495800
L83.246664 51.429133
" />
<path d="M83.246664 51.429133
L83.246664 51.362466
" />
<path d="M83.246664 51.362466
L83.213331 51.295800
" />
<path d="M83.213331 51.295800
L83.146664 51.262466
" />
<path d="M83.146664 51.262466
L82.979998 51.262466
" />
<path d="M82.979998 51.262466
L82.913331 51.229133
" />
<path d="M82.479998 51.529133
L82.546665 51.495800
" />
<path d="M82.546665 51.495800
L82.579998 51.429133
" />
<path d="M82.579998 51.429133
L82.579998 50.829133
" />
<path d="M82.213331 51.529133
L82.213331 50.829133
" />
<path d="M82.213331 51.095800
L82.146664 51.062466
" />
<path d="M82.146664 51.062466
L82.013331 51.062466
" />
<path d="M82.013331 51.062466
L81.946664 51.095800
" />
<path d="M81.946664 51.095800
L81.913331 51.129133
" />
<path d="M81.913331 51.129133
L81.879998 51.195800
" />
<path d="M81.879998 51.195800
L81.879998 51.395800
" />
<path d="M81.879998 51.395800
L81.913331 51.462466
" />
<path d="M81.913331 51.462466
L81.946664 51.495800
" />
<path d="M81.946664 51.495800
L82.013331 51.529133
" />
<path d="M82.013331 51.529133
L82.146664 51.529133
" />
<path d="M82.146664 51.529133
L82.213331 51.495800
" />
<path d="M81.479998 51.529133
L81.546665 51.495800
" />
<path d="M81.546665 51.495800
L81.579998 51.462466
" />
<path d="M81.579998 51.462466
L81.613331 51.395800
" />
<path d="M81.613331 51.395800
L81.613331 51.195800
" />
<path d="M81.613331 51.195800
L81.579998 51.129133
" />
<path d="M81.579998 51.129133
L81.546665 51.095800
" />
<path d="M81.546665 51.095800
L81.479998 51.062466
" />
<path d="M81.479998 51.062466
L81.379998 51.062466
" />
<path d="M81.379998 51.062466
L81.313331 51.095800
" />
<path d="M81.313331 51.095800
L81.279998 51.129133
" />
<path d="M81.279998 51.129133
L81.246665 51.195800
" />
<path d="M81.246665 51.195800
L81.246665 51.395800
" />
<path d="M81.246665 51.395800
L81.279998 51.462466
" />
<path d="M81.279998 51.462466
L81.313331 51.495800
" />
<path d="M81.313331 51.495800
L81.379998 51.529133
" />
<path d="M81.379998 51.529133
L81.479998 51.529133
" />
<path d="M80.646665 51.529133
L80.646665 51.162466
" />
<path d="M80.646665 51.162466
L80.679998 51.095800
" />
<path d="M80.679998 51.095800
L80.746665 51.062466
" />
<path d="M80.746665 51.062466
L80.879998 51.062466
" />
<path d="M80.879998 51.062466
L80.946665 51.095800
" />
<path d="M80.646665 51.495800
L80.713332 51.529133
" />
<path d="M80.713332 51.529133
L80.879998 51.529133
" />
<path d="M80.879998 51.529133
L80.946665 51.495800
" />
<path d="M80.946665 51.495800
L80.979998 51.429133
" />
<path d="M80.979998 51.429133
L80.979998 51.362466
" />
<path d="M80.979998 51.362466
L80.946665 51.295800
" />
<path d="M80.946665 51.295800
L80.879998 51.262466
" />
<path d="M80.879998 51.262466
L80.713332 51.262466
" />
<path d="M80.713332 51.262466
L80.646665 51.229133
" />
<path d="M80.313332 51.529133
L80.313332 51.062466
" />
<path d="M80.313332 51.195800
L80.279999 51.129133
" />
<path d="M80.279999 51.129133
L80.246665 51.095800
" />
<path d="M80.246665 51.095800
L80.179999 51.062466
" />
<path d="M80.179999 51.062466
L80.113332 51.062466
" />
<path d="M79.579999 51.529133
L79.579999 50.829133
" />
<path d="M79.579999 51.495800
L79.646666 51.529133
" />
<path d="M79.646666 51.529133
L79.779999 51.529133
" />
<path d="M79.779999 51.529133
L79.846666 51.495800
" />
<path d="M79.846666 51.495800
L79.879999 51.462466
" />
<path d="M79.879999 51.462466
L79.913332 51.395800
" />
<path d="M79.913332 51.395800
L79.913332 51.195800
" />
<path d="M79.913332 51.195800
L79.879999 51.129133
" />
<path d="M79.879999 51.129133
L79.846666 51.095800
" />
<path d="M79.846666 51.095800
L79.779999 51.062466
" />
<path d="M79.779999 51.062466
L79.646666 51.062466
" />
<path d="M79.646666 51.062466
L79.579999 51.095800
" />
<path d="M78.380000 51.529133
L78.713333 51.529133
" />
<path d="M78.713333 51.529133
L78.713333 50.829133
" />
<path d="M78.146666 51.162466
L77.913333 51.162466
" />
<path d="M77.813333 51.529133
L78.146666 51.529133
" />
<path d="M78.146666 51.529133
L78.146666 50.829133
" />
<path d="M78.146666 50.829133
L77.813333 50.829133
" />
<path d="M77.513333 51.529133
L77.513333 50.829133
" />
<path d="M77.513333 50.829133
L77.346666 50.829133
" />
<path d="M77.346666 50.829133
L77.246666 50.862466
" />
<path d="M77.246666 50.862466
L77.180000 50.929133
" />
<path d="M77.180000 50.929133
L77.146666 50.995800
" />
<path d="M77.146666 50.995800
L77.113333 51.129133
" />
<path d="M77.113333 51.129133
L77.113333 51.229133
" />
<path d="M77.113333 51.229133
L77.146666 51.362466
" />
<path d="M77.146666 51.362466
L77.180000 51.429133
" />
<path d="M77.180000 51.429133
L77.246666 51.495800
" />
<path d="M77.246666 51.495800
L77.346666 51.529133
" />
<path d="M77.346666 51.529133
L77.513333 51.529133
" />
<path d="M75.880000 51.529133
L76.113333 51.195800
" />
<path d="M76.280000 51.529133
L76.280000 50.829133
" />
<path d="M76.280000 50.829133
L76.013333 50.829133
" />
<path d="M76.013333 50.829133
L75.946667 50.862466
" />
<path d="M75.946667 50.862466
L75.913333 50.895800
" />
<path d="M75.913333 50.895800
L75.880000 50.962466
" />
<path d="M75.880000 50.962466
L75.880000 51.062466
" />
<path d="M75.880000 51.062466
L75.913333 51.129133
" />
<path d="M75.913333 51.129133
L75.946667 51.162466
" />
<path d="M75.946667 51.162466
L76.013333 51.195800
" />
<path d="M76.013333 51.195800
L76.280000 51.195800
" />
<path d="M75.580000 51.529133
L75.580000 51.062466
" />
<path d="M75.580000 50.829133
L75.613333 50.862466
" />
<path d="M75.613333 50.862466
L75.580000 50.895800
" />
<path d="M75.580000 50.895800
L75.546667 50.862466
" />
<path d="M75.546667 50.862466
L75.580000 50.829133
" />
<path d="M75.580000 50.829133
L75.580000 50.895800
" />
<path d="M75.246667 51.062466
L75.246667 51.529133
" />
<path d="M75.246667 51.129133
L75.213334 51.095800
" />
<path d="M75.213334 51.095800
L75.146667 51.062466
" />
<path d="M75.146667 51.062466
L75.046667 51.062466
" />
<path d="M75.046667 51.062466
L74.980000 51.095800
" />
<path d="M74.980000 51.095800
L74.946667 51.162466
" />
<path d="M74.946667 51.162466
L74.946667 51.529133
" />
<path d="M74.313334 51.062466
L74.313334 51.629133
" />
<path d="M74.313334 51.629133
L74.346667 51.695800
" />
<path d="M74.346667 51.695800
L74.380001 51.729133
" />
<path d="M74.380001 51.729133
L74.446667 51.762466
" />
<path d="M74.446667 51.762466
L74.546667 51.762466
" />
<path d="M74.546667 51.762466
L74.613334 51.729133
" />
<path d="M74.313334 51.495800
L74.380001 51.529133
" />
<path d="M74.380001 51.529133
L74.513334 51.529133
" />
<path d="M74.513334 51.529133
L74.580001 51.495800
" />
<path d="M74.580001 51.495800
L74.613334 51.462466
" />
<path d="M74.613334 51.462466
L74.646667 51.395800
" />
<path d="M74.646667 51.395800
L74.646667 51.195800
" />
<path d="M74.646667 51.195800
L74.613334 51.129133
" />
<path d="M74.613334 51.129133
L74.580001 51.095800
" />
<path d="M74.580001 51.095800
L74.513334 51.062466
" />
<path d="M74.513334 51.062466
L74.380001 51.062466
" />
<path d="M74.380001 51.062466
L74.313334 51.095800
" />
</g><g transform="rotate(50.000000 86.660000 52.960000)">
<text x="86.660000" y="53.210000"
transform="scale(-1 1) translate(-173.320000 0)"
textLength="1.557142" font-size="0.666666" lengthAdjust="spacingAndGlyphs"
text-anchor="middle" opacity="0">JP1</text>
</g>
<g class="stroked-text"><desc>JP1</desc>
<path d="M87.137640 53.103131
L86.864052 53.332698
" />
<path d="M86.864052 53.332698
L86.824639 53.396851
" />
<path d="M86.824639 53.396851
L86.818770 53.463938
" />
<path d="M86.818770 53.463938
L86.846444 53.533960
" />
<path d="M86.846444 53.533960
L86.877053 53.570438
" />
<path d="M86.601573 53.242134
L86.984595 52.920740
" />
<path d="M86.984595 52.920740
L86.862160 52.774826
" />
<path d="M86.862160 52.774826
L86.813311 52.753653
" />
<path d="M86.813311 52.753653
L86.779768 52.750718
" />
<path d="M86.779768 52.750718
L86.727985 52.763088
" />
<path d="M86.727985 52.763088
L86.673268 52.809001
" />
<path d="M86.673268 52.809001
L86.652094 52.857849
" />
<path d="M86.652094 52.857849
L86.649159 52.891393
" />
<path d="M86.649159 52.891393
L86.661529 52.943176
" />
<path d="M86.661529 52.943176
L86.783965 53.089089
" />
<path d="M86.111830 52.658481
L86.295484 52.877350
" />
<path d="M86.203657 52.767916
L86.586679 52.446522
" />
<path d="M86.586679 52.446522
L86.562571 52.528913
" />
<path d="M86.562571 52.528913
L86.556701 52.596001
" />
<path d="M86.556701 52.596001
L86.569071 52.647783
" />
</g></g>
<g style="fill:#000000; fill-opacity:0.0; 
stroke:#000000; stroke-width:0.120000; stroke-opacity:1; 
stroke-linecap:round; stroke-linejoin:round;">
<path d="M87.940000 62.060000
L87.940000 57.940000
" />
<path d="M88.240000 62.060000
L87.940000 62.060000
" />
<path d="M90.240000 62.060000
L89.760000 62.060000
" />
<path d="M92.060000 62.060000
L91.760000 62.060000
" />
<path d="M92.060000 62.060000
L92.060000 57.940000
" />
<path d="M88.240000 57.940000
L87.940000 57.940000
" />
<path d="M90.240000 57.940000
L89.760000 57.940000
" />
<path d="M91.760000 57.940000
L91.760000 55.560000
" />
<path d="M92.060000 57.940000
L91.760000 57.940000
" />
<path d="M86.470089 55.465299
L86.929716 55.079626
" />
<path d="M87.015996 54.093444
L86.116093 53.020981
" />
<path d="M84.584004 54.306556
L85.483907 55.379019
" />
<path d="M85.129911 52.934701
L84.670284 53.320374
" />
<path d="M85.483906 55.379018 A0.699999 0.699999 0.0 0 0 86.470088 55.465298" />
<path d="M86.929715 55.079626 A0.699999 0.699999 0.0 0 0 87.015995 54.093444" />
<path d="M84.670284 53.320374 A0.700000 0.700000 0.0 0 0 84.584004 54.306556" />
<path d="M86.116092 53.020980 A0.700000 0.700000 0.0 0 0 85.129910 52.934700" />
<g >
</g>
<g >
</g>
<g >
</g>
<g >
</g>
<g >
</g>
<g >
</g>
<g >
</g>
<g >
</g>
<g >
</g>
<g >
</g>
<g >
</g>
<g >
</g>
<g >
</g>
<g >
</g>
<g >
</g>
<g >
</g>
<g >
</g>
<g >
</g>
<g >
</g>
<g >
</g>
<g >
</g>
<g >
</g>
<g >
</g>
<g >
</g>
<g >
</g>
<g >
</g>
<g >
</g>
<g >
</g>
<g >
</g>
<g >
</g>
<g >
</g>
<g >
</g>
<g >
</g>
<g >
</g>
<g >
</g>
</g> 
</svg>
