<?xml version="1.0" standalone="no"?>
 <!DOCTYPE svg PUBLIC "-//W3C//DTD SVG 1.1//EN" 
 "http://www.w3.org/Graphics/SVG/1.1/DTD/svg11.dtd"> 
<svg
  xmlns:svg="http://www.w3.org/2000/svg"
  xmlns="http://www.w3.org/2000/svg"
  xmlns:xlink="http://www.w3.org/1999/xlink"
  version="1.1"
  width="2.6100000000000003cm" height="2.6100000000000003cm" viewBox="66.95 46.95 26.1 26.1">
<title>SVG Image created as pedalboard-led-ring-F_Mask.svg date 2023/10/17 19:17:17 </title>
  <desc>Image generated by PCBNEW </desc>
<g style="fill:#000000; fill-opacity:1.000000;stroke:#000000; stroke-opacity:1.000000;
stroke-linecap:round; stroke-linejoin:round;"
 transform="translate(0 0) scale(1 1)">
</g>
<g style="fill:#000000; fill-opacity:0.0; 
stroke:#000000; stroke-width:0.000000; stroke-opacity:1; 
stroke-linecap:round; stroke-linejoin:round;">
<g >
</g>
<g style="fill:#000000; fill-opacity:1.000000; 
stroke:#000000; stroke-width:0.000000; stroke-opacity:1; 
stroke-linecap:round; stroke-linejoin:round;">
<circle cx="80.000000" cy="71.000000" r="0.500000" /> 
</g>
<g style="fill:#000000; fill-opacity:1.000000; 
stroke:#000000; stroke-width:0.021200; stroke-opacity:1; 
stroke-linecap:round; stroke-linejoin:round;">
</g>
<g >
</g>
<g style="fill:#000000; fill-opacity:1.000000; 
stroke:#000000; stroke-width:0.021200; stroke-opacity:1; 
stroke-linecap:round; stroke-linejoin:round;">
</g>
<g style="fill:#000000; fill-opacity:1.000000; 
stroke:#000000; stroke-width:0.000000; stroke-opacity:1; 
stroke-linecap:round; stroke-linejoin:round;">
<path style="fill:#000000; fill-opacity:1.000000; 
stroke:#000000; stroke-width:0.000000; stroke-opacity:1; 
stroke-linecap:round; stroke-linejoin:round;fill-rule:evenodd;"
d="M 84.676795,68.500446
84.243783,68.750446
83.993783,68.317434
84.426795,68.067434
Z" /> 
<path style="fill:#000000; fill-opacity:1.000000; 
stroke:#000000; stroke-width:0.000000; stroke-opacity:1; 
stroke-linecap:round; stroke-linejoin:round;fill-rule:evenodd;"
d="M 85.456217,68.050446
85.023205,68.300446
84.773205,67.867434
85.206217,67.617434
Z" /> 
<path style="fill:#000000; fill-opacity:1.000000; 
stroke:#000000; stroke-width:0.000000; stroke-opacity:1; 
stroke-linecap:round; stroke-linejoin:round;fill-rule:evenodd;"
d="M 85.006217,67.271024
84.573205,67.521024
84.323205,67.088012
84.756217,66.838012
Z" /> 
<path style="fill:#000000; fill-opacity:1.000000; 
stroke:#000000; stroke-width:0.000000; stroke-opacity:1; 
stroke-linecap:round; stroke-linejoin:round;fill-rule:evenodd;"
d="M 84.226795,67.721024
83.793783,67.971024
83.543783,67.538012
83.976795,67.288012
Z" /> 
</g>
<g >
</g>
<g style="fill:#000000; fill-opacity:1.000000; 
stroke:#000000; stroke-width:0.000000; stroke-opacity:1; 
stroke-linecap:round; stroke-linejoin:round;">
<path style="fill:#000000; fill-opacity:1.000000; 
stroke:#000000; stroke-width:0.000000; stroke-opacity:1; 
stroke-linecap:round; stroke-linejoin:round;fill-rule:evenodd;"
d="M 78.600000,50.335000
78.638268,50.342612
78.670711,50.364289
78.692388,50.396732
78.700000,50.435000
78.700000,50.870000
78.692388,50.908268
78.670711,50.940711
78.638268,50.962388
78.600000,50.970000
78.400000,50.970000
78.361732,50.962388
78.329289,50.940711
78.307612,50.908268
78.300000,50.870000
78.300000,50.435000
78.307612,50.396732
78.329289,50.364289
78.361732,50.342612
78.400000,50.335000
Z" /> 
<path style="fill:#000000; fill-opacity:1.000000; 
stroke:#000000; stroke-width:0.000000; stroke-opacity:1; 
stroke-linecap:round; stroke-linejoin:round;fill-rule:evenodd;"
d="M 78.600000,51.150000
78.638268,51.157612
78.670711,51.179289
78.692388,51.211732
78.700000,51.250000
78.700000,51.685000
78.692388,51.723268
78.670711,51.755711
78.638268,51.777388
78.600000,51.785000
78.400000,51.785000
78.361732,51.777388
78.329289,51.755711
78.307612,51.723268
78.300000,51.685000
78.300000,51.250000
78.307612,51.211732
78.329289,51.179289
78.361732,51.157612
78.400000,51.150000
Z" /> 
</g>
<g >
</g>
<g style="fill:#000000; fill-opacity:1.000000; 
stroke:#000000; stroke-width:0.000000; stroke-opacity:1; 
stroke-linecap:round; stroke-linejoin:round;">
<path style="fill:#000000; fill-opacity:1.000000; 
stroke:#000000; stroke-width:0.000000; stroke-opacity:1; 
stroke-linecap:round; stroke-linejoin:round;fill-rule:evenodd;"
d="M 73.914103,52.254865
73.951050,52.242323
73.989985,52.244874
74.024979,52.262132
74.050705,52.291467
74.268205,52.668189
74.280747,52.705136
74.278196,52.744071
74.260938,52.779065
74.231603,52.804791
74.058397,52.904791
74.021450,52.917333
73.982515,52.914782
73.947521,52.897524
73.921795,52.868189
73.704295,52.491467
73.691753,52.454520
73.694304,52.415585
73.711562,52.380591
73.740897,52.354865
Z" /> 
<path style="fill:#000000; fill-opacity:1.000000; 
stroke:#000000; stroke-width:0.000000; stroke-opacity:1; 
stroke-linecap:round; stroke-linejoin:round;fill-rule:evenodd;"
d="M 74.321603,52.960675
74.358550,52.948133
74.397485,52.950684
74.432479,52.967942
74.458205,52.997277
74.675705,53.373999
74.688247,53.410946
74.685696,53.449881
74.668438,53.484875
74.639103,53.510601
74.465897,53.610601
74.428950,53.623143
74.390015,53.620592
74.355021,53.603334
74.329295,53.573999
74.111795,53.197277
74.099253,53.160330
74.101804,53.121395
74.119062,53.086401
74.148397,53.060675
Z" /> 
</g>
<g >
</g>
<g style="fill:#000000; fill-opacity:1.000000; 
stroke:#000000; stroke-width:0.000000; stroke-opacity:1; 
stroke-linecap:round; stroke-linejoin:round;">
<path style="fill:#000000; fill-opacity:1.000000; 
stroke:#000000; stroke-width:0.000000; stroke-opacity:1; 
stroke-linecap:round; stroke-linejoin:round;fill-rule:evenodd;"
d="M 89.700000,60.200000
89.700000,60.700000
89.200000,60.700000
89.200000,60.200000
Z" /> 
<path style="fill:#000000; fill-opacity:1.000000; 
stroke:#000000; stroke-width:0.000000; stroke-opacity:1; 
stroke-linecap:round; stroke-linejoin:round;fill-rule:evenodd;"
d="M 89.700000,59.300000
89.700000,59.800000
89.200000,59.800000
89.200000,59.300000
Z" /> 
<path style="fill:#000000; fill-opacity:1.000000; 
stroke:#000000; stroke-width:0.000000; stroke-opacity:1; 
stroke-linecap:round; stroke-linejoin:round;fill-rule:evenodd;"
d="M 88.800000,59.300000
88.800000,59.800000
88.300000,59.800000
88.300000,59.300000
Z" /> 
<path style="fill:#000000; fill-opacity:1.000000; 
stroke:#000000; stroke-width:0.000000; stroke-opacity:1; 
stroke-linecap:round; stroke-linejoin:round;fill-rule:evenodd;"
d="M 88.800000,60.200000
88.800000,60.700000
88.300000,60.700000
88.300000,60.200000
Z" /> 
</g>
<g >
</g>
<g style="fill:#000000; fill-opacity:1.000000; 
stroke:#000000; stroke-width:0.000000; stroke-opacity:1; 
stroke-linecap:round; stroke-linejoin:round;">
<path style="fill:#000000; fill-opacity:1.000000; 
stroke:#000000; stroke-width:0.000000; stroke-opacity:1; 
stroke-linecap:round; stroke-linejoin:round;fill-rule:evenodd;"
d="M 80.200000,50.300000
80.700000,50.300000
80.700000,50.800000
80.200000,50.800000
Z" /> 
<path style="fill:#000000; fill-opacity:1.000000; 
stroke:#000000; stroke-width:0.000000; stroke-opacity:1; 
stroke-linecap:round; stroke-linejoin:round;fill-rule:evenodd;"
d="M 79.300000,50.300000
79.800000,50.300000
79.800000,50.800000
79.300000,50.800000
Z" /> 
<path style="fill:#000000; fill-opacity:1.000000; 
stroke:#000000; stroke-width:0.000000; stroke-opacity:1; 
stroke-linecap:round; stroke-linejoin:round;fill-rule:evenodd;"
d="M 79.300000,51.200000
79.800000,51.200000
79.800000,51.700000
79.300000,51.700000
Z" /> 
<path style="fill:#000000; fill-opacity:1.000000; 
stroke:#000000; stroke-width:0.000000; stroke-opacity:1; 
stroke-linecap:round; stroke-linejoin:round;fill-rule:evenodd;"
d="M 80.200000,51.200000
80.700000,51.200000
80.700000,51.700000
80.200000,51.700000
Z" /> 
</g>
<g >
</g>
<g style="fill:#000000; fill-opacity:1.000000; 
stroke:#000000; stroke-width:0.000000; stroke-opacity:1; 
stroke-linecap:round; stroke-linejoin:round;">
<path style="fill:#000000; fill-opacity:1.000000; 
stroke:#000000; stroke-width:0.000000; stroke-opacity:1; 
stroke-linecap:round; stroke-linejoin:round;fill-rule:evenodd;"
d="M 88.300446,65.023205
88.050446,65.456217
87.617434,65.206217
87.867434,64.773205
Z" /> 
<path style="fill:#000000; fill-opacity:1.000000; 
stroke:#000000; stroke-width:0.000000; stroke-opacity:1; 
stroke-linecap:round; stroke-linejoin:round;fill-rule:evenodd;"
d="M 88.750446,64.243783
88.500446,64.676795
88.067434,64.426795
88.317434,63.993783
Z" /> 
<path style="fill:#000000; fill-opacity:1.000000; 
stroke:#000000; stroke-width:0.000000; stroke-opacity:1; 
stroke-linecap:round; stroke-linejoin:round;fill-rule:evenodd;"
d="M 87.971024,63.793783
87.721024,64.226795
87.288012,63.976795
87.538012,63.543783
Z" /> 
<path style="fill:#000000; fill-opacity:1.000000; 
stroke:#000000; stroke-width:0.000000; stroke-opacity:1; 
stroke-linecap:round; stroke-linejoin:round;fill-rule:evenodd;"
d="M 87.521024,64.573205
87.271024,65.006217
86.838012,64.756217
87.088012,64.323205
Z" /> 
</g>
<g >
</g>
<g style="fill:#000000; fill-opacity:1.000000; 
stroke:#000000; stroke-width:0.000000; stroke-opacity:1; 
stroke-linecap:round; stroke-linejoin:round;">
<path style="fill:#000000; fill-opacity:1.000000; 
stroke:#000000; stroke-width:0.000000; stroke-opacity:1; 
stroke-linecap:round; stroke-linejoin:round;fill-rule:evenodd;"
d="M 71.499554,64.676795
71.249554,64.243783
71.682566,63.993783
71.932566,64.426795
Z" /> 
<path style="fill:#000000; fill-opacity:1.000000; 
stroke:#000000; stroke-width:0.000000; stroke-opacity:1; 
stroke-linecap:round; stroke-linejoin:round;fill-rule:evenodd;"
d="M 71.949554,65.456217
71.699554,65.023205
72.132566,64.773205
72.382566,65.206217
Z" /> 
<path style="fill:#000000; fill-opacity:1.000000; 
stroke:#000000; stroke-width:0.000000; stroke-opacity:1; 
stroke-linecap:round; stroke-linejoin:round;fill-rule:evenodd;"
d="M 72.728976,65.006217
72.478976,64.573205
72.911988,64.323205
73.161988,64.756217
Z" /> 
<path style="fill:#000000; fill-opacity:1.000000; 
stroke:#000000; stroke-width:0.000000; stroke-opacity:1; 
stroke-linecap:round; stroke-linejoin:round;fill-rule:evenodd;"
d="M 72.278976,64.226795
72.028976,63.793783
72.461988,63.543783
72.711988,63.976795
Z" /> 
</g>
<g >
</g>
<g style="fill:#000000; fill-opacity:1.000000; 
stroke:#000000; stroke-width:0.000000; stroke-opacity:1; 
stroke-linecap:round; stroke-linejoin:round;">
<path style="fill:#000000; fill-opacity:1.000000; 
stroke:#000000; stroke-width:0.000000; stroke-opacity:1; 
stroke-linecap:round; stroke-linejoin:round;fill-rule:evenodd;"
d="M 79.800000,69.700000
79.300000,69.700000
79.300000,69.200000
79.800000,69.200000
Z" /> 
<path style="fill:#000000; fill-opacity:1.000000; 
stroke:#000000; stroke-width:0.000000; stroke-opacity:1; 
stroke-linecap:round; stroke-linejoin:round;fill-rule:evenodd;"
d="M 80.700000,69.700000
80.200000,69.700000
80.200000,69.200000
80.700000,69.200000
Z" /> 
<path style="fill:#000000; fill-opacity:1.000000; 
stroke:#000000; stroke-width:0.000000; stroke-opacity:1; 
stroke-linecap:round; stroke-linejoin:round;fill-rule:evenodd;"
d="M 80.700000,68.800000
80.200000,68.800000
80.200000,68.300000
80.700000,68.300000
Z" /> 
<path style="fill:#000000; fill-opacity:1.000000; 
stroke:#000000; stroke-width:0.000000; stroke-opacity:1; 
stroke-linecap:round; stroke-linejoin:round;fill-rule:evenodd;"
d="M 79.800000,68.800000
79.300000,68.800000
79.300000,68.300000
79.800000,68.300000
Z" /> 
</g>
<g >
</g>
<g style="fill:#000000; fill-opacity:1.000000; 
stroke:#000000; stroke-width:0.000000; stroke-opacity:1; 
stroke-linecap:round; stroke-linejoin:round;">
<path style="fill:#000000; fill-opacity:1.000000; 
stroke:#000000; stroke-width:0.000000; stroke-opacity:1; 
stroke-linecap:round; stroke-linejoin:round;fill-rule:evenodd;"
d="M 70.300000,59.800000
70.300000,59.300000
70.800000,59.300000
70.800000,59.800000
Z" /> 
<path style="fill:#000000; fill-opacity:1.000000; 
stroke:#000000; stroke-width:0.000000; stroke-opacity:1; 
stroke-linecap:round; stroke-linejoin:round;fill-rule:evenodd;"
d="M 70.300000,60.700000
70.300000,60.200000
70.800000,60.200000
70.800000,60.700000
Z" /> 
<path style="fill:#000000; fill-opacity:1.000000; 
stroke:#000000; stroke-width:0.000000; stroke-opacity:1; 
stroke-linecap:round; stroke-linejoin:round;fill-rule:evenodd;"
d="M 71.200000,60.700000
71.200000,60.200000
71.700000,60.200000
71.700000,60.700000
Z" /> 
<path style="fill:#000000; fill-opacity:1.000000; 
stroke:#000000; stroke-width:0.000000; stroke-opacity:1; 
stroke-linecap:round; stroke-linejoin:round;fill-rule:evenodd;"
d="M 71.200000,59.800000
71.200000,59.300000
71.700000,59.300000
71.700000,59.800000
Z" /> 
</g>
<g >
</g>
<g style="fill:#000000; fill-opacity:1.000000; 
stroke:#000000; stroke-width:0.000000; stroke-opacity:1; 
stroke-linecap:round; stroke-linejoin:round;">
<path style="fill:#000000; fill-opacity:1.000000; 
stroke:#000000; stroke-width:0.000000; stroke-opacity:1; 
stroke-linecap:round; stroke-linejoin:round;fill-rule:evenodd;"
d="M 71.699554,54.976795
71.949554,54.543783
72.382566,54.793783
72.132566,55.226795
Z" /> 
<path style="fill:#000000; fill-opacity:1.000000; 
stroke:#000000; stroke-width:0.000000; stroke-opacity:1; 
stroke-linecap:round; stroke-linejoin:round;fill-rule:evenodd;"
d="M 71.249554,55.756217
71.499554,55.323205
71.932566,55.573205
71.682566,56.006217
Z" /> 
<path style="fill:#000000; fill-opacity:1.000000; 
stroke:#000000; stroke-width:0.000000; stroke-opacity:1; 
stroke-linecap:round; stroke-linejoin:round;fill-rule:evenodd;"
d="M 72.028976,56.206217
72.278976,55.773205
72.711988,56.023205
72.461988,56.456217
Z" /> 
<path style="fill:#000000; fill-opacity:1.000000; 
stroke:#000000; stroke-width:0.000000; stroke-opacity:1; 
stroke-linecap:round; stroke-linejoin:round;fill-rule:evenodd;"
d="M 72.478976,55.426795
72.728976,54.993783
73.161988,55.243783
72.911988,55.676795
Z" /> 
</g>
<g >
</g>
<g style="fill:#000000; fill-opacity:1.000000; 
stroke:#000000; stroke-width:0.000000; stroke-opacity:1; 
stroke-linecap:round; stroke-linejoin:round;">
<circle cx="80.000000" cy="49.000000" r="0.500000" /> 
</g>
<g style="fill:#000000; fill-opacity:1.000000; 
stroke:#000000; stroke-width:0.021200; stroke-opacity:1; 
stroke-linecap:round; stroke-linejoin:round;">
</g>
<g >
</g>
<g style="fill:#000000; fill-opacity:1.000000; 
stroke:#000000; stroke-width:0.021200; stroke-opacity:1; 
stroke-linecap:round; stroke-linejoin:round;">
</g>
<g style="fill:#000000; fill-opacity:1.000000; 
stroke:#000000; stroke-width:0.000000; stroke-opacity:1; 
stroke-linecap:round; stroke-linejoin:round;">
<path style="fill:#000000; fill-opacity:1.000000; 
stroke:#000000; stroke-width:0.000000; stroke-opacity:1; 
stroke-linecap:round; stroke-linejoin:round;fill-rule:evenodd;"
d="M 70.275000,61.400000
70.282612,61.361732
70.304289,61.329289
70.336732,61.307612
70.375000,61.300000
70.810000,61.300000
70.848268,61.307612
70.880711,61.329289
70.902388,61.361732
70.910000,61.400000
70.910000,61.600000
70.902388,61.638268
70.880711,61.670711
70.848268,61.692388
70.810000,61.700000
70.375000,61.700000
70.336732,61.692388
70.304289,61.670711
70.282612,61.638268
70.275000,61.600000
Z" /> 
<path style="fill:#000000; fill-opacity:1.000000; 
stroke:#000000; stroke-width:0.000000; stroke-opacity:1; 
stroke-linecap:round; stroke-linejoin:round;fill-rule:evenodd;"
d="M 71.090000,61.400000
71.097612,61.361732
71.119289,61.329289
71.151732,61.307612
71.190000,61.300000
71.625000,61.300000
71.663268,61.307612
71.695711,61.329289
71.717388,61.361732
71.725000,61.400000
71.725000,61.600000
71.717388,61.638268
71.695711,61.670711
71.663268,61.692388
71.625000,61.700000
71.190000,61.700000
71.151732,61.692388
71.119289,61.670711
71.097612,61.638268
71.090000,61.600000
Z" /> 
</g>
<g >
</g>
<g style="fill:#000000; fill-opacity:1.000000; 
stroke:#000000; stroke-width:0.000000; stroke-opacity:1; 
stroke-linecap:round; stroke-linejoin:round;">
<path style="fill:#000000; fill-opacity:1.000000; 
stroke:#000000; stroke-width:0.000000; stroke-opacity:1; 
stroke-linecap:round; stroke-linejoin:round;fill-rule:evenodd;"
d="M 88.912500,57.440000
88.936418,57.444758
88.956694,57.458306
88.970242,57.478582
88.975000,57.502500
88.975000,57.737500
88.970242,57.761418
88.956694,57.781694
88.936418,57.795242
88.912500,57.800000
88.787500,57.800000
88.763582,57.795242
88.743306,57.781694
88.729758,57.761418
88.725000,57.737500
88.725000,57.502500
88.729758,57.478582
88.743306,57.458306
88.763582,57.444758
88.787500,57.440000
Z" /> 
<path style="fill:#000000; fill-opacity:1.000000; 
stroke:#000000; stroke-width:0.000000; stroke-opacity:1; 
stroke-linecap:round; stroke-linejoin:round;fill-rule:evenodd;"
d="M 88.912500,56.600000
88.936418,56.604758
88.956694,56.618306
88.970242,56.638582
88.975000,56.662500
88.975000,56.897500
88.970242,56.921418
88.956694,56.941694
88.936418,56.955242
88.912500,56.960000
88.787500,56.960000
88.763582,56.955242
88.743306,56.941694
88.729758,56.921418
88.725000,56.897500
88.725000,56.662500
88.729758,56.638582
88.743306,56.618306
88.763582,56.604758
88.787500,56.600000
Z" /> 
</g>
<g >
</g>
<g style="fill:#000000; fill-opacity:1.000000; 
stroke:#000000; stroke-width:0.000000; stroke-opacity:1; 
stroke-linecap:round; stroke-linejoin:round;">
<path style="fill:#000000; fill-opacity:1.000000; 
stroke:#000000; stroke-width:0.000000; stroke-opacity:1; 
stroke-linecap:round; stroke-linejoin:round;fill-rule:evenodd;"
d="M 72.322132,66.025897
72.309590,65.988950
72.312141,65.950015
72.329399,65.915021
72.358734,65.889295
72.735456,65.671795
72.772403,65.659253
72.811338,65.661804
72.846332,65.679062
72.872058,65.708397
72.972058,65.881603
72.984600,65.918550
72.982049,65.957485
72.964791,65.992479
72.935456,66.018205
72.558734,66.235705
72.521787,66.248247
72.482852,66.245696
72.447858,66.228438
72.422132,66.199103
Z" /> 
<path style="fill:#000000; fill-opacity:1.000000; 
stroke:#000000; stroke-width:0.000000; stroke-opacity:1; 
stroke-linecap:round; stroke-linejoin:round;fill-rule:evenodd;"
d="M 73.027942,65.618397
73.015400,65.581450
73.017951,65.542515
73.035209,65.507521
73.064544,65.481795
73.441266,65.264295
73.478213,65.251753
73.517148,65.254304
73.552142,65.271562
73.577868,65.300897
73.677868,65.474103
73.690410,65.511050
73.687859,65.549985
73.670601,65.584979
73.641266,65.610705
73.264544,65.828205
73.227597,65.840747
73.188662,65.838196
73.153668,65.820938
73.127942,65.791603
Z" /> 
</g>
<g >
</g>
<g style="fill:#000000; fill-opacity:1.000000; 
stroke:#000000; stroke-width:0.000000; stroke-opacity:1; 
stroke-linecap:round; stroke-linejoin:round;">
<path style="fill:#000000; fill-opacity:1.000000; 
stroke:#000000; stroke-width:0.000000; stroke-opacity:1; 
stroke-linecap:round; stroke-linejoin:round;fill-rule:evenodd;"
d="M 76.350897,69.077868
76.321562,69.052142
76.304304,69.017148
76.301753,68.978213
76.314295,68.941266
76.531795,68.564544
76.557521,68.535209
76.592515,68.517951
76.631450,68.515400
76.668397,68.527942
76.841603,68.627942
76.870938,68.653668
76.888196,68.688662
76.890747,68.727597
76.878205,68.764544
76.660705,69.141266
76.634979,69.170601
76.599985,69.187859
76.561050,69.190410
76.524103,69.177868
Z" /> 
<path style="fill:#000000; fill-opacity:1.000000; 
stroke:#000000; stroke-width:0.000000; stroke-opacity:1; 
stroke-linecap:round; stroke-linejoin:round;fill-rule:evenodd;"
d="M 76.758397,68.372058
76.729062,68.346332
76.711804,68.311338
76.709253,68.272403
76.721795,68.235456
76.939295,67.858734
76.965021,67.829399
77.000015,67.812141
77.038950,67.809590
77.075897,67.822132
77.249103,67.922132
77.278438,67.947858
77.295696,67.982852
77.298247,68.021787
77.285705,68.058734
77.068205,68.435456
77.042479,68.464791
77.007485,68.482049
76.968550,68.484600
76.931603,68.472058
Z" /> 
</g>
<g >
</g>
<g >
</g>
<g style="fill:#000000; fill-opacity:1.000000; 
stroke:#000000; stroke-width:0.000000; stroke-opacity:1; 
stroke-linecap:round; stroke-linejoin:round;">
<path style="fill:#000000; fill-opacity:1.000000; 
stroke:#000000; stroke-width:0.000000; stroke-opacity:1; 
stroke-linecap:round; stroke-linejoin:round;fill-rule:evenodd;"
d="M 86.075897,67.745135
86.038950,67.757677
86.000015,67.755126
85.965021,67.737868
85.939295,67.708533
85.721795,67.331811
85.709253,67.294864
85.711804,67.255929
85.729062,67.220935
85.758397,67.195209
85.931603,67.095209
85.968550,67.082667
86.007485,67.085218
86.042479,67.102476
86.068205,67.131811
86.285705,67.508533
86.298247,67.545480
86.295696,67.584415
86.278438,67.619409
86.249103,67.645135
Z" /> 
<path style="fill:#000000; fill-opacity:1.000000; 
stroke:#000000; stroke-width:0.000000; stroke-opacity:1; 
stroke-linecap:round; stroke-linejoin:round;fill-rule:evenodd;"
d="M 85.668397,67.039325
85.631450,67.051867
85.592515,67.049316
85.557521,67.032058
85.531795,67.002723
85.314295,66.626001
85.301753,66.589054
85.304304,66.550119
85.321562,66.515125
85.350897,66.489399
85.524103,66.389399
85.561050,66.376857
85.599985,66.379408
85.634979,66.396666
85.660705,66.426001
85.878205,66.802723
85.890747,66.839670
85.888196,66.878605
85.870938,66.913599
85.841603,66.939325
Z" /> 
</g>
<g >
</g>
<g style="fill:#000000; fill-opacity:1.000000; 
stroke:#000000; stroke-width:0.000000; stroke-opacity:1; 
stroke-linecap:round; stroke-linejoin:round;">
<path style="fill:#000000; fill-opacity:1.000000; 
stroke:#000000; stroke-width:0.000000; stroke-opacity:1; 
stroke-linecap:round; stroke-linejoin:round;fill-rule:evenodd;"
d="M 70.922132,56.350897
70.947858,56.321562
70.982852,56.304304
71.021787,56.301753
71.058734,56.314295
71.435456,56.531795
71.464791,56.557521
71.482049,56.592515
71.484600,56.631450
71.472058,56.668397
71.372058,56.841603
71.346332,56.870938
71.311338,56.888196
71.272403,56.890747
71.235456,56.878205
70.858734,56.660705
70.829399,56.634979
70.812141,56.599985
70.809590,56.561050
70.822132,56.524103
Z" /> 
<path style="fill:#000000; fill-opacity:1.000000; 
stroke:#000000; stroke-width:0.000000; stroke-opacity:1; 
stroke-linecap:round; stroke-linejoin:round;fill-rule:evenodd;"
d="M 71.627942,56.758397
71.653668,56.729062
71.688662,56.711804
71.727597,56.709253
71.764544,56.721795
72.141266,56.939295
72.170601,56.965021
72.187859,57.000015
72.190410,57.038950
72.177868,57.075897
72.077868,57.249103
72.052142,57.278438
72.017148,57.295696
71.978213,57.298247
71.941266,57.285705
71.564544,57.068205
71.535209,57.042479
71.517951,57.007485
71.515400,56.968550
71.527942,56.931603
Z" /> 
</g>
<g >
</g>
<g style="fill:#000000; fill-opacity:1.000000; 
stroke:#000000; stroke-width:0.000000; stroke-opacity:1; 
stroke-linecap:round; stroke-linejoin:round;">
<path style="fill:#000000; fill-opacity:1.000000; 
stroke:#000000; stroke-width:0.000000; stroke-opacity:1; 
stroke-linecap:round; stroke-linejoin:round;fill-rule:evenodd;"
d="M 81.400000,69.755000
81.361732,69.747388
81.329289,69.725711
81.307612,69.693268
81.300000,69.655000
81.300000,69.220000
81.307612,69.181732
81.329289,69.149289
81.361732,69.127612
81.400000,69.120000
81.600000,69.120000
81.638268,69.127612
81.670711,69.149289
81.692388,69.181732
81.700000,69.220000
81.700000,69.655000
81.692388,69.693268
81.670711,69.725711
81.638268,69.747388
81.600000,69.755000
Z" /> 
<path style="fill:#000000; fill-opacity:1.000000; 
stroke:#000000; stroke-width:0.000000; stroke-opacity:1; 
stroke-linecap:round; stroke-linejoin:round;fill-rule:evenodd;"
d="M 81.400000,68.940000
81.361732,68.932388
81.329289,68.910711
81.307612,68.878268
81.300000,68.840000
81.300000,68.405000
81.307612,68.366732
81.329289,68.334289
81.361732,68.312612
81.400000,68.305000
81.600000,68.305000
81.638268,68.312612
81.670711,68.334289
81.692388,68.366732
81.700000,68.405000
81.700000,68.840000
81.692388,68.878268
81.670711,68.910711
81.638268,68.932388
81.600000,68.940000
Z" /> 
</g>
<g >
</g>
<g style="fill:#000000; fill-opacity:1.000000; 
stroke:#000000; stroke-width:0.000000; stroke-opacity:1; 
stroke-linecap:round; stroke-linejoin:round;">
<path style="fill:#000000; fill-opacity:1.000000; 
stroke:#000000; stroke-width:0.000000; stroke-opacity:1; 
stroke-linecap:round; stroke-linejoin:round;fill-rule:evenodd;"
d="M 88.500446,55.323205
88.750446,55.756217
88.317434,56.006217
88.067434,55.573205
Z" /> 
<path style="fill:#000000; fill-opacity:1.000000; 
stroke:#000000; stroke-width:0.000000; stroke-opacity:1; 
stroke-linecap:round; stroke-linejoin:round;fill-rule:evenodd;"
d="M 88.050446,54.543783
88.300446,54.976795
87.867434,55.226795
87.617434,54.793783
Z" /> 
<path style="fill:#000000; fill-opacity:1.000000; 
stroke:#000000; stroke-width:0.000000; stroke-opacity:1; 
stroke-linecap:round; stroke-linejoin:round;fill-rule:evenodd;"
d="M 87.271024,54.993783
87.521024,55.426795
87.088012,55.676795
86.838012,55.243783
Z" /> 
<path style="fill:#000000; fill-opacity:1.000000; 
stroke:#000000; stroke-width:0.000000; stroke-opacity:1; 
stroke-linecap:round; stroke-linejoin:round;fill-rule:evenodd;"
d="M 87.721024,55.773205
87.971024,56.206217
87.538012,56.456217
87.288012,56.023205
Z" /> 
</g>
<g >
</g>
<g style="fill:#000000; fill-opacity:1.000000; 
stroke:#000000; stroke-width:0.000000; stroke-opacity:1; 
stroke-linecap:round; stroke-linejoin:round;">
<path style="fill:#000000; fill-opacity:1.000000; 
stroke:#000000; stroke-width:0.000000; stroke-opacity:1; 
stroke-linecap:round; stroke-linejoin:round;fill-rule:evenodd;"
d="M 88.425000,58.500000
88.432612,58.461732
88.454289,58.429289
88.486732,58.407612
88.525000,58.400000
88.960000,58.400000
88.998268,58.407612
89.030711,58.429289
89.052388,58.461732
89.060000,58.500000
89.060000,58.700000
89.052388,58.738268
89.030711,58.770711
88.998268,58.792388
88.960000,58.800000
88.525000,58.800000
88.486732,58.792388
88.454289,58.770711
88.432612,58.738268
88.425000,58.700000
Z" /> 
<path style="fill:#000000; fill-opacity:1.000000; 
stroke:#000000; stroke-width:0.000000; stroke-opacity:1; 
stroke-linecap:round; stroke-linejoin:round;fill-rule:evenodd;"
d="M 89.240000,58.500000
89.247612,58.461732
89.269289,58.429289
89.301732,58.407612
89.340000,58.400000
89.775000,58.400000
89.813268,58.407612
89.845711,58.429289
89.867388,58.461732
89.875000,58.500000
89.875000,58.700000
89.867388,58.738268
89.845711,58.770711
89.813268,58.792388
89.775000,58.800000
89.340000,58.800000
89.301732,58.792388
89.269289,58.770711
89.247612,58.738268
89.240000,58.700000
Z" /> 
</g>
<g >
</g>
<g style="fill:#000000; fill-opacity:1.000000; 
stroke:#000000; stroke-width:0.000000; stroke-opacity:1; 
stroke-linecap:round; stroke-linejoin:round;">
<path style="fill:#000000; fill-opacity:1.000000; 
stroke:#000000; stroke-width:0.000000; stroke-opacity:1; 
stroke-linecap:round; stroke-linejoin:round;fill-rule:evenodd;"
d="M 87.677868,53.974103
87.690410,54.011050
87.687859,54.049985
87.670601,54.084979
87.641266,54.110705
87.264544,54.328205
87.227597,54.340747
87.188662,54.338196
87.153668,54.320938
87.127942,54.291603
87.027942,54.118397
87.015400,54.081450
87.017951,54.042515
87.035209,54.007521
87.064544,53.981795
87.441266,53.764295
87.478213,53.751753
87.517148,53.754304
87.552142,53.771562
87.577868,53.800897
Z" /> 
<path style="fill:#000000; fill-opacity:1.000000; 
stroke:#000000; stroke-width:0.000000; stroke-opacity:1; 
stroke-linecap:round; stroke-linejoin:round;fill-rule:evenodd;"
d="M 86.972058,54.381603
86.984600,54.418550
86.982049,54.457485
86.964791,54.492479
86.935456,54.518205
86.558734,54.735705
86.521787,54.748247
86.482852,54.745696
86.447858,54.728438
86.422132,54.699103
86.322132,54.525897
86.309590,54.488950
86.312141,54.450015
86.329399,54.415021
86.358734,54.389295
86.735456,54.171795
86.772403,54.159253
86.811338,54.161804
86.846332,54.179062
86.872058,54.208397
Z" /> 
</g>
<g >
</g>
<g style="fill:#000000; fill-opacity:1.000000; 
stroke:#000000; stroke-width:0.000000; stroke-opacity:1; 
stroke-linecap:round; stroke-linejoin:round;">
<path style="fill:#000000; fill-opacity:1.000000; 
stroke:#000000; stroke-width:0.000000; stroke-opacity:1; 
stroke-linecap:round; stroke-linejoin:round;fill-rule:evenodd;"
d="M 75.323205,51.499554
75.756217,51.249554
76.006217,51.682566
75.573205,51.932566
Z" /> 
<path style="fill:#000000; fill-opacity:1.000000; 
stroke:#000000; stroke-width:0.000000; stroke-opacity:1; 
stroke-linecap:round; stroke-linejoin:round;fill-rule:evenodd;"
d="M 74.543783,51.949554
74.976795,51.699554
75.226795,52.132566
74.793783,52.382566
Z" /> 
<path style="fill:#000000; fill-opacity:1.000000; 
stroke:#000000; stroke-width:0.000000; stroke-opacity:1; 
stroke-linecap:round; stroke-linejoin:round;fill-rule:evenodd;"
d="M 74.993783,52.728976
75.426795,52.478976
75.676795,52.911988
75.243783,53.161988
Z" /> 
<path style="fill:#000000; fill-opacity:1.000000; 
stroke:#000000; stroke-width:0.000000; stroke-opacity:1; 
stroke-linecap:round; stroke-linejoin:round;fill-rule:evenodd;"
d="M 75.773205,52.278976
76.206217,52.028976
76.456217,52.461988
76.023205,52.711988
Z" /> 
</g>
<g >
</g>
<g style="fill:#000000; fill-opacity:1.000000; 
stroke:#000000; stroke-width:0.000000; stroke-opacity:1; 
stroke-linecap:round; stroke-linejoin:round;">
<path style="fill:#000000; fill-opacity:1.000000; 
stroke:#000000; stroke-width:0.000000; stroke-opacity:1; 
stroke-linecap:round; stroke-linejoin:round;fill-rule:evenodd;"
d="M 89.127868,63.699103
89.102142,63.728438
89.067148,63.745696
89.028213,63.748247
88.991266,63.735705
88.614544,63.518205
88.585209,63.492479
88.567951,63.457485
88.565400,63.418550
88.577942,63.381603
88.677942,63.208397
88.703668,63.179062
88.738662,63.161804
88.777597,63.159253
88.814544,63.171795
89.191266,63.389295
89.220601,63.415021
89.237859,63.450015
89.240410,63.488950
89.227868,63.525897
Z" /> 
<path style="fill:#000000; fill-opacity:1.000000; 
stroke:#000000; stroke-width:0.000000; stroke-opacity:1; 
stroke-linecap:round; stroke-linejoin:round;fill-rule:evenodd;"
d="M 88.422058,63.291603
88.396332,63.320938
88.361338,63.338196
88.322403,63.340747
88.285456,63.328205
87.908734,63.110705
87.879399,63.084979
87.862141,63.049985
87.859590,63.011050
87.872132,62.974103
87.972132,62.800897
87.997858,62.771562
88.032852,62.754304
88.071787,62.751753
88.108734,62.764295
88.485456,62.981795
88.514791,63.007521
88.532049,63.042515
88.534600,63.081450
88.522058,63.118397
Z" /> 
</g>
<g >
</g>
<g style="fill:#000000; fill-opacity:1.000000; 
stroke:#000000; stroke-width:0.000000; stroke-opacity:1; 
stroke-linecap:round; stroke-linejoin:round;">
<path style="fill:#000000; fill-opacity:1.000000; 
stroke:#000000; stroke-width:0.000000; stroke-opacity:1; 
stroke-linecap:round; stroke-linejoin:round;fill-rule:evenodd;"
d="M 74.976795,68.300446
74.543783,68.050446
74.793783,67.617434
75.226795,67.867434
Z" /> 
<path style="fill:#000000; fill-opacity:1.000000; 
stroke:#000000; stroke-width:0.000000; stroke-opacity:1; 
stroke-linecap:round; stroke-linejoin:round;fill-rule:evenodd;"
d="M 75.756217,68.750446
75.323205,68.500446
75.573205,68.067434
76.006217,68.317434
Z" /> 
<path style="fill:#000000; fill-opacity:1.000000; 
stroke:#000000; stroke-width:0.000000; stroke-opacity:1; 
stroke-linecap:round; stroke-linejoin:round;fill-rule:evenodd;"
d="M 76.206217,67.971024
75.773205,67.721024
76.023205,67.288012
76.456217,67.538012
Z" /> 
<path style="fill:#000000; fill-opacity:1.000000; 
stroke:#000000; stroke-width:0.000000; stroke-opacity:1; 
stroke-linecap:round; stroke-linejoin:round;fill-rule:evenodd;"
d="M 75.426795,67.521024
74.993783,67.271024
75.243783,66.838012
75.676795,67.088012
Z" /> 
</g>
<g >
</g>
<g style="fill:#000000; fill-opacity:1.000000; 
stroke:#000000; stroke-width:0.000000; stroke-opacity:1; 
stroke-linecap:round; stroke-linejoin:round;">
<path style="fill:#000000; fill-opacity:1.000000; 
stroke:#000000; stroke-width:0.000000; stroke-opacity:1; 
stroke-linecap:round; stroke-linejoin:round;fill-rule:evenodd;"
d="M 85.023205,51.699554
85.456217,51.949554
85.206217,52.382566
84.773205,52.132566
Z" /> 
<path style="fill:#000000; fill-opacity:1.000000; 
stroke:#000000; stroke-width:0.000000; stroke-opacity:1; 
stroke-linecap:round; stroke-linejoin:round;fill-rule:evenodd;"
d="M 84.243783,51.249554
84.676795,51.499554
84.426795,51.932566
83.993783,51.682566
Z" /> 
<path style="fill:#000000; fill-opacity:1.000000; 
stroke:#000000; stroke-width:0.000000; stroke-opacity:1; 
stroke-linecap:round; stroke-linejoin:round;fill-rule:evenodd;"
d="M 83.793783,52.028976
84.226795,52.278976
83.976795,52.711988
83.543783,52.461988
Z" /> 
<path style="fill:#000000; fill-opacity:1.000000; 
stroke:#000000; stroke-width:0.000000; stroke-opacity:1; 
stroke-linecap:round; stroke-linejoin:round;fill-rule:evenodd;"
d="M 84.573205,52.478976
85.006217,52.728976
84.756217,53.161988
84.323205,52.911988
Z" /> 
</g>
<g >
</g>
<g style="fill:#000000; fill-opacity:1.000000; 
stroke:#000000; stroke-width:0.000000; stroke-opacity:1; 
stroke-linecap:round; stroke-linejoin:round;">
<path style="fill:#000000; fill-opacity:1.000000; 
stroke:#000000; stroke-width:0.000000; stroke-opacity:1; 
stroke-linecap:round; stroke-linejoin:round;fill-rule:evenodd;"
d="M 89.635000,61.750000
89.627388,61.788268
89.605711,61.820711
89.573268,61.842388
89.535000,61.850000
89.100000,61.850000
89.061732,61.842388
89.029289,61.820711
89.007612,61.788268
89.000000,61.750000
89.000000,61.550000
89.007612,61.511732
89.029289,61.479289
89.061732,61.457612
89.100000,61.450000
89.535000,61.450000
89.573268,61.457612
89.605711,61.479289
89.627388,61.511732
89.635000,61.550000
Z" /> 
<path style="fill:#000000; fill-opacity:1.000000; 
stroke:#000000; stroke-width:0.000000; stroke-opacity:1; 
stroke-linecap:round; stroke-linejoin:round;fill-rule:evenodd;"
d="M 88.820000,61.750000
88.812388,61.788268
88.790711,61.820711
88.758268,61.842388
88.720000,61.850000
88.285000,61.850000
88.246732,61.842388
88.214289,61.820711
88.192612,61.788268
88.185000,61.750000
88.185000,61.550000
88.192612,61.511732
88.214289,61.479289
88.246732,61.457612
88.285000,61.450000
88.720000,61.450000
88.758268,61.457612
88.790711,61.479289
88.812388,61.511732
88.820000,61.550000
Z" /> 
</g>
<g >
</g>
<g style="fill:#000000; fill-opacity:1.000000; 
stroke:#000000; stroke-width:0.000000; stroke-opacity:1; 
stroke-linecap:round; stroke-linejoin:round;">
<path style="fill:#000000; fill-opacity:1.000000; 
stroke:#000000; stroke-width:0.000000; stroke-opacity:1; 
stroke-linecap:round; stroke-linejoin:round;fill-rule:evenodd;"
d="M 83.649103,50.922132
83.678438,50.947858
83.695696,50.982852
83.698247,51.021787
83.685705,51.058734
83.468205,51.435456
83.442479,51.464791
83.407485,51.482049
83.368550,51.484600
83.331603,51.472058
83.158397,51.372058
83.129062,51.346332
83.111804,51.311338
83.109253,51.272403
83.121795,51.235456
83.339295,50.858734
83.365021,50.829399
83.400015,50.812141
83.438950,50.809590
83.475897,50.822132
Z" /> 
<path style="fill:#000000; fill-opacity:1.000000; 
stroke:#000000; stroke-width:0.000000; stroke-opacity:1; 
stroke-linecap:round; stroke-linejoin:round;fill-rule:evenodd;"
d="M 83.241603,51.627942
83.270938,51.653668
83.288196,51.688662
83.290747,51.727597
83.278205,51.764544
83.060705,52.141266
83.034979,52.170601
82.999985,52.187859
82.961050,52.190410
82.924103,52.177868
82.750897,52.077868
82.721562,52.052142
82.704304,52.017148
82.701753,51.978213
82.714295,51.941266
82.931795,51.564544
82.957521,51.535209
82.992515,51.517951
83.031450,51.515400
83.068397,51.527942
Z" /> 
</g>
<g >
</g>
<g >
</g>
<g >
</g>
<g >
</g>
<g >
</g>
</g> 
</svg>
