<?xml version="1.0" standalone="no"?>
 <!DOCTYPE svg PUBLIC "-//W3C//DTD SVG 1.1//EN" 
 "http://www.w3.org/Graphics/SVG/1.1/DTD/svg11.dtd"> 
<svg
  xmlns:svg="http://www.w3.org/2000/svg"
  xmlns="http://www.w3.org/2000/svg"
  xmlns:xlink="http://www.w3.org/1999/xlink"
  version="1.1"
  width="2.6100000000000003cm" height="2.6100000000000003cm" viewBox="66.95 46.95 26.1 26.1">
<title>SVG Image created as pedalboard-led-ring-F_Paste.svg date 2023/10/17 18:24:59 </title>
  <desc>Image generated by PCBNEW </desc>
<g style="fill:#000000; fill-opacity:1.000000;stroke:#000000; stroke-opacity:1.000000;
stroke-linecap:round; stroke-linejoin:round;"
 transform="translate(0 0) scale(1 1)">
</g>
<g style="fill:#000000; fill-opacity:0.0; 
stroke:#000000; stroke-width:0.000000; stroke-opacity:1; 
stroke-linecap:round; stroke-linejoin:round;">
<g >
</g>
<g style="fill:#000000; fill-opacity:0.0; 
stroke:#000000; stroke-width:0.000000; stroke-opacity:1; 
stroke-linecap:round; stroke-linejoin:round;">
</g>
<g style="fill:#000000; fill-opacity:1.000000; 
stroke:#000000; stroke-width:0.000000; stroke-opacity:1; 
stroke-linecap:round; stroke-linejoin:round;">
<path style="fill:#000000; fill-opacity:1.000000; 
stroke:#000000; stroke-width:0.000000; stroke-opacity:1; 
stroke-linecap:round; stroke-linejoin:round;fill-rule:evenodd;"
d="M 84.676795,68.500446
84.243783,68.750446
83.993783,68.317434
84.426795,68.067434
Z" /> 
<path style="fill:#000000; fill-opacity:1.000000; 
stroke:#000000; stroke-width:0.000000; stroke-opacity:1; 
stroke-linecap:round; stroke-linejoin:round;fill-rule:evenodd;"
d="M 85.456217,68.050446
85.023205,68.300446
84.773205,67.867434
85.206217,67.617434
Z" /> 
<path style="fill:#000000; fill-opacity:1.000000; 
stroke:#000000; stroke-width:0.000000; stroke-opacity:1; 
stroke-linecap:round; stroke-linejoin:round;fill-rule:evenodd;"
d="M 85.006217,67.271024
84.573205,67.521024
84.323205,67.088012
84.756217,66.838012
Z" /> 
<path style="fill:#000000; fill-opacity:1.000000; 
stroke:#000000; stroke-width:0.000000; stroke-opacity:1; 
stroke-linecap:round; stroke-linejoin:round;fill-rule:evenodd;"
d="M 84.226795,67.721024
83.793783,67.971024
83.543783,67.538012
83.976795,67.288012
Z" /> 
</g>
<g >
</g>
<g style="fill:#000000; fill-opacity:1.000000; 
stroke:#000000; stroke-width:0.000000; stroke-opacity:1; 
stroke-linecap:round; stroke-linejoin:round;">
<path style="fill:#000000; fill-opacity:1.000000; 
stroke:#000000; stroke-width:0.000000; stroke-opacity:1; 
stroke-linecap:round; stroke-linejoin:round;fill-rule:evenodd;"
d="M 78.590000,50.398500
78.624442,50.405351
78.653640,50.424860
78.673149,50.454058
78.680000,50.488500
78.680000,50.766500
78.673149,50.800942
78.653640,50.830140
78.624442,50.849649
78.590000,50.856500
78.410000,50.856500
78.375558,50.849649
78.346360,50.830140
78.326851,50.800942
78.320000,50.766500
78.320000,50.488500
78.326851,50.454058
78.346360,50.424860
78.375558,50.405351
78.410000,50.398500
Z" /> 
<path style="fill:#000000; fill-opacity:1.000000; 
stroke:#000000; stroke-width:0.000000; stroke-opacity:1; 
stroke-linecap:round; stroke-linejoin:round;fill-rule:evenodd;"
d="M 78.590000,51.263500
78.624442,51.270351
78.653640,51.289860
78.673149,51.319058
78.680000,51.353500
78.680000,51.631500
78.673149,51.665942
78.653640,51.695140
78.624442,51.714649
78.590000,51.721500
78.410000,51.721500
78.375558,51.714649
78.346360,51.695140
78.326851,51.665942
78.320000,51.631500
78.320000,51.353500
78.326851,51.319058
78.346360,51.289860
78.375558,51.270351
78.410000,51.263500
Z" /> 
</g>
<g >
</g>
<g style="fill:#000000; fill-opacity:1.000000; 
stroke:#000000; stroke-width:0.000000; stroke-opacity:1; 
stroke-linecap:round; stroke-linejoin:round;">
<path style="fill:#000000; fill-opacity:1.000000; 
stroke:#000000; stroke-width:0.000000; stroke-opacity:1; 
stroke-linecap:round; stroke-linejoin:round;fill-rule:evenodd;"
d="M 73.937192,52.314857
73.970445,52.303569
74.005486,52.305866
74.036980,52.321397
74.060135,52.347799
74.199135,52.588555
74.210422,52.621808
74.208126,52.656848
74.192594,52.688343
74.166192,52.711497
74.010308,52.801497
73.977055,52.812785
73.942014,52.810488
73.910520,52.794957
73.887365,52.768555
73.748365,52.527799
73.737078,52.494546
73.739374,52.459506
73.754906,52.428011
73.781308,52.404857
Z" /> 
<path style="fill:#000000; fill-opacity:1.000000; 
stroke:#000000; stroke-width:0.000000; stroke-opacity:1; 
stroke-linecap:round; stroke-linejoin:round;fill-rule:evenodd;"
d="M 74.369692,53.063969
74.402945,53.052681
74.437986,53.054978
74.469480,53.070509
74.492635,53.096911
74.631635,53.337667
74.642922,53.370920
74.640626,53.405960
74.625094,53.437455
74.598692,53.460609
74.442808,53.550609
74.409555,53.561897
74.374514,53.559600
74.343020,53.544069
74.319865,53.517667
74.180865,53.276911
74.169578,53.243658
74.171874,53.208618
74.187406,53.177123
74.213808,53.153969
Z" /> 
</g>
<g >
</g>
<g style="fill:#000000; fill-opacity:1.000000; 
stroke:#000000; stroke-width:0.000000; stroke-opacity:1; 
stroke-linecap:round; stroke-linejoin:round;">
<path style="fill:#000000; fill-opacity:1.000000; 
stroke:#000000; stroke-width:0.000000; stroke-opacity:1; 
stroke-linecap:round; stroke-linejoin:round;fill-rule:evenodd;"
d="M 89.700000,60.200000
89.700000,60.700000
89.200000,60.700000
89.200000,60.200000
Z" /> 
<path style="fill:#000000; fill-opacity:1.000000; 
stroke:#000000; stroke-width:0.000000; stroke-opacity:1; 
stroke-linecap:round; stroke-linejoin:round;fill-rule:evenodd;"
d="M 89.700000,59.300000
89.700000,59.800000
89.200000,59.800000
89.200000,59.300000
Z" /> 
<path style="fill:#000000; fill-opacity:1.000000; 
stroke:#000000; stroke-width:0.000000; stroke-opacity:1; 
stroke-linecap:round; stroke-linejoin:round;fill-rule:evenodd;"
d="M 88.800000,59.300000
88.800000,59.800000
88.300000,59.800000
88.300000,59.300000
Z" /> 
<path style="fill:#000000; fill-opacity:1.000000; 
stroke:#000000; stroke-width:0.000000; stroke-opacity:1; 
stroke-linecap:round; stroke-linejoin:round;fill-rule:evenodd;"
d="M 88.800000,60.200000
88.800000,60.700000
88.300000,60.700000
88.300000,60.200000
Z" /> 
</g>
<g >
</g>
<g style="fill:#000000; fill-opacity:1.000000; 
stroke:#000000; stroke-width:0.000000; stroke-opacity:1; 
stroke-linecap:round; stroke-linejoin:round;">
<path style="fill:#000000; fill-opacity:1.000000; 
stroke:#000000; stroke-width:0.000000; stroke-opacity:1; 
stroke-linecap:round; stroke-linejoin:round;fill-rule:evenodd;"
d="M 80.200000,50.300000
80.700000,50.300000
80.700000,50.800000
80.200000,50.800000
Z" /> 
<path style="fill:#000000; fill-opacity:1.000000; 
stroke:#000000; stroke-width:0.000000; stroke-opacity:1; 
stroke-linecap:round; stroke-linejoin:round;fill-rule:evenodd;"
d="M 79.300000,50.300000
79.800000,50.300000
79.800000,50.800000
79.300000,50.800000
Z" /> 
<path style="fill:#000000; fill-opacity:1.000000; 
stroke:#000000; stroke-width:0.000000; stroke-opacity:1; 
stroke-linecap:round; stroke-linejoin:round;fill-rule:evenodd;"
d="M 79.300000,51.200000
79.800000,51.200000
79.800000,51.700000
79.300000,51.700000
Z" /> 
<path style="fill:#000000; fill-opacity:1.000000; 
stroke:#000000; stroke-width:0.000000; stroke-opacity:1; 
stroke-linecap:round; stroke-linejoin:round;fill-rule:evenodd;"
d="M 80.200000,51.200000
80.700000,51.200000
80.700000,51.700000
80.200000,51.700000
Z" /> 
</g>
<g >
</g>
<g style="fill:#000000; fill-opacity:1.000000; 
stroke:#000000; stroke-width:0.000000; stroke-opacity:1; 
stroke-linecap:round; stroke-linejoin:round;">
<path style="fill:#000000; fill-opacity:1.000000; 
stroke:#000000; stroke-width:0.000000; stroke-opacity:1; 
stroke-linecap:round; stroke-linejoin:round;fill-rule:evenodd;"
d="M 88.300446,65.023205
88.050446,65.456217
87.617434,65.206217
87.867434,64.773205
Z" /> 
<path style="fill:#000000; fill-opacity:1.000000; 
stroke:#000000; stroke-width:0.000000; stroke-opacity:1; 
stroke-linecap:round; stroke-linejoin:round;fill-rule:evenodd;"
d="M 88.750446,64.243783
88.500446,64.676795
88.067434,64.426795
88.317434,63.993783
Z" /> 
<path style="fill:#000000; fill-opacity:1.000000; 
stroke:#000000; stroke-width:0.000000; stroke-opacity:1; 
stroke-linecap:round; stroke-linejoin:round;fill-rule:evenodd;"
d="M 87.971024,63.793783
87.721024,64.226795
87.288012,63.976795
87.538012,63.543783
Z" /> 
<path style="fill:#000000; fill-opacity:1.000000; 
stroke:#000000; stroke-width:0.000000; stroke-opacity:1; 
stroke-linecap:round; stroke-linejoin:round;fill-rule:evenodd;"
d="M 87.521024,64.573205
87.271024,65.006217
86.838012,64.756217
87.088012,64.323205
Z" /> 
</g>
<g >
</g>
<g style="fill:#000000; fill-opacity:1.000000; 
stroke:#000000; stroke-width:0.000000; stroke-opacity:1; 
stroke-linecap:round; stroke-linejoin:round;">
<path style="fill:#000000; fill-opacity:1.000000; 
stroke:#000000; stroke-width:0.000000; stroke-opacity:1; 
stroke-linecap:round; stroke-linejoin:round;fill-rule:evenodd;"
d="M 71.499554,64.676795
71.249554,64.243783
71.682566,63.993783
71.932566,64.426795
Z" /> 
<path style="fill:#000000; fill-opacity:1.000000; 
stroke:#000000; stroke-width:0.000000; stroke-opacity:1; 
stroke-linecap:round; stroke-linejoin:round;fill-rule:evenodd;"
d="M 71.949554,65.456217
71.699554,65.023205
72.132566,64.773205
72.382566,65.206217
Z" /> 
<path style="fill:#000000; fill-opacity:1.000000; 
stroke:#000000; stroke-width:0.000000; stroke-opacity:1; 
stroke-linecap:round; stroke-linejoin:round;fill-rule:evenodd;"
d="M 72.728976,65.006217
72.478976,64.573205
72.911988,64.323205
73.161988,64.756217
Z" /> 
<path style="fill:#000000; fill-opacity:1.000000; 
stroke:#000000; stroke-width:0.000000; stroke-opacity:1; 
stroke-linecap:round; stroke-linejoin:round;fill-rule:evenodd;"
d="M 72.278976,64.226795
72.028976,63.793783
72.461988,63.543783
72.711988,63.976795
Z" /> 
</g>
<g >
</g>
<g style="fill:#000000; fill-opacity:1.000000; 
stroke:#000000; stroke-width:0.000000; stroke-opacity:1; 
stroke-linecap:round; stroke-linejoin:round;">
<path style="fill:#000000; fill-opacity:1.000000; 
stroke:#000000; stroke-width:0.000000; stroke-opacity:1; 
stroke-linecap:round; stroke-linejoin:round;fill-rule:evenodd;"
d="M 79.800000,69.700000
79.300000,69.700000
79.300000,69.200000
79.800000,69.200000
Z" /> 
<path style="fill:#000000; fill-opacity:1.000000; 
stroke:#000000; stroke-width:0.000000; stroke-opacity:1; 
stroke-linecap:round; stroke-linejoin:round;fill-rule:evenodd;"
d="M 80.700000,69.700000
80.200000,69.700000
80.200000,69.200000
80.700000,69.200000
Z" /> 
<path style="fill:#000000; fill-opacity:1.000000; 
stroke:#000000; stroke-width:0.000000; stroke-opacity:1; 
stroke-linecap:round; stroke-linejoin:round;fill-rule:evenodd;"
d="M 80.700000,68.800000
80.200000,68.800000
80.200000,68.300000
80.700000,68.300000
Z" /> 
<path style="fill:#000000; fill-opacity:1.000000; 
stroke:#000000; stroke-width:0.000000; stroke-opacity:1; 
stroke-linecap:round; stroke-linejoin:round;fill-rule:evenodd;"
d="M 79.800000,68.800000
79.300000,68.800000
79.300000,68.300000
79.800000,68.300000
Z" /> 
</g>
<g >
</g>
<g style="fill:#000000; fill-opacity:1.000000; 
stroke:#000000; stroke-width:0.000000; stroke-opacity:1; 
stroke-linecap:round; stroke-linejoin:round;">
<path style="fill:#000000; fill-opacity:1.000000; 
stroke:#000000; stroke-width:0.000000; stroke-opacity:1; 
stroke-linecap:round; stroke-linejoin:round;fill-rule:evenodd;"
d="M 70.300000,59.800000
70.300000,59.300000
70.800000,59.300000
70.800000,59.800000
Z" /> 
<path style="fill:#000000; fill-opacity:1.000000; 
stroke:#000000; stroke-width:0.000000; stroke-opacity:1; 
stroke-linecap:round; stroke-linejoin:round;fill-rule:evenodd;"
d="M 70.300000,60.700000
70.300000,60.200000
70.800000,60.200000
70.800000,60.700000
Z" /> 
<path style="fill:#000000; fill-opacity:1.000000; 
stroke:#000000; stroke-width:0.000000; stroke-opacity:1; 
stroke-linecap:round; stroke-linejoin:round;fill-rule:evenodd;"
d="M 71.200000,60.700000
71.200000,60.200000
71.700000,60.200000
71.700000,60.700000
Z" /> 
<path style="fill:#000000; fill-opacity:1.000000; 
stroke:#000000; stroke-width:0.000000; stroke-opacity:1; 
stroke-linecap:round; stroke-linejoin:round;fill-rule:evenodd;"
d="M 71.200000,59.800000
71.200000,59.300000
71.700000,59.300000
71.700000,59.800000
Z" /> 
</g>
<g >
</g>
<g style="fill:#000000; fill-opacity:1.000000; 
stroke:#000000; stroke-width:0.000000; stroke-opacity:1; 
stroke-linecap:round; stroke-linejoin:round;">
<path style="fill:#000000; fill-opacity:1.000000; 
stroke:#000000; stroke-width:0.000000; stroke-opacity:1; 
stroke-linecap:round; stroke-linejoin:round;fill-rule:evenodd;"
d="M 71.699554,54.976795
71.949554,54.543783
72.382566,54.793783
72.132566,55.226795
Z" /> 
<path style="fill:#000000; fill-opacity:1.000000; 
stroke:#000000; stroke-width:0.000000; stroke-opacity:1; 
stroke-linecap:round; stroke-linejoin:round;fill-rule:evenodd;"
d="M 71.249554,55.756217
71.499554,55.323205
71.932566,55.573205
71.682566,56.006217
Z" /> 
<path style="fill:#000000; fill-opacity:1.000000; 
stroke:#000000; stroke-width:0.000000; stroke-opacity:1; 
stroke-linecap:round; stroke-linejoin:round;fill-rule:evenodd;"
d="M 72.028976,56.206217
72.278976,55.773205
72.711988,56.023205
72.461988,56.456217
Z" /> 
<path style="fill:#000000; fill-opacity:1.000000; 
stroke:#000000; stroke-width:0.000000; stroke-opacity:1; 
stroke-linecap:round; stroke-linejoin:round;fill-rule:evenodd;"
d="M 72.478976,55.426795
72.728976,54.993783
73.161988,55.243783
72.911988,55.676795
Z" /> 
</g>
<g >
</g>
<g style="fill:#000000; fill-opacity:1.000000; 
stroke:#000000; stroke-width:0.000000; stroke-opacity:1; 
stroke-linecap:round; stroke-linejoin:round;">
<path style="fill:#000000; fill-opacity:1.000000; 
stroke:#000000; stroke-width:0.000000; stroke-opacity:1; 
stroke-linecap:round; stroke-linejoin:round;fill-rule:evenodd;"
d="M 70.338500,61.410000
70.345351,61.375558
70.364860,61.346360
70.394058,61.326851
70.428500,61.320000
70.706500,61.320000
70.740942,61.326851
70.770140,61.346360
70.789649,61.375558
70.796500,61.410000
70.796500,61.590000
70.789649,61.624442
70.770140,61.653640
70.740942,61.673149
70.706500,61.680000
70.428500,61.680000
70.394058,61.673149
70.364860,61.653640
70.345351,61.624442
70.338500,61.590000
Z" /> 
<path style="fill:#000000; fill-opacity:1.000000; 
stroke:#000000; stroke-width:0.000000; stroke-opacity:1; 
stroke-linecap:round; stroke-linejoin:round;fill-rule:evenodd;"
d="M 71.203500,61.410000
71.210351,61.375558
71.229860,61.346360
71.259058,61.326851
71.293500,61.320000
71.571500,61.320000
71.605942,61.326851
71.635140,61.346360
71.654649,61.375558
71.661500,61.410000
71.661500,61.590000
71.654649,61.624442
71.635140,61.653640
71.605942,61.673149
71.571500,61.680000
71.293500,61.680000
71.259058,61.673149
71.229860,61.653640
71.210351,61.624442
71.203500,61.590000
Z" /> 
</g>
<g >
</g>
<g style="fill:#000000; fill-opacity:1.000000; 
stroke:#000000; stroke-width:0.000000; stroke-opacity:1; 
stroke-linecap:round; stroke-linejoin:round;">
<path style="fill:#000000; fill-opacity:1.000000; 
stroke:#000000; stroke-width:0.000000; stroke-opacity:1; 
stroke-linecap:round; stroke-linejoin:round;fill-rule:evenodd;"
d="M 88.912500,57.440000
88.936418,57.444758
88.956694,57.458306
88.970242,57.478582
88.975000,57.502500
88.975000,57.737500
88.970242,57.761418
88.956694,57.781694
88.936418,57.795242
88.912500,57.800000
88.787500,57.800000
88.763582,57.795242
88.743306,57.781694
88.729758,57.761418
88.725000,57.737500
88.725000,57.502500
88.729758,57.478582
88.743306,57.458306
88.763582,57.444758
88.787500,57.440000
Z" /> 
<path style="fill:#000000; fill-opacity:1.000000; 
stroke:#000000; stroke-width:0.000000; stroke-opacity:1; 
stroke-linecap:round; stroke-linejoin:round;fill-rule:evenodd;"
d="M 88.912500,56.600000
88.936418,56.604758
88.956694,56.618306
88.970242,56.638582
88.975000,56.662500
88.975000,56.897500
88.970242,56.921418
88.956694,56.941694
88.936418,56.955242
88.912500,56.960000
88.787500,56.960000
88.763582,56.955242
88.743306,56.941694
88.729758,56.921418
88.725000,56.897500
88.725000,56.662500
88.729758,56.638582
88.743306,56.618306
88.763582,56.604758
88.787500,56.600000
Z" /> 
</g>
<g >
</g>
<g style="fill:#000000; fill-opacity:1.000000; 
stroke:#000000; stroke-width:0.000000; stroke-opacity:1; 
stroke-linecap:round; stroke-linejoin:round;">
<path style="fill:#000000; fill-opacity:1.000000; 
stroke:#000000; stroke-width:0.000000; stroke-opacity:1; 
stroke-linecap:round; stroke-linejoin:round;fill-rule:evenodd;"
d="M 72.382124,66.002808
72.370836,65.969555
72.373133,65.934514
72.388664,65.903020
72.415066,65.879865
72.655822,65.740865
72.689075,65.729578
72.724115,65.731874
72.755610,65.747406
72.778764,65.773808
72.868764,65.929692
72.880052,65.962945
72.877755,65.997986
72.862224,66.029480
72.835822,66.052635
72.595066,66.191635
72.561813,66.202922
72.526773,66.200626
72.495278,66.185094
72.472124,66.158692
Z" /> 
<path style="fill:#000000; fill-opacity:1.000000; 
stroke:#000000; stroke-width:0.000000; stroke-opacity:1; 
stroke-linecap:round; stroke-linejoin:round;fill-rule:evenodd;"
d="M 73.131236,65.570308
73.119948,65.537055
73.122245,65.502014
73.137776,65.470520
73.164178,65.447365
73.404934,65.308365
73.438187,65.297078
73.473227,65.299374
73.504722,65.314906
73.527876,65.341308
73.617876,65.497192
73.629164,65.530445
73.626867,65.565486
73.611336,65.596980
73.584934,65.620135
73.344178,65.759135
73.310925,65.770422
73.275885,65.768126
73.244390,65.752594
73.221236,65.726192
Z" /> 
</g>
<g >
</g>
<g style="fill:#000000; fill-opacity:1.000000; 
stroke:#000000; stroke-width:0.000000; stroke-opacity:1; 
stroke-linecap:round; stroke-linejoin:round;">
<path style="fill:#000000; fill-opacity:1.000000; 
stroke:#000000; stroke-width:0.000000; stroke-opacity:1; 
stroke-linecap:round; stroke-linejoin:round;fill-rule:evenodd;"
d="M 76.391308,69.027876
76.364906,69.004722
76.349374,68.973227
76.347078,68.938187
76.358365,68.904934
76.497365,68.664178
76.520520,68.637776
76.552014,68.622245
76.587055,68.619948
76.620308,68.631236
76.776192,68.721236
76.802594,68.744390
76.818126,68.775885
76.820422,68.810925
76.809135,68.844178
76.670135,69.084934
76.646980,69.111336
76.615486,69.126867
76.580445,69.129164
76.547192,69.117876
Z" /> 
<path style="fill:#000000; fill-opacity:1.000000; 
stroke:#000000; stroke-width:0.000000; stroke-opacity:1; 
stroke-linecap:round; stroke-linejoin:round;fill-rule:evenodd;"
d="M 76.823808,68.278764
76.797406,68.255610
76.781874,68.224115
76.779578,68.189075
76.790865,68.155822
76.929865,67.915066
76.953020,67.888664
76.984514,67.873133
77.019555,67.870836
77.052808,67.882124
77.208692,67.972124
77.235094,67.995278
77.250626,68.026773
77.252922,68.061813
77.241635,68.095066
77.102635,68.335822
77.079480,68.362224
77.047986,68.377755
77.012945,68.380052
76.979692,68.368764
Z" /> 
</g>
<g >
</g>
<g >
</g>
<g style="fill:#000000; fill-opacity:1.000000; 
stroke:#000000; stroke-width:0.000000; stroke-opacity:1; 
stroke-linecap:round; stroke-linejoin:round;">
<path style="fill:#000000; fill-opacity:1.000000; 
stroke:#000000; stroke-width:0.000000; stroke-opacity:1; 
stroke-linecap:round; stroke-linejoin:round;fill-rule:evenodd;"
d="M 86.052808,67.685143
86.019555,67.696431
85.984514,67.694134
85.953020,67.678603
85.929865,67.652201
85.790865,67.411445
85.779578,67.378192
85.781874,67.343152
85.797406,67.311657
85.823808,67.288503
85.979692,67.198503
86.012945,67.187215
86.047986,67.189512
86.079480,67.205043
86.102635,67.231445
86.241635,67.472201
86.252922,67.505454
86.250626,67.540494
86.235094,67.571989
86.208692,67.595143
Z" /> 
<path style="fill:#000000; fill-opacity:1.000000; 
stroke:#000000; stroke-width:0.000000; stroke-opacity:1; 
stroke-linecap:round; stroke-linejoin:round;fill-rule:evenodd;"
d="M 85.620308,66.936031
85.587055,66.947319
85.552014,66.945022
85.520520,66.929491
85.497365,66.903089
85.358365,66.662333
85.347078,66.629080
85.349374,66.594040
85.364906,66.562545
85.391308,66.539391
85.547192,66.449391
85.580445,66.438103
85.615486,66.440400
85.646980,66.455931
85.670135,66.482333
85.809135,66.723089
85.820422,66.756342
85.818126,66.791382
85.802594,66.822877
85.776192,66.846031
Z" /> 
</g>
<g >
</g>
<g style="fill:#000000; fill-opacity:1.000000; 
stroke:#000000; stroke-width:0.000000; stroke-opacity:1; 
stroke-linecap:round; stroke-linejoin:round;">
<path style="fill:#000000; fill-opacity:1.000000; 
stroke:#000000; stroke-width:0.000000; stroke-opacity:1; 
stroke-linecap:round; stroke-linejoin:round;fill-rule:evenodd;"
d="M 70.972124,56.391308
70.995278,56.364906
71.026773,56.349374
71.061813,56.347078
71.095066,56.358365
71.335822,56.497365
71.362224,56.520520
71.377755,56.552014
71.380052,56.587055
71.368764,56.620308
71.278764,56.776192
71.255610,56.802594
71.224115,56.818126
71.189075,56.820422
71.155822,56.809135
70.915066,56.670135
70.888664,56.646980
70.873133,56.615486
70.870836,56.580445
70.882124,56.547192
Z" /> 
<path style="fill:#000000; fill-opacity:1.000000; 
stroke:#000000; stroke-width:0.000000; stroke-opacity:1; 
stroke-linecap:round; stroke-linejoin:round;fill-rule:evenodd;"
d="M 71.721236,56.823808
71.744390,56.797406
71.775885,56.781874
71.810925,56.779578
71.844178,56.790865
72.084934,56.929865
72.111336,56.953020
72.126867,56.984514
72.129164,57.019555
72.117876,57.052808
72.027876,57.208692
72.004722,57.235094
71.973227,57.250626
71.938187,57.252922
71.904934,57.241635
71.664178,57.102635
71.637776,57.079480
71.622245,57.047986
71.619948,57.012945
71.631236,56.979692
Z" /> 
</g>
<g >
</g>
<g style="fill:#000000; fill-opacity:1.000000; 
stroke:#000000; stroke-width:0.000000; stroke-opacity:1; 
stroke-linecap:round; stroke-linejoin:round;">
<path style="fill:#000000; fill-opacity:1.000000; 
stroke:#000000; stroke-width:0.000000; stroke-opacity:1; 
stroke-linecap:round; stroke-linejoin:round;fill-rule:evenodd;"
d="M 81.410000,69.691500
81.375558,69.684649
81.346360,69.665140
81.326851,69.635942
81.320000,69.601500
81.320000,69.323500
81.326851,69.289058
81.346360,69.259860
81.375558,69.240351
81.410000,69.233500
81.590000,69.233500
81.624442,69.240351
81.653640,69.259860
81.673149,69.289058
81.680000,69.323500
81.680000,69.601500
81.673149,69.635942
81.653640,69.665140
81.624442,69.684649
81.590000,69.691500
Z" /> 
<path style="fill:#000000; fill-opacity:1.000000; 
stroke:#000000; stroke-width:0.000000; stroke-opacity:1; 
stroke-linecap:round; stroke-linejoin:round;fill-rule:evenodd;"
d="M 81.410000,68.826500
81.375558,68.819649
81.346360,68.800140
81.326851,68.770942
81.320000,68.736500
81.320000,68.458500
81.326851,68.424058
81.346360,68.394860
81.375558,68.375351
81.410000,68.368500
81.590000,68.368500
81.624442,68.375351
81.653640,68.394860
81.673149,68.424058
81.680000,68.458500
81.680000,68.736500
81.673149,68.770942
81.653640,68.800140
81.624442,68.819649
81.590000,68.826500
Z" /> 
</g>
<g >
</g>
<g style="fill:#000000; fill-opacity:1.000000; 
stroke:#000000; stroke-width:0.000000; stroke-opacity:1; 
stroke-linecap:round; stroke-linejoin:round;">
<path style="fill:#000000; fill-opacity:1.000000; 
stroke:#000000; stroke-width:0.000000; stroke-opacity:1; 
stroke-linecap:round; stroke-linejoin:round;fill-rule:evenodd;"
d="M 88.500446,55.323205
88.750446,55.756217
88.317434,56.006217
88.067434,55.573205
Z" /> 
<path style="fill:#000000; fill-opacity:1.000000; 
stroke:#000000; stroke-width:0.000000; stroke-opacity:1; 
stroke-linecap:round; stroke-linejoin:round;fill-rule:evenodd;"
d="M 88.050446,54.543783
88.300446,54.976795
87.867434,55.226795
87.617434,54.793783
Z" /> 
<path style="fill:#000000; fill-opacity:1.000000; 
stroke:#000000; stroke-width:0.000000; stroke-opacity:1; 
stroke-linecap:round; stroke-linejoin:round;fill-rule:evenodd;"
d="M 87.271024,54.993783
87.521024,55.426795
87.088012,55.676795
86.838012,55.243783
Z" /> 
<path style="fill:#000000; fill-opacity:1.000000; 
stroke:#000000; stroke-width:0.000000; stroke-opacity:1; 
stroke-linecap:round; stroke-linejoin:round;fill-rule:evenodd;"
d="M 87.721024,55.773205
87.971024,56.206217
87.538012,56.456217
87.288012,56.023205
Z" /> 
</g>
<g >
</g>
<g style="fill:#000000; fill-opacity:1.000000; 
stroke:#000000; stroke-width:0.000000; stroke-opacity:1; 
stroke-linecap:round; stroke-linejoin:round;">
<path style="fill:#000000; fill-opacity:1.000000; 
stroke:#000000; stroke-width:0.000000; stroke-opacity:1; 
stroke-linecap:round; stroke-linejoin:round;fill-rule:evenodd;"
d="M 88.488500,58.510000
88.495351,58.475558
88.514860,58.446360
88.544058,58.426851
88.578500,58.420000
88.856500,58.420000
88.890942,58.426851
88.920140,58.446360
88.939649,58.475558
88.946500,58.510000
88.946500,58.690000
88.939649,58.724442
88.920140,58.753640
88.890942,58.773149
88.856500,58.780000
88.578500,58.780000
88.544058,58.773149
88.514860,58.753640
88.495351,58.724442
88.488500,58.690000
Z" /> 
<path style="fill:#000000; fill-opacity:1.000000; 
stroke:#000000; stroke-width:0.000000; stroke-opacity:1; 
stroke-linecap:round; stroke-linejoin:round;fill-rule:evenodd;"
d="M 89.353500,58.510000
89.360351,58.475558
89.379860,58.446360
89.409058,58.426851
89.443500,58.420000
89.721500,58.420000
89.755942,58.426851
89.785140,58.446360
89.804649,58.475558
89.811500,58.510000
89.811500,58.690000
89.804649,58.724442
89.785140,58.753640
89.755942,58.773149
89.721500,58.780000
89.443500,58.780000
89.409058,58.773149
89.379860,58.753640
89.360351,58.724442
89.353500,58.690000
Z" /> 
</g>
<g >
</g>
<g style="fill:#000000; fill-opacity:1.000000; 
stroke:#000000; stroke-width:0.000000; stroke-opacity:1; 
stroke-linecap:round; stroke-linejoin:round;">
<path style="fill:#000000; fill-opacity:1.000000; 
stroke:#000000; stroke-width:0.000000; stroke-opacity:1; 
stroke-linecap:round; stroke-linejoin:round;fill-rule:evenodd;"
d="M 87.617876,53.997192
87.629164,54.030445
87.626867,54.065486
87.611336,54.096980
87.584934,54.120135
87.344178,54.259135
87.310925,54.270422
87.275885,54.268126
87.244390,54.252594
87.221236,54.226192
87.131236,54.070308
87.119948,54.037055
87.122245,54.002014
87.137776,53.970520
87.164178,53.947365
87.404934,53.808365
87.438187,53.797078
87.473227,53.799374
87.504722,53.814906
87.527876,53.841308
Z" /> 
<path style="fill:#000000; fill-opacity:1.000000; 
stroke:#000000; stroke-width:0.000000; stroke-opacity:1; 
stroke-linecap:round; stroke-linejoin:round;fill-rule:evenodd;"
d="M 86.868764,54.429692
86.880052,54.462945
86.877755,54.497986
86.862224,54.529480
86.835822,54.552635
86.595066,54.691635
86.561813,54.702922
86.526773,54.700626
86.495278,54.685094
86.472124,54.658692
86.382124,54.502808
86.370836,54.469555
86.373133,54.434514
86.388664,54.403020
86.415066,54.379865
86.655822,54.240865
86.689075,54.229578
86.724115,54.231874
86.755610,54.247406
86.778764,54.273808
Z" /> 
</g>
<g >
</g>
<g style="fill:#000000; fill-opacity:1.000000; 
stroke:#000000; stroke-width:0.000000; stroke-opacity:1; 
stroke-linecap:round; stroke-linejoin:round;">
<path style="fill:#000000; fill-opacity:1.000000; 
stroke:#000000; stroke-width:0.000000; stroke-opacity:1; 
stroke-linecap:round; stroke-linejoin:round;fill-rule:evenodd;"
d="M 75.323205,51.499554
75.756217,51.249554
76.006217,51.682566
75.573205,51.932566
Z" /> 
<path style="fill:#000000; fill-opacity:1.000000; 
stroke:#000000; stroke-width:0.000000; stroke-opacity:1; 
stroke-linecap:round; stroke-linejoin:round;fill-rule:evenodd;"
d="M 74.543783,51.949554
74.976795,51.699554
75.226795,52.132566
74.793783,52.382566
Z" /> 
<path style="fill:#000000; fill-opacity:1.000000; 
stroke:#000000; stroke-width:0.000000; stroke-opacity:1; 
stroke-linecap:round; stroke-linejoin:round;fill-rule:evenodd;"
d="M 74.993783,52.728976
75.426795,52.478976
75.676795,52.911988
75.243783,53.161988
Z" /> 
<path style="fill:#000000; fill-opacity:1.000000; 
stroke:#000000; stroke-width:0.000000; stroke-opacity:1; 
stroke-linecap:round; stroke-linejoin:round;fill-rule:evenodd;"
d="M 75.773205,52.278976
76.206217,52.028976
76.456217,52.461988
76.023205,52.711988
Z" /> 
</g>
<g >
</g>
<g style="fill:#000000; fill-opacity:1.000000; 
stroke:#000000; stroke-width:0.000000; stroke-opacity:1; 
stroke-linecap:round; stroke-linejoin:round;">
<path style="fill:#000000; fill-opacity:1.000000; 
stroke:#000000; stroke-width:0.000000; stroke-opacity:1; 
stroke-linecap:round; stroke-linejoin:round;fill-rule:evenodd;"
d="M 89.077876,63.658692
89.054722,63.685094
89.023227,63.700626
88.988187,63.702922
88.954934,63.691635
88.714178,63.552635
88.687776,63.529480
88.672245,63.497986
88.669948,63.462945
88.681236,63.429692
88.771236,63.273808
88.794390,63.247406
88.825885,63.231874
88.860925,63.229578
88.894178,63.240865
89.134934,63.379865
89.161336,63.403020
89.176867,63.434514
89.179164,63.469555
89.167876,63.502808
Z" /> 
<path style="fill:#000000; fill-opacity:1.000000; 
stroke:#000000; stroke-width:0.000000; stroke-opacity:1; 
stroke-linecap:round; stroke-linejoin:round;fill-rule:evenodd;"
d="M 88.328764,63.226192
88.305610,63.252594
88.274115,63.268126
88.239075,63.270422
88.205822,63.259135
87.965066,63.120135
87.938664,63.096980
87.923133,63.065486
87.920836,63.030445
87.932124,62.997192
88.022124,62.841308
88.045278,62.814906
88.076773,62.799374
88.111813,62.797078
88.145066,62.808365
88.385822,62.947365
88.412224,62.970520
88.427755,63.002014
88.430052,63.037055
88.418764,63.070308
Z" /> 
</g>
<g >
</g>
<g style="fill:#000000; fill-opacity:1.000000; 
stroke:#000000; stroke-width:0.000000; stroke-opacity:1; 
stroke-linecap:round; stroke-linejoin:round;">
<path style="fill:#000000; fill-opacity:1.000000; 
stroke:#000000; stroke-width:0.000000; stroke-opacity:1; 
stroke-linecap:round; stroke-linejoin:round;fill-rule:evenodd;"
d="M 74.976795,68.300446
74.543783,68.050446
74.793783,67.617434
75.226795,67.867434
Z" /> 
<path style="fill:#000000; fill-opacity:1.000000; 
stroke:#000000; stroke-width:0.000000; stroke-opacity:1; 
stroke-linecap:round; stroke-linejoin:round;fill-rule:evenodd;"
d="M 75.756217,68.750446
75.323205,68.500446
75.573205,68.067434
76.006217,68.317434
Z" /> 
<path style="fill:#000000; fill-opacity:1.000000; 
stroke:#000000; stroke-width:0.000000; stroke-opacity:1; 
stroke-linecap:round; stroke-linejoin:round;fill-rule:evenodd;"
d="M 76.206217,67.971024
75.773205,67.721024
76.023205,67.288012
76.456217,67.538012
Z" /> 
<path style="fill:#000000; fill-opacity:1.000000; 
stroke:#000000; stroke-width:0.000000; stroke-opacity:1; 
stroke-linecap:round; stroke-linejoin:round;fill-rule:evenodd;"
d="M 75.426795,67.521024
74.993783,67.271024
75.243783,66.838012
75.676795,67.088012
Z" /> 
</g>
<g >
</g>
<g style="fill:#000000; fill-opacity:1.000000; 
stroke:#000000; stroke-width:0.000000; stroke-opacity:1; 
stroke-linecap:round; stroke-linejoin:round;">
<path style="fill:#000000; fill-opacity:1.000000; 
stroke:#000000; stroke-width:0.000000; stroke-opacity:1; 
stroke-linecap:round; stroke-linejoin:round;fill-rule:evenodd;"
d="M 85.023205,51.699554
85.456217,51.949554
85.206217,52.382566
84.773205,52.132566
Z" /> 
<path style="fill:#000000; fill-opacity:1.000000; 
stroke:#000000; stroke-width:0.000000; stroke-opacity:1; 
stroke-linecap:round; stroke-linejoin:round;fill-rule:evenodd;"
d="M 84.243783,51.249554
84.676795,51.499554
84.426795,51.932566
83.993783,51.682566
Z" /> 
<path style="fill:#000000; fill-opacity:1.000000; 
stroke:#000000; stroke-width:0.000000; stroke-opacity:1; 
stroke-linecap:round; stroke-linejoin:round;fill-rule:evenodd;"
d="M 83.793783,52.028976
84.226795,52.278976
83.976795,52.711988
83.543783,52.461988
Z" /> 
<path style="fill:#000000; fill-opacity:1.000000; 
stroke:#000000; stroke-width:0.000000; stroke-opacity:1; 
stroke-linecap:round; stroke-linejoin:round;fill-rule:evenodd;"
d="M 84.573205,52.478976
85.006217,52.728976
84.756217,53.161988
84.323205,52.911988
Z" /> 
</g>
<g >
</g>
<g style="fill:#000000; fill-opacity:1.000000; 
stroke:#000000; stroke-width:0.000000; stroke-opacity:1; 
stroke-linecap:round; stroke-linejoin:round;">
<path style="fill:#000000; fill-opacity:1.000000; 
stroke:#000000; stroke-width:0.000000; stroke-opacity:1; 
stroke-linecap:round; stroke-linejoin:round;fill-rule:evenodd;"
d="M 89.571500,61.740000
89.564649,61.774442
89.545140,61.803640
89.515942,61.823149
89.481500,61.830000
89.203500,61.830000
89.169058,61.823149
89.139860,61.803640
89.120351,61.774442
89.113500,61.740000
89.113500,61.560000
89.120351,61.525558
89.139860,61.496360
89.169058,61.476851
89.203500,61.470000
89.481500,61.470000
89.515942,61.476851
89.545140,61.496360
89.564649,61.525558
89.571500,61.560000
Z" /> 
<path style="fill:#000000; fill-opacity:1.000000; 
stroke:#000000; stroke-width:0.000000; stroke-opacity:1; 
stroke-linecap:round; stroke-linejoin:round;fill-rule:evenodd;"
d="M 88.706500,61.740000
88.699649,61.774442
88.680140,61.803640
88.650942,61.823149
88.616500,61.830000
88.338500,61.830000
88.304058,61.823149
88.274860,61.803640
88.255351,61.774442
88.248500,61.740000
88.248500,61.560000
88.255351,61.525558
88.274860,61.496360
88.304058,61.476851
88.338500,61.470000
88.616500,61.470000
88.650942,61.476851
88.680140,61.496360
88.699649,61.525558
88.706500,61.560000
Z" /> 
</g>
<g >
</g>
<g style="fill:#000000; fill-opacity:1.000000; 
stroke:#000000; stroke-width:0.000000; stroke-opacity:1; 
stroke-linecap:round; stroke-linejoin:round;">
<path style="fill:#000000; fill-opacity:1.000000; 
stroke:#000000; stroke-width:0.000000; stroke-opacity:1; 
stroke-linecap:round; stroke-linejoin:round;fill-rule:evenodd;"
d="M 83.608692,50.972124
83.635094,50.995278
83.650626,51.026773
83.652922,51.061813
83.641635,51.095066
83.502635,51.335822
83.479480,51.362224
83.447986,51.377755
83.412945,51.380052
83.379692,51.368764
83.223808,51.278764
83.197406,51.255610
83.181874,51.224115
83.179578,51.189075
83.190865,51.155822
83.329865,50.915066
83.353020,50.888664
83.384514,50.873133
83.419555,50.870836
83.452808,50.882124
Z" /> 
<path style="fill:#000000; fill-opacity:1.000000; 
stroke:#000000; stroke-width:0.000000; stroke-opacity:1; 
stroke-linecap:round; stroke-linejoin:round;fill-rule:evenodd;"
d="M 83.176192,51.721236
83.202594,51.744390
83.218126,51.775885
83.220422,51.810925
83.209135,51.844178
83.070135,52.084934
83.046980,52.111336
83.015486,52.126867
82.980445,52.129164
82.947192,52.117876
82.791308,52.027876
82.764906,52.004722
82.749374,51.973227
82.747078,51.938187
82.758365,51.904934
82.897365,51.664178
82.920520,51.637776
82.952014,51.622245
82.987055,51.619948
83.020308,51.631236
Z" /> 
</g>
<g >
</g>
<g >
</g>
<g >
</g>
<g >
</g>
<g >
</g>
</g> 
</svg>
