<?xml version="1.0" standalone="no"?>
 <!DOCTYPE svg PUBLIC "-//W3C//DTD SVG 1.1//EN" 
 "http://www.w3.org/Graphics/SVG/1.1/DTD/svg11.dtd"> 
<svg
  xmlns:svg="http://www.w3.org/2000/svg"
  xmlns="http://www.w3.org/2000/svg"
  xmlns:xlink="http://www.w3.org/1999/xlink"
  version="1.1"
  width="2.6100000000000003cm" height="2.6100000000000003cm" viewBox="66.95 46.95 26.1 26.1">
<title>SVG Image created as pedalboard-led-ring-F_SilkS.svg date 2023/10/17 19:17:17 </title>
  <desc>Image generated by PCBNEW </desc>
<g style="fill:#000000; fill-opacity:1.000000;stroke:#000000; stroke-opacity:1.000000;
stroke-linecap:round; stroke-linejoin:round;"
 transform="translate(0 0) scale(1 1)">
</g>
<g style="fill:#000000; fill-opacity:0.0; 
stroke:#000000; stroke-width:0.000000; stroke-opacity:1; 
stroke-linecap:round; stroke-linejoin:round;">
</g>
<g style="fill:#000000; fill-opacity:0.0; 
stroke:#000000; stroke-width:0.150000; stroke-opacity:1; 
stroke-linecap:round; stroke-linejoin:round;">
<text x="80.000000" y="70.000000"
textLength="3.535714" font-size="1.333333" lengthAdjust="spacingAndGlyphs"
text-anchor="middle" opacity="0">FID2</text>
<g class="stroked-text"><desc>FID2</desc>
<path d="M78.928571 69.431009
L78.595238 69.431009
" />
<path d="M78.595238 69.954819
L78.595238 68.954819
" />
<path d="M78.595238 68.954819
L79.071428 68.954819
" />
<path d="M79.452381 69.954819
L79.452381 68.954819
" />
<path d="M79.928571 69.954819
L79.928571 68.954819
" />
<path d="M79.928571 68.954819
L80.166666 68.954819
" />
<path d="M80.166666 68.954819
L80.309523 69.002438
" />
<path d="M80.309523 69.002438
L80.404761 69.097676
" />
<path d="M80.404761 69.097676
L80.452380 69.192914
" />
<path d="M80.452380 69.192914
L80.499999 69.383390
" />
<path d="M80.499999 69.383390
L80.499999 69.526247
" />
<path d="M80.499999 69.526247
L80.452380 69.716723
" />
<path d="M80.452380 69.716723
L80.404761 69.811961
" />
<path d="M80.404761 69.811961
L80.309523 69.907200
" />
<path d="M80.309523 69.907200
L80.166666 69.954819
" />
<path d="M80.166666 69.954819
L79.928571 69.954819
" />
<path d="M80.880952 69.050057
L80.928571 69.002438
" />
<path d="M80.928571 69.002438
L81.023809 68.954819
" />
<path d="M81.023809 68.954819
L81.261904 68.954819
" />
<path d="M81.261904 68.954819
L81.357142 69.002438
" />
<path d="M81.357142 69.002438
L81.404761 69.050057
" />
<path d="M81.404761 69.050057
L81.452380 69.145295
" />
<path d="M81.452380 69.145295
L81.452380 69.240533
" />
<path d="M81.452380 69.240533
L81.404761 69.383390
" />
<path d="M81.404761 69.383390
L80.833333 69.954819
" />
<path d="M80.833333 69.954819
L81.452380 69.954819
" />
</g></g>
<g style="fill:#000000; fill-opacity:0.0; 
stroke:#000000; stroke-width:0.100000; stroke-opacity:1; 
stroke-linecap:round; stroke-linejoin:round;">
<g transform="rotate(60.000000 83.350000 68.558458)">
<text x="83.350000" y="68.808458"
textLength="1.652380" font-size="0.666666" lengthAdjust="spacingAndGlyphs"
text-anchor="middle" opacity="0">D11</text>
</g>
<g class="stroked-text"><desc>D11</desc>
<path d="M82.850612 68.145712
L83.283624 67.895712
" />
<path d="M83.283624 67.895712
L83.343148 67.998810
" />
<path d="M83.343148 67.998810
L83.358243 68.072574
" />
<path d="M83.358243 68.072574
L83.340813 68.137622
" />
<path d="M83.340813 68.137622
L83.311479 68.182052
" />
<path d="M83.311479 68.182052
L83.240905 68.250290
" />
<path d="M83.240905 68.250290
L83.179046 68.286005
" />
<path d="M83.179046 68.286005
L83.084662 68.313004
" />
<path d="M83.084662 68.313004
L83.031518 68.316194
" />
<path d="M83.031518 68.316194
L82.966469 68.298764
" />
<path d="M82.966469 68.298764
L82.910136 68.248810
" />
<path d="M82.910136 68.248810
L82.850612 68.145712
" />
<path d="M83.231564 68.805540
L83.088707 68.558105
" />
<path d="M83.160136 68.681823
L83.593148 68.431823
" />
<path d="M83.593148 68.431823
L83.507480 68.426297
" />
<path d="M83.507480 68.426297
L83.442431 68.408868
" />
<path d="M83.442431 68.408868
L83.398002 68.379533
" />
<path d="M83.469659 69.217933
L83.326802 68.970497
" />
<path d="M83.398231 69.094215
L83.831243 68.844215
" />
<path d="M83.831243 68.844215
L83.745575 68.838690
" />
<path d="M83.745575 68.838690
L83.680526 68.821260
" />
<path d="M83.680526 68.821260
L83.636097 68.791926
" />
</g></g>
<g style="fill:#000000; fill-opacity:0.0; 
stroke:#000000; stroke-width:0.075000; stroke-opacity:1; 
stroke-linecap:round; stroke-linejoin:round;">
<g transform="rotate(60.000000 84.572789 68.820302)">
<text x="84.572789" y="68.970302"
textLength="0.450714" font-size="0.400000" lengthAdjust="spacingAndGlyphs"
text-anchor="middle" opacity="0">1</text>
</g>
<g class="stroked-text"><desc>1</desc>
<path d="M84.498831 68.961975
L84.413117 68.813514
" />
<path d="M84.455974 68.887744
L84.715782 68.737744
" />
<path d="M84.715782 68.737744
L84.664381 68.734429
" />
<path d="M84.664381 68.734429
L84.625351 68.723972
" />
<path d="M84.625351 68.723972
L84.598694 68.706371
" />
</g></g>
<g style="fill:#000000; fill-opacity:0.0; 
stroke:#000000; stroke-width:0.100000; stroke-opacity:1; 
stroke-linecap:round; stroke-linejoin:round;">
<g transform="rotate(-90.000000 77.850000 51.000000)">
<text x="77.850000" y="51.250000"
textLength="1.176190" font-size="0.666666" lengthAdjust="spacingAndGlyphs"
text-anchor="middle" opacity="0">C4</text>
</g>
<g class="stroked-text"><desc>C4</desc>
<path d="M78.028490 51.083333
L78.052300 51.107142
" />
<path d="M78.052300 51.107142
L78.076109 51.178571
" />
<path d="M78.076109 51.178571
L78.076109 51.226190
" />
<path d="M78.076109 51.226190
L78.052300 51.297618
" />
<path d="M78.052300 51.297618
L78.004680 51.345237
" />
<path d="M78.004680 51.345237
L77.957061 51.369047
" />
<path d="M77.957061 51.369047
L77.861823 51.392856
" />
<path d="M77.861823 51.392856
L77.790395 51.392856
" />
<path d="M77.790395 51.392856
L77.695157 51.369047
" />
<path d="M77.695157 51.369047
L77.647538 51.345237
" />
<path d="M77.647538 51.345237
L77.599919 51.297618
" />
<path d="M77.599919 51.297618
L77.576109 51.226190
" />
<path d="M77.576109 51.226190
L77.576109 51.178571
" />
<path d="M77.576109 51.178571
L77.599919 51.107142
" />
<path d="M77.599919 51.107142
L77.623728 51.083333
" />
<path d="M77.742776 50.654761
L78.076109 50.654761
" />
<path d="M77.552300 50.773809
L77.909442 50.892856
" />
<path d="M77.909442 50.892856
L77.909442 50.583333
" />
</g><g transform="rotate(60.000000 73.550000 53.200000)">
<text x="73.550000" y="53.450000"
textLength="1.176190" font-size="0.666666" lengthAdjust="spacingAndGlyphs"
text-anchor="middle" opacity="0">C5</text>
</g>
<g class="stroked-text"><desc>C5</desc>
<path d="M73.353756 53.217076
L73.321231 53.208361
" />
<path d="M73.321231 53.208361
L73.264897 53.158407
" />
<path d="M73.264897 53.158407
L73.241088 53.117168
" />
<path d="M73.241088 53.117168
L73.225993 53.043404
" />
<path d="M73.225993 53.043404
L73.243423 52.978355
" />
<path d="M73.243423 52.978355
L73.272757 52.933926
" />
<path d="M73.272757 52.933926
L73.343331 52.865687
" />
<path d="M73.343331 52.865687
L73.405190 52.829973
" />
<path d="M73.405190 52.829973
L73.499574 52.802974
" />
<path d="M73.499574 52.802974
L73.552718 52.799784
" />
<path d="M73.552718 52.799784
L73.617767 52.817214
" />
<path d="M73.617767 52.817214
L73.674100 52.867168
" />
<path d="M73.674100 52.867168
L73.697910 52.908407
" />
<path d="M73.697910 52.908407
L73.713005 52.982171
" />
<path d="M73.713005 52.982171
L73.704290 53.014695
" />
<path d="M73.971720 53.382659
L73.852672 53.176463
" />
<path d="M73.852672 53.176463
L73.634571 53.274891
" />
<path d="M73.634571 53.274891
L73.667095 53.283605
" />
<path d="M73.667095 53.283605
L73.711524 53.312940
" />
<path d="M73.711524 53.312940
L73.771048 53.416038
" />
<path d="M73.771048 53.416038
L73.774238 53.469182
" />
<path d="M73.774238 53.469182
L73.765523 53.501707
" />
<path d="M73.765523 53.501707
L73.736188 53.546136
" />
<path d="M73.736188 53.546136
L73.633090 53.605660
" />
<path d="M73.633090 53.605660
L73.579946 53.608850
" />
<path d="M73.579946 53.608850
L73.547422 53.600135
" />
<path d="M73.547422 53.600135
L73.502993 53.570800
" />
<path d="M73.502993 53.570800
L73.443469 53.467702
" />
<path d="M73.443469 53.467702
L73.440279 53.414558
" />
<path d="M73.440279 53.414558
L73.448994 53.382033
" />
</g><text x="90.590000" y="60.350000"
textLength="1.176190" font-size="0.666666" lengthAdjust="spacingAndGlyphs"
text-anchor="middle" opacity="0">D1</text>
<g class="stroked-text"><desc>D1</desc>
<path d="M90.220952 60.326109
L90.220952 59.826109
" />
<path d="M90.220952 59.826109
L90.340000 59.826109
" />
<path d="M90.340000 59.826109
L90.411428 59.849919
" />
<path d="M90.411428 59.849919
L90.459047 59.897538
" />
<path d="M90.459047 59.897538
L90.482857 59.945157
" />
<path d="M90.482857 59.945157
L90.506666 60.040395
" />
<path d="M90.506666 60.040395
L90.506666 60.111823
" />
<path d="M90.506666 60.111823
L90.482857 60.207061
" />
<path d="M90.482857 60.207061
L90.459047 60.254680
" />
<path d="M90.459047 60.254680
L90.411428 60.302300
" />
<path d="M90.411428 60.302300
L90.340000 60.326109
" />
<path d="M90.340000 60.326109
L90.220952 60.326109
" />
<path d="M90.982857 60.326109
L90.697143 60.326109
" />
<path d="M90.840000 60.326109
L90.840000 59.826109
" />
<path d="M90.840000 59.826109
L90.792381 59.897538
" />
<path d="M90.792381 59.897538
L90.744762 59.945157
" />
<path d="M90.744762 59.945157
L90.697143 59.968966
" />
</g></g>
<g style="fill:#000000; fill-opacity:0.0; 
stroke:#000000; stroke-width:0.075000; stroke-opacity:1; 
stroke-linecap:round; stroke-linejoin:round;">
<text x="89.925000" y="60.600000"
textLength="0.450714" font-size="0.400000" lengthAdjust="spacingAndGlyphs"
text-anchor="middle" opacity="0">1</text>
<g class="stroked-text"><desc>1</desc>
<path d="M90.010714 60.584885
L89.839285 60.584885
" />
<path d="M89.925000 60.584885
L89.925000 60.284885
" />
<path d="M89.925000 60.284885
L89.896428 60.327742
" />
<path d="M89.896428 60.327742
L89.867857 60.356314
" />
<path d="M89.867857 60.356314
L89.839285 60.370600
" />
</g></g>
<g style="fill:#000000; fill-opacity:0.0; 
stroke:#000000; stroke-width:0.100000; stroke-opacity:1; 
stroke-linecap:round; stroke-linejoin:round;">
<g transform="rotate(-90.000000 81.400000 51.000000)">
<text x="81.400000" y="51.250000"
textLength="1.176190" font-size="0.666666" lengthAdjust="spacingAndGlyphs"
text-anchor="middle" opacity="0">D4</text>
</g>
<g class="stroked-text"><desc>D4</desc>
<path d="M81.626109 51.369047
L81.126109 51.369047
" />
<path d="M81.126109 51.369047
L81.126109 51.249999
" />
<path d="M81.126109 51.249999
L81.149919 51.178571
" />
<path d="M81.149919 51.178571
L81.197538 51.130952
" />
<path d="M81.197538 51.130952
L81.245157 51.107142
" />
<path d="M81.245157 51.107142
L81.340395 51.083333
" />
<path d="M81.340395 51.083333
L81.411823 51.083333
" />
<path d="M81.411823 51.083333
L81.507061 51.107142
" />
<path d="M81.507061 51.107142
L81.554680 51.130952
" />
<path d="M81.554680 51.130952
L81.602300 51.178571
" />
<path d="M81.602300 51.178571
L81.626109 51.249999
" />
<path d="M81.626109 51.249999
L81.626109 51.369047
" />
<path d="M81.292776 50.654761
L81.626109 50.654761
" />
<path d="M81.102300 50.773809
L81.459442 50.892856
" />
<path d="M81.459442 50.892856
L81.459442 50.583333
" />
</g></g>
<g style="fill:#000000; fill-opacity:0.0; 
stroke:#000000; stroke-width:0.075000; stroke-opacity:1; 
stroke-linecap:round; stroke-linejoin:round;">
<g transform="rotate(-90.000000 80.450000 50.075000)">
<text x="80.450000" y="50.225000"
textLength="0.450714" font-size="0.400000" lengthAdjust="spacingAndGlyphs"
text-anchor="middle" opacity="0">1</text>
</g>
<g class="stroked-text"><desc>1</desc>
<path d="M80.584885 49.989285
L80.584885 50.160714
" />
<path d="M80.584885 50.074999
L80.284885 50.074999
" />
<path d="M80.284885 50.074999
L80.327742 50.103571
" />
<path d="M80.327742 50.103571
L80.356314 50.132142
" />
<path d="M80.356314 50.132142
L80.370600 50.160714
" />
</g></g>
<g style="fill:#000000; fill-opacity:0.0; 
stroke:#000000; stroke-width:0.100000; stroke-opacity:1; 
stroke-linecap:round; stroke-linejoin:round;">
<g transform="rotate(30.000000 87.094229 65.712436)">
<text x="87.094229" y="65.962436"
textLength="1.652380" font-size="0.666666" lengthAdjust="spacingAndGlyphs"
text-anchor="middle" opacity="0">D12</text>
</g>
<g class="stroked-text"><desc>D12</desc>
<path d="M86.455373 65.604681
L86.705373 65.171668
" />
<path d="M86.705373 65.171668
L86.808471 65.231192
" />
<path d="M86.808471 65.231192
L86.858425 65.287526
" />
<path d="M86.858425 65.287526
L86.875855 65.352575
" />
<path d="M86.875855 65.352575
L86.872665 65.405719
" />
<path d="M86.872665 65.405719
L86.845666 65.500102
" />
<path d="M86.845666 65.500102
L86.809952 65.561961
" />
<path d="M86.809952 65.561961
L86.741713 65.632535
" />
<path d="M86.741713 65.632535
L86.697284 65.661870
" />
<path d="M86.697284 65.661870
L86.632235 65.679299
" />
<path d="M86.632235 65.679299
L86.558471 65.664205
" />
<path d="M86.558471 65.664205
L86.455373 65.604681
" />
<path d="M87.115202 65.985633
L86.867766 65.842776
" />
<path d="M86.991484 65.914205
L87.241484 65.481192
" />
<path d="M87.241484 65.481192
L87.164530 65.519241
" />
<path d="M87.164530 65.519241
L87.099482 65.536671
" />
<path d="M87.099482 65.536671
L87.046337 65.533481
" />
<path d="M87.506349 65.689098
L87.538874 65.680383
" />
<path d="M87.538874 65.680383
L87.592018 65.683573
" />
<path d="M87.592018 65.683573
L87.695116 65.743097
" />
<path d="M87.695116 65.743097
L87.724450 65.787526
" />
<path d="M87.724450 65.787526
L87.733165 65.820050
" />
<path d="M87.733165 65.820050
L87.729975 65.873194
" />
<path d="M87.729975 65.873194
L87.706166 65.914433
" />
<path d="M87.706166 65.914433
L87.649832 65.964388
" />
<path d="M87.649832 65.964388
L87.259539 66.068966
" />
<path d="M87.259539 66.068966
L87.527595 66.223728
" />
</g></g>
<g style="fill:#000000; fill-opacity:0.0; 
stroke:#000000; stroke-width:0.075000; stroke-opacity:1; 
stroke-linecap:round; stroke-linejoin:round;">
<g transform="rotate(30.000000 88.370302 65.352211)">
<text x="88.370302" y="65.502211"
textLength="0.450714" font-size="0.400000" lengthAdjust="spacingAndGlyphs"
text-anchor="middle" opacity="0">1</text>
</g>
<g class="stroked-text"><desc>1</desc>
<path d="M88.377090 65.511882
L88.228628 65.426168
" />
<path d="M88.302859 65.469025
L88.452859 65.209217
" />
<path d="M88.452859 65.209217
L88.406687 65.232047
" />
<path d="M88.406687 65.232047
L88.367657 65.242505
" />
<path d="M88.367657 65.242505
L88.335771 65.240591
" />
</g></g>
<g style="fill:#000000; fill-opacity:0.0; 
stroke:#000000; stroke-width:0.100000; stroke-opacity:1; 
stroke-linecap:round; stroke-linejoin:round;">
<g transform="rotate(-30.000000 71.505771 63.287564)">
<text x="71.505771" y="63.537564"
textLength="1.176190" font-size="0.666666" lengthAdjust="spacingAndGlyphs"
text-anchor="middle" opacity="0">D8</text>
</g>
<g class="stroked-text"><desc>D8</desc>
<path d="M71.299221 63.667904
L71.049221 63.234891
" />
<path d="M71.049221 63.234891
L71.152319 63.175367
" />
<path d="M71.152319 63.175367
L71.226083 63.160273
" />
<path d="M71.226083 63.160273
L71.291132 63.177702
" />
<path d="M71.291132 63.177702
L71.335561 63.207037
" />
<path d="M71.335561 63.207037
L71.403800 63.277611
" />
<path d="M71.403800 63.277611
L71.439514 63.339470
" />
<path d="M71.439514 63.339470
L71.466513 63.433853
" />
<path d="M71.466513 63.433853
L71.469703 63.486997
" />
<path d="M71.469703 63.486997
L71.452273 63.552046
" />
<path d="M71.452273 63.552046
L71.402319 63.608380
" />
<path d="M71.402319 63.608380
L71.299221 63.667904
" />
<path d="M71.651235 63.134754
L71.598091 63.137944
" />
<path d="M71.598091 63.137944
L71.565567 63.129229
" />
<path d="M71.565567 63.129229
L71.521138 63.099894
" />
<path d="M71.521138 63.099894
L71.509233 63.079274
" />
<path d="M71.509233 63.079274
L71.506043 63.026130
" />
<path d="M71.506043 63.026130
L71.514758 62.993606
" />
<path d="M71.514758 62.993606
L71.544093 62.949177
" />
<path d="M71.544093 62.949177
L71.626571 62.901558
" />
<path d="M71.626571 62.901558
L71.679715 62.898368
" />
<path d="M71.679715 62.898368
L71.712240 62.907083
" />
<path d="M71.712240 62.907083
L71.756669 62.936417
" />
<path d="M71.756669 62.936417
L71.768574 62.957037
" />
<path d="M71.768574 62.957037
L71.771763 63.010181
" />
<path d="M71.771763 63.010181
L71.763049 63.042705
" />
<path d="M71.763049 63.042705
L71.733714 63.087135
" />
<path d="M71.733714 63.087135
L71.651235 63.134754
" />
<path d="M71.651235 63.134754
L71.621901 63.179183
" />
<path d="M71.621901 63.179183
L71.613186 63.211707
" />
<path d="M71.613186 63.211707
L71.616376 63.264851
" />
<path d="M71.616376 63.264851
L71.663995 63.347330
" />
<path d="M71.663995 63.347330
L71.708424 63.376664
" />
<path d="M71.708424 63.376664
L71.740948 63.385379
" />
<path d="M71.740948 63.385379
L71.794093 63.382189
" />
<path d="M71.794093 63.382189
L71.876571 63.334570
" />
<path d="M71.876571 63.334570
L71.905906 63.290141
" />
<path d="M71.905906 63.290141
L71.914621 63.257617
" />
<path d="M71.914621 63.257617
L71.911431 63.204473
" />
<path d="M71.911431 63.204473
L71.863812 63.121994
" />
<path d="M71.863812 63.121994
L71.819382 63.092660
" />
<path d="M71.819382 63.092660
L71.786858 63.083945
" />
<path d="M71.786858 63.083945
L71.733714 63.087135
" />
</g></g>
<g style="fill:#000000; fill-opacity:0.0; 
stroke:#000000; stroke-width:0.075000; stroke-opacity:1; 
stroke-linecap:round; stroke-linejoin:round;">
<g transform="rotate(-30.000000 71.179698 64.572789)">
<text x="71.179698" y="64.722789"
textLength="0.450714" font-size="0.400000" lengthAdjust="spacingAndGlyphs"
text-anchor="middle" opacity="0">1</text>
</g>
<g class="stroked-text"><desc>1</desc>
<path d="M71.321371 64.646746
L71.172910 64.732460
" />
<path d="M71.247140 64.689603
L71.097140 64.429795
" />
<path d="M71.097140 64.429795
L71.093825 64.481196
" />
<path d="M71.093825 64.481196
L71.083368 64.520226
" />
<path d="M71.083368 64.520226
L71.065767 64.546883
" />
</g></g>
<g style="fill:#000000; fill-opacity:0.0; 
stroke:#000000; stroke-width:0.100000; stroke-opacity:1; 
stroke-linecap:round; stroke-linejoin:round;">
<g transform="rotate(-90.000000 78.560000 69.300000)">
<text x="78.560000" y="69.550000"
textLength="1.652380" font-size="0.666666" lengthAdjust="spacingAndGlyphs"
text-anchor="middle" opacity="0">D10</text>
</g>
<g class="stroked-text"><desc>D10</desc>
<path d="M78.786109 69.907142
L78.286109 69.907142
" />
<path d="M78.286109 69.907142
L78.286109 69.788094
" />
<path d="M78.286109 69.788094
L78.309919 69.716666
" />
<path d="M78.309919 69.716666
L78.357538 69.669047
" />
<path d="M78.357538 69.669047
L78.405157 69.645237
" />
<path d="M78.405157 69.645237
L78.500395 69.621428
" />
<path d="M78.500395 69.621428
L78.571823 69.621428
" />
<path d="M78.571823 69.621428
L78.667061 69.645237
" />
<path d="M78.667061 69.645237
L78.714680 69.669047
" />
<path d="M78.714680 69.669047
L78.762300 69.716666
" />
<path d="M78.762300 69.716666
L78.786109 69.788094
" />
<path d="M78.786109 69.788094
L78.786109 69.907142
" />
<path d="M78.786109 69.145237
L78.786109 69.430951
" />
<path d="M78.786109 69.288094
L78.286109 69.288094
" />
<path d="M78.286109 69.288094
L78.357538 69.335713
" />
<path d="M78.357538 69.335713
L78.405157 69.383332
" />
<path d="M78.405157 69.383332
L78.428966 69.430951
" />
<path d="M78.286109 68.835714
L78.286109 68.788095
" />
<path d="M78.286109 68.788095
L78.309919 68.740476
" />
<path d="M78.309919 68.740476
L78.333728 68.716666
" />
<path d="M78.333728 68.716666
L78.381347 68.692857
" />
<path d="M78.381347 68.692857
L78.476585 68.669047
" />
<path d="M78.476585 68.669047
L78.595633 68.669047
" />
<path d="M78.595633 68.669047
L78.690871 68.692857
" />
<path d="M78.690871 68.692857
L78.738490 68.716666
" />
<path d="M78.738490 68.716666
L78.762300 68.740476
" />
<path d="M78.762300 68.740476
L78.786109 68.788095
" />
<path d="M78.786109 68.788095
L78.786109 68.835714
" />
<path d="M78.786109 68.835714
L78.762300 68.883333
" />
<path d="M78.762300 68.883333
L78.738490 68.907142
" />
<path d="M78.738490 68.907142
L78.690871 68.930952
" />
<path d="M78.690871 68.930952
L78.595633 68.954761
" />
<path d="M78.595633 68.954761
L78.476585 68.954761
" />
<path d="M78.476585 68.954761
L78.381347 68.930952
" />
<path d="M78.381347 68.930952
L78.333728 68.907142
" />
<path d="M78.333728 68.907142
L78.309919 68.883333
" />
<path d="M78.309919 68.883333
L78.286109 68.835714
" />
</g></g>
<g style="fill:#000000; fill-opacity:0.0; 
stroke:#000000; stroke-width:0.075000; stroke-opacity:1; 
stroke-linecap:round; stroke-linejoin:round;">
<g transform="rotate(-90.000000 79.550000 69.925000)">
<text x="79.550000" y="70.075000"
textLength="0.450714" font-size="0.400000" lengthAdjust="spacingAndGlyphs"
text-anchor="middle" opacity="0">1</text>
</g>
<g class="stroked-text"><desc>1</desc>
<path d="M79.684885 69.839285
L79.684885 70.010714
" />
<path d="M79.684885 69.924999
L79.384885 69.924999
" />
<path d="M79.384885 69.924999
L79.427742 69.953571
" />
<path d="M79.427742 69.953571
L79.456314 69.982142
" />
<path d="M79.456314 69.982142
L79.470600 70.010714
" />
</g></g>
<g style="fill:#000000; fill-opacity:0.0; 
stroke:#000000; stroke-width:0.100000; stroke-opacity:1; 
stroke-linecap:round; stroke-linejoin:round;">
<text x="71.000000" y="58.850000"
textLength="1.176190" font-size="0.666666" lengthAdjust="spacingAndGlyphs"
text-anchor="middle" opacity="0">D7</text>
<g class="stroked-text"><desc>D7</desc>
<path d="M70.630952 58.826109
L70.630952 58.326109
" />
<path d="M70.630952 58.326109
L70.750000 58.326109
" />
<path d="M70.750000 58.326109
L70.821428 58.349919
" />
<path d="M70.821428 58.349919
L70.869047 58.397538
" />
<path d="M70.869047 58.397538
L70.892857 58.445157
" />
<path d="M70.892857 58.445157
L70.916666 58.540395
" />
<path d="M70.916666 58.540395
L70.916666 58.611823
" />
<path d="M70.916666 58.611823
L70.892857 58.707061
" />
<path d="M70.892857 58.707061
L70.869047 58.754680
" />
<path d="M70.869047 58.754680
L70.821428 58.802300
" />
<path d="M70.821428 58.802300
L70.750000 58.826109
" />
<path d="M70.750000 58.826109
L70.630952 58.826109
" />
<path d="M71.083333 58.326109
L71.416666 58.326109
" />
<path d="M71.416666 58.326109
L71.202381 58.826109
" />
</g></g>
<g style="fill:#000000; fill-opacity:0.0; 
stroke:#000000; stroke-width:0.075000; stroke-opacity:1; 
stroke-linecap:round; stroke-linejoin:round;">
<text x="70.075000" y="59.700000"
textLength="0.450714" font-size="0.400000" lengthAdjust="spacingAndGlyphs"
text-anchor="middle" opacity="0">1</text>
<g class="stroked-text"><desc>1</desc>
<path d="M70.160714 59.684885
L69.989285 59.684885
" />
<path d="M70.075000 59.684885
L70.075000 59.384885
" />
<path d="M70.075000 59.384885
L70.046428 59.427742
" />
<path d="M70.046428 59.427742
L70.017857 59.456314
" />
<path d="M70.017857 59.456314
L69.989285 59.470600
" />
</g></g>
<g style="fill:#000000; fill-opacity:0.0; 
stroke:#000000; stroke-width:0.100000; stroke-opacity:1; 
stroke-linecap:round; stroke-linejoin:round;">
<g transform="rotate(30.000000 72.905771 54.287564)">
<text x="72.905771" y="54.537564"
textLength="1.176190" font-size="0.666666" lengthAdjust="spacingAndGlyphs"
text-anchor="middle" opacity="0">D6</text>
</g>
<g class="stroked-text"><desc>D6</desc>
<path d="M72.473111 54.298856
L72.723111 53.865844
" />
<path d="M72.723111 53.865844
L72.826210 53.925368
" />
<path d="M72.826210 53.925368
L72.876164 53.981701
" />
<path d="M72.876164 53.981701
L72.893594 54.046750
" />
<path d="M72.893594 54.046750
L72.890404 54.099894
" />
<path d="M72.890404 54.099894
L72.863404 54.194278
" />
<path d="M72.863404 54.194278
L72.827690 54.256137
" />
<path d="M72.827690 54.256137
L72.759451 54.326711
" />
<path d="M72.759451 54.326711
L72.715022 54.356045
" />
<path d="M72.715022 54.356045
L72.649973 54.373475
" />
<path d="M72.649973 54.373475
L72.576210 54.358380
" />
<path d="M72.576210 54.358380
L72.473111 54.298856
" />
<path d="M73.341701 54.222987
L73.259222 54.175368
" />
<path d="M73.259222 54.175368
L73.206078 54.172178
" />
<path d="M73.206078 54.172178
L73.173554 54.180893
" />
<path d="M73.173554 54.180893
L73.096600 54.218942
" />
<path d="M73.096600 54.218942
L73.028362 54.289516
" />
<path d="M73.028362 54.289516
L72.933123 54.454473
" />
<path d="M72.933123 54.454473
L72.929934 54.507617
" />
<path d="M72.929934 54.507617
L72.938648 54.540142
" />
<path d="M72.938648 54.540142
L72.967983 54.584571
" />
<path d="M72.967983 54.584571
L73.050462 54.632190
" />
<path d="M73.050462 54.632190
L73.103606 54.635380
" />
<path d="M73.103606 54.635380
L73.136130 54.626665
" />
<path d="M73.136130 54.626665
L73.180559 54.597330
" />
<path d="M73.180559 54.597330
L73.240083 54.494232
" />
<path d="M73.240083 54.494232
L73.243273 54.441088
" />
<path d="M73.243273 54.441088
L73.234558 54.408563
" />
<path d="M73.234558 54.408563
L73.205224 54.364134
" />
<path d="M73.205224 54.364134
L73.122745 54.316515
" />
<path d="M73.122745 54.316515
L73.069601 54.313325
" />
<path d="M73.069601 54.313325
L73.037076 54.322040
" />
<path d="M73.037076 54.322040
L72.992647 54.351375
" />
</g></g>
<g style="fill:#000000; fill-opacity:0.0; 
stroke:#000000; stroke-width:0.075000; stroke-opacity:1; 
stroke-linecap:round; stroke-linejoin:round;">
<g transform="rotate(30.000000 71.629698 54.647789)">
<text x="71.629698" y="54.797789"
textLength="0.450714" font-size="0.400000" lengthAdjust="spacingAndGlyphs"
text-anchor="middle" opacity="0">1</text>
</g>
<g class="stroked-text"><desc>1</desc>
<path d="M71.636486 54.807460
L71.488024 54.721746
" />
<path d="M71.562255 54.764603
L71.712255 54.504795
" />
<path d="M71.712255 54.504795
L71.666083 54.527625
" />
<path d="M71.666083 54.527625
L71.627053 54.538083
" />
<path d="M71.627053 54.538083
L71.595167 54.536169
" />
</g></g>
<g style="fill:#000000; fill-opacity:0.0; 
stroke:#000000; stroke-width:0.150000; stroke-opacity:1; 
stroke-linecap:round; stroke-linejoin:round;">
<text x="80.000000" y="48.000000"
textLength="3.535714" font-size="1.333333" lengthAdjust="spacingAndGlyphs"
text-anchor="middle" opacity="0">FID1</text>
<g class="stroked-text"><desc>FID1</desc>
<path d="M78.928571 47.431009
L78.595238 47.431009
" />
<path d="M78.595238 47.954819
L78.595238 46.954819
" />
<path d="M78.595238 46.954819
L79.071428 46.954819
" />
<path d="M79.452381 47.954819
L79.452381 46.954819
" />
<path d="M79.928571 47.954819
L79.928571 46.954819
" />
<path d="M79.928571 46.954819
L80.166666 46.954819
" />
<path d="M80.166666 46.954819
L80.309523 47.002438
" />
<path d="M80.309523 47.002438
L80.404761 47.097676
" />
<path d="M80.404761 47.097676
L80.452380 47.192914
" />
<path d="M80.452380 47.192914
L80.499999 47.383390
" />
<path d="M80.499999 47.383390
L80.499999 47.526247
" />
<path d="M80.499999 47.526247
L80.452380 47.716723
" />
<path d="M80.452380 47.716723
L80.404761 47.811961
" />
<path d="M80.404761 47.811961
L80.309523 47.907200
" />
<path d="M80.309523 47.907200
L80.166666 47.954819
" />
<path d="M80.166666 47.954819
L79.928571 47.954819
" />
<path d="M81.452380 47.954819
L80.880952 47.954819
" />
<path d="M81.166666 47.954819
L81.166666 46.954819
" />
<path d="M81.166666 46.954819
L81.071428 47.097676
" />
<path d="M81.071428 47.097676
L80.976190 47.192914
" />
<path d="M80.976190 47.192914
L80.880952 47.240533
" />
</g></g>
<g style="fill:#000000; fill-opacity:0.0; 
stroke:#000000; stroke-width:0.100000; stroke-opacity:1; 
stroke-linecap:round; stroke-linejoin:round;">
<text x="70.950000" y="62.500000"
textLength="1.176190" font-size="0.666666" lengthAdjust="spacingAndGlyphs"
text-anchor="middle" opacity="0">C7</text>
<g class="stroked-text"><desc>C7</desc>
<path d="M70.866666 62.428490
L70.842857 62.452300
" />
<path d="M70.842857 62.452300
L70.771428 62.476109
" />
<path d="M70.771428 62.476109
L70.723809 62.476109
" />
<path d="M70.723809 62.476109
L70.652381 62.452300
" />
<path d="M70.652381 62.452300
L70.604762 62.404680
" />
<path d="M70.604762 62.404680
L70.580952 62.357061
" />
<path d="M70.580952 62.357061
L70.557143 62.261823
" />
<path d="M70.557143 62.261823
L70.557143 62.190395
" />
<path d="M70.557143 62.190395
L70.580952 62.095157
" />
<path d="M70.580952 62.095157
L70.604762 62.047538
" />
<path d="M70.604762 62.047538
L70.652381 61.999919
" />
<path d="M70.652381 61.999919
L70.723809 61.976109
" />
<path d="M70.723809 61.976109
L70.771428 61.976109
" />
<path d="M70.771428 61.976109
L70.842857 61.999919
" />
<path d="M70.842857 61.999919
L70.866666 62.023728
" />
<path d="M71.033333 61.976109
L71.366666 61.976109
" />
<path d="M71.366666 61.976109
L71.152381 62.476109
" />
</g><g transform="rotate(-90.000000 88.070000 57.300000)">
<text x="88.070000" y="57.550000"
textLength="1.652380" font-size="0.666666" lengthAdjust="spacingAndGlyphs"
text-anchor="middle" opacity="0">D13</text>
</g>
<g class="stroked-text"><desc>D13</desc>
<path d="M88.296109 57.907142
L87.796109 57.907142
" />
<path d="M87.796109 57.907142
L87.796109 57.788094
" />
<path d="M87.796109 57.788094
L87.819919 57.716666
" />
<path d="M87.819919 57.716666
L87.867538 57.669047
" />
<path d="M87.867538 57.669047
L87.915157 57.645237
" />
<path d="M87.915157 57.645237
L88.010395 57.621428
" />
<path d="M88.010395 57.621428
L88.081823 57.621428
" />
<path d="M88.081823 57.621428
L88.177061 57.645237
" />
<path d="M88.177061 57.645237
L88.224680 57.669047
" />
<path d="M88.224680 57.669047
L88.272300 57.716666
" />
<path d="M88.272300 57.716666
L88.296109 57.788094
" />
<path d="M88.296109 57.788094
L88.296109 57.907142
" />
<path d="M88.296109 57.145237
L88.296109 57.430951
" />
<path d="M88.296109 57.288094
L87.796109 57.288094
" />
<path d="M87.796109 57.288094
L87.867538 57.335713
" />
<path d="M87.867538 57.335713
L87.915157 57.383332
" />
<path d="M87.915157 57.383332
L87.938966 57.430951
" />
<path d="M87.796109 56.978571
L87.796109 56.669047
" />
<path d="M87.796109 56.669047
L87.986585 56.835714
" />
<path d="M87.986585 56.835714
L87.986585 56.764285
" />
<path d="M87.986585 56.764285
L88.010395 56.716666
" />
<path d="M88.010395 56.716666
L88.034204 56.692857
" />
<path d="M88.034204 56.692857
L88.081823 56.669047
" />
<path d="M88.081823 56.669047
L88.200871 56.669047
" />
<path d="M88.200871 56.669047
L88.248490 56.692857
" />
<path d="M88.248490 56.692857
L88.272300 56.716666
" />
<path d="M88.272300 56.716666
L88.296109 56.764285
" />
<path d="M88.296109 56.764285
L88.296109 56.907142
" />
<path d="M88.296109 56.907142
L88.272300 56.954761
" />
<path d="M88.272300 56.954761
L88.248490 56.978571
" />
</g><g transform="rotate(-30.000000 73.400000 66.450000)">
<text x="73.400000" y="66.700000"
textLength="1.176190" font-size="0.666666" lengthAdjust="spacingAndGlyphs"
text-anchor="middle" opacity="0">C8</text>
</g>
<g class="stroked-text"><desc>C8</desc>
<path d="M73.417076 66.646243
L73.408361 66.678768
" />
<path d="M73.408361 66.678768
L73.358407 66.735102
" />
<path d="M73.358407 66.735102
L73.317168 66.758911
" />
<path d="M73.317168 66.758911
L73.243404 66.774006
" />
<path d="M73.243404 66.774006
L73.178355 66.756576
" />
<path d="M73.178355 66.756576
L73.133926 66.727242
" />
<path d="M73.133926 66.727242
L73.065687 66.656668
" />
<path d="M73.065687 66.656668
L73.029973 66.594809
" />
<path d="M73.029973 66.594809
L73.002974 66.500425
" />
<path d="M73.002974 66.500425
L72.999784 66.447281
" />
<path d="M72.999784 66.447281
L73.017214 66.382232
" />
<path d="M73.017214 66.382232
L73.067168 66.325899
" />
<path d="M73.067168 66.325899
L73.108407 66.302089
" />
<path d="M73.108407 66.302089
L73.182171 66.286994
" />
<path d="M73.182171 66.286994
L73.214695 66.295709
" />
<path d="M73.545464 66.297190
L73.492320 66.300380
" />
<path d="M73.492320 66.300380
L73.459796 66.291665
" />
<path d="M73.459796 66.291665
L73.415367 66.262330
" />
<path d="M73.415367 66.262330
L73.403462 66.241710
" />
<path d="M73.403462 66.241710
L73.400272 66.188566
" />
<path d="M73.400272 66.188566
L73.408987 66.156042
" />
<path d="M73.408987 66.156042
L73.438322 66.111613
" />
<path d="M73.438322 66.111613
L73.520800 66.063994
" />
<path d="M73.520800 66.063994
L73.573944 66.060804
" />
<path d="M73.573944 66.060804
L73.606469 66.069519
" />
<path d="M73.606469 66.069519
L73.650898 66.098853
" />
<path d="M73.650898 66.098853
L73.662803 66.119473
" />
<path d="M73.662803 66.119473
L73.665992 66.172617
" />
<path d="M73.665992 66.172617
L73.657278 66.205141
" />
<path d="M73.657278 66.205141
L73.627943 66.249571
" />
<path d="M73.627943 66.249571
L73.545464 66.297190
" />
<path d="M73.545464 66.297190
L73.516130 66.341619
" />
<path d="M73.516130 66.341619
L73.507415 66.374143
" />
<path d="M73.507415 66.374143
L73.510605 66.427287
" />
<path d="M73.510605 66.427287
L73.558224 66.509766
" />
<path d="M73.558224 66.509766
L73.602653 66.539100
" />
<path d="M73.602653 66.539100
L73.635177 66.547815
" />
<path d="M73.635177 66.547815
L73.688322 66.544625
" />
<path d="M73.688322 66.544625
L73.770800 66.497006
" />
<path d="M73.770800 66.497006
L73.800135 66.452577
" />
<path d="M73.800135 66.452577
L73.808850 66.420053
" />
<path d="M73.808850 66.420053
L73.805660 66.366909
" />
<path d="M73.805660 66.366909
L73.758041 66.284430
" />
<path d="M73.758041 66.284430
L73.713611 66.255096
" />
<path d="M73.713611 66.255096
L73.681087 66.246381
" />
<path d="M73.681087 66.246381
L73.627943 66.249571
" />
</g><g transform="rotate(-60.000000 77.450000 68.850000)">
<text x="77.450000" y="69.100000"
textLength="1.176190" font-size="0.666666" lengthAdjust="spacingAndGlyphs"
text-anchor="middle" opacity="0">C9</text>
</g>
<g class="stroked-text"><desc>C9</desc>
<path d="M77.562910 69.011413
L77.571625 69.043938
" />
<path d="M77.571625 69.043938
L77.556530 69.117701
" />
<path d="M77.556530 69.117701
L77.532721 69.158941
" />
<path d="M77.532721 69.158941
L77.476387 69.208895
" />
<path d="M77.476387 69.208895
L77.411338 69.226325
" />
<path d="M77.411338 69.226325
L77.358194 69.223135
" />
<path d="M77.358194 69.223135
L77.263811 69.196135
" />
<path d="M77.263811 69.196135
L77.201952 69.160421
" />
<path d="M77.201952 69.160421
L77.131378 69.092182
" />
<path d="M77.131378 69.092182
L77.102043 69.047753
" />
<path d="M77.102043 69.047753
L77.084614 68.982704
" />
<path d="M77.084614 68.982704
L77.099708 68.908941
" />
<path d="M77.099708 68.908941
L77.123518 68.867701
" />
<path d="M77.123518 68.867701
L77.179852 68.817747
" />
<path d="M77.179852 68.817747
L77.212376 68.809032
" />
<path d="M77.723197 68.829026
L77.770816 68.746548
" />
<path d="M77.770816 68.746548
L77.774006 68.693404
" />
<path d="M77.774006 68.693404
L77.765291 68.660879
" />
<path d="M77.765291 68.660879
L77.727242 68.583926
" />
<path d="M77.727242 68.583926
L77.656668 68.515687
" />
<path d="M77.656668 68.515687
L77.491711 68.420449
" />
<path d="M77.491711 68.420449
L77.438567 68.417259
" />
<path d="M77.438567 68.417259
L77.406042 68.425974
" />
<path d="M77.406042 68.425974
L77.361613 68.455308
" />
<path d="M77.361613 68.455308
L77.313994 68.537787
" />
<path d="M77.313994 68.537787
L77.310804 68.590931
" />
<path d="M77.310804 68.590931
L77.319519 68.623455
" />
<path d="M77.319519 68.623455
L77.348854 68.667885
" />
<path d="M77.348854 68.667885
L77.451952 68.727408
" />
<path d="M77.451952 68.727408
L77.505096 68.730598
" />
<path d="M77.505096 68.730598
L77.537620 68.721883
" />
<path d="M77.537620 68.721883
L77.582049 68.692549
" />
<path d="M77.582049 68.692549
L77.629669 68.610070
" />
<path d="M77.629669 68.610070
L77.632858 68.556926
" />
<path d="M77.632858 68.556926
L77.624143 68.524402
" />
<path d="M77.624143 68.524402
L77.594809 68.479973
" />
</g><g transform="rotate(60.000000 86.500000 66.700000)">
<text x="86.500000" y="66.950000"
textLength="1.652380" font-size="0.666666" lengthAdjust="spacingAndGlyphs"
text-anchor="middle" opacity="0">C11</text>
</g>
<g class="stroked-text"><desc>C11</desc>
<path d="M86.184708 66.510880
L86.152184 66.502165
" />
<path d="M86.152184 66.502165
L86.095850 66.452211
" />
<path d="M86.095850 66.452211
L86.072040 66.410971
" />
<path d="M86.072040 66.410971
L86.056946 66.337208
" />
<path d="M86.056946 66.337208
L86.074375 66.272159
" />
<path d="M86.074375 66.272159
L86.103710 66.227730
" />
<path d="M86.103710 66.227730
L86.174284 66.159491
" />
<path d="M86.174284 66.159491
L86.236143 66.123777
" />
<path d="M86.236143 66.123777
L86.330526 66.096777
" />
<path d="M86.330526 66.096777
L86.383670 66.093587
" />
<path d="M86.383670 66.093587
L86.448719 66.111017
" />
<path d="M86.448719 66.111017
L86.505053 66.160971
" />
<path d="M86.505053 66.160971
L86.528863 66.202211
" />
<path d="M86.528863 66.202211
L86.543957 66.275974
" />
<path d="M86.543957 66.275974
L86.535242 66.308499
" />
<path d="M86.381564 66.947082
L86.238707 66.699647
" />
<path d="M86.310136 66.823365
L86.743148 66.573365
" />
<path d="M86.743148 66.573365
L86.657480 66.567839
" />
<path d="M86.657480 66.567839
L86.592431 66.550410
" />
<path d="M86.592431 66.550410
L86.548002 66.521075
" />
<path d="M86.619659 67.359475
L86.476802 67.112039
" />
<path d="M86.548231 67.235757
L86.981243 66.985757
" />
<path d="M86.981243 66.985757
L86.895575 66.980232
" />
<path d="M86.895575 66.980232
L86.830526 66.962802
" />
<path d="M86.830526 66.962802
L86.786097 66.933468
" />
</g><g transform="rotate(30.000000 71.000000 57.350000)">
<text x="71.000000" y="57.600000"
textLength="1.176190" font-size="0.666666" lengthAdjust="spacingAndGlyphs"
text-anchor="middle" opacity="0">C6</text>
</g>
<g class="stroked-text"><desc>C6</desc>
<path d="M70.838586 57.462910
L70.806061 57.471625
" />
<path d="M70.806061 57.471625
L70.732298 57.456530
" />
<path d="M70.732298 57.456530
L70.691058 57.432721
" />
<path d="M70.691058 57.432721
L70.641104 57.376387
" />
<path d="M70.641104 57.376387
L70.623674 57.311338
" />
<path d="M70.623674 57.311338
L70.626864 57.258194
" />
<path d="M70.626864 57.258194
L70.653864 57.163811
" />
<path d="M70.653864 57.163811
L70.689578 57.101952
" />
<path d="M70.689578 57.101952
L70.757817 57.031378
" />
<path d="M70.757817 57.031378
L70.802246 57.002043
" />
<path d="M70.802246 57.002043
L70.867295 56.984614
" />
<path d="M70.867295 56.984614
L70.941058 56.999708
" />
<path d="M70.941058 56.999708
L70.982298 57.023518
" />
<path d="M70.982298 57.023518
L71.032252 57.079852
" />
<path d="M71.032252 57.079852
L71.040967 57.112376
" />
<path d="M71.435930 57.285423
L71.353451 57.237804
" />
<path d="M71.353451 57.237804
L71.300307 57.234614
" />
<path d="M71.300307 57.234614
L71.267783 57.243329
" />
<path d="M71.267783 57.243329
L71.190829 57.281378
" />
<path d="M71.190829 57.281378
L71.122591 57.351952
" />
<path d="M71.122591 57.351952
L71.027352 57.516909
" />
<path d="M71.027352 57.516909
L71.024163 57.570053
" />
<path d="M71.024163 57.570053
L71.032877 57.602578
" />
<path d="M71.032877 57.602578
L71.062212 57.647007
" />
<path d="M71.062212 57.647007
L71.144691 57.694626
" />
<path d="M71.144691 57.694626
L71.197835 57.697816
" />
<path d="M71.197835 57.697816
L71.230359 57.689101
" />
<path d="M71.230359 57.689101
L71.274788 57.659766
" />
<path d="M71.274788 57.659766
L71.334312 57.556668
" />
<path d="M71.334312 57.556668
L71.337502 57.503524
" />
<path d="M71.337502 57.503524
L71.328787 57.470999
" />
<path d="M71.328787 57.470999
L71.299453 57.426570
" />
<path d="M71.299453 57.426570
L71.216974 57.378951
" />
<path d="M71.216974 57.378951
L71.163830 57.375761
" />
<path d="M71.163830 57.375761
L71.131305 57.384476
" />
<path d="M71.131305 57.384476
L71.086876 57.413811
" />
</g><g transform="rotate(-90.000000 82.250000 69.200000)">
<text x="82.250000" y="69.450000"
textLength="1.652380" font-size="0.666666" lengthAdjust="spacingAndGlyphs"
text-anchor="middle" opacity="0">C10</text>
</g>
<g class="stroked-text"><desc>C10</desc>
<path d="M82.428490 69.521428
L82.452300 69.545237
" />
<path d="M82.452300 69.545237
L82.476109 69.616666
" />
<path d="M82.476109 69.616666
L82.476109 69.664285
" />
<path d="M82.476109 69.664285
L82.452300 69.735713
" />
<path d="M82.452300 69.735713
L82.404680 69.783332
" />
<path d="M82.404680 69.783332
L82.357061 69.807142
" />
<path d="M82.357061 69.807142
L82.261823 69.830951
" />
<path d="M82.261823 69.830951
L82.190395 69.830951
" />
<path d="M82.190395 69.830951
L82.095157 69.807142
" />
<path d="M82.095157 69.807142
L82.047538 69.783332
" />
<path d="M82.047538 69.783332
L81.999919 69.735713
" />
<path d="M81.999919 69.735713
L81.976109 69.664285
" />
<path d="M81.976109 69.664285
L81.976109 69.616666
" />
<path d="M81.976109 69.616666
L81.999919 69.545237
" />
<path d="M81.999919 69.545237
L82.023728 69.521428
" />
<path d="M82.476109 69.045237
L82.476109 69.330951
" />
<path d="M82.476109 69.188094
L81.976109 69.188094
" />
<path d="M81.976109 69.188094
L82.047538 69.235713
" />
<path d="M82.047538 69.235713
L82.095157 69.283332
" />
<path d="M82.095157 69.283332
L82.118966 69.330951
" />
<path d="M81.976109 68.735714
L81.976109 68.688095
" />
<path d="M81.976109 68.688095
L81.999919 68.640476
" />
<path d="M81.999919 68.640476
L82.023728 68.616666
" />
<path d="M82.023728 68.616666
L82.071347 68.592857
" />
<path d="M82.071347 68.592857
L82.166585 68.569047
" />
<path d="M82.166585 68.569047
L82.285633 68.569047
" />
<path d="M82.285633 68.569047
L82.380871 68.592857
" />
<path d="M82.380871 68.592857
L82.428490 68.616666
" />
<path d="M82.428490 68.616666
L82.452300 68.640476
" />
<path d="M82.452300 68.640476
L82.476109 68.688095
" />
<path d="M82.476109 68.688095
L82.476109 68.735714
" />
<path d="M82.476109 68.735714
L82.452300 68.783333
" />
<path d="M82.452300 68.783333
L82.428490 68.807142
" />
<path d="M82.428490 68.807142
L82.380871 68.830952
" />
<path d="M82.380871 68.830952
L82.285633 68.854761
" />
<path d="M82.285633 68.854761
L82.166585 68.854761
" />
<path d="M82.166585 68.854761
L82.071347 68.830952
" />
<path d="M82.071347 68.830952
L82.023728 68.807142
" />
<path d="M82.023728 68.807142
L81.999919 68.783333
" />
<path d="M81.999919 68.783333
L81.976109 68.735714
" />
</g><g transform="rotate(-30.000000 89.300000 55.150000)">
<text x="89.300000" y="55.400000"
textLength="1.176190" font-size="0.666666" lengthAdjust="spacingAndGlyphs"
text-anchor="middle" opacity="0">D2</text>
</g>
<g class="stroked-text"><desc>D2</desc>
<path d="M89.093450 55.530340
L88.843450 55.097327
" />
<path d="M88.843450 55.097327
L88.946548 55.037803
" />
<path d="M88.946548 55.037803
L89.020312 55.022709
" />
<path d="M89.020312 55.022709
L89.085361 55.040138
" />
<path d="M89.085361 55.040138
L89.129790 55.069473
" />
<path d="M89.129790 55.069473
L89.198029 55.140047
" />
<path d="M89.198029 55.140047
L89.233743 55.201906
" />
<path d="M89.233743 55.201906
L89.260742 55.296289
" />
<path d="M89.260742 55.296289
L89.263932 55.349433
" />
<path d="M89.263932 55.349433
L89.246502 55.414482
" />
<path d="M89.246502 55.414482
L89.196548 55.470816
" />
<path d="M89.196548 55.470816
L89.093450 55.530340
" />
<path d="M89.279652 54.900471
L89.288367 54.867947
" />
<path d="M89.288367 54.867947
L89.317702 54.823518
" />
<path d="M89.317702 54.823518
L89.420800 54.763994
" />
<path d="M89.420800 54.763994
L89.473944 54.760804
" />
<path d="M89.473944 54.760804
L89.506469 54.769519
" />
<path d="M89.506469 54.769519
L89.550898 54.798853
" />
<path d="M89.550898 54.798853
L89.574707 54.840093
" />
<path d="M89.574707 54.840093
L89.589802 54.913856
" />
<path d="M89.589802 54.913856
L89.485223 55.304149
" />
<path d="M89.485223 55.304149
L89.753279 55.149387
" />
</g></g>
<g style="fill:#000000; fill-opacity:0.0; 
stroke:#000000; stroke-width:0.075000; stroke-opacity:1; 
stroke-linecap:round; stroke-linejoin:round;">
<g transform="rotate(-30.000000 88.820302 55.427211)">
<text x="88.820302" y="55.577211"
textLength="0.450714" font-size="0.400000" lengthAdjust="spacingAndGlyphs"
text-anchor="middle" opacity="0">1</text>
</g>
<g class="stroked-text"><desc>1</desc>
<path d="M88.961975 55.501168
L88.813514 55.586882
" />
<path d="M88.887744 55.544025
L88.737744 55.284217
" />
<path d="M88.737744 55.284217
L88.734429 55.335618
" />
<path d="M88.734429 55.335618
L88.723972 55.374648
" />
<path d="M88.723972 55.374648
L88.706371 55.401305
" />
</g></g>
<g style="fill:#000000; fill-opacity:0.0; 
stroke:#000000; stroke-width:0.100000; stroke-opacity:1; 
stroke-linecap:round; stroke-linejoin:round;">
<text x="90.550000" y="59.160000"
textLength="1.176190" font-size="0.666666" lengthAdjust="spacingAndGlyphs"
text-anchor="middle" opacity="0">C1</text>
<g class="stroked-text"><desc>C1</desc>
<path d="M90.466666 59.088490
L90.442857 59.112300
" />
<path d="M90.442857 59.112300
L90.371428 59.136109
" />
<path d="M90.371428 59.136109
L90.323809 59.136109
" />
<path d="M90.323809 59.136109
L90.252381 59.112300
" />
<path d="M90.252381 59.112300
L90.204762 59.064680
" />
<path d="M90.204762 59.064680
L90.180952 59.017061
" />
<path d="M90.180952 59.017061
L90.157143 58.921823
" />
<path d="M90.157143 58.921823
L90.157143 58.850395
" />
<path d="M90.157143 58.850395
L90.180952 58.755157
" />
<path d="M90.180952 58.755157
L90.204762 58.707538
" />
<path d="M90.204762 58.707538
L90.252381 58.659919
" />
<path d="M90.252381 58.659919
L90.323809 58.636109
" />
<path d="M90.323809 58.636109
L90.371428 58.636109
" />
<path d="M90.371428 58.636109
L90.442857 58.659919
" />
<path d="M90.442857 58.659919
L90.466666 58.683728
" />
<path d="M90.942857 59.136109
L90.657143 59.136109
" />
<path d="M90.800000 59.136109
L90.800000 58.636109
" />
<path d="M90.800000 58.636109
L90.752381 58.707538
" />
<path d="M90.752381 58.707538
L90.704762 58.755157
" />
<path d="M90.704762 58.755157
L90.657143 58.778966
" />
</g><g transform="rotate(-30.000000 86.700000 53.650000)">
<text x="86.700000" y="53.900000"
textLength="1.176190" font-size="0.666666" lengthAdjust="spacingAndGlyphs"
text-anchor="middle" opacity="0">C2</text>
</g>
<g class="stroked-text"><desc>C2</desc>
<path d="M86.717076 53.846243
L86.708361 53.878768
" />
<path d="M86.708361 53.878768
L86.658407 53.935102
" />
<path d="M86.658407 53.935102
L86.617168 53.958911
" />
<path d="M86.617168 53.958911
L86.543404 53.974006
" />
<path d="M86.543404 53.974006
L86.478355 53.956576
" />
<path d="M86.478355 53.956576
L86.433926 53.927242
" />
<path d="M86.433926 53.927242
L86.365687 53.856668
" />
<path d="M86.365687 53.856668
L86.329973 53.794809
" />
<path d="M86.329973 53.794809
L86.302974 53.700425
" />
<path d="M86.302974 53.700425
L86.299784 53.647281
" />
<path d="M86.299784 53.647281
L86.317214 53.582232
" />
<path d="M86.317214 53.582232
L86.367168 53.525899
" />
<path d="M86.367168 53.525899
L86.408407 53.502089
" />
<path d="M86.408407 53.502089
L86.482171 53.486994
" />
<path d="M86.482171 53.486994
L86.514695 53.495709
" />
<path d="M86.679652 53.400471
L86.688367 53.367947
" />
<path d="M86.688367 53.367947
L86.717702 53.323518
" />
<path d="M86.717702 53.323518
L86.820800 53.263994
" />
<path d="M86.820800 53.263994
L86.873944 53.260804
" />
<path d="M86.873944 53.260804
L86.906469 53.269519
" />
<path d="M86.906469 53.269519
L86.950898 53.298853
" />
<path d="M86.950898 53.298853
L86.974707 53.340093
" />
<path d="M86.974707 53.340093
L86.989802 53.413856
" />
<path d="M86.989802 53.413856
L86.885223 53.804149
" />
<path d="M86.885223 53.804149
L87.153279 53.649387
" />
</g><g transform="rotate(60.000000 76.712436 51.505771)">
<text x="76.712436" y="51.755771"
textLength="1.176190" font-size="0.666666" lengthAdjust="spacingAndGlyphs"
text-anchor="middle" opacity="0">D5</text>
</g>
<g class="stroked-text"><desc>D5</desc>
<path d="M76.332095 51.299221
L76.765108 51.049221
" />
<path d="M76.765108 51.049221
L76.824632 51.152319
" />
<path d="M76.824632 51.152319
L76.839726 51.226083
" />
<path d="M76.839726 51.226083
L76.822297 51.291132
" />
<path d="M76.822297 51.291132
L76.792962 51.335561
" />
<path d="M76.792962 51.335561
L76.722388 51.403800
" />
<path d="M76.722388 51.403800
L76.660529 51.439514
" />
<path d="M76.660529 51.439514
L76.566146 51.466513
" />
<path d="M76.566146 51.466513
L76.513002 51.469703
" />
<path d="M76.513002 51.469703
L76.447953 51.452273
" />
<path d="M76.447953 51.452273
L76.391619 51.402319
" />
<path d="M76.391619 51.402319
L76.332095 51.299221
" />
<path d="M77.134156 51.688430
L77.015108 51.482234
" />
<path d="M77.015108 51.482234
L76.797007 51.580662
" />
<path d="M76.797007 51.580662
L76.829531 51.589376
" />
<path d="M76.829531 51.589376
L76.873960 51.618711
" />
<path d="M76.873960 51.618711
L76.933484 51.721809
" />
<path d="M76.933484 51.721809
L76.936674 51.774953
" />
<path d="M76.936674 51.774953
L76.927959 51.807478
" />
<path d="M76.927959 51.807478
L76.898624 51.851907
" />
<path d="M76.898624 51.851907
L76.795526 51.911431
" />
<path d="M76.795526 51.911431
L76.742382 51.914621
" />
<path d="M76.742382 51.914621
L76.709858 51.905906
" />
<path d="M76.709858 51.905906
L76.665429 51.876571
" />
<path d="M76.665429 51.876571
L76.605905 51.773473
" />
<path d="M76.605905 51.773473
L76.602715 51.720329
" />
<path d="M76.602715 51.720329
L76.611430 51.687804
" />
</g></g>
<g style="fill:#000000; fill-opacity:0.0; 
stroke:#000000; stroke-width:0.075000; stroke-opacity:1; 
stroke-linecap:round; stroke-linejoin:round;">
<g transform="rotate(60.000000 75.427211 51.179698)">
<text x="75.427211" y="51.329698"
textLength="0.450714" font-size="0.400000" lengthAdjust="spacingAndGlyphs"
text-anchor="middle" opacity="0">1</text>
</g>
<g class="stroked-text"><desc>1</desc>
<path d="M75.353253 51.321371
L75.267539 51.172910
" />
<path d="M75.310396 51.247140
L75.570204 51.097140
" />
<path d="M75.570204 51.097140
L75.518803 51.093825
" />
<path d="M75.518803 51.093825
L75.479773 51.083368
" />
<path d="M75.479773 51.083368
L75.453116 51.065767
" />
</g></g>
<g style="fill:#000000; fill-opacity:0.0; 
stroke:#000000; stroke-width:0.100000; stroke-opacity:1; 
stroke-linecap:round; stroke-linejoin:round;">
<g transform="rotate(30.000000 89.750000 63.149999)">
<text x="89.750000" y="63.399999"
textLength="1.652380" font-size="0.666666" lengthAdjust="spacingAndGlyphs"
text-anchor="middle" opacity="0">C12</text>
</g>
<g class="stroked-text"><desc>C12</desc>
<path d="M89.382389 63.143862
L89.349865 63.152577
" />
<path d="M89.349865 63.152577
L89.276101 63.137482
" />
<path d="M89.276101 63.137482
L89.234862 63.113672
" />
<path d="M89.234862 63.113672
L89.184908 63.057339
" />
<path d="M89.184908 63.057339
L89.167478 62.992290
" />
<path d="M89.167478 62.992290
L89.170668 62.939146
" />
<path d="M89.170668 62.939146
L89.197667 62.844762
" />
<path d="M89.197667 62.844762
L89.233382 62.782903
" />
<path d="M89.233382 62.782903
L89.301620 62.712329
" />
<path d="M89.301620 62.712329
L89.346049 62.682995
" />
<path d="M89.346049 62.682995
L89.411098 62.665565
" />
<path d="M89.411098 62.665565
L89.484862 62.680660
" />
<path d="M89.484862 62.680660
L89.526101 62.704469
" />
<path d="M89.526101 62.704469
L89.576055 62.760803
" />
<path d="M89.576055 62.760803
L89.584770 62.793328
" />
<path d="M89.770973 63.423196
L89.523537 63.280339
" />
<path d="M89.647255 63.351768
L89.897255 62.918755
" />
<path d="M89.897255 62.918755
L89.820301 62.956804
" />
<path d="M89.820301 62.956804
L89.755253 62.974234
" />
<path d="M89.755253 62.974234
L89.702108 62.971044
" />
<path d="M90.162120 63.126661
L90.194645 63.117946
" />
<path d="M90.194645 63.117946
L90.247789 63.121136
" />
<path d="M90.247789 63.121136
L90.350887 63.180660
" />
<path d="M90.350887 63.180660
L90.380221 63.225089
" />
<path d="M90.380221 63.225089
L90.388936 63.257613
" />
<path d="M90.388936 63.257613
L90.385746 63.310757
" />
<path d="M90.385746 63.310757
L90.361937 63.351996
" />
<path d="M90.361937 63.351996
L90.305603 63.401951
" />
<path d="M90.305603 63.401951
L89.915310 63.506529
" />
<path d="M89.915310 63.506529
L90.183366 63.661291
" />
</g><g transform="rotate(-60.000000 74.287564 67.094229)">
<text x="74.287564" y="67.344229"
textLength="1.176190" font-size="0.666666" lengthAdjust="spacingAndGlyphs"
text-anchor="middle" opacity="0">D9</text>
</g>
<g class="stroked-text"><desc>D9</desc>
<path d="M74.298856 67.526888
L73.865844 67.276888
" />
<path d="M73.865844 67.276888
L73.925368 67.173789
" />
<path d="M73.925368 67.173789
L73.981701 67.123835
" />
<path d="M73.981701 67.123835
L74.046750 67.106405
" />
<path d="M74.046750 67.106405
L74.099894 67.109595
" />
<path d="M74.099894 67.109595
L74.194278 67.136595
" />
<path d="M74.194278 67.136595
L74.256137 67.172309
" />
<path d="M74.256137 67.172309
L74.326711 67.240548
" />
<path d="M74.326711 67.240548
L74.356045 67.284977
" />
<path d="M74.356045 67.284977
L74.373475 67.350026
" />
<path d="M74.373475 67.350026
L74.358380 67.423789
" />
<path d="M74.358380 67.423789
L74.298856 67.526888
" />
<path d="M74.560761 67.073255
L74.608380 66.990777
" />
<path d="M74.608380 66.990777
L74.611570 66.937633
" />
<path d="M74.611570 66.937633
L74.602855 66.905108
" />
<path d="M74.602855 66.905108
L74.564806 66.828155
" />
<path d="M74.564806 66.828155
L74.494232 66.759916
" />
<path d="M74.494232 66.759916
L74.329275 66.664678
" />
<path d="M74.329275 66.664678
L74.276131 66.661488
" />
<path d="M74.276131 66.661488
L74.243606 66.670203
" />
<path d="M74.243606 66.670203
L74.199177 66.699537
" />
<path d="M74.199177 66.699537
L74.151558 66.782016
" />
<path d="M74.151558 66.782016
L74.148368 66.835160
" />
<path d="M74.148368 66.835160
L74.157083 66.867684
" />
<path d="M74.157083 66.867684
L74.186418 66.912114
" />
<path d="M74.186418 66.912114
L74.289516 66.971637
" />
<path d="M74.289516 66.971637
L74.342660 66.974827
" />
<path d="M74.342660 66.974827
L74.375184 66.966112
" />
<path d="M74.375184 66.966112
L74.419613 66.936778
" />
<path d="M74.419613 66.936778
L74.467233 66.854299
" />
<path d="M74.467233 66.854299
L74.470422 66.801155
" />
<path d="M74.470422 66.801155
L74.461707 66.768631
" />
<path d="M74.461707 66.768631
L74.432373 66.724202
" />
</g></g>
<g style="fill:#000000; fill-opacity:0.0; 
stroke:#000000; stroke-width:0.075000; stroke-opacity:1; 
stroke-linecap:round; stroke-linejoin:round;">
<g transform="rotate(-60.000000 74.647789 68.370302)">
<text x="74.647789" y="68.520302"
textLength="0.450714" font-size="0.400000" lengthAdjust="spacingAndGlyphs"
text-anchor="middle" opacity="0">1</text>
</g>
<g class="stroked-text"><desc>1</desc>
<path d="M74.807460 68.363513
L74.721746 68.511975
" />
<path d="M74.764603 68.437744
L74.504795 68.287744
" />
<path d="M74.504795 68.287744
L74.527625 68.333916
" />
<path d="M74.527625 68.333916
L74.538083 68.372946
" />
<path d="M74.538083 68.372946
L74.536169 68.404832
" />
</g></g>
<g style="fill:#000000; fill-opacity:0.0; 
stroke:#000000; stroke-width:0.100000; stroke-opacity:1; 
stroke-linecap:round; stroke-linejoin:round;">
<g transform="rotate(-60.000000 85.712436 52.905771)">
<text x="85.712436" y="53.155771"
textLength="1.176190" font-size="0.666666" lengthAdjust="spacingAndGlyphs"
text-anchor="middle" opacity="0">D3</text>
</g>
<g class="stroked-text"><desc>D3</desc>
<path d="M85.723728 53.338430
L85.290716 53.088430
" />
<path d="M85.290716 53.088430
L85.350240 52.985331
" />
<path d="M85.350240 52.985331
L85.406573 52.935377
" />
<path d="M85.406573 52.935377
L85.471622 52.917947
" />
<path d="M85.471622 52.917947
L85.524766 52.921137
" />
<path d="M85.524766 52.921137
L85.619150 52.948137
" />
<path d="M85.619150 52.948137
L85.681009 52.983851
" />
<path d="M85.681009 52.983851
L85.751583 53.052090
" />
<path d="M85.751583 53.052090
L85.780917 53.096519
" />
<path d="M85.780917 53.096519
L85.798347 53.161568
" />
<path d="M85.798347 53.161568
L85.783252 53.235331
" />
<path d="M85.783252 53.235331
L85.723728 53.338430
" />
<path d="M85.516906 52.696656
L85.671668 52.428601
" />
<path d="M85.671668 52.428601
L85.753292 52.668176
" />
<path d="M85.753292 52.668176
L85.789006 52.606317
" />
<path d="M85.789006 52.606317
L85.833435 52.576983
" />
<path d="M85.833435 52.576983
L85.865960 52.568268
" />
<path d="M85.865960 52.568268
L85.919104 52.571458
" />
<path d="M85.919104 52.571458
L86.022202 52.630982
" />
<path d="M86.022202 52.630982
L86.051537 52.675411
" />
<path d="M86.051537 52.675411
L86.060252 52.707935
" />
<path d="M86.060252 52.707935
L86.057062 52.761079
" />
<path d="M86.057062 52.761079
L85.985633 52.884797
" />
<path d="M85.985633 52.884797
L85.941204 52.914132
" />
<path d="M85.941204 52.914132
L85.908680 52.922847
" />
</g></g>
<g style="fill:#000000; fill-opacity:0.0; 
stroke:#000000; stroke-width:0.075000; stroke-opacity:1; 
stroke-linecap:round; stroke-linejoin:round;">
<g transform="rotate(-60.000000 85.352211 51.629698)">
<text x="85.352211" y="51.779698"
textLength="0.450714" font-size="0.400000" lengthAdjust="spacingAndGlyphs"
text-anchor="middle" opacity="0">1</text>
</g>
<g class="stroked-text"><desc>1</desc>
<path d="M85.511882 51.622909
L85.426168 51.771371
" />
<path d="M85.469025 51.697140
L85.209217 51.547140
" />
<path d="M85.209217 51.547140
L85.232047 51.593312
" />
<path d="M85.232047 51.593312
L85.242505 51.632342
" />
<path d="M85.242505 51.632342
L85.240591 51.664228
" />
</g></g>
<g style="fill:#000000; fill-opacity:0.0; 
stroke:#000000; stroke-width:0.100000; stroke-opacity:1; 
stroke-linecap:round; stroke-linejoin:round;">
<text x="88.700000" y="62.600000"
textLength="1.176190" font-size="0.666666" lengthAdjust="spacingAndGlyphs"
text-anchor="middle" opacity="0">R1</text>
<g class="stroked-text"><desc>R1</desc>
<path d="M88.616666 62.576109
L88.450000 62.338014
" />
<path d="M88.330952 62.576109
L88.330952 62.076109
" />
<path d="M88.330952 62.076109
L88.521428 62.076109
" />
<path d="M88.521428 62.076109
L88.569047 62.099919
" />
<path d="M88.569047 62.099919
L88.592857 62.123728
" />
<path d="M88.592857 62.123728
L88.616666 62.171347
" />
<path d="M88.616666 62.171347
L88.616666 62.242776
" />
<path d="M88.616666 62.242776
L88.592857 62.290395
" />
<path d="M88.592857 62.290395
L88.569047 62.314204
" />
<path d="M88.569047 62.314204
L88.521428 62.338014
" />
<path d="M88.521428 62.338014
L88.330952 62.338014
" />
<path d="M89.092857 62.576109
L88.807143 62.576109
" />
<path d="M88.950000 62.576109
L88.950000 62.076109
" />
<path d="M88.950000 62.076109
L88.902381 62.147538
" />
<path d="M88.902381 62.147538
L88.854762 62.195157
" />
<path d="M88.854762 62.195157
L88.807143 62.218966
" />
</g><g transform="rotate(-60.000000 82.600000 51.150000)">
<text x="82.600000" y="51.400000"
textLength="1.176190" font-size="0.666666" lengthAdjust="spacingAndGlyphs"
text-anchor="middle" opacity="0">C3</text>
</g>
<g class="stroked-text"><desc>C3</desc>
<path d="M82.712910 51.311413
L82.721625 51.343938
" />
<path d="M82.721625 51.343938
L82.706530 51.417701
" />
<path d="M82.706530 51.417701
L82.682721 51.458941
" />
<path d="M82.682721 51.458941
L82.626387 51.508895
" />
<path d="M82.626387 51.508895
L82.561338 51.526325
" />
<path d="M82.561338 51.526325
L82.508194 51.523135
" />
<path d="M82.508194 51.523135
L82.413811 51.496135
" />
<path d="M82.413811 51.496135
L82.351952 51.460421
" />
<path d="M82.351952 51.460421
L82.281378 51.392182
" />
<path d="M82.281378 51.392182
L82.252043 51.347753
" />
<path d="M82.252043 51.347753
L82.234614 51.282704
" />
<path d="M82.234614 51.282704
L82.249708 51.208941
" />
<path d="M82.249708 51.208941
L82.273518 51.167701
" />
<path d="M82.273518 51.167701
L82.329852 51.117747
" />
<path d="M82.329852 51.117747
L82.362376 51.109032
" />
<path d="M82.404470 50.940885
L82.559232 50.672830
" />
<path d="M82.559232 50.672830
L82.640856 50.912405
" />
<path d="M82.640856 50.912405
L82.676570 50.850546
" />
<path d="M82.676570 50.850546
L82.720999 50.821212
" />
<path d="M82.720999 50.821212
L82.753524 50.812497
" />
<path d="M82.753524 50.812497
L82.806668 50.815687
" />
<path d="M82.806668 50.815687
L82.909766 50.875211
" />
<path d="M82.909766 50.875211
L82.939101 50.919640
" />
<path d="M82.939101 50.919640
L82.947816 50.952164
" />
<path d="M82.947816 50.952164
L82.944626 51.005308
" />
<path d="M82.944626 51.005308
L82.873197 51.129026
" />
<path d="M82.873197 51.129026
L82.828768 51.158361
" />
<path d="M82.828768 51.158361
L82.796244 51.167076
" />
</g><path d="M83.338878 67.483107
L83.663878 68.046024
" />
<path d="M83.901795 67.158107
L83.338878 67.483107
" />
<path d="M88.150000 60.850000
L88.800000 60.850000
" />
<path d="M88.150000 60.200000
L88.150000 60.850000
" />
<path d="M80.850000 51.850000
L80.850000 51.200000
" />
<path d="M80.200000 51.850000
L80.850000 51.850000
" />
<path d="M86.633107 64.811122
L87.196024 65.136122
" />
<path d="M86.958107 64.248205
L86.633107 64.811122
" />
<path d="M72.516893 63.338878
L71.953976 63.663878
" />
<path d="M72.841893 63.901795
L72.516893 63.338878
" />
<path d="M79.150000 68.150000
L79.150000 68.800000
" />
<path d="M79.800000 68.150000
L79.150000 68.150000
" />
<path d="M71.850000 59.150000
L71.200000 59.150000
" />
<path d="M71.850000 59.800000
L71.850000 59.150000
" />
<path d="M73.366893 55.188878
L72.803976 54.863878
" />
<path d="M73.041893 55.751795
L73.366893 55.188878
" />
</g>
<g style="fill:#000000; fill-opacity:0.0; 
stroke:#000000; stroke-width:0.120000; stroke-opacity:1; 
stroke-linecap:round; stroke-linejoin:round;">
<path d="M88.450000 58.060000
L89.250000 58.060000
" />
<path d="M88.450000 56.700000
L88.450000 58.060000
" />
<path d="M89.250000 56.700000
L89.250000 58.060000
" />
</g>
<g style="fill:#000000; fill-opacity:0.0; 
stroke:#000000; stroke-width:0.100000; stroke-opacity:1; 
stroke-linecap:round; stroke-linejoin:round;">
<path d="M87.483107 56.661122
L88.046024 56.336122
" />
<path d="M87.158107 56.098205
L87.483107 56.661122
" />
<path d="M76.661122 52.516893
L76.336122 51.953976
" />
<path d="M76.098205 52.841893
L76.661122 52.516893
" />
<path d="M75.188878 66.633107
L74.863878 67.196024
" />
<path d="M75.751795 66.958107
L75.188878 66.633107
" />
<path d="M84.811122 53.366893
L85.136122 52.803976
" />
<path d="M84.248205 53.041893
L84.811122 53.366893
" />
<g >
</g>
<g >
</g>
<g >
</g>
<g >
</g>
<g >
</g>
<g >
</g>
<g >
</g>
<g >
</g>
<g >
</g>
<g >
</g>
<g >
</g>
<g >
</g>
<g >
</g>
<g >
</g>
<g >
</g>
<g >
</g>
<g >
</g>
<g >
</g>
<g >
</g>
<g >
</g>
<g >
</g>
<g >
</g>
<g >
</g>
<g >
</g>
<g >
</g>
<g >
</g>
<g >
</g>
<g >
</g>
<g >
</g>
<g >
</g>
<g >
</g>
<g >
</g>
<g >
</g>
<g >
</g>
</g> 
</svg>
