<?xml version="1.0" standalone="no"?>
 <!DOCTYPE svg PUBLIC "-//W3C//DTD SVG 1.1//EN" 
 "http://www.w3.org/Graphics/SVG/1.1/DTD/svg11.dtd"> 
<svg
  xmlns:svg="http://www.w3.org/2000/svg"
  xmlns="http://www.w3.org/2000/svg"
  xmlns:xlink="http://www.w3.org/1999/xlink"
  version="1.1"
  width="2.6100000000000003cm" height="2.6100000000000003cm" viewBox="66.95 46.95 26.1 26.1">
<title>SVG Image created as pedalboard-led-ring-F_SilkS.svg date 2024/01/10 19:22:26 </title>
  <desc>Image generated by PCBNEW </desc>
<g style="fill:#000000; fill-opacity:1.000000;stroke:#000000; stroke-opacity:1.000000;
stroke-linecap:round; stroke-linejoin:round;"
 transform="translate(0 0) scale(1 1)">
</g>
<g style="fill:#000000; fill-opacity:0.0; 
stroke:#000000; stroke-width:0.000000; stroke-opacity:1; 
stroke-linecap:round; stroke-linejoin:round;">
</g>
<g style="fill:#000000; fill-opacity:0.0; 
stroke:#000000; stroke-width:0.100000; stroke-opacity:1; 
stroke-linecap:round; stroke-linejoin:round;">
<text x="78.040000" y="71.220000"
textLength="1.842856" font-size="0.666666" lengthAdjust="spacingAndGlyphs"
text-anchor="middle" opacity="0">FID2</text>
<g class="stroked-text"><desc>FID2</desc>
<path d="M77.504286 70.934204
L77.337619 70.934204
" />
<path d="M77.337619 71.196109
L77.337619 70.696109
" />
<path d="M77.337619 70.696109
L77.575714 70.696109
" />
<path d="M77.766190 71.196109
L77.766190 70.696109
" />
<path d="M78.004285 71.196109
L78.004285 70.696109
" />
<path d="M78.004285 70.696109
L78.123333 70.696109
" />
<path d="M78.123333 70.696109
L78.194761 70.719919
" />
<path d="M78.194761 70.719919
L78.242380 70.767538
" />
<path d="M78.242380 70.767538
L78.266190 70.815157
" />
<path d="M78.266190 70.815157
L78.289999 70.910395
" />
<path d="M78.289999 70.910395
L78.289999 70.981823
" />
<path d="M78.289999 70.981823
L78.266190 71.077061
" />
<path d="M78.266190 71.077061
L78.242380 71.124680
" />
<path d="M78.242380 71.124680
L78.194761 71.172300
" />
<path d="M78.194761 71.172300
L78.123333 71.196109
" />
<path d="M78.123333 71.196109
L78.004285 71.196109
" />
<path d="M78.480476 70.743728
L78.504285 70.719919
" />
<path d="M78.504285 70.719919
L78.551904 70.696109
" />
<path d="M78.551904 70.696109
L78.670952 70.696109
" />
<path d="M78.670952 70.696109
L78.718571 70.719919
" />
<path d="M78.718571 70.719919
L78.742380 70.743728
" />
<path d="M78.742380 70.743728
L78.766190 70.791347
" />
<path d="M78.766190 70.791347
L78.766190 70.838966
" />
<path d="M78.766190 70.838966
L78.742380 70.910395
" />
<path d="M78.742380 70.910395
L78.456666 71.196109
" />
<path d="M78.456666 71.196109
L78.766190 71.196109
" />
</g><g transform="rotate(60.000000 83.350000 68.558458)">
<text x="83.350000" y="68.808458"
textLength="1.652380" font-size="0.666666" lengthAdjust="spacingAndGlyphs"
text-anchor="middle" opacity="0">D11</text>
</g>
<g class="stroked-text"><desc>D11</desc>
<path d="M82.850612 68.145712
L83.283624 67.895712
" />
<path d="M83.283624 67.895712
L83.343148 67.998810
" />
<path d="M83.343148 67.998810
L83.358243 68.072574
" />
<path d="M83.358243 68.072574
L83.340813 68.137622
" />
<path d="M83.340813 68.137622
L83.311479 68.182052
" />
<path d="M83.311479 68.182052
L83.240905 68.250290
" />
<path d="M83.240905 68.250290
L83.179046 68.286005
" />
<path d="M83.179046 68.286005
L83.084662 68.313004
" />
<path d="M83.084662 68.313004
L83.031518 68.316194
" />
<path d="M83.031518 68.316194
L82.966469 68.298764
" />
<path d="M82.966469 68.298764
L82.910136 68.248810
" />
<path d="M82.910136 68.248810
L82.850612 68.145712
" />
<path d="M83.231564 68.805540
L83.088707 68.558105
" />
<path d="M83.160136 68.681823
L83.593148 68.431823
" />
<path d="M83.593148 68.431823
L83.507480 68.426297
" />
<path d="M83.507480 68.426297
L83.442431 68.408868
" />
<path d="M83.442431 68.408868
L83.398002 68.379533
" />
<path d="M83.469659 69.217933
L83.326802 68.970497
" />
<path d="M83.398231 69.094215
L83.831243 68.844215
" />
<path d="M83.831243 68.844215
L83.745575 68.838690
" />
<path d="M83.745575 68.838690
L83.680526 68.821260
" />
<path d="M83.680526 68.821260
L83.636097 68.791926
" />
</g></g>
<g style="fill:#000000; fill-opacity:0.0; 
stroke:#000000; stroke-width:0.075000; stroke-opacity:1; 
stroke-linecap:round; stroke-linejoin:round;">
<g transform="rotate(60.000000 84.572789 68.820302)">
<text x="84.572789" y="68.970302"
textLength="0.450714" font-size="0.400000" lengthAdjust="spacingAndGlyphs"
text-anchor="middle" opacity="0">1</text>
</g>
<g class="stroked-text"><desc>1</desc>
<path d="M84.498831 68.961975
L84.413117 68.813514
" />
<path d="M84.455974 68.887744
L84.715782 68.737744
" />
<path d="M84.715782 68.737744
L84.664381 68.734429
" />
<path d="M84.664381 68.734429
L84.625351 68.723972
" />
<path d="M84.625351 68.723972
L84.598694 68.706371
" />
</g></g>
<g style="fill:#000000; fill-opacity:0.0; 
stroke:#000000; stroke-width:0.100000; stroke-opacity:1; 
stroke-linecap:round; stroke-linejoin:round;">
<g transform="rotate(-90.000000 77.680000 50.520000)">
<text x="77.680000" y="50.770000"
textLength="1.176190" font-size="0.666666" lengthAdjust="spacingAndGlyphs"
text-anchor="middle" opacity="0">C4</text>
</g>
<g class="stroked-text"><desc>C4</desc>
<path d="M77.858490 50.603333
L77.882300 50.627142
" />
<path d="M77.882300 50.627142
L77.906109 50.698571
" />
<path d="M77.906109 50.698571
L77.906109 50.746190
" />
<path d="M77.906109 50.746190
L77.882300 50.817618
" />
<path d="M77.882300 50.817618
L77.834680 50.865237
" />
<path d="M77.834680 50.865237
L77.787061 50.889047
" />
<path d="M77.787061 50.889047
L77.691823 50.912856
" />
<path d="M77.691823 50.912856
L77.620395 50.912856
" />
<path d="M77.620395 50.912856
L77.525157 50.889047
" />
<path d="M77.525157 50.889047
L77.477538 50.865237
" />
<path d="M77.477538 50.865237
L77.429919 50.817618
" />
<path d="M77.429919 50.817618
L77.406109 50.746190
" />
<path d="M77.406109 50.746190
L77.406109 50.698571
" />
<path d="M77.406109 50.698571
L77.429919 50.627142
" />
<path d="M77.429919 50.627142
L77.453728 50.603333
" />
<path d="M77.572776 50.174761
L77.906109 50.174761
" />
<path d="M77.382300 50.293809
L77.739442 50.412856
" />
<path d="M77.739442 50.412856
L77.739442 50.103333
" />
</g><g transform="rotate(60.000000 73.130000 52.970000)">
<text x="73.130000" y="53.220000"
textLength="1.176190" font-size="0.666666" lengthAdjust="spacingAndGlyphs"
text-anchor="middle" opacity="0">C5</text>
</g>
<g class="stroked-text"><desc>C5</desc>
<path d="M72.933756 52.987076
L72.901231 52.978361
" />
<path d="M72.901231 52.978361
L72.844897 52.928407
" />
<path d="M72.844897 52.928407
L72.821088 52.887168
" />
<path d="M72.821088 52.887168
L72.805993 52.813404
" />
<path d="M72.805993 52.813404
L72.823423 52.748355
" />
<path d="M72.823423 52.748355
L72.852757 52.703926
" />
<path d="M72.852757 52.703926
L72.923331 52.635687
" />
<path d="M72.923331 52.635687
L72.985190 52.599973
" />
<path d="M72.985190 52.599973
L73.079574 52.572974
" />
<path d="M73.079574 52.572974
L73.132718 52.569784
" />
<path d="M73.132718 52.569784
L73.197767 52.587214
" />
<path d="M73.197767 52.587214
L73.254100 52.637168
" />
<path d="M73.254100 52.637168
L73.277910 52.678407
" />
<path d="M73.277910 52.678407
L73.293005 52.752171
" />
<path d="M73.293005 52.752171
L73.284290 52.784695
" />
<path d="M73.551720 53.152659
L73.432672 52.946463
" />
<path d="M73.432672 52.946463
L73.214571 53.044891
" />
<path d="M73.214571 53.044891
L73.247095 53.053605
" />
<path d="M73.247095 53.053605
L73.291524 53.082940
" />
<path d="M73.291524 53.082940
L73.351048 53.186038
" />
<path d="M73.351048 53.186038
L73.354238 53.239182
" />
<path d="M73.354238 53.239182
L73.345523 53.271707
" />
<path d="M73.345523 53.271707
L73.316188 53.316136
" />
<path d="M73.316188 53.316136
L73.213090 53.375660
" />
<path d="M73.213090 53.375660
L73.159946 53.378850
" />
<path d="M73.159946 53.378850
L73.127422 53.370135
" />
<path d="M73.127422 53.370135
L73.082993 53.340800
" />
<path d="M73.082993 53.340800
L73.023469 53.237702
" />
<path d="M73.023469 53.237702
L73.020279 53.184558
" />
<path d="M73.020279 53.184558
L73.028994 53.152033
" />
</g><text x="90.590000" y="60.350000"
textLength="1.176190" font-size="0.666666" lengthAdjust="spacingAndGlyphs"
text-anchor="middle" opacity="0">D1</text>
<g class="stroked-text"><desc>D1</desc>
<path d="M90.220952 60.326109
L90.220952 59.826109
" />
<path d="M90.220952 59.826109
L90.340000 59.826109
" />
<path d="M90.340000 59.826109
L90.411428 59.849919
" />
<path d="M90.411428 59.849919
L90.459047 59.897538
" />
<path d="M90.459047 59.897538
L90.482857 59.945157
" />
<path d="M90.482857 59.945157
L90.506666 60.040395
" />
<path d="M90.506666 60.040395
L90.506666 60.111823
" />
<path d="M90.506666 60.111823
L90.482857 60.207061
" />
<path d="M90.482857 60.207061
L90.459047 60.254680
" />
<path d="M90.459047 60.254680
L90.411428 60.302300
" />
<path d="M90.411428 60.302300
L90.340000 60.326109
" />
<path d="M90.340000 60.326109
L90.220952 60.326109
" />
<path d="M90.982857 60.326109
L90.697143 60.326109
" />
<path d="M90.840000 60.326109
L90.840000 59.826109
" />
<path d="M90.840000 59.826109
L90.792381 59.897538
" />
<path d="M90.792381 59.897538
L90.744762 59.945157
" />
<path d="M90.744762 59.945157
L90.697143 59.968966
" />
</g></g>
<g style="fill:#000000; fill-opacity:0.0; 
stroke:#000000; stroke-width:0.075000; stroke-opacity:1; 
stroke-linecap:round; stroke-linejoin:round;">
<text x="89.925000" y="60.600000"
textLength="0.450714" font-size="0.400000" lengthAdjust="spacingAndGlyphs"
text-anchor="middle" opacity="0">1</text>
<g class="stroked-text"><desc>1</desc>
<path d="M90.010714 60.584885
L89.839285 60.584885
" />
<path d="M89.925000 60.584885
L89.925000 60.284885
" />
<path d="M89.925000 60.284885
L89.896428 60.327742
" />
<path d="M89.896428 60.327742
L89.867857 60.356314
" />
<path d="M89.867857 60.356314
L89.839285 60.370600
" />
</g></g>
<g style="fill:#000000; fill-opacity:0.0; 
stroke:#000000; stroke-width:0.100000; stroke-opacity:1; 
stroke-linecap:round; stroke-linejoin:round;">
<g transform="rotate(-90.000000 81.400000 51.000000)">
<text x="81.400000" y="51.250000"
textLength="1.176190" font-size="0.666666" lengthAdjust="spacingAndGlyphs"
text-anchor="middle" opacity="0">D4</text>
</g>
<g class="stroked-text"><desc>D4</desc>
<path d="M81.626109 51.369047
L81.126109 51.369047
" />
<path d="M81.126109 51.369047
L81.126109 51.249999
" />
<path d="M81.126109 51.249999
L81.149919 51.178571
" />
<path d="M81.149919 51.178571
L81.197538 51.130952
" />
<path d="M81.197538 51.130952
L81.245157 51.107142
" />
<path d="M81.245157 51.107142
L81.340395 51.083333
" />
<path d="M81.340395 51.083333
L81.411823 51.083333
" />
<path d="M81.411823 51.083333
L81.507061 51.107142
" />
<path d="M81.507061 51.107142
L81.554680 51.130952
" />
<path d="M81.554680 51.130952
L81.602300 51.178571
" />
<path d="M81.602300 51.178571
L81.626109 51.249999
" />
<path d="M81.626109 51.249999
L81.626109 51.369047
" />
<path d="M81.292776 50.654761
L81.626109 50.654761
" />
<path d="M81.102300 50.773809
L81.459442 50.892856
" />
<path d="M81.459442 50.892856
L81.459442 50.583333
" />
</g></g>
<g style="fill:#000000; fill-opacity:0.0; 
stroke:#000000; stroke-width:0.075000; stroke-opacity:1; 
stroke-linecap:round; stroke-linejoin:round;">
<g transform="rotate(-90.000000 80.450000 50.075000)">
<text x="80.450000" y="50.225000"
textLength="0.450714" font-size="0.400000" lengthAdjust="spacingAndGlyphs"
text-anchor="middle" opacity="0">1</text>
</g>
<g class="stroked-text"><desc>1</desc>
<path d="M80.584885 49.989285
L80.584885 50.160714
" />
<path d="M80.584885 50.074999
L80.284885 50.074999
" />
<path d="M80.284885 50.074999
L80.327742 50.103571
" />
<path d="M80.327742 50.103571
L80.356314 50.132142
" />
<path d="M80.356314 50.132142
L80.370600 50.160714
" />
</g></g>
<g style="fill:#000000; fill-opacity:0.0; 
stroke:#000000; stroke-width:0.100000; stroke-opacity:1; 
stroke-linecap:round; stroke-linejoin:round;">
<g transform="rotate(30.000000 87.094229 65.712436)">
<text x="87.094229" y="65.962436"
textLength="1.652380" font-size="0.666666" lengthAdjust="spacingAndGlyphs"
text-anchor="middle" opacity="0">D12</text>
</g>
<g class="stroked-text"><desc>D12</desc>
<path d="M86.455373 65.604681
L86.705373 65.171668
" />
<path d="M86.705373 65.171668
L86.808471 65.231192
" />
<path d="M86.808471 65.231192
L86.858425 65.287526
" />
<path d="M86.858425 65.287526
L86.875855 65.352575
" />
<path d="M86.875855 65.352575
L86.872665 65.405719
" />
<path d="M86.872665 65.405719
L86.845666 65.500102
" />
<path d="M86.845666 65.500102
L86.809952 65.561961
" />
<path d="M86.809952 65.561961
L86.741713 65.632535
" />
<path d="M86.741713 65.632535
L86.697284 65.661870
" />
<path d="M86.697284 65.661870
L86.632235 65.679299
" />
<path d="M86.632235 65.679299
L86.558471 65.664205
" />
<path d="M86.558471 65.664205
L86.455373 65.604681
" />
<path d="M87.115202 65.985633
L86.867766 65.842776
" />
<path d="M86.991484 65.914205
L87.241484 65.481192
" />
<path d="M87.241484 65.481192
L87.164530 65.519241
" />
<path d="M87.164530 65.519241
L87.099482 65.536671
" />
<path d="M87.099482 65.536671
L87.046337 65.533481
" />
<path d="M87.506349 65.689098
L87.538874 65.680383
" />
<path d="M87.538874 65.680383
L87.592018 65.683573
" />
<path d="M87.592018 65.683573
L87.695116 65.743097
" />
<path d="M87.695116 65.743097
L87.724450 65.787526
" />
<path d="M87.724450 65.787526
L87.733165 65.820050
" />
<path d="M87.733165 65.820050
L87.729975 65.873194
" />
<path d="M87.729975 65.873194
L87.706166 65.914433
" />
<path d="M87.706166 65.914433
L87.649832 65.964388
" />
<path d="M87.649832 65.964388
L87.259539 66.068966
" />
<path d="M87.259539 66.068966
L87.527595 66.223728
" />
</g></g>
<g style="fill:#000000; fill-opacity:0.0; 
stroke:#000000; stroke-width:0.075000; stroke-opacity:1; 
stroke-linecap:round; stroke-linejoin:round;">
<g transform="rotate(30.000000 88.370302 65.352211)">
<text x="88.370302" y="65.502211"
textLength="0.450714" font-size="0.400000" lengthAdjust="spacingAndGlyphs"
text-anchor="middle" opacity="0">1</text>
</g>
<g class="stroked-text"><desc>1</desc>
<path d="M88.377090 65.511882
L88.228628 65.426168
" />
<path d="M88.302859 65.469025
L88.452859 65.209217
" />
<path d="M88.452859 65.209217
L88.406687 65.232047
" />
<path d="M88.406687 65.232047
L88.367657 65.242505
" />
<path d="M88.367657 65.242505
L88.335771 65.240591
" />
</g></g>
<g style="fill:#000000; fill-opacity:0.0; 
stroke:#000000; stroke-width:0.100000; stroke-opacity:1; 
stroke-linecap:round; stroke-linejoin:round;">
<g transform="rotate(-30.000000 71.505771 63.287564)">
<text x="71.505771" y="63.537564"
textLength="1.176190" font-size="0.666666" lengthAdjust="spacingAndGlyphs"
text-anchor="middle" opacity="0">D8</text>
</g>
<g class="stroked-text"><desc>D8</desc>
<path d="M71.299221 63.667904
L71.049221 63.234891
" />
<path d="M71.049221 63.234891
L71.152319 63.175367
" />
<path d="M71.152319 63.175367
L71.226083 63.160273
" />
<path d="M71.226083 63.160273
L71.291132 63.177702
" />
<path d="M71.291132 63.177702
L71.335561 63.207037
" />
<path d="M71.335561 63.207037
L71.403800 63.277611
" />
<path d="M71.403800 63.277611
L71.439514 63.339470
" />
<path d="M71.439514 63.339470
L71.466513 63.433853
" />
<path d="M71.466513 63.433853
L71.469703 63.486997
" />
<path d="M71.469703 63.486997
L71.452273 63.552046
" />
<path d="M71.452273 63.552046
L71.402319 63.608380
" />
<path d="M71.402319 63.608380
L71.299221 63.667904
" />
<path d="M71.651235 63.134754
L71.598091 63.137944
" />
<path d="M71.598091 63.137944
L71.565567 63.129229
" />
<path d="M71.565567 63.129229
L71.521138 63.099894
" />
<path d="M71.521138 63.099894
L71.509233 63.079274
" />
<path d="M71.509233 63.079274
L71.506043 63.026130
" />
<path d="M71.506043 63.026130
L71.514758 62.993606
" />
<path d="M71.514758 62.993606
L71.544093 62.949177
" />
<path d="M71.544093 62.949177
L71.626571 62.901558
" />
<path d="M71.626571 62.901558
L71.679715 62.898368
" />
<path d="M71.679715 62.898368
L71.712240 62.907083
" />
<path d="M71.712240 62.907083
L71.756669 62.936417
" />
<path d="M71.756669 62.936417
L71.768574 62.957037
" />
<path d="M71.768574 62.957037
L71.771763 63.010181
" />
<path d="M71.771763 63.010181
L71.763049 63.042705
" />
<path d="M71.763049 63.042705
L71.733714 63.087135
" />
<path d="M71.733714 63.087135
L71.651235 63.134754
" />
<path d="M71.651235 63.134754
L71.621901 63.179183
" />
<path d="M71.621901 63.179183
L71.613186 63.211707
" />
<path d="M71.613186 63.211707
L71.616376 63.264851
" />
<path d="M71.616376 63.264851
L71.663995 63.347330
" />
<path d="M71.663995 63.347330
L71.708424 63.376664
" />
<path d="M71.708424 63.376664
L71.740948 63.385379
" />
<path d="M71.740948 63.385379
L71.794093 63.382189
" />
<path d="M71.794093 63.382189
L71.876571 63.334570
" />
<path d="M71.876571 63.334570
L71.905906 63.290141
" />
<path d="M71.905906 63.290141
L71.914621 63.257617
" />
<path d="M71.914621 63.257617
L71.911431 63.204473
" />
<path d="M71.911431 63.204473
L71.863812 63.121994
" />
<path d="M71.863812 63.121994
L71.819382 63.092660
" />
<path d="M71.819382 63.092660
L71.786858 63.083945
" />
<path d="M71.786858 63.083945
L71.733714 63.087135
" />
</g></g>
<g style="fill:#000000; fill-opacity:0.0; 
stroke:#000000; stroke-width:0.075000; stroke-opacity:1; 
stroke-linecap:round; stroke-linejoin:round;">
<g transform="rotate(-30.000000 71.179698 64.572789)">
<text x="71.179698" y="64.722789"
textLength="0.450714" font-size="0.400000" lengthAdjust="spacingAndGlyphs"
text-anchor="middle" opacity="0">1</text>
</g>
<g class="stroked-text"><desc>1</desc>
<path d="M71.321371 64.646746
L71.172910 64.732460
" />
<path d="M71.247140 64.689603
L71.097140 64.429795
" />
<path d="M71.097140 64.429795
L71.093825 64.481196
" />
<path d="M71.093825 64.481196
L71.083368 64.520226
" />
<path d="M71.083368 64.520226
L71.065767 64.546883
" />
</g></g>
<g style="fill:#000000; fill-opacity:0.0; 
stroke:#000000; stroke-width:0.100000; stroke-opacity:1; 
stroke-linecap:round; stroke-linejoin:round;">
<g transform="rotate(-90.000000 78.560000 69.300000)">
<text x="78.560000" y="69.550000"
textLength="1.652380" font-size="0.666666" lengthAdjust="spacingAndGlyphs"
text-anchor="middle" opacity="0">D10</text>
</g>
<g class="stroked-text"><desc>D10</desc>
<path d="M78.786109 69.907142
L78.286109 69.907142
" />
<path d="M78.286109 69.907142
L78.286109 69.788094
" />
<path d="M78.286109 69.788094
L78.309919 69.716666
" />
<path d="M78.309919 69.716666
L78.357538 69.669047
" />
<path d="M78.357538 69.669047
L78.405157 69.645237
" />
<path d="M78.405157 69.645237
L78.500395 69.621428
" />
<path d="M78.500395 69.621428
L78.571823 69.621428
" />
<path d="M78.571823 69.621428
L78.667061 69.645237
" />
<path d="M78.667061 69.645237
L78.714680 69.669047
" />
<path d="M78.714680 69.669047
L78.762300 69.716666
" />
<path d="M78.762300 69.716666
L78.786109 69.788094
" />
<path d="M78.786109 69.788094
L78.786109 69.907142
" />
<path d="M78.786109 69.145237
L78.786109 69.430951
" />
<path d="M78.786109 69.288094
L78.286109 69.288094
" />
<path d="M78.286109 69.288094
L78.357538 69.335713
" />
<path d="M78.357538 69.335713
L78.405157 69.383332
" />
<path d="M78.405157 69.383332
L78.428966 69.430951
" />
<path d="M78.286109 68.835714
L78.286109 68.788095
" />
<path d="M78.286109 68.788095
L78.309919 68.740476
" />
<path d="M78.309919 68.740476
L78.333728 68.716666
" />
<path d="M78.333728 68.716666
L78.381347 68.692857
" />
<path d="M78.381347 68.692857
L78.476585 68.669047
" />
<path d="M78.476585 68.669047
L78.595633 68.669047
" />
<path d="M78.595633 68.669047
L78.690871 68.692857
" />
<path d="M78.690871 68.692857
L78.738490 68.716666
" />
<path d="M78.738490 68.716666
L78.762300 68.740476
" />
<path d="M78.762300 68.740476
L78.786109 68.788095
" />
<path d="M78.786109 68.788095
L78.786109 68.835714
" />
<path d="M78.786109 68.835714
L78.762300 68.883333
" />
<path d="M78.762300 68.883333
L78.738490 68.907142
" />
<path d="M78.738490 68.907142
L78.690871 68.930952
" />
<path d="M78.690871 68.930952
L78.595633 68.954761
" />
<path d="M78.595633 68.954761
L78.476585 68.954761
" />
<path d="M78.476585 68.954761
L78.381347 68.930952
" />
<path d="M78.381347 68.930952
L78.333728 68.907142
" />
<path d="M78.333728 68.907142
L78.309919 68.883333
" />
<path d="M78.309919 68.883333
L78.286109 68.835714
" />
</g></g>
<g style="fill:#000000; fill-opacity:0.0; 
stroke:#000000; stroke-width:0.075000; stroke-opacity:1; 
stroke-linecap:round; stroke-linejoin:round;">
<g transform="rotate(-90.000000 79.550000 69.925000)">
<text x="79.550000" y="70.075000"
textLength="0.450714" font-size="0.400000" lengthAdjust="spacingAndGlyphs"
text-anchor="middle" opacity="0">1</text>
</g>
<g class="stroked-text"><desc>1</desc>
<path d="M79.684885 69.839285
L79.684885 70.010714
" />
<path d="M79.684885 69.924999
L79.384885 69.924999
" />
<path d="M79.384885 69.924999
L79.427742 69.953571
" />
<path d="M79.427742 69.953571
L79.456314 69.982142
" />
<path d="M79.456314 69.982142
L79.470600 70.010714
" />
</g></g>
<g style="fill:#000000; fill-opacity:0.0; 
stroke:#000000; stroke-width:0.100000; stroke-opacity:1; 
stroke-linecap:round; stroke-linejoin:round;">
<text x="71.000000" y="58.850000"
textLength="1.176190" font-size="0.666666" lengthAdjust="spacingAndGlyphs"
text-anchor="middle" opacity="0">D7</text>
<g class="stroked-text"><desc>D7</desc>
<path d="M70.630952 58.826109
L70.630952 58.326109
" />
<path d="M70.630952 58.326109
L70.750000 58.326109
" />
<path d="M70.750000 58.326109
L70.821428 58.349919
" />
<path d="M70.821428 58.349919
L70.869047 58.397538
" />
<path d="M70.869047 58.397538
L70.892857 58.445157
" />
<path d="M70.892857 58.445157
L70.916666 58.540395
" />
<path d="M70.916666 58.540395
L70.916666 58.611823
" />
<path d="M70.916666 58.611823
L70.892857 58.707061
" />
<path d="M70.892857 58.707061
L70.869047 58.754680
" />
<path d="M70.869047 58.754680
L70.821428 58.802300
" />
<path d="M70.821428 58.802300
L70.750000 58.826109
" />
<path d="M70.750000 58.826109
L70.630952 58.826109
" />
<path d="M71.083333 58.326109
L71.416666 58.326109
" />
<path d="M71.416666 58.326109
L71.202381 58.826109
" />
</g></g>
<g style="fill:#000000; fill-opacity:0.0; 
stroke:#000000; stroke-width:0.075000; stroke-opacity:1; 
stroke-linecap:round; stroke-linejoin:round;">
<text x="70.075000" y="59.700000"
textLength="0.450714" font-size="0.400000" lengthAdjust="spacingAndGlyphs"
text-anchor="middle" opacity="0">1</text>
<g class="stroked-text"><desc>1</desc>
<path d="M70.160714 59.684885
L69.989285 59.684885
" />
<path d="M70.075000 59.684885
L70.075000 59.384885
" />
<path d="M70.075000 59.384885
L70.046428 59.427742
" />
<path d="M70.046428 59.427742
L70.017857 59.456314
" />
<path d="M70.017857 59.456314
L69.989285 59.470600
" />
</g></g>
<g style="fill:#000000; fill-opacity:0.0; 
stroke:#000000; stroke-width:0.100000; stroke-opacity:1; 
stroke-linecap:round; stroke-linejoin:round;">
<g transform="rotate(30.000000 72.905771 54.287564)">
<text x="72.905771" y="54.537564"
textLength="1.176190" font-size="0.666666" lengthAdjust="spacingAndGlyphs"
text-anchor="middle" opacity="0">D6</text>
</g>
<g class="stroked-text"><desc>D6</desc>
<path d="M72.473111 54.298856
L72.723111 53.865844
" />
<path d="M72.723111 53.865844
L72.826210 53.925368
" />
<path d="M72.826210 53.925368
L72.876164 53.981701
" />
<path d="M72.876164 53.981701
L72.893594 54.046750
" />
<path d="M72.893594 54.046750
L72.890404 54.099894
" />
<path d="M72.890404 54.099894
L72.863404 54.194278
" />
<path d="M72.863404 54.194278
L72.827690 54.256137
" />
<path d="M72.827690 54.256137
L72.759451 54.326711
" />
<path d="M72.759451 54.326711
L72.715022 54.356045
" />
<path d="M72.715022 54.356045
L72.649973 54.373475
" />
<path d="M72.649973 54.373475
L72.576210 54.358380
" />
<path d="M72.576210 54.358380
L72.473111 54.298856
" />
<path d="M73.341701 54.222987
L73.259222 54.175368
" />
<path d="M73.259222 54.175368
L73.206078 54.172178
" />
<path d="M73.206078 54.172178
L73.173554 54.180893
" />
<path d="M73.173554 54.180893
L73.096600 54.218942
" />
<path d="M73.096600 54.218942
L73.028362 54.289516
" />
<path d="M73.028362 54.289516
L72.933123 54.454473
" />
<path d="M72.933123 54.454473
L72.929934 54.507617
" />
<path d="M72.929934 54.507617
L72.938648 54.540142
" />
<path d="M72.938648 54.540142
L72.967983 54.584571
" />
<path d="M72.967983 54.584571
L73.050462 54.632190
" />
<path d="M73.050462 54.632190
L73.103606 54.635380
" />
<path d="M73.103606 54.635380
L73.136130 54.626665
" />
<path d="M73.136130 54.626665
L73.180559 54.597330
" />
<path d="M73.180559 54.597330
L73.240083 54.494232
" />
<path d="M73.240083 54.494232
L73.243273 54.441088
" />
<path d="M73.243273 54.441088
L73.234558 54.408563
" />
<path d="M73.234558 54.408563
L73.205224 54.364134
" />
<path d="M73.205224 54.364134
L73.122745 54.316515
" />
<path d="M73.122745 54.316515
L73.069601 54.313325
" />
<path d="M73.069601 54.313325
L73.037076 54.322040
" />
<path d="M73.037076 54.322040
L72.992647 54.351375
" />
</g></g>
<g style="fill:#000000; fill-opacity:0.0; 
stroke:#000000; stroke-width:0.075000; stroke-opacity:1; 
stroke-linecap:round; stroke-linejoin:round;">
<g transform="rotate(30.000000 71.629698 54.647789)">
<text x="71.629698" y="54.797789"
textLength="0.450714" font-size="0.400000" lengthAdjust="spacingAndGlyphs"
text-anchor="middle" opacity="0">1</text>
</g>
<g class="stroked-text"><desc>1</desc>
<path d="M71.636486 54.807460
L71.488024 54.721746
" />
<path d="M71.562255 54.764603
L71.712255 54.504795
" />
<path d="M71.712255 54.504795
L71.666083 54.527625
" />
<path d="M71.666083 54.527625
L71.627053 54.538083
" />
<path d="M71.627053 54.538083
L71.595167 54.536169
" />
</g></g>
<g style="fill:#000000; fill-opacity:0.0; 
stroke:#000000; stroke-width:0.100000; stroke-opacity:1; 
stroke-linecap:round; stroke-linejoin:round;">
<text x="78.330000" y="49.250000"
textLength="1.842856" font-size="0.666666" lengthAdjust="spacingAndGlyphs"
text-anchor="middle" opacity="0">FID1</text>
<g class="stroked-text"><desc>FID1</desc>
<path d="M77.794286 48.964204
L77.627619 48.964204
" />
<path d="M77.627619 49.226109
L77.627619 48.726109
" />
<path d="M77.627619 48.726109
L77.865714 48.726109
" />
<path d="M78.056190 49.226109
L78.056190 48.726109
" />
<path d="M78.294285 49.226109
L78.294285 48.726109
" />
<path d="M78.294285 48.726109
L78.413333 48.726109
" />
<path d="M78.413333 48.726109
L78.484761 48.749919
" />
<path d="M78.484761 48.749919
L78.532380 48.797538
" />
<path d="M78.532380 48.797538
L78.556190 48.845157
" />
<path d="M78.556190 48.845157
L78.579999 48.940395
" />
<path d="M78.579999 48.940395
L78.579999 49.011823
" />
<path d="M78.579999 49.011823
L78.556190 49.107061
" />
<path d="M78.556190 49.107061
L78.532380 49.154680
" />
<path d="M78.532380 49.154680
L78.484761 49.202300
" />
<path d="M78.484761 49.202300
L78.413333 49.226109
" />
<path d="M78.413333 49.226109
L78.294285 49.226109
" />
<path d="M79.056190 49.226109
L78.770476 49.226109
" />
<path d="M78.913333 49.226109
L78.913333 48.726109
" />
<path d="M78.913333 48.726109
L78.865714 48.797538
" />
<path d="M78.865714 48.797538
L78.818095 48.845157
" />
<path d="M78.818095 48.845157
L78.770476 48.868966
" />
</g><text x="70.600000" y="62.600000"
textLength="1.176190" font-size="0.666666" lengthAdjust="spacingAndGlyphs"
text-anchor="middle" opacity="0">C7</text>
<g class="stroked-text"><desc>C7</desc>
<path d="M70.516666 62.528490
L70.492857 62.552300
" />
<path d="M70.492857 62.552300
L70.421428 62.576109
" />
<path d="M70.421428 62.576109
L70.373809 62.576109
" />
<path d="M70.373809 62.576109
L70.302381 62.552300
" />
<path d="M70.302381 62.552300
L70.254762 62.504680
" />
<path d="M70.254762 62.504680
L70.230952 62.457061
" />
<path d="M70.230952 62.457061
L70.207143 62.361823
" />
<path d="M70.207143 62.361823
L70.207143 62.290395
" />
<path d="M70.207143 62.290395
L70.230952 62.195157
" />
<path d="M70.230952 62.195157
L70.254762 62.147538
" />
<path d="M70.254762 62.147538
L70.302381 62.099919
" />
<path d="M70.302381 62.099919
L70.373809 62.076109
" />
<path d="M70.373809 62.076109
L70.421428 62.076109
" />
<path d="M70.421428 62.076109
L70.492857 62.099919
" />
<path d="M70.492857 62.099919
L70.516666 62.123728
" />
<path d="M70.683333 62.076109
L71.016666 62.076109
" />
<path d="M71.016666 62.076109
L70.802381 62.576109
" />
</g><g transform="rotate(-90.000000 88.070000 57.250000)">
<text x="88.070000" y="57.500000"
textLength="1.652380" font-size="0.666666" lengthAdjust="spacingAndGlyphs"
text-anchor="middle" opacity="0">D13</text>
</g>
<g class="stroked-text"><desc>D13</desc>
<path d="M88.296109 57.857142
L87.796109 57.857142
" />
<path d="M87.796109 57.857142
L87.796109 57.738094
" />
<path d="M87.796109 57.738094
L87.819919 57.666666
" />
<path d="M87.819919 57.666666
L87.867538 57.619047
" />
<path d="M87.867538 57.619047
L87.915157 57.595237
" />
<path d="M87.915157 57.595237
L88.010395 57.571428
" />
<path d="M88.010395 57.571428
L88.081823 57.571428
" />
<path d="M88.081823 57.571428
L88.177061 57.595237
" />
<path d="M88.177061 57.595237
L88.224680 57.619047
" />
<path d="M88.224680 57.619047
L88.272300 57.666666
" />
<path d="M88.272300 57.666666
L88.296109 57.738094
" />
<path d="M88.296109 57.738094
L88.296109 57.857142
" />
<path d="M88.296109 57.095237
L88.296109 57.380951
" />
<path d="M88.296109 57.238094
L87.796109 57.238094
" />
<path d="M87.796109 57.238094
L87.867538 57.285713
" />
<path d="M87.867538 57.285713
L87.915157 57.333332
" />
<path d="M87.915157 57.333332
L87.938966 57.380951
" />
<path d="M87.796109 56.928571
L87.796109 56.619047
" />
<path d="M87.796109 56.619047
L87.986585 56.785714
" />
<path d="M87.986585 56.785714
L87.986585 56.714285
" />
<path d="M87.986585 56.714285
L88.010395 56.666666
" />
<path d="M88.010395 56.666666
L88.034204 56.642857
" />
<path d="M88.034204 56.642857
L88.081823 56.619047
" />
<path d="M88.081823 56.619047
L88.200871 56.619047
" />
<path d="M88.200871 56.619047
L88.248490 56.642857
" />
<path d="M88.248490 56.642857
L88.272300 56.666666
" />
<path d="M88.272300 56.666666
L88.296109 56.714285
" />
<path d="M88.296109 56.714285
L88.296109 56.857142
" />
<path d="M88.296109 56.857142
L88.272300 56.904761
" />
<path d="M88.272300 56.904761
L88.248490 56.928571
" />
</g><g transform="rotate(-30.000000 72.979999 66.740000)">
<text x="72.979999" y="66.990000"
textLength="1.176190" font-size="0.666666" lengthAdjust="spacingAndGlyphs"
text-anchor="middle" opacity="0">C8</text>
</g>
<g class="stroked-text"><desc>C8</desc>
<path d="M72.997075 66.936243
L72.988360 66.968768
" />
<path d="M72.988360 66.968768
L72.938406 67.025102
" />
<path d="M72.938406 67.025102
L72.897167 67.048911
" />
<path d="M72.897167 67.048911
L72.823403 67.064006
" />
<path d="M72.823403 67.064006
L72.758354 67.046576
" />
<path d="M72.758354 67.046576
L72.713925 67.017242
" />
<path d="M72.713925 67.017242
L72.645686 66.946668
" />
<path d="M72.645686 66.946668
L72.609972 66.884809
" />
<path d="M72.609972 66.884809
L72.582973 66.790425
" />
<path d="M72.582973 66.790425
L72.579783 66.737281
" />
<path d="M72.579783 66.737281
L72.597213 66.672232
" />
<path d="M72.597213 66.672232
L72.647167 66.615899
" />
<path d="M72.647167 66.615899
L72.688406 66.592089
" />
<path d="M72.688406 66.592089
L72.762170 66.576994
" />
<path d="M72.762170 66.576994
L72.794694 66.585709
" />
<path d="M73.125463 66.587190
L73.072319 66.590380
" />
<path d="M73.072319 66.590380
L73.039795 66.581665
" />
<path d="M73.039795 66.581665
L72.995366 66.552330
" />
<path d="M72.995366 66.552330
L72.983461 66.531710
" />
<path d="M72.983461 66.531710
L72.980271 66.478566
" />
<path d="M72.980271 66.478566
L72.988986 66.446042
" />
<path d="M72.988986 66.446042
L73.018321 66.401613
" />
<path d="M73.018321 66.401613
L73.100799 66.353994
" />
<path d="M73.100799 66.353994
L73.153943 66.350804
" />
<path d="M73.153943 66.350804
L73.186468 66.359519
" />
<path d="M73.186468 66.359519
L73.230897 66.388853
" />
<path d="M73.230897 66.388853
L73.242802 66.409473
" />
<path d="M73.242802 66.409473
L73.245991 66.462617
" />
<path d="M73.245991 66.462617
L73.237277 66.495141
" />
<path d="M73.237277 66.495141
L73.207942 66.539571
" />
<path d="M73.207942 66.539571
L73.125463 66.587190
" />
<path d="M73.125463 66.587190
L73.096129 66.631619
" />
<path d="M73.096129 66.631619
L73.087414 66.664143
" />
<path d="M73.087414 66.664143
L73.090604 66.717287
" />
<path d="M73.090604 66.717287
L73.138223 66.799766
" />
<path d="M73.138223 66.799766
L73.182652 66.829100
" />
<path d="M73.182652 66.829100
L73.215176 66.837815
" />
<path d="M73.215176 66.837815
L73.268321 66.834625
" />
<path d="M73.268321 66.834625
L73.350799 66.787006
" />
<path d="M73.350799 66.787006
L73.380134 66.742577
" />
<path d="M73.380134 66.742577
L73.388849 66.710053
" />
<path d="M73.388849 66.710053
L73.385659 66.656909
" />
<path d="M73.385659 66.656909
L73.338040 66.574430
" />
<path d="M73.338040 66.574430
L73.293610 66.545096
" />
<path d="M73.293610 66.545096
L73.261086 66.536381
" />
<path d="M73.261086 66.536381
L73.207942 66.539571
" />
</g><g transform="rotate(-60.000000 77.320000 69.300000)">
<text x="77.320000" y="69.550000"
textLength="1.176190" font-size="0.666666" lengthAdjust="spacingAndGlyphs"
text-anchor="middle" opacity="0">C9</text>
</g>
<g class="stroked-text"><desc>C9</desc>
<path d="M77.432910 69.461413
L77.441625 69.493938
" />
<path d="M77.441625 69.493938
L77.426530 69.567701
" />
<path d="M77.426530 69.567701
L77.402721 69.608941
" />
<path d="M77.402721 69.608941
L77.346387 69.658895
" />
<path d="M77.346387 69.658895
L77.281338 69.676325
" />
<path d="M77.281338 69.676325
L77.228194 69.673135
" />
<path d="M77.228194 69.673135
L77.133811 69.646135
" />
<path d="M77.133811 69.646135
L77.071952 69.610421
" />
<path d="M77.071952 69.610421
L77.001378 69.542182
" />
<path d="M77.001378 69.542182
L76.972043 69.497753
" />
<path d="M76.972043 69.497753
L76.954614 69.432704
" />
<path d="M76.954614 69.432704
L76.969708 69.358941
" />
<path d="M76.969708 69.358941
L76.993518 69.317701
" />
<path d="M76.993518 69.317701
L77.049852 69.267747
" />
<path d="M77.049852 69.267747
L77.082376 69.259032
" />
<path d="M77.593197 69.279026
L77.640816 69.196548
" />
<path d="M77.640816 69.196548
L77.644006 69.143404
" />
<path d="M77.644006 69.143404
L77.635291 69.110879
" />
<path d="M77.635291 69.110879
L77.597242 69.033926
" />
<path d="M77.597242 69.033926
L77.526668 68.965687
" />
<path d="M77.526668 68.965687
L77.361711 68.870449
" />
<path d="M77.361711 68.870449
L77.308567 68.867259
" />
<path d="M77.308567 68.867259
L77.276042 68.875974
" />
<path d="M77.276042 68.875974
L77.231613 68.905308
" />
<path d="M77.231613 68.905308
L77.183994 68.987787
" />
<path d="M77.183994 68.987787
L77.180804 69.040931
" />
<path d="M77.180804 69.040931
L77.189519 69.073455
" />
<path d="M77.189519 69.073455
L77.218854 69.117885
" />
<path d="M77.218854 69.117885
L77.321952 69.177408
" />
<path d="M77.321952 69.177408
L77.375096 69.180598
" />
<path d="M77.375096 69.180598
L77.407620 69.171883
" />
<path d="M77.407620 69.171883
L77.452049 69.142549
" />
<path d="M77.452049 69.142549
L77.499669 69.060070
" />
<path d="M77.499669 69.060070
L77.502858 69.006926
" />
<path d="M77.502858 69.006926
L77.494143 68.974402
" />
<path d="M77.494143 68.974402
L77.464809 68.929973
" />
</g><g transform="rotate(60.000000 86.600000 66.910000)">
<text x="86.600000" y="67.160000"
textLength="1.652380" font-size="0.666666" lengthAdjust="spacingAndGlyphs"
text-anchor="middle" opacity="0">C11</text>
</g>
<g class="stroked-text"><desc>C11</desc>
<path d="M86.284708 66.720880
L86.252184 66.712165
" />
<path d="M86.252184 66.712165
L86.195850 66.662211
" />
<path d="M86.195850 66.662211
L86.172040 66.620971
" />
<path d="M86.172040 66.620971
L86.156946 66.547208
" />
<path d="M86.156946 66.547208
L86.174375 66.482159
" />
<path d="M86.174375 66.482159
L86.203710 66.437730
" />
<path d="M86.203710 66.437730
L86.274284 66.369491
" />
<path d="M86.274284 66.369491
L86.336143 66.333777
" />
<path d="M86.336143 66.333777
L86.430526 66.306777
" />
<path d="M86.430526 66.306777
L86.483670 66.303587
" />
<path d="M86.483670 66.303587
L86.548719 66.321017
" />
<path d="M86.548719 66.321017
L86.605053 66.370971
" />
<path d="M86.605053 66.370971
L86.628863 66.412211
" />
<path d="M86.628863 66.412211
L86.643957 66.485974
" />
<path d="M86.643957 66.485974
L86.635242 66.518499
" />
<path d="M86.481564 67.157082
L86.338707 66.909647
" />
<path d="M86.410136 67.033365
L86.843148 66.783365
" />
<path d="M86.843148 66.783365
L86.757480 66.777839
" />
<path d="M86.757480 66.777839
L86.692431 66.760410
" />
<path d="M86.692431 66.760410
L86.648002 66.731075
" />
<path d="M86.719659 67.569475
L86.576802 67.322039
" />
<path d="M86.648231 67.445757
L87.081243 67.195757
" />
<path d="M87.081243 67.195757
L86.995575 67.190232
" />
<path d="M86.995575 67.190232
L86.930526 67.172802
" />
<path d="M86.930526 67.172802
L86.886097 67.143468
" />
</g><g transform="rotate(30.000000 70.640000 57.320000)">
<text x="70.640000" y="57.570000"
textLength="1.176190" font-size="0.666666" lengthAdjust="spacingAndGlyphs"
text-anchor="middle" opacity="0">C6</text>
</g>
<g class="stroked-text"><desc>C6</desc>
<path d="M70.478586 57.432910
L70.446061 57.441625
" />
<path d="M70.446061 57.441625
L70.372298 57.426530
" />
<path d="M70.372298 57.426530
L70.331058 57.402721
" />
<path d="M70.331058 57.402721
L70.281104 57.346387
" />
<path d="M70.281104 57.346387
L70.263674 57.281338
" />
<path d="M70.263674 57.281338
L70.266864 57.228194
" />
<path d="M70.266864 57.228194
L70.293864 57.133811
" />
<path d="M70.293864 57.133811
L70.329578 57.071952
" />
<path d="M70.329578 57.071952
L70.397817 57.001378
" />
<path d="M70.397817 57.001378
L70.442246 56.972043
" />
<path d="M70.442246 56.972043
L70.507295 56.954614
" />
<path d="M70.507295 56.954614
L70.581058 56.969708
" />
<path d="M70.581058 56.969708
L70.622298 56.993518
" />
<path d="M70.622298 56.993518
L70.672252 57.049852
" />
<path d="M70.672252 57.049852
L70.680967 57.082376
" />
<path d="M71.075930 57.255423
L70.993451 57.207804
" />
<path d="M70.993451 57.207804
L70.940307 57.204614
" />
<path d="M70.940307 57.204614
L70.907783 57.213329
" />
<path d="M70.907783 57.213329
L70.830829 57.251378
" />
<path d="M70.830829 57.251378
L70.762591 57.321952
" />
<path d="M70.762591 57.321952
L70.667352 57.486909
" />
<path d="M70.667352 57.486909
L70.664163 57.540053
" />
<path d="M70.664163 57.540053
L70.672877 57.572578
" />
<path d="M70.672877 57.572578
L70.702212 57.617007
" />
<path d="M70.702212 57.617007
L70.784691 57.664626
" />
<path d="M70.784691 57.664626
L70.837835 57.667816
" />
<path d="M70.837835 57.667816
L70.870359 57.659101
" />
<path d="M70.870359 57.659101
L70.914788 57.629766
" />
<path d="M70.914788 57.629766
L70.974312 57.526668
" />
<path d="M70.974312 57.526668
L70.977502 57.473524
" />
<path d="M70.977502 57.473524
L70.968787 57.440999
" />
<path d="M70.968787 57.440999
L70.939453 57.396570
" />
<path d="M70.939453 57.396570
L70.856974 57.348951
" />
<path d="M70.856974 57.348951
L70.803830 57.345761
" />
<path d="M70.803830 57.345761
L70.771305 57.354476
" />
<path d="M70.771305 57.354476
L70.726876 57.383811
" />
</g><g transform="rotate(-90.000000 82.340000 69.330000)">
<text x="82.340000" y="69.580000"
textLength="1.652380" font-size="0.666666" lengthAdjust="spacingAndGlyphs"
text-anchor="middle" opacity="0">C10</text>
</g>
<g class="stroked-text"><desc>C10</desc>
<path d="M82.518490 69.651428
L82.542300 69.675237
" />
<path d="M82.542300 69.675237
L82.566109 69.746666
" />
<path d="M82.566109 69.746666
L82.566109 69.794285
" />
<path d="M82.566109 69.794285
L82.542300 69.865713
" />
<path d="M82.542300 69.865713
L82.494680 69.913332
" />
<path d="M82.494680 69.913332
L82.447061 69.937142
" />
<path d="M82.447061 69.937142
L82.351823 69.960951
" />
<path d="M82.351823 69.960951
L82.280395 69.960951
" />
<path d="M82.280395 69.960951
L82.185157 69.937142
" />
<path d="M82.185157 69.937142
L82.137538 69.913332
" />
<path d="M82.137538 69.913332
L82.089919 69.865713
" />
<path d="M82.089919 69.865713
L82.066109 69.794285
" />
<path d="M82.066109 69.794285
L82.066109 69.746666
" />
<path d="M82.066109 69.746666
L82.089919 69.675237
" />
<path d="M82.089919 69.675237
L82.113728 69.651428
" />
<path d="M82.566109 69.175237
L82.566109 69.460951
" />
<path d="M82.566109 69.318094
L82.066109 69.318094
" />
<path d="M82.066109 69.318094
L82.137538 69.365713
" />
<path d="M82.137538 69.365713
L82.185157 69.413332
" />
<path d="M82.185157 69.413332
L82.208966 69.460951
" />
<path d="M82.066109 68.865714
L82.066109 68.818095
" />
<path d="M82.066109 68.818095
L82.089919 68.770476
" />
<path d="M82.089919 68.770476
L82.113728 68.746666
" />
<path d="M82.113728 68.746666
L82.161347 68.722857
" />
<path d="M82.161347 68.722857
L82.256585 68.699047
" />
<path d="M82.256585 68.699047
L82.375633 68.699047
" />
<path d="M82.375633 68.699047
L82.470871 68.722857
" />
<path d="M82.470871 68.722857
L82.518490 68.746666
" />
<path d="M82.518490 68.746666
L82.542300 68.770476
" />
<path d="M82.542300 68.770476
L82.566109 68.818095
" />
<path d="M82.566109 68.818095
L82.566109 68.865714
" />
<path d="M82.566109 68.865714
L82.542300 68.913333
" />
<path d="M82.542300 68.913333
L82.518490 68.937142
" />
<path d="M82.518490 68.937142
L82.470871 68.960952
" />
<path d="M82.470871 68.960952
L82.375633 68.984761
" />
<path d="M82.375633 68.984761
L82.256585 68.984761
" />
<path d="M82.256585 68.984761
L82.161347 68.960952
" />
<path d="M82.161347 68.960952
L82.113728 68.937142
" />
<path d="M82.113728 68.937142
L82.089919 68.913333
" />
<path d="M82.089919 68.913333
L82.066109 68.865714
" />
</g><g transform="rotate(-30.000000 89.300000 55.150000)">
<text x="89.300000" y="55.400000"
textLength="1.176190" font-size="0.666666" lengthAdjust="spacingAndGlyphs"
text-anchor="middle" opacity="0">D2</text>
</g>
<g class="stroked-text"><desc>D2</desc>
<path d="M89.093450 55.530340
L88.843450 55.097327
" />
<path d="M88.843450 55.097327
L88.946548 55.037803
" />
<path d="M88.946548 55.037803
L89.020312 55.022709
" />
<path d="M89.020312 55.022709
L89.085361 55.040138
" />
<path d="M89.085361 55.040138
L89.129790 55.069473
" />
<path d="M89.129790 55.069473
L89.198029 55.140047
" />
<path d="M89.198029 55.140047
L89.233743 55.201906
" />
<path d="M89.233743 55.201906
L89.260742 55.296289
" />
<path d="M89.260742 55.296289
L89.263932 55.349433
" />
<path d="M89.263932 55.349433
L89.246502 55.414482
" />
<path d="M89.246502 55.414482
L89.196548 55.470816
" />
<path d="M89.196548 55.470816
L89.093450 55.530340
" />
<path d="M89.279652 54.900471
L89.288367 54.867947
" />
<path d="M89.288367 54.867947
L89.317702 54.823518
" />
<path d="M89.317702 54.823518
L89.420800 54.763994
" />
<path d="M89.420800 54.763994
L89.473944 54.760804
" />
<path d="M89.473944 54.760804
L89.506469 54.769519
" />
<path d="M89.506469 54.769519
L89.550898 54.798853
" />
<path d="M89.550898 54.798853
L89.574707 54.840093
" />
<path d="M89.574707 54.840093
L89.589802 54.913856
" />
<path d="M89.589802 54.913856
L89.485223 55.304149
" />
<path d="M89.485223 55.304149
L89.753279 55.149387
" />
</g></g>
<g style="fill:#000000; fill-opacity:0.0; 
stroke:#000000; stroke-width:0.075000; stroke-opacity:1; 
stroke-linecap:round; stroke-linejoin:round;">
<g transform="rotate(-30.000000 88.820302 55.427211)">
<text x="88.820302" y="55.577211"
textLength="0.450714" font-size="0.400000" lengthAdjust="spacingAndGlyphs"
text-anchor="middle" opacity="0">1</text>
</g>
<g class="stroked-text"><desc>1</desc>
<path d="M88.961975 55.501168
L88.813514 55.586882
" />
<path d="M88.887744 55.544025
L88.737744 55.284217
" />
<path d="M88.737744 55.284217
L88.734429 55.335618
" />
<path d="M88.734429 55.335618
L88.723972 55.374648
" />
<path d="M88.723972 55.374648
L88.706371 55.401305
" />
</g></g>
<g style="fill:#000000; fill-opacity:0.0; 
stroke:#000000; stroke-width:0.100000; stroke-opacity:1; 
stroke-linecap:round; stroke-linejoin:round;">
<text x="90.030000" y="57.960000"
textLength="1.176190" font-size="0.666666" lengthAdjust="spacingAndGlyphs"
text-anchor="middle" opacity="0">C1</text>
<g class="stroked-text"><desc>C1</desc>
<path d="M89.946666 57.888490
L89.922857 57.912300
" />
<path d="M89.922857 57.912300
L89.851428 57.936109
" />
<path d="M89.851428 57.936109
L89.803809 57.936109
" />
<path d="M89.803809 57.936109
L89.732381 57.912300
" />
<path d="M89.732381 57.912300
L89.684762 57.864680
" />
<path d="M89.684762 57.864680
L89.660952 57.817061
" />
<path d="M89.660952 57.817061
L89.637143 57.721823
" />
<path d="M89.637143 57.721823
L89.637143 57.650395
" />
<path d="M89.637143 57.650395
L89.660952 57.555157
" />
<path d="M89.660952 57.555157
L89.684762 57.507538
" />
<path d="M89.684762 57.507538
L89.732381 57.459919
" />
<path d="M89.732381 57.459919
L89.803809 57.436109
" />
<path d="M89.803809 57.436109
L89.851428 57.436109
" />
<path d="M89.851428 57.436109
L89.922857 57.459919
" />
<path d="M89.922857 57.459919
L89.946666 57.483728
" />
<path d="M90.422857 57.936109
L90.137143 57.936109
" />
<path d="M90.280000 57.936109
L90.280000 57.436109
" />
<path d="M90.280000 57.436109
L90.232381 57.507538
" />
<path d="M90.232381 57.507538
L90.184762 57.555157
" />
<path d="M90.184762 57.555157
L90.137143 57.578966
" />
</g><g transform="rotate(-30.000000 86.970000 53.350000)">
<text x="86.970000" y="53.600000"
textLength="1.176190" font-size="0.666666" lengthAdjust="spacingAndGlyphs"
text-anchor="middle" opacity="0">C2</text>
</g>
<g class="stroked-text"><desc>C2</desc>
<path d="M86.987076 53.546243
L86.978361 53.578768
" />
<path d="M86.978361 53.578768
L86.928407 53.635102
" />
<path d="M86.928407 53.635102
L86.887168 53.658911
" />
<path d="M86.887168 53.658911
L86.813404 53.674006
" />
<path d="M86.813404 53.674006
L86.748355 53.656576
" />
<path d="M86.748355 53.656576
L86.703926 53.627242
" />
<path d="M86.703926 53.627242
L86.635687 53.556668
" />
<path d="M86.635687 53.556668
L86.599973 53.494809
" />
<path d="M86.599973 53.494809
L86.572974 53.400425
" />
<path d="M86.572974 53.400425
L86.569784 53.347281
" />
<path d="M86.569784 53.347281
L86.587214 53.282232
" />
<path d="M86.587214 53.282232
L86.637168 53.225899
" />
<path d="M86.637168 53.225899
L86.678407 53.202089
" />
<path d="M86.678407 53.202089
L86.752171 53.186994
" />
<path d="M86.752171 53.186994
L86.784695 53.195709
" />
<path d="M86.949652 53.100471
L86.958367 53.067947
" />
<path d="M86.958367 53.067947
L86.987702 53.023518
" />
<path d="M86.987702 53.023518
L87.090800 52.963994
" />
<path d="M87.090800 52.963994
L87.143944 52.960804
" />
<path d="M87.143944 52.960804
L87.176469 52.969519
" />
<path d="M87.176469 52.969519
L87.220898 52.998853
" />
<path d="M87.220898 52.998853
L87.244707 53.040093
" />
<path d="M87.244707 53.040093
L87.259802 53.113856
" />
<path d="M87.259802 53.113856
L87.155223 53.504149
" />
<path d="M87.155223 53.504149
L87.423279 53.349387
" />
</g><g transform="rotate(60.000000 76.712436 51.505771)">
<text x="76.712436" y="51.755771"
textLength="1.176190" font-size="0.666666" lengthAdjust="spacingAndGlyphs"
text-anchor="middle" opacity="0">D5</text>
</g>
<g class="stroked-text"><desc>D5</desc>
<path d="M76.332095 51.299221
L76.765108 51.049221
" />
<path d="M76.765108 51.049221
L76.824632 51.152319
" />
<path d="M76.824632 51.152319
L76.839726 51.226083
" />
<path d="M76.839726 51.226083
L76.822297 51.291132
" />
<path d="M76.822297 51.291132
L76.792962 51.335561
" />
<path d="M76.792962 51.335561
L76.722388 51.403800
" />
<path d="M76.722388 51.403800
L76.660529 51.439514
" />
<path d="M76.660529 51.439514
L76.566146 51.466513
" />
<path d="M76.566146 51.466513
L76.513002 51.469703
" />
<path d="M76.513002 51.469703
L76.447953 51.452273
" />
<path d="M76.447953 51.452273
L76.391619 51.402319
" />
<path d="M76.391619 51.402319
L76.332095 51.299221
" />
<path d="M77.134156 51.688430
L77.015108 51.482234
" />
<path d="M77.015108 51.482234
L76.797007 51.580662
" />
<path d="M76.797007 51.580662
L76.829531 51.589376
" />
<path d="M76.829531 51.589376
L76.873960 51.618711
" />
<path d="M76.873960 51.618711
L76.933484 51.721809
" />
<path d="M76.933484 51.721809
L76.936674 51.774953
" />
<path d="M76.936674 51.774953
L76.927959 51.807478
" />
<path d="M76.927959 51.807478
L76.898624 51.851907
" />
<path d="M76.898624 51.851907
L76.795526 51.911431
" />
<path d="M76.795526 51.911431
L76.742382 51.914621
" />
<path d="M76.742382 51.914621
L76.709858 51.905906
" />
<path d="M76.709858 51.905906
L76.665429 51.876571
" />
<path d="M76.665429 51.876571
L76.605905 51.773473
" />
<path d="M76.605905 51.773473
L76.602715 51.720329
" />
<path d="M76.602715 51.720329
L76.611430 51.687804
" />
</g></g>
<g style="fill:#000000; fill-opacity:0.0; 
stroke:#000000; stroke-width:0.075000; stroke-opacity:1; 
stroke-linecap:round; stroke-linejoin:round;">
<g transform="rotate(60.000000 75.427211 51.179698)">
<text x="75.427211" y="51.329698"
textLength="0.450714" font-size="0.400000" lengthAdjust="spacingAndGlyphs"
text-anchor="middle" opacity="0">1</text>
</g>
<g class="stroked-text"><desc>1</desc>
<path d="M75.353253 51.321371
L75.267539 51.172910
" />
<path d="M75.310396 51.247140
L75.570204 51.097140
" />
<path d="M75.570204 51.097140
L75.518803 51.093825
" />
<path d="M75.518803 51.093825
L75.479773 51.083368
" />
<path d="M75.479773 51.083368
L75.453116 51.065767
" />
</g></g>
<g style="fill:#000000; fill-opacity:0.0; 
stroke:#000000; stroke-width:0.100000; stroke-opacity:1; 
stroke-linecap:round; stroke-linejoin:round;">
<g transform="rotate(30.000000 89.300000 62.740000)">
<text x="89.300000" y="62.990000"
textLength="1.652380" font-size="0.666666" lengthAdjust="spacingAndGlyphs"
text-anchor="middle" opacity="0">C12</text>
</g>
<g class="stroked-text"><desc>C12</desc>
<path d="M88.932389 62.733863
L88.899865 62.742578
" />
<path d="M88.899865 62.742578
L88.826101 62.727483
" />
<path d="M88.826101 62.727483
L88.784862 62.703673
" />
<path d="M88.784862 62.703673
L88.734908 62.647340
" />
<path d="M88.734908 62.647340
L88.717478 62.582291
" />
<path d="M88.717478 62.582291
L88.720668 62.529147
" />
<path d="M88.720668 62.529147
L88.747667 62.434763
" />
<path d="M88.747667 62.434763
L88.783382 62.372904
" />
<path d="M88.783382 62.372904
L88.851620 62.302330
" />
<path d="M88.851620 62.302330
L88.896049 62.272996
" />
<path d="M88.896049 62.272996
L88.961098 62.255566
" />
<path d="M88.961098 62.255566
L89.034862 62.270661
" />
<path d="M89.034862 62.270661
L89.076101 62.294470
" />
<path d="M89.076101 62.294470
L89.126055 62.350804
" />
<path d="M89.126055 62.350804
L89.134770 62.383329
" />
<path d="M89.320973 63.013197
L89.073537 62.870340
" />
<path d="M89.197255 62.941769
L89.447255 62.508756
" />
<path d="M89.447255 62.508756
L89.370301 62.546805
" />
<path d="M89.370301 62.546805
L89.305253 62.564235
" />
<path d="M89.305253 62.564235
L89.252108 62.561045
" />
<path d="M89.712120 62.716662
L89.744645 62.707947
" />
<path d="M89.744645 62.707947
L89.797789 62.711137
" />
<path d="M89.797789 62.711137
L89.900887 62.770661
" />
<path d="M89.900887 62.770661
L89.930221 62.815090
" />
<path d="M89.930221 62.815090
L89.938936 62.847614
" />
<path d="M89.938936 62.847614
L89.935746 62.900758
" />
<path d="M89.935746 62.900758
L89.911937 62.941997
" />
<path d="M89.911937 62.941997
L89.855603 62.991952
" />
<path d="M89.855603 62.991952
L89.465310 63.096530
" />
<path d="M89.465310 63.096530
L89.733366 63.251292
" />
</g><g transform="rotate(-60.000000 74.287564 67.140000)">
<text x="74.287564" y="67.390000"
textLength="1.176190" font-size="0.666666" lengthAdjust="spacingAndGlyphs"
text-anchor="middle" opacity="0">D9</text>
</g>
<g class="stroked-text"><desc>D9</desc>
<path d="M74.298856 67.572659
L73.865844 67.322659
" />
<path d="M73.865844 67.322659
L73.925368 67.219560
" />
<path d="M73.925368 67.219560
L73.981701 67.169606
" />
<path d="M73.981701 67.169606
L74.046750 67.152176
" />
<path d="M74.046750 67.152176
L74.099894 67.155366
" />
<path d="M74.099894 67.155366
L74.194278 67.182366
" />
<path d="M74.194278 67.182366
L74.256137 67.218080
" />
<path d="M74.256137 67.218080
L74.326711 67.286319
" />
<path d="M74.326711 67.286319
L74.356045 67.330748
" />
<path d="M74.356045 67.330748
L74.373475 67.395797
" />
<path d="M74.373475 67.395797
L74.358380 67.469560
" />
<path d="M74.358380 67.469560
L74.298856 67.572659
" />
<path d="M74.560761 67.119026
L74.608380 67.036548
" />
<path d="M74.608380 67.036548
L74.611570 66.983404
" />
<path d="M74.611570 66.983404
L74.602855 66.950879
" />
<path d="M74.602855 66.950879
L74.564806 66.873926
" />
<path d="M74.564806 66.873926
L74.494232 66.805687
" />
<path d="M74.494232 66.805687
L74.329275 66.710449
" />
<path d="M74.329275 66.710449
L74.276131 66.707259
" />
<path d="M74.276131 66.707259
L74.243606 66.715974
" />
<path d="M74.243606 66.715974
L74.199177 66.745308
" />
<path d="M74.199177 66.745308
L74.151558 66.827787
" />
<path d="M74.151558 66.827787
L74.148368 66.880931
" />
<path d="M74.148368 66.880931
L74.157083 66.913455
" />
<path d="M74.157083 66.913455
L74.186418 66.957885
" />
<path d="M74.186418 66.957885
L74.289516 67.017408
" />
<path d="M74.289516 67.017408
L74.342660 67.020598
" />
<path d="M74.342660 67.020598
L74.375184 67.011883
" />
<path d="M74.375184 67.011883
L74.419613 66.982549
" />
<path d="M74.419613 66.982549
L74.467233 66.900070
" />
<path d="M74.467233 66.900070
L74.470422 66.846926
" />
<path d="M74.470422 66.846926
L74.461707 66.814402
" />
<path d="M74.461707 66.814402
L74.432373 66.769973
" />
</g></g>
<g style="fill:#000000; fill-opacity:0.0; 
stroke:#000000; stroke-width:0.075000; stroke-opacity:1; 
stroke-linecap:round; stroke-linejoin:round;">
<g transform="rotate(-60.000000 74.647789 68.370302)">
<text x="74.647789" y="68.520302"
textLength="0.450714" font-size="0.400000" lengthAdjust="spacingAndGlyphs"
text-anchor="middle" opacity="0">1</text>
</g>
<g class="stroked-text"><desc>1</desc>
<path d="M74.807460 68.363513
L74.721746 68.511975
" />
<path d="M74.764603 68.437744
L74.504795 68.287744
" />
<path d="M74.504795 68.287744
L74.527625 68.333916
" />
<path d="M74.527625 68.333916
L74.538083 68.372946
" />
<path d="M74.538083 68.372946
L74.536169 68.404832
" />
</g></g>
<g style="fill:#000000; fill-opacity:0.0; 
stroke:#000000; stroke-width:0.100000; stroke-opacity:1; 
stroke-linecap:round; stroke-linejoin:round;">
<g transform="rotate(-60.000000 85.712436 52.905771)">
<text x="85.712436" y="53.155771"
textLength="1.176190" font-size="0.666666" lengthAdjust="spacingAndGlyphs"
text-anchor="middle" opacity="0">D3</text>
</g>
<g class="stroked-text"><desc>D3</desc>
<path d="M85.723728 53.338430
L85.290716 53.088430
" />
<path d="M85.290716 53.088430
L85.350240 52.985331
" />
<path d="M85.350240 52.985331
L85.406573 52.935377
" />
<path d="M85.406573 52.935377
L85.471622 52.917947
" />
<path d="M85.471622 52.917947
L85.524766 52.921137
" />
<path d="M85.524766 52.921137
L85.619150 52.948137
" />
<path d="M85.619150 52.948137
L85.681009 52.983851
" />
<path d="M85.681009 52.983851
L85.751583 53.052090
" />
<path d="M85.751583 53.052090
L85.780917 53.096519
" />
<path d="M85.780917 53.096519
L85.798347 53.161568
" />
<path d="M85.798347 53.161568
L85.783252 53.235331
" />
<path d="M85.783252 53.235331
L85.723728 53.338430
" />
<path d="M85.516906 52.696656
L85.671668 52.428601
" />
<path d="M85.671668 52.428601
L85.753292 52.668176
" />
<path d="M85.753292 52.668176
L85.789006 52.606317
" />
<path d="M85.789006 52.606317
L85.833435 52.576983
" />
<path d="M85.833435 52.576983
L85.865960 52.568268
" />
<path d="M85.865960 52.568268
L85.919104 52.571458
" />
<path d="M85.919104 52.571458
L86.022202 52.630982
" />
<path d="M86.022202 52.630982
L86.051537 52.675411
" />
<path d="M86.051537 52.675411
L86.060252 52.707935
" />
<path d="M86.060252 52.707935
L86.057062 52.761079
" />
<path d="M86.057062 52.761079
L85.985633 52.884797
" />
<path d="M85.985633 52.884797
L85.941204 52.914132
" />
<path d="M85.941204 52.914132
L85.908680 52.922847
" />
</g></g>
<g style="fill:#000000; fill-opacity:0.0; 
stroke:#000000; stroke-width:0.075000; stroke-opacity:1; 
stroke-linecap:round; stroke-linejoin:round;">
<g transform="rotate(-60.000000 85.352211 51.629698)">
<text x="85.352211" y="51.779698"
textLength="0.450714" font-size="0.400000" lengthAdjust="spacingAndGlyphs"
text-anchor="middle" opacity="0">1</text>
</g>
<g class="stroked-text"><desc>1</desc>
<path d="M85.511882 51.622909
L85.426168 51.771371
" />
<path d="M85.469025 51.697140
L85.209217 51.547140
" />
<path d="M85.209217 51.547140
L85.232047 51.593312
" />
<path d="M85.232047 51.593312
L85.242505 51.632342
" />
<path d="M85.242505 51.632342
L85.240591 51.664228
" />
</g></g>
<g style="fill:#000000; fill-opacity:0.0; 
stroke:#000000; stroke-width:0.100000; stroke-opacity:1; 
stroke-linecap:round; stroke-linejoin:round;">
<text x="90.320000" y="62.430000"
textLength="1.176190" font-size="0.666666" lengthAdjust="spacingAndGlyphs"
text-anchor="middle" opacity="0">R1</text>
<g class="stroked-text"><desc>R1</desc>
<path d="M90.236666 62.406109
L90.070000 62.168014
" />
<path d="M89.950952 62.406109
L89.950952 61.906109
" />
<path d="M89.950952 61.906109
L90.141428 61.906109
" />
<path d="M90.141428 61.906109
L90.189047 61.929919
" />
<path d="M90.189047 61.929919
L90.212857 61.953728
" />
<path d="M90.212857 61.953728
L90.236666 62.001347
" />
<path d="M90.236666 62.001347
L90.236666 62.072776
" />
<path d="M90.236666 62.072776
L90.212857 62.120395
" />
<path d="M90.212857 62.120395
L90.189047 62.144204
" />
<path d="M90.189047 62.144204
L90.141428 62.168014
" />
<path d="M90.141428 62.168014
L89.950952 62.168014
" />
<path d="M90.712857 62.406109
L90.427143 62.406109
" />
<path d="M90.570000 62.406109
L90.570000 61.906109
" />
<path d="M90.570000 61.906109
L90.522381 61.977538
" />
<path d="M90.522381 61.977538
L90.474762 62.025157
" />
<path d="M90.474762 62.025157
L90.427143 62.048966
" />
</g><g transform="rotate(-60.000000 82.740000 50.689999)">
<text x="82.740000" y="50.939999"
textLength="1.176190" font-size="0.666666" lengthAdjust="spacingAndGlyphs"
text-anchor="middle" opacity="0">C3</text>
</g>
<g class="stroked-text"><desc>C3</desc>
<path d="M82.852910 50.851412
L82.861625 50.883937
" />
<path d="M82.861625 50.883937
L82.846530 50.957700
" />
<path d="M82.846530 50.957700
L82.822721 50.998940
" />
<path d="M82.822721 50.998940
L82.766387 51.048894
" />
<path d="M82.766387 51.048894
L82.701338 51.066324
" />
<path d="M82.701338 51.066324
L82.648194 51.063134
" />
<path d="M82.648194 51.063134
L82.553811 51.036134
" />
<path d="M82.553811 51.036134
L82.491952 51.000420
" />
<path d="M82.491952 51.000420
L82.421378 50.932181
" />
<path d="M82.421378 50.932181
L82.392043 50.887752
" />
<path d="M82.392043 50.887752
L82.374614 50.822703
" />
<path d="M82.374614 50.822703
L82.389708 50.748940
" />
<path d="M82.389708 50.748940
L82.413518 50.707700
" />
<path d="M82.413518 50.707700
L82.469852 50.657746
" />
<path d="M82.469852 50.657746
L82.502376 50.649031
" />
<path d="M82.544470 50.480884
L82.699232 50.212829
" />
<path d="M82.699232 50.212829
L82.780856 50.452404
" />
<path d="M82.780856 50.452404
L82.816570 50.390545
" />
<path d="M82.816570 50.390545
L82.860999 50.361211
" />
<path d="M82.860999 50.361211
L82.893524 50.352496
" />
<path d="M82.893524 50.352496
L82.946668 50.355686
" />
<path d="M82.946668 50.355686
L83.049766 50.415210
" />
<path d="M83.049766 50.415210
L83.079101 50.459639
" />
<path d="M83.079101 50.459639
L83.087816 50.492163
" />
<path d="M83.087816 50.492163
L83.084626 50.545307
" />
<path d="M83.084626 50.545307
L83.013197 50.669025
" />
<path d="M83.013197 50.669025
L82.968768 50.698360
" />
<path d="M82.968768 50.698360
L82.936244 50.707075
" />
</g><text x="69.000000" y="58.750000"
textLength="1.842856" font-size="0.666666" lengthAdjust="spacingAndGlyphs"
text-anchor="middle" opacity="0">FID3</text>
<g class="stroked-text"><desc>FID3</desc>
<path d="M68.464286 58.464204
L68.297619 58.464204
" />
<path d="M68.297619 58.726109
L68.297619 58.226109
" />
<path d="M68.297619 58.226109
L68.535714 58.226109
" />
<path d="M68.726190 58.726109
L68.726190 58.226109
" />
<path d="M68.964285 58.726109
L68.964285 58.226109
" />
<path d="M68.964285 58.226109
L69.083333 58.226109
" />
<path d="M69.083333 58.226109
L69.154761 58.249919
" />
<path d="M69.154761 58.249919
L69.202380 58.297538
" />
<path d="M69.202380 58.297538
L69.226190 58.345157
" />
<path d="M69.226190 58.345157
L69.249999 58.440395
" />
<path d="M69.249999 58.440395
L69.249999 58.511823
" />
<path d="M69.249999 58.511823
L69.226190 58.607061
" />
<path d="M69.226190 58.607061
L69.202380 58.654680
" />
<path d="M69.202380 58.654680
L69.154761 58.702300
" />
<path d="M69.154761 58.702300
L69.083333 58.726109
" />
<path d="M69.083333 58.726109
L68.964285 58.726109
" />
<path d="M69.416666 58.226109
L69.726190 58.226109
" />
<path d="M69.726190 58.226109
L69.559523 58.416585
" />
<path d="M69.559523 58.416585
L69.630952 58.416585
" />
<path d="M69.630952 58.416585
L69.678571 58.440395
" />
<path d="M69.678571 58.440395
L69.702380 58.464204
" />
<path d="M69.702380 58.464204
L69.726190 58.511823
" />
<path d="M69.726190 58.511823
L69.726190 58.630871
" />
<path d="M69.726190 58.630871
L69.702380 58.678490
" />
<path d="M69.702380 58.678490
L69.678571 58.702300
" />
<path d="M69.678571 58.702300
L69.630952 58.726109
" />
<path d="M69.630952 58.726109
L69.488095 58.726109
" />
<path d="M69.488095 58.726109
L69.440476 58.702300
" />
<path d="M69.440476 58.702300
L69.416666 58.678490
" />
</g><path d="M83.338878 67.483107
L83.663878 68.046024
" />
<path d="M83.901795 67.158107
L83.338878 67.483107
" />
</g>
<g style="fill:#000000; fill-opacity:0.0; 
stroke:#000000; stroke-width:0.120000; stroke-opacity:1; 
stroke-linecap:round; stroke-linejoin:round;">
<path d="M78.860000 50.952164
L78.860000 51.167836
" />
<path d="M78.140000 50.952164
L78.140000 51.167836
" />
<path d="M74.447851 52.659344
L74.555687 52.846122
" />
<path d="M73.824313 53.019344
L73.932149 53.206122
" />
</g>
<g style="fill:#000000; fill-opacity:0.0; 
stroke:#000000; stroke-width:0.100000; stroke-opacity:1; 
stroke-linecap:round; stroke-linejoin:round;">
<path d="M88.150000 60.850000
L88.800000 60.850000
" />
<path d="M88.150000 60.200000
L88.150000 60.850000
" />
<path d="M80.850000 51.850000
L80.850000 51.200000
" />
<path d="M80.200000 51.850000
L80.850000 51.850000
" />
<path d="M86.633107 64.811122
L87.196024 65.136122
" />
<path d="M86.958107 64.248205
L86.633107 64.811122
" />
<path d="M72.516893 63.338878
L71.953976 63.663878
" />
<path d="M72.841893 63.901795
L72.516893 63.338878
" />
<path d="M79.150000 68.150000
L79.150000 68.800000
" />
<path d="M79.800000 68.150000
L79.150000 68.150000
" />
<path d="M71.850000 59.150000
L71.200000 59.150000
" />
<path d="M71.850000 59.800000
L71.850000 59.150000
" />
<path d="M73.366893 55.188878
L72.803976 54.863878
" />
<path d="M73.041893 55.751795
L73.366893 55.188878
" />
</g>
<g style="fill:#000000; fill-opacity:0.0; 
stroke:#000000; stroke-width:0.120000; stroke-opacity:1; 
stroke-linecap:round; stroke-linejoin:round;">
<path d="M70.892164 61.140000
L71.107836 61.140000
" />
<path d="M70.892164 61.860000
L71.107836 61.860000
" />
<path d="M88.450000 58.010000
L89.250000 58.010000
" />
<path d="M88.450000 56.650000
L88.450000 58.010000
" />
<path d="M89.250000 56.650000
L89.250000 58.010000
" />
<path d="M72.726611 65.492149
L72.913389 65.384313
" />
<path d="M73.086611 66.115687
L73.273389 66.007851
" />
<path d="M76.434313 68.413389
L76.542149 68.226611
" />
<path d="M77.057851 68.773389
L77.165687 68.586611
" />
<path d="M85.542149 67.340656
L85.434313 67.153878
" />
<path d="M86.165687 66.980656
L86.057851 66.793878
" />
<path d="M71.586611 56.434313
L71.773389 56.542149
" />
<path d="M71.226611 57.057851
L71.413389 57.165687
" />
<path d="M81.140000 69.137836
L81.140000 68.922164
" />
<path d="M81.860000 69.137836
L81.860000 68.922164
" />
</g>
<g style="fill:#000000; fill-opacity:0.0; 
stroke:#000000; stroke-width:0.100000; stroke-opacity:1; 
stroke-linecap:round; stroke-linejoin:round;">
<path d="M87.483107 56.661122
L88.046024 56.336122
" />
<path d="M87.158107 56.098205
L87.483107 56.661122
" />
</g>
<g style="fill:#000000; fill-opacity:0.0; 
stroke:#000000; stroke-width:0.120000; stroke-opacity:1; 
stroke-linecap:round; stroke-linejoin:round;">
<path d="M89.042164 58.170000
L89.257836 58.170000
" />
<path d="M89.042164 58.890000
L89.257836 58.890000
" />
<path d="M87.273389 54.507851
L87.086611 54.615687
" />
<path d="M86.913389 53.884313
L86.726611 53.992149
" />
</g>
<g style="fill:#000000; fill-opacity:0.0; 
stroke:#000000; stroke-width:0.100000; stroke-opacity:1; 
stroke-linecap:round; stroke-linejoin:round;">
<path d="M76.661122 52.516893
L76.336122 51.953976
" />
<path d="M76.098205 52.841893
L76.661122 52.516893
" />
</g>
<g style="fill:#000000; fill-opacity:0.0; 
stroke:#000000; stroke-width:0.120000; stroke-opacity:1; 
stroke-linecap:round; stroke-linejoin:round;">
<path d="M88.463389 63.615687
L88.276611 63.507851
" />
<path d="M88.823389 62.992149
L88.636611 62.884313
" />
</g>
<g style="fill:#000000; fill-opacity:0.0; 
stroke:#000000; stroke-width:0.100000; stroke-opacity:1; 
stroke-linecap:round; stroke-linejoin:round;">
<path d="M75.188878 66.633107
L74.863878 67.196024
" />
<path d="M75.751795 66.958107
L75.188878 66.633107
" />
<path d="M84.811122 53.366893
L85.136122 52.803976
" />
<path d="M84.248205 53.041893
L84.811122 53.366893
" />
</g>
<g style="fill:#000000; fill-opacity:0.0; 
stroke:#000000; stroke-width:0.120000; stroke-opacity:1; 
stroke-linecap:round; stroke-linejoin:round;">
<path d="M89.063641 62.030000
L88.756359 62.030000
" />
<path d="M89.063641 61.270000
L88.756359 61.270000
" />
<path d="M83.565687 51.586611
L83.457851 51.773389
" />
<path d="M82.942149 51.226611
L82.834313 51.413389
" />
<g >
</g>
<g >
</g>
<g >
</g>
<g >
</g>
<g >
</g>
<g >
</g>
<g >
</g>
<g >
</g>
<g >
</g>
<g >
</g>
<g >
</g>
<g >
</g>
<g >
</g>
<g >
</g>
<g >
</g>
<g >
</g>
<g >
</g>
<g >
</g>
<g >
</g>
<g >
</g>
<g >
</g>
<g >
</g>
<g >
</g>
<g >
</g>
<g >
</g>
<g >
</g>
<g >
</g>
<g >
</g>
<g >
</g>
<g >
</g>
<g >
</g>
<g >
</g>
<g >
</g>
<g >
</g>
<g >
</g>
</g> 
</svg>
