G04 #@! TF.GenerationSoftware,KiCad,Pcbnew,7.0.5.1-1-g8f565ef7f0-dirty-deb11*
G04 #@! TF.CreationDate,2023-06-05T16:14:38+00:00*
G04 #@! TF.ProjectId,pedalboard-led-ring,70656461-6c62-46f6-9172-642d6c65642d,1.0.0*
G04 #@! TF.SameCoordinates,Original*
G04 #@! TF.FileFunction,Copper,L2,Bot*
G04 #@! TF.FilePolarity,Positive*
%FSLAX46Y46*%
G04 Gerber Fmt 4.6, Leading zero omitted, Abs format (unit mm)*
G04 Created by KiCad (PCBNEW 7.0.5.1-1-g8f565ef7f0-dirty-deb11) date 2023-06-05 16:14:38*
%MOMM*%
%LPD*%
G01*
G04 APERTURE LIST*
G04 #@! TA.AperFunction,SMDPad,CuDef*
%ADD10R,1.000000X2.750000*%
G04 #@! TD*
G04 #@! TA.AperFunction,SMDPad,CuDef*
%ADD11R,2.750000X1.000000*%
G04 #@! TD*
G04 #@! TA.AperFunction,ViaPad*
%ADD12C,0.800000*%
G04 #@! TD*
G04 #@! TA.AperFunction,Conductor*
%ADD13C,0.250000*%
G04 #@! TD*
G04 APERTURE END LIST*
D10*
X11000000Y3125000D03*
X11000000Y-3125000D03*
X9000000Y3125000D03*
X9000000Y-3125000D03*
D11*
X10125000Y-10500000D03*
X3875000Y-10500000D03*
X10125000Y-8500000D03*
X3875000Y-8500000D03*
D12*
X6800000Y-3600000D03*
X-6000000Y8000000D03*
X9928203Y1196152D03*
X-9928203Y-1196152D03*
X-3928203Y-9196152D03*
X1196152Y-9928203D03*
X3928203Y9196152D03*
X-8000000Y-6000000D03*
X6000000Y-7940000D03*
X-9196152Y3928203D03*
X8000000Y6000000D03*
X8260000Y-6020000D03*
X-1196152Y9928203D03*
X10400000Y-1400000D03*
X2900000Y-11400000D03*
X11150000Y-1400000D03*
X11150000Y-4850000D03*
X10400000Y-4850000D03*
X4900000Y-11400000D03*
X5700000Y-10500000D03*
X3900000Y-11400000D03*
X7910000Y-1150000D03*
D13*
X8625000Y-3500000D02*
X6900000Y-3500000D01*
X6800000Y-4680000D02*
X3875000Y-7605000D01*
X6900000Y-3500000D02*
X6800000Y-3600000D01*
X3875000Y-7605000D02*
X3875000Y-8500000D01*
X6800000Y-3600000D02*
X6800000Y-4680000D01*
X11000000Y-4250000D02*
X10400000Y-4850000D01*
X11000000Y-4700000D02*
X11150000Y-4850000D01*
X11100000Y-4900000D02*
X10400000Y-4900000D01*
X3800000Y-10500000D02*
X2900000Y-11400000D01*
X11000000Y-3125000D02*
X11000000Y-1550000D01*
X3875000Y-10500000D02*
X5700000Y-10500000D01*
X3875000Y-10500000D02*
X3875000Y-11375000D01*
X11000000Y-2000000D02*
X10400000Y-1400000D01*
X11000000Y-1550000D02*
X11150000Y-1400000D01*
X4000000Y-10500000D02*
X4900000Y-11400000D01*
X3875000Y-11375000D02*
X3900000Y-11400000D01*
X11000000Y-3125000D02*
X11000000Y-4700000D01*
X11875000Y-1127979D02*
X11875000Y-7250000D01*
X9695000Y-1200000D02*
X9695000Y-1107979D01*
X10107979Y-695000D02*
X11442021Y-695000D01*
X11875000Y-7250000D02*
X11125000Y-8000000D01*
X9695000Y-1107979D02*
X10107979Y-695000D01*
X11442021Y-695000D02*
X11875000Y-1127979D01*
X7910000Y-1200000D02*
X9695000Y-1200000D01*
X9000000Y-1200000D02*
X9000000Y3125000D01*
G04 #@! TA.AperFunction,Conductor*
G36*
X11002140Y11999313D02*
G01*
X11045464Y11995523D01*
X11173816Y11982881D01*
X11189696Y11979992D01*
X11257626Y11961791D01*
X11259036Y11961388D01*
X11353264Y11932804D01*
X11366359Y11927793D01*
X11435690Y11895464D01*
X11438085Y11894267D01*
X11522989Y11848885D01*
X11528052Y11845775D01*
X11595221Y11798742D01*
X11598233Y11796457D01*
X11632865Y11768036D01*
X11671280Y11736509D01*
X11674877Y11733249D01*
X11733247Y11674879D01*
X11736512Y11671277D01*
X11796455Y11598235D01*
X11798740Y11595223D01*
X11845773Y11528054D01*
X11848883Y11522991D01*
X11894255Y11438107D01*
X11895462Y11435692D01*
X11927791Y11366361D01*
X11932804Y11353261D01*
X11961364Y11259113D01*
X11961809Y11257555D01*
X11979986Y11189718D01*
X11982882Y11173798D01*
X11995520Y11045475D01*
X11999311Y11002157D01*
X11999500Y10997839D01*
X11999500Y-553145D01*
X11980593Y-611336D01*
X11931093Y-647300D01*
X11869907Y-647300D01*
X11830496Y-623149D01*
X11683762Y-476414D01*
X11680843Y-473229D01*
X11654477Y-441806D01*
X11631839Y-428736D01*
X11618939Y-421288D01*
X11615304Y-418972D01*
X11581705Y-395446D01*
X11581700Y-395443D01*
X11580245Y-395054D01*
X11556369Y-385164D01*
X11555066Y-384411D01*
X11514673Y-377289D01*
X11510457Y-376354D01*
X11484174Y-369312D01*
X11470828Y-365736D01*
X11470827Y-365736D01*
X11466402Y-366123D01*
X11429947Y-369312D01*
X11425647Y-369500D01*
X10124354Y-369500D01*
X10120053Y-369312D01*
X10079173Y-365736D01*
X10039543Y-376354D01*
X10035327Y-377289D01*
X9994935Y-384411D01*
X9994927Y-384414D01*
X9993619Y-385170D01*
X9969765Y-395051D01*
X9968303Y-395442D01*
X9968295Y-395446D01*
X9934695Y-418972D01*
X9931059Y-421288D01*
X9922854Y-426025D01*
X9895524Y-441805D01*
X9869160Y-473224D01*
X9866242Y-476408D01*
X9497148Y-845503D01*
X9442631Y-873281D01*
X9427144Y-874500D01*
X9424500Y-874500D01*
X9366309Y-855593D01*
X9330345Y-806093D01*
X9325500Y-775500D01*
X9325500Y1450500D01*
X9344407Y1508691D01*
X9393907Y1544655D01*
X9424500Y1549500D01*
X9519747Y1549500D01*
X9519748Y1549500D01*
X9578231Y1561133D01*
X9644552Y1605448D01*
X9688867Y1671769D01*
X9700500Y1730252D01*
X9700500Y2975000D01*
X10200001Y2975000D01*
X10200001Y1705209D01*
X10202909Y1680126D01*
X10248213Y1577523D01*
X10327522Y1498214D01*
X10430127Y1452910D01*
X10455203Y1450001D01*
X10849998Y1450001D01*
X10850000Y1450002D01*
X11150000Y1450002D01*
X11150001Y1450001D01*
X11544790Y1450001D01*
X11544791Y1450002D01*
X11569874Y1452910D01*
X11672477Y1498214D01*
X11751786Y1577523D01*
X11797090Y1680128D01*
X11799999Y1705203D01*
X11800000Y1705206D01*
X11800000Y2974999D01*
X11799999Y2975000D01*
X11150001Y2975000D01*
X11150000Y2974999D01*
X11150000Y1450002D01*
X10850000Y1450002D01*
X10850000Y2974999D01*
X10849999Y2975000D01*
X10200001Y2975000D01*
X9700500Y2975000D01*
X9700500Y3275001D01*
X10200000Y3275001D01*
X10200001Y3275000D01*
X10849999Y3275000D01*
X10850000Y3275001D01*
X10850000Y4800000D01*
X11150000Y4800000D01*
X11150000Y3275001D01*
X11150001Y3275000D01*
X11799998Y3275000D01*
X11799999Y3275002D01*
X11799999Y4544791D01*
X11799998Y4544792D01*
X11797090Y4569875D01*
X11751786Y4672478D01*
X11672477Y4751787D01*
X11569872Y4797091D01*
X11544797Y4800000D01*
X11150000Y4800000D01*
X10850000Y4800000D01*
X10455210Y4800000D01*
X10455207Y4799999D01*
X10430125Y4797091D01*
X10327522Y4751787D01*
X10248213Y4672478D01*
X10202909Y4569873D01*
X10200000Y4544798D01*
X10200000Y3275001D01*
X9700500Y3275001D01*
X9700500Y4519748D01*
X9688867Y4578231D01*
X9644552Y4644552D01*
X9644548Y4644555D01*
X9578233Y4688866D01*
X9578231Y4688867D01*
X9578228Y4688868D01*
X9578227Y4688868D01*
X9519758Y4700499D01*
X9519748Y4700500D01*
X8480252Y4700500D01*
X8480251Y4700500D01*
X8480241Y4700499D01*
X8421772Y4688868D01*
X8421766Y4688866D01*
X8355451Y4644555D01*
X8355445Y4644549D01*
X8311134Y4578234D01*
X8311132Y4578228D01*
X8299501Y4519759D01*
X8299500Y4519747D01*
X8299500Y1730254D01*
X8299501Y1730242D01*
X8311132Y1671773D01*
X8311133Y1671769D01*
X8355448Y1605448D01*
X8421769Y1561133D01*
X8466231Y1552289D01*
X8480241Y1549502D01*
X8480246Y1549502D01*
X8480252Y1549500D01*
X8575500Y1549500D01*
X8633691Y1530593D01*
X8669655Y1481093D01*
X8674500Y1450500D01*
X8674500Y-775500D01*
X8655593Y-833691D01*
X8606093Y-869655D01*
X8575500Y-874500D01*
X8504336Y-874500D01*
X8446145Y-855593D01*
X8425796Y-835769D01*
X8338282Y-721718D01*
X8338277Y-721714D01*
X8338276Y-721713D01*
X8212838Y-625462D01*
X8066766Y-564957D01*
X8066758Y-564955D01*
X7910001Y-544318D01*
X7909999Y-544318D01*
X7753241Y-564955D01*
X7753233Y-564957D01*
X7607161Y-625462D01*
X7607160Y-625462D01*
X7481723Y-721713D01*
X7481713Y-721723D01*
X7385462Y-847160D01*
X7385462Y-847161D01*
X7324957Y-993233D01*
X7324955Y-993241D01*
X7304318Y-1149999D01*
X7304318Y-1150000D01*
X7324955Y-1306758D01*
X7324957Y-1306766D01*
X7385462Y-1452838D01*
X7385462Y-1452839D01*
X7465205Y-1556762D01*
X7481718Y-1578282D01*
X7607159Y-1674536D01*
X7607160Y-1674536D01*
X7607161Y-1674537D01*
X7688614Y-1708276D01*
X7753238Y-1735044D01*
X7870809Y-1750522D01*
X7909999Y-1755682D01*
X7910000Y-1755682D01*
X7910001Y-1755682D01*
X7941352Y-1751554D01*
X8066762Y-1735044D01*
X8162616Y-1695339D01*
X8223611Y-1690539D01*
X8275780Y-1722508D01*
X8299195Y-1779036D01*
X8299500Y-1786804D01*
X8299500Y-3075500D01*
X8280593Y-3133691D01*
X8231093Y-3169655D01*
X8200500Y-3174500D01*
X7265514Y-3174500D01*
X7207323Y-3155593D01*
X7205247Y-3154042D01*
X7102838Y-3075462D01*
X6956766Y-3014957D01*
X6956758Y-3014955D01*
X6800001Y-2994318D01*
X6799999Y-2994318D01*
X6643241Y-3014955D01*
X6643233Y-3014957D01*
X6497161Y-3075462D01*
X6497160Y-3075462D01*
X6371723Y-3171713D01*
X6371713Y-3171723D01*
X6275462Y-3297160D01*
X6275462Y-3297161D01*
X6214957Y-3443233D01*
X6214955Y-3443241D01*
X6194318Y-3599999D01*
X6194318Y-3600000D01*
X6214955Y-3756758D01*
X6214957Y-3756766D01*
X6275462Y-3902838D01*
X6275462Y-3902839D01*
X6275464Y-3902841D01*
X6371718Y-4028282D01*
X6398280Y-4048664D01*
X6435767Y-4077428D01*
X6470423Y-4127852D01*
X6474500Y-4155970D01*
X6474500Y-4504165D01*
X6455593Y-4562356D01*
X6445504Y-4574169D01*
X3656413Y-7363259D01*
X3653228Y-7366176D01*
X3621807Y-7392542D01*
X3621806Y-7392544D01*
X3601292Y-7428075D01*
X3598972Y-7431716D01*
X3575446Y-7465316D01*
X3575442Y-7465324D01*
X3575051Y-7466786D01*
X3565170Y-7490640D01*
X3564414Y-7491948D01*
X3564410Y-7491960D01*
X3557287Y-7532349D01*
X3556353Y-7536564D01*
X3545736Y-7576187D01*
X3545736Y-7576193D01*
X3549312Y-7617072D01*
X3549500Y-7621373D01*
X3549500Y-7700500D01*
X3530593Y-7758691D01*
X3481093Y-7794655D01*
X3450500Y-7799500D01*
X2480252Y-7799500D01*
X2480251Y-7799500D01*
X2480241Y-7799501D01*
X2421772Y-7811132D01*
X2421766Y-7811134D01*
X2355451Y-7855445D01*
X2355445Y-7855451D01*
X2311134Y-7921766D01*
X2311132Y-7921772D01*
X2299501Y-7980241D01*
X2299500Y-7980253D01*
X2299500Y-9019746D01*
X2299501Y-9019758D01*
X2311132Y-9078227D01*
X2311133Y-9078231D01*
X2355448Y-9144552D01*
X2421769Y-9188867D01*
X2466231Y-9197711D01*
X2480241Y-9200498D01*
X2480246Y-9200498D01*
X2480252Y-9200500D01*
X2480253Y-9200500D01*
X5269747Y-9200500D01*
X5269748Y-9200500D01*
X5328231Y-9188867D01*
X5394552Y-9144552D01*
X5438867Y-9078231D01*
X5450500Y-9019748D01*
X5450500Y-7980252D01*
X5438867Y-7921769D01*
X5394552Y-7855448D01*
X5348736Y-7824834D01*
X5328233Y-7811134D01*
X5328231Y-7811133D01*
X5328228Y-7811132D01*
X5328227Y-7811132D01*
X5269758Y-7799501D01*
X5269748Y-7799500D01*
X5269747Y-7799500D01*
X4379834Y-7799500D01*
X4321643Y-7780593D01*
X4285679Y-7731093D01*
X4285679Y-7669907D01*
X4309830Y-7630496D01*
X7018583Y-4921742D01*
X7021760Y-4918829D01*
X7053194Y-4892455D01*
X7073714Y-4856911D01*
X7076012Y-4853303D01*
X7099554Y-4819684D01*
X7099941Y-4818236D01*
X7109838Y-4794345D01*
X7110588Y-4793045D01*
X7117709Y-4752656D01*
X7118640Y-4748452D01*
X7129264Y-4708807D01*
X7125687Y-4667922D01*
X7125500Y-4663623D01*
X7125500Y-4155970D01*
X7144407Y-4097779D01*
X7164233Y-4077428D01*
X7228282Y-4028282D01*
X7324536Y-3902841D01*
X7331257Y-3886613D01*
X7370996Y-3840088D01*
X7422722Y-3825500D01*
X8200500Y-3825500D01*
X8258691Y-3844407D01*
X8294655Y-3893907D01*
X8299500Y-3924500D01*
X8299500Y-4519746D01*
X8299501Y-4519758D01*
X8311132Y-4578227D01*
X8311134Y-4578233D01*
X8355445Y-4644548D01*
X8355448Y-4644552D01*
X8421769Y-4688867D01*
X8466231Y-4697711D01*
X8480241Y-4700498D01*
X8480246Y-4700498D01*
X8480252Y-4700500D01*
X8480253Y-4700500D01*
X9519747Y-4700500D01*
X9519748Y-4700500D01*
X9578231Y-4688867D01*
X9644552Y-4644552D01*
X9644552Y-4644551D01*
X9652659Y-4639135D01*
X9653937Y-4641048D01*
X9696454Y-4619379D01*
X9756887Y-4628943D01*
X9800156Y-4672203D01*
X9810105Y-4730080D01*
X9794318Y-4849999D01*
X9794318Y-4850000D01*
X9814955Y-5006758D01*
X9814957Y-5006766D01*
X9875462Y-5152838D01*
X9875462Y-5152839D01*
X9875464Y-5152841D01*
X9971718Y-5278282D01*
X9971722Y-5278285D01*
X9971723Y-5278286D01*
X10000500Y-5300367D01*
X10097159Y-5374536D01*
X10097160Y-5374536D01*
X10097161Y-5374537D01*
X10202974Y-5418366D01*
X10243238Y-5435044D01*
X10360809Y-5450522D01*
X10399999Y-5455682D01*
X10400000Y-5455682D01*
X10400001Y-5455682D01*
X10431352Y-5451554D01*
X10556762Y-5435044D01*
X10702841Y-5374536D01*
X10714731Y-5365411D01*
X10772407Y-5344987D01*
X10831073Y-5362363D01*
X10835258Y-5365404D01*
X10847159Y-5374536D01*
X10847160Y-5374536D01*
X10847161Y-5374537D01*
X10952974Y-5418366D01*
X10993238Y-5435044D01*
X11110809Y-5450522D01*
X11149999Y-5455682D01*
X11150000Y-5455682D01*
X11150001Y-5455682D01*
X11181352Y-5451554D01*
X11306762Y-5435044D01*
X11412615Y-5391197D01*
X11473611Y-5386397D01*
X11525780Y-5418366D01*
X11549195Y-5474894D01*
X11549500Y-5482662D01*
X11549500Y-7074165D01*
X11530593Y-7132356D01*
X11520504Y-7144169D01*
X10894170Y-7770504D01*
X10839653Y-7798281D01*
X10824166Y-7799500D01*
X8730252Y-7799500D01*
X8730251Y-7799500D01*
X8730241Y-7799501D01*
X8671772Y-7811132D01*
X8671766Y-7811134D01*
X8605451Y-7855445D01*
X8605445Y-7855451D01*
X8561134Y-7921766D01*
X8561132Y-7921772D01*
X8549501Y-7980241D01*
X8549500Y-7980253D01*
X8549500Y-9019746D01*
X8549501Y-9019758D01*
X8561132Y-9078227D01*
X8561133Y-9078231D01*
X8605448Y-9144552D01*
X8671769Y-9188867D01*
X8716231Y-9197711D01*
X8730241Y-9200498D01*
X8730246Y-9200498D01*
X8730252Y-9200500D01*
X8730253Y-9200500D01*
X11519747Y-9200500D01*
X11519748Y-9200500D01*
X11578231Y-9188867D01*
X11644552Y-9144552D01*
X11688867Y-9078231D01*
X11700500Y-9019748D01*
X11700500Y-7980252D01*
X11694992Y-7952559D01*
X11702182Y-7891798D01*
X11722086Y-7863240D01*
X11830497Y-7754830D01*
X11885013Y-7727053D01*
X11945445Y-7736625D01*
X11988710Y-7779889D01*
X11999500Y-7824834D01*
X11999500Y-10997837D01*
X11999311Y-11002154D01*
X11997623Y-11021447D01*
X11978058Y-11067536D01*
X11987060Y-11083017D01*
X11988810Y-11113602D01*
X11982882Y-11173796D01*
X11979986Y-11189716D01*
X11961809Y-11257553D01*
X11961364Y-11259111D01*
X11932804Y-11353259D01*
X11927791Y-11366359D01*
X11895462Y-11435690D01*
X11894255Y-11438105D01*
X11848883Y-11522989D01*
X11845773Y-11528052D01*
X11798740Y-11595221D01*
X11796455Y-11598233D01*
X11736512Y-11671275D01*
X11733247Y-11674877D01*
X11674877Y-11733247D01*
X11671275Y-11736512D01*
X11598233Y-11796455D01*
X11595221Y-11798740D01*
X11528052Y-11845773D01*
X11522989Y-11848883D01*
X11438105Y-11894255D01*
X11435690Y-11895462D01*
X11366359Y-11927791D01*
X11353259Y-11932804D01*
X11259111Y-11961364D01*
X11257553Y-11961809D01*
X11189716Y-11979986D01*
X11173796Y-11982882D01*
X11045473Y-11995520D01*
X11002156Y-11999311D01*
X10997838Y-11999500D01*
X5396071Y-11999500D01*
X5337880Y-11980593D01*
X5301916Y-11931093D01*
X5301916Y-11869907D01*
X5326067Y-11830496D01*
X5328273Y-11828288D01*
X5328282Y-11828282D01*
X5424536Y-11702841D01*
X5485044Y-11556762D01*
X5505682Y-11400000D01*
X5485044Y-11243238D01*
X5478001Y-11226236D01*
X5473200Y-11165243D01*
X5505168Y-11113073D01*
X5561695Y-11089656D01*
X5582387Y-11090198D01*
X5699999Y-11105682D01*
X5700000Y-11105682D01*
X5700001Y-11105682D01*
X5752927Y-11098714D01*
X5856762Y-11085044D01*
X5953941Y-11044791D01*
X8450001Y-11044791D01*
X8452909Y-11069874D01*
X8498213Y-11172477D01*
X8577522Y-11251786D01*
X8680127Y-11297090D01*
X8705203Y-11299999D01*
X9974998Y-11299999D01*
X9974999Y-11299998D01*
X10275000Y-11299998D01*
X10275001Y-11299999D01*
X11544790Y-11299999D01*
X11544791Y-11299998D01*
X11569874Y-11297090D01*
X11672477Y-11251786D01*
X11751787Y-11172476D01*
X11799722Y-11063912D01*
X11810751Y-11051586D01*
X11800000Y-11012817D01*
X11800000Y-10650001D01*
X11799999Y-10650000D01*
X10275001Y-10650000D01*
X10275000Y-10650001D01*
X10275000Y-11299998D01*
X9974999Y-11299998D01*
X9975000Y-11299997D01*
X9975000Y-10650001D01*
X9974999Y-10650000D01*
X8450002Y-10650000D01*
X8450001Y-10650001D01*
X8450001Y-11044791D01*
X5953941Y-11044791D01*
X6002841Y-11024536D01*
X6128282Y-10928282D01*
X6224536Y-10802841D01*
X6285044Y-10656762D01*
X6305682Y-10500000D01*
X6285934Y-10349999D01*
X8450000Y-10349999D01*
X8450001Y-10350000D01*
X9974999Y-10350000D01*
X9975000Y-10349999D01*
X10275000Y-10349999D01*
X10275001Y-10350000D01*
X11799998Y-10350000D01*
X11799999Y-10349999D01*
X11799999Y-9955210D01*
X11799998Y-9955208D01*
X11797090Y-9930125D01*
X11751786Y-9827522D01*
X11672477Y-9748213D01*
X11569872Y-9702909D01*
X11544797Y-9700000D01*
X10275001Y-9700000D01*
X10275000Y-9700001D01*
X10275000Y-10349999D01*
X9975000Y-10349999D01*
X9975000Y-9700001D01*
X9974999Y-9700000D01*
X8705210Y-9700000D01*
X8705208Y-9700001D01*
X8680125Y-9702909D01*
X8577522Y-9748213D01*
X8498213Y-9827522D01*
X8452909Y-9930127D01*
X8450000Y-9955202D01*
X8450000Y-10349999D01*
X6285934Y-10349999D01*
X6285044Y-10343238D01*
X6224537Y-10197161D01*
X6224537Y-10197160D01*
X6128286Y-10071723D01*
X6128285Y-10071722D01*
X6128282Y-10071718D01*
X6128277Y-10071714D01*
X6128276Y-10071713D01*
X6034817Y-10000000D01*
X6002841Y-9975464D01*
X6002840Y-9975463D01*
X6002838Y-9975462D01*
X5856766Y-9914957D01*
X5856758Y-9914955D01*
X5700001Y-9894318D01*
X5699999Y-9894318D01*
X5543238Y-9914955D01*
X5543238Y-9914956D01*
X5532984Y-9919203D01*
X5471987Y-9924001D01*
X5419820Y-9892029D01*
X5412788Y-9882740D01*
X5394552Y-9855448D01*
X5394548Y-9855445D01*
X5328233Y-9811134D01*
X5328231Y-9811133D01*
X5328228Y-9811132D01*
X5328227Y-9811132D01*
X5269758Y-9799501D01*
X5269748Y-9799500D01*
X2480252Y-9799500D01*
X2480251Y-9799500D01*
X2480241Y-9799501D01*
X2421772Y-9811132D01*
X2421766Y-9811134D01*
X2355451Y-9855445D01*
X2355445Y-9855451D01*
X2311134Y-9921766D01*
X2311132Y-9921772D01*
X2299501Y-9980241D01*
X2299500Y-9980253D01*
X2299500Y-11019746D01*
X2299501Y-11019758D01*
X2311132Y-11078227D01*
X2311134Y-11078233D01*
X2326286Y-11100909D01*
X2342895Y-11159797D01*
X2335436Y-11193791D01*
X2314957Y-11243236D01*
X2314955Y-11243241D01*
X2294318Y-11399999D01*
X2294318Y-11400000D01*
X2314955Y-11556758D01*
X2314957Y-11556766D01*
X2375462Y-11702838D01*
X2375462Y-11702839D01*
X2471713Y-11828276D01*
X2471718Y-11828282D01*
X2471722Y-11828285D01*
X2473933Y-11830496D01*
X2474953Y-11832498D01*
X2475668Y-11833430D01*
X2475495Y-11833562D01*
X2501710Y-11885013D01*
X2492139Y-11945445D01*
X2448874Y-11988710D01*
X2403929Y-11999500D01*
X-10997838Y-11999500D01*
X-11002156Y-11999311D01*
X-11045475Y-11995520D01*
X-11173798Y-11982882D01*
X-11189716Y-11979986D01*
X-11226609Y-11970101D01*
X-11257555Y-11961809D01*
X-11259113Y-11961364D01*
X-11353261Y-11932804D01*
X-11366361Y-11927791D01*
X-11435692Y-11895462D01*
X-11438107Y-11894255D01*
X-11522991Y-11848883D01*
X-11528054Y-11845773D01*
X-11595223Y-11798740D01*
X-11598235Y-11796455D01*
X-11671277Y-11736512D01*
X-11674879Y-11733247D01*
X-11733249Y-11674877D01*
X-11736514Y-11671275D01*
X-11796457Y-11598233D01*
X-11798742Y-11595221D01*
X-11825672Y-11556762D01*
X-11845778Y-11528048D01*
X-11848885Y-11522989D01*
X-11894267Y-11438085D01*
X-11895464Y-11435690D01*
X-11927793Y-11366359D01*
X-11932806Y-11353259D01*
X-11961388Y-11259036D01*
X-11961791Y-11257626D01*
X-11979992Y-11189696D01*
X-11982881Y-11173816D01*
X-11995524Y-11045447D01*
X-11995581Y-11044791D01*
X-11999313Y-11002140D01*
X-11999500Y-10997840D01*
X-11999500Y-10000004D01*
X-11355659Y-10000004D01*
X-11335065Y-10235400D01*
X-11273902Y-10463667D01*
X-11174041Y-10677818D01*
X-11174037Y-10677826D01*
X-11086503Y-10802839D01*
X-11038495Y-10871401D01*
X-10871401Y-11038495D01*
X-10871398Y-11038497D01*
X-10871397Y-11038498D01*
X-10852705Y-11051586D01*
X-10677829Y-11174035D01*
X-10677828Y-11174035D01*
X-10677827Y-11174036D01*
X-10677819Y-11174040D01*
X-10463667Y-11273901D01*
X-10463663Y-11273903D01*
X-10235408Y-11335063D01*
X-10235404Y-11335063D01*
X-10235401Y-11335064D01*
X-10058974Y-11350500D01*
X-10058966Y-11350500D01*
X-9941026Y-11350500D01*
X-9764600Y-11335064D01*
X-9764599Y-11335063D01*
X-9764592Y-11335063D01*
X-9536337Y-11273903D01*
X-9322171Y-11174035D01*
X-9128599Y-11038495D01*
X-8961505Y-10871401D01*
X-8825965Y-10677830D01*
X-8726097Y-10463663D01*
X-8664937Y-10235408D01*
X-8664936Y-10235400D01*
X-8644341Y-10000004D01*
X-8644341Y-9999995D01*
X-8664936Y-9764599D01*
X-8664937Y-9764596D01*
X-8664937Y-9764592D01*
X-8726097Y-9536337D01*
X-8825965Y-9322171D01*
X-8950333Y-9144554D01*
X-8961502Y-9128603D01*
X-8961503Y-9128602D01*
X-8961505Y-9128599D01*
X-9128599Y-8961505D01*
X-9128603Y-8961502D01*
X-9128604Y-8961501D01*
X-9322174Y-8825963D01*
X-9322182Y-8825959D01*
X-9536334Y-8726098D01*
X-9536333Y-8726098D01*
X-9612423Y-8705710D01*
X-9764592Y-8664937D01*
X-9764593Y-8664936D01*
X-9764600Y-8664935D01*
X-9941026Y-8649500D01*
X-9941034Y-8649500D01*
X-10058966Y-8649500D01*
X-10058974Y-8649500D01*
X-10235401Y-8664935D01*
X-10463668Y-8726098D01*
X-10677819Y-8825959D01*
X-10677827Y-8825963D01*
X-10871397Y-8961501D01*
X-11038499Y-9128603D01*
X-11174036Y-9322171D01*
X-11273903Y-9536337D01*
X-11335065Y-9764599D01*
X-11355659Y-9999995D01*
X-11355659Y-10000004D01*
X-11999500Y-10000004D01*
X-11999500Y0D01*
X-6105452Y0D01*
X-6085654Y-491285D01*
X-6085654Y-491291D01*
X-6085653Y-491297D01*
X-6085653Y-491306D01*
X-6026391Y-979365D01*
X-6026387Y-979392D01*
X-5928038Y-1461136D01*
X-5928038Y-1461137D01*
X-5791250Y-1933386D01*
X-5791247Y-1933395D01*
X-5664929Y-2266467D01*
X-5616890Y-2393133D01*
X-5462044Y-2719464D01*
X-5407422Y-2834579D01*
X-5406109Y-2837345D01*
X-5160267Y-3263155D01*
X-5160266Y-3263156D01*
X-4880962Y-3667800D01*
X-4570001Y-4048659D01*
X-4229399Y-4403263D01*
X-4229395Y-4403267D01*
X-3957045Y-4644548D01*
X-3861365Y-4729313D01*
X-3861360Y-4729317D01*
X-3468293Y-5024688D01*
X-3284077Y-5141179D01*
X-3052726Y-5287477D01*
X-3052719Y-5287480D01*
X-3052720Y-5287480D01*
X-3052707Y-5287488D01*
X-2695632Y-5474894D01*
X-2617362Y-5515973D01*
X-2165023Y-5708697D01*
X-1934506Y-5785654D01*
X-1698659Y-5864392D01*
X-1698649Y-5864395D01*
X-1698643Y-5864397D01*
X-1221247Y-5982065D01*
X-735931Y-6060936D01*
X-245842Y-6100500D01*
X-245837Y-6100500D01*
X245837Y-6100500D01*
X245842Y-6100500D01*
X735931Y-6060936D01*
X1221247Y-5982065D01*
X1698643Y-5864397D01*
X2165023Y-5708697D01*
X2617362Y-5515973D01*
X2886847Y-5374537D01*
X3052706Y-5287488D01*
X3052711Y-5287484D01*
X3052726Y-5287477D01*
X3468292Y-5024688D01*
X3861365Y-4729313D01*
X4229395Y-4403267D01*
X4569996Y-4048664D01*
X4880959Y-3667803D01*
X5160267Y-3263155D01*
X5406109Y-2837345D01*
X5616890Y-2393133D01*
X5791244Y-1933401D01*
X5791246Y-1933395D01*
X5791249Y-1933386D01*
X5928037Y-1461137D01*
X5928037Y-1461136D01*
X5928039Y-1461130D01*
X6026388Y-979383D01*
X6047429Y-806093D01*
X6085652Y-491306D01*
X6085652Y-491301D01*
X6085654Y-491285D01*
X6105452Y0D01*
X6085654Y491285D01*
X6085652Y491302D01*
X6085652Y491307D01*
X6026390Y979366D01*
X6026388Y979383D01*
X5928039Y1461130D01*
X5922257Y1481093D01*
X5791249Y1933387D01*
X5791246Y1933396D01*
X5773157Y1981090D01*
X5616890Y2393133D01*
X5406109Y2837345D01*
X5160267Y3263155D01*
X5020612Y3465479D01*
X4880961Y3667801D01*
X4570000Y4048660D01*
X4229398Y4403264D01*
X4097902Y4519759D01*
X3953372Y4647802D01*
X3861364Y4729314D01*
X3861359Y4729318D01*
X3468292Y5024689D01*
X3176978Y5208905D01*
X3052726Y5287477D01*
X3052722Y5287480D01*
X3052719Y5287481D01*
X3052706Y5287489D01*
X2617376Y5515966D01*
X2617372Y5515968D01*
X2617369Y5515970D01*
X2617362Y5515973D01*
X2165023Y5708697D01*
X2165024Y5708697D01*
X2165021Y5708698D01*
X1698658Y5864393D01*
X1698638Y5864399D01*
X1337278Y5953466D01*
X1221247Y5982065D01*
X735931Y6060936D01*
X735925Y6060937D01*
X461028Y6083129D01*
X245842Y6100500D01*
X-245842Y6100500D01*
X-443658Y6084531D01*
X-735926Y6060937D01*
X-1221247Y5982065D01*
X-1698639Y5864399D01*
X-1698659Y5864393D01*
X-2165022Y5708698D01*
X-2457631Y5584029D01*
X-2617362Y5515973D01*
X-2617366Y5515972D01*
X-2617373Y5515968D01*
X-2617377Y5515966D01*
X-3052707Y5287489D01*
X-3052720Y5287481D01*
X-3468293Y5024689D01*
X-3861360Y4729318D01*
X-3861365Y4729314D01*
X-4229399Y4403264D01*
X-4570001Y4048660D01*
X-4880962Y3667801D01*
X-5160266Y3263157D01*
X-5406115Y2837334D01*
X-5616892Y2393128D01*
X-5791247Y1933396D01*
X-5791250Y1933387D01*
X-5928038Y1461138D01*
X-5928038Y1461137D01*
X-6026387Y979393D01*
X-6026391Y979366D01*
X-6085653Y491307D01*
X-6085653Y491298D01*
X-6085654Y491291D01*
X-6085654Y491285D01*
X-6105452Y0D01*
X-11999500Y0D01*
X-11999500Y9999996D01*
X-11355659Y9999996D01*
X-11335065Y9764600D01*
X-11273902Y9536333D01*
X-11174041Y9322182D01*
X-11174037Y9322174D01*
X-11174036Y9322172D01*
X-11174035Y9322171D01*
X-11038495Y9128599D01*
X-10871401Y8961505D01*
X-10677829Y8825965D01*
X-10677828Y8825965D01*
X-10677827Y8825964D01*
X-10677819Y8825960D01*
X-10463667Y8726099D01*
X-10463663Y8726097D01*
X-10235408Y8664937D01*
X-10235404Y8664937D01*
X-10235401Y8664936D01*
X-10058974Y8649500D01*
X-10058966Y8649500D01*
X-9941026Y8649500D01*
X-9764600Y8664936D01*
X-9764599Y8664937D01*
X-9764592Y8664937D01*
X-9536337Y8726097D01*
X-9322171Y8825965D01*
X-9128599Y8961505D01*
X-8961505Y9128599D01*
X-8825965Y9322170D01*
X-8726097Y9536337D01*
X-8664937Y9764592D01*
X-8644341Y9999996D01*
X8644341Y9999996D01*
X8664935Y9764600D01*
X8726098Y9536333D01*
X8825959Y9322182D01*
X8825963Y9322174D01*
X8825964Y9322172D01*
X8825965Y9322171D01*
X8961505Y9128599D01*
X9128599Y8961505D01*
X9322171Y8825965D01*
X9322172Y8825965D01*
X9322173Y8825964D01*
X9322181Y8825960D01*
X9536333Y8726099D01*
X9536337Y8726097D01*
X9764592Y8664937D01*
X9764596Y8664937D01*
X9764599Y8664936D01*
X9941026Y8649500D01*
X9941034Y8649500D01*
X10058974Y8649500D01*
X10235400Y8664936D01*
X10235401Y8664937D01*
X10235408Y8664937D01*
X10463663Y8726097D01*
X10677829Y8825965D01*
X10871401Y8961505D01*
X11038495Y9128599D01*
X11174035Y9322170D01*
X11273903Y9536337D01*
X11335063Y9764592D01*
X11355659Y10000000D01*
X11335063Y10235408D01*
X11273903Y10463663D01*
X11174035Y10677829D01*
X11038495Y10871401D01*
X10871401Y11038495D01*
X10871397Y11038498D01*
X10871396Y11038499D01*
X10678167Y11173798D01*
X10677829Y11174035D01*
X10677828Y11174036D01*
X10677826Y11174037D01*
X10677818Y11174041D01*
X10463666Y11273902D01*
X10463667Y11273902D01*
X10387578Y11294290D01*
X10235408Y11335063D01*
X10235407Y11335064D01*
X10235400Y11335065D01*
X10058974Y11350500D01*
X10058966Y11350500D01*
X9941034Y11350500D01*
X9941026Y11350500D01*
X9764599Y11335065D01*
X9536332Y11273902D01*
X9322181Y11174041D01*
X9322173Y11174037D01*
X9128603Y11038499D01*
X8961501Y10871397D01*
X8825964Y10677829D01*
X8726097Y10463663D01*
X8664935Y10235401D01*
X8644341Y10000005D01*
X8644341Y9999996D01*
X-8644341Y9999996D01*
X-8644341Y10000000D01*
X-8664937Y10235408D01*
X-8726097Y10463663D01*
X-8825965Y10677829D01*
X-8961505Y10871401D01*
X-9128599Y11038495D01*
X-9128603Y11038498D01*
X-9128604Y11038499D01*
X-9321833Y11173798D01*
X-9322171Y11174035D01*
X-9322172Y11174036D01*
X-9322174Y11174037D01*
X-9322182Y11174041D01*
X-9536334Y11273902D01*
X-9536333Y11273902D01*
X-9612422Y11294290D01*
X-9764592Y11335063D01*
X-9764593Y11335064D01*
X-9764600Y11335065D01*
X-9941026Y11350500D01*
X-9941034Y11350500D01*
X-10058966Y11350500D01*
X-10058974Y11350500D01*
X-10235401Y11335065D01*
X-10463668Y11273902D01*
X-10677819Y11174041D01*
X-10677827Y11174037D01*
X-10871397Y11038499D01*
X-11038499Y10871397D01*
X-11174036Y10677829D01*
X-11273903Y10463663D01*
X-11335065Y10235401D01*
X-11355659Y10000005D01*
X-11355659Y9999996D01*
X-11999500Y9999996D01*
X-11999500Y10997842D01*
X-11999313Y11002140D01*
X-11995517Y11045535D01*
X-11982880Y11173821D01*
X-11979993Y11189693D01*
X-11961782Y11257658D01*
X-11961397Y11259005D01*
X-11932801Y11353275D01*
X-11927793Y11366361D01*
X-11900708Y11424445D01*
X-11895449Y11435724D01*
X-11894282Y11438057D01*
X-11848877Y11523006D01*
X-11845788Y11528035D01*
X-11798729Y11595241D01*
X-11796472Y11598216D01*
X-11736492Y11671302D01*
X-11733259Y11674869D01*
X-11674869Y11733259D01*
X-11671302Y11736492D01*
X-11598216Y11796472D01*
X-11595241Y11798729D01*
X-11528035Y11845788D01*
X-11523006Y11848877D01*
X-11438057Y11894282D01*
X-11435724Y11895449D01*
X-11366359Y11927795D01*
X-11353275Y11932801D01*
X-11259005Y11961397D01*
X-11257658Y11961782D01*
X-11189693Y11979993D01*
X-11173821Y11982880D01*
X-11045516Y11995518D01*
X-11002141Y11999313D01*
X-10997841Y11999500D01*
X10997840Y11999500D01*
X11002140Y11999313D01*
G37*
G04 #@! TD.AperFunction*
M02*
