G04 #@! TF.GenerationSoftware,KiCad,Pcbnew,7.0.8-7.0.8~ubuntu23.04.1*
G04 #@! TF.CreationDate,2023-10-20T09:27:14+00:00*
G04 #@! TF.ProjectId,pedalboard-led-ring,70656461-6c62-46f6-9172-642d6c65642d,1.0.0*
G04 #@! TF.SameCoordinates,Original*
G04 #@! TF.FileFunction,Soldermask,Top*
G04 #@! TF.FilePolarity,Negative*
%FSLAX46Y46*%
G04 Gerber Fmt 4.6, Leading zero omitted, Abs format (unit mm)*
G04 Created by KiCad (PCBNEW 7.0.8-7.0.8~ubuntu23.04.1) date 2023-10-20 09:27:14*
%MOMM*%
%LPD*%
G01*
G04 APERTURE LIST*
%ADD10R,0.500000X0.500000*%
%ADD11C,2.200000*%
G04 APERTURE END LIST*
G36*
X4676795Y-8500446D02*
G01*
X4243783Y-8750446D01*
X3993783Y-8317434D01*
X4426795Y-8067434D01*
X4676795Y-8500446D01*
G37*
G36*
X5456217Y-8050446D02*
G01*
X5023205Y-8300446D01*
X4773205Y-7867434D01*
X5206217Y-7617434D01*
X5456217Y-8050446D01*
G37*
G36*
X5006217Y-7271024D02*
G01*
X4573205Y-7521024D01*
X4323205Y-7088012D01*
X4756217Y-6838012D01*
X5006217Y-7271024D01*
G37*
G36*
X4226795Y-7721024D02*
G01*
X3793783Y-7971024D01*
X3543783Y-7538012D01*
X3976795Y-7288012D01*
X4226795Y-7721024D01*
G37*
G36*
G01*
X-1450000Y9665000D02*
X-1250000Y9665000D01*
G75*
G02*
X-1150000Y9565000I0J-100000D01*
G01*
X-1150000Y9130000D01*
G75*
G02*
X-1250000Y9030000I-100000J0D01*
G01*
X-1450000Y9030000D01*
G75*
G02*
X-1550000Y9130000I0J100000D01*
G01*
X-1550000Y9565000D01*
G75*
G02*
X-1450000Y9665000I100000J0D01*
G01*
G37*
G36*
G01*
X-1450000Y8850000D02*
X-1250000Y8850000D01*
G75*
G02*
X-1150000Y8750000I0J-100000D01*
G01*
X-1150000Y8315000D01*
G75*
G02*
X-1250000Y8215000I-100000J0D01*
G01*
X-1450000Y8215000D01*
G75*
G02*
X-1550000Y8315000I0J100000D01*
G01*
X-1550000Y8750000D01*
G75*
G02*
X-1450000Y8850000I100000J0D01*
G01*
G37*
G36*
G01*
X-6088237Y7645136D02*
X-5915031Y7745136D01*
G75*
G02*
X-5778428Y7708533I50000J-86603D01*
G01*
X-5560928Y7331811D01*
G75*
G02*
X-5597531Y7195208I-86603J-50000D01*
G01*
X-5770737Y7095208D01*
G75*
G02*
X-5907340Y7131811I-50000J86603D01*
G01*
X-6124840Y7508533D01*
G75*
G02*
X-6088237Y7645136I86603J50000D01*
G01*
G37*
G36*
G01*
X-5680737Y6939326D02*
X-5507531Y7039326D01*
G75*
G02*
X-5370928Y7002723I50000J-86603D01*
G01*
X-5153428Y6626001D01*
G75*
G02*
X-5190031Y6489398I-86603J-50000D01*
G01*
X-5363237Y6389398D01*
G75*
G02*
X-5499840Y6426001I-50000J86603D01*
G01*
X-5717340Y6802723D01*
G75*
G02*
X-5680737Y6939326I86603J50000D01*
G01*
G37*
D10*
X9450000Y-450000D03*
X9450000Y450000D03*
X8550000Y450000D03*
X8550000Y-450000D03*
X450000Y9450000D03*
X-450000Y9450000D03*
X-450000Y8550000D03*
X450000Y8550000D03*
G36*
X8300446Y-5023205D02*
G01*
X8050446Y-5456217D01*
X7617434Y-5206217D01*
X7867434Y-4773205D01*
X8300446Y-5023205D01*
G37*
G36*
X8750446Y-4243783D02*
G01*
X8500446Y-4676795D01*
X8067434Y-4426795D01*
X8317434Y-3993783D01*
X8750446Y-4243783D01*
G37*
G36*
X7971024Y-3793783D02*
G01*
X7721024Y-4226795D01*
X7288012Y-3976795D01*
X7538012Y-3543783D01*
X7971024Y-3793783D01*
G37*
G36*
X7521024Y-4573205D02*
G01*
X7271024Y-5006217D01*
X6838012Y-4756217D01*
X7088012Y-4323205D01*
X7521024Y-4573205D01*
G37*
G36*
X-8500446Y-4676795D02*
G01*
X-8750446Y-4243783D01*
X-8317434Y-3993783D01*
X-8067434Y-4426795D01*
X-8500446Y-4676795D01*
G37*
G36*
X-8050446Y-5456217D02*
G01*
X-8300446Y-5023205D01*
X-7867434Y-4773205D01*
X-7617434Y-5206217D01*
X-8050446Y-5456217D01*
G37*
G36*
X-7271024Y-5006217D02*
G01*
X-7521024Y-4573205D01*
X-7088012Y-4323205D01*
X-6838012Y-4756217D01*
X-7271024Y-5006217D01*
G37*
G36*
X-7721024Y-4226795D02*
G01*
X-7971024Y-3793783D01*
X-7538012Y-3543783D01*
X-7288012Y-3976795D01*
X-7721024Y-4226795D01*
G37*
X-450000Y-9450000D03*
X450000Y-9450000D03*
X450000Y-8550000D03*
X-450000Y-8550000D03*
X-9450000Y450000D03*
X-9450000Y-450000D03*
X-8550000Y-450000D03*
X-8550000Y450000D03*
G36*
X-8300446Y5023205D02*
G01*
X-8050446Y5456217D01*
X-7617434Y5206217D01*
X-7867434Y4773205D01*
X-8300446Y5023205D01*
G37*
G36*
X-8750446Y4243783D02*
G01*
X-8500446Y4676795D01*
X-8067434Y4426795D01*
X-8317434Y3993783D01*
X-8750446Y4243783D01*
G37*
G36*
X-7971024Y3793783D02*
G01*
X-7721024Y4226795D01*
X-7288012Y3976795D01*
X-7538012Y3543783D01*
X-7971024Y3793783D01*
G37*
G36*
X-7521024Y4573205D02*
G01*
X-7271024Y5006217D01*
X-6838012Y4756217D01*
X-7088012Y4323205D01*
X-7521024Y4573205D01*
G37*
D11*
X10000000Y10000000D03*
G36*
G01*
X9725000Y2150000D02*
X9725000Y1950000D01*
G75*
G02*
X9625000Y1850000I-100000J0D01*
G01*
X9190000Y1850000D01*
G75*
G02*
X9090000Y1950000I0J100000D01*
G01*
X9090000Y2150000D01*
G75*
G02*
X9190000Y2250000I100000J0D01*
G01*
X9625000Y2250000D01*
G75*
G02*
X9725000Y2150000I0J-100000D01*
G01*
G37*
G36*
G01*
X8910000Y2150000D02*
X8910000Y1950000D01*
G75*
G02*
X8810000Y1850000I-100000J0D01*
G01*
X8375000Y1850000D01*
G75*
G02*
X8275000Y1950000I0J100000D01*
G01*
X8275000Y2150000D01*
G75*
G02*
X8375000Y2250000I100000J0D01*
G01*
X8810000Y2250000D01*
G75*
G02*
X8910000Y2150000I0J-100000D01*
G01*
G37*
G36*
G01*
X-9665000Y-1450000D02*
X-9665000Y-1250000D01*
G75*
G02*
X-9565000Y-1150000I100000J0D01*
G01*
X-9130000Y-1150000D01*
G75*
G02*
X-9030000Y-1250000I0J-100000D01*
G01*
X-9030000Y-1450000D01*
G75*
G02*
X-9130000Y-1550000I-100000J0D01*
G01*
X-9565000Y-1550000D01*
G75*
G02*
X-9665000Y-1450000I0J100000D01*
G01*
G37*
G36*
G01*
X-8850000Y-1450000D02*
X-8850000Y-1250000D01*
G75*
G02*
X-8750000Y-1150000I100000J0D01*
G01*
X-8315000Y-1150000D01*
G75*
G02*
X-8215000Y-1250000I0J-100000D01*
G01*
X-8215000Y-1450000D01*
G75*
G02*
X-8315000Y-1550000I-100000J0D01*
G01*
X-8750000Y-1550000D01*
G75*
G02*
X-8850000Y-1450000I0J100000D01*
G01*
G37*
G36*
G01*
X8532500Y2912500D02*
X8532500Y2787500D01*
G75*
G02*
X8470000Y2725000I-62500J0D01*
G01*
X8235000Y2725000D01*
G75*
G02*
X8172500Y2787500I0J62500D01*
G01*
X8172500Y2912500D01*
G75*
G02*
X8235000Y2975000I62500J0D01*
G01*
X8470000Y2975000D01*
G75*
G02*
X8532500Y2912500I0J-62500D01*
G01*
G37*
G36*
G01*
X9372500Y2912500D02*
X9372500Y2787500D01*
G75*
G02*
X9310000Y2725000I-62500J0D01*
G01*
X9075000Y2725000D01*
G75*
G02*
X9012500Y2787500I0J62500D01*
G01*
X9012500Y2912500D01*
G75*
G02*
X9075000Y2975000I62500J0D01*
G01*
X9310000Y2975000D01*
G75*
G02*
X9372500Y2912500I0J-62500D01*
G01*
G37*
G36*
G01*
X-7645136Y-6088237D02*
X-7745136Y-5915031D01*
G75*
G02*
X-7708533Y-5778428I86603J50000D01*
G01*
X-7331811Y-5560928D01*
G75*
G02*
X-7195208Y-5597531I50000J-86603D01*
G01*
X-7095208Y-5770737D01*
G75*
G02*
X-7131811Y-5907340I-86603J-50000D01*
G01*
X-7508533Y-6124840D01*
G75*
G02*
X-7645136Y-6088237I-50000J86603D01*
G01*
G37*
G36*
G01*
X-6939326Y-5680737D02*
X-7039326Y-5507531D01*
G75*
G02*
X-7002723Y-5370928I86603J50000D01*
G01*
X-6626001Y-5153428D01*
G75*
G02*
X-6489398Y-5190031I50000J-86603D01*
G01*
X-6389398Y-5363237D01*
G75*
G02*
X-6426001Y-5499840I-86603J-50000D01*
G01*
X-6802723Y-5717340D01*
G75*
G02*
X-6939326Y-5680737I-50000J86603D01*
G01*
G37*
G36*
G01*
X-3576763Y-9095136D02*
X-3749969Y-8995136D01*
G75*
G02*
X-3786572Y-8858533I50000J86603D01*
G01*
X-3569072Y-8481811D01*
G75*
G02*
X-3432469Y-8445208I86603J-50000D01*
G01*
X-3259263Y-8545208D01*
G75*
G02*
X-3222660Y-8681811I-50000J-86603D01*
G01*
X-3440160Y-9058533D01*
G75*
G02*
X-3576763Y-9095136I-86603J50000D01*
G01*
G37*
G36*
G01*
X-3169263Y-8389326D02*
X-3342469Y-8289326D01*
G75*
G02*
X-3379072Y-8152723I50000J86603D01*
G01*
X-3161572Y-7776001D01*
G75*
G02*
X-3024969Y-7739398I86603J-50000D01*
G01*
X-2851763Y-7839398D01*
G75*
G02*
X-2815160Y-7976001I-50000J-86603D01*
G01*
X-3032660Y-8352723D01*
G75*
G02*
X-3169263Y-8389326I-86603J50000D01*
G01*
G37*
X-10000000Y10000000D03*
G36*
G01*
X6088237Y-7645136D02*
X5915031Y-7745136D01*
G75*
G02*
X5778428Y-7708533I-50000J86603D01*
G01*
X5560928Y-7331811D01*
G75*
G02*
X5597531Y-7195208I86603J50000D01*
G01*
X5770737Y-7095208D01*
G75*
G02*
X5907340Y-7131811I50000J-86603D01*
G01*
X6124840Y-7508533D01*
G75*
G02*
X6088237Y-7645136I-86603J-50000D01*
G01*
G37*
G36*
G01*
X5680737Y-6939326D02*
X5507531Y-7039326D01*
G75*
G02*
X5370928Y-7002723I-50000J86603D01*
G01*
X5153428Y-6626001D01*
G75*
G02*
X5190031Y-6489398I86603J50000D01*
G01*
X5363237Y-6389398D01*
G75*
G02*
X5499840Y-6426001I50000J-86603D01*
G01*
X5717340Y-6802723D01*
G75*
G02*
X5680737Y-6939326I-86603J-50000D01*
G01*
G37*
G36*
G01*
X-9095136Y3576763D02*
X-8995136Y3749969D01*
G75*
G02*
X-8858533Y3786572I86603J-50000D01*
G01*
X-8481811Y3569072D01*
G75*
G02*
X-8445208Y3432469I-50000J-86603D01*
G01*
X-8545208Y3259263D01*
G75*
G02*
X-8681811Y3222660I-86603J50000D01*
G01*
X-9058533Y3440160D01*
G75*
G02*
X-9095136Y3576763I50000J86603D01*
G01*
G37*
G36*
G01*
X-8389326Y3169263D02*
X-8289326Y3342469D01*
G75*
G02*
X-8152723Y3379072I86603J-50000D01*
G01*
X-7776001Y3161572D01*
G75*
G02*
X-7739398Y3024969I-50000J-86603D01*
G01*
X-7839398Y2851763D01*
G75*
G02*
X-7976001Y2815160I-86603J50000D01*
G01*
X-8352723Y3032660D01*
G75*
G02*
X-8389326Y3169263I50000J86603D01*
G01*
G37*
G36*
G01*
X1450000Y-9665000D02*
X1250000Y-9665000D01*
G75*
G02*
X1150000Y-9565000I0J100000D01*
G01*
X1150000Y-9130000D01*
G75*
G02*
X1250000Y-9030000I100000J0D01*
G01*
X1450000Y-9030000D01*
G75*
G02*
X1550000Y-9130000I0J-100000D01*
G01*
X1550000Y-9565000D01*
G75*
G02*
X1450000Y-9665000I-100000J0D01*
G01*
G37*
G36*
G01*
X1450000Y-8850000D02*
X1250000Y-8850000D01*
G75*
G02*
X1150000Y-8750000I0J100000D01*
G01*
X1150000Y-8315000D01*
G75*
G02*
X1250000Y-8215000I100000J0D01*
G01*
X1450000Y-8215000D01*
G75*
G02*
X1550000Y-8315000I0J-100000D01*
G01*
X1550000Y-8750000D01*
G75*
G02*
X1450000Y-8850000I-100000J0D01*
G01*
G37*
G36*
X8500446Y4676795D02*
G01*
X8750446Y4243783D01*
X8317434Y3993783D01*
X8067434Y4426795D01*
X8500446Y4676795D01*
G37*
G36*
X8050446Y5456217D02*
G01*
X8300446Y5023205D01*
X7867434Y4773205D01*
X7617434Y5206217D01*
X8050446Y5456217D01*
G37*
G36*
X7271024Y5006217D02*
G01*
X7521024Y4573205D01*
X7088012Y4323205D01*
X6838012Y4756217D01*
X7271024Y5006217D01*
G37*
G36*
X7721024Y4226795D02*
G01*
X7971024Y3793783D01*
X7538012Y3543783D01*
X7288012Y3976795D01*
X7721024Y4226795D01*
G37*
G36*
G01*
X8425000Y1250000D02*
X8425000Y1450000D01*
G75*
G02*
X8525000Y1550000I100000J0D01*
G01*
X8960000Y1550000D01*
G75*
G02*
X9060000Y1450000I0J-100000D01*
G01*
X9060000Y1250000D01*
G75*
G02*
X8960000Y1150000I-100000J0D01*
G01*
X8525000Y1150000D01*
G75*
G02*
X8425000Y1250000I0J100000D01*
G01*
G37*
G36*
G01*
X9240000Y1250000D02*
X9240000Y1450000D01*
G75*
G02*
X9340000Y1550000I100000J0D01*
G01*
X9775000Y1550000D01*
G75*
G02*
X9875000Y1450000I0J-100000D01*
G01*
X9875000Y1250000D01*
G75*
G02*
X9775000Y1150000I-100000J0D01*
G01*
X9340000Y1150000D01*
G75*
G02*
X9240000Y1250000I0J100000D01*
G01*
G37*
G36*
G01*
X7645136Y6088237D02*
X7745136Y5915031D01*
G75*
G02*
X7708533Y5778428I-86603J-50000D01*
G01*
X7331811Y5560928D01*
G75*
G02*
X7195208Y5597531I-50000J86603D01*
G01*
X7095208Y5770737D01*
G75*
G02*
X7131811Y5907340I86603J50000D01*
G01*
X7508533Y6124840D01*
G75*
G02*
X7645136Y6088237I50000J-86603D01*
G01*
G37*
G36*
G01*
X6939326Y5680737D02*
X7039326Y5507531D01*
G75*
G02*
X7002723Y5370928I-86603J-50000D01*
G01*
X6626001Y5153428D01*
G75*
G02*
X6489398Y5190031I-50000J86603D01*
G01*
X6389398Y5363237D01*
G75*
G02*
X6426001Y5499840I86603J50000D01*
G01*
X6802723Y5717340D01*
G75*
G02*
X6939326Y5680737I50000J-86603D01*
G01*
G37*
G36*
X-4676795Y8500446D02*
G01*
X-4243783Y8750446D01*
X-3993783Y8317434D01*
X-4426795Y8067434D01*
X-4676795Y8500446D01*
G37*
G36*
X-5456217Y8050446D02*
G01*
X-5023205Y8300446D01*
X-4773205Y7867434D01*
X-5206217Y7617434D01*
X-5456217Y8050446D01*
G37*
G36*
X-5006217Y7271024D02*
G01*
X-4573205Y7521024D01*
X-4323205Y7088012D01*
X-4756217Y6838012D01*
X-5006217Y7271024D01*
G37*
G36*
X-4226795Y7721024D02*
G01*
X-3793783Y7971024D01*
X-3543783Y7538012D01*
X-3976795Y7288012D01*
X-4226795Y7721024D01*
G37*
G36*
G01*
X9095136Y-3576763D02*
X8995136Y-3749969D01*
G75*
G02*
X8858533Y-3786572I-86603J50000D01*
G01*
X8481811Y-3569072D01*
G75*
G02*
X8445208Y-3432469I50000J86603D01*
G01*
X8545208Y-3259263D01*
G75*
G02*
X8681811Y-3222660I86603J-50000D01*
G01*
X9058533Y-3440160D01*
G75*
G02*
X9095136Y-3576763I-50000J-86603D01*
G01*
G37*
G36*
G01*
X8389326Y-3169263D02*
X8289326Y-3342469D01*
G75*
G02*
X8152723Y-3379072I-86603J50000D01*
G01*
X7776001Y-3161572D01*
G75*
G02*
X7739398Y-3024969I50000J86603D01*
G01*
X7839398Y-2851763D01*
G75*
G02*
X7976001Y-2815160I86603J-50000D01*
G01*
X8352723Y-3032660D01*
G75*
G02*
X8389326Y-3169263I-50000J-86603D01*
G01*
G37*
G36*
X-5023205Y-8300446D02*
G01*
X-5456217Y-8050446D01*
X-5206217Y-7617434D01*
X-4773205Y-7867434D01*
X-5023205Y-8300446D01*
G37*
G36*
X-4243783Y-8750446D02*
G01*
X-4676795Y-8500446D01*
X-4426795Y-8067434D01*
X-3993783Y-8317434D01*
X-4243783Y-8750446D01*
G37*
G36*
X-3793783Y-7971024D02*
G01*
X-4226795Y-7721024D01*
X-3976795Y-7288012D01*
X-3543783Y-7538012D01*
X-3793783Y-7971024D01*
G37*
G36*
X-4573205Y-7521024D02*
G01*
X-5006217Y-7271024D01*
X-4756217Y-6838012D01*
X-4323205Y-7088012D01*
X-4573205Y-7521024D01*
G37*
G36*
X5023205Y8300446D02*
G01*
X5456217Y8050446D01*
X5206217Y7617434D01*
X4773205Y7867434D01*
X5023205Y8300446D01*
G37*
G36*
X4243783Y8750446D02*
G01*
X4676795Y8500446D01*
X4426795Y8067434D01*
X3993783Y8317434D01*
X4243783Y8750446D01*
G37*
G36*
X3793783Y7971024D02*
G01*
X4226795Y7721024D01*
X3976795Y7288012D01*
X3543783Y7538012D01*
X3793783Y7971024D01*
G37*
G36*
X4573205Y7521024D02*
G01*
X5006217Y7271024D01*
X4756217Y6838012D01*
X4323205Y7088012D01*
X4573205Y7521024D01*
G37*
G36*
G01*
X9635000Y-1580000D02*
X9635000Y-1780000D01*
G75*
G02*
X9535000Y-1880000I-100000J0D01*
G01*
X9100000Y-1880000D01*
G75*
G02*
X9000000Y-1780000I0J100000D01*
G01*
X9000000Y-1580000D01*
G75*
G02*
X9100000Y-1480000I100000J0D01*
G01*
X9535000Y-1480000D01*
G75*
G02*
X9635000Y-1580000I0J-100000D01*
G01*
G37*
G36*
G01*
X8820000Y-1580000D02*
X8820000Y-1780000D01*
G75*
G02*
X8720000Y-1880000I-100000J0D01*
G01*
X8285000Y-1880000D01*
G75*
G02*
X8185000Y-1780000I0J100000D01*
G01*
X8185000Y-1580000D01*
G75*
G02*
X8285000Y-1480000I100000J0D01*
G01*
X8720000Y-1480000D01*
G75*
G02*
X8820000Y-1580000I0J-100000D01*
G01*
G37*
X-10000000Y-10000000D03*
G36*
G01*
X3576763Y9095136D02*
X3749969Y8995136D01*
G75*
G02*
X3786572Y8858533I-50000J-86603D01*
G01*
X3569072Y8481811D01*
G75*
G02*
X3432469Y8445208I-86603J50000D01*
G01*
X3259263Y8545208D01*
G75*
G02*
X3222660Y8681811I50000J86603D01*
G01*
X3440160Y9058533D01*
G75*
G02*
X3576763Y9095136I86603J-50000D01*
G01*
G37*
G36*
G01*
X3169263Y8389326D02*
X3342469Y8289326D01*
G75*
G02*
X3379072Y8152723I-50000J-86603D01*
G01*
X3161572Y7776001D01*
G75*
G02*
X3024969Y7739398I-86603J50000D01*
G01*
X2851763Y7839398D01*
G75*
G02*
X2815160Y7976001I50000J86603D01*
G01*
X3032660Y8352723D01*
G75*
G02*
X3169263Y8389326I86603J-50000D01*
G01*
G37*
M02*
