G04 #@! TF.GenerationSoftware,KiCad,Pcbnew,7.0.5.1-1-g8f565ef7f0-dirty-deb11*
G04 #@! TF.CreationDate,2023-06-03T08:19:13+00:00*
G04 #@! TF.ProjectId,pedalboard-led-ring,70656461-6c62-46f6-9172-642d6c65642d,1.0.0*
G04 #@! TF.SameCoordinates,Original*
G04 #@! TF.FileFunction,Copper,L2,Bot*
G04 #@! TF.FilePolarity,Positive*
%FSLAX46Y46*%
G04 Gerber Fmt 4.6, Leading zero omitted, Abs format (unit mm)*
G04 Created by KiCad (PCBNEW 7.0.5.1-1-g8f565ef7f0-dirty-deb11) date 2023-06-03 08:19:13*
%MOMM*%
%LPD*%
G01*
G04 APERTURE LIST*
G04 #@! TA.AperFunction,SMDPad,CuDef*
%ADD10R,1.000000X2.750000*%
G04 #@! TD*
G04 #@! TA.AperFunction,SMDPad,CuDef*
%ADD11R,2.750000X1.000000*%
G04 #@! TD*
G04 #@! TA.AperFunction,ViaPad*
%ADD12C,0.800000*%
G04 #@! TD*
G04 #@! TA.AperFunction,Conductor*
%ADD13C,0.250000*%
G04 #@! TD*
G04 APERTURE END LIST*
D10*
X11000000Y3125000D03*
X11000000Y-3125000D03*
X9000000Y3125000D03*
X9000000Y-3125000D03*
D11*
X13125000Y-11000000D03*
X6875000Y-11000000D03*
X13125000Y-9000000D03*
X6875000Y-9000000D03*
D12*
X6800000Y-3600000D03*
X-6000000Y8000000D03*
X9928203Y1196152D03*
X-9928203Y-1196152D03*
X-3928203Y-9196152D03*
X1196152Y-9928203D03*
X3928203Y9196152D03*
X-8000000Y-6000000D03*
X6400000Y-7700000D03*
X-9196152Y3928203D03*
X8000000Y6000000D03*
X8500000Y-6000000D03*
X-1196152Y9928203D03*
X12000000Y-2100000D03*
X5900000Y-12000000D03*
X12000000Y-3100000D03*
X12000000Y-4100000D03*
X7900000Y-12000000D03*
X6900000Y-12000000D03*
X7910000Y-1820000D03*
D13*
X4800000Y-7100000D02*
X6800000Y-5100000D01*
X9000000Y-3125000D02*
X8125000Y-4000000D01*
X5400000Y-9000000D02*
X4800000Y-8400000D01*
X6875000Y-9000000D02*
X5400000Y-9000000D01*
X4800000Y-8400000D02*
X4800000Y-7100000D01*
X7200000Y-4000000D02*
X6800000Y-3600000D01*
X8125000Y-4000000D02*
X7200000Y-4000000D01*
X6800000Y-5100000D02*
X6800000Y-3600000D01*
X6875000Y-11000000D02*
X6875000Y-11975000D01*
X11000000Y-3125000D02*
X11975000Y-3125000D01*
X11000000Y-3100000D02*
X12000000Y-2100000D01*
X6875000Y-11975000D02*
X6900000Y-12000000D01*
X6900000Y-11000000D02*
X7900000Y-12000000D01*
X6875000Y-11025000D02*
X5900000Y-12000000D01*
X11025000Y-3125000D02*
X12000000Y-4100000D01*
X11975000Y-3125000D02*
X12000000Y-3100000D01*
X8000000Y3000000D02*
X8000000Y-1730000D01*
X12800000Y-1300000D02*
X12800000Y-8675000D01*
X8430000Y-1300000D02*
X12800000Y-1300000D01*
X8000000Y-1730000D02*
X7910000Y-1820000D01*
X9000000Y3125000D02*
X8125000Y3125000D01*
X8125000Y3125000D02*
X8000000Y3000000D01*
X7910000Y-1820000D02*
X8430000Y-1300000D01*
G04 #@! TA.AperFunction,Conductor*
G36*
X14002697Y14999264D02*
G01*
X14045491Y14995520D01*
X14171776Y14983082D01*
X14191685Y14979459D01*
X14257426Y14961844D01*
X14259208Y14961336D01*
X14351570Y14933318D01*
X14367959Y14927048D01*
X14435396Y14895601D01*
X14438375Y14894112D01*
X14475969Y14874018D01*
X14522327Y14849238D01*
X14528667Y14845343D01*
X14594828Y14799017D01*
X14598600Y14796156D01*
X14670808Y14736897D01*
X14675309Y14732818D01*
X14732815Y14675312D01*
X14736895Y14670810D01*
X14796154Y14598602D01*
X14799015Y14594830D01*
X14845341Y14528669D01*
X14849236Y14522329D01*
X14894101Y14438395D01*
X14895613Y14435370D01*
X14927041Y14367973D01*
X14933319Y14351564D01*
X14961303Y14259316D01*
X14961860Y14257364D01*
X14979454Y14191702D01*
X14983082Y14171762D01*
X14995522Y14045448D01*
X14999264Y14002700D01*
X14999500Y13997291D01*
X14999500Y-10001622D01*
X14979815Y-10068661D01*
X14927011Y-10114416D01*
X14857853Y-10124360D01*
X14801189Y-10100889D01*
X14742089Y-10056647D01*
X14742086Y-10056645D01*
X14607379Y-10006403D01*
X14607372Y-10006401D01*
X14547844Y-10000000D01*
X13375000Y-10000000D01*
X13375000Y-12000000D01*
X14547828Y-12000000D01*
X14547844Y-11999999D01*
X14607372Y-11993598D01*
X14607379Y-11993596D01*
X14742086Y-11943354D01*
X14742089Y-11943352D01*
X14801188Y-11899111D01*
X14866652Y-11874693D01*
X14934926Y-11889544D01*
X14984331Y-11938949D01*
X14999500Y-11998377D01*
X14999500Y-13997290D01*
X14999264Y-14002699D01*
X14995522Y-14045446D01*
X14983082Y-14171760D01*
X14979454Y-14191700D01*
X14961860Y-14257362D01*
X14961303Y-14259314D01*
X14933319Y-14351562D01*
X14927041Y-14367971D01*
X14895613Y-14435368D01*
X14894101Y-14438393D01*
X14849236Y-14522327D01*
X14845341Y-14528667D01*
X14799015Y-14594828D01*
X14796154Y-14598600D01*
X14736895Y-14670808D01*
X14732806Y-14675320D01*
X14675320Y-14732806D01*
X14670808Y-14736895D01*
X14598600Y-14796154D01*
X14594828Y-14799015D01*
X14528667Y-14845341D01*
X14522327Y-14849236D01*
X14438393Y-14894101D01*
X14435368Y-14895613D01*
X14367971Y-14927041D01*
X14351562Y-14933319D01*
X14259314Y-14961303D01*
X14257362Y-14961860D01*
X14191700Y-14979454D01*
X14171760Y-14983082D01*
X14045446Y-14995522D01*
X14007251Y-14998865D01*
X14002694Y-14999264D01*
X13997291Y-14999500D01*
X-13997291Y-14999500D01*
X-14002695Y-14999264D01*
X-14007663Y-14998829D01*
X-14045448Y-14995522D01*
X-14171762Y-14983082D01*
X-14191702Y-14979454D01*
X-14257364Y-14961860D01*
X-14259289Y-14961310D01*
X-14296887Y-14949905D01*
X-14351564Y-14933319D01*
X-14367973Y-14927041D01*
X-14435370Y-14895613D01*
X-14438395Y-14894101D01*
X-14522329Y-14849236D01*
X-14528669Y-14845341D01*
X-14594830Y-14799015D01*
X-14598602Y-14796154D01*
X-14670810Y-14736895D01*
X-14675312Y-14732815D01*
X-14732818Y-14675309D01*
X-14736897Y-14670808D01*
X-14796156Y-14598600D01*
X-14799017Y-14594828D01*
X-14845343Y-14528667D01*
X-14849238Y-14522327D01*
X-14874018Y-14475969D01*
X-14894112Y-14438375D01*
X-14895601Y-14435396D01*
X-14927048Y-14367959D01*
X-14933318Y-14351570D01*
X-14961336Y-14259208D01*
X-14961844Y-14257426D01*
X-14979459Y-14191685D01*
X-14983082Y-14171776D01*
X-14995524Y-14045446D01*
X-14999264Y-14002696D01*
X-14999500Y-13997291D01*
X-14999500Y-12000000D01*
X-13355659Y-12000000D01*
X-13335064Y-12235403D01*
X-13335062Y-12235413D01*
X-13273906Y-12463655D01*
X-13273904Y-12463659D01*
X-13273903Y-12463663D01*
X-13223970Y-12570746D01*
X-13174036Y-12677828D01*
X-13174035Y-12677830D01*
X-13038495Y-12871402D01*
X-12871403Y-13038494D01*
X-12677831Y-13174034D01*
X-12677829Y-13174035D01*
X-12463663Y-13273903D01*
X-12235408Y-13335063D01*
X-12058968Y-13350499D01*
X-12058967Y-13350500D01*
X-12058966Y-13350500D01*
X-11941033Y-13350500D01*
X-11941033Y-13350499D01*
X-11764592Y-13335063D01*
X-11536337Y-13273903D01*
X-11322171Y-13174035D01*
X-11128599Y-13038495D01*
X-10961505Y-12871401D01*
X-10825965Y-12677830D01*
X-10726097Y-12463663D01*
X-10664937Y-12235408D01*
X-10644341Y-12000000D01*
X5244722Y-12000000D01*
X5263762Y-12156818D01*
X5293566Y-12235403D01*
X5319780Y-12304523D01*
X5409517Y-12434530D01*
X5527760Y-12539283D01*
X5527762Y-12539284D01*
X5667634Y-12612696D01*
X5821014Y-12650500D01*
X5821015Y-12650500D01*
X5978985Y-12650500D01*
X6132365Y-12612696D01*
X6272237Y-12539285D01*
X6272238Y-12539283D01*
X6272240Y-12539283D01*
X6317774Y-12498943D01*
X6381006Y-12469223D01*
X6450270Y-12478407D01*
X6482224Y-12498942D01*
X6516890Y-12529653D01*
X6527762Y-12539285D01*
X6667634Y-12612696D01*
X6821014Y-12650500D01*
X6821015Y-12650500D01*
X6978985Y-12650500D01*
X7132365Y-12612696D01*
X7272237Y-12539285D01*
X7272238Y-12539283D01*
X7272240Y-12539283D01*
X7317774Y-12498943D01*
X7381006Y-12469223D01*
X7450270Y-12478407D01*
X7482224Y-12498942D01*
X7516890Y-12529653D01*
X7527762Y-12539285D01*
X7667634Y-12612696D01*
X7821014Y-12650500D01*
X7821015Y-12650500D01*
X7978985Y-12650500D01*
X8132365Y-12612696D01*
X8132364Y-12612695D01*
X8272240Y-12539283D01*
X8390483Y-12434530D01*
X8480220Y-12304523D01*
X8536237Y-12156818D01*
X8555278Y-12000000D01*
X8554500Y-11993596D01*
X8536237Y-11843182D01*
X8506433Y-11764596D01*
X8481055Y-11697680D01*
X8475689Y-11628020D01*
X8482438Y-11606256D01*
X8485963Y-11597744D01*
X8485966Y-11597740D01*
X8500500Y-11524674D01*
X8500500Y-11250000D01*
X11250000Y-11250000D01*
X11250000Y-11547844D01*
X11256401Y-11607372D01*
X11256403Y-11607379D01*
X11306645Y-11742086D01*
X11306649Y-11742093D01*
X11392809Y-11857187D01*
X11392812Y-11857190D01*
X11507906Y-11943350D01*
X11507913Y-11943354D01*
X11642620Y-11993596D01*
X11642627Y-11993598D01*
X11702155Y-11999999D01*
X11702172Y-12000000D01*
X12875000Y-12000000D01*
X12875000Y-11250000D01*
X11250000Y-11250000D01*
X8500500Y-11250000D01*
X8500500Y-10750000D01*
X11250000Y-10750000D01*
X12875000Y-10750000D01*
X12875000Y-10000000D01*
X11702155Y-10000000D01*
X11642627Y-10006401D01*
X11642620Y-10006403D01*
X11507913Y-10056645D01*
X11507906Y-10056649D01*
X11392812Y-10142809D01*
X11392809Y-10142812D01*
X11306649Y-10257906D01*
X11306645Y-10257913D01*
X11256403Y-10392620D01*
X11256401Y-10392627D01*
X11250000Y-10452155D01*
X11250000Y-10750000D01*
X8500500Y-10750000D01*
X8500500Y-10475326D01*
X8500500Y-10475323D01*
X8500499Y-10475321D01*
X8485967Y-10402264D01*
X8485966Y-10402260D01*
X8485965Y-10402259D01*
X8430601Y-10319399D01*
X8347740Y-10264034D01*
X8347739Y-10264033D01*
X8347735Y-10264032D01*
X8274677Y-10249500D01*
X8274674Y-10249500D01*
X5475326Y-10249500D01*
X5475323Y-10249500D01*
X5402264Y-10264032D01*
X5402260Y-10264033D01*
X5319399Y-10319399D01*
X5264033Y-10402260D01*
X5264032Y-10402264D01*
X5249500Y-10475321D01*
X5249500Y-11524678D01*
X5264032Y-11597735D01*
X5264033Y-11597739D01*
X5287746Y-11633228D01*
X5308623Y-11699906D01*
X5300585Y-11746089D01*
X5263763Y-11843181D01*
X5244722Y-11999999D01*
X5244722Y-12000000D01*
X-10644341Y-12000000D01*
X-10664937Y-11764592D01*
X-10726097Y-11536337D01*
X-10825965Y-11322171D01*
X-10825966Y-11322169D01*
X-10961506Y-11128597D01*
X-11128598Y-10961505D01*
X-11322170Y-10825965D01*
X-11322172Y-10825964D01*
X-11429254Y-10776030D01*
X-11536337Y-10726097D01*
X-11536341Y-10726096D01*
X-11536345Y-10726094D01*
X-11764587Y-10664938D01*
X-11764597Y-10664936D01*
X-11941033Y-10649500D01*
X-11941034Y-10649500D01*
X-12058966Y-10649500D01*
X-12058967Y-10649500D01*
X-12235404Y-10664936D01*
X-12235414Y-10664938D01*
X-12463656Y-10726094D01*
X-12463665Y-10726098D01*
X-12677829Y-10825964D01*
X-12677831Y-10825965D01*
X-12871403Y-10961505D01*
X-13038494Y-11128597D01*
X-13038499Y-11128604D01*
X-13174033Y-11322165D01*
X-13174035Y-11322169D01*
X-13273902Y-11536335D01*
X-13273906Y-11536344D01*
X-13335062Y-11764586D01*
X-13335064Y-11764596D01*
X-13355659Y-11999999D01*
X-13355659Y-12000000D01*
X-14999500Y-12000000D01*
X-14999500Y-8384271D01*
X4419633Y-8384271D01*
X4424023Y-8419491D01*
X4424500Y-8427167D01*
X4424500Y-8431116D01*
X4428129Y-8452865D01*
X4428498Y-8455399D01*
X4435134Y-8508626D01*
X4437373Y-8516147D01*
X4439935Y-8523611D01*
X4452677Y-8547157D01*
X4465447Y-8570754D01*
X4466609Y-8573011D01*
X4490172Y-8621208D01*
X4494742Y-8627609D01*
X4499581Y-8633826D01*
X4539053Y-8670163D01*
X4540874Y-8671911D01*
X5097849Y-9228886D01*
X5113977Y-9248745D01*
X5119916Y-9257836D01*
X5147932Y-9279641D01*
X5153693Y-9284730D01*
X5156482Y-9287519D01*
X5174432Y-9300335D01*
X5176488Y-9301867D01*
X5201663Y-9321462D01*
X5242476Y-9378173D01*
X5249500Y-9419315D01*
X5249500Y-9524678D01*
X5264032Y-9597735D01*
X5264033Y-9597739D01*
X5264034Y-9597740D01*
X5319399Y-9680601D01*
X5402260Y-9735966D01*
X5402264Y-9735967D01*
X5475321Y-9750499D01*
X5475324Y-9750500D01*
X5475326Y-9750500D01*
X8274676Y-9750500D01*
X8274677Y-9750499D01*
X8347740Y-9735966D01*
X8430601Y-9680601D01*
X8485966Y-9597740D01*
X8500500Y-9524674D01*
X8500500Y-8475326D01*
X8500500Y-8475325D01*
X8500500Y-8475323D01*
X8500499Y-8475321D01*
X8485967Y-8402264D01*
X8485966Y-8402260D01*
X8466843Y-8373640D01*
X8430601Y-8319399D01*
X8347740Y-8264034D01*
X8347739Y-8264033D01*
X8347735Y-8264032D01*
X8274677Y-8249500D01*
X8274674Y-8249500D01*
X5475326Y-8249500D01*
X5475323Y-8249500D01*
X5402264Y-8264032D01*
X5402258Y-8264034D01*
X5368388Y-8286665D01*
X5301710Y-8307541D01*
X5234331Y-8289055D01*
X5187642Y-8237075D01*
X5175500Y-8183561D01*
X5175500Y-8125500D01*
X5175500Y-7306894D01*
X5195183Y-7239859D01*
X5211809Y-7219227D01*
X7028889Y-5402146D01*
X7048746Y-5386022D01*
X7057836Y-5380084D01*
X7079638Y-5352071D01*
X7084733Y-5346303D01*
X7087519Y-5343518D01*
X7100372Y-5325514D01*
X7101843Y-5323541D01*
X7134809Y-5281189D01*
X7134810Y-5281183D01*
X7138547Y-5274280D01*
X7142006Y-5267203D01*
X7142010Y-5267199D01*
X7157319Y-5215772D01*
X7158073Y-5213419D01*
X7175500Y-5162660D01*
X7175500Y-5162656D01*
X7176790Y-5154924D01*
X7177768Y-5147085D01*
X7175553Y-5093527D01*
X7175500Y-5090964D01*
X7175500Y-4499500D01*
X7195185Y-4432461D01*
X7247989Y-4386706D01*
X7299500Y-4375500D01*
X8073196Y-4375500D01*
X8098641Y-4378139D01*
X8101724Y-4378785D01*
X8109268Y-4380367D01*
X8110157Y-4380256D01*
X8111371Y-4380453D01*
X8119538Y-4380792D01*
X8119497Y-4381778D01*
X8179117Y-4391494D01*
X8231054Y-4438231D01*
X8249500Y-4503303D01*
X8249500Y-4524678D01*
X8264032Y-4597735D01*
X8264033Y-4597739D01*
X8264034Y-4597740D01*
X8319399Y-4680601D01*
X8392303Y-4729313D01*
X8402260Y-4735966D01*
X8402264Y-4735967D01*
X8475321Y-4750499D01*
X8475324Y-4750500D01*
X8475326Y-4750500D01*
X9524676Y-4750500D01*
X9524677Y-4750499D01*
X9597740Y-4735966D01*
X9680601Y-4680601D01*
X9735966Y-4597740D01*
X9750500Y-4524674D01*
X9750500Y-1799500D01*
X9770185Y-1732461D01*
X9822989Y-1686706D01*
X9874500Y-1675500D01*
X10125500Y-1675500D01*
X10192539Y-1695185D01*
X10238294Y-1747989D01*
X10249500Y-1799500D01*
X10249500Y-4524678D01*
X10264032Y-4597735D01*
X10264033Y-4597739D01*
X10264034Y-4597740D01*
X10319399Y-4680601D01*
X10392303Y-4729313D01*
X10402260Y-4735966D01*
X10402264Y-4735967D01*
X10475321Y-4750499D01*
X10475324Y-4750500D01*
X10475326Y-4750500D01*
X11524676Y-4750500D01*
X11524677Y-4750499D01*
X11597740Y-4735966D01*
X11630719Y-4713930D01*
X11697394Y-4693053D01*
X11757234Y-4707237D01*
X11767635Y-4712696D01*
X11862043Y-4735965D01*
X11921014Y-4750500D01*
X11921015Y-4750500D01*
X12078985Y-4750500D01*
X12232365Y-4712696D01*
X12242872Y-4707181D01*
X12311377Y-4693454D01*
X12376431Y-4718943D01*
X12417378Y-4775557D01*
X12424500Y-4816976D01*
X12424500Y-8125500D01*
X12404815Y-8192539D01*
X12352011Y-8238294D01*
X12300500Y-8249500D01*
X11725323Y-8249500D01*
X11652264Y-8264032D01*
X11652260Y-8264033D01*
X11569399Y-8319399D01*
X11514033Y-8402260D01*
X11514032Y-8402264D01*
X11499500Y-8475321D01*
X11499500Y-9524678D01*
X11514032Y-9597735D01*
X11514033Y-9597739D01*
X11514034Y-9597740D01*
X11569399Y-9680601D01*
X11652259Y-9735966D01*
X11652260Y-9735966D01*
X11652264Y-9735967D01*
X11725321Y-9750499D01*
X11725324Y-9750500D01*
X11725326Y-9750500D01*
X14524676Y-9750500D01*
X14524677Y-9750499D01*
X14597740Y-9735966D01*
X14680601Y-9680601D01*
X14735966Y-9597740D01*
X14750500Y-9524674D01*
X14750500Y-8475326D01*
X14750500Y-8475325D01*
X14750500Y-8475323D01*
X14750499Y-8475321D01*
X14735967Y-8402264D01*
X14735966Y-8402260D01*
X14716843Y-8373640D01*
X14680601Y-8319399D01*
X14597740Y-8264034D01*
X14597739Y-8264033D01*
X14597735Y-8264032D01*
X14524677Y-8249500D01*
X14524674Y-8249500D01*
X13299500Y-8249500D01*
X13232461Y-8229815D01*
X13186706Y-8177011D01*
X13175500Y-8125500D01*
X13175500Y-1318090D01*
X13175712Y-1312968D01*
X13179392Y-1268563D01*
X13168449Y-1225352D01*
X13167401Y-1220357D01*
X13160065Y-1176390D01*
X13159874Y-1176038D01*
X13148726Y-1147463D01*
X13148628Y-1147079D01*
X13148628Y-1147078D01*
X13124252Y-1109768D01*
X13121627Y-1105364D01*
X13100419Y-1066174D01*
X13100129Y-1065907D01*
X13080297Y-1042491D01*
X13080084Y-1042164D01*
X13080082Y-1042162D01*
X13044913Y-1014789D01*
X13041006Y-1011480D01*
X13030215Y-1001546D01*
X13008217Y-981294D01*
X13007848Y-981133D01*
X12981505Y-965437D01*
X12981189Y-965191D01*
X12939038Y-950720D01*
X12934263Y-948857D01*
X12893458Y-930958D01*
X12893446Y-930955D01*
X12893044Y-930922D01*
X12863042Y-924631D01*
X12862660Y-924500D01*
X12818091Y-924500D01*
X12812976Y-924288D01*
X12803881Y-923534D01*
X12768565Y-920607D01*
X12768373Y-920655D01*
X12768174Y-920706D01*
X12737737Y-924500D01*
X8499500Y-924500D01*
X8432461Y-904815D01*
X8386706Y-852011D01*
X8375500Y-800500D01*
X8375500Y1375500D01*
X8395185Y1442539D01*
X8447989Y1488294D01*
X8499500Y1499500D01*
X9524676Y1499500D01*
X9524677Y1499501D01*
X9597740Y1514034D01*
X9680601Y1569399D01*
X9735966Y1652260D01*
X9750500Y1725326D01*
X9750500Y2875000D01*
X10000000Y2875000D01*
X10000000Y1702156D01*
X10006401Y1642628D01*
X10006403Y1642621D01*
X10056645Y1507914D01*
X10056649Y1507907D01*
X10142809Y1392813D01*
X10142812Y1392810D01*
X10257906Y1306650D01*
X10257913Y1306646D01*
X10392620Y1256404D01*
X10392627Y1256402D01*
X10452155Y1250001D01*
X10452172Y1250000D01*
X10750000Y1250000D01*
X10750000Y2875000D01*
X11250000Y2875000D01*
X11250000Y1250000D01*
X11547828Y1250000D01*
X11547844Y1250001D01*
X11607372Y1256402D01*
X11607379Y1256404D01*
X11742086Y1306646D01*
X11742093Y1306650D01*
X11857187Y1392810D01*
X11857190Y1392813D01*
X11943350Y1507907D01*
X11943354Y1507914D01*
X11993596Y1642621D01*
X11993598Y1642628D01*
X11999999Y1702156D01*
X12000000Y1702173D01*
X12000000Y2875000D01*
X11250000Y2875000D01*
X10750000Y2875000D01*
X10000000Y2875000D01*
X9750500Y2875000D01*
X9750500Y3375000D01*
X10000000Y3375000D01*
X10750000Y3375000D01*
X10750000Y5000000D01*
X11250000Y5000000D01*
X11250000Y3375000D01*
X12000000Y3375000D01*
X12000000Y4547828D01*
X11999999Y4547845D01*
X11993598Y4607373D01*
X11993596Y4607380D01*
X11943354Y4742087D01*
X11943350Y4742094D01*
X11857190Y4857188D01*
X11857187Y4857191D01*
X11742093Y4943351D01*
X11742086Y4943355D01*
X11607379Y4993597D01*
X11607372Y4993599D01*
X11547844Y5000000D01*
X11250000Y5000000D01*
X10750000Y5000000D01*
X10452155Y5000000D01*
X10392627Y4993599D01*
X10392620Y4993597D01*
X10257913Y4943355D01*
X10257906Y4943351D01*
X10142812Y4857191D01*
X10142809Y4857188D01*
X10056649Y4742094D01*
X10056645Y4742087D01*
X10006403Y4607380D01*
X10006401Y4607373D01*
X10000000Y4547845D01*
X10000000Y3375000D01*
X9750500Y3375000D01*
X9750500Y4524674D01*
X9750500Y4524677D01*
X9750499Y4524679D01*
X9735967Y4597736D01*
X9735966Y4597740D01*
X9735965Y4597741D01*
X9680601Y4680601D01*
X9597740Y4735966D01*
X9597739Y4735967D01*
X9597735Y4735968D01*
X9524677Y4750500D01*
X9524674Y4750500D01*
X8475326Y4750500D01*
X8475323Y4750500D01*
X8402264Y4735968D01*
X8402260Y4735967D01*
X8319399Y4680601D01*
X8264033Y4597740D01*
X8264032Y4597736D01*
X8249500Y4524679D01*
X8249500Y3628429D01*
X8229815Y3561390D01*
X8177011Y3515635D01*
X8140840Y3505382D01*
X8105509Y3500977D01*
X8097831Y3500500D01*
X8093886Y3500500D01*
X8072126Y3496870D01*
X8069603Y3496502D01*
X8016371Y3489866D01*
X8008857Y3487629D01*
X8001387Y3485065D01*
X7954246Y3459553D01*
X7951970Y3458382D01*
X7903792Y3434829D01*
X7897382Y3430252D01*
X7891175Y3425420D01*
X7854865Y3385980D01*
X7853093Y3384132D01*
X7771108Y3302148D01*
X7751254Y3286024D01*
X7742165Y3280086D01*
X7742164Y3280085D01*
X7720363Y3252077D01*
X7715286Y3246326D01*
X7712484Y3243523D01*
X7712474Y3243511D01*
X7699658Y3225561D01*
X7698127Y3223508D01*
X7665192Y3181192D01*
X7661447Y3174271D01*
X7657988Y3167196D01*
X7642692Y3115818D01*
X7641911Y3113379D01*
X7624500Y3062662D01*
X7623206Y3054908D01*
X7622231Y3047089D01*
X7624447Y2993528D01*
X7624500Y2990966D01*
X7624500Y-1160231D01*
X7604815Y-1227270D01*
X7558129Y-1270026D01*
X7537760Y-1280716D01*
X7537760Y-1280717D01*
X7419516Y-1385471D01*
X7329781Y-1515475D01*
X7329780Y-1515476D01*
X7273762Y-1663181D01*
X7254722Y-1819999D01*
X7254722Y-1820000D01*
X7273762Y-1976818D01*
X7329779Y-2124523D01*
X7329780Y-2124523D01*
X7419517Y-2254530D01*
X7537760Y-2359283D01*
X7537762Y-2359284D01*
X7677634Y-2432696D01*
X7831014Y-2470500D01*
X7831015Y-2470500D01*
X7988985Y-2470500D01*
X8095827Y-2444166D01*
X8165627Y-2447235D01*
X8222689Y-2487555D01*
X8248895Y-2552324D01*
X8249500Y-2564563D01*
X8249500Y-3293100D01*
X8229815Y-3360139D01*
X8213181Y-3380781D01*
X8005781Y-3588181D01*
X7944458Y-3621666D01*
X7918100Y-3624500D01*
X7568107Y-3624500D01*
X7501068Y-3604815D01*
X7455313Y-3552011D01*
X7445011Y-3515446D01*
X7436237Y-3443182D01*
X7380220Y-3295477D01*
X7290483Y-3165470D01*
X7172240Y-3060717D01*
X7172238Y-3060716D01*
X7172237Y-3060715D01*
X7032365Y-2987303D01*
X6878986Y-2949500D01*
X6878985Y-2949500D01*
X6721015Y-2949500D01*
X6721014Y-2949500D01*
X6567634Y-2987303D01*
X6427762Y-3060715D01*
X6309516Y-3165471D01*
X6219781Y-3295475D01*
X6219780Y-3295476D01*
X6163762Y-3443181D01*
X6144722Y-3599999D01*
X6144722Y-3600000D01*
X6163762Y-3756818D01*
X6219780Y-3904523D01*
X6219781Y-3904524D01*
X6309517Y-4034531D01*
X6382726Y-4099386D01*
X6419853Y-4158574D01*
X6424500Y-4192202D01*
X6424500Y-4893099D01*
X6404815Y-4960138D01*
X6388181Y-4980780D01*
X4571108Y-6797852D01*
X4551254Y-6813976D01*
X4542165Y-6819914D01*
X4542164Y-6819915D01*
X4520363Y-6847923D01*
X4515286Y-6853674D01*
X4512484Y-6856477D01*
X4512474Y-6856489D01*
X4499658Y-6874439D01*
X4498127Y-6876492D01*
X4465192Y-6918808D01*
X4461447Y-6925729D01*
X4457988Y-6932804D01*
X4442692Y-6984182D01*
X4441911Y-6986621D01*
X4424500Y-7037338D01*
X4423206Y-7045092D01*
X4422231Y-7052911D01*
X4424447Y-7106472D01*
X4424500Y-7109034D01*
X4424500Y-8348196D01*
X4421862Y-8373634D01*
X4419633Y-8384268D01*
X4419633Y-8384269D01*
X4419633Y-8384271D01*
X-14999500Y-8384271D01*
X-14999500Y-10D01*
X-6105452Y-10D01*
X-6085656Y-491268D01*
X-6085654Y-491284D01*
X-6026388Y-979388D01*
X-5928038Y-1461136D01*
X-5791243Y-1933407D01*
X-5616886Y-2393143D01*
X-5406106Y-2837351D01*
X-5160266Y-3263158D01*
X-5160261Y-3263164D01*
X-5137957Y-3295477D01*
X-4922919Y-3607014D01*
X-4880951Y-3667814D01*
X-4570009Y-4048649D01*
X-4570000Y-4048659D01*
X-4569996Y-4048664D01*
X-4250035Y-4381778D01*
X-4229393Y-4403269D01*
X-4229388Y-4403274D01*
X-3861370Y-4729310D01*
X-3744707Y-4816976D01*
X-3468292Y-5024688D01*
X-3052726Y-5287477D01*
X-3052723Y-5287479D01*
X-3052719Y-5287481D01*
X-2903314Y-5365894D01*
X-2617362Y-5515973D01*
X-2165023Y-5708697D01*
X-1698643Y-5864397D01*
X-1221247Y-5982065D01*
X-1221233Y-5982067D01*
X-1221226Y-5982069D01*
X-772285Y-6055028D01*
X-735931Y-6060936D01*
X-245842Y-6100500D01*
X-245832Y-6100500D01*
X245832Y-6100500D01*
X245842Y-6100500D01*
X735931Y-6060936D01*
X884532Y-6036786D01*
X1221225Y-5982069D01*
X1221229Y-5982067D01*
X1221247Y-5982065D01*
X1698643Y-5864397D01*
X2165023Y-5708697D01*
X2617362Y-5515973D01*
X3052726Y-5287477D01*
X3468292Y-5024688D01*
X3861365Y-4729313D01*
X3861364Y-4729313D01*
X3861369Y-4729310D01*
X4229387Y-4403274D01*
X4229386Y-4403274D01*
X4229395Y-4403267D01*
X4569996Y-4048664D01*
X4880959Y-3667803D01*
X5160267Y-3263155D01*
X5406109Y-2837345D01*
X5616890Y-2393133D01*
X5791244Y-1933401D01*
X5928039Y-1461130D01*
X6026388Y-979383D01*
X6085654Y-491285D01*
X6085655Y-491268D01*
X6105452Y-10D01*
X6105452Y11D01*
X6085655Y491269D01*
X6085654Y491274D01*
X6085654Y491285D01*
X6026388Y979383D01*
X5928039Y1461130D01*
X5896679Y1569399D01*
X5791242Y1933408D01*
X5714261Y2136387D01*
X5616890Y2393133D01*
X5406109Y2837345D01*
X5276022Y3062662D01*
X5160265Y3263159D01*
X5160260Y3263165D01*
X5144482Y3286024D01*
X4880959Y3667803D01*
X4880954Y3667809D01*
X4880950Y3667815D01*
X4570008Y4048650D01*
X4569992Y4048668D01*
X4229392Y4403270D01*
X4229387Y4403275D01*
X3861369Y4729311D01*
X3664828Y4877001D01*
X3468292Y5024688D01*
X3052726Y5287477D01*
X3052725Y5287478D01*
X3052718Y5287482D01*
X2617356Y5515976D01*
X2439815Y5591619D01*
X2165023Y5708697D01*
X2165015Y5708700D01*
X2165012Y5708701D01*
X1934540Y5785644D01*
X1698643Y5864397D01*
X1698639Y5864398D01*
X1698632Y5864400D01*
X1515704Y5909488D01*
X1221247Y5982065D01*
X1221241Y5982066D01*
X1221237Y5982067D01*
X1221225Y5982070D01*
X735936Y6060936D01*
X245851Y6100500D01*
X245842Y6100500D01*
X-245842Y6100500D01*
X-245852Y6100500D01*
X-735937Y6060936D01*
X-1221226Y5982070D01*
X-1221238Y5982067D01*
X-1221245Y5982066D01*
X-1221247Y5982065D01*
X-1244908Y5976233D01*
X-1698633Y5864400D01*
X-1698640Y5864398D01*
X-2165013Y5708701D01*
X-2165021Y5708698D01*
X-2165023Y5708697D01*
X-2269309Y5664266D01*
X-2617357Y5515976D01*
X-3052719Y5287482D01*
X-3468287Y5024692D01*
X-3468289Y5024690D01*
X-3861370Y4729311D01*
X-4229388Y4403275D01*
X-4229393Y4403270D01*
X-4569993Y4048668D01*
X-4570009Y4048650D01*
X-4880951Y3667815D01*
X-5160261Y3263165D01*
X-5160266Y3263159D01*
X-5406106Y2837352D01*
X-5616886Y2393144D01*
X-5791243Y1933408D01*
X-5928038Y1461137D01*
X-6026388Y979389D01*
X-6085654Y491285D01*
X-6085656Y491269D01*
X-6105452Y11D01*
X-6105452Y-10D01*
X-14999500Y-10D01*
X-14999500Y12000000D01*
X-13355659Y12000000D01*
X-13335064Y11764597D01*
X-13335062Y11764587D01*
X-13273906Y11536345D01*
X-13273904Y11536341D01*
X-13273903Y11536337D01*
X-13223970Y11429254D01*
X-13174036Y11322172D01*
X-13174035Y11322170D01*
X-13038495Y11128598D01*
X-12871403Y10961506D01*
X-12677831Y10825966D01*
X-12677829Y10825965D01*
X-12463663Y10726097D01*
X-12235408Y10664937D01*
X-12058968Y10649501D01*
X-12058967Y10649500D01*
X-12058966Y10649500D01*
X-11941033Y10649500D01*
X-11941033Y10649501D01*
X-11764592Y10664937D01*
X-11536337Y10726097D01*
X-11322171Y10825965D01*
X-11128599Y10961505D01*
X-10961505Y11128599D01*
X-10825965Y11322170D01*
X-10726097Y11536337D01*
X-10664937Y11764592D01*
X-10644341Y12000000D01*
X10644341Y12000000D01*
X10664936Y11764597D01*
X10664938Y11764587D01*
X10726094Y11536345D01*
X10726096Y11536341D01*
X10726097Y11536337D01*
X10776031Y11429255D01*
X10825964Y11322172D01*
X10825965Y11322170D01*
X10961505Y11128598D01*
X11128597Y10961506D01*
X11322169Y10825966D01*
X11322171Y10825965D01*
X11536337Y10726097D01*
X11764592Y10664937D01*
X11941032Y10649501D01*
X11941033Y10649500D01*
X11941034Y10649500D01*
X12058967Y10649500D01*
X12058967Y10649501D01*
X12235408Y10664937D01*
X12463663Y10726097D01*
X12677829Y10825965D01*
X12871401Y10961505D01*
X13038495Y11128599D01*
X13174035Y11322170D01*
X13273903Y11536337D01*
X13335063Y11764592D01*
X13355659Y12000000D01*
X13335063Y12235408D01*
X13273903Y12463663D01*
X13174035Y12677829D01*
X13174034Y12677831D01*
X13038494Y12871403D01*
X12871402Y13038495D01*
X12677830Y13174035D01*
X12677828Y13174036D01*
X12570746Y13223969D01*
X12463663Y13273903D01*
X12463659Y13273904D01*
X12463655Y13273906D01*
X12235413Y13335062D01*
X12235403Y13335064D01*
X12058967Y13350500D01*
X12058966Y13350500D01*
X11941034Y13350500D01*
X11941033Y13350500D01*
X11764596Y13335064D01*
X11764586Y13335062D01*
X11536344Y13273906D01*
X11536335Y13273902D01*
X11322171Y13174036D01*
X11322169Y13174035D01*
X11128597Y13038495D01*
X10961506Y12871403D01*
X10961501Y12871396D01*
X10825967Y12677835D01*
X10825965Y12677831D01*
X10726098Y12463665D01*
X10726094Y12463656D01*
X10664938Y12235414D01*
X10664936Y12235404D01*
X10644341Y12000001D01*
X10644341Y12000000D01*
X-10644341Y12000000D01*
X-10664937Y12235408D01*
X-10726097Y12463663D01*
X-10825965Y12677829D01*
X-10825966Y12677831D01*
X-10961506Y12871403D01*
X-11128598Y13038495D01*
X-11322170Y13174035D01*
X-11322172Y13174036D01*
X-11429255Y13223969D01*
X-11536337Y13273903D01*
X-11536341Y13273904D01*
X-11536345Y13273906D01*
X-11764587Y13335062D01*
X-11764597Y13335064D01*
X-11941033Y13350500D01*
X-11941034Y13350500D01*
X-12058966Y13350500D01*
X-12058967Y13350500D01*
X-12235404Y13335064D01*
X-12235414Y13335062D01*
X-12463656Y13273906D01*
X-12463665Y13273902D01*
X-12677829Y13174036D01*
X-12677831Y13174035D01*
X-12871403Y13038495D01*
X-13038494Y12871403D01*
X-13038499Y12871396D01*
X-13174033Y12677835D01*
X-13174035Y12677831D01*
X-13273902Y12463665D01*
X-13273906Y12463656D01*
X-13335062Y12235414D01*
X-13335064Y12235404D01*
X-13355659Y12000001D01*
X-13355659Y12000000D01*
X-14999500Y12000000D01*
X-14999500Y13997296D01*
X-14999264Y14002701D01*
X-14995523Y14045468D01*
X-14983082Y14171779D01*
X-14979459Y14191686D01*
X-14961835Y14257460D01*
X-14961345Y14259178D01*
X-14933315Y14351581D01*
X-14927052Y14367951D01*
X-14895587Y14435427D01*
X-14894128Y14438347D01*
X-14849236Y14522334D01*
X-14845343Y14528669D01*
X-14812163Y14576055D01*
X-14799006Y14594845D01*
X-14796173Y14598580D01*
X-14736878Y14670832D01*
X-14732838Y14675290D01*
X-14675290Y14732838D01*
X-14670832Y14736878D01*
X-14598580Y14796173D01*
X-14594845Y14799006D01*
X-14528666Y14845346D01*
X-14522334Y14849236D01*
X-14438347Y14894128D01*
X-14435427Y14895587D01*
X-14367951Y14927052D01*
X-14351581Y14933315D01*
X-14259178Y14961345D01*
X-14257460Y14961835D01*
X-14191682Y14979460D01*
X-14171779Y14983082D01*
X-14058188Y14994269D01*
X-14045432Y14995526D01*
X-14002695Y14999265D01*
X-13997294Y14999500D01*
X13997292Y14999500D01*
X14002697Y14999264D01*
G37*
G04 #@! TD.AperFunction*
M02*
