G04 #@! TF.GenerationSoftware,KiCad,Pcbnew,7.0.5.1-1-g8f565ef7f0-dirty-deb11*
G04 #@! TF.CreationDate,2023-06-01T06:03:30+00:00*
G04 #@! TF.ProjectId,pedalboard-led-ring,70656461-6c62-46f6-9172-642d6c65642d,1.0.0*
G04 #@! TF.SameCoordinates,Original*
G04 #@! TF.FileFunction,Legend,Bot*
G04 #@! TF.FilePolarity,Positive*
%FSLAX46Y46*%
G04 Gerber Fmt 4.6, Leading zero omitted, Abs format (unit mm)*
G04 Created by KiCad (PCBNEW 7.0.5.1-1-g8f565ef7f0-dirty-deb11) date 2023-06-01 06:03:30*
%MOMM*%
%LPD*%
G01*
G04 APERTURE LIST*
%ADD10C,0.100000*%
%ADD11C,0.150000*%
%ADD12C,0.120000*%
G04 APERTURE END LIST*
D10*
X7050000Y0D02*
G75*
G03*
X7050000Y0I-7050000J0D01*
G01*
D11*
X5836781Y12350181D02*
X5836781Y13350181D01*
X5836781Y13350181D02*
X5455829Y13350181D01*
X5455829Y13350181D02*
X5360591Y13302562D01*
X5360591Y13302562D02*
X5312972Y13254943D01*
X5312972Y13254943D02*
X5265353Y13159705D01*
X5265353Y13159705D02*
X5265353Y13016848D01*
X5265353Y13016848D02*
X5312972Y12921610D01*
X5312972Y12921610D02*
X5360591Y12873991D01*
X5360591Y12873991D02*
X5455829Y12826372D01*
X5455829Y12826372D02*
X5836781Y12826372D01*
X4455829Y12397800D02*
X4551067Y12350181D01*
X4551067Y12350181D02*
X4741543Y12350181D01*
X4741543Y12350181D02*
X4836781Y12397800D01*
X4836781Y12397800D02*
X4884400Y12493039D01*
X4884400Y12493039D02*
X4884400Y12873991D01*
X4884400Y12873991D02*
X4836781Y12969229D01*
X4836781Y12969229D02*
X4741543Y13016848D01*
X4741543Y13016848D02*
X4551067Y13016848D01*
X4551067Y13016848D02*
X4455829Y12969229D01*
X4455829Y12969229D02*
X4408210Y12873991D01*
X4408210Y12873991D02*
X4408210Y12778753D01*
X4408210Y12778753D02*
X4884400Y12683515D01*
X3551067Y12350181D02*
X3551067Y13350181D01*
X3551067Y12397800D02*
X3646305Y12350181D01*
X3646305Y12350181D02*
X3836781Y12350181D01*
X3836781Y12350181D02*
X3932019Y12397800D01*
X3932019Y12397800D02*
X3979638Y12445420D01*
X3979638Y12445420D02*
X4027257Y12540658D01*
X4027257Y12540658D02*
X4027257Y12826372D01*
X4027257Y12826372D02*
X3979638Y12921610D01*
X3979638Y12921610D02*
X3932019Y12969229D01*
X3932019Y12969229D02*
X3836781Y13016848D01*
X3836781Y13016848D02*
X3646305Y13016848D01*
X3646305Y13016848D02*
X3551067Y12969229D01*
X2646305Y12350181D02*
X2646305Y12873991D01*
X2646305Y12873991D02*
X2693924Y12969229D01*
X2693924Y12969229D02*
X2789162Y13016848D01*
X2789162Y13016848D02*
X2979638Y13016848D01*
X2979638Y13016848D02*
X3074876Y12969229D01*
X2646305Y12397800D02*
X2741543Y12350181D01*
X2741543Y12350181D02*
X2979638Y12350181D01*
X2979638Y12350181D02*
X3074876Y12397800D01*
X3074876Y12397800D02*
X3122495Y12493039D01*
X3122495Y12493039D02*
X3122495Y12588277D01*
X3122495Y12588277D02*
X3074876Y12683515D01*
X3074876Y12683515D02*
X2979638Y12731134D01*
X2979638Y12731134D02*
X2741543Y12731134D01*
X2741543Y12731134D02*
X2646305Y12778753D01*
X2027257Y12350181D02*
X2122495Y12397800D01*
X2122495Y12397800D02*
X2170114Y12493039D01*
X2170114Y12493039D02*
X2170114Y13350181D01*
X1646304Y12350181D02*
X1646304Y13350181D01*
X1646304Y12969229D02*
X1551066Y13016848D01*
X1551066Y13016848D02*
X1360590Y13016848D01*
X1360590Y13016848D02*
X1265352Y12969229D01*
X1265352Y12969229D02*
X1217733Y12921610D01*
X1217733Y12921610D02*
X1170114Y12826372D01*
X1170114Y12826372D02*
X1170114Y12540658D01*
X1170114Y12540658D02*
X1217733Y12445420D01*
X1217733Y12445420D02*
X1265352Y12397800D01*
X1265352Y12397800D02*
X1360590Y12350181D01*
X1360590Y12350181D02*
X1551066Y12350181D01*
X1551066Y12350181D02*
X1646304Y12397800D01*
X598685Y12350181D02*
X693923Y12397800D01*
X693923Y12397800D02*
X741542Y12445420D01*
X741542Y12445420D02*
X789161Y12540658D01*
X789161Y12540658D02*
X789161Y12826372D01*
X789161Y12826372D02*
X741542Y12921610D01*
X741542Y12921610D02*
X693923Y12969229D01*
X693923Y12969229D02*
X598685Y13016848D01*
X598685Y13016848D02*
X455828Y13016848D01*
X455828Y13016848D02*
X360590Y12969229D01*
X360590Y12969229D02*
X312971Y12921610D01*
X312971Y12921610D02*
X265352Y12826372D01*
X265352Y12826372D02*
X265352Y12540658D01*
X265352Y12540658D02*
X312971Y12445420D01*
X312971Y12445420D02*
X360590Y12397800D01*
X360590Y12397800D02*
X455828Y12350181D01*
X455828Y12350181D02*
X598685Y12350181D01*
X-591791Y12350181D02*
X-591791Y12873991D01*
X-591791Y12873991D02*
X-544172Y12969229D01*
X-544172Y12969229D02*
X-448934Y13016848D01*
X-448934Y13016848D02*
X-258458Y13016848D01*
X-258458Y13016848D02*
X-163220Y12969229D01*
X-591791Y12397800D02*
X-496553Y12350181D01*
X-496553Y12350181D02*
X-258458Y12350181D01*
X-258458Y12350181D02*
X-163220Y12397800D01*
X-163220Y12397800D02*
X-115601Y12493039D01*
X-115601Y12493039D02*
X-115601Y12588277D01*
X-115601Y12588277D02*
X-163220Y12683515D01*
X-163220Y12683515D02*
X-258458Y12731134D01*
X-258458Y12731134D02*
X-496553Y12731134D01*
X-496553Y12731134D02*
X-591791Y12778753D01*
X-1067982Y12350181D02*
X-1067982Y13016848D01*
X-1067982Y12826372D02*
X-1115601Y12921610D01*
X-1115601Y12921610D02*
X-1163220Y12969229D01*
X-1163220Y12969229D02*
X-1258458Y13016848D01*
X-1258458Y13016848D02*
X-1353696Y13016848D01*
X-2115601Y12350181D02*
X-2115601Y13350181D01*
X-2115601Y12397800D02*
X-2020363Y12350181D01*
X-2020363Y12350181D02*
X-1829887Y12350181D01*
X-1829887Y12350181D02*
X-1734649Y12397800D01*
X-1734649Y12397800D02*
X-1687030Y12445420D01*
X-1687030Y12445420D02*
X-1639411Y12540658D01*
X-1639411Y12540658D02*
X-1639411Y12826372D01*
X-1639411Y12826372D02*
X-1687030Y12921610D01*
X-1687030Y12921610D02*
X-1734649Y12969229D01*
X-1734649Y12969229D02*
X-1829887Y13016848D01*
X-1829887Y13016848D02*
X-2020363Y13016848D01*
X-2020363Y13016848D02*
X-2115601Y12969229D01*
X-3353697Y13016848D02*
X-3353697Y12350181D01*
X-3353697Y12921610D02*
X-3401316Y12969229D01*
X-3401316Y12969229D02*
X-3496554Y13016848D01*
X-3496554Y13016848D02*
X-3639411Y13016848D01*
X-3639411Y13016848D02*
X-3734649Y12969229D01*
X-3734649Y12969229D02*
X-3782268Y12873991D01*
X-3782268Y12873991D02*
X-3782268Y12350181D01*
X-4639411Y12397800D02*
X-4544173Y12350181D01*
X-4544173Y12350181D02*
X-4353697Y12350181D01*
X-4353697Y12350181D02*
X-4258459Y12397800D01*
X-4258459Y12397800D02*
X-4210840Y12493039D01*
X-4210840Y12493039D02*
X-4210840Y12873991D01*
X-4210840Y12873991D02*
X-4258459Y12969229D01*
X-4258459Y12969229D02*
X-4353697Y13016848D01*
X-4353697Y13016848D02*
X-4544173Y13016848D01*
X-4544173Y13016848D02*
X-4639411Y12969229D01*
X-4639411Y12969229D02*
X-4687030Y12873991D01*
X-4687030Y12873991D02*
X-4687030Y12778753D01*
X-4687030Y12778753D02*
X-4210840Y12683515D01*
X-5258459Y12350181D02*
X-5163221Y12397800D01*
X-5163221Y12397800D02*
X-5115602Y12445420D01*
X-5115602Y12445420D02*
X-5067983Y12540658D01*
X-5067983Y12540658D02*
X-5067983Y12826372D01*
X-5067983Y12826372D02*
X-5115602Y12921610D01*
X-5115602Y12921610D02*
X-5163221Y12969229D01*
X-5163221Y12969229D02*
X-5258459Y13016848D01*
X-5258459Y13016848D02*
X-5401316Y13016848D01*
X-5401316Y13016848D02*
X-5496554Y12969229D01*
X-5496554Y12969229D02*
X-5544173Y12921610D01*
X-5544173Y12921610D02*
X-5591792Y12826372D01*
X-5591792Y12826372D02*
X-5591792Y12540658D01*
X-5591792Y12540658D02*
X-5544173Y12445420D01*
X-5544173Y12445420D02*
X-5496554Y12397800D01*
X-5496554Y12397800D02*
X-5401316Y12350181D01*
X-5401316Y12350181D02*
X-5258459Y12350181D01*
X-6020364Y13016848D02*
X-6020364Y12016848D01*
X-6020364Y12969229D02*
X-6115602Y13016848D01*
X-6115602Y13016848D02*
X-6306078Y13016848D01*
X-6306078Y13016848D02*
X-6401316Y12969229D01*
X-6401316Y12969229D02*
X-6448935Y12921610D01*
X-6448935Y12921610D02*
X-6496554Y12826372D01*
X-6496554Y12826372D02*
X-6496554Y12540658D01*
X-6496554Y12540658D02*
X-6448935Y12445420D01*
X-6448935Y12445420D02*
X-6401316Y12397800D01*
X-6401316Y12397800D02*
X-6306078Y12350181D01*
X-6306078Y12350181D02*
X-6115602Y12350181D01*
X-6115602Y12350181D02*
X-6020364Y12397800D01*
X-6925126Y12350181D02*
X-6925126Y13016848D01*
X-6925126Y13350181D02*
X-6877507Y13302562D01*
X-6877507Y13302562D02*
X-6925126Y13254943D01*
X-6925126Y13254943D02*
X-6972745Y13302562D01*
X-6972745Y13302562D02*
X-6925126Y13350181D01*
X-6925126Y13350181D02*
X-6925126Y13254943D01*
X-7306078Y12350181D02*
X-7829887Y13016848D01*
X-7306078Y13016848D02*
X-7829887Y12350181D01*
X-8591792Y12397800D02*
X-8496554Y12350181D01*
X-8496554Y12350181D02*
X-8306078Y12350181D01*
X-8306078Y12350181D02*
X-8210840Y12397800D01*
X-8210840Y12397800D02*
X-8163221Y12493039D01*
X-8163221Y12493039D02*
X-8163221Y12873991D01*
X-8163221Y12873991D02*
X-8210840Y12969229D01*
X-8210840Y12969229D02*
X-8306078Y13016848D01*
X-8306078Y13016848D02*
X-8496554Y13016848D01*
X-8496554Y13016848D02*
X-8591792Y12969229D01*
X-8591792Y12969229D02*
X-8639411Y12873991D01*
X-8639411Y12873991D02*
X-8639411Y12778753D01*
X-8639411Y12778753D02*
X-8163221Y12683515D01*
X-9210840Y12350181D02*
X-9115602Y12397800D01*
X-9115602Y12397800D02*
X-9067983Y12493039D01*
X-9067983Y12493039D02*
X-9067983Y13350181D01*
X-10925126Y12350181D02*
X-10591793Y12826372D01*
X-10353698Y12350181D02*
X-10353698Y13350181D01*
X-10353698Y13350181D02*
X-10734650Y13350181D01*
X-10734650Y13350181D02*
X-10829888Y13302562D01*
X-10829888Y13302562D02*
X-10877507Y13254943D01*
X-10877507Y13254943D02*
X-10925126Y13159705D01*
X-10925126Y13159705D02*
X-10925126Y13016848D01*
X-10925126Y13016848D02*
X-10877507Y12921610D01*
X-10877507Y12921610D02*
X-10829888Y12873991D01*
X-10829888Y12873991D02*
X-10734650Y12826372D01*
X-10734650Y12826372D02*
X-10353698Y12826372D01*
X-11353698Y12350181D02*
X-11353698Y13016848D01*
X-11353698Y13350181D02*
X-11306079Y13302562D01*
X-11306079Y13302562D02*
X-11353698Y13254943D01*
X-11353698Y13254943D02*
X-11401317Y13302562D01*
X-11401317Y13302562D02*
X-11353698Y13350181D01*
X-11353698Y13350181D02*
X-11353698Y13254943D01*
X-11829888Y13016848D02*
X-11829888Y12350181D01*
X-11829888Y12921610D02*
X-11877507Y12969229D01*
X-11877507Y12969229D02*
X-11972745Y13016848D01*
X-11972745Y13016848D02*
X-12115602Y13016848D01*
X-12115602Y13016848D02*
X-12210840Y12969229D01*
X-12210840Y12969229D02*
X-12258459Y12873991D01*
X-12258459Y12873991D02*
X-12258459Y12350181D01*
X-13163221Y13016848D02*
X-13163221Y12207324D01*
X-13163221Y12207324D02*
X-13115602Y12112086D01*
X-13115602Y12112086D02*
X-13067983Y12064467D01*
X-13067983Y12064467D02*
X-12972745Y12016848D01*
X-12972745Y12016848D02*
X-12829888Y12016848D01*
X-12829888Y12016848D02*
X-12734650Y12064467D01*
X-13163221Y12397800D02*
X-13067983Y12350181D01*
X-13067983Y12350181D02*
X-12877507Y12350181D01*
X-12877507Y12350181D02*
X-12782269Y12397800D01*
X-12782269Y12397800D02*
X-12734650Y12445420D01*
X-12734650Y12445420D02*
X-12687031Y12540658D01*
X-12687031Y12540658D02*
X-12687031Y12826372D01*
X-12687031Y12826372D02*
X-12734650Y12921610D01*
X-12734650Y12921610D02*
X-12782269Y12969229D01*
X-12782269Y12969229D02*
X-12877507Y13016848D01*
X-12877507Y13016848D02*
X-13067983Y13016848D01*
X-13067983Y13016848D02*
X-13163221Y12969229D01*
X10312971Y10740181D02*
X10312971Y11740181D01*
X9884400Y10740181D02*
X9884400Y11263991D01*
X9884400Y11263991D02*
X9932019Y11359229D01*
X9932019Y11359229D02*
X10027257Y11406848D01*
X10027257Y11406848D02*
X10170114Y11406848D01*
X10170114Y11406848D02*
X10265352Y11359229D01*
X10265352Y11359229D02*
X10312971Y11311610D01*
X9551066Y11406848D02*
X9170114Y11406848D01*
X9408209Y11740181D02*
X9408209Y10883039D01*
X9408209Y10883039D02*
X9360590Y10787800D01*
X9360590Y10787800D02*
X9265352Y10740181D01*
X9265352Y10740181D02*
X9170114Y10740181D01*
X8979637Y11406848D02*
X8598685Y11406848D01*
X8836780Y11740181D02*
X8836780Y10883039D01*
X8836780Y10883039D02*
X8789161Y10787800D01*
X8789161Y10787800D02*
X8693923Y10740181D01*
X8693923Y10740181D02*
X8598685Y10740181D01*
X8265351Y11406848D02*
X8265351Y10406848D01*
X8265351Y11359229D02*
X8170113Y11406848D01*
X8170113Y11406848D02*
X7979637Y11406848D01*
X7979637Y11406848D02*
X7884399Y11359229D01*
X7884399Y11359229D02*
X7836780Y11311610D01*
X7836780Y11311610D02*
X7789161Y11216372D01*
X7789161Y11216372D02*
X7789161Y10930658D01*
X7789161Y10930658D02*
X7836780Y10835420D01*
X7836780Y10835420D02*
X7884399Y10787800D01*
X7884399Y10787800D02*
X7979637Y10740181D01*
X7979637Y10740181D02*
X8170113Y10740181D01*
X8170113Y10740181D02*
X8265351Y10787800D01*
X7408208Y10787800D02*
X7312970Y10740181D01*
X7312970Y10740181D02*
X7122494Y10740181D01*
X7122494Y10740181D02*
X7027256Y10787800D01*
X7027256Y10787800D02*
X6979637Y10883039D01*
X6979637Y10883039D02*
X6979637Y10930658D01*
X6979637Y10930658D02*
X7027256Y11025896D01*
X7027256Y11025896D02*
X7122494Y11073515D01*
X7122494Y11073515D02*
X7265351Y11073515D01*
X7265351Y11073515D02*
X7360589Y11121134D01*
X7360589Y11121134D02*
X7408208Y11216372D01*
X7408208Y11216372D02*
X7408208Y11263991D01*
X7408208Y11263991D02*
X7360589Y11359229D01*
X7360589Y11359229D02*
X7265351Y11406848D01*
X7265351Y11406848D02*
X7122494Y11406848D01*
X7122494Y11406848D02*
X7027256Y11359229D01*
X6551065Y10835420D02*
X6503446Y10787800D01*
X6503446Y10787800D02*
X6551065Y10740181D01*
X6551065Y10740181D02*
X6598684Y10787800D01*
X6598684Y10787800D02*
X6551065Y10835420D01*
X6551065Y10835420D02*
X6551065Y10740181D01*
X6551065Y11359229D02*
X6503446Y11311610D01*
X6503446Y11311610D02*
X6551065Y11263991D01*
X6551065Y11263991D02*
X6598684Y11311610D01*
X6598684Y11311610D02*
X6551065Y11359229D01*
X6551065Y11359229D02*
X6551065Y11263991D01*
X5360590Y11787800D02*
X6217732Y10502086D01*
X4312971Y11787800D02*
X5170113Y10502086D01*
X3551066Y11406848D02*
X3551066Y10597324D01*
X3551066Y10597324D02*
X3598685Y10502086D01*
X3598685Y10502086D02*
X3646304Y10454467D01*
X3646304Y10454467D02*
X3741542Y10406848D01*
X3741542Y10406848D02*
X3884399Y10406848D01*
X3884399Y10406848D02*
X3979637Y10454467D01*
X3551066Y10787800D02*
X3646304Y10740181D01*
X3646304Y10740181D02*
X3836780Y10740181D01*
X3836780Y10740181D02*
X3932018Y10787800D01*
X3932018Y10787800D02*
X3979637Y10835420D01*
X3979637Y10835420D02*
X4027256Y10930658D01*
X4027256Y10930658D02*
X4027256Y11216372D01*
X4027256Y11216372D02*
X3979637Y11311610D01*
X3979637Y11311610D02*
X3932018Y11359229D01*
X3932018Y11359229D02*
X3836780Y11406848D01*
X3836780Y11406848D02*
X3646304Y11406848D01*
X3646304Y11406848D02*
X3551066Y11359229D01*
X3074875Y10740181D02*
X3074875Y11406848D01*
X3074875Y11740181D02*
X3122494Y11692562D01*
X3122494Y11692562D02*
X3074875Y11644943D01*
X3074875Y11644943D02*
X3027256Y11692562D01*
X3027256Y11692562D02*
X3074875Y11740181D01*
X3074875Y11740181D02*
X3074875Y11644943D01*
X2741542Y11406848D02*
X2360590Y11406848D01*
X2598685Y11740181D02*
X2598685Y10883039D01*
X2598685Y10883039D02*
X2551066Y10787800D01*
X2551066Y10787800D02*
X2455828Y10740181D01*
X2455828Y10740181D02*
X2360590Y10740181D01*
X2027256Y10740181D02*
X2027256Y11740181D01*
X1598685Y10740181D02*
X1598685Y11263991D01*
X1598685Y11263991D02*
X1646304Y11359229D01*
X1646304Y11359229D02*
X1741542Y11406848D01*
X1741542Y11406848D02*
X1884399Y11406848D01*
X1884399Y11406848D02*
X1979637Y11359229D01*
X1979637Y11359229D02*
X2027256Y11311610D01*
X693923Y11406848D02*
X693923Y10740181D01*
X1122494Y11406848D02*
X1122494Y10883039D01*
X1122494Y10883039D02*
X1074875Y10787800D01*
X1074875Y10787800D02*
X979637Y10740181D01*
X979637Y10740181D02*
X836780Y10740181D01*
X836780Y10740181D02*
X741542Y10787800D01*
X741542Y10787800D02*
X693923Y10835420D01*
X217732Y10740181D02*
X217732Y11740181D01*
X217732Y11359229D02*
X122494Y11406848D01*
X122494Y11406848D02*
X-67982Y11406848D01*
X-67982Y11406848D02*
X-163220Y11359229D01*
X-163220Y11359229D02*
X-210839Y11311610D01*
X-210839Y11311610D02*
X-258458Y11216372D01*
X-258458Y11216372D02*
X-258458Y10930658D01*
X-258458Y10930658D02*
X-210839Y10835420D01*
X-210839Y10835420D02*
X-163220Y10787800D01*
X-163220Y10787800D02*
X-67982Y10740181D01*
X-67982Y10740181D02*
X122494Y10740181D01*
X122494Y10740181D02*
X217732Y10787800D01*
X-687030Y10835420D02*
X-734649Y10787800D01*
X-734649Y10787800D02*
X-687030Y10740181D01*
X-687030Y10740181D02*
X-639411Y10787800D01*
X-639411Y10787800D02*
X-687030Y10835420D01*
X-687030Y10835420D02*
X-687030Y10740181D01*
X-1591791Y10787800D02*
X-1496553Y10740181D01*
X-1496553Y10740181D02*
X-1306077Y10740181D01*
X-1306077Y10740181D02*
X-1210839Y10787800D01*
X-1210839Y10787800D02*
X-1163220Y10835420D01*
X-1163220Y10835420D02*
X-1115601Y10930658D01*
X-1115601Y10930658D02*
X-1115601Y11216372D01*
X-1115601Y11216372D02*
X-1163220Y11311610D01*
X-1163220Y11311610D02*
X-1210839Y11359229D01*
X-1210839Y11359229D02*
X-1306077Y11406848D01*
X-1306077Y11406848D02*
X-1496553Y11406848D01*
X-1496553Y11406848D02*
X-1591791Y11359229D01*
X-2163220Y10740181D02*
X-2067982Y10787800D01*
X-2067982Y10787800D02*
X-2020363Y10835420D01*
X-2020363Y10835420D02*
X-1972744Y10930658D01*
X-1972744Y10930658D02*
X-1972744Y11216372D01*
X-1972744Y11216372D02*
X-2020363Y11311610D01*
X-2020363Y11311610D02*
X-2067982Y11359229D01*
X-2067982Y11359229D02*
X-2163220Y11406848D01*
X-2163220Y11406848D02*
X-2306077Y11406848D01*
X-2306077Y11406848D02*
X-2401315Y11359229D01*
X-2401315Y11359229D02*
X-2448934Y11311610D01*
X-2448934Y11311610D02*
X-2496553Y11216372D01*
X-2496553Y11216372D02*
X-2496553Y10930658D01*
X-2496553Y10930658D02*
X-2448934Y10835420D01*
X-2448934Y10835420D02*
X-2401315Y10787800D01*
X-2401315Y10787800D02*
X-2306077Y10740181D01*
X-2306077Y10740181D02*
X-2163220Y10740181D01*
X-2925125Y10740181D02*
X-2925125Y11406848D01*
X-2925125Y11311610D02*
X-2972744Y11359229D01*
X-2972744Y11359229D02*
X-3067982Y11406848D01*
X-3067982Y11406848D02*
X-3210839Y11406848D01*
X-3210839Y11406848D02*
X-3306077Y11359229D01*
X-3306077Y11359229D02*
X-3353696Y11263991D01*
X-3353696Y11263991D02*
X-3353696Y10740181D01*
X-3353696Y11263991D02*
X-3401315Y11359229D01*
X-3401315Y11359229D02*
X-3496553Y11406848D01*
X-3496553Y11406848D02*
X-3639410Y11406848D01*
X-3639410Y11406848D02*
X-3734649Y11359229D01*
X-3734649Y11359229D02*
X-3782268Y11263991D01*
X-3782268Y11263991D02*
X-3782268Y10740181D01*
X-4972743Y11787800D02*
X-4115601Y10502086D01*
X-5306077Y11406848D02*
X-5306077Y10406848D01*
X-5306077Y11359229D02*
X-5401315Y11406848D01*
X-5401315Y11406848D02*
X-5591791Y11406848D01*
X-5591791Y11406848D02*
X-5687029Y11359229D01*
X-5687029Y11359229D02*
X-5734648Y11311610D01*
X-5734648Y11311610D02*
X-5782267Y11216372D01*
X-5782267Y11216372D02*
X-5782267Y10930658D01*
X-5782267Y10930658D02*
X-5734648Y10835420D01*
X-5734648Y10835420D02*
X-5687029Y10787800D01*
X-5687029Y10787800D02*
X-5591791Y10740181D01*
X-5591791Y10740181D02*
X-5401315Y10740181D01*
X-5401315Y10740181D02*
X-5306077Y10787800D01*
X-6591791Y10787800D02*
X-6496553Y10740181D01*
X-6496553Y10740181D02*
X-6306077Y10740181D01*
X-6306077Y10740181D02*
X-6210839Y10787800D01*
X-6210839Y10787800D02*
X-6163220Y10883039D01*
X-6163220Y10883039D02*
X-6163220Y11263991D01*
X-6163220Y11263991D02*
X-6210839Y11359229D01*
X-6210839Y11359229D02*
X-6306077Y11406848D01*
X-6306077Y11406848D02*
X-6496553Y11406848D01*
X-6496553Y11406848D02*
X-6591791Y11359229D01*
X-6591791Y11359229D02*
X-6639410Y11263991D01*
X-6639410Y11263991D02*
X-6639410Y11168753D01*
X-6639410Y11168753D02*
X-6163220Y11073515D01*
X-7496553Y10740181D02*
X-7496553Y11740181D01*
X-7496553Y10787800D02*
X-7401315Y10740181D01*
X-7401315Y10740181D02*
X-7210839Y10740181D01*
X-7210839Y10740181D02*
X-7115601Y10787800D01*
X-7115601Y10787800D02*
X-7067982Y10835420D01*
X-7067982Y10835420D02*
X-7020363Y10930658D01*
X-7020363Y10930658D02*
X-7020363Y11216372D01*
X-7020363Y11216372D02*
X-7067982Y11311610D01*
X-7067982Y11311610D02*
X-7115601Y11359229D01*
X-7115601Y11359229D02*
X-7210839Y11406848D01*
X-7210839Y11406848D02*
X-7401315Y11406848D01*
X-7401315Y11406848D02*
X-7496553Y11359229D01*
X-8401315Y10740181D02*
X-8401315Y11263991D01*
X-8401315Y11263991D02*
X-8353696Y11359229D01*
X-8353696Y11359229D02*
X-8258458Y11406848D01*
X-8258458Y11406848D02*
X-8067982Y11406848D01*
X-8067982Y11406848D02*
X-7972744Y11359229D01*
X-8401315Y10787800D02*
X-8306077Y10740181D01*
X-8306077Y10740181D02*
X-8067982Y10740181D01*
X-8067982Y10740181D02*
X-7972744Y10787800D01*
X-7972744Y10787800D02*
X-7925125Y10883039D01*
X-7925125Y10883039D02*
X-7925125Y10978277D01*
X-7925125Y10978277D02*
X-7972744Y11073515D01*
X-7972744Y11073515D02*
X-8067982Y11121134D01*
X-8067982Y11121134D02*
X-8306077Y11121134D01*
X-8306077Y11121134D02*
X-8401315Y11168753D01*
X-9020363Y10740181D02*
X-8925125Y10787800D01*
X-8925125Y10787800D02*
X-8877506Y10883039D01*
X-8877506Y10883039D02*
X-8877506Y11740181D01*
X-9401316Y10740181D02*
X-9401316Y11740181D01*
X-9401316Y11359229D02*
X-9496554Y11406848D01*
X-9496554Y11406848D02*
X-9687030Y11406848D01*
X-9687030Y11406848D02*
X-9782268Y11359229D01*
X-9782268Y11359229D02*
X-9829887Y11311610D01*
X-9829887Y11311610D02*
X-9877506Y11216372D01*
X-9877506Y11216372D02*
X-9877506Y10930658D01*
X-9877506Y10930658D02*
X-9829887Y10835420D01*
X-9829887Y10835420D02*
X-9782268Y10787800D01*
X-9782268Y10787800D02*
X-9687030Y10740181D01*
X-9687030Y10740181D02*
X-9496554Y10740181D01*
X-9496554Y10740181D02*
X-9401316Y10787800D01*
X-10448935Y10740181D02*
X-10353697Y10787800D01*
X-10353697Y10787800D02*
X-10306078Y10835420D01*
X-10306078Y10835420D02*
X-10258459Y10930658D01*
X-10258459Y10930658D02*
X-10258459Y11216372D01*
X-10258459Y11216372D02*
X-10306078Y11311610D01*
X-10306078Y11311610D02*
X-10353697Y11359229D01*
X-10353697Y11359229D02*
X-10448935Y11406848D01*
X-10448935Y11406848D02*
X-10591792Y11406848D01*
X-10591792Y11406848D02*
X-10687030Y11359229D01*
X-10687030Y11359229D02*
X-10734649Y11311610D01*
X-10734649Y11311610D02*
X-10782268Y11216372D01*
X-10782268Y11216372D02*
X-10782268Y10930658D01*
X-10782268Y10930658D02*
X-10734649Y10835420D01*
X-10734649Y10835420D02*
X-10687030Y10787800D01*
X-10687030Y10787800D02*
X-10591792Y10740181D01*
X-10591792Y10740181D02*
X-10448935Y10740181D01*
X-11639411Y10740181D02*
X-11639411Y11263991D01*
X-11639411Y11263991D02*
X-11591792Y11359229D01*
X-11591792Y11359229D02*
X-11496554Y11406848D01*
X-11496554Y11406848D02*
X-11306078Y11406848D01*
X-11306078Y11406848D02*
X-11210840Y11359229D01*
X-11639411Y10787800D02*
X-11544173Y10740181D01*
X-11544173Y10740181D02*
X-11306078Y10740181D01*
X-11306078Y10740181D02*
X-11210840Y10787800D01*
X-11210840Y10787800D02*
X-11163221Y10883039D01*
X-11163221Y10883039D02*
X-11163221Y10978277D01*
X-11163221Y10978277D02*
X-11210840Y11073515D01*
X-11210840Y11073515D02*
X-11306078Y11121134D01*
X-11306078Y11121134D02*
X-11544173Y11121134D01*
X-11544173Y11121134D02*
X-11639411Y11168753D01*
X-12115602Y10740181D02*
X-12115602Y11406848D01*
X-12115602Y11216372D02*
X-12163221Y11311610D01*
X-12163221Y11311610D02*
X-12210840Y11359229D01*
X-12210840Y11359229D02*
X-12306078Y11406848D01*
X-12306078Y11406848D02*
X-12401316Y11406848D01*
X-13163221Y10740181D02*
X-13163221Y11740181D01*
X-13163221Y10787800D02*
X-13067983Y10740181D01*
X-13067983Y10740181D02*
X-12877507Y10740181D01*
X-12877507Y10740181D02*
X-12782269Y10787800D01*
X-12782269Y10787800D02*
X-12734650Y10835420D01*
X-12734650Y10835420D02*
X-12687031Y10930658D01*
X-12687031Y10930658D02*
X-12687031Y11216372D01*
X-12687031Y11216372D02*
X-12734650Y11311610D01*
X-12734650Y11311610D02*
X-12782269Y11359229D01*
X-12782269Y11359229D02*
X-12877507Y11406848D01*
X-12877507Y11406848D02*
X-13067983Y11406848D01*
X-13067983Y11406848D02*
X-13163221Y11359229D01*
X-5925127Y9653991D02*
X-6067984Y9606372D01*
X-6067984Y9606372D02*
X-6115603Y9558753D01*
X-6115603Y9558753D02*
X-6163222Y9463515D01*
X-6163222Y9463515D02*
X-6163222Y9320658D01*
X-6163222Y9320658D02*
X-6115603Y9225420D01*
X-6115603Y9225420D02*
X-6067984Y9177800D01*
X-6067984Y9177800D02*
X-5972746Y9130181D01*
X-5972746Y9130181D02*
X-5591794Y9130181D01*
X-5591794Y9130181D02*
X-5591794Y10130181D01*
X-5591794Y10130181D02*
X-5925127Y10130181D01*
X-5925127Y10130181D02*
X-6020365Y10082562D01*
X-6020365Y10082562D02*
X-6067984Y10034943D01*
X-6067984Y10034943D02*
X-6115603Y9939705D01*
X-6115603Y9939705D02*
X-6115603Y9844467D01*
X-6115603Y9844467D02*
X-6067984Y9749229D01*
X-6067984Y9749229D02*
X-6020365Y9701610D01*
X-6020365Y9701610D02*
X-5925127Y9653991D01*
X-5925127Y9653991D02*
X-5591794Y9653991D01*
X-7163222Y9225420D02*
X-7115603Y9177800D01*
X-7115603Y9177800D02*
X-6972746Y9130181D01*
X-6972746Y9130181D02*
X-6877508Y9130181D01*
X-6877508Y9130181D02*
X-6734651Y9177800D01*
X-6734651Y9177800D02*
X-6639413Y9273039D01*
X-6639413Y9273039D02*
X-6591794Y9368277D01*
X-6591794Y9368277D02*
X-6544175Y9558753D01*
X-6544175Y9558753D02*
X-6544175Y9701610D01*
X-6544175Y9701610D02*
X-6591794Y9892086D01*
X-6591794Y9892086D02*
X-6639413Y9987324D01*
X-6639413Y9987324D02*
X-6734651Y10082562D01*
X-6734651Y10082562D02*
X-6877508Y10130181D01*
X-6877508Y10130181D02*
X-6972746Y10130181D01*
X-6972746Y10130181D02*
X-7115603Y10082562D01*
X-7115603Y10082562D02*
X-7163222Y10034943D01*
X-7925127Y9653991D02*
X-8067984Y9606372D01*
X-8067984Y9606372D02*
X-8115603Y9558753D01*
X-8115603Y9558753D02*
X-8163222Y9463515D01*
X-8163222Y9463515D02*
X-8163222Y9320658D01*
X-8163222Y9320658D02*
X-8115603Y9225420D01*
X-8115603Y9225420D02*
X-8067984Y9177800D01*
X-8067984Y9177800D02*
X-7972746Y9130181D01*
X-7972746Y9130181D02*
X-7591794Y9130181D01*
X-7591794Y9130181D02*
X-7591794Y10130181D01*
X-7591794Y10130181D02*
X-7925127Y10130181D01*
X-7925127Y10130181D02*
X-8020365Y10082562D01*
X-8020365Y10082562D02*
X-8067984Y10034943D01*
X-8067984Y10034943D02*
X-8115603Y9939705D01*
X-8115603Y9939705D02*
X-8115603Y9844467D01*
X-8115603Y9844467D02*
X-8067984Y9749229D01*
X-8067984Y9749229D02*
X-8020365Y9701610D01*
X-8020365Y9701610D02*
X-7925127Y9653991D01*
X-7925127Y9653991D02*
X-7591794Y9653991D01*
X-8591794Y9225420D02*
X-8639413Y9177800D01*
X-8639413Y9177800D02*
X-8591794Y9130181D01*
X-8591794Y9130181D02*
X-8544175Y9177800D01*
X-8544175Y9177800D02*
X-8591794Y9225420D01*
X-8591794Y9225420D02*
X-8591794Y9130181D01*
X-8591794Y9749229D02*
X-8639413Y9701610D01*
X-8639413Y9701610D02*
X-8591794Y9653991D01*
X-8591794Y9653991D02*
X-8544175Y9701610D01*
X-8544175Y9701610D02*
X-8591794Y9749229D01*
X-8591794Y9749229D02*
X-8591794Y9653991D01*
X-10353698Y9130181D02*
X-9782270Y9130181D01*
X-10067984Y9130181D02*
X-10067984Y10130181D01*
X-10067984Y10130181D02*
X-9972746Y9987324D01*
X-9972746Y9987324D02*
X-9877508Y9892086D01*
X-9877508Y9892086D02*
X-9782270Y9844467D01*
X-10782270Y9225420D02*
X-10829889Y9177800D01*
X-10829889Y9177800D02*
X-10782270Y9130181D01*
X-10782270Y9130181D02*
X-10734651Y9177800D01*
X-10734651Y9177800D02*
X-10782270Y9225420D01*
X-10782270Y9225420D02*
X-10782270Y9130181D01*
X-11448936Y10130181D02*
X-11544174Y10130181D01*
X-11544174Y10130181D02*
X-11639412Y10082562D01*
X-11639412Y10082562D02*
X-11687031Y10034943D01*
X-11687031Y10034943D02*
X-11734650Y9939705D01*
X-11734650Y9939705D02*
X-11782269Y9749229D01*
X-11782269Y9749229D02*
X-11782269Y9511134D01*
X-11782269Y9511134D02*
X-11734650Y9320658D01*
X-11734650Y9320658D02*
X-11687031Y9225420D01*
X-11687031Y9225420D02*
X-11639412Y9177800D01*
X-11639412Y9177800D02*
X-11544174Y9130181D01*
X-11544174Y9130181D02*
X-11448936Y9130181D01*
X-11448936Y9130181D02*
X-11353698Y9177800D01*
X-11353698Y9177800D02*
X-11306079Y9225420D01*
X-11306079Y9225420D02*
X-11258460Y9320658D01*
X-11258460Y9320658D02*
X-11210841Y9511134D01*
X-11210841Y9511134D02*
X-11210841Y9749229D01*
X-11210841Y9749229D02*
X-11258460Y9939705D01*
X-11258460Y9939705D02*
X-11306079Y10034943D01*
X-11306079Y10034943D02*
X-11353698Y10082562D01*
X-11353698Y10082562D02*
X-11448936Y10130181D01*
X-12210841Y9225420D02*
X-12258460Y9177800D01*
X-12258460Y9177800D02*
X-12210841Y9130181D01*
X-12210841Y9130181D02*
X-12163222Y9177800D01*
X-12163222Y9177800D02*
X-12210841Y9225420D01*
X-12210841Y9225420D02*
X-12210841Y9130181D01*
X-12877507Y10130181D02*
X-12972745Y10130181D01*
X-12972745Y10130181D02*
X-13067983Y10082562D01*
X-13067983Y10082562D02*
X-13115602Y10034943D01*
X-13115602Y10034943D02*
X-13163221Y9939705D01*
X-13163221Y9939705D02*
X-13210840Y9749229D01*
X-13210840Y9749229D02*
X-13210840Y9511134D01*
X-13210840Y9511134D02*
X-13163221Y9320658D01*
X-13163221Y9320658D02*
X-13115602Y9225420D01*
X-13115602Y9225420D02*
X-13067983Y9177800D01*
X-13067983Y9177800D02*
X-12972745Y9130181D01*
X-12972745Y9130181D02*
X-12877507Y9130181D01*
X-12877507Y9130181D02*
X-12782269Y9177800D01*
X-12782269Y9177800D02*
X-12734650Y9225420D01*
X-12734650Y9225420D02*
X-12687031Y9320658D01*
X-12687031Y9320658D02*
X-12639412Y9511134D01*
X-12639412Y9511134D02*
X-12639412Y9749229D01*
X-12639412Y9749229D02*
X-12687031Y9939705D01*
X-12687031Y9939705D02*
X-12734650Y10034943D01*
X-12734650Y10034943D02*
X-12782269Y10082562D01*
X-12782269Y10082562D02*
X-12877507Y10130181D01*
X12254819Y6333334D02*
X12969104Y6333334D01*
X12969104Y6333334D02*
X13111961Y6380953D01*
X13111961Y6380953D02*
X13207200Y6476191D01*
X13207200Y6476191D02*
X13254819Y6619048D01*
X13254819Y6619048D02*
X13254819Y6714286D01*
X13254819Y5333334D02*
X13254819Y5904762D01*
X13254819Y5619048D02*
X12254819Y5619048D01*
X12254819Y5619048D02*
X12397676Y5714286D01*
X12397676Y5714286D02*
X12492914Y5809524D01*
X12492914Y5809524D02*
X12540533Y5904762D01*
D12*
X8940000Y-2060000D02*
X8940000Y2060000D01*
X9240000Y-2060000D02*
X8940000Y-2060000D01*
X11240000Y-2060000D02*
X10760000Y-2060000D01*
X13060000Y-2060000D02*
X12760000Y-2060000D01*
X13060000Y-2060000D02*
X13060000Y2060000D01*
X9240000Y2060000D02*
X8940000Y2060000D01*
X11240000Y2060000D02*
X10760000Y2060000D01*
X12760000Y2060000D02*
X12760000Y4440000D01*
X13060000Y2060000D02*
X12760000Y2060000D01*
M02*
