G04 #@! TF.GenerationSoftware,KiCad,Pcbnew,7.0.5.1-1-g8f565ef7f0-dirty-deb11*
G04 #@! TF.CreationDate,2023-06-03T19:15:57+00:00*
G04 #@! TF.ProjectId,pedalboard-led-ring,70656461-6c62-46f6-9172-642d6c65642d,1.0.0*
G04 #@! TF.SameCoordinates,Original*
G04 #@! TF.FileFunction,Copper,L2,Bot*
G04 #@! TF.FilePolarity,Positive*
%FSLAX46Y46*%
G04 Gerber Fmt 4.6, Leading zero omitted, Abs format (unit mm)*
G04 Created by KiCad (PCBNEW 7.0.5.1-1-g8f565ef7f0-dirty-deb11) date 2023-06-03 19:15:57*
%MOMM*%
%LPD*%
G01*
G04 APERTURE LIST*
G04 #@! TA.AperFunction,SMDPad,CuDef*
%ADD10R,1.000000X2.750000*%
G04 #@! TD*
G04 #@! TA.AperFunction,SMDPad,CuDef*
%ADD11R,2.750000X1.000000*%
G04 #@! TD*
G04 #@! TA.AperFunction,ViaPad*
%ADD12C,0.800000*%
G04 #@! TD*
G04 #@! TA.AperFunction,Conductor*
%ADD13C,0.250000*%
G04 #@! TD*
G04 APERTURE END LIST*
D10*
X11000000Y3125000D03*
X11000000Y-3125000D03*
X9000000Y3125000D03*
X9000000Y-3125000D03*
D11*
X10125000Y-9000000D03*
X3875000Y-9000000D03*
X10125000Y-7000000D03*
X3875000Y-7000000D03*
D12*
X6800000Y-3600000D03*
X-6000000Y8000000D03*
X9928203Y1196152D03*
X-9928203Y-1196152D03*
X-3928203Y-9196152D03*
X1196152Y-9928203D03*
X3928203Y9196152D03*
X-8000000Y-6000000D03*
X6400000Y-7700000D03*
X-9196152Y3928203D03*
X8000000Y6000000D03*
X8260000Y-6020000D03*
X-1196152Y9928203D03*
X10300000Y-1400000D03*
X3000000Y-10000000D03*
X11100000Y-1400000D03*
X11100000Y-4900000D03*
X10300000Y-4900000D03*
X5000000Y-10000000D03*
X6000000Y-9500000D03*
X4000000Y-10000000D03*
X7910000Y-1820000D03*
D13*
X8625000Y-3500000D02*
X6900000Y-3500000D01*
X9000000Y-3125000D02*
X8625000Y-3500000D01*
X6800000Y-3600000D02*
X6800000Y-4800000D01*
X4600000Y-7000000D02*
X3875000Y-7000000D01*
X6900000Y-3500000D02*
X6800000Y-3600000D01*
X6800000Y-4800000D02*
X4600000Y-7000000D01*
X5500000Y-9000000D02*
X6000000Y-9500000D01*
X10300000Y-1400000D02*
X10300000Y-2425000D01*
X3875000Y-9000000D02*
X4000000Y-9000000D01*
X11100000Y-3225000D02*
X11000000Y-3125000D01*
X11100000Y-4900000D02*
X10400000Y-4900000D01*
X10300000Y-3825000D02*
X11000000Y-3125000D01*
X10300000Y-4900000D02*
X10300000Y-3825000D01*
X3875000Y-9000000D02*
X3875000Y-9875000D01*
X10300000Y-1400000D02*
X11100000Y-1400000D01*
X3875000Y-9000000D02*
X5500000Y-9000000D01*
X10300000Y-2425000D02*
X11000000Y-3125000D01*
X11100000Y-1400000D02*
X11100000Y-3025000D01*
X11100000Y-4900000D02*
X11100000Y-3225000D01*
X3875000Y-9875000D02*
X4000000Y-10000000D01*
X3875000Y-9125000D02*
X3000000Y-10000000D01*
X4000000Y-9000000D02*
X5000000Y-10000000D01*
X11100000Y-3025000D02*
X11000000Y-3125000D01*
X3875000Y-9000000D02*
X3875000Y-9125000D01*
X11000000Y-7000000D02*
X11830000Y-6170000D01*
X10007979Y-695000D02*
X9595000Y-1107979D01*
X8000000Y3000000D02*
X8000000Y-1730000D01*
X7910000Y-1635000D02*
X7910000Y-1820000D01*
X9555000Y-1445000D02*
X8100000Y-1445000D01*
X8000000Y-1730000D02*
X7910000Y-1820000D01*
X9595000Y-1107979D02*
X9595000Y-1405000D01*
X9000000Y3125000D02*
X8125000Y3125000D01*
X8125000Y3125000D02*
X8000000Y3000000D01*
X11830000Y-832979D02*
X11692021Y-695000D01*
X9595000Y-1405000D02*
X9555000Y-1445000D01*
X8100000Y-1445000D02*
X7910000Y-1635000D01*
X11692021Y-695000D02*
X10007979Y-695000D01*
X11830000Y-6170000D02*
X11830000Y-832979D01*
X10125000Y-7000000D02*
X11000000Y-7000000D01*
G04 #@! TA.AperFunction,Conductor*
G36*
X11002140Y11999313D02*
G01*
X11045464Y11995523D01*
X11173816Y11982881D01*
X11189696Y11979992D01*
X11257626Y11961791D01*
X11259036Y11961388D01*
X11353264Y11932804D01*
X11366359Y11927793D01*
X11435690Y11895464D01*
X11438085Y11894267D01*
X11522989Y11848885D01*
X11528052Y11845775D01*
X11595221Y11798742D01*
X11598233Y11796457D01*
X11632865Y11768036D01*
X11671280Y11736509D01*
X11674877Y11733249D01*
X11733247Y11674879D01*
X11736512Y11671277D01*
X11796455Y11598235D01*
X11798740Y11595223D01*
X11845773Y11528054D01*
X11848883Y11522991D01*
X11894255Y11438107D01*
X11895462Y11435692D01*
X11927791Y11366361D01*
X11932804Y11353261D01*
X11961364Y11259113D01*
X11961809Y11257555D01*
X11979986Y11189718D01*
X11982882Y11173798D01*
X11995520Y11045475D01*
X11999311Y11002157D01*
X11999500Y10997839D01*
X11999499Y-322760D01*
X11980592Y-380951D01*
X11931092Y-416915D01*
X11869906Y-416915D01*
X11843718Y-403857D01*
X11831705Y-395446D01*
X11831704Y-395445D01*
X11831703Y-395445D01*
X11831700Y-395443D01*
X11830245Y-395054D01*
X11806369Y-385164D01*
X11805066Y-384411D01*
X11764673Y-377289D01*
X11760457Y-376354D01*
X11734174Y-369312D01*
X11720828Y-365736D01*
X11720827Y-365736D01*
X11716402Y-366123D01*
X11679947Y-369312D01*
X11675647Y-369500D01*
X10024354Y-369500D01*
X10020053Y-369312D01*
X9979173Y-365736D01*
X9939543Y-376354D01*
X9935327Y-377289D01*
X9894935Y-384411D01*
X9894927Y-384414D01*
X9893619Y-385170D01*
X9869765Y-395051D01*
X9868303Y-395442D01*
X9868295Y-395446D01*
X9834695Y-418972D01*
X9831059Y-421288D01*
X9822854Y-426025D01*
X9795524Y-441805D01*
X9769160Y-473224D01*
X9766242Y-476408D01*
X9376413Y-866238D01*
X9373229Y-869155D01*
X9341807Y-895521D01*
X9341806Y-895523D01*
X9321292Y-931054D01*
X9318972Y-934695D01*
X9295446Y-968295D01*
X9295442Y-968303D01*
X9295051Y-969765D01*
X9285170Y-993619D01*
X9284414Y-994927D01*
X9284410Y-994939D01*
X9277288Y-1035326D01*
X9276355Y-1039536D01*
X9274594Y-1046111D01*
X9241277Y-1097429D01*
X9184158Y-1119364D01*
X9178964Y-1119500D01*
X8424500Y-1119500D01*
X8366309Y-1100593D01*
X8330345Y-1051093D01*
X8325500Y-1020500D01*
X8325500Y1459651D01*
X8344407Y1517842D01*
X8393907Y1553806D01*
X8443814Y1556748D01*
X8471612Y1551219D01*
X8480246Y1549501D01*
X8480249Y1549501D01*
X8480252Y1549500D01*
X8480253Y1549500D01*
X9519747Y1549500D01*
X9519748Y1549500D01*
X9578231Y1561133D01*
X9644552Y1605448D01*
X9688867Y1671769D01*
X9700500Y1730252D01*
X9700500Y2975000D01*
X10200001Y2975000D01*
X10200001Y1705209D01*
X10202909Y1680126D01*
X10248213Y1577523D01*
X10327522Y1498214D01*
X10430127Y1452910D01*
X10455203Y1450001D01*
X10849998Y1450001D01*
X10850000Y1450002D01*
X11150000Y1450002D01*
X11150001Y1450001D01*
X11544790Y1450001D01*
X11544791Y1450002D01*
X11569874Y1452910D01*
X11672477Y1498214D01*
X11751786Y1577523D01*
X11797090Y1680128D01*
X11799999Y1705203D01*
X11800000Y1705206D01*
X11800000Y2974999D01*
X11799999Y2975000D01*
X11150001Y2975000D01*
X11150000Y2974999D01*
X11150000Y1450002D01*
X10850000Y1450002D01*
X10850000Y2974999D01*
X10849999Y2975000D01*
X10200001Y2975000D01*
X9700500Y2975000D01*
X9700500Y3275001D01*
X10200000Y3275001D01*
X10200001Y3275000D01*
X10849999Y3275000D01*
X10850000Y3275001D01*
X10850000Y4800000D01*
X11150000Y4800000D01*
X11150000Y3275001D01*
X11150001Y3275000D01*
X11799998Y3275000D01*
X11799999Y3275002D01*
X11799999Y4544791D01*
X11799998Y4544792D01*
X11797090Y4569875D01*
X11751786Y4672478D01*
X11672477Y4751787D01*
X11569872Y4797091D01*
X11544797Y4800000D01*
X11150000Y4800000D01*
X10850000Y4800000D01*
X10455210Y4800000D01*
X10455207Y4799999D01*
X10430125Y4797091D01*
X10327522Y4751787D01*
X10248213Y4672478D01*
X10202909Y4569873D01*
X10200000Y4544798D01*
X10200000Y3275001D01*
X9700500Y3275001D01*
X9700500Y4519748D01*
X9688867Y4578231D01*
X9644552Y4644552D01*
X9644548Y4644555D01*
X9578233Y4688866D01*
X9578231Y4688867D01*
X9578228Y4688868D01*
X9578227Y4688868D01*
X9519758Y4700499D01*
X9519748Y4700500D01*
X8480252Y4700500D01*
X8480251Y4700500D01*
X8480241Y4700499D01*
X8421772Y4688868D01*
X8421766Y4688866D01*
X8355451Y4644555D01*
X8355445Y4644549D01*
X8311134Y4578234D01*
X8311132Y4578228D01*
X8299501Y4519759D01*
X8299500Y4519747D01*
X8299500Y3549500D01*
X8280593Y3491309D01*
X8231093Y3455345D01*
X8200500Y3450500D01*
X8141374Y3450500D01*
X8137073Y3450688D01*
X8096193Y3454264D01*
X8096187Y3454264D01*
X8056564Y3443647D01*
X8052349Y3442713D01*
X8011960Y3435590D01*
X8011948Y3435586D01*
X8010640Y3434830D01*
X7986786Y3424949D01*
X7985324Y3424558D01*
X7985316Y3424554D01*
X7951716Y3401028D01*
X7948080Y3398712D01*
X7939875Y3393975D01*
X7912545Y3378195D01*
X7886181Y3346776D01*
X7883263Y3343592D01*
X7781413Y3241741D01*
X7778229Y3238824D01*
X7746807Y3212458D01*
X7746806Y3212456D01*
X7726292Y3176925D01*
X7723972Y3173284D01*
X7700446Y3139684D01*
X7700442Y3139676D01*
X7700051Y3138214D01*
X7690170Y3114360D01*
X7689414Y3113052D01*
X7689410Y3113040D01*
X7682287Y3072651D01*
X7681353Y3068436D01*
X7670736Y3028813D01*
X7670736Y3028807D01*
X7674312Y2987928D01*
X7674500Y2983627D01*
X7674500Y-1201420D01*
X7655593Y-1259611D01*
X7613389Y-1292883D01*
X7607160Y-1295463D01*
X7481723Y-1391713D01*
X7481713Y-1391723D01*
X7385462Y-1517160D01*
X7385462Y-1517161D01*
X7324957Y-1663233D01*
X7324955Y-1663241D01*
X7304318Y-1819999D01*
X7304318Y-1820000D01*
X7324955Y-1976758D01*
X7324957Y-1976766D01*
X7385462Y-2122838D01*
X7385462Y-2122839D01*
X7385464Y-2122841D01*
X7481718Y-2248282D01*
X7607159Y-2344536D01*
X7607160Y-2344536D01*
X7607161Y-2344537D01*
X7657384Y-2365340D01*
X7753238Y-2405044D01*
X7870809Y-2420522D01*
X7909999Y-2425682D01*
X7910000Y-2425682D01*
X7910001Y-2425682D01*
X7941352Y-2421554D01*
X8066762Y-2405044D01*
X8162616Y-2365339D01*
X8223611Y-2360539D01*
X8275780Y-2392508D01*
X8299195Y-2449036D01*
X8299500Y-2456804D01*
X8299500Y-3075500D01*
X8280593Y-3133691D01*
X8231093Y-3169655D01*
X8200500Y-3174500D01*
X7265514Y-3174500D01*
X7207323Y-3155593D01*
X7205247Y-3154042D01*
X7102838Y-3075462D01*
X6956766Y-3014957D01*
X6956758Y-3014955D01*
X6800001Y-2994318D01*
X6799999Y-2994318D01*
X6643241Y-3014955D01*
X6643233Y-3014957D01*
X6497161Y-3075462D01*
X6497160Y-3075462D01*
X6371723Y-3171713D01*
X6371713Y-3171723D01*
X6275462Y-3297160D01*
X6275462Y-3297161D01*
X6214957Y-3443233D01*
X6214955Y-3443241D01*
X6194318Y-3599999D01*
X6194318Y-3600000D01*
X6214955Y-3756758D01*
X6214957Y-3756766D01*
X6275462Y-3902838D01*
X6275462Y-3902839D01*
X6275464Y-3902841D01*
X6371718Y-4028282D01*
X6398280Y-4048664D01*
X6435767Y-4077428D01*
X6470423Y-4127852D01*
X6474500Y-4155970D01*
X6474500Y-4624165D01*
X6455593Y-4682356D01*
X6445504Y-4694169D01*
X4869170Y-6270504D01*
X4814653Y-6298281D01*
X4799166Y-6299500D01*
X2480252Y-6299500D01*
X2480251Y-6299500D01*
X2480241Y-6299501D01*
X2421772Y-6311132D01*
X2421766Y-6311134D01*
X2355451Y-6355445D01*
X2355445Y-6355451D01*
X2311134Y-6421766D01*
X2311132Y-6421772D01*
X2299501Y-6480241D01*
X2299500Y-6480253D01*
X2299500Y-7519746D01*
X2299501Y-7519758D01*
X2311132Y-7578227D01*
X2311133Y-7578231D01*
X2355448Y-7644552D01*
X2421769Y-7688867D01*
X2466231Y-7697711D01*
X2480241Y-7700498D01*
X2480246Y-7700498D01*
X2480252Y-7700500D01*
X2480253Y-7700500D01*
X5269747Y-7700500D01*
X5269748Y-7700500D01*
X5328231Y-7688867D01*
X5394552Y-7644552D01*
X5438867Y-7578231D01*
X5450500Y-7519748D01*
X5450500Y-6650833D01*
X5469407Y-6592642D01*
X5479490Y-6580835D01*
X7018583Y-5041741D01*
X7021760Y-5038829D01*
X7053194Y-5012455D01*
X7073714Y-4976911D01*
X7076012Y-4973303D01*
X7099554Y-4939684D01*
X7099941Y-4938236D01*
X7109838Y-4914345D01*
X7110588Y-4913045D01*
X7117709Y-4872656D01*
X7118640Y-4868452D01*
X7129264Y-4828807D01*
X7125687Y-4787922D01*
X7125500Y-4783623D01*
X7125500Y-4155970D01*
X7144407Y-4097779D01*
X7164233Y-4077428D01*
X7228282Y-4028282D01*
X7324536Y-3902841D01*
X7331257Y-3886613D01*
X7370996Y-3840088D01*
X7422722Y-3825500D01*
X8200500Y-3825500D01*
X8258691Y-3844407D01*
X8294655Y-3893907D01*
X8299500Y-3924500D01*
X8299500Y-4519746D01*
X8299501Y-4519758D01*
X8311132Y-4578227D01*
X8311134Y-4578233D01*
X8355445Y-4644548D01*
X8355448Y-4644552D01*
X8355451Y-4644554D01*
X8418922Y-4686965D01*
X8421769Y-4688867D01*
X8466231Y-4697711D01*
X8480241Y-4700498D01*
X8480246Y-4700498D01*
X8480252Y-4700500D01*
X8480253Y-4700500D01*
X9519747Y-4700500D01*
X9519748Y-4700500D01*
X9578231Y-4688867D01*
X9578231Y-4688866D01*
X9587793Y-4686965D01*
X9588428Y-4690158D01*
X9632970Y-4686645D01*
X9685146Y-4718604D01*
X9708571Y-4775127D01*
X9708031Y-4795836D01*
X9694318Y-4899999D01*
X9694318Y-4900000D01*
X9714955Y-5056758D01*
X9714957Y-5056766D01*
X9775462Y-5202838D01*
X9775462Y-5202839D01*
X9871713Y-5328276D01*
X9871718Y-5328282D01*
X9997159Y-5424536D01*
X9997160Y-5424536D01*
X9997161Y-5424537D01*
X10097974Y-5466295D01*
X10143238Y-5485044D01*
X10260809Y-5500522D01*
X10299999Y-5505682D01*
X10300000Y-5505682D01*
X10300001Y-5505682D01*
X10331352Y-5501554D01*
X10456762Y-5485044D01*
X10602841Y-5424536D01*
X10639733Y-5396227D01*
X10697408Y-5375804D01*
X10756074Y-5393181D01*
X10760257Y-5396220D01*
X10797159Y-5424536D01*
X10797160Y-5424536D01*
X10797161Y-5424537D01*
X10897974Y-5466295D01*
X10943238Y-5485044D01*
X11060809Y-5500522D01*
X11099999Y-5505682D01*
X11100000Y-5505682D01*
X11100001Y-5505682D01*
X11131352Y-5501554D01*
X11256762Y-5485044D01*
X11367615Y-5439126D01*
X11428611Y-5434326D01*
X11480780Y-5466295D01*
X11504195Y-5522823D01*
X11504500Y-5530591D01*
X11504500Y-5994165D01*
X11485593Y-6052356D01*
X11475504Y-6064169D01*
X11269169Y-6270504D01*
X11214652Y-6298281D01*
X11199165Y-6299500D01*
X8730252Y-6299500D01*
X8730251Y-6299500D01*
X8730241Y-6299501D01*
X8671772Y-6311132D01*
X8671766Y-6311134D01*
X8605451Y-6355445D01*
X8605445Y-6355451D01*
X8561134Y-6421766D01*
X8561132Y-6421772D01*
X8549501Y-6480241D01*
X8549500Y-6480253D01*
X8549500Y-7519746D01*
X8549501Y-7519758D01*
X8561132Y-7578227D01*
X8561133Y-7578231D01*
X8605448Y-7644552D01*
X8671769Y-7688867D01*
X8716231Y-7697711D01*
X8730241Y-7700498D01*
X8730246Y-7700498D01*
X8730252Y-7700500D01*
X8730253Y-7700500D01*
X11519747Y-7700500D01*
X11519748Y-7700500D01*
X11578231Y-7688867D01*
X11644552Y-7644552D01*
X11688867Y-7578231D01*
X11700500Y-7519748D01*
X11700499Y-6800832D01*
X11719407Y-6742642D01*
X11729490Y-6730835D01*
X11830498Y-6629827D01*
X11885013Y-6602052D01*
X11945445Y-6611623D01*
X11988710Y-6654888D01*
X11999500Y-6699833D01*
X11999500Y-10997837D01*
X11999311Y-11002155D01*
X11995520Y-11045473D01*
X11982882Y-11173796D01*
X11979986Y-11189716D01*
X11961809Y-11257553D01*
X11961364Y-11259111D01*
X11932804Y-11353259D01*
X11927791Y-11366359D01*
X11895462Y-11435690D01*
X11894255Y-11438105D01*
X11848883Y-11522989D01*
X11845773Y-11528052D01*
X11798740Y-11595221D01*
X11796455Y-11598233D01*
X11736512Y-11671275D01*
X11733247Y-11674877D01*
X11674877Y-11733247D01*
X11671275Y-11736512D01*
X11598233Y-11796455D01*
X11595221Y-11798740D01*
X11528052Y-11845773D01*
X11522989Y-11848883D01*
X11438105Y-11894255D01*
X11435690Y-11895462D01*
X11366359Y-11927791D01*
X11353259Y-11932804D01*
X11259111Y-11961364D01*
X11257553Y-11961809D01*
X11189716Y-11979986D01*
X11173796Y-11982882D01*
X11045473Y-11995520D01*
X11002156Y-11999311D01*
X10997838Y-11999500D01*
X-10997838Y-11999500D01*
X-11002156Y-11999311D01*
X-11045475Y-11995520D01*
X-11173798Y-11982882D01*
X-11189716Y-11979986D01*
X-11226609Y-11970101D01*
X-11257555Y-11961809D01*
X-11259113Y-11961364D01*
X-11353261Y-11932804D01*
X-11366361Y-11927791D01*
X-11435692Y-11895462D01*
X-11438107Y-11894255D01*
X-11522991Y-11848883D01*
X-11528054Y-11845773D01*
X-11595223Y-11798740D01*
X-11598235Y-11796455D01*
X-11671277Y-11736512D01*
X-11674879Y-11733247D01*
X-11733249Y-11674877D01*
X-11736514Y-11671275D01*
X-11796457Y-11598233D01*
X-11798742Y-11595221D01*
X-11845775Y-11528052D01*
X-11848885Y-11522989D01*
X-11894267Y-11438085D01*
X-11895464Y-11435690D01*
X-11927793Y-11366359D01*
X-11932806Y-11353259D01*
X-11961388Y-11259036D01*
X-11961791Y-11257626D01*
X-11979992Y-11189696D01*
X-11982881Y-11173816D01*
X-11995524Y-11045447D01*
X-11996132Y-11038495D01*
X-11999313Y-11002140D01*
X-11999500Y-10997840D01*
X-11999500Y-10000004D01*
X-11355659Y-10000004D01*
X-11335065Y-10235400D01*
X-11273902Y-10463667D01*
X-11174041Y-10677818D01*
X-11174037Y-10677826D01*
X-11174036Y-10677828D01*
X-11174035Y-10677829D01*
X-11038495Y-10871401D01*
X-10871401Y-11038495D01*
X-10871398Y-11038497D01*
X-10871397Y-11038498D01*
X-10807094Y-11083523D01*
X-10677829Y-11174035D01*
X-10677828Y-11174035D01*
X-10677827Y-11174036D01*
X-10677819Y-11174040D01*
X-10463667Y-11273901D01*
X-10463663Y-11273903D01*
X-10235408Y-11335063D01*
X-10235404Y-11335063D01*
X-10235401Y-11335064D01*
X-10058974Y-11350500D01*
X-10058966Y-11350500D01*
X-9941026Y-11350500D01*
X-9764600Y-11335064D01*
X-9764599Y-11335063D01*
X-9764592Y-11335063D01*
X-9536337Y-11273903D01*
X-9322171Y-11174035D01*
X-9128599Y-11038495D01*
X-8961505Y-10871401D01*
X-8825965Y-10677830D01*
X-8726097Y-10463663D01*
X-8664937Y-10235408D01*
X-8664936Y-10235400D01*
X-8644341Y-10000004D01*
X-8644341Y-9999995D01*
X-8664936Y-9764599D01*
X-8664937Y-9764596D01*
X-8664937Y-9764592D01*
X-8726097Y-9536337D01*
X-8733828Y-9519758D01*
X-8733834Y-9519746D01*
X2299500Y-9519746D01*
X2299501Y-9519758D01*
X2311132Y-9578227D01*
X2311133Y-9578231D01*
X2355448Y-9644552D01*
X2397240Y-9672477D01*
X2398960Y-9673626D01*
X2436839Y-9721676D01*
X2439241Y-9782814D01*
X2435423Y-9793825D01*
X2414955Y-9843240D01*
X2394318Y-9999999D01*
X2394318Y-10000000D01*
X2414955Y-10156758D01*
X2414957Y-10156766D01*
X2475462Y-10302838D01*
X2475462Y-10302839D01*
X2475464Y-10302841D01*
X2571718Y-10428282D01*
X2697159Y-10524536D01*
X2843238Y-10585044D01*
X2960809Y-10600522D01*
X2999999Y-10605682D01*
X3000000Y-10605682D01*
X3000001Y-10605682D01*
X3031352Y-10601554D01*
X3156762Y-10585044D01*
X3302841Y-10524536D01*
X3428282Y-10428282D01*
X3428288Y-10428273D01*
X3429996Y-10426567D01*
X3431547Y-10425776D01*
X3433430Y-10424332D01*
X3433697Y-10424680D01*
X3484513Y-10398790D01*
X3544945Y-10408361D01*
X3570004Y-10426567D01*
X3571713Y-10428276D01*
X3571718Y-10428282D01*
X3697159Y-10524536D01*
X3843238Y-10585044D01*
X3960809Y-10600522D01*
X3999999Y-10605682D01*
X4000000Y-10605682D01*
X4000001Y-10605682D01*
X4031352Y-10601554D01*
X4156762Y-10585044D01*
X4302841Y-10524536D01*
X4428282Y-10428282D01*
X4428288Y-10428273D01*
X4429996Y-10426567D01*
X4431547Y-10425776D01*
X4433430Y-10424332D01*
X4433697Y-10424680D01*
X4484513Y-10398790D01*
X4544945Y-10408361D01*
X4570004Y-10426567D01*
X4571713Y-10428276D01*
X4571718Y-10428282D01*
X4697159Y-10524536D01*
X4843238Y-10585044D01*
X4960809Y-10600522D01*
X4999999Y-10605682D01*
X5000000Y-10605682D01*
X5000001Y-10605682D01*
X5031352Y-10601554D01*
X5156762Y-10585044D01*
X5302841Y-10524536D01*
X5428282Y-10428282D01*
X5524536Y-10302841D01*
X5585044Y-10156762D01*
X5590509Y-10115250D01*
X5616848Y-10060027D01*
X5670618Y-10030831D01*
X5726547Y-10036709D01*
X5843238Y-10085044D01*
X5960809Y-10100522D01*
X5999999Y-10105682D01*
X6000000Y-10105682D01*
X6000001Y-10105682D01*
X6031352Y-10101554D01*
X6156762Y-10085044D01*
X6302841Y-10024536D01*
X6428282Y-9928282D01*
X6524536Y-9802841D01*
X6585044Y-9656762D01*
X6599785Y-9544791D01*
X8450001Y-9544791D01*
X8452909Y-9569874D01*
X8498213Y-9672477D01*
X8577522Y-9751786D01*
X8680127Y-9797090D01*
X8705203Y-9799999D01*
X9974998Y-9799999D01*
X9975000Y-9799998D01*
X9975000Y-9150001D01*
X9974999Y-9150000D01*
X10275000Y-9150000D01*
X10275000Y-9799998D01*
X10275001Y-9799999D01*
X11544790Y-9799999D01*
X11544791Y-9799998D01*
X11569874Y-9797090D01*
X11672477Y-9751786D01*
X11751786Y-9672477D01*
X11797090Y-9569872D01*
X11799999Y-9544797D01*
X11800000Y-9544794D01*
X11800000Y-9150001D01*
X11799999Y-9150000D01*
X10275000Y-9150000D01*
X9974999Y-9150000D01*
X8450002Y-9150000D01*
X8450001Y-9150001D01*
X8450001Y-9544791D01*
X6599785Y-9544791D01*
X6605682Y-9500000D01*
X6585044Y-9343238D01*
X6524537Y-9197161D01*
X6524537Y-9197160D01*
X6428286Y-9071723D01*
X6428285Y-9071722D01*
X6428282Y-9071718D01*
X6428277Y-9071714D01*
X6428276Y-9071713D01*
X6302838Y-8975462D01*
X6156766Y-8914957D01*
X6156758Y-8914955D01*
X6000001Y-8894318D01*
X5999998Y-8894318D01*
X5919957Y-8904855D01*
X5859797Y-8893705D01*
X5837032Y-8876706D01*
X5810325Y-8849999D01*
X8450000Y-8849999D01*
X8450001Y-8850000D01*
X9974999Y-8850000D01*
X9975000Y-8849998D01*
X9975000Y-8200001D01*
X9974999Y-8200000D01*
X10275000Y-8200000D01*
X10275000Y-8849999D01*
X10275001Y-8850000D01*
X11799998Y-8850000D01*
X11799999Y-8849999D01*
X11799999Y-8455210D01*
X11799998Y-8455208D01*
X11797090Y-8430125D01*
X11751786Y-8327522D01*
X11672477Y-8248213D01*
X11569872Y-8202909D01*
X11544797Y-8200000D01*
X10275000Y-8200000D01*
X9974999Y-8200000D01*
X8705210Y-8200000D01*
X8705208Y-8200001D01*
X8680125Y-8202909D01*
X8577522Y-8248213D01*
X8498213Y-8327522D01*
X8452909Y-8430127D01*
X8450000Y-8455202D01*
X8450000Y-8849999D01*
X5810325Y-8849999D01*
X5741741Y-8781414D01*
X5738822Y-8778229D01*
X5712456Y-8746806D01*
X5689818Y-8733736D01*
X5676918Y-8726288D01*
X5673288Y-8723975D01*
X5639684Y-8700446D01*
X5639679Y-8700443D01*
X5638224Y-8700054D01*
X5614348Y-8690164D01*
X5613045Y-8689411D01*
X5572652Y-8682289D01*
X5568439Y-8681355D01*
X5528807Y-8670736D01*
X5523877Y-8669415D01*
X5472563Y-8636091D01*
X5450636Y-8578969D01*
X5450500Y-8573788D01*
X5450500Y-8480253D01*
X5450498Y-8480241D01*
X5445517Y-8455202D01*
X5438867Y-8421769D01*
X5394552Y-8355448D01*
X5394548Y-8355445D01*
X5328233Y-8311134D01*
X5328231Y-8311133D01*
X5328228Y-8311132D01*
X5328227Y-8311132D01*
X5269758Y-8299501D01*
X5269748Y-8299500D01*
X2480252Y-8299500D01*
X2480251Y-8299500D01*
X2480241Y-8299501D01*
X2421772Y-8311132D01*
X2421766Y-8311134D01*
X2355451Y-8355445D01*
X2355445Y-8355451D01*
X2311134Y-8421766D01*
X2311132Y-8421772D01*
X2299501Y-8480241D01*
X2299500Y-8480253D01*
X2299500Y-9519746D01*
X-8733834Y-9519746D01*
X-8825960Y-9322181D01*
X-8825964Y-9322173D01*
X-8961502Y-9128603D01*
X-8961503Y-9128602D01*
X-8961505Y-9128599D01*
X-9128599Y-8961505D01*
X-9128603Y-8961502D01*
X-9128604Y-8961501D01*
X-9322174Y-8825963D01*
X-9322182Y-8825959D01*
X-9536334Y-8726098D01*
X-9536333Y-8726098D01*
X-9646117Y-8696682D01*
X-9764592Y-8664937D01*
X-9764593Y-8664936D01*
X-9764600Y-8664935D01*
X-9941026Y-8649500D01*
X-9941034Y-8649500D01*
X-10058966Y-8649500D01*
X-10058974Y-8649500D01*
X-10235401Y-8664935D01*
X-10463668Y-8726098D01*
X-10677819Y-8825959D01*
X-10677827Y-8825963D01*
X-10871397Y-8961501D01*
X-11038499Y-9128603D01*
X-11174036Y-9322171D01*
X-11273903Y-9536337D01*
X-11335065Y-9764599D01*
X-11355659Y-9999995D01*
X-11355659Y-10000004D01*
X-11999500Y-10000004D01*
X-11999500Y0D01*
X-6105452Y0D01*
X-6085654Y-491285D01*
X-6085654Y-491291D01*
X-6085653Y-491297D01*
X-6085653Y-491306D01*
X-6026391Y-979365D01*
X-6026387Y-979392D01*
X-5928038Y-1461136D01*
X-5928038Y-1461137D01*
X-5791250Y-1933386D01*
X-5791247Y-1933395D01*
X-5719399Y-2122841D01*
X-5616890Y-2393133D01*
X-5487063Y-2666737D01*
X-5407422Y-2834579D01*
X-5406109Y-2837345D01*
X-5160267Y-3263155D01*
X-5090441Y-3364317D01*
X-4880962Y-3667800D01*
X-4570001Y-4048659D01*
X-4230402Y-4402219D01*
X-4229395Y-4403267D01*
X-3909527Y-4686645D01*
X-3861365Y-4729313D01*
X-3861360Y-4729317D01*
X-3468293Y-5024688D01*
X-3284077Y-5141179D01*
X-3052726Y-5287477D01*
X-3052719Y-5287480D01*
X-3052720Y-5287480D01*
X-3052707Y-5287488D01*
X-2665382Y-5490770D01*
X-2617362Y-5515973D01*
X-2165023Y-5708697D01*
X-1934506Y-5785654D01*
X-1698659Y-5864392D01*
X-1698649Y-5864395D01*
X-1698643Y-5864397D01*
X-1221247Y-5982065D01*
X-735931Y-6060936D01*
X-245842Y-6100500D01*
X-245837Y-6100500D01*
X245837Y-6100500D01*
X245842Y-6100500D01*
X735931Y-6060936D01*
X1221247Y-5982065D01*
X1698643Y-5864397D01*
X2165023Y-5708697D01*
X2617362Y-5515973D01*
X2863115Y-5386991D01*
X3052706Y-5287488D01*
X3052711Y-5287484D01*
X3052726Y-5287477D01*
X3468292Y-5024688D01*
X3861365Y-4729313D01*
X4229395Y-4403267D01*
X4569996Y-4048664D01*
X4880959Y-3667803D01*
X5160267Y-3263155D01*
X5406109Y-2837345D01*
X5616890Y-2393133D01*
X5791244Y-1933401D01*
X5791246Y-1933395D01*
X5791249Y-1933386D01*
X5928037Y-1461137D01*
X5928037Y-1461136D01*
X5928039Y-1461130D01*
X6026388Y-979383D01*
X6059420Y-707341D01*
X6085652Y-491306D01*
X6085652Y-491301D01*
X6085654Y-491285D01*
X6105452Y0D01*
X6085654Y491285D01*
X6085652Y491302D01*
X6085652Y491307D01*
X6026390Y979366D01*
X6026388Y979383D01*
X5928039Y1461130D01*
X5928037Y1461138D01*
X5791249Y1933387D01*
X5791246Y1933396D01*
X5773157Y1981090D01*
X5616890Y2393133D01*
X5406109Y2837345D01*
X5160267Y3263155D01*
X4962618Y3549500D01*
X4880961Y3667801D01*
X4570000Y4048660D01*
X4229398Y4403264D01*
X4097902Y4519759D01*
X3953372Y4647802D01*
X3861364Y4729314D01*
X3861359Y4729318D01*
X3468292Y5024689D01*
X3176978Y5208905D01*
X3052726Y5287477D01*
X3052722Y5287480D01*
X3052719Y5287481D01*
X3052706Y5287489D01*
X2617376Y5515966D01*
X2617372Y5515968D01*
X2617369Y5515970D01*
X2617362Y5515973D01*
X2165023Y5708697D01*
X2165024Y5708697D01*
X2165021Y5708698D01*
X1698658Y5864393D01*
X1698638Y5864399D01*
X1337278Y5953466D01*
X1221247Y5982065D01*
X735931Y6060936D01*
X735925Y6060937D01*
X461028Y6083129D01*
X245842Y6100500D01*
X-245842Y6100500D01*
X-443658Y6084531D01*
X-735926Y6060937D01*
X-1221247Y5982065D01*
X-1698639Y5864399D01*
X-1698659Y5864393D01*
X-2165022Y5708698D01*
X-2457631Y5584029D01*
X-2617362Y5515973D01*
X-2617366Y5515972D01*
X-2617373Y5515968D01*
X-2617377Y5515966D01*
X-3052707Y5287489D01*
X-3052720Y5287481D01*
X-3468293Y5024689D01*
X-3861360Y4729318D01*
X-3861365Y4729314D01*
X-4229399Y4403264D01*
X-4570001Y4048660D01*
X-4880962Y3667801D01*
X-5160266Y3263157D01*
X-5406115Y2837334D01*
X-5616892Y2393128D01*
X-5791247Y1933396D01*
X-5791250Y1933387D01*
X-5928038Y1461138D01*
X-5928038Y1461137D01*
X-6026387Y979393D01*
X-6026391Y979366D01*
X-6085653Y491307D01*
X-6085653Y491298D01*
X-6085654Y491291D01*
X-6085654Y491285D01*
X-6105452Y0D01*
X-11999500Y0D01*
X-11999500Y9999996D01*
X-11355659Y9999996D01*
X-11335065Y9764600D01*
X-11273902Y9536333D01*
X-11174041Y9322182D01*
X-11174037Y9322174D01*
X-11174036Y9322172D01*
X-11174035Y9322171D01*
X-11038495Y9128599D01*
X-10871401Y8961505D01*
X-10677829Y8825965D01*
X-10677828Y8825965D01*
X-10677827Y8825964D01*
X-10677819Y8825960D01*
X-10463667Y8726099D01*
X-10463663Y8726097D01*
X-10235408Y8664937D01*
X-10235404Y8664937D01*
X-10235401Y8664936D01*
X-10058974Y8649500D01*
X-10058966Y8649500D01*
X-9941026Y8649500D01*
X-9764600Y8664936D01*
X-9764599Y8664937D01*
X-9764592Y8664937D01*
X-9536337Y8726097D01*
X-9322171Y8825965D01*
X-9128599Y8961505D01*
X-8961505Y9128599D01*
X-8825965Y9322170D01*
X-8726097Y9536337D01*
X-8664937Y9764592D01*
X-8644341Y9999996D01*
X8644341Y9999996D01*
X8664935Y9764600D01*
X8726098Y9536333D01*
X8825959Y9322182D01*
X8825963Y9322174D01*
X8825964Y9322172D01*
X8825965Y9322171D01*
X8961505Y9128599D01*
X9128599Y8961505D01*
X9322171Y8825965D01*
X9322172Y8825965D01*
X9322173Y8825964D01*
X9322181Y8825960D01*
X9536333Y8726099D01*
X9536337Y8726097D01*
X9764592Y8664937D01*
X9764596Y8664937D01*
X9764599Y8664936D01*
X9941026Y8649500D01*
X9941034Y8649500D01*
X10058974Y8649500D01*
X10235400Y8664936D01*
X10235401Y8664937D01*
X10235408Y8664937D01*
X10463663Y8726097D01*
X10677829Y8825965D01*
X10871401Y8961505D01*
X11038495Y9128599D01*
X11174035Y9322170D01*
X11273903Y9536337D01*
X11335063Y9764592D01*
X11355659Y10000000D01*
X11335063Y10235408D01*
X11273903Y10463663D01*
X11174035Y10677829D01*
X11038495Y10871401D01*
X10871401Y11038495D01*
X10871397Y11038498D01*
X10871396Y11038499D01*
X10678167Y11173798D01*
X10677829Y11174035D01*
X10677828Y11174036D01*
X10677826Y11174037D01*
X10677818Y11174041D01*
X10463666Y11273902D01*
X10463667Y11273902D01*
X10387578Y11294290D01*
X10235408Y11335063D01*
X10235407Y11335064D01*
X10235400Y11335065D01*
X10058974Y11350500D01*
X10058966Y11350500D01*
X9941034Y11350500D01*
X9941026Y11350500D01*
X9764599Y11335065D01*
X9536332Y11273902D01*
X9322181Y11174041D01*
X9322173Y11174037D01*
X9128603Y11038499D01*
X8961501Y10871397D01*
X8825964Y10677829D01*
X8726097Y10463663D01*
X8664935Y10235401D01*
X8644341Y10000005D01*
X8644341Y9999996D01*
X-8644341Y9999996D01*
X-8644341Y10000000D01*
X-8664937Y10235408D01*
X-8726097Y10463663D01*
X-8825965Y10677829D01*
X-8961505Y10871401D01*
X-9128599Y11038495D01*
X-9128603Y11038498D01*
X-9128604Y11038499D01*
X-9321833Y11173798D01*
X-9322171Y11174035D01*
X-9322172Y11174036D01*
X-9322174Y11174037D01*
X-9322182Y11174041D01*
X-9536334Y11273902D01*
X-9536333Y11273902D01*
X-9612422Y11294290D01*
X-9764592Y11335063D01*
X-9764593Y11335064D01*
X-9764600Y11335065D01*
X-9941026Y11350500D01*
X-9941034Y11350500D01*
X-10058966Y11350500D01*
X-10058974Y11350500D01*
X-10235401Y11335065D01*
X-10463668Y11273902D01*
X-10677819Y11174041D01*
X-10677827Y11174037D01*
X-10871397Y11038499D01*
X-11038499Y10871397D01*
X-11174036Y10677829D01*
X-11273903Y10463663D01*
X-11335065Y10235401D01*
X-11355659Y10000005D01*
X-11355659Y9999996D01*
X-11999500Y9999996D01*
X-11999500Y10997842D01*
X-11999313Y11002140D01*
X-11995517Y11045535D01*
X-11982880Y11173821D01*
X-11979993Y11189693D01*
X-11961782Y11257658D01*
X-11961397Y11259005D01*
X-11932801Y11353275D01*
X-11927793Y11366361D01*
X-11900708Y11424445D01*
X-11895449Y11435724D01*
X-11894282Y11438057D01*
X-11848877Y11523006D01*
X-11845788Y11528035D01*
X-11798729Y11595241D01*
X-11796472Y11598216D01*
X-11736492Y11671302D01*
X-11733259Y11674869D01*
X-11674869Y11733259D01*
X-11671302Y11736492D01*
X-11598216Y11796472D01*
X-11595241Y11798729D01*
X-11528035Y11845788D01*
X-11523006Y11848877D01*
X-11438057Y11894282D01*
X-11435724Y11895449D01*
X-11366359Y11927795D01*
X-11353275Y11932801D01*
X-11259005Y11961397D01*
X-11257658Y11961782D01*
X-11189693Y11979993D01*
X-11173821Y11982880D01*
X-11045516Y11995518D01*
X-11002141Y11999313D01*
X-10997841Y11999500D01*
X10997840Y11999500D01*
X11002140Y11999313D01*
G37*
G04 #@! TD.AperFunction*
M02*
