G04 #@! TF.GenerationSoftware,KiCad,Pcbnew,7.0.2.1-36-g582732918d-dirty-deb11*
G04 #@! TF.CreationDate,2023-05-26T14:24:42+00:00*
G04 #@! TF.ProjectId,pedalboard-led-ring,70656461-6c62-46f6-9172-642d6c65642d,rev?*
G04 #@! TF.SameCoordinates,Original*
G04 #@! TF.FileFunction,Soldermask,Bot*
G04 #@! TF.FilePolarity,Negative*
%FSLAX46Y46*%
G04 Gerber Fmt 4.6, Leading zero omitted, Abs format (unit mm)*
G04 Created by KiCad (PCBNEW 7.0.2.1-36-g582732918d-dirty-deb11) date 2023-05-26 14:24:42*
%MOMM*%
%LPD*%
G01*
G04 APERTURE LIST*
%ADD10C,0.010000*%
%ADD11R,1.000000X3.000000*%
%ADD12R,1.000000X1.000000*%
%ADD13R,0.700000X0.250000*%
%ADD14R,0.610000X2.200000*%
G04 APERTURE END LIST*
D10*
X7700000Y-7700000D02*
X6500000Y-7700000D01*
X6500000Y-7200000D01*
X5400000Y-7200000D01*
X5400000Y-6000000D01*
X6500000Y-6000000D01*
X6500000Y-5500000D01*
X7700000Y-5500000D01*
X7700000Y-7700000D01*
G36*
X7700000Y-7700000D02*
G01*
X6500000Y-7700000D01*
X6500000Y-7200000D01*
X5400000Y-7200000D01*
X5400000Y-6000000D01*
X6500000Y-6000000D01*
X6500000Y-5500000D01*
X7700000Y-5500000D01*
X7700000Y-7700000D01*
G37*
X10000000Y-6000000D02*
X11100000Y-6000000D01*
X11100000Y-7200000D01*
X10000000Y-7200000D01*
X10000000Y-7700000D01*
X8800000Y-7700000D01*
X8800000Y-5500000D01*
X10000000Y-5500000D01*
X10000000Y-6000000D01*
G36*
X10000000Y-6000000D02*
G01*
X11100000Y-6000000D01*
X11100000Y-7200000D01*
X10000000Y-7200000D01*
X10000000Y-7700000D01*
X8800000Y-7700000D01*
X8800000Y-5500000D01*
X10000000Y-5500000D01*
X10000000Y-6000000D01*
G37*
G36*
G01*
X11450000Y5145000D02*
X11450000Y5445000D01*
G75*
G02*
X11600000Y5595000I150000J0D01*
G01*
X13250000Y5595000D01*
G75*
G02*
X13400000Y5445000I0J-150000D01*
G01*
X13400000Y5145000D01*
G75*
G02*
X13250000Y4995000I-150000J0D01*
G01*
X11600000Y4995000D01*
G75*
G02*
X11450000Y5145000I0J150000D01*
G01*
G37*
G36*
G01*
X11450000Y6415000D02*
X11450000Y6715000D01*
G75*
G02*
X11600000Y6865000I150000J0D01*
G01*
X13250000Y6865000D01*
G75*
G02*
X13400000Y6715000I0J-150000D01*
G01*
X13400000Y6415000D01*
G75*
G02*
X13250000Y6265000I-150000J0D01*
G01*
X11600000Y6265000D01*
G75*
G02*
X11450000Y6415000I0J150000D01*
G01*
G37*
G36*
G01*
X11450000Y7685000D02*
X11450000Y7985000D01*
G75*
G02*
X11600000Y8135000I150000J0D01*
G01*
X13250000Y8135000D01*
G75*
G02*
X13400000Y7985000I0J-150000D01*
G01*
X13400000Y7685000D01*
G75*
G02*
X13250000Y7535000I-150000J0D01*
G01*
X11600000Y7535000D01*
G75*
G02*
X11450000Y7685000I0J150000D01*
G01*
G37*
G36*
G01*
X11450000Y8955000D02*
X11450000Y9255000D01*
G75*
G02*
X11600000Y9405000I150000J0D01*
G01*
X13250000Y9405000D01*
G75*
G02*
X13400000Y9255000I0J-150000D01*
G01*
X13400000Y8955000D01*
G75*
G02*
X13250000Y8805000I-150000J0D01*
G01*
X11600000Y8805000D01*
G75*
G02*
X11450000Y8955000I0J150000D01*
G01*
G37*
G36*
G01*
X16400000Y8955000D02*
X16400000Y9255000D01*
G75*
G02*
X16550000Y9405000I150000J0D01*
G01*
X18200000Y9405000D01*
G75*
G02*
X18350000Y9255000I0J-150000D01*
G01*
X18350000Y8955000D01*
G75*
G02*
X18200000Y8805000I-150000J0D01*
G01*
X16550000Y8805000D01*
G75*
G02*
X16400000Y8955000I0J150000D01*
G01*
G37*
G36*
G01*
X16400000Y7685000D02*
X16400000Y7985000D01*
G75*
G02*
X16550000Y8135000I150000J0D01*
G01*
X18200000Y8135000D01*
G75*
G02*
X18350000Y7985000I0J-150000D01*
G01*
X18350000Y7685000D01*
G75*
G02*
X18200000Y7535000I-150000J0D01*
G01*
X16550000Y7535000D01*
G75*
G02*
X16400000Y7685000I0J150000D01*
G01*
G37*
G36*
G01*
X16400000Y6415000D02*
X16400000Y6715000D01*
G75*
G02*
X16550000Y6865000I150000J0D01*
G01*
X18200000Y6865000D01*
G75*
G02*
X18350000Y6715000I0J-150000D01*
G01*
X18350000Y6415000D01*
G75*
G02*
X18200000Y6265000I-150000J0D01*
G01*
X16550000Y6265000D01*
G75*
G02*
X16400000Y6415000I0J150000D01*
G01*
G37*
G36*
G01*
X16400000Y5145000D02*
X16400000Y5445000D01*
G75*
G02*
X16550000Y5595000I150000J0D01*
G01*
X18200000Y5595000D01*
G75*
G02*
X18350000Y5445000I0J-150000D01*
G01*
X18350000Y5145000D01*
G75*
G02*
X18200000Y4995000I-150000J0D01*
G01*
X16550000Y4995000D01*
G75*
G02*
X16400000Y5145000I0J150000D01*
G01*
G37*
G36*
G01*
X9675000Y-250000D02*
X9675000Y1050000D01*
G75*
G02*
X9925000Y1300000I250000J0D01*
G01*
X10750000Y1300000D01*
G75*
G02*
X11000000Y1050000I0J-250000D01*
G01*
X11000000Y-250000D01*
G75*
G02*
X10750000Y-500000I-250000J0D01*
G01*
X9925000Y-500000D01*
G75*
G02*
X9675000Y-250000I0J250000D01*
G01*
G37*
G36*
G01*
X12800000Y-250000D02*
X12800000Y1050000D01*
G75*
G02*
X13050000Y1300000I250000J0D01*
G01*
X13875000Y1300000D01*
G75*
G02*
X14125000Y1050000I0J-250000D01*
G01*
X14125000Y-250000D01*
G75*
G02*
X13875000Y-500000I-250000J0D01*
G01*
X13050000Y-500000D01*
G75*
G02*
X12800000Y-250000I0J250000D01*
G01*
G37*
D11*
X13060000Y-10520000D03*
X13060000Y-5480000D03*
X15600000Y-10520000D03*
X15600000Y-5480000D03*
X18140000Y-10520000D03*
X18140000Y-5480000D03*
D12*
X4000000Y-11150000D03*
X4000000Y-12850000D03*
X19800000Y6550000D03*
X19800000Y8250000D03*
D13*
X7325000Y-11250000D03*
X7325000Y-11750000D03*
X7325000Y-12250000D03*
X7325000Y-12750000D03*
X5475000Y-12750000D03*
X5475000Y-12250000D03*
X5475000Y-11750000D03*
X5475000Y-11250000D03*
D14*
X6400000Y-12000000D03*
G36*
G01*
X17325000Y4125000D02*
X18275000Y4125000D01*
G75*
G02*
X18525000Y3875000I0J-250000D01*
G01*
X18525000Y3200000D01*
G75*
G02*
X18275000Y2950000I-250000J0D01*
G01*
X17325000Y2950000D01*
G75*
G02*
X17075000Y3200000I0J250000D01*
G01*
X17075000Y3875000D01*
G75*
G02*
X17325000Y4125000I250000J0D01*
G01*
G37*
G36*
G01*
X17325000Y2050000D02*
X18275000Y2050000D01*
G75*
G02*
X18525000Y1800000I0J-250000D01*
G01*
X18525000Y1125000D01*
G75*
G02*
X18275000Y875000I-250000J0D01*
G01*
X17325000Y875000D01*
G75*
G02*
X17075000Y1125000I0J250000D01*
G01*
X17075000Y1800000D01*
G75*
G02*
X17325000Y2050000I250000J0D01*
G01*
G37*
G36*
G01*
X4625000Y-8825000D02*
X4625000Y-9775000D01*
G75*
G02*
X4375000Y-10025000I-250000J0D01*
G01*
X3700000Y-10025000D01*
G75*
G02*
X3450000Y-9775000I0J250000D01*
G01*
X3450000Y-8825000D01*
G75*
G02*
X3700000Y-8575000I250000J0D01*
G01*
X4375000Y-8575000D01*
G75*
G02*
X4625000Y-8825000I0J-250000D01*
G01*
G37*
G36*
G01*
X2550000Y-8825000D02*
X2550000Y-9775000D01*
G75*
G02*
X2300000Y-10025000I-250000J0D01*
G01*
X1625000Y-10025000D01*
G75*
G02*
X1375000Y-9775000I0J250000D01*
G01*
X1375000Y-8825000D01*
G75*
G02*
X1625000Y-8575000I250000J0D01*
G01*
X2300000Y-8575000D01*
G75*
G02*
X2550000Y-8825000I0J-250000D01*
G01*
G37*
G36*
G01*
X10650000Y-13725000D02*
X9350000Y-13725000D01*
G75*
G02*
X9100000Y-13475000I0J250000D01*
G01*
X9100000Y-12650000D01*
G75*
G02*
X9350000Y-12400000I250000J0D01*
G01*
X10650000Y-12400000D01*
G75*
G02*
X10900000Y-12650000I0J-250000D01*
G01*
X10900000Y-13475000D01*
G75*
G02*
X10650000Y-13725000I-250000J0D01*
G01*
G37*
G36*
G01*
X10650000Y-10600000D02*
X9350000Y-10600000D01*
G75*
G02*
X9100000Y-10350000I0J250000D01*
G01*
X9100000Y-9525000D01*
G75*
G02*
X9350000Y-9275000I250000J0D01*
G01*
X10650000Y-9275000D01*
G75*
G02*
X10900000Y-9525000I0J-250000D01*
G01*
X10900000Y-10350000D01*
G75*
G02*
X10650000Y-10600000I-250000J0D01*
G01*
G37*
M02*
