G04 #@! TF.GenerationSoftware,KiCad,Pcbnew,7.0.5.1-1-g8f565ef7f0-dirty-deb11*
G04 #@! TF.CreationDate,2023-06-01T06:03:30+00:00*
G04 #@! TF.ProjectId,pedalboard-led-ring,70656461-6c62-46f6-9172-642d6c65642d,1.0.0*
G04 #@! TF.SameCoordinates,Original*
G04 #@! TF.FileFunction,Copper,L2,Bot*
G04 #@! TF.FilePolarity,Positive*
%FSLAX46Y46*%
G04 Gerber Fmt 4.6, Leading zero omitted, Abs format (unit mm)*
G04 Created by KiCad (PCBNEW 7.0.5.1-1-g8f565ef7f0-dirty-deb11) date 2023-06-01 06:03:30*
%MOMM*%
%LPD*%
G01*
G04 APERTURE LIST*
G04 #@! TA.AperFunction,SMDPad,CuDef*
%ADD10R,1.000000X2.750000*%
G04 #@! TD*
G04 #@! TA.AperFunction,ViaPad*
%ADD11C,0.800000*%
G04 #@! TD*
G04 #@! TA.AperFunction,Conductor*
%ADD12C,0.250000*%
G04 #@! TD*
G04 APERTURE END LIST*
D10*
X12000000Y3125000D03*
X12000000Y-3125000D03*
X10000000Y3125000D03*
X10000000Y-3125000D03*
D11*
X9500000Y-1100000D03*
X8100000Y-3100000D03*
X9726279Y-5153590D03*
X-11000000Y-400000D03*
X400000Y-11000000D03*
X5153590Y9726279D03*
X-5846410Y9326279D03*
X-400000Y11000000D03*
X-9726279Y5153590D03*
X9326279Y5846410D03*
X5846410Y-9326279D03*
X-5153590Y-9726279D03*
X11000000Y400000D03*
X-9326279Y-5846410D03*
X12000000Y-5000000D03*
X13000000Y-1200000D03*
X13000000Y-2600000D03*
X13000000Y-5000000D03*
X13000000Y-3800000D03*
X12000000Y-1200000D03*
D12*
X10000000Y-670498D02*
X10000000Y3125000D01*
X9500000Y-1170498D02*
X10000000Y-670498D01*
X8100000Y-3100000D02*
X9975000Y-3100000D01*
X13000000Y-5000000D02*
X13000000Y-1200000D01*
X13000000Y-2600000D02*
X12525000Y-2600000D01*
X12675000Y-3800000D02*
X12000000Y-3125000D01*
X13000000Y-3800000D02*
X12675000Y-3800000D01*
X12000000Y-3125000D02*
X12000000Y-5000000D01*
X12000000Y-5000000D02*
X13000000Y-5000000D01*
X12525000Y-2600000D02*
X12000000Y-3125000D01*
X13000000Y-1200000D02*
X12000000Y-1200000D01*
X12000000Y-1200000D02*
X12000000Y-3125000D01*
G04 #@! TA.AperFunction,Conductor*
G36*
X13002697Y13999264D02*
G01*
X13045491Y13995520D01*
X13171776Y13983082D01*
X13191685Y13979459D01*
X13257426Y13961844D01*
X13259208Y13961336D01*
X13351570Y13933318D01*
X13367959Y13927048D01*
X13435396Y13895601D01*
X13438375Y13894112D01*
X13475969Y13874018D01*
X13522327Y13849238D01*
X13528667Y13845343D01*
X13594828Y13799017D01*
X13598600Y13796156D01*
X13670808Y13736897D01*
X13675309Y13732818D01*
X13732815Y13675312D01*
X13736895Y13670810D01*
X13796154Y13598602D01*
X13799015Y13594830D01*
X13845341Y13528669D01*
X13849236Y13522329D01*
X13894101Y13438395D01*
X13895613Y13435370D01*
X13927041Y13367973D01*
X13933319Y13351564D01*
X13961303Y13259316D01*
X13961860Y13257364D01*
X13979454Y13191702D01*
X13983082Y13171762D01*
X13995522Y13045447D01*
X13999263Y13002697D01*
X13999499Y12997290D01*
X13999499Y-12997289D01*
X13999263Y-13002697D01*
X13995522Y-13045445D01*
X13983082Y-13171760D01*
X13979454Y-13191700D01*
X13961860Y-13257362D01*
X13961303Y-13259314D01*
X13933319Y-13351562D01*
X13927041Y-13367971D01*
X13895613Y-13435368D01*
X13894101Y-13438393D01*
X13849236Y-13522327D01*
X13845341Y-13528667D01*
X13799015Y-13594828D01*
X13796154Y-13598600D01*
X13736895Y-13670808D01*
X13732806Y-13675320D01*
X13675320Y-13732806D01*
X13670808Y-13736895D01*
X13598600Y-13796154D01*
X13594828Y-13799015D01*
X13528667Y-13845341D01*
X13522327Y-13849236D01*
X13438393Y-13894101D01*
X13435368Y-13895613D01*
X13367971Y-13927041D01*
X13351562Y-13933319D01*
X13259314Y-13961303D01*
X13257362Y-13961860D01*
X13191700Y-13979454D01*
X13171760Y-13983082D01*
X13045446Y-13995522D01*
X13007251Y-13998865D01*
X13002694Y-13999264D01*
X12997291Y-13999500D01*
X-12997291Y-13999500D01*
X-13002695Y-13999264D01*
X-13007663Y-13998829D01*
X-13045448Y-13995522D01*
X-13171762Y-13983082D01*
X-13191702Y-13979454D01*
X-13257364Y-13961860D01*
X-13259289Y-13961310D01*
X-13296887Y-13949905D01*
X-13351564Y-13933319D01*
X-13367973Y-13927041D01*
X-13435370Y-13895613D01*
X-13438395Y-13894101D01*
X-13522329Y-13849236D01*
X-13528669Y-13845341D01*
X-13594830Y-13799015D01*
X-13598602Y-13796154D01*
X-13670810Y-13736895D01*
X-13675312Y-13732815D01*
X-13732818Y-13675309D01*
X-13736897Y-13670808D01*
X-13796156Y-13598600D01*
X-13799017Y-13594828D01*
X-13845343Y-13528667D01*
X-13849238Y-13522327D01*
X-13874018Y-13475969D01*
X-13894112Y-13438375D01*
X-13895601Y-13435396D01*
X-13927048Y-13367959D01*
X-13933318Y-13351570D01*
X-13961336Y-13259208D01*
X-13961844Y-13257426D01*
X-13979459Y-13191685D01*
X-13983082Y-13171776D01*
X-13995524Y-13045445D01*
X-13999264Y-13002696D01*
X-13999500Y-12997291D01*
X-13999500Y-10D01*
X-6105452Y-10D01*
X-6085656Y-491268D01*
X-6085654Y-491284D01*
X-6026388Y-979388D01*
X-5928038Y-1461136D01*
X-5791243Y-1933407D01*
X-5616886Y-2393143D01*
X-5442010Y-2761685D01*
X-5425977Y-2795475D01*
X-5406106Y-2837351D01*
X-5160266Y-3263158D01*
X-5160261Y-3263164D01*
X-5134413Y-3300611D01*
X-4897954Y-3643182D01*
X-4880951Y-3667814D01*
X-4570009Y-4048649D01*
X-4569993Y-4048667D01*
X-4229393Y-4403269D01*
X-4229388Y-4403274D01*
X-3861370Y-4729310D01*
X-3760326Y-4805239D01*
X-3468292Y-5024688D01*
X-3052726Y-5287477D01*
X-3052723Y-5287479D01*
X-3052719Y-5287481D01*
X-3020246Y-5304524D01*
X-2617362Y-5515973D01*
X-2165023Y-5708697D01*
X-1698643Y-5864397D01*
X-1221247Y-5982065D01*
X-1221233Y-5982067D01*
X-1221226Y-5982069D01*
X-772285Y-6055028D01*
X-735931Y-6060936D01*
X-245842Y-6100500D01*
X-245832Y-6100500D01*
X245832Y-6100500D01*
X245842Y-6100500D01*
X735931Y-6060936D01*
X884532Y-6036786D01*
X1221225Y-5982069D01*
X1221229Y-5982067D01*
X1221247Y-5982065D01*
X1698643Y-5864397D01*
X2165023Y-5708697D01*
X2617362Y-5515973D01*
X3052726Y-5287477D01*
X3468292Y-5024688D01*
X3861365Y-4729313D01*
X3861364Y-4729313D01*
X3861369Y-4729310D01*
X4229387Y-4403274D01*
X4229386Y-4403274D01*
X4229395Y-4403267D01*
X4569996Y-4048664D01*
X4880959Y-3667803D01*
X5160267Y-3263155D01*
X5254465Y-3100000D01*
X7444722Y-3100000D01*
X7463762Y-3256818D01*
X7480371Y-3300611D01*
X7519780Y-3404523D01*
X7609517Y-3534530D01*
X7727760Y-3639283D01*
X7727762Y-3639284D01*
X7867634Y-3712696D01*
X8021014Y-3750500D01*
X8021015Y-3750500D01*
X8178985Y-3750500D01*
X8332365Y-3712696D01*
X8417900Y-3667803D01*
X8472240Y-3639283D01*
X8590483Y-3534530D01*
X8594257Y-3529061D01*
X8648537Y-3485071D01*
X8696308Y-3475500D01*
X9125500Y-3475500D01*
X9192539Y-3495185D01*
X9238294Y-3547989D01*
X9249500Y-3599500D01*
X9249500Y-4524678D01*
X9264032Y-4597735D01*
X9264033Y-4597739D01*
X9264034Y-4597740D01*
X9319399Y-4680601D01*
X9392303Y-4729313D01*
X9402260Y-4735966D01*
X9402264Y-4735967D01*
X9475321Y-4750499D01*
X9475324Y-4750500D01*
X9475326Y-4750500D01*
X10524676Y-4750500D01*
X10524677Y-4750499D01*
X10597740Y-4735966D01*
X10680601Y-4680601D01*
X10735966Y-4597740D01*
X10750500Y-4524676D01*
X11249499Y-4524676D01*
X11249500Y-4524678D01*
X11264032Y-4597735D01*
X11264033Y-4597739D01*
X11264034Y-4597740D01*
X11319399Y-4680601D01*
X11321947Y-4682303D01*
X11326249Y-4687451D01*
X11328035Y-4689237D01*
X11327875Y-4689396D01*
X11366751Y-4735914D01*
X11375460Y-4805239D01*
X11369000Y-4829371D01*
X11363764Y-4843177D01*
X11363762Y-4843185D01*
X11344722Y-4999999D01*
X11344722Y-5000000D01*
X11363762Y-5156818D01*
X11411360Y-5282322D01*
X11419780Y-5304523D01*
X11509517Y-5434530D01*
X11627760Y-5539283D01*
X11627762Y-5539284D01*
X11767634Y-5612696D01*
X11921014Y-5650500D01*
X11921015Y-5650500D01*
X12078985Y-5650500D01*
X12232365Y-5612696D01*
X12372237Y-5539285D01*
X12372238Y-5539283D01*
X12372240Y-5539283D01*
X12417774Y-5498943D01*
X12481004Y-5469224D01*
X12550268Y-5478406D01*
X12582225Y-5498944D01*
X12627759Y-5539282D01*
X12627761Y-5539284D01*
X12767634Y-5612696D01*
X12921014Y-5650500D01*
X12921015Y-5650500D01*
X13078985Y-5650500D01*
X13232365Y-5612696D01*
X13232365Y-5612695D01*
X13372240Y-5539283D01*
X13490483Y-5434530D01*
X13580220Y-5304523D01*
X13636237Y-5156818D01*
X13655278Y-5000000D01*
X13636237Y-4843182D01*
X13580220Y-4695477D01*
X13490483Y-4565470D01*
X13490481Y-4565468D01*
X13417273Y-4500611D01*
X13380146Y-4441422D01*
X13375500Y-4407796D01*
X13375500Y-4392202D01*
X13395185Y-4325163D01*
X13417274Y-4299386D01*
X13490482Y-4234531D01*
X13490483Y-4234530D01*
X13580220Y-4104523D01*
X13636237Y-3956818D01*
X13655278Y-3800000D01*
X13644678Y-3712696D01*
X13636237Y-3643181D01*
X13600135Y-3547989D01*
X13580220Y-3495477D01*
X13490483Y-3365470D01*
X13490481Y-3365468D01*
X13417273Y-3300611D01*
X13380146Y-3241422D01*
X13375500Y-3207796D01*
X13375500Y-3192202D01*
X13395185Y-3125163D01*
X13417274Y-3099386D01*
X13490482Y-3034531D01*
X13490483Y-3034530D01*
X13580220Y-2904523D01*
X13636237Y-2756818D01*
X13655278Y-2600000D01*
X13636237Y-2443182D01*
X13580220Y-2295477D01*
X13490483Y-2165470D01*
X13490481Y-2165468D01*
X13417273Y-2100611D01*
X13380146Y-2041422D01*
X13375500Y-2007796D01*
X13375500Y-1792202D01*
X13395185Y-1725163D01*
X13417274Y-1699386D01*
X13490482Y-1634531D01*
X13490483Y-1634530D01*
X13580220Y-1504523D01*
X13636237Y-1356818D01*
X13655278Y-1200000D01*
X13636237Y-1043182D01*
X13580220Y-895477D01*
X13490483Y-765470D01*
X13372240Y-660717D01*
X13372238Y-660716D01*
X13372237Y-660715D01*
X13232365Y-587303D01*
X13078986Y-549500D01*
X13078985Y-549500D01*
X12921015Y-549500D01*
X12921014Y-549500D01*
X12767634Y-587303D01*
X12627761Y-660715D01*
X12627759Y-660717D01*
X12582224Y-701056D01*
X12518990Y-730776D01*
X12449727Y-721591D01*
X12417774Y-701056D01*
X12372240Y-660717D01*
X12372237Y-660714D01*
X12232365Y-587303D01*
X12078986Y-549500D01*
X12078985Y-549500D01*
X11921015Y-549500D01*
X11921014Y-549500D01*
X11767634Y-587303D01*
X11627762Y-660715D01*
X11509516Y-765471D01*
X11419781Y-895475D01*
X11419780Y-895476D01*
X11363762Y-1043181D01*
X11344722Y-1199999D01*
X11344722Y-1200000D01*
X11363763Y-1356818D01*
X11384127Y-1410514D01*
X11389494Y-1480177D01*
X11356347Y-1541683D01*
X11337078Y-1557586D01*
X11319399Y-1569398D01*
X11264033Y-1652260D01*
X11264032Y-1652264D01*
X11249500Y-1725321D01*
X11249499Y-1725323D01*
X11249499Y-4524676D01*
X10750500Y-4524676D01*
X10750500Y-4524674D01*
X10750500Y-1725326D01*
X10750500Y-1725323D01*
X10750499Y-1725321D01*
X10735967Y-1652264D01*
X10735966Y-1652260D01*
X10724119Y-1634530D01*
X10680601Y-1569399D01*
X10597740Y-1514034D01*
X10597739Y-1514033D01*
X10597735Y-1514032D01*
X10524677Y-1499500D01*
X10524674Y-1499500D01*
X10223845Y-1499500D01*
X10156806Y-1479815D01*
X10111051Y-1427011D01*
X10101107Y-1357853D01*
X10107903Y-1331529D01*
X10110132Y-1325649D01*
X10136237Y-1256818D01*
X10155278Y-1100000D01*
X10155278Y-1099999D01*
X10155278Y-1097619D01*
X10155770Y-1095940D01*
X10156182Y-1092555D01*
X10156744Y-1092623D01*
X10174963Y-1030580D01*
X10191596Y-1009939D01*
X10191595Y-1009939D01*
X10228891Y-972643D01*
X10248741Y-956523D01*
X10257836Y-950582D01*
X10279644Y-922560D01*
X10284721Y-916814D01*
X10287520Y-914016D01*
X10300354Y-896038D01*
X10301877Y-893996D01*
X10334807Y-851690D01*
X10338547Y-844778D01*
X10342006Y-837701D01*
X10342010Y-837697D01*
X10357319Y-786270D01*
X10358073Y-783917D01*
X10375500Y-733158D01*
X10375500Y-733154D01*
X10376790Y-725422D01*
X10377768Y-717583D01*
X10375553Y-664025D01*
X10375500Y-661462D01*
X10375500Y1375500D01*
X10395185Y1442539D01*
X10447989Y1488294D01*
X10499500Y1499500D01*
X10524676Y1499500D01*
X10524677Y1499501D01*
X10597740Y1514034D01*
X10680601Y1569399D01*
X10735966Y1652260D01*
X10750500Y1725326D01*
X10750500Y2875000D01*
X11000000Y2875000D01*
X11000000Y1702156D01*
X11006401Y1642628D01*
X11006403Y1642621D01*
X11056645Y1507914D01*
X11056649Y1507907D01*
X11142809Y1392813D01*
X11142812Y1392810D01*
X11257906Y1306650D01*
X11257913Y1306646D01*
X11392620Y1256404D01*
X11392627Y1256402D01*
X11452155Y1250001D01*
X11452172Y1250000D01*
X11750000Y1250000D01*
X11750000Y2875000D01*
X12250000Y2875000D01*
X12250000Y1250000D01*
X12547828Y1250000D01*
X12547844Y1250001D01*
X12607372Y1256402D01*
X12607379Y1256404D01*
X12742086Y1306646D01*
X12742093Y1306650D01*
X12857187Y1392810D01*
X12857190Y1392813D01*
X12943350Y1507907D01*
X12943354Y1507914D01*
X12993596Y1642621D01*
X12993598Y1642628D01*
X12999999Y1702156D01*
X13000000Y1702173D01*
X13000000Y2875000D01*
X12250000Y2875000D01*
X11750000Y2875000D01*
X11000000Y2875000D01*
X10750500Y2875000D01*
X10750500Y3375000D01*
X11000000Y3375000D01*
X11750000Y3375000D01*
X11750000Y5000000D01*
X12250000Y5000000D01*
X12250000Y3375000D01*
X13000000Y3375000D01*
X13000000Y4547828D01*
X12999999Y4547845D01*
X12993598Y4607373D01*
X12993596Y4607380D01*
X12943354Y4742087D01*
X12943350Y4742094D01*
X12857190Y4857188D01*
X12857187Y4857191D01*
X12742093Y4943351D01*
X12742086Y4943355D01*
X12607379Y4993597D01*
X12607372Y4993599D01*
X12547844Y5000000D01*
X12250000Y5000000D01*
X11750000Y5000000D01*
X11452155Y5000000D01*
X11392627Y4993599D01*
X11392620Y4993597D01*
X11257913Y4943355D01*
X11257906Y4943351D01*
X11142812Y4857191D01*
X11142809Y4857188D01*
X11056649Y4742094D01*
X11056645Y4742087D01*
X11006403Y4607380D01*
X11006401Y4607373D01*
X11000000Y4547845D01*
X11000000Y3375000D01*
X10750500Y3375000D01*
X10750500Y4524674D01*
X10750500Y4524675D01*
X10750500Y4524677D01*
X10750499Y4524679D01*
X10735967Y4597736D01*
X10735966Y4597740D01*
X10735965Y4597741D01*
X10680601Y4680601D01*
X10597740Y4735966D01*
X10597739Y4735967D01*
X10597735Y4735968D01*
X10524677Y4750500D01*
X10524674Y4750500D01*
X9475326Y4750500D01*
X9475323Y4750500D01*
X9402264Y4735968D01*
X9402260Y4735967D01*
X9319399Y4680601D01*
X9264033Y4597740D01*
X9264032Y4597736D01*
X9249500Y4524679D01*
X9249499Y4524677D01*
X9249499Y1725324D01*
X9249500Y1725322D01*
X9264032Y1652265D01*
X9264033Y1652261D01*
X9264034Y1652260D01*
X9319399Y1569399D01*
X9402260Y1514034D01*
X9402264Y1514033D01*
X9475321Y1499501D01*
X9475324Y1499500D01*
X9475326Y1499500D01*
X9500500Y1499500D01*
X9567539Y1479815D01*
X9613294Y1427011D01*
X9624500Y1375500D01*
X9624500Y-325500D01*
X9604815Y-392539D01*
X9552011Y-438294D01*
X9500500Y-449500D01*
X9421014Y-449500D01*
X9267634Y-487303D01*
X9127762Y-560715D01*
X9127759Y-560717D01*
X9127760Y-560717D01*
X9014886Y-660714D01*
X9009516Y-665471D01*
X8919781Y-795475D01*
X8919780Y-795476D01*
X8863762Y-943181D01*
X8844722Y-1099999D01*
X8844722Y-1100000D01*
X8863762Y-1256818D01*
X8892097Y-1331529D01*
X8919780Y-1404523D01*
X9009517Y-1534530D01*
X9127760Y-1639283D01*
X9183127Y-1668342D01*
X9233338Y-1716924D01*
X9249500Y-1778137D01*
X9249500Y-2600500D01*
X9229815Y-2667539D01*
X9177011Y-2713294D01*
X9125500Y-2724500D01*
X8696308Y-2724500D01*
X8629269Y-2704815D01*
X8594257Y-2670938D01*
X8590483Y-2665470D01*
X8472240Y-2560717D01*
X8472238Y-2560716D01*
X8472237Y-2560715D01*
X8332365Y-2487303D01*
X8178986Y-2449500D01*
X8178985Y-2449500D01*
X8021015Y-2449500D01*
X8021014Y-2449500D01*
X7867634Y-2487303D01*
X7727762Y-2560715D01*
X7609516Y-2665471D01*
X7519781Y-2795475D01*
X7519780Y-2795476D01*
X7463762Y-2943181D01*
X7444722Y-3099999D01*
X7444722Y-3100000D01*
X5254465Y-3100000D01*
X5406109Y-2837345D01*
X5616890Y-2393133D01*
X5791244Y-1933401D01*
X5928039Y-1461130D01*
X6026388Y-979383D01*
X6085654Y-491285D01*
X6085655Y-491268D01*
X6105452Y-10D01*
X6105452Y11D01*
X6085655Y491269D01*
X6085654Y491274D01*
X6085654Y491285D01*
X6026388Y979383D01*
X5928039Y1461130D01*
X5896679Y1569399D01*
X5791242Y1933408D01*
X5714261Y2136387D01*
X5616890Y2393133D01*
X5406109Y2837345D01*
X5160267Y3263155D01*
X5160265Y3263159D01*
X5160260Y3263165D01*
X4883427Y3664227D01*
X4880959Y3667803D01*
X4880954Y3667809D01*
X4880950Y3667815D01*
X4570008Y4048650D01*
X4569992Y4048668D01*
X4229392Y4403270D01*
X4229387Y4403275D01*
X3861369Y4729311D01*
X3664828Y4877001D01*
X3468292Y5024688D01*
X3052726Y5287477D01*
X3052725Y5287478D01*
X3052718Y5287482D01*
X2617356Y5515976D01*
X2439815Y5591619D01*
X2165023Y5708697D01*
X2165015Y5708700D01*
X2165012Y5708701D01*
X1934540Y5785644D01*
X1698643Y5864397D01*
X1698639Y5864398D01*
X1698632Y5864400D01*
X1515704Y5909488D01*
X1221247Y5982065D01*
X1221241Y5982066D01*
X1221237Y5982067D01*
X1221225Y5982070D01*
X735936Y6060936D01*
X245851Y6100500D01*
X245842Y6100500D01*
X-245842Y6100500D01*
X-245852Y6100500D01*
X-735937Y6060936D01*
X-1221226Y5982070D01*
X-1221238Y5982067D01*
X-1221245Y5982066D01*
X-1221247Y5982065D01*
X-1244908Y5976233D01*
X-1698633Y5864400D01*
X-1698640Y5864398D01*
X-2165013Y5708701D01*
X-2165021Y5708698D01*
X-2165023Y5708697D01*
X-2269309Y5664266D01*
X-2617357Y5515976D01*
X-3052719Y5287482D01*
X-3468287Y5024692D01*
X-3468289Y5024690D01*
X-3861370Y4729311D01*
X-4229388Y4403275D01*
X-4229393Y4403270D01*
X-4569993Y4048668D01*
X-4570009Y4048650D01*
X-4880951Y3667815D01*
X-5160261Y3263165D01*
X-5160266Y3263159D01*
X-5406106Y2837352D01*
X-5616886Y2393144D01*
X-5791243Y1933408D01*
X-5928038Y1461137D01*
X-6026388Y979389D01*
X-6085654Y491285D01*
X-6085656Y491269D01*
X-6105452Y11D01*
X-6105452Y-10D01*
X-13999500Y-10D01*
X-13999500Y12997294D01*
X-13999264Y13002700D01*
X-13995526Y13045423D01*
X-13994269Y13058188D01*
X-13983082Y13171779D01*
X-13979460Y13191682D01*
X-13961835Y13257460D01*
X-13961345Y13259178D01*
X-13933315Y13351581D01*
X-13927052Y13367951D01*
X-13895587Y13435427D01*
X-13894128Y13438347D01*
X-13849236Y13522334D01*
X-13845343Y13528669D01*
X-13812163Y13576055D01*
X-13799006Y13594845D01*
X-13796173Y13598580D01*
X-13736878Y13670832D01*
X-13732838Y13675290D01*
X-13675290Y13732838D01*
X-13670832Y13736878D01*
X-13598580Y13796173D01*
X-13594845Y13799006D01*
X-13528666Y13845346D01*
X-13522334Y13849236D01*
X-13438347Y13894128D01*
X-13435427Y13895587D01*
X-13367951Y13927052D01*
X-13351581Y13933315D01*
X-13259178Y13961345D01*
X-13257460Y13961835D01*
X-13191682Y13979460D01*
X-13171779Y13983082D01*
X-13058188Y13994269D01*
X-13045432Y13995526D01*
X-13002695Y13999265D01*
X-12997294Y13999500D01*
X12997292Y13999500D01*
X13002697Y13999264D01*
G37*
G04 #@! TD.AperFunction*
M02*
