G04 #@! TF.GenerationSoftware,KiCad,Pcbnew,7.0.5.1-1-g8f565ef7f0-dirty-deb11*
G04 #@! TF.CreationDate,2023-06-05T16:08:51+00:00*
G04 #@! TF.ProjectId,pedalboard-led-ring,70656461-6c62-46f6-9172-642d6c65642d,1.0.0*
G04 #@! TF.SameCoordinates,Original*
G04 #@! TF.FileFunction,Copper,L1,Top*
G04 #@! TF.FilePolarity,Positive*
%FSLAX46Y46*%
G04 Gerber Fmt 4.6, Leading zero omitted, Abs format (unit mm)*
G04 Created by KiCad (PCBNEW 7.0.5.1-1-g8f565ef7f0-dirty-deb11) date 2023-06-05 16:08:51*
%MOMM*%
%LPD*%
G01*
G04 APERTURE LIST*
G04 #@! TA.AperFunction,SMDPad,CuDef*
%ADD10R,0.500000X0.500000*%
G04 #@! TD*
G04 #@! TA.AperFunction,ViaPad*
%ADD11C,0.800000*%
G04 #@! TD*
G04 #@! TA.AperFunction,Conductor*
%ADD12C,0.250000*%
G04 #@! TD*
G04 APERTURE END LIST*
G04 #@! TA.AperFunction,SMDPad,CuDef*
G36*
X4676795Y-8500446D02*
G01*
X4243783Y-8750446D01*
X3993783Y-8317434D01*
X4426795Y-8067434D01*
X4676795Y-8500446D01*
G37*
G04 #@! TD.AperFunction*
G04 #@! TA.AperFunction,SMDPad,CuDef*
G36*
X5456217Y-8050446D02*
G01*
X5023205Y-8300446D01*
X4773205Y-7867434D01*
X5206217Y-7617434D01*
X5456217Y-8050446D01*
G37*
G04 #@! TD.AperFunction*
G04 #@! TA.AperFunction,SMDPad,CuDef*
G36*
X5006217Y-7271024D02*
G01*
X4573205Y-7521024D01*
X4323205Y-7088012D01*
X4756217Y-6838012D01*
X5006217Y-7271024D01*
G37*
G04 #@! TD.AperFunction*
G04 #@! TA.AperFunction,SMDPad,CuDef*
G36*
X4226795Y-7721024D02*
G01*
X3793783Y-7971024D01*
X3543783Y-7538012D01*
X3976795Y-7288012D01*
X4226795Y-7721024D01*
G37*
G04 #@! TD.AperFunction*
G04 #@! TA.AperFunction,SMDPad,CuDef*
G36*
G01*
X-1450000Y9665000D02*
X-1250000Y9665000D01*
G75*
G02*
X-1150000Y9565000I0J-100000D01*
G01*
X-1150000Y9130000D01*
G75*
G02*
X-1250000Y9030000I-100000J0D01*
G01*
X-1450000Y9030000D01*
G75*
G02*
X-1550000Y9130000I0J100000D01*
G01*
X-1550000Y9565000D01*
G75*
G02*
X-1450000Y9665000I100000J0D01*
G01*
G37*
G04 #@! TD.AperFunction*
G04 #@! TA.AperFunction,SMDPad,CuDef*
G36*
G01*
X-1450000Y8850000D02*
X-1250000Y8850000D01*
G75*
G02*
X-1150000Y8750000I0J-100000D01*
G01*
X-1150000Y8315000D01*
G75*
G02*
X-1250000Y8215000I-100000J0D01*
G01*
X-1450000Y8215000D01*
G75*
G02*
X-1550000Y8315000I0J100000D01*
G01*
X-1550000Y8750000D01*
G75*
G02*
X-1450000Y8850000I100000J0D01*
G01*
G37*
G04 #@! TD.AperFunction*
G04 #@! TA.AperFunction,SMDPad,CuDef*
G36*
G01*
X-6088237Y7645136D02*
X-5915031Y7745136D01*
G75*
G02*
X-5778428Y7708533I50000J-86603D01*
G01*
X-5560928Y7331811D01*
G75*
G02*
X-5597531Y7195208I-86603J-50000D01*
G01*
X-5770737Y7095208D01*
G75*
G02*
X-5907340Y7131811I-50000J86603D01*
G01*
X-6124840Y7508533D01*
G75*
G02*
X-6088237Y7645136I86603J50000D01*
G01*
G37*
G04 #@! TD.AperFunction*
G04 #@! TA.AperFunction,SMDPad,CuDef*
G36*
G01*
X-5680737Y6939326D02*
X-5507531Y7039326D01*
G75*
G02*
X-5370928Y7002723I50000J-86603D01*
G01*
X-5153428Y6626001D01*
G75*
G02*
X-5190031Y6489398I-86603J-50000D01*
G01*
X-5363237Y6389398D01*
G75*
G02*
X-5499840Y6426001I-50000J86603D01*
G01*
X-5717340Y6802723D01*
G75*
G02*
X-5680737Y6939326I86603J50000D01*
G01*
G37*
G04 #@! TD.AperFunction*
D10*
X9450000Y-450000D03*
X9450000Y450000D03*
X8550000Y450000D03*
X8550000Y-450000D03*
X450000Y9450000D03*
X-450000Y9450000D03*
X-450000Y8550000D03*
X450000Y8550000D03*
G04 #@! TA.AperFunction,SMDPad,CuDef*
G36*
X8300446Y-5023205D02*
G01*
X8050446Y-5456217D01*
X7617434Y-5206217D01*
X7867434Y-4773205D01*
X8300446Y-5023205D01*
G37*
G04 #@! TD.AperFunction*
G04 #@! TA.AperFunction,SMDPad,CuDef*
G36*
X8750446Y-4243783D02*
G01*
X8500446Y-4676795D01*
X8067434Y-4426795D01*
X8317434Y-3993783D01*
X8750446Y-4243783D01*
G37*
G04 #@! TD.AperFunction*
G04 #@! TA.AperFunction,SMDPad,CuDef*
G36*
X7971024Y-3793783D02*
G01*
X7721024Y-4226795D01*
X7288012Y-3976795D01*
X7538012Y-3543783D01*
X7971024Y-3793783D01*
G37*
G04 #@! TD.AperFunction*
G04 #@! TA.AperFunction,SMDPad,CuDef*
G36*
X7521024Y-4573205D02*
G01*
X7271024Y-5006217D01*
X6838012Y-4756217D01*
X7088012Y-4323205D01*
X7521024Y-4573205D01*
G37*
G04 #@! TD.AperFunction*
G04 #@! TA.AperFunction,SMDPad,CuDef*
G36*
X-8500446Y-4676795D02*
G01*
X-8750446Y-4243783D01*
X-8317434Y-3993783D01*
X-8067434Y-4426795D01*
X-8500446Y-4676795D01*
G37*
G04 #@! TD.AperFunction*
G04 #@! TA.AperFunction,SMDPad,CuDef*
G36*
X-8050446Y-5456217D02*
G01*
X-8300446Y-5023205D01*
X-7867434Y-4773205D01*
X-7617434Y-5206217D01*
X-8050446Y-5456217D01*
G37*
G04 #@! TD.AperFunction*
G04 #@! TA.AperFunction,SMDPad,CuDef*
G36*
X-7271024Y-5006217D02*
G01*
X-7521024Y-4573205D01*
X-7088012Y-4323205D01*
X-6838012Y-4756217D01*
X-7271024Y-5006217D01*
G37*
G04 #@! TD.AperFunction*
G04 #@! TA.AperFunction,SMDPad,CuDef*
G36*
X-7721024Y-4226795D02*
G01*
X-7971024Y-3793783D01*
X-7538012Y-3543783D01*
X-7288012Y-3976795D01*
X-7721024Y-4226795D01*
G37*
G04 #@! TD.AperFunction*
X-450000Y-9450000D03*
X450000Y-9450000D03*
X450000Y-8550000D03*
X-450000Y-8550000D03*
X-9450000Y450000D03*
X-9450000Y-450000D03*
X-8550000Y-450000D03*
X-8550000Y450000D03*
G04 #@! TA.AperFunction,SMDPad,CuDef*
G36*
X-8300446Y5023205D02*
G01*
X-8050446Y5456217D01*
X-7617434Y5206217D01*
X-7867434Y4773205D01*
X-8300446Y5023205D01*
G37*
G04 #@! TD.AperFunction*
G04 #@! TA.AperFunction,SMDPad,CuDef*
G36*
X-8750446Y4243783D02*
G01*
X-8500446Y4676795D01*
X-8067434Y4426795D01*
X-8317434Y3993783D01*
X-8750446Y4243783D01*
G37*
G04 #@! TD.AperFunction*
G04 #@! TA.AperFunction,SMDPad,CuDef*
G36*
X-7971024Y3793783D02*
G01*
X-7721024Y4226795D01*
X-7288012Y3976795D01*
X-7538012Y3543783D01*
X-7971024Y3793783D01*
G37*
G04 #@! TD.AperFunction*
G04 #@! TA.AperFunction,SMDPad,CuDef*
G36*
X-7521024Y4573205D02*
G01*
X-7271024Y5006217D01*
X-6838012Y4756217D01*
X-7088012Y4323205D01*
X-7521024Y4573205D01*
G37*
G04 #@! TD.AperFunction*
G04 #@! TA.AperFunction,SMDPad,CuDef*
G36*
G01*
X-9665000Y-1450000D02*
X-9665000Y-1250000D01*
G75*
G02*
X-9565000Y-1150000I100000J0D01*
G01*
X-9130000Y-1150000D01*
G75*
G02*
X-9030000Y-1250000I0J-100000D01*
G01*
X-9030000Y-1450000D01*
G75*
G02*
X-9130000Y-1550000I-100000J0D01*
G01*
X-9565000Y-1550000D01*
G75*
G02*
X-9665000Y-1450000I0J100000D01*
G01*
G37*
G04 #@! TD.AperFunction*
G04 #@! TA.AperFunction,SMDPad,CuDef*
G36*
G01*
X-8850000Y-1450000D02*
X-8850000Y-1250000D01*
G75*
G02*
X-8750000Y-1150000I100000J0D01*
G01*
X-8315000Y-1150000D01*
G75*
G02*
X-8215000Y-1250000I0J-100000D01*
G01*
X-8215000Y-1450000D01*
G75*
G02*
X-8315000Y-1550000I-100000J0D01*
G01*
X-8750000Y-1550000D01*
G75*
G02*
X-8850000Y-1450000I0J100000D01*
G01*
G37*
G04 #@! TD.AperFunction*
G04 #@! TA.AperFunction,SMDPad,CuDef*
G36*
G01*
X-7645136Y-6088237D02*
X-7745136Y-5915031D01*
G75*
G02*
X-7708533Y-5778428I86603J50000D01*
G01*
X-7331811Y-5560928D01*
G75*
G02*
X-7195208Y-5597531I50000J-86603D01*
G01*
X-7095208Y-5770737D01*
G75*
G02*
X-7131811Y-5907340I-86603J-50000D01*
G01*
X-7508533Y-6124840D01*
G75*
G02*
X-7645136Y-6088237I-50000J86603D01*
G01*
G37*
G04 #@! TD.AperFunction*
G04 #@! TA.AperFunction,SMDPad,CuDef*
G36*
G01*
X-6939326Y-5680737D02*
X-7039326Y-5507531D01*
G75*
G02*
X-7002723Y-5370928I86603J50000D01*
G01*
X-6626001Y-5153428D01*
G75*
G02*
X-6489398Y-5190031I50000J-86603D01*
G01*
X-6389398Y-5363237D01*
G75*
G02*
X-6426001Y-5499840I-86603J-50000D01*
G01*
X-6802723Y-5717340D01*
G75*
G02*
X-6939326Y-5680737I-50000J86603D01*
G01*
G37*
G04 #@! TD.AperFunction*
G04 #@! TA.AperFunction,SMDPad,CuDef*
G36*
G01*
X-3576763Y-9095136D02*
X-3749969Y-8995136D01*
G75*
G02*
X-3786572Y-8858533I50000J86603D01*
G01*
X-3569072Y-8481811D01*
G75*
G02*
X-3432469Y-8445208I86603J-50000D01*
G01*
X-3259263Y-8545208D01*
G75*
G02*
X-3222660Y-8681811I-50000J-86603D01*
G01*
X-3440160Y-9058533D01*
G75*
G02*
X-3576763Y-9095136I-86603J50000D01*
G01*
G37*
G04 #@! TD.AperFunction*
G04 #@! TA.AperFunction,SMDPad,CuDef*
G36*
G01*
X-3169263Y-8389326D02*
X-3342469Y-8289326D01*
G75*
G02*
X-3379072Y-8152723I50000J86603D01*
G01*
X-3161572Y-7776001D01*
G75*
G02*
X-3024969Y-7739398I86603J-50000D01*
G01*
X-2851763Y-7839398D01*
G75*
G02*
X-2815160Y-7976001I-50000J-86603D01*
G01*
X-3032660Y-8352723D01*
G75*
G02*
X-3169263Y-8389326I-86603J50000D01*
G01*
G37*
G04 #@! TD.AperFunction*
G04 #@! TA.AperFunction,SMDPad,CuDef*
G36*
G01*
X6088237Y-7645136D02*
X5915031Y-7745136D01*
G75*
G02*
X5778428Y-7708533I-50000J86603D01*
G01*
X5560928Y-7331811D01*
G75*
G02*
X5597531Y-7195208I86603J50000D01*
G01*
X5770737Y-7095208D01*
G75*
G02*
X5907340Y-7131811I50000J-86603D01*
G01*
X6124840Y-7508533D01*
G75*
G02*
X6088237Y-7645136I-86603J-50000D01*
G01*
G37*
G04 #@! TD.AperFunction*
G04 #@! TA.AperFunction,SMDPad,CuDef*
G36*
G01*
X5680737Y-6939326D02*
X5507531Y-7039326D01*
G75*
G02*
X5370928Y-7002723I-50000J86603D01*
G01*
X5153428Y-6626001D01*
G75*
G02*
X5190031Y-6489398I86603J50000D01*
G01*
X5363237Y-6389398D01*
G75*
G02*
X5499840Y-6426001I50000J-86603D01*
G01*
X5717340Y-6802723D01*
G75*
G02*
X5680737Y-6939326I-86603J-50000D01*
G01*
G37*
G04 #@! TD.AperFunction*
G04 #@! TA.AperFunction,SMDPad,CuDef*
G36*
G01*
X-9095136Y3576763D02*
X-8995136Y3749969D01*
G75*
G02*
X-8858533Y3786572I86603J-50000D01*
G01*
X-8481811Y3569072D01*
G75*
G02*
X-8445208Y3432469I-50000J-86603D01*
G01*
X-8545208Y3259263D01*
G75*
G02*
X-8681811Y3222660I-86603J50000D01*
G01*
X-9058533Y3440160D01*
G75*
G02*
X-9095136Y3576763I50000J86603D01*
G01*
G37*
G04 #@! TD.AperFunction*
G04 #@! TA.AperFunction,SMDPad,CuDef*
G36*
G01*
X-8389326Y3169263D02*
X-8289326Y3342469D01*
G75*
G02*
X-8152723Y3379072I86603J-50000D01*
G01*
X-7776001Y3161572D01*
G75*
G02*
X-7739398Y3024969I-50000J-86603D01*
G01*
X-7839398Y2851763D01*
G75*
G02*
X-7976001Y2815160I-86603J50000D01*
G01*
X-8352723Y3032660D01*
G75*
G02*
X-8389326Y3169263I50000J86603D01*
G01*
G37*
G04 #@! TD.AperFunction*
G04 #@! TA.AperFunction,SMDPad,CuDef*
G36*
G01*
X1450000Y-9665000D02*
X1250000Y-9665000D01*
G75*
G02*
X1150000Y-9565000I0J100000D01*
G01*
X1150000Y-9130000D01*
G75*
G02*
X1250000Y-9030000I100000J0D01*
G01*
X1450000Y-9030000D01*
G75*
G02*
X1550000Y-9130000I0J-100000D01*
G01*
X1550000Y-9565000D01*
G75*
G02*
X1450000Y-9665000I-100000J0D01*
G01*
G37*
G04 #@! TD.AperFunction*
G04 #@! TA.AperFunction,SMDPad,CuDef*
G36*
G01*
X1450000Y-8850000D02*
X1250000Y-8850000D01*
G75*
G02*
X1150000Y-8750000I0J100000D01*
G01*
X1150000Y-8315000D01*
G75*
G02*
X1250000Y-8215000I100000J0D01*
G01*
X1450000Y-8215000D01*
G75*
G02*
X1550000Y-8315000I0J-100000D01*
G01*
X1550000Y-8750000D01*
G75*
G02*
X1450000Y-8850000I-100000J0D01*
G01*
G37*
G04 #@! TD.AperFunction*
G04 #@! TA.AperFunction,SMDPad,CuDef*
G36*
X8500446Y4676795D02*
G01*
X8750446Y4243783D01*
X8317434Y3993783D01*
X8067434Y4426795D01*
X8500446Y4676795D01*
G37*
G04 #@! TD.AperFunction*
G04 #@! TA.AperFunction,SMDPad,CuDef*
G36*
X8050446Y5456217D02*
G01*
X8300446Y5023205D01*
X7867434Y4773205D01*
X7617434Y5206217D01*
X8050446Y5456217D01*
G37*
G04 #@! TD.AperFunction*
G04 #@! TA.AperFunction,SMDPad,CuDef*
G36*
X7271024Y5006217D02*
G01*
X7521024Y4573205D01*
X7088012Y4323205D01*
X6838012Y4756217D01*
X7271024Y5006217D01*
G37*
G04 #@! TD.AperFunction*
G04 #@! TA.AperFunction,SMDPad,CuDef*
G36*
X7721024Y4226795D02*
G01*
X7971024Y3793783D01*
X7538012Y3543783D01*
X7288012Y3976795D01*
X7721024Y4226795D01*
G37*
G04 #@! TD.AperFunction*
G04 #@! TA.AperFunction,SMDPad,CuDef*
G36*
G01*
X9665000Y1450000D02*
X9665000Y1250000D01*
G75*
G02*
X9565000Y1150000I-100000J0D01*
G01*
X9130000Y1150000D01*
G75*
G02*
X9030000Y1250000I0J100000D01*
G01*
X9030000Y1450000D01*
G75*
G02*
X9130000Y1550000I100000J0D01*
G01*
X9565000Y1550000D01*
G75*
G02*
X9665000Y1450000I0J-100000D01*
G01*
G37*
G04 #@! TD.AperFunction*
G04 #@! TA.AperFunction,SMDPad,CuDef*
G36*
G01*
X8850000Y1450000D02*
X8850000Y1250000D01*
G75*
G02*
X8750000Y1150000I-100000J0D01*
G01*
X8315000Y1150000D01*
G75*
G02*
X8215000Y1250000I0J100000D01*
G01*
X8215000Y1450000D01*
G75*
G02*
X8315000Y1550000I100000J0D01*
G01*
X8750000Y1550000D01*
G75*
G02*
X8850000Y1450000I0J-100000D01*
G01*
G37*
G04 #@! TD.AperFunction*
G04 #@! TA.AperFunction,SMDPad,CuDef*
G36*
G01*
X7645136Y6088237D02*
X7745136Y5915031D01*
G75*
G02*
X7708533Y5778428I-86603J-50000D01*
G01*
X7331811Y5560928D01*
G75*
G02*
X7195208Y5597531I-50000J86603D01*
G01*
X7095208Y5770737D01*
G75*
G02*
X7131811Y5907340I86603J50000D01*
G01*
X7508533Y6124840D01*
G75*
G02*
X7645136Y6088237I50000J-86603D01*
G01*
G37*
G04 #@! TD.AperFunction*
G04 #@! TA.AperFunction,SMDPad,CuDef*
G36*
G01*
X6939326Y5680737D02*
X7039326Y5507531D01*
G75*
G02*
X7002723Y5370928I-86603J-50000D01*
G01*
X6626001Y5153428D01*
G75*
G02*
X6489398Y5190031I-50000J86603D01*
G01*
X6389398Y5363237D01*
G75*
G02*
X6426001Y5499840I86603J50000D01*
G01*
X6802723Y5717340D01*
G75*
G02*
X6939326Y5680737I50000J-86603D01*
G01*
G37*
G04 #@! TD.AperFunction*
G04 #@! TA.AperFunction,SMDPad,CuDef*
G36*
X-4676795Y8500446D02*
G01*
X-4243783Y8750446D01*
X-3993783Y8317434D01*
X-4426795Y8067434D01*
X-4676795Y8500446D01*
G37*
G04 #@! TD.AperFunction*
G04 #@! TA.AperFunction,SMDPad,CuDef*
G36*
X-5456217Y8050446D02*
G01*
X-5023205Y8300446D01*
X-4773205Y7867434D01*
X-5206217Y7617434D01*
X-5456217Y8050446D01*
G37*
G04 #@! TD.AperFunction*
G04 #@! TA.AperFunction,SMDPad,CuDef*
G36*
X-5006217Y7271024D02*
G01*
X-4573205Y7521024D01*
X-4323205Y7088012D01*
X-4756217Y6838012D01*
X-5006217Y7271024D01*
G37*
G04 #@! TD.AperFunction*
G04 #@! TA.AperFunction,SMDPad,CuDef*
G36*
X-4226795Y7721024D02*
G01*
X-3793783Y7971024D01*
X-3543783Y7538012D01*
X-3976795Y7288012D01*
X-4226795Y7721024D01*
G37*
G04 #@! TD.AperFunction*
G04 #@! TA.AperFunction,SMDPad,CuDef*
G36*
G01*
X9095136Y-3576763D02*
X8995136Y-3749969D01*
G75*
G02*
X8858533Y-3786572I-86603J50000D01*
G01*
X8481811Y-3569072D01*
G75*
G02*
X8445208Y-3432469I50000J86603D01*
G01*
X8545208Y-3259263D01*
G75*
G02*
X8681811Y-3222660I86603J-50000D01*
G01*
X9058533Y-3440160D01*
G75*
G02*
X9095136Y-3576763I-50000J-86603D01*
G01*
G37*
G04 #@! TD.AperFunction*
G04 #@! TA.AperFunction,SMDPad,CuDef*
G36*
G01*
X8389326Y-3169263D02*
X8289326Y-3342469D01*
G75*
G02*
X8152723Y-3379072I-86603J50000D01*
G01*
X7776001Y-3161572D01*
G75*
G02*
X7739398Y-3024969I50000J86603D01*
G01*
X7839398Y-2851763D01*
G75*
G02*
X7976001Y-2815160I86603J-50000D01*
G01*
X8352723Y-3032660D01*
G75*
G02*
X8389326Y-3169263I-50000J-86603D01*
G01*
G37*
G04 #@! TD.AperFunction*
G04 #@! TA.AperFunction,SMDPad,CuDef*
G36*
X-5023205Y-8300446D02*
G01*
X-5456217Y-8050446D01*
X-5206217Y-7617434D01*
X-4773205Y-7867434D01*
X-5023205Y-8300446D01*
G37*
G04 #@! TD.AperFunction*
G04 #@! TA.AperFunction,SMDPad,CuDef*
G36*
X-4243783Y-8750446D02*
G01*
X-4676795Y-8500446D01*
X-4426795Y-8067434D01*
X-3993783Y-8317434D01*
X-4243783Y-8750446D01*
G37*
G04 #@! TD.AperFunction*
G04 #@! TA.AperFunction,SMDPad,CuDef*
G36*
X-3793783Y-7971024D02*
G01*
X-4226795Y-7721024D01*
X-3976795Y-7288012D01*
X-3543783Y-7538012D01*
X-3793783Y-7971024D01*
G37*
G04 #@! TD.AperFunction*
G04 #@! TA.AperFunction,SMDPad,CuDef*
G36*
X-4573205Y-7521024D02*
G01*
X-5006217Y-7271024D01*
X-4756217Y-6838012D01*
X-4323205Y-7088012D01*
X-4573205Y-7521024D01*
G37*
G04 #@! TD.AperFunction*
G04 #@! TA.AperFunction,SMDPad,CuDef*
G36*
X5023205Y8300446D02*
G01*
X5456217Y8050446D01*
X5206217Y7617434D01*
X4773205Y7867434D01*
X5023205Y8300446D01*
G37*
G04 #@! TD.AperFunction*
G04 #@! TA.AperFunction,SMDPad,CuDef*
G36*
X4243783Y8750446D02*
G01*
X4676795Y8500446D01*
X4426795Y8067434D01*
X3993783Y8317434D01*
X4243783Y8750446D01*
G37*
G04 #@! TD.AperFunction*
G04 #@! TA.AperFunction,SMDPad,CuDef*
G36*
X3793783Y7971024D02*
G01*
X4226795Y7721024D01*
X3976795Y7288012D01*
X3543783Y7538012D01*
X3793783Y7971024D01*
G37*
G04 #@! TD.AperFunction*
G04 #@! TA.AperFunction,SMDPad,CuDef*
G36*
X4573205Y7521024D02*
G01*
X5006217Y7271024D01*
X4756217Y6838012D01*
X4323205Y7088012D01*
X4573205Y7521024D01*
G37*
G04 #@! TD.AperFunction*
G04 #@! TA.AperFunction,SMDPad,CuDef*
G36*
G01*
X9635000Y-1580000D02*
X9635000Y-1780000D01*
G75*
G02*
X9535000Y-1880000I-100000J0D01*
G01*
X9100000Y-1880000D01*
G75*
G02*
X9000000Y-1780000I0J100000D01*
G01*
X9000000Y-1580000D01*
G75*
G02*
X9100000Y-1480000I100000J0D01*
G01*
X9535000Y-1480000D01*
G75*
G02*
X9635000Y-1580000I0J-100000D01*
G01*
G37*
G04 #@! TD.AperFunction*
G04 #@! TA.AperFunction,SMDPad,CuDef*
G36*
G01*
X8820000Y-1580000D02*
X8820000Y-1780000D01*
G75*
G02*
X8720000Y-1880000I-100000J0D01*
G01*
X8285000Y-1880000D01*
G75*
G02*
X8185000Y-1780000I0J100000D01*
G01*
X8185000Y-1580000D01*
G75*
G02*
X8285000Y-1480000I100000J0D01*
G01*
X8720000Y-1480000D01*
G75*
G02*
X8820000Y-1580000I0J-100000D01*
G01*
G37*
G04 #@! TD.AperFunction*
G04 #@! TA.AperFunction,SMDPad,CuDef*
G36*
G01*
X3576763Y9095136D02*
X3749969Y8995136D01*
G75*
G02*
X3786572Y8858533I-50000J-86603D01*
G01*
X3569072Y8481811D01*
G75*
G02*
X3432469Y8445208I-86603J50000D01*
G01*
X3259263Y8545208D01*
G75*
G02*
X3222660Y8681811I50000J86603D01*
G01*
X3440160Y9058533D01*
G75*
G02*
X3576763Y9095136I86603J-50000D01*
G01*
G37*
G04 #@! TD.AperFunction*
G04 #@! TA.AperFunction,SMDPad,CuDef*
G36*
G01*
X3169263Y8389326D02*
X3342469Y8289326D01*
G75*
G02*
X3379072Y8152723I-50000J-86603D01*
G01*
X3161572Y7776001D01*
G75*
G02*
X3024969Y7739398I-86603J50000D01*
G01*
X2851763Y7839398D01*
G75*
G02*
X2815160Y7976001I50000J86603D01*
G01*
X3032660Y8352723D01*
G75*
G02*
X3169263Y8389326I86603J-50000D01*
G01*
G37*
G04 #@! TD.AperFunction*
D11*
X6800000Y-3600000D03*
X-6000000Y8000000D03*
X9928203Y1196152D03*
X-9928203Y-1196152D03*
X-3928203Y-9196152D03*
X1196152Y-9928203D03*
X3928203Y9196152D03*
X-8000000Y-6000000D03*
X6000000Y-7940000D03*
X-9196152Y3928203D03*
X8000000Y6000000D03*
X8260000Y-6020000D03*
X-1196152Y9928203D03*
X10400000Y-1400000D03*
X2900000Y-11400000D03*
X11150000Y-1400000D03*
X11150000Y-4850000D03*
X10400000Y-4850000D03*
X4900000Y-11400000D03*
X5700000Y-10500000D03*
X3900000Y-11400000D03*
X7910000Y-1150000D03*
D12*
X7370000Y2170000D02*
X8408940Y3208940D01*
X8550000Y450000D02*
X8070000Y450000D01*
X8070000Y450000D02*
X7370000Y1150000D01*
X8408940Y3208940D02*
X8408940Y4335289D01*
X7370000Y1150000D02*
X7370000Y2170000D01*
X9450000Y-450000D02*
X9495000Y-495000D01*
X9495000Y-495000D02*
X9495000Y-1467500D01*
X9495000Y-1467500D02*
X9300000Y-1662500D01*
X6240000Y4340000D02*
X6854807Y4340000D01*
X6220000Y6800000D02*
X5210000Y5790000D01*
X5114711Y7958940D02*
X5901060Y7958940D01*
X5210000Y5790000D02*
X5210000Y5370000D01*
X5901060Y7958940D02*
X6220000Y7640000D01*
X5210000Y5370000D02*
X6240000Y4340000D01*
X6220000Y7640000D02*
X6220000Y6800000D01*
X6854807Y4340000D02*
X7179518Y4664711D01*
X1350000Y9450000D02*
X450000Y9450000D01*
X3885289Y7629518D02*
X3295771Y7040000D01*
X1950000Y7500000D02*
X1950000Y8850000D01*
X2410000Y7040000D02*
X1950000Y7500000D01*
X3295771Y7040000D02*
X2410000Y7040000D01*
X1950000Y8850000D02*
X1350000Y9450000D01*
X-450000Y7920000D02*
X-1070000Y7300000D01*
X-450000Y8550000D02*
X-450000Y7920000D01*
X-1880000Y7300000D02*
X-2988940Y8408940D01*
X-1070000Y7300000D02*
X-1880000Y7300000D01*
X-2988940Y8408940D02*
X-4335289Y8408940D01*
X-5870000Y5310000D02*
X-6340000Y5780000D01*
X-4664711Y7004711D02*
X-4450000Y6790000D01*
X-7293651Y5780000D02*
X-7958940Y5114711D01*
X-4664711Y7179518D02*
X-4664711Y7004711D01*
X-4450000Y6160000D02*
X-5300000Y5310000D01*
X-6340000Y5780000D02*
X-7293651Y5780000D01*
X-4450000Y6790000D02*
X-4450000Y6160000D01*
X-5300000Y5310000D02*
X-5870000Y5310000D01*
X-7640000Y1630000D02*
X-8880000Y1630000D01*
X-8880000Y1630000D02*
X-9450000Y1060000D01*
X-6800000Y3055771D02*
X-6800000Y2470000D01*
X-6800000Y2470000D02*
X-7640000Y1630000D01*
X-7629518Y3885289D02*
X-6800000Y3055771D01*
X-9450000Y1060000D02*
X-9450000Y450000D01*
X7629518Y-3885289D02*
X7085289Y-3885289D01*
X7085289Y-3885289D02*
X6800000Y-3600000D01*
X450000Y-9450000D02*
X717949Y-9450000D01*
X-4335289Y-8789066D02*
X-3928203Y-9196152D01*
X717949Y-9450000D02*
X1196152Y-9928203D01*
X-8408940Y4335289D02*
X-8789066Y4335289D01*
X-9450000Y-450000D02*
X-9450000Y-717949D01*
X-7958940Y-5958940D02*
X-8000000Y-6000000D01*
X-717949Y9450000D02*
X-1196152Y9928203D01*
X6000000Y-7940000D02*
X5981060Y-7958940D01*
X8830000Y-5480000D02*
X8800000Y-5480000D01*
X8408940Y-4335289D02*
X8408940Y-3865848D01*
X7958940Y5958940D02*
X8000000Y6000000D01*
X-5958940Y7958940D02*
X-6000000Y8000000D01*
X-5114711Y7958940D02*
X-5958940Y7958940D01*
X-7958940Y-5114711D02*
X-7958940Y-5958940D01*
X9450000Y717949D02*
X9928203Y1196152D01*
X3928203Y9196152D02*
X4335289Y8789066D01*
X-4335289Y-8408940D02*
X-4335289Y-8789066D01*
X-450000Y9450000D02*
X-717949Y9450000D01*
X8800000Y-5480000D02*
X8260000Y-6020000D01*
X5981060Y-7958940D02*
X5114711Y-7958940D01*
X7958940Y5114711D02*
X7958940Y5958940D01*
X8408940Y-3865848D02*
X8770172Y-3504616D01*
X-9196152Y3928203D02*
X-8789066Y4335289D01*
X9450000Y450000D02*
X9450000Y717949D01*
X8830000Y-4756349D02*
X8830000Y-5480000D01*
X-9450000Y-717949D02*
X-9928203Y-1196152D01*
X4335289Y8408940D02*
X4335289Y8789066D01*
X8408940Y-4335289D02*
X8830000Y-4756349D01*
X-8730000Y-3380000D02*
X-8730000Y-4014229D01*
X-7300000Y-1950000D02*
X-8730000Y-3380000D01*
X-8730000Y-4014229D02*
X-8408940Y-4335289D01*
X-8550000Y-450000D02*
X-8140000Y-450000D01*
X-7300000Y-1290000D02*
X-7300000Y-1950000D01*
X-8140000Y-450000D02*
X-7300000Y-1290000D01*
X-5670000Y-6090000D02*
X-5670000Y-7403651D01*
X-5935289Y-4664711D02*
X-5340000Y-5260000D01*
X-5670000Y-7403651D02*
X-5114711Y-7958940D01*
X-5340000Y-5260000D02*
X-5340000Y-5760000D01*
X-7179518Y-4664711D02*
X-5935289Y-4664711D01*
X-5340000Y-5760000D02*
X-5670000Y-6090000D01*
X-3245771Y-6990000D02*
X-2320000Y-6990000D01*
X-1750000Y-8690000D02*
X-990000Y-9450000D01*
X-3885289Y-7629518D02*
X-3245771Y-6990000D01*
X-2320000Y-6990000D02*
X-1750000Y-7560000D01*
X-1750000Y-7560000D02*
X-1750000Y-8690000D01*
X-990000Y-9450000D02*
X-450000Y-9450000D01*
X4140000Y-6654807D02*
X4140000Y-6280000D01*
X5150000Y-5270000D02*
X5840000Y-5270000D01*
X5840000Y-5270000D02*
X6620000Y-6050000D01*
X6620000Y-6050000D02*
X7050000Y-6050000D01*
X7050000Y-6050000D02*
X7050000Y-6023651D01*
X7050000Y-6023651D02*
X7958940Y-5114711D01*
X4140000Y-6280000D02*
X5150000Y-5270000D01*
X4664711Y-7179518D02*
X4140000Y-6654807D01*
X970000Y-7190000D02*
X1870000Y-7190000D01*
X1870000Y-7190000D02*
X3088940Y-8408940D01*
X3088940Y-8408940D02*
X4335289Y-8408940D01*
X530000Y-8470000D02*
X530000Y-7630000D01*
X530000Y-7630000D02*
X970000Y-7190000D01*
X8390000Y-1680000D02*
X7910000Y-1200000D01*
G04 #@! TA.AperFunction,Conductor*
G36*
X11002140Y11999313D02*
G01*
X11045464Y11995523D01*
X11173816Y11982881D01*
X11189696Y11979992D01*
X11257626Y11961791D01*
X11259036Y11961388D01*
X11353264Y11932804D01*
X11366359Y11927793D01*
X11435690Y11895464D01*
X11438085Y11894267D01*
X11522989Y11848885D01*
X11528052Y11845775D01*
X11595221Y11798742D01*
X11598233Y11796457D01*
X11632865Y11768036D01*
X11671280Y11736509D01*
X11674877Y11733249D01*
X11733247Y11674879D01*
X11736512Y11671277D01*
X11796455Y11598235D01*
X11798740Y11595223D01*
X11845773Y11528054D01*
X11848883Y11522991D01*
X11894255Y11438107D01*
X11895462Y11435692D01*
X11927791Y11366361D01*
X11932804Y11353261D01*
X11961364Y11259113D01*
X11961809Y11257555D01*
X11979986Y11189718D01*
X11982882Y11173798D01*
X11995520Y11045475D01*
X11999311Y11002157D01*
X11999500Y10997839D01*
X11999500Y-10997837D01*
X11999311Y-11002155D01*
X11995520Y-11045473D01*
X11982882Y-11173796D01*
X11979986Y-11189716D01*
X11961809Y-11257553D01*
X11961364Y-11259111D01*
X11932804Y-11353259D01*
X11927791Y-11366359D01*
X11895462Y-11435690D01*
X11894255Y-11438105D01*
X11848883Y-11522989D01*
X11845773Y-11528052D01*
X11798740Y-11595221D01*
X11796455Y-11598233D01*
X11736512Y-11671275D01*
X11733247Y-11674877D01*
X11674877Y-11733247D01*
X11671275Y-11736512D01*
X11598233Y-11796455D01*
X11595221Y-11798740D01*
X11528052Y-11845773D01*
X11522989Y-11848883D01*
X11438105Y-11894255D01*
X11435690Y-11895462D01*
X11366359Y-11927791D01*
X11353259Y-11932804D01*
X11259111Y-11961364D01*
X11257553Y-11961809D01*
X11189716Y-11979986D01*
X11173796Y-11982882D01*
X11045473Y-11995520D01*
X11002156Y-11999311D01*
X10997838Y-11999500D01*
X-10997838Y-11999500D01*
X-11002156Y-11999311D01*
X-11045475Y-11995520D01*
X-11173798Y-11982882D01*
X-11189716Y-11979986D01*
X-11226609Y-11970101D01*
X-11257555Y-11961809D01*
X-11259113Y-11961364D01*
X-11353261Y-11932804D01*
X-11366361Y-11927791D01*
X-11435692Y-11895462D01*
X-11438107Y-11894255D01*
X-11522991Y-11848883D01*
X-11528054Y-11845773D01*
X-11595223Y-11798740D01*
X-11598235Y-11796455D01*
X-11671277Y-11736512D01*
X-11674879Y-11733247D01*
X-11733249Y-11674877D01*
X-11736514Y-11671275D01*
X-11796457Y-11598233D01*
X-11798742Y-11595221D01*
X-11845775Y-11528052D01*
X-11848885Y-11522989D01*
X-11894267Y-11438085D01*
X-11895464Y-11435690D01*
X-11927793Y-11366359D01*
X-11932806Y-11353259D01*
X-11961388Y-11259036D01*
X-11961791Y-11257626D01*
X-11979992Y-11189696D01*
X-11982881Y-11173816D01*
X-11995524Y-11045447D01*
X-11996132Y-11038495D01*
X-11999313Y-11002140D01*
X-11999500Y-10997840D01*
X-11999500Y-10000004D01*
X-11355659Y-10000004D01*
X-11335065Y-10235400D01*
X-11335064Y-10235407D01*
X-11335063Y-10235408D01*
X-11302621Y-10356485D01*
X-11273902Y-10463667D01*
X-11174041Y-10677818D01*
X-11174037Y-10677826D01*
X-11174036Y-10677828D01*
X-11174035Y-10677829D01*
X-11038495Y-10871401D01*
X-10871401Y-11038495D01*
X-10871398Y-11038497D01*
X-10871397Y-11038498D01*
X-10807094Y-11083523D01*
X-10677829Y-11174035D01*
X-10677828Y-11174035D01*
X-10677827Y-11174036D01*
X-10677819Y-11174040D01*
X-10463667Y-11273901D01*
X-10463663Y-11273903D01*
X-10235408Y-11335063D01*
X-10235404Y-11335063D01*
X-10235401Y-11335064D01*
X-10058974Y-11350500D01*
X-10058966Y-11350500D01*
X-9941026Y-11350500D01*
X-9764600Y-11335064D01*
X-9764599Y-11335063D01*
X-9764592Y-11335063D01*
X-9536337Y-11273903D01*
X-9322171Y-11174035D01*
X-9128599Y-11038495D01*
X-8961505Y-10871401D01*
X-8825965Y-10677830D01*
X-8726097Y-10463663D01*
X-8664937Y-10235408D01*
X-8651775Y-10084969D01*
X-8644341Y-10000004D01*
X-8644341Y-9999995D01*
X-8664936Y-9764599D01*
X-8664937Y-9764596D01*
X-8664937Y-9764592D01*
X-8726097Y-9536337D01*
X-8811631Y-9352910D01*
X-8825960Y-9322181D01*
X-8825964Y-9322173D01*
X-8895381Y-9223035D01*
X-8961505Y-9128599D01*
X-9128599Y-8961505D01*
X-9128603Y-8961502D01*
X-9128604Y-8961501D01*
X-9309523Y-8834821D01*
X-9322171Y-8825965D01*
X-9322172Y-8825964D01*
X-9322174Y-8825963D01*
X-9322182Y-8825959D01*
X-9536334Y-8726098D01*
X-9536333Y-8726098D01*
X-9698504Y-8682645D01*
X-9764592Y-8664937D01*
X-9764593Y-8664936D01*
X-9764600Y-8664935D01*
X-9941026Y-8649500D01*
X-9941034Y-8649500D01*
X-10058966Y-8649500D01*
X-10058974Y-8649500D01*
X-10235401Y-8664935D01*
X-10463668Y-8726098D01*
X-10677819Y-8825959D01*
X-10677827Y-8825963D01*
X-10871397Y-8961501D01*
X-11038499Y-9128603D01*
X-11174036Y-9322171D01*
X-11273903Y-9536337D01*
X-11335065Y-9764599D01*
X-11355659Y-9999995D01*
X-11355659Y-10000004D01*
X-11999500Y-10000004D01*
X-11999500Y-1196152D01*
X-10533885Y-1196152D01*
X-10513248Y-1352910D01*
X-10513246Y-1352918D01*
X-10452741Y-1498990D01*
X-10452741Y-1498991D01*
X-10391899Y-1578282D01*
X-10356485Y-1624434D01*
X-10231044Y-1720688D01*
X-10231043Y-1720688D01*
X-10231042Y-1720689D01*
X-10093548Y-1777641D01*
X-10084965Y-1781196D01*
X-9967394Y-1796674D01*
X-9928204Y-1801834D01*
X-9928203Y-1801834D01*
X-9928202Y-1801834D01*
X-9889013Y-1796674D01*
X-9771441Y-1781196D01*
X-9699615Y-1751443D01*
X-9642412Y-1746941D01*
X-9642387Y-1746727D01*
X-9641297Y-1746853D01*
X-9638621Y-1746643D01*
X-9635736Y-1747382D01*
X-9634995Y-1747583D01*
X-9634991Y-1747585D01*
X-9609865Y-1750500D01*
X-9085136Y-1750499D01*
X-9070015Y-1748745D01*
X-9010035Y-1760820D01*
X-8988604Y-1777081D01*
X-8988044Y-1777641D01*
X-8875152Y-1835163D01*
X-8875148Y-1835164D01*
X-8781485Y-1849999D01*
X-8682500Y-1849999D01*
X-8682500Y-1849998D01*
X-8382500Y-1849998D01*
X-8382499Y-1849999D01*
X-8283517Y-1849999D01*
X-8283515Y-1849998D01*
X-8189859Y-1835166D01*
X-8189849Y-1835163D01*
X-8076957Y-1777641D01*
X-7987359Y-1688043D01*
X-7929837Y-1575151D01*
X-7929836Y-1575147D01*
X-7917933Y-1500000D01*
X-8382499Y-1500000D01*
X-8382500Y-1500001D01*
X-8382500Y-1849998D01*
X-8682500Y-1849998D01*
X-8682500Y-1299000D01*
X-8663593Y-1240809D01*
X-8614093Y-1204845D01*
X-8583500Y-1200000D01*
X-7891334Y-1200000D01*
X-7833143Y-1218907D01*
X-7821330Y-1228996D01*
X-7654496Y-1395830D01*
X-7626719Y-1450347D01*
X-7625500Y-1465834D01*
X-7625500Y-1774165D01*
X-7644407Y-1832356D01*
X-7654496Y-1844169D01*
X-8948587Y-3138259D01*
X-8951772Y-3141176D01*
X-8983193Y-3167542D01*
X-8983194Y-3167544D01*
X-8996694Y-3190925D01*
X-8999882Y-3196449D01*
X-9003708Y-3203075D01*
X-9006028Y-3206716D01*
X-9029554Y-3240316D01*
X-9029558Y-3240324D01*
X-9029949Y-3241786D01*
X-9039830Y-3265640D01*
X-9040586Y-3266948D01*
X-9040590Y-3266960D01*
X-9047713Y-3307349D01*
X-9048647Y-3311564D01*
X-9059264Y-3351187D01*
X-9059264Y-3351193D01*
X-9055688Y-3392072D01*
X-9055500Y-3396373D01*
X-9055500Y-3997854D01*
X-9055688Y-4002156D01*
X-9059264Y-4043036D01*
X-9055554Y-4056882D01*
X-9048646Y-4082665D01*
X-9047711Y-4086881D01*
X-9040589Y-4127274D01*
X-9039836Y-4128577D01*
X-9029946Y-4152453D01*
X-9029557Y-4153908D01*
X-9029554Y-4153913D01*
X-9007758Y-4185042D01*
X-9006029Y-4187510D01*
X-9003712Y-4191147D01*
X-8983194Y-4226684D01*
X-8983140Y-4226729D01*
X-8983071Y-4226830D01*
X-8977624Y-4233322D01*
X-8978264Y-4233858D01*
X-8953031Y-4270744D01*
X-8935234Y-4323171D01*
X-8933958Y-4326930D01*
X-8664210Y-4794148D01*
X-8624894Y-4838979D01*
X-8553356Y-4874257D01*
X-8553355Y-4874257D01*
X-8552876Y-4874493D01*
X-8509048Y-4917187D01*
X-8497873Y-4969759D01*
X-8503126Y-5049884D01*
X-8503125Y-5049889D01*
X-8483961Y-5106346D01*
X-8483959Y-5106350D01*
X-8483958Y-5106352D01*
X-8324082Y-5383265D01*
X-8311361Y-5443112D01*
X-8336248Y-5499008D01*
X-8349552Y-5511306D01*
X-8428277Y-5571713D01*
X-8428287Y-5571723D01*
X-8524538Y-5697160D01*
X-8524538Y-5697161D01*
X-8585043Y-5843233D01*
X-8585045Y-5843241D01*
X-8605682Y-5999999D01*
X-8605682Y-6000000D01*
X-8585045Y-6156758D01*
X-8585043Y-6156766D01*
X-8524538Y-6302838D01*
X-8524538Y-6302839D01*
X-8428287Y-6428276D01*
X-8428282Y-6428282D01*
X-8302841Y-6524536D01*
X-8302840Y-6524536D01*
X-8302839Y-6524537D01*
X-8251539Y-6545786D01*
X-8156762Y-6585044D01*
X-8039191Y-6600522D01*
X-8000001Y-6605682D01*
X-8000000Y-6605682D01*
X-7999999Y-6605682D01*
X-7968648Y-6601554D01*
X-7843238Y-6585044D01*
X-7697159Y-6524536D01*
X-7571718Y-6428282D01*
X-7524390Y-6366601D01*
X-7477106Y-6334103D01*
X-7477191Y-6333905D01*
X-7476183Y-6333468D01*
X-7473968Y-6331947D01*
X-7471094Y-6331143D01*
X-7470359Y-6330948D01*
X-7470354Y-6330948D01*
X-7447137Y-6320910D01*
X-7415835Y-6302838D01*
X-7345887Y-6262453D01*
X-6992709Y-6058544D01*
X-6980489Y-6049463D01*
X-6922506Y-6029932D01*
X-6895815Y-6033300D01*
X-6895057Y-6033503D01*
X-6895051Y-6033504D01*
X-6768525Y-6026873D01*
X-6768521Y-6026872D01*
X-6679987Y-5992886D01*
X-6679982Y-5992884D01*
X-6594268Y-5943396D01*
X-6777993Y-5625173D01*
X-6855869Y-5490288D01*
X-6509458Y-5490288D01*
X-6334459Y-5793395D01*
X-6248740Y-5743906D01*
X-6175037Y-5684223D01*
X-6106031Y-5577963D01*
X-6106029Y-5577960D01*
X-6073235Y-5455569D01*
X-6073235Y-5455563D01*
X-6079865Y-5329038D01*
X-6107132Y-5258005D01*
X-6509458Y-5490288D01*
X-6855869Y-5490288D01*
X-6869767Y-5466215D01*
X-6882488Y-5406366D01*
X-6857601Y-5350471D01*
X-6833530Y-5330978D01*
X-6266275Y-5003474D01*
X-6216775Y-4990211D01*
X-6111123Y-4990211D01*
X-6052932Y-5009118D01*
X-6041120Y-5019207D01*
X-5694497Y-5365829D01*
X-5666719Y-5420346D01*
X-5665500Y-5435833D01*
X-5665500Y-5584164D01*
X-5684407Y-5642355D01*
X-5694496Y-5654168D01*
X-5888587Y-5848259D01*
X-5891771Y-5851176D01*
X-5923193Y-5877542D01*
X-5923194Y-5877544D01*
X-5943708Y-5913075D01*
X-5946028Y-5916716D01*
X-5969554Y-5950316D01*
X-5969558Y-5950324D01*
X-5969949Y-5951786D01*
X-5979830Y-5975640D01*
X-5980586Y-5976948D01*
X-5980590Y-5976960D01*
X-5987713Y-6017349D01*
X-5988647Y-6021564D01*
X-5999264Y-6061187D01*
X-5999264Y-6061193D01*
X-5995688Y-6102072D01*
X-5995500Y-6106373D01*
X-5995500Y-7387276D01*
X-5995688Y-7391578D01*
X-5999264Y-7432458D01*
X-5998754Y-7434362D01*
X-5988646Y-7472087D01*
X-5987711Y-7476303D01*
X-5980589Y-7516696D01*
X-5979836Y-7517999D01*
X-5969946Y-7541875D01*
X-5969557Y-7543330D01*
X-5969554Y-7543335D01*
X-5946422Y-7576372D01*
X-5946029Y-7576932D01*
X-5943708Y-7580575D01*
X-5923194Y-7616106D01*
X-5891776Y-7642469D01*
X-5888590Y-7645388D01*
X-5664747Y-7869230D01*
X-5636970Y-7923747D01*
X-5641005Y-7971055D01*
X-5658896Y-8023759D01*
X-5658896Y-8023763D01*
X-5653679Y-8103356D01*
X-5618401Y-8174894D01*
X-5573570Y-8214210D01*
X-5106352Y-8483958D01*
X-5106349Y-8483959D01*
X-5106347Y-8483960D01*
X-5078950Y-8493259D01*
X-5049888Y-8503125D01*
X-4970295Y-8497908D01*
X-4970293Y-8497906D01*
X-4969761Y-8497872D01*
X-4910458Y-8512932D01*
X-4874494Y-8552874D01*
X-4874258Y-8553354D01*
X-4874257Y-8553356D01*
X-4838979Y-8624894D01*
X-4794148Y-8664210D01*
X-4712607Y-8711287D01*
X-4671666Y-8756757D01*
X-4663484Y-8805652D01*
X-4664553Y-8817871D01*
X-4664553Y-8817873D01*
X-4661438Y-8829500D01*
X-4653935Y-8857502D01*
X-4653000Y-8861718D01*
X-4645878Y-8902111D01*
X-4645125Y-8903414D01*
X-4635235Y-8927290D01*
X-4634846Y-8928745D01*
X-4634843Y-8928750D01*
X-4611911Y-8961501D01*
X-4611318Y-8962347D01*
X-4608997Y-8965990D01*
X-4588483Y-9001521D01*
X-4557065Y-9027884D01*
X-4553879Y-9030803D01*
X-4551497Y-9033184D01*
X-4523720Y-9087701D01*
X-4523348Y-9116109D01*
X-4533885Y-9196150D01*
X-4533885Y-9196152D01*
X-4513248Y-9352910D01*
X-4513246Y-9352918D01*
X-4452741Y-9498990D01*
X-4452741Y-9498991D01*
X-4367661Y-9609869D01*
X-4356485Y-9624434D01*
X-4231044Y-9720688D01*
X-4231043Y-9720688D01*
X-4231042Y-9720689D01*
X-4092123Y-9778231D01*
X-4084965Y-9781196D01*
X-3984617Y-9794407D01*
X-3928204Y-9801834D01*
X-3928203Y-9801834D01*
X-3928202Y-9801834D01*
X-3896851Y-9797706D01*
X-3771441Y-9781196D01*
X-3625362Y-9720688D01*
X-3499921Y-9624434D01*
X-3403667Y-9498993D01*
X-3343159Y-9352914D01*
X-3333012Y-9275833D01*
X-3308312Y-9224045D01*
X-3308485Y-9223917D01*
X-3307830Y-9223035D01*
X-3306673Y-9220610D01*
X-3304580Y-9218470D01*
X-3304051Y-9217944D01*
X-3304043Y-9217939D01*
X-3288955Y-9197637D01*
X-3026592Y-8743208D01*
X-3020550Y-8729234D01*
X-2980102Y-8683328D01*
X-2955296Y-8672897D01*
X-2954537Y-8672693D01*
X-2954536Y-8672692D01*
X-2848277Y-8603687D01*
X-2848276Y-8603687D01*
X-2788601Y-8529995D01*
X-2788593Y-8529983D01*
X-2739105Y-8444265D01*
X-3216283Y-8168766D01*
X-3257224Y-8123296D01*
X-3263620Y-8062446D01*
X-3252520Y-8033529D01*
X-3238623Y-8009458D01*
X-2892212Y-8009458D01*
X-2589106Y-8184457D01*
X-2539615Y-8098737D01*
X-2505628Y-8010203D01*
X-2505626Y-8010196D01*
X-2498997Y-7883674D01*
X-2498997Y-7883668D01*
X-2531791Y-7761277D01*
X-2531793Y-7761274D01*
X-2600798Y-7655016D01*
X-2659930Y-7607131D01*
X-2892212Y-8009457D01*
X-2892212Y-8009458D01*
X-3238623Y-8009458D01*
X-3152020Y-7859458D01*
X-2919739Y-7457130D01*
X-2923132Y-7447547D01*
X-2924734Y-7386383D01*
X-2890079Y-7335958D01*
X-2832403Y-7315534D01*
X-2829811Y-7315500D01*
X-2495834Y-7315500D01*
X-2437643Y-7334407D01*
X-2425830Y-7344496D01*
X-2104496Y-7665830D01*
X-2076719Y-7720347D01*
X-2075500Y-7735834D01*
X-2075500Y-8673625D01*
X-2075688Y-8677927D01*
X-2079264Y-8718807D01*
X-2076911Y-8727587D01*
X-2068646Y-8758436D01*
X-2067711Y-8762652D01*
X-2060589Y-8803045D01*
X-2059836Y-8804348D01*
X-2049946Y-8828224D01*
X-2049557Y-8829679D01*
X-2049554Y-8829684D01*
X-2027124Y-8861718D01*
X-2026029Y-8863281D01*
X-2023712Y-8866918D01*
X-2017432Y-8877794D01*
X-2003194Y-8902455D01*
X-1971776Y-8928818D01*
X-1968590Y-8931737D01*
X-1231732Y-9668596D01*
X-1228813Y-9671782D01*
X-1202455Y-9703194D01*
X-1166926Y-9723707D01*
X-1163291Y-9726022D01*
X-1129684Y-9749554D01*
X-1128233Y-9749942D01*
X-1104341Y-9759840D01*
X-1103046Y-9760588D01*
X-1094146Y-9762157D01*
X-1062635Y-9767713D01*
X-1058456Y-9768638D01*
X-1018807Y-9779263D01*
X-977935Y-9775687D01*
X-973635Y-9775500D01*
X-943608Y-9775500D01*
X-885417Y-9794407D01*
X-861293Y-9819498D01*
X-844552Y-9844552D01*
X-778231Y-9888867D01*
X-733769Y-9897711D01*
X-719759Y-9900498D01*
X-719754Y-9900498D01*
X-719748Y-9900500D01*
X-719747Y-9900500D01*
X-180253Y-9900500D01*
X-180252Y-9900500D01*
X-121769Y-9888867D01*
X-55448Y-9844552D01*
X-55447Y-9844549D01*
X-55003Y-9844253D01*
X3885Y-9827644D01*
X55003Y-9844253D01*
X55446Y-9844549D01*
X55448Y-9844552D01*
X121769Y-9888867D01*
X166231Y-9897711D01*
X180241Y-9900498D01*
X180246Y-9900498D01*
X180252Y-9900500D01*
X500002Y-9900500D01*
X558193Y-9919407D01*
X594157Y-9968907D01*
X598155Y-9986578D01*
X611107Y-10084961D01*
X611109Y-10084969D01*
X671614Y-10231041D01*
X671614Y-10231042D01*
X767865Y-10356479D01*
X767870Y-10356485D01*
X893311Y-10452739D01*
X893312Y-10452739D01*
X893313Y-10452740D01*
X919693Y-10463667D01*
X1039390Y-10513247D01*
X1156961Y-10528725D01*
X1196151Y-10533885D01*
X1196152Y-10533885D01*
X1196153Y-10533885D01*
X1227504Y-10529757D01*
X1352914Y-10513247D01*
X1498993Y-10452739D01*
X1624434Y-10356485D01*
X1720688Y-10231044D01*
X1781196Y-10084965D01*
X1801834Y-9928203D01*
X1781196Y-9771441D01*
X1751443Y-9699614D01*
X1746941Y-9642412D01*
X1746727Y-9642388D01*
X1746853Y-9641295D01*
X1746643Y-9638618D01*
X1747384Y-9635725D01*
X1747581Y-9634999D01*
X1747585Y-9634991D01*
X1750500Y-9609865D01*
X1750499Y-9085136D01*
X1748745Y-9070013D01*
X1760820Y-9010034D01*
X1777087Y-8988598D01*
X1777641Y-8988043D01*
X1835164Y-8875149D01*
X1835164Y-8875147D01*
X1850000Y-8781484D01*
X1850000Y-8682501D01*
X1849999Y-8682500D01*
X1299000Y-8682500D01*
X1240809Y-8663593D01*
X1204845Y-8614093D01*
X1200000Y-8583500D01*
X1200000Y-7917932D01*
X1500000Y-7917932D01*
X1500000Y-8382499D01*
X1500001Y-8382500D01*
X1849998Y-8382500D01*
X1849999Y-8382499D01*
X1849999Y-8283516D01*
X1849998Y-8283514D01*
X1835166Y-8189858D01*
X1835163Y-8189848D01*
X1777641Y-8076956D01*
X1688043Y-7987358D01*
X1575151Y-7929836D01*
X1575147Y-7929835D01*
X1500000Y-7917932D01*
X1200000Y-7917932D01*
X1124852Y-7929835D01*
X1124848Y-7929836D01*
X1005014Y-7990896D01*
X1004324Y-7989543D01*
X954495Y-8005732D01*
X896306Y-7986822D01*
X860344Y-7937320D01*
X855500Y-7906732D01*
X855500Y-7805834D01*
X874407Y-7747643D01*
X884496Y-7735830D01*
X1075830Y-7544496D01*
X1130347Y-7516719D01*
X1145834Y-7515500D01*
X1694166Y-7515500D01*
X1752357Y-7534407D01*
X1764170Y-7544496D01*
X2847208Y-8627536D01*
X2850127Y-8630722D01*
X2876485Y-8662134D01*
X2912023Y-8682651D01*
X2915656Y-8684966D01*
X2949256Y-8708493D01*
X2950706Y-8708881D01*
X2974589Y-8718774D01*
X2975895Y-8719528D01*
X3016306Y-8726653D01*
X3020495Y-8727581D01*
X3060133Y-8738203D01*
X3101005Y-8734627D01*
X3105305Y-8734440D01*
X3945867Y-8734440D01*
X4004058Y-8753347D01*
X4031602Y-8783939D01*
X4049903Y-8815637D01*
X4080017Y-8867797D01*
X4080019Y-8867799D01*
X4119335Y-8912630D01*
X4190873Y-8947908D01*
X4270466Y-8953125D01*
X4326930Y-8933958D01*
X4794148Y-8664210D01*
X4838979Y-8624894D01*
X4874257Y-8553356D01*
X4874257Y-8553353D01*
X4874493Y-8552875D01*
X4917187Y-8509047D01*
X4969760Y-8497872D01*
X4970292Y-8497906D01*
X4970295Y-8497908D01*
X5049888Y-8503125D01*
X5106352Y-8483958D01*
X5415171Y-8305661D01*
X5475017Y-8292941D01*
X5530913Y-8317828D01*
X5543210Y-8331131D01*
X5571712Y-8368275D01*
X5571713Y-8368276D01*
X5571718Y-8368282D01*
X5697159Y-8464536D01*
X5697160Y-8464536D01*
X5697161Y-8464537D01*
X5790321Y-8503125D01*
X5843238Y-8525044D01*
X5960809Y-8540522D01*
X5999999Y-8545682D01*
X6000000Y-8545682D01*
X6000001Y-8545682D01*
X6031352Y-8541554D01*
X6156762Y-8525044D01*
X6302841Y-8464536D01*
X6428282Y-8368282D01*
X6524536Y-8242841D01*
X6585044Y-8096762D01*
X6605682Y-7940000D01*
X6585044Y-7783238D01*
X6581190Y-7773934D01*
X6524537Y-7637161D01*
X6524537Y-7637160D01*
X6428286Y-7511723D01*
X6428285Y-7511722D01*
X6428282Y-7511718D01*
X6338984Y-7443198D01*
X6318072Y-7427151D01*
X6292604Y-7398109D01*
X6070148Y-7012808D01*
X6058544Y-6992709D01*
X6049462Y-6980486D01*
X6029932Y-6922502D01*
X6033301Y-6895811D01*
X6033503Y-6895055D01*
X6033504Y-6895050D01*
X6026873Y-6768524D01*
X6026872Y-6768520D01*
X5992886Y-6679986D01*
X5992881Y-6679975D01*
X5943396Y-6594266D01*
X5598007Y-6793676D01*
X5598001Y-6793677D01*
X5466215Y-6869765D01*
X5406367Y-6882487D01*
X5350471Y-6857601D01*
X5330978Y-6833529D01*
X4998196Y-6257132D01*
X4939065Y-6305016D01*
X4870060Y-6411274D01*
X4870058Y-6411277D01*
X4837264Y-6533668D01*
X4836450Y-6541419D01*
X4834552Y-6541219D01*
X4821307Y-6590625D01*
X4773751Y-6629123D01*
X4731811Y-6635482D01*
X4729537Y-6635332D01*
X4729535Y-6635333D01*
X4729534Y-6635333D01*
X4714039Y-6640593D01*
X4676825Y-6653225D01*
X4615645Y-6654024D01*
X4575000Y-6629481D01*
X4539785Y-6594266D01*
X4494496Y-6548976D01*
X4466719Y-6494459D01*
X4465500Y-6478973D01*
X4465500Y-6455834D01*
X4484407Y-6397643D01*
X4494496Y-6385830D01*
X4773196Y-6107130D01*
X5258005Y-6107130D01*
X5490288Y-6509456D01*
X5793395Y-6334457D01*
X5743906Y-6248739D01*
X5684223Y-6175036D01*
X5577963Y-6106030D01*
X5577960Y-6106028D01*
X5455569Y-6073234D01*
X5455563Y-6073234D01*
X5329038Y-6079864D01*
X5329031Y-6079865D01*
X5258005Y-6107130D01*
X4773196Y-6107130D01*
X5255830Y-5624496D01*
X5310347Y-5596719D01*
X5325834Y-5595500D01*
X5664166Y-5595500D01*
X5722357Y-5614407D01*
X5734170Y-5624496D01*
X6378257Y-6268584D01*
X6381175Y-6271769D01*
X6407246Y-6302838D01*
X6407545Y-6303194D01*
X6443073Y-6323706D01*
X6446712Y-6326025D01*
X6480311Y-6349551D01*
X6480313Y-6349552D01*
X6480316Y-6349554D01*
X6481767Y-6349942D01*
X6505659Y-6359840D01*
X6506186Y-6360143D01*
X6506955Y-6360588D01*
X6547351Y-6367710D01*
X6551548Y-6368640D01*
X6591193Y-6379264D01*
X6632077Y-6375687D01*
X6636377Y-6375500D01*
X7107394Y-6375500D01*
X7126432Y-6368570D01*
X7143096Y-6364105D01*
X7163045Y-6360588D01*
X7180591Y-6350457D01*
X7196224Y-6343168D01*
X7215260Y-6336240D01*
X7230779Y-6323216D01*
X7244910Y-6313322D01*
X7262455Y-6303194D01*
X7275479Y-6287671D01*
X7287672Y-6275478D01*
X7303194Y-6262455D01*
X7313317Y-6244918D01*
X7323221Y-6230775D01*
X7336238Y-6215263D01*
X7336237Y-6215263D01*
X7336240Y-6215261D01*
X7338760Y-6208335D01*
X7361784Y-6172191D01*
X7496039Y-6037936D01*
X7550554Y-6010161D01*
X7610986Y-6019732D01*
X7654251Y-6062997D01*
X7664194Y-6095019D01*
X7674955Y-6176759D01*
X7674957Y-6176766D01*
X7735462Y-6322838D01*
X7735462Y-6322839D01*
X7831713Y-6448276D01*
X7831718Y-6448282D01*
X7957159Y-6544536D01*
X7957160Y-6544536D01*
X7957161Y-6544537D01*
X8103233Y-6605042D01*
X8103238Y-6605044D01*
X8220809Y-6620522D01*
X8259999Y-6625682D01*
X8260000Y-6625682D01*
X8260001Y-6625682D01*
X8291352Y-6621554D01*
X8416762Y-6605044D01*
X8562841Y-6544536D01*
X8688282Y-6448282D01*
X8784536Y-6322841D01*
X8845044Y-6176762D01*
X8865682Y-6020000D01*
X8855143Y-5939955D01*
X8866292Y-5879797D01*
X8883289Y-5857036D01*
X8946452Y-5793873D01*
X8982597Y-5770848D01*
X8995260Y-5766240D01*
X9010779Y-5753216D01*
X9024910Y-5743322D01*
X9042455Y-5733194D01*
X9055479Y-5717671D01*
X9067672Y-5705478D01*
X9083194Y-5692455D01*
X9093317Y-5674918D01*
X9103221Y-5660775D01*
X9108766Y-5654168D01*
X9116240Y-5645261D01*
X9123173Y-5626211D01*
X9130459Y-5610588D01*
X9140588Y-5593045D01*
X9144104Y-5573096D01*
X9148572Y-5556426D01*
X9155500Y-5537394D01*
X9155500Y-5422606D01*
X9155500Y-5422605D01*
X9155499Y-4772723D01*
X9155688Y-4768407D01*
X9156709Y-4756732D01*
X9159264Y-4727542D01*
X9148640Y-4687897D01*
X9147710Y-4683697D01*
X9142800Y-4655852D01*
X9140588Y-4643304D01*
X9139840Y-4642008D01*
X9129942Y-4618116D01*
X9129554Y-4616665D01*
X9129552Y-4616662D01*
X9129551Y-4616660D01*
X9106025Y-4583061D01*
X9103703Y-4579417D01*
X9083193Y-4543892D01*
X9055070Y-4520295D01*
X9051765Y-4517522D01*
X9048588Y-4514610D01*
X8958975Y-4424998D01*
X8931198Y-4370481D01*
X8935232Y-4323174D01*
X8953125Y-4270466D01*
X8947908Y-4190873D01*
X8946790Y-4188606D01*
X8918346Y-4130926D01*
X8909566Y-4070374D01*
X8938055Y-4016226D01*
X8981510Y-3991514D01*
X9040567Y-3975690D01*
X9131253Y-3909375D01*
X9146341Y-3889073D01*
X9291204Y-3638160D01*
X9301244Y-3614942D01*
X9313332Y-3503248D01*
X9284254Y-3394729D01*
X9282299Y-3392056D01*
X9221910Y-3309474D01*
X9217939Y-3304043D01*
X9217938Y-3304042D01*
X9217936Y-3304040D01*
X9197637Y-3288955D01*
X9159532Y-3266955D01*
X8743208Y-3026592D01*
X8743205Y-3026591D01*
X8743204Y-3026590D01*
X8743200Y-3026588D01*
X8729232Y-3020548D01*
X8683325Y-2980097D01*
X8672897Y-2955295D01*
X8672693Y-2954536D01*
X8603688Y-2848278D01*
X8529981Y-2788591D01*
X8444265Y-2739103D01*
X8168766Y-3216283D01*
X8123296Y-3257224D01*
X8062446Y-3263620D01*
X8033529Y-3252520D01*
X7457130Y-2919737D01*
X7429865Y-2990763D01*
X7429864Y-2990770D01*
X7423234Y-3117295D01*
X7424049Y-3125048D01*
X7420650Y-3125405D01*
X7418222Y-3171668D01*
X7379713Y-3219215D01*
X7320611Y-3235046D01*
X7263492Y-3213114D01*
X7247259Y-3196449D01*
X7228286Y-3171723D01*
X7228285Y-3171722D01*
X7228282Y-3171718D01*
X7228277Y-3171714D01*
X7228276Y-3171713D01*
X7102838Y-3075462D01*
X6956766Y-3014957D01*
X6956758Y-3014955D01*
X6800001Y-2994318D01*
X6799999Y-2994318D01*
X6643241Y-3014955D01*
X6643233Y-3014957D01*
X6497161Y-3075462D01*
X6497160Y-3075462D01*
X6371723Y-3171713D01*
X6371713Y-3171723D01*
X6275462Y-3297160D01*
X6275462Y-3297161D01*
X6214957Y-3443233D01*
X6214955Y-3443241D01*
X6194318Y-3599999D01*
X6194318Y-3600000D01*
X6214955Y-3756758D01*
X6214957Y-3756766D01*
X6275462Y-3902838D01*
X6275462Y-3902839D01*
X6353435Y-4004455D01*
X6371718Y-4028282D01*
X6371722Y-4028285D01*
X6371723Y-4028286D01*
X6390946Y-4043036D01*
X6497159Y-4124536D01*
X6497160Y-4124536D01*
X6497161Y-4124537D01*
X6564556Y-4152453D01*
X6643238Y-4185044D01*
X6696790Y-4192094D01*
X6752015Y-4218435D01*
X6775805Y-4258422D01*
X7270257Y-4543895D01*
X7298685Y-4560308D01*
X7339626Y-4605777D01*
X7346022Y-4666627D01*
X7334921Y-4695544D01*
X7034422Y-5216022D01*
X7034422Y-5216023D01*
X7152743Y-5284335D01*
X7193684Y-5329805D01*
X7200080Y-5390655D01*
X7173247Y-5440075D01*
X6917822Y-5695503D01*
X6863306Y-5723281D01*
X6847818Y-5724500D01*
X6795834Y-5724500D01*
X6737643Y-5705593D01*
X6725830Y-5695504D01*
X6081741Y-5051414D01*
X6078822Y-5048229D01*
X6052456Y-5016806D01*
X6029364Y-5003474D01*
X6016918Y-4996288D01*
X6013283Y-4993972D01*
X5979684Y-4970446D01*
X5979679Y-4970443D01*
X5978224Y-4970054D01*
X5954348Y-4960164D01*
X5953045Y-4959411D01*
X5912652Y-4952289D01*
X5908436Y-4951354D01*
X5882153Y-4944312D01*
X5868807Y-4940736D01*
X5868806Y-4940736D01*
X5864381Y-4941123D01*
X5827926Y-4944312D01*
X5823626Y-4944500D01*
X5166374Y-4944500D01*
X5162073Y-4944312D01*
X5121193Y-4940736D01*
X5121187Y-4940736D01*
X5081564Y-4951353D01*
X5077349Y-4952287D01*
X5036960Y-4959410D01*
X5036948Y-4959414D01*
X5035640Y-4960170D01*
X5011786Y-4970051D01*
X5010324Y-4970442D01*
X5010316Y-4970446D01*
X4976716Y-4993972D01*
X4973080Y-4996288D01*
X4966277Y-5000216D01*
X4937548Y-5016803D01*
X4937545Y-5016806D01*
X4911175Y-5048231D01*
X4908257Y-5051415D01*
X3921413Y-6038259D01*
X3918228Y-6041176D01*
X3886807Y-6067542D01*
X3886806Y-6067544D01*
X3873306Y-6090925D01*
X3867779Y-6100500D01*
X3866292Y-6103075D01*
X3863972Y-6106716D01*
X3840446Y-6140316D01*
X3840442Y-6140324D01*
X3840051Y-6141786D01*
X3830170Y-6165640D01*
X3829414Y-6166948D01*
X3829410Y-6166960D01*
X3822287Y-6207349D01*
X3821353Y-6211564D01*
X3810736Y-6251187D01*
X3810736Y-6251193D01*
X3814312Y-6292072D01*
X3814500Y-6296373D01*
X3814500Y-6638432D01*
X3814312Y-6642734D01*
X3811809Y-6671353D01*
X3810736Y-6683613D01*
X3821354Y-6723243D01*
X3822289Y-6727459D01*
X3829411Y-6767852D01*
X3830164Y-6769155D01*
X3840054Y-6793031D01*
X3840443Y-6794486D01*
X3840446Y-6794491D01*
X3863971Y-6828088D01*
X3866288Y-6831725D01*
X3885881Y-6865660D01*
X3891137Y-6874763D01*
X3888215Y-6876449D01*
X3905279Y-6918720D01*
X3890459Y-6978083D01*
X3856018Y-7011333D01*
X3740193Y-7078204D01*
X3940193Y-7424614D01*
X4040692Y-7598685D01*
X4053413Y-7658534D01*
X4028526Y-7714429D01*
X4004455Y-7733922D01*
X3469108Y-8043004D01*
X3457176Y-8061378D01*
X3400054Y-8083304D01*
X3394874Y-8083440D01*
X3264775Y-8083440D01*
X3206584Y-8064533D01*
X3194771Y-8054444D01*
X2654863Y-7514536D01*
X3239490Y-7514536D01*
X3251557Y-7626040D01*
X3251558Y-7626042D01*
X3261581Y-7649224D01*
X3333974Y-7774612D01*
X3333975Y-7774612D01*
X3680383Y-7574613D01*
X3480384Y-7228204D01*
X3354989Y-7300602D01*
X3334723Y-7315662D01*
X3268520Y-7406194D01*
X3268519Y-7406196D01*
X3239490Y-7514534D01*
X3239490Y-7514536D01*
X2654863Y-7514536D01*
X2111741Y-6971414D01*
X2108822Y-6968229D01*
X2082456Y-6936806D01*
X2051130Y-6918720D01*
X2046918Y-6916288D01*
X2043283Y-6913972D01*
X2009684Y-6890446D01*
X2009679Y-6890443D01*
X2008224Y-6890054D01*
X1984348Y-6880164D01*
X1983045Y-6879411D01*
X1942652Y-6872289D01*
X1938436Y-6871354D01*
X1912153Y-6864312D01*
X1898807Y-6860736D01*
X1898806Y-6860736D01*
X1894381Y-6861123D01*
X1857926Y-6864312D01*
X1853626Y-6864500D01*
X986374Y-6864500D01*
X982073Y-6864312D01*
X941193Y-6860736D01*
X941187Y-6860736D01*
X901564Y-6871353D01*
X897349Y-6872287D01*
X856960Y-6879410D01*
X856948Y-6879414D01*
X855640Y-6880170D01*
X831786Y-6890051D01*
X830324Y-6890442D01*
X830316Y-6890446D01*
X796716Y-6913972D01*
X793080Y-6916288D01*
X784875Y-6921025D01*
X757545Y-6936805D01*
X731181Y-6968224D01*
X728263Y-6971408D01*
X311413Y-7388259D01*
X308229Y-7391176D01*
X276807Y-7417542D01*
X276806Y-7417544D01*
X267826Y-7433098D01*
X259484Y-7447547D01*
X256292Y-7453075D01*
X253972Y-7456716D01*
X230446Y-7490316D01*
X230442Y-7490324D01*
X230051Y-7491786D01*
X220170Y-7515640D01*
X219414Y-7516948D01*
X219410Y-7516960D01*
X212287Y-7557349D01*
X211353Y-7561564D01*
X200736Y-7601187D01*
X200736Y-7601193D01*
X204312Y-7642072D01*
X204500Y-7646373D01*
X204500Y-8013429D01*
X185593Y-8071620D01*
X136093Y-8107584D01*
X124815Y-8110527D01*
X112207Y-8113035D01*
X111979Y-8111890D01*
X60802Y-8115913D01*
X13919Y-8089655D01*
X-27523Y-8048213D01*
X-130128Y-8002909D01*
X-155203Y-8000000D01*
X-299999Y-8000000D01*
X-300000Y-8000001D01*
X-300000Y-8601000D01*
X-318907Y-8659191D01*
X-368407Y-8695155D01*
X-399000Y-8700000D01*
X-999998Y-8700000D01*
X-999999Y-8700001D01*
X-999999Y-8740666D01*
X-1018906Y-8798857D01*
X-1068406Y-8834821D01*
X-1129592Y-8834821D01*
X-1169003Y-8810670D01*
X-1395505Y-8584168D01*
X-1423282Y-8529651D01*
X-1424501Y-8514164D01*
X-1424501Y-8399998D01*
X-1000000Y-8399998D01*
X-999999Y-8400000D01*
X-600001Y-8400000D01*
X-600000Y-8399999D01*
X-600000Y-8000001D01*
X-600001Y-8000000D01*
X-744790Y-8000000D01*
X-744793Y-8000001D01*
X-769875Y-8002909D01*
X-872478Y-8048213D01*
X-951787Y-8127522D01*
X-997091Y-8230127D01*
X-1000000Y-8255202D01*
X-1000000Y-8399998D01*
X-1424501Y-8399998D01*
X-1424501Y-8071620D01*
X-1424501Y-7576349D01*
X-1424313Y-7572073D01*
X-1420736Y-7531193D01*
X-1431360Y-7491548D01*
X-1432290Y-7487348D01*
X-1439412Y-7446955D01*
X-1440160Y-7445659D01*
X-1450058Y-7421767D01*
X-1450446Y-7420316D01*
X-1450448Y-7420313D01*
X-1450449Y-7420311D01*
X-1473975Y-7386712D01*
X-1476297Y-7383068D01*
X-1496807Y-7347543D01*
X-1517931Y-7329819D01*
X-1528235Y-7321173D01*
X-1531412Y-7318261D01*
X-2078259Y-6771414D01*
X-2081178Y-6768229D01*
X-2107544Y-6736806D01*
X-2135512Y-6720659D01*
X-2143082Y-6716288D01*
X-2146717Y-6713972D01*
X-2180316Y-6690446D01*
X-2180321Y-6690443D01*
X-2181776Y-6690054D01*
X-2205652Y-6680164D01*
X-2206955Y-6679411D01*
X-2247348Y-6672289D01*
X-2251564Y-6671354D01*
X-2277847Y-6664312D01*
X-2291193Y-6660736D01*
X-2291194Y-6660736D01*
X-2295619Y-6661123D01*
X-2332074Y-6664312D01*
X-2336374Y-6664500D01*
X-3229397Y-6664500D01*
X-3233698Y-6664312D01*
X-3274578Y-6660736D01*
X-3274584Y-6660736D01*
X-3314207Y-6671353D01*
X-3318422Y-6672287D01*
X-3358811Y-6679410D01*
X-3358823Y-6679414D01*
X-3360131Y-6680170D01*
X-3383985Y-6690051D01*
X-3385447Y-6690442D01*
X-3385455Y-6690446D01*
X-3419055Y-6713972D01*
X-3422691Y-6716288D01*
X-3430260Y-6720659D01*
X-3458226Y-6736805D01*
X-3484590Y-6768224D01*
X-3487508Y-6771408D01*
X-3795580Y-7079481D01*
X-3850097Y-7107258D01*
X-3897405Y-7103224D01*
X-3924620Y-7093986D01*
X-3950112Y-7085333D01*
X-3950114Y-7085333D01*
X-3959344Y-7082200D01*
X-3958970Y-7081095D01*
X-4005301Y-7058989D01*
X-4032773Y-7012808D01*
X-4047942Y-6956197D01*
X-4114148Y-6865661D01*
X-4114149Y-6865660D01*
X-4134415Y-6850600D01*
X-4134425Y-6850594D01*
X-4259807Y-6778204D01*
X-4259809Y-6778204D01*
X-4560308Y-7298684D01*
X-4605777Y-7339625D01*
X-4666627Y-7346021D01*
X-4695544Y-7334921D01*
X-4846642Y-7247685D01*
X-5216027Y-7034422D01*
X-5219878Y-7035454D01*
X-5280979Y-7032251D01*
X-5328529Y-6993746D01*
X-5344500Y-6939827D01*
X-5344500Y-6774613D01*
X-5066025Y-6774613D01*
X-4719616Y-6974612D01*
X-4519617Y-6628204D01*
X-4645010Y-6555808D01*
X-4668186Y-6545787D01*
X-4668193Y-6545786D01*
X-4779693Y-6533719D01*
X-4779695Y-6533719D01*
X-4888032Y-6562748D01*
X-4978568Y-6628954D01*
X-4978569Y-6628955D01*
X-4993629Y-6649221D01*
X-4993635Y-6649231D01*
X-5066025Y-6774612D01*
X-5066025Y-6774613D01*
X-5344500Y-6774613D01*
X-5344500Y-6265834D01*
X-5325593Y-6207643D01*
X-5315504Y-6195831D01*
X-5121411Y-6001737D01*
X-5118234Y-5998824D01*
X-5086806Y-5972455D01*
X-5066291Y-5936919D01*
X-5063973Y-5933283D01*
X-5049824Y-5913075D01*
X-5040447Y-5899684D01*
X-5040058Y-5898231D01*
X-5030167Y-5874352D01*
X-5029412Y-5873045D01*
X-5022286Y-5832624D01*
X-5021358Y-5828439D01*
X-5010737Y-5788807D01*
X-5014313Y-5747934D01*
X-5014500Y-5743634D01*
X-5014500Y-5510596D01*
X-5014500Y-5276349D01*
X-5014313Y-5272073D01*
X-5010736Y-5231193D01*
X-5021360Y-5191548D01*
X-5022290Y-5187348D01*
X-5025631Y-5168401D01*
X-5029412Y-5146955D01*
X-5030160Y-5145659D01*
X-5040058Y-5121767D01*
X-5040446Y-5120316D01*
X-5040448Y-5120313D01*
X-5040449Y-5120311D01*
X-5063975Y-5086712D01*
X-5066297Y-5083068D01*
X-5086807Y-5047543D01*
X-5114046Y-5024688D01*
X-5118235Y-5021173D01*
X-5121412Y-5018261D01*
X-5693548Y-4446125D01*
X-5696467Y-4442940D01*
X-5722833Y-4411517D01*
X-5745471Y-4398447D01*
X-5758371Y-4390999D01*
X-5762001Y-4388686D01*
X-5795605Y-4365157D01*
X-5795610Y-4365154D01*
X-5797065Y-4364765D01*
X-5820941Y-4354875D01*
X-5822244Y-4354122D01*
X-5862637Y-4347000D01*
X-5866853Y-4346065D01*
X-5893136Y-4339023D01*
X-5906482Y-4335447D01*
X-5906483Y-4335447D01*
X-5910908Y-4335834D01*
X-5947363Y-4339023D01*
X-5951663Y-4339211D01*
X-6790096Y-4339211D01*
X-6848287Y-4320304D01*
X-6875832Y-4289711D01*
X-6912136Y-4226830D01*
X-6924247Y-4205853D01*
X-6937139Y-4191153D01*
X-6963564Y-4161021D01*
X-6963566Y-4161020D01*
X-6969993Y-4153691D01*
X-6969115Y-4152920D01*
X-6998185Y-4110625D01*
X-6998888Y-4056882D01*
X-6983720Y-4000275D01*
X-6983720Y-4000270D01*
X-6995787Y-3888766D01*
X-6995788Y-3888764D01*
X-7005812Y-3865580D01*
X-7078204Y-3740193D01*
X-7078206Y-3740193D01*
X-7466896Y-3964603D01*
X-7466897Y-3964604D01*
X-7598686Y-4040692D01*
X-7658535Y-4053413D01*
X-7714430Y-4028526D01*
X-7733922Y-4004455D01*
X-8034422Y-3483975D01*
X-8034423Y-3483975D01*
X-8159818Y-3556373D01*
X-8180084Y-3571433D01*
X-8225587Y-3633659D01*
X-8275198Y-3669470D01*
X-8336383Y-3669282D01*
X-8385772Y-3633166D01*
X-8404500Y-3575222D01*
X-8404500Y-3555833D01*
X-8385593Y-3497642D01*
X-8375510Y-3485835D01*
X-8223650Y-3333975D01*
X-7774614Y-3333975D01*
X-7574615Y-3680383D01*
X-7228206Y-3480384D01*
X-7228206Y-3480383D01*
X-7300600Y-3354993D01*
X-7315663Y-3334723D01*
X-7406195Y-3268520D01*
X-7406197Y-3268519D01*
X-7514536Y-3239490D01*
X-7626041Y-3251557D01*
X-7626043Y-3251558D01*
X-7649216Y-3261577D01*
X-7774614Y-3333975D01*
X-8223650Y-3333975D01*
X-7081412Y-2191736D01*
X-7078234Y-2188824D01*
X-7046806Y-2162455D01*
X-7026291Y-2126919D01*
X-7023973Y-2123283D01*
X-7012065Y-2106275D01*
X-7000447Y-2089684D01*
X-7000058Y-2088231D01*
X-6990167Y-2064352D01*
X-6989412Y-2063045D01*
X-6982286Y-2022624D01*
X-6981358Y-2018439D01*
X-6970737Y-1978807D01*
X-6974313Y-1937934D01*
X-6974500Y-1933634D01*
X-6974500Y-1306362D01*
X-6974313Y-1302061D01*
X-6970737Y-1261193D01*
X-6981358Y-1221559D01*
X-6982288Y-1217360D01*
X-6983393Y-1211093D01*
X-6989412Y-1176955D01*
X-6990166Y-1175649D01*
X-7000059Y-1151765D01*
X-7000447Y-1150316D01*
X-7023974Y-1116716D01*
X-7026289Y-1113083D01*
X-7046806Y-1077545D01*
X-7078229Y-1051178D01*
X-7081406Y-1048266D01*
X-7898259Y-231414D01*
X-7901178Y-228229D01*
X-7927544Y-196806D01*
X-7960571Y-177738D01*
X-7963082Y-176288D01*
X-7966712Y-173975D01*
X-8000316Y-150446D01*
X-8000321Y-150443D01*
X-8001776Y-150054D01*
X-8025652Y-140164D01*
X-8034456Y-135081D01*
X-8032560Y-131796D01*
X-8067511Y-104085D01*
X-8083954Y-45150D01*
X-8067154Y0D01*
X-6105452Y0D01*
X-6085654Y-491285D01*
X-6085654Y-491291D01*
X-6085653Y-491297D01*
X-6085653Y-491306D01*
X-6026391Y-979365D01*
X-6026387Y-979392D01*
X-5928038Y-1461136D01*
X-5928038Y-1461137D01*
X-5791250Y-1933386D01*
X-5791247Y-1933395D01*
X-5704375Y-2162455D01*
X-5616890Y-2393133D01*
X-5547383Y-2539615D01*
X-5407422Y-2834579D01*
X-5406109Y-2837345D01*
X-5160267Y-3263155D01*
X-5110867Y-3334723D01*
X-4880962Y-3667800D01*
X-4570001Y-4048659D01*
X-4229399Y-4403263D01*
X-4229395Y-4403267D01*
X-3946460Y-4653925D01*
X-3861365Y-4729313D01*
X-3861360Y-4729317D01*
X-3468293Y-5024688D01*
X-3294857Y-5134362D01*
X-3052726Y-5287477D01*
X-3052719Y-5287480D01*
X-3052720Y-5287480D01*
X-3052707Y-5287488D01*
X-2712168Y-5466215D01*
X-2617362Y-5515973D01*
X-2165023Y-5708697D01*
X-1992660Y-5766240D01*
X-1698659Y-5864392D01*
X-1698649Y-5864395D01*
X-1698643Y-5864397D01*
X-1221247Y-5982065D01*
X-735931Y-6060936D01*
X-245842Y-6100500D01*
X-245837Y-6100500D01*
X245837Y-6100500D01*
X245842Y-6100500D01*
X735931Y-6060936D01*
X1221247Y-5982065D01*
X1698643Y-5864397D01*
X2165023Y-5708697D01*
X2617362Y-5515973D01*
X2870219Y-5383264D01*
X3052706Y-5287488D01*
X3052711Y-5287484D01*
X3052726Y-5287477D01*
X3468292Y-5024688D01*
X3794320Y-4779694D01*
X6533719Y-4779694D01*
X6562748Y-4888031D01*
X6628954Y-4978567D01*
X6628955Y-4978568D01*
X6649219Y-4993627D01*
X6774613Y-5066023D01*
X6974612Y-4719614D01*
X6628204Y-4519615D01*
X6555808Y-4645009D01*
X6545787Y-4668185D01*
X6545786Y-4668192D01*
X6533719Y-4779692D01*
X6533719Y-4779694D01*
X3794320Y-4779694D01*
X3861365Y-4729313D01*
X4229395Y-4403267D01*
X4569996Y-4048664D01*
X4880959Y-3667803D01*
X5160267Y-3263155D01*
X5406109Y-2837345D01*
X5490295Y-2659927D01*
X7607130Y-2659927D01*
X8009457Y-2892210D01*
X8009458Y-2892210D01*
X8184456Y-2589105D01*
X8184456Y-2589103D01*
X8098741Y-2539615D01*
X8010203Y-2505627D01*
X8010196Y-2505625D01*
X7883674Y-2498996D01*
X7883668Y-2498996D01*
X7761277Y-2531790D01*
X7761274Y-2531792D01*
X7655014Y-2600798D01*
X7655013Y-2600798D01*
X7607130Y-2659927D01*
X5490295Y-2659927D01*
X5616890Y-2393133D01*
X5791244Y-1933401D01*
X5791246Y-1933395D01*
X5791249Y-1933386D01*
X5928037Y-1461137D01*
X5928037Y-1461136D01*
X5928039Y-1461130D01*
X6026388Y-979383D01*
X6042443Y-847159D01*
X6085652Y-491306D01*
X6085652Y-491301D01*
X6085654Y-491285D01*
X6105452Y0D01*
X6085654Y491285D01*
X6085652Y491302D01*
X6085652Y491307D01*
X6029739Y951787D01*
X6026388Y979383D01*
X5928039Y1461130D01*
X5918268Y1494865D01*
X5791249Y1933387D01*
X5791246Y1933396D01*
X5707723Y2153627D01*
X5616890Y2393133D01*
X5406109Y2837345D01*
X5160267Y3263155D01*
X5010324Y3480385D01*
X7228204Y3480385D01*
X7300599Y3354994D01*
X7315662Y3334724D01*
X7406194Y3268521D01*
X7406196Y3268520D01*
X7514535Y3239491D01*
X7626040Y3251558D01*
X7626042Y3251559D01*
X7649222Y3261581D01*
X7774612Y3333976D01*
X7574613Y3680385D01*
X7228204Y3480386D01*
X7228204Y3480385D01*
X5010324Y3480385D01*
X4996842Y3499917D01*
X4880961Y3667801D01*
X4570000Y4048660D01*
X4229398Y4403264D01*
X4173552Y4452739D01*
X3861365Y4729313D01*
X3861364Y4729314D01*
X3861359Y4729318D01*
X3468292Y5024689D01*
X3165718Y5216025D01*
X3052726Y5287477D01*
X3052722Y5287480D01*
X3052719Y5287481D01*
X3052706Y5287489D01*
X2617376Y5515966D01*
X2617372Y5515968D01*
X2617369Y5515970D01*
X2617362Y5515973D01*
X2165023Y5708697D01*
X2165024Y5708697D01*
X2165021Y5708698D01*
X1698658Y5864393D01*
X1698638Y5864399D01*
X1282672Y5966925D01*
X1221247Y5982065D01*
X735931Y6060936D01*
X735925Y6060937D01*
X458680Y6083318D01*
X245842Y6100500D01*
X-245842Y6100500D01*
X-443658Y6084531D01*
X-735926Y6060937D01*
X-1221247Y5982065D01*
X-1698639Y5864399D01*
X-1698659Y5864393D01*
X-2165022Y5708698D01*
X-2376955Y5618401D01*
X-2617362Y5515973D01*
X-2617366Y5515972D01*
X-2617373Y5515968D01*
X-2617377Y5515966D01*
X-3052707Y5287489D01*
X-3052720Y5287481D01*
X-3468293Y5024689D01*
X-3861360Y4729318D01*
X-3861365Y4729314D01*
X-4229399Y4403264D01*
X-4570001Y4048660D01*
X-4880962Y3667801D01*
X-5160266Y3263157D01*
X-5177849Y3232703D01*
X-5358538Y2919739D01*
X-5406115Y2837334D01*
X-5530199Y2575831D01*
X-5609444Y2408824D01*
X-5616892Y2393128D01*
X-5791247Y1933396D01*
X-5791250Y1933387D01*
X-5928038Y1461138D01*
X-5928038Y1461137D01*
X-6026387Y979393D01*
X-6026391Y979366D01*
X-6085653Y491307D01*
X-6085653Y491298D01*
X-6085654Y491291D01*
X-6085654Y491285D01*
X-6105452Y0D01*
X-8067154Y0D01*
X-8062617Y12194D01*
X-8055043Y20693D01*
X-8048214Y27522D01*
X-8002910Y130128D01*
X-8000001Y155203D01*
X-8000000Y155205D01*
X-8000000Y299999D01*
X-8000001Y300000D01*
X-8601000Y300000D01*
X-8659191Y318907D01*
X-8695155Y368407D01*
X-8700000Y399000D01*
X-8700000Y600001D01*
X-8400000Y600001D01*
X-8399999Y600000D01*
X-8000002Y600000D01*
X-8000001Y600002D01*
X-8000001Y744791D01*
X-8000002Y744792D01*
X-8002910Y769875D01*
X-8048214Y872478D01*
X-8127523Y951787D01*
X-8230128Y997091D01*
X-8255203Y1000000D01*
X-8399999Y1000000D01*
X-8400000Y999999D01*
X-8400000Y600001D01*
X-8700000Y600001D01*
X-8700000Y999999D01*
X-8700001Y1000000D01*
X-8810667Y1000000D01*
X-8868858Y1018907D01*
X-8904822Y1068407D01*
X-8904822Y1129593D01*
X-8880670Y1169004D01*
X-8774169Y1275504D01*
X-8719653Y1303281D01*
X-8704166Y1304500D01*
X-7656374Y1304500D01*
X-7652074Y1304313D01*
X-7611193Y1300736D01*
X-7571548Y1311360D01*
X-7567350Y1312290D01*
X-7526955Y1319412D01*
X-7525655Y1320162D01*
X-7501764Y1330058D01*
X-7501536Y1330120D01*
X-7500316Y1330446D01*
X-7466697Y1353988D01*
X-7463089Y1356286D01*
X-7427545Y1376806D01*
X-7401173Y1408237D01*
X-7398274Y1411402D01*
X-6581412Y2228263D01*
X-6578234Y2231176D01*
X-6546806Y2257545D01*
X-6526291Y2293081D01*
X-6523973Y2296717D01*
X-6512065Y2313725D01*
X-6500447Y2330316D01*
X-6500058Y2331769D01*
X-6490167Y2355648D01*
X-6489412Y2356955D01*
X-6482286Y2397376D01*
X-6481358Y2401561D01*
X-6470737Y2441193D01*
X-6474313Y2482066D01*
X-6474500Y2486366D01*
X-6474500Y3039398D01*
X-6474313Y3043699D01*
X-6470736Y3084578D01*
X-6481360Y3124223D01*
X-6482290Y3128423D01*
X-6484420Y3140504D01*
X-6489412Y3168816D01*
X-6490160Y3170112D01*
X-6500058Y3194004D01*
X-6500446Y3195455D01*
X-6500448Y3195458D01*
X-6500449Y3195460D01*
X-6523975Y3229059D01*
X-6526297Y3232703D01*
X-6546807Y3268228D01*
X-6571511Y3288956D01*
X-6578235Y3294598D01*
X-6581412Y3297510D01*
X-7079483Y3795580D01*
X-7107260Y3850097D01*
X-7103226Y3897404D01*
X-7085333Y3950112D01*
X-7085334Y3950114D01*
X-7082199Y3959346D01*
X-7081094Y3958971D01*
X-7058997Y4005294D01*
X-7012808Y4032773D01*
X-6956198Y4047942D01*
X-6865662Y4114148D01*
X-6865661Y4114149D01*
X-6850601Y4134415D01*
X-6850598Y4134419D01*
X-6778206Y4259808D01*
X-6778206Y4259809D01*
X-7298685Y4560308D01*
X-7339626Y4605777D01*
X-7346022Y4666627D01*
X-7334922Y4695544D01*
X-7321024Y4719616D01*
X-6974614Y4719616D01*
X-6628206Y4519617D01*
X-6628205Y4519617D01*
X-6555813Y4645003D01*
X-6555812Y4645004D01*
X-6545788Y4668186D01*
X-6545787Y4668193D01*
X-6533720Y4779693D01*
X-6533720Y4779695D01*
X-6562749Y4888032D01*
X-6628955Y4978568D01*
X-6628956Y4978569D01*
X-6649222Y4993629D01*
X-6649232Y4993635D01*
X-6774614Y5066025D01*
X-6774615Y5066025D01*
X-6974614Y4719616D01*
X-7321024Y4719616D01*
X-7234422Y4869615D01*
X-7034424Y5216025D01*
X-7127502Y5269763D01*
X-7168443Y5315233D01*
X-7174839Y5376083D01*
X-7144246Y5429071D01*
X-7088351Y5453958D01*
X-7078002Y5454500D01*
X-6515833Y5454500D01*
X-6457642Y5435593D01*
X-6445830Y5425504D01*
X-6278335Y5258008D01*
X-6111737Y5091410D01*
X-6108818Y5088224D01*
X-6082455Y5056806D01*
X-6070469Y5049886D01*
X-6046926Y5036293D01*
X-6043291Y5033978D01*
X-6009684Y5010446D01*
X-6008233Y5010058D01*
X-5984341Y5000160D01*
X-5983046Y4999412D01*
X-5974146Y4997843D01*
X-5942635Y4992287D01*
X-5938456Y4991362D01*
X-5898807Y4980737D01*
X-5857935Y4984313D01*
X-5853635Y4984500D01*
X-5316374Y4984500D01*
X-5312074Y4984313D01*
X-5271193Y4980736D01*
X-5231548Y4991360D01*
X-5227350Y4992290D01*
X-5186955Y4999412D01*
X-5185655Y5000162D01*
X-5161764Y5010058D01*
X-5161536Y5010120D01*
X-5160316Y5010446D01*
X-5126697Y5033988D01*
X-5123089Y5036286D01*
X-5087545Y5056806D01*
X-5061162Y5088250D01*
X-5058274Y5091402D01*
X-4231417Y5918258D01*
X-4228240Y5921171D01*
X-4196806Y5947545D01*
X-4176286Y5983089D01*
X-4173988Y5986697D01*
X-4150446Y6020316D01*
X-4150059Y6021764D01*
X-4140162Y6045655D01*
X-4139413Y6046953D01*
X-4139413Y6046954D01*
X-4139412Y6046955D01*
X-4132288Y6087365D01*
X-4131359Y6091554D01*
X-4120736Y6131194D01*
X-4124313Y6172079D01*
X-4124500Y6176378D01*
X-4124500Y6628206D01*
X4519615Y6628206D01*
X4645010Y6555809D01*
X4668185Y6545788D01*
X4668192Y6545787D01*
X4779692Y6533720D01*
X4779694Y6533720D01*
X4888031Y6562749D01*
X4978567Y6628955D01*
X4978568Y6628956D01*
X4993628Y6649222D01*
X4993631Y6649226D01*
X5066023Y6774615D01*
X4719614Y6974614D01*
X4519615Y6628206D01*
X-4124500Y6628206D01*
X-4124500Y6773636D01*
X-4124313Y6777933D01*
X-4120737Y6818807D01*
X-4131357Y6858440D01*
X-4132286Y6862625D01*
X-4134259Y6873817D01*
X-4125744Y6934404D01*
X-4083241Y6978417D01*
X-4022985Y6989042D01*
X-4011137Y6986631D01*
X-4000271Y6983720D01*
X-3888767Y6995787D01*
X-3888765Y6995788D01*
X-3865585Y7005810D01*
X-3740195Y7078205D01*
X-3943225Y7429865D01*
X-4026796Y7574615D01*
X-3680385Y7574615D01*
X-3480386Y7228206D01*
X-3354988Y7300605D01*
X-3334724Y7315663D01*
X-3268521Y7406195D01*
X-3268520Y7406197D01*
X-3239491Y7514535D01*
X-3239491Y7514537D01*
X-3251558Y7626041D01*
X-3251559Y7626043D01*
X-3261583Y7649227D01*
X-3333976Y7774614D01*
X-3680385Y7574615D01*
X-4026796Y7574615D01*
X-4040694Y7598687D01*
X-4053415Y7658536D01*
X-4028528Y7714431D01*
X-4004457Y7733924D01*
X-3469109Y8043007D01*
X-3457176Y8061379D01*
X-3400054Y8083304D01*
X-3394876Y8083440D01*
X-3164774Y8083440D01*
X-3106583Y8064533D01*
X-3094770Y8054444D01*
X-2121743Y7081416D01*
X-2118825Y7078231D01*
X-2102684Y7058996D01*
X-2092455Y7046806D01*
X-2056927Y7026294D01*
X-2053288Y7023975D01*
X-2019689Y7000449D01*
X-2019687Y7000448D01*
X-2019684Y7000446D01*
X-2018233Y7000058D01*
X-1994341Y6990160D01*
X-1993814Y6989857D01*
X-1993045Y6989412D01*
X-1952649Y6982290D01*
X-1948452Y6981360D01*
X-1908807Y6970736D01*
X-1867927Y6974313D01*
X-1863626Y6974500D01*
X-1086374Y6974500D01*
X-1082074Y6974313D01*
X-1041193Y6970736D01*
X-1001548Y6981360D01*
X-997350Y6982290D01*
X-956955Y6989412D01*
X-956953Y6989413D01*
X-955655Y6990162D01*
X-931764Y7000058D01*
X-931536Y7000120D01*
X-930316Y7000446D01*
X-896697Y7023988D01*
X-893089Y7026286D01*
X-857545Y7046806D01*
X-831173Y7078237D01*
X-828274Y7081402D01*
X-231412Y7678263D01*
X-228234Y7681176D01*
X-196806Y7707545D01*
X-176291Y7743081D01*
X-173973Y7746717D01*
X-150889Y7779685D01*
X-150447Y7780316D01*
X-150058Y7781769D01*
X-140167Y7805648D01*
X-139412Y7806955D01*
X-132286Y7847376D01*
X-131358Y7851561D01*
X-120737Y7891193D01*
X-124313Y7932066D01*
X-124500Y7936366D01*
X-124500Y7964534D01*
X-105593Y8022725D01*
X-56093Y8058689D01*
X5093Y8058689D01*
X19079Y8051805D01*
X19130Y8051919D01*
X130127Y8002910D01*
X155203Y8000001D01*
X300000Y8000001D01*
X300000Y8000003D01*
X600000Y8000003D01*
X600001Y8000001D01*
X744790Y8000001D01*
X744791Y8000002D01*
X769874Y8002910D01*
X872477Y8048214D01*
X951786Y8127523D01*
X997090Y8230128D01*
X999999Y8255203D01*
X1000000Y8255205D01*
X1000000Y8399999D01*
X999999Y8400000D01*
X600001Y8400000D01*
X600000Y8399999D01*
X600000Y8000003D01*
X300000Y8000003D01*
X300000Y8601000D01*
X318907Y8659191D01*
X368407Y8695155D01*
X399000Y8700000D01*
X999998Y8700000D01*
X999999Y8700001D01*
X999999Y8844791D01*
X999998Y8844792D01*
X997090Y8869875D01*
X948081Y8980870D01*
X950184Y8981799D01*
X936504Y9028242D01*
X957016Y9085886D01*
X1007493Y9120466D01*
X1035466Y9124500D01*
X1174166Y9124500D01*
X1232357Y9105593D01*
X1244170Y9095504D01*
X1595504Y8744170D01*
X1623281Y8689653D01*
X1624500Y8674166D01*
X1624500Y7516375D01*
X1624312Y7512073D01*
X1620736Y7471193D01*
X1620959Y7470360D01*
X1631354Y7431564D01*
X1632289Y7427348D01*
X1639411Y7386955D01*
X1640164Y7385652D01*
X1650054Y7361776D01*
X1650443Y7360321D01*
X1650446Y7360316D01*
X1664932Y7339627D01*
X1673971Y7326719D01*
X1676292Y7323076D01*
X1696806Y7287545D01*
X1728230Y7261177D01*
X1731416Y7258258D01*
X2168263Y6821410D01*
X2171182Y6818224D01*
X2176355Y6812059D01*
X2197545Y6786806D01*
X2197547Y6786805D01*
X2233074Y6766293D01*
X2236709Y6763978D01*
X2270316Y6740446D01*
X2271767Y6740058D01*
X2295659Y6730160D01*
X2296954Y6729412D01*
X2305854Y6727843D01*
X2337365Y6722287D01*
X2341544Y6721362D01*
X2381193Y6710737D01*
X2422065Y6714313D01*
X2426365Y6714500D01*
X3279397Y6714500D01*
X3283697Y6714313D01*
X3324578Y6710736D01*
X3364223Y6721360D01*
X3368421Y6722290D01*
X3408816Y6729412D01*
X3408925Y6729475D01*
X3410116Y6730162D01*
X3434007Y6740058D01*
X3434235Y6740120D01*
X3435455Y6740446D01*
X3469074Y6763988D01*
X3472682Y6766286D01*
X3508226Y6786806D01*
X3534609Y6818250D01*
X3537497Y6821402D01*
X3795580Y7079485D01*
X3850095Y7107260D01*
X3897404Y7103225D01*
X3934743Y7090550D01*
X3959345Y7082199D01*
X3958969Y7081094D01*
X4005294Y7058996D01*
X4032771Y7012810D01*
X4047940Y6956200D01*
X4047941Y6956198D01*
X4114147Y6865662D01*
X4114148Y6865661D01*
X4134412Y6850602D01*
X4259806Y6778206D01*
X4560306Y7298686D01*
X4605776Y7339627D01*
X4666626Y7346023D01*
X4695543Y7334922D01*
X4852433Y7244341D01*
X4852434Y7244341D01*
X5216023Y7034424D01*
X5216024Y7034424D01*
X5288416Y7159810D01*
X5288417Y7159811D01*
X5298441Y7182993D01*
X5298442Y7183000D01*
X5310509Y7294500D01*
X5310509Y7294505D01*
X5295341Y7351111D01*
X5298542Y7412212D01*
X5324822Y7447404D01*
X5324236Y7447918D01*
X5369979Y7500079D01*
X5369981Y7500081D01*
X5411338Y7571714D01*
X5418397Y7583940D01*
X5463865Y7624881D01*
X5504133Y7633440D01*
X5725226Y7633440D01*
X5783417Y7614533D01*
X5795230Y7604444D01*
X5865503Y7534171D01*
X5893280Y7479654D01*
X5894499Y7464167D01*
X5894499Y6975835D01*
X5875592Y6917644D01*
X5865503Y6905831D01*
X4991413Y6031741D01*
X4988229Y6028824D01*
X4956807Y6002458D01*
X4956806Y6002456D01*
X4936292Y5966925D01*
X4933972Y5963284D01*
X4910446Y5929684D01*
X4910442Y5929676D01*
X4910051Y5928214D01*
X4900170Y5904360D01*
X4899414Y5903052D01*
X4899410Y5903040D01*
X4892287Y5862651D01*
X4891353Y5858436D01*
X4880736Y5818813D01*
X4880736Y5818807D01*
X4884312Y5777928D01*
X4884500Y5773627D01*
X4884500Y5386375D01*
X4884312Y5382073D01*
X4883789Y5376083D01*
X4880736Y5341194D01*
X4891354Y5301564D01*
X4892289Y5297348D01*
X4899411Y5256955D01*
X4900164Y5255652D01*
X4910054Y5231776D01*
X4910443Y5230321D01*
X4910446Y5230316D01*
X4929097Y5203679D01*
X4933971Y5196719D01*
X4936288Y5193082D01*
X4950538Y5168401D01*
X4956806Y5157545D01*
X4988224Y5131182D01*
X4991410Y5128263D01*
X5998257Y4121416D01*
X6001175Y4118231D01*
X6027544Y4086807D01*
X6027545Y4086806D01*
X6063073Y4066294D01*
X6066712Y4063975D01*
X6100311Y4040449D01*
X6100313Y4040448D01*
X6100316Y4040446D01*
X6101767Y4040058D01*
X6125659Y4030160D01*
X6126186Y4029857D01*
X6126955Y4029412D01*
X6167351Y4022290D01*
X6171548Y4021360D01*
X6211193Y4010736D01*
X6252073Y4014313D01*
X6256374Y4014500D01*
X6838433Y4014500D01*
X6842733Y4014313D01*
X6883614Y4010736D01*
X6883620Y4010738D01*
X6885036Y4010861D01*
X6886775Y4010460D01*
X6892243Y4009981D01*
X6892175Y4009213D01*
X6944654Y3997100D01*
X6984796Y3950924D01*
X6992093Y3922891D01*
X6995786Y3888767D01*
X6995787Y3888765D01*
X7005811Y3865581D01*
X7078203Y3740195D01*
X7078204Y3740195D01*
X7441795Y3950112D01*
X7598684Y4040693D01*
X7658533Y4053415D01*
X7714428Y4028529D01*
X7733922Y4004457D01*
X8043002Y3469114D01*
X8061375Y3457183D01*
X8083304Y3400063D01*
X8083440Y3394877D01*
X8083440Y3384775D01*
X8064533Y3326584D01*
X8054444Y3314771D01*
X7151413Y2411741D01*
X7148228Y2408824D01*
X7116807Y2382458D01*
X7116806Y2382456D01*
X7103306Y2359075D01*
X7101331Y2355652D01*
X7096292Y2346925D01*
X7093972Y2343284D01*
X7070446Y2309684D01*
X7070442Y2309676D01*
X7070051Y2308214D01*
X7060170Y2284360D01*
X7059414Y2283052D01*
X7059410Y2283040D01*
X7052287Y2242651D01*
X7051353Y2238436D01*
X7040736Y2198813D01*
X7040736Y2198807D01*
X7044312Y2157928D01*
X7044500Y2153627D01*
X7044500Y1166375D01*
X7044312Y1162073D01*
X7041553Y1130526D01*
X7040736Y1121194D01*
X7051354Y1081564D01*
X7052289Y1077348D01*
X7059411Y1036955D01*
X7060164Y1035652D01*
X7070054Y1011776D01*
X7070443Y1010321D01*
X7070446Y1010316D01*
X7092773Y978429D01*
X7093971Y976719D01*
X7096292Y973076D01*
X7116806Y937545D01*
X7148224Y911182D01*
X7151410Y908263D01*
X7828268Y231404D01*
X7831187Y228218D01*
X7857545Y196806D01*
X7893083Y176289D01*
X7896716Y173974D01*
X7930316Y150447D01*
X7931766Y150059D01*
X7955649Y140166D01*
X7956955Y139412D01*
X7989156Y133735D01*
X8043179Y105012D01*
X8070002Y50019D01*
X8059379Y-10237D01*
X8052605Y-19410D01*
X8053398Y-19953D01*
X8048214Y-27520D01*
X8002909Y-130127D01*
X8000000Y-155202D01*
X8000000Y-299999D01*
X8000001Y-300000D01*
X8601000Y-300000D01*
X8659191Y-318907D01*
X8695155Y-368407D01*
X8700000Y-399000D01*
X8700000Y-999998D01*
X8700001Y-999999D01*
X8844790Y-999999D01*
X8844791Y-999998D01*
X8869874Y-997090D01*
X8972477Y-951786D01*
X9000496Y-923768D01*
X9055013Y-895991D01*
X9115445Y-905562D01*
X9158710Y-948827D01*
X9169500Y-993772D01*
X9169500Y-1180500D01*
X9150593Y-1238691D01*
X9101093Y-1274655D01*
X9070505Y-1279500D01*
X9055141Y-1279500D01*
X9055135Y-1279501D01*
X9030009Y-1282414D01*
X8949987Y-1317748D01*
X8889117Y-1323956D01*
X8870018Y-1317750D01*
X8789991Y-1282415D01*
X8789988Y-1282414D01*
X8764869Y-1279500D01*
X8764865Y-1279500D01*
X8611521Y-1279500D01*
X8553330Y-1260593D01*
X8517366Y-1211093D01*
X8513368Y-1167578D01*
X8515682Y-1150000D01*
X8515682Y-1149999D01*
X8503062Y-1054143D01*
X8503200Y-1053394D01*
X8502847Y-1052508D01*
X8495934Y-999998D01*
X8495044Y-993238D01*
X8434536Y-847159D01*
X8420456Y-828809D01*
X8400034Y-771133D01*
X8400000Y-768544D01*
X8400000Y-600001D01*
X8399999Y-600000D01*
X8171058Y-600000D01*
X8133172Y-592464D01*
X8066764Y-564957D01*
X8066766Y-564957D01*
X8066762Y-564956D01*
X8066760Y-564955D01*
X8066758Y-564955D01*
X7910001Y-544318D01*
X7909999Y-544318D01*
X7753241Y-564955D01*
X7753233Y-564957D01*
X7607161Y-625462D01*
X7607160Y-625462D01*
X7481723Y-721713D01*
X7481713Y-721723D01*
X7385462Y-847160D01*
X7385462Y-847161D01*
X7324957Y-993233D01*
X7324955Y-993241D01*
X7304318Y-1149999D01*
X7304318Y-1150000D01*
X7324955Y-1306758D01*
X7324957Y-1306766D01*
X7385462Y-1452838D01*
X7385462Y-1452839D01*
X7481713Y-1578276D01*
X7481718Y-1578282D01*
X7607159Y-1674536D01*
X7607160Y-1674536D01*
X7607161Y-1674537D01*
X7718582Y-1720689D01*
X7753238Y-1735044D01*
X7900982Y-1754494D01*
X7956206Y-1780835D01*
X7985401Y-1834605D01*
X7986400Y-1841240D01*
X7987415Y-1849991D01*
X8032794Y-1952765D01*
X8112235Y-2032206D01*
X8215009Y-2077585D01*
X8240135Y-2080500D01*
X8764864Y-2080499D01*
X8789991Y-2077585D01*
X8870013Y-2042251D01*
X8930881Y-2036044D01*
X8949984Y-2042250D01*
X9030009Y-2077585D01*
X9055135Y-2080500D01*
X9579864Y-2080499D01*
X9604991Y-2077585D01*
X9707765Y-2032206D01*
X9787206Y-1952765D01*
X9832585Y-1849991D01*
X9835500Y-1824865D01*
X9835499Y-1535136D01*
X9832585Y-1510009D01*
X9830329Y-1504900D01*
X9822272Y-1473543D01*
X9820687Y-1455426D01*
X9820500Y-1451124D01*
X9820500Y-909610D01*
X9839407Y-851419D01*
X9841961Y-848428D01*
X9844550Y-844553D01*
X9844552Y-844552D01*
X9888867Y-778231D01*
X9900500Y-719748D01*
X9900500Y-180252D01*
X9899497Y-175212D01*
X9894571Y-150446D01*
X9888867Y-121769D01*
X9844552Y-55448D01*
X9844549Y-55446D01*
X9844253Y-55003D01*
X9827644Y3885D01*
X9844253Y55003D01*
X9844549Y55447D01*
X9844552Y55448D01*
X9888867Y121769D01*
X9900500Y180252D01*
X9900500Y500003D01*
X9919407Y558194D01*
X9968907Y594158D01*
X9986571Y598155D01*
X10084965Y611108D01*
X10231044Y671616D01*
X10356485Y767870D01*
X10452739Y893311D01*
X10513247Y1039390D01*
X10533885Y1196152D01*
X10533378Y1200000D01*
X10526028Y1255830D01*
X10513247Y1352914D01*
X10469012Y1459706D01*
X10452740Y1498991D01*
X10452740Y1498992D01*
X10356489Y1624429D01*
X10356488Y1624430D01*
X10356485Y1624434D01*
X10356480Y1624438D01*
X10356479Y1624439D01*
X10231041Y1720690D01*
X10084969Y1781195D01*
X10084961Y1781197D01*
X9928204Y1801834D01*
X9928202Y1801834D01*
X9771444Y1781197D01*
X9771435Y1781195D01*
X9699614Y1751445D01*
X9642412Y1746944D01*
X9642387Y1746727D01*
X9641284Y1746855D01*
X9638617Y1746645D01*
X9635739Y1747381D01*
X9634987Y1747586D01*
X9609868Y1750500D01*
X9085139Y1750500D01*
X9085133Y1750499D01*
X9070010Y1748745D01*
X9010029Y1760824D01*
X8988603Y1777082D01*
X8988043Y1777642D01*
X8875151Y1835164D01*
X8875147Y1835165D01*
X8781484Y1850000D01*
X8682501Y1850000D01*
X8682500Y1849999D01*
X8682500Y1299000D01*
X8663593Y1240809D01*
X8614093Y1204845D01*
X8583500Y1200000D01*
X7912319Y1200000D01*
X7871927Y1175250D01*
X7810930Y1180052D01*
X7778817Y1201510D01*
X7724495Y1255832D01*
X7696719Y1310347D01*
X7695500Y1325834D01*
X7695500Y1500000D01*
X7917933Y1500000D01*
X8382499Y1500000D01*
X8382500Y1500001D01*
X8382500Y1850000D01*
X8283517Y1850000D01*
X8283514Y1849999D01*
X8189858Y1835167D01*
X8189848Y1835164D01*
X8076956Y1777642D01*
X7987358Y1688044D01*
X7929836Y1575152D01*
X7929835Y1575148D01*
X7917933Y1500000D01*
X7695500Y1500000D01*
X7695500Y1994167D01*
X7714407Y2052358D01*
X7724490Y2064165D01*
X8627523Y2967199D01*
X8630700Y2970111D01*
X8662134Y2996485D01*
X8682654Y3032029D01*
X8684952Y3035637D01*
X8708494Y3069256D01*
X8708881Y3070704D01*
X8718778Y3094595D01*
X8719528Y3095895D01*
X8726649Y3136284D01*
X8727580Y3140488D01*
X8738204Y3180133D01*
X8734627Y3221014D01*
X8734440Y3225292D01*
X8734440Y3945868D01*
X8753347Y4004058D01*
X8783941Y4031604D01*
X8842154Y4065213D01*
X8867799Y4080019D01*
X8912630Y4119335D01*
X8947908Y4190873D01*
X8953125Y4270466D01*
X8933958Y4326930D01*
X8664210Y4794148D01*
X8624894Y4838979D01*
X8553356Y4874257D01*
X8553354Y4874258D01*
X8552874Y4874494D01*
X8509047Y4917188D01*
X8497872Y4969761D01*
X8497906Y4970293D01*
X8497908Y4970295D01*
X8503125Y5049888D01*
X8483958Y5106352D01*
X8324081Y5383265D01*
X8311360Y5443112D01*
X8336246Y5499008D01*
X8349551Y5511306D01*
X8355627Y5515968D01*
X8428282Y5571718D01*
X8524536Y5697159D01*
X8585044Y5843238D01*
X8605682Y6000000D01*
X8605667Y6000111D01*
X8599500Y6046955D01*
X8585044Y6156762D01*
X8549713Y6242058D01*
X8524537Y6302839D01*
X8524537Y6302840D01*
X8428286Y6428277D01*
X8428285Y6428278D01*
X8428282Y6428282D01*
X8428277Y6428286D01*
X8428276Y6428287D01*
X8302838Y6524538D01*
X8156766Y6585043D01*
X8156758Y6585045D01*
X8000001Y6605682D01*
X7999999Y6605682D01*
X7843241Y6585045D01*
X7843233Y6585043D01*
X7697161Y6524538D01*
X7697160Y6524538D01*
X7571723Y6428287D01*
X7571716Y6428280D01*
X7524389Y6366602D01*
X7477102Y6334104D01*
X7477189Y6333903D01*
X7476167Y6333462D01*
X7473964Y6331947D01*
X7471106Y6331146D01*
X7470352Y6330948D01*
X7447140Y6320912D01*
X7447120Y6320902D01*
X6992709Y6058545D01*
X6980483Y6049460D01*
X6922497Y6029933D01*
X6895825Y6033298D01*
X6895060Y6033503D01*
X6895049Y6033504D01*
X6768524Y6026874D01*
X6768520Y6026873D01*
X6679985Y5992887D01*
X6594266Y5943398D01*
X6594266Y5943397D01*
X6769266Y5640288D01*
X6869765Y5466217D01*
X6882486Y5406368D01*
X6857599Y5350473D01*
X6833528Y5330981D01*
X6255239Y4997106D01*
X6228610Y4948059D01*
X6173385Y4921718D01*
X6113224Y4932868D01*
X6090459Y4949867D01*
X5584762Y5455564D01*
X6073234Y5455564D01*
X6079864Y5329039D01*
X6079865Y5329034D01*
X6107130Y5258008D01*
X6509456Y5490290D01*
X6334457Y5793397D01*
X6248737Y5743905D01*
X6175036Y5684224D01*
X6106030Y5577964D01*
X6106028Y5577961D01*
X6073234Y5455570D01*
X6073234Y5455564D01*
X5584762Y5455564D01*
X5564496Y5475830D01*
X5536719Y5530347D01*
X5535500Y5545834D01*
X5535500Y5614167D01*
X5554407Y5672358D01*
X5564490Y5684165D01*
X6438583Y6558259D01*
X6441760Y6561171D01*
X6473194Y6587545D01*
X6493714Y6623089D01*
X6496012Y6626697D01*
X6519554Y6660316D01*
X6519941Y6661764D01*
X6529838Y6685655D01*
X6530588Y6686955D01*
X6534781Y6710738D01*
X6537710Y6727350D01*
X6538640Y6731548D01*
X6549264Y6771193D01*
X6545687Y6812080D01*
X6545500Y6816354D01*
X6545500Y7623636D01*
X6545687Y7627933D01*
X6549263Y7668807D01*
X6538638Y7708456D01*
X6537713Y7712635D01*
X6530588Y7753045D01*
X6530588Y7753046D01*
X6529840Y7754341D01*
X6519942Y7778233D01*
X6519554Y7779684D01*
X6496022Y7813291D01*
X6493707Y7816926D01*
X6478513Y7843242D01*
X6473194Y7852455D01*
X6441765Y7878828D01*
X6438588Y7881739D01*
X6142806Y8177520D01*
X6139887Y8180705D01*
X6113516Y8212134D01*
X6082349Y8230128D01*
X6077978Y8232652D01*
X6074348Y8234965D01*
X6040744Y8258494D01*
X6040739Y8258497D01*
X6039284Y8258886D01*
X6015408Y8268776D01*
X6014105Y8269529D01*
X5973712Y8276651D01*
X5969496Y8277586D01*
X5943213Y8284628D01*
X5929867Y8288204D01*
X5929866Y8288204D01*
X5925441Y8287817D01*
X5888986Y8284628D01*
X5884686Y8284440D01*
X5478456Y8284440D01*
X5428956Y8297703D01*
X5262159Y8394003D01*
X5106352Y8483958D01*
X5106350Y8483959D01*
X5106346Y8483961D01*
X5049889Y8503125D01*
X5049884Y8503126D01*
X4969759Y8497873D01*
X4910456Y8512934D01*
X4874493Y8552876D01*
X4874257Y8553355D01*
X4874257Y8553356D01*
X4838979Y8624894D01*
X4794148Y8664210D01*
X4712605Y8711289D01*
X4671665Y8756758D01*
X4663483Y8805654D01*
X4664553Y8817872D01*
X4653930Y8857514D01*
X4652998Y8861721D01*
X4651927Y8867798D01*
X4645877Y8902111D01*
X4645124Y8903415D01*
X4635233Y8927295D01*
X4634844Y8928747D01*
X4634843Y8928748D01*
X4634843Y8928750D01*
X4634841Y8928753D01*
X4634840Y8928755D01*
X4611314Y8962354D01*
X4608992Y8965998D01*
X4603426Y8975638D01*
X4588483Y9001521D01*
X4588482Y9001523D01*
X4562542Y9023288D01*
X4557054Y9027893D01*
X4553877Y9030805D01*
X4551495Y9033186D01*
X4523718Y9087703D01*
X4523346Y9116106D01*
X4533885Y9196152D01*
X4513247Y9352914D01*
X4452740Y9498991D01*
X4452740Y9498992D01*
X4356489Y9624429D01*
X4356488Y9624430D01*
X4356485Y9624434D01*
X4356480Y9624438D01*
X4356479Y9624439D01*
X4285307Y9679051D01*
X4231044Y9720688D01*
X4231043Y9720689D01*
X4231041Y9720690D01*
X4084969Y9781195D01*
X4084961Y9781197D01*
X3928204Y9801834D01*
X3928202Y9801834D01*
X3771444Y9781197D01*
X3771436Y9781195D01*
X3625364Y9720690D01*
X3625363Y9720690D01*
X3499926Y9624439D01*
X3499916Y9624429D01*
X3403665Y9498992D01*
X3403665Y9498991D01*
X3343159Y9352915D01*
X3333010Y9275833D01*
X3308307Y9224046D01*
X3308484Y9223914D01*
X3307816Y9223016D01*
X3306668Y9220608D01*
X3304601Y9218494D01*
X3304047Y9217946D01*
X3288953Y9197635D01*
X3026590Y8743205D01*
X3026585Y8743195D01*
X3020546Y8729230D01*
X2980093Y8683325D01*
X2955314Y8672904D01*
X2954546Y8672699D01*
X2954536Y8672694D01*
X2848278Y8603689D01*
X2788593Y8529984D01*
X2739103Y8444267D01*
X2739103Y8444266D01*
X3042211Y8269266D01*
X3042212Y8269266D01*
X3216282Y8168767D01*
X3257223Y8123297D01*
X3263619Y8062447D01*
X3252519Y8033530D01*
X2896918Y7417607D01*
X2894917Y7418762D01*
X2872366Y7385954D01*
X2814689Y7365534D01*
X2812104Y7365500D01*
X2585835Y7365500D01*
X2527644Y7384407D01*
X2515831Y7394496D01*
X2304496Y7605831D01*
X2276719Y7660348D01*
X2275500Y7675835D01*
X2275500Y7883669D01*
X2498996Y7883669D01*
X2531790Y7761278D01*
X2531792Y7761275D01*
X2600797Y7655017D01*
X2659928Y7607133D01*
X2892210Y8009459D01*
X2892210Y8009460D01*
X2589105Y8184458D01*
X2589103Y8184458D01*
X2539613Y8098737D01*
X2539613Y8098736D01*
X2505627Y8010204D01*
X2505625Y8010197D01*
X2498996Y7883675D01*
X2498996Y7883669D01*
X2275500Y7883669D01*
X2275500Y8833636D01*
X2275687Y8837933D01*
X2279263Y8878807D01*
X2268638Y8918456D01*
X2267713Y8922635D01*
X2260588Y8963045D01*
X2260588Y8963046D01*
X2259840Y8964341D01*
X2249942Y8988233D01*
X2249554Y8989684D01*
X2249552Y8989687D01*
X2249551Y8989689D01*
X2226025Y9023288D01*
X2223703Y9026932D01*
X2223152Y9027886D01*
X2203194Y9062455D01*
X2203193Y9062457D01*
X2176164Y9085136D01*
X2171765Y9088827D01*
X2168588Y9091739D01*
X1591741Y9668586D01*
X1588822Y9671771D01*
X1562456Y9703194D01*
X1532155Y9720688D01*
X1526918Y9723712D01*
X1523288Y9726025D01*
X1489684Y9749554D01*
X1489679Y9749557D01*
X1488224Y9749946D01*
X1464348Y9759836D01*
X1463045Y9760589D01*
X1422652Y9767711D01*
X1418436Y9768646D01*
X1382662Y9778231D01*
X1378807Y9779264D01*
X1378806Y9779264D01*
X1374381Y9778877D01*
X1337926Y9775688D01*
X1333626Y9775500D01*
X943608Y9775500D01*
X885417Y9794407D01*
X861293Y9819498D01*
X844554Y9844549D01*
X844552Y9844552D01*
X844548Y9844555D01*
X778233Y9888866D01*
X778231Y9888867D01*
X778228Y9888868D01*
X778227Y9888868D01*
X719758Y9900499D01*
X719748Y9900500D01*
X180252Y9900500D01*
X180251Y9900500D01*
X180241Y9900499D01*
X121772Y9888868D01*
X121766Y9888866D01*
X55002Y9844254D01*
X-3886Y9827645D01*
X-55002Y9844254D01*
X-121767Y9888866D01*
X-121769Y9888867D01*
X-121772Y9888868D01*
X-121773Y9888868D01*
X-180242Y9900499D01*
X-180252Y9900500D01*
X-180253Y9900500D01*
X-500002Y9900500D01*
X-558193Y9919407D01*
X-594157Y9968907D01*
X-598155Y9986578D01*
X-599922Y9999996D01*
X8644341Y9999996D01*
X8664935Y9764600D01*
X8664936Y9764593D01*
X8664937Y9764592D01*
X8675270Y9726029D01*
X8726098Y9536333D01*
X8825959Y9322182D01*
X8825963Y9322174D01*
X8925899Y9179449D01*
X8961505Y9128599D01*
X9128599Y8961505D01*
X9128602Y8961503D01*
X9128603Y8961502D01*
X9152810Y8944552D01*
X9322171Y8825965D01*
X9322172Y8825965D01*
X9322173Y8825964D01*
X9322181Y8825960D01*
X9339526Y8817872D01*
X9529618Y8729230D01*
X9536333Y8726099D01*
X9536337Y8726097D01*
X9764592Y8664937D01*
X9764596Y8664937D01*
X9764599Y8664936D01*
X9941026Y8649500D01*
X9941034Y8649500D01*
X10058974Y8649500D01*
X10235400Y8664936D01*
X10235401Y8664937D01*
X10235408Y8664937D01*
X10463663Y8726097D01*
X10677829Y8825965D01*
X10871401Y8961505D01*
X11038495Y9128599D01*
X11174035Y9322170D01*
X11273903Y9536337D01*
X11335063Y9764592D01*
X11335662Y9771439D01*
X11355659Y9999996D01*
X11355659Y10000005D01*
X11335064Y10235401D01*
X11335063Y10235404D01*
X11335063Y10235408D01*
X11273903Y10463663D01*
X11250782Y10513246D01*
X11174040Y10677819D01*
X11174036Y10677827D01*
X11038498Y10871397D01*
X11038497Y10871398D01*
X11038495Y10871401D01*
X10871401Y11038495D01*
X10871397Y11038498D01*
X10871396Y11038499D01*
X10678167Y11173798D01*
X10677829Y11174035D01*
X10677828Y11174036D01*
X10677826Y11174037D01*
X10677818Y11174041D01*
X10463666Y11273902D01*
X10463667Y11273902D01*
X10387578Y11294290D01*
X10235408Y11335063D01*
X10235407Y11335064D01*
X10235400Y11335065D01*
X10058974Y11350500D01*
X10058966Y11350500D01*
X9941034Y11350500D01*
X9941026Y11350500D01*
X9764599Y11335065D01*
X9536332Y11273902D01*
X9322181Y11174041D01*
X9322173Y11174037D01*
X9128603Y11038499D01*
X8961501Y10871397D01*
X8825964Y10677829D01*
X8726097Y10463663D01*
X8664935Y10235401D01*
X8644341Y10000005D01*
X8644341Y9999996D01*
X-599922Y9999996D01*
X-611108Y10084962D01*
X-611108Y10084965D01*
X-671615Y10231042D01*
X-671615Y10231043D01*
X-767866Y10356480D01*
X-767867Y10356481D01*
X-767870Y10356485D01*
X-767875Y10356489D01*
X-767876Y10356490D01*
X-893314Y10452741D01*
X-1039386Y10513246D01*
X-1039394Y10513248D01*
X-1196151Y10533885D01*
X-1196153Y10533885D01*
X-1352911Y10513248D01*
X-1352919Y10513246D01*
X-1498991Y10452741D01*
X-1498992Y10452741D01*
X-1624429Y10356490D01*
X-1624439Y10356480D01*
X-1720690Y10231043D01*
X-1720690Y10231042D01*
X-1781195Y10084970D01*
X-1781197Y10084962D01*
X-1801834Y9928204D01*
X-1801834Y9928203D01*
X-1781731Y9775500D01*
X-1781196Y9771441D01*
X-1776389Y9759836D01*
X-1751445Y9699616D01*
X-1746943Y9642413D01*
X-1746727Y9642387D01*
X-1746855Y9641291D01*
X-1746644Y9638619D01*
X-1747380Y9635744D01*
X-1747586Y9634990D01*
X-1750500Y9609870D01*
X-1750500Y9085140D01*
X-1750499Y9085137D01*
X-1748745Y9070013D01*
X-1760823Y9010032D01*
X-1777077Y8988611D01*
X-1777639Y8988050D01*
X-1835164Y8875152D01*
X-1835165Y8875148D01*
X-1850000Y8781485D01*
X-1850000Y8682501D01*
X-1849999Y8682500D01*
X-1299000Y8682500D01*
X-1240809Y8663593D01*
X-1204845Y8614093D01*
X-1200000Y8583500D01*
X-1200000Y7917934D01*
X-1159206Y7924394D01*
X-1098774Y7914822D01*
X-1055511Y7871556D01*
X-1045940Y7811124D01*
X-1073717Y7756610D01*
X-1175829Y7654497D01*
X-1230346Y7626719D01*
X-1245833Y7625500D01*
X-1704166Y7625500D01*
X-1762357Y7644407D01*
X-1774170Y7654496D01*
X-2403188Y8283515D01*
X-1849999Y8283515D01*
X-1835167Y8189859D01*
X-1835164Y8189849D01*
X-1777642Y8076957D01*
X-1688045Y7987360D01*
X-1575146Y7929835D01*
X-1575143Y7929834D01*
X-1500001Y7917934D01*
X-1500000Y7917935D01*
X-1500000Y8382499D01*
X-1500001Y8382500D01*
X-1849998Y8382500D01*
X-1849999Y8382499D01*
X-1849999Y8283515D01*
X-2403188Y8283515D01*
X-2747199Y8627526D01*
X-2750118Y8630711D01*
X-2776484Y8662134D01*
X-2799122Y8675204D01*
X-2812022Y8682652D01*
X-2815652Y8684965D01*
X-2849256Y8708494D01*
X-2849261Y8708497D01*
X-2850716Y8708886D01*
X-2874592Y8718776D01*
X-2875895Y8719529D01*
X-2916288Y8726651D01*
X-2920504Y8727586D01*
X-2946787Y8734628D01*
X-2960133Y8738204D01*
X-2960134Y8738204D01*
X-2964559Y8737817D01*
X-3001014Y8734628D01*
X-3005314Y8734440D01*
X-3945867Y8734440D01*
X-4004058Y8753347D01*
X-4031603Y8783940D01*
X-4074074Y8857502D01*
X-4080018Y8867798D01*
X-4086464Y8875148D01*
X-4119335Y8912630D01*
X-4190873Y8947908D01*
X-4217405Y8949647D01*
X-4270464Y8953125D01*
X-4270468Y8953125D01*
X-4326925Y8933961D01*
X-4794149Y8664210D01*
X-4838979Y8624894D01*
X-4874494Y8552875D01*
X-4917189Y8509047D01*
X-4969760Y8497873D01*
X-5049885Y8503126D01*
X-5049890Y8503125D01*
X-5106347Y8483961D01*
X-5383265Y8324083D01*
X-5443114Y8311362D01*
X-5499009Y8336249D01*
X-5511307Y8349553D01*
X-5571714Y8428277D01*
X-5571715Y8428278D01*
X-5571718Y8428282D01*
X-5571723Y8428286D01*
X-5571724Y8428287D01*
X-5662457Y8497908D01*
X-5697159Y8524536D01*
X-5697160Y8524537D01*
X-5697162Y8524538D01*
X-5843234Y8585043D01*
X-5843242Y8585045D01*
X-5999999Y8605682D01*
X-6000001Y8605682D01*
X-6156759Y8585045D01*
X-6156767Y8585043D01*
X-6302839Y8524538D01*
X-6302840Y8524538D01*
X-6428277Y8428287D01*
X-6428287Y8428277D01*
X-6524538Y8302840D01*
X-6524538Y8302839D01*
X-6585043Y8156767D01*
X-6585045Y8156759D01*
X-6605682Y8000001D01*
X-6585045Y7843242D01*
X-6585043Y7843234D01*
X-6524538Y7697162D01*
X-6524538Y7697161D01*
X-6430505Y7574615D01*
X-6428282Y7571718D01*
X-6428278Y7571715D01*
X-6428277Y7571714D01*
X-6366604Y7524391D01*
X-6334104Y7477103D01*
X-6333903Y7477189D01*
X-6333463Y7476172D01*
X-6331948Y7473967D01*
X-6331149Y7471113D01*
X-6330951Y7470360D01*
X-6320912Y7447141D01*
X-6320902Y7447121D01*
X-6060322Y6995788D01*
X-6058544Y6992709D01*
X-6050803Y6982291D01*
X-6049462Y6980487D01*
X-6029933Y6922502D01*
X-6033297Y6895832D01*
X-6033503Y6895067D01*
X-6033504Y6895049D01*
X-6026874Y6768525D01*
X-6026873Y6768521D01*
X-5992887Y6679987D01*
X-5992882Y6679976D01*
X-5943398Y6594268D01*
X-5943397Y6594268D01*
X-5609907Y6786806D01*
X-5466218Y6869766D01*
X-5406369Y6882488D01*
X-5350474Y6857602D01*
X-5330981Y6833530D01*
X-4989495Y6242058D01*
X-4973369Y6233303D01*
X-4947027Y6178078D01*
X-4958177Y6117917D01*
X-4975176Y6095152D01*
X-5405830Y5664497D01*
X-5460347Y5636719D01*
X-5475834Y5635500D01*
X-5694166Y5635500D01*
X-5752357Y5654407D01*
X-5764169Y5664496D01*
X-6098254Y5998580D01*
X-6101173Y6001765D01*
X-6127544Y6033194D01*
X-6155718Y6049460D01*
X-6163082Y6053712D01*
X-6166717Y6056028D01*
X-6200316Y6079554D01*
X-6200321Y6079557D01*
X-6201776Y6079946D01*
X-6225652Y6089836D01*
X-6226955Y6090589D01*
X-6267348Y6097711D01*
X-6271564Y6098646D01*
X-6297847Y6105688D01*
X-6311193Y6109264D01*
X-6311194Y6109264D01*
X-6315619Y6108877D01*
X-6352074Y6105688D01*
X-6356374Y6105500D01*
X-7277277Y6105500D01*
X-7281578Y6105688D01*
X-7322458Y6109264D01*
X-7322464Y6109264D01*
X-7362087Y6098647D01*
X-7366302Y6097713D01*
X-7406691Y6090590D01*
X-7406703Y6090586D01*
X-7408011Y6089830D01*
X-7431865Y6079949D01*
X-7433327Y6079558D01*
X-7433335Y6079554D01*
X-7466935Y6056028D01*
X-7470571Y6053712D01*
X-7477934Y6049460D01*
X-7506106Y6033195D01*
X-7532470Y6001776D01*
X-7535388Y5998592D01*
X-7869231Y5664748D01*
X-7923748Y5636971D01*
X-7971056Y5641005D01*
X-7997172Y5649870D01*
X-8023763Y5658896D01*
X-8023765Y5658896D01*
X-8023766Y5658896D01*
X-8080548Y5655174D01*
X-8103356Y5653679D01*
X-8103357Y5653679D01*
X-8174894Y5618401D01*
X-8214210Y5573571D01*
X-8483961Y5106347D01*
X-8503125Y5049890D01*
X-8503126Y5049885D01*
X-8497873Y4969760D01*
X-8512934Y4910458D01*
X-8552875Y4874494D01*
X-8624894Y4838979D01*
X-8664213Y4794145D01*
X-8711289Y4712607D01*
X-8756758Y4671666D01*
X-8805654Y4663484D01*
X-8817871Y4664553D01*
X-8817872Y4664553D01*
X-8857502Y4653935D01*
X-8861718Y4653000D01*
X-8902110Y4645878D01*
X-8902118Y4645875D01*
X-8903426Y4645119D01*
X-8927280Y4635238D01*
X-8928742Y4634847D01*
X-8928750Y4634843D01*
X-8962350Y4611317D01*
X-8965986Y4609001D01*
X-8971568Y4605777D01*
X-9001521Y4588484D01*
X-9027885Y4557065D01*
X-9030803Y4553881D01*
X-9033186Y4551497D01*
X-9087703Y4523720D01*
X-9116112Y4523348D01*
X-9196151Y4533885D01*
X-9196153Y4533885D01*
X-9352911Y4513248D01*
X-9352919Y4513246D01*
X-9498991Y4452741D01*
X-9498992Y4452741D01*
X-9624429Y4356490D01*
X-9624439Y4356480D01*
X-9720690Y4231043D01*
X-9720690Y4231042D01*
X-9781195Y4084970D01*
X-9781197Y4084962D01*
X-9801834Y3928204D01*
X-9801834Y3928203D01*
X-9781197Y3771445D01*
X-9781195Y3771437D01*
X-9720690Y3625365D01*
X-9720690Y3625364D01*
X-9624439Y3499927D01*
X-9624434Y3499921D01*
X-9498993Y3403667D01*
X-9498992Y3403667D01*
X-9498991Y3403666D01*
X-9352919Y3343161D01*
X-9352914Y3343159D01*
X-9275836Y3333012D01*
X-9224047Y3308311D01*
X-9223917Y3308485D01*
X-9223032Y3307827D01*
X-9220610Y3306672D01*
X-9218483Y3304591D01*
X-9217940Y3304044D01*
X-9217939Y3304043D01*
X-9197637Y3288955D01*
X-8743208Y3026592D01*
X-8743201Y3026589D01*
X-8729234Y3020549D01*
X-8683328Y2980098D01*
X-8672904Y2955315D01*
X-8672698Y2954545D01*
X-8672694Y2954537D01*
X-8603689Y2848279D01*
X-8529986Y2788595D01*
X-8529978Y2788589D01*
X-8444267Y2739105D01*
X-8168767Y3216284D01*
X-8123297Y3257225D01*
X-8062447Y3263621D01*
X-8033530Y3252521D01*
X-7457133Y2919739D01*
X-7429866Y2990768D01*
X-7429864Y2990774D01*
X-7429822Y2991574D01*
X-7429535Y2992323D01*
X-7428244Y2998393D01*
X-7427284Y2998189D01*
X-7407897Y3048696D01*
X-7356583Y3082021D01*
X-7295482Y3078820D01*
X-7260954Y3056399D01*
X-7154496Y2949941D01*
X-7126719Y2895424D01*
X-7125500Y2879937D01*
X-7125500Y2645835D01*
X-7144407Y2587644D01*
X-7154496Y2575831D01*
X-7745830Y1984496D01*
X-7800347Y1956719D01*
X-7815834Y1955500D01*
X-8863626Y1955500D01*
X-8867927Y1955688D01*
X-8908807Y1959264D01*
X-8908813Y1959264D01*
X-8948436Y1948647D01*
X-8952651Y1947713D01*
X-8993040Y1940590D01*
X-8993052Y1940586D01*
X-8994360Y1939830D01*
X-9018214Y1929949D01*
X-9019676Y1929558D01*
X-9019684Y1929554D01*
X-9053284Y1906028D01*
X-9056920Y1903712D01*
X-9065125Y1898975D01*
X-9092455Y1883195D01*
X-9118819Y1851776D01*
X-9121737Y1848592D01*
X-9668587Y1301741D01*
X-9671771Y1298824D01*
X-9703193Y1272458D01*
X-9703194Y1272456D01*
X-9723708Y1236925D01*
X-9726028Y1233284D01*
X-9749554Y1199684D01*
X-9749558Y1199676D01*
X-9749949Y1198214D01*
X-9759830Y1174360D01*
X-9760586Y1173052D01*
X-9760590Y1173040D01*
X-9767713Y1132651D01*
X-9768647Y1128436D01*
X-9779264Y1088813D01*
X-9779264Y1088807D01*
X-9775688Y1047928D01*
X-9775500Y1043627D01*
X-9775500Y943608D01*
X-9794407Y885417D01*
X-9819498Y861293D01*
X-9844549Y844555D01*
X-9844555Y844549D01*
X-9888866Y778234D01*
X-9888868Y778228D01*
X-9900499Y719759D01*
X-9900500Y719747D01*
X-9900500Y180254D01*
X-9900499Y180242D01*
X-9890885Y131913D01*
X-9888867Y121769D01*
X-9844552Y55448D01*
X-9844550Y55447D01*
X-9844254Y55004D01*
X-9827645Y-3884D01*
X-9844254Y-55001D01*
X-9888866Y-121766D01*
X-9888868Y-121772D01*
X-9900499Y-180241D01*
X-9900500Y-180253D01*
X-9900500Y-500002D01*
X-9919407Y-558193D01*
X-9968907Y-594157D01*
X-9986578Y-598155D01*
X-10084962Y-611107D01*
X-10084970Y-611109D01*
X-10231042Y-671614D01*
X-10231043Y-671614D01*
X-10356480Y-767865D01*
X-10356490Y-767875D01*
X-10452741Y-893312D01*
X-10452741Y-893313D01*
X-10513246Y-1039385D01*
X-10513248Y-1039393D01*
X-10533885Y-1196151D01*
X-10533885Y-1196152D01*
X-11999500Y-1196152D01*
X-11999500Y2589104D01*
X-8184458Y2589104D01*
X-8098742Y2539616D01*
X-8010204Y2505628D01*
X-8010197Y2505626D01*
X-7883675Y2498997D01*
X-7883669Y2498997D01*
X-7761278Y2531791D01*
X-7761275Y2531793D01*
X-7655015Y2600799D01*
X-7607133Y2659929D01*
X-8009459Y2892212D01*
X-8009460Y2892212D01*
X-8184458Y2589107D01*
X-8184458Y2589104D01*
X-11999500Y2589104D01*
X-11999500Y6334459D01*
X-5793397Y6334459D01*
X-5743907Y6248740D01*
X-5684224Y6175037D01*
X-5577964Y6106031D01*
X-5577961Y6106029D01*
X-5455570Y6073235D01*
X-5455564Y6073235D01*
X-5329042Y6079864D01*
X-5329036Y6079866D01*
X-5258007Y6107133D01*
X-5490290Y6509458D01*
X-5793397Y6334459D01*
X-11999500Y6334459D01*
X-11999500Y9999996D01*
X-11355659Y9999996D01*
X-11335065Y9764600D01*
X-11335064Y9764593D01*
X-11335063Y9764592D01*
X-11324730Y9726029D01*
X-11273902Y9536333D01*
X-11174041Y9322182D01*
X-11174037Y9322174D01*
X-11074101Y9179449D01*
X-11038495Y9128599D01*
X-10871401Y8961505D01*
X-10871398Y8961503D01*
X-10871397Y8961502D01*
X-10847190Y8944552D01*
X-10677829Y8825965D01*
X-10677828Y8825965D01*
X-10677827Y8825964D01*
X-10677819Y8825960D01*
X-10660474Y8817872D01*
X-10470382Y8729230D01*
X-10463667Y8726099D01*
X-10463663Y8726097D01*
X-10235408Y8664937D01*
X-10235404Y8664937D01*
X-10235401Y8664936D01*
X-10058974Y8649500D01*
X-10058966Y8649500D01*
X-9941026Y8649500D01*
X-9764600Y8664936D01*
X-9764599Y8664937D01*
X-9764592Y8664937D01*
X-9536337Y8726097D01*
X-9322171Y8825965D01*
X-9128599Y8961505D01*
X-8961505Y9128599D01*
X-8825965Y9322170D01*
X-8726097Y9536337D01*
X-8664937Y9764592D01*
X-8664338Y9771439D01*
X-8644341Y9999996D01*
X-8644341Y10000005D01*
X-8664936Y10235401D01*
X-8664937Y10235404D01*
X-8664937Y10235408D01*
X-8726097Y10463663D01*
X-8749218Y10513246D01*
X-8825960Y10677819D01*
X-8825964Y10677827D01*
X-8961502Y10871397D01*
X-8961503Y10871398D01*
X-8961505Y10871401D01*
X-9128599Y11038495D01*
X-9128603Y11038498D01*
X-9128604Y11038499D01*
X-9321833Y11173798D01*
X-9322171Y11174035D01*
X-9322172Y11174036D01*
X-9322174Y11174037D01*
X-9322182Y11174041D01*
X-9536334Y11273902D01*
X-9536333Y11273902D01*
X-9612422Y11294290D01*
X-9764592Y11335063D01*
X-9764593Y11335064D01*
X-9764600Y11335065D01*
X-9941026Y11350500D01*
X-9941034Y11350500D01*
X-10058966Y11350500D01*
X-10058974Y11350500D01*
X-10235401Y11335065D01*
X-10463668Y11273902D01*
X-10677819Y11174041D01*
X-10677827Y11174037D01*
X-10871397Y11038499D01*
X-11038499Y10871397D01*
X-11174036Y10677829D01*
X-11273903Y10463663D01*
X-11335065Y10235401D01*
X-11355659Y10000005D01*
X-11355659Y9999996D01*
X-11999500Y9999996D01*
X-11999500Y10997842D01*
X-11999313Y11002140D01*
X-11995517Y11045535D01*
X-11982880Y11173821D01*
X-11979993Y11189693D01*
X-11961782Y11257658D01*
X-11961397Y11259005D01*
X-11932801Y11353275D01*
X-11927793Y11366361D01*
X-11900708Y11424445D01*
X-11895449Y11435724D01*
X-11894282Y11438057D01*
X-11848877Y11523006D01*
X-11845788Y11528035D01*
X-11798729Y11595241D01*
X-11796472Y11598216D01*
X-11736492Y11671302D01*
X-11733259Y11674869D01*
X-11674869Y11733259D01*
X-11671302Y11736492D01*
X-11598216Y11796472D01*
X-11595241Y11798729D01*
X-11528035Y11845788D01*
X-11523006Y11848877D01*
X-11438057Y11894282D01*
X-11435724Y11895449D01*
X-11366359Y11927795D01*
X-11353275Y11932801D01*
X-11259005Y11961397D01*
X-11257658Y11961782D01*
X-11189693Y11979993D01*
X-11173821Y11982880D01*
X-11045516Y11995518D01*
X-11002141Y11999313D01*
X-10997841Y11999500D01*
X10997840Y11999500D01*
X11002140Y11999313D01*
G37*
G04 #@! TD.AperFunction*
M02*
