G04 #@! TF.GenerationSoftware,KiCad,Pcbnew,7.0.2.1-36-g582732918d-dirty-deb11*
G04 #@! TF.CreationDate,2023-05-22T19:38:29+00:00*
G04 #@! TF.ProjectId,pedalboard-led-ring,70656461-6c62-46f6-9172-642d6c65642d,rev?*
G04 #@! TF.SameCoordinates,Original*
G04 #@! TF.FileFunction,Legend,Bot*
G04 #@! TF.FilePolarity,Positive*
%FSLAX46Y46*%
G04 Gerber Fmt 4.6, Leading zero omitted, Abs format (unit mm)*
G04 Created by KiCad (PCBNEW 7.0.2.1-36-g582732918d-dirty-deb11) date 2023-05-22 19:38:29*
%MOMM*%
%LPD*%
G01*
G04 APERTURE LIST*
%ADD10C,0.100000*%
%ADD11C,0.150000*%
%ADD12C,0.120000*%
G04 APERTURE END LIST*
D10*
X7050000Y0D02*
G75*
G03*
X7050000Y0I-7050000J0D01*
G01*
D11*
X12861904Y11237381D02*
X12861904Y10427858D01*
X12861904Y10427858D02*
X12814285Y10332620D01*
X12814285Y10332620D02*
X12766666Y10285000D01*
X12766666Y10285000D02*
X12671428Y10237381D01*
X12671428Y10237381D02*
X12480952Y10237381D01*
X12480952Y10237381D02*
X12385714Y10285000D01*
X12385714Y10285000D02*
X12338095Y10332620D01*
X12338095Y10332620D02*
X12290476Y10427858D01*
X12290476Y10427858D02*
X12290476Y11237381D01*
X11290476Y10237381D02*
X11861904Y10237381D01*
X11576190Y10237381D02*
X11576190Y11237381D01*
X11576190Y11237381D02*
X11671428Y11094524D01*
X11671428Y11094524D02*
X11766666Y10999286D01*
X11766666Y10999286D02*
X11861904Y10951667D01*
X10192619Y-7666666D02*
X10906904Y-7666666D01*
X10906904Y-7666666D02*
X11049761Y-7619047D01*
X11049761Y-7619047D02*
X11145000Y-7523809D01*
X11145000Y-7523809D02*
X11192619Y-7380952D01*
X11192619Y-7380952D02*
X11192619Y-7285714D01*
X11192619Y-8666666D02*
X11192619Y-8095238D01*
X11192619Y-8380952D02*
X10192619Y-8380952D01*
X10192619Y-8380952D02*
X10335476Y-8285714D01*
X10335476Y-8285714D02*
X10430714Y-8190476D01*
X10430714Y-8190476D02*
X10478333Y-8095238D01*
X17666666Y-1617380D02*
X17714285Y-1665000D01*
X17714285Y-1665000D02*
X17857142Y-1712619D01*
X17857142Y-1712619D02*
X17952380Y-1712619D01*
X17952380Y-1712619D02*
X18095237Y-1665000D01*
X18095237Y-1665000D02*
X18190475Y-1569761D01*
X18190475Y-1569761D02*
X18238094Y-1474523D01*
X18238094Y-1474523D02*
X18285713Y-1284047D01*
X18285713Y-1284047D02*
X18285713Y-1141190D01*
X18285713Y-1141190D02*
X18238094Y-950714D01*
X18238094Y-950714D02*
X18190475Y-855476D01*
X18190475Y-855476D02*
X18095237Y-760238D01*
X18095237Y-760238D02*
X17952380Y-712619D01*
X17952380Y-712619D02*
X17857142Y-712619D01*
X17857142Y-712619D02*
X17714285Y-760238D01*
X17714285Y-760238D02*
X17666666Y-807857D01*
X16714285Y-1712619D02*
X17285713Y-1712619D01*
X16999999Y-1712619D02*
X16999999Y-712619D01*
X16999999Y-712619D02*
X17095237Y-855476D01*
X17095237Y-855476D02*
X17190475Y-950714D01*
X17190475Y-950714D02*
X17285713Y-998333D01*
X21200702Y7008334D02*
X20891178Y7225001D01*
X21200702Y7379763D02*
X20550702Y7379763D01*
X20550702Y7379763D02*
X20550702Y7132144D01*
X20550702Y7132144D02*
X20581654Y7070239D01*
X20581654Y7070239D02*
X20612607Y7039286D01*
X20612607Y7039286D02*
X20674511Y7008334D01*
X20674511Y7008334D02*
X20767369Y7008334D01*
X20767369Y7008334D02*
X20829273Y7039286D01*
X20829273Y7039286D02*
X20860226Y7070239D01*
X20860226Y7070239D02*
X20891178Y7132144D01*
X20891178Y7132144D02*
X20891178Y7379763D01*
X21200702Y6389286D02*
X21200702Y6760715D01*
X21200702Y6575001D02*
X20550702Y6575001D01*
X20550702Y6575001D02*
X20643559Y6636905D01*
X20643559Y6636905D02*
X20705464Y6698810D01*
X20705464Y6698810D02*
X20736416Y6760715D01*
X21038797Y4858334D02*
X21069750Y4889286D01*
X21069750Y4889286D02*
X21100702Y4982144D01*
X21100702Y4982144D02*
X21100702Y5044048D01*
X21100702Y5044048D02*
X21069750Y5136905D01*
X21069750Y5136905D02*
X21007845Y5198810D01*
X21007845Y5198810D02*
X20945940Y5229763D01*
X20945940Y5229763D02*
X20822130Y5260715D01*
X20822130Y5260715D02*
X20729273Y5260715D01*
X20729273Y5260715D02*
X20605464Y5229763D01*
X20605464Y5229763D02*
X20543559Y5198810D01*
X20543559Y5198810D02*
X20481654Y5136905D01*
X20481654Y5136905D02*
X20450702Y5044048D01*
X20450702Y5044048D02*
X20450702Y4982144D01*
X20450702Y4982144D02*
X20481654Y4889286D01*
X20481654Y4889286D02*
X20512607Y4858334D01*
X20512607Y4610715D02*
X20481654Y4579763D01*
X20481654Y4579763D02*
X20450702Y4517858D01*
X20450702Y4517858D02*
X20450702Y4363096D01*
X20450702Y4363096D02*
X20481654Y4301191D01*
X20481654Y4301191D02*
X20512607Y4270239D01*
X20512607Y4270239D02*
X20574511Y4239286D01*
X20574511Y4239286D02*
X20636416Y4239286D01*
X20636416Y4239286D02*
X20729273Y4270239D01*
X20729273Y4270239D02*
X21100702Y4641667D01*
X21100702Y4641667D02*
X21100702Y4239286D01*
D12*
X14900000Y9760000D02*
X12950000Y9760000D01*
X14900000Y9760000D02*
X16850000Y9760000D01*
X14900000Y4640000D02*
X11450000Y4640000D01*
X14900000Y4640000D02*
X16850000Y4640000D01*
X12300000Y-3960000D02*
X12300000Y-5400000D01*
X19470000Y-5400000D02*
X19470000Y-10600000D01*
X18900000Y-5400000D02*
X19470000Y-5400000D01*
X16360000Y-5400000D02*
X17380000Y-5400000D01*
X13820000Y-5400000D02*
X14840000Y-5400000D01*
X11730000Y-5400000D02*
X12300000Y-5400000D01*
X11730000Y-5400000D02*
X11730000Y-10600000D01*
X18900000Y-10600000D02*
X19470000Y-10600000D01*
X16360000Y-10600000D02*
X17380000Y-10600000D01*
X13820000Y-10600000D02*
X14840000Y-10600000D01*
X11730000Y-10600000D02*
X12300000Y-10600000D01*
X9600000Y2100000D02*
X9600000Y-100000D01*
X9600000Y-100000D02*
X10400000Y-100000D01*
X10400000Y2800000D02*
X10400000Y2100000D01*
X10400000Y2100000D02*
X9600000Y2100000D01*
X10400000Y-100000D02*
X10400000Y-700000D01*
X10400000Y-700000D02*
X10400000Y-800000D01*
X10400000Y-800000D02*
X11600000Y-2000000D01*
X11600000Y4000000D02*
X10400000Y2800000D01*
X11600000Y-2000000D02*
X16400000Y-2000000D01*
X16400000Y4000000D02*
X11600000Y4000000D01*
X16400000Y2100000D02*
X16400000Y4000000D01*
X16400000Y-100000D02*
X17200000Y-100000D01*
X16400000Y-2000000D02*
X16400000Y-100000D01*
X17200000Y2100000D02*
X16400000Y2100000D01*
X17200000Y-100000D02*
X17200000Y2100000D01*
D11*
X20100000Y6550000D02*
X20100000Y8250000D01*
X18700000Y8250000D02*
X18700000Y6550000D01*
D12*
X20020000Y4701969D02*
X20020000Y4498031D01*
X18780000Y4701969D02*
X18780000Y4498031D01*
M02*
