G04 #@! TF.GenerationSoftware,KiCad,Pcbnew,7.0.5.1-1-g8f565ef7f0-dirty-deb11*
G04 #@! TF.CreationDate,2023-06-03T19:59:23+00:00*
G04 #@! TF.ProjectId,pedalboard-led-ring,70656461-6c62-46f6-9172-642d6c65642d,1.0.0*
G04 #@! TF.SameCoordinates,Original*
G04 #@! TF.FileFunction,Legend,Bot*
G04 #@! TF.FilePolarity,Positive*
%FSLAX46Y46*%
G04 Gerber Fmt 4.6, Leading zero omitted, Abs format (unit mm)*
G04 Created by KiCad (PCBNEW 7.0.5.1-1-g8f565ef7f0-dirty-deb11) date 2023-06-03 19:59:23*
%MOMM*%
%LPD*%
G01*
G04 APERTURE LIST*
%ADD10C,0.100000*%
%ADD11C,0.120000*%
G04 APERTURE END LIST*
D10*
X7050000Y0D02*
G75*
G03*
X7050000Y0I-7050000J0D01*
G01*
X7809133Y3737545D02*
X7109133Y3737545D01*
X7109133Y3737545D02*
X7109133Y3570878D01*
X7109133Y3570878D02*
X7142466Y3470878D01*
X7142466Y3470878D02*
X7209133Y3404211D01*
X7209133Y3404211D02*
X7275800Y3370878D01*
X7275800Y3370878D02*
X7409133Y3337545D01*
X7409133Y3337545D02*
X7509133Y3337545D01*
X7509133Y3337545D02*
X7642466Y3370878D01*
X7642466Y3370878D02*
X7709133Y3404211D01*
X7709133Y3404211D02*
X7775800Y3470878D01*
X7775800Y3470878D02*
X7809133Y3570878D01*
X7809133Y3570878D02*
X7809133Y3737545D01*
X7809133Y3037545D02*
X7109133Y3037545D01*
X7871371Y-2708646D02*
X7271371Y-2708646D01*
X7271371Y-2708646D02*
X7271371Y-2851503D01*
X7271371Y-2851503D02*
X7299942Y-2937217D01*
X7299942Y-2937217D02*
X7357085Y-2994360D01*
X7357085Y-2994360D02*
X7414228Y-3022931D01*
X7414228Y-3022931D02*
X7528514Y-3051503D01*
X7528514Y-3051503D02*
X7614228Y-3051503D01*
X7614228Y-3051503D02*
X7728514Y-3022931D01*
X7728514Y-3022931D02*
X7785657Y-2994360D01*
X7785657Y-2994360D02*
X7842800Y-2937217D01*
X7842800Y-2937217D02*
X7871371Y-2851503D01*
X7871371Y-2851503D02*
X7871371Y-2708646D01*
X7271371Y-3422931D02*
X7271371Y-3480074D01*
X7271371Y-3480074D02*
X7299942Y-3537217D01*
X7299942Y-3537217D02*
X7328514Y-3565789D01*
X7328514Y-3565789D02*
X7385657Y-3594360D01*
X7385657Y-3594360D02*
X7499942Y-3622931D01*
X7499942Y-3622931D02*
X7642800Y-3622931D01*
X7642800Y-3622931D02*
X7757085Y-3594360D01*
X7757085Y-3594360D02*
X7814228Y-3565789D01*
X7814228Y-3565789D02*
X7842800Y-3537217D01*
X7842800Y-3537217D02*
X7871371Y-3480074D01*
X7871371Y-3480074D02*
X7871371Y-3422931D01*
X7871371Y-3422931D02*
X7842800Y-3365789D01*
X7842800Y-3365789D02*
X7814228Y-3337217D01*
X7814228Y-3337217D02*
X7757085Y-3308646D01*
X7757085Y-3308646D02*
X7642800Y-3280074D01*
X7642800Y-3280074D02*
X7499942Y-3280074D01*
X7499942Y-3280074D02*
X7385657Y-3308646D01*
X7385657Y-3308646D02*
X7328514Y-3337217D01*
X7328514Y-3337217D02*
X7299942Y-3365789D01*
X7299942Y-3365789D02*
X7271371Y-3422931D01*
X11017068Y-9221371D02*
X10817068Y-9821371D01*
X10817068Y-9821371D02*
X10617068Y-9221371D01*
X10074210Y-9764228D02*
X10102782Y-9792800D01*
X10102782Y-9792800D02*
X10188496Y-9821371D01*
X10188496Y-9821371D02*
X10245639Y-9821371D01*
X10245639Y-9821371D02*
X10331353Y-9792800D01*
X10331353Y-9792800D02*
X10388496Y-9735657D01*
X10388496Y-9735657D02*
X10417067Y-9678514D01*
X10417067Y-9678514D02*
X10445639Y-9564228D01*
X10445639Y-9564228D02*
X10445639Y-9478514D01*
X10445639Y-9478514D02*
X10417067Y-9364228D01*
X10417067Y-9364228D02*
X10388496Y-9307085D01*
X10388496Y-9307085D02*
X10331353Y-9249942D01*
X10331353Y-9249942D02*
X10245639Y-9221371D01*
X10245639Y-9221371D02*
X10188496Y-9221371D01*
X10188496Y-9221371D02*
X10102782Y-9249942D01*
X10102782Y-9249942D02*
X10074210Y-9278514D01*
X9474210Y-9764228D02*
X9502782Y-9792800D01*
X9502782Y-9792800D02*
X9588496Y-9821371D01*
X9588496Y-9821371D02*
X9645639Y-9821371D01*
X9645639Y-9821371D02*
X9731353Y-9792800D01*
X9731353Y-9792800D02*
X9788496Y-9735657D01*
X9788496Y-9735657D02*
X9817067Y-9678514D01*
X9817067Y-9678514D02*
X9845639Y-9564228D01*
X9845639Y-9564228D02*
X9845639Y-9478514D01*
X9845639Y-9478514D02*
X9817067Y-9364228D01*
X9817067Y-9364228D02*
X9788496Y-9307085D01*
X9788496Y-9307085D02*
X9731353Y-9249942D01*
X9731353Y-9249942D02*
X9645639Y-9221371D01*
X9645639Y-9221371D02*
X9588496Y-9221371D01*
X9588496Y-9221371D02*
X9502782Y-9249942D01*
X9502782Y-9249942D02*
X9474210Y-9278514D01*
X9249942Y-2872931D02*
X9221371Y-2815789D01*
X9221371Y-2815789D02*
X9221371Y-2730074D01*
X9221371Y-2730074D02*
X9249942Y-2644360D01*
X9249942Y-2644360D02*
X9307085Y-2587217D01*
X9307085Y-2587217D02*
X9364228Y-2558646D01*
X9364228Y-2558646D02*
X9478514Y-2530074D01*
X9478514Y-2530074D02*
X9564228Y-2530074D01*
X9564228Y-2530074D02*
X9678514Y-2558646D01*
X9678514Y-2558646D02*
X9735657Y-2587217D01*
X9735657Y-2587217D02*
X9792800Y-2644360D01*
X9792800Y-2644360D02*
X9821371Y-2730074D01*
X9821371Y-2730074D02*
X9821371Y-2787217D01*
X9821371Y-2787217D02*
X9792800Y-2872931D01*
X9792800Y-2872931D02*
X9764228Y-2901503D01*
X9764228Y-2901503D02*
X9564228Y-2901503D01*
X9564228Y-2901503D02*
X9564228Y-2787217D01*
X9821371Y-3158646D02*
X9221371Y-3158646D01*
X9221371Y-3158646D02*
X9821371Y-3501503D01*
X9821371Y-3501503D02*
X9221371Y-3501503D01*
X9821371Y-3787217D02*
X9221371Y-3787217D01*
X9221371Y-3787217D02*
X9221371Y-3930074D01*
X9221371Y-3930074D02*
X9249942Y-4015788D01*
X9249942Y-4015788D02*
X9307085Y-4072931D01*
X9307085Y-4072931D02*
X9364228Y-4101502D01*
X9364228Y-4101502D02*
X9478514Y-4130074D01*
X9478514Y-4130074D02*
X9564228Y-4130074D01*
X9564228Y-4130074D02*
X9678514Y-4101502D01*
X9678514Y-4101502D02*
X9735657Y-4072931D01*
X9735657Y-4072931D02*
X9792800Y-4015788D01*
X9792800Y-4015788D02*
X9821371Y-3930074D01*
X9821371Y-3930074D02*
X9821371Y-3787217D01*
X4002068Y-9224942D02*
X4059211Y-9196371D01*
X4059211Y-9196371D02*
X4144925Y-9196371D01*
X4144925Y-9196371D02*
X4230639Y-9224942D01*
X4230639Y-9224942D02*
X4287782Y-9282085D01*
X4287782Y-9282085D02*
X4316353Y-9339228D01*
X4316353Y-9339228D02*
X4344925Y-9453514D01*
X4344925Y-9453514D02*
X4344925Y-9539228D01*
X4344925Y-9539228D02*
X4316353Y-9653514D01*
X4316353Y-9653514D02*
X4287782Y-9710657D01*
X4287782Y-9710657D02*
X4230639Y-9767800D01*
X4230639Y-9767800D02*
X4144925Y-9796371D01*
X4144925Y-9796371D02*
X4087782Y-9796371D01*
X4087782Y-9796371D02*
X4002068Y-9767800D01*
X4002068Y-9767800D02*
X3973496Y-9739228D01*
X3973496Y-9739228D02*
X3973496Y-9539228D01*
X3973496Y-9539228D02*
X4087782Y-9539228D01*
X3716353Y-9796371D02*
X3716353Y-9196371D01*
X3716353Y-9196371D02*
X3373496Y-9796371D01*
X3373496Y-9796371D02*
X3373496Y-9196371D01*
X3087782Y-9796371D02*
X3087782Y-9196371D01*
X3087782Y-9196371D02*
X2944925Y-9196371D01*
X2944925Y-9196371D02*
X2859211Y-9224942D01*
X2859211Y-9224942D02*
X2802068Y-9282085D01*
X2802068Y-9282085D02*
X2773497Y-9339228D01*
X2773497Y-9339228D02*
X2744925Y-9453514D01*
X2744925Y-9453514D02*
X2744925Y-9539228D01*
X2744925Y-9539228D02*
X2773497Y-9653514D01*
X2773497Y-9653514D02*
X2802068Y-9710657D01*
X2802068Y-9710657D02*
X2859211Y-9767800D01*
X2859211Y-9767800D02*
X2944925Y-9796371D01*
X2944925Y-9796371D02*
X3087782Y-9796371D01*
X10481353Y-7721371D02*
X10481353Y-7121371D01*
X10481353Y-7121371D02*
X10338496Y-7121371D01*
X10338496Y-7121371D02*
X10252782Y-7149942D01*
X10252782Y-7149942D02*
X10195639Y-7207085D01*
X10195639Y-7207085D02*
X10167068Y-7264228D01*
X10167068Y-7264228D02*
X10138496Y-7378514D01*
X10138496Y-7378514D02*
X10138496Y-7464228D01*
X10138496Y-7464228D02*
X10167068Y-7578514D01*
X10167068Y-7578514D02*
X10195639Y-7635657D01*
X10195639Y-7635657D02*
X10252782Y-7692800D01*
X10252782Y-7692800D02*
X10338496Y-7721371D01*
X10338496Y-7721371D02*
X10481353Y-7721371D01*
X9881353Y-7721371D02*
X9881353Y-7121371D01*
X9221371Y4157069D02*
X9821371Y3957069D01*
X9821371Y3957069D02*
X9221371Y3757069D01*
X9764228Y3214211D02*
X9792800Y3242783D01*
X9792800Y3242783D02*
X9821371Y3328497D01*
X9821371Y3328497D02*
X9821371Y3385640D01*
X9821371Y3385640D02*
X9792800Y3471354D01*
X9792800Y3471354D02*
X9735657Y3528497D01*
X9735657Y3528497D02*
X9678514Y3557068D01*
X9678514Y3557068D02*
X9564228Y3585640D01*
X9564228Y3585640D02*
X9478514Y3585640D01*
X9478514Y3585640D02*
X9364228Y3557068D01*
X9364228Y3557068D02*
X9307085Y3528497D01*
X9307085Y3528497D02*
X9249942Y3471354D01*
X9249942Y3471354D02*
X9221371Y3385640D01*
X9221371Y3385640D02*
X9221371Y3328497D01*
X9221371Y3328497D02*
X9249942Y3242783D01*
X9249942Y3242783D02*
X9278514Y3214211D01*
X9764228Y2614211D02*
X9792800Y2642783D01*
X9792800Y2642783D02*
X9821371Y2728497D01*
X9821371Y2728497D02*
X9821371Y2785640D01*
X9821371Y2785640D02*
X9792800Y2871354D01*
X9792800Y2871354D02*
X9735657Y2928497D01*
X9735657Y2928497D02*
X9678514Y2957068D01*
X9678514Y2957068D02*
X9564228Y2985640D01*
X9564228Y2985640D02*
X9478514Y2985640D01*
X9478514Y2985640D02*
X9364228Y2957068D01*
X9364228Y2957068D02*
X9307085Y2928497D01*
X9307085Y2928497D02*
X9249942Y2871354D01*
X9249942Y2871354D02*
X9221371Y2785640D01*
X9221371Y2785640D02*
X9221371Y2728497D01*
X9221371Y2728497D02*
X9249942Y2642783D01*
X9249942Y2642783D02*
X9278514Y2614211D01*
X-4056669Y-11413609D02*
X-4056669Y-10913609D01*
X-4056669Y-10913609D02*
X-4247145Y-10913609D01*
X-4247145Y-10913609D02*
X-4294764Y-10937419D01*
X-4294764Y-10937419D02*
X-4318574Y-10961228D01*
X-4318574Y-10961228D02*
X-4342383Y-11008847D01*
X-4342383Y-11008847D02*
X-4342383Y-11080276D01*
X-4342383Y-11080276D02*
X-4318574Y-11127895D01*
X-4318574Y-11127895D02*
X-4294764Y-11151704D01*
X-4294764Y-11151704D02*
X-4247145Y-11175514D01*
X-4247145Y-11175514D02*
X-4056669Y-11175514D01*
X-4842383Y-11365990D02*
X-4818574Y-11389800D01*
X-4818574Y-11389800D02*
X-4747145Y-11413609D01*
X-4747145Y-11413609D02*
X-4699526Y-11413609D01*
X-4699526Y-11413609D02*
X-4628098Y-11389800D01*
X-4628098Y-11389800D02*
X-4580479Y-11342180D01*
X-4580479Y-11342180D02*
X-4556669Y-11294561D01*
X-4556669Y-11294561D02*
X-4532860Y-11199323D01*
X-4532860Y-11199323D02*
X-4532860Y-11127895D01*
X-4532860Y-11127895D02*
X-4556669Y-11032657D01*
X-4556669Y-11032657D02*
X-4580479Y-10985038D01*
X-4580479Y-10985038D02*
X-4628098Y-10937419D01*
X-4628098Y-10937419D02*
X-4699526Y-10913609D01*
X-4699526Y-10913609D02*
X-4747145Y-10913609D01*
X-4747145Y-10913609D02*
X-4818574Y-10937419D01*
X-4818574Y-10937419D02*
X-4842383Y-10961228D01*
X-5223336Y-11151704D02*
X-5294764Y-11175514D01*
X-5294764Y-11175514D02*
X-5318574Y-11199323D01*
X-5318574Y-11199323D02*
X-5342383Y-11246942D01*
X-5342383Y-11246942D02*
X-5342383Y-11318371D01*
X-5342383Y-11318371D02*
X-5318574Y-11365990D01*
X-5318574Y-11365990D02*
X-5294764Y-11389800D01*
X-5294764Y-11389800D02*
X-5247145Y-11413609D01*
X-5247145Y-11413609D02*
X-5056669Y-11413609D01*
X-5056669Y-11413609D02*
X-5056669Y-10913609D01*
X-5056669Y-10913609D02*
X-5223336Y-10913609D01*
X-5223336Y-10913609D02*
X-5270955Y-10937419D01*
X-5270955Y-10937419D02*
X-5294764Y-10961228D01*
X-5294764Y-10961228D02*
X-5318574Y-11008847D01*
X-5318574Y-11008847D02*
X-5318574Y-11056466D01*
X-5318574Y-11056466D02*
X-5294764Y-11104085D01*
X-5294764Y-11104085D02*
X-5270955Y-11127895D01*
X-5270955Y-11127895D02*
X-5223336Y-11151704D01*
X-5223336Y-11151704D02*
X-5056669Y-11151704D01*
X-5556669Y-11365990D02*
X-5580479Y-11389800D01*
X-5580479Y-11389800D02*
X-5556669Y-11413609D01*
X-5556669Y-11413609D02*
X-5532860Y-11389800D01*
X-5532860Y-11389800D02*
X-5556669Y-11365990D01*
X-5556669Y-11365990D02*
X-5556669Y-11413609D01*
X-5556669Y-11104085D02*
X-5580479Y-11127895D01*
X-5580479Y-11127895D02*
X-5556669Y-11151704D01*
X-5556669Y-11151704D02*
X-5532860Y-11127895D01*
X-5532860Y-11127895D02*
X-5556669Y-11104085D01*
X-5556669Y-11104085D02*
X-5556669Y-11151704D01*
X-6128097Y-11080276D02*
X-6247145Y-11413609D01*
X-6247145Y-11413609D02*
X-6366192Y-11080276D01*
X-6818573Y-11413609D02*
X-6532859Y-11413609D01*
X-6675716Y-11413609D02*
X-6675716Y-10913609D01*
X-6675716Y-10913609D02*
X-6628097Y-10985038D01*
X-6628097Y-10985038D02*
X-6580478Y-11032657D01*
X-6580478Y-11032657D02*
X-6532859Y-11056466D01*
X-7032858Y-11365990D02*
X-7056668Y-11389800D01*
X-7056668Y-11389800D02*
X-7032858Y-11413609D01*
X-7032858Y-11413609D02*
X-7009049Y-11389800D01*
X-7009049Y-11389800D02*
X-7032858Y-11365990D01*
X-7032858Y-11365990D02*
X-7032858Y-11413609D01*
X-7366191Y-10913609D02*
X-7413810Y-10913609D01*
X-7413810Y-10913609D02*
X-7461429Y-10937419D01*
X-7461429Y-10937419D02*
X-7485239Y-10961228D01*
X-7485239Y-10961228D02*
X-7509048Y-11008847D01*
X-7509048Y-11008847D02*
X-7532858Y-11104085D01*
X-7532858Y-11104085D02*
X-7532858Y-11223133D01*
X-7532858Y-11223133D02*
X-7509048Y-11318371D01*
X-7509048Y-11318371D02*
X-7485239Y-11365990D01*
X-7485239Y-11365990D02*
X-7461429Y-11389800D01*
X-7461429Y-11389800D02*
X-7413810Y-11413609D01*
X-7413810Y-11413609D02*
X-7366191Y-11413609D01*
X-7366191Y-11413609D02*
X-7318572Y-11389800D01*
X-7318572Y-11389800D02*
X-7294763Y-11365990D01*
X-7294763Y-11365990D02*
X-7270953Y-11318371D01*
X-7270953Y-11318371D02*
X-7247144Y-11223133D01*
X-7247144Y-11223133D02*
X-7247144Y-11104085D01*
X-7247144Y-11104085D02*
X-7270953Y-11008847D01*
X-7270953Y-11008847D02*
X-7294763Y-10961228D01*
X-7294763Y-10961228D02*
X-7318572Y-10937419D01*
X-7318572Y-10937419D02*
X-7366191Y-10913609D01*
X-7747143Y-11365990D02*
X-7770953Y-11389800D01*
X-7770953Y-11389800D02*
X-7747143Y-11413609D01*
X-7747143Y-11413609D02*
X-7723334Y-11389800D01*
X-7723334Y-11389800D02*
X-7747143Y-11365990D01*
X-7747143Y-11365990D02*
X-7747143Y-11413609D01*
X-8080476Y-10913609D02*
X-8128095Y-10913609D01*
X-8128095Y-10913609D02*
X-8175714Y-10937419D01*
X-8175714Y-10937419D02*
X-8199524Y-10961228D01*
X-8199524Y-10961228D02*
X-8223333Y-11008847D01*
X-8223333Y-11008847D02*
X-8247143Y-11104085D01*
X-8247143Y-11104085D02*
X-8247143Y-11223133D01*
X-8247143Y-11223133D02*
X-8223333Y-11318371D01*
X-8223333Y-11318371D02*
X-8199524Y-11365990D01*
X-8199524Y-11365990D02*
X-8175714Y-11389800D01*
X-8175714Y-11389800D02*
X-8128095Y-11413609D01*
X-8128095Y-11413609D02*
X-8080476Y-11413609D01*
X-8080476Y-11413609D02*
X-8032857Y-11389800D01*
X-8032857Y-11389800D02*
X-8009048Y-11365990D01*
X-8009048Y-11365990D02*
X-7985238Y-11318371D01*
X-7985238Y-11318371D02*
X-7961429Y-11223133D01*
X-7961429Y-11223133D02*
X-7961429Y-11104085D01*
X-7961429Y-11104085D02*
X-7985238Y-11008847D01*
X-7985238Y-11008847D02*
X-8009048Y-10961228D01*
X-8009048Y-10961228D02*
X-8032857Y-10937419D01*
X-8032857Y-10937419D02*
X-8080476Y-10913609D01*
X4066353Y-7701371D02*
X4066353Y-7101371D01*
X4066353Y-7101371D02*
X3923496Y-7101371D01*
X3923496Y-7101371D02*
X3837782Y-7129942D01*
X3837782Y-7129942D02*
X3780639Y-7187085D01*
X3780639Y-7187085D02*
X3752068Y-7244228D01*
X3752068Y-7244228D02*
X3723496Y-7358514D01*
X3723496Y-7358514D02*
X3723496Y-7444228D01*
X3723496Y-7444228D02*
X3752068Y-7558514D01*
X3752068Y-7558514D02*
X3780639Y-7615657D01*
X3780639Y-7615657D02*
X3837782Y-7672800D01*
X3837782Y-7672800D02*
X3923496Y-7701371D01*
X3923496Y-7701371D02*
X4066353Y-7701371D01*
X3352068Y-7101371D02*
X3237782Y-7101371D01*
X3237782Y-7101371D02*
X3180639Y-7129942D01*
X3180639Y-7129942D02*
X3123496Y-7187085D01*
X3123496Y-7187085D02*
X3094925Y-7301371D01*
X3094925Y-7301371D02*
X3094925Y-7501371D01*
X3094925Y-7501371D02*
X3123496Y-7615657D01*
X3123496Y-7615657D02*
X3180639Y-7672800D01*
X3180639Y-7672800D02*
X3237782Y-7701371D01*
X3237782Y-7701371D02*
X3352068Y-7701371D01*
X3352068Y-7701371D02*
X3409211Y-7672800D01*
X3409211Y-7672800D02*
X3466353Y-7615657D01*
X3466353Y-7615657D02*
X3494925Y-7501371D01*
X3494925Y-7501371D02*
X3494925Y-7301371D01*
X3494925Y-7301371D02*
X3466353Y-7187085D01*
X3466353Y-7187085D02*
X3409211Y-7129942D01*
X3409211Y-7129942D02*
X3352068Y-7101371D01*
X5376664Y8977867D02*
X5376664Y9677867D01*
X5376664Y9677867D02*
X5109997Y9677867D01*
X5109997Y9677867D02*
X5043331Y9644534D01*
X5043331Y9644534D02*
X5009997Y9611200D01*
X5009997Y9611200D02*
X4976664Y9544534D01*
X4976664Y9544534D02*
X4976664Y9444534D01*
X4976664Y9444534D02*
X5009997Y9377867D01*
X5009997Y9377867D02*
X5043331Y9344534D01*
X5043331Y9344534D02*
X5109997Y9311200D01*
X5109997Y9311200D02*
X5376664Y9311200D01*
X4409997Y9011200D02*
X4476664Y8977867D01*
X4476664Y8977867D02*
X4609997Y8977867D01*
X4609997Y8977867D02*
X4676664Y9011200D01*
X4676664Y9011200D02*
X4709997Y9077867D01*
X4709997Y9077867D02*
X4709997Y9344534D01*
X4709997Y9344534D02*
X4676664Y9411200D01*
X4676664Y9411200D02*
X4609997Y9444534D01*
X4609997Y9444534D02*
X4476664Y9444534D01*
X4476664Y9444534D02*
X4409997Y9411200D01*
X4409997Y9411200D02*
X4376664Y9344534D01*
X4376664Y9344534D02*
X4376664Y9277867D01*
X4376664Y9277867D02*
X4709997Y9211200D01*
X3776664Y8977867D02*
X3776664Y9677867D01*
X3776664Y9011200D02*
X3843331Y8977867D01*
X3843331Y8977867D02*
X3976664Y8977867D01*
X3976664Y8977867D02*
X4043331Y9011200D01*
X4043331Y9011200D02*
X4076664Y9044534D01*
X4076664Y9044534D02*
X4109997Y9111200D01*
X4109997Y9111200D02*
X4109997Y9311200D01*
X4109997Y9311200D02*
X4076664Y9377867D01*
X4076664Y9377867D02*
X4043331Y9411200D01*
X4043331Y9411200D02*
X3976664Y9444534D01*
X3976664Y9444534D02*
X3843331Y9444534D01*
X3843331Y9444534D02*
X3776664Y9411200D01*
X3143331Y8977867D02*
X3143331Y9344534D01*
X3143331Y9344534D02*
X3176664Y9411200D01*
X3176664Y9411200D02*
X3243331Y9444534D01*
X3243331Y9444534D02*
X3376664Y9444534D01*
X3376664Y9444534D02*
X3443331Y9411200D01*
X3143331Y9011200D02*
X3209998Y8977867D01*
X3209998Y8977867D02*
X3376664Y8977867D01*
X3376664Y8977867D02*
X3443331Y9011200D01*
X3443331Y9011200D02*
X3476664Y9077867D01*
X3476664Y9077867D02*
X3476664Y9144534D01*
X3476664Y9144534D02*
X3443331Y9211200D01*
X3443331Y9211200D02*
X3376664Y9244534D01*
X3376664Y9244534D02*
X3209998Y9244534D01*
X3209998Y9244534D02*
X3143331Y9277867D01*
X2709998Y8977867D02*
X2776665Y9011200D01*
X2776665Y9011200D02*
X2809998Y9077867D01*
X2809998Y9077867D02*
X2809998Y9677867D01*
X2443331Y8977867D02*
X2443331Y9677867D01*
X2443331Y9411200D02*
X2376664Y9444534D01*
X2376664Y9444534D02*
X2243331Y9444534D01*
X2243331Y9444534D02*
X2176664Y9411200D01*
X2176664Y9411200D02*
X2143331Y9377867D01*
X2143331Y9377867D02*
X2109998Y9311200D01*
X2109998Y9311200D02*
X2109998Y9111200D01*
X2109998Y9111200D02*
X2143331Y9044534D01*
X2143331Y9044534D02*
X2176664Y9011200D01*
X2176664Y9011200D02*
X2243331Y8977867D01*
X2243331Y8977867D02*
X2376664Y8977867D01*
X2376664Y8977867D02*
X2443331Y9011200D01*
X1709998Y8977867D02*
X1776665Y9011200D01*
X1776665Y9011200D02*
X1809998Y9044534D01*
X1809998Y9044534D02*
X1843331Y9111200D01*
X1843331Y9111200D02*
X1843331Y9311200D01*
X1843331Y9311200D02*
X1809998Y9377867D01*
X1809998Y9377867D02*
X1776665Y9411200D01*
X1776665Y9411200D02*
X1709998Y9444534D01*
X1709998Y9444534D02*
X1609998Y9444534D01*
X1609998Y9444534D02*
X1543331Y9411200D01*
X1543331Y9411200D02*
X1509998Y9377867D01*
X1509998Y9377867D02*
X1476665Y9311200D01*
X1476665Y9311200D02*
X1476665Y9111200D01*
X1476665Y9111200D02*
X1509998Y9044534D01*
X1509998Y9044534D02*
X1543331Y9011200D01*
X1543331Y9011200D02*
X1609998Y8977867D01*
X1609998Y8977867D02*
X1709998Y8977867D01*
X876665Y8977867D02*
X876665Y9344534D01*
X876665Y9344534D02*
X909998Y9411200D01*
X909998Y9411200D02*
X976665Y9444534D01*
X976665Y9444534D02*
X1109998Y9444534D01*
X1109998Y9444534D02*
X1176665Y9411200D01*
X876665Y9011200D02*
X943332Y8977867D01*
X943332Y8977867D02*
X1109998Y8977867D01*
X1109998Y8977867D02*
X1176665Y9011200D01*
X1176665Y9011200D02*
X1209998Y9077867D01*
X1209998Y9077867D02*
X1209998Y9144534D01*
X1209998Y9144534D02*
X1176665Y9211200D01*
X1176665Y9211200D02*
X1109998Y9244534D01*
X1109998Y9244534D02*
X943332Y9244534D01*
X943332Y9244534D02*
X876665Y9277867D01*
X543332Y8977867D02*
X543332Y9444534D01*
X543332Y9311200D02*
X509999Y9377867D01*
X509999Y9377867D02*
X476665Y9411200D01*
X476665Y9411200D02*
X409999Y9444534D01*
X409999Y9444534D02*
X343332Y9444534D01*
X-190001Y8977867D02*
X-190001Y9677867D01*
X-190001Y9011200D02*
X-123334Y8977867D01*
X-123334Y8977867D02*
X9999Y8977867D01*
X9999Y8977867D02*
X76666Y9011200D01*
X76666Y9011200D02*
X109999Y9044534D01*
X109999Y9044534D02*
X143332Y9111200D01*
X143332Y9111200D02*
X143332Y9311200D01*
X143332Y9311200D02*
X109999Y9377867D01*
X109999Y9377867D02*
X76666Y9411200D01*
X76666Y9411200D02*
X9999Y9444534D01*
X9999Y9444534D02*
X-123334Y9444534D01*
X-123334Y9444534D02*
X-190001Y9411200D01*
X-1390000Y8977867D02*
X-1056667Y8977867D01*
X-1056667Y8977867D02*
X-1056667Y9677867D01*
X-1623334Y9344534D02*
X-1856667Y9344534D01*
X-1956667Y8977867D02*
X-1623334Y8977867D01*
X-1623334Y8977867D02*
X-1623334Y9677867D01*
X-1623334Y9677867D02*
X-1956667Y9677867D01*
X-2256667Y8977867D02*
X-2256667Y9677867D01*
X-2256667Y9677867D02*
X-2423334Y9677867D01*
X-2423334Y9677867D02*
X-2523334Y9644534D01*
X-2523334Y9644534D02*
X-2590000Y9577867D01*
X-2590000Y9577867D02*
X-2623334Y9511200D01*
X-2623334Y9511200D02*
X-2656667Y9377867D01*
X-2656667Y9377867D02*
X-2656667Y9277867D01*
X-2656667Y9277867D02*
X-2623334Y9144534D01*
X-2623334Y9144534D02*
X-2590000Y9077867D01*
X-2590000Y9077867D02*
X-2523334Y9011200D01*
X-2523334Y9011200D02*
X-2423334Y8977867D01*
X-2423334Y8977867D02*
X-2256667Y8977867D01*
X-3890000Y8977867D02*
X-3656667Y9311200D01*
X-3490000Y8977867D02*
X-3490000Y9677867D01*
X-3490000Y9677867D02*
X-3756667Y9677867D01*
X-3756667Y9677867D02*
X-3823333Y9644534D01*
X-3823333Y9644534D02*
X-3856667Y9611200D01*
X-3856667Y9611200D02*
X-3890000Y9544534D01*
X-3890000Y9544534D02*
X-3890000Y9444534D01*
X-3890000Y9444534D02*
X-3856667Y9377867D01*
X-3856667Y9377867D02*
X-3823333Y9344534D01*
X-3823333Y9344534D02*
X-3756667Y9311200D01*
X-3756667Y9311200D02*
X-3490000Y9311200D01*
X-4190000Y8977867D02*
X-4190000Y9444534D01*
X-4190000Y9677867D02*
X-4156667Y9644534D01*
X-4156667Y9644534D02*
X-4190000Y9611200D01*
X-4190000Y9611200D02*
X-4223333Y9644534D01*
X-4223333Y9644534D02*
X-4190000Y9677867D01*
X-4190000Y9677867D02*
X-4190000Y9611200D01*
X-4523333Y9444534D02*
X-4523333Y8977867D01*
X-4523333Y9377867D02*
X-4556666Y9411200D01*
X-4556666Y9411200D02*
X-4623333Y9444534D01*
X-4623333Y9444534D02*
X-4723333Y9444534D01*
X-4723333Y9444534D02*
X-4790000Y9411200D01*
X-4790000Y9411200D02*
X-4823333Y9344534D01*
X-4823333Y9344534D02*
X-4823333Y8977867D01*
X-5456666Y9444534D02*
X-5456666Y8877867D01*
X-5456666Y8877867D02*
X-5423333Y8811200D01*
X-5423333Y8811200D02*
X-5389999Y8777867D01*
X-5389999Y8777867D02*
X-5323333Y8744534D01*
X-5323333Y8744534D02*
X-5223333Y8744534D01*
X-5223333Y8744534D02*
X-5156666Y8777867D01*
X-5456666Y9011200D02*
X-5389999Y8977867D01*
X-5389999Y8977867D02*
X-5256666Y8977867D01*
X-5256666Y8977867D02*
X-5189999Y9011200D01*
X-5189999Y9011200D02*
X-5156666Y9044534D01*
X-5156666Y9044534D02*
X-5123333Y9111200D01*
X-5123333Y9111200D02*
X-5123333Y9311200D01*
X-5123333Y9311200D02*
X-5156666Y9377867D01*
X-5156666Y9377867D02*
X-5189999Y9411200D01*
X-5189999Y9411200D02*
X-5256666Y9444534D01*
X-5256666Y9444534D02*
X-5389999Y9444534D01*
X-5389999Y9444534D02*
X-5456666Y9411200D01*
X8176663Y7850867D02*
X8176663Y8550867D01*
X7876663Y7850867D02*
X7876663Y8217534D01*
X7876663Y8217534D02*
X7909996Y8284200D01*
X7909996Y8284200D02*
X7976663Y8317534D01*
X7976663Y8317534D02*
X8076663Y8317534D01*
X8076663Y8317534D02*
X8143330Y8284200D01*
X8143330Y8284200D02*
X8176663Y8250867D01*
X7643330Y8317534D02*
X7376663Y8317534D01*
X7543330Y8550867D02*
X7543330Y7950867D01*
X7543330Y7950867D02*
X7509997Y7884200D01*
X7509997Y7884200D02*
X7443330Y7850867D01*
X7443330Y7850867D02*
X7376663Y7850867D01*
X7243330Y8317534D02*
X6976663Y8317534D01*
X7143330Y8550867D02*
X7143330Y7950867D01*
X7143330Y7950867D02*
X7109997Y7884200D01*
X7109997Y7884200D02*
X7043330Y7850867D01*
X7043330Y7850867D02*
X6976663Y7850867D01*
X6743330Y8317534D02*
X6743330Y7617534D01*
X6743330Y8284200D02*
X6676663Y8317534D01*
X6676663Y8317534D02*
X6543330Y8317534D01*
X6543330Y8317534D02*
X6476663Y8284200D01*
X6476663Y8284200D02*
X6443330Y8250867D01*
X6443330Y8250867D02*
X6409997Y8184200D01*
X6409997Y8184200D02*
X6409997Y7984200D01*
X6409997Y7984200D02*
X6443330Y7917534D01*
X6443330Y7917534D02*
X6476663Y7884200D01*
X6476663Y7884200D02*
X6543330Y7850867D01*
X6543330Y7850867D02*
X6676663Y7850867D01*
X6676663Y7850867D02*
X6743330Y7884200D01*
X6143330Y7884200D02*
X6076664Y7850867D01*
X6076664Y7850867D02*
X5943330Y7850867D01*
X5943330Y7850867D02*
X5876664Y7884200D01*
X5876664Y7884200D02*
X5843330Y7950867D01*
X5843330Y7950867D02*
X5843330Y7984200D01*
X5843330Y7984200D02*
X5876664Y8050867D01*
X5876664Y8050867D02*
X5943330Y8084200D01*
X5943330Y8084200D02*
X6043330Y8084200D01*
X6043330Y8084200D02*
X6109997Y8117534D01*
X6109997Y8117534D02*
X6143330Y8184200D01*
X6143330Y8184200D02*
X6143330Y8217534D01*
X6143330Y8217534D02*
X6109997Y8284200D01*
X6109997Y8284200D02*
X6043330Y8317534D01*
X6043330Y8317534D02*
X5943330Y8317534D01*
X5943330Y8317534D02*
X5876664Y8284200D01*
X5543330Y7917534D02*
X5509997Y7884200D01*
X5509997Y7884200D02*
X5543330Y7850867D01*
X5543330Y7850867D02*
X5576663Y7884200D01*
X5576663Y7884200D02*
X5543330Y7917534D01*
X5543330Y7917534D02*
X5543330Y7850867D01*
X5543330Y8284200D02*
X5509997Y8250867D01*
X5509997Y8250867D02*
X5543330Y8217534D01*
X5543330Y8217534D02*
X5576663Y8250867D01*
X5576663Y8250867D02*
X5543330Y8284200D01*
X5543330Y8284200D02*
X5543330Y8217534D01*
X4709997Y8584200D02*
X5309997Y7684200D01*
X3976664Y8584200D02*
X4576664Y7684200D01*
X3443331Y8317534D02*
X3443331Y7750867D01*
X3443331Y7750867D02*
X3476664Y7684200D01*
X3476664Y7684200D02*
X3509998Y7650867D01*
X3509998Y7650867D02*
X3576664Y7617534D01*
X3576664Y7617534D02*
X3676664Y7617534D01*
X3676664Y7617534D02*
X3743331Y7650867D01*
X3443331Y7884200D02*
X3509998Y7850867D01*
X3509998Y7850867D02*
X3643331Y7850867D01*
X3643331Y7850867D02*
X3709998Y7884200D01*
X3709998Y7884200D02*
X3743331Y7917534D01*
X3743331Y7917534D02*
X3776664Y7984200D01*
X3776664Y7984200D02*
X3776664Y8184200D01*
X3776664Y8184200D02*
X3743331Y8250867D01*
X3743331Y8250867D02*
X3709998Y8284200D01*
X3709998Y8284200D02*
X3643331Y8317534D01*
X3643331Y8317534D02*
X3509998Y8317534D01*
X3509998Y8317534D02*
X3443331Y8284200D01*
X3109998Y7850867D02*
X3109998Y8317534D01*
X3109998Y8550867D02*
X3143331Y8517534D01*
X3143331Y8517534D02*
X3109998Y8484200D01*
X3109998Y8484200D02*
X3076665Y8517534D01*
X3076665Y8517534D02*
X3109998Y8550867D01*
X3109998Y8550867D02*
X3109998Y8484200D01*
X2876665Y8317534D02*
X2609998Y8317534D01*
X2776665Y8550867D02*
X2776665Y7950867D01*
X2776665Y7950867D02*
X2743332Y7884200D01*
X2743332Y7884200D02*
X2676665Y7850867D01*
X2676665Y7850867D02*
X2609998Y7850867D01*
X2376665Y7850867D02*
X2376665Y8550867D01*
X2076665Y7850867D02*
X2076665Y8217534D01*
X2076665Y8217534D02*
X2109998Y8284200D01*
X2109998Y8284200D02*
X2176665Y8317534D01*
X2176665Y8317534D02*
X2276665Y8317534D01*
X2276665Y8317534D02*
X2343332Y8284200D01*
X2343332Y8284200D02*
X2376665Y8250867D01*
X1443332Y8317534D02*
X1443332Y7850867D01*
X1743332Y8317534D02*
X1743332Y7950867D01*
X1743332Y7950867D02*
X1709999Y7884200D01*
X1709999Y7884200D02*
X1643332Y7850867D01*
X1643332Y7850867D02*
X1543332Y7850867D01*
X1543332Y7850867D02*
X1476665Y7884200D01*
X1476665Y7884200D02*
X1443332Y7917534D01*
X1109999Y7850867D02*
X1109999Y8550867D01*
X1109999Y8284200D02*
X1043332Y8317534D01*
X1043332Y8317534D02*
X909999Y8317534D01*
X909999Y8317534D02*
X843332Y8284200D01*
X843332Y8284200D02*
X809999Y8250867D01*
X809999Y8250867D02*
X776666Y8184200D01*
X776666Y8184200D02*
X776666Y7984200D01*
X776666Y7984200D02*
X809999Y7917534D01*
X809999Y7917534D02*
X843332Y7884200D01*
X843332Y7884200D02*
X909999Y7850867D01*
X909999Y7850867D02*
X1043332Y7850867D01*
X1043332Y7850867D02*
X1109999Y7884200D01*
X476666Y7917534D02*
X443333Y7884200D01*
X443333Y7884200D02*
X476666Y7850867D01*
X476666Y7850867D02*
X509999Y7884200D01*
X509999Y7884200D02*
X476666Y7917534D01*
X476666Y7917534D02*
X476666Y7850867D01*
X-156667Y7884200D02*
X-90000Y7850867D01*
X-90000Y7850867D02*
X43333Y7850867D01*
X43333Y7850867D02*
X110000Y7884200D01*
X110000Y7884200D02*
X143333Y7917534D01*
X143333Y7917534D02*
X176666Y7984200D01*
X176666Y7984200D02*
X176666Y8184200D01*
X176666Y8184200D02*
X143333Y8250867D01*
X143333Y8250867D02*
X110000Y8284200D01*
X110000Y8284200D02*
X43333Y8317534D01*
X43333Y8317534D02*
X-90000Y8317534D01*
X-90000Y8317534D02*
X-156667Y8284200D01*
X-556667Y7850867D02*
X-490000Y7884200D01*
X-490000Y7884200D02*
X-456667Y7917534D01*
X-456667Y7917534D02*
X-423334Y7984200D01*
X-423334Y7984200D02*
X-423334Y8184200D01*
X-423334Y8184200D02*
X-456667Y8250867D01*
X-456667Y8250867D02*
X-490000Y8284200D01*
X-490000Y8284200D02*
X-556667Y8317534D01*
X-556667Y8317534D02*
X-656667Y8317534D01*
X-656667Y8317534D02*
X-723334Y8284200D01*
X-723334Y8284200D02*
X-756667Y8250867D01*
X-756667Y8250867D02*
X-790000Y8184200D01*
X-790000Y8184200D02*
X-790000Y7984200D01*
X-790000Y7984200D02*
X-756667Y7917534D01*
X-756667Y7917534D02*
X-723334Y7884200D01*
X-723334Y7884200D02*
X-656667Y7850867D01*
X-656667Y7850867D02*
X-556667Y7850867D01*
X-1090000Y7850867D02*
X-1090000Y8317534D01*
X-1090000Y8250867D02*
X-1123333Y8284200D01*
X-1123333Y8284200D02*
X-1190000Y8317534D01*
X-1190000Y8317534D02*
X-1290000Y8317534D01*
X-1290000Y8317534D02*
X-1356667Y8284200D01*
X-1356667Y8284200D02*
X-1390000Y8217534D01*
X-1390000Y8217534D02*
X-1390000Y7850867D01*
X-1390000Y8217534D02*
X-1423333Y8284200D01*
X-1423333Y8284200D02*
X-1490000Y8317534D01*
X-1490000Y8317534D02*
X-1590000Y8317534D01*
X-1590000Y8317534D02*
X-1656667Y8284200D01*
X-1656667Y8284200D02*
X-1690000Y8217534D01*
X-1690000Y8217534D02*
X-1690000Y7850867D01*
X-2523333Y8584200D02*
X-1923333Y7684200D01*
X-2756666Y8317534D02*
X-2756666Y7617534D01*
X-2756666Y8284200D02*
X-2823333Y8317534D01*
X-2823333Y8317534D02*
X-2956666Y8317534D01*
X-2956666Y8317534D02*
X-3023333Y8284200D01*
X-3023333Y8284200D02*
X-3056666Y8250867D01*
X-3056666Y8250867D02*
X-3089999Y8184200D01*
X-3089999Y8184200D02*
X-3089999Y7984200D01*
X-3089999Y7984200D02*
X-3056666Y7917534D01*
X-3056666Y7917534D02*
X-3023333Y7884200D01*
X-3023333Y7884200D02*
X-2956666Y7850867D01*
X-2956666Y7850867D02*
X-2823333Y7850867D01*
X-2823333Y7850867D02*
X-2756666Y7884200D01*
X-3656666Y7884200D02*
X-3589999Y7850867D01*
X-3589999Y7850867D02*
X-3456666Y7850867D01*
X-3456666Y7850867D02*
X-3389999Y7884200D01*
X-3389999Y7884200D02*
X-3356666Y7950867D01*
X-3356666Y7950867D02*
X-3356666Y8217534D01*
X-3356666Y8217534D02*
X-3389999Y8284200D01*
X-3389999Y8284200D02*
X-3456666Y8317534D01*
X-3456666Y8317534D02*
X-3589999Y8317534D01*
X-3589999Y8317534D02*
X-3656666Y8284200D01*
X-3656666Y8284200D02*
X-3689999Y8217534D01*
X-3689999Y8217534D02*
X-3689999Y8150867D01*
X-3689999Y8150867D02*
X-3356666Y8084200D01*
X-4289999Y7850867D02*
X-4289999Y8550867D01*
X-4289999Y7884200D02*
X-4223332Y7850867D01*
X-4223332Y7850867D02*
X-4089999Y7850867D01*
X-4089999Y7850867D02*
X-4023332Y7884200D01*
X-4023332Y7884200D02*
X-3989999Y7917534D01*
X-3989999Y7917534D02*
X-3956666Y7984200D01*
X-3956666Y7984200D02*
X-3956666Y8184200D01*
X-3956666Y8184200D02*
X-3989999Y8250867D01*
X-3989999Y8250867D02*
X-4023332Y8284200D01*
X-4023332Y8284200D02*
X-4089999Y8317534D01*
X-4089999Y8317534D02*
X-4223332Y8317534D01*
X-4223332Y8317534D02*
X-4289999Y8284200D01*
X-4923332Y7850867D02*
X-4923332Y8217534D01*
X-4923332Y8217534D02*
X-4889999Y8284200D01*
X-4889999Y8284200D02*
X-4823332Y8317534D01*
X-4823332Y8317534D02*
X-4689999Y8317534D01*
X-4689999Y8317534D02*
X-4623332Y8284200D01*
X-4923332Y7884200D02*
X-4856665Y7850867D01*
X-4856665Y7850867D02*
X-4689999Y7850867D01*
X-4689999Y7850867D02*
X-4623332Y7884200D01*
X-4623332Y7884200D02*
X-4589999Y7950867D01*
X-4589999Y7950867D02*
X-4589999Y8017534D01*
X-4589999Y8017534D02*
X-4623332Y8084200D01*
X-4623332Y8084200D02*
X-4689999Y8117534D01*
X-4689999Y8117534D02*
X-4856665Y8117534D01*
X-4856665Y8117534D02*
X-4923332Y8150867D01*
X-5356665Y7850867D02*
X-5289998Y7884200D01*
X-5289998Y7884200D02*
X-5256665Y7950867D01*
X-5256665Y7950867D02*
X-5256665Y8550867D01*
X-5623332Y7850867D02*
X-5623332Y8550867D01*
X-5623332Y8284200D02*
X-5689999Y8317534D01*
X-5689999Y8317534D02*
X-5823332Y8317534D01*
X-5823332Y8317534D02*
X-5889999Y8284200D01*
X-5889999Y8284200D02*
X-5923332Y8250867D01*
X-5923332Y8250867D02*
X-5956665Y8184200D01*
X-5956665Y8184200D02*
X-5956665Y7984200D01*
X-5956665Y7984200D02*
X-5923332Y7917534D01*
X-5923332Y7917534D02*
X-5889999Y7884200D01*
X-5889999Y7884200D02*
X-5823332Y7850867D01*
X-5823332Y7850867D02*
X-5689999Y7850867D01*
X-5689999Y7850867D02*
X-5623332Y7884200D01*
X-6356665Y7850867D02*
X-6289998Y7884200D01*
X-6289998Y7884200D02*
X-6256665Y7917534D01*
X-6256665Y7917534D02*
X-6223332Y7984200D01*
X-6223332Y7984200D02*
X-6223332Y8184200D01*
X-6223332Y8184200D02*
X-6256665Y8250867D01*
X-6256665Y8250867D02*
X-6289998Y8284200D01*
X-6289998Y8284200D02*
X-6356665Y8317534D01*
X-6356665Y8317534D02*
X-6456665Y8317534D01*
X-6456665Y8317534D02*
X-6523332Y8284200D01*
X-6523332Y8284200D02*
X-6556665Y8250867D01*
X-6556665Y8250867D02*
X-6589998Y8184200D01*
X-6589998Y8184200D02*
X-6589998Y7984200D01*
X-6589998Y7984200D02*
X-6556665Y7917534D01*
X-6556665Y7917534D02*
X-6523332Y7884200D01*
X-6523332Y7884200D02*
X-6456665Y7850867D01*
X-6456665Y7850867D02*
X-6356665Y7850867D01*
X-7189998Y7850867D02*
X-7189998Y8217534D01*
X-7189998Y8217534D02*
X-7156665Y8284200D01*
X-7156665Y8284200D02*
X-7089998Y8317534D01*
X-7089998Y8317534D02*
X-6956665Y8317534D01*
X-6956665Y8317534D02*
X-6889998Y8284200D01*
X-7189998Y7884200D02*
X-7123331Y7850867D01*
X-7123331Y7850867D02*
X-6956665Y7850867D01*
X-6956665Y7850867D02*
X-6889998Y7884200D01*
X-6889998Y7884200D02*
X-6856665Y7950867D01*
X-6856665Y7950867D02*
X-6856665Y8017534D01*
X-6856665Y8017534D02*
X-6889998Y8084200D01*
X-6889998Y8084200D02*
X-6956665Y8117534D01*
X-6956665Y8117534D02*
X-7123331Y8117534D01*
X-7123331Y8117534D02*
X-7189998Y8150867D01*
X-7523331Y7850867D02*
X-7523331Y8317534D01*
X-7523331Y8184200D02*
X-7556664Y8250867D01*
X-7556664Y8250867D02*
X-7589998Y8284200D01*
X-7589998Y8284200D02*
X-7656664Y8317534D01*
X-7656664Y8317534D02*
X-7723331Y8317534D01*
X-8256664Y7850867D02*
X-8256664Y8550867D01*
X-8256664Y7884200D02*
X-8189997Y7850867D01*
X-8189997Y7850867D02*
X-8056664Y7850867D01*
X-8056664Y7850867D02*
X-7989997Y7884200D01*
X-7989997Y7884200D02*
X-7956664Y7917534D01*
X-7956664Y7917534D02*
X-7923331Y7984200D01*
X-7923331Y7984200D02*
X-7923331Y8184200D01*
X-7923331Y8184200D02*
X-7956664Y8250867D01*
X-7956664Y8250867D02*
X-7989997Y8284200D01*
X-7989997Y8284200D02*
X-8056664Y8317534D01*
X-8056664Y8317534D02*
X-8189997Y8317534D01*
X-8189997Y8317534D02*
X-8256664Y8284200D01*
D11*
X7440000Y-2060000D02*
X7440000Y2060000D01*
X7740000Y-2060000D02*
X7440000Y-2060000D01*
X9740000Y-2060000D02*
X9260000Y-2060000D01*
X11560000Y-2060000D02*
X11260000Y-2060000D01*
X11560000Y-2060000D02*
X11560000Y2060000D01*
X7740000Y2060000D02*
X7440000Y2060000D01*
X9740000Y2060000D02*
X9260000Y2060000D01*
X11260000Y2060000D02*
X11260000Y4440000D01*
X11560000Y2060000D02*
X11260000Y2060000D01*
X4940000Y-7440000D02*
X9060000Y-7440000D01*
X4940000Y-7740000D02*
X4940000Y-7440000D01*
X4940000Y-9740000D02*
X4940000Y-9260000D01*
X4940000Y-11560000D02*
X4940000Y-11260000D01*
X4940000Y-11560000D02*
X9060000Y-11560000D01*
X9060000Y-7740000D02*
X9060000Y-7440000D01*
X9060000Y-9740000D02*
X9060000Y-9260000D01*
X9060000Y-11260000D02*
X11440000Y-11260000D01*
X9060000Y-11560000D02*
X9060000Y-11260000D01*
M02*
