G04 #@! TF.GenerationSoftware,KiCad,Pcbnew,7.0.5.1-1-g8f565ef7f0-dirty-deb11*
G04 #@! TF.CreationDate,2023-06-03T19:15:57+00:00*
G04 #@! TF.ProjectId,pedalboard-led-ring,70656461-6c62-46f6-9172-642d6c65642d,1.0.0*
G04 #@! TF.SameCoordinates,Original*
G04 #@! TF.FileFunction,Legend,Top*
G04 #@! TF.FilePolarity,Positive*
%FSLAX46Y46*%
G04 Gerber Fmt 4.6, Leading zero omitted, Abs format (unit mm)*
G04 Created by KiCad (PCBNEW 7.0.5.1-1-g8f565ef7f0-dirty-deb11) date 2023-06-03 19:15:57*
%MOMM*%
%LPD*%
G01*
G04 APERTURE LIST*
%ADD10C,0.100000*%
%ADD11C,0.075000*%
%ADD12C,0.150000*%
G04 APERTURE END LIST*
D10*
X5213048Y-6681483D02*
X5646060Y-6431483D01*
X5646060Y-6431483D02*
X5705584Y-6534581D01*
X5705584Y-6534581D02*
X5720679Y-6608345D01*
X5720679Y-6608345D02*
X5703249Y-6673393D01*
X5703249Y-6673393D02*
X5673915Y-6717823D01*
X5673915Y-6717823D02*
X5603341Y-6786061D01*
X5603341Y-6786061D02*
X5541482Y-6821776D01*
X5541482Y-6821776D02*
X5447098Y-6848775D01*
X5447098Y-6848775D02*
X5393954Y-6851965D01*
X5393954Y-6851965D02*
X5328905Y-6834535D01*
X5328905Y-6834535D02*
X5272572Y-6784581D01*
X5272572Y-6784581D02*
X5213048Y-6681483D01*
X5594000Y-7341311D02*
X5451143Y-7093876D01*
X5522572Y-7217594D02*
X5955584Y-6967594D01*
X5955584Y-6967594D02*
X5869916Y-6962068D01*
X5869916Y-6962068D02*
X5804867Y-6944639D01*
X5804867Y-6944639D02*
X5760438Y-6915304D01*
X5832095Y-7753704D02*
X5689238Y-7506268D01*
X5760667Y-7629986D02*
X6193679Y-7379986D01*
X6193679Y-7379986D02*
X6108011Y-7374461D01*
X6108011Y-7374461D02*
X6042962Y-7357031D01*
X6042962Y-7357031D02*
X5998533Y-7327697D01*
D11*
X4353253Y-6909829D02*
X4267539Y-6761368D01*
X4310396Y-6835598D02*
X4570204Y-6685598D01*
X4570204Y-6685598D02*
X4518803Y-6682283D01*
X4518803Y-6682283D02*
X4479773Y-6671826D01*
X4479773Y-6671826D02*
X4453116Y-6654225D01*
D10*
X8630952Y1173891D02*
X8630952Y1673891D01*
X8630952Y1673891D02*
X8750000Y1673891D01*
X8750000Y1673891D02*
X8821428Y1650081D01*
X8821428Y1650081D02*
X8869047Y1602462D01*
X8869047Y1602462D02*
X8892857Y1554843D01*
X8892857Y1554843D02*
X8916666Y1459605D01*
X8916666Y1459605D02*
X8916666Y1388177D01*
X8916666Y1388177D02*
X8892857Y1292939D01*
X8892857Y1292939D02*
X8869047Y1245320D01*
X8869047Y1245320D02*
X8821428Y1197700D01*
X8821428Y1197700D02*
X8750000Y1173891D01*
X8750000Y1173891D02*
X8630952Y1173891D01*
X9392857Y1173891D02*
X9107143Y1173891D01*
X9250000Y1173891D02*
X9250000Y1673891D01*
X9250000Y1673891D02*
X9202381Y1602462D01*
X9202381Y1602462D02*
X9154762Y1554843D01*
X9154762Y1554843D02*
X9107143Y1531034D01*
D11*
X8160714Y315115D02*
X7989285Y315115D01*
X8075000Y315115D02*
X8075000Y615115D01*
X8075000Y615115D02*
X8046428Y572258D01*
X8046428Y572258D02*
X8017857Y543686D01*
X8017857Y543686D02*
X7989285Y529400D01*
D10*
X-1173891Y8630953D02*
X-1673891Y8630953D01*
X-1673891Y8630953D02*
X-1673891Y8750001D01*
X-1673891Y8750001D02*
X-1650081Y8821429D01*
X-1650081Y8821429D02*
X-1602462Y8869048D01*
X-1602462Y8869048D02*
X-1554843Y8892858D01*
X-1554843Y8892858D02*
X-1459605Y8916667D01*
X-1459605Y8916667D02*
X-1388177Y8916667D01*
X-1388177Y8916667D02*
X-1292939Y8892858D01*
X-1292939Y8892858D02*
X-1245320Y8869048D01*
X-1245320Y8869048D02*
X-1197700Y8821429D01*
X-1197700Y8821429D02*
X-1173891Y8750001D01*
X-1173891Y8750001D02*
X-1173891Y8630953D01*
X-1507224Y9345239D02*
X-1173891Y9345239D01*
X-1697700Y9226191D02*
X-1340558Y9107144D01*
X-1340558Y9107144D02*
X-1340558Y9416667D01*
D11*
X-315115Y8160715D02*
X-315115Y7989286D01*
X-315115Y8075001D02*
X-615115Y8075001D01*
X-615115Y8075001D02*
X-572258Y8046429D01*
X-572258Y8046429D02*
X-543686Y8017858D01*
X-543686Y8017858D02*
X-529400Y7989286D01*
D10*
X7855373Y-3179809D02*
X8105373Y-2746796D01*
X8105373Y-2746796D02*
X8208471Y-2806320D01*
X8208471Y-2806320D02*
X8258425Y-2862654D01*
X8258425Y-2862654D02*
X8275855Y-2927703D01*
X8275855Y-2927703D02*
X8272665Y-2980847D01*
X8272665Y-2980847D02*
X8245666Y-3075230D01*
X8245666Y-3075230D02*
X8209952Y-3137089D01*
X8209952Y-3137089D02*
X8141713Y-3207663D01*
X8141713Y-3207663D02*
X8097284Y-3236998D01*
X8097284Y-3236998D02*
X8032235Y-3254427D01*
X8032235Y-3254427D02*
X7958471Y-3239333D01*
X7958471Y-3239333D02*
X7855373Y-3179809D01*
X8515202Y-3560761D02*
X8267766Y-3417904D01*
X8391484Y-3489333D02*
X8641484Y-3056320D01*
X8641484Y-3056320D02*
X8564530Y-3094369D01*
X8564530Y-3094369D02*
X8499482Y-3111799D01*
X8499482Y-3111799D02*
X8446337Y-3108609D01*
X8906349Y-3264226D02*
X8938874Y-3255511D01*
X8938874Y-3255511D02*
X8992018Y-3258701D01*
X8992018Y-3258701D02*
X9095116Y-3318225D01*
X9095116Y-3318225D02*
X9124450Y-3362654D01*
X9124450Y-3362654D02*
X9133165Y-3395178D01*
X9133165Y-3395178D02*
X9129975Y-3448322D01*
X9129975Y-3448322D02*
X9106166Y-3489561D01*
X9106166Y-3489561D02*
X9049832Y-3539516D01*
X9049832Y-3539516D02*
X8659539Y-3644094D01*
X8659539Y-3644094D02*
X8927595Y-3798856D01*
D11*
X7224944Y-3807460D02*
X7076482Y-3721746D01*
X7150713Y-3764603D02*
X7300713Y-3504795D01*
X7300713Y-3504795D02*
X7254541Y-3527625D01*
X7254541Y-3527625D02*
X7215511Y-3538083D01*
X7215511Y-3538083D02*
X7183625Y-3536169D01*
D10*
X-7300779Y-6092776D02*
X-7550779Y-5659763D01*
X-7550779Y-5659763D02*
X-7447681Y-5600239D01*
X-7447681Y-5600239D02*
X-7373917Y-5585145D01*
X-7373917Y-5585145D02*
X-7308868Y-5602574D01*
X-7308868Y-5602574D02*
X-7264439Y-5631909D01*
X-7264439Y-5631909D02*
X-7196200Y-5702483D01*
X-7196200Y-5702483D02*
X-7160486Y-5764342D01*
X-7160486Y-5764342D02*
X-7133487Y-5858725D01*
X-7133487Y-5858725D02*
X-7130297Y-5911869D01*
X-7130297Y-5911869D02*
X-7147727Y-5976918D01*
X-7147727Y-5976918D02*
X-7197681Y-6033252D01*
X-7197681Y-6033252D02*
X-7300779Y-6092776D01*
X-6948765Y-5559626D02*
X-7001909Y-5562816D01*
X-7001909Y-5562816D02*
X-7034433Y-5554101D01*
X-7034433Y-5554101D02*
X-7078862Y-5524766D01*
X-7078862Y-5524766D02*
X-7090767Y-5504146D01*
X-7090767Y-5504146D02*
X-7093957Y-5451002D01*
X-7093957Y-5451002D02*
X-7085242Y-5418478D01*
X-7085242Y-5418478D02*
X-7055907Y-5374049D01*
X-7055907Y-5374049D02*
X-6973429Y-5326430D01*
X-6973429Y-5326430D02*
X-6920285Y-5323240D01*
X-6920285Y-5323240D02*
X-6887760Y-5331955D01*
X-6887760Y-5331955D02*
X-6843331Y-5361289D01*
X-6843331Y-5361289D02*
X-6831426Y-5381909D01*
X-6831426Y-5381909D02*
X-6828237Y-5435053D01*
X-6828237Y-5435053D02*
X-6836951Y-5467577D01*
X-6836951Y-5467577D02*
X-6866286Y-5512007D01*
X-6866286Y-5512007D02*
X-6948765Y-5559626D01*
X-6948765Y-5559626D02*
X-6978099Y-5604055D01*
X-6978099Y-5604055D02*
X-6986814Y-5636579D01*
X-6986814Y-5636579D02*
X-6983624Y-5689723D01*
X-6983624Y-5689723D02*
X-6936005Y-5772202D01*
X-6936005Y-5772202D02*
X-6891576Y-5801536D01*
X-6891576Y-5801536D02*
X-6859052Y-5810251D01*
X-6859052Y-5810251D02*
X-6805907Y-5807061D01*
X-6805907Y-5807061D02*
X-6723429Y-5759442D01*
X-6723429Y-5759442D02*
X-6694094Y-5715013D01*
X-6694094Y-5715013D02*
X-6685379Y-5682489D01*
X-6685379Y-5682489D02*
X-6688569Y-5629345D01*
X-6688569Y-5629345D02*
X-6736188Y-5546866D01*
X-6736188Y-5546866D02*
X-6780618Y-5517532D01*
X-6780618Y-5517532D02*
X-6813142Y-5508817D01*
X-6813142Y-5508817D02*
X-6866286Y-5512007D01*
D11*
X-6626483Y-4501168D02*
X-6774944Y-4586882D01*
X-6700714Y-4544025D02*
X-6850714Y-4284217D01*
X-6850714Y-4284217D02*
X-6854029Y-4335618D01*
X-6854029Y-4335618D02*
X-6864486Y-4374648D01*
X-6864486Y-4374648D02*
X-6882087Y-4401305D01*
D10*
X1626109Y-9607142D02*
X1126109Y-9607142D01*
X1126109Y-9607142D02*
X1126109Y-9488094D01*
X1126109Y-9488094D02*
X1149919Y-9416666D01*
X1149919Y-9416666D02*
X1197538Y-9369047D01*
X1197538Y-9369047D02*
X1245157Y-9345237D01*
X1245157Y-9345237D02*
X1340395Y-9321428D01*
X1340395Y-9321428D02*
X1411823Y-9321428D01*
X1411823Y-9321428D02*
X1507061Y-9345237D01*
X1507061Y-9345237D02*
X1554680Y-9369047D01*
X1554680Y-9369047D02*
X1602300Y-9416666D01*
X1602300Y-9416666D02*
X1626109Y-9488094D01*
X1626109Y-9488094D02*
X1626109Y-9607142D01*
X1626109Y-8845237D02*
X1626109Y-9130951D01*
X1626109Y-8988094D02*
X1126109Y-8988094D01*
X1126109Y-8988094D02*
X1197538Y-9035713D01*
X1197538Y-9035713D02*
X1245157Y-9083332D01*
X1245157Y-9083332D02*
X1268966Y-9130951D01*
X1126109Y-8535714D02*
X1126109Y-8488095D01*
X1126109Y-8488095D02*
X1149919Y-8440476D01*
X1149919Y-8440476D02*
X1173728Y-8416666D01*
X1173728Y-8416666D02*
X1221347Y-8392857D01*
X1221347Y-8392857D02*
X1316585Y-8369047D01*
X1316585Y-8369047D02*
X1435633Y-8369047D01*
X1435633Y-8369047D02*
X1530871Y-8392857D01*
X1530871Y-8392857D02*
X1578490Y-8416666D01*
X1578490Y-8416666D02*
X1602300Y-8440476D01*
X1602300Y-8440476D02*
X1626109Y-8488095D01*
X1626109Y-8488095D02*
X1626109Y-8535714D01*
X1626109Y-8535714D02*
X1602300Y-8583333D01*
X1602300Y-8583333D02*
X1578490Y-8607142D01*
X1578490Y-8607142D02*
X1530871Y-8630952D01*
X1530871Y-8630952D02*
X1435633Y-8654761D01*
X1435633Y-8654761D02*
X1316585Y-8654761D01*
X1316585Y-8654761D02*
X1221347Y-8630952D01*
X1221347Y-8630952D02*
X1173728Y-8607142D01*
X1173728Y-8607142D02*
X1149919Y-8583333D01*
X1149919Y-8583333D02*
X1126109Y-8535714D01*
D11*
X584885Y-7989285D02*
X584885Y-8160714D01*
X584885Y-8074999D02*
X284885Y-8074999D01*
X284885Y-8074999D02*
X327742Y-8103571D01*
X327742Y-8103571D02*
X356314Y-8132142D01*
X356314Y-8132142D02*
X370600Y-8160714D01*
D10*
X-9369048Y-1626109D02*
X-9369048Y-1126109D01*
X-9369048Y-1126109D02*
X-9250000Y-1126109D01*
X-9250000Y-1126109D02*
X-9178572Y-1149919D01*
X-9178572Y-1149919D02*
X-9130953Y-1197538D01*
X-9130953Y-1197538D02*
X-9107143Y-1245157D01*
X-9107143Y-1245157D02*
X-9083334Y-1340395D01*
X-9083334Y-1340395D02*
X-9083334Y-1411823D01*
X-9083334Y-1411823D02*
X-9107143Y-1507061D01*
X-9107143Y-1507061D02*
X-9130953Y-1554680D01*
X-9130953Y-1554680D02*
X-9178572Y-1602300D01*
X-9178572Y-1602300D02*
X-9250000Y-1626109D01*
X-9250000Y-1626109D02*
X-9369048Y-1626109D01*
X-8916667Y-1126109D02*
X-8583334Y-1126109D01*
X-8583334Y-1126109D02*
X-8797619Y-1626109D01*
D11*
X-7989286Y-584885D02*
X-8160715Y-584885D01*
X-8075000Y-584885D02*
X-8075000Y-284885D01*
X-8075000Y-284885D02*
X-8103572Y-327742D01*
X-8103572Y-327742D02*
X-8132143Y-356314D01*
X-8132143Y-356314D02*
X-8160715Y-370600D01*
D10*
X-8926889Y3276272D02*
X-8676889Y3709284D01*
X-8676889Y3709284D02*
X-8573790Y3649760D01*
X-8573790Y3649760D02*
X-8523836Y3593427D01*
X-8523836Y3593427D02*
X-8506406Y3528378D01*
X-8506406Y3528378D02*
X-8509596Y3475234D01*
X-8509596Y3475234D02*
X-8536596Y3380850D01*
X-8536596Y3380850D02*
X-8572310Y3318991D01*
X-8572310Y3318991D02*
X-8640549Y3248417D01*
X-8640549Y3248417D02*
X-8684978Y3219083D01*
X-8684978Y3219083D02*
X-8750027Y3201653D01*
X-8750027Y3201653D02*
X-8823790Y3216748D01*
X-8823790Y3216748D02*
X-8926889Y3276272D01*
X-8058299Y3352141D02*
X-8140778Y3399760D01*
X-8140778Y3399760D02*
X-8193922Y3402950D01*
X-8193922Y3402950D02*
X-8226446Y3394235D01*
X-8226446Y3394235D02*
X-8303400Y3356186D01*
X-8303400Y3356186D02*
X-8371638Y3285612D01*
X-8371638Y3285612D02*
X-8466877Y3120655D01*
X-8466877Y3120655D02*
X-8470066Y3067511D01*
X-8470066Y3067511D02*
X-8461352Y3034986D01*
X-8461352Y3034986D02*
X-8432017Y2990557D01*
X-8432017Y2990557D02*
X-8349538Y2942938D01*
X-8349538Y2942938D02*
X-8296394Y2939748D01*
X-8296394Y2939748D02*
X-8263870Y2948463D01*
X-8263870Y2948463D02*
X-8219441Y2977798D01*
X-8219441Y2977798D02*
X-8159917Y3080896D01*
X-8159917Y3080896D02*
X-8156727Y3134040D01*
X-8156727Y3134040D02*
X-8165442Y3166565D01*
X-8165442Y3166565D02*
X-8194776Y3210994D01*
X-8194776Y3210994D02*
X-8277255Y3258613D01*
X-8277255Y3258613D02*
X-8330399Y3261803D01*
X-8330399Y3261803D02*
X-8362924Y3253088D01*
X-8362924Y3253088D02*
X-8407353Y3223753D01*
D11*
X-7211368Y3488118D02*
X-7359830Y3573832D01*
X-7285599Y3530975D02*
X-7135599Y3790783D01*
X-7135599Y3790783D02*
X-7181771Y3767953D01*
X-7181771Y3767953D02*
X-7220801Y3757495D01*
X-7220801Y3757495D02*
X-7252687Y3759409D01*
D12*
X9238095Y12745181D02*
X9238095Y13745181D01*
X9238095Y13268991D02*
X9809523Y13268991D01*
X9809523Y12745181D02*
X9809523Y13745181D01*
X10238095Y13649943D02*
X10285714Y13697562D01*
X10285714Y13697562D02*
X10380952Y13745181D01*
X10380952Y13745181D02*
X10619047Y13745181D01*
X10619047Y13745181D02*
X10714285Y13697562D01*
X10714285Y13697562D02*
X10761904Y13649943D01*
X10761904Y13649943D02*
X10809523Y13554705D01*
X10809523Y13554705D02*
X10809523Y13459467D01*
X10809523Y13459467D02*
X10761904Y13316610D01*
X10761904Y13316610D02*
X10190476Y12745181D01*
X10190476Y12745181D02*
X10809523Y12745181D01*
D10*
X-761905Y42581D02*
X-761905Y1042581D01*
X-761905Y566391D02*
X-190477Y566391D01*
X-190477Y42581D02*
X-190477Y1042581D01*
X714285Y709248D02*
X714285Y42581D01*
X476190Y1090200D02*
X238095Y375915D01*
X238095Y375915D02*
X857142Y375915D01*
D12*
X-10761905Y12745181D02*
X-10761905Y13745181D01*
X-10761905Y13268991D02*
X-10190477Y13268991D01*
X-10190477Y12745181D02*
X-10190477Y13745181D01*
X-9190477Y12745181D02*
X-9761905Y12745181D01*
X-9476191Y12745181D02*
X-9476191Y13745181D01*
X-9476191Y13745181D02*
X-9571429Y13602324D01*
X-9571429Y13602324D02*
X-9666667Y13507086D01*
X-9666667Y13507086D02*
X-9761905Y13459467D01*
D10*
X6887679Y5332096D02*
X6637679Y5765109D01*
X6637679Y5765109D02*
X6740777Y5824633D01*
X6740777Y5824633D02*
X6814541Y5839727D01*
X6814541Y5839727D02*
X6879590Y5822298D01*
X6879590Y5822298D02*
X6924019Y5792963D01*
X6924019Y5792963D02*
X6992258Y5722389D01*
X6992258Y5722389D02*
X7027972Y5660530D01*
X7027972Y5660530D02*
X7054971Y5566147D01*
X7054971Y5566147D02*
X7058161Y5513003D01*
X7058161Y5513003D02*
X7040731Y5447954D01*
X7040731Y5447954D02*
X6990777Y5391620D01*
X6990777Y5391620D02*
X6887679Y5332096D01*
X7073881Y5961965D02*
X7082596Y5994489D01*
X7082596Y5994489D02*
X7111931Y6038918D01*
X7111931Y6038918D02*
X7215029Y6098442D01*
X7215029Y6098442D02*
X7268173Y6101632D01*
X7268173Y6101632D02*
X7300698Y6092917D01*
X7300698Y6092917D02*
X7345127Y6063583D01*
X7345127Y6063583D02*
X7368936Y6022343D01*
X7368936Y6022343D02*
X7384031Y5948580D01*
X7384031Y5948580D02*
X7279452Y5558287D01*
X7279452Y5558287D02*
X7547508Y5713049D01*
D11*
X6909829Y4353254D02*
X6761368Y4267540D01*
X6835598Y4310397D02*
X6685598Y4570205D01*
X6685598Y4570205D02*
X6682283Y4518804D01*
X6682283Y4518804D02*
X6671826Y4479774D01*
X6671826Y4479774D02*
X6654225Y4453117D01*
D10*
X-6092777Y7300779D02*
X-5659764Y7550779D01*
X-5659764Y7550779D02*
X-5600240Y7447681D01*
X-5600240Y7447681D02*
X-5585146Y7373917D01*
X-5585146Y7373917D02*
X-5602575Y7308868D01*
X-5602575Y7308868D02*
X-5631910Y7264439D01*
X-5631910Y7264439D02*
X-5702484Y7196200D01*
X-5702484Y7196200D02*
X-5764343Y7160486D01*
X-5764343Y7160486D02*
X-5858726Y7133487D01*
X-5858726Y7133487D02*
X-5911870Y7130297D01*
X-5911870Y7130297D02*
X-5976919Y7147727D01*
X-5976919Y7147727D02*
X-6033253Y7197681D01*
X-6033253Y7197681D02*
X-6092777Y7300779D01*
X-5290716Y6911570D02*
X-5409764Y7117766D01*
X-5409764Y7117766D02*
X-5627865Y7019338D01*
X-5627865Y7019338D02*
X-5595341Y7010624D01*
X-5595341Y7010624D02*
X-5550912Y6981289D01*
X-5550912Y6981289D02*
X-5491388Y6878191D01*
X-5491388Y6878191D02*
X-5488198Y6825047D01*
X-5488198Y6825047D02*
X-5496913Y6792522D01*
X-5496913Y6792522D02*
X-5526248Y6748093D01*
X-5526248Y6748093D02*
X-5629346Y6688569D01*
X-5629346Y6688569D02*
X-5682490Y6685379D01*
X-5682490Y6685379D02*
X-5715014Y6694094D01*
X-5715014Y6694094D02*
X-5759443Y6723429D01*
X-5759443Y6723429D02*
X-5818967Y6826527D01*
X-5818967Y6826527D02*
X-5822157Y6879671D01*
X-5822157Y6879671D02*
X-5813442Y6912196D01*
D11*
X-4501169Y6626483D02*
X-4586883Y6774944D01*
X-4544026Y6700714D02*
X-4284218Y6850714D01*
X-4284218Y6850714D02*
X-4335619Y6854029D01*
X-4335619Y6854029D02*
X-4374649Y6864486D01*
X-4374649Y6864486D02*
X-4401306Y6882087D01*
D10*
X-3276272Y-8926888D02*
X-3709284Y-8676888D01*
X-3709284Y-8676888D02*
X-3649760Y-8573789D01*
X-3649760Y-8573789D02*
X-3593427Y-8523835D01*
X-3593427Y-8523835D02*
X-3528378Y-8506405D01*
X-3528378Y-8506405D02*
X-3475234Y-8509595D01*
X-3475234Y-8509595D02*
X-3380850Y-8536595D01*
X-3380850Y-8536595D02*
X-3318991Y-8572309D01*
X-3318991Y-8572309D02*
X-3248417Y-8640548D01*
X-3248417Y-8640548D02*
X-3219083Y-8684977D01*
X-3219083Y-8684977D02*
X-3201653Y-8750026D01*
X-3201653Y-8750026D02*
X-3216748Y-8823789D01*
X-3216748Y-8823789D02*
X-3276272Y-8926888D01*
X-3014367Y-8473255D02*
X-2966748Y-8390777D01*
X-2966748Y-8390777D02*
X-2963558Y-8337633D01*
X-2963558Y-8337633D02*
X-2972273Y-8305108D01*
X-2972273Y-8305108D02*
X-3010322Y-8228155D01*
X-3010322Y-8228155D02*
X-3080896Y-8159916D01*
X-3080896Y-8159916D02*
X-3245853Y-8064678D01*
X-3245853Y-8064678D02*
X-3298997Y-8061488D01*
X-3298997Y-8061488D02*
X-3331522Y-8070203D01*
X-3331522Y-8070203D02*
X-3375951Y-8099537D01*
X-3375951Y-8099537D02*
X-3423570Y-8182016D01*
X-3423570Y-8182016D02*
X-3426760Y-8235160D01*
X-3426760Y-8235160D02*
X-3418045Y-8267684D01*
X-3418045Y-8267684D02*
X-3388710Y-8312114D01*
X-3388710Y-8312114D02*
X-3285612Y-8371637D01*
X-3285612Y-8371637D02*
X-3232468Y-8374827D01*
X-3232468Y-8374827D02*
X-3199944Y-8366112D01*
X-3199944Y-8366112D02*
X-3155515Y-8336778D01*
X-3155515Y-8336778D02*
X-3107895Y-8254299D01*
X-3107895Y-8254299D02*
X-3104706Y-8201155D01*
X-3104706Y-8201155D02*
X-3113421Y-8168631D01*
X-3113421Y-8168631D02*
X-3142755Y-8124202D01*
D11*
X-3488118Y-7211367D02*
X-3573832Y-7359829D01*
X-3530975Y-7285598D02*
X-3790783Y-7135598D01*
X-3790783Y-7135598D02*
X-3767953Y-7181770D01*
X-3767953Y-7181770D02*
X-3757495Y-7220800D01*
X-3757495Y-7220800D02*
X-3759409Y-7252686D01*
D10*
X3298856Y8061570D02*
X2865844Y8311570D01*
X2865844Y8311570D02*
X2925368Y8414669D01*
X2925368Y8414669D02*
X2981701Y8464623D01*
X2981701Y8464623D02*
X3046750Y8482053D01*
X3046750Y8482053D02*
X3099894Y8478863D01*
X3099894Y8478863D02*
X3194278Y8451863D01*
X3194278Y8451863D02*
X3256137Y8416149D01*
X3256137Y8416149D02*
X3326711Y8347910D01*
X3326711Y8347910D02*
X3356045Y8303481D01*
X3356045Y8303481D02*
X3373475Y8238432D01*
X3373475Y8238432D02*
X3358380Y8164669D01*
X3358380Y8164669D02*
X3298856Y8061570D01*
X3092034Y8703344D02*
X3246796Y8971399D01*
X3246796Y8971399D02*
X3328420Y8731824D01*
X3328420Y8731824D02*
X3364134Y8793683D01*
X3364134Y8793683D02*
X3408563Y8823017D01*
X3408563Y8823017D02*
X3441088Y8831732D01*
X3441088Y8831732D02*
X3494232Y8828542D01*
X3494232Y8828542D02*
X3597330Y8769018D01*
X3597330Y8769018D02*
X3626665Y8724589D01*
X3626665Y8724589D02*
X3635380Y8692065D01*
X3635380Y8692065D02*
X3632190Y8638921D01*
X3632190Y8638921D02*
X3560761Y8515203D01*
X3560761Y8515203D02*
X3516332Y8485868D01*
X3516332Y8485868D02*
X3483808Y8477153D01*
D11*
X3807460Y7224945D02*
X3721746Y7076483D01*
X3764603Y7150714D02*
X3504795Y7300714D01*
X3504795Y7300714D02*
X3527625Y7254542D01*
X3527625Y7254542D02*
X3538083Y7215512D01*
X3538083Y7215512D02*
X3536169Y7183626D01*
D12*
X-10761905Y-7254819D02*
X-10761905Y-6254819D01*
X-10761905Y-6731009D02*
X-10190477Y-6731009D01*
X-10190477Y-7254819D02*
X-10190477Y-6254819D01*
X-9809524Y-6254819D02*
X-9190477Y-6254819D01*
X-9190477Y-6254819D02*
X-9523810Y-6635771D01*
X-9523810Y-6635771D02*
X-9380953Y-6635771D01*
X-9380953Y-6635771D02*
X-9285715Y-6683390D01*
X-9285715Y-6683390D02*
X-9238096Y-6731009D01*
X-9238096Y-6731009D02*
X-9190477Y-6826247D01*
X-9190477Y-6826247D02*
X-9190477Y-7064342D01*
X-9190477Y-7064342D02*
X-9238096Y-7159580D01*
X-9238096Y-7159580D02*
X-9285715Y-7207200D01*
X-9285715Y-7207200D02*
X-9380953Y-7254819D01*
X-9380953Y-7254819D02*
X-9666667Y-7254819D01*
X-9666667Y-7254819D02*
X-9761905Y-7207200D01*
X-9761905Y-7207200D02*
X-9809524Y-7159580D01*
D10*
X5661122Y-8105351D02*
X5336122Y-7542434D01*
X5098205Y-8430351D02*
X5661122Y-8105351D01*
X9850000Y850000D02*
X9200000Y850000D01*
X9850000Y200000D02*
X9850000Y850000D01*
X-850000Y9850000D02*
X-850000Y9200000D01*
X-200000Y9850000D02*
X-850000Y9850000D01*
X8955351Y-4188878D02*
X8392434Y-3863878D01*
X8630351Y-4751795D02*
X8955351Y-4188878D01*
X-8105351Y-5661122D02*
X-7542434Y-5336122D01*
X-8430351Y-5098205D02*
X-8105351Y-5661122D01*
X850000Y-9850000D02*
X850000Y-9200000D01*
X200000Y-9850000D02*
X850000Y-9850000D01*
X-9850000Y-850000D02*
X-9200000Y-850000D01*
X-9850000Y-200000D02*
X-9850000Y-850000D01*
X-8955351Y4188878D02*
X-8392434Y3863878D01*
X-8630351Y4751795D02*
X-8955351Y4188878D01*
X8105351Y5661122D02*
X7542434Y5336122D01*
X8430351Y5098205D02*
X8105351Y5661122D01*
X-5661122Y8105351D02*
X-5336122Y7542434D01*
X-5098205Y8430351D02*
X-5661122Y8105351D01*
X-4188878Y-8955351D02*
X-3863878Y-8392434D01*
X-4751795Y-8630351D02*
X-4188878Y-8955351D01*
X4188878Y8955351D02*
X3863878Y8392434D01*
X4751795Y8630351D02*
X4188878Y8955351D01*
M02*
