G04 #@! TF.GenerationSoftware,KiCad,Pcbnew,7.0.5.1-1-g8f565ef7f0-dirty-deb11*
G04 #@! TF.CreationDate,2023-06-03T10:32:06+00:00*
G04 #@! TF.ProjectId,pedalboard-led-ring,70656461-6c62-46f6-9172-642d6c65642d,1.0.0*
G04 #@! TF.SameCoordinates,Original*
G04 #@! TF.FileFunction,Legend,Bot*
G04 #@! TF.FilePolarity,Positive*
%FSLAX46Y46*%
G04 Gerber Fmt 4.6, Leading zero omitted, Abs format (unit mm)*
G04 Created by KiCad (PCBNEW 7.0.5.1-1-g8f565ef7f0-dirty-deb11) date 2023-06-03 10:32:06*
%MOMM*%
%LPD*%
G01*
G04 APERTURE LIST*
%ADD10C,0.100000*%
%ADD11C,0.150000*%
%ADD12C,0.125000*%
%ADD13C,0.120000*%
G04 APERTURE END LIST*
D10*
X7050000Y0D02*
G75*
G03*
X7050000Y0I-7050000J0D01*
G01*
D11*
X9400414Y6222745D02*
X8650414Y6222745D01*
X8650414Y6222745D02*
X8650414Y6044174D01*
X8650414Y6044174D02*
X8686128Y5937031D01*
X8686128Y5937031D02*
X8757557Y5865602D01*
X8757557Y5865602D02*
X8828985Y5829888D01*
X8828985Y5829888D02*
X8971842Y5794174D01*
X8971842Y5794174D02*
X9078985Y5794174D01*
X9078985Y5794174D02*
X9221842Y5829888D01*
X9221842Y5829888D02*
X9293271Y5865602D01*
X9293271Y5865602D02*
X9364700Y5937031D01*
X9364700Y5937031D02*
X9400414Y6044174D01*
X9400414Y6044174D02*
X9400414Y6222745D01*
X9400414Y5472745D02*
X8650414Y5472745D01*
X9900414Y-5777255D02*
X9150414Y-5777255D01*
X9150414Y-5777255D02*
X9150414Y-5955826D01*
X9150414Y-5955826D02*
X9186128Y-6062969D01*
X9186128Y-6062969D02*
X9257557Y-6134398D01*
X9257557Y-6134398D02*
X9328985Y-6170112D01*
X9328985Y-6170112D02*
X9471842Y-6205826D01*
X9471842Y-6205826D02*
X9578985Y-6205826D01*
X9578985Y-6205826D02*
X9721842Y-6170112D01*
X9721842Y-6170112D02*
X9793271Y-6134398D01*
X9793271Y-6134398D02*
X9864700Y-6062969D01*
X9864700Y-6062969D02*
X9900414Y-5955826D01*
X9900414Y-5955826D02*
X9900414Y-5777255D01*
X9150414Y-6670112D02*
X9150414Y-6741541D01*
X9150414Y-6741541D02*
X9186128Y-6812969D01*
X9186128Y-6812969D02*
X9221842Y-6848684D01*
X9221842Y-6848684D02*
X9293271Y-6884398D01*
X9293271Y-6884398D02*
X9436128Y-6920112D01*
X9436128Y-6920112D02*
X9614700Y-6920112D01*
X9614700Y-6920112D02*
X9757557Y-6884398D01*
X9757557Y-6884398D02*
X9828985Y-6848684D01*
X9828985Y-6848684D02*
X9864700Y-6812969D01*
X9864700Y-6812969D02*
X9900414Y-6741541D01*
X9900414Y-6741541D02*
X9900414Y-6670112D01*
X9900414Y-6670112D02*
X9864700Y-6598684D01*
X9864700Y-6598684D02*
X9828985Y-6562969D01*
X9828985Y-6562969D02*
X9757557Y-6527255D01*
X9757557Y-6527255D02*
X9614700Y-6491541D01*
X9614700Y-6491541D02*
X9436128Y-6491541D01*
X9436128Y-6491541D02*
X9293271Y-6527255D01*
X9293271Y-6527255D02*
X9221842Y-6562969D01*
X9221842Y-6562969D02*
X9186128Y-6598684D01*
X9186128Y-6598684D02*
X9150414Y-6670112D01*
X14329887Y-12150414D02*
X14079887Y-12900414D01*
X14079887Y-12900414D02*
X13829887Y-12150414D01*
X13151316Y-12828985D02*
X13187030Y-12864700D01*
X13187030Y-12864700D02*
X13294173Y-12900414D01*
X13294173Y-12900414D02*
X13365601Y-12900414D01*
X13365601Y-12900414D02*
X13472744Y-12864700D01*
X13472744Y-12864700D02*
X13544173Y-12793271D01*
X13544173Y-12793271D02*
X13579887Y-12721842D01*
X13579887Y-12721842D02*
X13615601Y-12578985D01*
X13615601Y-12578985D02*
X13615601Y-12471842D01*
X13615601Y-12471842D02*
X13579887Y-12328985D01*
X13579887Y-12328985D02*
X13544173Y-12257557D01*
X13544173Y-12257557D02*
X13472744Y-12186128D01*
X13472744Y-12186128D02*
X13365601Y-12150414D01*
X13365601Y-12150414D02*
X13294173Y-12150414D01*
X13294173Y-12150414D02*
X13187030Y-12186128D01*
X13187030Y-12186128D02*
X13151316Y-12221842D01*
X12401316Y-12828985D02*
X12437030Y-12864700D01*
X12437030Y-12864700D02*
X12544173Y-12900414D01*
X12544173Y-12900414D02*
X12615601Y-12900414D01*
X12615601Y-12900414D02*
X12722744Y-12864700D01*
X12722744Y-12864700D02*
X12794173Y-12793271D01*
X12794173Y-12793271D02*
X12829887Y-12721842D01*
X12829887Y-12721842D02*
X12865601Y-12578985D01*
X12865601Y-12578985D02*
X12865601Y-12471842D01*
X12865601Y-12471842D02*
X12829887Y-12328985D01*
X12829887Y-12328985D02*
X12794173Y-12257557D01*
X12794173Y-12257557D02*
X12722744Y-12186128D01*
X12722744Y-12186128D02*
X12615601Y-12150414D01*
X12615601Y-12150414D02*
X12544173Y-12150414D01*
X12544173Y-12150414D02*
X12437030Y-12186128D01*
X12437030Y-12186128D02*
X12401316Y-12221842D01*
X10686128Y-5670112D02*
X10650414Y-5598684D01*
X10650414Y-5598684D02*
X10650414Y-5491541D01*
X10650414Y-5491541D02*
X10686128Y-5384398D01*
X10686128Y-5384398D02*
X10757557Y-5312969D01*
X10757557Y-5312969D02*
X10828985Y-5277255D01*
X10828985Y-5277255D02*
X10971842Y-5241541D01*
X10971842Y-5241541D02*
X11078985Y-5241541D01*
X11078985Y-5241541D02*
X11221842Y-5277255D01*
X11221842Y-5277255D02*
X11293271Y-5312969D01*
X11293271Y-5312969D02*
X11364700Y-5384398D01*
X11364700Y-5384398D02*
X11400414Y-5491541D01*
X11400414Y-5491541D02*
X11400414Y-5562969D01*
X11400414Y-5562969D02*
X11364700Y-5670112D01*
X11364700Y-5670112D02*
X11328985Y-5705826D01*
X11328985Y-5705826D02*
X11078985Y-5705826D01*
X11078985Y-5705826D02*
X11078985Y-5562969D01*
X11400414Y-6027255D02*
X10650414Y-6027255D01*
X10650414Y-6027255D02*
X11400414Y-6455826D01*
X11400414Y-6455826D02*
X10650414Y-6455826D01*
X11400414Y-6812969D02*
X10650414Y-6812969D01*
X10650414Y-6812969D02*
X10650414Y-6991540D01*
X10650414Y-6991540D02*
X10686128Y-7098683D01*
X10686128Y-7098683D02*
X10757557Y-7170112D01*
X10757557Y-7170112D02*
X10828985Y-7205826D01*
X10828985Y-7205826D02*
X10971842Y-7241540D01*
X10971842Y-7241540D02*
X11078985Y-7241540D01*
X11078985Y-7241540D02*
X11221842Y-7205826D01*
X11221842Y-7205826D02*
X11293271Y-7170112D01*
X11293271Y-7170112D02*
X11364700Y-7098683D01*
X11364700Y-7098683D02*
X11400414Y-6991540D01*
X11400414Y-6991540D02*
X11400414Y-6812969D01*
X4329887Y-10686128D02*
X4401316Y-10650414D01*
X4401316Y-10650414D02*
X4508458Y-10650414D01*
X4508458Y-10650414D02*
X4615601Y-10686128D01*
X4615601Y-10686128D02*
X4687030Y-10757557D01*
X4687030Y-10757557D02*
X4722744Y-10828985D01*
X4722744Y-10828985D02*
X4758458Y-10971842D01*
X4758458Y-10971842D02*
X4758458Y-11078985D01*
X4758458Y-11078985D02*
X4722744Y-11221842D01*
X4722744Y-11221842D02*
X4687030Y-11293271D01*
X4687030Y-11293271D02*
X4615601Y-11364700D01*
X4615601Y-11364700D02*
X4508458Y-11400414D01*
X4508458Y-11400414D02*
X4437030Y-11400414D01*
X4437030Y-11400414D02*
X4329887Y-11364700D01*
X4329887Y-11364700D02*
X4294173Y-11328985D01*
X4294173Y-11328985D02*
X4294173Y-11078985D01*
X4294173Y-11078985D02*
X4437030Y-11078985D01*
X3972744Y-11400414D02*
X3972744Y-10650414D01*
X3972744Y-10650414D02*
X3544173Y-11400414D01*
X3544173Y-11400414D02*
X3544173Y-10650414D01*
X3187030Y-11400414D02*
X3187030Y-10650414D01*
X3187030Y-10650414D02*
X3008459Y-10650414D01*
X3008459Y-10650414D02*
X2901316Y-10686128D01*
X2901316Y-10686128D02*
X2829887Y-10757557D01*
X2829887Y-10757557D02*
X2794173Y-10828985D01*
X2794173Y-10828985D02*
X2758459Y-10971842D01*
X2758459Y-10971842D02*
X2758459Y-11078985D01*
X2758459Y-11078985D02*
X2794173Y-11221842D01*
X2794173Y-11221842D02*
X2829887Y-11293271D01*
X2829887Y-11293271D02*
X2901316Y-11364700D01*
X2901316Y-11364700D02*
X3008459Y-11400414D01*
X3008459Y-11400414D02*
X3187030Y-11400414D01*
X14222744Y-7900414D02*
X14222744Y-7150414D01*
X14222744Y-7150414D02*
X14044173Y-7150414D01*
X14044173Y-7150414D02*
X13937030Y-7186128D01*
X13937030Y-7186128D02*
X13865601Y-7257557D01*
X13865601Y-7257557D02*
X13829887Y-7328985D01*
X13829887Y-7328985D02*
X13794173Y-7471842D01*
X13794173Y-7471842D02*
X13794173Y-7578985D01*
X13794173Y-7578985D02*
X13829887Y-7721842D01*
X13829887Y-7721842D02*
X13865601Y-7793271D01*
X13865601Y-7793271D02*
X13937030Y-7864700D01*
X13937030Y-7864700D02*
X14044173Y-7900414D01*
X14044173Y-7900414D02*
X14222744Y-7900414D01*
X13472744Y-7900414D02*
X13472744Y-7150414D01*
X10650414Y6829888D02*
X11400414Y6579888D01*
X11400414Y6579888D02*
X10650414Y6329888D01*
X11328985Y5651317D02*
X11364700Y5687031D01*
X11364700Y5687031D02*
X11400414Y5794174D01*
X11400414Y5794174D02*
X11400414Y5865602D01*
X11400414Y5865602D02*
X11364700Y5972745D01*
X11364700Y5972745D02*
X11293271Y6044174D01*
X11293271Y6044174D02*
X11221842Y6079888D01*
X11221842Y6079888D02*
X11078985Y6115602D01*
X11078985Y6115602D02*
X10971842Y6115602D01*
X10971842Y6115602D02*
X10828985Y6079888D01*
X10828985Y6079888D02*
X10757557Y6044174D01*
X10757557Y6044174D02*
X10686128Y5972745D01*
X10686128Y5972745D02*
X10650414Y5865602D01*
X10650414Y5865602D02*
X10650414Y5794174D01*
X10650414Y5794174D02*
X10686128Y5687031D01*
X10686128Y5687031D02*
X10721842Y5651317D01*
X11328985Y4901317D02*
X11364700Y4937031D01*
X11364700Y4937031D02*
X11400414Y5044174D01*
X11400414Y5044174D02*
X11400414Y5115602D01*
X11400414Y5115602D02*
X11364700Y5222745D01*
X11364700Y5222745D02*
X11293271Y5294174D01*
X11293271Y5294174D02*
X11221842Y5329888D01*
X11221842Y5329888D02*
X11078985Y5365602D01*
X11078985Y5365602D02*
X10971842Y5365602D01*
X10971842Y5365602D02*
X10828985Y5329888D01*
X10828985Y5329888D02*
X10757557Y5294174D01*
X10757557Y5294174D02*
X10686128Y5222745D01*
X10686128Y5222745D02*
X10650414Y5115602D01*
X10650414Y5115602D02*
X10650414Y5044174D01*
X10650414Y5044174D02*
X10686128Y4937031D01*
X10686128Y4937031D02*
X10721842Y4901317D01*
D12*
X11892855Y-14432309D02*
X11892855Y-13932309D01*
X11892855Y-13932309D02*
X11702379Y-13932309D01*
X11702379Y-13932309D02*
X11654760Y-13956119D01*
X11654760Y-13956119D02*
X11630950Y-13979928D01*
X11630950Y-13979928D02*
X11607141Y-14027547D01*
X11607141Y-14027547D02*
X11607141Y-14098976D01*
X11607141Y-14098976D02*
X11630950Y-14146595D01*
X11630950Y-14146595D02*
X11654760Y-14170404D01*
X11654760Y-14170404D02*
X11702379Y-14194214D01*
X11702379Y-14194214D02*
X11892855Y-14194214D01*
X11107141Y-14384690D02*
X11130950Y-14408500D01*
X11130950Y-14408500D02*
X11202379Y-14432309D01*
X11202379Y-14432309D02*
X11249998Y-14432309D01*
X11249998Y-14432309D02*
X11321426Y-14408500D01*
X11321426Y-14408500D02*
X11369045Y-14360880D01*
X11369045Y-14360880D02*
X11392855Y-14313261D01*
X11392855Y-14313261D02*
X11416664Y-14218023D01*
X11416664Y-14218023D02*
X11416664Y-14146595D01*
X11416664Y-14146595D02*
X11392855Y-14051357D01*
X11392855Y-14051357D02*
X11369045Y-14003738D01*
X11369045Y-14003738D02*
X11321426Y-13956119D01*
X11321426Y-13956119D02*
X11249998Y-13932309D01*
X11249998Y-13932309D02*
X11202379Y-13932309D01*
X11202379Y-13932309D02*
X11130950Y-13956119D01*
X11130950Y-13956119D02*
X11107141Y-13979928D01*
X10726188Y-14170404D02*
X10654760Y-14194214D01*
X10654760Y-14194214D02*
X10630950Y-14218023D01*
X10630950Y-14218023D02*
X10607141Y-14265642D01*
X10607141Y-14265642D02*
X10607141Y-14337071D01*
X10607141Y-14337071D02*
X10630950Y-14384690D01*
X10630950Y-14384690D02*
X10654760Y-14408500D01*
X10654760Y-14408500D02*
X10702379Y-14432309D01*
X10702379Y-14432309D02*
X10892855Y-14432309D01*
X10892855Y-14432309D02*
X10892855Y-13932309D01*
X10892855Y-13932309D02*
X10726188Y-13932309D01*
X10726188Y-13932309D02*
X10678569Y-13956119D01*
X10678569Y-13956119D02*
X10654760Y-13979928D01*
X10654760Y-13979928D02*
X10630950Y-14027547D01*
X10630950Y-14027547D02*
X10630950Y-14075166D01*
X10630950Y-14075166D02*
X10654760Y-14122785D01*
X10654760Y-14122785D02*
X10678569Y-14146595D01*
X10678569Y-14146595D02*
X10726188Y-14170404D01*
X10726188Y-14170404D02*
X10892855Y-14170404D01*
X10392855Y-14384690D02*
X10369045Y-14408500D01*
X10369045Y-14408500D02*
X10392855Y-14432309D01*
X10392855Y-14432309D02*
X10416664Y-14408500D01*
X10416664Y-14408500D02*
X10392855Y-14384690D01*
X10392855Y-14384690D02*
X10392855Y-14432309D01*
X10392855Y-14122785D02*
X10369045Y-14146595D01*
X10369045Y-14146595D02*
X10392855Y-14170404D01*
X10392855Y-14170404D02*
X10416664Y-14146595D01*
X10416664Y-14146595D02*
X10392855Y-14122785D01*
X10392855Y-14122785D02*
X10392855Y-14170404D01*
X9511903Y-14432309D02*
X9797617Y-14432309D01*
X9654760Y-14432309D02*
X9654760Y-13932309D01*
X9654760Y-13932309D02*
X9702379Y-14003738D01*
X9702379Y-14003738D02*
X9749998Y-14051357D01*
X9749998Y-14051357D02*
X9797617Y-14075166D01*
X9297618Y-14384690D02*
X9273808Y-14408500D01*
X9273808Y-14408500D02*
X9297618Y-14432309D01*
X9297618Y-14432309D02*
X9321427Y-14408500D01*
X9321427Y-14408500D02*
X9297618Y-14384690D01*
X9297618Y-14384690D02*
X9297618Y-14432309D01*
X8964285Y-13932309D02*
X8916666Y-13932309D01*
X8916666Y-13932309D02*
X8869047Y-13956119D01*
X8869047Y-13956119D02*
X8845237Y-13979928D01*
X8845237Y-13979928D02*
X8821428Y-14027547D01*
X8821428Y-14027547D02*
X8797618Y-14122785D01*
X8797618Y-14122785D02*
X8797618Y-14241833D01*
X8797618Y-14241833D02*
X8821428Y-14337071D01*
X8821428Y-14337071D02*
X8845237Y-14384690D01*
X8845237Y-14384690D02*
X8869047Y-14408500D01*
X8869047Y-14408500D02*
X8916666Y-14432309D01*
X8916666Y-14432309D02*
X8964285Y-14432309D01*
X8964285Y-14432309D02*
X9011904Y-14408500D01*
X9011904Y-14408500D02*
X9035713Y-14384690D01*
X9035713Y-14384690D02*
X9059523Y-14337071D01*
X9059523Y-14337071D02*
X9083332Y-14241833D01*
X9083332Y-14241833D02*
X9083332Y-14122785D01*
X9083332Y-14122785D02*
X9059523Y-14027547D01*
X9059523Y-14027547D02*
X9035713Y-13979928D01*
X9035713Y-13979928D02*
X9011904Y-13956119D01*
X9011904Y-13956119D02*
X8964285Y-13932309D01*
X8583333Y-14384690D02*
X8559523Y-14408500D01*
X8559523Y-14408500D02*
X8583333Y-14432309D01*
X8583333Y-14432309D02*
X8607142Y-14408500D01*
X8607142Y-14408500D02*
X8583333Y-14384690D01*
X8583333Y-14384690D02*
X8583333Y-14432309D01*
X8250000Y-13932309D02*
X8202381Y-13932309D01*
X8202381Y-13932309D02*
X8154762Y-13956119D01*
X8154762Y-13956119D02*
X8130952Y-13979928D01*
X8130952Y-13979928D02*
X8107143Y-14027547D01*
X8107143Y-14027547D02*
X8083333Y-14122785D01*
X8083333Y-14122785D02*
X8083333Y-14241833D01*
X8083333Y-14241833D02*
X8107143Y-14337071D01*
X8107143Y-14337071D02*
X8130952Y-14384690D01*
X8130952Y-14384690D02*
X8154762Y-14408500D01*
X8154762Y-14408500D02*
X8202381Y-14432309D01*
X8202381Y-14432309D02*
X8250000Y-14432309D01*
X8250000Y-14432309D02*
X8297619Y-14408500D01*
X8297619Y-14408500D02*
X8321428Y-14384690D01*
X8321428Y-14384690D02*
X8345238Y-14337071D01*
X8345238Y-14337071D02*
X8369047Y-14241833D01*
X8369047Y-14241833D02*
X8369047Y-14122785D01*
X8369047Y-14122785D02*
X8345238Y-14027547D01*
X8345238Y-14027547D02*
X8321428Y-13979928D01*
X8321428Y-13979928D02*
X8297619Y-13956119D01*
X8297619Y-13956119D02*
X8250000Y-13932309D01*
D11*
X4722744Y-9400414D02*
X4722744Y-8650414D01*
X4722744Y-8650414D02*
X4544173Y-8650414D01*
X4544173Y-8650414D02*
X4437030Y-8686128D01*
X4437030Y-8686128D02*
X4365601Y-8757557D01*
X4365601Y-8757557D02*
X4329887Y-8828985D01*
X4329887Y-8828985D02*
X4294173Y-8971842D01*
X4294173Y-8971842D02*
X4294173Y-9078985D01*
X4294173Y-9078985D02*
X4329887Y-9221842D01*
X4329887Y-9221842D02*
X4365601Y-9293271D01*
X4365601Y-9293271D02*
X4437030Y-9364700D01*
X4437030Y-9364700D02*
X4544173Y-9400414D01*
X4544173Y-9400414D02*
X4722744Y-9400414D01*
X3829887Y-8650414D02*
X3687030Y-8650414D01*
X3687030Y-8650414D02*
X3615601Y-8686128D01*
X3615601Y-8686128D02*
X3544173Y-8757557D01*
X3544173Y-8757557D02*
X3508458Y-8900414D01*
X3508458Y-8900414D02*
X3508458Y-9150414D01*
X3508458Y-9150414D02*
X3544173Y-9293271D01*
X3544173Y-9293271D02*
X3615601Y-9364700D01*
X3615601Y-9364700D02*
X3687030Y-9400414D01*
X3687030Y-9400414D02*
X3829887Y-9400414D01*
X3829887Y-9400414D02*
X3901316Y-9364700D01*
X3901316Y-9364700D02*
X3972744Y-9293271D01*
X3972744Y-9293271D02*
X4008458Y-9150414D01*
X4008458Y-9150414D02*
X4008458Y-8900414D01*
X4008458Y-8900414D02*
X3972744Y-8757557D01*
X3972744Y-8757557D02*
X3901316Y-8686128D01*
X3901316Y-8686128D02*
X3829887Y-8650414D01*
X5603569Y13307086D02*
X5603569Y14057086D01*
X5603569Y14057086D02*
X5317855Y14057086D01*
X5317855Y14057086D02*
X5246426Y14021372D01*
X5246426Y14021372D02*
X5210712Y13985658D01*
X5210712Y13985658D02*
X5174998Y13914229D01*
X5174998Y13914229D02*
X5174998Y13807086D01*
X5174998Y13807086D02*
X5210712Y13735658D01*
X5210712Y13735658D02*
X5246426Y13699943D01*
X5246426Y13699943D02*
X5317855Y13664229D01*
X5317855Y13664229D02*
X5603569Y13664229D01*
X4567855Y13342800D02*
X4639283Y13307086D01*
X4639283Y13307086D02*
X4782141Y13307086D01*
X4782141Y13307086D02*
X4853569Y13342800D01*
X4853569Y13342800D02*
X4889283Y13414229D01*
X4889283Y13414229D02*
X4889283Y13699943D01*
X4889283Y13699943D02*
X4853569Y13771372D01*
X4853569Y13771372D02*
X4782141Y13807086D01*
X4782141Y13807086D02*
X4639283Y13807086D01*
X4639283Y13807086D02*
X4567855Y13771372D01*
X4567855Y13771372D02*
X4532141Y13699943D01*
X4532141Y13699943D02*
X4532141Y13628515D01*
X4532141Y13628515D02*
X4889283Y13557086D01*
X3889284Y13307086D02*
X3889284Y14057086D01*
X3889284Y13342800D02*
X3960712Y13307086D01*
X3960712Y13307086D02*
X4103569Y13307086D01*
X4103569Y13307086D02*
X4174998Y13342800D01*
X4174998Y13342800D02*
X4210712Y13378515D01*
X4210712Y13378515D02*
X4246426Y13449943D01*
X4246426Y13449943D02*
X4246426Y13664229D01*
X4246426Y13664229D02*
X4210712Y13735658D01*
X4210712Y13735658D02*
X4174998Y13771372D01*
X4174998Y13771372D02*
X4103569Y13807086D01*
X4103569Y13807086D02*
X3960712Y13807086D01*
X3960712Y13807086D02*
X3889284Y13771372D01*
X3210713Y13307086D02*
X3210713Y13699943D01*
X3210713Y13699943D02*
X3246427Y13771372D01*
X3246427Y13771372D02*
X3317855Y13807086D01*
X3317855Y13807086D02*
X3460713Y13807086D01*
X3460713Y13807086D02*
X3532141Y13771372D01*
X3210713Y13342800D02*
X3282141Y13307086D01*
X3282141Y13307086D02*
X3460713Y13307086D01*
X3460713Y13307086D02*
X3532141Y13342800D01*
X3532141Y13342800D02*
X3567855Y13414229D01*
X3567855Y13414229D02*
X3567855Y13485658D01*
X3567855Y13485658D02*
X3532141Y13557086D01*
X3532141Y13557086D02*
X3460713Y13592800D01*
X3460713Y13592800D02*
X3282141Y13592800D01*
X3282141Y13592800D02*
X3210713Y13628515D01*
X2746427Y13307086D02*
X2817856Y13342800D01*
X2817856Y13342800D02*
X2853570Y13414229D01*
X2853570Y13414229D02*
X2853570Y14057086D01*
X2460713Y13307086D02*
X2460713Y14057086D01*
X2460713Y13771372D02*
X2389285Y13807086D01*
X2389285Y13807086D02*
X2246427Y13807086D01*
X2246427Y13807086D02*
X2174999Y13771372D01*
X2174999Y13771372D02*
X2139285Y13735658D01*
X2139285Y13735658D02*
X2103570Y13664229D01*
X2103570Y13664229D02*
X2103570Y13449943D01*
X2103570Y13449943D02*
X2139285Y13378515D01*
X2139285Y13378515D02*
X2174999Y13342800D01*
X2174999Y13342800D02*
X2246427Y13307086D01*
X2246427Y13307086D02*
X2389285Y13307086D01*
X2389285Y13307086D02*
X2460713Y13342800D01*
X1674999Y13307086D02*
X1746428Y13342800D01*
X1746428Y13342800D02*
X1782142Y13378515D01*
X1782142Y13378515D02*
X1817856Y13449943D01*
X1817856Y13449943D02*
X1817856Y13664229D01*
X1817856Y13664229D02*
X1782142Y13735658D01*
X1782142Y13735658D02*
X1746428Y13771372D01*
X1746428Y13771372D02*
X1674999Y13807086D01*
X1674999Y13807086D02*
X1567856Y13807086D01*
X1567856Y13807086D02*
X1496428Y13771372D01*
X1496428Y13771372D02*
X1460714Y13735658D01*
X1460714Y13735658D02*
X1424999Y13664229D01*
X1424999Y13664229D02*
X1424999Y13449943D01*
X1424999Y13449943D02*
X1460714Y13378515D01*
X1460714Y13378515D02*
X1496428Y13342800D01*
X1496428Y13342800D02*
X1567856Y13307086D01*
X1567856Y13307086D02*
X1674999Y13307086D01*
X782143Y13307086D02*
X782143Y13699943D01*
X782143Y13699943D02*
X817857Y13771372D01*
X817857Y13771372D02*
X889285Y13807086D01*
X889285Y13807086D02*
X1032143Y13807086D01*
X1032143Y13807086D02*
X1103571Y13771372D01*
X782143Y13342800D02*
X853571Y13307086D01*
X853571Y13307086D02*
X1032143Y13307086D01*
X1032143Y13307086D02*
X1103571Y13342800D01*
X1103571Y13342800D02*
X1139285Y13414229D01*
X1139285Y13414229D02*
X1139285Y13485658D01*
X1139285Y13485658D02*
X1103571Y13557086D01*
X1103571Y13557086D02*
X1032143Y13592800D01*
X1032143Y13592800D02*
X853571Y13592800D01*
X853571Y13592800D02*
X782143Y13628515D01*
X425000Y13307086D02*
X425000Y13807086D01*
X425000Y13664229D02*
X389286Y13735658D01*
X389286Y13735658D02*
X353572Y13771372D01*
X353572Y13771372D02*
X282143Y13807086D01*
X282143Y13807086D02*
X210714Y13807086D01*
X-360714Y13307086D02*
X-360714Y14057086D01*
X-360714Y13342800D02*
X-289286Y13307086D01*
X-289286Y13307086D02*
X-146429Y13307086D01*
X-146429Y13307086D02*
X-75000Y13342800D01*
X-75000Y13342800D02*
X-39286Y13378515D01*
X-39286Y13378515D02*
X-3572Y13449943D01*
X-3572Y13449943D02*
X-3572Y13664229D01*
X-3572Y13664229D02*
X-39286Y13735658D01*
X-39286Y13735658D02*
X-75000Y13771372D01*
X-75000Y13771372D02*
X-146429Y13807086D01*
X-146429Y13807086D02*
X-289286Y13807086D01*
X-289286Y13807086D02*
X-360714Y13771372D01*
X-1646429Y13307086D02*
X-1289286Y13307086D01*
X-1289286Y13307086D02*
X-1289286Y14057086D01*
X-1896429Y13699943D02*
X-2146429Y13699943D01*
X-2253572Y13307086D02*
X-1896429Y13307086D01*
X-1896429Y13307086D02*
X-1896429Y14057086D01*
X-1896429Y14057086D02*
X-2253572Y14057086D01*
X-2575000Y13307086D02*
X-2575000Y14057086D01*
X-2575000Y14057086D02*
X-2753571Y14057086D01*
X-2753571Y14057086D02*
X-2860714Y14021372D01*
X-2860714Y14021372D02*
X-2932143Y13949943D01*
X-2932143Y13949943D02*
X-2967857Y13878515D01*
X-2967857Y13878515D02*
X-3003571Y13735658D01*
X-3003571Y13735658D02*
X-3003571Y13628515D01*
X-3003571Y13628515D02*
X-2967857Y13485658D01*
X-2967857Y13485658D02*
X-2932143Y13414229D01*
X-2932143Y13414229D02*
X-2860714Y13342800D01*
X-2860714Y13342800D02*
X-2753571Y13307086D01*
X-2753571Y13307086D02*
X-2575000Y13307086D01*
X-4325000Y13307086D02*
X-4075000Y13664229D01*
X-3896429Y13307086D02*
X-3896429Y14057086D01*
X-3896429Y14057086D02*
X-4182143Y14057086D01*
X-4182143Y14057086D02*
X-4253572Y14021372D01*
X-4253572Y14021372D02*
X-4289286Y13985658D01*
X-4289286Y13985658D02*
X-4325000Y13914229D01*
X-4325000Y13914229D02*
X-4325000Y13807086D01*
X-4325000Y13807086D02*
X-4289286Y13735658D01*
X-4289286Y13735658D02*
X-4253572Y13699943D01*
X-4253572Y13699943D02*
X-4182143Y13664229D01*
X-4182143Y13664229D02*
X-3896429Y13664229D01*
X-4646429Y13307086D02*
X-4646429Y13807086D01*
X-4646429Y14057086D02*
X-4610715Y14021372D01*
X-4610715Y14021372D02*
X-4646429Y13985658D01*
X-4646429Y13985658D02*
X-4682143Y14021372D01*
X-4682143Y14021372D02*
X-4646429Y14057086D01*
X-4646429Y14057086D02*
X-4646429Y13985658D01*
X-5003572Y13807086D02*
X-5003572Y13307086D01*
X-5003572Y13735658D02*
X-5039286Y13771372D01*
X-5039286Y13771372D02*
X-5110715Y13807086D01*
X-5110715Y13807086D02*
X-5217858Y13807086D01*
X-5217858Y13807086D02*
X-5289286Y13771372D01*
X-5289286Y13771372D02*
X-5325000Y13699943D01*
X-5325000Y13699943D02*
X-5325000Y13307086D01*
X-6003571Y13807086D02*
X-6003571Y13199943D01*
X-6003571Y13199943D02*
X-5967857Y13128515D01*
X-5967857Y13128515D02*
X-5932143Y13092800D01*
X-5932143Y13092800D02*
X-5860714Y13057086D01*
X-5860714Y13057086D02*
X-5753571Y13057086D01*
X-5753571Y13057086D02*
X-5682143Y13092800D01*
X-6003571Y13342800D02*
X-5932143Y13307086D01*
X-5932143Y13307086D02*
X-5789286Y13307086D01*
X-5789286Y13307086D02*
X-5717857Y13342800D01*
X-5717857Y13342800D02*
X-5682143Y13378515D01*
X-5682143Y13378515D02*
X-5646429Y13449943D01*
X-5646429Y13449943D02*
X-5646429Y13664229D01*
X-5646429Y13664229D02*
X-5682143Y13735658D01*
X-5682143Y13735658D02*
X-5717857Y13771372D01*
X-5717857Y13771372D02*
X-5789286Y13807086D01*
X-5789286Y13807086D02*
X-5932143Y13807086D01*
X-5932143Y13807086D02*
X-6003571Y13771372D01*
X8603567Y12099586D02*
X8603567Y12849586D01*
X8282139Y12099586D02*
X8282139Y12492443D01*
X8282139Y12492443D02*
X8317853Y12563872D01*
X8317853Y12563872D02*
X8389281Y12599586D01*
X8389281Y12599586D02*
X8496424Y12599586D01*
X8496424Y12599586D02*
X8567853Y12563872D01*
X8567853Y12563872D02*
X8603567Y12528158D01*
X8032139Y12599586D02*
X7746425Y12599586D01*
X7924996Y12849586D02*
X7924996Y12206729D01*
X7924996Y12206729D02*
X7889282Y12135300D01*
X7889282Y12135300D02*
X7817853Y12099586D01*
X7817853Y12099586D02*
X7746425Y12099586D01*
X7603568Y12599586D02*
X7317854Y12599586D01*
X7496425Y12849586D02*
X7496425Y12206729D01*
X7496425Y12206729D02*
X7460711Y12135300D01*
X7460711Y12135300D02*
X7389282Y12099586D01*
X7389282Y12099586D02*
X7317854Y12099586D01*
X7067854Y12599586D02*
X7067854Y11849586D01*
X7067854Y12563872D02*
X6996426Y12599586D01*
X6996426Y12599586D02*
X6853568Y12599586D01*
X6853568Y12599586D02*
X6782140Y12563872D01*
X6782140Y12563872D02*
X6746426Y12528158D01*
X6746426Y12528158D02*
X6710711Y12456729D01*
X6710711Y12456729D02*
X6710711Y12242443D01*
X6710711Y12242443D02*
X6746426Y12171015D01*
X6746426Y12171015D02*
X6782140Y12135300D01*
X6782140Y12135300D02*
X6853568Y12099586D01*
X6853568Y12099586D02*
X6996426Y12099586D01*
X6996426Y12099586D02*
X7067854Y12135300D01*
X6424997Y12135300D02*
X6353569Y12099586D01*
X6353569Y12099586D02*
X6210712Y12099586D01*
X6210712Y12099586D02*
X6139283Y12135300D01*
X6139283Y12135300D02*
X6103569Y12206729D01*
X6103569Y12206729D02*
X6103569Y12242443D01*
X6103569Y12242443D02*
X6139283Y12313872D01*
X6139283Y12313872D02*
X6210712Y12349586D01*
X6210712Y12349586D02*
X6317855Y12349586D01*
X6317855Y12349586D02*
X6389283Y12385300D01*
X6389283Y12385300D02*
X6424997Y12456729D01*
X6424997Y12456729D02*
X6424997Y12492443D01*
X6424997Y12492443D02*
X6389283Y12563872D01*
X6389283Y12563872D02*
X6317855Y12599586D01*
X6317855Y12599586D02*
X6210712Y12599586D01*
X6210712Y12599586D02*
X6139283Y12563872D01*
X5782140Y12171015D02*
X5746426Y12135300D01*
X5746426Y12135300D02*
X5782140Y12099586D01*
X5782140Y12099586D02*
X5817854Y12135300D01*
X5817854Y12135300D02*
X5782140Y12171015D01*
X5782140Y12171015D02*
X5782140Y12099586D01*
X5782140Y12563872D02*
X5746426Y12528158D01*
X5746426Y12528158D02*
X5782140Y12492443D01*
X5782140Y12492443D02*
X5817854Y12528158D01*
X5817854Y12528158D02*
X5782140Y12563872D01*
X5782140Y12563872D02*
X5782140Y12492443D01*
X4889283Y12885300D02*
X5532140Y11921015D01*
X4103569Y12885300D02*
X4746426Y11921015D01*
X3532141Y12599586D02*
X3532141Y11992443D01*
X3532141Y11992443D02*
X3567855Y11921015D01*
X3567855Y11921015D02*
X3603569Y11885300D01*
X3603569Y11885300D02*
X3674998Y11849586D01*
X3674998Y11849586D02*
X3782141Y11849586D01*
X3782141Y11849586D02*
X3853569Y11885300D01*
X3532141Y12135300D02*
X3603569Y12099586D01*
X3603569Y12099586D02*
X3746426Y12099586D01*
X3746426Y12099586D02*
X3817855Y12135300D01*
X3817855Y12135300D02*
X3853569Y12171015D01*
X3853569Y12171015D02*
X3889283Y12242443D01*
X3889283Y12242443D02*
X3889283Y12456729D01*
X3889283Y12456729D02*
X3853569Y12528158D01*
X3853569Y12528158D02*
X3817855Y12563872D01*
X3817855Y12563872D02*
X3746426Y12599586D01*
X3746426Y12599586D02*
X3603569Y12599586D01*
X3603569Y12599586D02*
X3532141Y12563872D01*
X3174998Y12099586D02*
X3174998Y12599586D01*
X3174998Y12849586D02*
X3210712Y12813872D01*
X3210712Y12813872D02*
X3174998Y12778158D01*
X3174998Y12778158D02*
X3139284Y12813872D01*
X3139284Y12813872D02*
X3174998Y12849586D01*
X3174998Y12849586D02*
X3174998Y12778158D01*
X2924998Y12599586D02*
X2639284Y12599586D01*
X2817855Y12849586D02*
X2817855Y12206729D01*
X2817855Y12206729D02*
X2782141Y12135300D01*
X2782141Y12135300D02*
X2710712Y12099586D01*
X2710712Y12099586D02*
X2639284Y12099586D01*
X2389284Y12099586D02*
X2389284Y12849586D01*
X2067856Y12099586D02*
X2067856Y12492443D01*
X2067856Y12492443D02*
X2103570Y12563872D01*
X2103570Y12563872D02*
X2174998Y12599586D01*
X2174998Y12599586D02*
X2282141Y12599586D01*
X2282141Y12599586D02*
X2353570Y12563872D01*
X2353570Y12563872D02*
X2389284Y12528158D01*
X1389285Y12599586D02*
X1389285Y12099586D01*
X1710713Y12599586D02*
X1710713Y12206729D01*
X1710713Y12206729D02*
X1674999Y12135300D01*
X1674999Y12135300D02*
X1603570Y12099586D01*
X1603570Y12099586D02*
X1496427Y12099586D01*
X1496427Y12099586D02*
X1424999Y12135300D01*
X1424999Y12135300D02*
X1389285Y12171015D01*
X1032142Y12099586D02*
X1032142Y12849586D01*
X1032142Y12563872D02*
X960714Y12599586D01*
X960714Y12599586D02*
X817856Y12599586D01*
X817856Y12599586D02*
X746428Y12563872D01*
X746428Y12563872D02*
X710714Y12528158D01*
X710714Y12528158D02*
X674999Y12456729D01*
X674999Y12456729D02*
X674999Y12242443D01*
X674999Y12242443D02*
X710714Y12171015D01*
X710714Y12171015D02*
X746428Y12135300D01*
X746428Y12135300D02*
X817856Y12099586D01*
X817856Y12099586D02*
X960714Y12099586D01*
X960714Y12099586D02*
X1032142Y12135300D01*
X353571Y12171015D02*
X317857Y12135300D01*
X317857Y12135300D02*
X353571Y12099586D01*
X353571Y12099586D02*
X389285Y12135300D01*
X389285Y12135300D02*
X353571Y12171015D01*
X353571Y12171015D02*
X353571Y12099586D01*
X-325000Y12135300D02*
X-253572Y12099586D01*
X-253572Y12099586D02*
X-110715Y12099586D01*
X-110715Y12099586D02*
X-39286Y12135300D01*
X-39286Y12135300D02*
X-3572Y12171015D01*
X-3572Y12171015D02*
X32142Y12242443D01*
X32142Y12242443D02*
X32142Y12456729D01*
X32142Y12456729D02*
X-3572Y12528158D01*
X-3572Y12528158D02*
X-39286Y12563872D01*
X-39286Y12563872D02*
X-110715Y12599586D01*
X-110715Y12599586D02*
X-253572Y12599586D01*
X-253572Y12599586D02*
X-325000Y12563872D01*
X-753572Y12099586D02*
X-682143Y12135300D01*
X-682143Y12135300D02*
X-646429Y12171015D01*
X-646429Y12171015D02*
X-610715Y12242443D01*
X-610715Y12242443D02*
X-610715Y12456729D01*
X-610715Y12456729D02*
X-646429Y12528158D01*
X-646429Y12528158D02*
X-682143Y12563872D01*
X-682143Y12563872D02*
X-753572Y12599586D01*
X-753572Y12599586D02*
X-860715Y12599586D01*
X-860715Y12599586D02*
X-932143Y12563872D01*
X-932143Y12563872D02*
X-967857Y12528158D01*
X-967857Y12528158D02*
X-1003572Y12456729D01*
X-1003572Y12456729D02*
X-1003572Y12242443D01*
X-1003572Y12242443D02*
X-967857Y12171015D01*
X-967857Y12171015D02*
X-932143Y12135300D01*
X-932143Y12135300D02*
X-860715Y12099586D01*
X-860715Y12099586D02*
X-753572Y12099586D01*
X-1325000Y12099586D02*
X-1325000Y12599586D01*
X-1325000Y12528158D02*
X-1360714Y12563872D01*
X-1360714Y12563872D02*
X-1432143Y12599586D01*
X-1432143Y12599586D02*
X-1539286Y12599586D01*
X-1539286Y12599586D02*
X-1610714Y12563872D01*
X-1610714Y12563872D02*
X-1646428Y12492443D01*
X-1646428Y12492443D02*
X-1646428Y12099586D01*
X-1646428Y12492443D02*
X-1682143Y12563872D01*
X-1682143Y12563872D02*
X-1753571Y12599586D01*
X-1753571Y12599586D02*
X-1860714Y12599586D01*
X-1860714Y12599586D02*
X-1932143Y12563872D01*
X-1932143Y12563872D02*
X-1967857Y12492443D01*
X-1967857Y12492443D02*
X-1967857Y12099586D01*
X-2860714Y12885300D02*
X-2217857Y11921015D01*
X-3110714Y12599586D02*
X-3110714Y11849586D01*
X-3110714Y12563872D02*
X-3182142Y12599586D01*
X-3182142Y12599586D02*
X-3325000Y12599586D01*
X-3325000Y12599586D02*
X-3396428Y12563872D01*
X-3396428Y12563872D02*
X-3432142Y12528158D01*
X-3432142Y12528158D02*
X-3467857Y12456729D01*
X-3467857Y12456729D02*
X-3467857Y12242443D01*
X-3467857Y12242443D02*
X-3432142Y12171015D01*
X-3432142Y12171015D02*
X-3396428Y12135300D01*
X-3396428Y12135300D02*
X-3325000Y12099586D01*
X-3325000Y12099586D02*
X-3182142Y12099586D01*
X-3182142Y12099586D02*
X-3110714Y12135300D01*
X-4074999Y12135300D02*
X-4003571Y12099586D01*
X-4003571Y12099586D02*
X-3860713Y12099586D01*
X-3860713Y12099586D02*
X-3789285Y12135300D01*
X-3789285Y12135300D02*
X-3753571Y12206729D01*
X-3753571Y12206729D02*
X-3753571Y12492443D01*
X-3753571Y12492443D02*
X-3789285Y12563872D01*
X-3789285Y12563872D02*
X-3860713Y12599586D01*
X-3860713Y12599586D02*
X-4003571Y12599586D01*
X-4003571Y12599586D02*
X-4074999Y12563872D01*
X-4074999Y12563872D02*
X-4110713Y12492443D01*
X-4110713Y12492443D02*
X-4110713Y12421015D01*
X-4110713Y12421015D02*
X-3753571Y12349586D01*
X-4753570Y12099586D02*
X-4753570Y12849586D01*
X-4753570Y12135300D02*
X-4682142Y12099586D01*
X-4682142Y12099586D02*
X-4539285Y12099586D01*
X-4539285Y12099586D02*
X-4467856Y12135300D01*
X-4467856Y12135300D02*
X-4432142Y12171015D01*
X-4432142Y12171015D02*
X-4396428Y12242443D01*
X-4396428Y12242443D02*
X-4396428Y12456729D01*
X-4396428Y12456729D02*
X-4432142Y12528158D01*
X-4432142Y12528158D02*
X-4467856Y12563872D01*
X-4467856Y12563872D02*
X-4539285Y12599586D01*
X-4539285Y12599586D02*
X-4682142Y12599586D01*
X-4682142Y12599586D02*
X-4753570Y12563872D01*
X-5432141Y12099586D02*
X-5432141Y12492443D01*
X-5432141Y12492443D02*
X-5396427Y12563872D01*
X-5396427Y12563872D02*
X-5324999Y12599586D01*
X-5324999Y12599586D02*
X-5182141Y12599586D01*
X-5182141Y12599586D02*
X-5110713Y12563872D01*
X-5432141Y12135300D02*
X-5360713Y12099586D01*
X-5360713Y12099586D02*
X-5182141Y12099586D01*
X-5182141Y12099586D02*
X-5110713Y12135300D01*
X-5110713Y12135300D02*
X-5074999Y12206729D01*
X-5074999Y12206729D02*
X-5074999Y12278158D01*
X-5074999Y12278158D02*
X-5110713Y12349586D01*
X-5110713Y12349586D02*
X-5182141Y12385300D01*
X-5182141Y12385300D02*
X-5360713Y12385300D01*
X-5360713Y12385300D02*
X-5432141Y12421015D01*
X-5896427Y12099586D02*
X-5824998Y12135300D01*
X-5824998Y12135300D02*
X-5789284Y12206729D01*
X-5789284Y12206729D02*
X-5789284Y12849586D01*
X-6182141Y12099586D02*
X-6182141Y12849586D01*
X-6182141Y12563872D02*
X-6253569Y12599586D01*
X-6253569Y12599586D02*
X-6396427Y12599586D01*
X-6396427Y12599586D02*
X-6467855Y12563872D01*
X-6467855Y12563872D02*
X-6503569Y12528158D01*
X-6503569Y12528158D02*
X-6539284Y12456729D01*
X-6539284Y12456729D02*
X-6539284Y12242443D01*
X-6539284Y12242443D02*
X-6503569Y12171015D01*
X-6503569Y12171015D02*
X-6467855Y12135300D01*
X-6467855Y12135300D02*
X-6396427Y12099586D01*
X-6396427Y12099586D02*
X-6253569Y12099586D01*
X-6253569Y12099586D02*
X-6182141Y12135300D01*
X-6967855Y12099586D02*
X-6896426Y12135300D01*
X-6896426Y12135300D02*
X-6860712Y12171015D01*
X-6860712Y12171015D02*
X-6824998Y12242443D01*
X-6824998Y12242443D02*
X-6824998Y12456729D01*
X-6824998Y12456729D02*
X-6860712Y12528158D01*
X-6860712Y12528158D02*
X-6896426Y12563872D01*
X-6896426Y12563872D02*
X-6967855Y12599586D01*
X-6967855Y12599586D02*
X-7074998Y12599586D01*
X-7074998Y12599586D02*
X-7146426Y12563872D01*
X-7146426Y12563872D02*
X-7182140Y12528158D01*
X-7182140Y12528158D02*
X-7217855Y12456729D01*
X-7217855Y12456729D02*
X-7217855Y12242443D01*
X-7217855Y12242443D02*
X-7182140Y12171015D01*
X-7182140Y12171015D02*
X-7146426Y12135300D01*
X-7146426Y12135300D02*
X-7074998Y12099586D01*
X-7074998Y12099586D02*
X-6967855Y12099586D01*
X-7860711Y12099586D02*
X-7860711Y12492443D01*
X-7860711Y12492443D02*
X-7824997Y12563872D01*
X-7824997Y12563872D02*
X-7753569Y12599586D01*
X-7753569Y12599586D02*
X-7610711Y12599586D01*
X-7610711Y12599586D02*
X-7539283Y12563872D01*
X-7860711Y12135300D02*
X-7789283Y12099586D01*
X-7789283Y12099586D02*
X-7610711Y12099586D01*
X-7610711Y12099586D02*
X-7539283Y12135300D01*
X-7539283Y12135300D02*
X-7503569Y12206729D01*
X-7503569Y12206729D02*
X-7503569Y12278158D01*
X-7503569Y12278158D02*
X-7539283Y12349586D01*
X-7539283Y12349586D02*
X-7610711Y12385300D01*
X-7610711Y12385300D02*
X-7789283Y12385300D01*
X-7789283Y12385300D02*
X-7860711Y12421015D01*
X-8217854Y12099586D02*
X-8217854Y12599586D01*
X-8217854Y12456729D02*
X-8253568Y12528158D01*
X-8253568Y12528158D02*
X-8289282Y12563872D01*
X-8289282Y12563872D02*
X-8360711Y12599586D01*
X-8360711Y12599586D02*
X-8432140Y12599586D01*
X-9003568Y12099586D02*
X-9003568Y12849586D01*
X-9003568Y12135300D02*
X-8932140Y12099586D01*
X-8932140Y12099586D02*
X-8789283Y12099586D01*
X-8789283Y12099586D02*
X-8717854Y12135300D01*
X-8717854Y12135300D02*
X-8682140Y12171015D01*
X-8682140Y12171015D02*
X-8646426Y12242443D01*
X-8646426Y12242443D02*
X-8646426Y12456729D01*
X-8646426Y12456729D02*
X-8682140Y12528158D01*
X-8682140Y12528158D02*
X-8717854Y12563872D01*
X-8717854Y12563872D02*
X-8789283Y12599586D01*
X-8789283Y12599586D02*
X-8932140Y12599586D01*
X-8932140Y12599586D02*
X-9003568Y12563872D01*
D13*
X7940000Y-2060000D02*
X7940000Y2060000D01*
X8240000Y-2060000D02*
X7940000Y-2060000D01*
X10240000Y-2060000D02*
X9760000Y-2060000D01*
X12060000Y-2060000D02*
X11760000Y-2060000D01*
X12060000Y-2060000D02*
X12060000Y2060000D01*
X8240000Y2060000D02*
X7940000Y2060000D01*
X10240000Y2060000D02*
X9760000Y2060000D01*
X11760000Y2060000D02*
X11760000Y4440000D01*
X12060000Y2060000D02*
X11760000Y2060000D01*
X7940000Y-7940000D02*
X12060000Y-7940000D01*
X7940000Y-8240000D02*
X7940000Y-7940000D01*
X7940000Y-10240000D02*
X7940000Y-9760000D01*
X7940000Y-12060000D02*
X7940000Y-11760000D01*
X7940000Y-12060000D02*
X12060000Y-12060000D01*
X12060000Y-8240000D02*
X12060000Y-7940000D01*
X12060000Y-10240000D02*
X12060000Y-9760000D01*
X12060000Y-11760000D02*
X14440000Y-11760000D01*
X12060000Y-12060000D02*
X12060000Y-11760000D01*
M02*
