G04 #@! TF.GenerationSoftware,KiCad,Pcbnew,7.0.2.1-36-g582732918d-dirty-deb11*
G04 #@! TF.CreationDate,2023-05-29T10:57:50+00:00*
G04 #@! TF.ProjectId,pedalboard-led-ring,70656461-6c62-46f6-9172-642d6c65642d,1.0.0*
G04 #@! TF.SameCoordinates,Original*
G04 #@! TF.FileFunction,Legend,Bot*
G04 #@! TF.FilePolarity,Positive*
%FSLAX46Y46*%
G04 Gerber Fmt 4.6, Leading zero omitted, Abs format (unit mm)*
G04 Created by KiCad (PCBNEW 7.0.2.1-36-g582732918d-dirty-deb11) date 2023-05-29 10:57:50*
%MOMM*%
%LPD*%
G01*
G04 APERTURE LIST*
%ADD10C,0.100000*%
%ADD11C,0.150000*%
%ADD12C,0.120000*%
%ADD13C,0.127000*%
G04 APERTURE END LIST*
D10*
X7050000Y0D02*
G75*
G03*
X7050000Y0I-7050000J0D01*
G01*
D11*
X2214287Y12362381D02*
X2214287Y13362381D01*
X2214287Y13362381D02*
X1833335Y13362381D01*
X1833335Y13362381D02*
X1738097Y13314762D01*
X1738097Y13314762D02*
X1690478Y13267143D01*
X1690478Y13267143D02*
X1642859Y13171905D01*
X1642859Y13171905D02*
X1642859Y13029048D01*
X1642859Y13029048D02*
X1690478Y12933810D01*
X1690478Y12933810D02*
X1738097Y12886191D01*
X1738097Y12886191D02*
X1833335Y12838572D01*
X1833335Y12838572D02*
X2214287Y12838572D01*
X833335Y12410000D02*
X928573Y12362381D01*
X928573Y12362381D02*
X1119049Y12362381D01*
X1119049Y12362381D02*
X1214287Y12410000D01*
X1214287Y12410000D02*
X1261906Y12505239D01*
X1261906Y12505239D02*
X1261906Y12886191D01*
X1261906Y12886191D02*
X1214287Y12981429D01*
X1214287Y12981429D02*
X1119049Y13029048D01*
X1119049Y13029048D02*
X928573Y13029048D01*
X928573Y13029048D02*
X833335Y12981429D01*
X833335Y12981429D02*
X785716Y12886191D01*
X785716Y12886191D02*
X785716Y12790953D01*
X785716Y12790953D02*
X1261906Y12695715D01*
X-71427Y12362381D02*
X-71427Y13362381D01*
X-71427Y12410000D02*
X23811Y12362381D01*
X23811Y12362381D02*
X214287Y12362381D01*
X214287Y12362381D02*
X309525Y12410000D01*
X309525Y12410000D02*
X357144Y12457620D01*
X357144Y12457620D02*
X404763Y12552858D01*
X404763Y12552858D02*
X404763Y12838572D01*
X404763Y12838572D02*
X357144Y12933810D01*
X357144Y12933810D02*
X309525Y12981429D01*
X309525Y12981429D02*
X214287Y13029048D01*
X214287Y13029048D02*
X23811Y13029048D01*
X23811Y13029048D02*
X-71427Y12981429D01*
X-976189Y12362381D02*
X-976189Y12886191D01*
X-976189Y12886191D02*
X-928570Y12981429D01*
X-928570Y12981429D02*
X-833332Y13029048D01*
X-833332Y13029048D02*
X-642856Y13029048D01*
X-642856Y13029048D02*
X-547618Y12981429D01*
X-976189Y12410000D02*
X-880951Y12362381D01*
X-880951Y12362381D02*
X-642856Y12362381D01*
X-642856Y12362381D02*
X-547618Y12410000D01*
X-547618Y12410000D02*
X-499999Y12505239D01*
X-499999Y12505239D02*
X-499999Y12600477D01*
X-499999Y12600477D02*
X-547618Y12695715D01*
X-547618Y12695715D02*
X-642856Y12743334D01*
X-642856Y12743334D02*
X-880951Y12743334D01*
X-880951Y12743334D02*
X-976189Y12790953D01*
X-1595237Y12362381D02*
X-1499999Y12410000D01*
X-1499999Y12410000D02*
X-1452380Y12505239D01*
X-1452380Y12505239D02*
X-1452380Y13362381D01*
X-1976190Y12362381D02*
X-1976190Y13362381D01*
X-1976190Y12981429D02*
X-2071428Y13029048D01*
X-2071428Y13029048D02*
X-2261904Y13029048D01*
X-2261904Y13029048D02*
X-2357142Y12981429D01*
X-2357142Y12981429D02*
X-2404761Y12933810D01*
X-2404761Y12933810D02*
X-2452380Y12838572D01*
X-2452380Y12838572D02*
X-2452380Y12552858D01*
X-2452380Y12552858D02*
X-2404761Y12457620D01*
X-2404761Y12457620D02*
X-2357142Y12410000D01*
X-2357142Y12410000D02*
X-2261904Y12362381D01*
X-2261904Y12362381D02*
X-2071428Y12362381D01*
X-2071428Y12362381D02*
X-1976190Y12410000D01*
X-3023809Y12362381D02*
X-2928571Y12410000D01*
X-2928571Y12410000D02*
X-2880952Y12457620D01*
X-2880952Y12457620D02*
X-2833333Y12552858D01*
X-2833333Y12552858D02*
X-2833333Y12838572D01*
X-2833333Y12838572D02*
X-2880952Y12933810D01*
X-2880952Y12933810D02*
X-2928571Y12981429D01*
X-2928571Y12981429D02*
X-3023809Y13029048D01*
X-3023809Y13029048D02*
X-3166666Y13029048D01*
X-3166666Y13029048D02*
X-3261904Y12981429D01*
X-3261904Y12981429D02*
X-3309523Y12933810D01*
X-3309523Y12933810D02*
X-3357142Y12838572D01*
X-3357142Y12838572D02*
X-3357142Y12552858D01*
X-3357142Y12552858D02*
X-3309523Y12457620D01*
X-3309523Y12457620D02*
X-3261904Y12410000D01*
X-3261904Y12410000D02*
X-3166666Y12362381D01*
X-3166666Y12362381D02*
X-3023809Y12362381D01*
X-4214285Y12362381D02*
X-4214285Y12886191D01*
X-4214285Y12886191D02*
X-4166666Y12981429D01*
X-4166666Y12981429D02*
X-4071428Y13029048D01*
X-4071428Y13029048D02*
X-3880952Y13029048D01*
X-3880952Y13029048D02*
X-3785714Y12981429D01*
X-4214285Y12410000D02*
X-4119047Y12362381D01*
X-4119047Y12362381D02*
X-3880952Y12362381D01*
X-3880952Y12362381D02*
X-3785714Y12410000D01*
X-3785714Y12410000D02*
X-3738095Y12505239D01*
X-3738095Y12505239D02*
X-3738095Y12600477D01*
X-3738095Y12600477D02*
X-3785714Y12695715D01*
X-3785714Y12695715D02*
X-3880952Y12743334D01*
X-3880952Y12743334D02*
X-4119047Y12743334D01*
X-4119047Y12743334D02*
X-4214285Y12790953D01*
X-4690476Y12362381D02*
X-4690476Y13029048D01*
X-4690476Y12838572D02*
X-4738095Y12933810D01*
X-4738095Y12933810D02*
X-4785714Y12981429D01*
X-4785714Y12981429D02*
X-4880952Y13029048D01*
X-4880952Y13029048D02*
X-4976190Y13029048D01*
X-5738095Y12362381D02*
X-5738095Y13362381D01*
X-5738095Y12410000D02*
X-5642857Y12362381D01*
X-5642857Y12362381D02*
X-5452381Y12362381D01*
X-5452381Y12362381D02*
X-5357143Y12410000D01*
X-5357143Y12410000D02*
X-5309524Y12457620D01*
X-5309524Y12457620D02*
X-5261905Y12552858D01*
X-5261905Y12552858D02*
X-5261905Y12838572D01*
X-5261905Y12838572D02*
X-5309524Y12933810D01*
X-5309524Y12933810D02*
X-5357143Y12981429D01*
X-5357143Y12981429D02*
X-5452381Y13029048D01*
X-5452381Y13029048D02*
X-5642857Y13029048D01*
X-5642857Y13029048D02*
X-5738095Y12981429D01*
X-7452381Y12362381D02*
X-6976191Y12362381D01*
X-6976191Y12362381D02*
X-6976191Y13362381D01*
X-7785715Y12886191D02*
X-8119048Y12886191D01*
X-8261905Y12362381D02*
X-7785715Y12362381D01*
X-7785715Y12362381D02*
X-7785715Y13362381D01*
X-7785715Y13362381D02*
X-8261905Y13362381D01*
X-8690477Y12362381D02*
X-8690477Y13362381D01*
X-8690477Y13362381D02*
X-8928572Y13362381D01*
X-8928572Y13362381D02*
X-9071429Y13314762D01*
X-9071429Y13314762D02*
X-9166667Y13219524D01*
X-9166667Y13219524D02*
X-9214286Y13124286D01*
X-9214286Y13124286D02*
X-9261905Y12933810D01*
X-9261905Y12933810D02*
X-9261905Y12790953D01*
X-9261905Y12790953D02*
X-9214286Y12600477D01*
X-9214286Y12600477D02*
X-9166667Y12505239D01*
X-9166667Y12505239D02*
X-9071429Y12410000D01*
X-9071429Y12410000D02*
X-8928572Y12362381D01*
X-8928572Y12362381D02*
X-8690477Y12362381D01*
X-11023810Y12362381D02*
X-10690477Y12838572D01*
X-10452382Y12362381D02*
X-10452382Y13362381D01*
X-10452382Y13362381D02*
X-10833334Y13362381D01*
X-10833334Y13362381D02*
X-10928572Y13314762D01*
X-10928572Y13314762D02*
X-10976191Y13267143D01*
X-10976191Y13267143D02*
X-11023810Y13171905D01*
X-11023810Y13171905D02*
X-11023810Y13029048D01*
X-11023810Y13029048D02*
X-10976191Y12933810D01*
X-10976191Y12933810D02*
X-10928572Y12886191D01*
X-10928572Y12886191D02*
X-10833334Y12838572D01*
X-10833334Y12838572D02*
X-10452382Y12838572D01*
X-11452382Y12362381D02*
X-11452382Y13029048D01*
X-11452382Y13362381D02*
X-11404763Y13314762D01*
X-11404763Y13314762D02*
X-11452382Y13267143D01*
X-11452382Y13267143D02*
X-11500001Y13314762D01*
X-11500001Y13314762D02*
X-11452382Y13362381D01*
X-11452382Y13362381D02*
X-11452382Y13267143D01*
X-11928572Y13029048D02*
X-11928572Y12362381D01*
X-11928572Y12933810D02*
X-11976191Y12981429D01*
X-11976191Y12981429D02*
X-12071429Y13029048D01*
X-12071429Y13029048D02*
X-12214286Y13029048D01*
X-12214286Y13029048D02*
X-12309524Y12981429D01*
X-12309524Y12981429D02*
X-12357143Y12886191D01*
X-12357143Y12886191D02*
X-12357143Y12362381D01*
X-13261905Y13029048D02*
X-13261905Y12219524D01*
X-13261905Y12219524D02*
X-13214286Y12124286D01*
X-13214286Y12124286D02*
X-13166667Y12076667D01*
X-13166667Y12076667D02*
X-13071429Y12029048D01*
X-13071429Y12029048D02*
X-12928572Y12029048D01*
X-12928572Y12029048D02*
X-12833334Y12076667D01*
X-13261905Y12410000D02*
X-13166667Y12362381D01*
X-13166667Y12362381D02*
X-12976191Y12362381D01*
X-12976191Y12362381D02*
X-12880953Y12410000D01*
X-12880953Y12410000D02*
X-12833334Y12457620D01*
X-12833334Y12457620D02*
X-12785715Y12552858D01*
X-12785715Y12552858D02*
X-12785715Y12838572D01*
X-12785715Y12838572D02*
X-12833334Y12933810D01*
X-12833334Y12933810D02*
X-12880953Y12981429D01*
X-12880953Y12981429D02*
X-12976191Y13029048D01*
X-12976191Y13029048D02*
X-13166667Y13029048D01*
X-13166667Y13029048D02*
X-13261905Y12981429D01*
X10214287Y10742381D02*
X10214287Y11742381D01*
X9785716Y10742381D02*
X9785716Y11266191D01*
X9785716Y11266191D02*
X9833335Y11361429D01*
X9833335Y11361429D02*
X9928573Y11409048D01*
X9928573Y11409048D02*
X10071430Y11409048D01*
X10071430Y11409048D02*
X10166668Y11361429D01*
X10166668Y11361429D02*
X10214287Y11313810D01*
X9452382Y11409048D02*
X9071430Y11409048D01*
X9309525Y11742381D02*
X9309525Y10885239D01*
X9309525Y10885239D02*
X9261906Y10790000D01*
X9261906Y10790000D02*
X9166668Y10742381D01*
X9166668Y10742381D02*
X9071430Y10742381D01*
X8880953Y11409048D02*
X8500001Y11409048D01*
X8738096Y11742381D02*
X8738096Y10885239D01*
X8738096Y10885239D02*
X8690477Y10790000D01*
X8690477Y10790000D02*
X8595239Y10742381D01*
X8595239Y10742381D02*
X8500001Y10742381D01*
X8166667Y11409048D02*
X8166667Y10409048D01*
X8166667Y11361429D02*
X8071429Y11409048D01*
X8071429Y11409048D02*
X7880953Y11409048D01*
X7880953Y11409048D02*
X7785715Y11361429D01*
X7785715Y11361429D02*
X7738096Y11313810D01*
X7738096Y11313810D02*
X7690477Y11218572D01*
X7690477Y11218572D02*
X7690477Y10932858D01*
X7690477Y10932858D02*
X7738096Y10837620D01*
X7738096Y10837620D02*
X7785715Y10790000D01*
X7785715Y10790000D02*
X7880953Y10742381D01*
X7880953Y10742381D02*
X8071429Y10742381D01*
X8071429Y10742381D02*
X8166667Y10790000D01*
X7309524Y10790000D02*
X7214286Y10742381D01*
X7214286Y10742381D02*
X7023810Y10742381D01*
X7023810Y10742381D02*
X6928572Y10790000D01*
X6928572Y10790000D02*
X6880953Y10885239D01*
X6880953Y10885239D02*
X6880953Y10932858D01*
X6880953Y10932858D02*
X6928572Y11028096D01*
X6928572Y11028096D02*
X7023810Y11075715D01*
X7023810Y11075715D02*
X7166667Y11075715D01*
X7166667Y11075715D02*
X7261905Y11123334D01*
X7261905Y11123334D02*
X7309524Y11218572D01*
X7309524Y11218572D02*
X7309524Y11266191D01*
X7309524Y11266191D02*
X7261905Y11361429D01*
X7261905Y11361429D02*
X7166667Y11409048D01*
X7166667Y11409048D02*
X7023810Y11409048D01*
X7023810Y11409048D02*
X6928572Y11361429D01*
X6452381Y10837620D02*
X6404762Y10790000D01*
X6404762Y10790000D02*
X6452381Y10742381D01*
X6452381Y10742381D02*
X6500000Y10790000D01*
X6500000Y10790000D02*
X6452381Y10837620D01*
X6452381Y10837620D02*
X6452381Y10742381D01*
X6452381Y11361429D02*
X6404762Y11313810D01*
X6404762Y11313810D02*
X6452381Y11266191D01*
X6452381Y11266191D02*
X6500000Y11313810D01*
X6500000Y11313810D02*
X6452381Y11361429D01*
X6452381Y11361429D02*
X6452381Y11266191D01*
X5261906Y11790000D02*
X6119048Y10504286D01*
X4214287Y11790000D02*
X5071429Y10504286D01*
X3452382Y11409048D02*
X3452382Y10599524D01*
X3452382Y10599524D02*
X3500001Y10504286D01*
X3500001Y10504286D02*
X3547620Y10456667D01*
X3547620Y10456667D02*
X3642858Y10409048D01*
X3642858Y10409048D02*
X3785715Y10409048D01*
X3785715Y10409048D02*
X3880953Y10456667D01*
X3452382Y10790000D02*
X3547620Y10742381D01*
X3547620Y10742381D02*
X3738096Y10742381D01*
X3738096Y10742381D02*
X3833334Y10790000D01*
X3833334Y10790000D02*
X3880953Y10837620D01*
X3880953Y10837620D02*
X3928572Y10932858D01*
X3928572Y10932858D02*
X3928572Y11218572D01*
X3928572Y11218572D02*
X3880953Y11313810D01*
X3880953Y11313810D02*
X3833334Y11361429D01*
X3833334Y11361429D02*
X3738096Y11409048D01*
X3738096Y11409048D02*
X3547620Y11409048D01*
X3547620Y11409048D02*
X3452382Y11361429D01*
X2976191Y10742381D02*
X2976191Y11409048D01*
X2976191Y11742381D02*
X3023810Y11694762D01*
X3023810Y11694762D02*
X2976191Y11647143D01*
X2976191Y11647143D02*
X2928572Y11694762D01*
X2928572Y11694762D02*
X2976191Y11742381D01*
X2976191Y11742381D02*
X2976191Y11647143D01*
X2642858Y11409048D02*
X2261906Y11409048D01*
X2500001Y11742381D02*
X2500001Y10885239D01*
X2500001Y10885239D02*
X2452382Y10790000D01*
X2452382Y10790000D02*
X2357144Y10742381D01*
X2357144Y10742381D02*
X2261906Y10742381D01*
X1928572Y10742381D02*
X1928572Y11742381D01*
X1500001Y10742381D02*
X1500001Y11266191D01*
X1500001Y11266191D02*
X1547620Y11361429D01*
X1547620Y11361429D02*
X1642858Y11409048D01*
X1642858Y11409048D02*
X1785715Y11409048D01*
X1785715Y11409048D02*
X1880953Y11361429D01*
X1880953Y11361429D02*
X1928572Y11313810D01*
X595239Y11409048D02*
X595239Y10742381D01*
X1023810Y11409048D02*
X1023810Y10885239D01*
X1023810Y10885239D02*
X976191Y10790000D01*
X976191Y10790000D02*
X880953Y10742381D01*
X880953Y10742381D02*
X738096Y10742381D01*
X738096Y10742381D02*
X642858Y10790000D01*
X642858Y10790000D02*
X595239Y10837620D01*
X119048Y10742381D02*
X119048Y11742381D01*
X119048Y11361429D02*
X23810Y11409048D01*
X23810Y11409048D02*
X-166666Y11409048D01*
X-166666Y11409048D02*
X-261904Y11361429D01*
X-261904Y11361429D02*
X-309523Y11313810D01*
X-309523Y11313810D02*
X-357142Y11218572D01*
X-357142Y11218572D02*
X-357142Y10932858D01*
X-357142Y10932858D02*
X-309523Y10837620D01*
X-309523Y10837620D02*
X-261904Y10790000D01*
X-261904Y10790000D02*
X-166666Y10742381D01*
X-166666Y10742381D02*
X23810Y10742381D01*
X23810Y10742381D02*
X119048Y10790000D01*
X-785714Y10837620D02*
X-833333Y10790000D01*
X-833333Y10790000D02*
X-785714Y10742381D01*
X-785714Y10742381D02*
X-738095Y10790000D01*
X-738095Y10790000D02*
X-785714Y10837620D01*
X-785714Y10837620D02*
X-785714Y10742381D01*
X-1690475Y10790000D02*
X-1595237Y10742381D01*
X-1595237Y10742381D02*
X-1404761Y10742381D01*
X-1404761Y10742381D02*
X-1309523Y10790000D01*
X-1309523Y10790000D02*
X-1261904Y10837620D01*
X-1261904Y10837620D02*
X-1214285Y10932858D01*
X-1214285Y10932858D02*
X-1214285Y11218572D01*
X-1214285Y11218572D02*
X-1261904Y11313810D01*
X-1261904Y11313810D02*
X-1309523Y11361429D01*
X-1309523Y11361429D02*
X-1404761Y11409048D01*
X-1404761Y11409048D02*
X-1595237Y11409048D01*
X-1595237Y11409048D02*
X-1690475Y11361429D01*
X-2261904Y10742381D02*
X-2166666Y10790000D01*
X-2166666Y10790000D02*
X-2119047Y10837620D01*
X-2119047Y10837620D02*
X-2071428Y10932858D01*
X-2071428Y10932858D02*
X-2071428Y11218572D01*
X-2071428Y11218572D02*
X-2119047Y11313810D01*
X-2119047Y11313810D02*
X-2166666Y11361429D01*
X-2166666Y11361429D02*
X-2261904Y11409048D01*
X-2261904Y11409048D02*
X-2404761Y11409048D01*
X-2404761Y11409048D02*
X-2499999Y11361429D01*
X-2499999Y11361429D02*
X-2547618Y11313810D01*
X-2547618Y11313810D02*
X-2595237Y11218572D01*
X-2595237Y11218572D02*
X-2595237Y10932858D01*
X-2595237Y10932858D02*
X-2547618Y10837620D01*
X-2547618Y10837620D02*
X-2499999Y10790000D01*
X-2499999Y10790000D02*
X-2404761Y10742381D01*
X-2404761Y10742381D02*
X-2261904Y10742381D01*
X-3023809Y10742381D02*
X-3023809Y11409048D01*
X-3023809Y11313810D02*
X-3071428Y11361429D01*
X-3071428Y11361429D02*
X-3166666Y11409048D01*
X-3166666Y11409048D02*
X-3309523Y11409048D01*
X-3309523Y11409048D02*
X-3404761Y11361429D01*
X-3404761Y11361429D02*
X-3452380Y11266191D01*
X-3452380Y11266191D02*
X-3452380Y10742381D01*
X-3452380Y11266191D02*
X-3499999Y11361429D01*
X-3499999Y11361429D02*
X-3595237Y11409048D01*
X-3595237Y11409048D02*
X-3738094Y11409048D01*
X-3738094Y11409048D02*
X-3833333Y11361429D01*
X-3833333Y11361429D02*
X-3880952Y11266191D01*
X-3880952Y11266191D02*
X-3880952Y10742381D01*
X-5071427Y11790000D02*
X-4214285Y10504286D01*
X-5404761Y11409048D02*
X-5404761Y10409048D01*
X-5404761Y11361429D02*
X-5499999Y11409048D01*
X-5499999Y11409048D02*
X-5690475Y11409048D01*
X-5690475Y11409048D02*
X-5785713Y11361429D01*
X-5785713Y11361429D02*
X-5833332Y11313810D01*
X-5833332Y11313810D02*
X-5880951Y11218572D01*
X-5880951Y11218572D02*
X-5880951Y10932858D01*
X-5880951Y10932858D02*
X-5833332Y10837620D01*
X-5833332Y10837620D02*
X-5785713Y10790000D01*
X-5785713Y10790000D02*
X-5690475Y10742381D01*
X-5690475Y10742381D02*
X-5499999Y10742381D01*
X-5499999Y10742381D02*
X-5404761Y10790000D01*
X-6690475Y10790000D02*
X-6595237Y10742381D01*
X-6595237Y10742381D02*
X-6404761Y10742381D01*
X-6404761Y10742381D02*
X-6309523Y10790000D01*
X-6309523Y10790000D02*
X-6261904Y10885239D01*
X-6261904Y10885239D02*
X-6261904Y11266191D01*
X-6261904Y11266191D02*
X-6309523Y11361429D01*
X-6309523Y11361429D02*
X-6404761Y11409048D01*
X-6404761Y11409048D02*
X-6595237Y11409048D01*
X-6595237Y11409048D02*
X-6690475Y11361429D01*
X-6690475Y11361429D02*
X-6738094Y11266191D01*
X-6738094Y11266191D02*
X-6738094Y11170953D01*
X-6738094Y11170953D02*
X-6261904Y11075715D01*
X-7595237Y10742381D02*
X-7595237Y11742381D01*
X-7595237Y10790000D02*
X-7499999Y10742381D01*
X-7499999Y10742381D02*
X-7309523Y10742381D01*
X-7309523Y10742381D02*
X-7214285Y10790000D01*
X-7214285Y10790000D02*
X-7166666Y10837620D01*
X-7166666Y10837620D02*
X-7119047Y10932858D01*
X-7119047Y10932858D02*
X-7119047Y11218572D01*
X-7119047Y11218572D02*
X-7166666Y11313810D01*
X-7166666Y11313810D02*
X-7214285Y11361429D01*
X-7214285Y11361429D02*
X-7309523Y11409048D01*
X-7309523Y11409048D02*
X-7499999Y11409048D01*
X-7499999Y11409048D02*
X-7595237Y11361429D01*
X-8499999Y10742381D02*
X-8499999Y11266191D01*
X-8499999Y11266191D02*
X-8452380Y11361429D01*
X-8452380Y11361429D02*
X-8357142Y11409048D01*
X-8357142Y11409048D02*
X-8166666Y11409048D01*
X-8166666Y11409048D02*
X-8071428Y11361429D01*
X-8499999Y10790000D02*
X-8404761Y10742381D01*
X-8404761Y10742381D02*
X-8166666Y10742381D01*
X-8166666Y10742381D02*
X-8071428Y10790000D01*
X-8071428Y10790000D02*
X-8023809Y10885239D01*
X-8023809Y10885239D02*
X-8023809Y10980477D01*
X-8023809Y10980477D02*
X-8071428Y11075715D01*
X-8071428Y11075715D02*
X-8166666Y11123334D01*
X-8166666Y11123334D02*
X-8404761Y11123334D01*
X-8404761Y11123334D02*
X-8499999Y11170953D01*
X-9119047Y10742381D02*
X-9023809Y10790000D01*
X-9023809Y10790000D02*
X-8976190Y10885239D01*
X-8976190Y10885239D02*
X-8976190Y11742381D01*
X-9500000Y10742381D02*
X-9500000Y11742381D01*
X-9500000Y11361429D02*
X-9595238Y11409048D01*
X-9595238Y11409048D02*
X-9785714Y11409048D01*
X-9785714Y11409048D02*
X-9880952Y11361429D01*
X-9880952Y11361429D02*
X-9928571Y11313810D01*
X-9928571Y11313810D02*
X-9976190Y11218572D01*
X-9976190Y11218572D02*
X-9976190Y10932858D01*
X-9976190Y10932858D02*
X-9928571Y10837620D01*
X-9928571Y10837620D02*
X-9880952Y10790000D01*
X-9880952Y10790000D02*
X-9785714Y10742381D01*
X-9785714Y10742381D02*
X-9595238Y10742381D01*
X-9595238Y10742381D02*
X-9500000Y10790000D01*
X-10547619Y10742381D02*
X-10452381Y10790000D01*
X-10452381Y10790000D02*
X-10404762Y10837620D01*
X-10404762Y10837620D02*
X-10357143Y10932858D01*
X-10357143Y10932858D02*
X-10357143Y11218572D01*
X-10357143Y11218572D02*
X-10404762Y11313810D01*
X-10404762Y11313810D02*
X-10452381Y11361429D01*
X-10452381Y11361429D02*
X-10547619Y11409048D01*
X-10547619Y11409048D02*
X-10690476Y11409048D01*
X-10690476Y11409048D02*
X-10785714Y11361429D01*
X-10785714Y11361429D02*
X-10833333Y11313810D01*
X-10833333Y11313810D02*
X-10880952Y11218572D01*
X-10880952Y11218572D02*
X-10880952Y10932858D01*
X-10880952Y10932858D02*
X-10833333Y10837620D01*
X-10833333Y10837620D02*
X-10785714Y10790000D01*
X-10785714Y10790000D02*
X-10690476Y10742381D01*
X-10690476Y10742381D02*
X-10547619Y10742381D01*
X-11738095Y10742381D02*
X-11738095Y11266191D01*
X-11738095Y11266191D02*
X-11690476Y11361429D01*
X-11690476Y11361429D02*
X-11595238Y11409048D01*
X-11595238Y11409048D02*
X-11404762Y11409048D01*
X-11404762Y11409048D02*
X-11309524Y11361429D01*
X-11738095Y10790000D02*
X-11642857Y10742381D01*
X-11642857Y10742381D02*
X-11404762Y10742381D01*
X-11404762Y10742381D02*
X-11309524Y10790000D01*
X-11309524Y10790000D02*
X-11261905Y10885239D01*
X-11261905Y10885239D02*
X-11261905Y10980477D01*
X-11261905Y10980477D02*
X-11309524Y11075715D01*
X-11309524Y11075715D02*
X-11404762Y11123334D01*
X-11404762Y11123334D02*
X-11642857Y11123334D01*
X-11642857Y11123334D02*
X-11738095Y11170953D01*
X-12214286Y10742381D02*
X-12214286Y11409048D01*
X-12214286Y11218572D02*
X-12261905Y11313810D01*
X-12261905Y11313810D02*
X-12309524Y11361429D01*
X-12309524Y11361429D02*
X-12404762Y11409048D01*
X-12404762Y11409048D02*
X-12500000Y11409048D01*
X-13261905Y10742381D02*
X-13261905Y11742381D01*
X-13261905Y10790000D02*
X-13166667Y10742381D01*
X-13166667Y10742381D02*
X-12976191Y10742381D01*
X-12976191Y10742381D02*
X-12880953Y10790000D01*
X-12880953Y10790000D02*
X-12833334Y10837620D01*
X-12833334Y10837620D02*
X-12785715Y10932858D01*
X-12785715Y10932858D02*
X-12785715Y11218572D01*
X-12785715Y11218572D02*
X-12833334Y11313810D01*
X-12833334Y11313810D02*
X-12880953Y11361429D01*
X-12880953Y11361429D02*
X-12976191Y11409048D01*
X-12976191Y11409048D02*
X-13166667Y11409048D01*
X-13166667Y11409048D02*
X-13261905Y11361429D01*
X-6023811Y9646191D02*
X-6166668Y9598572D01*
X-6166668Y9598572D02*
X-6214287Y9550953D01*
X-6214287Y9550953D02*
X-6261906Y9455715D01*
X-6261906Y9455715D02*
X-6261906Y9312858D01*
X-6261906Y9312858D02*
X-6214287Y9217620D01*
X-6214287Y9217620D02*
X-6166668Y9170000D01*
X-6166668Y9170000D02*
X-6071430Y9122381D01*
X-6071430Y9122381D02*
X-5690478Y9122381D01*
X-5690478Y9122381D02*
X-5690478Y10122381D01*
X-5690478Y10122381D02*
X-6023811Y10122381D01*
X-6023811Y10122381D02*
X-6119049Y10074762D01*
X-6119049Y10074762D02*
X-6166668Y10027143D01*
X-6166668Y10027143D02*
X-6214287Y9931905D01*
X-6214287Y9931905D02*
X-6214287Y9836667D01*
X-6214287Y9836667D02*
X-6166668Y9741429D01*
X-6166668Y9741429D02*
X-6119049Y9693810D01*
X-6119049Y9693810D02*
X-6023811Y9646191D01*
X-6023811Y9646191D02*
X-5690478Y9646191D01*
X-7261906Y9217620D02*
X-7214287Y9170000D01*
X-7214287Y9170000D02*
X-7071430Y9122381D01*
X-7071430Y9122381D02*
X-6976192Y9122381D01*
X-6976192Y9122381D02*
X-6833335Y9170000D01*
X-6833335Y9170000D02*
X-6738097Y9265239D01*
X-6738097Y9265239D02*
X-6690478Y9360477D01*
X-6690478Y9360477D02*
X-6642859Y9550953D01*
X-6642859Y9550953D02*
X-6642859Y9693810D01*
X-6642859Y9693810D02*
X-6690478Y9884286D01*
X-6690478Y9884286D02*
X-6738097Y9979524D01*
X-6738097Y9979524D02*
X-6833335Y10074762D01*
X-6833335Y10074762D02*
X-6976192Y10122381D01*
X-6976192Y10122381D02*
X-7071430Y10122381D01*
X-7071430Y10122381D02*
X-7214287Y10074762D01*
X-7214287Y10074762D02*
X-7261906Y10027143D01*
X-8023811Y9646191D02*
X-8166668Y9598572D01*
X-8166668Y9598572D02*
X-8214287Y9550953D01*
X-8214287Y9550953D02*
X-8261906Y9455715D01*
X-8261906Y9455715D02*
X-8261906Y9312858D01*
X-8261906Y9312858D02*
X-8214287Y9217620D01*
X-8214287Y9217620D02*
X-8166668Y9170000D01*
X-8166668Y9170000D02*
X-8071430Y9122381D01*
X-8071430Y9122381D02*
X-7690478Y9122381D01*
X-7690478Y9122381D02*
X-7690478Y10122381D01*
X-7690478Y10122381D02*
X-8023811Y10122381D01*
X-8023811Y10122381D02*
X-8119049Y10074762D01*
X-8119049Y10074762D02*
X-8166668Y10027143D01*
X-8166668Y10027143D02*
X-8214287Y9931905D01*
X-8214287Y9931905D02*
X-8214287Y9836667D01*
X-8214287Y9836667D02*
X-8166668Y9741429D01*
X-8166668Y9741429D02*
X-8119049Y9693810D01*
X-8119049Y9693810D02*
X-8023811Y9646191D01*
X-8023811Y9646191D02*
X-7690478Y9646191D01*
X-8690478Y9217620D02*
X-8738097Y9170000D01*
X-8738097Y9170000D02*
X-8690478Y9122381D01*
X-8690478Y9122381D02*
X-8642859Y9170000D01*
X-8642859Y9170000D02*
X-8690478Y9217620D01*
X-8690478Y9217620D02*
X-8690478Y9122381D01*
X-8690478Y9741429D02*
X-8738097Y9693810D01*
X-8738097Y9693810D02*
X-8690478Y9646191D01*
X-8690478Y9646191D02*
X-8642859Y9693810D01*
X-8642859Y9693810D02*
X-8690478Y9741429D01*
X-8690478Y9741429D02*
X-8690478Y9646191D01*
X-10452382Y9122381D02*
X-9880954Y9122381D01*
X-10166668Y9122381D02*
X-10166668Y10122381D01*
X-10166668Y10122381D02*
X-10071430Y9979524D01*
X-10071430Y9979524D02*
X-9976192Y9884286D01*
X-9976192Y9884286D02*
X-9880954Y9836667D01*
X-10880954Y9217620D02*
X-10928573Y9170000D01*
X-10928573Y9170000D02*
X-10880954Y9122381D01*
X-10880954Y9122381D02*
X-10833335Y9170000D01*
X-10833335Y9170000D02*
X-10880954Y9217620D01*
X-10880954Y9217620D02*
X-10880954Y9122381D01*
X-11547620Y10122381D02*
X-11642858Y10122381D01*
X-11642858Y10122381D02*
X-11738096Y10074762D01*
X-11738096Y10074762D02*
X-11785715Y10027143D01*
X-11785715Y10027143D02*
X-11833334Y9931905D01*
X-11833334Y9931905D02*
X-11880953Y9741429D01*
X-11880953Y9741429D02*
X-11880953Y9503334D01*
X-11880953Y9503334D02*
X-11833334Y9312858D01*
X-11833334Y9312858D02*
X-11785715Y9217620D01*
X-11785715Y9217620D02*
X-11738096Y9170000D01*
X-11738096Y9170000D02*
X-11642858Y9122381D01*
X-11642858Y9122381D02*
X-11547620Y9122381D01*
X-11547620Y9122381D02*
X-11452382Y9170000D01*
X-11452382Y9170000D02*
X-11404763Y9217620D01*
X-11404763Y9217620D02*
X-11357144Y9312858D01*
X-11357144Y9312858D02*
X-11309525Y9503334D01*
X-11309525Y9503334D02*
X-11309525Y9741429D01*
X-11309525Y9741429D02*
X-11357144Y9931905D01*
X-11357144Y9931905D02*
X-11404763Y10027143D01*
X-11404763Y10027143D02*
X-11452382Y10074762D01*
X-11452382Y10074762D02*
X-11547620Y10122381D01*
X-12309525Y9217620D02*
X-12357144Y9170000D01*
X-12357144Y9170000D02*
X-12309525Y9122381D01*
X-12309525Y9122381D02*
X-12261906Y9170000D01*
X-12261906Y9170000D02*
X-12309525Y9217620D01*
X-12309525Y9217620D02*
X-12309525Y9122381D01*
X-12976191Y10122381D02*
X-13071429Y10122381D01*
X-13071429Y10122381D02*
X-13166667Y10074762D01*
X-13166667Y10074762D02*
X-13214286Y10027143D01*
X-13214286Y10027143D02*
X-13261905Y9931905D01*
X-13261905Y9931905D02*
X-13309524Y9741429D01*
X-13309524Y9741429D02*
X-13309524Y9503334D01*
X-13309524Y9503334D02*
X-13261905Y9312858D01*
X-13261905Y9312858D02*
X-13214286Y9217620D01*
X-13214286Y9217620D02*
X-13166667Y9170000D01*
X-13166667Y9170000D02*
X-13071429Y9122381D01*
X-13071429Y9122381D02*
X-12976191Y9122381D01*
X-12976191Y9122381D02*
X-12880953Y9170000D01*
X-12880953Y9170000D02*
X-12833334Y9217620D01*
X-12833334Y9217620D02*
X-12785715Y9312858D01*
X-12785715Y9312858D02*
X-12738096Y9503334D01*
X-12738096Y9503334D02*
X-12738096Y9741429D01*
X-12738096Y9741429D02*
X-12785715Y9931905D01*
X-12785715Y9931905D02*
X-12833334Y10027143D01*
X-12833334Y10027143D02*
X-12880953Y10074762D01*
X-12880953Y10074762D02*
X-12976191Y10122381D01*
X10761904Y5537381D02*
X10761904Y4727858D01*
X10761904Y4727858D02*
X10714285Y4632620D01*
X10714285Y4632620D02*
X10666666Y4585000D01*
X10666666Y4585000D02*
X10571428Y4537381D01*
X10571428Y4537381D02*
X10380952Y4537381D01*
X10380952Y4537381D02*
X10285714Y4585000D01*
X10285714Y4585000D02*
X10238095Y4632620D01*
X10238095Y4632620D02*
X10190476Y4727858D01*
X10190476Y4727858D02*
X10190476Y5537381D01*
X9190476Y4537381D02*
X9761904Y4537381D01*
X9476190Y4537381D02*
X9476190Y5537381D01*
X9476190Y5537381D02*
X9571428Y5394524D01*
X9571428Y5394524D02*
X9666666Y5299286D01*
X9666666Y5299286D02*
X9761904Y5251667D01*
X8466666Y-5362619D02*
X8942856Y-5362619D01*
X8942856Y-5362619D02*
X8942856Y-4362619D01*
X7609523Y-5362619D02*
X8180951Y-5362619D01*
X7895237Y-5362619D02*
X7895237Y-4362619D01*
X7895237Y-4362619D02*
X7990475Y-4505476D01*
X7990475Y-4505476D02*
X8085713Y-4600714D01*
X8085713Y-4600714D02*
X8180951Y-4648333D01*
X12066666Y-1817380D02*
X12114285Y-1865000D01*
X12114285Y-1865000D02*
X12257142Y-1912619D01*
X12257142Y-1912619D02*
X12352380Y-1912619D01*
X12352380Y-1912619D02*
X12495237Y-1865000D01*
X12495237Y-1865000D02*
X12590475Y-1769761D01*
X12590475Y-1769761D02*
X12638094Y-1674523D01*
X12638094Y-1674523D02*
X12685713Y-1484047D01*
X12685713Y-1484047D02*
X12685713Y-1341190D01*
X12685713Y-1341190D02*
X12638094Y-1150714D01*
X12638094Y-1150714D02*
X12590475Y-1055476D01*
X12590475Y-1055476D02*
X12495237Y-960238D01*
X12495237Y-960238D02*
X12352380Y-912619D01*
X12352380Y-912619D02*
X12257142Y-912619D01*
X12257142Y-912619D02*
X12114285Y-960238D01*
X12114285Y-960238D02*
X12066666Y-1007857D01*
X11114285Y-1912619D02*
X11685713Y-1912619D01*
X11399999Y-1912619D02*
X11399999Y-912619D01*
X11399999Y-912619D02*
X11495237Y-1055476D01*
X11495237Y-1055476D02*
X11590475Y-1150714D01*
X11590475Y-1150714D02*
X11685713Y-1198333D01*
X21183333Y-11362619D02*
X21183333Y-12076904D01*
X21183333Y-12076904D02*
X21230952Y-12219761D01*
X21230952Y-12219761D02*
X21326190Y-12315000D01*
X21326190Y-12315000D02*
X21469047Y-12362619D01*
X21469047Y-12362619D02*
X21564285Y-12362619D01*
X20183333Y-12362619D02*
X20754761Y-12362619D01*
X20469047Y-12362619D02*
X20469047Y-11362619D01*
X20469047Y-11362619D02*
X20564285Y-11505476D01*
X20564285Y-11505476D02*
X20659523Y-11600714D01*
X20659523Y-11600714D02*
X20754761Y-11648333D01*
X3000702Y-12691666D02*
X2691178Y-12474999D01*
X3000702Y-12320237D02*
X2350702Y-12320237D01*
X2350702Y-12320237D02*
X2350702Y-12567856D01*
X2350702Y-12567856D02*
X2381654Y-12629761D01*
X2381654Y-12629761D02*
X2412607Y-12660714D01*
X2412607Y-12660714D02*
X2474511Y-12691666D01*
X2474511Y-12691666D02*
X2567369Y-12691666D01*
X2567369Y-12691666D02*
X2629273Y-12660714D01*
X2629273Y-12660714D02*
X2660226Y-12629761D01*
X2660226Y-12629761D02*
X2691178Y-12567856D01*
X2691178Y-12567856D02*
X2691178Y-12320237D01*
X2412607Y-12939285D02*
X2381654Y-12970237D01*
X2381654Y-12970237D02*
X2350702Y-13032142D01*
X2350702Y-13032142D02*
X2350702Y-13186904D01*
X2350702Y-13186904D02*
X2381654Y-13248809D01*
X2381654Y-13248809D02*
X2412607Y-13279761D01*
X2412607Y-13279761D02*
X2474511Y-13310714D01*
X2474511Y-13310714D02*
X2536416Y-13310714D01*
X2536416Y-13310714D02*
X2629273Y-13279761D01*
X2629273Y-13279761D02*
X3000702Y-12908333D01*
X3000702Y-12908333D02*
X3000702Y-13310714D01*
X21600702Y7008334D02*
X21291178Y7225001D01*
X21600702Y7379763D02*
X20950702Y7379763D01*
X20950702Y7379763D02*
X20950702Y7132144D01*
X20950702Y7132144D02*
X20981654Y7070239D01*
X20981654Y7070239D02*
X21012607Y7039286D01*
X21012607Y7039286D02*
X21074511Y7008334D01*
X21074511Y7008334D02*
X21167369Y7008334D01*
X21167369Y7008334D02*
X21229273Y7039286D01*
X21229273Y7039286D02*
X21260226Y7070239D01*
X21260226Y7070239D02*
X21291178Y7132144D01*
X21291178Y7132144D02*
X21291178Y7379763D01*
X21600702Y6389286D02*
X21600702Y6760715D01*
X21600702Y6575001D02*
X20950702Y6575001D01*
X20950702Y6575001D02*
X21043559Y6636905D01*
X21043559Y6636905D02*
X21105464Y6698810D01*
X21105464Y6698810D02*
X21136416Y6760715D01*
X8883333Y-13173833D02*
X8883333Y-13740500D01*
X8883333Y-13740500D02*
X8850000Y-13807166D01*
X8850000Y-13807166D02*
X8816666Y-13840500D01*
X8816666Y-13840500D02*
X8750000Y-13873833D01*
X8750000Y-13873833D02*
X8616666Y-13873833D01*
X8616666Y-13873833D02*
X8550000Y-13840500D01*
X8550000Y-13840500D02*
X8516666Y-13807166D01*
X8516666Y-13807166D02*
X8483333Y-13740500D01*
X8483333Y-13740500D02*
X8483333Y-13173833D01*
X8183333Y-13240500D02*
X8150000Y-13207166D01*
X8150000Y-13207166D02*
X8083333Y-13173833D01*
X8083333Y-13173833D02*
X7916667Y-13173833D01*
X7916667Y-13173833D02*
X7850000Y-13207166D01*
X7850000Y-13207166D02*
X7816667Y-13240500D01*
X7816667Y-13240500D02*
X7783333Y-13307166D01*
X7783333Y-13307166D02*
X7783333Y-13373833D01*
X7783333Y-13373833D02*
X7816667Y-13473833D01*
X7816667Y-13473833D02*
X8216667Y-13873833D01*
X8216667Y-13873833D02*
X7783333Y-13873833D01*
X16487380Y2666667D02*
X16535000Y2714286D01*
X16535000Y2714286D02*
X16582619Y2857143D01*
X16582619Y2857143D02*
X16582619Y2952381D01*
X16582619Y2952381D02*
X16535000Y3095238D01*
X16535000Y3095238D02*
X16439761Y3190476D01*
X16439761Y3190476D02*
X16344523Y3238095D01*
X16344523Y3238095D02*
X16154047Y3285714D01*
X16154047Y3285714D02*
X16011190Y3285714D01*
X16011190Y3285714D02*
X15820714Y3238095D01*
X15820714Y3238095D02*
X15725476Y3190476D01*
X15725476Y3190476D02*
X15630238Y3095238D01*
X15630238Y3095238D02*
X15582619Y2952381D01*
X15582619Y2952381D02*
X15582619Y2857143D01*
X15582619Y2857143D02*
X15630238Y2714286D01*
X15630238Y2714286D02*
X15677857Y2666667D01*
X15677857Y2285714D02*
X15630238Y2238095D01*
X15630238Y2238095D02*
X15582619Y2142857D01*
X15582619Y2142857D02*
X15582619Y1904762D01*
X15582619Y1904762D02*
X15630238Y1809524D01*
X15630238Y1809524D02*
X15677857Y1761905D01*
X15677857Y1761905D02*
X15773095Y1714286D01*
X15773095Y1714286D02*
X15868333Y1714286D01*
X15868333Y1714286D02*
X16011190Y1761905D01*
X16011190Y1761905D02*
X16582619Y2333333D01*
X16582619Y2333333D02*
X16582619Y1714286D01*
X3266666Y-7867380D02*
X3314285Y-7915000D01*
X3314285Y-7915000D02*
X3457142Y-7962619D01*
X3457142Y-7962619D02*
X3552380Y-7962619D01*
X3552380Y-7962619D02*
X3695237Y-7915000D01*
X3695237Y-7915000D02*
X3790475Y-7819761D01*
X3790475Y-7819761D02*
X3838094Y-7724523D01*
X3838094Y-7724523D02*
X3885713Y-7534047D01*
X3885713Y-7534047D02*
X3885713Y-7391190D01*
X3885713Y-7391190D02*
X3838094Y-7200714D01*
X3838094Y-7200714D02*
X3790475Y-7105476D01*
X3790475Y-7105476D02*
X3695237Y-7010238D01*
X3695237Y-7010238D02*
X3552380Y-6962619D01*
X3552380Y-6962619D02*
X3457142Y-6962619D01*
X3457142Y-6962619D02*
X3314285Y-7010238D01*
X3314285Y-7010238D02*
X3266666Y-7057857D01*
X2409523Y-7295952D02*
X2409523Y-7962619D01*
X2647618Y-6915000D02*
X2885713Y-7629285D01*
X2885713Y-7629285D02*
X2266666Y-7629285D01*
X12466666Y-13567380D02*
X12514285Y-13615000D01*
X12514285Y-13615000D02*
X12657142Y-13662619D01*
X12657142Y-13662619D02*
X12752380Y-13662619D01*
X12752380Y-13662619D02*
X12895237Y-13615000D01*
X12895237Y-13615000D02*
X12990475Y-13519761D01*
X12990475Y-13519761D02*
X13038094Y-13424523D01*
X13038094Y-13424523D02*
X13085713Y-13234047D01*
X13085713Y-13234047D02*
X13085713Y-13091190D01*
X13085713Y-13091190D02*
X13038094Y-12900714D01*
X13038094Y-12900714D02*
X12990475Y-12805476D01*
X12990475Y-12805476D02*
X12895237Y-12710238D01*
X12895237Y-12710238D02*
X12752380Y-12662619D01*
X12752380Y-12662619D02*
X12657142Y-12662619D01*
X12657142Y-12662619D02*
X12514285Y-12710238D01*
X12514285Y-12710238D02*
X12466666Y-12757857D01*
X12133332Y-12662619D02*
X11514285Y-12662619D01*
X11514285Y-12662619D02*
X11847618Y-13043571D01*
X11847618Y-13043571D02*
X11704761Y-13043571D01*
X11704761Y-13043571D02*
X11609523Y-13091190D01*
X11609523Y-13091190D02*
X11561904Y-13138809D01*
X11561904Y-13138809D02*
X11514285Y-13234047D01*
X11514285Y-13234047D02*
X11514285Y-13472142D01*
X11514285Y-13472142D02*
X11561904Y-13567380D01*
X11561904Y-13567380D02*
X11609523Y-13615000D01*
X11609523Y-13615000D02*
X11704761Y-13662619D01*
X11704761Y-13662619D02*
X11990475Y-13662619D01*
X11990475Y-13662619D02*
X12085713Y-13615000D01*
X12085713Y-13615000D02*
X12133332Y-13567380D01*
D12*
X14900000Y9760000D02*
X12950000Y9760000D01*
X14900000Y9760000D02*
X16850000Y9760000D01*
X14900000Y4640000D02*
X11450000Y4640000D01*
X14900000Y4640000D02*
X16850000Y4640000D01*
D13*
X6300000Y-8413500D02*
X9500000Y-8413500D01*
X9500000Y-5786500D02*
X6300000Y-5786500D01*
D12*
X11188748Y1310000D02*
X12611252Y1310000D01*
X11188748Y-510000D02*
X12611252Y-510000D01*
X20370000Y-5400000D02*
X20370000Y-10600000D01*
X19800000Y-5400000D02*
X20370000Y-5400000D01*
X17260000Y-5400000D02*
X18280000Y-5400000D01*
X14720000Y-5400000D02*
X15740000Y-5400000D01*
X12630000Y-5400000D02*
X13200000Y-5400000D01*
X12630000Y-5400000D02*
X12630000Y-10600000D01*
X19800000Y-10600000D02*
X20370000Y-10600000D01*
X17260000Y-10600000D02*
X18280000Y-10600000D01*
X14720000Y-10600000D02*
X15740000Y-10600000D01*
X13200000Y-10600000D02*
X13200000Y-11960000D01*
X12630000Y-10600000D02*
X13200000Y-10600000D01*
D11*
X3300000Y-11150000D02*
X3300000Y-12850000D01*
X4700000Y-12850000D02*
X4700000Y-11150000D01*
X20500000Y6550000D02*
X20500000Y8250000D01*
X19100000Y8250000D02*
X19100000Y6550000D01*
X7400000Y-13625000D02*
X5400000Y-13625000D01*
X6400000Y-10375000D02*
X5400000Y-10375000D01*
D12*
X18535000Y2761252D02*
X18535000Y2238748D01*
X17065000Y2761252D02*
X17065000Y2238748D01*
X3161252Y-10035000D02*
X2638748Y-10035000D01*
X3161252Y-8565000D02*
X2638748Y-8565000D01*
X9090000Y-11811252D02*
X9090000Y-10388748D01*
X10910000Y-11811252D02*
X10910000Y-10388748D01*
M02*
