G04 #@! TF.GenerationSoftware,KiCad,Pcbnew,7.0.5.1-1-g8f565ef7f0-dirty-deb11*
G04 #@! TF.CreationDate,2023-06-01T06:03:30+00:00*
G04 #@! TF.ProjectId,pedalboard-led-ring,70656461-6c62-46f6-9172-642d6c65642d,1.0.0*
G04 #@! TF.SameCoordinates,Original*
G04 #@! TF.FileFunction,Legend,Top*
G04 #@! TF.FilePolarity,Positive*
%FSLAX46Y46*%
G04 Gerber Fmt 4.6, Leading zero omitted, Abs format (unit mm)*
G04 Created by KiCad (PCBNEW 7.0.5.1-1-g8f565ef7f0-dirty-deb11) date 2023-06-01 06:03:30*
%MOMM*%
%LPD*%
G01*
G04 APERTURE LIST*
%ADD10C,0.150000*%
%ADD11C,0.075000*%
%ADD12C,0.100000*%
G04 APERTURE END LIST*
D10*
X5014516Y-6095036D02*
X5880541Y-5595036D01*
X5880541Y-5595036D02*
X5999589Y-5801232D01*
X5999589Y-5801232D02*
X6029778Y-5948760D01*
X6029778Y-5948760D02*
X5994918Y-6078857D01*
X5994918Y-6078857D02*
X5936249Y-6167716D01*
X5936249Y-6167716D02*
X5795102Y-6304193D01*
X5795102Y-6304193D02*
X5671384Y-6375622D01*
X5671384Y-6375622D02*
X5482617Y-6429620D01*
X5482617Y-6429620D02*
X5376329Y-6436000D01*
X5376329Y-6436000D02*
X5246231Y-6401141D01*
X5246231Y-6401141D02*
X5133563Y-6301232D01*
X5133563Y-6301232D02*
X5014516Y-6095036D01*
X5776421Y-7414693D02*
X5490706Y-6919822D01*
X5633563Y-7167258D02*
X6499589Y-6667258D01*
X6499589Y-6667258D02*
X6328252Y-6656208D01*
X6328252Y-6656208D02*
X6198154Y-6621348D01*
X6198154Y-6621348D02*
X6109296Y-6562679D01*
X6252611Y-8239480D02*
X5966897Y-7744608D01*
X6109754Y-7992044D02*
X6975779Y-7492044D01*
X6975779Y-7492044D02*
X6804442Y-7480994D01*
X6804442Y-7480994D02*
X6674345Y-7446134D01*
X6674345Y-7446134D02*
X6585486Y-7387465D01*
D11*
X4353253Y-6909829D02*
X4267539Y-6761368D01*
X4310396Y-6835598D02*
X4570204Y-6685598D01*
X4570204Y-6685598D02*
X4518803Y-6682283D01*
X4518803Y-6682283D02*
X4479773Y-6671826D01*
X4479773Y-6671826D02*
X4453116Y-6654225D01*
D10*
X8261905Y1295181D02*
X8261905Y2295181D01*
X8261905Y2295181D02*
X8500000Y2295181D01*
X8500000Y2295181D02*
X8642857Y2247562D01*
X8642857Y2247562D02*
X8738095Y2152324D01*
X8738095Y2152324D02*
X8785714Y2057086D01*
X8785714Y2057086D02*
X8833333Y1866610D01*
X8833333Y1866610D02*
X8833333Y1723753D01*
X8833333Y1723753D02*
X8785714Y1533277D01*
X8785714Y1533277D02*
X8738095Y1438039D01*
X8738095Y1438039D02*
X8642857Y1342800D01*
X8642857Y1342800D02*
X8500000Y1295181D01*
X8500000Y1295181D02*
X8261905Y1295181D01*
X9785714Y1295181D02*
X9214286Y1295181D01*
X9500000Y1295181D02*
X9500000Y2295181D01*
X9500000Y2295181D02*
X9404762Y2152324D01*
X9404762Y2152324D02*
X9309524Y2057086D01*
X9309524Y2057086D02*
X9214286Y2009467D01*
D11*
X8160714Y315115D02*
X7989285Y315115D01*
X8075000Y315115D02*
X8075000Y615115D01*
X8075000Y615115D02*
X8046428Y572258D01*
X8046428Y572258D02*
X8017857Y543686D01*
X8017857Y543686D02*
X7989285Y529400D01*
D10*
X-1295181Y8261906D02*
X-2295181Y8261906D01*
X-2295181Y8261906D02*
X-2295181Y8500001D01*
X-2295181Y8500001D02*
X-2247562Y8642858D01*
X-2247562Y8642858D02*
X-2152324Y8738096D01*
X-2152324Y8738096D02*
X-2057086Y8785715D01*
X-2057086Y8785715D02*
X-1866610Y8833334D01*
X-1866610Y8833334D02*
X-1723753Y8833334D01*
X-1723753Y8833334D02*
X-1533277Y8785715D01*
X-1533277Y8785715D02*
X-1438039Y8738096D01*
X-1438039Y8738096D02*
X-1342800Y8642858D01*
X-1342800Y8642858D02*
X-1295181Y8500001D01*
X-1295181Y8500001D02*
X-1295181Y8261906D01*
X-1961848Y9690477D02*
X-1295181Y9690477D01*
X-2342800Y9452382D02*
X-1628515Y9214287D01*
X-1628515Y9214287D02*
X-1628515Y9833334D01*
D11*
X-315115Y8160715D02*
X-315115Y7989286D01*
X-315115Y8075001D02*
X-615115Y8075001D01*
X-615115Y8075001D02*
X-572258Y8046429D01*
X-572258Y8046429D02*
X-543686Y8017858D01*
X-543686Y8017858D02*
X-529400Y7989286D01*
D10*
X7390217Y-2771197D02*
X7890217Y-1905172D01*
X7890217Y-1905172D02*
X8096413Y-2024220D01*
X8096413Y-2024220D02*
X8196322Y-2136888D01*
X8196322Y-2136888D02*
X8231181Y-2266985D01*
X8231181Y-2266985D02*
X8224801Y-2373273D01*
X8224801Y-2373273D02*
X8170803Y-2562040D01*
X8170803Y-2562040D02*
X8099374Y-2685758D01*
X8099374Y-2685758D02*
X7962897Y-2826906D01*
X7962897Y-2826906D02*
X7874038Y-2885575D01*
X7874038Y-2885575D02*
X7743941Y-2920434D01*
X7743941Y-2920434D02*
X7596413Y-2890245D01*
X7596413Y-2890245D02*
X7390217Y-2771197D01*
X8709874Y-3533102D02*
X8215003Y-3247388D01*
X8462439Y-3390245D02*
X8962439Y-2524220D01*
X8962439Y-2524220D02*
X8808531Y-2600319D01*
X8808531Y-2600319D02*
X8678434Y-2635178D01*
X8678434Y-2635178D02*
X8572146Y-2628798D01*
X9492170Y-2940032D02*
X9557219Y-2922602D01*
X9557219Y-2922602D02*
X9663507Y-2928982D01*
X9663507Y-2928982D02*
X9869703Y-3048029D01*
X9869703Y-3048029D02*
X9928372Y-3136888D01*
X9928372Y-3136888D02*
X9945802Y-3201936D01*
X9945802Y-3201936D02*
X9939422Y-3308225D01*
X9939422Y-3308225D02*
X9891803Y-3390703D01*
X9891803Y-3390703D02*
X9779136Y-3490612D01*
X9779136Y-3490612D02*
X8998550Y-3699769D01*
X8998550Y-3699769D02*
X9534661Y-4009293D01*
D11*
X7224944Y-3807460D02*
X7076482Y-3721746D01*
X7150713Y-3764603D02*
X7300713Y-3504795D01*
X7300713Y-3504795D02*
X7254541Y-3527625D01*
X7254541Y-3527625D02*
X7215511Y-3538083D01*
X7215511Y-3538083D02*
X7183625Y-3536169D01*
D10*
X-7331029Y-6778476D02*
X-7831029Y-5912450D01*
X-7831029Y-5912450D02*
X-7624832Y-5793403D01*
X-7624832Y-5793403D02*
X-7477305Y-5763213D01*
X-7477305Y-5763213D02*
X-7347207Y-5798073D01*
X-7347207Y-5798073D02*
X-7258349Y-5856742D01*
X-7258349Y-5856742D02*
X-7121871Y-5997890D01*
X-7121871Y-5997890D02*
X-7050443Y-6121608D01*
X-7050443Y-6121608D02*
X-6996444Y-6310374D01*
X-6996444Y-6310374D02*
X-6990064Y-6416663D01*
X-6990064Y-6416663D02*
X-7024924Y-6546760D01*
X-7024924Y-6546760D02*
X-7124832Y-6659428D01*
X-7124832Y-6659428D02*
X-7331029Y-6778476D01*
X-6627000Y-5712175D02*
X-6733288Y-5718555D01*
X-6733288Y-5718555D02*
X-6798337Y-5701125D01*
X-6798337Y-5701125D02*
X-6887195Y-5642456D01*
X-6887195Y-5642456D02*
X-6911005Y-5601217D01*
X-6911005Y-5601217D02*
X-6917384Y-5494929D01*
X-6917384Y-5494929D02*
X-6899955Y-5429880D01*
X-6899955Y-5429880D02*
X-6841285Y-5341022D01*
X-6841285Y-5341022D02*
X-6676328Y-5245784D01*
X-6676328Y-5245784D02*
X-6570040Y-5239404D01*
X-6570040Y-5239404D02*
X-6504991Y-5256834D01*
X-6504991Y-5256834D02*
X-6416133Y-5315503D01*
X-6416133Y-5315503D02*
X-6392323Y-5356742D01*
X-6392323Y-5356742D02*
X-6385944Y-5463030D01*
X-6385944Y-5463030D02*
X-6403373Y-5528079D01*
X-6403373Y-5528079D02*
X-6462043Y-5616937D01*
X-6462043Y-5616937D02*
X-6627000Y-5712175D01*
X-6627000Y-5712175D02*
X-6685669Y-5801034D01*
X-6685669Y-5801034D02*
X-6703099Y-5866083D01*
X-6703099Y-5866083D02*
X-6696719Y-5972371D01*
X-6696719Y-5972371D02*
X-6601481Y-6137328D01*
X-6601481Y-6137328D02*
X-6512622Y-6195997D01*
X-6512622Y-6195997D02*
X-6447574Y-6213427D01*
X-6447574Y-6213427D02*
X-6341285Y-6207047D01*
X-6341285Y-6207047D02*
X-6176328Y-6111809D01*
X-6176328Y-6111809D02*
X-6117659Y-6022951D01*
X-6117659Y-6022951D02*
X-6100229Y-5957902D01*
X-6100229Y-5957902D02*
X-6106609Y-5851614D01*
X-6106609Y-5851614D02*
X-6201847Y-5686657D01*
X-6201847Y-5686657D02*
X-6290706Y-5627987D01*
X-6290706Y-5627987D02*
X-6355754Y-5610558D01*
X-6355754Y-5610558D02*
X-6462043Y-5616937D01*
D11*
X-6626483Y-4501168D02*
X-6774944Y-4586882D01*
X-6700714Y-4544025D02*
X-6850714Y-4284217D01*
X-6850714Y-4284217D02*
X-6854029Y-4335618D01*
X-6854029Y-4335618D02*
X-6864486Y-4374648D01*
X-6864486Y-4374648D02*
X-6882087Y-4401305D01*
D10*
X2204819Y-10214285D02*
X1204819Y-10214285D01*
X1204819Y-10214285D02*
X1204819Y-9976190D01*
X1204819Y-9976190D02*
X1252438Y-9833333D01*
X1252438Y-9833333D02*
X1347676Y-9738095D01*
X1347676Y-9738095D02*
X1442914Y-9690476D01*
X1442914Y-9690476D02*
X1633390Y-9642857D01*
X1633390Y-9642857D02*
X1776247Y-9642857D01*
X1776247Y-9642857D02*
X1966723Y-9690476D01*
X1966723Y-9690476D02*
X2061961Y-9738095D01*
X2061961Y-9738095D02*
X2157200Y-9833333D01*
X2157200Y-9833333D02*
X2204819Y-9976190D01*
X2204819Y-9976190D02*
X2204819Y-10214285D01*
X2204819Y-8690476D02*
X2204819Y-9261904D01*
X2204819Y-8976190D02*
X1204819Y-8976190D01*
X1204819Y-8976190D02*
X1347676Y-9071428D01*
X1347676Y-9071428D02*
X1442914Y-9166666D01*
X1442914Y-9166666D02*
X1490533Y-9261904D01*
X1204819Y-8071428D02*
X1204819Y-7976190D01*
X1204819Y-7976190D02*
X1252438Y-7880952D01*
X1252438Y-7880952D02*
X1300057Y-7833333D01*
X1300057Y-7833333D02*
X1395295Y-7785714D01*
X1395295Y-7785714D02*
X1585771Y-7738095D01*
X1585771Y-7738095D02*
X1823866Y-7738095D01*
X1823866Y-7738095D02*
X2014342Y-7785714D01*
X2014342Y-7785714D02*
X2109580Y-7833333D01*
X2109580Y-7833333D02*
X2157200Y-7880952D01*
X2157200Y-7880952D02*
X2204819Y-7976190D01*
X2204819Y-7976190D02*
X2204819Y-8071428D01*
X2204819Y-8071428D02*
X2157200Y-8166666D01*
X2157200Y-8166666D02*
X2109580Y-8214285D01*
X2109580Y-8214285D02*
X2014342Y-8261904D01*
X2014342Y-8261904D02*
X1823866Y-8309523D01*
X1823866Y-8309523D02*
X1585771Y-8309523D01*
X1585771Y-8309523D02*
X1395295Y-8261904D01*
X1395295Y-8261904D02*
X1300057Y-8214285D01*
X1300057Y-8214285D02*
X1252438Y-8166666D01*
X1252438Y-8166666D02*
X1204819Y-8071428D01*
D11*
X584885Y-7989285D02*
X584885Y-8160714D01*
X584885Y-8074999D02*
X284885Y-8074999D01*
X284885Y-8074999D02*
X327742Y-8103571D01*
X327742Y-8103571D02*
X356314Y-8132142D01*
X356314Y-8132142D02*
X370600Y-8160714D01*
D10*
X-9738095Y-2204819D02*
X-9738095Y-1204819D01*
X-9738095Y-1204819D02*
X-9500000Y-1204819D01*
X-9500000Y-1204819D02*
X-9357143Y-1252438D01*
X-9357143Y-1252438D02*
X-9261905Y-1347676D01*
X-9261905Y-1347676D02*
X-9214286Y-1442914D01*
X-9214286Y-1442914D02*
X-9166667Y-1633390D01*
X-9166667Y-1633390D02*
X-9166667Y-1776247D01*
X-9166667Y-1776247D02*
X-9214286Y-1966723D01*
X-9214286Y-1966723D02*
X-9261905Y-2061961D01*
X-9261905Y-2061961D02*
X-9357143Y-2157200D01*
X-9357143Y-2157200D02*
X-9500000Y-2204819D01*
X-9500000Y-2204819D02*
X-9738095Y-2204819D01*
X-8833333Y-1204819D02*
X-8166667Y-1204819D01*
X-8166667Y-1204819D02*
X-8595238Y-2204819D01*
D11*
X-7989286Y-584885D02*
X-8160715Y-584885D01*
X-8075000Y-584885D02*
X-8075000Y-284885D01*
X-8075000Y-284885D02*
X-8103572Y-327742D01*
X-8103572Y-327742D02*
X-8132143Y-356314D01*
X-8132143Y-356314D02*
X-8160715Y-370600D01*
D10*
X-9535848Y2959619D02*
X-9035848Y3825644D01*
X-9035848Y3825644D02*
X-8829651Y3706597D01*
X-8829651Y3706597D02*
X-8729743Y3593929D01*
X-8729743Y3593929D02*
X-8694883Y3463831D01*
X-8694883Y3463831D02*
X-8701263Y3357543D01*
X-8701263Y3357543D02*
X-8755262Y3168776D01*
X-8755262Y3168776D02*
X-8826690Y3045058D01*
X-8826690Y3045058D02*
X-8963168Y2903911D01*
X-8963168Y2903911D02*
X-9052026Y2845242D01*
X-9052026Y2845242D02*
X-9182124Y2810382D01*
X-9182124Y2810382D02*
X-9329651Y2840571D01*
X-9329651Y2840571D02*
X-9535848Y2959619D01*
X-7798669Y3111359D02*
X-7963626Y3206597D01*
X-7963626Y3206597D02*
X-8069914Y3212977D01*
X-8069914Y3212977D02*
X-8134963Y3195547D01*
X-8134963Y3195547D02*
X-8288870Y3119448D01*
X-8288870Y3119448D02*
X-8425347Y2978300D01*
X-8425347Y2978300D02*
X-8615824Y2648386D01*
X-8615824Y2648386D02*
X-8622203Y2542098D01*
X-8622203Y2542098D02*
X-8604774Y2477049D01*
X-8604774Y2477049D02*
X-8546105Y2388190D01*
X-8546105Y2388190D02*
X-8381147Y2292952D01*
X-8381147Y2292952D02*
X-8274859Y2286573D01*
X-8274859Y2286573D02*
X-8209810Y2304002D01*
X-8209810Y2304002D02*
X-8120952Y2362671D01*
X-8120952Y2362671D02*
X-8001904Y2568868D01*
X-8001904Y2568868D02*
X-7995525Y2675156D01*
X-7995525Y2675156D02*
X-8012954Y2740205D01*
X-8012954Y2740205D02*
X-8071623Y2829063D01*
X-8071623Y2829063D02*
X-8236581Y2924301D01*
X-8236581Y2924301D02*
X-8342869Y2930681D01*
X-8342869Y2930681D02*
X-8407918Y2913251D01*
X-8407918Y2913251D02*
X-8496776Y2854582D01*
D11*
X-7211368Y3488118D02*
X-7359830Y3573832D01*
X-7285599Y3530975D02*
X-7135599Y3790783D01*
X-7135599Y3790783D02*
X-7181771Y3767953D01*
X-7181771Y3767953D02*
X-7220801Y3757495D01*
X-7220801Y3757495D02*
X-7252687Y3759409D01*
D10*
X6507429Y5252612D02*
X6007429Y6118638D01*
X6007429Y6118638D02*
X6213626Y6237685D01*
X6213626Y6237685D02*
X6361153Y6267875D01*
X6361153Y6267875D02*
X6491251Y6233015D01*
X6491251Y6233015D02*
X6580109Y6174346D01*
X6580109Y6174346D02*
X6716587Y6033198D01*
X6716587Y6033198D02*
X6788015Y5909480D01*
X6788015Y5909480D02*
X6842014Y5720714D01*
X6842014Y5720714D02*
X6848394Y5614425D01*
X6848394Y5614425D02*
X6813534Y5484328D01*
X6813534Y5484328D02*
X6713626Y5371660D01*
X6713626Y5371660D02*
X6507429Y5252612D01*
X6879834Y6512350D02*
X6897264Y6577398D01*
X6897264Y6577398D02*
X6955933Y6666257D01*
X6955933Y6666257D02*
X7162130Y6785304D01*
X7162130Y6785304D02*
X7268418Y6791684D01*
X7268418Y6791684D02*
X7333467Y6774254D01*
X7333467Y6774254D02*
X7422325Y6715585D01*
X7422325Y6715585D02*
X7469944Y6633107D01*
X7469944Y6633107D02*
X7500133Y6485579D01*
X7500133Y6485579D02*
X7290976Y5704993D01*
X7290976Y5704993D02*
X7827087Y6014517D01*
D11*
X6909829Y4353254D02*
X6761368Y4267540D01*
X6835598Y4310397D02*
X6685598Y4570205D01*
X6685598Y4570205D02*
X6682283Y4518804D01*
X6682283Y4518804D02*
X6671826Y4479774D01*
X6671826Y4479774D02*
X6654225Y4453117D01*
D10*
X-6778477Y7331029D02*
X-5912451Y7831029D01*
X-5912451Y7831029D02*
X-5793404Y7624832D01*
X-5793404Y7624832D02*
X-5763214Y7477305D01*
X-5763214Y7477305D02*
X-5798074Y7347207D01*
X-5798074Y7347207D02*
X-5856743Y7258349D01*
X-5856743Y7258349D02*
X-5997891Y7121871D01*
X-5997891Y7121871D02*
X-6121609Y7050443D01*
X-6121609Y7050443D02*
X-6310375Y6996444D01*
X-6310375Y6996444D02*
X-6416664Y6990064D01*
X-6416664Y6990064D02*
X-6546761Y7024924D01*
X-6546761Y7024924D02*
X-6659429Y7124832D01*
X-6659429Y7124832D02*
X-6778477Y7331029D01*
X-5174356Y6552610D02*
X-5412451Y6965003D01*
X-5412451Y6965003D02*
X-5848654Y6768147D01*
X-5848654Y6768147D02*
X-5783605Y6750718D01*
X-5783605Y6750718D02*
X-5694747Y6692049D01*
X-5694747Y6692049D02*
X-5575699Y6485852D01*
X-5575699Y6485852D02*
X-5569319Y6379564D01*
X-5569319Y6379564D02*
X-5586749Y6314515D01*
X-5586749Y6314515D02*
X-5645418Y6225657D01*
X-5645418Y6225657D02*
X-5851615Y6106609D01*
X-5851615Y6106609D02*
X-5957903Y6100229D01*
X-5957903Y6100229D02*
X-6022952Y6117659D01*
X-6022952Y6117659D02*
X-6111810Y6176328D01*
X-6111810Y6176328D02*
X-6230858Y6382525D01*
X-6230858Y6382525D02*
X-6237237Y6488813D01*
X-6237237Y6488813D02*
X-6219808Y6553862D01*
D11*
X-4501169Y6626483D02*
X-4586883Y6774944D01*
X-4544026Y6700714D02*
X-4284218Y6850714D01*
X-4284218Y6850714D02*
X-4335619Y6854029D01*
X-4335619Y6854029D02*
X-4374649Y6864486D01*
X-4374649Y6864486D02*
X-4401306Y6882087D01*
D10*
X-2959619Y-9535847D02*
X-3825644Y-9035847D01*
X-3825644Y-9035847D02*
X-3706597Y-8829650D01*
X-3706597Y-8829650D02*
X-3593929Y-8729742D01*
X-3593929Y-8729742D02*
X-3463831Y-8694882D01*
X-3463831Y-8694882D02*
X-3357543Y-8701262D01*
X-3357543Y-8701262D02*
X-3168776Y-8755261D01*
X-3168776Y-8755261D02*
X-3045058Y-8826689D01*
X-3045058Y-8826689D02*
X-2903911Y-8963167D01*
X-2903911Y-8963167D02*
X-2845242Y-9052025D01*
X-2845242Y-9052025D02*
X-2810382Y-9182123D01*
X-2810382Y-9182123D02*
X-2840571Y-9329650D01*
X-2840571Y-9329650D02*
X-2959619Y-9535847D01*
X-2435810Y-8628582D02*
X-2340571Y-8463625D01*
X-2340571Y-8463625D02*
X-2334192Y-8357337D01*
X-2334192Y-8357337D02*
X-2351621Y-8292288D01*
X-2351621Y-8292288D02*
X-2427720Y-8138381D01*
X-2427720Y-8138381D02*
X-2568868Y-8001903D01*
X-2568868Y-8001903D02*
X-2898782Y-7811427D01*
X-2898782Y-7811427D02*
X-3005071Y-7805047D01*
X-3005071Y-7805047D02*
X-3070119Y-7822477D01*
X-3070119Y-7822477D02*
X-3158978Y-7881146D01*
X-3158978Y-7881146D02*
X-3254216Y-8046104D01*
X-3254216Y-8046104D02*
X-3260596Y-8152392D01*
X-3260596Y-8152392D02*
X-3243166Y-8217440D01*
X-3243166Y-8217440D02*
X-3184497Y-8306299D01*
X-3184497Y-8306299D02*
X-2978300Y-8425346D01*
X-2978300Y-8425346D02*
X-2872012Y-8431726D01*
X-2872012Y-8431726D02*
X-2806963Y-8414296D01*
X-2806963Y-8414296D02*
X-2718105Y-8355627D01*
X-2718105Y-8355627D02*
X-2622867Y-8190670D01*
X-2622867Y-8190670D02*
X-2616487Y-8084382D01*
X-2616487Y-8084382D02*
X-2633917Y-8019333D01*
X-2633917Y-8019333D02*
X-2692586Y-7930475D01*
D11*
X-3488118Y-7211367D02*
X-3573832Y-7359829D01*
X-3530975Y-7285598D02*
X-3790783Y-7135598D01*
X-3790783Y-7135598D02*
X-3767953Y-7181770D01*
X-3767953Y-7181770D02*
X-3757495Y-7220800D01*
X-3757495Y-7220800D02*
X-3759409Y-7252686D01*
D10*
X3009293Y7802611D02*
X2143268Y8302611D01*
X2143268Y8302611D02*
X2262315Y8508808D01*
X2262315Y8508808D02*
X2374983Y8608716D01*
X2374983Y8608716D02*
X2505081Y8643576D01*
X2505081Y8643576D02*
X2611369Y8637196D01*
X2611369Y8637196D02*
X2800136Y8583197D01*
X2800136Y8583197D02*
X2923854Y8511769D01*
X2923854Y8511769D02*
X3065001Y8375291D01*
X3065001Y8375291D02*
X3123670Y8286433D01*
X3123670Y8286433D02*
X3158530Y8156335D01*
X3158530Y8156335D02*
X3128341Y8008808D01*
X3128341Y8008808D02*
X3009293Y7802611D01*
X2595649Y9086158D02*
X2905172Y9622269D01*
X2905172Y9622269D02*
X3068420Y9143118D01*
X3068420Y9143118D02*
X3139849Y9266836D01*
X3139849Y9266836D02*
X3228707Y9325505D01*
X3228707Y9325505D02*
X3293756Y9342934D01*
X3293756Y9342934D02*
X3400044Y9336555D01*
X3400044Y9336555D02*
X3606241Y9217507D01*
X3606241Y9217507D02*
X3664910Y9128649D01*
X3664910Y9128649D02*
X3682339Y9063600D01*
X3682339Y9063600D02*
X3675960Y8957312D01*
X3675960Y8957312D02*
X3533102Y8709876D01*
X3533102Y8709876D02*
X3444244Y8651207D01*
X3444244Y8651207D02*
X3379195Y8633777D01*
D11*
X3807460Y7224945D02*
X3721746Y7076483D01*
X3764603Y7150714D02*
X3504795Y7300714D01*
X3504795Y7300714D02*
X3527625Y7254542D01*
X3527625Y7254542D02*
X3538083Y7215512D01*
X3538083Y7215512D02*
X3536169Y7183626D01*
D12*
X5661122Y-8105351D02*
X5336122Y-7542434D01*
X5098205Y-8430351D02*
X5661122Y-8105351D01*
X9850000Y850000D02*
X9200000Y850000D01*
X9850000Y200000D02*
X9850000Y850000D01*
X-850000Y9850000D02*
X-850000Y9200000D01*
X-200000Y9850000D02*
X-850000Y9850000D01*
X8955351Y-4188878D02*
X8392434Y-3863878D01*
X8630351Y-4751795D02*
X8955351Y-4188878D01*
X-8105351Y-5661122D02*
X-7542434Y-5336122D01*
X-8430351Y-5098205D02*
X-8105351Y-5661122D01*
X850000Y-9850000D02*
X850000Y-9200000D01*
X200000Y-9850000D02*
X850000Y-9850000D01*
X-9850000Y-850000D02*
X-9200000Y-850000D01*
X-9850000Y-200000D02*
X-9850000Y-850000D01*
X-8955351Y4188878D02*
X-8392434Y3863878D01*
X-8630351Y4751795D02*
X-8955351Y4188878D01*
X8105351Y5661122D02*
X7542434Y5336122D01*
X8430351Y5098205D02*
X8105351Y5661122D01*
X-5661122Y8105351D02*
X-5336122Y7542434D01*
X-5098205Y8430351D02*
X-5661122Y8105351D01*
X-4188878Y-8955351D02*
X-3863878Y-8392434D01*
X-4751795Y-8630351D02*
X-4188878Y-8955351D01*
X4188878Y8955351D02*
X3863878Y8392434D01*
X4751795Y8630351D02*
X4188878Y8955351D01*
M02*
