G04 #@! TF.GenerationSoftware,KiCad,Pcbnew,7.0.2.1-36-g582732918d-dirty-deb11*
G04 #@! TF.CreationDate,2023-05-22T19:38:29+00:00*
G04 #@! TF.ProjectId,pedalboard-led-ring,70656461-6c62-46f6-9172-642d6c65642d,rev?*
G04 #@! TF.SameCoordinates,Original*
G04 #@! TF.FileFunction,Legend,Top*
G04 #@! TF.FilePolarity,Positive*
%FSLAX46Y46*%
G04 Gerber Fmt 4.6, Leading zero omitted, Abs format (unit mm)*
G04 Created by KiCad (PCBNEW 7.0.2.1-36-g582732918d-dirty-deb11) date 2023-05-22 19:38:29*
%MOMM*%
%LPD*%
G01*
G04 APERTURE LIST*
%ADD10C,0.050000*%
%ADD11C,0.120000*%
G04 APERTURE END LIST*
D10*
X9557976Y2550489D02*
X9990989Y2800489D01*
X9990989Y2800489D02*
X10050512Y2697391D01*
X10050512Y2697391D02*
X10065607Y2623627D01*
X10065607Y2623627D02*
X10048177Y2558578D01*
X10048177Y2558578D02*
X10018843Y2514149D01*
X10018843Y2514149D02*
X9948269Y2445910D01*
X9948269Y2445910D02*
X9886410Y2410196D01*
X9886410Y2410196D02*
X9792027Y2383197D01*
X9792027Y2383197D02*
X9738882Y2380007D01*
X9738882Y2380007D02*
X9673834Y2397437D01*
X9673834Y2397437D02*
X9617500Y2447391D01*
X9617500Y2447391D02*
X9557976Y2550489D01*
X10348131Y2181900D02*
X10300512Y2264378D01*
X10300512Y2264378D02*
X10256083Y2293713D01*
X10256083Y2293713D02*
X10223559Y2302428D01*
X10223559Y2302428D02*
X10137890Y2307953D01*
X10137890Y2307953D02*
X10043507Y2280953D01*
X10043507Y2280953D02*
X9878550Y2185715D01*
X9878550Y2185715D02*
X9849215Y2141286D01*
X9849215Y2141286D02*
X9840500Y2108762D01*
X9840500Y2108762D02*
X9843690Y2055617D01*
X9843690Y2055617D02*
X9891309Y1973139D01*
X9891309Y1973139D02*
X9935738Y1943804D01*
X9935738Y1943804D02*
X9968263Y1935089D01*
X9968263Y1935089D02*
X10021407Y1938279D01*
X10021407Y1938279D02*
X10124505Y1997803D01*
X10124505Y1997803D02*
X10153840Y2042232D01*
X10153840Y2042232D02*
X10162555Y2074757D01*
X10162555Y2074757D02*
X10159365Y2127901D01*
X10159365Y2127901D02*
X10111746Y2210379D01*
X10111746Y2210379D02*
X10067316Y2239714D01*
X10067316Y2239714D02*
X10034792Y2248429D01*
X10034792Y2248429D02*
X9981648Y2245239D01*
X-2769048Y-10031309D02*
X-2769048Y-9531309D01*
X-2769048Y-9531309D02*
X-2650000Y-9531309D01*
X-2650000Y-9531309D02*
X-2578572Y-9555119D01*
X-2578572Y-9555119D02*
X-2530953Y-9602738D01*
X-2530953Y-9602738D02*
X-2507143Y-9650357D01*
X-2507143Y-9650357D02*
X-2483334Y-9745595D01*
X-2483334Y-9745595D02*
X-2483334Y-9817023D01*
X-2483334Y-9817023D02*
X-2507143Y-9912261D01*
X-2507143Y-9912261D02*
X-2530953Y-9959880D01*
X-2530953Y-9959880D02*
X-2578572Y-10007500D01*
X-2578572Y-10007500D02*
X-2650000Y-10031309D01*
X-2650000Y-10031309D02*
X-2769048Y-10031309D01*
X-2292857Y-9578928D02*
X-2269048Y-9555119D01*
X-2269048Y-9555119D02*
X-2221429Y-9531309D01*
X-2221429Y-9531309D02*
X-2102381Y-9531309D01*
X-2102381Y-9531309D02*
X-2054762Y-9555119D01*
X-2054762Y-9555119D02*
X-2030953Y-9578928D01*
X-2030953Y-9578928D02*
X-2007143Y-9626547D01*
X-2007143Y-9626547D02*
X-2007143Y-9674166D01*
X-2007143Y-9674166D02*
X-2030953Y-9745595D01*
X-2030953Y-9745595D02*
X-2316667Y-10031309D01*
X-2316667Y-10031309D02*
X-2007143Y-10031309D01*
X1840952Y9453691D02*
X1840952Y9953691D01*
X1840952Y9953691D02*
X1960000Y9953691D01*
X1960000Y9953691D02*
X2031428Y9929881D01*
X2031428Y9929881D02*
X2079047Y9882262D01*
X2079047Y9882262D02*
X2102857Y9834643D01*
X2102857Y9834643D02*
X2126666Y9739405D01*
X2126666Y9739405D02*
X2126666Y9667977D01*
X2126666Y9667977D02*
X2102857Y9572739D01*
X2102857Y9572739D02*
X2079047Y9525120D01*
X2079047Y9525120D02*
X2031428Y9477500D01*
X2031428Y9477500D02*
X1960000Y9453691D01*
X1960000Y9453691D02*
X1840952Y9453691D01*
X2579047Y9953691D02*
X2340952Y9953691D01*
X2340952Y9953691D02*
X2317143Y9715596D01*
X2317143Y9715596D02*
X2340952Y9739405D01*
X2340952Y9739405D02*
X2388571Y9763215D01*
X2388571Y9763215D02*
X2507619Y9763215D01*
X2507619Y9763215D02*
X2555238Y9739405D01*
X2555238Y9739405D02*
X2579047Y9715596D01*
X2579047Y9715596D02*
X2602857Y9667977D01*
X2602857Y9667977D02*
X2602857Y9548929D01*
X2602857Y9548929D02*
X2579047Y9501310D01*
X2579047Y9501310D02*
X2555238Y9477500D01*
X2555238Y9477500D02*
X2507619Y9453691D01*
X2507619Y9453691D02*
X2388571Y9453691D01*
X2388571Y9453691D02*
X2340952Y9477500D01*
X2340952Y9477500D02*
X2317143Y9501310D01*
X-10327664Y-2142589D02*
X-9894651Y-1892589D01*
X-9894651Y-1892589D02*
X-9835128Y-1995687D01*
X-9835128Y-1995687D02*
X-9820033Y-2069451D01*
X-9820033Y-2069451D02*
X-9837463Y-2134500D01*
X-9837463Y-2134500D02*
X-9866797Y-2178929D01*
X-9866797Y-2178929D02*
X-9937371Y-2247168D01*
X-9937371Y-2247168D02*
X-9999230Y-2282882D01*
X-9999230Y-2282882D02*
X-10093613Y-2309881D01*
X-10093613Y-2309881D02*
X-10146758Y-2313071D01*
X-10146758Y-2313071D02*
X-10211806Y-2295641D01*
X-10211806Y-2295641D02*
X-10268140Y-2245687D01*
X-10268140Y-2245687D02*
X-10327664Y-2142589D01*
X-9668461Y-2284362D02*
X-9513699Y-2552418D01*
X-9513699Y-2552418D02*
X-9761990Y-2503318D01*
X-9761990Y-2503318D02*
X-9726275Y-2565177D01*
X-9726275Y-2565177D02*
X-9723085Y-2618321D01*
X-9723085Y-2618321D02*
X-9731800Y-2650846D01*
X-9731800Y-2650846D02*
X-9761135Y-2695275D01*
X-9761135Y-2695275D02*
X-9864233Y-2754799D01*
X-9864233Y-2754799D02*
X-9917377Y-2757989D01*
X-9917377Y-2757989D02*
X-9949902Y-2749274D01*
X-9949902Y-2749274D02*
X-9994331Y-2719939D01*
X-9994331Y-2719939D02*
X-10065759Y-2596221D01*
X-10065759Y-2596221D02*
X-10068949Y-2543077D01*
X-10068949Y-2543077D02*
X-10060234Y-2510553D01*
X-7527024Y6068202D02*
X-7960037Y6318202D01*
X-7960037Y6318202D02*
X-7900513Y6421301D01*
X-7900513Y6421301D02*
X-7844179Y6471255D01*
X-7844179Y6471255D02*
X-7779130Y6488685D01*
X-7779130Y6488685D02*
X-7725986Y6485495D01*
X-7725986Y6485495D02*
X-7631603Y6458495D01*
X-7631603Y6458495D02*
X-7569744Y6422781D01*
X-7569744Y6422781D02*
X-7499170Y6354542D01*
X-7499170Y6354542D02*
X-7469836Y6310113D01*
X-7469836Y6310113D02*
X-7452406Y6245064D01*
X-7452406Y6245064D02*
X-7467500Y6171301D01*
X-7467500Y6171301D02*
X-7527024Y6068202D01*
X-7458557Y6853459D02*
X-7169881Y6686792D01*
X-7683038Y6845598D02*
X-7433267Y6563929D01*
X-7433267Y6563929D02*
X-7278505Y6831984D01*
X7558616Y-6938720D02*
X7125603Y-6688720D01*
X7125603Y-6688720D02*
X7185127Y-6585621D01*
X7185127Y-6585621D02*
X7241461Y-6535667D01*
X7241461Y-6535667D02*
X7306510Y-6518237D01*
X7306510Y-6518237D02*
X7359654Y-6521427D01*
X7359654Y-6521427D02*
X7454037Y-6548427D01*
X7454037Y-6548427D02*
X7515896Y-6584141D01*
X7515896Y-6584141D02*
X7586470Y-6652380D01*
X7586470Y-6652380D02*
X7615804Y-6696809D01*
X7615804Y-6696809D02*
X7633234Y-6761858D01*
X7633234Y-6761858D02*
X7618140Y-6835621D01*
X7618140Y-6835621D02*
X7558616Y-6938720D01*
X7939568Y-6278891D02*
X7796711Y-6526327D01*
X7868140Y-6402609D02*
X7435127Y-6152609D01*
X7435127Y-6152609D02*
X7473176Y-6229562D01*
X7473176Y-6229562D02*
X7490606Y-6294611D01*
X7490606Y-6294611D02*
X7487416Y-6347755D01*
D11*
X6447372Y4600833D02*
X8352628Y5700833D01*
X8007180Y2499167D02*
X9392820Y3299167D01*
X1300000Y-7900000D02*
X1300000Y-10100000D01*
X-1300000Y-8200000D02*
X-1300000Y-9800000D01*
X-1300000Y7900000D02*
X-1300000Y10100000D01*
X1300000Y8200000D02*
X1300000Y9800000D01*
X-6447372Y-4600833D02*
X-8352628Y-5700833D01*
X-8007180Y-2499167D02*
X-9392820Y-3299167D01*
X-7747372Y2349167D02*
X-9652628Y3449167D01*
X-6707180Y4750833D02*
X-8092820Y5550833D01*
X7747372Y-2349167D02*
X9652628Y-3449167D01*
X6707180Y-4750833D02*
X8092820Y-5550833D01*
M02*
