G04 #@! TF.GenerationSoftware,KiCad,Pcbnew,7.0.2.1-36-g582732918d-dirty-deb11*
G04 #@! TF.CreationDate,2023-05-22T19:38:29+00:00*
G04 #@! TF.ProjectId,pedalboard-led-ring,70656461-6c62-46f6-9172-642d6c65642d,rev?*
G04 #@! TF.SameCoordinates,Original*
G04 #@! TF.FileFunction,Copper,L1,Top*
G04 #@! TF.FilePolarity,Positive*
%FSLAX46Y46*%
G04 Gerber Fmt 4.6, Leading zero omitted, Abs format (unit mm)*
G04 Created by KiCad (PCBNEW 7.0.2.1-36-g582732918d-dirty-deb11) date 2023-05-22 19:38:29*
%MOMM*%
%LPD*%
G01*
G04 APERTURE LIST*
G04 #@! TA.AperFunction,SMDPad,CuDef*
%ADD10R,0.830000X0.750000*%
G04 #@! TD*
G04 #@! TA.AperFunction,SMDPad,CuDef*
%ADD11R,0.830000X0.500000*%
G04 #@! TD*
G04 #@! TA.AperFunction,ViaPad*
%ADD12C,0.800000*%
G04 #@! TD*
G04 #@! TA.AperFunction,Conductor*
%ADD13C,0.250000*%
G04 #@! TD*
G04 APERTURE END LIST*
G04 #@! TA.AperFunction,SMDPad,CuDef*
G36*
X7819890Y5283561D02*
G01*
X8469410Y5658561D01*
X8884410Y4939759D01*
X8234890Y4564759D01*
X7819890Y5283561D01*
G37*
G04 #@! TD.AperFunction*
G04 #@! TA.AperFunction,SMDPad,CuDef*
G36*
X7230994Y4943561D02*
G01*
X7664006Y5193561D01*
X8079006Y4474759D01*
X7645994Y4224759D01*
X7230994Y4943561D01*
G37*
G04 #@! TD.AperFunction*
G04 #@! TA.AperFunction,SMDPad,CuDef*
G36*
X6425590Y4478561D02*
G01*
X7075110Y4853561D01*
X7490110Y4134759D01*
X6840590Y3759759D01*
X6425590Y4478561D01*
G37*
G04 #@! TD.AperFunction*
G04 #@! TA.AperFunction,SMDPad,CuDef*
G36*
X7215590Y3110241D02*
G01*
X7865110Y3485241D01*
X8280110Y2766439D01*
X7630590Y2391439D01*
X7215590Y3110241D01*
G37*
G04 #@! TD.AperFunction*
G04 #@! TA.AperFunction,SMDPad,CuDef*
G36*
X8020994Y3575241D02*
G01*
X8454006Y3825241D01*
X8869006Y3106439D01*
X8435994Y2856439D01*
X8020994Y3575241D01*
G37*
G04 #@! TD.AperFunction*
G04 #@! TA.AperFunction,SMDPad,CuDef*
G36*
X8609890Y3915241D02*
G01*
X9259410Y4290241D01*
X9674410Y3571439D01*
X9024890Y3196439D01*
X8609890Y3915241D01*
G37*
G04 #@! TD.AperFunction*
D10*
X790000Y-9805000D03*
D11*
X790000Y-9000000D03*
D10*
X790000Y-8195000D03*
X-790000Y-8195000D03*
D11*
X-790000Y-9000000D03*
D10*
X-790000Y-9805000D03*
X-790000Y9805000D03*
D11*
X-790000Y9000000D03*
D10*
X-790000Y8195000D03*
X790000Y8195000D03*
D11*
X790000Y9000000D03*
D10*
X790000Y9805000D03*
G04 #@! TA.AperFunction,SMDPad,CuDef*
G36*
X-7819890Y-5283561D02*
G01*
X-8469410Y-5658561D01*
X-8884410Y-4939759D01*
X-8234890Y-4564759D01*
X-7819890Y-5283561D01*
G37*
G04 #@! TD.AperFunction*
G04 #@! TA.AperFunction,SMDPad,CuDef*
G36*
X-7230994Y-4943561D02*
G01*
X-7664006Y-5193561D01*
X-8079006Y-4474759D01*
X-7645994Y-4224759D01*
X-7230994Y-4943561D01*
G37*
G04 #@! TD.AperFunction*
G04 #@! TA.AperFunction,SMDPad,CuDef*
G36*
X-6425590Y-4478561D02*
G01*
X-7075110Y-4853561D01*
X-7490110Y-4134759D01*
X-6840590Y-3759759D01*
X-6425590Y-4478561D01*
G37*
G04 #@! TD.AperFunction*
G04 #@! TA.AperFunction,SMDPad,CuDef*
G36*
X-7215590Y-3110241D02*
G01*
X-7865110Y-3485241D01*
X-8280110Y-2766439D01*
X-7630590Y-2391439D01*
X-7215590Y-3110241D01*
G37*
G04 #@! TD.AperFunction*
G04 #@! TA.AperFunction,SMDPad,CuDef*
G36*
X-8020994Y-3575241D02*
G01*
X-8454006Y-3825241D01*
X-8869006Y-3106439D01*
X-8435994Y-2856439D01*
X-8020994Y-3575241D01*
G37*
G04 #@! TD.AperFunction*
G04 #@! TA.AperFunction,SMDPad,CuDef*
G36*
X-8609890Y-3915241D02*
G01*
X-9259410Y-4290241D01*
X-9674410Y-3571439D01*
X-9024890Y-3196439D01*
X-8609890Y-3915241D01*
G37*
G04 #@! TD.AperFunction*
G04 #@! TA.AperFunction,SMDPad,CuDef*
G36*
X-9024890Y3196439D02*
G01*
X-9674410Y3571439D01*
X-9259410Y4290241D01*
X-8609890Y3915241D01*
X-9024890Y3196439D01*
G37*
G04 #@! TD.AperFunction*
G04 #@! TA.AperFunction,SMDPad,CuDef*
G36*
X-8435994Y2856439D02*
G01*
X-8869006Y3106439D01*
X-8454006Y3825241D01*
X-8020994Y3575241D01*
X-8435994Y2856439D01*
G37*
G04 #@! TD.AperFunction*
G04 #@! TA.AperFunction,SMDPad,CuDef*
G36*
X-7630590Y2391439D02*
G01*
X-8280110Y2766439D01*
X-7865110Y3485241D01*
X-7215590Y3110241D01*
X-7630590Y2391439D01*
G37*
G04 #@! TD.AperFunction*
G04 #@! TA.AperFunction,SMDPad,CuDef*
G36*
X-6840590Y3759759D02*
G01*
X-7490110Y4134759D01*
X-7075110Y4853561D01*
X-6425590Y4478561D01*
X-6840590Y3759759D01*
G37*
G04 #@! TD.AperFunction*
G04 #@! TA.AperFunction,SMDPad,CuDef*
G36*
X-7645994Y4224759D02*
G01*
X-8079006Y4474759D01*
X-7664006Y5193561D01*
X-7230994Y4943561D01*
X-7645994Y4224759D01*
G37*
G04 #@! TD.AperFunction*
G04 #@! TA.AperFunction,SMDPad,CuDef*
G36*
X-8234890Y4564759D02*
G01*
X-8884410Y4939759D01*
X-8469410Y5658561D01*
X-7819890Y5283561D01*
X-8234890Y4564759D01*
G37*
G04 #@! TD.AperFunction*
G04 #@! TA.AperFunction,SMDPad,CuDef*
G36*
X9024890Y-3196439D02*
G01*
X9674410Y-3571439D01*
X9259410Y-4290241D01*
X8609890Y-3915241D01*
X9024890Y-3196439D01*
G37*
G04 #@! TD.AperFunction*
G04 #@! TA.AperFunction,SMDPad,CuDef*
G36*
X8435994Y-2856439D02*
G01*
X8869006Y-3106439D01*
X8454006Y-3825241D01*
X8020994Y-3575241D01*
X8435994Y-2856439D01*
G37*
G04 #@! TD.AperFunction*
G04 #@! TA.AperFunction,SMDPad,CuDef*
G36*
X7630590Y-2391439D02*
G01*
X8280110Y-2766439D01*
X7865110Y-3485241D01*
X7215590Y-3110241D01*
X7630590Y-2391439D01*
G37*
G04 #@! TD.AperFunction*
G04 #@! TA.AperFunction,SMDPad,CuDef*
G36*
X6840590Y-3759759D02*
G01*
X7490110Y-4134759D01*
X7075110Y-4853561D01*
X6425590Y-4478561D01*
X6840590Y-3759759D01*
G37*
G04 #@! TD.AperFunction*
G04 #@! TA.AperFunction,SMDPad,CuDef*
G36*
X7645994Y-4224759D02*
G01*
X8079006Y-4474759D01*
X7664006Y-5193561D01*
X7230994Y-4943561D01*
X7645994Y-4224759D01*
G37*
G04 #@! TD.AperFunction*
G04 #@! TA.AperFunction,SMDPad,CuDef*
G36*
X8234890Y-4564759D02*
G01*
X8884410Y-4939759D01*
X8469410Y-5658561D01*
X7819890Y-5283561D01*
X8234890Y-4564759D01*
G37*
G04 #@! TD.AperFunction*
D12*
X9500000Y-1400000D03*
X10500000Y-1400000D03*
X10500000Y-2400000D03*
X15600000Y-12700000D03*
X17375000Y4400000D03*
X12400000Y4500000D03*
X10800000Y6600000D03*
X10800000Y7800000D03*
D13*
X3105000Y-8195000D02*
X790000Y-8195000D01*
X6957850Y-4306660D02*
X6957850Y-4342150D01*
X6957850Y-4342150D02*
X3105000Y-8195000D01*
X7655000Y-4745000D02*
X3400000Y-9000000D01*
X7655000Y-4709160D02*
X7655000Y-4745000D01*
X3400000Y-9000000D02*
X790000Y-9000000D01*
X8352150Y-5111660D02*
X3658810Y-9805000D01*
X3658810Y-9805000D02*
X790000Y-9805000D01*
X-3205000Y-8195000D02*
X-6957850Y-4442150D01*
X-790000Y-8195000D02*
X-3205000Y-8195000D01*
X-6957850Y-4442150D02*
X-6957850Y-4306660D01*
X-3500000Y-9000000D02*
X-7655000Y-4845000D01*
X-7655000Y-4845000D02*
X-7655000Y-4709160D01*
X-790000Y-9000000D02*
X-3500000Y-9000000D01*
X-790000Y-9805000D02*
X-3658810Y-9805000D01*
X-3658810Y-9805000D02*
X-8352150Y-5111660D01*
X-7747850Y-2938340D02*
X-7900000Y-2786190D01*
X-7900000Y2786190D02*
X-7747850Y2938340D01*
X-7900000Y-2786190D02*
X-7900000Y2786190D01*
X-8700000Y-3085840D02*
X-8700000Y3085840D01*
X-8445000Y-3340840D02*
X-8700000Y-3085840D01*
X-8700000Y3085840D02*
X-8445000Y3340840D01*
X-9142150Y-3743340D02*
X-9400000Y-3485490D01*
X-9400000Y-3485490D02*
X-9400000Y3485490D01*
X-9400000Y3485490D02*
X-9142150Y3743340D01*
X-3069510Y8195000D02*
X-790000Y8195000D01*
X-6957850Y4306660D02*
X-3069510Y8195000D01*
X-3388291Y9000000D02*
X-7667066Y4721225D01*
X-790000Y9000000D02*
X-3388291Y9000000D01*
X-790000Y9805000D02*
X-3658810Y9805000D01*
X-3658810Y9805000D02*
X-8352150Y5111660D01*
X790000Y8195000D02*
X3069510Y8195000D01*
X3069510Y8195000D02*
X6957850Y4306660D01*
X5600000Y6800000D02*
X5600000Y6788291D01*
X3400000Y9000000D02*
X5600000Y6800000D01*
X790000Y9000000D02*
X3400000Y9000000D01*
X5600000Y6788291D02*
X7667066Y4721225D01*
X3658810Y9805000D02*
X8352150Y5111660D01*
X790000Y9805000D02*
X3658810Y9805000D01*
X7747850Y2938340D02*
X8250000Y2436190D01*
X8300000Y2200000D02*
X8250000Y2250000D01*
X8250000Y2436190D02*
X8250000Y2250000D01*
X12400000Y4500000D02*
X10100000Y2200000D01*
X10100000Y2200000D02*
X8300000Y2200000D01*
X10800000Y6600000D02*
X10800000Y3900000D01*
X10800000Y3900000D02*
X9600000Y2700000D01*
X9061709Y2700000D02*
X8432934Y3328775D01*
X9600000Y2700000D02*
X9061709Y2700000D01*
X10100000Y4500000D02*
X10075000Y4525000D01*
X9600000Y4000000D02*
X10100000Y4500000D01*
X9398810Y4000000D02*
X9600000Y4000000D01*
X10075000Y4525000D02*
X10075000Y7075000D01*
X10075000Y7075000D02*
X10800000Y7800000D01*
X9142150Y3743340D02*
X9398810Y4000000D01*
G04 #@! TA.AperFunction,Conductor*
G36*
X21877886Y5802349D02*
G01*
X21944533Y5781379D01*
X21989264Y5727705D01*
X21999500Y5678372D01*
X21999500Y-12994583D01*
X21999028Y-13005393D01*
X21995523Y-13045445D01*
X21983082Y-13171764D01*
X21979455Y-13191696D01*
X21962123Y-13256382D01*
X21961008Y-13260285D01*
X21933319Y-13351562D01*
X21927041Y-13367971D01*
X21896328Y-13433835D01*
X21893304Y-13439884D01*
X21850990Y-13519046D01*
X21843207Y-13531715D01*
X21800373Y-13592889D01*
X21794652Y-13600430D01*
X21738826Y-13668455D01*
X21730653Y-13677472D01*
X21677472Y-13730653D01*
X21668455Y-13738826D01*
X21600430Y-13794652D01*
X21592889Y-13800373D01*
X21531715Y-13843207D01*
X21519046Y-13850990D01*
X21439884Y-13893304D01*
X21433835Y-13896328D01*
X21367971Y-13927041D01*
X21351562Y-13933319D01*
X21260285Y-13961008D01*
X21256382Y-13962123D01*
X21191700Y-13979454D01*
X21171761Y-13983082D01*
X21045445Y-13995523D01*
X21026131Y-13997213D01*
X21005360Y-13999031D01*
X20994594Y-13999500D01*
X11124000Y-13999500D01*
X11056961Y-13979815D01*
X11011206Y-13927011D01*
X11000000Y-13875500D01*
X11000000Y-8024000D01*
X11019685Y-7956961D01*
X11072489Y-7911206D01*
X11124000Y-7900000D01*
X16699999Y-7900000D01*
X16700000Y-7900000D01*
X16799090Y5774513D01*
X16819260Y5841405D01*
X16872394Y5886776D01*
X16925466Y5897588D01*
X21877886Y5802349D01*
G37*
G04 #@! TD.AperFunction*
G04 #@! TA.AperFunction,Conductor*
G36*
X11743039Y1280315D02*
G01*
X11788794Y1227511D01*
X11800000Y1176000D01*
X11800000Y-1500000D01*
X15678988Y-1500000D01*
X15746027Y-1519685D01*
X15791782Y-1572489D01*
X15802950Y-1620975D01*
X15896545Y-5458353D01*
X15896902Y-5472977D01*
X15878858Y-5540476D01*
X15827185Y-5587505D01*
X15772939Y-5600000D01*
X9295921Y-5600000D01*
X9228882Y-5580315D01*
X9183127Y-5527511D01*
X9173183Y-5458353D01*
X9188534Y-5414000D01*
X9228313Y-5345099D01*
X9341790Y-5148551D01*
X9366046Y-5093722D01*
X9389914Y-4951793D01*
X9381196Y-4878890D01*
X9392781Y-4809991D01*
X9439779Y-4758290D01*
X9455508Y-4750181D01*
X9522319Y-4721571D01*
X9633189Y-4630029D01*
X9666549Y-4584342D01*
X9670179Y-4578766D01*
X9774921Y-4397345D01*
X9774921Y-4397344D01*
X9171657Y-4049050D01*
X9171654Y-4049049D01*
X8483655Y-3651833D01*
X9483655Y-3651833D01*
X10024921Y-3964332D01*
X10024922Y-3964332D01*
X10129673Y-3782898D01*
X10132681Y-3776977D01*
X10155565Y-3725248D01*
X10179409Y-3583460D01*
X10162338Y-3440696D01*
X10105742Y-3308531D01*
X10014198Y-3197659D01*
X9968511Y-3164299D01*
X9962943Y-3160674D01*
X9816155Y-3075926D01*
X9816154Y-3075926D01*
X9483655Y-3651832D01*
X9483655Y-3651833D01*
X8483655Y-3651833D01*
X8098665Y-3429559D01*
X8098661Y-3429555D01*
X7800000Y-3257122D01*
X7800000Y-3249332D01*
X8786506Y-3249332D01*
X8791337Y-3252122D01*
X8791340Y-3252124D01*
X9050642Y-3401833D01*
X9050643Y-3401833D01*
X9383142Y-2825926D01*
X9383142Y-2825925D01*
X9236348Y-2741175D01*
X9230424Y-2738165D01*
X9206871Y-2727745D01*
X9183916Y-2714492D01*
X9163118Y-2699305D01*
X9157540Y-2695674D01*
X9119005Y-2673426D01*
X9119004Y-2673426D01*
X8786506Y-3249331D01*
X8786506Y-3249332D01*
X7800000Y-3249332D01*
X7800000Y-2846833D01*
X8089355Y-2846833D01*
X8353492Y-2999332D01*
X8353493Y-2999332D01*
X8685992Y-2423427D01*
X8685992Y-2423426D01*
X8647451Y-2401174D01*
X8641527Y-2398165D01*
X8617974Y-2387745D01*
X8595019Y-2374492D01*
X8574221Y-2359305D01*
X8568643Y-2355674D01*
X8421855Y-2270926D01*
X8421854Y-2270926D01*
X8089355Y-2846832D01*
X8089355Y-2846833D01*
X7800000Y-2846833D01*
X7800000Y-2348010D01*
X7988842Y-2020926D01*
X7988842Y-2020925D01*
X7862000Y-1947693D01*
X7813784Y-1897126D01*
X7800000Y-1840306D01*
X7800000Y1176000D01*
X7819685Y1243039D01*
X7872489Y1288794D01*
X7924000Y1300000D01*
X11676000Y1300000D01*
X11743039Y1280315D01*
G37*
G04 #@! TD.AperFunction*
M02*
