G04 #@! TF.GenerationSoftware,KiCad,Pcbnew,7.0.2.1-36-g582732918d-dirty-deb11*
G04 #@! TF.CreationDate,2023-05-26T11:33:27+00:00*
G04 #@! TF.ProjectId,pedalboard-led-ring,70656461-6c62-46f6-9172-642d6c65642d,rev?*
G04 #@! TF.SameCoordinates,Original*
G04 #@! TF.FileFunction,Copper,L1,Top*
G04 #@! TF.FilePolarity,Positive*
%FSLAX46Y46*%
G04 Gerber Fmt 4.6, Leading zero omitted, Abs format (unit mm)*
G04 Created by KiCad (PCBNEW 7.0.2.1-36-g582732918d-dirty-deb11) date 2023-05-26 11:33:27*
%MOMM*%
%LPD*%
G01*
G04 APERTURE LIST*
G04 #@! TA.AperFunction,SMDPad,CuDef*
%ADD10R,0.830000X0.750000*%
G04 #@! TD*
G04 #@! TA.AperFunction,SMDPad,CuDef*
%ADD11R,0.830000X0.500000*%
G04 #@! TD*
G04 #@! TA.AperFunction,ViaPad*
%ADD12C,0.800000*%
G04 #@! TD*
G04 #@! TA.AperFunction,Conductor*
%ADD13C,0.250000*%
G04 #@! TD*
G04 APERTURE END LIST*
G04 #@! TA.AperFunction,SMDPad,CuDef*
G36*
X7819890Y5283561D02*
G01*
X8469410Y5658561D01*
X8884410Y4939759D01*
X8234890Y4564759D01*
X7819890Y5283561D01*
G37*
G04 #@! TD.AperFunction*
G04 #@! TA.AperFunction,SMDPad,CuDef*
G36*
X7230994Y4943561D02*
G01*
X7664006Y5193561D01*
X8079006Y4474759D01*
X7645994Y4224759D01*
X7230994Y4943561D01*
G37*
G04 #@! TD.AperFunction*
G04 #@! TA.AperFunction,SMDPad,CuDef*
G36*
X6425590Y4478561D02*
G01*
X7075110Y4853561D01*
X7490110Y4134759D01*
X6840590Y3759759D01*
X6425590Y4478561D01*
G37*
G04 #@! TD.AperFunction*
G04 #@! TA.AperFunction,SMDPad,CuDef*
G36*
X7215590Y3110241D02*
G01*
X7865110Y3485241D01*
X8280110Y2766439D01*
X7630590Y2391439D01*
X7215590Y3110241D01*
G37*
G04 #@! TD.AperFunction*
G04 #@! TA.AperFunction,SMDPad,CuDef*
G36*
X8020994Y3575241D02*
G01*
X8454006Y3825241D01*
X8869006Y3106439D01*
X8435994Y2856439D01*
X8020994Y3575241D01*
G37*
G04 #@! TD.AperFunction*
G04 #@! TA.AperFunction,SMDPad,CuDef*
G36*
X8609890Y3915241D02*
G01*
X9259410Y4290241D01*
X9674410Y3571439D01*
X9024890Y3196439D01*
X8609890Y3915241D01*
G37*
G04 #@! TD.AperFunction*
D10*
X790000Y-9805000D03*
D11*
X790000Y-9000000D03*
D10*
X790000Y-8195000D03*
X-790000Y-8195000D03*
D11*
X-790000Y-9000000D03*
D10*
X-790000Y-9805000D03*
X-790000Y9805000D03*
D11*
X-790000Y9000000D03*
D10*
X-790000Y8195000D03*
X790000Y8195000D03*
D11*
X790000Y9000000D03*
D10*
X790000Y9805000D03*
G04 #@! TA.AperFunction,SMDPad,CuDef*
G36*
X-7819890Y-5283561D02*
G01*
X-8469410Y-5658561D01*
X-8884410Y-4939759D01*
X-8234890Y-4564759D01*
X-7819890Y-5283561D01*
G37*
G04 #@! TD.AperFunction*
G04 #@! TA.AperFunction,SMDPad,CuDef*
G36*
X-7230994Y-4943561D02*
G01*
X-7664006Y-5193561D01*
X-8079006Y-4474759D01*
X-7645994Y-4224759D01*
X-7230994Y-4943561D01*
G37*
G04 #@! TD.AperFunction*
G04 #@! TA.AperFunction,SMDPad,CuDef*
G36*
X-6425590Y-4478561D02*
G01*
X-7075110Y-4853561D01*
X-7490110Y-4134759D01*
X-6840590Y-3759759D01*
X-6425590Y-4478561D01*
G37*
G04 #@! TD.AperFunction*
G04 #@! TA.AperFunction,SMDPad,CuDef*
G36*
X-7215590Y-3110241D02*
G01*
X-7865110Y-3485241D01*
X-8280110Y-2766439D01*
X-7630590Y-2391439D01*
X-7215590Y-3110241D01*
G37*
G04 #@! TD.AperFunction*
G04 #@! TA.AperFunction,SMDPad,CuDef*
G36*
X-8020994Y-3575241D02*
G01*
X-8454006Y-3825241D01*
X-8869006Y-3106439D01*
X-8435994Y-2856439D01*
X-8020994Y-3575241D01*
G37*
G04 #@! TD.AperFunction*
G04 #@! TA.AperFunction,SMDPad,CuDef*
G36*
X-8609890Y-3915241D02*
G01*
X-9259410Y-4290241D01*
X-9674410Y-3571439D01*
X-9024890Y-3196439D01*
X-8609890Y-3915241D01*
G37*
G04 #@! TD.AperFunction*
G04 #@! TA.AperFunction,SMDPad,CuDef*
G36*
X-9024890Y3196439D02*
G01*
X-9674410Y3571439D01*
X-9259410Y4290241D01*
X-8609890Y3915241D01*
X-9024890Y3196439D01*
G37*
G04 #@! TD.AperFunction*
G04 #@! TA.AperFunction,SMDPad,CuDef*
G36*
X-8435994Y2856439D02*
G01*
X-8869006Y3106439D01*
X-8454006Y3825241D01*
X-8020994Y3575241D01*
X-8435994Y2856439D01*
G37*
G04 #@! TD.AperFunction*
G04 #@! TA.AperFunction,SMDPad,CuDef*
G36*
X-7630590Y2391439D02*
G01*
X-8280110Y2766439D01*
X-7865110Y3485241D01*
X-7215590Y3110241D01*
X-7630590Y2391439D01*
G37*
G04 #@! TD.AperFunction*
G04 #@! TA.AperFunction,SMDPad,CuDef*
G36*
X-6840590Y3759759D02*
G01*
X-7490110Y4134759D01*
X-7075110Y4853561D01*
X-6425590Y4478561D01*
X-6840590Y3759759D01*
G37*
G04 #@! TD.AperFunction*
G04 #@! TA.AperFunction,SMDPad,CuDef*
G36*
X-7645994Y4224759D02*
G01*
X-8079006Y4474759D01*
X-7664006Y5193561D01*
X-7230994Y4943561D01*
X-7645994Y4224759D01*
G37*
G04 #@! TD.AperFunction*
G04 #@! TA.AperFunction,SMDPad,CuDef*
G36*
X-8234890Y4564759D02*
G01*
X-8884410Y4939759D01*
X-8469410Y5658561D01*
X-7819890Y5283561D01*
X-8234890Y4564759D01*
G37*
G04 #@! TD.AperFunction*
G04 #@! TA.AperFunction,SMDPad,CuDef*
G36*
X9024890Y-3196439D02*
G01*
X9674410Y-3571439D01*
X9259410Y-4290241D01*
X8609890Y-3915241D01*
X9024890Y-3196439D01*
G37*
G04 #@! TD.AperFunction*
G04 #@! TA.AperFunction,SMDPad,CuDef*
G36*
X8435994Y-2856439D02*
G01*
X8869006Y-3106439D01*
X8454006Y-3825241D01*
X8020994Y-3575241D01*
X8435994Y-2856439D01*
G37*
G04 #@! TD.AperFunction*
G04 #@! TA.AperFunction,SMDPad,CuDef*
G36*
X7630590Y-2391439D02*
G01*
X8280110Y-2766439D01*
X7865110Y-3485241D01*
X7215590Y-3110241D01*
X7630590Y-2391439D01*
G37*
G04 #@! TD.AperFunction*
G04 #@! TA.AperFunction,SMDPad,CuDef*
G36*
X6840590Y-3759759D02*
G01*
X7490110Y-4134759D01*
X7075110Y-4853561D01*
X6425590Y-4478561D01*
X6840590Y-3759759D01*
G37*
G04 #@! TD.AperFunction*
G04 #@! TA.AperFunction,SMDPad,CuDef*
G36*
X7645994Y-4224759D02*
G01*
X8079006Y-4474759D01*
X7664006Y-5193561D01*
X7230994Y-4943561D01*
X7645994Y-4224759D01*
G37*
G04 #@! TD.AperFunction*
G04 #@! TA.AperFunction,SMDPad,CuDef*
G36*
X8234890Y-4564759D02*
G01*
X8884410Y-4939759D01*
X8469410Y-5658561D01*
X7819890Y-5283561D01*
X8234890Y-4564759D01*
G37*
G04 #@! TD.AperFunction*
D12*
X9500000Y-1400000D03*
X10500000Y-1400000D03*
X2700000Y-11100000D03*
X18140000Y-12540000D03*
X19200000Y4800000D03*
X12400000Y4500000D03*
X10800000Y6600000D03*
X10800000Y7800000D03*
D13*
X3105000Y-8195000D02*
X790000Y-8195000D01*
X6957850Y-4306660D02*
X6957850Y-4342150D01*
X6957850Y-4342150D02*
X3105000Y-8195000D01*
X7655000Y-4745000D02*
X3400000Y-9000000D01*
X7655000Y-4709160D02*
X7655000Y-4745000D01*
X3400000Y-9000000D02*
X790000Y-9000000D01*
X8352150Y-5111660D02*
X3658810Y-9805000D01*
X3658810Y-9805000D02*
X790000Y-9805000D01*
X-3205000Y-8195000D02*
X-6957850Y-4442150D01*
X-790000Y-8195000D02*
X-3205000Y-8195000D01*
X-6957850Y-4442150D02*
X-6957850Y-4306660D01*
X-3500000Y-9000000D02*
X-7655000Y-4845000D01*
X-7655000Y-4845000D02*
X-7655000Y-4709160D01*
X-790000Y-9000000D02*
X-3500000Y-9000000D01*
X-790000Y-9805000D02*
X-3658810Y-9805000D01*
X-3658810Y-9805000D02*
X-8352150Y-5111660D01*
X-7747850Y-2938340D02*
X-7900000Y-2786190D01*
X-7900000Y2786190D02*
X-7747850Y2938340D01*
X-7900000Y-2786190D02*
X-7900000Y2786190D01*
X-8700000Y-3085840D02*
X-8700000Y3085840D01*
X-8445000Y-3340840D02*
X-8700000Y-3085840D01*
X-8700000Y3085840D02*
X-8445000Y3340840D01*
X-9142150Y-3743340D02*
X-9400000Y-3485490D01*
X-9400000Y-3485490D02*
X-9400000Y3485490D01*
X-9400000Y3485490D02*
X-9142150Y3743340D01*
X-3069510Y8195000D02*
X-790000Y8195000D01*
X-6957850Y4306660D02*
X-3069510Y8195000D01*
X-3388291Y9000000D02*
X-7667066Y4721225D01*
X-790000Y9000000D02*
X-3388291Y9000000D01*
X-790000Y9805000D02*
X-3658810Y9805000D01*
X-3658810Y9805000D02*
X-8352150Y5111660D01*
X790000Y8195000D02*
X3069510Y8195000D01*
X3069510Y8195000D02*
X6957850Y4306660D01*
X5600000Y6800000D02*
X5600000Y6788291D01*
X3400000Y9000000D02*
X5600000Y6800000D01*
X790000Y9000000D02*
X3400000Y9000000D01*
X5600000Y6788291D02*
X7667066Y4721225D01*
X3658810Y9805000D02*
X8352150Y5111660D01*
X790000Y9805000D02*
X3658810Y9805000D01*
X7747850Y2938340D02*
X8250000Y2436190D01*
X8300000Y2200000D02*
X8250000Y2250000D01*
X8250000Y2436190D02*
X8250000Y2250000D01*
X12400000Y4500000D02*
X10100000Y2200000D01*
X10100000Y2200000D02*
X8300000Y2200000D01*
X10800000Y6600000D02*
X10800000Y3900000D01*
X10800000Y3900000D02*
X9600000Y2700000D01*
X9061709Y2700000D02*
X8432934Y3328775D01*
X9600000Y2700000D02*
X9061709Y2700000D01*
X10100000Y4500000D02*
X10075000Y4525000D01*
X9600000Y4000000D02*
X10100000Y4500000D01*
X9398810Y4000000D02*
X9600000Y4000000D01*
X10075000Y4525000D02*
X10075000Y7075000D01*
X10075000Y7075000D02*
X10800000Y7800000D01*
X9142150Y3743340D02*
X9398810Y4000000D01*
G04 #@! TA.AperFunction,Conductor*
G36*
X11143039Y-619685D02*
G01*
X11188794Y-672489D01*
X11200000Y-724000D01*
X11200000Y-5500000D01*
X9200000Y-5400000D01*
X9300000Y-4900000D01*
X9299999Y-4899999D01*
X9078348Y-4773341D01*
X9058110Y-4758907D01*
X9031027Y-4735156D01*
X8338771Y-4335482D01*
X8299057Y-4322001D01*
X8257157Y-4297810D01*
X8225625Y-4270157D01*
X7749874Y-3995482D01*
X7710160Y-3982001D01*
X7705390Y-3979247D01*
X8220753Y-3979247D01*
X8350329Y-4054058D01*
X8390091Y-4067555D01*
X8431994Y-4091748D01*
X8463565Y-4119435D01*
X9155733Y-4519058D01*
X9226139Y-4542958D01*
X9325381Y-4536453D01*
X9414582Y-4492463D01*
X9463606Y-4436563D01*
X9620915Y-4164092D01*
X9620915Y-4164091D01*
X9187903Y-3914093D01*
X8812902Y-3697586D01*
X9312902Y-3697586D01*
X9745915Y-3947585D01*
X9745916Y-3947585D01*
X9903227Y-3675115D01*
X9927127Y-3604709D01*
X9920622Y-3505467D01*
X9876633Y-3416267D01*
X9820734Y-3367245D01*
X9582902Y-3229932D01*
X9582901Y-3229932D01*
X9312902Y-3697585D01*
X9312902Y-3697586D01*
X8812902Y-3697586D01*
X8490752Y-3511593D01*
X8490751Y-3511593D01*
X8220753Y-3979246D01*
X8220753Y-3979247D01*
X7705390Y-3979247D01*
X7668260Y-3957810D01*
X7636728Y-3930157D01*
X6944470Y-3530481D01*
X6854465Y-3499929D01*
X6832802Y-3490172D01*
X6600335Y-3357334D01*
X6551895Y-3306982D01*
X6538366Y-3238435D01*
X6550132Y-3195879D01*
X6559602Y-3176212D01*
X6607386Y-3076969D01*
X6962872Y-3076969D01*
X6969377Y-3176212D01*
X7013366Y-3265412D01*
X7069265Y-3314434D01*
X7761435Y-3714059D01*
X7801196Y-3727556D01*
X7843097Y-3751747D01*
X7874669Y-3779435D01*
X8004246Y-3854246D01*
X8004247Y-3854246D01*
X8274246Y-3386592D01*
X8274246Y-3386591D01*
X8113894Y-3294012D01*
X8613889Y-3294012D01*
X9096395Y-3572586D01*
X9096396Y-3572586D01*
X9366395Y-3104932D01*
X9366395Y-3104931D01*
X9128567Y-2967622D01*
X9088799Y-2954122D01*
X9046902Y-2929932D01*
X9015329Y-2902244D01*
X8885752Y-2827432D01*
X8885751Y-2827432D01*
X8651547Y-3233087D01*
X8622322Y-3260952D01*
X8622706Y-3268995D01*
X8621976Y-3271854D01*
X8619977Y-3279315D01*
X8613889Y-3294012D01*
X8113894Y-3294012D01*
X7793603Y-3109093D01*
X7418601Y-2892586D01*
X7918602Y-2892586D01*
X8399246Y-3170085D01*
X8404281Y-3168736D01*
X8419259Y-3154453D01*
X8419114Y-3153440D01*
X8434465Y-3109087D01*
X8669245Y-2702432D01*
X8669245Y-2702431D01*
X8539671Y-2627622D01*
X8499903Y-2614122D01*
X8458005Y-2589931D01*
X8426434Y-2562244D01*
X8188602Y-2424932D01*
X8188601Y-2424932D01*
X7918602Y-2892585D01*
X7918602Y-2892586D01*
X7418601Y-2892586D01*
X7144083Y-2734093D01*
X7144082Y-2734093D01*
X6986771Y-3006566D01*
X6962872Y-3076969D01*
X6607386Y-3076969D01*
X6876718Y-2517587D01*
X7269083Y-2517587D01*
X7702095Y-2767586D01*
X7702096Y-2767586D01*
X7972095Y-2299932D01*
X7972095Y-2299931D01*
X7734264Y-2162620D01*
X7663861Y-2138721D01*
X7564618Y-2145226D01*
X7475418Y-2189215D01*
X7426396Y-2245114D01*
X7269083Y-2517586D01*
X7269083Y-2517587D01*
X6876718Y-2517587D01*
X6937866Y-2390586D01*
X6940618Y-2391911D01*
X6941096Y-2390283D01*
X6938592Y-2389077D01*
X7435155Y-1357754D01*
X7766197Y-670207D01*
X7813015Y-618344D01*
X7877921Y-600000D01*
X11076000Y-600000D01*
X11143039Y-619685D01*
G37*
G04 #@! TD.AperFunction*
G04 #@! TA.AperFunction,Conductor*
G36*
X21942539Y5280315D02*
G01*
X21988294Y5227511D01*
X21999500Y5176000D01*
X21999500Y-12994583D01*
X21999028Y-13005393D01*
X21995523Y-13045445D01*
X21983082Y-13171764D01*
X21979455Y-13191696D01*
X21962123Y-13256382D01*
X21961008Y-13260285D01*
X21933319Y-13351562D01*
X21927041Y-13367971D01*
X21896328Y-13433835D01*
X21893304Y-13439884D01*
X21850990Y-13519046D01*
X21843207Y-13531715D01*
X21800373Y-13592889D01*
X21794652Y-13600430D01*
X21738826Y-13668455D01*
X21730653Y-13677472D01*
X21677472Y-13730653D01*
X21668455Y-13738826D01*
X21600430Y-13794652D01*
X21592889Y-13800373D01*
X21531715Y-13843207D01*
X21519046Y-13850990D01*
X21439884Y-13893304D01*
X21433835Y-13896328D01*
X21367971Y-13927041D01*
X21351561Y-13933320D01*
X21260285Y-13961008D01*
X21256383Y-13962122D01*
X21193479Y-13978977D01*
X21158907Y-13983177D01*
X17122155Y-13902443D01*
X17055522Y-13881422D01*
X17010832Y-13827714D01*
X17000636Y-13777822D01*
X17001005Y-13707107D01*
X17042403Y-5758623D01*
X17099358Y5176646D01*
X17119391Y5243582D01*
X17172433Y5289061D01*
X17223356Y5300000D01*
X21875500Y5300000D01*
X21942539Y5280315D01*
G37*
G04 #@! TD.AperFunction*
G04 #@! TA.AperFunction,Conductor*
G36*
X11200000Y-5500000D02*
G01*
X11200000Y-11701000D01*
X11181093Y-11759191D01*
X11131593Y-11795155D01*
X11101000Y-11800000D01*
X2099000Y-11800000D01*
X2040809Y-11781093D01*
X2004845Y-11731593D01*
X2000000Y-11701000D01*
X2000000Y-10229500D01*
X2018907Y-10171309D01*
X2068407Y-10135345D01*
X2099000Y-10130500D01*
X3640276Y-10130500D01*
X3648903Y-10130876D01*
X3662167Y-10132037D01*
X3687615Y-10134264D01*
X3687615Y-10134263D01*
X3687617Y-10134264D01*
X3725169Y-10124201D01*
X3733587Y-10122335D01*
X3771855Y-10115588D01*
X3773156Y-10114836D01*
X3797042Y-10104942D01*
X3798494Y-10104554D01*
X3830339Y-10082254D01*
X3837595Y-10077632D01*
X3871265Y-10058194D01*
X3896252Y-10028414D01*
X3902064Y-10022070D01*
X7453741Y-6470393D01*
X7472103Y-6455936D01*
X8424738Y-5873770D01*
X8469881Y-5859459D01*
X8522319Y-5856022D01*
X8593858Y-5820744D01*
X8633174Y-5775913D01*
X8646905Y-5752129D01*
X8681016Y-5717156D01*
X9008795Y-5516847D01*
X9199999Y-5400001D01*
X9199999Y-5400000D01*
X9200000Y-5400000D01*
X11200000Y-5500000D01*
G37*
G04 #@! TD.AperFunction*
M02*
