G04 #@! TF.GenerationSoftware,KiCad,Pcbnew,7.0.2.1-36-g582732918d-dirty-deb11*
G04 #@! TF.CreationDate,2023-05-26T11:20:27+00:00*
G04 #@! TF.ProjectId,pedalboard-led-ring,70656461-6c62-46f6-9172-642d6c65642d,rev?*
G04 #@! TF.SameCoordinates,Original*
G04 #@! TF.FileFunction,Legend,Top*
G04 #@! TF.FilePolarity,Positive*
%FSLAX46Y46*%
G04 Gerber Fmt 4.6, Leading zero omitted, Abs format (unit mm)*
G04 Created by KiCad (PCBNEW 7.0.2.1-36-g582732918d-dirty-deb11) date 2023-05-26 11:20:27*
%MOMM*%
%LPD*%
G01*
G04 APERTURE LIST*
%ADD10C,0.150000*%
%ADD11C,0.120000*%
G04 APERTURE END LIST*
D10*
X9677070Y2066641D02*
X10369890Y2466641D01*
X10369890Y2466641D02*
X10465128Y2301684D01*
X10465128Y2301684D02*
X10489280Y2183662D01*
X10489280Y2183662D02*
X10461392Y2079584D01*
X10461392Y2079584D02*
X10414457Y2008497D01*
X10414457Y2008497D02*
X10301538Y1899315D01*
X10301538Y1899315D02*
X10202564Y1842172D01*
X10202564Y1842172D02*
X10051551Y1798973D01*
X10051551Y1798973D02*
X9966520Y1793869D01*
X9966520Y1793869D02*
X9862442Y1821757D01*
X9862442Y1821757D02*
X9772308Y1901684D01*
X9772308Y1901684D02*
X9677070Y2066641D01*
X10941319Y1476898D02*
X10865128Y1608863D01*
X10865128Y1608863D02*
X10794041Y1655799D01*
X10794041Y1655799D02*
X10742002Y1669742D01*
X10742002Y1669742D02*
X10604933Y1678583D01*
X10604933Y1678583D02*
X10453919Y1635383D01*
X10453919Y1635383D02*
X10189988Y1483003D01*
X10189988Y1483003D02*
X10143053Y1411916D01*
X10143053Y1411916D02*
X10129109Y1359877D01*
X10129109Y1359877D02*
X10134213Y1274846D01*
X10134213Y1274846D02*
X10210403Y1142881D01*
X10210403Y1142881D02*
X10281490Y1095945D01*
X10281490Y1095945D02*
X10333529Y1082001D01*
X10333529Y1082001D02*
X10418559Y1087105D01*
X10418559Y1087105D02*
X10583517Y1182343D01*
X10583517Y1182343D02*
X10630452Y1253430D01*
X10630452Y1253430D02*
X10644396Y1305469D01*
X10644396Y1305469D02*
X10639292Y1390500D01*
X10639292Y1390500D02*
X10563101Y1522465D01*
X10563101Y1522465D02*
X10492015Y1569401D01*
X10492015Y1569401D02*
X10439976Y1583344D01*
X10439976Y1583344D02*
X10354945Y1578241D01*
X-3690476Y-10170095D02*
X-3690476Y-9370095D01*
X-3690476Y-9370095D02*
X-3500000Y-9370095D01*
X-3500000Y-9370095D02*
X-3385714Y-9408190D01*
X-3385714Y-9408190D02*
X-3309524Y-9484380D01*
X-3309524Y-9484380D02*
X-3271429Y-9560571D01*
X-3271429Y-9560571D02*
X-3233333Y-9712952D01*
X-3233333Y-9712952D02*
X-3233333Y-9827238D01*
X-3233333Y-9827238D02*
X-3271429Y-9979619D01*
X-3271429Y-9979619D02*
X-3309524Y-10055809D01*
X-3309524Y-10055809D02*
X-3385714Y-10132000D01*
X-3385714Y-10132000D02*
X-3500000Y-10170095D01*
X-3500000Y-10170095D02*
X-3690476Y-10170095D01*
X-2928572Y-9446285D02*
X-2890476Y-9408190D01*
X-2890476Y-9408190D02*
X-2814286Y-9370095D01*
X-2814286Y-9370095D02*
X-2623810Y-9370095D01*
X-2623810Y-9370095D02*
X-2547619Y-9408190D01*
X-2547619Y-9408190D02*
X-2509524Y-9446285D01*
X-2509524Y-9446285D02*
X-2471429Y-9522476D01*
X-2471429Y-9522476D02*
X-2471429Y-9598666D01*
X-2471429Y-9598666D02*
X-2509524Y-9712952D01*
X-2509524Y-9712952D02*
X-2966667Y-10170095D01*
X-2966667Y-10170095D02*
X-2471429Y-10170095D01*
X2509524Y9429905D02*
X2509524Y10229905D01*
X2509524Y10229905D02*
X2700000Y10229905D01*
X2700000Y10229905D02*
X2814286Y10191810D01*
X2814286Y10191810D02*
X2890476Y10115620D01*
X2890476Y10115620D02*
X2928571Y10039429D01*
X2928571Y10039429D02*
X2966667Y9887048D01*
X2966667Y9887048D02*
X2966667Y9772762D01*
X2966667Y9772762D02*
X2928571Y9620381D01*
X2928571Y9620381D02*
X2890476Y9544191D01*
X2890476Y9544191D02*
X2814286Y9468000D01*
X2814286Y9468000D02*
X2700000Y9429905D01*
X2700000Y9429905D02*
X2509524Y9429905D01*
X3690476Y10229905D02*
X3309524Y10229905D01*
X3309524Y10229905D02*
X3271428Y9848953D01*
X3271428Y9848953D02*
X3309524Y9887048D01*
X3309524Y9887048D02*
X3385714Y9925143D01*
X3385714Y9925143D02*
X3576190Y9925143D01*
X3576190Y9925143D02*
X3652381Y9887048D01*
X3652381Y9887048D02*
X3690476Y9848953D01*
X3690476Y9848953D02*
X3728571Y9772762D01*
X3728571Y9772762D02*
X3728571Y9582286D01*
X3728571Y9582286D02*
X3690476Y9506096D01*
X3690476Y9506096D02*
X3652381Y9468000D01*
X3652381Y9468000D02*
X3576190Y9429905D01*
X3576190Y9429905D02*
X3385714Y9429905D01*
X3385714Y9429905D02*
X3309524Y9468000D01*
X3309524Y9468000D02*
X3271428Y9506096D01*
X-10908570Y-1414001D02*
X-10215750Y-1014001D01*
X-10215750Y-1014001D02*
X-10120512Y-1178958D01*
X-10120512Y-1178958D02*
X-10096360Y-1296980D01*
X-10096360Y-1296980D02*
X-10124248Y-1401058D01*
X-10124248Y-1401058D02*
X-10171183Y-1472145D01*
X-10171183Y-1472145D02*
X-10284102Y-1581327D01*
X-10284102Y-1581327D02*
X-10383076Y-1638470D01*
X-10383076Y-1638470D02*
X-10534089Y-1681669D01*
X-10534089Y-1681669D02*
X-10619120Y-1686773D01*
X-10619120Y-1686773D02*
X-10723198Y-1658885D01*
X-10723198Y-1658885D02*
X-10813332Y-1578958D01*
X-10813332Y-1578958D02*
X-10908570Y-1414001D01*
X-9853845Y-1640839D02*
X-9606226Y-2069727D01*
X-9606226Y-2069727D02*
X-10003491Y-1991168D01*
X-10003491Y-1991168D02*
X-9946348Y-2090142D01*
X-9946348Y-2090142D02*
X-9941244Y-2175173D01*
X-9941244Y-2175173D02*
X-9955188Y-2227212D01*
X-9955188Y-2227212D02*
X-10002123Y-2298299D01*
X-10002123Y-2298299D02*
X-10167081Y-2393537D01*
X-10167081Y-2393537D02*
X-10252111Y-2398641D01*
X-10252111Y-2398641D02*
X-10304150Y-2384697D01*
X-10304150Y-2384697D02*
X-10375237Y-2337761D01*
X-10375237Y-2337761D02*
X-10489523Y-2139813D01*
X-10489523Y-2139813D02*
X-10494626Y-2054782D01*
X-10494626Y-2054782D02*
X-10480683Y-2002743D01*
X-7167547Y6413265D02*
X-7860367Y6813265D01*
X-7860367Y6813265D02*
X-7765129Y6978222D01*
X-7765129Y6978222D02*
X-7674994Y7058149D01*
X-7674994Y7058149D02*
X-7570916Y7086036D01*
X-7570916Y7086036D02*
X-7485886Y7080933D01*
X-7485886Y7080933D02*
X-7334872Y7037734D01*
X-7334872Y7037734D02*
X-7235898Y6980591D01*
X-7235898Y6980591D02*
X-7122980Y6871409D01*
X-7122980Y6871409D02*
X-7076045Y6800322D01*
X-7076045Y6800322D02*
X-7048157Y6696244D01*
X-7048157Y6696244D02*
X-7072308Y6578222D01*
X-7072308Y6578222D02*
X-7167547Y6413265D01*
X-7057998Y7669675D02*
X-6596118Y7403008D01*
X-7417168Y7657099D02*
X-7017534Y7206427D01*
X-7017534Y7206427D02*
X-6769915Y7635316D01*
X7218093Y-7806093D02*
X6525273Y-7406093D01*
X6525273Y-7406093D02*
X6620511Y-7241136D01*
X6620511Y-7241136D02*
X6710646Y-7161209D01*
X6710646Y-7161209D02*
X6814724Y-7133322D01*
X6814724Y-7133322D02*
X6899754Y-7138425D01*
X6899754Y-7138425D02*
X7050768Y-7181624D01*
X7050768Y-7181624D02*
X7149742Y-7238767D01*
X7149742Y-7238767D02*
X7262660Y-7347949D01*
X7262660Y-7347949D02*
X7309595Y-7419036D01*
X7309595Y-7419036D02*
X7337483Y-7523114D01*
X7337483Y-7523114D02*
X7313332Y-7641136D01*
X7313332Y-7641136D02*
X7218093Y-7806093D01*
X7827617Y-6750367D02*
X7599046Y-7146264D01*
X7713332Y-6948316D02*
X7020511Y-6548316D01*
X7020511Y-6548316D02*
X7081390Y-6671441D01*
X7081390Y-6671441D02*
X7109278Y-6775519D01*
X7109278Y-6775519D02*
X7104174Y-6860550D01*
D11*
X6447372Y4600833D02*
X8352628Y5700833D01*
X8007180Y2499167D02*
X9392820Y3299167D01*
X1300000Y-7900000D02*
X1300000Y-10100000D01*
X-1300000Y-8200000D02*
X-1300000Y-9800000D01*
X-1300000Y7900000D02*
X-1300000Y10100000D01*
X1300000Y8200000D02*
X1300000Y9800000D01*
X-6447372Y-4600833D02*
X-8352628Y-5700833D01*
X-8007180Y-2499167D02*
X-9392820Y-3299167D01*
X-7747372Y2349167D02*
X-9652628Y3449167D01*
X-6707180Y4750833D02*
X-8092820Y5550833D01*
X7747372Y-2349167D02*
X9652628Y-3449167D01*
X6707180Y-4750833D02*
X8092820Y-5550833D01*
M02*
