G04 #@! TF.GenerationSoftware,KiCad,Pcbnew,7.0.5.1-1-g8f565ef7f0-dirty-deb11*
G04 #@! TF.CreationDate,2023-06-20T15:29:18+00:00*
G04 #@! TF.ProjectId,pedalboard-led-ring,70656461-6c62-46f6-9172-642d6c65642d,1.0.0*
G04 #@! TF.SameCoordinates,Original*
G04 #@! TF.FileFunction,Legend,Top*
G04 #@! TF.FilePolarity,Positive*
%FSLAX46Y46*%
G04 Gerber Fmt 4.6, Leading zero omitted, Abs format (unit mm)*
G04 Created by KiCad (PCBNEW 7.0.5.1-1-g8f565ef7f0-dirty-deb11) date 2023-06-20 15:29:18*
%MOMM*%
%LPD*%
G01*
G04 APERTURE LIST*
%ADD10C,0.100000*%
%ADD11C,0.075000*%
%ADD12C,0.120000*%
G04 APERTURE END LIST*
D10*
X2850612Y-8145712D02*
X3283624Y-7895712D01*
X3283624Y-7895712D02*
X3343148Y-7998810D01*
X3343148Y-7998810D02*
X3358243Y-8072574D01*
X3358243Y-8072574D02*
X3340813Y-8137622D01*
X3340813Y-8137622D02*
X3311479Y-8182052D01*
X3311479Y-8182052D02*
X3240905Y-8250290D01*
X3240905Y-8250290D02*
X3179046Y-8286005D01*
X3179046Y-8286005D02*
X3084662Y-8313004D01*
X3084662Y-8313004D02*
X3031518Y-8316194D01*
X3031518Y-8316194D02*
X2966469Y-8298764D01*
X2966469Y-8298764D02*
X2910136Y-8248810D01*
X2910136Y-8248810D02*
X2850612Y-8145712D01*
X3231564Y-8805540D02*
X3088707Y-8558105D01*
X3160136Y-8681823D02*
X3593148Y-8431823D01*
X3593148Y-8431823D02*
X3507480Y-8426297D01*
X3507480Y-8426297D02*
X3442431Y-8408868D01*
X3442431Y-8408868D02*
X3398002Y-8379533D01*
X3469659Y-9217933D02*
X3326802Y-8970497D01*
X3398231Y-9094215D02*
X3831243Y-8844215D01*
X3831243Y-8844215D02*
X3745575Y-8838690D01*
X3745575Y-8838690D02*
X3680526Y-8821260D01*
X3680526Y-8821260D02*
X3636097Y-8791926D01*
D11*
X4498831Y-8961975D02*
X4413117Y-8813514D01*
X4455974Y-8887744D02*
X4715782Y-8737744D01*
X4715782Y-8737744D02*
X4664381Y-8734429D01*
X4664381Y-8734429D02*
X4625351Y-8723972D01*
X4625351Y-8723972D02*
X4598694Y-8706371D01*
D10*
X7210952Y-366109D02*
X7210952Y133891D01*
X7210952Y133891D02*
X7330000Y133891D01*
X7330000Y133891D02*
X7401428Y110081D01*
X7401428Y110081D02*
X7449047Y62462D01*
X7449047Y62462D02*
X7472857Y14843D01*
X7472857Y14843D02*
X7496666Y-80395D01*
X7496666Y-80395D02*
X7496666Y-151823D01*
X7496666Y-151823D02*
X7472857Y-247061D01*
X7472857Y-247061D02*
X7449047Y-294680D01*
X7449047Y-294680D02*
X7401428Y-342300D01*
X7401428Y-342300D02*
X7330000Y-366109D01*
X7330000Y-366109D02*
X7210952Y-366109D01*
X7972857Y-366109D02*
X7687143Y-366109D01*
X7830000Y-366109D02*
X7830000Y133891D01*
X7830000Y133891D02*
X7782381Y62462D01*
X7782381Y62462D02*
X7734762Y14843D01*
X7734762Y14843D02*
X7687143Y-8966D01*
D11*
X10010714Y-584885D02*
X9839285Y-584885D01*
X9925000Y-584885D02*
X9925000Y-284885D01*
X9925000Y-284885D02*
X9896428Y-327742D01*
X9896428Y-327742D02*
X9867857Y-356314D01*
X9867857Y-356314D02*
X9839285Y-370600D01*
D10*
X1626109Y8630953D02*
X1126109Y8630953D01*
X1126109Y8630953D02*
X1126109Y8750001D01*
X1126109Y8750001D02*
X1149919Y8821429D01*
X1149919Y8821429D02*
X1197538Y8869048D01*
X1197538Y8869048D02*
X1245157Y8892858D01*
X1245157Y8892858D02*
X1340395Y8916667D01*
X1340395Y8916667D02*
X1411823Y8916667D01*
X1411823Y8916667D02*
X1507061Y8892858D01*
X1507061Y8892858D02*
X1554680Y8869048D01*
X1554680Y8869048D02*
X1602300Y8821429D01*
X1602300Y8821429D02*
X1626109Y8750001D01*
X1626109Y8750001D02*
X1626109Y8630953D01*
X1292776Y9345239D02*
X1626109Y9345239D01*
X1102300Y9226191D02*
X1459442Y9107144D01*
X1459442Y9107144D02*
X1459442Y9416667D01*
D11*
X584885Y10010715D02*
X584885Y9839286D01*
X584885Y9925001D02*
X284885Y9925001D01*
X284885Y9925001D02*
X327742Y9896429D01*
X327742Y9896429D02*
X356314Y9867858D01*
X356314Y9867858D02*
X370600Y9839286D01*
D10*
X6455373Y-5604681D02*
X6705373Y-5171668D01*
X6705373Y-5171668D02*
X6808471Y-5231192D01*
X6808471Y-5231192D02*
X6858425Y-5287526D01*
X6858425Y-5287526D02*
X6875855Y-5352575D01*
X6875855Y-5352575D02*
X6872665Y-5405719D01*
X6872665Y-5405719D02*
X6845666Y-5500102D01*
X6845666Y-5500102D02*
X6809952Y-5561961D01*
X6809952Y-5561961D02*
X6741713Y-5632535D01*
X6741713Y-5632535D02*
X6697284Y-5661870D01*
X6697284Y-5661870D02*
X6632235Y-5679299D01*
X6632235Y-5679299D02*
X6558471Y-5664205D01*
X6558471Y-5664205D02*
X6455373Y-5604681D01*
X7115202Y-5985633D02*
X6867766Y-5842776D01*
X6991484Y-5914205D02*
X7241484Y-5481192D01*
X7241484Y-5481192D02*
X7164530Y-5519241D01*
X7164530Y-5519241D02*
X7099482Y-5536671D01*
X7099482Y-5536671D02*
X7046337Y-5533481D01*
X7506349Y-5689098D02*
X7538874Y-5680383D01*
X7538874Y-5680383D02*
X7592018Y-5683573D01*
X7592018Y-5683573D02*
X7695116Y-5743097D01*
X7695116Y-5743097D02*
X7724450Y-5787526D01*
X7724450Y-5787526D02*
X7733165Y-5820050D01*
X7733165Y-5820050D02*
X7729975Y-5873194D01*
X7729975Y-5873194D02*
X7706166Y-5914433D01*
X7706166Y-5914433D02*
X7649832Y-5964388D01*
X7649832Y-5964388D02*
X7259539Y-6068966D01*
X7259539Y-6068966D02*
X7527595Y-6223728D01*
D11*
X8377090Y-5511882D02*
X8228628Y-5426168D01*
X8302859Y-5469025D02*
X8452859Y-5209217D01*
X8452859Y-5209217D02*
X8406687Y-5232047D01*
X8406687Y-5232047D02*
X8367657Y-5242505D01*
X8367657Y-5242505D02*
X8335771Y-5240591D01*
D10*
X-8700779Y-3667904D02*
X-8950779Y-3234891D01*
X-8950779Y-3234891D02*
X-8847681Y-3175367D01*
X-8847681Y-3175367D02*
X-8773917Y-3160273D01*
X-8773917Y-3160273D02*
X-8708868Y-3177702D01*
X-8708868Y-3177702D02*
X-8664439Y-3207037D01*
X-8664439Y-3207037D02*
X-8596200Y-3277611D01*
X-8596200Y-3277611D02*
X-8560486Y-3339470D01*
X-8560486Y-3339470D02*
X-8533487Y-3433853D01*
X-8533487Y-3433853D02*
X-8530297Y-3486997D01*
X-8530297Y-3486997D02*
X-8547727Y-3552046D01*
X-8547727Y-3552046D02*
X-8597681Y-3608380D01*
X-8597681Y-3608380D02*
X-8700779Y-3667904D01*
X-8348765Y-3134754D02*
X-8401909Y-3137944D01*
X-8401909Y-3137944D02*
X-8434433Y-3129229D01*
X-8434433Y-3129229D02*
X-8478862Y-3099894D01*
X-8478862Y-3099894D02*
X-8490767Y-3079274D01*
X-8490767Y-3079274D02*
X-8493957Y-3026130D01*
X-8493957Y-3026130D02*
X-8485242Y-2993606D01*
X-8485242Y-2993606D02*
X-8455907Y-2949177D01*
X-8455907Y-2949177D02*
X-8373429Y-2901558D01*
X-8373429Y-2901558D02*
X-8320285Y-2898368D01*
X-8320285Y-2898368D02*
X-8287760Y-2907083D01*
X-8287760Y-2907083D02*
X-8243331Y-2936417D01*
X-8243331Y-2936417D02*
X-8231426Y-2957037D01*
X-8231426Y-2957037D02*
X-8228237Y-3010181D01*
X-8228237Y-3010181D02*
X-8236951Y-3042705D01*
X-8236951Y-3042705D02*
X-8266286Y-3087135D01*
X-8266286Y-3087135D02*
X-8348765Y-3134754D01*
X-8348765Y-3134754D02*
X-8378099Y-3179183D01*
X-8378099Y-3179183D02*
X-8386814Y-3211707D01*
X-8386814Y-3211707D02*
X-8383624Y-3264851D01*
X-8383624Y-3264851D02*
X-8336005Y-3347330D01*
X-8336005Y-3347330D02*
X-8291576Y-3376664D01*
X-8291576Y-3376664D02*
X-8259052Y-3385379D01*
X-8259052Y-3385379D02*
X-8205907Y-3382189D01*
X-8205907Y-3382189D02*
X-8123429Y-3334570D01*
X-8123429Y-3334570D02*
X-8094094Y-3290141D01*
X-8094094Y-3290141D02*
X-8085379Y-3257617D01*
X-8085379Y-3257617D02*
X-8088569Y-3204473D01*
X-8088569Y-3204473D02*
X-8136188Y-3121994D01*
X-8136188Y-3121994D02*
X-8180618Y-3092660D01*
X-8180618Y-3092660D02*
X-8213142Y-3083945D01*
X-8213142Y-3083945D02*
X-8266286Y-3087135D01*
D11*
X-8678629Y-4646746D02*
X-8827090Y-4732460D01*
X-8752860Y-4689603D02*
X-8902860Y-4429795D01*
X-8902860Y-4429795D02*
X-8906175Y-4481196D01*
X-8906175Y-4481196D02*
X-8916632Y-4520226D01*
X-8916632Y-4520226D02*
X-8934233Y-4546883D01*
D10*
X-1213891Y-9907142D02*
X-1713891Y-9907142D01*
X-1713891Y-9907142D02*
X-1713891Y-9788094D01*
X-1713891Y-9788094D02*
X-1690081Y-9716666D01*
X-1690081Y-9716666D02*
X-1642462Y-9669047D01*
X-1642462Y-9669047D02*
X-1594843Y-9645237D01*
X-1594843Y-9645237D02*
X-1499605Y-9621428D01*
X-1499605Y-9621428D02*
X-1428177Y-9621428D01*
X-1428177Y-9621428D02*
X-1332939Y-9645237D01*
X-1332939Y-9645237D02*
X-1285320Y-9669047D01*
X-1285320Y-9669047D02*
X-1237700Y-9716666D01*
X-1237700Y-9716666D02*
X-1213891Y-9788094D01*
X-1213891Y-9788094D02*
X-1213891Y-9907142D01*
X-1213891Y-9145237D02*
X-1213891Y-9430951D01*
X-1213891Y-9288094D02*
X-1713891Y-9288094D01*
X-1713891Y-9288094D02*
X-1642462Y-9335713D01*
X-1642462Y-9335713D02*
X-1594843Y-9383332D01*
X-1594843Y-9383332D02*
X-1571034Y-9430951D01*
X-1713891Y-8835714D02*
X-1713891Y-8788095D01*
X-1713891Y-8788095D02*
X-1690081Y-8740476D01*
X-1690081Y-8740476D02*
X-1666272Y-8716666D01*
X-1666272Y-8716666D02*
X-1618653Y-8692857D01*
X-1618653Y-8692857D02*
X-1523415Y-8669047D01*
X-1523415Y-8669047D02*
X-1404367Y-8669047D01*
X-1404367Y-8669047D02*
X-1309129Y-8692857D01*
X-1309129Y-8692857D02*
X-1261510Y-8716666D01*
X-1261510Y-8716666D02*
X-1237700Y-8740476D01*
X-1237700Y-8740476D02*
X-1213891Y-8788095D01*
X-1213891Y-8788095D02*
X-1213891Y-8835714D01*
X-1213891Y-8835714D02*
X-1237700Y-8883333D01*
X-1237700Y-8883333D02*
X-1261510Y-8907142D01*
X-1261510Y-8907142D02*
X-1309129Y-8930952D01*
X-1309129Y-8930952D02*
X-1404367Y-8954761D01*
X-1404367Y-8954761D02*
X-1523415Y-8954761D01*
X-1523415Y-8954761D02*
X-1618653Y-8930952D01*
X-1618653Y-8930952D02*
X-1666272Y-8907142D01*
X-1666272Y-8907142D02*
X-1690081Y-8883333D01*
X-1690081Y-8883333D02*
X-1713891Y-8835714D01*
D11*
X-315115Y-9839285D02*
X-315115Y-10010714D01*
X-315115Y-9924999D02*
X-615115Y-9924999D01*
X-615115Y-9924999D02*
X-572258Y-9953571D01*
X-572258Y-9953571D02*
X-543686Y-9982142D01*
X-543686Y-9982142D02*
X-529400Y-10010714D01*
D10*
X-9369048Y1173891D02*
X-9369048Y1673891D01*
X-9369048Y1673891D02*
X-9250000Y1673891D01*
X-9250000Y1673891D02*
X-9178572Y1650081D01*
X-9178572Y1650081D02*
X-9130953Y1602462D01*
X-9130953Y1602462D02*
X-9107143Y1554843D01*
X-9107143Y1554843D02*
X-9083334Y1459605D01*
X-9083334Y1459605D02*
X-9083334Y1388177D01*
X-9083334Y1388177D02*
X-9107143Y1292939D01*
X-9107143Y1292939D02*
X-9130953Y1245320D01*
X-9130953Y1245320D02*
X-9178572Y1197700D01*
X-9178572Y1197700D02*
X-9250000Y1173891D01*
X-9250000Y1173891D02*
X-9369048Y1173891D01*
X-8916667Y1673891D02*
X-8583334Y1673891D01*
X-8583334Y1673891D02*
X-8797619Y1173891D01*
D11*
X-9839286Y315115D02*
X-10010715Y315115D01*
X-9925000Y315115D02*
X-9925000Y615115D01*
X-9925000Y615115D02*
X-9953572Y572258D01*
X-9953572Y572258D02*
X-9982143Y543686D01*
X-9982143Y543686D02*
X-10010715Y529400D01*
D10*
X-7526889Y5701144D02*
X-7276889Y6134156D01*
X-7276889Y6134156D02*
X-7173790Y6074632D01*
X-7173790Y6074632D02*
X-7123836Y6018299D01*
X-7123836Y6018299D02*
X-7106406Y5953250D01*
X-7106406Y5953250D02*
X-7109596Y5900106D01*
X-7109596Y5900106D02*
X-7136596Y5805722D01*
X-7136596Y5805722D02*
X-7172310Y5743863D01*
X-7172310Y5743863D02*
X-7240549Y5673289D01*
X-7240549Y5673289D02*
X-7284978Y5643955D01*
X-7284978Y5643955D02*
X-7350027Y5626525D01*
X-7350027Y5626525D02*
X-7423790Y5641620D01*
X-7423790Y5641620D02*
X-7526889Y5701144D01*
X-6658299Y5777013D02*
X-6740778Y5824632D01*
X-6740778Y5824632D02*
X-6793922Y5827822D01*
X-6793922Y5827822D02*
X-6826446Y5819107D01*
X-6826446Y5819107D02*
X-6903400Y5781058D01*
X-6903400Y5781058D02*
X-6971638Y5710484D01*
X-6971638Y5710484D02*
X-7066877Y5545527D01*
X-7066877Y5545527D02*
X-7070066Y5492383D01*
X-7070066Y5492383D02*
X-7061352Y5459858D01*
X-7061352Y5459858D02*
X-7032017Y5415429D01*
X-7032017Y5415429D02*
X-6949538Y5367810D01*
X-6949538Y5367810D02*
X-6896394Y5364620D01*
X-6896394Y5364620D02*
X-6863870Y5373335D01*
X-6863870Y5373335D02*
X-6819441Y5402670D01*
X-6819441Y5402670D02*
X-6759917Y5505768D01*
X-6759917Y5505768D02*
X-6756727Y5558912D01*
X-6756727Y5558912D02*
X-6765442Y5591437D01*
X-6765442Y5591437D02*
X-6794776Y5635866D01*
X-6794776Y5635866D02*
X-6877255Y5683485D01*
X-6877255Y5683485D02*
X-6930399Y5686675D01*
X-6930399Y5686675D02*
X-6962924Y5677960D01*
X-6962924Y5677960D02*
X-7007353Y5648625D01*
D11*
X-8363514Y5192540D02*
X-8511976Y5278254D01*
X-8437745Y5235397D02*
X-8287745Y5495205D01*
X-8287745Y5495205D02*
X-8333917Y5472375D01*
X-8333917Y5472375D02*
X-8372947Y5461917D01*
X-8372947Y5461917D02*
X-8404833Y5463831D01*
D10*
X10316666Y1623891D02*
X10150000Y1861986D01*
X10030952Y1623891D02*
X10030952Y2123891D01*
X10030952Y2123891D02*
X10221428Y2123891D01*
X10221428Y2123891D02*
X10269047Y2100081D01*
X10269047Y2100081D02*
X10292857Y2076272D01*
X10292857Y2076272D02*
X10316666Y2028653D01*
X10316666Y2028653D02*
X10316666Y1957224D01*
X10316666Y1957224D02*
X10292857Y1909605D01*
X10292857Y1909605D02*
X10269047Y1885796D01*
X10269047Y1885796D02*
X10221428Y1861986D01*
X10221428Y1861986D02*
X10030952Y1861986D01*
X10507143Y2076272D02*
X10530952Y2100081D01*
X10530952Y2100081D02*
X10578571Y2123891D01*
X10578571Y2123891D02*
X10697619Y2123891D01*
X10697619Y2123891D02*
X10745238Y2100081D01*
X10745238Y2100081D02*
X10769047Y2076272D01*
X10769047Y2076272D02*
X10792857Y2028653D01*
X10792857Y2028653D02*
X10792857Y1981034D01*
X10792857Y1981034D02*
X10769047Y1909605D01*
X10769047Y1909605D02*
X10483333Y1623891D01*
X10483333Y1623891D02*
X10792857Y1623891D01*
X9642857Y3123891D02*
X9642857Y3623891D01*
X9642857Y3623891D02*
X9761905Y3623891D01*
X9761905Y3623891D02*
X9833333Y3600081D01*
X9833333Y3600081D02*
X9880952Y3552462D01*
X9880952Y3552462D02*
X9904762Y3504843D01*
X9904762Y3504843D02*
X9928571Y3409605D01*
X9928571Y3409605D02*
X9928571Y3338177D01*
X9928571Y3338177D02*
X9904762Y3242939D01*
X9904762Y3242939D02*
X9880952Y3195320D01*
X9880952Y3195320D02*
X9833333Y3147700D01*
X9833333Y3147700D02*
X9761905Y3123891D01*
X9761905Y3123891D02*
X9642857Y3123891D01*
X10404762Y3123891D02*
X10119048Y3123891D01*
X10261905Y3123891D02*
X10261905Y3623891D01*
X10261905Y3623891D02*
X10214286Y3552462D01*
X10214286Y3552462D02*
X10166667Y3504843D01*
X10166667Y3504843D02*
X10119048Y3481034D01*
X10571428Y3623891D02*
X10880952Y3623891D01*
X10880952Y3623891D02*
X10714285Y3433415D01*
X10714285Y3433415D02*
X10785714Y3433415D01*
X10785714Y3433415D02*
X10833333Y3409605D01*
X10833333Y3409605D02*
X10857142Y3385796D01*
X10857142Y3385796D02*
X10880952Y3338177D01*
X10880952Y3338177D02*
X10880952Y3219129D01*
X10880952Y3219129D02*
X10857142Y3171510D01*
X10857142Y3171510D02*
X10833333Y3147700D01*
X10833333Y3147700D02*
X10785714Y3123891D01*
X10785714Y3123891D02*
X10642857Y3123891D01*
X10642857Y3123891D02*
X10595238Y3147700D01*
X10595238Y3147700D02*
X10571428Y3171510D01*
X9093450Y3669660D02*
X8843450Y4102673D01*
X8843450Y4102673D02*
X8946548Y4162197D01*
X8946548Y4162197D02*
X9020312Y4177291D01*
X9020312Y4177291D02*
X9085361Y4159862D01*
X9085361Y4159862D02*
X9129790Y4130527D01*
X9129790Y4130527D02*
X9198029Y4059953D01*
X9198029Y4059953D02*
X9233743Y3998094D01*
X9233743Y3998094D02*
X9260742Y3903711D01*
X9260742Y3903711D02*
X9263932Y3850567D01*
X9263932Y3850567D02*
X9246502Y3785518D01*
X9246502Y3785518D02*
X9196548Y3729184D01*
X9196548Y3729184D02*
X9093450Y3669660D01*
X9279652Y4299529D02*
X9288367Y4332053D01*
X9288367Y4332053D02*
X9317702Y4376482D01*
X9317702Y4376482D02*
X9420800Y4436006D01*
X9420800Y4436006D02*
X9473944Y4439196D01*
X9473944Y4439196D02*
X9506469Y4430481D01*
X9506469Y4430481D02*
X9550898Y4401147D01*
X9550898Y4401147D02*
X9574707Y4359907D01*
X9574707Y4359907D02*
X9589802Y4286144D01*
X9589802Y4286144D02*
X9485223Y3895851D01*
X9485223Y3895851D02*
X9753279Y4050613D01*
D11*
X8961975Y4498832D02*
X8813514Y4413118D01*
X8887744Y4455975D02*
X8737744Y4715783D01*
X8737744Y4715783D02*
X8734429Y4664382D01*
X8734429Y4664382D02*
X8723972Y4625352D01*
X8723972Y4625352D02*
X8706371Y4598695D01*
D10*
X-3667905Y8700779D02*
X-3234892Y8950779D01*
X-3234892Y8950779D02*
X-3175368Y8847681D01*
X-3175368Y8847681D02*
X-3160274Y8773917D01*
X-3160274Y8773917D02*
X-3177703Y8708868D01*
X-3177703Y8708868D02*
X-3207038Y8664439D01*
X-3207038Y8664439D02*
X-3277612Y8596200D01*
X-3277612Y8596200D02*
X-3339471Y8560486D01*
X-3339471Y8560486D02*
X-3433854Y8533487D01*
X-3433854Y8533487D02*
X-3486998Y8530297D01*
X-3486998Y8530297D02*
X-3552047Y8547727D01*
X-3552047Y8547727D02*
X-3608381Y8597681D01*
X-3608381Y8597681D02*
X-3667905Y8700779D01*
X-2865844Y8311570D02*
X-2984892Y8517766D01*
X-2984892Y8517766D02*
X-3202993Y8419338D01*
X-3202993Y8419338D02*
X-3170469Y8410624D01*
X-3170469Y8410624D02*
X-3126040Y8381289D01*
X-3126040Y8381289D02*
X-3066516Y8278191D01*
X-3066516Y8278191D02*
X-3063326Y8225047D01*
X-3063326Y8225047D02*
X-3072041Y8192522D01*
X-3072041Y8192522D02*
X-3101376Y8148093D01*
X-3101376Y8148093D02*
X-3204474Y8088569D01*
X-3204474Y8088569D02*
X-3257618Y8085379D01*
X-3257618Y8085379D02*
X-3290142Y8094094D01*
X-3290142Y8094094D02*
X-3334571Y8123429D01*
X-3334571Y8123429D02*
X-3394095Y8226527D01*
X-3394095Y8226527D02*
X-3397285Y8279671D01*
X-3397285Y8279671D02*
X-3388570Y8312196D01*
D11*
X-4646747Y8678629D02*
X-4732461Y8827090D01*
X-4689604Y8752860D02*
X-4429796Y8902860D01*
X-4429796Y8902860D02*
X-4481197Y8906175D01*
X-4481197Y8906175D02*
X-4520227Y8916632D01*
X-4520227Y8916632D02*
X-4546884Y8934233D01*
D10*
X-5701144Y-7526888D02*
X-6134156Y-7276888D01*
X-6134156Y-7276888D02*
X-6074632Y-7173789D01*
X-6074632Y-7173789D02*
X-6018299Y-7123835D01*
X-6018299Y-7123835D02*
X-5953250Y-7106405D01*
X-5953250Y-7106405D02*
X-5900106Y-7109595D01*
X-5900106Y-7109595D02*
X-5805722Y-7136595D01*
X-5805722Y-7136595D02*
X-5743863Y-7172309D01*
X-5743863Y-7172309D02*
X-5673289Y-7240548D01*
X-5673289Y-7240548D02*
X-5643955Y-7284977D01*
X-5643955Y-7284977D02*
X-5626525Y-7350026D01*
X-5626525Y-7350026D02*
X-5641620Y-7423789D01*
X-5641620Y-7423789D02*
X-5701144Y-7526888D01*
X-5439239Y-7073255D02*
X-5391620Y-6990777D01*
X-5391620Y-6990777D02*
X-5388430Y-6937633D01*
X-5388430Y-6937633D02*
X-5397145Y-6905108D01*
X-5397145Y-6905108D02*
X-5435194Y-6828155D01*
X-5435194Y-6828155D02*
X-5505768Y-6759916D01*
X-5505768Y-6759916D02*
X-5670725Y-6664678D01*
X-5670725Y-6664678D02*
X-5723869Y-6661488D01*
X-5723869Y-6661488D02*
X-5756394Y-6670203D01*
X-5756394Y-6670203D02*
X-5800823Y-6699537D01*
X-5800823Y-6699537D02*
X-5848442Y-6782016D01*
X-5848442Y-6782016D02*
X-5851632Y-6835160D01*
X-5851632Y-6835160D02*
X-5842917Y-6867684D01*
X-5842917Y-6867684D02*
X-5813582Y-6912114D01*
X-5813582Y-6912114D02*
X-5710484Y-6971637D01*
X-5710484Y-6971637D02*
X-5657340Y-6974827D01*
X-5657340Y-6974827D02*
X-5624816Y-6966112D01*
X-5624816Y-6966112D02*
X-5580387Y-6936778D01*
X-5580387Y-6936778D02*
X-5532767Y-6854299D01*
X-5532767Y-6854299D02*
X-5529578Y-6801155D01*
X-5529578Y-6801155D02*
X-5538293Y-6768631D01*
X-5538293Y-6768631D02*
X-5567627Y-6724202D01*
D11*
X-5192540Y-8363513D02*
X-5278254Y-8511975D01*
X-5235397Y-8437744D02*
X-5495205Y-8287744D01*
X-5495205Y-8287744D02*
X-5472375Y-8333916D01*
X-5472375Y-8333916D02*
X-5461917Y-8372946D01*
X-5461917Y-8372946D02*
X-5463831Y-8404832D01*
D10*
X5723728Y6661570D02*
X5290716Y6911570D01*
X5290716Y6911570D02*
X5350240Y7014669D01*
X5350240Y7014669D02*
X5406573Y7064623D01*
X5406573Y7064623D02*
X5471622Y7082053D01*
X5471622Y7082053D02*
X5524766Y7078863D01*
X5524766Y7078863D02*
X5619150Y7051863D01*
X5619150Y7051863D02*
X5681009Y7016149D01*
X5681009Y7016149D02*
X5751583Y6947910D01*
X5751583Y6947910D02*
X5780917Y6903481D01*
X5780917Y6903481D02*
X5798347Y6838432D01*
X5798347Y6838432D02*
X5783252Y6764669D01*
X5783252Y6764669D02*
X5723728Y6661570D01*
X5516906Y7303344D02*
X5671668Y7571399D01*
X5671668Y7571399D02*
X5753292Y7331824D01*
X5753292Y7331824D02*
X5789006Y7393683D01*
X5789006Y7393683D02*
X5833435Y7423017D01*
X5833435Y7423017D02*
X5865960Y7431732D01*
X5865960Y7431732D02*
X5919104Y7428542D01*
X5919104Y7428542D02*
X6022202Y7369018D01*
X6022202Y7369018D02*
X6051537Y7324589D01*
X6051537Y7324589D02*
X6060252Y7292065D01*
X6060252Y7292065D02*
X6057062Y7238921D01*
X6057062Y7238921D02*
X5985633Y7115203D01*
X5985633Y7115203D02*
X5941204Y7085868D01*
X5941204Y7085868D02*
X5908680Y7077153D01*
D11*
X5511882Y8377091D02*
X5426168Y8228629D01*
X5469025Y8302860D02*
X5209217Y8452860D01*
X5209217Y8452860D02*
X5232047Y8406688D01*
X5232047Y8406688D02*
X5242505Y8367658D01*
X5242505Y8367658D02*
X5240591Y8335772D01*
D10*
X3338878Y-7483107D02*
X3663878Y-8046024D01*
X3901795Y-7158107D02*
X3338878Y-7483107D01*
X8150000Y-850000D02*
X8800000Y-850000D01*
X8150000Y-200000D02*
X8150000Y-850000D01*
X850000Y8150000D02*
X850000Y8800000D01*
X200000Y8150000D02*
X850000Y8150000D01*
X6633107Y-4811122D02*
X7196024Y-5136122D01*
X6958107Y-4248205D02*
X6633107Y-4811122D01*
X-7483107Y-3338878D02*
X-8046024Y-3663878D01*
X-7158107Y-3901795D02*
X-7483107Y-3338878D01*
X-850000Y-8150000D02*
X-850000Y-8800000D01*
X-200000Y-8150000D02*
X-850000Y-8150000D01*
X-8150000Y850000D02*
X-8800000Y850000D01*
X-8150000Y200000D02*
X-8150000Y850000D01*
X-6633107Y4811122D02*
X-7196024Y5136122D01*
X-6958107Y4248205D02*
X-6633107Y4811122D01*
D12*
X7912500Y3250000D02*
X7912500Y2450000D01*
X9272500Y3250000D02*
X7912500Y3250000D01*
X9272500Y2450000D02*
X7912500Y2450000D01*
D10*
X7483107Y3338878D02*
X8046024Y3663878D01*
X7158107Y3901795D02*
X7483107Y3338878D01*
X-3338878Y7483107D02*
X-3663878Y8046024D01*
X-3901795Y7158107D02*
X-3338878Y7483107D01*
X-4811122Y-6633107D02*
X-5136122Y-7196024D01*
X-4248205Y-6958107D02*
X-4811122Y-6633107D01*
X4811122Y6633107D02*
X5136122Y7196024D01*
X4248205Y6958107D02*
X4811122Y6633107D01*
M02*
