G04 #@! TF.GenerationSoftware,KiCad,Pcbnew,7.0.5.1-1-g8f565ef7f0-dirty-deb11*
G04 #@! TF.CreationDate,2023-06-03T17:43:20+00:00*
G04 #@! TF.ProjectId,pedalboard-led-ring,70656461-6c62-46f6-9172-642d6c65642d,1.0.0*
G04 #@! TF.SameCoordinates,Original*
G04 #@! TF.FileFunction,Copper,L2,Bot*
G04 #@! TF.FilePolarity,Positive*
%FSLAX46Y46*%
G04 Gerber Fmt 4.6, Leading zero omitted, Abs format (unit mm)*
G04 Created by KiCad (PCBNEW 7.0.5.1-1-g8f565ef7f0-dirty-deb11) date 2023-06-03 17:43:20*
%MOMM*%
%LPD*%
G01*
G04 APERTURE LIST*
G04 #@! TA.AperFunction,SMDPad,CuDef*
%ADD10R,1.000000X2.750000*%
G04 #@! TD*
G04 #@! TA.AperFunction,SMDPad,CuDef*
%ADD11R,2.750000X1.000000*%
G04 #@! TD*
G04 #@! TA.AperFunction,ViaPad*
%ADD12C,0.800000*%
G04 #@! TD*
G04 #@! TA.AperFunction,Conductor*
%ADD13C,0.250000*%
G04 #@! TD*
G04 APERTURE END LIST*
D10*
X11000000Y3125000D03*
X11000000Y-3125000D03*
X9000000Y3125000D03*
X9000000Y-3125000D03*
D11*
X13125000Y-11000000D03*
X6875000Y-11000000D03*
X13125000Y-9000000D03*
X6875000Y-9000000D03*
D12*
X6800000Y-3600000D03*
X-6000000Y8000000D03*
X9928203Y1196152D03*
X-9928203Y-1196152D03*
X-3928203Y-9196152D03*
X1196152Y-9928203D03*
X3928203Y9196152D03*
X-8000000Y-6000000D03*
X6400000Y-7700000D03*
X-9196152Y3928203D03*
X8000000Y6000000D03*
X8500000Y-6000000D03*
X-1196152Y9928203D03*
X10600000Y-1400000D03*
X5100000Y-10600000D03*
X11400000Y-1400000D03*
X11400000Y-4900000D03*
X10700000Y-4900000D03*
X8600000Y-10600000D03*
X8600000Y-11400000D03*
X5100000Y-11400000D03*
X7910000Y-1820000D03*
D13*
X4800000Y-7100000D02*
X6800000Y-5100000D01*
X9000000Y-3125000D02*
X8125000Y-4000000D01*
X5400000Y-9000000D02*
X4800000Y-8400000D01*
X6875000Y-9000000D02*
X5400000Y-9000000D01*
X4800000Y-8400000D02*
X4800000Y-7100000D01*
X7200000Y-4000000D02*
X6800000Y-3600000D01*
X8125000Y-4000000D02*
X7200000Y-4000000D01*
X6800000Y-5100000D02*
X6800000Y-3600000D01*
X11400000Y-1400000D02*
X11400000Y-4900000D01*
X5100000Y-10600000D02*
X5100000Y-11400000D01*
X8600000Y-10600000D02*
X8600000Y-11400000D01*
X10700000Y-1500000D02*
X10700000Y-4900000D01*
X10600000Y-1400000D02*
X11400000Y-1400000D01*
X10600000Y-1400000D02*
X10700000Y-1500000D01*
X5100000Y-11400000D02*
X8600000Y-11400000D01*
X10700000Y-4900000D02*
X11400000Y-4900000D01*
X5100000Y-10600000D02*
X8600000Y-10600000D01*
X8000000Y3000000D02*
X8000000Y-1730000D01*
X8000000Y-1730000D02*
X7910000Y-1820000D01*
X12800000Y-500000D02*
X12800000Y-8675000D01*
X9000000Y3125000D02*
X8125000Y3125000D01*
X8125000Y3125000D02*
X8000000Y3000000D01*
X7910000Y-1820000D02*
X9230000Y-500000D01*
X9230000Y-500000D02*
X12800000Y-500000D01*
G04 #@! TA.AperFunction,Conductor*
G36*
X14002140Y11999313D02*
G01*
X14045464Y11995523D01*
X14173816Y11982881D01*
X14189696Y11979992D01*
X14257626Y11961791D01*
X14259036Y11961388D01*
X14353264Y11932804D01*
X14366359Y11927793D01*
X14435690Y11895464D01*
X14438085Y11894267D01*
X14522989Y11848885D01*
X14528052Y11845775D01*
X14595221Y11798742D01*
X14598233Y11796457D01*
X14632865Y11768036D01*
X14671280Y11736509D01*
X14674877Y11733249D01*
X14733247Y11674879D01*
X14736512Y11671277D01*
X14796455Y11598235D01*
X14798740Y11595223D01*
X14845773Y11528054D01*
X14848883Y11522991D01*
X14894255Y11438107D01*
X14895462Y11435692D01*
X14927791Y11366361D01*
X14932804Y11353261D01*
X14961364Y11259113D01*
X14961809Y11257555D01*
X14979986Y11189718D01*
X14982882Y11173798D01*
X14995520Y11045475D01*
X14999311Y11002157D01*
X14999500Y10997839D01*
X14999500Y-10997837D01*
X14999311Y-11002155D01*
X14995520Y-11045473D01*
X14989134Y-11110308D01*
X14964614Y-11166365D01*
X14911827Y-11197304D01*
X14850937Y-11191307D01*
X14820607Y-11170608D01*
X14799999Y-11150000D01*
X13275001Y-11150000D01*
X13275000Y-11150001D01*
X13275000Y-11799998D01*
X13275001Y-11799999D01*
X14012829Y-11799999D01*
X14071020Y-11818906D01*
X14106984Y-11868406D01*
X14106984Y-11929592D01*
X14071020Y-11979092D01*
X14021460Y-11997622D01*
X14002155Y-11999311D01*
X13997838Y-11999500D01*
X9096071Y-11999500D01*
X9037880Y-11980593D01*
X9001916Y-11931093D01*
X9001916Y-11869907D01*
X9026067Y-11830496D01*
X9028273Y-11828288D01*
X9028282Y-11828282D01*
X9124536Y-11702841D01*
X9185044Y-11556762D01*
X9205682Y-11400000D01*
X9185044Y-11243238D01*
X9185042Y-11243233D01*
X9146424Y-11150000D01*
X11450001Y-11150000D01*
X11450001Y-11544791D01*
X11452909Y-11569874D01*
X11498213Y-11672477D01*
X11577522Y-11751786D01*
X11680127Y-11797090D01*
X11705203Y-11799999D01*
X12974998Y-11799999D01*
X12975000Y-11799998D01*
X12975000Y-11150001D01*
X12974999Y-11150000D01*
X11450001Y-11150000D01*
X9146424Y-11150000D01*
X9124537Y-11097161D01*
X9124536Y-11097160D01*
X9124536Y-11097159D01*
X9096227Y-11060266D01*
X9075804Y-11002592D01*
X9093181Y-10943926D01*
X9096228Y-10939732D01*
X9096229Y-10939731D01*
X9124536Y-10902841D01*
X9146424Y-10849999D01*
X11450000Y-10849999D01*
X11450001Y-10850000D01*
X12974999Y-10850000D01*
X12975000Y-10849999D01*
X13275000Y-10849999D01*
X13275001Y-10850000D01*
X14799998Y-10850000D01*
X14799999Y-10849999D01*
X14799999Y-10455210D01*
X14799998Y-10455208D01*
X14797090Y-10430125D01*
X14751786Y-10327522D01*
X14672477Y-10248213D01*
X14569872Y-10202909D01*
X14544797Y-10200000D01*
X13275001Y-10200000D01*
X13275000Y-10200001D01*
X13275000Y-10849999D01*
X12975000Y-10849999D01*
X12975000Y-10200001D01*
X12974999Y-10200000D01*
X11705210Y-10200000D01*
X11705208Y-10200001D01*
X11680125Y-10202909D01*
X11577522Y-10248213D01*
X11498213Y-10327522D01*
X11452909Y-10430127D01*
X11450000Y-10455202D01*
X11450000Y-10849999D01*
X9146424Y-10849999D01*
X9185044Y-10756762D01*
X9205682Y-10600000D01*
X9185044Y-10443238D01*
X9124537Y-10297161D01*
X9124537Y-10297160D01*
X9028286Y-10171723D01*
X9028285Y-10171722D01*
X9028282Y-10171718D01*
X9028277Y-10171714D01*
X9028276Y-10171713D01*
X8902838Y-10075462D01*
X8756766Y-10014957D01*
X8756758Y-10014955D01*
X8600001Y-9994318D01*
X8599999Y-9994318D01*
X8443241Y-10014955D01*
X8443233Y-10014957D01*
X8297161Y-10075462D01*
X8297160Y-10075462D01*
X8171723Y-10171713D01*
X8171714Y-10171722D01*
X8147784Y-10202909D01*
X8122854Y-10235400D01*
X8122572Y-10235767D01*
X8072148Y-10270423D01*
X8044030Y-10274500D01*
X5655970Y-10274500D01*
X5597779Y-10255593D01*
X5577428Y-10235767D01*
X5577146Y-10235400D01*
X5528282Y-10171718D01*
X5528277Y-10171714D01*
X5528276Y-10171713D01*
X5402838Y-10075462D01*
X5256766Y-10014957D01*
X5256758Y-10014955D01*
X5100001Y-9994318D01*
X5099999Y-9994318D01*
X4943241Y-10014955D01*
X4943233Y-10014957D01*
X4797161Y-10075462D01*
X4797160Y-10075462D01*
X4671723Y-10171713D01*
X4671713Y-10171723D01*
X4575462Y-10297160D01*
X4575462Y-10297161D01*
X4514957Y-10443233D01*
X4514955Y-10443241D01*
X4512266Y-10463667D01*
X4494318Y-10600000D01*
X4514956Y-10756762D01*
X4575464Y-10902841D01*
X4603773Y-10939734D01*
X4624196Y-10997407D01*
X4606819Y-11056073D01*
X4603773Y-11060265D01*
X4575464Y-11097158D01*
X4575463Y-11097160D01*
X4514957Y-11243236D01*
X4514955Y-11243241D01*
X4494318Y-11399999D01*
X4494318Y-11400000D01*
X4514955Y-11556758D01*
X4514957Y-11556766D01*
X4575462Y-11702838D01*
X4575462Y-11702839D01*
X4671713Y-11828276D01*
X4671718Y-11828282D01*
X4671722Y-11828285D01*
X4673933Y-11830496D01*
X4674953Y-11832498D01*
X4675668Y-11833430D01*
X4675495Y-11833562D01*
X4701710Y-11885013D01*
X4692139Y-11945445D01*
X4648874Y-11988710D01*
X4603929Y-11999500D01*
X-10997838Y-11999500D01*
X-11002156Y-11999311D01*
X-11045475Y-11995520D01*
X-11173798Y-11982882D01*
X-11189716Y-11979986D01*
X-11226609Y-11970101D01*
X-11257555Y-11961809D01*
X-11259113Y-11961364D01*
X-11353261Y-11932804D01*
X-11366361Y-11927791D01*
X-11435692Y-11895462D01*
X-11438107Y-11894255D01*
X-11522991Y-11848883D01*
X-11528054Y-11845773D01*
X-11595223Y-11798740D01*
X-11598235Y-11796455D01*
X-11671277Y-11736512D01*
X-11674879Y-11733247D01*
X-11733249Y-11674877D01*
X-11736514Y-11671275D01*
X-11796457Y-11598233D01*
X-11798742Y-11595221D01*
X-11825672Y-11556762D01*
X-11845778Y-11528048D01*
X-11848885Y-11522989D01*
X-11894267Y-11438085D01*
X-11895464Y-11435690D01*
X-11927793Y-11366359D01*
X-11932806Y-11353259D01*
X-11961388Y-11259036D01*
X-11961791Y-11257626D01*
X-11979992Y-11189696D01*
X-11982881Y-11173816D01*
X-11995524Y-11045447D01*
X-11996132Y-11038495D01*
X-11999313Y-11002140D01*
X-11999500Y-10997840D01*
X-11999500Y-10000004D01*
X-11355659Y-10000004D01*
X-11335065Y-10235400D01*
X-11335064Y-10235407D01*
X-11335063Y-10235408D01*
X-11310381Y-10327522D01*
X-11273902Y-10463667D01*
X-11174041Y-10677818D01*
X-11174037Y-10677826D01*
X-11053481Y-10850000D01*
X-11038495Y-10871401D01*
X-10871401Y-11038495D01*
X-10871398Y-11038497D01*
X-10871397Y-11038498D01*
X-10846297Y-11056073D01*
X-10677829Y-11174035D01*
X-10677828Y-11174035D01*
X-10677827Y-11174036D01*
X-10677819Y-11174040D01*
X-10463667Y-11273901D01*
X-10463663Y-11273903D01*
X-10235408Y-11335063D01*
X-10235404Y-11335063D01*
X-10235401Y-11335064D01*
X-10058974Y-11350500D01*
X-10058966Y-11350500D01*
X-9941026Y-11350500D01*
X-9764600Y-11335064D01*
X-9764599Y-11335063D01*
X-9764592Y-11335063D01*
X-9536337Y-11273903D01*
X-9322171Y-11174035D01*
X-9128599Y-11038495D01*
X-8961505Y-10871401D01*
X-8825965Y-10677830D01*
X-8726097Y-10463663D01*
X-8664937Y-10235408D01*
X-8664936Y-10235400D01*
X-8644341Y-10000004D01*
X-8644341Y-9999995D01*
X-8664936Y-9764599D01*
X-8664937Y-9764596D01*
X-8664937Y-9764592D01*
X-8726097Y-9536337D01*
X-8733828Y-9519758D01*
X-8825960Y-9322181D01*
X-8825964Y-9322173D01*
X-8834076Y-9310588D01*
X-8961505Y-9128599D01*
X-9128599Y-8961505D01*
X-9128603Y-8961502D01*
X-9128604Y-8961501D01*
X-9322174Y-8825963D01*
X-9322182Y-8825959D01*
X-9536334Y-8726098D01*
X-9536333Y-8726098D01*
X-9612423Y-8705710D01*
X-9764592Y-8664937D01*
X-9764593Y-8664936D01*
X-9764600Y-8664935D01*
X-9941026Y-8649500D01*
X-9941034Y-8649500D01*
X-10058966Y-8649500D01*
X-10058974Y-8649500D01*
X-10235401Y-8664935D01*
X-10463668Y-8726098D01*
X-10677819Y-8825959D01*
X-10677827Y-8825963D01*
X-10871397Y-8961501D01*
X-11038499Y-9128603D01*
X-11174036Y-9322171D01*
X-11273903Y-9536337D01*
X-11335065Y-9764599D01*
X-11355659Y-9999995D01*
X-11355659Y-10000004D01*
X-11999500Y-10000004D01*
X-11999500Y-8428806D01*
X4470736Y-8428806D01*
X4481354Y-8468436D01*
X4482289Y-8472652D01*
X4489411Y-8513045D01*
X4490164Y-8514348D01*
X4500054Y-8538224D01*
X4500443Y-8539679D01*
X4500446Y-8539684D01*
X4523971Y-8573281D01*
X4526292Y-8576924D01*
X4546806Y-8612455D01*
X4578224Y-8638818D01*
X4581410Y-8641737D01*
X5158257Y-9218584D01*
X5161175Y-9221769D01*
X5187544Y-9253193D01*
X5187545Y-9253194D01*
X5223073Y-9273706D01*
X5226712Y-9276024D01*
X5257283Y-9297430D01*
X5294106Y-9346295D01*
X5299500Y-9378527D01*
X5299500Y-9519746D01*
X5299501Y-9519758D01*
X5311132Y-9578227D01*
X5311133Y-9578231D01*
X5355448Y-9644552D01*
X5421769Y-9688867D01*
X5466231Y-9697711D01*
X5480241Y-9700498D01*
X5480246Y-9700498D01*
X5480252Y-9700500D01*
X5480253Y-9700500D01*
X8269747Y-9700500D01*
X8269748Y-9700500D01*
X8328231Y-9688867D01*
X8394552Y-9644552D01*
X8438867Y-9578231D01*
X8450500Y-9519748D01*
X8450500Y-8480252D01*
X8438867Y-8421769D01*
X8394552Y-8355448D01*
X8394548Y-8355445D01*
X8328233Y-8311134D01*
X8328231Y-8311133D01*
X8328228Y-8311132D01*
X8328227Y-8311132D01*
X8269758Y-8299501D01*
X8269748Y-8299500D01*
X5480252Y-8299500D01*
X5480251Y-8299500D01*
X5480241Y-8299501D01*
X5421772Y-8311132D01*
X5421766Y-8311134D01*
X5347341Y-8360865D01*
X5346659Y-8359845D01*
X5301091Y-8383059D01*
X5240659Y-8373483D01*
X5215607Y-8355281D01*
X5154496Y-8294170D01*
X5126719Y-8239653D01*
X5125500Y-8224166D01*
X5125500Y-7275833D01*
X5144407Y-7217642D01*
X5154490Y-7205835D01*
X7018583Y-5341741D01*
X7021760Y-5338829D01*
X7053194Y-5312455D01*
X7073714Y-5276911D01*
X7076012Y-5273303D01*
X7099554Y-5239684D01*
X7099941Y-5238236D01*
X7109838Y-5214345D01*
X7110586Y-5213048D01*
X7110585Y-5213048D01*
X7110588Y-5213045D01*
X7117713Y-5172628D01*
X7118641Y-5168443D01*
X7129263Y-5128807D01*
X7125687Y-5087934D01*
X7125500Y-5083634D01*
X7125500Y-4424500D01*
X7144407Y-4366309D01*
X7193907Y-4330345D01*
X7224500Y-4325500D01*
X8108626Y-4325500D01*
X8112926Y-4325687D01*
X8153807Y-4329264D01*
X8174876Y-4323618D01*
X8235976Y-4326819D01*
X8283527Y-4365322D01*
X8299500Y-4419244D01*
X8299500Y-4519746D01*
X8299501Y-4519758D01*
X8311132Y-4578227D01*
X8311134Y-4578233D01*
X8355445Y-4644548D01*
X8355448Y-4644552D01*
X8421769Y-4688867D01*
X8466231Y-4697711D01*
X8480241Y-4700498D01*
X8480246Y-4700498D01*
X8480252Y-4700500D01*
X8480253Y-4700500D01*
X9519747Y-4700500D01*
X9519748Y-4700500D01*
X9578231Y-4688867D01*
X9644552Y-4644552D01*
X9688867Y-4578231D01*
X9700500Y-4519748D01*
X9700500Y-1730252D01*
X9688867Y-1671769D01*
X9644552Y-1605448D01*
X9644548Y-1605445D01*
X9578233Y-1561134D01*
X9578231Y-1561133D01*
X9578228Y-1561132D01*
X9578227Y-1561132D01*
X9519758Y-1549501D01*
X9519748Y-1549500D01*
X9519747Y-1549500D01*
X8879834Y-1549500D01*
X8821643Y-1530593D01*
X8785679Y-1481093D01*
X8785679Y-1419907D01*
X8809830Y-1380496D01*
X9335830Y-854496D01*
X9390347Y-826719D01*
X9405834Y-825500D01*
X10083163Y-825500D01*
X10141354Y-844407D01*
X10177318Y-893907D01*
X10177318Y-955093D01*
X10161705Y-984767D01*
X10075462Y-1097160D01*
X10075462Y-1097161D01*
X10014957Y-1243233D01*
X10014955Y-1243241D01*
X9994318Y-1399999D01*
X9994318Y-1400000D01*
X10014955Y-1556758D01*
X10014957Y-1556766D01*
X10075462Y-1702838D01*
X10075462Y-1702839D01*
X10165362Y-1819999D01*
X10171718Y-1828282D01*
X10171722Y-1828285D01*
X10171723Y-1828286D01*
X10260767Y-1896612D01*
X10295423Y-1947037D01*
X10299500Y-1975154D01*
X10299500Y-4402929D01*
X10280593Y-4461120D01*
X10273276Y-4469687D01*
X10175462Y-4597160D01*
X10175462Y-4597161D01*
X10114957Y-4743233D01*
X10114955Y-4743241D01*
X10094318Y-4899999D01*
X10094318Y-4900000D01*
X10114955Y-5056758D01*
X10114957Y-5056766D01*
X10175462Y-5202838D01*
X10175462Y-5202839D01*
X10271713Y-5328276D01*
X10271718Y-5328282D01*
X10397159Y-5424536D01*
X10543238Y-5485044D01*
X10660809Y-5500522D01*
X10699999Y-5505682D01*
X10700000Y-5505682D01*
X10700001Y-5505682D01*
X10731352Y-5501554D01*
X10856762Y-5485044D01*
X10910470Y-5462797D01*
X11008837Y-5422053D01*
X11009623Y-5423950D01*
X11060338Y-5413165D01*
X11090751Y-5423047D01*
X11091163Y-5422053D01*
X11243233Y-5485042D01*
X11243238Y-5485044D01*
X11360809Y-5500522D01*
X11399999Y-5505682D01*
X11400000Y-5505682D01*
X11400001Y-5505682D01*
X11431352Y-5501554D01*
X11556762Y-5485044D01*
X11702841Y-5424536D01*
X11828282Y-5328282D01*
X11924536Y-5202841D01*
X11985044Y-5056762D01*
X12005682Y-4900000D01*
X11985044Y-4743238D01*
X11967341Y-4700500D01*
X11924537Y-4597161D01*
X11924537Y-4597160D01*
X11828281Y-4471717D01*
X11764232Y-4422570D01*
X11729577Y-4372145D01*
X11725500Y-4344028D01*
X11725500Y-1955970D01*
X11744407Y-1897779D01*
X11764233Y-1877428D01*
X11828282Y-1828282D01*
X11924536Y-1702841D01*
X11985044Y-1556762D01*
X12005682Y-1400000D01*
X11985044Y-1243238D01*
X11924537Y-1097161D01*
X11924537Y-1097160D01*
X11838295Y-984767D01*
X11817871Y-927091D01*
X11835249Y-868426D01*
X11883790Y-831178D01*
X11916837Y-825500D01*
X12375500Y-825500D01*
X12433691Y-844407D01*
X12469655Y-893907D01*
X12474500Y-924500D01*
X12474500Y-8200500D01*
X12455593Y-8258691D01*
X12406093Y-8294655D01*
X12375500Y-8299500D01*
X11730252Y-8299500D01*
X11730251Y-8299500D01*
X11730241Y-8299501D01*
X11671772Y-8311132D01*
X11671766Y-8311134D01*
X11605451Y-8355445D01*
X11605445Y-8355451D01*
X11561134Y-8421766D01*
X11561132Y-8421772D01*
X11549501Y-8480241D01*
X11549500Y-8480253D01*
X11549500Y-9519746D01*
X11549501Y-9519758D01*
X11561132Y-9578227D01*
X11561133Y-9578231D01*
X11605448Y-9644552D01*
X11671769Y-9688867D01*
X11716231Y-9697711D01*
X11730241Y-9700498D01*
X11730246Y-9700498D01*
X11730252Y-9700500D01*
X11730253Y-9700500D01*
X14519747Y-9700500D01*
X14519748Y-9700500D01*
X14578231Y-9688867D01*
X14644552Y-9644552D01*
X14688867Y-9578231D01*
X14700500Y-9519748D01*
X14700500Y-8480252D01*
X14688867Y-8421769D01*
X14644552Y-8355448D01*
X14644548Y-8355445D01*
X14578233Y-8311134D01*
X14578231Y-8311133D01*
X14578228Y-8311132D01*
X14578227Y-8311132D01*
X14519758Y-8299501D01*
X14519748Y-8299500D01*
X14519747Y-8299500D01*
X13224500Y-8299500D01*
X13166309Y-8280593D01*
X13130345Y-8231093D01*
X13125500Y-8200500D01*
X13125500Y-442606D01*
X13118569Y-423563D01*
X13114107Y-406912D01*
X13110588Y-386955D01*
X13100460Y-369412D01*
X13093168Y-353774D01*
X13086240Y-334741D01*
X13086240Y-334740D01*
X13073216Y-319219D01*
X13063321Y-305086D01*
X13053194Y-287545D01*
X13037672Y-274520D01*
X13025471Y-262318D01*
X13012454Y-246805D01*
X12994912Y-236677D01*
X12980777Y-226779D01*
X12965263Y-213761D01*
X12965258Y-213758D01*
X12946221Y-206829D01*
X12930587Y-199539D01*
X12913046Y-189412D01*
X12893094Y-185894D01*
X12876426Y-181427D01*
X12857395Y-174500D01*
X12857394Y-174500D01*
X12828475Y-174500D01*
X9246374Y-174500D01*
X9242073Y-174312D01*
X9201193Y-170736D01*
X9201187Y-170736D01*
X9161564Y-181353D01*
X9157349Y-182287D01*
X9116960Y-189410D01*
X9116948Y-189414D01*
X9115640Y-190170D01*
X9091786Y-200051D01*
X9090324Y-200442D01*
X9090316Y-200446D01*
X9056716Y-223972D01*
X9053080Y-226288D01*
X9052231Y-226779D01*
X9017545Y-246805D01*
X8991181Y-278224D01*
X8988263Y-281408D01*
X8494503Y-775169D01*
X8439986Y-802946D01*
X8379554Y-793375D01*
X8336289Y-750110D01*
X8325500Y-705169D01*
X8325500Y1459651D01*
X8344407Y1517842D01*
X8393907Y1553806D01*
X8443814Y1556748D01*
X8471612Y1551219D01*
X8480246Y1549501D01*
X8480249Y1549501D01*
X8480252Y1549500D01*
X8480253Y1549500D01*
X9519747Y1549500D01*
X9519748Y1549500D01*
X9578231Y1561133D01*
X9644552Y1605448D01*
X9688867Y1671769D01*
X9700500Y1730252D01*
X9700500Y2975000D01*
X10200001Y2975000D01*
X10200001Y1705209D01*
X10202909Y1680126D01*
X10248213Y1577523D01*
X10327522Y1498214D01*
X10430127Y1452910D01*
X10455203Y1450001D01*
X10849998Y1450001D01*
X10850000Y1450002D01*
X11150000Y1450002D01*
X11150001Y1450001D01*
X11544790Y1450001D01*
X11544791Y1450002D01*
X11569874Y1452910D01*
X11672477Y1498214D01*
X11751786Y1577523D01*
X11797090Y1680128D01*
X11799999Y1705203D01*
X11800000Y1705206D01*
X11800000Y2974999D01*
X11799999Y2975000D01*
X11150001Y2975000D01*
X11150000Y2974999D01*
X11150000Y1450002D01*
X10850000Y1450002D01*
X10850000Y2974999D01*
X10849999Y2975000D01*
X10200001Y2975000D01*
X9700500Y2975000D01*
X9700500Y3275001D01*
X10200000Y3275001D01*
X10200001Y3275000D01*
X10849999Y3275000D01*
X10850000Y3275001D01*
X10850000Y4800000D01*
X11150000Y4800000D01*
X11150000Y3275001D01*
X11150001Y3275000D01*
X11799998Y3275000D01*
X11799999Y3275002D01*
X11799999Y4544791D01*
X11799998Y4544792D01*
X11797090Y4569875D01*
X11751786Y4672478D01*
X11672477Y4751787D01*
X11569872Y4797091D01*
X11544797Y4800000D01*
X11150000Y4800000D01*
X10850000Y4800000D01*
X10455210Y4800000D01*
X10455207Y4799999D01*
X10430125Y4797091D01*
X10327522Y4751787D01*
X10248213Y4672478D01*
X10202909Y4569873D01*
X10200000Y4544798D01*
X10200000Y3275001D01*
X9700500Y3275001D01*
X9700500Y4519748D01*
X9688867Y4578231D01*
X9644552Y4644552D01*
X9644548Y4644555D01*
X9578233Y4688866D01*
X9578231Y4688867D01*
X9578228Y4688868D01*
X9578227Y4688868D01*
X9519758Y4700499D01*
X9519748Y4700500D01*
X8480252Y4700500D01*
X8480251Y4700500D01*
X8480241Y4700499D01*
X8421772Y4688868D01*
X8421766Y4688866D01*
X8355451Y4644555D01*
X8355445Y4644549D01*
X8311134Y4578234D01*
X8311132Y4578228D01*
X8299501Y4519759D01*
X8299500Y4519747D01*
X8299500Y3549500D01*
X8280593Y3491309D01*
X8231093Y3455345D01*
X8200500Y3450500D01*
X8141374Y3450500D01*
X8137073Y3450688D01*
X8096193Y3454264D01*
X8096187Y3454264D01*
X8056564Y3443647D01*
X8052349Y3442713D01*
X8011960Y3435590D01*
X8011948Y3435586D01*
X8010640Y3434830D01*
X7986786Y3424949D01*
X7985324Y3424558D01*
X7985316Y3424554D01*
X7951716Y3401028D01*
X7948080Y3398712D01*
X7939875Y3393975D01*
X7912545Y3378195D01*
X7886181Y3346776D01*
X7883263Y3343592D01*
X7781413Y3241741D01*
X7778229Y3238824D01*
X7746807Y3212458D01*
X7746806Y3212456D01*
X7726292Y3176925D01*
X7723972Y3173284D01*
X7700446Y3139684D01*
X7700442Y3139676D01*
X7700051Y3138214D01*
X7690170Y3114360D01*
X7689414Y3113052D01*
X7689410Y3113040D01*
X7682287Y3072651D01*
X7681353Y3068436D01*
X7670736Y3028813D01*
X7670736Y3028807D01*
X7674312Y2987928D01*
X7674500Y2983627D01*
X7674500Y-1201420D01*
X7655593Y-1259611D01*
X7613389Y-1292883D01*
X7607160Y-1295463D01*
X7481723Y-1391713D01*
X7481713Y-1391723D01*
X7385462Y-1517160D01*
X7385462Y-1517161D01*
X7324957Y-1663233D01*
X7324955Y-1663241D01*
X7304318Y-1819999D01*
X7304318Y-1820000D01*
X7324955Y-1976758D01*
X7324957Y-1976766D01*
X7385462Y-2122838D01*
X7385462Y-2122839D01*
X7385464Y-2122841D01*
X7481718Y-2248282D01*
X7607159Y-2344536D01*
X7607160Y-2344536D01*
X7607161Y-2344537D01*
X7657384Y-2365340D01*
X7753238Y-2405044D01*
X7870809Y-2420522D01*
X7909999Y-2425682D01*
X7910000Y-2425682D01*
X7910001Y-2425682D01*
X7941352Y-2421554D01*
X8066762Y-2405044D01*
X8162616Y-2365339D01*
X8223611Y-2360539D01*
X8275780Y-2392508D01*
X8299195Y-2449036D01*
X8299500Y-2456804D01*
X8299500Y-3324166D01*
X8280593Y-3382357D01*
X8270504Y-3394169D01*
X8019171Y-3645503D01*
X7964654Y-3673281D01*
X7949167Y-3674500D01*
X7502311Y-3674500D01*
X7444120Y-3655593D01*
X7408156Y-3606093D01*
X7404158Y-3588422D01*
X7385044Y-3443241D01*
X7385044Y-3443238D01*
X7324537Y-3297161D01*
X7324537Y-3297160D01*
X7228286Y-3171723D01*
X7228285Y-3171722D01*
X7228282Y-3171718D01*
X7228277Y-3171714D01*
X7228276Y-3171713D01*
X7102838Y-3075462D01*
X6956766Y-3014957D01*
X6956758Y-3014955D01*
X6800001Y-2994318D01*
X6799999Y-2994318D01*
X6643241Y-3014955D01*
X6643233Y-3014957D01*
X6497161Y-3075462D01*
X6497160Y-3075462D01*
X6371723Y-3171713D01*
X6371713Y-3171723D01*
X6275462Y-3297160D01*
X6275462Y-3297161D01*
X6214957Y-3443233D01*
X6214955Y-3443241D01*
X6194318Y-3599999D01*
X6194318Y-3600000D01*
X6214955Y-3756758D01*
X6214957Y-3756766D01*
X6275462Y-3902838D01*
X6275462Y-3902839D01*
X6275464Y-3902841D01*
X6371718Y-4028282D01*
X6398280Y-4048664D01*
X6435767Y-4077428D01*
X6470423Y-4127852D01*
X6474500Y-4155970D01*
X6474500Y-4924164D01*
X6455593Y-4982355D01*
X6445504Y-4994168D01*
X4581413Y-6858259D01*
X4578229Y-6861176D01*
X4546807Y-6887542D01*
X4546806Y-6887544D01*
X4526292Y-6923075D01*
X4523972Y-6926716D01*
X4500446Y-6960316D01*
X4500442Y-6960324D01*
X4500051Y-6961786D01*
X4490170Y-6985640D01*
X4489414Y-6986948D01*
X4489410Y-6986960D01*
X4482287Y-7027349D01*
X4481353Y-7031564D01*
X4470736Y-7071187D01*
X4470736Y-7071193D01*
X4474312Y-7112072D01*
X4474500Y-7116373D01*
X4474500Y-8383625D01*
X4474312Y-8387927D01*
X4471352Y-8421766D01*
X4470736Y-8428806D01*
X-11999500Y-8428806D01*
X-11999500Y0D01*
X-6105452Y0D01*
X-6085654Y-491285D01*
X-6085654Y-491291D01*
X-6085653Y-491297D01*
X-6085653Y-491306D01*
X-6026391Y-979365D01*
X-6026387Y-979392D01*
X-5928038Y-1461136D01*
X-5928038Y-1461137D01*
X-5791250Y-1933386D01*
X-5791247Y-1933395D01*
X-5719399Y-2122841D01*
X-5616890Y-2393133D01*
X-5462044Y-2719464D01*
X-5407422Y-2834579D01*
X-5406109Y-2837345D01*
X-5160267Y-3263155D01*
X-5160266Y-3263156D01*
X-4880962Y-3667800D01*
X-4570001Y-4048659D01*
X-4229720Y-4402929D01*
X-4229395Y-4403267D01*
X-4031906Y-4578227D01*
X-3861365Y-4729313D01*
X-3861360Y-4729317D01*
X-3468293Y-5024688D01*
X-3375077Y-5083634D01*
X-3052726Y-5287477D01*
X-3052719Y-5287480D01*
X-3052720Y-5287480D01*
X-3052707Y-5287488D01*
X-2665382Y-5490770D01*
X-2617362Y-5515973D01*
X-2165023Y-5708697D01*
X-1934506Y-5785654D01*
X-1698659Y-5864392D01*
X-1698649Y-5864395D01*
X-1698643Y-5864397D01*
X-1221247Y-5982065D01*
X-735931Y-6060936D01*
X-245842Y-6100500D01*
X-245837Y-6100500D01*
X245837Y-6100500D01*
X245842Y-6100500D01*
X735931Y-6060936D01*
X1221247Y-5982065D01*
X1698643Y-5864397D01*
X2165023Y-5708697D01*
X2617362Y-5515973D01*
X2863115Y-5386991D01*
X3052706Y-5287488D01*
X3052711Y-5287484D01*
X3052726Y-5287477D01*
X3468292Y-5024688D01*
X3861365Y-4729313D01*
X4229395Y-4403267D01*
X4569996Y-4048664D01*
X4880959Y-3667803D01*
X5160267Y-3263155D01*
X5406109Y-2837345D01*
X5616890Y-2393133D01*
X5791244Y-1933401D01*
X5791246Y-1933395D01*
X5791249Y-1933386D01*
X5928037Y-1461137D01*
X5928037Y-1461136D01*
X5928039Y-1461130D01*
X6026388Y-979383D01*
X6059684Y-705165D01*
X6085652Y-491306D01*
X6085652Y-491301D01*
X6085654Y-491285D01*
X6105452Y0D01*
X6085654Y491285D01*
X6085652Y491302D01*
X6085652Y491307D01*
X6026390Y979366D01*
X6026388Y979383D01*
X5928039Y1461130D01*
X5928037Y1461138D01*
X5791249Y1933387D01*
X5791246Y1933396D01*
X5773157Y1981090D01*
X5616890Y2393133D01*
X5406109Y2837345D01*
X5160267Y3263155D01*
X4962618Y3549500D01*
X4880961Y3667801D01*
X4570000Y4048660D01*
X4229398Y4403264D01*
X4097902Y4519759D01*
X3953372Y4647802D01*
X3861364Y4729314D01*
X3861359Y4729318D01*
X3468292Y5024689D01*
X3176978Y5208905D01*
X3052726Y5287477D01*
X3052722Y5287480D01*
X3052719Y5287481D01*
X3052706Y5287489D01*
X2617376Y5515966D01*
X2617372Y5515968D01*
X2617369Y5515970D01*
X2617362Y5515973D01*
X2165023Y5708697D01*
X2165024Y5708697D01*
X2165021Y5708698D01*
X1698658Y5864393D01*
X1698638Y5864399D01*
X1337278Y5953466D01*
X1221247Y5982065D01*
X735931Y6060936D01*
X735925Y6060937D01*
X461028Y6083129D01*
X245842Y6100500D01*
X-245842Y6100500D01*
X-443658Y6084531D01*
X-735926Y6060937D01*
X-1221247Y5982065D01*
X-1698639Y5864399D01*
X-1698659Y5864393D01*
X-2165022Y5708698D01*
X-2457631Y5584029D01*
X-2617362Y5515973D01*
X-2617366Y5515972D01*
X-2617373Y5515968D01*
X-2617377Y5515966D01*
X-3052707Y5287489D01*
X-3052720Y5287481D01*
X-3468293Y5024689D01*
X-3861360Y4729318D01*
X-3861365Y4729314D01*
X-4229399Y4403264D01*
X-4570001Y4048660D01*
X-4880962Y3667801D01*
X-5160266Y3263157D01*
X-5406115Y2837334D01*
X-5616892Y2393128D01*
X-5791247Y1933396D01*
X-5791250Y1933387D01*
X-5928038Y1461138D01*
X-5928038Y1461137D01*
X-6026387Y979393D01*
X-6026391Y979366D01*
X-6085653Y491307D01*
X-6085653Y491298D01*
X-6085654Y491291D01*
X-6085654Y491285D01*
X-6105452Y0D01*
X-11999500Y0D01*
X-11999500Y9999996D01*
X-11355659Y9999996D01*
X-11335065Y9764600D01*
X-11273902Y9536333D01*
X-11174041Y9322182D01*
X-11174037Y9322174D01*
X-11174036Y9322172D01*
X-11174035Y9322171D01*
X-11038495Y9128599D01*
X-10871401Y8961505D01*
X-10677829Y8825965D01*
X-10677828Y8825965D01*
X-10677827Y8825964D01*
X-10677819Y8825960D01*
X-10463667Y8726099D01*
X-10463663Y8726097D01*
X-10235408Y8664937D01*
X-10235404Y8664937D01*
X-10235401Y8664936D01*
X-10058974Y8649500D01*
X-10058966Y8649500D01*
X-9941026Y8649500D01*
X-9764600Y8664936D01*
X-9764599Y8664937D01*
X-9764592Y8664937D01*
X-9536337Y8726097D01*
X-9322171Y8825965D01*
X-9128599Y8961505D01*
X-8961505Y9128599D01*
X-8825965Y9322170D01*
X-8726097Y9536337D01*
X-8664937Y9764592D01*
X-8644341Y9999996D01*
X8644341Y9999996D01*
X8664935Y9764600D01*
X8726098Y9536333D01*
X8825959Y9322182D01*
X8825963Y9322174D01*
X8825964Y9322172D01*
X8825965Y9322171D01*
X8961505Y9128599D01*
X9128599Y8961505D01*
X9322171Y8825965D01*
X9322172Y8825965D01*
X9322173Y8825964D01*
X9322181Y8825960D01*
X9536333Y8726099D01*
X9536337Y8726097D01*
X9764592Y8664937D01*
X9764596Y8664937D01*
X9764599Y8664936D01*
X9941026Y8649500D01*
X9941034Y8649500D01*
X10058974Y8649500D01*
X10235400Y8664936D01*
X10235401Y8664937D01*
X10235408Y8664937D01*
X10463663Y8726097D01*
X10677829Y8825965D01*
X10871401Y8961505D01*
X11038495Y9128599D01*
X11174035Y9322170D01*
X11273903Y9536337D01*
X11335063Y9764592D01*
X11355659Y10000000D01*
X11335063Y10235408D01*
X11273903Y10463663D01*
X11174035Y10677829D01*
X11038495Y10871401D01*
X10871401Y11038495D01*
X10871397Y11038498D01*
X10871396Y11038499D01*
X10678167Y11173798D01*
X10677829Y11174035D01*
X10677828Y11174036D01*
X10677826Y11174037D01*
X10677818Y11174041D01*
X10463666Y11273902D01*
X10463667Y11273902D01*
X10387578Y11294290D01*
X10235408Y11335063D01*
X10235407Y11335064D01*
X10235400Y11335065D01*
X10058974Y11350500D01*
X10058966Y11350500D01*
X9941034Y11350500D01*
X9941026Y11350500D01*
X9764599Y11335065D01*
X9536332Y11273902D01*
X9322181Y11174041D01*
X9322173Y11174037D01*
X9128603Y11038499D01*
X8961501Y10871397D01*
X8825964Y10677829D01*
X8726097Y10463663D01*
X8664935Y10235401D01*
X8644341Y10000005D01*
X8644341Y9999996D01*
X-8644341Y9999996D01*
X-8644341Y10000000D01*
X-8664937Y10235408D01*
X-8726097Y10463663D01*
X-8825965Y10677829D01*
X-8961505Y10871401D01*
X-9128599Y11038495D01*
X-9128603Y11038498D01*
X-9128604Y11038499D01*
X-9321833Y11173798D01*
X-9322171Y11174035D01*
X-9322172Y11174036D01*
X-9322174Y11174037D01*
X-9322182Y11174041D01*
X-9536334Y11273902D01*
X-9536333Y11273902D01*
X-9612422Y11294290D01*
X-9764592Y11335063D01*
X-9764593Y11335064D01*
X-9764600Y11335065D01*
X-9941026Y11350500D01*
X-9941034Y11350500D01*
X-10058966Y11350500D01*
X-10058974Y11350500D01*
X-10235401Y11335065D01*
X-10463668Y11273902D01*
X-10677819Y11174041D01*
X-10677827Y11174037D01*
X-10871397Y11038499D01*
X-11038499Y10871397D01*
X-11174036Y10677829D01*
X-11273903Y10463663D01*
X-11335065Y10235401D01*
X-11355659Y10000005D01*
X-11355659Y9999996D01*
X-11999500Y9999996D01*
X-11999500Y10997842D01*
X-11999313Y11002140D01*
X-11995517Y11045535D01*
X-11982880Y11173821D01*
X-11979993Y11189693D01*
X-11961782Y11257658D01*
X-11961397Y11259005D01*
X-11932801Y11353275D01*
X-11927793Y11366361D01*
X-11900708Y11424445D01*
X-11895449Y11435724D01*
X-11894282Y11438057D01*
X-11848877Y11523006D01*
X-11845788Y11528035D01*
X-11798729Y11595241D01*
X-11796472Y11598216D01*
X-11736492Y11671302D01*
X-11733259Y11674869D01*
X-11674869Y11733259D01*
X-11671302Y11736492D01*
X-11598216Y11796472D01*
X-11595241Y11798729D01*
X-11528035Y11845788D01*
X-11523006Y11848877D01*
X-11438057Y11894282D01*
X-11435724Y11895449D01*
X-11366359Y11927795D01*
X-11353275Y11932801D01*
X-11259005Y11961397D01*
X-11257658Y11961782D01*
X-11189693Y11979993D01*
X-11173821Y11982880D01*
X-11045516Y11995518D01*
X-11002141Y11999313D01*
X-10997841Y11999500D01*
X13997840Y11999500D01*
X14002140Y11999313D01*
G37*
G04 #@! TD.AperFunction*
M02*
