G04 #@! TF.GenerationSoftware,KiCad,Pcbnew,7.0.2.1-36-g582732918d-dirty-deb11*
G04 #@! TF.CreationDate,2023-05-26T14:24:42+00:00*
G04 #@! TF.ProjectId,pedalboard-led-ring,70656461-6c62-46f6-9172-642d6c65642d,rev?*
G04 #@! TF.SameCoordinates,Original*
G04 #@! TF.FileFunction,Legend,Bot*
G04 #@! TF.FilePolarity,Positive*
%FSLAX46Y46*%
G04 Gerber Fmt 4.6, Leading zero omitted, Abs format (unit mm)*
G04 Created by KiCad (PCBNEW 7.0.2.1-36-g582732918d-dirty-deb11) date 2023-05-26 14:24:42*
%MOMM*%
%LPD*%
G01*
G04 APERTURE LIST*
%ADD10C,0.100000*%
%ADD11C,0.150000*%
%ADD12C,0.120000*%
%ADD13C,0.127000*%
G04 APERTURE END LIST*
D10*
X7050000Y0D02*
G75*
G03*
X7050000Y0I-7050000J0D01*
G01*
D11*
X12861904Y11237381D02*
X12861904Y10427858D01*
X12861904Y10427858D02*
X12814285Y10332620D01*
X12814285Y10332620D02*
X12766666Y10285000D01*
X12766666Y10285000D02*
X12671428Y10237381D01*
X12671428Y10237381D02*
X12480952Y10237381D01*
X12480952Y10237381D02*
X12385714Y10285000D01*
X12385714Y10285000D02*
X12338095Y10332620D01*
X12338095Y10332620D02*
X12290476Y10427858D01*
X12290476Y10427858D02*
X12290476Y11237381D01*
X11290476Y10237381D02*
X11861904Y10237381D01*
X11576190Y10237381D02*
X11576190Y11237381D01*
X11576190Y11237381D02*
X11671428Y11094524D01*
X11671428Y11094524D02*
X11766666Y10999286D01*
X11766666Y10999286D02*
X11861904Y10951667D01*
X8816666Y-4862619D02*
X9292856Y-4862619D01*
X9292856Y-4862619D02*
X9292856Y-3862619D01*
X7959523Y-4862619D02*
X8530951Y-4862619D01*
X8245237Y-4862619D02*
X8245237Y-3862619D01*
X8245237Y-3862619D02*
X8340475Y-4005476D01*
X8340475Y-4005476D02*
X8435713Y-4100714D01*
X8435713Y-4100714D02*
X8530951Y-4148333D01*
X12066666Y-1817380D02*
X12114285Y-1865000D01*
X12114285Y-1865000D02*
X12257142Y-1912619D01*
X12257142Y-1912619D02*
X12352380Y-1912619D01*
X12352380Y-1912619D02*
X12495237Y-1865000D01*
X12495237Y-1865000D02*
X12590475Y-1769761D01*
X12590475Y-1769761D02*
X12638094Y-1674523D01*
X12638094Y-1674523D02*
X12685713Y-1484047D01*
X12685713Y-1484047D02*
X12685713Y-1341190D01*
X12685713Y-1341190D02*
X12638094Y-1150714D01*
X12638094Y-1150714D02*
X12590475Y-1055476D01*
X12590475Y-1055476D02*
X12495237Y-960238D01*
X12495237Y-960238D02*
X12352380Y-912619D01*
X12352380Y-912619D02*
X12257142Y-912619D01*
X12257142Y-912619D02*
X12114285Y-960238D01*
X12114285Y-960238D02*
X12066666Y-1007857D01*
X11114285Y-1912619D02*
X11685713Y-1912619D01*
X11399999Y-1912619D02*
X11399999Y-912619D01*
X11399999Y-912619D02*
X11495237Y-1055476D01*
X11495237Y-1055476D02*
X11590475Y-1150714D01*
X11590475Y-1150714D02*
X11685713Y-1198333D01*
X9752619Y-7666666D02*
X10466904Y-7666666D01*
X10466904Y-7666666D02*
X10609761Y-7619047D01*
X10609761Y-7619047D02*
X10705000Y-7523809D01*
X10705000Y-7523809D02*
X10752619Y-7380952D01*
X10752619Y-7380952D02*
X10752619Y-7285714D01*
X10752619Y-8666666D02*
X10752619Y-8095238D01*
X10752619Y-8380952D02*
X9752619Y-8380952D01*
X9752619Y-8380952D02*
X9895476Y-8285714D01*
X9895476Y-8285714D02*
X9990714Y-8190476D01*
X9990714Y-8190476D02*
X10038333Y-8095238D01*
X3000702Y-12691666D02*
X2691178Y-12474999D01*
X3000702Y-12320237D02*
X2350702Y-12320237D01*
X2350702Y-12320237D02*
X2350702Y-12567856D01*
X2350702Y-12567856D02*
X2381654Y-12629761D01*
X2381654Y-12629761D02*
X2412607Y-12660714D01*
X2412607Y-12660714D02*
X2474511Y-12691666D01*
X2474511Y-12691666D02*
X2567369Y-12691666D01*
X2567369Y-12691666D02*
X2629273Y-12660714D01*
X2629273Y-12660714D02*
X2660226Y-12629761D01*
X2660226Y-12629761D02*
X2691178Y-12567856D01*
X2691178Y-12567856D02*
X2691178Y-12320237D01*
X2412607Y-12939285D02*
X2381654Y-12970237D01*
X2381654Y-12970237D02*
X2350702Y-13032142D01*
X2350702Y-13032142D02*
X2350702Y-13186904D01*
X2350702Y-13186904D02*
X2381654Y-13248809D01*
X2381654Y-13248809D02*
X2412607Y-13279761D01*
X2412607Y-13279761D02*
X2474511Y-13310714D01*
X2474511Y-13310714D02*
X2536416Y-13310714D01*
X2536416Y-13310714D02*
X2629273Y-13279761D01*
X2629273Y-13279761D02*
X3000702Y-12908333D01*
X3000702Y-12908333D02*
X3000702Y-13310714D01*
X21600702Y7008334D02*
X21291178Y7225001D01*
X21600702Y7379763D02*
X20950702Y7379763D01*
X20950702Y7379763D02*
X20950702Y7132144D01*
X20950702Y7132144D02*
X20981654Y7070239D01*
X20981654Y7070239D02*
X21012607Y7039286D01*
X21012607Y7039286D02*
X21074511Y7008334D01*
X21074511Y7008334D02*
X21167369Y7008334D01*
X21167369Y7008334D02*
X21229273Y7039286D01*
X21229273Y7039286D02*
X21260226Y7070239D01*
X21260226Y7070239D02*
X21291178Y7132144D01*
X21291178Y7132144D02*
X21291178Y7379763D01*
X21600702Y6389286D02*
X21600702Y6760715D01*
X21600702Y6575001D02*
X20950702Y6575001D01*
X20950702Y6575001D02*
X21043559Y6636905D01*
X21043559Y6636905D02*
X21105464Y6698810D01*
X21105464Y6698810D02*
X21136416Y6760715D01*
X7161904Y-8912619D02*
X7161904Y-9722142D01*
X7161904Y-9722142D02*
X7114285Y-9817380D01*
X7114285Y-9817380D02*
X7066666Y-9865000D01*
X7066666Y-9865000D02*
X6971428Y-9912619D01*
X6971428Y-9912619D02*
X6780952Y-9912619D01*
X6780952Y-9912619D02*
X6685714Y-9865000D01*
X6685714Y-9865000D02*
X6638095Y-9817380D01*
X6638095Y-9817380D02*
X6590476Y-9722142D01*
X6590476Y-9722142D02*
X6590476Y-8912619D01*
X6161904Y-9007857D02*
X6114285Y-8960238D01*
X6114285Y-8960238D02*
X6019047Y-8912619D01*
X6019047Y-8912619D02*
X5780952Y-8912619D01*
X5780952Y-8912619D02*
X5685714Y-8960238D01*
X5685714Y-8960238D02*
X5638095Y-9007857D01*
X5638095Y-9007857D02*
X5590476Y-9103095D01*
X5590476Y-9103095D02*
X5590476Y-9198333D01*
X5590476Y-9198333D02*
X5638095Y-9341190D01*
X5638095Y-9341190D02*
X6209523Y-9912619D01*
X6209523Y-9912619D02*
X5590476Y-9912619D01*
X16487380Y2666667D02*
X16535000Y2714286D01*
X16535000Y2714286D02*
X16582619Y2857143D01*
X16582619Y2857143D02*
X16582619Y2952381D01*
X16582619Y2952381D02*
X16535000Y3095238D01*
X16535000Y3095238D02*
X16439761Y3190476D01*
X16439761Y3190476D02*
X16344523Y3238095D01*
X16344523Y3238095D02*
X16154047Y3285714D01*
X16154047Y3285714D02*
X16011190Y3285714D01*
X16011190Y3285714D02*
X15820714Y3238095D01*
X15820714Y3238095D02*
X15725476Y3190476D01*
X15725476Y3190476D02*
X15630238Y3095238D01*
X15630238Y3095238D02*
X15582619Y2952381D01*
X15582619Y2952381D02*
X15582619Y2857143D01*
X15582619Y2857143D02*
X15630238Y2714286D01*
X15630238Y2714286D02*
X15677857Y2666667D01*
X15677857Y2285714D02*
X15630238Y2238095D01*
X15630238Y2238095D02*
X15582619Y2142857D01*
X15582619Y2142857D02*
X15582619Y1904762D01*
X15582619Y1904762D02*
X15630238Y1809524D01*
X15630238Y1809524D02*
X15677857Y1761905D01*
X15677857Y1761905D02*
X15773095Y1714286D01*
X15773095Y1714286D02*
X15868333Y1714286D01*
X15868333Y1714286D02*
X16011190Y1761905D01*
X16011190Y1761905D02*
X16582619Y2333333D01*
X16582619Y2333333D02*
X16582619Y1714286D01*
X3366666Y-7867380D02*
X3414285Y-7915000D01*
X3414285Y-7915000D02*
X3557142Y-7962619D01*
X3557142Y-7962619D02*
X3652380Y-7962619D01*
X3652380Y-7962619D02*
X3795237Y-7915000D01*
X3795237Y-7915000D02*
X3890475Y-7819761D01*
X3890475Y-7819761D02*
X3938094Y-7724523D01*
X3938094Y-7724523D02*
X3985713Y-7534047D01*
X3985713Y-7534047D02*
X3985713Y-7391190D01*
X3985713Y-7391190D02*
X3938094Y-7200714D01*
X3938094Y-7200714D02*
X3890475Y-7105476D01*
X3890475Y-7105476D02*
X3795237Y-7010238D01*
X3795237Y-7010238D02*
X3652380Y-6962619D01*
X3652380Y-6962619D02*
X3557142Y-6962619D01*
X3557142Y-6962619D02*
X3414285Y-7010238D01*
X3414285Y-7010238D02*
X3366666Y-7057857D01*
X2509523Y-7295952D02*
X2509523Y-7962619D01*
X2747618Y-6915000D02*
X2985713Y-7629285D01*
X2985713Y-7629285D02*
X2366666Y-7629285D01*
X12267380Y-12733333D02*
X12315000Y-12685714D01*
X12315000Y-12685714D02*
X12362619Y-12542857D01*
X12362619Y-12542857D02*
X12362619Y-12447619D01*
X12362619Y-12447619D02*
X12315000Y-12304762D01*
X12315000Y-12304762D02*
X12219761Y-12209524D01*
X12219761Y-12209524D02*
X12124523Y-12161905D01*
X12124523Y-12161905D02*
X11934047Y-12114286D01*
X11934047Y-12114286D02*
X11791190Y-12114286D01*
X11791190Y-12114286D02*
X11600714Y-12161905D01*
X11600714Y-12161905D02*
X11505476Y-12209524D01*
X11505476Y-12209524D02*
X11410238Y-12304762D01*
X11410238Y-12304762D02*
X11362619Y-12447619D01*
X11362619Y-12447619D02*
X11362619Y-12542857D01*
X11362619Y-12542857D02*
X11410238Y-12685714D01*
X11410238Y-12685714D02*
X11457857Y-12733333D01*
X11362619Y-13066667D02*
X11362619Y-13685714D01*
X11362619Y-13685714D02*
X11743571Y-13352381D01*
X11743571Y-13352381D02*
X11743571Y-13495238D01*
X11743571Y-13495238D02*
X11791190Y-13590476D01*
X11791190Y-13590476D02*
X11838809Y-13638095D01*
X11838809Y-13638095D02*
X11934047Y-13685714D01*
X11934047Y-13685714D02*
X12172142Y-13685714D01*
X12172142Y-13685714D02*
X12267380Y-13638095D01*
X12267380Y-13638095D02*
X12315000Y-13590476D01*
X12315000Y-13590476D02*
X12362619Y-13495238D01*
X12362619Y-13495238D02*
X12362619Y-13209524D01*
X12362619Y-13209524D02*
X12315000Y-13114286D01*
X12315000Y-13114286D02*
X12267380Y-13066667D01*
D12*
X14900000Y9760000D02*
X12950000Y9760000D01*
X14900000Y9760000D02*
X16850000Y9760000D01*
X14900000Y4640000D02*
X11450000Y4640000D01*
X14900000Y4640000D02*
X16850000Y4640000D01*
D13*
X6650000Y-7913500D02*
X9850000Y-7913500D01*
X9850000Y-5286500D02*
X6650000Y-5286500D01*
D12*
X11188748Y1310000D02*
X12611252Y1310000D01*
X11188748Y-510000D02*
X12611252Y-510000D01*
X19470000Y-5400000D02*
X19470000Y-10600000D01*
X18900000Y-5400000D02*
X19470000Y-5400000D01*
X16360000Y-5400000D02*
X17380000Y-5400000D01*
X13820000Y-5400000D02*
X14840000Y-5400000D01*
X11730000Y-5400000D02*
X12300000Y-5400000D01*
X11730000Y-5400000D02*
X11730000Y-10600000D01*
X18900000Y-10600000D02*
X19470000Y-10600000D01*
X16360000Y-10600000D02*
X17380000Y-10600000D01*
X13820000Y-10600000D02*
X14840000Y-10600000D01*
X12300000Y-10600000D02*
X12300000Y-11960000D01*
X11730000Y-10600000D02*
X12300000Y-10600000D01*
D11*
X3300000Y-11150000D02*
X3300000Y-12850000D01*
X4700000Y-12850000D02*
X4700000Y-11150000D01*
X20500000Y6550000D02*
X20500000Y8250000D01*
X19100000Y8250000D02*
X19100000Y6550000D01*
X7400000Y-13625000D02*
X5400000Y-13625000D01*
X6400000Y-10375000D02*
X5400000Y-10375000D01*
D12*
X18535000Y2761252D02*
X18535000Y2238748D01*
X17065000Y2761252D02*
X17065000Y2238748D01*
X3261252Y-10035000D02*
X2738748Y-10035000D01*
X3261252Y-8565000D02*
X2738748Y-8565000D01*
X9090000Y-12211252D02*
X9090000Y-10788748D01*
X10910000Y-12211252D02*
X10910000Y-10788748D01*
M02*
