G04 #@! TF.GenerationSoftware,KiCad,Pcbnew,7.0.2.1-36-g582732918d-dirty-deb11*
G04 #@! TF.CreationDate,2023-05-26T17:23:11+00:00*
G04 #@! TF.ProjectId,pedalboard-led-ring,70656461-6c62-46f6-9172-642d6c65642d,rev?*
G04 #@! TF.SameCoordinates,Original*
G04 #@! TF.FileFunction,Copper,L2,Bot*
G04 #@! TF.FilePolarity,Positive*
%FSLAX46Y46*%
G04 Gerber Fmt 4.6, Leading zero omitted, Abs format (unit mm)*
G04 Created by KiCad (PCBNEW 7.0.2.1-36-g582732918d-dirty-deb11) date 2023-05-26 17:23:11*
%MOMM*%
%LPD*%
G01*
G04 APERTURE LIST*
G04 #@! TA.AperFunction,SMDPad,CuDef*
%ADD10R,1.000000X3.000000*%
G04 #@! TD*
G04 #@! TA.AperFunction,SMDPad,CuDef*
%ADD11R,1.000000X1.000000*%
G04 #@! TD*
G04 #@! TA.AperFunction,SMDPad,CuDef*
%ADD12R,0.700000X0.250000*%
G04 #@! TD*
G04 #@! TA.AperFunction,SMDPad,CuDef*
%ADD13R,0.610000X2.200000*%
G04 #@! TD*
G04 #@! TA.AperFunction,ViaPad*
%ADD14C,0.800000*%
G04 #@! TD*
G04 #@! TA.AperFunction,Conductor*
%ADD15C,0.250000*%
G04 #@! TD*
G04 #@! TA.AperFunction,Conductor*
%ADD16C,0.600000*%
G04 #@! TD*
G04 #@! TA.AperFunction,Conductor*
%ADD17C,0.800000*%
G04 #@! TD*
G04 APERTURE END LIST*
G04 #@! TA.AperFunction,SMDPad,CuDef*
G36*
G01*
X11450000Y5145000D02*
X11450000Y5445000D01*
G75*
G02*
X11600000Y5595000I150000J0D01*
G01*
X13250000Y5595000D01*
G75*
G02*
X13400000Y5445000I0J-150000D01*
G01*
X13400000Y5145000D01*
G75*
G02*
X13250000Y4995000I-150000J0D01*
G01*
X11600000Y4995000D01*
G75*
G02*
X11450000Y5145000I0J150000D01*
G01*
G37*
G04 #@! TD.AperFunction*
G04 #@! TA.AperFunction,SMDPad,CuDef*
G36*
G01*
X11450000Y6415000D02*
X11450000Y6715000D01*
G75*
G02*
X11600000Y6865000I150000J0D01*
G01*
X13250000Y6865000D01*
G75*
G02*
X13400000Y6715000I0J-150000D01*
G01*
X13400000Y6415000D01*
G75*
G02*
X13250000Y6265000I-150000J0D01*
G01*
X11600000Y6265000D01*
G75*
G02*
X11450000Y6415000I0J150000D01*
G01*
G37*
G04 #@! TD.AperFunction*
G04 #@! TA.AperFunction,SMDPad,CuDef*
G36*
G01*
X11450000Y7685000D02*
X11450000Y7985000D01*
G75*
G02*
X11600000Y8135000I150000J0D01*
G01*
X13250000Y8135000D01*
G75*
G02*
X13400000Y7985000I0J-150000D01*
G01*
X13400000Y7685000D01*
G75*
G02*
X13250000Y7535000I-150000J0D01*
G01*
X11600000Y7535000D01*
G75*
G02*
X11450000Y7685000I0J150000D01*
G01*
G37*
G04 #@! TD.AperFunction*
G04 #@! TA.AperFunction,SMDPad,CuDef*
G36*
G01*
X11450000Y8955000D02*
X11450000Y9255000D01*
G75*
G02*
X11600000Y9405000I150000J0D01*
G01*
X13250000Y9405000D01*
G75*
G02*
X13400000Y9255000I0J-150000D01*
G01*
X13400000Y8955000D01*
G75*
G02*
X13250000Y8805000I-150000J0D01*
G01*
X11600000Y8805000D01*
G75*
G02*
X11450000Y8955000I0J150000D01*
G01*
G37*
G04 #@! TD.AperFunction*
G04 #@! TA.AperFunction,SMDPad,CuDef*
G36*
G01*
X16400000Y8955000D02*
X16400000Y9255000D01*
G75*
G02*
X16550000Y9405000I150000J0D01*
G01*
X18200000Y9405000D01*
G75*
G02*
X18350000Y9255000I0J-150000D01*
G01*
X18350000Y8955000D01*
G75*
G02*
X18200000Y8805000I-150000J0D01*
G01*
X16550000Y8805000D01*
G75*
G02*
X16400000Y8955000I0J150000D01*
G01*
G37*
G04 #@! TD.AperFunction*
G04 #@! TA.AperFunction,SMDPad,CuDef*
G36*
G01*
X16400000Y7685000D02*
X16400000Y7985000D01*
G75*
G02*
X16550000Y8135000I150000J0D01*
G01*
X18200000Y8135000D01*
G75*
G02*
X18350000Y7985000I0J-150000D01*
G01*
X18350000Y7685000D01*
G75*
G02*
X18200000Y7535000I-150000J0D01*
G01*
X16550000Y7535000D01*
G75*
G02*
X16400000Y7685000I0J150000D01*
G01*
G37*
G04 #@! TD.AperFunction*
G04 #@! TA.AperFunction,SMDPad,CuDef*
G36*
G01*
X16400000Y6415000D02*
X16400000Y6715000D01*
G75*
G02*
X16550000Y6865000I150000J0D01*
G01*
X18200000Y6865000D01*
G75*
G02*
X18350000Y6715000I0J-150000D01*
G01*
X18350000Y6415000D01*
G75*
G02*
X18200000Y6265000I-150000J0D01*
G01*
X16550000Y6265000D01*
G75*
G02*
X16400000Y6415000I0J150000D01*
G01*
G37*
G04 #@! TD.AperFunction*
G04 #@! TA.AperFunction,SMDPad,CuDef*
G36*
G01*
X16400000Y5145000D02*
X16400000Y5445000D01*
G75*
G02*
X16550000Y5595000I150000J0D01*
G01*
X18200000Y5595000D01*
G75*
G02*
X18350000Y5445000I0J-150000D01*
G01*
X18350000Y5145000D01*
G75*
G02*
X18200000Y4995000I-150000J0D01*
G01*
X16550000Y4995000D01*
G75*
G02*
X16400000Y5145000I0J150000D01*
G01*
G37*
G04 #@! TD.AperFunction*
G04 #@! TA.AperFunction,SMDPad,CuDef*
G36*
X7253536Y-6096464D02*
G01*
X7255000Y-6100000D01*
X7255000Y-8100000D01*
X7253536Y-8103536D01*
X7250000Y-8105000D01*
X6250000Y-8105000D01*
X6246464Y-8103536D01*
X6245000Y-8100000D01*
X6245000Y-7605000D01*
X5150000Y-7605000D01*
X5146464Y-7603536D01*
X5145000Y-7600000D01*
X5145000Y-6600000D01*
X5146464Y-6596464D01*
X5150000Y-6595000D01*
X6245000Y-6595000D01*
X6245000Y-6100000D01*
X6246464Y-6096464D01*
X6250000Y-6095000D01*
X7250000Y-6095000D01*
X7253536Y-6096464D01*
G37*
G04 #@! TD.AperFunction*
G04 #@! TA.AperFunction,SMDPad,CuDef*
G36*
X9553536Y-6096464D02*
G01*
X9555000Y-6100000D01*
X9555000Y-6595000D01*
X10650000Y-6595000D01*
X10653536Y-6596464D01*
X10655000Y-6600000D01*
X10655000Y-7600000D01*
X10653536Y-7603536D01*
X10650000Y-7605000D01*
X9555000Y-7605000D01*
X9555000Y-8100000D01*
X9553536Y-8103536D01*
X9550000Y-8105000D01*
X8550000Y-8105000D01*
X8546464Y-8103536D01*
X8545000Y-8100000D01*
X8545000Y-6100000D01*
X8546464Y-6096464D01*
X8550000Y-6095000D01*
X9550000Y-6095000D01*
X9553536Y-6096464D01*
G37*
G04 #@! TD.AperFunction*
G04 #@! TA.AperFunction,SMDPad,CuDef*
G36*
G01*
X9675000Y-250000D02*
X9675000Y1050000D01*
G75*
G02*
X9925000Y1300000I250000J0D01*
G01*
X10750000Y1300000D01*
G75*
G02*
X11000000Y1050000I0J-250000D01*
G01*
X11000000Y-250000D01*
G75*
G02*
X10750000Y-500000I-250000J0D01*
G01*
X9925000Y-500000D01*
G75*
G02*
X9675000Y-250000I0J250000D01*
G01*
G37*
G04 #@! TD.AperFunction*
G04 #@! TA.AperFunction,SMDPad,CuDef*
G36*
G01*
X12800000Y-250000D02*
X12800000Y1050000D01*
G75*
G02*
X13050000Y1300000I250000J0D01*
G01*
X13875000Y1300000D01*
G75*
G02*
X14125000Y1050000I0J-250000D01*
G01*
X14125000Y-250000D01*
G75*
G02*
X13875000Y-500000I-250000J0D01*
G01*
X13050000Y-500000D01*
G75*
G02*
X12800000Y-250000I0J250000D01*
G01*
G37*
G04 #@! TD.AperFunction*
D10*
X13960000Y-10520000D03*
X13960000Y-5480000D03*
X16500000Y-10520000D03*
X16500000Y-5480000D03*
X19040000Y-10520000D03*
X19040000Y-5480000D03*
D11*
X4000000Y-11150000D03*
X4000000Y-12850000D03*
X19800000Y6550000D03*
X19800000Y8250000D03*
D12*
X7325000Y-11250000D03*
X7325000Y-11750000D03*
X7325000Y-12250000D03*
X7325000Y-12750000D03*
X5475000Y-12750000D03*
X5475000Y-12250000D03*
X5475000Y-11750000D03*
X5475000Y-11250000D03*
D13*
X6400000Y-12000000D03*
G04 #@! TA.AperFunction,SMDPad,CuDef*
G36*
G01*
X17325000Y4125000D02*
X18275000Y4125000D01*
G75*
G02*
X18525000Y3875000I0J-250000D01*
G01*
X18525000Y3200000D01*
G75*
G02*
X18275000Y2950000I-250000J0D01*
G01*
X17325000Y2950000D01*
G75*
G02*
X17075000Y3200000I0J250000D01*
G01*
X17075000Y3875000D01*
G75*
G02*
X17325000Y4125000I250000J0D01*
G01*
G37*
G04 #@! TD.AperFunction*
G04 #@! TA.AperFunction,SMDPad,CuDef*
G36*
G01*
X17325000Y2050000D02*
X18275000Y2050000D01*
G75*
G02*
X18525000Y1800000I0J-250000D01*
G01*
X18525000Y1125000D01*
G75*
G02*
X18275000Y875000I-250000J0D01*
G01*
X17325000Y875000D01*
G75*
G02*
X17075000Y1125000I0J250000D01*
G01*
X17075000Y1800000D01*
G75*
G02*
X17325000Y2050000I250000J0D01*
G01*
G37*
G04 #@! TD.AperFunction*
G04 #@! TA.AperFunction,SMDPad,CuDef*
G36*
G01*
X4525000Y-8825000D02*
X4525000Y-9775000D01*
G75*
G02*
X4275000Y-10025000I-250000J0D01*
G01*
X3600000Y-10025000D01*
G75*
G02*
X3350000Y-9775000I0J250000D01*
G01*
X3350000Y-8825000D01*
G75*
G02*
X3600000Y-8575000I250000J0D01*
G01*
X4275000Y-8575000D01*
G75*
G02*
X4525000Y-8825000I0J-250000D01*
G01*
G37*
G04 #@! TD.AperFunction*
G04 #@! TA.AperFunction,SMDPad,CuDef*
G36*
G01*
X2450000Y-8825000D02*
X2450000Y-9775000D01*
G75*
G02*
X2200000Y-10025000I-250000J0D01*
G01*
X1525000Y-10025000D01*
G75*
G02*
X1275000Y-9775000I0J250000D01*
G01*
X1275000Y-8825000D01*
G75*
G02*
X1525000Y-8575000I250000J0D01*
G01*
X2200000Y-8575000D01*
G75*
G02*
X2450000Y-8825000I0J-250000D01*
G01*
G37*
G04 #@! TD.AperFunction*
G04 #@! TA.AperFunction,SMDPad,CuDef*
G36*
G01*
X10650000Y-13325000D02*
X9350000Y-13325000D01*
G75*
G02*
X9100000Y-13075000I0J250000D01*
G01*
X9100000Y-12250000D01*
G75*
G02*
X9350000Y-12000000I250000J0D01*
G01*
X10650000Y-12000000D01*
G75*
G02*
X10900000Y-12250000I0J-250000D01*
G01*
X10900000Y-13075000D01*
G75*
G02*
X10650000Y-13325000I-250000J0D01*
G01*
G37*
G04 #@! TD.AperFunction*
G04 #@! TA.AperFunction,SMDPad,CuDef*
G36*
G01*
X10650000Y-10200000D02*
X9350000Y-10200000D01*
G75*
G02*
X9100000Y-9950000I0J250000D01*
G01*
X9100000Y-9125000D01*
G75*
G02*
X9350000Y-8875000I250000J0D01*
G01*
X10650000Y-8875000D01*
G75*
G02*
X10900000Y-9125000I0J-250000D01*
G01*
X10900000Y-9950000D01*
G75*
G02*
X10650000Y-10200000I-250000J0D01*
G01*
G37*
G04 #@! TD.AperFunction*
D14*
X9500000Y-1400000D03*
X10500000Y-1400000D03*
X3000000Y-11200000D03*
X6400000Y-9750000D03*
X7900000Y-9750000D03*
X1250000Y-10800000D03*
X16550000Y1500000D03*
X11800000Y-9500000D03*
X21050000Y8250000D03*
X16500000Y-12550000D03*
X16500000Y-8400000D03*
X10800000Y9150000D03*
X13450000Y1950000D03*
X19040000Y-12540000D03*
X19200000Y4800000D03*
X12400000Y4500000D03*
X10800000Y6600000D03*
X10800000Y7800000D03*
D15*
X4000000Y-11150000D02*
X3050000Y-11150000D01*
X5460200Y-11746000D02*
X4596000Y-11746000D01*
X3050000Y-11150000D02*
X3000000Y-11200000D01*
X4596000Y-11746000D02*
X4000000Y-11150000D01*
X6654000Y-11746000D02*
X6400000Y-12000000D01*
X7339800Y-11746000D02*
X6654000Y-11746000D01*
D16*
X17375000Y5295000D02*
X17375000Y5225000D01*
D17*
X19040000Y-12540000D02*
X19040000Y-10525000D01*
D16*
X17375000Y5225000D02*
X17800000Y4800000D01*
X17800000Y4800000D02*
X17800000Y3527500D01*
X17800000Y4800000D02*
X19200000Y4800000D01*
D15*
X12425000Y5295000D02*
X12425000Y4525000D01*
X12425000Y4525000D02*
X12400000Y4500000D01*
X10835000Y6565000D02*
X10800000Y6600000D01*
X12425000Y6565000D02*
X10835000Y6565000D01*
X12425000Y7835000D02*
X10835000Y7835000D01*
X10835000Y7835000D02*
X10800000Y7800000D01*
X17390000Y6550000D02*
X17375000Y6565000D01*
X19400000Y6550000D02*
X17390000Y6550000D01*
X16500000Y-5480000D02*
X16500000Y-668112D01*
X16500000Y-668112D02*
X15400000Y431888D01*
X15400000Y8500000D02*
X16000000Y9100000D01*
X17370000Y9100000D02*
X17375000Y9105000D01*
X15400000Y431888D02*
X15400000Y8500000D01*
X16000000Y9100000D02*
X17370000Y9100000D01*
X5460200Y-10380200D02*
X4380000Y-9300000D01*
X4380000Y-9300000D02*
X4037500Y-9300000D01*
X5460200Y-11238000D02*
X5460200Y-10380200D01*
X7105000Y-11003200D02*
X7105000Y-7300000D01*
X6905000Y-7100000D02*
X7105000Y-7300000D01*
X6750000Y-7100000D02*
X6905000Y-7100000D01*
X7339800Y-11238000D02*
X7105000Y-11003200D01*
X4596000Y-12254000D02*
X4000000Y-12850000D01*
X5460200Y-12254000D02*
X4596000Y-12254000D01*
X15830000Y610000D02*
X19040000Y-2600000D01*
X17340000Y7800000D02*
X15830000Y7800000D01*
X17375000Y7835000D02*
X17340000Y7800000D01*
X15830000Y7800000D02*
X15830000Y610000D01*
X19040000Y-2600000D02*
X19040000Y-5480000D01*
X7339800Y-12254000D02*
X8700000Y-12254000D01*
X5460200Y-12762000D02*
X5790000Y-13091800D01*
X5790000Y-13091800D02*
X5790000Y-13405000D01*
X8700000Y-7800000D02*
X9400000Y-7100000D01*
X5790000Y-13405000D02*
X7195000Y-13405000D01*
X7339800Y-12254000D02*
X7339800Y-12762000D01*
X7339800Y-13260200D02*
X7339800Y-12762000D01*
X9212000Y-12762000D02*
X9400000Y-12950000D01*
X10000000Y-12762500D02*
X10462500Y-12300000D01*
X10462500Y-12300000D02*
X12180000Y-12300000D01*
X7195000Y-13405000D02*
X7339800Y-13260200D01*
X7339800Y-12762000D02*
X9212000Y-12762000D01*
X8700000Y-12254000D02*
X8700000Y-7800000D01*
X12180000Y-12300000D02*
X13960000Y-10520000D01*
G04 #@! TA.AperFunction,Conductor*
G36*
X11741086Y1880315D02*
G01*
X11786841Y1827511D01*
X11798032Y1774063D01*
X11774609Y275000D01*
X11750000Y-1300000D01*
X14936193Y-1300000D01*
X15003232Y-1319685D01*
X15048987Y-1372489D01*
X15060193Y-1423806D01*
X15069806Y-7575806D01*
X15050226Y-7642876D01*
X14997494Y-7688714D01*
X14945806Y-7700000D01*
X11724000Y-7700000D01*
X11656961Y-7680315D01*
X11611206Y-7627511D01*
X11600000Y-7576000D01*
X11600000Y-5605000D01*
X13210000Y-5605000D01*
X13210000Y-7004624D01*
X13224504Y-7077543D01*
X13279760Y-7160239D01*
X13362456Y-7215495D01*
X13435375Y-7230000D01*
X13835000Y-7230000D01*
X13835000Y-5605000D01*
X14085000Y-5605000D01*
X14085000Y-7230000D01*
X14484625Y-7230000D01*
X14557543Y-7215495D01*
X14640239Y-7160239D01*
X14695495Y-7077543D01*
X14710000Y-7004624D01*
X14710000Y-5605000D01*
X14085000Y-5605000D01*
X13835000Y-5605000D01*
X13210000Y-5605000D01*
X11600000Y-5605000D01*
X11600000Y-5354999D01*
X13209999Y-5354999D01*
X13210000Y-5355000D01*
X13835000Y-5355000D01*
X13835000Y-3730000D01*
X14085000Y-3730000D01*
X14085000Y-5355000D01*
X14710000Y-5355000D01*
X14710000Y-3955375D01*
X14695495Y-3882456D01*
X14640239Y-3799760D01*
X14557543Y-3744504D01*
X14484625Y-3730000D01*
X14085000Y-3730000D01*
X13835000Y-3730000D01*
X13435375Y-3730000D01*
X13362456Y-3744504D01*
X13279760Y-3799760D01*
X13224504Y-3882456D01*
X13210000Y-3955375D01*
X13209999Y-5354999D01*
X11600000Y-5354999D01*
X11600000Y-3600000D01*
X8974000Y-3600000D01*
X8906961Y-3580315D01*
X8861206Y-3527511D01*
X8850000Y-3476000D01*
X8850000Y275000D01*
X9425000Y275000D01*
X9425000Y-294518D01*
X9425354Y-301132D01*
X9431400Y-357371D01*
X9481647Y-492089D01*
X9567811Y-607188D01*
X9682910Y-693352D01*
X9817628Y-743599D01*
X9873867Y-749645D01*
X9880482Y-750000D01*
X10212500Y-750000D01*
X10212500Y275000D01*
X10462500Y275000D01*
X10462500Y-750000D01*
X10794518Y-750000D01*
X10801132Y-749645D01*
X10857371Y-743599D01*
X10992089Y-693352D01*
X11107188Y-607188D01*
X11193352Y-492089D01*
X11243599Y-357371D01*
X11249645Y-301132D01*
X11250000Y-294518D01*
X11250000Y275000D01*
X10462500Y275000D01*
X10212500Y275000D01*
X9425000Y275000D01*
X8850000Y275000D01*
X8850000Y525000D01*
X9425000Y525000D01*
X10212500Y525000D01*
X10212500Y1550000D01*
X10462500Y1550000D01*
X10462500Y525000D01*
X11250000Y525000D01*
X11250000Y1094519D01*
X11249645Y1101133D01*
X11243599Y1157372D01*
X11193352Y1292090D01*
X11107188Y1407189D01*
X10992089Y1493353D01*
X10857371Y1543600D01*
X10801132Y1549646D01*
X10794518Y1550000D01*
X10462500Y1550000D01*
X10212500Y1550000D01*
X9880482Y1550000D01*
X9873867Y1549646D01*
X9817628Y1543600D01*
X9682910Y1493353D01*
X9567811Y1407189D01*
X9481647Y1292090D01*
X9431400Y1157372D01*
X9425354Y1101133D01*
X9425000Y1094519D01*
X9425000Y525000D01*
X8850000Y525000D01*
X8850000Y1776000D01*
X8869685Y1843039D01*
X8922489Y1888794D01*
X8974000Y1900000D01*
X11674047Y1900000D01*
X11741086Y1880315D01*
G37*
G04 #@! TD.AperFunction*
G04 #@! TA.AperFunction,Conductor*
G36*
X21004309Y13999123D02*
G01*
X21045519Y13995518D01*
X21173820Y13982880D01*
X21189703Y13979990D01*
X21256837Y13962002D01*
X21259807Y13961154D01*
X21353264Y13932804D01*
X21366359Y13927793D01*
X21434466Y13896034D01*
X21439295Y13893620D01*
X21520369Y13850285D01*
X21530485Y13844071D01*
X21593673Y13799826D01*
X21599693Y13795258D01*
X21669396Y13738055D01*
X21676596Y13731531D01*
X21731529Y13676598D01*
X21738053Y13669398D01*
X21795256Y13599695D01*
X21799824Y13593675D01*
X21844069Y13530487D01*
X21850283Y13520371D01*
X21893618Y13439297D01*
X21896032Y13434468D01*
X21927791Y13366361D01*
X21932804Y13353261D01*
X21961129Y13259888D01*
X21962019Y13256772D01*
X21979986Y13189718D01*
X21982882Y13173798D01*
X21995523Y13045446D01*
X21999124Y13004301D01*
X21999500Y12995684D01*
X21999500Y-12995676D01*
X21999123Y-13004307D01*
X21995523Y-13045445D01*
X21982882Y-13173799D01*
X21979986Y-13189713D01*
X21962019Y-13256769D01*
X21961129Y-13259886D01*
X21932804Y-13353259D01*
X21927791Y-13366359D01*
X21896032Y-13434466D01*
X21893618Y-13439295D01*
X21850283Y-13520369D01*
X21844069Y-13530485D01*
X21799824Y-13593673D01*
X21795256Y-13599693D01*
X21738053Y-13669396D01*
X21731529Y-13676596D01*
X21676596Y-13731529D01*
X21669396Y-13738053D01*
X21599693Y-13795256D01*
X21593673Y-13799824D01*
X21530485Y-13844069D01*
X21520369Y-13850283D01*
X21439295Y-13893618D01*
X21434466Y-13896032D01*
X21366359Y-13927791D01*
X21353259Y-13932804D01*
X21259886Y-13961129D01*
X21256770Y-13962019D01*
X21189716Y-13979986D01*
X21173796Y-13982882D01*
X21045445Y-13995523D01*
X21013912Y-13998282D01*
X21004294Y-13999124D01*
X20995684Y-13999500D01*
X-12995677Y-13999500D01*
X-13004308Y-13999123D01*
X-13045446Y-13995523D01*
X-13151903Y-13985038D01*
X-13173804Y-13982881D01*
X-13189715Y-13979986D01*
X-13256771Y-13962019D01*
X-13259888Y-13961129D01*
X-13353261Y-13932804D01*
X-13366361Y-13927791D01*
X-13434468Y-13896032D01*
X-13439297Y-13893618D01*
X-13520371Y-13850283D01*
X-13530487Y-13844069D01*
X-13593675Y-13799824D01*
X-13599695Y-13795256D01*
X-13669398Y-13738053D01*
X-13676598Y-13731529D01*
X-13731531Y-13676596D01*
X-13738055Y-13669396D01*
X-13795258Y-13599693D01*
X-13799826Y-13593673D01*
X-13844071Y-13530485D01*
X-13850285Y-13520369D01*
X-13893620Y-13439295D01*
X-13896034Y-13434466D01*
X-13927793Y-13366359D01*
X-13932806Y-13353259D01*
X-13938352Y-13334976D01*
X-13961154Y-13259806D01*
X-13961998Y-13256853D01*
X-13979992Y-13189696D01*
X-13982881Y-13173816D01*
X-13995518Y-13045519D01*
X-13999125Y-13004294D01*
X-13999500Y-12995686D01*
X-13999500Y-11200000D01*
X2394318Y-11200000D01*
X2414955Y-11356761D01*
X2475464Y-11502841D01*
X2571717Y-11628282D01*
X2640195Y-11680826D01*
X2697159Y-11724536D01*
X2843238Y-11785044D01*
X3000000Y-11805682D01*
X3156762Y-11785044D01*
X3232342Y-11753737D01*
X3293335Y-11748937D01*
X3345505Y-11780906D01*
X3352540Y-11790201D01*
X3355446Y-11794551D01*
X3362853Y-11799500D01*
X3421769Y-11838867D01*
X3480252Y-11850500D01*
X4199165Y-11850500D01*
X4257356Y-11869407D01*
X4269169Y-11879496D01*
X4319669Y-11929996D01*
X4347446Y-11984513D01*
X4337875Y-12044945D01*
X4319669Y-12070003D01*
X4269170Y-12120503D01*
X4214654Y-12148281D01*
X4199166Y-12149500D01*
X3480252Y-12149500D01*
X3451010Y-12155316D01*
X3421768Y-12161133D01*
X3355447Y-12205447D01*
X3311133Y-12271768D01*
X3311132Y-12271769D01*
X3311133Y-12271769D01*
X3299500Y-12330252D01*
X3299500Y-13369748D01*
X3310380Y-13424445D01*
X3311133Y-13428231D01*
X3355447Y-13494552D01*
X3390607Y-13518045D01*
X3421769Y-13538867D01*
X3480252Y-13550500D01*
X3480253Y-13550500D01*
X4519747Y-13550500D01*
X4519748Y-13550500D01*
X4578231Y-13538867D01*
X4644552Y-13494552D01*
X4688867Y-13428231D01*
X4700500Y-13369748D01*
X4700500Y-12678499D01*
X4719407Y-12620309D01*
X4768907Y-12584345D01*
X4799500Y-12579500D01*
X4825500Y-12579500D01*
X4883691Y-12598407D01*
X4919655Y-12647907D01*
X4924500Y-12678500D01*
X4924500Y-12894748D01*
X4935911Y-12952116D01*
X4936133Y-12953231D01*
X4980447Y-13019552D01*
X5019196Y-13045443D01*
X5046769Y-13063867D01*
X5105252Y-13075500D01*
X5272366Y-13075500D01*
X5330557Y-13094407D01*
X5342370Y-13104496D01*
X5435504Y-13197630D01*
X5463281Y-13252147D01*
X5464500Y-13267634D01*
X5464500Y-13462394D01*
X5471430Y-13481437D01*
X5475894Y-13498099D01*
X5479411Y-13518044D01*
X5489539Y-13535586D01*
X5496831Y-13551224D01*
X5503758Y-13570258D01*
X5503760Y-13570260D01*
X5516781Y-13585777D01*
X5526675Y-13599908D01*
X5536806Y-13617455D01*
X5552332Y-13630483D01*
X5564517Y-13642668D01*
X5577545Y-13658194D01*
X5595084Y-13668320D01*
X5609220Y-13678218D01*
X5624737Y-13691239D01*
X5624738Y-13691239D01*
X5624739Y-13691240D01*
X5643777Y-13698169D01*
X5659413Y-13705460D01*
X5676955Y-13715588D01*
X5696901Y-13719104D01*
X5713569Y-13723570D01*
X5732606Y-13730500D01*
X5761525Y-13730500D01*
X7176466Y-13730500D01*
X7185093Y-13730876D01*
X7198357Y-13732037D01*
X7223805Y-13734264D01*
X7223805Y-13734263D01*
X7223807Y-13734264D01*
X7261359Y-13724201D01*
X7269777Y-13722335D01*
X7308045Y-13715588D01*
X7309346Y-13714836D01*
X7333232Y-13704942D01*
X7334684Y-13704554D01*
X7366529Y-13682254D01*
X7373785Y-13677632D01*
X7407455Y-13658194D01*
X7432442Y-13628414D01*
X7438254Y-13622070D01*
X7556866Y-13503458D01*
X7563210Y-13497644D01*
X7592994Y-13472655D01*
X7612432Y-13438985D01*
X7617054Y-13431729D01*
X7639354Y-13399884D01*
X7639743Y-13398429D01*
X7649637Y-13374545D01*
X7650388Y-13373245D01*
X7657140Y-13334948D01*
X7658997Y-13326571D01*
X7669063Y-13289007D01*
X7665677Y-13250302D01*
X7665300Y-13241673D01*
X7665300Y-13186500D01*
X7684207Y-13128309D01*
X7733707Y-13092345D01*
X7764300Y-13087500D01*
X8806847Y-13087500D01*
X8865038Y-13106407D01*
X8900292Y-13153803D01*
X8902353Y-13159694D01*
X8902354Y-13159699D01*
X8947207Y-13287882D01*
X9027850Y-13397150D01*
X9137118Y-13477793D01*
X9265301Y-13522646D01*
X9295734Y-13525500D01*
X9298045Y-13525500D01*
X10701955Y-13525500D01*
X10704266Y-13525500D01*
X10734699Y-13522646D01*
X10862882Y-13477793D01*
X10972150Y-13397150D01*
X11052793Y-13287882D01*
X11097646Y-13159699D01*
X11100500Y-13129266D01*
X11100500Y-12724499D01*
X11119407Y-12666309D01*
X11168907Y-12630345D01*
X11199500Y-12625500D01*
X12161466Y-12625500D01*
X12170093Y-12625876D01*
X12183357Y-12627037D01*
X12208805Y-12629264D01*
X12208805Y-12629263D01*
X12208807Y-12629264D01*
X12246359Y-12619201D01*
X12254777Y-12617335D01*
X12293045Y-12610588D01*
X12294346Y-12609836D01*
X12318232Y-12599942D01*
X12319684Y-12599554D01*
X12351529Y-12577254D01*
X12358785Y-12572632D01*
X12392455Y-12553194D01*
X12417442Y-12523414D01*
X12423254Y-12517070D01*
X13090497Y-11849828D01*
X13145013Y-11822052D01*
X13205445Y-11831623D01*
X13248710Y-11874888D01*
X13259500Y-11919833D01*
X13259500Y-12039748D01*
X13265518Y-12070003D01*
X13271133Y-12098231D01*
X13315447Y-12164552D01*
X13351605Y-12188712D01*
X13381769Y-12208867D01*
X13440252Y-12220500D01*
X13440253Y-12220500D01*
X14479747Y-12220500D01*
X14479748Y-12220500D01*
X14538231Y-12208867D01*
X14604552Y-12164552D01*
X14648867Y-12098231D01*
X14660500Y-12039748D01*
X14660500Y-12039697D01*
X15800000Y-12039697D01*
X15811604Y-12098036D01*
X15855807Y-12164192D01*
X15921963Y-12208395D01*
X15980303Y-12220000D01*
X16399999Y-12220000D01*
X16399999Y-12219999D01*
X16600000Y-12219999D01*
X16600001Y-12220000D01*
X17019697Y-12220000D01*
X17078036Y-12208395D01*
X17144192Y-12164192D01*
X17188395Y-12098036D01*
X17199990Y-12039748D01*
X18339500Y-12039748D01*
X18351133Y-12098231D01*
X18395448Y-12164552D01*
X18395501Y-12164587D01*
X18433381Y-12212637D01*
X18439500Y-12246903D01*
X18439500Y-12494149D01*
X18438653Y-12507070D01*
X18434318Y-12539999D01*
X18434318Y-12540000D01*
X18443511Y-12609826D01*
X18448662Y-12648955D01*
X18454955Y-12696761D01*
X18515464Y-12842841D01*
X18611717Y-12968282D01*
X18707970Y-13042139D01*
X18737159Y-13064536D01*
X18883238Y-13125044D01*
X19040000Y-13145682D01*
X19196762Y-13125044D01*
X19342841Y-13064536D01*
X19468282Y-12968282D01*
X19564536Y-12842841D01*
X19625044Y-12696762D01*
X19631338Y-12648955D01*
X19645682Y-12540000D01*
X19641347Y-12507070D01*
X19640500Y-12494149D01*
X19640500Y-12246903D01*
X19659407Y-12188712D01*
X19684497Y-12164588D01*
X19684552Y-12164552D01*
X19728867Y-12098231D01*
X19740500Y-12039748D01*
X19740500Y-9000252D01*
X19728867Y-8941769D01*
X19709212Y-8912354D01*
X19684552Y-8875447D01*
X19618231Y-8831133D01*
X19618230Y-8831132D01*
X19559748Y-8819500D01*
X18520252Y-8819500D01*
X18491010Y-8825316D01*
X18461768Y-8831133D01*
X18395447Y-8875447D01*
X18351133Y-8941768D01*
X18351132Y-8941769D01*
X18351133Y-8941769D01*
X18339500Y-9000252D01*
X18339500Y-12039748D01*
X17199990Y-12039748D01*
X17200000Y-12039697D01*
X17200000Y-10620001D01*
X17199999Y-10620000D01*
X16600001Y-10620000D01*
X16600000Y-10620001D01*
X16600000Y-12219999D01*
X16399999Y-12219999D01*
X16399999Y-10620000D01*
X15800001Y-10620000D01*
X15800000Y-10620001D01*
X15800000Y-12039697D01*
X14660500Y-12039697D01*
X14660500Y-10419998D01*
X15800000Y-10419998D01*
X15800001Y-10420000D01*
X16399999Y-10420000D01*
X16399999Y-10419999D01*
X16600000Y-10419999D01*
X16600001Y-10420000D01*
X17199999Y-10420000D01*
X17200000Y-10419999D01*
X17200000Y-9000302D01*
X17188395Y-8941963D01*
X17144192Y-8875807D01*
X17078036Y-8831604D01*
X17019697Y-8820000D01*
X16600001Y-8820000D01*
X16600000Y-8820001D01*
X16600000Y-10419999D01*
X16399999Y-10419999D01*
X16399999Y-8820000D01*
X15980303Y-8820000D01*
X15921963Y-8831604D01*
X15855807Y-8875807D01*
X15811604Y-8941963D01*
X15800000Y-9000302D01*
X15800000Y-10419998D01*
X14660500Y-10419998D01*
X14660500Y-9000252D01*
X14648867Y-8941769D01*
X14629212Y-8912354D01*
X14604552Y-8875447D01*
X14538231Y-8831133D01*
X14538230Y-8831132D01*
X14479748Y-8819500D01*
X13440252Y-8819500D01*
X13411010Y-8825316D01*
X13381768Y-8831133D01*
X13315447Y-8875447D01*
X13271133Y-8941768D01*
X13259500Y-9000253D01*
X13259500Y-10719165D01*
X13240593Y-10777356D01*
X13230504Y-10789169D01*
X12074170Y-11945504D01*
X12019653Y-11973281D01*
X12004166Y-11974500D01*
X11056556Y-11974500D01*
X10998365Y-11955593D01*
X10976902Y-11934289D01*
X10972150Y-11927850D01*
X10862882Y-11847207D01*
X10734699Y-11802354D01*
X10734697Y-11802353D01*
X10734695Y-11802353D01*
X10706577Y-11799716D01*
X10706561Y-11799715D01*
X10704266Y-11799500D01*
X9295734Y-11799500D01*
X9293439Y-11799715D01*
X9293422Y-11799716D01*
X9265304Y-11802353D01*
X9157197Y-11840181D01*
X9096027Y-11841553D01*
X9045733Y-11806709D01*
X9025525Y-11748957D01*
X9025500Y-11746736D01*
X9025500Y-10452733D01*
X9044407Y-10394542D01*
X9093907Y-10358578D01*
X9155093Y-10358578D01*
X9157198Y-10359289D01*
X9265396Y-10397149D01*
X9293484Y-10399783D01*
X9298108Y-10399999D01*
X9899998Y-10399999D01*
X9900000Y-10399998D01*
X10100000Y-10399998D01*
X10100001Y-10399999D01*
X10701888Y-10399999D01*
X10706504Y-10399783D01*
X10734604Y-10397148D01*
X10862645Y-10352345D01*
X10971791Y-10271791D01*
X11052345Y-10162645D01*
X11097149Y-10034601D01*
X11099783Y-10006515D01*
X11100000Y-10001891D01*
X11100000Y-9637501D01*
X11099999Y-9637500D01*
X10100001Y-9637500D01*
X10100000Y-9637501D01*
X10100000Y-10399998D01*
X9900000Y-10399998D01*
X9900000Y-9437499D01*
X10100000Y-9437499D01*
X10100001Y-9437500D01*
X11099998Y-9437500D01*
X11099999Y-9437499D01*
X11099999Y-9073112D01*
X11099783Y-9068495D01*
X11097148Y-9040395D01*
X11052345Y-8912354D01*
X10971791Y-8803208D01*
X10862645Y-8722654D01*
X10734601Y-8677850D01*
X10706515Y-8675216D01*
X10701892Y-8675000D01*
X10100001Y-8675000D01*
X10100000Y-8675001D01*
X10100000Y-9437499D01*
X9900000Y-9437499D01*
X9900000Y-8675000D01*
X9298112Y-8675000D01*
X9293495Y-8675216D01*
X9265395Y-8677851D01*
X9157197Y-8715711D01*
X9096027Y-8717083D01*
X9045733Y-8682239D01*
X9025525Y-8624487D01*
X9025500Y-8622266D01*
X9025500Y-8408428D01*
X9044407Y-8350237D01*
X9093907Y-8314273D01*
X9124500Y-8309428D01*
X9538173Y-8309428D01*
X9547460Y-8310342D01*
X9549987Y-8309839D01*
X9549991Y-8309840D01*
X9628223Y-8294282D01*
X9630049Y-8293525D01*
X9631876Y-8292815D01*
X9632055Y-8292694D01*
X9632061Y-8292693D01*
X9698382Y-8248377D01*
X9742695Y-8182055D01*
X9743849Y-8179269D01*
X9744261Y-8178275D01*
X9744269Y-8178254D01*
X9759840Y-8100025D01*
X9759839Y-8100024D01*
X9760342Y-8097501D01*
X9759428Y-8088209D01*
X9759428Y-7908428D01*
X9778335Y-7850237D01*
X9827835Y-7814273D01*
X9858428Y-7809428D01*
X10638173Y-7809428D01*
X10647460Y-7810342D01*
X10649987Y-7809839D01*
X10649991Y-7809840D01*
X10728223Y-7794282D01*
X10730049Y-7793525D01*
X10731876Y-7792815D01*
X10732055Y-7792694D01*
X10732061Y-7792693D01*
X10798382Y-7748377D01*
X10842695Y-7682055D01*
X10843849Y-7679269D01*
X10844261Y-7678275D01*
X10844269Y-7678254D01*
X10859840Y-7600025D01*
X10859839Y-7600024D01*
X10860342Y-7597501D01*
X10859428Y-7588209D01*
X10859428Y-6611830D01*
X10860343Y-6602541D01*
X10859839Y-6600010D01*
X10859840Y-6600009D01*
X10844282Y-6521777D01*
X10843529Y-6519958D01*
X10842816Y-6518124D01*
X10842693Y-6517941D01*
X10842693Y-6517939D01*
X10798377Y-6451618D01*
X10798375Y-6451617D01*
X10798375Y-6451616D01*
X10732059Y-6407307D01*
X10732056Y-6407305D01*
X10732055Y-6407305D01*
X10729203Y-6406124D01*
X10728208Y-6405712D01*
X10728206Y-6405711D01*
X10728205Y-6405711D01*
X10647499Y-6389657D01*
X10638209Y-6390572D01*
X9858428Y-6390572D01*
X9800237Y-6371665D01*
X9764273Y-6322165D01*
X9759428Y-6291572D01*
X9759428Y-6111830D01*
X9760343Y-6102541D01*
X9759839Y-6100010D01*
X9759840Y-6100009D01*
X9744282Y-6021777D01*
X9743529Y-6019958D01*
X9742816Y-6018124D01*
X9742693Y-6017941D01*
X9742693Y-6017939D01*
X9698377Y-5951618D01*
X9698375Y-5951617D01*
X9698375Y-5951616D01*
X9632059Y-5907307D01*
X9632056Y-5907305D01*
X9632055Y-5907305D01*
X9629203Y-5906124D01*
X9628208Y-5905712D01*
X9628206Y-5905711D01*
X9628205Y-5905711D01*
X9547499Y-5889657D01*
X9538209Y-5890572D01*
X8561848Y-5890572D01*
X8552555Y-5889656D01*
X8471788Y-5905712D01*
X8470771Y-5906134D01*
X8467950Y-5907303D01*
X8467936Y-5907308D01*
X8401613Y-5951627D01*
X8357302Y-6017950D01*
X8355718Y-6021776D01*
X8339657Y-6102502D01*
X8340572Y-6111793D01*
X8340572Y-8088235D01*
X8339657Y-8097527D01*
X8355738Y-8178273D01*
X8356150Y-8179267D01*
X8356150Y-8179268D01*
X8356151Y-8179269D01*
X8357305Y-8182055D01*
X8357310Y-8182066D01*
X8357810Y-8182815D01*
X8358160Y-8183966D01*
X8360647Y-8189408D01*
X8359912Y-8189741D01*
X8374500Y-8237823D01*
X8374500Y-11829500D01*
X8355593Y-11887691D01*
X8306093Y-11923655D01*
X8275500Y-11928500D01*
X7974000Y-11928500D01*
X7915809Y-11909593D01*
X7879845Y-11860093D01*
X7878857Y-11853858D01*
X7874999Y-11850000D01*
X7324000Y-11850000D01*
X7265809Y-11831093D01*
X7229845Y-11781593D01*
X7225000Y-11751000D01*
X7225000Y-11749000D01*
X7243907Y-11690809D01*
X7293407Y-11654845D01*
X7324000Y-11650000D01*
X7874999Y-11650000D01*
X7875000Y-11649999D01*
X7875000Y-11605302D01*
X7859554Y-11527650D01*
X7861136Y-11527335D01*
X7852458Y-11496570D01*
X7860249Y-11472590D01*
X7860025Y-11472546D01*
X7863867Y-11453231D01*
X7875500Y-11394748D01*
X7875500Y-11105252D01*
X7863867Y-11046769D01*
X7849162Y-11024762D01*
X7819552Y-10980447D01*
X7753231Y-10936133D01*
X7744986Y-10934493D01*
X7694748Y-10924500D01*
X7694747Y-10924500D01*
X7529500Y-10924500D01*
X7471309Y-10905593D01*
X7435345Y-10856093D01*
X7430500Y-10825500D01*
X7430500Y-8230337D01*
X7442033Y-8192336D01*
X7438963Y-8191065D01*
X7443848Y-8179271D01*
X7444251Y-8178299D01*
X7444261Y-8178275D01*
X7444269Y-8178254D01*
X7459840Y-8100025D01*
X7459839Y-8100024D01*
X7460342Y-8097501D01*
X7459428Y-8088209D01*
X7459428Y-6111830D01*
X7460343Y-6102541D01*
X7459839Y-6100010D01*
X7459840Y-6100009D01*
X7444282Y-6021777D01*
X7443529Y-6019958D01*
X7442816Y-6018124D01*
X7442693Y-6017941D01*
X7442693Y-6017939D01*
X7398377Y-5951618D01*
X7398375Y-5951617D01*
X7398375Y-5951616D01*
X7332059Y-5907307D01*
X7332056Y-5907305D01*
X7332055Y-5907305D01*
X7329203Y-5906124D01*
X7328208Y-5905712D01*
X7328206Y-5905711D01*
X7328205Y-5905711D01*
X7247499Y-5889657D01*
X7238209Y-5890572D01*
X6261848Y-5890572D01*
X6252555Y-5889656D01*
X6171788Y-5905712D01*
X6170771Y-5906134D01*
X6167950Y-5907303D01*
X6167936Y-5907308D01*
X6101613Y-5951627D01*
X6057302Y-6017950D01*
X6055718Y-6021776D01*
X6039657Y-6102502D01*
X6040572Y-6111793D01*
X6040572Y-6291572D01*
X6021665Y-6349763D01*
X5972165Y-6385727D01*
X5941572Y-6390572D01*
X5161848Y-6390572D01*
X5152555Y-6389656D01*
X5071788Y-6405712D01*
X5070771Y-6406134D01*
X5067950Y-6407303D01*
X5067936Y-6407308D01*
X5001613Y-6451627D01*
X4957302Y-6517950D01*
X4955718Y-6521776D01*
X4939657Y-6602502D01*
X4940572Y-6611793D01*
X4940571Y-7588235D01*
X4939657Y-7597526D01*
X4955738Y-7678273D01*
X4956150Y-7679267D01*
X4956150Y-7679268D01*
X4956151Y-7679269D01*
X4957305Y-7682055D01*
X4957310Y-7682066D01*
X5001627Y-7748386D01*
X5067950Y-7792697D01*
X5071777Y-7794282D01*
X5149975Y-7809840D01*
X5149975Y-7809839D01*
X5152500Y-7810342D01*
X5161790Y-7809428D01*
X5941572Y-7809428D01*
X5999763Y-7828335D01*
X6035727Y-7877835D01*
X6040572Y-7908428D01*
X6040572Y-8088235D01*
X6039657Y-8097527D01*
X6055738Y-8178273D01*
X6056150Y-8179267D01*
X6056150Y-8179268D01*
X6056151Y-8179269D01*
X6057305Y-8182055D01*
X6057310Y-8182066D01*
X6101627Y-8248386D01*
X6167950Y-8292697D01*
X6171777Y-8294282D01*
X6249975Y-8309840D01*
X6249975Y-8309839D01*
X6252500Y-8310342D01*
X6261790Y-8309428D01*
X6680500Y-8309428D01*
X6738691Y-8328335D01*
X6774655Y-8377835D01*
X6779500Y-8408428D01*
X6779500Y-10601000D01*
X6760593Y-10659191D01*
X6711093Y-10695155D01*
X6680500Y-10700000D01*
X6500001Y-10700000D01*
X6500000Y-10700001D01*
X6500000Y-12001000D01*
X6481093Y-12059191D01*
X6431593Y-12095155D01*
X6401000Y-12100000D01*
X6399000Y-12100000D01*
X6340809Y-12081093D01*
X6304845Y-12031593D01*
X6300000Y-12001000D01*
X6300000Y-10700001D01*
X6299999Y-10700000D01*
X6075303Y-10700000D01*
X6016963Y-10711604D01*
X5939701Y-10763229D01*
X5880813Y-10779837D01*
X5823409Y-10758659D01*
X5789417Y-10707785D01*
X5785700Y-10680913D01*
X5785700Y-10398722D01*
X5786077Y-10390092D01*
X5789463Y-10351392D01*
X5779407Y-10313865D01*
X5777537Y-10305431D01*
X5771605Y-10271791D01*
X5770788Y-10267155D01*
X5770028Y-10265840D01*
X5760144Y-10241976D01*
X5759753Y-10240516D01*
X5737461Y-10208680D01*
X5732825Y-10201401D01*
X5713394Y-10167745D01*
X5683634Y-10142773D01*
X5677266Y-10136939D01*
X4754496Y-9214169D01*
X4726719Y-9159652D01*
X4725500Y-9144165D01*
X4725500Y-8773045D01*
X4725500Y-8770734D01*
X4722646Y-8740301D01*
X4677793Y-8612118D01*
X4597150Y-8502850D01*
X4487882Y-8422207D01*
X4359699Y-8377354D01*
X4359697Y-8377353D01*
X4359695Y-8377353D01*
X4331577Y-8374716D01*
X4331561Y-8374715D01*
X4329266Y-8374500D01*
X3545734Y-8374500D01*
X3543439Y-8374715D01*
X3543422Y-8374716D01*
X3515304Y-8377353D01*
X3515301Y-8377353D01*
X3515301Y-8377354D01*
X3387118Y-8422207D01*
X3387117Y-8422207D01*
X3387116Y-8422208D01*
X3386512Y-8422654D01*
X3277850Y-8502850D01*
X3197207Y-8612118D01*
X3174206Y-8677851D01*
X3152353Y-8740304D01*
X3149716Y-8768422D01*
X3149715Y-8768439D01*
X3149500Y-8770734D01*
X3149500Y-9829266D01*
X3149715Y-9831561D01*
X3149716Y-9831577D01*
X3152353Y-9859695D01*
X3152353Y-9859697D01*
X3152354Y-9859699D01*
X3197207Y-9987882D01*
X3277850Y-10097150D01*
X3387118Y-10177793D01*
X3515301Y-10222646D01*
X3545734Y-10225500D01*
X3548045Y-10225500D01*
X4326955Y-10225500D01*
X4329266Y-10225500D01*
X4359699Y-10222646D01*
X4487882Y-10177793D01*
X4597150Y-10097150D01*
X4597150Y-10097149D01*
X4597457Y-10096923D01*
X4655504Y-10077581D01*
X4713835Y-10096052D01*
X4726236Y-10106563D01*
X5105705Y-10486031D01*
X5133481Y-10540546D01*
X5134700Y-10556033D01*
X5134700Y-10837395D01*
X5115793Y-10895586D01*
X5066293Y-10931550D01*
X5055018Y-10934492D01*
X5050570Y-10935376D01*
X5046768Y-10936133D01*
X4980447Y-10980447D01*
X4936133Y-11046768D01*
X4924500Y-11105253D01*
X4924500Y-11321500D01*
X4905593Y-11379691D01*
X4856093Y-11415655D01*
X4825500Y-11420500D01*
X4799500Y-11420500D01*
X4741309Y-11401593D01*
X4705345Y-11352093D01*
X4700500Y-11321500D01*
X4700500Y-10630253D01*
X4699654Y-10626000D01*
X4688867Y-10571769D01*
X4650952Y-10515026D01*
X4644552Y-10505447D01*
X4578231Y-10461133D01*
X4536001Y-10452733D01*
X4519748Y-10449500D01*
X3480252Y-10449500D01*
X3463999Y-10452733D01*
X3421768Y-10461133D01*
X3355447Y-10505447D01*
X3300206Y-10588121D01*
X3252156Y-10626000D01*
X3191017Y-10628402D01*
X3180007Y-10624584D01*
X3156761Y-10614955D01*
X3000000Y-10594318D01*
X2843238Y-10614955D01*
X2697158Y-10675464D01*
X2571717Y-10771717D01*
X2475464Y-10897158D01*
X2414955Y-11043238D01*
X2394318Y-11200000D01*
X-13999500Y-11200000D01*
X-13999500Y-9826888D01*
X1075001Y-9826888D01*
X1075216Y-9831504D01*
X1077851Y-9859604D01*
X1122654Y-9987645D01*
X1203208Y-10096791D01*
X1312354Y-10177345D01*
X1440398Y-10222149D01*
X1468484Y-10224783D01*
X1473108Y-10224999D01*
X1762498Y-10224999D01*
X1762500Y-10224998D01*
X1962500Y-10224998D01*
X1962501Y-10224999D01*
X2251888Y-10224999D01*
X2256504Y-10224783D01*
X2284604Y-10222148D01*
X2412645Y-10177345D01*
X2521791Y-10096791D01*
X2602345Y-9987645D01*
X2647149Y-9859601D01*
X2649783Y-9831515D01*
X2650000Y-9826891D01*
X2650000Y-9400001D01*
X2649999Y-9400000D01*
X1962501Y-9400000D01*
X1962500Y-9400001D01*
X1962500Y-10224998D01*
X1762500Y-10224998D01*
X1762500Y-9400001D01*
X1762499Y-9400000D01*
X1075002Y-9400000D01*
X1075001Y-9400001D01*
X1075001Y-9826888D01*
X-13999500Y-9826888D01*
X-13999500Y-9199999D01*
X1075000Y-9199999D01*
X1075001Y-9200000D01*
X1762499Y-9200000D01*
X1762500Y-9199999D01*
X1962500Y-9199999D01*
X1962501Y-9200000D01*
X2649998Y-9200000D01*
X2649999Y-9199999D01*
X2649999Y-8773112D01*
X2649783Y-8768495D01*
X2647148Y-8740395D01*
X2602345Y-8612354D01*
X2521791Y-8503208D01*
X2412645Y-8422654D01*
X2284601Y-8377850D01*
X2256515Y-8375216D01*
X2251892Y-8375000D01*
X1962501Y-8375000D01*
X1962500Y-8375001D01*
X1962500Y-9199999D01*
X1762500Y-9199999D01*
X1762500Y-8375001D01*
X1762499Y-8375000D01*
X1473112Y-8375000D01*
X1468495Y-8375216D01*
X1440395Y-8377851D01*
X1312354Y-8422654D01*
X1203208Y-8503208D01*
X1122654Y-8612354D01*
X1077850Y-8740398D01*
X1075216Y-8768484D01*
X1075000Y-8773108D01*
X1075000Y-9199999D01*
X-13999500Y-9199999D01*
X-13999500Y0D01*
X-6105452Y0D01*
X-6105372Y-1985D01*
X-6093101Y-306504D01*
X-6085654Y-491285D01*
X-6085412Y-493278D01*
X-6026631Y-977388D01*
X-6026628Y-977406D01*
X-6026388Y-979383D01*
X-6025987Y-981348D01*
X-6025986Y-981353D01*
X-5935200Y-1426056D01*
X-5928039Y-1461130D01*
X-5927486Y-1463041D01*
X-5927482Y-1463055D01*
X-5791798Y-1931489D01*
X-5791244Y-1933401D01*
X-5790542Y-1935252D01*
X-5790541Y-1935255D01*
X-5630695Y-2356734D01*
X-5616890Y-2393133D01*
X-5616040Y-2394924D01*
X-5616038Y-2394929D01*
X-5406960Y-2835553D01*
X-5406953Y-2835566D01*
X-5406109Y-2837345D01*
X-5405119Y-2839060D01*
X-5405112Y-2839073D01*
X-5162104Y-3259974D01*
X-5160267Y-3263155D01*
X-5159130Y-3264802D01*
X-4883428Y-3664227D01*
X-4880959Y-3667803D01*
X-4879697Y-3669348D01*
X-4879696Y-3669350D01*
X-4642182Y-3960253D01*
X-4569996Y-4048664D01*
X-4229395Y-4403267D01*
X-3861365Y-4729313D01*
X-3859781Y-4730503D01*
X-3859774Y-4730509D01*
X-3469895Y-5023484D01*
X-3469886Y-5023490D01*
X-3468292Y-5024688D01*
X-3052726Y-5287477D01*
X-2617362Y-5515973D01*
X-2165023Y-5708697D01*
X-1698643Y-5864397D01*
X-1221247Y-5982065D01*
X-735931Y-6060936D01*
X-245842Y-6100500D01*
X-243841Y-6100500D01*
X243841Y-6100500D01*
X245842Y-6100500D01*
X735931Y-6060936D01*
X1221247Y-5982065D01*
X1698643Y-5864397D01*
X2165023Y-5708697D01*
X2617362Y-5515973D01*
X3052726Y-5287477D01*
X3468292Y-5024688D01*
X3861365Y-4729313D01*
X4229395Y-4403267D01*
X4569996Y-4048664D01*
X4880959Y-3667803D01*
X5013351Y-3476000D01*
X8594500Y-3476000D01*
X8594781Y-3478617D01*
X8594782Y-3478629D01*
X8600056Y-3527685D01*
X8600339Y-3530313D01*
X8600898Y-3532885D01*
X8600901Y-3532900D01*
X8611261Y-3580522D01*
X8611267Y-3580548D01*
X8611545Y-3581824D01*
X8611889Y-3583078D01*
X8611892Y-3583090D01*
X8618782Y-3608200D01*
X8653603Y-3669350D01*
X8668112Y-3694828D01*
X8713867Y-3747632D01*
X8746641Y-3779257D01*
X8834976Y-3825465D01*
X8902014Y-3845149D01*
X8902015Y-3845150D01*
X8973997Y-3855500D01*
X8974000Y-3855500D01*
X11245500Y-3855500D01*
X11303691Y-3874407D01*
X11339655Y-3923907D01*
X11344500Y-3954500D01*
X11344499Y-7573353D01*
X11344500Y-7573371D01*
X11344500Y-7576000D01*
X11344781Y-7578617D01*
X11344782Y-7578629D01*
X11347085Y-7600048D01*
X11350339Y-7630313D01*
X11350898Y-7632885D01*
X11350901Y-7632900D01*
X11361261Y-7680522D01*
X11361267Y-7680548D01*
X11361545Y-7681824D01*
X11361889Y-7683078D01*
X11361892Y-7683090D01*
X11368782Y-7708200D01*
X11417800Y-7794281D01*
X11418112Y-7794828D01*
X11463867Y-7847632D01*
X11496641Y-7879257D01*
X11584976Y-7925465D01*
X11652015Y-7945149D01*
X11652015Y-7945150D01*
X11723997Y-7955500D01*
X11724000Y-7955500D01*
X14943151Y-7955500D01*
X14945806Y-7955500D01*
X15000310Y-7949619D01*
X15051998Y-7938333D01*
X15078562Y-7931012D01*
X15118078Y-7908428D01*
X15165113Y-7881546D01*
X15165112Y-7881546D01*
X15165115Y-7881545D01*
X15217847Y-7835707D01*
X15249419Y-7802884D01*
X15295488Y-7714476D01*
X15315068Y-7647406D01*
X15325306Y-7575407D01*
X15315693Y-1423407D01*
X15309811Y-1369297D01*
X15298605Y-1317980D01*
X15291412Y-1291802D01*
X15242081Y-1205172D01*
X15196326Y-1152368D01*
X15163552Y-1120743D01*
X15075217Y-1074535D01*
X15075214Y-1074534D01*
X15008177Y-1054849D01*
X14936196Y-1044500D01*
X14936193Y-1044500D01*
X12110083Y-1044500D01*
X12051892Y-1025593D01*
X12015928Y-976093D01*
X12011095Y-943953D01*
X12030531Y300000D01*
X12600001Y300000D01*
X12600001Y-301888D01*
X12600216Y-306504D01*
X12602851Y-334604D01*
X12647654Y-462645D01*
X12728208Y-571791D01*
X12837354Y-652345D01*
X12965398Y-697149D01*
X12993484Y-699783D01*
X12998108Y-699999D01*
X13362498Y-699999D01*
X13362499Y-699998D01*
X13562500Y-699998D01*
X13562501Y-699999D01*
X13926888Y-699999D01*
X13931504Y-699783D01*
X13959604Y-697148D01*
X14087645Y-652345D01*
X14196791Y-571791D01*
X14277345Y-462645D01*
X14322149Y-334601D01*
X14324783Y-306515D01*
X14325000Y-301891D01*
X14325000Y299999D01*
X14324999Y300000D01*
X13562501Y300000D01*
X13562500Y299999D01*
X13562500Y-699998D01*
X13362499Y-699998D01*
X13362500Y-699997D01*
X13362500Y299999D01*
X13362499Y300000D01*
X12600001Y300000D01*
X12030531Y300000D01*
X12030629Y306251D01*
X12032142Y403082D01*
X15070735Y403082D01*
X15080795Y365538D01*
X15082663Y357110D01*
X15089411Y318846D01*
X15089412Y318843D01*
X15090166Y317536D01*
X15100055Y293663D01*
X15100446Y292203D01*
X15122732Y260374D01*
X15127370Y253094D01*
X15146803Y219436D01*
X15146805Y219434D01*
X15146806Y219433D01*
X15176583Y194447D01*
X15182937Y188625D01*
X16145505Y-773943D01*
X16173281Y-828458D01*
X16174500Y-843945D01*
X16174500Y-3680500D01*
X16155593Y-3738691D01*
X16106093Y-3774655D01*
X16075500Y-3779500D01*
X15980252Y-3779500D01*
X15951010Y-3785316D01*
X15921768Y-3791133D01*
X15855447Y-3835447D01*
X15811133Y-3901768D01*
X15799500Y-3960253D01*
X15799500Y-6999746D01*
X15811133Y-7058231D01*
X15855447Y-7124552D01*
X15899762Y-7154162D01*
X15921769Y-7168867D01*
X15980252Y-7180500D01*
X15980253Y-7180500D01*
X17019747Y-7180500D01*
X17019748Y-7180500D01*
X17078231Y-7168867D01*
X17144552Y-7124552D01*
X17188867Y-7058231D01*
X17200500Y-6999748D01*
X17200500Y-3960252D01*
X17188867Y-3901769D01*
X17151035Y-3845150D01*
X17144552Y-3835447D01*
X17078231Y-3791133D01*
X17078230Y-3791132D01*
X17019748Y-3779500D01*
X17019747Y-3779500D01*
X16924500Y-3779500D01*
X16866309Y-3760593D01*
X16830345Y-3711093D01*
X16825500Y-3680500D01*
X16825500Y-1084833D01*
X16844407Y-1026642D01*
X16893907Y-990678D01*
X16955093Y-990678D01*
X16994501Y-1014827D01*
X17911163Y-1931489D01*
X18685504Y-2705830D01*
X18713281Y-2760347D01*
X18714500Y-2775834D01*
X18714500Y-3680500D01*
X18695593Y-3738691D01*
X18646093Y-3774655D01*
X18615500Y-3779500D01*
X18520252Y-3779500D01*
X18491010Y-3785316D01*
X18461768Y-3791133D01*
X18395447Y-3835447D01*
X18351133Y-3901768D01*
X18339500Y-3960253D01*
X18339500Y-6999746D01*
X18351133Y-7058231D01*
X18395447Y-7124552D01*
X18439762Y-7154162D01*
X18461769Y-7168867D01*
X18520252Y-7180500D01*
X18520253Y-7180500D01*
X19559747Y-7180500D01*
X19559748Y-7180500D01*
X19618231Y-7168867D01*
X19684552Y-7124552D01*
X19728867Y-7058231D01*
X19740500Y-6999748D01*
X19740500Y-3960252D01*
X19728867Y-3901769D01*
X19691035Y-3845150D01*
X19684552Y-3835447D01*
X19618231Y-3791133D01*
X19618230Y-3791132D01*
X19559748Y-3779500D01*
X19559747Y-3779500D01*
X19464500Y-3779500D01*
X19406309Y-3760593D01*
X19370345Y-3711093D01*
X19365500Y-3680500D01*
X19365500Y-2618534D01*
X19365877Y-2609904D01*
X19369264Y-2571193D01*
X19359204Y-2533652D01*
X19357334Y-2525216D01*
X19356326Y-2519501D01*
X19350588Y-2486955D01*
X19349834Y-2485650D01*
X19339943Y-2461768D01*
X19339942Y-2461765D01*
X19339554Y-2460316D01*
X19317260Y-2428477D01*
X19312633Y-2421215D01*
X19293194Y-2387545D01*
X19263428Y-2362568D01*
X19257060Y-2356734D01*
X16184496Y715830D01*
X16156719Y770347D01*
X16155500Y785834D01*
X16155500Y1362500D01*
X16875001Y1362500D01*
X16875001Y1073112D01*
X16875216Y1068496D01*
X16877851Y1040396D01*
X16922654Y912355D01*
X17003208Y803209D01*
X17112354Y722655D01*
X17240398Y677851D01*
X17268484Y675217D01*
X17273108Y675001D01*
X17699998Y675001D01*
X17700000Y675002D01*
X17700000Y1362500D01*
X17900000Y1362500D01*
X17900000Y675002D01*
X17900001Y675001D01*
X18326888Y675001D01*
X18331504Y675217D01*
X18359604Y677852D01*
X18487645Y722655D01*
X18596791Y803209D01*
X18677345Y912355D01*
X18722149Y1040399D01*
X18724783Y1068485D01*
X18725000Y1073109D01*
X18725000Y1362499D01*
X18724999Y1362500D01*
X17900000Y1362500D01*
X17700000Y1362500D01*
X16875001Y1362500D01*
X16155500Y1362500D01*
X16155500Y1562502D01*
X16875000Y1562502D01*
X16875001Y1562500D01*
X17699999Y1562500D01*
X17700000Y1562501D01*
X17900000Y1562501D01*
X17900001Y1562500D01*
X18724998Y1562500D01*
X18724999Y1562502D01*
X18724999Y1851888D01*
X18724783Y1856505D01*
X18722148Y1884605D01*
X18677345Y2012646D01*
X18596791Y2121792D01*
X18487645Y2202346D01*
X18359601Y2247150D01*
X18331515Y2249784D01*
X18326892Y2250000D01*
X17900001Y2250000D01*
X17900000Y2249999D01*
X17900000Y1562501D01*
X17700000Y1562501D01*
X17700000Y2249999D01*
X17699999Y2250000D01*
X17273112Y2250000D01*
X17268495Y2249784D01*
X17240395Y2247149D01*
X17112354Y2202346D01*
X17003208Y2121792D01*
X16922654Y2012646D01*
X16877850Y1884602D01*
X16875216Y1856516D01*
X16875000Y1851892D01*
X16875000Y1562502D01*
X16155500Y1562502D01*
X16155500Y4804812D01*
X16174407Y4863003D01*
X16223907Y4898967D01*
X16285093Y4898967D01*
X16324501Y4874818D01*
X16343517Y4855802D01*
X16448607Y4804427D01*
X16516740Y4794500D01*
X17056678Y4794500D01*
X17114869Y4775593D01*
X17126682Y4765504D01*
X17270504Y4621682D01*
X17298281Y4567165D01*
X17299500Y4551678D01*
X17299500Y4413605D01*
X17280593Y4355414D01*
X17233198Y4320161D01*
X17112118Y4277794D01*
X17002850Y4197150D01*
X16922208Y4087884D01*
X16877353Y3959696D01*
X16874716Y3931578D01*
X16874715Y3931561D01*
X16874500Y3929266D01*
X16874500Y3145734D01*
X16874715Y3143439D01*
X16874716Y3143423D01*
X16877353Y3115305D01*
X16877353Y3115303D01*
X16877354Y3115301D01*
X16922207Y2987118D01*
X17002850Y2877850D01*
X17112118Y2797207D01*
X17240301Y2752354D01*
X17270734Y2749500D01*
X17273045Y2749500D01*
X18326955Y2749500D01*
X18329266Y2749500D01*
X18359699Y2752354D01*
X18487882Y2797207D01*
X18597150Y2877850D01*
X18677793Y2987118D01*
X18722646Y3115301D01*
X18725500Y3145734D01*
X18725500Y3929266D01*
X18722646Y3959699D01*
X18677793Y4087882D01*
X18638065Y4141712D01*
X18618723Y4199760D01*
X18637194Y4258090D01*
X18686424Y4294423D01*
X18717720Y4299500D01*
X18832229Y4299500D01*
X18890420Y4280593D01*
X18892451Y4279077D01*
X18897159Y4275464D01*
X19043238Y4214956D01*
X19200000Y4194318D01*
X19356762Y4214956D01*
X19502841Y4275464D01*
X19628282Y4371718D01*
X19724536Y4497159D01*
X19785044Y4643238D01*
X19805682Y4800000D01*
X19785044Y4956762D01*
X19724536Y5102841D01*
X19702139Y5132030D01*
X19628282Y5228283D01*
X19502841Y5324536D01*
X19356761Y5385045D01*
X19200000Y5405682D01*
X19043238Y5385045D01*
X18897160Y5324537D01*
X18897158Y5324536D01*
X18897159Y5324536D01*
X18892493Y5320957D01*
X18834820Y5300534D01*
X18832229Y5300500D01*
X18649500Y5300500D01*
X18591309Y5319407D01*
X18555345Y5368907D01*
X18550500Y5399500D01*
X18550500Y5478257D01*
X18550500Y5478260D01*
X18540573Y5546393D01*
X18489198Y5651483D01*
X18406483Y5734198D01*
X18301393Y5785573D01*
X18233260Y5795500D01*
X16516740Y5795500D01*
X16465640Y5788055D01*
X16448606Y5785573D01*
X16343515Y5734198D01*
X16324502Y5715184D01*
X16269985Y5687408D01*
X16209554Y5696980D01*
X16166290Y5740245D01*
X16155500Y5785189D01*
X16155500Y6074812D01*
X16174407Y6133003D01*
X16223907Y6168967D01*
X16285093Y6168967D01*
X16324501Y6144818D01*
X16343517Y6125802D01*
X16448607Y6074427D01*
X16516740Y6064500D01*
X16516743Y6064500D01*
X18233257Y6064500D01*
X18233260Y6064500D01*
X18301393Y6074427D01*
X18406483Y6125802D01*
X18476186Y6195506D01*
X18530701Y6223281D01*
X18546188Y6224500D01*
X19000500Y6224500D01*
X19058691Y6205593D01*
X19094655Y6156093D01*
X19099500Y6125500D01*
X19099500Y6030254D01*
X19111133Y5971769D01*
X19155447Y5905448D01*
X19199761Y5875838D01*
X19221769Y5861133D01*
X19280252Y5849500D01*
X19280253Y5849500D01*
X20319747Y5849500D01*
X20319748Y5849500D01*
X20378231Y5861133D01*
X20444552Y5905448D01*
X20488867Y5971769D01*
X20500500Y6030252D01*
X20500500Y7069748D01*
X20488867Y7128231D01*
X20474162Y7150239D01*
X20444552Y7194553D01*
X20378231Y7238867D01*
X20378230Y7238868D01*
X20319748Y7250500D01*
X19280252Y7250500D01*
X19251010Y7244684D01*
X19221768Y7238867D01*
X19155447Y7194553D01*
X19111133Y7128232D01*
X19099500Y7069747D01*
X19099500Y6974500D01*
X19080593Y6916309D01*
X19031093Y6880345D01*
X19000500Y6875500D01*
X18573476Y6875500D01*
X18515285Y6894407D01*
X18501682Y6910605D01*
X18500879Y6909801D01*
X18489198Y6921482D01*
X18489198Y6921483D01*
X18406483Y7004198D01*
X18301393Y7055573D01*
X18233260Y7065500D01*
X16516740Y7065500D01*
X16465640Y7058055D01*
X16448606Y7055573D01*
X16343518Y7004199D01*
X16343517Y7004199D01*
X16343517Y7004198D01*
X16324501Y6985183D01*
X16269987Y6957407D01*
X16209555Y6966978D01*
X16166290Y7010243D01*
X16155500Y7055188D01*
X16155500Y7344812D01*
X16174407Y7403003D01*
X16223907Y7438967D01*
X16285093Y7438967D01*
X16324501Y7414818D01*
X16343517Y7395802D01*
X16448607Y7344427D01*
X16516740Y7334500D01*
X16516743Y7334500D01*
X18233257Y7334500D01*
X18233260Y7334500D01*
X18301393Y7344427D01*
X18406483Y7395802D01*
X18489198Y7478517D01*
X18540573Y7583607D01*
X18550500Y7651740D01*
X18550500Y8018260D01*
X18540573Y8086393D01*
X18509478Y8149999D01*
X19099999Y8149999D01*
X19100000Y7730303D01*
X19111604Y7671964D01*
X19155807Y7605808D01*
X19221963Y7561605D01*
X19280303Y7550000D01*
X19699999Y7550000D01*
X19700000Y7550001D01*
X19700000Y8149999D01*
X19699999Y8150000D01*
X19900000Y8150000D01*
X19900000Y7550001D01*
X19900001Y7550000D01*
X20319697Y7550000D01*
X20378036Y7561605D01*
X20444192Y7605808D01*
X20488395Y7671964D01*
X20500000Y7730303D01*
X20500000Y8149999D01*
X20499999Y8150000D01*
X19900000Y8150000D01*
X19699999Y8150000D01*
X19100001Y8150000D01*
X19099999Y8149999D01*
X18509478Y8149999D01*
X18489198Y8191483D01*
X18406483Y8274198D01*
X18301393Y8325573D01*
X18233260Y8335500D01*
X16516740Y8335500D01*
X16465640Y8328055D01*
X16448606Y8325573D01*
X16343518Y8274199D01*
X16343517Y8274198D01*
X16260802Y8191483D01*
X16255685Y8181018D01*
X16213143Y8137045D01*
X16166746Y8125500D01*
X15824500Y8125500D01*
X15766309Y8144407D01*
X15730345Y8193907D01*
X15725500Y8224500D01*
X15725500Y8324168D01*
X15733894Y8350002D01*
X19099999Y8350002D01*
X19100001Y8350000D01*
X19699999Y8350000D01*
X19700000Y8350001D01*
X19900000Y8350001D01*
X19900001Y8350000D01*
X20499999Y8350000D01*
X20500000Y8350001D01*
X20500000Y8769698D01*
X20488395Y8828037D01*
X20444192Y8894193D01*
X20378036Y8938396D01*
X20319697Y8950000D01*
X19900001Y8950000D01*
X19900000Y8949999D01*
X19900000Y8350001D01*
X19700000Y8350001D01*
X19700000Y8350002D01*
X19700000Y8949999D01*
X19699999Y8950000D01*
X19280303Y8950000D01*
X19221963Y8938396D01*
X19155807Y8894193D01*
X19111604Y8828037D01*
X19100000Y8769698D01*
X19099999Y8350002D01*
X15733894Y8350002D01*
X15744407Y8382359D01*
X15754497Y8394172D01*
X16105830Y8745504D01*
X16160346Y8773281D01*
X16175833Y8774500D01*
X16193812Y8774500D01*
X16252003Y8755593D01*
X16263809Y8745510D01*
X16343517Y8665802D01*
X16448607Y8614427D01*
X16516740Y8604500D01*
X16516743Y8604500D01*
X18233257Y8604500D01*
X18233260Y8604500D01*
X18301393Y8614427D01*
X18406483Y8665802D01*
X18489198Y8748517D01*
X18540573Y8853607D01*
X18550500Y8921740D01*
X18550500Y9288260D01*
X18540573Y9356393D01*
X18489198Y9461483D01*
X18406483Y9544198D01*
X18301393Y9595573D01*
X18233260Y9605500D01*
X16516740Y9605500D01*
X16465640Y9598055D01*
X16448606Y9595573D01*
X16343518Y9544199D01*
X16343517Y9544199D01*
X16343517Y9544198D01*
X16260802Y9461483D01*
X16260801Y9461482D01*
X16253816Y9454496D01*
X16199299Y9426719D01*
X16183812Y9425500D01*
X16018526Y9425500D01*
X16009898Y9425877D01*
X16007971Y9426046D01*
X15971193Y9429264D01*
X15933656Y9419206D01*
X15925227Y9417337D01*
X15886954Y9410588D01*
X15885645Y9409832D01*
X15861780Y9399947D01*
X15860318Y9399556D01*
X15828484Y9377266D01*
X15821204Y9372629D01*
X15787544Y9353195D01*
X15762569Y9323431D01*
X15756736Y9317064D01*
X15182940Y8743268D01*
X15176574Y8737435D01*
X15146804Y8712455D01*
X15127371Y8678796D01*
X15122734Y8671516D01*
X15100444Y8639682D01*
X15100053Y8638220D01*
X15090168Y8614355D01*
X15089410Y8613044D01*
X15082662Y8574777D01*
X15080794Y8566351D01*
X15070735Y8528809D01*
X15074123Y8490097D01*
X15074500Y8481467D01*
X15074500Y450423D01*
X15074123Y441793D01*
X15070735Y403082D01*
X12032142Y403082D01*
X12033656Y500001D01*
X12600000Y500001D01*
X12600001Y500000D01*
X13362499Y500000D01*
X13362500Y500002D01*
X13362500Y1499999D01*
X13362499Y1500000D01*
X13562500Y1500000D01*
X13562500Y500002D01*
X13562501Y500000D01*
X14324998Y500000D01*
X14324999Y500001D01*
X14324999Y1101888D01*
X14324783Y1106505D01*
X14322148Y1134605D01*
X14277345Y1262646D01*
X14196791Y1371792D01*
X14087645Y1452346D01*
X13959601Y1497150D01*
X13931515Y1499784D01*
X13926892Y1500000D01*
X13562500Y1500000D01*
X13362499Y1500000D01*
X12998112Y1500000D01*
X12993495Y1499784D01*
X12965395Y1497149D01*
X12837354Y1452346D01*
X12728208Y1371792D01*
X12647654Y1262646D01*
X12602850Y1134602D01*
X12600216Y1106516D01*
X12600000Y1101892D01*
X12600000Y500001D01*
X12033656Y500001D01*
X12053501Y1770071D01*
X12048109Y1826424D01*
X12036918Y1879872D01*
X12029266Y1908198D01*
X11979935Y1994828D01*
X11934180Y2047632D01*
X11901406Y2079257D01*
X11813071Y2125465D01*
X11813068Y2125466D01*
X11746031Y2145151D01*
X11674050Y2155500D01*
X11674047Y2155500D01*
X8974000Y2155500D01*
X8971383Y2155219D01*
X8971370Y2155218D01*
X8922314Y2149944D01*
X8922303Y2149943D01*
X8919687Y2149661D01*
X8917117Y2149102D01*
X8917099Y2149099D01*
X8869477Y2138739D01*
X8869442Y2138731D01*
X8868176Y2138455D01*
X8866930Y2138114D01*
X8866909Y2138108D01*
X8847404Y2132757D01*
X8841802Y2131219D01*
X8841801Y2131219D01*
X8841799Y2131218D01*
X8755172Y2081889D01*
X8704043Y2037585D01*
X8704035Y2037578D01*
X8702368Y2036133D01*
X8700840Y2034551D01*
X8700831Y2034541D01*
X8670743Y2003360D01*
X8624534Y1915022D01*
X8604849Y1847985D01*
X8594500Y1776003D01*
X8594500Y1776000D01*
X8594500Y780500D01*
X8594500Y19500D01*
X8594500Y-3476000D01*
X5013351Y-3476000D01*
X5160267Y-3263155D01*
X5406109Y-2837345D01*
X5616890Y-2393133D01*
X5791244Y-1933401D01*
X5928039Y-1461130D01*
X6026388Y-979383D01*
X6085654Y-491285D01*
X6105452Y0D01*
X6085654Y491285D01*
X6026388Y979383D01*
X5928039Y1461130D01*
X5791244Y1933401D01*
X5616890Y2393133D01*
X5425154Y2797209D01*
X5406959Y2835554D01*
X5406957Y2835558D01*
X5406109Y2837345D01*
X5382723Y2877850D01*
X5161267Y3261423D01*
X5161266Y3261424D01*
X5160267Y3263155D01*
X4880959Y3667803D01*
X4799789Y3767218D01*
X4571261Y4047115D01*
X4571257Y4047120D01*
X4569996Y4048664D01*
X4229395Y4403267D01*
X4061874Y4551678D01*
X3862851Y4727997D01*
X3862844Y4728003D01*
X3861365Y4729313D01*
X3859783Y4730502D01*
X3859773Y4730510D01*
X3469894Y5023485D01*
X3469880Y5023495D01*
X3468292Y5024688D01*
X3438374Y5043607D01*
X3330631Y5111740D01*
X11249500Y5111740D01*
X11259427Y5043607D01*
X11310802Y4938517D01*
X11393517Y4855802D01*
X11498607Y4804427D01*
X11566740Y4794500D01*
X11723845Y4794500D01*
X11782036Y4775593D01*
X11818000Y4726093D01*
X11818000Y4664907D01*
X11815309Y4657614D01*
X11814955Y4656762D01*
X11794318Y4500000D01*
X11814955Y4343239D01*
X11875464Y4197159D01*
X11971717Y4071718D01*
X12003781Y4047115D01*
X12097159Y3975464D01*
X12243238Y3914956D01*
X12400000Y3894318D01*
X12556762Y3914956D01*
X12702841Y3975464D01*
X12828282Y4071718D01*
X12924536Y4197159D01*
X12985044Y4343238D01*
X13005682Y4500000D01*
X12985044Y4656762D01*
X12984690Y4657615D01*
X12984332Y4662167D01*
X12983343Y4669684D01*
X12983736Y4669736D01*
X12979890Y4718610D01*
X13011859Y4770780D01*
X13068387Y4794195D01*
X13076155Y4794500D01*
X13283257Y4794500D01*
X13283260Y4794500D01*
X13351393Y4804427D01*
X13456483Y4855802D01*
X13539198Y4938517D01*
X13590573Y5043607D01*
X13600500Y5111740D01*
X13600500Y5478260D01*
X13590573Y5546393D01*
X13539198Y5651483D01*
X13456483Y5734198D01*
X13351393Y5785573D01*
X13283260Y5795500D01*
X11566740Y5795500D01*
X11515640Y5788055D01*
X11498606Y5785573D01*
X11393518Y5734199D01*
X11310801Y5651482D01*
X11259427Y5546394D01*
X11259427Y5546393D01*
X11249500Y5478260D01*
X11249500Y5111740D01*
X3330631Y5111740D01*
X3054412Y5286411D01*
X3054408Y5286413D01*
X3052726Y5287477D01*
X3050961Y5288403D01*
X3050953Y5288408D01*
X2619142Y5515039D01*
X2619137Y5515042D01*
X2617362Y5515973D01*
X2615525Y5516756D01*
X2615518Y5516759D01*
X2166862Y5707914D01*
X2166850Y5707919D01*
X2165023Y5708697D01*
X2163138Y5709327D01*
X2163123Y5709332D01*
X1700544Y5863763D01*
X1700529Y5863768D01*
X1698643Y5864397D01*
X1696708Y5864874D01*
X1696694Y5864878D01*
X1223179Y5981589D01*
X1223174Y5981590D01*
X1221247Y5982065D01*
X1219298Y5982382D01*
X1219287Y5982384D01*
X737890Y6060618D01*
X737881Y6060620D01*
X735931Y6060936D01*
X733954Y6061096D01*
X733951Y6061096D01*
X247835Y6100340D01*
X247813Y6100341D01*
X245842Y6100500D01*
X-245842Y6100500D01*
X-247813Y6100341D01*
X-247836Y6100340D01*
X-733952Y6061096D01*
X-733958Y6061096D01*
X-735931Y6060936D01*
X-737879Y6060620D01*
X-737891Y6060618D01*
X-1219288Y5982384D01*
X-1219304Y5982381D01*
X-1221247Y5982065D01*
X-1223170Y5981592D01*
X-1223180Y5981589D01*
X-1696695Y5864878D01*
X-1696715Y5864873D01*
X-1698643Y5864397D01*
X-1700523Y5863770D01*
X-1700545Y5863763D01*
X-2163124Y5709332D01*
X-2163147Y5709324D01*
X-2165023Y5708697D01*
X-2166843Y5707922D01*
X-2166863Y5707914D01*
X-2615519Y5516759D01*
X-2615535Y5516752D01*
X-2617362Y5515973D01*
X-2619129Y5515046D01*
X-2619143Y5515039D01*
X-3050954Y5288408D01*
X-3050973Y5288398D01*
X-3052726Y5287477D01*
X-3054399Y5286420D01*
X-3054413Y5286411D01*
X-3466601Y5025758D01*
X-3466613Y5025750D01*
X-3468292Y5024688D01*
X-3469870Y5023503D01*
X-3469895Y5023485D01*
X-3859774Y4730510D01*
X-3859797Y4730492D01*
X-3861365Y4729313D01*
X-3862833Y4728014D01*
X-3862852Y4727997D01*
X-4227904Y4404589D01*
X-4227919Y4404575D01*
X-4229395Y4403267D01*
X-4230767Y4401840D01*
X-4230776Y4401830D01*
X-4568612Y4050106D01*
X-4568625Y4050092D01*
X-4569996Y4048664D01*
X-4571246Y4047134D01*
X-4571262Y4047115D01*
X-4879696Y3669351D01*
X-4879707Y3669338D01*
X-4880959Y3667803D01*
X-4882086Y3666171D01*
X-4882099Y3666153D01*
X-5159130Y3264803D01*
X-5159136Y3264794D01*
X-5160267Y3263155D01*
X-5161257Y3261442D01*
X-5161268Y3261423D01*
X-5405112Y2839074D01*
X-5405125Y2839051D01*
X-5406109Y2837345D01*
X-5406948Y2835577D01*
X-5406960Y2835554D01*
X-5616038Y2394930D01*
X-5616045Y2394916D01*
X-5616890Y2393133D01*
X-5617591Y2391286D01*
X-5617596Y2391273D01*
X-5790541Y1935256D01*
X-5790545Y1935245D01*
X-5791244Y1933401D01*
X-5791795Y1931501D01*
X-5791798Y1931490D01*
X-5927482Y1463056D01*
X-5927487Y1463036D01*
X-5928039Y1461130D01*
X-5928438Y1459180D01*
X-5928441Y1459164D01*
X-6025986Y981354D01*
X-6026388Y979383D01*
X-6026628Y977411D01*
X-6026631Y977389D01*
X-6063001Y677852D01*
X-6085654Y491285D01*
X-6085735Y489295D01*
X-6085735Y489285D01*
X-6095102Y256834D01*
X-6105452Y0D01*
X-13999500Y0D01*
X-13999500Y6600000D01*
X10194318Y6600000D01*
X10214955Y6443239D01*
X10275464Y6297159D01*
X10371717Y6171718D01*
X10464531Y6100500D01*
X10497159Y6075464D01*
X10643238Y6014956D01*
X10800000Y5994318D01*
X10956762Y6014956D01*
X11102841Y6075464D01*
X11193223Y6144816D01*
X11226917Y6170670D01*
X11284593Y6191094D01*
X11343259Y6173716D01*
X11357182Y6162137D01*
X11393517Y6125802D01*
X11498607Y6074427D01*
X11566740Y6064500D01*
X11566743Y6064500D01*
X13283257Y6064500D01*
X13283260Y6064500D01*
X13351393Y6074427D01*
X13456483Y6125802D01*
X13539198Y6208517D01*
X13590573Y6313607D01*
X13600500Y6381740D01*
X13600500Y6748260D01*
X13590573Y6816393D01*
X13539198Y6921483D01*
X13456483Y7004198D01*
X13351393Y7055573D01*
X13283260Y7065500D01*
X11566740Y7065500D01*
X11515640Y7058055D01*
X11498606Y7055573D01*
X11393514Y7004197D01*
X11390300Y7000982D01*
X11335783Y6973206D01*
X11275351Y6982780D01*
X11241757Y7010721D01*
X11228282Y7028282D01*
X11193217Y7055188D01*
X11106851Y7121459D01*
X11072196Y7171882D01*
X11073797Y7233047D01*
X11106852Y7278542D01*
X11179778Y7334500D01*
X11228282Y7371718D01*
X11241757Y7389281D01*
X11292179Y7423936D01*
X11353344Y7422335D01*
X11390300Y7399019D01*
X11393517Y7395802D01*
X11498607Y7344427D01*
X11566740Y7334500D01*
X11566743Y7334500D01*
X13283257Y7334500D01*
X13283260Y7334500D01*
X13351393Y7344427D01*
X13456483Y7395802D01*
X13539198Y7478517D01*
X13590573Y7583607D01*
X13600500Y7651740D01*
X13600500Y8018260D01*
X13590573Y8086393D01*
X13539198Y8191483D01*
X13456483Y8274198D01*
X13351393Y8325573D01*
X13283260Y8335500D01*
X11566740Y8335500D01*
X11515640Y8328055D01*
X11498606Y8325573D01*
X11393516Y8274198D01*
X11357187Y8237869D01*
X11302670Y8210092D01*
X11242238Y8219664D01*
X11226917Y8229330D01*
X11161225Y8279737D01*
X11102841Y8324536D01*
X11102839Y8324537D01*
X10956761Y8385045D01*
X10800000Y8405682D01*
X10643238Y8385045D01*
X10497158Y8324536D01*
X10371717Y8228283D01*
X10275464Y8102842D01*
X10214955Y7956762D01*
X10194318Y7800000D01*
X10214955Y7643239D01*
X10275464Y7497159D01*
X10371717Y7371718D01*
X10493147Y7278542D01*
X10527803Y7228118D01*
X10526202Y7166953D01*
X10493147Y7121458D01*
X10371717Y7028283D01*
X10275464Y6902842D01*
X10214955Y6756762D01*
X10194318Y6600000D01*
X-13999500Y6600000D01*
X-13999500Y9005000D01*
X11250001Y9005000D01*
X11250001Y8921784D01*
X11259911Y8853753D01*
X11311214Y8748812D01*
X11393812Y8666214D01*
X11498750Y8614913D01*
X11566784Y8605001D01*
X12324997Y8605001D01*
X12324998Y8605002D01*
X12524999Y8605002D01*
X12525000Y8605001D01*
X13283217Y8605001D01*
X13351247Y8614912D01*
X13456188Y8666215D01*
X13538786Y8748813D01*
X13590087Y8853751D01*
X13600000Y8921785D01*
X13600000Y9004999D01*
X13599999Y9005000D01*
X12525001Y9005000D01*
X12524999Y9004999D01*
X12524999Y8605002D01*
X12324998Y8605002D01*
X12324999Y8605003D01*
X12324999Y9005000D01*
X11250001Y9005000D01*
X-13999500Y9005000D01*
X-13999500Y9205001D01*
X11250000Y9205001D01*
X11250001Y9205000D01*
X12324999Y9205000D01*
X12324999Y9604999D01*
X12324998Y9605000D01*
X12524999Y9605000D01*
X12524999Y9205002D01*
X12525001Y9205000D01*
X13599998Y9205000D01*
X13599999Y9205001D01*
X13599999Y9288217D01*
X13590088Y9356248D01*
X13538785Y9461189D01*
X13456187Y9543787D01*
X13351249Y9595088D01*
X13283216Y9605000D01*
X12524999Y9605000D01*
X12324998Y9605000D01*
X11566782Y9605000D01*
X11498752Y9595089D01*
X11393811Y9543786D01*
X11311213Y9461188D01*
X11259912Y9356250D01*
X11250000Y9288216D01*
X11250000Y9205001D01*
X-13999500Y9205001D01*
X-13999500Y12995682D01*
X-13999123Y13004311D01*
X-13995524Y13045447D01*
X-13982880Y13173825D01*
X-13979991Y13189699D01*
X-13961993Y13256872D01*
X-13961164Y13259776D01*
X-13932801Y13353275D01*
X-13927793Y13366361D01*
X-13896034Y13434468D01*
X-13893632Y13439274D01*
X-13850280Y13520381D01*
X-13844081Y13530472D01*
X-13799812Y13593694D01*
X-13795258Y13599695D01*
X-13738044Y13669411D01*
X-13731551Y13676577D01*
X-13676577Y13731551D01*
X-13669411Y13738044D01*
X-13599689Y13795263D01*
X-13593695Y13799812D01*
X-13530472Y13844081D01*
X-13520381Y13850280D01*
X-13439274Y13893632D01*
X-13434477Y13896030D01*
X-13366359Y13927795D01*
X-13353275Y13932801D01*
X-13259775Y13961164D01*
X-13256888Y13961989D01*
X-13189693Y13979993D01*
X-13173821Y13982880D01*
X-13045458Y13995523D01*
X-13004293Y13999125D01*
X-12995688Y13999500D01*
X20995680Y13999500D01*
X21004309Y13999123D01*
G37*
G04 #@! TD.AperFunction*
M02*
