G04 #@! TF.GenerationSoftware,KiCad,Pcbnew,7.0.5.1-1-g8f565ef7f0-dirty-deb11*
G04 #@! TF.CreationDate,2023-06-03T17:46:58+00:00*
G04 #@! TF.ProjectId,stencil,7374656e-6369-46c2-9e6b-696361645f70,1.0.0*
G04 #@! TF.SameCoordinates,Original*
G04 #@! TF.FileFunction,Paste,Bot*
G04 #@! TF.FilePolarity,Positive*
%FSLAX46Y46*%
G04 Gerber Fmt 4.6, Leading zero omitted, Abs format (unit mm)*
G04 Created by KiCad (PCBNEW 7.0.5.1-1-g8f565ef7f0-dirty-deb11) date 2023-06-03 17:46:58*
%MOMM*%
%LPD*%
G01*
G04 APERTURE LIST*
%ADD10C,0.500000*%
%ADD11C,1.000000*%
%ADD12C,1.050000*%
%ADD13R,1.000000X2.750000*%
%ADD14R,2.750000X1.000000*%
G04 APERTURE END LIST*
D10*
X-110000000Y74071429D02*
G75*
G03*
X-110500000Y73571429I1J-500001D01*
G01*
X-110500000Y-38285710D02*
X-110500000Y-48714281D01*
X-61222200Y86500000D02*
G75*
G03*
X-61722224Y87000000I-500000J0D01*
G01*
X-61722224Y-86999976D02*
G75*
G03*
X-61222224Y-86500000I24J499976D01*
G01*
X113499987Y48714287D02*
G75*
G03*
X113000000Y49214287I-499987J13D01*
G01*
D11*
X110750000Y0D02*
G75*
G03*
X110750000Y0I-500000J0D01*
G01*
D10*
X-110500000Y63142858D02*
G75*
G03*
X-110000000Y62642858I500001J1D01*
G01*
X-110000000Y-50214281D02*
G75*
G03*
X-110500000Y-50714281I1J-500001D01*
G01*
X113500000Y48714287D02*
X113500000Y38285716D01*
X-110500000Y-75571423D02*
X-110500000Y-85999994D01*
X113500000Y11428574D02*
X113500000Y1000003D01*
X-110500000Y50714287D02*
G75*
G03*
X-110000000Y50214287I500001J1D01*
G01*
X51777800Y-86500000D02*
G75*
G03*
X52277772Y-87000000I500000J0D01*
G01*
X-84611112Y87000000D02*
G75*
G03*
X-85111112Y86500000I1J-500001D01*
G01*
X-11944448Y-86999952D02*
G75*
G03*
X-11444448Y-86500000I48J499952D01*
G01*
X-110000000Y11928574D02*
G75*
G03*
X-110500000Y11428574I1J-500001D01*
G01*
X2499996Y87000000D02*
X12944440Y87000000D01*
X-110500000Y-23857139D02*
G75*
G03*
X-110000000Y-24357139I500001J1D01*
G01*
X14444400Y-86500000D02*
G75*
G03*
X14944440Y-87000000I500000J0D01*
G01*
X-110500000Y-63142852D02*
X-110500000Y-73571423D01*
D12*
X110775000Y-83750000D02*
G75*
G03*
X110775000Y-83750000I-525000J0D01*
G01*
D10*
X112500000Y-87000000D02*
G75*
G03*
X113500000Y-86000000I0J1000000D01*
G01*
X113499977Y-75571423D02*
G75*
G03*
X113000000Y-75071423I-499977J23D01*
G01*
X-98555556Y86500000D02*
G75*
G03*
X-99055556Y87000000I-500001J-1D01*
G01*
X-47277780Y-87000000D02*
X-36833336Y-87000000D01*
X-10444400Y-86500000D02*
G75*
G03*
X-9944448Y-87000000I500000J0D01*
G01*
X-110500000Y-25857139D02*
X-110500000Y-36285710D01*
X50277772Y-86999972D02*
G75*
G03*
X50777772Y-86500000I28J499972D01*
G01*
X-84611112Y-87000000D02*
X-74166668Y-87000000D01*
X-22388892Y86999992D02*
G75*
G03*
X-22888892Y86500000I-8J-499992D01*
G01*
X-22388892Y-87000000D02*
X-11944448Y-87000000D01*
X39333300Y-86500000D02*
G75*
G03*
X39833328Y-87000000I500000J0D01*
G01*
X-35333300Y-86500000D02*
G75*
G03*
X-34833336Y-87000000I500000J0D01*
G01*
X499996Y-86999996D02*
G75*
G03*
X999996Y-86500000I4J499996D01*
G01*
X113500000Y23857145D02*
X113500000Y13428574D01*
X-110500000Y-36285710D02*
G75*
G03*
X-110000000Y-36785710I500001J1D01*
G01*
X113500000Y-38285710D02*
X113500000Y-48714281D01*
X64722216Y-87000000D02*
X75166660Y-87000000D01*
X-47777800Y-86500000D02*
G75*
G03*
X-47277780Y-87000000I500000J0D01*
G01*
X113500032Y-13428568D02*
G75*
G03*
X113000000Y-12928568I-500032J-32D01*
G01*
X113500000Y36285716D02*
X113500000Y25857145D01*
X-110500000Y-50714281D02*
X-110500000Y-61142852D01*
X-85111112Y-86500000D02*
G75*
G03*
X-84611112Y-87000000I500001J1D01*
G01*
X-110000000Y-37785710D02*
G75*
G03*
X-110500000Y-38285710I1J-500001D01*
G01*
X14944440Y87000000D02*
X25388884Y87000000D01*
X113000000Y12928600D02*
G75*
G03*
X113500000Y13428574I0J500000D01*
G01*
X77166660Y87000000D02*
X87611104Y87000000D01*
X-97055556Y87000000D02*
G75*
G03*
X-97555556Y86500000I1J-500001D01*
G01*
X12944440Y-87000040D02*
G75*
G03*
X13444440Y-86500000I-40J500040D01*
G01*
X14944440Y-87000000D02*
X25388884Y-87000000D01*
X-48777800Y86500000D02*
G75*
G03*
X-49277780Y87000000I-500000J0D01*
G01*
X-59722224Y-87000000D02*
X-49277780Y-87000000D01*
X-73666700Y86500000D02*
G75*
G03*
X-74166668Y87000000I-500000J0D01*
G01*
X-110500000Y-11428568D02*
G75*
G03*
X-110000000Y-11928568I500001J1D01*
G01*
D11*
X2000000Y-83750000D02*
G75*
G03*
X2000000Y-83750000I-500000J0D01*
G01*
D10*
X-72166668Y87000000D02*
X-61722224Y87000000D01*
X113500016Y36285716D02*
G75*
G03*
X113000000Y36785716I-500016J-16D01*
G01*
X-110000000Y-12928568D02*
G75*
G03*
X-110500000Y-13428568I1J-500001D01*
G01*
X-110500000Y36285716D02*
X-110500000Y25857145D01*
X26888900Y-86500000D02*
G75*
G03*
X27388884Y-87000000I500000J0D01*
G01*
X102055548Y-87000000D02*
X112499992Y-87000000D01*
D11*
X56375000Y-83750000D02*
G75*
G03*
X56375000Y-83750000I-500000J0D01*
G01*
D10*
X-97555556Y-86500000D02*
G75*
G03*
X-97055556Y-87000000I500001J1D01*
G01*
X64222200Y-86500000D02*
G75*
G03*
X64722216Y-87000000I500000J0D01*
G01*
X88111100Y86500000D02*
G75*
G03*
X87611104Y87000000I-500000J0D01*
G01*
X2000000Y-86500000D02*
G75*
G03*
X2499996Y-87000000I500000J0D01*
G01*
X-72166668Y-87000000D02*
X-61722224Y-87000000D01*
D11*
X-106750000Y41875000D02*
G75*
G03*
X-106750000Y41875000I-500000J0D01*
G01*
D10*
X52277772Y87000028D02*
G75*
G03*
X51777772Y86500000I28J-500028D01*
G01*
D11*
X-52375000Y-83750000D02*
G75*
G03*
X-52375000Y-83750000I-500000J0D01*
G01*
D10*
X113000000Y-36785700D02*
G75*
G03*
X113500000Y-36285710I0J500000D01*
G01*
X-22888900Y-86500000D02*
G75*
G03*
X-22388892Y-87000000I500000J0D01*
G01*
X39833328Y86999972D02*
G75*
G03*
X39333328Y86500000I-28J-499972D01*
G01*
X-110500000Y-61142852D02*
G75*
G03*
X-110000000Y-61642852I500001J1D01*
G01*
X-110500000Y-13428568D02*
X-110500000Y-23857139D01*
X113000000Y-49214300D02*
G75*
G03*
X113500000Y-48714281I0J500000D01*
G01*
X89611104Y87000000D02*
X100055548Y87000000D01*
X113000000Y-61642900D02*
G75*
G03*
X113500000Y-61142852I0J500000D01*
G01*
X113500048Y-63142852D02*
G75*
G03*
X113000000Y-62642852I-500048J-48D01*
G01*
D11*
X110750000Y-41875000D02*
G75*
G03*
X110750000Y-41875000I-500000J0D01*
G01*
D10*
X-110000000Y49214287D02*
G75*
G03*
X-110500000Y48714287I1J-500001D01*
G01*
X113000000Y37785700D02*
G75*
G03*
X113500000Y38285716I0J500000D01*
G01*
X-109500000Y87000000D02*
G75*
G03*
X-110500000Y86000000I-1J-999999D01*
G01*
D11*
X110750000Y41875000D02*
G75*
G03*
X110750000Y41875000I-500000J0D01*
G01*
D10*
X-86111112Y86500000D02*
G75*
G03*
X-86611112Y87000000I-500001J-1D01*
G01*
X-110500000Y-73571423D02*
G75*
G03*
X-110000000Y-74071423I500001J1D01*
G01*
X39833328Y-87000000D02*
X50277772Y-87000000D01*
X1000000Y86500000D02*
G75*
G03*
X499996Y87000000I-500000J0D01*
G01*
X-84611112Y87000000D02*
X-74166668Y87000000D01*
X-59722224Y87000000D02*
X-49277780Y87000000D01*
X-47277780Y86999980D02*
G75*
G03*
X-47777780Y86500000I-20J-499980D01*
G01*
X50777800Y86500000D02*
G75*
G03*
X50277772Y87000000I-500000J0D01*
G01*
X37833328Y-87000028D02*
G75*
G03*
X38333328Y-86500000I-28J500028D01*
G01*
X-110000000Y-25357139D02*
G75*
G03*
X-110500000Y-25857139I1J-500001D01*
G01*
X113500000Y86000000D02*
G75*
G03*
X112500000Y87000000I-1000000J0D01*
G01*
X102055548Y87000000D02*
X112499992Y87000000D01*
X-72666700Y-86500000D02*
G75*
G03*
X-72166668Y-87000000I500000J0D01*
G01*
X-9944448Y-87000000D02*
X499996Y-87000000D01*
X52277772Y87000000D02*
X62722216Y87000000D01*
X101555500Y-86500000D02*
G75*
G03*
X102055548Y-87000000I500000J0D01*
G01*
X87611104Y-87000004D02*
G75*
G03*
X88111104Y-86500000I-4J500004D01*
G01*
X113500000Y-999997D02*
X113500000Y-11428568D01*
X-110000000Y36785716D02*
G75*
G03*
X-110500000Y36285716I1J-500001D01*
G01*
X-24388892Y-87000008D02*
G75*
G03*
X-23888892Y-86500000I-8J500008D01*
G01*
X113499961Y-25857139D02*
G75*
G03*
X113000000Y-25357139I-499961J39D01*
G01*
X113500000Y-25857139D02*
X113500000Y-36285710D01*
X2499996Y-87000000D02*
X12944440Y-87000000D01*
D11*
X2000000Y83750000D02*
G75*
G03*
X2000000Y83750000I-500000J0D01*
G01*
D10*
X2499996Y87000004D02*
G75*
G03*
X1999996Y86500000I4J-500004D01*
G01*
X113500000Y-13428568D02*
X113500000Y-23857139D01*
X-36833336Y-86999964D02*
G75*
G03*
X-36333336Y-86500000I36J499964D01*
G01*
X-109500000Y87000000D02*
X-99055556Y87000000D01*
X-60222200Y-86500000D02*
G75*
G03*
X-59722224Y-87000000I500000J0D01*
G01*
X113000000Y-74071400D02*
G75*
G03*
X113500000Y-73571423I0J500000D01*
G01*
X-86611112Y-87000000D02*
G75*
G03*
X-86111112Y-86500000I-1J500001D01*
G01*
X113499958Y61142858D02*
G75*
G03*
X113000000Y61642858I-499958J42D01*
G01*
X39833328Y87000000D02*
X50277772Y87000000D01*
X-47277780Y87000000D02*
X-36833336Y87000000D01*
X113500000Y86000000D02*
X113500000Y75571429D01*
X-97055556Y-87000000D02*
X-86611112Y-87000000D01*
X-110500000Y13428574D02*
G75*
G03*
X-110000000Y12928574I500001J1D01*
G01*
X-49277780Y-87000020D02*
G75*
G03*
X-48777780Y-86500000I-20J500020D01*
G01*
X75666700Y86500000D02*
G75*
G03*
X75166660Y87000000I-500000J0D01*
G01*
X113500000Y73571429D02*
X113500000Y63142858D01*
X113000000Y500000D02*
G75*
G03*
X113500000Y1000003I0J500000D01*
G01*
X100055548Y-87000048D02*
G75*
G03*
X100555548Y-86500000I-48J500048D01*
G01*
X-9944448Y87000000D02*
X499996Y87000000D01*
X-110500000Y75571429D02*
G75*
G03*
X-110000000Y75071429I500001J1D01*
G01*
X13444400Y86500000D02*
G75*
G03*
X12944440Y87000000I-500000J0D01*
G01*
X-110500000Y48714287D02*
X-110500000Y38285716D01*
X-110000000Y-499997D02*
G75*
G03*
X-110500000Y-999997I1J-500001D01*
G01*
X-110500000Y-48714281D02*
G75*
G03*
X-110000000Y-49214281I500001J1D01*
G01*
X63222200Y86500000D02*
G75*
G03*
X62722216Y87000000I-500000J0D01*
G01*
X77166660Y87000040D02*
G75*
G03*
X76666660Y86500000I40J-500040D01*
G01*
X-59722224Y87000024D02*
G75*
G03*
X-60222224Y86500000I24J-500024D01*
G01*
X14944440Y86999960D02*
G75*
G03*
X14444440Y86500000I-40J-499960D01*
G01*
X113500029Y73571429D02*
G75*
G03*
X113000000Y74071429I-500029J-29D01*
G01*
X113499990Y-38285710D02*
G75*
G03*
X113000000Y-37785710I-499990J10D01*
G01*
X-110500000Y38285716D02*
G75*
G03*
X-110000000Y37785716I500001J1D01*
G01*
X-110500000Y61142858D02*
X-110500000Y50714287D01*
X27388884Y-87000000D02*
X37833328Y-87000000D01*
X-110500000Y1000003D02*
G75*
G03*
X-110000000Y500003I500001J1D01*
G01*
X25888900Y86500000D02*
G75*
G03*
X25388884Y87000000I-500000J0D01*
G01*
X-110000000Y61642858D02*
G75*
G03*
X-110500000Y61142858I1J-500001D01*
G01*
X113500000Y-75571423D02*
X113500000Y-85999994D01*
X-22388892Y87000000D02*
X-11944448Y87000000D01*
X-110500000Y-999997D02*
X-110500000Y-11428568D01*
X89111100Y-86500000D02*
G75*
G03*
X89611104Y-87000000I500000J0D01*
G01*
D11*
X-106750000Y-41875000D02*
G75*
G03*
X-106750000Y-41875000I-500000J0D01*
G01*
D10*
X89611104Y-87000000D02*
X100055548Y-87000000D01*
X-110500000Y25857145D02*
G75*
G03*
X-110000000Y25357145I500001J1D01*
G01*
X38333300Y86500000D02*
G75*
G03*
X37833328Y87000000I-500000J0D01*
G01*
X-110500000Y86000000D02*
X-110500000Y75571429D01*
X-110000000Y-62642852D02*
G75*
G03*
X-110500000Y-63142852I1J-500001D01*
G01*
X113499974Y11428574D02*
G75*
G03*
X113000000Y11928574I-499974J26D01*
G01*
X102055548Y86999952D02*
G75*
G03*
X101555548Y86500000I-48J-499952D01*
G01*
X64722216Y87000000D02*
X75166660Y87000000D01*
D11*
X-106750000Y0D02*
G75*
G03*
X-106750000Y0I-500000J0D01*
G01*
D10*
X-34833336Y87000036D02*
G75*
G03*
X-35333336Y86500000I36J-500036D01*
G01*
X-11444400Y86500000D02*
G75*
G03*
X-11944448Y87000000I-500000J0D01*
G01*
X27388884Y87000016D02*
G75*
G03*
X26888884Y86500000I16J-500016D01*
G01*
X25388884Y-86999984D02*
G75*
G03*
X25888884Y-86500000I16J499984D01*
G01*
D11*
X-52375000Y83750000D02*
G75*
G03*
X-52375000Y83750000I-500000J0D01*
G01*
D10*
X89611104Y86999996D02*
G75*
G03*
X89111104Y86500000I-4J-499996D01*
G01*
X27388884Y87000000D02*
X37833328Y87000000D01*
X-109500000Y-87000000D02*
X-99055556Y-87000000D01*
X-74166668Y-87000032D02*
G75*
G03*
X-73666668Y-86500000I-32J500032D01*
G01*
X113500000Y61142858D02*
X113500000Y50714287D01*
X-110000000Y24357145D02*
G75*
G03*
X-110500000Y23857145I1J-500001D01*
G01*
X75166660Y-86999960D02*
G75*
G03*
X75666660Y-86500000I40J499960D01*
G01*
X113000000Y50214300D02*
G75*
G03*
X113500000Y50714287I0J500000D01*
G01*
X64722216Y86999984D02*
G75*
G03*
X64222216Y86500000I-16J-499984D01*
G01*
X-99055556Y-87000000D02*
G75*
G03*
X-98555556Y-86500000I-1J500001D01*
G01*
X-110500000Y73571429D02*
X-110500000Y63142858D01*
D11*
X56375000Y83750000D02*
G75*
G03*
X56375000Y83750000I-500000J0D01*
G01*
D10*
X-34833336Y87000000D02*
X-24388892Y87000000D01*
X62722216Y-87000016D02*
G75*
G03*
X63222216Y-86500000I-16J500016D01*
G01*
D12*
X110775000Y83750000D02*
G75*
G03*
X110775000Y83750000I-525000J0D01*
G01*
D10*
X113500045Y23857145D02*
G75*
G03*
X113000000Y24357145I-500045J-45D01*
G01*
X113000000Y25357100D02*
G75*
G03*
X113500000Y25857145I0J500000D01*
G01*
X-72166668Y86999968D02*
G75*
G03*
X-72666668Y86500000I-32J-499968D01*
G01*
X113000000Y62642900D02*
G75*
G03*
X113500000Y63142858I0J500000D01*
G01*
X113500000Y-63142852D02*
X113500000Y-73571423D01*
X113500000Y-50714281D02*
X113500000Y-61142852D01*
X76666700Y-86500000D02*
G75*
G03*
X77166660Y-87000000I500000J0D01*
G01*
X113500019Y-50714281D02*
G75*
G03*
X113000000Y-50214281I-500019J-19D01*
G01*
X113000000Y-24357100D02*
G75*
G03*
X113500000Y-23857139I0J500000D01*
G01*
X-110500000Y11428574D02*
X-110500000Y1000003D01*
X113000000Y-11928600D02*
G75*
G03*
X113500000Y-11428568I0J500000D01*
G01*
D12*
X-106725000Y83750000D02*
G75*
G03*
X-106725000Y83750000I-525000J0D01*
G01*
D10*
X52277772Y-87000000D02*
X62722216Y-87000000D01*
X-110500000Y-86000000D02*
G75*
G03*
X-109500000Y-87000000I999999J-1D01*
G01*
X113000000Y75071400D02*
G75*
G03*
X113500000Y75571429I0J500000D01*
G01*
X-97055556Y87000000D02*
X-86611112Y87000000D01*
X77166660Y-87000000D02*
X87611104Y-87000000D01*
D12*
X-106725000Y-83750000D02*
G75*
G03*
X-106725000Y-83750000I-525000J0D01*
G01*
D10*
X-9944448Y87000048D02*
G75*
G03*
X-10444448Y86500000I48J-500048D01*
G01*
X100555500Y86500000D02*
G75*
G03*
X100055548Y87000000I-500000J0D01*
G01*
X-110000000Y-75071423D02*
G75*
G03*
X-110500000Y-75571423I1J-500001D01*
G01*
X113500003Y-999997D02*
G75*
G03*
X113000000Y-499997I-500003J-3D01*
G01*
X-36333300Y86500000D02*
G75*
G03*
X-36833336Y87000000I-500000J0D01*
G01*
X-34833336Y-87000000D02*
X-24388892Y-87000000D01*
X-110500000Y23857145D02*
X-110500000Y13428574D01*
X-23888900Y86500000D02*
G75*
G03*
X-24388892Y87000000I-500000J0D01*
G01*
D13*
G04 #@! TO.C,J1*
X11000000Y3125000D03*
X11000000Y-3125000D03*
X9000000Y3125000D03*
X9000000Y-3125000D03*
G04 #@! TD*
D14*
G04 #@! TO.C,J2*
X13125000Y-11000000D03*
X6875000Y-11000000D03*
X13125000Y-9000000D03*
X6875000Y-9000000D03*
G04 #@! TD*
M02*
