  0
SECTION
  2
HEADER
  9
$ANGBASE
  50
0.0
  9
$ANGDIR
  70
1
  9
$MEASUREMENT
  70
1
  0
ENDSEC
  0
SECTION
  2
TABLES
  0
TABLE
  2
LTYPE
  70
4
  0
LTYPE
  5
40F
  2
CONTINUOUS
  70
0
  3
Solid line
  72
65
  73
0
  40
0.0
  0
LTYPE
  5
410
  2
DASHDOT
 70
0
  3
Dash Dot ____ _ ____ _
 72
65
 73
4
 40
2.0
 49
1.25
 49
-0.25
 49
0.25
 49
-0.25
  0
LTYPE
  5
411
  2
DASHED
 70
0
  3
Dashed __ __ __ __ __
 72
65
 73
2
 40
0.75
 49
0.5
 49
-0.25
  0
LTYPE
  5
43B
  2
DOTTED
 70
0
  3
Dotted .  .  .  .
 72
65
 73
2
 40
0.2
 49
0.0
 49
-0.2
  0
ENDTAB
  0
TABLE
  2
STYLE
  70
4
  0
STYLE
  2
KICAD
  70
0
  40
0
  41
1
  42
1
  50
0
  71
0
  3
isocp.shx
  0
STYLE
  2
KICADB
  70
0
  40
0
  41
1
  42
1
  50
0
  71
0
  3
isocp.shx
  0
STYLE
  2
KICADI
  70
0
  40
0
  41
1
  42
1
  50
15
  71
0
  3
isocp.shx
  0
STYLE
  2
KICADBI
  70
0
  40
0
  41
1
  42
1
  50
15
  71
0
  3
isocp.shx
  0
ENDTAB
  0
TABLE
  2
LAYER
  70
1
  0
LAYER
  2
BLACK
  70
0
  62
7
  6
CONTINUOUS
  0
ENDTAB
  0
ENDSEC
  0
SECTION
  2
ENTITIES
0
LINE
8
BLACK
6
CONTINUOUS
10
79.625
20
-70.18
11
78.795
21
-70.18
0
LINE
8
BLACK
6
CONTINUOUS
10
78.795
20
-70.18
11
78.795
21
-69.43
0
LINE
8
BLACK
6
CONTINUOUS
10
78.795
20
-69.43
11
79.625
21
-69.43
0
LINE
8
BLACK
6
CONTINUOUS
10
79.625
20
-69.43
11
79.625
21
-70.18
0
LINE
8
BLACK
6
CONTINUOUS
10
81.205
20
-70.18
11
80.375
21
-70.18
0
LINE
8
BLACK
6
CONTINUOUS
10
80.375
20
-70.18
11
80.375
21
-69.43
0
LINE
8
BLACK
6
CONTINUOUS
10
80.375
20
-69.43
11
81.205
21
-69.43
0
LINE
8
BLACK
6
CONTINUOUS
10
81.205
20
-69.43
11
81.205
21
-70.18
0
LINE
8
BLACK
6
CONTINUOUS
10
79.625
20
-69.25
11
78.795
21
-69.25
0
LINE
8
BLACK
6
CONTINUOUS
10
78.795
20
-69.25
11
78.795
21
-68.75
0
LINE
8
BLACK
6
CONTINUOUS
10
78.795
20
-68.75
11
79.625
21
-68.75
0
LINE
8
BLACK
6
CONTINUOUS
10
79.625
20
-68.75
11
79.625
21
-69.25
0
LINE
8
BLACK
6
CONTINUOUS
10
81.205
20
-69.25
11
80.375
21
-69.25
0
LINE
8
BLACK
6
CONTINUOUS
10
80.375
20
-69.25
11
80.375
21
-68.75
0
LINE
8
BLACK
6
CONTINUOUS
10
80.375
20
-68.75
11
81.205
21
-68.75
0
LINE
8
BLACK
6
CONTINUOUS
10
81.205
20
-68.75
11
81.205
21
-69.25
0
LINE
8
BLACK
6
CONTINUOUS
10
79.625
20
-68.57
11
78.795
21
-68.57
0
LINE
8
BLACK
6
CONTINUOUS
10
78.795
20
-68.57
11
78.795
21
-67.82
0
LINE
8
BLACK
6
CONTINUOUS
10
78.795
20
-67.82
11
79.625
21
-67.82
0
LINE
8
BLACK
6
CONTINUOUS
10
79.625
20
-67.82
11
79.625
21
-68.57
0
LINE
8
BLACK
6
CONTINUOUS
10
81.205
20
-68.57
11
80.375
21
-68.57
0
LINE
8
BLACK
6
CONTINUOUS
10
80.375
20
-68.57
11
80.375
21
-67.82
0
LINE
8
BLACK
6
CONTINUOUS
10
80.375
20
-67.82
11
81.205
21
-67.82
0
LINE
8
BLACK
6
CONTINUOUS
10
81.205
20
-67.82
11
81.205
21
-68.57
0
LINE
8
BLACK
6
CONTINUOUS
10
72.1801
20
-65.2836
11
71.5306
21
-65.6586
0
LINE
8
BLACK
6
CONTINUOUS
10
71.5306
20
-65.6586
11
71.1156
21
-64.9398
0
LINE
8
BLACK
6
CONTINUOUS
10
71.1156
20
-64.9398
11
71.7651
21
-64.5648
0
LINE
8
BLACK
6
CONTINUOUS
10
71.7651
20
-64.5648
11
72.1801
21
-65.2836
0
LINE
8
BLACK
6
CONTINUOUS
10
71.979
20
-63.5752
11
71.546
21
-63.8252
0
LINE
8
BLACK
6
CONTINUOUS
10
71.546
20
-63.8252
11
71.131
21
-63.1064
0
LINE
8
BLACK
6
CONTINUOUS
10
71.131
20
-63.1064
11
71.564
21
-62.8564
0
LINE
8
BLACK
6
CONTINUOUS
10
71.564
20
-62.8564
11
71.979
21
-63.5752
0
LINE
8
BLACK
6
CONTINUOUS
10
87.4901
20
-64.1348
11
87.0751
21
-64.8536
0
LINE
8
BLACK
6
CONTINUOUS
10
87.0751
20
-64.8536
11
86.4256
21
-64.4786
0
LINE
8
BLACK
6
CONTINUOUS
10
86.4256
20
-64.4786
11
86.8406
21
-63.7598
0
LINE
8
BLACK
6
CONTINUOUS
10
86.8406
20
-63.7598
11
87.4901
21
-64.1348
0
LINE
8
BLACK
6
CONTINUOUS
10
88.079
20
-64.4748
11
87.664
21
-65.1936
0
LINE
8
BLACK
6
CONTINUOUS
10
87.664
20
-65.1936
11
87.231
21
-64.9436
0
LINE
8
BLACK
6
CONTINUOUS
10
87.231
20
-64.9436
11
87.646
21
-64.2248
0
LINE
8
BLACK
6
CONTINUOUS
10
87.646
20
-64.2248
11
88.079
21
-64.4748
0
LINE
8
BLACK
6
CONTINUOUS
10
88.8844
20
-64.9398
11
88.4694
21
-65.6586
0
LINE
8
BLACK
6
CONTINUOUS
10
88.4694
20
-65.6586
11
87.8199
21
-65.2836
0
LINE
8
BLACK
6
CONTINUOUS
10
87.8199
20
-65.2836
11
88.2349
21
-64.5648
0
LINE
8
BLACK
6
CONTINUOUS
10
88.2349
20
-64.5648
11
88.8844
21
-64.9398
0
LINE
8
BLACK
6
CONTINUOUS
10
71.3901
20
-63.9152
11
70.7406
21
-64.2902
0
LINE
8
BLACK
6
CONTINUOUS
10
70.7406
20
-64.2902
11
70.3256
21
-63.5714
0
LINE
8
BLACK
6
CONTINUOUS
10
70.3256
20
-63.5714
11
70.9751
21
-63.1964
0
LINE
8
BLACK
6
CONTINUOUS
10
70.9751
20
-63.1964
11
71.3901
21
-63.9152
0
LINE
8
BLACK
6
CONTINUOUS
10
72.769
20
-64.9436
11
72.336
21
-65.1936
0
LINE
8
BLACK
6
CONTINUOUS
10
72.336
20
-65.1936
11
71.921
21
-64.4748
0
LINE
8
BLACK
6
CONTINUOUS
10
71.921
20
-64.4748
11
72.354
21
-64.2248
0
LINE
8
BLACK
6
CONTINUOUS
10
72.354
20
-64.2248
11
72.769
21
-64.9436
0
LINE
8
BLACK
6
CONTINUOUS
10
73.5744
20
-64.4786
11
72.9249
21
-64.8536
0
LINE
8
BLACK
6
CONTINUOUS
10
72.9249
20
-64.8536
11
72.5099
21
-64.1348
0
LINE
8
BLACK
6
CONTINUOUS
10
72.5099
20
-64.1348
11
73.1594
21
-63.7598
0
LINE
8
BLACK
6
CONTINUOUS
10
73.1594
20
-63.7598
11
73.5744
21
-64.4786
0
LINE
8
BLACK
6
CONTINUOUS
10
88.2801
20
-62.7664
11
87.8651
21
-63.4852
0
LINE
8
BLACK
6
CONTINUOUS
10
87.8651
20
-63.4852
11
87.2156
21
-63.1102
0
LINE
8
BLACK
6
CONTINUOUS
10
87.2156
20
-63.1102
11
87.6306
21
-62.3914
0
LINE
8
BLACK
6
CONTINUOUS
10
87.6306
20
-62.3914
11
88.2801
21
-62.7664
0
LINE
8
BLACK
6
CONTINUOUS
10
88.869
20
-63.1064
11
88.454
21
-63.8252
0
LINE
8
BLACK
6
CONTINUOUS
10
88.454
20
-63.8252
11
88.021
21
-63.5752
0
LINE
8
BLACK
6
CONTINUOUS
10
88.021
20
-63.5752
11
88.436
21
-62.8564
0
LINE
8
BLACK
6
CONTINUOUS
10
88.436
20
-62.8564
11
88.869
21
-63.1064
0
LINE
8
BLACK
6
CONTINUOUS
10
89.6744
20
-63.5714
11
89.2594
21
-64.2902
0
LINE
8
BLACK
6
CONTINUOUS
10
89.2594
20
-64.2902
11
88.6099
21
-63.9152
0
LINE
8
BLACK
6
CONTINUOUS
10
88.6099
20
-63.9152
11
89.0249
21
-63.1964
0
LINE
8
BLACK
6
CONTINUOUS
10
89.0249
20
-63.1964
11
89.6744
21
-63.5714
0
LINE
8
BLACK
6
CONTINUOUS
10
72.7844
20
-63.1102
11
72.1349
21
-63.4852
0
LINE
8
BLACK
6
CONTINUOUS
10
72.1349
20
-63.4852
11
71.7199
21
-62.7664
0
LINE
8
BLACK
6
CONTINUOUS
10
71.7199
20
-62.7664
11
72.3694
21
-62.3914
0
LINE
8
BLACK
6
CONTINUOUS
10
72.3694
20
-62.3914
11
72.7844
21
-63.1102
0
LINE
8
BLACK
6
CONTINUOUS
10
71.3901
20
-56.0848
11
70.9751
21
-56.8036
0
LINE
8
BLACK
6
CONTINUOUS
10
70.9751
20
-56.8036
11
70.3256
21
-56.4286
0
LINE
8
BLACK
6
CONTINUOUS
10
70.3256
20
-56.4286
11
70.7406
21
-55.7098
0
LINE
8
BLACK
6
CONTINUOUS
10
70.7406
20
-55.7098
11
71.3901
21
-56.0848
0
LINE
8
BLACK
6
CONTINUOUS
10
71.979
20
-56.4248
11
71.564
21
-57.1436
0
LINE
8
BLACK
6
CONTINUOUS
10
71.564
20
-57.1436
11
71.131
21
-56.8936
0
LINE
8
BLACK
6
CONTINUOUS
10
71.131
20
-56.8936
11
71.546
21
-56.1748
0
LINE
8
BLACK
6
CONTINUOUS
10
71.546
20
-56.1748
11
71.979
21
-56.4248
0
LINE
8
BLACK
6
CONTINUOUS
10
72.7844
20
-56.8898
11
72.3694
21
-57.6086
0
LINE
8
BLACK
6
CONTINUOUS
10
72.3694
20
-57.6086
11
71.7199
21
-57.2336
0
LINE
8
BLACK
6
CONTINUOUS
10
71.7199
20
-57.2336
11
72.1349
21
-56.5148
0
LINE
8
BLACK
6
CONTINUOUS
10
72.1349
20
-56.5148
11
72.7844
21
-56.8898
0
LINE
8
BLACK
6
CONTINUOUS
10
88.2801
20
-57.2336
11
87.6306
21
-57.6086
0
LINE
8
BLACK
6
CONTINUOUS
10
87.6306
20
-57.6086
11
87.2156
21
-56.8898
0
LINE
8
BLACK
6
CONTINUOUS
10
87.2156
20
-56.8898
11
87.8651
21
-56.5148
0
LINE
8
BLACK
6
CONTINUOUS
10
87.8651
20
-56.5148
11
88.2801
21
-57.2336
0
LINE
8
BLACK
6
CONTINUOUS
10
72.1801
20
-54.7164
11
71.7651
21
-55.4352
0
LINE
8
BLACK
6
CONTINUOUS
10
71.7651
20
-55.4352
11
71.1156
21
-55.0602
0
LINE
8
BLACK
6
CONTINUOUS
10
71.1156
20
-55.0602
11
71.5306
21
-54.3414
0
LINE
8
BLACK
6
CONTINUOUS
10
71.5306
20
-54.3414
11
72.1801
21
-54.7164
0
LINE
8
BLACK
6
CONTINUOUS
10
72.769
20
-55.0564
11
72.354
21
-55.7752
0
LINE
8
BLACK
6
CONTINUOUS
10
72.354
20
-55.7752
11
71.921
21
-55.5252
0
LINE
8
BLACK
6
CONTINUOUS
10
71.921
20
-55.5252
11
72.336
21
-54.8064
0
LINE
8
BLACK
6
CONTINUOUS
10
72.336
20
-54.8064
11
72.769
21
-55.0564
0
LINE
8
BLACK
6
CONTINUOUS
10
87.4901
20
-55.8652
11
86.8406
21
-56.2402
0
LINE
8
BLACK
6
CONTINUOUS
10
86.8406
20
-56.2402
11
86.4256
21
-55.5214
0
LINE
8
BLACK
6
CONTINUOUS
10
86.4256
20
-55.5214
11
87.0751
21
-55.1464
0
LINE
8
BLACK
6
CONTINUOUS
10
87.0751
20
-55.1464
11
87.4901
21
-55.8652
0
LINE
8
BLACK
6
CONTINUOUS
10
88.869
20
-56.8936
11
88.436
21
-57.1436
0
LINE
8
BLACK
6
CONTINUOUS
10
88.436
20
-57.1436
11
88.021
21
-56.4248
0
LINE
8
BLACK
6
CONTINUOUS
10
88.021
20
-56.4248
11
88.454
21
-56.1748
0
LINE
8
BLACK
6
CONTINUOUS
10
88.454
20
-56.1748
11
88.869
21
-56.8936
0
LINE
8
BLACK
6
CONTINUOUS
10
88.079
20
-55.5252
11
87.646
21
-55.7752
0
LINE
8
BLACK
6
CONTINUOUS
10
87.646
20
-55.7752
11
87.231
21
-55.0564
0
LINE
8
BLACK
6
CONTINUOUS
10
87.231
20
-55.0564
11
87.664
21
-54.8064
0
LINE
8
BLACK
6
CONTINUOUS
10
87.664
20
-54.8064
11
88.079
21
-55.5252
0
LINE
8
BLACK
6
CONTINUOUS
10
89.6744
20
-56.4286
11
89.0249
21
-56.8036
0
LINE
8
BLACK
6
CONTINUOUS
10
89.0249
20
-56.8036
11
88.6099
21
-56.0848
0
LINE
8
BLACK
6
CONTINUOUS
10
88.6099
20
-56.0848
11
89.2594
21
-55.7098
0
LINE
8
BLACK
6
CONTINUOUS
10
89.2594
20
-55.7098
11
89.6744
21
-56.4286
0
LINE
8
BLACK
6
CONTINUOUS
10
73.5744
20
-55.5214
11
73.1594
21
-56.2402
0
LINE
8
BLACK
6
CONTINUOUS
10
73.1594
20
-56.2402
11
72.5099
21
-55.8652
0
LINE
8
BLACK
6
CONTINUOUS
10
72.5099
20
-55.8652
11
72.9249
21
-55.1464
0
LINE
8
BLACK
6
CONTINUOUS
10
72.9249
20
-55.1464
11
73.5744
21
-55.5214
0
LINE
8
BLACK
6
CONTINUOUS
10
88.8844
20
-55.0602
11
88.2349
21
-55.4352
0
LINE
8
BLACK
6
CONTINUOUS
10
88.2349
20
-55.4352
11
87.8199
21
-54.7164
0
LINE
8
BLACK
6
CONTINUOUS
10
87.8199
20
-54.7164
11
88.4694
21
-54.3414
0
LINE
8
BLACK
6
CONTINUOUS
10
88.4694
20
-54.3414
11
88.8844
21
-55.0602
0
LINE
8
BLACK
6
CONTINUOUS
10
79.625
20
-52.18
11
78.795
21
-52.18
0
LINE
8
BLACK
6
CONTINUOUS
10
78.795
20
-52.18
11
78.795
21
-51.43
0
LINE
8
BLACK
6
CONTINUOUS
10
78.795
20
-51.43
11
79.625
21
-51.43
0
LINE
8
BLACK
6
CONTINUOUS
10
79.625
20
-51.43
11
79.625
21
-52.18
0
LINE
8
BLACK
6
CONTINUOUS
10
81.205
20
-52.18
11
80.375
21
-52.18
0
LINE
8
BLACK
6
CONTINUOUS
10
80.375
20
-52.18
11
80.375
21
-51.43
0
LINE
8
BLACK
6
CONTINUOUS
10
80.375
20
-51.43
11
81.205
21
-51.43
0
LINE
8
BLACK
6
CONTINUOUS
10
81.205
20
-51.43
11
81.205
21
-52.18
0
LINE
8
BLACK
6
CONTINUOUS
10
79.625
20
-51.25
11
78.795
21
-51.25
0
LINE
8
BLACK
6
CONTINUOUS
10
78.795
20
-51.25
11
78.795
21
-50.75
0
LINE
8
BLACK
6
CONTINUOUS
10
78.795
20
-50.75
11
79.625
21
-50.75
0
LINE
8
BLACK
6
CONTINUOUS
10
79.625
20
-50.75
11
79.625
21
-51.25
0
LINE
8
BLACK
6
CONTINUOUS
10
81.205
20
-51.25
11
80.375
21
-51.25
0
LINE
8
BLACK
6
CONTINUOUS
10
80.375
20
-51.25
11
80.375
21
-50.75
0
LINE
8
BLACK
6
CONTINUOUS
10
80.375
20
-50.75
11
81.205
21
-50.75
0
LINE
8
BLACK
6
CONTINUOUS
10
81.205
20
-50.75
11
81.205
21
-51.25
0
LINE
8
BLACK
6
CONTINUOUS
10
79.625
20
-50.57
11
78.795
21
-50.57
0
LINE
8
BLACK
6
CONTINUOUS
10
78.795
20
-50.57
11
78.795
21
-49.82
0
LINE
8
BLACK
6
CONTINUOUS
10
78.795
20
-49.82
11
79.625
21
-49.82
0
LINE
8
BLACK
6
CONTINUOUS
10
79.625
20
-49.82
11
79.625
21
-50.57
0
LINE
8
BLACK
6
CONTINUOUS
10
81.205
20
-50.57
11
80.375
21
-50.57
0
LINE
8
BLACK
6
CONTINUOUS
10
80.375
20
-50.57
11
80.375
21
-49.82
0
LINE
8
BLACK
6
CONTINUOUS
10
80.375
20
-49.82
11
81.205
21
-49.82
0
LINE
8
BLACK
6
CONTINUOUS
10
81.205
20
-49.82
11
81.205
21
-50.57
  0
ENDSEC
  0
EOF
