  0
SECTION
  2
HEADER
  9
$ANGBASE
  50
0.0
  9
$ANGDIR
  70
1
  9
$MEASUREMENT
  70
1
  0
ENDSEC
  0
SECTION
  2
TABLES
  0
TABLE
  2
LTYPE
  70
4
  0
LTYPE
  5
40F
  2
CONTINUOUS
  70
0
  3
Solid line
  72
65
  73
0
  40
0.0
  0
LTYPE
  5
410
  2
DASHDOT
 70
0
  3
Dash Dot ____ _ ____ _
 72
65
 73
4
 40
2.0
 49
1.25
 49
-0.25
 49
0.25
 49
-0.25
  0
LTYPE
  5
411
  2
DASHED
 70
0
  3
Dashed __ __ __ __ __
 72
65
 73
2
 40
0.75
 49
0.5
 49
-0.25
  0
LTYPE
  5
43B
  2
DOTTED
 70
0
  3
Dotted .  .  .  .
 72
65
 73
2
 40
0.2
 49
0.0
 49
-0.2
  0
ENDTAB
  0
TABLE
  2
STYLE
  70
4
  0
STYLE
  2
KICAD
  70
0
  40
0
  41
1
  42
1
  50
0
  71
0
  3
isocp.shx
  0
STYLE
  2
KICADB
  70
0
  40
0
  41
1
  42
1
  50
0
  71
0
  3
isocp.shx
  0
STYLE
  2
KICADI
  70
0
  40
0
  41
1
  42
1
  50
15
  71
0
  3
isocp.shx
  0
STYLE
  2
KICADBI
  70
0
  40
0
  41
1
  42
1
  50
15
  71
0
  3
isocp.shx
  0
ENDTAB
  0
TABLE
  2
LAYER
  70
1
  0
LAYER
  2
BLACK
  70
0
  62
7
  6
CONTINUOUS
  0
ENDTAB
  0
ENDSEC
  0
SECTION
  2
ENTITIES
0
LINE
8
BLACK
6
CONTINUOUS
10
79.7409
20
-70.1769
11
79.7701
21
-70.1964
0
LINE
8
BLACK
6
CONTINUOUS
10
79.7701
20
-70.1964
11
79.7896
21
-70.2256
0
LINE
8
BLACK
6
CONTINUOUS
10
79.7896
20
-70.2256
11
79.7965
21
-70.26
0
LINE
8
BLACK
6
CONTINUOUS
10
79.7965
20
-70.26
11
79.7965
21
-70.44
0
LINE
8
BLACK
6
CONTINUOUS
10
79.7965
20
-70.44
11
79.7896
21
-70.4744
0
LINE
8
BLACK
6
CONTINUOUS
10
79.7896
20
-70.4744
11
79.7701
21
-70.5036
0
LINE
8
BLACK
6
CONTINUOUS
10
79.7701
20
-70.5036
11
79.7409
21
-70.5231
0
LINE
8
BLACK
6
CONTINUOUS
10
79.7409
20
-70.5231
11
79.7065
21
-70.53
0
LINE
8
BLACK
6
CONTINUOUS
10
79.7065
20
-70.53
11
79.4285
21
-70.53
0
LINE
8
BLACK
6
CONTINUOUS
10
79.4285
20
-70.53
11
79.3941
21
-70.5231
0
LINE
8
BLACK
6
CONTINUOUS
10
79.3941
20
-70.5231
11
79.3649
21
-70.5036
0
LINE
8
BLACK
6
CONTINUOUS
10
79.3649
20
-70.5036
11
79.3454
21
-70.4744
0
LINE
8
BLACK
6
CONTINUOUS
10
79.3454
20
-70.4744
11
79.3385
21
-70.44
0
LINE
8
BLACK
6
CONTINUOUS
10
79.3385
20
-70.44
11
79.3385
21
-70.26
0
LINE
8
BLACK
6
CONTINUOUS
10
79.3385
20
-70.26
11
79.3454
21
-70.2256
0
LINE
8
BLACK
6
CONTINUOUS
10
79.3454
20
-70.2256
11
79.3649
21
-70.1964
0
LINE
8
BLACK
6
CONTINUOUS
10
79.3649
20
-70.1964
11
79.3941
21
-70.1769
0
LINE
8
BLACK
6
CONTINUOUS
10
79.3941
20
-70.1769
11
79.4285
21
-70.17
0
LINE
8
BLACK
6
CONTINUOUS
10
79.4285
20
-70.17
11
79.7065
21
-70.17
0
LINE
8
BLACK
6
CONTINUOUS
10
79.7065
20
-70.17
11
79.7409
21
-70.1769
0
LINE
8
BLACK
6
CONTINUOUS
10
80.6059
20
-70.1769
11
80.6351
21
-70.1964
0
LINE
8
BLACK
6
CONTINUOUS
10
80.6351
20
-70.1964
11
80.6546
21
-70.2256
0
LINE
8
BLACK
6
CONTINUOUS
10
80.6546
20
-70.2256
11
80.6615
21
-70.26
0
LINE
8
BLACK
6
CONTINUOUS
10
80.6615
20
-70.26
11
80.6615
21
-70.44
0
LINE
8
BLACK
6
CONTINUOUS
10
80.6615
20
-70.44
11
80.6546
21
-70.4744
0
LINE
8
BLACK
6
CONTINUOUS
10
80.6546
20
-70.4744
11
80.6351
21
-70.5036
0
LINE
8
BLACK
6
CONTINUOUS
10
80.6351
20
-70.5036
11
80.6059
21
-70.5231
0
LINE
8
BLACK
6
CONTINUOUS
10
80.6059
20
-70.5231
11
80.5715
21
-70.53
0
LINE
8
BLACK
6
CONTINUOUS
10
80.5715
20
-70.53
11
80.2935
21
-70.53
0
LINE
8
BLACK
6
CONTINUOUS
10
80.2935
20
-70.53
11
80.2591
21
-70.5231
0
LINE
8
BLACK
6
CONTINUOUS
10
80.2591
20
-70.5231
11
80.2299
21
-70.5036
0
LINE
8
BLACK
6
CONTINUOUS
10
80.2299
20
-70.5036
11
80.2104
21
-70.4744
0
LINE
8
BLACK
6
CONTINUOUS
10
80.2104
20
-70.4744
11
80.2035
21
-70.44
0
LINE
8
BLACK
6
CONTINUOUS
10
80.2035
20
-70.44
11
80.2035
21
-70.26
0
LINE
8
BLACK
6
CONTINUOUS
10
80.2035
20
-70.26
11
80.2104
21
-70.2256
0
LINE
8
BLACK
6
CONTINUOUS
10
80.2104
20
-70.2256
11
80.2299
21
-70.1964
0
LINE
8
BLACK
6
CONTINUOUS
10
80.2299
20
-70.1964
11
80.2591
21
-70.1769
0
LINE
8
BLACK
6
CONTINUOUS
10
80.2591
20
-70.1769
11
80.2935
21
-70.17
0
LINE
8
BLACK
6
CONTINUOUS
10
80.2935
20
-70.17
11
80.5715
21
-70.17
0
LINE
8
BLACK
6
CONTINUOUS
10
80.5715
20
-70.17
11
80.6059
21
-70.1769
0
LINE
8
BLACK
6
CONTINUOUS
10
79.8
20
-69.7
11
79.3
21
-69.7
0
LINE
8
BLACK
6
CONTINUOUS
10
79.3
20
-69.7
11
79.3
21
-69.2
0
LINE
8
BLACK
6
CONTINUOUS
10
79.3
20
-69.2
11
79.8
21
-69.2
0
LINE
8
BLACK
6
CONTINUOUS
10
79.8
20
-69.2
11
79.8
21
-69.7
0
LINE
8
BLACK
6
CONTINUOUS
10
80.7
20
-69.7
11
80.2
21
-69.7
0
LINE
8
BLACK
6
CONTINUOUS
10
80.2
20
-69.7
11
80.2
21
-69.2
0
LINE
8
BLACK
6
CONTINUOUS
10
80.2
20
-69.2
11
80.7
21
-69.2
0
LINE
8
BLACK
6
CONTINUOUS
10
80.7
20
-69.2
11
80.7
21
-69.7
0
LINE
8
BLACK
6
CONTINUOUS
10
75.1692
20
-68.9542
11
75.4099
21
-69.0932
0
LINE
8
BLACK
6
CONTINUOUS
10
75.4099
20
-69.0932
11
75.4363
21
-69.1164
0
LINE
8
BLACK
6
CONTINUOUS
10
75.4363
20
-69.1164
11
75.4519
21
-69.1479
0
LINE
8
BLACK
6
CONTINUOUS
10
75.4519
20
-69.1479
11
75.4542
21
-69.1829
0
LINE
8
BLACK
6
CONTINUOUS
10
75.4542
20
-69.1829
11
75.4429
21
-69.2162
0
LINE
8
BLACK
6
CONTINUOUS
10
75.4429
20
-69.2162
11
75.3529
21
-69.3721
0
LINE
8
BLACK
6
CONTINUOUS
10
75.3529
20
-69.3721
11
75.3297
21
-69.3985
0
LINE
8
BLACK
6
CONTINUOUS
10
75.3297
20
-69.3985
11
75.2982
21
-69.414
0
LINE
8
BLACK
6
CONTINUOUS
10
75.2982
20
-69.414
11
75.2632
21
-69.4163
0
LINE
8
BLACK
6
CONTINUOUS
10
75.2632
20
-69.4163
11
75.2299
21
-69.405
0
LINE
8
BLACK
6
CONTINUOUS
10
75.2299
20
-69.405
11
74.9892
21
-69.266
0
LINE
8
BLACK
6
CONTINUOUS
10
74.9892
20
-69.266
11
74.9628
21
-69.2428
0
LINE
8
BLACK
6
CONTINUOUS
10
74.9628
20
-69.2428
11
74.9472
21
-69.2113
0
LINE
8
BLACK
6
CONTINUOUS
10
74.9472
20
-69.2113
11
74.9449
21
-69.1763
0
LINE
8
BLACK
6
CONTINUOUS
10
74.9449
20
-69.1763
11
74.9562
21
-69.1431
0
LINE
8
BLACK
6
CONTINUOUS
10
74.9562
20
-69.1431
11
75.0462
21
-68.9872
0
LINE
8
BLACK
6
CONTINUOUS
10
75.0462
20
-68.9872
11
75.0694
21
-68.9608
0
LINE
8
BLACK
6
CONTINUOUS
10
75.0694
20
-68.9608
11
75.1009
21
-68.9452
0
LINE
8
BLACK
6
CONTINUOUS
10
75.1009
20
-68.9452
11
75.1359
21
-68.9429
0
LINE
8
BLACK
6
CONTINUOUS
10
75.1359
20
-68.9429
11
75.1692
21
-68.9542
0
LINE
8
BLACK
6
CONTINUOUS
10
84.8991
20
-68.9452
11
84.9306
21
-68.9608
0
LINE
8
BLACK
6
CONTINUOUS
10
84.9306
20
-68.9608
11
84.9538
21
-68.9872
0
LINE
8
BLACK
6
CONTINUOUS
10
84.9538
20
-68.9872
11
85.0438
21
-69.1431
0
LINE
8
BLACK
6
CONTINUOUS
10
85.0438
20
-69.1431
11
85.0551
21
-69.1763
0
LINE
8
BLACK
6
CONTINUOUS
10
85.0551
20
-69.1763
11
85.0528
21
-69.2113
0
LINE
8
BLACK
6
CONTINUOUS
10
85.0528
20
-69.2113
11
85.0372
21
-69.2428
0
LINE
8
BLACK
6
CONTINUOUS
10
85.0372
20
-69.2428
11
85.0108
21
-69.266
0
LINE
8
BLACK
6
CONTINUOUS
10
85.0108
20
-69.266
11
84.7701
21
-69.405
0
LINE
8
BLACK
6
CONTINUOUS
10
84.7701
20
-69.405
11
84.7368
21
-69.4163
0
LINE
8
BLACK
6
CONTINUOUS
10
84.7368
20
-69.4163
11
84.7018
21
-69.414
0
LINE
8
BLACK
6
CONTINUOUS
10
84.7018
20
-69.414
11
84.6703
21
-69.3985
0
LINE
8
BLACK
6
CONTINUOUS
10
84.6703
20
-69.3985
11
84.6471
21
-69.3721
0
LINE
8
BLACK
6
CONTINUOUS
10
84.6471
20
-69.3721
11
84.5571
21
-69.2162
0
LINE
8
BLACK
6
CONTINUOUS
10
84.5571
20
-69.2162
11
84.5458
21
-69.1829
0
LINE
8
BLACK
6
CONTINUOUS
10
84.5458
20
-69.1829
11
84.5481
21
-69.1479
0
LINE
8
BLACK
6
CONTINUOUS
10
84.5481
20
-69.1479
11
84.5637
21
-69.1164
0
LINE
8
BLACK
6
CONTINUOUS
10
84.5637
20
-69.1164
11
84.5901
21
-69.0932
0
LINE
8
BLACK
6
CONTINUOUS
10
84.5901
20
-69.0932
11
84.8308
21
-68.9542
0
LINE
8
BLACK
6
CONTINUOUS
10
84.8308
20
-68.9542
11
84.8641
21
-68.9429
0
LINE
8
BLACK
6
CONTINUOUS
10
84.8641
20
-68.9429
11
84.8991
21
-68.9452
0
LINE
8
BLACK
6
CONTINUOUS
10
74.4201
20
-68.5217
11
74.6608
21
-68.6607
0
LINE
8
BLACK
6
CONTINUOUS
10
74.6608
20
-68.6607
11
74.6872
21
-68.6839
0
LINE
8
BLACK
6
CONTINUOUS
10
74.6872
20
-68.6839
11
74.7028
21
-68.7154
0
LINE
8
BLACK
6
CONTINUOUS
10
74.7028
20
-68.7154
11
74.7051
21
-68.7504
0
LINE
8
BLACK
6
CONTINUOUS
10
74.7051
20
-68.7504
11
74.6938
21
-68.7837
0
LINE
8
BLACK
6
CONTINUOUS
10
74.6938
20
-68.7837
11
74.6038
21
-68.9396
0
LINE
8
BLACK
6
CONTINUOUS
10
74.6038
20
-68.9396
11
74.5806
21
-68.966
0
LINE
8
BLACK
6
CONTINUOUS
10
74.5806
20
-68.966
11
74.5491
21
-68.9815
0
LINE
8
BLACK
6
CONTINUOUS
10
74.5491
20
-68.9815
11
74.5141
21
-68.9838
0
LINE
8
BLACK
6
CONTINUOUS
10
74.5141
20
-68.9838
11
74.4808
21
-68.9725
0
LINE
8
BLACK
6
CONTINUOUS
10
74.4808
20
-68.9725
11
74.2401
21
-68.8335
0
LINE
8
BLACK
6
CONTINUOUS
10
74.2401
20
-68.8335
11
74.2137
21
-68.8103
0
LINE
8
BLACK
6
CONTINUOUS
10
74.2137
20
-68.8103
11
74.1981
21
-68.7788
0
LINE
8
BLACK
6
CONTINUOUS
10
74.1981
20
-68.7788
11
74.1958
21
-68.7438
0
LINE
8
BLACK
6
CONTINUOUS
10
74.1958
20
-68.7438
11
74.2071
21
-68.7106
0
LINE
8
BLACK
6
CONTINUOUS
10
74.2071
20
-68.7106
11
74.2971
21
-68.5547
0
LINE
8
BLACK
6
CONTINUOUS
10
74.2971
20
-68.5547
11
74.3203
21
-68.5283
0
LINE
8
BLACK
6
CONTINUOUS
10
74.3203
20
-68.5283
11
74.3518
21
-68.5127
0
LINE
8
BLACK
6
CONTINUOUS
10
74.3518
20
-68.5127
11
74.3868
21
-68.5104
0
LINE
8
BLACK
6
CONTINUOUS
10
74.3868
20
-68.5104
11
74.4201
21
-68.5217
0
LINE
8
BLACK
6
CONTINUOUS
10
85.6482
20
-68.5127
11
85.6797
21
-68.5283
0
LINE
8
BLACK
6
CONTINUOUS
10
85.6797
20
-68.5283
11
85.7029
21
-68.5547
0
LINE
8
BLACK
6
CONTINUOUS
10
85.7029
20
-68.5547
11
85.7929
21
-68.7106
0
LINE
8
BLACK
6
CONTINUOUS
10
85.7929
20
-68.7106
11
85.8042
21
-68.7438
0
LINE
8
BLACK
6
CONTINUOUS
10
85.8042
20
-68.7438
11
85.8019
21
-68.7788
0
LINE
8
BLACK
6
CONTINUOUS
10
85.8019
20
-68.7788
11
85.7863
21
-68.8103
0
LINE
8
BLACK
6
CONTINUOUS
10
85.7863
20
-68.8103
11
85.7599
21
-68.8335
0
LINE
8
BLACK
6
CONTINUOUS
10
85.7599
20
-68.8335
11
85.5192
21
-68.9725
0
LINE
8
BLACK
6
CONTINUOUS
10
85.5192
20
-68.9725
11
85.4859
21
-68.9838
0
LINE
8
BLACK
6
CONTINUOUS
10
85.4859
20
-68.9838
11
85.4509
21
-68.9815
0
LINE
8
BLACK
6
CONTINUOUS
10
85.4509
20
-68.9815
11
85.4194
21
-68.966
0
LINE
8
BLACK
6
CONTINUOUS
10
85.4194
20
-68.966
11
85.3962
21
-68.9396
0
LINE
8
BLACK
6
CONTINUOUS
10
85.3962
20
-68.9396
11
85.3062
21
-68.7837
0
LINE
8
BLACK
6
CONTINUOUS
10
85.3062
20
-68.7837
11
85.2949
21
-68.7504
0
LINE
8
BLACK
6
CONTINUOUS
10
85.2949
20
-68.7504
11
85.2972
21
-68.7154
0
LINE
8
BLACK
6
CONTINUOUS
10
85.2972
20
-68.7154
11
85.3128
21
-68.6839
0
LINE
8
BLACK
6
CONTINUOUS
10
85.3128
20
-68.6839
11
85.3392
21
-68.6607
0
LINE
8
BLACK
6
CONTINUOUS
10
85.3392
20
-68.6607
11
85.5799
21
-68.5217
0
LINE
8
BLACK
6
CONTINUOUS
10
85.5799
20
-68.5217
11
85.6132
21
-68.5104
0
LINE
8
BLACK
6
CONTINUOUS
10
85.6132
20
-68.5104
11
85.6482
21
-68.5127
0
LINE
8
BLACK
6
CONTINUOUS
10
79.8
20
-68.8
11
79.3
21
-68.8
0
LINE
8
BLACK
6
CONTINUOUS
10
79.3
20
-68.8
11
79.3
21
-68.3
0
LINE
8
BLACK
6
CONTINUOUS
10
79.3
20
-68.3
11
79.8
21
-68.3
0
LINE
8
BLACK
6
CONTINUOUS
10
79.8
20
-68.3
11
79.8
21
-68.8
0
LINE
8
BLACK
6
CONTINUOUS
10
80.7
20
-68.8
11
80.2
21
-68.8
0
LINE
8
BLACK
6
CONTINUOUS
10
80.2
20
-68.8
11
80.2
21
-68.3
0
LINE
8
BLACK
6
CONTINUOUS
10
80.2
20
-68.3
11
80.7
21
-68.3
0
LINE
8
BLACK
6
CONTINUOUS
10
80.7
20
-68.3
11
80.7
21
-68.8
0
LINE
8
BLACK
6
CONTINUOUS
10
76.0062
20
-68.3174
11
75.7562
21
-68.7504
0
LINE
8
BLACK
6
CONTINUOUS
10
75.7562
20
-68.7504
11
75.3232
21
-68.5004
0
LINE
8
BLACK
6
CONTINUOUS
10
75.3232
20
-68.5004
11
75.5732
21
-68.0674
0
LINE
8
BLACK
6
CONTINUOUS
10
75.5732
20
-68.0674
11
76.0062
21
-68.3174
0
LINE
8
BLACK
6
CONTINUOUS
10
84.6768
20
-68.5004
11
84.2438
21
-68.7504
0
LINE
8
BLACK
6
CONTINUOUS
10
84.2438
20
-68.7504
11
83.9938
21
-68.3174
0
LINE
8
BLACK
6
CONTINUOUS
10
83.9938
20
-68.3174
11
84.4268
21
-68.0674
0
LINE
8
BLACK
6
CONTINUOUS
10
84.4268
20
-68.0674
11
84.6768
21
-68.5004
0
LINE
8
BLACK
6
CONTINUOUS
10
75.2268
20
-67.8674
11
74.9768
21
-68.3004
0
LINE
8
BLACK
6
CONTINUOUS
10
74.9768
20
-68.3004
11
74.5438
21
-68.0504
0
LINE
8
BLACK
6
CONTINUOUS
10
74.5438
20
-68.0504
11
74.7938
21
-67.6174
0
LINE
8
BLACK
6
CONTINUOUS
10
74.7938
20
-67.6174
11
75.2268
21
-67.8674
0
LINE
8
BLACK
6
CONTINUOUS
10
85.4562
20
-68.0504
11
85.0232
21
-68.3004
0
LINE
8
BLACK
6
CONTINUOUS
10
85.0232
20
-68.3004
11
84.7732
21
-67.8674
0
LINE
8
BLACK
6
CONTINUOUS
10
84.7732
20
-67.8674
11
85.2062
21
-67.6174
0
LINE
8
BLACK
6
CONTINUOUS
10
85.2062
20
-67.6174
11
85.4562
21
-68.0504
0
LINE
8
BLACK
6
CONTINUOUS
10
76.4562
20
-67.538
11
76.2062
21
-67.971
0
LINE
8
BLACK
6
CONTINUOUS
10
76.2062
20
-67.971
11
75.7732
21
-67.721
0
LINE
8
BLACK
6
CONTINUOUS
10
75.7732
20
-67.721
11
76.0232
21
-67.288
0
LINE
8
BLACK
6
CONTINUOUS
10
76.0232
20
-67.288
11
76.4562
21
-67.538
0
LINE
8
BLACK
6
CONTINUOUS
10
84.2268
20
-67.721
11
83.7938
21
-67.971
0
LINE
8
BLACK
6
CONTINUOUS
10
83.7938
20
-67.971
11
83.5438
21
-67.538
0
LINE
8
BLACK
6
CONTINUOUS
10
83.5438
20
-67.538
11
83.9768
21
-67.288
0
LINE
8
BLACK
6
CONTINUOUS
10
83.9768
20
-67.288
11
84.2268
21
-67.721
0
LINE
8
BLACK
6
CONTINUOUS
10
75.6768
20
-67.088
11
75.4268
21
-67.521
0
LINE
8
BLACK
6
CONTINUOUS
10
75.4268
20
-67.521
11
74.9938
21
-67.271
0
LINE
8
BLACK
6
CONTINUOUS
10
74.9938
20
-67.271
11
75.2438
21
-66.838
0
LINE
8
BLACK
6
CONTINUOUS
10
75.2438
20
-66.838
11
75.6768
21
-67.088
0
LINE
8
BLACK
6
CONTINUOUS
10
85.0062
20
-67.271
11
84.5732
21
-67.521
0
LINE
8
BLACK
6
CONTINUOUS
10
84.5732
20
-67.521
11
84.3232
21
-67.088
0
LINE
8
BLACK
6
CONTINUOUS
10
84.3232
20
-67.088
11
84.7562
21
-66.838
0
LINE
8
BLACK
6
CONTINUOUS
10
84.7562
20
-66.838
11
85.0062
21
-67.271
0
LINE
8
BLACK
6
CONTINUOUS
10
71.2846
20
-65.2972
11
71.3161
21
-65.3128
0
LINE
8
BLACK
6
CONTINUOUS
10
71.3161
20
-65.3128
11
71.3393
21
-65.3392
0
LINE
8
BLACK
6
CONTINUOUS
10
71.3393
20
-65.3392
11
71.4783
21
-65.5799
0
LINE
8
BLACK
6
CONTINUOUS
10
71.4783
20
-65.5799
11
71.4896
21
-65.6132
0
LINE
8
BLACK
6
CONTINUOUS
10
71.4896
20
-65.6132
11
71.4873
21
-65.6482
0
LINE
8
BLACK
6
CONTINUOUS
10
71.4873
20
-65.6482
11
71.4717
21
-65.6797
0
LINE
8
BLACK
6
CONTINUOUS
10
71.4717
20
-65.6797
11
71.4453
21
-65.7029
0
LINE
8
BLACK
6
CONTINUOUS
10
71.4453
20
-65.7029
11
71.2894
21
-65.7929
0
LINE
8
BLACK
6
CONTINUOUS
10
71.2894
20
-65.7929
11
71.2562
21
-65.8042
0
LINE
8
BLACK
6
CONTINUOUS
10
71.2562
20
-65.8042
11
71.2212
21
-65.8019
0
LINE
8
BLACK
6
CONTINUOUS
10
71.2212
20
-65.8019
11
71.1897
21
-65.7863
0
LINE
8
BLACK
6
CONTINUOUS
10
71.1897
20
-65.7863
11
71.1665
21
-65.7599
0
LINE
8
BLACK
6
CONTINUOUS
10
71.1665
20
-65.7599
11
71.0275
21
-65.5192
0
LINE
8
BLACK
6
CONTINUOUS
10
71.0275
20
-65.5192
11
71.0162
21
-65.4859
0
LINE
8
BLACK
6
CONTINUOUS
10
71.0162
20
-65.4859
11
71.0185
21
-65.4509
0
LINE
8
BLACK
6
CONTINUOUS
10
71.0185
20
-65.4509
11
71.034
21
-65.4194
0
LINE
8
BLACK
6
CONTINUOUS
10
71.034
20
-65.4194
11
71.0604
21
-65.3962
0
LINE
8
BLACK
6
CONTINUOUS
10
71.0604
20
-65.3962
11
71.2163
21
-65.3062
0
LINE
8
BLACK
6
CONTINUOUS
10
71.2163
20
-65.3062
11
71.2496
21
-65.2949
0
LINE
8
BLACK
6
CONTINUOUS
10
71.2496
20
-65.2949
11
71.2846
21
-65.2972
0
LINE
8
BLACK
6
CONTINUOUS
10
88.7837
20
-65.3062
11
88.9396
21
-65.3962
0
LINE
8
BLACK
6
CONTINUOUS
10
88.9396
20
-65.3962
11
88.966
21
-65.4194
0
LINE
8
BLACK
6
CONTINUOUS
10
88.966
20
-65.4194
11
88.9815
21
-65.4509
0
LINE
8
BLACK
6
CONTINUOUS
10
88.9815
20
-65.4509
11
88.9838
21
-65.4859
0
LINE
8
BLACK
6
CONTINUOUS
10
88.9838
20
-65.4859
11
88.9725
21
-65.5192
0
LINE
8
BLACK
6
CONTINUOUS
10
88.9725
20
-65.5192
11
88.8335
21
-65.7599
0
LINE
8
BLACK
6
CONTINUOUS
10
88.8335
20
-65.7599
11
88.8103
21
-65.7863
0
LINE
8
BLACK
6
CONTINUOUS
10
88.8103
20
-65.7863
11
88.7788
21
-65.8019
0
LINE
8
BLACK
6
CONTINUOUS
10
88.7788
20
-65.8019
11
88.7438
21
-65.8042
0
LINE
8
BLACK
6
CONTINUOUS
10
88.7438
20
-65.8042
11
88.7106
21
-65.7929
0
LINE
8
BLACK
6
CONTINUOUS
10
88.7106
20
-65.7929
11
88.5547
21
-65.7029
0
LINE
8
BLACK
6
CONTINUOUS
10
88.5547
20
-65.7029
11
88.5283
21
-65.6797
0
LINE
8
BLACK
6
CONTINUOUS
10
88.5283
20
-65.6797
11
88.5127
21
-65.6482
0
LINE
8
BLACK
6
CONTINUOUS
10
88.5127
20
-65.6482
11
88.5104
21
-65.6132
0
LINE
8
BLACK
6
CONTINUOUS
10
88.5104
20
-65.6132
11
88.5217
21
-65.5799
0
LINE
8
BLACK
6
CONTINUOUS
10
88.5217
20
-65.5799
11
88.6607
21
-65.3392
0
LINE
8
BLACK
6
CONTINUOUS
10
88.6607
20
-65.3392
11
88.6839
21
-65.3128
0
LINE
8
BLACK
6
CONTINUOUS
10
88.6839
20
-65.3128
11
88.7154
21
-65.2972
0
LINE
8
BLACK
6
CONTINUOUS
10
88.7154
20
-65.2972
11
88.7504
21
-65.2949
0
LINE
8
BLACK
6
CONTINUOUS
10
88.7504
20
-65.2949
11
88.7837
21
-65.3062
0
LINE
8
BLACK
6
CONTINUOUS
10
72.3826
20
-65.2062
11
71.9496
21
-65.4562
0
LINE
8
BLACK
6
CONTINUOUS
10
71.9496
20
-65.4562
11
71.6996
21
-65.0232
0
LINE
8
BLACK
6
CONTINUOUS
10
71.6996
20
-65.0232
11
72.1326
21
-64.7732
0
LINE
8
BLACK
6
CONTINUOUS
10
72.1326
20
-64.7732
11
72.3826
21
-65.2062
0
LINE
8
BLACK
6
CONTINUOUS
10
88.3004
20
-65.0232
11
88.0504
21
-65.4562
0
LINE
8
BLACK
6
CONTINUOUS
10
88.0504
20
-65.4562
11
87.6174
21
-65.2062
0
LINE
8
BLACK
6
CONTINUOUS
10
87.6174
20
-65.2062
11
87.8674
21
-64.7732
0
LINE
8
BLACK
6
CONTINUOUS
10
87.8674
20
-64.7732
11
88.3004
21
-65.0232
0
LINE
8
BLACK
6
CONTINUOUS
10
70.8521
20
-64.5481
11
70.8836
21
-64.5637
0
LINE
8
BLACK
6
CONTINUOUS
10
70.8836
20
-64.5637
11
70.9068
21
-64.5901
0
LINE
8
BLACK
6
CONTINUOUS
10
70.9068
20
-64.5901
11
71.0458
21
-64.8308
0
LINE
8
BLACK
6
CONTINUOUS
10
71.0458
20
-64.8308
11
71.0571
21
-64.8641
0
LINE
8
BLACK
6
CONTINUOUS
10
71.0571
20
-64.8641
11
71.0548
21
-64.8991
0
LINE
8
BLACK
6
CONTINUOUS
10
71.0548
20
-64.8991
11
71.0392
21
-64.9306
0
LINE
8
BLACK
6
CONTINUOUS
10
71.0392
20
-64.9306
11
71.0128
21
-64.9538
0
LINE
8
BLACK
6
CONTINUOUS
10
71.0128
20
-64.9538
11
70.8569
21
-65.0438
0
LINE
8
BLACK
6
CONTINUOUS
10
70.8569
20
-65.0438
11
70.8237
21
-65.0551
0
LINE
8
BLACK
6
CONTINUOUS
10
70.8237
20
-65.0551
11
70.7887
21
-65.0528
0
LINE
8
BLACK
6
CONTINUOUS
10
70.7887
20
-65.0528
11
70.7572
21
-65.0372
0
LINE
8
BLACK
6
CONTINUOUS
10
70.7572
20
-65.0372
11
70.734
21
-65.0108
0
LINE
8
BLACK
6
CONTINUOUS
10
70.734
20
-65.0108
11
70.595
21
-64.7701
0
LINE
8
BLACK
6
CONTINUOUS
10
70.595
20
-64.7701
11
70.5837
21
-64.7368
0
LINE
8
BLACK
6
CONTINUOUS
10
70.5837
20
-64.7368
11
70.586
21
-64.7018
0
LINE
8
BLACK
6
CONTINUOUS
10
70.586
20
-64.7018
11
70.6015
21
-64.6703
0
LINE
8
BLACK
6
CONTINUOUS
10
70.6015
20
-64.6703
11
70.6279
21
-64.6471
0
LINE
8
BLACK
6
CONTINUOUS
10
70.6279
20
-64.6471
11
70.7838
21
-64.5571
0
LINE
8
BLACK
6
CONTINUOUS
10
70.7838
20
-64.5571
11
70.8171
21
-64.5458
0
LINE
8
BLACK
6
CONTINUOUS
10
70.8171
20
-64.5458
11
70.8521
21
-64.5481
0
LINE
8
BLACK
6
CONTINUOUS
10
89.2162
20
-64.5571
11
89.3721
21
-64.6471
0
LINE
8
BLACK
6
CONTINUOUS
10
89.3721
20
-64.6471
11
89.3985
21
-64.6703
0
LINE
8
BLACK
6
CONTINUOUS
10
89.3985
20
-64.6703
11
89.414
21
-64.7018
0
LINE
8
BLACK
6
CONTINUOUS
10
89.414
20
-64.7018
11
89.4163
21
-64.7368
0
LINE
8
BLACK
6
CONTINUOUS
10
89.4163
20
-64.7368
11
89.405
21
-64.7701
0
LINE
8
BLACK
6
CONTINUOUS
10
89.405
20
-64.7701
11
89.266
21
-65.0108
0
LINE
8
BLACK
6
CONTINUOUS
10
89.266
20
-65.0108
11
89.2428
21
-65.0372
0
LINE
8
BLACK
6
CONTINUOUS
10
89.2428
20
-65.0372
11
89.2113
21
-65.0528
0
LINE
8
BLACK
6
CONTINUOUS
10
89.2113
20
-65.0528
11
89.1763
21
-65.0551
0
LINE
8
BLACK
6
CONTINUOUS
10
89.1763
20
-65.0551
11
89.1431
21
-65.0438
0
LINE
8
BLACK
6
CONTINUOUS
10
89.1431
20
-65.0438
11
88.9872
21
-64.9538
0
LINE
8
BLACK
6
CONTINUOUS
10
88.9872
20
-64.9538
11
88.9608
21
-64.9306
0
LINE
8
BLACK
6
CONTINUOUS
10
88.9608
20
-64.9306
11
88.9452
21
-64.8991
0
LINE
8
BLACK
6
CONTINUOUS
10
88.9452
20
-64.8991
11
88.9429
21
-64.8641
0
LINE
8
BLACK
6
CONTINUOUS
10
88.9429
20
-64.8641
11
88.9542
21
-64.8308
0
LINE
8
BLACK
6
CONTINUOUS
10
88.9542
20
-64.8308
11
89.0932
21
-64.5901
0
LINE
8
BLACK
6
CONTINUOUS
10
89.0932
20
-64.5901
11
89.1164
21
-64.5637
0
LINE
8
BLACK
6
CONTINUOUS
10
89.1164
20
-64.5637
11
89.1479
21
-64.5481
0
LINE
8
BLACK
6
CONTINUOUS
10
89.1479
20
-64.5481
11
89.1829
21
-64.5458
0
LINE
8
BLACK
6
CONTINUOUS
10
89.1829
20
-64.5458
11
89.2162
21
-64.5571
0
LINE
8
BLACK
6
CONTINUOUS
10
73.162
20
-64.7562
11
72.729
21
-65.0062
0
LINE
8
BLACK
6
CONTINUOUS
10
72.729
20
-65.0062
11
72.479
21
-64.5732
0
LINE
8
BLACK
6
CONTINUOUS
10
72.479
20
-64.5732
11
72.912
21
-64.3232
0
LINE
8
BLACK
6
CONTINUOUS
10
72.912
20
-64.3232
11
73.162
21
-64.7562
0
LINE
8
BLACK
6
CONTINUOUS
10
87.521
20
-64.5732
11
87.271
21
-65.0062
0
LINE
8
BLACK
6
CONTINUOUS
10
87.271
20
-65.0062
11
86.838
21
-64.7562
0
LINE
8
BLACK
6
CONTINUOUS
10
86.838
20
-64.7562
11
87.088
21
-64.3232
0
LINE
8
BLACK
6
CONTINUOUS
10
87.088
20
-64.3232
11
87.521
21
-64.5732
0
LINE
8
BLACK
6
CONTINUOUS
10
71.9326
20
-64.4268
11
71.4996
21
-64.6768
0
LINE
8
BLACK
6
CONTINUOUS
10
71.4996
20
-64.6768
11
71.2496
21
-64.2438
0
LINE
8
BLACK
6
CONTINUOUS
10
71.2496
20
-64.2438
11
71.6826
21
-63.9938
0
LINE
8
BLACK
6
CONTINUOUS
10
71.6826
20
-63.9938
11
71.9326
21
-64.4268
0
LINE
8
BLACK
6
CONTINUOUS
10
88.7504
20
-64.2438
11
88.5004
21
-64.6768
0
LINE
8
BLACK
6
CONTINUOUS
10
88.5004
20
-64.6768
11
88.0674
21
-64.4268
0
LINE
8
BLACK
6
CONTINUOUS
10
88.0674
20
-64.4268
11
88.3174
21
-63.9938
0
LINE
8
BLACK
6
CONTINUOUS
10
88.3174
20
-63.9938
11
88.7504
21
-64.2438
0
LINE
8
BLACK
6
CONTINUOUS
10
72.712
20
-63.9768
11
72.279
21
-64.2268
0
LINE
8
BLACK
6
CONTINUOUS
10
72.279
20
-64.2268
11
72.029
21
-63.7938
0
LINE
8
BLACK
6
CONTINUOUS
10
72.029
20
-63.7938
11
72.462
21
-63.5438
0
LINE
8
BLACK
6
CONTINUOUS
10
72.462
20
-63.5438
11
72.712
21
-63.9768
0
LINE
8
BLACK
6
CONTINUOUS
10
87.971
20
-63.7938
11
87.721
21
-64.2268
0
LINE
8
BLACK
6
CONTINUOUS
10
87.721
20
-64.2268
11
87.288
21
-63.9768
0
LINE
8
BLACK
6
CONTINUOUS
10
87.288
20
-63.9768
11
87.538
21
-63.5438
0
LINE
8
BLACK
6
CONTINUOUS
10
87.538
20
-63.5438
11
87.971
21
-63.7938
0
LINE
8
BLACK
6
CONTINUOUS
10
70.8
20
-60.7
11
70.3
21
-60.7
0
LINE
8
BLACK
6
CONTINUOUS
10
70.3
20
-60.7
11
70.3
21
-60.2
0
LINE
8
BLACK
6
CONTINUOUS
10
70.3
20
-60.2
11
70.8
21
-60.2
0
LINE
8
BLACK
6
CONTINUOUS
10
70.8
20
-60.2
11
70.8
21
-60.7
0
LINE
8
BLACK
6
CONTINUOUS
10
71.7
20
-60.7
11
71.2
21
-60.7
0
LINE
8
BLACK
6
CONTINUOUS
10
71.2
20
-60.7
11
71.2
21
-60.2
0
LINE
8
BLACK
6
CONTINUOUS
10
71.2
20
-60.2
11
71.7
21
-60.2
0
LINE
8
BLACK
6
CONTINUOUS
10
71.7
20
-60.2
11
71.7
21
-60.7
0
LINE
8
BLACK
6
CONTINUOUS
10
88.8
20
-60.7
11
88.3
21
-60.7
0
LINE
8
BLACK
6
CONTINUOUS
10
88.3
20
-60.7
11
88.3
21
-60.2
0
LINE
8
BLACK
6
CONTINUOUS
10
88.3
20
-60.2
11
88.8
21
-60.2
0
LINE
8
BLACK
6
CONTINUOUS
10
88.8
20
-60.2
11
88.8
21
-60.7
0
LINE
8
BLACK
6
CONTINUOUS
10
89.7
20
-60.7
11
89.2
21
-60.7
0
LINE
8
BLACK
6
CONTINUOUS
10
89.2
20
-60.7
11
89.2
21
-60.2
0
LINE
8
BLACK
6
CONTINUOUS
10
89.2
20
-60.2
11
89.7
21
-60.2
0
LINE
8
BLACK
6
CONTINUOUS
10
89.7
20
-60.2
11
89.7
21
-60.7
0
LINE
8
BLACK
6
CONTINUOUS
10
69.7744
20
-60.2104
11
69.8036
21
-60.2299
0
LINE
8
BLACK
6
CONTINUOUS
10
69.8036
20
-60.2299
11
69.8231
21
-60.2591
0
LINE
8
BLACK
6
CONTINUOUS
10
69.8231
20
-60.2591
11
69.83
21
-60.2935
0
LINE
8
BLACK
6
CONTINUOUS
10
69.83
20
-60.2935
11
69.83
21
-60.5715
0
LINE
8
BLACK
6
CONTINUOUS
10
69.83
20
-60.5715
11
69.8231
21
-60.6059
0
LINE
8
BLACK
6
CONTINUOUS
10
69.8231
20
-60.6059
11
69.8036
21
-60.6351
0
LINE
8
BLACK
6
CONTINUOUS
10
69.8036
20
-60.6351
11
69.7744
21
-60.6546
0
LINE
8
BLACK
6
CONTINUOUS
10
69.7744
20
-60.6546
11
69.74
21
-60.6615
0
LINE
8
BLACK
6
CONTINUOUS
10
69.74
20
-60.6615
11
69.56
21
-60.6615
0
LINE
8
BLACK
6
CONTINUOUS
10
69.56
20
-60.6615
11
69.5256
21
-60.6546
0
LINE
8
BLACK
6
CONTINUOUS
10
69.5256
20
-60.6546
11
69.4964
21
-60.6351
0
LINE
8
BLACK
6
CONTINUOUS
10
69.4964
20
-60.6351
11
69.4769
21
-60.6059
0
LINE
8
BLACK
6
CONTINUOUS
10
69.4769
20
-60.6059
11
69.47
21
-60.5715
0
LINE
8
BLACK
6
CONTINUOUS
10
69.47
20
-60.5715
11
69.47
21
-60.2935
0
LINE
8
BLACK
6
CONTINUOUS
10
69.47
20
-60.2935
11
69.4769
21
-60.2591
0
LINE
8
BLACK
6
CONTINUOUS
10
69.4769
20
-60.2591
11
69.4964
21
-60.2299
0
LINE
8
BLACK
6
CONTINUOUS
10
69.4964
20
-60.2299
11
69.5256
21
-60.2104
0
LINE
8
BLACK
6
CONTINUOUS
10
69.5256
20
-60.2104
11
69.56
21
-60.2035
0
LINE
8
BLACK
6
CONTINUOUS
10
69.56
20
-60.2035
11
69.74
21
-60.2035
0
LINE
8
BLACK
6
CONTINUOUS
10
69.74
20
-60.2035
11
69.7744
21
-60.2104
0
LINE
8
BLACK
6
CONTINUOUS
10
90.4744
20
-60.2104
11
90.5036
21
-60.2299
0
LINE
8
BLACK
6
CONTINUOUS
10
90.5036
20
-60.2299
11
90.5231
21
-60.2591
0
LINE
8
BLACK
6
CONTINUOUS
10
90.5231
20
-60.2591
11
90.53
21
-60.2935
0
LINE
8
BLACK
6
CONTINUOUS
10
90.53
20
-60.2935
11
90.53
21
-60.5715
0
LINE
8
BLACK
6
CONTINUOUS
10
90.53
20
-60.5715
11
90.5231
21
-60.6059
0
LINE
8
BLACK
6
CONTINUOUS
10
90.5231
20
-60.6059
11
90.5036
21
-60.6351
0
LINE
8
BLACK
6
CONTINUOUS
10
90.5036
20
-60.6351
11
90.4744
21
-60.6546
0
LINE
8
BLACK
6
CONTINUOUS
10
90.4744
20
-60.6546
11
90.44
21
-60.6615
0
LINE
8
BLACK
6
CONTINUOUS
10
90.44
20
-60.6615
11
90.26
21
-60.6615
0
LINE
8
BLACK
6
CONTINUOUS
10
90.26
20
-60.6615
11
90.2256
21
-60.6546
0
LINE
8
BLACK
6
CONTINUOUS
10
90.2256
20
-60.6546
11
90.1964
21
-60.6351
0
LINE
8
BLACK
6
CONTINUOUS
10
90.1964
20
-60.6351
11
90.1769
21
-60.6059
0
LINE
8
BLACK
6
CONTINUOUS
10
90.1769
20
-60.6059
11
90.17
21
-60.5715
0
LINE
8
BLACK
6
CONTINUOUS
10
90.17
20
-60.5715
11
90.17
21
-60.2935
0
LINE
8
BLACK
6
CONTINUOUS
10
90.17
20
-60.2935
11
90.1769
21
-60.2591
0
LINE
8
BLACK
6
CONTINUOUS
10
90.1769
20
-60.2591
11
90.1964
21
-60.2299
0
LINE
8
BLACK
6
CONTINUOUS
10
90.1964
20
-60.2299
11
90.2256
21
-60.2104
0
LINE
8
BLACK
6
CONTINUOUS
10
90.2256
20
-60.2104
11
90.26
21
-60.2035
0
LINE
8
BLACK
6
CONTINUOUS
10
90.26
20
-60.2035
11
90.44
21
-60.2035
0
LINE
8
BLACK
6
CONTINUOUS
10
90.44
20
-60.2035
11
90.4744
21
-60.2104
0
LINE
8
BLACK
6
CONTINUOUS
10
70.8
20
-59.8
11
70.3
21
-59.8
0
LINE
8
BLACK
6
CONTINUOUS
10
70.3
20
-59.8
11
70.3
21
-59.3
0
LINE
8
BLACK
6
CONTINUOUS
10
70.3
20
-59.3
11
70.8
21
-59.3
0
LINE
8
BLACK
6
CONTINUOUS
10
70.8
20
-59.3
11
70.8
21
-59.8
0
LINE
8
BLACK
6
CONTINUOUS
10
71.7
20
-59.8
11
71.2
21
-59.8
0
LINE
8
BLACK
6
CONTINUOUS
10
71.2
20
-59.8
11
71.2
21
-59.3
0
LINE
8
BLACK
6
CONTINUOUS
10
71.2
20
-59.3
11
71.7
21
-59.3
0
LINE
8
BLACK
6
CONTINUOUS
10
71.7
20
-59.3
11
71.7
21
-59.8
0
LINE
8
BLACK
6
CONTINUOUS
10
88.8
20
-59.8
11
88.3
21
-59.8
0
LINE
8
BLACK
6
CONTINUOUS
10
88.3
20
-59.8
11
88.3
21
-59.3
0
LINE
8
BLACK
6
CONTINUOUS
10
88.3
20
-59.3
11
88.8
21
-59.3
0
LINE
8
BLACK
6
CONTINUOUS
10
88.8
20
-59.3
11
88.8
21
-59.8
0
LINE
8
BLACK
6
CONTINUOUS
10
89.7
20
-59.8
11
89.2
21
-59.8
0
LINE
8
BLACK
6
CONTINUOUS
10
89.2
20
-59.8
11
89.2
21
-59.3
0
LINE
8
BLACK
6
CONTINUOUS
10
89.2
20
-59.3
11
89.7
21
-59.3
0
LINE
8
BLACK
6
CONTINUOUS
10
89.7
20
-59.3
11
89.7
21
-59.8
0
LINE
8
BLACK
6
CONTINUOUS
10
69.7744
20
-59.3454
11
69.8036
21
-59.3649
0
LINE
8
BLACK
6
CONTINUOUS
10
69.8036
20
-59.3649
11
69.8231
21
-59.3941
0
LINE
8
BLACK
6
CONTINUOUS
10
69.8231
20
-59.3941
11
69.83
21
-59.4285
0
LINE
8
BLACK
6
CONTINUOUS
10
69.83
20
-59.4285
11
69.83
21
-59.7065
0
LINE
8
BLACK
6
CONTINUOUS
10
69.83
20
-59.7065
11
69.8231
21
-59.7409
0
LINE
8
BLACK
6
CONTINUOUS
10
69.8231
20
-59.7409
11
69.8036
21
-59.7701
0
LINE
8
BLACK
6
CONTINUOUS
10
69.8036
20
-59.7701
11
69.7744
21
-59.7896
0
LINE
8
BLACK
6
CONTINUOUS
10
69.7744
20
-59.7896
11
69.74
21
-59.7965
0
LINE
8
BLACK
6
CONTINUOUS
10
69.74
20
-59.7965
11
69.56
21
-59.7965
0
LINE
8
BLACK
6
CONTINUOUS
10
69.56
20
-59.7965
11
69.5256
21
-59.7896
0
LINE
8
BLACK
6
CONTINUOUS
10
69.5256
20
-59.7896
11
69.4964
21
-59.7701
0
LINE
8
BLACK
6
CONTINUOUS
10
69.4964
20
-59.7701
11
69.4769
21
-59.7409
0
LINE
8
BLACK
6
CONTINUOUS
10
69.4769
20
-59.7409
11
69.47
21
-59.7065
0
LINE
8
BLACK
6
CONTINUOUS
10
69.47
20
-59.7065
11
69.47
21
-59.4285
0
LINE
8
BLACK
6
CONTINUOUS
10
69.47
20
-59.4285
11
69.4769
21
-59.3941
0
LINE
8
BLACK
6
CONTINUOUS
10
69.4769
20
-59.3941
11
69.4964
21
-59.3649
0
LINE
8
BLACK
6
CONTINUOUS
10
69.4964
20
-59.3649
11
69.5256
21
-59.3454
0
LINE
8
BLACK
6
CONTINUOUS
10
69.5256
20
-59.3454
11
69.56
21
-59.3385
0
LINE
8
BLACK
6
CONTINUOUS
10
69.56
20
-59.3385
11
69.74
21
-59.3385
0
LINE
8
BLACK
6
CONTINUOUS
10
69.74
20
-59.3385
11
69.7744
21
-59.3454
0
LINE
8
BLACK
6
CONTINUOUS
10
90.4744
20
-59.3454
11
90.5036
21
-59.3649
0
LINE
8
BLACK
6
CONTINUOUS
10
90.5036
20
-59.3649
11
90.5231
21
-59.3941
0
LINE
8
BLACK
6
CONTINUOUS
10
90.5231
20
-59.3941
11
90.53
21
-59.4285
0
LINE
8
BLACK
6
CONTINUOUS
10
90.53
20
-59.4285
11
90.53
21
-59.7065
0
LINE
8
BLACK
6
CONTINUOUS
10
90.53
20
-59.7065
11
90.5231
21
-59.7409
0
LINE
8
BLACK
6
CONTINUOUS
10
90.5231
20
-59.7409
11
90.5036
21
-59.7701
0
LINE
8
BLACK
6
CONTINUOUS
10
90.5036
20
-59.7701
11
90.4744
21
-59.7896
0
LINE
8
BLACK
6
CONTINUOUS
10
90.4744
20
-59.7896
11
90.44
21
-59.7965
0
LINE
8
BLACK
6
CONTINUOUS
10
90.44
20
-59.7965
11
90.26
21
-59.7965
0
LINE
8
BLACK
6
CONTINUOUS
10
90.26
20
-59.7965
11
90.2256
21
-59.7896
0
LINE
8
BLACK
6
CONTINUOUS
10
90.2256
20
-59.7896
11
90.1964
21
-59.7701
0
LINE
8
BLACK
6
CONTINUOUS
10
90.1964
20
-59.7701
11
90.1769
21
-59.7409
0
LINE
8
BLACK
6
CONTINUOUS
10
90.1769
20
-59.7409
11
90.17
21
-59.7065
0
LINE
8
BLACK
6
CONTINUOUS
10
90.17
20
-59.7065
11
90.17
21
-59.4285
0
LINE
8
BLACK
6
CONTINUOUS
10
90.17
20
-59.4285
11
90.1769
21
-59.3941
0
LINE
8
BLACK
6
CONTINUOUS
10
90.1769
20
-59.3941
11
90.1964
21
-59.3649
0
LINE
8
BLACK
6
CONTINUOUS
10
90.1964
20
-59.3649
11
90.2256
21
-59.3454
0
LINE
8
BLACK
6
CONTINUOUS
10
90.2256
20
-59.3454
11
90.26
21
-59.3385
0
LINE
8
BLACK
6
CONTINUOUS
10
90.26
20
-59.3385
11
90.44
21
-59.3385
0
LINE
8
BLACK
6
CONTINUOUS
10
90.44
20
-59.3385
11
90.4744
21
-59.3454
0
LINE
8
BLACK
6
CONTINUOUS
10
72.712
20
-56.0232
11
72.462
21
-56.4562
0
LINE
8
BLACK
6
CONTINUOUS
10
72.462
20
-56.4562
11
72.029
21
-56.2062
0
LINE
8
BLACK
6
CONTINUOUS
10
72.029
20
-56.2062
11
72.279
21
-55.7732
0
LINE
8
BLACK
6
CONTINUOUS
10
72.279
20
-55.7732
11
72.712
21
-56.0232
0
LINE
8
BLACK
6
CONTINUOUS
10
87.971
20
-56.2062
11
87.538
21
-56.4562
0
LINE
8
BLACK
6
CONTINUOUS
10
87.538
20
-56.4562
11
87.288
21
-56.0232
0
LINE
8
BLACK
6
CONTINUOUS
10
87.288
20
-56.0232
11
87.721
21
-55.7732
0
LINE
8
BLACK
6
CONTINUOUS
10
87.721
20
-55.7732
11
87.971
21
-56.2062
0
LINE
8
BLACK
6
CONTINUOUS
10
71.9326
20
-55.5732
11
71.6826
21
-56.0062
0
LINE
8
BLACK
6
CONTINUOUS
10
71.6826
20
-56.0062
11
71.2496
21
-55.7562
0
LINE
8
BLACK
6
CONTINUOUS
10
71.2496
20
-55.7562
11
71.4996
21
-55.3232
0
LINE
8
BLACK
6
CONTINUOUS
10
71.4996
20
-55.3232
11
71.9326
21
-55.5732
0
LINE
8
BLACK
6
CONTINUOUS
10
88.7504
20
-55.7562
11
88.3174
21
-56.0062
0
LINE
8
BLACK
6
CONTINUOUS
10
88.3174
20
-56.0062
11
88.0674
21
-55.5732
0
LINE
8
BLACK
6
CONTINUOUS
10
88.0674
20
-55.5732
11
88.5004
21
-55.3232
0
LINE
8
BLACK
6
CONTINUOUS
10
88.5004
20
-55.3232
11
88.7504
21
-55.7562
0
LINE
8
BLACK
6
CONTINUOUS
10
73.162
20
-55.2438
11
72.912
21
-55.6768
0
LINE
8
BLACK
6
CONTINUOUS
10
72.912
20
-55.6768
11
72.479
21
-55.4268
0
LINE
8
BLACK
6
CONTINUOUS
10
72.479
20
-55.4268
11
72.729
21
-54.9938
0
LINE
8
BLACK
6
CONTINUOUS
10
72.729
20
-54.9938
11
73.162
21
-55.2438
0
LINE
8
BLACK
6
CONTINUOUS
10
87.521
20
-55.4268
11
87.088
21
-55.6768
0
LINE
8
BLACK
6
CONTINUOUS
10
87.088
20
-55.6768
11
86.838
21
-55.2438
0
LINE
8
BLACK
6
CONTINUOUS
10
86.838
20
-55.2438
11
87.271
21
-54.9938
0
LINE
8
BLACK
6
CONTINUOUS
10
87.271
20
-54.9938
11
87.521
21
-55.4268
0
LINE
8
BLACK
6
CONTINUOUS
10
70.8569
20
-54.9562
11
71.0128
21
-55.0462
0
LINE
8
BLACK
6
CONTINUOUS
10
71.0128
20
-55.0462
11
71.0392
21
-55.0694
0
LINE
8
BLACK
6
CONTINUOUS
10
71.0392
20
-55.0694
11
71.0548
21
-55.1009
0
LINE
8
BLACK
6
CONTINUOUS
10
71.0548
20
-55.1009
11
71.0571
21
-55.1359
0
LINE
8
BLACK
6
CONTINUOUS
10
71.0571
20
-55.1359
11
71.0458
21
-55.1692
0
LINE
8
BLACK
6
CONTINUOUS
10
71.0458
20
-55.1692
11
70.9068
21
-55.4099
0
LINE
8
BLACK
6
CONTINUOUS
10
70.9068
20
-55.4099
11
70.8836
21
-55.4363
0
LINE
8
BLACK
6
CONTINUOUS
10
70.8836
20
-55.4363
11
70.8521
21
-55.4519
0
LINE
8
BLACK
6
CONTINUOUS
10
70.8521
20
-55.4519
11
70.8171
21
-55.4542
0
LINE
8
BLACK
6
CONTINUOUS
10
70.8171
20
-55.4542
11
70.7838
21
-55.4429
0
LINE
8
BLACK
6
CONTINUOUS
10
70.7838
20
-55.4429
11
70.6279
21
-55.3529
0
LINE
8
BLACK
6
CONTINUOUS
10
70.6279
20
-55.3529
11
70.6015
21
-55.3297
0
LINE
8
BLACK
6
CONTINUOUS
10
70.6015
20
-55.3297
11
70.586
21
-55.2982
0
LINE
8
BLACK
6
CONTINUOUS
10
70.586
20
-55.2982
11
70.5837
21
-55.2632
0
LINE
8
BLACK
6
CONTINUOUS
10
70.5837
20
-55.2632
11
70.595
21
-55.2299
0
LINE
8
BLACK
6
CONTINUOUS
10
70.595
20
-55.2299
11
70.734
21
-54.9892
0
LINE
8
BLACK
6
CONTINUOUS
10
70.734
20
-54.9892
11
70.7572
21
-54.9628
0
LINE
8
BLACK
6
CONTINUOUS
10
70.7572
20
-54.9628
11
70.7887
21
-54.9472
0
LINE
8
BLACK
6
CONTINUOUS
10
70.7887
20
-54.9472
11
70.8237
21
-54.9449
0
LINE
8
BLACK
6
CONTINUOUS
10
70.8237
20
-54.9449
11
70.8569
21
-54.9562
0
LINE
8
BLACK
6
CONTINUOUS
10
89.2113
20
-54.9472
11
89.2428
21
-54.9628
0
LINE
8
BLACK
6
CONTINUOUS
10
89.2428
20
-54.9628
11
89.266
21
-54.9892
0
LINE
8
BLACK
6
CONTINUOUS
10
89.266
20
-54.9892
11
89.405
21
-55.2299
0
LINE
8
BLACK
6
CONTINUOUS
10
89.405
20
-55.2299
11
89.4163
21
-55.2632
0
LINE
8
BLACK
6
CONTINUOUS
10
89.4163
20
-55.2632
11
89.414
21
-55.2982
0
LINE
8
BLACK
6
CONTINUOUS
10
89.414
20
-55.2982
11
89.3985
21
-55.3297
0
LINE
8
BLACK
6
CONTINUOUS
10
89.3985
20
-55.3297
11
89.3721
21
-55.3529
0
LINE
8
BLACK
6
CONTINUOUS
10
89.3721
20
-55.3529
11
89.2162
21
-55.4429
0
LINE
8
BLACK
6
CONTINUOUS
10
89.2162
20
-55.4429
11
89.1829
21
-55.4542
0
LINE
8
BLACK
6
CONTINUOUS
10
89.1829
20
-55.4542
11
89.1479
21
-55.4519
0
LINE
8
BLACK
6
CONTINUOUS
10
89.1479
20
-55.4519
11
89.1164
21
-55.4363
0
LINE
8
BLACK
6
CONTINUOUS
10
89.1164
20
-55.4363
11
89.0932
21
-55.4099
0
LINE
8
BLACK
6
CONTINUOUS
10
89.0932
20
-55.4099
11
88.9542
21
-55.1692
0
LINE
8
BLACK
6
CONTINUOUS
10
88.9542
20
-55.1692
11
88.9429
21
-55.1359
0
LINE
8
BLACK
6
CONTINUOUS
10
88.9429
20
-55.1359
11
88.9452
21
-55.1009
0
LINE
8
BLACK
6
CONTINUOUS
10
88.9452
20
-55.1009
11
88.9608
21
-55.0694
0
LINE
8
BLACK
6
CONTINUOUS
10
88.9608
20
-55.0694
11
88.9872
21
-55.0462
0
LINE
8
BLACK
6
CONTINUOUS
10
88.9872
20
-55.0462
11
89.1431
21
-54.9562
0
LINE
8
BLACK
6
CONTINUOUS
10
89.1431
20
-54.9562
11
89.1763
21
-54.9449
0
LINE
8
BLACK
6
CONTINUOUS
10
89.1763
20
-54.9449
11
89.2113
21
-54.9472
0
LINE
8
BLACK
6
CONTINUOUS
10
72.3826
20
-54.7938
11
72.1326
21
-55.2268
0
LINE
8
BLACK
6
CONTINUOUS
10
72.1326
20
-55.2268
11
71.6996
21
-54.9768
0
LINE
8
BLACK
6
CONTINUOUS
10
71.6996
20
-54.9768
11
71.9496
21
-54.5438
0
LINE
8
BLACK
6
CONTINUOUS
10
71.9496
20
-54.5438
11
72.3826
21
-54.7938
0
LINE
8
BLACK
6
CONTINUOUS
10
88.3004
20
-54.9768
11
87.8674
21
-55.2268
0
LINE
8
BLACK
6
CONTINUOUS
10
87.8674
20
-55.2268
11
87.6174
21
-54.7938
0
LINE
8
BLACK
6
CONTINUOUS
10
87.6174
20
-54.7938
11
88.0504
21
-54.5438
0
LINE
8
BLACK
6
CONTINUOUS
10
88.0504
20
-54.5438
11
88.3004
21
-54.9768
0
LINE
8
BLACK
6
CONTINUOUS
10
71.2894
20
-54.2071
11
71.4453
21
-54.2971
0
LINE
8
BLACK
6
CONTINUOUS
10
71.4453
20
-54.2971
11
71.4717
21
-54.3203
0
LINE
8
BLACK
6
CONTINUOUS
10
71.4717
20
-54.3203
11
71.4873
21
-54.3518
0
LINE
8
BLACK
6
CONTINUOUS
10
71.4873
20
-54.3518
11
71.4896
21
-54.3868
0
LINE
8
BLACK
6
CONTINUOUS
10
71.4896
20
-54.3868
11
71.4783
21
-54.4201
0
LINE
8
BLACK
6
CONTINUOUS
10
71.4783
20
-54.4201
11
71.3393
21
-54.6608
0
LINE
8
BLACK
6
CONTINUOUS
10
71.3393
20
-54.6608
11
71.3161
21
-54.6872
0
LINE
8
BLACK
6
CONTINUOUS
10
71.3161
20
-54.6872
11
71.2846
21
-54.7028
0
LINE
8
BLACK
6
CONTINUOUS
10
71.2846
20
-54.7028
11
71.2496
21
-54.7051
0
LINE
8
BLACK
6
CONTINUOUS
10
71.2496
20
-54.7051
11
71.2163
21
-54.6938
0
LINE
8
BLACK
6
CONTINUOUS
10
71.2163
20
-54.6938
11
71.0604
21
-54.6038
0
LINE
8
BLACK
6
CONTINUOUS
10
71.0604
20
-54.6038
11
71.034
21
-54.5806
0
LINE
8
BLACK
6
CONTINUOUS
10
71.034
20
-54.5806
11
71.0185
21
-54.5491
0
LINE
8
BLACK
6
CONTINUOUS
10
71.0185
20
-54.5491
11
71.0162
21
-54.5141
0
LINE
8
BLACK
6
CONTINUOUS
10
71.0162
20
-54.5141
11
71.0275
21
-54.4808
0
LINE
8
BLACK
6
CONTINUOUS
10
71.0275
20
-54.4808
11
71.1665
21
-54.2401
0
LINE
8
BLACK
6
CONTINUOUS
10
71.1665
20
-54.2401
11
71.1897
21
-54.2137
0
LINE
8
BLACK
6
CONTINUOUS
10
71.1897
20
-54.2137
11
71.2212
21
-54.1981
0
LINE
8
BLACK
6
CONTINUOUS
10
71.2212
20
-54.1981
11
71.2562
21
-54.1958
0
LINE
8
BLACK
6
CONTINUOUS
10
71.2562
20
-54.1958
11
71.2894
21
-54.2071
0
LINE
8
BLACK
6
CONTINUOUS
10
88.7788
20
-54.1981
11
88.8103
21
-54.2137
0
LINE
8
BLACK
6
CONTINUOUS
10
88.8103
20
-54.2137
11
88.8335
21
-54.2401
0
LINE
8
BLACK
6
CONTINUOUS
10
88.8335
20
-54.2401
11
88.9725
21
-54.4808
0
LINE
8
BLACK
6
CONTINUOUS
10
88.9725
20
-54.4808
11
88.9838
21
-54.5141
0
LINE
8
BLACK
6
CONTINUOUS
10
88.9838
20
-54.5141
11
88.9815
21
-54.5491
0
LINE
8
BLACK
6
CONTINUOUS
10
88.9815
20
-54.5491
11
88.966
21
-54.5806
0
LINE
8
BLACK
6
CONTINUOUS
10
88.966
20
-54.5806
11
88.9396
21
-54.6038
0
LINE
8
BLACK
6
CONTINUOUS
10
88.9396
20
-54.6038
11
88.7837
21
-54.6938
0
LINE
8
BLACK
6
CONTINUOUS
10
88.7837
20
-54.6938
11
88.7504
21
-54.7051
0
LINE
8
BLACK
6
CONTINUOUS
10
88.7504
20
-54.7051
11
88.7154
21
-54.7028
0
LINE
8
BLACK
6
CONTINUOUS
10
88.7154
20
-54.7028
11
88.6839
21
-54.6872
0
LINE
8
BLACK
6
CONTINUOUS
10
88.6839
20
-54.6872
11
88.6607
21
-54.6608
0
LINE
8
BLACK
6
CONTINUOUS
10
88.6607
20
-54.6608
11
88.5217
21
-54.4201
0
LINE
8
BLACK
6
CONTINUOUS
10
88.5217
20
-54.4201
11
88.5104
21
-54.3868
0
LINE
8
BLACK
6
CONTINUOUS
10
88.5104
20
-54.3868
11
88.5127
21
-54.3518
0
LINE
8
BLACK
6
CONTINUOUS
10
88.5127
20
-54.3518
11
88.5283
21
-54.3203
0
LINE
8
BLACK
6
CONTINUOUS
10
88.5283
20
-54.3203
11
88.5547
21
-54.2971
0
LINE
8
BLACK
6
CONTINUOUS
10
88.5547
20
-54.2971
11
88.7106
21
-54.2071
0
LINE
8
BLACK
6
CONTINUOUS
10
88.7106
20
-54.2071
11
88.7438
21
-54.1958
0
LINE
8
BLACK
6
CONTINUOUS
10
88.7438
20
-54.1958
11
88.7788
21
-54.1981
0
LINE
8
BLACK
6
CONTINUOUS
10
75.6768
20
-52.912
11
75.2438
21
-53.162
0
LINE
8
BLACK
6
CONTINUOUS
10
75.2438
20
-53.162
11
74.9938
21
-52.729
0
LINE
8
BLACK
6
CONTINUOUS
10
74.9938
20
-52.729
11
75.4268
21
-52.479
0
LINE
8
BLACK
6
CONTINUOUS
10
75.4268
20
-52.479
11
75.6768
21
-52.912
0
LINE
8
BLACK
6
CONTINUOUS
10
85.0062
20
-52.729
11
84.7562
21
-53.162
0
LINE
8
BLACK
6
CONTINUOUS
10
84.7562
20
-53.162
11
84.3232
21
-52.912
0
LINE
8
BLACK
6
CONTINUOUS
10
84.3232
20
-52.912
11
84.5732
21
-52.479
0
LINE
8
BLACK
6
CONTINUOUS
10
84.5732
20
-52.479
11
85.0062
21
-52.729
0
LINE
8
BLACK
6
CONTINUOUS
10
76.4562
20
-52.462
11
76.0232
21
-52.712
0
LINE
8
BLACK
6
CONTINUOUS
10
76.0232
20
-52.712
11
75.7732
21
-52.279
0
LINE
8
BLACK
6
CONTINUOUS
10
75.7732
20
-52.279
11
76.2062
21
-52.029
0
LINE
8
BLACK
6
CONTINUOUS
10
76.2062
20
-52.029
11
76.4562
21
-52.462
0
LINE
8
BLACK
6
CONTINUOUS
10
84.2268
20
-52.279
11
83.9768
21
-52.712
0
LINE
8
BLACK
6
CONTINUOUS
10
83.9768
20
-52.712
11
83.5438
21
-52.462
0
LINE
8
BLACK
6
CONTINUOUS
10
83.5438
20
-52.462
11
83.7938
21
-52.029
0
LINE
8
BLACK
6
CONTINUOUS
10
83.7938
20
-52.029
11
84.2268
21
-52.279
0
LINE
8
BLACK
6
CONTINUOUS
10
75.2268
20
-52.1326
11
74.7938
21
-52.3826
0
LINE
8
BLACK
6
CONTINUOUS
10
74.7938
20
-52.3826
11
74.5438
21
-51.9496
0
LINE
8
BLACK
6
CONTINUOUS
10
74.5438
20
-51.9496
11
74.9768
21
-51.6996
0
LINE
8
BLACK
6
CONTINUOUS
10
74.9768
20
-51.6996
11
75.2268
21
-52.1326
0
LINE
8
BLACK
6
CONTINUOUS
10
85.4562
20
-51.9496
11
85.2062
21
-52.3826
0
LINE
8
BLACK
6
CONTINUOUS
10
85.2062
20
-52.3826
11
84.7732
21
-52.1326
0
LINE
8
BLACK
6
CONTINUOUS
10
84.7732
20
-52.1326
11
85.0232
21
-51.6996
0
LINE
8
BLACK
6
CONTINUOUS
10
85.0232
20
-51.6996
11
85.4562
21
-51.9496
0
LINE
8
BLACK
6
CONTINUOUS
10
76.0062
20
-51.6826
11
75.5732
21
-51.9326
0
LINE
8
BLACK
6
CONTINUOUS
10
75.5732
20
-51.9326
11
75.3232
21
-51.4996
0
LINE
8
BLACK
6
CONTINUOUS
10
75.3232
20
-51.4996
11
75.7562
21
-51.2496
0
LINE
8
BLACK
6
CONTINUOUS
10
75.7562
20
-51.2496
11
76.0062
21
-51.6826
0
LINE
8
BLACK
6
CONTINUOUS
10
84.6768
20
-51.4996
11
84.4268
21
-51.9326
0
LINE
8
BLACK
6
CONTINUOUS
10
84.4268
20
-51.9326
11
83.9938
21
-51.6826
0
LINE
8
BLACK
6
CONTINUOUS
10
83.9938
20
-51.6826
11
84.2438
21
-51.2496
0
LINE
8
BLACK
6
CONTINUOUS
10
84.2438
20
-51.2496
11
84.6768
21
-51.4996
0
LINE
8
BLACK
6
CONTINUOUS
10
79.8
20
-51.7
11
79.3
21
-51.7
0
LINE
8
BLACK
6
CONTINUOUS
10
79.3
20
-51.7
11
79.3
21
-51.2
0
LINE
8
BLACK
6
CONTINUOUS
10
79.3
20
-51.2
11
79.8
21
-51.2
0
LINE
8
BLACK
6
CONTINUOUS
10
79.8
20
-51.2
11
79.8
21
-51.7
0
LINE
8
BLACK
6
CONTINUOUS
10
80.7
20
-51.7
11
80.2
21
-51.7
0
LINE
8
BLACK
6
CONTINUOUS
10
80.2
20
-51.7
11
80.2
21
-51.2
0
LINE
8
BLACK
6
CONTINUOUS
10
80.2
20
-51.2
11
80.7
21
-51.2
0
LINE
8
BLACK
6
CONTINUOUS
10
80.7
20
-51.2
11
80.7
21
-51.7
0
LINE
8
BLACK
6
CONTINUOUS
10
74.5491
20
-51.0185
11
74.5806
21
-51.034
0
LINE
8
BLACK
6
CONTINUOUS
10
74.5806
20
-51.034
11
74.6038
21
-51.0604
0
LINE
8
BLACK
6
CONTINUOUS
10
74.6038
20
-51.0604
11
74.6938
21
-51.2163
0
LINE
8
BLACK
6
CONTINUOUS
10
74.6938
20
-51.2163
11
74.7051
21
-51.2496
0
LINE
8
BLACK
6
CONTINUOUS
10
74.7051
20
-51.2496
11
74.7028
21
-51.2846
0
LINE
8
BLACK
6
CONTINUOUS
10
74.7028
20
-51.2846
11
74.6872
21
-51.3161
0
LINE
8
BLACK
6
CONTINUOUS
10
74.6872
20
-51.3161
11
74.6608
21
-51.3393
0
LINE
8
BLACK
6
CONTINUOUS
10
74.6608
20
-51.3393
11
74.4201
21
-51.4783
0
LINE
8
BLACK
6
CONTINUOUS
10
74.4201
20
-51.4783
11
74.3868
21
-51.4896
0
LINE
8
BLACK
6
CONTINUOUS
10
74.3868
20
-51.4896
11
74.3518
21
-51.4873
0
LINE
8
BLACK
6
CONTINUOUS
10
74.3518
20
-51.4873
11
74.3203
21
-51.4717
0
LINE
8
BLACK
6
CONTINUOUS
10
74.3203
20
-51.4717
11
74.2971
21
-51.4453
0
LINE
8
BLACK
6
CONTINUOUS
10
74.2971
20
-51.4453
11
74.2071
21
-51.2894
0
LINE
8
BLACK
6
CONTINUOUS
10
74.2071
20
-51.2894
11
74.1958
21
-51.2562
0
LINE
8
BLACK
6
CONTINUOUS
10
74.1958
20
-51.2562
11
74.1981
21
-51.2212
0
LINE
8
BLACK
6
CONTINUOUS
10
74.1981
20
-51.2212
11
74.2137
21
-51.1897
0
LINE
8
BLACK
6
CONTINUOUS
10
74.2137
20
-51.1897
11
74.2401
21
-51.1665
0
LINE
8
BLACK
6
CONTINUOUS
10
74.2401
20
-51.1665
11
74.4808
21
-51.0275
0
LINE
8
BLACK
6
CONTINUOUS
10
74.4808
20
-51.0275
11
74.5141
21
-51.0162
0
LINE
8
BLACK
6
CONTINUOUS
10
74.5141
20
-51.0162
11
74.5491
21
-51.0185
0
LINE
8
BLACK
6
CONTINUOUS
10
85.5192
20
-51.0275
11
85.7599
21
-51.1665
0
LINE
8
BLACK
6
CONTINUOUS
10
85.7599
20
-51.1665
11
85.7863
21
-51.1897
0
LINE
8
BLACK
6
CONTINUOUS
10
85.7863
20
-51.1897
11
85.8019
21
-51.2212
0
LINE
8
BLACK
6
CONTINUOUS
10
85.8019
20
-51.2212
11
85.8042
21
-51.2562
0
LINE
8
BLACK
6
CONTINUOUS
10
85.8042
20
-51.2562
11
85.7929
21
-51.2894
0
LINE
8
BLACK
6
CONTINUOUS
10
85.7929
20
-51.2894
11
85.7029
21
-51.4453
0
LINE
8
BLACK
6
CONTINUOUS
10
85.7029
20
-51.4453
11
85.6797
21
-51.4717
0
LINE
8
BLACK
6
CONTINUOUS
10
85.6797
20
-51.4717
11
85.6482
21
-51.4873
0
LINE
8
BLACK
6
CONTINUOUS
10
85.6482
20
-51.4873
11
85.6132
21
-51.4896
0
LINE
8
BLACK
6
CONTINUOUS
10
85.6132
20
-51.4896
11
85.5799
21
-51.4783
0
LINE
8
BLACK
6
CONTINUOUS
10
85.5799
20
-51.4783
11
85.3392
21
-51.3393
0
LINE
8
BLACK
6
CONTINUOUS
10
85.3392
20
-51.3393
11
85.3128
21
-51.3161
0
LINE
8
BLACK
6
CONTINUOUS
10
85.3128
20
-51.3161
11
85.2972
21
-51.2846
0
LINE
8
BLACK
6
CONTINUOUS
10
85.2972
20
-51.2846
11
85.2949
21
-51.2496
0
LINE
8
BLACK
6
CONTINUOUS
10
85.2949
20
-51.2496
11
85.3062
21
-51.2163
0
LINE
8
BLACK
6
CONTINUOUS
10
85.3062
20
-51.2163
11
85.3962
21
-51.0604
0
LINE
8
BLACK
6
CONTINUOUS
10
85.3962
20
-51.0604
11
85.4194
21
-51.034
0
LINE
8
BLACK
6
CONTINUOUS
10
85.4194
20
-51.034
11
85.4509
21
-51.0185
0
LINE
8
BLACK
6
CONTINUOUS
10
85.4509
20
-51.0185
11
85.4859
21
-51.0162
0
LINE
8
BLACK
6
CONTINUOUS
10
85.4859
20
-51.0162
11
85.5192
21
-51.0275
0
LINE
8
BLACK
6
CONTINUOUS
10
75.2982
20
-50.586
11
75.3297
21
-50.6015
0
LINE
8
BLACK
6
CONTINUOUS
10
75.3297
20
-50.6015
11
75.3529
21
-50.6279
0
LINE
8
BLACK
6
CONTINUOUS
10
75.3529
20
-50.6279
11
75.4429
21
-50.7838
0
LINE
8
BLACK
6
CONTINUOUS
10
75.4429
20
-50.7838
11
75.4542
21
-50.8171
0
LINE
8
BLACK
6
CONTINUOUS
10
75.4542
20
-50.8171
11
75.4519
21
-50.8521
0
LINE
8
BLACK
6
CONTINUOUS
10
75.4519
20
-50.8521
11
75.4363
21
-50.8836
0
LINE
8
BLACK
6
CONTINUOUS
10
75.4363
20
-50.8836
11
75.4099
21
-50.9068
0
LINE
8
BLACK
6
CONTINUOUS
10
75.4099
20
-50.9068
11
75.1692
21
-51.0458
0
LINE
8
BLACK
6
CONTINUOUS
10
75.1692
20
-51.0458
11
75.1359
21
-51.0571
0
LINE
8
BLACK
6
CONTINUOUS
10
75.1359
20
-51.0571
11
75.1009
21
-51.0548
0
LINE
8
BLACK
6
CONTINUOUS
10
75.1009
20
-51.0548
11
75.0694
21
-51.0392
0
LINE
8
BLACK
6
CONTINUOUS
10
75.0694
20
-51.0392
11
75.0462
21
-51.0128
0
LINE
8
BLACK
6
CONTINUOUS
10
75.0462
20
-51.0128
11
74.9562
21
-50.8569
0
LINE
8
BLACK
6
CONTINUOUS
10
74.9562
20
-50.8569
11
74.9449
21
-50.8237
0
LINE
8
BLACK
6
CONTINUOUS
10
74.9449
20
-50.8237
11
74.9472
21
-50.7887
0
LINE
8
BLACK
6
CONTINUOUS
10
74.9472
20
-50.7887
11
74.9628
21
-50.7572
0
LINE
8
BLACK
6
CONTINUOUS
10
74.9628
20
-50.7572
11
74.9892
21
-50.734
0
LINE
8
BLACK
6
CONTINUOUS
10
74.9892
20
-50.734
11
75.2299
21
-50.595
0
LINE
8
BLACK
6
CONTINUOUS
10
75.2299
20
-50.595
11
75.2632
21
-50.5837
0
LINE
8
BLACK
6
CONTINUOUS
10
75.2632
20
-50.5837
11
75.2982
21
-50.586
0
LINE
8
BLACK
6
CONTINUOUS
10
84.7701
20
-50.595
11
85.0108
21
-50.734
0
LINE
8
BLACK
6
CONTINUOUS
10
85.0108
20
-50.734
11
85.0372
21
-50.7572
0
LINE
8
BLACK
6
CONTINUOUS
10
85.0372
20
-50.7572
11
85.0528
21
-50.7887
0
LINE
8
BLACK
6
CONTINUOUS
10
85.0528
20
-50.7887
11
85.0551
21
-50.8237
0
LINE
8
BLACK
6
CONTINUOUS
10
85.0551
20
-50.8237
11
85.0438
21
-50.8569
0
LINE
8
BLACK
6
CONTINUOUS
10
85.0438
20
-50.8569
11
84.9538
21
-51.0128
0
LINE
8
BLACK
6
CONTINUOUS
10
84.9538
20
-51.0128
11
84.9306
21
-51.0392
0
LINE
8
BLACK
6
CONTINUOUS
10
84.9306
20
-51.0392
11
84.8991
21
-51.0548
0
LINE
8
BLACK
6
CONTINUOUS
10
84.8991
20
-51.0548
11
84.8641
21
-51.0571
0
LINE
8
BLACK
6
CONTINUOUS
10
84.8641
20
-51.0571
11
84.8308
21
-51.0458
0
LINE
8
BLACK
6
CONTINUOUS
10
84.8308
20
-51.0458
11
84.5901
21
-50.9068
0
LINE
8
BLACK
6
CONTINUOUS
10
84.5901
20
-50.9068
11
84.5637
21
-50.8836
0
LINE
8
BLACK
6
CONTINUOUS
10
84.5637
20
-50.8836
11
84.5481
21
-50.8521
0
LINE
8
BLACK
6
CONTINUOUS
10
84.5481
20
-50.8521
11
84.5458
21
-50.8171
0
LINE
8
BLACK
6
CONTINUOUS
10
84.5458
20
-50.8171
11
84.5571
21
-50.7838
0
LINE
8
BLACK
6
CONTINUOUS
10
84.5571
20
-50.7838
11
84.6471
21
-50.6279
0
LINE
8
BLACK
6
CONTINUOUS
10
84.6471
20
-50.6279
11
84.6703
21
-50.6015
0
LINE
8
BLACK
6
CONTINUOUS
10
84.6703
20
-50.6015
11
84.7018
21
-50.586
0
LINE
8
BLACK
6
CONTINUOUS
10
84.7018
20
-50.586
11
84.7368
21
-50.5837
0
LINE
8
BLACK
6
CONTINUOUS
10
84.7368
20
-50.5837
11
84.7701
21
-50.595
0
LINE
8
BLACK
6
CONTINUOUS
10
79.8
20
-50.8
11
79.3
21
-50.8
0
LINE
8
BLACK
6
CONTINUOUS
10
79.3
20
-50.8
11
79.3
21
-50.3
0
LINE
8
BLACK
6
CONTINUOUS
10
79.3
20
-50.3
11
79.8
21
-50.3
0
LINE
8
BLACK
6
CONTINUOUS
10
79.8
20
-50.3
11
79.8
21
-50.8
0
LINE
8
BLACK
6
CONTINUOUS
10
80.7
20
-50.8
11
80.2
21
-50.8
0
LINE
8
BLACK
6
CONTINUOUS
10
80.2
20
-50.8
11
80.2
21
-50.3
0
LINE
8
BLACK
6
CONTINUOUS
10
80.2
20
-50.3
11
80.7
21
-50.3
0
LINE
8
BLACK
6
CONTINUOUS
10
80.7
20
-50.3
11
80.7
21
-50.8
0
LINE
8
BLACK
6
CONTINUOUS
10
79.7409
20
-49.4769
11
79.7701
21
-49.4964
0
LINE
8
BLACK
6
CONTINUOUS
10
79.7701
20
-49.4964
11
79.7896
21
-49.5256
0
LINE
8
BLACK
6
CONTINUOUS
10
79.7896
20
-49.5256
11
79.7965
21
-49.56
0
LINE
8
BLACK
6
CONTINUOUS
10
79.7965
20
-49.56
11
79.7965
21
-49.74
0
LINE
8
BLACK
6
CONTINUOUS
10
79.7965
20
-49.74
11
79.7896
21
-49.7744
0
LINE
8
BLACK
6
CONTINUOUS
10
79.7896
20
-49.7744
11
79.7701
21
-49.8036
0
LINE
8
BLACK
6
CONTINUOUS
10
79.7701
20
-49.8036
11
79.7409
21
-49.8231
0
LINE
8
BLACK
6
CONTINUOUS
10
79.7409
20
-49.8231
11
79.7065
21
-49.83
0
LINE
8
BLACK
6
CONTINUOUS
10
79.7065
20
-49.83
11
79.4285
21
-49.83
0
LINE
8
BLACK
6
CONTINUOUS
10
79.4285
20
-49.83
11
79.3941
21
-49.8231
0
LINE
8
BLACK
6
CONTINUOUS
10
79.3941
20
-49.8231
11
79.3649
21
-49.8036
0
LINE
8
BLACK
6
CONTINUOUS
10
79.3649
20
-49.8036
11
79.3454
21
-49.7744
0
LINE
8
BLACK
6
CONTINUOUS
10
79.3454
20
-49.7744
11
79.3385
21
-49.74
0
LINE
8
BLACK
6
CONTINUOUS
10
79.3385
20
-49.74
11
79.3385
21
-49.56
0
LINE
8
BLACK
6
CONTINUOUS
10
79.3385
20
-49.56
11
79.3454
21
-49.5256
0
LINE
8
BLACK
6
CONTINUOUS
10
79.3454
20
-49.5256
11
79.3649
21
-49.4964
0
LINE
8
BLACK
6
CONTINUOUS
10
79.3649
20
-49.4964
11
79.3941
21
-49.4769
0
LINE
8
BLACK
6
CONTINUOUS
10
79.3941
20
-49.4769
11
79.4285
21
-49.47
0
LINE
8
BLACK
6
CONTINUOUS
10
79.4285
20
-49.47
11
79.7065
21
-49.47
0
LINE
8
BLACK
6
CONTINUOUS
10
79.7065
20
-49.47
11
79.7409
21
-49.4769
0
LINE
8
BLACK
6
CONTINUOUS
10
80.6059
20
-49.4769
11
80.6351
21
-49.4964
0
LINE
8
BLACK
6
CONTINUOUS
10
80.6351
20
-49.4964
11
80.6546
21
-49.5256
0
LINE
8
BLACK
6
CONTINUOUS
10
80.6546
20
-49.5256
11
80.6615
21
-49.56
0
LINE
8
BLACK
6
CONTINUOUS
10
80.6615
20
-49.56
11
80.6615
21
-49.74
0
LINE
8
BLACK
6
CONTINUOUS
10
80.6615
20
-49.74
11
80.6546
21
-49.7744
0
LINE
8
BLACK
6
CONTINUOUS
10
80.6546
20
-49.7744
11
80.6351
21
-49.8036
0
LINE
8
BLACK
6
CONTINUOUS
10
80.6351
20
-49.8036
11
80.6059
21
-49.8231
0
LINE
8
BLACK
6
CONTINUOUS
10
80.6059
20
-49.8231
11
80.5715
21
-49.83
0
LINE
8
BLACK
6
CONTINUOUS
10
80.5715
20
-49.83
11
80.2935
21
-49.83
0
LINE
8
BLACK
6
CONTINUOUS
10
80.2935
20
-49.83
11
80.2591
21
-49.8231
0
LINE
8
BLACK
6
CONTINUOUS
10
80.2591
20
-49.8231
11
80.2299
21
-49.8036
0
LINE
8
BLACK
6
CONTINUOUS
10
80.2299
20
-49.8036
11
80.2104
21
-49.7744
0
LINE
8
BLACK
6
CONTINUOUS
10
80.2104
20
-49.7744
11
80.2035
21
-49.74
0
LINE
8
BLACK
6
CONTINUOUS
10
80.2035
20
-49.74
11
80.2035
21
-49.56
0
LINE
8
BLACK
6
CONTINUOUS
10
80.2035
20
-49.56
11
80.2104
21
-49.5256
0
LINE
8
BLACK
6
CONTINUOUS
10
80.2104
20
-49.5256
11
80.2299
21
-49.4964
0
LINE
8
BLACK
6
CONTINUOUS
10
80.2299
20
-49.4964
11
80.2591
21
-49.4769
0
LINE
8
BLACK
6
CONTINUOUS
10
80.2591
20
-49.4769
11
80.2935
21
-49.47
0
LINE
8
BLACK
6
CONTINUOUS
10
80.2935
20
-49.47
11
80.5715
21
-49.47
0
LINE
8
BLACK
6
CONTINUOUS
10
80.5715
20
-49.47
11
80.6059
21
-49.4769
  0
ENDSEC
  0
EOF
