  0
SECTION
  2
HEADER
  9
$ANGBASE
  50
0.0
  9
$ANGDIR
  70
1
  9
$MEASUREMENT
  70
1
  0
ENDSEC
  0
SECTION
  2
TABLES
  0
TABLE
  2
LTYPE
  70
4
  0
LTYPE
  5
40F
  2
CONTINUOUS
  70
0
  3
Solid line
  72
65
  73
0
  40
0.0
  0
LTYPE
  5
410
  2
DASHDOT
 70
0
  3
Dash Dot ____ _ ____ _
 72
65
 73
4
 40
2.0
 49
1.25
 49
-0.25
 49
0.25
 49
-0.25
  0
LTYPE
  5
411
  2
DASHED
 70
0
  3
Dashed __ __ __ __ __
 72
65
 73
2
 40
0.75
 49
0.5
 49
-0.25
  0
LTYPE
  5
43B
  2
DOTTED
 70
0
  3
Dotted .  .  .  .
 72
65
 73
2
 40
0.2
 49
0.0
 49
-0.2
  0
ENDTAB
  0
TABLE
  2
STYLE
  70
4
  0
STYLE
  2
KICAD
  70
0
  40
0
  41
1
  42
1
  50
0
  71
0
  3
isocp.shx
  0
STYLE
  2
KICADB
  70
0
  40
0
  41
1
  42
1
  50
0
  71
0
  3
isocp.shx
  0
STYLE
  2
KICADI
  70
0
  40
0
  41
1
  42
1
  50
15
  71
0
  3
isocp.shx
  0
STYLE
  2
KICADBI
  70
0
  40
0
  41
1
  42
1
  50
15
  71
0
  3
isocp.shx
  0
ENDTAB
  0
TABLE
  2
LAYER
  70
1
  0
LAYER
  2
BLACK
  70
0
  62
7
  6
CONTINUOUS
  0
ENDTAB
  0
ENDSEC
  0
SECTION
  2
ENTITIES
0
LINE
8
BLACK
6
CONTINUOUS
10
84.5
20
-73.35
11
83.5
21
-73.35
0
LINE
8
BLACK
6
CONTINUOUS
10
83.5
20
-73.35
11
83.5
21
-72.35
0
LINE
8
BLACK
6
CONTINUOUS
10
83.5
20
-72.35
11
84.5
21
-72.35
0
LINE
8
BLACK
6
CONTINUOUS
10
84.5
20
-72.35
11
84.5
21
-73.35
0
LINE
8
BLACK
6
CONTINUOUS
10
84.5
20
-71.65
11
83.5
21
-71.65
0
LINE
8
BLACK
6
CONTINUOUS
10
83.5
20
-71.65
11
83.5
21
-70.65
0
LINE
8
BLACK
6
CONTINUOUS
10
83.5
20
-70.65
11
84.5
21
-70.65
0
LINE
8
BLACK
6
CONTINUOUS
10
84.5
20
-70.65
11
84.5
21
-71.65
0
LINE
8
BLACK
6
CONTINUOUS
10
85.825
20
-71.875
11
85.125
21
-71.875
0
LINE
8
BLACK
6
CONTINUOUS
10
85.125
20
-71.875
11
85.125
21
-71.625
0
LINE
8
BLACK
6
CONTINUOUS
10
85.125
20
-71.625
11
85.825
21
-71.625
0
LINE
8
BLACK
6
CONTINUOUS
10
85.825
20
-71.625
11
85.825
21
-71.875
0
LINE
8
BLACK
6
CONTINUOUS
10
86.65
20
-72.295
11
86.15
21
-72.295
0
LINE
8
BLACK
6
CONTINUOUS
10
86.15
20
-72.295
11
86.15
21
-71.705
0
LINE
8
BLACK
6
CONTINUOUS
10
86.15
20
-71.705
11
86.65
21
-71.705
0
LINE
8
BLACK
6
CONTINUOUS
10
86.65
20
-71.705
11
86.65
21
-72.295
0
LINE
8
BLACK
6
CONTINUOUS
10
90.7457
20
-72.019
11
90.8268
21
-72.0732
0
LINE
8
BLACK
6
CONTINUOUS
10
90.8268
20
-72.0732
11
90.881
21
-72.1543
0
LINE
8
BLACK
6
CONTINUOUS
10
90.881
20
-72.1543
11
90.9
21
-72.25
0
LINE
8
BLACK
6
CONTINUOUS
10
90.9
20
-72.25
11
90.9
21
-73.075
0
LINE
8
BLACK
6
CONTINUOUS
10
90.9
20
-73.075
11
90.881
21
-73.1707
0
LINE
8
BLACK
6
CONTINUOUS
10
90.881
20
-73.1707
11
90.8268
21
-73.2518
0
LINE
8
BLACK
6
CONTINUOUS
10
90.8268
20
-73.2518
11
90.7457
21
-73.306
0
LINE
8
BLACK
6
CONTINUOUS
10
90.7457
20
-73.306
11
90.65
21
-73.325
0
LINE
8
BLACK
6
CONTINUOUS
10
90.65
20
-73.325
11
89.35
21
-73.325
0
LINE
8
BLACK
6
CONTINUOUS
10
89.35
20
-73.325
11
89.2543
21
-73.306
0
LINE
8
BLACK
6
CONTINUOUS
10
89.2543
20
-73.306
11
89.1732
21
-73.2518
0
LINE
8
BLACK
6
CONTINUOUS
10
89.1732
20
-73.2518
11
89.119
21
-73.1707
0
LINE
8
BLACK
6
CONTINUOUS
10
89.119
20
-73.1707
11
89.1
21
-73.075
0
LINE
8
BLACK
6
CONTINUOUS
10
89.1
20
-73.075
11
89.1
21
-72.25
0
LINE
8
BLACK
6
CONTINUOUS
10
89.1
20
-72.25
11
89.119
21
-72.1543
0
LINE
8
BLACK
6
CONTINUOUS
10
89.119
20
-72.1543
11
89.1732
21
-72.0732
0
LINE
8
BLACK
6
CONTINUOUS
10
89.1732
20
-72.0732
11
89.2543
21
-72.019
0
LINE
8
BLACK
6
CONTINUOUS
10
89.2543
20
-72.019
11
89.35
21
-72
0
LINE
8
BLACK
6
CONTINUOUS
10
89.35
20
-72
11
90.65
21
-72
0
LINE
8
BLACK
6
CONTINUOUS
10
90.65
20
-72
11
90.7457
21
-72.019
0
LINE
8
BLACK
6
CONTINUOUS
10
86.65
20
-73.029
11
86.15
21
-73.029
0
LINE
8
BLACK
6
CONTINUOUS
10
86.15
20
-73.029
11
86.15
21
-72.439
0
LINE
8
BLACK
6
CONTINUOUS
10
86.15
20
-72.439
11
86.65
21
-72.439
0
LINE
8
BLACK
6
CONTINUOUS
10
86.65
20
-72.439
11
86.65
21
-73.029
0
LINE
8
BLACK
6
CONTINUOUS
10
85.825
20
-72.875
11
85.125
21
-72.875
0
LINE
8
BLACK
6
CONTINUOUS
10
85.125
20
-72.875
11
85.125
21
-72.625
0
LINE
8
BLACK
6
CONTINUOUS
10
85.125
20
-72.625
11
85.825
21
-72.625
0
LINE
8
BLACK
6
CONTINUOUS
10
85.825
20
-72.625
11
85.825
21
-72.875
0
LINE
8
BLACK
6
CONTINUOUS
10
87.675
20
-72.875
11
86.975
21
-72.875
0
LINE
8
BLACK
6
CONTINUOUS
10
86.975
20
-72.875
11
86.975
21
-72.625
0
LINE
8
BLACK
6
CONTINUOUS
10
86.975
20
-72.625
11
87.675
21
-72.625
0
LINE
8
BLACK
6
CONTINUOUS
10
87.675
20
-72.625
11
87.675
21
-72.875
0
LINE
8
BLACK
6
CONTINUOUS
10
85.825
20
-72.375
11
85.125
21
-72.375
0
LINE
8
BLACK
6
CONTINUOUS
10
85.125
20
-72.375
11
85.125
21
-72.125
0
LINE
8
BLACK
6
CONTINUOUS
10
85.125
20
-72.125
11
85.825
21
-72.125
0
LINE
8
BLACK
6
CONTINUOUS
10
85.825
20
-72.125
11
85.825
21
-72.375
0
LINE
8
BLACK
6
CONTINUOUS
10
87.675
20
-72.375
11
86.975
21
-72.375
0
LINE
8
BLACK
6
CONTINUOUS
10
86.975
20
-72.375
11
86.975
21
-72.125
0
LINE
8
BLACK
6
CONTINUOUS
10
86.975
20
-72.125
11
87.675
21
-72.125
0
LINE
8
BLACK
6
CONTINUOUS
10
87.675
20
-72.125
11
87.675
21
-72.375
0
LINE
8
BLACK
6
CONTINUOUS
10
82.2957
20
-68.594
11
82.3768
21
-68.6482
0
LINE
8
BLACK
6
CONTINUOUS
10
82.3768
20
-68.6482
11
82.431
21
-68.7293
0
LINE
8
BLACK
6
CONTINUOUS
10
82.431
20
-68.7293
11
82.45
21
-68.825
0
LINE
8
BLACK
6
CONTINUOUS
10
82.45
20
-68.825
11
82.45
21
-69.775
0
LINE
8
BLACK
6
CONTINUOUS
10
82.45
20
-69.775
11
82.431
21
-69.8707
0
LINE
8
BLACK
6
CONTINUOUS
10
82.431
20
-69.8707
11
82.3768
21
-69.9518
0
LINE
8
BLACK
6
CONTINUOUS
10
82.3768
20
-69.9518
11
82.2957
21
-70.006
0
LINE
8
BLACK
6
CONTINUOUS
10
82.2957
20
-70.006
11
82.2
21
-70.025
0
LINE
8
BLACK
6
CONTINUOUS
10
82.2
20
-70.025
11
81.525
21
-70.025
0
LINE
8
BLACK
6
CONTINUOUS
10
81.525
20
-70.025
11
81.4293
21
-70.006
0
LINE
8
BLACK
6
CONTINUOUS
10
81.4293
20
-70.006
11
81.3482
21
-69.9518
0
LINE
8
BLACK
6
CONTINUOUS
10
81.3482
20
-69.9518
11
81.294
21
-69.8707
0
LINE
8
BLACK
6
CONTINUOUS
10
81.294
20
-69.8707
11
81.275
21
-69.775
0
LINE
8
BLACK
6
CONTINUOUS
10
81.275
20
-69.775
11
81.275
21
-68.825
0
LINE
8
BLACK
6
CONTINUOUS
10
81.275
20
-68.825
11
81.294
21
-68.7293
0
LINE
8
BLACK
6
CONTINUOUS
10
81.294
20
-68.7293
11
81.3482
21
-68.6482
0
LINE
8
BLACK
6
CONTINUOUS
10
81.3482
20
-68.6482
11
81.4293
21
-68.594
0
LINE
8
BLACK
6
CONTINUOUS
10
81.4293
20
-68.594
11
81.525
21
-68.575
0
LINE
8
BLACK
6
CONTINUOUS
10
81.525
20
-68.575
11
82.2
21
-68.575
0
LINE
8
BLACK
6
CONTINUOUS
10
82.2
20
-68.575
11
82.2957
21
-68.594
0
LINE
8
BLACK
6
CONTINUOUS
10
84.3707
20
-68.594
11
84.4518
21
-68.6482
0
LINE
8
BLACK
6
CONTINUOUS
10
84.4518
20
-68.6482
11
84.506
21
-68.7293
0
LINE
8
BLACK
6
CONTINUOUS
10
84.506
20
-68.7293
11
84.525
21
-68.825
0
LINE
8
BLACK
6
CONTINUOUS
10
84.525
20
-68.825
11
84.525
21
-69.775
0
LINE
8
BLACK
6
CONTINUOUS
10
84.525
20
-69.775
11
84.506
21
-69.8707
0
LINE
8
BLACK
6
CONTINUOUS
10
84.506
20
-69.8707
11
84.4518
21
-69.9518
0
LINE
8
BLACK
6
CONTINUOUS
10
84.4518
20
-69.9518
11
84.3707
21
-70.006
0
LINE
8
BLACK
6
CONTINUOUS
10
84.3707
20
-70.006
11
84.275
21
-70.025
0
LINE
8
BLACK
6
CONTINUOUS
10
84.275
20
-70.025
11
83.6
21
-70.025
0
LINE
8
BLACK
6
CONTINUOUS
10
83.6
20
-70.025
11
83.5043
21
-70.006
0
LINE
8
BLACK
6
CONTINUOUS
10
83.5043
20
-70.006
11
83.4232
21
-69.9518
0
LINE
8
BLACK
6
CONTINUOUS
10
83.4232
20
-69.9518
11
83.369
21
-69.8707
0
LINE
8
BLACK
6
CONTINUOUS
10
83.369
20
-69.8707
11
83.35
21
-69.775
0
LINE
8
BLACK
6
CONTINUOUS
10
83.35
20
-69.775
11
83.35
21
-68.825
0
LINE
8
BLACK
6
CONTINUOUS
10
83.35
20
-68.825
11
83.369
21
-68.7293
0
LINE
8
BLACK
6
CONTINUOUS
10
83.369
20
-68.7293
11
83.4232
21
-68.6482
0
LINE
8
BLACK
6
CONTINUOUS
10
83.4232
20
-68.6482
11
83.5043
21
-68.594
0
LINE
8
BLACK
6
CONTINUOUS
10
83.5043
20
-68.594
11
83.6
21
-68.575
0
LINE
8
BLACK
6
CONTINUOUS
10
83.6
20
-68.575
11
84.275
21
-68.575
0
LINE
8
BLACK
6
CONTINUOUS
10
84.275
20
-68.575
11
84.3707
21
-68.594
0
LINE
8
BLACK
6
CONTINUOUS
10
90.7457
20
-68.894
11
90.8268
21
-68.9482
0
LINE
8
BLACK
6
CONTINUOUS
10
90.8268
20
-68.9482
11
90.881
21
-69.0293
0
LINE
8
BLACK
6
CONTINUOUS
10
90.881
20
-69.0293
11
90.9
21
-69.125
0
LINE
8
BLACK
6
CONTINUOUS
10
90.9
20
-69.125
11
90.9
21
-69.95
0
LINE
8
BLACK
6
CONTINUOUS
10
90.9
20
-69.95
11
90.881
21
-70.0457
0
LINE
8
BLACK
6
CONTINUOUS
10
90.881
20
-70.0457
11
90.8268
21
-70.1268
0
LINE
8
BLACK
6
CONTINUOUS
10
90.8268
20
-70.1268
11
90.7457
21
-70.181
0
LINE
8
BLACK
6
CONTINUOUS
10
90.7457
20
-70.181
11
90.65
21
-70.2
0
LINE
8
BLACK
6
CONTINUOUS
10
90.65
20
-70.2
11
89.35
21
-70.2
0
LINE
8
BLACK
6
CONTINUOUS
10
89.35
20
-70.2
11
89.2543
21
-70.181
0
LINE
8
BLACK
6
CONTINUOUS
10
89.2543
20
-70.181
11
89.1732
21
-70.1268
0
LINE
8
BLACK
6
CONTINUOUS
10
89.1732
20
-70.1268
11
89.119
21
-70.0457
0
LINE
8
BLACK
6
CONTINUOUS
10
89.119
20
-70.0457
11
89.1
21
-69.95
0
LINE
8
BLACK
6
CONTINUOUS
10
89.1
20
-69.95
11
89.1
21
-69.125
0
LINE
8
BLACK
6
CONTINUOUS
10
89.1
20
-69.125
11
89.119
21
-69.0293
0
LINE
8
BLACK
6
CONTINUOUS
10
89.119
20
-69.0293
11
89.1732
21
-68.9482
0
LINE
8
BLACK
6
CONTINUOUS
10
89.1732
20
-68.9482
11
89.2543
21
-68.894
0
LINE
8
BLACK
6
CONTINUOUS
10
89.2543
20
-68.894
11
89.35
21
-68.875
0
LINE
8
BLACK
6
CONTINUOUS
10
89.35
20
-68.875
11
90.65
21
-68.875
0
LINE
8
BLACK
6
CONTINUOUS
10
90.65
20
-68.875
11
90.7457
21
-68.894
0
LINE
8
BLACK
6
CONTINUOUS
10
94.46
20
-72.02
11
93.46
21
-72.02
0
LINE
8
BLACK
6
CONTINUOUS
10
93.46
20
-72.02
11
93.46
21
-69.02
0
LINE
8
BLACK
6
CONTINUOUS
10
93.46
20
-69.02
11
94.46
21
-69.02
0
LINE
8
BLACK
6
CONTINUOUS
10
94.46
20
-69.02
11
94.46
21
-72.02
0
LINE
8
BLACK
6
CONTINUOUS
10
97
20
-72.02
11
96
21
-72.02
0
LINE
8
BLACK
6
CONTINUOUS
10
96
20
-72.02
11
96
21
-69.02
0
LINE
8
BLACK
6
CONTINUOUS
10
96
20
-69.02
11
97
21
-69.02
0
LINE
8
BLACK
6
CONTINUOUS
10
97
20
-69.02
11
97
21
-72.02
0
LINE
8
BLACK
6
CONTINUOUS
10
99.54
20
-72.02
11
98.54
21
-72.02
0
LINE
8
BLACK
6
CONTINUOUS
10
98.54
20
-72.02
11
98.54
21
-69.02
0
LINE
8
BLACK
6
CONTINUOUS
10
98.54
20
-69.02
11
99.54
21
-69.02
0
LINE
8
BLACK
6
CONTINUOUS
10
99.54
20
-69.02
11
99.54
21
-72.02
0
LINE
8
BLACK
6
CONTINUOUS
10
87.675
20
-71.875
11
86.975
21
-71.875
0
LINE
8
BLACK
6
CONTINUOUS
10
86.975
20
-71.875
11
86.975
21
-71.625
0
LINE
8
BLACK
6
CONTINUOUS
10
86.975
20
-71.625
11
87.675
21
-71.625
0
LINE
8
BLACK
6
CONTINUOUS
10
87.675
20
-71.625
11
87.675
21
-71.875
0
LINE
8
BLACK
6
CONTINUOUS
10
86.65
20
-71.561
11
86.15
21
-71.561
0
LINE
8
BLACK
6
CONTINUOUS
10
86.15
20
-71.561
11
86.15
21
-70.971
0
LINE
8
BLACK
6
CONTINUOUS
10
86.15
20
-70.971
11
86.65
21
-70.971
0
LINE
8
BLACK
6
CONTINUOUS
10
86.65
20
-70.971
11
86.65
21
-71.561
0
LINE
8
BLACK
6
CONTINUOUS
10
85.825
20
-71.375
11
85.125
21
-71.375
0
LINE
8
BLACK
6
CONTINUOUS
10
85.125
20
-71.375
11
85.125
21
-71.125
0
LINE
8
BLACK
6
CONTINUOUS
10
85.125
20
-71.125
11
85.825
21
-71.125
0
LINE
8
BLACK
6
CONTINUOUS
10
85.825
20
-71.125
11
85.825
21
-71.375
0
LINE
8
BLACK
6
CONTINUOUS
10
87.675
20
-71.375
11
86.975
21
-71.375
0
LINE
8
BLACK
6
CONTINUOUS
10
86.975
20
-71.375
11
86.975
21
-71.125
0
LINE
8
BLACK
6
CONTINUOUS
10
86.975
20
-71.125
11
87.675
21
-71.125
0
LINE
8
BLACK
6
CONTINUOUS
10
87.675
20
-71.125
11
87.675
21
-71.375
0
LINE
8
BLACK
6
CONTINUOUS
10
87.25
20
-66.095
11
87.2535
21
-66.0965
0
LINE
8
BLACK
6
CONTINUOUS
10
87.2535
20
-66.0965
11
87.255
21
-66.1
0
LINE
8
BLACK
6
CONTINUOUS
10
87.255
20
-66.1
11
87.255
21
-68.1
0
LINE
8
BLACK
6
CONTINUOUS
10
87.255
20
-68.1
11
87.2535
21
-68.1035
0
LINE
8
BLACK
6
CONTINUOUS
10
87.2535
20
-68.1035
11
87.25
21
-68.105
0
LINE
8
BLACK
6
CONTINUOUS
10
87.25
20
-68.105
11
86.25
21
-68.105
0
LINE
8
BLACK
6
CONTINUOUS
10
86.25
20
-68.105
11
86.2465
21
-68.1035
0
LINE
8
BLACK
6
CONTINUOUS
10
86.2465
20
-68.1035
11
86.245
21
-68.1
0
LINE
8
BLACK
6
CONTINUOUS
10
86.245
20
-68.1
11
86.245
21
-67.605
0
LINE
8
BLACK
6
CONTINUOUS
10
86.245
20
-67.605
11
85.15
21
-67.605
0
LINE
8
BLACK
6
CONTINUOUS
10
85.15
20
-67.605
11
85.1465
21
-67.6035
0
LINE
8
BLACK
6
CONTINUOUS
10
85.1465
20
-67.6035
11
85.145
21
-67.6
0
LINE
8
BLACK
6
CONTINUOUS
10
85.145
20
-67.6
11
85.145
21
-66.6
0
LINE
8
BLACK
6
CONTINUOUS
10
85.145
20
-66.6
11
85.1465
21
-66.5965
0
LINE
8
BLACK
6
CONTINUOUS
10
85.1465
20
-66.5965
11
85.15
21
-66.595
0
LINE
8
BLACK
6
CONTINUOUS
10
85.15
20
-66.595
11
86.245
21
-66.595
0
LINE
8
BLACK
6
CONTINUOUS
10
86.245
20
-66.595
11
86.245
21
-66.1
0
LINE
8
BLACK
6
CONTINUOUS
10
86.245
20
-66.1
11
86.2465
21
-66.0965
0
LINE
8
BLACK
6
CONTINUOUS
10
86.2465
20
-66.0965
11
86.25
21
-66.095
0
LINE
8
BLACK
6
CONTINUOUS
10
86.25
20
-66.095
11
87.25
21
-66.095
0
LINE
8
BLACK
6
CONTINUOUS
10
89.55
20
-66.095
11
89.5535
21
-66.0965
0
LINE
8
BLACK
6
CONTINUOUS
10
89.5535
20
-66.0965
11
89.555
21
-66.1
0
LINE
8
BLACK
6
CONTINUOUS
10
89.555
20
-66.1
11
89.555
21
-66.595
0
LINE
8
BLACK
6
CONTINUOUS
10
89.555
20
-66.595
11
90.65
21
-66.595
0
LINE
8
BLACK
6
CONTINUOUS
10
90.65
20
-66.595
11
90.6535
21
-66.5965
0
LINE
8
BLACK
6
CONTINUOUS
10
90.6535
20
-66.5965
11
90.655
21
-66.6
0
LINE
8
BLACK
6
CONTINUOUS
10
90.655
20
-66.6
11
90.655
21
-67.6
0
LINE
8
BLACK
6
CONTINUOUS
10
90.655
20
-67.6
11
90.6535
21
-67.6035
0
LINE
8
BLACK
6
CONTINUOUS
10
90.6535
20
-67.6035
11
90.65
21
-67.605
0
LINE
8
BLACK
6
CONTINUOUS
10
90.65
20
-67.605
11
89.555
21
-67.605
0
LINE
8
BLACK
6
CONTINUOUS
10
89.555
20
-67.605
11
89.555
21
-68.1
0
LINE
8
BLACK
6
CONTINUOUS
10
89.555
20
-68.1
11
89.5535
21
-68.1035
0
LINE
8
BLACK
6
CONTINUOUS
10
89.5535
20
-68.1035
11
89.55
21
-68.105
0
LINE
8
BLACK
6
CONTINUOUS
10
89.55
20
-68.105
11
88.55
21
-68.105
0
LINE
8
BLACK
6
CONTINUOUS
10
88.55
20
-68.105
11
88.5465
21
-68.1035
0
LINE
8
BLACK
6
CONTINUOUS
10
88.5465
20
-68.1035
11
88.545
21
-68.1
0
LINE
8
BLACK
6
CONTINUOUS
10
88.545
20
-68.1
11
88.545
21
-66.1
0
LINE
8
BLACK
6
CONTINUOUS
10
88.545
20
-66.1
11
88.5465
21
-66.0965
0
LINE
8
BLACK
6
CONTINUOUS
10
88.5465
20
-66.0965
11
88.55
21
-66.095
0
LINE
8
BLACK
6
CONTINUOUS
10
88.55
20
-66.095
11
89.55
21
-66.095
0
LINE
8
BLACK
6
CONTINUOUS
10
94.46
20
-66.98
11
93.46
21
-66.98
0
LINE
8
BLACK
6
CONTINUOUS
10
93.46
20
-66.98
11
93.46
21
-63.98
0
LINE
8
BLACK
6
CONTINUOUS
10
93.46
20
-63.98
11
94.46
21
-63.98
0
LINE
8
BLACK
6
CONTINUOUS
10
94.46
20
-63.98
11
94.46
21
-66.98
0
LINE
8
BLACK
6
CONTINUOUS
10
97
20
-66.98
11
96
21
-66.98
0
LINE
8
BLACK
6
CONTINUOUS
10
96
20
-66.98
11
96
21
-63.98
0
LINE
8
BLACK
6
CONTINUOUS
10
96
20
-63.98
11
97
21
-63.98
0
LINE
8
BLACK
6
CONTINUOUS
10
97
20
-63.98
11
97
21
-66.98
0
LINE
8
BLACK
6
CONTINUOUS
10
99.54
20
-66.98
11
98.54
21
-66.98
0
LINE
8
BLACK
6
CONTINUOUS
10
98.54
20
-66.98
11
98.54
21
-63.98
0
LINE
8
BLACK
6
CONTINUOUS
10
98.54
20
-63.98
11
99.54
21
-63.98
0
LINE
8
BLACK
6
CONTINUOUS
10
99.54
20
-63.98
11
99.54
21
-66.98
0
LINE
8
BLACK
6
CONTINUOUS
10
90.8457
20
-58.719
11
90.9268
21
-58.7732
0
LINE
8
BLACK
6
CONTINUOUS
10
90.9268
20
-58.7732
11
90.981
21
-58.8543
0
LINE
8
BLACK
6
CONTINUOUS
10
90.981
20
-58.8543
11
91
21
-58.95
0
LINE
8
BLACK
6
CONTINUOUS
10
91
20
-58.95
11
91
21
-60.25
0
LINE
8
BLACK
6
CONTINUOUS
10
91
20
-60.25
11
90.981
21
-60.3457
0
LINE
8
BLACK
6
CONTINUOUS
10
90.981
20
-60.3457
11
90.9268
21
-60.4268
0
LINE
8
BLACK
6
CONTINUOUS
10
90.9268
20
-60.4268
11
90.8457
21
-60.481
0
LINE
8
BLACK
6
CONTINUOUS
10
90.8457
20
-60.481
11
90.75
21
-60.5
0
LINE
8
BLACK
6
CONTINUOUS
10
90.75
20
-60.5
11
89.925
21
-60.5
0
LINE
8
BLACK
6
CONTINUOUS
10
89.925
20
-60.5
11
89.8293
21
-60.481
0
LINE
8
BLACK
6
CONTINUOUS
10
89.8293
20
-60.481
11
89.7482
21
-60.4268
0
LINE
8
BLACK
6
CONTINUOUS
10
89.7482
20
-60.4268
11
89.694
21
-60.3457
0
LINE
8
BLACK
6
CONTINUOUS
10
89.694
20
-60.3457
11
89.675
21
-60.25
0
LINE
8
BLACK
6
CONTINUOUS
10
89.675
20
-60.25
11
89.675
21
-58.95
0
LINE
8
BLACK
6
CONTINUOUS
10
89.675
20
-58.95
11
89.694
21
-58.8543
0
LINE
8
BLACK
6
CONTINUOUS
10
89.694
20
-58.8543
11
89.7482
21
-58.7732
0
LINE
8
BLACK
6
CONTINUOUS
10
89.7482
20
-58.7732
11
89.8293
21
-58.719
0
LINE
8
BLACK
6
CONTINUOUS
10
89.8293
20
-58.719
11
89.925
21
-58.7
0
LINE
8
BLACK
6
CONTINUOUS
10
89.925
20
-58.7
11
90.75
21
-58.7
0
LINE
8
BLACK
6
CONTINUOUS
10
90.75
20
-58.7
11
90.8457
21
-58.719
0
LINE
8
BLACK
6
CONTINUOUS
10
93.9707
20
-58.719
11
94.0518
21
-58.7732
0
LINE
8
BLACK
6
CONTINUOUS
10
94.0518
20
-58.7732
11
94.106
21
-58.8543
0
LINE
8
BLACK
6
CONTINUOUS
10
94.106
20
-58.8543
11
94.125
21
-58.95
0
LINE
8
BLACK
6
CONTINUOUS
10
94.125
20
-58.95
11
94.125
21
-60.25
0
LINE
8
BLACK
6
CONTINUOUS
10
94.125
20
-60.25
11
94.106
21
-60.3457
0
LINE
8
BLACK
6
CONTINUOUS
10
94.106
20
-60.3457
11
94.0518
21
-60.4268
0
LINE
8
BLACK
6
CONTINUOUS
10
94.0518
20
-60.4268
11
93.9707
21
-60.481
0
LINE
8
BLACK
6
CONTINUOUS
10
93.9707
20
-60.481
11
93.875
21
-60.5
0
LINE
8
BLACK
6
CONTINUOUS
10
93.875
20
-60.5
11
93.05
21
-60.5
0
LINE
8
BLACK
6
CONTINUOUS
10
93.05
20
-60.5
11
92.9543
21
-60.481
0
LINE
8
BLACK
6
CONTINUOUS
10
92.9543
20
-60.481
11
92.8732
21
-60.4268
0
LINE
8
BLACK
6
CONTINUOUS
10
92.8732
20
-60.4268
11
92.819
21
-60.3457
0
LINE
8
BLACK
6
CONTINUOUS
10
92.819
20
-60.3457
11
92.8
21
-60.25
0
LINE
8
BLACK
6
CONTINUOUS
10
92.8
20
-60.25
11
92.8
21
-58.95
0
LINE
8
BLACK
6
CONTINUOUS
10
92.8
20
-58.95
11
92.819
21
-58.8543
0
LINE
8
BLACK
6
CONTINUOUS
10
92.819
20
-58.8543
11
92.8732
21
-58.7732
0
LINE
8
BLACK
6
CONTINUOUS
10
92.8732
20
-58.7732
11
92.9543
21
-58.719
0
LINE
8
BLACK
6
CONTINUOUS
10
92.9543
20
-58.719
11
93.05
21
-58.7
0
LINE
8
BLACK
6
CONTINUOUS
10
93.05
20
-58.7
11
93.875
21
-58.7
0
LINE
8
BLACK
6
CONTINUOUS
10
93.875
20
-58.7
11
93.9707
21
-58.719
0
LINE
8
BLACK
6
CONTINUOUS
10
98.3707
20
-57.969
11
98.4518
21
-58.0232
0
LINE
8
BLACK
6
CONTINUOUS
10
98.4518
20
-58.0232
11
98.506
21
-58.1043
0
LINE
8
BLACK
6
CONTINUOUS
10
98.506
20
-58.1043
11
98.525
21
-58.2
0
LINE
8
BLACK
6
CONTINUOUS
10
98.525
20
-58.2
11
98.525
21
-58.875
0
LINE
8
BLACK
6
CONTINUOUS
10
98.525
20
-58.875
11
98.506
21
-58.9707
0
LINE
8
BLACK
6
CONTINUOUS
10
98.506
20
-58.9707
11
98.4518
21
-59.0518
0
LINE
8
BLACK
6
CONTINUOUS
10
98.4518
20
-59.0518
11
98.3707
21
-59.106
0
LINE
8
BLACK
6
CONTINUOUS
10
98.3707
20
-59.106
11
98.275
21
-59.125
0
LINE
8
BLACK
6
CONTINUOUS
10
98.275
20
-59.125
11
97.325
21
-59.125
0
LINE
8
BLACK
6
CONTINUOUS
10
97.325
20
-59.125
11
97.2293
21
-59.106
0
LINE
8
BLACK
6
CONTINUOUS
10
97.2293
20
-59.106
11
97.1482
21
-59.0518
0
LINE
8
BLACK
6
CONTINUOUS
10
97.1482
20
-59.0518
11
97.094
21
-58.9707
0
LINE
8
BLACK
6
CONTINUOUS
10
97.094
20
-58.9707
11
97.075
21
-58.875
0
LINE
8
BLACK
6
CONTINUOUS
10
97.075
20
-58.875
11
97.075
21
-58.2
0
LINE
8
BLACK
6
CONTINUOUS
10
97.075
20
-58.2
11
97.094
21
-58.1043
0
LINE
8
BLACK
6
CONTINUOUS
10
97.094
20
-58.1043
11
97.1482
21
-58.0232
0
LINE
8
BLACK
6
CONTINUOUS
10
97.1482
20
-58.0232
11
97.2293
21
-57.969
0
LINE
8
BLACK
6
CONTINUOUS
10
97.2293
20
-57.969
11
97.325
21
-57.95
0
LINE
8
BLACK
6
CONTINUOUS
10
97.325
20
-57.95
11
98.275
21
-57.95
0
LINE
8
BLACK
6
CONTINUOUS
10
98.275
20
-57.95
11
98.3707
21
-57.969
0
LINE
8
BLACK
6
CONTINUOUS
10
98.3707
20
-55.894
11
98.4518
21
-55.9482
0
LINE
8
BLACK
6
CONTINUOUS
10
98.4518
20
-55.9482
11
98.506
21
-56.0293
0
LINE
8
BLACK
6
CONTINUOUS
10
98.506
20
-56.0293
11
98.525
21
-56.125
0
LINE
8
BLACK
6
CONTINUOUS
10
98.525
20
-56.125
11
98.525
21
-56.8
0
LINE
8
BLACK
6
CONTINUOUS
10
98.525
20
-56.8
11
98.506
21
-56.8957
0
LINE
8
BLACK
6
CONTINUOUS
10
98.506
20
-56.8957
11
98.4518
21
-56.9768
0
LINE
8
BLACK
6
CONTINUOUS
10
98.4518
20
-56.9768
11
98.3707
21
-57.031
0
LINE
8
BLACK
6
CONTINUOUS
10
98.3707
20
-57.031
11
98.275
21
-57.05
0
LINE
8
BLACK
6
CONTINUOUS
10
98.275
20
-57.05
11
97.325
21
-57.05
0
LINE
8
BLACK
6
CONTINUOUS
10
97.325
20
-57.05
11
97.2293
21
-57.031
0
LINE
8
BLACK
6
CONTINUOUS
10
97.2293
20
-57.031
11
97.1482
21
-56.9768
0
LINE
8
BLACK
6
CONTINUOUS
10
97.1482
20
-56.9768
11
97.094
21
-56.8957
0
LINE
8
BLACK
6
CONTINUOUS
10
97.094
20
-56.8957
11
97.075
21
-56.8
0
LINE
8
BLACK
6
CONTINUOUS
10
97.075
20
-56.8
11
97.075
21
-56.125
0
LINE
8
BLACK
6
CONTINUOUS
10
97.075
20
-56.125
11
97.094
21
-56.0293
0
LINE
8
BLACK
6
CONTINUOUS
10
97.094
20
-56.0293
11
97.1482
21
-55.9482
0
LINE
8
BLACK
6
CONTINUOUS
10
97.1482
20
-55.9482
11
97.2293
21
-55.894
0
LINE
8
BLACK
6
CONTINUOUS
10
97.2293
20
-55.894
11
97.325
21
-55.875
0
LINE
8
BLACK
6
CONTINUOUS
10
97.325
20
-55.875
11
98.275
21
-55.875
0
LINE
8
BLACK
6
CONTINUOUS
10
98.275
20
-55.875
11
98.3707
21
-55.894
0
LINE
8
BLACK
6
CONTINUOUS
10
93.3074
20
-54.4164
11
93.3561
21
-54.4489
0
LINE
8
BLACK
6
CONTINUOUS
10
93.3561
20
-54.4489
11
93.3886
21
-54.4976
0
LINE
8
BLACK
6
CONTINUOUS
10
93.3886
20
-54.4976
11
93.4
21
-54.555
0
LINE
8
BLACK
6
CONTINUOUS
10
93.4
20
-54.555
11
93.4
21
-54.855
0
LINE
8
BLACK
6
CONTINUOUS
10
93.4
20
-54.855
11
93.3886
21
-54.9124
0
LINE
8
BLACK
6
CONTINUOUS
10
93.3886
20
-54.9124
11
93.3561
21
-54.9611
0
LINE
8
BLACK
6
CONTINUOUS
10
93.3561
20
-54.9611
11
93.3074
21
-54.9936
0
LINE
8
BLACK
6
CONTINUOUS
10
93.3074
20
-54.9936
11
93.25
21
-55.005
0
LINE
8
BLACK
6
CONTINUOUS
10
93.25
20
-55.005
11
91.6
21
-55.005
0
LINE
8
BLACK
6
CONTINUOUS
10
91.6
20
-55.005
11
91.5426
21
-54.9936
0
LINE
8
BLACK
6
CONTINUOUS
10
91.5426
20
-54.9936
11
91.4939
21
-54.9611
0
LINE
8
BLACK
6
CONTINUOUS
10
91.4939
20
-54.9611
11
91.4614
21
-54.9124
0
LINE
8
BLACK
6
CONTINUOUS
10
91.4614
20
-54.9124
11
91.45
21
-54.855
0
LINE
8
BLACK
6
CONTINUOUS
10
91.45
20
-54.855
11
91.45
21
-54.555
0
LINE
8
BLACK
6
CONTINUOUS
10
91.45
20
-54.555
11
91.4614
21
-54.4976
0
LINE
8
BLACK
6
CONTINUOUS
10
91.4614
20
-54.4976
11
91.4939
21
-54.4489
0
LINE
8
BLACK
6
CONTINUOUS
10
91.4939
20
-54.4489
11
91.5426
21
-54.4164
0
LINE
8
BLACK
6
CONTINUOUS
10
91.5426
20
-54.4164
11
91.6
21
-54.405
0
LINE
8
BLACK
6
CONTINUOUS
10
91.6
20
-54.405
11
93.25
21
-54.405
0
LINE
8
BLACK
6
CONTINUOUS
10
93.25
20
-54.405
11
93.3074
21
-54.4164
0
LINE
8
BLACK
6
CONTINUOUS
10
98.2574
20
-54.4164
11
98.3061
21
-54.4489
0
LINE
8
BLACK
6
CONTINUOUS
10
98.3061
20
-54.4489
11
98.3386
21
-54.4976
0
LINE
8
BLACK
6
CONTINUOUS
10
98.3386
20
-54.4976
11
98.35
21
-54.555
0
LINE
8
BLACK
6
CONTINUOUS
10
98.35
20
-54.555
11
98.35
21
-54.855
0
LINE
8
BLACK
6
CONTINUOUS
10
98.35
20
-54.855
11
98.3386
21
-54.9124
0
LINE
8
BLACK
6
CONTINUOUS
10
98.3386
20
-54.9124
11
98.3061
21
-54.9611
0
LINE
8
BLACK
6
CONTINUOUS
10
98.3061
20
-54.9611
11
98.2574
21
-54.9936
0
LINE
8
BLACK
6
CONTINUOUS
10
98.2574
20
-54.9936
11
98.2
21
-55.005
0
LINE
8
BLACK
6
CONTINUOUS
10
98.2
20
-55.005
11
96.55
21
-55.005
0
LINE
8
BLACK
6
CONTINUOUS
10
96.55
20
-55.005
11
96.4926
21
-54.9936
0
LINE
8
BLACK
6
CONTINUOUS
10
96.4926
20
-54.9936
11
96.4439
21
-54.9611
0
LINE
8
BLACK
6
CONTINUOUS
10
96.4439
20
-54.9611
11
96.4114
21
-54.9124
0
LINE
8
BLACK
6
CONTINUOUS
10
96.4114
20
-54.9124
11
96.4
21
-54.855
0
LINE
8
BLACK
6
CONTINUOUS
10
96.4
20
-54.855
11
96.4
21
-54.555
0
LINE
8
BLACK
6
CONTINUOUS
10
96.4
20
-54.555
11
96.4114
21
-54.4976
0
LINE
8
BLACK
6
CONTINUOUS
10
96.4114
20
-54.4976
11
96.4439
21
-54.4489
0
LINE
8
BLACK
6
CONTINUOUS
10
96.4439
20
-54.4489
11
96.4926
21
-54.4164
0
LINE
8
BLACK
6
CONTINUOUS
10
96.4926
20
-54.4164
11
96.55
21
-54.405
0
LINE
8
BLACK
6
CONTINUOUS
10
96.55
20
-54.405
11
98.2
21
-54.405
0
LINE
8
BLACK
6
CONTINUOUS
10
98.2
20
-54.405
11
98.2574
21
-54.4164
0
LINE
8
BLACK
6
CONTINUOUS
10
100.3
20
-53.95
11
99.3
21
-53.95
0
LINE
8
BLACK
6
CONTINUOUS
10
99.3
20
-53.95
11
99.3
21
-52.95
0
LINE
8
BLACK
6
CONTINUOUS
10
99.3
20
-52.95
11
100.3
21
-52.95
0
LINE
8
BLACK
6
CONTINUOUS
10
100.3
20
-52.95
11
100.3
21
-53.95
0
LINE
8
BLACK
6
CONTINUOUS
10
93.3074
20
-53.1464
11
93.3561
21
-53.1789
0
LINE
8
BLACK
6
CONTINUOUS
10
93.3561
20
-53.1789
11
93.3886
21
-53.2276
0
LINE
8
BLACK
6
CONTINUOUS
10
93.3886
20
-53.2276
11
93.4
21
-53.285
0
LINE
8
BLACK
6
CONTINUOUS
10
93.4
20
-53.285
11
93.4
21
-53.585
0
LINE
8
BLACK
6
CONTINUOUS
10
93.4
20
-53.585
11
93.3886
21
-53.6424
0
LINE
8
BLACK
6
CONTINUOUS
10
93.3886
20
-53.6424
11
93.3561
21
-53.6911
0
LINE
8
BLACK
6
CONTINUOUS
10
93.3561
20
-53.6911
11
93.3074
21
-53.7236
0
LINE
8
BLACK
6
CONTINUOUS
10
93.3074
20
-53.7236
11
93.25
21
-53.735
0
LINE
8
BLACK
6
CONTINUOUS
10
93.25
20
-53.735
11
91.6
21
-53.735
0
LINE
8
BLACK
6
CONTINUOUS
10
91.6
20
-53.735
11
91.5426
21
-53.7236
0
LINE
8
BLACK
6
CONTINUOUS
10
91.5426
20
-53.7236
11
91.4939
21
-53.6911
0
LINE
8
BLACK
6
CONTINUOUS
10
91.4939
20
-53.6911
11
91.4614
21
-53.6424
0
LINE
8
BLACK
6
CONTINUOUS
10
91.4614
20
-53.6424
11
91.45
21
-53.585
0
LINE
8
BLACK
6
CONTINUOUS
10
91.45
20
-53.585
11
91.45
21
-53.285
0
LINE
8
BLACK
6
CONTINUOUS
10
91.45
20
-53.285
11
91.4614
21
-53.2276
0
LINE
8
BLACK
6
CONTINUOUS
10
91.4614
20
-53.2276
11
91.4939
21
-53.1789
0
LINE
8
BLACK
6
CONTINUOUS
10
91.4939
20
-53.1789
11
91.5426
21
-53.1464
0
LINE
8
BLACK
6
CONTINUOUS
10
91.5426
20
-53.1464
11
91.6
21
-53.135
0
LINE
8
BLACK
6
CONTINUOUS
10
91.6
20
-53.135
11
93.25
21
-53.135
0
LINE
8
BLACK
6
CONTINUOUS
10
93.25
20
-53.135
11
93.3074
21
-53.1464
0
LINE
8
BLACK
6
CONTINUOUS
10
98.2574
20
-53.1464
11
98.3061
21
-53.1789
0
LINE
8
BLACK
6
CONTINUOUS
10
98.3061
20
-53.1789
11
98.3386
21
-53.2276
0
LINE
8
BLACK
6
CONTINUOUS
10
98.3386
20
-53.2276
11
98.35
21
-53.285
0
LINE
8
BLACK
6
CONTINUOUS
10
98.35
20
-53.285
11
98.35
21
-53.585
0
LINE
8
BLACK
6
CONTINUOUS
10
98.35
20
-53.585
11
98.3386
21
-53.6424
0
LINE
8
BLACK
6
CONTINUOUS
10
98.3386
20
-53.6424
11
98.3061
21
-53.6911
0
LINE
8
BLACK
6
CONTINUOUS
10
98.3061
20
-53.6911
11
98.2574
21
-53.7236
0
LINE
8
BLACK
6
CONTINUOUS
10
98.2574
20
-53.7236
11
98.2
21
-53.735
0
LINE
8
BLACK
6
CONTINUOUS
10
98.2
20
-53.735
11
96.55
21
-53.735
0
LINE
8
BLACK
6
CONTINUOUS
10
96.55
20
-53.735
11
96.4926
21
-53.7236
0
LINE
8
BLACK
6
CONTINUOUS
10
96.4926
20
-53.7236
11
96.4439
21
-53.6911
0
LINE
8
BLACK
6
CONTINUOUS
10
96.4439
20
-53.6911
11
96.4114
21
-53.6424
0
LINE
8
BLACK
6
CONTINUOUS
10
96.4114
20
-53.6424
11
96.4
21
-53.585
0
LINE
8
BLACK
6
CONTINUOUS
10
96.4
20
-53.585
11
96.4
21
-53.285
0
LINE
8
BLACK
6
CONTINUOUS
10
96.4
20
-53.285
11
96.4114
21
-53.2276
0
LINE
8
BLACK
6
CONTINUOUS
10
96.4114
20
-53.2276
11
96.4439
21
-53.1789
0
LINE
8
BLACK
6
CONTINUOUS
10
96.4439
20
-53.1789
11
96.4926
21
-53.1464
0
LINE
8
BLACK
6
CONTINUOUS
10
96.4926
20
-53.1464
11
96.55
21
-53.135
0
LINE
8
BLACK
6
CONTINUOUS
10
96.55
20
-53.135
11
98.2
21
-53.135
0
LINE
8
BLACK
6
CONTINUOUS
10
98.2
20
-53.135
11
98.2574
21
-53.1464
0
LINE
8
BLACK
6
CONTINUOUS
10
93.3074
20
-51.8764
11
93.3561
21
-51.9089
0
LINE
8
BLACK
6
CONTINUOUS
10
93.3561
20
-51.9089
11
93.3886
21
-51.9576
0
LINE
8
BLACK
6
CONTINUOUS
10
93.3886
20
-51.9576
11
93.4
21
-52.015
0
LINE
8
BLACK
6
CONTINUOUS
10
93.4
20
-52.015
11
93.4
21
-52.315
0
LINE
8
BLACK
6
CONTINUOUS
10
93.4
20
-52.315
11
93.3886
21
-52.3724
0
LINE
8
BLACK
6
CONTINUOUS
10
93.3886
20
-52.3724
11
93.3561
21
-52.4211
0
LINE
8
BLACK
6
CONTINUOUS
10
93.3561
20
-52.4211
11
93.3074
21
-52.4536
0
LINE
8
BLACK
6
CONTINUOUS
10
93.3074
20
-52.4536
11
93.25
21
-52.465
0
LINE
8
BLACK
6
CONTINUOUS
10
93.25
20
-52.465
11
91.6
21
-52.465
0
LINE
8
BLACK
6
CONTINUOUS
10
91.6
20
-52.465
11
91.5426
21
-52.4536
0
LINE
8
BLACK
6
CONTINUOUS
10
91.5426
20
-52.4536
11
91.4939
21
-52.4211
0
LINE
8
BLACK
6
CONTINUOUS
10
91.4939
20
-52.4211
11
91.4614
21
-52.3724
0
LINE
8
BLACK
6
CONTINUOUS
10
91.4614
20
-52.3724
11
91.45
21
-52.315
0
LINE
8
BLACK
6
CONTINUOUS
10
91.45
20
-52.315
11
91.45
21
-52.015
0
LINE
8
BLACK
6
CONTINUOUS
10
91.45
20
-52.015
11
91.4614
21
-51.9576
0
LINE
8
BLACK
6
CONTINUOUS
10
91.4614
20
-51.9576
11
91.4939
21
-51.9089
0
LINE
8
BLACK
6
CONTINUOUS
10
91.4939
20
-51.9089
11
91.5426
21
-51.8764
0
LINE
8
BLACK
6
CONTINUOUS
10
91.5426
20
-51.8764
11
91.6
21
-51.865
0
LINE
8
BLACK
6
CONTINUOUS
10
91.6
20
-51.865
11
93.25
21
-51.865
0
LINE
8
BLACK
6
CONTINUOUS
10
93.25
20
-51.865
11
93.3074
21
-51.8764
0
LINE
8
BLACK
6
CONTINUOUS
10
98.2574
20
-51.8764
11
98.3061
21
-51.9089
0
LINE
8
BLACK
6
CONTINUOUS
10
98.3061
20
-51.9089
11
98.3386
21
-51.9576
0
LINE
8
BLACK
6
CONTINUOUS
10
98.3386
20
-51.9576
11
98.35
21
-52.015
0
LINE
8
BLACK
6
CONTINUOUS
10
98.35
20
-52.015
11
98.35
21
-52.315
0
LINE
8
BLACK
6
CONTINUOUS
10
98.35
20
-52.315
11
98.3386
21
-52.3724
0
LINE
8
BLACK
6
CONTINUOUS
10
98.3386
20
-52.3724
11
98.3061
21
-52.4211
0
LINE
8
BLACK
6
CONTINUOUS
10
98.3061
20
-52.4211
11
98.2574
21
-52.4536
0
LINE
8
BLACK
6
CONTINUOUS
10
98.2574
20
-52.4536
11
98.2
21
-52.465
0
LINE
8
BLACK
6
CONTINUOUS
10
98.2
20
-52.465
11
96.55
21
-52.465
0
LINE
8
BLACK
6
CONTINUOUS
10
96.55
20
-52.465
11
96.4926
21
-52.4536
0
LINE
8
BLACK
6
CONTINUOUS
10
96.4926
20
-52.4536
11
96.4439
21
-52.4211
0
LINE
8
BLACK
6
CONTINUOUS
10
96.4439
20
-52.4211
11
96.4114
21
-52.3724
0
LINE
8
BLACK
6
CONTINUOUS
10
96.4114
20
-52.3724
11
96.4
21
-52.315
0
LINE
8
BLACK
6
CONTINUOUS
10
96.4
20
-52.315
11
96.4
21
-52.015
0
LINE
8
BLACK
6
CONTINUOUS
10
96.4
20
-52.015
11
96.4114
21
-51.9576
0
LINE
8
BLACK
6
CONTINUOUS
10
96.4114
20
-51.9576
11
96.4439
21
-51.9089
0
LINE
8
BLACK
6
CONTINUOUS
10
96.4439
20
-51.9089
11
96.4926
21
-51.8764
0
LINE
8
BLACK
6
CONTINUOUS
10
96.4926
20
-51.8764
11
96.55
21
-51.865
0
LINE
8
BLACK
6
CONTINUOUS
10
96.55
20
-51.865
11
98.2
21
-51.865
0
LINE
8
BLACK
6
CONTINUOUS
10
98.2
20
-51.865
11
98.2574
21
-51.8764
0
LINE
8
BLACK
6
CONTINUOUS
10
100.3
20
-52.25
11
99.3
21
-52.25
0
LINE
8
BLACK
6
CONTINUOUS
10
99.3
20
-52.25
11
99.3
21
-51.25
0
LINE
8
BLACK
6
CONTINUOUS
10
99.3
20
-51.25
11
100.3
21
-51.25
0
LINE
8
BLACK
6
CONTINUOUS
10
100.3
20
-51.25
11
100.3
21
-52.25
0
LINE
8
BLACK
6
CONTINUOUS
10
93.3074
20
-50.6064
11
93.3561
21
-50.6389
0
LINE
8
BLACK
6
CONTINUOUS
10
93.3561
20
-50.6389
11
93.3886
21
-50.6876
0
LINE
8
BLACK
6
CONTINUOUS
10
93.3886
20
-50.6876
11
93.4
21
-50.745
0
LINE
8
BLACK
6
CONTINUOUS
10
93.4
20
-50.745
11
93.4
21
-51.045
0
LINE
8
BLACK
6
CONTINUOUS
10
93.4
20
-51.045
11
93.3886
21
-51.1024
0
LINE
8
BLACK
6
CONTINUOUS
10
93.3886
20
-51.1024
11
93.3561
21
-51.1511
0
LINE
8
BLACK
6
CONTINUOUS
10
93.3561
20
-51.1511
11
93.3074
21
-51.1836
0
LINE
8
BLACK
6
CONTINUOUS
10
93.3074
20
-51.1836
11
93.25
21
-51.195
0
LINE
8
BLACK
6
CONTINUOUS
10
93.25
20
-51.195
11
91.6
21
-51.195
0
LINE
8
BLACK
6
CONTINUOUS
10
91.6
20
-51.195
11
91.5426
21
-51.1836
0
LINE
8
BLACK
6
CONTINUOUS
10
91.5426
20
-51.1836
11
91.4939
21
-51.1511
0
LINE
8
BLACK
6
CONTINUOUS
10
91.4939
20
-51.1511
11
91.4614
21
-51.1024
0
LINE
8
BLACK
6
CONTINUOUS
10
91.4614
20
-51.1024
11
91.45
21
-51.045
0
LINE
8
BLACK
6
CONTINUOUS
10
91.45
20
-51.045
11
91.45
21
-50.745
0
LINE
8
BLACK
6
CONTINUOUS
10
91.45
20
-50.745
11
91.4614
21
-50.6876
0
LINE
8
BLACK
6
CONTINUOUS
10
91.4614
20
-50.6876
11
91.4939
21
-50.6389
0
LINE
8
BLACK
6
CONTINUOUS
10
91.4939
20
-50.6389
11
91.5426
21
-50.6064
0
LINE
8
BLACK
6
CONTINUOUS
10
91.5426
20
-50.6064
11
91.6
21
-50.595
0
LINE
8
BLACK
6
CONTINUOUS
10
91.6
20
-50.595
11
93.25
21
-50.595
0
LINE
8
BLACK
6
CONTINUOUS
10
93.25
20
-50.595
11
93.3074
21
-50.6064
0
LINE
8
BLACK
6
CONTINUOUS
10
98.2574
20
-50.6064
11
98.3061
21
-50.6389
0
LINE
8
BLACK
6
CONTINUOUS
10
98.3061
20
-50.6389
11
98.3386
21
-50.6876
0
LINE
8
BLACK
6
CONTINUOUS
10
98.3386
20
-50.6876
11
98.35
21
-50.745
0
LINE
8
BLACK
6
CONTINUOUS
10
98.35
20
-50.745
11
98.35
21
-51.045
0
LINE
8
BLACK
6
CONTINUOUS
10
98.35
20
-51.045
11
98.3386
21
-51.1024
0
LINE
8
BLACK
6
CONTINUOUS
10
98.3386
20
-51.1024
11
98.3061
21
-51.1511
0
LINE
8
BLACK
6
CONTINUOUS
10
98.3061
20
-51.1511
11
98.2574
21
-51.1836
0
LINE
8
BLACK
6
CONTINUOUS
10
98.2574
20
-51.1836
11
98.2
21
-51.195
0
LINE
8
BLACK
6
CONTINUOUS
10
98.2
20
-51.195
11
96.55
21
-51.195
0
LINE
8
BLACK
6
CONTINUOUS
10
96.55
20
-51.195
11
96.4926
21
-51.1836
0
LINE
8
BLACK
6
CONTINUOUS
10
96.4926
20
-51.1836
11
96.4439
21
-51.1511
0
LINE
8
BLACK
6
CONTINUOUS
10
96.4439
20
-51.1511
11
96.4114
21
-51.1024
0
LINE
8
BLACK
6
CONTINUOUS
10
96.4114
20
-51.1024
11
96.4
21
-51.045
0
LINE
8
BLACK
6
CONTINUOUS
10
96.4
20
-51.045
11
96.4
21
-50.745
0
LINE
8
BLACK
6
CONTINUOUS
10
96.4
20
-50.745
11
96.4114
21
-50.6876
0
LINE
8
BLACK
6
CONTINUOUS
10
96.4114
20
-50.6876
11
96.4439
21
-50.6389
0
LINE
8
BLACK
6
CONTINUOUS
10
96.4439
20
-50.6389
11
96.4926
21
-50.6064
0
LINE
8
BLACK
6
CONTINUOUS
10
96.4926
20
-50.6064
11
96.55
21
-50.595
0
LINE
8
BLACK
6
CONTINUOUS
10
96.55
20
-50.595
11
98.2
21
-50.595
0
LINE
8
BLACK
6
CONTINUOUS
10
98.2
20
-50.595
11
98.2574
21
-50.6064
  0
ENDSEC
  0
EOF
