G04 #@! TF.GenerationSoftware,KiCad,Pcbnew,7.0.2.1-36-g582732918d-dirty-deb11*
G04 #@! TF.CreationDate,2023-05-26T14:27:15+00:00*
G04 #@! TF.ProjectId,stencil,7374656e-6369-46c2-9e6b-696361645f70,rev?*
G04 #@! TF.SameCoordinates,Original*
G04 #@! TF.FileFunction,Paste,Top*
G04 #@! TF.FilePolarity,Positive*
%FSLAX46Y46*%
G04 Gerber Fmt 4.6, Leading zero omitted, Abs format (unit mm)*
G04 Created by KiCad (PCBNEW 7.0.2.1-36-g582732918d-dirty-deb11) date 2023-05-26 14:27:15*
%MOMM*%
%LPD*%
G01*
G04 APERTURE LIST*
G04 Aperture macros list*
%AMRotRect*
0 Rectangle, with rotation*
0 The origin of the aperture is its center*
0 $1 length*
0 $2 width*
0 $3 Rotation angle, in degrees counterclockwise*
0 Add horizontal line*
21,1,$1,$2,0,0,$3*%
G04 Aperture macros list end*
%ADD10C,0.500000*%
%ADD11C,1.000000*%
%ADD12C,1.050000*%
%ADD13RotRect,0.830000X0.750000X300.000000*%
%ADD14RotRect,0.830000X0.500000X300.000000*%
%ADD15R,0.830000X0.750000*%
%ADD16R,0.830000X0.500000*%
%ADD17RotRect,0.830000X0.750000X120.000000*%
%ADD18RotRect,0.830000X0.500000X120.000000*%
%ADD19RotRect,0.830000X0.750000X60.000000*%
%ADD20RotRect,0.830000X0.500000X60.000000*%
%ADD21RotRect,0.830000X0.750000X240.000000*%
%ADD22RotRect,0.830000X0.500000X240.000000*%
G04 APERTURE END LIST*
D10*
X-108000000Y-63142852D02*
X-108000000Y-73571423D01*
X116000000Y23857145D02*
X116000000Y13428574D01*
X116000000Y36285716D02*
X116000000Y25857145D01*
X-107500000Y-62642852D02*
G75*
G03*
X-108000000Y-63142852I1J-500001D01*
G01*
X116000000Y86000000D02*
G75*
G03*
X115000000Y87000000I-1000000J0D01*
G01*
X66722200Y-86500000D02*
G75*
G03*
X67222216Y-87000000I500000J0D01*
G01*
D11*
X58875000Y83750000D02*
G75*
G03*
X58875000Y83750000I-500000J0D01*
G01*
D10*
X-94555556Y87000000D02*
X-84111112Y87000000D01*
X-107500000Y-37785710D02*
G75*
G03*
X-108000000Y-38285710I1J-500001D01*
G01*
X-108000000Y23857145D02*
X-108000000Y13428574D01*
X-107500000Y74071429D02*
G75*
G03*
X-108000000Y73571429I1J-500001D01*
G01*
X104555548Y-87000000D02*
X114999992Y-87000000D01*
X115999958Y61142858D02*
G75*
G03*
X115500000Y61642858I-499958J42D01*
G01*
X116000000Y-999997D02*
X116000000Y-11428568D01*
X115999977Y-75571423D02*
G75*
G03*
X115500000Y-75071423I-499977J23D01*
G01*
X92111104Y-87000000D02*
X102555548Y-87000000D01*
X115500000Y37785700D02*
G75*
G03*
X116000000Y38285716I0J500000D01*
G01*
X115500000Y-74071400D02*
G75*
G03*
X116000000Y-73571423I0J500000D01*
G01*
X15444440Y-87000040D02*
G75*
G03*
X15944440Y-86500000I-40J500040D01*
G01*
X65722200Y86500000D02*
G75*
G03*
X65222216Y87000000I-500000J0D01*
G01*
X-107500000Y49214287D02*
G75*
G03*
X-108000000Y48714287I1J-500001D01*
G01*
X115500000Y-24357100D02*
G75*
G03*
X116000000Y-23857139I0J500000D01*
G01*
X116000000Y73571429D02*
X116000000Y63142858D01*
X-108000000Y25857145D02*
G75*
G03*
X-107500000Y25357145I500001J1D01*
G01*
X-108000000Y11428574D02*
X-108000000Y1000003D01*
X54277800Y-86500000D02*
G75*
G03*
X54777772Y-87000000I500000J0D01*
G01*
X52777772Y-86999972D02*
G75*
G03*
X53277772Y-86500000I28J499972D01*
G01*
X-44777780Y86999980D02*
G75*
G03*
X-45277780Y86500000I-20J-499980D01*
G01*
X42333328Y87000000D02*
X52777772Y87000000D01*
X-108000000Y-13428568D02*
X-108000000Y-23857139D01*
X-108000000Y-36285710D02*
G75*
G03*
X-107500000Y-36785710I500001J1D01*
G01*
X-57222224Y87000024D02*
G75*
G03*
X-57722224Y86500000I24J-500024D01*
G01*
X-83611112Y86500000D02*
G75*
G03*
X-84111112Y87000000I-500001J-1D01*
G01*
X78166700Y86500000D02*
G75*
G03*
X77666660Y87000000I-500000J0D01*
G01*
X-8944400Y86500000D02*
G75*
G03*
X-9444448Y87000000I-500000J0D01*
G01*
D11*
X-49875000Y83750000D02*
G75*
G03*
X-49875000Y83750000I-500000J0D01*
G01*
D10*
X54777772Y-87000000D02*
X65222216Y-87000000D01*
X27888884Y-86999984D02*
G75*
G03*
X28388884Y-86500000I16J499984D01*
G01*
X-107500000Y-75071423D02*
G75*
G03*
X-108000000Y-75571423I1J-500001D01*
G01*
X-107500000Y-50214281D02*
G75*
G03*
X-108000000Y-50714281I1J-500001D01*
G01*
X15944400Y86500000D02*
G75*
G03*
X15444440Y87000000I-500000J0D01*
G01*
X-32333336Y87000000D02*
X-21888892Y87000000D01*
X-7944400Y-86500000D02*
G75*
G03*
X-7444448Y-87000000I500000J0D01*
G01*
X104055500Y-86500000D02*
G75*
G03*
X104555548Y-87000000I500000J0D01*
G01*
X116000000Y-75571423D02*
X116000000Y-85999994D01*
X-21388900Y86500000D02*
G75*
G03*
X-21888892Y87000000I-500000J0D01*
G01*
X-108000000Y-75571423D02*
X-108000000Y-85999994D01*
X-108000000Y-73571423D02*
G75*
G03*
X-107500000Y-74071423I500001J1D01*
G01*
D11*
X4500000Y83750000D02*
G75*
G03*
X4500000Y83750000I-500000J0D01*
G01*
D10*
X116000000Y-13428568D02*
X116000000Y-23857139D01*
X-107000000Y-87000000D02*
X-96555556Y-87000000D01*
X-107500000Y-12928568D02*
G75*
G03*
X-108000000Y-13428568I1J-500001D01*
G01*
X-107500000Y36785716D02*
G75*
G03*
X-108000000Y36285716I1J-500001D01*
G01*
X-108000000Y-999997D02*
X-108000000Y-11428568D01*
X-45277800Y-86500000D02*
G75*
G03*
X-44777780Y-87000000I500000J0D01*
G01*
X116000016Y36285716D02*
G75*
G03*
X115500000Y36785716I-500016J-16D01*
G01*
X41833300Y-86500000D02*
G75*
G03*
X42333328Y-87000000I500000J0D01*
G01*
X92111104Y87000000D02*
X102555548Y87000000D01*
X116000000Y-50714281D02*
X116000000Y-61142852D01*
X-84111112Y-87000000D02*
G75*
G03*
X-83611112Y-86500000I-1J500001D01*
G01*
X-82111112Y-87000000D02*
X-71666668Y-87000000D01*
X115500000Y12928600D02*
G75*
G03*
X116000000Y13428574I0J500000D01*
G01*
X-46777780Y-87000020D02*
G75*
G03*
X-46277780Y-86500000I-20J500020D01*
G01*
X-94555556Y87000000D02*
G75*
G03*
X-95055556Y86500000I1J-500001D01*
G01*
X-108000000Y61142858D02*
X-108000000Y50714287D01*
X-108000000Y-23857139D02*
G75*
G03*
X-107500000Y-24357139I500001J1D01*
G01*
X-34333336Y-86999964D02*
G75*
G03*
X-33833336Y-86500000I36J499964D01*
G01*
X92111104Y86999996D02*
G75*
G03*
X91611104Y86500000I-4J-499996D01*
G01*
X115500000Y25357100D02*
G75*
G03*
X116000000Y25857145I0J500000D01*
G01*
X115500000Y62642900D02*
G75*
G03*
X116000000Y63142858I0J500000D01*
G01*
X29888884Y87000016D02*
G75*
G03*
X29388884Y86500000I16J-500016D01*
G01*
X91611100Y-86500000D02*
G75*
G03*
X92111104Y-87000000I500000J0D01*
G01*
X-44777780Y87000000D02*
X-34333336Y87000000D01*
X29388900Y-86500000D02*
G75*
G03*
X29888884Y-87000000I500000J0D01*
G01*
D12*
X-104225000Y83750000D02*
G75*
G03*
X-104225000Y83750000I-525000J0D01*
G01*
D10*
X-108000000Y38285716D02*
G75*
G03*
X-107500000Y37785716I500001J1D01*
G01*
X17444440Y-87000000D02*
X27888884Y-87000000D01*
X40333328Y-87000028D02*
G75*
G03*
X40833328Y-86500000I-28J500028D01*
G01*
X79666660Y87000040D02*
G75*
G03*
X79166660Y86500000I40J-500040D01*
G01*
X116000032Y-13428568D02*
G75*
G03*
X115500000Y-12928568I-500032J-32D01*
G01*
D11*
X113250000Y-41875000D02*
G75*
G03*
X113250000Y-41875000I-500000J0D01*
G01*
D10*
X-69666668Y87000000D02*
X-59222224Y87000000D01*
D11*
X58875000Y-83750000D02*
G75*
G03*
X58875000Y-83750000I-500000J0D01*
G01*
D10*
X-21888892Y-87000008D02*
G75*
G03*
X-21388892Y-86500000I-8J500008D01*
G01*
X-69666668Y86999968D02*
G75*
G03*
X-70166668Y86500000I-32J-499968D01*
G01*
X104555548Y87000000D02*
X114999992Y87000000D01*
X-108000000Y48714287D02*
X-108000000Y38285716D01*
X115000000Y-87000000D02*
G75*
G03*
X116000000Y-86000000I0J1000000D01*
G01*
X90611100Y86500000D02*
G75*
G03*
X90111104Y87000000I-500000J0D01*
G01*
X29888884Y87000000D02*
X40333328Y87000000D01*
X65222216Y-87000016D02*
G75*
G03*
X65722216Y-86500000I-16J500016D01*
G01*
X28388900Y86500000D02*
G75*
G03*
X27888884Y87000000I-500000J0D01*
G01*
X-7444448Y-87000000D02*
X2999996Y-87000000D01*
X116000000Y-38285710D02*
X116000000Y-48714281D01*
X-108000000Y75571429D02*
G75*
G03*
X-107500000Y75071429I500001J1D01*
G01*
X-32333336Y87000036D02*
G75*
G03*
X-32833336Y86500000I36J-500036D01*
G01*
X-69666668Y-87000000D02*
X-59222224Y-87000000D01*
X79166700Y-86500000D02*
G75*
G03*
X79666660Y-87000000I500000J0D01*
G01*
X-108000000Y36285716D02*
X-108000000Y25857145D01*
X116000000Y61142858D02*
X116000000Y50714287D01*
X115500000Y-49214300D02*
G75*
G03*
X116000000Y-48714281I0J500000D01*
G01*
X54777772Y87000000D02*
X65222216Y87000000D01*
X29888884Y-87000000D02*
X40333328Y-87000000D01*
X40833300Y86500000D02*
G75*
G03*
X40333328Y87000000I-500000J0D01*
G01*
X-108000000Y-38285710D02*
X-108000000Y-48714281D01*
X-57722200Y-86500000D02*
G75*
G03*
X-57222224Y-87000000I500000J0D01*
G01*
X115999974Y11428574D02*
G75*
G03*
X115500000Y11928574I-499974J26D01*
G01*
X116000000Y-25857139D02*
X116000000Y-36285710D01*
X116000019Y-50714281D02*
G75*
G03*
X115500000Y-50214281I-500019J-19D01*
G01*
X116000000Y-63142852D02*
X116000000Y-73571423D01*
X-108000000Y63142858D02*
G75*
G03*
X-107500000Y62642858I500001J1D01*
G01*
D11*
X-49875000Y-83750000D02*
G75*
G03*
X-49875000Y-83750000I-500000J0D01*
G01*
D10*
X4500000Y-86500000D02*
G75*
G03*
X4999996Y-87000000I500000J0D01*
G01*
X-95055556Y-86500000D02*
G75*
G03*
X-94555556Y-87000000I500001J1D01*
G01*
X-59222224Y-86999976D02*
G75*
G03*
X-58722224Y-86500000I24J499976D01*
G01*
X-82611112Y-86500000D02*
G75*
G03*
X-82111112Y-87000000I500001J1D01*
G01*
X-57222224Y87000000D02*
X-46777780Y87000000D01*
X102555548Y-87000048D02*
G75*
G03*
X103055548Y-86500000I-48J500048D01*
G01*
D11*
X113250000Y0D02*
G75*
G03*
X113250000Y0I-500000J0D01*
G01*
D12*
X113275000Y-83750000D02*
G75*
G03*
X113275000Y-83750000I-525000J0D01*
G01*
D10*
X54777772Y87000028D02*
G75*
G03*
X54277772Y86500000I28J-500028D01*
G01*
X79666660Y-87000000D02*
X90111104Y-87000000D01*
X67222216Y-87000000D02*
X77666660Y-87000000D01*
X-107000000Y87000000D02*
G75*
G03*
X-108000000Y86000000I-1J-999999D01*
G01*
X79666660Y87000000D02*
X90111104Y87000000D01*
X3500000Y86500000D02*
G75*
G03*
X2999996Y87000000I-500000J0D01*
G01*
X2999996Y-86999996D02*
G75*
G03*
X3499996Y-86500000I4J499996D01*
G01*
X-108000000Y73571429D02*
X-108000000Y63142858D01*
X-82111112Y87000000D02*
X-71666668Y87000000D01*
X115500000Y-11928600D02*
G75*
G03*
X116000000Y-11428568I0J500000D01*
G01*
X-9444448Y-86999952D02*
G75*
G03*
X-8944448Y-86500000I48J499952D01*
G01*
X115999990Y-38285710D02*
G75*
G03*
X115500000Y-37785710I-499990J10D01*
G01*
X-20388900Y-86500000D02*
G75*
G03*
X-19888892Y-87000000I500000J0D01*
G01*
X-108000000Y-50714281D02*
X-108000000Y-61142852D01*
X-19888892Y-87000000D02*
X-9444448Y-87000000D01*
X-19888892Y86999992D02*
G75*
G03*
X-20388892Y86500000I-8J-499992D01*
G01*
X67222216Y87000000D02*
X77666660Y87000000D01*
X116000000Y86000000D02*
X116000000Y75571429D01*
X17444440Y87000000D02*
X27888884Y87000000D01*
X-108000000Y1000003D02*
G75*
G03*
X-107500000Y500003I500001J1D01*
G01*
X-96055556Y86500000D02*
G75*
G03*
X-96555556Y87000000I-500001J-1D01*
G01*
X-70166700Y-86500000D02*
G75*
G03*
X-69666668Y-87000000I500000J0D01*
G01*
X53277800Y86500000D02*
G75*
G03*
X52777772Y87000000I-500000J0D01*
G01*
X-58722200Y86500000D02*
G75*
G03*
X-59222224Y87000000I-500000J0D01*
G01*
X-71666668Y-87000032D02*
G75*
G03*
X-71166668Y-86500000I-32J500032D01*
G01*
D11*
X-104250000Y0D02*
G75*
G03*
X-104250000Y0I-500000J0D01*
G01*
D12*
X-104225000Y-83750000D02*
G75*
G03*
X-104225000Y-83750000I-525000J0D01*
G01*
D10*
X-71166700Y86500000D02*
G75*
G03*
X-71666668Y87000000I-500000J0D01*
G01*
X104555548Y86999952D02*
G75*
G03*
X104055548Y86500000I-48J-499952D01*
G01*
X-32333336Y-87000000D02*
X-21888892Y-87000000D01*
X-32833300Y-86500000D02*
G75*
G03*
X-32333336Y-87000000I500000J0D01*
G01*
X-107500000Y-25357139D02*
G75*
G03*
X-108000000Y-25857139I1J-500001D01*
G01*
X77666660Y-86999960D02*
G75*
G03*
X78166660Y-86500000I40J499960D01*
G01*
X67222216Y86999984D02*
G75*
G03*
X66722216Y86500000I-16J-499984D01*
G01*
X-108000000Y-86000000D02*
G75*
G03*
X-107000000Y-87000000I999999J-1D01*
G01*
X115500000Y-36785700D02*
G75*
G03*
X116000000Y-36285710I0J500000D01*
G01*
X-44777780Y-87000000D02*
X-34333336Y-87000000D01*
X-108000000Y-61142852D02*
G75*
G03*
X-107500000Y-61642852I500001J1D01*
G01*
X-19888892Y87000000D02*
X-9444448Y87000000D01*
X-107000000Y87000000D02*
X-96555556Y87000000D01*
D11*
X4500000Y-83750000D02*
G75*
G03*
X4500000Y-83750000I-500000J0D01*
G01*
D10*
X115500000Y-61642900D02*
G75*
G03*
X116000000Y-61142852I0J500000D01*
G01*
X-7444448Y87000000D02*
X2999996Y87000000D01*
X116000048Y-63142852D02*
G75*
G03*
X115500000Y-62642852I-500048J-48D01*
G01*
D12*
X113275000Y83750000D02*
G75*
G03*
X113275000Y83750000I-525000J0D01*
G01*
D10*
X115500000Y50214300D02*
G75*
G03*
X116000000Y50714287I0J500000D01*
G01*
X90111104Y-87000004D02*
G75*
G03*
X90611104Y-86500000I-4J500004D01*
G01*
X42333328Y86999972D02*
G75*
G03*
X41833328Y86500000I-28J-499972D01*
G01*
X4999996Y87000004D02*
G75*
G03*
X4499996Y86500000I4J-500004D01*
G01*
D11*
X113250000Y41875000D02*
G75*
G03*
X113250000Y41875000I-500000J0D01*
G01*
D10*
X-108000000Y13428574D02*
G75*
G03*
X-107500000Y12928574I500001J1D01*
G01*
X-107500000Y61642858D02*
G75*
G03*
X-108000000Y61142858I1J-500001D01*
G01*
X115500000Y500000D02*
G75*
G03*
X116000000Y1000003I0J500000D01*
G01*
X-7444448Y87000048D02*
G75*
G03*
X-7944448Y86500000I48J-500048D01*
G01*
X4999996Y87000000D02*
X15444440Y87000000D01*
X4999996Y-87000000D02*
X15444440Y-87000000D01*
X16944400Y-86500000D02*
G75*
G03*
X17444440Y-87000000I500000J0D01*
G01*
X-107500000Y24357145D02*
G75*
G03*
X-108000000Y23857145I1J-500001D01*
G01*
D11*
X-104250000Y-41875000D02*
G75*
G03*
X-104250000Y-41875000I-500000J0D01*
G01*
D10*
X-108000000Y-25857139D02*
X-108000000Y-36285710D01*
X42333328Y-87000000D02*
X52777772Y-87000000D01*
X-107500000Y-499997D02*
G75*
G03*
X-108000000Y-999997I1J-500001D01*
G01*
X116000000Y11428574D02*
X116000000Y1000003D01*
X-46277800Y86500000D02*
G75*
G03*
X-46777780Y87000000I-500000J0D01*
G01*
X-57222224Y-87000000D02*
X-46777780Y-87000000D01*
X116000000Y48714287D02*
X116000000Y38285716D01*
X116000045Y23857145D02*
G75*
G03*
X115500000Y24357145I-500045J-45D01*
G01*
X-96555556Y-87000000D02*
G75*
G03*
X-96055556Y-86500000I-1J500001D01*
G01*
X115500000Y75071400D02*
G75*
G03*
X116000000Y75571429I0J500000D01*
G01*
X-108000000Y50714287D02*
G75*
G03*
X-107500000Y50214287I500001J1D01*
G01*
X103055500Y86500000D02*
G75*
G03*
X102555548Y87000000I-500000J0D01*
G01*
X-108000000Y86000000D02*
X-108000000Y75571429D01*
X115999961Y-25857139D02*
G75*
G03*
X115500000Y-25357139I-499961J39D01*
G01*
X-33833300Y86500000D02*
G75*
G03*
X-34333336Y87000000I-500000J0D01*
G01*
X115999987Y48714287D02*
G75*
G03*
X115500000Y49214287I-499987J13D01*
G01*
X116000029Y73571429D02*
G75*
G03*
X115500000Y74071429I-500029J-29D01*
G01*
X116000003Y-999997D02*
G75*
G03*
X115500000Y-499997I-500003J-3D01*
G01*
X-107500000Y11928574D02*
G75*
G03*
X-108000000Y11428574I1J-500001D01*
G01*
X-108000000Y-11428568D02*
G75*
G03*
X-107500000Y-11928568I500001J1D01*
G01*
D11*
X-104250000Y41875000D02*
G75*
G03*
X-104250000Y41875000I-500000J0D01*
G01*
D10*
X-82111112Y87000000D02*
G75*
G03*
X-82611112Y86500000I1J-500001D01*
G01*
X-94555556Y-87000000D02*
X-84111112Y-87000000D01*
X-108000000Y-48714281D02*
G75*
G03*
X-107500000Y-49214281I500001J1D01*
G01*
X17444440Y86999960D02*
G75*
G03*
X16944440Y86500000I-40J-499960D01*
G01*
D13*
G04 #@! TO.C,D6*
X8352150Y5111660D03*
D14*
X7655000Y4709160D03*
D13*
X6957850Y4306660D03*
X7747850Y2938340D03*
D14*
X8445000Y3340840D03*
D13*
X9142150Y3743340D03*
G04 #@! TD*
D15*
G04 #@! TO.C,D2*
X790000Y-9805000D03*
D16*
X790000Y-9000000D03*
D15*
X790000Y-8195000D03*
X-790000Y-8195000D03*
D16*
X-790000Y-9000000D03*
D15*
X-790000Y-9805000D03*
G04 #@! TD*
G04 #@! TO.C,D5*
X-790000Y9805000D03*
D16*
X-790000Y9000000D03*
D15*
X-790000Y8195000D03*
X790000Y8195000D03*
D16*
X790000Y9000000D03*
D15*
X790000Y9805000D03*
G04 #@! TD*
D17*
G04 #@! TO.C,D3*
X-8352150Y-5111660D03*
D18*
X-7655000Y-4709160D03*
D17*
X-6957850Y-4306660D03*
X-7747850Y-2938340D03*
D18*
X-8445000Y-3340840D03*
D17*
X-9142150Y-3743340D03*
G04 #@! TD*
D19*
G04 #@! TO.C,D4*
X-9142150Y3743340D03*
D20*
X-8445000Y3340840D03*
D19*
X-7747850Y2938340D03*
X-6957850Y4306660D03*
D20*
X-7655000Y4709160D03*
D19*
X-8352150Y5111660D03*
G04 #@! TD*
D21*
G04 #@! TO.C,D1*
X9142150Y-3743340D03*
D22*
X8445000Y-3340840D03*
D21*
X7747850Y-2938340D03*
X6957850Y-4306660D03*
D22*
X7655000Y-4709160D03*
D21*
X8352150Y-5111660D03*
G04 #@! TD*
M02*
