  0
SECTION
  2
HEADER
  9
$ANGBASE
  50
0.0
  9
$ANGDIR
  70
1
  9
$MEASUREMENT
  70
1
  0
ENDSEC
  0
SECTION
  2
TABLES
  0
TABLE
  2
LTYPE
  70
4
  0
LTYPE
  5
40F
  2
CONTINUOUS
  70
0
  3
Solid line
  72
65
  73
0
  40
0.0
  0
LTYPE
  5
410
  2
DASHDOT
 70
0
  3
Dash Dot ____ _ ____ _
 72
65
 73
4
 40
2.0
 49
1.25
 49
-0.25
 49
0.25
 49
-0.25
  0
LTYPE
  5
411
  2
DASHED
 70
0
  3
Dashed __ __ __ __ __
 72
65
 73
2
 40
0.75
 49
0.5
 49
-0.25
  0
LTYPE
  5
43B
  2
DOTTED
 70
0
  3
Dotted .  .  .  .
 72
65
 73
2
 40
0.2
 49
0.0
 49
-0.2
  0
ENDTAB
  0
TABLE
  2
STYLE
  70
4
  0
STYLE
  2
KICAD
  70
0
  40
0
  41
1
  42
1
  50
0
  71
0
  3
isocp.shx
  0
STYLE
  2
KICADB
  70
0
  40
0
  41
1
  42
1
  50
0
  71
0
  3
isocp.shx
  0
STYLE
  2
KICADI
  70
0
  40
0
  41
1
  42
1
  50
15
  71
0
  3
isocp.shx
  0
STYLE
  2
KICADBI
  70
0
  40
0
  41
1
  42
1
  50
15
  71
0
  3
isocp.shx
  0
ENDTAB
  0
TABLE
  2
LAYER
  70
1
  0
LAYER
  2
BLACK
  70
0
  62
7
  6
CONTINUOUS
  0
ENDTAB
  0
ENDSEC
  0
SECTION
  2
ENTITIES
0
LINE
8
BLACK
6
CONTINUOUS
10
79.8
20
-69.7
11
79.3
21
-69.7
0
LINE
8
BLACK
6
CONTINUOUS
10
79.3
20
-69.7
11
79.3
21
-69.2
0
LINE
8
BLACK
6
CONTINUOUS
10
79.3
20
-69.2
11
79.8
21
-69.2
0
LINE
8
BLACK
6
CONTINUOUS
10
79.8
20
-69.2
11
79.8
21
-69.7
0
LINE
8
BLACK
6
CONTINUOUS
10
80.7
20
-69.7
11
80.2
21
-69.7
0
LINE
8
BLACK
6
CONTINUOUS
10
80.2
20
-69.7
11
80.2
21
-69.2
0
LINE
8
BLACK
6
CONTINUOUS
10
80.2
20
-69.2
11
80.7
21
-69.2
0
LINE
8
BLACK
6
CONTINUOUS
10
80.7
20
-69.2
11
80.7
21
-69.7
0
LINE
8
BLACK
6
CONTINUOUS
10
81.4744
20
-69.1504
11
81.5036
21
-69.1699
0
LINE
8
BLACK
6
CONTINUOUS
10
81.5036
20
-69.1699
11
81.5231
21
-69.1991
0
LINE
8
BLACK
6
CONTINUOUS
10
81.5231
20
-69.1991
11
81.53
21
-69.2335
0
LINE
8
BLACK
6
CONTINUOUS
10
81.53
20
-69.2335
11
81.53
21
-69.5115
0
LINE
8
BLACK
6
CONTINUOUS
10
81.53
20
-69.5115
11
81.5231
21
-69.5459
0
LINE
8
BLACK
6
CONTINUOUS
10
81.5231
20
-69.5459
11
81.5036
21
-69.5751
0
LINE
8
BLACK
6
CONTINUOUS
10
81.5036
20
-69.5751
11
81.4744
21
-69.5946
0
LINE
8
BLACK
6
CONTINUOUS
10
81.4744
20
-69.5946
11
81.44
21
-69.6015
0
LINE
8
BLACK
6
CONTINUOUS
10
81.44
20
-69.6015
11
81.26
21
-69.6015
0
LINE
8
BLACK
6
CONTINUOUS
10
81.26
20
-69.6015
11
81.2256
21
-69.5946
0
LINE
8
BLACK
6
CONTINUOUS
10
81.2256
20
-69.5946
11
81.1964
21
-69.5751
0
LINE
8
BLACK
6
CONTINUOUS
10
81.1964
20
-69.5751
11
81.1769
21
-69.5459
0
LINE
8
BLACK
6
CONTINUOUS
10
81.1769
20
-69.5459
11
81.17
21
-69.5115
0
LINE
8
BLACK
6
CONTINUOUS
10
81.17
20
-69.5115
11
81.17
21
-69.2335
0
LINE
8
BLACK
6
CONTINUOUS
10
81.17
20
-69.2335
11
81.1769
21
-69.1991
0
LINE
8
BLACK
6
CONTINUOUS
10
81.1769
20
-69.1991
11
81.1964
21
-69.1699
0
LINE
8
BLACK
6
CONTINUOUS
10
81.1964
20
-69.1699
11
81.2256
21
-69.1504
0
LINE
8
BLACK
6
CONTINUOUS
10
81.2256
20
-69.1504
11
81.26
21
-69.1435
0
LINE
8
BLACK
6
CONTINUOUS
10
81.26
20
-69.1435
11
81.44
21
-69.1435
0
LINE
8
BLACK
6
CONTINUOUS
10
81.44
20
-69.1435
11
81.4744
21
-69.1504
0
LINE
8
BLACK
6
CONTINUOUS
10
76.5194
20
-68.5485
11
76.6753
21
-68.6385
0
LINE
8
BLACK
6
CONTINUOUS
10
76.6753
20
-68.6385
11
76.7017
21
-68.6617
0
LINE
8
BLACK
6
CONTINUOUS
10
76.7017
20
-68.6617
11
76.7173
21
-68.6932
0
LINE
8
BLACK
6
CONTINUOUS
10
76.7173
20
-68.6932
11
76.7196
21
-68.7282
0
LINE
8
BLACK
6
CONTINUOUS
10
76.7196
20
-68.7282
11
76.7083
21
-68.7614
0
LINE
8
BLACK
6
CONTINUOUS
10
76.7083
20
-68.7614
11
76.5693
21
-69.0022
0
LINE
8
BLACK
6
CONTINUOUS
10
76.5693
20
-69.0022
11
76.5461
21
-69.0286
0
LINE
8
BLACK
6
CONTINUOUS
10
76.5461
20
-69.0286
11
76.5146
21
-69.0441
0
LINE
8
BLACK
6
CONTINUOUS
10
76.5146
20
-69.0441
11
76.4796
21
-69.0464
0
LINE
8
BLACK
6
CONTINUOUS
10
76.4796
20
-69.0464
11
76.4463
21
-69.0351
0
LINE
8
BLACK
6
CONTINUOUS
10
76.4463
20
-69.0351
11
76.2904
21
-68.9451
0
LINE
8
BLACK
6
CONTINUOUS
10
76.2904
20
-68.9451
11
76.264
21
-68.922
0
LINE
8
BLACK
6
CONTINUOUS
10
76.264
20
-68.922
11
76.2485
21
-68.8905
0
LINE
8
BLACK
6
CONTINUOUS
10
76.2485
20
-68.8905
11
76.2462
21
-68.8555
0
LINE
8
BLACK
6
CONTINUOUS
10
76.2462
20
-68.8555
11
76.2575
21
-68.8222
0
LINE
8
BLACK
6
CONTINUOUS
10
76.2575
20
-68.8222
11
76.3965
21
-68.5814
0
LINE
8
BLACK
6
CONTINUOUS
10
76.3965
20
-68.5814
11
76.4197
21
-68.555
0
LINE
8
BLACK
6
CONTINUOUS
10
76.4197
20
-68.555
11
76.4511
21
-68.5395
0
LINE
8
BLACK
6
CONTINUOUS
10
76.4511
20
-68.5395
11
76.4862
21
-68.5372
0
LINE
8
BLACK
6
CONTINUOUS
10
76.4862
20
-68.5372
11
76.5194
21
-68.5485
0
LINE
8
BLACK
6
CONTINUOUS
10
79.8
20
-68.8
11
79.3
21
-68.8
0
LINE
8
BLACK
6
CONTINUOUS
10
79.3
20
-68.8
11
79.3
21
-68.3
0
LINE
8
BLACK
6
CONTINUOUS
10
79.3
20
-68.3
11
79.8
21
-68.3
0
LINE
8
BLACK
6
CONTINUOUS
10
79.8
20
-68.3
11
79.8
21
-68.8
0
LINE
8
BLACK
6
CONTINUOUS
10
80.7
20
-68.8
11
80.2
21
-68.8
0
LINE
8
BLACK
6
CONTINUOUS
10
80.2
20
-68.8
11
80.2
21
-68.3
0
LINE
8
BLACK
6
CONTINUOUS
10
80.2
20
-68.3
11
80.7
21
-68.3
0
LINE
8
BLACK
6
CONTINUOUS
10
80.7
20
-68.3
11
80.7
21
-68.8
0
LINE
8
BLACK
6
CONTINUOUS
10
76.0062
20
-68.3174
11
75.7562
21
-68.7504
0
LINE
8
BLACK
6
CONTINUOUS
10
75.7562
20
-68.7504
11
75.3232
21
-68.5004
0
LINE
8
BLACK
6
CONTINUOUS
10
75.3232
20
-68.5004
11
75.5732
21
-68.0674
0
LINE
8
BLACK
6
CONTINUOUS
10
75.5732
20
-68.0674
11
76.0062
21
-68.3174
0
LINE
8
BLACK
6
CONTINUOUS
10
84.6768
20
-68.5004
11
84.2438
21
-68.7504
0
LINE
8
BLACK
6
CONTINUOUS
10
84.2438
20
-68.7504
11
83.9938
21
-68.3174
0
LINE
8
BLACK
6
CONTINUOUS
10
83.9938
20
-68.3174
11
84.4268
21
-68.0674
0
LINE
8
BLACK
6
CONTINUOUS
10
84.4268
20
-68.0674
11
84.6768
21
-68.5004
0
LINE
8
BLACK
6
CONTINUOUS
10
81.4744
20
-68.2854
11
81.5036
21
-68.3049
0
LINE
8
BLACK
6
CONTINUOUS
10
81.5036
20
-68.3049
11
81.5231
21
-68.3341
0
LINE
8
BLACK
6
CONTINUOUS
10
81.5231
20
-68.3341
11
81.53
21
-68.3685
0
LINE
8
BLACK
6
CONTINUOUS
10
81.53
20
-68.3685
11
81.53
21
-68.6465
0
LINE
8
BLACK
6
CONTINUOUS
10
81.53
20
-68.6465
11
81.5231
21
-68.6809
0
LINE
8
BLACK
6
CONTINUOUS
10
81.5231
20
-68.6809
11
81.5036
21
-68.7101
0
LINE
8
BLACK
6
CONTINUOUS
10
81.5036
20
-68.7101
11
81.4744
21
-68.7296
0
LINE
8
BLACK
6
CONTINUOUS
10
81.4744
20
-68.7296
11
81.44
21
-68.7365
0
LINE
8
BLACK
6
CONTINUOUS
10
81.44
20
-68.7365
11
81.26
21
-68.7365
0
LINE
8
BLACK
6
CONTINUOUS
10
81.26
20
-68.7365
11
81.2256
21
-68.7296
0
LINE
8
BLACK
6
CONTINUOUS
10
81.2256
20
-68.7296
11
81.1964
21
-68.7101
0
LINE
8
BLACK
6
CONTINUOUS
10
81.1964
20
-68.7101
11
81.1769
21
-68.6809
0
LINE
8
BLACK
6
CONTINUOUS
10
81.1769
20
-68.6809
11
81.17
21
-68.6465
0
LINE
8
BLACK
6
CONTINUOUS
10
81.17
20
-68.6465
11
81.17
21
-68.3685
0
LINE
8
BLACK
6
CONTINUOUS
10
81.17
20
-68.3685
11
81.1769
21
-68.3341
0
LINE
8
BLACK
6
CONTINUOUS
10
81.1769
20
-68.3341
11
81.1964
21
-68.3049
0
LINE
8
BLACK
6
CONTINUOUS
10
81.1964
20
-68.3049
11
81.2256
21
-68.2854
0
LINE
8
BLACK
6
CONTINUOUS
10
81.2256
20
-68.2854
11
81.26
21
-68.2785
0
LINE
8
BLACK
6
CONTINUOUS
10
81.26
20
-68.2785
11
81.44
21
-68.2785
0
LINE
8
BLACK
6
CONTINUOUS
10
81.44
20
-68.2785
11
81.4744
21
-68.2854
0
LINE
8
BLACK
6
CONTINUOUS
10
75.2268
20
-67.8674
11
74.9768
21
-68.3004
0
LINE
8
BLACK
6
CONTINUOUS
10
74.9768
20
-68.3004
11
74.5438
21
-68.0504
0
LINE
8
BLACK
6
CONTINUOUS
10
74.5438
20
-68.0504
11
74.7938
21
-67.6174
0
LINE
8
BLACK
6
CONTINUOUS
10
74.7938
20
-67.6174
11
75.2268
21
-67.8674
0
LINE
8
BLACK
6
CONTINUOUS
10
85.4562
20
-68.0504
11
85.0232
21
-68.3004
0
LINE
8
BLACK
6
CONTINUOUS
10
85.0232
20
-68.3004
11
84.7732
21
-67.8674
0
LINE
8
BLACK
6
CONTINUOUS
10
84.7732
20
-67.8674
11
85.2062
21
-67.6174
0
LINE
8
BLACK
6
CONTINUOUS
10
85.2062
20
-67.6174
11
85.4562
21
-68.0504
0
LINE
8
BLACK
6
CONTINUOUS
10
76.9519
20
-67.7994
11
77.1078
21
-67.8894
0
LINE
8
BLACK
6
CONTINUOUS
10
77.1078
20
-67.8894
11
77.1342
21
-67.9125
0
LINE
8
BLACK
6
CONTINUOUS
10
77.1342
20
-67.9125
11
77.1498
21
-67.944
0
LINE
8
BLACK
6
CONTINUOUS
10
77.1498
20
-67.944
11
77.1521
21
-67.9791
0
LINE
8
BLACK
6
CONTINUOUS
10
77.1521
20
-67.9791
11
77.1408
21
-68.0123
0
LINE
8
BLACK
6
CONTINUOUS
10
77.1408
20
-68.0123
11
77.0018
21
-68.2531
0
LINE
8
BLACK
6
CONTINUOUS
10
77.0018
20
-68.2531
11
76.9786
21
-68.2795
0
LINE
8
BLACK
6
CONTINUOUS
10
76.9786
20
-68.2795
11
76.9471
21
-68.295
0
LINE
8
BLACK
6
CONTINUOUS
10
76.9471
20
-68.295
11
76.9121
21
-68.2973
0
LINE
8
BLACK
6
CONTINUOUS
10
76.9121
20
-68.2973
11
76.8788
21
-68.286
0
LINE
8
BLACK
6
CONTINUOUS
10
76.8788
20
-68.286
11
76.7229
21
-68.196
0
LINE
8
BLACK
6
CONTINUOUS
10
76.7229
20
-68.196
11
76.6965
21
-68.1729
0
LINE
8
BLACK
6
CONTINUOUS
10
76.6965
20
-68.1729
11
76.681
21
-68.1414
0
LINE
8
BLACK
6
CONTINUOUS
10
76.681
20
-68.1414
11
76.6787
21
-68.1063
0
LINE
8
BLACK
6
CONTINUOUS
10
76.6787
20
-68.1063
11
76.69
21
-68.0731
0
LINE
8
BLACK
6
CONTINUOUS
10
76.69
20
-68.0731
11
76.829
21
-67.8323
0
LINE
8
BLACK
6
CONTINUOUS
10
76.829
20
-67.8323
11
76.8522
21
-67.8059
0
LINE
8
BLACK
6
CONTINUOUS
10
76.8522
20
-67.8059
11
76.8836
21
-67.7904
0
LINE
8
BLACK
6
CONTINUOUS
10
76.8836
20
-67.7904
11
76.9187
21
-67.7881
0
LINE
8
BLACK
6
CONTINUOUS
10
76.9187
20
-67.7881
11
76.9519
21
-67.7994
0
LINE
8
BLACK
6
CONTINUOUS
10
76.4562
20
-67.538
11
76.2062
21
-67.971
0
LINE
8
BLACK
6
CONTINUOUS
10
76.2062
20
-67.971
11
75.7732
21
-67.721
0
LINE
8
BLACK
6
CONTINUOUS
10
75.7732
20
-67.721
11
76.0232
21
-67.288
0
LINE
8
BLACK
6
CONTINUOUS
10
76.0232
20
-67.288
11
76.4562
21
-67.538
0
LINE
8
BLACK
6
CONTINUOUS
10
84.2268
20
-67.721
11
83.7938
21
-67.971
0
LINE
8
BLACK
6
CONTINUOUS
10
83.7938
20
-67.971
11
83.5438
21
-67.538
0
LINE
8
BLACK
6
CONTINUOUS
10
83.5438
20
-67.538
11
83.9768
21
-67.288
0
LINE
8
BLACK
6
CONTINUOUS
10
83.9768
20
-67.288
11
84.2268
21
-67.721
0
LINE
8
BLACK
6
CONTINUOUS
10
85.8871
20
-67.1895
11
85.9186
21
-67.205
0
LINE
8
BLACK
6
CONTINUOUS
10
85.9186
20
-67.205
11
85.9418
21
-67.2314
0
LINE
8
BLACK
6
CONTINUOUS
10
85.9418
20
-67.2314
11
86.0808
21
-67.4722
0
LINE
8
BLACK
6
CONTINUOUS
10
86.0808
20
-67.4722
11
86.0921
21
-67.5055
0
LINE
8
BLACK
6
CONTINUOUS
10
86.0921
20
-67.5055
11
86.0898
21
-67.5405
0
LINE
8
BLACK
6
CONTINUOUS
10
86.0898
20
-67.5405
11
86.0742
21
-67.572
0
LINE
8
BLACK
6
CONTINUOUS
10
86.0742
20
-67.572
11
86.0478
21
-67.5951
0
LINE
8
BLACK
6
CONTINUOUS
10
86.0478
20
-67.5951
11
85.8919
21
-67.6851
0
LINE
8
BLACK
6
CONTINUOUS
10
85.8919
20
-67.6851
11
85.8587
21
-67.6964
0
LINE
8
BLACK
6
CONTINUOUS
10
85.8587
20
-67.6964
11
85.8236
21
-67.6941
0
LINE
8
BLACK
6
CONTINUOUS
10
85.8236
20
-67.6941
11
85.7922
21
-67.6786
0
LINE
8
BLACK
6
CONTINUOUS
10
85.7922
20
-67.6786
11
85.769
21
-67.6522
0
LINE
8
BLACK
6
CONTINUOUS
10
85.769
20
-67.6522
11
85.63
21
-67.4114
0
LINE
8
BLACK
6
CONTINUOUS
10
85.63
20
-67.4114
11
85.6187
21
-67.3782
0
LINE
8
BLACK
6
CONTINUOUS
10
85.6187
20
-67.3782
11
85.621
21
-67.3432
0
LINE
8
BLACK
6
CONTINUOUS
10
85.621
20
-67.3432
11
85.6365
21
-67.3117
0
LINE
8
BLACK
6
CONTINUOUS
10
85.6365
20
-67.3117
11
85.6629
21
-67.2885
0
LINE
8
BLACK
6
CONTINUOUS
10
85.6629
20
-67.2885
11
85.8188
21
-67.1985
0
LINE
8
BLACK
6
CONTINUOUS
10
85.8188
20
-67.1985
11
85.8521
21
-67.1872
0
LINE
8
BLACK
6
CONTINUOUS
10
85.8521
20
-67.1872
11
85.8871
21
-67.1895
0
LINE
8
BLACK
6
CONTINUOUS
10
75.6768
20
-67.088
11
75.4268
21
-67.521
0
LINE
8
BLACK
6
CONTINUOUS
10
75.4268
20
-67.521
11
74.9938
21
-67.271
0
LINE
8
BLACK
6
CONTINUOUS
10
74.9938
20
-67.271
11
75.2438
21
-66.838
0
LINE
8
BLACK
6
CONTINUOUS
10
75.2438
20
-66.838
11
75.6768
21
-67.088
0
LINE
8
BLACK
6
CONTINUOUS
10
85.0062
20
-67.271
11
84.5732
21
-67.521
0
LINE
8
BLACK
6
CONTINUOUS
10
84.5732
20
-67.521
11
84.3232
21
-67.088
0
LINE
8
BLACK
6
CONTINUOUS
10
84.3232
20
-67.088
11
84.7562
21
-66.838
0
LINE
8
BLACK
6
CONTINUOUS
10
84.7562
20
-66.838
11
85.0062
21
-67.271
0
LINE
8
BLACK
6
CONTINUOUS
10
85.4546
20
-66.4404
11
85.4861
21
-66.4559
0
LINE
8
BLACK
6
CONTINUOUS
10
85.4861
20
-66.4559
11
85.5093
21
-66.4823
0
LINE
8
BLACK
6
CONTINUOUS
10
85.5093
20
-66.4823
11
85.6483
21
-66.7231
0
LINE
8
BLACK
6
CONTINUOUS
10
85.6483
20
-66.7231
11
85.6596
21
-66.7563
0
LINE
8
BLACK
6
CONTINUOUS
10
85.6596
20
-66.7563
11
85.6573
21
-66.7914
0
LINE
8
BLACK
6
CONTINUOUS
10
85.6573
20
-66.7914
11
85.6417
21
-66.8229
0
LINE
8
BLACK
6
CONTINUOUS
10
85.6417
20
-66.8229
11
85.6153
21
-66.846
0
LINE
8
BLACK
6
CONTINUOUS
10
85.6153
20
-66.846
11
85.4594
21
-66.936
0
LINE
8
BLACK
6
CONTINUOUS
10
85.4594
20
-66.936
11
85.4262
21
-66.9473
0
LINE
8
BLACK
6
CONTINUOUS
10
85.4262
20
-66.9473
11
85.3911
21
-66.945
0
LINE
8
BLACK
6
CONTINUOUS
10
85.3911
20
-66.945
11
85.3597
21
-66.9295
0
LINE
8
BLACK
6
CONTINUOUS
10
85.3597
20
-66.9295
11
85.3365
21
-66.9031
0
LINE
8
BLACK
6
CONTINUOUS
10
85.3365
20
-66.9031
11
85.1975
21
-66.6623
0
LINE
8
BLACK
6
CONTINUOUS
10
85.1975
20
-66.6623
11
85.1862
21
-66.6291
0
LINE
8
BLACK
6
CONTINUOUS
10
85.1862
20
-66.6291
11
85.1885
21
-66.594
0
LINE
8
BLACK
6
CONTINUOUS
10
85.1885
20
-66.594
11
85.204
21
-66.5625
0
LINE
8
BLACK
6
CONTINUOUS
10
85.204
20
-66.5625
11
85.2304
21
-66.5394
0
LINE
8
BLACK
6
CONTINUOUS
10
85.2304
20
-66.5394
11
85.3863
21
-66.4494
0
LINE
8
BLACK
6
CONTINUOUS
10
85.3863
20
-66.4494
11
85.4196
21
-66.4381
0
LINE
8
BLACK
6
CONTINUOUS
10
85.4196
20
-66.4381
11
85.4546
21
-66.4404
0
LINE
8
BLACK
6
CONTINUOUS
10
72.6568
20
-65.621
11
72.6883
21
-65.6365
0
LINE
8
BLACK
6
CONTINUOUS
10
72.6883
20
-65.6365
11
72.7115
21
-65.6629
0
LINE
8
BLACK
6
CONTINUOUS
10
72.7115
20
-65.6629
11
72.8015
21
-65.8188
0
LINE
8
BLACK
6
CONTINUOUS
10
72.8015
20
-65.8188
11
72.8128
21
-65.8521
0
LINE
8
BLACK
6
CONTINUOUS
10
72.8128
20
-65.8521
11
72.8105
21
-65.8871
0
LINE
8
BLACK
6
CONTINUOUS
10
72.8105
20
-65.8871
11
72.795
21
-65.9186
0
LINE
8
BLACK
6
CONTINUOUS
10
72.795
20
-65.9186
11
72.7686
21
-65.9418
0
LINE
8
BLACK
6
CONTINUOUS
10
72.7686
20
-65.9418
11
72.5278
21
-66.0808
0
LINE
8
BLACK
6
CONTINUOUS
10
72.5278
20
-66.0808
11
72.4945
21
-66.0921
0
LINE
8
BLACK
6
CONTINUOUS
10
72.4945
20
-66.0921
11
72.4595
21
-66.0898
0
LINE
8
BLACK
6
CONTINUOUS
10
72.4595
20
-66.0898
11
72.428
21
-66.0742
0
LINE
8
BLACK
6
CONTINUOUS
10
72.428
20
-66.0742
11
72.4049
21
-66.0478
0
LINE
8
BLACK
6
CONTINUOUS
10
72.4049
20
-66.0478
11
72.3149
21
-65.8919
0
LINE
8
BLACK
6
CONTINUOUS
10
72.3149
20
-65.8919
11
72.3036
21
-65.8587
0
LINE
8
BLACK
6
CONTINUOUS
10
72.3036
20
-65.8587
11
72.3059
21
-65.8236
0
LINE
8
BLACK
6
CONTINUOUS
10
72.3059
20
-65.8236
11
72.3214
21
-65.7922
0
LINE
8
BLACK
6
CONTINUOUS
10
72.3214
20
-65.7922
11
72.3478
21
-65.769
0
LINE
8
BLACK
6
CONTINUOUS
10
72.3478
20
-65.769
11
72.5886
21
-65.63
0
LINE
8
BLACK
6
CONTINUOUS
10
72.5886
20
-65.63
11
72.6218
21
-65.6187
0
LINE
8
BLACK
6
CONTINUOUS
10
72.6218
20
-65.6187
11
72.6568
21
-65.621
0
LINE
8
BLACK
6
CONTINUOUS
10
73.406
20
-65.1885
11
73.4375
21
-65.204
0
LINE
8
BLACK
6
CONTINUOUS
10
73.4375
20
-65.204
11
73.4606
21
-65.2304
0
LINE
8
BLACK
6
CONTINUOUS
10
73.4606
20
-65.2304
11
73.5506
21
-65.3863
0
LINE
8
BLACK
6
CONTINUOUS
10
73.5506
20
-65.3863
11
73.5619
21
-65.4196
0
LINE
8
BLACK
6
CONTINUOUS
10
73.5619
20
-65.4196
11
73.5596
21
-65.4546
0
LINE
8
BLACK
6
CONTINUOUS
10
73.5596
20
-65.4546
11
73.5441
21
-65.4861
0
LINE
8
BLACK
6
CONTINUOUS
10
73.5441
20
-65.4861
11
73.5177
21
-65.5093
0
LINE
8
BLACK
6
CONTINUOUS
10
73.5177
20
-65.5093
11
73.2769
21
-65.6483
0
LINE
8
BLACK
6
CONTINUOUS
10
73.2769
20
-65.6483
11
73.2437
21
-65.6596
0
LINE
8
BLACK
6
CONTINUOUS
10
73.2437
20
-65.6596
11
73.2086
21
-65.6573
0
LINE
8
BLACK
6
CONTINUOUS
10
73.2086
20
-65.6573
11
73.1771
21
-65.6417
0
LINE
8
BLACK
6
CONTINUOUS
10
73.1771
20
-65.6417
11
73.154
21
-65.6153
0
LINE
8
BLACK
6
CONTINUOUS
10
73.154
20
-65.6153
11
73.064
21
-65.4594
0
LINE
8
BLACK
6
CONTINUOUS
10
73.064
20
-65.4594
11
73.0527
21
-65.4262
0
LINE
8
BLACK
6
CONTINUOUS
10
73.0527
20
-65.4262
11
73.055
21
-65.3911
0
LINE
8
BLACK
6
CONTINUOUS
10
73.055
20
-65.3911
11
73.0705
21
-65.3597
0
LINE
8
BLACK
6
CONTINUOUS
10
73.0705
20
-65.3597
11
73.0969
21
-65.3365
0
LINE
8
BLACK
6
CONTINUOUS
10
73.0969
20
-65.3365
11
73.3377
21
-65.1975
0
LINE
8
BLACK
6
CONTINUOUS
10
73.3377
20
-65.1975
11
73.3709
21
-65.1862
0
LINE
8
BLACK
6
CONTINUOUS
10
73.3709
20
-65.1862
11
73.406
21
-65.1885
0
LINE
8
BLACK
6
CONTINUOUS
10
72.3826
20
-65.2062
11
71.9496
21
-65.4562
0
LINE
8
BLACK
6
CONTINUOUS
10
71.9496
20
-65.4562
11
71.6996
21
-65.0232
0
LINE
8
BLACK
6
CONTINUOUS
10
71.6996
20
-65.0232
11
72.1326
21
-64.7732
0
LINE
8
BLACK
6
CONTINUOUS
10
72.1326
20
-64.7732
11
72.3826
21
-65.2062
0
LINE
8
BLACK
6
CONTINUOUS
10
88.3004
20
-65.0232
11
88.0504
21
-65.4562
0
LINE
8
BLACK
6
CONTINUOUS
10
88.0504
20
-65.4562
11
87.6174
21
-65.2062
0
LINE
8
BLACK
6
CONTINUOUS
10
87.6174
20
-65.2062
11
87.8674
21
-64.7732
0
LINE
8
BLACK
6
CONTINUOUS
10
87.8674
20
-64.7732
11
88.3004
21
-65.0232
0
LINE
8
BLACK
6
CONTINUOUS
10
73.162
20
-64.7562
11
72.729
21
-65.0062
0
LINE
8
BLACK
6
CONTINUOUS
10
72.729
20
-65.0062
11
72.479
21
-64.5732
0
LINE
8
BLACK
6
CONTINUOUS
10
72.479
20
-64.5732
11
72.912
21
-64.3232
0
LINE
8
BLACK
6
CONTINUOUS
10
72.912
20
-64.3232
11
73.162
21
-64.7562
0
LINE
8
BLACK
6
CONTINUOUS
10
87.521
20
-64.5732
11
87.271
21
-65.0062
0
LINE
8
BLACK
6
CONTINUOUS
10
87.271
20
-65.0062
11
86.838
21
-64.7562
0
LINE
8
BLACK
6
CONTINUOUS
10
86.838
20
-64.7562
11
87.088
21
-64.3232
0
LINE
8
BLACK
6
CONTINUOUS
10
87.088
20
-64.3232
11
87.521
21
-64.5732
0
LINE
8
BLACK
6
CONTINUOUS
10
71.9326
20
-64.4268
11
71.4996
21
-64.6768
0
LINE
8
BLACK
6
CONTINUOUS
10
71.4996
20
-64.6768
11
71.2496
21
-64.2438
0
LINE
8
BLACK
6
CONTINUOUS
10
71.2496
20
-64.2438
11
71.6826
21
-63.9938
0
LINE
8
BLACK
6
CONTINUOUS
10
71.6826
20
-63.9938
11
71.9326
21
-64.4268
0
LINE
8
BLACK
6
CONTINUOUS
10
88.7504
20
-64.2438
11
88.5004
21
-64.6768
0
LINE
8
BLACK
6
CONTINUOUS
10
88.5004
20
-64.6768
11
88.0674
21
-64.4268
0
LINE
8
BLACK
6
CONTINUOUS
10
88.0674
20
-64.4268
11
88.3174
21
-63.9938
0
LINE
8
BLACK
6
CONTINUOUS
10
88.3174
20
-63.9938
11
88.7504
21
-64.2438
0
LINE
8
BLACK
6
CONTINUOUS
10
72.712
20
-63.9768
11
72.279
21
-64.2268
0
LINE
8
BLACK
6
CONTINUOUS
10
72.279
20
-64.2268
11
72.029
21
-63.7938
0
LINE
8
BLACK
6
CONTINUOUS
10
72.029
20
-63.7938
11
72.462
21
-63.5438
0
LINE
8
BLACK
6
CONTINUOUS
10
72.462
20
-63.5438
11
72.712
21
-63.9768
0
LINE
8
BLACK
6
CONTINUOUS
10
87.971
20
-63.7938
11
87.721
21
-64.2268
0
LINE
8
BLACK
6
CONTINUOUS
10
87.721
20
-64.2268
11
87.288
21
-63.9768
0
LINE
8
BLACK
6
CONTINUOUS
10
87.288
20
-63.9768
11
87.538
21
-63.5438
0
LINE
8
BLACK
6
CONTINUOUS
10
87.538
20
-63.5438
11
87.971
21
-63.7938
0
LINE
8
BLACK
6
CONTINUOUS
10
88.7614
20
-63.2917
11
89.0022
21
-63.4307
0
LINE
8
BLACK
6
CONTINUOUS
10
89.0022
20
-63.4307
11
89.0286
21
-63.4539
0
LINE
8
BLACK
6
CONTINUOUS
10
89.0286
20
-63.4539
11
89.0441
21
-63.4854
0
LINE
8
BLACK
6
CONTINUOUS
10
89.0441
20
-63.4854
11
89.0464
21
-63.5204
0
LINE
8
BLACK
6
CONTINUOUS
10
89.0464
20
-63.5204
11
89.0351
21
-63.5537
0
LINE
8
BLACK
6
CONTINUOUS
10
89.0351
20
-63.5537
11
88.9451
21
-63.7096
0
LINE
8
BLACK
6
CONTINUOUS
10
88.9451
20
-63.7096
11
88.922
21
-63.736
0
LINE
8
BLACK
6
CONTINUOUS
10
88.922
20
-63.736
11
88.8905
21
-63.7515
0
LINE
8
BLACK
6
CONTINUOUS
10
88.8905
20
-63.7515
11
88.8555
21
-63.7538
0
LINE
8
BLACK
6
CONTINUOUS
10
88.8555
20
-63.7538
11
88.8222
21
-63.7425
0
LINE
8
BLACK
6
CONTINUOUS
10
88.8222
20
-63.7425
11
88.5814
21
-63.6035
0
LINE
8
BLACK
6
CONTINUOUS
10
88.5814
20
-63.6035
11
88.555
21
-63.5803
0
LINE
8
BLACK
6
CONTINUOUS
10
88.555
20
-63.5803
11
88.5395
21
-63.5489
0
LINE
8
BLACK
6
CONTINUOUS
10
88.5395
20
-63.5489
11
88.5372
21
-63.5138
0
LINE
8
BLACK
6
CONTINUOUS
10
88.5372
20
-63.5138
11
88.5485
21
-63.4806
0
LINE
8
BLACK
6
CONTINUOUS
10
88.5485
20
-63.4806
11
88.6385
21
-63.3247
0
LINE
8
BLACK
6
CONTINUOUS
10
88.6385
20
-63.3247
11
88.6617
21
-63.2983
0
LINE
8
BLACK
6
CONTINUOUS
10
88.6617
20
-63.2983
11
88.6932
21
-63.2827
0
LINE
8
BLACK
6
CONTINUOUS
10
88.6932
20
-63.2827
11
88.7282
21
-63.2804
0
LINE
8
BLACK
6
CONTINUOUS
10
88.7282
20
-63.2804
11
88.7614
21
-63.2917
0
LINE
8
BLACK
6
CONTINUOUS
10
88.0123
20
-62.8592
11
88.2531
21
-62.9982
0
LINE
8
BLACK
6
CONTINUOUS
10
88.2531
20
-62.9982
11
88.2795
21
-63.0214
0
LINE
8
BLACK
6
CONTINUOUS
10
88.2795
20
-63.0214
11
88.295
21
-63.0529
0
LINE
8
BLACK
6
CONTINUOUS
10
88.295
20
-63.0529
11
88.2973
21
-63.0879
0
LINE
8
BLACK
6
CONTINUOUS
10
88.2973
20
-63.0879
11
88.286
21
-63.1212
0
LINE
8
BLACK
6
CONTINUOUS
10
88.286
20
-63.1212
11
88.196
21
-63.2771
0
LINE
8
BLACK
6
CONTINUOUS
10
88.196
20
-63.2771
11
88.1729
21
-63.3035
0
LINE
8
BLACK
6
CONTINUOUS
10
88.1729
20
-63.3035
11
88.1414
21
-63.319
0
LINE
8
BLACK
6
CONTINUOUS
10
88.1414
20
-63.319
11
88.1063
21
-63.3213
0
LINE
8
BLACK
6
CONTINUOUS
10
88.1063
20
-63.3213
11
88.0731
21
-63.31
0
LINE
8
BLACK
6
CONTINUOUS
10
88.0731
20
-63.31
11
87.8323
21
-63.171
0
LINE
8
BLACK
6
CONTINUOUS
10
87.8323
20
-63.171
11
87.8059
21
-63.1478
0
LINE
8
BLACK
6
CONTINUOUS
10
87.8059
20
-63.1478
11
87.7904
21
-63.1164
0
LINE
8
BLACK
6
CONTINUOUS
10
87.7904
20
-63.1164
11
87.7881
21
-63.0813
0
LINE
8
BLACK
6
CONTINUOUS
10
87.7881
20
-63.0813
11
87.7994
21
-63.0481
0
LINE
8
BLACK
6
CONTINUOUS
10
87.7994
20
-63.0481
11
87.8894
21
-62.8922
0
LINE
8
BLACK
6
CONTINUOUS
10
87.8894
20
-62.8922
11
87.9125
21
-62.8658
0
LINE
8
BLACK
6
CONTINUOUS
10
87.9125
20
-62.8658
11
87.944
21
-62.8502
0
LINE
8
BLACK
6
CONTINUOUS
10
87.944
20
-62.8502
11
87.9791
21
-62.8479
0
LINE
8
BLACK
6
CONTINUOUS
10
87.9791
20
-62.8479
11
88.0123
21
-62.8592
0
LINE
8
BLACK
6
CONTINUOUS
10
88.6509
20
-61.5069
11
88.6801
21
-61.5264
0
LINE
8
BLACK
6
CONTINUOUS
10
88.6801
20
-61.5264
11
88.6996
21
-61.5556
0
LINE
8
BLACK
6
CONTINUOUS
10
88.6996
20
-61.5556
11
88.7065
21
-61.59
0
LINE
8
BLACK
6
CONTINUOUS
10
88.7065
20
-61.59
11
88.7065
21
-61.77
0
LINE
8
BLACK
6
CONTINUOUS
10
88.7065
20
-61.77
11
88.6996
21
-61.8044
0
LINE
8
BLACK
6
CONTINUOUS
10
88.6996
20
-61.8044
11
88.6801
21
-61.8336
0
LINE
8
BLACK
6
CONTINUOUS
10
88.6801
20
-61.8336
11
88.6509
21
-61.8531
0
LINE
8
BLACK
6
CONTINUOUS
10
88.6509
20
-61.8531
11
88.6165
21
-61.86
0
LINE
8
BLACK
6
CONTINUOUS
10
88.6165
20
-61.86
11
88.3385
21
-61.86
0
LINE
8
BLACK
6
CONTINUOUS
10
88.3385
20
-61.86
11
88.3041
21
-61.8531
0
LINE
8
BLACK
6
CONTINUOUS
10
88.3041
20
-61.8531
11
88.2749
21
-61.8336
0
LINE
8
BLACK
6
CONTINUOUS
10
88.2749
20
-61.8336
11
88.2554
21
-61.8044
0
LINE
8
BLACK
6
CONTINUOUS
10
88.2554
20
-61.8044
11
88.2485
21
-61.77
0
LINE
8
BLACK
6
CONTINUOUS
10
88.2485
20
-61.77
11
88.2485
21
-61.59
0
LINE
8
BLACK
6
CONTINUOUS
10
88.2485
20
-61.59
11
88.2554
21
-61.5556
0
LINE
8
BLACK
6
CONTINUOUS
10
88.2554
20
-61.5556
11
88.2749
21
-61.5264
0
LINE
8
BLACK
6
CONTINUOUS
10
88.2749
20
-61.5264
11
88.3041
21
-61.5069
0
LINE
8
BLACK
6
CONTINUOUS
10
88.3041
20
-61.5069
11
88.3385
21
-61.5
0
LINE
8
BLACK
6
CONTINUOUS
10
88.3385
20
-61.5
11
88.6165
21
-61.5
0
LINE
8
BLACK
6
CONTINUOUS
10
88.6165
20
-61.5
11
88.6509
21
-61.5069
0
LINE
8
BLACK
6
CONTINUOUS
10
89.5159
20
-61.5069
11
89.5451
21
-61.5264
0
LINE
8
BLACK
6
CONTINUOUS
10
89.5451
20
-61.5264
11
89.5646
21
-61.5556
0
LINE
8
BLACK
6
CONTINUOUS
10
89.5646
20
-61.5556
11
89.5715
21
-61.59
0
LINE
8
BLACK
6
CONTINUOUS
10
89.5715
20
-61.59
11
89.5715
21
-61.77
0
LINE
8
BLACK
6
CONTINUOUS
10
89.5715
20
-61.77
11
89.5646
21
-61.8044
0
LINE
8
BLACK
6
CONTINUOUS
10
89.5646
20
-61.8044
11
89.5451
21
-61.8336
0
LINE
8
BLACK
6
CONTINUOUS
10
89.5451
20
-61.8336
11
89.5159
21
-61.8531
0
LINE
8
BLACK
6
CONTINUOUS
10
89.5159
20
-61.8531
11
89.4815
21
-61.86
0
LINE
8
BLACK
6
CONTINUOUS
10
89.4815
20
-61.86
11
89.2035
21
-61.86
0
LINE
8
BLACK
6
CONTINUOUS
10
89.2035
20
-61.86
11
89.1691
21
-61.8531
0
LINE
8
BLACK
6
CONTINUOUS
10
89.1691
20
-61.8531
11
89.1399
21
-61.8336
0
LINE
8
BLACK
6
CONTINUOUS
10
89.1399
20
-61.8336
11
89.1204
21
-61.8044
0
LINE
8
BLACK
6
CONTINUOUS
10
89.1204
20
-61.8044
11
89.1135
21
-61.77
0
LINE
8
BLACK
6
CONTINUOUS
10
89.1135
20
-61.77
11
89.1135
21
-61.59
0
LINE
8
BLACK
6
CONTINUOUS
10
89.1135
20
-61.59
11
89.1204
21
-61.5556
0
LINE
8
BLACK
6
CONTINUOUS
10
89.1204
20
-61.5556
11
89.1399
21
-61.5264
0
LINE
8
BLACK
6
CONTINUOUS
10
89.1399
20
-61.5264
11
89.1691
21
-61.5069
0
LINE
8
BLACK
6
CONTINUOUS
10
89.1691
20
-61.5069
11
89.2035
21
-61.5
0
LINE
8
BLACK
6
CONTINUOUS
10
89.2035
20
-61.5
11
89.4815
21
-61.5
0
LINE
8
BLACK
6
CONTINUOUS
10
89.4815
20
-61.5
11
89.5159
21
-61.5069
0
LINE
8
BLACK
6
CONTINUOUS
10
70.8009
20
-61.1769
11
70.8301
21
-61.1964
0
LINE
8
BLACK
6
CONTINUOUS
10
70.8301
20
-61.1964
11
70.8496
21
-61.2256
0
LINE
8
BLACK
6
CONTINUOUS
10
70.8496
20
-61.2256
11
70.8565
21
-61.26
0
LINE
8
BLACK
6
CONTINUOUS
10
70.8565
20
-61.26
11
70.8565
21
-61.44
0
LINE
8
BLACK
6
CONTINUOUS
10
70.8565
20
-61.44
11
70.8496
21
-61.4744
0
LINE
8
BLACK
6
CONTINUOUS
10
70.8496
20
-61.4744
11
70.8301
21
-61.5036
0
LINE
8
BLACK
6
CONTINUOUS
10
70.8301
20
-61.5036
11
70.8009
21
-61.5231
0
LINE
8
BLACK
6
CONTINUOUS
10
70.8009
20
-61.5231
11
70.7665
21
-61.53
0
LINE
8
BLACK
6
CONTINUOUS
10
70.7665
20
-61.53
11
70.4885
21
-61.53
0
LINE
8
BLACK
6
CONTINUOUS
10
70.4885
20
-61.53
11
70.4541
21
-61.5231
0
LINE
8
BLACK
6
CONTINUOUS
10
70.4541
20
-61.5231
11
70.4249
21
-61.5036
0
LINE
8
BLACK
6
CONTINUOUS
10
70.4249
20
-61.5036
11
70.4054
21
-61.4744
0
LINE
8
BLACK
6
CONTINUOUS
10
70.4054
20
-61.4744
11
70.3985
21
-61.44
0
LINE
8
BLACK
6
CONTINUOUS
10
70.3985
20
-61.44
11
70.3985
21
-61.26
0
LINE
8
BLACK
6
CONTINUOUS
10
70.3985
20
-61.26
11
70.4054
21
-61.2256
0
LINE
8
BLACK
6
CONTINUOUS
10
70.4054
20
-61.2256
11
70.4249
21
-61.1964
0
LINE
8
BLACK
6
CONTINUOUS
10
70.4249
20
-61.1964
11
70.4541
21
-61.1769
0
LINE
8
BLACK
6
CONTINUOUS
10
70.4541
20
-61.1769
11
70.4885
21
-61.17
0
LINE
8
BLACK
6
CONTINUOUS
10
70.4885
20
-61.17
11
70.7665
21
-61.17
0
LINE
8
BLACK
6
CONTINUOUS
10
70.7665
20
-61.17
11
70.8009
21
-61.1769
0
LINE
8
BLACK
6
CONTINUOUS
10
71.6659
20
-61.1769
11
71.6951
21
-61.1964
0
LINE
8
BLACK
6
CONTINUOUS
10
71.6951
20
-61.1964
11
71.7146
21
-61.2256
0
LINE
8
BLACK
6
CONTINUOUS
10
71.7146
20
-61.2256
11
71.7215
21
-61.26
0
LINE
8
BLACK
6
CONTINUOUS
10
71.7215
20
-61.26
11
71.7215
21
-61.44
0
LINE
8
BLACK
6
CONTINUOUS
10
71.7215
20
-61.44
11
71.7146
21
-61.4744
0
LINE
8
BLACK
6
CONTINUOUS
10
71.7146
20
-61.4744
11
71.6951
21
-61.5036
0
LINE
8
BLACK
6
CONTINUOUS
10
71.6951
20
-61.5036
11
71.6659
21
-61.5231
0
LINE
8
BLACK
6
CONTINUOUS
10
71.6659
20
-61.5231
11
71.6315
21
-61.53
0
LINE
8
BLACK
6
CONTINUOUS
10
71.6315
20
-61.53
11
71.3535
21
-61.53
0
LINE
8
BLACK
6
CONTINUOUS
10
71.3535
20
-61.53
11
71.3191
21
-61.5231
0
LINE
8
BLACK
6
CONTINUOUS
10
71.3191
20
-61.5231
11
71.2899
21
-61.5036
0
LINE
8
BLACK
6
CONTINUOUS
10
71.2899
20
-61.5036
11
71.2704
21
-61.4744
0
LINE
8
BLACK
6
CONTINUOUS
10
71.2704
20
-61.4744
11
71.2635
21
-61.44
0
LINE
8
BLACK
6
CONTINUOUS
10
71.2635
20
-61.44
11
71.2635
21
-61.26
0
LINE
8
BLACK
6
CONTINUOUS
10
71.2635
20
-61.26
11
71.2704
21
-61.2256
0
LINE
8
BLACK
6
CONTINUOUS
10
71.2704
20
-61.2256
11
71.2899
21
-61.1964
0
LINE
8
BLACK
6
CONTINUOUS
10
71.2899
20
-61.1964
11
71.3191
21
-61.1769
0
LINE
8
BLACK
6
CONTINUOUS
10
71.3191
20
-61.1769
11
71.3535
21
-61.17
0
LINE
8
BLACK
6
CONTINUOUS
10
71.3535
20
-61.17
11
71.6315
21
-61.17
0
LINE
8
BLACK
6
CONTINUOUS
10
71.6315
20
-61.17
11
71.6659
21
-61.1769
0
LINE
8
BLACK
6
CONTINUOUS
10
70.8
20
-60.7
11
70.3
21
-60.7
0
LINE
8
BLACK
6
CONTINUOUS
10
70.3
20
-60.7
11
70.3
21
-60.2
0
LINE
8
BLACK
6
CONTINUOUS
10
70.3
20
-60.2
11
70.8
21
-60.2
0
LINE
8
BLACK
6
CONTINUOUS
10
70.8
20
-60.2
11
70.8
21
-60.7
0
LINE
8
BLACK
6
CONTINUOUS
10
71.7
20
-60.7
11
71.2
21
-60.7
0
LINE
8
BLACK
6
CONTINUOUS
10
71.2
20
-60.7
11
71.2
21
-60.2
0
LINE
8
BLACK
6
CONTINUOUS
10
71.2
20
-60.2
11
71.7
21
-60.2
0
LINE
8
BLACK
6
CONTINUOUS
10
71.7
20
-60.2
11
71.7
21
-60.7
0
LINE
8
BLACK
6
CONTINUOUS
10
88.8
20
-60.7
11
88.3
21
-60.7
0
LINE
8
BLACK
6
CONTINUOUS
10
88.3
20
-60.7
11
88.3
21
-60.2
0
LINE
8
BLACK
6
CONTINUOUS
10
88.3
20
-60.2
11
88.8
21
-60.2
0
LINE
8
BLACK
6
CONTINUOUS
10
88.8
20
-60.2
11
88.8
21
-60.7
0
LINE
8
BLACK
6
CONTINUOUS
10
89.7
20
-60.7
11
89.2
21
-60.7
0
LINE
8
BLACK
6
CONTINUOUS
10
89.2
20
-60.7
11
89.2
21
-60.2
0
LINE
8
BLACK
6
CONTINUOUS
10
89.2
20
-60.2
11
89.7
21
-60.2
0
LINE
8
BLACK
6
CONTINUOUS
10
89.7
20
-60.2
11
89.7
21
-60.7
0
LINE
8
BLACK
6
CONTINUOUS
10
70.8
20
-59.8
11
70.3
21
-59.8
0
LINE
8
BLACK
6
CONTINUOUS
10
70.3
20
-59.8
11
70.3
21
-59.3
0
LINE
8
BLACK
6
CONTINUOUS
10
70.3
20
-59.3
11
70.8
21
-59.3
0
LINE
8
BLACK
6
CONTINUOUS
10
70.8
20
-59.3
11
70.8
21
-59.8
0
LINE
8
BLACK
6
CONTINUOUS
10
71.7
20
-59.8
11
71.2
21
-59.8
0
LINE
8
BLACK
6
CONTINUOUS
10
71.2
20
-59.8
11
71.2
21
-59.3
0
LINE
8
BLACK
6
CONTINUOUS
10
71.2
20
-59.3
11
71.7
21
-59.3
0
LINE
8
BLACK
6
CONTINUOUS
10
71.7
20
-59.3
11
71.7
21
-59.8
0
LINE
8
BLACK
6
CONTINUOUS
10
88.8
20
-59.8
11
88.3
21
-59.8
0
LINE
8
BLACK
6
CONTINUOUS
10
88.3
20
-59.8
11
88.3
21
-59.3
0
LINE
8
BLACK
6
CONTINUOUS
10
88.3
20
-59.3
11
88.8
21
-59.3
0
LINE
8
BLACK
6
CONTINUOUS
10
88.8
20
-59.3
11
88.8
21
-59.8
0
LINE
8
BLACK
6
CONTINUOUS
10
89.7
20
-59.8
11
89.2
21
-59.8
0
LINE
8
BLACK
6
CONTINUOUS
10
89.2
20
-59.8
11
89.2
21
-59.3
0
LINE
8
BLACK
6
CONTINUOUS
10
89.2
20
-59.3
11
89.7
21
-59.3
0
LINE
8
BLACK
6
CONTINUOUS
10
89.7
20
-59.3
11
89.7
21
-59.8
0
LINE
8
BLACK
6
CONTINUOUS
10
88.6809
20
-58.4769
11
88.7101
21
-58.4964
0
LINE
8
BLACK
6
CONTINUOUS
10
88.7101
20
-58.4964
11
88.7296
21
-58.5256
0
LINE
8
BLACK
6
CONTINUOUS
10
88.7296
20
-58.5256
11
88.7365
21
-58.56
0
LINE
8
BLACK
6
CONTINUOUS
10
88.7365
20
-58.56
11
88.7365
21
-58.74
0
LINE
8
BLACK
6
CONTINUOUS
10
88.7365
20
-58.74
11
88.7296
21
-58.7744
0
LINE
8
BLACK
6
CONTINUOUS
10
88.7296
20
-58.7744
11
88.7101
21
-58.8036
0
LINE
8
BLACK
6
CONTINUOUS
10
88.7101
20
-58.8036
11
88.6809
21
-58.8231
0
LINE
8
BLACK
6
CONTINUOUS
10
88.6809
20
-58.8231
11
88.6465
21
-58.83
0
LINE
8
BLACK
6
CONTINUOUS
10
88.6465
20
-58.83
11
88.3685
21
-58.83
0
LINE
8
BLACK
6
CONTINUOUS
10
88.3685
20
-58.83
11
88.3341
21
-58.8231
0
LINE
8
BLACK
6
CONTINUOUS
10
88.3341
20
-58.8231
11
88.3049
21
-58.8036
0
LINE
8
BLACK
6
CONTINUOUS
10
88.3049
20
-58.8036
11
88.2854
21
-58.7744
0
LINE
8
BLACK
6
CONTINUOUS
10
88.2854
20
-58.7744
11
88.2785
21
-58.74
0
LINE
8
BLACK
6
CONTINUOUS
10
88.2785
20
-58.74
11
88.2785
21
-58.56
0
LINE
8
BLACK
6
CONTINUOUS
10
88.2785
20
-58.56
11
88.2854
21
-58.5256
0
LINE
8
BLACK
6
CONTINUOUS
10
88.2854
20
-58.5256
11
88.3049
21
-58.4964
0
LINE
8
BLACK
6
CONTINUOUS
10
88.3049
20
-58.4964
11
88.3341
21
-58.4769
0
LINE
8
BLACK
6
CONTINUOUS
10
88.3341
20
-58.4769
11
88.3685
21
-58.47
0
LINE
8
BLACK
6
CONTINUOUS
10
88.3685
20
-58.47
11
88.6465
21
-58.47
0
LINE
8
BLACK
6
CONTINUOUS
10
88.6465
20
-58.47
11
88.6809
21
-58.4769
0
LINE
8
BLACK
6
CONTINUOUS
10
89.5459
20
-58.4769
11
89.5751
21
-58.4964
0
LINE
8
BLACK
6
CONTINUOUS
10
89.5751
20
-58.4964
11
89.5946
21
-58.5256
0
LINE
8
BLACK
6
CONTINUOUS
10
89.5946
20
-58.5256
11
89.6015
21
-58.56
0
LINE
8
BLACK
6
CONTINUOUS
10
89.6015
20
-58.56
11
89.6015
21
-58.74
0
LINE
8
BLACK
6
CONTINUOUS
10
89.6015
20
-58.74
11
89.5946
21
-58.7744
0
LINE
8
BLACK
6
CONTINUOUS
10
89.5946
20
-58.7744
11
89.5751
21
-58.8036
0
LINE
8
BLACK
6
CONTINUOUS
10
89.5751
20
-58.8036
11
89.5459
21
-58.8231
0
LINE
8
BLACK
6
CONTINUOUS
10
89.5459
20
-58.8231
11
89.5115
21
-58.83
0
LINE
8
BLACK
6
CONTINUOUS
10
89.5115
20
-58.83
11
89.2335
21
-58.83
0
LINE
8
BLACK
6
CONTINUOUS
10
89.2335
20
-58.83
11
89.1991
21
-58.8231
0
LINE
8
BLACK
6
CONTINUOUS
10
89.1991
20
-58.8231
11
89.1699
21
-58.8036
0
LINE
8
BLACK
6
CONTINUOUS
10
89.1699
20
-58.8036
11
89.1504
21
-58.7744
0
LINE
8
BLACK
6
CONTINUOUS
10
89.1504
20
-58.7744
11
89.1435
21
-58.74
0
LINE
8
BLACK
6
CONTINUOUS
10
89.1435
20
-58.74
11
89.1435
21
-58.56
0
LINE
8
BLACK
6
CONTINUOUS
10
89.1435
20
-58.56
11
89.1504
21
-58.5256
0
LINE
8
BLACK
6
CONTINUOUS
10
89.1504
20
-58.5256
11
89.1699
21
-58.4964
0
LINE
8
BLACK
6
CONTINUOUS
10
89.1699
20
-58.4964
11
89.1991
21
-58.4769
0
LINE
8
BLACK
6
CONTINUOUS
10
89.1991
20
-58.4769
11
89.2335
21
-58.47
0
LINE
8
BLACK
6
CONTINUOUS
10
89.2335
20
-58.47
11
89.5115
21
-58.47
0
LINE
8
BLACK
6
CONTINUOUS
10
89.5115
20
-58.47
11
89.5459
21
-58.4769
0
LINE
8
BLACK
6
CONTINUOUS
10
71.9269
20
-56.69
11
72.1677
21
-56.829
0
LINE
8
BLACK
6
CONTINUOUS
10
72.1677
20
-56.829
11
72.1941
21
-56.8522
0
LINE
8
BLACK
6
CONTINUOUS
10
72.1941
20
-56.8522
11
72.2096
21
-56.8836
0
LINE
8
BLACK
6
CONTINUOUS
10
72.2096
20
-56.8836
11
72.2119
21
-56.9187
0
LINE
8
BLACK
6
CONTINUOUS
10
72.2119
20
-56.9187
11
72.2006
21
-56.9519
0
LINE
8
BLACK
6
CONTINUOUS
10
72.2006
20
-56.9519
11
72.1106
21
-57.1078
0
LINE
8
BLACK
6
CONTINUOUS
10
72.1106
20
-57.1078
11
72.0875
21
-57.1342
0
LINE
8
BLACK
6
CONTINUOUS
10
72.0875
20
-57.1342
11
72.056
21
-57.1498
0
LINE
8
BLACK
6
CONTINUOUS
10
72.056
20
-57.1498
11
72.0209
21
-57.1521
0
LINE
8
BLACK
6
CONTINUOUS
10
72.0209
20
-57.1521
11
71.9877
21
-57.1408
0
LINE
8
BLACK
6
CONTINUOUS
10
71.9877
20
-57.1408
11
71.7469
21
-57.0018
0
LINE
8
BLACK
6
CONTINUOUS
10
71.7469
20
-57.0018
11
71.7205
21
-56.9786
0
LINE
8
BLACK
6
CONTINUOUS
10
71.7205
20
-56.9786
11
71.705
21
-56.9471
0
LINE
8
BLACK
6
CONTINUOUS
10
71.705
20
-56.9471
11
71.7027
21
-56.9121
0
LINE
8
BLACK
6
CONTINUOUS
10
71.7027
20
-56.9121
11
71.714
21
-56.8788
0
LINE
8
BLACK
6
CONTINUOUS
10
71.714
20
-56.8788
11
71.804
21
-56.7229
0
LINE
8
BLACK
6
CONTINUOUS
10
71.804
20
-56.7229
11
71.8271
21
-56.6965
0
LINE
8
BLACK
6
CONTINUOUS
10
71.8271
20
-56.6965
11
71.8586
21
-56.681
0
LINE
8
BLACK
6
CONTINUOUS
10
71.8586
20
-56.681
11
71.8937
21
-56.6787
0
LINE
8
BLACK
6
CONTINUOUS
10
71.8937
20
-56.6787
11
71.9269
21
-56.69
0
LINE
8
BLACK
6
CONTINUOUS
10
71.1778
20
-56.2575
11
71.4186
21
-56.3965
0
LINE
8
BLACK
6
CONTINUOUS
10
71.4186
20
-56.3965
11
71.445
21
-56.4197
0
LINE
8
BLACK
6
CONTINUOUS
10
71.445
20
-56.4197
11
71.4605
21
-56.4511
0
LINE
8
BLACK
6
CONTINUOUS
10
71.4605
20
-56.4511
11
71.4628
21
-56.4862
0
LINE
8
BLACK
6
CONTINUOUS
10
71.4628
20
-56.4862
11
71.4515
21
-56.5194
0
LINE
8
BLACK
6
CONTINUOUS
10
71.4515
20
-56.5194
11
71.3615
21
-56.6753
0
LINE
8
BLACK
6
CONTINUOUS
10
71.3615
20
-56.6753
11
71.3383
21
-56.7017
0
LINE
8
BLACK
6
CONTINUOUS
10
71.3383
20
-56.7017
11
71.3068
21
-56.7173
0
LINE
8
BLACK
6
CONTINUOUS
10
71.3068
20
-56.7173
11
71.2718
21
-56.7196
0
LINE
8
BLACK
6
CONTINUOUS
10
71.2718
20
-56.7196
11
71.2386
21
-56.7083
0
LINE
8
BLACK
6
CONTINUOUS
10
71.2386
20
-56.7083
11
70.9978
21
-56.5693
0
LINE
8
BLACK
6
CONTINUOUS
10
70.9978
20
-56.5693
11
70.9714
21
-56.5461
0
LINE
8
BLACK
6
CONTINUOUS
10
70.9714
20
-56.5461
11
70.9559
21
-56.5146
0
LINE
8
BLACK
6
CONTINUOUS
10
70.9559
20
-56.5146
11
70.9536
21
-56.4796
0
LINE
8
BLACK
6
CONTINUOUS
10
70.9536
20
-56.4796
11
70.9649
21
-56.4463
0
LINE
8
BLACK
6
CONTINUOUS
10
70.9649
20
-56.4463
11
71.0549
21
-56.2904
0
LINE
8
BLACK
6
CONTINUOUS
10
71.0549
20
-56.2904
11
71.078
21
-56.264
0
LINE
8
BLACK
6
CONTINUOUS
10
71.078
20
-56.264
11
71.1095
21
-56.2485
0
LINE
8
BLACK
6
CONTINUOUS
10
71.1095
20
-56.2485
11
71.1445
21
-56.2462
0
LINE
8
BLACK
6
CONTINUOUS
10
71.1445
20
-56.2462
11
71.1778
21
-56.2575
0
LINE
8
BLACK
6
CONTINUOUS
10
72.712
20
-56.0232
11
72.462
21
-56.4562
0
LINE
8
BLACK
6
CONTINUOUS
10
72.462
20
-56.4562
11
72.029
21
-56.2062
0
LINE
8
BLACK
6
CONTINUOUS
10
72.029
20
-56.2062
11
72.279
21
-55.7732
0
LINE
8
BLACK
6
CONTINUOUS
10
72.279
20
-55.7732
11
72.712
21
-56.0232
0
LINE
8
BLACK
6
CONTINUOUS
10
87.971
20
-56.2062
11
87.538
21
-56.4562
0
LINE
8
BLACK
6
CONTINUOUS
10
87.538
20
-56.4562
11
87.288
21
-56.0232
0
LINE
8
BLACK
6
CONTINUOUS
10
87.288
20
-56.0232
11
87.721
21
-55.7732
0
LINE
8
BLACK
6
CONTINUOUS
10
87.721
20
-55.7732
11
87.971
21
-56.2062
0
LINE
8
BLACK
6
CONTINUOUS
10
71.9326
20
-55.5732
11
71.6826
21
-56.0062
0
LINE
8
BLACK
6
CONTINUOUS
10
71.6826
20
-56.0062
11
71.2496
21
-55.7562
0
LINE
8
BLACK
6
CONTINUOUS
10
71.2496
20
-55.7562
11
71.4996
21
-55.3232
0
LINE
8
BLACK
6
CONTINUOUS
10
71.4996
20
-55.3232
11
71.9326
21
-55.5732
0
LINE
8
BLACK
6
CONTINUOUS
10
88.7504
20
-55.7562
11
88.3174
21
-56.0062
0
LINE
8
BLACK
6
CONTINUOUS
10
88.3174
20
-56.0062
11
88.0674
21
-55.5732
0
LINE
8
BLACK
6
CONTINUOUS
10
88.0674
20
-55.5732
11
88.5004
21
-55.3232
0
LINE
8
BLACK
6
CONTINUOUS
10
88.5004
20
-55.3232
11
88.7504
21
-55.7562
0
LINE
8
BLACK
6
CONTINUOUS
10
73.162
20
-55.2438
11
72.912
21
-55.6768
0
LINE
8
BLACK
6
CONTINUOUS
10
72.912
20
-55.6768
11
72.479
21
-55.4268
0
LINE
8
BLACK
6
CONTINUOUS
10
72.479
20
-55.4268
11
72.729
21
-54.9938
0
LINE
8
BLACK
6
CONTINUOUS
10
72.729
20
-54.9938
11
73.162
21
-55.2438
0
LINE
8
BLACK
6
CONTINUOUS
10
87.521
20
-55.4268
11
87.088
21
-55.6768
0
LINE
8
BLACK
6
CONTINUOUS
10
87.088
20
-55.6768
11
86.838
21
-55.2438
0
LINE
8
BLACK
6
CONTINUOUS
10
86.838
20
-55.2438
11
87.271
21
-54.9938
0
LINE
8
BLACK
6
CONTINUOUS
10
87.271
20
-54.9938
11
87.521
21
-55.4268
0
LINE
8
BLACK
6
CONTINUOUS
10
72.3826
20
-54.7938
11
72.1326
21
-55.2268
0
LINE
8
BLACK
6
CONTINUOUS
10
72.1326
20
-55.2268
11
71.6996
21
-54.9768
0
LINE
8
BLACK
6
CONTINUOUS
10
71.6996
20
-54.9768
11
71.9496
21
-54.5438
0
LINE
8
BLACK
6
CONTINUOUS
10
71.9496
20
-54.5438
11
72.3826
21
-54.7938
0
LINE
8
BLACK
6
CONTINUOUS
10
88.3004
20
-54.9768
11
87.8674
21
-55.2268
0
LINE
8
BLACK
6
CONTINUOUS
10
87.8674
20
-55.2268
11
87.6174
21
-54.7938
0
LINE
8
BLACK
6
CONTINUOUS
10
87.6174
20
-54.7938
11
88.0504
21
-54.5438
0
LINE
8
BLACK
6
CONTINUOUS
10
88.0504
20
-54.5438
11
88.3004
21
-54.9768
0
LINE
8
BLACK
6
CONTINUOUS
10
86.7914
20
-54.3427
11
86.8229
21
-54.3583
0
LINE
8
BLACK
6
CONTINUOUS
10
86.8229
20
-54.3583
11
86.846
21
-54.3847
0
LINE
8
BLACK
6
CONTINUOUS
10
86.846
20
-54.3847
11
86.936
21
-54.5406
0
LINE
8
BLACK
6
CONTINUOUS
10
86.936
20
-54.5406
11
86.9473
21
-54.5738
0
LINE
8
BLACK
6
CONTINUOUS
10
86.9473
20
-54.5738
11
86.945
21
-54.6089
0
LINE
8
BLACK
6
CONTINUOUS
10
86.945
20
-54.6089
11
86.9295
21
-54.6403
0
LINE
8
BLACK
6
CONTINUOUS
10
86.9295
20
-54.6403
11
86.9031
21
-54.6635
0
LINE
8
BLACK
6
CONTINUOUS
10
86.9031
20
-54.6635
11
86.6623
21
-54.8025
0
LINE
8
BLACK
6
CONTINUOUS
10
86.6623
20
-54.8025
11
86.6291
21
-54.8138
0
LINE
8
BLACK
6
CONTINUOUS
10
86.6291
20
-54.8138
11
86.594
21
-54.8115
0
LINE
8
BLACK
6
CONTINUOUS
10
86.594
20
-54.8115
11
86.5625
21
-54.796
0
LINE
8
BLACK
6
CONTINUOUS
10
86.5625
20
-54.796
11
86.5394
21
-54.7696
0
LINE
8
BLACK
6
CONTINUOUS
10
86.5394
20
-54.7696
11
86.4494
21
-54.6137
0
LINE
8
BLACK
6
CONTINUOUS
10
86.4494
20
-54.6137
11
86.4381
21
-54.5804
0
LINE
8
BLACK
6
CONTINUOUS
10
86.4381
20
-54.5804
11
86.4404
21
-54.5454
0
LINE
8
BLACK
6
CONTINUOUS
10
86.4404
20
-54.5454
11
86.4559
21
-54.5139
0
LINE
8
BLACK
6
CONTINUOUS
10
86.4559
20
-54.5139
11
86.4823
21
-54.4907
0
LINE
8
BLACK
6
CONTINUOUS
10
86.4823
20
-54.4907
11
86.7231
21
-54.3517
0
LINE
8
BLACK
6
CONTINUOUS
10
86.7231
20
-54.3517
11
86.7563
21
-54.3404
0
LINE
8
BLACK
6
CONTINUOUS
10
86.7563
20
-54.3404
11
86.7914
21
-54.3427
0
LINE
8
BLACK
6
CONTINUOUS
10
87.5405
20
-53.9102
11
87.572
21
-53.9258
0
LINE
8
BLACK
6
CONTINUOUS
10
87.572
20
-53.9258
11
87.5951
21
-53.9522
0
LINE
8
BLACK
6
CONTINUOUS
10
87.5951
20
-53.9522
11
87.6851
21
-54.1081
0
LINE
8
BLACK
6
CONTINUOUS
10
87.6851
20
-54.1081
11
87.6964
21
-54.1413
0
LINE
8
BLACK
6
CONTINUOUS
10
87.6964
20
-54.1413
11
87.6941
21
-54.1764
0
LINE
8
BLACK
6
CONTINUOUS
10
87.6941
20
-54.1764
11
87.6786
21
-54.2078
0
LINE
8
BLACK
6
CONTINUOUS
10
87.6786
20
-54.2078
11
87.6522
21
-54.231
0
LINE
8
BLACK
6
CONTINUOUS
10
87.6522
20
-54.231
11
87.4114
21
-54.37
0
LINE
8
BLACK
6
CONTINUOUS
10
87.4114
20
-54.37
11
87.3782
21
-54.3813
0
LINE
8
BLACK
6
CONTINUOUS
10
87.3782
20
-54.3813
11
87.3432
21
-54.379
0
LINE
8
BLACK
6
CONTINUOUS
10
87.3432
20
-54.379
11
87.3117
21
-54.3635
0
LINE
8
BLACK
6
CONTINUOUS
10
87.3117
20
-54.3635
11
87.2885
21
-54.3371
0
LINE
8
BLACK
6
CONTINUOUS
10
87.2885
20
-54.3371
11
87.1985
21
-54.1812
0
LINE
8
BLACK
6
CONTINUOUS
10
87.1985
20
-54.1812
11
87.1872
21
-54.1479
0
LINE
8
BLACK
6
CONTINUOUS
10
87.1872
20
-54.1479
11
87.1895
21
-54.1129
0
LINE
8
BLACK
6
CONTINUOUS
10
87.1895
20
-54.1129
11
87.205
21
-54.0814
0
LINE
8
BLACK
6
CONTINUOUS
10
87.205
20
-54.0814
11
87.2314
21
-54.0582
0
LINE
8
BLACK
6
CONTINUOUS
10
87.2314
20
-54.0582
11
87.4722
21
-53.9192
0
LINE
8
BLACK
6
CONTINUOUS
10
87.4722
20
-53.9192
11
87.5055
21
-53.9079
0
LINE
8
BLACK
6
CONTINUOUS
10
87.5055
20
-53.9079
11
87.5405
21
-53.9102
0
LINE
8
BLACK
6
CONTINUOUS
10
74.6089
20
-53.055
11
74.6403
21
-53.0705
0
LINE
8
BLACK
6
CONTINUOUS
10
74.6403
20
-53.0705
11
74.6635
21
-53.0969
0
LINE
8
BLACK
6
CONTINUOUS
10
74.6635
20
-53.0969
11
74.8025
21
-53.3377
0
LINE
8
BLACK
6
CONTINUOUS
10
74.8025
20
-53.3377
11
74.8138
21
-53.3709
0
LINE
8
BLACK
6
CONTINUOUS
10
74.8138
20
-53.3709
11
74.8115
21
-53.406
0
LINE
8
BLACK
6
CONTINUOUS
10
74.8115
20
-53.406
11
74.796
21
-53.4375
0
LINE
8
BLACK
6
CONTINUOUS
10
74.796
20
-53.4375
11
74.7696
21
-53.4606
0
LINE
8
BLACK
6
CONTINUOUS
10
74.7696
20
-53.4606
11
74.6137
21
-53.5506
0
LINE
8
BLACK
6
CONTINUOUS
10
74.6137
20
-53.5506
11
74.5804
21
-53.5619
0
LINE
8
BLACK
6
CONTINUOUS
10
74.5804
20
-53.5619
11
74.5454
21
-53.5596
0
LINE
8
BLACK
6
CONTINUOUS
10
74.5454
20
-53.5596
11
74.5139
21
-53.5441
0
LINE
8
BLACK
6
CONTINUOUS
10
74.5139
20
-53.5441
11
74.4907
21
-53.5177
0
LINE
8
BLACK
6
CONTINUOUS
10
74.4907
20
-53.5177
11
74.3517
21
-53.2769
0
LINE
8
BLACK
6
CONTINUOUS
10
74.3517
20
-53.2769
11
74.3404
21
-53.2437
0
LINE
8
BLACK
6
CONTINUOUS
10
74.3404
20
-53.2437
11
74.3427
21
-53.2086
0
LINE
8
BLACK
6
CONTINUOUS
10
74.3427
20
-53.2086
11
74.3583
21
-53.1771
0
LINE
8
BLACK
6
CONTINUOUS
10
74.3583
20
-53.1771
11
74.3847
21
-53.154
0
LINE
8
BLACK
6
CONTINUOUS
10
74.3847
20
-53.154
11
74.5406
21
-53.064
0
LINE
8
BLACK
6
CONTINUOUS
10
74.5406
20
-53.064
11
74.5738
21
-53.0527
0
LINE
8
BLACK
6
CONTINUOUS
10
74.5738
20
-53.0527
11
74.6089
21
-53.055
0
LINE
8
BLACK
6
CONTINUOUS
10
75.6768
20
-52.912
11
75.2438
21
-53.162
0
LINE
8
BLACK
6
CONTINUOUS
10
75.2438
20
-53.162
11
74.9938
21
-52.729
0
LINE
8
BLACK
6
CONTINUOUS
10
74.9938
20
-52.729
11
75.4268
21
-52.479
0
LINE
8
BLACK
6
CONTINUOUS
10
75.4268
20
-52.479
11
75.6768
21
-52.912
0
LINE
8
BLACK
6
CONTINUOUS
10
85.0062
20
-52.729
11
84.7562
21
-53.162
0
LINE
8
BLACK
6
CONTINUOUS
10
84.7562
20
-53.162
11
84.3232
21
-52.912
0
LINE
8
BLACK
6
CONTINUOUS
10
84.3232
20
-52.912
11
84.5732
21
-52.479
0
LINE
8
BLACK
6
CONTINUOUS
10
84.5732
20
-52.479
11
85.0062
21
-52.729
0
LINE
8
BLACK
6
CONTINUOUS
10
74.1764
20
-52.3059
11
74.2078
21
-52.3214
0
LINE
8
BLACK
6
CONTINUOUS
10
74.2078
20
-52.3214
11
74.231
21
-52.3478
0
LINE
8
BLACK
6
CONTINUOUS
10
74.231
20
-52.3478
11
74.37
21
-52.5886
0
LINE
8
BLACK
6
CONTINUOUS
10
74.37
20
-52.5886
11
74.3813
21
-52.6218
0
LINE
8
BLACK
6
CONTINUOUS
10
74.3813
20
-52.6218
11
74.379
21
-52.6568
0
LINE
8
BLACK
6
CONTINUOUS
10
74.379
20
-52.6568
11
74.3635
21
-52.6883
0
LINE
8
BLACK
6
CONTINUOUS
10
74.3635
20
-52.6883
11
74.3371
21
-52.7115
0
LINE
8
BLACK
6
CONTINUOUS
10
74.3371
20
-52.7115
11
74.1812
21
-52.8015
0
LINE
8
BLACK
6
CONTINUOUS
10
74.1812
20
-52.8015
11
74.1479
21
-52.8128
0
LINE
8
BLACK
6
CONTINUOUS
10
74.1479
20
-52.8128
11
74.1129
21
-52.8105
0
LINE
8
BLACK
6
CONTINUOUS
10
74.1129
20
-52.8105
11
74.0814
21
-52.795
0
LINE
8
BLACK
6
CONTINUOUS
10
74.0814
20
-52.795
11
74.0582
21
-52.7686
0
LINE
8
BLACK
6
CONTINUOUS
10
74.0582
20
-52.7686
11
73.9192
21
-52.5278
0
LINE
8
BLACK
6
CONTINUOUS
10
73.9192
20
-52.5278
11
73.9079
21
-52.4945
0
LINE
8
BLACK
6
CONTINUOUS
10
73.9079
20
-52.4945
11
73.9102
21
-52.4595
0
LINE
8
BLACK
6
CONTINUOUS
10
73.9102
20
-52.4595
11
73.9258
21
-52.428
0
LINE
8
BLACK
6
CONTINUOUS
10
73.9258
20
-52.428
11
73.9522
21
-52.4049
0
LINE
8
BLACK
6
CONTINUOUS
10
73.9522
20
-52.4049
11
74.1081
21
-52.3149
0
LINE
8
BLACK
6
CONTINUOUS
10
74.1081
20
-52.3149
11
74.1413
21
-52.3036
0
LINE
8
BLACK
6
CONTINUOUS
10
74.1413
20
-52.3036
11
74.1764
21
-52.3059
0
LINE
8
BLACK
6
CONTINUOUS
10
76.4562
20
-52.462
11
76.0232
21
-52.712
0
LINE
8
BLACK
6
CONTINUOUS
10
76.0232
20
-52.712
11
75.7732
21
-52.279
0
LINE
8
BLACK
6
CONTINUOUS
10
75.7732
20
-52.279
11
76.2062
21
-52.029
0
LINE
8
BLACK
6
CONTINUOUS
10
76.2062
20
-52.029
11
76.4562
21
-52.462
0
LINE
8
BLACK
6
CONTINUOUS
10
84.2268
20
-52.279
11
83.9768
21
-52.712
0
LINE
8
BLACK
6
CONTINUOUS
10
83.9768
20
-52.712
11
83.5438
21
-52.462
0
LINE
8
BLACK
6
CONTINUOUS
10
83.5438
20
-52.462
11
83.7938
21
-52.029
0
LINE
8
BLACK
6
CONTINUOUS
10
83.7938
20
-52.029
11
84.2268
21
-52.279
0
LINE
8
BLACK
6
CONTINUOUS
10
75.2268
20
-52.1326
11
74.7938
21
-52.3826
0
LINE
8
BLACK
6
CONTINUOUS
10
74.7938
20
-52.3826
11
74.5438
21
-51.9496
0
LINE
8
BLACK
6
CONTINUOUS
10
74.5438
20
-51.9496
11
74.9768
21
-51.6996
0
LINE
8
BLACK
6
CONTINUOUS
10
74.9768
20
-51.6996
11
75.2268
21
-52.1326
0
LINE
8
BLACK
6
CONTINUOUS
10
85.4562
20
-51.9496
11
85.2062
21
-52.3826
0
LINE
8
BLACK
6
CONTINUOUS
10
85.2062
20
-52.3826
11
84.7732
21
-52.1326
0
LINE
8
BLACK
6
CONTINUOUS
10
84.7732
20
-52.1326
11
85.0232
21
-51.6996
0
LINE
8
BLACK
6
CONTINUOUS
10
85.0232
20
-51.6996
11
85.4562
21
-51.9496
0
LINE
8
BLACK
6
CONTINUOUS
10
83.1212
20
-51.714
11
83.2771
21
-51.804
0
LINE
8
BLACK
6
CONTINUOUS
10
83.2771
20
-51.804
11
83.3035
21
-51.8271
0
LINE
8
BLACK
6
CONTINUOUS
10
83.3035
20
-51.8271
11
83.319
21
-51.8586
0
LINE
8
BLACK
6
CONTINUOUS
10
83.319
20
-51.8586
11
83.3213
21
-51.8937
0
LINE
8
BLACK
6
CONTINUOUS
10
83.3213
20
-51.8937
11
83.31
21
-51.9269
0
LINE
8
BLACK
6
CONTINUOUS
10
83.31
20
-51.9269
11
83.171
21
-52.1677
0
LINE
8
BLACK
6
CONTINUOUS
10
83.171
20
-52.1677
11
83.1478
21
-52.1941
0
LINE
8
BLACK
6
CONTINUOUS
10
83.1478
20
-52.1941
11
83.1164
21
-52.2096
0
LINE
8
BLACK
6
CONTINUOUS
10
83.1164
20
-52.2096
11
83.0813
21
-52.2119
0
LINE
8
BLACK
6
CONTINUOUS
10
83.0813
20
-52.2119
11
83.0481
21
-52.2006
0
LINE
8
BLACK
6
CONTINUOUS
10
83.0481
20
-52.2006
11
82.8922
21
-52.1106
0
LINE
8
BLACK
6
CONTINUOUS
10
82.8922
20
-52.1106
11
82.8658
21
-52.0875
0
LINE
8
BLACK
6
CONTINUOUS
10
82.8658
20
-52.0875
11
82.8502
21
-52.056
0
LINE
8
BLACK
6
CONTINUOUS
10
82.8502
20
-52.056
11
82.8479
21
-52.0209
0
LINE
8
BLACK
6
CONTINUOUS
10
82.8479
20
-52.0209
11
82.8592
21
-51.9877
0
LINE
8
BLACK
6
CONTINUOUS
10
82.8592
20
-51.9877
11
82.9982
21
-51.7469
0
LINE
8
BLACK
6
CONTINUOUS
10
82.9982
20
-51.7469
11
83.0214
21
-51.7205
0
LINE
8
BLACK
6
CONTINUOUS
10
83.0214
20
-51.7205
11
83.0529
21
-51.705
0
LINE
8
BLACK
6
CONTINUOUS
10
83.0529
20
-51.705
11
83.0879
21
-51.7027
0
LINE
8
BLACK
6
CONTINUOUS
10
83.0879
20
-51.7027
11
83.1212
21
-51.714
0
LINE
8
BLACK
6
CONTINUOUS
10
76.0062
20
-51.6826
11
75.5732
21
-51.9326
0
LINE
8
BLACK
6
CONTINUOUS
10
75.5732
20
-51.9326
11
75.3232
21
-51.4996
0
LINE
8
BLACK
6
CONTINUOUS
10
75.3232
20
-51.4996
11
75.7562
21
-51.2496
0
LINE
8
BLACK
6
CONTINUOUS
10
75.7562
20
-51.2496
11
76.0062
21
-51.6826
0
LINE
8
BLACK
6
CONTINUOUS
10
84.6768
20
-51.4996
11
84.4268
21
-51.9326
0
LINE
8
BLACK
6
CONTINUOUS
10
84.4268
20
-51.9326
11
83.9938
21
-51.6826
0
LINE
8
BLACK
6
CONTINUOUS
10
83.9938
20
-51.6826
11
84.2438
21
-51.2496
0
LINE
8
BLACK
6
CONTINUOUS
10
84.2438
20
-51.2496
11
84.6768
21
-51.4996
0
LINE
8
BLACK
6
CONTINUOUS
10
78.7744
20
-51.2704
11
78.8036
21
-51.2899
0
LINE
8
BLACK
6
CONTINUOUS
10
78.8036
20
-51.2899
11
78.8231
21
-51.3191
0
LINE
8
BLACK
6
CONTINUOUS
10
78.8231
20
-51.3191
11
78.83
21
-51.3535
0
LINE
8
BLACK
6
CONTINUOUS
10
78.83
20
-51.3535
11
78.83
21
-51.6315
0
LINE
8
BLACK
6
CONTINUOUS
10
78.83
20
-51.6315
11
78.8231
21
-51.6659
0
LINE
8
BLACK
6
CONTINUOUS
10
78.8231
20
-51.6659
11
78.8036
21
-51.6951
0
LINE
8
BLACK
6
CONTINUOUS
10
78.8036
20
-51.6951
11
78.7744
21
-51.7146
0
LINE
8
BLACK
6
CONTINUOUS
10
78.7744
20
-51.7146
11
78.74
21
-51.7215
0
LINE
8
BLACK
6
CONTINUOUS
10
78.74
20
-51.7215
11
78.56
21
-51.7215
0
LINE
8
BLACK
6
CONTINUOUS
10
78.56
20
-51.7215
11
78.5256
21
-51.7146
0
LINE
8
BLACK
6
CONTINUOUS
10
78.5256
20
-51.7146
11
78.4964
21
-51.6951
0
LINE
8
BLACK
6
CONTINUOUS
10
78.4964
20
-51.6951
11
78.4769
21
-51.6659
0
LINE
8
BLACK
6
CONTINUOUS
10
78.4769
20
-51.6659
11
78.47
21
-51.6315
0
LINE
8
BLACK
6
CONTINUOUS
10
78.47
20
-51.6315
11
78.47
21
-51.3535
0
LINE
8
BLACK
6
CONTINUOUS
10
78.47
20
-51.3535
11
78.4769
21
-51.3191
0
LINE
8
BLACK
6
CONTINUOUS
10
78.4769
20
-51.3191
11
78.4964
21
-51.2899
0
LINE
8
BLACK
6
CONTINUOUS
10
78.4964
20
-51.2899
11
78.5256
21
-51.2704
0
LINE
8
BLACK
6
CONTINUOUS
10
78.5256
20
-51.2704
11
78.56
21
-51.2635
0
LINE
8
BLACK
6
CONTINUOUS
10
78.56
20
-51.2635
11
78.74
21
-51.2635
0
LINE
8
BLACK
6
CONTINUOUS
10
78.74
20
-51.2635
11
78.7744
21
-51.2704
0
LINE
8
BLACK
6
CONTINUOUS
10
79.8
20
-51.7
11
79.3
21
-51.7
0
LINE
8
BLACK
6
CONTINUOUS
10
79.3
20
-51.7
11
79.3
21
-51.2
0
LINE
8
BLACK
6
CONTINUOUS
10
79.3
20
-51.2
11
79.8
21
-51.2
0
LINE
8
BLACK
6
CONTINUOUS
10
79.8
20
-51.2
11
79.8
21
-51.7
0
LINE
8
BLACK
6
CONTINUOUS
10
80.7
20
-51.7
11
80.2
21
-51.7
0
LINE
8
BLACK
6
CONTINUOUS
10
80.2
20
-51.7
11
80.2
21
-51.2
0
LINE
8
BLACK
6
CONTINUOUS
10
80.2
20
-51.2
11
80.7
21
-51.2
0
LINE
8
BLACK
6
CONTINUOUS
10
80.7
20
-51.2
11
80.7
21
-51.7
0
LINE
8
BLACK
6
CONTINUOUS
10
83.5537
20
-50.9649
11
83.7096
21
-51.0549
0
LINE
8
BLACK
6
CONTINUOUS
10
83.7096
20
-51.0549
11
83.736
21
-51.078
0
LINE
8
BLACK
6
CONTINUOUS
10
83.736
20
-51.078
11
83.7515
21
-51.1095
0
LINE
8
BLACK
6
CONTINUOUS
10
83.7515
20
-51.1095
11
83.7538
21
-51.1445
0
LINE
8
BLACK
6
CONTINUOUS
10
83.7538
20
-51.1445
11
83.7425
21
-51.1778
0
LINE
8
BLACK
6
CONTINUOUS
10
83.7425
20
-51.1778
11
83.6035
21
-51.4186
0
LINE
8
BLACK
6
CONTINUOUS
10
83.6035
20
-51.4186
11
83.5803
21
-51.445
0
LINE
8
BLACK
6
CONTINUOUS
10
83.5803
20
-51.445
11
83.5489
21
-51.4605
0
LINE
8
BLACK
6
CONTINUOUS
10
83.5489
20
-51.4605
11
83.5138
21
-51.4628
0
LINE
8
BLACK
6
CONTINUOUS
10
83.5138
20
-51.4628
11
83.4806
21
-51.4515
0
LINE
8
BLACK
6
CONTINUOUS
10
83.4806
20
-51.4515
11
83.3247
21
-51.3615
0
LINE
8
BLACK
6
CONTINUOUS
10
83.3247
20
-51.3615
11
83.2983
21
-51.3383
0
LINE
8
BLACK
6
CONTINUOUS
10
83.2983
20
-51.3383
11
83.2827
21
-51.3068
0
LINE
8
BLACK
6
CONTINUOUS
10
83.2827
20
-51.3068
11
83.2804
21
-51.2718
0
LINE
8
BLACK
6
CONTINUOUS
10
83.2804
20
-51.2718
11
83.2917
21
-51.2386
0
LINE
8
BLACK
6
CONTINUOUS
10
83.2917
20
-51.2386
11
83.4307
21
-50.9978
0
LINE
8
BLACK
6
CONTINUOUS
10
83.4307
20
-50.9978
11
83.4539
21
-50.9714
0
LINE
8
BLACK
6
CONTINUOUS
10
83.4539
20
-50.9714
11
83.4854
21
-50.9559
0
LINE
8
BLACK
6
CONTINUOUS
10
83.4854
20
-50.9559
11
83.5204
21
-50.9536
0
LINE
8
BLACK
6
CONTINUOUS
10
83.5204
20
-50.9536
11
83.5537
21
-50.9649
0
LINE
8
BLACK
6
CONTINUOUS
10
78.7744
20
-50.4054
11
78.8036
21
-50.4249
0
LINE
8
BLACK
6
CONTINUOUS
10
78.8036
20
-50.4249
11
78.8231
21
-50.4541
0
LINE
8
BLACK
6
CONTINUOUS
10
78.8231
20
-50.4541
11
78.83
21
-50.4885
0
LINE
8
BLACK
6
CONTINUOUS
10
78.83
20
-50.4885
11
78.83
21
-50.7665
0
LINE
8
BLACK
6
CONTINUOUS
10
78.83
20
-50.7665
11
78.8231
21
-50.8009
0
LINE
8
BLACK
6
CONTINUOUS
10
78.8231
20
-50.8009
11
78.8036
21
-50.8301
0
LINE
8
BLACK
6
CONTINUOUS
10
78.8036
20
-50.8301
11
78.7744
21
-50.8496
0
LINE
8
BLACK
6
CONTINUOUS
10
78.7744
20
-50.8496
11
78.74
21
-50.8565
0
LINE
8
BLACK
6
CONTINUOUS
10
78.74
20
-50.8565
11
78.56
21
-50.8565
0
LINE
8
BLACK
6
CONTINUOUS
10
78.56
20
-50.8565
11
78.5256
21
-50.8496
0
LINE
8
BLACK
6
CONTINUOUS
10
78.5256
20
-50.8496
11
78.4964
21
-50.8301
0
LINE
8
BLACK
6
CONTINUOUS
10
78.4964
20
-50.8301
11
78.4769
21
-50.8009
0
LINE
8
BLACK
6
CONTINUOUS
10
78.4769
20
-50.8009
11
78.47
21
-50.7665
0
LINE
8
BLACK
6
CONTINUOUS
10
78.47
20
-50.7665
11
78.47
21
-50.4885
0
LINE
8
BLACK
6
CONTINUOUS
10
78.47
20
-50.4885
11
78.4769
21
-50.4541
0
LINE
8
BLACK
6
CONTINUOUS
10
78.4769
20
-50.4541
11
78.4964
21
-50.4249
0
LINE
8
BLACK
6
CONTINUOUS
10
78.4964
20
-50.4249
11
78.5256
21
-50.4054
0
LINE
8
BLACK
6
CONTINUOUS
10
78.5256
20
-50.4054
11
78.56
21
-50.3985
0
LINE
8
BLACK
6
CONTINUOUS
10
78.56
20
-50.3985
11
78.74
21
-50.3985
0
LINE
8
BLACK
6
CONTINUOUS
10
78.74
20
-50.3985
11
78.7744
21
-50.4054
0
LINE
8
BLACK
6
CONTINUOUS
10
79.8
20
-50.8
11
79.3
21
-50.8
0
LINE
8
BLACK
6
CONTINUOUS
10
79.3
20
-50.8
11
79.3
21
-50.3
0
LINE
8
BLACK
6
CONTINUOUS
10
79.3
20
-50.3
11
79.8
21
-50.3
0
LINE
8
BLACK
6
CONTINUOUS
10
79.8
20
-50.3
11
79.8
21
-50.8
0
LINE
8
BLACK
6
CONTINUOUS
10
80.7
20
-50.8
11
80.2
21
-50.8
0
LINE
8
BLACK
6
CONTINUOUS
10
80.2
20
-50.8
11
80.2
21
-50.3
0
LINE
8
BLACK
6
CONTINUOUS
10
80.2
20
-50.3
11
80.7
21
-50.3
0
LINE
8
BLACK
6
CONTINUOUS
10
80.7
20
-50.3
11
80.7
21
-50.8
  0
ENDSEC
  0
EOF
