  0
SECTION
  2
HEADER
  9
$ANGBASE
  50
0.0
  9
$ANGDIR
  70
1
  9
$MEASUREMENT
  70
1
  0
ENDSEC
  0
SECTION
  2
TABLES
  0
TABLE
  2
LTYPE
  70
4
  0
LTYPE
  5
40F
  2
CONTINUOUS
  70
0
  3
Solid line
  72
65
  73
0
  40
0.0
  0
LTYPE
  5
410
  2
DASHDOT
 70
0
  3
Dash Dot ____ _ ____ _
 72
65
 73
4
 40
2.0
 49
1.25
 49
-0.25
 49
0.25
 49
-0.25
  0
LTYPE
  5
411
  2
DASHED
 70
0
  3
Dashed __ __ __ __ __
 72
65
 73
2
 40
0.75
 49
0.5
 49
-0.25
  0
LTYPE
  5
43B
  2
DOTTED
 70
0
  3
Dotted .  .  .  .
 72
65
 73
2
 40
0.2
 49
0.0
 49
-0.2
  0
ENDTAB
  0
TABLE
  2
STYLE
  70
4
  0
STYLE
  2
KICAD
  70
0
  40
0
  41
1
  42
1
  50
0
  71
0
  3
isocp.shx
  0
STYLE
  2
KICADB
  70
0
  40
0
  41
1
  42
1
  50
0
  71
0
  3
isocp.shx
  0
STYLE
  2
KICADI
  70
0
  40
0
  41
1
  42
1
  50
15
  71
0
  3
isocp.shx
  0
STYLE
  2
KICADBI
  70
0
  40
0
  41
1
  42
1
  50
15
  71
0
  3
isocp.shx
  0
ENDTAB
  0
TABLE
  2
LAYER
  70
1
  0
LAYER
  2
BLACK
  70
0
  62
7
  6
CONTINUOUS
  0
ENDTAB
  0
ENDSEC
  0
SECTION
  2
ENTITIES
0
LINE
8
BLACK
6
CONTINUOUS
10
85.25
20
-71
11
82.5
21
-71
0
LINE
8
BLACK
6
CONTINUOUS
10
82.5
20
-71
11
82.5
21
-70
0
LINE
8
BLACK
6
CONTINUOUS
10
82.5
20
-70
11
85.25
21
-70
0
LINE
8
BLACK
6
CONTINUOUS
10
85.25
20
-70
11
85.25
21
-71
0
LINE
8
BLACK
6
CONTINUOUS
10
91.5
20
-71
11
88.75
21
-71
0
LINE
8
BLACK
6
CONTINUOUS
10
88.75
20
-71
11
88.75
21
-70
0
LINE
8
BLACK
6
CONTINUOUS
10
88.75
20
-70
11
91.5
21
-70
0
LINE
8
BLACK
6
CONTINUOUS
10
91.5
20
-70
11
91.5
21
-71
0
LINE
8
BLACK
6
CONTINUOUS
10
85.25
20
-69
11
82.5
21
-69
0
LINE
8
BLACK
6
CONTINUOUS
10
82.5
20
-69
11
82.5
21
-68
0
LINE
8
BLACK
6
CONTINUOUS
10
82.5
20
-68
11
85.25
21
-68
0
LINE
8
BLACK
6
CONTINUOUS
10
85.25
20
-68
11
85.25
21
-69
0
LINE
8
BLACK
6
CONTINUOUS
10
91.5
20
-69
11
88.75
21
-69
0
LINE
8
BLACK
6
CONTINUOUS
10
88.75
20
-69
11
88.75
21
-68
0
LINE
8
BLACK
6
CONTINUOUS
10
88.75
20
-68
11
91.5
21
-68
0
LINE
8
BLACK
6
CONTINUOUS
10
91.5
20
-68
11
91.5
21
-69
0
LINE
8
BLACK
6
CONTINUOUS
10
89
20
-64.5
11
88
21
-64.5
0
LINE
8
BLACK
6
CONTINUOUS
10
88
20
-64.5
11
88
21
-61.75
0
LINE
8
BLACK
6
CONTINUOUS
10
88
20
-61.75
11
89
21
-61.75
0
LINE
8
BLACK
6
CONTINUOUS
10
89
20
-61.75
11
89
21
-64.5
0
LINE
8
BLACK
6
CONTINUOUS
10
91
20
-64.5
11
90
21
-64.5
0
LINE
8
BLACK
6
CONTINUOUS
10
90
20
-64.5
11
90
21
-61.75
0
LINE
8
BLACK
6
CONTINUOUS
10
90
20
-61.75
11
91
21
-61.75
0
LINE
8
BLACK
6
CONTINUOUS
10
91
20
-61.75
11
91
21
-64.5
0
LINE
8
BLACK
6
CONTINUOUS
10
89
20
-58.25
11
88
21
-58.25
0
LINE
8
BLACK
6
CONTINUOUS
10
88
20
-58.25
11
88
21
-55.5
0
LINE
8
BLACK
6
CONTINUOUS
10
88
20
-55.5
11
89
21
-55.5
0
LINE
8
BLACK
6
CONTINUOUS
10
89
20
-55.5
11
89
21
-58.25
0
LINE
8
BLACK
6
CONTINUOUS
10
91
20
-58.25
11
90
21
-58.25
0
LINE
8
BLACK
6
CONTINUOUS
10
90
20
-58.25
11
90
21
-55.5
0
LINE
8
BLACK
6
CONTINUOUS
10
90
20
-55.5
11
91
21
-55.5
0
LINE
8
BLACK
6
CONTINUOUS
10
91
20
-55.5
11
91
21
-58.25
  0
ENDSEC
  0
EOF
