  0
SECTION
  2
HEADER
  9
$ANGBASE
  50
0.0
  9
$ANGDIR
  70
1
  9
$MEASUREMENT
  70
1
  0
ENDSEC
  0
SECTION
  2
TABLES
  0
TABLE
  2
LTYPE
  70
4
  0
LTYPE
  5
40F
  2
CONTINUOUS
  70
0
  3
Solid line
  72
65
  73
0
  40
0.0
  0
LTYPE
  5
410
  2
DASHDOT
 70
0
  3
Dash Dot ____ _ ____ _
 72
65
 73
4
 40
2.0
 49
1.25
 49
-0.25
 49
0.25
 49
-0.25
  0
LTYPE
  5
411
  2
DASHED
 70
0
  3
Dashed __ __ __ __ __
 72
65
 73
2
 40
0.75
 49
0.5
 49
-0.25
  0
LTYPE
  5
43B
  2
DOTTED
 70
0
  3
Dotted .  .  .  .
 72
65
 73
2
 40
0.2
 49
0.0
 49
-0.2
  0
ENDTAB
  0
TABLE
  2
STYLE
  70
4
  0
STYLE
  2
KICAD
  70
0
  40
0
  41
1
  42
1
  50
0
  71
0
  3
isocp.shx
  0
STYLE
  2
KICADB
  70
0
  40
0
  41
1
  42
1
  50
0
  71
0
  3
isocp.shx
  0
STYLE
  2
KICADI
  70
0
  40
0
  41
1
  42
1
  50
15
  71
0
  3
isocp.shx
  0
STYLE
  2
KICADBI
  70
0
  40
0
  41
1
  42
1
  50
15
  71
0
  3
isocp.shx
  0
ENDTAB
  0
TABLE
  2
LAYER
  70
1
  0
LAYER
  2
BLACK
  70
0
  62
7
  6
CONTINUOUS
  0
ENDTAB
  0
ENDSEC
  0
SECTION
  2
ENTITIES
0
LINE
8
BLACK
6
CONTINUOUS
10
93.56
20
-72.1
11
92.56
21
-72.1
0
LINE
8
BLACK
6
CONTINUOUS
10
92.56
20
-72.1
11
92.56
21
-68.95
0
LINE
8
BLACK
6
CONTINUOUS
10
92.56
20
-68.95
11
93.56
21
-68.95
0
LINE
8
BLACK
6
CONTINUOUS
10
93.56
20
-68.95
11
93.56
21
-72.1
0
LINE
8
BLACK
6
CONTINUOUS
10
96.1
20
-72.1
11
95.1
21
-72.1
0
LINE
8
BLACK
6
CONTINUOUS
10
95.1
20
-72.1
11
95.1
21
-68.95
0
LINE
8
BLACK
6
CONTINUOUS
10
95.1
20
-68.95
11
96.1
21
-68.95
0
LINE
8
BLACK
6
CONTINUOUS
10
96.1
20
-68.95
11
96.1
21
-72.1
0
LINE
8
BLACK
6
CONTINUOUS
10
98.64
20
-72.1
11
97.64
21
-72.1
0
LINE
8
BLACK
6
CONTINUOUS
10
97.64
20
-72.1
11
97.64
21
-68.95
0
LINE
8
BLACK
6
CONTINUOUS
10
97.64
20
-68.95
11
98.64
21
-68.95
0
LINE
8
BLACK
6
CONTINUOUS
10
98.64
20
-68.95
11
98.64
21
-72.1
0
LINE
8
BLACK
6
CONTINUOUS
10
93.56
20
-67.05
11
92.56
21
-67.05
0
LINE
8
BLACK
6
CONTINUOUS
10
92.56
20
-67.05
11
92.56
21
-63.9
0
LINE
8
BLACK
6
CONTINUOUS
10
92.56
20
-63.9
11
93.56
21
-63.9
0
LINE
8
BLACK
6
CONTINUOUS
10
93.56
20
-63.9
11
93.56
21
-67.05
0
LINE
8
BLACK
6
CONTINUOUS
10
96.1
20
-67.05
11
95.1
21
-67.05
0
LINE
8
BLACK
6
CONTINUOUS
10
95.1
20
-67.05
11
95.1
21
-63.9
0
LINE
8
BLACK
6
CONTINUOUS
10
95.1
20
-63.9
11
96.1
21
-63.9
0
LINE
8
BLACK
6
CONTINUOUS
10
96.1
20
-63.9
11
96.1
21
-67.05
0
LINE
8
BLACK
6
CONTINUOUS
10
98.64
20
-67.05
11
97.64
21
-67.05
0
LINE
8
BLACK
6
CONTINUOUS
10
97.64
20
-67.05
11
97.64
21
-63.9
0
LINE
8
BLACK
6
CONTINUOUS
10
97.64
20
-63.9
11
98.64
21
-63.9
0
LINE
8
BLACK
6
CONTINUOUS
10
98.64
20
-63.9
11
98.64
21
-67.05
0
LINE
8
BLACK
6
CONTINUOUS
10
92.5707
20
-58.219
11
92.6518
21
-58.2732
0
LINE
8
BLACK
6
CONTINUOUS
10
92.6518
20
-58.2732
11
92.706
21
-58.3543
0
LINE
8
BLACK
6
CONTINUOUS
10
92.706
20
-58.3543
11
92.725
21
-58.45
0
LINE
8
BLACK
6
CONTINUOUS
10
92.725
20
-58.45
11
92.725
21
-59.55
0
LINE
8
BLACK
6
CONTINUOUS
10
92.725
20
-59.55
11
92.706
21
-59.6457
0
LINE
8
BLACK
6
CONTINUOUS
10
92.706
20
-59.6457
11
92.6518
21
-59.7268
0
LINE
8
BLACK
6
CONTINUOUS
10
92.6518
20
-59.7268
11
92.5707
21
-59.781
0
LINE
8
BLACK
6
CONTINUOUS
10
92.5707
20
-59.781
11
92.475
21
-59.8
0
LINE
8
BLACK
6
CONTINUOUS
10
92.475
20
-59.8
11
90.2
21
-59.8
0
LINE
8
BLACK
6
CONTINUOUS
10
90.2
20
-59.8
11
90.1043
21
-59.781
0
LINE
8
BLACK
6
CONTINUOUS
10
90.1043
20
-59.781
11
90.0232
21
-59.7268
0
LINE
8
BLACK
6
CONTINUOUS
10
90.0232
20
-59.7268
11
89.969
21
-59.6457
0
LINE
8
BLACK
6
CONTINUOUS
10
89.969
20
-59.6457
11
89.95
21
-59.55
0
LINE
8
BLACK
6
CONTINUOUS
10
89.95
20
-59.55
11
89.95
21
-58.45
0
LINE
8
BLACK
6
CONTINUOUS
10
89.95
20
-58.45
11
89.969
21
-58.3543
0
LINE
8
BLACK
6
CONTINUOUS
10
89.969
20
-58.3543
11
90.0232
21
-58.2732
0
LINE
8
BLACK
6
CONTINUOUS
10
90.0232
20
-58.2732
11
90.1043
21
-58.219
0
LINE
8
BLACK
6
CONTINUOUS
10
90.1043
20
-58.219
11
90.2
21
-58.2
0
LINE
8
BLACK
6
CONTINUOUS
10
90.2
20
-58.2
11
92.475
21
-58.2
0
LINE
8
BLACK
6
CONTINUOUS
10
92.475
20
-58.2
11
92.5707
21
-58.219
0
LINE
8
BLACK
6
CONTINUOUS
10
96.6957
20
-58.219
11
96.7768
21
-58.2732
0
LINE
8
BLACK
6
CONTINUOUS
10
96.7768
20
-58.2732
11
96.831
21
-58.3543
0
LINE
8
BLACK
6
CONTINUOUS
10
96.831
20
-58.3543
11
96.85
21
-58.45
0
LINE
8
BLACK
6
CONTINUOUS
10
96.85
20
-58.45
11
96.85
21
-59.55
0
LINE
8
BLACK
6
CONTINUOUS
10
96.85
20
-59.55
11
96.831
21
-59.6457
0
LINE
8
BLACK
6
CONTINUOUS
10
96.831
20
-59.6457
11
96.7768
21
-59.7268
0
LINE
8
BLACK
6
CONTINUOUS
10
96.7768
20
-59.7268
11
96.6957
21
-59.781
0
LINE
8
BLACK
6
CONTINUOUS
10
96.6957
20
-59.781
11
96.6
21
-59.8
0
LINE
8
BLACK
6
CONTINUOUS
10
96.6
20
-59.8
11
94.325
21
-59.8
0
LINE
8
BLACK
6
CONTINUOUS
10
94.325
20
-59.8
11
94.2293
21
-59.781
0
LINE
8
BLACK
6
CONTINUOUS
10
94.2293
20
-59.781
11
94.1482
21
-59.7268
0
LINE
8
BLACK
6
CONTINUOUS
10
94.1482
20
-59.7268
11
94.094
21
-59.6457
0
LINE
8
BLACK
6
CONTINUOUS
10
94.094
20
-59.6457
11
94.075
21
-59.55
0
LINE
8
BLACK
6
CONTINUOUS
10
94.075
20
-59.55
11
94.075
21
-58.45
0
LINE
8
BLACK
6
CONTINUOUS
10
94.075
20
-58.45
11
94.094
21
-58.3543
0
LINE
8
BLACK
6
CONTINUOUS
10
94.094
20
-58.3543
11
94.1482
21
-58.2732
0
LINE
8
BLACK
6
CONTINUOUS
10
94.1482
20
-58.2732
11
94.2293
21
-58.219
0
LINE
8
BLACK
6
CONTINUOUS
10
94.2293
20
-58.219
11
94.325
21
-58.2
0
LINE
8
BLACK
6
CONTINUOUS
10
94.325
20
-58.2
11
96.6
21
-58.2
0
LINE
8
BLACK
6
CONTINUOUS
10
96.6
20
-58.2
11
96.6957
21
-58.219
0
LINE
8
BLACK
6
CONTINUOUS
10
99.9111
20
-55.6259
11
99.9789
21
-55.6711
0
LINE
8
BLACK
6
CONTINUOUS
10
99.9789
20
-55.6711
11
100.024
21
-55.7389
0
LINE
8
BLACK
6
CONTINUOUS
10
100.024
20
-55.7389
11
100.04
21
-55.8187
0
LINE
8
BLACK
6
CONTINUOUS
10
100.04
20
-55.8187
11
100.04
21
-56.2362
0
LINE
8
BLACK
6
CONTINUOUS
10
100.04
20
-56.2362
11
100.024
21
-56.3161
0
LINE
8
BLACK
6
CONTINUOUS
10
100.024
20
-56.3161
11
99.9789
21
-56.3839
0
LINE
8
BLACK
6
CONTINUOUS
10
99.9789
20
-56.3839
11
99.9111
21
-56.4291
0
LINE
8
BLACK
6
CONTINUOUS
10
99.9111
20
-56.4291
11
99.8312
21
-56.445
0
LINE
8
BLACK
6
CONTINUOUS
10
99.8312
20
-56.445
11
98.9688
21
-56.445
0
LINE
8
BLACK
6
CONTINUOUS
10
98.9688
20
-56.445
11
98.8889
21
-56.4291
0
LINE
8
BLACK
6
CONTINUOUS
10
98.8889
20
-56.4291
11
98.8211
21
-56.3839
0
LINE
8
BLACK
6
CONTINUOUS
10
98.8211
20
-56.3839
11
98.7759
21
-56.3161
0
LINE
8
BLACK
6
CONTINUOUS
10
98.7759
20
-56.3161
11
98.76
21
-56.2362
0
LINE
8
BLACK
6
CONTINUOUS
10
98.76
20
-56.2362
11
98.76
21
-55.8187
0
LINE
8
BLACK
6
CONTINUOUS
10
98.76
20
-55.8187
11
98.7759
21
-55.7389
0
LINE
8
BLACK
6
CONTINUOUS
10
98.7759
20
-55.7389
11
98.8211
21
-55.6711
0
LINE
8
BLACK
6
CONTINUOUS
10
98.8211
20
-55.6711
11
98.8889
21
-55.6259
0
LINE
8
BLACK
6
CONTINUOUS
10
98.8889
20
-55.6259
11
98.9688
21
-55.61
0
LINE
8
BLACK
6
CONTINUOUS
10
98.9688
20
-55.61
11
99.8312
21
-55.61
0
LINE
8
BLACK
6
CONTINUOUS
10
99.8312
20
-55.61
11
99.9111
21
-55.6259
0
LINE
8
BLACK
6
CONTINUOUS
10
99.9111
20
-54.3709
11
99.9789
21
-54.4161
0
LINE
8
BLACK
6
CONTINUOUS
10
99.9789
20
-54.4161
11
100.024
21
-54.4839
0
LINE
8
BLACK
6
CONTINUOUS
10
100.024
20
-54.4839
11
100.04
21
-54.5637
0
LINE
8
BLACK
6
CONTINUOUS
10
100.04
20
-54.5637
11
100.04
21
-54.9812
0
LINE
8
BLACK
6
CONTINUOUS
10
100.04
20
-54.9812
11
100.024
21
-55.0611
0
LINE
8
BLACK
6
CONTINUOUS
10
100.024
20
-55.0611
11
99.9789
21
-55.1289
0
LINE
8
BLACK
6
CONTINUOUS
10
99.9789
20
-55.1289
11
99.9111
21
-55.1741
0
LINE
8
BLACK
6
CONTINUOUS
10
99.9111
20
-55.1741
11
99.8312
21
-55.19
0
LINE
8
BLACK
6
CONTINUOUS
10
99.8312
20
-55.19
11
98.9688
21
-55.19
0
LINE
8
BLACK
6
CONTINUOUS
10
98.9688
20
-55.19
11
98.8889
21
-55.1741
0
LINE
8
BLACK
6
CONTINUOUS
10
98.8889
20
-55.1741
11
98.8211
21
-55.1289
0
LINE
8
BLACK
6
CONTINUOUS
10
98.8211
20
-55.1289
11
98.7759
21
-55.0611
0
LINE
8
BLACK
6
CONTINUOUS
10
98.7759
20
-55.0611
11
98.76
21
-54.9812
0
LINE
8
BLACK
6
CONTINUOUS
10
98.76
20
-54.9812
11
98.76
21
-54.5637
0
LINE
8
BLACK
6
CONTINUOUS
10
98.76
20
-54.5637
11
98.7759
21
-54.4839
0
LINE
8
BLACK
6
CONTINUOUS
10
98.7759
20
-54.4839
11
98.8211
21
-54.4161
0
LINE
8
BLACK
6
CONTINUOUS
10
98.8211
20
-54.4161
11
98.8889
21
-54.3709
0
LINE
8
BLACK
6
CONTINUOUS
10
98.8889
20
-54.3709
11
98.9688
21
-54.355
0
LINE
8
BLACK
6
CONTINUOUS
10
98.9688
20
-54.355
11
99.8312
21
-54.355
0
LINE
8
BLACK
6
CONTINUOUS
10
99.8312
20
-54.355
11
99.9111
21
-54.3709
0
LINE
8
BLACK
6
CONTINUOUS
10
93.3074
20
-54.4164
11
93.3561
21
-54.4489
0
LINE
8
BLACK
6
CONTINUOUS
10
93.3561
20
-54.4489
11
93.3886
21
-54.4976
0
LINE
8
BLACK
6
CONTINUOUS
10
93.3886
20
-54.4976
11
93.4
21
-54.555
0
LINE
8
BLACK
6
CONTINUOUS
10
93.4
20
-54.555
11
93.4
21
-54.855
0
LINE
8
BLACK
6
CONTINUOUS
10
93.4
20
-54.855
11
93.3886
21
-54.9124
0
LINE
8
BLACK
6
CONTINUOUS
10
93.3886
20
-54.9124
11
93.3561
21
-54.9611
0
LINE
8
BLACK
6
CONTINUOUS
10
93.3561
20
-54.9611
11
93.3074
21
-54.9936
0
LINE
8
BLACK
6
CONTINUOUS
10
93.3074
20
-54.9936
11
93.25
21
-55.005
0
LINE
8
BLACK
6
CONTINUOUS
10
93.25
20
-55.005
11
91.6
21
-55.005
0
LINE
8
BLACK
6
CONTINUOUS
10
91.6
20
-55.005
11
91.5426
21
-54.9936
0
LINE
8
BLACK
6
CONTINUOUS
10
91.5426
20
-54.9936
11
91.4939
21
-54.9611
0
LINE
8
BLACK
6
CONTINUOUS
10
91.4939
20
-54.9611
11
91.4614
21
-54.9124
0
LINE
8
BLACK
6
CONTINUOUS
10
91.4614
20
-54.9124
11
91.45
21
-54.855
0
LINE
8
BLACK
6
CONTINUOUS
10
91.45
20
-54.855
11
91.45
21
-54.555
0
LINE
8
BLACK
6
CONTINUOUS
10
91.45
20
-54.555
11
91.4614
21
-54.4976
0
LINE
8
BLACK
6
CONTINUOUS
10
91.4614
20
-54.4976
11
91.4939
21
-54.4489
0
LINE
8
BLACK
6
CONTINUOUS
10
91.4939
20
-54.4489
11
91.5426
21
-54.4164
0
LINE
8
BLACK
6
CONTINUOUS
10
91.5426
20
-54.4164
11
91.6
21
-54.405
0
LINE
8
BLACK
6
CONTINUOUS
10
91.6
20
-54.405
11
93.25
21
-54.405
0
LINE
8
BLACK
6
CONTINUOUS
10
93.25
20
-54.405
11
93.3074
21
-54.4164
0
LINE
8
BLACK
6
CONTINUOUS
10
98.2574
20
-54.4164
11
98.3061
21
-54.4489
0
LINE
8
BLACK
6
CONTINUOUS
10
98.3061
20
-54.4489
11
98.3386
21
-54.4976
0
LINE
8
BLACK
6
CONTINUOUS
10
98.3386
20
-54.4976
11
98.35
21
-54.555
0
LINE
8
BLACK
6
CONTINUOUS
10
98.35
20
-54.555
11
98.35
21
-54.855
0
LINE
8
BLACK
6
CONTINUOUS
10
98.35
20
-54.855
11
98.3386
21
-54.9124
0
LINE
8
BLACK
6
CONTINUOUS
10
98.3386
20
-54.9124
11
98.3061
21
-54.9611
0
LINE
8
BLACK
6
CONTINUOUS
10
98.3061
20
-54.9611
11
98.2574
21
-54.9936
0
LINE
8
BLACK
6
CONTINUOUS
10
98.2574
20
-54.9936
11
98.2
21
-55.005
0
LINE
8
BLACK
6
CONTINUOUS
10
98.2
20
-55.005
11
96.55
21
-55.005
0
LINE
8
BLACK
6
CONTINUOUS
10
96.55
20
-55.005
11
96.4926
21
-54.9936
0
LINE
8
BLACK
6
CONTINUOUS
10
96.4926
20
-54.9936
11
96.4439
21
-54.9611
0
LINE
8
BLACK
6
CONTINUOUS
10
96.4439
20
-54.9611
11
96.4114
21
-54.9124
0
LINE
8
BLACK
6
CONTINUOUS
10
96.4114
20
-54.9124
11
96.4
21
-54.855
0
LINE
8
BLACK
6
CONTINUOUS
10
96.4
20
-54.855
11
96.4
21
-54.555
0
LINE
8
BLACK
6
CONTINUOUS
10
96.4
20
-54.555
11
96.4114
21
-54.4976
0
LINE
8
BLACK
6
CONTINUOUS
10
96.4114
20
-54.4976
11
96.4439
21
-54.4489
0
LINE
8
BLACK
6
CONTINUOUS
10
96.4439
20
-54.4489
11
96.4926
21
-54.4164
0
LINE
8
BLACK
6
CONTINUOUS
10
96.4926
20
-54.4164
11
96.55
21
-54.405
0
LINE
8
BLACK
6
CONTINUOUS
10
96.55
20
-54.405
11
98.2
21
-54.405
0
LINE
8
BLACK
6
CONTINUOUS
10
98.2
20
-54.405
11
98.2574
21
-54.4164
0
LINE
8
BLACK
6
CONTINUOUS
10
99.9
20
-53.95
11
98.9
21
-53.95
0
LINE
8
BLACK
6
CONTINUOUS
10
98.9
20
-53.95
11
98.9
21
-52.95
0
LINE
8
BLACK
6
CONTINUOUS
10
98.9
20
-52.95
11
99.9
21
-52.95
0
LINE
8
BLACK
6
CONTINUOUS
10
99.9
20
-52.95
11
99.9
21
-53.95
0
LINE
8
BLACK
6
CONTINUOUS
10
93.3074
20
-53.1464
11
93.3561
21
-53.1789
0
LINE
8
BLACK
6
CONTINUOUS
10
93.3561
20
-53.1789
11
93.3886
21
-53.2276
0
LINE
8
BLACK
6
CONTINUOUS
10
93.3886
20
-53.2276
11
93.4
21
-53.285
0
LINE
8
BLACK
6
CONTINUOUS
10
93.4
20
-53.285
11
93.4
21
-53.585
0
LINE
8
BLACK
6
CONTINUOUS
10
93.4
20
-53.585
11
93.3886
21
-53.6424
0
LINE
8
BLACK
6
CONTINUOUS
10
93.3886
20
-53.6424
11
93.3561
21
-53.6911
0
LINE
8
BLACK
6
CONTINUOUS
10
93.3561
20
-53.6911
11
93.3074
21
-53.7236
0
LINE
8
BLACK
6
CONTINUOUS
10
93.3074
20
-53.7236
11
93.25
21
-53.735
0
LINE
8
BLACK
6
CONTINUOUS
10
93.25
20
-53.735
11
91.6
21
-53.735
0
LINE
8
BLACK
6
CONTINUOUS
10
91.6
20
-53.735
11
91.5426
21
-53.7236
0
LINE
8
BLACK
6
CONTINUOUS
10
91.5426
20
-53.7236
11
91.4939
21
-53.6911
0
LINE
8
BLACK
6
CONTINUOUS
10
91.4939
20
-53.6911
11
91.4614
21
-53.6424
0
LINE
8
BLACK
6
CONTINUOUS
10
91.4614
20
-53.6424
11
91.45
21
-53.585
0
LINE
8
BLACK
6
CONTINUOUS
10
91.45
20
-53.585
11
91.45
21
-53.285
0
LINE
8
BLACK
6
CONTINUOUS
10
91.45
20
-53.285
11
91.4614
21
-53.2276
0
LINE
8
BLACK
6
CONTINUOUS
10
91.4614
20
-53.2276
11
91.4939
21
-53.1789
0
LINE
8
BLACK
6
CONTINUOUS
10
91.4939
20
-53.1789
11
91.5426
21
-53.1464
0
LINE
8
BLACK
6
CONTINUOUS
10
91.5426
20
-53.1464
11
91.6
21
-53.135
0
LINE
8
BLACK
6
CONTINUOUS
10
91.6
20
-53.135
11
93.25
21
-53.135
0
LINE
8
BLACK
6
CONTINUOUS
10
93.25
20
-53.135
11
93.3074
21
-53.1464
0
LINE
8
BLACK
6
CONTINUOUS
10
98.2574
20
-53.1464
11
98.3061
21
-53.1789
0
LINE
8
BLACK
6
CONTINUOUS
10
98.3061
20
-53.1789
11
98.3386
21
-53.2276
0
LINE
8
BLACK
6
CONTINUOUS
10
98.3386
20
-53.2276
11
98.35
21
-53.285
0
LINE
8
BLACK
6
CONTINUOUS
10
98.35
20
-53.285
11
98.35
21
-53.585
0
LINE
8
BLACK
6
CONTINUOUS
10
98.35
20
-53.585
11
98.3386
21
-53.6424
0
LINE
8
BLACK
6
CONTINUOUS
10
98.3386
20
-53.6424
11
98.3061
21
-53.6911
0
LINE
8
BLACK
6
CONTINUOUS
10
98.3061
20
-53.6911
11
98.2574
21
-53.7236
0
LINE
8
BLACK
6
CONTINUOUS
10
98.2574
20
-53.7236
11
98.2
21
-53.735
0
LINE
8
BLACK
6
CONTINUOUS
10
98.2
20
-53.735
11
96.55
21
-53.735
0
LINE
8
BLACK
6
CONTINUOUS
10
96.55
20
-53.735
11
96.4926
21
-53.7236
0
LINE
8
BLACK
6
CONTINUOUS
10
96.4926
20
-53.7236
11
96.4439
21
-53.6911
0
LINE
8
BLACK
6
CONTINUOUS
10
96.4439
20
-53.6911
11
96.4114
21
-53.6424
0
LINE
8
BLACK
6
CONTINUOUS
10
96.4114
20
-53.6424
11
96.4
21
-53.585
0
LINE
8
BLACK
6
CONTINUOUS
10
96.4
20
-53.585
11
96.4
21
-53.285
0
LINE
8
BLACK
6
CONTINUOUS
10
96.4
20
-53.285
11
96.4114
21
-53.2276
0
LINE
8
BLACK
6
CONTINUOUS
10
96.4114
20
-53.2276
11
96.4439
21
-53.1789
0
LINE
8
BLACK
6
CONTINUOUS
10
96.4439
20
-53.1789
11
96.4926
21
-53.1464
0
LINE
8
BLACK
6
CONTINUOUS
10
96.4926
20
-53.1464
11
96.55
21
-53.135
0
LINE
8
BLACK
6
CONTINUOUS
10
96.55
20
-53.135
11
98.2
21
-53.135
0
LINE
8
BLACK
6
CONTINUOUS
10
98.2
20
-53.135
11
98.2574
21
-53.1464
0
LINE
8
BLACK
6
CONTINUOUS
10
93.3074
20
-51.8764
11
93.3561
21
-51.9089
0
LINE
8
BLACK
6
CONTINUOUS
10
93.3561
20
-51.9089
11
93.3886
21
-51.9576
0
LINE
8
BLACK
6
CONTINUOUS
10
93.3886
20
-51.9576
11
93.4
21
-52.015
0
LINE
8
BLACK
6
CONTINUOUS
10
93.4
20
-52.015
11
93.4
21
-52.315
0
LINE
8
BLACK
6
CONTINUOUS
10
93.4
20
-52.315
11
93.3886
21
-52.3724
0
LINE
8
BLACK
6
CONTINUOUS
10
93.3886
20
-52.3724
11
93.3561
21
-52.4211
0
LINE
8
BLACK
6
CONTINUOUS
10
93.3561
20
-52.4211
11
93.3074
21
-52.4536
0
LINE
8
BLACK
6
CONTINUOUS
10
93.3074
20
-52.4536
11
93.25
21
-52.465
0
LINE
8
BLACK
6
CONTINUOUS
10
93.25
20
-52.465
11
91.6
21
-52.465
0
LINE
8
BLACK
6
CONTINUOUS
10
91.6
20
-52.465
11
91.5426
21
-52.4536
0
LINE
8
BLACK
6
CONTINUOUS
10
91.5426
20
-52.4536
11
91.4939
21
-52.4211
0
LINE
8
BLACK
6
CONTINUOUS
10
91.4939
20
-52.4211
11
91.4614
21
-52.3724
0
LINE
8
BLACK
6
CONTINUOUS
10
91.4614
20
-52.3724
11
91.45
21
-52.315
0
LINE
8
BLACK
6
CONTINUOUS
10
91.45
20
-52.315
11
91.45
21
-52.015
0
LINE
8
BLACK
6
CONTINUOUS
10
91.45
20
-52.015
11
91.4614
21
-51.9576
0
LINE
8
BLACK
6
CONTINUOUS
10
91.4614
20
-51.9576
11
91.4939
21
-51.9089
0
LINE
8
BLACK
6
CONTINUOUS
10
91.4939
20
-51.9089
11
91.5426
21
-51.8764
0
LINE
8
BLACK
6
CONTINUOUS
10
91.5426
20
-51.8764
11
91.6
21
-51.865
0
LINE
8
BLACK
6
CONTINUOUS
10
91.6
20
-51.865
11
93.25
21
-51.865
0
LINE
8
BLACK
6
CONTINUOUS
10
93.25
20
-51.865
11
93.3074
21
-51.8764
0
LINE
8
BLACK
6
CONTINUOUS
10
98.2574
20
-51.8764
11
98.3061
21
-51.9089
0
LINE
8
BLACK
6
CONTINUOUS
10
98.3061
20
-51.9089
11
98.3386
21
-51.9576
0
LINE
8
BLACK
6
CONTINUOUS
10
98.3386
20
-51.9576
11
98.35
21
-52.015
0
LINE
8
BLACK
6
CONTINUOUS
10
98.35
20
-52.015
11
98.35
21
-52.315
0
LINE
8
BLACK
6
CONTINUOUS
10
98.35
20
-52.315
11
98.3386
21
-52.3724
0
LINE
8
BLACK
6
CONTINUOUS
10
98.3386
20
-52.3724
11
98.3061
21
-52.4211
0
LINE
8
BLACK
6
CONTINUOUS
10
98.3061
20
-52.4211
11
98.2574
21
-52.4536
0
LINE
8
BLACK
6
CONTINUOUS
10
98.2574
20
-52.4536
11
98.2
21
-52.465
0
LINE
8
BLACK
6
CONTINUOUS
10
98.2
20
-52.465
11
96.55
21
-52.465
0
LINE
8
BLACK
6
CONTINUOUS
10
96.55
20
-52.465
11
96.4926
21
-52.4536
0
LINE
8
BLACK
6
CONTINUOUS
10
96.4926
20
-52.4536
11
96.4439
21
-52.4211
0
LINE
8
BLACK
6
CONTINUOUS
10
96.4439
20
-52.4211
11
96.4114
21
-52.3724
0
LINE
8
BLACK
6
CONTINUOUS
10
96.4114
20
-52.3724
11
96.4
21
-52.315
0
LINE
8
BLACK
6
CONTINUOUS
10
96.4
20
-52.315
11
96.4
21
-52.015
0
LINE
8
BLACK
6
CONTINUOUS
10
96.4
20
-52.015
11
96.4114
21
-51.9576
0
LINE
8
BLACK
6
CONTINUOUS
10
96.4114
20
-51.9576
11
96.4439
21
-51.9089
0
LINE
8
BLACK
6
CONTINUOUS
10
96.4439
20
-51.9089
11
96.4926
21
-51.8764
0
LINE
8
BLACK
6
CONTINUOUS
10
96.4926
20
-51.8764
11
96.55
21
-51.865
0
LINE
8
BLACK
6
CONTINUOUS
10
96.55
20
-51.865
11
98.2
21
-51.865
0
LINE
8
BLACK
6
CONTINUOUS
10
98.2
20
-51.865
11
98.2574
21
-51.8764
0
LINE
8
BLACK
6
CONTINUOUS
10
99.9
20
-52.25
11
98.9
21
-52.25
0
LINE
8
BLACK
6
CONTINUOUS
10
98.9
20
-52.25
11
98.9
21
-51.25
0
LINE
8
BLACK
6
CONTINUOUS
10
98.9
20
-51.25
11
99.9
21
-51.25
0
LINE
8
BLACK
6
CONTINUOUS
10
99.9
20
-51.25
11
99.9
21
-52.25
0
LINE
8
BLACK
6
CONTINUOUS
10
93.3074
20
-50.6064
11
93.3561
21
-50.6389
0
LINE
8
BLACK
6
CONTINUOUS
10
93.3561
20
-50.6389
11
93.3886
21
-50.6876
0
LINE
8
BLACK
6
CONTINUOUS
10
93.3886
20
-50.6876
11
93.4
21
-50.745
0
LINE
8
BLACK
6
CONTINUOUS
10
93.4
20
-50.745
11
93.4
21
-51.045
0
LINE
8
BLACK
6
CONTINUOUS
10
93.4
20
-51.045
11
93.3886
21
-51.1024
0
LINE
8
BLACK
6
CONTINUOUS
10
93.3886
20
-51.1024
11
93.3561
21
-51.1511
0
LINE
8
BLACK
6
CONTINUOUS
10
93.3561
20
-51.1511
11
93.3074
21
-51.1836
0
LINE
8
BLACK
6
CONTINUOUS
10
93.3074
20
-51.1836
11
93.25
21
-51.195
0
LINE
8
BLACK
6
CONTINUOUS
10
93.25
20
-51.195
11
91.6
21
-51.195
0
LINE
8
BLACK
6
CONTINUOUS
10
91.6
20
-51.195
11
91.5426
21
-51.1836
0
LINE
8
BLACK
6
CONTINUOUS
10
91.5426
20
-51.1836
11
91.4939
21
-51.1511
0
LINE
8
BLACK
6
CONTINUOUS
10
91.4939
20
-51.1511
11
91.4614
21
-51.1024
0
LINE
8
BLACK
6
CONTINUOUS
10
91.4614
20
-51.1024
11
91.45
21
-51.045
0
LINE
8
BLACK
6
CONTINUOUS
10
91.45
20
-51.045
11
91.45
21
-50.745
0
LINE
8
BLACK
6
CONTINUOUS
10
91.45
20
-50.745
11
91.4614
21
-50.6876
0
LINE
8
BLACK
6
CONTINUOUS
10
91.4614
20
-50.6876
11
91.4939
21
-50.6389
0
LINE
8
BLACK
6
CONTINUOUS
10
91.4939
20
-50.6389
11
91.5426
21
-50.6064
0
LINE
8
BLACK
6
CONTINUOUS
10
91.5426
20
-50.6064
11
91.6
21
-50.595
0
LINE
8
BLACK
6
CONTINUOUS
10
91.6
20
-50.595
11
93.25
21
-50.595
0
LINE
8
BLACK
6
CONTINUOUS
10
93.25
20
-50.595
11
93.3074
21
-50.6064
0
LINE
8
BLACK
6
CONTINUOUS
10
98.2574
20
-50.6064
11
98.3061
21
-50.6389
0
LINE
8
BLACK
6
CONTINUOUS
10
98.3061
20
-50.6389
11
98.3386
21
-50.6876
0
LINE
8
BLACK
6
CONTINUOUS
10
98.3386
20
-50.6876
11
98.35
21
-50.745
0
LINE
8
BLACK
6
CONTINUOUS
10
98.35
20
-50.745
11
98.35
21
-51.045
0
LINE
8
BLACK
6
CONTINUOUS
10
98.35
20
-51.045
11
98.3386
21
-51.1024
0
LINE
8
BLACK
6
CONTINUOUS
10
98.3386
20
-51.1024
11
98.3061
21
-51.1511
0
LINE
8
BLACK
6
CONTINUOUS
10
98.3061
20
-51.1511
11
98.2574
21
-51.1836
0
LINE
8
BLACK
6
CONTINUOUS
10
98.2574
20
-51.1836
11
98.2
21
-51.195
0
LINE
8
BLACK
6
CONTINUOUS
10
98.2
20
-51.195
11
96.55
21
-51.195
0
LINE
8
BLACK
6
CONTINUOUS
10
96.55
20
-51.195
11
96.4926
21
-51.1836
0
LINE
8
BLACK
6
CONTINUOUS
10
96.4926
20
-51.1836
11
96.4439
21
-51.1511
0
LINE
8
BLACK
6
CONTINUOUS
10
96.4439
20
-51.1511
11
96.4114
21
-51.1024
0
LINE
8
BLACK
6
CONTINUOUS
10
96.4114
20
-51.1024
11
96.4
21
-51.045
0
LINE
8
BLACK
6
CONTINUOUS
10
96.4
20
-51.045
11
96.4
21
-50.745
0
LINE
8
BLACK
6
CONTINUOUS
10
96.4
20
-50.745
11
96.4114
21
-50.6876
0
LINE
8
BLACK
6
CONTINUOUS
10
96.4114
20
-50.6876
11
96.4439
21
-50.6389
0
LINE
8
BLACK
6
CONTINUOUS
10
96.4439
20
-50.6389
11
96.4926
21
-50.6064
0
LINE
8
BLACK
6
CONTINUOUS
10
96.4926
20
-50.6064
11
96.55
21
-50.595
0
LINE
8
BLACK
6
CONTINUOUS
10
96.55
20
-50.595
11
98.2
21
-50.595
0
LINE
8
BLACK
6
CONTINUOUS
10
98.2
20
-50.595
11
98.2574
21
-50.6064
  0
ENDSEC
  0
EOF
