<?xml version="1.0" standalone="no"?>
 <!DOCTYPE svg PUBLIC "-//W3C//DTD SVG 1.1//EN" 
 "http://www.w3.org/Graphics/SVG/1.1/DTD/svg11.dtd"> 
<svg
  xmlns:svg="http://www.w3.org/2000/svg"
  xmlns="http://www.w3.org/2000/svg"
  xmlns:xlink="http://www.w3.org/1999/xlink"
  version="1.1"
  width="297.0022mm" height="210.0072mm" viewBox="0.0000 0.0000 297.0022 210.0072">
<title>SVG Image created as pedalboard-led-ring-F_Silkscreen.svg date 2023/06/03 17:33:24 </title>
  <desc>Image generated by PCBNEW </desc>
<g style="fill:#000000; fill-opacity:1.0000;stroke:#000000; stroke-opacity:1.0000;
stroke-linecap:round; stroke-linejoin:round;"
 transform="translate(0 0) scale(1 1)">
</g>
<g style="fill:#000000; fill-opacity:0.0; 
stroke:#000000; stroke-width:0.0000; stroke-opacity:1; 
stroke-linecap:round; stroke-linejoin:round;">
</g>
<g style="fill:#000000; fill-opacity:0.0; 
stroke:#000000; stroke-width:0.1000; stroke-opacity:1; 
stroke-linecap:round; stroke-linejoin:round;">
<g transform="rotate(60.000000 85.7124 67.0942)">
<text x="85.7124" y="67.3442"
textLength="1.6024" font-size="0.6667" lengthAdjust="spacingAndGlyphs"
text-anchor="middle" opacity="0">D11</text>
</g>
<g class="stroked-text"><desc>D11</desc>
<path d="M85.2130 66.6815
L85.6461 66.4315
" />
<path d="M85.6461 66.4315
L85.7056 66.5346
" />
<path d="M85.7056 66.5346
L85.7207 66.6083
" />
<path d="M85.7207 66.6083
L85.7032 66.6734
" />
<path d="M85.7032 66.6734
L85.6739 66.7178
" />
<path d="M85.6739 66.7178
L85.6033 66.7861
" />
<path d="M85.6033 66.7861
L85.5415 66.8218
" />
<path d="M85.5415 66.8218
L85.4471 66.8488
" />
<path d="M85.4471 66.8488
L85.3940 66.8520
" />
<path d="M85.3940 66.8520
L85.3289 66.8345
" />
<path d="M85.3289 66.8345
L85.2726 66.7846
" />
<path d="M85.2726 66.7846
L85.2130 66.6815
" />
<path d="M85.5940 67.3413
L85.4511 67.0939
" />
<path d="M85.5226 67.2176
L85.9556 66.9676
" />
<path d="M85.9556 66.9676
L85.8699 66.9621
" />
<path d="M85.8699 66.9621
L85.8049 66.9446
" />
<path d="M85.8049 66.9446
L85.7604 66.9153
" />
<path d="M85.8321 67.7537
L85.6892 67.5063
" />
<path d="M85.7607 67.6300
L86.1937 67.3800
" />
<path d="M86.1937 67.3800
L86.1080 67.3745
" />
<path d="M86.1080 67.3745
L86.0430 67.3570
" />
<path d="M86.0430 67.3570
L85.9985 67.3277
" />
</g></g>
<g style="fill:#000000; fill-opacity:0.0; 
stroke:#000000; stroke-width:0.0750; stroke-opacity:1; 
stroke-linecap:round; stroke-linejoin:round;">
<g transform="rotate(60.000000 84.4272 66.7682)">
<text x="84.4272" y="66.9182"
textLength="0.4132" font-size="0.4000" lengthAdjust="spacingAndGlyphs"
text-anchor="middle" opacity="0">1</text>
</g>
<g class="stroked-text"><desc>1</desc>
<path d="M84.3533 66.9098
L84.2675 66.7614
" />
<path d="M84.3104 66.8356
L84.5702 66.6856
" />
<path d="M84.5702 66.6856
L84.5188 66.6823
" />
<path d="M84.5188 66.6823
L84.4798 66.6718
" />
<path d="M84.4798 66.6718
L84.4531 66.6542
" />
</g></g>
<g style="fill:#000000; fill-opacity:0.0; 
stroke:#000000; stroke-width:0.1000; stroke-opacity:1; 
stroke-linecap:round; stroke-linejoin:round;">
<text x="89.0000" y="58.8500"
textLength="1.1262" font-size="0.6667" lengthAdjust="spacingAndGlyphs"
text-anchor="middle" opacity="0">D1</text>
<g class="stroked-text"><desc>D1</desc>
<path d="M88.6310 58.8261
L88.6310 58.3261
" />
<path d="M88.6310 58.3261
L88.7500 58.3261
" />
<path d="M88.7500 58.3261
L88.8214 58.3499
" />
<path d="M88.8214 58.3499
L88.8690 58.3975
" />
<path d="M88.8690 58.3975
L88.8929 58.4452
" />
<path d="M88.8929 58.4452
L88.9167 58.5404
" />
<path d="M88.9167 58.5404
L88.9167 58.6118
" />
<path d="M88.9167 58.6118
L88.8929 58.7071
" />
<path d="M88.8929 58.7071
L88.8690 58.7547
" />
<path d="M88.8690 58.7547
L88.8214 58.8023
" />
<path d="M88.8214 58.8023
L88.7500 58.8261
" />
<path d="M88.7500 58.8261
L88.6310 58.8261
" />
<path d="M89.3929 58.8261
L89.1071 58.8261
" />
<path d="M89.2500 58.8261
L89.2500 58.3261
" />
<path d="M89.2500 58.3261
L89.2024 58.3975
" />
<path d="M89.2024 58.3975
L89.1548 58.4452
" />
<path d="M89.1548 58.4452
L89.1071 58.4690
" />
</g></g>
<g style="fill:#000000; fill-opacity:0.0; 
stroke:#000000; stroke-width:0.0750; stroke-opacity:1; 
stroke-linecap:round; stroke-linejoin:round;">
<text x="88.0750" y="59.7000"
textLength="0.4132" font-size="0.4000" lengthAdjust="spacingAndGlyphs"
text-anchor="middle" opacity="0">1</text>
<g class="stroked-text"><desc>1</desc>
<path d="M88.1607 59.6849
L87.9893 59.6849
" />
<path d="M88.0750 59.6849
L88.0750 59.3849
" />
<path d="M88.0750 59.3849
L88.0464 59.4277
" />
<path d="M88.0464 59.4277
L88.0179 59.4563
" />
<path d="M88.0179 59.4563
L87.9893 59.4706
" />
</g></g>
<g style="fill:#000000; fill-opacity:0.0; 
stroke:#000000; stroke-width:0.1000; stroke-opacity:1; 
stroke-linecap:round; stroke-linejoin:round;">
<g transform="rotate(-90.000000 78.6000 51.0000)">
<text x="78.6000" y="51.2500"
textLength="1.1262" font-size="0.6667" lengthAdjust="spacingAndGlyphs"
text-anchor="middle" opacity="0">D4</text>
</g>
<g class="stroked-text"><desc>D4</desc>
<path d="M78.8261 51.3690
L78.3261 51.3690
" />
<path d="M78.3261 51.3690
L78.3261 51.2500
" />
<path d="M78.3261 51.2500
L78.3499 51.1786
" />
<path d="M78.3499 51.1786
L78.3975 51.1310
" />
<path d="M78.3975 51.1310
L78.4452 51.1071
" />
<path d="M78.4452 51.1071
L78.5404 51.0833
" />
<path d="M78.5404 51.0833
L78.6118 51.0833
" />
<path d="M78.6118 51.0833
L78.7071 51.1071
" />
<path d="M78.7071 51.1071
L78.7547 51.1310
" />
<path d="M78.7547 51.1310
L78.8023 51.1786
" />
<path d="M78.8023 51.1786
L78.8261 51.2500
" />
<path d="M78.8261 51.2500
L78.8261 51.3690
" />
<path d="M78.4928 50.6548
L78.8261 50.6548
" />
<path d="M78.3023 50.7738
L78.6594 50.8929
" />
<path d="M78.6594 50.8929
L78.6594 50.5833
" />
</g></g>
<g style="fill:#000000; fill-opacity:0.0; 
stroke:#000000; stroke-width:0.0750; stroke-opacity:1; 
stroke-linecap:round; stroke-linejoin:round;">
<g transform="rotate(-90.000000 79.5500 51.9250)">
<text x="79.5500" y="52.0750"
textLength="0.4132" font-size="0.4000" lengthAdjust="spacingAndGlyphs"
text-anchor="middle" opacity="0">1</text>
</g>
<g class="stroked-text"><desc>1</desc>
<path d="M79.6849 51.8393
L79.6849 52.0107
" />
<path d="M79.6849 51.9250
L79.3849 51.9250
" />
<path d="M79.3849 51.9250
L79.4277 51.9536
" />
<path d="M79.4277 51.9536
L79.4563 51.9821
" />
<path d="M79.4563 51.9821
L79.4706 52.0107
" />
</g></g>
<g style="fill:#000000; fill-opacity:0.0; 
stroke:#000000; stroke-width:0.1000; stroke-opacity:1; 
stroke-linecap:round; stroke-linejoin:round;">
<g transform="rotate(30.000000 88.4942 63.2876)">
<text x="88.4942" y="63.5376"
textLength="1.6024" font-size="0.6667" lengthAdjust="spacingAndGlyphs"
text-anchor="middle" opacity="0">D12</text>
</g>
<g class="stroked-text"><desc>D12</desc>
<path d="M87.8554 63.1798
L88.1054 62.7468
" />
<path d="M88.1054 62.7468
L88.2085 62.8063
" />
<path d="M88.2085 62.8063
L88.2584 62.8627
" />
<path d="M88.2584 62.8627
L88.2759 62.9277
" />
<path d="M88.2759 62.9277
L88.2727 62.9808
" />
<path d="M88.2727 62.9808
L88.2457 63.0752
" />
<path d="M88.2457 63.0752
L88.2100 63.1371
" />
<path d="M88.2100 63.1371
L88.1417 63.2077
" />
<path d="M88.1417 63.2077
L88.0973 63.2370
" />
<path d="M88.0973 63.2370
L88.0322 63.2544
" />
<path d="M88.0322 63.2544
L87.9585 63.2393
" />
<path d="M87.9585 63.2393
L87.8554 63.1798
" />
<path d="M88.5152 63.5608
L88.2678 63.4179
" />
<path d="M88.3915 63.4893
L88.6415 63.0563
" />
<path d="M88.6415 63.0563
L88.5645 63.0944
" />
<path d="M88.5645 63.0944
L88.4995 63.1118
" />
<path d="M88.4995 63.1118
L88.4463 63.1086
" />
<path d="M88.9063 63.2642
L88.9389 63.2555
" />
<path d="M88.9389 63.2555
L88.9920 63.2587
" />
<path d="M88.9920 63.2587
L89.0951 63.3182
" />
<path d="M89.0951 63.3182
L89.1244 63.3627
" />
<path d="M89.1244 63.3627
L89.1332 63.3952
" />
<path d="M89.1332 63.3952
L89.1300 63.4483
" />
<path d="M89.1300 63.4483
L89.1062 63.4896
" />
<path d="M89.1062 63.4896
L89.0498 63.5395
" />
<path d="M89.0498 63.5395
L88.6595 63.6441
" />
<path d="M88.6595 63.6441
L88.9276 63.7989
" />
</g></g>
<g style="fill:#000000; fill-opacity:0.0; 
stroke:#000000; stroke-width:0.0750; stroke-opacity:1; 
stroke-linecap:round; stroke-linejoin:round;">
<g transform="rotate(30.000000 87.2182 63.6478)">
<text x="87.2182" y="63.7978"
textLength="0.4132" font-size="0.4000" lengthAdjust="spacingAndGlyphs"
text-anchor="middle" opacity="0">1</text>
</g>
<g class="stroked-text"><desc>1</desc>
<path d="M87.2249 63.8075
L87.0765 63.7217
" />
<path d="M87.1507 63.7646
L87.3007 63.5048
" />
<path d="M87.3007 63.5048
L87.2545 63.5276
" />
<path d="M87.2545 63.5276
L87.2155 63.5381
" />
<path d="M87.2155 63.5381
L87.1836 63.5362
" />
</g></g>
<g style="fill:#000000; fill-opacity:0.0; 
stroke:#000000; stroke-width:0.1000; stroke-opacity:1; 
stroke-linecap:round; stroke-linejoin:round;">
<g transform="rotate(-30.000000 72.9058 65.7124)">
<text x="72.9058" y="65.9624"
textLength="1.1262" font-size="0.6667" lengthAdjust="spacingAndGlyphs"
text-anchor="middle" opacity="0">D8</text>
</g>
<g class="stroked-text"><desc>D8</desc>
<path d="M72.6992 66.0928
L72.4492 65.6598
" />
<path d="M72.4492 65.6598
L72.5523 65.6002
" />
<path d="M72.5523 65.6002
L72.6261 65.5851
" />
<path d="M72.6261 65.5851
L72.6911 65.6026
" />
<path d="M72.6911 65.6026
L72.7356 65.6319
" />
<path d="M72.7356 65.6319
L72.8038 65.7025
" />
<path d="M72.8038 65.7025
L72.8395 65.7643
" />
<path d="M72.8395 65.7643
L72.8665 65.8587
" />
<path d="M72.8665 65.8587
L72.8697 65.9119
" />
<path d="M72.8697 65.9119
L72.8523 65.9769
" />
<path d="M72.8523 65.9769
L72.8023 66.0333
" />
<path d="M72.8023 66.0333
L72.6992 66.0928
" />
<path d="M73.0512 65.5596
L72.9981 65.5628
" />
<path d="M72.9981 65.5628
L72.9656 65.5541
" />
<path d="M72.9656 65.5541
L72.9211 65.5248
" />
<path d="M72.9211 65.5248
L72.9092 65.5041
" />
<path d="M72.9092 65.5041
L72.9060 65.4510
" />
<path d="M72.9060 65.4510
L72.9148 65.4185
" />
<path d="M72.9148 65.4185
L72.9441 65.3740
" />
<path d="M72.9441 65.3740
L73.0266 65.3264
" />
<path d="M73.0266 65.3264
L73.0797 65.3232
" />
<path d="M73.0797 65.3232
L73.1122 65.3320
" />
<path d="M73.1122 65.3320
L73.1567 65.3613
" />
<path d="M73.1567 65.3613
L73.1686 65.3819
" />
<path d="M73.1686 65.3819
L73.1718 65.4351
" />
<path d="M73.1718 65.4351
L73.1630 65.4676
" />
<path d="M73.1630 65.4676
L73.1337 65.5120
" />
<path d="M73.1337 65.5120
L73.0512 65.5596
" />
<path d="M73.0512 65.5596
L73.0219 65.6041
" />
<path d="M73.0219 65.6041
L73.0132 65.6366
" />
<path d="M73.0132 65.6366
L73.0164 65.6897
" />
<path d="M73.0164 65.6897
L73.0640 65.7722
" />
<path d="M73.0640 65.7722
L73.1084 65.8015
" />
<path d="M73.1084 65.8015
L73.1409 65.8103
" />
<path d="M73.1409 65.8103
L73.1941 65.8071
" />
<path d="M73.1941 65.8071
L73.2766 65.7594
" />
<path d="M73.2766 65.7594
L73.3059 65.7150
" />
<path d="M73.3059 65.7150
L73.3146 65.6825
" />
<path d="M73.3146 65.6825
L73.3114 65.6293
" />
<path d="M73.3114 65.6293
L73.2638 65.5469
" />
<path d="M73.2638 65.5469
L73.2194 65.5175
" />
<path d="M73.2194 65.5175
L73.1869 65.5088
" />
<path d="M73.1869 65.5088
L73.1337 65.5120
" />
</g></g>
<g style="fill:#000000; fill-opacity:0.0; 
stroke:#000000; stroke-width:0.0750; stroke-opacity:1; 
stroke-linecap:round; stroke-linejoin:round;">
<g transform="rotate(-30.000000 73.2318 64.4272)">
<text x="73.2318" y="64.5772"
textLength="0.4132" font-size="0.4000" lengthAdjust="spacingAndGlyphs"
text-anchor="middle" opacity="0">1</text>
</g>
<g class="stroked-text"><desc>1</desc>
<path d="M73.3735 64.5012
L73.2251 64.5869
" />
<path d="M73.2993 64.5440
L73.1493 64.2842
" />
<path d="M73.1493 64.2842
L73.1460 64.3356
" />
<path d="M73.1460 64.3356
L73.1355 64.3746
" />
<path d="M73.1355 64.3746
L73.1179 64.4013
" />
</g></g>
<g style="fill:#000000; fill-opacity:0.0; 
stroke:#000000; stroke-width:0.1000; stroke-opacity:1; 
stroke-linecap:round; stroke-linejoin:round;">
<g transform="rotate(-90.000000 81.4000 69.0000)">
<text x="81.4000" y="69.2500"
textLength="1.6024" font-size="0.6667" lengthAdjust="spacingAndGlyphs"
text-anchor="middle" opacity="0">D10</text>
</g>
<g class="stroked-text"><desc>D10</desc>
<path d="M81.6261 69.6071
L81.1261 69.6071
" />
<path d="M81.1261 69.6071
L81.1261 69.4881
" />
<path d="M81.1261 69.4881
L81.1499 69.4167
" />
<path d="M81.1499 69.4167
L81.1975 69.3690
" />
<path d="M81.1975 69.3690
L81.2452 69.3452
" />
<path d="M81.2452 69.3452
L81.3404 69.3214
" />
<path d="M81.3404 69.3214
L81.4118 69.3214
" />
<path d="M81.4118 69.3214
L81.5071 69.3452
" />
<path d="M81.5071 69.3452
L81.5547 69.3690
" />
<path d="M81.5547 69.3690
L81.6023 69.4167
" />
<path d="M81.6023 69.4167
L81.6261 69.4881
" />
<path d="M81.6261 69.4881
L81.6261 69.6071
" />
<path d="M81.6261 68.8452
L81.6261 69.1310
" />
<path d="M81.6261 68.9881
L81.1261 68.9881
" />
<path d="M81.1261 68.9881
L81.1975 69.0357
" />
<path d="M81.1975 69.0357
L81.2452 69.0833
" />
<path d="M81.2452 69.0833
L81.2690 69.1310
" />
<path d="M81.1261 68.5357
L81.1261 68.4881
" />
<path d="M81.1261 68.4881
L81.1499 68.4405
" />
<path d="M81.1499 68.4405
L81.1737 68.4167
" />
<path d="M81.1737 68.4167
L81.2213 68.3929
" />
<path d="M81.2213 68.3929
L81.3166 68.3690
" />
<path d="M81.3166 68.3690
L81.4356 68.3690
" />
<path d="M81.4356 68.3690
L81.5309 68.3929
" />
<path d="M81.5309 68.3929
L81.5785 68.4167
" />
<path d="M81.5785 68.4167
L81.6023 68.4405
" />
<path d="M81.6023 68.4405
L81.6261 68.4881
" />
<path d="M81.6261 68.4881
L81.6261 68.5357
" />
<path d="M81.6261 68.5357
L81.6023 68.5833
" />
<path d="M81.6023 68.5833
L81.5785 68.6071
" />
<path d="M81.5785 68.6071
L81.5309 68.6310
" />
<path d="M81.5309 68.6310
L81.4356 68.6548
" />
<path d="M81.4356 68.6548
L81.3166 68.6548
" />
<path d="M81.3166 68.6548
L81.2213 68.6310
" />
<path d="M81.2213 68.6310
L81.1737 68.6071
" />
<path d="M81.1737 68.6071
L81.1499 68.5833
" />
<path d="M81.1499 68.5833
L81.1261 68.5357
" />
</g></g>
<g style="fill:#000000; fill-opacity:0.0; 
stroke:#000000; stroke-width:0.0750; stroke-opacity:1; 
stroke-linecap:round; stroke-linejoin:round;">
<g transform="rotate(-90.000000 80.4500 68.0750)">
<text x="80.4500" y="68.2250"
textLength="0.4132" font-size="0.4000" lengthAdjust="spacingAndGlyphs"
text-anchor="middle" opacity="0">1</text>
</g>
<g class="stroked-text"><desc>1</desc>
<path d="M80.5849 67.9893
L80.5849 68.1607
" />
<path d="M80.5849 68.0750
L80.2849 68.0750
" />
<path d="M80.2849 68.0750
L80.3277 68.1036
" />
<path d="M80.3277 68.1036
L80.3563 68.1321
" />
<path d="M80.3563 68.1321
L80.3706 68.1607
" />
</g></g>
<g style="fill:#000000; fill-opacity:0.0; 
stroke:#000000; stroke-width:0.1000; stroke-opacity:1; 
stroke-linecap:round; stroke-linejoin:round;">
<text x="71.0000" y="61.6500"
textLength="1.1262" font-size="0.6667" lengthAdjust="spacingAndGlyphs"
text-anchor="middle" opacity="0">D7</text>
<g class="stroked-text"><desc>D7</desc>
<path d="M70.6310 61.6261
L70.6310 61.1261
" />
<path d="M70.6310 61.1261
L70.7500 61.1261
" />
<path d="M70.7500 61.1261
L70.8214 61.1499
" />
<path d="M70.8214 61.1499
L70.8690 61.1975
" />
<path d="M70.8690 61.1975
L70.8929 61.2452
" />
<path d="M70.8929 61.2452
L70.9167 61.3404
" />
<path d="M70.9167 61.3404
L70.9167 61.4118
" />
<path d="M70.9167 61.4118
L70.8929 61.5071
" />
<path d="M70.8929 61.5071
L70.8690 61.5547
" />
<path d="M70.8690 61.5547
L70.8214 61.6023
" />
<path d="M70.8214 61.6023
L70.7500 61.6261
" />
<path d="M70.7500 61.6261
L70.6310 61.6261
" />
<path d="M71.0833 61.1261
L71.4167 61.1261
" />
<path d="M71.4167 61.1261
L71.2024 61.6261
" />
</g></g>
<g style="fill:#000000; fill-opacity:0.0; 
stroke:#000000; stroke-width:0.0750; stroke-opacity:1; 
stroke-linecap:round; stroke-linejoin:round;">
<text x="71.9250" y="60.6000"
textLength="0.4132" font-size="0.4000" lengthAdjust="spacingAndGlyphs"
text-anchor="middle" opacity="0">1</text>
<g class="stroked-text"><desc>1</desc>
<path d="M72.0107 60.5849
L71.8393 60.5849
" />
<path d="M71.9250 60.5849
L71.9250 60.2849
" />
<path d="M71.9250 60.2849
L71.8964 60.3277
" />
<path d="M71.8964 60.3277
L71.8679 60.3563
" />
<path d="M71.8679 60.3563
L71.8393 60.3706
" />
</g></g>
<g style="fill:#000000; fill-opacity:0.0; 
stroke:#000000; stroke-width:0.1000; stroke-opacity:1; 
stroke-linecap:round; stroke-linejoin:round;">
<g transform="rotate(30.000000 71.5058 56.7124)">
<text x="71.5058" y="56.9624"
textLength="1.1262" font-size="0.6667" lengthAdjust="spacingAndGlyphs"
text-anchor="middle" opacity="0">D6</text>
</g>
<g class="stroked-text"><desc>D6</desc>
<path d="M71.0731 56.7237
L71.3231 56.2907
" />
<path d="M71.3231 56.2907
L71.4262 56.3502
" />
<path d="M71.4262 56.3502
L71.4762 56.4066
" />
<path d="M71.4762 56.4066
L71.4936 56.4716
" />
<path d="M71.4936 56.4716
L71.4904 56.5248
" />
<path d="M71.4904 56.5248
L71.4634 56.6191
" />
<path d="M71.4634 56.6191
L71.4277 56.6810
" />
<path d="M71.4277 56.6810
L71.3595 56.7516
" />
<path d="M71.3595 56.7516
L71.3150 56.7809
" />
<path d="M71.3150 56.7809
L71.2500 56.7983
" />
<path d="M71.2500 56.7983
L71.1762 56.7833
" />
<path d="M71.1762 56.7833
L71.0731 56.7237
" />
<path d="M71.9417 56.6479
L71.8592 56.6002
" />
<path d="M71.8592 56.6002
L71.8061 56.5970
" />
<path d="M71.8061 56.5970
L71.7736 56.6058
" />
<path d="M71.7736 56.6058
L71.6966 56.6438
" />
<path d="M71.6966 56.6438
L71.6284 56.7144
" />
<path d="M71.6284 56.7144
L71.5331 56.8793
" />
<path d="M71.5331 56.8793
L71.5299 56.9325
" />
<path d="M71.5299 56.9325
L71.5386 56.9650
" />
<path d="M71.5386 56.9650
L71.5680 57.0094
" />
<path d="M71.5680 57.0094
L71.6505 57.0571
" />
<path d="M71.6505 57.0571
L71.7036 57.0603
" />
<path d="M71.7036 57.0603
L71.7361 57.0515
" />
<path d="M71.7361 57.0515
L71.7806 57.0222
" />
<path d="M71.7806 57.0222
L71.8401 56.9191
" />
<path d="M71.8401 56.9191
L71.8433 56.8660
" />
<path d="M71.8433 56.8660
L71.8346 56.8334
" />
<path d="M71.8346 56.8334
L71.8052 56.7890
" />
<path d="M71.8052 56.7890
L71.7227 56.7414
" />
<path d="M71.7227 56.7414
L71.6696 56.7382
" />
<path d="M71.6696 56.7382
L71.6371 56.7469
" />
<path d="M71.6371 56.7469
L71.5926 56.7762
" />
</g></g>
<g style="fill:#000000; fill-opacity:0.0; 
stroke:#000000; stroke-width:0.0750; stroke-opacity:1; 
stroke-linecap:round; stroke-linejoin:round;">
<g transform="rotate(30.000000 72.7818 56.3522)">
<text x="72.7818" y="56.5022"
textLength="0.4132" font-size="0.4000" lengthAdjust="spacingAndGlyphs"
text-anchor="middle" opacity="0">1</text>
</g>
<g class="stroked-text"><desc>1</desc>
<path d="M72.7886 56.5119
L72.6402 56.4262
" />
<path d="M72.7144 56.4690
L72.8644 56.2092
" />
<path d="M72.8644 56.2092
L72.8182 56.2320
" />
<path d="M72.8182 56.2320
L72.7792 56.2425
" />
<path d="M72.7792 56.2425
L72.7473 56.2406
" />
</g></g>
<g style="fill:#000000; fill-opacity:0.0; 
stroke:#000000; stroke-width:0.1500; stroke-opacity:1; 
stroke-linecap:round; stroke-linejoin:round;">
<text x="90.0000" y="47.3000"
textLength="2.1750" font-size="1.3333" lengthAdjust="spacingAndGlyphs"
text-anchor="middle" opacity="0">H2</text>
<g class="stroked-text"><desc>H2</desc>
<path d="M89.2381 47.2548
L89.2381 46.2548
" />
<path d="M89.2381 46.7310
L89.8095 46.7310
" />
<path d="M89.8095 47.2548
L89.8095 46.2548
" />
<path d="M90.2381 46.3501
L90.2857 46.3024
" />
<path d="M90.2857 46.3024
L90.3810 46.2548
" />
<path d="M90.3810 46.2548
L90.6190 46.2548
" />
<path d="M90.6190 46.2548
L90.7143 46.3024
" />
<path d="M90.7143 46.3024
L90.7619 46.3501
" />
<path d="M90.7619 46.3501
L90.8095 46.4453
" />
<path d="M90.8095 46.4453
L90.8095 46.5405
" />
<path d="M90.8095 46.5405
L90.7619 46.6834
" />
<path d="M90.7619 46.6834
L90.1905 47.2548
" />
<path d="M90.1905 47.2548
L90.8095 47.2548
" />
</g></g>
<g style="fill:#000000; fill-opacity:0.0; 
stroke:#000000; stroke-width:0.1000; stroke-opacity:1; 
stroke-linecap:round; stroke-linejoin:round;">
<text x="80.0000" y="60.0000"
textLength="2.0500" font-size="1.3333" lengthAdjust="spacingAndGlyphs"
text-anchor="middle" opacity="0">H4</text>
<g class="stroked-text"><desc>H4</desc>
<path d="M79.2381 59.9574
L79.2381 58.9574
" />
<path d="M79.2381 59.4336
L79.8095 59.4336
" />
<path d="M79.8095 59.9574
L79.8095 58.9574
" />
<path d="M80.7143 59.2908
L80.7143 59.9574
" />
<path d="M80.4762 58.9098
L80.2381 59.6241
" />
<path d="M80.2381 59.6241
L80.8571 59.6241
" />
</g></g>
<g style="fill:#000000; fill-opacity:0.0; 
stroke:#000000; stroke-width:0.1500; stroke-opacity:1; 
stroke-linecap:round; stroke-linejoin:round;">
<text x="70.0000" y="47.3000"
textLength="2.1750" font-size="1.3333" lengthAdjust="spacingAndGlyphs"
text-anchor="middle" opacity="0">H1</text>
<g class="stroked-text"><desc>H1</desc>
<path d="M69.2381 47.2548
L69.2381 46.2548
" />
<path d="M69.2381 46.7310
L69.8095 46.7310
" />
<path d="M69.8095 47.2548
L69.8095 46.2548
" />
<path d="M70.8095 47.2548
L70.2381 47.2548
" />
<path d="M70.5238 47.2548
L70.5238 46.2548
" />
<path d="M70.5238 46.2548
L70.4286 46.3977
" />
<path d="M70.4286 46.3977
L70.3333 46.4929
" />
<path d="M70.3333 46.4929
L70.2381 46.5405
" />
</g></g>
<g style="fill:#000000; fill-opacity:0.0; 
stroke:#000000; stroke-width:0.1000; stroke-opacity:1; 
stroke-linecap:round; stroke-linejoin:round;">
<g transform="rotate(-30.000000 87.0942 54.2876)">
<text x="87.0942" y="54.5376"
textLength="1.1262" font-size="0.6667" lengthAdjust="spacingAndGlyphs"
text-anchor="middle" opacity="0">D2</text>
</g>
<g class="stroked-text"><desc>D2</desc>
<path d="M86.8877 54.6679
L86.6377 54.2349
" />
<path d="M86.6377 54.2349
L86.7408 54.1754
" />
<path d="M86.7408 54.1754
L86.8145 54.1603
" />
<path d="M86.8145 54.1603
L86.8796 54.1777
" />
<path d="M86.8796 54.1777
L86.9240 54.2070
" />
<path d="M86.9240 54.2070
L86.9923 54.2776
" />
<path d="M86.9923 54.2776
L87.0280 54.3395
" />
<path d="M87.0280 54.3395
L87.0550 54.4339
" />
<path d="M87.0550 54.4339
L87.0582 54.4870
" />
<path d="M87.0582 54.4870
L87.0407 54.5520
" />
<path d="M87.0407 54.5520
L86.9908 54.6084
" />
<path d="M86.9908 54.6084
L86.8877 54.6679
" />
<path d="M87.0739 54.0380
L87.0826 54.0055
" />
<path d="M87.0826 54.0055
L87.1119 53.9611
" />
<path d="M87.1119 53.9611
L87.2150 53.9016
" />
<path d="M87.2150 53.9016
L87.2682 53.8984
" />
<path d="M87.2682 53.8984
L87.3007 53.9071
" />
<path d="M87.3007 53.9071
L87.3451 53.9364
" />
<path d="M87.3451 53.9364
L87.3689 53.9777
" />
<path d="M87.3689 53.9777
L87.3840 54.0514
" />
<path d="M87.3840 54.0514
L87.2795 54.4417
" />
<path d="M87.2795 54.4417
L87.5475 54.2870
" />
</g></g>
<g style="fill:#000000; fill-opacity:0.0; 
stroke:#000000; stroke-width:0.0750; stroke-opacity:1; 
stroke-linecap:round; stroke-linejoin:round;">
<g transform="rotate(-30.000000 86.7682 55.5728)">
<text x="86.7682" y="55.7228"
textLength="0.4132" font-size="0.4000" lengthAdjust="spacingAndGlyphs"
text-anchor="middle" opacity="0">1</text>
</g>
<g class="stroked-text"><desc>1</desc>
<path d="M86.9098 55.6467
L86.7614 55.7325
" />
<path d="M86.8356 55.6896
L86.6856 55.4298
" />
<path d="M86.6856 55.4298
L86.6823 55.4812
" />
<path d="M86.6823 55.4812
L86.6718 55.5202
" />
<path d="M86.6718 55.5202
L86.6542 55.5469
" />
</g></g>
<g style="fill:#000000; fill-opacity:0.0; 
stroke:#000000; stroke-width:0.1000; stroke-opacity:1; 
stroke-linecap:round; stroke-linejoin:round;">
<g transform="rotate(60.000000 74.2876 52.9058)">
<text x="74.2876" y="53.1558"
textLength="1.1262" font-size="0.6667" lengthAdjust="spacingAndGlyphs"
text-anchor="middle" opacity="0">D5</text>
</g>
<g class="stroked-text"><desc>D5</desc>
<path d="M73.9072 52.6992
L74.3402 52.4492
" />
<path d="M74.3402 52.4492
L74.3998 52.5523
" />
<path d="M74.3998 52.5523
L74.4149 52.6261
" />
<path d="M74.4149 52.6261
L74.3974 52.6911
" />
<path d="M74.3974 52.6911
L74.3681 52.7356
" />
<path d="M74.3681 52.7356
L74.2975 52.8038
" />
<path d="M74.2975 52.8038
L74.2357 52.8395
" />
<path d="M74.2357 52.8395
L74.1413 52.8665
" />
<path d="M74.1413 52.8665
L74.0881 52.8697
" />
<path d="M74.0881 52.8697
L74.0231 52.8523
" />
<path d="M74.0231 52.8523
L73.9667 52.8023
" />
<path d="M73.9667 52.8023
L73.9072 52.6992
" />
<path d="M74.7093 53.0884
L74.5902 52.8822
" />
<path d="M74.5902 52.8822
L74.3721 52.9807
" />
<path d="M74.3721 52.9807
L74.4047 52.9894
" />
<path d="M74.4047 52.9894
L74.4491 53.0187
" />
<path d="M74.4491 53.0187
L74.5086 53.1218
" />
<path d="M74.5086 53.1218
L74.5118 53.1750
" />
<path d="M74.5118 53.1750
L74.5031 53.2075
" />
<path d="M74.5031 53.2075
L74.4738 53.2519
" />
<path d="M74.4738 53.2519
L74.3707 53.3114
" />
<path d="M74.3707 53.3114
L74.3175 53.3146
" />
<path d="M74.3175 53.3146
L74.2850 53.3059
" />
<path d="M74.2850 53.3059
L74.2406 53.2766
" />
<path d="M74.2406 53.2766
L74.1810 53.1735
" />
<path d="M74.1810 53.1735
L74.1778 53.1203
" />
<path d="M74.1778 53.1203
L74.1866 53.0878
" />
</g></g>
<g style="fill:#000000; fill-opacity:0.0; 
stroke:#000000; stroke-width:0.0750; stroke-opacity:1; 
stroke-linecap:round; stroke-linejoin:round;">
<g transform="rotate(60.000000 75.5728 53.2318)">
<text x="75.5728" y="53.3818"
textLength="0.4132" font-size="0.4000" lengthAdjust="spacingAndGlyphs"
text-anchor="middle" opacity="0">1</text>
</g>
<g class="stroked-text"><desc>1</desc>
<path d="M75.4988 53.3735
L75.4131 53.2251
" />
<path d="M75.4560 53.2993
L75.7158 53.1493
" />
<path d="M75.7158 53.1493
L75.6644 53.1460
" />
<path d="M75.6644 53.1460
L75.6254 53.1355
" />
<path d="M75.6254 53.1355
L75.5987 53.1179
" />
</g></g>
<g style="fill:#000000; fill-opacity:0.0; 
stroke:#000000; stroke-width:0.1000; stroke-opacity:1; 
stroke-linecap:round; stroke-linejoin:round;">
<g transform="rotate(-60.000000 76.7124 68.4942)">
<text x="76.7124" y="68.7442"
textLength="1.1262" font-size="0.6667" lengthAdjust="spacingAndGlyphs"
text-anchor="middle" opacity="0">D9</text>
</g>
<g class="stroked-text"><desc>D9</desc>
<path d="M76.7237 68.9269
L76.2907 68.6769
" />
<path d="M76.2907 68.6769
L76.3502 68.5738
" />
<path d="M76.3502 68.5738
L76.4066 68.5238
" />
<path d="M76.4066 68.5238
L76.4716 68.5064
" />
<path d="M76.4716 68.5064
L76.5248 68.5096
" />
<path d="M76.5248 68.5096
L76.6191 68.5366
" />
<path d="M76.6191 68.5366
L76.6810 68.5723
" />
<path d="M76.6810 68.5723
L76.7516 68.6405
" />
<path d="M76.7516 68.6405
L76.7809 68.6850
" />
<path d="M76.7809 68.6850
L76.7983 68.7500
" />
<path d="M76.7983 68.7500
L76.7833 68.8238
" />
<path d="M76.7833 68.8238
L76.7237 68.9269
" />
<path d="M76.9856 68.4733
L77.0333 68.3908
" />
<path d="M77.0333 68.3908
L77.0364 68.3376
" />
<path d="M77.0364 68.3376
L77.0277 68.3051
" />
<path d="M77.0277 68.3051
L76.9897 68.2282
" />
<path d="M76.9897 68.2282
L76.9191 68.1599
" />
<path d="M76.9191 68.1599
L76.7541 68.0647
" />
<path d="M76.7541 68.0647
L76.7010 68.0615
" />
<path d="M76.7010 68.0615
L76.6685 68.0702
" />
<path d="M76.6685 68.0702
L76.6240 68.0995
" />
<path d="M76.6240 68.0995
L76.5764 68.1820
" />
<path d="M76.5764 68.1820
L76.5732 68.2352
" />
<path d="M76.5732 68.2352
L76.5820 68.2677
" />
<path d="M76.5820 68.2677
L76.6113 68.3121
" />
<path d="M76.6113 68.3121
L76.7144 68.3716
" />
<path d="M76.7144 68.3716
L76.7675 68.3748
" />
<path d="M76.7675 68.3748
L76.8001 68.3661
" />
<path d="M76.8001 68.3661
L76.8445 68.3368
" />
<path d="M76.8445 68.3368
L76.8921 68.2543
" />
<path d="M76.8921 68.2543
L76.8953 68.2012
" />
<path d="M76.8953 68.2012
L76.8866 68.1686
" />
<path d="M76.8866 68.1686
L76.8572 68.1242
" />
</g></g>
<g style="fill:#000000; fill-opacity:0.0; 
stroke:#000000; stroke-width:0.0750; stroke-opacity:1; 
stroke-linecap:round; stroke-linejoin:round;">
<g transform="rotate(-60.000000 76.3522 67.2182)">
<text x="76.3522" y="67.3682"
textLength="0.4132" font-size="0.4000" lengthAdjust="spacingAndGlyphs"
text-anchor="middle" opacity="0">1</text>
</g>
<g class="stroked-text"><desc>1</desc>
<path d="M76.5119 67.2114
L76.4262 67.3598
" />
<path d="M76.4690 67.2856
L76.2092 67.1356
" />
<path d="M76.2092 67.1356
L76.2320 67.1818
" />
<path d="M76.2320 67.1818
L76.2425 67.2208
" />
<path d="M76.2425 67.2208
L76.2406 67.2527
" />
</g></g>
<g style="fill:#000000; fill-opacity:0.0; 
stroke:#000000; stroke-width:0.1000; stroke-opacity:1; 
stroke-linecap:round; stroke-linejoin:round;">
<g transform="rotate(-60.000000 83.2876 51.5058)">
<text x="83.2876" y="51.7558"
textLength="1.1262" font-size="0.6667" lengthAdjust="spacingAndGlyphs"
text-anchor="middle" opacity="0">D3</text>
</g>
<g class="stroked-text"><desc>D3</desc>
<path d="M83.2989 51.9384
L82.8658 51.6884
" />
<path d="M82.8658 51.6884
L82.9254 51.5853
" />
<path d="M82.9254 51.5853
L82.9817 51.5354
" />
<path d="M82.9817 51.5354
L83.0468 51.5179
" />
<path d="M83.0468 51.5179
L83.0999 51.5211
" />
<path d="M83.0999 51.5211
L83.1943 51.5481
" />
<path d="M83.1943 51.5481
L83.2561 51.5839
" />
<path d="M83.2561 51.5839
L83.3267 51.6521
" />
<path d="M83.3267 51.6521
L83.3560 51.6965
" />
<path d="M83.3560 51.6965
L83.3735 51.7616
" />
<path d="M83.3735 51.7616
L83.3584 51.8353
" />
<path d="M83.3584 51.8353
L83.2989 51.9384
" />
<path d="M83.0920 51.2967
L83.2468 51.0286
" />
<path d="M83.2468 51.0286
L83.3284 51.2682
" />
<path d="M83.3284 51.2682
L83.3641 51.2063
" />
<path d="M83.3641 51.2063
L83.4086 51.1770
" />
<path d="M83.4086 51.1770
L83.4411 51.1683
" />
<path d="M83.4411 51.1683
L83.4942 51.1715
" />
<path d="M83.4942 51.1715
L83.5973 51.2310
" />
<path d="M83.5973 51.2310
L83.6267 51.2754
" />
<path d="M83.6267 51.2754
L83.6354 51.3079
" />
<path d="M83.6354 51.3079
L83.6322 51.3611
" />
<path d="M83.6322 51.3611
L83.5608 51.4848
" />
<path d="M83.5608 51.4848
L83.5163 51.5141
" />
<path d="M83.5163 51.5141
L83.4838 51.5228
" />
</g></g>
<g style="fill:#000000; fill-opacity:0.0; 
stroke:#000000; stroke-width:0.0750; stroke-opacity:1; 
stroke-linecap:round; stroke-linejoin:round;">
<g transform="rotate(-60.000000 83.6478 52.7818)">
<text x="83.6478" y="52.9318"
textLength="0.4132" font-size="0.4000" lengthAdjust="spacingAndGlyphs"
text-anchor="middle" opacity="0">1</text>
</g>
<g class="stroked-text"><desc>1</desc>
<path d="M83.8075 52.7751
L83.7217 52.9235
" />
<path d="M83.7646 52.8493
L83.5048 52.6993
" />
<path d="M83.5048 52.6993
L83.5276 52.7455
" />
<path d="M83.5276 52.7455
L83.5381 52.7845
" />
<path d="M83.5381 52.7845
L83.5362 52.8164
" />
</g></g>
<g style="fill:#000000; fill-opacity:0.0; 
stroke:#000000; stroke-width:0.1500; stroke-opacity:1; 
stroke-linecap:round; stroke-linejoin:round;">
<text x="70.0000" y="67.3000"
textLength="2.1750" font-size="1.3333" lengthAdjust="spacingAndGlyphs"
text-anchor="middle" opacity="0">H3</text>
<g class="stroked-text"><desc>H3</desc>
<path d="M69.2381 67.2548
L69.2381 66.2548
" />
<path d="M69.2381 66.7310
L69.8095 66.7310
" />
<path d="M69.8095 67.2548
L69.8095 66.2548
" />
<path d="M70.1905 66.2548
L70.8095 66.2548
" />
<path d="M70.8095 66.2548
L70.4762 66.6358
" />
<path d="M70.4762 66.6358
L70.6190 66.6358
" />
<path d="M70.6190 66.6358
L70.7143 66.6834
" />
<path d="M70.7143 66.6834
L70.7619 66.7310
" />
<path d="M70.7619 66.7310
L70.8095 66.8262
" />
<path d="M70.8095 66.8262
L70.8095 67.0643
" />
<path d="M70.8095 67.0643
L70.7619 67.1596
" />
<path d="M70.7619 67.1596
L70.7143 67.2072
" />
<path d="M70.7143 67.2072
L70.6190 67.2548
" />
<path d="M70.6190 67.2548
L70.3333 67.2548
" />
<path d="M70.3333 67.2548
L70.2381 67.2072
" />
<path d="M70.2381 67.2072
L70.1905 67.1596
" />
</g></g>
<g style="fill:#000000; fill-opacity:0.0; 
stroke:#000000; stroke-width:0.1000; stroke-opacity:1; 
stroke-linecap:round; stroke-linejoin:round;">
<path d="M85.6611 68.1054
L85.3361 67.5424
" />
<path d="M85.0982 68.4304
L85.6611 68.1054
" />
<path d="M89.8500 59.1500
L89.2000 59.1500
" />
<path d="M89.8500 59.8000
L89.8500 59.1500
" />
<path d="M79.1500 50.1500
L79.1500 50.8000
" />
<path d="M79.8000 50.1500
L79.1500 50.1500
" />
<path d="M88.9554 64.1889
L88.3924 63.8639
" />
<path d="M88.6304 64.7518
L88.9554 64.1889
" />
<path d="M71.8946 65.6611
L72.4576 65.3361
" />
<path d="M71.5696 65.0982
L71.8946 65.6611
" />
<path d="M80.8500 69.8500
L80.8500 69.2000
" />
<path d="M80.2000 69.8500
L80.8500 69.8500
" />
<path d="M70.1500 60.8500
L70.8000 60.8500
" />
<path d="M70.1500 60.2000
L70.1500 60.8500
" />
<path d="M71.0446 55.8111
L71.6076 56.1361
" />
<path d="M71.3696 55.2482
L71.0446 55.8111
" />
<path d="M88.1054 54.3389
L87.5424 54.6639
" />
<path d="M88.4304 54.9018
L88.1054 54.3389
" />
<path d="M74.3389 51.8946
L74.6639 52.4576
" />
<path d="M74.9018 51.5696
L74.3389 51.8946
" />
<path d="M75.8111 68.9554
L76.1361 68.3924
" />
<path d="M75.2482 68.6304
L75.8111 68.9554
" />
<path d="M84.1889 51.0446
L83.8639 51.6076
" />
<path d="M84.7518 51.3696
L84.1889 51.0446
" />
<g >
</g>
<g >
</g>
<g >
</g>
<g >
</g>
<g >
</g>
<g >
</g>
<g >
</g>
<g >
</g>
<g >
</g>
<g >
</g>
<g >
</g>
<g >
</g>
<g >
</g>
<g >
</g>
<g >
</g>
<g >
</g>
<g >
</g>
<g >
</g>
<g >
</g>
<g >
</g>
<g >
</g>
<g >
</g>
<g >
</g>
<g >
</g>
<g >
</g>
<g >
</g>
<g >
</g>
<g >
</g>
<g >
</g>
<g >
</g>
<g >
</g>
<g >
</g>
<g >
</g>
<g >
</g>
</g> 
</svg>
