<?xml version="1.0" standalone="no"?>
 <!DOCTYPE svg PUBLIC "-//W3C//DTD SVG 1.1//EN" 
 "http://www.w3.org/Graphics/SVG/1.1/DTD/svg11.dtd"> 
<svg
  xmlns:svg="http://www.w3.org/2000/svg"
  xmlns="http://www.w3.org/2000/svg"
  xmlns:xlink="http://www.w3.org/1999/xlink"
  version="1.1"
  width="297.0022mm" height="210.0072mm" viewBox="0.0000 0.0000 297.0022 210.0072">
<title>SVG Image created as pedalboard-led-ring-F_Silkscreen.svg date 2023/06/02 14:35:00 </title>
  <desc>Image generated by PCBNEW </desc>
<g style="fill:#000000; fill-opacity:1.0000;stroke:#000000; stroke-opacity:1.0000;
stroke-linecap:round; stroke-linejoin:round;"
 transform="translate(0 0) scale(1 1)">
</g>
<g style="fill:#000000; fill-opacity:0.0; 
stroke:#000000; stroke-width:0.0000; stroke-opacity:1; 
stroke-linecap:round; stroke-linejoin:round;">
</g>
<g style="fill:#000000; fill-opacity:0.0; 
stroke:#000000; stroke-width:0.1500; stroke-opacity:1; 
stroke-linecap:round; stroke-linejoin:round;">
<g transform="rotate(60.000000 86.0155 66.9192)">
<text x="86.0155" y="67.4192"
textLength="3.0798" font-size="1.3333" lengthAdjust="spacingAndGlyphs"
text-anchor="middle" opacity="0">D11</text>
</g>
<g class="stroked-text"><desc>D11</desc>
<path d="M85.0145 66.0950
L85.8805 65.5950
" />
<path d="M85.8805 65.5950
L85.9996 65.8012
" />
<path d="M85.9996 65.8012
L86.0298 65.9488
" />
<path d="M86.0298 65.9488
L85.9949 66.0789
" />
<path d="M85.9949 66.0789
L85.9362 66.1677
" />
<path d="M85.9362 66.1677
L85.7951 66.3042
" />
<path d="M85.7951 66.3042
L85.6714 66.3756
" />
<path d="M85.6714 66.3756
L85.4826 66.4296
" />
<path d="M85.4826 66.4296
L85.3763 66.4360
" />
<path d="M85.3763 66.4360
L85.2462 66.4011
" />
<path d="M85.2462 66.4011
L85.1336 66.3012
" />
<path d="M85.1336 66.3012
L85.0145 66.0950
" />
<path d="M85.7764 67.4147
L85.4907 66.9198
" />
<path d="M85.6336 67.1673
L86.4996 66.6673
" />
<path d="M86.4996 66.6673
L86.3283 66.6562
" />
<path d="M86.3283 66.6562
L86.1982 66.6213
" />
<path d="M86.1982 66.6213
L86.1093 66.5627
" />
<path d="M86.2526 68.2395
L85.9669 67.7446
" />
<path d="M86.1098 67.9920
L86.9758 67.4920
" />
<path d="M86.9758 67.4920
L86.8044 67.4810
" />
<path d="M86.8044 67.4810
L86.6743 67.4461
" />
<path d="M86.6743 67.4461
L86.5855 67.3875
" />
</g></g>
<g style="fill:#000000; fill-opacity:0.0; 
stroke:#000000; stroke-width:0.0750; stroke-opacity:1; 
stroke-linecap:round; stroke-linejoin:round;">
<g transform="rotate(60.000000 84.4272 66.7682)">
<text x="84.4272" y="66.9182"
textLength="0.4132" font-size="0.4000" lengthAdjust="spacingAndGlyphs"
text-anchor="middle" opacity="0">1</text>
</g>
<g class="stroked-text"><desc>1</desc>
<path d="M84.3533 66.9098
L84.2675 66.7614
" />
<path d="M84.3104 66.8356
L84.5702 66.6856
" />
<path d="M84.5702 66.6856
L84.5188 66.6823
" />
<path d="M84.5188 66.6823
L84.4798 66.6718
" />
<path d="M84.4798 66.6718
L84.4531 66.6542
" />
</g></g>
<g style="fill:#000000; fill-opacity:0.0; 
stroke:#000000; stroke-width:0.1500; stroke-opacity:1; 
stroke-linecap:round; stroke-linejoin:round;">
<text x="89.0000" y="58.7500"
textLength="2.1274" font-size="1.3333" lengthAdjust="spacingAndGlyphs"
text-anchor="middle" opacity="0">D1</text>
<g class="stroked-text"><desc>D1</desc>
<path d="M88.2619 58.7048
L88.2619 57.7048
" />
<path d="M88.2619 57.7048
L88.5000 57.7048
" />
<path d="M88.5000 57.7048
L88.6429 57.7524
" />
<path d="M88.6429 57.7524
L88.7381 57.8477
" />
<path d="M88.7381 57.8477
L88.7857 57.9429
" />
<path d="M88.7857 57.9429
L88.8333 58.1334
" />
<path d="M88.8333 58.1334
L88.8333 58.2762
" />
<path d="M88.8333 58.2762
L88.7857 58.4667
" />
<path d="M88.7857 58.4667
L88.7381 58.5620
" />
<path d="M88.7381 58.5620
L88.6429 58.6572
" />
<path d="M88.6429 58.6572
L88.5000 58.7048
" />
<path d="M88.5000 58.7048
L88.2619 58.7048
" />
<path d="M89.7857 58.7048
L89.2143 58.7048
" />
<path d="M89.5000 58.7048
L89.5000 57.7048
" />
<path d="M89.5000 57.7048
L89.4048 57.8477
" />
<path d="M89.4048 57.8477
L89.3095 57.9429
" />
<path d="M89.3095 57.9429
L89.2143 57.9905
" />
</g></g>
<g style="fill:#000000; fill-opacity:0.0; 
stroke:#000000; stroke-width:0.0750; stroke-opacity:1; 
stroke-linecap:round; stroke-linejoin:round;">
<text x="88.0750" y="59.7000"
textLength="0.4132" font-size="0.4000" lengthAdjust="spacingAndGlyphs"
text-anchor="middle" opacity="0">1</text>
<g class="stroked-text"><desc>1</desc>
<path d="M88.1607 59.6849
L87.9893 59.6849
" />
<path d="M88.0750 59.6849
L88.0750 59.3849
" />
<path d="M88.0750 59.3849
L88.0464 59.4277
" />
<path d="M88.0464 59.4277
L88.0179 59.4563
" />
<path d="M88.0179 59.4563
L87.9893 59.4706
" />
</g></g>
<g style="fill:#000000; fill-opacity:0.0; 
stroke:#000000; stroke-width:0.1500; stroke-opacity:1; 
stroke-linecap:round; stroke-linejoin:round;">
<g transform="rotate(-90.000000 78.2500 51.0000)">
<text x="78.2500" y="51.5000"
textLength="2.1274" font-size="1.3333" lengthAdjust="spacingAndGlyphs"
text-anchor="middle" opacity="0">D4</text>
</g>
<g class="stroked-text"><desc>D4</desc>
<path d="M78.7048 51.7381
L77.7048 51.7381
" />
<path d="M77.7048 51.7381
L77.7048 51.5000
" />
<path d="M77.7048 51.5000
L77.7524 51.3571
" />
<path d="M77.7524 51.3571
L77.8477 51.2619
" />
<path d="M77.8477 51.2619
L77.9429 51.2143
" />
<path d="M77.9429 51.2143
L78.1334 51.1667
" />
<path d="M78.1334 51.1667
L78.2762 51.1667
" />
<path d="M78.2762 51.1667
L78.4667 51.2143
" />
<path d="M78.4667 51.2143
L78.5620 51.2619
" />
<path d="M78.5620 51.2619
L78.6572 51.3571
" />
<path d="M78.6572 51.3571
L78.7048 51.5000
" />
<path d="M78.7048 51.5000
L78.7048 51.7381
" />
<path d="M78.0382 50.3095
L78.7048 50.3095
" />
<path d="M77.6572 50.5476
L78.3715 50.7857
" />
<path d="M78.3715 50.7857
L78.3715 50.1667
" />
</g></g>
<g style="fill:#000000; fill-opacity:0.0; 
stroke:#000000; stroke-width:0.0750; stroke-opacity:1; 
stroke-linecap:round; stroke-linejoin:round;">
<g transform="rotate(-90.000000 79.5500 51.9250)">
<text x="79.5500" y="52.0750"
textLength="0.4132" font-size="0.4000" lengthAdjust="spacingAndGlyphs"
text-anchor="middle" opacity="0">1</text>
</g>
<g class="stroked-text"><desc>1</desc>
<path d="M79.6849 51.8393
L79.6849 52.0107
" />
<path d="M79.6849 51.9250
L79.3849 51.9250
" />
<path d="M79.3849 51.9250
L79.4277 51.9536
" />
<path d="M79.4277 51.9536
L79.4563 51.9821
" />
<path d="M79.4563 51.9821
L79.4706 52.0107
" />
</g></g>
<g style="fill:#000000; fill-opacity:0.0; 
stroke:#000000; stroke-width:0.1500; stroke-opacity:1; 
stroke-linecap:round; stroke-linejoin:round;">
<g transform="rotate(30.000000 89.8100 63.7400)">
<text x="89.8100" y="64.2400"
textLength="3.0798" font-size="1.3333" lengthAdjust="spacingAndGlyphs"
text-anchor="middle" opacity="0">D12</text>
</g>
<g class="stroked-text"><desc>D12</desc>
<path d="M88.5310 63.5267
L89.0310 62.6607
" />
<path d="M89.0310 62.6607
L89.2372 62.7798
" />
<path d="M89.2372 62.7798
L89.3371 62.8924
" />
<path d="M89.3371 62.8924
L89.3720 63.0225
" />
<path d="M89.3720 63.0225
L89.3656 63.1288
" />
<path d="M89.3656 63.1288
L89.3116 63.3176
" />
<path d="M89.3116 63.3176
L89.2401 63.4413
" />
<path d="M89.2401 63.4413
L89.1037 63.5824
" />
<path d="M89.1037 63.5824
L89.0148 63.6411
" />
<path d="M89.0148 63.6411
L88.8847 63.6760
" />
<path d="M88.8847 63.6760
L88.7372 63.6458
" />
<path d="M88.7372 63.6458
L88.5310 63.5267
" />
<path d="M89.8506 64.2886
L89.3558 64.0029
" />
<path d="M89.6032 64.1458
L90.1032 63.2798
" />
<path d="M90.1032 63.2798
L89.9493 63.3559
" />
<path d="M89.9493 63.3559
L89.8192 63.3907
" />
<path d="M89.8192 63.3907
L89.7129 63.3843
" />
<path d="M90.6329 63.6956
L90.6980 63.6781
" />
<path d="M90.6980 63.6781
L90.8043 63.6845
" />
<path d="M90.8043 63.6845
L91.0105 63.8036
" />
<path d="M91.0105 63.8036
L91.0691 63.8924
" />
<path d="M91.0691 63.8924
L91.0866 63.9575
" />
<path d="M91.0866 63.9575
L91.0802 64.0638
" />
<path d="M91.0802 64.0638
L91.0326 64.1462
" />
<path d="M91.0326 64.1462
L90.9199 64.2462
" />
<path d="M90.9199 64.2462
L90.1393 64.4553
" />
<path d="M90.1393 64.4553
L90.6754 64.7648
" />
</g></g>
<g style="fill:#000000; fill-opacity:0.0; 
stroke:#000000; stroke-width:0.0750; stroke-opacity:1; 
stroke-linecap:round; stroke-linejoin:round;">
<g transform="rotate(30.000000 87.2182 63.6478)">
<text x="87.2182" y="63.7978"
textLength="0.4132" font-size="0.4000" lengthAdjust="spacingAndGlyphs"
text-anchor="middle" opacity="0">1</text>
</g>
<g class="stroked-text"><desc>1</desc>
<path d="M87.2249 63.8075
L87.0765 63.7217
" />
<path d="M87.1507 63.7646
L87.3007 63.5048
" />
<path d="M87.3007 63.5048
L87.2545 63.5276
" />
<path d="M87.2545 63.5276
L87.2155 63.5381
" />
<path d="M87.2155 63.5381
L87.1836 63.5362
" />
</g></g>
<g style="fill:#000000; fill-opacity:0.0; 
stroke:#000000; stroke-width:0.1500; stroke-opacity:1; 
stroke-linecap:round; stroke-linejoin:round;">
<g transform="rotate(-30.000000 73.0808 66.0155)">
<text x="73.0808" y="66.5155"
textLength="2.1274" font-size="1.3333" lengthAdjust="spacingAndGlyphs"
text-anchor="middle" opacity="0">D8</text>
</g>
<g class="stroked-text"><desc>D8</desc>
<path d="M72.6690 66.7785
L72.1690 65.9124
" />
<path d="M72.1690 65.9124
L72.3752 65.7934
" />
<path d="M72.3752 65.7934
L72.5227 65.7632
" />
<path d="M72.5227 65.7632
L72.6528 65.7981
" />
<path d="M72.6528 65.7981
L72.7417 65.8567
" />
<path d="M72.7417 65.8567
L72.8781 65.9979
" />
<path d="M72.8781 65.9979
L72.9496 66.1216
" />
<path d="M72.9496 66.1216
L73.0036 66.3104
" />
<path d="M73.0036 66.3104
L73.0099 66.4167
" />
<path d="M73.0099 66.4167
L72.9751 66.5468
" />
<path d="M72.9751 66.5468
L72.8752 66.6594
" />
<path d="M72.8752 66.6594
L72.6690 66.7785
" />
<path d="M73.3730 65.7122
L73.2667 65.7186
" />
<path d="M73.2667 65.7186
L73.2017 65.7011
" />
<path d="M73.2017 65.7011
L73.1128 65.6425
" />
<path d="M73.1128 65.6425
L73.0890 65.6012
" />
<path d="M73.0890 65.6012
L73.0826 65.4949
" />
<path d="M73.0826 65.4949
L73.1000 65.4299
" />
<path d="M73.1000 65.4299
L73.1587 65.3410
" />
<path d="M73.1587 65.3410
L73.3237 65.2458
" />
<path d="M73.3237 65.2458
L73.4300 65.2394
" />
<path d="M73.4300 65.2394
L73.4950 65.2568
" />
<path d="M73.4950 65.2568
L73.5839 65.3155
" />
<path d="M73.5839 65.3155
L73.6077 65.3567
" />
<path d="M73.6077 65.3567
L73.6141 65.4630
" />
<path d="M73.6141 65.4630
L73.5966 65.5281
" />
<path d="M73.5966 65.5281
L73.5380 65.6169
" />
<path d="M73.5380 65.6169
L73.3730 65.7122
" />
<path d="M73.3730 65.7122
L73.3143 65.8010
" />
<path d="M73.3143 65.8010
L73.2969 65.8661
" />
<path d="M73.2969 65.8661
L73.3033 65.9724
" />
<path d="M73.3033 65.9724
L73.3985 66.1373
" />
<path d="M73.3985 66.1373
L73.4874 66.1960
" />
<path d="M73.4874 66.1960
L73.5524 66.2134
" />
<path d="M73.5524 66.2134
L73.6587 66.2070
" />
<path d="M73.6587 66.2070
L73.8237 66.1118
" />
<path d="M73.8237 66.1118
L73.8823 66.0230
" />
<path d="M73.8823 66.0230
L73.8998 65.9579
" />
<path d="M73.8998 65.9579
L73.8934 65.8516
" />
<path d="M73.8934 65.8516
L73.7982 65.6867
" />
<path d="M73.7982 65.6867
L73.7093 65.6280
" />
<path d="M73.7093 65.6280
L73.6442 65.6106
" />
<path d="M73.6442 65.6106
L73.5380 65.6169
" />
</g></g>
<g style="fill:#000000; fill-opacity:0.0; 
stroke:#000000; stroke-width:0.0750; stroke-opacity:1; 
stroke-linecap:round; stroke-linejoin:round;">
<g transform="rotate(-30.000000 73.2318 64.4272)">
<text x="73.2318" y="64.5772"
textLength="0.4132" font-size="0.4000" lengthAdjust="spacingAndGlyphs"
text-anchor="middle" opacity="0">1</text>
</g>
<g class="stroked-text"><desc>1</desc>
<path d="M73.3735 64.5012
L73.2251 64.5869
" />
<path d="M73.2993 64.5440
L73.1493 64.2842
" />
<path d="M73.1493 64.2842
L73.1460 64.3356
" />
<path d="M73.1460 64.3356
L73.1355 64.3746
" />
<path d="M73.1355 64.3746
L73.1179 64.4013
" />
</g></g>
<g style="fill:#000000; fill-opacity:0.0; 
stroke:#000000; stroke-width:0.1500; stroke-opacity:1; 
stroke-linecap:round; stroke-linejoin:round;">
<g transform="rotate(-90.000000 81.7500 69.0000)">
<text x="81.7500" y="69.5000"
textLength="3.0798" font-size="1.3333" lengthAdjust="spacingAndGlyphs"
text-anchor="middle" opacity="0">D10</text>
</g>
<g class="stroked-text"><desc>D10</desc>
<path d="M82.2048 70.2143
L81.2048 70.2143
" />
<path d="M81.2048 70.2143
L81.2048 69.9762
" />
<path d="M81.2048 69.9762
L81.2524 69.8333
" />
<path d="M81.2524 69.8333
L81.3477 69.7381
" />
<path d="M81.3477 69.7381
L81.4429 69.6905
" />
<path d="M81.4429 69.6905
L81.6334 69.6429
" />
<path d="M81.6334 69.6429
L81.7762 69.6429
" />
<path d="M81.7762 69.6429
L81.9667 69.6905
" />
<path d="M81.9667 69.6905
L82.0620 69.7381
" />
<path d="M82.0620 69.7381
L82.1572 69.8333
" />
<path d="M82.1572 69.8333
L82.2048 69.9762
" />
<path d="M82.2048 69.9762
L82.2048 70.2143
" />
<path d="M82.2048 68.6905
L82.2048 69.2619
" />
<path d="M82.2048 68.9762
L81.2048 68.9762
" />
<path d="M81.2048 68.9762
L81.3477 69.0714
" />
<path d="M81.3477 69.0714
L81.4429 69.1667
" />
<path d="M81.4429 69.1667
L81.4905 69.2619
" />
<path d="M81.2048 68.0714
L81.2048 67.9762
" />
<path d="M81.2048 67.9762
L81.2524 67.8810
" />
<path d="M81.2524 67.8810
L81.3001 67.8333
" />
<path d="M81.3001 67.8333
L81.3953 67.7857
" />
<path d="M81.3953 67.7857
L81.5858 67.7381
" />
<path d="M81.5858 67.7381
L81.8239 67.7381
" />
<path d="M81.8239 67.7381
L82.0143 67.7857
" />
<path d="M82.0143 67.7857
L82.1096 67.8333
" />
<path d="M82.1096 67.8333
L82.1572 67.8810
" />
<path d="M82.1572 67.8810
L82.2048 67.9762
" />
<path d="M82.2048 67.9762
L82.2048 68.0714
" />
<path d="M82.2048 68.0714
L82.1572 68.1667
" />
<path d="M82.1572 68.1667
L82.1096 68.2143
" />
<path d="M82.1096 68.2143
L82.0143 68.2619
" />
<path d="M82.0143 68.2619
L81.8239 68.3095
" />
<path d="M81.8239 68.3095
L81.5858 68.3095
" />
<path d="M81.5858 68.3095
L81.3953 68.2619
" />
<path d="M81.3953 68.2619
L81.3001 68.2143
" />
<path d="M81.3001 68.2143
L81.2524 68.1667
" />
<path d="M81.2524 68.1667
L81.2048 68.0714
" />
</g></g>
<g style="fill:#000000; fill-opacity:0.0; 
stroke:#000000; stroke-width:0.0750; stroke-opacity:1; 
stroke-linecap:round; stroke-linejoin:round;">
<g transform="rotate(-90.000000 80.4500 68.0750)">
<text x="80.4500" y="68.2250"
textLength="0.4132" font-size="0.4000" lengthAdjust="spacingAndGlyphs"
text-anchor="middle" opacity="0">1</text>
</g>
<g class="stroked-text"><desc>1</desc>
<path d="M80.5849 67.9893
L80.5849 68.1607
" />
<path d="M80.5849 68.0750
L80.2849 68.0750
" />
<path d="M80.2849 68.0750
L80.3277 68.1036
" />
<path d="M80.3277 68.1036
L80.3563 68.1321
" />
<path d="M80.3563 68.1321
L80.3706 68.1607
" />
</g></g>
<g style="fill:#000000; fill-opacity:0.0; 
stroke:#000000; stroke-width:0.1500; stroke-opacity:1; 
stroke-linecap:round; stroke-linejoin:round;">
<text x="71.0000" y="62.2500"
textLength="2.1274" font-size="1.3333" lengthAdjust="spacingAndGlyphs"
text-anchor="middle" opacity="0">D7</text>
<g class="stroked-text"><desc>D7</desc>
<path d="M70.2619 62.2048
L70.2619 61.2048
" />
<path d="M70.2619 61.2048
L70.5000 61.2048
" />
<path d="M70.5000 61.2048
L70.6429 61.2524
" />
<path d="M70.6429 61.2524
L70.7381 61.3477
" />
<path d="M70.7381 61.3477
L70.7857 61.4429
" />
<path d="M70.7857 61.4429
L70.8333 61.6334
" />
<path d="M70.8333 61.6334
L70.8333 61.7762
" />
<path d="M70.8333 61.7762
L70.7857 61.9667
" />
<path d="M70.7857 61.9667
L70.7381 62.0620
" />
<path d="M70.7381 62.0620
L70.6429 62.1572
" />
<path d="M70.6429 62.1572
L70.5000 62.2048
" />
<path d="M70.5000 62.2048
L70.2619 62.2048
" />
<path d="M71.1667 61.2048
L71.8333 61.2048
" />
<path d="M71.8333 61.2048
L71.4048 62.2048
" />
</g></g>
<g style="fill:#000000; fill-opacity:0.0; 
stroke:#000000; stroke-width:0.0750; stroke-opacity:1; 
stroke-linecap:round; stroke-linejoin:round;">
<text x="71.9250" y="60.6000"
textLength="0.4132" font-size="0.4000" lengthAdjust="spacingAndGlyphs"
text-anchor="middle" opacity="0">1</text>
<g class="stroked-text"><desc>1</desc>
<path d="M72.0107 60.5849
L71.8393 60.5849
" />
<path d="M71.9250 60.5849
L71.9250 60.2849
" />
<path d="M71.9250 60.2849
L71.8964 60.3277
" />
<path d="M71.8964 60.3277
L71.8679 60.3563
" />
<path d="M71.8679 60.3563
L71.8393 60.3706
" />
</g></g>
<g style="fill:#000000; fill-opacity:0.0; 
stroke:#000000; stroke-width:0.1500; stroke-opacity:1; 
stroke-linecap:round; stroke-linejoin:round;">
<g transform="rotate(30.000000 71.3308 57.0155)">
<text x="71.3308" y="57.5155"
textLength="2.1274" font-size="1.3333" lengthAdjust="spacingAndGlyphs"
text-anchor="middle" opacity="0">D6</text>
</g>
<g class="stroked-text"><desc>D6</desc>
<path d="M70.4642 57.0404
L70.9642 56.1744
" />
<path d="M70.9642 56.1744
L71.1703 56.2934
" />
<path d="M71.1703 56.2934
L71.2703 56.4061
" />
<path d="M71.2703 56.4061
L71.3051 56.5362
" />
<path d="M71.3051 56.5362
L71.2987 56.6425
" />
<path d="M71.2987 56.6425
L71.2447 56.8312
" />
<path d="M71.2447 56.8312
L71.1733 56.9549
" />
<path d="M71.1733 56.9549
L71.0368 57.0961
" />
<path d="M71.0368 57.0961
L70.9480 57.1548
" />
<path d="M70.9480 57.1548
L70.8179 57.1896
" />
<path d="M70.8179 57.1896
L70.6703 57.1594
" />
<path d="M70.6703 57.1594
L70.4642 57.0404
" />
<path d="M72.2013 56.8886
L72.0364 56.7934
" />
<path d="M72.0364 56.7934
L71.9301 56.7870
" />
<path d="M71.9301 56.7870
L71.8650 56.8045
" />
<path d="M71.8650 56.8045
L71.7111 56.8806
" />
<path d="M71.7111 56.8806
L71.5747 57.0217
" />
<path d="M71.5747 57.0217
L71.3842 57.3516
" />
<path d="M71.3842 57.3516
L71.3778 57.4579
" />
<path d="M71.3778 57.4579
L71.3952 57.5230
" />
<path d="M71.3952 57.5230
L71.4539 57.6118
" />
<path d="M71.4539 57.6118
L71.6189 57.7070
" />
<path d="M71.6189 57.7070
L71.7251 57.7134
" />
<path d="M71.7251 57.7134
L71.7902 57.6960
" />
<path d="M71.7902 57.6960
L71.8790 57.6373
" />
<path d="M71.8790 57.6373
L71.9981 57.4311
" />
<path d="M71.9981 57.4311
L72.0045 57.3248
" />
<path d="M72.0045 57.3248
L71.9870 57.2598
" />
<path d="M71.9870 57.2598
L71.9284 57.1709
" />
<path d="M71.9284 57.1709
L71.7634 57.0757
" />
<path d="M71.7634 57.0757
L71.6571 57.0693
" />
<path d="M71.6571 57.0693
L71.5921 57.0867
" />
<path d="M71.5921 57.0867
L71.5032 57.1454
" />
</g></g>
<g style="fill:#000000; fill-opacity:0.0; 
stroke:#000000; stroke-width:0.0750; stroke-opacity:1; 
stroke-linecap:round; stroke-linejoin:round;">
<g transform="rotate(30.000000 72.7818 56.3522)">
<text x="72.7818" y="56.5022"
textLength="0.4132" font-size="0.4000" lengthAdjust="spacingAndGlyphs"
text-anchor="middle" opacity="0">1</text>
</g>
<g class="stroked-text"><desc>1</desc>
<path d="M72.7886 56.5119
L72.6402 56.4262
" />
<path d="M72.7144 56.4690
L72.8644 56.2092
" />
<path d="M72.8644 56.2092
L72.8182 56.2320
" />
<path d="M72.8182 56.2320
L72.7792 56.2425
" />
<path d="M72.7792 56.2425
L72.7473 56.2406
" />
</g></g>
<g style="fill:#000000; fill-opacity:0.0; 
stroke:#000000; stroke-width:0.1500; stroke-opacity:1; 
stroke-linecap:round; stroke-linejoin:round;">
<g transform="rotate(-30.000000 86.9192 53.9845)">
<text x="86.9192" y="54.4845"
textLength="2.1274" font-size="1.3333" lengthAdjust="spacingAndGlyphs"
text-anchor="middle" opacity="0">D2</text>
</g>
<g class="stroked-text"><desc>D2</desc>
<path d="M86.5074 54.7474
L86.0074 53.8814
" />
<path d="M86.0074 53.8814
L86.2136 53.7623
" />
<path d="M86.2136 53.7623
L86.3612 53.7321
" />
<path d="M86.3612 53.7321
L86.4913 53.7670
" />
<path d="M86.4913 53.7670
L86.5801 53.8257
" />
<path d="M86.5801 53.8257
L86.7166 53.9668
" />
<path d="M86.7166 53.9668
L86.7880 54.0905
" />
<path d="M86.7880 54.0905
L86.8420 54.2793
" />
<path d="M86.8420 54.2793
L86.8484 54.3856
" />
<path d="M86.8484 54.3856
L86.8135 54.5157
" />
<path d="M86.8135 54.5157
L86.7136 54.6283
" />
<path d="M86.7136 54.6283
L86.5074 54.7474
" />
<path d="M86.8798 53.4876
L86.8973 53.4226
" />
<path d="M86.8973 53.4226
L86.9559 53.3337
" />
<path d="M86.9559 53.3337
L87.1621 53.2147
" />
<path d="M87.1621 53.2147
L87.2684 53.2083
" />
<path d="M87.2684 53.2083
L87.3335 53.2257
" />
<path d="M87.3335 53.2257
L87.4223 53.2844
" />
<path d="M87.4223 53.2844
L87.4699 53.3669
" />
<path d="M87.4699 53.3669
L87.5001 53.5144
" />
<path d="M87.5001 53.5144
L87.2910 54.2950
" />
<path d="M87.2910 54.2950
L87.8271 53.9855
" />
</g></g>
<g style="fill:#000000; fill-opacity:0.0; 
stroke:#000000; stroke-width:0.0750; stroke-opacity:1; 
stroke-linecap:round; stroke-linejoin:round;">
<g transform="rotate(-30.000000 86.7682 55.5728)">
<text x="86.7682" y="55.7228"
textLength="0.4132" font-size="0.4000" lengthAdjust="spacingAndGlyphs"
text-anchor="middle" opacity="0">1</text>
</g>
<g class="stroked-text"><desc>1</desc>
<path d="M86.9098 55.6467
L86.7614 55.7325
" />
<path d="M86.8356 55.6896
L86.6856 55.4298
" />
<path d="M86.6856 55.4298
L86.6823 55.4812
" />
<path d="M86.6823 55.4812
L86.6718 55.5202
" />
<path d="M86.6718 55.5202
L86.6542 55.5469
" />
</g></g>
<g style="fill:#000000; fill-opacity:0.0; 
stroke:#000000; stroke-width:0.1500; stroke-opacity:1; 
stroke-linecap:round; stroke-linejoin:round;">
<g transform="rotate(60.000000 73.9845 53.0808)">
<text x="73.9845" y="53.5808"
textLength="2.1274" font-size="1.3333" lengthAdjust="spacingAndGlyphs"
text-anchor="middle" opacity="0">D5</text>
</g>
<g class="stroked-text"><desc>D5</desc>
<path d="M73.2215 52.6690
L74.0875 52.1690
" />
<path d="M74.0875 52.1690
L74.2066 52.3752
" />
<path d="M74.2066 52.3752
L74.2368 52.5227
" />
<path d="M74.2368 52.5227
L74.2019 52.6528
" />
<path d="M74.2019 52.6528
L74.1433 52.7417
" />
<path d="M74.1433 52.7417
L74.0021 52.8781
" />
<path d="M74.0021 52.8781
L73.8784 52.9496
" />
<path d="M73.8784 52.9496
L73.6896 53.0036
" />
<path d="M73.6896 53.0036
L73.5833 53.0099
" />
<path d="M73.5833 53.0099
L73.4532 52.9751
" />
<path d="M73.4532 52.9751
L73.3406 52.8752
" />
<path d="M73.3406 52.8752
L73.2215 52.6690
" />
<path d="M74.8256 53.4474
L74.5875 53.0350
" />
<path d="M74.5875 53.0350
L74.1513 53.2319
" />
<path d="M74.1513 53.2319
L74.2164 53.2493
" />
<path d="M74.2164 53.2493
L74.3053 53.3080
" />
<path d="M74.3053 53.3080
L74.4243 53.5141
" />
<path d="M74.4243 53.5141
L74.4307 53.6204
" />
<path d="M74.4307 53.6204
L74.4133 53.6855
" />
<path d="M74.4133 53.6855
L74.3546 53.7743
" />
<path d="M74.3546 53.7743
L74.1484 53.8934
" />
<path d="M74.1484 53.8934
L74.0421 53.8998
" />
<path d="M74.0421 53.8998
L73.9770 53.8823
" />
<path d="M73.9770 53.8823
L73.8882 53.8237
" />
<path d="M73.8882 53.8237
L73.7691 53.6175
" />
<path d="M73.7691 53.6175
L73.7628 53.5112
" />
<path d="M73.7628 53.5112
L73.7802 53.4461
" />
</g></g>
<g style="fill:#000000; fill-opacity:0.0; 
stroke:#000000; stroke-width:0.0750; stroke-opacity:1; 
stroke-linecap:round; stroke-linejoin:round;">
<g transform="rotate(60.000000 75.5728 53.2318)">
<text x="75.5728" y="53.3818"
textLength="0.4132" font-size="0.4000" lengthAdjust="spacingAndGlyphs"
text-anchor="middle" opacity="0">1</text>
</g>
<g class="stroked-text"><desc>1</desc>
<path d="M75.4988 53.3735
L75.4131 53.2251
" />
<path d="M75.4560 53.2993
L75.7158 53.1493
" />
<path d="M75.7158 53.1493
L75.6644 53.1460
" />
<path d="M75.6644 53.1460
L75.6254 53.1355
" />
<path d="M75.6254 53.1355
L75.5987 53.1179
" />
</g></g>
<g style="fill:#000000; fill-opacity:0.0; 
stroke:#000000; stroke-width:0.1500; stroke-opacity:1; 
stroke-linecap:round; stroke-linejoin:round;">
<g transform="rotate(-60.000000 77.0155 68.6692)">
<text x="77.0155" y="69.1692"
textLength="2.1274" font-size="1.3333" lengthAdjust="spacingAndGlyphs"
text-anchor="middle" opacity="0">D9</text>
</g>
<g class="stroked-text"><desc>D9</desc>
<path d="M77.0404 69.5358
L76.1744 69.0358
" />
<path d="M76.1744 69.0358
L76.2934 68.8297
" />
<path d="M76.2934 68.8297
L76.4061 68.7297
" />
<path d="M76.4061 68.7297
L76.5362 68.6949
" />
<path d="M76.5362 68.6949
L76.6425 68.7013
" />
<path d="M76.6425 68.7013
L76.8312 68.7553
" />
<path d="M76.8312 68.7553
L76.9549 68.8267
" />
<path d="M76.9549 68.8267
L77.0961 68.9632
" />
<path d="M77.0961 68.9632
L77.1548 69.0520
" />
<path d="M77.1548 69.0520
L77.1896 69.1821
" />
<path d="M77.1896 69.1821
L77.1594 69.3297
" />
<path d="M77.1594 69.3297
L77.0404 69.5358
" />
<path d="M77.5642 68.6286
L77.6594 68.4636
" />
<path d="M77.6594 68.4636
L77.6658 68.3573
" />
<path d="M77.6658 68.3573
L77.6484 68.2923
" />
<path d="M77.6484 68.2923
L77.5723 68.1384
" />
<path d="M77.5723 68.1384
L77.4311 68.0019
" />
<path d="M77.4311 68.0019
L77.1012 67.8114
" />
<path d="M77.1012 67.8114
L76.9949 67.8050
" />
<path d="M76.9949 67.8050
L76.9299 67.8225
" />
<path d="M76.9299 67.8225
L76.8410 67.8811
" />
<path d="M76.8410 67.8811
L76.7458 68.0461
" />
<path d="M76.7458 68.0461
L76.7394 68.1524
" />
<path d="M76.7394 68.1524
L76.7568 68.2174
" />
<path d="M76.7568 68.2174
L76.8155 68.3063
" />
<path d="M76.8155 68.3063
L77.0217 68.4253
" />
<path d="M77.0217 68.4253
L77.1280 68.4317
" />
<path d="M77.1280 68.4317
L77.1930 68.4143
" />
<path d="M77.1930 68.4143
L77.2819 68.3556
" />
<path d="M77.2819 68.3556
L77.3771 68.1907
" />
<path d="M77.3771 68.1907
L77.3835 68.0844
" />
<path d="M77.3835 68.0844
L77.3661 68.0193
" />
<path d="M77.3661 68.0193
L77.3074 67.9305
" />
</g></g>
<g style="fill:#000000; fill-opacity:0.0; 
stroke:#000000; stroke-width:0.0750; stroke-opacity:1; 
stroke-linecap:round; stroke-linejoin:round;">
<g transform="rotate(-60.000000 76.3522 67.2182)">
<text x="76.3522" y="67.3682"
textLength="0.4132" font-size="0.4000" lengthAdjust="spacingAndGlyphs"
text-anchor="middle" opacity="0">1</text>
</g>
<g class="stroked-text"><desc>1</desc>
<path d="M76.5119 67.2114
L76.4262 67.3598
" />
<path d="M76.4690 67.2856
L76.2092 67.1356
" />
<path d="M76.2092 67.1356
L76.2320 67.1818
" />
<path d="M76.2320 67.1818
L76.2425 67.2208
" />
<path d="M76.2425 67.2208
L76.2406 67.2527
" />
</g></g>
<g style="fill:#000000; fill-opacity:0.0; 
stroke:#000000; stroke-width:0.1500; stroke-opacity:1; 
stroke-linecap:round; stroke-linejoin:round;">
<g transform="rotate(-60.000000 82.9845 51.3308)">
<text x="82.9845" y="51.8308"
textLength="2.1274" font-size="1.3333" lengthAdjust="spacingAndGlyphs"
text-anchor="middle" opacity="0">D3</text>
</g>
<g class="stroked-text"><desc>D3</desc>
<path d="M83.0093 52.1974
L82.1433 51.6974
" />
<path d="M82.1433 51.6974
L82.2623 51.4912
" />
<path d="M82.2623 51.4912
L82.3750 51.3913
" />
<path d="M82.3750 51.3913
L82.5051 51.3564
" />
<path d="M82.5051 51.3564
L82.6114 51.3628
" />
<path d="M82.6114 51.3628
L82.8001 51.4168
" />
<path d="M82.8001 51.4168
L82.9239 51.4882
" />
<path d="M82.9239 51.4882
L83.0650 51.6247
" />
<path d="M83.0650 51.6247
L83.1237 51.7136
" />
<path d="M83.1237 51.7136
L83.1585 51.8437
" />
<path d="M83.1585 51.8437
L83.1283 51.9912
" />
<path d="M83.1283 51.9912
L83.0093 52.1974
" />
<path d="M82.5956 50.9138
L82.9052 50.3777
" />
<path d="M82.9052 50.3777
L83.0684 50.8569
" />
<path d="M83.0684 50.8569
L83.1398 50.7332
" />
<path d="M83.1398 50.7332
L83.2287 50.6745
" />
<path d="M83.2287 50.6745
L83.2938 50.6571
" />
<path d="M83.2938 50.6571
L83.4000 50.6634
" />
<path d="M83.4000 50.6634
L83.6062 50.7825
" />
<path d="M83.6062 50.7825
L83.6649 50.8714
" />
<path d="M83.6649 50.8714
L83.6823 50.9364
" />
<path d="M83.6823 50.9364
L83.6760 51.0427
" />
<path d="M83.6760 51.0427
L83.5331 51.2901
" />
<path d="M83.5331 51.2901
L83.4442 51.3488
" />
<path d="M83.4442 51.3488
L83.3792 51.3662
" />
</g></g>
<g style="fill:#000000; fill-opacity:0.0; 
stroke:#000000; stroke-width:0.0750; stroke-opacity:1; 
stroke-linecap:round; stroke-linejoin:round;">
<g transform="rotate(-60.000000 83.6478 52.7818)">
<text x="83.6478" y="52.9318"
textLength="0.4132" font-size="0.4000" lengthAdjust="spacingAndGlyphs"
text-anchor="middle" opacity="0">1</text>
</g>
<g class="stroked-text"><desc>1</desc>
<path d="M83.8075 52.7751
L83.7217 52.9235
" />
<path d="M83.7646 52.8493
L83.5048 52.6993
" />
<path d="M83.5048 52.6993
L83.5276 52.7455
" />
<path d="M83.5276 52.7455
L83.5381 52.7845
" />
<path d="M83.5381 52.7845
L83.5362 52.8164
" />
</g></g>
<g style="fill:#000000; fill-opacity:0.0; 
stroke:#000000; stroke-width:0.1500; stroke-opacity:1; 
stroke-linecap:round; stroke-linejoin:round;">
<text x="90.7200" y="62.2300"
textLength="2.1274" font-size="1.3333" lengthAdjust="spacingAndGlyphs"
text-anchor="middle" opacity="0">R1</text>
<g class="stroked-text"><desc>R1</desc>
<path d="M90.5533 62.1848
L90.2200 61.7086
" />
<path d="M89.9819 62.1848
L89.9819 61.1848
" />
<path d="M89.9819 61.1848
L90.3629 61.1848
" />
<path d="M90.3629 61.1848
L90.4581 61.2324
" />
<path d="M90.4581 61.2324
L90.5057 61.2801
" />
<path d="M90.5057 61.2801
L90.5533 61.3753
" />
<path d="M90.5533 61.3753
L90.5533 61.5182
" />
<path d="M90.5533 61.5182
L90.5057 61.6134
" />
<path d="M90.5057 61.6134
L90.4581 61.6610
" />
<path d="M90.4581 61.6610
L90.3629 61.7086
" />
<path d="M90.3629 61.7086
L89.9819 61.7086
" />
<path d="M91.5057 62.1848
L90.9343 62.1848
" />
<path d="M91.2200 62.1848
L91.2200 61.1848
" />
<path d="M91.2200 61.1848
L91.1248 61.3277
" />
<path d="M91.1248 61.3277
L91.0295 61.4229
" />
<path d="M91.0295 61.4229
L90.9343 61.4705
" />
</g></g>
<g style="fill:#000000; fill-opacity:0.0; 
stroke:#000000; stroke-width:0.1000; stroke-opacity:1; 
stroke-linecap:round; stroke-linejoin:round;">
<path d="M85.6611 68.1054
L85.3361 67.5424
" />
<path d="M85.0982 68.4304
L85.6611 68.1054
" />
<path d="M89.8500 59.1500
L89.2000 59.1500
" />
<path d="M89.8500 59.8000
L89.8500 59.1500
" />
<path d="M79.1500 50.1500
L79.1500 50.8000
" />
<path d="M79.8000 50.1500
L79.1500 50.1500
" />
<path d="M88.9554 64.1889
L88.3924 63.8639
" />
<path d="M88.6304 64.7518
L88.9554 64.1889
" />
<path d="M71.8946 65.6611
L72.4576 65.3361
" />
<path d="M71.5696 65.0982
L71.8946 65.6611
" />
<path d="M80.8500 69.8500
L80.8500 69.2000
" />
<path d="M80.2000 69.8500
L80.8500 69.8500
" />
<path d="M70.1500 60.8500
L70.8000 60.8500
" />
<path d="M70.1500 60.2000
L70.1500 60.8500
" />
<path d="M71.0446 55.8111
L71.6076 56.1361
" />
<path d="M71.3696 55.2482
L71.0446 55.8111
" />
<path d="M88.1054 54.3389
L87.5424 54.6639
" />
<path d="M88.4304 54.9018
L88.1054 54.3389
" />
<path d="M74.3389 51.8946
L74.6639 52.4576
" />
<path d="M74.9018 51.5696
L74.3389 51.8946
" />
<path d="M75.8111 68.9554
L76.1361 68.3924
" />
<path d="M75.2482 68.6304
L75.8111 68.9554
" />
<path d="M84.1889 51.0446
L83.8639 51.6076
" />
<path d="M84.7518 51.3696
L84.1889 51.0446
" />
<g >
</g>
<g >
</g>
<g >
</g>
<g >
</g>
<g >
</g>
<g >
</g>
<g >
</g>
<g >
</g>
<g >
</g>
<g >
</g>
<g >
</g>
<g >
</g>
<g >
</g>
<g >
</g>
<g >
</g>
<g >
</g>
<g >
</g>
<g >
</g>
<g >
</g>
<g >
</g>
<g >
</g>
<g >
</g>
<g >
</g>
<g >
</g>
<g >
</g>
<g >
</g>
<g >
</g>
<g >
</g>
<g >
</g>
<g >
</g>
</g> 
</svg>
