<?xml version="1.0" standalone="no"?>
 <!DOCTYPE svg PUBLIC "-//W3C//DTD SVG 1.1//EN" 
 "http://www.w3.org/Graphics/SVG/1.1/DTD/svg11.dtd"> 
<svg
  xmlns:svg="http://www.w3.org/2000/svg"
  xmlns="http://www.w3.org/2000/svg"
  xmlns:xlink="http://www.w3.org/1999/xlink"
  version="1.1"
  width="297.0022mm" height="210.0072mm" viewBox="0.0000 0.0000 297.0022 210.0072">
<title>SVG Image created as pedalboard-led-ring-F_Courtyard.svg date 2023/10/17 19:13:42 </title>
  <desc>Image generated by PCBNEW </desc>
<g style="fill:#000000; fill-opacity:1.0000;stroke:#000000; stroke-opacity:1.0000;
stroke-linecap:round; stroke-linejoin:round;"
 transform="translate(0 0) scale(1 1)">
</g>
<g style="fill:#000000; fill-opacity:0.0; 
stroke:#000000; stroke-width:0.0000; stroke-opacity:1; 
stroke-linecap:round; stroke-linejoin:round;">
</g>
<g style="fill:#000000; fill-opacity:0.0; 
stroke:#000000; stroke-width:0.0500; stroke-opacity:1; 
stroke-linecap:round; stroke-linejoin:round;">
<circle cx="80.0000" cy="71.0000" r="0.7500" /> 
<path d="M84.1340 69.1603
L83.1340 67.4282
" />
<path d="M85.8660 68.1603
L84.1340 69.1603
" />
<path d="M83.1340 67.4282
L84.8660 66.4282
" />
<path d="M84.8660 66.4282
L85.8660 68.1603
" />
<path d="M78.8500 50.1800
L78.8500 51.9400
" />
<path d="M78.1500 50.1800
L78.8500 50.1800
" />
<path d="M78.8500 51.9400
L78.1500 51.9400
" />
<path d="M78.1500 51.9400
L78.1500 50.1800
" />
<path d="M74.0531 51.9956
L74.9331 53.5198
" />
<path d="M73.4469 52.3456
L74.0531 51.9956
" />
<path d="M74.9331 53.5198
L74.3269 53.8698
" />
<path d="M74.3269 53.8698
L73.4469 52.3456
" />
<path d="M90.0000 61.0000
L88.0000 61.0000
" />
<path d="M90.0000 59.0000
L90.0000 61.0000
" />
<path d="M88.0000 61.0000
L88.0000 59.0000
" />
<path d="M88.0000 59.0000
L90.0000 59.0000
" />
<path d="M81.0000 50.0000
L81.0000 52.0000
" />
<path d="M79.0000 50.0000
L81.0000 50.0000
" />
<path d="M81.0000 52.0000
L79.0000 52.0000
" />
<path d="M79.0000 52.0000
L79.0000 50.0000
" />
<path d="M88.1603 65.8660
L86.4282 64.8660
" />
<path d="M89.1603 64.1340
L88.1603 65.8660
" />
<path d="M86.4282 64.8660
L87.4282 63.1340
" />
<path d="M87.4282 63.1340
L89.1603 64.1340
" />
<path d="M70.8397 64.1340
L72.5718 63.1340
" />
<path d="M71.8397 65.8660
L70.8397 64.1340
" />
<path d="M72.5718 63.1340
L73.5718 64.8660
" />
<path d="M73.5718 64.8660
L71.8397 65.8660
" />
<path d="M79.0000 70.0000
L79.0000 68.0000
" />
<path d="M81.0000 70.0000
L79.0000 70.0000
" />
<path d="M79.0000 68.0000
L81.0000 68.0000
" />
<path d="M81.0000 68.0000
L81.0000 70.0000
" />
<path d="M70.0000 59.0000
L72.0000 59.0000
" />
<path d="M70.0000 61.0000
L70.0000 59.0000
" />
<path d="M72.0000 59.0000
L72.0000 61.0000
" />
<path d="M72.0000 61.0000
L70.0000 61.0000
" />
<path d="M71.8397 54.1340
L73.5718 55.1340
" />
<path d="M70.8397 55.8660
L71.8397 54.1340
" />
<path d="M73.5718 55.1340
L72.5718 56.8660
" />
<path d="M72.5718 56.8660
L70.8397 55.8660
" />
<circle cx="80.0000" cy="49.0000" r="0.7500" /> 
<path d="M70.1200 61.1500
L71.8800 61.1500
" />
<path d="M70.1200 61.8500
L70.1200 61.1500
" />
<path d="M71.8800 61.1500
L71.8800 61.8500
" />
<path d="M71.8800 61.8500
L70.1200 61.8500
" />
<path d="M88.5700 57.9500
L89.1300 57.9500
" />
<path d="M89.1300 57.9500
L89.1300 57.7500
" />
<path d="M88.4000 57.7500
L88.4000 56.6500
" />
<path d="M88.5700 57.7500
L88.5700 57.9500
" />
<path d="M88.5700 57.7500
L88.4000 57.7500
" />
<path d="M89.3000 57.7500
L89.1300 57.7500
" />
<path d="M88.4000 56.6500
L88.5700 56.6500
" />
<path d="M88.5700 56.6500
L88.5700 56.4500
" />
<path d="M89.1300 56.6500
L89.3000 56.6500
" />
<path d="M89.3000 56.6500
L89.3000 57.7500
" />
<path d="M88.5700 56.4500
L89.1300 56.4500
" />
<path d="M89.1300 56.4500
L89.1300 56.6500
" />
<path d="M72.0629 65.8869
L73.5871 65.0069
" />
<path d="M72.4129 66.4931
L72.0629 65.8869
" />
<path d="M73.5871 65.0069
L73.9371 65.6131
" />
<path d="M73.9371 65.6131
L72.4129 66.4931
" />
<path d="M76.0569 69.0871
L76.9369 67.5629
" />
<path d="M76.6631 69.4371
L76.0569 69.0871
" />
<path d="M76.9369 67.5629
L77.5431 67.9129
" />
<path d="M77.5431 67.9129
L76.6631 69.4371
" />
<path d="M85.9369 68.0044
L85.0569 66.4802
" />
<path d="M86.5431 67.6544
L85.9369 68.0044
" />
<path d="M85.0569 66.4802
L85.6631 66.1302
" />
<path d="M85.6631 66.1302
L86.5431 67.6544
" />
<path d="M70.9129 56.0569
L72.4371 56.9369
" />
<path d="M70.5629 56.6631
L70.9129 56.0569
" />
<path d="M72.4371 56.9369
L72.0871 57.5431
" />
<path d="M72.0871 57.5431
L70.5629 56.6631
" />
<path d="M81.1500 69.9100
L81.1500 68.1500
" />
<path d="M81.8500 69.9100
L81.1500 69.9100
" />
<path d="M81.1500 68.1500
L81.8500 68.1500
" />
<path d="M81.8500 68.1500
L81.8500 69.9100
" />
<path d="M89.1603 55.8660
L87.4282 56.8660
" />
<path d="M88.1603 54.1340
L89.1603 55.8660
" />
<path d="M87.4282 56.8660
L86.4282 55.1340
" />
<path d="M86.4282 55.1340
L88.1603 54.1340
" />
<path d="M88.2700 58.2500
L90.0300 58.2500
" />
<path d="M88.2700 58.9500
L88.2700 58.2500
" />
<path d="M90.0300 58.2500
L90.0300 58.9500
" />
<path d="M90.0300 58.9500
L88.2700 58.9500
" />
<path d="M87.9371 54.1131
L86.4129 54.9931
" />
<path d="M87.5871 53.5069
L87.9371 54.1131
" />
<path d="M86.4129 54.9931
L86.0629 54.3869
" />
<path d="M86.0629 54.3869
L87.5871 53.5069
" />
<path d="M75.8660 50.8397
L76.8660 52.5718
" />
<path d="M74.1340 51.8397
L75.8660 50.8397
" />
<path d="M76.8660 52.5718
L75.1340 53.5718
" />
<path d="M75.1340 53.5718
L74.1340 51.8397
" />
<path d="M89.1371 63.9931
L87.6129 63.1131
" />
<path d="M89.4871 63.3869
L89.1371 63.9931
" />
<path d="M87.6129 63.1131
L87.9629 62.5069
" />
<path d="M87.9629 62.5069
L89.4871 63.3869
" />
<path d="M74.1340 68.1603
L75.1340 66.4282
" />
<path d="M75.8660 69.1603
L74.1340 68.1603
" />
<path d="M75.1340 66.4282
L76.8660 67.4282
" />
<path d="M76.8660 67.4282
L75.8660 69.1603
" />
<path d="M85.8660 51.8397
L84.8660 53.5718
" />
<path d="M84.1340 50.8397
L85.8660 51.8397
" />
<path d="M84.8660 53.5718
L83.1340 52.5718
" />
<path d="M83.1340 52.5718
L84.1340 50.8397
" />
<path d="M89.7900 62.0000
L88.0300 62.0000
" />
<path d="M89.7900 61.3000
L89.7900 62.0000
" />
<path d="M88.0300 62.0000
L88.0300 61.3000
" />
<path d="M88.0300 61.3000
L89.7900 61.3000
" />
<path d="M83.9431 50.9129
L83.0631 52.4371
" />
<path d="M83.3369 50.5629
L83.9431 50.9129
" />
<path d="M83.0631 52.4371
L82.4569 52.0871
" />
<path d="M82.4569 52.0871
L83.3369 50.5629
" />
<g >
</g>
<g >
</g>
<g >
</g>
<g >
</g>
<g >
</g>
<g >
</g>
<g >
</g>
<g >
</g>
<g >
</g>
<g >
</g>
<g >
</g>
<g >
</g>
<g >
</g>
<g >
</g>
<g >
</g>
<g >
</g>
<g >
</g>
<g >
</g>
<g >
</g>
<g >
</g>
<g >
</g>
<g >
</g>
<g >
</g>
<g >
</g>
<g >
</g>
<g >
</g>
<g >
</g>
<g >
</g>
<g >
</g>
<g >
</g>
<g >
</g>
<g >
</g>
<g >
</g>
<g >
</g>
</g> 
</svg>
