<?xml version="1.0" standalone="no"?>
 <!DOCTYPE svg PUBLIC "-//W3C//DTD SVG 1.1//EN" 
 "http://www.w3.org/Graphics/SVG/1.1/DTD/svg11.dtd"> 
<svg
  xmlns:svg="http://www.w3.org/2000/svg"
  xmlns="http://www.w3.org/2000/svg"
  xmlns:xlink="http://www.w3.org/1999/xlink"
  version="1.1"
  width="297.0022mm" height="210.0072mm" viewBox="0.0000 0.0000 297.0022 210.0072">
<title>SVG Image created as pedalboard-led-ring-B_Fab.svg date 2023/07/22 11:32:21 </title>
  <desc>Image generated by PCBNEW </desc>
<g style="fill:#000000; fill-opacity:1.0000;stroke:#000000; stroke-opacity:1.0000;
stroke-linecap:round; stroke-linejoin:round;"
 transform="translate(0 0) scale(1 1)">
</g>
<g style="fill:#000000; fill-opacity:0.0; 
stroke:#000000; stroke-width:0.0000; stroke-opacity:1; 
stroke-linecap:round; stroke-linejoin:round;">
</g>
<g style="fill:#000000; fill-opacity:0.0; 
stroke:#000000; stroke-width:0.1500; stroke-opacity:1; 
stroke-linecap:round; stroke-linejoin:round;">
<g transform="rotate(-90.000000 210.5022 60.0000)">
<text x="210.5022" y="60.5000"
transform="scale(-1 1) translate(-421.004400 0)"
textLength="5.1750" font-size="1.3333" lengthAdjust="spacingAndGlyphs"
text-anchor="middle" opacity="0">middle</text>
</g>
<g class="stroked-text"><desc>middle</desc>
<path d="M210.0474 57.7381
L210.7140 57.7381
" />
<path d="M210.6188 57.7381
L210.6664 57.7857
" />
<path d="M210.6664 57.7857
L210.7140 57.8810
" />
<path d="M210.7140 57.8810
L210.7140 58.0238
" />
<path d="M210.7140 58.0238
L210.6664 58.1190
" />
<path d="M210.6664 58.1190
L210.5712 58.1667
" />
<path d="M210.5712 58.1667
L210.0474 58.1667
" />
<path d="M210.5712 58.1667
L210.6664 58.2143
" />
<path d="M210.6664 58.2143
L210.7140 58.3095
" />
<path d="M210.7140 58.3095
L210.7140 58.4524
" />
<path d="M210.7140 58.4524
L210.6664 58.5476
" />
<path d="M210.6664 58.5476
L210.5712 58.5952
" />
<path d="M210.5712 58.5952
L210.0474 58.5952
" />
<path d="M210.0474 59.0714
L210.7140 59.0714
" />
<path d="M211.0474 59.0714
L210.9998 59.0238
" />
<path d="M210.9998 59.0238
L210.9521 59.0714
" />
<path d="M210.9521 59.0714
L210.9998 59.1190
" />
<path d="M210.9998 59.1190
L211.0474 59.0714
" />
<path d="M211.0474 59.0714
L210.9521 59.0714
" />
<path d="M210.0474 59.9762
L211.0474 59.9762
" />
<path d="M210.0950 59.9762
L210.0474 59.8810
" />
<path d="M210.0474 59.8810
L210.0474 59.6905
" />
<path d="M210.0474 59.6905
L210.0950 59.5952
" />
<path d="M210.0950 59.5952
L210.1426 59.5476
" />
<path d="M210.1426 59.5476
L210.2379 59.5000
" />
<path d="M210.2379 59.5000
L210.5236 59.5000
" />
<path d="M210.5236 59.5000
L210.6188 59.5476
" />
<path d="M210.6188 59.5476
L210.6664 59.5952
" />
<path d="M210.6664 59.5952
L210.7140 59.6905
" />
<path d="M210.7140 59.6905
L210.7140 59.8810
" />
<path d="M210.7140 59.8810
L210.6664 59.9762
" />
<path d="M210.0474 60.8810
L211.0474 60.8810
" />
<path d="M210.0950 60.8810
L210.0474 60.7857
" />
<path d="M210.0474 60.7857
L210.0474 60.5952
" />
<path d="M210.0474 60.5952
L210.0950 60.5000
" />
<path d="M210.0950 60.5000
L210.1426 60.4524
" />
<path d="M210.1426 60.4524
L210.2379 60.4048
" />
<path d="M210.2379 60.4048
L210.5236 60.4048
" />
<path d="M210.5236 60.4048
L210.6188 60.4524
" />
<path d="M210.6188 60.4524
L210.6664 60.5000
" />
<path d="M210.6664 60.5000
L210.7140 60.5952
" />
<path d="M210.7140 60.5952
L210.7140 60.7857
" />
<path d="M210.7140 60.7857
L210.6664 60.8810
" />
<path d="M210.0474 61.5000
L210.0950 61.4048
" />
<path d="M210.0950 61.4048
L210.1902 61.3571
" />
<path d="M210.1902 61.3571
L211.0474 61.3571
" />
<path d="M210.0950 62.2619
L210.0474 62.1667
" />
<path d="M210.0474 62.1667
L210.0474 61.9762
" />
<path d="M210.0474 61.9762
L210.0950 61.8810
" />
<path d="M210.0950 61.8810
L210.1902 61.8333
" />
<path d="M210.1902 61.8333
L210.5712 61.8333
" />
<path d="M210.5712 61.8333
L210.6664 61.8810
" />
<path d="M210.6664 61.8810
L210.7140 61.9762
" />
<path d="M210.7140 61.9762
L210.7140 62.1667
" />
<path d="M210.7140 62.1667
L210.6664 62.2619
" />
<path d="M210.6664 62.2619
L210.5712 62.3095
" />
<path d="M210.5712 62.3095
L210.4760 62.3095
" />
<path d="M210.4760 62.3095
L210.3807 61.8333
" />
</g><text x="207.0022" y="60.5000"
transform="scale(-1 1) translate(-414.004400 0)"
textLength="1.8893" font-size="1.3333" lengthAdjust="spacingAndGlyphs"
text-anchor="middle" opacity="0">J1</text>
<g class="stroked-text"><desc>J1</desc>
<path d="M206.6689 59.4548
L206.6689 60.1691
" />
<path d="M206.6689 60.1691
L206.6212 60.3120
" />
<path d="M206.6212 60.3120
L206.5260 60.4072
" />
<path d="M206.5260 60.4072
L206.3832 60.4548
" />
<path d="M206.3832 60.4548
L206.2879 60.4548
" />
<path d="M207.6689 60.4548
L207.0974 60.4548
" />
<path d="M207.3832 60.4548
L207.3832 59.4548
" />
<path d="M207.3832 59.4548
L207.2879 59.5977
" />
<path d="M207.2879 59.5977
L207.1927 59.6929
" />
<path d="M207.1927 59.6929
L207.0974 59.7405
" />
</g><text x="210.0022" y="66.5000"
transform="scale(-1 1) translate(-420.004400 0)"
textLength="3.6988" font-size="1.3333" lengthAdjust="spacingAndGlyphs"
text-anchor="middle" opacity="0">edge</text>
<g class="stroked-text"><desc>edge</desc>
<path d="M208.8593 66.4072
L208.7641 66.4548
" />
<path d="M208.7641 66.4548
L208.5736 66.4548
" />
<path d="M208.5736 66.4548
L208.4784 66.4072
" />
<path d="M208.4784 66.4072
L208.4308 66.3120
" />
<path d="M208.4308 66.3120
L208.4308 65.9310
" />
<path d="M208.4308 65.9310
L208.4784 65.8358
" />
<path d="M208.4784 65.8358
L208.5736 65.7882
" />
<path d="M208.5736 65.7882
L208.7641 65.7882
" />
<path d="M208.7641 65.7882
L208.8593 65.8358
" />
<path d="M208.8593 65.8358
L208.9070 65.9310
" />
<path d="M208.9070 65.9310
L208.9070 66.0262
" />
<path d="M208.9070 66.0262
L208.4308 66.1215
" />
<path d="M209.7641 66.4548
L209.7641 65.4548
" />
<path d="M209.7641 66.4072
L209.6689 66.4548
" />
<path d="M209.6689 66.4548
L209.4784 66.4548
" />
<path d="M209.4784 66.4548
L209.3832 66.4072
" />
<path d="M209.3832 66.4072
L209.3355 66.3596
" />
<path d="M209.3355 66.3596
L209.2879 66.2643
" />
<path d="M209.2879 66.2643
L209.2879 65.9786
" />
<path d="M209.2879 65.9786
L209.3355 65.8834
" />
<path d="M209.3355 65.8834
L209.3832 65.8358
" />
<path d="M209.3832 65.8358
L209.4784 65.7882
" />
<path d="M209.4784 65.7882
L209.6689 65.7882
" />
<path d="M209.6689 65.7882
L209.7641 65.8358
" />
<path d="M210.6689 65.7882
L210.6689 66.5977
" />
<path d="M210.6689 66.5977
L210.6212 66.6929
" />
<path d="M210.6212 66.6929
L210.5736 66.7405
" />
<path d="M210.5736 66.7405
L210.4784 66.7882
" />
<path d="M210.4784 66.7882
L210.3355 66.7882
" />
<path d="M210.3355 66.7882
L210.2403 66.7405
" />
<path d="M210.6689 66.4072
L210.5736 66.4548
" />
<path d="M210.5736 66.4548
L210.3832 66.4548
" />
<path d="M210.3832 66.4548
L210.2879 66.4072
" />
<path d="M210.2879 66.4072
L210.2403 66.3596
" />
<path d="M210.2403 66.3596
L210.1927 66.2643
" />
<path d="M210.1927 66.2643
L210.1927 65.9786
" />
<path d="M210.1927 65.9786
L210.2403 65.8834
" />
<path d="M210.2403 65.8834
L210.2879 65.8358
" />
<path d="M210.2879 65.8358
L210.3832 65.7882
" />
<path d="M210.3832 65.7882
L210.5736 65.7882
" />
<path d="M210.5736 65.7882
L210.6689 65.8358
" />
<path d="M211.5260 66.4072
L211.4308 66.4548
" />
<path d="M211.4308 66.4548
L211.2403 66.4548
" />
<path d="M211.2403 66.4548
L211.1451 66.4072
" />
<path d="M211.1451 66.4072
L211.0974 66.3120
" />
<path d="M211.0974 66.3120
L211.0974 65.9310
" />
<path d="M211.0974 65.9310
L211.1451 65.8358
" />
<path d="M211.1451 65.8358
L211.2403 65.7882
" />
<path d="M211.2403 65.7882
L211.4308 65.7882
" />
<path d="M211.4308 65.7882
L211.5260 65.8358
" />
<path d="M211.5260 65.8358
L211.5736 65.9310
" />
<path d="M211.5736 65.9310
L211.5736 66.0262
" />
<path d="M211.5736 66.0262
L211.0974 66.1215
" />
</g><g transform="rotate(-90.000000 210.0022 69.5000)">
<text x="210.0022" y="70.0000"
transform="scale(-1 1) translate(-420.004400 0)"
textLength="1.8893" font-size="1.3333" lengthAdjust="spacingAndGlyphs"
text-anchor="middle" opacity="0">J2</text>
</g>
<g class="stroked-text"><desc>J2</desc>
<path d="M210.5474 69.1667
L209.8331 69.1667
" />
<path d="M209.8331 69.1667
L209.6902 69.1190
" />
<path d="M209.6902 69.1190
L209.5950 69.0238
" />
<path d="M209.5950 69.0238
L209.5474 68.8810
" />
<path d="M209.5474 68.8810
L209.5474 68.7857
" />
<path d="M210.4521 69.5952
L210.4998 69.6429
" />
<path d="M210.4998 69.6429
L210.5474 69.7381
" />
<path d="M210.5474 69.7381
L210.5474 69.9762
" />
<path d="M210.5474 69.9762
L210.4998 70.0714
" />
<path d="M210.4998 70.0714
L210.4521 70.1190
" />
<path d="M210.4521 70.1190
L210.3569 70.1667
" />
<path d="M210.3569 70.1667
L210.2617 70.1667
" />
<path d="M210.2617 70.1667
L210.1188 70.1190
" />
<path d="M210.1188 70.1190
L209.5474 69.5476
" />
<path d="M209.5474 69.5476
L209.5474 70.1667
" />
</g></g>
<g style="fill:#000000; fill-opacity:0.0; 
stroke:#000000; stroke-width:0.1000; stroke-opacity:1; 
stroke-linecap:round; stroke-linejoin:round;">
<path d="M208.2522 63.0000
L207.7522 63.0000
" />
<path d="M207.7522 63.0000
L207.7522 62.0000
" />
<path d="M206.2522 63.0000
L205.7522 63.0000
" />
<path d="M205.7522 63.0000
L205.7522 62.0000
" />
<path d="M209.0022 62.0000
L205.0022 62.0000
" />
<path d="M208.2522 62.0000
L208.2522 63.0000
" />
<path d="M206.2522 62.0000
L206.2522 63.0000
" />
<path d="M205.0022 62.0000
L205.0022 59.0000
" />
<path d="M205.0022 59.0000
L206.0022 58.0000
" />
<path d="M209.0022 58.0000
L209.0022 62.0000
" />
<path d="M207.7522 58.0000
L207.7522 57.0000
" />
<path d="M206.0022 58.0000
L209.0022 58.0000
" />
<path d="M205.7522 58.0000
L205.7522 57.0000
" />
<path d="M208.2522 57.0000
L208.2522 58.0000
" />
<path d="M207.7522 57.0000
L208.2522 57.0000
" />
<path d="M206.2522 57.0000
L206.2522 58.0000
" />
<path d="M205.7522 57.0000
L206.2522 57.0000
" />
<path d="M213.0022 68.2500
L213.0022 68.7500
" />
<path d="M213.0022 68.7500
L212.0022 68.7500
" />
<path d="M213.0022 70.2500
L213.0022 70.7500
" />
<path d="M213.0022 70.7500
L212.0022 70.7500
" />
<path d="M212.0022 67.5000
L212.0022 71.5000
" />
<path d="M212.0022 68.2500
L213.0022 68.2500
" />
<path d="M212.0022 70.2500
L213.0022 70.2500
" />
<path d="M212.0022 71.5000
L209.0022 71.5000
" />
<path d="M209.0022 71.5000
L208.0022 70.5000
" />
<path d="M208.0022 67.5000
L212.0022 67.5000
" />
<path d="M208.0022 68.7500
L207.0022 68.7500
" />
<path d="M208.0022 70.5000
L208.0022 67.5000
" />
<path d="M208.0022 70.7500
L207.0022 70.7500
" />
<path d="M207.0022 68.2500
L208.0022 68.2500
" />
<path d="M207.0022 68.7500
L207.0022 68.2500
" />
<path d="M207.0022 70.2500
L208.0022 70.2500
" />
<path d="M207.0022 70.7500
L207.0022 70.2500
" />
<g >
</g>
<g >
</g>
<g >
</g>
<g >
</g>
<g >
</g>
<g >
</g>
<g >
</g>
<g >
</g>
<g >
</g>
<g >
</g>
<g >
</g>
<g >
</g>
<g >
</g>
<g >
</g>
<g >
</g>
<g >
</g>
<g >
</g>
<g >
</g>
<g >
</g>
<g >
</g>
<g >
</g>
<g >
</g>
<g >
</g>
<g >
</g>
<g >
</g>
<g >
</g>
<g >
</g>
<g >
</g>
<g >
</g>
<g >
</g>
<g >
</g>
<g >
</g>
<g >
</g>
<g >
</g>
<g >
</g>
<g >
</g>
</g> 
</svg>
