<?xml version="1.0" standalone="no"?>
 <!DOCTYPE svg PUBLIC "-//W3C//DTD SVG 1.1//EN" 
 "http://www.w3.org/Graphics/SVG/1.1/DTD/svg11.dtd"> 
<svg
  xmlns:svg="http://www.w3.org/2000/svg"
  xmlns="http://www.w3.org/2000/svg"
  xmlns:xlink="http://www.w3.org/1999/xlink"
  version="1.1"
  width="297.0022mm" height="210.0072mm" viewBox="0.0000 0.0000 297.0022 210.0072">
<title>SVG Image created as pedalboard-led-ring-B_Courtyard.svg date 2023/05/26 12:44:36 </title>
  <desc>Image generated by PCBNEW </desc>
<g style="fill:#000000; fill-opacity:1.0000;stroke:#000000; stroke-opacity:1.0000;
stroke-linecap:round; stroke-linejoin:round;"
 transform="translate(0 0) scale(1 1)">
</g>
<g style="fill:#000000; fill-opacity:0.0; 
stroke:#000000; stroke-width:0.0000; stroke-opacity:1; 
stroke-linecap:round; stroke-linejoin:round;">
</g>
<g style="fill:#000000; fill-opacity:0.0; 
stroke:#000000; stroke-width:0.0500; stroke-opacity:1; 
stroke-linecap:round; stroke-linejoin:round;">
<path d="M205.8022 50.1000
L198.4022 50.1000
" />
<path d="M205.8022 55.5000
L205.8022 50.1000
" />
<path d="M198.4022 50.1000
L198.4022 55.5000
" />
<path d="M198.4022 55.5000
L205.8022 55.5000
" />
<path d="M211.7522 65.1000
L211.7522 68.1000
" />
<path d="M211.7522 68.1000
L205.7522 68.1000
" />
<path d="M205.7522 65.1000
L211.7522 65.1000
" />
<path d="M205.7522 68.1000
L205.7522 65.1000
" />
<path d="M207.5822 58.4500
L207.5822 60.7500
" />
<path d="M207.5822 60.7500
L202.6222 60.7500
" />
<path d="M202.6222 58.4500
L207.5822 58.4500
" />
<path d="M202.6222 60.7500
L202.6222 58.4500
" />
<path d="M197.1022 63.4500
L205.7522 63.4500
" />
<path d="M205.7522 63.4500
L205.7522 72.5000
" />
<path d="M197.1022 72.5000
L197.1022 63.4500
" />
<path d="M205.7522 72.5000
L197.1022 72.5000
" />
<path d="M212.2522 70.4000
L212.2522 73.6000
" />
<path d="M213.7522 70.4000
L212.2522 70.4000
" />
<path d="M213.7522 70.4000
L213.7522 73.6000
" />
<path d="M213.7522 73.6000
L212.2522 73.6000
" />
<path d="M197.9522 54.2000
L197.9522 51.0000
" />
<path d="M196.4522 54.2000
L197.9522 54.2000
" />
<path d="M196.4522 54.2000
L196.4522 51.0000
" />
<path d="M196.4522 51.0000
L197.9522 51.0000
" />
<path d="M209.0522 73.8000
L212.1522 73.8000
" />
<path d="M209.0522 70.2000
L209.0522 73.8000
" />
<path d="M209.0522 70.2000
L212.1522 70.2000
" />
<path d="M212.1522 70.2000
L212.1522 73.8000
" />
<path d="M198.2222 55.6200
L200.1822 55.6200
" />
<path d="M200.1822 55.6200
L200.1822 59.3800
" />
<path d="M198.2222 59.3800
L198.2222 55.6200
" />
<path d="M200.1822 59.3800
L198.2222 59.3800
" />
<path d="M212.1222 70.2800
L212.1222 68.3200
" />
<path d="M212.1222 68.3200
L215.8822 68.3200
" />
<path d="M215.8822 70.2800
L212.1222 70.2800
" />
<path d="M215.8822 68.3200
L215.8822 70.2800
" />
<path d="M208.1522 73.9800
L205.8522 73.9800
" />
<path d="M205.8522 73.9800
L205.8522 69.0200
" />
<path d="M208.1522 69.0200
L208.1522 73.9800
" />
<path d="M205.8522 69.0200
L208.1522 69.0200
" />
<g >
</g>
<g >
</g>
<g >
</g>
<g >
</g>
<g >
</g>
<g >
</g>
<g >
</g>
<g >
</g>
<g >
</g>
<g >
</g>
<g >
</g>
<g >
</g>
<g >
</g>
<g >
</g>
<g >
</g>
<g >
</g>
<g >
</g>
<g >
</g>
<g >
</g>
</g> 
</svg>
