M48
; DRILL file {KiCad 7.0.5.1-1-g8f565ef7f0-dirty-deb11} date Thu Jun  1 06:03:30 2023
; FORMAT={-:-/ absolute / metric / decimal}
; #@! TF.CreationDate,2023-06-01T06:03:30+00:00
; #@! TF.GenerationSoftware,Kicad,Pcbnew,7.0.5.1-1-g8f565ef7f0-dirty-deb11
; #@! TF.FileFunction,Plated,1,2,PTH
FMAT,2
METRIC
; #@! TA.AperFunction,Plated,PTH,ViaDrill
T1C0.400
%
G90
G05
T1
X69.0Y-60.4
X70.274Y-54.846
X70.674Y-65.846
X74.154Y-50.674
X74.846Y-69.726
X79.6Y-49.0
X80.4Y-71.0
X85.154Y-50.274
X85.846Y-69.326
X88.1Y-63.1
X89.326Y-54.154
X89.5Y-61.1
X89.726Y-65.154
X91.0Y-59.6
X92.0Y-61.2
X92.0Y-65.0
X93.0Y-61.2
X93.0Y-62.6
X93.0Y-63.8
X93.0Y-65.0
T0
M30
