G04 #@! TF.GenerationSoftware,KiCad,Pcbnew,7.0.2.1-36-g582732918d-dirty-deb11*
G04 #@! TF.CreationDate,2023-05-22T19:38:29+00:00*
G04 #@! TF.ProjectId,pedalboard-led-ring,70656461-6c62-46f6-9172-642d6c65642d,rev?*
G04 #@! TF.SameCoordinates,Original*
G04 #@! TF.FileFunction,Copper,L2,Bot*
G04 #@! TF.FilePolarity,Positive*
%FSLAX46Y46*%
G04 Gerber Fmt 4.6, Leading zero omitted, Abs format (unit mm)*
G04 Created by KiCad (PCBNEW 7.0.2.1-36-g582732918d-dirty-deb11) date 2023-05-22 19:38:29*
%MOMM*%
%LPD*%
G01*
G04 APERTURE LIST*
G04 #@! TA.AperFunction,SMDPad,CuDef*
%ADD10R,1.000000X3.150000*%
G04 #@! TD*
G04 #@! TA.AperFunction,SMDPad,CuDef*
%ADD11R,1.000000X1.000000*%
G04 #@! TD*
G04 #@! TA.AperFunction,ViaPad*
%ADD12C,0.800000*%
G04 #@! TD*
G04 #@! TA.AperFunction,Conductor*
%ADD13C,0.800000*%
G04 #@! TD*
G04 #@! TA.AperFunction,Conductor*
%ADD14C,0.250000*%
G04 #@! TD*
G04 APERTURE END LIST*
G04 #@! TA.AperFunction,SMDPad,CuDef*
G36*
G01*
X91450000Y-54855000D02*
X91450000Y-54555000D01*
G75*
G02*
X91600000Y-54405000I150000J0D01*
G01*
X93250000Y-54405000D01*
G75*
G02*
X93400000Y-54555000I0J-150000D01*
G01*
X93400000Y-54855000D01*
G75*
G02*
X93250000Y-55005000I-150000J0D01*
G01*
X91600000Y-55005000D01*
G75*
G02*
X91450000Y-54855000I0J150000D01*
G01*
G37*
G04 #@! TD.AperFunction*
G04 #@! TA.AperFunction,SMDPad,CuDef*
G36*
G01*
X91450000Y-53585000D02*
X91450000Y-53285000D01*
G75*
G02*
X91600000Y-53135000I150000J0D01*
G01*
X93250000Y-53135000D01*
G75*
G02*
X93400000Y-53285000I0J-150000D01*
G01*
X93400000Y-53585000D01*
G75*
G02*
X93250000Y-53735000I-150000J0D01*
G01*
X91600000Y-53735000D01*
G75*
G02*
X91450000Y-53585000I0J150000D01*
G01*
G37*
G04 #@! TD.AperFunction*
G04 #@! TA.AperFunction,SMDPad,CuDef*
G36*
G01*
X91450000Y-52315000D02*
X91450000Y-52015000D01*
G75*
G02*
X91600000Y-51865000I150000J0D01*
G01*
X93250000Y-51865000D01*
G75*
G02*
X93400000Y-52015000I0J-150000D01*
G01*
X93400000Y-52315000D01*
G75*
G02*
X93250000Y-52465000I-150000J0D01*
G01*
X91600000Y-52465000D01*
G75*
G02*
X91450000Y-52315000I0J150000D01*
G01*
G37*
G04 #@! TD.AperFunction*
G04 #@! TA.AperFunction,SMDPad,CuDef*
G36*
G01*
X91450000Y-51045000D02*
X91450000Y-50745000D01*
G75*
G02*
X91600000Y-50595000I150000J0D01*
G01*
X93250000Y-50595000D01*
G75*
G02*
X93400000Y-50745000I0J-150000D01*
G01*
X93400000Y-51045000D01*
G75*
G02*
X93250000Y-51195000I-150000J0D01*
G01*
X91600000Y-51195000D01*
G75*
G02*
X91450000Y-51045000I0J150000D01*
G01*
G37*
G04 #@! TD.AperFunction*
G04 #@! TA.AperFunction,SMDPad,CuDef*
G36*
G01*
X96400000Y-51045000D02*
X96400000Y-50745000D01*
G75*
G02*
X96550000Y-50595000I150000J0D01*
G01*
X98200000Y-50595000D01*
G75*
G02*
X98350000Y-50745000I0J-150000D01*
G01*
X98350000Y-51045000D01*
G75*
G02*
X98200000Y-51195000I-150000J0D01*
G01*
X96550000Y-51195000D01*
G75*
G02*
X96400000Y-51045000I0J150000D01*
G01*
G37*
G04 #@! TD.AperFunction*
G04 #@! TA.AperFunction,SMDPad,CuDef*
G36*
G01*
X96400000Y-52315000D02*
X96400000Y-52015000D01*
G75*
G02*
X96550000Y-51865000I150000J0D01*
G01*
X98200000Y-51865000D01*
G75*
G02*
X98350000Y-52015000I0J-150000D01*
G01*
X98350000Y-52315000D01*
G75*
G02*
X98200000Y-52465000I-150000J0D01*
G01*
X96550000Y-52465000D01*
G75*
G02*
X96400000Y-52315000I0J150000D01*
G01*
G37*
G04 #@! TD.AperFunction*
G04 #@! TA.AperFunction,SMDPad,CuDef*
G36*
G01*
X96400000Y-53585000D02*
X96400000Y-53285000D01*
G75*
G02*
X96550000Y-53135000I150000J0D01*
G01*
X98200000Y-53135000D01*
G75*
G02*
X98350000Y-53285000I0J-150000D01*
G01*
X98350000Y-53585000D01*
G75*
G02*
X98200000Y-53735000I-150000J0D01*
G01*
X96550000Y-53735000D01*
G75*
G02*
X96400000Y-53585000I0J150000D01*
G01*
G37*
G04 #@! TD.AperFunction*
G04 #@! TA.AperFunction,SMDPad,CuDef*
G36*
G01*
X96400000Y-54855000D02*
X96400000Y-54555000D01*
G75*
G02*
X96550000Y-54405000I150000J0D01*
G01*
X98200000Y-54405000D01*
G75*
G02*
X98350000Y-54555000I0J-150000D01*
G01*
X98350000Y-54855000D01*
G75*
G02*
X98200000Y-55005000I-150000J0D01*
G01*
X96550000Y-55005000D01*
G75*
G02*
X96400000Y-54855000I0J150000D01*
G01*
G37*
G04 #@! TD.AperFunction*
D10*
X93060000Y-65475000D03*
X93060000Y-70525000D03*
X95600000Y-65475000D03*
X95600000Y-70525000D03*
X98140000Y-65475000D03*
X98140000Y-70525000D03*
G04 #@! TA.AperFunction,SMDPad,CuDef*
G36*
G01*
X89950000Y-59550000D02*
X89950000Y-58450000D01*
G75*
G02*
X90200000Y-58200000I250000J0D01*
G01*
X92475000Y-58200000D01*
G75*
G02*
X92725000Y-58450000I0J-250000D01*
G01*
X92725000Y-59550000D01*
G75*
G02*
X92475000Y-59800000I-250000J0D01*
G01*
X90200000Y-59800000D01*
G75*
G02*
X89950000Y-59550000I0J250000D01*
G01*
G37*
G04 #@! TD.AperFunction*
G04 #@! TA.AperFunction,SMDPad,CuDef*
G36*
G01*
X94075000Y-59550000D02*
X94075000Y-58450000D01*
G75*
G02*
X94325000Y-58200000I250000J0D01*
G01*
X96600000Y-58200000D01*
G75*
G02*
X96850000Y-58450000I0J-250000D01*
G01*
X96850000Y-59550000D01*
G75*
G02*
X96600000Y-59800000I-250000J0D01*
G01*
X94325000Y-59800000D01*
G75*
G02*
X94075000Y-59550000I0J250000D01*
G01*
G37*
G04 #@! TD.AperFunction*
D11*
X99400000Y-53450000D03*
X99400000Y-51750000D03*
G04 #@! TA.AperFunction,SMDPad,CuDef*
G36*
G01*
X98968750Y-54355000D02*
X99831250Y-54355000D01*
G75*
G02*
X100040000Y-54563750I0J-208750D01*
G01*
X100040000Y-54981250D01*
G75*
G02*
X99831250Y-55190000I-208750J0D01*
G01*
X98968750Y-55190000D01*
G75*
G02*
X98760000Y-54981250I0J208750D01*
G01*
X98760000Y-54563750D01*
G75*
G02*
X98968750Y-54355000I208750J0D01*
G01*
G37*
G04 #@! TD.AperFunction*
G04 #@! TA.AperFunction,SMDPad,CuDef*
G36*
G01*
X98968750Y-55610000D02*
X99831250Y-55610000D01*
G75*
G02*
X100040000Y-55818750I0J-208750D01*
G01*
X100040000Y-56236250D01*
G75*
G02*
X99831250Y-56445000I-208750J0D01*
G01*
X98968750Y-56445000D01*
G75*
G02*
X98760000Y-56236250I0J208750D01*
G01*
X98760000Y-55818750D01*
G75*
G02*
X98968750Y-55610000I208750J0D01*
G01*
G37*
G04 #@! TD.AperFunction*
D12*
X89500000Y-61400000D03*
X90500000Y-61400000D03*
X90500000Y-62400000D03*
X95600000Y-72700000D03*
X97375000Y-55600000D03*
X92400000Y-55500000D03*
X90800000Y-53400000D03*
X90800000Y-52200000D03*
D13*
X95600000Y-70525000D02*
X95600000Y-72700000D01*
X99400000Y-54772500D02*
X97442500Y-54772500D01*
X97442500Y-54772500D02*
X97375000Y-54705000D01*
X97375000Y-55600000D02*
X97375000Y-54705000D01*
D14*
X92425000Y-54705000D02*
X92425000Y-55475000D01*
X92425000Y-55475000D02*
X92400000Y-55500000D01*
X90835000Y-53435000D02*
X90800000Y-53400000D01*
X92425000Y-53435000D02*
X90835000Y-53435000D01*
X92425000Y-52165000D02*
X90835000Y-52165000D01*
X90835000Y-52165000D02*
X90800000Y-52200000D01*
X97390000Y-53450000D02*
X97375000Y-53435000D01*
X99400000Y-53450000D02*
X97390000Y-53450000D01*
X88763604Y-65400000D02*
X91851396Y-65400000D01*
X97000000Y-47913604D02*
X96286396Y-47200000D01*
X92100000Y-69565000D02*
X93060000Y-70525000D01*
X87550000Y-64186396D02*
X88763604Y-65400000D01*
X87550000Y-49438604D02*
X87550000Y-64186396D01*
X89788604Y-47200000D02*
X87550000Y-49438604D01*
X97375000Y-50895000D02*
X97000000Y-50520000D01*
X91851396Y-65400000D02*
X92100000Y-65648604D01*
X92100000Y-65648604D02*
X92100000Y-69565000D01*
X97000000Y-50520000D02*
X97000000Y-47913604D01*
X96286396Y-47200000D02*
X89788604Y-47200000D01*
X96998249Y-52165000D02*
X97375000Y-52165000D01*
X93060000Y-65475000D02*
X92555000Y-64970000D01*
X96075000Y-51241751D02*
X96998249Y-52165000D01*
X89975000Y-47650000D02*
X96100000Y-47650000D01*
X96550000Y-48100000D02*
X96550000Y-50073249D01*
X96075000Y-50548249D02*
X96075000Y-51241751D01*
X88970000Y-64970000D02*
X88000000Y-64000000D01*
X88000000Y-64000000D02*
X88000000Y-49625000D01*
X88000000Y-49625000D02*
X89975000Y-47650000D01*
X92555000Y-64970000D02*
X88970000Y-64970000D01*
X96550000Y-50073249D02*
X96075000Y-50548249D01*
X96100000Y-47650000D02*
X96550000Y-48100000D01*
G04 #@! TA.AperFunction,Conductor*
G36*
X89415677Y-58719685D02*
G01*
X89436319Y-58736319D01*
X89450000Y-58750000D01*
X91463500Y-58750000D01*
X91530539Y-58769685D01*
X91576294Y-58822489D01*
X91587500Y-58874000D01*
X91587499Y-60299998D01*
X91587500Y-60299999D01*
X91676000Y-60299999D01*
X91743039Y-60319684D01*
X91788794Y-60372488D01*
X91800000Y-60423999D01*
X91800000Y-61500000D01*
X95678988Y-61500000D01*
X95746027Y-61519685D01*
X95791782Y-61572489D01*
X95802951Y-61620977D01*
X95846036Y-63387506D01*
X95846036Y-63387507D01*
X95849999Y-63550000D01*
X95850000Y-65600000D01*
X94184500Y-65600000D01*
X94117461Y-65580315D01*
X94071706Y-65527511D01*
X94060500Y-65476000D01*
X94060500Y-65225000D01*
X94600000Y-65225000D01*
X95350000Y-65225000D01*
X95350000Y-63400000D01*
X95055482Y-63400000D01*
X95048867Y-63400354D01*
X94992628Y-63406400D01*
X94857910Y-63456647D01*
X94742811Y-63542811D01*
X94656647Y-63657910D01*
X94606400Y-63792628D01*
X94600354Y-63848867D01*
X94600000Y-63855481D01*
X94600000Y-65225000D01*
X94060500Y-65225000D01*
X94060499Y-63855439D01*
X94060499Y-63852128D01*
X94054091Y-63792517D01*
X94003796Y-63657669D01*
X93917546Y-63542454D01*
X93802331Y-63456204D01*
X93667483Y-63405909D01*
X93615816Y-63400354D01*
X93611166Y-63399854D01*
X93611165Y-63399853D01*
X93607873Y-63399500D01*
X93604550Y-63399500D01*
X92515439Y-63399500D01*
X92515420Y-63399500D01*
X92512128Y-63399501D01*
X92508848Y-63399853D01*
X92508840Y-63399854D01*
X92452515Y-63405909D01*
X92317669Y-63456204D01*
X92202454Y-63542454D01*
X92116204Y-63657668D01*
X92065910Y-63792515D01*
X92065909Y-63792517D01*
X92059500Y-63852127D01*
X92059500Y-63855449D01*
X92059500Y-64220500D01*
X92039815Y-64287539D01*
X91987011Y-64333294D01*
X91935500Y-64344500D01*
X89280453Y-64344500D01*
X89213414Y-64324815D01*
X89192772Y-64308181D01*
X88661819Y-63777227D01*
X88628334Y-63715904D01*
X88625500Y-63689546D01*
X88625500Y-59250000D01*
X89450001Y-59250000D01*
X89450001Y-59596829D01*
X89450321Y-59603111D01*
X89460493Y-59702695D01*
X89515642Y-59869122D01*
X89607683Y-60018345D01*
X89731654Y-60142316D01*
X89880877Y-60234357D01*
X90047303Y-60289506D01*
X90146890Y-60299680D01*
X90153168Y-60299999D01*
X91087499Y-60299999D01*
X91087500Y-60299998D01*
X91087500Y-59250000D01*
X89450001Y-59250000D01*
X88625500Y-59250000D01*
X88625500Y-58824000D01*
X88645185Y-58756961D01*
X88697989Y-58711206D01*
X88749500Y-58700000D01*
X89348638Y-58700000D01*
X89415677Y-58719685D01*
G37*
G04 #@! TD.AperFunction*
G04 #@! TA.AperFunction,Conductor*
G36*
X101005394Y-46000971D02*
G01*
X101045519Y-46004482D01*
X101171780Y-46016919D01*
X101191682Y-46020540D01*
X101256467Y-46037899D01*
X101260203Y-46038966D01*
X101351570Y-46066682D01*
X101367959Y-46072952D01*
X101433867Y-46103686D01*
X101439867Y-46106685D01*
X101482639Y-46129548D01*
X101519046Y-46149008D01*
X101531715Y-46156791D01*
X101592889Y-46199625D01*
X101600430Y-46205346D01*
X101668455Y-46261172D01*
X101677472Y-46269345D01*
X101730653Y-46322526D01*
X101738826Y-46331543D01*
X101794652Y-46399568D01*
X101800373Y-46407109D01*
X101843207Y-46468283D01*
X101850990Y-46480952D01*
X101893304Y-46560114D01*
X101896327Y-46566162D01*
X101900877Y-46575918D01*
X101927041Y-46632027D01*
X101933319Y-46648436D01*
X101961008Y-46739713D01*
X101962123Y-46743616D01*
X101979454Y-46808298D01*
X101983082Y-46828237D01*
X101995523Y-46954554D01*
X101997207Y-46973801D01*
X101999030Y-46994638D01*
X101999500Y-47005406D01*
X101999499Y-72994583D01*
X101999027Y-73005390D01*
X101995523Y-73045442D01*
X101983082Y-73171764D01*
X101979455Y-73191696D01*
X101962123Y-73256382D01*
X101961008Y-73260285D01*
X101933319Y-73351562D01*
X101927041Y-73367971D01*
X101896328Y-73433835D01*
X101893304Y-73439884D01*
X101850990Y-73519046D01*
X101843207Y-73531715D01*
X101800373Y-73592889D01*
X101794652Y-73600430D01*
X101738826Y-73668455D01*
X101730653Y-73677472D01*
X101677472Y-73730653D01*
X101668455Y-73738826D01*
X101600430Y-73794652D01*
X101592889Y-73800373D01*
X101531715Y-73843207D01*
X101519046Y-73850990D01*
X101439884Y-73893304D01*
X101433835Y-73896328D01*
X101367971Y-73927041D01*
X101351562Y-73933319D01*
X101260285Y-73961008D01*
X101256382Y-73962123D01*
X101191700Y-73979454D01*
X101171761Y-73983082D01*
X101045445Y-73995523D01*
X101026131Y-73997213D01*
X101005360Y-73999031D01*
X100994594Y-73999500D01*
X67005416Y-73999500D01*
X66994606Y-73999028D01*
X66954554Y-73995523D01*
X66828234Y-73983082D01*
X66808302Y-73979455D01*
X66743616Y-73962123D01*
X66739713Y-73961008D01*
X66648436Y-73933319D01*
X66632027Y-73927041D01*
X66566163Y-73896328D01*
X66560114Y-73893304D01*
X66480952Y-73850990D01*
X66468283Y-73843207D01*
X66407109Y-73800373D01*
X66399568Y-73794652D01*
X66331543Y-73738826D01*
X66322526Y-73730653D01*
X66269345Y-73677472D01*
X66261172Y-73668455D01*
X66205346Y-73600430D01*
X66199625Y-73592889D01*
X66156791Y-73531715D01*
X66149008Y-73519046D01*
X66129548Y-73482639D01*
X66106685Y-73439867D01*
X66103686Y-73433867D01*
X66072952Y-73367959D01*
X66066682Y-73351570D01*
X66038966Y-73260203D01*
X66037899Y-73256467D01*
X66020541Y-73191685D01*
X66016918Y-73171773D01*
X66004476Y-73045442D01*
X66003822Y-73037977D01*
X66000968Y-73005360D01*
X66000500Y-72994597D01*
X66000500Y-60000000D01*
X73894548Y-60000000D01*
X73894649Y-60002506D01*
X73914245Y-60488793D01*
X73914246Y-60488807D01*
X73914346Y-60491285D01*
X73914643Y-60493736D01*
X73914645Y-60493753D01*
X73973310Y-60976900D01*
X73973312Y-60976912D01*
X73973612Y-60979383D01*
X73974108Y-60981817D01*
X73974112Y-60981836D01*
X74051825Y-61362497D01*
X74071961Y-61461130D01*
X74072649Y-61463508D01*
X74072654Y-61463525D01*
X74113791Y-61605545D01*
X74208756Y-61933401D01*
X74383110Y-62393133D01*
X74384169Y-62395366D01*
X74384176Y-62395381D01*
X74592819Y-62835087D01*
X74592824Y-62835098D01*
X74593891Y-62837345D01*
X74839733Y-63263155D01*
X74841145Y-63265202D01*
X74841151Y-63265210D01*
X75117623Y-63665749D01*
X75119041Y-63667803D01*
X75430004Y-64048664D01*
X75770605Y-64403267D01*
X75772480Y-64404928D01*
X75772482Y-64404930D01*
X75985763Y-64593880D01*
X76138635Y-64729313D01*
X76140623Y-64730807D01*
X76140633Y-64730815D01*
X76529706Y-65023184D01*
X76529712Y-65023188D01*
X76531708Y-65024688D01*
X76947274Y-65287477D01*
X77382638Y-65515973D01*
X77834977Y-65708697D01*
X78301357Y-65864397D01*
X78778753Y-65982065D01*
X79264069Y-66060936D01*
X79754158Y-66100500D01*
X79756643Y-66100500D01*
X80243357Y-66100500D01*
X80245842Y-66100500D01*
X80735931Y-66060936D01*
X81221247Y-65982065D01*
X81698643Y-65864397D01*
X82165023Y-65708697D01*
X82617362Y-65515973D01*
X83052726Y-65287477D01*
X83468292Y-65024688D01*
X83861365Y-64729313D01*
X84229395Y-64403267D01*
X84569996Y-64048664D01*
X84880959Y-63667803D01*
X85160267Y-63263155D01*
X85406109Y-62837345D01*
X85616890Y-62393133D01*
X85791244Y-61933401D01*
X85928039Y-61461130D01*
X86026388Y-60979383D01*
X86085654Y-60491285D01*
X86105452Y-60000000D01*
X86085654Y-59508715D01*
X86026388Y-59020617D01*
X85928039Y-58538870D01*
X85791244Y-58066599D01*
X85616890Y-57606867D01*
X85407421Y-57165421D01*
X85407180Y-57164912D01*
X85407179Y-57164911D01*
X85406109Y-57162655D01*
X85160267Y-56736845D01*
X84880959Y-56332197D01*
X84569996Y-55951336D01*
X84229395Y-55596733D01*
X84210105Y-55579644D01*
X83863240Y-55272348D01*
X83863238Y-55272346D01*
X83861365Y-55270687D01*
X83859379Y-55269194D01*
X83859366Y-55269184D01*
X83470293Y-54976815D01*
X83470282Y-54976807D01*
X83468292Y-54975312D01*
X83466178Y-54973975D01*
X83466172Y-54973971D01*
X83054832Y-54713855D01*
X83052726Y-54712523D01*
X83050535Y-54711373D01*
X83050528Y-54711369D01*
X82619575Y-54485188D01*
X82619565Y-54485183D01*
X82617362Y-54484027D01*
X82615058Y-54483045D01*
X82615051Y-54483042D01*
X82167319Y-54292281D01*
X82167313Y-54292279D01*
X82165023Y-54291303D01*
X81844063Y-54184151D01*
X81700993Y-54136387D01*
X81700980Y-54136383D01*
X81698643Y-54135603D01*
X81648038Y-54123130D01*
X81223667Y-54018531D01*
X81223655Y-54018528D01*
X81221247Y-54017935D01*
X81218786Y-54017535D01*
X81218781Y-54017534D01*
X80738391Y-53939463D01*
X80738371Y-53939460D01*
X80735931Y-53939064D01*
X80733470Y-53938865D01*
X80733451Y-53938863D01*
X80248317Y-53899699D01*
X80248297Y-53899698D01*
X80245842Y-53899500D01*
X79754158Y-53899500D01*
X79751703Y-53899698D01*
X79751682Y-53899699D01*
X79266548Y-53938863D01*
X79266526Y-53938865D01*
X79264069Y-53939064D01*
X79261631Y-53939460D01*
X79261608Y-53939463D01*
X78781218Y-54017534D01*
X78781208Y-54017535D01*
X78778753Y-54017935D01*
X78776349Y-54018527D01*
X78776332Y-54018531D01*
X78303766Y-54135009D01*
X78303760Y-54135010D01*
X78301357Y-54135603D01*
X78299025Y-54136381D01*
X78299006Y-54136387D01*
X77837334Y-54290516D01*
X77834977Y-54291303D01*
X77832694Y-54292275D01*
X77832680Y-54292281D01*
X77384948Y-54483042D01*
X77384931Y-54483049D01*
X77382638Y-54484027D01*
X77380443Y-54485178D01*
X77380424Y-54485188D01*
X76949471Y-54711369D01*
X76949453Y-54711379D01*
X76947274Y-54712523D01*
X76945174Y-54713850D01*
X76945167Y-54713855D01*
X76533827Y-54973971D01*
X76533809Y-54973983D01*
X76531708Y-54975312D01*
X76529728Y-54976799D01*
X76529706Y-54976815D01*
X76140633Y-55269184D01*
X76140608Y-55269204D01*
X76138635Y-55270687D01*
X76136773Y-55272336D01*
X76136759Y-55272348D01*
X75772482Y-55595069D01*
X75772466Y-55595083D01*
X75770605Y-55596733D01*
X75768874Y-55598534D01*
X75768871Y-55598538D01*
X75431730Y-55949538D01*
X75431718Y-55949551D01*
X75430004Y-55951336D01*
X75428433Y-55953259D01*
X75428426Y-55953268D01*
X75120620Y-56330262D01*
X75120609Y-56330275D01*
X75119041Y-56332197D01*
X75117634Y-56334235D01*
X75117623Y-56334250D01*
X74841151Y-56734789D01*
X74841138Y-56734808D01*
X74839733Y-56736845D01*
X74838490Y-56738997D01*
X74838483Y-56739009D01*
X74595142Y-57160487D01*
X74595135Y-57160500D01*
X74593891Y-57162655D01*
X74592829Y-57164891D01*
X74592819Y-57164912D01*
X74384176Y-57604618D01*
X74384165Y-57604641D01*
X74383110Y-57606867D01*
X74382232Y-57609180D01*
X74382226Y-57609196D01*
X74209638Y-58064272D01*
X74209634Y-58064283D01*
X74208756Y-58066599D01*
X74208064Y-58068987D01*
X74208063Y-58068991D01*
X74072654Y-58536474D01*
X74072648Y-58536497D01*
X74071961Y-58538870D01*
X74071464Y-58541301D01*
X74071462Y-58541312D01*
X73974112Y-59018163D01*
X73974108Y-59018186D01*
X73973612Y-59020617D01*
X73973312Y-59023083D01*
X73973310Y-59023099D01*
X73914645Y-59506246D01*
X73914643Y-59506265D01*
X73914346Y-59508715D01*
X73914246Y-59511190D01*
X73914245Y-59511206D01*
X73894649Y-59997493D01*
X73894548Y-60000000D01*
X66000500Y-60000000D01*
X66000500Y-49418798D01*
X86919840Y-49418798D01*
X86923950Y-49462277D01*
X86924500Y-49473947D01*
X86924500Y-64103652D01*
X86922235Y-64124162D01*
X86924439Y-64194268D01*
X86924500Y-64198163D01*
X86924500Y-64225746D01*
X86924988Y-64229615D01*
X86924989Y-64229621D01*
X86925004Y-64229739D01*
X86925918Y-64241363D01*
X86927290Y-64285022D01*
X86932879Y-64304256D01*
X86936825Y-64323312D01*
X86939335Y-64343188D01*
X86955414Y-64383800D01*
X86959197Y-64394847D01*
X86971382Y-64436787D01*
X86981580Y-64454031D01*
X86990136Y-64471496D01*
X86997514Y-64490128D01*
X86997515Y-64490129D01*
X87023180Y-64525455D01*
X87029593Y-64535218D01*
X87051826Y-64572812D01*
X87051829Y-64572815D01*
X87051830Y-64572816D01*
X87065995Y-64586981D01*
X87078627Y-64601771D01*
X87090406Y-64617983D01*
X87124058Y-64645822D01*
X87132699Y-64653685D01*
X88262800Y-65783787D01*
X88275700Y-65799888D01*
X88326827Y-65847900D01*
X88329624Y-65850611D01*
X88349133Y-65870120D01*
X88352313Y-65872587D01*
X88361175Y-65880155D01*
X88393022Y-65910062D01*
X88410574Y-65919711D01*
X88426842Y-65930397D01*
X88442668Y-65942673D01*
X88482750Y-65960017D01*
X88493237Y-65965155D01*
X88531511Y-65986197D01*
X88540014Y-65988379D01*
X88550912Y-65991178D01*
X88569317Y-65997478D01*
X88587708Y-66005437D01*
X88630854Y-66012270D01*
X88642272Y-66014635D01*
X88684585Y-66025500D01*
X88704620Y-66025500D01*
X88724019Y-66027027D01*
X88743800Y-66030160D01*
X88787278Y-66026050D01*
X88798948Y-66025500D01*
X91350500Y-66025500D01*
X91417539Y-66045185D01*
X91463294Y-66097989D01*
X91474500Y-66149500D01*
X91474500Y-69482256D01*
X91472235Y-69502766D01*
X91474439Y-69572872D01*
X91474500Y-69576767D01*
X91474500Y-69604350D01*
X91474988Y-69608219D01*
X91474989Y-69608225D01*
X91475004Y-69608343D01*
X91475918Y-69619967D01*
X91477290Y-69663626D01*
X91482879Y-69682860D01*
X91486825Y-69701916D01*
X91489335Y-69721792D01*
X91505414Y-69762404D01*
X91509197Y-69773451D01*
X91521382Y-69815391D01*
X91531580Y-69832635D01*
X91540136Y-69850100D01*
X91547514Y-69868732D01*
X91547515Y-69868733D01*
X91573180Y-69904059D01*
X91579593Y-69913822D01*
X91601826Y-69951416D01*
X91601829Y-69951419D01*
X91601830Y-69951420D01*
X91615995Y-69965585D01*
X91628627Y-69980375D01*
X91640406Y-69996587D01*
X91674058Y-70024426D01*
X91682699Y-70032289D01*
X92023181Y-70372771D01*
X92056666Y-70434094D01*
X92059500Y-70460452D01*
X92059500Y-72144560D01*
X92059500Y-72144578D01*
X92059501Y-72147872D01*
X92059853Y-72151152D01*
X92059854Y-72151159D01*
X92065909Y-72207484D01*
X92091056Y-72274906D01*
X92116204Y-72342331D01*
X92202454Y-72457546D01*
X92317669Y-72543796D01*
X92452517Y-72594091D01*
X92512127Y-72600500D01*
X93607872Y-72600499D01*
X93667483Y-72594091D01*
X93802331Y-72543796D01*
X93917546Y-72457546D01*
X94003796Y-72342331D01*
X94054091Y-72207483D01*
X94060500Y-72147873D01*
X94060500Y-72144578D01*
X94599500Y-72144578D01*
X94599501Y-72147872D01*
X94599853Y-72151152D01*
X94599854Y-72151159D01*
X94605909Y-72207484D01*
X94631056Y-72274906D01*
X94656204Y-72342331D01*
X94674766Y-72367127D01*
X94699183Y-72432591D01*
X94699499Y-72441437D01*
X94699499Y-72646306D01*
X94698820Y-72659264D01*
X94694539Y-72699996D01*
X94714326Y-72888257D01*
X94772820Y-73068284D01*
X94867466Y-73232216D01*
X94994129Y-73372889D01*
X95147269Y-73484151D01*
X95320197Y-73561144D01*
X95505352Y-73600500D01*
X95505354Y-73600500D01*
X95694648Y-73600500D01*
X95818083Y-73574262D01*
X95879803Y-73561144D01*
X96052730Y-73484151D01*
X96205871Y-73372888D01*
X96332533Y-73232216D01*
X96427179Y-73068284D01*
X96485674Y-72888256D01*
X96505460Y-72700000D01*
X96501179Y-72659264D01*
X96500500Y-72646306D01*
X96500500Y-72441438D01*
X96520185Y-72374399D01*
X96525234Y-72367126D01*
X96543796Y-72342331D01*
X96594091Y-72207483D01*
X96600500Y-72147873D01*
X96600499Y-70775000D01*
X97140000Y-70775000D01*
X97140000Y-72144518D01*
X97140354Y-72151132D01*
X97146400Y-72207371D01*
X97196647Y-72342089D01*
X97282811Y-72457188D01*
X97397910Y-72543352D01*
X97532628Y-72593599D01*
X97588867Y-72599645D01*
X97595482Y-72600000D01*
X97890000Y-72600000D01*
X97890000Y-70775000D01*
X98390000Y-70775000D01*
X98390000Y-72600000D01*
X98684518Y-72600000D01*
X98691132Y-72599645D01*
X98747371Y-72593599D01*
X98882089Y-72543352D01*
X98997188Y-72457188D01*
X99083352Y-72342089D01*
X99133599Y-72207371D01*
X99139645Y-72151132D01*
X99140000Y-72144518D01*
X99140000Y-70775000D01*
X98390000Y-70775000D01*
X97890000Y-70775000D01*
X97140000Y-70775000D01*
X96600499Y-70775000D01*
X96600499Y-70275000D01*
X97140000Y-70275000D01*
X97890000Y-70275000D01*
X97890000Y-68450000D01*
X98390000Y-68450000D01*
X98390000Y-70275000D01*
X99140000Y-70275000D01*
X99140000Y-68905481D01*
X99139645Y-68898867D01*
X99133599Y-68842628D01*
X99083352Y-68707910D01*
X98997188Y-68592811D01*
X98882089Y-68506647D01*
X98747371Y-68456400D01*
X98691132Y-68450354D01*
X98684518Y-68450000D01*
X98390000Y-68450000D01*
X97890000Y-68450000D01*
X97595482Y-68450000D01*
X97588867Y-68450354D01*
X97532628Y-68456400D01*
X97397910Y-68506647D01*
X97282811Y-68592811D01*
X97196647Y-68707910D01*
X97146400Y-68842628D01*
X97140354Y-68898867D01*
X97140000Y-68905481D01*
X97140000Y-70275000D01*
X96600499Y-70275000D01*
X96600499Y-68902128D01*
X96594091Y-68842517D01*
X96543796Y-68707669D01*
X96457546Y-68592454D01*
X96342331Y-68506204D01*
X96207483Y-68455909D01*
X96155816Y-68450354D01*
X96151166Y-68449854D01*
X96151165Y-68449853D01*
X96147873Y-68449500D01*
X96144550Y-68449500D01*
X95055439Y-68449500D01*
X95055420Y-68449500D01*
X95052128Y-68449501D01*
X95048848Y-68449853D01*
X95048840Y-68449854D01*
X94992515Y-68455909D01*
X94857669Y-68506204D01*
X94742454Y-68592454D01*
X94656204Y-68707668D01*
X94605910Y-68842515D01*
X94605909Y-68842517D01*
X94599500Y-68902127D01*
X94599500Y-68905448D01*
X94599500Y-68905449D01*
X94599500Y-72144560D01*
X94599500Y-72144578D01*
X94060500Y-72144578D01*
X94060499Y-68902128D01*
X94054091Y-68842517D01*
X94003796Y-68707669D01*
X93917546Y-68592454D01*
X93802331Y-68506204D01*
X93667483Y-68455909D01*
X93615816Y-68450354D01*
X93611166Y-68449854D01*
X93611165Y-68449853D01*
X93607873Y-68449500D01*
X93604551Y-68449500D01*
X92849500Y-68449500D01*
X92782461Y-68429815D01*
X92736706Y-68377011D01*
X92725500Y-68325500D01*
X92725500Y-67674499D01*
X92745185Y-67607460D01*
X92797989Y-67561705D01*
X92849500Y-67550499D01*
X93604561Y-67550499D01*
X93607872Y-67550499D01*
X93667483Y-67544091D01*
X93802331Y-67493796D01*
X93917546Y-67407546D01*
X94003796Y-67292331D01*
X94054091Y-67157483D01*
X94060500Y-67097873D01*
X94060499Y-66229499D01*
X94080183Y-66162461D01*
X94132987Y-66116706D01*
X94184499Y-66105500D01*
X94184500Y-66105500D01*
X94475501Y-66105500D01*
X94542540Y-66125185D01*
X94588295Y-66177989D01*
X94599501Y-66229500D01*
X94599501Y-67097872D01*
X94605909Y-67157483D01*
X94656204Y-67292331D01*
X94742454Y-67407546D01*
X94857669Y-67493796D01*
X94992517Y-67544091D01*
X95052127Y-67550500D01*
X96147872Y-67550499D01*
X96207483Y-67544091D01*
X96342331Y-67493796D01*
X96457546Y-67407546D01*
X96543796Y-67292331D01*
X96594091Y-67157483D01*
X96600500Y-67097873D01*
X96600499Y-65725000D01*
X97140000Y-65725000D01*
X97140000Y-67094518D01*
X97140354Y-67101132D01*
X97146400Y-67157371D01*
X97196647Y-67292089D01*
X97282811Y-67407188D01*
X97397910Y-67493352D01*
X97532628Y-67543599D01*
X97588867Y-67549645D01*
X97595482Y-67550000D01*
X97890000Y-67550000D01*
X97890000Y-65725000D01*
X98390000Y-65725000D01*
X98390000Y-67550000D01*
X98684518Y-67550000D01*
X98691132Y-67549645D01*
X98747371Y-67543599D01*
X98882089Y-67493352D01*
X98997188Y-67407188D01*
X99083352Y-67292089D01*
X99133599Y-67157371D01*
X99139645Y-67101132D01*
X99140000Y-67094518D01*
X99140000Y-65725000D01*
X98390000Y-65725000D01*
X97890000Y-65725000D01*
X97140000Y-65725000D01*
X96600499Y-65725000D01*
X96600499Y-65225000D01*
X97140000Y-65225000D01*
X97890000Y-65225000D01*
X97890000Y-63400000D01*
X98390000Y-63400000D01*
X98390000Y-65225000D01*
X99140000Y-65225000D01*
X99140000Y-63855481D01*
X99139645Y-63848867D01*
X99133599Y-63792628D01*
X99083352Y-63657910D01*
X98997188Y-63542811D01*
X98882089Y-63456647D01*
X98747371Y-63406400D01*
X98691132Y-63400354D01*
X98684518Y-63400000D01*
X98390000Y-63400000D01*
X97890000Y-63400000D01*
X97595482Y-63400000D01*
X97588867Y-63400354D01*
X97532628Y-63406400D01*
X97397910Y-63456647D01*
X97282811Y-63542811D01*
X97196647Y-63657910D01*
X97146400Y-63792628D01*
X97140354Y-63848867D01*
X97140000Y-63855481D01*
X97140000Y-65225000D01*
X96600499Y-65225000D01*
X96600499Y-63852128D01*
X96594091Y-63792517D01*
X96543796Y-63657669D01*
X96486187Y-63580714D01*
X96457545Y-63542452D01*
X96401750Y-63500684D01*
X96359880Y-63444750D01*
X96352099Y-63404441D01*
X96351999Y-63400354D01*
X96308301Y-61608652D01*
X96295551Y-61507509D01*
X96284382Y-61459021D01*
X96251601Y-61362496D01*
X96173813Y-61241457D01*
X96128058Y-61188653D01*
X96019324Y-61094433D01*
X96019323Y-61094432D01*
X95888448Y-61034662D01*
X95823101Y-61015474D01*
X95823099Y-61015473D01*
X95821408Y-61014977D01*
X95821404Y-61014976D01*
X95818278Y-61014526D01*
X95818265Y-61014524D01*
X95678988Y-60994500D01*
X92429500Y-60994500D01*
X92362461Y-60974815D01*
X92316706Y-60922011D01*
X92305500Y-60870500D01*
X92305500Y-60424499D01*
X92325185Y-60357460D01*
X92377989Y-60311705D01*
X92429500Y-60300499D01*
X92521859Y-60300499D01*
X92525008Y-60300499D01*
X92627797Y-60289999D01*
X92794334Y-60234814D01*
X92943656Y-60142712D01*
X93067712Y-60018656D01*
X93159814Y-59869334D01*
X93214999Y-59702797D01*
X93225500Y-59600009D01*
X93225500Y-59250000D01*
X93575001Y-59250000D01*
X93575001Y-59596829D01*
X93575321Y-59603111D01*
X93585493Y-59702695D01*
X93640642Y-59869122D01*
X93732683Y-60018345D01*
X93856654Y-60142316D01*
X94005877Y-60234357D01*
X94172303Y-60289506D01*
X94271890Y-60299680D01*
X94278168Y-60299999D01*
X95212499Y-60299999D01*
X95212500Y-60299998D01*
X95212500Y-59250000D01*
X95712499Y-59250000D01*
X95712499Y-60299998D01*
X95712500Y-60299999D01*
X96646829Y-60299999D01*
X96653111Y-60299678D01*
X96752695Y-60289506D01*
X96919122Y-60234357D01*
X97068345Y-60142316D01*
X97192316Y-60018345D01*
X97284357Y-59869122D01*
X97339506Y-59702696D01*
X97349680Y-59603109D01*
X97350000Y-59596831D01*
X97350000Y-59250000D01*
X95712499Y-59250000D01*
X95212500Y-59250000D01*
X93575001Y-59250000D01*
X93225500Y-59250000D01*
X93225499Y-58750000D01*
X93575000Y-58750000D01*
X95212500Y-58750000D01*
X95212500Y-57700000D01*
X95712499Y-57700000D01*
X95712499Y-58749999D01*
X95712501Y-58750000D01*
X97349999Y-58750000D01*
X97349999Y-58403170D01*
X97349678Y-58396888D01*
X97339506Y-58297304D01*
X97284357Y-58130877D01*
X97192316Y-57981654D01*
X97068345Y-57857683D01*
X96919122Y-57765642D01*
X96752696Y-57710493D01*
X96653109Y-57700319D01*
X96646832Y-57700000D01*
X95712499Y-57700000D01*
X95212500Y-57700000D01*
X94278170Y-57700000D01*
X94271888Y-57700321D01*
X94172304Y-57710493D01*
X94005877Y-57765642D01*
X93856654Y-57857683D01*
X93732683Y-57981654D01*
X93640642Y-58130877D01*
X93585493Y-58297303D01*
X93575319Y-58396890D01*
X93575000Y-58403168D01*
X93575000Y-58750000D01*
X93225499Y-58750000D01*
X93225499Y-58399992D01*
X93214999Y-58297203D01*
X93159814Y-58130666D01*
X93067712Y-57981344D01*
X93067711Y-57981342D01*
X92943657Y-57857288D01*
X92794334Y-57765186D01*
X92627797Y-57710000D01*
X92528141Y-57699819D01*
X92528122Y-57699818D01*
X92525009Y-57699500D01*
X92521860Y-57699500D01*
X90153140Y-57699500D01*
X90153120Y-57699500D01*
X90149992Y-57699501D01*
X90146860Y-57699820D01*
X90146858Y-57699821D01*
X90047203Y-57710000D01*
X89880665Y-57765186D01*
X89731342Y-57857288D01*
X89607289Y-57981341D01*
X89508145Y-58142081D01*
X89456197Y-58188805D01*
X89387234Y-58200028D01*
X89384960Y-58199722D01*
X89348638Y-58194500D01*
X88749500Y-58194500D01*
X88682461Y-58174815D01*
X88636706Y-58122011D01*
X88625500Y-58070500D01*
X88625500Y-53399999D01*
X89894540Y-53399999D01*
X89914326Y-53588257D01*
X89972820Y-53768284D01*
X90067466Y-53932216D01*
X90194129Y-54072889D01*
X90347269Y-54184151D01*
X90520197Y-54261144D01*
X90705352Y-54300500D01*
X90831389Y-54300500D01*
X90898428Y-54320185D01*
X90944183Y-54372989D01*
X90954127Y-54442147D01*
X90952686Y-54448812D01*
X90949691Y-54486871D01*
X90949690Y-54486886D01*
X90949500Y-54489306D01*
X90949500Y-54920694D01*
X90949690Y-54923114D01*
X90949691Y-54923128D01*
X90952402Y-54957572D01*
X90998255Y-55115397D01*
X90998256Y-55115398D01*
X91081919Y-55256865D01*
X91198135Y-55373081D01*
X91339602Y-55456744D01*
X91414715Y-55478566D01*
X91473599Y-55516172D01*
X91502806Y-55579644D01*
X91503440Y-55584680D01*
X91514326Y-55688257D01*
X91572820Y-55868284D01*
X91667466Y-56032216D01*
X91794129Y-56172889D01*
X91947269Y-56284151D01*
X92120197Y-56361144D01*
X92305352Y-56400500D01*
X92305354Y-56400500D01*
X92494648Y-56400500D01*
X92618084Y-56374262D01*
X92679803Y-56361144D01*
X92852730Y-56284151D01*
X93005871Y-56172888D01*
X93132533Y-56032216D01*
X93227179Y-55868284D01*
X93285674Y-55688256D01*
X93294985Y-55599661D01*
X93321568Y-55535050D01*
X93378865Y-55495065D01*
X93383651Y-55493567D01*
X93510398Y-55456744D01*
X93651865Y-55373081D01*
X93768081Y-55256865D01*
X93851744Y-55115398D01*
X93897598Y-54957569D01*
X93900500Y-54920694D01*
X93900500Y-54489306D01*
X93897598Y-54452431D01*
X93851744Y-54294602D01*
X93768081Y-54153135D01*
X93760107Y-54139651D01*
X93762129Y-54138454D01*
X93739144Y-54096367D01*
X93744123Y-54026675D01*
X93760784Y-54000749D01*
X93760107Y-54000349D01*
X93816231Y-53905447D01*
X93851744Y-53845398D01*
X93897598Y-53687569D01*
X93900500Y-53650694D01*
X93900500Y-53219306D01*
X93897598Y-53182431D01*
X93851744Y-53024602D01*
X93851744Y-53024601D01*
X93760107Y-52869651D01*
X93762129Y-52868454D01*
X93739144Y-52826367D01*
X93744123Y-52756675D01*
X93760784Y-52730749D01*
X93760107Y-52730349D01*
X93841657Y-52592454D01*
X93851744Y-52575398D01*
X93897598Y-52417569D01*
X93900500Y-52380694D01*
X93900500Y-51949306D01*
X93897598Y-51912431D01*
X93851744Y-51754602D01*
X93768081Y-51613135D01*
X93768080Y-51613134D01*
X93760107Y-51599652D01*
X93762007Y-51598527D01*
X93738788Y-51556004D01*
X93743772Y-51486312D01*
X93760397Y-51460447D01*
X93759709Y-51460040D01*
X93851280Y-51305200D01*
X93897099Y-51147488D01*
X93897295Y-51145000D01*
X90952704Y-51145000D01*
X90953897Y-51160157D01*
X90950930Y-51160390D01*
X90950790Y-51210767D01*
X90912852Y-51269439D01*
X90849216Y-51298287D01*
X90831911Y-51299500D01*
X90705352Y-51299500D01*
X90520197Y-51338855D01*
X90347269Y-51415848D01*
X90194129Y-51527110D01*
X90067466Y-51667783D01*
X89972820Y-51831715D01*
X89914326Y-52011742D01*
X89894540Y-52200000D01*
X89914326Y-52388257D01*
X89972821Y-52568286D01*
X90070805Y-52738001D01*
X90087278Y-52805901D01*
X90070805Y-52861999D01*
X89972821Y-53031713D01*
X89914326Y-53211742D01*
X89894540Y-53399999D01*
X88625500Y-53399999D01*
X88625500Y-50644999D01*
X90952704Y-50644999D01*
X90952705Y-50645000D01*
X92175000Y-50645000D01*
X92175000Y-50095000D01*
X92675000Y-50095000D01*
X92675000Y-50645000D01*
X93897295Y-50645000D01*
X93897295Y-50644999D01*
X93897099Y-50642511D01*
X93851280Y-50484799D01*
X93767682Y-50343442D01*
X93651557Y-50227317D01*
X93510197Y-50143717D01*
X93352493Y-50097900D01*
X93318076Y-50095191D01*
X93313197Y-50095000D01*
X92675000Y-50095000D01*
X92175000Y-50095000D01*
X91536803Y-50095000D01*
X91531923Y-50095191D01*
X91497506Y-50097900D01*
X91339802Y-50143717D01*
X91198442Y-50227317D01*
X91082317Y-50343442D01*
X90998719Y-50484799D01*
X90952900Y-50642511D01*
X90952704Y-50644999D01*
X88625500Y-50644999D01*
X88625500Y-49935452D01*
X88645185Y-49868413D01*
X88661819Y-49847771D01*
X90197771Y-48311819D01*
X90259094Y-48278334D01*
X90285452Y-48275500D01*
X95789548Y-48275500D01*
X95856587Y-48295185D01*
X95877229Y-48311819D01*
X95888181Y-48322771D01*
X95921666Y-48384094D01*
X95924500Y-48410452D01*
X95924500Y-49762795D01*
X95904815Y-49829834D01*
X95888181Y-49850476D01*
X95691208Y-50047448D01*
X95675110Y-50060345D01*
X95627096Y-50111474D01*
X95624392Y-50114265D01*
X95607628Y-50131029D01*
X95607621Y-50131036D01*
X95604880Y-50133778D01*
X95602499Y-50136846D01*
X95602490Y-50136857D01*
X95602411Y-50136960D01*
X95594842Y-50145821D01*
X95564935Y-50177669D01*
X95555285Y-50195223D01*
X95544609Y-50211477D01*
X95532326Y-50227312D01*
X95514975Y-50267407D01*
X95509838Y-50277893D01*
X95488802Y-50316156D01*
X95483821Y-50335558D01*
X95477520Y-50353960D01*
X95469561Y-50372351D01*
X95462728Y-50415491D01*
X95460360Y-50426923D01*
X95449500Y-50469226D01*
X95449500Y-50489265D01*
X95447973Y-50508663D01*
X95444840Y-50528443D01*
X95448950Y-50571922D01*
X95449500Y-50583592D01*
X95449500Y-51159007D01*
X95447235Y-51179517D01*
X95449439Y-51249623D01*
X95449500Y-51253518D01*
X95449500Y-51281101D01*
X95449988Y-51284970D01*
X95449989Y-51284976D01*
X95450004Y-51285094D01*
X95450918Y-51296718D01*
X95452290Y-51340377D01*
X95457879Y-51359611D01*
X95461825Y-51378667D01*
X95464335Y-51398543D01*
X95480414Y-51439155D01*
X95484197Y-51450202D01*
X95496382Y-51492142D01*
X95506580Y-51509386D01*
X95515136Y-51526851D01*
X95522514Y-51545483D01*
X95522515Y-51545484D01*
X95548180Y-51580810D01*
X95554593Y-51590573D01*
X95576826Y-51628167D01*
X95576829Y-51628170D01*
X95576830Y-51628171D01*
X95590995Y-51642336D01*
X95603627Y-51657126D01*
X95615406Y-51673338D01*
X95649058Y-51701177D01*
X95657698Y-51709039D01*
X95863181Y-51914522D01*
X95896665Y-51975844D01*
X95899499Y-52002202D01*
X95899499Y-52378248D01*
X95899499Y-52378273D01*
X95899500Y-52380694D01*
X95899690Y-52383113D01*
X95899691Y-52383128D01*
X95902402Y-52417572D01*
X95948255Y-52575397D01*
X96039893Y-52730348D01*
X96037870Y-52731543D01*
X96060858Y-52773642D01*
X96055874Y-52843334D01*
X96039216Y-52869252D01*
X96039893Y-52869652D01*
X95948255Y-53024602D01*
X95902402Y-53182427D01*
X95899691Y-53216871D01*
X95899690Y-53216886D01*
X95899500Y-53219306D01*
X95899500Y-53650694D01*
X95899690Y-53653114D01*
X95899691Y-53653128D01*
X95902402Y-53687572D01*
X95948255Y-53845397D01*
X96039893Y-54000348D01*
X96037870Y-54001543D01*
X96060858Y-54043642D01*
X96055874Y-54113334D01*
X96039216Y-54139252D01*
X96039893Y-54139652D01*
X95948255Y-54294602D01*
X95902402Y-54452427D01*
X95899691Y-54486871D01*
X95899690Y-54486886D01*
X95899500Y-54489306D01*
X95899500Y-54920694D01*
X95899690Y-54923114D01*
X95899691Y-54923128D01*
X95902402Y-54957572D01*
X95948255Y-55115397D01*
X95948256Y-55115398D01*
X96031919Y-55256865D01*
X96148135Y-55373081D01*
X96230633Y-55421870D01*
X96289602Y-55456744D01*
X96379660Y-55482909D01*
X96438546Y-55520515D01*
X96467752Y-55583988D01*
X96468386Y-55589023D01*
X96489326Y-55788257D01*
X96547820Y-55968284D01*
X96642466Y-56132216D01*
X96769129Y-56272889D01*
X96922269Y-56384151D01*
X97095197Y-56461144D01*
X97280352Y-56500500D01*
X97280354Y-56500500D01*
X97469648Y-56500500D01*
X97593084Y-56474262D01*
X97654803Y-56461144D01*
X97827730Y-56384151D01*
X97901902Y-56330262D01*
X97980870Y-56272889D01*
X98043850Y-56202943D01*
X98103337Y-56166294D01*
X98173194Y-56167625D01*
X98231242Y-56206511D01*
X98259052Y-56270608D01*
X98260000Y-56285915D01*
X98260000Y-56290718D01*
X98260255Y-56296347D01*
X98266489Y-56364945D01*
X98317692Y-56529264D01*
X98406736Y-56676561D01*
X98528438Y-56798263D01*
X98675735Y-56887307D01*
X98840054Y-56938510D01*
X98908652Y-56944744D01*
X98914281Y-56945000D01*
X99150000Y-56945000D01*
X99150000Y-56944999D01*
X99649999Y-56944999D01*
X99650000Y-56945000D01*
X99885719Y-56945000D01*
X99891347Y-56944744D01*
X99959945Y-56938510D01*
X100124264Y-56887307D01*
X100271561Y-56798263D01*
X100393263Y-56676561D01*
X100482307Y-56529264D01*
X100533510Y-56364945D01*
X100539744Y-56296347D01*
X100540000Y-56290718D01*
X100540000Y-56277500D01*
X99650000Y-56277500D01*
X99649999Y-56944999D01*
X99150000Y-56944999D01*
X99150000Y-55901500D01*
X99169685Y-55834461D01*
X99222489Y-55788706D01*
X99274000Y-55777500D01*
X100540000Y-55777500D01*
X100540000Y-55764281D01*
X100539744Y-55758652D01*
X100533510Y-55690054D01*
X100482307Y-55525735D01*
X100445369Y-55464632D01*
X100427533Y-55397077D01*
X100445370Y-55336331D01*
X100482765Y-55274473D01*
X100534006Y-55110035D01*
X100540500Y-55038572D01*
X100540500Y-54506428D01*
X100534006Y-54434965D01*
X100482765Y-54270527D01*
X100409677Y-54149626D01*
X100391842Y-54082072D01*
X100392506Y-54072221D01*
X100397403Y-54026675D01*
X100400500Y-53997873D01*
X100400499Y-52902128D01*
X100394091Y-52842517D01*
X100343796Y-52707669D01*
X100318511Y-52673893D01*
X100294094Y-52608430D01*
X100308945Y-52540157D01*
X100318513Y-52525270D01*
X100343352Y-52492089D01*
X100393599Y-52357373D01*
X100399645Y-52301132D01*
X100400000Y-52294518D01*
X100400000Y-52000000D01*
X99274000Y-52000000D01*
X99206961Y-51980315D01*
X99161206Y-51927511D01*
X99150000Y-51876000D01*
X99150000Y-50750000D01*
X99650000Y-50750000D01*
X99650000Y-51500000D01*
X100400000Y-51500000D01*
X100400000Y-51205481D01*
X100399645Y-51198867D01*
X100393599Y-51142628D01*
X100343352Y-51007910D01*
X100257188Y-50892811D01*
X100142089Y-50806647D01*
X100007371Y-50756400D01*
X99951132Y-50750354D01*
X99944518Y-50750000D01*
X99650000Y-50750000D01*
X99150000Y-50750000D01*
X98970688Y-50750000D01*
X98903649Y-50730315D01*
X98857894Y-50677511D01*
X98851910Y-50654408D01*
X98851143Y-50654631D01*
X98801744Y-50484602D01*
X98735359Y-50372351D01*
X98718081Y-50343135D01*
X98601865Y-50226919D01*
X98548270Y-50195223D01*
X98460397Y-50143255D01*
X98302572Y-50097402D01*
X98268128Y-50094691D01*
X98268114Y-50094690D01*
X98265694Y-50094500D01*
X98263249Y-50094500D01*
X97749500Y-50094500D01*
X97682461Y-50074815D01*
X97636706Y-50022011D01*
X97625500Y-49970500D01*
X97625500Y-47996343D01*
X97627763Y-47975842D01*
X97625561Y-47905747D01*
X97625500Y-47901853D01*
X97625500Y-47878148D01*
X97625500Y-47874254D01*
X97624998Y-47870285D01*
X97624080Y-47858628D01*
X97622709Y-47814976D01*
X97617119Y-47795738D01*
X97613174Y-47776686D01*
X97610664Y-47756812D01*
X97594578Y-47716185D01*
X97590805Y-47705164D01*
X97578617Y-47663214D01*
X97568421Y-47645973D01*
X97559863Y-47628506D01*
X97552486Y-47609872D01*
X97526798Y-47574516D01*
X97520409Y-47564788D01*
X97498170Y-47527183D01*
X97484006Y-47513019D01*
X97471369Y-47498224D01*
X97459595Y-47482018D01*
X97459594Y-47482017D01*
X97425935Y-47454172D01*
X97417305Y-47446318D01*
X96787198Y-46816211D01*
X96774302Y-46800113D01*
X96723171Y-46752098D01*
X96720374Y-46749387D01*
X96703623Y-46732636D01*
X96700867Y-46729880D01*
X96697686Y-46727412D01*
X96688818Y-46719837D01*
X96656978Y-46689938D01*
X96639420Y-46680285D01*
X96623160Y-46669604D01*
X96607332Y-46657327D01*
X96567247Y-46639980D01*
X96556757Y-46634841D01*
X96518487Y-46613802D01*
X96499087Y-46608821D01*
X96480680Y-46602519D01*
X96462293Y-46594562D01*
X96419154Y-46587729D01*
X96407720Y-46585361D01*
X96365415Y-46574500D01*
X96345380Y-46574500D01*
X96325982Y-46572973D01*
X96318558Y-46571797D01*
X96306201Y-46569840D01*
X96306200Y-46569840D01*
X96279880Y-46572328D01*
X96262721Y-46573950D01*
X96251052Y-46574500D01*
X89871345Y-46574500D01*
X89850841Y-46572236D01*
X89780749Y-46574439D01*
X89776855Y-46574500D01*
X89749254Y-46574500D01*
X89745403Y-46574986D01*
X89745372Y-46574988D01*
X89745244Y-46575005D01*
X89733632Y-46575918D01*
X89689972Y-46577290D01*
X89670732Y-46582880D01*
X89651685Y-46586825D01*
X89631813Y-46589335D01*
X89591203Y-46605413D01*
X89580158Y-46609194D01*
X89538215Y-46621380D01*
X89520973Y-46631578D01*
X89503501Y-46640138D01*
X89484870Y-46647514D01*
X89449542Y-46673181D01*
X89439784Y-46679591D01*
X89402183Y-46701829D01*
X89388014Y-46715998D01*
X89373226Y-46728628D01*
X89357017Y-46740405D01*
X89329176Y-46774058D01*
X89321315Y-46782696D01*
X87166208Y-48937803D01*
X87150110Y-48950700D01*
X87102096Y-49001829D01*
X87099392Y-49004620D01*
X87082628Y-49021384D01*
X87082621Y-49021391D01*
X87079880Y-49024133D01*
X87077499Y-49027201D01*
X87077490Y-49027212D01*
X87077411Y-49027315D01*
X87069842Y-49036176D01*
X87039935Y-49068024D01*
X87030285Y-49085578D01*
X87019609Y-49101832D01*
X87007326Y-49117667D01*
X86989975Y-49157762D01*
X86984838Y-49168248D01*
X86963802Y-49206511D01*
X86958821Y-49225913D01*
X86952520Y-49244315D01*
X86944561Y-49262706D01*
X86937728Y-49305846D01*
X86935360Y-49317278D01*
X86924499Y-49359581D01*
X86924500Y-49379620D01*
X86922973Y-49399018D01*
X86919840Y-49418798D01*
X66000500Y-49418798D01*
X66000500Y-47005412D01*
X66000972Y-46994605D01*
X66004476Y-46954554D01*
X66016919Y-46828215D01*
X66020539Y-46808322D01*
X66037908Y-46743498D01*
X66038956Y-46739828D01*
X66066685Y-46648419D01*
X66072948Y-46632049D01*
X66103700Y-46566102D01*
X66106670Y-46560161D01*
X66149012Y-46480944D01*
X66156786Y-46468289D01*
X66199639Y-46407089D01*
X66205330Y-46399587D01*
X66261191Y-46331521D01*
X66269325Y-46322547D01*
X66322547Y-46269325D01*
X66331521Y-46261191D01*
X66399587Y-46205330D01*
X66407089Y-46199639D01*
X66468289Y-46156786D01*
X66480944Y-46149012D01*
X66560161Y-46106670D01*
X66566102Y-46103700D01*
X66632049Y-46072948D01*
X66648419Y-46066685D01*
X66739828Y-46038956D01*
X66743498Y-46037908D01*
X66808318Y-46020540D01*
X66828221Y-46016918D01*
X66954471Y-46004483D01*
X66994640Y-46000968D01*
X67005402Y-46000500D01*
X100994587Y-46000500D01*
X101005394Y-46000971D01*
G37*
G04 #@! TD.AperFunction*
M02*
