G04 #@! TF.GenerationSoftware,KiCad,Pcbnew,7.0.2.1-36-g582732918d-dirty-deb11*
G04 #@! TF.CreationDate,2023-05-22T19:38:29+00:00*
G04 #@! TF.ProjectId,pedalboard-led-ring,70656461-6c62-46f6-9172-642d6c65642d,rev?*
G04 #@! TF.SameCoordinates,Original*
G04 #@! TF.FileFunction,Copper,L1,Top*
G04 #@! TF.FilePolarity,Positive*
%FSLAX46Y46*%
G04 Gerber Fmt 4.6, Leading zero omitted, Abs format (unit mm)*
G04 Created by KiCad (PCBNEW 7.0.2.1-36-g582732918d-dirty-deb11) date 2023-05-22 19:38:29*
%MOMM*%
%LPD*%
G01*
G04 APERTURE LIST*
G04 #@! TA.AperFunction,SMDPad,CuDef*
%ADD10R,0.830000X0.750000*%
G04 #@! TD*
G04 #@! TA.AperFunction,SMDPad,CuDef*
%ADD11R,0.830000X0.500000*%
G04 #@! TD*
G04 #@! TA.AperFunction,ViaPad*
%ADD12C,0.800000*%
G04 #@! TD*
G04 #@! TA.AperFunction,Conductor*
%ADD13C,0.250000*%
G04 #@! TD*
G04 APERTURE END LIST*
G04 #@! TA.AperFunction,SMDPad,CuDef*
G36*
X87819890Y-54716439D02*
G01*
X88469410Y-54341439D01*
X88884410Y-55060241D01*
X88234890Y-55435241D01*
X87819890Y-54716439D01*
G37*
G04 #@! TD.AperFunction*
G04 #@! TA.AperFunction,SMDPad,CuDef*
G36*
X87230994Y-55056439D02*
G01*
X87664006Y-54806439D01*
X88079006Y-55525241D01*
X87645994Y-55775241D01*
X87230994Y-55056439D01*
G37*
G04 #@! TD.AperFunction*
G04 #@! TA.AperFunction,SMDPad,CuDef*
G36*
X86425590Y-55521439D02*
G01*
X87075110Y-55146439D01*
X87490110Y-55865241D01*
X86840590Y-56240241D01*
X86425590Y-55521439D01*
G37*
G04 #@! TD.AperFunction*
G04 #@! TA.AperFunction,SMDPad,CuDef*
G36*
X87215590Y-56889759D02*
G01*
X87865110Y-56514759D01*
X88280110Y-57233561D01*
X87630590Y-57608561D01*
X87215590Y-56889759D01*
G37*
G04 #@! TD.AperFunction*
G04 #@! TA.AperFunction,SMDPad,CuDef*
G36*
X88020994Y-56424759D02*
G01*
X88454006Y-56174759D01*
X88869006Y-56893561D01*
X88435994Y-57143561D01*
X88020994Y-56424759D01*
G37*
G04 #@! TD.AperFunction*
G04 #@! TA.AperFunction,SMDPad,CuDef*
G36*
X88609890Y-56084759D02*
G01*
X89259410Y-55709759D01*
X89674410Y-56428561D01*
X89024890Y-56803561D01*
X88609890Y-56084759D01*
G37*
G04 #@! TD.AperFunction*
D10*
X80790000Y-69805000D03*
D11*
X80790000Y-69000000D03*
D10*
X80790000Y-68195000D03*
X79210000Y-68195000D03*
D11*
X79210000Y-69000000D03*
D10*
X79210000Y-69805000D03*
X79210000Y-50195000D03*
D11*
X79210000Y-51000000D03*
D10*
X79210000Y-51805000D03*
X80790000Y-51805000D03*
D11*
X80790000Y-51000000D03*
D10*
X80790000Y-50195000D03*
G04 #@! TA.AperFunction,SMDPad,CuDef*
G36*
X72180110Y-65283561D02*
G01*
X71530590Y-65658561D01*
X71115590Y-64939759D01*
X71765110Y-64564759D01*
X72180110Y-65283561D01*
G37*
G04 #@! TD.AperFunction*
G04 #@! TA.AperFunction,SMDPad,CuDef*
G36*
X72769006Y-64943561D02*
G01*
X72335994Y-65193561D01*
X71920994Y-64474759D01*
X72354006Y-64224759D01*
X72769006Y-64943561D01*
G37*
G04 #@! TD.AperFunction*
G04 #@! TA.AperFunction,SMDPad,CuDef*
G36*
X73574410Y-64478561D02*
G01*
X72924890Y-64853561D01*
X72509890Y-64134759D01*
X73159410Y-63759759D01*
X73574410Y-64478561D01*
G37*
G04 #@! TD.AperFunction*
G04 #@! TA.AperFunction,SMDPad,CuDef*
G36*
X72784410Y-63110241D02*
G01*
X72134890Y-63485241D01*
X71719890Y-62766439D01*
X72369410Y-62391439D01*
X72784410Y-63110241D01*
G37*
G04 #@! TD.AperFunction*
G04 #@! TA.AperFunction,SMDPad,CuDef*
G36*
X71979006Y-63575241D02*
G01*
X71545994Y-63825241D01*
X71130994Y-63106439D01*
X71564006Y-62856439D01*
X71979006Y-63575241D01*
G37*
G04 #@! TD.AperFunction*
G04 #@! TA.AperFunction,SMDPad,CuDef*
G36*
X71390110Y-63915241D02*
G01*
X70740590Y-64290241D01*
X70325590Y-63571439D01*
X70975110Y-63196439D01*
X71390110Y-63915241D01*
G37*
G04 #@! TD.AperFunction*
G04 #@! TA.AperFunction,SMDPad,CuDef*
G36*
X70975110Y-56803561D02*
G01*
X70325590Y-56428561D01*
X70740590Y-55709759D01*
X71390110Y-56084759D01*
X70975110Y-56803561D01*
G37*
G04 #@! TD.AperFunction*
G04 #@! TA.AperFunction,SMDPad,CuDef*
G36*
X71564006Y-57143561D02*
G01*
X71130994Y-56893561D01*
X71545994Y-56174759D01*
X71979006Y-56424759D01*
X71564006Y-57143561D01*
G37*
G04 #@! TD.AperFunction*
G04 #@! TA.AperFunction,SMDPad,CuDef*
G36*
X72369410Y-57608561D02*
G01*
X71719890Y-57233561D01*
X72134890Y-56514759D01*
X72784410Y-56889759D01*
X72369410Y-57608561D01*
G37*
G04 #@! TD.AperFunction*
G04 #@! TA.AperFunction,SMDPad,CuDef*
G36*
X73159410Y-56240241D02*
G01*
X72509890Y-55865241D01*
X72924890Y-55146439D01*
X73574410Y-55521439D01*
X73159410Y-56240241D01*
G37*
G04 #@! TD.AperFunction*
G04 #@! TA.AperFunction,SMDPad,CuDef*
G36*
X72354006Y-55775241D02*
G01*
X71920994Y-55525241D01*
X72335994Y-54806439D01*
X72769006Y-55056439D01*
X72354006Y-55775241D01*
G37*
G04 #@! TD.AperFunction*
G04 #@! TA.AperFunction,SMDPad,CuDef*
G36*
X71765110Y-55435241D02*
G01*
X71115590Y-55060241D01*
X71530590Y-54341439D01*
X72180110Y-54716439D01*
X71765110Y-55435241D01*
G37*
G04 #@! TD.AperFunction*
G04 #@! TA.AperFunction,SMDPad,CuDef*
G36*
X89024890Y-63196439D02*
G01*
X89674410Y-63571439D01*
X89259410Y-64290241D01*
X88609890Y-63915241D01*
X89024890Y-63196439D01*
G37*
G04 #@! TD.AperFunction*
G04 #@! TA.AperFunction,SMDPad,CuDef*
G36*
X88435994Y-62856439D02*
G01*
X88869006Y-63106439D01*
X88454006Y-63825241D01*
X88020994Y-63575241D01*
X88435994Y-62856439D01*
G37*
G04 #@! TD.AperFunction*
G04 #@! TA.AperFunction,SMDPad,CuDef*
G36*
X87630590Y-62391439D02*
G01*
X88280110Y-62766439D01*
X87865110Y-63485241D01*
X87215590Y-63110241D01*
X87630590Y-62391439D01*
G37*
G04 #@! TD.AperFunction*
G04 #@! TA.AperFunction,SMDPad,CuDef*
G36*
X86840590Y-63759759D02*
G01*
X87490110Y-64134759D01*
X87075110Y-64853561D01*
X86425590Y-64478561D01*
X86840590Y-63759759D01*
G37*
G04 #@! TD.AperFunction*
G04 #@! TA.AperFunction,SMDPad,CuDef*
G36*
X87645994Y-64224759D02*
G01*
X88079006Y-64474759D01*
X87664006Y-65193561D01*
X87230994Y-64943561D01*
X87645994Y-64224759D01*
G37*
G04 #@! TD.AperFunction*
G04 #@! TA.AperFunction,SMDPad,CuDef*
G36*
X88234890Y-64564759D02*
G01*
X88884410Y-64939759D01*
X88469410Y-65658561D01*
X87819890Y-65283561D01*
X88234890Y-64564759D01*
G37*
G04 #@! TD.AperFunction*
D12*
X89500000Y-61400000D03*
X90500000Y-61400000D03*
X90500000Y-62400000D03*
X95600000Y-72700000D03*
X97375000Y-55600000D03*
X92400000Y-55500000D03*
X90800000Y-53400000D03*
X90800000Y-52200000D03*
D13*
X83105000Y-68195000D02*
X80790000Y-68195000D01*
X86957850Y-64306660D02*
X86957850Y-64342150D01*
X86957850Y-64342150D02*
X83105000Y-68195000D01*
X87655000Y-64745000D02*
X83400000Y-69000000D01*
X87655000Y-64709160D02*
X87655000Y-64745000D01*
X83400000Y-69000000D02*
X80790000Y-69000000D01*
X88352150Y-65111660D02*
X83658810Y-69805000D01*
X83658810Y-69805000D02*
X80790000Y-69805000D01*
X76795000Y-68195000D02*
X73042150Y-64442150D01*
X79210000Y-68195000D02*
X76795000Y-68195000D01*
X73042150Y-64442150D02*
X73042150Y-64306660D01*
X76500000Y-69000000D02*
X72345000Y-64845000D01*
X72345000Y-64845000D02*
X72345000Y-64709160D01*
X79210000Y-69000000D02*
X76500000Y-69000000D01*
X79210000Y-69805000D02*
X76341190Y-69805000D01*
X76341190Y-69805000D02*
X71647850Y-65111660D01*
X72252150Y-62938340D02*
X72100000Y-62786190D01*
X72100000Y-57213810D02*
X72252150Y-57061660D01*
X72100000Y-62786190D02*
X72100000Y-57213810D01*
X71300000Y-63085840D02*
X71300000Y-56914160D01*
X71555000Y-63340840D02*
X71300000Y-63085840D01*
X71300000Y-56914160D02*
X71555000Y-56659160D01*
X70857850Y-63743340D02*
X70600000Y-63485490D01*
X70600000Y-63485490D02*
X70600000Y-56514510D01*
X70600000Y-56514510D02*
X70857850Y-56256660D01*
X76930490Y-51805000D02*
X79210000Y-51805000D01*
X73042150Y-55693340D02*
X76930490Y-51805000D01*
X76611709Y-51000000D02*
X72332934Y-55278775D01*
X79210000Y-51000000D02*
X76611709Y-51000000D01*
X79210000Y-50195000D02*
X76341190Y-50195000D01*
X76341190Y-50195000D02*
X71647850Y-54888340D01*
X80790000Y-51805000D02*
X83069510Y-51805000D01*
X83069510Y-51805000D02*
X86957850Y-55693340D01*
X85600000Y-53200000D02*
X85600000Y-53211709D01*
X83400000Y-51000000D02*
X85600000Y-53200000D01*
X80790000Y-51000000D02*
X83400000Y-51000000D01*
X85600000Y-53211709D02*
X87667066Y-55278775D01*
X83658810Y-50195000D02*
X88352150Y-54888340D01*
X80790000Y-50195000D02*
X83658810Y-50195000D01*
X87747850Y-57061660D02*
X88250000Y-57563810D01*
X88300000Y-57800000D02*
X88250000Y-57750000D01*
X88250000Y-57563810D02*
X88250000Y-57750000D01*
X92400000Y-55500000D02*
X90100000Y-57800000D01*
X90100000Y-57800000D02*
X88300000Y-57800000D01*
X90800000Y-53400000D02*
X90800000Y-56100000D01*
X90800000Y-56100000D02*
X89600000Y-57300000D01*
X89061709Y-57300000D02*
X88432934Y-56671225D01*
X89600000Y-57300000D02*
X89061709Y-57300000D01*
X90100000Y-55500000D02*
X90075000Y-55475000D01*
X89600000Y-56000000D02*
X90100000Y-55500000D01*
X89398810Y-56000000D02*
X89600000Y-56000000D01*
X90075000Y-55475000D02*
X90075000Y-52925000D01*
X90075000Y-52925000D02*
X90800000Y-52200000D01*
X89142150Y-56256660D02*
X89398810Y-56000000D01*
G04 #@! TA.AperFunction,Conductor*
G36*
X101877886Y-54197651D02*
G01*
X101944533Y-54218621D01*
X101989264Y-54272295D01*
X101999500Y-54321628D01*
X101999500Y-72994583D01*
X101999028Y-73005393D01*
X101995523Y-73045445D01*
X101983082Y-73171764D01*
X101979455Y-73191696D01*
X101962123Y-73256382D01*
X101961008Y-73260285D01*
X101933319Y-73351562D01*
X101927041Y-73367971D01*
X101896328Y-73433835D01*
X101893304Y-73439884D01*
X101850990Y-73519046D01*
X101843207Y-73531715D01*
X101800373Y-73592889D01*
X101794652Y-73600430D01*
X101738826Y-73668455D01*
X101730653Y-73677472D01*
X101677472Y-73730653D01*
X101668455Y-73738826D01*
X101600430Y-73794652D01*
X101592889Y-73800373D01*
X101531715Y-73843207D01*
X101519046Y-73850990D01*
X101439884Y-73893304D01*
X101433835Y-73896328D01*
X101367971Y-73927041D01*
X101351562Y-73933319D01*
X101260285Y-73961008D01*
X101256382Y-73962123D01*
X101191700Y-73979454D01*
X101171761Y-73983082D01*
X101045445Y-73995523D01*
X101026131Y-73997213D01*
X101005360Y-73999031D01*
X100994594Y-73999500D01*
X91124000Y-73999500D01*
X91056961Y-73979815D01*
X91011206Y-73927011D01*
X91000000Y-73875500D01*
X91000000Y-68024000D01*
X91019685Y-67956961D01*
X91072489Y-67911206D01*
X91124000Y-67900000D01*
X96699999Y-67900000D01*
X96700000Y-67900000D01*
X96799090Y-54225487D01*
X96819260Y-54158595D01*
X96872394Y-54113224D01*
X96925466Y-54102412D01*
X101877886Y-54197651D01*
G37*
G04 #@! TD.AperFunction*
G04 #@! TA.AperFunction,Conductor*
G36*
X91743039Y-58719685D02*
G01*
X91788794Y-58772489D01*
X91800000Y-58824000D01*
X91800000Y-61500000D01*
X95678988Y-61500000D01*
X95746027Y-61519685D01*
X95791782Y-61572489D01*
X95802950Y-61620975D01*
X95896545Y-65458353D01*
X95896902Y-65472977D01*
X95878858Y-65540476D01*
X95827185Y-65587505D01*
X95772939Y-65600000D01*
X89295921Y-65600000D01*
X89228882Y-65580315D01*
X89183127Y-65527511D01*
X89173183Y-65458353D01*
X89188534Y-65414000D01*
X89228313Y-65345099D01*
X89341790Y-65148551D01*
X89366046Y-65093722D01*
X89389914Y-64951793D01*
X89381196Y-64878890D01*
X89392781Y-64809991D01*
X89439779Y-64758290D01*
X89455508Y-64750181D01*
X89522319Y-64721571D01*
X89633189Y-64630029D01*
X89666549Y-64584342D01*
X89670179Y-64578766D01*
X89774921Y-64397345D01*
X89774921Y-64397344D01*
X89171657Y-64049050D01*
X89171654Y-64049049D01*
X88483655Y-63651833D01*
X89483655Y-63651833D01*
X90024921Y-63964332D01*
X90024922Y-63964332D01*
X90129673Y-63782898D01*
X90132681Y-63776977D01*
X90155565Y-63725248D01*
X90179409Y-63583460D01*
X90162338Y-63440696D01*
X90105742Y-63308531D01*
X90014198Y-63197659D01*
X89968511Y-63164299D01*
X89962943Y-63160674D01*
X89816155Y-63075926D01*
X89816154Y-63075926D01*
X89483655Y-63651832D01*
X89483655Y-63651833D01*
X88483655Y-63651833D01*
X88098665Y-63429559D01*
X88098661Y-63429555D01*
X87800000Y-63257122D01*
X87800000Y-63249332D01*
X88786506Y-63249332D01*
X88791337Y-63252122D01*
X88791340Y-63252124D01*
X89050642Y-63401833D01*
X89050643Y-63401833D01*
X89383142Y-62825926D01*
X89383142Y-62825925D01*
X89236348Y-62741175D01*
X89230424Y-62738165D01*
X89206871Y-62727745D01*
X89183916Y-62714492D01*
X89163118Y-62699305D01*
X89157540Y-62695674D01*
X89119005Y-62673426D01*
X89119004Y-62673426D01*
X88786506Y-63249331D01*
X88786506Y-63249332D01*
X87800000Y-63249332D01*
X87800000Y-62846833D01*
X88089355Y-62846833D01*
X88353492Y-62999332D01*
X88353493Y-62999332D01*
X88685992Y-62423427D01*
X88685992Y-62423426D01*
X88647451Y-62401174D01*
X88641527Y-62398165D01*
X88617974Y-62387745D01*
X88595019Y-62374492D01*
X88574221Y-62359305D01*
X88568643Y-62355674D01*
X88421855Y-62270926D01*
X88421854Y-62270926D01*
X88089355Y-62846832D01*
X88089355Y-62846833D01*
X87800000Y-62846833D01*
X87800000Y-62348010D01*
X87988842Y-62020926D01*
X87988842Y-62020925D01*
X87862000Y-61947693D01*
X87813784Y-61897126D01*
X87800000Y-61840306D01*
X87800000Y-58824000D01*
X87819685Y-58756961D01*
X87872489Y-58711206D01*
X87924000Y-58700000D01*
X91676000Y-58700000D01*
X91743039Y-58719685D01*
G37*
G04 #@! TD.AperFunction*
M02*
