G04 #@! TF.GenerationSoftware,KiCad,Pcbnew,7.0.2.1-36-g582732918d-dirty-deb11*
G04 #@! TF.CreationDate,2023-05-29T10:57:50+00:00*
G04 #@! TF.ProjectId,pedalboard-led-ring,70656461-6c62-46f6-9172-642d6c65642d,1.0.0*
G04 #@! TF.SameCoordinates,Original*
G04 #@! TF.FileFunction,Soldermask,Top*
G04 #@! TF.FilePolarity,Negative*
%FSLAX46Y46*%
G04 Gerber Fmt 4.6, Leading zero omitted, Abs format (unit mm)*
G04 Created by KiCad (PCBNEW 7.0.2.1-36-g582732918d-dirty-deb11) date 2023-05-29 10:57:50*
%MOMM*%
%LPD*%
G01*
G04 APERTURE LIST*
%ADD10R,0.830000X0.750000*%
%ADD11R,0.830000X0.500000*%
G04 APERTURE END LIST*
G36*
X87819890Y-54716439D02*
G01*
X88469410Y-54341439D01*
X88884410Y-55060241D01*
X88234890Y-55435241D01*
X87819890Y-54716439D01*
G37*
G36*
X87230994Y-55056439D02*
G01*
X87664006Y-54806439D01*
X88079006Y-55525241D01*
X87645994Y-55775241D01*
X87230994Y-55056439D01*
G37*
G36*
X86425590Y-55521439D02*
G01*
X87075110Y-55146439D01*
X87490110Y-55865241D01*
X86840590Y-56240241D01*
X86425590Y-55521439D01*
G37*
G36*
X87215590Y-56889759D02*
G01*
X87865110Y-56514759D01*
X88280110Y-57233561D01*
X87630590Y-57608561D01*
X87215590Y-56889759D01*
G37*
G36*
X88020994Y-56424759D02*
G01*
X88454006Y-56174759D01*
X88869006Y-56893561D01*
X88435994Y-57143561D01*
X88020994Y-56424759D01*
G37*
G36*
X88609890Y-56084759D02*
G01*
X89259410Y-55709759D01*
X89674410Y-56428561D01*
X89024890Y-56803561D01*
X88609890Y-56084759D01*
G37*
D10*
X80790000Y-69805000D03*
D11*
X80790000Y-69000000D03*
D10*
X80790000Y-68195000D03*
X79210000Y-68195000D03*
D11*
X79210000Y-69000000D03*
D10*
X79210000Y-69805000D03*
X79210000Y-50195000D03*
D11*
X79210000Y-51000000D03*
D10*
X79210000Y-51805000D03*
X80790000Y-51805000D03*
D11*
X80790000Y-51000000D03*
D10*
X80790000Y-50195000D03*
G36*
X72180110Y-65283561D02*
G01*
X71530590Y-65658561D01*
X71115590Y-64939759D01*
X71765110Y-64564759D01*
X72180110Y-65283561D01*
G37*
G36*
X72769006Y-64943561D02*
G01*
X72335994Y-65193561D01*
X71920994Y-64474759D01*
X72354006Y-64224759D01*
X72769006Y-64943561D01*
G37*
G36*
X73574410Y-64478561D02*
G01*
X72924890Y-64853561D01*
X72509890Y-64134759D01*
X73159410Y-63759759D01*
X73574410Y-64478561D01*
G37*
G36*
X72784410Y-63110241D02*
G01*
X72134890Y-63485241D01*
X71719890Y-62766439D01*
X72369410Y-62391439D01*
X72784410Y-63110241D01*
G37*
G36*
X71979006Y-63575241D02*
G01*
X71545994Y-63825241D01*
X71130994Y-63106439D01*
X71564006Y-62856439D01*
X71979006Y-63575241D01*
G37*
G36*
X71390110Y-63915241D02*
G01*
X70740590Y-64290241D01*
X70325590Y-63571439D01*
X70975110Y-63196439D01*
X71390110Y-63915241D01*
G37*
G36*
X70975110Y-56803561D02*
G01*
X70325590Y-56428561D01*
X70740590Y-55709759D01*
X71390110Y-56084759D01*
X70975110Y-56803561D01*
G37*
G36*
X71564006Y-57143561D02*
G01*
X71130994Y-56893561D01*
X71545994Y-56174759D01*
X71979006Y-56424759D01*
X71564006Y-57143561D01*
G37*
G36*
X72369410Y-57608561D02*
G01*
X71719890Y-57233561D01*
X72134890Y-56514759D01*
X72784410Y-56889759D01*
X72369410Y-57608561D01*
G37*
G36*
X73159410Y-56240241D02*
G01*
X72509890Y-55865241D01*
X72924890Y-55146439D01*
X73574410Y-55521439D01*
X73159410Y-56240241D01*
G37*
G36*
X72354006Y-55775241D02*
G01*
X71920994Y-55525241D01*
X72335994Y-54806439D01*
X72769006Y-55056439D01*
X72354006Y-55775241D01*
G37*
G36*
X71765110Y-55435241D02*
G01*
X71115590Y-55060241D01*
X71530590Y-54341439D01*
X72180110Y-54716439D01*
X71765110Y-55435241D01*
G37*
G36*
X89024890Y-63196439D02*
G01*
X89674410Y-63571439D01*
X89259410Y-64290241D01*
X88609890Y-63915241D01*
X89024890Y-63196439D01*
G37*
G36*
X88435994Y-62856439D02*
G01*
X88869006Y-63106439D01*
X88454006Y-63825241D01*
X88020994Y-63575241D01*
X88435994Y-62856439D01*
G37*
G36*
X87630590Y-62391439D02*
G01*
X88280110Y-62766439D01*
X87865110Y-63485241D01*
X87215590Y-63110241D01*
X87630590Y-62391439D01*
G37*
G36*
X86840590Y-63759759D02*
G01*
X87490110Y-64134759D01*
X87075110Y-64853561D01*
X86425590Y-64478561D01*
X86840590Y-63759759D01*
G37*
G36*
X87645994Y-64224759D02*
G01*
X88079006Y-64474759D01*
X87664006Y-65193561D01*
X87230994Y-64943561D01*
X87645994Y-64224759D01*
G37*
G36*
X88234890Y-64564759D02*
G01*
X88884410Y-64939759D01*
X88469410Y-65658561D01*
X87819890Y-65283561D01*
X88234890Y-64564759D01*
G37*
M02*
