G04 #@! TF.GenerationSoftware,KiCad,Pcbnew,7.0.2.1-36-g582732918d-dirty-deb11*
G04 #@! TF.CreationDate,2023-05-22T19:38:29+00:00*
G04 #@! TF.ProjectId,pedalboard-led-ring,70656461-6c62-46f6-9172-642d6c65642d,rev?*
G04 #@! TF.SameCoordinates,Original*
G04 #@! TF.FileFunction,Soldermask,Bot*
G04 #@! TF.FilePolarity,Negative*
%FSLAX46Y46*%
G04 Gerber Fmt 4.6, Leading zero omitted, Abs format (unit mm)*
G04 Created by KiCad (PCBNEW 7.0.2.1-36-g582732918d-dirty-deb11) date 2023-05-22 19:38:29*
%MOMM*%
%LPD*%
G01*
G04 APERTURE LIST*
%ADD10R,1.000000X3.150000*%
%ADD11R,1.000000X1.000000*%
G04 APERTURE END LIST*
G36*
G01*
X91450000Y-54855000D02*
X91450000Y-54555000D01*
G75*
G02*
X91600000Y-54405000I150000J0D01*
G01*
X93250000Y-54405000D01*
G75*
G02*
X93400000Y-54555000I0J-150000D01*
G01*
X93400000Y-54855000D01*
G75*
G02*
X93250000Y-55005000I-150000J0D01*
G01*
X91600000Y-55005000D01*
G75*
G02*
X91450000Y-54855000I0J150000D01*
G01*
G37*
G36*
G01*
X91450000Y-53585000D02*
X91450000Y-53285000D01*
G75*
G02*
X91600000Y-53135000I150000J0D01*
G01*
X93250000Y-53135000D01*
G75*
G02*
X93400000Y-53285000I0J-150000D01*
G01*
X93400000Y-53585000D01*
G75*
G02*
X93250000Y-53735000I-150000J0D01*
G01*
X91600000Y-53735000D01*
G75*
G02*
X91450000Y-53585000I0J150000D01*
G01*
G37*
G36*
G01*
X91450000Y-52315000D02*
X91450000Y-52015000D01*
G75*
G02*
X91600000Y-51865000I150000J0D01*
G01*
X93250000Y-51865000D01*
G75*
G02*
X93400000Y-52015000I0J-150000D01*
G01*
X93400000Y-52315000D01*
G75*
G02*
X93250000Y-52465000I-150000J0D01*
G01*
X91600000Y-52465000D01*
G75*
G02*
X91450000Y-52315000I0J150000D01*
G01*
G37*
G36*
G01*
X91450000Y-51045000D02*
X91450000Y-50745000D01*
G75*
G02*
X91600000Y-50595000I150000J0D01*
G01*
X93250000Y-50595000D01*
G75*
G02*
X93400000Y-50745000I0J-150000D01*
G01*
X93400000Y-51045000D01*
G75*
G02*
X93250000Y-51195000I-150000J0D01*
G01*
X91600000Y-51195000D01*
G75*
G02*
X91450000Y-51045000I0J150000D01*
G01*
G37*
G36*
G01*
X96400000Y-51045000D02*
X96400000Y-50745000D01*
G75*
G02*
X96550000Y-50595000I150000J0D01*
G01*
X98200000Y-50595000D01*
G75*
G02*
X98350000Y-50745000I0J-150000D01*
G01*
X98350000Y-51045000D01*
G75*
G02*
X98200000Y-51195000I-150000J0D01*
G01*
X96550000Y-51195000D01*
G75*
G02*
X96400000Y-51045000I0J150000D01*
G01*
G37*
G36*
G01*
X96400000Y-52315000D02*
X96400000Y-52015000D01*
G75*
G02*
X96550000Y-51865000I150000J0D01*
G01*
X98200000Y-51865000D01*
G75*
G02*
X98350000Y-52015000I0J-150000D01*
G01*
X98350000Y-52315000D01*
G75*
G02*
X98200000Y-52465000I-150000J0D01*
G01*
X96550000Y-52465000D01*
G75*
G02*
X96400000Y-52315000I0J150000D01*
G01*
G37*
G36*
G01*
X96400000Y-53585000D02*
X96400000Y-53285000D01*
G75*
G02*
X96550000Y-53135000I150000J0D01*
G01*
X98200000Y-53135000D01*
G75*
G02*
X98350000Y-53285000I0J-150000D01*
G01*
X98350000Y-53585000D01*
G75*
G02*
X98200000Y-53735000I-150000J0D01*
G01*
X96550000Y-53735000D01*
G75*
G02*
X96400000Y-53585000I0J150000D01*
G01*
G37*
G36*
G01*
X96400000Y-54855000D02*
X96400000Y-54555000D01*
G75*
G02*
X96550000Y-54405000I150000J0D01*
G01*
X98200000Y-54405000D01*
G75*
G02*
X98350000Y-54555000I0J-150000D01*
G01*
X98350000Y-54855000D01*
G75*
G02*
X98200000Y-55005000I-150000J0D01*
G01*
X96550000Y-55005000D01*
G75*
G02*
X96400000Y-54855000I0J150000D01*
G01*
G37*
D10*
X93060000Y-65475000D03*
X93060000Y-70525000D03*
X95600000Y-65475000D03*
X95600000Y-70525000D03*
X98140000Y-65475000D03*
X98140000Y-70525000D03*
G36*
G01*
X89950000Y-59550000D02*
X89950000Y-58450000D01*
G75*
G02*
X90200000Y-58200000I250000J0D01*
G01*
X92475000Y-58200000D01*
G75*
G02*
X92725000Y-58450000I0J-250000D01*
G01*
X92725000Y-59550000D01*
G75*
G02*
X92475000Y-59800000I-250000J0D01*
G01*
X90200000Y-59800000D01*
G75*
G02*
X89950000Y-59550000I0J250000D01*
G01*
G37*
G36*
G01*
X94075000Y-59550000D02*
X94075000Y-58450000D01*
G75*
G02*
X94325000Y-58200000I250000J0D01*
G01*
X96600000Y-58200000D01*
G75*
G02*
X96850000Y-58450000I0J-250000D01*
G01*
X96850000Y-59550000D01*
G75*
G02*
X96600000Y-59800000I-250000J0D01*
G01*
X94325000Y-59800000D01*
G75*
G02*
X94075000Y-59550000I0J250000D01*
G01*
G37*
D11*
X99400000Y-53450000D03*
X99400000Y-51750000D03*
G36*
G01*
X98968750Y-54355000D02*
X99831250Y-54355000D01*
G75*
G02*
X100040000Y-54563750I0J-208750D01*
G01*
X100040000Y-54981250D01*
G75*
G02*
X99831250Y-55190000I-208750J0D01*
G01*
X98968750Y-55190000D01*
G75*
G02*
X98760000Y-54981250I0J208750D01*
G01*
X98760000Y-54563750D01*
G75*
G02*
X98968750Y-54355000I208750J0D01*
G01*
G37*
G36*
G01*
X98968750Y-55610000D02*
X99831250Y-55610000D01*
G75*
G02*
X100040000Y-55818750I0J-208750D01*
G01*
X100040000Y-56236250D01*
G75*
G02*
X99831250Y-56445000I-208750J0D01*
G01*
X98968750Y-56445000D01*
G75*
G02*
X98760000Y-56236250I0J208750D01*
G01*
X98760000Y-55818750D01*
G75*
G02*
X98968750Y-55610000I208750J0D01*
G01*
G37*
M02*
