G04 #@! TF.GenerationSoftware,KiCad,Pcbnew,7.0.2.1-36-g582732918d-dirty-deb11*
G04 #@! TF.CreationDate,2023-05-29T10:57:50+00:00*
G04 #@! TF.ProjectId,pedalboard-led-ring,70656461-6c62-46f6-9172-642d6c65642d,1.0.0*
G04 #@! TF.SameCoordinates,Original*
G04 #@! TF.FileFunction,Legend,Bot*
G04 #@! TF.FilePolarity,Positive*
%FSLAX46Y46*%
G04 Gerber Fmt 4.6, Leading zero omitted, Abs format (unit mm)*
G04 Created by KiCad (PCBNEW 7.0.2.1-36-g582732918d-dirty-deb11) date 2023-05-29 10:57:50*
%MOMM*%
%LPD*%
G01*
G04 APERTURE LIST*
%ADD10C,0.100000*%
%ADD11C,0.150000*%
%ADD12C,0.120000*%
%ADD13C,0.127000*%
%ADD14C,0.010000*%
%ADD15R,1.000000X3.000000*%
%ADD16R,1.000000X1.000000*%
%ADD17R,0.700000X0.250000*%
%ADD18R,0.610000X2.200000*%
G04 APERTURE END LIST*
D10*
X87050000Y-60000000D02*
G75*
G03*
X87050000Y-60000000I-7050000J0D01*
G01*
D11*
X82214287Y-47637619D02*
X82214287Y-46637619D01*
X82214287Y-46637619D02*
X81833335Y-46637619D01*
X81833335Y-46637619D02*
X81738097Y-46685238D01*
X81738097Y-46685238D02*
X81690478Y-46732857D01*
X81690478Y-46732857D02*
X81642859Y-46828095D01*
X81642859Y-46828095D02*
X81642859Y-46970952D01*
X81642859Y-46970952D02*
X81690478Y-47066190D01*
X81690478Y-47066190D02*
X81738097Y-47113809D01*
X81738097Y-47113809D02*
X81833335Y-47161428D01*
X81833335Y-47161428D02*
X82214287Y-47161428D01*
X80833335Y-47590000D02*
X80928573Y-47637619D01*
X80928573Y-47637619D02*
X81119049Y-47637619D01*
X81119049Y-47637619D02*
X81214287Y-47590000D01*
X81214287Y-47590000D02*
X81261906Y-47494761D01*
X81261906Y-47494761D02*
X81261906Y-47113809D01*
X81261906Y-47113809D02*
X81214287Y-47018571D01*
X81214287Y-47018571D02*
X81119049Y-46970952D01*
X81119049Y-46970952D02*
X80928573Y-46970952D01*
X80928573Y-46970952D02*
X80833335Y-47018571D01*
X80833335Y-47018571D02*
X80785716Y-47113809D01*
X80785716Y-47113809D02*
X80785716Y-47209047D01*
X80785716Y-47209047D02*
X81261906Y-47304285D01*
X79928573Y-47637619D02*
X79928573Y-46637619D01*
X79928573Y-47590000D02*
X80023811Y-47637619D01*
X80023811Y-47637619D02*
X80214287Y-47637619D01*
X80214287Y-47637619D02*
X80309525Y-47590000D01*
X80309525Y-47590000D02*
X80357144Y-47542380D01*
X80357144Y-47542380D02*
X80404763Y-47447142D01*
X80404763Y-47447142D02*
X80404763Y-47161428D01*
X80404763Y-47161428D02*
X80357144Y-47066190D01*
X80357144Y-47066190D02*
X80309525Y-47018571D01*
X80309525Y-47018571D02*
X80214287Y-46970952D01*
X80214287Y-46970952D02*
X80023811Y-46970952D01*
X80023811Y-46970952D02*
X79928573Y-47018571D01*
X79023811Y-47637619D02*
X79023811Y-47113809D01*
X79023811Y-47113809D02*
X79071430Y-47018571D01*
X79071430Y-47018571D02*
X79166668Y-46970952D01*
X79166668Y-46970952D02*
X79357144Y-46970952D01*
X79357144Y-46970952D02*
X79452382Y-47018571D01*
X79023811Y-47590000D02*
X79119049Y-47637619D01*
X79119049Y-47637619D02*
X79357144Y-47637619D01*
X79357144Y-47637619D02*
X79452382Y-47590000D01*
X79452382Y-47590000D02*
X79500001Y-47494761D01*
X79500001Y-47494761D02*
X79500001Y-47399523D01*
X79500001Y-47399523D02*
X79452382Y-47304285D01*
X79452382Y-47304285D02*
X79357144Y-47256666D01*
X79357144Y-47256666D02*
X79119049Y-47256666D01*
X79119049Y-47256666D02*
X79023811Y-47209047D01*
X78404763Y-47637619D02*
X78500001Y-47590000D01*
X78500001Y-47590000D02*
X78547620Y-47494761D01*
X78547620Y-47494761D02*
X78547620Y-46637619D01*
X78023810Y-47637619D02*
X78023810Y-46637619D01*
X78023810Y-47018571D02*
X77928572Y-46970952D01*
X77928572Y-46970952D02*
X77738096Y-46970952D01*
X77738096Y-46970952D02*
X77642858Y-47018571D01*
X77642858Y-47018571D02*
X77595239Y-47066190D01*
X77595239Y-47066190D02*
X77547620Y-47161428D01*
X77547620Y-47161428D02*
X77547620Y-47447142D01*
X77547620Y-47447142D02*
X77595239Y-47542380D01*
X77595239Y-47542380D02*
X77642858Y-47590000D01*
X77642858Y-47590000D02*
X77738096Y-47637619D01*
X77738096Y-47637619D02*
X77928572Y-47637619D01*
X77928572Y-47637619D02*
X78023810Y-47590000D01*
X76976191Y-47637619D02*
X77071429Y-47590000D01*
X77071429Y-47590000D02*
X77119048Y-47542380D01*
X77119048Y-47542380D02*
X77166667Y-47447142D01*
X77166667Y-47447142D02*
X77166667Y-47161428D01*
X77166667Y-47161428D02*
X77119048Y-47066190D01*
X77119048Y-47066190D02*
X77071429Y-47018571D01*
X77071429Y-47018571D02*
X76976191Y-46970952D01*
X76976191Y-46970952D02*
X76833334Y-46970952D01*
X76833334Y-46970952D02*
X76738096Y-47018571D01*
X76738096Y-47018571D02*
X76690477Y-47066190D01*
X76690477Y-47066190D02*
X76642858Y-47161428D01*
X76642858Y-47161428D02*
X76642858Y-47447142D01*
X76642858Y-47447142D02*
X76690477Y-47542380D01*
X76690477Y-47542380D02*
X76738096Y-47590000D01*
X76738096Y-47590000D02*
X76833334Y-47637619D01*
X76833334Y-47637619D02*
X76976191Y-47637619D01*
X75785715Y-47637619D02*
X75785715Y-47113809D01*
X75785715Y-47113809D02*
X75833334Y-47018571D01*
X75833334Y-47018571D02*
X75928572Y-46970952D01*
X75928572Y-46970952D02*
X76119048Y-46970952D01*
X76119048Y-46970952D02*
X76214286Y-47018571D01*
X75785715Y-47590000D02*
X75880953Y-47637619D01*
X75880953Y-47637619D02*
X76119048Y-47637619D01*
X76119048Y-47637619D02*
X76214286Y-47590000D01*
X76214286Y-47590000D02*
X76261905Y-47494761D01*
X76261905Y-47494761D02*
X76261905Y-47399523D01*
X76261905Y-47399523D02*
X76214286Y-47304285D01*
X76214286Y-47304285D02*
X76119048Y-47256666D01*
X76119048Y-47256666D02*
X75880953Y-47256666D01*
X75880953Y-47256666D02*
X75785715Y-47209047D01*
X75309524Y-47637619D02*
X75309524Y-46970952D01*
X75309524Y-47161428D02*
X75261905Y-47066190D01*
X75261905Y-47066190D02*
X75214286Y-47018571D01*
X75214286Y-47018571D02*
X75119048Y-46970952D01*
X75119048Y-46970952D02*
X75023810Y-46970952D01*
X74261905Y-47637619D02*
X74261905Y-46637619D01*
X74261905Y-47590000D02*
X74357143Y-47637619D01*
X74357143Y-47637619D02*
X74547619Y-47637619D01*
X74547619Y-47637619D02*
X74642857Y-47590000D01*
X74642857Y-47590000D02*
X74690476Y-47542380D01*
X74690476Y-47542380D02*
X74738095Y-47447142D01*
X74738095Y-47447142D02*
X74738095Y-47161428D01*
X74738095Y-47161428D02*
X74690476Y-47066190D01*
X74690476Y-47066190D02*
X74642857Y-47018571D01*
X74642857Y-47018571D02*
X74547619Y-46970952D01*
X74547619Y-46970952D02*
X74357143Y-46970952D01*
X74357143Y-46970952D02*
X74261905Y-47018571D01*
X72547619Y-47637619D02*
X73023809Y-47637619D01*
X73023809Y-47637619D02*
X73023809Y-46637619D01*
X72214285Y-47113809D02*
X71880952Y-47113809D01*
X71738095Y-47637619D02*
X72214285Y-47637619D01*
X72214285Y-47637619D02*
X72214285Y-46637619D01*
X72214285Y-46637619D02*
X71738095Y-46637619D01*
X71309523Y-47637619D02*
X71309523Y-46637619D01*
X71309523Y-46637619D02*
X71071428Y-46637619D01*
X71071428Y-46637619D02*
X70928571Y-46685238D01*
X70928571Y-46685238D02*
X70833333Y-46780476D01*
X70833333Y-46780476D02*
X70785714Y-46875714D01*
X70785714Y-46875714D02*
X70738095Y-47066190D01*
X70738095Y-47066190D02*
X70738095Y-47209047D01*
X70738095Y-47209047D02*
X70785714Y-47399523D01*
X70785714Y-47399523D02*
X70833333Y-47494761D01*
X70833333Y-47494761D02*
X70928571Y-47590000D01*
X70928571Y-47590000D02*
X71071428Y-47637619D01*
X71071428Y-47637619D02*
X71309523Y-47637619D01*
X68976190Y-47637619D02*
X69309523Y-47161428D01*
X69547618Y-47637619D02*
X69547618Y-46637619D01*
X69547618Y-46637619D02*
X69166666Y-46637619D01*
X69166666Y-46637619D02*
X69071428Y-46685238D01*
X69071428Y-46685238D02*
X69023809Y-46732857D01*
X69023809Y-46732857D02*
X68976190Y-46828095D01*
X68976190Y-46828095D02*
X68976190Y-46970952D01*
X68976190Y-46970952D02*
X69023809Y-47066190D01*
X69023809Y-47066190D02*
X69071428Y-47113809D01*
X69071428Y-47113809D02*
X69166666Y-47161428D01*
X69166666Y-47161428D02*
X69547618Y-47161428D01*
X68547618Y-47637619D02*
X68547618Y-46970952D01*
X68547618Y-46637619D02*
X68595237Y-46685238D01*
X68595237Y-46685238D02*
X68547618Y-46732857D01*
X68547618Y-46732857D02*
X68499999Y-46685238D01*
X68499999Y-46685238D02*
X68547618Y-46637619D01*
X68547618Y-46637619D02*
X68547618Y-46732857D01*
X68071428Y-46970952D02*
X68071428Y-47637619D01*
X68071428Y-47066190D02*
X68023809Y-47018571D01*
X68023809Y-47018571D02*
X67928571Y-46970952D01*
X67928571Y-46970952D02*
X67785714Y-46970952D01*
X67785714Y-46970952D02*
X67690476Y-47018571D01*
X67690476Y-47018571D02*
X67642857Y-47113809D01*
X67642857Y-47113809D02*
X67642857Y-47637619D01*
X66738095Y-46970952D02*
X66738095Y-47780476D01*
X66738095Y-47780476D02*
X66785714Y-47875714D01*
X66785714Y-47875714D02*
X66833333Y-47923333D01*
X66833333Y-47923333D02*
X66928571Y-47970952D01*
X66928571Y-47970952D02*
X67071428Y-47970952D01*
X67071428Y-47970952D02*
X67166666Y-47923333D01*
X66738095Y-47590000D02*
X66833333Y-47637619D01*
X66833333Y-47637619D02*
X67023809Y-47637619D01*
X67023809Y-47637619D02*
X67119047Y-47590000D01*
X67119047Y-47590000D02*
X67166666Y-47542380D01*
X67166666Y-47542380D02*
X67214285Y-47447142D01*
X67214285Y-47447142D02*
X67214285Y-47161428D01*
X67214285Y-47161428D02*
X67166666Y-47066190D01*
X67166666Y-47066190D02*
X67119047Y-47018571D01*
X67119047Y-47018571D02*
X67023809Y-46970952D01*
X67023809Y-46970952D02*
X66833333Y-46970952D01*
X66833333Y-46970952D02*
X66738095Y-47018571D01*
X90214287Y-49257619D02*
X90214287Y-48257619D01*
X89785716Y-49257619D02*
X89785716Y-48733809D01*
X89785716Y-48733809D02*
X89833335Y-48638571D01*
X89833335Y-48638571D02*
X89928573Y-48590952D01*
X89928573Y-48590952D02*
X90071430Y-48590952D01*
X90071430Y-48590952D02*
X90166668Y-48638571D01*
X90166668Y-48638571D02*
X90214287Y-48686190D01*
X89452382Y-48590952D02*
X89071430Y-48590952D01*
X89309525Y-48257619D02*
X89309525Y-49114761D01*
X89309525Y-49114761D02*
X89261906Y-49210000D01*
X89261906Y-49210000D02*
X89166668Y-49257619D01*
X89166668Y-49257619D02*
X89071430Y-49257619D01*
X88880953Y-48590952D02*
X88500001Y-48590952D01*
X88738096Y-48257619D02*
X88738096Y-49114761D01*
X88738096Y-49114761D02*
X88690477Y-49210000D01*
X88690477Y-49210000D02*
X88595239Y-49257619D01*
X88595239Y-49257619D02*
X88500001Y-49257619D01*
X88166667Y-48590952D02*
X88166667Y-49590952D01*
X88166667Y-48638571D02*
X88071429Y-48590952D01*
X88071429Y-48590952D02*
X87880953Y-48590952D01*
X87880953Y-48590952D02*
X87785715Y-48638571D01*
X87785715Y-48638571D02*
X87738096Y-48686190D01*
X87738096Y-48686190D02*
X87690477Y-48781428D01*
X87690477Y-48781428D02*
X87690477Y-49067142D01*
X87690477Y-49067142D02*
X87738096Y-49162380D01*
X87738096Y-49162380D02*
X87785715Y-49210000D01*
X87785715Y-49210000D02*
X87880953Y-49257619D01*
X87880953Y-49257619D02*
X88071429Y-49257619D01*
X88071429Y-49257619D02*
X88166667Y-49210000D01*
X87309524Y-49210000D02*
X87214286Y-49257619D01*
X87214286Y-49257619D02*
X87023810Y-49257619D01*
X87023810Y-49257619D02*
X86928572Y-49210000D01*
X86928572Y-49210000D02*
X86880953Y-49114761D01*
X86880953Y-49114761D02*
X86880953Y-49067142D01*
X86880953Y-49067142D02*
X86928572Y-48971904D01*
X86928572Y-48971904D02*
X87023810Y-48924285D01*
X87023810Y-48924285D02*
X87166667Y-48924285D01*
X87166667Y-48924285D02*
X87261905Y-48876666D01*
X87261905Y-48876666D02*
X87309524Y-48781428D01*
X87309524Y-48781428D02*
X87309524Y-48733809D01*
X87309524Y-48733809D02*
X87261905Y-48638571D01*
X87261905Y-48638571D02*
X87166667Y-48590952D01*
X87166667Y-48590952D02*
X87023810Y-48590952D01*
X87023810Y-48590952D02*
X86928572Y-48638571D01*
X86452381Y-49162380D02*
X86404762Y-49210000D01*
X86404762Y-49210000D02*
X86452381Y-49257619D01*
X86452381Y-49257619D02*
X86500000Y-49210000D01*
X86500000Y-49210000D02*
X86452381Y-49162380D01*
X86452381Y-49162380D02*
X86452381Y-49257619D01*
X86452381Y-48638571D02*
X86404762Y-48686190D01*
X86404762Y-48686190D02*
X86452381Y-48733809D01*
X86452381Y-48733809D02*
X86500000Y-48686190D01*
X86500000Y-48686190D02*
X86452381Y-48638571D01*
X86452381Y-48638571D02*
X86452381Y-48733809D01*
X85261906Y-48210000D02*
X86119048Y-49495714D01*
X84214287Y-48210000D02*
X85071429Y-49495714D01*
X83452382Y-48590952D02*
X83452382Y-49400476D01*
X83452382Y-49400476D02*
X83500001Y-49495714D01*
X83500001Y-49495714D02*
X83547620Y-49543333D01*
X83547620Y-49543333D02*
X83642858Y-49590952D01*
X83642858Y-49590952D02*
X83785715Y-49590952D01*
X83785715Y-49590952D02*
X83880953Y-49543333D01*
X83452382Y-49210000D02*
X83547620Y-49257619D01*
X83547620Y-49257619D02*
X83738096Y-49257619D01*
X83738096Y-49257619D02*
X83833334Y-49210000D01*
X83833334Y-49210000D02*
X83880953Y-49162380D01*
X83880953Y-49162380D02*
X83928572Y-49067142D01*
X83928572Y-49067142D02*
X83928572Y-48781428D01*
X83928572Y-48781428D02*
X83880953Y-48686190D01*
X83880953Y-48686190D02*
X83833334Y-48638571D01*
X83833334Y-48638571D02*
X83738096Y-48590952D01*
X83738096Y-48590952D02*
X83547620Y-48590952D01*
X83547620Y-48590952D02*
X83452382Y-48638571D01*
X82976191Y-49257619D02*
X82976191Y-48590952D01*
X82976191Y-48257619D02*
X83023810Y-48305238D01*
X83023810Y-48305238D02*
X82976191Y-48352857D01*
X82976191Y-48352857D02*
X82928572Y-48305238D01*
X82928572Y-48305238D02*
X82976191Y-48257619D01*
X82976191Y-48257619D02*
X82976191Y-48352857D01*
X82642858Y-48590952D02*
X82261906Y-48590952D01*
X82500001Y-48257619D02*
X82500001Y-49114761D01*
X82500001Y-49114761D02*
X82452382Y-49210000D01*
X82452382Y-49210000D02*
X82357144Y-49257619D01*
X82357144Y-49257619D02*
X82261906Y-49257619D01*
X81928572Y-49257619D02*
X81928572Y-48257619D01*
X81500001Y-49257619D02*
X81500001Y-48733809D01*
X81500001Y-48733809D02*
X81547620Y-48638571D01*
X81547620Y-48638571D02*
X81642858Y-48590952D01*
X81642858Y-48590952D02*
X81785715Y-48590952D01*
X81785715Y-48590952D02*
X81880953Y-48638571D01*
X81880953Y-48638571D02*
X81928572Y-48686190D01*
X80595239Y-48590952D02*
X80595239Y-49257619D01*
X81023810Y-48590952D02*
X81023810Y-49114761D01*
X81023810Y-49114761D02*
X80976191Y-49210000D01*
X80976191Y-49210000D02*
X80880953Y-49257619D01*
X80880953Y-49257619D02*
X80738096Y-49257619D01*
X80738096Y-49257619D02*
X80642858Y-49210000D01*
X80642858Y-49210000D02*
X80595239Y-49162380D01*
X80119048Y-49257619D02*
X80119048Y-48257619D01*
X80119048Y-48638571D02*
X80023810Y-48590952D01*
X80023810Y-48590952D02*
X79833334Y-48590952D01*
X79833334Y-48590952D02*
X79738096Y-48638571D01*
X79738096Y-48638571D02*
X79690477Y-48686190D01*
X79690477Y-48686190D02*
X79642858Y-48781428D01*
X79642858Y-48781428D02*
X79642858Y-49067142D01*
X79642858Y-49067142D02*
X79690477Y-49162380D01*
X79690477Y-49162380D02*
X79738096Y-49210000D01*
X79738096Y-49210000D02*
X79833334Y-49257619D01*
X79833334Y-49257619D02*
X80023810Y-49257619D01*
X80023810Y-49257619D02*
X80119048Y-49210000D01*
X79214286Y-49162380D02*
X79166667Y-49210000D01*
X79166667Y-49210000D02*
X79214286Y-49257619D01*
X79214286Y-49257619D02*
X79261905Y-49210000D01*
X79261905Y-49210000D02*
X79214286Y-49162380D01*
X79214286Y-49162380D02*
X79214286Y-49257619D01*
X78309525Y-49210000D02*
X78404763Y-49257619D01*
X78404763Y-49257619D02*
X78595239Y-49257619D01*
X78595239Y-49257619D02*
X78690477Y-49210000D01*
X78690477Y-49210000D02*
X78738096Y-49162380D01*
X78738096Y-49162380D02*
X78785715Y-49067142D01*
X78785715Y-49067142D02*
X78785715Y-48781428D01*
X78785715Y-48781428D02*
X78738096Y-48686190D01*
X78738096Y-48686190D02*
X78690477Y-48638571D01*
X78690477Y-48638571D02*
X78595239Y-48590952D01*
X78595239Y-48590952D02*
X78404763Y-48590952D01*
X78404763Y-48590952D02*
X78309525Y-48638571D01*
X77738096Y-49257619D02*
X77833334Y-49210000D01*
X77833334Y-49210000D02*
X77880953Y-49162380D01*
X77880953Y-49162380D02*
X77928572Y-49067142D01*
X77928572Y-49067142D02*
X77928572Y-48781428D01*
X77928572Y-48781428D02*
X77880953Y-48686190D01*
X77880953Y-48686190D02*
X77833334Y-48638571D01*
X77833334Y-48638571D02*
X77738096Y-48590952D01*
X77738096Y-48590952D02*
X77595239Y-48590952D01*
X77595239Y-48590952D02*
X77500001Y-48638571D01*
X77500001Y-48638571D02*
X77452382Y-48686190D01*
X77452382Y-48686190D02*
X77404763Y-48781428D01*
X77404763Y-48781428D02*
X77404763Y-49067142D01*
X77404763Y-49067142D02*
X77452382Y-49162380D01*
X77452382Y-49162380D02*
X77500001Y-49210000D01*
X77500001Y-49210000D02*
X77595239Y-49257619D01*
X77595239Y-49257619D02*
X77738096Y-49257619D01*
X76976191Y-49257619D02*
X76976191Y-48590952D01*
X76976191Y-48686190D02*
X76928572Y-48638571D01*
X76928572Y-48638571D02*
X76833334Y-48590952D01*
X76833334Y-48590952D02*
X76690477Y-48590952D01*
X76690477Y-48590952D02*
X76595239Y-48638571D01*
X76595239Y-48638571D02*
X76547620Y-48733809D01*
X76547620Y-48733809D02*
X76547620Y-49257619D01*
X76547620Y-48733809D02*
X76500001Y-48638571D01*
X76500001Y-48638571D02*
X76404763Y-48590952D01*
X76404763Y-48590952D02*
X76261906Y-48590952D01*
X76261906Y-48590952D02*
X76166667Y-48638571D01*
X76166667Y-48638571D02*
X76119048Y-48733809D01*
X76119048Y-48733809D02*
X76119048Y-49257619D01*
X74928573Y-48210000D02*
X75785715Y-49495714D01*
X74595239Y-48590952D02*
X74595239Y-49590952D01*
X74595239Y-48638571D02*
X74500001Y-48590952D01*
X74500001Y-48590952D02*
X74309525Y-48590952D01*
X74309525Y-48590952D02*
X74214287Y-48638571D01*
X74214287Y-48638571D02*
X74166668Y-48686190D01*
X74166668Y-48686190D02*
X74119049Y-48781428D01*
X74119049Y-48781428D02*
X74119049Y-49067142D01*
X74119049Y-49067142D02*
X74166668Y-49162380D01*
X74166668Y-49162380D02*
X74214287Y-49210000D01*
X74214287Y-49210000D02*
X74309525Y-49257619D01*
X74309525Y-49257619D02*
X74500001Y-49257619D01*
X74500001Y-49257619D02*
X74595239Y-49210000D01*
X73309525Y-49210000D02*
X73404763Y-49257619D01*
X73404763Y-49257619D02*
X73595239Y-49257619D01*
X73595239Y-49257619D02*
X73690477Y-49210000D01*
X73690477Y-49210000D02*
X73738096Y-49114761D01*
X73738096Y-49114761D02*
X73738096Y-48733809D01*
X73738096Y-48733809D02*
X73690477Y-48638571D01*
X73690477Y-48638571D02*
X73595239Y-48590952D01*
X73595239Y-48590952D02*
X73404763Y-48590952D01*
X73404763Y-48590952D02*
X73309525Y-48638571D01*
X73309525Y-48638571D02*
X73261906Y-48733809D01*
X73261906Y-48733809D02*
X73261906Y-48829047D01*
X73261906Y-48829047D02*
X73738096Y-48924285D01*
X72404763Y-49257619D02*
X72404763Y-48257619D01*
X72404763Y-49210000D02*
X72500001Y-49257619D01*
X72500001Y-49257619D02*
X72690477Y-49257619D01*
X72690477Y-49257619D02*
X72785715Y-49210000D01*
X72785715Y-49210000D02*
X72833334Y-49162380D01*
X72833334Y-49162380D02*
X72880953Y-49067142D01*
X72880953Y-49067142D02*
X72880953Y-48781428D01*
X72880953Y-48781428D02*
X72833334Y-48686190D01*
X72833334Y-48686190D02*
X72785715Y-48638571D01*
X72785715Y-48638571D02*
X72690477Y-48590952D01*
X72690477Y-48590952D02*
X72500001Y-48590952D01*
X72500001Y-48590952D02*
X72404763Y-48638571D01*
X71500001Y-49257619D02*
X71500001Y-48733809D01*
X71500001Y-48733809D02*
X71547620Y-48638571D01*
X71547620Y-48638571D02*
X71642858Y-48590952D01*
X71642858Y-48590952D02*
X71833334Y-48590952D01*
X71833334Y-48590952D02*
X71928572Y-48638571D01*
X71500001Y-49210000D02*
X71595239Y-49257619D01*
X71595239Y-49257619D02*
X71833334Y-49257619D01*
X71833334Y-49257619D02*
X71928572Y-49210000D01*
X71928572Y-49210000D02*
X71976191Y-49114761D01*
X71976191Y-49114761D02*
X71976191Y-49019523D01*
X71976191Y-49019523D02*
X71928572Y-48924285D01*
X71928572Y-48924285D02*
X71833334Y-48876666D01*
X71833334Y-48876666D02*
X71595239Y-48876666D01*
X71595239Y-48876666D02*
X71500001Y-48829047D01*
X70880953Y-49257619D02*
X70976191Y-49210000D01*
X70976191Y-49210000D02*
X71023810Y-49114761D01*
X71023810Y-49114761D02*
X71023810Y-48257619D01*
X70500000Y-49257619D02*
X70500000Y-48257619D01*
X70500000Y-48638571D02*
X70404762Y-48590952D01*
X70404762Y-48590952D02*
X70214286Y-48590952D01*
X70214286Y-48590952D02*
X70119048Y-48638571D01*
X70119048Y-48638571D02*
X70071429Y-48686190D01*
X70071429Y-48686190D02*
X70023810Y-48781428D01*
X70023810Y-48781428D02*
X70023810Y-49067142D01*
X70023810Y-49067142D02*
X70071429Y-49162380D01*
X70071429Y-49162380D02*
X70119048Y-49210000D01*
X70119048Y-49210000D02*
X70214286Y-49257619D01*
X70214286Y-49257619D02*
X70404762Y-49257619D01*
X70404762Y-49257619D02*
X70500000Y-49210000D01*
X69452381Y-49257619D02*
X69547619Y-49210000D01*
X69547619Y-49210000D02*
X69595238Y-49162380D01*
X69595238Y-49162380D02*
X69642857Y-49067142D01*
X69642857Y-49067142D02*
X69642857Y-48781428D01*
X69642857Y-48781428D02*
X69595238Y-48686190D01*
X69595238Y-48686190D02*
X69547619Y-48638571D01*
X69547619Y-48638571D02*
X69452381Y-48590952D01*
X69452381Y-48590952D02*
X69309524Y-48590952D01*
X69309524Y-48590952D02*
X69214286Y-48638571D01*
X69214286Y-48638571D02*
X69166667Y-48686190D01*
X69166667Y-48686190D02*
X69119048Y-48781428D01*
X69119048Y-48781428D02*
X69119048Y-49067142D01*
X69119048Y-49067142D02*
X69166667Y-49162380D01*
X69166667Y-49162380D02*
X69214286Y-49210000D01*
X69214286Y-49210000D02*
X69309524Y-49257619D01*
X69309524Y-49257619D02*
X69452381Y-49257619D01*
X68261905Y-49257619D02*
X68261905Y-48733809D01*
X68261905Y-48733809D02*
X68309524Y-48638571D01*
X68309524Y-48638571D02*
X68404762Y-48590952D01*
X68404762Y-48590952D02*
X68595238Y-48590952D01*
X68595238Y-48590952D02*
X68690476Y-48638571D01*
X68261905Y-49210000D02*
X68357143Y-49257619D01*
X68357143Y-49257619D02*
X68595238Y-49257619D01*
X68595238Y-49257619D02*
X68690476Y-49210000D01*
X68690476Y-49210000D02*
X68738095Y-49114761D01*
X68738095Y-49114761D02*
X68738095Y-49019523D01*
X68738095Y-49019523D02*
X68690476Y-48924285D01*
X68690476Y-48924285D02*
X68595238Y-48876666D01*
X68595238Y-48876666D02*
X68357143Y-48876666D01*
X68357143Y-48876666D02*
X68261905Y-48829047D01*
X67785714Y-49257619D02*
X67785714Y-48590952D01*
X67785714Y-48781428D02*
X67738095Y-48686190D01*
X67738095Y-48686190D02*
X67690476Y-48638571D01*
X67690476Y-48638571D02*
X67595238Y-48590952D01*
X67595238Y-48590952D02*
X67500000Y-48590952D01*
X66738095Y-49257619D02*
X66738095Y-48257619D01*
X66738095Y-49210000D02*
X66833333Y-49257619D01*
X66833333Y-49257619D02*
X67023809Y-49257619D01*
X67023809Y-49257619D02*
X67119047Y-49210000D01*
X67119047Y-49210000D02*
X67166666Y-49162380D01*
X67166666Y-49162380D02*
X67214285Y-49067142D01*
X67214285Y-49067142D02*
X67214285Y-48781428D01*
X67214285Y-48781428D02*
X67166666Y-48686190D01*
X67166666Y-48686190D02*
X67119047Y-48638571D01*
X67119047Y-48638571D02*
X67023809Y-48590952D01*
X67023809Y-48590952D02*
X66833333Y-48590952D01*
X66833333Y-48590952D02*
X66738095Y-48638571D01*
X73976189Y-50353809D02*
X73833332Y-50401428D01*
X73833332Y-50401428D02*
X73785713Y-50449047D01*
X73785713Y-50449047D02*
X73738094Y-50544285D01*
X73738094Y-50544285D02*
X73738094Y-50687142D01*
X73738094Y-50687142D02*
X73785713Y-50782380D01*
X73785713Y-50782380D02*
X73833332Y-50830000D01*
X73833332Y-50830000D02*
X73928570Y-50877619D01*
X73928570Y-50877619D02*
X74309522Y-50877619D01*
X74309522Y-50877619D02*
X74309522Y-49877619D01*
X74309522Y-49877619D02*
X73976189Y-49877619D01*
X73976189Y-49877619D02*
X73880951Y-49925238D01*
X73880951Y-49925238D02*
X73833332Y-49972857D01*
X73833332Y-49972857D02*
X73785713Y-50068095D01*
X73785713Y-50068095D02*
X73785713Y-50163333D01*
X73785713Y-50163333D02*
X73833332Y-50258571D01*
X73833332Y-50258571D02*
X73880951Y-50306190D01*
X73880951Y-50306190D02*
X73976189Y-50353809D01*
X73976189Y-50353809D02*
X74309522Y-50353809D01*
X72738094Y-50782380D02*
X72785713Y-50830000D01*
X72785713Y-50830000D02*
X72928570Y-50877619D01*
X72928570Y-50877619D02*
X73023808Y-50877619D01*
X73023808Y-50877619D02*
X73166665Y-50830000D01*
X73166665Y-50830000D02*
X73261903Y-50734761D01*
X73261903Y-50734761D02*
X73309522Y-50639523D01*
X73309522Y-50639523D02*
X73357141Y-50449047D01*
X73357141Y-50449047D02*
X73357141Y-50306190D01*
X73357141Y-50306190D02*
X73309522Y-50115714D01*
X73309522Y-50115714D02*
X73261903Y-50020476D01*
X73261903Y-50020476D02*
X73166665Y-49925238D01*
X73166665Y-49925238D02*
X73023808Y-49877619D01*
X73023808Y-49877619D02*
X72928570Y-49877619D01*
X72928570Y-49877619D02*
X72785713Y-49925238D01*
X72785713Y-49925238D02*
X72738094Y-49972857D01*
X71976189Y-50353809D02*
X71833332Y-50401428D01*
X71833332Y-50401428D02*
X71785713Y-50449047D01*
X71785713Y-50449047D02*
X71738094Y-50544285D01*
X71738094Y-50544285D02*
X71738094Y-50687142D01*
X71738094Y-50687142D02*
X71785713Y-50782380D01*
X71785713Y-50782380D02*
X71833332Y-50830000D01*
X71833332Y-50830000D02*
X71928570Y-50877619D01*
X71928570Y-50877619D02*
X72309522Y-50877619D01*
X72309522Y-50877619D02*
X72309522Y-49877619D01*
X72309522Y-49877619D02*
X71976189Y-49877619D01*
X71976189Y-49877619D02*
X71880951Y-49925238D01*
X71880951Y-49925238D02*
X71833332Y-49972857D01*
X71833332Y-49972857D02*
X71785713Y-50068095D01*
X71785713Y-50068095D02*
X71785713Y-50163333D01*
X71785713Y-50163333D02*
X71833332Y-50258571D01*
X71833332Y-50258571D02*
X71880951Y-50306190D01*
X71880951Y-50306190D02*
X71976189Y-50353809D01*
X71976189Y-50353809D02*
X72309522Y-50353809D01*
X71309522Y-50782380D02*
X71261903Y-50830000D01*
X71261903Y-50830000D02*
X71309522Y-50877619D01*
X71309522Y-50877619D02*
X71357141Y-50830000D01*
X71357141Y-50830000D02*
X71309522Y-50782380D01*
X71309522Y-50782380D02*
X71309522Y-50877619D01*
X71309522Y-50258571D02*
X71261903Y-50306190D01*
X71261903Y-50306190D02*
X71309522Y-50353809D01*
X71309522Y-50353809D02*
X71357141Y-50306190D01*
X71357141Y-50306190D02*
X71309522Y-50258571D01*
X71309522Y-50258571D02*
X71309522Y-50353809D01*
X69547618Y-50877619D02*
X70119046Y-50877619D01*
X69833332Y-50877619D02*
X69833332Y-49877619D01*
X69833332Y-49877619D02*
X69928570Y-50020476D01*
X69928570Y-50020476D02*
X70023808Y-50115714D01*
X70023808Y-50115714D02*
X70119046Y-50163333D01*
X69119046Y-50782380D02*
X69071427Y-50830000D01*
X69071427Y-50830000D02*
X69119046Y-50877619D01*
X69119046Y-50877619D02*
X69166665Y-50830000D01*
X69166665Y-50830000D02*
X69119046Y-50782380D01*
X69119046Y-50782380D02*
X69119046Y-50877619D01*
X68452380Y-49877619D02*
X68357142Y-49877619D01*
X68357142Y-49877619D02*
X68261904Y-49925238D01*
X68261904Y-49925238D02*
X68214285Y-49972857D01*
X68214285Y-49972857D02*
X68166666Y-50068095D01*
X68166666Y-50068095D02*
X68119047Y-50258571D01*
X68119047Y-50258571D02*
X68119047Y-50496666D01*
X68119047Y-50496666D02*
X68166666Y-50687142D01*
X68166666Y-50687142D02*
X68214285Y-50782380D01*
X68214285Y-50782380D02*
X68261904Y-50830000D01*
X68261904Y-50830000D02*
X68357142Y-50877619D01*
X68357142Y-50877619D02*
X68452380Y-50877619D01*
X68452380Y-50877619D02*
X68547618Y-50830000D01*
X68547618Y-50830000D02*
X68595237Y-50782380D01*
X68595237Y-50782380D02*
X68642856Y-50687142D01*
X68642856Y-50687142D02*
X68690475Y-50496666D01*
X68690475Y-50496666D02*
X68690475Y-50258571D01*
X68690475Y-50258571D02*
X68642856Y-50068095D01*
X68642856Y-50068095D02*
X68595237Y-49972857D01*
X68595237Y-49972857D02*
X68547618Y-49925238D01*
X68547618Y-49925238D02*
X68452380Y-49877619D01*
X67690475Y-50782380D02*
X67642856Y-50830000D01*
X67642856Y-50830000D02*
X67690475Y-50877619D01*
X67690475Y-50877619D02*
X67738094Y-50830000D01*
X67738094Y-50830000D02*
X67690475Y-50782380D01*
X67690475Y-50782380D02*
X67690475Y-50877619D01*
X67023809Y-49877619D02*
X66928571Y-49877619D01*
X66928571Y-49877619D02*
X66833333Y-49925238D01*
X66833333Y-49925238D02*
X66785714Y-49972857D01*
X66785714Y-49972857D02*
X66738095Y-50068095D01*
X66738095Y-50068095D02*
X66690476Y-50258571D01*
X66690476Y-50258571D02*
X66690476Y-50496666D01*
X66690476Y-50496666D02*
X66738095Y-50687142D01*
X66738095Y-50687142D02*
X66785714Y-50782380D01*
X66785714Y-50782380D02*
X66833333Y-50830000D01*
X66833333Y-50830000D02*
X66928571Y-50877619D01*
X66928571Y-50877619D02*
X67023809Y-50877619D01*
X67023809Y-50877619D02*
X67119047Y-50830000D01*
X67119047Y-50830000D02*
X67166666Y-50782380D01*
X67166666Y-50782380D02*
X67214285Y-50687142D01*
X67214285Y-50687142D02*
X67261904Y-50496666D01*
X67261904Y-50496666D02*
X67261904Y-50258571D01*
X67261904Y-50258571D02*
X67214285Y-50068095D01*
X67214285Y-50068095D02*
X67166666Y-49972857D01*
X67166666Y-49972857D02*
X67119047Y-49925238D01*
X67119047Y-49925238D02*
X67023809Y-49877619D01*
X90761904Y-54462619D02*
X90761904Y-55272142D01*
X90761904Y-55272142D02*
X90714285Y-55367380D01*
X90714285Y-55367380D02*
X90666666Y-55415000D01*
X90666666Y-55415000D02*
X90571428Y-55462619D01*
X90571428Y-55462619D02*
X90380952Y-55462619D01*
X90380952Y-55462619D02*
X90285714Y-55415000D01*
X90285714Y-55415000D02*
X90238095Y-55367380D01*
X90238095Y-55367380D02*
X90190476Y-55272142D01*
X90190476Y-55272142D02*
X90190476Y-54462619D01*
X89190476Y-55462619D02*
X89761904Y-55462619D01*
X89476190Y-55462619D02*
X89476190Y-54462619D01*
X89476190Y-54462619D02*
X89571428Y-54605476D01*
X89571428Y-54605476D02*
X89666666Y-54700714D01*
X89666666Y-54700714D02*
X89761904Y-54748333D01*
X88466666Y-65362619D02*
X88942856Y-65362619D01*
X88942856Y-65362619D02*
X88942856Y-64362619D01*
X87609523Y-65362619D02*
X88180951Y-65362619D01*
X87895237Y-65362619D02*
X87895237Y-64362619D01*
X87895237Y-64362619D02*
X87990475Y-64505476D01*
X87990475Y-64505476D02*
X88085713Y-64600714D01*
X88085713Y-64600714D02*
X88180951Y-64648333D01*
X92066666Y-61817380D02*
X92114285Y-61865000D01*
X92114285Y-61865000D02*
X92257142Y-61912619D01*
X92257142Y-61912619D02*
X92352380Y-61912619D01*
X92352380Y-61912619D02*
X92495237Y-61865000D01*
X92495237Y-61865000D02*
X92590475Y-61769761D01*
X92590475Y-61769761D02*
X92638094Y-61674523D01*
X92638094Y-61674523D02*
X92685713Y-61484047D01*
X92685713Y-61484047D02*
X92685713Y-61341190D01*
X92685713Y-61341190D02*
X92638094Y-61150714D01*
X92638094Y-61150714D02*
X92590475Y-61055476D01*
X92590475Y-61055476D02*
X92495237Y-60960238D01*
X92495237Y-60960238D02*
X92352380Y-60912619D01*
X92352380Y-60912619D02*
X92257142Y-60912619D01*
X92257142Y-60912619D02*
X92114285Y-60960238D01*
X92114285Y-60960238D02*
X92066666Y-61007857D01*
X91114285Y-61912619D02*
X91685713Y-61912619D01*
X91399999Y-61912619D02*
X91399999Y-60912619D01*
X91399999Y-60912619D02*
X91495237Y-61055476D01*
X91495237Y-61055476D02*
X91590475Y-61150714D01*
X91590475Y-61150714D02*
X91685713Y-61198333D01*
X101183333Y-71362619D02*
X101183333Y-72076904D01*
X101183333Y-72076904D02*
X101230952Y-72219761D01*
X101230952Y-72219761D02*
X101326190Y-72315000D01*
X101326190Y-72315000D02*
X101469047Y-72362619D01*
X101469047Y-72362619D02*
X101564285Y-72362619D01*
X100183333Y-72362619D02*
X100754761Y-72362619D01*
X100469047Y-72362619D02*
X100469047Y-71362619D01*
X100469047Y-71362619D02*
X100564285Y-71505476D01*
X100564285Y-71505476D02*
X100659523Y-71600714D01*
X100659523Y-71600714D02*
X100754761Y-71648333D01*
X83000702Y-72691666D02*
X82691178Y-72474999D01*
X83000702Y-72320237D02*
X82350702Y-72320237D01*
X82350702Y-72320237D02*
X82350702Y-72567856D01*
X82350702Y-72567856D02*
X82381654Y-72629761D01*
X82381654Y-72629761D02*
X82412607Y-72660714D01*
X82412607Y-72660714D02*
X82474511Y-72691666D01*
X82474511Y-72691666D02*
X82567369Y-72691666D01*
X82567369Y-72691666D02*
X82629273Y-72660714D01*
X82629273Y-72660714D02*
X82660226Y-72629761D01*
X82660226Y-72629761D02*
X82691178Y-72567856D01*
X82691178Y-72567856D02*
X82691178Y-72320237D01*
X82412607Y-72939285D02*
X82381654Y-72970237D01*
X82381654Y-72970237D02*
X82350702Y-73032142D01*
X82350702Y-73032142D02*
X82350702Y-73186904D01*
X82350702Y-73186904D02*
X82381654Y-73248809D01*
X82381654Y-73248809D02*
X82412607Y-73279761D01*
X82412607Y-73279761D02*
X82474511Y-73310714D01*
X82474511Y-73310714D02*
X82536416Y-73310714D01*
X82536416Y-73310714D02*
X82629273Y-73279761D01*
X82629273Y-73279761D02*
X83000702Y-72908333D01*
X83000702Y-72908333D02*
X83000702Y-73310714D01*
X101600702Y-52991666D02*
X101291178Y-52774999D01*
X101600702Y-52620237D02*
X100950702Y-52620237D01*
X100950702Y-52620237D02*
X100950702Y-52867856D01*
X100950702Y-52867856D02*
X100981654Y-52929761D01*
X100981654Y-52929761D02*
X101012607Y-52960714D01*
X101012607Y-52960714D02*
X101074511Y-52991666D01*
X101074511Y-52991666D02*
X101167369Y-52991666D01*
X101167369Y-52991666D02*
X101229273Y-52960714D01*
X101229273Y-52960714D02*
X101260226Y-52929761D01*
X101260226Y-52929761D02*
X101291178Y-52867856D01*
X101291178Y-52867856D02*
X101291178Y-52620237D01*
X101600702Y-53610714D02*
X101600702Y-53239285D01*
X101600702Y-53424999D02*
X100950702Y-53424999D01*
X100950702Y-53424999D02*
X101043559Y-53363095D01*
X101043559Y-53363095D02*
X101105464Y-53301190D01*
X101105464Y-53301190D02*
X101136416Y-53239285D01*
X88883333Y-73173833D02*
X88883333Y-73740500D01*
X88883333Y-73740500D02*
X88850000Y-73807166D01*
X88850000Y-73807166D02*
X88816666Y-73840500D01*
X88816666Y-73840500D02*
X88750000Y-73873833D01*
X88750000Y-73873833D02*
X88616666Y-73873833D01*
X88616666Y-73873833D02*
X88550000Y-73840500D01*
X88550000Y-73840500D02*
X88516666Y-73807166D01*
X88516666Y-73807166D02*
X88483333Y-73740500D01*
X88483333Y-73740500D02*
X88483333Y-73173833D01*
X88183333Y-73240500D02*
X88150000Y-73207166D01*
X88150000Y-73207166D02*
X88083333Y-73173833D01*
X88083333Y-73173833D02*
X87916667Y-73173833D01*
X87916667Y-73173833D02*
X87850000Y-73207166D01*
X87850000Y-73207166D02*
X87816667Y-73240500D01*
X87816667Y-73240500D02*
X87783333Y-73307166D01*
X87783333Y-73307166D02*
X87783333Y-73373833D01*
X87783333Y-73373833D02*
X87816667Y-73473833D01*
X87816667Y-73473833D02*
X88216667Y-73873833D01*
X88216667Y-73873833D02*
X87783333Y-73873833D01*
X96487380Y-57333333D02*
X96535000Y-57285714D01*
X96535000Y-57285714D02*
X96582619Y-57142857D01*
X96582619Y-57142857D02*
X96582619Y-57047619D01*
X96582619Y-57047619D02*
X96535000Y-56904762D01*
X96535000Y-56904762D02*
X96439761Y-56809524D01*
X96439761Y-56809524D02*
X96344523Y-56761905D01*
X96344523Y-56761905D02*
X96154047Y-56714286D01*
X96154047Y-56714286D02*
X96011190Y-56714286D01*
X96011190Y-56714286D02*
X95820714Y-56761905D01*
X95820714Y-56761905D02*
X95725476Y-56809524D01*
X95725476Y-56809524D02*
X95630238Y-56904762D01*
X95630238Y-56904762D02*
X95582619Y-57047619D01*
X95582619Y-57047619D02*
X95582619Y-57142857D01*
X95582619Y-57142857D02*
X95630238Y-57285714D01*
X95630238Y-57285714D02*
X95677857Y-57333333D01*
X95677857Y-57714286D02*
X95630238Y-57761905D01*
X95630238Y-57761905D02*
X95582619Y-57857143D01*
X95582619Y-57857143D02*
X95582619Y-58095238D01*
X95582619Y-58095238D02*
X95630238Y-58190476D01*
X95630238Y-58190476D02*
X95677857Y-58238095D01*
X95677857Y-58238095D02*
X95773095Y-58285714D01*
X95773095Y-58285714D02*
X95868333Y-58285714D01*
X95868333Y-58285714D02*
X96011190Y-58238095D01*
X96011190Y-58238095D02*
X96582619Y-57666667D01*
X96582619Y-57666667D02*
X96582619Y-58285714D01*
X83266666Y-67867380D02*
X83314285Y-67915000D01*
X83314285Y-67915000D02*
X83457142Y-67962619D01*
X83457142Y-67962619D02*
X83552380Y-67962619D01*
X83552380Y-67962619D02*
X83695237Y-67915000D01*
X83695237Y-67915000D02*
X83790475Y-67819761D01*
X83790475Y-67819761D02*
X83838094Y-67724523D01*
X83838094Y-67724523D02*
X83885713Y-67534047D01*
X83885713Y-67534047D02*
X83885713Y-67391190D01*
X83885713Y-67391190D02*
X83838094Y-67200714D01*
X83838094Y-67200714D02*
X83790475Y-67105476D01*
X83790475Y-67105476D02*
X83695237Y-67010238D01*
X83695237Y-67010238D02*
X83552380Y-66962619D01*
X83552380Y-66962619D02*
X83457142Y-66962619D01*
X83457142Y-66962619D02*
X83314285Y-67010238D01*
X83314285Y-67010238D02*
X83266666Y-67057857D01*
X82409523Y-67295952D02*
X82409523Y-67962619D01*
X82647618Y-66915000D02*
X82885713Y-67629285D01*
X82885713Y-67629285D02*
X82266666Y-67629285D01*
X92466666Y-73567380D02*
X92514285Y-73615000D01*
X92514285Y-73615000D02*
X92657142Y-73662619D01*
X92657142Y-73662619D02*
X92752380Y-73662619D01*
X92752380Y-73662619D02*
X92895237Y-73615000D01*
X92895237Y-73615000D02*
X92990475Y-73519761D01*
X92990475Y-73519761D02*
X93038094Y-73424523D01*
X93038094Y-73424523D02*
X93085713Y-73234047D01*
X93085713Y-73234047D02*
X93085713Y-73091190D01*
X93085713Y-73091190D02*
X93038094Y-72900714D01*
X93038094Y-72900714D02*
X92990475Y-72805476D01*
X92990475Y-72805476D02*
X92895237Y-72710238D01*
X92895237Y-72710238D02*
X92752380Y-72662619D01*
X92752380Y-72662619D02*
X92657142Y-72662619D01*
X92657142Y-72662619D02*
X92514285Y-72710238D01*
X92514285Y-72710238D02*
X92466666Y-72757857D01*
X92133332Y-72662619D02*
X91514285Y-72662619D01*
X91514285Y-72662619D02*
X91847618Y-73043571D01*
X91847618Y-73043571D02*
X91704761Y-73043571D01*
X91704761Y-73043571D02*
X91609523Y-73091190D01*
X91609523Y-73091190D02*
X91561904Y-73138809D01*
X91561904Y-73138809D02*
X91514285Y-73234047D01*
X91514285Y-73234047D02*
X91514285Y-73472142D01*
X91514285Y-73472142D02*
X91561904Y-73567380D01*
X91561904Y-73567380D02*
X91609523Y-73615000D01*
X91609523Y-73615000D02*
X91704761Y-73662619D01*
X91704761Y-73662619D02*
X91990475Y-73662619D01*
X91990475Y-73662619D02*
X92085713Y-73615000D01*
X92085713Y-73615000D02*
X92133332Y-73567380D01*
D12*
X94900000Y-50240000D02*
X92950000Y-50240000D01*
X94900000Y-50240000D02*
X96850000Y-50240000D01*
X94900000Y-55360000D02*
X91450000Y-55360000D01*
X94900000Y-55360000D02*
X96850000Y-55360000D01*
D13*
X86300000Y-68413500D02*
X89500000Y-68413500D01*
X89500000Y-65786500D02*
X86300000Y-65786500D01*
D12*
X91188748Y-58690000D02*
X92611252Y-58690000D01*
X91188748Y-60510000D02*
X92611252Y-60510000D01*
X100370000Y-65400000D02*
X100370000Y-70600000D01*
X99800000Y-65400000D02*
X100370000Y-65400000D01*
X97260000Y-65400000D02*
X98280000Y-65400000D01*
X94720000Y-65400000D02*
X95740000Y-65400000D01*
X92630000Y-65400000D02*
X93200000Y-65400000D01*
X92630000Y-65400000D02*
X92630000Y-70600000D01*
X99800000Y-70600000D02*
X100370000Y-70600000D01*
X97260000Y-70600000D02*
X98280000Y-70600000D01*
X94720000Y-70600000D02*
X95740000Y-70600000D01*
X93200000Y-70600000D02*
X93200000Y-71960000D01*
X92630000Y-70600000D02*
X93200000Y-70600000D01*
D11*
X83300000Y-71150000D02*
X83300000Y-72850000D01*
X84700000Y-72850000D02*
X84700000Y-71150000D01*
X100500000Y-53450000D02*
X100500000Y-51750000D01*
X99100000Y-51750000D02*
X99100000Y-53450000D01*
X87400000Y-73625000D02*
X85400000Y-73625000D01*
X86400000Y-70375000D02*
X85400000Y-70375000D01*
D12*
X98535000Y-57238748D02*
X98535000Y-57761252D01*
X97065000Y-57238748D02*
X97065000Y-57761252D01*
X83161252Y-70035000D02*
X82638748Y-70035000D01*
X83161252Y-68565000D02*
X82638748Y-68565000D01*
X89090000Y-71811252D02*
X89090000Y-70388748D01*
X90910000Y-71811252D02*
X90910000Y-70388748D01*
%LPC*%
D14*
X87350000Y-68200000D02*
X86150000Y-68200000D01*
X86150000Y-67700000D01*
X85050000Y-67700000D01*
X85050000Y-66500000D01*
X86150000Y-66500000D01*
X86150000Y-66000000D01*
X87350000Y-66000000D01*
X87350000Y-68200000D01*
G36*
X87350000Y-68200000D02*
G01*
X86150000Y-68200000D01*
X86150000Y-67700000D01*
X85050000Y-67700000D01*
X85050000Y-66500000D01*
X86150000Y-66500000D01*
X86150000Y-66000000D01*
X87350000Y-66000000D01*
X87350000Y-68200000D01*
G37*
X89650000Y-66500000D02*
X90750000Y-66500000D01*
X90750000Y-67700000D01*
X89650000Y-67700000D01*
X89650000Y-68200000D01*
X88450000Y-68200000D01*
X88450000Y-66000000D01*
X89650000Y-66000000D01*
X89650000Y-66500000D01*
G36*
X89650000Y-66500000D02*
G01*
X90750000Y-66500000D01*
X90750000Y-67700000D01*
X89650000Y-67700000D01*
X89650000Y-68200000D01*
X88450000Y-68200000D01*
X88450000Y-66000000D01*
X89650000Y-66000000D01*
X89650000Y-66500000D01*
G37*
G36*
G01*
X91450000Y-54855000D02*
X91450000Y-54555000D01*
G75*
G02*
X91600000Y-54405000I150000J0D01*
G01*
X93250000Y-54405000D01*
G75*
G02*
X93400000Y-54555000I0J-150000D01*
G01*
X93400000Y-54855000D01*
G75*
G02*
X93250000Y-55005000I-150000J0D01*
G01*
X91600000Y-55005000D01*
G75*
G02*
X91450000Y-54855000I0J150000D01*
G01*
G37*
G36*
G01*
X91450000Y-53585000D02*
X91450000Y-53285000D01*
G75*
G02*
X91600000Y-53135000I150000J0D01*
G01*
X93250000Y-53135000D01*
G75*
G02*
X93400000Y-53285000I0J-150000D01*
G01*
X93400000Y-53585000D01*
G75*
G02*
X93250000Y-53735000I-150000J0D01*
G01*
X91600000Y-53735000D01*
G75*
G02*
X91450000Y-53585000I0J150000D01*
G01*
G37*
G36*
G01*
X91450000Y-52315000D02*
X91450000Y-52015000D01*
G75*
G02*
X91600000Y-51865000I150000J0D01*
G01*
X93250000Y-51865000D01*
G75*
G02*
X93400000Y-52015000I0J-150000D01*
G01*
X93400000Y-52315000D01*
G75*
G02*
X93250000Y-52465000I-150000J0D01*
G01*
X91600000Y-52465000D01*
G75*
G02*
X91450000Y-52315000I0J150000D01*
G01*
G37*
G36*
G01*
X91450000Y-51045000D02*
X91450000Y-50745000D01*
G75*
G02*
X91600000Y-50595000I150000J0D01*
G01*
X93250000Y-50595000D01*
G75*
G02*
X93400000Y-50745000I0J-150000D01*
G01*
X93400000Y-51045000D01*
G75*
G02*
X93250000Y-51195000I-150000J0D01*
G01*
X91600000Y-51195000D01*
G75*
G02*
X91450000Y-51045000I0J150000D01*
G01*
G37*
G36*
G01*
X96400000Y-51045000D02*
X96400000Y-50745000D01*
G75*
G02*
X96550000Y-50595000I150000J0D01*
G01*
X98200000Y-50595000D01*
G75*
G02*
X98350000Y-50745000I0J-150000D01*
G01*
X98350000Y-51045000D01*
G75*
G02*
X98200000Y-51195000I-150000J0D01*
G01*
X96550000Y-51195000D01*
G75*
G02*
X96400000Y-51045000I0J150000D01*
G01*
G37*
G36*
G01*
X96400000Y-52315000D02*
X96400000Y-52015000D01*
G75*
G02*
X96550000Y-51865000I150000J0D01*
G01*
X98200000Y-51865000D01*
G75*
G02*
X98350000Y-52015000I0J-150000D01*
G01*
X98350000Y-52315000D01*
G75*
G02*
X98200000Y-52465000I-150000J0D01*
G01*
X96550000Y-52465000D01*
G75*
G02*
X96400000Y-52315000I0J150000D01*
G01*
G37*
G36*
G01*
X96400000Y-53585000D02*
X96400000Y-53285000D01*
G75*
G02*
X96550000Y-53135000I150000J0D01*
G01*
X98200000Y-53135000D01*
G75*
G02*
X98350000Y-53285000I0J-150000D01*
G01*
X98350000Y-53585000D01*
G75*
G02*
X98200000Y-53735000I-150000J0D01*
G01*
X96550000Y-53735000D01*
G75*
G02*
X96400000Y-53585000I0J150000D01*
G01*
G37*
G36*
G01*
X96400000Y-54855000D02*
X96400000Y-54555000D01*
G75*
G02*
X96550000Y-54405000I150000J0D01*
G01*
X98200000Y-54405000D01*
G75*
G02*
X98350000Y-54555000I0J-150000D01*
G01*
X98350000Y-54855000D01*
G75*
G02*
X98200000Y-55005000I-150000J0D01*
G01*
X96550000Y-55005000D01*
G75*
G02*
X96400000Y-54855000I0J150000D01*
G01*
G37*
G36*
G01*
X89675000Y-60250000D02*
X89675000Y-58950000D01*
G75*
G02*
X89925000Y-58700000I250000J0D01*
G01*
X90750000Y-58700000D01*
G75*
G02*
X91000000Y-58950000I0J-250000D01*
G01*
X91000000Y-60250000D01*
G75*
G02*
X90750000Y-60500000I-250000J0D01*
G01*
X89925000Y-60500000D01*
G75*
G02*
X89675000Y-60250000I0J250000D01*
G01*
G37*
G36*
G01*
X92800000Y-60250000D02*
X92800000Y-58950000D01*
G75*
G02*
X93050000Y-58700000I250000J0D01*
G01*
X93875000Y-58700000D01*
G75*
G02*
X94125000Y-58950000I0J-250000D01*
G01*
X94125000Y-60250000D01*
G75*
G02*
X93875000Y-60500000I-250000J0D01*
G01*
X93050000Y-60500000D01*
G75*
G02*
X92800000Y-60250000I0J250000D01*
G01*
G37*
D15*
X93960000Y-70520000D03*
X93960000Y-65480000D03*
X96500000Y-70520000D03*
X96500000Y-65480000D03*
X99040000Y-70520000D03*
X99040000Y-65480000D03*
D16*
X84000000Y-71150000D03*
X84000000Y-72850000D03*
X99800000Y-53450000D03*
X99800000Y-51750000D03*
D17*
X87325000Y-71250000D03*
X87325000Y-71750000D03*
X87325000Y-72250000D03*
X87325000Y-72750000D03*
X85475000Y-72750000D03*
X85475000Y-72250000D03*
X85475000Y-71750000D03*
X85475000Y-71250000D03*
D18*
X86400000Y-72000000D03*
G36*
G01*
X97325000Y-55875000D02*
X98275000Y-55875000D01*
G75*
G02*
X98525000Y-56125000I0J-250000D01*
G01*
X98525000Y-56800000D01*
G75*
G02*
X98275000Y-57050000I-250000J0D01*
G01*
X97325000Y-57050000D01*
G75*
G02*
X97075000Y-56800000I0J250000D01*
G01*
X97075000Y-56125000D01*
G75*
G02*
X97325000Y-55875000I250000J0D01*
G01*
G37*
G36*
G01*
X97325000Y-57950000D02*
X98275000Y-57950000D01*
G75*
G02*
X98525000Y-58200000I0J-250000D01*
G01*
X98525000Y-58875000D01*
G75*
G02*
X98275000Y-59125000I-250000J0D01*
G01*
X97325000Y-59125000D01*
G75*
G02*
X97075000Y-58875000I0J250000D01*
G01*
X97075000Y-58200000D01*
G75*
G02*
X97325000Y-57950000I250000J0D01*
G01*
G37*
G36*
G01*
X84525000Y-68825000D02*
X84525000Y-69775000D01*
G75*
G02*
X84275000Y-70025000I-250000J0D01*
G01*
X83600000Y-70025000D01*
G75*
G02*
X83350000Y-69775000I0J250000D01*
G01*
X83350000Y-68825000D01*
G75*
G02*
X83600000Y-68575000I250000J0D01*
G01*
X84275000Y-68575000D01*
G75*
G02*
X84525000Y-68825000I0J-250000D01*
G01*
G37*
G36*
G01*
X82450000Y-68825000D02*
X82450000Y-69775000D01*
G75*
G02*
X82200000Y-70025000I-250000J0D01*
G01*
X81525000Y-70025000D01*
G75*
G02*
X81275000Y-69775000I0J250000D01*
G01*
X81275000Y-68825000D01*
G75*
G02*
X81525000Y-68575000I250000J0D01*
G01*
X82200000Y-68575000D01*
G75*
G02*
X82450000Y-68825000I0J-250000D01*
G01*
G37*
G36*
G01*
X90650000Y-73325000D02*
X89350000Y-73325000D01*
G75*
G02*
X89100000Y-73075000I0J250000D01*
G01*
X89100000Y-72250000D01*
G75*
G02*
X89350000Y-72000000I250000J0D01*
G01*
X90650000Y-72000000D01*
G75*
G02*
X90900000Y-72250000I0J-250000D01*
G01*
X90900000Y-73075000D01*
G75*
G02*
X90650000Y-73325000I-250000J0D01*
G01*
G37*
G36*
G01*
X90650000Y-70200000D02*
X89350000Y-70200000D01*
G75*
G02*
X89100000Y-69950000I0J250000D01*
G01*
X89100000Y-69125000D01*
G75*
G02*
X89350000Y-68875000I250000J0D01*
G01*
X90650000Y-68875000D01*
G75*
G02*
X90900000Y-69125000I0J-250000D01*
G01*
X90900000Y-69950000D01*
G75*
G02*
X90650000Y-70200000I-250000J0D01*
G01*
G37*
%LPD*%
M02*
