G04 #@! TF.GenerationSoftware,KiCad,Pcbnew,7.0.5.1-1-g8f565ef7f0-dirty-deb11*
G04 #@! TF.CreationDate,2023-06-02T11:31:37+00:00*
G04 #@! TF.ProjectId,pedalboard-led-ring,70656461-6c62-46f6-9172-642d6c65642d,1.0.0*
G04 #@! TF.SameCoordinates,Original*
G04 #@! TF.FileFunction,Legend,Bot*
G04 #@! TF.FilePolarity,Positive*
%FSLAX46Y46*%
G04 Gerber Fmt 4.6, Leading zero omitted, Abs format (unit mm)*
G04 Created by KiCad (PCBNEW 7.0.5.1-1-g8f565ef7f0-dirty-deb11) date 2023-06-02 11:31:37*
%MOMM*%
%LPD*%
G01*
G04 APERTURE LIST*
%ADD10C,0.100000*%
%ADD11C,0.125000*%
%ADD12C,0.150000*%
%ADD13C,0.120000*%
%ADD14R,1.000000X2.750000*%
G04 APERTURE END LIST*
D10*
X87050000Y-60000000D02*
G75*
G03*
X87050000Y-60000000I-7050000J0D01*
G01*
D11*
X81892855Y-73332309D02*
X81892855Y-72832309D01*
X81892855Y-72832309D02*
X81702379Y-72832309D01*
X81702379Y-72832309D02*
X81654760Y-72856119D01*
X81654760Y-72856119D02*
X81630950Y-72879928D01*
X81630950Y-72879928D02*
X81607141Y-72927547D01*
X81607141Y-72927547D02*
X81607141Y-72998976D01*
X81607141Y-72998976D02*
X81630950Y-73046595D01*
X81630950Y-73046595D02*
X81654760Y-73070404D01*
X81654760Y-73070404D02*
X81702379Y-73094214D01*
X81702379Y-73094214D02*
X81892855Y-73094214D01*
X81107141Y-73284690D02*
X81130950Y-73308500D01*
X81130950Y-73308500D02*
X81202379Y-73332309D01*
X81202379Y-73332309D02*
X81249998Y-73332309D01*
X81249998Y-73332309D02*
X81321426Y-73308500D01*
X81321426Y-73308500D02*
X81369045Y-73260880D01*
X81369045Y-73260880D02*
X81392855Y-73213261D01*
X81392855Y-73213261D02*
X81416664Y-73118023D01*
X81416664Y-73118023D02*
X81416664Y-73046595D01*
X81416664Y-73046595D02*
X81392855Y-72951357D01*
X81392855Y-72951357D02*
X81369045Y-72903738D01*
X81369045Y-72903738D02*
X81321426Y-72856119D01*
X81321426Y-72856119D02*
X81249998Y-72832309D01*
X81249998Y-72832309D02*
X81202379Y-72832309D01*
X81202379Y-72832309D02*
X81130950Y-72856119D01*
X81130950Y-72856119D02*
X81107141Y-72879928D01*
X80726188Y-73070404D02*
X80654760Y-73094214D01*
X80654760Y-73094214D02*
X80630950Y-73118023D01*
X80630950Y-73118023D02*
X80607141Y-73165642D01*
X80607141Y-73165642D02*
X80607141Y-73237071D01*
X80607141Y-73237071D02*
X80630950Y-73284690D01*
X80630950Y-73284690D02*
X80654760Y-73308500D01*
X80654760Y-73308500D02*
X80702379Y-73332309D01*
X80702379Y-73332309D02*
X80892855Y-73332309D01*
X80892855Y-73332309D02*
X80892855Y-72832309D01*
X80892855Y-72832309D02*
X80726188Y-72832309D01*
X80726188Y-72832309D02*
X80678569Y-72856119D01*
X80678569Y-72856119D02*
X80654760Y-72879928D01*
X80654760Y-72879928D02*
X80630950Y-72927547D01*
X80630950Y-72927547D02*
X80630950Y-72975166D01*
X80630950Y-72975166D02*
X80654760Y-73022785D01*
X80654760Y-73022785D02*
X80678569Y-73046595D01*
X80678569Y-73046595D02*
X80726188Y-73070404D01*
X80726188Y-73070404D02*
X80892855Y-73070404D01*
X80392855Y-73284690D02*
X80369045Y-73308500D01*
X80369045Y-73308500D02*
X80392855Y-73332309D01*
X80392855Y-73332309D02*
X80416664Y-73308500D01*
X80416664Y-73308500D02*
X80392855Y-73284690D01*
X80392855Y-73284690D02*
X80392855Y-73332309D01*
X80392855Y-73022785D02*
X80369045Y-73046595D01*
X80369045Y-73046595D02*
X80392855Y-73070404D01*
X80392855Y-73070404D02*
X80416664Y-73046595D01*
X80416664Y-73046595D02*
X80392855Y-73022785D01*
X80392855Y-73022785D02*
X80392855Y-73070404D01*
X79511903Y-73332309D02*
X79797617Y-73332309D01*
X79654760Y-73332309D02*
X79654760Y-72832309D01*
X79654760Y-72832309D02*
X79702379Y-72903738D01*
X79702379Y-72903738D02*
X79749998Y-72951357D01*
X79749998Y-72951357D02*
X79797617Y-72975166D01*
X79297618Y-73284690D02*
X79273808Y-73308500D01*
X79273808Y-73308500D02*
X79297618Y-73332309D01*
X79297618Y-73332309D02*
X79321427Y-73308500D01*
X79321427Y-73308500D02*
X79297618Y-73284690D01*
X79297618Y-73284690D02*
X79297618Y-73332309D01*
X78964285Y-72832309D02*
X78916666Y-72832309D01*
X78916666Y-72832309D02*
X78869047Y-72856119D01*
X78869047Y-72856119D02*
X78845237Y-72879928D01*
X78845237Y-72879928D02*
X78821428Y-72927547D01*
X78821428Y-72927547D02*
X78797618Y-73022785D01*
X78797618Y-73022785D02*
X78797618Y-73141833D01*
X78797618Y-73141833D02*
X78821428Y-73237071D01*
X78821428Y-73237071D02*
X78845237Y-73284690D01*
X78845237Y-73284690D02*
X78869047Y-73308500D01*
X78869047Y-73308500D02*
X78916666Y-73332309D01*
X78916666Y-73332309D02*
X78964285Y-73332309D01*
X78964285Y-73332309D02*
X79011904Y-73308500D01*
X79011904Y-73308500D02*
X79035713Y-73284690D01*
X79035713Y-73284690D02*
X79059523Y-73237071D01*
X79059523Y-73237071D02*
X79083332Y-73141833D01*
X79083332Y-73141833D02*
X79083332Y-73022785D01*
X79083332Y-73022785D02*
X79059523Y-72927547D01*
X79059523Y-72927547D02*
X79035713Y-72879928D01*
X79035713Y-72879928D02*
X79011904Y-72856119D01*
X79011904Y-72856119D02*
X78964285Y-72832309D01*
X78583333Y-73284690D02*
X78559523Y-73308500D01*
X78559523Y-73308500D02*
X78583333Y-73332309D01*
X78583333Y-73332309D02*
X78607142Y-73308500D01*
X78607142Y-73308500D02*
X78583333Y-73284690D01*
X78583333Y-73284690D02*
X78583333Y-73332309D01*
X78250000Y-72832309D02*
X78202381Y-72832309D01*
X78202381Y-72832309D02*
X78154762Y-72856119D01*
X78154762Y-72856119D02*
X78130952Y-72879928D01*
X78130952Y-72879928D02*
X78107143Y-72927547D01*
X78107143Y-72927547D02*
X78083333Y-73022785D01*
X78083333Y-73022785D02*
X78083333Y-73141833D01*
X78083333Y-73141833D02*
X78107143Y-73237071D01*
X78107143Y-73237071D02*
X78130952Y-73284690D01*
X78130952Y-73284690D02*
X78154762Y-73308500D01*
X78154762Y-73308500D02*
X78202381Y-73332309D01*
X78202381Y-73332309D02*
X78250000Y-73332309D01*
X78250000Y-73332309D02*
X78297619Y-73308500D01*
X78297619Y-73308500D02*
X78321428Y-73284690D01*
X78321428Y-73284690D02*
X78345238Y-73237071D01*
X78345238Y-73237071D02*
X78369047Y-73141833D01*
X78369047Y-73141833D02*
X78369047Y-73022785D01*
X78369047Y-73022785D02*
X78345238Y-72927547D01*
X78345238Y-72927547D02*
X78321428Y-72879928D01*
X78321428Y-72879928D02*
X78297619Y-72856119D01*
X78297619Y-72856119D02*
X78250000Y-72832309D01*
D12*
X85603569Y-47092914D02*
X85603569Y-46342914D01*
X85603569Y-46342914D02*
X85317855Y-46342914D01*
X85317855Y-46342914D02*
X85246426Y-46378628D01*
X85246426Y-46378628D02*
X85210712Y-46414342D01*
X85210712Y-46414342D02*
X85174998Y-46485771D01*
X85174998Y-46485771D02*
X85174998Y-46592914D01*
X85174998Y-46592914D02*
X85210712Y-46664342D01*
X85210712Y-46664342D02*
X85246426Y-46700057D01*
X85246426Y-46700057D02*
X85317855Y-46735771D01*
X85317855Y-46735771D02*
X85603569Y-46735771D01*
X84567855Y-47057200D02*
X84639283Y-47092914D01*
X84639283Y-47092914D02*
X84782141Y-47092914D01*
X84782141Y-47092914D02*
X84853569Y-47057200D01*
X84853569Y-47057200D02*
X84889283Y-46985771D01*
X84889283Y-46985771D02*
X84889283Y-46700057D01*
X84889283Y-46700057D02*
X84853569Y-46628628D01*
X84853569Y-46628628D02*
X84782141Y-46592914D01*
X84782141Y-46592914D02*
X84639283Y-46592914D01*
X84639283Y-46592914D02*
X84567855Y-46628628D01*
X84567855Y-46628628D02*
X84532141Y-46700057D01*
X84532141Y-46700057D02*
X84532141Y-46771485D01*
X84532141Y-46771485D02*
X84889283Y-46842914D01*
X83889284Y-47092914D02*
X83889284Y-46342914D01*
X83889284Y-47057200D02*
X83960712Y-47092914D01*
X83960712Y-47092914D02*
X84103569Y-47092914D01*
X84103569Y-47092914D02*
X84174998Y-47057200D01*
X84174998Y-47057200D02*
X84210712Y-47021485D01*
X84210712Y-47021485D02*
X84246426Y-46950057D01*
X84246426Y-46950057D02*
X84246426Y-46735771D01*
X84246426Y-46735771D02*
X84210712Y-46664342D01*
X84210712Y-46664342D02*
X84174998Y-46628628D01*
X84174998Y-46628628D02*
X84103569Y-46592914D01*
X84103569Y-46592914D02*
X83960712Y-46592914D01*
X83960712Y-46592914D02*
X83889284Y-46628628D01*
X83210713Y-47092914D02*
X83210713Y-46700057D01*
X83210713Y-46700057D02*
X83246427Y-46628628D01*
X83246427Y-46628628D02*
X83317855Y-46592914D01*
X83317855Y-46592914D02*
X83460713Y-46592914D01*
X83460713Y-46592914D02*
X83532141Y-46628628D01*
X83210713Y-47057200D02*
X83282141Y-47092914D01*
X83282141Y-47092914D02*
X83460713Y-47092914D01*
X83460713Y-47092914D02*
X83532141Y-47057200D01*
X83532141Y-47057200D02*
X83567855Y-46985771D01*
X83567855Y-46985771D02*
X83567855Y-46914342D01*
X83567855Y-46914342D02*
X83532141Y-46842914D01*
X83532141Y-46842914D02*
X83460713Y-46807200D01*
X83460713Y-46807200D02*
X83282141Y-46807200D01*
X83282141Y-46807200D02*
X83210713Y-46771485D01*
X82746427Y-47092914D02*
X82817856Y-47057200D01*
X82817856Y-47057200D02*
X82853570Y-46985771D01*
X82853570Y-46985771D02*
X82853570Y-46342914D01*
X82460713Y-47092914D02*
X82460713Y-46342914D01*
X82460713Y-46628628D02*
X82389285Y-46592914D01*
X82389285Y-46592914D02*
X82246427Y-46592914D01*
X82246427Y-46592914D02*
X82174999Y-46628628D01*
X82174999Y-46628628D02*
X82139285Y-46664342D01*
X82139285Y-46664342D02*
X82103570Y-46735771D01*
X82103570Y-46735771D02*
X82103570Y-46950057D01*
X82103570Y-46950057D02*
X82139285Y-47021485D01*
X82139285Y-47021485D02*
X82174999Y-47057200D01*
X82174999Y-47057200D02*
X82246427Y-47092914D01*
X82246427Y-47092914D02*
X82389285Y-47092914D01*
X82389285Y-47092914D02*
X82460713Y-47057200D01*
X81674999Y-47092914D02*
X81746428Y-47057200D01*
X81746428Y-47057200D02*
X81782142Y-47021485D01*
X81782142Y-47021485D02*
X81817856Y-46950057D01*
X81817856Y-46950057D02*
X81817856Y-46735771D01*
X81817856Y-46735771D02*
X81782142Y-46664342D01*
X81782142Y-46664342D02*
X81746428Y-46628628D01*
X81746428Y-46628628D02*
X81674999Y-46592914D01*
X81674999Y-46592914D02*
X81567856Y-46592914D01*
X81567856Y-46592914D02*
X81496428Y-46628628D01*
X81496428Y-46628628D02*
X81460714Y-46664342D01*
X81460714Y-46664342D02*
X81424999Y-46735771D01*
X81424999Y-46735771D02*
X81424999Y-46950057D01*
X81424999Y-46950057D02*
X81460714Y-47021485D01*
X81460714Y-47021485D02*
X81496428Y-47057200D01*
X81496428Y-47057200D02*
X81567856Y-47092914D01*
X81567856Y-47092914D02*
X81674999Y-47092914D01*
X80782143Y-47092914D02*
X80782143Y-46700057D01*
X80782143Y-46700057D02*
X80817857Y-46628628D01*
X80817857Y-46628628D02*
X80889285Y-46592914D01*
X80889285Y-46592914D02*
X81032143Y-46592914D01*
X81032143Y-46592914D02*
X81103571Y-46628628D01*
X80782143Y-47057200D02*
X80853571Y-47092914D01*
X80853571Y-47092914D02*
X81032143Y-47092914D01*
X81032143Y-47092914D02*
X81103571Y-47057200D01*
X81103571Y-47057200D02*
X81139285Y-46985771D01*
X81139285Y-46985771D02*
X81139285Y-46914342D01*
X81139285Y-46914342D02*
X81103571Y-46842914D01*
X81103571Y-46842914D02*
X81032143Y-46807200D01*
X81032143Y-46807200D02*
X80853571Y-46807200D01*
X80853571Y-46807200D02*
X80782143Y-46771485D01*
X80425000Y-47092914D02*
X80425000Y-46592914D01*
X80425000Y-46735771D02*
X80389286Y-46664342D01*
X80389286Y-46664342D02*
X80353572Y-46628628D01*
X80353572Y-46628628D02*
X80282143Y-46592914D01*
X80282143Y-46592914D02*
X80210714Y-46592914D01*
X79639286Y-47092914D02*
X79639286Y-46342914D01*
X79639286Y-47057200D02*
X79710714Y-47092914D01*
X79710714Y-47092914D02*
X79853571Y-47092914D01*
X79853571Y-47092914D02*
X79925000Y-47057200D01*
X79925000Y-47057200D02*
X79960714Y-47021485D01*
X79960714Y-47021485D02*
X79996428Y-46950057D01*
X79996428Y-46950057D02*
X79996428Y-46735771D01*
X79996428Y-46735771D02*
X79960714Y-46664342D01*
X79960714Y-46664342D02*
X79925000Y-46628628D01*
X79925000Y-46628628D02*
X79853571Y-46592914D01*
X79853571Y-46592914D02*
X79710714Y-46592914D01*
X79710714Y-46592914D02*
X79639286Y-46628628D01*
X78353571Y-47092914D02*
X78710714Y-47092914D01*
X78710714Y-47092914D02*
X78710714Y-46342914D01*
X78103571Y-46700057D02*
X77853571Y-46700057D01*
X77746428Y-47092914D02*
X78103571Y-47092914D01*
X78103571Y-47092914D02*
X78103571Y-46342914D01*
X78103571Y-46342914D02*
X77746428Y-46342914D01*
X77425000Y-47092914D02*
X77425000Y-46342914D01*
X77425000Y-46342914D02*
X77246429Y-46342914D01*
X77246429Y-46342914D02*
X77139286Y-46378628D01*
X77139286Y-46378628D02*
X77067857Y-46450057D01*
X77067857Y-46450057D02*
X77032143Y-46521485D01*
X77032143Y-46521485D02*
X76996429Y-46664342D01*
X76996429Y-46664342D02*
X76996429Y-46771485D01*
X76996429Y-46771485D02*
X77032143Y-46914342D01*
X77032143Y-46914342D02*
X77067857Y-46985771D01*
X77067857Y-46985771D02*
X77139286Y-47057200D01*
X77139286Y-47057200D02*
X77246429Y-47092914D01*
X77246429Y-47092914D02*
X77425000Y-47092914D01*
X75675000Y-47092914D02*
X75925000Y-46735771D01*
X76103571Y-47092914D02*
X76103571Y-46342914D01*
X76103571Y-46342914D02*
X75817857Y-46342914D01*
X75817857Y-46342914D02*
X75746428Y-46378628D01*
X75746428Y-46378628D02*
X75710714Y-46414342D01*
X75710714Y-46414342D02*
X75675000Y-46485771D01*
X75675000Y-46485771D02*
X75675000Y-46592914D01*
X75675000Y-46592914D02*
X75710714Y-46664342D01*
X75710714Y-46664342D02*
X75746428Y-46700057D01*
X75746428Y-46700057D02*
X75817857Y-46735771D01*
X75817857Y-46735771D02*
X76103571Y-46735771D01*
X75353571Y-47092914D02*
X75353571Y-46592914D01*
X75353571Y-46342914D02*
X75389285Y-46378628D01*
X75389285Y-46378628D02*
X75353571Y-46414342D01*
X75353571Y-46414342D02*
X75317857Y-46378628D01*
X75317857Y-46378628D02*
X75353571Y-46342914D01*
X75353571Y-46342914D02*
X75353571Y-46414342D01*
X74996428Y-46592914D02*
X74996428Y-47092914D01*
X74996428Y-46664342D02*
X74960714Y-46628628D01*
X74960714Y-46628628D02*
X74889285Y-46592914D01*
X74889285Y-46592914D02*
X74782142Y-46592914D01*
X74782142Y-46592914D02*
X74710714Y-46628628D01*
X74710714Y-46628628D02*
X74675000Y-46700057D01*
X74675000Y-46700057D02*
X74675000Y-47092914D01*
X73996429Y-46592914D02*
X73996429Y-47200057D01*
X73996429Y-47200057D02*
X74032143Y-47271485D01*
X74032143Y-47271485D02*
X74067857Y-47307200D01*
X74067857Y-47307200D02*
X74139286Y-47342914D01*
X74139286Y-47342914D02*
X74246429Y-47342914D01*
X74246429Y-47342914D02*
X74317857Y-47307200D01*
X73996429Y-47057200D02*
X74067857Y-47092914D01*
X74067857Y-47092914D02*
X74210714Y-47092914D01*
X74210714Y-47092914D02*
X74282143Y-47057200D01*
X74282143Y-47057200D02*
X74317857Y-47021485D01*
X74317857Y-47021485D02*
X74353571Y-46950057D01*
X74353571Y-46950057D02*
X74353571Y-46735771D01*
X74353571Y-46735771D02*
X74317857Y-46664342D01*
X74317857Y-46664342D02*
X74282143Y-46628628D01*
X74282143Y-46628628D02*
X74210714Y-46592914D01*
X74210714Y-46592914D02*
X74067857Y-46592914D01*
X74067857Y-46592914D02*
X73996429Y-46628628D01*
X88603567Y-48300414D02*
X88603567Y-47550414D01*
X88282139Y-48300414D02*
X88282139Y-47907557D01*
X88282139Y-47907557D02*
X88317853Y-47836128D01*
X88317853Y-47836128D02*
X88389281Y-47800414D01*
X88389281Y-47800414D02*
X88496424Y-47800414D01*
X88496424Y-47800414D02*
X88567853Y-47836128D01*
X88567853Y-47836128D02*
X88603567Y-47871842D01*
X88032139Y-47800414D02*
X87746425Y-47800414D01*
X87924996Y-47550414D02*
X87924996Y-48193271D01*
X87924996Y-48193271D02*
X87889282Y-48264700D01*
X87889282Y-48264700D02*
X87817853Y-48300414D01*
X87817853Y-48300414D02*
X87746425Y-48300414D01*
X87603568Y-47800414D02*
X87317854Y-47800414D01*
X87496425Y-47550414D02*
X87496425Y-48193271D01*
X87496425Y-48193271D02*
X87460711Y-48264700D01*
X87460711Y-48264700D02*
X87389282Y-48300414D01*
X87389282Y-48300414D02*
X87317854Y-48300414D01*
X87067854Y-47800414D02*
X87067854Y-48550414D01*
X87067854Y-47836128D02*
X86996426Y-47800414D01*
X86996426Y-47800414D02*
X86853568Y-47800414D01*
X86853568Y-47800414D02*
X86782140Y-47836128D01*
X86782140Y-47836128D02*
X86746426Y-47871842D01*
X86746426Y-47871842D02*
X86710711Y-47943271D01*
X86710711Y-47943271D02*
X86710711Y-48157557D01*
X86710711Y-48157557D02*
X86746426Y-48228985D01*
X86746426Y-48228985D02*
X86782140Y-48264700D01*
X86782140Y-48264700D02*
X86853568Y-48300414D01*
X86853568Y-48300414D02*
X86996426Y-48300414D01*
X86996426Y-48300414D02*
X87067854Y-48264700D01*
X86424997Y-48264700D02*
X86353569Y-48300414D01*
X86353569Y-48300414D02*
X86210712Y-48300414D01*
X86210712Y-48300414D02*
X86139283Y-48264700D01*
X86139283Y-48264700D02*
X86103569Y-48193271D01*
X86103569Y-48193271D02*
X86103569Y-48157557D01*
X86103569Y-48157557D02*
X86139283Y-48086128D01*
X86139283Y-48086128D02*
X86210712Y-48050414D01*
X86210712Y-48050414D02*
X86317855Y-48050414D01*
X86317855Y-48050414D02*
X86389283Y-48014700D01*
X86389283Y-48014700D02*
X86424997Y-47943271D01*
X86424997Y-47943271D02*
X86424997Y-47907557D01*
X86424997Y-47907557D02*
X86389283Y-47836128D01*
X86389283Y-47836128D02*
X86317855Y-47800414D01*
X86317855Y-47800414D02*
X86210712Y-47800414D01*
X86210712Y-47800414D02*
X86139283Y-47836128D01*
X85782140Y-48228985D02*
X85746426Y-48264700D01*
X85746426Y-48264700D02*
X85782140Y-48300414D01*
X85782140Y-48300414D02*
X85817854Y-48264700D01*
X85817854Y-48264700D02*
X85782140Y-48228985D01*
X85782140Y-48228985D02*
X85782140Y-48300414D01*
X85782140Y-47836128D02*
X85746426Y-47871842D01*
X85746426Y-47871842D02*
X85782140Y-47907557D01*
X85782140Y-47907557D02*
X85817854Y-47871842D01*
X85817854Y-47871842D02*
X85782140Y-47836128D01*
X85782140Y-47836128D02*
X85782140Y-47907557D01*
X84889283Y-47514700D02*
X85532140Y-48478985D01*
X84103569Y-47514700D02*
X84746426Y-48478985D01*
X83532141Y-47800414D02*
X83532141Y-48407557D01*
X83532141Y-48407557D02*
X83567855Y-48478985D01*
X83567855Y-48478985D02*
X83603569Y-48514700D01*
X83603569Y-48514700D02*
X83674998Y-48550414D01*
X83674998Y-48550414D02*
X83782141Y-48550414D01*
X83782141Y-48550414D02*
X83853569Y-48514700D01*
X83532141Y-48264700D02*
X83603569Y-48300414D01*
X83603569Y-48300414D02*
X83746426Y-48300414D01*
X83746426Y-48300414D02*
X83817855Y-48264700D01*
X83817855Y-48264700D02*
X83853569Y-48228985D01*
X83853569Y-48228985D02*
X83889283Y-48157557D01*
X83889283Y-48157557D02*
X83889283Y-47943271D01*
X83889283Y-47943271D02*
X83853569Y-47871842D01*
X83853569Y-47871842D02*
X83817855Y-47836128D01*
X83817855Y-47836128D02*
X83746426Y-47800414D01*
X83746426Y-47800414D02*
X83603569Y-47800414D01*
X83603569Y-47800414D02*
X83532141Y-47836128D01*
X83174998Y-48300414D02*
X83174998Y-47800414D01*
X83174998Y-47550414D02*
X83210712Y-47586128D01*
X83210712Y-47586128D02*
X83174998Y-47621842D01*
X83174998Y-47621842D02*
X83139284Y-47586128D01*
X83139284Y-47586128D02*
X83174998Y-47550414D01*
X83174998Y-47550414D02*
X83174998Y-47621842D01*
X82924998Y-47800414D02*
X82639284Y-47800414D01*
X82817855Y-47550414D02*
X82817855Y-48193271D01*
X82817855Y-48193271D02*
X82782141Y-48264700D01*
X82782141Y-48264700D02*
X82710712Y-48300414D01*
X82710712Y-48300414D02*
X82639284Y-48300414D01*
X82389284Y-48300414D02*
X82389284Y-47550414D01*
X82067856Y-48300414D02*
X82067856Y-47907557D01*
X82067856Y-47907557D02*
X82103570Y-47836128D01*
X82103570Y-47836128D02*
X82174998Y-47800414D01*
X82174998Y-47800414D02*
X82282141Y-47800414D01*
X82282141Y-47800414D02*
X82353570Y-47836128D01*
X82353570Y-47836128D02*
X82389284Y-47871842D01*
X81389285Y-47800414D02*
X81389285Y-48300414D01*
X81710713Y-47800414D02*
X81710713Y-48193271D01*
X81710713Y-48193271D02*
X81674999Y-48264700D01*
X81674999Y-48264700D02*
X81603570Y-48300414D01*
X81603570Y-48300414D02*
X81496427Y-48300414D01*
X81496427Y-48300414D02*
X81424999Y-48264700D01*
X81424999Y-48264700D02*
X81389285Y-48228985D01*
X81032142Y-48300414D02*
X81032142Y-47550414D01*
X81032142Y-47836128D02*
X80960714Y-47800414D01*
X80960714Y-47800414D02*
X80817856Y-47800414D01*
X80817856Y-47800414D02*
X80746428Y-47836128D01*
X80746428Y-47836128D02*
X80710714Y-47871842D01*
X80710714Y-47871842D02*
X80674999Y-47943271D01*
X80674999Y-47943271D02*
X80674999Y-48157557D01*
X80674999Y-48157557D02*
X80710714Y-48228985D01*
X80710714Y-48228985D02*
X80746428Y-48264700D01*
X80746428Y-48264700D02*
X80817856Y-48300414D01*
X80817856Y-48300414D02*
X80960714Y-48300414D01*
X80960714Y-48300414D02*
X81032142Y-48264700D01*
X80353571Y-48228985D02*
X80317857Y-48264700D01*
X80317857Y-48264700D02*
X80353571Y-48300414D01*
X80353571Y-48300414D02*
X80389285Y-48264700D01*
X80389285Y-48264700D02*
X80353571Y-48228985D01*
X80353571Y-48228985D02*
X80353571Y-48300414D01*
X79675000Y-48264700D02*
X79746428Y-48300414D01*
X79746428Y-48300414D02*
X79889285Y-48300414D01*
X79889285Y-48300414D02*
X79960714Y-48264700D01*
X79960714Y-48264700D02*
X79996428Y-48228985D01*
X79996428Y-48228985D02*
X80032142Y-48157557D01*
X80032142Y-48157557D02*
X80032142Y-47943271D01*
X80032142Y-47943271D02*
X79996428Y-47871842D01*
X79996428Y-47871842D02*
X79960714Y-47836128D01*
X79960714Y-47836128D02*
X79889285Y-47800414D01*
X79889285Y-47800414D02*
X79746428Y-47800414D01*
X79746428Y-47800414D02*
X79675000Y-47836128D01*
X79246428Y-48300414D02*
X79317857Y-48264700D01*
X79317857Y-48264700D02*
X79353571Y-48228985D01*
X79353571Y-48228985D02*
X79389285Y-48157557D01*
X79389285Y-48157557D02*
X79389285Y-47943271D01*
X79389285Y-47943271D02*
X79353571Y-47871842D01*
X79353571Y-47871842D02*
X79317857Y-47836128D01*
X79317857Y-47836128D02*
X79246428Y-47800414D01*
X79246428Y-47800414D02*
X79139285Y-47800414D01*
X79139285Y-47800414D02*
X79067857Y-47836128D01*
X79067857Y-47836128D02*
X79032143Y-47871842D01*
X79032143Y-47871842D02*
X78996428Y-47943271D01*
X78996428Y-47943271D02*
X78996428Y-48157557D01*
X78996428Y-48157557D02*
X79032143Y-48228985D01*
X79032143Y-48228985D02*
X79067857Y-48264700D01*
X79067857Y-48264700D02*
X79139285Y-48300414D01*
X79139285Y-48300414D02*
X79246428Y-48300414D01*
X78675000Y-48300414D02*
X78675000Y-47800414D01*
X78675000Y-47871842D02*
X78639286Y-47836128D01*
X78639286Y-47836128D02*
X78567857Y-47800414D01*
X78567857Y-47800414D02*
X78460714Y-47800414D01*
X78460714Y-47800414D02*
X78389286Y-47836128D01*
X78389286Y-47836128D02*
X78353572Y-47907557D01*
X78353572Y-47907557D02*
X78353572Y-48300414D01*
X78353572Y-47907557D02*
X78317857Y-47836128D01*
X78317857Y-47836128D02*
X78246429Y-47800414D01*
X78246429Y-47800414D02*
X78139286Y-47800414D01*
X78139286Y-47800414D02*
X78067857Y-47836128D01*
X78067857Y-47836128D02*
X78032143Y-47907557D01*
X78032143Y-47907557D02*
X78032143Y-48300414D01*
X77139286Y-47514700D02*
X77782143Y-48478985D01*
X76889286Y-47800414D02*
X76889286Y-48550414D01*
X76889286Y-47836128D02*
X76817858Y-47800414D01*
X76817858Y-47800414D02*
X76675000Y-47800414D01*
X76675000Y-47800414D02*
X76603572Y-47836128D01*
X76603572Y-47836128D02*
X76567858Y-47871842D01*
X76567858Y-47871842D02*
X76532143Y-47943271D01*
X76532143Y-47943271D02*
X76532143Y-48157557D01*
X76532143Y-48157557D02*
X76567858Y-48228985D01*
X76567858Y-48228985D02*
X76603572Y-48264700D01*
X76603572Y-48264700D02*
X76675000Y-48300414D01*
X76675000Y-48300414D02*
X76817858Y-48300414D01*
X76817858Y-48300414D02*
X76889286Y-48264700D01*
X75925001Y-48264700D02*
X75996429Y-48300414D01*
X75996429Y-48300414D02*
X76139287Y-48300414D01*
X76139287Y-48300414D02*
X76210715Y-48264700D01*
X76210715Y-48264700D02*
X76246429Y-48193271D01*
X76246429Y-48193271D02*
X76246429Y-47907557D01*
X76246429Y-47907557D02*
X76210715Y-47836128D01*
X76210715Y-47836128D02*
X76139287Y-47800414D01*
X76139287Y-47800414D02*
X75996429Y-47800414D01*
X75996429Y-47800414D02*
X75925001Y-47836128D01*
X75925001Y-47836128D02*
X75889287Y-47907557D01*
X75889287Y-47907557D02*
X75889287Y-47978985D01*
X75889287Y-47978985D02*
X76246429Y-48050414D01*
X75246430Y-48300414D02*
X75246430Y-47550414D01*
X75246430Y-48264700D02*
X75317858Y-48300414D01*
X75317858Y-48300414D02*
X75460715Y-48300414D01*
X75460715Y-48300414D02*
X75532144Y-48264700D01*
X75532144Y-48264700D02*
X75567858Y-48228985D01*
X75567858Y-48228985D02*
X75603572Y-48157557D01*
X75603572Y-48157557D02*
X75603572Y-47943271D01*
X75603572Y-47943271D02*
X75567858Y-47871842D01*
X75567858Y-47871842D02*
X75532144Y-47836128D01*
X75532144Y-47836128D02*
X75460715Y-47800414D01*
X75460715Y-47800414D02*
X75317858Y-47800414D01*
X75317858Y-47800414D02*
X75246430Y-47836128D01*
X74567859Y-48300414D02*
X74567859Y-47907557D01*
X74567859Y-47907557D02*
X74603573Y-47836128D01*
X74603573Y-47836128D02*
X74675001Y-47800414D01*
X74675001Y-47800414D02*
X74817859Y-47800414D01*
X74817859Y-47800414D02*
X74889287Y-47836128D01*
X74567859Y-48264700D02*
X74639287Y-48300414D01*
X74639287Y-48300414D02*
X74817859Y-48300414D01*
X74817859Y-48300414D02*
X74889287Y-48264700D01*
X74889287Y-48264700D02*
X74925001Y-48193271D01*
X74925001Y-48193271D02*
X74925001Y-48121842D01*
X74925001Y-48121842D02*
X74889287Y-48050414D01*
X74889287Y-48050414D02*
X74817859Y-48014700D01*
X74817859Y-48014700D02*
X74639287Y-48014700D01*
X74639287Y-48014700D02*
X74567859Y-47978985D01*
X74103573Y-48300414D02*
X74175002Y-48264700D01*
X74175002Y-48264700D02*
X74210716Y-48193271D01*
X74210716Y-48193271D02*
X74210716Y-47550414D01*
X73817859Y-48300414D02*
X73817859Y-47550414D01*
X73817859Y-47836128D02*
X73746431Y-47800414D01*
X73746431Y-47800414D02*
X73603573Y-47800414D01*
X73603573Y-47800414D02*
X73532145Y-47836128D01*
X73532145Y-47836128D02*
X73496431Y-47871842D01*
X73496431Y-47871842D02*
X73460716Y-47943271D01*
X73460716Y-47943271D02*
X73460716Y-48157557D01*
X73460716Y-48157557D02*
X73496431Y-48228985D01*
X73496431Y-48228985D02*
X73532145Y-48264700D01*
X73532145Y-48264700D02*
X73603573Y-48300414D01*
X73603573Y-48300414D02*
X73746431Y-48300414D01*
X73746431Y-48300414D02*
X73817859Y-48264700D01*
X73032145Y-48300414D02*
X73103574Y-48264700D01*
X73103574Y-48264700D02*
X73139288Y-48228985D01*
X73139288Y-48228985D02*
X73175002Y-48157557D01*
X73175002Y-48157557D02*
X73175002Y-47943271D01*
X73175002Y-47943271D02*
X73139288Y-47871842D01*
X73139288Y-47871842D02*
X73103574Y-47836128D01*
X73103574Y-47836128D02*
X73032145Y-47800414D01*
X73032145Y-47800414D02*
X72925002Y-47800414D01*
X72925002Y-47800414D02*
X72853574Y-47836128D01*
X72853574Y-47836128D02*
X72817860Y-47871842D01*
X72817860Y-47871842D02*
X72782145Y-47943271D01*
X72782145Y-47943271D02*
X72782145Y-48157557D01*
X72782145Y-48157557D02*
X72817860Y-48228985D01*
X72817860Y-48228985D02*
X72853574Y-48264700D01*
X72853574Y-48264700D02*
X72925002Y-48300414D01*
X72925002Y-48300414D02*
X73032145Y-48300414D01*
X72139289Y-48300414D02*
X72139289Y-47907557D01*
X72139289Y-47907557D02*
X72175003Y-47836128D01*
X72175003Y-47836128D02*
X72246431Y-47800414D01*
X72246431Y-47800414D02*
X72389289Y-47800414D01*
X72389289Y-47800414D02*
X72460717Y-47836128D01*
X72139289Y-48264700D02*
X72210717Y-48300414D01*
X72210717Y-48300414D02*
X72389289Y-48300414D01*
X72389289Y-48300414D02*
X72460717Y-48264700D01*
X72460717Y-48264700D02*
X72496431Y-48193271D01*
X72496431Y-48193271D02*
X72496431Y-48121842D01*
X72496431Y-48121842D02*
X72460717Y-48050414D01*
X72460717Y-48050414D02*
X72389289Y-48014700D01*
X72389289Y-48014700D02*
X72210717Y-48014700D01*
X72210717Y-48014700D02*
X72139289Y-47978985D01*
X71782146Y-48300414D02*
X71782146Y-47800414D01*
X71782146Y-47943271D02*
X71746432Y-47871842D01*
X71746432Y-47871842D02*
X71710718Y-47836128D01*
X71710718Y-47836128D02*
X71639289Y-47800414D01*
X71639289Y-47800414D02*
X71567860Y-47800414D01*
X70996432Y-48300414D02*
X70996432Y-47550414D01*
X70996432Y-48264700D02*
X71067860Y-48300414D01*
X71067860Y-48300414D02*
X71210717Y-48300414D01*
X71210717Y-48300414D02*
X71282146Y-48264700D01*
X71282146Y-48264700D02*
X71317860Y-48228985D01*
X71317860Y-48228985D02*
X71353574Y-48157557D01*
X71353574Y-48157557D02*
X71353574Y-47943271D01*
X71353574Y-47943271D02*
X71317860Y-47871842D01*
X71317860Y-47871842D02*
X71282146Y-47836128D01*
X71282146Y-47836128D02*
X71210717Y-47800414D01*
X71210717Y-47800414D02*
X71067860Y-47800414D01*
X71067860Y-47800414D02*
X70996432Y-47836128D01*
X92254819Y-53666666D02*
X92969104Y-53666666D01*
X92969104Y-53666666D02*
X93111961Y-53619047D01*
X93111961Y-53619047D02*
X93207200Y-53523809D01*
X93207200Y-53523809D02*
X93254819Y-53380952D01*
X93254819Y-53380952D02*
X93254819Y-53285714D01*
X93254819Y-54666666D02*
X93254819Y-54095238D01*
X93254819Y-54380952D02*
X92254819Y-54380952D01*
X92254819Y-54380952D02*
X92397676Y-54285714D01*
X92397676Y-54285714D02*
X92492914Y-54190476D01*
X92492914Y-54190476D02*
X92540533Y-54095238D01*
D13*
X88940000Y-62060000D02*
X88940000Y-57940000D01*
X89240000Y-62060000D02*
X88940000Y-62060000D01*
X91240000Y-62060000D02*
X90760000Y-62060000D01*
X93060000Y-62060000D02*
X92760000Y-62060000D01*
X93060000Y-62060000D02*
X93060000Y-57940000D01*
X89240000Y-57940000D02*
X88940000Y-57940000D01*
X91240000Y-57940000D02*
X90760000Y-57940000D01*
X92760000Y-57940000D02*
X92760000Y-55560000D01*
X93060000Y-57940000D02*
X92760000Y-57940000D01*
%LPC*%
D14*
X92000000Y-56875000D03*
X92000000Y-63125000D03*
X90000000Y-56875000D03*
X90000000Y-63125000D03*
%LPD*%
M02*
