G04 #@! TF.GenerationSoftware,KiCad,Pcbnew,7.0.2.1-36-g582732918d-dirty-deb11*
G04 #@! TF.CreationDate,2023-05-22T19:38:29+00:00*
G04 #@! TF.ProjectId,pedalboard-led-ring,70656461-6c62-46f6-9172-642d6c65642d,rev?*
G04 #@! TF.SameCoordinates,Original*
G04 #@! TF.FileFunction,Legend,Top*
G04 #@! TF.FilePolarity,Positive*
%FSLAX46Y46*%
G04 Gerber Fmt 4.6, Leading zero omitted, Abs format (unit mm)*
G04 Created by KiCad (PCBNEW 7.0.2.1-36-g582732918d-dirty-deb11) date 2023-05-22 19:38:29*
%MOMM*%
%LPD*%
G01*
G04 APERTURE LIST*
%ADD10C,0.050000*%
%ADD11C,0.120000*%
%ADD12R,0.830000X0.750000*%
%ADD13R,0.830000X0.500000*%
G04 APERTURE END LIST*
D10*
X89557976Y-57449511D02*
X89990989Y-57199511D01*
X89990989Y-57199511D02*
X90050512Y-57302609D01*
X90050512Y-57302609D02*
X90065607Y-57376373D01*
X90065607Y-57376373D02*
X90048177Y-57441422D01*
X90048177Y-57441422D02*
X90018843Y-57485851D01*
X90018843Y-57485851D02*
X89948269Y-57554090D01*
X89948269Y-57554090D02*
X89886410Y-57589804D01*
X89886410Y-57589804D02*
X89792027Y-57616803D01*
X89792027Y-57616803D02*
X89738882Y-57619993D01*
X89738882Y-57619993D02*
X89673834Y-57602563D01*
X89673834Y-57602563D02*
X89617500Y-57552609D01*
X89617500Y-57552609D02*
X89557976Y-57449511D01*
X90348131Y-57818100D02*
X90300512Y-57735622D01*
X90300512Y-57735622D02*
X90256083Y-57706287D01*
X90256083Y-57706287D02*
X90223559Y-57697572D01*
X90223559Y-57697572D02*
X90137890Y-57692047D01*
X90137890Y-57692047D02*
X90043507Y-57719047D01*
X90043507Y-57719047D02*
X89878550Y-57814285D01*
X89878550Y-57814285D02*
X89849215Y-57858714D01*
X89849215Y-57858714D02*
X89840500Y-57891238D01*
X89840500Y-57891238D02*
X89843690Y-57944383D01*
X89843690Y-57944383D02*
X89891309Y-58026861D01*
X89891309Y-58026861D02*
X89935738Y-58056196D01*
X89935738Y-58056196D02*
X89968263Y-58064911D01*
X89968263Y-58064911D02*
X90021407Y-58061721D01*
X90021407Y-58061721D02*
X90124505Y-58002197D01*
X90124505Y-58002197D02*
X90153840Y-57957768D01*
X90153840Y-57957768D02*
X90162555Y-57925243D01*
X90162555Y-57925243D02*
X90159365Y-57872099D01*
X90159365Y-57872099D02*
X90111746Y-57789621D01*
X90111746Y-57789621D02*
X90067316Y-57760286D01*
X90067316Y-57760286D02*
X90034792Y-57751571D01*
X90034792Y-57751571D02*
X89981648Y-57754761D01*
X77230952Y-70031309D02*
X77230952Y-69531309D01*
X77230952Y-69531309D02*
X77350000Y-69531309D01*
X77350000Y-69531309D02*
X77421428Y-69555119D01*
X77421428Y-69555119D02*
X77469047Y-69602738D01*
X77469047Y-69602738D02*
X77492857Y-69650357D01*
X77492857Y-69650357D02*
X77516666Y-69745595D01*
X77516666Y-69745595D02*
X77516666Y-69817023D01*
X77516666Y-69817023D02*
X77492857Y-69912261D01*
X77492857Y-69912261D02*
X77469047Y-69959880D01*
X77469047Y-69959880D02*
X77421428Y-70007500D01*
X77421428Y-70007500D02*
X77350000Y-70031309D01*
X77350000Y-70031309D02*
X77230952Y-70031309D01*
X77707143Y-69578928D02*
X77730952Y-69555119D01*
X77730952Y-69555119D02*
X77778571Y-69531309D01*
X77778571Y-69531309D02*
X77897619Y-69531309D01*
X77897619Y-69531309D02*
X77945238Y-69555119D01*
X77945238Y-69555119D02*
X77969047Y-69578928D01*
X77969047Y-69578928D02*
X77992857Y-69626547D01*
X77992857Y-69626547D02*
X77992857Y-69674166D01*
X77992857Y-69674166D02*
X77969047Y-69745595D01*
X77969047Y-69745595D02*
X77683333Y-70031309D01*
X77683333Y-70031309D02*
X77992857Y-70031309D01*
X81840952Y-50546309D02*
X81840952Y-50046309D01*
X81840952Y-50046309D02*
X81960000Y-50046309D01*
X81960000Y-50046309D02*
X82031428Y-50070119D01*
X82031428Y-50070119D02*
X82079047Y-50117738D01*
X82079047Y-50117738D02*
X82102857Y-50165357D01*
X82102857Y-50165357D02*
X82126666Y-50260595D01*
X82126666Y-50260595D02*
X82126666Y-50332023D01*
X82126666Y-50332023D02*
X82102857Y-50427261D01*
X82102857Y-50427261D02*
X82079047Y-50474880D01*
X82079047Y-50474880D02*
X82031428Y-50522500D01*
X82031428Y-50522500D02*
X81960000Y-50546309D01*
X81960000Y-50546309D02*
X81840952Y-50546309D01*
X82579047Y-50046309D02*
X82340952Y-50046309D01*
X82340952Y-50046309D02*
X82317143Y-50284404D01*
X82317143Y-50284404D02*
X82340952Y-50260595D01*
X82340952Y-50260595D02*
X82388571Y-50236785D01*
X82388571Y-50236785D02*
X82507619Y-50236785D01*
X82507619Y-50236785D02*
X82555238Y-50260595D01*
X82555238Y-50260595D02*
X82579047Y-50284404D01*
X82579047Y-50284404D02*
X82602857Y-50332023D01*
X82602857Y-50332023D02*
X82602857Y-50451071D01*
X82602857Y-50451071D02*
X82579047Y-50498690D01*
X82579047Y-50498690D02*
X82555238Y-50522500D01*
X82555238Y-50522500D02*
X82507619Y-50546309D01*
X82507619Y-50546309D02*
X82388571Y-50546309D01*
X82388571Y-50546309D02*
X82340952Y-50522500D01*
X82340952Y-50522500D02*
X82317143Y-50498690D01*
X69672336Y-62142589D02*
X70105349Y-61892589D01*
X70105349Y-61892589D02*
X70164872Y-61995687D01*
X70164872Y-61995687D02*
X70179967Y-62069451D01*
X70179967Y-62069451D02*
X70162537Y-62134500D01*
X70162537Y-62134500D02*
X70133203Y-62178929D01*
X70133203Y-62178929D02*
X70062629Y-62247168D01*
X70062629Y-62247168D02*
X70000770Y-62282882D01*
X70000770Y-62282882D02*
X69906387Y-62309881D01*
X69906387Y-62309881D02*
X69853242Y-62313071D01*
X69853242Y-62313071D02*
X69788194Y-62295641D01*
X69788194Y-62295641D02*
X69731860Y-62245687D01*
X69731860Y-62245687D02*
X69672336Y-62142589D01*
X70331539Y-62284362D02*
X70486301Y-62552418D01*
X70486301Y-62552418D02*
X70238010Y-62503318D01*
X70238010Y-62503318D02*
X70273725Y-62565177D01*
X70273725Y-62565177D02*
X70276915Y-62618321D01*
X70276915Y-62618321D02*
X70268200Y-62650846D01*
X70268200Y-62650846D02*
X70238865Y-62695275D01*
X70238865Y-62695275D02*
X70135767Y-62754799D01*
X70135767Y-62754799D02*
X70082623Y-62757989D01*
X70082623Y-62757989D02*
X70050098Y-62749274D01*
X70050098Y-62749274D02*
X70005669Y-62719939D01*
X70005669Y-62719939D02*
X69934241Y-62596221D01*
X69934241Y-62596221D02*
X69931051Y-62543077D01*
X69931051Y-62543077D02*
X69939766Y-62510553D01*
X72472976Y-53931798D02*
X72039963Y-53681798D01*
X72039963Y-53681798D02*
X72099487Y-53578699D01*
X72099487Y-53578699D02*
X72155821Y-53528745D01*
X72155821Y-53528745D02*
X72220870Y-53511315D01*
X72220870Y-53511315D02*
X72274014Y-53514505D01*
X72274014Y-53514505D02*
X72368397Y-53541505D01*
X72368397Y-53541505D02*
X72430256Y-53577219D01*
X72430256Y-53577219D02*
X72500830Y-53645458D01*
X72500830Y-53645458D02*
X72530164Y-53689887D01*
X72530164Y-53689887D02*
X72547594Y-53754936D01*
X72547594Y-53754936D02*
X72532500Y-53828699D01*
X72532500Y-53828699D02*
X72472976Y-53931798D01*
X72541443Y-53146541D02*
X72830119Y-53313208D01*
X72316962Y-53154402D02*
X72566733Y-53436071D01*
X72566733Y-53436071D02*
X72721495Y-53168016D01*
X87558616Y-66938720D02*
X87125603Y-66688720D01*
X87125603Y-66688720D02*
X87185127Y-66585621D01*
X87185127Y-66585621D02*
X87241461Y-66535667D01*
X87241461Y-66535667D02*
X87306510Y-66518237D01*
X87306510Y-66518237D02*
X87359654Y-66521427D01*
X87359654Y-66521427D02*
X87454037Y-66548427D01*
X87454037Y-66548427D02*
X87515896Y-66584141D01*
X87515896Y-66584141D02*
X87586470Y-66652380D01*
X87586470Y-66652380D02*
X87615804Y-66696809D01*
X87615804Y-66696809D02*
X87633234Y-66761858D01*
X87633234Y-66761858D02*
X87618140Y-66835621D01*
X87618140Y-66835621D02*
X87558616Y-66938720D01*
X87939568Y-66278891D02*
X87796711Y-66526327D01*
X87868140Y-66402609D02*
X87435127Y-66152609D01*
X87435127Y-66152609D02*
X87473176Y-66229562D01*
X87473176Y-66229562D02*
X87490606Y-66294611D01*
X87490606Y-66294611D02*
X87487416Y-66347755D01*
D11*
X86447372Y-55399167D02*
X88352628Y-54299167D01*
X88007180Y-57500833D02*
X89392820Y-56700833D01*
X81300000Y-67900000D02*
X81300000Y-70100000D01*
X78700000Y-68200000D02*
X78700000Y-69800000D01*
X78700000Y-52100000D02*
X78700000Y-49900000D01*
X81300000Y-51800000D02*
X81300000Y-50200000D01*
X73552628Y-64600833D02*
X71647372Y-65700833D01*
X71992820Y-62499167D02*
X70607180Y-63299167D01*
X72252628Y-57650833D02*
X70347372Y-56550833D01*
X73292820Y-55249167D02*
X71907180Y-54449167D01*
X87747372Y-62349167D02*
X89652628Y-63449167D01*
X86707180Y-64750833D02*
X88092820Y-65550833D01*
%LPC*%
G36*
X87819890Y-54716439D02*
G01*
X88469410Y-54341439D01*
X88884410Y-55060241D01*
X88234890Y-55435241D01*
X87819890Y-54716439D01*
G37*
G36*
X87230994Y-55056439D02*
G01*
X87664006Y-54806439D01*
X88079006Y-55525241D01*
X87645994Y-55775241D01*
X87230994Y-55056439D01*
G37*
G36*
X86425590Y-55521439D02*
G01*
X87075110Y-55146439D01*
X87490110Y-55865241D01*
X86840590Y-56240241D01*
X86425590Y-55521439D01*
G37*
G36*
X87215590Y-56889759D02*
G01*
X87865110Y-56514759D01*
X88280110Y-57233561D01*
X87630590Y-57608561D01*
X87215590Y-56889759D01*
G37*
G36*
X88020994Y-56424759D02*
G01*
X88454006Y-56174759D01*
X88869006Y-56893561D01*
X88435994Y-57143561D01*
X88020994Y-56424759D01*
G37*
G36*
X88609890Y-56084759D02*
G01*
X89259410Y-55709759D01*
X89674410Y-56428561D01*
X89024890Y-56803561D01*
X88609890Y-56084759D01*
G37*
D12*
X80790000Y-69805000D03*
D13*
X80790000Y-69000000D03*
D12*
X80790000Y-68195000D03*
X79210000Y-68195000D03*
D13*
X79210000Y-69000000D03*
D12*
X79210000Y-69805000D03*
X79210000Y-50195000D03*
D13*
X79210000Y-51000000D03*
D12*
X79210000Y-51805000D03*
X80790000Y-51805000D03*
D13*
X80790000Y-51000000D03*
D12*
X80790000Y-50195000D03*
G36*
X72180110Y-65283561D02*
G01*
X71530590Y-65658561D01*
X71115590Y-64939759D01*
X71765110Y-64564759D01*
X72180110Y-65283561D01*
G37*
G36*
X72769006Y-64943561D02*
G01*
X72335994Y-65193561D01*
X71920994Y-64474759D01*
X72354006Y-64224759D01*
X72769006Y-64943561D01*
G37*
G36*
X73574410Y-64478561D02*
G01*
X72924890Y-64853561D01*
X72509890Y-64134759D01*
X73159410Y-63759759D01*
X73574410Y-64478561D01*
G37*
G36*
X72784410Y-63110241D02*
G01*
X72134890Y-63485241D01*
X71719890Y-62766439D01*
X72369410Y-62391439D01*
X72784410Y-63110241D01*
G37*
G36*
X71979006Y-63575241D02*
G01*
X71545994Y-63825241D01*
X71130994Y-63106439D01*
X71564006Y-62856439D01*
X71979006Y-63575241D01*
G37*
G36*
X71390110Y-63915241D02*
G01*
X70740590Y-64290241D01*
X70325590Y-63571439D01*
X70975110Y-63196439D01*
X71390110Y-63915241D01*
G37*
G36*
X70975110Y-56803561D02*
G01*
X70325590Y-56428561D01*
X70740590Y-55709759D01*
X71390110Y-56084759D01*
X70975110Y-56803561D01*
G37*
G36*
X71564006Y-57143561D02*
G01*
X71130994Y-56893561D01*
X71545994Y-56174759D01*
X71979006Y-56424759D01*
X71564006Y-57143561D01*
G37*
G36*
X72369410Y-57608561D02*
G01*
X71719890Y-57233561D01*
X72134890Y-56514759D01*
X72784410Y-56889759D01*
X72369410Y-57608561D01*
G37*
G36*
X73159410Y-56240241D02*
G01*
X72509890Y-55865241D01*
X72924890Y-55146439D01*
X73574410Y-55521439D01*
X73159410Y-56240241D01*
G37*
G36*
X72354006Y-55775241D02*
G01*
X71920994Y-55525241D01*
X72335994Y-54806439D01*
X72769006Y-55056439D01*
X72354006Y-55775241D01*
G37*
G36*
X71765110Y-55435241D02*
G01*
X71115590Y-55060241D01*
X71530590Y-54341439D01*
X72180110Y-54716439D01*
X71765110Y-55435241D01*
G37*
G36*
X89024890Y-63196439D02*
G01*
X89674410Y-63571439D01*
X89259410Y-64290241D01*
X88609890Y-63915241D01*
X89024890Y-63196439D01*
G37*
G36*
X88435994Y-62856439D02*
G01*
X88869006Y-63106439D01*
X88454006Y-63825241D01*
X88020994Y-63575241D01*
X88435994Y-62856439D01*
G37*
G36*
X87630590Y-62391439D02*
G01*
X88280110Y-62766439D01*
X87865110Y-63485241D01*
X87215590Y-63110241D01*
X87630590Y-62391439D01*
G37*
G36*
X86840590Y-63759759D02*
G01*
X87490110Y-64134759D01*
X87075110Y-64853561D01*
X86425590Y-64478561D01*
X86840590Y-63759759D01*
G37*
G36*
X87645994Y-64224759D02*
G01*
X88079006Y-64474759D01*
X87664006Y-65193561D01*
X87230994Y-64943561D01*
X87645994Y-64224759D01*
G37*
G36*
X88234890Y-64564759D02*
G01*
X88884410Y-64939759D01*
X88469410Y-65658561D01*
X87819890Y-65283561D01*
X88234890Y-64564759D01*
G37*
%LPD*%
M02*
