G04 #@! TF.GenerationSoftware,KiCad,Pcbnew,7.0.9-7.0.9~ubuntu23.04.1*
G04 #@! TF.CreationDate,2024-01-08T22:13:00+00:00*
G04 #@! TF.ProjectId,pedalboard-led-ring,70656461-6c62-46f6-9172-642d6c65642d,1.1.0-RC1*
G04 #@! TF.SameCoordinates,Original*
G04 #@! TF.FileFunction,Soldermask,Bot*
G04 #@! TF.FilePolarity,Negative*
%FSLAX46Y46*%
G04 Gerber Fmt 4.6, Leading zero omitted, Abs format (unit mm)*
G04 Created by KiCad (PCBNEW 7.0.9-7.0.9~ubuntu23.04.1) date 2024-01-08 22:13:00*
%MOMM*%
%LPD*%
G01*
G04 APERTURE LIST*
%ADD10R,1.000000X2.750000*%
G04 APERTURE END LIST*
D10*
X11000000Y3125000D03*
X11000000Y-3125000D03*
X9000000Y3125000D03*
X9000000Y-3125000D03*
G36*
X6470952Y6167184D02*
G01*
X6792345Y5784162D01*
X6788447Y5780891D01*
X6834186Y5726381D01*
X6891245Y5596004D01*
X6909260Y5454835D01*
X6886774Y5314307D01*
X6825608Y5185808D01*
X6730717Y5079746D01*
X6347695Y4758352D01*
X6226766Y4683320D01*
X6089598Y4645397D01*
X5947300Y4647655D01*
X5811404Y4689910D01*
X5692916Y4768742D01*
X5647177Y4823251D01*
X5643279Y4819980D01*
X5321885Y5203003D01*
X6470952Y6167184D01*
G37*
G36*
X4811553Y5819109D02*
G01*
X4765814Y5873619D01*
X4708755Y6003996D01*
X4690740Y6145165D01*
X4713226Y6285693D01*
X4774392Y6414192D01*
X4869283Y6520254D01*
X5252305Y6841648D01*
X5373234Y6916680D01*
X5510402Y6954603D01*
X5652700Y6952345D01*
X5788596Y6910090D01*
X5907084Y6831258D01*
X5952823Y6776749D01*
X5956721Y6780020D01*
X6278115Y6396997D01*
X5129048Y5432816D01*
X4807655Y5815838D01*
X4811553Y5819109D01*
G37*
M02*
