G04 #@! TF.GenerationSoftware,KiCad,Pcbnew,7.0.8-7.0.8~ubuntu23.04.1*
G04 #@! TF.CreationDate,2023-10-20T09:28:23+00:00*
G04 #@! TF.ProjectId,pedalboard-led-ring,70656461-6c62-46f6-9172-642d6c65642d,1.1.0-RC1*
G04 #@! TF.SameCoordinates,Original*
G04 #@! TF.FileFunction,Legend,Top*
G04 #@! TF.FilePolarity,Positive*
%FSLAX46Y46*%
G04 Gerber Fmt 4.6, Leading zero omitted, Abs format (unit mm)*
G04 Created by KiCad (PCBNEW 7.0.8-7.0.8~ubuntu23.04.1) date 2023-10-20 09:28:23*
%MOMM*%
%LPD*%
G01*
G04 APERTURE LIST*
%ADD10C,0.150000*%
%ADD11C,0.100000*%
%ADD12C,0.075000*%
%ADD13C,0.120000*%
G04 APERTURE END LIST*
D10*
X-1071429Y-9431009D02*
X-1404762Y-9431009D01*
X-1404762Y-9954819D02*
X-1404762Y-8954819D01*
X-1404762Y-8954819D02*
X-928572Y-8954819D01*
X-547619Y-9954819D02*
X-547619Y-8954819D01*
X-71429Y-9954819D02*
X-71429Y-8954819D01*
X-71429Y-8954819D02*
X166666Y-8954819D01*
X166666Y-8954819D02*
X309523Y-9002438D01*
X309523Y-9002438D02*
X404761Y-9097676D01*
X404761Y-9097676D02*
X452380Y-9192914D01*
X452380Y-9192914D02*
X499999Y-9383390D01*
X499999Y-9383390D02*
X499999Y-9526247D01*
X499999Y-9526247D02*
X452380Y-9716723D01*
X452380Y-9716723D02*
X404761Y-9811961D01*
X404761Y-9811961D02*
X309523Y-9907200D01*
X309523Y-9907200D02*
X166666Y-9954819D01*
X166666Y-9954819D02*
X-71429Y-9954819D01*
X880952Y-9050057D02*
X928571Y-9002438D01*
X928571Y-9002438D02*
X1023809Y-8954819D01*
X1023809Y-8954819D02*
X1261904Y-8954819D01*
X1261904Y-8954819D02*
X1357142Y-9002438D01*
X1357142Y-9002438D02*
X1404761Y-9050057D01*
X1404761Y-9050057D02*
X1452380Y-9145295D01*
X1452380Y-9145295D02*
X1452380Y-9240533D01*
X1452380Y-9240533D02*
X1404761Y-9383390D01*
X1404761Y-9383390D02*
X833333Y-9954819D01*
X833333Y-9954819D02*
X1452380Y-9954819D01*
D11*
X2850612Y-8145712D02*
X3283624Y-7895712D01*
X3283624Y-7895712D02*
X3343148Y-7998810D01*
X3343148Y-7998810D02*
X3358243Y-8072574D01*
X3358243Y-8072574D02*
X3340813Y-8137622D01*
X3340813Y-8137622D02*
X3311479Y-8182052D01*
X3311479Y-8182052D02*
X3240905Y-8250290D01*
X3240905Y-8250290D02*
X3179046Y-8286005D01*
X3179046Y-8286005D02*
X3084662Y-8313004D01*
X3084662Y-8313004D02*
X3031518Y-8316194D01*
X3031518Y-8316194D02*
X2966469Y-8298764D01*
X2966469Y-8298764D02*
X2910136Y-8248810D01*
X2910136Y-8248810D02*
X2850612Y-8145712D01*
X3231564Y-8805540D02*
X3088707Y-8558105D01*
X3160136Y-8681823D02*
X3593148Y-8431823D01*
X3593148Y-8431823D02*
X3507480Y-8426297D01*
X3507480Y-8426297D02*
X3442431Y-8408868D01*
X3442431Y-8408868D02*
X3398002Y-8379533D01*
X3469659Y-9217933D02*
X3326802Y-8970497D01*
X3398231Y-9094215D02*
X3831243Y-8844215D01*
X3831243Y-8844215D02*
X3745575Y-8838690D01*
X3745575Y-8838690D02*
X3680526Y-8821260D01*
X3680526Y-8821260D02*
X3636097Y-8791926D01*
D12*
X4498831Y-8961975D02*
X4413117Y-8813514D01*
X4455974Y-8887744D02*
X4715782Y-8737744D01*
X4715782Y-8737744D02*
X4664381Y-8734429D01*
X4664381Y-8734429D02*
X4625351Y-8723972D01*
X4625351Y-8723972D02*
X4598694Y-8706371D01*
D11*
X-1971510Y8916667D02*
X-1947700Y8892858D01*
X-1947700Y8892858D02*
X-1923891Y8821429D01*
X-1923891Y8821429D02*
X-1923891Y8773810D01*
X-1923891Y8773810D02*
X-1947700Y8702382D01*
X-1947700Y8702382D02*
X-1995320Y8654763D01*
X-1995320Y8654763D02*
X-2042939Y8630953D01*
X-2042939Y8630953D02*
X-2138177Y8607144D01*
X-2138177Y8607144D02*
X-2209605Y8607144D01*
X-2209605Y8607144D02*
X-2304843Y8630953D01*
X-2304843Y8630953D02*
X-2352462Y8654763D01*
X-2352462Y8654763D02*
X-2400081Y8702382D01*
X-2400081Y8702382D02*
X-2423891Y8773810D01*
X-2423891Y8773810D02*
X-2423891Y8821429D01*
X-2423891Y8821429D02*
X-2400081Y8892858D01*
X-2400081Y8892858D02*
X-2376272Y8916667D01*
X-2257224Y9345239D02*
X-1923891Y9345239D01*
X-2447700Y9226191D02*
X-2090558Y9107144D01*
X-2090558Y9107144D02*
X-2090558Y9416667D01*
X-6646244Y6782924D02*
X-6678769Y6791639D01*
X-6678769Y6791639D02*
X-6735103Y6841593D01*
X-6735103Y6841593D02*
X-6758912Y6882832D01*
X-6758912Y6882832D02*
X-6774007Y6956596D01*
X-6774007Y6956596D02*
X-6756577Y7021645D01*
X-6756577Y7021645D02*
X-6727243Y7066074D01*
X-6727243Y7066074D02*
X-6656669Y7134313D01*
X-6656669Y7134313D02*
X-6594810Y7170027D01*
X-6594810Y7170027D02*
X-6500426Y7197026D01*
X-6500426Y7197026D02*
X-6447282Y7200216D01*
X-6447282Y7200216D02*
X-6382233Y7182786D01*
X-6382233Y7182786D02*
X-6325900Y7132832D01*
X-6325900Y7132832D02*
X-6302090Y7091593D01*
X-6302090Y7091593D02*
X-6286995Y7017829D01*
X-6286995Y7017829D02*
X-6295710Y6985305D01*
X-6028280Y6617341D02*
X-6147328Y6823537D01*
X-6147328Y6823537D02*
X-6365429Y6725109D01*
X-6365429Y6725109D02*
X-6332905Y6716395D01*
X-6332905Y6716395D02*
X-6288476Y6687060D01*
X-6288476Y6687060D02*
X-6228952Y6583962D01*
X-6228952Y6583962D02*
X-6225762Y6530818D01*
X-6225762Y6530818D02*
X-6234477Y6498293D01*
X-6234477Y6498293D02*
X-6263812Y6453864D01*
X-6263812Y6453864D02*
X-6366910Y6394340D01*
X-6366910Y6394340D02*
X-6420054Y6391150D01*
X-6420054Y6391150D02*
X-6452578Y6399865D01*
X-6452578Y6399865D02*
X-6497007Y6429200D01*
X-6497007Y6429200D02*
X-6556531Y6532298D01*
X-6556531Y6532298D02*
X-6559721Y6585442D01*
X-6559721Y6585442D02*
X-6551006Y6617967D01*
X10220952Y-326109D02*
X10220952Y173891D01*
X10220952Y173891D02*
X10340000Y173891D01*
X10340000Y173891D02*
X10411428Y150081D01*
X10411428Y150081D02*
X10459047Y102462D01*
X10459047Y102462D02*
X10482857Y54843D01*
X10482857Y54843D02*
X10506666Y-40395D01*
X10506666Y-40395D02*
X10506666Y-111823D01*
X10506666Y-111823D02*
X10482857Y-207061D01*
X10482857Y-207061D02*
X10459047Y-254680D01*
X10459047Y-254680D02*
X10411428Y-302300D01*
X10411428Y-302300D02*
X10340000Y-326109D01*
X10340000Y-326109D02*
X10220952Y-326109D01*
X10982857Y-326109D02*
X10697143Y-326109D01*
X10840000Y-326109D02*
X10840000Y173891D01*
X10840000Y173891D02*
X10792381Y102462D01*
X10792381Y102462D02*
X10744762Y54843D01*
X10744762Y54843D02*
X10697143Y31034D01*
D12*
X10010714Y-584885D02*
X9839285Y-584885D01*
X9925000Y-584885D02*
X9925000Y-284885D01*
X9925000Y-284885D02*
X9896428Y-327742D01*
X9896428Y-327742D02*
X9867857Y-356314D01*
X9867857Y-356314D02*
X9839285Y-370600D01*
D11*
X1626109Y8630953D02*
X1126109Y8630953D01*
X1126109Y8630953D02*
X1126109Y8750001D01*
X1126109Y8750001D02*
X1149919Y8821429D01*
X1149919Y8821429D02*
X1197538Y8869048D01*
X1197538Y8869048D02*
X1245157Y8892858D01*
X1245157Y8892858D02*
X1340395Y8916667D01*
X1340395Y8916667D02*
X1411823Y8916667D01*
X1411823Y8916667D02*
X1507061Y8892858D01*
X1507061Y8892858D02*
X1554680Y8869048D01*
X1554680Y8869048D02*
X1602300Y8821429D01*
X1602300Y8821429D02*
X1626109Y8750001D01*
X1626109Y8750001D02*
X1626109Y8630953D01*
X1292776Y9345239D02*
X1626109Y9345239D01*
X1102300Y9226191D02*
X1459442Y9107144D01*
X1459442Y9107144D02*
X1459442Y9416667D01*
D12*
X584885Y10010715D02*
X584885Y9839286D01*
X584885Y9925001D02*
X284885Y9925001D01*
X284885Y9925001D02*
X327742Y9896429D01*
X327742Y9896429D02*
X356314Y9867858D01*
X356314Y9867858D02*
X370600Y9839286D01*
D11*
X6455373Y-5604681D02*
X6705373Y-5171668D01*
X6705373Y-5171668D02*
X6808471Y-5231192D01*
X6808471Y-5231192D02*
X6858425Y-5287526D01*
X6858425Y-5287526D02*
X6875855Y-5352575D01*
X6875855Y-5352575D02*
X6872665Y-5405719D01*
X6872665Y-5405719D02*
X6845666Y-5500102D01*
X6845666Y-5500102D02*
X6809952Y-5561961D01*
X6809952Y-5561961D02*
X6741713Y-5632535D01*
X6741713Y-5632535D02*
X6697284Y-5661870D01*
X6697284Y-5661870D02*
X6632235Y-5679299D01*
X6632235Y-5679299D02*
X6558471Y-5664205D01*
X6558471Y-5664205D02*
X6455373Y-5604681D01*
X7115202Y-5985633D02*
X6867766Y-5842776D01*
X6991484Y-5914205D02*
X7241484Y-5481192D01*
X7241484Y-5481192D02*
X7164530Y-5519241D01*
X7164530Y-5519241D02*
X7099482Y-5536671D01*
X7099482Y-5536671D02*
X7046337Y-5533481D01*
X7506349Y-5689098D02*
X7538874Y-5680383D01*
X7538874Y-5680383D02*
X7592018Y-5683573D01*
X7592018Y-5683573D02*
X7695116Y-5743097D01*
X7695116Y-5743097D02*
X7724450Y-5787526D01*
X7724450Y-5787526D02*
X7733165Y-5820050D01*
X7733165Y-5820050D02*
X7729975Y-5873194D01*
X7729975Y-5873194D02*
X7706166Y-5914433D01*
X7706166Y-5914433D02*
X7649832Y-5964388D01*
X7649832Y-5964388D02*
X7259539Y-6068966D01*
X7259539Y-6068966D02*
X7527595Y-6223728D01*
D12*
X8377090Y-5511882D02*
X8228628Y-5426168D01*
X8302859Y-5469025D02*
X8452859Y-5209217D01*
X8452859Y-5209217D02*
X8406687Y-5232047D01*
X8406687Y-5232047D02*
X8367657Y-5242505D01*
X8367657Y-5242505D02*
X8335771Y-5240591D01*
D11*
X-8700779Y-3667904D02*
X-8950779Y-3234891D01*
X-8950779Y-3234891D02*
X-8847681Y-3175367D01*
X-8847681Y-3175367D02*
X-8773917Y-3160273D01*
X-8773917Y-3160273D02*
X-8708868Y-3177702D01*
X-8708868Y-3177702D02*
X-8664439Y-3207037D01*
X-8664439Y-3207037D02*
X-8596200Y-3277611D01*
X-8596200Y-3277611D02*
X-8560486Y-3339470D01*
X-8560486Y-3339470D02*
X-8533487Y-3433853D01*
X-8533487Y-3433853D02*
X-8530297Y-3486997D01*
X-8530297Y-3486997D02*
X-8547727Y-3552046D01*
X-8547727Y-3552046D02*
X-8597681Y-3608380D01*
X-8597681Y-3608380D02*
X-8700779Y-3667904D01*
X-8348765Y-3134754D02*
X-8401909Y-3137944D01*
X-8401909Y-3137944D02*
X-8434433Y-3129229D01*
X-8434433Y-3129229D02*
X-8478862Y-3099894D01*
X-8478862Y-3099894D02*
X-8490767Y-3079274D01*
X-8490767Y-3079274D02*
X-8493957Y-3026130D01*
X-8493957Y-3026130D02*
X-8485242Y-2993606D01*
X-8485242Y-2993606D02*
X-8455907Y-2949177D01*
X-8455907Y-2949177D02*
X-8373429Y-2901558D01*
X-8373429Y-2901558D02*
X-8320285Y-2898368D01*
X-8320285Y-2898368D02*
X-8287760Y-2907083D01*
X-8287760Y-2907083D02*
X-8243331Y-2936417D01*
X-8243331Y-2936417D02*
X-8231426Y-2957037D01*
X-8231426Y-2957037D02*
X-8228237Y-3010181D01*
X-8228237Y-3010181D02*
X-8236951Y-3042705D01*
X-8236951Y-3042705D02*
X-8266286Y-3087135D01*
X-8266286Y-3087135D02*
X-8348765Y-3134754D01*
X-8348765Y-3134754D02*
X-8378099Y-3179183D01*
X-8378099Y-3179183D02*
X-8386814Y-3211707D01*
X-8386814Y-3211707D02*
X-8383624Y-3264851D01*
X-8383624Y-3264851D02*
X-8336005Y-3347330D01*
X-8336005Y-3347330D02*
X-8291576Y-3376664D01*
X-8291576Y-3376664D02*
X-8259052Y-3385379D01*
X-8259052Y-3385379D02*
X-8205907Y-3382189D01*
X-8205907Y-3382189D02*
X-8123429Y-3334570D01*
X-8123429Y-3334570D02*
X-8094094Y-3290141D01*
X-8094094Y-3290141D02*
X-8085379Y-3257617D01*
X-8085379Y-3257617D02*
X-8088569Y-3204473D01*
X-8088569Y-3204473D02*
X-8136188Y-3121994D01*
X-8136188Y-3121994D02*
X-8180618Y-3092660D01*
X-8180618Y-3092660D02*
X-8213142Y-3083945D01*
X-8213142Y-3083945D02*
X-8266286Y-3087135D01*
D12*
X-8678629Y-4646746D02*
X-8827090Y-4732460D01*
X-8752860Y-4689603D02*
X-8902860Y-4429795D01*
X-8902860Y-4429795D02*
X-8906175Y-4481196D01*
X-8906175Y-4481196D02*
X-8916632Y-4520226D01*
X-8916632Y-4520226D02*
X-8934233Y-4546883D01*
D11*
X-1213891Y-9907142D02*
X-1713891Y-9907142D01*
X-1713891Y-9907142D02*
X-1713891Y-9788094D01*
X-1713891Y-9788094D02*
X-1690081Y-9716666D01*
X-1690081Y-9716666D02*
X-1642462Y-9669047D01*
X-1642462Y-9669047D02*
X-1594843Y-9645237D01*
X-1594843Y-9645237D02*
X-1499605Y-9621428D01*
X-1499605Y-9621428D02*
X-1428177Y-9621428D01*
X-1428177Y-9621428D02*
X-1332939Y-9645237D01*
X-1332939Y-9645237D02*
X-1285320Y-9669047D01*
X-1285320Y-9669047D02*
X-1237700Y-9716666D01*
X-1237700Y-9716666D02*
X-1213891Y-9788094D01*
X-1213891Y-9788094D02*
X-1213891Y-9907142D01*
X-1213891Y-9145237D02*
X-1213891Y-9430951D01*
X-1213891Y-9288094D02*
X-1713891Y-9288094D01*
X-1713891Y-9288094D02*
X-1642462Y-9335713D01*
X-1642462Y-9335713D02*
X-1594843Y-9383332D01*
X-1594843Y-9383332D02*
X-1571034Y-9430951D01*
X-1713891Y-8835714D02*
X-1713891Y-8788095D01*
X-1713891Y-8788095D02*
X-1690081Y-8740476D01*
X-1690081Y-8740476D02*
X-1666272Y-8716666D01*
X-1666272Y-8716666D02*
X-1618653Y-8692857D01*
X-1618653Y-8692857D02*
X-1523415Y-8669047D01*
X-1523415Y-8669047D02*
X-1404367Y-8669047D01*
X-1404367Y-8669047D02*
X-1309129Y-8692857D01*
X-1309129Y-8692857D02*
X-1261510Y-8716666D01*
X-1261510Y-8716666D02*
X-1237700Y-8740476D01*
X-1237700Y-8740476D02*
X-1213891Y-8788095D01*
X-1213891Y-8788095D02*
X-1213891Y-8835714D01*
X-1213891Y-8835714D02*
X-1237700Y-8883333D01*
X-1237700Y-8883333D02*
X-1261510Y-8907142D01*
X-1261510Y-8907142D02*
X-1309129Y-8930952D01*
X-1309129Y-8930952D02*
X-1404367Y-8954761D01*
X-1404367Y-8954761D02*
X-1523415Y-8954761D01*
X-1523415Y-8954761D02*
X-1618653Y-8930952D01*
X-1618653Y-8930952D02*
X-1666272Y-8907142D01*
X-1666272Y-8907142D02*
X-1690081Y-8883333D01*
X-1690081Y-8883333D02*
X-1713891Y-8835714D01*
D12*
X-315115Y-9839285D02*
X-315115Y-10010714D01*
X-315115Y-9924999D02*
X-615115Y-9924999D01*
X-615115Y-9924999D02*
X-572258Y-9953571D01*
X-572258Y-9953571D02*
X-543686Y-9982142D01*
X-543686Y-9982142D02*
X-529400Y-10010714D01*
D11*
X-9369048Y1173891D02*
X-9369048Y1673891D01*
X-9369048Y1673891D02*
X-9250000Y1673891D01*
X-9250000Y1673891D02*
X-9178572Y1650081D01*
X-9178572Y1650081D02*
X-9130953Y1602462D01*
X-9130953Y1602462D02*
X-9107143Y1554843D01*
X-9107143Y1554843D02*
X-9083334Y1459605D01*
X-9083334Y1459605D02*
X-9083334Y1388177D01*
X-9083334Y1388177D02*
X-9107143Y1292939D01*
X-9107143Y1292939D02*
X-9130953Y1245320D01*
X-9130953Y1245320D02*
X-9178572Y1197700D01*
X-9178572Y1197700D02*
X-9250000Y1173891D01*
X-9250000Y1173891D02*
X-9369048Y1173891D01*
X-8916667Y1673891D02*
X-8583334Y1673891D01*
X-8583334Y1673891D02*
X-8797619Y1173891D01*
D12*
X-9839286Y315115D02*
X-10010715Y315115D01*
X-9925000Y315115D02*
X-9925000Y615115D01*
X-9925000Y615115D02*
X-9953572Y572258D01*
X-9953572Y572258D02*
X-9982143Y543686D01*
X-9982143Y543686D02*
X-10010715Y529400D01*
D11*
X-7526889Y5701144D02*
X-7276889Y6134156D01*
X-7276889Y6134156D02*
X-7173790Y6074632D01*
X-7173790Y6074632D02*
X-7123836Y6018299D01*
X-7123836Y6018299D02*
X-7106406Y5953250D01*
X-7106406Y5953250D02*
X-7109596Y5900106D01*
X-7109596Y5900106D02*
X-7136596Y5805722D01*
X-7136596Y5805722D02*
X-7172310Y5743863D01*
X-7172310Y5743863D02*
X-7240549Y5673289D01*
X-7240549Y5673289D02*
X-7284978Y5643955D01*
X-7284978Y5643955D02*
X-7350027Y5626525D01*
X-7350027Y5626525D02*
X-7423790Y5641620D01*
X-7423790Y5641620D02*
X-7526889Y5701144D01*
X-6658299Y5777013D02*
X-6740778Y5824632D01*
X-6740778Y5824632D02*
X-6793922Y5827822D01*
X-6793922Y5827822D02*
X-6826446Y5819107D01*
X-6826446Y5819107D02*
X-6903400Y5781058D01*
X-6903400Y5781058D02*
X-6971638Y5710484D01*
X-6971638Y5710484D02*
X-7066877Y5545527D01*
X-7066877Y5545527D02*
X-7070066Y5492383D01*
X-7070066Y5492383D02*
X-7061352Y5459858D01*
X-7061352Y5459858D02*
X-7032017Y5415429D01*
X-7032017Y5415429D02*
X-6949538Y5367810D01*
X-6949538Y5367810D02*
X-6896394Y5364620D01*
X-6896394Y5364620D02*
X-6863870Y5373335D01*
X-6863870Y5373335D02*
X-6819441Y5402670D01*
X-6819441Y5402670D02*
X-6759917Y5505768D01*
X-6759917Y5505768D02*
X-6756727Y5558912D01*
X-6756727Y5558912D02*
X-6765442Y5591437D01*
X-6765442Y5591437D02*
X-6794776Y5635866D01*
X-6794776Y5635866D02*
X-6877255Y5683485D01*
X-6877255Y5683485D02*
X-6930399Y5686675D01*
X-6930399Y5686675D02*
X-6962924Y5677960D01*
X-6962924Y5677960D02*
X-7007353Y5648625D01*
D12*
X-8363514Y5192540D02*
X-8511976Y5278254D01*
X-8437745Y5235397D02*
X-8287745Y5495205D01*
X-8287745Y5495205D02*
X-8333917Y5472375D01*
X-8333917Y5472375D02*
X-8372947Y5461917D01*
X-8372947Y5461917D02*
X-8404833Y5463831D01*
D10*
X-1071429Y12568991D02*
X-1404762Y12568991D01*
X-1404762Y12045181D02*
X-1404762Y13045181D01*
X-1404762Y13045181D02*
X-928572Y13045181D01*
X-547619Y12045181D02*
X-547619Y13045181D01*
X-71429Y12045181D02*
X-71429Y13045181D01*
X-71429Y13045181D02*
X166666Y13045181D01*
X166666Y13045181D02*
X309523Y12997562D01*
X309523Y12997562D02*
X404761Y12902324D01*
X404761Y12902324D02*
X452380Y12807086D01*
X452380Y12807086D02*
X499999Y12616610D01*
X499999Y12616610D02*
X499999Y12473753D01*
X499999Y12473753D02*
X452380Y12283277D01*
X452380Y12283277D02*
X404761Y12188039D01*
X404761Y12188039D02*
X309523Y12092800D01*
X309523Y12092800D02*
X166666Y12045181D01*
X166666Y12045181D02*
X-71429Y12045181D01*
X1452380Y12045181D02*
X880952Y12045181D01*
X1166666Y12045181D02*
X1166666Y13045181D01*
X1166666Y13045181D02*
X1071428Y12902324D01*
X1071428Y12902324D02*
X976190Y12807086D01*
X976190Y12807086D02*
X880952Y12759467D01*
D11*
X-9133334Y-2428490D02*
X-9157143Y-2452300D01*
X-9157143Y-2452300D02*
X-9228572Y-2476109D01*
X-9228572Y-2476109D02*
X-9276191Y-2476109D01*
X-9276191Y-2476109D02*
X-9347619Y-2452300D01*
X-9347619Y-2452300D02*
X-9395238Y-2404680D01*
X-9395238Y-2404680D02*
X-9419048Y-2357061D01*
X-9419048Y-2357061D02*
X-9442857Y-2261823D01*
X-9442857Y-2261823D02*
X-9442857Y-2190395D01*
X-9442857Y-2190395D02*
X-9419048Y-2095157D01*
X-9419048Y-2095157D02*
X-9395238Y-2047538D01*
X-9395238Y-2047538D02*
X-9347619Y-1999919D01*
X-9347619Y-1999919D02*
X-9276191Y-1976109D01*
X-9276191Y-1976109D02*
X-9228572Y-1976109D01*
X-9228572Y-1976109D02*
X-9157143Y-1999919D01*
X-9157143Y-1999919D02*
X-9133334Y-2023728D01*
X-8966667Y-1976109D02*
X-8633334Y-1976109D01*
X-8633334Y-1976109D02*
X-8847619Y-2476109D01*
X8296109Y2092858D02*
X7796109Y2092858D01*
X7796109Y2092858D02*
X7796109Y2211906D01*
X7796109Y2211906D02*
X7819919Y2283334D01*
X7819919Y2283334D02*
X7867538Y2330953D01*
X7867538Y2330953D02*
X7915157Y2354763D01*
X7915157Y2354763D02*
X8010395Y2378572D01*
X8010395Y2378572D02*
X8081823Y2378572D01*
X8081823Y2378572D02*
X8177061Y2354763D01*
X8177061Y2354763D02*
X8224680Y2330953D01*
X8224680Y2330953D02*
X8272300Y2283334D01*
X8272300Y2283334D02*
X8296109Y2211906D01*
X8296109Y2211906D02*
X8296109Y2092858D01*
X8296109Y2854763D02*
X8296109Y2569049D01*
X8296109Y2711906D02*
X7796109Y2711906D01*
X7796109Y2711906D02*
X7867538Y2664287D01*
X7867538Y2664287D02*
X7915157Y2616668D01*
X7915157Y2616668D02*
X7938966Y2569049D01*
X7796109Y3021429D02*
X7796109Y3330953D01*
X7796109Y3330953D02*
X7986585Y3164286D01*
X7986585Y3164286D02*
X7986585Y3235715D01*
X7986585Y3235715D02*
X8010395Y3283334D01*
X8010395Y3283334D02*
X8034204Y3307143D01*
X8034204Y3307143D02*
X8081823Y3330953D01*
X8081823Y3330953D02*
X8200871Y3330953D01*
X8200871Y3330953D02*
X8248490Y3307143D01*
X8248490Y3307143D02*
X8272300Y3283334D01*
X8272300Y3283334D02*
X8296109Y3235715D01*
X8296109Y3235715D02*
X8296109Y3092858D01*
X8296109Y3092858D02*
X8272300Y3045239D01*
X8272300Y3045239D02*
X8248490Y3021429D01*
X-6582924Y-6646243D02*
X-6591639Y-6678768D01*
X-6591639Y-6678768D02*
X-6641593Y-6735102D01*
X-6641593Y-6735102D02*
X-6682832Y-6758911D01*
X-6682832Y-6758911D02*
X-6756596Y-6774006D01*
X-6756596Y-6774006D02*
X-6821645Y-6756576D01*
X-6821645Y-6756576D02*
X-6866074Y-6727242D01*
X-6866074Y-6727242D02*
X-6934313Y-6656668D01*
X-6934313Y-6656668D02*
X-6970027Y-6594809D01*
X-6970027Y-6594809D02*
X-6997026Y-6500425D01*
X-6997026Y-6500425D02*
X-7000216Y-6447281D01*
X-7000216Y-6447281D02*
X-6982786Y-6382232D01*
X-6982786Y-6382232D02*
X-6932832Y-6325899D01*
X-6932832Y-6325899D02*
X-6891593Y-6302089D01*
X-6891593Y-6302089D02*
X-6817829Y-6286994D01*
X-6817829Y-6286994D02*
X-6785305Y-6295709D01*
X-6454536Y-6297190D02*
X-6507680Y-6300380D01*
X-6507680Y-6300380D02*
X-6540204Y-6291665D01*
X-6540204Y-6291665D02*
X-6584633Y-6262330D01*
X-6584633Y-6262330D02*
X-6596538Y-6241710D01*
X-6596538Y-6241710D02*
X-6599728Y-6188566D01*
X-6599728Y-6188566D02*
X-6591013Y-6156042D01*
X-6591013Y-6156042D02*
X-6561678Y-6111613D01*
X-6561678Y-6111613D02*
X-6479200Y-6063994D01*
X-6479200Y-6063994D02*
X-6426056Y-6060804D01*
X-6426056Y-6060804D02*
X-6393531Y-6069519D01*
X-6393531Y-6069519D02*
X-6349102Y-6098853D01*
X-6349102Y-6098853D02*
X-6337197Y-6119473D01*
X-6337197Y-6119473D02*
X-6334008Y-6172617D01*
X-6334008Y-6172617D02*
X-6342722Y-6205141D01*
X-6342722Y-6205141D02*
X-6372057Y-6249571D01*
X-6372057Y-6249571D02*
X-6454536Y-6297190D01*
X-6454536Y-6297190D02*
X-6483870Y-6341619D01*
X-6483870Y-6341619D02*
X-6492585Y-6374143D01*
X-6492585Y-6374143D02*
X-6489395Y-6427287D01*
X-6489395Y-6427287D02*
X-6441776Y-6509766D01*
X-6441776Y-6509766D02*
X-6397347Y-6539100D01*
X-6397347Y-6539100D02*
X-6364823Y-6547815D01*
X-6364823Y-6547815D02*
X-6311678Y-6544625D01*
X-6311678Y-6544625D02*
X-6229200Y-6497006D01*
X-6229200Y-6497006D02*
X-6199865Y-6452577D01*
X-6199865Y-6452577D02*
X-6191150Y-6420053D01*
X-6191150Y-6420053D02*
X-6194340Y-6366909D01*
X-6194340Y-6366909D02*
X-6241959Y-6284430D01*
X-6241959Y-6284430D02*
X-6286389Y-6255096D01*
X-6286389Y-6255096D02*
X-6318913Y-6246381D01*
X-6318913Y-6246381D02*
X-6372057Y-6249571D01*
X-2437090Y-9011413D02*
X-2428375Y-9043938D01*
X-2428375Y-9043938D02*
X-2443470Y-9117701D01*
X-2443470Y-9117701D02*
X-2467279Y-9158941D01*
X-2467279Y-9158941D02*
X-2523613Y-9208895D01*
X-2523613Y-9208895D02*
X-2588662Y-9226325D01*
X-2588662Y-9226325D02*
X-2641806Y-9223135D01*
X-2641806Y-9223135D02*
X-2736189Y-9196135D01*
X-2736189Y-9196135D02*
X-2798048Y-9160421D01*
X-2798048Y-9160421D02*
X-2868622Y-9092182D01*
X-2868622Y-9092182D02*
X-2897957Y-9047753D01*
X-2897957Y-9047753D02*
X-2915386Y-8982704D01*
X-2915386Y-8982704D02*
X-2900292Y-8908941D01*
X-2900292Y-8908941D02*
X-2876482Y-8867701D01*
X-2876482Y-8867701D02*
X-2820148Y-8817747D01*
X-2820148Y-8817747D02*
X-2787624Y-8809032D01*
X-2276803Y-8829026D02*
X-2229184Y-8746548D01*
X-2229184Y-8746548D02*
X-2225994Y-8693404D01*
X-2225994Y-8693404D02*
X-2234709Y-8660879D01*
X-2234709Y-8660879D02*
X-2272758Y-8583926D01*
X-2272758Y-8583926D02*
X-2343332Y-8515687D01*
X-2343332Y-8515687D02*
X-2508289Y-8420449D01*
X-2508289Y-8420449D02*
X-2561433Y-8417259D01*
X-2561433Y-8417259D02*
X-2593958Y-8425974D01*
X-2593958Y-8425974D02*
X-2638387Y-8455308D01*
X-2638387Y-8455308D02*
X-2686006Y-8537787D01*
X-2686006Y-8537787D02*
X-2689196Y-8590931D01*
X-2689196Y-8590931D02*
X-2680481Y-8623455D01*
X-2680481Y-8623455D02*
X-2651146Y-8667885D01*
X-2651146Y-8667885D02*
X-2548048Y-8727408D01*
X-2548048Y-8727408D02*
X-2494904Y-8730598D01*
X-2494904Y-8730598D02*
X-2462380Y-8721883D01*
X-2462380Y-8721883D02*
X-2417951Y-8692549D01*
X-2417951Y-8692549D02*
X-2370331Y-8610070D01*
X-2370331Y-8610070D02*
X-2367142Y-8556926D01*
X-2367142Y-8556926D02*
X-2375857Y-8524402D01*
X-2375857Y-8524402D02*
X-2405191Y-8479973D01*
X6184708Y-6510880D02*
X6152184Y-6502165D01*
X6152184Y-6502165D02*
X6095850Y-6452211D01*
X6095850Y-6452211D02*
X6072040Y-6410971D01*
X6072040Y-6410971D02*
X6056946Y-6337208D01*
X6056946Y-6337208D02*
X6074375Y-6272159D01*
X6074375Y-6272159D02*
X6103710Y-6227730D01*
X6103710Y-6227730D02*
X6174284Y-6159491D01*
X6174284Y-6159491D02*
X6236143Y-6123777D01*
X6236143Y-6123777D02*
X6330526Y-6096777D01*
X6330526Y-6096777D02*
X6383670Y-6093587D01*
X6383670Y-6093587D02*
X6448719Y-6111017D01*
X6448719Y-6111017D02*
X6505053Y-6160971D01*
X6505053Y-6160971D02*
X6528863Y-6202211D01*
X6528863Y-6202211D02*
X6543957Y-6275974D01*
X6543957Y-6275974D02*
X6535242Y-6308499D01*
X6381564Y-6947082D02*
X6238707Y-6699647D01*
X6310136Y-6823365D02*
X6743148Y-6573365D01*
X6743148Y-6573365D02*
X6657480Y-6567839D01*
X6657480Y-6567839D02*
X6592431Y-6550410D01*
X6592431Y-6550410D02*
X6548002Y-6521075D01*
X6619659Y-7359475D02*
X6476802Y-7112039D01*
X6548231Y-7235757D02*
X6981243Y-6985757D01*
X6981243Y-6985757D02*
X6895575Y-6980232D01*
X6895575Y-6980232D02*
X6830526Y-6962802D01*
X6830526Y-6962802D02*
X6786097Y-6933468D01*
X-9161414Y2537090D02*
X-9193939Y2528375D01*
X-9193939Y2528375D02*
X-9267702Y2543470D01*
X-9267702Y2543470D02*
X-9308942Y2567279D01*
X-9308942Y2567279D02*
X-9358896Y2623613D01*
X-9358896Y2623613D02*
X-9376326Y2688662D01*
X-9376326Y2688662D02*
X-9373136Y2741806D01*
X-9373136Y2741806D02*
X-9346136Y2836189D01*
X-9346136Y2836189D02*
X-9310422Y2898048D01*
X-9310422Y2898048D02*
X-9242183Y2968622D01*
X-9242183Y2968622D02*
X-9197754Y2997957D01*
X-9197754Y2997957D02*
X-9132705Y3015386D01*
X-9132705Y3015386D02*
X-9058942Y3000292D01*
X-9058942Y3000292D02*
X-9017702Y2976482D01*
X-9017702Y2976482D02*
X-8967748Y2920148D01*
X-8967748Y2920148D02*
X-8959033Y2887624D01*
X-8564070Y2714577D02*
X-8646549Y2762196D01*
X-8646549Y2762196D02*
X-8699693Y2765386D01*
X-8699693Y2765386D02*
X-8732217Y2756671D01*
X-8732217Y2756671D02*
X-8809171Y2718622D01*
X-8809171Y2718622D02*
X-8877409Y2648048D01*
X-8877409Y2648048D02*
X-8972648Y2483091D01*
X-8972648Y2483091D02*
X-8975837Y2429947D01*
X-8975837Y2429947D02*
X-8967123Y2397422D01*
X-8967123Y2397422D02*
X-8937788Y2352993D01*
X-8937788Y2352993D02*
X-8855309Y2305374D01*
X-8855309Y2305374D02*
X-8802165Y2302184D01*
X-8802165Y2302184D02*
X-8769641Y2310899D01*
X-8769641Y2310899D02*
X-8725212Y2340234D01*
X-8725212Y2340234D02*
X-8665688Y2443332D01*
X-8665688Y2443332D02*
X-8662498Y2496476D01*
X-8662498Y2496476D02*
X-8671213Y2529001D01*
X-8671213Y2529001D02*
X-8700547Y2573430D01*
X-8700547Y2573430D02*
X-8783026Y2621049D01*
X-8783026Y2621049D02*
X-8836170Y2624239D01*
X-8836170Y2624239D02*
X-8868695Y2615524D01*
X-8868695Y2615524D02*
X-8913124Y2586189D01*
X2428490Y-9521428D02*
X2452300Y-9545237D01*
X2452300Y-9545237D02*
X2476109Y-9616666D01*
X2476109Y-9616666D02*
X2476109Y-9664285D01*
X2476109Y-9664285D02*
X2452300Y-9735713D01*
X2452300Y-9735713D02*
X2404680Y-9783332D01*
X2404680Y-9783332D02*
X2357061Y-9807142D01*
X2357061Y-9807142D02*
X2261823Y-9830951D01*
X2261823Y-9830951D02*
X2190395Y-9830951D01*
X2190395Y-9830951D02*
X2095157Y-9807142D01*
X2095157Y-9807142D02*
X2047538Y-9783332D01*
X2047538Y-9783332D02*
X1999919Y-9735713D01*
X1999919Y-9735713D02*
X1976109Y-9664285D01*
X1976109Y-9664285D02*
X1976109Y-9616666D01*
X1976109Y-9616666D02*
X1999919Y-9545237D01*
X1999919Y-9545237D02*
X2023728Y-9521428D01*
X2476109Y-9045237D02*
X2476109Y-9330951D01*
X2476109Y-9188094D02*
X1976109Y-9188094D01*
X1976109Y-9188094D02*
X2047538Y-9235713D01*
X2047538Y-9235713D02*
X2095157Y-9283332D01*
X2095157Y-9283332D02*
X2118966Y-9330951D01*
X1976109Y-8735714D02*
X1976109Y-8688095D01*
X1976109Y-8688095D02*
X1999919Y-8640476D01*
X1999919Y-8640476D02*
X2023728Y-8616666D01*
X2023728Y-8616666D02*
X2071347Y-8592857D01*
X2071347Y-8592857D02*
X2166585Y-8569047D01*
X2166585Y-8569047D02*
X2285633Y-8569047D01*
X2285633Y-8569047D02*
X2380871Y-8592857D01*
X2380871Y-8592857D02*
X2428490Y-8616666D01*
X2428490Y-8616666D02*
X2452300Y-8640476D01*
X2452300Y-8640476D02*
X2476109Y-8688095D01*
X2476109Y-8688095D02*
X2476109Y-8735714D01*
X2476109Y-8735714D02*
X2452300Y-8783333D01*
X2452300Y-8783333D02*
X2428490Y-8807142D01*
X2428490Y-8807142D02*
X2380871Y-8830952D01*
X2380871Y-8830952D02*
X2285633Y-8854761D01*
X2285633Y-8854761D02*
X2166585Y-8854761D01*
X2166585Y-8854761D02*
X2071347Y-8830952D01*
X2071347Y-8830952D02*
X2023728Y-8807142D01*
X2023728Y-8807142D02*
X1999919Y-8783333D01*
X1999919Y-8783333D02*
X1976109Y-8735714D01*
X9093450Y4469660D02*
X8843450Y4902673D01*
X8843450Y4902673D02*
X8946548Y4962197D01*
X8946548Y4962197D02*
X9020312Y4977291D01*
X9020312Y4977291D02*
X9085361Y4959862D01*
X9085361Y4959862D02*
X9129790Y4930527D01*
X9129790Y4930527D02*
X9198029Y4859953D01*
X9198029Y4859953D02*
X9233743Y4798094D01*
X9233743Y4798094D02*
X9260742Y4703711D01*
X9260742Y4703711D02*
X9263932Y4650567D01*
X9263932Y4650567D02*
X9246502Y4585518D01*
X9246502Y4585518D02*
X9196548Y4529184D01*
X9196548Y4529184D02*
X9093450Y4469660D01*
X9279652Y5099529D02*
X9288367Y5132053D01*
X9288367Y5132053D02*
X9317702Y5176482D01*
X9317702Y5176482D02*
X9420800Y5236006D01*
X9420800Y5236006D02*
X9473944Y5239196D01*
X9473944Y5239196D02*
X9506469Y5230481D01*
X9506469Y5230481D02*
X9550898Y5201147D01*
X9550898Y5201147D02*
X9574707Y5159907D01*
X9574707Y5159907D02*
X9589802Y5086144D01*
X9589802Y5086144D02*
X9485223Y4695851D01*
X9485223Y4695851D02*
X9753279Y4850613D01*
D12*
X8961975Y4498832D02*
X8813514Y4413118D01*
X8887744Y4455975D02*
X8737744Y4715783D01*
X8737744Y4715783D02*
X8734429Y4664382D01*
X8734429Y4664382D02*
X8723972Y4625352D01*
X8723972Y4625352D02*
X8706371Y4598695D01*
D11*
X10466666Y911510D02*
X10442857Y887700D01*
X10442857Y887700D02*
X10371428Y863891D01*
X10371428Y863891D02*
X10323809Y863891D01*
X10323809Y863891D02*
X10252381Y887700D01*
X10252381Y887700D02*
X10204762Y935320D01*
X10204762Y935320D02*
X10180952Y982939D01*
X10180952Y982939D02*
X10157143Y1078177D01*
X10157143Y1078177D02*
X10157143Y1149605D01*
X10157143Y1149605D02*
X10180952Y1244843D01*
X10180952Y1244843D02*
X10204762Y1292462D01*
X10204762Y1292462D02*
X10252381Y1340081D01*
X10252381Y1340081D02*
X10323809Y1363891D01*
X10323809Y1363891D02*
X10371428Y1363891D01*
X10371428Y1363891D02*
X10442857Y1340081D01*
X10442857Y1340081D02*
X10466666Y1316272D01*
X10942857Y863891D02*
X10657143Y863891D01*
X10800000Y863891D02*
X10800000Y1363891D01*
X10800000Y1363891D02*
X10752381Y1292462D01*
X10752381Y1292462D02*
X10704762Y1244843D01*
X10704762Y1244843D02*
X10657143Y1221034D01*
X6717076Y6153757D02*
X6708361Y6121232D01*
X6708361Y6121232D02*
X6658407Y6064898D01*
X6658407Y6064898D02*
X6617168Y6041089D01*
X6617168Y6041089D02*
X6543404Y6025994D01*
X6543404Y6025994D02*
X6478355Y6043424D01*
X6478355Y6043424D02*
X6433926Y6072758D01*
X6433926Y6072758D02*
X6365687Y6143332D01*
X6365687Y6143332D02*
X6329973Y6205191D01*
X6329973Y6205191D02*
X6302974Y6299575D01*
X6302974Y6299575D02*
X6299784Y6352719D01*
X6299784Y6352719D02*
X6317214Y6417768D01*
X6317214Y6417768D02*
X6367168Y6474101D01*
X6367168Y6474101D02*
X6408407Y6497911D01*
X6408407Y6497911D02*
X6482171Y6513006D01*
X6482171Y6513006D02*
X6514695Y6504291D01*
X6679652Y6599529D02*
X6688367Y6632053D01*
X6688367Y6632053D02*
X6717702Y6676482D01*
X6717702Y6676482D02*
X6820800Y6736006D01*
X6820800Y6736006D02*
X6873944Y6739196D01*
X6873944Y6739196D02*
X6906469Y6730481D01*
X6906469Y6730481D02*
X6950898Y6701147D01*
X6950898Y6701147D02*
X6974707Y6659907D01*
X6974707Y6659907D02*
X6989802Y6586144D01*
X6989802Y6586144D02*
X6885223Y6195851D01*
X6885223Y6195851D02*
X7153279Y6350613D01*
X-3667905Y8700779D02*
X-3234892Y8950779D01*
X-3234892Y8950779D02*
X-3175368Y8847681D01*
X-3175368Y8847681D02*
X-3160274Y8773917D01*
X-3160274Y8773917D02*
X-3177703Y8708868D01*
X-3177703Y8708868D02*
X-3207038Y8664439D01*
X-3207038Y8664439D02*
X-3277612Y8596200D01*
X-3277612Y8596200D02*
X-3339471Y8560486D01*
X-3339471Y8560486D02*
X-3433854Y8533487D01*
X-3433854Y8533487D02*
X-3486998Y8530297D01*
X-3486998Y8530297D02*
X-3552047Y8547727D01*
X-3552047Y8547727D02*
X-3608381Y8597681D01*
X-3608381Y8597681D02*
X-3667905Y8700779D01*
X-2865844Y8311570D02*
X-2984892Y8517766D01*
X-2984892Y8517766D02*
X-3202993Y8419338D01*
X-3202993Y8419338D02*
X-3170469Y8410624D01*
X-3170469Y8410624D02*
X-3126040Y8381289D01*
X-3126040Y8381289D02*
X-3066516Y8278191D01*
X-3066516Y8278191D02*
X-3063326Y8225047D01*
X-3063326Y8225047D02*
X-3072041Y8192522D01*
X-3072041Y8192522D02*
X-3101376Y8148093D01*
X-3101376Y8148093D02*
X-3204474Y8088569D01*
X-3204474Y8088569D02*
X-3257618Y8085379D01*
X-3257618Y8085379D02*
X-3290142Y8094094D01*
X-3290142Y8094094D02*
X-3334571Y8123429D01*
X-3334571Y8123429D02*
X-3394095Y8226527D01*
X-3394095Y8226527D02*
X-3397285Y8279671D01*
X-3397285Y8279671D02*
X-3388570Y8312196D01*
D12*
X-4646747Y8678629D02*
X-4732461Y8827090D01*
X-4689604Y8752860D02*
X-4429796Y8902860D01*
X-4429796Y8902860D02*
X-4481197Y8906175D01*
X-4481197Y8906175D02*
X-4520227Y8916632D01*
X-4520227Y8916632D02*
X-4546884Y8934233D01*
D11*
X9382389Y-3143862D02*
X9349865Y-3152577D01*
X9349865Y-3152577D02*
X9276101Y-3137482D01*
X9276101Y-3137482D02*
X9234862Y-3113672D01*
X9234862Y-3113672D02*
X9184908Y-3057339D01*
X9184908Y-3057339D02*
X9167478Y-2992290D01*
X9167478Y-2992290D02*
X9170668Y-2939146D01*
X9170668Y-2939146D02*
X9197667Y-2844762D01*
X9197667Y-2844762D02*
X9233382Y-2782903D01*
X9233382Y-2782903D02*
X9301620Y-2712329D01*
X9301620Y-2712329D02*
X9346049Y-2682995D01*
X9346049Y-2682995D02*
X9411098Y-2665565D01*
X9411098Y-2665565D02*
X9484862Y-2680660D01*
X9484862Y-2680660D02*
X9526101Y-2704469D01*
X9526101Y-2704469D02*
X9576055Y-2760803D01*
X9576055Y-2760803D02*
X9584770Y-2793328D01*
X9770973Y-3423196D02*
X9523537Y-3280339D01*
X9647255Y-3351768D02*
X9897255Y-2918755D01*
X9897255Y-2918755D02*
X9820301Y-2956804D01*
X9820301Y-2956804D02*
X9755253Y-2974234D01*
X9755253Y-2974234D02*
X9702108Y-2971044D01*
X10162120Y-3126661D02*
X10194645Y-3117946D01*
X10194645Y-3117946D02*
X10247789Y-3121136D01*
X10247789Y-3121136D02*
X10350887Y-3180660D01*
X10350887Y-3180660D02*
X10380221Y-3225089D01*
X10380221Y-3225089D02*
X10388936Y-3257613D01*
X10388936Y-3257613D02*
X10385746Y-3310757D01*
X10385746Y-3310757D02*
X10361937Y-3351996D01*
X10361937Y-3351996D02*
X10305603Y-3401951D01*
X10305603Y-3401951D02*
X9915310Y-3506529D01*
X9915310Y-3506529D02*
X10183366Y-3661291D01*
X-5701144Y-7526888D02*
X-6134156Y-7276888D01*
X-6134156Y-7276888D02*
X-6074632Y-7173789D01*
X-6074632Y-7173789D02*
X-6018299Y-7123835D01*
X-6018299Y-7123835D02*
X-5953250Y-7106405D01*
X-5953250Y-7106405D02*
X-5900106Y-7109595D01*
X-5900106Y-7109595D02*
X-5805722Y-7136595D01*
X-5805722Y-7136595D02*
X-5743863Y-7172309D01*
X-5743863Y-7172309D02*
X-5673289Y-7240548D01*
X-5673289Y-7240548D02*
X-5643955Y-7284977D01*
X-5643955Y-7284977D02*
X-5626525Y-7350026D01*
X-5626525Y-7350026D02*
X-5641620Y-7423789D01*
X-5641620Y-7423789D02*
X-5701144Y-7526888D01*
X-5439239Y-7073255D02*
X-5391620Y-6990777D01*
X-5391620Y-6990777D02*
X-5388430Y-6937633D01*
X-5388430Y-6937633D02*
X-5397145Y-6905108D01*
X-5397145Y-6905108D02*
X-5435194Y-6828155D01*
X-5435194Y-6828155D02*
X-5505768Y-6759916D01*
X-5505768Y-6759916D02*
X-5670725Y-6664678D01*
X-5670725Y-6664678D02*
X-5723869Y-6661488D01*
X-5723869Y-6661488D02*
X-5756394Y-6670203D01*
X-5756394Y-6670203D02*
X-5800823Y-6699537D01*
X-5800823Y-6699537D02*
X-5848442Y-6782016D01*
X-5848442Y-6782016D02*
X-5851632Y-6835160D01*
X-5851632Y-6835160D02*
X-5842917Y-6867684D01*
X-5842917Y-6867684D02*
X-5813582Y-6912114D01*
X-5813582Y-6912114D02*
X-5710484Y-6971637D01*
X-5710484Y-6971637D02*
X-5657340Y-6974827D01*
X-5657340Y-6974827D02*
X-5624816Y-6966112D01*
X-5624816Y-6966112D02*
X-5580387Y-6936778D01*
X-5580387Y-6936778D02*
X-5532767Y-6854299D01*
X-5532767Y-6854299D02*
X-5529578Y-6801155D01*
X-5529578Y-6801155D02*
X-5538293Y-6768631D01*
X-5538293Y-6768631D02*
X-5567627Y-6724202D01*
D12*
X-5192540Y-8363513D02*
X-5278254Y-8511975D01*
X-5235397Y-8437744D02*
X-5495205Y-8287744D01*
X-5495205Y-8287744D02*
X-5472375Y-8333916D01*
X-5472375Y-8333916D02*
X-5461917Y-8372946D01*
X-5461917Y-8372946D02*
X-5463831Y-8404832D01*
D11*
X5723728Y6661570D02*
X5290716Y6911570D01*
X5290716Y6911570D02*
X5350240Y7014669D01*
X5350240Y7014669D02*
X5406573Y7064623D01*
X5406573Y7064623D02*
X5471622Y7082053D01*
X5471622Y7082053D02*
X5524766Y7078863D01*
X5524766Y7078863D02*
X5619150Y7051863D01*
X5619150Y7051863D02*
X5681009Y7016149D01*
X5681009Y7016149D02*
X5751583Y6947910D01*
X5751583Y6947910D02*
X5780917Y6903481D01*
X5780917Y6903481D02*
X5798347Y6838432D01*
X5798347Y6838432D02*
X5783252Y6764669D01*
X5783252Y6764669D02*
X5723728Y6661570D01*
X5516906Y7303344D02*
X5671668Y7571399D01*
X5671668Y7571399D02*
X5753292Y7331824D01*
X5753292Y7331824D02*
X5789006Y7393683D01*
X5789006Y7393683D02*
X5833435Y7423017D01*
X5833435Y7423017D02*
X5865960Y7431732D01*
X5865960Y7431732D02*
X5919104Y7428542D01*
X5919104Y7428542D02*
X6022202Y7369018D01*
X6022202Y7369018D02*
X6051537Y7324589D01*
X6051537Y7324589D02*
X6060252Y7292065D01*
X6060252Y7292065D02*
X6057062Y7238921D01*
X6057062Y7238921D02*
X5985633Y7115203D01*
X5985633Y7115203D02*
X5941204Y7085868D01*
X5941204Y7085868D02*
X5908680Y7077153D01*
D12*
X5511882Y8377091D02*
X5426168Y8228629D01*
X5469025Y8302860D02*
X5209217Y8452860D01*
X5209217Y8452860D02*
X5232047Y8406688D01*
X5232047Y8406688D02*
X5242505Y8367658D01*
X5242505Y8367658D02*
X5240591Y8335772D01*
D11*
X8616666Y-2576109D02*
X8450000Y-2338014D01*
X8330952Y-2576109D02*
X8330952Y-2076109D01*
X8330952Y-2076109D02*
X8521428Y-2076109D01*
X8521428Y-2076109D02*
X8569047Y-2099919D01*
X8569047Y-2099919D02*
X8592857Y-2123728D01*
X8592857Y-2123728D02*
X8616666Y-2171347D01*
X8616666Y-2171347D02*
X8616666Y-2242776D01*
X8616666Y-2242776D02*
X8592857Y-2290395D01*
X8592857Y-2290395D02*
X8569047Y-2314204D01*
X8569047Y-2314204D02*
X8521428Y-2338014D01*
X8521428Y-2338014D02*
X8330952Y-2338014D01*
X9092857Y-2576109D02*
X8807143Y-2576109D01*
X8950000Y-2576109D02*
X8950000Y-2076109D01*
X8950000Y-2076109D02*
X8902381Y-2147538D01*
X8902381Y-2147538D02*
X8854762Y-2195157D01*
X8854762Y-2195157D02*
X8807143Y-2218966D01*
X2712910Y8688587D02*
X2721625Y8656062D01*
X2721625Y8656062D02*
X2706530Y8582299D01*
X2706530Y8582299D02*
X2682721Y8541059D01*
X2682721Y8541059D02*
X2626387Y8491105D01*
X2626387Y8491105D02*
X2561338Y8473675D01*
X2561338Y8473675D02*
X2508194Y8476865D01*
X2508194Y8476865D02*
X2413811Y8503865D01*
X2413811Y8503865D02*
X2351952Y8539579D01*
X2351952Y8539579D02*
X2281378Y8607818D01*
X2281378Y8607818D02*
X2252043Y8652247D01*
X2252043Y8652247D02*
X2234614Y8717296D01*
X2234614Y8717296D02*
X2249708Y8791059D01*
X2249708Y8791059D02*
X2273518Y8832299D01*
X2273518Y8832299D02*
X2329852Y8882253D01*
X2329852Y8882253D02*
X2362376Y8890968D01*
X2404470Y9059115D02*
X2559232Y9327170D01*
X2559232Y9327170D02*
X2640856Y9087595D01*
X2640856Y9087595D02*
X2676570Y9149454D01*
X2676570Y9149454D02*
X2720999Y9178788D01*
X2720999Y9178788D02*
X2753524Y9187503D01*
X2753524Y9187503D02*
X2806668Y9184313D01*
X2806668Y9184313D02*
X2909766Y9124789D01*
X2909766Y9124789D02*
X2939101Y9080360D01*
X2939101Y9080360D02*
X2947816Y9047836D01*
X2947816Y9047836D02*
X2944626Y8994692D01*
X2944626Y8994692D02*
X2873197Y8870974D01*
X2873197Y8870974D02*
X2828768Y8841639D01*
X2828768Y8841639D02*
X2796244Y8832924D01*
X3338878Y-7483107D02*
X3663878Y-8046024D01*
X3901795Y-7158107D02*
X3338878Y-7483107D01*
X8150000Y-850000D02*
X8800000Y-850000D01*
X8150000Y-200000D02*
X8150000Y-850000D01*
X850000Y8150000D02*
X850000Y8800000D01*
X200000Y8150000D02*
X850000Y8150000D01*
X6633107Y-4811122D02*
X7196024Y-5136122D01*
X6958107Y-4248205D02*
X6633107Y-4811122D01*
X-7483107Y-3338878D02*
X-8046024Y-3663878D01*
X-7158107Y-3901795D02*
X-7483107Y-3338878D01*
X-850000Y-8150000D02*
X-850000Y-8800000D01*
X-200000Y-8150000D02*
X-850000Y-8150000D01*
X-8150000Y850000D02*
X-8800000Y850000D01*
X-8150000Y200000D02*
X-8150000Y850000D01*
X-6633107Y4811122D02*
X-7196024Y5136122D01*
X-6958107Y4248205D02*
X-6633107Y4811122D01*
D13*
X8450000Y1940000D02*
X9250000Y1940000D01*
X8450000Y3300000D02*
X8450000Y1940000D01*
X9250000Y3300000D02*
X9250000Y1940000D01*
D11*
X7483107Y3338878D02*
X8046024Y3663878D01*
X7158107Y3901795D02*
X7483107Y3338878D01*
X-3338878Y7483107D02*
X-3663878Y8046024D01*
X-3901795Y7158107D02*
X-3338878Y7483107D01*
X-4811122Y-6633107D02*
X-5136122Y-7196024D01*
X-4248205Y-6958107D02*
X-4811122Y-6633107D01*
X4811122Y6633107D02*
X5136122Y7196024D01*
X4248205Y6958107D02*
X4811122Y6633107D01*
M02*
