G04 #@! TF.GenerationSoftware,KiCad,Pcbnew,7.0.9-7.0.9~ubuntu23.04.1*
G04 #@! TF.CreationDate,2024-01-08T22:13:00+00:00*
G04 #@! TF.ProjectId,pedalboard-led-ring,70656461-6c62-46f6-9172-642d6c65642d,1.1.0-RC1*
G04 #@! TF.SameCoordinates,Original*
G04 #@! TF.FileFunction,Copper,L2,Bot*
G04 #@! TF.FilePolarity,Positive*
%FSLAX46Y46*%
G04 Gerber Fmt 4.6, Leading zero omitted, Abs format (unit mm)*
G04 Created by KiCad (PCBNEW 7.0.9-7.0.9~ubuntu23.04.1) date 2024-01-08 22:13:00*
%MOMM*%
%LPD*%
G01*
G04 APERTURE LIST*
G04 #@! TA.AperFunction,SMDPad,CuDef*
%ADD10R,1.000000X2.750000*%
G04 #@! TD*
G04 #@! TA.AperFunction,ViaPad*
%ADD11C,0.800000*%
G04 #@! TD*
G04 #@! TA.AperFunction,Conductor*
%ADD12C,0.250000*%
G04 #@! TD*
G04 APERTURE END LIST*
G04 #@! TA.AperFunction,EtchedComponent*
G36*
X6190510Y5801325D02*
G01*
X5730884Y5415653D01*
X5409490Y5798675D01*
X5869116Y6184347D01*
X6190510Y5801325D01*
G37*
G04 #@! TD.AperFunction*
D10*
X11000000Y3125000D03*
X11000000Y-3125000D03*
X9000000Y3125000D03*
X9000000Y-3125000D03*
G04 #@! TA.AperFunction,SMDPad,CuDef*
G36*
X6470952Y6167184D02*
G01*
X6792345Y5784162D01*
X6788447Y5780891D01*
X6834186Y5726381D01*
X6891245Y5596004D01*
X6909260Y5454835D01*
X6886774Y5314307D01*
X6825608Y5185808D01*
X6730717Y5079746D01*
X6347695Y4758352D01*
X6226766Y4683320D01*
X6089598Y4645397D01*
X5947300Y4647655D01*
X5811404Y4689910D01*
X5692916Y4768742D01*
X5647177Y4823251D01*
X5643279Y4819980D01*
X5321885Y5203003D01*
X6470952Y6167184D01*
G37*
G04 #@! TD.AperFunction*
G04 #@! TA.AperFunction,SMDPad,CuDef*
G36*
X4811553Y5819109D02*
G01*
X4765814Y5873619D01*
X4708755Y6003996D01*
X4690740Y6145165D01*
X4713226Y6285693D01*
X4774392Y6414192D01*
X4869283Y6520254D01*
X5252305Y6841648D01*
X5373234Y6916680D01*
X5510402Y6954603D01*
X5652700Y6952345D01*
X5788596Y6910090D01*
X5907084Y6831258D01*
X5952823Y6776749D01*
X5956721Y6780020D01*
X6278115Y6396997D01*
X5129048Y5432816D01*
X4807655Y5815838D01*
X4811553Y5819109D01*
G37*
G04 #@! TD.AperFunction*
D11*
X6950000Y-3150000D03*
X-6000000Y8000000D03*
X-9928203Y-1196152D03*
X-3928203Y-9196152D03*
X10079502Y3350000D03*
X1196152Y-9928203D03*
X3928203Y9196152D03*
X-8000000Y-6000000D03*
X6000000Y-7940000D03*
X-9196152Y3928203D03*
X8000000Y6000000D03*
X8260000Y-6020000D03*
X-1196152Y9928203D03*
X10400000Y-1400000D03*
X11150000Y-1400000D03*
X11150000Y-4850000D03*
X10400000Y-4850000D03*
X7698157Y1448157D03*
X7910000Y-1150000D03*
D12*
X6950000Y-3150000D02*
X8975000Y-3150000D01*
X8975000Y-3150000D02*
X9000000Y-3125000D01*
X11000000Y-4250000D02*
X10400000Y-4850000D01*
X11000000Y-4700000D02*
X11150000Y-4850000D01*
X11100000Y-4900000D02*
X10400000Y-4900000D01*
X11000000Y-3125000D02*
X11000000Y-1550000D01*
X11000000Y-2000000D02*
X10400000Y-1400000D01*
X11000000Y-1550000D02*
X11150000Y-1400000D01*
X11000000Y-3125000D02*
X11000000Y-4700000D01*
X7698157Y1448157D02*
X7698157Y2601843D01*
X6017812Y4282188D02*
X6017812Y5302071D01*
X7698157Y2601843D02*
X6017812Y4282188D01*
X7910000Y-1200000D02*
X9000000Y-1200000D01*
X9000000Y-1200000D02*
X9000000Y3125000D01*
G04 #@! TA.AperFunction,Conductor*
G36*
X329649Y11990507D02*
G01*
X662213Y11980929D01*
X664833Y11980784D01*
X675246Y11979930D01*
X1005442Y11952850D01*
X1238041Y11932709D01*
X1332588Y11924522D01*
X1335048Y11924247D01*
X1362018Y11920546D01*
X1674614Y11877649D01*
X1998793Y11830655D01*
X2000963Y11830289D01*
X2337916Y11765160D01*
X2659622Y11699431D01*
X2993785Y11615711D01*
X3242335Y11549825D01*
X3310959Y11531633D01*
X3640167Y11429784D01*
X3951871Y11327627D01*
X4275077Y11207964D01*
X4580336Y11088058D01*
X4896588Y10950927D01*
X5194372Y10813682D01*
X5502695Y10659503D01*
X5792081Y10505351D01*
X6091562Y10334577D01*
X6272868Y10224155D01*
X6371594Y10164027D01*
X6661270Y9977209D01*
X6931081Y9790786D01*
X7096830Y9670608D01*
X7210114Y9588470D01*
X7468769Y9386812D01*
X7736340Y9169595D01*
X7983000Y8953351D01*
X8238290Y8721903D01*
X8472187Y8491733D01*
X8714388Y8246800D01*
X8934767Y8003421D01*
X9162393Y7746618D01*
X9163894Y7744842D01*
X9369367Y7489847D01*
X9582406Y7221324D01*
X9583896Y7219347D01*
X9774842Y6952265D01*
X9972367Y6673308D01*
X9973827Y6671126D01*
X10151262Y6390052D01*
X10318589Y6124098D01*
X10319695Y6121515D01*
X10326181Y6111936D01*
X10327828Y6109333D01*
X10329664Y6106219D01*
X10341737Y6100848D01*
X11955276Y5029107D01*
X11993287Y4981163D01*
X11999500Y4946643D01*
X11999500Y-4951943D01*
X11980593Y-5010134D01*
X11962049Y-5029485D01*
X11896850Y-5081237D01*
X11839517Y-5102605D01*
X11780574Y-5086193D01*
X11742535Y-5038270D01*
X11737148Y-4990776D01*
X11755682Y-4850000D01*
X11735044Y-4693238D01*
X11699884Y-4608356D01*
X11694252Y-4551157D01*
X11700500Y-4519748D01*
X11700500Y-1730252D01*
X11700499Y-1730250D01*
X11700499Y-1730244D01*
X11694252Y-1698841D01*
X11699884Y-1641643D01*
X11735044Y-1556762D01*
X11755682Y-1400000D01*
X11735044Y-1243238D01*
X11725689Y-1220652D01*
X11674537Y-1097161D01*
X11674537Y-1097160D01*
X11578286Y-971723D01*
X11578285Y-971722D01*
X11578282Y-971718D01*
X11578277Y-971714D01*
X11578276Y-971713D01*
X11491350Y-905013D01*
X11452841Y-875464D01*
X11452840Y-875463D01*
X11452838Y-875462D01*
X11306766Y-814957D01*
X11306758Y-814955D01*
X11150001Y-794318D01*
X11149999Y-794318D01*
X10993241Y-814955D01*
X10993236Y-814957D01*
X10847164Y-875462D01*
X10847159Y-875464D01*
X10835264Y-884590D01*
X10777591Y-905013D01*
X10718925Y-887635D01*
X10714758Y-884608D01*
X10702841Y-875464D01*
X10556762Y-814956D01*
X10556759Y-814955D01*
X10556758Y-814955D01*
X10400001Y-794318D01*
X10399999Y-794318D01*
X10243241Y-814955D01*
X10243233Y-814957D01*
X10097161Y-875462D01*
X10097160Y-875462D01*
X9971723Y-971713D01*
X9971713Y-971723D01*
X9875462Y-1097160D01*
X9875462Y-1097161D01*
X9814957Y-1243233D01*
X9814955Y-1243241D01*
X9794318Y-1399999D01*
X9794318Y-1400000D01*
X9810105Y-1519919D01*
X9798955Y-1580080D01*
X9754572Y-1622197D01*
X9693910Y-1630183D01*
X9653838Y-1609100D01*
X9652659Y-1610865D01*
X9578233Y-1561134D01*
X9578231Y-1561133D01*
X9578228Y-1561132D01*
X9578227Y-1561132D01*
X9519758Y-1549501D01*
X9519748Y-1549500D01*
X9345544Y-1549500D01*
X9287353Y-1530593D01*
X9251389Y-1481093D01*
X9251389Y-1419907D01*
X9259800Y-1401012D01*
X9260385Y-1399999D01*
X9263318Y-1394918D01*
X9273221Y-1380775D01*
X9286238Y-1365263D01*
X9286237Y-1365263D01*
X9286240Y-1365261D01*
X9293173Y-1346211D01*
X9300459Y-1330588D01*
X9310588Y-1313045D01*
X9314104Y-1293096D01*
X9318572Y-1276426D01*
X9325500Y-1257394D01*
X9325500Y-1142606D01*
X9325500Y1450500D01*
X9344407Y1508691D01*
X9393907Y1544655D01*
X9424500Y1549500D01*
X9519747Y1549500D01*
X9519748Y1549500D01*
X9578231Y1561133D01*
X9644552Y1605448D01*
X9688867Y1671769D01*
X9695519Y1705209D01*
X10200001Y1705209D01*
X10202909Y1680126D01*
X10248213Y1577523D01*
X10327522Y1498214D01*
X10430127Y1452910D01*
X10455203Y1450001D01*
X10849998Y1450001D01*
X10850000Y1450002D01*
X11150000Y1450002D01*
X11150001Y1450001D01*
X11544790Y1450001D01*
X11544791Y1450002D01*
X11569874Y1452910D01*
X11672477Y1498214D01*
X11751786Y1577523D01*
X11797090Y1680128D01*
X11799999Y1705203D01*
X11800000Y1705205D01*
X11800000Y2974999D01*
X11799999Y2975000D01*
X11150001Y2975000D01*
X11150000Y2974999D01*
X11150000Y1450002D01*
X10850000Y1450002D01*
X10850000Y2974999D01*
X10849999Y2975000D01*
X10200002Y2975000D01*
X10200001Y2974999D01*
X10200001Y1705209D01*
X9695519Y1705209D01*
X9700500Y1730252D01*
X9700500Y3275001D01*
X10200000Y3275001D01*
X10200001Y3275000D01*
X10849999Y3275000D01*
X10850000Y3275001D01*
X11150000Y3275001D01*
X11150001Y3275000D01*
X11799998Y3275000D01*
X11799999Y3275001D01*
X11799999Y4544790D01*
X11799998Y4544792D01*
X11797090Y4569875D01*
X11751786Y4672478D01*
X11672477Y4751787D01*
X11569872Y4797091D01*
X11544797Y4800000D01*
X11150001Y4800000D01*
X11150000Y4799999D01*
X11150000Y3275001D01*
X10850000Y3275001D01*
X10850000Y4799999D01*
X10849999Y4800000D01*
X10455210Y4800000D01*
X10455207Y4799999D01*
X10430125Y4797091D01*
X10327522Y4751787D01*
X10248213Y4672478D01*
X10202909Y4569873D01*
X10200000Y4544798D01*
X10200000Y3275001D01*
X9700500Y3275001D01*
X9700500Y4519748D01*
X9688867Y4578231D01*
X9644552Y4644552D01*
X9644548Y4644555D01*
X9578233Y4688866D01*
X9578231Y4688867D01*
X9578228Y4688868D01*
X9578227Y4688868D01*
X9519758Y4700499D01*
X9519748Y4700500D01*
X8480252Y4700500D01*
X8480251Y4700500D01*
X8480241Y4700499D01*
X8421772Y4688868D01*
X8421766Y4688866D01*
X8355451Y4644555D01*
X8355445Y4644549D01*
X8311134Y4578234D01*
X8311132Y4578228D01*
X8299501Y4519759D01*
X8299500Y4519747D01*
X8299500Y1942386D01*
X8280593Y1884195D01*
X8231093Y1848231D01*
X8169907Y1848231D01*
X8130496Y1872382D01*
X8126437Y1876441D01*
X8062389Y1925587D01*
X8027734Y1976012D01*
X8023657Y2004129D01*
X8023657Y2585470D01*
X8023844Y2589771D01*
X8027421Y2630650D01*
X8016797Y2670295D01*
X8015867Y2674495D01*
X8008745Y2714888D01*
X8007997Y2716184D01*
X7998099Y2740076D01*
X7997711Y2741527D01*
X7997709Y2741530D01*
X7997708Y2741532D01*
X7974182Y2775131D01*
X7971860Y2778775D01*
X7951350Y2814300D01*
X7927181Y2834579D01*
X7919922Y2840670D01*
X7916745Y2843582D01*
X6448354Y4311972D01*
X6420577Y4366489D01*
X6430148Y4426921D01*
X6466161Y4466098D01*
X6512176Y4494648D01*
X6578830Y4550577D01*
X6583623Y4555936D01*
X6593761Y4565759D01*
X6877653Y4803973D01*
X6889092Y4812255D01*
X6895200Y4816043D01*
X6961853Y4871972D01*
X7057720Y4979125D01*
X7105918Y5051570D01*
X7167713Y5181391D01*
X7193549Y5264477D01*
X7197230Y5287476D01*
X7216265Y5406437D01*
X7216266Y5406444D01*
X7216267Y5406449D01*
X7217647Y5493455D01*
X7199445Y5636076D01*
X7176260Y5719939D01*
X7170905Y5732174D01*
X7141146Y5800174D01*
X7118615Y5851657D01*
X7118613Y5851660D01*
X7118612Y5851663D01*
X7072739Y5925594D01*
X7072734Y5925600D01*
X7064878Y5934962D01*
X7026528Y5980666D01*
X6990627Y6023451D01*
X6705140Y6363683D01*
X6686009Y6384454D01*
X6686010Y6384454D01*
X6677747Y6390052D01*
X6592996Y6447471D01*
X6592995Y6447472D01*
X6592993Y6447473D01*
X6483507Y6472631D01*
X6483500Y6472631D01*
X6372314Y6456539D01*
X6274450Y6401370D01*
X5940990Y6121565D01*
X5929561Y6113289D01*
X5923457Y6109501D01*
X5923440Y6109489D01*
X5856795Y6053567D01*
X5851990Y6048197D01*
X5841854Y6038380D01*
X5557972Y5800174D01*
X5546541Y5791895D01*
X5540424Y5788099D01*
X5540416Y5788093D01*
X5473774Y5732174D01*
X5468972Y5726807D01*
X5458835Y5716989D01*
X5212867Y5510596D01*
X5125382Y5437187D01*
X5112920Y5425709D01*
X5104617Y5418061D01*
X5104608Y5418051D01*
X5041598Y5325049D01*
X5041596Y5325045D01*
X5016438Y5215559D01*
X5016438Y5215552D01*
X5023392Y5167500D01*
X5032530Y5104367D01*
X5057313Y5060404D01*
X5087702Y5006497D01*
X5354226Y4688866D01*
X5362885Y4678547D01*
X5455305Y4568406D01*
X5455308Y4568404D01*
X5455312Y4568399D01*
X5520148Y4510392D01*
X5520150Y4510391D01*
X5520152Y4510389D01*
X5586721Y4466100D01*
X5639860Y4430746D01*
X5642126Y4429462D01*
X5642648Y4428892D01*
X5642802Y4428789D01*
X5642776Y4428751D01*
X5683429Y4384321D01*
X5692312Y4343333D01*
X5692312Y4298563D01*
X5692124Y4294261D01*
X5689241Y4261306D01*
X5688548Y4253382D01*
X5699166Y4213752D01*
X5700101Y4209536D01*
X5707223Y4169143D01*
X5707976Y4167840D01*
X5717866Y4143964D01*
X5718255Y4142509D01*
X5718258Y4142504D01*
X5741783Y4108907D01*
X5744104Y4105264D01*
X5764618Y4069733D01*
X5796036Y4043370D01*
X5799222Y4040451D01*
X7343661Y2496013D01*
X7371438Y2441496D01*
X7372657Y2426009D01*
X7372657Y2004129D01*
X7353750Y1945938D01*
X7333925Y1925587D01*
X7269875Y1876440D01*
X7173619Y1750997D01*
X7173619Y1750996D01*
X7113114Y1604924D01*
X7113112Y1604916D01*
X7092475Y1448158D01*
X7092475Y1448157D01*
X7113112Y1291399D01*
X7113114Y1291391D01*
X7173619Y1145319D01*
X7173619Y1145318D01*
X7269870Y1019881D01*
X7269875Y1019875D01*
X7395316Y923621D01*
X7395317Y923621D01*
X7395318Y923620D01*
X7541390Y863115D01*
X7541395Y863113D01*
X7658966Y847635D01*
X7698156Y842475D01*
X7698157Y842475D01*
X7698158Y842475D01*
X7729509Y846603D01*
X7854919Y863113D01*
X8000998Y923621D01*
X8126439Y1019875D01*
X8222693Y1145316D01*
X8283201Y1291395D01*
X8303839Y1448157D01*
X8303427Y1451283D01*
X8303839Y1453504D01*
X8303839Y1454646D01*
X8304051Y1454646D01*
X8314572Y1511441D01*
X8358950Y1553562D01*
X8419612Y1561554D01*
X8420894Y1561307D01*
X8480241Y1549502D01*
X8480246Y1549502D01*
X8480252Y1549500D01*
X8575500Y1549500D01*
X8633691Y1530593D01*
X8669655Y1481093D01*
X8674500Y1450500D01*
X8674500Y-775500D01*
X8655593Y-833691D01*
X8606093Y-869655D01*
X8575500Y-874500D01*
X8504336Y-874500D01*
X8446145Y-855593D01*
X8425796Y-835769D01*
X8338282Y-721718D01*
X8338277Y-721714D01*
X8338276Y-721713D01*
X8212838Y-625462D01*
X8066766Y-564957D01*
X8066758Y-564955D01*
X7910001Y-544318D01*
X7909999Y-544318D01*
X7753241Y-564955D01*
X7753233Y-564957D01*
X7607161Y-625462D01*
X7607160Y-625462D01*
X7481723Y-721713D01*
X7481713Y-721723D01*
X7385462Y-847160D01*
X7385462Y-847161D01*
X7324957Y-993233D01*
X7324955Y-993241D01*
X7304318Y-1149999D01*
X7304318Y-1150000D01*
X7324955Y-1306758D01*
X7324957Y-1306766D01*
X7385462Y-1452838D01*
X7385462Y-1452839D01*
X7465205Y-1556762D01*
X7481718Y-1578282D01*
X7607159Y-1674536D01*
X7607160Y-1674536D01*
X7607161Y-1674537D01*
X7753233Y-1735042D01*
X7753238Y-1735044D01*
X7870809Y-1750522D01*
X7909999Y-1755682D01*
X7910000Y-1755682D01*
X7910001Y-1755682D01*
X7941352Y-1751554D01*
X8066762Y-1735044D01*
X8162616Y-1695339D01*
X8223611Y-1690539D01*
X8275780Y-1722508D01*
X8299195Y-1779036D01*
X8299500Y-1786804D01*
X8299500Y-2725500D01*
X8280593Y-2783691D01*
X8231093Y-2819655D01*
X8200500Y-2824500D01*
X7505970Y-2824500D01*
X7447779Y-2805593D01*
X7427428Y-2785767D01*
X7378285Y-2721722D01*
X7378282Y-2721718D01*
X7378277Y-2721714D01*
X7378276Y-2721713D01*
X7252838Y-2625462D01*
X7106766Y-2564957D01*
X7106758Y-2564955D01*
X6950001Y-2544318D01*
X6949999Y-2544318D01*
X6793241Y-2564955D01*
X6793233Y-2564957D01*
X6647161Y-2625462D01*
X6647160Y-2625462D01*
X6521723Y-2721713D01*
X6521713Y-2721723D01*
X6425462Y-2847160D01*
X6425462Y-2847161D01*
X6364957Y-2993233D01*
X6364955Y-2993241D01*
X6344318Y-3149999D01*
X6344318Y-3150000D01*
X6364955Y-3306758D01*
X6364957Y-3306766D01*
X6425462Y-3452838D01*
X6425462Y-3452839D01*
X6495341Y-3543907D01*
X6521718Y-3578282D01*
X6521722Y-3578285D01*
X6521723Y-3578286D01*
X6551082Y-3600813D01*
X6647159Y-3674536D01*
X6793238Y-3735044D01*
X6910809Y-3750522D01*
X6949999Y-3755682D01*
X6950000Y-3755682D01*
X6950001Y-3755682D01*
X6981352Y-3751554D01*
X7106762Y-3735044D01*
X7252841Y-3674536D01*
X7378282Y-3578282D01*
X7427428Y-3514232D01*
X7477852Y-3479577D01*
X7505970Y-3475500D01*
X8200500Y-3475500D01*
X8258691Y-3494407D01*
X8294655Y-3543907D01*
X8299500Y-3574500D01*
X8299500Y-4519746D01*
X8299501Y-4519758D01*
X8311132Y-4578227D01*
X8311134Y-4578233D01*
X8355445Y-4644548D01*
X8355448Y-4644552D01*
X8421769Y-4688867D01*
X8466231Y-4697711D01*
X8480241Y-4700498D01*
X8480246Y-4700498D01*
X8480252Y-4700500D01*
X8480253Y-4700500D01*
X9519747Y-4700500D01*
X9519748Y-4700500D01*
X9578231Y-4688867D01*
X9644552Y-4644552D01*
X9644552Y-4644551D01*
X9652659Y-4639135D01*
X9653937Y-4641048D01*
X9696454Y-4619379D01*
X9756887Y-4628943D01*
X9800156Y-4672203D01*
X9810105Y-4730080D01*
X9794318Y-4849999D01*
X9794318Y-4850000D01*
X9814955Y-5006758D01*
X9814957Y-5006766D01*
X9875462Y-5152838D01*
X9875462Y-5152839D01*
X9875464Y-5152841D01*
X9971718Y-5278282D01*
X10097159Y-5374536D01*
X10243238Y-5435044D01*
X10360809Y-5450522D01*
X10399999Y-5455682D01*
X10400000Y-5455682D01*
X10400001Y-5455682D01*
X10431352Y-5451554D01*
X10556762Y-5435044D01*
X10702841Y-5374536D01*
X10714731Y-5365411D01*
X10772407Y-5344987D01*
X10831073Y-5362363D01*
X10835258Y-5365404D01*
X10847159Y-5374536D01*
X10993238Y-5435044D01*
X11150000Y-5455682D01*
X11150001Y-5455681D01*
X11154416Y-5456263D01*
X11209641Y-5482604D01*
X11238836Y-5536374D01*
X11230850Y-5597036D01*
X11203044Y-5631957D01*
X10080960Y-6522629D01*
X10067922Y-6528784D01*
X10063854Y-6535047D01*
X10062594Y-6536763D01*
X10060955Y-6539392D01*
X9887469Y-6790921D01*
X9679996Y-7090680D01*
X9678428Y-7092822D01*
X9471795Y-7359588D01*
X9260750Y-7629321D01*
X9259164Y-7631245D01*
X9035156Y-7889602D01*
X8811582Y-8143261D01*
X8809999Y-8144975D01*
X8570765Y-8391907D01*
X8333161Y-8631638D01*
X8079128Y-8866388D01*
X7828605Y-9091193D01*
X7561555Y-9311919D01*
X7298785Y-9521315D01*
X7019615Y-9727205D01*
X6745382Y-9920643D01*
X6455091Y-10110915D01*
X6170145Y-10287908D01*
X5869730Y-10461892D01*
X5574965Y-10621896D01*
X5265397Y-10779023D01*
X4961718Y-10921546D01*
X4644051Y-11061290D01*
X4332399Y-11185876D01*
X4007658Y-11307803D01*
X3688948Y-11414053D01*
X3358308Y-11517752D01*
X3033390Y-11605330D01*
X2698061Y-11690474D01*
X2367644Y-11759098D01*
X2030221Y-11825181D01*
X2027921Y-11825576D01*
X1693408Y-11874857D01*
X1354695Y-11921947D01*
X1352218Y-11922228D01*
X1011097Y-11952243D01*
X674786Y-11980182D01*
X672136Y-11980331D01*
X307475Y-11991002D01*
X1401Y-11999461D01*
X-1381Y-11999459D01*
X-683627Y-11979969D01*
X-686450Y-11979808D01*
X-1234827Y-11932708D01*
X-1370252Y-11920859D01*
X-1372983Y-11920544D01*
X-1841370Y-11853200D01*
X-2054704Y-11821950D01*
X-2057360Y-11821487D01*
X-2487606Y-11734309D01*
X-2732310Y-11683780D01*
X-2734884Y-11683177D01*
X-3141171Y-11576384D01*
X-3400811Y-11506812D01*
X-3403296Y-11506076D01*
X-3791515Y-11379937D01*
X-4057991Y-11291636D01*
X-4060380Y-11290775D01*
X-4433092Y-11145667D01*
X-4701675Y-11038965D01*
X-4703963Y-11037989D01*
X-4917159Y-10940627D01*
X-5062394Y-10874301D01*
X-5329735Y-10749637D01*
X-5331902Y-10748561D01*
X-5676360Y-10566810D01*
X-5717227Y-10544775D01*
X-5940112Y-10424596D01*
X-5942109Y-10423456D01*
X-6210018Y-10261901D01*
X-6272614Y-10224154D01*
X-6530648Y-10064996D01*
X-6532602Y-10063726D01*
X-6848839Y-9847489D01*
X-7099527Y-9671955D01*
X-7101362Y-9670606D01*
X-7402877Y-9438103D01*
X-7644807Y-9246809D01*
X-7646521Y-9245390D01*
X-7932840Y-8997294D01*
X-8165480Y-8790262D01*
X-8436857Y-8526527D01*
X-8658153Y-8305231D01*
X-8806808Y-8143261D01*
X-8913111Y-8027436D01*
X-9122069Y-7792631D01*
X-9360006Y-7501648D01*
X-9555690Y-7254164D01*
X-9776045Y-6950871D01*
X-9957547Y-6691659D01*
X-10159800Y-6376949D01*
X-10326340Y-6106945D01*
X-10509934Y-5781844D01*
X-10600352Y-5614154D01*
X-10660841Y-5501969D01*
X-10693747Y-5435042D01*
X-10825316Y-5167444D01*
X-10959922Y-4878779D01*
X-11104834Y-4535877D01*
X-11222624Y-4239380D01*
X-11245416Y-4175501D01*
X-11347570Y-3889197D01*
X-11448055Y-3585948D01*
X-11456418Y-3557468D01*
X-11552709Y-3229530D01*
X-11635471Y-2920658D01*
X-11719544Y-2559117D01*
X-11784262Y-2245686D01*
X-11790593Y-2209105D01*
X-11847524Y-1880130D01*
X-11855117Y-1828286D01*
X-11893929Y-1563324D01*
X-11936204Y-1194888D01*
X-11953845Y-993241D01*
X-11964123Y-875776D01*
X-11985289Y-505621D01*
X-11994607Y-185346D01*
X-11994607Y0D01*
X-6105452Y0D01*
X-6098185Y-180342D01*
X-6097526Y-196682D01*
X-6097526Y-245717D01*
X-6093580Y-294603D01*
X-6085654Y-491285D01*
X-6085654Y-491291D01*
X-6085653Y-491296D01*
X-6061930Y-686674D01*
X-6057981Y-735580D01*
X-6057981Y-735581D01*
X-6050113Y-783992D01*
X-6026389Y-979379D01*
X-5987015Y-1172247D01*
X-5979149Y-1220647D01*
X-5967413Y-1268263D01*
X-5965748Y-1276419D01*
X-5928041Y-1461122D01*
X-5928038Y-1461134D01*
X-5873274Y-1650203D01*
X-5861538Y-1697816D01*
X-5846010Y-1744329D01*
X-5822487Y-1825539D01*
X-5791244Y-1933401D01*
X-5791241Y-1933410D01*
X-5791240Y-1933412D01*
X-5721451Y-2117432D01*
X-5705913Y-2163970D01*
X-5705913Y-2163971D01*
X-5686683Y-2209105D01*
X-5616894Y-2393124D01*
X-5616890Y-2393133D01*
X-5567108Y-2498047D01*
X-5532514Y-2570953D01*
X-5513283Y-2616088D01*
X-5490487Y-2659523D01*
X-5406108Y-2837347D01*
X-5307702Y-3007792D01*
X-5284896Y-3051244D01*
X-5258675Y-3092710D01*
X-5188370Y-3214480D01*
X-5160267Y-3263155D01*
X-5160264Y-3263159D01*
X-5160263Y-3263161D01*
X-5048468Y-3425124D01*
X-5022241Y-3466598D01*
X-5022233Y-3466610D01*
X-4992770Y-3505817D01*
X-4880959Y-3667803D01*
X-4848099Y-3708049D01*
X-4756477Y-3820266D01*
X-4727008Y-3859482D01*
X-4707838Y-3881120D01*
X-4694482Y-3896197D01*
X-4569999Y-4048661D01*
X-4433641Y-4190625D01*
X-4401123Y-4227330D01*
X-4365750Y-4261307D01*
X-4229398Y-4403264D01*
X-4082079Y-4533778D01*
X-4046690Y-4567769D01*
X-4008696Y-4598789D01*
X-3925829Y-4672203D01*
X-3861366Y-4729313D01*
X-3861366Y-4729312D01*
X-3704019Y-4847551D01*
X-3701019Y-4850000D01*
X-3666015Y-4878580D01*
X-3666012Y-4878582D01*
X-3625642Y-4906447D01*
X-3596298Y-4928498D01*
X-3468296Y-5024686D01*
X-3301942Y-5129882D01*
X-3261565Y-5157752D01*
X-3219084Y-5182278D01*
X-3052726Y-5287477D01*
X-2878436Y-5378951D01*
X-2835962Y-5403474D01*
X-2791644Y-5424503D01*
X-2771564Y-5435042D01*
X-2617368Y-5515970D01*
X-2617369Y-5515970D01*
X-2617363Y-5515972D01*
X-2617362Y-5515973D01*
X-2436283Y-5593123D01*
X-2391967Y-5614152D01*
X-2346097Y-5631548D01*
X-2165023Y-5708697D01*
X-2165019Y-5708698D01*
X-2165018Y-5708699D01*
X-2107609Y-5727864D01*
X-1978303Y-5771033D01*
X-1932459Y-5788420D01*
X-1919668Y-5792125D01*
X-1885347Y-5802067D01*
X-1698651Y-5864395D01*
X-1698650Y-5864395D01*
X-1698647Y-5864395D01*
X-1698643Y-5864397D01*
X-1507529Y-5911502D01*
X-1480012Y-5919473D01*
X-1460416Y-5925150D01*
X-1438507Y-5929622D01*
X-1412351Y-5934962D01*
X-1221247Y-5982065D01*
X-1221245Y-5982065D01*
X-1221242Y-5982066D01*
X-1221243Y-5982066D01*
X-1182662Y-5988335D01*
X-1026946Y-6013641D01*
X-978906Y-6023450D01*
X-930223Y-6029360D01*
X-810839Y-6048762D01*
X-735929Y-6060937D01*
X-684362Y-6065099D01*
X-539730Y-6076775D01*
X-491045Y-6082687D01*
X-442048Y-6084660D01*
X-245842Y-6100500D01*
X-245837Y-6100500D01*
X-49033Y-6100500D01*
X0Y-6102476D01*
X49033Y-6100500D01*
X245837Y-6100500D01*
X245842Y-6100500D01*
X442050Y-6084660D01*
X491045Y-6082687D01*
X539732Y-6076774D01*
X683022Y-6065207D01*
X735929Y-6060937D01*
X819819Y-6047302D01*
X930212Y-6029362D01*
X978906Y-6023450D01*
X1026959Y-6013639D01*
X1221247Y-5982065D01*
X1412360Y-5934959D01*
X1441483Y-5929014D01*
X1460416Y-5925150D01*
X1475649Y-5920737D01*
X1507515Y-5911505D01*
X1698643Y-5864397D01*
X1698646Y-5864395D01*
X1698650Y-5864395D01*
X1698651Y-5864395D01*
X1763570Y-5842721D01*
X1885369Y-5802058D01*
X1895469Y-5799134D01*
X1932448Y-5788424D01*
X1932459Y-5788420D01*
X1978308Y-5771031D01*
X2107444Y-5727919D01*
X2165018Y-5708699D01*
X2165018Y-5708698D01*
X2165023Y-5708697D01*
X2346113Y-5631541D01*
X2381359Y-5618174D01*
X2391968Y-5614152D01*
X2407583Y-5606742D01*
X2436278Y-5593125D01*
X2617362Y-5515973D01*
X2617362Y-5515972D01*
X2617369Y-5515970D01*
X2617368Y-5515970D01*
X2791657Y-5424496D01*
X2835962Y-5403474D01*
X2878424Y-5378957D01*
X3052726Y-5287477D01*
X3219100Y-5182267D01*
X3261565Y-5157752D01*
X3301942Y-5129882D01*
X3378867Y-5081237D01*
X3468292Y-5024688D01*
X3468294Y-5024686D01*
X3468301Y-5024682D01*
X3513426Y-4990772D01*
X3625653Y-4906438D01*
X3663227Y-4880503D01*
X3666018Y-4878578D01*
X3701020Y-4849999D01*
X3704002Y-4847562D01*
X3861365Y-4729313D01*
X3861366Y-4729312D01*
X3861366Y-4729313D01*
X3902085Y-4693238D01*
X4008698Y-4598786D01*
X4035563Y-4576854D01*
X4046686Y-4567773D01*
X4046685Y-4567773D01*
X4046690Y-4567769D01*
X4082053Y-4533800D01*
X4229395Y-4403267D01*
X4229397Y-4403265D01*
X4229398Y-4403265D01*
X4322042Y-4306810D01*
X4365755Y-4261300D01*
X4394500Y-4233692D01*
X4401118Y-4227336D01*
X4411053Y-4216120D01*
X4433625Y-4190640D01*
X4569996Y-4048664D01*
X4569995Y-4048664D01*
X4569999Y-4048661D01*
X4694481Y-3896197D01*
X4727009Y-3859481D01*
X4727009Y-3859482D01*
X4737098Y-3846053D01*
X4756470Y-3820273D01*
X4880959Y-3667803D01*
X4992771Y-3505813D01*
X5022239Y-3466601D01*
X5048455Y-3425141D01*
X5160263Y-3263161D01*
X5160269Y-3263153D01*
X5189939Y-3211760D01*
X5258681Y-3092696D01*
X5275394Y-3066268D01*
X5284901Y-3051236D01*
X5307701Y-3007792D01*
X5358021Y-2920635D01*
X5406109Y-2837345D01*
X5407422Y-2834579D01*
X5431568Y-2783691D01*
X5490498Y-2659498D01*
X5513284Y-2616086D01*
X5513286Y-2616082D01*
X5513286Y-2616083D01*
X5532513Y-2570953D01*
X5616890Y-2393133D01*
X5686689Y-2209087D01*
X5705914Y-2163968D01*
X5721438Y-2117461D01*
X5768850Y-1992450D01*
X5791245Y-1933401D01*
X5808802Y-1872780D01*
X5846013Y-1744313D01*
X5861538Y-1697815D01*
X5873266Y-1650227D01*
X5928039Y-1461130D01*
X5928039Y-1461126D01*
X5928041Y-1461122D01*
X5928041Y-1461123D01*
X5943088Y-1387413D01*
X5967415Y-1268250D01*
X5979148Y-1220652D01*
X5987013Y-1172253D01*
X6026388Y-979383D01*
X6050115Y-783969D01*
X6057982Y-735572D01*
X6061929Y-686674D01*
X6085654Y-491285D01*
X6093580Y-294602D01*
X6097526Y-245722D01*
X6098183Y-180358D01*
X6105452Y0D01*
X6098183Y180357D01*
X6097526Y245723D01*
X6097205Y249687D01*
X6093580Y294605D01*
X6085654Y491285D01*
X6061928Y686683D01*
X6057983Y735570D01*
X6053737Y761687D01*
X6050113Y783991D01*
X6026388Y979383D01*
X5987012Y1172260D01*
X5979148Y1220650D01*
X5967416Y1268247D01*
X5930688Y1448155D01*
X5928041Y1461123D01*
X5928041Y1461122D01*
X5928040Y1461123D01*
X5922256Y1481093D01*
X5873272Y1650205D01*
X5861537Y1697816D01*
X5861536Y1697822D01*
X5861536Y1697823D01*
X5846009Y1744330D01*
X5791245Y1933401D01*
X5721449Y2117434D01*
X5705916Y2163963D01*
X5705916Y2163964D01*
X5701033Y2175423D01*
X5686689Y2209089D01*
X5642475Y2325671D01*
X5616894Y2393125D01*
X5616893Y2393125D01*
X5616890Y2393133D01*
X5532513Y2570954D01*
X5513281Y2616093D01*
X5513281Y2616092D01*
X5490486Y2659524D01*
X5406109Y2837345D01*
X5403387Y2842059D01*
X5326634Y2974999D01*
X5307701Y3007793D01*
X5284899Y3051238D01*
X5258673Y3092711D01*
X5160267Y3263155D01*
X5048462Y3425133D01*
X5030831Y3453014D01*
X5022244Y3466594D01*
X5022236Y3466604D01*
X4992765Y3505824D01*
X4880961Y3667800D01*
X4756476Y3820267D01*
X4727008Y3859482D01*
X4706455Y3882681D01*
X4694481Y3896198D01*
X4569999Y4048661D01*
X4433640Y4190626D01*
X4401123Y4227330D01*
X4401120Y4227333D01*
X4365751Y4261306D01*
X4365750Y4261307D01*
X4229398Y4403264D01*
X4226559Y4405779D01*
X4082073Y4533783D01*
X4079887Y4535883D01*
X4046690Y4567769D01*
X4008678Y4598806D01*
X3918668Y4678547D01*
X3861366Y4729313D01*
X3861366Y4729312D01*
X3861365Y4729313D01*
X3750983Y4812260D01*
X3704018Y4847552D01*
X3674106Y4871974D01*
X3666015Y4878580D01*
X3625637Y4906451D01*
X3526213Y4981163D01*
X3468292Y5024688D01*
X3468289Y5024690D01*
X3468290Y5024690D01*
X3301940Y5129883D01*
X3261570Y5157749D01*
X3219079Y5182282D01*
X3089094Y5264479D01*
X3052726Y5287477D01*
X3052722Y5287480D01*
X3052719Y5287481D01*
X3052718Y5287482D01*
X2878445Y5378947D01*
X2862263Y5388290D01*
X2835962Y5403474D01*
X2835952Y5403479D01*
X2835950Y5403480D01*
X2791641Y5424505D01*
X2617369Y5515970D01*
X2617368Y5515970D01*
X2617362Y5515973D01*
X2436285Y5593123D01*
X2417574Y5602001D01*
X2391968Y5614152D01*
X2391969Y5614151D01*
X2391967Y5614152D01*
X2346096Y5631549D01*
X2308582Y5647532D01*
X2165023Y5708697D01*
X2165017Y5708699D01*
X2165010Y5708702D01*
X2165011Y5708702D01*
X1978315Y5771029D01*
X1932466Y5788418D01*
X1932467Y5788418D01*
X1885347Y5802067D01*
X1698647Y5864396D01*
X1507540Y5911500D01*
X1460422Y5925148D01*
X1460420Y5925149D01*
X1460418Y5925149D01*
X1412351Y5934962D01*
X1360157Y5947827D01*
X1221247Y5982065D01*
X1221244Y5982066D01*
X1221243Y5982066D01*
X1026965Y6013639D01*
X978902Y6023451D01*
X930210Y6029363D01*
X735926Y6060937D01*
X539745Y6076774D01*
X491056Y6082686D01*
X491051Y6082687D01*
X491045Y6082687D01*
X469087Y6083572D01*
X442027Y6084663D01*
X328818Y6093802D01*
X245842Y6100500D01*
X49010Y6100500D01*
X0Y6102475D01*
X-49010Y6100500D01*
X-245842Y6100500D01*
X-319509Y6094553D01*
X-442028Y6084663D01*
X-468933Y6083579D01*
X-491045Y6082687D01*
X-491053Y6082687D01*
X-491055Y6082686D01*
X-491054Y6082686D01*
X-539746Y6076774D01*
X-735926Y6060937D01*
X-930211Y6029363D01*
X-978900Y6023451D01*
X-978904Y6023451D01*
X-978906Y6023450D01*
X-994205Y6020327D01*
X-1026966Y6013639D01*
X-1221243Y5982066D01*
X-1221245Y5982066D01*
X-1221247Y5982065D01*
X-1244908Y5976233D01*
X-1412352Y5934962D01*
X-1441942Y5928922D01*
X-1460418Y5925149D01*
X-1460421Y5925149D01*
X-1460422Y5925148D01*
X-1507541Y5911500D01*
X-1698647Y5864396D01*
X-1885348Y5802067D01*
X-1932462Y5788419D01*
X-1978317Y5771029D01*
X-2165022Y5708698D01*
X-2165021Y5708698D01*
X-2346103Y5631546D01*
X-2391964Y5614153D01*
X-2391965Y5614153D01*
X-2436286Y5593123D01*
X-2538969Y5549374D01*
X-2617362Y5515973D01*
X-2617368Y5515970D01*
X-2617369Y5515970D01*
X-2791642Y5424506D01*
X-2835968Y5403471D01*
X-2835969Y5403470D01*
X-2878445Y5378947D01*
X-2970894Y5330426D01*
X-3052726Y5287477D01*
X-3052728Y5287476D01*
X-3219079Y5182282D01*
X-3261560Y5157755D01*
X-3261559Y5157756D01*
X-3301942Y5129883D01*
X-3468290Y5024690D01*
X-3468289Y5024690D01*
X-3625638Y4906451D01*
X-3666022Y4878575D01*
X-3666021Y4878575D01*
X-3704019Y4847552D01*
X-3861366Y4729313D01*
X-4008683Y4598801D01*
X-4046687Y4567772D01*
X-4082076Y4533781D01*
X-4126251Y4494645D01*
X-4226559Y4405779D01*
X-4229398Y4403264D01*
X-4365751Y4261306D01*
X-4401118Y4227336D01*
X-4433641Y4190626D01*
X-4497890Y4123736D01*
X-4569996Y4048664D01*
X-4570004Y4048654D01*
X-4570005Y4048654D01*
X-4694482Y3896198D01*
X-4727007Y3859484D01*
X-4756477Y3820267D01*
X-4837916Y3720523D01*
X-4880959Y3667803D01*
X-4978855Y3525977D01*
X-4992765Y3505824D01*
X-5022239Y3466601D01*
X-5022243Y3466594D01*
X-5048462Y3425133D01*
X-5160267Y3263155D01*
X-5179643Y3229594D01*
X-5258674Y3092711D01*
X-5284899Y3051238D01*
X-5307702Y3007793D01*
X-5406108Y2837347D01*
X-5490487Y2659524D01*
X-5504873Y2632114D01*
X-5513284Y2616086D01*
X-5513285Y2616083D01*
X-5532514Y2570954D01*
X-5616890Y2393135D01*
X-5686683Y2209106D01*
X-5686683Y2209105D01*
X-5705914Y2163968D01*
X-5713274Y2141924D01*
X-5721450Y2117434D01*
X-5791242Y1933407D01*
X-5791242Y1933408D01*
X-5846010Y1744330D01*
X-5861538Y1697816D01*
X-5873274Y1650204D01*
X-5922257Y1481093D01*
X-5928039Y1461130D01*
X-5928330Y1459706D01*
X-5967413Y1268264D01*
X-5979148Y1220652D01*
X-5979149Y1220645D01*
X-5979149Y1220646D01*
X-5987015Y1172248D01*
X-6026389Y979379D01*
X-6050113Y783994D01*
X-6057981Y735579D01*
X-6061930Y686675D01*
X-6085653Y491295D01*
X-6085654Y491285D01*
X-6085673Y490806D01*
X-6093580Y294605D01*
X-6097525Y245723D01*
X-6097526Y245716D01*
X-6097526Y196683D01*
X-6105452Y0D01*
X-11994607Y0D01*
X-11994607Y185347D01*
X-11994277Y196683D01*
X-11985290Y505604D01*
X-11964123Y875774D01*
X-11936206Y1194871D01*
X-11893927Y1563343D01*
X-11847525Y1880124D01*
X-11784257Y2245714D01*
X-11719549Y2559096D01*
X-11635474Y2920646D01*
X-11552712Y3229523D01*
X-11448054Y3585954D01*
X-11420933Y3667799D01*
X-11347583Y3889161D01*
X-11222619Y4239396D01*
X-11104847Y4535848D01*
X-10959924Y4878775D01*
X-10825330Y5167417D01*
X-10660834Y5501985D01*
X-10509960Y5781799D01*
X-10326338Y6106951D01*
X-10159808Y6376937D01*
X-9974896Y6664664D01*
X-9957547Y6691660D01*
X-9776045Y6950872D01*
X-9775033Y6952265D01*
X-9555676Y7254185D01*
X-9360036Y7501612D01*
X-9122067Y7792635D01*
X-8913152Y8027392D01*
X-8658142Y8305244D01*
X-8436893Y8526493D01*
X-8165471Y8790272D01*
X-7932858Y8997279D01*
X-7646485Y9245423D01*
X-7644844Y9246782D01*
X-7402948Y9438049D01*
X-7101301Y9670654D01*
X-7099583Y9671917D01*
X-6848840Y9847489D01*
X-6532561Y10063755D01*
X-6530688Y10064973D01*
X-6272676Y10224118D01*
X-5942027Y10423506D01*
X-5940176Y10424563D01*
X-5676407Y10566786D01*
X-5331859Y10748585D01*
X-5329785Y10749615D01*
X-5062446Y10874278D01*
X-4703955Y11037995D01*
X-4701708Y11038953D01*
X-4433220Y11145618D01*
X-4060373Y11290781D01*
X-4058028Y11291625D01*
X-3791601Y11379910D01*
X-3403291Y11506080D01*
X-3400819Y11506812D01*
X-3141272Y11576358D01*
X-2734850Y11683188D01*
X-2732321Y11683780D01*
X-2487783Y11734274D01*
X-2057319Y11821497D01*
X-2054709Y11821952D01*
X-1841514Y11853180D01*
X-1372932Y11920552D01*
X-1370279Y11920858D01*
X-1235415Y11932659D01*
X-686438Y11979810D01*
X-683627Y11979970D01*
X-303929Y11990818D01*
X-1365Y11999462D01*
X1357Y11999463D01*
X329649Y11990507D01*
G37*
G04 #@! TD.AperFunction*
M02*
