G04 #@! TF.GenerationSoftware,KiCad,Pcbnew,7.0.8-7.0.8~ubuntu23.04.1*
G04 #@! TF.CreationDate,2023-10-22T13:47:05+00:00*
G04 #@! TF.ProjectId,pedalboard-led-ring,70656461-6c62-46f6-9172-642d6c65642d,1.1.0-RC1*
G04 #@! TF.SameCoordinates,Original*
G04 #@! TF.FileFunction,Copper,L1,Top*
G04 #@! TF.FilePolarity,Positive*
%FSLAX46Y46*%
G04 Gerber Fmt 4.6, Leading zero omitted, Abs format (unit mm)*
G04 Created by KiCad (PCBNEW 7.0.8-7.0.8~ubuntu23.04.1) date 2023-10-22 13:47:05*
%MOMM*%
%LPD*%
G01*
G04 APERTURE LIST*
G04 #@! TA.AperFunction,SMDPad,CuDef*
%ADD10C,0.500000*%
G04 #@! TD*
G04 #@! TA.AperFunction,SMDPad,CuDef*
%ADD11R,0.500000X0.500000*%
G04 #@! TD*
G04 #@! TA.AperFunction,ViaPad*
%ADD12C,0.800000*%
G04 #@! TD*
G04 #@! TA.AperFunction,Conductor*
%ADD13C,0.250000*%
G04 #@! TD*
G04 APERTURE END LIST*
D10*
X0Y-11000000D03*
G04 #@! TA.AperFunction,SMDPad,CuDef*
G36*
X4676795Y-8500446D02*
G01*
X4243783Y-8750446D01*
X3993783Y-8317434D01*
X4426795Y-8067434D01*
X4676795Y-8500446D01*
G37*
G04 #@! TD.AperFunction*
G04 #@! TA.AperFunction,SMDPad,CuDef*
G36*
X5456217Y-8050446D02*
G01*
X5023205Y-8300446D01*
X4773205Y-7867434D01*
X5206217Y-7617434D01*
X5456217Y-8050446D01*
G37*
G04 #@! TD.AperFunction*
G04 #@! TA.AperFunction,SMDPad,CuDef*
G36*
X5006217Y-7271024D02*
G01*
X4573205Y-7521024D01*
X4323205Y-7088012D01*
X4756217Y-6838012D01*
X5006217Y-7271024D01*
G37*
G04 #@! TD.AperFunction*
G04 #@! TA.AperFunction,SMDPad,CuDef*
G36*
X4226795Y-7721024D02*
G01*
X3793783Y-7971024D01*
X3543783Y-7538012D01*
X3976795Y-7288012D01*
X4226795Y-7721024D01*
G37*
G04 #@! TD.AperFunction*
G04 #@! TA.AperFunction,SMDPad,CuDef*
G36*
G01*
X-1670000Y9700000D02*
X-1330000Y9700000D01*
G75*
G02*
X-1190000Y9560000I0J-140000D01*
G01*
X-1190000Y9280000D01*
G75*
G02*
X-1330000Y9140000I-140000J0D01*
G01*
X-1670000Y9140000D01*
G75*
G02*
X-1810000Y9280000I0J140000D01*
G01*
X-1810000Y9560000D01*
G75*
G02*
X-1670000Y9700000I140000J0D01*
G01*
G37*
G04 #@! TD.AperFunction*
G04 #@! TA.AperFunction,SMDPad,CuDef*
G36*
G01*
X-1670000Y8740000D02*
X-1330000Y8740000D01*
G75*
G02*
X-1190000Y8600000I0J-140000D01*
G01*
X-1190000Y8320000D01*
G75*
G02*
X-1330000Y8180000I-140000J0D01*
G01*
X-1670000Y8180000D01*
G75*
G02*
X-1810000Y8320000I0J140000D01*
G01*
X-1810000Y8600000D01*
G75*
G02*
X-1670000Y8740000I140000J0D01*
G01*
G37*
G04 #@! TD.AperFunction*
G04 #@! TA.AperFunction,SMDPad,CuDef*
G36*
G01*
X-6337224Y7640447D02*
X-6042776Y7810447D01*
G75*
G02*
X-5851532Y7759203I70000J-121244D01*
G01*
X-5711532Y7516715D01*
G75*
G02*
X-5762776Y7325471I-121244J-70000D01*
G01*
X-6057224Y7155471D01*
G75*
G02*
X-6248468Y7206715I-70000J121244D01*
G01*
X-6388468Y7449203D01*
G75*
G02*
X-6337224Y7640447I121244J70000D01*
G01*
G37*
G04 #@! TD.AperFunction*
G04 #@! TA.AperFunction,SMDPad,CuDef*
G36*
G01*
X-5857224Y6809063D02*
X-5562776Y6979063D01*
G75*
G02*
X-5371532Y6927819I70000J-121244D01*
G01*
X-5231532Y6685331D01*
G75*
G02*
X-5282776Y6494087I-121244J-70000D01*
G01*
X-5577224Y6324087D01*
G75*
G02*
X-5768468Y6375331I-70000J121244D01*
G01*
X-5908468Y6617819D01*
G75*
G02*
X-5857224Y6809063I121244J70000D01*
G01*
G37*
G04 #@! TD.AperFunction*
D11*
X9450000Y-450000D03*
X9450000Y450000D03*
X8550000Y450000D03*
X8550000Y-450000D03*
X450000Y9450000D03*
X-450000Y9450000D03*
X-450000Y8550000D03*
X450000Y8550000D03*
G04 #@! TA.AperFunction,SMDPad,CuDef*
G36*
X8300446Y-5023205D02*
G01*
X8050446Y-5456217D01*
X7617434Y-5206217D01*
X7867434Y-4773205D01*
X8300446Y-5023205D01*
G37*
G04 #@! TD.AperFunction*
G04 #@! TA.AperFunction,SMDPad,CuDef*
G36*
X8750446Y-4243783D02*
G01*
X8500446Y-4676795D01*
X8067434Y-4426795D01*
X8317434Y-3993783D01*
X8750446Y-4243783D01*
G37*
G04 #@! TD.AperFunction*
G04 #@! TA.AperFunction,SMDPad,CuDef*
G36*
X7971024Y-3793783D02*
G01*
X7721024Y-4226795D01*
X7288012Y-3976795D01*
X7538012Y-3543783D01*
X7971024Y-3793783D01*
G37*
G04 #@! TD.AperFunction*
G04 #@! TA.AperFunction,SMDPad,CuDef*
G36*
X7521024Y-4573205D02*
G01*
X7271024Y-5006217D01*
X6838012Y-4756217D01*
X7088012Y-4323205D01*
X7521024Y-4573205D01*
G37*
G04 #@! TD.AperFunction*
G04 #@! TA.AperFunction,SMDPad,CuDef*
G36*
X-8500446Y-4676795D02*
G01*
X-8750446Y-4243783D01*
X-8317434Y-3993783D01*
X-8067434Y-4426795D01*
X-8500446Y-4676795D01*
G37*
G04 #@! TD.AperFunction*
G04 #@! TA.AperFunction,SMDPad,CuDef*
G36*
X-8050446Y-5456217D02*
G01*
X-8300446Y-5023205D01*
X-7867434Y-4773205D01*
X-7617434Y-5206217D01*
X-8050446Y-5456217D01*
G37*
G04 #@! TD.AperFunction*
G04 #@! TA.AperFunction,SMDPad,CuDef*
G36*
X-7271024Y-5006217D02*
G01*
X-7521024Y-4573205D01*
X-7088012Y-4323205D01*
X-6838012Y-4756217D01*
X-7271024Y-5006217D01*
G37*
G04 #@! TD.AperFunction*
G04 #@! TA.AperFunction,SMDPad,CuDef*
G36*
X-7721024Y-4226795D02*
G01*
X-7971024Y-3793783D01*
X-7538012Y-3543783D01*
X-7288012Y-3976795D01*
X-7721024Y-4226795D01*
G37*
G04 #@! TD.AperFunction*
X-450000Y-9450000D03*
X450000Y-9450000D03*
X450000Y-8550000D03*
X-450000Y-8550000D03*
X-9450000Y450000D03*
X-9450000Y-450000D03*
X-8550000Y-450000D03*
X-8550000Y450000D03*
G04 #@! TA.AperFunction,SMDPad,CuDef*
G36*
X-8300446Y5023205D02*
G01*
X-8050446Y5456217D01*
X-7617434Y5206217D01*
X-7867434Y4773205D01*
X-8300446Y5023205D01*
G37*
G04 #@! TD.AperFunction*
G04 #@! TA.AperFunction,SMDPad,CuDef*
G36*
X-8750446Y4243783D02*
G01*
X-8500446Y4676795D01*
X-8067434Y4426795D01*
X-8317434Y3993783D01*
X-8750446Y4243783D01*
G37*
G04 #@! TD.AperFunction*
G04 #@! TA.AperFunction,SMDPad,CuDef*
G36*
X-7971024Y3793783D02*
G01*
X-7721024Y4226795D01*
X-7288012Y3976795D01*
X-7538012Y3543783D01*
X-7971024Y3793783D01*
G37*
G04 #@! TD.AperFunction*
G04 #@! TA.AperFunction,SMDPad,CuDef*
G36*
X-7521024Y4573205D02*
G01*
X-7271024Y5006217D01*
X-6838012Y4756217D01*
X-7088012Y4323205D01*
X-7521024Y4573205D01*
G37*
G04 #@! TD.AperFunction*
D10*
X0Y11000000D03*
G04 #@! TA.AperFunction,SMDPad,CuDef*
G36*
G01*
X-9760000Y-1670000D02*
X-9760000Y-1330000D01*
G75*
G02*
X-9620000Y-1190000I140000J0D01*
G01*
X-9340000Y-1190000D01*
G75*
G02*
X-9200000Y-1330000I0J-140000D01*
G01*
X-9200000Y-1670000D01*
G75*
G02*
X-9340000Y-1810000I-140000J0D01*
G01*
X-9620000Y-1810000D01*
G75*
G02*
X-9760000Y-1670000I0J140000D01*
G01*
G37*
G04 #@! TD.AperFunction*
G04 #@! TA.AperFunction,SMDPad,CuDef*
G36*
G01*
X-8800000Y-1670000D02*
X-8800000Y-1330000D01*
G75*
G02*
X-8660000Y-1190000I140000J0D01*
G01*
X-8380000Y-1190000D01*
G75*
G02*
X-8240000Y-1330000I0J-140000D01*
G01*
X-8240000Y-1670000D01*
G75*
G02*
X-8380000Y-1810000I-140000J0D01*
G01*
X-8660000Y-1810000D01*
G75*
G02*
X-8800000Y-1670000I0J140000D01*
G01*
G37*
G04 #@! TD.AperFunction*
G04 #@! TA.AperFunction,SMDPad,CuDef*
G36*
G01*
X8787500Y2610000D02*
X8912500Y2610000D01*
G75*
G02*
X8975000Y2547500I0J-62500D01*
G01*
X8975000Y2312500D01*
G75*
G02*
X8912500Y2250000I-62500J0D01*
G01*
X8787500Y2250000D01*
G75*
G02*
X8725000Y2312500I0J62500D01*
G01*
X8725000Y2547500D01*
G75*
G02*
X8787500Y2610000I62500J0D01*
G01*
G37*
G04 #@! TD.AperFunction*
G04 #@! TA.AperFunction,SMDPad,CuDef*
G36*
G01*
X8787500Y3450000D02*
X8912500Y3450000D01*
G75*
G02*
X8975000Y3387500I0J-62500D01*
G01*
X8975000Y3152500D01*
G75*
G02*
X8912500Y3090000I-62500J0D01*
G01*
X8787500Y3090000D01*
G75*
G02*
X8725000Y3152500I0J62500D01*
G01*
X8725000Y3387500D01*
G75*
G02*
X8787500Y3450000I62500J0D01*
G01*
G37*
G04 #@! TD.AperFunction*
G04 #@! TA.AperFunction,SMDPad,CuDef*
G36*
G01*
X-7573180Y-6277224D02*
X-7743180Y-5982776D01*
G75*
G02*
X-7691936Y-5791532I121244J70000D01*
G01*
X-7449448Y-5651532D01*
G75*
G02*
X-7258204Y-5702776I70000J-121244D01*
G01*
X-7088204Y-5997224D01*
G75*
G02*
X-7139448Y-6188468I-121244J-70000D01*
G01*
X-7381936Y-6328468D01*
G75*
G02*
X-7573180Y-6277224I-70000J121244D01*
G01*
G37*
G04 #@! TD.AperFunction*
G04 #@! TA.AperFunction,SMDPad,CuDef*
G36*
G01*
X-6741796Y-5797224D02*
X-6911796Y-5502776D01*
G75*
G02*
X-6860552Y-5311532I121244J70000D01*
G01*
X-6618064Y-5171532D01*
G75*
G02*
X-6426820Y-5222776I70000J-121244D01*
G01*
X-6256820Y-5517224D01*
G75*
G02*
X-6308064Y-5708468I-121244J-70000D01*
G01*
X-6550552Y-5848468D01*
G75*
G02*
X-6741796Y-5797224I-70000J121244D01*
G01*
G37*
G04 #@! TD.AperFunction*
G04 #@! TA.AperFunction,SMDPad,CuDef*
G36*
G01*
X-3432776Y-9243180D02*
X-3727224Y-9073180D01*
G75*
G02*
X-3778468Y-8881936I70000J121244D01*
G01*
X-3638468Y-8639448D01*
G75*
G02*
X-3447224Y-8588204I121244J-70000D01*
G01*
X-3152776Y-8758204D01*
G75*
G02*
X-3101532Y-8949448I-70000J-121244D01*
G01*
X-3241532Y-9191936D01*
G75*
G02*
X-3432776Y-9243180I-121244J70000D01*
G01*
G37*
G04 #@! TD.AperFunction*
G04 #@! TA.AperFunction,SMDPad,CuDef*
G36*
G01*
X-2952776Y-8411796D02*
X-3247224Y-8241796D01*
G75*
G02*
X-3298468Y-8050552I70000J121244D01*
G01*
X-3158468Y-7808064D01*
G75*
G02*
X-2967224Y-7756820I121244J-70000D01*
G01*
X-2672776Y-7926820D01*
G75*
G02*
X-2621532Y-8118064I-70000J-121244D01*
G01*
X-2761532Y-8360552D01*
G75*
G02*
X-2952776Y-8411796I-121244J70000D01*
G01*
G37*
G04 #@! TD.AperFunction*
G04 #@! TA.AperFunction,SMDPad,CuDef*
G36*
G01*
X6327224Y-7640447D02*
X6032776Y-7810447D01*
G75*
G02*
X5841532Y-7759203I-70000J121244D01*
G01*
X5701532Y-7516715D01*
G75*
G02*
X5752776Y-7325471I121244J70000D01*
G01*
X6047224Y-7155471D01*
G75*
G02*
X6238468Y-7206715I70000J-121244D01*
G01*
X6378468Y-7449203D01*
G75*
G02*
X6327224Y-7640447I-121244J-70000D01*
G01*
G37*
G04 #@! TD.AperFunction*
G04 #@! TA.AperFunction,SMDPad,CuDef*
G36*
G01*
X5847224Y-6809063D02*
X5552776Y-6979063D01*
G75*
G02*
X5361532Y-6927819I-70000J121244D01*
G01*
X5221532Y-6685331D01*
G75*
G02*
X5272776Y-6494087I121244J70000D01*
G01*
X5567224Y-6324087D01*
G75*
G02*
X5758468Y-6375331I70000J-121244D01*
G01*
X5898468Y-6617819D01*
G75*
G02*
X5847224Y-6809063I-121244J-70000D01*
G01*
G37*
G04 #@! TD.AperFunction*
G04 #@! TA.AperFunction,SMDPad,CuDef*
G36*
G01*
X-9243180Y3432776D02*
X-9073180Y3727224D01*
G75*
G02*
X-8881936Y3778468I121244J-70000D01*
G01*
X-8639448Y3638468D01*
G75*
G02*
X-8588204Y3447224I-70000J-121244D01*
G01*
X-8758204Y3152776D01*
G75*
G02*
X-8949448Y3101532I-121244J70000D01*
G01*
X-9191936Y3241532D01*
G75*
G02*
X-9243180Y3432776I70000J121244D01*
G01*
G37*
G04 #@! TD.AperFunction*
G04 #@! TA.AperFunction,SMDPad,CuDef*
G36*
G01*
X-8411796Y2952776D02*
X-8241796Y3247224D01*
G75*
G02*
X-8050552Y3298468I121244J-70000D01*
G01*
X-7808064Y3158468D01*
G75*
G02*
X-7756820Y2967224I-70000J-121244D01*
G01*
X-7926820Y2672776D01*
G75*
G02*
X-8118064Y2621532I-121244J70000D01*
G01*
X-8360552Y2761532D01*
G75*
G02*
X-8411796Y2952776I70000J121244D01*
G01*
G37*
G04 #@! TD.AperFunction*
G04 #@! TA.AperFunction,SMDPad,CuDef*
G36*
G01*
X1670000Y-9790000D02*
X1330000Y-9790000D01*
G75*
G02*
X1190000Y-9650000I0J140000D01*
G01*
X1190000Y-9370000D01*
G75*
G02*
X1330000Y-9230000I140000J0D01*
G01*
X1670000Y-9230000D01*
G75*
G02*
X1810000Y-9370000I0J-140000D01*
G01*
X1810000Y-9650000D01*
G75*
G02*
X1670000Y-9790000I-140000J0D01*
G01*
G37*
G04 #@! TD.AperFunction*
G04 #@! TA.AperFunction,SMDPad,CuDef*
G36*
G01*
X1670000Y-8830000D02*
X1330000Y-8830000D01*
G75*
G02*
X1190000Y-8690000I0J140000D01*
G01*
X1190000Y-8410000D01*
G75*
G02*
X1330000Y-8270000I140000J0D01*
G01*
X1670000Y-8270000D01*
G75*
G02*
X1810000Y-8410000I0J-140000D01*
G01*
X1810000Y-8690000D01*
G75*
G02*
X1670000Y-8830000I-140000J0D01*
G01*
G37*
G04 #@! TD.AperFunction*
G04 #@! TA.AperFunction,SMDPad,CuDef*
G36*
X8500446Y4676795D02*
G01*
X8750446Y4243783D01*
X8317434Y3993783D01*
X8067434Y4426795D01*
X8500446Y4676795D01*
G37*
G04 #@! TD.AperFunction*
G04 #@! TA.AperFunction,SMDPad,CuDef*
G36*
X8050446Y5456217D02*
G01*
X8300446Y5023205D01*
X7867434Y4773205D01*
X7617434Y5206217D01*
X8050446Y5456217D01*
G37*
G04 #@! TD.AperFunction*
G04 #@! TA.AperFunction,SMDPad,CuDef*
G36*
X7271024Y5006217D02*
G01*
X7521024Y4573205D01*
X7088012Y4323205D01*
X6838012Y4756217D01*
X7271024Y5006217D01*
G37*
G04 #@! TD.AperFunction*
G04 #@! TA.AperFunction,SMDPad,CuDef*
G36*
X7721024Y4226795D02*
G01*
X7971024Y3793783D01*
X7538012Y3543783D01*
X7288012Y3976795D01*
X7721024Y4226795D01*
G37*
G04 #@! TD.AperFunction*
G04 #@! TA.AperFunction,SMDPad,CuDef*
G36*
G01*
X8390000Y1300000D02*
X8390000Y1640000D01*
G75*
G02*
X8530000Y1780000I140000J0D01*
G01*
X8810000Y1780000D01*
G75*
G02*
X8950000Y1640000I0J-140000D01*
G01*
X8950000Y1300000D01*
G75*
G02*
X8810000Y1160000I-140000J0D01*
G01*
X8530000Y1160000D01*
G75*
G02*
X8390000Y1300000I0J140000D01*
G01*
G37*
G04 #@! TD.AperFunction*
G04 #@! TA.AperFunction,SMDPad,CuDef*
G36*
G01*
X9350000Y1300000D02*
X9350000Y1640000D01*
G75*
G02*
X9490000Y1780000I140000J0D01*
G01*
X9770000Y1780000D01*
G75*
G02*
X9910000Y1640000I0J-140000D01*
G01*
X9910000Y1300000D01*
G75*
G02*
X9770000Y1160000I-140000J0D01*
G01*
X9490000Y1160000D01*
G75*
G02*
X9350000Y1300000I0J140000D01*
G01*
G37*
G04 #@! TD.AperFunction*
G04 #@! TA.AperFunction,SMDPad,CuDef*
G36*
G01*
X7573180Y6277224D02*
X7743180Y5982776D01*
G75*
G02*
X7691936Y5791532I-121244J-70000D01*
G01*
X7449448Y5651532D01*
G75*
G02*
X7258204Y5702776I-70000J121244D01*
G01*
X7088204Y5997224D01*
G75*
G02*
X7139448Y6188468I121244J70000D01*
G01*
X7381936Y6328468D01*
G75*
G02*
X7573180Y6277224I70000J-121244D01*
G01*
G37*
G04 #@! TD.AperFunction*
G04 #@! TA.AperFunction,SMDPad,CuDef*
G36*
G01*
X6741796Y5797224D02*
X6911796Y5502776D01*
G75*
G02*
X6860552Y5311532I-121244J-70000D01*
G01*
X6618064Y5171532D01*
G75*
G02*
X6426820Y5222776I-70000J121244D01*
G01*
X6256820Y5517224D01*
G75*
G02*
X6308064Y5708468I121244J70000D01*
G01*
X6550552Y5848468D01*
G75*
G02*
X6741796Y5797224I70000J-121244D01*
G01*
G37*
G04 #@! TD.AperFunction*
G04 #@! TA.AperFunction,SMDPad,CuDef*
G36*
X-4676795Y8500446D02*
G01*
X-4243783Y8750446D01*
X-3993783Y8317434D01*
X-4426795Y8067434D01*
X-4676795Y8500446D01*
G37*
G04 #@! TD.AperFunction*
G04 #@! TA.AperFunction,SMDPad,CuDef*
G36*
X-5456217Y8050446D02*
G01*
X-5023205Y8300446D01*
X-4773205Y7867434D01*
X-5206217Y7617434D01*
X-5456217Y8050446D01*
G37*
G04 #@! TD.AperFunction*
G04 #@! TA.AperFunction,SMDPad,CuDef*
G36*
X-5006217Y7271024D02*
G01*
X-4573205Y7521024D01*
X-4323205Y7088012D01*
X-4756217Y6838012D01*
X-5006217Y7271024D01*
G37*
G04 #@! TD.AperFunction*
G04 #@! TA.AperFunction,SMDPad,CuDef*
G36*
X-4226795Y7721024D02*
G01*
X-3793783Y7971024D01*
X-3543783Y7538012D01*
X-3976795Y7288012D01*
X-4226795Y7721024D01*
G37*
G04 #@! TD.AperFunction*
G04 #@! TA.AperFunction,SMDPad,CuDef*
G36*
G01*
X9293180Y-3482776D02*
X9123180Y-3777224D01*
G75*
G02*
X8931936Y-3828468I-121244J70000D01*
G01*
X8689448Y-3688468D01*
G75*
G02*
X8638204Y-3497224I70000J121244D01*
G01*
X8808204Y-3202776D01*
G75*
G02*
X8999448Y-3151532I121244J-70000D01*
G01*
X9241936Y-3291532D01*
G75*
G02*
X9293180Y-3482776I-70000J-121244D01*
G01*
G37*
G04 #@! TD.AperFunction*
G04 #@! TA.AperFunction,SMDPad,CuDef*
G36*
G01*
X8461796Y-3002776D02*
X8291796Y-3297224D01*
G75*
G02*
X8100552Y-3348468I-121244J70000D01*
G01*
X7858064Y-3208468D01*
G75*
G02*
X7806820Y-3017224I70000J121244D01*
G01*
X7976820Y-2722776D01*
G75*
G02*
X8168064Y-2671532I121244J-70000D01*
G01*
X8410552Y-2811532D01*
G75*
G02*
X8461796Y-3002776I-70000J-121244D01*
G01*
G37*
G04 #@! TD.AperFunction*
G04 #@! TA.AperFunction,SMDPad,CuDef*
G36*
X-5023205Y-8300446D02*
G01*
X-5456217Y-8050446D01*
X-5206217Y-7617434D01*
X-4773205Y-7867434D01*
X-5023205Y-8300446D01*
G37*
G04 #@! TD.AperFunction*
G04 #@! TA.AperFunction,SMDPad,CuDef*
G36*
X-4243783Y-8750446D02*
G01*
X-4676795Y-8500446D01*
X-4426795Y-8067434D01*
X-3993783Y-8317434D01*
X-4243783Y-8750446D01*
G37*
G04 #@! TD.AperFunction*
G04 #@! TA.AperFunction,SMDPad,CuDef*
G36*
X-3793783Y-7971024D02*
G01*
X-4226795Y-7721024D01*
X-3976795Y-7288012D01*
X-3543783Y-7538012D01*
X-3793783Y-7971024D01*
G37*
G04 #@! TD.AperFunction*
G04 #@! TA.AperFunction,SMDPad,CuDef*
G36*
X-4573205Y-7521024D02*
G01*
X-5006217Y-7271024D01*
X-4756217Y-6838012D01*
X-4323205Y-7088012D01*
X-4573205Y-7521024D01*
G37*
G04 #@! TD.AperFunction*
G04 #@! TA.AperFunction,SMDPad,CuDef*
G36*
X5023205Y8300446D02*
G01*
X5456217Y8050446D01*
X5206217Y7617434D01*
X4773205Y7867434D01*
X5023205Y8300446D01*
G37*
G04 #@! TD.AperFunction*
G04 #@! TA.AperFunction,SMDPad,CuDef*
G36*
X4243783Y8750446D02*
G01*
X4676795Y8500446D01*
X4426795Y8067434D01*
X3993783Y8317434D01*
X4243783Y8750446D01*
G37*
G04 #@! TD.AperFunction*
G04 #@! TA.AperFunction,SMDPad,CuDef*
G36*
X3793783Y7971024D02*
G01*
X4226795Y7721024D01*
X3976795Y7288012D01*
X3543783Y7538012D01*
X3793783Y7971024D01*
G37*
G04 #@! TD.AperFunction*
G04 #@! TA.AperFunction,SMDPad,CuDef*
G36*
X4573205Y7521024D02*
G01*
X5006217Y7271024D01*
X4756217Y6838012D01*
X4323205Y7088012D01*
X4573205Y7521024D01*
G37*
G04 #@! TD.AperFunction*
G04 #@! TA.AperFunction,SMDPad,CuDef*
G36*
G01*
X9690000Y-1465000D02*
X9690000Y-1835000D01*
G75*
G02*
X9555000Y-1970000I-135000J0D01*
G01*
X9285000Y-1970000D01*
G75*
G02*
X9150000Y-1835000I0J135000D01*
G01*
X9150000Y-1465000D01*
G75*
G02*
X9285000Y-1330000I135000J0D01*
G01*
X9555000Y-1330000D01*
G75*
G02*
X9690000Y-1465000I0J-135000D01*
G01*
G37*
G04 #@! TD.AperFunction*
G04 #@! TA.AperFunction,SMDPad,CuDef*
G36*
G01*
X8670000Y-1465000D02*
X8670000Y-1835000D01*
G75*
G02*
X8535000Y-1970000I-135000J0D01*
G01*
X8265000Y-1970000D01*
G75*
G02*
X8130000Y-1835000I0J135000D01*
G01*
X8130000Y-1465000D01*
G75*
G02*
X8265000Y-1330000I135000J0D01*
G01*
X8535000Y-1330000D01*
G75*
G02*
X8670000Y-1465000I0J-135000D01*
G01*
G37*
G04 #@! TD.AperFunction*
G04 #@! TA.AperFunction,SMDPad,CuDef*
G36*
G01*
X3432776Y9243180D02*
X3727224Y9073180D01*
G75*
G02*
X3778468Y8881936I-70000J-121244D01*
G01*
X3638468Y8639448D01*
G75*
G02*
X3447224Y8588204I-121244J70000D01*
G01*
X3152776Y8758204D01*
G75*
G02*
X3101532Y8949448I70000J121244D01*
G01*
X3241532Y9191936D01*
G75*
G02*
X3432776Y9243180I121244J-70000D01*
G01*
G37*
G04 #@! TD.AperFunction*
G04 #@! TA.AperFunction,SMDPad,CuDef*
G36*
G01*
X2952776Y8411796D02*
X3247224Y8241796D01*
G75*
G02*
X3298468Y8050552I-70000J-121244D01*
G01*
X3158468Y7808064D01*
G75*
G02*
X2967224Y7756820I-121244J70000D01*
G01*
X2672776Y7926820D01*
G75*
G02*
X2621532Y8118064I70000J121244D01*
G01*
X2761532Y8360552D01*
G75*
G02*
X2952776Y8411796I121244J-70000D01*
G01*
G37*
G04 #@! TD.AperFunction*
X-11000000Y0D03*
D12*
X6950000Y-3150000D03*
X-6000000Y8000000D03*
X-9928203Y-1196152D03*
X-3928203Y-9196152D03*
X10079502Y3350000D03*
X1196152Y-9928203D03*
X3928203Y9196152D03*
X-8000000Y-6000000D03*
X6000000Y-7940000D03*
X-9196152Y3928203D03*
X8000000Y6000000D03*
X8260000Y-6020000D03*
X-1196152Y9928203D03*
X10400000Y-1400000D03*
X11150000Y-1400000D03*
X11150000Y-4850000D03*
X10400000Y-4850000D03*
X7698157Y1448157D03*
X7910000Y-1150000D03*
D13*
X8550000Y450000D02*
X7700000Y450000D01*
X8408940Y3108940D02*
X8408940Y4335289D01*
X7453157Y2153157D02*
X8408940Y3108940D01*
X7406136Y2153157D02*
X7453157Y2153157D01*
X7700000Y450000D02*
X6993157Y1156843D01*
X6993157Y1156843D02*
X6993157Y1740178D01*
X6993157Y1740178D02*
X7406136Y2153157D01*
X9495000Y-495000D02*
X9495000Y-1467500D01*
X5901060Y7958940D02*
X6220000Y7640000D01*
X5210000Y5140000D02*
X5700000Y4650000D01*
X6220000Y7640000D02*
X6220000Y6800000D01*
X6220000Y6800000D02*
X5210000Y5790000D01*
X5114711Y7958940D02*
X5901060Y7958940D01*
X5700000Y4650000D02*
X7164807Y4650000D01*
X5210000Y5790000D02*
X5210000Y5140000D01*
X1650000Y7700000D02*
X1650000Y9150000D01*
X1350000Y9450000D02*
X450000Y9450000D01*
X3885289Y7629518D02*
X3205771Y6950000D01*
X1650000Y9150000D02*
X1350000Y9450000D01*
X3205771Y6950000D02*
X2400000Y6950000D01*
X2400000Y6950000D02*
X1650000Y7700000D01*
X-450000Y8550000D02*
X-450000Y7920000D01*
X-450000Y7920000D02*
X-1070000Y7300000D01*
X-1070000Y7300000D02*
X-2050000Y7300000D01*
X-3158940Y8408940D02*
X-4335289Y8408940D01*
X-2050000Y7300000D02*
X-3158940Y8408940D01*
X-5870000Y5310000D02*
X-6340000Y5780000D01*
X-4664711Y7004711D02*
X-4450000Y6790000D01*
X-7293651Y5780000D02*
X-7958940Y5114711D01*
X-4664711Y7179518D02*
X-4664711Y7004711D01*
X-4450000Y6160000D02*
X-5300000Y5310000D01*
X-6340000Y5780000D02*
X-7293651Y5780000D01*
X-4450000Y6790000D02*
X-4450000Y6160000D01*
X-5300000Y5310000D02*
X-5870000Y5310000D01*
X-7640000Y1630000D02*
X-8880000Y1630000D01*
X-8880000Y1630000D02*
X-9450000Y1060000D01*
X-6800000Y3055771D02*
X-6800000Y2470000D01*
X-6800000Y2470000D02*
X-7640000Y1630000D01*
X-7629518Y3885289D02*
X-6800000Y3055771D01*
X-9450000Y1060000D02*
X-9450000Y450000D01*
X7629518Y-3829518D02*
X6950000Y-3150000D01*
X7629518Y-3885289D02*
X7629518Y-3829518D01*
X450000Y-9450000D02*
X717949Y-9450000D01*
X-4335289Y-8789066D02*
X-3928203Y-9196152D01*
X717949Y-9450000D02*
X1196152Y-9928203D01*
X-8408940Y4335289D02*
X-8789066Y4335289D01*
X-9450000Y-450000D02*
X-9450000Y-717949D01*
X-7958940Y-5958940D02*
X-8000000Y-6000000D01*
X-717949Y9450000D02*
X-1196152Y9928203D01*
X6000000Y-7940000D02*
X5981060Y-7958940D01*
X8830000Y-5480000D02*
X8800000Y-5480000D01*
X8408940Y-4335289D02*
X8408940Y-3865848D01*
X7958940Y5958940D02*
X8000000Y6000000D01*
X-5958940Y7958940D02*
X-6000000Y8000000D01*
X-5114711Y7958940D02*
X-5958940Y7958940D01*
X-7958940Y-5114711D02*
X-7958940Y-5958940D01*
X8980000Y3350000D02*
X8850000Y3220000D01*
X3928203Y9196152D02*
X4335289Y8789066D01*
X-4335289Y-8408940D02*
X-4335289Y-8789066D01*
X-450000Y9450000D02*
X-717949Y9450000D01*
X8800000Y-5480000D02*
X8260000Y-6020000D01*
X5981060Y-7958940D02*
X5114711Y-7958940D01*
X10079502Y3350000D02*
X9955000Y3225498D01*
X7958940Y5114711D02*
X7958940Y5958940D01*
X8408940Y-3865848D02*
X8770172Y-3504616D01*
X-9196152Y3928203D02*
X-8789066Y4335289D01*
X10079502Y3350000D02*
X8980000Y3350000D01*
X8830000Y-4756349D02*
X8830000Y-5480000D01*
X-9450000Y-717949D02*
X-9928203Y-1196152D01*
X4335289Y8408940D02*
X4335289Y8789066D01*
X8408940Y-4335289D02*
X8830000Y-4756349D01*
X-8730000Y-3380000D02*
X-8730000Y-4014229D01*
X-7300000Y-1950000D02*
X-8730000Y-3380000D01*
X-8730000Y-4014229D02*
X-8408940Y-4335289D01*
X-8550000Y-450000D02*
X-8140000Y-450000D01*
X-7300000Y-1290000D02*
X-7300000Y-1950000D01*
X-8140000Y-450000D02*
X-7300000Y-1290000D01*
X-5100000Y-5100000D02*
X-5100000Y-5800000D01*
X-5535289Y-4664711D02*
X-5100000Y-5100000D01*
X-5100000Y-5800000D02*
X-5670000Y-6370000D01*
X-5670000Y-7403651D02*
X-5114711Y-7958940D01*
X-5670000Y-6370000D02*
X-5670000Y-7403651D01*
X-7179518Y-4664711D02*
X-5535289Y-4664711D01*
X-3245771Y-6990000D02*
X-2320000Y-6990000D01*
X-1750000Y-8690000D02*
X-990000Y-9450000D01*
X-3885289Y-7629518D02*
X-3245771Y-6990000D01*
X-2320000Y-6990000D02*
X-1750000Y-7560000D01*
X-1750000Y-7560000D02*
X-1750000Y-8690000D01*
X-990000Y-9450000D02*
X-450000Y-9450000D01*
X4140000Y-6654807D02*
X4140000Y-6280000D01*
X5150000Y-5270000D02*
X5840000Y-5270000D01*
X5840000Y-5270000D02*
X6620000Y-6050000D01*
X6620000Y-6050000D02*
X7050000Y-6050000D01*
X7050000Y-6050000D02*
X7050000Y-6023651D01*
X7050000Y-6023651D02*
X7958940Y-5114711D01*
X4140000Y-6280000D02*
X5150000Y-5270000D01*
X4664711Y-7179518D02*
X4140000Y-6654807D01*
X970000Y-7190000D02*
X1870000Y-7190000D01*
X1870000Y-7190000D02*
X3088940Y-8408940D01*
X3088940Y-8408940D02*
X4335289Y-8408940D01*
X530000Y-8470000D02*
X530000Y-7630000D01*
X530000Y-7630000D02*
X970000Y-7190000D01*
X9450000Y450000D02*
X9450000Y500000D01*
X7746314Y1400000D02*
X8492500Y1400000D01*
X8742500Y1207500D02*
X8742500Y1400000D01*
X9450000Y500000D02*
X8742500Y1207500D01*
X7698157Y1448157D02*
X7746314Y1400000D01*
X8850000Y2380000D02*
X8850000Y1507500D01*
X8850000Y1507500D02*
X8742500Y1400000D01*
X8390000Y-1680000D02*
X7910000Y-1200000D01*
G04 #@! TA.AperFunction,Conductor*
G36*
X329649Y11990507D02*
G01*
X662213Y11980929D01*
X664833Y11980784D01*
X675246Y11979930D01*
X1005442Y11952850D01*
X1238041Y11932709D01*
X1332588Y11924522D01*
X1335048Y11924247D01*
X1362018Y11920546D01*
X1674614Y11877649D01*
X1998793Y11830655D01*
X2000963Y11830289D01*
X2337916Y11765160D01*
X2659622Y11699431D01*
X2993785Y11615711D01*
X3242335Y11549825D01*
X3310959Y11531633D01*
X3640167Y11429784D01*
X3951871Y11327627D01*
X4275077Y11207964D01*
X4580336Y11088058D01*
X4896588Y10950927D01*
X5194372Y10813682D01*
X5502695Y10659503D01*
X5792081Y10505351D01*
X6091562Y10334577D01*
X6261558Y10231043D01*
X6371594Y10164027D01*
X6661270Y9977209D01*
X6931081Y9790786D01*
X7194350Y9599900D01*
X7210114Y9588470D01*
X7468769Y9386812D01*
X7736340Y9169595D01*
X7983000Y8953351D01*
X8238290Y8721903D01*
X8308308Y8653001D01*
X8460609Y8503126D01*
X8472187Y8491733D01*
X8714388Y8246800D01*
X8934767Y8003421D01*
X9162393Y7746618D01*
X9163894Y7744842D01*
X9369367Y7489847D01*
X9582406Y7221324D01*
X9583896Y7219347D01*
X9774842Y6952265D01*
X9972367Y6673308D01*
X9973827Y6671126D01*
X10151262Y6390052D01*
X10318589Y6124098D01*
X10319695Y6121515D01*
X10326181Y6111936D01*
X10327828Y6109333D01*
X10329664Y6106219D01*
X10341737Y6100848D01*
X11955276Y5029107D01*
X11993287Y4981163D01*
X11999500Y4946643D01*
X11999500Y-4951943D01*
X11980593Y-5010134D01*
X11962050Y-5029484D01*
X10080960Y-6522629D01*
X10067922Y-6528784D01*
X10063854Y-6535047D01*
X10062594Y-6536763D01*
X10060955Y-6539392D01*
X9887469Y-6790921D01*
X9679996Y-7090680D01*
X9678428Y-7092822D01*
X9471795Y-7359588D01*
X9260750Y-7629321D01*
X9259164Y-7631245D01*
X9035156Y-7889602D01*
X8811582Y-8143261D01*
X8809999Y-8144975D01*
X8570765Y-8391907D01*
X8333161Y-8631638D01*
X8079128Y-8866388D01*
X7828605Y-9091193D01*
X7561555Y-9311919D01*
X7298785Y-9521315D01*
X7019615Y-9727205D01*
X6745382Y-9920643D01*
X6455091Y-10110915D01*
X6170145Y-10287908D01*
X5869730Y-10461892D01*
X5574965Y-10621896D01*
X5265397Y-10779023D01*
X4961718Y-10921546D01*
X4644051Y-11061290D01*
X4332399Y-11185876D01*
X4007658Y-11307803D01*
X3688948Y-11414053D01*
X3358308Y-11517752D01*
X3033390Y-11605330D01*
X2698061Y-11690474D01*
X2367644Y-11759098D01*
X2030221Y-11825181D01*
X2027921Y-11825576D01*
X1693408Y-11874857D01*
X1354695Y-11921947D01*
X1352218Y-11922228D01*
X1011097Y-11952243D01*
X674786Y-11980182D01*
X672136Y-11980331D01*
X307475Y-11991002D01*
X1401Y-11999461D01*
X-1381Y-11999459D01*
X-683627Y-11979969D01*
X-686450Y-11979808D01*
X-1234827Y-11932708D01*
X-1370252Y-11920859D01*
X-1372983Y-11920544D01*
X-1841370Y-11853200D01*
X-2054704Y-11821950D01*
X-2057360Y-11821487D01*
X-2487606Y-11734309D01*
X-2732310Y-11683780D01*
X-2734884Y-11683177D01*
X-3141171Y-11576384D01*
X-3400811Y-11506812D01*
X-3403296Y-11506076D01*
X-3791515Y-11379937D01*
X-4057991Y-11291636D01*
X-4060380Y-11290775D01*
X-4433092Y-11145667D01*
X-4701675Y-11038965D01*
X-4703963Y-11037989D01*
X-4787144Y-11000002D01*
X-505647Y-11000002D01*
X-485166Y-11142456D01*
X-441076Y-11238998D01*
X-425377Y-11273373D01*
X-395543Y-11307803D01*
X-331127Y-11382144D01*
X-281475Y-11414053D01*
X-210053Y-11459953D01*
X-103597Y-11491211D01*
X-71965Y-11500499D01*
X-71964Y-11500499D01*
X-71961Y-11500500D01*
X-71959Y-11500500D01*
X71959Y-11500500D01*
X71961Y-11500500D01*
X210053Y-11459953D01*
X331128Y-11382143D01*
X425377Y-11273373D01*
X485165Y-11142457D01*
X505647Y-11000000D01*
X504035Y-10988791D01*
X485165Y-10857543D01*
X425377Y-10726627D01*
X331128Y-10617857D01*
X331127Y-10617856D01*
X331126Y-10617855D01*
X210057Y-10540049D01*
X210054Y-10540047D01*
X210053Y-10540047D01*
X210050Y-10540046D01*
X71964Y-10499500D01*
X71961Y-10499500D01*
X-71961Y-10499500D01*
X-71965Y-10499500D01*
X-210051Y-10540046D01*
X-210058Y-10540049D01*
X-331127Y-10617855D01*
X-425378Y-10726628D01*
X-485166Y-10857543D01*
X-505647Y-10999997D01*
X-505647Y-11000002D01*
X-4787144Y-11000002D01*
X-4917159Y-10940627D01*
X-5062394Y-10874301D01*
X-5329735Y-10749637D01*
X-5331902Y-10748561D01*
X-5676360Y-10566810D01*
X-5737424Y-10533885D01*
X-5940112Y-10424596D01*
X-5942109Y-10423456D01*
X-6210018Y-10261901D01*
X-6272614Y-10224154D01*
X-6530648Y-10064996D01*
X-6532602Y-10063726D01*
X-6848839Y-9847489D01*
X-7099527Y-9671955D01*
X-7101362Y-9670606D01*
X-7103969Y-9668596D01*
X-7313400Y-9507100D01*
X-7402877Y-9438103D01*
X-7644807Y-9246809D01*
X-7646521Y-9245390D01*
X-7905943Y-9020600D01*
X-7932846Y-8997289D01*
X-8165480Y-8790262D01*
X-8436857Y-8526527D01*
X-8658153Y-8305231D01*
X-8677235Y-8284440D01*
X-8913111Y-8027436D01*
X-9122069Y-7792631D01*
X-9360006Y-7501648D01*
X-9368966Y-7490316D01*
X-9555690Y-7254164D01*
X-9776045Y-6950871D01*
X-9957547Y-6691659D01*
X-10114993Y-6446669D01*
X-10159811Y-6376932D01*
X-10160578Y-6375688D01*
X-10283274Y-6176766D01*
X-10326340Y-6106945D01*
X-10441261Y-5903448D01*
X-10509941Y-5781832D01*
X-10515864Y-5770847D01*
X-10660841Y-5501969D01*
X-10662297Y-5499008D01*
X-10825316Y-5167444D01*
X-10959922Y-4878779D01*
X-11104834Y-4535877D01*
X-11222624Y-4239380D01*
X-11243292Y-4181455D01*
X-11347570Y-3889197D01*
X-11448055Y-3585948D01*
X-11459060Y-3548469D01*
X-11552709Y-3229530D01*
X-11635471Y-2920658D01*
X-11719544Y-2559117D01*
X-11720038Y-2556724D01*
X-11784258Y-2245708D01*
X-11847524Y-1880130D01*
X-11847846Y-1877923D01*
X-11893929Y-1563324D01*
X-11936059Y-1196152D01*
X-10533885Y-1196152D01*
X-10513248Y-1352910D01*
X-10513246Y-1352918D01*
X-10452741Y-1498990D01*
X-10452741Y-1498991D01*
X-10391899Y-1578282D01*
X-10356485Y-1624434D01*
X-10231044Y-1720688D01*
X-10231043Y-1720688D01*
X-10231042Y-1720689D01*
X-10084970Y-1781194D01*
X-10084965Y-1781196D01*
X-9988469Y-1793899D01*
X-9933244Y-1820239D01*
X-9911667Y-1850212D01*
X-9903227Y-1868312D01*
X-9903225Y-1868314D01*
X-9903224Y-1868316D01*
X-9818316Y-1953224D01*
X-9709487Y-2003972D01*
X-9659901Y-2010500D01*
X-9300100Y-2010499D01*
X-9250513Y-2003972D01*
X-9250512Y-2003972D01*
X-9157635Y-1960662D01*
X-9141684Y-1953224D01*
X-9140263Y-1951802D01*
X-9138028Y-1950663D01*
X-9134589Y-1948256D01*
X-9134251Y-1948739D01*
X-9085750Y-1924023D01*
X-9025318Y-1933590D01*
X-8990602Y-1963014D01*
X-8974642Y-1984639D01*
X-8974640Y-1984641D01*
X-8867921Y-2063405D01*
X-8742728Y-2107212D01*
X-8713001Y-2109999D01*
X-8670000Y-2109998D01*
X-8370000Y-2109998D01*
X-8369999Y-2109999D01*
X-8326996Y-2109999D01*
X-8297279Y-2107213D01*
X-8297274Y-2107212D01*
X-8172078Y-2063404D01*
X-8172077Y-2063404D01*
X-8096130Y-2007351D01*
X-8059997Y-1995310D01*
X-8042649Y-1953870D01*
X-7986596Y-1877923D01*
X-7986596Y-1877922D01*
X-7942788Y-1752727D01*
X-7940000Y-1723000D01*
X-7940000Y-1650001D01*
X-7940001Y-1650000D01*
X-8369999Y-1650000D01*
X-8370000Y-1650001D01*
X-8370000Y-2109998D01*
X-8670000Y-2109998D01*
X-8670000Y-1449000D01*
X-8651093Y-1390809D01*
X-8601593Y-1354845D01*
X-8571000Y-1350000D01*
X-7940002Y-1350000D01*
X-7940001Y-1349999D01*
X-7940001Y-1349333D01*
X-7921094Y-1291142D01*
X-7871594Y-1255178D01*
X-7810408Y-1255178D01*
X-7770997Y-1279329D01*
X-7654496Y-1395830D01*
X-7626719Y-1450347D01*
X-7625500Y-1465834D01*
X-7625500Y-1774165D01*
X-7644407Y-1832356D01*
X-7654497Y-1844169D01*
X-7892992Y-2082663D01*
X-7943026Y-2108156D01*
X-7942960Y-2116891D01*
X-7967337Y-2157009D01*
X-8948587Y-3138259D01*
X-8951771Y-3141176D01*
X-8983193Y-3167542D01*
X-8983194Y-3167544D01*
X-9003708Y-3203075D01*
X-9006028Y-3206716D01*
X-9029554Y-3240316D01*
X-9029558Y-3240324D01*
X-9029949Y-3241786D01*
X-9039830Y-3265640D01*
X-9040586Y-3266948D01*
X-9040590Y-3266960D01*
X-9047713Y-3307349D01*
X-9048647Y-3311564D01*
X-9059264Y-3351187D01*
X-9059264Y-3351193D01*
X-9055688Y-3392072D01*
X-9055500Y-3396373D01*
X-9055500Y-3997854D01*
X-9055688Y-4002156D01*
X-9059264Y-4043036D01*
X-9055554Y-4056882D01*
X-9048646Y-4082665D01*
X-9047711Y-4086881D01*
X-9040589Y-4127274D01*
X-9039836Y-4128577D01*
X-9029946Y-4152453D01*
X-9029557Y-4153908D01*
X-9029554Y-4153913D01*
X-9010693Y-4180850D01*
X-9006029Y-4187510D01*
X-9003712Y-4191147D01*
X-8983194Y-4226684D01*
X-8983140Y-4226729D01*
X-8983071Y-4226830D01*
X-8977624Y-4233322D01*
X-8978264Y-4233858D01*
X-8953031Y-4270744D01*
X-8935234Y-4323171D01*
X-8933958Y-4326930D01*
X-8664210Y-4794148D01*
X-8624894Y-4838979D01*
X-8553356Y-4874257D01*
X-8553355Y-4874257D01*
X-8552876Y-4874493D01*
X-8509048Y-4917187D01*
X-8497873Y-4969759D01*
X-8503126Y-5049884D01*
X-8503125Y-5049889D01*
X-8483961Y-5106346D01*
X-8483959Y-5106350D01*
X-8483958Y-5106352D01*
X-8324082Y-5383265D01*
X-8311361Y-5443112D01*
X-8336248Y-5499008D01*
X-8349552Y-5511306D01*
X-8428277Y-5571713D01*
X-8428287Y-5571723D01*
X-8524538Y-5697160D01*
X-8524538Y-5697161D01*
X-8585043Y-5843233D01*
X-8585045Y-5843241D01*
X-8605682Y-5999999D01*
X-8605682Y-6000000D01*
X-8585045Y-6156758D01*
X-8585043Y-6156766D01*
X-8524538Y-6302838D01*
X-8524538Y-6302839D01*
X-8428287Y-6428276D01*
X-8428282Y-6428282D01*
X-8302841Y-6524536D01*
X-8302840Y-6524536D01*
X-8302839Y-6524537D01*
X-8251539Y-6545786D01*
X-8156762Y-6585044D01*
X-8039191Y-6600522D01*
X-8000001Y-6605682D01*
X-8000000Y-6605682D01*
X-7999999Y-6605682D01*
X-7968648Y-6601554D01*
X-7843238Y-6585044D01*
X-7719329Y-6533719D01*
X-7697166Y-6524539D01*
X-7697166Y-6524538D01*
X-7697159Y-6524536D01*
X-7697154Y-6524531D01*
X-7693729Y-6522555D01*
X-7633881Y-6509831D01*
X-7602383Y-6518565D01*
X-7598061Y-6520580D01*
X-7598057Y-6520583D01*
X-7482070Y-6551661D01*
X-7482069Y-6551660D01*
X-7482069Y-6551661D01*
X-7451379Y-6548976D01*
X-7362448Y-6541196D01*
X-7316241Y-6522056D01*
X-7004645Y-6342155D01*
X-6964964Y-6311709D01*
X-6896090Y-6213345D01*
X-6895570Y-6211403D01*
X-6894206Y-6209302D01*
X-6892430Y-6205495D01*
X-6891896Y-6205744D01*
X-6862251Y-6160090D01*
X-6805132Y-6138159D01*
X-6760352Y-6146284D01*
X-6735717Y-6157032D01*
X-6603920Y-6171883D01*
X-6603913Y-6171883D01*
X-6473588Y-6147223D01*
X-6446453Y-6134775D01*
X-6409214Y-6113275D01*
X-6642796Y-5708697D01*
X-6725815Y-5564903D01*
X-6379405Y-5564903D01*
X-6149405Y-5963274D01*
X-6112164Y-5941773D01*
X-6112162Y-5941772D01*
X-6087819Y-5924501D01*
X-6001297Y-5823961D01*
X-5948257Y-5702390D01*
X-5948257Y-5702388D01*
X-5933406Y-5570592D01*
X-5933406Y-5570585D01*
X-5958064Y-5440262D01*
X-5958065Y-5440259D01*
X-5970515Y-5413120D01*
X-5970520Y-5413111D01*
X-6007014Y-5349903D01*
X-6379405Y-5564903D01*
X-6725815Y-5564903D01*
X-6739712Y-5540832D01*
X-6752434Y-5480984D01*
X-6727547Y-5425088D01*
X-6703476Y-5405595D01*
X-6157015Y-5090095D01*
X-6149912Y-5063588D01*
X-6116588Y-5012274D01*
X-6059467Y-4990347D01*
X-6054285Y-4990211D01*
X-5711123Y-4990211D01*
X-5652932Y-5009118D01*
X-5641119Y-5019207D01*
X-5454496Y-5205830D01*
X-5426719Y-5260347D01*
X-5425500Y-5275834D01*
X-5425500Y-5624166D01*
X-5444407Y-5682357D01*
X-5454497Y-5694170D01*
X-5888580Y-6128253D01*
X-5891764Y-6131170D01*
X-5923193Y-6157542D01*
X-5923194Y-6157544D01*
X-5943708Y-6193075D01*
X-5946028Y-6196716D01*
X-5969554Y-6230316D01*
X-5969558Y-6230324D01*
X-5969949Y-6231786D01*
X-5979830Y-6255640D01*
X-5980586Y-6256948D01*
X-5980590Y-6256960D01*
X-5987713Y-6297349D01*
X-5988647Y-6301564D01*
X-5999264Y-6341187D01*
X-5999264Y-6341193D01*
X-5995688Y-6382072D01*
X-5995500Y-6386373D01*
X-5995500Y-7387276D01*
X-5995688Y-7391578D01*
X-5999264Y-7432458D01*
X-5998754Y-7434362D01*
X-5988646Y-7472087D01*
X-5987711Y-7476303D01*
X-5980589Y-7516696D01*
X-5979836Y-7517999D01*
X-5969946Y-7541875D01*
X-5969557Y-7543330D01*
X-5969554Y-7543335D01*
X-5946421Y-7576373D01*
X-5946029Y-7576932D01*
X-5943708Y-7580575D01*
X-5923194Y-7616106D01*
X-5891776Y-7642469D01*
X-5888590Y-7645388D01*
X-5664747Y-7869230D01*
X-5636970Y-7923747D01*
X-5641005Y-7971055D01*
X-5658896Y-8023759D01*
X-5658896Y-8023765D01*
X-5656885Y-8054444D01*
X-5653679Y-8103356D01*
X-5618401Y-8174894D01*
X-5573570Y-8214210D01*
X-5106352Y-8483958D01*
X-5106349Y-8483959D01*
X-5106347Y-8483960D01*
X-5078950Y-8493259D01*
X-5049888Y-8503125D01*
X-4970295Y-8497908D01*
X-4970293Y-8497906D01*
X-4969761Y-8497872D01*
X-4910458Y-8512932D01*
X-4874494Y-8552874D01*
X-4874258Y-8553354D01*
X-4874257Y-8553356D01*
X-4838979Y-8624894D01*
X-4794148Y-8664210D01*
X-4712607Y-8711287D01*
X-4671666Y-8756757D01*
X-4663484Y-8805652D01*
X-4664465Y-8816869D01*
X-4664553Y-8817873D01*
X-4661390Y-8829679D01*
X-4653935Y-8857502D01*
X-4653000Y-8861718D01*
X-4645878Y-8902111D01*
X-4645125Y-8903414D01*
X-4635235Y-8927290D01*
X-4634846Y-8928745D01*
X-4634843Y-8928750D01*
X-4617776Y-8953125D01*
X-4611318Y-8962347D01*
X-4609001Y-8965984D01*
X-4589650Y-8999500D01*
X-4588483Y-9001521D01*
X-4557065Y-9027884D01*
X-4553879Y-9030803D01*
X-4551497Y-9033184D01*
X-4523720Y-9087701D01*
X-4523348Y-9116109D01*
X-4533885Y-9196150D01*
X-4533885Y-9196152D01*
X-4513248Y-9352910D01*
X-4513246Y-9352918D01*
X-4452741Y-9498990D01*
X-4452741Y-9498991D01*
X-4435611Y-9521315D01*
X-4356485Y-9624434D01*
X-4231044Y-9720688D01*
X-4231043Y-9720688D01*
X-4231042Y-9720689D01*
X-4092123Y-9778231D01*
X-4084965Y-9781196D01*
X-3984617Y-9794407D01*
X-3928204Y-9801834D01*
X-3928203Y-9801834D01*
X-3928202Y-9801834D01*
X-3896851Y-9797706D01*
X-3771441Y-9781196D01*
X-3625362Y-9720688D01*
X-3499921Y-9624434D01*
X-3408465Y-9505244D01*
X-3358042Y-9470590D01*
X-3338552Y-9466890D01*
X-3332645Y-9466373D01*
X-3332645Y-9466372D01*
X-3332641Y-9466373D01*
X-3216655Y-9435294D01*
X-3118291Y-9366420D01*
X-3087845Y-9326741D01*
X-2907945Y-9015144D01*
X-2888804Y-8968936D01*
X-2878339Y-8849314D01*
X-2878860Y-8847369D01*
X-2878729Y-8844862D01*
X-2879094Y-8840687D01*
X-2878508Y-8840635D01*
X-2875659Y-8786269D01*
X-2837155Y-8738718D01*
X-2794318Y-8723368D01*
X-2767608Y-8720358D01*
X-2646038Y-8667319D01*
X-2646036Y-8667317D01*
X-2545506Y-8580804D01*
X-2545505Y-8580803D01*
X-2528223Y-8556448D01*
X-2528219Y-8556441D01*
X-2506726Y-8519212D01*
X-2506726Y-8519211D01*
X-3079168Y-8188711D01*
X-3120109Y-8143242D01*
X-3126505Y-8082392D01*
X-3115405Y-8053475D01*
X-3101507Y-8029403D01*
X-2755097Y-8029403D01*
X-2356725Y-8259402D01*
X-2335227Y-8222166D01*
X-2335224Y-8222162D01*
X-2322777Y-8195029D01*
X-2322776Y-8195027D01*
X-2298117Y-8064703D01*
X-2298117Y-8064696D01*
X-2312968Y-7932900D01*
X-2312968Y-7932898D01*
X-2366009Y-7811325D01*
X-2452528Y-7710789D01*
X-2476881Y-7693511D01*
X-2540097Y-7657013D01*
X-2755097Y-8029403D01*
X-3101507Y-8029403D01*
X-2799906Y-7507012D01*
X-2811641Y-7500237D01*
X-2852582Y-7454768D01*
X-2858979Y-7393918D01*
X-2828387Y-7340930D01*
X-2772492Y-7316042D01*
X-2762142Y-7315500D01*
X-2495834Y-7315500D01*
X-2437643Y-7334407D01*
X-2425830Y-7344496D01*
X-2104496Y-7665830D01*
X-2076719Y-7720347D01*
X-2075500Y-7735834D01*
X-2075500Y-8673625D01*
X-2075688Y-8677927D01*
X-2079264Y-8718807D01*
X-2076911Y-8727587D01*
X-2068646Y-8758436D01*
X-2067711Y-8762652D01*
X-2060589Y-8803045D01*
X-2059836Y-8804348D01*
X-2049946Y-8828224D01*
X-2049557Y-8829679D01*
X-2049554Y-8829684D01*
X-2027124Y-8861718D01*
X-2026029Y-8863281D01*
X-2023708Y-8866924D01*
X-2003194Y-8902455D01*
X-1971776Y-8928818D01*
X-1968590Y-8931737D01*
X-1231732Y-9668596D01*
X-1228813Y-9671782D01*
X-1202455Y-9703194D01*
X-1166926Y-9723707D01*
X-1163291Y-9726022D01*
X-1129684Y-9749554D01*
X-1128233Y-9749942D01*
X-1104341Y-9759840D01*
X-1103046Y-9760588D01*
X-1094146Y-9762157D01*
X-1062635Y-9767713D01*
X-1058456Y-9768638D01*
X-1018807Y-9779263D01*
X-977935Y-9775687D01*
X-973635Y-9775500D01*
X-943608Y-9775500D01*
X-885417Y-9794407D01*
X-861293Y-9819498D01*
X-844552Y-9844552D01*
X-778231Y-9888867D01*
X-733769Y-9897711D01*
X-719759Y-9900498D01*
X-719754Y-9900498D01*
X-719748Y-9900500D01*
X-719747Y-9900500D01*
X-180253Y-9900500D01*
X-180252Y-9900500D01*
X-121769Y-9888867D01*
X-55448Y-9844552D01*
X-55447Y-9844549D01*
X-55003Y-9844253D01*
X3885Y-9827644D01*
X55003Y-9844253D01*
X55446Y-9844549D01*
X55448Y-9844552D01*
X121769Y-9888867D01*
X166231Y-9897711D01*
X180241Y-9900498D01*
X180246Y-9900498D01*
X180252Y-9900500D01*
X500002Y-9900500D01*
X558193Y-9919407D01*
X594157Y-9968907D01*
X598155Y-9986578D01*
X611107Y-10084961D01*
X611109Y-10084969D01*
X671614Y-10231041D01*
X671614Y-10231042D01*
X715249Y-10287908D01*
X767870Y-10356485D01*
X893311Y-10452739D01*
X1039390Y-10513247D01*
X1156961Y-10528725D01*
X1196151Y-10533885D01*
X1196152Y-10533885D01*
X1196153Y-10533885D01*
X1227504Y-10529757D01*
X1352914Y-10513247D01*
X1498993Y-10452739D01*
X1624434Y-10356485D01*
X1720688Y-10231044D01*
X1781196Y-10084965D01*
X1789692Y-10020428D01*
X1816031Y-9965205D01*
X1846002Y-9943628D01*
X1868316Y-9933224D01*
X1953224Y-9848316D01*
X2003972Y-9739487D01*
X2010500Y-9689901D01*
X2010499Y-9330100D01*
X2003972Y-9280513D01*
X2003972Y-9280511D01*
X1953225Y-9171686D01*
X1953224Y-9171685D01*
X1953224Y-9171684D01*
X1951797Y-9170257D01*
X1950655Y-9168016D01*
X1948256Y-9164589D01*
X1948737Y-9164251D01*
X1924022Y-9115743D01*
X1933593Y-9055311D01*
X1963016Y-9020600D01*
X1984638Y-9004642D01*
X1984641Y-9004639D01*
X2063405Y-8897920D01*
X2107212Y-8772727D01*
X2110000Y-8743000D01*
X2110000Y-8700001D01*
X2109999Y-8700000D01*
X1449000Y-8700000D01*
X1390809Y-8681093D01*
X1354845Y-8631593D01*
X1350000Y-8601000D01*
X1350000Y-8399999D01*
X1650000Y-8399999D01*
X1650001Y-8400000D01*
X2109998Y-8400000D01*
X2109999Y-8399999D01*
X2109999Y-8356996D01*
X2107213Y-8327278D01*
X2107212Y-8327273D01*
X2063405Y-8202079D01*
X1984641Y-8095360D01*
X1984639Y-8095358D01*
X1877920Y-8016594D01*
X1752727Y-7972787D01*
X1723000Y-7970000D01*
X1650001Y-7970000D01*
X1650000Y-7970001D01*
X1650000Y-8399999D01*
X1350000Y-8399999D01*
X1350000Y-7969999D01*
X1276996Y-7970000D01*
X1247278Y-7972786D01*
X1247273Y-7972787D01*
X1122079Y-8016594D01*
X1013289Y-8096887D01*
X955241Y-8116229D01*
X896911Y-8097758D01*
X860577Y-8048529D01*
X855500Y-8017232D01*
X855500Y-7805834D01*
X874407Y-7747643D01*
X884496Y-7735830D01*
X1075830Y-7544496D01*
X1130347Y-7516719D01*
X1145834Y-7515500D01*
X1694166Y-7515500D01*
X1752357Y-7534407D01*
X1764170Y-7544496D01*
X2847208Y-8627536D01*
X2850127Y-8630722D01*
X2876485Y-8662134D01*
X2912023Y-8682651D01*
X2915656Y-8684966D01*
X2949256Y-8708493D01*
X2950706Y-8708881D01*
X2974589Y-8718774D01*
X2975895Y-8719528D01*
X3016306Y-8726653D01*
X3020495Y-8727581D01*
X3060133Y-8738203D01*
X3101005Y-8734627D01*
X3105305Y-8734440D01*
X3945867Y-8734440D01*
X4004058Y-8753347D01*
X4031602Y-8783939D01*
X4049903Y-8815637D01*
X4080017Y-8867797D01*
X4080019Y-8867799D01*
X4119335Y-8912630D01*
X4190873Y-8947908D01*
X4270466Y-8953125D01*
X4326930Y-8933958D01*
X4794148Y-8664210D01*
X4838979Y-8624894D01*
X4874257Y-8553356D01*
X4874257Y-8553353D01*
X4874493Y-8552875D01*
X4917187Y-8509047D01*
X4969760Y-8497872D01*
X4970292Y-8497906D01*
X4970295Y-8497908D01*
X5049888Y-8503125D01*
X5106352Y-8483958D01*
X5415171Y-8305661D01*
X5475017Y-8292941D01*
X5530913Y-8317828D01*
X5543210Y-8331131D01*
X5571712Y-8368275D01*
X5571713Y-8368276D01*
X5571718Y-8368282D01*
X5697159Y-8464536D01*
X5697160Y-8464536D01*
X5697161Y-8464537D01*
X5804618Y-8509047D01*
X5843238Y-8525044D01*
X5960809Y-8540522D01*
X5999999Y-8545682D01*
X6000000Y-8545682D01*
X6000001Y-8545682D01*
X6031352Y-8541554D01*
X6156762Y-8525044D01*
X6302841Y-8464536D01*
X6428282Y-8368282D01*
X6524536Y-8242841D01*
X6585044Y-8096762D01*
X6605682Y-7940000D01*
X6585044Y-7783238D01*
X6569044Y-7744612D01*
X6564244Y-7683619D01*
X6570413Y-7665955D01*
X6570581Y-7665326D01*
X6570583Y-7665324D01*
X6601661Y-7549337D01*
X6601237Y-7544496D01*
X6592591Y-7445659D01*
X6591196Y-7429715D01*
X6572056Y-7383508D01*
X6553595Y-7351533D01*
X6449817Y-7171785D01*
X6392155Y-7071912D01*
X6361709Y-7032231D01*
X6263345Y-6963357D01*
X6263342Y-6963356D01*
X6261397Y-6962835D01*
X6259290Y-6961466D01*
X6255495Y-6959697D01*
X6255743Y-6959163D01*
X6210084Y-6929509D01*
X6188159Y-6872386D01*
X6196284Y-6827620D01*
X6207032Y-6802984D01*
X6207032Y-6802982D01*
X6221883Y-6671186D01*
X6221883Y-6671179D01*
X6197223Y-6540854D01*
X6184774Y-6513715D01*
X6163275Y-6476479D01*
X6163274Y-6476479D01*
X5722623Y-6730889D01*
X5722621Y-6730889D01*
X5590832Y-6806978D01*
X5530984Y-6819699D01*
X5475088Y-6794812D01*
X5455595Y-6770741D01*
X5140096Y-6224280D01*
X5076864Y-6260788D01*
X5076854Y-6260795D01*
X5052535Y-6278049D01*
X5052527Y-6278056D01*
X4966008Y-6378592D01*
X4912967Y-6500165D01*
X4912967Y-6500167D01*
X4907082Y-6552395D01*
X4881778Y-6608103D01*
X4828563Y-6638298D01*
X4802230Y-6640097D01*
X4765205Y-6637671D01*
X4729536Y-6635333D01*
X4729535Y-6635333D01*
X4729534Y-6635333D01*
X4714039Y-6640593D01*
X4676825Y-6653225D01*
X4615645Y-6654024D01*
X4575000Y-6629481D01*
X4494496Y-6548976D01*
X4466719Y-6494459D01*
X4465500Y-6478973D01*
X4465500Y-6455834D01*
X4484407Y-6397643D01*
X4494496Y-6385830D01*
X4806046Y-6074280D01*
X5399904Y-6074280D01*
X5614903Y-6446669D01*
X6013273Y-6216670D01*
X5991778Y-6179438D01*
X5991767Y-6179420D01*
X5974501Y-6155085D01*
X5873960Y-6068563D01*
X5873962Y-6068563D01*
X5752389Y-6015523D01*
X5620592Y-6000672D01*
X5620585Y-6000672D01*
X5490262Y-6025330D01*
X5490259Y-6025331D01*
X5463120Y-6037781D01*
X5463111Y-6037786D01*
X5399904Y-6074279D01*
X5399904Y-6074280D01*
X4806046Y-6074280D01*
X5255830Y-5624496D01*
X5310347Y-5596719D01*
X5325834Y-5595500D01*
X5664166Y-5595500D01*
X5722357Y-5614407D01*
X5734170Y-5624496D01*
X6378257Y-6268584D01*
X6381175Y-6271769D01*
X6406177Y-6301564D01*
X6407545Y-6303194D01*
X6443073Y-6323706D01*
X6446712Y-6326025D01*
X6480311Y-6349551D01*
X6480313Y-6349552D01*
X6480316Y-6349554D01*
X6481767Y-6349942D01*
X6505659Y-6359840D01*
X6506186Y-6360143D01*
X6506955Y-6360588D01*
X6547351Y-6367710D01*
X6551548Y-6368640D01*
X6591193Y-6379264D01*
X6632077Y-6375687D01*
X6636377Y-6375500D01*
X7107394Y-6375500D01*
X7126432Y-6368570D01*
X7143096Y-6364105D01*
X7163045Y-6360588D01*
X7180591Y-6350457D01*
X7196224Y-6343168D01*
X7215260Y-6336240D01*
X7230779Y-6323216D01*
X7244910Y-6313322D01*
X7262455Y-6303194D01*
X7275479Y-6287671D01*
X7287672Y-6275478D01*
X7303194Y-6262455D01*
X7313317Y-6244918D01*
X7323221Y-6230775D01*
X7323600Y-6230324D01*
X7336240Y-6215261D01*
X7338760Y-6208335D01*
X7361784Y-6172191D01*
X7496039Y-6037936D01*
X7550554Y-6010161D01*
X7610986Y-6019732D01*
X7654251Y-6062997D01*
X7664194Y-6095019D01*
X7674955Y-6176759D01*
X7674957Y-6176766D01*
X7735462Y-6322838D01*
X7735462Y-6322839D01*
X7830480Y-6446669D01*
X7831718Y-6448282D01*
X7957159Y-6544536D01*
X7957160Y-6544536D01*
X7957161Y-6544537D01*
X8054949Y-6585042D01*
X8103238Y-6605044D01*
X8220809Y-6620522D01*
X8259999Y-6625682D01*
X8260000Y-6625682D01*
X8260001Y-6625682D01*
X8291352Y-6621554D01*
X8416762Y-6605044D01*
X8562841Y-6544536D01*
X8688282Y-6448282D01*
X8784536Y-6322841D01*
X8845044Y-6176762D01*
X8865682Y-6020000D01*
X8855143Y-5939955D01*
X8866292Y-5879797D01*
X8883289Y-5857036D01*
X8946452Y-5793873D01*
X8982597Y-5770848D01*
X8995260Y-5766240D01*
X9010779Y-5753216D01*
X9024910Y-5743322D01*
X9042455Y-5733194D01*
X9055479Y-5717671D01*
X9067672Y-5705478D01*
X9083194Y-5692455D01*
X9093317Y-5674918D01*
X9103221Y-5660775D01*
X9116238Y-5645263D01*
X9116237Y-5645263D01*
X9116240Y-5645261D01*
X9123173Y-5626211D01*
X9130459Y-5610588D01*
X9140588Y-5593045D01*
X9144104Y-5573096D01*
X9148572Y-5556426D01*
X9155500Y-5537394D01*
X9155500Y-5422606D01*
X9155500Y-4772722D01*
X9155687Y-4768421D01*
X9159264Y-4727542D01*
X9148640Y-4687897D01*
X9147710Y-4683697D01*
X9142800Y-4655852D01*
X9140588Y-4643304D01*
X9139840Y-4642008D01*
X9129942Y-4618116D01*
X9129554Y-4616665D01*
X9129552Y-4616662D01*
X9129551Y-4616660D01*
X9106025Y-4583061D01*
X9103703Y-4579417D01*
X9096980Y-4567773D01*
X9083194Y-4543894D01*
X9083193Y-4543892D01*
X9055070Y-4520295D01*
X9051765Y-4517522D01*
X9048588Y-4514610D01*
X8958975Y-4424998D01*
X8931198Y-4370481D01*
X8935232Y-4323174D01*
X8953125Y-4270466D01*
X8947908Y-4190873D01*
X8947905Y-4190867D01*
X8945384Y-4181455D01*
X8947639Y-4180850D01*
X8940805Y-4133723D01*
X8969292Y-4079575D01*
X9024167Y-4052512D01*
X9029748Y-4051864D01*
X9032063Y-4051660D01*
X9032070Y-4051661D01*
X9148057Y-4020583D01*
X9246420Y-3951708D01*
X9276867Y-3912030D01*
X9486766Y-3548471D01*
X9505907Y-3502264D01*
X9516373Y-3382641D01*
X9485294Y-3266655D01*
X9482843Y-3263155D01*
X9422170Y-3176503D01*
X9416420Y-3168291D01*
X9415446Y-3167544D01*
X9411390Y-3164432D01*
X9376741Y-3137845D01*
X9252766Y-3066268D01*
X9065153Y-2957949D01*
X9065143Y-2957944D01*
X9018936Y-2938803D01*
X8899315Y-2928338D01*
X8899313Y-2928339D01*
X8897362Y-2928862D01*
X8894847Y-2928729D01*
X8890687Y-2929094D01*
X8890635Y-2928508D01*
X8836261Y-2925655D01*
X8788714Y-2887146D01*
X8773368Y-2844317D01*
X8770358Y-2817607D01*
X8717319Y-2696037D01*
X8717317Y-2696035D01*
X8630804Y-2595505D01*
X8630803Y-2595504D01*
X8606456Y-2578228D01*
X8569210Y-2556724D01*
X8339211Y-2955096D01*
X8238711Y-3129166D01*
X8193242Y-3170107D01*
X8132391Y-3176503D01*
X8103475Y-3165403D01*
X7952377Y-3078167D01*
X7557012Y-2849904D01*
X7554244Y-2850646D01*
X7493142Y-2847443D01*
X7450079Y-2815286D01*
X7378286Y-2721723D01*
X7378285Y-2721722D01*
X7378282Y-2721718D01*
X7378277Y-2721714D01*
X7378276Y-2721713D01*
X7252838Y-2625462D01*
X7167455Y-2590095D01*
X7707013Y-2590095D01*
X8079403Y-2805095D01*
X8309402Y-2406723D01*
X8272165Y-2385225D01*
X8245029Y-2372776D01*
X8245027Y-2372775D01*
X8213308Y-2366774D01*
X8160473Y-2337830D01*
X8144583Y-2346639D01*
X8121993Y-2348389D01*
X8114697Y-2348116D01*
X7982900Y-2362967D01*
X7982898Y-2362967D01*
X7861325Y-2416008D01*
X7760789Y-2502527D01*
X7743514Y-2526876D01*
X7707013Y-2590095D01*
X7167455Y-2590095D01*
X7106766Y-2564957D01*
X7106758Y-2564955D01*
X6950001Y-2544318D01*
X6949999Y-2544318D01*
X6793241Y-2564955D01*
X6793233Y-2564957D01*
X6647161Y-2625462D01*
X6647160Y-2625462D01*
X6521723Y-2721713D01*
X6521713Y-2721723D01*
X6425462Y-2847160D01*
X6425462Y-2847161D01*
X6364957Y-2993233D01*
X6364955Y-2993241D01*
X6344318Y-3149999D01*
X6344318Y-3150000D01*
X6364955Y-3306758D01*
X6364957Y-3306766D01*
X6425462Y-3452838D01*
X6425462Y-3452839D01*
X6519370Y-3575222D01*
X6521718Y-3578282D01*
X6521722Y-3578285D01*
X6521723Y-3578286D01*
X6551082Y-3600813D01*
X6647159Y-3674536D01*
X6647160Y-3674536D01*
X6647161Y-3674537D01*
X6664674Y-3681791D01*
X6793238Y-3735044D01*
X6950000Y-3755682D01*
X7004381Y-3748522D01*
X7064542Y-3759672D01*
X7106660Y-3804054D01*
X7114646Y-3864715D01*
X7105738Y-3888875D01*
X7106505Y-3889223D01*
X7104498Y-3893650D01*
X7082199Y-3959345D01*
X7081094Y-3958969D01*
X7058988Y-4005301D01*
X7012809Y-4032771D01*
X6956200Y-4047940D01*
X6956197Y-4047941D01*
X6865661Y-4114147D01*
X6865660Y-4114148D01*
X6850600Y-4134414D01*
X6850594Y-4134424D01*
X6778204Y-4259805D01*
X6778204Y-4259806D01*
X7298685Y-4560306D01*
X7339626Y-4605776D01*
X7346022Y-4666626D01*
X7334922Y-4695543D01*
X7238260Y-4862968D01*
X7034422Y-5216022D01*
X7034422Y-5216023D01*
X7152743Y-5284335D01*
X7193684Y-5329805D01*
X7200080Y-5390655D01*
X7173247Y-5440075D01*
X6917822Y-5695503D01*
X6863306Y-5723281D01*
X6847818Y-5724500D01*
X6795834Y-5724500D01*
X6737643Y-5705593D01*
X6725830Y-5695504D01*
X6081741Y-5051414D01*
X6078822Y-5048229D01*
X6052456Y-5016806D01*
X6023224Y-4999929D01*
X6016918Y-4996288D01*
X6013283Y-4993972D01*
X5979684Y-4970446D01*
X5979679Y-4970443D01*
X5978224Y-4970054D01*
X5954348Y-4960164D01*
X5953045Y-4959411D01*
X5912652Y-4952289D01*
X5908436Y-4951354D01*
X5882153Y-4944312D01*
X5868807Y-4940736D01*
X5868806Y-4940736D01*
X5864381Y-4941123D01*
X5827926Y-4944312D01*
X5823626Y-4944500D01*
X5166374Y-4944500D01*
X5162073Y-4944312D01*
X5121193Y-4940736D01*
X5121187Y-4940736D01*
X5081564Y-4951353D01*
X5077349Y-4952287D01*
X5036960Y-4959410D01*
X5036948Y-4959414D01*
X5035640Y-4960170D01*
X5011786Y-4970051D01*
X5010324Y-4970442D01*
X5010316Y-4970446D01*
X4989856Y-4984772D01*
X4976716Y-4993972D01*
X4973080Y-4996288D01*
X4966775Y-4999929D01*
X4937548Y-5016803D01*
X4937545Y-5016806D01*
X4911175Y-5048231D01*
X4908257Y-5051415D01*
X3921413Y-6038259D01*
X3918228Y-6041176D01*
X3886807Y-6067542D01*
X3886806Y-6067544D01*
X3878063Y-6082687D01*
X3867779Y-6100500D01*
X3866292Y-6103075D01*
X3863972Y-6106716D01*
X3840446Y-6140316D01*
X3840442Y-6140324D01*
X3840051Y-6141786D01*
X3830170Y-6165640D01*
X3829414Y-6166948D01*
X3829410Y-6166960D01*
X3822287Y-6207349D01*
X3821353Y-6211564D01*
X3810736Y-6251187D01*
X3810736Y-6251193D01*
X3814312Y-6292072D01*
X3814500Y-6296373D01*
X3814500Y-6638432D01*
X3814312Y-6642734D01*
X3811824Y-6671179D01*
X3810736Y-6683613D01*
X3821354Y-6723243D01*
X3822289Y-6727459D01*
X3829411Y-6767852D01*
X3830164Y-6769155D01*
X3840054Y-6793031D01*
X3840443Y-6794486D01*
X3840446Y-6794491D01*
X3849189Y-6806978D01*
X3863971Y-6828088D01*
X3866288Y-6831725D01*
X3885881Y-6865660D01*
X3891137Y-6874763D01*
X3888215Y-6876449D01*
X3905279Y-6918720D01*
X3890459Y-6978083D01*
X3856018Y-7011333D01*
X3740193Y-7078204D01*
X3940193Y-7424614D01*
X4040692Y-7598685D01*
X4053413Y-7658534D01*
X4028526Y-7714429D01*
X4004455Y-7733922D01*
X3469108Y-8043004D01*
X3457176Y-8061378D01*
X3400054Y-8083304D01*
X3394874Y-8083440D01*
X3264775Y-8083440D01*
X3206584Y-8064533D01*
X3194771Y-8054444D01*
X2654863Y-7514536D01*
X3239490Y-7514536D01*
X3251557Y-7626040D01*
X3251558Y-7626042D01*
X3261582Y-7649226D01*
X3333974Y-7774612D01*
X3333975Y-7774612D01*
X3680383Y-7574613D01*
X3480384Y-7228204D01*
X3354989Y-7300602D01*
X3334723Y-7315662D01*
X3268520Y-7406194D01*
X3268519Y-7406196D01*
X3239490Y-7514534D01*
X3239490Y-7514536D01*
X2654863Y-7514536D01*
X2111741Y-6971414D01*
X2108822Y-6968229D01*
X2082456Y-6936806D01*
X2051130Y-6918720D01*
X2046918Y-6916288D01*
X2043283Y-6913972D01*
X2009684Y-6890446D01*
X2009679Y-6890443D01*
X2008224Y-6890054D01*
X1984348Y-6880164D01*
X1983045Y-6879411D01*
X1942652Y-6872289D01*
X1938436Y-6871354D01*
X1912153Y-6864312D01*
X1898807Y-6860736D01*
X1898806Y-6860736D01*
X1894381Y-6861123D01*
X1857926Y-6864312D01*
X1853626Y-6864500D01*
X986374Y-6864500D01*
X982073Y-6864312D01*
X941193Y-6860736D01*
X941187Y-6860736D01*
X901564Y-6871353D01*
X897349Y-6872287D01*
X856960Y-6879410D01*
X856948Y-6879414D01*
X855640Y-6880170D01*
X831786Y-6890051D01*
X830324Y-6890442D01*
X830316Y-6890446D01*
X796716Y-6913972D01*
X793080Y-6916288D01*
X784875Y-6921025D01*
X757545Y-6936805D01*
X731181Y-6968224D01*
X728263Y-6971408D01*
X311413Y-7388259D01*
X308229Y-7391176D01*
X276807Y-7417542D01*
X276806Y-7417544D01*
X256292Y-7453075D01*
X253972Y-7456716D01*
X230446Y-7490316D01*
X230442Y-7490324D01*
X230051Y-7491786D01*
X220170Y-7515640D01*
X219414Y-7516948D01*
X219410Y-7516960D01*
X212287Y-7557349D01*
X211353Y-7561564D01*
X200736Y-7601187D01*
X200736Y-7601193D01*
X204312Y-7642072D01*
X204500Y-7646373D01*
X204500Y-8013429D01*
X185593Y-8071620D01*
X136093Y-8107584D01*
X124815Y-8110527D01*
X112207Y-8113035D01*
X111979Y-8111890D01*
X60802Y-8115913D01*
X13919Y-8089655D01*
X-27523Y-8048213D01*
X-130128Y-8002909D01*
X-155203Y-8000000D01*
X-299999Y-8000000D01*
X-300000Y-8000001D01*
X-300000Y-8601000D01*
X-318907Y-8659191D01*
X-368407Y-8695155D01*
X-399000Y-8700000D01*
X-999998Y-8700000D01*
X-999999Y-8700001D01*
X-999999Y-8740666D01*
X-1018906Y-8798857D01*
X-1068406Y-8834821D01*
X-1129592Y-8834821D01*
X-1169003Y-8810670D01*
X-1395504Y-8584169D01*
X-1423281Y-8529652D01*
X-1424500Y-8514165D01*
X-1424500Y-8399999D01*
X-1000000Y-8399999D01*
X-999999Y-8400000D01*
X-600001Y-8400000D01*
X-600000Y-8399999D01*
X-600000Y-8000001D01*
X-600001Y-8000000D01*
X-744790Y-8000000D01*
X-744793Y-8000001D01*
X-769875Y-8002909D01*
X-872478Y-8048213D01*
X-951787Y-8127522D01*
X-997091Y-8230127D01*
X-1000000Y-8255202D01*
X-1000000Y-8399999D01*
X-1424500Y-8399999D01*
X-1424500Y-7576373D01*
X-1424313Y-7572072D01*
X-1420736Y-7531193D01*
X-1431360Y-7491548D01*
X-1432290Y-7487348D01*
X-1439412Y-7446955D01*
X-1440160Y-7445659D01*
X-1450058Y-7421767D01*
X-1450446Y-7420316D01*
X-1450448Y-7420313D01*
X-1450449Y-7420311D01*
X-1473975Y-7386712D01*
X-1476297Y-7383068D01*
X-1496807Y-7347543D01*
X-1517931Y-7329819D01*
X-1528235Y-7321173D01*
X-1531412Y-7318261D01*
X-2078259Y-6771414D01*
X-2081178Y-6768229D01*
X-2107544Y-6736806D01*
X-2135512Y-6720659D01*
X-2143082Y-6716288D01*
X-2146717Y-6713972D01*
X-2180316Y-6690446D01*
X-2180321Y-6690443D01*
X-2181776Y-6690054D01*
X-2205652Y-6680164D01*
X-2206955Y-6679411D01*
X-2247348Y-6672289D01*
X-2251564Y-6671354D01*
X-2277847Y-6664312D01*
X-2291193Y-6660736D01*
X-2291194Y-6660736D01*
X-2295619Y-6661123D01*
X-2332074Y-6664312D01*
X-2336374Y-6664500D01*
X-3229397Y-6664500D01*
X-3233698Y-6664312D01*
X-3274578Y-6660736D01*
X-3274584Y-6660736D01*
X-3314207Y-6671353D01*
X-3318422Y-6672287D01*
X-3358811Y-6679410D01*
X-3358823Y-6679414D01*
X-3360131Y-6680170D01*
X-3383985Y-6690051D01*
X-3385447Y-6690442D01*
X-3385455Y-6690446D01*
X-3419055Y-6713972D01*
X-3422691Y-6716288D01*
X-3430260Y-6720659D01*
X-3458226Y-6736805D01*
X-3484590Y-6768224D01*
X-3487508Y-6771408D01*
X-3795580Y-7079481D01*
X-3850097Y-7107258D01*
X-3897405Y-7103224D01*
X-3928050Y-7092822D01*
X-3950112Y-7085333D01*
X-3950114Y-7085333D01*
X-3959344Y-7082200D01*
X-3958970Y-7081095D01*
X-4005301Y-7058989D01*
X-4032773Y-7012808D01*
X-4047942Y-6956197D01*
X-4114148Y-6865661D01*
X-4114149Y-6865660D01*
X-4134415Y-6850600D01*
X-4134425Y-6850594D01*
X-4259807Y-6778204D01*
X-4259809Y-6778204D01*
X-4560308Y-7298684D01*
X-4605777Y-7339625D01*
X-4666627Y-7346021D01*
X-4695544Y-7334921D01*
X-4846642Y-7247685D01*
X-5216027Y-7034422D01*
X-5219878Y-7035454D01*
X-5280979Y-7032251D01*
X-5328529Y-6993746D01*
X-5344500Y-6939827D01*
X-5344500Y-6774613D01*
X-5066025Y-6774613D01*
X-4719616Y-6974612D01*
X-4519617Y-6628204D01*
X-4645010Y-6555808D01*
X-4668186Y-6545787D01*
X-4668193Y-6545786D01*
X-4779693Y-6533719D01*
X-4779695Y-6533719D01*
X-4888032Y-6562748D01*
X-4978568Y-6628954D01*
X-4978569Y-6628955D01*
X-4993629Y-6649221D01*
X-4993635Y-6649231D01*
X-5066025Y-6774612D01*
X-5066025Y-6774613D01*
X-5344500Y-6774613D01*
X-5344500Y-6545832D01*
X-5325593Y-6487641D01*
X-5315510Y-6475835D01*
X-4881412Y-6041736D01*
X-4878236Y-6038827D01*
X-4872924Y-6034368D01*
X-4846806Y-6012455D01*
X-4826286Y-5976911D01*
X-4823988Y-5973303D01*
X-4800446Y-5939684D01*
X-4800058Y-5938236D01*
X-4790162Y-5914345D01*
X-4789412Y-5913045D01*
X-4782291Y-5872656D01*
X-4781360Y-5868452D01*
X-4770736Y-5828807D01*
X-4774313Y-5787922D01*
X-4774500Y-5783623D01*
X-4774500Y-5116373D01*
X-4774313Y-5112072D01*
X-4770736Y-5071193D01*
X-4781360Y-5031548D01*
X-4782290Y-5027348D01*
X-4782760Y-5024682D01*
X-4789412Y-4986955D01*
X-4790160Y-4985659D01*
X-4800058Y-4961767D01*
X-4800446Y-4960316D01*
X-4800448Y-4960313D01*
X-4800449Y-4960311D01*
X-4823975Y-4926712D01*
X-4826297Y-4923068D01*
X-4846807Y-4887543D01*
X-4867931Y-4869819D01*
X-4878235Y-4861173D01*
X-4881412Y-4858261D01*
X-5293548Y-4446125D01*
X-5296467Y-4442940D01*
X-5322833Y-4411517D01*
X-5345471Y-4398447D01*
X-5358371Y-4390999D01*
X-5362001Y-4388686D01*
X-5395605Y-4365157D01*
X-5395610Y-4365154D01*
X-5397065Y-4364765D01*
X-5420941Y-4354875D01*
X-5422244Y-4354122D01*
X-5462637Y-4347000D01*
X-5466853Y-4346065D01*
X-5493136Y-4339023D01*
X-5506482Y-4335447D01*
X-5506483Y-4335447D01*
X-5510908Y-4335834D01*
X-5547363Y-4339023D01*
X-5551663Y-4339211D01*
X-6790096Y-4339211D01*
X-6848287Y-4320304D01*
X-6875832Y-4289711D01*
X-6911844Y-4227336D01*
X-6924247Y-4205853D01*
X-6937139Y-4191153D01*
X-6963564Y-4161021D01*
X-6963566Y-4161020D01*
X-6969993Y-4153691D01*
X-6969115Y-4152920D01*
X-6998185Y-4110625D01*
X-6998888Y-4056882D01*
X-6983720Y-4000275D01*
X-6983720Y-4000270D01*
X-6995787Y-3888766D01*
X-6995788Y-3888764D01*
X-7005812Y-3865580D01*
X-7078204Y-3740193D01*
X-7078206Y-3740193D01*
X-7466896Y-3964603D01*
X-7466897Y-3964604D01*
X-7598686Y-4040692D01*
X-7658535Y-4053413D01*
X-7714430Y-4028526D01*
X-7733922Y-4004455D01*
X-8034422Y-3483975D01*
X-8034423Y-3483975D01*
X-8159818Y-3556373D01*
X-8180084Y-3571433D01*
X-8225587Y-3633659D01*
X-8275198Y-3669470D01*
X-8336383Y-3669282D01*
X-8385772Y-3633166D01*
X-8404500Y-3575222D01*
X-8404500Y-3555834D01*
X-8385593Y-3497643D01*
X-8375504Y-3485830D01*
X-8223649Y-3333975D01*
X-7774614Y-3333975D01*
X-7574615Y-3680383D01*
X-7228206Y-3480384D01*
X-7228206Y-3480383D01*
X-7300600Y-3354993D01*
X-7315663Y-3334723D01*
X-7406195Y-3268520D01*
X-7406197Y-3268519D01*
X-7514536Y-3239490D01*
X-7626041Y-3251557D01*
X-7626043Y-3251558D01*
X-7649216Y-3261577D01*
X-7774614Y-3333975D01*
X-8223649Y-3333975D01*
X-7081411Y-2191737D01*
X-7078234Y-2188824D01*
X-7046806Y-2162455D01*
X-7026291Y-2126919D01*
X-7023973Y-2123283D01*
X-7012065Y-2106275D01*
X-7000447Y-2089684D01*
X-7000058Y-2088231D01*
X-6990167Y-2064352D01*
X-6989412Y-2063045D01*
X-6982286Y-2022624D01*
X-6981358Y-2018439D01*
X-6970737Y-1978807D01*
X-6974313Y-1937934D01*
X-6974500Y-1933634D01*
X-6974500Y-1306362D01*
X-6974313Y-1302061D01*
X-6970737Y-1261193D01*
X-6981358Y-1221559D01*
X-6982288Y-1217360D01*
X-6989412Y-1176955D01*
X-6990166Y-1175649D01*
X-7000059Y-1151765D01*
X-7000447Y-1150316D01*
X-7001597Y-1148674D01*
X-7023973Y-1116717D01*
X-7026289Y-1113083D01*
X-7046806Y-1077545D01*
X-7078229Y-1051178D01*
X-7081406Y-1048266D01*
X-7898259Y-231414D01*
X-7901178Y-228229D01*
X-7927544Y-196806D01*
X-7960571Y-177738D01*
X-7963082Y-176288D01*
X-7966712Y-173975D01*
X-8000316Y-150446D01*
X-8000321Y-150443D01*
X-8001776Y-150054D01*
X-8025652Y-140164D01*
X-8034456Y-135081D01*
X-8032560Y-131796D01*
X-8067511Y-104085D01*
X-8083954Y-45150D01*
X-8067154Y0D01*
X-6105452Y0D01*
X-6098185Y-180342D01*
X-6097526Y-196682D01*
X-6097526Y-245717D01*
X-6093580Y-294603D01*
X-6085654Y-491285D01*
X-6085654Y-491291D01*
X-6085653Y-491296D01*
X-6061930Y-686674D01*
X-6057981Y-735580D01*
X-6057981Y-735581D01*
X-6050113Y-783992D01*
X-6026389Y-979379D01*
X-5987015Y-1172247D01*
X-5979149Y-1220647D01*
X-5967413Y-1268263D01*
X-5967141Y-1269596D01*
X-5928041Y-1461122D01*
X-5928038Y-1461134D01*
X-5873274Y-1650203D01*
X-5861538Y-1697816D01*
X-5846010Y-1744329D01*
X-5835331Y-1781196D01*
X-5791244Y-1933401D01*
X-5791241Y-1933410D01*
X-5791240Y-1933412D01*
X-5721451Y-2117432D01*
X-5719497Y-2123283D01*
X-5707328Y-2159734D01*
X-5705913Y-2163970D01*
X-5705913Y-2163971D01*
X-5686683Y-2209105D01*
X-5616894Y-2393124D01*
X-5616890Y-2393133D01*
X-5567108Y-2498047D01*
X-5532514Y-2570953D01*
X-5513283Y-2616088D01*
X-5490487Y-2659523D01*
X-5406108Y-2837347D01*
X-5307702Y-3007792D01*
X-5284896Y-3051244D01*
X-5258675Y-3092710D01*
X-5210296Y-3176503D01*
X-5160267Y-3263155D01*
X-5160264Y-3263159D01*
X-5160263Y-3263161D01*
X-5048468Y-3425124D01*
X-5022241Y-3466598D01*
X-5022233Y-3466610D01*
X-4992770Y-3505817D01*
X-4880959Y-3667803D01*
X-4869538Y-3681791D01*
X-4756477Y-3820266D01*
X-4727008Y-3859482D01*
X-4707838Y-3881120D01*
X-4694482Y-3896197D01*
X-4569999Y-4048661D01*
X-4433641Y-4190625D01*
X-4401123Y-4227330D01*
X-4365750Y-4261307D01*
X-4229398Y-4403264D01*
X-4229395Y-4403267D01*
X-4205702Y-4424257D01*
X-4082079Y-4533778D01*
X-4046690Y-4567769D01*
X-4008696Y-4598789D01*
X-3946460Y-4653925D01*
X-3861366Y-4729313D01*
X-3861366Y-4729312D01*
X-3861365Y-4729313D01*
X-3803598Y-4772722D01*
X-3704019Y-4847551D01*
X-3666015Y-4878580D01*
X-3666012Y-4878582D01*
X-3625642Y-4906447D01*
X-3611350Y-4917187D01*
X-3468296Y-5024686D01*
X-3301942Y-5129882D01*
X-3261565Y-5157752D01*
X-3219084Y-5182278D01*
X-3052726Y-5287477D01*
X-2878436Y-5378951D01*
X-2835962Y-5403474D01*
X-2815652Y-5413111D01*
X-2791644Y-5424503D01*
X-2764396Y-5438804D01*
X-2617368Y-5515970D01*
X-2617369Y-5515970D01*
X-2617363Y-5515972D01*
X-2617362Y-5515973D01*
X-2436283Y-5593123D01*
X-2391967Y-5614152D01*
X-2346097Y-5631548D01*
X-2165023Y-5708697D01*
X-2165019Y-5708698D01*
X-2165018Y-5708699D01*
X-2117687Y-5724500D01*
X-1978303Y-5771033D01*
X-1932459Y-5788420D01*
X-1919668Y-5792125D01*
X-1885347Y-5802067D01*
X-1698651Y-5864395D01*
X-1698650Y-5864395D01*
X-1698647Y-5864395D01*
X-1698643Y-5864397D01*
X-1507529Y-5911502D01*
X-1480012Y-5919473D01*
X-1460416Y-5925150D01*
X-1438507Y-5929622D01*
X-1412351Y-5934962D01*
X-1221247Y-5982065D01*
X-1221245Y-5982065D01*
X-1221242Y-5982066D01*
X-1221243Y-5982066D01*
X-1182662Y-5988335D01*
X-1026946Y-6013641D01*
X-978906Y-6023450D01*
X-930223Y-6029360D01*
X-810839Y-6048762D01*
X-735929Y-6060937D01*
X-684362Y-6065099D01*
X-539730Y-6076775D01*
X-491045Y-6082687D01*
X-442048Y-6084660D01*
X-245842Y-6100500D01*
X-245837Y-6100500D01*
X-49033Y-6100500D01*
X0Y-6102476D01*
X49033Y-6100500D01*
X245837Y-6100500D01*
X245842Y-6100500D01*
X442050Y-6084660D01*
X491045Y-6082687D01*
X539732Y-6076774D01*
X683022Y-6065207D01*
X735929Y-6060937D01*
X819819Y-6047302D01*
X930212Y-6029362D01*
X978906Y-6023450D01*
X1026959Y-6013639D01*
X1221247Y-5982065D01*
X1412360Y-5934959D01*
X1441483Y-5929014D01*
X1460416Y-5925150D01*
X1475649Y-5920737D01*
X1507515Y-5911505D01*
X1698643Y-5864397D01*
X1698646Y-5864395D01*
X1698650Y-5864395D01*
X1698651Y-5864395D01*
X1763570Y-5842721D01*
X1885369Y-5802058D01*
X1895469Y-5799134D01*
X1932448Y-5788424D01*
X1932459Y-5788420D01*
X1978308Y-5771031D01*
X2117687Y-5724500D01*
X2165018Y-5708699D01*
X2165018Y-5708698D01*
X2165023Y-5708697D01*
X2346113Y-5631541D01*
X2381359Y-5618174D01*
X2391968Y-5614152D01*
X2407583Y-5606742D01*
X2436278Y-5593125D01*
X2617362Y-5515973D01*
X2617362Y-5515972D01*
X2617369Y-5515970D01*
X2617368Y-5515970D01*
X2791657Y-5424496D01*
X2835962Y-5403474D01*
X2878424Y-5378957D01*
X3052726Y-5287477D01*
X3219100Y-5182267D01*
X3261565Y-5157752D01*
X3301942Y-5129882D01*
X3374670Y-5083891D01*
X3468292Y-5024688D01*
X3468294Y-5024686D01*
X3468301Y-5024682D01*
X3514173Y-4990211D01*
X3625653Y-4906438D01*
X3663227Y-4880503D01*
X3666018Y-4878578D01*
X3690901Y-4858261D01*
X3704002Y-4847562D01*
X3794319Y-4779694D01*
X6533719Y-4779694D01*
X6562748Y-4888031D01*
X6628954Y-4978567D01*
X6628955Y-4978568D01*
X6649219Y-4993627D01*
X6774613Y-5066023D01*
X6974612Y-4719614D01*
X6628204Y-4519615D01*
X6555808Y-4645009D01*
X6545787Y-4668185D01*
X6545786Y-4668192D01*
X6533719Y-4779692D01*
X6533719Y-4779694D01*
X3794319Y-4779694D01*
X3861365Y-4729313D01*
X3861366Y-4729312D01*
X3861366Y-4729313D01*
X3899483Y-4695543D01*
X4008698Y-4598786D01*
X4035240Y-4577117D01*
X4046686Y-4567773D01*
X4046685Y-4567773D01*
X4046690Y-4567769D01*
X4082053Y-4533800D01*
X4229395Y-4403267D01*
X4229397Y-4403265D01*
X4229398Y-4403265D01*
X4356955Y-4270463D01*
X4365755Y-4261300D01*
X4388575Y-4239383D01*
X4401118Y-4227336D01*
X4411053Y-4216120D01*
X4433625Y-4190640D01*
X4569996Y-4048664D01*
X4569995Y-4048664D01*
X4569999Y-4048661D01*
X4681554Y-3912030D01*
X4694484Y-3896192D01*
X4696738Y-3893650D01*
X4727008Y-3859482D01*
X4727009Y-3859481D01*
X4727009Y-3859482D01*
X4737098Y-3846053D01*
X4756470Y-3820273D01*
X4879598Y-3669470D01*
X4880957Y-3667806D01*
X4910066Y-3625634D01*
X4992771Y-3505813D01*
X5022239Y-3466601D01*
X5048455Y-3425141D01*
X5130170Y-3306758D01*
X5160269Y-3263153D01*
X5194954Y-3203075D01*
X5258681Y-3092696D01*
X5275394Y-3066268D01*
X5284901Y-3051236D01*
X5307701Y-3007792D01*
X5316107Y-2993233D01*
X5406109Y-2837345D01*
X5407422Y-2834579D01*
X5421412Y-2805095D01*
X5490498Y-2659498D01*
X5513284Y-2616086D01*
X5513286Y-2616082D01*
X5513286Y-2616083D01*
X5532513Y-2570953D01*
X5616890Y-2393133D01*
X5686689Y-2209087D01*
X5705914Y-2163968D01*
X5721438Y-2117461D01*
X5774024Y-1978807D01*
X5791245Y-1933401D01*
X5815340Y-1850212D01*
X5846013Y-1744313D01*
X5861538Y-1697815D01*
X5873266Y-1650227D01*
X5928039Y-1461130D01*
X5928039Y-1461126D01*
X5928041Y-1461122D01*
X5928041Y-1461123D01*
X5942395Y-1390809D01*
X5967415Y-1268250D01*
X5979148Y-1220652D01*
X5987013Y-1172253D01*
X6026388Y-979383D01*
X6050115Y-783969D01*
X6057982Y-735572D01*
X6061929Y-686674D01*
X6083912Y-505635D01*
X6085653Y-491297D01*
X6085653Y-491291D01*
X6085654Y-491285D01*
X6093580Y-294602D01*
X6097526Y-245722D01*
X6098183Y-180358D01*
X6105452Y0D01*
X6098183Y180357D01*
X6097526Y245723D01*
X6097205Y249687D01*
X6093580Y294605D01*
X6085654Y491285D01*
X6084535Y500500D01*
X6061929Y686675D01*
X6057983Y735570D01*
X6052407Y769875D01*
X6050113Y783991D01*
X6026388Y979383D01*
X5987012Y1172260D01*
X5986885Y1173040D01*
X5979148Y1220652D01*
X5967416Y1268246D01*
X5936640Y1419000D01*
X5928041Y1461123D01*
X5928041Y1461122D01*
X5928040Y1461123D01*
X5910490Y1521714D01*
X5873272Y1650205D01*
X5861537Y1697816D01*
X5861536Y1697822D01*
X5861536Y1697823D01*
X5846009Y1744330D01*
X5791245Y1933401D01*
X5721449Y2117434D01*
X5705916Y2163963D01*
X5705916Y2163964D01*
X5701033Y2175423D01*
X5686689Y2209089D01*
X5640714Y2330314D01*
X5616894Y2393125D01*
X5616893Y2393125D01*
X5616890Y2393133D01*
X5532513Y2570954D01*
X5513281Y2616093D01*
X5513281Y2616092D01*
X5490486Y2659524D01*
X5406109Y2837345D01*
X5307701Y3007793D01*
X5284899Y3051238D01*
X5258673Y3092711D01*
X5160267Y3263155D01*
X5048462Y3425133D01*
X5028195Y3457183D01*
X5022244Y3466594D01*
X5022236Y3466604D01*
X5011881Y3480385D01*
X7228204Y3480385D01*
X7300599Y3354994D01*
X7315662Y3334724D01*
X7406194Y3268521D01*
X7406196Y3268520D01*
X7514535Y3239491D01*
X7626040Y3251558D01*
X7626042Y3251559D01*
X7649222Y3261581D01*
X7774612Y3333976D01*
X7574613Y3680385D01*
X7228204Y3480386D01*
X7228204Y3480385D01*
X5011881Y3480385D01*
X4992765Y3505824D01*
X4891287Y3652840D01*
X4880959Y3667803D01*
X4756474Y3820270D01*
X4734060Y3850097D01*
X4727008Y3859482D01*
X4706455Y3882681D01*
X4694481Y3896198D01*
X4569999Y4048661D01*
X4433640Y4190626D01*
X4401123Y4227330D01*
X4401120Y4227333D01*
X4376942Y4250556D01*
X4365750Y4261307D01*
X4229398Y4403264D01*
X4173552Y4452739D01*
X4082073Y4533783D01*
X4046693Y4567766D01*
X4046692Y4567767D01*
X4046686Y4567772D01*
X4008678Y4598806D01*
X3924452Y4673422D01*
X3861366Y4729313D01*
X3861366Y4729312D01*
X3861365Y4729313D01*
X3775084Y4794149D01*
X3704018Y4847552D01*
X3666021Y4878575D01*
X3666015Y4878580D01*
X3625637Y4906451D01*
X3541388Y4969760D01*
X3468292Y5024688D01*
X3468289Y5024690D01*
X3468290Y5024690D01*
X3301940Y5129883D01*
X3261570Y5157749D01*
X3219079Y5182282D01*
X3080738Y5269763D01*
X3052726Y5287477D01*
X3052722Y5287480D01*
X3052719Y5287481D01*
X3052718Y5287482D01*
X2878445Y5378947D01*
X2862263Y5388290D01*
X2835962Y5403474D01*
X2835952Y5403479D01*
X2835950Y5403480D01*
X2791641Y5424505D01*
X2617369Y5515970D01*
X2617368Y5515970D01*
X2617362Y5515973D01*
X2436285Y5593123D01*
X2417574Y5602001D01*
X2391968Y5614152D01*
X2391969Y5614151D01*
X2391967Y5614152D01*
X2346096Y5631549D01*
X2268175Y5664748D01*
X2165023Y5708697D01*
X2165017Y5708699D01*
X2165010Y5708702D01*
X2165011Y5708702D01*
X1978315Y5771029D01*
X1932466Y5788418D01*
X1932467Y5788418D01*
X1885347Y5802067D01*
X1698647Y5864396D01*
X1507540Y5911500D01*
X1460422Y5925148D01*
X1460420Y5925149D01*
X1460418Y5925149D01*
X1412351Y5934962D01*
X1342251Y5952240D01*
X1221247Y5982065D01*
X1221244Y5982066D01*
X1221243Y5982066D01*
X1026965Y6013639D01*
X978902Y6023451D01*
X930210Y6029363D01*
X735926Y6060937D01*
X539745Y6076774D01*
X491056Y6082686D01*
X491051Y6082687D01*
X491045Y6082687D01*
X469087Y6083572D01*
X442027Y6084663D01*
X328818Y6093802D01*
X245842Y6100500D01*
X49010Y6100500D01*
X0Y6102475D01*
X-49010Y6100500D01*
X-245842Y6100500D01*
X-319509Y6094553D01*
X-442028Y6084663D01*
X-468933Y6083579D01*
X-491045Y6082687D01*
X-491053Y6082687D01*
X-491055Y6082686D01*
X-491054Y6082686D01*
X-539746Y6076774D01*
X-735926Y6060937D01*
X-930211Y6029363D01*
X-978900Y6023451D01*
X-978904Y6023451D01*
X-978906Y6023450D01*
X-994205Y6020327D01*
X-1026966Y6013639D01*
X-1221243Y5982066D01*
X-1221245Y5982066D01*
X-1221247Y5982065D01*
X-1238810Y5977736D01*
X-1412352Y5934962D01*
X-1438204Y5929684D01*
X-1460418Y5925149D01*
X-1460421Y5925149D01*
X-1460422Y5925148D01*
X-1507541Y5911500D01*
X-1698647Y5864396D01*
X-1885348Y5802067D01*
X-1932462Y5788419D01*
X-1978317Y5771029D01*
X-2165022Y5708698D01*
X-2165021Y5708698D01*
X-2346103Y5631546D01*
X-2391964Y5614153D01*
X-2391965Y5614153D01*
X-2436286Y5593123D01*
X-2502515Y5564905D01*
X-2617362Y5515973D01*
X-2617368Y5515970D01*
X-2617369Y5515970D01*
X-2791642Y5424506D01*
X-2835968Y5403471D01*
X-2835969Y5403470D01*
X-2878445Y5378947D01*
X-2933779Y5349905D01*
X-3052726Y5287477D01*
X-3052728Y5287476D01*
X-3219079Y5182282D01*
X-3261560Y5157755D01*
X-3261559Y5157756D01*
X-3301942Y5129883D01*
X-3468290Y5024690D01*
X-3468289Y5024690D01*
X-3468292Y5024688D01*
X-3487760Y5010059D01*
X-3625638Y4906451D01*
X-3666022Y4878575D01*
X-3666021Y4878575D01*
X-3704019Y4847552D01*
X-3861366Y4729313D01*
X-4008683Y4598801D01*
X-4046687Y4567772D01*
X-4082076Y4533781D01*
X-4229398Y4403264D01*
X-4365751Y4261306D01*
X-4401118Y4227336D01*
X-4433641Y4190626D01*
X-4487627Y4134419D01*
X-4569996Y4048664D01*
X-4570004Y4048654D01*
X-4570005Y4048654D01*
X-4694482Y3896198D01*
X-4727007Y3859484D01*
X-4756477Y3820267D01*
X-4813604Y3750298D01*
X-4880959Y3667803D01*
X-4937459Y3585949D01*
X-4992766Y3505823D01*
X-5011881Y3480385D01*
X-5022239Y3466601D01*
X-5038024Y3441639D01*
X-5048462Y3425133D01*
X-5160267Y3263155D01*
X-5200636Y3193234D01*
X-5258674Y3092711D01*
X-5284899Y3051238D01*
X-5307702Y3007793D01*
X-5406108Y2837347D01*
X-5490487Y2659524D01*
X-5497671Y2645835D01*
X-5513284Y2616086D01*
X-5513285Y2616083D01*
X-5532514Y2570954D01*
X-5616890Y2393135D01*
X-5686683Y2209106D01*
X-5686683Y2209105D01*
X-5705914Y2163968D01*
X-5708590Y2155951D01*
X-5721450Y2117434D01*
X-5791242Y1933407D01*
X-5791242Y1933408D01*
X-5846010Y1744330D01*
X-5861538Y1697816D01*
X-5873274Y1650204D01*
X-5898450Y1563284D01*
X-5928039Y1461130D01*
X-5928330Y1459706D01*
X-5967413Y1268264D01*
X-5979148Y1220652D01*
X-5979149Y1220645D01*
X-5979149Y1220646D01*
X-5987015Y1172248D01*
X-6026389Y979379D01*
X-6050113Y783994D01*
X-6056484Y744792D01*
X-6057982Y735572D01*
X-6059490Y716904D01*
X-6061930Y686675D01*
X-6085653Y491295D01*
X-6085654Y491285D01*
X-6089373Y399000D01*
X-6093580Y294605D01*
X-6097525Y245723D01*
X-6097526Y245716D01*
X-6097526Y196683D01*
X-6105452Y0D01*
X-8067154Y0D01*
X-8062617Y12194D01*
X-8055043Y20693D01*
X-8048214Y27522D01*
X-8002910Y130128D01*
X-8000001Y155203D01*
X-8000000Y155205D01*
X-8000000Y299999D01*
X-8000001Y300000D01*
X-8601000Y300000D01*
X-8659191Y318907D01*
X-8695155Y368407D01*
X-8700000Y399000D01*
X-8700000Y600001D01*
X-8400000Y600001D01*
X-8399999Y600000D01*
X-8000002Y600000D01*
X-8000001Y600001D01*
X-8000001Y744790D01*
X-8000002Y744792D01*
X-8002910Y769875D01*
X-8048214Y872478D01*
X-8127523Y951787D01*
X-8230128Y997091D01*
X-8255203Y1000000D01*
X-8399999Y1000000D01*
X-8400000Y999999D01*
X-8400000Y600001D01*
X-8700000Y600001D01*
X-8700000Y999999D01*
X-8700001Y1000000D01*
X-8810667Y1000000D01*
X-8868858Y1018907D01*
X-8904822Y1068407D01*
X-8904822Y1129593D01*
X-8880670Y1169004D01*
X-8774169Y1275504D01*
X-8719653Y1303281D01*
X-8704166Y1304500D01*
X-7656374Y1304500D01*
X-7652074Y1304313D01*
X-7611193Y1300736D01*
X-7571548Y1311360D01*
X-7567350Y1312290D01*
X-7526955Y1319412D01*
X-7525938Y1319999D01*
X-7525655Y1320162D01*
X-7501764Y1330058D01*
X-7501536Y1330120D01*
X-7500316Y1330446D01*
X-7466697Y1353988D01*
X-7463089Y1356286D01*
X-7427545Y1376806D01*
X-7401173Y1408237D01*
X-7398274Y1411402D01*
X-6581411Y2228263D01*
X-6578234Y2231176D01*
X-6546806Y2257545D01*
X-6526291Y2293081D01*
X-6523973Y2296717D01*
X-6505726Y2322777D01*
X-6500447Y2330316D01*
X-6500058Y2331769D01*
X-6490167Y2355648D01*
X-6489412Y2356955D01*
X-6482286Y2397376D01*
X-6481358Y2401561D01*
X-6470737Y2441193D01*
X-6474313Y2482066D01*
X-6474500Y2486366D01*
X-6474500Y3039398D01*
X-6474313Y3043699D01*
X-6470736Y3084578D01*
X-6481360Y3124223D01*
X-6482290Y3128423D01*
X-6489412Y3168816D01*
X-6490160Y3170112D01*
X-6500058Y3194004D01*
X-6500446Y3195455D01*
X-6500448Y3195458D01*
X-6500449Y3195460D01*
X-6523975Y3229059D01*
X-6526297Y3232703D01*
X-6546807Y3268228D01*
X-6567931Y3285952D01*
X-6578235Y3294598D01*
X-6581412Y3297510D01*
X-7079483Y3795580D01*
X-7107260Y3850097D01*
X-7103226Y3897404D01*
X-7085333Y3950112D01*
X-7085334Y3950114D01*
X-7082199Y3959346D01*
X-7081094Y3958971D01*
X-7058997Y4005294D01*
X-7012808Y4032773D01*
X-6956198Y4047942D01*
X-6865662Y4114148D01*
X-6865661Y4114149D01*
X-6850601Y4134415D01*
X-6850598Y4134419D01*
X-6778206Y4259808D01*
X-6778206Y4259809D01*
X-7298685Y4560308D01*
X-7339626Y4605777D01*
X-7346022Y4666627D01*
X-7334922Y4695544D01*
X-7321024Y4719616D01*
X-6974614Y4719616D01*
X-6628206Y4519617D01*
X-6628205Y4519617D01*
X-6555813Y4645003D01*
X-6555812Y4645004D01*
X-6545788Y4668186D01*
X-6545787Y4668193D01*
X-6533720Y4779693D01*
X-6533720Y4779695D01*
X-6562749Y4888032D01*
X-6628955Y4978568D01*
X-6628956Y4978569D01*
X-6649222Y4993629D01*
X-6649232Y4993635D01*
X-6774614Y5066025D01*
X-6774615Y5066025D01*
X-6974614Y4719616D01*
X-7321024Y4719616D01*
X-7234422Y4869615D01*
X-7034424Y5216025D01*
X-7127502Y5269763D01*
X-7168443Y5315233D01*
X-7174839Y5376083D01*
X-7144246Y5429071D01*
X-7088351Y5453958D01*
X-7078002Y5454500D01*
X-6515833Y5454500D01*
X-6457642Y5435593D01*
X-6445830Y5425504D01*
X-6266157Y5245830D01*
X-6111737Y5091410D01*
X-6108818Y5088224D01*
X-6088637Y5064173D01*
X-6082455Y5056806D01*
X-6070469Y5049886D01*
X-6046926Y5036293D01*
X-6043291Y5033978D01*
X-6009684Y5010446D01*
X-6008233Y5010058D01*
X-5984341Y5000160D01*
X-5983046Y4999412D01*
X-5974146Y4997843D01*
X-5942635Y4992287D01*
X-5938456Y4991362D01*
X-5898807Y4980737D01*
X-5857935Y4984313D01*
X-5853635Y4984500D01*
X-5316374Y4984500D01*
X-5312074Y4984313D01*
X-5271193Y4980736D01*
X-5231548Y4991360D01*
X-5227350Y4992290D01*
X-5186955Y4999412D01*
X-5186399Y4999733D01*
X-5185655Y5000162D01*
X-5161764Y5010058D01*
X-5161536Y5010120D01*
X-5160316Y5010446D01*
X-5126697Y5033988D01*
X-5123089Y5036286D01*
X-5087545Y5056806D01*
X-5061162Y5088250D01*
X-5058274Y5091402D01*
X-4231417Y5918258D01*
X-4228240Y5921171D01*
X-4196806Y5947545D01*
X-4176286Y5983089D01*
X-4173988Y5986697D01*
X-4150446Y6020316D01*
X-4150058Y6021764D01*
X-4140162Y6045655D01*
X-4139413Y6046953D01*
X-4139413Y6046954D01*
X-4139412Y6046955D01*
X-4132288Y6087365D01*
X-4131359Y6091554D01*
X-4120736Y6131194D01*
X-4124313Y6172079D01*
X-4124500Y6176378D01*
X-4124500Y6773636D01*
X-4124313Y6777933D01*
X-4120737Y6818807D01*
X-4131357Y6858440D01*
X-4132286Y6862625D01*
X-4134259Y6873817D01*
X-4125744Y6934404D01*
X-4083241Y6978417D01*
X-4022985Y6989042D01*
X-4011137Y6986631D01*
X-4000271Y6983720D01*
X-3888767Y6995787D01*
X-3888765Y6995788D01*
X-3865585Y7005810D01*
X-3740195Y7078205D01*
X-3979892Y7493374D01*
X-4026796Y7574615D01*
X-3680385Y7574615D01*
X-3480386Y7228206D01*
X-3354988Y7300605D01*
X-3334724Y7315663D01*
X-3268521Y7406195D01*
X-3268520Y7406197D01*
X-3239491Y7514535D01*
X-3239491Y7514537D01*
X-3251558Y7626041D01*
X-3251559Y7626043D01*
X-3261583Y7649227D01*
X-3333976Y7774614D01*
X-3680385Y7574615D01*
X-4026796Y7574615D01*
X-4040693Y7598686D01*
X-4053415Y7658534D01*
X-4028528Y7714430D01*
X-4004457Y7733923D01*
X-3469109Y8043007D01*
X-3457176Y8061379D01*
X-3400054Y8083304D01*
X-3394876Y8083440D01*
X-3334774Y8083440D01*
X-3276583Y8064533D01*
X-3264770Y8054444D01*
X-2291743Y7081416D01*
X-2288825Y7078231D01*
X-2272684Y7058996D01*
X-2262455Y7046806D01*
X-2226927Y7026294D01*
X-2223288Y7023975D01*
X-2189689Y7000449D01*
X-2189687Y7000448D01*
X-2189684Y7000446D01*
X-2188233Y7000058D01*
X-2164341Y6990160D01*
X-2163814Y6989857D01*
X-2163045Y6989412D01*
X-2122649Y6982290D01*
X-2118452Y6981360D01*
X-2078807Y6970736D01*
X-2037927Y6974313D01*
X-2033626Y6974500D01*
X-1086374Y6974500D01*
X-1082074Y6974313D01*
X-1041193Y6970736D01*
X-1001548Y6981360D01*
X-997350Y6982290D01*
X-956955Y6989412D01*
X-956953Y6989413D01*
X-955655Y6990162D01*
X-931764Y7000058D01*
X-931536Y7000120D01*
X-930316Y7000446D01*
X-896697Y7023988D01*
X-893089Y7026286D01*
X-857545Y7046806D01*
X-831173Y7078237D01*
X-828274Y7081402D01*
X-231411Y7678263D01*
X-228234Y7681176D01*
X-196806Y7707545D01*
X-176291Y7743081D01*
X-173973Y7746717D01*
X-154440Y7774614D01*
X-150447Y7780316D01*
X-150058Y7781769D01*
X-140167Y7805648D01*
X-139412Y7806955D01*
X-132286Y7847376D01*
X-131358Y7851561D01*
X-120737Y7891193D01*
X-124313Y7932066D01*
X-124500Y7936366D01*
X-124500Y7964534D01*
X-105593Y8022725D01*
X-56093Y8058689D01*
X5093Y8058689D01*
X19079Y8051805D01*
X19130Y8051919D01*
X130127Y8002910D01*
X155203Y8000001D01*
X300000Y8000001D01*
X300000Y8000002D01*
X600000Y8000002D01*
X600001Y8000001D01*
X744790Y8000001D01*
X744791Y8000002D01*
X769874Y8002910D01*
X872477Y8048214D01*
X951786Y8127523D01*
X997090Y8230128D01*
X999999Y8255203D01*
X1000000Y8255205D01*
X1000000Y8399999D01*
X999999Y8400000D01*
X600001Y8400000D01*
X600000Y8399999D01*
X600000Y8000002D01*
X300000Y8000002D01*
X300000Y8601000D01*
X318907Y8659191D01*
X368407Y8695155D01*
X399000Y8700000D01*
X999998Y8700000D01*
X999999Y8700001D01*
X999999Y8844790D01*
X999998Y8844792D01*
X997090Y8869875D01*
X948081Y8980870D01*
X950184Y8981799D01*
X936504Y9028242D01*
X957016Y9085886D01*
X1007493Y9120466D01*
X1035466Y9124500D01*
X1174166Y9124500D01*
X1232357Y9105593D01*
X1244170Y9095504D01*
X1295504Y9044170D01*
X1323281Y8989653D01*
X1324500Y8974166D01*
X1324500Y7716375D01*
X1324312Y7712073D01*
X1320736Y7671193D01*
X1322308Y7665326D01*
X1331354Y7631564D01*
X1332289Y7627348D01*
X1339411Y7586955D01*
X1340164Y7585652D01*
X1350054Y7561776D01*
X1350443Y7560321D01*
X1350446Y7560316D01*
X1368753Y7534170D01*
X1373971Y7526719D01*
X1376292Y7523076D01*
X1396806Y7487545D01*
X1428224Y7461182D01*
X1431410Y7458263D01*
X2158268Y6731404D01*
X2161187Y6728218D01*
X2187545Y6696806D01*
X2223074Y6676293D01*
X2226709Y6673978D01*
X2260316Y6650446D01*
X2261767Y6650058D01*
X2285659Y6640160D01*
X2286954Y6639412D01*
X2293001Y6638346D01*
X2327365Y6632287D01*
X2331544Y6631362D01*
X2371193Y6620737D01*
X2412065Y6624313D01*
X2416365Y6624500D01*
X3189397Y6624500D01*
X3193697Y6624313D01*
X3234578Y6620736D01*
X3262453Y6628206D01*
X4519615Y6628206D01*
X4645010Y6555809D01*
X4668185Y6545788D01*
X4668192Y6545787D01*
X4779692Y6533720D01*
X4779694Y6533720D01*
X4888031Y6562749D01*
X4978567Y6628955D01*
X4978568Y6628956D01*
X4993628Y6649222D01*
X4993631Y6649226D01*
X5066023Y6774615D01*
X4719614Y6974614D01*
X4519615Y6628206D01*
X3262453Y6628206D01*
X3274223Y6631360D01*
X3278421Y6632290D01*
X3318816Y6639412D01*
X3320116Y6640162D01*
X3344007Y6650058D01*
X3344235Y6650120D01*
X3345455Y6650446D01*
X3379074Y6673988D01*
X3382682Y6676286D01*
X3418226Y6696806D01*
X3444609Y6728250D01*
X3447500Y6731404D01*
X3795580Y7079485D01*
X3850095Y7107260D01*
X3897404Y7103225D01*
X3934743Y7090550D01*
X3959345Y7082199D01*
X3958969Y7081094D01*
X4005294Y7058996D01*
X4032771Y7012810D01*
X4047940Y6956200D01*
X4047941Y6956198D01*
X4114147Y6865662D01*
X4114148Y6865661D01*
X4134412Y6850602D01*
X4259806Y6778206D01*
X4560306Y7298686D01*
X4605776Y7339627D01*
X4666626Y7346023D01*
X4695543Y7334922D01*
X4852434Y7244340D01*
X5216023Y7034424D01*
X5216024Y7034424D01*
X5288416Y7159810D01*
X5288417Y7159811D01*
X5298441Y7182993D01*
X5298442Y7183000D01*
X5310509Y7294500D01*
X5310509Y7294505D01*
X5295341Y7351111D01*
X5298542Y7412212D01*
X5324822Y7447404D01*
X5324236Y7447918D01*
X5369979Y7500079D01*
X5369981Y7500081D01*
X5390836Y7536203D01*
X5418397Y7583940D01*
X5463865Y7624881D01*
X5504133Y7633440D01*
X5725226Y7633440D01*
X5783417Y7614533D01*
X5795230Y7604444D01*
X5865504Y7534170D01*
X5893281Y7479653D01*
X5894500Y7464166D01*
X5894500Y6975835D01*
X5875593Y6917644D01*
X5865504Y6905831D01*
X4991413Y6031741D01*
X4988228Y6028824D01*
X4956807Y6002458D01*
X4956806Y6002456D01*
X4936292Y5966925D01*
X4933972Y5963284D01*
X4910446Y5929684D01*
X4910442Y5929676D01*
X4910051Y5928214D01*
X4900170Y5904360D01*
X4899414Y5903052D01*
X4899410Y5903040D01*
X4892287Y5862651D01*
X4891353Y5858436D01*
X4880736Y5818813D01*
X4880736Y5818807D01*
X4884312Y5777928D01*
X4884500Y5773627D01*
X4884500Y5156375D01*
X4884312Y5152073D01*
X4880736Y5111193D01*
X4886030Y5091433D01*
X4891354Y5071564D01*
X4892289Y5067348D01*
X4899411Y5026955D01*
X4900164Y5025652D01*
X4910054Y5001776D01*
X4910443Y5000321D01*
X4910446Y5000316D01*
X4931841Y4969760D01*
X4933971Y4966719D01*
X4936288Y4963082D01*
X4956806Y4927545D01*
X4988224Y4901182D01*
X4991410Y4898263D01*
X5458257Y4431416D01*
X5461175Y4428231D01*
X5482126Y4403264D01*
X5487545Y4396806D01*
X5523073Y4376294D01*
X5526712Y4373975D01*
X5560311Y4350449D01*
X5560313Y4350448D01*
X5560316Y4350446D01*
X5561767Y4350058D01*
X5585659Y4340160D01*
X5586186Y4339857D01*
X5586955Y4339412D01*
X5627351Y4332290D01*
X5631548Y4331360D01*
X5671193Y4320736D01*
X5712077Y4324313D01*
X5716377Y4324500D01*
X6798589Y4324500D01*
X6856780Y4305593D01*
X6884325Y4275002D01*
X6911846Y4227333D01*
X6924250Y4205849D01*
X6969993Y4153689D01*
X6969114Y4152919D01*
X6998182Y4110630D01*
X6998887Y4056886D01*
X6983719Y4000277D01*
X6983719Y4000271D01*
X6995786Y3888767D01*
X6995787Y3888765D01*
X7005811Y3865581D01*
X7078203Y3740195D01*
X7078204Y3740195D01*
X7441795Y3950111D01*
X7598684Y4040693D01*
X7658533Y4053415D01*
X7714428Y4028529D01*
X7733922Y4004457D01*
X8043002Y3469114D01*
X8061375Y3457183D01*
X8083304Y3400063D01*
X8083440Y3394877D01*
X8083440Y3284775D01*
X8064533Y3226584D01*
X8054444Y3214771D01*
X7324846Y2485174D01*
X7299890Y2469273D01*
X7300584Y2468071D01*
X7291776Y2462987D01*
X7267922Y2453106D01*
X7266460Y2452715D01*
X7266452Y2452711D01*
X7232852Y2429185D01*
X7229216Y2426869D01*
X7221011Y2422132D01*
X7193681Y2406352D01*
X7167317Y2374933D01*
X7164399Y2371749D01*
X6774570Y1981919D01*
X6771386Y1979002D01*
X6739964Y1952636D01*
X6739963Y1952634D01*
X6719449Y1917103D01*
X6717129Y1913462D01*
X6693603Y1879862D01*
X6693599Y1879854D01*
X6693208Y1878392D01*
X6683327Y1854538D01*
X6682571Y1853230D01*
X6682567Y1853218D01*
X6675444Y1812829D01*
X6674510Y1808614D01*
X6663893Y1768991D01*
X6663893Y1768985D01*
X6667469Y1728106D01*
X6667657Y1723805D01*
X6667657Y1173218D01*
X6667469Y1168916D01*
X6664327Y1132999D01*
X6663893Y1128037D01*
X6674511Y1088407D01*
X6675446Y1084191D01*
X6682568Y1043798D01*
X6683321Y1042495D01*
X6693211Y1018619D01*
X6693600Y1017164D01*
X6693603Y1017159D01*
X6715869Y985359D01*
X6717128Y983562D01*
X6719445Y979925D01*
X6720309Y978429D01*
X6739963Y944388D01*
X6771381Y918025D01*
X6774567Y915106D01*
X7458257Y231416D01*
X7461175Y228231D01*
X7487544Y196807D01*
X7487545Y196806D01*
X7523073Y176294D01*
X7526712Y173975D01*
X7560311Y150449D01*
X7560313Y150448D01*
X7560316Y150446D01*
X7561767Y150058D01*
X7585659Y140160D01*
X7586186Y139857D01*
X7586955Y139412D01*
X7627351Y132290D01*
X7631548Y131360D01*
X7671193Y120736D01*
X7712073Y124313D01*
X7716374Y124500D01*
X7964534Y124500D01*
X8022725Y105593D01*
X8058689Y56093D01*
X8058689Y-5093D01*
X8051804Y-19079D01*
X8051919Y-19130D01*
X8002909Y-130127D01*
X8000000Y-155202D01*
X8000000Y-299999D01*
X8000001Y-300000D01*
X8601000Y-300000D01*
X8659191Y-318907D01*
X8695155Y-368407D01*
X8700000Y-399000D01*
X8700000Y-501000D01*
X8681093Y-559191D01*
X8631593Y-595155D01*
X8601000Y-600000D01*
X8171058Y-600000D01*
X8133172Y-592464D01*
X8066764Y-564957D01*
X8066766Y-564957D01*
X8066762Y-564956D01*
X8066760Y-564955D01*
X8066758Y-564955D01*
X7910001Y-544318D01*
X7909999Y-544318D01*
X7753241Y-564955D01*
X7753233Y-564957D01*
X7607161Y-625462D01*
X7607160Y-625462D01*
X7481723Y-721713D01*
X7481713Y-721723D01*
X7385462Y-847160D01*
X7385462Y-847161D01*
X7324957Y-993233D01*
X7324955Y-993241D01*
X7304318Y-1149999D01*
X7304318Y-1150000D01*
X7324955Y-1306758D01*
X7324957Y-1306766D01*
X7385462Y-1452838D01*
X7385462Y-1452839D01*
X7470212Y-1563287D01*
X7481718Y-1578282D01*
X7607159Y-1674536D01*
X7607160Y-1674536D01*
X7607161Y-1674537D01*
X7718582Y-1720689D01*
X7753238Y-1735044D01*
X7843423Y-1746917D01*
X7898646Y-1773256D01*
X7927842Y-1827027D01*
X7929500Y-1845069D01*
X7929500Y-1874316D01*
X7933788Y-1906887D01*
X7935932Y-1923174D01*
X7935932Y-1923175D01*
X7985933Y-2030401D01*
X7985934Y-2030402D01*
X7985935Y-2030404D01*
X8069596Y-2114065D01*
X8069597Y-2114065D01*
X8069598Y-2114066D01*
X8167532Y-2159734D01*
X8189338Y-2180069D01*
X8189428Y-2179985D01*
X8231714Y-2170500D01*
X8574314Y-2170500D01*
X8574316Y-2170500D01*
X8623173Y-2164068D01*
X8730404Y-2114065D01*
X8814065Y-2030404D01*
X8820275Y-2017085D01*
X8862003Y-1972337D01*
X8922064Y-1960662D01*
X8977517Y-1986519D01*
X8999724Y-2017084D01*
X9005935Y-2030404D01*
X9089596Y-2114065D01*
X9089597Y-2114065D01*
X9089598Y-2114066D01*
X9196824Y-2164067D01*
X9196825Y-2164067D01*
X9196827Y-2164068D01*
X9245684Y-2170500D01*
X9245685Y-2170500D01*
X9594314Y-2170500D01*
X9594316Y-2170500D01*
X9643173Y-2164068D01*
X9750404Y-2114065D01*
X9834065Y-2030404D01*
X9884068Y-1923173D01*
X9890500Y-1874316D01*
X9890500Y-1425684D01*
X9884068Y-1376827D01*
X9872919Y-1352918D01*
X9830405Y-1261746D01*
X9833510Y-1260298D01*
X9820500Y-1219008D01*
X9820500Y-909611D01*
X9839407Y-851420D01*
X9841961Y-848429D01*
X9844552Y-844552D01*
X9888867Y-778231D01*
X9900500Y-719748D01*
X9900500Y-180252D01*
X9899497Y-175212D01*
X9894571Y-150446D01*
X9888867Y-121769D01*
X9844552Y-55448D01*
X9844549Y-55446D01*
X9844253Y-55003D01*
X9827644Y3885D01*
X9844253Y55003D01*
X9844549Y55447D01*
X9844552Y55448D01*
X9888867Y121769D01*
X9900500Y180252D01*
X9900500Y719748D01*
X9900499Y719750D01*
X9900499Y719757D01*
X9889410Y775500D01*
X9888867Y778231D01*
X9888866Y778232D01*
X9887569Y784754D01*
X9894759Y845516D01*
X9936291Y890446D01*
X9951970Y897515D01*
X9977921Y906596D01*
X10084639Y985359D01*
X10084641Y985361D01*
X10163405Y1092080D01*
X10207212Y1217273D01*
X10210000Y1247000D01*
X10210000Y1319999D01*
X10209999Y1320000D01*
X9579000Y1320000D01*
X9520809Y1338907D01*
X9484845Y1388407D01*
X9480000Y1419000D01*
X9480000Y1620001D01*
X9780000Y1620001D01*
X9780001Y1620000D01*
X10209998Y1620000D01*
X10209999Y1620001D01*
X10209999Y1693004D01*
X10207213Y1722722D01*
X10207212Y1722727D01*
X10163405Y1847921D01*
X10084641Y1954640D01*
X10084639Y1954642D01*
X9977920Y2033406D01*
X9852727Y2077213D01*
X9823000Y2080000D01*
X9780001Y2080000D01*
X9780000Y2079999D01*
X9780000Y1620001D01*
X9480000Y1620001D01*
X9480000Y2080001D01*
X9436997Y2080000D01*
X9407278Y2077214D01*
X9407277Y2077214D01*
X9307197Y2042194D01*
X9246027Y2040822D01*
X9195733Y2075666D01*
X9175525Y2133418D01*
X9175500Y2135639D01*
X9175500Y2416449D01*
X9175499Y2416463D01*
X9175499Y2573398D01*
X9175498Y2573405D01*
X9160240Y2650117D01*
X9160239Y2650119D01*
X9102113Y2737110D01*
X9102112Y2737112D01*
X9056356Y2767685D01*
X9018477Y2815734D01*
X9016075Y2876872D01*
X9050068Y2927746D01*
X9056350Y2932311D01*
X9102112Y2962888D01*
X9113881Y2980503D01*
X9161930Y3018381D01*
X9196196Y3024500D01*
X9523532Y3024500D01*
X9581723Y3005593D01*
X9602072Y2985769D01*
X9619628Y2962890D01*
X9646594Y2927746D01*
X9651220Y2921718D01*
X9776661Y2825464D01*
X9776662Y2825464D01*
X9776663Y2825463D01*
X9916154Y2767684D01*
X9922740Y2764956D01*
X10040311Y2749478D01*
X10079501Y2744318D01*
X10079502Y2744318D01*
X10079503Y2744318D01*
X10110854Y2748446D01*
X10236264Y2764956D01*
X10382343Y2825464D01*
X10507784Y2921718D01*
X10604038Y3047159D01*
X10664546Y3193238D01*
X10685184Y3350000D01*
X10664546Y3506762D01*
X10615420Y3625362D01*
X10604039Y3652839D01*
X10604039Y3652840D01*
X10507788Y3778277D01*
X10507787Y3778278D01*
X10507784Y3778282D01*
X10507779Y3778286D01*
X10507778Y3778287D01*
X10417163Y3847818D01*
X10382343Y3874536D01*
X10382342Y3874537D01*
X10382340Y3874538D01*
X10236268Y3935043D01*
X10236260Y3935045D01*
X10079503Y3955682D01*
X10079501Y3955682D01*
X9922743Y3935045D01*
X9922735Y3935043D01*
X9776663Y3874538D01*
X9776662Y3874538D01*
X9651225Y3778287D01*
X9651216Y3778278D01*
X9602074Y3714233D01*
X9551650Y3679577D01*
X9523532Y3675500D01*
X8996374Y3675500D01*
X8992073Y3675688D01*
X8951193Y3679264D01*
X8951187Y3679264D01*
X8911564Y3668647D01*
X8907349Y3667713D01*
X8858429Y3659085D01*
X8858198Y3660395D01*
X8806143Y3658582D01*
X8755422Y3692800D01*
X8734500Y3750298D01*
X8734440Y3753744D01*
X8734440Y3945867D01*
X8753347Y4004058D01*
X8783941Y4031604D01*
X8867797Y4080018D01*
X8867796Y4080018D01*
X8867799Y4080019D01*
X8912630Y4119335D01*
X8947908Y4190873D01*
X8953125Y4270466D01*
X8933958Y4326930D01*
X8664210Y4794148D01*
X8624894Y4838979D01*
X8553356Y4874257D01*
X8553354Y4874258D01*
X8552874Y4874494D01*
X8509047Y4917188D01*
X8497872Y4969761D01*
X8497906Y4970293D01*
X8497908Y4970295D01*
X8503125Y5049888D01*
X8483958Y5106352D01*
X8324081Y5383267D01*
X8311361Y5443113D01*
X8336248Y5499009D01*
X8349548Y5511305D01*
X8428282Y5571718D01*
X8524536Y5697159D01*
X8585044Y5843238D01*
X8605682Y6000000D01*
X8605667Y6000111D01*
X8597660Y6060936D01*
X8585044Y6156762D01*
X8561606Y6213347D01*
X8524537Y6302839D01*
X8524537Y6302840D01*
X8428286Y6428277D01*
X8428285Y6428278D01*
X8428282Y6428282D01*
X8428277Y6428286D01*
X8428276Y6428287D01*
X8357104Y6482899D01*
X8302841Y6524536D01*
X8302840Y6524537D01*
X8302838Y6524538D01*
X8156766Y6585043D01*
X8156758Y6585045D01*
X8000001Y6605682D01*
X7999999Y6605682D01*
X7843241Y6585045D01*
X7843238Y6585045D01*
X7843238Y6585044D01*
X7748466Y6545788D01*
X7697154Y6524534D01*
X7693712Y6522547D01*
X7633863Y6509834D01*
X7602385Y6518565D01*
X7598058Y6520583D01*
X7549028Y6533720D01*
X7482070Y6551661D01*
X7482068Y6551661D01*
X7482068Y6551662D01*
X7362450Y6541197D01*
X7362447Y6541196D01*
X7316241Y6522057D01*
X7316235Y6522054D01*
X7004656Y6342162D01*
X7004650Y6342159D01*
X7004645Y6342155D01*
X6989660Y6330658D01*
X6964963Y6311709D01*
X6896091Y6213347D01*
X6896087Y6213340D01*
X6895567Y6211396D01*
X6894200Y6209293D01*
X6892430Y6205495D01*
X6891896Y6205744D01*
X6862240Y6160084D01*
X6805117Y6138160D01*
X6760355Y6146284D01*
X6735716Y6157033D01*
X6603919Y6171884D01*
X6603912Y6171884D01*
X6473586Y6147224D01*
X6473584Y6147224D01*
X6446467Y6134785D01*
X6446458Y6134780D01*
X6409212Y6113277D01*
X6639212Y5714904D01*
X6739711Y5540833D01*
X6752432Y5480984D01*
X6727545Y5425089D01*
X6703474Y5405596D01*
X6157013Y5090097D01*
X6150120Y5064373D01*
X6150163Y5064173D01*
X6149922Y5063632D01*
X6146400Y5050487D01*
X6144321Y5051045D01*
X6125289Y5008272D01*
X6072307Y4977668D01*
X6051703Y4975500D01*
X5875834Y4975500D01*
X5817643Y4994407D01*
X5805830Y5004496D01*
X5564496Y5245830D01*
X5536719Y5300347D01*
X5535500Y5315834D01*
X5535500Y5570586D01*
X5933405Y5570586D01*
X5958063Y5440263D01*
X5958064Y5440260D01*
X5970514Y5413121D01*
X5970519Y5413112D01*
X6007012Y5349905D01*
X6007013Y5349905D01*
X6379403Y5564905D01*
X6149404Y5963276D01*
X6112168Y5941777D01*
X6087816Y5924499D01*
X6001296Y5823962D01*
X5948256Y5702391D01*
X5948256Y5702389D01*
X5933405Y5570593D01*
X5933405Y5570586D01*
X5535500Y5570586D01*
X5535500Y5614167D01*
X5554407Y5672358D01*
X5564490Y5684165D01*
X6438583Y6558259D01*
X6441760Y6561171D01*
X6473194Y6587545D01*
X6493714Y6623089D01*
X6496012Y6626697D01*
X6519554Y6660316D01*
X6519942Y6661764D01*
X6529838Y6685655D01*
X6530588Y6686955D01*
X6532325Y6696807D01*
X6537710Y6727350D01*
X6538640Y6731548D01*
X6549264Y6771193D01*
X6545687Y6812078D01*
X6545500Y6816377D01*
X6545500Y7623636D01*
X6545687Y7627933D01*
X6549263Y7668807D01*
X6538638Y7708456D01*
X6537713Y7712635D01*
X6530588Y7753045D01*
X6530588Y7753046D01*
X6529840Y7754341D01*
X6519942Y7778233D01*
X6519554Y7779684D01*
X6496022Y7813291D01*
X6493707Y7816926D01*
X6478513Y7843242D01*
X6473194Y7852455D01*
X6441765Y7878828D01*
X6438588Y7881739D01*
X6142806Y8177520D01*
X6139887Y8180705D01*
X6113516Y8212134D01*
X6082349Y8230128D01*
X6077978Y8232652D01*
X6074348Y8234965D01*
X6040744Y8258494D01*
X6040739Y8258497D01*
X6039284Y8258886D01*
X6015408Y8268776D01*
X6014105Y8269529D01*
X5973712Y8276651D01*
X5969496Y8277586D01*
X5943213Y8284628D01*
X5929867Y8288204D01*
X5929866Y8288204D01*
X5925441Y8287817D01*
X5888986Y8284628D01*
X5884686Y8284440D01*
X5478456Y8284440D01*
X5428956Y8297703D01*
X5339149Y8349553D01*
X5106352Y8483958D01*
X5106350Y8483959D01*
X5106346Y8483961D01*
X5049889Y8503125D01*
X5049884Y8503126D01*
X4969759Y8497873D01*
X4910456Y8512934D01*
X4874493Y8552876D01*
X4874257Y8553355D01*
X4874257Y8553356D01*
X4838979Y8624894D01*
X4794148Y8664210D01*
X4712605Y8711289D01*
X4671665Y8756758D01*
X4663483Y8805654D01*
X4664553Y8817872D01*
X4653930Y8857514D01*
X4652998Y8861721D01*
X4651927Y8867798D01*
X4645877Y8902111D01*
X4645124Y8903415D01*
X4635233Y8927295D01*
X4634844Y8928747D01*
X4634843Y8928748D01*
X4634843Y8928750D01*
X4634841Y8928753D01*
X4634840Y8928755D01*
X4611314Y8962354D01*
X4608992Y8965998D01*
X4599869Y8981799D01*
X4588483Y9001521D01*
X4588482Y9001523D01*
X4559615Y9025744D01*
X4557054Y9027893D01*
X4553877Y9030805D01*
X4551495Y9033186D01*
X4523718Y9087703D01*
X4523346Y9116106D01*
X4533885Y9196152D01*
X4513247Y9352914D01*
X4479124Y9435294D01*
X4452740Y9498991D01*
X4452740Y9498992D01*
X4356489Y9624429D01*
X4356488Y9624430D01*
X4356485Y9624434D01*
X4356480Y9624438D01*
X4356479Y9624439D01*
X4285307Y9679051D01*
X4231044Y9720688D01*
X4231043Y9720689D01*
X4231041Y9720690D01*
X4084969Y9781195D01*
X4084961Y9781197D01*
X3928204Y9801834D01*
X3928202Y9801834D01*
X3771444Y9781197D01*
X3771436Y9781195D01*
X3625364Y9720690D01*
X3625363Y9720690D01*
X3499926Y9624439D01*
X3499919Y9624432D01*
X3408464Y9505246D01*
X3358039Y9470591D01*
X3338558Y9466891D01*
X3332644Y9466374D01*
X3216655Y9435294D01*
X3216649Y9435291D01*
X3118294Y9366423D01*
X3118290Y9366420D01*
X3107925Y9352911D01*
X3087845Y9326741D01*
X3087842Y9326737D01*
X3087842Y9326736D01*
X2907949Y9015154D01*
X2907944Y9015144D01*
X2888803Y8968937D01*
X2888803Y8968936D01*
X2878338Y8849316D01*
X2878339Y8849314D01*
X2878861Y8847365D01*
X2878729Y8844855D01*
X2879094Y8840687D01*
X2878508Y8840636D01*
X2875656Y8786264D01*
X2837148Y8738716D01*
X2794320Y8723370D01*
X2767611Y8720360D01*
X2767609Y8720360D01*
X2646037Y8667320D01*
X2646035Y8667318D01*
X2545505Y8580805D01*
X2545504Y8580804D01*
X2528228Y8556457D01*
X2506724Y8519212D01*
X3079167Y8188711D01*
X3120108Y8143242D01*
X3126504Y8082392D01*
X3115404Y8053475D01*
X2799904Y7507015D01*
X2863136Y7470508D01*
X2876271Y7464482D01*
X2921277Y7423032D01*
X2933324Y7363044D01*
X2907810Y7307432D01*
X2854481Y7277438D01*
X2834989Y7275500D01*
X2575835Y7275500D01*
X2517644Y7294407D01*
X2505831Y7304496D01*
X2004496Y7805831D01*
X1976719Y7860348D01*
X1975500Y7875835D01*
X1975500Y8064697D01*
X2298116Y8064697D01*
X2312967Y7932901D01*
X2312967Y7932899D01*
X2366008Y7811326D01*
X2452527Y7710790D01*
X2476879Y7693512D01*
X2540095Y7657015D01*
X2755095Y8029405D01*
X2356723Y8259404D01*
X2335224Y8222163D01*
X2335222Y8222160D01*
X2322777Y8195033D01*
X2322775Y8195028D01*
X2298116Y8064704D01*
X2298116Y8064697D01*
X1975500Y8064697D01*
X1975500Y9133627D01*
X1975687Y9137928D01*
X1979264Y9178807D01*
X1968640Y9218452D01*
X1967710Y9222652D01*
X1966435Y9229882D01*
X1960588Y9263045D01*
X1959840Y9264341D01*
X1949942Y9288233D01*
X1949554Y9289684D01*
X1949552Y9289687D01*
X1949551Y9289689D01*
X1926025Y9323288D01*
X1923703Y9326932D01*
X1903193Y9362457D01*
X1882069Y9380181D01*
X1871765Y9388827D01*
X1868588Y9391739D01*
X1591741Y9668586D01*
X1588822Y9671771D01*
X1562456Y9703194D01*
X1539818Y9716264D01*
X1526918Y9723712D01*
X1523288Y9726025D01*
X1489684Y9749554D01*
X1489679Y9749557D01*
X1488224Y9749946D01*
X1464348Y9759836D01*
X1463045Y9760589D01*
X1422652Y9767711D01*
X1418436Y9768646D01*
X1382662Y9778231D01*
X1378807Y9779264D01*
X1378806Y9779264D01*
X1374381Y9778877D01*
X1337926Y9775688D01*
X1333626Y9775500D01*
X943608Y9775500D01*
X885417Y9794407D01*
X861293Y9819498D01*
X844554Y9844549D01*
X844552Y9844552D01*
X839778Y9847742D01*
X778233Y9888866D01*
X778231Y9888867D01*
X778228Y9888868D01*
X778227Y9888868D01*
X719758Y9900499D01*
X719748Y9900500D01*
X180252Y9900500D01*
X180251Y9900500D01*
X180241Y9900499D01*
X121772Y9888868D01*
X121766Y9888866D01*
X55002Y9844254D01*
X-3886Y9827645D01*
X-55002Y9844254D01*
X-121767Y9888866D01*
X-121769Y9888867D01*
X-121772Y9888868D01*
X-121773Y9888868D01*
X-180242Y9900499D01*
X-180252Y9900500D01*
X-180253Y9900500D01*
X-500002Y9900500D01*
X-558193Y9919407D01*
X-594157Y9968907D01*
X-598155Y9986578D01*
X-611108Y10084962D01*
X-611108Y10084965D01*
X-615108Y10094622D01*
X-671615Y10231042D01*
X-671615Y10231043D01*
X-767866Y10356480D01*
X-767867Y10356481D01*
X-767870Y10356485D01*
X-767875Y10356489D01*
X-767876Y10356490D01*
X-893314Y10452741D01*
X-1039386Y10513246D01*
X-1039394Y10513248D01*
X-1196151Y10533885D01*
X-1196153Y10533885D01*
X-1352911Y10513248D01*
X-1352919Y10513246D01*
X-1498991Y10452741D01*
X-1498992Y10452741D01*
X-1624429Y10356490D01*
X-1624439Y10356480D01*
X-1720690Y10231043D01*
X-1720690Y10231042D01*
X-1781195Y10084970D01*
X-1781197Y10084962D01*
X-1802316Y9924544D01*
X-1828657Y9869319D01*
X-1858628Y9847742D01*
X-1868314Y9843226D01*
X-1953226Y9758314D01*
X-2003971Y9649490D01*
X-2003972Y9649489D01*
X-2010500Y9599900D01*
X-2010500Y9240105D01*
X-2010499Y9240093D01*
X-2003973Y9190514D01*
X-2003973Y9190512D01*
X-1953226Y9081687D01*
X-1953225Y9081686D01*
X-1953224Y9081684D01*
X-1951799Y9080259D01*
X-1950658Y9078019D01*
X-1948256Y9074589D01*
X-1948739Y9074252D01*
X-1924023Y9025744D01*
X-1933594Y8965312D01*
X-1963014Y8930603D01*
X-1984638Y8914644D01*
X-1984642Y8914640D01*
X-2063406Y8807921D01*
X-2107213Y8682728D01*
X-2110000Y8653001D01*
X-2110000Y8610001D01*
X-2109999Y8610000D01*
X-1449000Y8610000D01*
X-1390809Y8591093D01*
X-1354845Y8541593D01*
X-1350000Y8511000D01*
X-1350000Y7880002D01*
X-1349999Y7880001D01*
X-1276996Y7880001D01*
X-1247279Y7882787D01*
X-1247277Y7882787D01*
X-1195611Y7900866D01*
X-1134441Y7902240D01*
X-1084146Y7867396D01*
X-1063937Y7809644D01*
X-1081533Y7751044D01*
X-1092908Y7737419D01*
X-1175829Y7654497D01*
X-1230345Y7626719D01*
X-1245833Y7625500D01*
X-1874166Y7625500D01*
X-1932357Y7644407D01*
X-1944170Y7654496D01*
X-2556670Y8266997D01*
X-2109999Y8266997D01*
X-2107214Y8237279D01*
X-2107213Y8237274D01*
X-2063406Y8112080D01*
X-1984642Y8005361D01*
X-1984640Y8005359D01*
X-1877921Y7926595D01*
X-1752728Y7882788D01*
X-1723001Y7880001D01*
X-1650001Y7880002D01*
X-1650000Y7880002D01*
X-1650000Y8309999D01*
X-1650001Y8310000D01*
X-2109998Y8310000D01*
X-2109999Y8309999D01*
X-2109999Y8266997D01*
X-2556670Y8266997D01*
X-2917199Y8627526D01*
X-2920118Y8630711D01*
X-2946484Y8662134D01*
X-2969122Y8675204D01*
X-2982022Y8682652D01*
X-2985652Y8684965D01*
X-3019256Y8708494D01*
X-3019261Y8708497D01*
X-3020716Y8708886D01*
X-3044592Y8718776D01*
X-3045895Y8719529D01*
X-3086288Y8726651D01*
X-3090504Y8727586D01*
X-3116787Y8734628D01*
X-3130133Y8738204D01*
X-3130134Y8738204D01*
X-3134559Y8737817D01*
X-3171014Y8734628D01*
X-3175314Y8734440D01*
X-3945867Y8734440D01*
X-4004058Y8753347D01*
X-4031603Y8783940D01*
X-4068221Y8847365D01*
X-4080018Y8867798D01*
X-4102954Y8893951D01*
X-4119335Y8912630D01*
X-4190873Y8947908D01*
X-4217404Y8949647D01*
X-4270464Y8953125D01*
X-4270468Y8953125D01*
X-4326925Y8933961D01*
X-4794149Y8664210D01*
X-4832346Y8630711D01*
X-4838979Y8624894D01*
X-4855647Y8591093D01*
X-4874494Y8552875D01*
X-4917189Y8509047D01*
X-4969760Y8497873D01*
X-5049885Y8503126D01*
X-5049890Y8503125D01*
X-5106347Y8483961D01*
X-5383265Y8324083D01*
X-5443114Y8311362D01*
X-5499009Y8336249D01*
X-5511307Y8349553D01*
X-5571714Y8428277D01*
X-5571715Y8428278D01*
X-5571718Y8428282D01*
X-5571723Y8428286D01*
X-5571724Y8428287D01*
X-5671234Y8504643D01*
X-5697159Y8524536D01*
X-5697160Y8524537D01*
X-5697162Y8524538D01*
X-5843234Y8585043D01*
X-5843242Y8585045D01*
X-5999999Y8605682D01*
X-6000001Y8605682D01*
X-6156759Y8585045D01*
X-6156767Y8585043D01*
X-6302839Y8524538D01*
X-6302840Y8524538D01*
X-6428277Y8428287D01*
X-6428287Y8428277D01*
X-6524538Y8302840D01*
X-6524538Y8302839D01*
X-6585043Y8156767D01*
X-6585045Y8156759D01*
X-6605682Y8000001D01*
X-6585045Y7843242D01*
X-6585043Y7843233D01*
X-6557868Y7777628D01*
X-6553067Y7716632D01*
X-6568234Y7682961D01*
X-6580582Y7665326D01*
X-6580584Y7665323D01*
X-6611661Y7549337D01*
X-6601197Y7429718D01*
X-6601196Y7429715D01*
X-6582057Y7383509D01*
X-6582054Y7383503D01*
X-6407456Y7081094D01*
X-6402155Y7071912D01*
X-6371709Y7032231D01*
X-6273345Y6963357D01*
X-6271404Y6962837D01*
X-6269304Y6961473D01*
X-6265495Y6959697D01*
X-6265745Y6959162D01*
X-6220089Y6929515D01*
X-6198161Y6872394D01*
X-6206284Y6827624D01*
X-6217032Y6802989D01*
X-6217033Y6802983D01*
X-6231884Y6671187D01*
X-6231884Y6671180D01*
X-6207224Y6540855D01*
X-6194779Y6513724D01*
X-6173276Y6476481D01*
X-5710672Y6743562D01*
X-5600834Y6806979D01*
X-5540986Y6819701D01*
X-5485090Y6794815D01*
X-5465596Y6770743D01*
X-5150097Y6224282D01*
X-5086870Y6260786D01*
X-5085376Y6261744D01*
X-5085072Y6261824D01*
X-5084872Y6261939D01*
X-5084841Y6261885D01*
X-5026189Y6277254D01*
X-4969189Y6255013D01*
X-4936149Y6203515D01*
X-4939688Y6142433D01*
X-4961911Y6108417D01*
X-5405830Y5664497D01*
X-5460347Y5636719D01*
X-5475834Y5635500D01*
X-5694166Y5635500D01*
X-5752357Y5654407D01*
X-5764169Y5664496D01*
X-6051914Y5952240D01*
X-6079692Y6006757D01*
X-6076510Y6026853D01*
X-6113414Y6027271D01*
X-6131257Y6035337D01*
X-6163082Y6053712D01*
X-6166717Y6056028D01*
X-6200316Y6079554D01*
X-6200321Y6079557D01*
X-6201776Y6079946D01*
X-6225652Y6089836D01*
X-6226955Y6090589D01*
X-6267348Y6097711D01*
X-6271564Y6098646D01*
X-6302542Y6106946D01*
X-6311193Y6109264D01*
X-6311194Y6109264D01*
X-6315619Y6108877D01*
X-6352074Y6105688D01*
X-6356374Y6105500D01*
X-7277277Y6105500D01*
X-7281578Y6105688D01*
X-7322458Y6109264D01*
X-7322464Y6109264D01*
X-7362087Y6098647D01*
X-7366302Y6097713D01*
X-7406691Y6090590D01*
X-7406703Y6090586D01*
X-7408011Y6089830D01*
X-7431865Y6079949D01*
X-7433327Y6079558D01*
X-7433335Y6079554D01*
X-7466935Y6056028D01*
X-7470571Y6053712D01*
X-7478776Y6048975D01*
X-7506106Y6033195D01*
X-7532470Y6001776D01*
X-7535388Y5998592D01*
X-7869231Y5664748D01*
X-7923748Y5636971D01*
X-7971056Y5641005D01*
X-7997172Y5649870D01*
X-8023763Y5658896D01*
X-8023765Y5658896D01*
X-8023766Y5658896D01*
X-8080548Y5655174D01*
X-8103356Y5653679D01*
X-8103357Y5653679D01*
X-8174894Y5618401D01*
X-8214210Y5573571D01*
X-8483961Y5106347D01*
X-8503125Y5049890D01*
X-8503126Y5049885D01*
X-8497873Y4969760D01*
X-8512934Y4910458D01*
X-8552875Y4874494D01*
X-8624894Y4838979D01*
X-8664213Y4794145D01*
X-8711289Y4712607D01*
X-8756758Y4671666D01*
X-8805654Y4663484D01*
X-8817871Y4664553D01*
X-8817872Y4664553D01*
X-8857502Y4653935D01*
X-8861718Y4653000D01*
X-8902110Y4645878D01*
X-8902118Y4645875D01*
X-8903426Y4645119D01*
X-8927280Y4635238D01*
X-8928742Y4634847D01*
X-8928750Y4634843D01*
X-8962350Y4611317D01*
X-8965986Y4609001D01*
X-8971568Y4605777D01*
X-9001521Y4588484D01*
X-9027885Y4557065D01*
X-9030803Y4553881D01*
X-9033186Y4551497D01*
X-9087703Y4523720D01*
X-9116112Y4523348D01*
X-9196151Y4533885D01*
X-9196153Y4533885D01*
X-9352911Y4513248D01*
X-9352919Y4513246D01*
X-9498991Y4452741D01*
X-9498992Y4452741D01*
X-9624429Y4356490D01*
X-9624439Y4356480D01*
X-9720690Y4231043D01*
X-9720690Y4231042D01*
X-9781195Y4084970D01*
X-9781197Y4084962D01*
X-9801834Y3928204D01*
X-9801834Y3928203D01*
X-9781197Y3771445D01*
X-9781195Y3771437D01*
X-9720690Y3625365D01*
X-9720690Y3625364D01*
X-9629681Y3506759D01*
X-9624434Y3499921D01*
X-9624430Y3499918D01*
X-9624429Y3499917D01*
X-9505247Y3408466D01*
X-9470591Y3358042D01*
X-9466891Y3338559D01*
X-9466374Y3332645D01*
X-9466373Y3332642D01*
X-9466373Y3332641D01*
X-9435294Y3216655D01*
X-9435293Y3216653D01*
X-9435291Y3216650D01*
X-9372171Y3126504D01*
X-9366420Y3118291D01*
X-9326741Y3087845D01*
X-9184276Y3005593D01*
X-9015154Y2907950D01*
X-9015144Y2907945D01*
X-8968937Y2888804D01*
X-8954749Y2887563D01*
X-8849314Y2878339D01*
X-8847371Y2878860D01*
X-8844864Y2878729D01*
X-8840687Y2879094D01*
X-8840636Y2878508D01*
X-8786272Y2875660D01*
X-8738721Y2837157D01*
X-8723370Y2794321D01*
X-8720360Y2767612D01*
X-8720360Y2767610D01*
X-8667320Y2646038D01*
X-8667318Y2646036D01*
X-8580805Y2545506D01*
X-8580804Y2545505D01*
X-8556449Y2528223D01*
X-8556442Y2528219D01*
X-8519213Y2506726D01*
X-8188713Y3079167D01*
X-8143243Y3120108D01*
X-8082393Y3126504D01*
X-8053476Y3115404D01*
X-7884715Y3017970D01*
X-7507015Y2799906D01*
X-7507013Y2799906D01*
X-7470516Y2863120D01*
X-7458065Y2890261D01*
X-7458064Y2890264D01*
X-7435094Y3011662D01*
X-7405698Y3065323D01*
X-7350375Y3091458D01*
X-7290257Y3080083D01*
X-7267816Y3063261D01*
X-7154496Y2949941D01*
X-7126719Y2895424D01*
X-7125500Y2879937D01*
X-7125500Y2645835D01*
X-7144407Y2587644D01*
X-7154496Y2575831D01*
X-7745830Y1984496D01*
X-7800347Y1956719D01*
X-7815834Y1955500D01*
X-8863626Y1955500D01*
X-8867927Y1955688D01*
X-8908807Y1959264D01*
X-8908813Y1959264D01*
X-8948436Y1948647D01*
X-8952651Y1947713D01*
X-8993040Y1940590D01*
X-8993052Y1940586D01*
X-8994360Y1939830D01*
X-9018214Y1929949D01*
X-9019676Y1929558D01*
X-9019684Y1929554D01*
X-9053284Y1906028D01*
X-9056920Y1903712D01*
X-9065125Y1898975D01*
X-9092455Y1883195D01*
X-9118819Y1851776D01*
X-9121737Y1848592D01*
X-9668587Y1301741D01*
X-9671771Y1298824D01*
X-9703193Y1272458D01*
X-9703194Y1272456D01*
X-9723708Y1236925D01*
X-9726028Y1233284D01*
X-9749554Y1199684D01*
X-9749558Y1199676D01*
X-9749949Y1198214D01*
X-9759830Y1174360D01*
X-9760586Y1173052D01*
X-9760590Y1173040D01*
X-9767713Y1132651D01*
X-9768647Y1128436D01*
X-9779264Y1088813D01*
X-9779264Y1088807D01*
X-9775688Y1047928D01*
X-9775500Y1043627D01*
X-9775500Y943608D01*
X-9794407Y885417D01*
X-9819498Y861293D01*
X-9844549Y844555D01*
X-9844555Y844549D01*
X-9888866Y778234D01*
X-9888868Y778228D01*
X-9900499Y719759D01*
X-9900500Y719747D01*
X-9900500Y180254D01*
X-9900499Y180242D01*
X-9888868Y121773D01*
X-9888866Y121767D01*
X-9844254Y55002D01*
X-9827645Y-3886D01*
X-9844254Y-55002D01*
X-9888866Y-121766D01*
X-9888868Y-121772D01*
X-9900499Y-180241D01*
X-9900500Y-180253D01*
X-9900500Y-500002D01*
X-9919407Y-558193D01*
X-9968907Y-594157D01*
X-9986578Y-598155D01*
X-10084962Y-611107D01*
X-10084970Y-611109D01*
X-10231042Y-671614D01*
X-10231043Y-671614D01*
X-10356480Y-767865D01*
X-10356490Y-767875D01*
X-10452741Y-893312D01*
X-10452741Y-893313D01*
X-10513246Y-1039385D01*
X-10513248Y-1039393D01*
X-10533885Y-1196151D01*
X-10533885Y-1196152D01*
X-11936059Y-1196152D01*
X-11936204Y-1194888D01*
X-11964123Y-875776D01*
X-11985289Y-505621D01*
X-11985423Y-501000D01*
X-11994607Y-185346D01*
X-11994607Y0D01*
X-11505647Y0D01*
X-11485166Y-142456D01*
X-11445994Y-228229D01*
X-11425377Y-273373D01*
X-11343030Y-368407D01*
X-11331127Y-382144D01*
X-11304898Y-399000D01*
X-11210053Y-459953D01*
X-11104976Y-490806D01*
X-11071965Y-500499D01*
X-11071964Y-500499D01*
X-11071961Y-500500D01*
X-11071959Y-500500D01*
X-10928041Y-500500D01*
X-10928039Y-500500D01*
X-10789947Y-459953D01*
X-10668872Y-382143D01*
X-10574623Y-273373D01*
X-10514835Y-142457D01*
X-10494353Y0D01*
X-10494425Y500D01*
X-10514835Y142457D01*
X-10518307Y150059D01*
X-10574623Y273373D01*
X-10668872Y382143D01*
X-10668873Y382144D01*
X-10668874Y382145D01*
X-10789943Y459951D01*
X-10789946Y459953D01*
X-10789947Y459953D01*
X-10789950Y459954D01*
X-10928036Y500500D01*
X-10928039Y500500D01*
X-11071961Y500500D01*
X-11071965Y500500D01*
X-11210051Y459954D01*
X-11210058Y459951D01*
X-11331127Y382145D01*
X-11425378Y273372D01*
X-11485166Y142457D01*
X-11505647Y3D01*
X-11505647Y0D01*
X-11994607Y0D01*
X-11994607Y185347D01*
X-11993267Y231416D01*
X-11985290Y505604D01*
X-11964123Y875774D01*
X-11936206Y1194871D01*
X-11893927Y1563343D01*
X-11847525Y1880124D01*
X-11784257Y2245714D01*
X-11761335Y2356724D01*
X-8259404Y2356724D01*
X-8222178Y2335232D01*
X-8222169Y2335227D01*
X-8195030Y2322777D01*
X-8195028Y2322776D01*
X-8064704Y2298117D01*
X-8064697Y2298117D01*
X-7932901Y2312968D01*
X-7932899Y2312968D01*
X-7811326Y2366009D01*
X-7710790Y2452528D01*
X-7693513Y2476879D01*
X-7693511Y2476882D01*
X-7657015Y2540097D01*
X-8029405Y2755097D01*
X-8259404Y2356726D01*
X-8259404Y2356724D01*
X-11761335Y2356724D01*
X-11719549Y2559096D01*
X-11635474Y2920646D01*
X-11635185Y2921723D01*
X-11552712Y3229523D01*
X-11448054Y3585954D01*
X-11420933Y3667799D01*
X-11347583Y3889161D01*
X-11222619Y4239396D01*
X-11214509Y4259808D01*
X-11104847Y4535848D01*
X-10959924Y4878775D01*
X-10825330Y5167417D01*
X-10660834Y5501985D01*
X-10509960Y5781799D01*
X-10326338Y6106951D01*
X-10258661Y6216672D01*
X-6023275Y6216672D01*
X-6001774Y6179431D01*
X-6001771Y6179426D01*
X-6001009Y6178352D01*
X-6000940Y6178131D01*
X-6000530Y6177492D01*
X-6000621Y6177434D01*
X-6000617Y6177427D01*
X-6000705Y6177377D01*
X-5982762Y6119951D01*
X-5983659Y6117296D01*
X-5966424Y6120025D01*
X-5917334Y6097283D01*
X-5883961Y6068564D01*
X-5883963Y6068564D01*
X-5762390Y6015524D01*
X-5630593Y6000673D01*
X-5630586Y6000673D01*
X-5500263Y6025331D01*
X-5500260Y6025332D01*
X-5473127Y6037779D01*
X-5473123Y6037782D01*
X-5409906Y6074281D01*
X-5624905Y6446671D01*
X-6023275Y6216672D01*
X-10258661Y6216672D01*
X-10159808Y6376937D01*
X-9974896Y6664664D01*
X-9957547Y6691660D01*
X-9846255Y6850602D01*
X-9776077Y6950828D01*
X-9555676Y7254185D01*
X-9360036Y7501612D01*
X-9122067Y7792635D01*
X-8913152Y8027392D01*
X-8658142Y8305244D01*
X-8436893Y8526493D01*
X-8165471Y8790272D01*
X-7932858Y8997279D01*
X-7646485Y9245423D01*
X-7644844Y9246782D01*
X-7402948Y9438049D01*
X-7101301Y9670654D01*
X-7099583Y9671917D01*
X-6848840Y9847489D01*
X-6532561Y10063755D01*
X-6530688Y10064973D01*
X-6272676Y10224118D01*
X-5942027Y10423506D01*
X-5940176Y10424563D01*
X-5676407Y10566786D01*
X-5331859Y10748585D01*
X-5329785Y10749615D01*
X-5062446Y10874278D01*
X-4787157Y10999998D01*
X-505647Y10999998D01*
X-485166Y10857544D01*
X-435395Y10748563D01*
X-425377Y10726627D01*
X-367214Y10659503D01*
X-331127Y10617856D01*
X-275450Y10582075D01*
X-210053Y10540047D01*
X-118776Y10513246D01*
X-71965Y10499501D01*
X-71964Y10499501D01*
X-71961Y10499500D01*
X-71959Y10499500D01*
X71959Y10499500D01*
X71961Y10499500D01*
X210053Y10540047D01*
X331128Y10617857D01*
X425377Y10726627D01*
X485165Y10857543D01*
X505647Y11000000D01*
X503616Y11014123D01*
X485165Y11142457D01*
X464641Y11187397D01*
X425377Y11273373D01*
X331128Y11382143D01*
X331127Y11382144D01*
X331126Y11382145D01*
X210057Y11459951D01*
X210054Y11459953D01*
X210053Y11459953D01*
X210050Y11459954D01*
X71964Y11500500D01*
X71961Y11500500D01*
X-71961Y11500500D01*
X-71965Y11500500D01*
X-210051Y11459954D01*
X-210058Y11459951D01*
X-331127Y11382145D01*
X-425378Y11273372D01*
X-485166Y11142457D01*
X-505647Y11000003D01*
X-505647Y10999998D01*
X-4787157Y10999998D01*
X-4703955Y11037995D01*
X-4701708Y11038953D01*
X-4433220Y11145618D01*
X-4060373Y11290781D01*
X-4058028Y11291625D01*
X-3791601Y11379910D01*
X-3403291Y11506080D01*
X-3400819Y11506812D01*
X-3141272Y11576358D01*
X-2734850Y11683188D01*
X-2732321Y11683780D01*
X-2487783Y11734274D01*
X-2057319Y11821497D01*
X-2054709Y11821952D01*
X-1841514Y11853180D01*
X-1372932Y11920552D01*
X-1370279Y11920858D01*
X-1235415Y11932659D01*
X-686438Y11979810D01*
X-683627Y11979970D01*
X-303929Y11990818D01*
X-1365Y11999462D01*
X1357Y11999463D01*
X329649Y11990507D01*
G37*
G04 #@! TD.AperFunction*
M02*
