G04 #@! TF.GenerationSoftware,KiCad,Pcbnew,7.0.8-7.0.8~ubuntu23.04.1*
G04 #@! TF.CreationDate,2023-10-21T09:14:23+00:00*
G04 #@! TF.ProjectId,pedalboard-led-ring,70656461-6c62-46f6-9172-642d6c65642d,1.1.0-RC1*
G04 #@! TF.SameCoordinates,Original*
G04 #@! TF.FileFunction,Legend,Bot*
G04 #@! TF.FilePolarity,Positive*
%FSLAX46Y46*%
G04 Gerber Fmt 4.6, Leading zero omitted, Abs format (unit mm)*
G04 Created by KiCad (PCBNEW 7.0.8-7.0.8~ubuntu23.04.1) date 2023-10-21 09:14:23*
%MOMM*%
%LPD*%
G01*
G04 APERTURE LIST*
%ADD10C,0.100000*%
%ADD11C,0.120000*%
G04 APERTURE END LIST*
D10*
X7050000Y0D02*
G75*
G03*
X7050000Y0I-7050000J0D01*
G01*
X8203609Y4615164D02*
X7703609Y4615164D01*
X7703609Y4615164D02*
X7703609Y4496116D01*
X7703609Y4496116D02*
X7727419Y4424688D01*
X7727419Y4424688D02*
X7775038Y4377069D01*
X7775038Y4377069D02*
X7822657Y4353259D01*
X7822657Y4353259D02*
X7917895Y4329450D01*
X7917895Y4329450D02*
X7989323Y4329450D01*
X7989323Y4329450D02*
X8084561Y4353259D01*
X8084561Y4353259D02*
X8132180Y4377069D01*
X8132180Y4377069D02*
X8179800Y4424688D01*
X8179800Y4424688D02*
X8203609Y4496116D01*
X8203609Y4496116D02*
X8203609Y4615164D01*
X8203609Y4115164D02*
X7703609Y4115164D01*
X8121371Y-2708646D02*
X7521371Y-2708646D01*
X7521371Y-2708646D02*
X7521371Y-2851503D01*
X7521371Y-2851503D02*
X7549942Y-2937217D01*
X7549942Y-2937217D02*
X7607085Y-2994360D01*
X7607085Y-2994360D02*
X7664228Y-3022931D01*
X7664228Y-3022931D02*
X7778514Y-3051503D01*
X7778514Y-3051503D02*
X7864228Y-3051503D01*
X7864228Y-3051503D02*
X7978514Y-3022931D01*
X7978514Y-3022931D02*
X8035657Y-2994360D01*
X8035657Y-2994360D02*
X8092800Y-2937217D01*
X8092800Y-2937217D02*
X8121371Y-2851503D01*
X8121371Y-2851503D02*
X8121371Y-2708646D01*
X7521371Y-3422931D02*
X7521371Y-3480074D01*
X7521371Y-3480074D02*
X7549942Y-3537217D01*
X7549942Y-3537217D02*
X7578514Y-3565789D01*
X7578514Y-3565789D02*
X7635657Y-3594360D01*
X7635657Y-3594360D02*
X7749942Y-3622931D01*
X7749942Y-3622931D02*
X7892800Y-3622931D01*
X7892800Y-3622931D02*
X8007085Y-3594360D01*
X8007085Y-3594360D02*
X8064228Y-3565789D01*
X8064228Y-3565789D02*
X8092800Y-3537217D01*
X8092800Y-3537217D02*
X8121371Y-3480074D01*
X8121371Y-3480074D02*
X8121371Y-3422931D01*
X8121371Y-3422931D02*
X8092800Y-3365789D01*
X8092800Y-3365789D02*
X8064228Y-3337217D01*
X8064228Y-3337217D02*
X8007085Y-3308646D01*
X8007085Y-3308646D02*
X7892800Y-3280074D01*
X7892800Y-3280074D02*
X7749942Y-3280074D01*
X7749942Y-3280074D02*
X7635657Y-3308646D01*
X7635657Y-3308646D02*
X7578514Y-3337217D01*
X7578514Y-3337217D02*
X7549942Y-3365789D01*
X7549942Y-3365789D02*
X7521371Y-3422931D01*
X9749942Y-2872931D02*
X9721371Y-2815789D01*
X9721371Y-2815789D02*
X9721371Y-2730074D01*
X9721371Y-2730074D02*
X9749942Y-2644360D01*
X9749942Y-2644360D02*
X9807085Y-2587217D01*
X9807085Y-2587217D02*
X9864228Y-2558646D01*
X9864228Y-2558646D02*
X9978514Y-2530074D01*
X9978514Y-2530074D02*
X10064228Y-2530074D01*
X10064228Y-2530074D02*
X10178514Y-2558646D01*
X10178514Y-2558646D02*
X10235657Y-2587217D01*
X10235657Y-2587217D02*
X10292800Y-2644360D01*
X10292800Y-2644360D02*
X10321371Y-2730074D01*
X10321371Y-2730074D02*
X10321371Y-2787217D01*
X10321371Y-2787217D02*
X10292800Y-2872931D01*
X10292800Y-2872931D02*
X10264228Y-2901503D01*
X10264228Y-2901503D02*
X10064228Y-2901503D01*
X10064228Y-2901503D02*
X10064228Y-2787217D01*
X10321371Y-3158646D02*
X9721371Y-3158646D01*
X9721371Y-3158646D02*
X10321371Y-3501503D01*
X10321371Y-3501503D02*
X9721371Y-3501503D01*
X10321371Y-3787217D02*
X9721371Y-3787217D01*
X9721371Y-3787217D02*
X9721371Y-3930074D01*
X9721371Y-3930074D02*
X9749942Y-4015788D01*
X9749942Y-4015788D02*
X9807085Y-4072931D01*
X9807085Y-4072931D02*
X9864228Y-4101502D01*
X9864228Y-4101502D02*
X9978514Y-4130074D01*
X9978514Y-4130074D02*
X10064228Y-4130074D01*
X10064228Y-4130074D02*
X10178514Y-4101502D01*
X10178514Y-4101502D02*
X10235657Y-4072931D01*
X10235657Y-4072931D02*
X10292800Y-4015788D01*
X10292800Y-4015788D02*
X10321371Y-3930074D01*
X10321371Y-3930074D02*
X10321371Y-3787217D01*
X-7750867Y8296664D02*
X-8450867Y8296664D01*
X-7750867Y7996664D02*
X-8117534Y7996664D01*
X-8117534Y7996664D02*
X-8184200Y8029997D01*
X-8184200Y8029997D02*
X-8217534Y8096664D01*
X-8217534Y8096664D02*
X-8217534Y8196664D01*
X-8217534Y8196664D02*
X-8184200Y8263330D01*
X-8184200Y8263330D02*
X-8150867Y8296664D01*
X-8217534Y7763331D02*
X-8217534Y7496664D01*
X-8450867Y7663331D02*
X-7850867Y7663331D01*
X-7850867Y7663331D02*
X-7784200Y7629997D01*
X-7784200Y7629997D02*
X-7750867Y7563331D01*
X-7750867Y7563331D02*
X-7750867Y7496664D01*
X-8217534Y7363331D02*
X-8217534Y7096664D01*
X-8450867Y7263331D02*
X-7850867Y7263331D01*
X-7850867Y7263331D02*
X-7784200Y7229997D01*
X-7784200Y7229997D02*
X-7750867Y7163331D01*
X-7750867Y7163331D02*
X-7750867Y7096664D01*
X-8217534Y6863331D02*
X-7517534Y6863331D01*
X-8184200Y6863331D02*
X-8217534Y6796664D01*
X-8217534Y6796664D02*
X-8217534Y6663331D01*
X-8217534Y6663331D02*
X-8184200Y6596664D01*
X-8184200Y6596664D02*
X-8150867Y6563331D01*
X-8150867Y6563331D02*
X-8084200Y6529997D01*
X-8084200Y6529997D02*
X-7884200Y6529997D01*
X-7884200Y6529997D02*
X-7817534Y6563331D01*
X-7817534Y6563331D02*
X-7784200Y6596664D01*
X-7784200Y6596664D02*
X-7750867Y6663331D01*
X-7750867Y6663331D02*
X-7750867Y6796664D01*
X-7750867Y6796664D02*
X-7784200Y6863331D01*
X-7784200Y6263331D02*
X-7750867Y6196664D01*
X-7750867Y6196664D02*
X-7750867Y6063331D01*
X-7750867Y6063331D02*
X-7784200Y5996664D01*
X-7784200Y5996664D02*
X-7850867Y5963331D01*
X-7850867Y5963331D02*
X-7884200Y5963331D01*
X-7884200Y5963331D02*
X-7950867Y5996664D01*
X-7950867Y5996664D02*
X-7984200Y6063331D01*
X-7984200Y6063331D02*
X-7984200Y6163331D01*
X-7984200Y6163331D02*
X-8017534Y6229998D01*
X-8017534Y6229998D02*
X-8084200Y6263331D01*
X-8084200Y6263331D02*
X-8117534Y6263331D01*
X-8117534Y6263331D02*
X-8184200Y6229998D01*
X-8184200Y6229998D02*
X-8217534Y6163331D01*
X-8217534Y6163331D02*
X-8217534Y6063331D01*
X-8217534Y6063331D02*
X-8184200Y5996664D01*
X-7817534Y5663331D02*
X-7784200Y5629997D01*
X-7784200Y5629997D02*
X-7750867Y5663331D01*
X-7750867Y5663331D02*
X-7784200Y5696664D01*
X-7784200Y5696664D02*
X-7817534Y5663331D01*
X-7817534Y5663331D02*
X-7750867Y5663331D01*
X-8184200Y5663331D02*
X-8150867Y5629997D01*
X-8150867Y5629997D02*
X-8117534Y5663331D01*
X-8117534Y5663331D02*
X-8150867Y5696664D01*
X-8150867Y5696664D02*
X-8184200Y5663331D01*
X-8184200Y5663331D02*
X-8117534Y5663331D01*
X-8484200Y4829998D02*
X-7584200Y5429998D01*
X-8484200Y4096665D02*
X-7584200Y4696665D01*
X-8217534Y3563332D02*
X-7650867Y3563332D01*
X-7650867Y3563332D02*
X-7584200Y3596665D01*
X-7584200Y3596665D02*
X-7550867Y3629998D01*
X-7550867Y3629998D02*
X-7517534Y3696665D01*
X-7517534Y3696665D02*
X-7517534Y3796665D01*
X-7517534Y3796665D02*
X-7550867Y3863332D01*
X-7784200Y3563332D02*
X-7750867Y3629998D01*
X-7750867Y3629998D02*
X-7750867Y3763332D01*
X-7750867Y3763332D02*
X-7784200Y3829998D01*
X-7784200Y3829998D02*
X-7817534Y3863332D01*
X-7817534Y3863332D02*
X-7884200Y3896665D01*
X-7884200Y3896665D02*
X-8084200Y3896665D01*
X-8084200Y3896665D02*
X-8150867Y3863332D01*
X-8150867Y3863332D02*
X-8184200Y3829998D01*
X-8184200Y3829998D02*
X-8217534Y3763332D01*
X-8217534Y3763332D02*
X-8217534Y3629998D01*
X-8217534Y3629998D02*
X-8184200Y3563332D01*
X-7750867Y3229999D02*
X-8217534Y3229999D01*
X-8450867Y3229999D02*
X-8417534Y3263332D01*
X-8417534Y3263332D02*
X-8384200Y3229999D01*
X-8384200Y3229999D02*
X-8417534Y3196665D01*
X-8417534Y3196665D02*
X-8450867Y3229999D01*
X-8450867Y3229999D02*
X-8384200Y3229999D01*
X-8217534Y2996666D02*
X-8217534Y2729999D01*
X-8450867Y2896666D02*
X-7850867Y2896666D01*
X-7850867Y2896666D02*
X-7784200Y2863332D01*
X-7784200Y2863332D02*
X-7750867Y2796666D01*
X-7750867Y2796666D02*
X-7750867Y2729999D01*
X-7750867Y2496666D02*
X-8450867Y2496666D01*
X-7750867Y2196666D02*
X-8117534Y2196666D01*
X-8117534Y2196666D02*
X-8184200Y2229999D01*
X-8184200Y2229999D02*
X-8217534Y2296666D01*
X-8217534Y2296666D02*
X-8217534Y2396666D01*
X-8217534Y2396666D02*
X-8184200Y2463332D01*
X-8184200Y2463332D02*
X-8150867Y2496666D01*
X-8217534Y1563333D02*
X-7750867Y1563333D01*
X-8217534Y1863333D02*
X-7850867Y1863333D01*
X-7850867Y1863333D02*
X-7784200Y1829999D01*
X-7784200Y1829999D02*
X-7750867Y1763333D01*
X-7750867Y1763333D02*
X-7750867Y1663333D01*
X-7750867Y1663333D02*
X-7784200Y1596666D01*
X-7784200Y1596666D02*
X-7817534Y1563333D01*
X-7750867Y1230000D02*
X-8450867Y1230000D01*
X-8184200Y1230000D02*
X-8217534Y1163333D01*
X-8217534Y1163333D02*
X-8217534Y1030000D01*
X-8217534Y1030000D02*
X-8184200Y963333D01*
X-8184200Y963333D02*
X-8150867Y930000D01*
X-8150867Y930000D02*
X-8084200Y896666D01*
X-8084200Y896666D02*
X-7884200Y896666D01*
X-7884200Y896666D02*
X-7817534Y930000D01*
X-7817534Y930000D02*
X-7784200Y963333D01*
X-7784200Y963333D02*
X-7750867Y1030000D01*
X-7750867Y1030000D02*
X-7750867Y1163333D01*
X-7750867Y1163333D02*
X-7784200Y1230000D01*
X-7817534Y596667D02*
X-7784200Y563333D01*
X-7784200Y563333D02*
X-7750867Y596667D01*
X-7750867Y596667D02*
X-7784200Y630000D01*
X-7784200Y630000D02*
X-7817534Y596667D01*
X-7817534Y596667D02*
X-7750867Y596667D01*
X-7784200Y-36666D02*
X-7750867Y30000D01*
X-7750867Y30000D02*
X-7750867Y163334D01*
X-7750867Y163334D02*
X-7784200Y230000D01*
X-7784200Y230000D02*
X-7817534Y263334D01*
X-7817534Y263334D02*
X-7884200Y296667D01*
X-7884200Y296667D02*
X-8084200Y296667D01*
X-8084200Y296667D02*
X-8150867Y263334D01*
X-8150867Y263334D02*
X-8184200Y230000D01*
X-8184200Y230000D02*
X-8217534Y163334D01*
X-8217534Y163334D02*
X-8217534Y30000D01*
X-8217534Y30000D02*
X-8184200Y-36666D01*
X-7750867Y-436666D02*
X-7784200Y-370000D01*
X-7784200Y-370000D02*
X-7817534Y-336666D01*
X-7817534Y-336666D02*
X-7884200Y-303333D01*
X-7884200Y-303333D02*
X-8084200Y-303333D01*
X-8084200Y-303333D02*
X-8150867Y-336666D01*
X-8150867Y-336666D02*
X-8184200Y-370000D01*
X-8184200Y-370000D02*
X-8217534Y-436666D01*
X-8217534Y-436666D02*
X-8217534Y-536666D01*
X-8217534Y-536666D02*
X-8184200Y-603333D01*
X-8184200Y-603333D02*
X-8150867Y-636666D01*
X-8150867Y-636666D02*
X-8084200Y-670000D01*
X-8084200Y-670000D02*
X-7884200Y-670000D01*
X-7884200Y-670000D02*
X-7817534Y-636666D01*
X-7817534Y-636666D02*
X-7784200Y-603333D01*
X-7784200Y-603333D02*
X-7750867Y-536666D01*
X-7750867Y-536666D02*
X-7750867Y-436666D01*
X-7750867Y-969999D02*
X-8217534Y-969999D01*
X-8150867Y-969999D02*
X-8184200Y-1003333D01*
X-8184200Y-1003333D02*
X-8217534Y-1069999D01*
X-8217534Y-1069999D02*
X-8217534Y-1169999D01*
X-8217534Y-1169999D02*
X-8184200Y-1236666D01*
X-8184200Y-1236666D02*
X-8117534Y-1269999D01*
X-8117534Y-1269999D02*
X-7750867Y-1269999D01*
X-8117534Y-1269999D02*
X-8184200Y-1303333D01*
X-8184200Y-1303333D02*
X-8217534Y-1369999D01*
X-8217534Y-1369999D02*
X-8217534Y-1469999D01*
X-8217534Y-1469999D02*
X-8184200Y-1536666D01*
X-8184200Y-1536666D02*
X-8117534Y-1569999D01*
X-8117534Y-1569999D02*
X-7750867Y-1569999D01*
X-8484200Y-2403332D02*
X-7584200Y-1803332D01*
X-8217534Y-2636665D02*
X-7517534Y-2636665D01*
X-8184200Y-2636665D02*
X-8217534Y-2703332D01*
X-8217534Y-2703332D02*
X-8217534Y-2836665D01*
X-8217534Y-2836665D02*
X-8184200Y-2903332D01*
X-8184200Y-2903332D02*
X-8150867Y-2936665D01*
X-8150867Y-2936665D02*
X-8084200Y-2969999D01*
X-8084200Y-2969999D02*
X-7884200Y-2969999D01*
X-7884200Y-2969999D02*
X-7817534Y-2936665D01*
X-7817534Y-2936665D02*
X-7784200Y-2903332D01*
X-7784200Y-2903332D02*
X-7750867Y-2836665D01*
X-7750867Y-2836665D02*
X-7750867Y-2703332D01*
X-7750867Y-2703332D02*
X-7784200Y-2636665D01*
X-7784200Y-3536665D02*
X-7750867Y-3469998D01*
X-7750867Y-3469998D02*
X-7750867Y-3336665D01*
X-7750867Y-3336665D02*
X-7784200Y-3269998D01*
X-7784200Y-3269998D02*
X-7850867Y-3236665D01*
X-7850867Y-3236665D02*
X-8117534Y-3236665D01*
X-8117534Y-3236665D02*
X-8184200Y-3269998D01*
X-8184200Y-3269998D02*
X-8217534Y-3336665D01*
X-8217534Y-3336665D02*
X-8217534Y-3469998D01*
X-8217534Y-3469998D02*
X-8184200Y-3536665D01*
X-8184200Y-3536665D02*
X-8117534Y-3569998D01*
X-8117534Y-3569998D02*
X-8050867Y-3569998D01*
X-8050867Y-3569998D02*
X-7984200Y-3236665D01*
X-7750867Y-4169998D02*
X-8450867Y-4169998D01*
X-7784200Y-4169998D02*
X-7750867Y-4103332D01*
X-7750867Y-4103332D02*
X-7750867Y-3969998D01*
X-7750867Y-3969998D02*
X-7784200Y-3903332D01*
X-7784200Y-3903332D02*
X-7817534Y-3869998D01*
X-7817534Y-3869998D02*
X-7884200Y-3836665D01*
X-7884200Y-3836665D02*
X-8084200Y-3836665D01*
X-8084200Y-3836665D02*
X-8150867Y-3869998D01*
X-8150867Y-3869998D02*
X-8184200Y-3903332D01*
X-8184200Y-3903332D02*
X-8217534Y-3969998D01*
X-8217534Y-3969998D02*
X-8217534Y-4103332D01*
X-8217534Y-4103332D02*
X-8184200Y-4169998D01*
X-7750867Y-4803331D02*
X-8117534Y-4803331D01*
X-8117534Y-4803331D02*
X-8184200Y-4769998D01*
X-8184200Y-4769998D02*
X-8217534Y-4703331D01*
X-8217534Y-4703331D02*
X-8217534Y-4569998D01*
X-8217534Y-4569998D02*
X-8184200Y-4503331D01*
X-7784200Y-4803331D02*
X-7750867Y-4736665D01*
X-7750867Y-4736665D02*
X-7750867Y-4569998D01*
X-7750867Y-4569998D02*
X-7784200Y-4503331D01*
X-7784200Y-4503331D02*
X-7850867Y-4469998D01*
X-7850867Y-4469998D02*
X-7917534Y-4469998D01*
X-7917534Y-4469998D02*
X-7984200Y-4503331D01*
X-7984200Y-4503331D02*
X-8017534Y-4569998D01*
X-8017534Y-4569998D02*
X-8017534Y-4736665D01*
X-8017534Y-4736665D02*
X-8050867Y-4803331D01*
X-7750867Y-5236664D02*
X-7784200Y-5169998D01*
X-7784200Y-5169998D02*
X-7850867Y-5136664D01*
X-7850867Y-5136664D02*
X-8450867Y-5136664D01*
X-7750867Y-5503331D02*
X-8450867Y-5503331D01*
X-8184200Y-5503331D02*
X-8217534Y-5569998D01*
X-8217534Y-5569998D02*
X-8217534Y-5703331D01*
X-8217534Y-5703331D02*
X-8184200Y-5769998D01*
X-8184200Y-5769998D02*
X-8150867Y-5803331D01*
X-8150867Y-5803331D02*
X-8084200Y-5836665D01*
X-8084200Y-5836665D02*
X-7884200Y-5836665D01*
X-7884200Y-5836665D02*
X-7817534Y-5803331D01*
X-7817534Y-5803331D02*
X-7784200Y-5769998D01*
X-7784200Y-5769998D02*
X-7750867Y-5703331D01*
X-7750867Y-5703331D02*
X-7750867Y-5569998D01*
X-7750867Y-5569998D02*
X-7784200Y-5503331D01*
X-7750867Y-6236664D02*
X-7784200Y-6169998D01*
X-7784200Y-6169998D02*
X-7817534Y-6136664D01*
X-7817534Y-6136664D02*
X-7884200Y-6103331D01*
X-7884200Y-6103331D02*
X-8084200Y-6103331D01*
X-8084200Y-6103331D02*
X-8150867Y-6136664D01*
X-8150867Y-6136664D02*
X-8184200Y-6169998D01*
X-8184200Y-6169998D02*
X-8217534Y-6236664D01*
X-8217534Y-6236664D02*
X-8217534Y-6336664D01*
X-8217534Y-6336664D02*
X-8184200Y-6403331D01*
X-8184200Y-6403331D02*
X-8150867Y-6436664D01*
X-8150867Y-6436664D02*
X-8084200Y-6469998D01*
X-8084200Y-6469998D02*
X-7884200Y-6469998D01*
X-7884200Y-6469998D02*
X-7817534Y-6436664D01*
X-7817534Y-6436664D02*
X-7784200Y-6403331D01*
X-7784200Y-6403331D02*
X-7750867Y-6336664D01*
X-7750867Y-6336664D02*
X-7750867Y-6236664D01*
X-7750867Y-7069997D02*
X-8117534Y-7069997D01*
X-8117534Y-7069997D02*
X-8184200Y-7036664D01*
X-8184200Y-7036664D02*
X-8217534Y-6969997D01*
X-8217534Y-6969997D02*
X-8217534Y-6836664D01*
X-8217534Y-6836664D02*
X-8184200Y-6769997D01*
X-7784200Y-7069997D02*
X-7750867Y-7003331D01*
X-7750867Y-7003331D02*
X-7750867Y-6836664D01*
X-7750867Y-6836664D02*
X-7784200Y-6769997D01*
X-7784200Y-6769997D02*
X-7850867Y-6736664D01*
X-7850867Y-6736664D02*
X-7917534Y-6736664D01*
X-7917534Y-6736664D02*
X-7984200Y-6769997D01*
X-7984200Y-6769997D02*
X-8017534Y-6836664D01*
X-8017534Y-6836664D02*
X-8017534Y-7003331D01*
X-8017534Y-7003331D02*
X-8050867Y-7069997D01*
X-7750867Y-7403330D02*
X-8217534Y-7403330D01*
X-8084200Y-7403330D02*
X-8150867Y-7436664D01*
X-8150867Y-7436664D02*
X-8184200Y-7469997D01*
X-8184200Y-7469997D02*
X-8217534Y-7536664D01*
X-8217534Y-7536664D02*
X-8217534Y-7603330D01*
X-7750867Y-8136663D02*
X-8450867Y-8136663D01*
X-7784200Y-8136663D02*
X-7750867Y-8069997D01*
X-7750867Y-8069997D02*
X-7750867Y-7936663D01*
X-7750867Y-7936663D02*
X-7784200Y-7869997D01*
X-7784200Y-7869997D02*
X-7817534Y-7836663D01*
X-7817534Y-7836663D02*
X-7884200Y-7803330D01*
X-7884200Y-7803330D02*
X-8084200Y-7803330D01*
X-8084200Y-7803330D02*
X-8150867Y-7836663D01*
X-8150867Y-7836663D02*
X-8184200Y-7869997D01*
X-8184200Y-7869997D02*
X-8217534Y-7936663D01*
X-8217534Y-7936663D02*
X-8217534Y-8069997D01*
X-8217534Y-8069997D02*
X-8184200Y-8136663D01*
X9711371Y5537069D02*
X10311371Y5337069D01*
X10311371Y5337069D02*
X9711371Y5137069D01*
X10254228Y4594211D02*
X10282800Y4622783D01*
X10282800Y4622783D02*
X10311371Y4708497D01*
X10311371Y4708497D02*
X10311371Y4765640D01*
X10311371Y4765640D02*
X10282800Y4851354D01*
X10282800Y4851354D02*
X10225657Y4908497D01*
X10225657Y4908497D02*
X10168514Y4937068D01*
X10168514Y4937068D02*
X10054228Y4965640D01*
X10054228Y4965640D02*
X9968514Y4965640D01*
X9968514Y4965640D02*
X9854228Y4937068D01*
X9854228Y4937068D02*
X9797085Y4908497D01*
X9797085Y4908497D02*
X9739942Y4851354D01*
X9739942Y4851354D02*
X9711371Y4765640D01*
X9711371Y4765640D02*
X9711371Y4708497D01*
X9711371Y4708497D02*
X9739942Y4622783D01*
X9739942Y4622783D02*
X9768514Y4594211D01*
X10254228Y3994211D02*
X10282800Y4022783D01*
X10282800Y4022783D02*
X10311371Y4108497D01*
X10311371Y4108497D02*
X10311371Y4165640D01*
X10311371Y4165640D02*
X10282800Y4251354D01*
X10282800Y4251354D02*
X10225657Y4308497D01*
X10225657Y4308497D02*
X10168514Y4337068D01*
X10168514Y4337068D02*
X10054228Y4365640D01*
X10054228Y4365640D02*
X9968514Y4365640D01*
X9968514Y4365640D02*
X9854228Y4337068D01*
X9854228Y4337068D02*
X9797085Y4308497D01*
X9797085Y4308497D02*
X9739942Y4251354D01*
X9739942Y4251354D02*
X9711371Y4165640D01*
X9711371Y4165640D02*
X9711371Y4108497D01*
X9711371Y4108497D02*
X9739942Y4022783D01*
X9739942Y4022783D02*
X9768514Y3994211D01*
X2790950Y-11063609D02*
X2790950Y-10563609D01*
X2790950Y-10563609D02*
X2600474Y-10563609D01*
X2600474Y-10563609D02*
X2552855Y-10587419D01*
X2552855Y-10587419D02*
X2529045Y-10611228D01*
X2529045Y-10611228D02*
X2505236Y-10658847D01*
X2505236Y-10658847D02*
X2505236Y-10730276D01*
X2505236Y-10730276D02*
X2529045Y-10777895D01*
X2529045Y-10777895D02*
X2552855Y-10801704D01*
X2552855Y-10801704D02*
X2600474Y-10825514D01*
X2600474Y-10825514D02*
X2790950Y-10825514D01*
X2005236Y-11015990D02*
X2029045Y-11039800D01*
X2029045Y-11039800D02*
X2100474Y-11063609D01*
X2100474Y-11063609D02*
X2148093Y-11063609D01*
X2148093Y-11063609D02*
X2219521Y-11039800D01*
X2219521Y-11039800D02*
X2267140Y-10992180D01*
X2267140Y-10992180D02*
X2290950Y-10944561D01*
X2290950Y-10944561D02*
X2314759Y-10849323D01*
X2314759Y-10849323D02*
X2314759Y-10777895D01*
X2314759Y-10777895D02*
X2290950Y-10682657D01*
X2290950Y-10682657D02*
X2267140Y-10635038D01*
X2267140Y-10635038D02*
X2219521Y-10587419D01*
X2219521Y-10587419D02*
X2148093Y-10563609D01*
X2148093Y-10563609D02*
X2100474Y-10563609D01*
X2100474Y-10563609D02*
X2029045Y-10587419D01*
X2029045Y-10587419D02*
X2005236Y-10611228D01*
X1624283Y-10801704D02*
X1552855Y-10825514D01*
X1552855Y-10825514D02*
X1529045Y-10849323D01*
X1529045Y-10849323D02*
X1505236Y-10896942D01*
X1505236Y-10896942D02*
X1505236Y-10968371D01*
X1505236Y-10968371D02*
X1529045Y-11015990D01*
X1529045Y-11015990D02*
X1552855Y-11039800D01*
X1552855Y-11039800D02*
X1600474Y-11063609D01*
X1600474Y-11063609D02*
X1790950Y-11063609D01*
X1790950Y-11063609D02*
X1790950Y-10563609D01*
X1790950Y-10563609D02*
X1624283Y-10563609D01*
X1624283Y-10563609D02*
X1576664Y-10587419D01*
X1576664Y-10587419D02*
X1552855Y-10611228D01*
X1552855Y-10611228D02*
X1529045Y-10658847D01*
X1529045Y-10658847D02*
X1529045Y-10706466D01*
X1529045Y-10706466D02*
X1552855Y-10754085D01*
X1552855Y-10754085D02*
X1576664Y-10777895D01*
X1576664Y-10777895D02*
X1624283Y-10801704D01*
X1624283Y-10801704D02*
X1790950Y-10801704D01*
X1290950Y-11015990D02*
X1267140Y-11039800D01*
X1267140Y-11039800D02*
X1290950Y-11063609D01*
X1290950Y-11063609D02*
X1314759Y-11039800D01*
X1314759Y-11039800D02*
X1290950Y-11015990D01*
X1290950Y-11015990D02*
X1290950Y-11063609D01*
X1290950Y-10754085D02*
X1267140Y-10777895D01*
X1267140Y-10777895D02*
X1290950Y-10801704D01*
X1290950Y-10801704D02*
X1314759Y-10777895D01*
X1314759Y-10777895D02*
X1290950Y-10754085D01*
X1290950Y-10754085D02*
X1290950Y-10801704D01*
X719522Y-10730276D02*
X600474Y-11063609D01*
X600474Y-11063609D02*
X481427Y-10730276D01*
X29046Y-11063609D02*
X314760Y-11063609D01*
X171903Y-11063609D02*
X171903Y-10563609D01*
X171903Y-10563609D02*
X219522Y-10635038D01*
X219522Y-10635038D02*
X267141Y-10682657D01*
X267141Y-10682657D02*
X314760Y-10706466D01*
X-185239Y-11015990D02*
X-209049Y-11039800D01*
X-209049Y-11039800D02*
X-185239Y-11063609D01*
X-185239Y-11063609D02*
X-161430Y-11039800D01*
X-161430Y-11039800D02*
X-185239Y-11015990D01*
X-185239Y-11015990D02*
X-185239Y-11063609D01*
X-685239Y-11063609D02*
X-399525Y-11063609D01*
X-542382Y-11063609D02*
X-542382Y-10563609D01*
X-542382Y-10563609D02*
X-494763Y-10635038D01*
X-494763Y-10635038D02*
X-447144Y-10682657D01*
X-447144Y-10682657D02*
X-399525Y-10706466D01*
X-899524Y-11015990D02*
X-923334Y-11039800D01*
X-923334Y-11039800D02*
X-899524Y-11063609D01*
X-899524Y-11063609D02*
X-875715Y-11039800D01*
X-875715Y-11039800D02*
X-899524Y-11015990D01*
X-899524Y-11015990D02*
X-899524Y-11063609D01*
X-1232857Y-10563609D02*
X-1280476Y-10563609D01*
X-1280476Y-10563609D02*
X-1328095Y-10587419D01*
X-1328095Y-10587419D02*
X-1351905Y-10611228D01*
X-1351905Y-10611228D02*
X-1375714Y-10658847D01*
X-1375714Y-10658847D02*
X-1399524Y-10754085D01*
X-1399524Y-10754085D02*
X-1399524Y-10873133D01*
X-1399524Y-10873133D02*
X-1375714Y-10968371D01*
X-1375714Y-10968371D02*
X-1351905Y-11015990D01*
X-1351905Y-11015990D02*
X-1328095Y-11039800D01*
X-1328095Y-11039800D02*
X-1280476Y-11063609D01*
X-1280476Y-11063609D02*
X-1232857Y-11063609D01*
X-1232857Y-11063609D02*
X-1185238Y-11039800D01*
X-1185238Y-11039800D02*
X-1161429Y-11015990D01*
X-1161429Y-11015990D02*
X-1137619Y-10968371D01*
X-1137619Y-10968371D02*
X-1113810Y-10873133D01*
X-1113810Y-10873133D02*
X-1113810Y-10754085D01*
X-1113810Y-10754085D02*
X-1137619Y-10658847D01*
X-1137619Y-10658847D02*
X-1161429Y-10611228D01*
X-1161429Y-10611228D02*
X-1185238Y-10587419D01*
X-1185238Y-10587419D02*
X-1232857Y-10563609D01*
X-1613809Y-10873133D02*
X-1994761Y-10873133D01*
X-2518571Y-11063609D02*
X-2351905Y-10825514D01*
X-2232857Y-11063609D02*
X-2232857Y-10563609D01*
X-2232857Y-10563609D02*
X-2423333Y-10563609D01*
X-2423333Y-10563609D02*
X-2470952Y-10587419D01*
X-2470952Y-10587419D02*
X-2494762Y-10611228D01*
X-2494762Y-10611228D02*
X-2518571Y-10658847D01*
X-2518571Y-10658847D02*
X-2518571Y-10730276D01*
X-2518571Y-10730276D02*
X-2494762Y-10777895D01*
X-2494762Y-10777895D02*
X-2470952Y-10801704D01*
X-2470952Y-10801704D02*
X-2423333Y-10825514D01*
X-2423333Y-10825514D02*
X-2232857Y-10825514D01*
X-3018571Y-11015990D02*
X-2994762Y-11039800D01*
X-2994762Y-11039800D02*
X-2923333Y-11063609D01*
X-2923333Y-11063609D02*
X-2875714Y-11063609D01*
X-2875714Y-11063609D02*
X-2804286Y-11039800D01*
X-2804286Y-11039800D02*
X-2756667Y-10992180D01*
X-2756667Y-10992180D02*
X-2732857Y-10944561D01*
X-2732857Y-10944561D02*
X-2709048Y-10849323D01*
X-2709048Y-10849323D02*
X-2709048Y-10777895D01*
X-2709048Y-10777895D02*
X-2732857Y-10682657D01*
X-2732857Y-10682657D02*
X-2756667Y-10635038D01*
X-2756667Y-10635038D02*
X-2804286Y-10587419D01*
X-2804286Y-10587419D02*
X-2875714Y-10563609D01*
X-2875714Y-10563609D02*
X-2923333Y-10563609D01*
X-2923333Y-10563609D02*
X-2994762Y-10587419D01*
X-2994762Y-10587419D02*
X-3018571Y-10611228D01*
X-3494762Y-11063609D02*
X-3209048Y-11063609D01*
X-3351905Y-11063609D02*
X-3351905Y-10563609D01*
X-3351905Y-10563609D02*
X-3304286Y-10635038D01*
X-3304286Y-10635038D02*
X-3256667Y-10682657D01*
X-3256667Y-10682657D02*
X-3209048Y-10706466D01*
X5146664Y8470867D02*
X5146664Y9170867D01*
X5146664Y9170867D02*
X4879997Y9170867D01*
X4879997Y9170867D02*
X4813331Y9137534D01*
X4813331Y9137534D02*
X4779997Y9104200D01*
X4779997Y9104200D02*
X4746664Y9037534D01*
X4746664Y9037534D02*
X4746664Y8937534D01*
X4746664Y8937534D02*
X4779997Y8870867D01*
X4779997Y8870867D02*
X4813331Y8837534D01*
X4813331Y8837534D02*
X4879997Y8804200D01*
X4879997Y8804200D02*
X5146664Y8804200D01*
X4179997Y8504200D02*
X4246664Y8470867D01*
X4246664Y8470867D02*
X4379997Y8470867D01*
X4379997Y8470867D02*
X4446664Y8504200D01*
X4446664Y8504200D02*
X4479997Y8570867D01*
X4479997Y8570867D02*
X4479997Y8837534D01*
X4479997Y8837534D02*
X4446664Y8904200D01*
X4446664Y8904200D02*
X4379997Y8937534D01*
X4379997Y8937534D02*
X4246664Y8937534D01*
X4246664Y8937534D02*
X4179997Y8904200D01*
X4179997Y8904200D02*
X4146664Y8837534D01*
X4146664Y8837534D02*
X4146664Y8770867D01*
X4146664Y8770867D02*
X4479997Y8704200D01*
X3546664Y8470867D02*
X3546664Y9170867D01*
X3546664Y8504200D02*
X3613331Y8470867D01*
X3613331Y8470867D02*
X3746664Y8470867D01*
X3746664Y8470867D02*
X3813331Y8504200D01*
X3813331Y8504200D02*
X3846664Y8537534D01*
X3846664Y8537534D02*
X3879997Y8604200D01*
X3879997Y8604200D02*
X3879997Y8804200D01*
X3879997Y8804200D02*
X3846664Y8870867D01*
X3846664Y8870867D02*
X3813331Y8904200D01*
X3813331Y8904200D02*
X3746664Y8937534D01*
X3746664Y8937534D02*
X3613331Y8937534D01*
X3613331Y8937534D02*
X3546664Y8904200D01*
X2913331Y8470867D02*
X2913331Y8837534D01*
X2913331Y8837534D02*
X2946664Y8904200D01*
X2946664Y8904200D02*
X3013331Y8937534D01*
X3013331Y8937534D02*
X3146664Y8937534D01*
X3146664Y8937534D02*
X3213331Y8904200D01*
X2913331Y8504200D02*
X2979998Y8470867D01*
X2979998Y8470867D02*
X3146664Y8470867D01*
X3146664Y8470867D02*
X3213331Y8504200D01*
X3213331Y8504200D02*
X3246664Y8570867D01*
X3246664Y8570867D02*
X3246664Y8637534D01*
X3246664Y8637534D02*
X3213331Y8704200D01*
X3213331Y8704200D02*
X3146664Y8737534D01*
X3146664Y8737534D02*
X2979998Y8737534D01*
X2979998Y8737534D02*
X2913331Y8770867D01*
X2479998Y8470867D02*
X2546665Y8504200D01*
X2546665Y8504200D02*
X2579998Y8570867D01*
X2579998Y8570867D02*
X2579998Y9170867D01*
X2213331Y8470867D02*
X2213331Y9170867D01*
X2213331Y8904200D02*
X2146664Y8937534D01*
X2146664Y8937534D02*
X2013331Y8937534D01*
X2013331Y8937534D02*
X1946664Y8904200D01*
X1946664Y8904200D02*
X1913331Y8870867D01*
X1913331Y8870867D02*
X1879998Y8804200D01*
X1879998Y8804200D02*
X1879998Y8604200D01*
X1879998Y8604200D02*
X1913331Y8537534D01*
X1913331Y8537534D02*
X1946664Y8504200D01*
X1946664Y8504200D02*
X2013331Y8470867D01*
X2013331Y8470867D02*
X2146664Y8470867D01*
X2146664Y8470867D02*
X2213331Y8504200D01*
X1479998Y8470867D02*
X1546665Y8504200D01*
X1546665Y8504200D02*
X1579998Y8537534D01*
X1579998Y8537534D02*
X1613331Y8604200D01*
X1613331Y8604200D02*
X1613331Y8804200D01*
X1613331Y8804200D02*
X1579998Y8870867D01*
X1579998Y8870867D02*
X1546665Y8904200D01*
X1546665Y8904200D02*
X1479998Y8937534D01*
X1479998Y8937534D02*
X1379998Y8937534D01*
X1379998Y8937534D02*
X1313331Y8904200D01*
X1313331Y8904200D02*
X1279998Y8870867D01*
X1279998Y8870867D02*
X1246665Y8804200D01*
X1246665Y8804200D02*
X1246665Y8604200D01*
X1246665Y8604200D02*
X1279998Y8537534D01*
X1279998Y8537534D02*
X1313331Y8504200D01*
X1313331Y8504200D02*
X1379998Y8470867D01*
X1379998Y8470867D02*
X1479998Y8470867D01*
X646665Y8470867D02*
X646665Y8837534D01*
X646665Y8837534D02*
X679998Y8904200D01*
X679998Y8904200D02*
X746665Y8937534D01*
X746665Y8937534D02*
X879998Y8937534D01*
X879998Y8937534D02*
X946665Y8904200D01*
X646665Y8504200D02*
X713332Y8470867D01*
X713332Y8470867D02*
X879998Y8470867D01*
X879998Y8470867D02*
X946665Y8504200D01*
X946665Y8504200D02*
X979998Y8570867D01*
X979998Y8570867D02*
X979998Y8637534D01*
X979998Y8637534D02*
X946665Y8704200D01*
X946665Y8704200D02*
X879998Y8737534D01*
X879998Y8737534D02*
X713332Y8737534D01*
X713332Y8737534D02*
X646665Y8770867D01*
X313332Y8470867D02*
X313332Y8937534D01*
X313332Y8804200D02*
X279999Y8870867D01*
X279999Y8870867D02*
X246665Y8904200D01*
X246665Y8904200D02*
X179999Y8937534D01*
X179999Y8937534D02*
X113332Y8937534D01*
X-420001Y8470867D02*
X-420001Y9170867D01*
X-420001Y8504200D02*
X-353334Y8470867D01*
X-353334Y8470867D02*
X-220001Y8470867D01*
X-220001Y8470867D02*
X-153334Y8504200D01*
X-153334Y8504200D02*
X-120001Y8537534D01*
X-120001Y8537534D02*
X-86668Y8604200D01*
X-86668Y8604200D02*
X-86668Y8804200D01*
X-86668Y8804200D02*
X-120001Y8870867D01*
X-120001Y8870867D02*
X-153334Y8904200D01*
X-153334Y8904200D02*
X-220001Y8937534D01*
X-220001Y8937534D02*
X-353334Y8937534D01*
X-353334Y8937534D02*
X-420001Y8904200D01*
X-1620000Y8470867D02*
X-1286667Y8470867D01*
X-1286667Y8470867D02*
X-1286667Y9170867D01*
X-1853334Y8837534D02*
X-2086667Y8837534D01*
X-2186667Y8470867D02*
X-1853334Y8470867D01*
X-1853334Y8470867D02*
X-1853334Y9170867D01*
X-1853334Y9170867D02*
X-2186667Y9170867D01*
X-2486667Y8470867D02*
X-2486667Y9170867D01*
X-2486667Y9170867D02*
X-2653334Y9170867D01*
X-2653334Y9170867D02*
X-2753334Y9137534D01*
X-2753334Y9137534D02*
X-2820000Y9070867D01*
X-2820000Y9070867D02*
X-2853334Y9004200D01*
X-2853334Y9004200D02*
X-2886667Y8870867D01*
X-2886667Y8870867D02*
X-2886667Y8770867D01*
X-2886667Y8770867D02*
X-2853334Y8637534D01*
X-2853334Y8637534D02*
X-2820000Y8570867D01*
X-2820000Y8570867D02*
X-2753334Y8504200D01*
X-2753334Y8504200D02*
X-2653334Y8470867D01*
X-2653334Y8470867D02*
X-2486667Y8470867D01*
X-4120000Y8470867D02*
X-3886667Y8804200D01*
X-3720000Y8470867D02*
X-3720000Y9170867D01*
X-3720000Y9170867D02*
X-3986667Y9170867D01*
X-3986667Y9170867D02*
X-4053333Y9137534D01*
X-4053333Y9137534D02*
X-4086667Y9104200D01*
X-4086667Y9104200D02*
X-4120000Y9037534D01*
X-4120000Y9037534D02*
X-4120000Y8937534D01*
X-4120000Y8937534D02*
X-4086667Y8870867D01*
X-4086667Y8870867D02*
X-4053333Y8837534D01*
X-4053333Y8837534D02*
X-3986667Y8804200D01*
X-3986667Y8804200D02*
X-3720000Y8804200D01*
X-4420000Y8470867D02*
X-4420000Y8937534D01*
X-4420000Y9170867D02*
X-4386667Y9137534D01*
X-4386667Y9137534D02*
X-4420000Y9104200D01*
X-4420000Y9104200D02*
X-4453333Y9137534D01*
X-4453333Y9137534D02*
X-4420000Y9170867D01*
X-4420000Y9170867D02*
X-4420000Y9104200D01*
X-4753333Y8937534D02*
X-4753333Y8470867D01*
X-4753333Y8870867D02*
X-4786666Y8904200D01*
X-4786666Y8904200D02*
X-4853333Y8937534D01*
X-4853333Y8937534D02*
X-4953333Y8937534D01*
X-4953333Y8937534D02*
X-5020000Y8904200D01*
X-5020000Y8904200D02*
X-5053333Y8837534D01*
X-5053333Y8837534D02*
X-5053333Y8470867D01*
X-5686666Y8937534D02*
X-5686666Y8370867D01*
X-5686666Y8370867D02*
X-5653333Y8304200D01*
X-5653333Y8304200D02*
X-5619999Y8270867D01*
X-5619999Y8270867D02*
X-5553333Y8237534D01*
X-5553333Y8237534D02*
X-5453333Y8237534D01*
X-5453333Y8237534D02*
X-5386666Y8270867D01*
X-5686666Y8504200D02*
X-5619999Y8470867D01*
X-5619999Y8470867D02*
X-5486666Y8470867D01*
X-5486666Y8470867D02*
X-5419999Y8504200D01*
X-5419999Y8504200D02*
X-5386666Y8537534D01*
X-5386666Y8537534D02*
X-5353333Y8604200D01*
X-5353333Y8604200D02*
X-5353333Y8804200D01*
X-5353333Y8804200D02*
X-5386666Y8870867D01*
X-5386666Y8870867D02*
X-5419999Y8904200D01*
X-5419999Y8904200D02*
X-5486666Y8937534D01*
X-5486666Y8937534D02*
X-5619999Y8937534D01*
X-5619999Y8937534D02*
X-5686666Y8904200D01*
X7137640Y6896869D02*
X6864052Y6667302D01*
X6864052Y6667302D02*
X6824639Y6603149D01*
X6824639Y6603149D02*
X6818770Y6536062D01*
X6818770Y6536062D02*
X6846444Y6466040D01*
X6846444Y6466040D02*
X6877053Y6429562D01*
X6601573Y6757866D02*
X6984595Y7079260D01*
X6984595Y7079260D02*
X6862160Y7225174D01*
X6862160Y7225174D02*
X6813311Y7246347D01*
X6813311Y7246347D02*
X6779768Y7249282D01*
X6779768Y7249282D02*
X6727985Y7236912D01*
X6727985Y7236912D02*
X6673268Y7190999D01*
X6673268Y7190999D02*
X6652094Y7142151D01*
X6652094Y7142151D02*
X6649159Y7108607D01*
X6649159Y7108607D02*
X6661529Y7056824D01*
X6661529Y7056824D02*
X6783965Y6910911D01*
X6111830Y7341519D02*
X6295484Y7122650D01*
X6203657Y7232084D02*
X6586679Y7553478D01*
X6586679Y7553478D02*
X6562571Y7471087D01*
X6562571Y7471087D02*
X6556701Y7403999D01*
X6556701Y7403999D02*
X6569071Y7352217D01*
D11*
X7940000Y-2060000D02*
X7940000Y2060000D01*
X8240000Y-2060000D02*
X7940000Y-2060000D01*
X10240000Y-2060000D02*
X9760000Y-2060000D01*
X12060000Y-2060000D02*
X11760000Y-2060000D01*
X12060000Y-2060000D02*
X12060000Y2060000D01*
X8240000Y2060000D02*
X7940000Y2060000D01*
X10240000Y2060000D02*
X9760000Y2060000D01*
X11760000Y2060000D02*
X11760000Y4440000D01*
X12060000Y2060000D02*
X11760000Y2060000D01*
X6470089Y4534701D02*
X6929716Y4920374D01*
X7015996Y5906556D02*
X6116093Y6979019D01*
X4584004Y5693444D02*
X5483907Y4620981D01*
X5129911Y7065299D02*
X4670284Y6679626D01*
X5483908Y4620982D02*
G75*
G03*
X6470088Y4534702I536230J449949D01*
G01*
X6929715Y4920375D02*
G75*
G03*
X7015995Y5906555I-449949J536230D01*
G01*
X4670284Y6679625D02*
G75*
G03*
X4584005Y5693444I449951J-536230D01*
G01*
X6116093Y6979019D02*
G75*
G03*
X5129911Y7065299I-536231J-449952D01*
G01*
M02*
