  0
SECTION
  2
HEADER
  9
$ANGBASE
  50
0.0
  9
$ANGDIR
  70
1
  9
$MEASUREMENT
  70
0
  0
ENDSEC
  0
SECTION
  2
TABLES
  0
TABLE
  2
LTYPE
  70
4
  0
LTYPE
  5
40F
  2
CONTINUOUS
  70
0
  3
Solid line
  72
65
  73
0
  40
0.0
  0
LTYPE
  5
410
  2
DASHDOT
 70
0
  3
Dash Dot ____ _ ____ _
 72
65
 73
4
 40
2.0
 49
1.25
 49
-0.25
 49
0.25
 49
-0.25
  0
LTYPE
  5
411
  2
DASHED
 70
0
  3
Dashed __ __ __ __ __
 72
65
 73
2
 40
0.75
 49
0.5
 49
-0.25
  0
LTYPE
  5
43B
  2
DOTTED
 70
0
  3
Dotted .  .  .  .
 72
65
 73
2
 40
0.2
 49
0.0
 49
-0.2
  0
ENDTAB
  0
TABLE
  2
STYLE
  70
4
  0
STYLE
  2
KICAD
  70
0
  40
0
  41
1
  42
1
  50
0
  71
0
  3
isocp.shx
  0
STYLE
  2
KICADB
  70
0
  40
0
  41
1
  42
1
  50
0
  71
0
  3
isocp.shx
  0
STYLE
  2
KICADI
  70
0
  40
0
  41
1
  42
1
  50
15
  71
0
  3
isocp.shx
  0
STYLE
  2
KICADBI
  70
0
  40
0
  41
1
  42
1
  50
15
  71
0
  3
isocp.shx
  0
ENDTAB
  0
TABLE
  2
LAYER
  70
1
  0
LAYER
  2
BLACK
  70
0
  62
7
  6
CONTINUOUS
  0
ENDTAB
  0
ENDSEC
  0
SECTION
  2
ENTITIES
0
LINE
8
BLACK
6
CONTINUOUS
10
2.76776
20
-2.71425
11
2.77521
21
-2.71714
0
LINE
8
BLACK
6
CONTINUOUS
10
2.77521
20
-2.71714
11
2.782
21
-2.72135
0
LINE
8
BLACK
6
CONTINUOUS
10
2.782
20
-2.72135
11
2.78791
21
-2.72673
0
LINE
8
BLACK
6
CONTINUOUS
10
2.78791
20
-2.72673
11
2.79273
21
-2.73311
0
LINE
8
BLACK
6
CONTINUOUS
10
2.79273
20
-2.73311
11
2.79629
21
-2.74026
0
LINE
8
BLACK
6
CONTINUOUS
10
2.79629
20
-2.74026
11
2.79848
21
-2.74795
0
LINE
8
BLACK
6
CONTINUOUS
10
2.79848
20
-2.74795
11
2.79921
21
-2.75591
0
LINE
8
BLACK
6
CONTINUOUS
10
2.79921
20
-2.75591
11
2.79848
21
-2.76386
0
LINE
8
BLACK
6
CONTINUOUS
10
2.79848
20
-2.76386
11
2.79629
21
-2.77155
0
LINE
8
BLACK
6
CONTINUOUS
10
2.79629
20
-2.77155
11
2.79273
21
-2.7787
0
LINE
8
BLACK
6
CONTINUOUS
10
2.79273
20
-2.7787
11
2.78791
21
-2.78508
0
LINE
8
BLACK
6
CONTINUOUS
10
2.78791
20
-2.78508
11
2.782
21
-2.79047
0
LINE
8
BLACK
6
CONTINUOUS
10
2.782
20
-2.79047
11
2.77521
21
-2.79467
0
LINE
8
BLACK
6
CONTINUOUS
10
2.77521
20
-2.79467
11
2.76776
21
-2.79756
0
LINE
8
BLACK
6
CONTINUOUS
10
2.76776
20
-2.79756
11
2.7599
21
-2.79903
0
LINE
8
BLACK
6
CONTINUOUS
10
2.7599
20
-2.79903
11
2.75191
21
-2.79903
0
LINE
8
BLACK
6
CONTINUOUS
10
2.75191
20
-2.79903
11
2.74405
21
-2.79756
0
LINE
8
BLACK
6
CONTINUOUS
10
2.74405
20
-2.79756
11
2.7366
21
-2.79467
0
LINE
8
BLACK
6
CONTINUOUS
10
2.7366
20
-2.79467
11
2.72981
21
-2.79047
0
LINE
8
BLACK
6
CONTINUOUS
10
2.72981
20
-2.79047
11
2.7239
21
-2.78508
0
LINE
8
BLACK
6
CONTINUOUS
10
2.7239
20
-2.78508
11
2.71909
21
-2.7787
0
LINE
8
BLACK
6
CONTINUOUS
10
2.71909
20
-2.7787
11
2.71552
21
-2.77155
0
LINE
8
BLACK
6
CONTINUOUS
10
2.71552
20
-2.77155
11
2.71334
21
-2.76386
0
LINE
8
BLACK
6
CONTINUOUS
10
2.71334
20
-2.76386
11
2.7126
21
-2.75591
0
LINE
8
BLACK
6
CONTINUOUS
10
2.7126
20
-2.75591
11
2.71334
21
-2.74795
0
LINE
8
BLACK
6
CONTINUOUS
10
2.71334
20
-2.74795
11
2.71552
21
-2.74026
0
LINE
8
BLACK
6
CONTINUOUS
10
2.71552
20
-2.74026
11
2.71909
21
-2.73311
0
LINE
8
BLACK
6
CONTINUOUS
10
2.71909
20
-2.73311
11
2.7239
21
-2.72673
0
LINE
8
BLACK
6
CONTINUOUS
10
2.7239
20
-2.72673
11
2.72981
21
-2.72135
0
LINE
8
BLACK
6
CONTINUOUS
10
2.72981
20
-2.72135
11
2.7366
21
-2.71714
0
LINE
8
BLACK
6
CONTINUOUS
10
2.7366
20
-2.71714
11
2.74405
21
-2.71425
0
LINE
8
BLACK
6
CONTINUOUS
10
2.74405
20
-2.71425
11
2.75191
21
-2.71278
0
LINE
8
BLACK
6
CONTINUOUS
10
2.75191
20
-2.71278
11
2.7599
21
-2.71278
0
LINE
8
BLACK
6
CONTINUOUS
10
2.7599
20
-2.71278
11
2.76776
21
-2.71425
0
LINE
8
BLACK
6
CONTINUOUS
10
3.14173
20
-2.74409
11
3.12205
21
-2.74409
0
LINE
8
BLACK
6
CONTINUOUS
10
3.12205
20
-2.74409
11
3.12205
21
-2.72441
0
LINE
8
BLACK
6
CONTINUOUS
10
3.12205
20
-2.72441
11
3.14173
21
-2.72441
0
LINE
8
BLACK
6
CONTINUOUS
10
3.14173
20
-2.72441
11
3.14173
21
-2.74409
0
LINE
8
BLACK
6
CONTINUOUS
10
3.17717
20
-2.74409
11
3.15748
21
-2.74409
0
LINE
8
BLACK
6
CONTINUOUS
10
3.15748
20
-2.74409
11
3.15748
21
-2.72441
0
LINE
8
BLACK
6
CONTINUOUS
10
3.15748
20
-2.72441
11
3.17717
21
-2.72441
0
LINE
8
BLACK
6
CONTINUOUS
10
3.17717
20
-2.72441
11
3.17717
21
-2.74409
0
LINE
8
BLACK
6
CONTINUOUS
10
3.2082
20
-2.71802
11
3.20948
21
-2.71887
0
LINE
8
BLACK
6
CONTINUOUS
10
3.20948
20
-2.71887
11
3.21033
21
-2.72015
0
LINE
8
BLACK
6
CONTINUOUS
10
3.21033
20
-2.72015
11
3.21063
21
-2.72165
0
LINE
8
BLACK
6
CONTINUOUS
10
3.21063
20
-2.72165
11
3.21063
21
-2.73878
0
LINE
8
BLACK
6
CONTINUOUS
10
3.21063
20
-2.73878
11
3.21033
21
-2.74029
0
LINE
8
BLACK
6
CONTINUOUS
10
3.21033
20
-2.74029
11
3.20948
21
-2.74156
0
LINE
8
BLACK
6
CONTINUOUS
10
3.20948
20
-2.74156
11
3.2082
21
-2.74242
0
LINE
8
BLACK
6
CONTINUOUS
10
3.2082
20
-2.74242
11
3.20669
21
-2.74272
0
LINE
8
BLACK
6
CONTINUOUS
10
3.20669
20
-2.74272
11
3.19882
21
-2.74272
0
LINE
8
BLACK
6
CONTINUOUS
10
3.19882
20
-2.74272
11
3.19731
21
-2.74242
0
LINE
8
BLACK
6
CONTINUOUS
10
3.19731
20
-2.74242
11
3.19603
21
-2.74156
0
LINE
8
BLACK
6
CONTINUOUS
10
3.19603
20
-2.74156
11
3.19518
21
-2.74029
0
LINE
8
BLACK
6
CONTINUOUS
10
3.19518
20
-2.74029
11
3.19488
21
-2.73878
0
LINE
8
BLACK
6
CONTINUOUS
10
3.19488
20
-2.73878
11
3.19488
21
-2.72165
0
LINE
8
BLACK
6
CONTINUOUS
10
3.19488
20
-2.72165
11
3.19518
21
-2.72015
0
LINE
8
BLACK
6
CONTINUOUS
10
3.19518
20
-2.72015
11
3.19603
21
-2.71887
0
LINE
8
BLACK
6
CONTINUOUS
10
3.19603
20
-2.71887
11
3.19731
21
-2.71802
0
LINE
8
BLACK
6
CONTINUOUS
10
3.19731
20
-2.71802
11
3.19882
21
-2.71772
0
LINE
8
BLACK
6
CONTINUOUS
10
3.19882
20
-2.71772
11
3.20669
21
-2.71772
0
LINE
8
BLACK
6
CONTINUOUS
10
3.20669
20
-2.71772
11
3.2082
21
-2.71802
0
LINE
8
BLACK
6
CONTINUOUS
10
3.01447
20
-2.69469
11
3.02129
21
-2.69863
0
LINE
8
BLACK
6
CONTINUOUS
10
3.02129
20
-2.69863
11
3.02244
21
-2.69964
0
LINE
8
BLACK
6
CONTINUOUS
10
3.02244
20
-2.69964
11
3.02312
21
-2.70102
0
LINE
8
BLACK
6
CONTINUOUS
10
3.02312
20
-2.70102
11
3.02322
21
-2.70255
0
LINE
8
BLACK
6
CONTINUOUS
10
3.02322
20
-2.70255
11
3.02273
21
-2.70401
0
LINE
8
BLACK
6
CONTINUOUS
10
3.02273
20
-2.70401
11
3.01417
21
-2.71884
0
LINE
8
BLACK
6
CONTINUOUS
10
3.01417
20
-2.71884
11
3.01315
21
-2.71999
0
LINE
8
BLACK
6
CONTINUOUS
10
3.01315
20
-2.71999
11
3.01178
21
-2.72067
0
LINE
8
BLACK
6
CONTINUOUS
10
3.01178
20
-2.72067
11
3.01024
21
-2.72077
0
LINE
8
BLACK
6
CONTINUOUS
10
3.01024
20
-2.72077
11
3.00879
21
-2.72028
0
LINE
8
BLACK
6
CONTINUOUS
10
3.00879
20
-2.72028
11
3.00197
21
-2.71634
0
LINE
8
BLACK
6
CONTINUOUS
10
3.00197
20
-2.71634
11
3.00081
21
-2.71533
0
LINE
8
BLACK
6
CONTINUOUS
10
3.00081
20
-2.71533
11
3.00014
21
-2.71395
0
LINE
8
BLACK
6
CONTINUOUS
10
3.00014
20
-2.71395
11
3.00003
21
-2.71242
0
LINE
8
BLACK
6
CONTINUOUS
10
3.00003
20
-2.71242
11
3.00053
21
-2.71097
0
LINE
8
BLACK
6
CONTINUOUS
10
3.00053
20
-2.71097
11
3.00909
21
-2.69613
0
LINE
8
BLACK
6
CONTINUOUS
10
3.00909
20
-2.69613
11
3.0101
21
-2.69498
0
LINE
8
BLACK
6
CONTINUOUS
10
3.0101
20
-2.69498
11
3.01148
21
-2.6943
0
LINE
8
BLACK
6
CONTINUOUS
10
3.01148
20
-2.6943
11
3.01302
21
-2.6942
0
LINE
8
BLACK
6
CONTINUOUS
10
3.01302
20
-2.6942
11
3.01447
21
-2.69469
0
LINE
8
BLACK
6
CONTINUOUS
10
3.2082
20
-2.68593
11
3.20948
21
-2.68678
0
LINE
8
BLACK
6
CONTINUOUS
10
3.20948
20
-2.68678
11
3.21033
21
-2.68806
0
LINE
8
BLACK
6
CONTINUOUS
10
3.21033
20
-2.68806
11
3.21063
21
-2.68957
0
LINE
8
BLACK
6
CONTINUOUS
10
3.21063
20
-2.68957
11
3.21063
21
-2.70669
0
LINE
8
BLACK
6
CONTINUOUS
10
3.21063
20
-2.70669
11
3.21033
21
-2.7082
0
LINE
8
BLACK
6
CONTINUOUS
10
3.21033
20
-2.7082
11
3.20948
21
-2.70948
0
LINE
8
BLACK
6
CONTINUOUS
10
3.20948
20
-2.70948
11
3.2082
21
-2.71033
0
LINE
8
BLACK
6
CONTINUOUS
10
3.2082
20
-2.71033
11
3.20669
21
-2.71063
0
LINE
8
BLACK
6
CONTINUOUS
10
3.20669
20
-2.71063
11
3.19882
21
-2.71063
0
LINE
8
BLACK
6
CONTINUOUS
10
3.19882
20
-2.71063
11
3.19731
21
-2.71033
0
LINE
8
BLACK
6
CONTINUOUS
10
3.19731
20
-2.71033
11
3.19603
21
-2.70948
0
LINE
8
BLACK
6
CONTINUOUS
10
3.19603
20
-2.70948
11
3.19518
21
-2.7082
0
LINE
8
BLACK
6
CONTINUOUS
10
3.19518
20
-2.7082
11
3.19488
21
-2.70669
0
LINE
8
BLACK
6
CONTINUOUS
10
3.19488
20
-2.70669
11
3.19488
21
-2.68957
0
LINE
8
BLACK
6
CONTINUOUS
10
3.19488
20
-2.68957
11
3.19518
21
-2.68806
0
LINE
8
BLACK
6
CONTINUOUS
10
3.19518
20
-2.68806
11
3.19603
21
-2.68678
0
LINE
8
BLACK
6
CONTINUOUS
10
3.19603
20
-2.68678
11
3.19731
21
-2.68593
0
LINE
8
BLACK
6
CONTINUOUS
10
3.19731
20
-2.68593
11
3.19882
21
-2.68563
0
LINE
8
BLACK
6
CONTINUOUS
10
3.19882
20
-2.68563
11
3.20669
21
-2.68563
0
LINE
8
BLACK
6
CONTINUOUS
10
3.20669
20
-2.68563
11
3.2082
21
-2.68593
0
LINE
8
BLACK
6
CONTINUOUS
10
3.14173
20
-2.70866
11
3.12205
21
-2.70866
0
LINE
8
BLACK
6
CONTINUOUS
10
3.12205
20
-2.70866
11
3.12205
21
-2.68898
0
LINE
8
BLACK
6
CONTINUOUS
10
3.12205
20
-2.68898
11
3.14173
21
-2.68898
0
LINE
8
BLACK
6
CONTINUOUS
10
3.14173
20
-2.68898
11
3.14173
21
-2.70866
0
LINE
8
BLACK
6
CONTINUOUS
10
3.17717
20
-2.70866
11
3.15748
21
-2.70866
0
LINE
8
BLACK
6
CONTINUOUS
10
3.15748
20
-2.70866
11
3.15748
21
-2.68898
0
LINE
8
BLACK
6
CONTINUOUS
10
3.15748
20
-2.68898
11
3.17717
21
-2.68898
0
LINE
8
BLACK
6
CONTINUOUS
10
3.17717
20
-2.68898
11
3.17717
21
-2.70866
0
LINE
8
BLACK
6
CONTINUOUS
10
2.99237
20
-2.68966
11
2.98253
21
-2.70671
0
LINE
8
BLACK
6
CONTINUOUS
10
2.98253
20
-2.70671
11
2.96548
21
-2.69687
0
LINE
8
BLACK
6
CONTINUOUS
10
2.96548
20
-2.69687
11
2.97532
21
-2.67982
0
LINE
8
BLACK
6
CONTINUOUS
10
2.97532
20
-2.67982
11
2.99237
21
-2.68966
0
LINE
8
BLACK
6
CONTINUOUS
10
3.33373
20
-2.69687
11
3.31668
21
-2.70671
0
LINE
8
BLACK
6
CONTINUOUS
10
3.31668
20
-2.70671
11
3.30684
21
-2.68966
0
LINE
8
BLACK
6
CONTINUOUS
10
3.30684
20
-2.68966
11
3.32389
21
-2.67982
0
LINE
8
BLACK
6
CONTINUOUS
10
3.32389
20
-2.67982
11
3.33373
21
-2.69687
0
LINE
8
BLACK
6
CONTINUOUS
10
3.03051
20
-2.66691
11
3.03733
21
-2.67084
0
LINE
8
BLACK
6
CONTINUOUS
10
3.03733
20
-2.67084
11
3.03849
21
-2.67186
0
LINE
8
BLACK
6
CONTINUOUS
10
3.03849
20
-2.67186
11
3.03917
21
-2.67323
0
LINE
8
BLACK
6
CONTINUOUS
10
3.03917
20
-2.67323
11
3.03927
21
-2.67477
0
LINE
8
BLACK
6
CONTINUOUS
10
3.03927
20
-2.67477
11
3.03877
21
-2.67622
0
LINE
8
BLACK
6
CONTINUOUS
10
3.03877
20
-2.67622
11
3.03021
21
-2.69105
0
LINE
8
BLACK
6
CONTINUOUS
10
3.03021
20
-2.69105
11
3.0292
21
-2.69221
0
LINE
8
BLACK
6
CONTINUOUS
10
3.0292
20
-2.69221
11
3.02782
21
-2.69289
0
LINE
8
BLACK
6
CONTINUOUS
10
3.02782
20
-2.69289
11
3.02629
21
-2.69299
0
LINE
8
BLACK
6
CONTINUOUS
10
3.02629
20
-2.69299
11
3.02483
21
-2.69249
0
LINE
8
BLACK
6
CONTINUOUS
10
3.02483
20
-2.69249
11
3.01801
21
-2.68856
0
LINE
8
BLACK
6
CONTINUOUS
10
3.01801
20
-2.68856
11
3.01686
21
-2.68754
0
LINE
8
BLACK
6
CONTINUOUS
10
3.01686
20
-2.68754
11
3.01618
21
-2.68617
0
LINE
8
BLACK
6
CONTINUOUS
10
3.01618
20
-2.68617
11
3.01608
21
-2.68463
0
LINE
8
BLACK
6
CONTINUOUS
10
3.01608
20
-2.68463
11
3.01657
21
-2.68318
0
LINE
8
BLACK
6
CONTINUOUS
10
3.01657
20
-2.68318
11
3.02514
21
-2.66835
0
LINE
8
BLACK
6
CONTINUOUS
10
3.02514
20
-2.66835
11
3.02615
21
-2.66719
0
LINE
8
BLACK
6
CONTINUOUS
10
3.02615
20
-2.66719
11
3.02753
21
-2.66651
0
LINE
8
BLACK
6
CONTINUOUS
10
3.02753
20
-2.66651
11
3.02906
21
-2.66641
0
LINE
8
BLACK
6
CONTINUOUS
10
3.02906
20
-2.66641
11
3.03051
21
-2.66691
0
LINE
8
BLACK
6
CONTINUOUS
10
2.96168
20
-2.67195
11
2.95184
21
-2.68899
0
LINE
8
BLACK
6
CONTINUOUS
10
2.95184
20
-2.68899
11
2.93479
21
-2.67915
0
LINE
8
BLACK
6
CONTINUOUS
10
2.93479
20
-2.67915
11
2.94464
21
-2.6621
0
LINE
8
BLACK
6
CONTINUOUS
10
2.94464
20
-2.6621
11
2.96168
21
-2.67195
0
LINE
8
BLACK
6
CONTINUOUS
10
3.36442
20
-2.67915
11
3.34737
21
-2.68899
0
LINE
8
BLACK
6
CONTINUOUS
10
3.34737
20
-2.68899
11
3.33753
21
-2.67195
0
LINE
8
BLACK
6
CONTINUOUS
10
3.33753
20
-2.67195
11
3.35458
21
-2.6621
0
LINE
8
BLACK
6
CONTINUOUS
10
3.35458
20
-2.6621
11
3.36442
21
-2.67915
0
LINE
8
BLACK
6
CONTINUOUS
10
3.01009
20
-2.65898
11
3.00024
21
-2.67602
0
LINE
8
BLACK
6
CONTINUOUS
10
3.00024
20
-2.67602
11
2.9832
21
-2.66618
0
LINE
8
BLACK
6
CONTINUOUS
10
2.9832
20
-2.66618
11
2.99304
21
-2.64913
0
LINE
8
BLACK
6
CONTINUOUS
10
2.99304
20
-2.64913
11
3.01009
21
-2.65898
0
LINE
8
BLACK
6
CONTINUOUS
10
3.31602
20
-2.66618
11
3.29897
21
-2.67602
0
LINE
8
BLACK
6
CONTINUOUS
10
3.29897
20
-2.67602
11
3.28913
21
-2.65898
0
LINE
8
BLACK
6
CONTINUOUS
10
3.28913
20
-2.65898
11
3.30617
21
-2.64913
0
LINE
8
BLACK
6
CONTINUOUS
10
3.30617
20
-2.64913
11
3.31602
21
-2.66618
0
LINE
8
BLACK
6
CONTINUOUS
10
3.37979
20
-2.64115
11
3.38117
21
-2.64183
0
LINE
8
BLACK
6
CONTINUOUS
10
3.38117
20
-2.64183
11
3.38218
21
-2.64298
0
LINE
8
BLACK
6
CONTINUOUS
10
3.38218
20
-2.64298
11
3.39074
21
-2.65782
0
LINE
8
BLACK
6
CONTINUOUS
10
3.39074
20
-2.65782
11
3.39124
21
-2.65927
0
LINE
8
BLACK
6
CONTINUOUS
10
3.39124
20
-2.65927
11
3.39114
21
-2.6608
0
LINE
8
BLACK
6
CONTINUOUS
10
3.39114
20
-2.6608
11
3.39046
21
-2.66218
0
LINE
8
BLACK
6
CONTINUOUS
10
3.39046
20
-2.66218
11
3.3893
21
-2.66319
0
LINE
8
BLACK
6
CONTINUOUS
10
3.3893
20
-2.66319
11
3.38248
21
-2.66713
0
LINE
8
BLACK
6
CONTINUOUS
10
3.38248
20
-2.66713
11
3.38103
21
-2.66763
0
LINE
8
BLACK
6
CONTINUOUS
10
3.38103
20
-2.66763
11
3.37949
21
-2.66752
0
LINE
8
BLACK
6
CONTINUOUS
10
3.37949
20
-2.66752
11
3.37812
21
-2.66685
0
LINE
8
BLACK
6
CONTINUOUS
10
3.37812
20
-2.66685
11
3.3771
21
-2.66569
0
LINE
8
BLACK
6
CONTINUOUS
10
3.3771
20
-2.66569
11
3.36854
21
-2.65086
0
LINE
8
BLACK
6
CONTINUOUS
10
3.36854
20
-2.65086
11
3.36805
21
-2.6494
0
LINE
8
BLACK
6
CONTINUOUS
10
3.36805
20
-2.6494
11
3.36815
21
-2.64787
0
LINE
8
BLACK
6
CONTINUOUS
10
3.36815
20
-2.64787
11
3.36883
21
-2.64649
0
LINE
8
BLACK
6
CONTINUOUS
10
3.36883
20
-2.64649
11
3.36998
21
-2.64548
0
LINE
8
BLACK
6
CONTINUOUS
10
3.36998
20
-2.64548
11
3.3768
21
-2.64154
0
LINE
8
BLACK
6
CONTINUOUS
10
3.3768
20
-2.64154
11
3.37826
21
-2.64105
0
LINE
8
BLACK
6
CONTINUOUS
10
3.37826
20
-2.64105
11
3.37979
21
-2.64115
0
LINE
8
BLACK
6
CONTINUOUS
10
2.9794
20
-2.64126
11
2.96956
21
-2.65831
0
LINE
8
BLACK
6
CONTINUOUS
10
2.96956
20
-2.65831
11
2.95251
21
-2.64847
0
LINE
8
BLACK
6
CONTINUOUS
10
2.95251
20
-2.64847
11
2.96235
21
-2.63142
0
LINE
8
BLACK
6
CONTINUOUS
10
2.96235
20
-2.63142
11
2.9794
21
-2.64126
0
LINE
8
BLACK
6
CONTINUOUS
10
3.3467
20
-2.64847
11
3.32965
21
-2.65831
0
LINE
8
BLACK
6
CONTINUOUS
10
3.32965
20
-2.65831
11
3.31981
21
-2.64126
0
LINE
8
BLACK
6
CONTINUOUS
10
3.31981
20
-2.64126
11
3.33686
21
-2.63142
0
LINE
8
BLACK
6
CONTINUOUS
10
3.33686
20
-2.63142
11
3.3467
21
-2.64847
0
LINE
8
BLACK
6
CONTINUOUS
10
3.36374
20
-2.61336
11
3.36512
21
-2.61404
0
LINE
8
BLACK
6
CONTINUOUS
10
3.36512
20
-2.61404
11
3.36614
21
-2.6152
0
LINE
8
BLACK
6
CONTINUOUS
10
3.36614
20
-2.6152
11
3.3747
21
-2.63003
0
LINE
8
BLACK
6
CONTINUOUS
10
3.3747
20
-2.63003
11
3.37519
21
-2.63148
0
LINE
8
BLACK
6
CONTINUOUS
10
3.37519
20
-2.63148
11
3.37509
21
-2.63302
0
LINE
8
BLACK
6
CONTINUOUS
10
3.37509
20
-2.63302
11
3.37441
21
-2.63439
0
LINE
8
BLACK
6
CONTINUOUS
10
3.37441
20
-2.63439
11
3.37326
21
-2.63541
0
LINE
8
BLACK
6
CONTINUOUS
10
3.37326
20
-2.63541
11
3.36644
21
-2.63934
0
LINE
8
BLACK
6
CONTINUOUS
10
3.36644
20
-2.63934
11
3.36498
21
-2.63984
0
LINE
8
BLACK
6
CONTINUOUS
10
3.36498
20
-2.63984
11
3.36345
21
-2.63974
0
LINE
8
BLACK
6
CONTINUOUS
10
3.36345
20
-2.63974
11
3.36207
21
-2.63906
0
LINE
8
BLACK
6
CONTINUOUS
10
3.36207
20
-2.63906
11
3.36106
21
-2.6379
0
LINE
8
BLACK
6
CONTINUOUS
10
3.36106
20
-2.6379
11
3.3525
21
-2.62307
0
LINE
8
BLACK
6
CONTINUOUS
10
3.3525
20
-2.62307
11
3.352
21
-2.62162
0
LINE
8
BLACK
6
CONTINUOUS
10
3.352
20
-2.62162
11
3.3521
21
-2.62008
0
LINE
8
BLACK
6
CONTINUOUS
10
3.3521
20
-2.62008
11
3.35278
21
-2.61871
0
LINE
8
BLACK
6
CONTINUOUS
10
3.35278
20
-2.61871
11
3.35394
21
-2.61769
0
LINE
8
BLACK
6
CONTINUOUS
10
3.35394
20
-2.61769
11
3.36076
21
-2.61376
0
LINE
8
BLACK
6
CONTINUOUS
10
3.36076
20
-2.61376
11
3.36221
21
-2.61326
0
LINE
8
BLACK
6
CONTINUOUS
10
3.36221
20
-2.61326
11
3.36374
21
-2.61336
0
LINE
8
BLACK
6
CONTINUOUS
10
2.86394
20
-2.58075
11
2.86532
21
-2.58143
0
LINE
8
BLACK
6
CONTINUOUS
10
2.86532
20
-2.58143
11
2.86633
21
-2.58258
0
LINE
8
BLACK
6
CONTINUOUS
10
2.86633
20
-2.58258
11
2.87027
21
-2.5894
0
LINE
8
BLACK
6
CONTINUOUS
10
2.87027
20
-2.5894
11
2.87076
21
-2.59085
0
LINE
8
BLACK
6
CONTINUOUS
10
2.87076
20
-2.59085
11
2.87066
21
-2.59239
0
LINE
8
BLACK
6
CONTINUOUS
10
2.87066
20
-2.59239
11
2.86998
21
-2.59376
0
LINE
8
BLACK
6
CONTINUOUS
10
2.86998
20
-2.59376
11
2.86883
21
-2.59478
0
LINE
8
BLACK
6
CONTINUOUS
10
2.86883
20
-2.59478
11
2.85399
21
-2.60334
0
LINE
8
BLACK
6
CONTINUOUS
10
2.85399
20
-2.60334
11
2.85254
21
-2.60383
0
LINE
8
BLACK
6
CONTINUOUS
10
2.85254
20
-2.60383
11
2.85101
21
-2.60373
0
LINE
8
BLACK
6
CONTINUOUS
10
2.85101
20
-2.60373
11
2.84963
21
-2.60305
0
LINE
8
BLACK
6
CONTINUOUS
10
2.84963
20
-2.60305
11
2.84862
21
-2.6019
0
LINE
8
BLACK
6
CONTINUOUS
10
2.84862
20
-2.6019
11
2.84468
21
-2.59508
0
LINE
8
BLACK
6
CONTINUOUS
10
2.84468
20
-2.59508
11
2.84419
21
-2.59363
0
LINE
8
BLACK
6
CONTINUOUS
10
2.84419
20
-2.59363
11
2.84429
21
-2.59209
0
LINE
8
BLACK
6
CONTINUOUS
10
2.84429
20
-2.59209
11
2.84497
21
-2.59071
0
LINE
8
BLACK
6
CONTINUOUS
10
2.84497
20
-2.59071
11
2.84612
21
-2.5897
0
LINE
8
BLACK
6
CONTINUOUS
10
2.84612
20
-2.5897
11
2.86095
21
-2.58114
0
LINE
8
BLACK
6
CONTINUOUS
10
2.86095
20
-2.58114
11
2.86241
21
-2.58065
0
LINE
8
BLACK
6
CONTINUOUS
10
2.86241
20
-2.58065
11
2.86394
21
-2.58075
0
LINE
8
BLACK
6
CONTINUOUS
10
2.89173
20
-2.5647
11
2.89311
21
-2.56538
0
LINE
8
BLACK
6
CONTINUOUS
10
2.89311
20
-2.56538
11
2.89412
21
-2.56654
0
LINE
8
BLACK
6
CONTINUOUS
10
2.89412
20
-2.56654
11
2.89806
21
-2.57336
0
LINE
8
BLACK
6
CONTINUOUS
10
2.89806
20
-2.57336
11
2.89855
21
-2.57481
0
LINE
8
BLACK
6
CONTINUOUS
10
2.89855
20
-2.57481
11
2.89845
21
-2.57634
0
LINE
8
BLACK
6
CONTINUOUS
10
2.89845
20
-2.57634
11
2.89777
21
-2.57772
0
LINE
8
BLACK
6
CONTINUOUS
10
2.89777
20
-2.57772
11
2.89661
21
-2.57873
0
LINE
8
BLACK
6
CONTINUOUS
10
2.89661
20
-2.57873
11
2.88178
21
-2.5873
0
LINE
8
BLACK
6
CONTINUOUS
10
2.88178
20
-2.5873
11
2.88033
21
-2.58779
0
LINE
8
BLACK
6
CONTINUOUS
10
2.88033
20
-2.58779
11
2.8788
21
-2.58769
0
LINE
8
BLACK
6
CONTINUOUS
10
2.8788
20
-2.58769
11
2.87742
21
-2.58701
0
LINE
8
BLACK
6
CONTINUOUS
10
2.87742
20
-2.58701
11
2.8764
21
-2.58586
0
LINE
8
BLACK
6
CONTINUOUS
10
2.8764
20
-2.58586
11
2.87247
21
-2.57904
0
LINE
8
BLACK
6
CONTINUOUS
10
2.87247
20
-2.57904
11
2.87197
21
-2.57758
0
LINE
8
BLACK
6
CONTINUOUS
10
2.87197
20
-2.57758
11
2.87207
21
-2.57605
0
LINE
8
BLACK
6
CONTINUOUS
10
2.87207
20
-2.57605
11
2.87275
21
-2.57467
0
LINE
8
BLACK
6
CONTINUOUS
10
2.87275
20
-2.57467
11
2.87391
21
-2.57366
0
LINE
8
BLACK
6
CONTINUOUS
10
2.87391
20
-2.57366
11
2.88874
21
-2.5651
0
LINE
8
BLACK
6
CONTINUOUS
10
2.88874
20
-2.5651
11
2.89019
21
-2.5646
0
LINE
8
BLACK
6
CONTINUOUS
10
2.89019
20
-2.5646
11
2.89173
21
-2.5647
0
LINE
8
BLACK
6
CONTINUOUS
10
2.84971
20
-2.56717
11
2.83266
21
-2.57702
0
LINE
8
BLACK
6
CONTINUOUS
10
2.83266
20
-2.57702
11
2.82282
21
-2.55997
0
LINE
8
BLACK
6
CONTINUOUS
10
2.82282
20
-2.55997
11
2.83986
21
-2.55013
0
LINE
8
BLACK
6
CONTINUOUS
10
2.83986
20
-2.55013
11
2.84971
21
-2.56717
0
LINE
8
BLACK
6
CONTINUOUS
10
3.4764
20
-2.55997
11
3.46655
21
-2.57702
0
LINE
8
BLACK
6
CONTINUOUS
10
3.46655
20
-2.57702
11
3.44951
21
-2.56717
0
LINE
8
BLACK
6
CONTINUOUS
10
3.44951
20
-2.56717
11
3.45935
21
-2.55013
0
LINE
8
BLACK
6
CONTINUOUS
10
3.45935
20
-2.55013
11
3.4764
21
-2.55997
0
LINE
8
BLACK
6
CONTINUOUS
10
2.88039
20
-2.54946
11
2.86335
21
-2.5593
0
LINE
8
BLACK
6
CONTINUOUS
10
2.86335
20
-2.5593
11
2.8535
21
-2.54225
0
LINE
8
BLACK
6
CONTINUOUS
10
2.8535
20
-2.54225
11
2.87055
21
-2.53241
0
LINE
8
BLACK
6
CONTINUOUS
10
2.87055
20
-2.53241
11
2.88039
21
-2.54946
0
LINE
8
BLACK
6
CONTINUOUS
10
3.44571
20
-2.54225
11
3.43587
21
-2.5593
0
LINE
8
BLACK
6
CONTINUOUS
10
3.43587
20
-2.5593
11
3.41882
21
-2.54946
0
LINE
8
BLACK
6
CONTINUOUS
10
3.41882
20
-2.54946
11
3.42866
21
-2.53241
0
LINE
8
BLACK
6
CONTINUOUS
10
3.42866
20
-2.53241
11
3.44571
21
-2.54225
0
LINE
8
BLACK
6
CONTINUOUS
10
2.83199
20
-2.53649
11
2.81494
21
-2.54633
0
LINE
8
BLACK
6
CONTINUOUS
10
2.81494
20
-2.54633
11
2.8051
21
-2.52928
0
LINE
8
BLACK
6
CONTINUOUS
10
2.8051
20
-2.52928
11
2.82215
21
-2.51944
0
LINE
8
BLACK
6
CONTINUOUS
10
2.82215
20
-2.51944
11
2.83199
21
-2.53649
0
LINE
8
BLACK
6
CONTINUOUS
10
3.49411
20
-2.52928
11
3.48427
21
-2.54633
0
LINE
8
BLACK
6
CONTINUOUS
10
3.48427
20
-2.54633
11
3.46722
21
-2.53649
0
LINE
8
BLACK
6
CONTINUOUS
10
3.46722
20
-2.53649
11
3.47706
21
-2.51944
0
LINE
8
BLACK
6
CONTINUOUS
10
3.47706
20
-2.51944
11
3.49411
21
-2.52928
0
LINE
8
BLACK
6
CONTINUOUS
10
2.86268
20
-2.51877
11
2.84563
21
-2.52861
0
LINE
8
BLACK
6
CONTINUOUS
10
2.84563
20
-2.52861
11
2.83579
21
-2.51157
0
LINE
8
BLACK
6
CONTINUOUS
10
2.83579
20
-2.51157
11
2.85283
21
-2.50172
0
LINE
8
BLACK
6
CONTINUOUS
10
2.85283
20
-2.50172
11
2.86268
21
-2.51877
0
LINE
8
BLACK
6
CONTINUOUS
10
3.46343
20
-2.51157
11
3.45358
21
-2.52861
0
LINE
8
BLACK
6
CONTINUOUS
10
3.45358
20
-2.52861
11
3.43654
21
-2.51877
0
LINE
8
BLACK
6
CONTINUOUS
10
3.43654
20
-2.51877
11
3.44638
21
-2.50172
0
LINE
8
BLACK
6
CONTINUOUS
10
3.44638
20
-2.50172
11
3.46343
21
-2.51157
0
LINE
8
BLACK
6
CONTINUOUS
10
3.49141
20
-2.48908
11
3.50624
21
-2.49764
0
LINE
8
BLACK
6
CONTINUOUS
10
3.50624
20
-2.49764
11
3.5074
21
-2.49866
0
LINE
8
BLACK
6
CONTINUOUS
10
3.5074
20
-2.49866
11
3.50808
21
-2.50003
0
LINE
8
BLACK
6
CONTINUOUS
10
3.50808
20
-2.50003
11
3.50818
21
-2.50157
0
LINE
8
BLACK
6
CONTINUOUS
10
3.50818
20
-2.50157
11
3.50768
21
-2.50302
0
LINE
8
BLACK
6
CONTINUOUS
10
3.50768
20
-2.50302
11
3.50375
21
-2.50984
0
LINE
8
BLACK
6
CONTINUOUS
10
3.50375
20
-2.50984
11
3.50273
21
-2.511
0
LINE
8
BLACK
6
CONTINUOUS
10
3.50273
20
-2.511
11
3.50135
21
-2.51168
0
LINE
8
BLACK
6
CONTINUOUS
10
3.50135
20
-2.51168
11
3.49982
21
-2.51178
0
LINE
8
BLACK
6
CONTINUOUS
10
3.49982
20
-2.51178
11
3.49837
21
-2.51128
0
LINE
8
BLACK
6
CONTINUOUS
10
3.49837
20
-2.51128
11
3.48354
21
-2.50272
0
LINE
8
BLACK
6
CONTINUOUS
10
3.48354
20
-2.50272
11
3.48238
21
-2.50171
0
LINE
8
BLACK
6
CONTINUOUS
10
3.48238
20
-2.50171
11
3.4817
21
-2.50033
0
LINE
8
BLACK
6
CONTINUOUS
10
3.4817
20
-2.50033
11
3.4816
21
-2.4988
0
LINE
8
BLACK
6
CONTINUOUS
10
3.4816
20
-2.4988
11
3.48209
21
-2.49734
0
LINE
8
BLACK
6
CONTINUOUS
10
3.48209
20
-2.49734
11
3.48603
21
-2.49052
0
LINE
8
BLACK
6
CONTINUOUS
10
3.48603
20
-2.49052
11
3.48704
21
-2.48937
0
LINE
8
BLACK
6
CONTINUOUS
10
3.48704
20
-2.48937
11
3.48842
21
-2.48869
0
LINE
8
BLACK
6
CONTINUOUS
10
3.48842
20
-2.48869
11
3.48996
21
-2.48859
0
LINE
8
BLACK
6
CONTINUOUS
10
3.48996
20
-2.48859
11
3.49141
21
-2.48908
0
LINE
8
BLACK
6
CONTINUOUS
10
3.46362
20
-2.47304
11
3.47845
21
-2.4816
0
LINE
8
BLACK
6
CONTINUOUS
10
3.47845
20
-2.4816
11
3.47961
21
-2.48261
0
LINE
8
BLACK
6
CONTINUOUS
10
3.47961
20
-2.48261
11
3.48029
21
-2.48399
0
LINE
8
BLACK
6
CONTINUOUS
10
3.48029
20
-2.48399
11
3.48039
21
-2.48552
0
LINE
8
BLACK
6
CONTINUOUS
10
3.48039
20
-2.48552
11
3.47989
21
-2.48698
0
LINE
8
BLACK
6
CONTINUOUS
10
3.47989
20
-2.48698
11
3.47596
21
-2.4938
0
LINE
8
BLACK
6
CONTINUOUS
10
3.47596
20
-2.4938
11
3.47494
21
-2.49495
0
LINE
8
BLACK
6
CONTINUOUS
10
3.47494
20
-2.49495
11
3.47357
21
-2.49563
0
LINE
8
BLACK
6
CONTINUOUS
10
3.47357
20
-2.49563
11
3.47203
21
-2.49573
0
LINE
8
BLACK
6
CONTINUOUS
10
3.47203
20
-2.49573
11
3.47058
21
-2.49524
0
LINE
8
BLACK
6
CONTINUOUS
10
3.47058
20
-2.49524
11
3.45575
21
-2.48668
0
LINE
8
BLACK
6
CONTINUOUS
10
3.45575
20
-2.48668
11
3.45459
21
-2.48566
0
LINE
8
BLACK
6
CONTINUOUS
10
3.45459
20
-2.48566
11
3.45391
21
-2.48429
0
LINE
8
BLACK
6
CONTINUOUS
10
3.45391
20
-2.48429
11
3.45381
21
-2.48275
0
LINE
8
BLACK
6
CONTINUOUS
10
3.45381
20
-2.48275
11
3.45431
21
-2.4813
0
LINE
8
BLACK
6
CONTINUOUS
10
3.45431
20
-2.4813
11
3.45824
21
-2.47448
0
LINE
8
BLACK
6
CONTINUOUS
10
3.45824
20
-2.47448
11
3.45926
21
-2.47332
0
LINE
8
BLACK
6
CONTINUOUS
10
3.45926
20
-2.47332
11
3.46063
21
-2.47264
0
LINE
8
BLACK
6
CONTINUOUS
10
3.46063
20
-2.47264
11
3.46217
21
-2.47254
0
LINE
8
BLACK
6
CONTINUOUS
10
3.46217
20
-2.47254
11
3.46362
21
-2.47304
0
LINE
8
BLACK
6
CONTINUOUS
10
3.49442
20
-2.42077
11
3.4957
21
-2.42163
0
LINE
8
BLACK
6
CONTINUOUS
10
3.4957
20
-2.42163
11
3.49655
21
-2.4229
0
LINE
8
BLACK
6
CONTINUOUS
10
3.49655
20
-2.4229
11
3.49685
21
-2.42441
0
LINE
8
BLACK
6
CONTINUOUS
10
3.49685
20
-2.42441
11
3.49685
21
-2.43228
0
LINE
8
BLACK
6
CONTINUOUS
10
3.49685
20
-2.43228
11
3.49655
21
-2.43379
0
LINE
8
BLACK
6
CONTINUOUS
10
3.49655
20
-2.43379
11
3.4957
21
-2.43507
0
LINE
8
BLACK
6
CONTINUOUS
10
3.4957
20
-2.43507
11
3.49442
21
-2.43592
0
LINE
8
BLACK
6
CONTINUOUS
10
3.49442
20
-2.43592
11
3.49291
21
-2.43622
0
LINE
8
BLACK
6
CONTINUOUS
10
3.49291
20
-2.43622
11
3.47579
21
-2.43622
0
LINE
8
BLACK
6
CONTINUOUS
10
3.47579
20
-2.43622
11
3.47428
21
-2.43592
0
LINE
8
BLACK
6
CONTINUOUS
10
3.47428
20
-2.43592
11
3.473
21
-2.43507
0
LINE
8
BLACK
6
CONTINUOUS
10
3.473
20
-2.43507
11
3.47215
21
-2.43379
0
LINE
8
BLACK
6
CONTINUOUS
10
3.47215
20
-2.43379
11
3.47185
21
-2.43228
0
LINE
8
BLACK
6
CONTINUOUS
10
3.47185
20
-2.43228
11
3.47185
21
-2.42441
0
LINE
8
BLACK
6
CONTINUOUS
10
3.47185
20
-2.42441
11
3.47215
21
-2.4229
0
LINE
8
BLACK
6
CONTINUOUS
10
3.47215
20
-2.4229
11
3.473
21
-2.42163
0
LINE
8
BLACK
6
CONTINUOUS
10
3.473
20
-2.42163
11
3.47428
21
-2.42077
0
LINE
8
BLACK
6
CONTINUOUS
10
3.47428
20
-2.42077
11
3.47579
21
-2.42047
0
LINE
8
BLACK
6
CONTINUOUS
10
3.47579
20
-2.42047
11
3.49291
21
-2.42047
0
LINE
8
BLACK
6
CONTINUOUS
10
3.49291
20
-2.42047
11
3.49442
21
-2.42077
0
LINE
8
BLACK
6
CONTINUOUS
10
3.52651
20
-2.42077
11
3.52778
21
-2.42163
0
LINE
8
BLACK
6
CONTINUOUS
10
3.52778
20
-2.42163
11
3.52864
21
-2.4229
0
LINE
8
BLACK
6
CONTINUOUS
10
3.52864
20
-2.4229
11
3.52894
21
-2.42441
0
LINE
8
BLACK
6
CONTINUOUS
10
3.52894
20
-2.42441
11
3.52894
21
-2.43228
0
LINE
8
BLACK
6
CONTINUOUS
10
3.52894
20
-2.43228
11
3.52864
21
-2.43379
0
LINE
8
BLACK
6
CONTINUOUS
10
3.52864
20
-2.43379
11
3.52778
21
-2.43507
0
LINE
8
BLACK
6
CONTINUOUS
10
3.52778
20
-2.43507
11
3.52651
21
-2.43592
0
LINE
8
BLACK
6
CONTINUOUS
10
3.52651
20
-2.43592
11
3.525
21
-2.43622
0
LINE
8
BLACK
6
CONTINUOUS
10
3.525
20
-2.43622
11
3.50787
21
-2.43622
0
LINE
8
BLACK
6
CONTINUOUS
10
3.50787
20
-2.43622
11
3.50637
21
-2.43592
0
LINE
8
BLACK
6
CONTINUOUS
10
3.50637
20
-2.43592
11
3.50509
21
-2.43507
0
LINE
8
BLACK
6
CONTINUOUS
10
3.50509
20
-2.43507
11
3.50424
21
-2.43379
0
LINE
8
BLACK
6
CONTINUOUS
10
3.50424
20
-2.43379
11
3.50394
21
-2.43228
0
LINE
8
BLACK
6
CONTINUOUS
10
3.50394
20
-2.43228
11
3.50394
21
-2.42441
0
LINE
8
BLACK
6
CONTINUOUS
10
3.50394
20
-2.42441
11
3.50424
21
-2.4229
0
LINE
8
BLACK
6
CONTINUOUS
10
3.50424
20
-2.4229
11
3.50509
21
-2.42163
0
LINE
8
BLACK
6
CONTINUOUS
10
3.50509
20
-2.42163
11
3.50637
21
-2.42077
0
LINE
8
BLACK
6
CONTINUOUS
10
3.50637
20
-2.42077
11
3.50787
21
-2.42047
0
LINE
8
BLACK
6
CONTINUOUS
10
3.50787
20
-2.42047
11
3.525
21
-2.42047
0
LINE
8
BLACK
6
CONTINUOUS
10
3.525
20
-2.42047
11
3.52651
21
-2.42077
0
LINE
8
BLACK
6
CONTINUOUS
10
2.79166
20
-2.40778
11
2.79294
21
-2.40863
0
LINE
8
BLACK
6
CONTINUOUS
10
2.79294
20
-2.40863
11
2.79379
21
-2.40991
0
LINE
8
BLACK
6
CONTINUOUS
10
2.79379
20
-2.40991
11
2.79409
21
-2.41142
0
LINE
8
BLACK
6
CONTINUOUS
10
2.79409
20
-2.41142
11
2.79409
21
-2.41929
0
LINE
8
BLACK
6
CONTINUOUS
10
2.79409
20
-2.41929
11
2.79379
21
-2.4208
0
LINE
8
BLACK
6
CONTINUOUS
10
2.79379
20
-2.4208
11
2.79294
21
-2.42208
0
LINE
8
BLACK
6
CONTINUOUS
10
2.79294
20
-2.42208
11
2.79166
21
-2.42293
0
LINE
8
BLACK
6
CONTINUOUS
10
2.79166
20
-2.42293
11
2.79016
21
-2.42323
0
LINE
8
BLACK
6
CONTINUOUS
10
2.79016
20
-2.42323
11
2.77303
21
-2.42323
0
LINE
8
BLACK
6
CONTINUOUS
10
2.77303
20
-2.42323
11
2.77152
21
-2.42293
0
LINE
8
BLACK
6
CONTINUOUS
10
2.77152
20
-2.42293
11
2.77025
21
-2.42208
0
LINE
8
BLACK
6
CONTINUOUS
10
2.77025
20
-2.42208
11
2.76939
21
-2.4208
0
LINE
8
BLACK
6
CONTINUOUS
10
2.76939
20
-2.4208
11
2.76909
21
-2.41929
0
LINE
8
BLACK
6
CONTINUOUS
10
2.76909
20
-2.41929
11
2.76909
21
-2.41142
0
LINE
8
BLACK
6
CONTINUOUS
10
2.76909
20
-2.41142
11
2.76939
21
-2.40991
0
LINE
8
BLACK
6
CONTINUOUS
10
2.76939
20
-2.40991
11
2.77025
21
-2.40863
0
LINE
8
BLACK
6
CONTINUOUS
10
2.77025
20
-2.40863
11
2.77152
21
-2.40778
0
LINE
8
BLACK
6
CONTINUOUS
10
2.77152
20
-2.40778
11
2.77303
21
-2.40748
0
LINE
8
BLACK
6
CONTINUOUS
10
2.77303
20
-2.40748
11
2.79016
21
-2.40748
0
LINE
8
BLACK
6
CONTINUOUS
10
2.79016
20
-2.40748
11
2.79166
21
-2.40778
0
LINE
8
BLACK
6
CONTINUOUS
10
2.82375
20
-2.40778
11
2.82503
21
-2.40863
0
LINE
8
BLACK
6
CONTINUOUS
10
2.82503
20
-2.40863
11
2.82588
21
-2.40991
0
LINE
8
BLACK
6
CONTINUOUS
10
2.82588
20
-2.40991
11
2.82618
21
-2.41142
0
LINE
8
BLACK
6
CONTINUOUS
10
2.82618
20
-2.41142
11
2.82618
21
-2.41929
0
LINE
8
BLACK
6
CONTINUOUS
10
2.82618
20
-2.41929
11
2.82588
21
-2.4208
0
LINE
8
BLACK
6
CONTINUOUS
10
2.82588
20
-2.4208
11
2.82503
21
-2.42208
0
LINE
8
BLACK
6
CONTINUOUS
10
2.82503
20
-2.42208
11
2.82375
21
-2.42293
0
LINE
8
BLACK
6
CONTINUOUS
10
2.82375
20
-2.42293
11
2.82224
21
-2.42323
0
LINE
8
BLACK
6
CONTINUOUS
10
2.82224
20
-2.42323
11
2.80512
21
-2.42323
0
LINE
8
BLACK
6
CONTINUOUS
10
2.80512
20
-2.42323
11
2.80361
21
-2.42293
0
LINE
8
BLACK
6
CONTINUOUS
10
2.80361
20
-2.42293
11
2.80233
21
-2.42208
0
LINE
8
BLACK
6
CONTINUOUS
10
2.80233
20
-2.42208
11
2.80148
21
-2.4208
0
LINE
8
BLACK
6
CONTINUOUS
10
2.80148
20
-2.4208
11
2.80118
21
-2.41929
0
LINE
8
BLACK
6
CONTINUOUS
10
2.80118
20
-2.41929
11
2.80118
21
-2.41142
0
LINE
8
BLACK
6
CONTINUOUS
10
2.80118
20
-2.41142
11
2.80148
21
-2.40991
0
LINE
8
BLACK
6
CONTINUOUS
10
2.80148
20
-2.40991
11
2.80233
21
-2.40863
0
LINE
8
BLACK
6
CONTINUOUS
10
2.80233
20
-2.40863
11
2.80361
21
-2.40778
0
LINE
8
BLACK
6
CONTINUOUS
10
2.80361
20
-2.40778
11
2.80512
21
-2.40748
0
LINE
8
BLACK
6
CONTINUOUS
10
2.80512
20
-2.40748
11
2.82224
21
-2.40748
0
LINE
8
BLACK
6
CONTINUOUS
10
2.82224
20
-2.40748
11
2.82375
21
-2.40778
0
LINE
8
BLACK
6
CONTINUOUS
10
2.7874
20
-2.38976
11
2.76772
21
-2.38976
0
LINE
8
BLACK
6
CONTINUOUS
10
2.76772
20
-2.38976
11
2.76772
21
-2.37008
0
LINE
8
BLACK
6
CONTINUOUS
10
2.76772
20
-2.37008
11
2.7874
21
-2.37008
0
LINE
8
BLACK
6
CONTINUOUS
10
2.7874
20
-2.37008
11
2.7874
21
-2.38976
0
LINE
8
BLACK
6
CONTINUOUS
10
2.82283
20
-2.38976
11
2.80315
21
-2.38976
0
LINE
8
BLACK
6
CONTINUOUS
10
2.80315
20
-2.38976
11
2.80315
21
-2.37008
0
LINE
8
BLACK
6
CONTINUOUS
10
2.80315
20
-2.37008
11
2.82283
21
-2.37008
0
LINE
8
BLACK
6
CONTINUOUS
10
2.82283
20
-2.37008
11
2.82283
21
-2.38976
0
LINE
8
BLACK
6
CONTINUOUS
10
3.49606
20
-2.38976
11
3.47638
21
-2.38976
0
LINE
8
BLACK
6
CONTINUOUS
10
3.47638
20
-2.38976
11
3.47638
21
-2.37008
0
LINE
8
BLACK
6
CONTINUOUS
10
3.47638
20
-2.37008
11
3.49606
21
-2.37008
0
LINE
8
BLACK
6
CONTINUOUS
10
3.49606
20
-2.37008
11
3.49606
21
-2.38976
0
LINE
8
BLACK
6
CONTINUOUS
10
3.5315
20
-2.38976
11
3.51181
21
-2.38976
0
LINE
8
BLACK
6
CONTINUOUS
10
3.51181
20
-2.38976
11
3.51181
21
-2.37008
0
LINE
8
BLACK
6
CONTINUOUS
10
3.51181
20
-2.37008
11
3.5315
21
-2.37008
0
LINE
8
BLACK
6
CONTINUOUS
10
3.5315
20
-2.37008
11
3.5315
21
-2.38976
0
LINE
8
BLACK
6
CONTINUOUS
10
2.7874
20
-2.35433
11
2.76772
21
-2.35433
0
LINE
8
BLACK
6
CONTINUOUS
10
2.76772
20
-2.35433
11
2.76772
21
-2.33465
0
LINE
8
BLACK
6
CONTINUOUS
10
2.76772
20
-2.33465
11
2.7874
21
-2.33465
0
LINE
8
BLACK
6
CONTINUOUS
10
2.7874
20
-2.33465
11
2.7874
21
-2.35433
0
LINE
8
BLACK
6
CONTINUOUS
10
2.82283
20
-2.35433
11
2.80315
21
-2.35433
0
LINE
8
BLACK
6
CONTINUOUS
10
2.80315
20
-2.35433
11
2.80315
21
-2.33465
0
LINE
8
BLACK
6
CONTINUOUS
10
2.80315
20
-2.33465
11
2.82283
21
-2.33465
0
LINE
8
BLACK
6
CONTINUOUS
10
2.82283
20
-2.33465
11
2.82283
21
-2.35433
0
LINE
8
BLACK
6
CONTINUOUS
10
3.49606
20
-2.35433
11
3.47638
21
-2.35433
0
LINE
8
BLACK
6
CONTINUOUS
10
3.47638
20
-2.35433
11
3.47638
21
-2.33465
0
LINE
8
BLACK
6
CONTINUOUS
10
3.47638
20
-2.33465
11
3.49606
21
-2.33465
0
LINE
8
BLACK
6
CONTINUOUS
10
3.49606
20
-2.33465
11
3.49606
21
-2.35433
0
LINE
8
BLACK
6
CONTINUOUS
10
3.5315
20
-2.35433
11
3.51181
21
-2.35433
0
LINE
8
BLACK
6
CONTINUOUS
10
3.51181
20
-2.35433
11
3.51181
21
-2.33465
0
LINE
8
BLACK
6
CONTINUOUS
10
3.51181
20
-2.33465
11
3.5315
21
-2.33465
0
LINE
8
BLACK
6
CONTINUOUS
10
3.5315
20
-2.33465
11
3.5315
21
-2.35433
0
LINE
8
BLACK
6
CONTINUOUS
10
3.50387
20
-2.30148
11
3.50515
21
-2.30233
0
LINE
8
BLACK
6
CONTINUOUS
10
3.50515
20
-2.30233
11
3.506
21
-2.30361
0
LINE
8
BLACK
6
CONTINUOUS
10
3.506
20
-2.30361
11
3.5063
21
-2.30512
0
LINE
8
BLACK
6
CONTINUOUS
10
3.5063
20
-2.30512
11
3.5063
21
-2.31299
0
LINE
8
BLACK
6
CONTINUOUS
10
3.5063
20
-2.31299
11
3.506
21
-2.3145
0
LINE
8
BLACK
6
CONTINUOUS
10
3.506
20
-2.3145
11
3.50515
21
-2.31578
0
LINE
8
BLACK
6
CONTINUOUS
10
3.50515
20
-2.31578
11
3.50387
21
-2.31663
0
LINE
8
BLACK
6
CONTINUOUS
10
3.50387
20
-2.31663
11
3.50236
21
-2.31693
0
LINE
8
BLACK
6
CONTINUOUS
10
3.50236
20
-2.31693
11
3.48524
21
-2.31693
0
LINE
8
BLACK
6
CONTINUOUS
10
3.48524
20
-2.31693
11
3.48373
21
-2.31663
0
LINE
8
BLACK
6
CONTINUOUS
10
3.48373
20
-2.31663
11
3.48245
21
-2.31578
0
LINE
8
BLACK
6
CONTINUOUS
10
3.48245
20
-2.31578
11
3.4816
21
-2.3145
0
LINE
8
BLACK
6
CONTINUOUS
10
3.4816
20
-2.3145
11
3.4813
21
-2.31299
0
LINE
8
BLACK
6
CONTINUOUS
10
3.4813
20
-2.31299
11
3.4813
21
-2.30512
0
LINE
8
BLACK
6
CONTINUOUS
10
3.4813
20
-2.30512
11
3.4816
21
-2.30361
0
LINE
8
BLACK
6
CONTINUOUS
10
3.4816
20
-2.30361
11
3.48245
21
-2.30233
0
LINE
8
BLACK
6
CONTINUOUS
10
3.48245
20
-2.30233
11
3.48373
21
-2.30148
0
LINE
8
BLACK
6
CONTINUOUS
10
3.48373
20
-2.30148
11
3.48524
21
-2.30118
0
LINE
8
BLACK
6
CONTINUOUS
10
3.48524
20
-2.30118
11
3.50236
21
-2.30118
0
LINE
8
BLACK
6
CONTINUOUS
10
3.50236
20
-2.30118
11
3.50387
21
-2.30148
0
LINE
8
BLACK
6
CONTINUOUS
10
3.53596
20
-2.30148
11
3.53723
21
-2.30233
0
LINE
8
BLACK
6
CONTINUOUS
10
3.53723
20
-2.30233
11
3.53809
21
-2.30361
0
LINE
8
BLACK
6
CONTINUOUS
10
3.53809
20
-2.30361
11
3.53839
21
-2.30512
0
LINE
8
BLACK
6
CONTINUOUS
10
3.53839
20
-2.30512
11
3.53839
21
-2.31299
0
LINE
8
BLACK
6
CONTINUOUS
10
3.53839
20
-2.31299
11
3.53809
21
-2.3145
0
LINE
8
BLACK
6
CONTINUOUS
10
3.53809
20
-2.3145
11
3.53723
21
-2.31578
0
LINE
8
BLACK
6
CONTINUOUS
10
3.53723
20
-2.31578
11
3.53596
21
-2.31663
0
LINE
8
BLACK
6
CONTINUOUS
10
3.53596
20
-2.31663
11
3.53445
21
-2.31693
0
LINE
8
BLACK
6
CONTINUOUS
10
3.53445
20
-2.31693
11
3.51732
21
-2.31693
0
LINE
8
BLACK
6
CONTINUOUS
10
3.51732
20
-2.31693
11
3.51582
21
-2.31663
0
LINE
8
BLACK
6
CONTINUOUS
10
3.51582
20
-2.31663
11
3.51454
21
-2.31578
0
LINE
8
BLACK
6
CONTINUOUS
10
3.51454
20
-2.31578
11
3.51369
21
-2.3145
0
LINE
8
BLACK
6
CONTINUOUS
10
3.51369
20
-2.3145
11
3.51339
21
-2.31299
0
LINE
8
BLACK
6
CONTINUOUS
10
3.51339
20
-2.31299
11
3.51339
21
-2.30512
0
LINE
8
BLACK
6
CONTINUOUS
10
3.51339
20
-2.30512
11
3.51369
21
-2.30361
0
LINE
8
BLACK
6
CONTINUOUS
10
3.51369
20
-2.30361
11
3.51454
21
-2.30233
0
LINE
8
BLACK
6
CONTINUOUS
10
3.51454
20
-2.30233
11
3.51582
21
-2.30148
0
LINE
8
BLACK
6
CONTINUOUS
10
3.51582
20
-2.30148
11
3.51732
21
-2.30118
0
LINE
8
BLACK
6
CONTINUOUS
10
3.51732
20
-2.30118
11
3.53445
21
-2.30118
0
LINE
8
BLACK
6
CONTINUOUS
10
3.53445
20
-2.30118
11
3.53596
21
-2.30148
0
LINE
8
BLACK
6
CONTINUOUS
10
3.49796
20
-2.27392
11
3.49924
21
-2.27478
0
LINE
8
BLACK
6
CONTINUOUS
10
3.49924
20
-2.27478
11
3.50009
21
-2.27605
0
LINE
8
BLACK
6
CONTINUOUS
10
3.50009
20
-2.27605
11
3.50039
21
-2.27756
0
LINE
8
BLACK
6
CONTINUOUS
10
3.50039
20
-2.27756
11
3.50039
21
-2.28543
0
LINE
8
BLACK
6
CONTINUOUS
10
3.50039
20
-2.28543
11
3.50009
21
-2.28694
0
LINE
8
BLACK
6
CONTINUOUS
10
3.50009
20
-2.28694
11
3.49924
21
-2.28822
0
LINE
8
BLACK
6
CONTINUOUS
10
3.49924
20
-2.28822
11
3.49796
21
-2.28907
0
LINE
8
BLACK
6
CONTINUOUS
10
3.49796
20
-2.28907
11
3.49646
21
-2.28937
0
LINE
8
BLACK
6
CONTINUOUS
10
3.49646
20
-2.28937
11
3.47933
21
-2.28937
0
LINE
8
BLACK
6
CONTINUOUS
10
3.47933
20
-2.28937
11
3.47782
21
-2.28907
0
LINE
8
BLACK
6
CONTINUOUS
10
3.47782
20
-2.28907
11
3.47655
21
-2.28822
0
LINE
8
BLACK
6
CONTINUOUS
10
3.47655
20
-2.28822
11
3.47569
21
-2.28694
0
LINE
8
BLACK
6
CONTINUOUS
10
3.47569
20
-2.28694
11
3.47539
21
-2.28543
0
LINE
8
BLACK
6
CONTINUOUS
10
3.47539
20
-2.28543
11
3.47539
21
-2.27756
0
LINE
8
BLACK
6
CONTINUOUS
10
3.47539
20
-2.27756
11
3.47569
21
-2.27605
0
LINE
8
BLACK
6
CONTINUOUS
10
3.47569
20
-2.27605
11
3.47655
21
-2.27478
0
LINE
8
BLACK
6
CONTINUOUS
10
3.47655
20
-2.27478
11
3.47782
21
-2.27392
0
LINE
8
BLACK
6
CONTINUOUS
10
3.47782
20
-2.27392
11
3.47933
21
-2.27362
0
LINE
8
BLACK
6
CONTINUOUS
10
3.47933
20
-2.27362
11
3.49646
21
-2.27362
0
LINE
8
BLACK
6
CONTINUOUS
10
3.49646
20
-2.27362
11
3.49796
21
-2.27392
0
LINE
8
BLACK
6
CONTINUOUS
10
3.53005
20
-2.27392
11
3.53133
21
-2.27478
0
LINE
8
BLACK
6
CONTINUOUS
10
3.53133
20
-2.27478
11
3.53218
21
-2.27605
0
LINE
8
BLACK
6
CONTINUOUS
10
3.53218
20
-2.27605
11
3.53248
21
-2.27756
0
LINE
8
BLACK
6
CONTINUOUS
10
3.53248
20
-2.27756
11
3.53248
21
-2.28543
0
LINE
8
BLACK
6
CONTINUOUS
10
3.53248
20
-2.28543
11
3.53218
21
-2.28694
0
LINE
8
BLACK
6
CONTINUOUS
10
3.53218
20
-2.28694
11
3.53133
21
-2.28822
0
LINE
8
BLACK
6
CONTINUOUS
10
3.53133
20
-2.28822
11
3.53005
21
-2.28907
0
LINE
8
BLACK
6
CONTINUOUS
10
3.53005
20
-2.28907
11
3.52854
21
-2.28937
0
LINE
8
BLACK
6
CONTINUOUS
10
3.52854
20
-2.28937
11
3.51142
21
-2.28937
0
LINE
8
BLACK
6
CONTINUOUS
10
3.51142
20
-2.28937
11
3.50991
21
-2.28907
0
LINE
8
BLACK
6
CONTINUOUS
10
3.50991
20
-2.28907
11
3.50863
21
-2.28822
0
LINE
8
BLACK
6
CONTINUOUS
10
3.50863
20
-2.28822
11
3.50778
21
-2.28694
0
LINE
8
BLACK
6
CONTINUOUS
10
3.50778
20
-2.28694
11
3.50748
21
-2.28543
0
LINE
8
BLACK
6
CONTINUOUS
10
3.50748
20
-2.28543
11
3.50748
21
-2.27756
0
LINE
8
BLACK
6
CONTINUOUS
10
3.50748
20
-2.27756
11
3.50778
21
-2.27605
0
LINE
8
BLACK
6
CONTINUOUS
10
3.50778
20
-2.27605
11
3.50863
21
-2.27478
0
LINE
8
BLACK
6
CONTINUOUS
10
3.50863
20
-2.27478
11
3.50991
21
-2.27392
0
LINE
8
BLACK
6
CONTINUOUS
10
3.50991
20
-2.27392
11
3.51142
21
-2.27362
0
LINE
8
BLACK
6
CONTINUOUS
10
3.51142
20
-2.27362
11
3.52854
21
-2.27362
0
LINE
8
BLACK
6
CONTINUOUS
10
3.52854
20
-2.27362
11
3.53005
21
-2.27392
0
LINE
8
BLACK
6
CONTINUOUS
10
3.48401
20
-2.24527
11
3.48481
21
-2.2458
0
LINE
8
BLACK
6
CONTINUOUS
10
3.48481
20
-2.2458
11
3.48534
21
-2.2466
0
LINE
8
BLACK
6
CONTINUOUS
10
3.48534
20
-2.2466
11
3.48553
21
-2.24754
0
LINE
8
BLACK
6
CONTINUOUS
10
3.48553
20
-2.24754
11
3.48553
21
-2.25246
0
LINE
8
BLACK
6
CONTINUOUS
10
3.48553
20
-2.25246
11
3.48534
21
-2.2534
0
LINE
8
BLACK
6
CONTINUOUS
10
3.48534
20
-2.2534
11
3.48481
21
-2.2542
0
LINE
8
BLACK
6
CONTINUOUS
10
3.48481
20
-2.2542
11
3.48401
21
-2.25473
0
LINE
8
BLACK
6
CONTINUOUS
10
3.48401
20
-2.25473
11
3.48307
21
-2.25492
0
LINE
8
BLACK
6
CONTINUOUS
10
3.48307
20
-2.25492
11
3.47382
21
-2.25492
0
LINE
8
BLACK
6
CONTINUOUS
10
3.47382
20
-2.25492
11
3.47288
21
-2.25473
0
LINE
8
BLACK
6
CONTINUOUS
10
3.47288
20
-2.25473
11
3.47208
21
-2.2542
0
LINE
8
BLACK
6
CONTINUOUS
10
3.47208
20
-2.2542
11
3.47155
21
-2.2534
0
LINE
8
BLACK
6
CONTINUOUS
10
3.47155
20
-2.2534
11
3.47136
21
-2.25246
0
LINE
8
BLACK
6
CONTINUOUS
10
3.47136
20
-2.25246
11
3.47136
21
-2.24754
0
LINE
8
BLACK
6
CONTINUOUS
10
3.47136
20
-2.24754
11
3.47155
21
-2.2466
0
LINE
8
BLACK
6
CONTINUOUS
10
3.47155
20
-2.2466
11
3.47208
21
-2.2458
0
LINE
8
BLACK
6
CONTINUOUS
10
3.47208
20
-2.2458
11
3.47288
21
-2.24527
0
LINE
8
BLACK
6
CONTINUOUS
10
3.47288
20
-2.24527
11
3.47382
21
-2.24508
0
LINE
8
BLACK
6
CONTINUOUS
10
3.47382
20
-2.24508
11
3.48307
21
-2.24508
0
LINE
8
BLACK
6
CONTINUOUS
10
3.48307
20
-2.24508
11
3.48401
21
-2.24527
0
LINE
8
BLACK
6
CONTINUOUS
10
3.51708
20
-2.24527
11
3.51788
21
-2.2458
0
LINE
8
BLACK
6
CONTINUOUS
10
3.51788
20
-2.2458
11
3.51842
21
-2.2466
0
LINE
8
BLACK
6
CONTINUOUS
10
3.51842
20
-2.2466
11
3.5186
21
-2.24754
0
LINE
8
BLACK
6
CONTINUOUS
10
3.5186
20
-2.24754
11
3.5186
21
-2.25246
0
LINE
8
BLACK
6
CONTINUOUS
10
3.5186
20
-2.25246
11
3.51842
21
-2.2534
0
LINE
8
BLACK
6
CONTINUOUS
10
3.51842
20
-2.2534
11
3.51788
21
-2.2542
0
LINE
8
BLACK
6
CONTINUOUS
10
3.51788
20
-2.2542
11
3.51708
21
-2.25473
0
LINE
8
BLACK
6
CONTINUOUS
10
3.51708
20
-2.25473
11
3.51614
21
-2.25492
0
LINE
8
BLACK
6
CONTINUOUS
10
3.51614
20
-2.25492
11
3.50689
21
-2.25492
0
LINE
8
BLACK
6
CONTINUOUS
10
3.50689
20
-2.25492
11
3.50595
21
-2.25473
0
LINE
8
BLACK
6
CONTINUOUS
10
3.50595
20
-2.25473
11
3.50515
21
-2.2542
0
LINE
8
BLACK
6
CONTINUOUS
10
3.50515
20
-2.2542
11
3.50462
21
-2.2534
0
LINE
8
BLACK
6
CONTINUOUS
10
3.50462
20
-2.2534
11
3.50443
21
-2.25246
0
LINE
8
BLACK
6
CONTINUOUS
10
3.50443
20
-2.25246
11
3.50443
21
-2.24754
0
LINE
8
BLACK
6
CONTINUOUS
10
3.50443
20
-2.24754
11
3.50462
21
-2.2466
0
LINE
8
BLACK
6
CONTINUOUS
10
3.50462
20
-2.2466
11
3.50515
21
-2.2458
0
LINE
8
BLACK
6
CONTINUOUS
10
3.50515
20
-2.2458
11
3.50595
21
-2.24527
0
LINE
8
BLACK
6
CONTINUOUS
10
3.50595
20
-2.24527
11
3.50689
21
-2.24508
0
LINE
8
BLACK
6
CONTINUOUS
10
3.50689
20
-2.24508
11
3.51614
21
-2.24508
0
LINE
8
BLACK
6
CONTINUOUS
10
3.51614
20
-2.24508
11
3.51708
21
-2.24527
0
LINE
8
BLACK
6
CONTINUOUS
10
2.82863
20
-2.22917
11
2.84346
21
-2.23773
0
LINE
8
BLACK
6
CONTINUOUS
10
2.84346
20
-2.23773
11
2.84462
21
-2.23875
0
LINE
8
BLACK
6
CONTINUOUS
10
2.84462
20
-2.23875
11
2.8453
21
-2.24012
0
LINE
8
BLACK
6
CONTINUOUS
10
2.8453
20
-2.24012
11
2.8454
21
-2.24166
0
LINE
8
BLACK
6
CONTINUOUS
10
2.8454
20
-2.24166
11
2.84491
21
-2.24311
0
LINE
8
BLACK
6
CONTINUOUS
10
2.84491
20
-2.24311
11
2.84097
21
-2.24993
0
LINE
8
BLACK
6
CONTINUOUS
10
2.84097
20
-2.24993
11
2.83996
21
-2.25109
0
LINE
8
BLACK
6
CONTINUOUS
10
2.83996
20
-2.25109
11
2.83858
21
-2.25176
0
LINE
8
BLACK
6
CONTINUOUS
10
2.83858
20
-2.25176
11
2.83705
21
-2.25187
0
LINE
8
BLACK
6
CONTINUOUS
10
2.83705
20
-2.25187
11
2.83559
21
-2.25137
0
LINE
8
BLACK
6
CONTINUOUS
10
2.83559
20
-2.25137
11
2.82076
21
-2.24281
0
LINE
8
BLACK
6
CONTINUOUS
10
2.82076
20
-2.24281
11
2.8196
21
-2.2418
0
LINE
8
BLACK
6
CONTINUOUS
10
2.8196
20
-2.2418
11
2.81892
21
-2.24042
0
LINE
8
BLACK
6
CONTINUOUS
10
2.81892
20
-2.24042
11
2.81882
21
-2.23889
0
LINE
8
BLACK
6
CONTINUOUS
10
2.81882
20
-2.23889
11
2.81932
21
-2.23743
0
LINE
8
BLACK
6
CONTINUOUS
10
2.81932
20
-2.23743
11
2.82325
21
-2.23061
0
LINE
8
BLACK
6
CONTINUOUS
10
2.82325
20
-2.23061
11
2.82427
21
-2.22946
0
LINE
8
BLACK
6
CONTINUOUS
10
2.82427
20
-2.22946
11
2.82565
21
-2.22878
0
LINE
8
BLACK
6
CONTINUOUS
10
2.82565
20
-2.22878
11
2.82718
21
-2.22868
0
LINE
8
BLACK
6
CONTINUOUS
10
2.82718
20
-2.22868
11
2.82863
21
-2.22917
0
LINE
8
BLACK
6
CONTINUOUS
10
2.80085
20
-2.21313
11
2.81568
21
-2.22169
0
LINE
8
BLACK
6
CONTINUOUS
10
2.81568
20
-2.22169
11
2.81683
21
-2.2227
0
LINE
8
BLACK
6
CONTINUOUS
10
2.81683
20
-2.2227
11
2.81751
21
-2.22408
0
LINE
8
BLACK
6
CONTINUOUS
10
2.81751
20
-2.22408
11
2.81761
21
-2.22561
0
LINE
8
BLACK
6
CONTINUOUS
10
2.81761
20
-2.22561
11
2.81712
21
-2.22707
0
LINE
8
BLACK
6
CONTINUOUS
10
2.81712
20
-2.22707
11
2.81318
21
-2.23389
0
LINE
8
BLACK
6
CONTINUOUS
10
2.81318
20
-2.23389
11
2.81217
21
-2.23504
0
LINE
8
BLACK
6
CONTINUOUS
10
2.81217
20
-2.23504
11
2.81079
21
-2.23572
0
LINE
8
BLACK
6
CONTINUOUS
10
2.81079
20
-2.23572
11
2.80926
21
-2.23582
0
LINE
8
BLACK
6
CONTINUOUS
10
2.80926
20
-2.23582
11
2.8078
21
-2.23533
0
LINE
8
BLACK
6
CONTINUOUS
10
2.8078
20
-2.23533
11
2.79297
21
-2.22677
0
LINE
8
BLACK
6
CONTINUOUS
10
2.79297
20
-2.22677
11
2.79182
21
-2.22575
0
LINE
8
BLACK
6
CONTINUOUS
10
2.79182
20
-2.22575
11
2.79114
21
-2.22437
0
LINE
8
BLACK
6
CONTINUOUS
10
2.79114
20
-2.22437
11
2.79104
21
-2.22284
0
LINE
8
BLACK
6
CONTINUOUS
10
2.79104
20
-2.22284
11
2.79153
21
-2.22139
0
LINE
8
BLACK
6
CONTINUOUS
10
2.79153
20
-2.22139
11
2.79547
21
-2.21457
0
LINE
8
BLACK
6
CONTINUOUS
10
2.79547
20
-2.21457
11
2.79648
21
-2.21341
0
LINE
8
BLACK
6
CONTINUOUS
10
2.79648
20
-2.21341
11
2.79786
21
-2.21273
0
LINE
8
BLACK
6
CONTINUOUS
10
2.79786
20
-2.21273
11
2.79939
21
-2.21263
0
LINE
8
BLACK
6
CONTINUOUS
10
2.79939
20
-2.21263
11
2.80085
21
-2.21313
0
LINE
8
BLACK
6
CONTINUOUS
10
2.86268
20
-2.20564
11
2.85283
21
-2.22269
0
LINE
8
BLACK
6
CONTINUOUS
10
2.85283
20
-2.22269
11
2.83579
21
-2.21284
0
LINE
8
BLACK
6
CONTINUOUS
10
2.83579
20
-2.21284
11
2.84563
21
-2.1958
0
LINE
8
BLACK
6
CONTINUOUS
10
2.84563
20
-2.1958
11
2.86268
21
-2.20564
0
LINE
8
BLACK
6
CONTINUOUS
10
3.46343
20
-2.21284
11
3.44638
21
-2.22269
0
LINE
8
BLACK
6
CONTINUOUS
10
3.44638
20
-2.22269
11
3.43654
21
-2.20564
0
LINE
8
BLACK
6
CONTINUOUS
10
3.43654
20
-2.20564
11
3.45358
21
-2.1958
0
LINE
8
BLACK
6
CONTINUOUS
10
3.45358
20
-2.1958
11
3.46343
21
-2.21284
0
LINE
8
BLACK
6
CONTINUOUS
10
2.83199
20
-2.18792
11
2.82215
21
-2.20497
0
LINE
8
BLACK
6
CONTINUOUS
10
2.82215
20
-2.20497
11
2.8051
21
-2.19513
0
LINE
8
BLACK
6
CONTINUOUS
10
2.8051
20
-2.19513
11
2.81494
21
-2.17808
0
LINE
8
BLACK
6
CONTINUOUS
10
2.81494
20
-2.17808
11
2.83199
21
-2.18792
0
LINE
8
BLACK
6
CONTINUOUS
10
3.49411
20
-2.19513
11
3.47706
21
-2.20497
0
LINE
8
BLACK
6
CONTINUOUS
10
3.47706
20
-2.20497
11
3.46722
21
-2.18792
0
LINE
8
BLACK
6
CONTINUOUS
10
3.46722
20
-2.18792
11
3.48427
21
-2.17808
0
LINE
8
BLACK
6
CONTINUOUS
10
3.48427
20
-2.17808
11
3.49411
21
-2.19513
0
LINE
8
BLACK
6
CONTINUOUS
10
2.88039
20
-2.17495
11
2.87055
21
-2.192
0
LINE
8
BLACK
6
CONTINUOUS
10
2.87055
20
-2.192
11
2.8535
21
-2.18216
0
LINE
8
BLACK
6
CONTINUOUS
10
2.8535
20
-2.18216
11
2.86335
21
-2.16511
0
LINE
8
BLACK
6
CONTINUOUS
10
2.86335
20
-2.16511
11
2.88039
21
-2.17495
0
LINE
8
BLACK
6
CONTINUOUS
10
3.44571
20
-2.18216
11
3.42866
21
-2.192
0
LINE
8
BLACK
6
CONTINUOUS
10
3.42866
20
-2.192
11
3.41882
21
-2.17495
0
LINE
8
BLACK
6
CONTINUOUS
10
3.41882
20
-2.17495
11
3.43587
21
-2.16511
0
LINE
8
BLACK
6
CONTINUOUS
10
3.43587
20
-2.16511
11
3.44571
21
-2.18216
0
LINE
8
BLACK
6
CONTINUOUS
10
2.84971
20
-2.15724
11
2.83986
21
-2.17428
0
LINE
8
BLACK
6
CONTINUOUS
10
2.83986
20
-2.17428
11
2.82282
21
-2.16444
0
LINE
8
BLACK
6
CONTINUOUS
10
2.82282
20
-2.16444
11
2.83266
21
-2.14739
0
LINE
8
BLACK
6
CONTINUOUS
10
2.83266
20
-2.14739
11
2.84971
21
-2.15724
0
LINE
8
BLACK
6
CONTINUOUS
10
3.4764
20
-2.16444
11
3.45935
21
-2.17428
0
LINE
8
BLACK
6
CONTINUOUS
10
3.45935
20
-2.17428
11
3.44951
21
-2.15724
0
LINE
8
BLACK
6
CONTINUOUS
10
3.44951
20
-2.15724
11
3.46655
21
-2.14739
0
LINE
8
BLACK
6
CONTINUOUS
10
3.46655
20
-2.14739
11
3.4764
21
-2.16444
0
LINE
8
BLACK
6
CONTINUOUS
10
3.42042
20
-2.13672
11
3.4218
21
-2.1374
0
LINE
8
BLACK
6
CONTINUOUS
10
3.4218
20
-2.1374
11
3.42281
21
-2.13855
0
LINE
8
BLACK
6
CONTINUOUS
10
3.42281
20
-2.13855
11
3.42675
21
-2.14537
0
LINE
8
BLACK
6
CONTINUOUS
10
3.42675
20
-2.14537
11
3.42724
21
-2.14683
0
LINE
8
BLACK
6
CONTINUOUS
10
3.42724
20
-2.14683
11
3.42714
21
-2.14836
0
LINE
8
BLACK
6
CONTINUOUS
10
3.42714
20
-2.14836
11
3.42646
21
-2.14974
0
LINE
8
BLACK
6
CONTINUOUS
10
3.42646
20
-2.14974
11
3.4253
21
-2.15075
0
LINE
8
BLACK
6
CONTINUOUS
10
3.4253
20
-2.15075
11
3.41047
21
-2.15931
0
LINE
8
BLACK
6
CONTINUOUS
10
3.41047
20
-2.15931
11
3.40902
21
-2.15981
0
LINE
8
BLACK
6
CONTINUOUS
10
3.40902
20
-2.15981
11
3.40748
21
-2.15971
0
LINE
8
BLACK
6
CONTINUOUS
10
3.40748
20
-2.15971
11
3.40611
21
-2.15903
0
LINE
8
BLACK
6
CONTINUOUS
10
3.40611
20
-2.15903
11
3.40509
21
-2.15787
0
LINE
8
BLACK
6
CONTINUOUS
10
3.40509
20
-2.15787
11
3.40116
21
-2.15105
0
LINE
8
BLACK
6
CONTINUOUS
10
3.40116
20
-2.15105
11
3.40066
21
-2.1496
0
LINE
8
BLACK
6
CONTINUOUS
10
3.40066
20
-2.1496
11
3.40076
21
-2.14807
0
LINE
8
BLACK
6
CONTINUOUS
10
3.40076
20
-2.14807
11
3.40144
21
-2.14669
0
LINE
8
BLACK
6
CONTINUOUS
10
3.40144
20
-2.14669
11
3.4026
21
-2.14568
0
LINE
8
BLACK
6
CONTINUOUS
10
3.4026
20
-2.14568
11
3.41743
21
-2.13711
0
LINE
8
BLACK
6
CONTINUOUS
10
3.41743
20
-2.13711
11
3.41888
21
-2.13662
0
LINE
8
BLACK
6
CONTINUOUS
10
3.41888
20
-2.13662
11
3.42042
21
-2.13672
0
LINE
8
BLACK
6
CONTINUOUS
10
3.44821
20
-2.12068
11
3.44958
21
-2.12136
0
LINE
8
BLACK
6
CONTINUOUS
10
3.44958
20
-2.12136
11
3.4506
21
-2.12251
0
LINE
8
BLACK
6
CONTINUOUS
10
3.4506
20
-2.12251
11
3.45453
21
-2.12933
0
LINE
8
BLACK
6
CONTINUOUS
10
3.45453
20
-2.12933
11
3.45503
21
-2.13078
0
LINE
8
BLACK
6
CONTINUOUS
10
3.45503
20
-2.13078
11
3.45493
21
-2.13232
0
LINE
8
BLACK
6
CONTINUOUS
10
3.45493
20
-2.13232
11
3.45425
21
-2.13369
0
LINE
8
BLACK
6
CONTINUOUS
10
3.45425
20
-2.13369
11
3.45309
21
-2.13471
0
LINE
8
BLACK
6
CONTINUOUS
10
3.45309
20
-2.13471
11
3.43826
21
-2.14327
0
LINE
8
BLACK
6
CONTINUOUS
10
3.43826
20
-2.14327
11
3.43681
21
-2.14376
0
LINE
8
BLACK
6
CONTINUOUS
10
3.43681
20
-2.14376
11
3.43527
21
-2.14366
0
LINE
8
BLACK
6
CONTINUOUS
10
3.43527
20
-2.14366
11
3.4339
21
-2.14298
0
LINE
8
BLACK
6
CONTINUOUS
10
3.4339
20
-2.14298
11
3.43288
21
-2.14183
0
LINE
8
BLACK
6
CONTINUOUS
10
3.43288
20
-2.14183
11
3.42895
21
-2.13501
0
LINE
8
BLACK
6
CONTINUOUS
10
3.42895
20
-2.13501
11
3.42845
21
-2.13356
0
LINE
8
BLACK
6
CONTINUOUS
10
3.42845
20
-2.13356
11
3.42855
21
-2.13202
0
LINE
8
BLACK
6
CONTINUOUS
10
3.42855
20
-2.13202
11
3.42923
21
-2.13065
0
LINE
8
BLACK
6
CONTINUOUS
10
3.42923
20
-2.13065
11
3.43039
21
-2.12963
0
LINE
8
BLACK
6
CONTINUOUS
10
3.43039
20
-2.12963
11
3.44522
21
-2.12107
0
LINE
8
BLACK
6
CONTINUOUS
10
3.44522
20
-2.12107
11
3.44667
21
-2.12058
0
LINE
8
BLACK
6
CONTINUOUS
10
3.44667
20
-2.12058
11
3.44821
21
-2.12068
0
LINE
8
BLACK
6
CONTINUOUS
10
2.93576
20
-2.08467
11
2.93714
21
-2.08535
0
LINE
8
BLACK
6
CONTINUOUS
10
2.93714
20
-2.08535
11
2.93815
21
-2.08651
0
LINE
8
BLACK
6
CONTINUOUS
10
2.93815
20
-2.08651
11
2.94672
21
-2.10134
0
LINE
8
BLACK
6
CONTINUOUS
10
2.94672
20
-2.10134
11
2.94721
21
-2.10279
0
LINE
8
BLACK
6
CONTINUOUS
10
2.94721
20
-2.10279
11
2.94711
21
-2.10433
0
LINE
8
BLACK
6
CONTINUOUS
10
2.94711
20
-2.10433
11
2.94643
21
-2.1057
0
LINE
8
BLACK
6
CONTINUOUS
10
2.94643
20
-2.1057
11
2.94527
21
-2.10672
0
LINE
8
BLACK
6
CONTINUOUS
10
2.94527
20
-2.10672
11
2.93846
21
-2.11065
0
LINE
8
BLACK
6
CONTINUOUS
10
2.93846
20
-2.11065
11
2.937
21
-2.11115
0
LINE
8
BLACK
6
CONTINUOUS
10
2.937
20
-2.11115
11
2.93547
21
-2.11105
0
LINE
8
BLACK
6
CONTINUOUS
10
2.93547
20
-2.11105
11
2.93409
21
-2.11037
0
LINE
8
BLACK
6
CONTINUOUS
10
2.93409
20
-2.11037
11
2.93308
21
-2.10921
0
LINE
8
BLACK
6
CONTINUOUS
10
2.93308
20
-2.10921
11
2.92451
21
-2.09438
0
LINE
8
BLACK
6
CONTINUOUS
10
2.92451
20
-2.09438
11
2.92402
21
-2.09293
0
LINE
8
BLACK
6
CONTINUOUS
10
2.92402
20
-2.09293
11
2.92412
21
-2.09139
0
LINE
8
BLACK
6
CONTINUOUS
10
2.92412
20
-2.09139
11
2.9248
21
-2.09002
0
LINE
8
BLACK
6
CONTINUOUS
10
2.9248
20
-2.09002
11
2.92596
21
-2.089
0
LINE
8
BLACK
6
CONTINUOUS
10
2.92596
20
-2.089
11
2.93277
21
-2.08507
0
LINE
8
BLACK
6
CONTINUOUS
10
2.93277
20
-2.08507
11
2.93423
21
-2.08457
0
LINE
8
BLACK
6
CONTINUOUS
10
2.93423
20
-2.08457
11
2.93576
21
-2.08467
0
LINE
8
BLACK
6
CONTINUOUS
10
2.9794
20
-2.08315
11
2.96235
21
-2.09299
0
LINE
8
BLACK
6
CONTINUOUS
10
2.96235
20
-2.09299
11
2.95251
21
-2.07594
0
LINE
8
BLACK
6
CONTINUOUS
10
2.95251
20
-2.07594
11
2.96956
21
-2.0661
0
LINE
8
BLACK
6
CONTINUOUS
10
2.96956
20
-2.0661
11
2.9794
21
-2.08315
0
LINE
8
BLACK
6
CONTINUOUS
10
3.3467
20
-2.07594
11
3.33686
21
-2.09299
0
LINE
8
BLACK
6
CONTINUOUS
10
3.33686
20
-2.09299
11
3.31981
21
-2.08315
0
LINE
8
BLACK
6
CONTINUOUS
10
3.31981
20
-2.08315
11
3.32965
21
-2.0661
0
LINE
8
BLACK
6
CONTINUOUS
10
3.32965
20
-2.0661
11
3.3467
21
-2.07594
0
LINE
8
BLACK
6
CONTINUOUS
10
2.91972
20
-2.05688
11
2.9211
21
-2.05756
0
LINE
8
BLACK
6
CONTINUOUS
10
2.9211
20
-2.05756
11
2.92211
21
-2.05872
0
LINE
8
BLACK
6
CONTINUOUS
10
2.92211
20
-2.05872
11
2.93067
21
-2.07355
0
LINE
8
BLACK
6
CONTINUOUS
10
2.93067
20
-2.07355
11
2.93117
21
-2.07501
0
LINE
8
BLACK
6
CONTINUOUS
10
2.93117
20
-2.07501
11
2.93107
21
-2.07654
0
LINE
8
BLACK
6
CONTINUOUS
10
2.93107
20
-2.07654
11
2.93039
21
-2.07792
0
LINE
8
BLACK
6
CONTINUOUS
10
2.93039
20
-2.07792
11
2.92923
21
-2.07893
0
LINE
8
BLACK
6
CONTINUOUS
10
2.92923
20
-2.07893
11
2.92241
21
-2.08287
0
LINE
8
BLACK
6
CONTINUOUS
10
2.92241
20
-2.08287
11
2.92096
21
-2.08336
0
LINE
8
BLACK
6
CONTINUOUS
10
2.92096
20
-2.08336
11
2.91942
21
-2.08326
0
LINE
8
BLACK
6
CONTINUOUS
10
2.91942
20
-2.08326
11
2.91805
21
-2.08258
0
LINE
8
BLACK
6
CONTINUOUS
10
2.91805
20
-2.08258
11
2.91703
21
-2.08142
0
LINE
8
BLACK
6
CONTINUOUS
10
2.91703
20
-2.08142
11
2.90847
21
-2.06659
0
LINE
8
BLACK
6
CONTINUOUS
10
2.90847
20
-2.06659
11
2.90798
21
-2.06514
0
LINE
8
BLACK
6
CONTINUOUS
10
2.90798
20
-2.06514
11
2.90808
21
-2.06361
0
LINE
8
BLACK
6
CONTINUOUS
10
2.90808
20
-2.06361
11
2.90876
21
-2.06223
0
LINE
8
BLACK
6
CONTINUOUS
10
2.90876
20
-2.06223
11
2.90991
21
-2.06122
0
LINE
8
BLACK
6
CONTINUOUS
10
2.90991
20
-2.06122
11
2.91673
21
-2.05728
0
LINE
8
BLACK
6
CONTINUOUS
10
2.91673
20
-2.05728
11
2.91819
21
-2.05678
0
LINE
8
BLACK
6
CONTINUOUS
10
2.91819
20
-2.05678
11
2.91972
21
-2.05688
0
LINE
8
BLACK
6
CONTINUOUS
10
3.01009
20
-2.06543
11
2.99304
21
-2.07528
0
LINE
8
BLACK
6
CONTINUOUS
10
2.99304
20
-2.07528
11
2.9832
21
-2.05823
0
LINE
8
BLACK
6
CONTINUOUS
10
2.9832
20
-2.05823
11
3.00024
21
-2.04838
0
LINE
8
BLACK
6
CONTINUOUS
10
3.00024
20
-2.04838
11
3.01009
21
-2.06543
0
LINE
8
BLACK
6
CONTINUOUS
10
3.31602
20
-2.05823
11
3.30617
21
-2.07528
0
LINE
8
BLACK
6
CONTINUOUS
10
3.30617
20
-2.07528
11
3.28913
21
-2.06543
0
LINE
8
BLACK
6
CONTINUOUS
10
3.28913
20
-2.06543
11
3.29897
21
-2.04838
0
LINE
8
BLACK
6
CONTINUOUS
10
3.29897
20
-2.04838
11
3.31602
21
-2.05823
0
LINE
8
BLACK
6
CONTINUOUS
10
2.96168
20
-2.05246
11
2.94464
21
-2.06231
0
LINE
8
BLACK
6
CONTINUOUS
10
2.94464
20
-2.06231
11
2.93479
21
-2.04526
0
LINE
8
BLACK
6
CONTINUOUS
10
2.93479
20
-2.04526
11
2.95184
21
-2.03542
0
LINE
8
BLACK
6
CONTINUOUS
10
2.95184
20
-2.03542
11
2.96168
21
-2.05246
0
LINE
8
BLACK
6
CONTINUOUS
10
3.36442
20
-2.04526
11
3.35458
21
-2.06231
0
LINE
8
BLACK
6
CONTINUOUS
10
3.35458
20
-2.06231
11
3.33753
21
-2.05246
0
LINE
8
BLACK
6
CONTINUOUS
10
3.33753
20
-2.05246
11
3.34737
21
-2.03542
0
LINE
8
BLACK
6
CONTINUOUS
10
3.34737
20
-2.03542
11
3.36442
21
-2.04526
0
LINE
8
BLACK
6
CONTINUOUS
10
3.27438
20
-2.03192
11
3.2812
21
-2.03585
0
LINE
8
BLACK
6
CONTINUOUS
10
3.2812
20
-2.03585
11
3.28235
21
-2.03687
0
LINE
8
BLACK
6
CONTINUOUS
10
3.28235
20
-2.03687
11
3.28303
21
-2.03824
0
LINE
8
BLACK
6
CONTINUOUS
10
3.28303
20
-2.03824
11
3.28313
21
-2.03978
0
LINE
8
BLACK
6
CONTINUOUS
10
3.28313
20
-2.03978
11
3.28264
21
-2.04123
0
LINE
8
BLACK
6
CONTINUOUS
10
3.28264
20
-2.04123
11
3.27408
21
-2.05606
0
LINE
8
BLACK
6
CONTINUOUS
10
3.27408
20
-2.05606
11
3.27306
21
-2.05722
0
LINE
8
BLACK
6
CONTINUOUS
10
3.27306
20
-2.05722
11
3.27169
21
-2.0579
0
LINE
8
BLACK
6
CONTINUOUS
10
3.27169
20
-2.0579
11
3.27015
21
-2.058
0
LINE
8
BLACK
6
CONTINUOUS
10
3.27015
20
-2.058
11
3.2687
21
-2.0575
0
LINE
8
BLACK
6
CONTINUOUS
10
3.2687
20
-2.0575
11
3.26188
21
-2.05357
0
LINE
8
BLACK
6
CONTINUOUS
10
3.26188
20
-2.05357
11
3.26073
21
-2.05255
0
LINE
8
BLACK
6
CONTINUOUS
10
3.26073
20
-2.05255
11
3.26005
21
-2.05118
0
LINE
8
BLACK
6
CONTINUOUS
10
3.26005
20
-2.05118
11
3.25995
21
-2.04964
0
LINE
8
BLACK
6
CONTINUOUS
10
3.25995
20
-2.04964
11
3.26044
21
-2.04819
0
LINE
8
BLACK
6
CONTINUOUS
10
3.26044
20
-2.04819
11
3.269
21
-2.03336
0
LINE
8
BLACK
6
CONTINUOUS
10
3.269
20
-2.03336
11
3.27002
21
-2.0322
0
LINE
8
BLACK
6
CONTINUOUS
10
3.27002
20
-2.0322
11
3.27139
21
-2.03152
0
LINE
8
BLACK
6
CONTINUOUS
10
3.27139
20
-2.03152
11
3.27293
21
-2.03142
0
LINE
8
BLACK
6
CONTINUOUS
10
3.27293
20
-2.03142
11
3.27438
21
-2.03192
0
LINE
8
BLACK
6
CONTINUOUS
10
2.99237
20
-2.03475
11
2.97532
21
-2.04459
0
LINE
8
BLACK
6
CONTINUOUS
10
2.97532
20
-2.04459
11
2.96548
21
-2.02754
0
LINE
8
BLACK
6
CONTINUOUS
10
2.96548
20
-2.02754
11
2.98253
21
-2.0177
0
LINE
8
BLACK
6
CONTINUOUS
10
2.98253
20
-2.0177
11
2.99237
21
-2.03475
0
LINE
8
BLACK
6
CONTINUOUS
10
3.33373
20
-2.02754
11
3.32389
21
-2.04459
0
LINE
8
BLACK
6
CONTINUOUS
10
3.32389
20
-2.04459
11
3.30684
21
-2.03475
0
LINE
8
BLACK
6
CONTINUOUS
10
3.30684
20
-2.03475
11
3.31668
21
-2.0177
0
LINE
8
BLACK
6
CONTINUOUS
10
3.31668
20
-2.0177
11
3.33373
21
-2.02754
0
LINE
8
BLACK
6
CONTINUOUS
10
3.1019
20
-2.01408
11
3.10318
21
-2.01493
0
LINE
8
BLACK
6
CONTINUOUS
10
3.10318
20
-2.01493
11
3.10403
21
-2.01621
0
LINE
8
BLACK
6
CONTINUOUS
10
3.10403
20
-2.01621
11
3.10433
21
-2.01772
0
LINE
8
BLACK
6
CONTINUOUS
10
3.10433
20
-2.01772
11
3.10433
21
-2.03484
0
LINE
8
BLACK
6
CONTINUOUS
10
3.10433
20
-2.03484
11
3.10403
21
-2.03635
0
LINE
8
BLACK
6
CONTINUOUS
10
3.10403
20
-2.03635
11
3.10318
21
-2.03763
0
LINE
8
BLACK
6
CONTINUOUS
10
3.10318
20
-2.03763
11
3.1019
21
-2.03848
0
LINE
8
BLACK
6
CONTINUOUS
10
3.1019
20
-2.03848
11
3.10039
21
-2.03878
0
LINE
8
BLACK
6
CONTINUOUS
10
3.10039
20
-2.03878
11
3.09252
21
-2.03878
0
LINE
8
BLACK
6
CONTINUOUS
10
3.09252
20
-2.03878
11
3.09101
21
-2.03848
0
LINE
8
BLACK
6
CONTINUOUS
10
3.09101
20
-2.03848
11
3.08974
21
-2.03763
0
LINE
8
BLACK
6
CONTINUOUS
10
3.08974
20
-2.03763
11
3.08888
21
-2.03635
0
LINE
8
BLACK
6
CONTINUOUS
10
3.08888
20
-2.03635
11
3.08858
21
-2.03484
0
LINE
8
BLACK
6
CONTINUOUS
10
3.08858
20
-2.03484
11
3.08858
21
-2.01772
0
LINE
8
BLACK
6
CONTINUOUS
10
3.08858
20
-2.01772
11
3.08888
21
-2.01621
0
LINE
8
BLACK
6
CONTINUOUS
10
3.08888
20
-2.01621
11
3.08974
21
-2.01493
0
LINE
8
BLACK
6
CONTINUOUS
10
3.08974
20
-2.01493
11
3.09101
21
-2.01408
0
LINE
8
BLACK
6
CONTINUOUS
10
3.09101
20
-2.01408
11
3.09252
21
-2.01378
0
LINE
8
BLACK
6
CONTINUOUS
10
3.09252
20
-2.01378
11
3.10039
21
-2.01378
0
LINE
8
BLACK
6
CONTINUOUS
10
3.10039
20
-2.01378
11
3.1019
21
-2.01408
0
LINE
8
BLACK
6
CONTINUOUS
10
3.14173
20
-2.03543
11
3.12205
21
-2.03543
0
LINE
8
BLACK
6
CONTINUOUS
10
3.12205
20
-2.03543
11
3.12205
21
-2.01575
0
LINE
8
BLACK
6
CONTINUOUS
10
3.12205
20
-2.01575
11
3.14173
21
-2.01575
0
LINE
8
BLACK
6
CONTINUOUS
10
3.14173
20
-2.01575
11
3.14173
21
-2.03543
0
LINE
8
BLACK
6
CONTINUOUS
10
3.17717
20
-2.03543
11
3.15748
21
-2.03543
0
LINE
8
BLACK
6
CONTINUOUS
10
3.15748
20
-2.03543
11
3.15748
21
-2.01575
0
LINE
8
BLACK
6
CONTINUOUS
10
3.15748
20
-2.01575
11
3.17717
21
-2.01575
0
LINE
8
BLACK
6
CONTINUOUS
10
3.17717
20
-2.01575
11
3.17717
21
-2.03543
0
LINE
8
BLACK
6
CONTINUOUS
10
3.29042
20
-2.00413
11
3.29724
21
-2.00807
0
LINE
8
BLACK
6
CONTINUOUS
10
3.29724
20
-2.00807
11
3.2984
21
-2.00908
0
LINE
8
BLACK
6
CONTINUOUS
10
3.2984
20
-2.00908
11
3.29908
21
-2.01046
0
LINE
8
BLACK
6
CONTINUOUS
10
3.29908
20
-2.01046
11
3.29918
21
-2.01199
0
LINE
8
BLACK
6
CONTINUOUS
10
3.29918
20
-2.01199
11
3.29868
21
-2.01344
0
LINE
8
BLACK
6
CONTINUOUS
10
3.29868
20
-2.01344
11
3.29012
21
-2.02828
0
LINE
8
BLACK
6
CONTINUOUS
10
3.29012
20
-2.02828
11
3.28911
21
-2.02943
0
LINE
8
BLACK
6
CONTINUOUS
10
3.28911
20
-2.02943
11
3.28773
21
-2.03011
0
LINE
8
BLACK
6
CONTINUOUS
10
3.28773
20
-2.03011
11
3.2862
21
-2.03021
0
LINE
8
BLACK
6
CONTINUOUS
10
3.2862
20
-2.03021
11
3.28474
21
-2.02972
0
LINE
8
BLACK
6
CONTINUOUS
10
3.28474
20
-2.02972
11
3.27792
21
-2.02578
0
LINE
8
BLACK
6
CONTINUOUS
10
3.27792
20
-2.02578
11
3.27677
21
-2.02477
0
LINE
8
BLACK
6
CONTINUOUS
10
3.27677
20
-2.02477
11
3.27609
21
-2.02339
0
LINE
8
BLACK
6
CONTINUOUS
10
3.27609
20
-2.02339
11
3.27599
21
-2.02186
0
LINE
8
BLACK
6
CONTINUOUS
10
3.27599
20
-2.02186
11
3.27648
21
-2.0204
0
LINE
8
BLACK
6
CONTINUOUS
10
3.27648
20
-2.0204
11
3.28505
21
-2.00557
0
LINE
8
BLACK
6
CONTINUOUS
10
3.28505
20
-2.00557
11
3.28606
21
-2.00441
0
LINE
8
BLACK
6
CONTINUOUS
10
3.28606
20
-2.00441
11
3.28744
21
-2.00374
0
LINE
8
BLACK
6
CONTINUOUS
10
3.28744
20
-2.00374
11
3.28897
21
-2.00363
0
LINE
8
BLACK
6
CONTINUOUS
10
3.28897
20
-2.00363
11
3.29042
21
-2.00413
0
LINE
8
BLACK
6
CONTINUOUS
10
2.76776
20
-1.92685
11
2.77521
21
-1.92974
0
LINE
8
BLACK
6
CONTINUOUS
10
2.77521
20
-1.92974
11
2.782
21
-1.93394
0
LINE
8
BLACK
6
CONTINUOUS
10
2.782
20
-1.93394
11
2.78791
21
-1.93933
0
LINE
8
BLACK
6
CONTINUOUS
10
2.78791
20
-1.93933
11
2.79273
21
-1.94571
0
LINE
8
BLACK
6
CONTINUOUS
10
2.79273
20
-1.94571
11
2.79629
21
-1.95286
0
LINE
8
BLACK
6
CONTINUOUS
10
2.79629
20
-1.95286
11
2.79848
21
-1.96055
0
LINE
8
BLACK
6
CONTINUOUS
10
2.79848
20
-1.96055
11
2.79921
21
-1.9685
0
LINE
8
BLACK
6
CONTINUOUS
10
2.79921
20
-1.9685
11
2.79848
21
-1.97646
0
LINE
8
BLACK
6
CONTINUOUS
10
2.79848
20
-1.97646
11
2.79629
21
-1.98415
0
LINE
8
BLACK
6
CONTINUOUS
10
2.79629
20
-1.98415
11
2.79273
21
-1.9913
0
LINE
8
BLACK
6
CONTINUOUS
10
2.79273
20
-1.9913
11
2.78791
21
-1.99768
0
LINE
8
BLACK
6
CONTINUOUS
10
2.78791
20
-1.99768
11
2.782
21
-2.00306
0
LINE
8
BLACK
6
CONTINUOUS
10
2.782
20
-2.00306
11
2.77521
21
-2.00727
0
LINE
8
BLACK
6
CONTINUOUS
10
2.77521
20
-2.00727
11
2.76776
21
-2.01016
0
LINE
8
BLACK
6
CONTINUOUS
10
2.76776
20
-2.01016
11
2.7599
21
-2.01163
0
LINE
8
BLACK
6
CONTINUOUS
10
2.7599
20
-2.01163
11
2.75191
21
-2.01163
0
LINE
8
BLACK
6
CONTINUOUS
10
2.75191
20
-2.01163
11
2.74405
21
-2.01016
0
LINE
8
BLACK
6
CONTINUOUS
10
2.74405
20
-2.01016
11
2.7366
21
-2.00727
0
LINE
8
BLACK
6
CONTINUOUS
10
2.7366
20
-2.00727
11
2.72981
21
-2.00306
0
LINE
8
BLACK
6
CONTINUOUS
10
2.72981
20
-2.00306
11
2.7239
21
-1.99768
0
LINE
8
BLACK
6
CONTINUOUS
10
2.7239
20
-1.99768
11
2.71909
21
-1.9913
0
LINE
8
BLACK
6
CONTINUOUS
10
2.71909
20
-1.9913
11
2.71552
21
-1.98415
0
LINE
8
BLACK
6
CONTINUOUS
10
2.71552
20
-1.98415
11
2.71334
21
-1.97646
0
LINE
8
BLACK
6
CONTINUOUS
10
2.71334
20
-1.97646
11
2.7126
21
-1.9685
0
LINE
8
BLACK
6
CONTINUOUS
10
2.7126
20
-1.9685
11
2.71334
21
-1.96055
0
LINE
8
BLACK
6
CONTINUOUS
10
2.71334
20
-1.96055
11
2.71552
21
-1.95286
0
LINE
8
BLACK
6
CONTINUOUS
10
2.71552
20
-1.95286
11
2.71909
21
-1.94571
0
LINE
8
BLACK
6
CONTINUOUS
10
2.71909
20
-1.94571
11
2.7239
21
-1.93933
0
LINE
8
BLACK
6
CONTINUOUS
10
2.7239
20
-1.93933
11
2.72981
21
-1.93394
0
LINE
8
BLACK
6
CONTINUOUS
10
2.72981
20
-1.93394
11
2.7366
21
-1.92974
0
LINE
8
BLACK
6
CONTINUOUS
10
2.7366
20
-1.92974
11
2.74405
21
-1.92685
0
LINE
8
BLACK
6
CONTINUOUS
10
2.74405
20
-1.92685
11
2.75191
21
-1.92538
0
LINE
8
BLACK
6
CONTINUOUS
10
2.75191
20
-1.92538
11
2.7599
21
-1.92538
0
LINE
8
BLACK
6
CONTINUOUS
10
2.7599
20
-1.92538
11
2.76776
21
-1.92685
0
LINE
8
BLACK
6
CONTINUOUS
10
3.55516
20
-1.92685
11
3.56261
21
-1.92974
0
LINE
8
BLACK
6
CONTINUOUS
10
3.56261
20
-1.92974
11
3.56941
21
-1.93394
0
LINE
8
BLACK
6
CONTINUOUS
10
3.56941
20
-1.93394
11
3.57531
21
-1.93933
0
LINE
8
BLACK
6
CONTINUOUS
10
3.57531
20
-1.93933
11
3.58013
21
-1.94571
0
LINE
8
BLACK
6
CONTINUOUS
10
3.58013
20
-1.94571
11
3.58369
21
-1.95286
0
LINE
8
BLACK
6
CONTINUOUS
10
3.58369
20
-1.95286
11
3.58588
21
-1.96055
0
LINE
8
BLACK
6
CONTINUOUS
10
3.58588
20
-1.96055
11
3.58661
21
-1.9685
0
LINE
8
BLACK
6
CONTINUOUS
10
3.58661
20
-1.9685
11
3.58588
21
-1.97646
0
LINE
8
BLACK
6
CONTINUOUS
10
3.58588
20
-1.97646
11
3.58369
21
-1.98415
0
LINE
8
BLACK
6
CONTINUOUS
10
3.58369
20
-1.98415
11
3.58013
21
-1.9913
0
LINE
8
BLACK
6
CONTINUOUS
10
3.58013
20
-1.9913
11
3.57531
21
-1.99768
0
LINE
8
BLACK
6
CONTINUOUS
10
3.57531
20
-1.99768
11
3.56941
21
-2.00306
0
LINE
8
BLACK
6
CONTINUOUS
10
3.56941
20
-2.00306
11
3.56261
21
-2.00727
0
LINE
8
BLACK
6
CONTINUOUS
10
3.56261
20
-2.00727
11
3.55516
21
-2.01016
0
LINE
8
BLACK
6
CONTINUOUS
10
3.55516
20
-2.01016
11
3.5473
21
-2.01163
0
LINE
8
BLACK
6
CONTINUOUS
10
3.5473
20
-2.01163
11
3.53931
21
-2.01163
0
LINE
8
BLACK
6
CONTINUOUS
10
3.53931
20
-2.01163
11
3.53146
21
-2.01016
0
LINE
8
BLACK
6
CONTINUOUS
10
3.53146
20
-2.01016
11
3.524
21
-2.00727
0
LINE
8
BLACK
6
CONTINUOUS
10
3.524
20
-2.00727
11
3.51721
21
-2.00306
0
LINE
8
BLACK
6
CONTINUOUS
10
3.51721
20
-2.00306
11
3.5113
21
-1.99768
0
LINE
8
BLACK
6
CONTINUOUS
10
3.5113
20
-1.99768
11
3.50649
21
-1.9913
0
LINE
8
BLACK
6
CONTINUOUS
10
3.50649
20
-1.9913
11
3.50292
21
-1.98415
0
LINE
8
BLACK
6
CONTINUOUS
10
3.50292
20
-1.98415
11
3.50074
21
-1.97646
0
LINE
8
BLACK
6
CONTINUOUS
10
3.50074
20
-1.97646
11
3.5
21
-1.9685
0
LINE
8
BLACK
6
CONTINUOUS
10
3.5
20
-1.9685
11
3.50074
21
-1.96055
0
LINE
8
BLACK
6
CONTINUOUS
10
3.50074
20
-1.96055
11
3.50292
21
-1.95286
0
LINE
8
BLACK
6
CONTINUOUS
10
3.50292
20
-1.95286
11
3.50649
21
-1.94571
0
LINE
8
BLACK
6
CONTINUOUS
10
3.50649
20
-1.94571
11
3.5113
21
-1.93933
0
LINE
8
BLACK
6
CONTINUOUS
10
3.5113
20
-1.93933
11
3.51721
21
-1.93394
0
LINE
8
BLACK
6
CONTINUOUS
10
3.51721
20
-1.93394
11
3.524
21
-1.92974
0
LINE
8
BLACK
6
CONTINUOUS
10
3.524
20
-1.92974
11
3.53146
21
-1.92685
0
LINE
8
BLACK
6
CONTINUOUS
10
3.53146
20
-1.92685
11
3.53931
21
-1.92538
0
LINE
8
BLACK
6
CONTINUOUS
10
3.53931
20
-1.92538
11
3.5473
21
-1.92538
0
LINE
8
BLACK
6
CONTINUOUS
10
3.5473
20
-1.92538
11
3.55516
21
-1.92685
0
LINE
8
BLACK
6
CONTINUOUS
10
3.1019
20
-1.98199
11
3.10318
21
-1.98285
0
LINE
8
BLACK
6
CONTINUOUS
10
3.10318
20
-1.98285
11
3.10403
21
-1.98412
0
LINE
8
BLACK
6
CONTINUOUS
10
3.10403
20
-1.98412
11
3.10433
21
-1.98563
0
LINE
8
BLACK
6
CONTINUOUS
10
3.10433
20
-1.98563
11
3.10433
21
-2.00276
0
LINE
8
BLACK
6
CONTINUOUS
10
3.10433
20
-2.00276
11
3.10403
21
-2.00426
0
LINE
8
BLACK
6
CONTINUOUS
10
3.10403
20
-2.00426
11
3.10318
21
-2.00554
0
LINE
8
BLACK
6
CONTINUOUS
10
3.10318
20
-2.00554
11
3.1019
21
-2.00639
0
LINE
8
BLACK
6
CONTINUOUS
10
3.1019
20
-2.00639
11
3.10039
21
-2.00669
0
LINE
8
BLACK
6
CONTINUOUS
10
3.10039
20
-2.00669
11
3.09252
21
-2.00669
0
LINE
8
BLACK
6
CONTINUOUS
10
3.09252
20
-2.00669
11
3.09101
21
-2.00639
0
LINE
8
BLACK
6
CONTINUOUS
10
3.09101
20
-2.00639
11
3.08974
21
-2.00554
0
LINE
8
BLACK
6
CONTINUOUS
10
3.08974
20
-2.00554
11
3.08888
21
-2.00426
0
LINE
8
BLACK
6
CONTINUOUS
10
3.08888
20
-2.00426
11
3.08858
21
-2.00276
0
LINE
8
BLACK
6
CONTINUOUS
10
3.08858
20
-2.00276
11
3.08858
21
-1.98563
0
LINE
8
BLACK
6
CONTINUOUS
10
3.08858
20
-1.98563
11
3.08888
21
-1.98412
0
LINE
8
BLACK
6
CONTINUOUS
10
3.08888
20
-1.98412
11
3.08974
21
-1.98285
0
LINE
8
BLACK
6
CONTINUOUS
10
3.08974
20
-1.98285
11
3.09101
21
-1.98199
0
LINE
8
BLACK
6
CONTINUOUS
10
3.09101
20
-1.98199
11
3.09252
21
-1.98169
0
LINE
8
BLACK
6
CONTINUOUS
10
3.09252
20
-1.98169
11
3.10039
21
-1.98169
0
LINE
8
BLACK
6
CONTINUOUS
10
3.10039
20
-1.98169
11
3.1019
21
-1.98199
0
LINE
8
BLACK
6
CONTINUOUS
10
3.14173
20
-2
11
3.12205
21
-2
0
LINE
8
BLACK
6
CONTINUOUS
10
3.12205
20
-2
11
3.12205
21
-1.98031
0
LINE
8
BLACK
6
CONTINUOUS
10
3.12205
20
-1.98031
11
3.14173
21
-1.98031
0
LINE
8
BLACK
6
CONTINUOUS
10
3.14173
20
-1.98031
11
3.14173
21
-2
0
LINE
8
BLACK
6
CONTINUOUS
10
3.17717
20
-2
11
3.15748
21
-2
0
LINE
8
BLACK
6
CONTINUOUS
10
3.15748
20
-2
11
3.15748
21
-1.98031
0
LINE
8
BLACK
6
CONTINUOUS
10
3.15748
20
-1.98031
11
3.17717
21
-1.98031
0
LINE
8
BLACK
6
CONTINUOUS
10
3.17717
20
-1.98031
11
3.17717
21
-2
  0
ENDSEC
  0
EOF
