  0
SECTION
  2
HEADER
  9
$ANGBASE
  50
0.0
  9
$ANGDIR
  70
1
  9
$MEASUREMENT
  70
0
  0
ENDSEC
  0
SECTION
  2
TABLES
  0
TABLE
  2
LTYPE
  70
4
  0
LTYPE
  5
40F
  2
CONTINUOUS
  70
0
  3
Solid line
  72
65
  73
0
  40
0.0
  0
LTYPE
  5
410
  2
DASHDOT
 70
0
  3
Dash Dot ____ _ ____ _
 72
65
 73
4
 40
2.0
 49
1.25
 49
-0.25
 49
0.25
 49
-0.25
  0
LTYPE
  5
411
  2
DASHED
 70
0
  3
Dashed __ __ __ __ __
 72
65
 73
2
 40
0.75
 49
0.5
 49
-0.25
  0
LTYPE
  5
43B
  2
DOTTED
 70
0
  3
Dotted .  .  .  .
 72
65
 73
2
 40
0.2
 49
0.0
 49
-0.2
  0
ENDTAB
  0
TABLE
  2
STYLE
  70
4
  0
STYLE
  2
KICAD
  70
0
  40
0
  41
1
  42
1
  50
0
  71
0
  3
isocp.shx
  0
STYLE
  2
KICADB
  70
0
  40
0
  41
1
  42
1
  50
0
  71
0
  3
isocp.shx
  0
STYLE
  2
KICADI
  70
0
  40
0
  41
1
  42
1
  50
15
  71
0
  3
isocp.shx
  0
STYLE
  2
KICADBI
  70
0
  40
0
  41
1
  42
1
  50
15
  71
0
  3
isocp.shx
  0
ENDTAB
  0
TABLE
  2
LAYER
  70
1
  0
LAYER
  2
BLACK
  70
0
  62
7
  6
CONTINUOUS
  0
ENDTAB
  0
ENDSEC
  0
SECTION
  2
ENTITIES
0
LINE
8
BLACK
6
CONTINUOUS
10
2.77416
20
-2.66019
11
2.78602
21
-2.66323
0
LINE
8
BLACK
6
CONTINUOUS
10
2.78602
20
-2.66323
11
2.79739
21
-2.66774
0
LINE
8
BLACK
6
CONTINUOUS
10
2.79739
20
-2.66774
11
2.80812
21
-2.67363
0
LINE
8
BLACK
6
CONTINUOUS
10
2.80812
20
-2.67363
11
2.81802
21
-2.68083
0
LINE
8
BLACK
6
CONTINUOUS
10
2.81802
20
-2.68083
11
2.82694
21
-2.6892
0
LINE
8
BLACK
6
CONTINUOUS
10
2.82694
20
-2.6892
11
2.83474
21
-2.69863
0
LINE
8
BLACK
6
CONTINUOUS
10
2.83474
20
-2.69863
11
2.84129
21
-2.70896
0
LINE
8
BLACK
6
CONTINUOUS
10
2.84129
20
-2.70896
11
2.8465
21
-2.72004
0
LINE
8
BLACK
6
CONTINUOUS
10
2.8465
20
-2.72004
11
2.85029
21
-2.73167
0
LINE
8
BLACK
6
CONTINUOUS
10
2.85029
20
-2.73167
11
2.85258
21
-2.74369
0
LINE
8
BLACK
6
CONTINUOUS
10
2.85258
20
-2.74369
11
2.85335
21
-2.75591
0
LINE
8
BLACK
6
CONTINUOUS
10
2.85335
20
-2.75591
11
2.85258
21
-2.76812
0
LINE
8
BLACK
6
CONTINUOUS
10
2.85258
20
-2.76812
11
2.85029
21
-2.78014
0
LINE
8
BLACK
6
CONTINUOUS
10
2.85029
20
-2.78014
11
2.8465
21
-2.79178
0
LINE
8
BLACK
6
CONTINUOUS
10
2.8465
20
-2.79178
11
2.84129
21
-2.80285
0
LINE
8
BLACK
6
CONTINUOUS
10
2.84129
20
-2.80285
11
2.83474
21
-2.81318
0
LINE
8
BLACK
6
CONTINUOUS
10
2.83474
20
-2.81318
11
2.82694
21
-2.82261
0
LINE
8
BLACK
6
CONTINUOUS
10
2.82694
20
-2.82261
11
2.81802
21
-2.83099
0
LINE
8
BLACK
6
CONTINUOUS
10
2.81802
20
-2.83099
11
2.80812
21
-2.83818
0
LINE
8
BLACK
6
CONTINUOUS
10
2.80812
20
-2.83818
11
2.79739
21
-2.84407
0
LINE
8
BLACK
6
CONTINUOUS
10
2.79739
20
-2.84407
11
2.78602
21
-2.84858
0
LINE
8
BLACK
6
CONTINUOUS
10
2.78602
20
-2.84858
11
2.77416
21
-2.85162
0
LINE
8
BLACK
6
CONTINUOUS
10
2.77416
20
-2.85162
11
2.76202
21
-2.85315
0
LINE
8
BLACK
6
CONTINUOUS
10
2.76202
20
-2.85315
11
2.74979
21
-2.85315
0
LINE
8
BLACK
6
CONTINUOUS
10
2.74979
20
-2.85315
11
2.73765
21
-2.85162
0
LINE
8
BLACK
6
CONTINUOUS
10
2.73765
20
-2.85162
11
2.72579
21
-2.84858
0
LINE
8
BLACK
6
CONTINUOUS
10
2.72579
20
-2.84858
11
2.71442
21
-2.84407
0
LINE
8
BLACK
6
CONTINUOUS
10
2.71442
20
-2.84407
11
2.70369
21
-2.83818
0
LINE
8
BLACK
6
CONTINUOUS
10
2.70369
20
-2.83818
11
2.69379
21
-2.83099
0
LINE
8
BLACK
6
CONTINUOUS
10
2.69379
20
-2.83099
11
2.68487
21
-2.82261
0
LINE
8
BLACK
6
CONTINUOUS
10
2.68487
20
-2.82261
11
2.67707
21
-2.81318
0
LINE
8
BLACK
6
CONTINUOUS
10
2.67707
20
-2.81318
11
2.67052
21
-2.80285
0
LINE
8
BLACK
6
CONTINUOUS
10
2.67052
20
-2.80285
11
2.66531
21
-2.79178
0
LINE
8
BLACK
6
CONTINUOUS
10
2.66531
20
-2.79178
11
2.66153
21
-2.78014
0
LINE
8
BLACK
6
CONTINUOUS
10
2.66153
20
-2.78014
11
2.65923
21
-2.76812
0
LINE
8
BLACK
6
CONTINUOUS
10
2.65923
20
-2.76812
11
2.65846
21
-2.75591
0
LINE
8
BLACK
6
CONTINUOUS
10
2.65846
20
-2.75591
11
2.65923
21
-2.74369
0
LINE
8
BLACK
6
CONTINUOUS
10
2.65923
20
-2.74369
11
2.66153
21
-2.73167
0
LINE
8
BLACK
6
CONTINUOUS
10
2.66153
20
-2.73167
11
2.66531
21
-2.72004
0
LINE
8
BLACK
6
CONTINUOUS
10
2.66531
20
-2.72004
11
2.67052
21
-2.70896
0
LINE
8
BLACK
6
CONTINUOUS
10
2.67052
20
-2.70896
11
2.67707
21
-2.69863
0
LINE
8
BLACK
6
CONTINUOUS
10
2.67707
20
-2.69863
11
2.68487
21
-2.6892
0
LINE
8
BLACK
6
CONTINUOUS
10
2.68487
20
-2.6892
11
2.69379
21
-2.68083
0
LINE
8
BLACK
6
CONTINUOUS
10
2.69379
20
-2.68083
11
2.70369
21
-2.67363
0
LINE
8
BLACK
6
CONTINUOUS
10
2.70369
20
-2.67363
11
2.71442
21
-2.66774
0
LINE
8
BLACK
6
CONTINUOUS
10
2.71442
20
-2.66774
11
2.72579
21
-2.66323
0
LINE
8
BLACK
6
CONTINUOUS
10
2.72579
20
-2.66323
11
2.73765
21
-2.66019
0
LINE
8
BLACK
6
CONTINUOUS
10
2.73765
20
-2.66019
11
2.74979
21
-2.65866
0
LINE
8
BLACK
6
CONTINUOUS
10
2.74979
20
-2.65866
11
2.76202
21
-2.65866
0
LINE
8
BLACK
6
CONTINUOUS
10
2.76202
20
-2.65866
11
2.77416
21
-2.66019
0
LINE
8
BLACK
6
CONTINUOUS
10
2.661
20
-2.7679
11
2.66325
21
-2.7797
0
LINE
8
BLACK
6
CONTINUOUS
10
2.66325
20
-2.7797
11
2.66696
21
-2.79112
0
LINE
8
BLACK
6
CONTINUOUS
10
2.66696
20
-2.79112
11
2.67208
21
-2.80199
0
LINE
8
BLACK
6
CONTINUOUS
10
2.67208
20
-2.80199
11
2.67851
21
-2.81213
0
LINE
8
BLACK
6
CONTINUOUS
10
2.67851
20
-2.81213
11
2.68617
21
-2.82139
0
LINE
8
BLACK
6
CONTINUOUS
10
2.68617
20
-2.82139
11
2.69493
21
-2.82961
0
LINE
8
BLACK
6
CONTINUOUS
10
2.69493
20
-2.82961
11
2.70465
21
-2.83667
0
LINE
8
BLACK
6
CONTINUOUS
10
2.70465
20
-2.83667
11
2.71517
21
-2.84246
0
LINE
8
BLACK
6
CONTINUOUS
10
2.71517
20
-2.84246
11
2.72634
21
-2.84688
0
LINE
8
BLACK
6
CONTINUOUS
10
2.72634
20
-2.84688
11
2.73798
21
-2.84987
0
LINE
8
BLACK
6
CONTINUOUS
10
2.73798
20
-2.84987
11
2.7499
21
-2.85138
0
LINE
8
BLACK
6
CONTINUOUS
10
2.7499
20
-2.85138
11
2.76191
21
-2.85138
0
LINE
8
BLACK
6
CONTINUOUS
10
2.76191
20
-2.85138
11
2.77383
21
-2.84987
0
LINE
8
BLACK
6
CONTINUOUS
10
2.77383
20
-2.84987
11
2.78547
21
-2.84688
0
LINE
8
BLACK
6
CONTINUOUS
10
2.78547
20
-2.84688
11
2.79664
21
-2.84246
0
LINE
8
BLACK
6
CONTINUOUS
10
2.79664
20
-2.84246
11
2.80716
21
-2.83667
0
LINE
8
BLACK
6
CONTINUOUS
10
2.80716
20
-2.83667
11
2.81688
21
-2.82961
0
LINE
8
BLACK
6
CONTINUOUS
10
2.81688
20
-2.82961
11
2.82564
21
-2.82139
0
LINE
8
BLACK
6
CONTINUOUS
10
2.82564
20
-2.82139
11
2.8333
21
-2.81213
0
LINE
8
BLACK
6
CONTINUOUS
10
2.8333
20
-2.81213
11
2.83973
21
-2.80199
0
LINE
8
BLACK
6
CONTINUOUS
10
2.83973
20
-2.80199
11
2.84485
21
-2.79112
0
LINE
8
BLACK
6
CONTINUOUS
10
2.84485
20
-2.79112
11
2.84856
21
-2.7797
0
LINE
8
BLACK
6
CONTINUOUS
10
2.84856
20
-2.7797
11
2.85081
21
-2.7679
0
LINE
8
BLACK
6
CONTINUOUS
10
2.85081
20
-2.7679
11
2.85157
21
-2.75591
0
LINE
8
BLACK
6
CONTINUOUS
10
2.85157
20
-2.75591
11
2.85081
21
-2.74392
0
LINE
8
BLACK
6
CONTINUOUS
10
2.85081
20
-2.74392
11
2.84856
21
-2.73212
0
LINE
8
BLACK
6
CONTINUOUS
10
2.84856
20
-2.73212
11
2.84485
21
-2.72069
0
LINE
8
BLACK
6
CONTINUOUS
10
2.84485
20
-2.72069
11
2.83973
21
-2.70982
0
LINE
8
BLACK
6
CONTINUOUS
10
2.83973
20
-2.70982
11
2.8333
21
-2.69968
0
LINE
8
BLACK
6
CONTINUOUS
10
2.8333
20
-2.69968
11
2.82564
21
-2.69042
0
LINE
8
BLACK
6
CONTINUOUS
10
2.82564
20
-2.69042
11
2.81688
21
-2.6822
0
LINE
8
BLACK
6
CONTINUOUS
10
2.81688
20
-2.6822
11
2.80716
21
-2.67514
0
LINE
8
BLACK
6
CONTINUOUS
10
2.80716
20
-2.67514
11
2.79664
21
-2.66935
0
LINE
8
BLACK
6
CONTINUOUS
10
2.79664
20
-2.66935
11
2.78547
21
-2.66493
0
LINE
8
BLACK
6
CONTINUOUS
10
2.78547
20
-2.66493
11
2.77383
21
-2.66194
0
LINE
8
BLACK
6
CONTINUOUS
10
2.77383
20
-2.66194
11
2.76191
21
-2.66043
0
LINE
8
BLACK
6
CONTINUOUS
10
2.76191
20
-2.66043
11
2.7499
21
-2.66043
0
LINE
8
BLACK
6
CONTINUOUS
10
2.7499
20
-2.66043
11
2.73798
21
-2.66194
0
LINE
8
BLACK
6
CONTINUOUS
10
2.73798
20
-2.66194
11
2.72634
21
-2.66493
0
LINE
8
BLACK
6
CONTINUOUS
10
2.72634
20
-2.66493
11
2.71517
21
-2.66935
0
LINE
8
BLACK
6
CONTINUOUS
10
2.71517
20
-2.66935
11
2.70465
21
-2.67514
0
LINE
8
BLACK
6
CONTINUOUS
10
2.70465
20
-2.67514
11
2.69493
21
-2.6822
0
LINE
8
BLACK
6
CONTINUOUS
10
2.69493
20
-2.6822
11
2.68617
21
-2.69042
0
LINE
8
BLACK
6
CONTINUOUS
10
2.68617
20
-2.69042
11
2.67851
21
-2.69968
0
LINE
8
BLACK
6
CONTINUOUS
10
2.67851
20
-2.69968
11
2.67208
21
-2.70982
0
LINE
8
BLACK
6
CONTINUOUS
10
2.67208
20
-2.70982
11
2.66696
21
-2.72069
0
LINE
8
BLACK
6
CONTINUOUS
10
2.66696
20
-2.72069
11
2.66325
21
-2.73212
0
LINE
8
BLACK
6
CONTINUOUS
10
2.66325
20
-2.73212
11
2.661
21
-2.74392
0
LINE
8
BLACK
6
CONTINUOUS
10
2.661
20
-2.74392
11
2.66024
21
-2.75591
0
LINE
8
BLACK
6
CONTINUOUS
10
2.66024
20
-2.75591
11
2.661
21
-2.7679
0
LINE
8
BLACK
6
CONTINUOUS
10
3.18898
20
-2.67618
11
3.18967
21
-2.67647
0
LINE
8
BLACK
6
CONTINUOUS
10
3.18967
20
-2.67647
11
3.18996
21
-2.67717
0
LINE
8
BLACK
6
CONTINUOUS
10
3.18996
20
-2.67717
11
3.18996
21
-2.67854
0
LINE
8
BLACK
6
CONTINUOUS
10
3.18996
20
-2.67854
11
3.21654
21
-2.67854
0
LINE
8
BLACK
6
CONTINUOUS
10
3.21654
20
-2.67854
11
3.21723
21
-2.67883
0
LINE
8
BLACK
6
CONTINUOUS
10
3.21723
20
-2.67883
11
3.21752
21
-2.67953
0
LINE
8
BLACK
6
CONTINUOUS
10
3.21752
20
-2.67953
11
3.21752
21
-2.74882
0
LINE
8
BLACK
6
CONTINUOUS
10
3.21752
20
-2.74882
11
3.21723
21
-2.74951
0
LINE
8
BLACK
6
CONTINUOUS
10
3.21723
20
-2.74951
11
3.21654
21
-2.7498
0
LINE
8
BLACK
6
CONTINUOUS
10
3.21654
20
-2.7498
11
3.18996
21
-2.7498
0
LINE
8
BLACK
6
CONTINUOUS
10
3.18996
20
-2.7498
11
3.18996
21
-2.75591
0
LINE
8
BLACK
6
CONTINUOUS
10
3.18996
20
-2.75591
11
3.18967
21
-2.7566
0
LINE
8
BLACK
6
CONTINUOUS
10
3.18967
20
-2.7566
11
3.18898
21
-2.75689
0
LINE
8
BLACK
6
CONTINUOUS
10
3.18898
20
-2.75689
11
3.11024
21
-2.75689
0
LINE
8
BLACK
6
CONTINUOUS
10
3.11024
20
-2.75689
11
3.10954
21
-2.7566
0
LINE
8
BLACK
6
CONTINUOUS
10
3.10954
20
-2.7566
11
3.10925
21
-2.75591
0
LINE
8
BLACK
6
CONTINUOUS
10
3.10925
20
-2.75591
11
3.10925
21
-2.67717
0
LINE
8
BLACK
6
CONTINUOUS
10
3.10925
20
-2.67717
11
3.10954
21
-2.67647
0
LINE
8
BLACK
6
CONTINUOUS
10
3.10954
20
-2.67647
11
3.11024
21
-2.67618
0
LINE
8
BLACK
6
CONTINUOUS
10
3.11024
20
-2.67618
11
3.18898
21
-2.67618
0
LINE
8
BLACK
6
CONTINUOUS
10
3.11122
20
-2.67815
11
3.11122
21
-2.75492
0
LINE
8
BLACK
6
CONTINUOUS
10
3.11122
20
-2.75492
11
3.18799
21
-2.75492
0
LINE
8
BLACK
6
CONTINUOUS
10
3.18799
20
-2.75492
11
3.18799
21
-2.67815
0
LINE
8
BLACK
6
CONTINUOUS
10
3.18799
20
-2.67815
11
3.11122
21
-2.67815
0
LINE
8
BLACK
6
CONTINUOUS
10
3.18996
20
-2.68051
11
3.18996
21
-2.74783
0
LINE
8
BLACK
6
CONTINUOUS
10
3.18996
20
-2.74783
11
3.21555
21
-2.74783
0
LINE
8
BLACK
6
CONTINUOUS
10
3.21555
20
-2.74783
11
3.21555
21
-2.68051
0
LINE
8
BLACK
6
CONTINUOUS
10
3.21555
20
-2.68051
11
3.18996
21
-2.68051
0
LINE
8
BLACK
6
CONTINUOUS
10
2.95852
20
-2.61443
11
3.02671
21
-2.6538
0
LINE
8
BLACK
6
CONTINUOUS
10
3.02671
20
-2.6538
11
3.02717
21
-2.6544
0
LINE
8
BLACK
6
CONTINUOUS
10
3.02717
20
-2.6544
11
3.02717
21
-2.6544
0
LINE
8
BLACK
6
CONTINUOUS
10
3.02717
20
-2.6544
11
3.02717
21
-2.6544
0
LINE
8
BLACK
6
CONTINUOUS
10
3.02717
20
-2.6544
11
3.02707
21
-2.65515
0
LINE
8
BLACK
6
CONTINUOUS
10
3.02707
20
-2.65515
11
3.02638
21
-2.65634
0
LINE
8
BLACK
6
CONTINUOUS
10
3.02638
20
-2.65634
11
3.0494
21
-2.66963
0
LINE
8
BLACK
6
CONTINUOUS
10
3.0494
20
-2.66963
11
3.04986
21
-2.67022
0
LINE
8
BLACK
6
CONTINUOUS
10
3.04986
20
-2.67022
11
3.04986
21
-2.67022
0
LINE
8
BLACK
6
CONTINUOUS
10
3.04986
20
-2.67022
11
3.04986
21
-2.67022
0
LINE
8
BLACK
6
CONTINUOUS
10
3.04986
20
-2.67022
11
3.04976
21
-2.67097
0
LINE
8
BLACK
6
CONTINUOUS
10
3.04976
20
-2.67097
11
3.01511
21
-2.73098
0
LINE
8
BLACK
6
CONTINUOUS
10
3.01511
20
-2.73098
11
3.01452
21
-2.73144
0
LINE
8
BLACK
6
CONTINUOUS
10
3.01452
20
-2.73144
11
3.01452
21
-2.73144
0
LINE
8
BLACK
6
CONTINUOUS
10
3.01452
20
-2.73144
11
3.01452
21
-2.73144
0
LINE
8
BLACK
6
CONTINUOUS
10
3.01452
20
-2.73144
11
3.01377
21
-2.73134
0
LINE
8
BLACK
6
CONTINUOUS
10
3.01377
20
-2.73134
11
2.99075
21
-2.71805
0
LINE
8
BLACK
6
CONTINUOUS
10
2.99075
20
-2.71805
11
2.9877
21
-2.72334
0
LINE
8
BLACK
6
CONTINUOUS
10
2.9877
20
-2.72334
11
2.98711
21
-2.7238
0
LINE
8
BLACK
6
CONTINUOUS
10
2.98711
20
-2.7238
11
2.98636
21
-2.7237
0
LINE
8
BLACK
6
CONTINUOUS
10
2.98636
20
-2.7237
11
2.98636
21
-2.7237
0
LINE
8
BLACK
6
CONTINUOUS
10
2.98636
20
-2.7237
11
2.91817
21
-2.68433
0
LINE
8
BLACK
6
CONTINUOUS
10
2.91817
20
-2.68433
11
2.91771
21
-2.68373
0
LINE
8
BLACK
6
CONTINUOUS
10
2.91771
20
-2.68373
11
2.91781
21
-2.68298
0
LINE
8
BLACK
6
CONTINUOUS
10
2.91781
20
-2.68298
11
2.95718
21
-2.61479
0
LINE
8
BLACK
6
CONTINUOUS
10
2.95718
20
-2.61479
11
2.95778
21
-2.61433
0
LINE
8
BLACK
6
CONTINUOUS
10
2.95778
20
-2.61433
11
2.95852
21
-2.61443
0
LINE
8
BLACK
6
CONTINUOUS
10
2.99174
20
-2.71635
11
3.0139
21
-2.72914
0
LINE
8
BLACK
6
CONTINUOUS
10
3.0139
20
-2.72914
11
3.04756
21
-2.67084
0
LINE
8
BLACK
6
CONTINUOUS
10
3.04756
20
-2.67084
11
3.0254
21
-2.65804
0
LINE
8
BLACK
6
CONTINUOUS
10
3.0254
20
-2.65804
11
2.99174
21
-2.71635
0
LINE
8
BLACK
6
CONTINUOUS
10
2.92
20
-2.68311
11
2.98649
21
-2.7215
0
LINE
8
BLACK
6
CONTINUOUS
10
2.98649
20
-2.7215
11
2.98975
21
-2.71586
0
LINE
8
BLACK
6
CONTINUOUS
10
2.98975
20
-2.71586
11
3.02419
21
-2.65621
0
LINE
8
BLACK
6
CONTINUOUS
10
3.02419
20
-2.65621
11
3.02419
21
-2.65621
0
LINE
8
BLACK
6
CONTINUOUS
10
3.02419
20
-2.65621
11
3.02488
21
-2.65501
0
LINE
8
BLACK
6
CONTINUOUS
10
3.02488
20
-2.65501
11
2.95839
21
-2.61663
0
LINE
8
BLACK
6
CONTINUOUS
10
2.95839
20
-2.61663
11
2.92
21
-2.68311
0
LINE
8
BLACK
6
CONTINUOUS
10
3.36708
20
-2.60306
11
3.40173
21
-2.66307
0
LINE
8
BLACK
6
CONTINUOUS
10
3.40173
20
-2.66307
11
3.40183
21
-2.66381
0
LINE
8
BLACK
6
CONTINUOUS
10
3.40183
20
-2.66381
11
3.40137
21
-2.66441
0
LINE
8
BLACK
6
CONTINUOUS
10
3.40137
20
-2.66441
11
3.37835
21
-2.6777
0
LINE
8
BLACK
6
CONTINUOUS
10
3.37835
20
-2.6777
11
3.3814
21
-2.68298
0
LINE
8
BLACK
6
CONTINUOUS
10
3.3814
20
-2.68298
11
3.3815
21
-2.68373
0
LINE
8
BLACK
6
CONTINUOUS
10
3.3815
20
-2.68373
11
3.38104
21
-2.68433
0
LINE
8
BLACK
6
CONTINUOUS
10
3.38104
20
-2.68433
11
3.31285
21
-2.7237
0
LINE
8
BLACK
6
CONTINUOUS
10
3.31285
20
-2.7237
11
3.31211
21
-2.7238
0
LINE
8
BLACK
6
CONTINUOUS
10
3.31211
20
-2.7238
11
3.31151
21
-2.72334
0
LINE
8
BLACK
6
CONTINUOUS
10
3.31151
20
-2.72334
11
3.31151
21
-2.72334
0
LINE
8
BLACK
6
CONTINUOUS
10
3.31151
20
-2.72334
11
3.27214
21
-2.65515
0
LINE
8
BLACK
6
CONTINUOUS
10
3.27214
20
-2.65515
11
3.27204
21
-2.6544
0
LINE
8
BLACK
6
CONTINUOUS
10
3.27204
20
-2.6544
11
3.2725
21
-2.6538
0
LINE
8
BLACK
6
CONTINUOUS
10
3.2725
20
-2.6538
11
3.34069
21
-2.61443
0
LINE
8
BLACK
6
CONTINUOUS
10
3.34069
20
-2.61443
11
3.34069
21
-2.61443
0
LINE
8
BLACK
6
CONTINUOUS
10
3.34069
20
-2.61443
11
3.34144
21
-2.61433
0
LINE
8
BLACK
6
CONTINUOUS
10
3.34144
20
-2.61433
11
3.34203
21
-2.61479
0
LINE
8
BLACK
6
CONTINUOUS
10
3.34203
20
-2.61479
11
3.34272
21
-2.61598
0
LINE
8
BLACK
6
CONTINUOUS
10
3.34272
20
-2.61598
11
3.36574
21
-2.6027
0
LINE
8
BLACK
6
CONTINUOUS
10
3.36574
20
-2.6027
11
3.36648
21
-2.6026
0
LINE
8
BLACK
6
CONTINUOUS
10
3.36648
20
-2.6026
11
3.36648
21
-2.6026
0
LINE
8
BLACK
6
CONTINUOUS
10
3.36648
20
-2.6026
11
3.36708
21
-2.60306
0
LINE
8
BLACK
6
CONTINUOUS
10
3.27434
20
-2.65501
11
3.31272
21
-2.7215
0
LINE
8
BLACK
6
CONTINUOUS
10
3.31272
20
-2.7215
11
3.37921
21
-2.68311
0
LINE
8
BLACK
6
CONTINUOUS
10
3.37921
20
-2.68311
11
3.34082
21
-2.61663
0
LINE
8
BLACK
6
CONTINUOUS
10
3.34082
20
-2.61663
11
3.27434
21
-2.65501
0
LINE
8
BLACK
6
CONTINUOUS
10
3.34371
20
-2.61769
11
3.37737
21
-2.67599
0
LINE
8
BLACK
6
CONTINUOUS
10
3.37737
20
-2.67599
11
3.39953
21
-2.6632
0
LINE
8
BLACK
6
CONTINUOUS
10
3.39953
20
-2.6632
11
3.36587
21
-2.60489
0
LINE
8
BLACK
6
CONTINUOUS
10
3.36587
20
-2.60489
11
3.34371
21
-2.61769
0
LINE
8
BLACK
6
CONTINUOUS
10
2.85801
20
-2.4851
11
2.89738
21
-2.55329
0
LINE
8
BLACK
6
CONTINUOUS
10
2.89738
20
-2.55329
11
2.89747
21
-2.55401
0
LINE
8
BLACK
6
CONTINUOUS
10
2.89747
20
-2.55401
11
2.89748
21
-2.55404
0
LINE
8
BLACK
6
CONTINUOUS
10
2.89748
20
-2.55404
11
2.89702
21
-2.55463
0
LINE
8
BLACK
6
CONTINUOUS
10
2.89702
20
-2.55463
11
2.89583
21
-2.55532
0
LINE
8
BLACK
6
CONTINUOUS
10
2.89583
20
-2.55532
11
2.90911
21
-2.57834
0
LINE
8
BLACK
6
CONTINUOUS
10
2.90911
20
-2.57834
11
2.90921
21
-2.57908
0
LINE
8
BLACK
6
CONTINUOUS
10
2.90921
20
-2.57908
11
2.90921
21
-2.57908
0
LINE
8
BLACK
6
CONTINUOUS
10
2.90921
20
-2.57908
11
2.90875
21
-2.57968
0
LINE
8
BLACK
6
CONTINUOUS
10
2.90875
20
-2.57968
11
2.84875
21
-2.61433
0
LINE
8
BLACK
6
CONTINUOUS
10
2.84875
20
-2.61433
11
2.848
21
-2.61442
0
LINE
8
BLACK
6
CONTINUOUS
10
2.848
20
-2.61442
11
2.8474
21
-2.61397
0
LINE
8
BLACK
6
CONTINUOUS
10
2.8474
20
-2.61397
11
2.83411
21
-2.59095
0
LINE
8
BLACK
6
CONTINUOUS
10
2.83411
20
-2.59095
11
2.82883
21
-2.594
0
LINE
8
BLACK
6
CONTINUOUS
10
2.82883
20
-2.594
11
2.82808
21
-2.5941
0
LINE
8
BLACK
6
CONTINUOUS
10
2.82808
20
-2.5941
11
2.82748
21
-2.59364
0
LINE
8
BLACK
6
CONTINUOUS
10
2.82748
20
-2.59364
11
2.78811
21
-2.52545
0
LINE
8
BLACK
6
CONTINUOUS
10
2.78811
20
-2.52545
11
2.78802
21
-2.5247
0
LINE
8
BLACK
6
CONTINUOUS
10
2.78802
20
-2.5247
11
2.78847
21
-2.52411
0
LINE
8
BLACK
6
CONTINUOUS
10
2.78847
20
-2.52411
11
2.85667
21
-2.48474
0
LINE
8
BLACK
6
CONTINUOUS
10
2.85667
20
-2.48474
11
2.85667
21
-2.48474
0
LINE
8
BLACK
6
CONTINUOUS
10
2.85667
20
-2.48474
11
2.85741
21
-2.48464
0
LINE
8
BLACK
6
CONTINUOUS
10
2.85741
20
-2.48464
11
2.85801
21
-2.4851
0
LINE
8
BLACK
6
CONTINUOUS
10
2.83582
20
-2.58997
11
2.84861
21
-2.61213
0
LINE
8
BLACK
6
CONTINUOUS
10
2.84861
20
-2.61213
11
2.90692
21
-2.57847
0
LINE
8
BLACK
6
CONTINUOUS
10
2.90692
20
-2.57847
11
2.89412
21
-2.55631
0
LINE
8
BLACK
6
CONTINUOUS
10
2.89412
20
-2.55631
11
2.83582
21
-2.58997
0
LINE
8
BLACK
6
CONTINUOUS
10
2.79031
20
-2.52532
11
2.8287
21
-2.59181
0
LINE
8
BLACK
6
CONTINUOUS
10
2.8287
20
-2.59181
11
2.89399
21
-2.55411
0
LINE
8
BLACK
6
CONTINUOUS
10
2.89399
20
-2.55411
11
2.89399
21
-2.55411
0
LINE
8
BLACK
6
CONTINUOUS
10
2.89399
20
-2.55411
11
2.89399
21
-2.55411
0
LINE
8
BLACK
6
CONTINUOUS
10
2.89399
20
-2.55411
11
2.89518
21
-2.55342
0
LINE
8
BLACK
6
CONTINUOUS
10
2.89518
20
-2.55342
11
2.8568
21
-2.48693
0
LINE
8
BLACK
6
CONTINUOUS
10
2.8568
20
-2.48693
11
2.79031
21
-2.52532
0
LINE
8
BLACK
6
CONTINUOUS
10
3.45837
20
-2.46205
11
3.51838
21
-2.4967
0
LINE
8
BLACK
6
CONTINUOUS
10
3.51838
20
-2.4967
11
3.51866
21
-2.49706
0
LINE
8
BLACK
6
CONTINUOUS
10
3.51866
20
-2.49706
11
3.51884
21
-2.49729
0
LINE
8
BLACK
6
CONTINUOUS
10
3.51884
20
-2.49729
11
3.51874
21
-2.49804
0
LINE
8
BLACK
6
CONTINUOUS
10
3.51874
20
-2.49804
11
3.50545
21
-2.52106
0
LINE
8
BLACK
6
CONTINUOUS
10
3.50545
20
-2.52106
11
3.51074
21
-2.52411
0
LINE
8
BLACK
6
CONTINUOUS
10
3.51074
20
-2.52411
11
3.5112
21
-2.5247
0
LINE
8
BLACK
6
CONTINUOUS
10
3.5112
20
-2.5247
11
3.5112
21
-2.5247
0
LINE
8
BLACK
6
CONTINUOUS
10
3.5112
20
-2.5247
11
3.5112
21
-2.5247
0
LINE
8
BLACK
6
CONTINUOUS
10
3.5112
20
-2.5247
11
3.5111
21
-2.52545
0
LINE
8
BLACK
6
CONTINUOUS
10
3.5111
20
-2.52545
11
3.47173
21
-2.59364
0
LINE
8
BLACK
6
CONTINUOUS
10
3.47173
20
-2.59364
11
3.47113
21
-2.5941
0
LINE
8
BLACK
6
CONTINUOUS
10
3.47113
20
-2.5941
11
3.47038
21
-2.594
0
LINE
8
BLACK
6
CONTINUOUS
10
3.47038
20
-2.594
11
3.47038
21
-2.594
0
LINE
8
BLACK
6
CONTINUOUS
10
3.47038
20
-2.594
11
3.40219
21
-2.55463
0
LINE
8
BLACK
6
CONTINUOUS
10
3.40219
20
-2.55463
11
3.40173
21
-2.55404
0
LINE
8
BLACK
6
CONTINUOUS
10
3.40173
20
-2.55404
11
3.40183
21
-2.55329
0
LINE
8
BLACK
6
CONTINUOUS
10
3.40183
20
-2.55329
11
3.4412
21
-2.4851
0
LINE
8
BLACK
6
CONTINUOUS
10
3.4412
20
-2.4851
11
3.4418
21
-2.48464
0
LINE
8
BLACK
6
CONTINUOUS
10
3.4418
20
-2.48464
11
3.44255
21
-2.48474
0
LINE
8
BLACK
6
CONTINUOUS
10
3.44255
20
-2.48474
11
3.44374
21
-2.48543
0
LINE
8
BLACK
6
CONTINUOUS
10
3.44374
20
-2.48543
11
3.45703
21
-2.46241
0
LINE
8
BLACK
6
CONTINUOUS
10
3.45703
20
-2.46241
11
3.45763
21
-2.46195
0
LINE
8
BLACK
6
CONTINUOUS
10
3.45763
20
-2.46195
11
3.45837
21
-2.46205
0
LINE
8
BLACK
6
CONTINUOUS
10
3.40403
20
-2.55342
11
3.47052
21
-2.59181
0
LINE
8
BLACK
6
CONTINUOUS
10
3.47052
20
-2.59181
11
3.5089
21
-2.52532
0
LINE
8
BLACK
6
CONTINUOUS
10
3.5089
20
-2.52532
11
3.50362
21
-2.52227
0
LINE
8
BLACK
6
CONTINUOUS
10
3.50362
20
-2.52227
11
3.50362
21
-2.52227
0
LINE
8
BLACK
6
CONTINUOUS
10
3.50362
20
-2.52227
11
3.50362
21
-2.52227
0
LINE
8
BLACK
6
CONTINUOUS
10
3.50362
20
-2.52227
11
3.50299
21
-2.52191
0
LINE
8
BLACK
6
CONTINUOUS
10
3.50299
20
-2.52191
11
3.44361
21
-2.48762
0
LINE
8
BLACK
6
CONTINUOUS
10
3.44361
20
-2.48762
11
3.44361
21
-2.48762
0
LINE
8
BLACK
6
CONTINUOUS
10
3.44361
20
-2.48762
11
3.44242
21
-2.48693
0
LINE
8
BLACK
6
CONTINUOUS
10
3.44242
20
-2.48693
11
3.40403
21
-2.55342
0
LINE
8
BLACK
6
CONTINUOUS
10
3.44545
20
-2.48641
11
3.50375
21
-2.52007
0
LINE
8
BLACK
6
CONTINUOUS
10
3.50375
20
-2.52007
11
3.51654
21
-2.49791
0
LINE
8
BLACK
6
CONTINUOUS
10
3.51654
20
-2.49791
11
3.45824
21
-2.46425
0
LINE
8
BLACK
6
CONTINUOUS
10
3.45824
20
-2.46425
11
3.44545
21
-2.48641
0
LINE
8
BLACK
6
CONTINUOUS
10
3.53504
20
-2.41358
11
3.53574
21
-2.41387
0
LINE
8
BLACK
6
CONTINUOUS
10
3.53574
20
-2.41387
11
3.53602
21
-2.41457
0
LINE
8
BLACK
6
CONTINUOUS
10
3.53602
20
-2.41457
11
3.53602
21
-2.44213
0
LINE
8
BLACK
6
CONTINUOUS
10
3.53602
20
-2.44213
11
3.53574
21
-2.44282
0
LINE
8
BLACK
6
CONTINUOUS
10
3.53574
20
-2.44282
11
3.53504
21
-2.44311
0
LINE
8
BLACK
6
CONTINUOUS
10
3.53504
20
-2.44311
11
3.46575
21
-2.44311
0
LINE
8
BLACK
6
CONTINUOUS
10
3.46575
20
-2.44311
11
3.46505
21
-2.44282
0
LINE
8
BLACK
6
CONTINUOUS
10
3.46505
20
-2.44282
11
3.46476
21
-2.44213
0
LINE
8
BLACK
6
CONTINUOUS
10
3.46476
20
-2.44213
11
3.46476
21
-2.41457
0
LINE
8
BLACK
6
CONTINUOUS
10
3.46476
20
-2.41457
11
3.46505
21
-2.41387
0
LINE
8
BLACK
6
CONTINUOUS
10
3.46505
20
-2.41387
11
3.46575
21
-2.41358
0
LINE
8
BLACK
6
CONTINUOUS
10
3.46575
20
-2.41358
11
3.53504
21
-2.41358
0
LINE
8
BLACK
6
CONTINUOUS
10
3.46673
20
-2.41555
11
3.46673
21
-2.44114
0
LINE
8
BLACK
6
CONTINUOUS
10
3.46673
20
-2.44114
11
3.53406
21
-2.44114
0
LINE
8
BLACK
6
CONTINUOUS
10
3.53406
20
-2.44114
11
3.53406
21
-2.41555
0
LINE
8
BLACK
6
CONTINUOUS
10
3.53406
20
-2.41555
11
3.46673
21
-2.41555
0
LINE
8
BLACK
6
CONTINUOUS
10
2.83465
20
-2.32185
11
2.83534
21
-2.32214
0
LINE
8
BLACK
6
CONTINUOUS
10
2.83534
20
-2.32214
11
2.83563
21
-2.32283
0
LINE
8
BLACK
6
CONTINUOUS
10
2.83563
20
-2.32283
11
2.83563
21
-2.40157
0
LINE
8
BLACK
6
CONTINUOUS
10
2.83563
20
-2.40157
11
2.83534
21
-2.40227
0
LINE
8
BLACK
6
CONTINUOUS
10
2.83534
20
-2.40227
11
2.83465
21
-2.40256
0
LINE
8
BLACK
6
CONTINUOUS
10
2.83465
20
-2.40256
11
2.83327
21
-2.40256
0
LINE
8
BLACK
6
CONTINUOUS
10
2.83327
20
-2.40256
11
2.83327
21
-2.42913
0
LINE
8
BLACK
6
CONTINUOUS
10
2.83327
20
-2.42913
11
2.83298
21
-2.42983
0
LINE
8
BLACK
6
CONTINUOUS
10
2.83298
20
-2.42983
11
2.83228
21
-2.43012
0
LINE
8
BLACK
6
CONTINUOUS
10
2.83228
20
-2.43012
11
2.76299
21
-2.43012
0
LINE
8
BLACK
6
CONTINUOUS
10
2.76299
20
-2.43012
11
2.7623
21
-2.42983
0
LINE
8
BLACK
6
CONTINUOUS
10
2.7623
20
-2.42983
11
2.76201
21
-2.42913
0
LINE
8
BLACK
6
CONTINUOUS
10
2.76201
20
-2.42913
11
2.76201
21
-2.40256
0
LINE
8
BLACK
6
CONTINUOUS
10
2.76201
20
-2.40256
11
2.75591
21
-2.40256
0
LINE
8
BLACK
6
CONTINUOUS
10
2.75591
20
-2.40256
11
2.75521
21
-2.40227
0
LINE
8
BLACK
6
CONTINUOUS
10
2.75521
20
-2.40227
11
2.75492
21
-2.40157
0
LINE
8
BLACK
6
CONTINUOUS
10
2.75492
20
-2.40157
11
2.75492
21
-2.32283
0
LINE
8
BLACK
6
CONTINUOUS
10
2.75492
20
-2.32283
11
2.75521
21
-2.32214
0
LINE
8
BLACK
6
CONTINUOUS
10
2.75521
20
-2.32214
11
2.75591
21
-2.32185
0
LINE
8
BLACK
6
CONTINUOUS
10
2.75591
20
-2.32185
11
2.83465
21
-2.32185
0
LINE
8
BLACK
6
CONTINUOUS
10
2.76398
20
-2.40256
11
2.76398
21
-2.42815
0
LINE
8
BLACK
6
CONTINUOUS
10
2.76398
20
-2.42815
11
2.8313
21
-2.42815
0
LINE
8
BLACK
6
CONTINUOUS
10
2.8313
20
-2.42815
11
2.8313
21
-2.40256
0
LINE
8
BLACK
6
CONTINUOUS
10
2.8313
20
-2.40256
11
2.76398
21
-2.40256
0
LINE
8
BLACK
6
CONTINUOUS
10
2.75689
20
-2.32382
11
2.75689
21
-2.40059
0
LINE
8
BLACK
6
CONTINUOUS
10
2.75689
20
-2.40059
11
2.83366
21
-2.40059
0
LINE
8
BLACK
6
CONTINUOUS
10
2.83366
20
-2.40059
11
2.83366
21
-2.32382
0
LINE
8
BLACK
6
CONTINUOUS
10
2.83366
20
-2.32382
11
2.75689
21
-2.32382
0
LINE
8
BLACK
6
CONTINUOUS
10
3.51663
20
-2.2313
11
3.51733
21
-2.23159
0
LINE
8
BLACK
6
CONTINUOUS
10
3.51733
20
-2.23159
11
3.51762
21
-2.23228
0
LINE
8
BLACK
6
CONTINUOUS
10
3.51762
20
-2.23228
11
3.51762
21
-2.23799
0
LINE
8
BLACK
6
CONTINUOUS
10
3.51762
20
-2.23799
11
3.52451
21
-2.23799
0
LINE
8
BLACK
6
CONTINUOUS
10
3.52451
20
-2.23799
11
3.5252
21
-2.23828
0
LINE
8
BLACK
6
CONTINUOUS
10
3.5252
20
-2.23828
11
3.52549
21
-2.23898
0
LINE
8
BLACK
6
CONTINUOUS
10
3.52549
20
-2.23898
11
3.52549
21
-2.26102
0
LINE
8
BLACK
6
CONTINUOUS
10
3.52549
20
-2.26102
11
3.5252
21
-2.26172
0
LINE
8
BLACK
6
CONTINUOUS
10
3.5252
20
-2.26172
11
3.52451
21
-2.26201
0
LINE
8
BLACK
6
CONTINUOUS
10
3.52451
20
-2.26201
11
3.51762
21
-2.26201
0
LINE
8
BLACK
6
CONTINUOUS
10
3.51762
20
-2.26201
11
3.51762
21
-2.26673
0
LINE
8
BLACK
6
CONTINUOUS
10
3.51762
20
-2.26673
11
3.53858
21
-2.26673
0
LINE
8
BLACK
6
CONTINUOUS
10
3.53858
20
-2.26673
11
3.53928
21
-2.26702
0
LINE
8
BLACK
6
CONTINUOUS
10
3.53928
20
-2.26702
11
3.53957
21
-2.26772
0
LINE
8
BLACK
6
CONTINUOUS
10
3.53957
20
-2.26772
11
3.53957
21
-2.29429
0
LINE
8
BLACK
6
CONTINUOUS
10
3.53957
20
-2.29429
11
3.54449
21
-2.29429
0
LINE
8
BLACK
6
CONTINUOUS
10
3.54449
20
-2.29429
11
3.54518
21
-2.29458
0
LINE
8
BLACK
6
CONTINUOUS
10
3.54518
20
-2.29458
11
3.54547
21
-2.29528
0
LINE
8
BLACK
6
CONTINUOUS
10
3.54547
20
-2.29528
11
3.54547
21
-2.32283
0
LINE
8
BLACK
6
CONTINUOUS
10
3.54547
20
-2.32283
11
3.54518
21
-2.32353
0
LINE
8
BLACK
6
CONTINUOUS
10
3.54518
20
-2.32353
11
3.54449
21
-2.32382
0
LINE
8
BLACK
6
CONTINUOUS
10
3.54449
20
-2.32382
11
3.54429
21
-2.32382
0
LINE
8
BLACK
6
CONTINUOUS
10
3.54429
20
-2.32382
11
3.54429
21
-2.40157
0
LINE
8
BLACK
6
CONTINUOUS
10
3.54429
20
-2.40157
11
3.544
21
-2.40227
0
LINE
8
BLACK
6
CONTINUOUS
10
3.544
20
-2.40227
11
3.54331
21
-2.40256
0
LINE
8
BLACK
6
CONTINUOUS
10
3.54331
20
-2.40256
11
3.46457
21
-2.40256
0
LINE
8
BLACK
6
CONTINUOUS
10
3.46457
20
-2.40256
11
3.46387
21
-2.40227
0
LINE
8
BLACK
6
CONTINUOUS
10
3.46387
20
-2.40227
11
3.46358
21
-2.40157
0
LINE
8
BLACK
6
CONTINUOUS
10
3.46358
20
-2.40157
11
3.46358
21
-2.32283
0
LINE
8
BLACK
6
CONTINUOUS
10
3.46358
20
-2.32283
11
3.46387
21
-2.32214
0
LINE
8
BLACK
6
CONTINUOUS
10
3.46387
20
-2.32214
11
3.46457
21
-2.32185
0
LINE
8
BLACK
6
CONTINUOUS
10
3.46457
20
-2.32185
11
3.47421
21
-2.32185
0
LINE
8
BLACK
6
CONTINUOUS
10
3.47421
20
-2.32185
11
3.47421
21
-2.29626
0
LINE
8
BLACK
6
CONTINUOUS
10
3.47421
20
-2.29626
11
3.46929
21
-2.29626
0
LINE
8
BLACK
6
CONTINUOUS
10
3.46929
20
-2.29626
11
3.4686
21
-2.29597
0
LINE
8
BLACK
6
CONTINUOUS
10
3.4686
20
-2.29597
11
3.46831
21
-2.29528
0
LINE
8
BLACK
6
CONTINUOUS
10
3.46831
20
-2.29528
11
3.46831
21
-2.26772
0
LINE
8
BLACK
6
CONTINUOUS
10
3.46831
20
-2.26772
11
3.4686
21
-2.26702
0
LINE
8
BLACK
6
CONTINUOUS
10
3.4686
20
-2.26702
11
3.46929
21
-2.26673
0
LINE
8
BLACK
6
CONTINUOUS
10
3.46929
20
-2.26673
11
3.47234
21
-2.26673
0
LINE
8
BLACK
6
CONTINUOUS
10
3.47234
20
-2.26673
11
3.47234
21
-2.26201
0
LINE
8
BLACK
6
CONTINUOUS
10
3.47234
20
-2.26201
11
3.46545
21
-2.26201
0
LINE
8
BLACK
6
CONTINUOUS
10
3.46545
20
-2.26201
11
3.46476
21
-2.26172
0
LINE
8
BLACK
6
CONTINUOUS
10
3.46476
20
-2.26172
11
3.46447
21
-2.26102
0
LINE
8
BLACK
6
CONTINUOUS
10
3.46447
20
-2.26102
11
3.46447
21
-2.23898
0
LINE
8
BLACK
6
CONTINUOUS
10
3.46447
20
-2.23898
11
3.46476
21
-2.23828
0
LINE
8
BLACK
6
CONTINUOUS
10
3.46476
20
-2.23828
11
3.46545
21
-2.23799
0
LINE
8
BLACK
6
CONTINUOUS
10
3.46545
20
-2.23799
11
3.47234
21
-2.23799
0
LINE
8
BLACK
6
CONTINUOUS
10
3.47234
20
-2.23799
11
3.47234
21
-2.23228
0
LINE
8
BLACK
6
CONTINUOUS
10
3.47234
20
-2.23228
11
3.47263
21
-2.23159
0
LINE
8
BLACK
6
CONTINUOUS
10
3.47263
20
-2.23159
11
3.47333
21
-2.2313
0
LINE
8
BLACK
6
CONTINUOUS
10
3.47333
20
-2.2313
11
3.51663
21
-2.2313
0
LINE
8
BLACK
6
CONTINUOUS
10
3.46555
20
-2.32382
11
3.46555
21
-2.40059
0
LINE
8
BLACK
6
CONTINUOUS
10
3.46555
20
-2.40059
11
3.54232
21
-2.40059
0
LINE
8
BLACK
6
CONTINUOUS
10
3.54232
20
-2.40059
11
3.54232
21
-2.32382
0
LINE
8
BLACK
6
CONTINUOUS
10
3.54232
20
-2.32382
11
3.4752
21
-2.32382
0
LINE
8
BLACK
6
CONTINUOUS
10
3.4752
20
-2.32382
11
3.46555
21
-2.32382
0
LINE
8
BLACK
6
CONTINUOUS
10
3.53858
20
-2.29626
11
3.47618
21
-2.29626
0
LINE
8
BLACK
6
CONTINUOUS
10
3.47618
20
-2.29626
11
3.47618
21
-2.32185
0
LINE
8
BLACK
6
CONTINUOUS
10
3.47618
20
-2.32185
11
3.54331
21
-2.32185
0
LINE
8
BLACK
6
CONTINUOUS
10
3.54331
20
-2.32185
11
3.5435
21
-2.32185
0
LINE
8
BLACK
6
CONTINUOUS
10
3.5435
20
-2.32185
11
3.5435
21
-2.29626
0
LINE
8
BLACK
6
CONTINUOUS
10
3.5435
20
-2.29626
11
3.53858
21
-2.29626
0
LINE
8
BLACK
6
CONTINUOUS
10
3.51663
20
-2.2687
11
3.47333
21
-2.2687
0
LINE
8
BLACK
6
CONTINUOUS
10
3.47333
20
-2.2687
11
3.47028
21
-2.2687
0
LINE
8
BLACK
6
CONTINUOUS
10
3.47028
20
-2.2687
11
3.47028
21
-2.29429
0
LINE
8
BLACK
6
CONTINUOUS
10
3.47028
20
-2.29429
11
3.5376
21
-2.29429
0
LINE
8
BLACK
6
CONTINUOUS
10
3.5376
20
-2.29429
11
3.5376
21
-2.2687
0
LINE
8
BLACK
6
CONTINUOUS
10
3.5376
20
-2.2687
11
3.51663
21
-2.2687
0
LINE
8
BLACK
6
CONTINUOUS
10
3.47431
20
-2.23327
11
3.47431
21
-2.23898
0
LINE
8
BLACK
6
CONTINUOUS
10
3.47431
20
-2.23898
11
3.47402
21
-2.23967
0
LINE
8
BLACK
6
CONTINUOUS
10
3.47402
20
-2.23967
11
3.47333
21
-2.23996
0
LINE
8
BLACK
6
CONTINUOUS
10
3.47333
20
-2.23996
11
3.46644
21
-2.23996
0
LINE
8
BLACK
6
CONTINUOUS
10
3.46644
20
-2.23996
11
3.46644
21
-2.26004
0
LINE
8
BLACK
6
CONTINUOUS
10
3.46644
20
-2.26004
11
3.47333
21
-2.26004
0
LINE
8
BLACK
6
CONTINUOUS
10
3.47333
20
-2.26004
11
3.47402
21
-2.26033
0
LINE
8
BLACK
6
CONTINUOUS
10
3.47402
20
-2.26033
11
3.47431
21
-2.26102
0
LINE
8
BLACK
6
CONTINUOUS
10
3.47431
20
-2.26102
11
3.47431
21
-2.26673
0
LINE
8
BLACK
6
CONTINUOUS
10
3.47431
20
-2.26673
11
3.51565
21
-2.26673
0
LINE
8
BLACK
6
CONTINUOUS
10
3.51565
20
-2.26673
11
3.51565
21
-2.26102
0
LINE
8
BLACK
6
CONTINUOUS
10
3.51565
20
-2.26102
11
3.51594
21
-2.26033
0
LINE
8
BLACK
6
CONTINUOUS
10
3.51594
20
-2.26033
11
3.51663
21
-2.26004
0
LINE
8
BLACK
6
CONTINUOUS
10
3.51663
20
-2.26004
11
3.52352
21
-2.26004
0
LINE
8
BLACK
6
CONTINUOUS
10
3.52352
20
-2.26004
11
3.52352
21
-2.23996
0
LINE
8
BLACK
6
CONTINUOUS
10
3.52352
20
-2.23996
11
3.51663
21
-2.23996
0
LINE
8
BLACK
6
CONTINUOUS
10
3.51663
20
-2.23996
11
3.51594
21
-2.23967
0
LINE
8
BLACK
6
CONTINUOUS
10
3.51594
20
-2.23967
11
3.51565
21
-2.23898
0
LINE
8
BLACK
6
CONTINUOUS
10
3.51565
20
-2.23898
11
3.51565
21
-2.23327
0
LINE
8
BLACK
6
CONTINUOUS
10
3.51565
20
-2.23327
11
3.47431
21
-2.23327
0
LINE
8
BLACK
6
CONTINUOUS
10
2.82883
20
-2.13041
11
2.89702
21
-2.16978
0
LINE
8
BLACK
6
CONTINUOUS
10
2.89702
20
-2.16978
11
2.89748
21
-2.17037
0
LINE
8
BLACK
6
CONTINUOUS
10
2.89748
20
-2.17037
11
2.89748
21
-2.17037
0
LINE
8
BLACK
6
CONTINUOUS
10
2.89748
20
-2.17037
11
2.89748
21
-2.17037
0
LINE
8
BLACK
6
CONTINUOUS
10
2.89748
20
-2.17037
11
2.89738
21
-2.17112
0
LINE
8
BLACK
6
CONTINUOUS
10
2.89738
20
-2.17112
11
2.85801
21
-2.23931
0
LINE
8
BLACK
6
CONTINUOUS
10
2.85801
20
-2.23931
11
2.85741
21
-2.23977
0
LINE
8
BLACK
6
CONTINUOUS
10
2.85741
20
-2.23977
11
2.85667
21
-2.23967
0
LINE
8
BLACK
6
CONTINUOUS
10
2.85667
20
-2.23967
11
2.85667
21
-2.23967
0
LINE
8
BLACK
6
CONTINUOUS
10
2.85667
20
-2.23967
11
2.85547
21
-2.23898
0
LINE
8
BLACK
6
CONTINUOUS
10
2.85547
20
-2.23898
11
2.84218
21
-2.262
0
LINE
8
BLACK
6
CONTINUOUS
10
2.84218
20
-2.262
11
2.84159
21
-2.26246
0
LINE
8
BLACK
6
CONTINUOUS
10
2.84159
20
-2.26246
11
2.84084
21
-2.26236
0
LINE
8
BLACK
6
CONTINUOUS
10
2.84084
20
-2.26236
11
2.84084
21
-2.26236
0
LINE
8
BLACK
6
CONTINUOUS
10
2.84084
20
-2.26236
11
2.78083
21
-2.22771
0
LINE
8
BLACK
6
CONTINUOUS
10
2.78083
20
-2.22771
11
2.78037
21
-2.22711
0
LINE
8
BLACK
6
CONTINUOUS
10
2.78037
20
-2.22711
11
2.78047
21
-2.22637
0
LINE
8
BLACK
6
CONTINUOUS
10
2.78047
20
-2.22637
11
2.79376
21
-2.20335
0
LINE
8
BLACK
6
CONTINUOUS
10
2.79376
20
-2.20335
11
2.78847
21
-2.2003
0
LINE
8
BLACK
6
CONTINUOUS
10
2.78847
20
-2.2003
11
2.78802
21
-2.1997
0
LINE
8
BLACK
6
CONTINUOUS
10
2.78802
20
-2.1997
11
2.78811
21
-2.19896
0
LINE
8
BLACK
6
CONTINUOUS
10
2.78811
20
-2.19896
11
2.82748
21
-2.13077
0
LINE
8
BLACK
6
CONTINUOUS
10
2.82748
20
-2.13077
11
2.82808
21
-2.13031
0
LINE
8
BLACK
6
CONTINUOUS
10
2.82808
20
-2.13031
11
2.82883
21
-2.13041
0
LINE
8
BLACK
6
CONTINUOUS
10
2.78267
20
-2.2265
11
2.84097
21
-2.26016
0
LINE
8
BLACK
6
CONTINUOUS
10
2.84097
20
-2.26016
11
2.85377
21
-2.238
0
LINE
8
BLACK
6
CONTINUOUS
10
2.85377
20
-2.238
11
2.79546
21
-2.20434
0
LINE
8
BLACK
6
CONTINUOUS
10
2.79546
20
-2.20434
11
2.78267
21
-2.2265
0
LINE
8
BLACK
6
CONTINUOUS
10
2.79031
20
-2.19909
11
2.7956
21
-2.20214
0
LINE
8
BLACK
6
CONTINUOUS
10
2.7956
20
-2.20214
11
2.7956
21
-2.20214
0
LINE
8
BLACK
6
CONTINUOUS
10
2.7956
20
-2.20214
11
2.8556
21
-2.23679
0
LINE
8
BLACK
6
CONTINUOUS
10
2.8556
20
-2.23679
11
2.8568
21
-2.23748
0
LINE
8
BLACK
6
CONTINUOUS
10
2.8568
20
-2.23748
11
2.89518
21
-2.17099
0
LINE
8
BLACK
6
CONTINUOUS
10
2.89518
20
-2.17099
11
2.8287
21
-2.1326
0
LINE
8
BLACK
6
CONTINUOUS
10
2.8287
20
-2.1326
11
2.79031
21
-2.19909
0
LINE
8
BLACK
6
CONTINUOUS
10
3.45181
20
-2.11044
11
3.4651
21
-2.13346
0
LINE
8
BLACK
6
CONTINUOUS
10
3.4651
20
-2.13346
11
3.47038
21
-2.13041
0
LINE
8
BLACK
6
CONTINUOUS
10
3.47038
20
-2.13041
11
3.47038
21
-2.13041
0
LINE
8
BLACK
6
CONTINUOUS
10
3.47038
20
-2.13041
11
3.47113
21
-2.13031
0
LINE
8
BLACK
6
CONTINUOUS
10
3.47113
20
-2.13031
11
3.47173
21
-2.13077
0
LINE
8
BLACK
6
CONTINUOUS
10
3.47173
20
-2.13077
11
3.5111
21
-2.19896
0
LINE
8
BLACK
6
CONTINUOUS
10
3.5111
20
-2.19896
11
3.5112
21
-2.1997
0
LINE
8
BLACK
6
CONTINUOUS
10
3.5112
20
-2.1997
11
3.51074
21
-2.2003
0
LINE
8
BLACK
6
CONTINUOUS
10
3.51074
20
-2.2003
11
3.44255
21
-2.23967
0
LINE
8
BLACK
6
CONTINUOUS
10
3.44255
20
-2.23967
11
3.4418
21
-2.23977
0
LINE
8
BLACK
6
CONTINUOUS
10
3.4418
20
-2.23977
11
3.4412
21
-2.23931
0
LINE
8
BLACK
6
CONTINUOUS
10
3.4412
20
-2.23931
11
3.40183
21
-2.17112
0
LINE
8
BLACK
6
CONTINUOUS
10
3.40183
20
-2.17112
11
3.40173
21
-2.17037
0
LINE
8
BLACK
6
CONTINUOUS
10
3.40173
20
-2.17037
11
3.40219
21
-2.16978
0
LINE
8
BLACK
6
CONTINUOUS
10
3.40219
20
-2.16978
11
3.40219
21
-2.16978
0
LINE
8
BLACK
6
CONTINUOUS
10
3.40219
20
-2.16978
11
3.40339
21
-2.16909
0
LINE
8
BLACK
6
CONTINUOUS
10
3.40339
20
-2.16909
11
3.3901
21
-2.14607
0
LINE
8
BLACK
6
CONTINUOUS
10
3.3901
20
-2.14607
11
3.39
21
-2.14533
0
LINE
8
BLACK
6
CONTINUOUS
10
3.39
20
-2.14533
11
3.39046
21
-2.14473
0
LINE
8
BLACK
6
CONTINUOUS
10
3.39046
20
-2.14473
11
3.39046
21
-2.14473
0
LINE
8
BLACK
6
CONTINUOUS
10
3.39046
20
-2.14473
11
3.45047
21
-2.11008
0
LINE
8
BLACK
6
CONTINUOUS
10
3.45047
20
-2.11008
11
3.45047
21
-2.11008
0
LINE
8
BLACK
6
CONTINUOUS
10
3.45047
20
-2.11008
11
3.45121
21
-2.10998
0
LINE
8
BLACK
6
CONTINUOUS
10
3.45121
20
-2.10998
11
3.45181
21
-2.11044
0
LINE
8
BLACK
6
CONTINUOUS
10
3.40403
20
-2.17099
11
3.44242
21
-2.23748
0
LINE
8
BLACK
6
CONTINUOUS
10
3.44242
20
-2.23748
11
3.5089
21
-2.19909
0
LINE
8
BLACK
6
CONTINUOUS
10
3.5089
20
-2.19909
11
3.47052
21
-2.1326
0
LINE
8
BLACK
6
CONTINUOUS
10
3.47052
20
-2.1326
11
3.40403
21
-2.17099
0
LINE
8
BLACK
6
CONTINUOUS
10
3.3923
20
-2.14594
11
3.40509
21
-2.1681
0
LINE
8
BLACK
6
CONTINUOUS
10
3.40509
20
-2.1681
11
3.46339
21
-2.13444
0
LINE
8
BLACK
6
CONTINUOUS
10
3.46339
20
-2.13444
11
3.4506
21
-2.11228
0
LINE
8
BLACK
6
CONTINUOUS
10
3.4506
20
-2.11228
11
3.3923
21
-2.14594
0
LINE
8
BLACK
6
CONTINUOUS
10
2.9877
20
-2.00107
11
3.02707
21
-2.06926
0
LINE
8
BLACK
6
CONTINUOUS
10
3.02707
20
-2.06926
11
3.02717
21
-2.07001
0
LINE
8
BLACK
6
CONTINUOUS
10
3.02717
20
-2.07001
11
3.02671
21
-2.07061
0
LINE
8
BLACK
6
CONTINUOUS
10
3.02671
20
-2.07061
11
2.95852
21
-2.10998
0
LINE
8
BLACK
6
CONTINUOUS
10
2.95852
20
-2.10998
11
2.95778
21
-2.11008
0
LINE
8
BLACK
6
CONTINUOUS
10
2.95778
20
-2.11008
11
2.95718
21
-2.10962
0
LINE
8
BLACK
6
CONTINUOUS
10
2.95718
20
-2.10962
11
2.95718
21
-2.10962
0
LINE
8
BLACK
6
CONTINUOUS
10
2.95718
20
-2.10962
11
2.95649
21
-2.10842
0
LINE
8
BLACK
6
CONTINUOUS
10
2.95649
20
-2.10842
11
2.93347
21
-2.12171
0
LINE
8
BLACK
6
CONTINUOUS
10
2.93347
20
-2.12171
11
2.93273
21
-2.12181
0
LINE
8
BLACK
6
CONTINUOUS
10
2.93273
20
-2.12181
11
2.93213
21
-2.12135
0
LINE
8
BLACK
6
CONTINUOUS
10
2.93213
20
-2.12135
11
2.89748
21
-2.06134
0
LINE
8
BLACK
6
CONTINUOUS
10
2.89748
20
-2.06134
11
2.89739
21
-2.0606
0
LINE
8
BLACK
6
CONTINUOUS
10
2.89739
20
-2.0606
11
2.89784
21
-2.06
0
LINE
8
BLACK
6
CONTINUOUS
10
2.89784
20
-2.06
11
2.89784
21
-2.06
0
LINE
8
BLACK
6
CONTINUOUS
10
2.89784
20
-2.06
11
2.92086
21
-2.04671
0
LINE
8
BLACK
6
CONTINUOUS
10
2.92086
20
-2.04671
11
2.91781
21
-2.04143
0
LINE
8
BLACK
6
CONTINUOUS
10
2.91781
20
-2.04143
11
2.91771
21
-2.04068
0
LINE
8
BLACK
6
CONTINUOUS
10
2.91771
20
-2.04068
11
2.91817
21
-2.04008
0
LINE
8
BLACK
6
CONTINUOUS
10
2.91817
20
-2.04008
11
2.91817
21
-2.04008
0
LINE
8
BLACK
6
CONTINUOUS
10
2.91817
20
-2.04008
11
2.98636
21
-2.00071
0
LINE
8
BLACK
6
CONTINUOUS
10
2.98636
20
-2.00071
11
2.98636
21
-2.00071
0
LINE
8
BLACK
6
CONTINUOUS
10
2.98636
20
-2.00071
11
2.98711
21
-2.00061
0
LINE
8
BLACK
6
CONTINUOUS
10
2.98711
20
-2.00061
11
2.9877
21
-2.00107
0
LINE
8
BLACK
6
CONTINUOUS
10
2.89968
20
-2.06121
11
2.93334
21
-2.11952
0
LINE
8
BLACK
6
CONTINUOUS
10
2.93334
20
-2.11952
11
2.9555
21
-2.10672
0
LINE
8
BLACK
6
CONTINUOUS
10
2.9555
20
-2.10672
11
2.95543
21
-2.10659
0
LINE
8
BLACK
6
CONTINUOUS
10
2.95543
20
-2.10659
11
2.92184
21
-2.04842
0
LINE
8
BLACK
6
CONTINUOUS
10
2.92184
20
-2.04842
11
2.89968
21
-2.06121
0
LINE
8
BLACK
6
CONTINUOUS
10
2.92
20
-2.0413
11
2.95839
21
-2.10778
0
LINE
8
BLACK
6
CONTINUOUS
10
2.95839
20
-2.10778
11
3.02488
21
-2.0694
0
LINE
8
BLACK
6
CONTINUOUS
10
3.02488
20
-2.0694
11
2.98649
21
-2.00291
0
LINE
8
BLACK
6
CONTINUOUS
10
2.98649
20
-2.00291
11
2.92
21
-2.0413
0
LINE
8
BLACK
6
CONTINUOUS
10
3.28544
20
-1.99307
11
3.30846
21
-2.00636
0
LINE
8
BLACK
6
CONTINUOUS
10
3.30846
20
-2.00636
11
3.31151
21
-2.00107
0
LINE
8
BLACK
6
CONTINUOUS
10
3.31151
20
-2.00107
11
3.31211
21
-2.00061
0
LINE
8
BLACK
6
CONTINUOUS
10
3.31211
20
-2.00061
11
3.31285
21
-2.00071
0
LINE
8
BLACK
6
CONTINUOUS
10
3.31285
20
-2.00071
11
3.38104
21
-2.04008
0
LINE
8
BLACK
6
CONTINUOUS
10
3.38104
20
-2.04008
11
3.3815
21
-2.04068
0
LINE
8
BLACK
6
CONTINUOUS
10
3.3815
20
-2.04068
11
3.3815
21
-2.04068
0
LINE
8
BLACK
6
CONTINUOUS
10
3.3815
20
-2.04068
11
3.3815
21
-2.04068
0
LINE
8
BLACK
6
CONTINUOUS
10
3.3815
20
-2.04068
11
3.3814
21
-2.04143
0
LINE
8
BLACK
6
CONTINUOUS
10
3.3814
20
-2.04143
11
3.34203
21
-2.10962
0
LINE
8
BLACK
6
CONTINUOUS
10
3.34203
20
-2.10962
11
3.34144
21
-2.11008
0
LINE
8
BLACK
6
CONTINUOUS
10
3.34144
20
-2.11008
11
3.34069
21
-2.10998
0
LINE
8
BLACK
6
CONTINUOUS
10
3.34069
20
-2.10998
11
3.34069
21
-2.10998
0
LINE
8
BLACK
6
CONTINUOUS
10
3.34069
20
-2.10998
11
3.2725
21
-2.07061
0
LINE
8
BLACK
6
CONTINUOUS
10
3.2725
20
-2.07061
11
3.27204
21
-2.07001
0
LINE
8
BLACK
6
CONTINUOUS
10
3.27204
20
-2.07001
11
3.27214
21
-2.06926
0
LINE
8
BLACK
6
CONTINUOUS
10
3.27214
20
-2.06926
11
3.27283
21
-2.06807
0
LINE
8
BLACK
6
CONTINUOUS
10
3.27283
20
-2.06807
11
3.24981
21
-2.05478
0
LINE
8
BLACK
6
CONTINUOUS
10
3.24981
20
-2.05478
11
3.24935
21
-2.05419
0
LINE
8
BLACK
6
CONTINUOUS
10
3.24935
20
-2.05419
11
3.24945
21
-2.05344
0
LINE
8
BLACK
6
CONTINUOUS
10
3.24945
20
-2.05344
11
3.24945
21
-2.05344
0
LINE
8
BLACK
6
CONTINUOUS
10
3.24945
20
-2.05344
11
3.2841
21
-1.99343
0
LINE
8
BLACK
6
CONTINUOUS
10
3.2841
20
-1.99343
11
3.2847
21
-1.99297
0
LINE
8
BLACK
6
CONTINUOUS
10
3.2847
20
-1.99297
11
3.28544
21
-1.99307
0
LINE
8
BLACK
6
CONTINUOUS
10
3.30967
20
-2.00819
11
3.30967
21
-2.00819
0
LINE
8
BLACK
6
CONTINUOUS
10
3.30967
20
-2.00819
11
3.27559
21
-2.06722
0
LINE
8
BLACK
6
CONTINUOUS
10
3.27559
20
-2.06722
11
3.27434
21
-2.0694
0
LINE
8
BLACK
6
CONTINUOUS
10
3.27434
20
-2.0694
11
3.34082
21
-2.10778
0
LINE
8
BLACK
6
CONTINUOUS
10
3.34082
20
-2.10778
11
3.37921
21
-2.0413
0
LINE
8
BLACK
6
CONTINUOUS
10
3.37921
20
-2.0413
11
3.31272
21
-2.00291
0
LINE
8
BLACK
6
CONTINUOUS
10
3.31272
20
-2.00291
11
3.30967
21
-2.00819
0
LINE
8
BLACK
6
CONTINUOUS
10
3.25165
20
-2.05357
11
3.27381
21
-2.06637
0
LINE
8
BLACK
6
CONTINUOUS
10
3.27381
20
-2.06637
11
3.30747
21
-2.00806
0
LINE
8
BLACK
6
CONTINUOUS
10
3.30747
20
-2.00806
11
3.28531
21
-1.99527
0
LINE
8
BLACK
6
CONTINUOUS
10
3.28531
20
-1.99527
11
3.25165
21
-2.05357
0
LINE
8
BLACK
6
CONTINUOUS
10
2.77416
20
-1.87279
11
2.78602
21
-1.87583
0
LINE
8
BLACK
6
CONTINUOUS
10
2.78602
20
-1.87583
11
2.79739
21
-1.88034
0
LINE
8
BLACK
6
CONTINUOUS
10
2.79739
20
-1.88034
11
2.80812
21
-1.88623
0
LINE
8
BLACK
6
CONTINUOUS
10
2.80812
20
-1.88623
11
2.81802
21
-1.89342
0
LINE
8
BLACK
6
CONTINUOUS
10
2.81802
20
-1.89342
11
2.82694
21
-1.9018
0
LINE
8
BLACK
6
CONTINUOUS
10
2.82694
20
-1.9018
11
2.83474
21
-1.91123
0
LINE
8
BLACK
6
CONTINUOUS
10
2.83474
20
-1.91123
11
2.84129
21
-1.92156
0
LINE
8
BLACK
6
CONTINUOUS
10
2.84129
20
-1.92156
11
2.8465
21
-1.93263
0
LINE
8
BLACK
6
CONTINUOUS
10
2.8465
20
-1.93263
11
2.85029
21
-1.94427
0
LINE
8
BLACK
6
CONTINUOUS
10
2.85029
20
-1.94427
11
2.85258
21
-1.95629
0
LINE
8
BLACK
6
CONTINUOUS
10
2.85258
20
-1.95629
11
2.85335
21
-1.9685
0
LINE
8
BLACK
6
CONTINUOUS
10
2.85335
20
-1.9685
11
2.85258
21
-1.98072
0
LINE
8
BLACK
6
CONTINUOUS
10
2.85258
20
-1.98072
11
2.85029
21
-1.99274
0
LINE
8
BLACK
6
CONTINUOUS
10
2.85029
20
-1.99274
11
2.8465
21
-2.00437
0
LINE
8
BLACK
6
CONTINUOUS
10
2.8465
20
-2.00437
11
2.84129
21
-2.01545
0
LINE
8
BLACK
6
CONTINUOUS
10
2.84129
20
-2.01545
11
2.83474
21
-2.02578
0
LINE
8
BLACK
6
CONTINUOUS
10
2.83474
20
-2.02578
11
2.82694
21
-2.03521
0
LINE
8
BLACK
6
CONTINUOUS
10
2.82694
20
-2.03521
11
2.81802
21
-2.04358
0
LINE
8
BLACK
6
CONTINUOUS
10
2.81802
20
-2.04358
11
2.80812
21
-2.05078
0
LINE
8
BLACK
6
CONTINUOUS
10
2.80812
20
-2.05078
11
2.79739
21
-2.05667
0
LINE
8
BLACK
6
CONTINUOUS
10
2.79739
20
-2.05667
11
2.78602
21
-2.06118
0
LINE
8
BLACK
6
CONTINUOUS
10
2.78602
20
-2.06118
11
2.77416
21
-2.06422
0
LINE
8
BLACK
6
CONTINUOUS
10
2.77416
20
-2.06422
11
2.76202
21
-2.06575
0
LINE
8
BLACK
6
CONTINUOUS
10
2.76202
20
-2.06575
11
2.74979
21
-2.06575
0
LINE
8
BLACK
6
CONTINUOUS
10
2.74979
20
-2.06575
11
2.73765
21
-2.06422
0
LINE
8
BLACK
6
CONTINUOUS
10
2.73765
20
-2.06422
11
2.72579
21
-2.06118
0
LINE
8
BLACK
6
CONTINUOUS
10
2.72579
20
-2.06118
11
2.71442
21
-2.05667
0
LINE
8
BLACK
6
CONTINUOUS
10
2.71442
20
-2.05667
11
2.70369
21
-2.05078
0
LINE
8
BLACK
6
CONTINUOUS
10
2.70369
20
-2.05078
11
2.69379
21
-2.04358
0
LINE
8
BLACK
6
CONTINUOUS
10
2.69379
20
-2.04358
11
2.68487
21
-2.03521
0
LINE
8
BLACK
6
CONTINUOUS
10
2.68487
20
-2.03521
11
2.67707
21
-2.02578
0
LINE
8
BLACK
6
CONTINUOUS
10
2.67707
20
-2.02578
11
2.67052
21
-2.01545
0
LINE
8
BLACK
6
CONTINUOUS
10
2.67052
20
-2.01545
11
2.66531
21
-2.00437
0
LINE
8
BLACK
6
CONTINUOUS
10
2.66531
20
-2.00437
11
2.66153
21
-1.99274
0
LINE
8
BLACK
6
CONTINUOUS
10
2.66153
20
-1.99274
11
2.65923
21
-1.98072
0
LINE
8
BLACK
6
CONTINUOUS
10
2.65923
20
-1.98072
11
2.65846
21
-1.9685
0
LINE
8
BLACK
6
CONTINUOUS
10
2.65846
20
-1.9685
11
2.65923
21
-1.95629
0
LINE
8
BLACK
6
CONTINUOUS
10
2.65923
20
-1.95629
11
2.66153
21
-1.94427
0
LINE
8
BLACK
6
CONTINUOUS
10
2.66153
20
-1.94427
11
2.66531
21
-1.93263
0
LINE
8
BLACK
6
CONTINUOUS
10
2.66531
20
-1.93263
11
2.67052
21
-1.92156
0
LINE
8
BLACK
6
CONTINUOUS
10
2.67052
20
-1.92156
11
2.67707
21
-1.91123
0
LINE
8
BLACK
6
CONTINUOUS
10
2.67707
20
-1.91123
11
2.68487
21
-1.9018
0
LINE
8
BLACK
6
CONTINUOUS
10
2.68487
20
-1.9018
11
2.69379
21
-1.89342
0
LINE
8
BLACK
6
CONTINUOUS
10
2.69379
20
-1.89342
11
2.70369
21
-1.88623
0
LINE
8
BLACK
6
CONTINUOUS
10
2.70369
20
-1.88623
11
2.71442
21
-1.88034
0
LINE
8
BLACK
6
CONTINUOUS
10
2.71442
20
-1.88034
11
2.72579
21
-1.87583
0
LINE
8
BLACK
6
CONTINUOUS
10
2.72579
20
-1.87583
11
2.73765
21
-1.87279
0
LINE
8
BLACK
6
CONTINUOUS
10
2.73765
20
-1.87279
11
2.74979
21
-1.87126
0
LINE
8
BLACK
6
CONTINUOUS
10
2.74979
20
-1.87126
11
2.76202
21
-1.87126
0
LINE
8
BLACK
6
CONTINUOUS
10
2.76202
20
-1.87126
11
2.77416
21
-1.87279
0
LINE
8
BLACK
6
CONTINUOUS
10
2.661
20
-1.98049
11
2.66325
21
-1.99229
0
LINE
8
BLACK
6
CONTINUOUS
10
2.66325
20
-1.99229
11
2.66696
21
-2.00372
0
LINE
8
BLACK
6
CONTINUOUS
10
2.66696
20
-2.00372
11
2.67208
21
-2.01459
0
LINE
8
BLACK
6
CONTINUOUS
10
2.67208
20
-2.01459
11
2.67851
21
-2.02473
0
LINE
8
BLACK
6
CONTINUOUS
10
2.67851
20
-2.02473
11
2.68617
21
-2.03399
0
LINE
8
BLACK
6
CONTINUOUS
10
2.68617
20
-2.03399
11
2.69493
21
-2.04221
0
LINE
8
BLACK
6
CONTINUOUS
10
2.69493
20
-2.04221
11
2.70465
21
-2.04927
0
LINE
8
BLACK
6
CONTINUOUS
10
2.70465
20
-2.04927
11
2.71517
21
-2.05506
0
LINE
8
BLACK
6
CONTINUOUS
10
2.71517
20
-2.05506
11
2.72634
21
-2.05948
0
LINE
8
BLACK
6
CONTINUOUS
10
2.72634
20
-2.05948
11
2.73798
21
-2.06247
0
LINE
8
BLACK
6
CONTINUOUS
10
2.73798
20
-2.06247
11
2.7499
21
-2.06398
0
LINE
8
BLACK
6
CONTINUOUS
10
2.7499
20
-2.06398
11
2.76191
21
-2.06398
0
LINE
8
BLACK
6
CONTINUOUS
10
2.76191
20
-2.06398
11
2.77383
21
-2.06247
0
LINE
8
BLACK
6
CONTINUOUS
10
2.77383
20
-2.06247
11
2.78547
21
-2.05948
0
LINE
8
BLACK
6
CONTINUOUS
10
2.78547
20
-2.05948
11
2.79664
21
-2.05506
0
LINE
8
BLACK
6
CONTINUOUS
10
2.79664
20
-2.05506
11
2.80716
21
-2.04927
0
LINE
8
BLACK
6
CONTINUOUS
10
2.80716
20
-2.04927
11
2.81688
21
-2.04221
0
LINE
8
BLACK
6
CONTINUOUS
10
2.81688
20
-2.04221
11
2.82564
21
-2.03399
0
LINE
8
BLACK
6
CONTINUOUS
10
2.82564
20
-2.03399
11
2.8333
21
-2.02473
0
LINE
8
BLACK
6
CONTINUOUS
10
2.8333
20
-2.02473
11
2.83973
21
-2.01459
0
LINE
8
BLACK
6
CONTINUOUS
10
2.83973
20
-2.01459
11
2.84485
21
-2.00372
0
LINE
8
BLACK
6
CONTINUOUS
10
2.84485
20
-2.00372
11
2.84856
21
-1.99229
0
LINE
8
BLACK
6
CONTINUOUS
10
2.84856
20
-1.99229
11
2.85081
21
-1.98049
0
LINE
8
BLACK
6
CONTINUOUS
10
2.85081
20
-1.98049
11
2.85157
21
-1.9685
0
LINE
8
BLACK
6
CONTINUOUS
10
2.85157
20
-1.9685
11
2.85081
21
-1.95651
0
LINE
8
BLACK
6
CONTINUOUS
10
2.85081
20
-1.95651
11
2.84856
21
-1.94471
0
LINE
8
BLACK
6
CONTINUOUS
10
2.84856
20
-1.94471
11
2.84485
21
-1.93329
0
LINE
8
BLACK
6
CONTINUOUS
10
2.84485
20
-1.93329
11
2.83973
21
-1.92242
0
LINE
8
BLACK
6
CONTINUOUS
10
2.83973
20
-1.92242
11
2.8333
21
-1.91228
0
LINE
8
BLACK
6
CONTINUOUS
10
2.8333
20
-1.91228
11
2.82564
21
-1.90302
0
LINE
8
BLACK
6
CONTINUOUS
10
2.82564
20
-1.90302
11
2.81688
21
-1.8948
0
LINE
8
BLACK
6
CONTINUOUS
10
2.81688
20
-1.8948
11
2.80716
21
-1.88773
0
LINE
8
BLACK
6
CONTINUOUS
10
2.80716
20
-1.88773
11
2.79664
21
-1.88195
0
LINE
8
BLACK
6
CONTINUOUS
10
2.79664
20
-1.88195
11
2.78547
21
-1.87752
0
LINE
8
BLACK
6
CONTINUOUS
10
2.78547
20
-1.87752
11
2.77383
21
-1.87454
0
LINE
8
BLACK
6
CONTINUOUS
10
2.77383
20
-1.87454
11
2.76191
21
-1.87303
0
LINE
8
BLACK
6
CONTINUOUS
10
2.76191
20
-1.87303
11
2.7499
21
-1.87303
0
LINE
8
BLACK
6
CONTINUOUS
10
2.7499
20
-1.87303
11
2.73798
21
-1.87454
0
LINE
8
BLACK
6
CONTINUOUS
10
2.73798
20
-1.87454
11
2.72634
21
-1.87752
0
LINE
8
BLACK
6
CONTINUOUS
10
2.72634
20
-1.87752
11
2.71517
21
-1.88195
0
LINE
8
BLACK
6
CONTINUOUS
10
2.71517
20
-1.88195
11
2.70465
21
-1.88773
0
LINE
8
BLACK
6
CONTINUOUS
10
2.70465
20
-1.88773
11
2.69493
21
-1.8948
0
LINE
8
BLACK
6
CONTINUOUS
10
2.69493
20
-1.8948
11
2.68617
21
-1.90302
0
LINE
8
BLACK
6
CONTINUOUS
10
2.68617
20
-1.90302
11
2.67851
21
-1.91228
0
LINE
8
BLACK
6
CONTINUOUS
10
2.67851
20
-1.91228
11
2.67208
21
-1.92242
0
LINE
8
BLACK
6
CONTINUOUS
10
2.67208
20
-1.92242
11
2.66696
21
-1.93329
0
LINE
8
BLACK
6
CONTINUOUS
10
2.66696
20
-1.93329
11
2.66325
21
-1.94471
0
LINE
8
BLACK
6
CONTINUOUS
10
2.66325
20
-1.94471
11
2.661
21
-1.95651
0
LINE
8
BLACK
6
CONTINUOUS
10
2.661
20
-1.95651
11
2.66024
21
-1.9685
0
LINE
8
BLACK
6
CONTINUOUS
10
2.66024
20
-1.9685
11
2.661
21
-1.98049
0
LINE
8
BLACK
6
CONTINUOUS
10
3.56157
20
-1.87279
11
3.57342
21
-1.87583
0
LINE
8
BLACK
6
CONTINUOUS
10
3.57342
20
-1.87583
11
3.5848
21
-1.88034
0
LINE
8
BLACK
6
CONTINUOUS
10
3.5848
20
-1.88034
11
3.59552
21
-1.88623
0
LINE
8
BLACK
6
CONTINUOUS
10
3.59552
20
-1.88623
11
3.60542
21
-1.89342
0
LINE
8
BLACK
6
CONTINUOUS
10
3.60542
20
-1.89342
11
3.61434
21
-1.9018
0
LINE
8
BLACK
6
CONTINUOUS
10
3.61434
20
-1.9018
11
3.62214
21
-1.91123
0
LINE
8
BLACK
6
CONTINUOUS
10
3.62214
20
-1.91123
11
3.6287
21
-1.92156
0
LINE
8
BLACK
6
CONTINUOUS
10
3.6287
20
-1.92156
11
3.63391
21
-1.93263
0
LINE
8
BLACK
6
CONTINUOUS
10
3.63391
20
-1.93263
11
3.63769
21
-1.94427
0
LINE
8
BLACK
6
CONTINUOUS
10
3.63769
20
-1.94427
11
3.63998
21
-1.95629
0
LINE
8
BLACK
6
CONTINUOUS
10
3.63998
20
-1.95629
11
3.64075
21
-1.9685
0
LINE
8
BLACK
6
CONTINUOUS
10
3.64075
20
-1.9685
11
3.63998
21
-1.98072
0
LINE
8
BLACK
6
CONTINUOUS
10
3.63998
20
-1.98072
11
3.63769
21
-1.99274
0
LINE
8
BLACK
6
CONTINUOUS
10
3.63769
20
-1.99274
11
3.63391
21
-2.00437
0
LINE
8
BLACK
6
CONTINUOUS
10
3.63391
20
-2.00437
11
3.6287
21
-2.01545
0
LINE
8
BLACK
6
CONTINUOUS
10
3.6287
20
-2.01545
11
3.62214
21
-2.02578
0
LINE
8
BLACK
6
CONTINUOUS
10
3.62214
20
-2.02578
11
3.61434
21
-2.03521
0
LINE
8
BLACK
6
CONTINUOUS
10
3.61434
20
-2.03521
11
3.60542
21
-2.04358
0
LINE
8
BLACK
6
CONTINUOUS
10
3.60542
20
-2.04358
11
3.59552
21
-2.05078
0
LINE
8
BLACK
6
CONTINUOUS
10
3.59552
20
-2.05078
11
3.5848
21
-2.05667
0
LINE
8
BLACK
6
CONTINUOUS
10
3.5848
20
-2.05667
11
3.57342
21
-2.06118
0
LINE
8
BLACK
6
CONTINUOUS
10
3.57342
20
-2.06118
11
3.56157
21
-2.06422
0
LINE
8
BLACK
6
CONTINUOUS
10
3.56157
20
-2.06422
11
3.54943
21
-2.06575
0
LINE
8
BLACK
6
CONTINUOUS
10
3.54943
20
-2.06575
11
3.53719
21
-2.06575
0
LINE
8
BLACK
6
CONTINUOUS
10
3.53719
20
-2.06575
11
3.52505
21
-2.06422
0
LINE
8
BLACK
6
CONTINUOUS
10
3.52505
20
-2.06422
11
3.5132
21
-2.06118
0
LINE
8
BLACK
6
CONTINUOUS
10
3.5132
20
-2.06118
11
3.50182
21
-2.05667
0
LINE
8
BLACK
6
CONTINUOUS
10
3.50182
20
-2.05667
11
3.4911
21
-2.05078
0
LINE
8
BLACK
6
CONTINUOUS
10
3.4911
20
-2.05078
11
3.4812
21
-2.04358
0
LINE
8
BLACK
6
CONTINUOUS
10
3.4812
20
-2.04358
11
3.47228
21
-2.03521
0
LINE
8
BLACK
6
CONTINUOUS
10
3.47228
20
-2.03521
11
3.46448
21
-2.02578
0
LINE
8
BLACK
6
CONTINUOUS
10
3.46448
20
-2.02578
11
3.45792
21
-2.01545
0
LINE
8
BLACK
6
CONTINUOUS
10
3.45792
20
-2.01545
11
3.45271
21
-2.00437
0
LINE
8
BLACK
6
CONTINUOUS
10
3.45271
20
-2.00437
11
3.44893
21
-1.99274
0
LINE
8
BLACK
6
CONTINUOUS
10
3.44893
20
-1.99274
11
3.44663
21
-1.98072
0
LINE
8
BLACK
6
CONTINUOUS
10
3.44663
20
-1.98072
11
3.44587
21
-1.9685
0
LINE
8
BLACK
6
CONTINUOUS
10
3.44587
20
-1.9685
11
3.44663
21
-1.95629
0
LINE
8
BLACK
6
CONTINUOUS
10
3.44663
20
-1.95629
11
3.44893
21
-1.94427
0
LINE
8
BLACK
6
CONTINUOUS
10
3.44893
20
-1.94427
11
3.45271
21
-1.93263
0
LINE
8
BLACK
6
CONTINUOUS
10
3.45271
20
-1.93263
11
3.45792
21
-1.92156
0
LINE
8
BLACK
6
CONTINUOUS
10
3.45792
20
-1.92156
11
3.46448
21
-1.91123
0
LINE
8
BLACK
6
CONTINUOUS
10
3.46448
20
-1.91123
11
3.47228
21
-1.9018
0
LINE
8
BLACK
6
CONTINUOUS
10
3.47228
20
-1.9018
11
3.4812
21
-1.89342
0
LINE
8
BLACK
6
CONTINUOUS
10
3.4812
20
-1.89342
11
3.4911
21
-1.88623
0
LINE
8
BLACK
6
CONTINUOUS
10
3.4911
20
-1.88623
11
3.50182
21
-1.88034
0
LINE
8
BLACK
6
CONTINUOUS
10
3.50182
20
-1.88034
11
3.5132
21
-1.87583
0
LINE
8
BLACK
6
CONTINUOUS
10
3.5132
20
-1.87583
11
3.52505
21
-1.87279
0
LINE
8
BLACK
6
CONTINUOUS
10
3.52505
20
-1.87279
11
3.53719
21
-1.87126
0
LINE
8
BLACK
6
CONTINUOUS
10
3.53719
20
-1.87126
11
3.54943
21
-1.87126
0
LINE
8
BLACK
6
CONTINUOUS
10
3.54943
20
-1.87126
11
3.56157
21
-1.87279
0
LINE
8
BLACK
6
CONTINUOUS
10
3.4484
20
-1.98049
11
3.45065
21
-1.99229
0
LINE
8
BLACK
6
CONTINUOUS
10
3.45065
20
-1.99229
11
3.45436
21
-2.00372
0
LINE
8
BLACK
6
CONTINUOUS
10
3.45436
20
-2.00372
11
3.45948
21
-2.01459
0
LINE
8
BLACK
6
CONTINUOUS
10
3.45948
20
-2.01459
11
3.46592
21
-2.02473
0
LINE
8
BLACK
6
CONTINUOUS
10
3.46592
20
-2.02473
11
3.47357
21
-2.03399
0
LINE
8
BLACK
6
CONTINUOUS
10
3.47357
20
-2.03399
11
3.48233
21
-2.04221
0
LINE
8
BLACK
6
CONTINUOUS
10
3.48233
20
-2.04221
11
3.49205
21
-2.04927
0
LINE
8
BLACK
6
CONTINUOUS
10
3.49205
20
-2.04927
11
3.50258
21
-2.05506
0
LINE
8
BLACK
6
CONTINUOUS
10
3.50258
20
-2.05506
11
3.51375
21
-2.05948
0
LINE
8
BLACK
6
CONTINUOUS
10
3.51375
20
-2.05948
11
3.52538
21
-2.06247
0
LINE
8
BLACK
6
CONTINUOUS
10
3.52538
20
-2.06247
11
3.5373
21
-2.06398
0
LINE
8
BLACK
6
CONTINUOUS
10
3.5373
20
-2.06398
11
3.54931
21
-2.06398
0
LINE
8
BLACK
6
CONTINUOUS
10
3.54931
20
-2.06398
11
3.56123
21
-2.06247
0
LINE
8
BLACK
6
CONTINUOUS
10
3.56123
20
-2.06247
11
3.57287
21
-2.05948
0
LINE
8
BLACK
6
CONTINUOUS
10
3.57287
20
-2.05948
11
3.58404
21
-2.05506
0
LINE
8
BLACK
6
CONTINUOUS
10
3.58404
20
-2.05506
11
3.59456
21
-2.04927
0
LINE
8
BLACK
6
CONTINUOUS
10
3.59456
20
-2.04927
11
3.60428
21
-2.04221
0
LINE
8
BLACK
6
CONTINUOUS
10
3.60428
20
-2.04221
11
3.61304
21
-2.03399
0
LINE
8
BLACK
6
CONTINUOUS
10
3.61304
20
-2.03399
11
3.6207
21
-2.02473
0
LINE
8
BLACK
6
CONTINUOUS
10
3.6207
20
-2.02473
11
3.62714
21
-2.01459
0
LINE
8
BLACK
6
CONTINUOUS
10
3.62714
20
-2.01459
11
3.63225
21
-2.00372
0
LINE
8
BLACK
6
CONTINUOUS
10
3.63225
20
-2.00372
11
3.63596
21
-1.99229
0
LINE
8
BLACK
6
CONTINUOUS
10
3.63596
20
-1.99229
11
3.63821
21
-1.98049
0
LINE
8
BLACK
6
CONTINUOUS
10
3.63821
20
-1.98049
11
3.63897
21
-1.9685
0
LINE
8
BLACK
6
CONTINUOUS
10
3.63897
20
-1.9685
11
3.63821
21
-1.95651
0
LINE
8
BLACK
6
CONTINUOUS
10
3.63821
20
-1.95651
11
3.63596
21
-1.94471
0
LINE
8
BLACK
6
CONTINUOUS
10
3.63596
20
-1.94471
11
3.63225
21
-1.93329
0
LINE
8
BLACK
6
CONTINUOUS
10
3.63225
20
-1.93329
11
3.62714
21
-1.92242
0
LINE
8
BLACK
6
CONTINUOUS
10
3.62714
20
-1.92242
11
3.6207
21
-1.91228
0
LINE
8
BLACK
6
CONTINUOUS
10
3.6207
20
-1.91228
11
3.61304
21
-1.90302
0
LINE
8
BLACK
6
CONTINUOUS
10
3.61304
20
-1.90302
11
3.60428
21
-1.8948
0
LINE
8
BLACK
6
CONTINUOUS
10
3.60428
20
-1.8948
11
3.59456
21
-1.88773
0
LINE
8
BLACK
6
CONTINUOUS
10
3.59456
20
-1.88773
11
3.58404
21
-1.88195
0
LINE
8
BLACK
6
CONTINUOUS
10
3.58404
20
-1.88195
11
3.57287
21
-1.87752
0
LINE
8
BLACK
6
CONTINUOUS
10
3.57287
20
-1.87752
11
3.56123
21
-1.87454
0
LINE
8
BLACK
6
CONTINUOUS
10
3.56123
20
-1.87454
11
3.54931
21
-1.87303
0
LINE
8
BLACK
6
CONTINUOUS
10
3.54931
20
-1.87303
11
3.5373
21
-1.87303
0
LINE
8
BLACK
6
CONTINUOUS
10
3.5373
20
-1.87303
11
3.52538
21
-1.87454
0
LINE
8
BLACK
6
CONTINUOUS
10
3.52538
20
-1.87454
11
3.51375
21
-1.87752
0
LINE
8
BLACK
6
CONTINUOUS
10
3.51375
20
-1.87752
11
3.50258
21
-1.88195
0
LINE
8
BLACK
6
CONTINUOUS
10
3.50258
20
-1.88195
11
3.49205
21
-1.88773
0
LINE
8
BLACK
6
CONTINUOUS
10
3.49205
20
-1.88773
11
3.48233
21
-1.8948
0
LINE
8
BLACK
6
CONTINUOUS
10
3.48233
20
-1.8948
11
3.47357
21
-1.90302
0
LINE
8
BLACK
6
CONTINUOUS
10
3.47357
20
-1.90302
11
3.46592
21
-1.91228
0
LINE
8
BLACK
6
CONTINUOUS
10
3.46592
20
-1.91228
11
3.45948
21
-1.92242
0
LINE
8
BLACK
6
CONTINUOUS
10
3.45948
20
-1.92242
11
3.45436
21
-1.93329
0
LINE
8
BLACK
6
CONTINUOUS
10
3.45436
20
-1.93329
11
3.45065
21
-1.94471
0
LINE
8
BLACK
6
CONTINUOUS
10
3.45065
20
-1.94471
11
3.4484
21
-1.95651
0
LINE
8
BLACK
6
CONTINUOUS
10
3.4484
20
-1.95651
11
3.44765
21
-1.9685
0
LINE
8
BLACK
6
CONTINUOUS
10
3.44765
20
-1.9685
11
3.4484
21
-1.98049
0
LINE
8
BLACK
6
CONTINUOUS
10
3.18898
20
-1.96752
11
3.18967
21
-1.96781
0
LINE
8
BLACK
6
CONTINUOUS
10
3.18967
20
-1.96781
11
3.18996
21
-1.9685
0
LINE
8
BLACK
6
CONTINUOUS
10
3.18996
20
-1.9685
11
3.18996
21
-2.04724
0
LINE
8
BLACK
6
CONTINUOUS
10
3.18996
20
-2.04724
11
3.18967
21
-2.04794
0
LINE
8
BLACK
6
CONTINUOUS
10
3.18967
20
-2.04794
11
3.18898
21
-2.04823
0
LINE
8
BLACK
6
CONTINUOUS
10
3.18898
20
-2.04823
11
3.11024
21
-2.04823
0
LINE
8
BLACK
6
CONTINUOUS
10
3.11024
20
-2.04823
11
3.10954
21
-2.04794
0
LINE
8
BLACK
6
CONTINUOUS
10
3.10954
20
-2.04794
11
3.10925
21
-2.04724
0
LINE
8
BLACK
6
CONTINUOUS
10
3.10925
20
-2.04724
11
3.10925
21
-2.04587
0
LINE
8
BLACK
6
CONTINUOUS
10
3.10925
20
-2.04587
11
3.08268
21
-2.04587
0
LINE
8
BLACK
6
CONTINUOUS
10
3.08268
20
-2.04587
11
3.08198
21
-2.04558
0
LINE
8
BLACK
6
CONTINUOUS
10
3.08198
20
-2.04558
11
3.08169
21
-2.04488
0
LINE
8
BLACK
6
CONTINUOUS
10
3.08169
20
-2.04488
11
3.08169
21
-1.97559
0
LINE
8
BLACK
6
CONTINUOUS
10
3.08169
20
-1.97559
11
3.08198
21
-1.97489
0
LINE
8
BLACK
6
CONTINUOUS
10
3.08198
20
-1.97489
11
3.08268
21
-1.97461
0
LINE
8
BLACK
6
CONTINUOUS
10
3.08268
20
-1.97461
11
3.10925
21
-1.97461
0
LINE
8
BLACK
6
CONTINUOUS
10
3.10925
20
-1.97461
11
3.10925
21
-1.9685
0
LINE
8
BLACK
6
CONTINUOUS
10
3.10925
20
-1.9685
11
3.10954
21
-1.96781
0
LINE
8
BLACK
6
CONTINUOUS
10
3.10954
20
-1.96781
11
3.11024
21
-1.96752
0
LINE
8
BLACK
6
CONTINUOUS
10
3.11024
20
-1.96752
11
3.18898
21
-1.96752
0
LINE
8
BLACK
6
CONTINUOUS
10
3.11122
20
-1.96949
11
3.11122
21
-2.04626
0
LINE
8
BLACK
6
CONTINUOUS
10
3.11122
20
-2.04626
11
3.18799
21
-2.04626
0
LINE
8
BLACK
6
CONTINUOUS
10
3.18799
20
-2.04626
11
3.18799
21
-1.96949
0
LINE
8
BLACK
6
CONTINUOUS
10
3.18799
20
-1.96949
11
3.11122
21
-1.96949
0
LINE
8
BLACK
6
CONTINUOUS
10
3.08366
20
-1.97657
11
3.08366
21
-2.0439
0
LINE
8
BLACK
6
CONTINUOUS
10
3.08366
20
-2.0439
11
3.10925
21
-2.0439
0
LINE
8
BLACK
6
CONTINUOUS
10
3.10925
20
-2.0439
11
3.10925
21
-1.97657
0
LINE
8
BLACK
6
CONTINUOUS
10
3.10925
20
-1.97657
11
3.08366
21
-1.97657
  0
ENDSEC
  0
EOF
