  0
SECTION
  2
HEADER
  9
$ANGBASE
  50
0.0
  9
$ANGDIR
  70
1
  9
$MEASUREMENT
  70
0
  0
ENDSEC
  0
SECTION
  2
TABLES
  0
TABLE
  2
LTYPE
  70
4
  0
LTYPE
  5
40F
  2
CONTINUOUS
  70
0
  3
Solid line
  72
65
  73
0
  40
0.0
  0
LTYPE
  5
410
  2
DASHDOT
 70
0
  3
Dash Dot ____ _ ____ _
 72
65
 73
4
 40
2.0
 49
1.25
 49
-0.25
 49
0.25
 49
-0.25
  0
LTYPE
  5
411
  2
DASHED
 70
0
  3
Dashed __ __ __ __ __
 72
65
 73
2
 40
0.75
 49
0.5
 49
-0.25
  0
LTYPE
  5
43B
  2
DOTTED
 70
0
  3
Dotted .  .  .  .
 72
65
 73
2
 40
0.2
 49
0.0
 49
-0.2
  0
ENDTAB
  0
TABLE
  2
STYLE
  70
4
  0
STYLE
  2
KICAD
  70
0
  40
0
  41
1
  42
1
  50
0
  71
0
  3
isocp.shx
  0
STYLE
  2
KICADB
  70
0
  40
0
  41
1
  42
1
  50
0
  71
0
  3
isocp.shx
  0
STYLE
  2
KICADI
  70
0
  40
0
  41
1
  42
1
  50
15
  71
0
  3
isocp.shx
  0
STYLE
  2
KICADBI
  70
0
  40
0
  41
1
  42
1
  50
15
  71
0
  3
isocp.shx
  0
ENDTAB
  0
TABLE
  2
LAYER
  70
1
  0
LAYER
  2
BLACK
  70
0
  62
7
  6
CONTINUOUS
  0
ENDTAB
  0
ENDSEC
  0
SECTION
  2
ENTITIES
0
LINE
8
BLACK
6
CONTINUOUS
10
3.58276
20
-1.88979
11
3.58447
21
-1.88994
0
LINE
8
BLACK
6
CONTINUOUS
10
3.58447
20
-1.88994
11
3.58952
21
-1.89044
0
LINE
8
BLACK
6
CONTINUOUS
10
3.58952
20
-1.89044
11
3.59015
21
-1.89055
0
LINE
8
BLACK
6
CONTINUOUS
10
3.59015
20
-1.89055
11
3.59282
21
-1.89127
0
LINE
8
BLACK
6
CONTINUOUS
10
3.59282
20
-1.89127
11
3.59288
21
-1.89128
0
LINE
8
BLACK
6
CONTINUOUS
10
3.59288
20
-1.89128
11
3.59659
21
-1.89241
0
LINE
8
BLACK
6
CONTINUOUS
10
3.59659
20
-1.89241
11
3.5971
21
-1.89261
0
LINE
8
BLACK
6
CONTINUOUS
10
3.5971
20
-1.89261
11
3.59983
21
-1.89388
0
LINE
8
BLACK
6
CONTINUOUS
10
3.59983
20
-1.89388
11
3.59992
21
-1.89393
0
LINE
8
BLACK
6
CONTINUOUS
10
3.59992
20
-1.89393
11
3.60327
21
-1.89571
0
LINE
8
BLACK
6
CONTINUOUS
10
3.60327
20
-1.89571
11
3.60347
21
-1.89584
0
LINE
8
BLACK
6
CONTINUOUS
10
3.60347
20
-1.89584
11
3.60611
21
-1.89769
0
LINE
8
BLACK
6
CONTINUOUS
10
3.60611
20
-1.89769
11
3.60623
21
-1.89778
0
LINE
8
BLACK
6
CONTINUOUS
10
3.60623
20
-1.89778
11
3.60759
21
-1.8989
0
LINE
8
BLACK
6
CONTINUOUS
10
3.60759
20
-1.8989
11
3.60911
21
-1.90014
0
LINE
8
BLACK
6
CONTINUOUS
10
3.60911
20
-1.90014
11
3.60925
21
-1.90027
0
LINE
8
BLACK
6
CONTINUOUS
10
3.60925
20
-1.90027
11
3.61155
21
-1.90256
0
LINE
8
BLACK
6
CONTINUOUS
10
3.61155
20
-1.90256
11
3.61167
21
-1.90271
0
LINE
8
BLACK
6
CONTINUOUS
10
3.61167
20
-1.90271
11
3.61403
21
-1.90558
0
LINE
8
BLACK
6
CONTINUOUS
10
3.61403
20
-1.90558
11
3.61412
21
-1.9057
0
LINE
8
BLACK
6
CONTINUOUS
10
3.61412
20
-1.9057
11
3.61598
21
-1.90834
0
LINE
8
BLACK
6
CONTINUOUS
10
3.61598
20
-1.90834
11
3.6161
21
-1.90854
0
LINE
8
BLACK
6
CONTINUOUS
10
3.6161
20
-1.90854
11
3.61788
21
-1.91189
0
LINE
8
BLACK
6
CONTINUOUS
10
3.61788
20
-1.91189
11
3.61793
21
-1.91198
0
LINE
8
BLACK
6
CONTINUOUS
10
3.61793
20
-1.91198
11
3.6192
21
-1.91471
0
LINE
8
BLACK
6
CONTINUOUS
10
3.6192
20
-1.91471
11
3.6194
21
-1.91523
0
LINE
8
BLACK
6
CONTINUOUS
10
3.6194
20
-1.91523
11
3.62053
21
-1.91893
0
LINE
8
BLACK
6
CONTINUOUS
10
3.62053
20
-1.91893
11
3.62054
21
-1.91899
0
LINE
8
BLACK
6
CONTINUOUS
10
3.62054
20
-1.91899
11
3.62126
21
-1.92166
0
LINE
8
BLACK
6
CONTINUOUS
10
3.62126
20
-1.92166
11
3.62137
21
-1.92229
0
LINE
8
BLACK
6
CONTINUOUS
10
3.62137
20
-1.92229
11
3.62187
21
-1.92734
0
LINE
8
BLACK
6
CONTINUOUS
10
3.62187
20
-1.92734
11
3.62202
21
-1.92905
0
LINE
8
BLACK
6
CONTINUOUS
10
3.62202
20
-1.92905
11
3.62203
21
-1.92922
0
LINE
8
BLACK
6
CONTINUOUS
10
3.62203
20
-1.92922
11
3.62203
21
-2.38398
0
LINE
8
BLACK
6
CONTINUOUS
10
3.62203
20
-2.38398
11
3.62128
21
-2.38627
0
LINE
8
BLACK
6
CONTINUOUS
10
3.62128
20
-2.38627
11
3.61933
21
-2.38769
0
LINE
8
BLACK
6
CONTINUOUS
10
3.61933
20
-2.38769
11
3.61693
21
-2.38769
0
LINE
8
BLACK
6
CONTINUOUS
10
3.61693
20
-2.38769
11
3.61537
21
-2.38674
0
LINE
8
BLACK
6
CONTINUOUS
10
3.61537
20
-2.38674
11
3.6096
21
-2.38096
0
LINE
8
BLACK
6
CONTINUOUS
10
3.6096
20
-2.38096
11
3.60948
21
-2.38084
0
LINE
8
BLACK
6
CONTINUOUS
10
3.60948
20
-2.38084
11
3.60844
21
-2.3796
0
LINE
8
BLACK
6
CONTINUOUS
10
3.60844
20
-2.3796
11
3.60755
21
-2.37908
0
LINE
8
BLACK
6
CONTINUOUS
10
3.60755
20
-2.37908
11
3.60704
21
-2.37879
0
LINE
8
BLACK
6
CONTINUOUS
10
3.60704
20
-2.37879
11
3.6069
21
-2.3787
0
LINE
8
BLACK
6
CONTINUOUS
10
3.6069
20
-2.3787
11
3.60558
21
-2.37777
0
LINE
8
BLACK
6
CONTINUOUS
10
3.60558
20
-2.37777
11
3.60558
21
-2.37777
0
LINE
8
BLACK
6
CONTINUOUS
10
3.60558
20
-2.37777
11
3.60552
21
-2.37776
0
LINE
8
BLACK
6
CONTINUOUS
10
3.60552
20
-2.37776
11
3.60458
21
-2.37737
0
LINE
8
BLACK
6
CONTINUOUS
10
3.60458
20
-2.37737
11
3.60453
21
-2.37734
0
LINE
8
BLACK
6
CONTINUOUS
10
3.60453
20
-2.37734
11
3.60294
21
-2.37706
0
LINE
8
BLACK
6
CONTINUOUS
10
3.60294
20
-2.37706
11
3.60277
21
-2.37702
0
LINE
8
BLACK
6
CONTINUOUS
10
3.60277
20
-2.37702
11
3.60174
21
-2.37674
0
LINE
8
BLACK
6
CONTINUOUS
10
3.60174
20
-2.37674
11
3.60121
21
-2.3766
0
LINE
8
BLACK
6
CONTINUOUS
10
3.60121
20
-2.3766
11
3.60121
21
-2.3766
0
LINE
8
BLACK
6
CONTINUOUS
10
3.60121
20
-2.3766
11
3.60104
21
-2.37662
0
LINE
8
BLACK
6
CONTINUOUS
10
3.60104
20
-2.37662
11
3.5996
21
-2.37674
0
LINE
8
BLACK
6
CONTINUOUS
10
3.5996
20
-2.37674
11
3.59943
21
-2.37675
0
LINE
8
BLACK
6
CONTINUOUS
10
3.59943
20
-2.37675
11
3.5482
21
-2.37675
0
LINE
8
BLACK
6
CONTINUOUS
10
3.5482
20
-2.37675
11
3.54803
21
-2.37674
0
LINE
8
BLACK
6
CONTINUOUS
10
3.54803
20
-2.37674
11
3.54642
21
-2.3766
0
LINE
8
BLACK
6
CONTINUOUS
10
3.54642
20
-2.3766
11
3.54486
21
-2.37702
0
LINE
8
BLACK
6
CONTINUOUS
10
3.54486
20
-2.37702
11
3.5447
21
-2.37706
0
LINE
8
BLACK
6
CONTINUOUS
10
3.5447
20
-2.37706
11
3.54311
21
-2.37734
0
LINE
8
BLACK
6
CONTINUOUS
10
3.54311
20
-2.37734
11
3.54311
21
-2.37734
0
LINE
8
BLACK
6
CONTINUOUS
10
3.54311
20
-2.37734
11
3.54306
21
-2.37737
0
LINE
8
BLACK
6
CONTINUOUS
10
3.54306
20
-2.37737
11
3.54212
21
-2.37776
0
LINE
8
BLACK
6
CONTINUOUS
10
3.54212
20
-2.37776
11
3.54206
21
-2.37777
0
LINE
8
BLACK
6
CONTINUOUS
10
3.54206
20
-2.37777
11
3.54206
21
-2.37777
0
LINE
8
BLACK
6
CONTINUOUS
10
3.54206
20
-2.37777
11
3.54074
21
-2.3787
0
LINE
8
BLACK
6
CONTINUOUS
10
3.54074
20
-2.3787
11
3.54059
21
-2.37879
0
LINE
8
BLACK
6
CONTINUOUS
10
3.54059
20
-2.37879
11
3.54027
21
-2.37898
0
LINE
8
BLACK
6
CONTINUOUS
10
3.54027
20
-2.37898
11
3.53919
21
-2.3796
0
LINE
8
BLACK
6
CONTINUOUS
10
3.53919
20
-2.3796
11
3.53816
21
-2.38084
0
LINE
8
BLACK
6
CONTINUOUS
10
3.53816
20
-2.38084
11
3.53804
21
-2.38096
0
LINE
8
BLACK
6
CONTINUOUS
10
3.53804
20
-2.38096
11
3.52351
21
-2.39549
0
LINE
8
BLACK
6
CONTINUOUS
10
3.52351
20
-2.39549
11
3.52136
21
-2.39659
0
LINE
8
BLACK
6
CONTINUOUS
10
3.52136
20
-2.39659
11
3.52075
21
-2.39663
0
LINE
8
BLACK
6
CONTINUOUS
10
3.52075
20
-2.39663
11
3.52065
21
-2.39663
0
LINE
8
BLACK
6
CONTINUOUS
10
3.52065
20
-2.39663
11
3.51836
21
-2.39589
0
LINE
8
BLACK
6
CONTINUOUS
10
3.51836
20
-2.39589
11
3.51694
21
-2.39394
0
LINE
8
BLACK
6
CONTINUOUS
10
3.51694
20
-2.39394
11
3.51675
21
-2.39274
0
LINE
8
BLACK
6
CONTINUOUS
10
3.51675
20
-2.39274
11
3.51675
21
-2.3051
0
LINE
8
BLACK
6
CONTINUOUS
10
3.51675
20
-2.3051
11
3.5175
21
-2.30281
0
LINE
8
BLACK
6
CONTINUOUS
10
3.5175
20
-2.30281
11
3.51945
21
-2.30139
0
LINE
8
BLACK
6
CONTINUOUS
10
3.51945
20
-2.30139
11
3.52065
21
-2.3012
0
LINE
8
BLACK
6
CONTINUOUS
10
3.52065
20
-2.3012
11
3.5244
21
-2.3012
0
LINE
8
BLACK
6
CONTINUOUS
10
3.5244
20
-2.3012
11
3.5244
21
-2.3012
0
LINE
8
BLACK
6
CONTINUOUS
10
3.5244
20
-2.3012
11
3.5267
21
-2.30074
0
LINE
8
BLACK
6
CONTINUOUS
10
3.5267
20
-2.30074
11
3.52931
21
-2.299
0
LINE
8
BLACK
6
CONTINUOUS
10
3.52931
20
-2.299
11
3.53106
21
-2.29639
0
LINE
8
BLACK
6
CONTINUOUS
10
3.53106
20
-2.29639
11
3.53152
21
-2.29408
0
LINE
8
BLACK
6
CONTINUOUS
10
3.53152
20
-2.29408
11
3.53152
21
-2.26344
0
LINE
8
BLACK
6
CONTINUOUS
10
3.53152
20
-2.26344
11
3.53146
21
-2.26333
0
LINE
8
BLACK
6
CONTINUOUS
10
3.53146
20
-2.26333
11
3.53069
21
-2.25846
0
LINE
8
BLACK
6
CONTINUOUS
10
3.53069
20
-2.25846
11
3.53146
21
-2.2536
0
LINE
8
BLACK
6
CONTINUOUS
10
3.53146
20
-2.2536
11
3.53152
21
-2.25349
0
LINE
8
BLACK
6
CONTINUOUS
10
3.53152
20
-2.25349
11
3.53152
21
-2.24508
0
LINE
8
BLACK
6
CONTINUOUS
10
3.53152
20
-2.24508
11
3.53152
21
-2.23327
0
LINE
8
BLACK
6
CONTINUOUS
10
3.53152
20
-2.23327
11
3.53152
21
-2.18426
0
LINE
8
BLACK
6
CONTINUOUS
10
3.53152
20
-2.18426
11
3.53106
21
-2.18196
0
LINE
8
BLACK
6
CONTINUOUS
10
3.53106
20
-2.18196
11
3.52931
21
-2.17935
0
LINE
8
BLACK
6
CONTINUOUS
10
3.52931
20
-2.17935
11
3.52931
21
-2.17935
0
LINE
8
BLACK
6
CONTINUOUS
10
3.52931
20
-2.17935
11
3.5267
21
-2.1776
0
LINE
8
BLACK
6
CONTINUOUS
10
3.5267
20
-2.1776
11
3.5267
21
-2.1776
0
LINE
8
BLACK
6
CONTINUOUS
10
3.5267
20
-2.1776
11
3.5267
21
-2.1776
0
LINE
8
BLACK
6
CONTINUOUS
10
3.5267
20
-2.1776
11
3.5267
21
-2.1776
0
LINE
8
BLACK
6
CONTINUOUS
10
3.5267
20
-2.1776
11
3.5244
21
-2.17715
0
LINE
8
BLACK
6
CONTINUOUS
10
3.5244
20
-2.17715
11
3.5244
21
-2.17715
0
LINE
8
BLACK
6
CONTINUOUS
10
3.5244
20
-2.17715
11
3.48347
21
-2.17715
0
LINE
8
BLACK
6
CONTINUOUS
10
3.48347
20
-2.17715
11
3.48347
21
-2.17715
0
LINE
8
BLACK
6
CONTINUOUS
10
3.48347
20
-2.17715
11
3.48347
21
-2.17715
0
LINE
8
BLACK
6
CONTINUOUS
10
3.48347
20
-2.17715
11
3.48117
21
-2.1776
0
LINE
8
BLACK
6
CONTINUOUS
10
3.48117
20
-2.1776
11
3.48117
21
-2.1776
0
LINE
8
BLACK
6
CONTINUOUS
10
3.48117
20
-2.1776
11
3.47856
21
-2.17935
0
LINE
8
BLACK
6
CONTINUOUS
10
3.47856
20
-2.17935
11
3.47856
21
-2.17935
0
LINE
8
BLACK
6
CONTINUOUS
10
3.47856
20
-2.17935
11
3.47682
21
-2.18196
0
LINE
8
BLACK
6
CONTINUOUS
10
3.47682
20
-2.18196
11
3.47682
21
-2.18196
0
LINE
8
BLACK
6
CONTINUOUS
10
3.47682
20
-2.18196
11
3.47636
21
-2.18426
0
LINE
8
BLACK
6
CONTINUOUS
10
3.47636
20
-2.18426
11
3.47636
21
-2.18426
0
LINE
8
BLACK
6
CONTINUOUS
10
3.47636
20
-2.18426
11
3.47636
21
-2.29408
0
LINE
8
BLACK
6
CONTINUOUS
10
3.47636
20
-2.29408
11
3.47636
21
-2.29408
0
LINE
8
BLACK
6
CONTINUOUS
10
3.47636
20
-2.29408
11
3.47682
21
-2.29639
0
LINE
8
BLACK
6
CONTINUOUS
10
3.47682
20
-2.29639
11
3.47682
21
-2.29639
0
LINE
8
BLACK
6
CONTINUOUS
10
3.47682
20
-2.29639
11
3.47856
21
-2.299
0
LINE
8
BLACK
6
CONTINUOUS
10
3.47856
20
-2.299
11
3.48117
21
-2.30074
0
LINE
8
BLACK
6
CONTINUOUS
10
3.48117
20
-2.30074
11
3.48292
21
-2.30109
0
LINE
8
BLACK
6
CONTINUOUS
10
3.48292
20
-2.30109
11
3.48347
21
-2.3012
0
LINE
8
BLACK
6
CONTINUOUS
10
3.48347
20
-2.3012
11
3.48347
21
-2.3012
0
LINE
8
BLACK
6
CONTINUOUS
10
3.48347
20
-2.3012
11
3.48347
21
-2.3012
0
LINE
8
BLACK
6
CONTINUOUS
10
3.48347
20
-2.3012
11
3.48722
21
-2.3012
0
LINE
8
BLACK
6
CONTINUOUS
10
3.48722
20
-2.3012
11
3.48952
21
-2.30195
0
LINE
8
BLACK
6
CONTINUOUS
10
3.48952
20
-2.30195
11
3.49093
21
-2.30389
0
LINE
8
BLACK
6
CONTINUOUS
10
3.49093
20
-2.30389
11
3.49112
21
-2.3051
0
LINE
8
BLACK
6
CONTINUOUS
10
3.49112
20
-2.3051
11
3.49112
21
-2.39274
0
LINE
8
BLACK
6
CONTINUOUS
10
3.49112
20
-2.39274
11
3.49038
21
-2.39503
0
LINE
8
BLACK
6
CONTINUOUS
10
3.49038
20
-2.39503
11
3.48843
21
-2.39644
0
LINE
8
BLACK
6
CONTINUOUS
10
3.48843
20
-2.39644
11
3.48722
21
-2.39663
0
LINE
8
BLACK
6
CONTINUOUS
10
3.48722
20
-2.39663
11
3.48442
21
-2.39663
0
LINE
8
BLACK
6
CONTINUOUS
10
3.48442
20
-2.39663
11
3.48213
21
-2.39589
0
LINE
8
BLACK
6
CONTINUOUS
10
3.48213
20
-2.39589
11
3.48133
21
-2.39511
0
LINE
8
BLACK
6
CONTINUOUS
10
3.48133
20
-2.39511
11
3.47789
21
-2.39062
0
LINE
8
BLACK
6
CONTINUOUS
10
3.47789
20
-2.39062
11
3.47788
21
-2.39062
0
LINE
8
BLACK
6
CONTINUOUS
10
3.47788
20
-2.39062
11
3.47788
21
-2.39062
0
LINE
8
BLACK
6
CONTINUOUS
10
3.47788
20
-2.39062
11
3.47295
21
-2.38683
0
LINE
8
BLACK
6
CONTINUOUS
10
3.47295
20
-2.38683
11
3.4672
21
-2.38445
0
LINE
8
BLACK
6
CONTINUOUS
10
3.4672
20
-2.38445
11
3.4672
21
-2.38445
0
LINE
8
BLACK
6
CONTINUOUS
10
3.4672
20
-2.38445
11
3.46102
21
-2.38363
0
LINE
8
BLACK
6
CONTINUOUS
10
3.46102
20
-2.38363
11
3.46102
21
-2.38363
0
LINE
8
BLACK
6
CONTINUOUS
10
3.46102
20
-2.38363
11
3.45485
21
-2.38445
0
LINE
8
BLACK
6
CONTINUOUS
10
3.45485
20
-2.38445
11
3.45485
21
-2.38445
0
LINE
8
BLACK
6
CONTINUOUS
10
3.45485
20
-2.38445
11
3.4491
21
-2.38683
0
LINE
8
BLACK
6
CONTINUOUS
10
3.4491
20
-2.38683
11
3.4491
21
-2.38683
0
LINE
8
BLACK
6
CONTINUOUS
10
3.4491
20
-2.38683
11
3.44416
21
-2.39062
0
LINE
8
BLACK
6
CONTINUOUS
10
3.44416
20
-2.39062
11
3.44416
21
-2.39062
0
LINE
8
BLACK
6
CONTINUOUS
10
3.44416
20
-2.39062
11
3.44037
21
-2.39556
0
LINE
8
BLACK
6
CONTINUOUS
10
3.44037
20
-2.39556
11
3.44037
21
-2.39556
0
LINE
8
BLACK
6
CONTINUOUS
10
3.44037
20
-2.39556
11
3.43799
21
-2.40131
0
LINE
8
BLACK
6
CONTINUOUS
10
3.43799
20
-2.40131
11
3.43799
21
-2.40131
0
LINE
8
BLACK
6
CONTINUOUS
10
3.43799
20
-2.40131
11
3.43718
21
-2.40748
0
LINE
8
BLACK
6
CONTINUOUS
10
3.43718
20
-2.40748
11
3.43718
21
-2.40748
0
LINE
8
BLACK
6
CONTINUOUS
10
3.43718
20
-2.40748
11
3.43799
21
-2.41365
0
LINE
8
BLACK
6
CONTINUOUS
10
3.43799
20
-2.41365
11
3.43799
21
-2.41365
0
LINE
8
BLACK
6
CONTINUOUS
10
3.43799
20
-2.41365
11
3.44037
21
-2.4194
0
LINE
8
BLACK
6
CONTINUOUS
10
3.44037
20
-2.4194
11
3.44037
21
-2.4194
0
LINE
8
BLACK
6
CONTINUOUS
10
3.44037
20
-2.4194
11
3.44351
21
-2.42349
0
LINE
8
BLACK
6
CONTINUOUS
10
3.44351
20
-2.42349
11
3.44416
21
-2.42434
0
LINE
8
BLACK
6
CONTINUOUS
10
3.44416
20
-2.42434
11
3.4491
21
-2.42813
0
LINE
8
BLACK
6
CONTINUOUS
10
3.4491
20
-2.42813
11
3.4491
21
-2.42813
0
LINE
8
BLACK
6
CONTINUOUS
10
3.4491
20
-2.42813
11
3.4491
21
-2.42813
0
LINE
8
BLACK
6
CONTINUOUS
10
3.4491
20
-2.42813
11
3.45231
21
-2.42946
0
LINE
8
BLACK
6
CONTINUOUS
10
3.45231
20
-2.42946
11
3.45485
21
-2.43051
0
LINE
8
BLACK
6
CONTINUOUS
10
3.45485
20
-2.43051
11
3.45948
21
-2.43112
0
LINE
8
BLACK
6
CONTINUOUS
10
3.45948
20
-2.43112
11
3.46102
21
-2.43133
0
LINE
8
BLACK
6
CONTINUOUS
10
3.46102
20
-2.43133
11
3.46102
21
-2.43133
0
LINE
8
BLACK
6
CONTINUOUS
10
3.46102
20
-2.43133
11
3.46102
21
-2.43133
0
LINE
8
BLACK
6
CONTINUOUS
10
3.46102
20
-2.43133
11
3.46226
21
-2.43116
0
LINE
8
BLACK
6
CONTINUOUS
10
3.46226
20
-2.43116
11
3.4672
21
-2.43051
0
LINE
8
BLACK
6
CONTINUOUS
10
3.4672
20
-2.43051
11
3.47097
21
-2.42895
0
LINE
8
BLACK
6
CONTINUOUS
10
3.47097
20
-2.42895
11
3.47337
21
-2.42876
0
LINE
8
BLACK
6
CONTINUOUS
10
3.47337
20
-2.42876
11
3.47542
21
-2.43002
0
LINE
8
BLACK
6
CONTINUOUS
10
3.47542
20
-2.43002
11
3.47635
21
-2.43225
0
LINE
8
BLACK
6
CONTINUOUS
10
3.47635
20
-2.43225
11
3.47636
21
-2.43255
0
LINE
8
BLACK
6
CONTINUOUS
10
3.47636
20
-2.43255
11
3.47636
21
-2.48329
0
LINE
8
BLACK
6
CONTINUOUS
10
3.47636
20
-2.48329
11
3.47561
21
-2.48558
0
LINE
8
BLACK
6
CONTINUOUS
10
3.47561
20
-2.48558
11
3.47367
21
-2.48699
0
LINE
8
BLACK
6
CONTINUOUS
10
3.47367
20
-2.48699
11
3.47246
21
-2.48719
0
LINE
8
BLACK
6
CONTINUOUS
10
3.47246
20
-2.48719
11
3.43565
21
-2.48719
0
LINE
8
BLACK
6
CONTINUOUS
10
3.43565
20
-2.48719
11
3.43336
21
-2.48644
0
LINE
8
BLACK
6
CONTINUOUS
10
3.43336
20
-2.48644
11
3.43328
21
-2.48638
0
LINE
8
BLACK
6
CONTINUOUS
10
3.43328
20
-2.48638
11
3.42925
21
-2.48329
0
LINE
8
BLACK
6
CONTINUOUS
10
3.42925
20
-2.48329
11
3.42349
21
-2.4809
0
LINE
8
BLACK
6
CONTINUOUS
10
3.42349
20
-2.4809
11
3.42349
21
-2.4809
0
LINE
8
BLACK
6
CONTINUOUS
10
3.42349
20
-2.4809
11
3.41732
21
-2.48009
0
LINE
8
BLACK
6
CONTINUOUS
10
3.41732
20
-2.48009
11
3.41732
21
-2.48009
0
LINE
8
BLACK
6
CONTINUOUS
10
3.41732
20
-2.48009
11
3.41115
21
-2.4809
0
LINE
8
BLACK
6
CONTINUOUS
10
3.41115
20
-2.4809
11
3.41115
21
-2.4809
0
LINE
8
BLACK
6
CONTINUOUS
10
3.41115
20
-2.4809
11
3.4054
21
-2.48329
0
LINE
8
BLACK
6
CONTINUOUS
10
3.4054
20
-2.48329
11
3.4054
21
-2.48329
0
LINE
8
BLACK
6
CONTINUOUS
10
3.4054
20
-2.48329
11
3.40046
21
-2.48708
0
LINE
8
BLACK
6
CONTINUOUS
10
3.40046
20
-2.48708
11
3.40046
21
-2.48708
0
LINE
8
BLACK
6
CONTINUOUS
10
3.40046
20
-2.48708
11
3.39667
21
-2.49201
0
LINE
8
BLACK
6
CONTINUOUS
10
3.39667
20
-2.49201
11
3.39667
21
-2.49201
0
LINE
8
BLACK
6
CONTINUOUS
10
3.39667
20
-2.49201
11
3.39429
21
-2.49777
0
LINE
8
BLACK
6
CONTINUOUS
10
3.39429
20
-2.49777
11
3.39429
21
-2.49777
0
LINE
8
BLACK
6
CONTINUOUS
10
3.39429
20
-2.49777
11
3.39348
21
-2.50394
0
LINE
8
BLACK
6
CONTINUOUS
10
3.39348
20
-2.50394
11
3.39348
21
-2.50394
0
LINE
8
BLACK
6
CONTINUOUS
10
3.39348
20
-2.50394
11
3.39429
21
-2.51011
0
LINE
8
BLACK
6
CONTINUOUS
10
3.39429
20
-2.51011
11
3.39429
21
-2.51011
0
LINE
8
BLACK
6
CONTINUOUS
10
3.39429
20
-2.51011
11
3.39667
21
-2.51586
0
LINE
8
BLACK
6
CONTINUOUS
10
3.39667
20
-2.51586
11
3.39667
21
-2.51586
0
LINE
8
BLACK
6
CONTINUOUS
10
3.39667
20
-2.51586
11
3.39667
21
-2.51586
0
LINE
8
BLACK
6
CONTINUOUS
10
3.39667
20
-2.51586
11
3.40046
21
-2.5208
0
LINE
8
BLACK
6
CONTINUOUS
10
3.40046
20
-2.5208
11
3.40151
21
-2.5216
0
LINE
8
BLACK
6
CONTINUOUS
10
3.40151
20
-2.5216
11
3.40298
21
-2.52273
0
LINE
8
BLACK
6
CONTINUOUS
10
3.40298
20
-2.52273
11
3.40435
21
-2.52472
0
LINE
8
BLACK
6
CONTINUOUS
10
3.40435
20
-2.52472
11
3.40451
21
-2.52583
0
LINE
8
BLACK
6
CONTINUOUS
10
3.40451
20
-2.52583
11
3.40451
21
-2.53953
0
LINE
8
BLACK
6
CONTINUOUS
10
3.40451
20
-2.53953
11
3.40376
21
-2.54183
0
LINE
8
BLACK
6
CONTINUOUS
10
3.40376
20
-2.54183
11
3.40337
21
-2.54229
0
LINE
8
BLACK
6
CONTINUOUS
10
3.40337
20
-2.54229
11
3.29356
21
-2.6521
0
LINE
8
BLACK
6
CONTINUOUS
10
3.29356
20
-2.6521
11
3.29343
21
-2.65221
0
LINE
8
BLACK
6
CONTINUOUS
10
3.29343
20
-2.65221
11
3.2922
21
-2.65325
0
LINE
8
BLACK
6
CONTINUOUS
10
3.2922
20
-2.65325
11
3.2922
21
-2.65325
0
LINE
8
BLACK
6
CONTINUOUS
10
3.2922
20
-2.65325
11
3.29139
21
-2.65465
0
LINE
8
BLACK
6
CONTINUOUS
10
3.29139
20
-2.65465
11
3.2913
21
-2.65479
0
LINE
8
BLACK
6
CONTINUOUS
10
3.2913
20
-2.65479
11
3.29037
21
-2.65611
0
LINE
8
BLACK
6
CONTINUOUS
10
3.29037
20
-2.65611
11
3.29037
21
-2.65612
0
LINE
8
BLACK
6
CONTINUOUS
10
3.29037
20
-2.65612
11
3.29036
21
-2.65617
0
LINE
8
BLACK
6
CONTINUOUS
10
3.29036
20
-2.65617
11
3.28997
21
-2.65711
0
LINE
8
BLACK
6
CONTINUOUS
10
3.28997
20
-2.65711
11
3.28994
21
-2.65716
0
LINE
8
BLACK
6
CONTINUOUS
10
3.28994
20
-2.65716
11
3.28994
21
-2.65716
0
LINE
8
BLACK
6
CONTINUOUS
10
3.28994
20
-2.65716
11
3.28966
21
-2.65875
0
LINE
8
BLACK
6
CONTINUOUS
10
3.28966
20
-2.65875
11
3.28962
21
-2.65892
0
LINE
8
BLACK
6
CONTINUOUS
10
3.28962
20
-2.65892
11
3.2892
21
-2.66048
0
LINE
8
BLACK
6
CONTINUOUS
10
3.2892
20
-2.66048
11
3.2892
21
-2.66048
0
LINE
8
BLACK
6
CONTINUOUS
10
3.2892
20
-2.66048
11
3.28934
21
-2.66209
0
LINE
8
BLACK
6
CONTINUOUS
10
3.28934
20
-2.66209
11
3.28935
21
-2.66226
0
LINE
8
BLACK
6
CONTINUOUS
10
3.28935
20
-2.66226
11
3.28935
21
-2.66537
0
LINE
8
BLACK
6
CONTINUOUS
10
3.28935
20
-2.66537
11
3.28861
21
-2.66766
0
LINE
8
BLACK
6
CONTINUOUS
10
3.28861
20
-2.66766
11
3.28666
21
-2.66908
0
LINE
8
BLACK
6
CONTINUOUS
10
3.28666
20
-2.66908
11
3.28545
21
-2.66927
0
LINE
8
BLACK
6
CONTINUOUS
10
3.28545
20
-2.66927
11
3.24725
21
-2.66927
0
LINE
8
BLACK
6
CONTINUOUS
10
3.24725
20
-2.66927
11
3.24725
21
-2.66927
0
LINE
8
BLACK
6
CONTINUOUS
10
3.24725
20
-2.66927
11
3.24725
21
-2.66927
0
LINE
8
BLACK
6
CONTINUOUS
10
3.24725
20
-2.66927
11
3.24495
21
-2.66973
0
LINE
8
BLACK
6
CONTINUOUS
10
3.24495
20
-2.66973
11
3.24495
21
-2.66973
0
LINE
8
BLACK
6
CONTINUOUS
10
3.24495
20
-2.66973
11
3.24234
21
-2.67147
0
LINE
8
BLACK
6
CONTINUOUS
10
3.24234
20
-2.67147
11
3.24234
21
-2.67147
0
LINE
8
BLACK
6
CONTINUOUS
10
3.24234
20
-2.67147
11
3.2406
21
-2.67409
0
LINE
8
BLACK
6
CONTINUOUS
10
3.2406
20
-2.67409
11
3.2406
21
-2.67409
0
LINE
8
BLACK
6
CONTINUOUS
10
3.2406
20
-2.67409
11
3.24014
21
-2.67639
0
LINE
8
BLACK
6
CONTINUOUS
10
3.24014
20
-2.67639
11
3.24014
21
-2.67639
0
LINE
8
BLACK
6
CONTINUOUS
10
3.24014
20
-2.67639
11
3.24014
21
-2.71731
0
LINE
8
BLACK
6
CONTINUOUS
10
3.24014
20
-2.71731
11
3.24014
21
-2.71731
0
LINE
8
BLACK
6
CONTINUOUS
10
3.24014
20
-2.71731
11
3.2406
21
-2.71962
0
LINE
8
BLACK
6
CONTINUOUS
10
3.2406
20
-2.71962
11
3.2406
21
-2.71962
0
LINE
8
BLACK
6
CONTINUOUS
10
3.2406
20
-2.71962
11
3.24234
21
-2.72223
0
LINE
8
BLACK
6
CONTINUOUS
10
3.24234
20
-2.72223
11
3.24495
21
-2.72397
0
LINE
8
BLACK
6
CONTINUOUS
10
3.24495
20
-2.72397
11
3.2467
21
-2.72432
0
LINE
8
BLACK
6
CONTINUOUS
10
3.2467
20
-2.72432
11
3.24725
21
-2.72443
0
LINE
8
BLACK
6
CONTINUOUS
10
3.24725
20
-2.72443
11
3.24725
21
-2.72443
0
LINE
8
BLACK
6
CONTINUOUS
10
3.24725
20
-2.72443
11
3.24725
21
-2.72443
0
LINE
8
BLACK
6
CONTINUOUS
10
3.24725
20
-2.72443
11
3.24725
21
-2.72443
0
LINE
8
BLACK
6
CONTINUOUS
10
3.24725
20
-2.72443
11
3.35708
21
-2.72443
0
LINE
8
BLACK
6
CONTINUOUS
10
3.35708
20
-2.72443
11
3.35708
21
-2.72443
0
LINE
8
BLACK
6
CONTINUOUS
10
3.35708
20
-2.72443
11
3.35938
21
-2.72397
0
LINE
8
BLACK
6
CONTINUOUS
10
3.35938
20
-2.72397
11
3.36199
21
-2.72223
0
LINE
8
BLACK
6
CONTINUOUS
10
3.36199
20
-2.72223
11
3.36373
21
-2.71962
0
LINE
8
BLACK
6
CONTINUOUS
10
3.36373
20
-2.71962
11
3.36419
21
-2.71731
0
LINE
8
BLACK
6
CONTINUOUS
10
3.36419
20
-2.71731
11
3.36419
21
-2.67639
0
LINE
8
BLACK
6
CONTINUOUS
10
3.36419
20
-2.67639
11
3.36373
21
-2.67409
0
LINE
8
BLACK
6
CONTINUOUS
10
3.36373
20
-2.67409
11
3.36199
21
-2.67147
0
LINE
8
BLACK
6
CONTINUOUS
10
3.36199
20
-2.67147
11
3.36019
21
-2.67027
0
LINE
8
BLACK
6
CONTINUOUS
10
3.36019
20
-2.67027
11
3.35938
21
-2.66973
0
LINE
8
BLACK
6
CONTINUOUS
10
3.35938
20
-2.66973
11
3.35938
21
-2.66973
0
LINE
8
BLACK
6
CONTINUOUS
10
3.35938
20
-2.66973
11
3.35938
21
-2.66973
0
LINE
8
BLACK
6
CONTINUOUS
10
3.35938
20
-2.66973
11
3.35938
21
-2.66973
0
LINE
8
BLACK
6
CONTINUOUS
10
3.35938
20
-2.66973
11
3.35708
21
-2.66927
0
LINE
8
BLACK
6
CONTINUOUS
10
3.35708
20
-2.66927
11
3.35708
21
-2.66927
0
LINE
8
BLACK
6
CONTINUOUS
10
3.35708
20
-2.66927
11
3.35708
21
-2.66927
0
LINE
8
BLACK
6
CONTINUOUS
10
3.35708
20
-2.66927
11
3.32204
21
-2.66927
0
LINE
8
BLACK
6
CONTINUOUS
10
3.32204
20
-2.66927
11
3.31975
21
-2.66853
0
LINE
8
BLACK
6
CONTINUOUS
10
3.31975
20
-2.66853
11
3.31833
21
-2.66658
0
LINE
8
BLACK
6
CONTINUOUS
10
3.31833
20
-2.66658
11
3.31833
21
-2.66417
0
LINE
8
BLACK
6
CONTINUOUS
10
3.31833
20
-2.66417
11
3.31928
21
-2.66262
0
LINE
8
BLACK
6
CONTINUOUS
10
3.31928
20
-2.66262
11
3.42593
21
-2.55597
0
LINE
8
BLACK
6
CONTINUOUS
10
3.42593
20
-2.55597
11
3.42605
21
-2.55586
0
LINE
8
BLACK
6
CONTINUOUS
10
3.42605
20
-2.55586
11
3.42729
21
-2.55482
0
LINE
8
BLACK
6
CONTINUOUS
10
3.42729
20
-2.55482
11
3.4281
21
-2.55342
0
LINE
8
BLACK
6
CONTINUOUS
10
3.4281
20
-2.55342
11
3.42819
21
-2.55328
0
LINE
8
BLACK
6
CONTINUOUS
10
3.42819
20
-2.55328
11
3.42912
21
-2.55196
0
LINE
8
BLACK
6
CONTINUOUS
10
3.42912
20
-2.55196
11
3.42913
21
-2.5519
0
LINE
8
BLACK
6
CONTINUOUS
10
3.42913
20
-2.5519
11
3.42952
21
-2.55096
0
LINE
8
BLACK
6
CONTINUOUS
10
3.42952
20
-2.55096
11
3.42955
21
-2.55091
0
LINE
8
BLACK
6
CONTINUOUS
10
3.42955
20
-2.55091
11
3.42983
21
-2.54932
0
LINE
8
BLACK
6
CONTINUOUS
10
3.42983
20
-2.54932
11
3.42987
21
-2.54915
0
LINE
8
BLACK
6
CONTINUOUS
10
3.42987
20
-2.54915
11
3.43029
21
-2.54759
0
LINE
8
BLACK
6
CONTINUOUS
10
3.43029
20
-2.54759
11
3.43015
21
-2.54598
0
LINE
8
BLACK
6
CONTINUOUS
10
3.43015
20
-2.54598
11
3.43014
21
-2.54581
0
LINE
8
BLACK
6
CONTINUOUS
10
3.43014
20
-2.54581
11
3.43014
21
-2.52583
0
LINE
8
BLACK
6
CONTINUOUS
10
3.43014
20
-2.52583
11
3.43088
21
-2.52353
0
LINE
8
BLACK
6
CONTINUOUS
10
3.43088
20
-2.52353
11
3.43166
21
-2.52273
0
LINE
8
BLACK
6
CONTINUOUS
10
3.43166
20
-2.52273
11
3.43418
21
-2.5208
0
LINE
8
BLACK
6
CONTINUOUS
10
3.43418
20
-2.5208
11
3.43797
21
-2.51586
0
LINE
8
BLACK
6
CONTINUOUS
10
3.43797
20
-2.51586
11
3.43824
21
-2.51522
0
LINE
8
BLACK
6
CONTINUOUS
10
3.43824
20
-2.51522
11
3.4398
21
-2.51339
0
LINE
8
BLACK
6
CONTINUOUS
10
3.4398
20
-2.51339
11
3.44184
21
-2.51281
0
LINE
8
BLACK
6
CONTINUOUS
10
3.44184
20
-2.51281
11
3.47246
21
-2.51281
0
LINE
8
BLACK
6
CONTINUOUS
10
3.47246
20
-2.51281
11
3.47475
21
-2.51356
0
LINE
8
BLACK
6
CONTINUOUS
10
3.47475
20
-2.51356
11
3.47617
21
-2.51551
0
LINE
8
BLACK
6
CONTINUOUS
10
3.47617
20
-2.51551
11
3.47636
21
-2.51671
0
LINE
8
BLACK
6
CONTINUOUS
10
3.47636
20
-2.51671
11
3.47636
21
-2.54015
0
LINE
8
BLACK
6
CONTINUOUS
10
3.47636
20
-2.54015
11
3.47636
21
-2.54015
0
LINE
8
BLACK
6
CONTINUOUS
10
3.47636
20
-2.54015
11
3.47682
21
-2.54245
0
LINE
8
BLACK
6
CONTINUOUS
10
3.47682
20
-2.54245
11
3.47682
21
-2.54245
0
LINE
8
BLACK
6
CONTINUOUS
10
3.47682
20
-2.54245
11
3.47856
21
-2.54506
0
LINE
8
BLACK
6
CONTINUOUS
10
3.47856
20
-2.54506
11
3.47856
21
-2.54506
0
LINE
8
BLACK
6
CONTINUOUS
10
3.47856
20
-2.54506
11
3.48117
21
-2.54681
0
LINE
8
BLACK
6
CONTINUOUS
10
3.48117
20
-2.54681
11
3.48292
21
-2.54715
0
LINE
8
BLACK
6
CONTINUOUS
10
3.48292
20
-2.54715
11
3.48347
21
-2.54726
0
LINE
8
BLACK
6
CONTINUOUS
10
3.48347
20
-2.54726
11
3.48347
21
-2.54726
0
LINE
8
BLACK
6
CONTINUOUS
10
3.48347
20
-2.54726
11
3.48347
21
-2.54726
0
LINE
8
BLACK
6
CONTINUOUS
10
3.48347
20
-2.54726
11
3.48347
21
-2.54726
0
LINE
8
BLACK
6
CONTINUOUS
10
3.48347
20
-2.54726
11
3.5244
21
-2.54726
0
LINE
8
BLACK
6
CONTINUOUS
10
3.5244
20
-2.54726
11
3.5244
21
-2.54726
0
LINE
8
BLACK
6
CONTINUOUS
10
3.5244
20
-2.54726
11
3.5267
21
-2.54681
0
LINE
8
BLACK
6
CONTINUOUS
10
3.5267
20
-2.54681
11
3.52931
21
-2.54506
0
LINE
8
BLACK
6
CONTINUOUS
10
3.52931
20
-2.54506
11
3.52931
21
-2.54506
0
LINE
8
BLACK
6
CONTINUOUS
10
3.52931
20
-2.54506
11
3.52963
21
-2.54485
0
LINE
8
BLACK
6
CONTINUOUS
10
3.52963
20
-2.54485
11
3.52968
21
-2.54492
0
LINE
8
BLACK
6
CONTINUOUS
10
3.52968
20
-2.54492
11
3.53136
21
-2.54407
0
LINE
8
BLACK
6
CONTINUOUS
10
3.53136
20
-2.54407
11
3.53374
21
-2.54445
0
LINE
8
BLACK
6
CONTINUOUS
10
3.53374
20
-2.54445
11
3.53544
21
-2.54615
0
LINE
8
BLACK
6
CONTINUOUS
10
3.53544
20
-2.54615
11
3.53583
21
-2.54843
0
LINE
8
BLACK
6
CONTINUOUS
10
3.53583
20
-2.54843
11
3.53521
21
-2.55315
0
LINE
8
BLACK
6
CONTINUOUS
10
3.53521
20
-2.55315
11
3.53521
21
-2.55315
0
LINE
8
BLACK
6
CONTINUOUS
10
3.53521
20
-2.55315
11
3.53602
21
-2.55932
0
LINE
8
BLACK
6
CONTINUOUS
10
3.53602
20
-2.55932
11
3.53602
21
-2.55932
0
LINE
8
BLACK
6
CONTINUOUS
10
3.53602
20
-2.55932
11
3.5384
21
-2.56507
0
LINE
8
BLACK
6
CONTINUOUS
10
3.5384
20
-2.56507
11
3.5384
21
-2.56507
0
LINE
8
BLACK
6
CONTINUOUS
10
3.5384
20
-2.56507
11
3.5384
21
-2.56507
0
LINE
8
BLACK
6
CONTINUOUS
10
3.5384
20
-2.56507
11
3.54219
21
-2.57001
0
LINE
8
BLACK
6
CONTINUOUS
10
3.54219
20
-2.57001
11
3.54219
21
-2.57001
0
LINE
8
BLACK
6
CONTINUOUS
10
3.54219
20
-2.57001
11
3.54219
21
-2.57001
0
LINE
8
BLACK
6
CONTINUOUS
10
3.54219
20
-2.57001
11
3.54333
21
-2.57088
0
LINE
8
BLACK
6
CONTINUOUS
10
3.54333
20
-2.57088
11
3.54713
21
-2.5738
0
LINE
8
BLACK
6
CONTINUOUS
10
3.54713
20
-2.5738
11
3.54713
21
-2.5738
0
LINE
8
BLACK
6
CONTINUOUS
10
3.54713
20
-2.5738
11
3.54713
21
-2.5738
0
LINE
8
BLACK
6
CONTINUOUS
10
3.54713
20
-2.5738
11
3.5513
21
-2.57553
0
LINE
8
BLACK
6
CONTINUOUS
10
3.5513
20
-2.57553
11
3.55288
21
-2.57618
0
LINE
8
BLACK
6
CONTINUOUS
10
3.55288
20
-2.57618
11
3.55751
21
-2.57679
0
LINE
8
BLACK
6
CONTINUOUS
10
3.55751
20
-2.57679
11
3.55906
21
-2.577
0
LINE
8
BLACK
6
CONTINUOUS
10
3.55906
20
-2.577
11
3.55906
21
-2.577
0
LINE
8
BLACK
6
CONTINUOUS
10
3.55906
20
-2.577
11
3.55906
21
-2.577
0
LINE
8
BLACK
6
CONTINUOUS
10
3.55906
20
-2.577
11
3.56029
21
-2.57683
0
LINE
8
BLACK
6
CONTINUOUS
10
3.56029
20
-2.57683
11
3.56523
21
-2.57618
0
LINE
8
BLACK
6
CONTINUOUS
10
3.56523
20
-2.57618
11
3.57098
21
-2.5738
0
LINE
8
BLACK
6
CONTINUOUS
10
3.57098
20
-2.5738
11
3.57145
21
-2.57344
0
LINE
8
BLACK
6
CONTINUOUS
10
3.57145
20
-2.57344
11
3.57372
21
-2.57264
0
LINE
8
BLACK
6
CONTINUOUS
10
3.57372
20
-2.57264
11
3.57603
21
-2.57332
0
LINE
8
BLACK
6
CONTINUOUS
10
3.57603
20
-2.57332
11
3.57619
21
-2.57344
0
LINE
8
BLACK
6
CONTINUOUS
10
3.57619
20
-2.57344
11
3.57666
21
-2.5738
0
LINE
8
BLACK
6
CONTINUOUS
10
3.57666
20
-2.5738
11
3.57666
21
-2.5738
0
LINE
8
BLACK
6
CONTINUOUS
10
3.57666
20
-2.5738
11
3.57666
21
-2.5738
0
LINE
8
BLACK
6
CONTINUOUS
10
3.57666
20
-2.5738
11
3.58083
21
-2.57553
0
LINE
8
BLACK
6
CONTINUOUS
10
3.58083
20
-2.57553
11
3.58241
21
-2.57618
0
LINE
8
BLACK
6
CONTINUOUS
10
3.58241
20
-2.57618
11
3.58704
21
-2.57679
0
LINE
8
BLACK
6
CONTINUOUS
10
3.58704
20
-2.57679
11
3.58858
21
-2.577
0
LINE
8
BLACK
6
CONTINUOUS
10
3.58858
20
-2.577
11
3.58858
21
-2.577
0
LINE
8
BLACK
6
CONTINUOUS
10
3.58858
20
-2.577
11
3.58858
21
-2.577
0
LINE
8
BLACK
6
CONTINUOUS
10
3.58858
20
-2.577
11
3.58982
21
-2.57683
0
LINE
8
BLACK
6
CONTINUOUS
10
3.58982
20
-2.57683
11
3.59475
21
-2.57618
0
LINE
8
BLACK
6
CONTINUOUS
10
3.59475
20
-2.57618
11
3.59892
21
-2.57446
0
LINE
8
BLACK
6
CONTINUOUS
10
3.59892
20
-2.57446
11
3.60132
21
-2.57427
0
LINE
8
BLACK
6
CONTINUOUS
10
3.60132
20
-2.57427
11
3.60338
21
-2.57553
0
LINE
8
BLACK
6
CONTINUOUS
10
3.60338
20
-2.57553
11
3.6043
21
-2.57775
0
LINE
8
BLACK
6
CONTINUOUS
10
3.6043
20
-2.57775
11
3.60431
21
-2.57806
0
LINE
8
BLACK
6
CONTINUOUS
10
3.60431
20
-2.57806
11
3.60431
21
-2.64072
0
LINE
8
BLACK
6
CONTINUOUS
10
3.60431
20
-2.64072
11
3.60357
21
-2.64301
0
LINE
8
BLACK
6
CONTINUOUS
10
3.60357
20
-2.64301
11
3.60317
21
-2.64347
0
LINE
8
BLACK
6
CONTINUOUS
10
3.60317
20
-2.64347
11
3.57851
21
-2.66813
0
LINE
8
BLACK
6
CONTINUOUS
10
3.57851
20
-2.66813
11
3.57636
21
-2.66922
0
LINE
8
BLACK
6
CONTINUOUS
10
3.57636
20
-2.66922
11
3.57575
21
-2.66927
0
LINE
8
BLACK
6
CONTINUOUS
10
3.57575
20
-2.66927
11
3.49332
21
-2.66927
0
LINE
8
BLACK
6
CONTINUOUS
10
3.49332
20
-2.66927
11
3.49332
21
-2.66927
0
LINE
8
BLACK
6
CONTINUOUS
10
3.49332
20
-2.66927
11
3.49332
21
-2.66927
0
LINE
8
BLACK
6
CONTINUOUS
10
3.49332
20
-2.66927
11
3.49101
21
-2.66973
0
LINE
8
BLACK
6
CONTINUOUS
10
3.49101
20
-2.66973
11
3.49101
21
-2.66973
0
LINE
8
BLACK
6
CONTINUOUS
10
3.49101
20
-2.66973
11
3.4884
21
-2.67147
0
LINE
8
BLACK
6
CONTINUOUS
10
3.4884
20
-2.67147
11
3.4884
21
-2.67147
0
LINE
8
BLACK
6
CONTINUOUS
10
3.4884
20
-2.67147
11
3.48666
21
-2.67409
0
LINE
8
BLACK
6
CONTINUOUS
10
3.48666
20
-2.67409
11
3.48666
21
-2.67409
0
LINE
8
BLACK
6
CONTINUOUS
10
3.48666
20
-2.67409
11
3.4862
21
-2.67639
0
LINE
8
BLACK
6
CONTINUOUS
10
3.4862
20
-2.67639
11
3.4862
21
-2.67639
0
LINE
8
BLACK
6
CONTINUOUS
10
3.4862
20
-2.67639
11
3.4862
21
-2.71731
0
LINE
8
BLACK
6
CONTINUOUS
10
3.4862
20
-2.71731
11
3.4862
21
-2.71731
0
LINE
8
BLACK
6
CONTINUOUS
10
3.4862
20
-2.71731
11
3.48666
21
-2.71962
0
LINE
8
BLACK
6
CONTINUOUS
10
3.48666
20
-2.71962
11
3.48666
21
-2.71962
0
LINE
8
BLACK
6
CONTINUOUS
10
3.48666
20
-2.71962
11
3.4884
21
-2.72223
0
LINE
8
BLACK
6
CONTINUOUS
10
3.4884
20
-2.72223
11
3.49101
21
-2.72397
0
LINE
8
BLACK
6
CONTINUOUS
10
3.49101
20
-2.72397
11
3.49276
21
-2.72432
0
LINE
8
BLACK
6
CONTINUOUS
10
3.49276
20
-2.72432
11
3.49332
21
-2.72443
0
LINE
8
BLACK
6
CONTINUOUS
10
3.49332
20
-2.72443
11
3.49332
21
-2.72443
0
LINE
8
BLACK
6
CONTINUOUS
10
3.49332
20
-2.72443
11
3.49332
21
-2.72443
0
LINE
8
BLACK
6
CONTINUOUS
10
3.49332
20
-2.72443
11
3.49332
21
-2.72443
0
LINE
8
BLACK
6
CONTINUOUS
10
3.49332
20
-2.72443
11
3.60314
21
-2.72443
0
LINE
8
BLACK
6
CONTINUOUS
10
3.60314
20
-2.72443
11
3.60314
21
-2.72443
0
LINE
8
BLACK
6
CONTINUOUS
10
3.60314
20
-2.72443
11
3.60544
21
-2.72397
0
LINE
8
BLACK
6
CONTINUOUS
10
3.60544
20
-2.72397
11
3.60805
21
-2.72223
0
LINE
8
BLACK
6
CONTINUOUS
10
3.60805
20
-2.72223
11
3.6098
21
-2.71962
0
LINE
8
BLACK
6
CONTINUOUS
10
3.6098
20
-2.71962
11
3.61026
21
-2.71731
0
LINE
8
BLACK
6
CONTINUOUS
10
3.61026
20
-2.71731
11
3.61026
21
-2.67639
0
LINE
8
BLACK
6
CONTINUOUS
10
3.61026
20
-2.67639
11
3.61004
21
-2.6753
0
LINE
8
BLACK
6
CONTINUOUS
10
3.61004
20
-2.6753
11
3.61032
21
-2.67291
0
LINE
8
BLACK
6
CONTINUOUS
10
3.61032
20
-2.67291
11
3.61111
21
-2.67178
0
LINE
8
BLACK
6
CONTINUOUS
10
3.61111
20
-2.67178
11
3.61537
21
-2.66751
0
LINE
8
BLACK
6
CONTINUOUS
10
3.61537
20
-2.66751
11
3.61752
21
-2.66642
0
LINE
8
BLACK
6
CONTINUOUS
10
3.61752
20
-2.66642
11
3.6199
21
-2.6668
0
LINE
8
BLACK
6
CONTINUOUS
10
3.6199
20
-2.6668
11
3.6216
21
-2.6685
0
LINE
8
BLACK
6
CONTINUOUS
10
3.6216
20
-2.6685
11
3.62203
21
-2.67027
0
LINE
8
BLACK
6
CONTINUOUS
10
3.62203
20
-2.67027
11
3.62203
21
-2.79519
0
LINE
8
BLACK
6
CONTINUOUS
10
3.62203
20
-2.79519
11
3.62202
21
-2.79536
0
LINE
8
BLACK
6
CONTINUOUS
10
3.62202
20
-2.79536
11
3.62195
21
-2.79612
0
LINE
8
BLACK
6
CONTINUOUS
10
3.62195
20
-2.79612
11
3.62118
21
-2.79793
0
LINE
8
BLACK
6
CONTINUOUS
10
3.62118
20
-2.79793
11
3.62154
21
-2.79854
0
LINE
8
BLACK
6
CONTINUOUS
10
3.62154
20
-2.79854
11
3.62161
21
-2.79975
0
LINE
8
BLACK
6
CONTINUOUS
10
3.62161
20
-2.79975
11
3.62137
21
-2.80212
0
LINE
8
BLACK
6
CONTINUOUS
10
3.62137
20
-2.80212
11
3.62126
21
-2.80274
0
LINE
8
BLACK
6
CONTINUOUS
10
3.62126
20
-2.80274
11
3.62054
21
-2.80542
0
LINE
8
BLACK
6
CONTINUOUS
10
3.62054
20
-2.80542
11
3.62053
21
-2.80548
0
LINE
8
BLACK
6
CONTINUOUS
10
3.62053
20
-2.80548
11
3.6194
21
-2.80918
0
LINE
8
BLACK
6
CONTINUOUS
10
3.6194
20
-2.80918
11
3.6192
21
-2.8097
0
LINE
8
BLACK
6
CONTINUOUS
10
3.6192
20
-2.8097
11
3.61793
21
-2.81243
0
LINE
8
BLACK
6
CONTINUOUS
10
3.61793
20
-2.81243
11
3.61788
21
-2.81252
0
LINE
8
BLACK
6
CONTINUOUS
10
3.61788
20
-2.81252
11
3.6161
21
-2.81587
0
LINE
8
BLACK
6
CONTINUOUS
10
3.6161
20
-2.81587
11
3.61598
21
-2.81607
0
LINE
8
BLACK
6
CONTINUOUS
10
3.61598
20
-2.81607
11
3.61412
21
-2.81871
0
LINE
8
BLACK
6
CONTINUOUS
10
3.61412
20
-2.81871
11
3.61403
21
-2.81883
0
LINE
8
BLACK
6
CONTINUOUS
10
3.61403
20
-2.81883
11
3.61167
21
-2.8217
0
LINE
8
BLACK
6
CONTINUOUS
10
3.61167
20
-2.8217
11
3.61155
21
-2.82185
0
LINE
8
BLACK
6
CONTINUOUS
10
3.61155
20
-2.82185
11
3.60925
21
-2.82414
0
LINE
8
BLACK
6
CONTINUOUS
10
3.60925
20
-2.82414
11
3.60911
21
-2.82427
0
LINE
8
BLACK
6
CONTINUOUS
10
3.60911
20
-2.82427
11
3.60623
21
-2.82663
0
LINE
8
BLACK
6
CONTINUOUS
10
3.60623
20
-2.82663
11
3.60611
21
-2.82672
0
LINE
8
BLACK
6
CONTINUOUS
10
3.60611
20
-2.82672
11
3.60347
21
-2.82857
0
LINE
8
BLACK
6
CONTINUOUS
10
3.60347
20
-2.82857
11
3.60327
21
-2.8287
0
LINE
8
BLACK
6
CONTINUOUS
10
3.60327
20
-2.8287
11
3.59993
21
-2.83048
0
LINE
8
BLACK
6
CONTINUOUS
10
3.59993
20
-2.83048
11
3.59983
21
-2.83053
0
LINE
8
BLACK
6
CONTINUOUS
10
3.59983
20
-2.83053
11
3.5971
21
-2.8318
0
LINE
8
BLACK
6
CONTINUOUS
10
3.5971
20
-2.8318
11
3.59658
21
-2.832
0
LINE
8
BLACK
6
CONTINUOUS
10
3.59658
20
-2.832
11
3.59288
21
-2.83312
0
LINE
8
BLACK
6
CONTINUOUS
10
3.59288
20
-2.83312
11
3.59282
21
-2.83314
0
LINE
8
BLACK
6
CONTINUOUS
10
3.59282
20
-2.83314
11
3.59015
21
-2.83386
0
LINE
8
BLACK
6
CONTINUOUS
10
3.59015
20
-2.83386
11
3.58952
21
-2.83397
0
LINE
8
BLACK
6
CONTINUOUS
10
3.58952
20
-2.83397
11
3.58447
21
-2.83447
0
LINE
8
BLACK
6
CONTINUOUS
10
3.58447
20
-2.83447
11
3.58276
21
-2.83462
0
LINE
8
BLACK
6
CONTINUOUS
10
3.58276
20
-2.83462
11
3.58259
21
-2.83463
0
LINE
8
BLACK
6
CONTINUOUS
10
3.58259
20
-2.83463
11
3.36205
21
-2.83463
0
LINE
8
BLACK
6
CONTINUOUS
10
3.36205
20
-2.83463
11
3.35976
21
-2.83388
0
LINE
8
BLACK
6
CONTINUOUS
10
3.35976
20
-2.83388
11
3.35834
21
-2.83193
0
LINE
8
BLACK
6
CONTINUOUS
10
3.35834
20
-2.83193
11
3.35834
21
-2.82952
0
LINE
8
BLACK
6
CONTINUOUS
10
3.35834
20
-2.82952
11
3.35929
21
-2.82797
0
LINE
8
BLACK
6
CONTINUOUS
10
3.35929
20
-2.82797
11
3.35938
21
-2.82789
0
LINE
8
BLACK
6
CONTINUOUS
10
3.35938
20
-2.82789
11
3.35938
21
-2.82789
0
LINE
8
BLACK
6
CONTINUOUS
10
3.35938
20
-2.82789
11
3.36317
21
-2.82295
0
LINE
8
BLACK
6
CONTINUOUS
10
3.36317
20
-2.82295
11
3.36555
21
-2.8172
0
LINE
8
BLACK
6
CONTINUOUS
10
3.36555
20
-2.8172
11
3.36637
21
-2.81102
0
LINE
8
BLACK
6
CONTINUOUS
10
3.36637
20
-2.81102
11
3.36555
21
-2.80485
0
LINE
8
BLACK
6
CONTINUOUS
10
3.36555
20
-2.80485
11
3.36528
21
-2.80418
0
LINE
8
BLACK
6
CONTINUOUS
10
3.36528
20
-2.80418
11
3.36509
21
-2.80178
0
LINE
8
BLACK
6
CONTINUOUS
10
3.36509
20
-2.80178
11
3.36635
21
-2.79973
0
LINE
8
BLACK
6
CONTINUOUS
10
3.36635
20
-2.79973
11
3.36857
21
-2.79881
0
LINE
8
BLACK
6
CONTINUOUS
10
3.36857
20
-2.79881
11
3.36939
21
-2.79883
0
LINE
8
BLACK
6
CONTINUOUS
10
3.36939
20
-2.79883
11
3.37402
21
-2.79944
0
LINE
8
BLACK
6
CONTINUOUS
10
3.37402
20
-2.79944
11
3.37402
21
-2.79944
0
LINE
8
BLACK
6
CONTINUOUS
10
3.37402
20
-2.79944
11
3.37402
21
-2.79944
0
LINE
8
BLACK
6
CONTINUOUS
10
3.37402
20
-2.79944
11
3.3761
21
-2.79916
0
LINE
8
BLACK
6
CONTINUOUS
10
3.3761
20
-2.79916
11
3.38019
21
-2.79862
0
LINE
8
BLACK
6
CONTINUOUS
10
3.38019
20
-2.79862
11
3.38401
21
-2.79704
0
LINE
8
BLACK
6
CONTINUOUS
10
3.38401
20
-2.79704
11
3.38594
21
-2.79624
0
LINE
8
BLACK
6
CONTINUOUS
10
3.38594
20
-2.79624
11
3.39088
21
-2.79245
0
LINE
8
BLACK
6
CONTINUOUS
10
3.39088
20
-2.79245
11
3.39467
21
-2.78751
0
LINE
8
BLACK
6
CONTINUOUS
10
3.39467
20
-2.78751
11
3.39705
21
-2.78176
0
LINE
8
BLACK
6
CONTINUOUS
10
3.39705
20
-2.78176
11
3.39786
21
-2.77559
0
LINE
8
BLACK
6
CONTINUOUS
10
3.39786
20
-2.77559
11
3.39708
21
-2.76968
0
LINE
8
BLACK
6
CONTINUOUS
10
3.39708
20
-2.76968
11
3.39705
21
-2.76942
0
LINE
8
BLACK
6
CONTINUOUS
10
3.39705
20
-2.76942
11
3.39467
21
-2.76367
0
LINE
8
BLACK
6
CONTINUOUS
10
3.39467
20
-2.76367
11
3.39467
21
-2.76367
0
LINE
8
BLACK
6
CONTINUOUS
10
3.39467
20
-2.76367
11
3.39088
21
-2.75873
0
LINE
8
BLACK
6
CONTINUOUS
10
3.39088
20
-2.75873
11
3.39088
21
-2.75873
0
LINE
8
BLACK
6
CONTINUOUS
10
3.39088
20
-2.75873
11
3.39088
21
-2.75873
0
LINE
8
BLACK
6
CONTINUOUS
10
3.39088
20
-2.75873
11
3.39088
21
-2.75873
0
LINE
8
BLACK
6
CONTINUOUS
10
3.39088
20
-2.75873
11
3.39088
21
-2.75873
0
LINE
8
BLACK
6
CONTINUOUS
10
3.39088
20
-2.75873
11
3.3872
21
-2.75591
0
LINE
8
BLACK
6
CONTINUOUS
10
3.3872
20
-2.75591
11
3.38594
21
-2.75494
0
LINE
8
BLACK
6
CONTINUOUS
10
3.38594
20
-2.75494
11
3.38594
21
-2.75494
0
LINE
8
BLACK
6
CONTINUOUS
10
3.38594
20
-2.75494
11
3.38594
21
-2.75494
0
LINE
8
BLACK
6
CONTINUOUS
10
3.38594
20
-2.75494
11
3.38019
21
-2.75256
0
LINE
8
BLACK
6
CONTINUOUS
10
3.38019
20
-2.75256
11
3.38019
21
-2.75256
0
LINE
8
BLACK
6
CONTINUOUS
10
3.38019
20
-2.75256
11
3.37402
21
-2.75174
0
LINE
8
BLACK
6
CONTINUOUS
10
3.37402
20
-2.75174
11
3.37402
21
-2.75174
0
LINE
8
BLACK
6
CONTINUOUS
10
3.37402
20
-2.75174
11
3.36784
21
-2.75256
0
LINE
8
BLACK
6
CONTINUOUS
10
3.36784
20
-2.75256
11
3.36784
21
-2.75256
0
LINE
8
BLACK
6
CONTINUOUS
10
3.36784
20
-2.75256
11
3.36744
21
-2.75272
0
LINE
8
BLACK
6
CONTINUOUS
10
3.36744
20
-2.75272
11
3.36504
21
-2.75291
0
LINE
8
BLACK
6
CONTINUOUS
10
3.36504
20
-2.75291
11
3.36299
21
-2.75165
0
LINE
8
BLACK
6
CONTINUOUS
10
3.36299
20
-2.75165
11
3.36271
21
-2.75129
0
LINE
8
BLACK
6
CONTINUOUS
10
3.36271
20
-2.75129
11
3.36199
21
-2.75021
0
LINE
8
BLACK
6
CONTINUOUS
10
3.36199
20
-2.75021
11
3.36199
21
-2.75021
0
LINE
8
BLACK
6
CONTINUOUS
10
3.36199
20
-2.75021
11
3.35938
21
-2.74847
0
LINE
8
BLACK
6
CONTINUOUS
10
3.35938
20
-2.74847
11
3.35938
21
-2.74847
0
LINE
8
BLACK
6
CONTINUOUS
10
3.35938
20
-2.74847
11
3.35938
21
-2.74847
0
LINE
8
BLACK
6
CONTINUOUS
10
3.35938
20
-2.74847
11
3.35938
21
-2.74847
0
LINE
8
BLACK
6
CONTINUOUS
10
3.35938
20
-2.74847
11
3.35708
21
-2.74801
0
LINE
8
BLACK
6
CONTINUOUS
10
3.35708
20
-2.74801
11
3.35708
21
-2.74801
0
LINE
8
BLACK
6
CONTINUOUS
10
3.35708
20
-2.74801
11
3.24725
21
-2.74801
0
LINE
8
BLACK
6
CONTINUOUS
10
3.24725
20
-2.74801
11
3.24725
21
-2.74801
0
LINE
8
BLACK
6
CONTINUOUS
10
3.24725
20
-2.74801
11
3.24725
21
-2.74801
0
LINE
8
BLACK
6
CONTINUOUS
10
3.24725
20
-2.74801
11
3.24495
21
-2.74847
0
LINE
8
BLACK
6
CONTINUOUS
10
3.24495
20
-2.74847
11
3.24495
21
-2.74847
0
LINE
8
BLACK
6
CONTINUOUS
10
3.24495
20
-2.74847
11
3.24234
21
-2.75021
0
LINE
8
BLACK
6
CONTINUOUS
10
3.24234
20
-2.75021
11
3.24234
21
-2.75021
0
LINE
8
BLACK
6
CONTINUOUS
10
3.24234
20
-2.75021
11
3.2406
21
-2.75283
0
LINE
8
BLACK
6
CONTINUOUS
10
3.2406
20
-2.75283
11
3.2406
21
-2.75283
0
LINE
8
BLACK
6
CONTINUOUS
10
3.2406
20
-2.75283
11
3.24014
21
-2.75513
0
LINE
8
BLACK
6
CONTINUOUS
10
3.24014
20
-2.75513
11
3.24014
21
-2.75513
0
LINE
8
BLACK
6
CONTINUOUS
10
3.24014
20
-2.75513
11
3.24014
21
-2.79605
0
LINE
8
BLACK
6
CONTINUOUS
10
3.24014
20
-2.79605
11
3.24014
21
-2.79605
0
LINE
8
BLACK
6
CONTINUOUS
10
3.24014
20
-2.79605
11
3.2406
21
-2.79836
0
LINE
8
BLACK
6
CONTINUOUS
10
3.2406
20
-2.79836
11
3.2406
21
-2.79836
0
LINE
8
BLACK
6
CONTINUOUS
10
3.2406
20
-2.79836
11
3.24119
21
-2.79925
0
LINE
8
BLACK
6
CONTINUOUS
10
3.24119
20
-2.79925
11
3.24185
21
-2.80157
0
LINE
8
BLACK
6
CONTINUOUS
10
3.24185
20
-2.80157
11
3.24155
21
-2.80291
0
LINE
8
BLACK
6
CONTINUOUS
10
3.24155
20
-2.80291
11
3.24075
21
-2.80485
0
LINE
8
BLACK
6
CONTINUOUS
10
3.24075
20
-2.80485
11
3.24075
21
-2.80485
0
LINE
8
BLACK
6
CONTINUOUS
10
3.24075
20
-2.80485
11
3.23993
21
-2.81102
0
LINE
8
BLACK
6
CONTINUOUS
10
3.23993
20
-2.81102
11
3.23993
21
-2.81102
0
LINE
8
BLACK
6
CONTINUOUS
10
3.23993
20
-2.81102
11
3.24075
21
-2.8172
0
LINE
8
BLACK
6
CONTINUOUS
10
3.24075
20
-2.8172
11
3.24075
21
-2.8172
0
LINE
8
BLACK
6
CONTINUOUS
10
3.24075
20
-2.8172
11
3.24313
21
-2.82295
0
LINE
8
BLACK
6
CONTINUOUS
10
3.24313
20
-2.82295
11
3.24313
21
-2.82295
0
LINE
8
BLACK
6
CONTINUOUS
10
3.24313
20
-2.82295
11
3.24692
21
-2.82788
0
LINE
8
BLACK
6
CONTINUOUS
10
3.24692
20
-2.82788
11
3.24692
21
-2.82789
0
LINE
8
BLACK
6
CONTINUOUS
10
3.24692
20
-2.82789
11
3.24692
21
-2.82789
0
LINE
8
BLACK
6
CONTINUOUS
10
3.24692
20
-2.82789
11
3.24701
21
-2.82797
0
LINE
8
BLACK
6
CONTINUOUS
10
3.24701
20
-2.82797
11
3.24705
21
-2.82805
0
LINE
8
BLACK
6
CONTINUOUS
10
3.24705
20
-2.82805
11
3.24707
21
-2.82809
0
LINE
8
BLACK
6
CONTINUOUS
10
3.24707
20
-2.82809
11
3.24707
21
-2.82809
0
LINE
8
BLACK
6
CONTINUOUS
10
3.24707
20
-2.82809
11
3.2481
21
-2.83012
0
LINE
8
BLACK
6
CONTINUOUS
10
3.2481
20
-2.83012
11
3.24772
21
-2.8325
0
LINE
8
BLACK
6
CONTINUOUS
10
3.24772
20
-2.8325
11
3.24602
21
-2.8342
0
LINE
8
BLACK
6
CONTINUOUS
10
3.24602
20
-2.8342
11
3.24425
21
-2.83463
0
LINE
8
BLACK
6
CONTINUOUS
10
3.24425
20
-2.83463
11
2.71662
21
-2.83463
0
LINE
8
BLACK
6
CONTINUOUS
10
2.71662
20
-2.83463
11
2.71645
21
-2.83462
0
LINE
8
BLACK
6
CONTINUOUS
10
2.71645
20
-2.83462
11
2.71475
21
-2.83447
0
LINE
8
BLACK
6
CONTINUOUS
10
2.71475
20
-2.83447
11
2.70969
21
-2.83397
0
LINE
8
BLACK
6
CONTINUOUS
10
2.70969
20
-2.83397
11
2.70907
21
-2.83386
0
LINE
8
BLACK
6
CONTINUOUS
10
2.70907
20
-2.83386
11
2.70761
21
-2.83347
0
LINE
8
BLACK
6
CONTINUOUS
10
2.70761
20
-2.83347
11
2.7064
21
-2.83314
0
LINE
8
BLACK
6
CONTINUOUS
10
2.7064
20
-2.83314
11
2.70633
21
-2.83312
0
LINE
8
BLACK
6
CONTINUOUS
10
2.70633
20
-2.83312
11
2.70263
21
-2.832
0
LINE
8
BLACK
6
CONTINUOUS
10
2.70263
20
-2.832
11
2.70211
21
-2.8318
0
LINE
8
BLACK
6
CONTINUOUS
10
2.70211
20
-2.8318
11
2.69938
21
-2.83053
0
LINE
8
BLACK
6
CONTINUOUS
10
2.69938
20
-2.83053
11
2.69929
21
-2.83048
0
LINE
8
BLACK
6
CONTINUOUS
10
2.69929
20
-2.83048
11
2.69595
21
-2.8287
0
LINE
8
BLACK
6
CONTINUOUS
10
2.69595
20
-2.8287
11
2.69575
21
-2.82857
0
LINE
8
BLACK
6
CONTINUOUS
10
2.69575
20
-2.82857
11
2.6931
21
-2.82672
0
LINE
8
BLACK
6
CONTINUOUS
10
2.6931
20
-2.82672
11
2.69298
21
-2.82663
0
LINE
8
BLACK
6
CONTINUOUS
10
2.69298
20
-2.82663
11
2.69011
21
-2.82427
0
LINE
8
BLACK
6
CONTINUOUS
10
2.69011
20
-2.82427
11
2.68997
21
-2.82414
0
LINE
8
BLACK
6
CONTINUOUS
10
2.68997
20
-2.82414
11
2.68767
21
-2.82185
0
LINE
8
BLACK
6
CONTINUOUS
10
2.68767
20
-2.82185
11
2.68754
21
-2.8217
0
LINE
8
BLACK
6
CONTINUOUS
10
2.68754
20
-2.8217
11
2.68518
21
-2.81883
0
LINE
8
BLACK
6
CONTINUOUS
10
2.68518
20
-2.81883
11
2.68509
21
-2.81871
0
LINE
8
BLACK
6
CONTINUOUS
10
2.68509
20
-2.81871
11
2.68403
21
-2.8172
0
LINE
8
BLACK
6
CONTINUOUS
10
2.68403
20
-2.8172
11
2.68324
21
-2.81606
0
LINE
8
BLACK
6
CONTINUOUS
10
2.68324
20
-2.81606
11
2.68311
21
-2.81587
0
LINE
8
BLACK
6
CONTINUOUS
10
2.68311
20
-2.81587
11
2.68133
21
-2.81252
0
LINE
8
BLACK
6
CONTINUOUS
10
2.68133
20
-2.81252
11
2.68128
21
-2.81243
0
LINE
8
BLACK
6
CONTINUOUS
10
2.68128
20
-2.81243
11
2.68001
21
-2.8097
0
LINE
8
BLACK
6
CONTINUOUS
10
2.68001
20
-2.8097
11
2.67981
21
-2.80918
0
LINE
8
BLACK
6
CONTINUOUS
10
2.67981
20
-2.80918
11
2.67869
21
-2.80547
0
LINE
8
BLACK
6
CONTINUOUS
10
2.67869
20
-2.80547
11
2.67867
21
-2.80542
0
LINE
8
BLACK
6
CONTINUOUS
10
2.67867
20
-2.80542
11
2.67795
21
-2.80274
0
LINE
8
BLACK
6
CONTINUOUS
10
2.67795
20
-2.80274
11
2.67784
21
-2.80212
0
LINE
8
BLACK
6
CONTINUOUS
10
2.67784
20
-2.80212
11
2.67734
21
-2.79706
0
LINE
8
BLACK
6
CONTINUOUS
10
2.67734
20
-2.79706
11
2.67734
21
-2.79704
0
LINE
8
BLACK
6
CONTINUOUS
10
2.67734
20
-2.79704
11
2.67719
21
-2.79536
0
LINE
8
BLACK
6
CONTINUOUS
10
2.67719
20
-2.79536
11
2.67719
21
-2.79519
0
LINE
8
BLACK
6
CONTINUOUS
10
2.67719
20
-2.79519
11
2.67719
21
-2.75591
0
LINE
8
BLACK
6
CONTINUOUS
10
2.67719
20
-2.75591
11
2.67719
21
-2.3622
0
LINE
8
BLACK
6
CONTINUOUS
10
2.67719
20
-2.3622
11
2.67719
21
-1.9685
0
LINE
8
BLACK
6
CONTINUOUS
10
2.67719
20
-1.9685
11
2.67719
21
-1.92922
0
LINE
8
BLACK
6
CONTINUOUS
10
2.67719
20
-1.92922
11
2.67719
21
-1.92905
0
LINE
8
BLACK
6
CONTINUOUS
10
2.67719
20
-1.92905
11
2.67734
21
-1.92734
0
LINE
8
BLACK
6
CONTINUOUS
10
2.67734
20
-1.92734
11
2.67784
21
-1.92229
0
LINE
8
BLACK
6
CONTINUOUS
10
2.67784
20
-1.92229
11
2.67795
21
-1.92167
0
LINE
8
BLACK
6
CONTINUOUS
10
2.67795
20
-1.92167
11
2.67867
21
-1.91899
0
LINE
8
BLACK
6
CONTINUOUS
10
2.67867
20
-1.91899
11
2.67869
21
-1.91894
0
LINE
8
BLACK
6
CONTINUOUS
10
2.67869
20
-1.91894
11
2.67981
21
-1.91523
0
LINE
8
BLACK
6
CONTINUOUS
10
2.67981
20
-1.91523
11
2.68001
21
-1.91471
0
LINE
8
BLACK
6
CONTINUOUS
10
2.68001
20
-1.91471
11
2.68107
21
-1.91242
0
LINE
8
BLACK
6
CONTINUOUS
10
2.68107
20
-1.91242
11
2.68128
21
-1.91198
0
LINE
8
BLACK
6
CONTINUOUS
10
2.68128
20
-1.91198
11
2.68133
21
-1.91189
0
LINE
8
BLACK
6
CONTINUOUS
10
2.68133
20
-1.91189
11
2.68312
21
-1.90854
0
LINE
8
BLACK
6
CONTINUOUS
10
2.68312
20
-1.90854
11
2.68324
21
-1.90835
0
LINE
8
BLACK
6
CONTINUOUS
10
2.68324
20
-1.90835
11
2.68509
21
-1.9057
0
LINE
8
BLACK
6
CONTINUOUS
10
2.68509
20
-1.9057
11
2.68518
21
-1.90558
0
LINE
8
BLACK
6
CONTINUOUS
10
2.68518
20
-1.90558
11
2.68754
21
-1.9027
0
LINE
8
BLACK
6
CONTINUOUS
10
2.68754
20
-1.9027
11
2.68767
21
-1.90256
0
LINE
8
BLACK
6
CONTINUOUS
10
2.68767
20
-1.90256
11
2.68997
21
-1.90027
0
LINE
8
BLACK
6
CONTINUOUS
10
2.68997
20
-1.90027
11
2.69011
21
-1.90014
0
LINE
8
BLACK
6
CONTINUOUS
10
2.69011
20
-1.90014
11
2.69298
21
-1.89778
0
LINE
8
BLACK
6
CONTINUOUS
10
2.69298
20
-1.89778
11
2.6931
21
-1.89769
0
LINE
8
BLACK
6
CONTINUOUS
10
2.6931
20
-1.89769
11
2.69575
21
-1.89584
0
LINE
8
BLACK
6
CONTINUOUS
10
2.69575
20
-1.89584
11
2.69594
21
-1.89571
0
LINE
8
BLACK
6
CONTINUOUS
10
2.69594
20
-1.89571
11
2.69929
21
-1.89393
0
LINE
8
BLACK
6
CONTINUOUS
10
2.69929
20
-1.89393
11
2.69938
21
-1.89388
0
LINE
8
BLACK
6
CONTINUOUS
10
2.69938
20
-1.89388
11
2.70211
21
-1.89261
0
LINE
8
BLACK
6
CONTINUOUS
10
2.70211
20
-1.89261
11
2.70263
21
-1.89241
0
LINE
8
BLACK
6
CONTINUOUS
10
2.70263
20
-1.89241
11
2.70634
21
-1.89128
0
LINE
8
BLACK
6
CONTINUOUS
10
2.70634
20
-1.89128
11
2.70639
21
-1.89127
0
LINE
8
BLACK
6
CONTINUOUS
10
2.70639
20
-1.89127
11
2.70907
21
-1.89055
0
LINE
8
BLACK
6
CONTINUOUS
10
2.70907
20
-1.89055
11
2.70969
21
-1.89044
0
LINE
8
BLACK
6
CONTINUOUS
10
2.70969
20
-1.89044
11
2.71474
21
-1.88994
0
LINE
8
BLACK
6
CONTINUOUS
10
2.71474
20
-1.88994
11
2.71645
21
-1.88979
0
LINE
8
BLACK
6
CONTINUOUS
10
2.71645
20
-1.88979
11
2.71662
21
-1.88978
0
LINE
8
BLACK
6
CONTINUOUS
10
2.71662
20
-1.88978
11
3.58259
21
-1.88978
0
LINE
8
BLACK
6
CONTINUOUS
10
3.58259
20
-1.88978
11
3.58276
21
-1.88979
0
LINE
8
BLACK
6
CONTINUOUS
10
3.55413
20
-2.74409
11
3.55413
21
-2.75591
0
LINE
8
BLACK
6
CONTINUOUS
10
3.55413
20
-2.75591
11
3.60236
21
-2.75591
0
LINE
8
BLACK
6
CONTINUOUS
10
3.60236
20
-2.75591
11
3.60236
21
-2.76969
0
LINE
8
BLACK
6
CONTINUOUS
10
3.60236
20
-2.76969
11
3.61417
21
-2.76969
0
LINE
8
BLACK
6
CONTINUOUS
10
3.61417
20
-2.76969
11
3.61417
21
-2.76968
0
LINE
8
BLACK
6
CONTINUOUS
10
3.61417
20
-2.76968
11
3.61417
21
-2.75414
0
LINE
8
BLACK
6
CONTINUOUS
10
3.61417
20
-2.75414
11
3.61417
21
-2.75414
0
LINE
8
BLACK
6
CONTINUOUS
10
3.61417
20
-2.75414
11
3.61406
21
-2.75315
0
LINE
8
BLACK
6
CONTINUOUS
10
3.61406
20
-2.75315
11
3.61228
21
-2.74912
0
LINE
8
BLACK
6
CONTINUOUS
10
3.61228
20
-2.74912
11
3.60915
21
-2.74599
0
LINE
8
BLACK
6
CONTINUOUS
10
3.60915
20
-2.74599
11
3.60511
21
-2.74421
0
LINE
8
BLACK
6
CONTINUOUS
10
3.60511
20
-2.74421
11
3.60413
21
-2.74409
0
LINE
8
BLACK
6
CONTINUOUS
10
3.60413
20
-2.74409
11
3.55413
21
-2.74409
0
LINE
8
BLACK
6
CONTINUOUS
10
3.55413
20
-2.74409
11
3.55413
21
-2.74409
0
LINE
8
BLACK
6
CONTINUOUS
10
3.55569
20
-2.24572
11
3.55918
21
-2.24921
0
LINE
8
BLACK
6
CONTINUOUS
10
3.55918
20
-2.24921
11
3.56141
21
-2.2536
0
LINE
8
BLACK
6
CONTINUOUS
10
3.56141
20
-2.2536
11
3.56219
21
-2.25846
0
LINE
8
BLACK
6
CONTINUOUS
10
3.56219
20
-2.25846
11
3.56141
21
-2.26333
0
LINE
8
BLACK
6
CONTINUOUS
10
3.56141
20
-2.26333
11
3.55918
21
-2.26772
0
LINE
8
BLACK
6
CONTINUOUS
10
3.55918
20
-2.26772
11
3.55569
21
-2.27121
0
LINE
8
BLACK
6
CONTINUOUS
10
3.55569
20
-2.27121
11
3.5513
21
-2.27344
0
LINE
8
BLACK
6
CONTINUOUS
10
3.5513
20
-2.27344
11
3.55118
21
-2.27346
0
LINE
8
BLACK
6
CONTINUOUS
10
3.55118
20
-2.27346
11
3.55118
21
-2.29507
0
LINE
8
BLACK
6
CONTINUOUS
10
3.55118
20
-2.29507
11
3.5513
21
-2.29606
0
LINE
8
BLACK
6
CONTINUOUS
10
3.5513
20
-2.29606
11
3.55308
21
-2.3001
0
LINE
8
BLACK
6
CONTINUOUS
10
3.55308
20
-2.3001
11
3.5562
21
-2.30322
0
LINE
8
BLACK
6
CONTINUOUS
10
3.5562
20
-2.30322
11
3.56024
21
-2.305
0
LINE
8
BLACK
6
CONTINUOUS
10
3.56024
20
-2.305
11
3.56123
21
-2.30512
0
LINE
8
BLACK
6
CONTINUOUS
10
3.56123
20
-2.30512
11
3.57677
21
-2.30512
0
LINE
8
BLACK
6
CONTINUOUS
10
3.57677
20
-2.30512
11
3.57677
21
-2.30512
0
LINE
8
BLACK
6
CONTINUOUS
10
3.57677
20
-2.30512
11
3.57677
21
-2.29331
0
LINE
8
BLACK
6
CONTINUOUS
10
3.57677
20
-2.29331
11
3.56299
21
-2.29331
0
LINE
8
BLACK
6
CONTINUOUS
10
3.56299
20
-2.29331
11
3.56299
21
-2.24508
0
LINE
8
BLACK
6
CONTINUOUS
10
3.56299
20
-2.24508
11
3.55443
21
-2.24508
0
LINE
8
BLACK
6
CONTINUOUS
10
3.55443
20
-2.24508
11
3.55569
21
-2.24572
0
LINE
8
BLACK
6
CONTINUOUS
10
3.58858
20
-2.18504
11
3.60236
21
-2.18504
0
LINE
8
BLACK
6
CONTINUOUS
10
3.60236
20
-2.18504
11
3.60236
21
-2.23327
0
LINE
8
BLACK
6
CONTINUOUS
10
3.60236
20
-2.23327
11
3.61417
21
-2.23327
0
LINE
8
BLACK
6
CONTINUOUS
10
3.61417
20
-2.23327
11
3.61417
21
-2.23327
0
LINE
8
BLACK
6
CONTINUOUS
10
3.61417
20
-2.23327
11
3.61417
21
-2.18328
0
LINE
8
BLACK
6
CONTINUOUS
10
3.61417
20
-2.18328
11
3.61417
21
-2.18328
0
LINE
8
BLACK
6
CONTINUOUS
10
3.61417
20
-2.18328
11
3.61406
21
-2.18229
0
LINE
8
BLACK
6
CONTINUOUS
10
3.61406
20
-2.18229
11
3.61228
21
-2.17825
0
LINE
8
BLACK
6
CONTINUOUS
10
3.61228
20
-2.17825
11
3.60915
21
-2.17513
0
LINE
8
BLACK
6
CONTINUOUS
10
3.60915
20
-2.17513
11
3.60511
21
-2.17334
0
LINE
8
BLACK
6
CONTINUOUS
10
3.60511
20
-2.17334
11
3.60413
21
-2.17323
0
LINE
8
BLACK
6
CONTINUOUS
10
3.60413
20
-2.17323
11
3.58858
21
-2.17323
0
LINE
8
BLACK
6
CONTINUOUS
10
3.58858
20
-2.17323
11
3.58858
21
-2.18504
0
LINE
8
BLACK
6
CONTINUOUS
10
3.53404
20
-1.91594
11
3.52505
21
-1.91835
0
LINE
8
BLACK
6
CONTINUOUS
10
3.52505
20
-1.91835
11
3.51662
21
-1.92228
0
LINE
8
BLACK
6
CONTINUOUS
10
3.51662
20
-1.92228
11
3.51662
21
-1.92228
0
LINE
8
BLACK
6
CONTINUOUS
10
3.51662
20
-1.92228
11
3.509
21
-1.92762
0
LINE
8
BLACK
6
CONTINUOUS
10
3.509
20
-1.92762
11
3.50242
21
-1.9342
0
LINE
8
BLACK
6
CONTINUOUS
10
3.50242
20
-1.9342
11
3.49709
21
-1.94182
0
LINE
8
BLACK
6
CONTINUOUS
10
3.49709
20
-1.94182
11
3.49315
21
-1.95025
0
LINE
8
BLACK
6
CONTINUOUS
10
3.49315
20
-1.95025
11
3.49075
21
-1.95924
0
LINE
8
BLACK
6
CONTINUOUS
10
3.49075
20
-1.95924
11
3.48993
21
-1.9685
0
LINE
8
BLACK
6
CONTINUOUS
10
3.48993
20
-1.9685
11
3.48993
21
-1.9685
0
LINE
8
BLACK
6
CONTINUOUS
10
3.48993
20
-1.9685
11
3.49075
21
-1.97777
0
LINE
8
BLACK
6
CONTINUOUS
10
3.49075
20
-1.97777
11
3.49315
21
-1.98676
0
LINE
8
BLACK
6
CONTINUOUS
10
3.49315
20
-1.98676
11
3.49708
21
-1.99519
0
LINE
8
BLACK
6
CONTINUOUS
10
3.49708
20
-1.99519
11
3.49709
21
-1.99519
0
LINE
8
BLACK
6
CONTINUOUS
10
3.49709
20
-1.99519
11
3.49709
21
-1.99519
0
LINE
8
BLACK
6
CONTINUOUS
10
3.49709
20
-1.99519
11
3.49709
21
-1.99519
0
LINE
8
BLACK
6
CONTINUOUS
10
3.49709
20
-1.99519
11
3.50242
21
-2.00281
0
LINE
8
BLACK
6
CONTINUOUS
10
3.50242
20
-2.00281
11
3.509
21
-2.00939
0
LINE
8
BLACK
6
CONTINUOUS
10
3.509
20
-2.00939
11
3.51662
21
-2.01473
0
LINE
8
BLACK
6
CONTINUOUS
10
3.51662
20
-2.01473
11
3.51662
21
-2.01473
0
LINE
8
BLACK
6
CONTINUOUS
10
3.51662
20
-2.01473
11
3.51662
21
-2.01473
0
LINE
8
BLACK
6
CONTINUOUS
10
3.51662
20
-2.01473
11
3.51662
21
-2.01473
0
LINE
8
BLACK
6
CONTINUOUS
10
3.51662
20
-2.01473
11
3.52505
21
-2.01866
0
LINE
8
BLACK
6
CONTINUOUS
10
3.52505
20
-2.01866
11
3.52505
21
-2.01866
0
LINE
8
BLACK
6
CONTINUOUS
10
3.52505
20
-2.01866
11
3.53404
21
-2.02107
0
LINE
8
BLACK
6
CONTINUOUS
10
3.53404
20
-2.02107
11
3.53404
21
-2.02107
0
LINE
8
BLACK
6
CONTINUOUS
10
3.53404
20
-2.02107
11
3.53404
21
-2.02107
0
LINE
8
BLACK
6
CONTINUOUS
10
3.53404
20
-2.02107
11
3.54099
21
-2.02167
0
LINE
8
BLACK
6
CONTINUOUS
10
3.54099
20
-2.02167
11
3.54099
21
-2.02167
0
LINE
8
BLACK
6
CONTINUOUS
10
3.54099
20
-2.02167
11
3.54563
21
-2.02167
0
LINE
8
BLACK
6
CONTINUOUS
10
3.54563
20
-2.02167
11
3.55257
21
-2.02107
0
LINE
8
BLACK
6
CONTINUOUS
10
3.55257
20
-2.02107
11
3.55257
21
-2.02107
0
LINE
8
BLACK
6
CONTINUOUS
10
3.55257
20
-2.02107
11
3.55258
21
-2.02107
0
LINE
8
BLACK
6
CONTINUOUS
10
3.55258
20
-2.02107
11
3.56156
21
-2.01866
0
LINE
8
BLACK
6
CONTINUOUS
10
3.56156
20
-2.01866
11
3.56999
21
-2.01473
0
LINE
8
BLACK
6
CONTINUOUS
10
3.56999
20
-2.01473
11
3.57761
21
-2.00939
0
LINE
8
BLACK
6
CONTINUOUS
10
3.57761
20
-2.00939
11
3.58419
21
-2.00281
0
LINE
8
BLACK
6
CONTINUOUS
10
3.58419
20
-2.00281
11
3.58953
21
-1.99519
0
LINE
8
BLACK
6
CONTINUOUS
10
3.58953
20
-1.99519
11
3.59346
21
-1.98676
0
LINE
8
BLACK
6
CONTINUOUS
10
3.59346
20
-1.98676
11
3.59587
21
-1.97777
0
LINE
8
BLACK
6
CONTINUOUS
10
3.59587
20
-1.97777
11
3.59668
21
-1.9685
0
LINE
8
BLACK
6
CONTINUOUS
10
3.59668
20
-1.9685
11
3.59587
21
-1.95924
0
LINE
8
BLACK
6
CONTINUOUS
10
3.59587
20
-1.95924
11
3.59346
21
-1.95025
0
LINE
8
BLACK
6
CONTINUOUS
10
3.59346
20
-1.95025
11
3.58953
21
-1.94182
0
LINE
8
BLACK
6
CONTINUOUS
10
3.58953
20
-1.94182
11
3.58419
21
-1.9342
0
LINE
8
BLACK
6
CONTINUOUS
10
3.58419
20
-1.9342
11
3.57761
21
-1.92762
0
LINE
8
BLACK
6
CONTINUOUS
10
3.57761
20
-1.92762
11
3.57761
21
-1.92762
0
LINE
8
BLACK
6
CONTINUOUS
10
3.57761
20
-1.92762
11
3.57761
21
-1.92762
0
LINE
8
BLACK
6
CONTINUOUS
10
3.57761
20
-1.92762
11
3.57001
21
-1.92229
0
LINE
8
BLACK
6
CONTINUOUS
10
3.57001
20
-1.92229
11
3.56999
21
-1.92228
0
LINE
8
BLACK
6
CONTINUOUS
10
3.56999
20
-1.92228
11
3.56999
21
-1.92228
0
LINE
8
BLACK
6
CONTINUOUS
10
3.56999
20
-1.92228
11
3.56999
21
-1.92228
0
LINE
8
BLACK
6
CONTINUOUS
10
3.56999
20
-1.92228
11
3.56999
21
-1.92228
0
LINE
8
BLACK
6
CONTINUOUS
10
3.56999
20
-1.92228
11
3.56156
21
-1.91835
0
LINE
8
BLACK
6
CONTINUOUS
10
3.56156
20
-1.91835
11
3.56156
21
-1.91835
0
LINE
8
BLACK
6
CONTINUOUS
10
3.56156
20
-1.91835
11
3.55857
21
-1.91755
0
LINE
8
BLACK
6
CONTINUOUS
10
3.55857
20
-1.91755
11
3.55258
21
-1.91594
0
LINE
8
BLACK
6
CONTINUOUS
10
3.55258
20
-1.91594
11
3.55258
21
-1.91594
0
LINE
8
BLACK
6
CONTINUOUS
10
3.55258
20
-1.91594
11
3.55257
21
-1.91594
0
LINE
8
BLACK
6
CONTINUOUS
10
3.55257
20
-1.91594
11
3.54563
21
-1.91533
0
LINE
8
BLACK
6
CONTINUOUS
10
3.54563
20
-1.91533
11
3.54563
21
-1.91533
0
LINE
8
BLACK
6
CONTINUOUS
10
3.54563
20
-1.91533
11
3.54099
21
-1.91533
0
LINE
8
BLACK
6
CONTINUOUS
10
3.54099
20
-1.91533
11
3.54099
21
-1.91533
0
LINE
8
BLACK
6
CONTINUOUS
10
3.54099
20
-1.91533
11
3.53404
21
-1.91594
0
LINE
8
BLACK
6
CONTINUOUS
10
3.55413
20
-2.80709
11
3.60413
21
-2.80709
0
LINE
8
BLACK
6
CONTINUOUS
10
3.60413
20
-2.80709
11
3.60413
21
-2.80709
0
LINE
8
BLACK
6
CONTINUOUS
10
3.60413
20
-2.80709
11
3.60511
21
-2.80697
0
LINE
8
BLACK
6
CONTINUOUS
10
3.60511
20
-2.80697
11
3.60915
21
-2.80519
0
LINE
8
BLACK
6
CONTINUOUS
10
3.60915
20
-2.80519
11
3.61228
21
-2.80207
0
LINE
8
BLACK
6
CONTINUOUS
10
3.61228
20
-2.80207
11
3.61416
21
-2.79779
0
LINE
8
BLACK
6
CONTINUOUS
10
3.61416
20
-2.79779
11
3.6146
21
-2.79731
0
LINE
8
BLACK
6
CONTINUOUS
10
3.6146
20
-2.79731
11
3.61417
21
-2.79578
0
LINE
8
BLACK
6
CONTINUOUS
10
3.61417
20
-2.79578
11
3.61417
21
-2.7815
0
LINE
8
BLACK
6
CONTINUOUS
10
3.61417
20
-2.7815
11
3.61417
21
-2.7815
0
LINE
8
BLACK
6
CONTINUOUS
10
3.61417
20
-2.7815
11
3.60236
21
-2.7815
0
LINE
8
BLACK
6
CONTINUOUS
10
3.60236
20
-2.7815
11
3.60236
21
-2.79528
0
LINE
8
BLACK
6
CONTINUOUS
10
3.60236
20
-2.79528
11
3.55413
21
-2.79528
0
LINE
8
BLACK
6
CONTINUOUS
10
3.55413
20
-2.79528
11
3.55413
21
-2.80709
0
LINE
8
BLACK
6
CONTINUOUS
10
3.55413
20
-2.80709
11
3.55413
21
-2.80709
0
LINE
8
BLACK
6
CONTINUOUS
10
3.4824
20
-2.79803
11
3.48418
21
-2.80207
0
LINE
8
BLACK
6
CONTINUOUS
10
3.48418
20
-2.80207
11
3.4873
21
-2.80519
0
LINE
8
BLACK
6
CONTINUOUS
10
3.4873
20
-2.80519
11
3.49134
21
-2.80697
0
LINE
8
BLACK
6
CONTINUOUS
10
3.49134
20
-2.80697
11
3.49233
21
-2.80709
0
LINE
8
BLACK
6
CONTINUOUS
10
3.49233
20
-2.80709
11
3.54232
21
-2.80709
0
LINE
8
BLACK
6
CONTINUOUS
10
3.54232
20
-2.80709
11
3.54232
21
-2.80709
0
LINE
8
BLACK
6
CONTINUOUS
10
3.54232
20
-2.80709
11
3.54232
21
-2.80709
0
LINE
8
BLACK
6
CONTINUOUS
10
3.54232
20
-2.80709
11
3.54232
21
-2.79528
0
LINE
8
BLACK
6
CONTINUOUS
10
3.54232
20
-2.79528
11
3.49409
21
-2.79528
0
LINE
8
BLACK
6
CONTINUOUS
10
3.49409
20
-2.79528
11
3.49409
21
-2.7815
0
LINE
8
BLACK
6
CONTINUOUS
10
3.49409
20
-2.7815
11
3.48228
21
-2.7815
0
LINE
8
BLACK
6
CONTINUOUS
10
3.48228
20
-2.7815
11
3.48228
21
-2.7815
0
LINE
8
BLACK
6
CONTINUOUS
10
3.48228
20
-2.7815
11
3.48228
21
-2.79704
0
LINE
8
BLACK
6
CONTINUOUS
10
3.48228
20
-2.79704
11
3.4824
21
-2.79803
0
LINE
8
BLACK
6
CONTINUOUS
10
3.48228
20
-2.76969
11
3.49409
21
-2.76969
0
LINE
8
BLACK
6
CONTINUOUS
10
3.49409
20
-2.76969
11
3.49409
21
-2.75591
0
LINE
8
BLACK
6
CONTINUOUS
10
3.49409
20
-2.75591
11
3.54232
21
-2.75591
0
LINE
8
BLACK
6
CONTINUOUS
10
3.54232
20
-2.75591
11
3.54232
21
-2.74409
0
LINE
8
BLACK
6
CONTINUOUS
10
3.54232
20
-2.74409
11
3.54232
21
-2.74409
0
LINE
8
BLACK
6
CONTINUOUS
10
3.54232
20
-2.74409
11
3.49233
21
-2.74409
0
LINE
8
BLACK
6
CONTINUOUS
10
3.49233
20
-2.74409
11
3.49233
21
-2.74409
0
LINE
8
BLACK
6
CONTINUOUS
10
3.49233
20
-2.74409
11
3.49134
21
-2.74421
0
LINE
8
BLACK
6
CONTINUOUS
10
3.49134
20
-2.74421
11
3.4873
21
-2.74599
0
LINE
8
BLACK
6
CONTINUOUS
10
3.4873
20
-2.74599
11
3.48418
21
-2.74912
0
LINE
8
BLACK
6
CONTINUOUS
10
3.48418
20
-2.74912
11
3.4824
21
-2.75315
0
LINE
8
BLACK
6
CONTINUOUS
10
3.4824
20
-2.75315
11
3.48228
21
-2.75414
0
LINE
8
BLACK
6
CONTINUOUS
10
3.48228
20
-2.75414
11
3.48228
21
-2.76968
0
LINE
8
BLACK
6
CONTINUOUS
10
3.48228
20
-2.76968
11
3.48228
21
-2.76969
0
LINE
8
BLACK
6
CONTINUOUS
10
2.70334
20
-2.76517
11
2.70575
21
-2.77416
0
LINE
8
BLACK
6
CONTINUOUS
10
2.70575
20
-2.77416
11
2.70968
21
-2.78259
0
LINE
8
BLACK
6
CONTINUOUS
10
2.70968
20
-2.78259
11
2.70968
21
-2.78259
0
LINE
8
BLACK
6
CONTINUOUS
10
2.70968
20
-2.78259
11
2.71313
21
-2.78751
0
LINE
8
BLACK
6
CONTINUOUS
10
2.71313
20
-2.78751
11
2.71502
21
-2.79021
0
LINE
8
BLACK
6
CONTINUOUS
10
2.71502
20
-2.79021
11
2.7216
21
-2.79679
0
LINE
8
BLACK
6
CONTINUOUS
10
2.7216
20
-2.79679
11
2.7216
21
-2.79679
0
LINE
8
BLACK
6
CONTINUOUS
10
2.7216
20
-2.79679
11
2.7216
21
-2.79679
0
LINE
8
BLACK
6
CONTINUOUS
10
2.7216
20
-2.79679
11
2.72233
21
-2.79731
0
LINE
8
BLACK
6
CONTINUOUS
10
2.72233
20
-2.79731
11
2.72922
21
-2.80213
0
LINE
8
BLACK
6
CONTINUOUS
10
2.72922
20
-2.80213
11
2.72922
21
-2.80213
0
LINE
8
BLACK
6
CONTINUOUS
10
2.72922
20
-2.80213
11
2.72922
21
-2.80213
0
LINE
8
BLACK
6
CONTINUOUS
10
2.72922
20
-2.80213
11
2.72922
21
-2.80213
0
LINE
8
BLACK
6
CONTINUOUS
10
2.72922
20
-2.80213
11
2.73765
21
-2.80606
0
LINE
8
BLACK
6
CONTINUOUS
10
2.73765
20
-2.80606
11
2.73765
21
-2.80606
0
LINE
8
BLACK
6
CONTINUOUS
10
2.73765
20
-2.80606
11
2.74664
21
-2.80847
0
LINE
8
BLACK
6
CONTINUOUS
10
2.74664
20
-2.80847
11
2.74664
21
-2.80847
0
LINE
8
BLACK
6
CONTINUOUS
10
2.74664
20
-2.80847
11
2.74664
21
-2.80847
0
LINE
8
BLACK
6
CONTINUOUS
10
2.74664
20
-2.80847
11
2.75358
21
-2.80907
0
LINE
8
BLACK
6
CONTINUOUS
10
2.75358
20
-2.80907
11
2.75358
21
-2.80907
0
LINE
8
BLACK
6
CONTINUOUS
10
2.75358
20
-2.80907
11
2.75823
21
-2.80907
0
LINE
8
BLACK
6
CONTINUOUS
10
2.75823
20
-2.80907
11
2.76517
21
-2.80847
0
LINE
8
BLACK
6
CONTINUOUS
10
2.76517
20
-2.80847
11
2.76517
21
-2.80847
0
LINE
8
BLACK
6
CONTINUOUS
10
2.76517
20
-2.80847
11
2.76517
21
-2.80847
0
LINE
8
BLACK
6
CONTINUOUS
10
2.76517
20
-2.80847
11
2.77416
21
-2.80606
0
LINE
8
BLACK
6
CONTINUOUS
10
2.77416
20
-2.80606
11
2.78259
21
-2.80213
0
LINE
8
BLACK
6
CONTINUOUS
10
2.78259
20
-2.80213
11
2.79021
21
-2.79679
0
LINE
8
BLACK
6
CONTINUOUS
10
2.79021
20
-2.79679
11
2.79679
21
-2.79021
0
LINE
8
BLACK
6
CONTINUOUS
10
2.79679
20
-2.79021
11
2.80213
21
-2.78259
0
LINE
8
BLACK
6
CONTINUOUS
10
2.80213
20
-2.78259
11
2.80606
21
-2.77416
0
LINE
8
BLACK
6
CONTINUOUS
10
2.80606
20
-2.77416
11
2.80847
21
-2.76517
0
LINE
8
BLACK
6
CONTINUOUS
10
2.80847
20
-2.76517
11
2.80847
21
-2.76517
0
LINE
8
BLACK
6
CONTINUOUS
10
2.80847
20
-2.76517
11
2.80928
21
-2.75591
0
LINE
8
BLACK
6
CONTINUOUS
10
2.80928
20
-2.75591
11
2.80928
21
-2.75591
0
LINE
8
BLACK
6
CONTINUOUS
10
2.80928
20
-2.75591
11
2.80847
21
-2.74664
0
LINE
8
BLACK
6
CONTINUOUS
10
2.80847
20
-2.74664
11
2.80847
21
-2.74664
0
LINE
8
BLACK
6
CONTINUOUS
10
2.80847
20
-2.74664
11
2.80847
21
-2.74664
0
LINE
8
BLACK
6
CONTINUOUS
10
2.80847
20
-2.74664
11
2.80606
21
-2.73765
0
LINE
8
BLACK
6
CONTINUOUS
10
2.80606
20
-2.73765
11
2.80213
21
-2.72922
0
LINE
8
BLACK
6
CONTINUOUS
10
2.80213
20
-2.72922
11
2.79723
21
-2.72223
0
LINE
8
BLACK
6
CONTINUOUS
10
2.79723
20
-2.72223
11
2.79679
21
-2.7216
0
LINE
8
BLACK
6
CONTINUOUS
10
2.79679
20
-2.7216
11
2.79679
21
-2.7216
0
LINE
8
BLACK
6
CONTINUOUS
10
2.79679
20
-2.7216
11
2.79679
21
-2.7216
0
LINE
8
BLACK
6
CONTINUOUS
10
2.79679
20
-2.7216
11
2.79021
21
-2.71502
0
LINE
8
BLACK
6
CONTINUOUS
10
2.79021
20
-2.71502
11
2.79021
21
-2.71502
0
LINE
8
BLACK
6
CONTINUOUS
10
2.79021
20
-2.71502
11
2.79021
21
-2.71502
0
LINE
8
BLACK
6
CONTINUOUS
10
2.79021
20
-2.71502
11
2.78259
21
-2.70968
0
LINE
8
BLACK
6
CONTINUOUS
10
2.78259
20
-2.70968
11
2.78259
21
-2.70968
0
LINE
8
BLACK
6
CONTINUOUS
10
2.78259
20
-2.70968
11
2.77416
21
-2.70575
0
LINE
8
BLACK
6
CONTINUOUS
10
2.77416
20
-2.70575
11
2.77416
21
-2.70575
0
LINE
8
BLACK
6
CONTINUOUS
10
2.77416
20
-2.70575
11
2.77116
21
-2.70495
0
LINE
8
BLACK
6
CONTINUOUS
10
2.77116
20
-2.70495
11
2.76517
21
-2.70334
0
LINE
8
BLACK
6
CONTINUOUS
10
2.76517
20
-2.70334
11
2.76517
21
-2.70334
0
LINE
8
BLACK
6
CONTINUOUS
10
2.76517
20
-2.70334
11
2.76517
21
-2.70334
0
LINE
8
BLACK
6
CONTINUOUS
10
2.76517
20
-2.70334
11
2.75823
21
-2.70274
0
LINE
8
BLACK
6
CONTINUOUS
10
2.75823
20
-2.70274
11
2.75823
21
-2.70274
0
LINE
8
BLACK
6
CONTINUOUS
10
2.75823
20
-2.70274
11
2.75358
21
-2.70274
0
LINE
8
BLACK
6
CONTINUOUS
10
2.75358
20
-2.70274
11
2.75358
21
-2.70274
0
LINE
8
BLACK
6
CONTINUOUS
10
2.75358
20
-2.70274
11
2.74664
21
-2.70334
0
LINE
8
BLACK
6
CONTINUOUS
10
2.74664
20
-2.70334
11
2.73765
21
-2.70575
0
LINE
8
BLACK
6
CONTINUOUS
10
2.73765
20
-2.70575
11
2.72922
21
-2.70968
0
LINE
8
BLACK
6
CONTINUOUS
10
2.72922
20
-2.70968
11
2.72922
21
-2.70968
0
LINE
8
BLACK
6
CONTINUOUS
10
2.72922
20
-2.70968
11
2.7216
21
-2.71502
0
LINE
8
BLACK
6
CONTINUOUS
10
2.7216
20
-2.71502
11
2.71502
21
-2.7216
0
LINE
8
BLACK
6
CONTINUOUS
10
2.71502
20
-2.7216
11
2.70968
21
-2.72922
0
LINE
8
BLACK
6
CONTINUOUS
10
2.70968
20
-2.72922
11
2.70575
21
-2.73765
0
LINE
8
BLACK
6
CONTINUOUS
10
2.70575
20
-2.73765
11
2.70334
21
-2.74664
0
LINE
8
BLACK
6
CONTINUOUS
10
2.70334
20
-2.74664
11
2.70253
21
-2.75591
0
LINE
8
BLACK
6
CONTINUOUS
10
2.70253
20
-2.75591
11
2.70253
21
-2.75591
0
LINE
8
BLACK
6
CONTINUOUS
10
2.70253
20
-2.75591
11
2.70334
21
-2.76517
0
LINE
8
BLACK
6
CONTINUOUS
10
2.91001
20
-2.38155
11
2.91001
21
-2.38155
0
LINE
8
BLACK
6
CONTINUOUS
10
2.91001
20
-2.38155
11
2.91001
21
-2.38155
0
LINE
8
BLACK
6
CONTINUOUS
10
2.91001
20
-2.38155
11
2.91001
21
-2.38155
0
LINE
8
BLACK
6
CONTINUOUS
10
2.91001
20
-2.38155
11
2.91235
21
-2.40076
0
LINE
8
BLACK
6
CONTINUOUS
10
2.91235
20
-2.40076
11
2.91235
21
-2.40076
0
LINE
8
BLACK
6
CONTINUOUS
10
2.91235
20
-2.40076
11
2.91622
21
-2.41973
0
LINE
8
BLACK
6
CONTINUOUS
10
2.91622
20
-2.41973
11
2.91622
21
-2.41973
0
LINE
8
BLACK
6
CONTINUOUS
10
2.91622
20
-2.41973
11
2.9216
21
-2.43832
0
LINE
8
BLACK
6
CONTINUOUS
10
2.9216
20
-2.43832
11
2.9216
21
-2.43832
0
LINE
8
BLACK
6
CONTINUOUS
10
2.9216
20
-2.43832
11
2.92658
21
-2.45144
0
LINE
8
BLACK
6
CONTINUOUS
10
2.92658
20
-2.45144
11
2.92847
21
-2.45642
0
LINE
8
BLACK
6
CONTINUOUS
10
2.92847
20
-2.45642
11
2.93457
21
-2.46927
0
LINE
8
BLACK
6
CONTINUOUS
10
2.93457
20
-2.46927
11
2.93672
21
-2.4738
0
LINE
8
BLACK
6
CONTINUOUS
10
2.93672
20
-2.4738
11
2.93677
21
-2.47391
0
LINE
8
BLACK
6
CONTINUOUS
10
2.93677
20
-2.47391
11
2.94645
21
-2.49068
0
LINE
8
BLACK
6
CONTINUOUS
10
2.94645
20
-2.49068
11
2.94645
21
-2.49068
0
LINE
8
BLACK
6
CONTINUOUS
10
2.94645
20
-2.49068
11
2.95744
21
-2.50661
0
LINE
8
BLACK
6
CONTINUOUS
10
2.95744
20
-2.50661
11
2.96969
21
-2.5216
0
LINE
8
BLACK
6
CONTINUOUS
10
2.96969
20
-2.5216
11
2.98309
21
-2.53556
0
LINE
8
BLACK
6
CONTINUOUS
10
2.98309
20
-2.53556
11
2.98309
21
-2.53556
0
LINE
8
BLACK
6
CONTINUOUS
10
2.98309
20
-2.53556
11
2.99382
21
-2.54506
0
LINE
8
BLACK
6
CONTINUOUS
10
2.99382
20
-2.54506
11
2.99758
21
-2.5484
0
LINE
8
BLACK
6
CONTINUOUS
10
2.99758
20
-2.5484
11
2.99758
21
-2.5484
0
LINE
8
BLACK
6
CONTINUOUS
10
2.99758
20
-2.5484
11
3.01306
21
-2.56003
0
LINE
8
BLACK
6
CONTINUOUS
10
3.01306
20
-2.56003
11
3.02031
21
-2.56461
0
LINE
8
BLACK
6
CONTINUOUS
10
3.02031
20
-2.56461
11
3.02942
21
-2.57037
0
LINE
8
BLACK
6
CONTINUOUS
10
3.02942
20
-2.57037
11
3.02942
21
-2.57037
0
LINE
8
BLACK
6
CONTINUOUS
10
3.02942
20
-2.57037
11
3.02942
21
-2.57037
0
LINE
8
BLACK
6
CONTINUOUS
10
3.02942
20
-2.57037
11
3.02942
21
-2.57037
0
LINE
8
BLACK
6
CONTINUOUS
10
3.02942
20
-2.57037
11
3.04348
21
-2.57775
0
LINE
8
BLACK
6
CONTINUOUS
10
3.04348
20
-2.57775
11
3.04656
21
-2.57937
0
LINE
8
BLACK
6
CONTINUOUS
10
3.04656
20
-2.57937
11
3.06437
21
-2.58696
0
LINE
8
BLACK
6
CONTINUOUS
10
3.06437
20
-2.58696
11
3.07344
21
-2.58999
0
LINE
8
BLACK
6
CONTINUOUS
10
3.07344
20
-2.58999
11
3.08273
21
-2.59309
0
LINE
8
BLACK
6
CONTINUOUS
10
3.08273
20
-2.59309
11
3.08273
21
-2.59309
0
LINE
8
BLACK
6
CONTINUOUS
10
3.08273
20
-2.59309
11
3.08273
21
-2.59309
0
LINE
8
BLACK
6
CONTINUOUS
10
3.08273
20
-2.59309
11
3.10153
21
-2.59772
0
LINE
8
BLACK
6
CONTINUOUS
10
3.10153
20
-2.59772
11
3.12063
21
-2.60082
0
LINE
8
BLACK
6
CONTINUOUS
10
3.12063
20
-2.60082
11
3.13993
21
-2.60238
0
LINE
8
BLACK
6
CONTINUOUS
10
3.13993
20
-2.60238
11
3.13993
21
-2.60238
0
LINE
8
BLACK
6
CONTINUOUS
10
3.13993
20
-2.60238
11
3.15928
21
-2.60238
0
LINE
8
BLACK
6
CONTINUOUS
10
3.15928
20
-2.60238
11
3.15929
21
-2.60238
0
LINE
8
BLACK
6
CONTINUOUS
10
3.15929
20
-2.60238
11
3.17858
21
-2.60082
0
LINE
8
BLACK
6
CONTINUOUS
10
3.17858
20
-2.60082
11
3.19769
21
-2.59772
0
LINE
8
BLACK
6
CONTINUOUS
10
3.19769
20
-2.59772
11
3.21648
21
-2.59309
0
LINE
8
BLACK
6
CONTINUOUS
10
3.21648
20
-2.59309
11
3.23484
21
-2.58696
0
LINE
8
BLACK
6
CONTINUOUS
10
3.23484
20
-2.58696
11
3.25265
21
-2.57937
0
LINE
8
BLACK
6
CONTINUOUS
10
3.25265
20
-2.57937
11
3.26326
21
-2.5738
0
LINE
8
BLACK
6
CONTINUOUS
10
3.26326
20
-2.5738
11
3.26979
21
-2.57037
0
LINE
8
BLACK
6
CONTINUOUS
10
3.26979
20
-2.57037
11
3.26979
21
-2.57037
0
LINE
8
BLACK
6
CONTINUOUS
10
3.26979
20
-2.57037
11
3.26979
21
-2.57037
0
LINE
8
BLACK
6
CONTINUOUS
10
3.26979
20
-2.57037
11
3.28615
21
-2.56003
0
LINE
8
BLACK
6
CONTINUOUS
10
3.28615
20
-2.56003
11
3.30163
21
-2.5484
0
LINE
8
BLACK
6
CONTINUOUS
10
3.30163
20
-2.5484
11
3.31612
21
-2.53556
0
LINE
8
BLACK
6
CONTINUOUS
10
3.31612
20
-2.53556
11
3.32953
21
-2.5216
0
LINE
8
BLACK
6
CONTINUOUS
10
3.32953
20
-2.5216
11
3.34177
21
-2.50661
0
LINE
8
BLACK
6
CONTINUOUS
10
3.34177
20
-2.50661
11
3.35277
21
-2.49068
0
LINE
8
BLACK
6
CONTINUOUS
10
3.35277
20
-2.49068
11
3.36245
21
-2.47391
0
LINE
8
BLACK
6
CONTINUOUS
10
3.36245
20
-2.47391
11
3.37074
21
-2.45642
0
LINE
8
BLACK
6
CONTINUOUS
10
3.37074
20
-2.45642
11
3.37761
21
-2.43832
0
LINE
8
BLACK
6
CONTINUOUS
10
3.37761
20
-2.43832
11
3.37761
21
-2.43832
0
LINE
8
BLACK
6
CONTINUOUS
10
3.37761
20
-2.43832
11
3.37761
21
-2.43832
0
LINE
8
BLACK
6
CONTINUOUS
10
3.37761
20
-2.43832
11
3.38299
21
-2.41973
0
LINE
8
BLACK
6
CONTINUOUS
10
3.38299
20
-2.41973
11
3.38299
21
-2.41973
0
LINE
8
BLACK
6
CONTINUOUS
10
3.38299
20
-2.41973
11
3.38299
21
-2.41973
0
LINE
8
BLACK
6
CONTINUOUS
10
3.38299
20
-2.41973
11
3.38687
21
-2.40076
0
LINE
8
BLACK
6
CONTINUOUS
10
3.38687
20
-2.40076
11
3.38769
21
-2.39394
0
LINE
8
BLACK
6
CONTINUOUS
10
3.38769
20
-2.39394
11
3.3892
21
-2.38155
0
LINE
8
BLACK
6
CONTINUOUS
10
3.3892
20
-2.38155
11
3.3892
21
-2.38155
0
LINE
8
BLACK
6
CONTINUOUS
10
3.3892
20
-2.38155
11
3.3892
21
-2.38155
0
LINE
8
BLACK
6
CONTINUOUS
10
3.3892
20
-2.38155
11
3.38998
21
-2.3622
0
LINE
8
BLACK
6
CONTINUOUS
10
3.38998
20
-2.3622
11
3.3892
21
-2.34286
0
LINE
8
BLACK
6
CONTINUOUS
10
3.3892
20
-2.34286
11
3.3892
21
-2.34286
0
LINE
8
BLACK
6
CONTINUOUS
10
3.3892
20
-2.34286
11
3.3892
21
-2.34286
0
LINE
8
BLACK
6
CONTINUOUS
10
3.3892
20
-2.34286
11
3.38687
21
-2.32365
0
LINE
8
BLACK
6
CONTINUOUS
10
3.38687
20
-2.32365
11
3.38687
21
-2.32365
0
LINE
8
BLACK
6
CONTINUOUS
10
3.38687
20
-2.32365
11
3.38299
21
-2.30468
0
LINE
8
BLACK
6
CONTINUOUS
10
3.38299
20
-2.30468
11
3.38277
21
-2.30389
0
LINE
8
BLACK
6
CONTINUOUS
10
3.38277
20
-2.30389
11
3.37761
21
-2.28609
0
LINE
8
BLACK
6
CONTINUOUS
10
3.37761
20
-2.28609
11
3.37761
21
-2.28609
0
LINE
8
BLACK
6
CONTINUOUS
10
3.37761
20
-2.28609
11
3.3769
21
-2.28421
0
LINE
8
BLACK
6
CONTINUOUS
10
3.3769
20
-2.28421
11
3.37074
21
-2.26799
0
LINE
8
BLACK
6
CONTINUOUS
10
3.37074
20
-2.26799
11
3.36245
21
-2.2505
0
LINE
8
BLACK
6
CONTINUOUS
10
3.36245
20
-2.2505
11
3.35277
21
-2.23373
0
LINE
8
BLACK
6
CONTINUOUS
10
3.35277
20
-2.23373
11
3.34727
21
-2.22577
0
LINE
8
BLACK
6
CONTINUOUS
10
3.34727
20
-2.22577
11
3.34177
21
-2.2178
0
LINE
8
BLACK
6
CONTINUOUS
10
3.34177
20
-2.2178
11
3.32953
21
-2.20281
0
LINE
8
BLACK
6
CONTINUOUS
10
3.32953
20
-2.20281
11
3.31612
21
-2.18885
0
LINE
8
BLACK
6
CONTINUOUS
10
3.31612
20
-2.18885
11
3.31094
21
-2.18426
0
LINE
8
BLACK
6
CONTINUOUS
10
3.31094
20
-2.18426
11
3.30525
21
-2.17922
0
LINE
8
BLACK
6
CONTINUOUS
10
3.30525
20
-2.17922
11
3.30163
21
-2.17601
0
LINE
8
BLACK
6
CONTINUOUS
10
3.30163
20
-2.17601
11
3.30163
21
-2.17601
0
LINE
8
BLACK
6
CONTINUOUS
10
3.30163
20
-2.17601
11
3.28615
21
-2.16438
0
LINE
8
BLACK
6
CONTINUOUS
10
3.28615
20
-2.16438
11
3.27468
21
-2.15713
0
LINE
8
BLACK
6
CONTINUOUS
10
3.27468
20
-2.15713
11
3.26979
21
-2.15404
0
LINE
8
BLACK
6
CONTINUOUS
10
3.26979
20
-2.15404
11
3.26979
21
-2.15404
0
LINE
8
BLACK
6
CONTINUOUS
10
3.26979
20
-2.15404
11
3.26979
21
-2.15404
0
LINE
8
BLACK
6
CONTINUOUS
10
3.26979
20
-2.15404
11
3.26979
21
-2.15404
0
LINE
8
BLACK
6
CONTINUOUS
10
3.26979
20
-2.15404
11
3.25265
21
-2.14504
0
LINE
8
BLACK
6
CONTINUOUS
10
3.25265
20
-2.14504
11
3.25265
21
-2.14504
0
LINE
8
BLACK
6
CONTINUOUS
10
3.25265
20
-2.14504
11
3.25265
21
-2.14504
0
LINE
8
BLACK
6
CONTINUOUS
10
3.25265
20
-2.14504
11
3.25265
21
-2.14504
0
LINE
8
BLACK
6
CONTINUOUS
10
3.25265
20
-2.14504
11
3.23484
21
-2.13745
0
LINE
8
BLACK
6
CONTINUOUS
10
3.23484
20
-2.13745
11
3.23484
21
-2.13745
0
LINE
8
BLACK
6
CONTINUOUS
10
3.23484
20
-2.13745
11
3.23484
21
-2.13745
0
LINE
8
BLACK
6
CONTINUOUS
10
3.23484
20
-2.13745
11
3.21648
21
-2.13132
0
LINE
8
BLACK
6
CONTINUOUS
10
3.21648
20
-2.13132
11
3.21648
21
-2.13132
0
LINE
8
BLACK
6
CONTINUOUS
10
3.21648
20
-2.13132
11
3.20226
21
-2.12782
0
LINE
8
BLACK
6
CONTINUOUS
10
3.20226
20
-2.12782
11
3.19769
21
-2.12669
0
LINE
8
BLACK
6
CONTINUOUS
10
3.19769
20
-2.12669
11
3.17858
21
-2.12359
0
LINE
8
BLACK
6
CONTINUOUS
10
3.17858
20
-2.12359
11
3.17858
21
-2.12359
0
LINE
8
BLACK
6
CONTINUOUS
10
3.17858
20
-2.12359
11
3.16776
21
-2.12271
0
LINE
8
BLACK
6
CONTINUOUS
10
3.16776
20
-2.12271
11
3.15929
21
-2.12203
0
LINE
8
BLACK
6
CONTINUOUS
10
3.15929
20
-2.12203
11
3.13993
21
-2.12203
0
LINE
8
BLACK
6
CONTINUOUS
10
3.13993
20
-2.12203
11
3.13214
21
-2.12266
0
LINE
8
BLACK
6
CONTINUOUS
10
3.13214
20
-2.12266
11
3.12063
21
-2.12359
0
LINE
8
BLACK
6
CONTINUOUS
10
3.12063
20
-2.12359
11
3.10153
21
-2.12669
0
LINE
8
BLACK
6
CONTINUOUS
10
3.10153
20
-2.12669
11
3.08273
21
-2.13132
0
LINE
8
BLACK
6
CONTINUOUS
10
3.08273
20
-2.13132
11
3.08273
21
-2.13132
0
LINE
8
BLACK
6
CONTINUOUS
10
3.08273
20
-2.13132
11
3.06437
21
-2.13745
0
LINE
8
BLACK
6
CONTINUOUS
10
3.06437
20
-2.13745
11
3.05285
21
-2.14236
0
LINE
8
BLACK
6
CONTINUOUS
10
3.05285
20
-2.14236
11
3.04656
21
-2.14504
0
LINE
8
BLACK
6
CONTINUOUS
10
3.04656
20
-2.14504
11
3.04656
21
-2.14504
0
LINE
8
BLACK
6
CONTINUOUS
10
3.04656
20
-2.14504
11
3.04656
21
-2.14504
0
LINE
8
BLACK
6
CONTINUOUS
10
3.04656
20
-2.14504
11
3.04656
21
-2.14504
0
LINE
8
BLACK
6
CONTINUOUS
10
3.04656
20
-2.14504
11
3.02942
21
-2.15404
0
LINE
8
BLACK
6
CONTINUOUS
10
3.02942
20
-2.15404
11
3.02942
21
-2.15404
0
LINE
8
BLACK
6
CONTINUOUS
10
3.02942
20
-2.15404
11
3.01306
21
-2.16438
0
LINE
8
BLACK
6
CONTINUOUS
10
3.01306
20
-2.16438
11
2.99758
21
-2.17601
0
LINE
8
BLACK
6
CONTINUOUS
10
2.99758
20
-2.17601
11
2.99758
21
-2.17601
0
LINE
8
BLACK
6
CONTINUOUS
10
2.99758
20
-2.17601
11
2.98309
21
-2.18885
0
LINE
8
BLACK
6
CONTINUOUS
10
2.98309
20
-2.18885
11
2.96969
21
-2.20281
0
LINE
8
BLACK
6
CONTINUOUS
10
2.96969
20
-2.20281
11
2.95744
21
-2.2178
0
LINE
8
BLACK
6
CONTINUOUS
10
2.95744
20
-2.2178
11
2.94645
21
-2.23373
0
LINE
8
BLACK
6
CONTINUOUS
10
2.94645
20
-2.23373
11
2.93677
21
-2.2505
0
LINE
8
BLACK
6
CONTINUOUS
10
2.93677
20
-2.2505
11
2.92847
21
-2.26799
0
LINE
8
BLACK
6
CONTINUOUS
10
2.92847
20
-2.26799
11
2.9216
21
-2.28609
0
LINE
8
BLACK
6
CONTINUOUS
10
2.9216
20
-2.28609
11
2.9216
21
-2.28609
0
LINE
8
BLACK
6
CONTINUOUS
10
2.9216
20
-2.28609
11
2.91622
21
-2.30468
0
LINE
8
BLACK
6
CONTINUOUS
10
2.91622
20
-2.30468
11
2.91622
21
-2.30468
0
LINE
8
BLACK
6
CONTINUOUS
10
2.91622
20
-2.30468
11
2.91235
21
-2.32365
0
LINE
8
BLACK
6
CONTINUOUS
10
2.91235
20
-2.32365
11
2.91235
21
-2.32365
0
LINE
8
BLACK
6
CONTINUOUS
10
2.91235
20
-2.32365
11
2.91001
21
-2.34286
0
LINE
8
BLACK
6
CONTINUOUS
10
2.91001
20
-2.34286
11
2.91001
21
-2.34286
0
LINE
8
BLACK
6
CONTINUOUS
10
2.91001
20
-2.34286
11
2.91001
21
-2.34286
0
LINE
8
BLACK
6
CONTINUOUS
10
2.91001
20
-2.34286
11
2.91001
21
-2.34286
0
LINE
8
BLACK
6
CONTINUOUS
10
2.91001
20
-2.34286
11
2.90923
21
-2.3622
0
LINE
8
BLACK
6
CONTINUOUS
10
2.90923
20
-2.3622
11
2.91001
21
-2.38155
0
LINE
8
BLACK
6
CONTINUOUS
10
3.58858
20
-2.30512
11
3.60413
21
-2.30512
0
LINE
8
BLACK
6
CONTINUOUS
10
3.60413
20
-2.30512
11
3.60413
21
-2.30512
0
LINE
8
BLACK
6
CONTINUOUS
10
3.60413
20
-2.30512
11
3.60511
21
-2.305
0
LINE
8
BLACK
6
CONTINUOUS
10
3.60511
20
-2.305
11
3.60915
21
-2.30322
0
LINE
8
BLACK
6
CONTINUOUS
10
3.60915
20
-2.30322
11
3.61228
21
-2.3001
0
LINE
8
BLACK
6
CONTINUOUS
10
3.61228
20
-2.3001
11
3.61406
21
-2.29606
0
LINE
8
BLACK
6
CONTINUOUS
10
3.61406
20
-2.29606
11
3.61417
21
-2.29507
0
LINE
8
BLACK
6
CONTINUOUS
10
3.61417
20
-2.29507
11
3.61417
21
-2.29507
0
LINE
8
BLACK
6
CONTINUOUS
10
3.61417
20
-2.29507
11
3.61417
21
-2.24508
0
LINE
8
BLACK
6
CONTINUOUS
10
3.61417
20
-2.24508
11
3.61417
21
-2.24508
0
LINE
8
BLACK
6
CONTINUOUS
10
3.61417
20
-2.24508
11
3.60236
21
-2.24508
0
LINE
8
BLACK
6
CONTINUOUS
10
3.60236
20
-2.24508
11
3.60236
21
-2.29331
0
LINE
8
BLACK
6
CONTINUOUS
10
3.60236
20
-2.29331
11
3.58858
21
-2.29331
0
LINE
8
BLACK
6
CONTINUOUS
10
3.58858
20
-2.29331
11
3.58858
21
-2.30512
0
LINE
8
BLACK
6
CONTINUOUS
10
3.58858
20
-2.30512
11
3.58858
21
-2.30512
0
LINE
8
BLACK
6
CONTINUOUS
10
3.55118
20
-2.23327
11
3.56299
21
-2.23327
0
LINE
8
BLACK
6
CONTINUOUS
10
3.56299
20
-2.23327
11
3.56299
21
-2.18504
0
LINE
8
BLACK
6
CONTINUOUS
10
3.56299
20
-2.18504
11
3.57677
21
-2.18504
0
LINE
8
BLACK
6
CONTINUOUS
10
3.57677
20
-2.18504
11
3.57677
21
-2.17323
0
LINE
8
BLACK
6
CONTINUOUS
10
3.57677
20
-2.17323
11
3.56123
21
-2.17323
0
LINE
8
BLACK
6
CONTINUOUS
10
3.56123
20
-2.17323
11
3.56123
21
-2.17323
0
LINE
8
BLACK
6
CONTINUOUS
10
3.56123
20
-2.17323
11
3.56024
21
-2.17334
0
LINE
8
BLACK
6
CONTINUOUS
10
3.56024
20
-2.17334
11
3.5562
21
-2.17513
0
LINE
8
BLACK
6
CONTINUOUS
10
3.5562
20
-2.17513
11
3.55308
21
-2.17825
0
LINE
8
BLACK
6
CONTINUOUS
10
3.55308
20
-2.17825
11
3.5513
21
-2.18229
0
LINE
8
BLACK
6
CONTINUOUS
10
3.5513
20
-2.18229
11
3.55118
21
-2.18328
0
LINE
8
BLACK
6
CONTINUOUS
10
3.55118
20
-2.18328
11
3.55118
21
-2.23327
0
LINE
8
BLACK
6
CONTINUOUS
10
3.55118
20
-2.23327
11
3.55118
21
-2.23327
0
LINE
8
BLACK
6
CONTINUOUS
10
2.70334
20
-1.97777
11
2.70575
21
-1.98676
0
LINE
8
BLACK
6
CONTINUOUS
10
2.70575
20
-1.98676
11
2.70968
21
-1.99519
0
LINE
8
BLACK
6
CONTINUOUS
10
2.70968
20
-1.99519
11
2.70968
21
-1.99519
0
LINE
8
BLACK
6
CONTINUOUS
10
2.70968
20
-1.99519
11
2.70968
21
-1.99519
0
LINE
8
BLACK
6
CONTINUOUS
10
2.70968
20
-1.99519
11
2.70968
21
-1.99519
0
LINE
8
BLACK
6
CONTINUOUS
10
2.70968
20
-1.99519
11
2.71502
21
-2.00281
0
LINE
8
BLACK
6
CONTINUOUS
10
2.71502
20
-2.00281
11
2.7216
21
-2.00939
0
LINE
8
BLACK
6
CONTINUOUS
10
2.7216
20
-2.00939
11
2.72922
21
-2.01473
0
LINE
8
BLACK
6
CONTINUOUS
10
2.72922
20
-2.01473
11
2.72922
21
-2.01473
0
LINE
8
BLACK
6
CONTINUOUS
10
2.72922
20
-2.01473
11
2.72922
21
-2.01473
0
LINE
8
BLACK
6
CONTINUOUS
10
2.72922
20
-2.01473
11
2.72922
21
-2.01473
0
LINE
8
BLACK
6
CONTINUOUS
10
2.72922
20
-2.01473
11
2.73765
21
-2.01866
0
LINE
8
BLACK
6
CONTINUOUS
10
2.73765
20
-2.01866
11
2.73765
21
-2.01866
0
LINE
8
BLACK
6
CONTINUOUS
10
2.73765
20
-2.01866
11
2.74664
21
-2.02107
0
LINE
8
BLACK
6
CONTINUOUS
10
2.74664
20
-2.02107
11
2.74664
21
-2.02107
0
LINE
8
BLACK
6
CONTINUOUS
10
2.74664
20
-2.02107
11
2.74664
21
-2.02107
0
LINE
8
BLACK
6
CONTINUOUS
10
2.74664
20
-2.02107
11
2.75358
21
-2.02167
0
LINE
8
BLACK
6
CONTINUOUS
10
2.75358
20
-2.02167
11
2.75358
21
-2.02167
0
LINE
8
BLACK
6
CONTINUOUS
10
2.75358
20
-2.02167
11
2.75823
21
-2.02167
0
LINE
8
BLACK
6
CONTINUOUS
10
2.75823
20
-2.02167
11
2.76517
21
-2.02107
0
LINE
8
BLACK
6
CONTINUOUS
10
2.76517
20
-2.02107
11
2.76517
21
-2.02107
0
LINE
8
BLACK
6
CONTINUOUS
10
2.76517
20
-2.02107
11
2.76517
21
-2.02107
0
LINE
8
BLACK
6
CONTINUOUS
10
2.76517
20
-2.02107
11
2.77416
21
-2.01866
0
LINE
8
BLACK
6
CONTINUOUS
10
2.77416
20
-2.01866
11
2.78259
21
-2.01473
0
LINE
8
BLACK
6
CONTINUOUS
10
2.78259
20
-2.01473
11
2.79021
21
-2.00939
0
LINE
8
BLACK
6
CONTINUOUS
10
2.79021
20
-2.00939
11
2.79679
21
-2.00281
0
LINE
8
BLACK
6
CONTINUOUS
10
2.79679
20
-2.00281
11
2.80213
21
-1.99519
0
LINE
8
BLACK
6
CONTINUOUS
10
2.80213
20
-1.99519
11
2.80606
21
-1.98676
0
LINE
8
BLACK
6
CONTINUOUS
10
2.80606
20
-1.98676
11
2.80847
21
-1.97777
0
LINE
8
BLACK
6
CONTINUOUS
10
2.80847
20
-1.97777
11
2.80928
21
-1.9685
0
LINE
8
BLACK
6
CONTINUOUS
10
2.80928
20
-1.9685
11
2.80928
21
-1.9685
0
LINE
8
BLACK
6
CONTINUOUS
10
2.80928
20
-1.9685
11
2.80847
21
-1.95924
0
LINE
8
BLACK
6
CONTINUOUS
10
2.80847
20
-1.95924
11
2.80606
21
-1.95025
0
LINE
8
BLACK
6
CONTINUOUS
10
2.80606
20
-1.95025
11
2.80213
21
-1.94182
0
LINE
8
BLACK
6
CONTINUOUS
10
2.80213
20
-1.94182
11
2.79679
21
-1.9342
0
LINE
8
BLACK
6
CONTINUOUS
10
2.79679
20
-1.9342
11
2.79021
21
-1.92762
0
LINE
8
BLACK
6
CONTINUOUS
10
2.79021
20
-1.92762
11
2.79021
21
-1.92762
0
LINE
8
BLACK
6
CONTINUOUS
10
2.79021
20
-1.92762
11
2.79021
21
-1.92762
0
LINE
8
BLACK
6
CONTINUOUS
10
2.79021
20
-1.92762
11
2.7826
21
-1.92229
0
LINE
8
BLACK
6
CONTINUOUS
10
2.7826
20
-1.92229
11
2.78259
21
-1.92228
0
LINE
8
BLACK
6
CONTINUOUS
10
2.78259
20
-1.92228
11
2.78259
21
-1.92228
0
LINE
8
BLACK
6
CONTINUOUS
10
2.78259
20
-1.92228
11
2.78259
21
-1.92228
0
LINE
8
BLACK
6
CONTINUOUS
10
2.78259
20
-1.92228
11
2.78259
21
-1.92228
0
LINE
8
BLACK
6
CONTINUOUS
10
2.78259
20
-1.92228
11
2.77416
21
-1.91835
0
LINE
8
BLACK
6
CONTINUOUS
10
2.77416
20
-1.91835
11
2.77416
21
-1.91835
0
LINE
8
BLACK
6
CONTINUOUS
10
2.77416
20
-1.91835
11
2.77116
21
-1.91755
0
LINE
8
BLACK
6
CONTINUOUS
10
2.77116
20
-1.91755
11
2.76517
21
-1.91594
0
LINE
8
BLACK
6
CONTINUOUS
10
2.76517
20
-1.91594
11
2.76517
21
-1.91594
0
LINE
8
BLACK
6
CONTINUOUS
10
2.76517
20
-1.91594
11
2.76517
21
-1.91594
0
LINE
8
BLACK
6
CONTINUOUS
10
2.76517
20
-1.91594
11
2.75823
21
-1.91533
0
LINE
8
BLACK
6
CONTINUOUS
10
2.75823
20
-1.91533
11
2.75823
21
-1.91533
0
LINE
8
BLACK
6
CONTINUOUS
10
2.75823
20
-1.91533
11
2.75358
21
-1.91533
0
LINE
8
BLACK
6
CONTINUOUS
10
2.75358
20
-1.91533
11
2.75358
21
-1.91533
0
LINE
8
BLACK
6
CONTINUOUS
10
2.75358
20
-1.91533
11
2.74664
21
-1.91594
0
LINE
8
BLACK
6
CONTINUOUS
10
2.74664
20
-1.91594
11
2.73765
21
-1.91835
0
LINE
8
BLACK
6
CONTINUOUS
10
2.73765
20
-1.91835
11
2.72922
21
-1.92228
0
LINE
8
BLACK
6
CONTINUOUS
10
2.72922
20
-1.92228
11
2.72922
21
-1.92228
0
LINE
8
BLACK
6
CONTINUOUS
10
2.72922
20
-1.92228
11
2.7216
21
-1.92762
0
LINE
8
BLACK
6
CONTINUOUS
10
2.7216
20
-1.92762
11
2.71502
21
-1.9342
0
LINE
8
BLACK
6
CONTINUOUS
10
2.71502
20
-1.9342
11
2.70968
21
-1.94182
0
LINE
8
BLACK
6
CONTINUOUS
10
2.70968
20
-1.94182
11
2.70575
21
-1.95025
0
LINE
8
BLACK
6
CONTINUOUS
10
2.70575
20
-1.95025
11
2.70334
21
-1.95924
0
LINE
8
BLACK
6
CONTINUOUS
10
2.70334
20
-1.95924
11
2.70253
21
-1.9685
0
LINE
8
BLACK
6
CONTINUOUS
10
2.70253
20
-1.9685
11
2.70253
21
-1.9685
0
LINE
8
BLACK
6
CONTINUOUS
10
2.70253
20
-1.9685
11
2.70334
21
-1.97777
0
LINE
8
BLACK
6
CONTINUOUS
10
3.3563
20
-2.77067
11
3.35907
21
-2.77067
0
LINE
8
BLACK
6
CONTINUOUS
10
3.35907
20
-2.77067
11
3.36128
21
-2.76633
0
LINE
8
BLACK
6
CONTINUOUS
10
3.36128
20
-2.76633
11
3.36476
21
-2.76285
0
LINE
8
BLACK
6
CONTINUOUS
10
3.36476
20
-2.76285
11
3.36915
21
-2.76061
0
LINE
8
BLACK
6
CONTINUOUS
10
3.36915
20
-2.76061
11
3.37402
21
-2.75984
0
LINE
8
BLACK
6
CONTINUOUS
10
3.37402
20
-2.75984
11
3.37888
21
-2.76061
0
LINE
8
BLACK
6
CONTINUOUS
10
3.37888
20
-2.76061
11
3.38327
21
-2.76285
0
LINE
8
BLACK
6
CONTINUOUS
10
3.38327
20
-2.76285
11
3.38676
21
-2.76633
0
LINE
8
BLACK
6
CONTINUOUS
10
3.38676
20
-2.76633
11
3.38899
21
-2.77072
0
LINE
8
BLACK
6
CONTINUOUS
10
3.38899
20
-2.77072
11
3.38976
21
-2.77559
0
LINE
8
BLACK
6
CONTINUOUS
10
3.38976
20
-2.77559
11
3.38899
21
-2.78046
0
LINE
8
BLACK
6
CONTINUOUS
10
3.38899
20
-2.78046
11
3.38676
21
-2.78485
0
LINE
8
BLACK
6
CONTINUOUS
10
3.38676
20
-2.78485
11
3.38327
21
-2.78833
0
LINE
8
BLACK
6
CONTINUOUS
10
3.38327
20
-2.78833
11
3.37888
21
-2.79057
0
LINE
8
BLACK
6
CONTINUOUS
10
3.37888
20
-2.79057
11
3.37402
21
-2.79134
0
LINE
8
BLACK
6
CONTINUOUS
10
3.37402
20
-2.79134
11
3.36915
21
-2.79057
0
LINE
8
BLACK
6
CONTINUOUS
10
3.36915
20
-2.79057
11
3.36476
21
-2.78833
0
LINE
8
BLACK
6
CONTINUOUS
10
3.36476
20
-2.78833
11
3.36128
21
-2.78485
0
LINE
8
BLACK
6
CONTINUOUS
10
3.36128
20
-2.78485
11
3.35907
21
-2.78051
0
LINE
8
BLACK
6
CONTINUOUS
10
3.35907
20
-2.78051
11
3.3563
21
-2.78051
0
LINE
8
BLACK
6
CONTINUOUS
10
3.3563
20
-2.78051
11
3.3563
21
-2.79528
0
LINE
8
BLACK
6
CONTINUOUS
10
3.3563
20
-2.79528
11
3.33373
21
-2.79528
0
LINE
8
BLACK
6
CONTINUOUS
10
3.33373
20
-2.79528
11
3.33557
21
-2.79711
0
LINE
8
BLACK
6
CONTINUOUS
10
3.33557
20
-2.79711
11
3.33765
21
-2.79605
0
LINE
8
BLACK
6
CONTINUOUS
10
3.33765
20
-2.79605
11
3.34252
21
-2.79528
0
LINE
8
BLACK
6
CONTINUOUS
10
3.34252
20
-2.79528
11
3.34739
21
-2.79605
0
LINE
8
BLACK
6
CONTINUOUS
10
3.34739
20
-2.79605
11
3.35178
21
-2.79828
0
LINE
8
BLACK
6
CONTINUOUS
10
3.35178
20
-2.79828
11
3.35526
21
-2.80177
0
LINE
8
BLACK
6
CONTINUOUS
10
3.35526
20
-2.80177
11
3.3575
21
-2.80616
0
LINE
8
BLACK
6
CONTINUOUS
10
3.3575
20
-2.80616
11
3.35827
21
-2.81102
0
LINE
8
BLACK
6
CONTINUOUS
10
3.35827
20
-2.81102
11
3.3575
21
-2.81589
0
LINE
8
BLACK
6
CONTINUOUS
10
3.3575
20
-2.81589
11
3.35526
21
-2.82028
0
LINE
8
BLACK
6
CONTINUOUS
10
3.35526
20
-2.82028
11
3.35178
21
-2.82376
0
LINE
8
BLACK
6
CONTINUOUS
10
3.35178
20
-2.82376
11
3.34739
21
-2.826
0
LINE
8
BLACK
6
CONTINUOUS
10
3.34739
20
-2.826
11
3.34252
21
-2.82677
0
LINE
8
BLACK
6
CONTINUOUS
10
3.34252
20
-2.82677
11
3.33765
21
-2.826
0
LINE
8
BLACK
6
CONTINUOUS
10
3.33765
20
-2.826
11
3.33326
21
-2.82376
0
LINE
8
BLACK
6
CONTINUOUS
10
3.33326
20
-2.82376
11
3.32978
21
-2.82028
0
LINE
8
BLACK
6
CONTINUOUS
10
3.32978
20
-2.82028
11
3.32754
21
-2.81589
0
LINE
8
BLACK
6
CONTINUOUS
10
3.32754
20
-2.81589
11
3.32677
21
-2.81102
0
LINE
8
BLACK
6
CONTINUOUS
10
3.32677
20
-2.81102
11
3.32754
21
-2.80616
0
LINE
8
BLACK
6
CONTINUOUS
10
3.32754
20
-2.80616
11
3.32861
21
-2.80407
0
LINE
8
BLACK
6
CONTINUOUS
10
3.32861
20
-2.80407
11
3.31981
21
-2.79528
0
LINE
8
BLACK
6
CONTINUOUS
10
3.31981
20
-2.79528
11
3.30709
21
-2.79528
0
LINE
8
BLACK
6
CONTINUOUS
10
3.30709
20
-2.79528
11
3.30709
21
-2.7959
0
LINE
8
BLACK
6
CONTINUOUS
10
3.30709
20
-2.7959
11
3.30802
21
-2.79605
0
LINE
8
BLACK
6
CONTINUOUS
10
3.30802
20
-2.79605
11
3.31241
21
-2.79828
0
LINE
8
BLACK
6
CONTINUOUS
10
3.31241
20
-2.79828
11
3.31589
21
-2.80177
0
LINE
8
BLACK
6
CONTINUOUS
10
3.31589
20
-2.80177
11
3.31813
21
-2.80616
0
LINE
8
BLACK
6
CONTINUOUS
10
3.31813
20
-2.80616
11
3.3189
21
-2.81102
0
LINE
8
BLACK
6
CONTINUOUS
10
3.3189
20
-2.81102
11
3.31813
21
-2.81589
0
LINE
8
BLACK
6
CONTINUOUS
10
3.31813
20
-2.81589
11
3.31589
21
-2.82028
0
LINE
8
BLACK
6
CONTINUOUS
10
3.31589
20
-2.82028
11
3.31241
21
-2.82376
0
LINE
8
BLACK
6
CONTINUOUS
10
3.31241
20
-2.82376
11
3.30802
21
-2.826
0
LINE
8
BLACK
6
CONTINUOUS
10
3.30802
20
-2.826
11
3.30315
21
-2.82677
0
LINE
8
BLACK
6
CONTINUOUS
10
3.30315
20
-2.82677
11
3.29828
21
-2.826
0
LINE
8
BLACK
6
CONTINUOUS
10
3.29828
20
-2.826
11
3.29389
21
-2.82376
0
LINE
8
BLACK
6
CONTINUOUS
10
3.29389
20
-2.82376
11
3.29041
21
-2.82028
0
LINE
8
BLACK
6
CONTINUOUS
10
3.29041
20
-2.82028
11
3.28817
21
-2.81589
0
LINE
8
BLACK
6
CONTINUOUS
10
3.28817
20
-2.81589
11
3.2874
21
-2.81102
0
LINE
8
BLACK
6
CONTINUOUS
10
3.2874
20
-2.81102
11
3.28817
21
-2.80616
0
LINE
8
BLACK
6
CONTINUOUS
10
3.28817
20
-2.80616
11
3.29041
21
-2.80177
0
LINE
8
BLACK
6
CONTINUOUS
10
3.29041
20
-2.80177
11
3.29389
21
-2.79828
0
LINE
8
BLACK
6
CONTINUOUS
10
3.29389
20
-2.79828
11
3.29724
21
-2.79658
0
LINE
8
BLACK
6
CONTINUOUS
10
3.29724
20
-2.79658
11
3.29724
21
-2.79528
0
LINE
8
BLACK
6
CONTINUOUS
10
3.29724
20
-2.79528
11
3.28649
21
-2.79528
0
LINE
8
BLACK
6
CONTINUOUS
10
3.28649
20
-2.79528
11
3.27769
21
-2.80407
0
LINE
8
BLACK
6
CONTINUOUS
10
3.27769
20
-2.80407
11
3.27876
21
-2.80616
0
LINE
8
BLACK
6
CONTINUOUS
10
3.27876
20
-2.80616
11
3.27953
21
-2.81102
0
LINE
8
BLACK
6
CONTINUOUS
10
3.27953
20
-2.81102
11
3.27876
21
-2.81589
0
LINE
8
BLACK
6
CONTINUOUS
10
3.27876
20
-2.81589
11
3.27652
21
-2.82028
0
LINE
8
BLACK
6
CONTINUOUS
10
3.27652
20
-2.82028
11
3.27304
21
-2.82376
0
LINE
8
BLACK
6
CONTINUOUS
10
3.27304
20
-2.82376
11
3.26865
21
-2.826
0
LINE
8
BLACK
6
CONTINUOUS
10
3.26865
20
-2.826
11
3.26378
21
-2.82677
0
LINE
8
BLACK
6
CONTINUOUS
10
3.26378
20
-2.82677
11
3.25891
21
-2.826
0
LINE
8
BLACK
6
CONTINUOUS
10
3.25891
20
-2.826
11
3.25452
21
-2.82376
0
LINE
8
BLACK
6
CONTINUOUS
10
3.25452
20
-2.82376
11
3.25104
21
-2.82028
0
LINE
8
BLACK
6
CONTINUOUS
10
3.25104
20
-2.82028
11
3.2488
21
-2.81589
0
LINE
8
BLACK
6
CONTINUOUS
10
3.2488
20
-2.81589
11
3.24803
21
-2.81102
0
LINE
8
BLACK
6
CONTINUOUS
10
3.24803
20
-2.81102
11
3.2488
21
-2.80616
0
LINE
8
BLACK
6
CONTINUOUS
10
3.2488
20
-2.80616
11
3.25104
21
-2.80177
0
LINE
8
BLACK
6
CONTINUOUS
10
3.25104
20
-2.80177
11
3.25452
21
-2.79828
0
LINE
8
BLACK
6
CONTINUOUS
10
3.25452
20
-2.79828
11
3.25891
21
-2.79605
0
LINE
8
BLACK
6
CONTINUOUS
10
3.25891
20
-2.79605
11
3.26378
21
-2.79528
0
LINE
8
BLACK
6
CONTINUOUS
10
3.26378
20
-2.79528
11
3.26865
21
-2.79605
0
LINE
8
BLACK
6
CONTINUOUS
10
3.26865
20
-2.79605
11
3.27073
21
-2.79711
0
LINE
8
BLACK
6
CONTINUOUS
10
3.27073
20
-2.79711
11
3.27257
21
-2.79528
0
LINE
8
BLACK
6
CONTINUOUS
10
3.27257
20
-2.79528
11
3.24803
21
-2.79528
0
LINE
8
BLACK
6
CONTINUOUS
10
3.24803
20
-2.79528
11
3.24803
21
-2.75591
0
LINE
8
BLACK
6
CONTINUOUS
10
3.24803
20
-2.75591
11
3.3563
21
-2.75591
0
LINE
8
BLACK
6
CONTINUOUS
10
3.3563
20
-2.75591
11
3.3563
21
-2.77067
0
LINE
8
BLACK
6
CONTINUOUS
10
3.52362
20
-2.53937
11
3.48425
21
-2.53937
0
LINE
8
BLACK
6
CONTINUOUS
10
3.48425
20
-2.53937
11
3.48425
21
-2.50492
0
LINE
8
BLACK
6
CONTINUOUS
10
3.48425
20
-2.50492
11
3.43291
21
-2.50492
0
LINE
8
BLACK
6
CONTINUOUS
10
3.43291
20
-2.50492
11
3.4323
21
-2.5088
0
LINE
8
BLACK
6
CONTINUOUS
10
3.4323
20
-2.5088
11
3.43006
21
-2.51319
0
LINE
8
BLACK
6
CONTINUOUS
10
3.43006
20
-2.51319
11
3.42658
21
-2.51668
0
LINE
8
BLACK
6
CONTINUOUS
10
3.42658
20
-2.51668
11
3.42224
21
-2.51889
0
LINE
8
BLACK
6
CONTINUOUS
10
3.42224
20
-2.51889
11
3.42224
21
-2.54646
0
LINE
8
BLACK
6
CONTINUOUS
10
3.42224
20
-2.54646
11
3.42212
21
-2.54733
0
LINE
8
BLACK
6
CONTINUOUS
10
3.42212
20
-2.54733
11
3.42213
21
-2.5475
0
LINE
8
BLACK
6
CONTINUOUS
10
3.42213
20
-2.5475
11
3.42208
21
-2.5476
0
LINE
8
BLACK
6
CONTINUOUS
10
3.42208
20
-2.5476
11
3.42204
21
-2.54784
0
LINE
8
BLACK
6
CONTINUOUS
10
3.42204
20
-2.54784
11
3.42139
21
-2.54887
0
LINE
8
BLACK
6
CONTINUOUS
10
3.42139
20
-2.54887
11
3.4208
21
-2.54994
0
LINE
8
BLACK
6
CONTINUOUS
10
3.4208
20
-2.54994
11
3.30709
21
-2.66365
0
LINE
8
BLACK
6
CONTINUOUS
10
3.30709
20
-2.66365
11
3.30709
21
-2.67717
0
LINE
8
BLACK
6
CONTINUOUS
10
3.30709
20
-2.67717
11
3.3563
21
-2.67717
0
LINE
8
BLACK
6
CONTINUOUS
10
3.3563
20
-2.67717
11
3.3563
21
-2.71654
0
LINE
8
BLACK
6
CONTINUOUS
10
3.3563
20
-2.71654
11
3.24803
21
-2.71654
0
LINE
8
BLACK
6
CONTINUOUS
10
3.24803
20
-2.71654
11
3.24803
21
-2.67717
0
LINE
8
BLACK
6
CONTINUOUS
10
3.24803
20
-2.67717
11
3.29724
21
-2.67717
0
LINE
8
BLACK
6
CONTINUOUS
10
3.29724
20
-2.67717
11
3.29724
21
-2.66161
0
LINE
8
BLACK
6
CONTINUOUS
10
3.29724
20
-2.66161
11
3.29737
21
-2.66074
0
LINE
8
BLACK
6
CONTINUOUS
10
3.29737
20
-2.66074
11
3.29736
21
-2.66057
0
LINE
8
BLACK
6
CONTINUOUS
10
3.29736
20
-2.66057
11
3.29741
21
-2.66047
0
LINE
8
BLACK
6
CONTINUOUS
10
3.29741
20
-2.66047
11
3.29744
21
-2.66023
0
LINE
8
BLACK
6
CONTINUOUS
10
3.29744
20
-2.66023
11
3.2981
21
-2.6592
0
LINE
8
BLACK
6
CONTINUOUS
10
3.2981
20
-2.6592
11
3.29869
21
-2.65813
0
LINE
8
BLACK
6
CONTINUOUS
10
3.29869
20
-2.65813
11
3.4124
21
-2.54442
0
LINE
8
BLACK
6
CONTINUOUS
10
3.4124
20
-2.54442
11
3.4124
21
-2.51889
0
LINE
8
BLACK
6
CONTINUOUS
10
3.4124
20
-2.51889
11
3.40807
21
-2.51668
0
LINE
8
BLACK
6
CONTINUOUS
10
3.40807
20
-2.51668
11
3.40458
21
-2.51319
0
LINE
8
BLACK
6
CONTINUOUS
10
3.40458
20
-2.51319
11
3.40235
21
-2.5088
0
LINE
8
BLACK
6
CONTINUOUS
10
3.40235
20
-2.5088
11
3.40157
21
-2.50394
0
LINE
8
BLACK
6
CONTINUOUS
10
3.40157
20
-2.50394
11
3.40235
21
-2.49907
0
LINE
8
BLACK
6
CONTINUOUS
10
3.40235
20
-2.49907
11
3.40458
21
-2.49468
0
LINE
8
BLACK
6
CONTINUOUS
10
3.40458
20
-2.49468
11
3.40807
21
-2.4912
0
LINE
8
BLACK
6
CONTINUOUS
10
3.40807
20
-2.4912
11
3.41246
21
-2.48896
0
LINE
8
BLACK
6
CONTINUOUS
10
3.41246
20
-2.48896
11
3.41732
21
-2.48819
0
LINE
8
BLACK
6
CONTINUOUS
10
3.41732
20
-2.48819
11
3.42219
21
-2.48896
0
LINE
8
BLACK
6
CONTINUOUS
10
3.42219
20
-2.48896
11
3.42658
21
-2.4912
0
LINE
8
BLACK
6
CONTINUOUS
10
3.42658
20
-2.4912
11
3.43006
21
-2.49468
0
LINE
8
BLACK
6
CONTINUOUS
10
3.43006
20
-2.49468
11
3.43027
21
-2.49508
0
LINE
8
BLACK
6
CONTINUOUS
10
3.43027
20
-2.49508
11
3.48425
21
-2.49508
0
LINE
8
BLACK
6
CONTINUOUS
10
3.48425
20
-2.49508
11
3.48425
21
-2.4311
0
LINE
8
BLACK
6
CONTINUOUS
10
3.48425
20
-2.4311
11
3.52362
21
-2.4311
0
LINE
8
BLACK
6
CONTINUOUS
10
3.52362
20
-2.4311
11
3.52362
21
-2.53937
0
LINE
8
BLACK
6
CONTINUOUS
10
3.52362
20
-2.29331
11
3.50886
21
-2.29331
0
LINE
8
BLACK
6
CONTINUOUS
10
3.50886
20
-2.29331
11
3.50886
21
-2.40453
0
LINE
8
BLACK
6
CONTINUOUS
10
3.50886
20
-2.40453
11
3.52656
21
-2.40453
0
LINE
8
BLACK
6
CONTINUOUS
10
3.52656
20
-2.40453
11
3.52658
21
-2.40444
0
LINE
8
BLACK
6
CONTINUOUS
10
3.52658
20
-2.40444
11
3.52724
21
-2.40341
0
LINE
8
BLACK
6
CONTINUOUS
10
3.52724
20
-2.40341
11
3.52782
21
-2.40235
0
LINE
8
BLACK
6
CONTINUOUS
10
3.52782
20
-2.40235
11
3.54408
21
-2.38609
0
LINE
8
BLACK
6
CONTINUOUS
10
3.54408
20
-2.38609
11
3.54478
21
-2.38556
0
LINE
8
BLACK
6
CONTINUOUS
10
3.54478
20
-2.38556
11
3.5449
21
-2.38543
0
LINE
8
BLACK
6
CONTINUOUS
10
3.5449
20
-2.38543
11
3.545
21
-2.3854
0
LINE
8
BLACK
6
CONTINUOUS
10
3.545
20
-2.3854
11
3.5452
21
-2.38525
0
LINE
8
BLACK
6
CONTINUOUS
10
3.5452
20
-2.38525
11
3.54639
21
-2.38499
0
LINE
8
BLACK
6
CONTINUOUS
10
3.54639
20
-2.38499
11
3.54756
21
-2.38465
0
LINE
8
BLACK
6
CONTINUOUS
10
3.54756
20
-2.38465
11
3.60008
21
-2.38465
0
LINE
8
BLACK
6
CONTINUOUS
10
3.60008
20
-2.38465
11
3.60095
21
-2.38477
0
LINE
8
BLACK
6
CONTINUOUS
10
3.60095
20
-2.38477
11
3.60113
21
-2.38476
0
LINE
8
BLACK
6
CONTINUOUS
10
3.60113
20
-2.38476
11
3.60122
21
-2.38481
0
LINE
8
BLACK
6
CONTINUOUS
10
3.60122
20
-2.38481
11
3.60147
21
-2.38484
0
LINE
8
BLACK
6
CONTINUOUS
10
3.60147
20
-2.38484
11
3.60249
21
-2.3855
0
LINE
8
BLACK
6
CONTINUOUS
10
3.60249
20
-2.3855
11
3.60356
21
-2.38609
0
LINE
8
BLACK
6
CONTINUOUS
10
3.60356
20
-2.38609
11
3.62061
21
-2.40313
0
LINE
8
BLACK
6
CONTINUOUS
10
3.62061
20
-2.40313
11
3.62113
21
-2.40384
0
LINE
8
BLACK
6
CONTINUOUS
10
3.62113
20
-2.40384
11
3.62127
21
-2.40395
0
LINE
8
BLACK
6
CONTINUOUS
10
3.62127
20
-2.40395
11
3.6213
21
-2.40406
0
LINE
8
BLACK
6
CONTINUOUS
10
3.6213
20
-2.40406
11
3.62145
21
-2.40425
0
LINE
8
BLACK
6
CONTINUOUS
10
3.62145
20
-2.40425
11
3.6217
21
-2.40545
0
LINE
8
BLACK
6
CONTINUOUS
10
3.6217
20
-2.40545
11
3.62205
21
-2.40661
0
LINE
8
BLACK
6
CONTINUOUS
10
3.62205
20
-2.40661
11
3.62205
21
-2.64764
0
LINE
8
BLACK
6
CONTINUOUS
10
3.62205
20
-2.64764
11
3.62192
21
-2.64851
0
LINE
8
BLACK
6
CONTINUOUS
10
3.62192
20
-2.64851
11
3.62193
21
-2.64868
0
LINE
8
BLACK
6
CONTINUOUS
10
3.62193
20
-2.64868
11
3.62188
21
-2.64878
0
LINE
8
BLACK
6
CONTINUOUS
10
3.62188
20
-2.64878
11
3.62185
21
-2.64902
0
LINE
8
BLACK
6
CONTINUOUS
10
3.62185
20
-2.64902
11
3.62119
21
-2.65005
0
LINE
8
BLACK
6
CONTINUOUS
10
3.62119
20
-2.65005
11
3.62061
21
-2.65112
0
LINE
8
BLACK
6
CONTINUOUS
10
3.62061
20
-2.65112
11
3.59456
21
-2.67717
0
LINE
8
BLACK
6
CONTINUOUS
10
3.59456
20
-2.67717
11
3.60236
21
-2.67717
0
LINE
8
BLACK
6
CONTINUOUS
10
3.60236
20
-2.67717
11
3.60236
21
-2.71654
0
LINE
8
BLACK
6
CONTINUOUS
10
3.60236
20
-2.71654
11
3.49409
21
-2.71654
0
LINE
8
BLACK
6
CONTINUOUS
10
3.49409
20
-2.71654
11
3.49409
21
-2.67717
0
LINE
8
BLACK
6
CONTINUOUS
10
3.49409
20
-2.67717
11
3.58286
21
-2.67717
0
LINE
8
BLACK
6
CONTINUOUS
10
3.58286
20
-2.67717
11
3.58279
21
-2.67612
0
LINE
8
BLACK
6
CONTINUOUS
10
3.58279
20
-2.67612
11
3.58412
21
-2.67369
0
LINE
8
BLACK
6
CONTINUOUS
10
3.58412
20
-2.67369
11
3.6122
21
-2.6456
0
LINE
8
BLACK
6
CONTINUOUS
10
3.6122
20
-2.6456
11
3.6122
21
-2.40865
0
LINE
8
BLACK
6
CONTINUOUS
10
3.6122
20
-2.40865
11
3.59804
21
-2.39449
0
LINE
8
BLACK
6
CONTINUOUS
10
3.59804
20
-2.39449
11
3.5496
21
-2.39449
0
LINE
8
BLACK
6
CONTINUOUS
10
3.5496
20
-2.39449
11
3.53622
21
-2.40786
0
LINE
8
BLACK
6
CONTINUOUS
10
3.53622
20
-2.40786
11
3.53622
21
-2.40945
0
LINE
8
BLACK
6
CONTINUOUS
10
3.53622
20
-2.40945
11
3.53602
21
-2.41084
0
LINE
8
BLACK
6
CONTINUOUS
10
3.53602
20
-2.41084
11
3.53583
21
-2.41114
0
LINE
8
BLACK
6
CONTINUOUS
10
3.53583
20
-2.41114
11
3.53578
21
-2.41149
0
LINE
8
BLACK
6
CONTINUOUS
10
3.53578
20
-2.41149
11
3.53509
21
-2.41229
0
LINE
8
BLACK
6
CONTINUOUS
10
3.53509
20
-2.41229
11
3.53452
21
-2.41317
0
LINE
8
BLACK
6
CONTINUOUS
10
3.53452
20
-2.41317
11
3.5342
21
-2.41332
0
LINE
8
BLACK
6
CONTINUOUS
10
3.5342
20
-2.41332
11
3.53396
21
-2.41359
0
LINE
8
BLACK
6
CONTINUOUS
10
3.53396
20
-2.41359
11
3.53295
21
-2.41388
0
LINE
8
BLACK
6
CONTINUOUS
10
3.53295
20
-2.41388
11
3.532
21
-2.41432
0
LINE
8
BLACK
6
CONTINUOUS
10
3.532
20
-2.41432
11
3.53164
21
-2.41427
0
LINE
8
BLACK
6
CONTINUOUS
10
3.53164
20
-2.41427
11
3.5313
21
-2.41437
0
LINE
8
BLACK
6
CONTINUOUS
10
3.5313
20
-2.41437
11
3.47497
21
-2.41437
0
LINE
8
BLACK
6
CONTINUOUS
10
3.47497
20
-2.41437
11
3.47376
21
-2.41674
0
LINE
8
BLACK
6
CONTINUOUS
10
3.47376
20
-2.41674
11
3.47028
21
-2.42022
0
LINE
8
BLACK
6
CONTINUOUS
10
3.47028
20
-2.42022
11
3.46589
21
-2.42246
0
LINE
8
BLACK
6
CONTINUOUS
10
3.46589
20
-2.42246
11
3.46102
21
-2.42323
0
LINE
8
BLACK
6
CONTINUOUS
10
3.46102
20
-2.42323
11
3.45616
21
-2.42246
0
LINE
8
BLACK
6
CONTINUOUS
10
3.45616
20
-2.42246
11
3.45177
21
-2.42022
0
LINE
8
BLACK
6
CONTINUOUS
10
3.45177
20
-2.42022
11
3.44828
21
-2.41674
0
LINE
8
BLACK
6
CONTINUOUS
10
3.44828
20
-2.41674
11
3.44605
21
-2.41235
0
LINE
8
BLACK
6
CONTINUOUS
10
3.44605
20
-2.41235
11
3.44528
21
-2.40748
0
LINE
8
BLACK
6
CONTINUOUS
10
3.44528
20
-2.40748
11
3.44605
21
-2.40261
0
LINE
8
BLACK
6
CONTINUOUS
10
3.44605
20
-2.40261
11
3.44828
21
-2.39822
0
LINE
8
BLACK
6
CONTINUOUS
10
3.44828
20
-2.39822
11
3.45177
21
-2.39474
0
LINE
8
BLACK
6
CONTINUOUS
10
3.45177
20
-2.39474
11
3.45616
21
-2.3925
0
LINE
8
BLACK
6
CONTINUOUS
10
3.45616
20
-2.3925
11
3.46102
21
-2.39173
0
LINE
8
BLACK
6
CONTINUOUS
10
3.46102
20
-2.39173
11
3.46589
21
-2.3925
0
LINE
8
BLACK
6
CONTINUOUS
10
3.46589
20
-2.3925
11
3.47028
21
-2.39474
0
LINE
8
BLACK
6
CONTINUOUS
10
3.47028
20
-2.39474
11
3.47376
21
-2.39822
0
LINE
8
BLACK
6
CONTINUOUS
10
3.47376
20
-2.39822
11
3.476
21
-2.40261
0
LINE
8
BLACK
6
CONTINUOUS
10
3.476
20
-2.40261
11
3.4763
21
-2.40453
0
LINE
8
BLACK
6
CONTINUOUS
10
3.4763
20
-2.40453
11
3.49902
21
-2.40453
0
LINE
8
BLACK
6
CONTINUOUS
10
3.49902
20
-2.40453
11
3.49902
21
-2.29331
0
LINE
8
BLACK
6
CONTINUOUS
10
3.49902
20
-2.29331
11
3.48425
21
-2.29331
0
LINE
8
BLACK
6
CONTINUOUS
10
3.48425
20
-2.29331
11
3.48425
21
-2.18504
0
LINE
8
BLACK
6
CONTINUOUS
10
3.48425
20
-2.18504
11
3.52362
21
-2.18504
0
LINE
8
BLACK
6
CONTINUOUS
10
3.52362
20
-2.18504
11
3.52362
21
-2.29331
0
LINE
8
BLACK
6
CONTINUOUS
10
3.59345
20
-2.40235
11
3.59784
21
-2.40458
0
LINE
8
BLACK
6
CONTINUOUS
10
3.59784
20
-2.40458
11
3.60132
21
-2.40807
0
LINE
8
BLACK
6
CONTINUOUS
10
3.60132
20
-2.40807
11
3.60356
21
-2.41246
0
LINE
8
BLACK
6
CONTINUOUS
10
3.60356
20
-2.41246
11
3.60433
21
-2.41732
0
LINE
8
BLACK
6
CONTINUOUS
10
3.60433
20
-2.41732
11
3.60356
21
-2.42219
0
LINE
8
BLACK
6
CONTINUOUS
10
3.60356
20
-2.42219
11
3.60132
21
-2.42658
0
LINE
8
BLACK
6
CONTINUOUS
10
3.60132
20
-2.42658
11
3.59784
21
-2.43006
0
LINE
8
BLACK
6
CONTINUOUS
10
3.59784
20
-2.43006
11
3.5958
21
-2.4311
0
LINE
8
BLACK
6
CONTINUOUS
10
3.5958
20
-2.4311
11
3.60236
21
-2.4311
0
LINE
8
BLACK
6
CONTINUOUS
10
3.60236
20
-2.4311
11
3.60236
21
-2.53937
0
LINE
8
BLACK
6
CONTINUOUS
10
3.60236
20
-2.53937
11
3.5958
21
-2.53937
0
LINE
8
BLACK
6
CONTINUOUS
10
3.5958
20
-2.53937
11
3.59784
21
-2.54041
0
LINE
8
BLACK
6
CONTINUOUS
10
3.59784
20
-2.54041
11
3.60132
21
-2.54389
0
LINE
8
BLACK
6
CONTINUOUS
10
3.60132
20
-2.54389
11
3.60356
21
-2.54828
0
LINE
8
BLACK
6
CONTINUOUS
10
3.60356
20
-2.54828
11
3.60433
21
-2.55315
0
LINE
8
BLACK
6
CONTINUOUS
10
3.60433
20
-2.55315
11
3.60356
21
-2.55802
0
LINE
8
BLACK
6
CONTINUOUS
10
3.60356
20
-2.55802
11
3.60132
21
-2.56241
0
LINE
8
BLACK
6
CONTINUOUS
10
3.60132
20
-2.56241
11
3.59784
21
-2.56589
0
LINE
8
BLACK
6
CONTINUOUS
10
3.59784
20
-2.56589
11
3.59345
21
-2.56813
0
LINE
8
BLACK
6
CONTINUOUS
10
3.59345
20
-2.56813
11
3.58858
21
-2.5689
0
LINE
8
BLACK
6
CONTINUOUS
10
3.58858
20
-2.5689
11
3.58372
21
-2.56813
0
LINE
8
BLACK
6
CONTINUOUS
10
3.58372
20
-2.56813
11
3.57933
21
-2.56589
0
LINE
8
BLACK
6
CONTINUOUS
10
3.57933
20
-2.56589
11
3.57584
21
-2.56241
0
LINE
8
BLACK
6
CONTINUOUS
10
3.57584
20
-2.56241
11
3.57464
21
-2.56004
0
LINE
8
BLACK
6
CONTINUOUS
10
3.57464
20
-2.56004
11
3.573
21
-2.56004
0
LINE
8
BLACK
6
CONTINUOUS
10
3.573
20
-2.56004
11
3.5718
21
-2.56241
0
LINE
8
BLACK
6
CONTINUOUS
10
3.5718
20
-2.56241
11
3.56831
21
-2.56589
0
LINE
8
BLACK
6
CONTINUOUS
10
3.56831
20
-2.56589
11
3.56392
21
-2.56813
0
LINE
8
BLACK
6
CONTINUOUS
10
3.56392
20
-2.56813
11
3.55906
21
-2.5689
0
LINE
8
BLACK
6
CONTINUOUS
10
3.55906
20
-2.5689
11
3.55419
21
-2.56813
0
LINE
8
BLACK
6
CONTINUOUS
10
3.55419
20
-2.56813
11
3.5498
21
-2.56589
0
LINE
8
BLACK
6
CONTINUOUS
10
3.5498
20
-2.56589
11
3.54631
21
-2.56241
0
LINE
8
BLACK
6
CONTINUOUS
10
3.54631
20
-2.56241
11
3.54408
21
-2.55802
0
LINE
8
BLACK
6
CONTINUOUS
10
3.54408
20
-2.55802
11
3.54331
21
-2.55315
0
LINE
8
BLACK
6
CONTINUOUS
10
3.54331
20
-2.55315
11
3.54408
21
-2.54828
0
LINE
8
BLACK
6
CONTINUOUS
10
3.54408
20
-2.54828
11
3.54631
21
-2.54389
0
LINE
8
BLACK
6
CONTINUOUS
10
3.54631
20
-2.54389
11
3.5498
21
-2.54041
0
LINE
8
BLACK
6
CONTINUOUS
10
3.5498
20
-2.54041
11
3.55419
21
-2.53817
0
LINE
8
BLACK
6
CONTINUOUS
10
3.55419
20
-2.53817
11
3.55906
21
-2.5374
0
LINE
8
BLACK
6
CONTINUOUS
10
3.55906
20
-2.5374
11
3.56299
21
-2.53803
0
LINE
8
BLACK
6
CONTINUOUS
10
3.56299
20
-2.53803
11
3.56299
21
-2.43245
0
LINE
8
BLACK
6
CONTINUOUS
10
3.56299
20
-2.43245
11
3.55906
21
-2.43307
0
LINE
8
BLACK
6
CONTINUOUS
10
3.55906
20
-2.43307
11
3.55419
21
-2.4323
0
LINE
8
BLACK
6
CONTINUOUS
10
3.55419
20
-2.4323
11
3.5498
21
-2.43006
0
LINE
8
BLACK
6
CONTINUOUS
10
3.5498
20
-2.43006
11
3.54631
21
-2.42658
0
LINE
8
BLACK
6
CONTINUOUS
10
3.54631
20
-2.42658
11
3.54408
21
-2.42219
0
LINE
8
BLACK
6
CONTINUOUS
10
3.54408
20
-2.42219
11
3.54331
21
-2.41732
0
LINE
8
BLACK
6
CONTINUOUS
10
3.54331
20
-2.41732
11
3.54408
21
-2.41246
0
LINE
8
BLACK
6
CONTINUOUS
10
3.54408
20
-2.41246
11
3.54631
21
-2.40807
0
LINE
8
BLACK
6
CONTINUOUS
10
3.54631
20
-2.40807
11
3.5498
21
-2.40458
0
LINE
8
BLACK
6
CONTINUOUS
10
3.5498
20
-2.40458
11
3.55419
21
-2.40235
0
LINE
8
BLACK
6
CONTINUOUS
10
3.55419
20
-2.40235
11
3.55906
21
-2.40157
0
LINE
8
BLACK
6
CONTINUOUS
10
3.55906
20
-2.40157
11
3.56392
21
-2.40235
0
LINE
8
BLACK
6
CONTINUOUS
10
3.56392
20
-2.40235
11
3.56831
21
-2.40458
0
LINE
8
BLACK
6
CONTINUOUS
10
3.56831
20
-2.40458
11
3.5718
21
-2.40807
0
LINE
8
BLACK
6
CONTINUOUS
10
3.5718
20
-2.40807
11
3.57382
21
-2.41204
0
LINE
8
BLACK
6
CONTINUOUS
10
3.57382
20
-2.41204
11
3.57584
21
-2.40807
0
LINE
8
BLACK
6
CONTINUOUS
10
3.57584
20
-2.40807
11
3.57933
21
-2.40458
0
LINE
8
BLACK
6
CONTINUOUS
10
3.57933
20
-2.40458
11
3.58372
21
-2.40235
0
LINE
8
BLACK
6
CONTINUOUS
10
3.58372
20
-2.40235
11
3.58858
21
-2.40157
0
LINE
8
BLACK
6
CONTINUOUS
10
3.58858
20
-2.40157
11
3.59345
21
-2.40235
0
LINE
8
BLACK
6
CONTINUOUS
10
3.57297
20
-2.5462
11
3.57382
21
-2.54786
0
LINE
8
BLACK
6
CONTINUOUS
10
3.57382
20
-2.54786
11
3.57584
21
-2.54389
0
LINE
8
BLACK
6
CONTINUOUS
10
3.57584
20
-2.54389
11
3.57776
21
-2.54198
0
LINE
8
BLACK
6
CONTINUOUS
10
3.57776
20
-2.54198
11
3.57776
21
-2.54141
0
LINE
8
BLACK
6
CONTINUOUS
10
3.57776
20
-2.54141
11
3.57297
21
-2.5462
0
LINE
8
BLACK
6
CONTINUOUS
10
3.57297
20
-2.42428
11
3.57776
21
-2.42906
0
LINE
8
BLACK
6
CONTINUOUS
10
3.57776
20
-2.42906
11
3.57776
21
-2.42849
0
LINE
8
BLACK
6
CONTINUOUS
10
3.57776
20
-2.42849
11
3.57584
21
-2.42658
0
LINE
8
BLACK
6
CONTINUOUS
10
3.57584
20
-2.42658
11
3.57382
21
-2.42261
0
LINE
8
BLACK
6
CONTINUOUS
10
3.57382
20
-2.42261
11
3.57297
21
-2.42428
0
CIRCLE
8
BLACK
10
3.54331
20
-1.9685
40
0.0433071
0
CIRCLE
8
BLACK
10
2.75591
20
-1.9685
40
0.0433071
0
CIRCLE
8
BLACK
10
2.75591
20
-2.75591
40
0.0433071
0
CIRCLE
8
BLACK
10
3.41732
20
-2.50394
40
0.00787402
0
CIRCLE
8
BLACK
10
2.91339
20
-2.04724
40
0.00787402
0
CIRCLE
8
BLACK
10
2.75873
20
-2.4093
40
0.00787402
0
CIRCLE
8
BLACK
10
2.99495
20
-2.72426
40
0.00787402
0
CIRCLE
8
BLACK
10
3.54644
20
-2.25846
40
0.00787402
0
CIRCLE
8
BLACK
10
3.1967
20
-2.75308
40
0.00787402
0
CIRCLE
8
BLACK
10
3.30426
20
-2.00015
40
0.00787402
0
CIRCLE
8
BLACK
10
2.83465
20
-2.59843
40
0.00787402
0
CIRCLE
8
BLACK
10
3.38583
20
-2.6748
40
0.00787402
0
CIRCLE
8
BLACK
10
2.78755
20
-2.20755
40
0.00787402
0
CIRCLE
8
BLACK
10
3.46457
20
-2.12598
40
0.00787402
0
CIRCLE
8
BLACK
10
3.4748
20
-2.59921
40
0.00787402
0
CIRCLE
8
BLACK
10
3.10251
20
-1.97133
40
0.00787402
0
CIRCLE
8
BLACK
10
3.55906
20
-2.41732
40
0.00787402
0
CIRCLE
8
BLACK
10
3.26378
20
-2.81102
40
0.00787402
0
CIRCLE
8
BLACK
10
3.58858
20
-2.41732
40
0.00787402
0
CIRCLE
8
BLACK
10
3.58858
20
-2.55315
40
0.00787402
0
CIRCLE
8
BLACK
10
3.55906
20
-2.55315
40
0.00787402
0
CIRCLE
8
BLACK
10
3.34252
20
-2.81102
40
0.00787402
0
CIRCLE
8
BLACK
10
3.37402
20
-2.77559
40
0.00787402
0
CIRCLE
8
BLACK
10
3.30315
20
-2.81102
40
0.00787402
0
CIRCLE
8
BLACK
10
3.46102
20
-2.40748
40
0.00787402
  0
ENDSEC
  0
EOF
