%TF.GenerationSoftware,KiCad,Pcbnew,7.0.8-7.0.8~ubuntu23.04.1*%
%TF.CreationDate,2023-10-20T09:28:23+00:00*%
%TF.ProjectId,pedalboard-led-ring,70656461-6c62-46f6-9172-642d6c65642d,1.1.0-RC1*%
%TF.SameCoordinates,Original*%
%TF.FileFunction,AssemblyDrawing,Top*%
%FSLAX46Y46*%
G04 Gerber Fmt 4.6, Leading zero omitted, Abs format (unit mm)*
G04 Created by KiCad (PCBNEW 7.0.8-7.0.8~ubuntu23.04.1) date 2023-10-20 09:28:23*
%MOMM*%
%LPD*%
G01*
G04 APERTURE LIST*
%ADD10C,0.150000*%
%ADD11C,0.040000*%
%ADD12C,0.050000*%
%ADD13C,0.100000*%
G04 APERTURE END LIST*
D10*
X77619047Y-72431009D02*
X77285714Y-72431009D01*
X77285714Y-72954819D02*
X77285714Y-71954819D01*
X77285714Y-71954819D02*
X77761904Y-71954819D01*
X78142857Y-72954819D02*
X78142857Y-72288152D01*
X78142857Y-71954819D02*
X78095238Y-72002438D01*
X78095238Y-72002438D02*
X78142857Y-72050057D01*
X78142857Y-72050057D02*
X78190476Y-72002438D01*
X78190476Y-72002438D02*
X78142857Y-71954819D01*
X78142857Y-71954819D02*
X78142857Y-72050057D01*
X79047618Y-72954819D02*
X79047618Y-71954819D01*
X79047618Y-72907200D02*
X78952380Y-72954819D01*
X78952380Y-72954819D02*
X78761904Y-72954819D01*
X78761904Y-72954819D02*
X78666666Y-72907200D01*
X78666666Y-72907200D02*
X78619047Y-72859580D01*
X78619047Y-72859580D02*
X78571428Y-72764342D01*
X78571428Y-72764342D02*
X78571428Y-72478628D01*
X78571428Y-72478628D02*
X78619047Y-72383390D01*
X78619047Y-72383390D02*
X78666666Y-72335771D01*
X78666666Y-72335771D02*
X78761904Y-72288152D01*
X78761904Y-72288152D02*
X78952380Y-72288152D01*
X78952380Y-72288152D02*
X79047618Y-72335771D01*
X79952380Y-72288152D02*
X79952380Y-72954819D01*
X79523809Y-72288152D02*
X79523809Y-72811961D01*
X79523809Y-72811961D02*
X79571428Y-72907200D01*
X79571428Y-72907200D02*
X79666666Y-72954819D01*
X79666666Y-72954819D02*
X79809523Y-72954819D01*
X79809523Y-72954819D02*
X79904761Y-72907200D01*
X79904761Y-72907200D02*
X79952380Y-72859580D01*
X80857142Y-72907200D02*
X80761904Y-72954819D01*
X80761904Y-72954819D02*
X80571428Y-72954819D01*
X80571428Y-72954819D02*
X80476190Y-72907200D01*
X80476190Y-72907200D02*
X80428571Y-72859580D01*
X80428571Y-72859580D02*
X80380952Y-72764342D01*
X80380952Y-72764342D02*
X80380952Y-72478628D01*
X80380952Y-72478628D02*
X80428571Y-72383390D01*
X80428571Y-72383390D02*
X80476190Y-72335771D01*
X80476190Y-72335771D02*
X80571428Y-72288152D01*
X80571428Y-72288152D02*
X80761904Y-72288152D01*
X80761904Y-72288152D02*
X80857142Y-72335771D01*
X81285714Y-72954819D02*
X81285714Y-72288152D01*
X81285714Y-71954819D02*
X81238095Y-72002438D01*
X81238095Y-72002438D02*
X81285714Y-72050057D01*
X81285714Y-72050057D02*
X81333333Y-72002438D01*
X81333333Y-72002438D02*
X81285714Y-71954819D01*
X81285714Y-71954819D02*
X81285714Y-72050057D01*
X82190475Y-72954819D02*
X82190475Y-72431009D01*
X82190475Y-72431009D02*
X82142856Y-72335771D01*
X82142856Y-72335771D02*
X82047618Y-72288152D01*
X82047618Y-72288152D02*
X81857142Y-72288152D01*
X81857142Y-72288152D02*
X81761904Y-72335771D01*
X82190475Y-72907200D02*
X82095237Y-72954819D01*
X82095237Y-72954819D02*
X81857142Y-72954819D01*
X81857142Y-72954819D02*
X81761904Y-72907200D01*
X81761904Y-72907200D02*
X81714285Y-72811961D01*
X81714285Y-72811961D02*
X81714285Y-72716723D01*
X81714285Y-72716723D02*
X81761904Y-72621485D01*
X81761904Y-72621485D02*
X81857142Y-72573866D01*
X81857142Y-72573866D02*
X82095237Y-72573866D01*
X82095237Y-72573866D02*
X82190475Y-72526247D01*
X82809523Y-72954819D02*
X82714285Y-72907200D01*
X82714285Y-72907200D02*
X82666666Y-72811961D01*
X82666666Y-72811961D02*
X82666666Y-71954819D01*
D11*
X79785714Y-70985681D02*
X79719048Y-70985681D01*
X79719048Y-71090443D02*
X79719048Y-70890443D01*
X79719048Y-70890443D02*
X79814286Y-70890443D01*
X79890477Y-71090443D02*
X79890477Y-70890443D01*
X79985715Y-71090443D02*
X79985715Y-70890443D01*
X79985715Y-70890443D02*
X80033334Y-70890443D01*
X80033334Y-70890443D02*
X80061905Y-70899967D01*
X80061905Y-70899967D02*
X80080953Y-70919015D01*
X80080953Y-70919015D02*
X80090476Y-70938062D01*
X80090476Y-70938062D02*
X80100000Y-70976158D01*
X80100000Y-70976158D02*
X80100000Y-71004729D01*
X80100000Y-71004729D02*
X80090476Y-71042824D01*
X80090476Y-71042824D02*
X80080953Y-71061872D01*
X80080953Y-71061872D02*
X80061905Y-71080920D01*
X80061905Y-71080920D02*
X80033334Y-71090443D01*
X80033334Y-71090443D02*
X79985715Y-71090443D01*
X80176191Y-70909491D02*
X80185715Y-70899967D01*
X80185715Y-70899967D02*
X80204762Y-70890443D01*
X80204762Y-70890443D02*
X80252381Y-70890443D01*
X80252381Y-70890443D02*
X80271429Y-70899967D01*
X80271429Y-70899967D02*
X80280953Y-70909491D01*
X80280953Y-70909491D02*
X80290476Y-70928539D01*
X80290476Y-70928539D02*
X80290476Y-70947586D01*
X80290476Y-70947586D02*
X80280953Y-70976158D01*
X80280953Y-70976158D02*
X80166667Y-71090443D01*
X80166667Y-71090443D02*
X80290476Y-71090443D01*
D10*
X83174803Y-62813321D02*
X83204992Y-62960848D01*
X83204992Y-62960848D02*
X83324039Y-63167045D01*
X83324039Y-63167045D02*
X83412898Y-63225714D01*
X83412898Y-63225714D02*
X83477947Y-63243144D01*
X83477947Y-63243144D02*
X83584235Y-63236764D01*
X83584235Y-63236764D02*
X83666713Y-63189145D01*
X83666713Y-63189145D02*
X83725382Y-63100287D01*
X83725382Y-63100287D02*
X83742812Y-63035238D01*
X83742812Y-63035238D02*
X83736432Y-62928950D01*
X83736432Y-62928950D02*
X83682434Y-62740183D01*
X83682434Y-62740183D02*
X83676054Y-62633895D01*
X83676054Y-62633895D02*
X83693484Y-62568846D01*
X83693484Y-62568846D02*
X83752153Y-62479988D01*
X83752153Y-62479988D02*
X83834631Y-62432368D01*
X83834631Y-62432368D02*
X83940920Y-62425989D01*
X83940920Y-62425989D02*
X84005968Y-62443419D01*
X84005968Y-62443419D02*
X84094827Y-62502088D01*
X84094827Y-62502088D02*
X84213874Y-62708284D01*
X84213874Y-62708284D02*
X84244064Y-62855812D01*
X83633563Y-63703156D02*
X84499589Y-63203156D01*
X83919278Y-64198027D02*
X84199864Y-63541159D01*
X84785303Y-63698027D02*
X84004717Y-63488870D01*
X85213874Y-64440335D02*
X85118636Y-64275378D01*
X85118636Y-64275378D02*
X85029778Y-64216709D01*
X85029778Y-64216709D02*
X84964729Y-64199279D01*
X84964729Y-64199279D02*
X84793392Y-64188229D01*
X84793392Y-64188229D02*
X84604625Y-64242228D01*
X84604625Y-64242228D02*
X84274711Y-64432704D01*
X84274711Y-64432704D02*
X84216042Y-64521562D01*
X84216042Y-64521562D02*
X84198612Y-64586611D01*
X84198612Y-64586611D02*
X84204992Y-64692899D01*
X84204992Y-64692899D02*
X84300230Y-64857856D01*
X84300230Y-64857856D02*
X84389088Y-64916525D01*
X84389088Y-64916525D02*
X84454137Y-64933955D01*
X84454137Y-64933955D02*
X84560425Y-64927575D01*
X84560425Y-64927575D02*
X84766622Y-64808528D01*
X84766622Y-64808528D02*
X84825291Y-64719670D01*
X84825291Y-64719670D02*
X84842721Y-64654621D01*
X84842721Y-64654621D02*
X84836341Y-64548333D01*
X84836341Y-64548333D02*
X84741103Y-64383375D01*
X84741103Y-64383375D02*
X84652244Y-64324706D01*
X84652244Y-64324706D02*
X84587196Y-64307276D01*
X84587196Y-64307276D02*
X84480907Y-64313656D01*
X85176054Y-65231971D02*
X85169674Y-65125683D01*
X85169674Y-65125683D02*
X85187104Y-65060634D01*
X85187104Y-65060634D02*
X85245773Y-64971776D01*
X85245773Y-64971776D02*
X85287012Y-64947966D01*
X85287012Y-64947966D02*
X85393301Y-64941586D01*
X85393301Y-64941586D02*
X85458349Y-64959016D01*
X85458349Y-64959016D02*
X85547208Y-65017685D01*
X85547208Y-65017685D02*
X85642446Y-65182642D01*
X85642446Y-65182642D02*
X85648826Y-65288931D01*
X85648826Y-65288931D02*
X85631396Y-65353979D01*
X85631396Y-65353979D02*
X85572727Y-65442838D01*
X85572727Y-65442838D02*
X85531487Y-65466647D01*
X85531487Y-65466647D02*
X85425199Y-65473027D01*
X85425199Y-65473027D02*
X85360150Y-65455597D01*
X85360150Y-65455597D02*
X85271292Y-65396928D01*
X85271292Y-65396928D02*
X85176054Y-65231971D01*
X85176054Y-65231971D02*
X85087196Y-65173302D01*
X85087196Y-65173302D02*
X85022147Y-65155872D01*
X85022147Y-65155872D02*
X84915859Y-65162252D01*
X84915859Y-65162252D02*
X84750901Y-65257490D01*
X84750901Y-65257490D02*
X84692232Y-65346348D01*
X84692232Y-65346348D02*
X84674803Y-65411397D01*
X84674803Y-65411397D02*
X84681182Y-65517685D01*
X84681182Y-65517685D02*
X84776420Y-65682642D01*
X84776420Y-65682642D02*
X84865279Y-65741312D01*
X84865279Y-65741312D02*
X84930328Y-65758741D01*
X84930328Y-65758741D02*
X85036616Y-65752362D01*
X85036616Y-65752362D02*
X85201573Y-65657124D01*
X85201573Y-65657124D02*
X85260242Y-65568265D01*
X85260242Y-65568265D02*
X85277672Y-65503216D01*
X85277672Y-65503216D02*
X85271292Y-65396928D01*
X85347849Y-66672386D02*
X85062135Y-66177514D01*
X85204992Y-66424950D02*
X86071017Y-65924950D01*
X86071017Y-65924950D02*
X85899680Y-65913900D01*
X85899680Y-65913900D02*
X85769583Y-65879040D01*
X85769583Y-65879040D02*
X85680724Y-65820371D01*
X86321872Y-66549919D02*
X86386921Y-66567349D01*
X86386921Y-66567349D02*
X86475779Y-66626018D01*
X86475779Y-66626018D02*
X86594827Y-66832215D01*
X86594827Y-66832215D02*
X86601207Y-66938503D01*
X86601207Y-66938503D02*
X86583777Y-67003552D01*
X86583777Y-67003552D02*
X86525108Y-67092410D01*
X86525108Y-67092410D02*
X86442629Y-67140029D01*
X86442629Y-67140029D02*
X86295102Y-67170218D01*
X86295102Y-67170218D02*
X85514516Y-66961061D01*
X85514516Y-66961061D02*
X85824040Y-67497172D01*
X85836799Y-67709748D02*
X86217751Y-68369577D01*
X86872910Y-68266250D02*
X87039577Y-68554925D01*
X86657373Y-68940548D02*
X86419278Y-68528155D01*
X86419278Y-68528155D02*
X87285303Y-68028155D01*
X87285303Y-68028155D02*
X87523398Y-68440548D01*
X87239852Y-69758954D02*
X87174803Y-69741525D01*
X87174803Y-69741525D02*
X87062135Y-69641616D01*
X87062135Y-69641616D02*
X87014516Y-69559138D01*
X87014516Y-69559138D02*
X86984327Y-69411610D01*
X86984327Y-69411610D02*
X87019186Y-69281512D01*
X87019186Y-69281512D02*
X87077855Y-69192654D01*
X87077855Y-69192654D02*
X87219003Y-69056177D01*
X87219003Y-69056177D02*
X87342721Y-68984748D01*
X87342721Y-68984748D02*
X87531488Y-68930749D01*
X87531488Y-68930749D02*
X87637776Y-68924370D01*
X87637776Y-68924370D02*
X87767873Y-68959229D01*
X87767873Y-68959229D02*
X87880541Y-69059138D01*
X87880541Y-69059138D02*
X87928160Y-69141616D01*
X87928160Y-69141616D02*
X87958350Y-69289144D01*
X87958350Y-69289144D02*
X87940920Y-69354192D01*
X87633564Y-70631359D02*
X87347849Y-70136488D01*
X87490706Y-70383924D02*
X88356732Y-69883924D01*
X88356732Y-69883924D02*
X88185395Y-69872874D01*
X88185395Y-69872874D02*
X88055297Y-69838014D01*
X88055297Y-69838014D02*
X87966439Y-69779345D01*
X88951970Y-70914906D02*
X88713875Y-70502513D01*
X88713875Y-70502513D02*
X88277672Y-70699369D01*
X88277672Y-70699369D02*
X88342721Y-70716799D01*
X88342721Y-70716799D02*
X88431579Y-70775468D01*
X88431579Y-70775468D02*
X88550627Y-70981665D01*
X88550627Y-70981665D02*
X88557007Y-71087953D01*
X88557007Y-71087953D02*
X88539577Y-71153002D01*
X88539577Y-71153002D02*
X88480908Y-71241860D01*
X88480908Y-71241860D02*
X88274711Y-71360908D01*
X88274711Y-71360908D02*
X88168423Y-71367287D01*
X88168423Y-71367287D02*
X88103374Y-71349858D01*
X88103374Y-71349858D02*
X88014516Y-71291188D01*
X88014516Y-71291188D02*
X87895468Y-71084992D01*
X87895468Y-71084992D02*
X87889089Y-70978704D01*
X87889089Y-70978704D02*
X87906518Y-70913655D01*
D12*
X84187416Y-67525190D02*
X84447224Y-67375190D01*
X84447224Y-67375190D02*
X84482938Y-67437049D01*
X84482938Y-67437049D02*
X84491995Y-67481307D01*
X84491995Y-67481307D02*
X84481537Y-67520336D01*
X84481537Y-67520336D02*
X84463937Y-67546994D01*
X84463937Y-67546994D02*
X84421592Y-67587937D01*
X84421592Y-67587937D02*
X84384477Y-67609366D01*
X84384477Y-67609366D02*
X84327847Y-67625565D01*
X84327847Y-67625565D02*
X84295960Y-67627479D01*
X84295960Y-67627479D02*
X84256931Y-67617021D01*
X84256931Y-67617021D02*
X84223131Y-67587049D01*
X84223131Y-67587049D02*
X84187416Y-67525190D01*
X84415988Y-67921087D02*
X84330274Y-67772626D01*
X84373131Y-67846857D02*
X84632938Y-67696857D01*
X84632938Y-67696857D02*
X84581537Y-67693541D01*
X84581537Y-67693541D02*
X84542508Y-67683084D01*
X84542508Y-67683084D02*
X84515851Y-67665483D01*
X84558845Y-68168523D02*
X84473131Y-68020061D01*
X84515988Y-68094292D02*
X84775795Y-67944292D01*
X84775795Y-67944292D02*
X84724394Y-67940977D01*
X84724394Y-67940977D02*
X84685365Y-67930519D01*
X84685365Y-67930519D02*
X84658708Y-67912918D01*
D10*
X77904819Y-51655238D02*
X77904819Y-52226666D01*
X77904819Y-51940952D02*
X76904819Y-51940952D01*
X76904819Y-51940952D02*
X77047676Y-52036190D01*
X77047676Y-52036190D02*
X77142914Y-52131428D01*
X77142914Y-52131428D02*
X77190533Y-52226666D01*
X77238152Y-50798095D02*
X77904819Y-50798095D01*
X77238152Y-51226666D02*
X77761961Y-51226666D01*
X77761961Y-51226666D02*
X77857200Y-51179047D01*
X77857200Y-51179047D02*
X77904819Y-51083809D01*
X77904819Y-51083809D02*
X77904819Y-50940952D01*
X77904819Y-50940952D02*
X77857200Y-50845714D01*
X77857200Y-50845714D02*
X77809580Y-50798095D01*
X77381009Y-49988571D02*
X77381009Y-50321904D01*
X77904819Y-50321904D02*
X76904819Y-50321904D01*
X76904819Y-50321904D02*
X76904819Y-49845714D01*
D11*
X79269765Y-51101666D02*
X79281670Y-51113570D01*
X79281670Y-51113570D02*
X79293574Y-51149285D01*
X79293574Y-51149285D02*
X79293574Y-51173094D01*
X79293574Y-51173094D02*
X79281670Y-51208808D01*
X79281670Y-51208808D02*
X79257860Y-51232618D01*
X79257860Y-51232618D02*
X79234050Y-51244523D01*
X79234050Y-51244523D02*
X79186431Y-51256427D01*
X79186431Y-51256427D02*
X79150717Y-51256427D01*
X79150717Y-51256427D02*
X79103098Y-51244523D01*
X79103098Y-51244523D02*
X79079289Y-51232618D01*
X79079289Y-51232618D02*
X79055479Y-51208808D01*
X79055479Y-51208808D02*
X79043574Y-51173094D01*
X79043574Y-51173094D02*
X79043574Y-51149285D01*
X79043574Y-51149285D02*
X79055479Y-51113570D01*
X79055479Y-51113570D02*
X79067384Y-51101666D01*
X79126908Y-50887380D02*
X79293574Y-50887380D01*
X79031670Y-50946904D02*
X79210241Y-51006427D01*
X79210241Y-51006427D02*
X79210241Y-50851666D01*
D10*
X72589169Y-53169651D02*
X72303454Y-52674779D01*
X72446311Y-52922215D02*
X73312337Y-52422215D01*
X73312337Y-52422215D02*
X73141000Y-52411165D01*
X73141000Y-52411165D02*
X73010902Y-52376305D01*
X73010902Y-52376305D02*
X72922044Y-52317636D01*
X73595090Y-53578625D02*
X73017740Y-53911958D01*
X73380805Y-53207471D02*
X72927172Y-53469376D01*
X72927172Y-53469376D02*
X72868503Y-53558234D01*
X72868503Y-53558234D02*
X72874883Y-53664522D01*
X72874883Y-53664522D02*
X72946311Y-53788240D01*
X72946311Y-53788240D02*
X73035170Y-53846909D01*
X73035170Y-53846909D02*
X73100219Y-53864339D01*
X73876134Y-54351122D02*
X73709468Y-54062446D01*
X73255835Y-54324351D02*
X74121861Y-53824351D01*
X74121861Y-53824351D02*
X74359956Y-54236744D01*
D11*
X74680324Y-52601531D02*
X74664062Y-52597174D01*
X74664062Y-52597174D02*
X74635895Y-52572197D01*
X74635895Y-52572197D02*
X74623991Y-52551577D01*
X74623991Y-52551577D02*
X74616443Y-52514695D01*
X74616443Y-52514695D02*
X74625158Y-52482171D01*
X74625158Y-52482171D02*
X74639825Y-52459956D01*
X74639825Y-52459956D02*
X74675112Y-52425837D01*
X74675112Y-52425837D02*
X74706042Y-52407980D01*
X74706042Y-52407980D02*
X74753233Y-52394480D01*
X74753233Y-52394480D02*
X74779806Y-52392885D01*
X74779806Y-52392885D02*
X74812330Y-52401600D01*
X74812330Y-52401600D02*
X74840497Y-52426577D01*
X74840497Y-52426577D02*
X74852402Y-52447197D01*
X74852402Y-52447197D02*
X74859949Y-52484079D01*
X74859949Y-52484079D02*
X74855592Y-52500341D01*
X74989306Y-52684323D02*
X74929783Y-52581224D01*
X74929783Y-52581224D02*
X74820732Y-52630438D01*
X74820732Y-52630438D02*
X74836994Y-52634796D01*
X74836994Y-52634796D02*
X74859209Y-52649463D01*
X74859209Y-52649463D02*
X74888971Y-52701012D01*
X74888971Y-52701012D02*
X74890566Y-52727584D01*
X74890566Y-52727584D02*
X74886208Y-52743847D01*
X74886208Y-52743847D02*
X74871541Y-52766061D01*
X74871541Y-52766061D02*
X74819992Y-52795823D01*
X74819992Y-52795823D02*
X74793420Y-52797418D01*
X74793420Y-52797418D02*
X74777158Y-52793061D01*
X74777158Y-52793061D02*
X74754943Y-52778393D01*
X74754943Y-52778393D02*
X74725181Y-52726844D01*
X74725181Y-52726844D02*
X74723586Y-52700272D01*
X74723586Y-52700272D02*
X74727944Y-52684010D01*
D10*
X84023809Y-58657200D02*
X84166666Y-58704819D01*
X84166666Y-58704819D02*
X84404761Y-58704819D01*
X84404761Y-58704819D02*
X84499999Y-58657200D01*
X84499999Y-58657200D02*
X84547618Y-58609580D01*
X84547618Y-58609580D02*
X84595237Y-58514342D01*
X84595237Y-58514342D02*
X84595237Y-58419104D01*
X84595237Y-58419104D02*
X84547618Y-58323866D01*
X84547618Y-58323866D02*
X84499999Y-58276247D01*
X84499999Y-58276247D02*
X84404761Y-58228628D01*
X84404761Y-58228628D02*
X84214285Y-58181009D01*
X84214285Y-58181009D02*
X84119047Y-58133390D01*
X84119047Y-58133390D02*
X84071428Y-58085771D01*
X84071428Y-58085771D02*
X84023809Y-57990533D01*
X84023809Y-57990533D02*
X84023809Y-57895295D01*
X84023809Y-57895295D02*
X84071428Y-57800057D01*
X84071428Y-57800057D02*
X84119047Y-57752438D01*
X84119047Y-57752438D02*
X84214285Y-57704819D01*
X84214285Y-57704819D02*
X84452380Y-57704819D01*
X84452380Y-57704819D02*
X84595237Y-57752438D01*
X85023809Y-58704819D02*
X85023809Y-57704819D01*
X85595237Y-58704819D02*
X85166666Y-58133390D01*
X85595237Y-57704819D02*
X85023809Y-58276247D01*
X86452380Y-57704819D02*
X86261904Y-57704819D01*
X86261904Y-57704819D02*
X86166666Y-57752438D01*
X86166666Y-57752438D02*
X86119047Y-57800057D01*
X86119047Y-57800057D02*
X86023809Y-57942914D01*
X86023809Y-57942914D02*
X85976190Y-58133390D01*
X85976190Y-58133390D02*
X85976190Y-58514342D01*
X85976190Y-58514342D02*
X86023809Y-58609580D01*
X86023809Y-58609580D02*
X86071428Y-58657200D01*
X86071428Y-58657200D02*
X86166666Y-58704819D01*
X86166666Y-58704819D02*
X86357142Y-58704819D01*
X86357142Y-58704819D02*
X86452380Y-58657200D01*
X86452380Y-58657200D02*
X86499999Y-58609580D01*
X86499999Y-58609580D02*
X86547618Y-58514342D01*
X86547618Y-58514342D02*
X86547618Y-58276247D01*
X86547618Y-58276247D02*
X86499999Y-58181009D01*
X86499999Y-58181009D02*
X86452380Y-58133390D01*
X86452380Y-58133390D02*
X86357142Y-58085771D01*
X86357142Y-58085771D02*
X86166666Y-58085771D01*
X86166666Y-58085771D02*
X86071428Y-58133390D01*
X86071428Y-58133390D02*
X86023809Y-58181009D01*
X86023809Y-58181009D02*
X85976190Y-58276247D01*
X87119047Y-58133390D02*
X87023809Y-58085771D01*
X87023809Y-58085771D02*
X86976190Y-58038152D01*
X86976190Y-58038152D02*
X86928571Y-57942914D01*
X86928571Y-57942914D02*
X86928571Y-57895295D01*
X86928571Y-57895295D02*
X86976190Y-57800057D01*
X86976190Y-57800057D02*
X87023809Y-57752438D01*
X87023809Y-57752438D02*
X87119047Y-57704819D01*
X87119047Y-57704819D02*
X87309523Y-57704819D01*
X87309523Y-57704819D02*
X87404761Y-57752438D01*
X87404761Y-57752438D02*
X87452380Y-57800057D01*
X87452380Y-57800057D02*
X87499999Y-57895295D01*
X87499999Y-57895295D02*
X87499999Y-57942914D01*
X87499999Y-57942914D02*
X87452380Y-58038152D01*
X87452380Y-58038152D02*
X87404761Y-58085771D01*
X87404761Y-58085771D02*
X87309523Y-58133390D01*
X87309523Y-58133390D02*
X87119047Y-58133390D01*
X87119047Y-58133390D02*
X87023809Y-58181009D01*
X87023809Y-58181009D02*
X86976190Y-58228628D01*
X86976190Y-58228628D02*
X86928571Y-58323866D01*
X86928571Y-58323866D02*
X86928571Y-58514342D01*
X86928571Y-58514342D02*
X86976190Y-58609580D01*
X86976190Y-58609580D02*
X87023809Y-58657200D01*
X87023809Y-58657200D02*
X87119047Y-58704819D01*
X87119047Y-58704819D02*
X87309523Y-58704819D01*
X87309523Y-58704819D02*
X87404761Y-58657200D01*
X87404761Y-58657200D02*
X87452380Y-58609580D01*
X87452380Y-58609580D02*
X87499999Y-58514342D01*
X87499999Y-58514342D02*
X87499999Y-58323866D01*
X87499999Y-58323866D02*
X87452380Y-58228628D01*
X87452380Y-58228628D02*
X87404761Y-58181009D01*
X87404761Y-58181009D02*
X87309523Y-58133390D01*
X88452380Y-58704819D02*
X87880952Y-58704819D01*
X88166666Y-58704819D02*
X88166666Y-57704819D01*
X88166666Y-57704819D02*
X88071428Y-57847676D01*
X88071428Y-57847676D02*
X87976190Y-57942914D01*
X87976190Y-57942914D02*
X87880952Y-57990533D01*
X88833333Y-57800057D02*
X88880952Y-57752438D01*
X88880952Y-57752438D02*
X88976190Y-57704819D01*
X88976190Y-57704819D02*
X89214285Y-57704819D01*
X89214285Y-57704819D02*
X89309523Y-57752438D01*
X89309523Y-57752438D02*
X89357142Y-57800057D01*
X89357142Y-57800057D02*
X89404761Y-57895295D01*
X89404761Y-57895295D02*
X89404761Y-57990533D01*
X89404761Y-57990533D02*
X89357142Y-58133390D01*
X89357142Y-58133390D02*
X88785714Y-58704819D01*
X88785714Y-58704819D02*
X89404761Y-58704819D01*
X89595238Y-58800057D02*
X90357142Y-58800057D01*
X90595238Y-58181009D02*
X90928571Y-58181009D01*
X91071428Y-58704819D02*
X90595238Y-58704819D01*
X90595238Y-58704819D02*
X90595238Y-57704819D01*
X90595238Y-57704819D02*
X91071428Y-57704819D01*
X92071428Y-58609580D02*
X92023809Y-58657200D01*
X92023809Y-58657200D02*
X91880952Y-58704819D01*
X91880952Y-58704819D02*
X91785714Y-58704819D01*
X91785714Y-58704819D02*
X91642857Y-58657200D01*
X91642857Y-58657200D02*
X91547619Y-58561961D01*
X91547619Y-58561961D02*
X91500000Y-58466723D01*
X91500000Y-58466723D02*
X91452381Y-58276247D01*
X91452381Y-58276247D02*
X91452381Y-58133390D01*
X91452381Y-58133390D02*
X91500000Y-57942914D01*
X91500000Y-57942914D02*
X91547619Y-57847676D01*
X91547619Y-57847676D02*
X91642857Y-57752438D01*
X91642857Y-57752438D02*
X91785714Y-57704819D01*
X91785714Y-57704819D02*
X91880952Y-57704819D01*
X91880952Y-57704819D02*
X92023809Y-57752438D01*
X92023809Y-57752438D02*
X92071428Y-57800057D01*
X93023809Y-58704819D02*
X92452381Y-58704819D01*
X92738095Y-58704819D02*
X92738095Y-57704819D01*
X92738095Y-57704819D02*
X92642857Y-57847676D01*
X92642857Y-57847676D02*
X92547619Y-57942914D01*
X92547619Y-57942914D02*
X92452381Y-57990533D01*
X93928571Y-57704819D02*
X93452381Y-57704819D01*
X93452381Y-57704819D02*
X93404762Y-58181009D01*
X93404762Y-58181009D02*
X93452381Y-58133390D01*
X93452381Y-58133390D02*
X93547619Y-58085771D01*
X93547619Y-58085771D02*
X93785714Y-58085771D01*
X93785714Y-58085771D02*
X93880952Y-58133390D01*
X93880952Y-58133390D02*
X93928571Y-58181009D01*
X93928571Y-58181009D02*
X93976190Y-58276247D01*
X93976190Y-58276247D02*
X93976190Y-58514342D01*
X93976190Y-58514342D02*
X93928571Y-58609580D01*
X93928571Y-58609580D02*
X93880952Y-58657200D01*
X93880952Y-58657200D02*
X93785714Y-58704819D01*
X93785714Y-58704819D02*
X93547619Y-58704819D01*
X93547619Y-58704819D02*
X93452381Y-58657200D01*
X93452381Y-58657200D02*
X93404762Y-58609580D01*
D12*
X88753571Y-60136185D02*
X88753571Y-59836185D01*
X88753571Y-59836185D02*
X88825000Y-59836185D01*
X88825000Y-59836185D02*
X88867857Y-59850471D01*
X88867857Y-59850471D02*
X88896428Y-59879042D01*
X88896428Y-59879042D02*
X88910714Y-59907614D01*
X88910714Y-59907614D02*
X88925000Y-59964757D01*
X88925000Y-59964757D02*
X88925000Y-60007614D01*
X88925000Y-60007614D02*
X88910714Y-60064757D01*
X88910714Y-60064757D02*
X88896428Y-60093328D01*
X88896428Y-60093328D02*
X88867857Y-60121900D01*
X88867857Y-60121900D02*
X88825000Y-60136185D01*
X88825000Y-60136185D02*
X88753571Y-60136185D01*
X89210714Y-60136185D02*
X89039285Y-60136185D01*
X89125000Y-60136185D02*
X89125000Y-59836185D01*
X89125000Y-59836185D02*
X89096428Y-59879042D01*
X89096428Y-59879042D02*
X89067857Y-59907614D01*
X89067857Y-59907614D02*
X89039285Y-59921900D01*
D10*
X78657200Y-55976190D02*
X78704819Y-55833333D01*
X78704819Y-55833333D02*
X78704819Y-55595238D01*
X78704819Y-55595238D02*
X78657200Y-55500000D01*
X78657200Y-55500000D02*
X78609580Y-55452381D01*
X78609580Y-55452381D02*
X78514342Y-55404762D01*
X78514342Y-55404762D02*
X78419104Y-55404762D01*
X78419104Y-55404762D02*
X78323866Y-55452381D01*
X78323866Y-55452381D02*
X78276247Y-55500000D01*
X78276247Y-55500000D02*
X78228628Y-55595238D01*
X78228628Y-55595238D02*
X78181009Y-55785714D01*
X78181009Y-55785714D02*
X78133390Y-55880952D01*
X78133390Y-55880952D02*
X78085771Y-55928571D01*
X78085771Y-55928571D02*
X77990533Y-55976190D01*
X77990533Y-55976190D02*
X77895295Y-55976190D01*
X77895295Y-55976190D02*
X77800057Y-55928571D01*
X77800057Y-55928571D02*
X77752438Y-55880952D01*
X77752438Y-55880952D02*
X77704819Y-55785714D01*
X77704819Y-55785714D02*
X77704819Y-55547619D01*
X77704819Y-55547619D02*
X77752438Y-55404762D01*
X78704819Y-54976190D02*
X77704819Y-54976190D01*
X78704819Y-54404762D02*
X78133390Y-54833333D01*
X77704819Y-54404762D02*
X78276247Y-54976190D01*
X77704819Y-53547619D02*
X77704819Y-53738095D01*
X77704819Y-53738095D02*
X77752438Y-53833333D01*
X77752438Y-53833333D02*
X77800057Y-53880952D01*
X77800057Y-53880952D02*
X77942914Y-53976190D01*
X77942914Y-53976190D02*
X78133390Y-54023809D01*
X78133390Y-54023809D02*
X78514342Y-54023809D01*
X78514342Y-54023809D02*
X78609580Y-53976190D01*
X78609580Y-53976190D02*
X78657200Y-53928571D01*
X78657200Y-53928571D02*
X78704819Y-53833333D01*
X78704819Y-53833333D02*
X78704819Y-53642857D01*
X78704819Y-53642857D02*
X78657200Y-53547619D01*
X78657200Y-53547619D02*
X78609580Y-53500000D01*
X78609580Y-53500000D02*
X78514342Y-53452381D01*
X78514342Y-53452381D02*
X78276247Y-53452381D01*
X78276247Y-53452381D02*
X78181009Y-53500000D01*
X78181009Y-53500000D02*
X78133390Y-53547619D01*
X78133390Y-53547619D02*
X78085771Y-53642857D01*
X78085771Y-53642857D02*
X78085771Y-53833333D01*
X78085771Y-53833333D02*
X78133390Y-53928571D01*
X78133390Y-53928571D02*
X78181009Y-53976190D01*
X78181009Y-53976190D02*
X78276247Y-54023809D01*
X78133390Y-52880952D02*
X78085771Y-52976190D01*
X78085771Y-52976190D02*
X78038152Y-53023809D01*
X78038152Y-53023809D02*
X77942914Y-53071428D01*
X77942914Y-53071428D02*
X77895295Y-53071428D01*
X77895295Y-53071428D02*
X77800057Y-53023809D01*
X77800057Y-53023809D02*
X77752438Y-52976190D01*
X77752438Y-52976190D02*
X77704819Y-52880952D01*
X77704819Y-52880952D02*
X77704819Y-52690476D01*
X77704819Y-52690476D02*
X77752438Y-52595238D01*
X77752438Y-52595238D02*
X77800057Y-52547619D01*
X77800057Y-52547619D02*
X77895295Y-52500000D01*
X77895295Y-52500000D02*
X77942914Y-52500000D01*
X77942914Y-52500000D02*
X78038152Y-52547619D01*
X78038152Y-52547619D02*
X78085771Y-52595238D01*
X78085771Y-52595238D02*
X78133390Y-52690476D01*
X78133390Y-52690476D02*
X78133390Y-52880952D01*
X78133390Y-52880952D02*
X78181009Y-52976190D01*
X78181009Y-52976190D02*
X78228628Y-53023809D01*
X78228628Y-53023809D02*
X78323866Y-53071428D01*
X78323866Y-53071428D02*
X78514342Y-53071428D01*
X78514342Y-53071428D02*
X78609580Y-53023809D01*
X78609580Y-53023809D02*
X78657200Y-52976190D01*
X78657200Y-52976190D02*
X78704819Y-52880952D01*
X78704819Y-52880952D02*
X78704819Y-52690476D01*
X78704819Y-52690476D02*
X78657200Y-52595238D01*
X78657200Y-52595238D02*
X78609580Y-52547619D01*
X78609580Y-52547619D02*
X78514342Y-52500000D01*
X78514342Y-52500000D02*
X78323866Y-52500000D01*
X78323866Y-52500000D02*
X78228628Y-52547619D01*
X78228628Y-52547619D02*
X78181009Y-52595238D01*
X78181009Y-52595238D02*
X78133390Y-52690476D01*
X78704819Y-51547619D02*
X78704819Y-52119047D01*
X78704819Y-51833333D02*
X77704819Y-51833333D01*
X77704819Y-51833333D02*
X77847676Y-51928571D01*
X77847676Y-51928571D02*
X77942914Y-52023809D01*
X77942914Y-52023809D02*
X77990533Y-52119047D01*
X77800057Y-51166666D02*
X77752438Y-51119047D01*
X77752438Y-51119047D02*
X77704819Y-51023809D01*
X77704819Y-51023809D02*
X77704819Y-50785714D01*
X77704819Y-50785714D02*
X77752438Y-50690476D01*
X77752438Y-50690476D02*
X77800057Y-50642857D01*
X77800057Y-50642857D02*
X77895295Y-50595238D01*
X77895295Y-50595238D02*
X77990533Y-50595238D01*
X77990533Y-50595238D02*
X78133390Y-50642857D01*
X78133390Y-50642857D02*
X78704819Y-51214285D01*
X78704819Y-51214285D02*
X78704819Y-50595238D01*
X78800057Y-50404762D02*
X78800057Y-49642857D01*
X78181009Y-49404761D02*
X78181009Y-49071428D01*
X78704819Y-48928571D02*
X78704819Y-49404761D01*
X78704819Y-49404761D02*
X77704819Y-49404761D01*
X77704819Y-49404761D02*
X77704819Y-48928571D01*
X78609580Y-47928571D02*
X78657200Y-47976190D01*
X78657200Y-47976190D02*
X78704819Y-48119047D01*
X78704819Y-48119047D02*
X78704819Y-48214285D01*
X78704819Y-48214285D02*
X78657200Y-48357142D01*
X78657200Y-48357142D02*
X78561961Y-48452380D01*
X78561961Y-48452380D02*
X78466723Y-48499999D01*
X78466723Y-48499999D02*
X78276247Y-48547618D01*
X78276247Y-48547618D02*
X78133390Y-48547618D01*
X78133390Y-48547618D02*
X77942914Y-48499999D01*
X77942914Y-48499999D02*
X77847676Y-48452380D01*
X77847676Y-48452380D02*
X77752438Y-48357142D01*
X77752438Y-48357142D02*
X77704819Y-48214285D01*
X77704819Y-48214285D02*
X77704819Y-48119047D01*
X77704819Y-48119047D02*
X77752438Y-47976190D01*
X77752438Y-47976190D02*
X77800057Y-47928571D01*
X78704819Y-46976190D02*
X78704819Y-47547618D01*
X78704819Y-47261904D02*
X77704819Y-47261904D01*
X77704819Y-47261904D02*
X77847676Y-47357142D01*
X77847676Y-47357142D02*
X77942914Y-47452380D01*
X77942914Y-47452380D02*
X77990533Y-47547618D01*
X77704819Y-46071428D02*
X77704819Y-46547618D01*
X77704819Y-46547618D02*
X78181009Y-46595237D01*
X78181009Y-46595237D02*
X78133390Y-46547618D01*
X78133390Y-46547618D02*
X78085771Y-46452380D01*
X78085771Y-46452380D02*
X78085771Y-46214285D01*
X78085771Y-46214285D02*
X78133390Y-46119047D01*
X78133390Y-46119047D02*
X78181009Y-46071428D01*
X78181009Y-46071428D02*
X78276247Y-46023809D01*
X78276247Y-46023809D02*
X78514342Y-46023809D01*
X78514342Y-46023809D02*
X78609580Y-46071428D01*
X78609580Y-46071428D02*
X78657200Y-46119047D01*
X78657200Y-46119047D02*
X78704819Y-46214285D01*
X78704819Y-46214285D02*
X78704819Y-46452380D01*
X78704819Y-46452380D02*
X78657200Y-46547618D01*
X78657200Y-46547618D02*
X78609580Y-46595237D01*
D12*
X80136185Y-51246428D02*
X79836185Y-51246428D01*
X79836185Y-51246428D02*
X79836185Y-51174999D01*
X79836185Y-51174999D02*
X79850471Y-51132142D01*
X79850471Y-51132142D02*
X79879042Y-51103571D01*
X79879042Y-51103571D02*
X79907614Y-51089285D01*
X79907614Y-51089285D02*
X79964757Y-51074999D01*
X79964757Y-51074999D02*
X80007614Y-51074999D01*
X80007614Y-51074999D02*
X80064757Y-51089285D01*
X80064757Y-51089285D02*
X80093328Y-51103571D01*
X80093328Y-51103571D02*
X80121900Y-51132142D01*
X80121900Y-51132142D02*
X80136185Y-51174999D01*
X80136185Y-51174999D02*
X80136185Y-51246428D01*
X79936185Y-50817857D02*
X80136185Y-50817857D01*
X79821900Y-50889285D02*
X80036185Y-50960714D01*
X80036185Y-50960714D02*
X80036185Y-50774999D01*
D10*
X84156121Y-60849006D02*
X84256029Y-60961674D01*
X84256029Y-60961674D02*
X84462226Y-61080721D01*
X84462226Y-61080721D02*
X84568514Y-61087101D01*
X84568514Y-61087101D02*
X84633563Y-61069671D01*
X84633563Y-61069671D02*
X84722421Y-61011002D01*
X84722421Y-61011002D02*
X84770040Y-60928523D01*
X84770040Y-60928523D02*
X84776420Y-60822235D01*
X84776420Y-60822235D02*
X84758990Y-60757186D01*
X84758990Y-60757186D02*
X84700321Y-60668328D01*
X84700321Y-60668328D02*
X84559173Y-60531851D01*
X84559173Y-60531851D02*
X84500504Y-60442992D01*
X84500504Y-60442992D02*
X84483074Y-60377944D01*
X84483074Y-60377944D02*
X84489454Y-60271655D01*
X84489454Y-60271655D02*
X84537073Y-60189177D01*
X84537073Y-60189177D02*
X84625932Y-60130508D01*
X84625932Y-60130508D02*
X84690980Y-60113078D01*
X84690980Y-60113078D02*
X84797269Y-60119458D01*
X84797269Y-60119458D02*
X85003465Y-60238505D01*
X85003465Y-60238505D02*
X85103373Y-60351173D01*
X84998337Y-61390245D02*
X85498337Y-60524220D01*
X85493208Y-61675959D02*
X85407769Y-60966802D01*
X85993208Y-60809934D02*
X85212622Y-61019091D01*
X86735516Y-61238505D02*
X86570559Y-61143267D01*
X86570559Y-61143267D02*
X86464271Y-61136887D01*
X86464271Y-61136887D02*
X86399222Y-61154317D01*
X86399222Y-61154317D02*
X86245315Y-61230416D01*
X86245315Y-61230416D02*
X86108837Y-61371564D01*
X86108837Y-61371564D02*
X85918361Y-61701478D01*
X85918361Y-61701478D02*
X85911981Y-61807766D01*
X85911981Y-61807766D02*
X85929411Y-61872815D01*
X85929411Y-61872815D02*
X85988080Y-61961674D01*
X85988080Y-61961674D02*
X86153037Y-62056912D01*
X86153037Y-62056912D02*
X86259325Y-62063291D01*
X86259325Y-62063291D02*
X86324374Y-62045862D01*
X86324374Y-62045862D02*
X86413233Y-61987193D01*
X86413233Y-61987193D02*
X86532280Y-61780996D01*
X86532280Y-61780996D02*
X86538660Y-61674708D01*
X86538660Y-61674708D02*
X86521230Y-61609659D01*
X86521230Y-61609659D02*
X86462561Y-61520801D01*
X86462561Y-61520801D02*
X86297604Y-61425563D01*
X86297604Y-61425563D02*
X86191316Y-61419183D01*
X86191316Y-61419183D02*
X86126267Y-61436613D01*
X86126267Y-61436613D02*
X86037409Y-61495282D01*
X87098581Y-61942992D02*
X87039911Y-61854134D01*
X87039911Y-61854134D02*
X87022482Y-61789085D01*
X87022482Y-61789085D02*
X87028861Y-61682797D01*
X87028861Y-61682797D02*
X87052671Y-61641558D01*
X87052671Y-61641558D02*
X87141529Y-61582889D01*
X87141529Y-61582889D02*
X87206578Y-61565459D01*
X87206578Y-61565459D02*
X87312866Y-61571839D01*
X87312866Y-61571839D02*
X87477823Y-61667077D01*
X87477823Y-61667077D02*
X87536493Y-61755935D01*
X87536493Y-61755935D02*
X87553922Y-61820984D01*
X87553922Y-61820984D02*
X87547543Y-61927272D01*
X87547543Y-61927272D02*
X87523733Y-61968511D01*
X87523733Y-61968511D02*
X87434875Y-62027180D01*
X87434875Y-62027180D02*
X87369826Y-62044610D01*
X87369826Y-62044610D02*
X87263538Y-62038230D01*
X87263538Y-62038230D02*
X87098581Y-61942992D01*
X87098581Y-61942992D02*
X86992292Y-61936613D01*
X86992292Y-61936613D02*
X86927244Y-61954042D01*
X86927244Y-61954042D02*
X86838385Y-62012712D01*
X86838385Y-62012712D02*
X86743147Y-62177669D01*
X86743147Y-62177669D02*
X86736767Y-62283957D01*
X86736767Y-62283957D02*
X86754197Y-62349006D01*
X86754197Y-62349006D02*
X86812866Y-62437864D01*
X86812866Y-62437864D02*
X86977823Y-62533102D01*
X86977823Y-62533102D02*
X87084112Y-62539482D01*
X87084112Y-62539482D02*
X87149160Y-62522052D01*
X87149160Y-62522052D02*
X87238019Y-62463383D01*
X87238019Y-62463383D02*
X87333257Y-62298426D01*
X87333257Y-62298426D02*
X87339637Y-62192138D01*
X87339637Y-62192138D02*
X87322207Y-62127089D01*
X87322207Y-62127089D02*
X87263538Y-62038230D01*
X87967567Y-63104531D02*
X87472695Y-62818816D01*
X87720131Y-62961674D02*
X88220131Y-62095648D01*
X88220131Y-62095648D02*
X88066224Y-62171747D01*
X88066224Y-62171747D02*
X87936126Y-62206607D01*
X87936126Y-62206607D02*
X87829838Y-62200227D01*
X88749862Y-62511460D02*
X88814911Y-62494030D01*
X88814911Y-62494030D02*
X88921199Y-62500410D01*
X88921199Y-62500410D02*
X89127396Y-62619458D01*
X89127396Y-62619458D02*
X89186065Y-62708316D01*
X89186065Y-62708316D02*
X89203495Y-62773365D01*
X89203495Y-62773365D02*
X89197115Y-62879653D01*
X89197115Y-62879653D02*
X89149496Y-62962132D01*
X89149496Y-62962132D02*
X89036828Y-63062040D01*
X89036828Y-63062040D02*
X88256242Y-63271197D01*
X88256242Y-63271197D02*
X88792353Y-63580721D01*
X88909691Y-63758438D02*
X89569520Y-64139390D01*
X90085241Y-63722327D02*
X90373916Y-63888994D01*
X90235729Y-64414055D02*
X89823336Y-64175959D01*
X89823336Y-64175959D02*
X90323336Y-63309934D01*
X90323336Y-63309934D02*
X90735729Y-63548029D01*
X91149373Y-64831576D02*
X91084325Y-64849006D01*
X91084325Y-64849006D02*
X90936797Y-64818817D01*
X90936797Y-64818817D02*
X90854319Y-64771198D01*
X90854319Y-64771198D02*
X90754410Y-64658530D01*
X90754410Y-64658530D02*
X90719551Y-64528432D01*
X90719551Y-64528432D02*
X90725930Y-64422144D01*
X90725930Y-64422144D02*
X90779929Y-64233377D01*
X90779929Y-64233377D02*
X90851358Y-64109659D01*
X90851358Y-64109659D02*
X90987835Y-63968512D01*
X90987835Y-63968512D02*
X91076693Y-63909843D01*
X91076693Y-63909843D02*
X91206791Y-63874983D01*
X91206791Y-63874983D02*
X91354319Y-63905172D01*
X91354319Y-63905172D02*
X91436797Y-63952791D01*
X91436797Y-63952791D02*
X91536706Y-64065459D01*
X91536706Y-64065459D02*
X91554135Y-64130508D01*
X91926540Y-65390245D02*
X91431669Y-65104531D01*
X91679105Y-65247388D02*
X92179105Y-64381363D01*
X92179105Y-64381363D02*
X92025197Y-64457462D01*
X92025197Y-64457462D02*
X91895100Y-64492321D01*
X91895100Y-64492321D02*
X91788812Y-64485941D01*
X93210087Y-64976601D02*
X92797694Y-64738506D01*
X92797694Y-64738506D02*
X92518360Y-65127089D01*
X92518360Y-65127089D02*
X92583409Y-65109659D01*
X92583409Y-65109659D02*
X92689697Y-65116039D01*
X92689697Y-65116039D02*
X92895893Y-65235087D01*
X92895893Y-65235087D02*
X92954562Y-65323945D01*
X92954562Y-65323945D02*
X92971992Y-65388994D01*
X92971992Y-65388994D02*
X92965612Y-65495282D01*
X92965612Y-65495282D02*
X92846565Y-65701479D01*
X92846565Y-65701479D02*
X92757706Y-65760148D01*
X92757706Y-65760148D02*
X92692658Y-65777577D01*
X92692658Y-65777577D02*
X92586369Y-65771198D01*
X92586369Y-65771198D02*
X92380173Y-65652150D01*
X92380173Y-65652150D02*
X92321504Y-65563292D01*
X92321504Y-65563292D02*
X92304074Y-65498243D01*
D12*
X87389004Y-64423297D02*
X87539004Y-64163489D01*
X87539004Y-64163489D02*
X87600863Y-64199204D01*
X87600863Y-64199204D02*
X87630836Y-64233004D01*
X87630836Y-64233004D02*
X87641294Y-64272033D01*
X87641294Y-64272033D02*
X87639380Y-64303920D01*
X87639380Y-64303920D02*
X87623180Y-64360550D01*
X87623180Y-64360550D02*
X87601751Y-64397665D01*
X87601751Y-64397665D02*
X87560808Y-64440010D01*
X87560808Y-64440010D02*
X87534151Y-64457610D01*
X87534151Y-64457610D02*
X87495121Y-64468068D01*
X87495121Y-64468068D02*
X87450863Y-64459011D01*
X87450863Y-64459011D02*
X87389004Y-64423297D01*
X87784902Y-64651869D02*
X87636440Y-64566154D01*
X87710671Y-64609011D02*
X87860671Y-64349204D01*
X87860671Y-64349204D02*
X87814499Y-64372033D01*
X87814499Y-64372033D02*
X87775469Y-64382491D01*
X87775469Y-64382491D02*
X87743583Y-64380577D01*
X88019590Y-64473947D02*
X88039105Y-64468718D01*
X88039105Y-64468718D02*
X88070991Y-64470632D01*
X88070991Y-64470632D02*
X88132850Y-64506346D01*
X88132850Y-64506346D02*
X88150451Y-64533004D01*
X88150451Y-64533004D02*
X88155680Y-64552519D01*
X88155680Y-64552519D02*
X88153766Y-64584405D01*
X88153766Y-64584405D02*
X88139480Y-64609149D01*
X88139480Y-64609149D02*
X88105680Y-64639121D01*
X88105680Y-64639121D02*
X87871504Y-64701868D01*
X87871504Y-64701868D02*
X88032337Y-64794726D01*
D10*
X68974863Y-68856284D02*
X69122390Y-68826095D01*
X69122390Y-68826095D02*
X69328587Y-68707048D01*
X69328587Y-68707048D02*
X69387256Y-68618189D01*
X69387256Y-68618189D02*
X69404686Y-68553140D01*
X69404686Y-68553140D02*
X69398306Y-68446852D01*
X69398306Y-68446852D02*
X69350687Y-68364374D01*
X69350687Y-68364374D02*
X69261829Y-68305705D01*
X69261829Y-68305705D02*
X69196780Y-68288275D01*
X69196780Y-68288275D02*
X69090492Y-68294655D01*
X69090492Y-68294655D02*
X68901725Y-68348653D01*
X68901725Y-68348653D02*
X68795437Y-68355033D01*
X68795437Y-68355033D02*
X68730388Y-68337603D01*
X68730388Y-68337603D02*
X68641530Y-68278934D01*
X68641530Y-68278934D02*
X68593910Y-68196456D01*
X68593910Y-68196456D02*
X68587531Y-68090167D01*
X68587531Y-68090167D02*
X68604961Y-68025119D01*
X68604961Y-68025119D02*
X68663630Y-67936260D01*
X68663630Y-67936260D02*
X68869826Y-67817213D01*
X68869826Y-67817213D02*
X69017354Y-67787023D01*
X69864698Y-68397524D02*
X69364698Y-67531498D01*
X70359569Y-68111809D02*
X69702701Y-67831223D01*
X69859569Y-67245784D02*
X69650412Y-68026370D01*
X70601877Y-66817213D02*
X70436920Y-66912451D01*
X70436920Y-66912451D02*
X70378251Y-67001309D01*
X70378251Y-67001309D02*
X70360821Y-67066358D01*
X70360821Y-67066358D02*
X70349771Y-67237695D01*
X70349771Y-67237695D02*
X70403770Y-67426462D01*
X70403770Y-67426462D02*
X70594246Y-67756376D01*
X70594246Y-67756376D02*
X70683104Y-67815045D01*
X70683104Y-67815045D02*
X70748153Y-67832475D01*
X70748153Y-67832475D02*
X70854441Y-67826095D01*
X70854441Y-67826095D02*
X71019398Y-67730857D01*
X71019398Y-67730857D02*
X71078067Y-67641999D01*
X71078067Y-67641999D02*
X71095497Y-67576950D01*
X71095497Y-67576950D02*
X71089117Y-67470662D01*
X71089117Y-67470662D02*
X70970070Y-67264465D01*
X70970070Y-67264465D02*
X70881212Y-67205796D01*
X70881212Y-67205796D02*
X70816163Y-67188366D01*
X70816163Y-67188366D02*
X70709875Y-67194746D01*
X70709875Y-67194746D02*
X70544917Y-67289984D01*
X70544917Y-67289984D02*
X70486248Y-67378843D01*
X70486248Y-67378843D02*
X70468818Y-67443891D01*
X70468818Y-67443891D02*
X70475198Y-67550180D01*
X71393513Y-66855033D02*
X71287225Y-66861413D01*
X71287225Y-66861413D02*
X71222176Y-66843983D01*
X71222176Y-66843983D02*
X71133318Y-66785314D01*
X71133318Y-66785314D02*
X71109508Y-66744075D01*
X71109508Y-66744075D02*
X71103128Y-66637786D01*
X71103128Y-66637786D02*
X71120558Y-66572738D01*
X71120558Y-66572738D02*
X71179227Y-66483879D01*
X71179227Y-66483879D02*
X71344184Y-66388641D01*
X71344184Y-66388641D02*
X71450473Y-66382261D01*
X71450473Y-66382261D02*
X71515521Y-66399691D01*
X71515521Y-66399691D02*
X71604380Y-66458360D01*
X71604380Y-66458360D02*
X71628189Y-66499600D01*
X71628189Y-66499600D02*
X71634569Y-66605888D01*
X71634569Y-66605888D02*
X71617139Y-66670937D01*
X71617139Y-66670937D02*
X71558470Y-66759795D01*
X71558470Y-66759795D02*
X71393513Y-66855033D01*
X71393513Y-66855033D02*
X71334844Y-66943891D01*
X71334844Y-66943891D02*
X71317414Y-67008940D01*
X71317414Y-67008940D02*
X71323794Y-67115228D01*
X71323794Y-67115228D02*
X71419032Y-67280186D01*
X71419032Y-67280186D02*
X71507890Y-67338855D01*
X71507890Y-67338855D02*
X71572939Y-67356284D01*
X71572939Y-67356284D02*
X71679227Y-67349905D01*
X71679227Y-67349905D02*
X71844184Y-67254667D01*
X71844184Y-67254667D02*
X71902854Y-67165808D01*
X71902854Y-67165808D02*
X71920283Y-67100759D01*
X71920283Y-67100759D02*
X71913904Y-66994471D01*
X71913904Y-66994471D02*
X71818666Y-66829514D01*
X71818666Y-66829514D02*
X71729807Y-66770845D01*
X71729807Y-66770845D02*
X71664758Y-66753415D01*
X71664758Y-66753415D02*
X71558470Y-66759795D01*
X72833928Y-66683238D02*
X72339056Y-66968952D01*
X72586492Y-66826095D02*
X72086492Y-65960070D01*
X72086492Y-65960070D02*
X72075442Y-66131407D01*
X72075442Y-66131407D02*
X72040582Y-66261504D01*
X72040582Y-66261504D02*
X71981913Y-66350363D01*
X72711461Y-65709215D02*
X72728891Y-65644166D01*
X72728891Y-65644166D02*
X72787560Y-65555308D01*
X72787560Y-65555308D02*
X72993757Y-65436260D01*
X72993757Y-65436260D02*
X73100045Y-65429880D01*
X73100045Y-65429880D02*
X73165094Y-65447310D01*
X73165094Y-65447310D02*
X73253952Y-65505979D01*
X73253952Y-65505979D02*
X73301571Y-65588458D01*
X73301571Y-65588458D02*
X73331760Y-65735985D01*
X73331760Y-65735985D02*
X73122603Y-66516571D01*
X73122603Y-66516571D02*
X73658714Y-66207047D01*
X73871290Y-66194288D02*
X74531119Y-65813336D01*
X74427792Y-65158177D02*
X74716467Y-64991510D01*
X75102090Y-65373714D02*
X74689697Y-65611809D01*
X74689697Y-65611809D02*
X74189697Y-64745784D01*
X74189697Y-64745784D02*
X74602090Y-64507689D01*
X75920496Y-64791235D02*
X75903067Y-64856284D01*
X75903067Y-64856284D02*
X75803158Y-64968952D01*
X75803158Y-64968952D02*
X75720680Y-65016571D01*
X75720680Y-65016571D02*
X75573152Y-65046760D01*
X75573152Y-65046760D02*
X75443054Y-65011901D01*
X75443054Y-65011901D02*
X75354196Y-64953232D01*
X75354196Y-64953232D02*
X75217719Y-64812084D01*
X75217719Y-64812084D02*
X75146290Y-64688366D01*
X75146290Y-64688366D02*
X75092291Y-64499599D01*
X75092291Y-64499599D02*
X75085912Y-64393311D01*
X75085912Y-64393311D02*
X75120771Y-64263214D01*
X75120771Y-64263214D02*
X75220680Y-64150546D01*
X75220680Y-64150546D02*
X75303158Y-64102927D01*
X75303158Y-64102927D02*
X75450686Y-64072737D01*
X75450686Y-64072737D02*
X75515734Y-64090167D01*
X76792901Y-64397523D02*
X76298030Y-64683238D01*
X76545466Y-64540381D02*
X76045466Y-63674355D01*
X76045466Y-63674355D02*
X76034416Y-63845692D01*
X76034416Y-63845692D02*
X75999556Y-63975790D01*
X75999556Y-63975790D02*
X75940887Y-64064648D01*
X77076448Y-63079117D02*
X76664055Y-63317212D01*
X76664055Y-63317212D02*
X76860911Y-63753415D01*
X76860911Y-63753415D02*
X76878341Y-63688366D01*
X76878341Y-63688366D02*
X76937010Y-63599508D01*
X76937010Y-63599508D02*
X77143207Y-63480460D01*
X77143207Y-63480460D02*
X77249495Y-63474080D01*
X77249495Y-63474080D02*
X77314544Y-63491510D01*
X77314544Y-63491510D02*
X77403402Y-63550179D01*
X77403402Y-63550179D02*
X77522450Y-63756376D01*
X77522450Y-63756376D02*
X77528829Y-63862664D01*
X77528829Y-63862664D02*
X77511400Y-63927713D01*
X77511400Y-63927713D02*
X77452730Y-64016571D01*
X77452730Y-64016571D02*
X77246534Y-64135619D01*
X77246534Y-64135619D02*
X77140246Y-64141998D01*
X77140246Y-64141998D02*
X77075197Y-64124569D01*
D12*
X72103752Y-64716154D02*
X71953752Y-64456346D01*
X71953752Y-64456346D02*
X72015611Y-64420632D01*
X72015611Y-64420632D02*
X72059869Y-64411575D01*
X72059869Y-64411575D02*
X72098898Y-64422033D01*
X72098898Y-64422033D02*
X72125556Y-64439634D01*
X72125556Y-64439634D02*
X72166499Y-64481978D01*
X72166499Y-64481978D02*
X72187927Y-64519094D01*
X72187927Y-64519094D02*
X72204127Y-64575724D01*
X72204127Y-64575724D02*
X72206041Y-64607610D01*
X72206041Y-64607610D02*
X72195583Y-64646639D01*
X72195583Y-64646639D02*
X72165611Y-64680440D01*
X72165611Y-64680440D02*
X72103752Y-64716154D01*
X72314960Y-64396264D02*
X72283074Y-64398178D01*
X72283074Y-64398178D02*
X72263559Y-64392949D01*
X72263559Y-64392949D02*
X72236902Y-64375348D01*
X72236902Y-64375348D02*
X72229759Y-64362976D01*
X72229759Y-64362976D02*
X72227845Y-64331090D01*
X72227845Y-64331090D02*
X72233074Y-64311575D01*
X72233074Y-64311575D02*
X72250675Y-64284918D01*
X72250675Y-64284918D02*
X72300162Y-64256346D01*
X72300162Y-64256346D02*
X72332048Y-64254432D01*
X72332048Y-64254432D02*
X72351563Y-64259661D01*
X72351563Y-64259661D02*
X72378220Y-64277262D01*
X72378220Y-64277262D02*
X72385363Y-64289634D01*
X72385363Y-64289634D02*
X72387277Y-64321520D01*
X72387277Y-64321520D02*
X72382048Y-64341035D01*
X72382048Y-64341035D02*
X72364448Y-64367693D01*
X72364448Y-64367693D02*
X72314960Y-64396264D01*
X72314960Y-64396264D02*
X72297360Y-64422921D01*
X72297360Y-64422921D02*
X72292131Y-64442436D01*
X72292131Y-64442436D02*
X72294045Y-64474323D01*
X72294045Y-64474323D02*
X72322616Y-64523810D01*
X72322616Y-64523810D02*
X72349274Y-64541410D01*
X72349274Y-64541410D02*
X72368788Y-64546639D01*
X72368788Y-64546639D02*
X72400675Y-64544725D01*
X72400675Y-64544725D02*
X72450162Y-64516154D01*
X72450162Y-64516154D02*
X72467763Y-64489496D01*
X72467763Y-64489496D02*
X72472992Y-64469982D01*
X72472992Y-64469982D02*
X72471078Y-64438095D01*
X72471078Y-64438095D02*
X72442506Y-64388608D01*
X72442506Y-64388608D02*
X72415849Y-64371008D01*
X72415849Y-64371008D02*
X72396334Y-64365779D01*
X72396334Y-64365779D02*
X72364448Y-64367693D01*
D10*
X82157200Y-73976190D02*
X82204819Y-73833333D01*
X82204819Y-73833333D02*
X82204819Y-73595238D01*
X82204819Y-73595238D02*
X82157200Y-73500000D01*
X82157200Y-73500000D02*
X82109580Y-73452381D01*
X82109580Y-73452381D02*
X82014342Y-73404762D01*
X82014342Y-73404762D02*
X81919104Y-73404762D01*
X81919104Y-73404762D02*
X81823866Y-73452381D01*
X81823866Y-73452381D02*
X81776247Y-73500000D01*
X81776247Y-73500000D02*
X81728628Y-73595238D01*
X81728628Y-73595238D02*
X81681009Y-73785714D01*
X81681009Y-73785714D02*
X81633390Y-73880952D01*
X81633390Y-73880952D02*
X81585771Y-73928571D01*
X81585771Y-73928571D02*
X81490533Y-73976190D01*
X81490533Y-73976190D02*
X81395295Y-73976190D01*
X81395295Y-73976190D02*
X81300057Y-73928571D01*
X81300057Y-73928571D02*
X81252438Y-73880952D01*
X81252438Y-73880952D02*
X81204819Y-73785714D01*
X81204819Y-73785714D02*
X81204819Y-73547619D01*
X81204819Y-73547619D02*
X81252438Y-73404762D01*
X82204819Y-72976190D02*
X81204819Y-72976190D01*
X82204819Y-72404762D02*
X81633390Y-72833333D01*
X81204819Y-72404762D02*
X81776247Y-72976190D01*
X81204819Y-71547619D02*
X81204819Y-71738095D01*
X81204819Y-71738095D02*
X81252438Y-71833333D01*
X81252438Y-71833333D02*
X81300057Y-71880952D01*
X81300057Y-71880952D02*
X81442914Y-71976190D01*
X81442914Y-71976190D02*
X81633390Y-72023809D01*
X81633390Y-72023809D02*
X82014342Y-72023809D01*
X82014342Y-72023809D02*
X82109580Y-71976190D01*
X82109580Y-71976190D02*
X82157200Y-71928571D01*
X82157200Y-71928571D02*
X82204819Y-71833333D01*
X82204819Y-71833333D02*
X82204819Y-71642857D01*
X82204819Y-71642857D02*
X82157200Y-71547619D01*
X82157200Y-71547619D02*
X82109580Y-71500000D01*
X82109580Y-71500000D02*
X82014342Y-71452381D01*
X82014342Y-71452381D02*
X81776247Y-71452381D01*
X81776247Y-71452381D02*
X81681009Y-71500000D01*
X81681009Y-71500000D02*
X81633390Y-71547619D01*
X81633390Y-71547619D02*
X81585771Y-71642857D01*
X81585771Y-71642857D02*
X81585771Y-71833333D01*
X81585771Y-71833333D02*
X81633390Y-71928571D01*
X81633390Y-71928571D02*
X81681009Y-71976190D01*
X81681009Y-71976190D02*
X81776247Y-72023809D01*
X81633390Y-70880952D02*
X81585771Y-70976190D01*
X81585771Y-70976190D02*
X81538152Y-71023809D01*
X81538152Y-71023809D02*
X81442914Y-71071428D01*
X81442914Y-71071428D02*
X81395295Y-71071428D01*
X81395295Y-71071428D02*
X81300057Y-71023809D01*
X81300057Y-71023809D02*
X81252438Y-70976190D01*
X81252438Y-70976190D02*
X81204819Y-70880952D01*
X81204819Y-70880952D02*
X81204819Y-70690476D01*
X81204819Y-70690476D02*
X81252438Y-70595238D01*
X81252438Y-70595238D02*
X81300057Y-70547619D01*
X81300057Y-70547619D02*
X81395295Y-70500000D01*
X81395295Y-70500000D02*
X81442914Y-70500000D01*
X81442914Y-70500000D02*
X81538152Y-70547619D01*
X81538152Y-70547619D02*
X81585771Y-70595238D01*
X81585771Y-70595238D02*
X81633390Y-70690476D01*
X81633390Y-70690476D02*
X81633390Y-70880952D01*
X81633390Y-70880952D02*
X81681009Y-70976190D01*
X81681009Y-70976190D02*
X81728628Y-71023809D01*
X81728628Y-71023809D02*
X81823866Y-71071428D01*
X81823866Y-71071428D02*
X82014342Y-71071428D01*
X82014342Y-71071428D02*
X82109580Y-71023809D01*
X82109580Y-71023809D02*
X82157200Y-70976190D01*
X82157200Y-70976190D02*
X82204819Y-70880952D01*
X82204819Y-70880952D02*
X82204819Y-70690476D01*
X82204819Y-70690476D02*
X82157200Y-70595238D01*
X82157200Y-70595238D02*
X82109580Y-70547619D01*
X82109580Y-70547619D02*
X82014342Y-70500000D01*
X82014342Y-70500000D02*
X81823866Y-70500000D01*
X81823866Y-70500000D02*
X81728628Y-70547619D01*
X81728628Y-70547619D02*
X81681009Y-70595238D01*
X81681009Y-70595238D02*
X81633390Y-70690476D01*
X82204819Y-69547619D02*
X82204819Y-70119047D01*
X82204819Y-69833333D02*
X81204819Y-69833333D01*
X81204819Y-69833333D02*
X81347676Y-69928571D01*
X81347676Y-69928571D02*
X81442914Y-70023809D01*
X81442914Y-70023809D02*
X81490533Y-70119047D01*
X81300057Y-69166666D02*
X81252438Y-69119047D01*
X81252438Y-69119047D02*
X81204819Y-69023809D01*
X81204819Y-69023809D02*
X81204819Y-68785714D01*
X81204819Y-68785714D02*
X81252438Y-68690476D01*
X81252438Y-68690476D02*
X81300057Y-68642857D01*
X81300057Y-68642857D02*
X81395295Y-68595238D01*
X81395295Y-68595238D02*
X81490533Y-68595238D01*
X81490533Y-68595238D02*
X81633390Y-68642857D01*
X81633390Y-68642857D02*
X82204819Y-69214285D01*
X82204819Y-69214285D02*
X82204819Y-68595238D01*
X82300057Y-68404762D02*
X82300057Y-67642857D01*
X81681009Y-67404761D02*
X81681009Y-67071428D01*
X82204819Y-66928571D02*
X82204819Y-67404761D01*
X82204819Y-67404761D02*
X81204819Y-67404761D01*
X81204819Y-67404761D02*
X81204819Y-66928571D01*
X82109580Y-65928571D02*
X82157200Y-65976190D01*
X82157200Y-65976190D02*
X82204819Y-66119047D01*
X82204819Y-66119047D02*
X82204819Y-66214285D01*
X82204819Y-66214285D02*
X82157200Y-66357142D01*
X82157200Y-66357142D02*
X82061961Y-66452380D01*
X82061961Y-66452380D02*
X81966723Y-66499999D01*
X81966723Y-66499999D02*
X81776247Y-66547618D01*
X81776247Y-66547618D02*
X81633390Y-66547618D01*
X81633390Y-66547618D02*
X81442914Y-66499999D01*
X81442914Y-66499999D02*
X81347676Y-66452380D01*
X81347676Y-66452380D02*
X81252438Y-66357142D01*
X81252438Y-66357142D02*
X81204819Y-66214285D01*
X81204819Y-66214285D02*
X81204819Y-66119047D01*
X81204819Y-66119047D02*
X81252438Y-65976190D01*
X81252438Y-65976190D02*
X81300057Y-65928571D01*
X82204819Y-64976190D02*
X82204819Y-65547618D01*
X82204819Y-65261904D02*
X81204819Y-65261904D01*
X81204819Y-65261904D02*
X81347676Y-65357142D01*
X81347676Y-65357142D02*
X81442914Y-65452380D01*
X81442914Y-65452380D02*
X81490533Y-65547618D01*
X81204819Y-64071428D02*
X81204819Y-64547618D01*
X81204819Y-64547618D02*
X81681009Y-64595237D01*
X81681009Y-64595237D02*
X81633390Y-64547618D01*
X81633390Y-64547618D02*
X81585771Y-64452380D01*
X81585771Y-64452380D02*
X81585771Y-64214285D01*
X81585771Y-64214285D02*
X81633390Y-64119047D01*
X81633390Y-64119047D02*
X81681009Y-64071428D01*
X81681009Y-64071428D02*
X81776247Y-64023809D01*
X81776247Y-64023809D02*
X82014342Y-64023809D01*
X82014342Y-64023809D02*
X82109580Y-64071428D01*
X82109580Y-64071428D02*
X82157200Y-64119047D01*
X82157200Y-64119047D02*
X82204819Y-64214285D01*
X82204819Y-64214285D02*
X82204819Y-64452380D01*
X82204819Y-64452380D02*
X82157200Y-64547618D01*
X82157200Y-64547618D02*
X82109580Y-64595237D01*
D12*
X80136185Y-69339285D02*
X79836185Y-69339285D01*
X79836185Y-69339285D02*
X79836185Y-69267856D01*
X79836185Y-69267856D02*
X79850471Y-69224999D01*
X79850471Y-69224999D02*
X79879042Y-69196428D01*
X79879042Y-69196428D02*
X79907614Y-69182142D01*
X79907614Y-69182142D02*
X79964757Y-69167856D01*
X79964757Y-69167856D02*
X80007614Y-69167856D01*
X80007614Y-69167856D02*
X80064757Y-69182142D01*
X80064757Y-69182142D02*
X80093328Y-69196428D01*
X80093328Y-69196428D02*
X80121900Y-69224999D01*
X80121900Y-69224999D02*
X80136185Y-69267856D01*
X80136185Y-69267856D02*
X80136185Y-69339285D01*
X80136185Y-68882142D02*
X80136185Y-69053571D01*
X80136185Y-68967856D02*
X79836185Y-68967856D01*
X79836185Y-68967856D02*
X79879042Y-68996428D01*
X79879042Y-68996428D02*
X79907614Y-69024999D01*
X79907614Y-69024999D02*
X79921900Y-69053571D01*
X79836185Y-68696428D02*
X79836185Y-68667857D01*
X79836185Y-68667857D02*
X79850471Y-68639285D01*
X79850471Y-68639285D02*
X79864757Y-68625000D01*
X79864757Y-68625000D02*
X79893328Y-68610714D01*
X79893328Y-68610714D02*
X79950471Y-68596428D01*
X79950471Y-68596428D02*
X80021900Y-68596428D01*
X80021900Y-68596428D02*
X80079042Y-68610714D01*
X80079042Y-68610714D02*
X80107614Y-68625000D01*
X80107614Y-68625000D02*
X80121900Y-68639285D01*
X80121900Y-68639285D02*
X80136185Y-68667857D01*
X80136185Y-68667857D02*
X80136185Y-68696428D01*
X80136185Y-68696428D02*
X80121900Y-68725000D01*
X80121900Y-68725000D02*
X80107614Y-68739285D01*
X80107614Y-68739285D02*
X80079042Y-68753571D01*
X80079042Y-68753571D02*
X80021900Y-68767857D01*
X80021900Y-68767857D02*
X79950471Y-68767857D01*
X79950471Y-68767857D02*
X79893328Y-68753571D01*
X79893328Y-68753571D02*
X79864757Y-68739285D01*
X79864757Y-68739285D02*
X79850471Y-68725000D01*
X79850471Y-68725000D02*
X79836185Y-68696428D01*
D10*
X66023809Y-62157200D02*
X66166666Y-62204819D01*
X66166666Y-62204819D02*
X66404761Y-62204819D01*
X66404761Y-62204819D02*
X66499999Y-62157200D01*
X66499999Y-62157200D02*
X66547618Y-62109580D01*
X66547618Y-62109580D02*
X66595237Y-62014342D01*
X66595237Y-62014342D02*
X66595237Y-61919104D01*
X66595237Y-61919104D02*
X66547618Y-61823866D01*
X66547618Y-61823866D02*
X66499999Y-61776247D01*
X66499999Y-61776247D02*
X66404761Y-61728628D01*
X66404761Y-61728628D02*
X66214285Y-61681009D01*
X66214285Y-61681009D02*
X66119047Y-61633390D01*
X66119047Y-61633390D02*
X66071428Y-61585771D01*
X66071428Y-61585771D02*
X66023809Y-61490533D01*
X66023809Y-61490533D02*
X66023809Y-61395295D01*
X66023809Y-61395295D02*
X66071428Y-61300057D01*
X66071428Y-61300057D02*
X66119047Y-61252438D01*
X66119047Y-61252438D02*
X66214285Y-61204819D01*
X66214285Y-61204819D02*
X66452380Y-61204819D01*
X66452380Y-61204819D02*
X66595237Y-61252438D01*
X67023809Y-62204819D02*
X67023809Y-61204819D01*
X67595237Y-62204819D02*
X67166666Y-61633390D01*
X67595237Y-61204819D02*
X67023809Y-61776247D01*
X68452380Y-61204819D02*
X68261904Y-61204819D01*
X68261904Y-61204819D02*
X68166666Y-61252438D01*
X68166666Y-61252438D02*
X68119047Y-61300057D01*
X68119047Y-61300057D02*
X68023809Y-61442914D01*
X68023809Y-61442914D02*
X67976190Y-61633390D01*
X67976190Y-61633390D02*
X67976190Y-62014342D01*
X67976190Y-62014342D02*
X68023809Y-62109580D01*
X68023809Y-62109580D02*
X68071428Y-62157200D01*
X68071428Y-62157200D02*
X68166666Y-62204819D01*
X68166666Y-62204819D02*
X68357142Y-62204819D01*
X68357142Y-62204819D02*
X68452380Y-62157200D01*
X68452380Y-62157200D02*
X68499999Y-62109580D01*
X68499999Y-62109580D02*
X68547618Y-62014342D01*
X68547618Y-62014342D02*
X68547618Y-61776247D01*
X68547618Y-61776247D02*
X68499999Y-61681009D01*
X68499999Y-61681009D02*
X68452380Y-61633390D01*
X68452380Y-61633390D02*
X68357142Y-61585771D01*
X68357142Y-61585771D02*
X68166666Y-61585771D01*
X68166666Y-61585771D02*
X68071428Y-61633390D01*
X68071428Y-61633390D02*
X68023809Y-61681009D01*
X68023809Y-61681009D02*
X67976190Y-61776247D01*
X69119047Y-61633390D02*
X69023809Y-61585771D01*
X69023809Y-61585771D02*
X68976190Y-61538152D01*
X68976190Y-61538152D02*
X68928571Y-61442914D01*
X68928571Y-61442914D02*
X68928571Y-61395295D01*
X68928571Y-61395295D02*
X68976190Y-61300057D01*
X68976190Y-61300057D02*
X69023809Y-61252438D01*
X69023809Y-61252438D02*
X69119047Y-61204819D01*
X69119047Y-61204819D02*
X69309523Y-61204819D01*
X69309523Y-61204819D02*
X69404761Y-61252438D01*
X69404761Y-61252438D02*
X69452380Y-61300057D01*
X69452380Y-61300057D02*
X69499999Y-61395295D01*
X69499999Y-61395295D02*
X69499999Y-61442914D01*
X69499999Y-61442914D02*
X69452380Y-61538152D01*
X69452380Y-61538152D02*
X69404761Y-61585771D01*
X69404761Y-61585771D02*
X69309523Y-61633390D01*
X69309523Y-61633390D02*
X69119047Y-61633390D01*
X69119047Y-61633390D02*
X69023809Y-61681009D01*
X69023809Y-61681009D02*
X68976190Y-61728628D01*
X68976190Y-61728628D02*
X68928571Y-61823866D01*
X68928571Y-61823866D02*
X68928571Y-62014342D01*
X68928571Y-62014342D02*
X68976190Y-62109580D01*
X68976190Y-62109580D02*
X69023809Y-62157200D01*
X69023809Y-62157200D02*
X69119047Y-62204819D01*
X69119047Y-62204819D02*
X69309523Y-62204819D01*
X69309523Y-62204819D02*
X69404761Y-62157200D01*
X69404761Y-62157200D02*
X69452380Y-62109580D01*
X69452380Y-62109580D02*
X69499999Y-62014342D01*
X69499999Y-62014342D02*
X69499999Y-61823866D01*
X69499999Y-61823866D02*
X69452380Y-61728628D01*
X69452380Y-61728628D02*
X69404761Y-61681009D01*
X69404761Y-61681009D02*
X69309523Y-61633390D01*
X70452380Y-62204819D02*
X69880952Y-62204819D01*
X70166666Y-62204819D02*
X70166666Y-61204819D01*
X70166666Y-61204819D02*
X70071428Y-61347676D01*
X70071428Y-61347676D02*
X69976190Y-61442914D01*
X69976190Y-61442914D02*
X69880952Y-61490533D01*
X70833333Y-61300057D02*
X70880952Y-61252438D01*
X70880952Y-61252438D02*
X70976190Y-61204819D01*
X70976190Y-61204819D02*
X71214285Y-61204819D01*
X71214285Y-61204819D02*
X71309523Y-61252438D01*
X71309523Y-61252438D02*
X71357142Y-61300057D01*
X71357142Y-61300057D02*
X71404761Y-61395295D01*
X71404761Y-61395295D02*
X71404761Y-61490533D01*
X71404761Y-61490533D02*
X71357142Y-61633390D01*
X71357142Y-61633390D02*
X70785714Y-62204819D01*
X70785714Y-62204819D02*
X71404761Y-62204819D01*
X71595238Y-62300057D02*
X72357142Y-62300057D01*
X72595238Y-61681009D02*
X72928571Y-61681009D01*
X73071428Y-62204819D02*
X72595238Y-62204819D01*
X72595238Y-62204819D02*
X72595238Y-61204819D01*
X72595238Y-61204819D02*
X73071428Y-61204819D01*
X74071428Y-62109580D02*
X74023809Y-62157200D01*
X74023809Y-62157200D02*
X73880952Y-62204819D01*
X73880952Y-62204819D02*
X73785714Y-62204819D01*
X73785714Y-62204819D02*
X73642857Y-62157200D01*
X73642857Y-62157200D02*
X73547619Y-62061961D01*
X73547619Y-62061961D02*
X73500000Y-61966723D01*
X73500000Y-61966723D02*
X73452381Y-61776247D01*
X73452381Y-61776247D02*
X73452381Y-61633390D01*
X73452381Y-61633390D02*
X73500000Y-61442914D01*
X73500000Y-61442914D02*
X73547619Y-61347676D01*
X73547619Y-61347676D02*
X73642857Y-61252438D01*
X73642857Y-61252438D02*
X73785714Y-61204819D01*
X73785714Y-61204819D02*
X73880952Y-61204819D01*
X73880952Y-61204819D02*
X74023809Y-61252438D01*
X74023809Y-61252438D02*
X74071428Y-61300057D01*
X75023809Y-62204819D02*
X74452381Y-62204819D01*
X74738095Y-62204819D02*
X74738095Y-61204819D01*
X74738095Y-61204819D02*
X74642857Y-61347676D01*
X74642857Y-61347676D02*
X74547619Y-61442914D01*
X74547619Y-61442914D02*
X74452381Y-61490533D01*
X75928571Y-61204819D02*
X75452381Y-61204819D01*
X75452381Y-61204819D02*
X75404762Y-61681009D01*
X75404762Y-61681009D02*
X75452381Y-61633390D01*
X75452381Y-61633390D02*
X75547619Y-61585771D01*
X75547619Y-61585771D02*
X75785714Y-61585771D01*
X75785714Y-61585771D02*
X75880952Y-61633390D01*
X75880952Y-61633390D02*
X75928571Y-61681009D01*
X75928571Y-61681009D02*
X75976190Y-61776247D01*
X75976190Y-61776247D02*
X75976190Y-62014342D01*
X75976190Y-62014342D02*
X75928571Y-62109580D01*
X75928571Y-62109580D02*
X75880952Y-62157200D01*
X75880952Y-62157200D02*
X75785714Y-62204819D01*
X75785714Y-62204819D02*
X75547619Y-62204819D01*
X75547619Y-62204819D02*
X75452381Y-62157200D01*
X75452381Y-62157200D02*
X75404762Y-62109580D01*
D12*
X70803571Y-60136185D02*
X70803571Y-59836185D01*
X70803571Y-59836185D02*
X70875000Y-59836185D01*
X70875000Y-59836185D02*
X70917857Y-59850471D01*
X70917857Y-59850471D02*
X70946428Y-59879042D01*
X70946428Y-59879042D02*
X70960714Y-59907614D01*
X70960714Y-59907614D02*
X70975000Y-59964757D01*
X70975000Y-59964757D02*
X70975000Y-60007614D01*
X70975000Y-60007614D02*
X70960714Y-60064757D01*
X70960714Y-60064757D02*
X70946428Y-60093328D01*
X70946428Y-60093328D02*
X70917857Y-60121900D01*
X70917857Y-60121900D02*
X70875000Y-60136185D01*
X70875000Y-60136185D02*
X70803571Y-60136185D01*
X71075000Y-59836185D02*
X71275000Y-59836185D01*
X71275000Y-59836185D02*
X71146428Y-60136185D01*
D10*
X66817663Y-54880094D02*
X66917571Y-54992762D01*
X66917571Y-54992762D02*
X67123768Y-55111809D01*
X67123768Y-55111809D02*
X67230056Y-55118189D01*
X67230056Y-55118189D02*
X67295105Y-55100759D01*
X67295105Y-55100759D02*
X67383963Y-55042090D01*
X67383963Y-55042090D02*
X67431582Y-54959611D01*
X67431582Y-54959611D02*
X67437962Y-54853323D01*
X67437962Y-54853323D02*
X67420532Y-54788274D01*
X67420532Y-54788274D02*
X67361863Y-54699416D01*
X67361863Y-54699416D02*
X67220715Y-54562939D01*
X67220715Y-54562939D02*
X67162046Y-54474080D01*
X67162046Y-54474080D02*
X67144616Y-54409032D01*
X67144616Y-54409032D02*
X67150996Y-54302743D01*
X67150996Y-54302743D02*
X67198615Y-54220265D01*
X67198615Y-54220265D02*
X67287474Y-54161596D01*
X67287474Y-54161596D02*
X67352522Y-54144166D01*
X67352522Y-54144166D02*
X67458811Y-54150546D01*
X67458811Y-54150546D02*
X67665007Y-54269593D01*
X67665007Y-54269593D02*
X67764915Y-54382261D01*
X67659879Y-55421333D02*
X68159879Y-54555308D01*
X68154750Y-55707047D02*
X68069311Y-54997890D01*
X68654750Y-54841022D02*
X67874164Y-55050179D01*
X69397058Y-55269593D02*
X69232101Y-55174355D01*
X69232101Y-55174355D02*
X69125813Y-55167975D01*
X69125813Y-55167975D02*
X69060764Y-55185405D01*
X69060764Y-55185405D02*
X68906857Y-55261504D01*
X68906857Y-55261504D02*
X68770379Y-55402652D01*
X68770379Y-55402652D02*
X68579903Y-55732566D01*
X68579903Y-55732566D02*
X68573523Y-55838854D01*
X68573523Y-55838854D02*
X68590953Y-55903903D01*
X68590953Y-55903903D02*
X68649622Y-55992762D01*
X68649622Y-55992762D02*
X68814579Y-56088000D01*
X68814579Y-56088000D02*
X68920867Y-56094379D01*
X68920867Y-56094379D02*
X68985916Y-56076950D01*
X68985916Y-56076950D02*
X69074775Y-56018281D01*
X69074775Y-56018281D02*
X69193822Y-55812084D01*
X69193822Y-55812084D02*
X69200202Y-55705796D01*
X69200202Y-55705796D02*
X69182772Y-55640747D01*
X69182772Y-55640747D02*
X69124103Y-55551889D01*
X69124103Y-55551889D02*
X68959146Y-55456651D01*
X68959146Y-55456651D02*
X68852858Y-55450271D01*
X68852858Y-55450271D02*
X68787809Y-55467701D01*
X68787809Y-55467701D02*
X68698951Y-55526370D01*
X69760123Y-55974080D02*
X69701453Y-55885222D01*
X69701453Y-55885222D02*
X69684024Y-55820173D01*
X69684024Y-55820173D02*
X69690403Y-55713885D01*
X69690403Y-55713885D02*
X69714213Y-55672646D01*
X69714213Y-55672646D02*
X69803071Y-55613977D01*
X69803071Y-55613977D02*
X69868120Y-55596547D01*
X69868120Y-55596547D02*
X69974408Y-55602927D01*
X69974408Y-55602927D02*
X70139365Y-55698165D01*
X70139365Y-55698165D02*
X70198035Y-55787023D01*
X70198035Y-55787023D02*
X70215464Y-55852072D01*
X70215464Y-55852072D02*
X70209085Y-55958360D01*
X70209085Y-55958360D02*
X70185275Y-55999599D01*
X70185275Y-55999599D02*
X70096417Y-56058268D01*
X70096417Y-56058268D02*
X70031368Y-56075698D01*
X70031368Y-56075698D02*
X69925080Y-56069318D01*
X69925080Y-56069318D02*
X69760123Y-55974080D01*
X69760123Y-55974080D02*
X69653834Y-55967701D01*
X69653834Y-55967701D02*
X69588786Y-55985130D01*
X69588786Y-55985130D02*
X69499927Y-56043800D01*
X69499927Y-56043800D02*
X69404689Y-56208757D01*
X69404689Y-56208757D02*
X69398309Y-56315045D01*
X69398309Y-56315045D02*
X69415739Y-56380094D01*
X69415739Y-56380094D02*
X69474408Y-56468952D01*
X69474408Y-56468952D02*
X69639365Y-56564190D01*
X69639365Y-56564190D02*
X69745654Y-56570570D01*
X69745654Y-56570570D02*
X69810702Y-56553140D01*
X69810702Y-56553140D02*
X69899561Y-56494471D01*
X69899561Y-56494471D02*
X69994799Y-56329514D01*
X69994799Y-56329514D02*
X70001179Y-56223226D01*
X70001179Y-56223226D02*
X69983749Y-56158177D01*
X69983749Y-56158177D02*
X69925080Y-56069318D01*
X70629109Y-57135619D02*
X70134237Y-56849904D01*
X70381673Y-56992762D02*
X70881673Y-56126736D01*
X70881673Y-56126736D02*
X70727766Y-56202835D01*
X70727766Y-56202835D02*
X70597668Y-56237695D01*
X70597668Y-56237695D02*
X70491380Y-56231315D01*
X71411404Y-56542548D02*
X71476453Y-56525118D01*
X71476453Y-56525118D02*
X71582741Y-56531498D01*
X71582741Y-56531498D02*
X71788938Y-56650546D01*
X71788938Y-56650546D02*
X71847607Y-56739404D01*
X71847607Y-56739404D02*
X71865037Y-56804453D01*
X71865037Y-56804453D02*
X71858657Y-56910741D01*
X71858657Y-56910741D02*
X71811038Y-56993220D01*
X71811038Y-56993220D02*
X71698370Y-57093128D01*
X71698370Y-57093128D02*
X70917784Y-57302285D01*
X70917784Y-57302285D02*
X71453895Y-57611809D01*
X71571233Y-57789526D02*
X72231062Y-58170478D01*
X72746783Y-57753415D02*
X73035458Y-57920082D01*
X72897271Y-58445143D02*
X72484878Y-58207047D01*
X72484878Y-58207047D02*
X72984878Y-57341022D01*
X72984878Y-57341022D02*
X73397271Y-57579117D01*
X73810915Y-58862664D02*
X73745867Y-58880094D01*
X73745867Y-58880094D02*
X73598339Y-58849905D01*
X73598339Y-58849905D02*
X73515861Y-58802286D01*
X73515861Y-58802286D02*
X73415952Y-58689618D01*
X73415952Y-58689618D02*
X73381093Y-58559520D01*
X73381093Y-58559520D02*
X73387472Y-58453232D01*
X73387472Y-58453232D02*
X73441471Y-58264465D01*
X73441471Y-58264465D02*
X73512900Y-58140747D01*
X73512900Y-58140747D02*
X73649377Y-57999600D01*
X73649377Y-57999600D02*
X73738235Y-57940931D01*
X73738235Y-57940931D02*
X73868333Y-57906071D01*
X73868333Y-57906071D02*
X74015861Y-57936260D01*
X74015861Y-57936260D02*
X74098339Y-57983879D01*
X74098339Y-57983879D02*
X74198248Y-58096547D01*
X74198248Y-58096547D02*
X74215677Y-58161596D01*
X74588082Y-59421333D02*
X74093211Y-59135619D01*
X74340647Y-59278476D02*
X74840647Y-58412451D01*
X74840647Y-58412451D02*
X74686739Y-58488550D01*
X74686739Y-58488550D02*
X74556642Y-58523409D01*
X74556642Y-58523409D02*
X74450354Y-58517029D01*
X75871629Y-59007689D02*
X75459236Y-58769594D01*
X75459236Y-58769594D02*
X75179902Y-59158177D01*
X75179902Y-59158177D02*
X75244951Y-59140747D01*
X75244951Y-59140747D02*
X75351239Y-59147127D01*
X75351239Y-59147127D02*
X75557435Y-59266175D01*
X75557435Y-59266175D02*
X75616104Y-59355033D01*
X75616104Y-59355033D02*
X75633534Y-59420082D01*
X75633534Y-59420082D02*
X75627154Y-59526370D01*
X75627154Y-59526370D02*
X75508107Y-59732567D01*
X75508107Y-59732567D02*
X75419248Y-59791236D01*
X75419248Y-59791236D02*
X75354200Y-59808665D01*
X75354200Y-59808665D02*
X75247911Y-59802286D01*
X75247911Y-59802286D02*
X75041715Y-59683238D01*
X75041715Y-59683238D02*
X74983046Y-59594380D01*
X74983046Y-59594380D02*
X74965616Y-59529331D01*
D12*
X71967566Y-55519726D02*
X72117566Y-55259918D01*
X72117566Y-55259918D02*
X72179425Y-55295632D01*
X72179425Y-55295632D02*
X72209397Y-55329433D01*
X72209397Y-55329433D02*
X72219855Y-55368462D01*
X72219855Y-55368462D02*
X72217941Y-55400348D01*
X72217941Y-55400348D02*
X72201742Y-55456978D01*
X72201742Y-55456978D02*
X72180313Y-55494094D01*
X72180313Y-55494094D02*
X72139370Y-55536438D01*
X72139370Y-55536438D02*
X72112712Y-55554039D01*
X72112712Y-55554039D02*
X72073683Y-55564497D01*
X72073683Y-55564497D02*
X72029425Y-55555440D01*
X72029425Y-55555440D02*
X71967566Y-55519726D01*
X72488720Y-55474204D02*
X72439233Y-55445632D01*
X72439233Y-55445632D02*
X72407346Y-55443718D01*
X72407346Y-55443718D02*
X72387831Y-55448947D01*
X72387831Y-55448947D02*
X72341659Y-55471777D01*
X72341659Y-55471777D02*
X72300716Y-55514121D01*
X72300716Y-55514121D02*
X72243573Y-55613096D01*
X72243573Y-55613096D02*
X72241659Y-55644982D01*
X72241659Y-55644982D02*
X72246888Y-55664497D01*
X72246888Y-55664497D02*
X72264489Y-55691154D01*
X72264489Y-55691154D02*
X72313976Y-55719726D01*
X72313976Y-55719726D02*
X72345863Y-55721639D01*
X72345863Y-55721639D02*
X72365377Y-55716411D01*
X72365377Y-55716411D02*
X72392035Y-55698810D01*
X72392035Y-55698810D02*
X72427749Y-55636951D01*
X72427749Y-55636951D02*
X72429663Y-55605064D01*
X72429663Y-55605064D02*
X72424434Y-55585550D01*
X72424434Y-55585550D02*
X72406833Y-55558892D01*
X72406833Y-55558892D02*
X72357346Y-55530321D01*
X72357346Y-55530321D02*
X72325460Y-55528407D01*
X72325460Y-55528407D02*
X72305945Y-55533636D01*
X72305945Y-55533636D02*
X72279288Y-55551237D01*
D10*
X77619047Y-50431009D02*
X77285714Y-50431009D01*
X77285714Y-50954819D02*
X77285714Y-49954819D01*
X77285714Y-49954819D02*
X77761904Y-49954819D01*
X78142857Y-50954819D02*
X78142857Y-50288152D01*
X78142857Y-49954819D02*
X78095238Y-50002438D01*
X78095238Y-50002438D02*
X78142857Y-50050057D01*
X78142857Y-50050057D02*
X78190476Y-50002438D01*
X78190476Y-50002438D02*
X78142857Y-49954819D01*
X78142857Y-49954819D02*
X78142857Y-50050057D01*
X79047618Y-50954819D02*
X79047618Y-49954819D01*
X79047618Y-50907200D02*
X78952380Y-50954819D01*
X78952380Y-50954819D02*
X78761904Y-50954819D01*
X78761904Y-50954819D02*
X78666666Y-50907200D01*
X78666666Y-50907200D02*
X78619047Y-50859580D01*
X78619047Y-50859580D02*
X78571428Y-50764342D01*
X78571428Y-50764342D02*
X78571428Y-50478628D01*
X78571428Y-50478628D02*
X78619047Y-50383390D01*
X78619047Y-50383390D02*
X78666666Y-50335771D01*
X78666666Y-50335771D02*
X78761904Y-50288152D01*
X78761904Y-50288152D02*
X78952380Y-50288152D01*
X78952380Y-50288152D02*
X79047618Y-50335771D01*
X79952380Y-50288152D02*
X79952380Y-50954819D01*
X79523809Y-50288152D02*
X79523809Y-50811961D01*
X79523809Y-50811961D02*
X79571428Y-50907200D01*
X79571428Y-50907200D02*
X79666666Y-50954819D01*
X79666666Y-50954819D02*
X79809523Y-50954819D01*
X79809523Y-50954819D02*
X79904761Y-50907200D01*
X79904761Y-50907200D02*
X79952380Y-50859580D01*
X80857142Y-50907200D02*
X80761904Y-50954819D01*
X80761904Y-50954819D02*
X80571428Y-50954819D01*
X80571428Y-50954819D02*
X80476190Y-50907200D01*
X80476190Y-50907200D02*
X80428571Y-50859580D01*
X80428571Y-50859580D02*
X80380952Y-50764342D01*
X80380952Y-50764342D02*
X80380952Y-50478628D01*
X80380952Y-50478628D02*
X80428571Y-50383390D01*
X80428571Y-50383390D02*
X80476190Y-50335771D01*
X80476190Y-50335771D02*
X80571428Y-50288152D01*
X80571428Y-50288152D02*
X80761904Y-50288152D01*
X80761904Y-50288152D02*
X80857142Y-50335771D01*
X81285714Y-50954819D02*
X81285714Y-50288152D01*
X81285714Y-49954819D02*
X81238095Y-50002438D01*
X81238095Y-50002438D02*
X81285714Y-50050057D01*
X81285714Y-50050057D02*
X81333333Y-50002438D01*
X81333333Y-50002438D02*
X81285714Y-49954819D01*
X81285714Y-49954819D02*
X81285714Y-50050057D01*
X82190475Y-50954819D02*
X82190475Y-50431009D01*
X82190475Y-50431009D02*
X82142856Y-50335771D01*
X82142856Y-50335771D02*
X82047618Y-50288152D01*
X82047618Y-50288152D02*
X81857142Y-50288152D01*
X81857142Y-50288152D02*
X81761904Y-50335771D01*
X82190475Y-50907200D02*
X82095237Y-50954819D01*
X82095237Y-50954819D02*
X81857142Y-50954819D01*
X81857142Y-50954819D02*
X81761904Y-50907200D01*
X81761904Y-50907200D02*
X81714285Y-50811961D01*
X81714285Y-50811961D02*
X81714285Y-50716723D01*
X81714285Y-50716723D02*
X81761904Y-50621485D01*
X81761904Y-50621485D02*
X81857142Y-50573866D01*
X81857142Y-50573866D02*
X82095237Y-50573866D01*
X82095237Y-50573866D02*
X82190475Y-50526247D01*
X82809523Y-50954819D02*
X82714285Y-50907200D01*
X82714285Y-50907200D02*
X82666666Y-50811961D01*
X82666666Y-50811961D02*
X82666666Y-49954819D01*
D11*
X79785714Y-48985681D02*
X79719048Y-48985681D01*
X79719048Y-49090443D02*
X79719048Y-48890443D01*
X79719048Y-48890443D02*
X79814286Y-48890443D01*
X79890477Y-49090443D02*
X79890477Y-48890443D01*
X79985715Y-49090443D02*
X79985715Y-48890443D01*
X79985715Y-48890443D02*
X80033334Y-48890443D01*
X80033334Y-48890443D02*
X80061905Y-48899967D01*
X80061905Y-48899967D02*
X80080953Y-48919015D01*
X80080953Y-48919015D02*
X80090476Y-48938062D01*
X80090476Y-48938062D02*
X80100000Y-48976158D01*
X80100000Y-48976158D02*
X80100000Y-49004729D01*
X80100000Y-49004729D02*
X80090476Y-49042824D01*
X80090476Y-49042824D02*
X80080953Y-49061872D01*
X80080953Y-49061872D02*
X80061905Y-49080920D01*
X80061905Y-49080920D02*
X80033334Y-49090443D01*
X80033334Y-49090443D02*
X79985715Y-49090443D01*
X80290476Y-49090443D02*
X80176191Y-49090443D01*
X80233334Y-49090443D02*
X80233334Y-48890443D01*
X80233334Y-48890443D02*
X80214286Y-48919015D01*
X80214286Y-48919015D02*
X80195238Y-48938062D01*
X80195238Y-48938062D02*
X80176191Y-48947586D01*
D10*
X70404761Y-63004819D02*
X69833333Y-63004819D01*
X70119047Y-63004819D02*
X70119047Y-62004819D01*
X70119047Y-62004819D02*
X70023809Y-62147676D01*
X70023809Y-62147676D02*
X69928571Y-62242914D01*
X69928571Y-62242914D02*
X69833333Y-62290533D01*
X71261904Y-62338152D02*
X71261904Y-63004819D01*
X70833333Y-62338152D02*
X70833333Y-62861961D01*
X70833333Y-62861961D02*
X70880952Y-62957200D01*
X70880952Y-62957200D02*
X70976190Y-63004819D01*
X70976190Y-63004819D02*
X71119047Y-63004819D01*
X71119047Y-63004819D02*
X71214285Y-62957200D01*
X71214285Y-62957200D02*
X71261904Y-62909580D01*
X72071428Y-62481009D02*
X71738095Y-62481009D01*
X71738095Y-63004819D02*
X71738095Y-62004819D01*
X71738095Y-62004819D02*
X72214285Y-62004819D01*
D11*
X70958333Y-60909765D02*
X70946429Y-60921670D01*
X70946429Y-60921670D02*
X70910714Y-60933574D01*
X70910714Y-60933574D02*
X70886905Y-60933574D01*
X70886905Y-60933574D02*
X70851191Y-60921670D01*
X70851191Y-60921670D02*
X70827381Y-60897860D01*
X70827381Y-60897860D02*
X70815476Y-60874050D01*
X70815476Y-60874050D02*
X70803572Y-60826431D01*
X70803572Y-60826431D02*
X70803572Y-60790717D01*
X70803572Y-60790717D02*
X70815476Y-60743098D01*
X70815476Y-60743098D02*
X70827381Y-60719289D01*
X70827381Y-60719289D02*
X70851191Y-60695479D01*
X70851191Y-60695479D02*
X70886905Y-60683574D01*
X70886905Y-60683574D02*
X70910714Y-60683574D01*
X70910714Y-60683574D02*
X70946429Y-60695479D01*
X70946429Y-60695479D02*
X70958333Y-60707384D01*
X71041667Y-60683574D02*
X71208333Y-60683574D01*
X71208333Y-60683574D02*
X71101191Y-60933574D01*
D10*
X90504819Y-59914285D02*
X90504819Y-60485713D01*
X90504819Y-60199999D02*
X89504819Y-60199999D01*
X89504819Y-60199999D02*
X89647676Y-60295237D01*
X89647676Y-60295237D02*
X89742914Y-60390475D01*
X89742914Y-60390475D02*
X89790533Y-60485713D01*
X90504819Y-59485713D02*
X89504819Y-59485713D01*
X89504819Y-59485713D02*
X90504819Y-58914285D01*
X90504819Y-58914285D02*
X89504819Y-58914285D01*
X89838152Y-58009523D02*
X90504819Y-58009523D01*
X89457200Y-58247618D02*
X90171485Y-58485713D01*
X90171485Y-58485713D02*
X90171485Y-57866666D01*
X90504819Y-56961904D02*
X90504819Y-57533332D01*
X90504819Y-57247618D02*
X89504819Y-57247618D01*
X89504819Y-57247618D02*
X89647676Y-57342856D01*
X89647676Y-57342856D02*
X89742914Y-57438094D01*
X89742914Y-57438094D02*
X89790533Y-57533332D01*
X89838152Y-56104761D02*
X90504819Y-56104761D01*
X89457200Y-56342856D02*
X90171485Y-56580951D01*
X90171485Y-56580951D02*
X90171485Y-55961904D01*
X89933390Y-55438094D02*
X89885771Y-55533332D01*
X89885771Y-55533332D02*
X89838152Y-55580951D01*
X89838152Y-55580951D02*
X89742914Y-55628570D01*
X89742914Y-55628570D02*
X89695295Y-55628570D01*
X89695295Y-55628570D02*
X89600057Y-55580951D01*
X89600057Y-55580951D02*
X89552438Y-55533332D01*
X89552438Y-55533332D02*
X89504819Y-55438094D01*
X89504819Y-55438094D02*
X89504819Y-55247618D01*
X89504819Y-55247618D02*
X89552438Y-55152380D01*
X89552438Y-55152380D02*
X89600057Y-55104761D01*
X89600057Y-55104761D02*
X89695295Y-55057142D01*
X89695295Y-55057142D02*
X89742914Y-55057142D01*
X89742914Y-55057142D02*
X89838152Y-55104761D01*
X89838152Y-55104761D02*
X89885771Y-55152380D01*
X89885771Y-55152380D02*
X89933390Y-55247618D01*
X89933390Y-55247618D02*
X89933390Y-55438094D01*
X89933390Y-55438094D02*
X89981009Y-55533332D01*
X89981009Y-55533332D02*
X90028628Y-55580951D01*
X90028628Y-55580951D02*
X90123866Y-55628570D01*
X90123866Y-55628570D02*
X90314342Y-55628570D01*
X90314342Y-55628570D02*
X90409580Y-55580951D01*
X90409580Y-55580951D02*
X90457200Y-55533332D01*
X90457200Y-55533332D02*
X90504819Y-55438094D01*
X90504819Y-55438094D02*
X90504819Y-55247618D01*
X90504819Y-55247618D02*
X90457200Y-55152380D01*
X90457200Y-55152380D02*
X90409580Y-55104761D01*
X90409580Y-55104761D02*
X90314342Y-55057142D01*
X90314342Y-55057142D02*
X90123866Y-55057142D01*
X90123866Y-55057142D02*
X90028628Y-55104761D01*
X90028628Y-55104761D02*
X89981009Y-55152380D01*
X89981009Y-55152380D02*
X89933390Y-55247618D01*
X89504819Y-54723808D02*
X90504819Y-54485713D01*
X90504819Y-54485713D02*
X89790533Y-54295237D01*
X89790533Y-54295237D02*
X90504819Y-54104761D01*
X90504819Y-54104761D02*
X89504819Y-53866666D01*
X88104819Y-58414285D02*
X87104819Y-58414285D01*
X87104819Y-58414285D02*
X87104819Y-58176190D01*
X87104819Y-58176190D02*
X87152438Y-58033333D01*
X87152438Y-58033333D02*
X87247676Y-57938095D01*
X87247676Y-57938095D02*
X87342914Y-57890476D01*
X87342914Y-57890476D02*
X87533390Y-57842857D01*
X87533390Y-57842857D02*
X87676247Y-57842857D01*
X87676247Y-57842857D02*
X87866723Y-57890476D01*
X87866723Y-57890476D02*
X87961961Y-57938095D01*
X87961961Y-57938095D02*
X88057200Y-58033333D01*
X88057200Y-58033333D02*
X88104819Y-58176190D01*
X88104819Y-58176190D02*
X88104819Y-58414285D01*
X88104819Y-56890476D02*
X88104819Y-57461904D01*
X88104819Y-57176190D02*
X87104819Y-57176190D01*
X87104819Y-57176190D02*
X87247676Y-57271428D01*
X87247676Y-57271428D02*
X87342914Y-57366666D01*
X87342914Y-57366666D02*
X87390533Y-57461904D01*
X87104819Y-56557142D02*
X87104819Y-55938095D01*
X87104819Y-55938095D02*
X87485771Y-56271428D01*
X87485771Y-56271428D02*
X87485771Y-56128571D01*
X87485771Y-56128571D02*
X87533390Y-56033333D01*
X87533390Y-56033333D02*
X87581009Y-55985714D01*
X87581009Y-55985714D02*
X87676247Y-55938095D01*
X87676247Y-55938095D02*
X87914342Y-55938095D01*
X87914342Y-55938095D02*
X88009580Y-55985714D01*
X88009580Y-55985714D02*
X88057200Y-56033333D01*
X88057200Y-56033333D02*
X88104819Y-56128571D01*
X88104819Y-56128571D02*
X88104819Y-56414285D01*
X88104819Y-56414285D02*
X88057200Y-56509523D01*
X88057200Y-56509523D02*
X88009580Y-56557142D01*
X73236918Y-67350830D02*
X72742046Y-67636545D01*
X72989482Y-67493688D02*
X72489482Y-66627662D01*
X72489482Y-66627662D02*
X72478432Y-66798999D01*
X72478432Y-66798999D02*
X72443572Y-66929097D01*
X72443572Y-66929097D02*
X72384903Y-67017955D01*
X73645892Y-66344909D02*
X73979225Y-66922259D01*
X73274738Y-66559194D02*
X73536643Y-67012827D01*
X73536643Y-67012827D02*
X73625501Y-67071496D01*
X73625501Y-67071496D02*
X73731789Y-67065116D01*
X73731789Y-67065116D02*
X73855507Y-66993688D01*
X73855507Y-66993688D02*
X73914176Y-66904829D01*
X73914176Y-66904829D02*
X73931606Y-66839780D01*
X74418389Y-66063865D02*
X74129713Y-66230531D01*
X74391618Y-66684164D02*
X73891618Y-65818138D01*
X73891618Y-65818138D02*
X74304011Y-65580043D01*
D11*
X72668798Y-65259675D02*
X72664441Y-65275937D01*
X72664441Y-65275937D02*
X72639464Y-65304104D01*
X72639464Y-65304104D02*
X72618844Y-65316008D01*
X72618844Y-65316008D02*
X72581962Y-65323556D01*
X72581962Y-65323556D02*
X72549438Y-65314841D01*
X72549438Y-65314841D02*
X72527223Y-65300174D01*
X72527223Y-65300174D02*
X72493104Y-65264887D01*
X72493104Y-65264887D02*
X72475247Y-65233957D01*
X72475247Y-65233957D02*
X72461747Y-65186766D01*
X72461747Y-65186766D02*
X72460152Y-65160193D01*
X72460152Y-65160193D02*
X72468867Y-65127669D01*
X72468867Y-65127669D02*
X72493844Y-65099502D01*
X72493844Y-65099502D02*
X72514464Y-65087597D01*
X72514464Y-65087597D02*
X72551346Y-65080050D01*
X72551346Y-65080050D02*
X72567608Y-65084407D01*
X72732992Y-65085148D02*
X72706420Y-65086743D01*
X72706420Y-65086743D02*
X72690158Y-65082385D01*
X72690158Y-65082385D02*
X72667944Y-65067718D01*
X72667944Y-65067718D02*
X72661991Y-65057408D01*
X72661991Y-65057408D02*
X72660396Y-65030836D01*
X72660396Y-65030836D02*
X72664754Y-65014574D01*
X72664754Y-65014574D02*
X72679421Y-64992359D01*
X72679421Y-64992359D02*
X72720660Y-64968550D01*
X72720660Y-64968550D02*
X72747232Y-64966955D01*
X72747232Y-64966955D02*
X72763494Y-64971312D01*
X72763494Y-64971312D02*
X72785709Y-64985979D01*
X72785709Y-64985979D02*
X72791661Y-64996289D01*
X72791661Y-64996289D02*
X72793256Y-65022861D01*
X72793256Y-65022861D02*
X72788899Y-65039124D01*
X72788899Y-65039124D02*
X72774232Y-65061338D01*
X72774232Y-65061338D02*
X72732992Y-65085148D01*
X72732992Y-65085148D02*
X72718325Y-65107362D01*
X72718325Y-65107362D02*
X72713968Y-65123624D01*
X72713968Y-65123624D02*
X72715563Y-65150196D01*
X72715563Y-65150196D02*
X72739372Y-65191436D01*
X72739372Y-65191436D02*
X72761587Y-65206103D01*
X72761587Y-65206103D02*
X72777849Y-65210461D01*
X72777849Y-65210461D02*
X72804421Y-65208866D01*
X72804421Y-65208866D02*
X72845660Y-65185056D01*
X72845660Y-65185056D02*
X72860328Y-65162841D01*
X72860328Y-65162841D02*
X72864685Y-65146579D01*
X72864685Y-65146579D02*
X72863090Y-65120007D01*
X72863090Y-65120007D02*
X72839281Y-65078768D01*
X72839281Y-65078768D02*
X72817066Y-65064101D01*
X72817066Y-65064101D02*
X72800804Y-65059743D01*
X72800804Y-65059743D02*
X72774232Y-65061338D01*
D10*
X77805592Y-69767900D02*
X77519878Y-70262772D01*
X77662735Y-70015336D02*
X76796710Y-69515336D01*
X76796710Y-69515336D02*
X76872809Y-69669243D01*
X76872809Y-69669243D02*
X76907668Y-69799341D01*
X76907668Y-69799341D02*
X76901288Y-69905629D01*
X77656813Y-68692260D02*
X78234164Y-69025593D01*
X77442528Y-69063413D02*
X77896160Y-69325318D01*
X77896160Y-69325318D02*
X78002448Y-69331698D01*
X78002448Y-69331698D02*
X78091307Y-69273029D01*
X78091307Y-69273029D02*
X78162735Y-69149311D01*
X78162735Y-69149311D02*
X78169115Y-69043023D01*
X78169115Y-69043023D02*
X78151685Y-68977974D01*
X78185293Y-68062620D02*
X78018627Y-68351295D01*
X78472259Y-68613200D02*
X77606234Y-68113200D01*
X77606234Y-68113200D02*
X77844329Y-67700807D01*
D11*
X76268008Y-68240966D02*
X76272366Y-68257228D01*
X76272366Y-68257228D02*
X76264819Y-68294110D01*
X76264819Y-68294110D02*
X76252914Y-68314730D01*
X76252914Y-68314730D02*
X76224747Y-68339707D01*
X76224747Y-68339707D02*
X76192222Y-68348422D01*
X76192222Y-68348422D02*
X76165650Y-68346827D01*
X76165650Y-68346827D02*
X76118459Y-68333327D01*
X76118459Y-68333327D02*
X76087529Y-68315470D01*
X76087529Y-68315470D02*
X76052242Y-68281351D01*
X76052242Y-68281351D02*
X76037575Y-68259136D01*
X76037575Y-68259136D02*
X76028860Y-68226612D01*
X76028860Y-68226612D02*
X76036407Y-68189730D01*
X76036407Y-68189730D02*
X76048312Y-68169110D01*
X76048312Y-68169110D02*
X76076479Y-68144133D01*
X76076479Y-68144133D02*
X76092741Y-68139775D01*
X76348152Y-68149772D02*
X76371961Y-68108533D01*
X76371961Y-68108533D02*
X76373556Y-68081961D01*
X76373556Y-68081961D02*
X76369199Y-68065699D01*
X76369199Y-68065699D02*
X76350174Y-68027222D01*
X76350174Y-68027222D02*
X76314887Y-67993103D01*
X76314887Y-67993103D02*
X76232409Y-67945484D01*
X76232409Y-67945484D02*
X76205837Y-67943889D01*
X76205837Y-67943889D02*
X76189574Y-67948246D01*
X76189574Y-67948246D02*
X76167360Y-67962914D01*
X76167360Y-67962914D02*
X76143550Y-68004153D01*
X76143550Y-68004153D02*
X76141955Y-68030725D01*
X76141955Y-68030725D02*
X76146313Y-68046987D01*
X76146313Y-68046987D02*
X76160980Y-68069202D01*
X76160980Y-68069202D02*
X76212529Y-68098964D01*
X76212529Y-68098964D02*
X76239101Y-68100558D01*
X76239101Y-68100558D02*
X76255363Y-68096201D01*
X76255363Y-68096201D02*
X76277578Y-68081534D01*
X76277578Y-68081534D02*
X76301388Y-68040294D01*
X76301388Y-68040294D02*
X76302983Y-68013722D01*
X76302983Y-68013722D02*
X76298625Y-67997460D01*
X76298625Y-67997460D02*
X76283958Y-67975246D01*
D10*
X75047618Y-61169104D02*
X75523808Y-61169104D01*
X74952380Y-61454819D02*
X75285713Y-60454819D01*
X75285713Y-60454819D02*
X75619046Y-61454819D01*
X76380951Y-61407200D02*
X76285713Y-61454819D01*
X76285713Y-61454819D02*
X76095237Y-61454819D01*
X76095237Y-61454819D02*
X75999999Y-61407200D01*
X75999999Y-61407200D02*
X75952380Y-61359580D01*
X75952380Y-61359580D02*
X75904761Y-61264342D01*
X75904761Y-61264342D02*
X75904761Y-60978628D01*
X75904761Y-60978628D02*
X75952380Y-60883390D01*
X75952380Y-60883390D02*
X75999999Y-60835771D01*
X75999999Y-60835771D02*
X76095237Y-60788152D01*
X76095237Y-60788152D02*
X76285713Y-60788152D01*
X76285713Y-60788152D02*
X76380951Y-60835771D01*
X76666666Y-60788152D02*
X77047618Y-60788152D01*
X76809523Y-60454819D02*
X76809523Y-61311961D01*
X76809523Y-61311961D02*
X76857142Y-61407200D01*
X76857142Y-61407200D02*
X76952380Y-61454819D01*
X76952380Y-61454819D02*
X77047618Y-61454819D01*
X77809523Y-60788152D02*
X77809523Y-61454819D01*
X77380952Y-60788152D02*
X77380952Y-61311961D01*
X77380952Y-61311961D02*
X77428571Y-61407200D01*
X77428571Y-61407200D02*
X77523809Y-61454819D01*
X77523809Y-61454819D02*
X77666666Y-61454819D01*
X77666666Y-61454819D02*
X77761904Y-61407200D01*
X77761904Y-61407200D02*
X77809523Y-61359580D01*
X78714285Y-61454819D02*
X78714285Y-60931009D01*
X78714285Y-60931009D02*
X78666666Y-60835771D01*
X78666666Y-60835771D02*
X78571428Y-60788152D01*
X78571428Y-60788152D02*
X78380952Y-60788152D01*
X78380952Y-60788152D02*
X78285714Y-60835771D01*
X78714285Y-61407200D02*
X78619047Y-61454819D01*
X78619047Y-61454819D02*
X78380952Y-61454819D01*
X78380952Y-61454819D02*
X78285714Y-61407200D01*
X78285714Y-61407200D02*
X78238095Y-61311961D01*
X78238095Y-61311961D02*
X78238095Y-61216723D01*
X78238095Y-61216723D02*
X78285714Y-61121485D01*
X78285714Y-61121485D02*
X78380952Y-61073866D01*
X78380952Y-61073866D02*
X78619047Y-61073866D01*
X78619047Y-61073866D02*
X78714285Y-61026247D01*
X79047619Y-60788152D02*
X79428571Y-60788152D01*
X79190476Y-60454819D02*
X79190476Y-61311961D01*
X79190476Y-61311961D02*
X79238095Y-61407200D01*
X79238095Y-61407200D02*
X79333333Y-61454819D01*
X79333333Y-61454819D02*
X79428571Y-61454819D01*
X79904762Y-61454819D02*
X79809524Y-61407200D01*
X79809524Y-61407200D02*
X79761905Y-61359580D01*
X79761905Y-61359580D02*
X79714286Y-61264342D01*
X79714286Y-61264342D02*
X79714286Y-60978628D01*
X79714286Y-60978628D02*
X79761905Y-60883390D01*
X79761905Y-60883390D02*
X79809524Y-60835771D01*
X79809524Y-60835771D02*
X79904762Y-60788152D01*
X79904762Y-60788152D02*
X80047619Y-60788152D01*
X80047619Y-60788152D02*
X80142857Y-60835771D01*
X80142857Y-60835771D02*
X80190476Y-60883390D01*
X80190476Y-60883390D02*
X80238095Y-60978628D01*
X80238095Y-60978628D02*
X80238095Y-61264342D01*
X80238095Y-61264342D02*
X80190476Y-61359580D01*
X80190476Y-61359580D02*
X80142857Y-61407200D01*
X80142857Y-61407200D02*
X80047619Y-61454819D01*
X80047619Y-61454819D02*
X79904762Y-61454819D01*
X80666667Y-61454819D02*
X80666667Y-60788152D01*
X80666667Y-60978628D02*
X80714286Y-60883390D01*
X80714286Y-60883390D02*
X80761905Y-60835771D01*
X80761905Y-60835771D02*
X80857143Y-60788152D01*
X80857143Y-60788152D02*
X80952381Y-60788152D01*
X82047620Y-61454819D02*
X82047620Y-60454819D01*
X82047620Y-60931009D02*
X82619048Y-60931009D01*
X82619048Y-61454819D02*
X82619048Y-60454819D01*
X83238096Y-61454819D02*
X83142858Y-61407200D01*
X83142858Y-61407200D02*
X83095239Y-61359580D01*
X83095239Y-61359580D02*
X83047620Y-61264342D01*
X83047620Y-61264342D02*
X83047620Y-60978628D01*
X83047620Y-60978628D02*
X83095239Y-60883390D01*
X83095239Y-60883390D02*
X83142858Y-60835771D01*
X83142858Y-60835771D02*
X83238096Y-60788152D01*
X83238096Y-60788152D02*
X83380953Y-60788152D01*
X83380953Y-60788152D02*
X83476191Y-60835771D01*
X83476191Y-60835771D02*
X83523810Y-60883390D01*
X83523810Y-60883390D02*
X83571429Y-60978628D01*
X83571429Y-60978628D02*
X83571429Y-61264342D01*
X83571429Y-61264342D02*
X83523810Y-61359580D01*
X83523810Y-61359580D02*
X83476191Y-61407200D01*
X83476191Y-61407200D02*
X83380953Y-61454819D01*
X83380953Y-61454819D02*
X83238096Y-61454819D01*
X84142858Y-61454819D02*
X84047620Y-61407200D01*
X84047620Y-61407200D02*
X84000001Y-61311961D01*
X84000001Y-61311961D02*
X84000001Y-60454819D01*
X84904763Y-61407200D02*
X84809525Y-61454819D01*
X84809525Y-61454819D02*
X84619049Y-61454819D01*
X84619049Y-61454819D02*
X84523811Y-61407200D01*
X84523811Y-61407200D02*
X84476192Y-61311961D01*
X84476192Y-61311961D02*
X84476192Y-60931009D01*
X84476192Y-60931009D02*
X84523811Y-60835771D01*
X84523811Y-60835771D02*
X84619049Y-60788152D01*
X84619049Y-60788152D02*
X84809525Y-60788152D01*
X84809525Y-60788152D02*
X84904763Y-60835771D01*
X84904763Y-60835771D02*
X84952382Y-60931009D01*
X84952382Y-60931009D02*
X84952382Y-61026247D01*
X84952382Y-61026247D02*
X84476192Y-61121485D01*
X79238095Y-62954819D02*
X79238095Y-61954819D01*
X79238095Y-62431009D02*
X79809523Y-62431009D01*
X79809523Y-62954819D02*
X79809523Y-61954819D01*
X80714285Y-62288152D02*
X80714285Y-62954819D01*
X80476190Y-61907200D02*
X80238095Y-62621485D01*
X80238095Y-62621485D02*
X80857142Y-62621485D01*
X86017823Y-66254185D02*
X85732108Y-65759313D01*
X85874965Y-66006749D02*
X86740991Y-65506749D01*
X86740991Y-65506749D02*
X86569654Y-65495699D01*
X86569654Y-65495699D02*
X86439556Y-65460839D01*
X86439556Y-65460839D02*
X86350698Y-65402170D01*
X87023744Y-66663159D02*
X86446394Y-66996492D01*
X86809459Y-66292005D02*
X86355826Y-66553910D01*
X86355826Y-66553910D02*
X86297157Y-66642768D01*
X86297157Y-66642768D02*
X86303537Y-66749056D01*
X86303537Y-66749056D02*
X86374965Y-66872774D01*
X86374965Y-66872774D02*
X86463824Y-66931443D01*
X86463824Y-66931443D02*
X86528873Y-66948873D01*
X87304788Y-67435656D02*
X87138122Y-67146980D01*
X86684489Y-67408885D02*
X87550515Y-66908885D01*
X87550515Y-66908885D02*
X87788610Y-67321278D01*
D11*
X85053006Y-67312967D02*
X85036744Y-67308609D01*
X85036744Y-67308609D02*
X85008577Y-67283632D01*
X85008577Y-67283632D02*
X84996673Y-67263012D01*
X84996673Y-67263012D02*
X84989125Y-67226131D01*
X84989125Y-67226131D02*
X84997840Y-67193606D01*
X84997840Y-67193606D02*
X85012507Y-67171392D01*
X85012507Y-67171392D02*
X85047794Y-67137272D01*
X85047794Y-67137272D02*
X85078724Y-67119415D01*
X85078724Y-67119415D02*
X85125915Y-67105915D01*
X85125915Y-67105915D02*
X85152488Y-67104320D01*
X85152488Y-67104320D02*
X85185012Y-67113035D01*
X85185012Y-67113035D02*
X85213179Y-67138012D01*
X85213179Y-67138012D02*
X85225084Y-67158632D01*
X85225084Y-67158632D02*
X85232631Y-67195514D01*
X85232631Y-67195514D02*
X85228274Y-67211776D01*
X85151434Y-67531068D02*
X85080006Y-67407350D01*
X85115720Y-67469209D02*
X85332227Y-67344209D01*
X85332227Y-67344209D02*
X85289392Y-67341446D01*
X85289392Y-67341446D02*
X85256868Y-67332732D01*
X85256868Y-67332732D02*
X85234653Y-67318064D01*
X85270482Y-67737264D02*
X85199053Y-67613546D01*
X85234768Y-67675405D02*
X85451274Y-67550405D01*
X85451274Y-67550405D02*
X85408440Y-67547643D01*
X85408440Y-67547643D02*
X85375915Y-67538928D01*
X85375915Y-67538928D02*
X85353701Y-67524261D01*
D10*
X70232099Y-57805592D02*
X69737227Y-57519878D01*
X69984663Y-57662735D02*
X70484663Y-56796710D01*
X70484663Y-56796710D02*
X70330756Y-56872809D01*
X70330756Y-56872809D02*
X70200658Y-56907668D01*
X70200658Y-56907668D02*
X70094370Y-56901288D01*
X71307739Y-57656813D02*
X70974406Y-58234164D01*
X70936586Y-57442528D02*
X70674681Y-57896160D01*
X70674681Y-57896160D02*
X70668301Y-58002448D01*
X70668301Y-58002448D02*
X70726970Y-58091307D01*
X70726970Y-58091307D02*
X70850688Y-58162735D01*
X70850688Y-58162735D02*
X70956976Y-58169115D01*
X70956976Y-58169115D02*
X71022025Y-58151685D01*
X71937379Y-58185293D02*
X71648704Y-58018627D01*
X71386799Y-58472259D02*
X71886799Y-57606234D01*
X71886799Y-57606234D02*
X72299192Y-57844329D01*
D11*
X71759033Y-56268008D02*
X71742771Y-56272366D01*
X71742771Y-56272366D02*
X71705889Y-56264819D01*
X71705889Y-56264819D02*
X71685269Y-56252914D01*
X71685269Y-56252914D02*
X71660292Y-56224747D01*
X71660292Y-56224747D02*
X71651577Y-56192222D01*
X71651577Y-56192222D02*
X71653172Y-56165650D01*
X71653172Y-56165650D02*
X71666672Y-56118459D01*
X71666672Y-56118459D02*
X71684529Y-56087529D01*
X71684529Y-56087529D02*
X71718648Y-56052242D01*
X71718648Y-56052242D02*
X71740863Y-56037575D01*
X71740863Y-56037575D02*
X71773387Y-56028860D01*
X71773387Y-56028860D02*
X71810269Y-56036407D01*
X71810269Y-56036407D02*
X71830889Y-56048312D01*
X71830889Y-56048312D02*
X71855866Y-56076479D01*
X71855866Y-56076479D02*
X71860224Y-56092741D01*
X72057705Y-56179265D02*
X72016466Y-56155455D01*
X72016466Y-56155455D02*
X71989894Y-56153860D01*
X71989894Y-56153860D02*
X71973632Y-56158218D01*
X71973632Y-56158218D02*
X71935155Y-56177242D01*
X71935155Y-56177242D02*
X71901035Y-56212529D01*
X71901035Y-56212529D02*
X71853416Y-56295008D01*
X71853416Y-56295008D02*
X71851821Y-56321580D01*
X71851821Y-56321580D02*
X71856179Y-56337842D01*
X71856179Y-56337842D02*
X71870846Y-56360057D01*
X71870846Y-56360057D02*
X71912085Y-56383866D01*
X71912085Y-56383866D02*
X71938658Y-56385461D01*
X71938658Y-56385461D02*
X71954920Y-56381104D01*
X71954920Y-56381104D02*
X71977134Y-56366436D01*
X71977134Y-56366436D02*
X72006896Y-56314887D01*
X72006896Y-56314887D02*
X72008491Y-56288315D01*
X72008491Y-56288315D02*
X72004134Y-56272053D01*
X72004134Y-56272053D02*
X71989466Y-56249838D01*
X71989466Y-56249838D02*
X71948227Y-56226029D01*
X71948227Y-56226029D02*
X71921655Y-56224434D01*
X71921655Y-56224434D02*
X71905393Y-56228791D01*
X71905393Y-56228791D02*
X71883178Y-56243459D01*
D10*
X83004819Y-69625238D02*
X83004819Y-70196666D01*
X83004819Y-69910952D02*
X82004819Y-69910952D01*
X82004819Y-69910952D02*
X82147676Y-70006190D01*
X82147676Y-70006190D02*
X82242914Y-70101428D01*
X82242914Y-70101428D02*
X82290533Y-70196666D01*
X82338152Y-68768095D02*
X83004819Y-68768095D01*
X82338152Y-69196666D02*
X82861961Y-69196666D01*
X82861961Y-69196666D02*
X82957200Y-69149047D01*
X82957200Y-69149047D02*
X83004819Y-69053809D01*
X83004819Y-69053809D02*
X83004819Y-68910952D01*
X83004819Y-68910952D02*
X82957200Y-68815714D01*
X82957200Y-68815714D02*
X82909580Y-68768095D01*
X82481009Y-67958571D02*
X82481009Y-68291904D01*
X83004819Y-68291904D02*
X82004819Y-68291904D01*
X82004819Y-68291904D02*
X82004819Y-67815714D01*
D11*
X80909765Y-69190714D02*
X80921670Y-69202618D01*
X80921670Y-69202618D02*
X80933574Y-69238333D01*
X80933574Y-69238333D02*
X80933574Y-69262142D01*
X80933574Y-69262142D02*
X80921670Y-69297856D01*
X80921670Y-69297856D02*
X80897860Y-69321666D01*
X80897860Y-69321666D02*
X80874050Y-69333571D01*
X80874050Y-69333571D02*
X80826431Y-69345475D01*
X80826431Y-69345475D02*
X80790717Y-69345475D01*
X80790717Y-69345475D02*
X80743098Y-69333571D01*
X80743098Y-69333571D02*
X80719289Y-69321666D01*
X80719289Y-69321666D02*
X80695479Y-69297856D01*
X80695479Y-69297856D02*
X80683574Y-69262142D01*
X80683574Y-69262142D02*
X80683574Y-69238333D01*
X80683574Y-69238333D02*
X80695479Y-69202618D01*
X80695479Y-69202618D02*
X80707384Y-69190714D01*
X80933574Y-68952618D02*
X80933574Y-69095475D01*
X80933574Y-69024047D02*
X80683574Y-69024047D01*
X80683574Y-69024047D02*
X80719289Y-69047856D01*
X80719289Y-69047856D02*
X80743098Y-69071666D01*
X80743098Y-69071666D02*
X80755003Y-69095475D01*
X80683574Y-68797857D02*
X80683574Y-68774047D01*
X80683574Y-68774047D02*
X80695479Y-68750238D01*
X80695479Y-68750238D02*
X80707384Y-68738333D01*
X80707384Y-68738333D02*
X80731193Y-68726428D01*
X80731193Y-68726428D02*
X80778812Y-68714523D01*
X80778812Y-68714523D02*
X80838336Y-68714523D01*
X80838336Y-68714523D02*
X80885955Y-68726428D01*
X80885955Y-68726428D02*
X80909765Y-68738333D01*
X80909765Y-68738333D02*
X80921670Y-68750238D01*
X80921670Y-68750238D02*
X80933574Y-68774047D01*
X80933574Y-68774047D02*
X80933574Y-68797857D01*
X80933574Y-68797857D02*
X80921670Y-68821666D01*
X80921670Y-68821666D02*
X80909765Y-68833571D01*
X80909765Y-68833571D02*
X80885955Y-68845476D01*
X80885955Y-68845476D02*
X80838336Y-68857380D01*
X80838336Y-68857380D02*
X80778812Y-68857380D01*
X80778812Y-68857380D02*
X80731193Y-68845476D01*
X80731193Y-68845476D02*
X80707384Y-68833571D01*
X80707384Y-68833571D02*
X80695479Y-68821666D01*
X80695479Y-68821666D02*
X80683574Y-68797857D01*
D10*
X82813321Y-56825196D02*
X82960848Y-56795007D01*
X82960848Y-56795007D02*
X83167045Y-56675960D01*
X83167045Y-56675960D02*
X83225714Y-56587101D01*
X83225714Y-56587101D02*
X83243144Y-56522052D01*
X83243144Y-56522052D02*
X83236764Y-56415764D01*
X83236764Y-56415764D02*
X83189145Y-56333286D01*
X83189145Y-56333286D02*
X83100287Y-56274617D01*
X83100287Y-56274617D02*
X83035238Y-56257187D01*
X83035238Y-56257187D02*
X82928950Y-56263567D01*
X82928950Y-56263567D02*
X82740183Y-56317565D01*
X82740183Y-56317565D02*
X82633895Y-56323945D01*
X82633895Y-56323945D02*
X82568846Y-56306515D01*
X82568846Y-56306515D02*
X82479988Y-56247846D01*
X82479988Y-56247846D02*
X82432368Y-56165368D01*
X82432368Y-56165368D02*
X82425989Y-56059079D01*
X82425989Y-56059079D02*
X82443419Y-55994031D01*
X82443419Y-55994031D02*
X82502088Y-55905172D01*
X82502088Y-55905172D02*
X82708284Y-55786125D01*
X82708284Y-55786125D02*
X82855812Y-55755935D01*
X83703156Y-56366436D02*
X83203156Y-55500410D01*
X84198027Y-56080721D02*
X83541159Y-55800135D01*
X83698027Y-55214696D02*
X83488870Y-55995282D01*
X84440335Y-54786125D02*
X84275378Y-54881363D01*
X84275378Y-54881363D02*
X84216709Y-54970221D01*
X84216709Y-54970221D02*
X84199279Y-55035270D01*
X84199279Y-55035270D02*
X84188229Y-55206607D01*
X84188229Y-55206607D02*
X84242228Y-55395374D01*
X84242228Y-55395374D02*
X84432704Y-55725288D01*
X84432704Y-55725288D02*
X84521562Y-55783957D01*
X84521562Y-55783957D02*
X84586611Y-55801387D01*
X84586611Y-55801387D02*
X84692899Y-55795007D01*
X84692899Y-55795007D02*
X84857856Y-55699769D01*
X84857856Y-55699769D02*
X84916525Y-55610911D01*
X84916525Y-55610911D02*
X84933955Y-55545862D01*
X84933955Y-55545862D02*
X84927575Y-55439574D01*
X84927575Y-55439574D02*
X84808528Y-55233377D01*
X84808528Y-55233377D02*
X84719670Y-55174708D01*
X84719670Y-55174708D02*
X84654621Y-55157278D01*
X84654621Y-55157278D02*
X84548333Y-55163658D01*
X84548333Y-55163658D02*
X84383375Y-55258896D01*
X84383375Y-55258896D02*
X84324706Y-55347755D01*
X84324706Y-55347755D02*
X84307276Y-55412803D01*
X84307276Y-55412803D02*
X84313656Y-55519092D01*
X85231971Y-54823945D02*
X85125683Y-54830325D01*
X85125683Y-54830325D02*
X85060634Y-54812895D01*
X85060634Y-54812895D02*
X84971776Y-54754226D01*
X84971776Y-54754226D02*
X84947966Y-54712987D01*
X84947966Y-54712987D02*
X84941586Y-54606698D01*
X84941586Y-54606698D02*
X84959016Y-54541650D01*
X84959016Y-54541650D02*
X85017685Y-54452791D01*
X85017685Y-54452791D02*
X85182642Y-54357553D01*
X85182642Y-54357553D02*
X85288931Y-54351173D01*
X85288931Y-54351173D02*
X85353979Y-54368603D01*
X85353979Y-54368603D02*
X85442838Y-54427272D01*
X85442838Y-54427272D02*
X85466647Y-54468512D01*
X85466647Y-54468512D02*
X85473027Y-54574800D01*
X85473027Y-54574800D02*
X85455597Y-54639849D01*
X85455597Y-54639849D02*
X85396928Y-54728707D01*
X85396928Y-54728707D02*
X85231971Y-54823945D01*
X85231971Y-54823945D02*
X85173302Y-54912803D01*
X85173302Y-54912803D02*
X85155872Y-54977852D01*
X85155872Y-54977852D02*
X85162252Y-55084140D01*
X85162252Y-55084140D02*
X85257490Y-55249098D01*
X85257490Y-55249098D02*
X85346348Y-55307767D01*
X85346348Y-55307767D02*
X85411397Y-55325196D01*
X85411397Y-55325196D02*
X85517685Y-55318817D01*
X85517685Y-55318817D02*
X85682642Y-55223579D01*
X85682642Y-55223579D02*
X85741312Y-55134720D01*
X85741312Y-55134720D02*
X85758741Y-55069671D01*
X85758741Y-55069671D02*
X85752362Y-54963383D01*
X85752362Y-54963383D02*
X85657124Y-54798426D01*
X85657124Y-54798426D02*
X85568265Y-54739757D01*
X85568265Y-54739757D02*
X85503216Y-54722327D01*
X85503216Y-54722327D02*
X85396928Y-54728707D01*
X86672386Y-54652150D02*
X86177514Y-54937864D01*
X86424950Y-54795007D02*
X85924950Y-53928982D01*
X85924950Y-53928982D02*
X85913900Y-54100319D01*
X85913900Y-54100319D02*
X85879040Y-54230416D01*
X85879040Y-54230416D02*
X85820371Y-54319275D01*
X86549919Y-53678127D02*
X86567349Y-53613078D01*
X86567349Y-53613078D02*
X86626018Y-53524220D01*
X86626018Y-53524220D02*
X86832215Y-53405172D01*
X86832215Y-53405172D02*
X86938503Y-53398792D01*
X86938503Y-53398792D02*
X87003552Y-53416222D01*
X87003552Y-53416222D02*
X87092410Y-53474891D01*
X87092410Y-53474891D02*
X87140029Y-53557370D01*
X87140029Y-53557370D02*
X87170218Y-53704897D01*
X87170218Y-53704897D02*
X86961061Y-54485483D01*
X86961061Y-54485483D02*
X87497172Y-54175959D01*
X87709748Y-54163200D02*
X88369577Y-53782248D01*
X88266250Y-53127089D02*
X88554925Y-52960422D01*
X88940548Y-53342626D02*
X88528155Y-53580721D01*
X88528155Y-53580721D02*
X88028155Y-52714696D01*
X88028155Y-52714696D02*
X88440548Y-52476601D01*
X89758954Y-52760147D02*
X89741525Y-52825196D01*
X89741525Y-52825196D02*
X89641616Y-52937864D01*
X89641616Y-52937864D02*
X89559138Y-52985483D01*
X89559138Y-52985483D02*
X89411610Y-53015672D01*
X89411610Y-53015672D02*
X89281512Y-52980813D01*
X89281512Y-52980813D02*
X89192654Y-52922144D01*
X89192654Y-52922144D02*
X89056177Y-52780996D01*
X89056177Y-52780996D02*
X88984748Y-52657278D01*
X88984748Y-52657278D02*
X88930749Y-52468511D01*
X88930749Y-52468511D02*
X88924370Y-52362223D01*
X88924370Y-52362223D02*
X88959229Y-52232126D01*
X88959229Y-52232126D02*
X89059138Y-52119458D01*
X89059138Y-52119458D02*
X89141616Y-52071839D01*
X89141616Y-52071839D02*
X89289144Y-52041649D01*
X89289144Y-52041649D02*
X89354192Y-52059079D01*
X90631359Y-52366435D02*
X90136488Y-52652150D01*
X90383924Y-52509293D02*
X89883924Y-51643267D01*
X89883924Y-51643267D02*
X89872874Y-51814604D01*
X89872874Y-51814604D02*
X89838014Y-51944702D01*
X89838014Y-51944702D02*
X89779345Y-52033560D01*
X90914906Y-51048029D02*
X90502513Y-51286124D01*
X90502513Y-51286124D02*
X90699369Y-51722327D01*
X90699369Y-51722327D02*
X90716799Y-51657278D01*
X90716799Y-51657278D02*
X90775468Y-51568420D01*
X90775468Y-51568420D02*
X90981665Y-51449372D01*
X90981665Y-51449372D02*
X91087953Y-51442992D01*
X91087953Y-51442992D02*
X91153002Y-51460422D01*
X91153002Y-51460422D02*
X91241860Y-51519091D01*
X91241860Y-51519091D02*
X91360908Y-51725288D01*
X91360908Y-51725288D02*
X91367287Y-51831576D01*
X91367287Y-51831576D02*
X91349858Y-51896625D01*
X91349858Y-51896625D02*
X91291188Y-51985483D01*
X91291188Y-51985483D02*
X91084992Y-52104531D01*
X91084992Y-52104531D02*
X90978704Y-52110910D01*
X90978704Y-52110910D02*
X90913655Y-52093481D01*
D12*
X87648908Y-55741154D02*
X87498908Y-55481346D01*
X87498908Y-55481346D02*
X87560767Y-55445632D01*
X87560767Y-55445632D02*
X87605025Y-55436575D01*
X87605025Y-55436575D02*
X87644054Y-55447033D01*
X87644054Y-55447033D02*
X87670712Y-55464634D01*
X87670712Y-55464634D02*
X87711655Y-55506978D01*
X87711655Y-55506978D02*
X87733083Y-55544094D01*
X87733083Y-55544094D02*
X87749283Y-55600724D01*
X87749283Y-55600724D02*
X87751197Y-55632610D01*
X87751197Y-55632610D02*
X87740739Y-55671639D01*
X87740739Y-55671639D02*
X87710767Y-55705440D01*
X87710767Y-55705440D02*
X87648908Y-55741154D01*
X87760629Y-55363233D02*
X87765858Y-55343718D01*
X87765858Y-55343718D02*
X87783459Y-55317061D01*
X87783459Y-55317061D02*
X87845318Y-55281346D01*
X87845318Y-55281346D02*
X87877204Y-55279432D01*
X87877204Y-55279432D02*
X87896719Y-55284661D01*
X87896719Y-55284661D02*
X87923376Y-55302262D01*
X87923376Y-55302262D02*
X87937662Y-55327006D01*
X87937662Y-55327006D02*
X87946719Y-55371264D01*
X87946719Y-55371264D02*
X87883972Y-55605440D01*
X87883972Y-55605440D02*
X88044805Y-55512583D01*
D10*
X88554761Y-60104819D02*
X87983333Y-60104819D01*
X88269047Y-60104819D02*
X88269047Y-59104819D01*
X88269047Y-59104819D02*
X88173809Y-59247676D01*
X88173809Y-59247676D02*
X88078571Y-59342914D01*
X88078571Y-59342914D02*
X87983333Y-59390533D01*
X89411904Y-59438152D02*
X89411904Y-60104819D01*
X88983333Y-59438152D02*
X88983333Y-59961961D01*
X88983333Y-59961961D02*
X89030952Y-60057200D01*
X89030952Y-60057200D02*
X89126190Y-60104819D01*
X89126190Y-60104819D02*
X89269047Y-60104819D01*
X89269047Y-60104819D02*
X89364285Y-60057200D01*
X89364285Y-60057200D02*
X89411904Y-60009580D01*
X90221428Y-59581009D02*
X89888095Y-59581009D01*
X89888095Y-60104819D02*
X89888095Y-59104819D01*
X89888095Y-59104819D02*
X90364285Y-59104819D01*
D11*
X89108333Y-58009765D02*
X89096429Y-58021670D01*
X89096429Y-58021670D02*
X89060714Y-58033574D01*
X89060714Y-58033574D02*
X89036905Y-58033574D01*
X89036905Y-58033574D02*
X89001191Y-58021670D01*
X89001191Y-58021670D02*
X88977381Y-57997860D01*
X88977381Y-57997860D02*
X88965476Y-57974050D01*
X88965476Y-57974050D02*
X88953572Y-57926431D01*
X88953572Y-57926431D02*
X88953572Y-57890717D01*
X88953572Y-57890717D02*
X88965476Y-57843098D01*
X88965476Y-57843098D02*
X88977381Y-57819289D01*
X88977381Y-57819289D02*
X89001191Y-57795479D01*
X89001191Y-57795479D02*
X89036905Y-57783574D01*
X89036905Y-57783574D02*
X89060714Y-57783574D01*
X89060714Y-57783574D02*
X89096429Y-57795479D01*
X89096429Y-57795479D02*
X89108333Y-57807384D01*
X89346429Y-58033574D02*
X89203572Y-58033574D01*
X89275000Y-58033574D02*
X89275000Y-57783574D01*
X89275000Y-57783574D02*
X89251191Y-57819289D01*
X89251191Y-57819289D02*
X89227381Y-57843098D01*
X89227381Y-57843098D02*
X89203572Y-57855003D01*
D10*
X86186918Y-54032176D02*
X85692046Y-54317891D01*
X85939482Y-54175034D02*
X85439482Y-53309008D01*
X85439482Y-53309008D02*
X85428432Y-53480345D01*
X85428432Y-53480345D02*
X85393572Y-53610443D01*
X85393572Y-53610443D02*
X85334903Y-53699301D01*
X86595892Y-53026255D02*
X86929225Y-53603605D01*
X86224738Y-53240540D02*
X86486643Y-53694173D01*
X86486643Y-53694173D02*
X86575501Y-53752842D01*
X86575501Y-53752842D02*
X86681789Y-53746462D01*
X86681789Y-53746462D02*
X86805507Y-53675034D01*
X86805507Y-53675034D02*
X86864176Y-53586175D01*
X86864176Y-53586175D02*
X86881606Y-53521126D01*
X87368389Y-52745211D02*
X87079713Y-52911877D01*
X87341618Y-53365510D02*
X86841618Y-52499484D01*
X86841618Y-52499484D02*
X87254011Y-52261389D01*
D11*
X87348798Y-54937469D02*
X87344441Y-54953731D01*
X87344441Y-54953731D02*
X87319464Y-54981898D01*
X87319464Y-54981898D02*
X87298844Y-54993802D01*
X87298844Y-54993802D02*
X87261962Y-55001350D01*
X87261962Y-55001350D02*
X87229438Y-54992635D01*
X87229438Y-54992635D02*
X87207223Y-54977968D01*
X87207223Y-54977968D02*
X87173104Y-54942681D01*
X87173104Y-54942681D02*
X87155247Y-54911751D01*
X87155247Y-54911751D02*
X87141747Y-54864560D01*
X87141747Y-54864560D02*
X87140152Y-54837987D01*
X87140152Y-54837987D02*
X87148867Y-54805463D01*
X87148867Y-54805463D02*
X87173844Y-54777296D01*
X87173844Y-54777296D02*
X87194464Y-54765391D01*
X87194464Y-54765391D02*
X87231346Y-54757844D01*
X87231346Y-54757844D02*
X87247608Y-54762201D01*
X87330086Y-54714582D02*
X87334444Y-54698320D01*
X87334444Y-54698320D02*
X87349111Y-54676106D01*
X87349111Y-54676106D02*
X87400660Y-54646344D01*
X87400660Y-54646344D02*
X87427232Y-54644749D01*
X87427232Y-54644749D02*
X87443494Y-54649106D01*
X87443494Y-54649106D02*
X87465709Y-54663773D01*
X87465709Y-54663773D02*
X87477614Y-54684393D01*
X87477614Y-54684393D02*
X87485161Y-54721275D01*
X87485161Y-54721275D02*
X87432872Y-54916421D01*
X87432872Y-54916421D02*
X87566900Y-54839041D01*
D10*
X71143715Y-48974863D02*
X71173904Y-49122390D01*
X71173904Y-49122390D02*
X71292951Y-49328587D01*
X71292951Y-49328587D02*
X71381810Y-49387256D01*
X71381810Y-49387256D02*
X71446859Y-49404686D01*
X71446859Y-49404686D02*
X71553147Y-49398306D01*
X71553147Y-49398306D02*
X71635625Y-49350687D01*
X71635625Y-49350687D02*
X71694294Y-49261829D01*
X71694294Y-49261829D02*
X71711724Y-49196780D01*
X71711724Y-49196780D02*
X71705344Y-49090492D01*
X71705344Y-49090492D02*
X71651346Y-48901725D01*
X71651346Y-48901725D02*
X71644966Y-48795437D01*
X71644966Y-48795437D02*
X71662396Y-48730388D01*
X71662396Y-48730388D02*
X71721065Y-48641530D01*
X71721065Y-48641530D02*
X71803543Y-48593910D01*
X71803543Y-48593910D02*
X71909832Y-48587531D01*
X71909832Y-48587531D02*
X71974880Y-48604961D01*
X71974880Y-48604961D02*
X72063739Y-48663630D01*
X72063739Y-48663630D02*
X72182786Y-48869826D01*
X72182786Y-48869826D02*
X72212976Y-49017354D01*
X71602475Y-49864698D02*
X72468501Y-49364698D01*
X71888190Y-50359569D02*
X72168776Y-49702701D01*
X72754215Y-49859569D02*
X71973629Y-49650412D01*
X73182786Y-50601877D02*
X73087548Y-50436920D01*
X73087548Y-50436920D02*
X72998690Y-50378251D01*
X72998690Y-50378251D02*
X72933641Y-50360821D01*
X72933641Y-50360821D02*
X72762304Y-50349771D01*
X72762304Y-50349771D02*
X72573537Y-50403770D01*
X72573537Y-50403770D02*
X72243623Y-50594246D01*
X72243623Y-50594246D02*
X72184954Y-50683104D01*
X72184954Y-50683104D02*
X72167524Y-50748153D01*
X72167524Y-50748153D02*
X72173904Y-50854441D01*
X72173904Y-50854441D02*
X72269142Y-51019398D01*
X72269142Y-51019398D02*
X72358000Y-51078067D01*
X72358000Y-51078067D02*
X72423049Y-51095497D01*
X72423049Y-51095497D02*
X72529337Y-51089117D01*
X72529337Y-51089117D02*
X72735534Y-50970070D01*
X72735534Y-50970070D02*
X72794203Y-50881212D01*
X72794203Y-50881212D02*
X72811633Y-50816163D01*
X72811633Y-50816163D02*
X72805253Y-50709875D01*
X72805253Y-50709875D02*
X72710015Y-50544917D01*
X72710015Y-50544917D02*
X72621156Y-50486248D01*
X72621156Y-50486248D02*
X72556108Y-50468818D01*
X72556108Y-50468818D02*
X72449819Y-50475198D01*
X73144966Y-51393513D02*
X73138586Y-51287225D01*
X73138586Y-51287225D02*
X73156016Y-51222176D01*
X73156016Y-51222176D02*
X73214685Y-51133318D01*
X73214685Y-51133318D02*
X73255924Y-51109508D01*
X73255924Y-51109508D02*
X73362213Y-51103128D01*
X73362213Y-51103128D02*
X73427261Y-51120558D01*
X73427261Y-51120558D02*
X73516120Y-51179227D01*
X73516120Y-51179227D02*
X73611358Y-51344184D01*
X73611358Y-51344184D02*
X73617738Y-51450473D01*
X73617738Y-51450473D02*
X73600308Y-51515521D01*
X73600308Y-51515521D02*
X73541639Y-51604380D01*
X73541639Y-51604380D02*
X73500399Y-51628189D01*
X73500399Y-51628189D02*
X73394111Y-51634569D01*
X73394111Y-51634569D02*
X73329062Y-51617139D01*
X73329062Y-51617139D02*
X73240204Y-51558470D01*
X73240204Y-51558470D02*
X73144966Y-51393513D01*
X73144966Y-51393513D02*
X73056108Y-51334844D01*
X73056108Y-51334844D02*
X72991059Y-51317414D01*
X72991059Y-51317414D02*
X72884771Y-51323794D01*
X72884771Y-51323794D02*
X72719813Y-51419032D01*
X72719813Y-51419032D02*
X72661144Y-51507890D01*
X72661144Y-51507890D02*
X72643715Y-51572939D01*
X72643715Y-51572939D02*
X72650094Y-51679227D01*
X72650094Y-51679227D02*
X72745332Y-51844184D01*
X72745332Y-51844184D02*
X72834191Y-51902854D01*
X72834191Y-51902854D02*
X72899240Y-51920283D01*
X72899240Y-51920283D02*
X73005528Y-51913904D01*
X73005528Y-51913904D02*
X73170485Y-51818666D01*
X73170485Y-51818666D02*
X73229154Y-51729807D01*
X73229154Y-51729807D02*
X73246584Y-51664758D01*
X73246584Y-51664758D02*
X73240204Y-51558470D01*
X73316761Y-52833928D02*
X73031047Y-52339056D01*
X73173904Y-52586492D02*
X74039929Y-52086492D01*
X74039929Y-52086492D02*
X73868592Y-52075442D01*
X73868592Y-52075442D02*
X73738495Y-52040582D01*
X73738495Y-52040582D02*
X73649636Y-51981913D01*
X74290784Y-52711461D02*
X74355833Y-52728891D01*
X74355833Y-52728891D02*
X74444691Y-52787560D01*
X74444691Y-52787560D02*
X74563739Y-52993757D01*
X74563739Y-52993757D02*
X74570119Y-53100045D01*
X74570119Y-53100045D02*
X74552689Y-53165094D01*
X74552689Y-53165094D02*
X74494020Y-53253952D01*
X74494020Y-53253952D02*
X74411541Y-53301571D01*
X74411541Y-53301571D02*
X74264014Y-53331760D01*
X74264014Y-53331760D02*
X73483428Y-53122603D01*
X73483428Y-53122603D02*
X73792952Y-53658714D01*
X73805711Y-53871290D02*
X74186663Y-54531119D01*
X74841822Y-54427792D02*
X75008489Y-54716467D01*
X74626285Y-55102090D02*
X74388190Y-54689697D01*
X74388190Y-54689697D02*
X75254215Y-54189697D01*
X75254215Y-54189697D02*
X75492310Y-54602090D01*
X75208764Y-55920496D02*
X75143715Y-55903067D01*
X75143715Y-55903067D02*
X75031047Y-55803158D01*
X75031047Y-55803158D02*
X74983428Y-55720680D01*
X74983428Y-55720680D02*
X74953239Y-55573152D01*
X74953239Y-55573152D02*
X74988098Y-55443054D01*
X74988098Y-55443054D02*
X75046767Y-55354196D01*
X75046767Y-55354196D02*
X75187915Y-55217719D01*
X75187915Y-55217719D02*
X75311633Y-55146290D01*
X75311633Y-55146290D02*
X75500400Y-55092291D01*
X75500400Y-55092291D02*
X75606688Y-55085912D01*
X75606688Y-55085912D02*
X75736785Y-55120771D01*
X75736785Y-55120771D02*
X75849453Y-55220680D01*
X75849453Y-55220680D02*
X75897072Y-55303158D01*
X75897072Y-55303158D02*
X75927262Y-55450686D01*
X75927262Y-55450686D02*
X75909832Y-55515734D01*
X75602476Y-56792901D02*
X75316761Y-56298030D01*
X75459618Y-56545466D02*
X76325644Y-56045466D01*
X76325644Y-56045466D02*
X76154307Y-56034416D01*
X76154307Y-56034416D02*
X76024209Y-55999556D01*
X76024209Y-55999556D02*
X75935351Y-55940887D01*
X76920882Y-57076448D02*
X76682787Y-56664055D01*
X76682787Y-56664055D02*
X76246584Y-56860911D01*
X76246584Y-56860911D02*
X76311633Y-56878341D01*
X76311633Y-56878341D02*
X76400491Y-56937010D01*
X76400491Y-56937010D02*
X76519539Y-57143207D01*
X76519539Y-57143207D02*
X76525919Y-57249495D01*
X76525919Y-57249495D02*
X76508489Y-57314544D01*
X76508489Y-57314544D02*
X76449820Y-57403402D01*
X76449820Y-57403402D02*
X76243623Y-57522450D01*
X76243623Y-57522450D02*
X76137335Y-57528829D01*
X76137335Y-57528829D02*
X76072286Y-57511400D01*
X76072286Y-57511400D02*
X75983428Y-57452730D01*
X75983428Y-57452730D02*
X75864380Y-57246534D01*
X75864380Y-57246534D02*
X75858001Y-57140246D01*
X75858001Y-57140246D02*
X75875430Y-57075197D01*
D12*
X75283845Y-52103752D02*
X75543653Y-51953752D01*
X75543653Y-51953752D02*
X75579367Y-52015611D01*
X75579367Y-52015611D02*
X75588424Y-52059869D01*
X75588424Y-52059869D02*
X75577966Y-52098898D01*
X75577966Y-52098898D02*
X75560365Y-52125556D01*
X75560365Y-52125556D02*
X75518021Y-52166499D01*
X75518021Y-52166499D02*
X75480905Y-52187927D01*
X75480905Y-52187927D02*
X75424275Y-52204127D01*
X75424275Y-52204127D02*
X75392389Y-52206041D01*
X75392389Y-52206041D02*
X75353360Y-52195583D01*
X75353360Y-52195583D02*
X75319559Y-52165611D01*
X75319559Y-52165611D02*
X75283845Y-52103752D01*
X75765081Y-52337277D02*
X75693653Y-52213559D01*
X75693653Y-52213559D02*
X75562792Y-52272616D01*
X75562792Y-52272616D02*
X75582306Y-52277845D01*
X75582306Y-52277845D02*
X75608964Y-52295446D01*
X75608964Y-52295446D02*
X75644678Y-52357305D01*
X75644678Y-52357305D02*
X75646592Y-52389191D01*
X75646592Y-52389191D02*
X75641363Y-52408706D01*
X75641363Y-52408706D02*
X75623763Y-52435363D01*
X75623763Y-52435363D02*
X75561904Y-52471078D01*
X75561904Y-52471078D02*
X75530017Y-52472992D01*
X75530017Y-52472992D02*
X75510503Y-52467763D01*
X75510503Y-52467763D02*
X75483845Y-52450162D01*
X75483845Y-52450162D02*
X75448131Y-52388303D01*
X75448131Y-52388303D02*
X75446217Y-52356416D01*
X75446217Y-52356416D02*
X75451446Y-52336902D01*
D10*
X88332099Y-62436938D02*
X87837227Y-62151224D01*
X88084663Y-62294081D02*
X88584663Y-61428056D01*
X88584663Y-61428056D02*
X88430756Y-61504155D01*
X88430756Y-61504155D02*
X88300658Y-61539014D01*
X88300658Y-61539014D02*
X88194370Y-61532634D01*
X89407739Y-62288159D02*
X89074406Y-62865510D01*
X89036586Y-62073874D02*
X88774681Y-62527506D01*
X88774681Y-62527506D02*
X88768301Y-62633794D01*
X88768301Y-62633794D02*
X88826970Y-62722653D01*
X88826970Y-62722653D02*
X88950688Y-62794081D01*
X88950688Y-62794081D02*
X89056976Y-62800461D01*
X89056976Y-62800461D02*
X89122025Y-62783031D01*
X90037379Y-62816639D02*
X89748704Y-62649973D01*
X89486799Y-63103605D02*
X89986799Y-62237580D01*
X89986799Y-62237580D02*
X90399192Y-62475675D01*
D11*
X88025934Y-63836278D02*
X88009672Y-63840636D01*
X88009672Y-63840636D02*
X87972790Y-63833089D01*
X87972790Y-63833089D02*
X87952171Y-63821184D01*
X87952171Y-63821184D02*
X87927194Y-63793017D01*
X87927194Y-63793017D02*
X87918479Y-63760492D01*
X87918479Y-63760492D02*
X87920074Y-63733920D01*
X87920074Y-63733920D02*
X87933573Y-63686729D01*
X87933573Y-63686729D02*
X87951431Y-63655799D01*
X87951431Y-63655799D02*
X87985550Y-63620512D01*
X87985550Y-63620512D02*
X88007764Y-63605845D01*
X88007764Y-63605845D02*
X88040289Y-63597130D01*
X88040289Y-63597130D02*
X88077171Y-63604677D01*
X88077171Y-63604677D02*
X88097790Y-63616582D01*
X88097790Y-63616582D02*
X88122767Y-63644749D01*
X88122767Y-63644749D02*
X88127125Y-63661011D01*
X88220226Y-63975946D02*
X88096508Y-63904517D01*
X88158367Y-63940231D02*
X88283367Y-63723725D01*
X88283367Y-63723725D02*
X88244890Y-63742750D01*
X88244890Y-63742750D02*
X88212366Y-63751465D01*
X88212366Y-63751465D02*
X88185794Y-63749870D01*
X88415800Y-63827678D02*
X88432062Y-63823321D01*
X88432062Y-63823321D02*
X88458634Y-63824915D01*
X88458634Y-63824915D02*
X88510183Y-63854677D01*
X88510183Y-63854677D02*
X88524850Y-63876892D01*
X88524850Y-63876892D02*
X88529208Y-63893154D01*
X88529208Y-63893154D02*
X88527613Y-63919726D01*
X88527613Y-63919726D02*
X88515708Y-63940346D01*
X88515708Y-63940346D02*
X88487541Y-63965323D01*
X88487541Y-63965323D02*
X88292395Y-64017612D01*
X88292395Y-64017612D02*
X88426423Y-64094993D01*
D10*
X74880094Y-73182336D02*
X74992762Y-73082428D01*
X74992762Y-73082428D02*
X75111809Y-72876231D01*
X75111809Y-72876231D02*
X75118189Y-72769943D01*
X75118189Y-72769943D02*
X75100759Y-72704894D01*
X75100759Y-72704894D02*
X75042090Y-72616036D01*
X75042090Y-72616036D02*
X74959611Y-72568417D01*
X74959611Y-72568417D02*
X74853323Y-72562037D01*
X74853323Y-72562037D02*
X74788274Y-72579467D01*
X74788274Y-72579467D02*
X74699416Y-72638136D01*
X74699416Y-72638136D02*
X74562939Y-72779284D01*
X74562939Y-72779284D02*
X74474080Y-72837953D01*
X74474080Y-72837953D02*
X74409032Y-72855383D01*
X74409032Y-72855383D02*
X74302743Y-72849003D01*
X74302743Y-72849003D02*
X74220265Y-72801384D01*
X74220265Y-72801384D02*
X74161596Y-72712525D01*
X74161596Y-72712525D02*
X74144166Y-72647477D01*
X74144166Y-72647477D02*
X74150546Y-72541188D01*
X74150546Y-72541188D02*
X74269593Y-72334992D01*
X74269593Y-72334992D02*
X74382261Y-72235084D01*
X75421333Y-72340120D02*
X74555308Y-71840120D01*
X75707047Y-71845249D02*
X74997890Y-71930688D01*
X74841022Y-71345249D02*
X75050179Y-72125835D01*
X75269593Y-70602941D02*
X75174355Y-70767898D01*
X75174355Y-70767898D02*
X75167975Y-70874186D01*
X75167975Y-70874186D02*
X75185405Y-70939235D01*
X75185405Y-70939235D02*
X75261504Y-71093142D01*
X75261504Y-71093142D02*
X75402652Y-71229620D01*
X75402652Y-71229620D02*
X75732566Y-71420096D01*
X75732566Y-71420096D02*
X75838854Y-71426476D01*
X75838854Y-71426476D02*
X75903903Y-71409046D01*
X75903903Y-71409046D02*
X75992762Y-71350377D01*
X75992762Y-71350377D02*
X76088000Y-71185420D01*
X76088000Y-71185420D02*
X76094379Y-71079132D01*
X76094379Y-71079132D02*
X76076950Y-71014083D01*
X76076950Y-71014083D02*
X76018281Y-70925224D01*
X76018281Y-70925224D02*
X75812084Y-70806177D01*
X75812084Y-70806177D02*
X75705796Y-70799797D01*
X75705796Y-70799797D02*
X75640747Y-70817227D01*
X75640747Y-70817227D02*
X75551889Y-70875896D01*
X75551889Y-70875896D02*
X75456651Y-71040853D01*
X75456651Y-71040853D02*
X75450271Y-71147141D01*
X75450271Y-71147141D02*
X75467701Y-71212190D01*
X75467701Y-71212190D02*
X75526370Y-71301048D01*
X75974080Y-70239876D02*
X75885222Y-70298546D01*
X75885222Y-70298546D02*
X75820173Y-70315975D01*
X75820173Y-70315975D02*
X75713885Y-70309596D01*
X75713885Y-70309596D02*
X75672646Y-70285786D01*
X75672646Y-70285786D02*
X75613977Y-70196928D01*
X75613977Y-70196928D02*
X75596547Y-70131879D01*
X75596547Y-70131879D02*
X75602927Y-70025591D01*
X75602927Y-70025591D02*
X75698165Y-69860634D01*
X75698165Y-69860634D02*
X75787023Y-69801964D01*
X75787023Y-69801964D02*
X75852072Y-69784535D01*
X75852072Y-69784535D02*
X75958360Y-69790914D01*
X75958360Y-69790914D02*
X75999599Y-69814724D01*
X75999599Y-69814724D02*
X76058268Y-69903582D01*
X76058268Y-69903582D02*
X76075698Y-69968631D01*
X76075698Y-69968631D02*
X76069318Y-70074919D01*
X76069318Y-70074919D02*
X75974080Y-70239876D01*
X75974080Y-70239876D02*
X75967701Y-70346165D01*
X75967701Y-70346165D02*
X75985130Y-70411213D01*
X75985130Y-70411213D02*
X76043800Y-70500072D01*
X76043800Y-70500072D02*
X76208757Y-70595310D01*
X76208757Y-70595310D02*
X76315045Y-70601690D01*
X76315045Y-70601690D02*
X76380094Y-70584260D01*
X76380094Y-70584260D02*
X76468952Y-70525591D01*
X76468952Y-70525591D02*
X76564190Y-70360634D01*
X76564190Y-70360634D02*
X76570570Y-70254345D01*
X76570570Y-70254345D02*
X76553140Y-70189297D01*
X76553140Y-70189297D02*
X76494471Y-70100438D01*
X76494471Y-70100438D02*
X76329514Y-70005200D01*
X76329514Y-70005200D02*
X76223226Y-69998820D01*
X76223226Y-69998820D02*
X76158177Y-70016250D01*
X76158177Y-70016250D02*
X76069318Y-70074919D01*
X77135619Y-69370890D02*
X76849904Y-69865762D01*
X76992762Y-69618326D02*
X76126736Y-69118326D01*
X76126736Y-69118326D02*
X76202835Y-69272233D01*
X76202835Y-69272233D02*
X76237695Y-69402331D01*
X76237695Y-69402331D02*
X76231315Y-69508619D01*
X76542548Y-68588595D02*
X76525118Y-68523546D01*
X76525118Y-68523546D02*
X76531498Y-68417258D01*
X76531498Y-68417258D02*
X76650546Y-68211061D01*
X76650546Y-68211061D02*
X76739404Y-68152392D01*
X76739404Y-68152392D02*
X76804453Y-68134962D01*
X76804453Y-68134962D02*
X76910741Y-68141342D01*
X76910741Y-68141342D02*
X76993220Y-68188961D01*
X76993220Y-68188961D02*
X77093128Y-68301629D01*
X77093128Y-68301629D02*
X77302285Y-69082215D01*
X77302285Y-69082215D02*
X77611809Y-68546104D01*
X77789526Y-68428766D02*
X78170478Y-67768937D01*
X77753415Y-67253216D02*
X77920082Y-66964541D01*
X78445143Y-67102728D02*
X78207047Y-67515121D01*
X78207047Y-67515121D02*
X77341022Y-67015121D01*
X77341022Y-67015121D02*
X77579117Y-66602728D01*
X78862664Y-66189084D02*
X78880094Y-66254132D01*
X78880094Y-66254132D02*
X78849905Y-66401660D01*
X78849905Y-66401660D02*
X78802286Y-66484138D01*
X78802286Y-66484138D02*
X78689618Y-66584047D01*
X78689618Y-66584047D02*
X78559520Y-66618906D01*
X78559520Y-66618906D02*
X78453232Y-66612527D01*
X78453232Y-66612527D02*
X78264465Y-66558528D01*
X78264465Y-66558528D02*
X78140747Y-66487099D01*
X78140747Y-66487099D02*
X77999600Y-66350622D01*
X77999600Y-66350622D02*
X77940931Y-66261764D01*
X77940931Y-66261764D02*
X77906071Y-66131666D01*
X77906071Y-66131666D02*
X77936260Y-65984138D01*
X77936260Y-65984138D02*
X77983879Y-65901660D01*
X77983879Y-65901660D02*
X78096547Y-65801751D01*
X78096547Y-65801751D02*
X78161596Y-65784322D01*
X79421333Y-65411917D02*
X79135619Y-65906788D01*
X79278476Y-65659352D02*
X78412451Y-65159352D01*
X78412451Y-65159352D02*
X78488550Y-65313260D01*
X78488550Y-65313260D02*
X78523409Y-65443357D01*
X78523409Y-65443357D02*
X78517029Y-65549645D01*
X79007689Y-64128370D02*
X78769594Y-64540763D01*
X78769594Y-64540763D02*
X79158177Y-64820097D01*
X79158177Y-64820097D02*
X79140747Y-64755048D01*
X79140747Y-64755048D02*
X79147127Y-64648760D01*
X79147127Y-64648760D02*
X79266175Y-64442564D01*
X79266175Y-64442564D02*
X79355033Y-64383895D01*
X79355033Y-64383895D02*
X79420082Y-64366465D01*
X79420082Y-64366465D02*
X79526370Y-64372845D01*
X79526370Y-64372845D02*
X79732567Y-64491892D01*
X79732567Y-64491892D02*
X79791236Y-64580751D01*
X79791236Y-64580751D02*
X79808665Y-64645799D01*
X79808665Y-64645799D02*
X79802286Y-64752088D01*
X79802286Y-64752088D02*
X79683238Y-64958284D01*
X79683238Y-64958284D02*
X79594380Y-65016953D01*
X79594380Y-65016953D02*
X79529331Y-65034383D01*
D12*
X75519726Y-68032433D02*
X75259918Y-67882433D01*
X75259918Y-67882433D02*
X75295632Y-67820574D01*
X75295632Y-67820574D02*
X75329433Y-67790602D01*
X75329433Y-67790602D02*
X75368462Y-67780144D01*
X75368462Y-67780144D02*
X75400348Y-67782058D01*
X75400348Y-67782058D02*
X75456978Y-67798257D01*
X75456978Y-67798257D02*
X75494094Y-67819686D01*
X75494094Y-67819686D02*
X75536438Y-67860629D01*
X75536438Y-67860629D02*
X75554039Y-67887287D01*
X75554039Y-67887287D02*
X75564497Y-67926316D01*
X75564497Y-67926316D02*
X75555440Y-67970574D01*
X75555440Y-67970574D02*
X75519726Y-68032433D01*
X75676868Y-67760254D02*
X75705440Y-67710766D01*
X75705440Y-67710766D02*
X75707354Y-67678880D01*
X75707354Y-67678880D02*
X75702125Y-67659365D01*
X75702125Y-67659365D02*
X75679295Y-67613193D01*
X75679295Y-67613193D02*
X75636951Y-67572250D01*
X75636951Y-67572250D02*
X75537977Y-67515107D01*
X75537977Y-67515107D02*
X75506090Y-67513193D01*
X75506090Y-67513193D02*
X75486575Y-67518422D01*
X75486575Y-67518422D02*
X75459918Y-67536023D01*
X75459918Y-67536023D02*
X75431347Y-67585510D01*
X75431347Y-67585510D02*
X75429433Y-67617396D01*
X75429433Y-67617396D02*
X75434662Y-67636911D01*
X75434662Y-67636911D02*
X75452262Y-67663569D01*
X75452262Y-67663569D02*
X75514121Y-67699283D01*
X75514121Y-67699283D02*
X75546008Y-67701197D01*
X75546008Y-67701197D02*
X75565522Y-67695968D01*
X75565522Y-67695968D02*
X75592180Y-67678367D01*
X75592180Y-67678367D02*
X75620751Y-67628880D01*
X75620751Y-67628880D02*
X75622665Y-67596994D01*
X75622665Y-67596994D02*
X75617436Y-67577479D01*
X75617436Y-67577479D02*
X75599836Y-67550821D01*
D10*
X80849006Y-55843878D02*
X80961674Y-55743970D01*
X80961674Y-55743970D02*
X81080721Y-55537773D01*
X81080721Y-55537773D02*
X81087101Y-55431485D01*
X81087101Y-55431485D02*
X81069671Y-55366436D01*
X81069671Y-55366436D02*
X81011002Y-55277578D01*
X81011002Y-55277578D02*
X80928523Y-55229959D01*
X80928523Y-55229959D02*
X80822235Y-55223579D01*
X80822235Y-55223579D02*
X80757186Y-55241009D01*
X80757186Y-55241009D02*
X80668328Y-55299678D01*
X80668328Y-55299678D02*
X80531851Y-55440826D01*
X80531851Y-55440826D02*
X80442992Y-55499495D01*
X80442992Y-55499495D02*
X80377944Y-55516925D01*
X80377944Y-55516925D02*
X80271655Y-55510545D01*
X80271655Y-55510545D02*
X80189177Y-55462926D01*
X80189177Y-55462926D02*
X80130508Y-55374067D01*
X80130508Y-55374067D02*
X80113078Y-55309019D01*
X80113078Y-55309019D02*
X80119458Y-55202730D01*
X80119458Y-55202730D02*
X80238505Y-54996534D01*
X80238505Y-54996534D02*
X80351173Y-54896626D01*
X81390245Y-55001662D02*
X80524220Y-54501662D01*
X81675959Y-54506791D02*
X80966802Y-54592230D01*
X80809934Y-54006791D02*
X81019091Y-54787377D01*
X81238505Y-53264483D02*
X81143267Y-53429440D01*
X81143267Y-53429440D02*
X81136887Y-53535728D01*
X81136887Y-53535728D02*
X81154317Y-53600777D01*
X81154317Y-53600777D02*
X81230416Y-53754684D01*
X81230416Y-53754684D02*
X81371564Y-53891162D01*
X81371564Y-53891162D02*
X81701478Y-54081638D01*
X81701478Y-54081638D02*
X81807766Y-54088018D01*
X81807766Y-54088018D02*
X81872815Y-54070588D01*
X81872815Y-54070588D02*
X81961674Y-54011919D01*
X81961674Y-54011919D02*
X82056912Y-53846962D01*
X82056912Y-53846962D02*
X82063291Y-53740674D01*
X82063291Y-53740674D02*
X82045862Y-53675625D01*
X82045862Y-53675625D02*
X81987193Y-53586766D01*
X81987193Y-53586766D02*
X81780996Y-53467719D01*
X81780996Y-53467719D02*
X81674708Y-53461339D01*
X81674708Y-53461339D02*
X81609659Y-53478769D01*
X81609659Y-53478769D02*
X81520801Y-53537438D01*
X81520801Y-53537438D02*
X81425563Y-53702395D01*
X81425563Y-53702395D02*
X81419183Y-53808683D01*
X81419183Y-53808683D02*
X81436613Y-53873732D01*
X81436613Y-53873732D02*
X81495282Y-53962590D01*
X81942992Y-52901418D02*
X81854134Y-52960088D01*
X81854134Y-52960088D02*
X81789085Y-52977517D01*
X81789085Y-52977517D02*
X81682797Y-52971138D01*
X81682797Y-52971138D02*
X81641558Y-52947328D01*
X81641558Y-52947328D02*
X81582889Y-52858470D01*
X81582889Y-52858470D02*
X81565459Y-52793421D01*
X81565459Y-52793421D02*
X81571839Y-52687133D01*
X81571839Y-52687133D02*
X81667077Y-52522176D01*
X81667077Y-52522176D02*
X81755935Y-52463506D01*
X81755935Y-52463506D02*
X81820984Y-52446077D01*
X81820984Y-52446077D02*
X81927272Y-52452456D01*
X81927272Y-52452456D02*
X81968511Y-52476266D01*
X81968511Y-52476266D02*
X82027180Y-52565124D01*
X82027180Y-52565124D02*
X82044610Y-52630173D01*
X82044610Y-52630173D02*
X82038230Y-52736461D01*
X82038230Y-52736461D02*
X81942992Y-52901418D01*
X81942992Y-52901418D02*
X81936613Y-53007707D01*
X81936613Y-53007707D02*
X81954042Y-53072755D01*
X81954042Y-53072755D02*
X82012712Y-53161614D01*
X82012712Y-53161614D02*
X82177669Y-53256852D01*
X82177669Y-53256852D02*
X82283957Y-53263232D01*
X82283957Y-53263232D02*
X82349006Y-53245802D01*
X82349006Y-53245802D02*
X82437864Y-53187133D01*
X82437864Y-53187133D02*
X82533102Y-53022176D01*
X82533102Y-53022176D02*
X82539482Y-52915887D01*
X82539482Y-52915887D02*
X82522052Y-52850839D01*
X82522052Y-52850839D02*
X82463383Y-52761980D01*
X82463383Y-52761980D02*
X82298426Y-52666742D01*
X82298426Y-52666742D02*
X82192138Y-52660362D01*
X82192138Y-52660362D02*
X82127089Y-52677792D01*
X82127089Y-52677792D02*
X82038230Y-52736461D01*
X83104531Y-52032432D02*
X82818816Y-52527304D01*
X82961674Y-52279868D02*
X82095648Y-51779868D01*
X82095648Y-51779868D02*
X82171747Y-51933775D01*
X82171747Y-51933775D02*
X82206607Y-52063873D01*
X82206607Y-52063873D02*
X82200227Y-52170161D01*
X82511460Y-51250137D02*
X82494030Y-51185088D01*
X82494030Y-51185088D02*
X82500410Y-51078800D01*
X82500410Y-51078800D02*
X82619458Y-50872603D01*
X82619458Y-50872603D02*
X82708316Y-50813934D01*
X82708316Y-50813934D02*
X82773365Y-50796504D01*
X82773365Y-50796504D02*
X82879653Y-50802884D01*
X82879653Y-50802884D02*
X82962132Y-50850503D01*
X82962132Y-50850503D02*
X83062040Y-50963171D01*
X83062040Y-50963171D02*
X83271197Y-51743757D01*
X83271197Y-51743757D02*
X83580721Y-51207646D01*
X83758438Y-51090308D02*
X84139390Y-50430479D01*
X83722327Y-49914758D02*
X83888994Y-49626083D01*
X84414055Y-49764270D02*
X84175959Y-50176663D01*
X84175959Y-50176663D02*
X83309934Y-49676663D01*
X83309934Y-49676663D02*
X83548029Y-49264270D01*
X84831576Y-48850626D02*
X84849006Y-48915674D01*
X84849006Y-48915674D02*
X84818817Y-49063202D01*
X84818817Y-49063202D02*
X84771198Y-49145680D01*
X84771198Y-49145680D02*
X84658530Y-49245589D01*
X84658530Y-49245589D02*
X84528432Y-49280448D01*
X84528432Y-49280448D02*
X84422144Y-49274069D01*
X84422144Y-49274069D02*
X84233377Y-49220070D01*
X84233377Y-49220070D02*
X84109659Y-49148641D01*
X84109659Y-49148641D02*
X83968512Y-49012164D01*
X83968512Y-49012164D02*
X83909843Y-48923306D01*
X83909843Y-48923306D02*
X83874983Y-48793208D01*
X83874983Y-48793208D02*
X83905172Y-48645680D01*
X83905172Y-48645680D02*
X83952791Y-48563202D01*
X83952791Y-48563202D02*
X84065459Y-48463293D01*
X84065459Y-48463293D02*
X84130508Y-48445864D01*
X85390245Y-48073459D02*
X85104531Y-48568330D01*
X85247388Y-48320894D02*
X84381363Y-47820894D01*
X84381363Y-47820894D02*
X84457462Y-47974802D01*
X84457462Y-47974802D02*
X84492321Y-48104899D01*
X84492321Y-48104899D02*
X84485941Y-48211187D01*
X84976601Y-46789912D02*
X84738506Y-47202305D01*
X84738506Y-47202305D02*
X85127089Y-47481639D01*
X85127089Y-47481639D02*
X85109659Y-47416590D01*
X85109659Y-47416590D02*
X85116039Y-47310302D01*
X85116039Y-47310302D02*
X85235087Y-47104106D01*
X85235087Y-47104106D02*
X85323945Y-47045437D01*
X85323945Y-47045437D02*
X85388994Y-47028007D01*
X85388994Y-47028007D02*
X85495282Y-47034387D01*
X85495282Y-47034387D02*
X85701479Y-47153434D01*
X85701479Y-47153434D02*
X85760148Y-47242293D01*
X85760148Y-47242293D02*
X85777577Y-47307341D01*
X85777577Y-47307341D02*
X85771198Y-47413630D01*
X85771198Y-47413630D02*
X85652150Y-47619826D01*
X85652150Y-47619826D02*
X85563292Y-47678495D01*
X85563292Y-47678495D02*
X85498243Y-47695925D01*
D12*
X84494726Y-52487277D02*
X84234918Y-52337277D01*
X84234918Y-52337277D02*
X84270632Y-52275418D01*
X84270632Y-52275418D02*
X84304433Y-52245446D01*
X84304433Y-52245446D02*
X84343462Y-52234988D01*
X84343462Y-52234988D02*
X84375348Y-52236902D01*
X84375348Y-52236902D02*
X84431978Y-52253101D01*
X84431978Y-52253101D02*
X84469094Y-52274530D01*
X84469094Y-52274530D02*
X84511438Y-52315473D01*
X84511438Y-52315473D02*
X84529039Y-52342131D01*
X84529039Y-52342131D02*
X84539497Y-52381160D01*
X84539497Y-52381160D02*
X84530440Y-52425418D01*
X84530440Y-52425418D02*
X84494726Y-52487277D01*
X84370632Y-52102213D02*
X84463489Y-51941380D01*
X84463489Y-51941380D02*
X84512464Y-52085125D01*
X84512464Y-52085125D02*
X84533892Y-52048010D01*
X84533892Y-52048010D02*
X84560550Y-52030409D01*
X84560550Y-52030409D02*
X84580064Y-52025180D01*
X84580064Y-52025180D02*
X84611951Y-52027094D01*
X84611951Y-52027094D02*
X84673810Y-52062808D01*
X84673810Y-52062808D02*
X84691411Y-52089466D01*
X84691411Y-52089466D02*
X84696639Y-52108980D01*
X84696639Y-52108980D02*
X84694726Y-52140867D01*
X84694726Y-52140867D02*
X84651868Y-52215098D01*
X84651868Y-52215098D02*
X84625211Y-52232698D01*
X84625211Y-52232698D02*
X84605696Y-52237927D01*
D10*
X87624286Y-60054819D02*
X88243333Y-60054819D01*
X88243333Y-60054819D02*
X87910000Y-60435771D01*
X87910000Y-60435771D02*
X88052857Y-60435771D01*
X88052857Y-60435771D02*
X88148095Y-60483390D01*
X88148095Y-60483390D02*
X88195714Y-60531009D01*
X88195714Y-60531009D02*
X88243333Y-60626247D01*
X88243333Y-60626247D02*
X88243333Y-60864342D01*
X88243333Y-60864342D02*
X88195714Y-60959580D01*
X88195714Y-60959580D02*
X88148095Y-61007200D01*
X88148095Y-61007200D02*
X88052857Y-61054819D01*
X88052857Y-61054819D02*
X87767143Y-61054819D01*
X87767143Y-61054819D02*
X87671905Y-61007200D01*
X87671905Y-61007200D02*
X87624286Y-60959580D01*
X88576667Y-60054819D02*
X89195714Y-60054819D01*
X89195714Y-60054819D02*
X88862381Y-60435771D01*
X88862381Y-60435771D02*
X89005238Y-60435771D01*
X89005238Y-60435771D02*
X89100476Y-60483390D01*
X89100476Y-60483390D02*
X89148095Y-60531009D01*
X89148095Y-60531009D02*
X89195714Y-60626247D01*
X89195714Y-60626247D02*
X89195714Y-60864342D01*
X89195714Y-60864342D02*
X89148095Y-60959580D01*
X89148095Y-60959580D02*
X89100476Y-61007200D01*
X89100476Y-61007200D02*
X89005238Y-61054819D01*
X89005238Y-61054819D02*
X88719524Y-61054819D01*
X88719524Y-61054819D02*
X88624286Y-61007200D01*
X88624286Y-61007200D02*
X88576667Y-60959580D01*
X89814762Y-60054819D02*
X89910000Y-60054819D01*
X89910000Y-60054819D02*
X90005238Y-60102438D01*
X90005238Y-60102438D02*
X90052857Y-60150057D01*
X90052857Y-60150057D02*
X90100476Y-60245295D01*
X90100476Y-60245295D02*
X90148095Y-60435771D01*
X90148095Y-60435771D02*
X90148095Y-60673866D01*
X90148095Y-60673866D02*
X90100476Y-60864342D01*
X90100476Y-60864342D02*
X90052857Y-60959580D01*
X90052857Y-60959580D02*
X90005238Y-61007200D01*
X90005238Y-61007200D02*
X89910000Y-61054819D01*
X89910000Y-61054819D02*
X89814762Y-61054819D01*
X89814762Y-61054819D02*
X89719524Y-61007200D01*
X89719524Y-61007200D02*
X89671905Y-60959580D01*
X89671905Y-60959580D02*
X89624286Y-60864342D01*
X89624286Y-60864342D02*
X89576667Y-60673866D01*
X89576667Y-60673866D02*
X89576667Y-60435771D01*
X89576667Y-60435771D02*
X89624286Y-60245295D01*
X89624286Y-60245295D02*
X89671905Y-60150057D01*
X89671905Y-60150057D02*
X89719524Y-60102438D01*
X89719524Y-60102438D02*
X89814762Y-60054819D01*
D11*
X88868333Y-62443574D02*
X88785000Y-62324527D01*
X88725476Y-62443574D02*
X88725476Y-62193574D01*
X88725476Y-62193574D02*
X88820714Y-62193574D01*
X88820714Y-62193574D02*
X88844524Y-62205479D01*
X88844524Y-62205479D02*
X88856429Y-62217384D01*
X88856429Y-62217384D02*
X88868333Y-62241193D01*
X88868333Y-62241193D02*
X88868333Y-62276908D01*
X88868333Y-62276908D02*
X88856429Y-62300717D01*
X88856429Y-62300717D02*
X88844524Y-62312622D01*
X88844524Y-62312622D02*
X88820714Y-62324527D01*
X88820714Y-62324527D02*
X88725476Y-62324527D01*
X89106429Y-62443574D02*
X88963572Y-62443574D01*
X89035000Y-62443574D02*
X89035000Y-62193574D01*
X89035000Y-62193574D02*
X89011191Y-62229289D01*
X89011191Y-62229289D02*
X88987381Y-62253098D01*
X88987381Y-62253098D02*
X88963572Y-62265003D01*
D10*
X82386938Y-51717900D02*
X82101224Y-52212772D01*
X82244081Y-51965336D02*
X81378056Y-51465336D01*
X81378056Y-51465336D02*
X81454155Y-51619243D01*
X81454155Y-51619243D02*
X81489014Y-51749341D01*
X81489014Y-51749341D02*
X81482634Y-51855629D01*
X82238159Y-50642260D02*
X82815510Y-50975593D01*
X82023874Y-51013413D02*
X82477506Y-51275318D01*
X82477506Y-51275318D02*
X82583794Y-51281698D01*
X82583794Y-51281698D02*
X82672653Y-51223029D01*
X82672653Y-51223029D02*
X82744081Y-51099311D01*
X82744081Y-51099311D02*
X82750461Y-50993023D01*
X82750461Y-50993023D02*
X82733031Y-50927974D01*
X82766639Y-50012620D02*
X82599973Y-50301295D01*
X83053605Y-50563200D02*
X82187580Y-50063200D01*
X82187580Y-50063200D02*
X82425675Y-49650807D01*
D11*
X83845802Y-51920966D02*
X83850160Y-51937228D01*
X83850160Y-51937228D02*
X83842613Y-51974110D01*
X83842613Y-51974110D02*
X83830708Y-51994730D01*
X83830708Y-51994730D02*
X83802541Y-52019707D01*
X83802541Y-52019707D02*
X83770016Y-52028422D01*
X83770016Y-52028422D02*
X83743444Y-52026827D01*
X83743444Y-52026827D02*
X83696253Y-52013327D01*
X83696253Y-52013327D02*
X83665323Y-51995470D01*
X83665323Y-51995470D02*
X83630036Y-51961351D01*
X83630036Y-51961351D02*
X83615369Y-51939136D01*
X83615369Y-51939136D02*
X83606654Y-51906612D01*
X83606654Y-51906612D02*
X83614201Y-51869730D01*
X83614201Y-51869730D02*
X83626106Y-51849110D01*
X83626106Y-51849110D02*
X83654273Y-51824133D01*
X83654273Y-51824133D02*
X83670535Y-51819775D01*
X83691582Y-51735702D02*
X83768963Y-51601674D01*
X83768963Y-51601674D02*
X83809775Y-51721462D01*
X83809775Y-51721462D02*
X83827632Y-51690533D01*
X83827632Y-51690533D02*
X83849847Y-51675865D01*
X83849847Y-51675865D02*
X83866109Y-51671508D01*
X83866109Y-51671508D02*
X83892681Y-51673103D01*
X83892681Y-51673103D02*
X83944230Y-51702865D01*
X83944230Y-51702865D02*
X83958898Y-51725079D01*
X83958898Y-51725079D02*
X83963255Y-51741341D01*
X83963255Y-51741341D02*
X83961660Y-51767914D01*
X83961660Y-51767914D02*
X83925946Y-51829772D01*
X83925946Y-51829772D02*
X83903731Y-51844440D01*
X83903731Y-51844440D02*
X83887469Y-51848797D01*
D13*
%TO.C,FID2*%
X80500000Y-71000000D02*
G75*
G03*
X80500000Y-71000000I-500000J0D01*
G01*
%TO.C,D11*%
X84225481Y-68818748D02*
X83662981Y-67844469D01*
X85524519Y-68068748D02*
X84225481Y-68818748D01*
X83662981Y-67844469D02*
X83800240Y-67332210D01*
X83800240Y-67332210D02*
X84774519Y-66769710D01*
X84774519Y-66769710D02*
X85524519Y-68068748D01*
X84964711Y-67699133D02*
X84641506Y-67539325D01*
X84987917Y-67339325D01*
X84964711Y-67699133D01*
G36*
X84964711Y-67699133D02*
G01*
X84641506Y-67539325D01*
X84987917Y-67339325D01*
X84964711Y-67699133D01*
G37*
%TO.C,C4*%
X78650000Y-50760000D02*
X78650000Y-51360000D01*
X78350000Y-50760000D02*
X78650000Y-50760000D01*
X78650000Y-51360000D02*
X78350000Y-51360000D01*
X78350000Y-51360000D02*
X78350000Y-50760000D01*
%TO.C,C5*%
X74169904Y-52597925D02*
X74469904Y-53117541D01*
X73910096Y-52747925D02*
X74169904Y-52597925D01*
X74469904Y-53117541D02*
X74210096Y-53267541D01*
X74210096Y-53267541D02*
X73910096Y-52747925D01*
%TO.C,D1*%
X89750000Y-60750000D02*
X88625000Y-60750000D01*
X89750000Y-59250000D02*
X89750000Y-60750000D01*
X88625000Y-60750000D02*
X88250000Y-60375000D01*
X88250000Y-60375000D02*
X88250000Y-59250000D01*
X88250000Y-59250000D02*
X89750000Y-59250000D01*
X89150000Y-59550000D02*
X88850000Y-59750000D01*
X88850000Y-59350000D01*
X89150000Y-59550000D01*
G36*
X89150000Y-59550000D02*
G01*
X88850000Y-59750000D01*
X88850000Y-59350000D01*
X89150000Y-59550000D01*
G37*
%TO.C,D4*%
X80750000Y-50250000D02*
X80750000Y-51375000D01*
X79250000Y-50250000D02*
X80750000Y-50250000D01*
X80750000Y-51375000D02*
X80375000Y-51750000D01*
X80375000Y-51750000D02*
X79250000Y-51750000D01*
X79250000Y-51750000D02*
X79250000Y-50250000D01*
X79750000Y-51150000D02*
X79350000Y-51150000D01*
X79550000Y-50850000D01*
X79750000Y-51150000D01*
G36*
X79750000Y-51150000D02*
G01*
X79350000Y-51150000D01*
X79550000Y-50850000D01*
X79750000Y-51150000D01*
G37*
%TO.C,D12*%
X88068748Y-65524519D02*
X87094469Y-64962019D01*
X88818748Y-64225481D02*
X88068748Y-65524519D01*
X87094469Y-64962019D02*
X86957210Y-64449760D01*
X86957210Y-64449760D02*
X87519710Y-63475481D01*
X87519710Y-63475481D02*
X88818748Y-64225481D01*
X88149133Y-64185289D02*
X87789325Y-64208494D01*
X87989325Y-63862083D01*
X88149133Y-64185289D01*
G36*
X88149133Y-64185289D02*
G01*
X87789325Y-64208494D01*
X87989325Y-63862083D01*
X88149133Y-64185289D01*
G37*
%TO.C,D8*%
X71181252Y-64225481D02*
X72155531Y-63662981D01*
X71931252Y-65524519D02*
X71181252Y-64225481D01*
X72155531Y-63662981D02*
X72667790Y-63800240D01*
X72667790Y-63800240D02*
X73230290Y-64774519D01*
X73230290Y-64774519D02*
X71931252Y-65524519D01*
X72660675Y-64987917D02*
X72300867Y-64964711D01*
X72460675Y-64641506D01*
X72660675Y-64987917D01*
G36*
X72660675Y-64987917D02*
G01*
X72300867Y-64964711D01*
X72460675Y-64641506D01*
X72660675Y-64987917D01*
G37*
%TO.C,D10*%
X79250000Y-69750000D02*
X79250000Y-68625000D01*
X80750000Y-69750000D02*
X79250000Y-69750000D01*
X79250000Y-68625000D02*
X79625000Y-68250000D01*
X79625000Y-68250000D02*
X80750000Y-68250000D01*
X80750000Y-68250000D02*
X80750000Y-69750000D01*
X80450000Y-69150000D02*
X80250000Y-68850000D01*
X80650000Y-68850000D01*
X80450000Y-69150000D01*
G36*
X80450000Y-69150000D02*
G01*
X80250000Y-68850000D01*
X80650000Y-68850000D01*
X80450000Y-69150000D01*
G37*
%TO.C,D7*%
X70250000Y-59250000D02*
X71375000Y-59250000D01*
X70250000Y-60750000D02*
X70250000Y-59250000D01*
X71375000Y-59250000D02*
X71750000Y-59625000D01*
X71750000Y-59625000D02*
X71750000Y-60750000D01*
X71750000Y-60750000D02*
X70250000Y-60750000D01*
X71150000Y-60650000D02*
X70850000Y-60450000D01*
X71150000Y-60250000D01*
X71150000Y-60650000D01*
G36*
X71150000Y-60650000D02*
G01*
X70850000Y-60450000D01*
X71150000Y-60250000D01*
X71150000Y-60650000D01*
G37*
%TO.C,D6*%
X71931252Y-54475481D02*
X72905531Y-55037981D01*
X71181252Y-55774519D02*
X71931252Y-54475481D01*
X72905531Y-55037981D02*
X73042790Y-55550240D01*
X73042790Y-55550240D02*
X72480290Y-56524519D01*
X72480290Y-56524519D02*
X71181252Y-55774519D01*
X72010675Y-56137917D02*
X71850867Y-55814711D01*
X72210675Y-55791506D01*
X72010675Y-56137917D01*
G36*
X72010675Y-56137917D02*
G01*
X71850867Y-55814711D01*
X72210675Y-55791506D01*
X72010675Y-56137917D01*
G37*
%TO.C,FID1*%
X80500000Y-49000000D02*
G75*
G03*
X80500000Y-49000000I-500000J0D01*
G01*
%TO.C,C7*%
X70700000Y-61350000D02*
X71300000Y-61350000D01*
X70700000Y-61650000D02*
X70700000Y-61350000D01*
X71300000Y-61350000D02*
X71300000Y-61650000D01*
X71300000Y-61650000D02*
X70700000Y-61650000D01*
%TO.C,D13*%
X88550000Y-57600000D02*
X88550000Y-56800000D01*
X89150000Y-57600000D02*
X88550000Y-57600000D01*
X88850000Y-57350000D02*
X88850000Y-57450000D01*
X88850000Y-57350000D02*
X89050000Y-57050000D01*
X89050000Y-57350000D02*
X88650000Y-57350000D01*
X88650000Y-57050000D02*
X88850000Y-57350000D01*
X88850000Y-57050000D02*
X88850000Y-56950000D01*
X89050000Y-57050000D02*
X88650000Y-57050000D01*
X88550000Y-56800000D02*
X89150000Y-56800000D01*
X89150000Y-56800000D02*
X89150000Y-57600000D01*
%TO.C,C8*%
X72665192Y-65770096D02*
X73184808Y-65470096D01*
X72815192Y-66029904D02*
X72665192Y-65770096D01*
X73184808Y-65470096D02*
X73334808Y-65729904D01*
X73334808Y-65729904D02*
X72815192Y-66029904D01*
%TO.C,C9*%
X76520096Y-68684808D02*
X76820096Y-68165192D01*
X76779904Y-68834808D02*
X76520096Y-68684808D01*
X76820096Y-68165192D02*
X77079904Y-68315192D01*
X77079904Y-68315192D02*
X76779904Y-68834808D01*
%TO.C,C11*%
X85820096Y-67402075D02*
X85520096Y-66882459D01*
X86079904Y-67252075D02*
X85820096Y-67402075D01*
X85520096Y-66882459D02*
X85779904Y-66732459D01*
X85779904Y-66732459D02*
X86079904Y-67252075D01*
%TO.C,C6*%
X71315192Y-56520096D02*
X71834808Y-56820096D01*
X71165192Y-56779904D02*
X71315192Y-56520096D01*
X71834808Y-56820096D02*
X71684808Y-57079904D01*
X71684808Y-57079904D02*
X71165192Y-56779904D01*
%TO.C,C10*%
X81350000Y-69330000D02*
X81350000Y-68730000D01*
X81650000Y-69330000D02*
X81350000Y-69330000D01*
X81350000Y-68730000D02*
X81650000Y-68730000D01*
X81650000Y-68730000D02*
X81650000Y-69330000D01*
%TO.C,D2*%
X88818748Y-55774519D02*
X87844469Y-56337019D01*
X88068748Y-54475481D02*
X88818748Y-55774519D01*
X87844469Y-56337019D02*
X87332210Y-56199760D01*
X87332210Y-56199760D02*
X86769710Y-55225481D01*
X86769710Y-55225481D02*
X88068748Y-54475481D01*
X87699133Y-55035289D02*
X87539325Y-55358494D01*
X87339325Y-55012083D01*
X87699133Y-55035289D01*
G36*
X87699133Y-55035289D02*
G01*
X87539325Y-55358494D01*
X87339325Y-55012083D01*
X87699133Y-55035289D01*
G37*
%TO.C,C1*%
X88850000Y-58450000D02*
X89450000Y-58450000D01*
X88850000Y-58750000D02*
X88850000Y-58450000D01*
X89450000Y-58450000D02*
X89450000Y-58750000D01*
X89450000Y-58750000D02*
X88850000Y-58750000D01*
%TO.C,C2*%
X87334808Y-54229904D02*
X86815192Y-54529904D01*
X87184808Y-53970096D02*
X87334808Y-54229904D01*
X86815192Y-54529904D02*
X86665192Y-54270096D01*
X86665192Y-54270096D02*
X87184808Y-53970096D01*
%TO.C,D5*%
X75774519Y-51181252D02*
X76337019Y-52155531D01*
X74475481Y-51931252D02*
X75774519Y-51181252D01*
X76337019Y-52155531D02*
X76199760Y-52667790D01*
X76199760Y-52667790D02*
X75225481Y-53230290D01*
X75225481Y-53230290D02*
X74475481Y-51931252D01*
X75358494Y-52460675D02*
X75012083Y-52660675D01*
X75035289Y-52300867D01*
X75358494Y-52460675D01*
G36*
X75358494Y-52460675D02*
G01*
X75012083Y-52660675D01*
X75035289Y-52300867D01*
X75358494Y-52460675D01*
G37*
%TO.C,C12*%
X88734808Y-63529904D02*
X88215192Y-63229904D01*
X88884808Y-63270096D02*
X88734808Y-63529904D01*
X88215192Y-63229904D02*
X88365192Y-62970096D01*
X88365192Y-62970096D02*
X88884808Y-63270096D01*
%TO.C,D9*%
X74475481Y-68068748D02*
X75037981Y-67094469D01*
X75774519Y-68818748D02*
X74475481Y-68068748D01*
X75037981Y-67094469D02*
X75550240Y-66957210D01*
X75550240Y-66957210D02*
X76524519Y-67519710D01*
X76524519Y-67519710D02*
X75774519Y-68818748D01*
X76137917Y-67989325D02*
X75814711Y-68149133D01*
X75791506Y-67789325D01*
X76137917Y-67989325D01*
G36*
X76137917Y-67989325D02*
G01*
X75814711Y-68149133D01*
X75791506Y-67789325D01*
X76137917Y-67989325D01*
G37*
%TO.C,D3*%
X85524519Y-51931252D02*
X84962019Y-52905531D01*
X84225481Y-51181252D02*
X85524519Y-51931252D01*
X84962019Y-52905531D02*
X84449760Y-53042790D01*
X84449760Y-53042790D02*
X83475481Y-52480290D01*
X83475481Y-52480290D02*
X84225481Y-51181252D01*
X84208494Y-52210675D02*
X83862083Y-52010675D01*
X84185289Y-51850867D01*
X84208494Y-52210675D01*
G36*
X84208494Y-52210675D02*
G01*
X83862083Y-52010675D01*
X84185289Y-51850867D01*
X84208494Y-52210675D01*
G37*
%TO.C,R1*%
X89210000Y-61800000D02*
X88610000Y-61800000D01*
X89210000Y-61500000D02*
X89210000Y-61800000D01*
X88610000Y-61800000D02*
X88610000Y-61500000D01*
X88610000Y-61500000D02*
X89210000Y-61500000D01*
%TO.C,C3*%
X83479904Y-51315192D02*
X83179904Y-51834808D01*
X83220096Y-51165192D02*
X83479904Y-51315192D01*
X83179904Y-51834808D02*
X82920096Y-51684808D01*
X82920096Y-51684808D02*
X83220096Y-51165192D01*
%TD*%
M02*
