%TF.GenerationSoftware,KiCad,Pcbnew,7.0.8-7.0.8~ubuntu23.04.1*%
%TF.CreationDate,2023-10-20T09:28:23+00:00*%
%TF.ProjectId,pedalboard-led-ring,70656461-6c62-46f6-9172-642d6c65642d,1.1.0-RC1*%
%TF.SameCoordinates,Original*%
%TF.FileFunction,Other,User*%
%FSLAX46Y46*%
G04 Gerber Fmt 4.6, Leading zero omitted, Abs format (unit mm)*
G04 Created by KiCad (PCBNEW 7.0.8-7.0.8~ubuntu23.04.1) date 2023-10-20 09:28:23*
%MOMM*%
%LPD*%
G01*
G04 APERTURE LIST*
%ADD10C,0.050000*%
G04 APERTURE END LIST*
D10*
%TO.C,FID2*%
X80750000Y-71000000D02*
G75*
G03*
X80750000Y-71000000I-750000J0D01*
G01*
%TO.C,D11*%
X84133975Y-69160254D02*
X83133975Y-67428204D01*
X85866025Y-68160254D02*
X84133975Y-69160254D01*
X83133975Y-67428204D02*
X84866025Y-66428204D01*
X84866025Y-66428204D02*
X85866025Y-68160254D01*
%TO.C,C4*%
X78850000Y-50180000D02*
X78850000Y-51940000D01*
X78150000Y-50180000D02*
X78850000Y-50180000D01*
X78850000Y-51940000D02*
X78150000Y-51940000D01*
X78150000Y-51940000D02*
X78150000Y-50180000D01*
%TO.C,C5*%
X74053109Y-51995631D02*
X74933109Y-53519835D01*
X73446891Y-52345631D02*
X74053109Y-51995631D01*
X74933109Y-53519835D02*
X74326891Y-53869835D01*
X74326891Y-53869835D02*
X73446891Y-52345631D01*
%TO.C,D1*%
X90000000Y-61000000D02*
X88000000Y-61000000D01*
X90000000Y-59000000D02*
X90000000Y-61000000D01*
X88000000Y-61000000D02*
X88000000Y-59000000D01*
X88000000Y-59000000D02*
X90000000Y-59000000D01*
%TO.C,D4*%
X81000000Y-50000000D02*
X81000000Y-52000000D01*
X79000000Y-50000000D02*
X81000000Y-50000000D01*
X81000000Y-52000000D02*
X79000000Y-52000000D01*
X79000000Y-52000000D02*
X79000000Y-50000000D01*
%TO.C,D12*%
X88160254Y-65866025D02*
X86428204Y-64866025D01*
X89160254Y-64133975D02*
X88160254Y-65866025D01*
X86428204Y-64866025D02*
X87428204Y-63133975D01*
X87428204Y-63133975D02*
X89160254Y-64133975D01*
%TO.C,D8*%
X70839746Y-64133975D02*
X72571796Y-63133975D01*
X71839746Y-65866025D02*
X70839746Y-64133975D01*
X72571796Y-63133975D02*
X73571796Y-64866025D01*
X73571796Y-64866025D02*
X71839746Y-65866025D01*
%TO.C,D10*%
X79000000Y-70000000D02*
X79000000Y-68000000D01*
X81000000Y-70000000D02*
X79000000Y-70000000D01*
X79000000Y-68000000D02*
X81000000Y-68000000D01*
X81000000Y-68000000D02*
X81000000Y-70000000D01*
%TO.C,D7*%
X70000000Y-59000000D02*
X72000000Y-59000000D01*
X70000000Y-61000000D02*
X70000000Y-59000000D01*
X72000000Y-59000000D02*
X72000000Y-61000000D01*
X72000000Y-61000000D02*
X70000000Y-61000000D01*
%TO.C,D6*%
X71839746Y-54133975D02*
X73571796Y-55133975D01*
X70839746Y-55866025D02*
X71839746Y-54133975D01*
X73571796Y-55133975D02*
X72571796Y-56866025D01*
X72571796Y-56866025D02*
X70839746Y-55866025D01*
%TO.C,FID1*%
X80750000Y-49000000D02*
G75*
G03*
X80750000Y-49000000I-750000J0D01*
G01*
%TO.C,C7*%
X70120000Y-61150000D02*
X71880000Y-61150000D01*
X70120000Y-61850000D02*
X70120000Y-61150000D01*
X71880000Y-61150000D02*
X71880000Y-61850000D01*
X71880000Y-61850000D02*
X70120000Y-61850000D01*
%TO.C,D13*%
X88570000Y-57950000D02*
X89130000Y-57950000D01*
X89130000Y-57950000D02*
X89130000Y-57750000D01*
X88400000Y-57750000D02*
X88400000Y-56650000D01*
X88570000Y-57750000D02*
X88570000Y-57950000D01*
X88570000Y-57750000D02*
X88400000Y-57750000D01*
X89300000Y-57750000D02*
X89130000Y-57750000D01*
X88400000Y-56650000D02*
X88570000Y-56650000D01*
X88570000Y-56650000D02*
X88570000Y-56450000D01*
X89130000Y-56650000D02*
X89300000Y-56650000D01*
X89300000Y-56650000D02*
X89300000Y-57750000D01*
X88570000Y-56450000D02*
X89130000Y-56450000D01*
X89130000Y-56450000D02*
X89130000Y-56650000D01*
%TO.C,C8*%
X72062898Y-65886891D02*
X73587102Y-65006891D01*
X72412898Y-66493109D02*
X72062898Y-65886891D01*
X73587102Y-65006891D02*
X73937102Y-65613109D01*
X73937102Y-65613109D02*
X72412898Y-66493109D01*
%TO.C,C9*%
X76056891Y-69087102D02*
X76936891Y-67562898D01*
X76663109Y-69437102D02*
X76056891Y-69087102D01*
X76936891Y-67562898D02*
X77543109Y-67912898D01*
X77543109Y-67912898D02*
X76663109Y-69437102D01*
%TO.C,C11*%
X85936891Y-68004369D02*
X85056891Y-66480165D01*
X86543109Y-67654369D02*
X85936891Y-68004369D01*
X85056891Y-66480165D02*
X85663109Y-66130165D01*
X85663109Y-66130165D02*
X86543109Y-67654369D01*
%TO.C,C6*%
X70912898Y-56056891D02*
X72437102Y-56936891D01*
X70562898Y-56663109D02*
X70912898Y-56056891D01*
X72437102Y-56936891D02*
X72087102Y-57543109D01*
X72087102Y-57543109D02*
X70562898Y-56663109D01*
%TO.C,C10*%
X81150000Y-69910000D02*
X81150000Y-68150000D01*
X81850000Y-69910000D02*
X81150000Y-69910000D01*
X81150000Y-68150000D02*
X81850000Y-68150000D01*
X81850000Y-68150000D02*
X81850000Y-69910000D01*
%TO.C,D2*%
X89160254Y-55866025D02*
X87428204Y-56866025D01*
X88160254Y-54133975D02*
X89160254Y-55866025D01*
X87428204Y-56866025D02*
X86428204Y-55133975D01*
X86428204Y-55133975D02*
X88160254Y-54133975D01*
%TO.C,C1*%
X88270000Y-58250000D02*
X90030000Y-58250000D01*
X88270000Y-58950000D02*
X88270000Y-58250000D01*
X90030000Y-58250000D02*
X90030000Y-58950000D01*
X90030000Y-58950000D02*
X88270000Y-58950000D01*
%TO.C,C2*%
X87937102Y-54113109D02*
X86412898Y-54993109D01*
X87587102Y-53506891D02*
X87937102Y-54113109D01*
X86412898Y-54993109D02*
X86062898Y-54386891D01*
X86062898Y-54386891D02*
X87587102Y-53506891D01*
%TO.C,D5*%
X75866025Y-50839746D02*
X76866025Y-52571796D01*
X74133975Y-51839746D02*
X75866025Y-50839746D01*
X76866025Y-52571796D02*
X75133975Y-53571796D01*
X75133975Y-53571796D02*
X74133975Y-51839746D01*
%TO.C,C12*%
X89137102Y-63993109D02*
X87612898Y-63113109D01*
X89487102Y-63386891D02*
X89137102Y-63993109D01*
X87612898Y-63113109D02*
X87962898Y-62506891D01*
X87962898Y-62506891D02*
X89487102Y-63386891D01*
%TO.C,D9*%
X74133975Y-68160254D02*
X75133975Y-66428204D01*
X75866025Y-69160254D02*
X74133975Y-68160254D01*
X75133975Y-66428204D02*
X76866025Y-67428204D01*
X76866025Y-67428204D02*
X75866025Y-69160254D01*
%TO.C,D3*%
X85866025Y-51839746D02*
X84866025Y-53571796D01*
X84133975Y-50839746D02*
X85866025Y-51839746D01*
X84866025Y-53571796D02*
X83133975Y-52571796D01*
X83133975Y-52571796D02*
X84133975Y-50839746D01*
%TO.C,R1*%
X89790000Y-62000000D02*
X88030000Y-62000000D01*
X89790000Y-61300000D02*
X89790000Y-62000000D01*
X88030000Y-62000000D02*
X88030000Y-61300000D01*
X88030000Y-61300000D02*
X89790000Y-61300000D01*
%TO.C,C3*%
X83943109Y-50912898D02*
X83063109Y-52437102D01*
X83336891Y-50562898D02*
X83943109Y-50912898D01*
X83063109Y-52437102D02*
X82456891Y-52087102D01*
X82456891Y-52087102D02*
X83336891Y-50562898D01*
%TD*%
M02*
