%TF.GenerationSoftware,KiCad,Pcbnew,7.0.7-7.0.7~ubuntu23.04.1*%
%TF.CreationDate,2023-10-17T18:20:03+00:00*%
%TF.ProjectId,pedalboard-led-ring,70656461-6c62-46f6-9172-642d6c65642d,1.1.0-RC1*%
%TF.SameCoordinates,Original*%
%TF.FileFunction,Drillmap*%
%TF.FilePolarity,Positive*%
%FSLAX45Y45*%
G04 Gerber Fmt 4.5, Leading zero omitted, Abs format (unit mm)*
G04 Created by KiCad (PCBNEW 7.0.7-7.0.7~ubuntu23.04.1) date 2023-10-17 18:20:03*
%MOMM*%
%LPD*%
G01*
G04 APERTURE LIST*
%ADD10C,0.100000*%
%ADD11C,0.200000*%
%ADD12C,0.040000*%
G04 APERTURE END LIST*
D10*
X8000000Y-7200000D02*
G75*
G03*
X9006267Y-6653778I0J1200000D01*
G01*
X8610000Y-6000000D02*
G75*
G03*
X8610000Y-6000000I-610000J0D01*
G01*
X9200000Y-5500000D02*
X9200000Y-6500000D01*
X8000000Y-4800000D02*
G75*
G03*
X8000000Y-7200000I0J-1200000D01*
G01*
X9006267Y-6653778D02*
X9200000Y-6500000D01*
X9032747Y-5388907D02*
G75*
G03*
X8000000Y-4800000I-1032747J-611093D01*
G01*
X9032747Y-5388907D02*
X9200000Y-5500000D01*
D11*
D12*
X6987180Y-6099615D02*
X7027180Y-6139615D01*
X7027180Y-6099615D02*
X6987180Y-6139615D01*
X7060385Y-5587180D02*
X7100385Y-5627180D01*
X7100385Y-5587180D02*
X7060385Y-5627180D01*
X7180000Y-6580000D02*
X7220000Y-6620000D01*
X7220000Y-6580000D02*
X7180000Y-6620000D01*
X7380000Y-5180000D02*
X7420000Y-5220000D01*
X7420000Y-5180000D02*
X7380000Y-5220000D01*
X7587180Y-6899615D02*
X7627180Y-6939615D01*
X7627180Y-6899615D02*
X7587180Y-6939615D01*
X7860385Y-4987180D02*
X7900385Y-5027180D01*
X7900385Y-4987180D02*
X7860385Y-5027180D01*
X8099615Y-6972820D02*
X8139615Y-7012820D01*
X8139615Y-6972820D02*
X8099615Y-7012820D01*
X8372820Y-5060385D02*
X8412820Y-5100385D01*
X8412820Y-5060385D02*
X8372820Y-5100385D01*
X8580000Y-6774000D02*
X8620000Y-6814000D01*
X8620000Y-6774000D02*
X8580000Y-6814000D01*
X8675000Y-6295000D02*
X8715000Y-6335000D01*
X8715000Y-6295000D02*
X8675000Y-6335000D01*
X8749816Y-5835184D02*
X8789816Y-5875184D01*
X8789816Y-5835184D02*
X8749816Y-5875184D01*
X8771000Y-6095000D02*
X8811000Y-6135000D01*
X8811000Y-6095000D02*
X8771000Y-6135000D01*
X8780000Y-5380000D02*
X8820000Y-5420000D01*
X8820000Y-5380000D02*
X8780000Y-5420000D01*
X8806000Y-6582000D02*
X8846000Y-6622000D01*
X8846000Y-6582000D02*
X8806000Y-6622000D01*
X8987950Y-5645000D02*
X9027950Y-5685000D01*
X9027950Y-5645000D02*
X8987950Y-5685000D01*
X9020000Y-6120000D02*
X9060000Y-6160000D01*
X9060000Y-6120000D02*
X9020000Y-6160000D01*
X9020000Y-6465000D02*
X9060000Y-6505000D01*
X9060000Y-6465000D02*
X9020000Y-6505000D01*
X9095000Y-6120000D02*
X9135000Y-6160000D01*
X9135000Y-6120000D02*
X9095000Y-6160000D01*
X9095000Y-6465000D02*
X9135000Y-6505000D01*
X9135000Y-6465000D02*
X9095000Y-6505000D01*
D11*
X7055777Y-7516484D02*
X7055777Y-7316484D01*
X7055777Y-7316484D02*
X7103396Y-7316484D01*
X7103396Y-7316484D02*
X7131967Y-7326008D01*
X7131967Y-7326008D02*
X7151015Y-7345055D01*
X7151015Y-7345055D02*
X7160539Y-7364103D01*
X7160539Y-7364103D02*
X7170062Y-7402198D01*
X7170062Y-7402198D02*
X7170062Y-7430769D01*
X7170062Y-7430769D02*
X7160539Y-7468865D01*
X7160539Y-7468865D02*
X7151015Y-7487912D01*
X7151015Y-7487912D02*
X7131967Y-7506960D01*
X7131967Y-7506960D02*
X7103396Y-7516484D01*
X7103396Y-7516484D02*
X7055777Y-7516484D01*
X7255777Y-7516484D02*
X7255777Y-7383150D01*
X7255777Y-7421246D02*
X7265301Y-7402198D01*
X7265301Y-7402198D02*
X7274824Y-7392674D01*
X7274824Y-7392674D02*
X7293872Y-7383150D01*
X7293872Y-7383150D02*
X7312920Y-7383150D01*
X7379586Y-7516484D02*
X7379586Y-7383150D01*
X7379586Y-7316484D02*
X7370062Y-7326008D01*
X7370062Y-7326008D02*
X7379586Y-7335531D01*
X7379586Y-7335531D02*
X7389110Y-7326008D01*
X7389110Y-7326008D02*
X7379586Y-7316484D01*
X7379586Y-7316484D02*
X7379586Y-7335531D01*
X7503396Y-7516484D02*
X7484348Y-7506960D01*
X7484348Y-7506960D02*
X7474824Y-7487912D01*
X7474824Y-7487912D02*
X7474824Y-7316484D01*
X7608158Y-7516484D02*
X7589110Y-7506960D01*
X7589110Y-7506960D02*
X7579586Y-7487912D01*
X7579586Y-7487912D02*
X7579586Y-7316484D01*
X7836729Y-7516484D02*
X7836729Y-7316484D01*
X7836729Y-7316484D02*
X7903396Y-7459341D01*
X7903396Y-7459341D02*
X7970062Y-7316484D01*
X7970062Y-7316484D02*
X7970062Y-7516484D01*
X8151015Y-7516484D02*
X8151015Y-7411722D01*
X8151015Y-7411722D02*
X8141491Y-7392674D01*
X8141491Y-7392674D02*
X8122443Y-7383150D01*
X8122443Y-7383150D02*
X8084348Y-7383150D01*
X8084348Y-7383150D02*
X8065301Y-7392674D01*
X8151015Y-7506960D02*
X8131967Y-7516484D01*
X8131967Y-7516484D02*
X8084348Y-7516484D01*
X8084348Y-7516484D02*
X8065301Y-7506960D01*
X8065301Y-7506960D02*
X8055777Y-7487912D01*
X8055777Y-7487912D02*
X8055777Y-7468865D01*
X8055777Y-7468865D02*
X8065301Y-7449817D01*
X8065301Y-7449817D02*
X8084348Y-7440293D01*
X8084348Y-7440293D02*
X8131967Y-7440293D01*
X8131967Y-7440293D02*
X8151015Y-7430769D01*
X8246253Y-7383150D02*
X8246253Y-7583150D01*
X8246253Y-7392674D02*
X8265301Y-7383150D01*
X8265301Y-7383150D02*
X8303396Y-7383150D01*
X8303396Y-7383150D02*
X8322443Y-7392674D01*
X8322443Y-7392674D02*
X8331967Y-7402198D01*
X8331967Y-7402198D02*
X8341491Y-7421246D01*
X8341491Y-7421246D02*
X8341491Y-7478388D01*
X8341491Y-7478388D02*
X8331967Y-7497436D01*
X8331967Y-7497436D02*
X8322443Y-7506960D01*
X8322443Y-7506960D02*
X8303396Y-7516484D01*
X8303396Y-7516484D02*
X8265301Y-7516484D01*
X8265301Y-7516484D02*
X8246253Y-7506960D01*
X8427205Y-7497436D02*
X8436729Y-7506960D01*
X8436729Y-7506960D02*
X8427205Y-7516484D01*
X8427205Y-7516484D02*
X8417682Y-7506960D01*
X8417682Y-7506960D02*
X8427205Y-7497436D01*
X8427205Y-7497436D02*
X8427205Y-7516484D01*
X8427205Y-7392674D02*
X8436729Y-7402198D01*
X8436729Y-7402198D02*
X8427205Y-7411722D01*
X8427205Y-7411722D02*
X8417682Y-7402198D01*
X8417682Y-7402198D02*
X8427205Y-7392674D01*
X8427205Y-7392674D02*
X8427205Y-7411722D01*
D12*
X6755000Y-7825000D02*
X6795000Y-7865000D01*
X6795000Y-7825000D02*
X6755000Y-7865000D01*
D11*
X7093872Y-7736484D02*
X7112920Y-7736484D01*
X7112920Y-7736484D02*
X7131967Y-7746008D01*
X7131967Y-7746008D02*
X7141491Y-7755531D01*
X7141491Y-7755531D02*
X7151015Y-7774579D01*
X7151015Y-7774579D02*
X7160539Y-7812674D01*
X7160539Y-7812674D02*
X7160539Y-7860293D01*
X7160539Y-7860293D02*
X7151015Y-7898388D01*
X7151015Y-7898388D02*
X7141491Y-7917436D01*
X7141491Y-7917436D02*
X7131967Y-7926960D01*
X7131967Y-7926960D02*
X7112920Y-7936484D01*
X7112920Y-7936484D02*
X7093872Y-7936484D01*
X7093872Y-7936484D02*
X7074824Y-7926960D01*
X7074824Y-7926960D02*
X7065301Y-7917436D01*
X7065301Y-7917436D02*
X7055777Y-7898388D01*
X7055777Y-7898388D02*
X7046253Y-7860293D01*
X7046253Y-7860293D02*
X7046253Y-7812674D01*
X7046253Y-7812674D02*
X7055777Y-7774579D01*
X7055777Y-7774579D02*
X7065301Y-7755531D01*
X7065301Y-7755531D02*
X7074824Y-7746008D01*
X7074824Y-7746008D02*
X7093872Y-7736484D01*
X7246253Y-7917436D02*
X7255777Y-7926960D01*
X7255777Y-7926960D02*
X7246253Y-7936484D01*
X7246253Y-7936484D02*
X7236729Y-7926960D01*
X7236729Y-7926960D02*
X7246253Y-7917436D01*
X7246253Y-7917436D02*
X7246253Y-7936484D01*
X7427205Y-7803150D02*
X7427205Y-7936484D01*
X7379586Y-7726960D02*
X7331967Y-7869817D01*
X7331967Y-7869817D02*
X7455777Y-7869817D01*
X7570062Y-7736484D02*
X7589110Y-7736484D01*
X7589110Y-7736484D02*
X7608158Y-7746008D01*
X7608158Y-7746008D02*
X7617682Y-7755531D01*
X7617682Y-7755531D02*
X7627205Y-7774579D01*
X7627205Y-7774579D02*
X7636729Y-7812674D01*
X7636729Y-7812674D02*
X7636729Y-7860293D01*
X7636729Y-7860293D02*
X7627205Y-7898388D01*
X7627205Y-7898388D02*
X7617682Y-7917436D01*
X7617682Y-7917436D02*
X7608158Y-7926960D01*
X7608158Y-7926960D02*
X7589110Y-7936484D01*
X7589110Y-7936484D02*
X7570062Y-7936484D01*
X7570062Y-7936484D02*
X7551015Y-7926960D01*
X7551015Y-7926960D02*
X7541491Y-7917436D01*
X7541491Y-7917436D02*
X7531967Y-7898388D01*
X7531967Y-7898388D02*
X7522443Y-7860293D01*
X7522443Y-7860293D02*
X7522443Y-7812674D01*
X7522443Y-7812674D02*
X7531967Y-7774579D01*
X7531967Y-7774579D02*
X7541491Y-7755531D01*
X7541491Y-7755531D02*
X7551015Y-7746008D01*
X7551015Y-7746008D02*
X7570062Y-7736484D01*
X7760539Y-7736484D02*
X7779586Y-7736484D01*
X7779586Y-7736484D02*
X7798634Y-7746008D01*
X7798634Y-7746008D02*
X7808158Y-7755531D01*
X7808158Y-7755531D02*
X7817682Y-7774579D01*
X7817682Y-7774579D02*
X7827205Y-7812674D01*
X7827205Y-7812674D02*
X7827205Y-7860293D01*
X7827205Y-7860293D02*
X7817682Y-7898388D01*
X7817682Y-7898388D02*
X7808158Y-7917436D01*
X7808158Y-7917436D02*
X7798634Y-7926960D01*
X7798634Y-7926960D02*
X7779586Y-7936484D01*
X7779586Y-7936484D02*
X7760539Y-7936484D01*
X7760539Y-7936484D02*
X7741491Y-7926960D01*
X7741491Y-7926960D02*
X7731967Y-7917436D01*
X7731967Y-7917436D02*
X7722443Y-7898388D01*
X7722443Y-7898388D02*
X7712920Y-7860293D01*
X7712920Y-7860293D02*
X7712920Y-7812674D01*
X7712920Y-7812674D02*
X7722443Y-7774579D01*
X7722443Y-7774579D02*
X7731967Y-7755531D01*
X7731967Y-7755531D02*
X7741491Y-7746008D01*
X7741491Y-7746008D02*
X7760539Y-7736484D01*
X7912920Y-7936484D02*
X7912920Y-7803150D01*
X7912920Y-7822198D02*
X7922443Y-7812674D01*
X7922443Y-7812674D02*
X7941491Y-7803150D01*
X7941491Y-7803150D02*
X7970063Y-7803150D01*
X7970063Y-7803150D02*
X7989110Y-7812674D01*
X7989110Y-7812674D02*
X7998634Y-7831722D01*
X7998634Y-7831722D02*
X7998634Y-7936484D01*
X7998634Y-7831722D02*
X8008158Y-7812674D01*
X8008158Y-7812674D02*
X8027205Y-7803150D01*
X8027205Y-7803150D02*
X8055777Y-7803150D01*
X8055777Y-7803150D02*
X8074824Y-7812674D01*
X8074824Y-7812674D02*
X8084348Y-7831722D01*
X8084348Y-7831722D02*
X8084348Y-7936484D01*
X8179586Y-7936484D02*
X8179586Y-7803150D01*
X8179586Y-7822198D02*
X8189110Y-7812674D01*
X8189110Y-7812674D02*
X8208158Y-7803150D01*
X8208158Y-7803150D02*
X8236729Y-7803150D01*
X8236729Y-7803150D02*
X8255777Y-7812674D01*
X8255777Y-7812674D02*
X8265301Y-7831722D01*
X8265301Y-7831722D02*
X8265301Y-7936484D01*
X8265301Y-7831722D02*
X8274824Y-7812674D01*
X8274824Y-7812674D02*
X8293872Y-7803150D01*
X8293872Y-7803150D02*
X8322443Y-7803150D01*
X8322443Y-7803150D02*
X8341491Y-7812674D01*
X8341491Y-7812674D02*
X8351015Y-7831722D01*
X8351015Y-7831722D02*
X8351015Y-7936484D01*
X8741491Y-7726960D02*
X8570063Y-7984103D01*
X8998634Y-7736484D02*
X9017682Y-7736484D01*
X9017682Y-7736484D02*
X9036729Y-7746008D01*
X9036729Y-7746008D02*
X9046253Y-7755531D01*
X9046253Y-7755531D02*
X9055777Y-7774579D01*
X9055777Y-7774579D02*
X9065301Y-7812674D01*
X9065301Y-7812674D02*
X9065301Y-7860293D01*
X9065301Y-7860293D02*
X9055777Y-7898388D01*
X9055777Y-7898388D02*
X9046253Y-7917436D01*
X9046253Y-7917436D02*
X9036729Y-7926960D01*
X9036729Y-7926960D02*
X9017682Y-7936484D01*
X9017682Y-7936484D02*
X8998634Y-7936484D01*
X8998634Y-7936484D02*
X8979587Y-7926960D01*
X8979587Y-7926960D02*
X8970063Y-7917436D01*
X8970063Y-7917436D02*
X8960539Y-7898388D01*
X8960539Y-7898388D02*
X8951015Y-7860293D01*
X8951015Y-7860293D02*
X8951015Y-7812674D01*
X8951015Y-7812674D02*
X8960539Y-7774579D01*
X8960539Y-7774579D02*
X8970063Y-7755531D01*
X8970063Y-7755531D02*
X8979587Y-7746008D01*
X8979587Y-7746008D02*
X8998634Y-7736484D01*
X9151015Y-7917436D02*
X9160539Y-7926960D01*
X9160539Y-7926960D02*
X9151015Y-7936484D01*
X9151015Y-7936484D02*
X9141491Y-7926960D01*
X9141491Y-7926960D02*
X9151015Y-7917436D01*
X9151015Y-7917436D02*
X9151015Y-7936484D01*
X9284348Y-7736484D02*
X9303396Y-7736484D01*
X9303396Y-7736484D02*
X9322444Y-7746008D01*
X9322444Y-7746008D02*
X9331968Y-7755531D01*
X9331968Y-7755531D02*
X9341491Y-7774579D01*
X9341491Y-7774579D02*
X9351015Y-7812674D01*
X9351015Y-7812674D02*
X9351015Y-7860293D01*
X9351015Y-7860293D02*
X9341491Y-7898388D01*
X9341491Y-7898388D02*
X9331968Y-7917436D01*
X9331968Y-7917436D02*
X9322444Y-7926960D01*
X9322444Y-7926960D02*
X9303396Y-7936484D01*
X9303396Y-7936484D02*
X9284348Y-7936484D01*
X9284348Y-7936484D02*
X9265301Y-7926960D01*
X9265301Y-7926960D02*
X9255777Y-7917436D01*
X9255777Y-7917436D02*
X9246253Y-7898388D01*
X9246253Y-7898388D02*
X9236729Y-7860293D01*
X9236729Y-7860293D02*
X9236729Y-7812674D01*
X9236729Y-7812674D02*
X9246253Y-7774579D01*
X9246253Y-7774579D02*
X9255777Y-7755531D01*
X9255777Y-7755531D02*
X9265301Y-7746008D01*
X9265301Y-7746008D02*
X9284348Y-7736484D01*
X9541491Y-7936484D02*
X9427206Y-7936484D01*
X9484348Y-7936484D02*
X9484348Y-7736484D01*
X9484348Y-7736484D02*
X9465301Y-7765055D01*
X9465301Y-7765055D02*
X9446253Y-7784103D01*
X9446253Y-7784103D02*
X9427206Y-7793627D01*
X9722444Y-7736484D02*
X9627206Y-7736484D01*
X9627206Y-7736484D02*
X9617682Y-7831722D01*
X9617682Y-7831722D02*
X9627206Y-7822198D01*
X9627206Y-7822198D02*
X9646253Y-7812674D01*
X9646253Y-7812674D02*
X9693872Y-7812674D01*
X9693872Y-7812674D02*
X9712920Y-7822198D01*
X9712920Y-7822198D02*
X9722444Y-7831722D01*
X9722444Y-7831722D02*
X9731968Y-7850769D01*
X9731968Y-7850769D02*
X9731968Y-7898388D01*
X9731968Y-7898388D02*
X9722444Y-7917436D01*
X9722444Y-7917436D02*
X9712920Y-7926960D01*
X9712920Y-7926960D02*
X9693872Y-7936484D01*
X9693872Y-7936484D02*
X9646253Y-7936484D01*
X9646253Y-7936484D02*
X9627206Y-7926960D01*
X9627206Y-7926960D02*
X9617682Y-7917436D01*
X9798634Y-7736484D02*
X9931968Y-7736484D01*
X9931968Y-7736484D02*
X9846253Y-7936484D01*
X9998634Y-7736484D02*
X9998634Y-7774579D01*
X10074825Y-7736484D02*
X10074825Y-7774579D01*
X10370063Y-8012674D02*
X10360539Y-8003150D01*
X10360539Y-8003150D02*
X10341491Y-7974579D01*
X10341491Y-7974579D02*
X10331968Y-7955531D01*
X10331968Y-7955531D02*
X10322444Y-7926960D01*
X10322444Y-7926960D02*
X10312920Y-7879341D01*
X10312920Y-7879341D02*
X10312920Y-7841246D01*
X10312920Y-7841246D02*
X10322444Y-7793627D01*
X10322444Y-7793627D02*
X10331968Y-7765055D01*
X10331968Y-7765055D02*
X10341491Y-7746008D01*
X10341491Y-7746008D02*
X10360539Y-7717436D01*
X10360539Y-7717436D02*
X10370063Y-7707912D01*
X10551015Y-7936484D02*
X10436730Y-7936484D01*
X10493872Y-7936484D02*
X10493872Y-7736484D01*
X10493872Y-7736484D02*
X10474825Y-7765055D01*
X10474825Y-7765055D02*
X10455777Y-7784103D01*
X10455777Y-7784103D02*
X10436730Y-7793627D01*
X10646253Y-7936484D02*
X10684349Y-7936484D01*
X10684349Y-7936484D02*
X10703396Y-7926960D01*
X10703396Y-7926960D02*
X10712920Y-7917436D01*
X10712920Y-7917436D02*
X10731968Y-7888865D01*
X10731968Y-7888865D02*
X10741491Y-7850769D01*
X10741491Y-7850769D02*
X10741491Y-7774579D01*
X10741491Y-7774579D02*
X10731968Y-7755531D01*
X10731968Y-7755531D02*
X10722444Y-7746008D01*
X10722444Y-7746008D02*
X10703396Y-7736484D01*
X10703396Y-7736484D02*
X10665301Y-7736484D01*
X10665301Y-7736484D02*
X10646253Y-7746008D01*
X10646253Y-7746008D02*
X10636730Y-7755531D01*
X10636730Y-7755531D02*
X10627206Y-7774579D01*
X10627206Y-7774579D02*
X10627206Y-7822198D01*
X10627206Y-7822198D02*
X10636730Y-7841246D01*
X10636730Y-7841246D02*
X10646253Y-7850769D01*
X10646253Y-7850769D02*
X10665301Y-7860293D01*
X10665301Y-7860293D02*
X10703396Y-7860293D01*
X10703396Y-7860293D02*
X10722444Y-7850769D01*
X10722444Y-7850769D02*
X10731968Y-7841246D01*
X10731968Y-7841246D02*
X10741491Y-7822198D01*
X10979587Y-7936484D02*
X10979587Y-7736484D01*
X11065301Y-7936484D02*
X11065301Y-7831722D01*
X11065301Y-7831722D02*
X11055777Y-7812674D01*
X11055777Y-7812674D02*
X11036730Y-7803150D01*
X11036730Y-7803150D02*
X11008158Y-7803150D01*
X11008158Y-7803150D02*
X10989111Y-7812674D01*
X10989111Y-7812674D02*
X10979587Y-7822198D01*
X11189110Y-7936484D02*
X11170063Y-7926960D01*
X11170063Y-7926960D02*
X11160539Y-7917436D01*
X11160539Y-7917436D02*
X11151015Y-7898388D01*
X11151015Y-7898388D02*
X11151015Y-7841246D01*
X11151015Y-7841246D02*
X11160539Y-7822198D01*
X11160539Y-7822198D02*
X11170063Y-7812674D01*
X11170063Y-7812674D02*
X11189110Y-7803150D01*
X11189110Y-7803150D02*
X11217682Y-7803150D01*
X11217682Y-7803150D02*
X11236730Y-7812674D01*
X11236730Y-7812674D02*
X11246253Y-7822198D01*
X11246253Y-7822198D02*
X11255777Y-7841246D01*
X11255777Y-7841246D02*
X11255777Y-7898388D01*
X11255777Y-7898388D02*
X11246253Y-7917436D01*
X11246253Y-7917436D02*
X11236730Y-7926960D01*
X11236730Y-7926960D02*
X11217682Y-7936484D01*
X11217682Y-7936484D02*
X11189110Y-7936484D01*
X11370063Y-7936484D02*
X11351015Y-7926960D01*
X11351015Y-7926960D02*
X11341491Y-7907912D01*
X11341491Y-7907912D02*
X11341491Y-7736484D01*
X11522444Y-7926960D02*
X11503396Y-7936484D01*
X11503396Y-7936484D02*
X11465301Y-7936484D01*
X11465301Y-7936484D02*
X11446253Y-7926960D01*
X11446253Y-7926960D02*
X11436730Y-7907912D01*
X11436730Y-7907912D02*
X11436730Y-7831722D01*
X11436730Y-7831722D02*
X11446253Y-7812674D01*
X11446253Y-7812674D02*
X11465301Y-7803150D01*
X11465301Y-7803150D02*
X11503396Y-7803150D01*
X11503396Y-7803150D02*
X11522444Y-7812674D01*
X11522444Y-7812674D02*
X11531968Y-7831722D01*
X11531968Y-7831722D02*
X11531968Y-7850769D01*
X11531968Y-7850769D02*
X11436730Y-7869817D01*
X11608158Y-7926960D02*
X11627206Y-7936484D01*
X11627206Y-7936484D02*
X11665301Y-7936484D01*
X11665301Y-7936484D02*
X11684349Y-7926960D01*
X11684349Y-7926960D02*
X11693872Y-7907912D01*
X11693872Y-7907912D02*
X11693872Y-7898388D01*
X11693872Y-7898388D02*
X11684349Y-7879341D01*
X11684349Y-7879341D02*
X11665301Y-7869817D01*
X11665301Y-7869817D02*
X11636730Y-7869817D01*
X11636730Y-7869817D02*
X11617682Y-7860293D01*
X11617682Y-7860293D02*
X11608158Y-7841246D01*
X11608158Y-7841246D02*
X11608158Y-7831722D01*
X11608158Y-7831722D02*
X11617682Y-7812674D01*
X11617682Y-7812674D02*
X11636730Y-7803150D01*
X11636730Y-7803150D02*
X11665301Y-7803150D01*
X11665301Y-7803150D02*
X11684349Y-7812674D01*
X11760539Y-8012674D02*
X11770063Y-8003150D01*
X11770063Y-8003150D02*
X11789111Y-7974579D01*
X11789111Y-7974579D02*
X11798634Y-7955531D01*
X11798634Y-7955531D02*
X11808158Y-7926960D01*
X11808158Y-7926960D02*
X11817682Y-7879341D01*
X11817682Y-7879341D02*
X11817682Y-7841246D01*
X11817682Y-7841246D02*
X11808158Y-7793627D01*
X11808158Y-7793627D02*
X11798634Y-7765055D01*
X11798634Y-7765055D02*
X11789111Y-7746008D01*
X11789111Y-7746008D02*
X11770063Y-7717436D01*
X11770063Y-7717436D02*
X11760539Y-7707912D01*
M02*
