%TF.GenerationSoftware,KiCad,Pcbnew,7.0.8-7.0.8~ubuntu23.04.1*%
%TF.CreationDate,2023-10-20T09:28:23+00:00*%
%TF.ProjectId,pedalboard-led-ring,70656461-6c62-46f6-9172-642d6c65642d,1.1.0-RC1*%
%TF.SameCoordinates,Original*%
%TF.FileFunction,AssemblyDrawing,Bot*%
%FSLAX46Y46*%
G04 Gerber Fmt 4.6, Leading zero omitted, Abs format (unit mm)*
G04 Created by KiCad (PCBNEW 7.0.8-7.0.8~ubuntu23.04.1) date 2023-10-20 09:28:23*
%MOMM*%
%LPD*%
G01*
G04 APERTURE LIST*
%ADD10C,0.150000*%
%ADD11C,0.100000*%
G04 APERTURE END LIST*
D10*
X86954819Y-57738095D02*
X86288152Y-57738095D01*
X86383390Y-57738095D02*
X86335771Y-57785714D01*
X86335771Y-57785714D02*
X86288152Y-57880952D01*
X86288152Y-57880952D02*
X86288152Y-58023809D01*
X86288152Y-58023809D02*
X86335771Y-58119047D01*
X86335771Y-58119047D02*
X86431009Y-58166666D01*
X86431009Y-58166666D02*
X86954819Y-58166666D01*
X86431009Y-58166666D02*
X86335771Y-58214285D01*
X86335771Y-58214285D02*
X86288152Y-58309523D01*
X86288152Y-58309523D02*
X86288152Y-58452380D01*
X86288152Y-58452380D02*
X86335771Y-58547619D01*
X86335771Y-58547619D02*
X86431009Y-58595238D01*
X86431009Y-58595238D02*
X86954819Y-58595238D01*
X86954819Y-59071428D02*
X86288152Y-59071428D01*
X85954819Y-59071428D02*
X86002438Y-59023809D01*
X86002438Y-59023809D02*
X86050057Y-59071428D01*
X86050057Y-59071428D02*
X86002438Y-59119047D01*
X86002438Y-59119047D02*
X85954819Y-59071428D01*
X85954819Y-59071428D02*
X86050057Y-59071428D01*
X86954819Y-59976189D02*
X85954819Y-59976189D01*
X86907200Y-59976189D02*
X86954819Y-59880951D01*
X86954819Y-59880951D02*
X86954819Y-59690475D01*
X86954819Y-59690475D02*
X86907200Y-59595237D01*
X86907200Y-59595237D02*
X86859580Y-59547618D01*
X86859580Y-59547618D02*
X86764342Y-59499999D01*
X86764342Y-59499999D02*
X86478628Y-59499999D01*
X86478628Y-59499999D02*
X86383390Y-59547618D01*
X86383390Y-59547618D02*
X86335771Y-59595237D01*
X86335771Y-59595237D02*
X86288152Y-59690475D01*
X86288152Y-59690475D02*
X86288152Y-59880951D01*
X86288152Y-59880951D02*
X86335771Y-59976189D01*
X86954819Y-60880951D02*
X85954819Y-60880951D01*
X86907200Y-60880951D02*
X86954819Y-60785713D01*
X86954819Y-60785713D02*
X86954819Y-60595237D01*
X86954819Y-60595237D02*
X86907200Y-60499999D01*
X86907200Y-60499999D02*
X86859580Y-60452380D01*
X86859580Y-60452380D02*
X86764342Y-60404761D01*
X86764342Y-60404761D02*
X86478628Y-60404761D01*
X86478628Y-60404761D02*
X86383390Y-60452380D01*
X86383390Y-60452380D02*
X86335771Y-60499999D01*
X86335771Y-60499999D02*
X86288152Y-60595237D01*
X86288152Y-60595237D02*
X86288152Y-60785713D01*
X86288152Y-60785713D02*
X86335771Y-60880951D01*
X86954819Y-61499999D02*
X86907200Y-61404761D01*
X86907200Y-61404761D02*
X86811961Y-61357142D01*
X86811961Y-61357142D02*
X85954819Y-61357142D01*
X86907200Y-62261904D02*
X86954819Y-62166666D01*
X86954819Y-62166666D02*
X86954819Y-61976190D01*
X86954819Y-61976190D02*
X86907200Y-61880952D01*
X86907200Y-61880952D02*
X86811961Y-61833333D01*
X86811961Y-61833333D02*
X86431009Y-61833333D01*
X86431009Y-61833333D02*
X86335771Y-61880952D01*
X86335771Y-61880952D02*
X86288152Y-61976190D01*
X86288152Y-61976190D02*
X86288152Y-62166666D01*
X86288152Y-62166666D02*
X86335771Y-62261904D01*
X86335771Y-62261904D02*
X86431009Y-62309523D01*
X86431009Y-62309523D02*
X86526247Y-62309523D01*
X86526247Y-62309523D02*
X86621485Y-61833333D01*
X90333333Y-59454819D02*
X90333333Y-60169104D01*
X90333333Y-60169104D02*
X90380952Y-60311961D01*
X90380952Y-60311961D02*
X90476190Y-60407200D01*
X90476190Y-60407200D02*
X90619047Y-60454819D01*
X90619047Y-60454819D02*
X90714285Y-60454819D01*
X89333333Y-60454819D02*
X89904761Y-60454819D01*
X89619047Y-60454819D02*
X89619047Y-59454819D01*
X89619047Y-59454819D02*
X89714285Y-59597676D01*
X89714285Y-59597676D02*
X89809523Y-59692914D01*
X89809523Y-59692914D02*
X89904761Y-59740533D01*
X84461107Y-56193735D02*
X84332802Y-56114909D01*
X84332802Y-56114909D02*
X84179758Y-55932517D01*
X84179758Y-55932517D02*
X84155018Y-55828952D01*
X84155018Y-55828952D02*
X84160887Y-55761865D01*
X84160887Y-55761865D02*
X84203235Y-55664169D01*
X84203235Y-55664169D02*
X84276192Y-55602951D01*
X84276192Y-55602951D02*
X84379757Y-55578211D01*
X84379757Y-55578211D02*
X84446844Y-55584080D01*
X84446844Y-55584080D02*
X84544541Y-55626428D01*
X84544541Y-55626428D02*
X84703455Y-55741732D01*
X84703455Y-55741732D02*
X84801151Y-55784080D01*
X84801151Y-55784080D02*
X84868238Y-55789950D01*
X84868238Y-55789950D02*
X84971804Y-55765210D01*
X84971804Y-55765210D02*
X85044760Y-55703992D01*
X85044760Y-55703992D02*
X85087108Y-55606296D01*
X85087108Y-55606296D02*
X85092977Y-55539209D01*
X85092977Y-55539209D02*
X85068238Y-55435643D01*
X85068238Y-55435643D02*
X84915193Y-55253252D01*
X84915193Y-55253252D02*
X84786888Y-55174426D01*
X84364232Y-54596642D02*
X83817058Y-55055776D01*
X83817058Y-55055776D02*
X83738232Y-55184081D01*
X83738232Y-55184081D02*
X83726493Y-55318256D01*
X83726493Y-55318256D02*
X83781841Y-55458299D01*
X83781841Y-55458299D02*
X83843059Y-55531256D01*
D11*
%TO.C,J1*%
X88750000Y-63000000D02*
X89250000Y-63000000D01*
X89250000Y-63000000D02*
X89250000Y-62000000D01*
X90750000Y-63000000D02*
X91250000Y-63000000D01*
X91250000Y-63000000D02*
X91250000Y-62000000D01*
X88000000Y-62000000D02*
X92000000Y-62000000D01*
X88750000Y-62000000D02*
X88750000Y-63000000D01*
X90750000Y-62000000D02*
X90750000Y-63000000D01*
X92000000Y-62000000D02*
X92000000Y-59000000D01*
X92000000Y-59000000D02*
X91000000Y-58000000D01*
X88000000Y-58000000D02*
X88000000Y-62000000D01*
X89250000Y-58000000D02*
X89250000Y-57000000D01*
X91000000Y-58000000D02*
X88000000Y-58000000D01*
X91250000Y-58000000D02*
X91250000Y-57000000D01*
X88750000Y-57000000D02*
X88750000Y-58000000D01*
X89250000Y-57000000D02*
X88750000Y-57000000D01*
X90750000Y-57000000D02*
X90750000Y-58000000D01*
X91250000Y-57000000D02*
X90750000Y-57000000D01*
%TD*%
M02*
