%TF.GenerationSoftware,KiCad,Pcbnew,7.0.7-7.0.7~ubuntu23.04.1*%
%TF.CreationDate,2023-10-17T18:20:03+00:00*%
%TF.ProjectId,pedalboard-led-ring,70656461-6c62-46f6-9172-642d6c65642d,1.1.0-RC1*%
%TF.SameCoordinates,Original*%
%TF.FileFunction,Copper,L1,Top*%
%TF.FilePolarity,Positive*%
%FSLAX46Y46*%
G04 Gerber Fmt 4.6, Leading zero omitted, Abs format (unit mm)*
G04 Created by KiCad (PCBNEW 7.0.7-7.0.7~ubuntu23.04.1) date 2023-10-17 18:20:03*
%MOMM*%
%LPD*%
G01*
G04 APERTURE LIST*
G04 Aperture macros list*
%AMRoundRect*
0 Rectangle with rounded corners*
0 $1 Rounding radius*
0 $2 $3 $4 $5 $6 $7 $8 $9 X,Y pos of 4 corners*
0 Add a 4 corners polygon primitive as box body*
4,1,4,$2,$3,$4,$5,$6,$7,$8,$9,$2,$3,0*
0 Add four circle primitives for the rounded corners*
1,1,$1+$1,$2,$3*
1,1,$1+$1,$4,$5*
1,1,$1+$1,$6,$7*
1,1,$1+$1,$8,$9*
0 Add four rect primitives between the rounded corners*
20,1,$1+$1,$2,$3,$4,$5,0*
20,1,$1+$1,$4,$5,$6,$7,0*
20,1,$1+$1,$6,$7,$8,$9,0*
20,1,$1+$1,$8,$9,$2,$3,0*%
%AMRotRect*
0 Rectangle, with rotation*
0 The origin of the aperture is its center*
0 $1 length*
0 $2 width*
0 $3 Rotation angle, in degrees counterclockwise*
0 Add horizontal line*
21,1,$1,$2,0,0,$3*%
G04 Aperture macros list end*
%TA.AperFunction,SMDPad,CuDef*%
%ADD10RotRect,0.500000X0.500000X120.000000*%
%TD*%
%TA.AperFunction,SMDPad,CuDef*%
%ADD11RoundRect,0.100000X-0.100000X0.217500X-0.100000X-0.217500X0.100000X-0.217500X0.100000X0.217500X0*%
%TD*%
%TA.AperFunction,SMDPad,CuDef*%
%ADD12RoundRect,0.100000X-0.195353X0.138361X0.022147X-0.238361X0.195353X-0.138361X-0.022147X0.238361X0*%
%TD*%
%TA.AperFunction,SMDPad,CuDef*%
%ADD13R,0.500000X0.500000*%
%TD*%
%TA.AperFunction,SMDPad,CuDef*%
%ADD14RotRect,0.500000X0.500000X150.000000*%
%TD*%
%TA.AperFunction,SMDPad,CuDef*%
%ADD15RotRect,0.500000X0.500000X30.000000*%
%TD*%
%TA.AperFunction,SMDPad,CuDef*%
%ADD16RotRect,0.500000X0.500000X330.000000*%
%TD*%
%TA.AperFunction,SMDPad,CuDef*%
%ADD17RoundRect,0.100000X-0.217500X-0.100000X0.217500X-0.100000X0.217500X0.100000X-0.217500X0.100000X0*%
%TD*%
%TA.AperFunction,SMDPad,CuDef*%
%ADD18RoundRect,0.062500X-0.062500X0.117500X-0.062500X-0.117500X0.062500X-0.117500X0.062500X0.117500X0*%
%TD*%
%TA.AperFunction,SMDPad,CuDef*%
%ADD19RoundRect,0.100000X-0.138361X-0.195353X0.238361X0.022147X0.138361X0.195353X-0.238361X-0.022147X0*%
%TD*%
%TA.AperFunction,SMDPad,CuDef*%
%ADD20RoundRect,0.100000X-0.022147X-0.238361X0.195353X0.138361X0.022147X0.238361X-0.195353X-0.138361X0*%
%TD*%
%TA.AperFunction,SMDPad,CuDef*%
%ADD21RoundRect,0.100000X0.195353X-0.138361X-0.022147X0.238361X-0.195353X0.138361X0.022147X-0.238361X0*%
%TD*%
%TA.AperFunction,SMDPad,CuDef*%
%ADD22RoundRect,0.100000X-0.238361X0.022147X0.138361X-0.195353X0.238361X-0.022147X-0.138361X0.195353X0*%
%TD*%
%TA.AperFunction,SMDPad,CuDef*%
%ADD23RoundRect,0.100000X0.100000X-0.217500X0.100000X0.217500X-0.100000X0.217500X-0.100000X-0.217500X0*%
%TD*%
%TA.AperFunction,SMDPad,CuDef*%
%ADD24RotRect,0.500000X0.500000X210.000000*%
%TD*%
%TA.AperFunction,SMDPad,CuDef*%
%ADD25RoundRect,0.100000X0.138361X0.195353X-0.238361X-0.022147X-0.138361X-0.195353X0.238361X0.022147X0*%
%TD*%
%TA.AperFunction,SMDPad,CuDef*%
%ADD26RotRect,0.500000X0.500000X300.000000*%
%TD*%
%TA.AperFunction,SMDPad,CuDef*%
%ADD27RoundRect,0.100000X0.238361X-0.022147X-0.138361X0.195353X-0.238361X0.022147X0.138361X-0.195353X0*%
%TD*%
%TA.AperFunction,SMDPad,CuDef*%
%ADD28RotRect,0.500000X0.500000X60.000000*%
%TD*%
%TA.AperFunction,SMDPad,CuDef*%
%ADD29RotRect,0.500000X0.500000X240.000000*%
%TD*%
%TA.AperFunction,SMDPad,CuDef*%
%ADD30RoundRect,0.100000X0.217500X0.100000X-0.217500X0.100000X-0.217500X-0.100000X0.217500X-0.100000X0*%
%TD*%
%TA.AperFunction,SMDPad,CuDef*%
%ADD31RoundRect,0.100000X0.022147X0.238361X-0.195353X-0.138361X-0.022147X-0.238361X0.195353X0.138361X0*%
%TD*%
%TA.AperFunction,ViaPad*%
%ADD32C,0.800000*%
%TD*%
%TA.AperFunction,Conductor*%
%ADD33C,0.250000*%
%TD*%
G04 APERTURE END LIST*
D10*
%TO.P,D11,1,DIN*%
%TO.N,Net-(D10-DOUT)*%
X84335289Y-68408940D03*
%TO.P,D11,2,VDD*%
%TO.N,VCC*%
X85114711Y-67958940D03*
%TO.P,D11,3,DOUT*%
%TO.N,Net-(D11-DOUT)*%
X84664711Y-67179518D03*
%TO.P,D11,4,VSS*%
%TO.N,GND*%
X83885289Y-67629518D03*
%TD*%
D11*
%TO.P,C4,1*%
%TO.N,VCC*%
X78500000Y-50652500D03*
%TO.P,C4,2*%
%TO.N,GND*%
X78500000Y-51467500D03*
%TD*%
D12*
%TO.P,C5,1*%
%TO.N,VCC*%
X73986250Y-52579828D03*
%TO.P,C5,2*%
%TO.N,GND*%
X74393750Y-53285638D03*
%TD*%
D13*
%TO.P,D1,1,DIN*%
%TO.N,Net-(D1-DIN)*%
X89450000Y-60450000D03*
%TO.P,D1,2,VDD*%
%TO.N,Net-(D1-VDD)*%
X89450000Y-59550000D03*
%TO.P,D1,3,DOUT*%
%TO.N,Net-(D1-DOUT)*%
X88550000Y-59550000D03*
%TO.P,D1,4,VSS*%
%TO.N,GND*%
X88550000Y-60450000D03*
%TD*%
%TO.P,D4,1,DIN*%
%TO.N,Net-(D3-DOUT)*%
X80450000Y-50550000D03*
%TO.P,D4,2,VDD*%
%TO.N,VCC*%
X79550000Y-50550000D03*
%TO.P,D4,3,DOUT*%
%TO.N,Net-(D4-DOUT)*%
X79550000Y-51450000D03*
%TO.P,D4,4,VSS*%
%TO.N,GND*%
X80450000Y-51450000D03*
%TD*%
D14*
%TO.P,D12,1,DIN*%
%TO.N,Net-(D11-DOUT)*%
X87958940Y-65114711D03*
%TO.P,D12,2,VDD*%
%TO.N,VCC*%
X88408940Y-64335289D03*
%TO.P,D12,3,DOUT*%
%TO.N,Net-(D12-DOUT)*%
X87629518Y-63885289D03*
%TO.P,D12,4,VSS*%
%TO.N,GND*%
X87179518Y-64664711D03*
%TD*%
D15*
%TO.P,D8,1,DIN*%
%TO.N,Net-(D7-DOUT)*%
X71591060Y-64335289D03*
%TO.P,D8,2,VDD*%
%TO.N,VCC*%
X72041060Y-65114711D03*
%TO.P,D8,3,DOUT*%
%TO.N,Net-(D8-DOUT)*%
X72820482Y-64664711D03*
%TO.P,D8,4,VSS*%
%TO.N,GND*%
X72370482Y-63885289D03*
%TD*%
D13*
%TO.P,D10,1,DIN*%
%TO.N,Net-(D10-DIN)*%
X79550000Y-69450000D03*
%TO.P,D10,2,VDD*%
%TO.N,VCC*%
X80450000Y-69450000D03*
%TO.P,D10,3,DOUT*%
%TO.N,Net-(D10-DOUT)*%
X80450000Y-68550000D03*
%TO.P,D10,4,VSS*%
%TO.N,GND*%
X79550000Y-68550000D03*
%TD*%
%TO.P,D7,1,DIN*%
%TO.N,Net-(D6-DOUT)*%
X70550000Y-59550000D03*
%TO.P,D7,2,VDD*%
%TO.N,VCC*%
X70550000Y-60450000D03*
%TO.P,D7,3,DOUT*%
%TO.N,Net-(D7-DOUT)*%
X71450000Y-60450000D03*
%TO.P,D7,4,VSS*%
%TO.N,GND*%
X71450000Y-59550000D03*
%TD*%
D16*
%TO.P,D6,1,DIN*%
%TO.N,Net-(D5-DOUT)*%
X72041060Y-54885289D03*
%TO.P,D6,2,VDD*%
%TO.N,VCC*%
X71591060Y-55664711D03*
%TO.P,D6,3,DOUT*%
%TO.N,Net-(D6-DOUT)*%
X72370482Y-56114711D03*
%TO.P,D6,4,VSS*%
%TO.N,GND*%
X72820482Y-55335289D03*
%TD*%
D17*
%TO.P,C7,1*%
%TO.N,VCC*%
X70592500Y-61500000D03*
%TO.P,C7,2*%
%TO.N,GND*%
X71407500Y-61500000D03*
%TD*%
D18*
%TO.P,D13,1,K*%
%TO.N,Net-(D1-VDD)*%
X88850000Y-57620000D03*
%TO.P,D13,2,A*%
%TO.N,VCC*%
X88850000Y-56780000D03*
%TD*%
D19*
%TO.P,C8,1*%
%TO.N,VCC*%
X72647095Y-65953750D03*
%TO.P,C8,2*%
%TO.N,GND*%
X73352905Y-65546250D03*
%TD*%
D20*
%TO.P,C9,1*%
%TO.N,VCC*%
X76596250Y-68852905D03*
%TO.P,C9,2*%
%TO.N,GND*%
X77003750Y-68147095D03*
%TD*%
D21*
%TO.P,C11,1*%
%TO.N,VCC*%
X86003750Y-67420172D03*
%TO.P,C11,2*%
%TO.N,GND*%
X85596250Y-66714362D03*
%TD*%
D22*
%TO.P,C6,1*%
%TO.N,VCC*%
X71147095Y-56596250D03*
%TO.P,C6,2*%
%TO.N,GND*%
X71852905Y-57003750D03*
%TD*%
D23*
%TO.P,C10,1*%
%TO.N,VCC*%
X81500000Y-69437500D03*
%TO.P,C10,2*%
%TO.N,GND*%
X81500000Y-68622500D03*
%TD*%
D24*
%TO.P,D2,1,DIN*%
%TO.N,Net-(D1-DOUT)*%
X88408940Y-55664711D03*
%TO.P,D2,2,VDD*%
%TO.N,VCC*%
X87958940Y-54885289D03*
%TO.P,D2,3,DOUT*%
%TO.N,Net-(D2-DOUT)*%
X87179518Y-55335289D03*
%TO.P,D2,4,VSS*%
%TO.N,GND*%
X87629518Y-56114711D03*
%TD*%
D17*
%TO.P,C1,1*%
%TO.N,Net-(D1-VDD)*%
X88742500Y-58600000D03*
%TO.P,C1,2*%
%TO.N,GND*%
X89557500Y-58600000D03*
%TD*%
D25*
%TO.P,C2,1*%
%TO.N,VCC*%
X87352905Y-54046250D03*
%TO.P,C2,2*%
%TO.N,GND*%
X86647095Y-54453750D03*
%TD*%
D26*
%TO.P,D5,1,DIN*%
%TO.N,Net-(D4-DOUT)*%
X75664711Y-51591060D03*
%TO.P,D5,2,VDD*%
%TO.N,VCC*%
X74885289Y-52041060D03*
%TO.P,D5,3,DOUT*%
%TO.N,Net-(D5-DOUT)*%
X75335289Y-52820482D03*
%TO.P,D5,4,VSS*%
%TO.N,GND*%
X76114711Y-52370482D03*
%TD*%
D27*
%TO.P,C12,1*%
%TO.N,VCC*%
X88902905Y-63453750D03*
%TO.P,C12,2*%
%TO.N,GND*%
X88197095Y-63046250D03*
%TD*%
D28*
%TO.P,D9,1,DIN*%
%TO.N,Net-(D8-DOUT)*%
X74885289Y-67958940D03*
%TO.P,D9,2,VDD*%
%TO.N,VCC*%
X75664711Y-68408940D03*
%TO.P,D9,3,DOUT*%
%TO.N,Net-(D10-DIN)*%
X76114711Y-67629518D03*
%TO.P,D9,4,VSS*%
%TO.N,GND*%
X75335289Y-67179518D03*
%TD*%
D29*
%TO.P,D3,1,DIN*%
%TO.N,Net-(D2-DOUT)*%
X85114711Y-52041060D03*
%TO.P,D3,2,VDD*%
%TO.N,VCC*%
X84335289Y-51591060D03*
%TO.P,D3,3,DOUT*%
%TO.N,Net-(D3-DOUT)*%
X83885289Y-52370482D03*
%TO.P,D3,4,VSS*%
%TO.N,GND*%
X84664711Y-52820482D03*
%TD*%
D30*
%TO.P,R1,1*%
%TO.N,Net-(D1-DIN)*%
X89317500Y-61650000D03*
%TO.P,R1,2*%
%TO.N,Net-(J1-Pin_3)*%
X88502500Y-61650000D03*
%TD*%
D31*
%TO.P,C3,1*%
%TO.N,VCC*%
X83403750Y-51147095D03*
%TO.P,C3,2*%
%TO.N,GND*%
X82996250Y-51852905D03*
%TD*%
D32*
%TO.N,Net-(D12-DOUT)*%
X86950000Y-63150000D03*
%TO.N,VCC*%
X74000000Y-52000000D03*
X70071797Y-61196152D03*
X76071797Y-69196152D03*
X90079502Y-56650000D03*
X81196152Y-69928203D03*
X83928203Y-50803848D03*
X72000000Y-66000000D03*
X86000000Y-67940000D03*
X70803848Y-56071797D03*
X88000000Y-54000000D03*
X88260000Y-66020000D03*
X78803848Y-50071797D03*
%TO.N,GND*%
X90400000Y-61400000D03*
X91150000Y-61400000D03*
X91150000Y-64850000D03*
X90400000Y-64850000D03*
%TO.N,Net-(D1-VDD)*%
X87698157Y-58551843D03*
%TO.N,Net-(J1-Pin_3)*%
X87910000Y-61150000D03*
%TD*%
D33*
%TO.N,Net-(D1-DOUT)*%
X88550000Y-59550000D02*
X87700000Y-59550000D01*
X88408940Y-56891060D02*
X88408940Y-55664711D01*
X87453157Y-57846843D02*
X88408940Y-56891060D01*
X87406136Y-57846843D02*
X87453157Y-57846843D01*
X87700000Y-59550000D02*
X86993157Y-58843157D01*
X86993157Y-58843157D02*
X86993157Y-58259822D01*
X86993157Y-58259822D02*
X87406136Y-57846843D01*
%TO.N,Net-(D1-DIN)*%
X89495000Y-60495000D02*
X89495000Y-61467500D01*
%TO.N,Net-(D2-DOUT)*%
X85901060Y-52041060D02*
X86220000Y-52360000D01*
X85210000Y-54860000D02*
X85700000Y-55350000D01*
X86220000Y-52360000D02*
X86220000Y-53200000D01*
X86220000Y-53200000D02*
X85210000Y-54210000D01*
X85114711Y-52041060D02*
X85901060Y-52041060D01*
X85700000Y-55350000D02*
X87164807Y-55350000D01*
X85210000Y-54210000D02*
X85210000Y-54860000D01*
%TO.N,Net-(D3-DOUT)*%
X81650000Y-52300000D02*
X81650000Y-50850000D01*
X81350000Y-50550000D02*
X80450000Y-50550000D01*
X83885289Y-52370482D02*
X83205771Y-53050000D01*
X81650000Y-50850000D02*
X81350000Y-50550000D01*
X83205771Y-53050000D02*
X82400000Y-53050000D01*
X82400000Y-53050000D02*
X81650000Y-52300000D01*
%TO.N,Net-(D4-DOUT)*%
X79550000Y-51450000D02*
X79550000Y-52080000D01*
X79550000Y-52080000D02*
X78930000Y-52700000D01*
X78930000Y-52700000D02*
X77950000Y-52700000D01*
X76841060Y-51591060D02*
X75664711Y-51591060D01*
X77950000Y-52700000D02*
X76841060Y-51591060D01*
%TO.N,Net-(D5-DOUT)*%
X74130000Y-54690000D02*
X73660000Y-54220000D01*
X75335289Y-52995289D02*
X75550000Y-53210000D01*
X72706349Y-54220000D02*
X72041060Y-54885289D01*
X75335289Y-52820482D02*
X75335289Y-52995289D01*
X75550000Y-53840000D02*
X74700000Y-54690000D01*
X73660000Y-54220000D02*
X72706349Y-54220000D01*
X75550000Y-53210000D02*
X75550000Y-53840000D01*
X74700000Y-54690000D02*
X74130000Y-54690000D01*
%TO.N,Net-(D6-DOUT)*%
X72360000Y-58370000D02*
X71120000Y-58370000D01*
X71120000Y-58370000D02*
X70550000Y-58940000D01*
X73200000Y-56944229D02*
X73200000Y-57530000D01*
X73200000Y-57530000D02*
X72360000Y-58370000D01*
X72370482Y-56114711D02*
X73200000Y-56944229D01*
X70550000Y-58940000D02*
X70550000Y-59550000D01*
%TO.N,Net-(D12-DOUT)*%
X87629518Y-63829518D02*
X86950000Y-63150000D01*
X87629518Y-63885289D02*
X87629518Y-63829518D01*
%TO.N,VCC*%
X80450000Y-69450000D02*
X80717949Y-69450000D01*
X75664711Y-68789066D02*
X76071797Y-69196152D01*
X80717949Y-69450000D02*
X81196152Y-69928203D01*
X71591060Y-55664711D02*
X71210934Y-55664711D01*
X70550000Y-60450000D02*
X70550000Y-60717949D01*
X72041060Y-65958940D02*
X72000000Y-66000000D01*
X79282051Y-50550000D02*
X78803848Y-50071797D01*
X86000000Y-67940000D02*
X85981060Y-67958940D01*
X88830000Y-65480000D02*
X88800000Y-65480000D01*
X88408940Y-64335289D02*
X88408940Y-63865848D01*
X87958940Y-54041060D02*
X88000000Y-54000000D01*
X74041060Y-52041060D02*
X74000000Y-52000000D01*
X74885289Y-52041060D02*
X74041060Y-52041060D01*
X72041060Y-65114711D02*
X72041060Y-65958940D01*
X88980000Y-56650000D02*
X88850000Y-56780000D01*
X83928203Y-50803848D02*
X84335289Y-51210934D01*
X75664711Y-68408940D02*
X75664711Y-68789066D01*
X79550000Y-50550000D02*
X79282051Y-50550000D01*
X88800000Y-65480000D02*
X88260000Y-66020000D01*
X85981060Y-67958940D02*
X85114711Y-67958940D01*
X90079502Y-56650000D02*
X89955000Y-56774502D01*
X87958940Y-54885289D02*
X87958940Y-54041060D01*
X88408940Y-63865848D02*
X88770172Y-63504616D01*
X70803848Y-56071797D02*
X71210934Y-55664711D01*
X90079502Y-56650000D02*
X88980000Y-56650000D01*
X88830000Y-64756349D02*
X88830000Y-65480000D01*
X70550000Y-60717949D02*
X70071797Y-61196152D01*
X84335289Y-51591060D02*
X84335289Y-51210934D01*
X88408940Y-64335289D02*
X88830000Y-64756349D01*
%TO.N,Net-(D7-DOUT)*%
X71270000Y-63380000D02*
X71270000Y-64014229D01*
X72700000Y-61950000D02*
X71270000Y-63380000D01*
X71270000Y-64014229D02*
X71591060Y-64335289D01*
X71450000Y-60450000D02*
X71860000Y-60450000D01*
X72700000Y-61290000D02*
X72700000Y-61950000D01*
X71860000Y-60450000D02*
X72700000Y-61290000D01*
%TO.N,Net-(D8-DOUT)*%
X74900000Y-65100000D02*
X74900000Y-65800000D01*
X74464711Y-64664711D02*
X74900000Y-65100000D01*
X74900000Y-65800000D02*
X74330000Y-66370000D01*
X74330000Y-67403651D02*
X74885289Y-67958940D01*
X74330000Y-66370000D02*
X74330000Y-67403651D01*
X72820482Y-64664711D02*
X74464711Y-64664711D01*
%TO.N,Net-(D10-DIN)*%
X76754229Y-66990000D02*
X77680000Y-66990000D01*
X78250000Y-68690000D02*
X79010000Y-69450000D01*
X76114711Y-67629518D02*
X76754229Y-66990000D01*
X77680000Y-66990000D02*
X78250000Y-67560000D01*
X78250000Y-67560000D02*
X78250000Y-68690000D01*
X79010000Y-69450000D02*
X79550000Y-69450000D01*
%TO.N,Net-(D11-DOUT)*%
X84140000Y-66654807D02*
X84140000Y-66280000D01*
X85150000Y-65270000D02*
X85840000Y-65270000D01*
X85840000Y-65270000D02*
X86620000Y-66050000D01*
X86620000Y-66050000D02*
X87050000Y-66050000D01*
X87050000Y-66050000D02*
X87050000Y-66023651D01*
X87050000Y-66023651D02*
X87958940Y-65114711D01*
X84140000Y-66280000D02*
X85150000Y-65270000D01*
X84664711Y-67179518D02*
X84140000Y-66654807D01*
%TO.N,Net-(D10-DOUT)*%
X80970000Y-67190000D02*
X81870000Y-67190000D01*
X81870000Y-67190000D02*
X83088940Y-68408940D01*
X83088940Y-68408940D02*
X84335289Y-68408940D01*
X80530000Y-68470000D02*
X80530000Y-67630000D01*
X80530000Y-67630000D02*
X80970000Y-67190000D01*
%TO.N,Net-(D1-VDD)*%
X89450000Y-59550000D02*
X89450000Y-59500000D01*
X87746314Y-58600000D02*
X88492500Y-58600000D01*
X88742500Y-58792500D02*
X88742500Y-58600000D01*
X89450000Y-59500000D02*
X88742500Y-58792500D01*
X87698157Y-58551843D02*
X87746314Y-58600000D01*
X88850000Y-57620000D02*
X88850000Y-58492500D01*
X88850000Y-58492500D02*
X88742500Y-58600000D01*
%TO.N,Net-(J1-Pin_3)*%
X88390000Y-61680000D02*
X87910000Y-61200000D01*
%TD*%
%TA.AperFunction,Conductor*%
%TO.N,GND*%
G36*
X80329649Y-48009493D02*
G01*
X80662213Y-48019071D01*
X80664833Y-48019216D01*
X80675246Y-48020070D01*
X81005442Y-48047150D01*
X81238041Y-48067291D01*
X81332588Y-48075478D01*
X81335048Y-48075753D01*
X81362018Y-48079454D01*
X81674614Y-48122351D01*
X81998793Y-48169345D01*
X82000963Y-48169711D01*
X82337916Y-48234840D01*
X82659622Y-48300569D01*
X82993785Y-48384289D01*
X83242335Y-48450175D01*
X83310959Y-48468367D01*
X83640167Y-48570216D01*
X83951871Y-48672373D01*
X84275077Y-48792036D01*
X84580336Y-48911942D01*
X84896588Y-49049073D01*
X85194372Y-49186318D01*
X85502695Y-49340497D01*
X85792081Y-49494649D01*
X86091562Y-49665423D01*
X86261558Y-49768957D01*
X86371594Y-49835973D01*
X86661270Y-50022791D01*
X86931081Y-50209214D01*
X87180599Y-50390130D01*
X87210114Y-50411530D01*
X87468769Y-50613188D01*
X87736340Y-50830405D01*
X87983000Y-51046649D01*
X88238290Y-51278097D01*
X88330959Y-51369289D01*
X88460609Y-51496874D01*
X88472187Y-51508267D01*
X88714388Y-51753200D01*
X88934767Y-51996579D01*
X89162393Y-52253382D01*
X89163894Y-52255158D01*
X89369367Y-52510153D01*
X89582406Y-52778676D01*
X89583896Y-52780653D01*
X89774842Y-53047735D01*
X89972367Y-53326692D01*
X89973827Y-53328874D01*
X90151262Y-53609948D01*
X90318589Y-53875902D01*
X90319695Y-53878485D01*
X90326181Y-53888064D01*
X90327828Y-53890667D01*
X90329664Y-53893781D01*
X90341737Y-53899152D01*
X91955276Y-54970893D01*
X91993287Y-55018837D01*
X91999500Y-55053357D01*
X91999500Y-64951943D01*
X91980593Y-65010134D01*
X91962050Y-65029484D01*
X90080960Y-66522629D01*
X90067922Y-66528784D01*
X90063854Y-66535047D01*
X90062594Y-66536763D01*
X90060955Y-66539392D01*
X89887469Y-66790921D01*
X89679996Y-67090680D01*
X89678428Y-67092822D01*
X89471795Y-67359588D01*
X89260750Y-67629321D01*
X89259164Y-67631245D01*
X89035156Y-67889602D01*
X88811582Y-68143261D01*
X88809999Y-68144975D01*
X88570765Y-68391907D01*
X88333161Y-68631638D01*
X88079128Y-68866388D01*
X87828605Y-69091193D01*
X87561555Y-69311919D01*
X87298785Y-69521315D01*
X87019615Y-69727205D01*
X86745382Y-69920643D01*
X86455091Y-70110915D01*
X86170145Y-70287908D01*
X85869730Y-70461892D01*
X85574965Y-70621896D01*
X85265397Y-70779023D01*
X84961718Y-70921546D01*
X84644051Y-71061290D01*
X84332399Y-71185876D01*
X84007658Y-71307803D01*
X83688948Y-71414053D01*
X83358308Y-71517752D01*
X83033390Y-71605330D01*
X82698061Y-71690474D01*
X82367644Y-71759098D01*
X82030221Y-71825181D01*
X82027921Y-71825576D01*
X81693408Y-71874857D01*
X81354695Y-71921947D01*
X81352218Y-71922228D01*
X81011097Y-71952243D01*
X80674786Y-71980182D01*
X80672136Y-71980331D01*
X80307475Y-71991002D01*
X80001401Y-71999461D01*
X79998619Y-71999459D01*
X79316373Y-71979969D01*
X79313550Y-71979808D01*
X78765173Y-71932708D01*
X78629748Y-71920859D01*
X78627017Y-71920544D01*
X78158630Y-71853200D01*
X77945296Y-71821950D01*
X77942640Y-71821487D01*
X77512394Y-71734309D01*
X77267690Y-71683780D01*
X77265116Y-71683177D01*
X76858829Y-71576384D01*
X76599189Y-71506812D01*
X76596704Y-71506076D01*
X76208485Y-71379937D01*
X75942009Y-71291636D01*
X75939620Y-71290775D01*
X75566908Y-71145667D01*
X75298325Y-71038965D01*
X75296037Y-71037989D01*
X75082841Y-70940627D01*
X74937606Y-70874301D01*
X74670265Y-70749637D01*
X74668098Y-70748561D01*
X74323640Y-70566810D01*
X74262576Y-70533885D01*
X74059888Y-70424596D01*
X74057891Y-70423456D01*
X73789982Y-70261901D01*
X73727386Y-70224154D01*
X73469352Y-70064996D01*
X73467398Y-70063726D01*
X73151161Y-69847489D01*
X72900473Y-69671955D01*
X72898638Y-69670606D01*
X72896031Y-69668596D01*
X72676084Y-69498991D01*
X72597123Y-69438103D01*
X72355193Y-69246809D01*
X72353479Y-69245390D01*
X72067160Y-68997294D01*
X71834520Y-68790262D01*
X71563143Y-68526527D01*
X71341847Y-68305231D01*
X71322765Y-68284440D01*
X71086889Y-68027436D01*
X70877931Y-67792631D01*
X70639994Y-67501648D01*
X70631034Y-67490316D01*
X70444310Y-67254164D01*
X70223955Y-66950871D01*
X70042453Y-66691659D01*
X69884101Y-66445260D01*
X69840189Y-66376932D01*
X69839422Y-66375688D01*
X69716726Y-66176766D01*
X69673660Y-66106945D01*
X69563283Y-65911493D01*
X69490059Y-65781832D01*
X69484136Y-65770847D01*
X69339159Y-65501969D01*
X69326255Y-65475724D01*
X69174684Y-65167444D01*
X69040078Y-64878779D01*
X68895166Y-64535877D01*
X68777376Y-64239380D01*
X68758869Y-64187510D01*
X68652430Y-63889197D01*
X68642261Y-63858508D01*
X68551945Y-63585948D01*
X68543102Y-63555833D01*
X68447291Y-63229530D01*
X68364529Y-62920658D01*
X68280456Y-62559117D01*
X68276145Y-62538237D01*
X68215742Y-62245708D01*
X68152476Y-61880130D01*
X68106071Y-61563324D01*
X68063941Y-61196152D01*
X69466115Y-61196152D01*
X69486752Y-61352910D01*
X69486754Y-61352918D01*
X69547259Y-61498990D01*
X69547259Y-61498991D01*
X69608101Y-61578282D01*
X69643515Y-61624434D01*
X69768956Y-61720688D01*
X69768957Y-61720688D01*
X69768958Y-61720689D01*
X69915030Y-61781194D01*
X69915035Y-61781196D01*
X70071797Y-61801834D01*
X70094144Y-61798891D01*
X70154302Y-61810039D01*
X70177066Y-61827037D01*
X70202235Y-61852206D01*
X70305009Y-61897585D01*
X70330135Y-61900500D01*
X70854864Y-61900499D01*
X70869985Y-61898745D01*
X70929965Y-61910820D01*
X70951396Y-61927081D01*
X70951956Y-61927641D01*
X71064848Y-61985163D01*
X71064852Y-61985164D01*
X71158515Y-61999999D01*
X71257500Y-61999999D01*
X71257500Y-61650000D01*
X71557500Y-61650000D01*
X71557500Y-61999998D01*
X71557501Y-61999999D01*
X71656483Y-61999999D01*
X71656485Y-61999998D01*
X71750141Y-61985166D01*
X71750151Y-61985163D01*
X71863043Y-61927641D01*
X71952641Y-61838043D01*
X72010163Y-61725151D01*
X72010164Y-61725147D01*
X72022067Y-61650000D01*
X71557500Y-61650000D01*
X71257500Y-61650000D01*
X71257500Y-61449000D01*
X71276407Y-61390809D01*
X71325907Y-61354845D01*
X71356500Y-61350000D01*
X72022065Y-61350000D01*
X72022065Y-61349999D01*
X72017487Y-61321089D01*
X72027059Y-61260657D01*
X72070324Y-61217393D01*
X72130756Y-61207822D01*
X72185271Y-61235599D01*
X72345503Y-61395830D01*
X72373281Y-61450347D01*
X72374500Y-61465834D01*
X72374500Y-61774165D01*
X72355593Y-61832356D01*
X72345504Y-61844169D01*
X71051413Y-63138259D01*
X71048228Y-63141176D01*
X71016807Y-63167542D01*
X71016806Y-63167544D01*
X70996292Y-63203075D01*
X70993972Y-63206716D01*
X70970446Y-63240316D01*
X70970442Y-63240324D01*
X70970051Y-63241786D01*
X70960170Y-63265640D01*
X70959414Y-63266948D01*
X70959410Y-63266960D01*
X70952287Y-63307349D01*
X70951353Y-63311564D01*
X70940736Y-63351187D01*
X70940736Y-63351193D01*
X70944312Y-63392072D01*
X70944500Y-63396373D01*
X70944500Y-63997854D01*
X70944312Y-64002156D01*
X70940736Y-64043036D01*
X70944446Y-64056882D01*
X70951354Y-64082665D01*
X70952289Y-64086881D01*
X70959411Y-64127274D01*
X70960164Y-64128577D01*
X70970054Y-64152453D01*
X70970443Y-64153908D01*
X70970446Y-64153913D01*
X70993971Y-64187510D01*
X70996288Y-64191147D01*
X71016806Y-64226684D01*
X71016860Y-64226729D01*
X71016929Y-64226830D01*
X71022376Y-64233322D01*
X71021736Y-64233858D01*
X71046969Y-64270744D01*
X71064766Y-64323171D01*
X71066042Y-64326930D01*
X71335790Y-64794148D01*
X71375106Y-64838979D01*
X71446644Y-64874257D01*
X71446645Y-64874257D01*
X71447124Y-64874493D01*
X71490952Y-64917187D01*
X71502127Y-64969759D01*
X71496874Y-65049884D01*
X71496875Y-65049889D01*
X71516039Y-65106346D01*
X71516041Y-65106350D01*
X71516042Y-65106352D01*
X71675918Y-65383265D01*
X71688639Y-65443112D01*
X71663752Y-65499008D01*
X71650448Y-65511306D01*
X71571723Y-65571713D01*
X71571713Y-65571723D01*
X71475462Y-65697160D01*
X71475462Y-65697161D01*
X71414957Y-65843233D01*
X71414955Y-65843241D01*
X71394318Y-65999999D01*
X71394318Y-66000000D01*
X71414955Y-66156758D01*
X71414957Y-66156766D01*
X71475462Y-66302838D01*
X71475462Y-66302839D01*
X71571713Y-66428276D01*
X71571718Y-66428282D01*
X71697159Y-66524536D01*
X71697160Y-66524536D01*
X71697161Y-66524537D01*
X71748461Y-66545786D01*
X71843238Y-66585044D01*
X71960809Y-66600522D01*
X71999999Y-66605682D01*
X72000000Y-66605682D01*
X72000001Y-66605682D01*
X72031352Y-66601554D01*
X72156762Y-66585044D01*
X72302841Y-66524536D01*
X72379538Y-66465683D01*
X72437213Y-66445260D01*
X72465427Y-66448599D01*
X72471830Y-66450314D01*
X72485219Y-66453902D01*
X72596913Y-66441814D01*
X72620130Y-66431776D01*
X72626193Y-66428276D01*
X72761871Y-66349941D01*
X73074558Y-66169410D01*
X73086778Y-66160329D01*
X73144761Y-66140798D01*
X73171452Y-66144166D01*
X73172210Y-66144369D01*
X73172216Y-66144370D01*
X73298742Y-66137739D01*
X73298746Y-66137738D01*
X73387280Y-66103752D01*
X73387285Y-66103750D01*
X73472999Y-66054262D01*
X73282612Y-65724500D01*
X73211398Y-65601154D01*
X73557809Y-65601154D01*
X73732808Y-65904261D01*
X73818527Y-65854772D01*
X73892230Y-65795089D01*
X73961236Y-65688829D01*
X73961238Y-65688826D01*
X73994032Y-65566435D01*
X73994032Y-65566429D01*
X73987402Y-65439904D01*
X73960135Y-65368871D01*
X73557809Y-65601154D01*
X73211398Y-65601154D01*
X73197500Y-65577081D01*
X73184779Y-65517232D01*
X73209666Y-65461337D01*
X73233737Y-65441844D01*
X73810134Y-65109061D01*
X73817157Y-65071170D01*
X73846352Y-65017399D01*
X73901577Y-64991058D01*
X73914499Y-64990211D01*
X74288877Y-64990211D01*
X74347068Y-65009118D01*
X74358880Y-65019207D01*
X74545503Y-65205829D01*
X74573281Y-65260346D01*
X74574500Y-65275833D01*
X74574500Y-65624166D01*
X74555593Y-65682357D01*
X74545503Y-65694170D01*
X74111420Y-66128253D01*
X74108236Y-66131170D01*
X74076807Y-66157542D01*
X74076806Y-66157544D01*
X74056292Y-66193075D01*
X74053972Y-66196716D01*
X74030446Y-66230316D01*
X74030442Y-66230324D01*
X74030051Y-66231786D01*
X74020170Y-66255640D01*
X74019414Y-66256948D01*
X74019410Y-66256960D01*
X74012287Y-66297349D01*
X74011353Y-66301564D01*
X74000736Y-66341187D01*
X74000736Y-66341193D01*
X74004312Y-66382072D01*
X74004500Y-66386373D01*
X74004500Y-67387276D01*
X74004312Y-67391578D01*
X74000736Y-67432458D01*
X74001246Y-67434362D01*
X74011354Y-67472087D01*
X74012289Y-67476303D01*
X74019411Y-67516696D01*
X74020164Y-67517999D01*
X74030054Y-67541875D01*
X74030443Y-67543330D01*
X74030446Y-67543335D01*
X74053578Y-67576372D01*
X74053971Y-67576932D01*
X74056288Y-67580569D01*
X74066748Y-67598685D01*
X74076806Y-67616106D01*
X74108224Y-67642469D01*
X74111410Y-67645388D01*
X74335253Y-67869230D01*
X74363030Y-67923747D01*
X74358995Y-67971055D01*
X74341104Y-68023759D01*
X74341104Y-68023765D01*
X74342365Y-68043004D01*
X74346321Y-68103356D01*
X74381599Y-68174894D01*
X74426430Y-68214210D01*
X74893648Y-68483958D01*
X74893651Y-68483959D01*
X74893653Y-68483960D01*
X74916820Y-68491824D01*
X74950112Y-68503125D01*
X75029705Y-68497908D01*
X75029707Y-68497906D01*
X75030239Y-68497872D01*
X75089542Y-68512932D01*
X75125506Y-68552874D01*
X75125742Y-68553354D01*
X75125743Y-68553356D01*
X75161021Y-68624894D01*
X75205852Y-68664210D01*
X75287393Y-68711287D01*
X75328334Y-68756757D01*
X75336516Y-68805652D01*
X75335535Y-68816869D01*
X75335447Y-68817873D01*
X75338610Y-68829679D01*
X75346065Y-68857502D01*
X75347000Y-68861718D01*
X75354122Y-68902111D01*
X75354875Y-68903414D01*
X75364765Y-68927290D01*
X75365154Y-68928745D01*
X75365157Y-68928750D01*
X75382224Y-68953125D01*
X75388682Y-68962347D01*
X75390999Y-68965984D01*
X75410350Y-68999500D01*
X75411517Y-69001521D01*
X75442935Y-69027884D01*
X75446121Y-69030803D01*
X75448503Y-69033184D01*
X75476280Y-69087701D01*
X75476652Y-69116109D01*
X75466115Y-69196150D01*
X75466115Y-69196152D01*
X75486752Y-69352910D01*
X75486754Y-69352918D01*
X75547259Y-69498990D01*
X75547259Y-69498991D01*
X75564389Y-69521315D01*
X75643515Y-69624434D01*
X75768956Y-69720688D01*
X75768957Y-69720688D01*
X75768958Y-69720689D01*
X75907877Y-69778231D01*
X75915035Y-69781196D01*
X76015383Y-69794407D01*
X76071796Y-69801834D01*
X76071797Y-69801834D01*
X76071798Y-69801834D01*
X76103149Y-69797706D01*
X76228559Y-69781196D01*
X76374638Y-69720688D01*
X76500079Y-69624434D01*
X76596333Y-69498993D01*
X76625447Y-69428704D01*
X76665180Y-69382182D01*
X76691283Y-69370967D01*
X76706137Y-69366987D01*
X76796823Y-69300672D01*
X76811911Y-69280370D01*
X77074274Y-68825941D01*
X77080316Y-68811967D01*
X77120764Y-68766061D01*
X77145570Y-68755630D01*
X77146329Y-68755426D01*
X77146330Y-68755425D01*
X77252589Y-68686420D01*
X77252590Y-68686420D01*
X77312265Y-68612728D01*
X77312273Y-68612716D01*
X77361761Y-68526998D01*
X76884583Y-68251499D01*
X76843642Y-68206029D01*
X76837246Y-68145179D01*
X76848347Y-68116262D01*
X76862244Y-68092191D01*
X77208654Y-68092191D01*
X77511760Y-68267190D01*
X77561251Y-68181470D01*
X77595238Y-68092936D01*
X77595240Y-68092929D01*
X77601869Y-67966407D01*
X77601869Y-67966401D01*
X77569075Y-67844010D01*
X77569073Y-67844007D01*
X77500068Y-67737749D01*
X77440936Y-67689864D01*
X77208654Y-68092190D01*
X77208654Y-68092191D01*
X76862244Y-68092191D01*
X76938564Y-67960000D01*
X77181127Y-67539863D01*
X77110100Y-67512598D01*
X77104167Y-67511337D01*
X77051179Y-67480744D01*
X77026292Y-67424848D01*
X77039014Y-67365000D01*
X77084483Y-67324059D01*
X77124750Y-67315500D01*
X77504166Y-67315500D01*
X77562357Y-67334407D01*
X77574170Y-67344496D01*
X77895504Y-67665830D01*
X77923281Y-67720347D01*
X77924500Y-67735834D01*
X77924500Y-68673625D01*
X77924312Y-68677927D01*
X77920736Y-68718807D01*
X77923089Y-68727587D01*
X77931354Y-68758436D01*
X77932289Y-68762652D01*
X77939411Y-68803045D01*
X77940164Y-68804348D01*
X77950054Y-68828224D01*
X77950443Y-68829679D01*
X77950446Y-68829684D01*
X77972876Y-68861718D01*
X77973971Y-68863281D01*
X77976288Y-68866918D01*
X77982820Y-68878231D01*
X77996806Y-68902455D01*
X78028224Y-68928818D01*
X78031410Y-68931737D01*
X78768268Y-69668596D01*
X78771187Y-69671782D01*
X78797545Y-69703194D01*
X78833074Y-69723707D01*
X78836709Y-69726022D01*
X78870316Y-69749554D01*
X78871767Y-69749942D01*
X78895659Y-69759840D01*
X78896954Y-69760588D01*
X78905854Y-69762157D01*
X78937365Y-69767713D01*
X78941544Y-69768638D01*
X78981193Y-69779263D01*
X79022065Y-69775687D01*
X79026365Y-69775500D01*
X79056392Y-69775500D01*
X79114583Y-69794407D01*
X79138707Y-69819498D01*
X79155448Y-69844552D01*
X79221769Y-69888867D01*
X79266231Y-69897711D01*
X79280241Y-69900498D01*
X79280246Y-69900498D01*
X79280252Y-69900500D01*
X79280253Y-69900500D01*
X79819747Y-69900500D01*
X79819748Y-69900500D01*
X79878231Y-69888867D01*
X79944552Y-69844552D01*
X79944553Y-69844549D01*
X79944997Y-69844253D01*
X80003885Y-69827644D01*
X80055003Y-69844253D01*
X80055446Y-69844549D01*
X80055448Y-69844552D01*
X80121769Y-69888867D01*
X80166231Y-69897711D01*
X80180241Y-69900498D01*
X80180246Y-69900498D01*
X80180252Y-69900500D01*
X80500002Y-69900500D01*
X80558193Y-69919407D01*
X80594157Y-69968907D01*
X80598155Y-69986578D01*
X80611107Y-70084961D01*
X80611109Y-70084969D01*
X80671614Y-70231041D01*
X80671614Y-70231042D01*
X80715249Y-70287908D01*
X80767870Y-70356485D01*
X80893311Y-70452739D01*
X81039390Y-70513247D01*
X81156961Y-70528725D01*
X81196151Y-70533885D01*
X81196152Y-70533885D01*
X81196153Y-70533885D01*
X81227504Y-70529757D01*
X81352914Y-70513247D01*
X81498993Y-70452739D01*
X81624434Y-70356485D01*
X81720688Y-70231044D01*
X81781196Y-70084965D01*
X81801834Y-69928203D01*
X81801834Y-69921713D01*
X81804356Y-69921713D01*
X81813532Y-69872204D01*
X81830531Y-69849439D01*
X81852206Y-69827765D01*
X81897585Y-69724991D01*
X81900500Y-69699865D01*
X81900499Y-69175136D01*
X81898745Y-69160013D01*
X81910820Y-69100034D01*
X81927087Y-69078598D01*
X81927641Y-69078043D01*
X81985164Y-68965149D01*
X81985164Y-68965147D01*
X82000000Y-68871484D01*
X82000000Y-68772501D01*
X81999999Y-68772500D01*
X81449000Y-68772500D01*
X81390809Y-68753593D01*
X81354845Y-68704093D01*
X81350000Y-68673500D01*
X81350000Y-68007932D01*
X81650000Y-68007932D01*
X81650000Y-68472499D01*
X81650001Y-68472500D01*
X81999998Y-68472500D01*
X81999999Y-68472499D01*
X81999999Y-68373516D01*
X81999998Y-68373514D01*
X81985166Y-68279858D01*
X81985163Y-68279848D01*
X81927641Y-68166956D01*
X81838043Y-68077358D01*
X81725151Y-68019836D01*
X81725147Y-68019835D01*
X81650000Y-68007932D01*
X81350000Y-68007932D01*
X81274852Y-68019835D01*
X81274848Y-68019836D01*
X81161956Y-68077358D01*
X81072358Y-68166956D01*
X81053808Y-68203361D01*
X81010542Y-68246624D01*
X80950110Y-68256194D01*
X80895594Y-68228414D01*
X80883286Y-68213416D01*
X80872185Y-68196803D01*
X80855500Y-68141803D01*
X80855500Y-67805834D01*
X80874407Y-67747643D01*
X80884496Y-67735830D01*
X81075830Y-67544496D01*
X81130347Y-67516719D01*
X81145834Y-67515500D01*
X81694166Y-67515500D01*
X81752357Y-67534407D01*
X81764170Y-67544496D01*
X82847208Y-68627536D01*
X82850127Y-68630722D01*
X82876485Y-68662134D01*
X82912023Y-68682651D01*
X82915656Y-68684966D01*
X82949256Y-68708493D01*
X82950706Y-68708881D01*
X82974589Y-68718774D01*
X82975895Y-68719528D01*
X83016306Y-68726653D01*
X83020495Y-68727581D01*
X83060133Y-68738203D01*
X83101005Y-68734627D01*
X83105305Y-68734440D01*
X83945867Y-68734440D01*
X84004058Y-68753347D01*
X84031602Y-68783939D01*
X84049903Y-68815637D01*
X84080017Y-68867797D01*
X84080019Y-68867799D01*
X84119335Y-68912630D01*
X84190873Y-68947908D01*
X84270466Y-68953125D01*
X84326930Y-68933958D01*
X84794148Y-68664210D01*
X84838979Y-68624894D01*
X84874257Y-68553356D01*
X84874257Y-68553353D01*
X84874493Y-68552875D01*
X84917187Y-68509047D01*
X84969760Y-68497872D01*
X84970292Y-68497906D01*
X84970295Y-68497908D01*
X85049888Y-68503125D01*
X85106352Y-68483958D01*
X85415171Y-68305661D01*
X85475017Y-68292941D01*
X85530913Y-68317828D01*
X85543210Y-68331131D01*
X85571712Y-68368275D01*
X85571713Y-68368276D01*
X85571718Y-68368282D01*
X85697159Y-68464536D01*
X85697160Y-68464536D01*
X85697161Y-68464537D01*
X85790321Y-68503125D01*
X85843238Y-68525044D01*
X85960809Y-68540522D01*
X85999999Y-68545682D01*
X86000000Y-68545682D01*
X86000001Y-68545682D01*
X86031352Y-68541554D01*
X86156762Y-68525044D01*
X86302841Y-68464536D01*
X86428282Y-68368282D01*
X86524536Y-68242841D01*
X86585044Y-68096762D01*
X86605682Y-67940000D01*
X86585044Y-67783238D01*
X86581190Y-67773934D01*
X86524537Y-67637161D01*
X86524536Y-67637160D01*
X86524536Y-67637159D01*
X86524359Y-67636929D01*
X86524260Y-67636680D01*
X86521292Y-67631540D01*
X86522029Y-67631114D01*
X86504470Y-67587305D01*
X86503901Y-67582050D01*
X86503902Y-67582048D01*
X86491814Y-67470354D01*
X86481776Y-67447137D01*
X86481772Y-67447130D01*
X86481767Y-67447120D01*
X86231014Y-67012808D01*
X86219410Y-66992709D01*
X86210328Y-66980486D01*
X86190798Y-66922502D01*
X86194167Y-66895811D01*
X86194369Y-66895055D01*
X86194370Y-66895050D01*
X86187739Y-66768524D01*
X86187738Y-66768520D01*
X86153752Y-66679986D01*
X86153747Y-66679975D01*
X86104262Y-66594266D01*
X85758873Y-66793676D01*
X85758867Y-66793677D01*
X85627081Y-66869765D01*
X85567233Y-66882487D01*
X85511337Y-66857601D01*
X85491844Y-66833529D01*
X85159062Y-66257132D01*
X85099931Y-66305016D01*
X85030926Y-66411274D01*
X85030924Y-66411277D01*
X84998130Y-66533668D01*
X84998129Y-66533676D01*
X85000053Y-66570387D01*
X84984216Y-66629487D01*
X84936665Y-66667991D01*
X84875564Y-66671192D01*
X84857405Y-66664358D01*
X84809127Y-66640550D01*
X84776814Y-66638432D01*
X84729536Y-66635333D01*
X84729535Y-66635333D01*
X84729534Y-66635333D01*
X84714039Y-66640593D01*
X84676825Y-66653225D01*
X84615645Y-66654024D01*
X84575000Y-66629481D01*
X84539785Y-66594266D01*
X84494496Y-66548976D01*
X84466719Y-66494459D01*
X84465500Y-66478973D01*
X84465500Y-66455834D01*
X84484407Y-66397643D01*
X84494496Y-66385830D01*
X84773196Y-66107130D01*
X85418871Y-66107130D01*
X85651154Y-66509456D01*
X85954261Y-66334457D01*
X85904772Y-66248739D01*
X85845089Y-66175036D01*
X85738829Y-66106030D01*
X85738826Y-66106028D01*
X85616435Y-66073234D01*
X85616429Y-66073234D01*
X85489904Y-66079864D01*
X85489897Y-66079865D01*
X85418871Y-66107130D01*
X84773196Y-66107130D01*
X85255830Y-65624496D01*
X85310347Y-65596719D01*
X85325834Y-65595500D01*
X85664166Y-65595500D01*
X85722357Y-65614407D01*
X85734170Y-65624496D01*
X86378257Y-66268584D01*
X86381175Y-66271769D01*
X86406177Y-66301564D01*
X86407545Y-66303194D01*
X86443073Y-66323706D01*
X86446712Y-66326025D01*
X86480311Y-66349551D01*
X86480313Y-66349552D01*
X86480316Y-66349554D01*
X86481767Y-66349942D01*
X86505659Y-66359840D01*
X86506186Y-66360143D01*
X86506955Y-66360588D01*
X86547351Y-66367710D01*
X86551548Y-66368640D01*
X86591193Y-66379264D01*
X86632077Y-66375687D01*
X86636377Y-66375500D01*
X87107394Y-66375500D01*
X87126432Y-66368570D01*
X87143096Y-66364105D01*
X87163045Y-66360588D01*
X87180591Y-66350457D01*
X87196224Y-66343168D01*
X87215260Y-66336240D01*
X87230779Y-66323216D01*
X87244910Y-66313322D01*
X87262455Y-66303194D01*
X87275479Y-66287671D01*
X87287672Y-66275478D01*
X87303194Y-66262455D01*
X87313317Y-66244918D01*
X87323221Y-66230775D01*
X87323600Y-66230324D01*
X87336240Y-66215261D01*
X87338760Y-66208335D01*
X87361784Y-66172191D01*
X87496039Y-66037936D01*
X87550554Y-66010161D01*
X87610986Y-66019732D01*
X87654251Y-66062997D01*
X87664194Y-66095019D01*
X87674955Y-66176759D01*
X87674957Y-66176766D01*
X87735462Y-66322838D01*
X87735462Y-66322839D01*
X87819053Y-66431777D01*
X87831718Y-66448282D01*
X87957159Y-66544536D01*
X87957160Y-66544536D01*
X87957161Y-66544537D01*
X88103233Y-66605042D01*
X88103238Y-66605044D01*
X88220809Y-66620522D01*
X88259999Y-66625682D01*
X88260000Y-66625682D01*
X88260001Y-66625682D01*
X88291352Y-66621554D01*
X88416762Y-66605044D01*
X88562841Y-66544536D01*
X88688282Y-66448282D01*
X88784536Y-66322841D01*
X88845044Y-66176762D01*
X88865682Y-66020000D01*
X88855143Y-65939955D01*
X88866292Y-65879797D01*
X88883289Y-65857036D01*
X88946452Y-65793873D01*
X88982597Y-65770848D01*
X88995260Y-65766240D01*
X89010779Y-65753216D01*
X89024910Y-65743322D01*
X89042455Y-65733194D01*
X89055479Y-65717671D01*
X89067672Y-65705478D01*
X89083194Y-65692455D01*
X89093317Y-65674918D01*
X89103221Y-65660775D01*
X89116238Y-65645263D01*
X89116237Y-65645263D01*
X89116240Y-65645261D01*
X89123173Y-65626211D01*
X89130459Y-65610588D01*
X89140588Y-65593045D01*
X89144104Y-65573096D01*
X89148572Y-65556426D01*
X89155500Y-65537394D01*
X89155500Y-65422606D01*
X89155500Y-65422605D01*
X89155499Y-64772723D01*
X89155688Y-64768407D01*
X89156709Y-64756732D01*
X89159264Y-64727542D01*
X89148640Y-64687897D01*
X89147710Y-64683697D01*
X89142800Y-64655852D01*
X89140588Y-64643304D01*
X89139840Y-64642008D01*
X89129942Y-64618116D01*
X89129554Y-64616665D01*
X89129552Y-64616662D01*
X89129551Y-64616660D01*
X89106025Y-64583061D01*
X89103703Y-64579417D01*
X89096980Y-64567773D01*
X89083194Y-64543894D01*
X89083193Y-64543892D01*
X89055070Y-64520295D01*
X89051765Y-64517522D01*
X89048588Y-64514610D01*
X88958975Y-64424998D01*
X88931198Y-64370481D01*
X88935232Y-64323174D01*
X88953125Y-64270466D01*
X88947908Y-64190873D01*
X88912630Y-64119335D01*
X88911556Y-64118393D01*
X88910343Y-64116355D01*
X88906694Y-64111599D01*
X88907256Y-64111167D01*
X88880272Y-64065810D01*
X88885871Y-64004881D01*
X88926213Y-63958880D01*
X88985890Y-63945376D01*
X88987421Y-63945529D01*
X89064781Y-63953902D01*
X89173300Y-63924824D01*
X89263986Y-63858509D01*
X89279074Y-63838207D01*
X89423937Y-63587294D01*
X89433977Y-63564076D01*
X89446065Y-63452382D01*
X89416987Y-63343863D01*
X89350672Y-63253177D01*
X89350671Y-63253176D01*
X89350669Y-63253174D01*
X89330370Y-63238089D01*
X89275410Y-63206358D01*
X88875941Y-62975726D01*
X88875938Y-62975725D01*
X88875937Y-62975724D01*
X88875933Y-62975722D01*
X88861965Y-62969682D01*
X88816058Y-62929231D01*
X88805630Y-62904429D01*
X88805426Y-62903670D01*
X88736421Y-62797412D01*
X88662714Y-62737725D01*
X88576998Y-62688237D01*
X88301499Y-63165417D01*
X88256029Y-63206358D01*
X88195179Y-63212754D01*
X88166262Y-63201654D01*
X87589862Y-62868870D01*
X87580077Y-62872336D01*
X87518913Y-62873937D01*
X87468492Y-62839282D01*
X87378282Y-62721718D01*
X87378277Y-62721714D01*
X87378276Y-62721713D01*
X87252838Y-62625462D01*
X87213242Y-62609061D01*
X87739863Y-62609061D01*
X88142190Y-62841344D01*
X88142191Y-62841344D01*
X88317189Y-62538239D01*
X88317189Y-62538237D01*
X88231474Y-62488749D01*
X88142936Y-62454761D01*
X88142929Y-62454759D01*
X88016407Y-62448130D01*
X88016401Y-62448130D01*
X87894010Y-62480924D01*
X87894007Y-62480926D01*
X87787747Y-62549932D01*
X87787746Y-62549932D01*
X87739863Y-62609061D01*
X87213242Y-62609061D01*
X87106766Y-62564957D01*
X87106758Y-62564955D01*
X86950001Y-62544318D01*
X86949999Y-62544318D01*
X86793241Y-62564955D01*
X86793233Y-62564957D01*
X86647161Y-62625462D01*
X86647160Y-62625462D01*
X86521723Y-62721713D01*
X86521713Y-62721723D01*
X86425462Y-62847160D01*
X86425462Y-62847161D01*
X86364957Y-62993233D01*
X86364955Y-62993241D01*
X86344318Y-63149999D01*
X86344318Y-63150000D01*
X86364955Y-63306758D01*
X86364957Y-63306766D01*
X86425462Y-63452838D01*
X86425462Y-63452839D01*
X86519370Y-63575222D01*
X86521718Y-63578282D01*
X86521722Y-63578285D01*
X86521723Y-63578286D01*
X86533444Y-63587280D01*
X86647159Y-63674536D01*
X86647160Y-63674536D01*
X86647161Y-63674537D01*
X86664674Y-63681791D01*
X86793238Y-63735044D01*
X86950000Y-63755682D01*
X87004381Y-63748522D01*
X87064542Y-63759672D01*
X87106660Y-63804054D01*
X87114646Y-63864715D01*
X87105738Y-63888875D01*
X87106505Y-63889223D01*
X87104498Y-63893650D01*
X87082199Y-63959345D01*
X87081094Y-63958969D01*
X87058988Y-64005301D01*
X87012809Y-64032771D01*
X86956200Y-64047940D01*
X86956197Y-64047941D01*
X86865661Y-64114147D01*
X86865660Y-64114148D01*
X86850600Y-64134414D01*
X86850594Y-64134424D01*
X86778204Y-64259805D01*
X86778204Y-64259807D01*
X87270257Y-64543895D01*
X87298685Y-64560308D01*
X87339626Y-64605777D01*
X87346022Y-64666627D01*
X87334921Y-64695544D01*
X87034422Y-65216022D01*
X87034422Y-65216023D01*
X87152743Y-65284335D01*
X87193684Y-65329805D01*
X87200080Y-65390655D01*
X87173247Y-65440075D01*
X86917822Y-65695503D01*
X86863306Y-65723281D01*
X86847818Y-65724500D01*
X86795834Y-65724500D01*
X86737643Y-65705593D01*
X86725830Y-65695504D01*
X86081741Y-65051414D01*
X86078822Y-65048229D01*
X86052456Y-65016806D01*
X86023224Y-64999929D01*
X86016918Y-64996288D01*
X86013283Y-64993972D01*
X85979684Y-64970446D01*
X85979679Y-64970443D01*
X85978224Y-64970054D01*
X85954348Y-64960164D01*
X85953045Y-64959411D01*
X85912652Y-64952289D01*
X85908436Y-64951354D01*
X85882153Y-64944312D01*
X85868807Y-64940736D01*
X85868806Y-64940736D01*
X85864381Y-64941123D01*
X85827926Y-64944312D01*
X85823626Y-64944500D01*
X85166374Y-64944500D01*
X85162073Y-64944312D01*
X85121193Y-64940736D01*
X85121187Y-64940736D01*
X85081564Y-64951353D01*
X85077349Y-64952287D01*
X85036960Y-64959410D01*
X85036948Y-64959414D01*
X85035640Y-64960170D01*
X85011786Y-64970051D01*
X85010324Y-64970442D01*
X85010316Y-64970446D01*
X84989856Y-64984772D01*
X84976716Y-64993972D01*
X84973080Y-64996288D01*
X84966775Y-64999929D01*
X84937548Y-65016803D01*
X84937545Y-65016806D01*
X84911175Y-65048231D01*
X84908257Y-65051415D01*
X83921413Y-66038259D01*
X83918228Y-66041176D01*
X83886807Y-66067542D01*
X83886806Y-66067544D01*
X83878063Y-66082687D01*
X83867779Y-66100500D01*
X83866292Y-66103075D01*
X83863972Y-66106716D01*
X83840446Y-66140316D01*
X83840442Y-66140324D01*
X83840051Y-66141786D01*
X83830170Y-66165640D01*
X83829414Y-66166948D01*
X83829410Y-66166960D01*
X83822287Y-66207349D01*
X83821353Y-66211564D01*
X83810736Y-66251187D01*
X83810736Y-66251193D01*
X83814312Y-66292072D01*
X83814500Y-66296373D01*
X83814500Y-66638432D01*
X83814312Y-66642734D01*
X83812103Y-66667991D01*
X83810736Y-66683613D01*
X83821354Y-66723243D01*
X83822289Y-66727459D01*
X83829411Y-66767852D01*
X83830164Y-66769155D01*
X83840054Y-66793031D01*
X83840443Y-66794486D01*
X83840446Y-66794491D01*
X83863971Y-66828088D01*
X83866288Y-66831725D01*
X83885881Y-66865660D01*
X83891137Y-66874763D01*
X83888215Y-66876449D01*
X83905279Y-66918720D01*
X83890459Y-66978083D01*
X83856018Y-67011333D01*
X83740193Y-67078204D01*
X83940193Y-67424614D01*
X84040692Y-67598685D01*
X84053413Y-67658534D01*
X84028526Y-67714429D01*
X84004455Y-67733922D01*
X83469108Y-68043004D01*
X83457176Y-68061378D01*
X83400054Y-68083304D01*
X83394874Y-68083440D01*
X83264775Y-68083440D01*
X83206584Y-68064533D01*
X83194771Y-68054444D01*
X82654863Y-67514536D01*
X83239490Y-67514536D01*
X83251557Y-67626040D01*
X83251558Y-67626042D01*
X83261582Y-67649226D01*
X83333974Y-67774612D01*
X83333975Y-67774612D01*
X83680383Y-67574613D01*
X83480384Y-67228204D01*
X83354989Y-67300602D01*
X83334723Y-67315662D01*
X83268520Y-67406194D01*
X83268519Y-67406196D01*
X83239490Y-67514534D01*
X83239490Y-67514536D01*
X82654863Y-67514536D01*
X82111741Y-66971414D01*
X82108822Y-66968229D01*
X82082456Y-66936806D01*
X82051130Y-66918720D01*
X82046918Y-66916288D01*
X82043283Y-66913972D01*
X82009684Y-66890446D01*
X82009679Y-66890443D01*
X82008224Y-66890054D01*
X81984348Y-66880164D01*
X81983045Y-66879411D01*
X81942652Y-66872289D01*
X81938436Y-66871354D01*
X81912153Y-66864312D01*
X81898807Y-66860736D01*
X81898806Y-66860736D01*
X81894381Y-66861123D01*
X81857926Y-66864312D01*
X81853626Y-66864500D01*
X80986374Y-66864500D01*
X80982073Y-66864312D01*
X80941193Y-66860736D01*
X80941187Y-66860736D01*
X80901564Y-66871353D01*
X80897349Y-66872287D01*
X80856960Y-66879410D01*
X80856948Y-66879414D01*
X80855640Y-66880170D01*
X80831786Y-66890051D01*
X80830324Y-66890442D01*
X80830316Y-66890446D01*
X80796716Y-66913972D01*
X80793080Y-66916288D01*
X80784875Y-66921025D01*
X80757545Y-66936805D01*
X80731181Y-66968224D01*
X80728263Y-66971408D01*
X80311413Y-67388259D01*
X80308229Y-67391176D01*
X80276807Y-67417542D01*
X80276806Y-67417544D01*
X80267826Y-67433098D01*
X80259719Y-67447140D01*
X80256292Y-67453075D01*
X80253972Y-67456716D01*
X80230446Y-67490316D01*
X80230442Y-67490324D01*
X80230051Y-67491786D01*
X80220170Y-67515640D01*
X80219414Y-67516948D01*
X80219410Y-67516960D01*
X80212287Y-67557349D01*
X80211353Y-67561564D01*
X80200736Y-67601187D01*
X80200736Y-67601193D01*
X80204312Y-67642072D01*
X80204500Y-67646373D01*
X80204500Y-68013429D01*
X80185593Y-68071620D01*
X80136093Y-68107584D01*
X80124815Y-68110527D01*
X80112207Y-68113035D01*
X80111979Y-68111890D01*
X80060802Y-68115913D01*
X80013919Y-68089655D01*
X79972477Y-68048213D01*
X79869872Y-68002909D01*
X79844797Y-68000000D01*
X79700001Y-68000000D01*
X79700000Y-68000001D01*
X79700000Y-68601000D01*
X79681093Y-68659191D01*
X79631593Y-68695155D01*
X79601000Y-68700000D01*
X79000002Y-68700000D01*
X79000001Y-68700001D01*
X79000001Y-68740666D01*
X78981094Y-68798857D01*
X78931594Y-68834821D01*
X78870408Y-68834821D01*
X78830997Y-68810670D01*
X78604495Y-68584168D01*
X78576718Y-68529651D01*
X78575499Y-68514164D01*
X78575499Y-68399998D01*
X79000000Y-68399998D01*
X79000001Y-68400000D01*
X79399999Y-68400000D01*
X79400000Y-68399999D01*
X79400000Y-68000001D01*
X79399999Y-68000000D01*
X79255210Y-68000000D01*
X79255207Y-68000001D01*
X79230125Y-68002909D01*
X79127522Y-68048213D01*
X79048213Y-68127522D01*
X79002909Y-68230127D01*
X79000000Y-68255202D01*
X79000000Y-68399998D01*
X78575499Y-68399998D01*
X78575499Y-68071620D01*
X78575499Y-67576349D01*
X78575687Y-67572073D01*
X78579264Y-67531193D01*
X78568640Y-67491548D01*
X78567710Y-67487348D01*
X78560588Y-67446955D01*
X78559840Y-67445659D01*
X78549942Y-67421767D01*
X78549554Y-67420316D01*
X78549552Y-67420313D01*
X78549551Y-67420311D01*
X78526025Y-67386712D01*
X78523703Y-67383068D01*
X78503193Y-67347543D01*
X78482069Y-67329819D01*
X78471765Y-67321173D01*
X78468588Y-67318261D01*
X77921741Y-66771414D01*
X77918822Y-66768229D01*
X77892456Y-66736806D01*
X77864488Y-66720659D01*
X77856918Y-66716288D01*
X77853283Y-66713972D01*
X77819684Y-66690446D01*
X77819679Y-66690443D01*
X77818224Y-66690054D01*
X77794348Y-66680164D01*
X77793045Y-66679411D01*
X77752652Y-66672289D01*
X77748436Y-66671354D01*
X77722153Y-66664312D01*
X77708807Y-66660736D01*
X77708806Y-66660736D01*
X77704381Y-66661123D01*
X77667926Y-66664312D01*
X77663626Y-66664500D01*
X76770603Y-66664500D01*
X76766302Y-66664312D01*
X76725422Y-66660736D01*
X76725416Y-66660736D01*
X76685793Y-66671353D01*
X76681578Y-66672287D01*
X76641189Y-66679410D01*
X76641177Y-66679414D01*
X76639869Y-66680170D01*
X76616015Y-66690051D01*
X76614553Y-66690442D01*
X76614545Y-66690446D01*
X76580945Y-66713972D01*
X76577309Y-66716288D01*
X76569740Y-66720659D01*
X76541774Y-66736805D01*
X76515410Y-66768224D01*
X76512492Y-66771408D01*
X76204420Y-67079481D01*
X76149903Y-67107258D01*
X76102595Y-67103224D01*
X76071950Y-67092822D01*
X76049888Y-67085333D01*
X76049886Y-67085333D01*
X76040656Y-67082200D01*
X76041030Y-67081095D01*
X75994699Y-67058989D01*
X75967227Y-67012808D01*
X75952058Y-66956197D01*
X75885852Y-66865661D01*
X75885851Y-66865660D01*
X75865585Y-66850600D01*
X75865575Y-66850594D01*
X75740193Y-66778204D01*
X75740191Y-66778204D01*
X75439692Y-67298684D01*
X75394223Y-67339625D01*
X75333373Y-67346021D01*
X75304456Y-67334921D01*
X75153358Y-67247685D01*
X74783973Y-67034422D01*
X74780122Y-67035454D01*
X74719021Y-67032251D01*
X74671471Y-66993746D01*
X74655500Y-66939827D01*
X74655500Y-66774613D01*
X74933975Y-66774613D01*
X75280384Y-66974612D01*
X75480383Y-66628204D01*
X75354990Y-66555808D01*
X75331814Y-66545787D01*
X75331807Y-66545786D01*
X75220307Y-66533719D01*
X75220305Y-66533719D01*
X75111968Y-66562748D01*
X75021432Y-66628954D01*
X75021431Y-66628955D01*
X75006371Y-66649221D01*
X75006365Y-66649231D01*
X74933975Y-66774612D01*
X74933975Y-66774613D01*
X74655500Y-66774613D01*
X74655500Y-66545832D01*
X74674407Y-66487641D01*
X74684490Y-66475835D01*
X75118588Y-66041736D01*
X75121764Y-66038827D01*
X75127076Y-66034368D01*
X75153194Y-66012455D01*
X75173714Y-65976911D01*
X75176012Y-65973303D01*
X75199554Y-65939684D01*
X75199941Y-65938236D01*
X75209838Y-65914345D01*
X75210588Y-65913045D01*
X75217709Y-65872656D01*
X75218640Y-65868452D01*
X75229264Y-65828807D01*
X75225687Y-65787922D01*
X75225500Y-65783623D01*
X75225500Y-65116373D01*
X75225687Y-65112072D01*
X75229264Y-65071193D01*
X75218640Y-65031548D01*
X75217710Y-65027348D01*
X75217240Y-65024682D01*
X75210588Y-64986955D01*
X75209840Y-64985659D01*
X75199942Y-64961767D01*
X75199554Y-64960316D01*
X75199552Y-64960313D01*
X75199551Y-64960311D01*
X75176025Y-64926712D01*
X75173703Y-64923068D01*
X75153193Y-64887543D01*
X75132069Y-64869819D01*
X75121765Y-64861173D01*
X75118588Y-64858261D01*
X74706452Y-64446125D01*
X74703533Y-64442940D01*
X74677167Y-64411517D01*
X74654529Y-64398447D01*
X74641629Y-64390999D01*
X74637999Y-64388686D01*
X74604395Y-64365157D01*
X74604390Y-64365154D01*
X74602935Y-64364765D01*
X74579059Y-64354875D01*
X74577756Y-64354122D01*
X74537363Y-64347000D01*
X74533147Y-64346065D01*
X74506864Y-64339023D01*
X74493518Y-64335447D01*
X74493517Y-64335447D01*
X74489092Y-64335834D01*
X74452637Y-64339023D01*
X74448337Y-64339211D01*
X73209904Y-64339211D01*
X73151713Y-64320304D01*
X73124168Y-64289711D01*
X73088156Y-64227336D01*
X73075753Y-64205853D01*
X73062861Y-64191153D01*
X73036436Y-64161021D01*
X73036434Y-64161020D01*
X73030007Y-64153691D01*
X73030885Y-64152920D01*
X73001815Y-64110625D01*
X73001112Y-64056882D01*
X73016280Y-64000275D01*
X73016280Y-64000270D01*
X73004213Y-63888766D01*
X73004212Y-63888764D01*
X72994188Y-63865580D01*
X72921796Y-63740193D01*
X72921794Y-63740193D01*
X72533104Y-63964603D01*
X72533103Y-63964604D01*
X72401314Y-64040692D01*
X72341465Y-64053413D01*
X72285570Y-64028526D01*
X72266078Y-64004455D01*
X71965578Y-63483975D01*
X71965577Y-63483975D01*
X71840182Y-63556373D01*
X71819916Y-63571433D01*
X71774413Y-63633659D01*
X71724802Y-63669470D01*
X71663617Y-63669282D01*
X71614228Y-63633166D01*
X71595500Y-63575222D01*
X71595500Y-63555833D01*
X71614407Y-63497642D01*
X71624490Y-63485835D01*
X71776350Y-63333975D01*
X72225386Y-63333975D01*
X72425385Y-63680383D01*
X72771794Y-63480384D01*
X72771794Y-63480383D01*
X72699400Y-63354993D01*
X72684337Y-63334723D01*
X72593805Y-63268520D01*
X72593803Y-63268519D01*
X72485464Y-63239490D01*
X72373959Y-63251557D01*
X72373957Y-63251558D01*
X72350784Y-63261577D01*
X72225386Y-63333975D01*
X71776350Y-63333975D01*
X72918588Y-62191736D01*
X72921766Y-62188824D01*
X72953194Y-62162455D01*
X72973709Y-62126919D01*
X72976027Y-62123283D01*
X72987935Y-62106275D01*
X72999553Y-62089684D01*
X72999942Y-62088231D01*
X73009833Y-62064352D01*
X73010588Y-62063045D01*
X73017714Y-62022624D01*
X73018642Y-62018439D01*
X73029263Y-61978807D01*
X73025687Y-61937934D01*
X73025500Y-61933634D01*
X73025500Y-61306362D01*
X73025687Y-61302061D01*
X73029263Y-61261193D01*
X73018642Y-61221559D01*
X73017712Y-61217360D01*
X73010588Y-61176955D01*
X73009834Y-61175649D01*
X72999941Y-61151765D01*
X72999553Y-61150316D01*
X72976026Y-61116716D01*
X72973711Y-61113083D01*
X72953194Y-61077545D01*
X72921771Y-61051178D01*
X72918594Y-61048266D01*
X72101741Y-60231414D01*
X72098822Y-60228229D01*
X72072456Y-60196806D01*
X72039429Y-60177738D01*
X72036918Y-60176288D01*
X72033288Y-60173975D01*
X71999684Y-60150446D01*
X71999679Y-60150443D01*
X71998224Y-60150054D01*
X71974348Y-60140164D01*
X71965544Y-60135081D01*
X71967440Y-60131796D01*
X71932489Y-60104085D01*
X71916046Y-60045150D01*
X71932846Y-60000000D01*
X73894548Y-60000000D01*
X73901815Y-60180342D01*
X73902474Y-60196682D01*
X73902474Y-60245717D01*
X73906420Y-60294603D01*
X73914346Y-60491285D01*
X73914346Y-60491291D01*
X73914347Y-60491296D01*
X73938070Y-60686674D01*
X73942019Y-60735580D01*
X73942019Y-60735581D01*
X73949887Y-60783992D01*
X73973611Y-60979379D01*
X74012985Y-61172247D01*
X74020851Y-61220647D01*
X74032587Y-61268263D01*
X74036565Y-61287748D01*
X74071959Y-61461122D01*
X74071962Y-61461134D01*
X74126726Y-61650203D01*
X74138462Y-61697816D01*
X74153990Y-61744329D01*
X74175906Y-61819991D01*
X74208756Y-61933401D01*
X74208759Y-61933410D01*
X74208760Y-61933412D01*
X74278549Y-62117432D01*
X74294087Y-62163970D01*
X74294087Y-62163971D01*
X74313317Y-62209105D01*
X74383106Y-62393124D01*
X74383110Y-62393133D01*
X74412352Y-62454759D01*
X74467486Y-62570953D01*
X74486717Y-62616088D01*
X74509513Y-62659523D01*
X74593892Y-62837347D01*
X74692298Y-63007792D01*
X74715104Y-63051244D01*
X74741325Y-63092710D01*
X74784532Y-63167545D01*
X74839733Y-63263155D01*
X74839736Y-63263159D01*
X74839737Y-63263161D01*
X74951532Y-63425124D01*
X74977759Y-63466598D01*
X74977767Y-63466610D01*
X75007230Y-63505817D01*
X75119041Y-63667803D01*
X75130462Y-63681791D01*
X75243523Y-63820266D01*
X75272992Y-63859482D01*
X75292162Y-63881120D01*
X75305518Y-63896197D01*
X75430001Y-64048661D01*
X75566359Y-64190625D01*
X75598877Y-64227330D01*
X75634250Y-64261307D01*
X75770602Y-64403264D01*
X75770605Y-64403267D01*
X75794298Y-64424257D01*
X75917921Y-64533778D01*
X75953310Y-64567769D01*
X75991304Y-64598789D01*
X76053540Y-64653925D01*
X76138634Y-64729313D01*
X76138634Y-64729312D01*
X76138635Y-64729313D01*
X76196405Y-64772724D01*
X76295981Y-64847551D01*
X76333985Y-64878580D01*
X76333988Y-64878582D01*
X76374358Y-64906447D01*
X76388650Y-64917187D01*
X76531704Y-65024686D01*
X76698058Y-65129882D01*
X76738435Y-65157752D01*
X76780916Y-65182278D01*
X76947274Y-65287477D01*
X77121564Y-65378951D01*
X77164038Y-65403474D01*
X77204356Y-65422605D01*
X77208356Y-65424503D01*
X77237700Y-65439904D01*
X77382632Y-65515970D01*
X77382631Y-65515970D01*
X77382637Y-65515972D01*
X77382638Y-65515973D01*
X77563717Y-65593123D01*
X77608033Y-65614152D01*
X77653903Y-65631548D01*
X77834977Y-65708697D01*
X77834981Y-65708698D01*
X77834982Y-65708699D01*
X77882313Y-65724500D01*
X78021697Y-65771033D01*
X78067541Y-65788420D01*
X78080332Y-65792125D01*
X78114653Y-65802067D01*
X78301349Y-65864395D01*
X78301350Y-65864395D01*
X78301353Y-65864395D01*
X78301357Y-65864397D01*
X78492471Y-65911502D01*
X78519988Y-65919473D01*
X78539584Y-65925150D01*
X78561493Y-65929622D01*
X78587649Y-65934962D01*
X78778753Y-65982065D01*
X78778755Y-65982065D01*
X78778758Y-65982066D01*
X78778757Y-65982066D01*
X78817338Y-65988335D01*
X78973054Y-66013641D01*
X79021094Y-66023450D01*
X79069777Y-66029360D01*
X79189161Y-66048762D01*
X79264071Y-66060937D01*
X79315638Y-66065099D01*
X79460270Y-66076775D01*
X79508955Y-66082687D01*
X79557952Y-66084660D01*
X79754158Y-66100500D01*
X79754163Y-66100500D01*
X79950967Y-66100500D01*
X80000000Y-66102476D01*
X80049033Y-66100500D01*
X80245837Y-66100500D01*
X80245842Y-66100500D01*
X80442050Y-66084660D01*
X80491045Y-66082687D01*
X80539732Y-66076774D01*
X80683022Y-66065207D01*
X80735929Y-66060937D01*
X80819819Y-66047302D01*
X80930212Y-66029362D01*
X80978906Y-66023450D01*
X81026959Y-66013639D01*
X81221247Y-65982065D01*
X81412360Y-65934959D01*
X81441483Y-65929014D01*
X81460416Y-65925150D01*
X81475649Y-65920737D01*
X81507515Y-65911505D01*
X81698643Y-65864397D01*
X81698646Y-65864395D01*
X81698650Y-65864395D01*
X81698651Y-65864395D01*
X81763570Y-65842721D01*
X81885369Y-65802058D01*
X81895469Y-65799134D01*
X81932448Y-65788424D01*
X81932459Y-65788420D01*
X81978308Y-65771031D01*
X82117687Y-65724500D01*
X82165018Y-65708699D01*
X82165018Y-65708698D01*
X82165023Y-65708697D01*
X82346113Y-65631541D01*
X82381359Y-65618174D01*
X82391968Y-65614152D01*
X82407583Y-65606742D01*
X82436278Y-65593125D01*
X82617362Y-65515973D01*
X82617362Y-65515972D01*
X82617369Y-65515970D01*
X82617368Y-65515970D01*
X82791657Y-65424496D01*
X82835962Y-65403474D01*
X82878424Y-65378957D01*
X83052726Y-65287477D01*
X83219100Y-65182267D01*
X83261565Y-65157752D01*
X83301942Y-65129882D01*
X83374670Y-65083891D01*
X83468292Y-65024688D01*
X83468294Y-65024686D01*
X83468301Y-65024682D01*
X83514173Y-64990211D01*
X83625653Y-64906438D01*
X83663227Y-64880503D01*
X83666018Y-64878578D01*
X83690901Y-64858261D01*
X83704002Y-64847562D01*
X83794319Y-64779694D01*
X86533719Y-64779694D01*
X86562748Y-64888031D01*
X86628954Y-64978567D01*
X86628955Y-64978568D01*
X86649219Y-64993627D01*
X86774613Y-65066023D01*
X86974612Y-64719614D01*
X86628204Y-64519615D01*
X86555808Y-64645009D01*
X86545787Y-64668185D01*
X86545786Y-64668192D01*
X86533719Y-64779692D01*
X86533719Y-64779694D01*
X83794319Y-64779694D01*
X83861365Y-64729313D01*
X83861366Y-64729312D01*
X83861366Y-64729313D01*
X83899482Y-64695544D01*
X84008698Y-64598786D01*
X84035240Y-64577117D01*
X84046686Y-64567773D01*
X84046685Y-64567773D01*
X84046690Y-64567769D01*
X84082053Y-64533800D01*
X84229395Y-64403267D01*
X84229397Y-64403265D01*
X84229398Y-64403265D01*
X84356955Y-64270463D01*
X84365755Y-64261300D01*
X84388575Y-64239383D01*
X84401118Y-64227336D01*
X84411053Y-64216120D01*
X84433625Y-64190640D01*
X84569996Y-64048664D01*
X84569995Y-64048664D01*
X84569999Y-64048661D01*
X84694481Y-63896197D01*
X84696738Y-63893650D01*
X84727008Y-63859482D01*
X84727009Y-63859481D01*
X84727009Y-63859482D01*
X84742992Y-63838211D01*
X84756470Y-63820273D01*
X84879598Y-63669470D01*
X84880957Y-63667806D01*
X84910066Y-63625634D01*
X84992771Y-63505813D01*
X85022239Y-63466601D01*
X85048455Y-63425141D01*
X85130170Y-63306758D01*
X85160269Y-63263153D01*
X85195775Y-63201654D01*
X85258681Y-63092696D01*
X85275394Y-63066268D01*
X85284901Y-63051236D01*
X85307701Y-63007792D01*
X85322202Y-62982676D01*
X85406109Y-62837345D01*
X85407422Y-62834579D01*
X85425057Y-62797412D01*
X85490498Y-62659498D01*
X85513284Y-62616086D01*
X85513286Y-62616082D01*
X85513286Y-62616083D01*
X85532513Y-62570953D01*
X85616890Y-62393133D01*
X85686689Y-62209087D01*
X85705914Y-62163968D01*
X85721438Y-62117461D01*
X85774024Y-61978807D01*
X85791245Y-61933401D01*
X85814762Y-61852206D01*
X85846013Y-61744313D01*
X85861538Y-61697815D01*
X85873266Y-61650227D01*
X85928039Y-61461130D01*
X85928039Y-61461126D01*
X85928041Y-61461122D01*
X85928041Y-61461123D01*
X85946947Y-61368512D01*
X85967415Y-61268250D01*
X85979148Y-61220652D01*
X85987013Y-61172253D01*
X86026388Y-60979383D01*
X86050115Y-60783969D01*
X86057982Y-60735572D01*
X86061929Y-60686674D01*
X86085654Y-60491285D01*
X86093580Y-60294602D01*
X86097526Y-60245722D01*
X86098183Y-60180358D01*
X86105452Y-60000000D01*
X86098183Y-59819643D01*
X86097526Y-59754277D01*
X86097205Y-59750313D01*
X86093580Y-59705395D01*
X86085654Y-59508715D01*
X86061928Y-59313317D01*
X86057983Y-59264430D01*
X86052407Y-59230125D01*
X86050113Y-59216009D01*
X86026388Y-59020617D01*
X85987012Y-58827740D01*
X85986885Y-58826960D01*
X85979148Y-58779348D01*
X85967416Y-58731754D01*
X85928041Y-58538878D01*
X85928040Y-58538877D01*
X85873273Y-58349796D01*
X85861537Y-58302184D01*
X85861536Y-58302178D01*
X85861536Y-58302177D01*
X85846009Y-58255670D01*
X85791245Y-58066599D01*
X85721449Y-57882566D01*
X85705916Y-57836037D01*
X85705916Y-57836036D01*
X85701033Y-57824577D01*
X85686689Y-57790911D01*
X85640714Y-57669686D01*
X85616894Y-57606875D01*
X85616893Y-57606875D01*
X85616890Y-57606867D01*
X85532513Y-57429046D01*
X85513281Y-57383907D01*
X85513281Y-57383908D01*
X85490486Y-57340476D01*
X85406109Y-57162655D01*
X85396054Y-57145240D01*
X85357393Y-57078277D01*
X85307701Y-56992207D01*
X85284899Y-56948762D01*
X85258673Y-56907289D01*
X85160267Y-56736845D01*
X85048462Y-56574867D01*
X85028195Y-56542817D01*
X85022244Y-56533406D01*
X85022236Y-56533396D01*
X85011881Y-56519615D01*
X87228204Y-56519615D01*
X87300599Y-56645006D01*
X87315662Y-56665276D01*
X87406194Y-56731479D01*
X87406196Y-56731480D01*
X87514535Y-56760509D01*
X87626040Y-56748442D01*
X87626042Y-56748441D01*
X87649222Y-56738419D01*
X87774612Y-56666024D01*
X87574613Y-56319615D01*
X87228204Y-56519614D01*
X87228204Y-56519615D01*
X85011881Y-56519615D01*
X84992765Y-56494176D01*
X84891287Y-56347160D01*
X84880959Y-56332197D01*
X84756474Y-56179730D01*
X84734060Y-56149903D01*
X84727008Y-56140518D01*
X84706455Y-56117319D01*
X84694481Y-56103802D01*
X84569999Y-55951339D01*
X84433640Y-55809374D01*
X84401123Y-55772670D01*
X84401120Y-55772667D01*
X84376942Y-55749444D01*
X84365750Y-55738693D01*
X84229398Y-55596736D01*
X84173552Y-55547261D01*
X84082073Y-55466217D01*
X84046693Y-55432234D01*
X84046692Y-55432233D01*
X84046686Y-55432228D01*
X84008678Y-55401194D01*
X83924452Y-55326578D01*
X83861366Y-55270687D01*
X83861366Y-55270688D01*
X83861365Y-55270687D01*
X83775084Y-55205851D01*
X83704018Y-55152448D01*
X83666021Y-55121425D01*
X83666015Y-55121420D01*
X83625637Y-55093549D01*
X83541388Y-55030240D01*
X83468292Y-54975312D01*
X83468289Y-54975310D01*
X83468290Y-54975310D01*
X83301940Y-54870117D01*
X83261570Y-54842251D01*
X83219079Y-54817718D01*
X83080738Y-54730237D01*
X83052726Y-54712523D01*
X83052722Y-54712520D01*
X83052719Y-54712519D01*
X83052718Y-54712518D01*
X82878445Y-54621053D01*
X82862263Y-54611710D01*
X82835962Y-54596526D01*
X82835952Y-54596521D01*
X82835950Y-54596520D01*
X82791641Y-54575495D01*
X82617369Y-54484030D01*
X82617368Y-54484030D01*
X82617362Y-54484027D01*
X82436285Y-54406877D01*
X82417574Y-54397999D01*
X82391968Y-54385848D01*
X82391969Y-54385849D01*
X82391967Y-54385848D01*
X82346096Y-54368451D01*
X82268175Y-54335252D01*
X82165023Y-54291303D01*
X82165017Y-54291301D01*
X82165010Y-54291298D01*
X82165011Y-54291298D01*
X81978315Y-54228971D01*
X81932466Y-54211582D01*
X81932467Y-54211582D01*
X81885347Y-54197933D01*
X81698647Y-54135604D01*
X81507540Y-54088500D01*
X81460422Y-54074852D01*
X81460420Y-54074851D01*
X81460418Y-54074851D01*
X81412353Y-54065038D01*
X81244908Y-54023767D01*
X81221247Y-54017935D01*
X81221244Y-54017934D01*
X81221243Y-54017934D01*
X81026965Y-53986361D01*
X80978902Y-53976549D01*
X80930210Y-53970637D01*
X80735926Y-53939063D01*
X80539745Y-53923226D01*
X80491056Y-53917314D01*
X80491051Y-53917313D01*
X80491045Y-53917313D01*
X80469087Y-53916428D01*
X80442027Y-53915337D01*
X80328818Y-53906198D01*
X80245842Y-53899500D01*
X80049010Y-53899500D01*
X80000000Y-53897525D01*
X79950990Y-53899500D01*
X79754158Y-53899500D01*
X79680491Y-53905447D01*
X79557972Y-53915337D01*
X79531067Y-53916421D01*
X79508955Y-53917313D01*
X79508947Y-53917313D01*
X79508945Y-53917314D01*
X79508946Y-53917314D01*
X79460254Y-53923226D01*
X79264074Y-53939063D01*
X79069789Y-53970637D01*
X79021100Y-53976549D01*
X79021096Y-53976549D01*
X79021094Y-53976550D01*
X79005795Y-53979673D01*
X78973034Y-53986361D01*
X78778757Y-54017934D01*
X78778755Y-54017934D01*
X78778753Y-54017935D01*
X78755092Y-54023767D01*
X78587648Y-54065038D01*
X78561796Y-54070316D01*
X78539582Y-54074851D01*
X78539579Y-54074851D01*
X78539578Y-54074852D01*
X78492459Y-54088500D01*
X78301353Y-54135604D01*
X78114652Y-54197933D01*
X78067538Y-54211581D01*
X78021683Y-54228971D01*
X77834978Y-54291302D01*
X77834979Y-54291302D01*
X77653897Y-54368454D01*
X77608036Y-54385847D01*
X77608035Y-54385847D01*
X77563714Y-54406877D01*
X77461031Y-54450626D01*
X77382638Y-54484027D01*
X77382632Y-54484030D01*
X77382631Y-54484030D01*
X77208358Y-54575494D01*
X77164032Y-54596529D01*
X77164031Y-54596530D01*
X77121555Y-54621053D01*
X77102363Y-54631126D01*
X76947274Y-54712523D01*
X76947272Y-54712524D01*
X76780921Y-54817718D01*
X76738440Y-54842245D01*
X76738441Y-54842244D01*
X76698058Y-54870117D01*
X76531710Y-54975310D01*
X76531711Y-54975310D01*
X76531708Y-54975312D01*
X76512240Y-54989941D01*
X76374362Y-55093549D01*
X76333978Y-55121425D01*
X76333979Y-55121425D01*
X76295981Y-55152448D01*
X76138634Y-55270687D01*
X75991317Y-55401199D01*
X75953313Y-55432228D01*
X75917924Y-55466219D01*
X75770602Y-55596736D01*
X75634249Y-55738694D01*
X75598882Y-55772664D01*
X75566359Y-55809374D01*
X75512373Y-55865581D01*
X75430004Y-55951336D01*
X75429996Y-55951346D01*
X75429995Y-55951346D01*
X75305518Y-56103802D01*
X75272993Y-56140516D01*
X75243523Y-56179733D01*
X75186396Y-56249702D01*
X75119041Y-56332197D01*
X75068856Y-56404903D01*
X75007234Y-56494177D01*
X74988119Y-56519615D01*
X74977761Y-56533399D01*
X74961976Y-56558361D01*
X74951538Y-56574867D01*
X74839733Y-56736845D01*
X74799364Y-56806766D01*
X74741326Y-56907289D01*
X74715101Y-56948762D01*
X74692298Y-56992207D01*
X74593892Y-57162653D01*
X74509513Y-57340476D01*
X74502329Y-57354165D01*
X74486716Y-57383914D01*
X74486715Y-57383917D01*
X74467486Y-57429046D01*
X74383110Y-57606865D01*
X74313317Y-57790894D01*
X74313317Y-57790895D01*
X74294086Y-57836032D01*
X74291410Y-57844049D01*
X74278550Y-57882566D01*
X74208758Y-58066593D01*
X74208758Y-58066592D01*
X74153990Y-58255670D01*
X74138462Y-58302184D01*
X74126726Y-58349796D01*
X74071962Y-58538866D01*
X74071961Y-58538870D01*
X74071670Y-58540294D01*
X74032587Y-58731736D01*
X74020852Y-58779348D01*
X74020851Y-58779355D01*
X74020851Y-58779354D01*
X74012985Y-58827752D01*
X73973611Y-59020621D01*
X73949887Y-59216006D01*
X73943516Y-59255208D01*
X73942018Y-59264428D01*
X73940510Y-59283096D01*
X73938070Y-59313325D01*
X73914347Y-59508705D01*
X73914346Y-59508715D01*
X73914327Y-59509194D01*
X73906420Y-59705395D01*
X73902475Y-59754277D01*
X73902474Y-59754284D01*
X73902474Y-59803317D01*
X73894548Y-60000000D01*
X71932846Y-60000000D01*
X71937383Y-59987806D01*
X71944957Y-59979307D01*
X71951786Y-59972478D01*
X71997090Y-59869872D01*
X71999999Y-59844797D01*
X72000000Y-59844795D01*
X72000000Y-59700001D01*
X71999999Y-59700000D01*
X71399000Y-59700000D01*
X71340809Y-59681093D01*
X71304845Y-59631593D01*
X71300000Y-59601000D01*
X71300000Y-59399999D01*
X71600000Y-59399999D01*
X71600001Y-59400000D01*
X71999998Y-59400000D01*
X71999999Y-59399998D01*
X71999999Y-59255209D01*
X71999998Y-59255208D01*
X71997090Y-59230125D01*
X71951786Y-59127522D01*
X71872477Y-59048213D01*
X71769872Y-59002909D01*
X71744797Y-59000000D01*
X71600001Y-59000000D01*
X71600000Y-59000001D01*
X71600000Y-59399999D01*
X71300000Y-59399999D01*
X71300000Y-59000001D01*
X71299999Y-59000000D01*
X71189333Y-59000000D01*
X71131142Y-58981093D01*
X71095178Y-58931593D01*
X71095178Y-58870407D01*
X71119330Y-58830996D01*
X71225831Y-58724496D01*
X71280347Y-58696719D01*
X71295834Y-58695500D01*
X72343626Y-58695500D01*
X72347926Y-58695687D01*
X72388807Y-58699264D01*
X72428452Y-58688640D01*
X72432650Y-58687710D01*
X72473045Y-58680588D01*
X72474345Y-58679838D01*
X72498236Y-58669942D01*
X72498464Y-58669880D01*
X72499684Y-58669554D01*
X72533303Y-58646012D01*
X72536911Y-58643714D01*
X72572455Y-58623194D01*
X72598827Y-58591763D01*
X72601726Y-58588598D01*
X73418588Y-57771737D01*
X73421766Y-57768824D01*
X73453194Y-57742455D01*
X73473709Y-57706919D01*
X73476027Y-57703283D01*
X73487935Y-57686275D01*
X73499553Y-57669684D01*
X73499942Y-57668231D01*
X73509833Y-57644352D01*
X73510588Y-57643045D01*
X73517714Y-57602624D01*
X73518642Y-57598439D01*
X73529263Y-57558807D01*
X73525687Y-57517934D01*
X73525500Y-57513634D01*
X73525500Y-56960602D01*
X73525687Y-56956301D01*
X73529264Y-56915422D01*
X73518640Y-56875777D01*
X73517710Y-56871577D01*
X73510588Y-56831184D01*
X73509840Y-56829888D01*
X73499942Y-56805996D01*
X73499554Y-56804545D01*
X73499552Y-56804542D01*
X73499551Y-56804540D01*
X73476025Y-56770941D01*
X73473703Y-56767297D01*
X73453193Y-56731772D01*
X73422641Y-56706137D01*
X73421765Y-56705402D01*
X73418588Y-56702490D01*
X72920517Y-56204420D01*
X72892740Y-56149903D01*
X72896774Y-56102596D01*
X72914667Y-56049888D01*
X72914666Y-56049886D01*
X72917801Y-56040654D01*
X72918906Y-56041029D01*
X72941003Y-55994706D01*
X72987192Y-55967227D01*
X73043802Y-55952058D01*
X73134338Y-55885852D01*
X73134339Y-55885851D01*
X73149399Y-55865585D01*
X73149402Y-55865581D01*
X73221794Y-55740192D01*
X73221794Y-55740191D01*
X72701315Y-55439692D01*
X72660374Y-55394223D01*
X72653978Y-55333373D01*
X72665078Y-55304456D01*
X72678976Y-55280384D01*
X73025386Y-55280384D01*
X73371794Y-55480383D01*
X73371795Y-55480383D01*
X73444187Y-55354997D01*
X73444188Y-55354996D01*
X73454212Y-55331814D01*
X73454213Y-55331807D01*
X73466280Y-55220307D01*
X73466280Y-55220305D01*
X73437251Y-55111968D01*
X73371045Y-55021432D01*
X73371044Y-55021431D01*
X73350778Y-55006371D01*
X73350768Y-55006365D01*
X73225386Y-54933975D01*
X73225385Y-54933975D01*
X73025386Y-55280384D01*
X72678976Y-55280384D01*
X72765578Y-55130385D01*
X72965576Y-54783975D01*
X72872498Y-54730237D01*
X72831557Y-54684767D01*
X72825161Y-54623917D01*
X72855754Y-54570929D01*
X72911649Y-54546042D01*
X72921998Y-54545500D01*
X73484167Y-54545500D01*
X73542358Y-54564407D01*
X73554170Y-54574496D01*
X73733843Y-54754170D01*
X73888263Y-54908590D01*
X73891182Y-54911776D01*
X73906914Y-54930525D01*
X73917545Y-54943194D01*
X73929531Y-54950114D01*
X73953074Y-54963707D01*
X73956709Y-54966022D01*
X73990316Y-54989554D01*
X73991767Y-54989942D01*
X74015659Y-54999840D01*
X74016954Y-55000588D01*
X74025854Y-55002157D01*
X74057365Y-55007713D01*
X74061544Y-55008638D01*
X74101193Y-55019263D01*
X74142065Y-55015687D01*
X74146365Y-55015500D01*
X74683626Y-55015500D01*
X74687926Y-55015687D01*
X74728807Y-55019264D01*
X74768452Y-55008640D01*
X74772650Y-55007710D01*
X74813045Y-55000588D01*
X74813601Y-55000267D01*
X74814345Y-54999838D01*
X74838236Y-54989942D01*
X74838464Y-54989880D01*
X74839684Y-54989554D01*
X74873303Y-54966012D01*
X74876911Y-54963714D01*
X74912455Y-54943194D01*
X74938838Y-54911750D01*
X74941726Y-54908598D01*
X75768583Y-54081742D01*
X75771760Y-54078829D01*
X75803194Y-54052455D01*
X75823714Y-54016911D01*
X75826012Y-54013303D01*
X75849554Y-53979684D01*
X75849941Y-53978236D01*
X75859838Y-53954345D01*
X75860587Y-53953047D01*
X75860587Y-53953046D01*
X75860588Y-53953045D01*
X75867712Y-53912635D01*
X75868641Y-53908446D01*
X75879264Y-53868806D01*
X75875687Y-53827921D01*
X75875500Y-53823622D01*
X75875500Y-53226364D01*
X75875687Y-53222067D01*
X75879263Y-53181193D01*
X75868643Y-53141560D01*
X75867714Y-53137375D01*
X75865741Y-53126183D01*
X75874256Y-53065596D01*
X75916759Y-53021583D01*
X75977015Y-53010958D01*
X75988863Y-53013369D01*
X75999729Y-53016280D01*
X76111233Y-53004213D01*
X76111235Y-53004212D01*
X76134415Y-52994190D01*
X76259805Y-52921795D01*
X76046803Y-52552863D01*
X75973204Y-52425385D01*
X76319615Y-52425385D01*
X76519614Y-52771794D01*
X76645012Y-52699395D01*
X76665276Y-52684337D01*
X76731479Y-52593805D01*
X76731480Y-52593803D01*
X76760509Y-52485465D01*
X76760509Y-52485463D01*
X76748442Y-52373959D01*
X76748441Y-52373957D01*
X76738417Y-52350773D01*
X76666024Y-52225386D01*
X76319615Y-52425385D01*
X75973204Y-52425385D01*
X75959307Y-52401314D01*
X75946585Y-52341466D01*
X75971472Y-52285570D01*
X75995543Y-52266077D01*
X76530891Y-51956993D01*
X76542824Y-51938621D01*
X76599946Y-51916696D01*
X76605124Y-51916560D01*
X76665226Y-51916560D01*
X76723417Y-51935467D01*
X76735230Y-51945556D01*
X77708257Y-52918584D01*
X77711175Y-52921769D01*
X77727316Y-52941004D01*
X77737545Y-52953194D01*
X77773073Y-52973706D01*
X77776712Y-52976025D01*
X77810311Y-52999551D01*
X77810313Y-52999552D01*
X77810316Y-52999554D01*
X77811767Y-52999942D01*
X77835659Y-53009840D01*
X77836186Y-53010143D01*
X77836955Y-53010588D01*
X77877351Y-53017710D01*
X77881548Y-53018640D01*
X77921193Y-53029264D01*
X77962073Y-53025687D01*
X77966374Y-53025500D01*
X78913626Y-53025500D01*
X78917926Y-53025687D01*
X78958807Y-53029264D01*
X78998452Y-53018640D01*
X79002650Y-53017710D01*
X79043045Y-53010588D01*
X79043047Y-53010587D01*
X79044345Y-53009838D01*
X79068236Y-52999942D01*
X79068464Y-52999880D01*
X79069684Y-52999554D01*
X79103303Y-52976012D01*
X79106911Y-52973714D01*
X79142455Y-52953194D01*
X79168827Y-52921763D01*
X79171726Y-52918598D01*
X79768588Y-52321737D01*
X79771766Y-52318824D01*
X79803194Y-52292455D01*
X79823709Y-52256919D01*
X79826027Y-52253283D01*
X79849111Y-52220315D01*
X79849553Y-52219684D01*
X79849942Y-52218231D01*
X79859833Y-52194352D01*
X79860588Y-52193045D01*
X79867714Y-52152624D01*
X79868642Y-52148439D01*
X79879263Y-52108807D01*
X79875687Y-52067934D01*
X79875500Y-52063634D01*
X79875500Y-52035466D01*
X79894407Y-51977275D01*
X79943907Y-51941311D01*
X80005093Y-51941311D01*
X80019079Y-51948195D01*
X80019130Y-51948081D01*
X80130127Y-51997090D01*
X80155203Y-51999999D01*
X80300000Y-51999999D01*
X80300000Y-51999997D01*
X80600000Y-51999997D01*
X80600001Y-51999999D01*
X80744790Y-51999999D01*
X80744791Y-51999998D01*
X80769874Y-51997090D01*
X80872477Y-51951786D01*
X80951786Y-51872477D01*
X80997090Y-51769872D01*
X80999999Y-51744797D01*
X81000000Y-51744795D01*
X81000000Y-51600001D01*
X80999999Y-51600000D01*
X80600001Y-51600000D01*
X80600000Y-51600001D01*
X80600000Y-51999997D01*
X80300000Y-51999997D01*
X80300000Y-51399000D01*
X80318907Y-51340809D01*
X80368407Y-51304845D01*
X80399000Y-51300000D01*
X80999998Y-51300000D01*
X80999999Y-51299999D01*
X80999999Y-51155209D01*
X80999998Y-51155208D01*
X80997090Y-51130125D01*
X80948081Y-51019130D01*
X80950184Y-51018201D01*
X80936504Y-50971758D01*
X80957016Y-50914114D01*
X81007493Y-50879534D01*
X81035466Y-50875500D01*
X81174167Y-50875500D01*
X81232358Y-50894407D01*
X81244170Y-50904496D01*
X81295503Y-50955828D01*
X81323281Y-51010344D01*
X81324500Y-51025832D01*
X81324500Y-52283625D01*
X81324312Y-52287927D01*
X81320736Y-52328807D01*
X81325210Y-52345503D01*
X81331354Y-52368436D01*
X81332289Y-52372652D01*
X81339411Y-52413045D01*
X81340164Y-52414348D01*
X81350054Y-52438224D01*
X81350443Y-52439679D01*
X81350446Y-52439684D01*
X81367434Y-52463946D01*
X81373971Y-52473281D01*
X81376288Y-52476918D01*
X81383005Y-52488552D01*
X81396806Y-52512455D01*
X81428224Y-52538818D01*
X81431410Y-52541737D01*
X82158268Y-53268596D01*
X82161187Y-53271782D01*
X82187545Y-53303194D01*
X82223074Y-53323707D01*
X82226709Y-53326022D01*
X82260316Y-53349554D01*
X82261767Y-53349942D01*
X82285659Y-53359840D01*
X82286954Y-53360588D01*
X82293001Y-53361654D01*
X82327365Y-53367713D01*
X82331544Y-53368638D01*
X82371193Y-53379263D01*
X82412065Y-53375687D01*
X82416365Y-53375500D01*
X83189397Y-53375500D01*
X83193697Y-53375687D01*
X83234578Y-53379264D01*
X83262453Y-53371794D01*
X84519615Y-53371794D01*
X84645010Y-53444191D01*
X84668185Y-53454212D01*
X84668192Y-53454213D01*
X84779692Y-53466280D01*
X84779694Y-53466280D01*
X84888031Y-53437251D01*
X84978567Y-53371045D01*
X84978568Y-53371044D01*
X84993628Y-53350778D01*
X84993631Y-53350774D01*
X85066023Y-53225385D01*
X84719614Y-53025386D01*
X84519615Y-53371794D01*
X83262453Y-53371794D01*
X83274223Y-53368640D01*
X83278421Y-53367710D01*
X83318816Y-53360588D01*
X83320116Y-53359838D01*
X83344007Y-53349942D01*
X83344235Y-53349880D01*
X83345455Y-53349554D01*
X83379074Y-53326012D01*
X83382682Y-53323714D01*
X83418226Y-53303194D01*
X83444609Y-53271750D01*
X83447500Y-53268596D01*
X83795580Y-52920515D01*
X83850095Y-52892740D01*
X83897404Y-52896775D01*
X83934743Y-52909450D01*
X83959345Y-52917801D01*
X83958969Y-52918906D01*
X84005294Y-52941004D01*
X84032771Y-52987190D01*
X84047940Y-53043800D01*
X84047941Y-53043802D01*
X84114147Y-53134338D01*
X84114148Y-53134339D01*
X84134412Y-53149398D01*
X84259806Y-53221794D01*
X84560306Y-52701314D01*
X84605776Y-52660373D01*
X84666626Y-52653977D01*
X84695543Y-52665078D01*
X84852434Y-52755660D01*
X85216023Y-52965576D01*
X85216024Y-52965576D01*
X85288416Y-52840190D01*
X85288417Y-52840189D01*
X85298441Y-52817007D01*
X85298442Y-52817000D01*
X85310509Y-52705500D01*
X85310509Y-52705495D01*
X85295341Y-52648889D01*
X85298542Y-52587788D01*
X85324822Y-52552596D01*
X85324236Y-52552082D01*
X85369979Y-52499921D01*
X85369981Y-52499919D01*
X85392950Y-52460135D01*
X85418397Y-52416060D01*
X85463865Y-52375119D01*
X85504133Y-52366560D01*
X85725226Y-52366560D01*
X85783417Y-52385467D01*
X85795230Y-52395556D01*
X85865503Y-52465829D01*
X85893280Y-52520346D01*
X85894499Y-52535833D01*
X85894499Y-53024165D01*
X85875592Y-53082356D01*
X85865503Y-53094169D01*
X84991413Y-53968259D01*
X84988229Y-53971176D01*
X84956807Y-53997542D01*
X84956806Y-53997544D01*
X84936292Y-54033075D01*
X84933972Y-54036716D01*
X84910446Y-54070316D01*
X84910442Y-54070324D01*
X84910051Y-54071786D01*
X84900170Y-54095640D01*
X84899414Y-54096948D01*
X84899410Y-54096960D01*
X84892287Y-54137349D01*
X84891353Y-54141564D01*
X84880736Y-54181187D01*
X84880736Y-54181193D01*
X84884312Y-54222072D01*
X84884500Y-54226373D01*
X84884500Y-54843625D01*
X84884312Y-54847927D01*
X84880736Y-54888807D01*
X84886030Y-54908567D01*
X84891354Y-54928436D01*
X84892289Y-54932652D01*
X84899411Y-54973045D01*
X84900164Y-54974348D01*
X84910054Y-54998224D01*
X84910443Y-54999679D01*
X84910446Y-54999684D01*
X84931841Y-55030240D01*
X84933971Y-55033281D01*
X84936288Y-55036918D01*
X84956806Y-55072454D01*
X84956806Y-55072455D01*
X84988224Y-55098818D01*
X84991410Y-55101737D01*
X85458257Y-55568584D01*
X85461175Y-55571769D01*
X85482126Y-55596736D01*
X85487545Y-55603194D01*
X85523073Y-55623706D01*
X85526712Y-55626025D01*
X85560311Y-55649551D01*
X85560313Y-55649552D01*
X85560316Y-55649554D01*
X85561767Y-55649942D01*
X85585659Y-55659840D01*
X85586186Y-55660143D01*
X85586955Y-55660588D01*
X85627351Y-55667710D01*
X85631548Y-55668640D01*
X85671193Y-55679264D01*
X85712077Y-55675687D01*
X85716377Y-55675500D01*
X86798589Y-55675500D01*
X86856780Y-55694407D01*
X86884325Y-55724998D01*
X86911846Y-55772667D01*
X86924250Y-55794151D01*
X86969993Y-55846311D01*
X86969114Y-55847081D01*
X86998182Y-55889370D01*
X86998887Y-55943114D01*
X86983719Y-55999723D01*
X86983719Y-55999729D01*
X86995786Y-56111233D01*
X86995787Y-56111235D01*
X87005811Y-56134419D01*
X87078203Y-56259805D01*
X87078204Y-56259805D01*
X87441795Y-56049889D01*
X87598684Y-55959307D01*
X87658533Y-55946585D01*
X87714428Y-55971471D01*
X87733922Y-55995543D01*
X88043002Y-56530886D01*
X88061375Y-56542817D01*
X88083304Y-56599937D01*
X88083440Y-56605123D01*
X88083440Y-56715225D01*
X88064533Y-56773416D01*
X88054444Y-56785229D01*
X87324846Y-57514826D01*
X87299890Y-57530727D01*
X87300584Y-57531929D01*
X87291776Y-57537013D01*
X87267922Y-57546894D01*
X87266460Y-57547285D01*
X87266452Y-57547289D01*
X87232852Y-57570815D01*
X87229216Y-57573131D01*
X87221011Y-57577868D01*
X87193681Y-57593648D01*
X87167317Y-57625067D01*
X87164399Y-57628251D01*
X86774570Y-58018081D01*
X86771386Y-58020998D01*
X86739964Y-58047364D01*
X86739963Y-58047366D01*
X86719449Y-58082897D01*
X86717129Y-58086538D01*
X86693603Y-58120138D01*
X86693599Y-58120146D01*
X86693208Y-58121608D01*
X86683327Y-58145462D01*
X86682571Y-58146770D01*
X86682567Y-58146782D01*
X86675444Y-58187171D01*
X86674510Y-58191386D01*
X86663893Y-58231009D01*
X86663893Y-58231015D01*
X86667469Y-58271894D01*
X86667657Y-58276195D01*
X86667657Y-58826782D01*
X86667469Y-58831084D01*
X86664327Y-58867001D01*
X86663893Y-58871963D01*
X86674511Y-58911593D01*
X86675446Y-58915809D01*
X86682568Y-58956202D01*
X86683321Y-58957505D01*
X86693211Y-58981381D01*
X86693600Y-58982836D01*
X86693603Y-58982841D01*
X86705618Y-59000001D01*
X86717128Y-59016438D01*
X86719445Y-59020075D01*
X86720309Y-59021571D01*
X86739963Y-59055612D01*
X86771381Y-59081975D01*
X86774567Y-59084894D01*
X87458257Y-59768584D01*
X87461175Y-59771769D01*
X87487544Y-59803193D01*
X87487545Y-59803194D01*
X87523073Y-59823706D01*
X87526712Y-59826025D01*
X87560311Y-59849551D01*
X87560313Y-59849552D01*
X87560316Y-59849554D01*
X87561767Y-59849942D01*
X87585659Y-59859840D01*
X87586186Y-59860143D01*
X87586955Y-59860588D01*
X87627351Y-59867710D01*
X87631548Y-59868640D01*
X87671193Y-59879264D01*
X87712073Y-59875687D01*
X87716374Y-59875500D01*
X87964534Y-59875500D01*
X88022725Y-59894407D01*
X88058689Y-59943907D01*
X88058689Y-60005093D01*
X88051804Y-60019079D01*
X88051919Y-60019130D01*
X88002909Y-60130127D01*
X88000000Y-60155202D01*
X88000000Y-60299999D01*
X88000001Y-60300000D01*
X88601000Y-60300000D01*
X88659191Y-60318907D01*
X88695155Y-60368407D01*
X88700000Y-60399000D01*
X88700000Y-60999998D01*
X88700001Y-60999999D01*
X88844790Y-60999999D01*
X88844791Y-60999998D01*
X88869874Y-60997090D01*
X88972476Y-60951786D01*
X89000495Y-60923768D01*
X89055012Y-60895990D01*
X89115444Y-60905561D01*
X89158709Y-60948825D01*
X89169500Y-60993771D01*
X89169500Y-61150500D01*
X89150593Y-61208691D01*
X89101093Y-61244655D01*
X89070505Y-61249500D01*
X89055141Y-61249500D01*
X89055135Y-61249501D01*
X89030009Y-61252414D01*
X88972721Y-61277709D01*
X88949986Y-61287748D01*
X88889119Y-61293956D01*
X88870015Y-61287749D01*
X88789991Y-61252415D01*
X88789990Y-61252414D01*
X88789988Y-61252414D01*
X88764869Y-61249500D01*
X88764865Y-61249500D01*
X88614682Y-61249500D01*
X88556491Y-61230593D01*
X88520527Y-61181093D01*
X88516619Y-61156421D01*
X88516529Y-61156433D01*
X88516072Y-61152966D01*
X88515682Y-61150500D01*
X88515682Y-61149999D01*
X88503062Y-61054143D01*
X88503200Y-61053394D01*
X88502847Y-61052508D01*
X88495044Y-60993241D01*
X88495044Y-60993238D01*
X88434536Y-60847159D01*
X88420456Y-60828809D01*
X88400034Y-60771133D01*
X88400000Y-60768544D01*
X88400000Y-60600001D01*
X88399999Y-60600000D01*
X88171058Y-60600000D01*
X88133172Y-60592464D01*
X88066764Y-60564957D01*
X88066766Y-60564957D01*
X88066762Y-60564956D01*
X88066760Y-60564955D01*
X88066758Y-60564955D01*
X87910001Y-60544318D01*
X87909999Y-60544318D01*
X87753241Y-60564955D01*
X87753233Y-60564957D01*
X87607161Y-60625462D01*
X87607160Y-60625462D01*
X87481723Y-60721713D01*
X87481713Y-60721723D01*
X87385462Y-60847160D01*
X87385462Y-60847161D01*
X87324957Y-60993233D01*
X87324955Y-60993241D01*
X87304318Y-61149999D01*
X87304318Y-61150000D01*
X87324955Y-61306758D01*
X87324957Y-61306766D01*
X87385462Y-61452838D01*
X87385462Y-61452839D01*
X87425590Y-61505135D01*
X87481718Y-61578282D01*
X87607159Y-61674536D01*
X87607160Y-61674536D01*
X87607161Y-61674537D01*
X87729354Y-61725151D01*
X87753238Y-61735044D01*
X87906879Y-61755271D01*
X87962102Y-61781611D01*
X87984519Y-61813434D01*
X88022963Y-61900500D01*
X88032794Y-61922765D01*
X88112235Y-62002206D01*
X88215009Y-62047585D01*
X88240135Y-62050500D01*
X88764864Y-62050499D01*
X88789991Y-62047585D01*
X88870013Y-62012251D01*
X88930880Y-62006043D01*
X88949981Y-62012249D01*
X89030009Y-62047585D01*
X89055135Y-62050500D01*
X89579864Y-62050499D01*
X89604991Y-62047585D01*
X89707765Y-62002206D01*
X89787206Y-61922765D01*
X89832585Y-61819991D01*
X89835500Y-61794865D01*
X89835499Y-61505136D01*
X89832585Y-61480009D01*
X89828933Y-61471738D01*
X89820500Y-61431755D01*
X89820500Y-60909611D01*
X89839407Y-60851420D01*
X89841961Y-60848429D01*
X89855071Y-60828809D01*
X89888867Y-60778231D01*
X89900500Y-60719748D01*
X89900500Y-60180252D01*
X89899497Y-60175212D01*
X89894571Y-60150446D01*
X89888867Y-60121769D01*
X89844552Y-60055448D01*
X89844549Y-60055446D01*
X89844253Y-60055003D01*
X89827644Y-59996115D01*
X89844253Y-59944997D01*
X89844549Y-59944553D01*
X89844552Y-59944552D01*
X89888867Y-59878231D01*
X89900500Y-59819748D01*
X89900500Y-59280252D01*
X89888867Y-59221769D01*
X89885533Y-59216780D01*
X89868925Y-59157893D01*
X89890102Y-59100490D01*
X89922904Y-59073569D01*
X90013044Y-59027640D01*
X90102641Y-58938043D01*
X90160163Y-58825151D01*
X90160164Y-58825147D01*
X90172067Y-58750000D01*
X89506500Y-58750000D01*
X89448309Y-58731093D01*
X89412345Y-58681593D01*
X89407500Y-58651000D01*
X89407500Y-58100000D01*
X89707500Y-58100000D01*
X89707500Y-58449998D01*
X89707501Y-58450000D01*
X90172065Y-58450000D01*
X90172066Y-58449999D01*
X90160166Y-58374857D01*
X90160165Y-58374854D01*
X90102640Y-58261955D01*
X90013043Y-58172358D01*
X89900151Y-58114836D01*
X89900147Y-58114835D01*
X89806484Y-58100000D01*
X89707500Y-58100000D01*
X89407500Y-58100000D01*
X89308519Y-58100000D01*
X89289983Y-58102936D01*
X89229551Y-58093362D01*
X89186288Y-58050095D01*
X89175500Y-58005154D01*
X89175500Y-57588202D01*
X89175499Y-57588184D01*
X89175499Y-57534044D01*
X89175499Y-57476600D01*
X89160240Y-57399883D01*
X89102112Y-57312888D01*
X89056356Y-57282315D01*
X89018477Y-57234266D01*
X89016075Y-57173128D01*
X89050068Y-57122254D01*
X89056350Y-57117689D01*
X89102112Y-57087112D01*
X89147289Y-57019498D01*
X89195339Y-56981619D01*
X89229605Y-56975500D01*
X89523532Y-56975500D01*
X89581723Y-56994407D01*
X89602072Y-57014231D01*
X89629564Y-57050059D01*
X89648144Y-57074274D01*
X89651220Y-57078282D01*
X89651224Y-57078285D01*
X89651225Y-57078286D01*
X89680584Y-57100813D01*
X89776661Y-57174536D01*
X89922740Y-57235044D01*
X90040311Y-57250522D01*
X90079501Y-57255682D01*
X90079502Y-57255682D01*
X90079503Y-57255682D01*
X90110854Y-57251554D01*
X90236264Y-57235044D01*
X90382343Y-57174536D01*
X90507784Y-57078282D01*
X90604038Y-56952841D01*
X90664546Y-56806762D01*
X90685184Y-56650000D01*
X90664546Y-56493238D01*
X90631746Y-56414051D01*
X90604039Y-56347161D01*
X90604039Y-56347160D01*
X90507788Y-56221723D01*
X90507787Y-56221722D01*
X90507784Y-56221718D01*
X90507779Y-56221714D01*
X90507778Y-56221713D01*
X90417791Y-56152664D01*
X90382343Y-56125464D01*
X90382342Y-56125463D01*
X90382340Y-56125462D01*
X90236268Y-56064957D01*
X90236260Y-56064955D01*
X90079503Y-56044318D01*
X90079501Y-56044318D01*
X89922743Y-56064955D01*
X89922735Y-56064957D01*
X89776663Y-56125462D01*
X89776662Y-56125462D01*
X89651225Y-56221713D01*
X89651216Y-56221722D01*
X89602074Y-56285767D01*
X89551650Y-56320423D01*
X89523532Y-56324500D01*
X88996374Y-56324500D01*
X88992073Y-56324312D01*
X88951193Y-56320736D01*
X88951187Y-56320736D01*
X88911564Y-56331353D01*
X88907349Y-56332287D01*
X88858429Y-56340915D01*
X88858198Y-56339605D01*
X88806143Y-56341418D01*
X88755422Y-56307200D01*
X88734500Y-56249702D01*
X88734440Y-56246256D01*
X88734440Y-56054133D01*
X88753347Y-55995942D01*
X88783941Y-55968396D01*
X88867797Y-55919982D01*
X88867796Y-55919982D01*
X88867799Y-55919981D01*
X88912630Y-55880665D01*
X88947908Y-55809127D01*
X88953125Y-55729534D01*
X88933958Y-55673070D01*
X88664210Y-55205852D01*
X88624894Y-55161021D01*
X88553356Y-55125743D01*
X88553354Y-55125742D01*
X88552874Y-55125506D01*
X88509047Y-55082812D01*
X88497872Y-55030239D01*
X88497906Y-55029707D01*
X88497908Y-55029705D01*
X88503125Y-54950112D01*
X88490111Y-54911774D01*
X88483959Y-54893650D01*
X88483958Y-54893648D01*
X88470372Y-54870117D01*
X88324081Y-54616735D01*
X88311360Y-54556888D01*
X88336246Y-54500992D01*
X88349551Y-54488694D01*
X88428282Y-54428282D01*
X88524536Y-54302841D01*
X88585044Y-54156762D01*
X88605682Y-54000000D01*
X88605667Y-53999889D01*
X88597660Y-53939064D01*
X88585044Y-53843238D01*
X88568579Y-53803489D01*
X88524537Y-53697161D01*
X88524537Y-53697160D01*
X88428286Y-53571723D01*
X88428285Y-53571722D01*
X88428282Y-53571718D01*
X88428277Y-53571714D01*
X88428276Y-53571713D01*
X88302838Y-53475462D01*
X88156766Y-53414957D01*
X88156758Y-53414955D01*
X88000001Y-53394318D01*
X87999999Y-53394318D01*
X87843241Y-53414955D01*
X87843236Y-53414957D01*
X87697160Y-53475463D01*
X87697158Y-53475464D01*
X87620459Y-53534316D01*
X87562783Y-53554739D01*
X87534573Y-53551401D01*
X87530619Y-53550341D01*
X87514781Y-53546098D01*
X87514779Y-53546098D01*
X87403088Y-53558185D01*
X87379873Y-53568222D01*
X87379853Y-53568232D01*
X86925442Y-53830589D01*
X86913216Y-53839674D01*
X86855230Y-53859201D01*
X86828558Y-53855836D01*
X86827793Y-53855631D01*
X86827782Y-53855630D01*
X86701257Y-53862260D01*
X86701253Y-53862261D01*
X86612718Y-53896247D01*
X86526999Y-53945736D01*
X86526999Y-53945737D01*
X86701999Y-54248846D01*
X86802498Y-54422917D01*
X86815219Y-54482766D01*
X86790332Y-54538661D01*
X86766261Y-54558153D01*
X86189864Y-54890936D01*
X86186017Y-54911693D01*
X86189330Y-54920324D01*
X86173491Y-54979423D01*
X86125939Y-55017926D01*
X86090465Y-55024500D01*
X85875834Y-55024500D01*
X85817643Y-55005593D01*
X85805830Y-54995504D01*
X85564496Y-54754170D01*
X85536719Y-54699653D01*
X85535500Y-54684166D01*
X85535500Y-54433570D01*
X86005967Y-54433570D01*
X86012597Y-54560095D01*
X86012598Y-54560100D01*
X86039863Y-54631126D01*
X86442189Y-54398844D01*
X86267190Y-54095737D01*
X86181470Y-54145229D01*
X86107769Y-54204910D01*
X86038763Y-54311170D01*
X86038761Y-54311173D01*
X86005967Y-54433564D01*
X86005967Y-54433570D01*
X85535500Y-54433570D01*
X85535500Y-54385833D01*
X85554407Y-54327642D01*
X85564490Y-54315835D01*
X86438583Y-53441741D01*
X86441760Y-53438829D01*
X86473194Y-53412455D01*
X86493714Y-53376911D01*
X86496012Y-53373303D01*
X86519554Y-53339684D01*
X86519941Y-53338236D01*
X86529838Y-53314345D01*
X86530588Y-53313045D01*
X86532325Y-53303193D01*
X86537710Y-53272650D01*
X86538640Y-53268452D01*
X86549264Y-53228807D01*
X86545687Y-53187920D01*
X86545500Y-53183646D01*
X86545500Y-52376364D01*
X86545687Y-52372067D01*
X86549263Y-52331193D01*
X86538638Y-52291544D01*
X86537713Y-52287365D01*
X86530588Y-52246955D01*
X86530588Y-52246954D01*
X86529840Y-52245659D01*
X86519942Y-52221767D01*
X86519554Y-52220316D01*
X86496022Y-52186709D01*
X86493707Y-52183074D01*
X86478069Y-52155989D01*
X86473194Y-52147545D01*
X86441765Y-52121172D01*
X86438588Y-52118261D01*
X86142806Y-51822480D01*
X86139887Y-51819295D01*
X86113516Y-51787866D01*
X86082349Y-51769872D01*
X86077978Y-51767348D01*
X86074348Y-51765035D01*
X86040744Y-51741506D01*
X86040739Y-51741503D01*
X86039284Y-51741114D01*
X86015408Y-51731224D01*
X86014105Y-51730471D01*
X85973712Y-51723349D01*
X85969496Y-51722414D01*
X85943213Y-51715372D01*
X85929867Y-51711796D01*
X85929866Y-51711796D01*
X85925441Y-51712183D01*
X85888986Y-51715372D01*
X85884686Y-51715560D01*
X85478456Y-51715560D01*
X85428956Y-51702297D01*
X85334912Y-51648001D01*
X85106352Y-51516042D01*
X85106350Y-51516041D01*
X85106346Y-51516039D01*
X85049889Y-51496875D01*
X85049884Y-51496874D01*
X84969759Y-51502127D01*
X84910456Y-51487066D01*
X84874493Y-51447124D01*
X84874257Y-51446645D01*
X84874257Y-51446644D01*
X84838979Y-51375106D01*
X84794148Y-51335790D01*
X84712605Y-51288711D01*
X84671665Y-51243242D01*
X84663483Y-51194346D01*
X84664553Y-51182128D01*
X84653930Y-51142486D01*
X84652998Y-51138279D01*
X84651927Y-51132202D01*
X84645877Y-51097889D01*
X84645124Y-51096585D01*
X84635233Y-51072705D01*
X84634844Y-51071253D01*
X84634843Y-51071252D01*
X84634843Y-51071250D01*
X84634841Y-51071247D01*
X84634840Y-51071245D01*
X84611314Y-51037646D01*
X84608992Y-51034002D01*
X84599869Y-51018201D01*
X84588483Y-50998479D01*
X84588482Y-50998477D01*
X84567358Y-50980753D01*
X84557054Y-50972107D01*
X84553877Y-50969195D01*
X84551495Y-50966814D01*
X84523718Y-50912297D01*
X84523346Y-50883894D01*
X84533885Y-50803848D01*
X84513247Y-50647086D01*
X84481853Y-50571294D01*
X84452740Y-50501009D01*
X84452740Y-50501008D01*
X84356489Y-50375571D01*
X84356488Y-50375570D01*
X84356485Y-50375566D01*
X84356480Y-50375562D01*
X84356479Y-50375561D01*
X84285307Y-50320949D01*
X84231044Y-50279312D01*
X84231043Y-50279311D01*
X84231041Y-50279310D01*
X84084969Y-50218805D01*
X84084961Y-50218803D01*
X83928204Y-50198166D01*
X83928202Y-50198166D01*
X83771444Y-50218803D01*
X83771436Y-50218805D01*
X83625364Y-50279310D01*
X83625363Y-50279310D01*
X83499926Y-50375561D01*
X83499916Y-50375571D01*
X83403667Y-50501005D01*
X83403664Y-50501011D01*
X83374551Y-50571294D01*
X83334814Y-50617819D01*
X83308714Y-50629033D01*
X83293863Y-50633012D01*
X83203174Y-50699330D01*
X83188089Y-50719629D01*
X82925724Y-51174062D01*
X82925719Y-51174072D01*
X82919680Y-51188037D01*
X82879227Y-51233942D01*
X82854448Y-51244363D01*
X82853680Y-51244568D01*
X82853670Y-51244573D01*
X82747412Y-51313578D01*
X82687727Y-51387283D01*
X82638237Y-51473000D01*
X82638237Y-51473001D01*
X82941346Y-51648001D01*
X83115416Y-51748500D01*
X83156357Y-51793970D01*
X83162753Y-51854820D01*
X83151653Y-51883737D01*
X82818871Y-52460135D01*
X82889904Y-52487402D01*
X83016429Y-52494032D01*
X83016439Y-52494031D01*
X83048836Y-52485351D01*
X83109938Y-52488552D01*
X83157488Y-52527057D01*
X83173324Y-52586158D01*
X83151398Y-52643279D01*
X83144464Y-52650980D01*
X83099942Y-52695503D01*
X83045426Y-52723281D01*
X83029938Y-52724500D01*
X82575835Y-52724500D01*
X82517644Y-52705593D01*
X82505831Y-52695504D01*
X82004496Y-52194169D01*
X81976719Y-52139652D01*
X81975500Y-52124165D01*
X81975500Y-52033598D01*
X82398130Y-52033598D01*
X82430924Y-52155989D01*
X82430926Y-52155992D01*
X82499931Y-52262250D01*
X82559062Y-52310134D01*
X82791344Y-51907808D01*
X82791344Y-51907807D01*
X82488239Y-51732809D01*
X82488237Y-51732809D01*
X82438747Y-51818530D01*
X82438747Y-51818531D01*
X82404761Y-51907063D01*
X82404759Y-51907070D01*
X82398130Y-52033592D01*
X82398130Y-52033598D01*
X81975500Y-52033598D01*
X81975500Y-50866373D01*
X81975687Y-50862072D01*
X81979264Y-50821193D01*
X81968640Y-50781548D01*
X81967710Y-50777348D01*
X81966435Y-50770118D01*
X81960588Y-50736955D01*
X81959840Y-50735659D01*
X81949942Y-50711767D01*
X81949554Y-50710316D01*
X81949552Y-50710313D01*
X81949551Y-50710311D01*
X81926025Y-50676712D01*
X81923703Y-50673068D01*
X81903193Y-50637543D01*
X81877991Y-50616397D01*
X81871765Y-50611173D01*
X81868588Y-50608261D01*
X81591741Y-50331414D01*
X81588822Y-50328229D01*
X81562456Y-50296806D01*
X81539818Y-50283736D01*
X81526918Y-50276288D01*
X81523288Y-50273975D01*
X81489684Y-50250446D01*
X81489679Y-50250443D01*
X81488224Y-50250054D01*
X81464348Y-50240164D01*
X81463045Y-50239411D01*
X81422652Y-50232289D01*
X81418436Y-50231354D01*
X81382662Y-50221769D01*
X81378807Y-50220736D01*
X81378806Y-50220736D01*
X81374381Y-50221123D01*
X81337926Y-50224312D01*
X81333626Y-50224500D01*
X80943608Y-50224500D01*
X80885417Y-50205593D01*
X80861293Y-50180502D01*
X80844554Y-50155451D01*
X80844552Y-50155448D01*
X80832156Y-50147165D01*
X80778233Y-50111134D01*
X80778231Y-50111133D01*
X80778228Y-50111132D01*
X80778227Y-50111132D01*
X80719758Y-50099501D01*
X80719748Y-50099500D01*
X80180252Y-50099500D01*
X80180251Y-50099500D01*
X80180241Y-50099501D01*
X80121772Y-50111132D01*
X80121766Y-50111134D01*
X80055002Y-50155746D01*
X79996114Y-50172355D01*
X79944998Y-50155746D01*
X79878233Y-50111134D01*
X79878231Y-50111133D01*
X79878228Y-50111132D01*
X79878227Y-50111132D01*
X79819758Y-50099501D01*
X79819748Y-50099500D01*
X79819747Y-50099500D01*
X79499998Y-50099500D01*
X79441807Y-50080593D01*
X79405843Y-50031093D01*
X79401845Y-50013422D01*
X79388892Y-49915038D01*
X79388892Y-49915035D01*
X79384892Y-49905378D01*
X79328385Y-49768958D01*
X79328385Y-49768957D01*
X79232134Y-49643520D01*
X79232133Y-49643519D01*
X79232130Y-49643515D01*
X79232125Y-49643511D01*
X79232124Y-49643510D01*
X79106686Y-49547259D01*
X78960614Y-49486754D01*
X78960606Y-49486752D01*
X78803849Y-49466115D01*
X78803847Y-49466115D01*
X78647089Y-49486752D01*
X78647081Y-49486754D01*
X78501009Y-49547259D01*
X78501008Y-49547259D01*
X78375571Y-49643510D01*
X78375561Y-49643520D01*
X78279310Y-49768957D01*
X78279310Y-49768958D01*
X78218805Y-49915030D01*
X78218803Y-49915038D01*
X78198166Y-50071796D01*
X78198166Y-50071798D01*
X78208087Y-50147165D01*
X78196936Y-50207326D01*
X78179939Y-50230088D01*
X78147795Y-50262232D01*
X78147795Y-50262233D01*
X78147794Y-50262234D01*
X78147794Y-50262235D01*
X78125104Y-50313621D01*
X78102414Y-50365011D01*
X78099500Y-50390130D01*
X78099500Y-50914860D01*
X78099501Y-50914863D01*
X78101255Y-50929987D01*
X78089177Y-50989968D01*
X78072923Y-51011389D01*
X78072361Y-51011950D01*
X78014836Y-51124848D01*
X78014835Y-51124852D01*
X78000000Y-51218515D01*
X78000000Y-51317499D01*
X78000001Y-51317500D01*
X78551000Y-51317500D01*
X78609191Y-51336407D01*
X78645155Y-51385907D01*
X78650000Y-51416500D01*
X78650000Y-52082066D01*
X78725142Y-52070166D01*
X78725145Y-52070165D01*
X78838044Y-52012640D01*
X78927640Y-51923044D01*
X78972207Y-51835578D01*
X79015472Y-51792313D01*
X79075904Y-51782742D01*
X79130421Y-51810520D01*
X79142729Y-51825517D01*
X79155448Y-51844552D01*
X79156857Y-51845494D01*
X79158596Y-51847699D01*
X79162343Y-51851446D01*
X79161899Y-51851889D01*
X79194737Y-51893543D01*
X79197139Y-51954681D01*
X79171860Y-51997812D01*
X78824171Y-52345503D01*
X78769654Y-52373281D01*
X78754167Y-52374500D01*
X78125834Y-52374500D01*
X78067643Y-52355593D01*
X78055830Y-52345504D01*
X77426812Y-51716485D01*
X78000001Y-51716485D01*
X78014833Y-51810141D01*
X78014836Y-51810151D01*
X78072358Y-51923043D01*
X78161955Y-52012640D01*
X78274854Y-52070165D01*
X78274857Y-52070166D01*
X78349999Y-52082066D01*
X78350000Y-52082065D01*
X78350000Y-51617500D01*
X78000002Y-51617500D01*
X78000001Y-51617501D01*
X78000001Y-51716485D01*
X77426812Y-51716485D01*
X77082801Y-51372474D01*
X77079882Y-51369289D01*
X77053516Y-51337866D01*
X77030878Y-51324796D01*
X77017978Y-51317348D01*
X77014348Y-51315035D01*
X76980744Y-51291506D01*
X76980739Y-51291503D01*
X76979284Y-51291114D01*
X76955408Y-51281224D01*
X76954105Y-51280471D01*
X76913712Y-51273349D01*
X76909496Y-51272414D01*
X76883213Y-51265372D01*
X76869867Y-51261796D01*
X76869866Y-51261796D01*
X76865441Y-51262183D01*
X76828986Y-51265372D01*
X76824686Y-51265560D01*
X76054133Y-51265560D01*
X75995942Y-51246653D01*
X75968397Y-51216060D01*
X75925926Y-51142498D01*
X75919982Y-51132202D01*
X75913536Y-51124852D01*
X75880665Y-51087370D01*
X75809127Y-51052092D01*
X75782595Y-51050353D01*
X75729536Y-51046875D01*
X75729532Y-51046875D01*
X75673075Y-51066039D01*
X75205851Y-51335790D01*
X75167654Y-51369289D01*
X75161021Y-51375106D01*
X75153406Y-51390549D01*
X75125506Y-51447125D01*
X75082811Y-51490953D01*
X75030240Y-51502127D01*
X74950115Y-51496874D01*
X74950110Y-51496875D01*
X74893653Y-51516039D01*
X74616735Y-51675917D01*
X74556886Y-51688638D01*
X74500991Y-51663751D01*
X74488693Y-51650447D01*
X74428286Y-51571723D01*
X74428285Y-51571722D01*
X74428282Y-51571718D01*
X74428277Y-51571714D01*
X74428276Y-51571713D01*
X74330743Y-51496874D01*
X74302841Y-51475464D01*
X74302840Y-51475463D01*
X74302838Y-51475462D01*
X74156766Y-51414957D01*
X74156758Y-51414955D01*
X74000001Y-51394318D01*
X73999999Y-51394318D01*
X73843241Y-51414955D01*
X73843233Y-51414957D01*
X73697161Y-51475462D01*
X73697160Y-51475462D01*
X73571723Y-51571713D01*
X73571713Y-51571723D01*
X73475462Y-51697160D01*
X73475462Y-51697161D01*
X73414957Y-51843233D01*
X73414955Y-51843241D01*
X73394318Y-51999999D01*
X73414955Y-52156758D01*
X73414957Y-52156766D01*
X73475461Y-52302837D01*
X73475463Y-52302840D01*
X73475464Y-52302841D01*
X73476483Y-52304169D01*
X73476884Y-52305301D01*
X73478706Y-52308456D01*
X73478121Y-52308793D01*
X73496910Y-52361843D01*
X73493571Y-52390060D01*
X73486098Y-52417948D01*
X73486098Y-52417954D01*
X73498185Y-52529644D01*
X73508222Y-52552859D01*
X73508232Y-52552879D01*
X73768812Y-53004212D01*
X73770590Y-53007291D01*
X73778331Y-53017709D01*
X73779672Y-53019513D01*
X73799201Y-53077498D01*
X73795837Y-53104168D01*
X73795631Y-53104933D01*
X73795630Y-53104951D01*
X73802260Y-53231475D01*
X73802261Y-53231479D01*
X73836247Y-53320013D01*
X73836252Y-53320024D01*
X73885736Y-53405732D01*
X73885737Y-53405732D01*
X74362917Y-53130233D01*
X74422765Y-53117512D01*
X74478661Y-53142399D01*
X74498153Y-53166470D01*
X74830936Y-53742867D01*
X74830937Y-53742867D01*
X74890067Y-53694985D01*
X74959073Y-53588725D01*
X74959075Y-53588722D01*
X74991869Y-53466331D01*
X74991869Y-53466325D01*
X74989681Y-53424552D01*
X75005517Y-53365451D01*
X75053067Y-53326946D01*
X75114169Y-53323745D01*
X75132324Y-53330577D01*
X75169287Y-53348805D01*
X75213114Y-53391499D01*
X75224500Y-53437595D01*
X75224500Y-53664166D01*
X75205593Y-53722357D01*
X75195504Y-53734170D01*
X74594170Y-54335504D01*
X74539653Y-54363281D01*
X74524166Y-54364500D01*
X74305834Y-54364500D01*
X74247643Y-54345593D01*
X74235831Y-54335504D01*
X73901746Y-54001420D01*
X73898827Y-53998235D01*
X73872456Y-53966806D01*
X73848621Y-53953045D01*
X73836918Y-53946288D01*
X73833283Y-53943972D01*
X73799684Y-53920446D01*
X73799679Y-53920443D01*
X73798224Y-53920054D01*
X73774348Y-53910164D01*
X73773045Y-53909411D01*
X73732652Y-53902289D01*
X73728436Y-53901354D01*
X73702153Y-53894312D01*
X73688807Y-53890736D01*
X73688806Y-53890736D01*
X73684381Y-53891123D01*
X73647926Y-53894312D01*
X73643626Y-53894500D01*
X72722723Y-53894500D01*
X72718422Y-53894312D01*
X72677542Y-53890736D01*
X72677536Y-53890736D01*
X72637913Y-53901353D01*
X72633698Y-53902287D01*
X72593309Y-53909410D01*
X72593297Y-53909414D01*
X72591989Y-53910170D01*
X72568135Y-53920051D01*
X72566673Y-53920442D01*
X72566665Y-53920446D01*
X72533065Y-53943972D01*
X72529429Y-53946288D01*
X72521224Y-53951025D01*
X72493894Y-53966805D01*
X72467530Y-53998224D01*
X72464612Y-54001408D01*
X72130769Y-54335252D01*
X72076252Y-54363029D01*
X72028944Y-54358995D01*
X72002828Y-54350130D01*
X71976237Y-54341104D01*
X71976235Y-54341104D01*
X71976234Y-54341104D01*
X71919452Y-54344826D01*
X71896644Y-54346321D01*
X71896643Y-54346321D01*
X71825106Y-54381599D01*
X71785790Y-54426429D01*
X71516039Y-54893653D01*
X71496875Y-54950110D01*
X71496874Y-54950115D01*
X71502127Y-55030240D01*
X71487066Y-55089542D01*
X71447125Y-55125506D01*
X71375106Y-55161021D01*
X71335787Y-55205855D01*
X71288711Y-55287393D01*
X71243242Y-55328334D01*
X71194346Y-55336516D01*
X71182129Y-55335447D01*
X71182128Y-55335447D01*
X71142498Y-55346065D01*
X71138282Y-55347000D01*
X71097890Y-55354122D01*
X71097882Y-55354125D01*
X71096574Y-55354881D01*
X71072720Y-55364762D01*
X71071258Y-55365153D01*
X71071250Y-55365157D01*
X71037650Y-55388683D01*
X71034014Y-55390999D01*
X71028432Y-55394223D01*
X70998479Y-55411516D01*
X70972115Y-55442935D01*
X70969197Y-55446119D01*
X70966814Y-55448503D01*
X70912297Y-55476280D01*
X70883888Y-55476652D01*
X70803849Y-55466115D01*
X70803847Y-55466115D01*
X70647089Y-55486752D01*
X70647081Y-55486754D01*
X70501009Y-55547259D01*
X70501008Y-55547259D01*
X70375571Y-55643510D01*
X70375561Y-55643520D01*
X70279310Y-55768957D01*
X70279310Y-55768958D01*
X70218805Y-55915030D01*
X70218803Y-55915038D01*
X70198166Y-56071796D01*
X70198166Y-56071797D01*
X70218803Y-56228555D01*
X70218805Y-56228563D01*
X70279310Y-56374635D01*
X70279310Y-56374636D01*
X70370319Y-56493241D01*
X70375566Y-56500079D01*
X70375570Y-56500082D01*
X70375571Y-56500083D01*
X70501005Y-56596332D01*
X70501006Y-56596332D01*
X70501007Y-56596333D01*
X70509708Y-56599937D01*
X70571292Y-56625446D01*
X70617818Y-56665182D01*
X70629033Y-56691285D01*
X70633012Y-56706135D01*
X70633013Y-56706137D01*
X70699328Y-56796823D01*
X70699330Y-56796825D01*
X70712696Y-56806758D01*
X70719630Y-56811911D01*
X71174059Y-57074274D01*
X71174066Y-57074277D01*
X71188033Y-57080317D01*
X71233939Y-57120768D01*
X71244363Y-57145551D01*
X71244569Y-57146321D01*
X71244573Y-57146329D01*
X71313578Y-57252587D01*
X71387281Y-57312271D01*
X71387289Y-57312277D01*
X71473000Y-57361761D01*
X71748500Y-56884582D01*
X71793970Y-56843641D01*
X71854820Y-56837245D01*
X71883737Y-56848345D01*
X72460134Y-57181127D01*
X72487401Y-57110098D01*
X72487403Y-57110092D01*
X72494032Y-56983570D01*
X72494031Y-56983560D01*
X72485351Y-56951164D01*
X72488552Y-56890062D01*
X72527057Y-56842512D01*
X72586158Y-56826676D01*
X72643279Y-56848602D01*
X72650981Y-56855536D01*
X72845504Y-57050059D01*
X72873281Y-57104576D01*
X72874500Y-57120063D01*
X72874500Y-57354165D01*
X72855593Y-57412356D01*
X72845504Y-57424169D01*
X72254170Y-58015504D01*
X72199653Y-58043281D01*
X72184166Y-58044500D01*
X71136374Y-58044500D01*
X71132073Y-58044312D01*
X71091193Y-58040736D01*
X71091187Y-58040736D01*
X71051564Y-58051353D01*
X71047349Y-58052287D01*
X71006960Y-58059410D01*
X71006948Y-58059414D01*
X71005640Y-58060170D01*
X70981786Y-58070051D01*
X70980324Y-58070442D01*
X70980316Y-58070446D01*
X70946716Y-58093972D01*
X70943080Y-58096288D01*
X70936652Y-58100000D01*
X70907545Y-58116805D01*
X70881181Y-58148224D01*
X70878263Y-58151408D01*
X70331413Y-58698259D01*
X70328229Y-58701176D01*
X70296807Y-58727542D01*
X70296806Y-58727544D01*
X70276292Y-58763075D01*
X70273972Y-58766716D01*
X70250446Y-58800316D01*
X70250442Y-58800324D01*
X70250051Y-58801786D01*
X70240170Y-58825640D01*
X70239414Y-58826948D01*
X70239410Y-58826960D01*
X70232287Y-58867349D01*
X70231353Y-58871564D01*
X70220736Y-58911187D01*
X70220736Y-58911193D01*
X70224312Y-58952072D01*
X70224500Y-58956373D01*
X70224500Y-59056392D01*
X70205593Y-59114583D01*
X70180502Y-59138707D01*
X70155451Y-59155445D01*
X70155445Y-59155451D01*
X70111134Y-59221766D01*
X70111132Y-59221772D01*
X70099501Y-59280241D01*
X70099500Y-59280253D01*
X70099500Y-59819746D01*
X70099501Y-59819758D01*
X70109226Y-59868645D01*
X70111133Y-59878231D01*
X70155448Y-59944552D01*
X70155450Y-59944553D01*
X70155746Y-59944996D01*
X70172355Y-60003884D01*
X70155746Y-60055001D01*
X70111134Y-60121766D01*
X70111132Y-60121772D01*
X70099501Y-60180241D01*
X70099500Y-60180253D01*
X70099500Y-60500002D01*
X70080593Y-60558193D01*
X70031093Y-60594157D01*
X70013422Y-60598155D01*
X69915038Y-60611107D01*
X69915030Y-60611109D01*
X69768958Y-60671614D01*
X69768957Y-60671614D01*
X69643520Y-60767865D01*
X69643510Y-60767875D01*
X69547259Y-60893312D01*
X69547259Y-60893313D01*
X69486754Y-61039385D01*
X69486752Y-61039393D01*
X69466115Y-61196151D01*
X69466115Y-61196152D01*
X68063941Y-61196152D01*
X68063796Y-61194888D01*
X68060433Y-61156433D01*
X68035877Y-60875776D01*
X68014711Y-60505621D01*
X68011609Y-60399000D01*
X68005393Y-60185346D01*
X68005393Y-59814653D01*
X68006733Y-59768584D01*
X68014710Y-59494396D01*
X68035877Y-59124226D01*
X68063794Y-58805129D01*
X68106073Y-58436657D01*
X68152475Y-58119876D01*
X68215743Y-57754286D01*
X68265820Y-57511762D01*
X71732809Y-57511762D01*
X71818525Y-57561250D01*
X71907063Y-57595238D01*
X71907070Y-57595240D01*
X72033592Y-57601869D01*
X72033598Y-57601869D01*
X72155989Y-57569075D01*
X72155992Y-57569073D01*
X72262252Y-57500067D01*
X72310134Y-57440937D01*
X71907808Y-57208654D01*
X71907807Y-57208654D01*
X71732809Y-57511759D01*
X71732809Y-57511762D01*
X68265820Y-57511762D01*
X68280451Y-57440904D01*
X68364526Y-57079354D01*
X68364815Y-57078277D01*
X68447288Y-56770477D01*
X68551946Y-56414046D01*
X68579067Y-56332201D01*
X68652417Y-56110839D01*
X68777381Y-55760604D01*
X68785491Y-55740192D01*
X68895153Y-55464152D01*
X69040076Y-55121225D01*
X69174670Y-54832583D01*
X69339166Y-54498015D01*
X69490040Y-54218201D01*
X69673662Y-53893049D01*
X69813991Y-53665541D01*
X74035737Y-53665541D01*
X74085227Y-53751260D01*
X74144910Y-53824963D01*
X74251170Y-53893969D01*
X74251173Y-53893971D01*
X74373564Y-53926765D01*
X74373570Y-53926765D01*
X74500092Y-53920136D01*
X74500098Y-53920134D01*
X74571127Y-53892867D01*
X74338844Y-53490542D01*
X74035737Y-53665541D01*
X69813991Y-53665541D01*
X69840192Y-53623063D01*
X70028160Y-53330580D01*
X70042453Y-53308340D01*
X70158646Y-53142399D01*
X70223923Y-53049172D01*
X70444324Y-52745815D01*
X70639964Y-52498388D01*
X70877933Y-52207365D01*
X71086848Y-51972608D01*
X71341858Y-51694756D01*
X71563107Y-51473507D01*
X71834529Y-51209728D01*
X72067142Y-51002721D01*
X72353515Y-50754577D01*
X72355156Y-50753218D01*
X72597052Y-50561951D01*
X72898699Y-50329346D01*
X72900417Y-50328083D01*
X73151160Y-50152511D01*
X73467439Y-49936245D01*
X73469312Y-49935027D01*
X73727324Y-49775882D01*
X74057973Y-49576494D01*
X74059824Y-49575437D01*
X74323593Y-49433214D01*
X74668141Y-49251415D01*
X74670215Y-49250385D01*
X74937554Y-49125722D01*
X75296045Y-48962005D01*
X75298292Y-48961047D01*
X75566780Y-48854382D01*
X75939627Y-48709219D01*
X75941972Y-48708375D01*
X76208399Y-48620090D01*
X76596709Y-48493920D01*
X76599181Y-48493188D01*
X76858728Y-48423642D01*
X77265150Y-48316812D01*
X77267679Y-48316220D01*
X77512217Y-48265726D01*
X77942681Y-48178503D01*
X77945291Y-48178048D01*
X78158486Y-48146820D01*
X78627068Y-48079448D01*
X78629721Y-48079142D01*
X78764585Y-48067341D01*
X79313562Y-48020190D01*
X79316373Y-48020030D01*
X79696071Y-48009182D01*
X79998635Y-48000538D01*
X80001357Y-48000537D01*
X80329649Y-48009493D01*
G37*
%TD.AperFunction*%
%TD*%
M02*
