<?xml version="1.0" standalone="no"?>
 <!DOCTYPE svg PUBLIC "-//W3C//DTD SVG 1.1//EN" 
 "http://www.w3.org/Graphics/SVG/1.1/DTD/svg11.dtd"> 
<svg
  xmlns:svg="http://www.w3.org/2000/svg"
  xmlns="http://www.w3.org/2000/svg"
  xmlns:xlink="http://www.w3.org/1999/xlink"
  version="1.1"
  width="297.0022mm" height="210.0072mm" viewBox="0.0000 0.0000 297.0022 210.0072">
<title>SVG Image created as pedalboard-led-ring-F_Courtyard.svg date 2023/05/26 13:12:29 </title>
  <desc>Image generated by PCBNEW </desc>
<g style="fill:#000000; fill-opacity:1.0000;stroke:#000000; stroke-opacity:1.0000;
stroke-linecap:round; stroke-linejoin:round;"
 transform="translate(0 0) scale(1 1)">
</g>
<g style="fill:#000000; fill-opacity:0.0; 
stroke:#000000; stroke-width:0.0000; stroke-opacity:1; 
stroke-linecap:round; stroke-linejoin:round;">
</g>
<g style="fill:#000000; fill-opacity:0.0; 
stroke:#000000; stroke-width:0.0500; stroke-opacity:1; 
stroke-linecap:round; stroke-linejoin:round;">
<path d="M88.4892 54.3358
L86.4108 55.5358
" />
<path d="M88.4892 54.3358
L89.6892 56.4142
" />
<path d="M86.4108 55.5358
L87.6108 57.6142
" />
<path d="M89.6892 56.4142
L87.6108 57.6142
" />
<path d="M81.2000 70.2000
L81.2000 67.8000
" />
<path d="M81.2000 70.2000
L78.8000 70.2000
" />
<path d="M81.2000 67.8000
L78.8000 67.8000
" />
<path d="M78.8000 70.2000
L78.8000 67.8000
" />
<path d="M78.8000 49.8000
L78.8000 52.2000
" />
<path d="M78.8000 49.8000
L81.2000 49.8000
" />
<path d="M78.8000 52.2000
L81.2000 52.2000
" />
<path d="M81.2000 49.8000
L81.2000 52.2000
" />
<path d="M71.5108 65.6642
L73.5892 64.4642
" />
<path d="M71.5108 65.6642
L70.3108 63.5858
" />
<path d="M73.5892 64.4642
L72.3892 62.3858
" />
<path d="M70.3108 63.5858
L72.3892 62.3858
" />
<path d="M70.3108 56.4142
L72.3892 57.6142
" />
<path d="M70.3108 56.4142
L71.5108 54.3358
" />
<path d="M72.3892 57.6142
L73.5892 55.5358
" />
<path d="M71.5108 54.3358
L73.5892 55.5358
" />
<path d="M89.6892 63.5858
L87.6108 62.3858
" />
<path d="M89.6892 63.5858
L88.4892 65.6642
" />
<path d="M87.6108 62.3858
L86.4108 64.4642
" />
<path d="M88.4892 65.6642
L86.4108 64.4642
" />
<g >
</g>
<g >
</g>
<g >
</g>
<g >
</g>
<g >
</g>
<g >
</g>
<g >
</g>
<g >
</g>
<g >
</g>
<g >
</g>
<g >
</g>
<g >
</g>
<g >
</g>
<g >
</g>
<g >
</g>
<g >
</g>
<g >
</g>
<g >
</g>
<g >
</g>
</g> 
</svg>
