G04 #@! TF.GenerationSoftware,KiCad,Pcbnew,7.0.7-7.0.7~ubuntu23.04.1*
G04 #@! TF.CreationDate,2023-10-17T19:12:59+00:00*
G04 #@! TF.ProjectId,pedalboard-led-ring,70656461-6c62-46f6-9172-642d6c65642d,1.1.0-RC1*
G04 #@! TF.SameCoordinates,Original*
G04 #@! TF.FileFunction,Soldermask,Bot*
G04 #@! TF.FilePolarity,Negative*
%FSLAX46Y46*%
G04 Gerber Fmt 4.6, Leading zero omitted, Abs format (unit mm)*
G04 Created by KiCad (PCBNEW 7.0.7-7.0.7~ubuntu23.04.1) date 2023-10-17 19:12:59*
%MOMM*%
%LPD*%
G01*
G04 APERTURE LIST*
%ADD10R,1.000000X2.750000*%
G04 APERTURE END LIST*
D10*
X91000000Y-56875000D03*
X91000000Y-63125000D03*
X89000000Y-56875000D03*
X89000000Y-63125000D03*
G36*
X86470952Y-53832816D02*
G01*
X86792345Y-54215838D01*
X86788447Y-54219109D01*
X86834186Y-54273619D01*
X86891245Y-54403996D01*
X86909260Y-54545165D01*
X86886774Y-54685693D01*
X86825608Y-54814192D01*
X86730717Y-54920254D01*
X86347695Y-55241648D01*
X86226766Y-55316680D01*
X86089598Y-55354603D01*
X85947300Y-55352345D01*
X85811404Y-55310090D01*
X85692916Y-55231258D01*
X85647177Y-55176749D01*
X85643279Y-55180020D01*
X85321885Y-54796997D01*
X86470952Y-53832816D01*
G37*
G36*
X84811553Y-54180891D02*
G01*
X84765814Y-54126381D01*
X84708755Y-53996004D01*
X84690740Y-53854835D01*
X84713226Y-53714307D01*
X84774392Y-53585808D01*
X84869283Y-53479746D01*
X85252305Y-53158352D01*
X85373234Y-53083320D01*
X85510402Y-53045397D01*
X85652700Y-53047655D01*
X85788596Y-53089910D01*
X85907084Y-53168742D01*
X85952823Y-53223251D01*
X85956721Y-53219980D01*
X86278115Y-53603003D01*
X85129048Y-54567184D01*
X84807655Y-54184162D01*
X84811553Y-54180891D01*
G37*
M02*
