<?xml version="1.0" standalone="no"?>
 <!DOCTYPE svg PUBLIC "-//W3C//DTD SVG 1.1//EN" 
 "http://www.w3.org/Graphics/SVG/1.1/DTD/svg11.dtd"> 
<svg
  xmlns:svg="http://www.w3.org/2000/svg"
  xmlns="http://www.w3.org/2000/svg"
  xmlns:xlink="http://www.w3.org/1999/xlink"
  version="1.1"
  width="297.0022mm" height="210.0072mm" viewBox="0.0000 0.0000 297.0022 210.0072">
<title>SVG Image created as pedalboard-led-ring-B_Cu.svg date 2023/06/03 19:59:49 </title>
  <desc>Image generated by PCBNEW </desc>
<g style="fill:#000000; fill-opacity:1.0000;stroke:#000000; stroke-opacity:1.0000;
stroke-linecap:round; stroke-linejoin:round;"
 transform="translate(0 0) scale(1 1)">
</g>
<g style="fill:#000000; fill-opacity:0.0; 
stroke:#000000; stroke-width:0.0000; stroke-opacity:1; 
stroke-linecap:round; stroke-linejoin:round;">
<g >
</g>
<g >
</g>
<g >
</g>
<g >
</g>
<g >
</g>
<g >
</g>
<g >
</g>
<g >
</g>
<g >
</g>
<g >
</g>
<g >
</g>
<g >
</g>
<g >
</g>
<g >
</g>
<g >
</g>
<g >
</g>
<g >
</g>
<g >
</g>
<g >
</g>
<g >
</g>
<g >
</g>
<g >
</g>
<g >
</g>
<g >
</g>
<g >
</g>
<g >
</g>
<g >
</g>
<g >
</g>
<g >
</g>
<g >
</g>
<g style="fill:#000000; fill-opacity:0.0; 
stroke:#000000; stroke-width:0.0000; stroke-opacity:1; 
stroke-linecap:round; stroke-linejoin:round;">
</g>
<g style="fill:#000000; fill-opacity:0.0; 
stroke:#000000; stroke-width:0.0000; stroke-opacity:1; 
stroke-linecap:round; stroke-linejoin:round;">
</g>
<g style="fill:#000000; fill-opacity:1.0000; 
stroke:#000000; stroke-width:0.0000; stroke-opacity:1; 
stroke-linecap:round; stroke-linejoin:round;">
<path style="fill:#000000; fill-opacity:1.0000; 
stroke:#000000; stroke-width:0.0000; stroke-opacity:1; 
stroke-linecap:round; stroke-linejoin:round;fill-rule:evenodd;"
d="M 206.0022,58.2500
207.0022,58.2500
207.0022,55.5000
206.0022,55.5000
Z" /> 
<path style="fill:#000000; fill-opacity:1.0000; 
stroke:#000000; stroke-width:0.0000; stroke-opacity:1; 
stroke-linecap:round; stroke-linejoin:round;fill-rule:evenodd;"
d="M 206.0022,64.5000
207.0022,64.5000
207.0022,61.7500
206.0022,61.7500
Z" /> 
<path style="fill:#000000; fill-opacity:1.0000; 
stroke:#000000; stroke-width:0.0000; stroke-opacity:1; 
stroke-linecap:round; stroke-linejoin:round;fill-rule:evenodd;"
d="M 208.0022,58.2500
209.0022,58.2500
209.0022,55.5000
208.0022,55.5000
Z" /> 
<path style="fill:#000000; fill-opacity:1.0000; 
stroke:#000000; stroke-width:0.0000; stroke-opacity:1; 
stroke-linecap:round; stroke-linejoin:round;fill-rule:evenodd;"
d="M 208.0022,64.5000
209.0022,64.5000
209.0022,61.7500
208.0022,61.7500
Z" /> 
</g>
<g >
</g>
<g style="fill:#000000; fill-opacity:1.0000; 
stroke:#000000; stroke-width:0.0000; stroke-opacity:1; 
stroke-linecap:round; stroke-linejoin:round;">
<path style="fill:#000000; fill-opacity:1.0000; 
stroke:#000000; stroke-width:0.0000; stroke-opacity:1; 
stroke-linecap:round; stroke-linejoin:round;fill-rule:evenodd;"
d="M 208.2522,71.0000
208.2522,70.0000
205.5022,70.0000
205.5022,71.0000
Z" /> 
<path style="fill:#000000; fill-opacity:1.0000; 
stroke:#000000; stroke-width:0.0000; stroke-opacity:1; 
stroke-linecap:round; stroke-linejoin:round;fill-rule:evenodd;"
d="M 214.5022,71.0000
214.5022,70.0000
211.7522,70.0000
211.7522,71.0000
Z" /> 
<path style="fill:#000000; fill-opacity:1.0000; 
stroke:#000000; stroke-width:0.0000; stroke-opacity:1; 
stroke-linecap:round; stroke-linejoin:round;fill-rule:evenodd;"
d="M 208.2522,69.0000
208.2522,68.0000
205.5022,68.0000
205.5022,69.0000
Z" /> 
<path style="fill:#000000; fill-opacity:1.0000; 
stroke:#000000; stroke-width:0.0000; stroke-opacity:1; 
stroke-linecap:round; stroke-linejoin:round;fill-rule:evenodd;"
d="M 214.5022,69.0000
214.5022,68.0000
211.7522,68.0000
211.7522,69.0000
Z" /> 
</g>
<g >
</g>
<g style="fill:#000000; fill-opacity:1.0000; 
stroke:#000000; stroke-width:0.0000; stroke-opacity:1; 
stroke-linecap:round; stroke-linejoin:round;">
<circle cx="210.2022" cy="63.6000" r="0.4000" /> 
</g>
<g style="fill:#000000; fill-opacity:1.0000; 
stroke:#000000; stroke-width:0.0212; stroke-opacity:1; 
stroke-linecap:round; stroke-linejoin:round;">
</g>
<g style="fill:#000000; fill-opacity:1.0000; 
stroke:#000000; stroke-width:0.0000; stroke-opacity:1; 
stroke-linecap:round; stroke-linejoin:round;">
<circle cx="223.0022" cy="52.0000" r="0.4000" /> 
</g>
<g style="fill:#000000; fill-opacity:1.0000; 
stroke:#000000; stroke-width:0.0212; stroke-opacity:1; 
stroke-linecap:round; stroke-linejoin:round;">
</g>
<g style="fill:#000000; fill-opacity:1.0000; 
stroke:#000000; stroke-width:0.0000; stroke-opacity:1; 
stroke-linecap:round; stroke-linejoin:round;">
<circle cx="207.0740" cy="58.8038" r="0.4000" /> 
</g>
<g style="fill:#000000; fill-opacity:1.0000; 
stroke:#000000; stroke-width:0.0212; stroke-opacity:1; 
stroke-linecap:round; stroke-linejoin:round;">
</g>
<g style="fill:#000000; fill-opacity:1.0000; 
stroke:#000000; stroke-width:0.0000; stroke-opacity:1; 
stroke-linecap:round; stroke-linejoin:round;">
<circle cx="226.9304" cy="61.1962" r="0.4000" /> 
</g>
<g style="fill:#000000; fill-opacity:1.0000; 
stroke:#000000; stroke-width:0.0212; stroke-opacity:1; 
stroke-linecap:round; stroke-linejoin:round;">
</g>
<g style="fill:#000000; fill-opacity:1.0000; 
stroke:#000000; stroke-width:0.0000; stroke-opacity:1; 
stroke-linecap:round; stroke-linejoin:round;">
<circle cx="220.9304" cy="69.1962" r="0.4000" /> 
</g>
<g style="fill:#000000; fill-opacity:1.0000; 
stroke:#000000; stroke-width:0.0212; stroke-opacity:1; 
stroke-linecap:round; stroke-linejoin:round;">
</g>
<g style="fill:#000000; fill-opacity:1.0000; 
stroke:#000000; stroke-width:0.0000; stroke-opacity:1; 
stroke-linecap:round; stroke-linejoin:round;">
<circle cx="215.8060" cy="69.9282" r="0.4000" /> 
</g>
<g style="fill:#000000; fill-opacity:1.0000; 
stroke:#000000; stroke-width:0.0212; stroke-opacity:1; 
stroke-linecap:round; stroke-linejoin:round;">
</g>
<g style="fill:#000000; fill-opacity:1.0000; 
stroke:#000000; stroke-width:0.0000; stroke-opacity:1; 
stroke-linecap:round; stroke-linejoin:round;">
<circle cx="213.0740" cy="50.8038" r="0.4000" /> 
</g>
<g style="fill:#000000; fill-opacity:1.0000; 
stroke:#000000; stroke-width:0.0212; stroke-opacity:1; 
stroke-linecap:round; stroke-linejoin:round;">
</g>
<g style="fill:#000000; fill-opacity:1.0000; 
stroke:#000000; stroke-width:0.0000; stroke-opacity:1; 
stroke-linecap:round; stroke-linejoin:round;">
<circle cx="225.0022" cy="66.0000" r="0.4000" /> 
</g>
<g style="fill:#000000; fill-opacity:1.0000; 
stroke:#000000; stroke-width:0.0212; stroke-opacity:1; 
stroke-linecap:round; stroke-linejoin:round;">
</g>
<g style="fill:#000000; fill-opacity:1.0000; 
stroke:#000000; stroke-width:0.0000; stroke-opacity:1; 
stroke-linecap:round; stroke-linejoin:round;">
<circle cx="211.0022" cy="67.9400" r="0.4000" /> 
</g>
<g style="fill:#000000; fill-opacity:1.0000; 
stroke:#000000; stroke-width:0.0212; stroke-opacity:1; 
stroke-linecap:round; stroke-linejoin:round;">
</g>
<g style="fill:#000000; fill-opacity:1.0000; 
stroke:#000000; stroke-width:0.0000; stroke-opacity:1; 
stroke-linecap:round; stroke-linejoin:round;">
<circle cx="226.1984" cy="56.0718" r="0.4000" /> 
</g>
<g style="fill:#000000; fill-opacity:1.0000; 
stroke:#000000; stroke-width:0.0212; stroke-opacity:1; 
stroke-linecap:round; stroke-linejoin:round;">
</g>
<g style="fill:#000000; fill-opacity:1.0000; 
stroke:#000000; stroke-width:0.0000; stroke-opacity:1; 
stroke-linecap:round; stroke-linejoin:round;">
<circle cx="209.0022" cy="54.0000" r="0.4000" /> 
</g>
<g style="fill:#000000; fill-opacity:1.0000; 
stroke:#000000; stroke-width:0.0212; stroke-opacity:1; 
stroke-linecap:round; stroke-linejoin:round;">
</g>
<g style="fill:#000000; fill-opacity:1.0000; 
stroke:#000000; stroke-width:0.0000; stroke-opacity:1; 
stroke-linecap:round; stroke-linejoin:round;">
<circle cx="208.7422" cy="66.0200" r="0.4000" /> 
</g>
<g style="fill:#000000; fill-opacity:1.0000; 
stroke:#000000; stroke-width:0.0212; stroke-opacity:1; 
stroke-linecap:round; stroke-linejoin:round;">
</g>
<g style="fill:#000000; fill-opacity:1.0000; 
stroke:#000000; stroke-width:0.0000; stroke-opacity:1; 
stroke-linecap:round; stroke-linejoin:round;">
<circle cx="218.1984" cy="50.0718" r="0.4000" /> 
</g>
<g style="fill:#000000; fill-opacity:1.0000; 
stroke:#000000; stroke-width:0.0212; stroke-opacity:1; 
stroke-linecap:round; stroke-linejoin:round;">
</g>
<g style="fill:#000000; fill-opacity:1.0000; 
stroke:#000000; stroke-width:0.0000; stroke-opacity:1; 
stroke-linecap:round; stroke-linejoin:round;">
<circle cx="206.8022" cy="61.4000" r="0.4000" /> 
</g>
<g style="fill:#000000; fill-opacity:1.0000; 
stroke:#000000; stroke-width:0.0212; stroke-opacity:1; 
stroke-linecap:round; stroke-linejoin:round;">
</g>
<g style="fill:#000000; fill-opacity:1.0000; 
stroke:#000000; stroke-width:0.0000; stroke-opacity:1; 
stroke-linecap:round; stroke-linejoin:round;">
<circle cx="214.1022" cy="71.4000" r="0.4000" /> 
</g>
<g style="fill:#000000; fill-opacity:1.0000; 
stroke:#000000; stroke-width:0.0212; stroke-opacity:1; 
stroke-linecap:round; stroke-linejoin:round;">
</g>
<g style="fill:#000000; fill-opacity:1.0000; 
stroke:#000000; stroke-width:0.0000; stroke-opacity:1; 
stroke-linecap:round; stroke-linejoin:round;">
<circle cx="206.0522" cy="61.4000" r="0.4000" /> 
</g>
<g style="fill:#000000; fill-opacity:1.0000; 
stroke:#000000; stroke-width:0.0212; stroke-opacity:1; 
stroke-linecap:round; stroke-linejoin:round;">
</g>
<g style="fill:#000000; fill-opacity:1.0000; 
stroke:#000000; stroke-width:0.0000; stroke-opacity:1; 
stroke-linecap:round; stroke-linejoin:round;">
<circle cx="206.1022" cy="64.9000" r="0.4000" /> 
</g>
<g style="fill:#000000; fill-opacity:1.0000; 
stroke:#000000; stroke-width:0.0212; stroke-opacity:1; 
stroke-linecap:round; stroke-linejoin:round;">
</g>
<g style="fill:#000000; fill-opacity:1.0000; 
stroke:#000000; stroke-width:0.0000; stroke-opacity:1; 
stroke-linecap:round; stroke-linejoin:round;">
<circle cx="206.8522" cy="64.9000" r="0.4000" /> 
</g>
<g style="fill:#000000; fill-opacity:1.0000; 
stroke:#000000; stroke-width:0.0212; stroke-opacity:1; 
stroke-linecap:round; stroke-linejoin:round;">
</g>
<g style="fill:#000000; fill-opacity:1.0000; 
stroke:#000000; stroke-width:0.0000; stroke-opacity:1; 
stroke-linecap:round; stroke-linejoin:round;">
<circle cx="212.1022" cy="71.4000" r="0.4000" /> 
</g>
<g style="fill:#000000; fill-opacity:1.0000; 
stroke:#000000; stroke-width:0.0212; stroke-opacity:1; 
stroke-linecap:round; stroke-linejoin:round;">
</g>
<g style="fill:#000000; fill-opacity:1.0000; 
stroke:#000000; stroke-width:0.0000; stroke-opacity:1; 
stroke-linecap:round; stroke-linejoin:round;">
<circle cx="211.3022" cy="70.5000" r="0.4000" /> 
</g>
<g style="fill:#000000; fill-opacity:1.0000; 
stroke:#000000; stroke-width:0.0212; stroke-opacity:1; 
stroke-linecap:round; stroke-linejoin:round;">
</g>
<g style="fill:#000000; fill-opacity:1.0000; 
stroke:#000000; stroke-width:0.0000; stroke-opacity:1; 
stroke-linecap:round; stroke-linejoin:round;">
<circle cx="213.1022" cy="71.4000" r="0.4000" /> 
</g>
<g style="fill:#000000; fill-opacity:1.0000; 
stroke:#000000; stroke-width:0.0212; stroke-opacity:1; 
stroke-linecap:round; stroke-linejoin:round;">
</g>
<g style="fill:#000000; fill-opacity:1.0000; 
stroke:#000000; stroke-width:0.0000; stroke-opacity:1; 
stroke-linecap:round; stroke-linejoin:round;">
<circle cx="209.0922" cy="61.1500" r="0.4000" /> 
</g>
<g style="fill:#000000; fill-opacity:1.0000; 
stroke:#000000; stroke-width:0.0212; stroke-opacity:1; 
stroke-linecap:round; stroke-linejoin:round;">
</g>
<g >
</g>
<g style="fill:#000000; fill-opacity:1.0000; 
stroke:#000000; stroke-width:0.0212; stroke-opacity:1; 
stroke-linecap:round; stroke-linejoin:round;">
</g>
<g style="fill:#000000; fill-opacity:1.0000; 
stroke:#000000; stroke-width:0.2500; stroke-opacity:1; 
stroke-linecap:round; stroke-linejoin:round;">
</g>
<g style="fill:#000000; fill-opacity:0.0; 
stroke:#000000; stroke-width:0.2500; stroke-opacity:1; 
stroke-linecap:round; stroke-linejoin:round;">
<path d="M208.3772 63.5000
L210.1022 63.5000
" />
<path d="M210.2022 64.6800
L213.1272 67.6050
" />
<path d="M210.1022 63.5000
L210.2022 63.6000
" />
<path d="M213.1272 67.6050
L213.1272 68.5000
" />
<path d="M210.2022 63.6000
L210.2022 64.6800
" />
<path d="M205.9022 64.9000
L206.6022 64.9000
" />
<path d="M213.2022 70.5000
L214.1022 71.4000
" />
<path d="M213.1272 70.5000
L211.3022 70.5000
" />
<path d="M213.1272 70.5000
L213.1272 71.3750
" />
<path d="M213.0022 70.5000
L212.1022 71.4000
" />
<path d="M213.1272 71.3750
L213.1022 71.4000
" />
<path d="M209.0922 61.2000
L208.4522 60.5600
" />
<path d="M205.3472 67.4700
L205.8772 68.0000
" />
<path d="M208.5022 56.8750
L208.5022 60.5600
" />
<path d="M205.8952 60.5600
L205.3472 61.1080
" />
<path d="M205.3472 61.1080
L205.3472 67.4700
" />
<path d="M208.4522 60.5600
L205.8952 60.5600
" />
</g>
<g >
</g>
<g style="fill:#000000; fill-opacity:0.0; 
stroke:#000000; stroke-width:0.2500; stroke-opacity:1; 
stroke-linecap:round; stroke-linejoin:round;">
<g >
</g>
<g style="fill:#000000; fill-opacity:1.0000; 
stroke:#000000; stroke-width:0.0000; stroke-opacity:1; 
stroke-linecap:round; stroke-linejoin:round;">
<path style="fill:#000000; fill-opacity:1.0000; 
stroke:#000000; stroke-width:0.0000; stroke-opacity:1; 
stroke-linecap:round; stroke-linejoin:round;fill-rule:evenodd;"
d="M 206.0001,48.0007
205.9567,48.0045
205.8284,48.0171
205.8125,48.0200
205.7446,48.0382
205.7432,48.0386
205.6489,48.0672
205.6358,48.0722
205.5665,48.1045
205.5641,48.1057
205.4792,48.1511
205.4741,48.1542
205.4070,48.2013
205.4040,48.2035
205.3693,48.2320
205.3309,48.2635
205.3273,48.2668
205.2690,48.3251
205.2657,48.3287
205.2057,48.4018
205.2035,48.4048
205.1564,48.4719
205.1533,48.4770
205.1079,48.5619
205.1067,48.5643
205.0744,48.6336
205.0694,48.6467
205.0408,48.7409
205.0404,48.7424
205.0222,48.8103
205.0193,48.8262
205.0067,48.9545
205.0029,48.9978
205.0027,49.0022
205.0027,60.7531
205.0216,60.8113
205.0711,60.8473
205.1323,60.8473
205.1717,60.8231
205.6534,60.3414
205.6564,60.3382
205.6827,60.3068
205.7054,60.2937
205.7183,60.2863
205.7219,60.2840
205.7555,60.2604
205.7555,60.2604
205.7570,60.2601
205.7808,60.2502
205.7821,60.2494
205.8225,60.2423
205.8267,60.2414
205.8530,60.2343
205.8664,60.2307
205.8664,60.2307
205.8708,60.2311
205.9073,60.2343
205.9116,60.2345
208.0777,60.2345
208.1359,60.2156
208.1719,60.1661
208.1767,60.1355
208.1767,58.5495
208.1578,58.4913
208.1083,58.4553
208.0777,58.4505
207.9825,58.4505
207.9825,58.4505
207.9240,58.4389
207.8576,58.3946
207.8133,58.3282
207.8017,58.2697
207.8017,57.0250
207.3022,57.0250
207.3022,58.2948
207.2993,58.3199
207.2540,58.4225
207.1747,58.5018
207.0721,58.5471
207.0470,58.5500
206.6522,58.5500
206.6522,58.5500
206.3522,58.5500
206.3522,58.5500
205.9574,58.5500
205.9574,58.5500
205.9323,58.5471
205.8297,58.5018
205.7504,58.4225
205.7051,58.3199
205.7022,58.2948
205.7022,58.2948
205.7022,57.0250
205.7022,57.0250
206.3522,57.0250
206.3522,57.0250
206.3522,58.5500
206.6522,58.5500
206.6522,57.0250
207.3022,57.0250
207.8017,57.0250
207.8017,56.7250
207.3022,56.7250
207.3022,56.7250
206.6522,56.7250
206.6522,56.7250
206.6522,55.2000
206.3522,55.2000
206.3522,56.7250
206.3522,56.7250
205.7022,56.7250
205.7022,56.7250
205.7022,55.4552
205.7022,55.4552
205.7051,55.4301
205.7504,55.3275
205.8297,55.2482
205.9323,55.2029
205.9574,55.2000
206.3522,55.2000
206.6522,55.2000
207.0470,55.2000
207.0470,55.2000
207.0721,55.2029
207.1747,55.2482
207.2540,55.3275
207.2993,55.4301
207.3022,55.4552
207.3022,56.7250
207.8017,56.7250
207.8017,55.4803
207.8133,55.4218
207.8576,55.3554
207.8577,55.3554
207.9240,55.3111
207.9240,55.3111
207.9240,55.3111
207.9240,55.3111
207.9824,55.2995
207.9825,55.2995
209.0219,55.2995
209.0219,55.2995
209.0220,55.2995
209.0804,55.3111
209.0804,55.3111
209.1467,55.3554
209.1468,55.3555
209.1911,55.4218
209.1911,55.4218
209.2027,55.4802
209.2027,55.4803
209.2027,58.2697
209.2027,58.2698
209.1911,58.3282
209.1911,58.3282
209.1468,58.3946
209.0804,58.4389
209.0360,58.4477
209.0220,58.4505
209.0220,58.4505
209.0219,58.4505
208.9267,58.4505
208.8685,58.4694
208.8325,58.5189
208.8277,58.5495
208.8277,60.4342
208.8466,60.4924
208.8567,60.5042
208.8851,60.5325
208.9396,60.5603
208.9680,60.5607
209.0922,60.5443
209.0922,60.5443
209.2490,60.5650
209.2490,60.5650
209.3950,60.6255
209.3950,60.6255
209.5205,60.7217
209.5205,60.7217
209.6167,60.8472
209.6167,60.8472
209.6772,60.9932
209.6772,60.9932
209.6979,61.1500
209.6979,61.1500
209.6772,61.3068
209.6772,61.3068
209.6167,61.4528
209.6167,61.4528
209.5370,61.5568
209.5205,61.5783
209.3950,61.6745
209.2638,61.7289
209.2173,61.7686
209.2027,61.8204
209.2027,63.0755
209.2216,63.1337
209.2711,63.1697
209.3017,63.1745
209.7367,63.1745
209.7949,63.1556
209.7970,63.1540
209.8994,63.0755
210.0454,63.0150
210.0454,63.0150
210.2022,62.9943
210.2022,62.9943
210.3590,63.0150
210.3590,63.0150
210.5050,63.0755
210.5050,63.0755
210.6305,63.1717
210.6305,63.1717
210.7267,63.2972
210.7267,63.2972
210.7872,63.4432
210.7872,63.4432
210.8079,63.6000
210.8079,63.6000
210.7872,63.7568
210.7872,63.7568
210.7267,63.9028
210.7267,63.9028
210.7267,63.9028
210.6305,64.0283
210.6039,64.0487
210.5664,64.0774
210.5318,64.1279
210.5277,64.1560
210.5277,64.5042
210.5466,64.5624
210.5567,64.5742
213.3458,67.3633
213.3490,67.3662
213.3804,67.3925
213.3804,67.3925
213.4009,67.4281
213.4032,67.4317
213.4268,67.4653
213.4268,67.4653
213.4271,67.4668
213.4370,67.4906
213.4378,67.4919
213.4378,67.4920
213.4449,67.5323
213.4458,67.5366
213.4565,67.5762
213.4565,67.5762
213.4529,67.6171
213.4527,67.6214
213.4527,67.7005
213.4716,67.7587
213.5211,67.7947
213.5517,67.7995
214.5219,67.7995
214.5219,67.7995
214.5220,67.7995
214.5804,67.8111
214.5804,67.8111
214.6467,67.8554
214.6468,67.8555
214.6911,67.9218
214.6911,67.9218
214.7027,67.9802
214.7027,67.9803
214.7027,69.0197
214.7027,69.0198
214.6911,69.0782
214.6911,69.0782
214.6468,69.1446
214.5804,69.1889
214.5360,69.1977
214.5220,69.2005
214.5220,69.2005
214.5219,69.2005
214.5219,69.2005
211.7325,69.2005
211.7325,69.2005
211.6740,69.1889
211.6076,69.1446
211.5633,69.0782
211.5517,69.0197
211.5517,67.9803
211.5633,67.9218
211.6076,67.8554
211.6535,67.8248
211.6740,67.8111
211.6740,67.8111
211.6740,67.8111
211.6740,67.8111
211.7324,67.7995
211.7325,67.7995
211.7325,67.7995
212.6224,67.7995
212.6806,67.7806
212.7165,67.7311
212.7165,67.6699
212.6924,67.6305
209.9836,64.9217
209.9804,64.9188
209.9490,64.8925
209.9285,64.8569
209.9262,64.8533
209.9026,64.8197
209.9023,64.8182
209.8924,64.7943
209.8916,64.7930
209.8845,64.7527
209.8836,64.7485
209.8729,64.7088
209.8765,64.6679
209.8767,64.6636
209.8767,64.1560
209.8578,64.0978
209.8380,64.0774
209.7739,64.0283
209.6777,63.9028
209.6709,63.8866
209.6312,63.8401
209.5795,63.8255
209.3017,63.8255
209.2435,63.8444
209.2075,63.8939
209.2027,63.9245
209.2027,64.5197
209.2027,64.5198
209.1911,64.5782
209.1911,64.5782
209.1468,64.6445
209.1468,64.6446
209.0804,64.6889
209.0360,64.6977
209.0220,64.7005
209.0220,64.7005
209.0219,64.7005
209.0219,64.7005
207.9825,64.7005
207.9825,64.7005
207.9240,64.6889
207.8576,64.6446
207.8133,64.5782
207.8017,64.5197
207.8017,61.7303
207.8133,61.6718
207.8576,61.6054
207.8983,61.5783
207.9240,61.5611
207.9240,61.5611
207.9240,61.5611
207.9240,61.5611
207.9824,61.5495
207.9825,61.5495
207.9825,61.5495
208.4595,61.5495
208.5177,61.5306
208.5537,61.4811
208.5537,61.4199
208.5510,61.4126
208.5072,61.3068
208.5072,61.3068
208.5072,61.3068
208.4865,61.1500
208.4912,61.1141
208.4801,61.0540
208.4631,61.0312
208.3464,60.9145
208.2919,60.8867
208.2764,60.8855
207.3651,60.8855
207.3069,60.9044
207.2709,60.9539
207.2709,61.0151
207.2865,61.0448
207.3267,61.0972
207.3872,61.2432
207.3872,61.2432
207.4079,61.4000
207.4079,61.4000
207.3872,61.5568
207.3872,61.5568
207.3267,61.7028
207.3267,61.7028
207.2265,61.8334
207.2279,61.8345
207.2039,61.8816
207.2027,61.8971
207.2027,64.3632
207.2216,64.4214
207.2414,64.4418
207.2805,64.4717
207.2805,64.4717
207.3767,64.5972
207.3767,64.5972
207.4372,64.7432
207.4372,64.7432
207.4579,64.9000
207.4579,64.9000
207.4372,65.0568
207.4372,65.0568
207.3767,65.2028
207.3767,65.2028
207.2817,65.3267
207.2805,65.3283
207.1550,65.4245
207.1550,65.4245
207.1550,65.4245
207.0792,65.4559
207.0090,65.4850
206.8914,65.5005
206.8522,65.5057
206.8522,65.5057
206.8522,65.5057
206.8208,65.5016
206.6954,65.4850
206.5494,65.4245
206.5375,65.4154
206.4798,65.3950
206.4211,65.4124
206.4169,65.4154
206.4050,65.4245
206.4050,65.4245
206.4050,65.4245
206.3292,65.4559
206.2590,65.4850
206.1414,65.5005
206.1022,65.5057
206.1022,65.5057
206.1022,65.5057
206.0708,65.5016
205.9454,65.4850
205.8096,65.4288
205.7486,65.4240
205.6964,65.4559
205.6730,65.5125
205.6727,65.5202
205.6727,67.2942
205.6916,67.3524
205.7017,67.3642
205.9137,67.5762
206.1080,67.7705
206.1625,67.7983
206.1780,67.7995
208.2719,67.7995
208.2719,67.7995
208.2720,67.7995
208.3304,67.8111
208.3304,67.8111
208.3967,67.8554
208.3968,67.8555
208.4411,67.9218
208.4411,67.9218
208.4527,67.9802
208.4527,67.9803
208.4527,69.0197
208.4527,69.0198
208.4411,69.0782
208.4411,69.0782
208.3968,69.1446
208.3304,69.1889
208.2860,69.1977
208.2720,69.2005
208.2720,69.2005
208.2719,69.2005
208.2719,69.2005
205.4825,69.2005
205.4825,69.2005
205.4240,69.1889
205.3576,69.1446
205.3133,69.0782
205.3017,69.0197
205.3017,67.9803
205.3072,67.9526
205.3000,67.8918
205.2801,67.8632
205.1717,67.7548
205.1172,67.7271
205.0568,67.7366
205.0135,67.7799
205.0027,67.8248
205.0027,70.9978
205.0029,71.0022
205.0046,71.0214
205.0241,71.0675
205.0151,71.0830
205.0134,71.1136
205.0193,71.1738
205.0222,71.1897
205.0404,71.2576
205.0408,71.2591
205.0694,71.3533
205.0744,71.3664
205.1067,71.4357
205.1079,71.4381
205.1533,71.5230
205.1564,71.5281
205.2035,71.5952
205.2057,71.5982
205.2657,71.6713
205.2690,71.6749
205.3273,71.7332
205.3309,71.7365
205.4040,71.7965
205.4070,71.7987
205.4741,71.8458
205.4792,71.8489
205.5641,71.8943
205.5665,71.8955
205.6358,71.9278
205.6489,71.9328
205.7431,71.9614
205.7446,71.9618
205.8125,71.9800
205.8284,71.9829
205.9567,71.9955
206.0000,71.9993
206.0044,71.9995
211.6061,71.9995
211.6643,71.9806
211.7003,71.9311
211.7003,71.8699
211.6761,71.8305
211.6739,71.8283
211.6739,71.8283
211.5777,71.7028
211.5172,71.5568
211.4965,71.4000
211.5172,71.2432
211.5242,71.2262
211.5290,71.1652
211.4970,71.1131
211.4405,71.0897
211.4198,71.0902
211.3022,71.1057
211.3022,71.1057
211.3022,71.1057
211.2493,71.0987
211.1454,71.0850
211.0483,71.0448
208.5522,71.0448
208.5493,71.0699
208.5040,71.1725
208.4247,71.2518
208.3221,71.2971
208.2970,71.3000
207.0272,71.3000
207.0272,71.3000
206.7272,71.3000
206.7272,71.3000
205.4574,71.3000
205.4574,71.3000
205.4323,71.2971
205.3297,71.2518
205.2504,71.1725
205.2025,71.0639
205.1914,71.0516
205.2022,71.0128
205.2022,70.6500
205.2022,70.6500
206.7272,70.6500
206.7272,70.6500
206.7272,71.3000
207.0272,71.3000
207.0272,71.3000
207.0272,70.6500
207.0272,70.6500
208.5522,70.6500
208.5522,70.6500
208.5522,71.0448
211.0483,71.0448
210.9994,71.0245
210.8739,70.9283
210.7777,70.8028
210.7172,70.6568
210.6965,70.5000
210.7163,70.3500
208.5522,70.3500
208.5522,70.3500
207.0272,70.3500
207.0272,70.3500
206.7272,70.3500
206.7272,70.3500
205.2022,70.3500
205.2022,70.3500
205.2022,69.9552
205.2022,69.9552
205.2051,69.9301
205.2504,69.8275
205.3297,69.7482
205.4323,69.7029
205.4574,69.7000
206.7272,69.7000
206.7272,69.7000
206.7272,70.3500
207.0272,70.3500
207.0272,69.7000
207.0272,69.7000
208.2970,69.7000
208.2970,69.7000
208.3221,69.7029
208.4247,69.7482
208.5040,69.8275
208.5493,69.9301
208.5522,69.9552
208.5522,70.3500
210.7163,70.3500
210.7172,70.3432
210.7777,70.1972
210.7777,70.1972
210.8739,70.0717
210.8739,70.0717
210.8739,70.0717
210.8739,70.0717
210.8739,70.0717
210.9674,70.0000
210.9994,69.9755
210.9994,69.9755
210.9994,69.9755
211.1454,69.9150
211.1454,69.9150
211.3022,69.8943
211.3022,69.8943
211.4590,69.9150
211.4590,69.9150
211.4692,69.9192
211.5302,69.9240
211.5824,69.8920
211.5894,69.8827
211.6076,69.8554
211.6077,69.8554
211.6740,69.8111
211.6740,69.8111
211.6740,69.8111
211.6740,69.8111
211.7324,69.7995
211.7325,69.7995
214.5219,69.7995
214.5219,69.7995
214.5220,69.7995
214.5804,69.8111
214.5804,69.8111
214.6467,69.8554
214.6468,69.8555
214.6911,69.9218
214.6911,69.9218
214.7027,69.9802
214.7027,69.9803
214.7027,71.0197
214.7027,71.0198
214.6911,71.0782
214.6911,71.0782
214.6759,71.1009
214.6593,71.1598
214.6668,71.1938
214.6872,71.2432
214.6872,71.2432
214.7079,71.4000
214.7079,71.4000
214.6872,71.5568
214.6872,71.5568
214.6267,71.7028
214.6267,71.7028
214.5305,71.8283
214.5305,71.8283
214.5305,71.8283
214.5283,71.8305
214.5272,71.8325
214.5265,71.8334
214.5267,71.8336
214.5005,71.8850
214.5101,71.9454
214.5533,71.9887
214.5983,71.9995
228.0000,71.9995
228.0044,71.9993
228.0477,71.9955
228.1760,71.9829
228.1919,71.9800
228.2288,71.9701
228.2598,71.9618
228.2613,71.9614
228.3555,71.9328
228.3686,71.9278
228.4379,71.8955
228.4403,71.8943
228.5252,71.8489
228.5303,71.8458
228.5974,71.7987
228.6004,71.7965
228.6735,71.7365
228.6771,71.7332
228.7354,71.6749
228.7387,71.6713
228.7987,71.5982
228.8009,71.5952
228.8279,71.5568
228.8480,71.5280
228.8511,71.5230
228.8965,71.4381
228.8977,71.4357
228.9300,71.3664
228.9350,71.3533
228.9636,71.2590
228.9640,71.2576
228.9822,71.1897
228.9851,71.1738
228.9977,71.0454
228.9978,71.0448
229.0015,71.0021
229.0017,70.9978
229.0017,70.0000
228.3579,70.0000
228.3373,70.2354
228.2761,70.4637
228.1762,70.6778
228.1762,70.6778
228.0887,70.8028
228.0407,70.8714
227.8736,71.0385
227.8736,71.0385
227.8736,71.0385
227.8549,71.0516
227.6800,71.1740
227.6800,71.1740
227.6800,71.1740
227.6800,71.1740
227.4659,71.2739
227.4659,71.2739
227.2376,71.3351
227.2376,71.3351
227.2376,71.3351
227.0612,71.3505
227.0612,71.3505
226.9432,71.3505
226.7668,71.3351
226.7668,71.3351
226.7668,71.3351
226.5385,71.2739
226.3244,71.1740
226.1308,71.0385
225.9637,70.8714
225.8282,70.6778
225.7283,70.4637
225.6671,70.2354
225.6671,70.2354
225.6465,70.0000
225.6465,70.0000
225.6671,69.7646
225.6671,69.7646
225.6671,69.7646
225.7283,69.5363
225.8282,69.3222
225.9525,69.1446
225.9637,69.1286
225.9637,69.1286
225.9637,69.1286
226.1308,68.9615
226.1308,68.9615
226.1308,68.9615
226.3244,68.8260
226.3244,68.8260
226.5385,68.7261
226.5385,68.7261
226.6146,68.7057
226.7668,68.6649
226.7668,68.6649
226.7668,68.6649
226.9432,68.6495
226.9432,68.6495
227.0612,68.6495
227.0612,68.6495
227.2376,68.6649
227.4659,68.7261
227.6800,68.8260
227.6800,68.8260
227.8736,68.9615
228.0407,69.1286
228.1762,69.3222
228.2761,69.5363
228.3373,69.7646
228.3579,70.0000
228.3579,70.0000
229.0017,70.0000
229.0017,60.0000
223.1077,60.0000
223.0879,60.4913
223.0879,60.4913
223.0879,60.4913
223.0879,60.4913
223.0286,60.9794
223.0286,60.9794
222.9302,61.4611
222.9302,61.4611
222.7934,61.9334
222.7934,61.9334
222.6671,62.2665
222.6191,62.3931
222.4642,62.7195
222.4096,62.8346
222.4083,62.8373
222.1625,63.2632
222.1625,63.2632
221.8832,63.6678
221.5722,64.0487
221.2316,64.4033
221.2316,64.4033
221.0387,64.5742
220.8636,64.7293
220.8636,64.7293
220.4705,65.0247
220.2863,65.1412
220.0549,65.2875
220.0549,65.2875
220.0549,65.2875
220.0549,65.2875
219.6676,65.4908
219.6196,65.5160
219.1672,65.7087
218.9367,65.7857
218.7009,65.8644
218.7008,65.8644
218.7008,65.8644
218.2234,65.9821
217.7381,66.0609
217.2480,66.1005
217.2480,66.1005
216.7564,66.1005
216.7564,66.1005
216.2663,66.0609
215.7810,65.9821
215.3036,65.8644
214.8372,65.7087
214.3848,65.5160
214.0272,65.3283
213.9495,65.2875
213.9495,65.2875
213.9495,65.2875
213.5339,65.0247
213.1408,64.7293
212.7728,64.4033
212.4322,64.0487
212.1212,63.6678
211.8419,63.2632
211.5961,62.8373
211.3853,62.3931
211.2110,61.9334
211.2110,61.9334
211.2110,61.9334
211.0742,61.4611
211.0742,61.4611
211.0742,61.4611
210.9758,60.9794
210.9554,60.8113
210.9165,60.4913
210.9165,60.4913
210.9165,60.4913
210.8967,60.0000
210.9165,59.5087
210.9165,59.5087
210.9165,59.5087
210.9758,59.0206
210.9758,59.0206
211.0742,58.5389
211.0799,58.5189
211.2110,58.0666
211.2110,58.0666
211.2290,58.0189
211.3853,57.6069
211.5961,57.1627
211.8419,56.7368
211.9816,56.5345
212.1212,56.3322
212.4322,55.9513
212.7728,55.5967
212.9043,55.4802
213.0488,55.3522
213.1408,55.2707
213.1408,55.2707
213.5339,54.9753
213.8252,54.7911
213.9495,54.7125
213.9495,54.7125
213.9495,54.7125
213.9495,54.7125
214.3848,54.4840
214.3848,54.4840
214.3848,54.4840
214.3848,54.4840
214.8372,54.2913
214.8372,54.2913
214.8372,54.2913
215.3035,54.1356
215.3036,54.1356
215.6649,54.0465
215.7810,54.0179
216.2663,53.9391
216.2663,53.9391
216.5412,53.9169
216.7564,53.8995
217.2480,53.8995
217.4459,53.9155
217.7381,53.9391
218.2234,54.0179
218.7008,54.1356
218.7009,54.1356
219.1672,54.2913
219.4598,54.4160
219.6196,54.4840
219.6196,54.4840
219.6196,54.4840
219.6196,54.4840
220.0549,54.7125
220.0549,54.7125
220.4705,54.9753
220.8636,55.2707
220.8636,55.2707
221.2316,55.5967
221.5722,55.9513
221.8832,56.3322
222.1625,56.7368
222.4083,57.1627
222.6191,57.6069
222.7934,58.0666
222.7934,58.0666
222.9302,58.5389
222.9302,58.5389
223.0286,59.0206
223.0286,59.0206
223.0879,59.5087
223.0879,59.5087
223.0879,59.5087
223.0879,59.5087
223.1077,60.0000
229.0017,60.0000
229.0017,50.0000
228.3579,50.0000
228.3373,50.2354
228.2761,50.4637
228.1762,50.6778
228.1762,50.6778
228.1762,50.6778
228.1762,50.6778
228.0407,50.8714
227.8736,51.0385
227.6800,51.1740
227.6800,51.1740
227.6800,51.1740
227.6800,51.1740
227.4659,51.2739
227.4659,51.2739
227.2376,51.3351
227.2376,51.3351
227.2376,51.3351
227.0612,51.3505
227.0612,51.3505
226.9432,51.3505
226.7668,51.3351
226.7668,51.3351
226.7668,51.3351
226.5385,51.2739
226.3244,51.1740
226.1308,51.0385
225.9637,50.8714
225.8282,50.6778
225.7283,50.4637
225.6671,50.2354
225.6465,50.0000
208.3579,50.0000
208.3373,50.2354
208.2761,50.4637
208.1762,50.6778
208.1762,50.6778
208.1762,50.6778
208.1762,50.6778
208.0407,50.8714
207.8736,51.0385
207.6800,51.1740
207.6800,51.1740
207.6800,51.1740
207.6800,51.1740
207.4659,51.2739
207.4659,51.2739
207.2376,51.3351
207.2376,51.3351
207.2376,51.3351
207.0612,51.3505
207.0612,51.3505
206.9432,51.3505
206.7668,51.3351
206.7668,51.3351
206.7668,51.3351
206.5385,51.2739
206.3244,51.1740
206.1308,51.0385
205.9637,50.8714
205.8282,50.6778
205.7283,50.4637
205.6671,50.2354
205.6465,50.0000
205.6671,49.7646
205.7283,49.5363
205.8282,49.3222
205.9637,49.1286
206.1308,48.9615
206.1308,48.9615
206.1308,48.9615
206.3240,48.8262
206.3244,48.8260
206.3244,48.8260
206.3244,48.8260
206.3244,48.8260
206.5385,48.7261
206.5385,48.7261
206.6146,48.7057
206.7668,48.6649
206.7668,48.6649
206.7668,48.6649
206.9432,48.6495
206.9432,48.6495
207.0612,48.6495
207.0612,48.6495
207.2376,48.6649
207.4659,48.7261
207.6800,48.8260
207.6800,48.8260
207.8736,48.9615
208.0407,49.1286
208.1762,49.3222
208.2761,49.5363
208.3373,49.7646
208.3579,50.0000
208.3579,50.0000
225.6465,50.0000
225.6465,50.0000
225.6671,49.7646
225.7283,49.5363
225.8282,49.3222
225.9637,49.1286
226.1308,48.9615
226.1308,48.9615
226.1308,48.9615
226.3240,48.8262
226.3244,48.8260
226.3244,48.8260
226.3244,48.8260
226.3244,48.8260
226.5385,48.7261
226.5385,48.7261
226.6146,48.7057
226.7668,48.6649
226.7668,48.6649
226.7668,48.6649
226.9432,48.6495
226.9432,48.6495
227.0612,48.6495
227.0612,48.6495
227.2376,48.6649
227.4659,48.7261
227.6800,48.8260
227.6800,48.8260
227.8736,48.9615
228.0407,49.1286
228.1762,49.3222
228.2761,49.5363
228.3373,49.7646
228.3579,50.0000
228.3579,50.0000
229.0017,50.0000
229.0017,49.0022
229.0015,48.9979
228.9977,48.9545
228.9851,48.8262
228.9822,48.8103
228.9640,48.7423
228.9636,48.7410
228.9350,48.6467
228.9300,48.6336
228.9029,48.5756
228.8976,48.5643
228.8965,48.5619
228.8511,48.4770
228.8480,48.4720
228.8009,48.4048
228.7987,48.4018
228.7387,48.3287
228.7355,48.3251
228.6771,48.2667
228.6735,48.2635
228.6004,48.2035
228.5974,48.2013
228.5302,48.1542
228.5252,48.1511
228.4403,48.1057
228.4379,48.1046
228.3686,48.0722
228.3555,48.0672
228.2612,48.0386
228.2599,48.0382
228.1919,48.0200
228.1760,48.0171
228.0477,48.0045
228.0043,48.0007
228.0000,48.0005
206.0044,48.0005
Z" /> 
</g>
</g>
</g>
<g style="fill:#FFFFFF; fill-opacity:1.0000; 
stroke:#FFFFFF; stroke-width:0.0000; stroke-opacity:1; 
stroke-linecap:round; stroke-linejoin:round;">
<circle cx="210.2022" cy="63.6000" r="0.2000" /> 
</g>
<g style="fill:#FFFFFF; fill-opacity:1.0000; 
stroke:#FFFFFF; stroke-width:0.0212; stroke-opacity:1; 
stroke-linecap:round; stroke-linejoin:round;">
</g>
<g style="fill:#FFFFFF; fill-opacity:1.0000; 
stroke:#FFFFFF; stroke-width:0.0000; stroke-opacity:1; 
stroke-linecap:round; stroke-linejoin:round;">
<circle cx="223.0022" cy="52.0000" r="0.2000" /> 
</g>
<g style="fill:#FFFFFF; fill-opacity:1.0000; 
stroke:#FFFFFF; stroke-width:0.0212; stroke-opacity:1; 
stroke-linecap:round; stroke-linejoin:round;">
</g>
<g style="fill:#FFFFFF; fill-opacity:1.0000; 
stroke:#FFFFFF; stroke-width:0.0000; stroke-opacity:1; 
stroke-linecap:round; stroke-linejoin:round;">
<circle cx="207.0740" cy="58.8038" r="0.2000" /> 
</g>
<g style="fill:#FFFFFF; fill-opacity:1.0000; 
stroke:#FFFFFF; stroke-width:0.0212; stroke-opacity:1; 
stroke-linecap:round; stroke-linejoin:round;">
</g>
<g style="fill:#FFFFFF; fill-opacity:1.0000; 
stroke:#FFFFFF; stroke-width:0.0000; stroke-opacity:1; 
stroke-linecap:round; stroke-linejoin:round;">
<circle cx="226.9304" cy="61.1962" r="0.2000" /> 
</g>
<g style="fill:#FFFFFF; fill-opacity:1.0000; 
stroke:#FFFFFF; stroke-width:0.0212; stroke-opacity:1; 
stroke-linecap:round; stroke-linejoin:round;">
</g>
<g style="fill:#FFFFFF; fill-opacity:1.0000; 
stroke:#FFFFFF; stroke-width:0.0000; stroke-opacity:1; 
stroke-linecap:round; stroke-linejoin:round;">
<circle cx="220.9304" cy="69.1962" r="0.2000" /> 
</g>
<g style="fill:#FFFFFF; fill-opacity:1.0000; 
stroke:#FFFFFF; stroke-width:0.0212; stroke-opacity:1; 
stroke-linecap:round; stroke-linejoin:round;">
</g>
<g style="fill:#FFFFFF; fill-opacity:1.0000; 
stroke:#FFFFFF; stroke-width:0.0000; stroke-opacity:1; 
stroke-linecap:round; stroke-linejoin:round;">
<circle cx="215.8060" cy="69.9282" r="0.2000" /> 
</g>
<g style="fill:#FFFFFF; fill-opacity:1.0000; 
stroke:#FFFFFF; stroke-width:0.0212; stroke-opacity:1; 
stroke-linecap:round; stroke-linejoin:round;">
</g>
<g style="fill:#FFFFFF; fill-opacity:1.0000; 
stroke:#FFFFFF; stroke-width:0.0000; stroke-opacity:1; 
stroke-linecap:round; stroke-linejoin:round;">
<circle cx="213.0740" cy="50.8038" r="0.2000" /> 
</g>
<g style="fill:#FFFFFF; fill-opacity:1.0000; 
stroke:#FFFFFF; stroke-width:0.0212; stroke-opacity:1; 
stroke-linecap:round; stroke-linejoin:round;">
</g>
<g style="fill:#FFFFFF; fill-opacity:1.0000; 
stroke:#FFFFFF; stroke-width:0.0000; stroke-opacity:1; 
stroke-linecap:round; stroke-linejoin:round;">
<circle cx="225.0022" cy="66.0000" r="0.2000" /> 
</g>
<g style="fill:#FFFFFF; fill-opacity:1.0000; 
stroke:#FFFFFF; stroke-width:0.0212; stroke-opacity:1; 
stroke-linecap:round; stroke-linejoin:round;">
</g>
<g style="fill:#FFFFFF; fill-opacity:1.0000; 
stroke:#FFFFFF; stroke-width:0.0000; stroke-opacity:1; 
stroke-linecap:round; stroke-linejoin:round;">
<circle cx="211.0022" cy="67.9400" r="0.2000" /> 
</g>
<g style="fill:#FFFFFF; fill-opacity:1.0000; 
stroke:#FFFFFF; stroke-width:0.0212; stroke-opacity:1; 
stroke-linecap:round; stroke-linejoin:round;">
</g>
<g style="fill:#FFFFFF; fill-opacity:1.0000; 
stroke:#FFFFFF; stroke-width:0.0000; stroke-opacity:1; 
stroke-linecap:round; stroke-linejoin:round;">
<circle cx="226.1984" cy="56.0718" r="0.2000" /> 
</g>
<g style="fill:#FFFFFF; fill-opacity:1.0000; 
stroke:#FFFFFF; stroke-width:0.0212; stroke-opacity:1; 
stroke-linecap:round; stroke-linejoin:round;">
</g>
<g style="fill:#FFFFFF; fill-opacity:1.0000; 
stroke:#FFFFFF; stroke-width:0.0000; stroke-opacity:1; 
stroke-linecap:round; stroke-linejoin:round;">
<circle cx="209.0022" cy="54.0000" r="0.2000" /> 
</g>
<g style="fill:#FFFFFF; fill-opacity:1.0000; 
stroke:#FFFFFF; stroke-width:0.0212; stroke-opacity:1; 
stroke-linecap:round; stroke-linejoin:round;">
</g>
<g style="fill:#FFFFFF; fill-opacity:1.0000; 
stroke:#FFFFFF; stroke-width:0.0000; stroke-opacity:1; 
stroke-linecap:round; stroke-linejoin:round;">
<circle cx="208.7422" cy="66.0200" r="0.2000" /> 
</g>
<g style="fill:#FFFFFF; fill-opacity:1.0000; 
stroke:#FFFFFF; stroke-width:0.0212; stroke-opacity:1; 
stroke-linecap:round; stroke-linejoin:round;">
</g>
<g style="fill:#FFFFFF; fill-opacity:1.0000; 
stroke:#FFFFFF; stroke-width:0.0000; stroke-opacity:1; 
stroke-linecap:round; stroke-linejoin:round;">
<circle cx="218.1984" cy="50.0718" r="0.2000" /> 
</g>
<g style="fill:#FFFFFF; fill-opacity:1.0000; 
stroke:#FFFFFF; stroke-width:0.0212; stroke-opacity:1; 
stroke-linecap:round; stroke-linejoin:round;">
</g>
<g style="fill:#FFFFFF; fill-opacity:1.0000; 
stroke:#FFFFFF; stroke-width:0.0000; stroke-opacity:1; 
stroke-linecap:round; stroke-linejoin:round;">
<circle cx="206.8022" cy="61.4000" r="0.2000" /> 
</g>
<g style="fill:#FFFFFF; fill-opacity:1.0000; 
stroke:#FFFFFF; stroke-width:0.0212; stroke-opacity:1; 
stroke-linecap:round; stroke-linejoin:round;">
</g>
<g style="fill:#FFFFFF; fill-opacity:1.0000; 
stroke:#FFFFFF; stroke-width:0.0000; stroke-opacity:1; 
stroke-linecap:round; stroke-linejoin:round;">
<circle cx="214.1022" cy="71.4000" r="0.2000" /> 
</g>
<g style="fill:#FFFFFF; fill-opacity:1.0000; 
stroke:#FFFFFF; stroke-width:0.0212; stroke-opacity:1; 
stroke-linecap:round; stroke-linejoin:round;">
</g>
<g style="fill:#FFFFFF; fill-opacity:1.0000; 
stroke:#FFFFFF; stroke-width:0.0000; stroke-opacity:1; 
stroke-linecap:round; stroke-linejoin:round;">
<circle cx="206.0522" cy="61.4000" r="0.2000" /> 
</g>
<g style="fill:#FFFFFF; fill-opacity:1.0000; 
stroke:#FFFFFF; stroke-width:0.0212; stroke-opacity:1; 
stroke-linecap:round; stroke-linejoin:round;">
</g>
<g style="fill:#FFFFFF; fill-opacity:1.0000; 
stroke:#FFFFFF; stroke-width:0.0000; stroke-opacity:1; 
stroke-linecap:round; stroke-linejoin:round;">
<circle cx="206.1022" cy="64.9000" r="0.2000" /> 
</g>
<g style="fill:#FFFFFF; fill-opacity:1.0000; 
stroke:#FFFFFF; stroke-width:0.0212; stroke-opacity:1; 
stroke-linecap:round; stroke-linejoin:round;">
</g>
<g style="fill:#FFFFFF; fill-opacity:1.0000; 
stroke:#FFFFFF; stroke-width:0.0000; stroke-opacity:1; 
stroke-linecap:round; stroke-linejoin:round;">
<circle cx="206.8522" cy="64.9000" r="0.2000" /> 
</g>
<g style="fill:#FFFFFF; fill-opacity:1.0000; 
stroke:#FFFFFF; stroke-width:0.0212; stroke-opacity:1; 
stroke-linecap:round; stroke-linejoin:round;">
</g>
<g style="fill:#FFFFFF; fill-opacity:1.0000; 
stroke:#FFFFFF; stroke-width:0.0000; stroke-opacity:1; 
stroke-linecap:round; stroke-linejoin:round;">
<circle cx="212.1022" cy="71.4000" r="0.2000" /> 
</g>
<g style="fill:#FFFFFF; fill-opacity:1.0000; 
stroke:#FFFFFF; stroke-width:0.0212; stroke-opacity:1; 
stroke-linecap:round; stroke-linejoin:round;">
</g>
<g style="fill:#FFFFFF; fill-opacity:1.0000; 
stroke:#FFFFFF; stroke-width:0.0000; stroke-opacity:1; 
stroke-linecap:round; stroke-linejoin:round;">
<circle cx="211.3022" cy="70.5000" r="0.2000" /> 
</g>
<g style="fill:#FFFFFF; fill-opacity:1.0000; 
stroke:#FFFFFF; stroke-width:0.0212; stroke-opacity:1; 
stroke-linecap:round; stroke-linejoin:round;">
</g>
<g style="fill:#FFFFFF; fill-opacity:1.0000; 
stroke:#FFFFFF; stroke-width:0.0000; stroke-opacity:1; 
stroke-linecap:round; stroke-linejoin:round;">
<circle cx="213.1022" cy="71.4000" r="0.2000" /> 
</g>
<g style="fill:#FFFFFF; fill-opacity:1.0000; 
stroke:#FFFFFF; stroke-width:0.0212; stroke-opacity:1; 
stroke-linecap:round; stroke-linejoin:round;">
</g>
<g style="fill:#FFFFFF; fill-opacity:1.0000; 
stroke:#FFFFFF; stroke-width:0.0000; stroke-opacity:1; 
stroke-linecap:round; stroke-linejoin:round;">
<circle cx="209.0922" cy="61.1500" r="0.2000" /> 
</g>
<g style="fill:#FFFFFF; fill-opacity:1.0000; 
stroke:#FFFFFF; stroke-width:0.0212; stroke-opacity:1; 
stroke-linecap:round; stroke-linejoin:round;">
</g>
<g style="fill:#FFFFFF; fill-opacity:1.0000; 
stroke:#FFFFFF; stroke-width:0.0000; stroke-opacity:1; 
stroke-linecap:round; stroke-linejoin:round;">
<circle cx="207.0022" cy="50.0000" r="1.1000" /> 
</g>
<g style="fill:#FFFFFF; fill-opacity:1.0000; 
stroke:#FFFFFF; stroke-width:0.0212; stroke-opacity:1; 
stroke-linecap:round; stroke-linejoin:round;">
</g>
<g style="fill:#FFFFFF; fill-opacity:1.0000; 
stroke:#FFFFFF; stroke-width:0.0000; stroke-opacity:1; 
stroke-linecap:round; stroke-linejoin:round;">
<circle cx="227.0022" cy="50.0000" r="1.1000" /> 
</g>
<g style="fill:#FFFFFF; fill-opacity:1.0000; 
stroke:#FFFFFF; stroke-width:0.0212; stroke-opacity:1; 
stroke-linecap:round; stroke-linejoin:round;">
</g>
<g style="fill:#FFFFFF; fill-opacity:1.0000; 
stroke:#FFFFFF; stroke-width:0.0000; stroke-opacity:1; 
stroke-linecap:round; stroke-linejoin:round;">
<circle cx="227.0022" cy="70.0000" r="1.1000" /> 
</g>
<g style="fill:#FFFFFF; fill-opacity:1.0000; 
stroke:#FFFFFF; stroke-width:0.0212; stroke-opacity:1; 
stroke-linecap:round; stroke-linejoin:round;">
</g>
<g style="fill:#000000; fill-opacity:1.0000; 
stroke:#000000; stroke-width:0.0212; stroke-opacity:1; 
stroke-linecap:round; stroke-linejoin:round;">
</g> 
</svg>
