<?xml version="1.0" standalone="no"?>
 <!DOCTYPE svg PUBLIC "-//W3C//DTD SVG 1.1//EN" 
 "http://www.w3.org/Graphics/SVG/1.1/DTD/svg11.dtd"> 
<svg
  xmlns:svg="http://www.w3.org/2000/svg"
  xmlns="http://www.w3.org/2000/svg"
  xmlns:xlink="http://www.w3.org/1999/xlink"
  version="1.1"
  width="297.0022mm" height="210.0072mm" viewBox="0.0000 0.0000 297.0022 210.0072">
<title>SVG Image created as pedalboard-led-ring-B_Silkscreen.svg date 2023/05/31 21:04:28 </title>
  <desc>Image generated by PCBNEW </desc>
<g style="fill:#000000; fill-opacity:1.0000;stroke:#000000; stroke-opacity:1.0000;
stroke-linecap:round; stroke-linejoin:round;"
 transform="translate(0 0) scale(1 1)">
</g>
<g style="fill:#000000; fill-opacity:0.0; 
stroke:#000000; stroke-width:0.0000; stroke-opacity:1; 
stroke-linecap:round; stroke-linejoin:round;">
</g>
<g style="fill:#000000; fill-opacity:0.0; 
stroke:#000000; stroke-width:0.1000; stroke-opacity:1; 
stroke-linecap:round; stroke-linejoin:round;">
<circle cx="217.0022" cy="60.0000" r="7.0500" /> 
</g>
<g style="fill:#000000; fill-opacity:0.0; 
stroke:#000000; stroke-width:0.1500; stroke-opacity:1; 
stroke-linecap:round; stroke-linejoin:round;">
<text x="230.5022" y="47.7800"
transform="scale(-1 1) translate(-461.004400 0)"
textLength="19.6512" font-size="1.3333" lengthAdjust="spacingAndGlyphs"
text-anchor="end" opacity="0">Pedalboard neopixel Ring</text>
<g class="stroked-text"><desc>Pedalboard neopixel Ring</desc>
<path d="M211.1654 47.6498
L211.1654 46.6498
" />
<path d="M211.1654 46.6498
L211.5464 46.6498
" />
<path d="M211.5464 46.6498
L211.6416 46.6974
" />
<path d="M211.6416 46.6974
L211.6892 46.7451
" />
<path d="M211.6892 46.7451
L211.7368 46.8403
" />
<path d="M211.7368 46.8403
L211.7368 46.9832
" />
<path d="M211.7368 46.9832
L211.6892 47.0784
" />
<path d="M211.6892 47.0784
L211.6416 47.1260
" />
<path d="M211.6416 47.1260
L211.5464 47.1736
" />
<path d="M211.5464 47.1736
L211.1654 47.1736
" />
<path d="M212.5464 47.6022
L212.4511 47.6498
" />
<path d="M212.4511 47.6498
L212.2607 47.6498
" />
<path d="M212.2607 47.6498
L212.1654 47.6022
" />
<path d="M212.1654 47.6022
L212.1178 47.5070
" />
<path d="M212.1178 47.5070
L212.1178 47.1260
" />
<path d="M212.1178 47.1260
L212.1654 47.0308
" />
<path d="M212.1654 47.0308
L212.2607 46.9832
" />
<path d="M212.2607 46.9832
L212.4511 46.9832
" />
<path d="M212.4511 46.9832
L212.5464 47.0308
" />
<path d="M212.5464 47.0308
L212.5940 47.1260
" />
<path d="M212.5940 47.1260
L212.5940 47.2212
" />
<path d="M212.5940 47.2212
L212.1178 47.3165
" />
<path d="M213.4511 47.6498
L213.4511 46.6498
" />
<path d="M213.4511 47.6022
L213.3559 47.6498
" />
<path d="M213.3559 47.6498
L213.1654 47.6498
" />
<path d="M213.1654 47.6498
L213.0702 47.6022
" />
<path d="M213.0702 47.6022
L213.0226 47.5546
" />
<path d="M213.0226 47.5546
L212.9749 47.4593
" />
<path d="M212.9749 47.4593
L212.9749 47.1736
" />
<path d="M212.9749 47.1736
L213.0226 47.0784
" />
<path d="M213.0226 47.0784
L213.0702 47.0308
" />
<path d="M213.0702 47.0308
L213.1654 46.9832
" />
<path d="M213.1654 46.9832
L213.3559 46.9832
" />
<path d="M213.3559 46.9832
L213.4511 47.0308
" />
<path d="M214.3559 47.6498
L214.3559 47.1260
" />
<path d="M214.3559 47.1260
L214.3083 47.0308
" />
<path d="M214.3083 47.0308
L214.2130 46.9832
" />
<path d="M214.2130 46.9832
L214.0226 46.9832
" />
<path d="M214.0226 46.9832
L213.9273 47.0308
" />
<path d="M214.3559 47.6022
L214.2607 47.6498
" />
<path d="M214.2607 47.6498
L214.0226 47.6498
" />
<path d="M214.0226 47.6498
L213.9273 47.6022
" />
<path d="M213.9273 47.6022
L213.8797 47.5070
" />
<path d="M213.8797 47.5070
L213.8797 47.4117
" />
<path d="M213.8797 47.4117
L213.9273 47.3165
" />
<path d="M213.9273 47.3165
L214.0226 47.2689
" />
<path d="M214.0226 47.2689
L214.2607 47.2689
" />
<path d="M214.2607 47.2689
L214.3559 47.2212
" />
<path d="M214.9749 47.6498
L214.8797 47.6022
" />
<path d="M214.8797 47.6022
L214.8321 47.5070
" />
<path d="M214.8321 47.5070
L214.8321 46.6498
" />
<path d="M215.3559 47.6498
L215.3559 46.6498
" />
<path d="M215.3559 47.0308
L215.4511 46.9832
" />
<path d="M215.4511 46.9832
L215.6416 46.9832
" />
<path d="M215.6416 46.9832
L215.7368 47.0308
" />
<path d="M215.7368 47.0308
L215.7845 47.0784
" />
<path d="M215.7845 47.0784
L215.8321 47.1736
" />
<path d="M215.8321 47.1736
L215.8321 47.4593
" />
<path d="M215.8321 47.4593
L215.7845 47.5546
" />
<path d="M215.7845 47.5546
L215.7368 47.6022
" />
<path d="M215.7368 47.6022
L215.6416 47.6498
" />
<path d="M215.6416 47.6498
L215.4511 47.6498
" />
<path d="M215.4511 47.6498
L215.3559 47.6022
" />
<path d="M216.4035 47.6498
L216.3083 47.6022
" />
<path d="M216.3083 47.6022
L216.2607 47.5546
" />
<path d="M216.2607 47.5546
L216.2130 47.4593
" />
<path d="M216.2130 47.4593
L216.2130 47.1736
" />
<path d="M216.2130 47.1736
L216.2607 47.0784
" />
<path d="M216.2607 47.0784
L216.3083 47.0308
" />
<path d="M216.3083 47.0308
L216.4035 46.9832
" />
<path d="M216.4035 46.9832
L216.5464 46.9832
" />
<path d="M216.5464 46.9832
L216.6416 47.0308
" />
<path d="M216.6416 47.0308
L216.6892 47.0784
" />
<path d="M216.6892 47.0784
L216.7368 47.1736
" />
<path d="M216.7368 47.1736
L216.7368 47.4593
" />
<path d="M216.7368 47.4593
L216.6892 47.5546
" />
<path d="M216.6892 47.5546
L216.6416 47.6022
" />
<path d="M216.6416 47.6022
L216.5464 47.6498
" />
<path d="M216.5464 47.6498
L216.4035 47.6498
" />
<path d="M217.5940 47.6498
L217.5940 47.1260
" />
<path d="M217.5940 47.1260
L217.5464 47.0308
" />
<path d="M217.5464 47.0308
L217.4511 46.9832
" />
<path d="M217.4511 46.9832
L217.2607 46.9832
" />
<path d="M217.2607 46.9832
L217.1654 47.0308
" />
<path d="M217.5940 47.6022
L217.4988 47.6498
" />
<path d="M217.4988 47.6498
L217.2607 47.6498
" />
<path d="M217.2607 47.6498
L217.1654 47.6022
" />
<path d="M217.1654 47.6022
L217.1178 47.5070
" />
<path d="M217.1178 47.5070
L217.1178 47.4117
" />
<path d="M217.1178 47.4117
L217.1654 47.3165
" />
<path d="M217.1654 47.3165
L217.2607 47.2689
" />
<path d="M217.2607 47.2689
L217.4988 47.2689
" />
<path d="M217.4988 47.2689
L217.5940 47.2212
" />
<path d="M218.0702 47.6498
L218.0702 46.9832
" />
<path d="M218.0702 47.1736
L218.1178 47.0784
" />
<path d="M218.1178 47.0784
L218.1654 47.0308
" />
<path d="M218.1654 47.0308
L218.2607 46.9832
" />
<path d="M218.2607 46.9832
L218.3559 46.9832
" />
<path d="M219.1178 47.6498
L219.1178 46.6498
" />
<path d="M219.1178 47.6022
L219.0226 47.6498
" />
<path d="M219.0226 47.6498
L218.8321 47.6498
" />
<path d="M218.8321 47.6498
L218.7368 47.6022
" />
<path d="M218.7368 47.6022
L218.6892 47.5546
" />
<path d="M218.6892 47.5546
L218.6416 47.4593
" />
<path d="M218.6416 47.4593
L218.6416 47.1736
" />
<path d="M218.6416 47.1736
L218.6892 47.0784
" />
<path d="M218.6892 47.0784
L218.7368 47.0308
" />
<path d="M218.7368 47.0308
L218.8321 46.9832
" />
<path d="M218.8321 46.9832
L219.0226 46.9832
" />
<path d="M219.0226 46.9832
L219.1178 47.0308
" />
<path d="M220.3559 46.9832
L220.3559 47.6498
" />
<path d="M220.3559 47.0784
L220.4035 47.0308
" />
<path d="M220.4035 47.0308
L220.4988 46.9832
" />
<path d="M220.4988 46.9832
L220.6416 46.9832
" />
<path d="M220.6416 46.9832
L220.7368 47.0308
" />
<path d="M220.7368 47.0308
L220.7845 47.1260
" />
<path d="M220.7845 47.1260
L220.7845 47.6498
" />
<path d="M221.6416 47.6022
L221.5464 47.6498
" />
<path d="M221.5464 47.6498
L221.3559 47.6498
" />
<path d="M221.3559 47.6498
L221.2607 47.6022
" />
<path d="M221.2607 47.6022
L221.2130 47.5070
" />
<path d="M221.2130 47.5070
L221.2130 47.1260
" />
<path d="M221.2130 47.1260
L221.2607 47.0308
" />
<path d="M221.2607 47.0308
L221.3559 46.9832
" />
<path d="M221.3559 46.9832
L221.5464 46.9832
" />
<path d="M221.5464 46.9832
L221.6416 47.0308
" />
<path d="M221.6416 47.0308
L221.6892 47.1260
" />
<path d="M221.6892 47.1260
L221.6892 47.2212
" />
<path d="M221.6892 47.2212
L221.2130 47.3165
" />
<path d="M222.2607 47.6498
L222.1654 47.6022
" />
<path d="M222.1654 47.6022
L222.1178 47.5546
" />
<path d="M222.1178 47.5546
L222.0702 47.4593
" />
<path d="M222.0702 47.4593
L222.0702 47.1736
" />
<path d="M222.0702 47.1736
L222.1178 47.0784
" />
<path d="M222.1178 47.0784
L222.1654 47.0308
" />
<path d="M222.1654 47.0308
L222.2607 46.9832
" />
<path d="M222.2607 46.9832
L222.4035 46.9832
" />
<path d="M222.4035 46.9832
L222.4988 47.0308
" />
<path d="M222.4988 47.0308
L222.5464 47.0784
" />
<path d="M222.5464 47.0784
L222.5940 47.1736
" />
<path d="M222.5940 47.1736
L222.5940 47.4593
" />
<path d="M222.5940 47.4593
L222.5464 47.5546
" />
<path d="M222.5464 47.5546
L222.4988 47.6022
" />
<path d="M222.4988 47.6022
L222.4035 47.6498
" />
<path d="M222.4035 47.6498
L222.2607 47.6498
" />
<path d="M223.0226 46.9832
L223.0226 47.9832
" />
<path d="M223.0226 47.0308
L223.1178 46.9832
" />
<path d="M223.1178 46.9832
L223.3083 46.9832
" />
<path d="M223.3083 46.9832
L223.4035 47.0308
" />
<path d="M223.4035 47.0308
L223.4511 47.0784
" />
<path d="M223.4511 47.0784
L223.4988 47.1736
" />
<path d="M223.4988 47.1736
L223.4988 47.4593
" />
<path d="M223.4988 47.4593
L223.4511 47.5546
" />
<path d="M223.4511 47.5546
L223.4035 47.6022
" />
<path d="M223.4035 47.6022
L223.3083 47.6498
" />
<path d="M223.3083 47.6498
L223.1178 47.6498
" />
<path d="M223.1178 47.6498
L223.0226 47.6022
" />
<path d="M223.9273 47.6498
L223.9273 46.9832
" />
<path d="M223.9273 46.6498
L223.8797 46.6974
" />
<path d="M223.8797 46.6974
L223.9273 46.7451
" />
<path d="M223.9273 46.7451
L223.9749 46.6974
" />
<path d="M223.9749 46.6974
L223.9273 46.6498
" />
<path d="M223.9273 46.6498
L223.9273 46.7451
" />
<path d="M224.3083 47.6498
L224.8321 46.9832
" />
<path d="M224.3083 46.9832
L224.8321 47.6498
" />
<path d="M225.5940 47.6022
L225.4988 47.6498
" />
<path d="M225.4988 47.6498
L225.3083 47.6498
" />
<path d="M225.3083 47.6498
L225.2130 47.6022
" />
<path d="M225.2130 47.6022
L225.1654 47.5070
" />
<path d="M225.1654 47.5070
L225.1654 47.1260
" />
<path d="M225.1654 47.1260
L225.2130 47.0308
" />
<path d="M225.2130 47.0308
L225.3083 46.9832
" />
<path d="M225.3083 46.9832
L225.4988 46.9832
" />
<path d="M225.4988 46.9832
L225.5940 47.0308
" />
<path d="M225.5940 47.0308
L225.6416 47.1260
" />
<path d="M225.6416 47.1260
L225.6416 47.2212
" />
<path d="M225.6416 47.2212
L225.1654 47.3165
" />
<path d="M226.2130 47.6498
L226.1178 47.6022
" />
<path d="M226.1178 47.6022
L226.0702 47.5070
" />
<path d="M226.0702 47.5070
L226.0702 46.6498
" />
<path d="M227.9273 47.6498
L227.5940 47.1736
" />
<path d="M227.3559 47.6498
L227.3559 46.6498
" />
<path d="M227.3559 46.6498
L227.7368 46.6498
" />
<path d="M227.7368 46.6498
L227.8321 46.6974
" />
<path d="M227.8321 46.6974
L227.8797 46.7451
" />
<path d="M227.8797 46.7451
L227.9273 46.8403
" />
<path d="M227.9273 46.8403
L227.9273 46.9832
" />
<path d="M227.9273 46.9832
L227.8797 47.0784
" />
<path d="M227.8797 47.0784
L227.8321 47.1260
" />
<path d="M227.8321 47.1260
L227.7368 47.1736
" />
<path d="M227.7368 47.1736
L227.3559 47.1736
" />
<path d="M228.3559 47.6498
L228.3559 46.9832
" />
<path d="M228.3559 46.6498
L228.3083 46.6974
" />
<path d="M228.3083 46.6974
L228.3559 46.7451
" />
<path d="M228.3559 46.7451
L228.4035 46.6974
" />
<path d="M228.4035 46.6974
L228.3559 46.6498
" />
<path d="M228.3559 46.6498
L228.3559 46.7451
" />
<path d="M228.8321 46.9832
L228.8321 47.6498
" />
<path d="M228.8321 47.0784
L228.8797 47.0308
" />
<path d="M228.8797 47.0308
L228.9749 46.9832
" />
<path d="M228.9749 46.9832
L229.1178 46.9832
" />
<path d="M229.1178 46.9832
L229.2130 47.0308
" />
<path d="M229.2130 47.0308
L229.2607 47.1260
" />
<path d="M229.2607 47.1260
L229.2607 47.6498
" />
<path d="M230.1654 46.9832
L230.1654 47.7927
" />
<path d="M230.1654 47.7927
L230.1178 47.8879
" />
<path d="M230.1178 47.8879
L230.0702 47.9355
" />
<path d="M230.0702 47.9355
L229.9749 47.9832
" />
<path d="M229.9749 47.9832
L229.8321 47.9832
" />
<path d="M229.8321 47.9832
L229.7368 47.9355
" />
<path d="M230.1654 47.6022
L230.0702 47.6498
" />
<path d="M230.0702 47.6498
L229.8797 47.6498
" />
<path d="M229.8797 47.6498
L229.7845 47.6022
" />
<path d="M229.7845 47.6022
L229.7368 47.5546
" />
<path d="M229.7368 47.5546
L229.6892 47.4593
" />
<path d="M229.6892 47.4593
L229.6892 47.1736
" />
<path d="M229.6892 47.1736
L229.7368 47.0784
" />
<path d="M229.7368 47.0784
L229.7845 47.0308
" />
<path d="M229.7845 47.0308
L229.8797 46.9832
" />
<path d="M229.8797 46.9832
L230.0702 46.9832
" />
<path d="M230.0702 46.9832
L230.1654 47.0308
" />
</g><text x="230.5022" y="49.3900"
transform="scale(-1 1) translate(-461.004400 0)"
textLength="24.1274" font-size="1.3333" lengthAdjust="spacingAndGlyphs"
text-anchor="end" opacity="0">https://github.com/pedalboard</text>
<g class="stroked-text"><desc>https://github.com/pedalboard</desc>
<path d="M206.6892 49.2598
L206.6892 48.2598
" />
<path d="M207.1178 49.2598
L207.1178 48.7360
" />
<path d="M207.1178 48.7360
L207.0702 48.6408
" />
<path d="M207.0702 48.6408
L206.9749 48.5932
" />
<path d="M206.9749 48.5932
L206.8321 48.5932
" />
<path d="M206.8321 48.5932
L206.7368 48.6408
" />
<path d="M206.7368 48.6408
L206.6892 48.6884
" />
<path d="M207.4511 48.5932
L207.8321 48.5932
" />
<path d="M207.5940 48.2598
L207.5940 49.1170
" />
<path d="M207.5940 49.1170
L207.6416 49.2122
" />
<path d="M207.6416 49.2122
L207.7368 49.2598
" />
<path d="M207.7368 49.2598
L207.8321 49.2598
" />
<path d="M208.0226 48.5932
L208.4035 48.5932
" />
<path d="M208.1654 48.2598
L208.1654 49.1170
" />
<path d="M208.1654 49.1170
L208.2130 49.2122
" />
<path d="M208.2130 49.2122
L208.3083 49.2598
" />
<path d="M208.3083 49.2598
L208.4035 49.2598
" />
<path d="M208.7368 48.5932
L208.7368 49.5932
" />
<path d="M208.7368 48.6408
L208.8321 48.5932
" />
<path d="M208.8321 48.5932
L209.0226 48.5932
" />
<path d="M209.0226 48.5932
L209.1178 48.6408
" />
<path d="M209.1178 48.6408
L209.1654 48.6884
" />
<path d="M209.1654 48.6884
L209.2130 48.7836
" />
<path d="M209.2130 48.7836
L209.2130 49.0693
" />
<path d="M209.2130 49.0693
L209.1654 49.1646
" />
<path d="M209.1654 49.1646
L209.1178 49.2122
" />
<path d="M209.1178 49.2122
L209.0226 49.2598
" />
<path d="M209.0226 49.2598
L208.8321 49.2598
" />
<path d="M208.8321 49.2598
L208.7368 49.2122
" />
<path d="M209.5940 49.2122
L209.6892 49.2598
" />
<path d="M209.6892 49.2598
L209.8797 49.2598
" />
<path d="M209.8797 49.2598
L209.9749 49.2122
" />
<path d="M209.9749 49.2122
L210.0226 49.1170
" />
<path d="M210.0226 49.1170
L210.0226 49.0693
" />
<path d="M210.0226 49.0693
L209.9749 48.9741
" />
<path d="M209.9749 48.9741
L209.8797 48.9265
" />
<path d="M209.8797 48.9265
L209.7368 48.9265
" />
<path d="M209.7368 48.9265
L209.6416 48.8789
" />
<path d="M209.6416 48.8789
L209.5940 48.7836
" />
<path d="M209.5940 48.7836
L209.5940 48.7360
" />
<path d="M209.5940 48.7360
L209.6416 48.6408
" />
<path d="M209.6416 48.6408
L209.7368 48.5932
" />
<path d="M209.7368 48.5932
L209.8797 48.5932
" />
<path d="M209.8797 48.5932
L209.9749 48.6408
" />
<path d="M210.4511 49.1646
L210.4988 49.2122
" />
<path d="M210.4988 49.2122
L210.4511 49.2598
" />
<path d="M210.4511 49.2598
L210.4035 49.2122
" />
<path d="M210.4035 49.2122
L210.4511 49.1646
" />
<path d="M210.4511 49.1646
L210.4511 49.2598
" />
<path d="M210.4511 48.6408
L210.4988 48.6884
" />
<path d="M210.4988 48.6884
L210.4511 48.7360
" />
<path d="M210.4511 48.7360
L210.4035 48.6884
" />
<path d="M210.4035 48.6884
L210.4511 48.6408
" />
<path d="M210.4511 48.6408
L210.4511 48.7360
" />
<path d="M211.6416 48.2122
L210.7845 49.4979
" />
<path d="M212.6892 48.2122
L211.8321 49.4979
" />
<path d="M213.4511 48.5932
L213.4511 49.4027
" />
<path d="M213.4511 49.4027
L213.4035 49.4979
" />
<path d="M213.4035 49.4979
L213.3559 49.5455
" />
<path d="M213.3559 49.5455
L213.2607 49.5932
" />
<path d="M213.2607 49.5932
L213.1178 49.5932
" />
<path d="M213.1178 49.5932
L213.0226 49.5455
" />
<path d="M213.4511 49.2122
L213.3559 49.2598
" />
<path d="M213.3559 49.2598
L213.1654 49.2598
" />
<path d="M213.1654 49.2598
L213.0702 49.2122
" />
<path d="M213.0702 49.2122
L213.0226 49.1646
" />
<path d="M213.0226 49.1646
L212.9749 49.0693
" />
<path d="M212.9749 49.0693
L212.9749 48.7836
" />
<path d="M212.9749 48.7836
L213.0226 48.6884
" />
<path d="M213.0226 48.6884
L213.0702 48.6408
" />
<path d="M213.0702 48.6408
L213.1654 48.5932
" />
<path d="M213.1654 48.5932
L213.3559 48.5932
" />
<path d="M213.3559 48.5932
L213.4511 48.6408
" />
<path d="M213.9273 49.2598
L213.9273 48.5932
" />
<path d="M213.9273 48.2598
L213.8797 48.3074
" />
<path d="M213.8797 48.3074
L213.9273 48.3551
" />
<path d="M213.9273 48.3551
L213.9749 48.3074
" />
<path d="M213.9749 48.3074
L213.9273 48.2598
" />
<path d="M213.9273 48.2598
L213.9273 48.3551
" />
<path d="M214.2607 48.5932
L214.6416 48.5932
" />
<path d="M214.4035 48.2598
L214.4035 49.1170
" />
<path d="M214.4035 49.1170
L214.4511 49.2122
" />
<path d="M214.4511 49.2122
L214.5464 49.2598
" />
<path d="M214.5464 49.2598
L214.6416 49.2598
" />
<path d="M214.9749 49.2598
L214.9749 48.2598
" />
<path d="M215.4035 49.2598
L215.4035 48.7360
" />
<path d="M215.4035 48.7360
L215.3559 48.6408
" />
<path d="M215.3559 48.6408
L215.2607 48.5932
" />
<path d="M215.2607 48.5932
L215.1178 48.5932
" />
<path d="M215.1178 48.5932
L215.0226 48.6408
" />
<path d="M215.0226 48.6408
L214.9749 48.6884
" />
<path d="M216.3083 48.5932
L216.3083 49.2598
" />
<path d="M215.8797 48.5932
L215.8797 49.1170
" />
<path d="M215.8797 49.1170
L215.9273 49.2122
" />
<path d="M215.9273 49.2122
L216.0226 49.2598
" />
<path d="M216.0226 49.2598
L216.1654 49.2598
" />
<path d="M216.1654 49.2598
L216.2607 49.2122
" />
<path d="M216.2607 49.2122
L216.3083 49.1646
" />
<path d="M216.7845 49.2598
L216.7845 48.2598
" />
<path d="M216.7845 48.6408
L216.8797 48.5932
" />
<path d="M216.8797 48.5932
L217.0702 48.5932
" />
<path d="M217.0702 48.5932
L217.1654 48.6408
" />
<path d="M217.1654 48.6408
L217.2130 48.6884
" />
<path d="M217.2130 48.6884
L217.2607 48.7836
" />
<path d="M217.2607 48.7836
L217.2607 49.0693
" />
<path d="M217.2607 49.0693
L217.2130 49.1646
" />
<path d="M217.2130 49.1646
L217.1654 49.2122
" />
<path d="M217.1654 49.2122
L217.0702 49.2598
" />
<path d="M217.0702 49.2598
L216.8797 49.2598
" />
<path d="M216.8797 49.2598
L216.7845 49.2122
" />
<path d="M217.6892 49.1646
L217.7368 49.2122
" />
<path d="M217.7368 49.2122
L217.6892 49.2598
" />
<path d="M217.6892 49.2598
L217.6416 49.2122
" />
<path d="M217.6416 49.2122
L217.6892 49.1646
" />
<path d="M217.6892 49.1646
L217.6892 49.2598
" />
<path d="M218.5940 49.2122
L218.4988 49.2598
" />
<path d="M218.4988 49.2598
L218.3083 49.2598
" />
<path d="M218.3083 49.2598
L218.2130 49.2122
" />
<path d="M218.2130 49.2122
L218.1654 49.1646
" />
<path d="M218.1654 49.1646
L218.1178 49.0693
" />
<path d="M218.1178 49.0693
L218.1178 48.7836
" />
<path d="M218.1178 48.7836
L218.1654 48.6884
" />
<path d="M218.1654 48.6884
L218.2130 48.6408
" />
<path d="M218.2130 48.6408
L218.3083 48.5932
" />
<path d="M218.3083 48.5932
L218.4988 48.5932
" />
<path d="M218.4988 48.5932
L218.5940 48.6408
" />
<path d="M219.1654 49.2598
L219.0702 49.2122
" />
<path d="M219.0702 49.2122
L219.0226 49.1646
" />
<path d="M219.0226 49.1646
L218.9749 49.0693
" />
<path d="M218.9749 49.0693
L218.9749 48.7836
" />
<path d="M218.9749 48.7836
L219.0226 48.6884
" />
<path d="M219.0226 48.6884
L219.0702 48.6408
" />
<path d="M219.0702 48.6408
L219.1654 48.5932
" />
<path d="M219.1654 48.5932
L219.3083 48.5932
" />
<path d="M219.3083 48.5932
L219.4035 48.6408
" />
<path d="M219.4035 48.6408
L219.4511 48.6884
" />
<path d="M219.4511 48.6884
L219.4988 48.7836
" />
<path d="M219.4988 48.7836
L219.4988 49.0693
" />
<path d="M219.4988 49.0693
L219.4511 49.1646
" />
<path d="M219.4511 49.1646
L219.4035 49.2122
" />
<path d="M219.4035 49.2122
L219.3083 49.2598
" />
<path d="M219.3083 49.2598
L219.1654 49.2598
" />
<path d="M219.9273 49.2598
L219.9273 48.5932
" />
<path d="M219.9273 48.6884
L219.9749 48.6408
" />
<path d="M219.9749 48.6408
L220.0702 48.5932
" />
<path d="M220.0702 48.5932
L220.2130 48.5932
" />
<path d="M220.2130 48.5932
L220.3083 48.6408
" />
<path d="M220.3083 48.6408
L220.3559 48.7360
" />
<path d="M220.3559 48.7360
L220.3559 49.2598
" />
<path d="M220.3559 48.7360
L220.4035 48.6408
" />
<path d="M220.4035 48.6408
L220.4988 48.5932
" />
<path d="M220.4988 48.5932
L220.6416 48.5932
" />
<path d="M220.6416 48.5932
L220.7368 48.6408
" />
<path d="M220.7368 48.6408
L220.7845 48.7360
" />
<path d="M220.7845 48.7360
L220.7845 49.2598
" />
<path d="M221.9749 48.2122
L221.1178 49.4979
" />
<path d="M222.3083 48.5932
L222.3083 49.5932
" />
<path d="M222.3083 48.6408
L222.4035 48.5932
" />
<path d="M222.4035 48.5932
L222.5940 48.5932
" />
<path d="M222.5940 48.5932
L222.6892 48.6408
" />
<path d="M222.6892 48.6408
L222.7368 48.6884
" />
<path d="M222.7368 48.6884
L222.7845 48.7836
" />
<path d="M222.7845 48.7836
L222.7845 49.0693
" />
<path d="M222.7845 49.0693
L222.7368 49.1646
" />
<path d="M222.7368 49.1646
L222.6892 49.2122
" />
<path d="M222.6892 49.2122
L222.5940 49.2598
" />
<path d="M222.5940 49.2598
L222.4035 49.2598
" />
<path d="M222.4035 49.2598
L222.3083 49.2122
" />
<path d="M223.5940 49.2122
L223.4988 49.2598
" />
<path d="M223.4988 49.2598
L223.3083 49.2598
" />
<path d="M223.3083 49.2598
L223.2130 49.2122
" />
<path d="M223.2130 49.2122
L223.1654 49.1170
" />
<path d="M223.1654 49.1170
L223.1654 48.7360
" />
<path d="M223.1654 48.7360
L223.2130 48.6408
" />
<path d="M223.2130 48.6408
L223.3083 48.5932
" />
<path d="M223.3083 48.5932
L223.4988 48.5932
" />
<path d="M223.4988 48.5932
L223.5940 48.6408
" />
<path d="M223.5940 48.6408
L223.6416 48.7360
" />
<path d="M223.6416 48.7360
L223.6416 48.8312
" />
<path d="M223.6416 48.8312
L223.1654 48.9265
" />
<path d="M224.4988 49.2598
L224.4988 48.2598
" />
<path d="M224.4988 49.2122
L224.4035 49.2598
" />
<path d="M224.4035 49.2598
L224.2130 49.2598
" />
<path d="M224.2130 49.2598
L224.1178 49.2122
" />
<path d="M224.1178 49.2122
L224.0702 49.1646
" />
<path d="M224.0702 49.1646
L224.0226 49.0693
" />
<path d="M224.0226 49.0693
L224.0226 48.7836
" />
<path d="M224.0226 48.7836
L224.0702 48.6884
" />
<path d="M224.0702 48.6884
L224.1178 48.6408
" />
<path d="M224.1178 48.6408
L224.2130 48.5932
" />
<path d="M224.2130 48.5932
L224.4035 48.5932
" />
<path d="M224.4035 48.5932
L224.4988 48.6408
" />
<path d="M225.4035 49.2598
L225.4035 48.7360
" />
<path d="M225.4035 48.7360
L225.3559 48.6408
" />
<path d="M225.3559 48.6408
L225.2607 48.5932
" />
<path d="M225.2607 48.5932
L225.0702 48.5932
" />
<path d="M225.0702 48.5932
L224.9749 48.6408
" />
<path d="M225.4035 49.2122
L225.3083 49.2598
" />
<path d="M225.3083 49.2598
L225.0702 49.2598
" />
<path d="M225.0702 49.2598
L224.9749 49.2122
" />
<path d="M224.9749 49.2122
L224.9273 49.1170
" />
<path d="M224.9273 49.1170
L224.9273 49.0217
" />
<path d="M224.9273 49.0217
L224.9749 48.9265
" />
<path d="M224.9749 48.9265
L225.0702 48.8789
" />
<path d="M225.0702 48.8789
L225.3083 48.8789
" />
<path d="M225.3083 48.8789
L225.4035 48.8312
" />
<path d="M226.0226 49.2598
L225.9273 49.2122
" />
<path d="M225.9273 49.2122
L225.8797 49.1170
" />
<path d="M225.8797 49.1170
L225.8797 48.2598
" />
<path d="M226.4035 49.2598
L226.4035 48.2598
" />
<path d="M226.4035 48.6408
L226.4988 48.5932
" />
<path d="M226.4988 48.5932
L226.6892 48.5932
" />
<path d="M226.6892 48.5932
L226.7845 48.6408
" />
<path d="M226.7845 48.6408
L226.8321 48.6884
" />
<path d="M226.8321 48.6884
L226.8797 48.7836
" />
<path d="M226.8797 48.7836
L226.8797 49.0693
" />
<path d="M226.8797 49.0693
L226.8321 49.1646
" />
<path d="M226.8321 49.1646
L226.7845 49.2122
" />
<path d="M226.7845 49.2122
L226.6892 49.2598
" />
<path d="M226.6892 49.2598
L226.4988 49.2598
" />
<path d="M226.4988 49.2598
L226.4035 49.2122
" />
<path d="M227.4511 49.2598
L227.3559 49.2122
" />
<path d="M227.3559 49.2122
L227.3083 49.1646
" />
<path d="M227.3083 49.1646
L227.2607 49.0693
" />
<path d="M227.2607 49.0693
L227.2607 48.7836
" />
<path d="M227.2607 48.7836
L227.3083 48.6884
" />
<path d="M227.3083 48.6884
L227.3559 48.6408
" />
<path d="M227.3559 48.6408
L227.4511 48.5932
" />
<path d="M227.4511 48.5932
L227.5940 48.5932
" />
<path d="M227.5940 48.5932
L227.6892 48.6408
" />
<path d="M227.6892 48.6408
L227.7368 48.6884
" />
<path d="M227.7368 48.6884
L227.7845 48.7836
" />
<path d="M227.7845 48.7836
L227.7845 49.0693
" />
<path d="M227.7845 49.0693
L227.7368 49.1646
" />
<path d="M227.7368 49.1646
L227.6892 49.2122
" />
<path d="M227.6892 49.2122
L227.5940 49.2598
" />
<path d="M227.5940 49.2598
L227.4511 49.2598
" />
<path d="M228.6416 49.2598
L228.6416 48.7360
" />
<path d="M228.6416 48.7360
L228.5940 48.6408
" />
<path d="M228.5940 48.6408
L228.4988 48.5932
" />
<path d="M228.4988 48.5932
L228.3083 48.5932
" />
<path d="M228.3083 48.5932
L228.2130 48.6408
" />
<path d="M228.6416 49.2122
L228.5464 49.2598
" />
<path d="M228.5464 49.2598
L228.3083 49.2598
" />
<path d="M228.3083 49.2598
L228.2130 49.2122
" />
<path d="M228.2130 49.2122
L228.1654 49.1170
" />
<path d="M228.1654 49.1170
L228.1654 49.0217
" />
<path d="M228.1654 49.0217
L228.2130 48.9265
" />
<path d="M228.2130 48.9265
L228.3083 48.8789
" />
<path d="M228.3083 48.8789
L228.5464 48.8789
" />
<path d="M228.5464 48.8789
L228.6416 48.8312
" />
<path d="M229.1178 49.2598
L229.1178 48.5932
" />
<path d="M229.1178 48.7836
L229.1654 48.6884
" />
<path d="M229.1654 48.6884
L229.2130 48.6408
" />
<path d="M229.2130 48.6408
L229.3083 48.5932
" />
<path d="M229.3083 48.5932
L229.4035 48.5932
" />
<path d="M230.1654 49.2598
L230.1654 48.2598
" />
<path d="M230.1654 49.2122
L230.0702 49.2598
" />
<path d="M230.0702 49.2598
L229.8797 49.2598
" />
<path d="M229.8797 49.2598
L229.7845 49.2122
" />
<path d="M229.7845 49.2122
L229.7368 49.1646
" />
<path d="M229.7368 49.1646
L229.6892 49.0693
" />
<path d="M229.6892 49.0693
L229.6892 48.7836
" />
<path d="M229.6892 48.7836
L229.7368 48.6884
" />
<path d="M229.7368 48.6884
L229.7845 48.6408
" />
<path d="M229.7845 48.6408
L229.8797 48.5932
" />
<path d="M229.8797 48.5932
L230.0702 48.5932
" />
<path d="M230.0702 48.5932
L230.1654 48.6408
" />
</g><text x="230.5022" y="51.0000"
transform="scale(-1 1) translate(-461.004400 0)"
textLength="8.2226" font-size="1.3333" lengthAdjust="spacingAndGlyphs"
text-anchor="end" opacity="0">BCB: 1.0.0</text>
<g class="stroked-text"><desc>BCB: 1.0.0</desc>
<path d="M222.9273 50.3460
L223.0702 50.3936
" />
<path d="M223.0702 50.3936
L223.1178 50.4412
" />
<path d="M223.1178 50.4412
L223.1654 50.5365
" />
<path d="M223.1654 50.5365
L223.1654 50.6793
" />
<path d="M223.1654 50.6793
L223.1178 50.7746
" />
<path d="M223.1178 50.7746
L223.0702 50.8222
" />
<path d="M223.0702 50.8222
L222.9749 50.8698
" />
<path d="M222.9749 50.8698
L222.5940 50.8698
" />
<path d="M222.5940 50.8698
L222.5940 49.8698
" />
<path d="M222.5940 49.8698
L222.9273 49.8698
" />
<path d="M222.9273 49.8698
L223.0226 49.9174
" />
<path d="M223.0226 49.9174
L223.0702 49.9651
" />
<path d="M223.0702 49.9651
L223.1178 50.0603
" />
<path d="M223.1178 50.0603
L223.1178 50.1555
" />
<path d="M223.1178 50.1555
L223.0702 50.2508
" />
<path d="M223.0702 50.2508
L223.0226 50.2984
" />
<path d="M223.0226 50.2984
L222.9273 50.3460
" />
<path d="M222.9273 50.3460
L222.5940 50.3460
" />
<path d="M224.1654 50.7746
L224.1178 50.8222
" />
<path d="M224.1178 50.8222
L223.9749 50.8698
" />
<path d="M223.9749 50.8698
L223.8797 50.8698
" />
<path d="M223.8797 50.8698
L223.7369 50.8222
" />
<path d="M223.7369 50.8222
L223.6416 50.7270
" />
<path d="M223.6416 50.7270
L223.5940 50.6317
" />
<path d="M223.5940 50.6317
L223.5464 50.4412
" />
<path d="M223.5464 50.4412
L223.5464 50.2984
" />
<path d="M223.5464 50.2984
L223.5940 50.1079
" />
<path d="M223.5940 50.1079
L223.6416 50.0127
" />
<path d="M223.6416 50.0127
L223.7369 49.9174
" />
<path d="M223.7369 49.9174
L223.8797 49.8698
" />
<path d="M223.8797 49.8698
L223.9749 49.8698
" />
<path d="M223.9749 49.8698
L224.1178 49.9174
" />
<path d="M224.1178 49.9174
L224.1654 49.9651
" />
<path d="M224.9273 50.3460
L225.0702 50.3936
" />
<path d="M225.0702 50.3936
L225.1178 50.4412
" />
<path d="M225.1178 50.4412
L225.1654 50.5365
" />
<path d="M225.1654 50.5365
L225.1654 50.6793
" />
<path d="M225.1654 50.6793
L225.1178 50.7746
" />
<path d="M225.1178 50.7746
L225.0702 50.8222
" />
<path d="M225.0702 50.8222
L224.9749 50.8698
" />
<path d="M224.9749 50.8698
L224.5940 50.8698
" />
<path d="M224.5940 50.8698
L224.5940 49.8698
" />
<path d="M224.5940 49.8698
L224.9273 49.8698
" />
<path d="M224.9273 49.8698
L225.0226 49.9174
" />
<path d="M225.0226 49.9174
L225.0702 49.9651
" />
<path d="M225.0702 49.9651
L225.1178 50.0603
" />
<path d="M225.1178 50.0603
L225.1178 50.1555
" />
<path d="M225.1178 50.1555
L225.0702 50.2508
" />
<path d="M225.0702 50.2508
L225.0226 50.2984
" />
<path d="M225.0226 50.2984
L224.9273 50.3460
" />
<path d="M224.9273 50.3460
L224.5940 50.3460
" />
<path d="M225.5940 50.7746
L225.6416 50.8222
" />
<path d="M225.6416 50.8222
L225.5940 50.8698
" />
<path d="M225.5940 50.8698
L225.5464 50.8222
" />
<path d="M225.5464 50.8222
L225.5940 50.7746
" />
<path d="M225.5940 50.7746
L225.5940 50.8698
" />
<path d="M225.5940 50.2508
L225.6416 50.2984
" />
<path d="M225.6416 50.2984
L225.5940 50.3460
" />
<path d="M225.5940 50.3460
L225.5464 50.2984
" />
<path d="M225.5464 50.2984
L225.5940 50.2508
" />
<path d="M225.5940 50.2508
L225.5940 50.3460
" />
<path d="M227.3559 50.8698
L226.7845 50.8698
" />
<path d="M227.0702 50.8698
L227.0702 49.8698
" />
<path d="M227.0702 49.8698
L226.9749 50.0127
" />
<path d="M226.9749 50.0127
L226.8797 50.1079
" />
<path d="M226.8797 50.1079
L226.7845 50.1555
" />
<path d="M227.7845 50.7746
L227.8321 50.8222
" />
<path d="M227.8321 50.8222
L227.7845 50.8698
" />
<path d="M227.7845 50.8698
L227.7369 50.8222
" />
<path d="M227.7369 50.8222
L227.7845 50.7746
" />
<path d="M227.7845 50.7746
L227.7845 50.8698
" />
<path d="M228.4511 49.8698
L228.5464 49.8698
" />
<path d="M228.5464 49.8698
L228.6416 49.9174
" />
<path d="M228.6416 49.9174
L228.6892 49.9651
" />
<path d="M228.6892 49.9651
L228.7368 50.0603
" />
<path d="M228.7368 50.0603
L228.7845 50.2508
" />
<path d="M228.7845 50.2508
L228.7845 50.4889
" />
<path d="M228.7845 50.4889
L228.7368 50.6793
" />
<path d="M228.7368 50.6793
L228.6892 50.7746
" />
<path d="M228.6892 50.7746
L228.6416 50.8222
" />
<path d="M228.6416 50.8222
L228.5464 50.8698
" />
<path d="M228.5464 50.8698
L228.4511 50.8698
" />
<path d="M228.4511 50.8698
L228.3559 50.8222
" />
<path d="M228.3559 50.8222
L228.3083 50.7746
" />
<path d="M228.3083 50.7746
L228.2607 50.6793
" />
<path d="M228.2607 50.6793
L228.2130 50.4889
" />
<path d="M228.2130 50.4889
L228.2130 50.2508
" />
<path d="M228.2130 50.2508
L228.2607 50.0603
" />
<path d="M228.2607 50.0603
L228.3083 49.9651
" />
<path d="M228.3083 49.9651
L228.3559 49.9174
" />
<path d="M228.3559 49.9174
L228.4511 49.8698
" />
<path d="M229.2130 50.7746
L229.2607 50.8222
" />
<path d="M229.2607 50.8222
L229.2130 50.8698
" />
<path d="M229.2130 50.8698
L229.1654 50.8222
" />
<path d="M229.1654 50.8222
L229.2130 50.7746
" />
<path d="M229.2130 50.7746
L229.2130 50.8698
" />
<path d="M229.8797 49.8698
L229.9749 49.8698
" />
<path d="M229.9749 49.8698
L230.0702 49.9174
" />
<path d="M230.0702 49.9174
L230.1178 49.9651
" />
<path d="M230.1178 49.9651
L230.1654 50.0603
" />
<path d="M230.1654 50.0603
L230.2130 50.2508
" />
<path d="M230.2130 50.2508
L230.2130 50.4889
" />
<path d="M230.2130 50.4889
L230.1654 50.6793
" />
<path d="M230.1654 50.6793
L230.1178 50.7746
" />
<path d="M230.1178 50.7746
L230.0702 50.8222
" />
<path d="M230.0702 50.8222
L229.9749 50.8698
" />
<path d="M229.9749 50.8698
L229.8797 50.8698
" />
<path d="M229.8797 50.8698
L229.7845 50.8222
" />
<path d="M229.7845 50.8222
L229.7368 50.7746
" />
<path d="M229.7368 50.7746
L229.6892 50.6793
" />
<path d="M229.6892 50.6793
L229.6416 50.4889
" />
<path d="M229.6416 50.4889
L229.6416 50.2508
" />
<path d="M229.6416 50.2508
L229.6892 50.0603
" />
<path d="M229.6892 50.0603
L229.7368 49.9651
" />
<path d="M229.7368 49.9651
L229.7845 49.9174
" />
<path d="M229.7845 49.9174
L229.8797 49.8698
" />
</g><g transform="rotate(-90.000000 204.2022 54.0000)">
<text x="204.2022" y="54.5000"
transform="scale(-1 1) translate(-408.404400 0)"
textLength="1.8893" font-size="1.3333" lengthAdjust="spacingAndGlyphs"
text-anchor="middle" opacity="0">J1</text>
</g>
<g class="stroked-text"><desc>J1</desc>
<path d="M204.7474 53.6667
L204.0331 53.6667
" />
<path d="M204.0331 53.6667
L203.8902 53.6190
" />
<path d="M203.8902 53.6190
L203.7950 53.5238
" />
<path d="M203.7950 53.5238
L203.7474 53.3810
" />
<path d="M203.7474 53.3810
L203.7474 53.2857
" />
<path d="M203.7474 54.6667
L203.7474 54.0952
" />
<path d="M203.7474 54.3810
L204.7474 54.3810
" />
<path d="M204.7474 54.3810
L204.6045 54.2857
" />
<path d="M204.6045 54.2857
L204.5093 54.1905
" />
<path d="M204.5093 54.1905
L204.4617 54.0952
" />
</g></g>
<g style="fill:#000000; fill-opacity:0.0; 
stroke:#000000; stroke-width:0.1200; stroke-opacity:1; 
stroke-linecap:round; stroke-linejoin:round;">
<path d="M208.0622 62.0600
L208.0622 57.9400
" />
<path d="M207.7622 62.0600
L208.0622 62.0600
" />
<path d="M205.7622 62.0600
L206.2422 62.0600
" />
<path d="M203.9422 62.0600
L204.2422 62.0600
" />
<path d="M203.9422 62.0600
L203.9422 57.9400
" />
<path d="M207.7622 57.9400
L208.0622 57.9400
" />
<path d="M205.7622 57.9400
L206.2422 57.9400
" />
<path d="M204.2422 57.9400
L204.2422 55.5600
" />
<path d="M203.9422 57.9400
L204.2422 57.9400
" />
<g >
</g>
<g >
</g>
<g >
</g>
<g >
</g>
<g >
</g>
<g >
</g>
<g >
</g>
<g >
</g>
<g >
</g>
<g >
</g>
<g >
</g>
<g >
</g>
<g >
</g>
<g >
</g>
<g >
</g>
<g >
</g>
<g >
</g>
<g >
</g>
<g >
</g>
<g >
</g>
<g >
</g>
<g >
</g>
<g >
</g>
<g >
</g>
<g >
</g>
<g >
</g>
<g >
</g>
<g >
</g>
</g> 
</svg>
