<?xml version="1.0" standalone="no"?>
 <!DOCTYPE svg PUBLIC "-//W3C//DTD SVG 1.1//EN" 
 "http://www.w3.org/Graphics/SVG/1.1/DTD/svg11.dtd"> 
<svg
  xmlns:svg="http://www.w3.org/2000/svg"
  xmlns="http://www.w3.org/2000/svg"
  xmlns:xlink="http://www.w3.org/1999/xlink"
  version="1.1"
  width="297.0022mm" height="210.0072mm" viewBox="0.0000 0.0000 297.0022 210.0072">
<title>SVG Image created as pedalboard-led-ring-B_Silkscreen.svg date 2023/05/22 19:38:53 </title>
  <desc>Image generated by PCBNEW </desc>
<g style="fill:#000000; fill-opacity:1.0000;stroke:#000000; stroke-opacity:1.0000;
stroke-linecap:round; stroke-linejoin:round;"
 transform="translate(0 0) scale(1 1)">
</g>
<g style="fill:#000000; fill-opacity:0.0; 
stroke:#000000; stroke-width:0.0000; stroke-opacity:1; 
stroke-linecap:round; stroke-linejoin:round;">
</g>
<g style="fill:#000000; fill-opacity:0.0; 
stroke:#000000; stroke-width:0.1000; stroke-opacity:1; 
stroke-linecap:round; stroke-linejoin:round;">
<circle cx="217.0022" cy="60.0000" r="7.0500" /> 
</g>
<g style="fill:#000000; fill-opacity:0.0; 
stroke:#000000; stroke-width:0.1500; stroke-opacity:1; 
stroke-linecap:round; stroke-linejoin:round;">
<text x="204.9022" y="49.8000"
transform="scale(-1 1) translate(-409.804400 0)"
textLength="2.1750" font-size="1.3333" lengthAdjust="spacingAndGlyphs"
text-anchor="middle" opacity="0">U1</text>
<g class="stroked-text"><desc>U1</desc>
<path d="M204.1403 48.7626
L204.1403 49.5721
" />
<path d="M204.1403 49.5721
L204.1879 49.6674
" />
<path d="M204.1879 49.6674
L204.2355 49.7150
" />
<path d="M204.2355 49.7150
L204.3308 49.7626
" />
<path d="M204.3308 49.7626
L204.5212 49.7626
" />
<path d="M204.5212 49.7626
L204.6165 49.7150
" />
<path d="M204.6165 49.7150
L204.6641 49.6674
" />
<path d="M204.6641 49.6674
L204.7117 49.5721
" />
<path d="M204.7117 49.5721
L204.7117 48.7626
" />
<path d="M205.7117 49.7626
L205.1403 49.7626
" />
<path d="M205.4260 49.7626
L205.4260 48.7626
" />
<path d="M205.4260 48.7626
L205.3308 48.9055
" />
<path d="M205.3308 48.9055
L205.2355 49.0007
" />
<path d="M205.2355 49.0007
L205.1403 49.0483
" />
</g><g transform="rotate(-90.000000 206.2722 68.0000)">
<text x="206.2722" y="68.5000"
transform="scale(-1 1) translate(-412.544400 0)"
textLength="1.8893" font-size="1.3333" lengthAdjust="spacingAndGlyphs"
text-anchor="middle" opacity="0">J1</text>
</g>
<g class="stroked-text"><desc>J1</desc>
<path d="M206.8096 67.6667
L206.0953 67.6667
" />
<path d="M206.0953 67.6667
L205.9524 67.6190
" />
<path d="M205.9524 67.6190
L205.8572 67.5238
" />
<path d="M205.8572 67.5238
L205.8096 67.3810
" />
<path d="M205.8096 67.3810
L205.8096 67.2857
" />
<path d="M205.8096 68.6667
L205.8096 68.0952
" />
<path d="M205.8096 68.3810
L206.8096 68.3810
" />
<path d="M206.8096 68.3810
L206.6667 68.2857
" />
<path d="M206.6667 68.2857
L206.5715 68.1905
" />
<path d="M206.5715 68.1905
L206.5239 68.0952
" />
</g><text x="199.5022" y="61.7500"
transform="scale(-1 1) translate(-399.004400 0)"
textLength="2.1274" font-size="1.3333" lengthAdjust="spacingAndGlyphs"
text-anchor="middle" opacity="0">C1</text>
<g class="stroked-text"><desc>C1</desc>
<path d="M199.3355 61.6174
L199.2879 61.6650
" />
<path d="M199.2879 61.6650
L199.1451 61.7126
" />
<path d="M199.1451 61.7126
L199.0498 61.7126
" />
<path d="M199.0498 61.7126
L198.9070 61.6650
" />
<path d="M198.9070 61.6650
L198.8117 61.5698
" />
<path d="M198.8117 61.5698
L198.7641 61.4745
" />
<path d="M198.7641 61.4745
L198.7165 61.2840
" />
<path d="M198.7165 61.2840
L198.7165 61.1412
" />
<path d="M198.7165 61.1412
L198.7641 60.9507
" />
<path d="M198.7641 60.9507
L198.8117 60.8555
" />
<path d="M198.8117 60.8555
L198.9070 60.7602
" />
<path d="M198.9070 60.7602
L199.0498 60.7126
" />
<path d="M199.0498 60.7126
L199.1451 60.7126
" />
<path d="M199.1451 60.7126
L199.2879 60.7602
" />
<path d="M199.2879 60.7602
L199.3355 60.8079
" />
<path d="M200.2879 61.7126
L199.7165 61.7126
" />
<path d="M200.0022 61.7126
L200.0022 60.7126
" />
<path d="M200.0022 60.7126
L199.9070 60.8555
" />
<path d="M199.9070 60.8555
L199.8117 60.9507
" />
<path d="M199.8117 60.9507
L199.7165 60.9983
" />
</g><g transform="rotate(-90.000000 196.1022 53.1000)">
<text x="196.1022" y="53.4250"
transform="scale(-1 1) translate(-392.204400 0)"
textLength="1.5140" font-size="0.8667" lengthAdjust="spacingAndGlyphs"
text-anchor="middle" opacity="0">R1</text>
</g>
<g class="stroked-text"><desc>R1</desc>
<path d="M195.8015 52.9917
L196.1110 52.7750
" />
<path d="M195.8015 52.6202
L196.4515 52.6202
" />
<path d="M196.4515 52.6202
L196.4515 52.8679
" />
<path d="M196.4515 52.8679
L196.4205 52.9298
" />
<path d="M196.4205 52.9298
L196.3896 52.9607
" />
<path d="M196.3896 52.9607
L196.3277 52.9917
" />
<path d="M196.3277 52.9917
L196.2348 52.9917
" />
<path d="M196.2348 52.9917
L196.1729 52.9607
" />
<path d="M196.1729 52.9607
L196.1420 52.9298
" />
<path d="M196.1420 52.9298
L196.1110 52.8679
" />
<path d="M196.1110 52.8679
L196.1110 52.6202
" />
<path d="M195.8015 53.6107
L195.8015 53.2393
" />
<path d="M195.8015 53.4250
L196.4515 53.4250
" />
<path d="M196.4515 53.4250
L196.3586 53.3631
" />
<path d="M196.3586 53.3631
L196.2967 53.3012
" />
<path d="M196.2967 53.3012
L196.2658 53.2393
" />
</g><g transform="rotate(-90.000000 196.2022 55.2500)">
<text x="196.2022" y="55.5750"
transform="scale(-1 1) translate(-392.404400 0)"
textLength="1.5140" font-size="0.8667" lengthAdjust="spacingAndGlyphs"
text-anchor="middle" opacity="0">C2</text>
</g>
<g class="stroked-text"><desc>C2</desc>
<path d="M195.9634 55.1417
L195.9324 55.1107
" />
<path d="M195.9324 55.1107
L195.9015 55.0179
" />
<path d="M195.9015 55.0179
L195.9015 54.9560
" />
<path d="M195.9015 54.9560
L195.9324 54.8631
" />
<path d="M195.9324 54.8631
L195.9944 54.8012
" />
<path d="M195.9944 54.8012
L196.0563 54.7702
" />
<path d="M196.0563 54.7702
L196.1801 54.7393
" />
<path d="M196.1801 54.7393
L196.2729 54.7393
" />
<path d="M196.2729 54.7393
L196.3967 54.7702
" />
<path d="M196.3967 54.7702
L196.4586 54.8012
" />
<path d="M196.4586 54.8012
L196.5205 54.8631
" />
<path d="M196.5205 54.8631
L196.5515 54.9560
" />
<path d="M196.5515 54.9560
L196.5515 55.0179
" />
<path d="M196.5515 55.0179
L196.5205 55.1107
" />
<path d="M196.5205 55.1107
L196.4896 55.1417
" />
<path d="M196.4896 55.3893
L196.5205 55.4202
" />
<path d="M196.5205 55.4202
L196.5515 55.4821
" />
<path d="M196.5515 55.4821
L196.5515 55.6369
" />
<path d="M196.5515 55.6369
L196.5205 55.6988
" />
<path d="M196.5205 55.6988
L196.4896 55.7298
" />
<path d="M196.4896 55.7298
L196.4277 55.7607
" />
<path d="M196.4277 55.7607
L196.3658 55.7607
" />
<path d="M196.3658 55.7607
L196.2729 55.7298
" />
<path d="M196.2729 55.7298
L195.9015 55.3583
" />
<path d="M195.9015 55.3583
L195.9015 55.7607
" />
</g></g>
<g style="fill:#000000; fill-opacity:0.0; 
stroke:#000000; stroke-width:0.1200; stroke-opacity:1; 
stroke-linecap:round; stroke-linejoin:round;">
<path d="M202.1022 50.2400
L204.0522 50.2400
" />
<path d="M202.1022 50.2400
L200.1522 50.2400
" />
<path d="M202.1022 55.3600
L205.5522 55.3600
" />
<path d="M202.1022 55.3600
L200.1522 55.3600
" />
<path d="M204.7022 63.9600
L204.7022 65.4000
" />
<path d="M197.5322 65.4000
L197.5322 70.6000
" />
<path d="M198.1022 65.4000
L197.5322 65.4000
" />
<path d="M200.6422 65.4000
L199.6222 65.4000
" />
<path d="M203.1822 65.4000
L202.1622 65.4000
" />
<path d="M205.2722 65.4000
L204.7022 65.4000
" />
<path d="M205.2722 65.4000
L205.2722 70.6000
" />
<path d="M198.1022 70.6000
L197.5322 70.6000
" />
<path d="M200.6422 70.6000
L199.6222 70.6000
" />
<path d="M203.1822 70.6000
L202.1622 70.6000
" />
<path d="M205.2722 70.6000
L204.7022 70.6000
" />
<path d="M207.4022 57.9000
L207.4022 60.1000
" />
<path d="M207.4022 60.1000
L206.6022 60.1000
" />
<path d="M206.6022 57.2000
L206.6022 57.9000
" />
<path d="M206.6022 57.9000
L207.4022 57.9000
" />
<path d="M206.6022 60.1000
L206.6022 60.7000
" />
<path d="M206.6022 60.7000
L206.6022 60.8000
" />
<path d="M206.6022 60.8000
L205.4022 62.0000
" />
<path d="M205.4022 56.0000
L206.6022 57.2000
" />
<path d="M205.4022 62.0000
L200.6022 62.0000
" />
<path d="M200.6022 56.0000
L205.4022 56.0000
" />
<path d="M200.6022 57.9000
L200.6022 56.0000
" />
<path d="M200.6022 60.1000
L199.8022 60.1000
" />
<path d="M200.6022 62.0000
L200.6022 60.1000
" />
<path d="M199.8022 57.9000
L200.6022 57.9000
" />
<path d="M199.8022 60.1000
L199.8022 57.9000
" />
</g>
<g style="fill:#000000; fill-opacity:0.0; 
stroke:#000000; stroke-width:0.1500; stroke-opacity:1; 
stroke-linecap:round; stroke-linejoin:round;">
<path d="M196.9022 53.4500
L196.9022 51.7500
" />
<path d="M198.3022 51.7500
L198.3022 53.4500
" />
</g>
<g style="fill:#000000; fill-opacity:0.0; 
stroke:#000000; stroke-width:0.1200; stroke-opacity:1; 
stroke-linecap:round; stroke-linejoin:round;">
<path d="M196.9822 55.2980
L196.9822 55.5020
" />
<path d="M198.2222 55.2980
L198.2222 55.5020
" />
<g >
</g>
<g >
</g>
<g >
</g>
<g >
</g>
<g >
</g>
<g >
</g>
<g >
</g>
<g >
</g>
<g >
</g>
<g >
</g>
<g >
</g>
<g >
</g>
<g >
</g>
<g >
</g>
</g> 
</svg>
