<?xml version="1.0" standalone="no"?>
 <!DOCTYPE svg PUBLIC "-//W3C//DTD SVG 1.1//EN" 
 "http://www.w3.org/Graphics/SVG/1.1/DTD/svg11.dtd"> 
<svg
  xmlns:svg="http://www.w3.org/2000/svg"
  xmlns="http://www.w3.org/2000/svg"
  xmlns:xlink="http://www.w3.org/1999/xlink"
  version="1.1"
  width="297.0022mm" height="210.0072mm" viewBox="0.0000 0.0000 297.0022 210.0072">
<title>SVG Image created as pedalboard-led-ring-B_Cu.svg date 2023/06/20 15:23:37 </title>
  <desc>Image generated by PCBNEW </desc>
<g style="fill:#000000; fill-opacity:1.0000;stroke:#000000; stroke-opacity:1.0000;
stroke-linecap:round; stroke-linejoin:round;"
 transform="translate(0 0) scale(1 1)">
</g>
<g style="fill:#000000; fill-opacity:0.0; 
stroke:#000000; stroke-width:0.0000; stroke-opacity:1; 
stroke-linecap:round; stroke-linejoin:round;">
<g >
</g>
<g >
</g>
<g >
</g>
<g >
</g>
<g >
</g>
<g >
</g>
<g >
</g>
<g >
</g>
<g >
</g>
<g >
</g>
<g >
</g>
<g >
</g>
<g >
</g>
<g >
</g>
<g >
</g>
<g >
</g>
<g >
</g>
<g >
</g>
<g >
</g>
<g >
</g>
<g >
</g>
<g >
</g>
<g >
</g>
<g >
</g>
<g >
</g>
<g >
</g>
<g >
</g>
<g >
</g>
<g >
</g>
<g >
</g>
<g >
</g>
<g >
</g>
<g style="fill:#000000; fill-opacity:0.0; 
stroke:#000000; stroke-width:0.0000; stroke-opacity:1; 
stroke-linecap:round; stroke-linejoin:round;">
</g>
<g style="fill:#000000; fill-opacity:0.0; 
stroke:#000000; stroke-width:0.0000; stroke-opacity:1; 
stroke-linecap:round; stroke-linejoin:round;">
</g>
<g style="fill:#000000; fill-opacity:1.0000; 
stroke:#000000; stroke-width:0.0000; stroke-opacity:1; 
stroke-linecap:round; stroke-linejoin:round;">
<path style="fill:#000000; fill-opacity:1.0000; 
stroke:#000000; stroke-width:0.0000; stroke-opacity:1; 
stroke-linecap:round; stroke-linejoin:round;fill-rule:evenodd;"
d="M 205.5022,58.2500
206.5022,58.2500
206.5022,55.5000
205.5022,55.5000
Z" /> 
<path style="fill:#000000; fill-opacity:1.0000; 
stroke:#000000; stroke-width:0.0000; stroke-opacity:1; 
stroke-linecap:round; stroke-linejoin:round;fill-rule:evenodd;"
d="M 205.5022,64.5000
206.5022,64.5000
206.5022,61.7500
205.5022,61.7500
Z" /> 
<path style="fill:#000000; fill-opacity:1.0000; 
stroke:#000000; stroke-width:0.0000; stroke-opacity:1; 
stroke-linecap:round; stroke-linejoin:round;fill-rule:evenodd;"
d="M 207.5022,58.2500
208.5022,58.2500
208.5022,55.5000
207.5022,55.5000
Z" /> 
<path style="fill:#000000; fill-opacity:1.0000; 
stroke:#000000; stroke-width:0.0000; stroke-opacity:1; 
stroke-linecap:round; stroke-linejoin:round;fill-rule:evenodd;"
d="M 207.5022,64.5000
208.5022,64.5000
208.5022,61.7500
207.5022,61.7500
Z" /> 
</g>
<g >
</g>
<g style="fill:#000000; fill-opacity:1.0000; 
stroke:#000000; stroke-width:0.0000; stroke-opacity:1; 
stroke-linecap:round; stroke-linejoin:round;">
<path style="fill:#000000; fill-opacity:1.0000; 
stroke:#000000; stroke-width:0.0000; stroke-opacity:1; 
stroke-linecap:round; stroke-linejoin:round;fill-rule:evenodd;"
d="M 208.2522,71.0000
208.2522,70.0000
205.5022,70.0000
205.5022,71.0000
Z" /> 
<path style="fill:#000000; fill-opacity:1.0000; 
stroke:#000000; stroke-width:0.0000; stroke-opacity:1; 
stroke-linecap:round; stroke-linejoin:round;fill-rule:evenodd;"
d="M 214.5022,71.0000
214.5022,70.0000
211.7522,70.0000
211.7522,71.0000
Z" /> 
<path style="fill:#000000; fill-opacity:1.0000; 
stroke:#000000; stroke-width:0.0000; stroke-opacity:1; 
stroke-linecap:round; stroke-linejoin:round;fill-rule:evenodd;"
d="M 208.2522,69.0000
208.2522,68.0000
205.5022,68.0000
205.5022,69.0000
Z" /> 
<path style="fill:#000000; fill-opacity:1.0000; 
stroke:#000000; stroke-width:0.0000; stroke-opacity:1; 
stroke-linecap:round; stroke-linejoin:round;fill-rule:evenodd;"
d="M 214.5022,69.0000
214.5022,68.0000
211.7522,68.0000
211.7522,69.0000
Z" /> 
</g>
<g >
</g>
<g style="fill:#000000; fill-opacity:1.0000; 
stroke:#000000; stroke-width:0.0000; stroke-opacity:1; 
stroke-linecap:round; stroke-linejoin:round;">
<circle cx="210.2022" cy="63.6000" r="0.4000" /> 
</g>
<g style="fill:#000000; fill-opacity:1.0000; 
stroke:#000000; stroke-width:0.0212; stroke-opacity:1; 
stroke-linecap:round; stroke-linejoin:round;">
</g>
<g style="fill:#000000; fill-opacity:1.0000; 
stroke:#000000; stroke-width:0.0000; stroke-opacity:1; 
stroke-linecap:round; stroke-linejoin:round;">
<circle cx="223.0022" cy="52.0000" r="0.4000" /> 
</g>
<g style="fill:#000000; fill-opacity:1.0000; 
stroke:#000000; stroke-width:0.0212; stroke-opacity:1; 
stroke-linecap:round; stroke-linejoin:round;">
</g>
<g style="fill:#000000; fill-opacity:1.0000; 
stroke:#000000; stroke-width:0.0000; stroke-opacity:1; 
stroke-linecap:round; stroke-linejoin:round;">
<circle cx="226.9304" cy="61.1962" r="0.4000" /> 
</g>
<g style="fill:#000000; fill-opacity:1.0000; 
stroke:#000000; stroke-width:0.0212; stroke-opacity:1; 
stroke-linecap:round; stroke-linejoin:round;">
</g>
<g style="fill:#000000; fill-opacity:1.0000; 
stroke:#000000; stroke-width:0.0000; stroke-opacity:1; 
stroke-linecap:round; stroke-linejoin:round;">
<circle cx="220.9304" cy="69.1962" r="0.4000" /> 
</g>
<g style="fill:#000000; fill-opacity:1.0000; 
stroke:#000000; stroke-width:0.0212; stroke-opacity:1; 
stroke-linecap:round; stroke-linejoin:round;">
</g>
<g style="fill:#000000; fill-opacity:1.0000; 
stroke:#000000; stroke-width:0.0000; stroke-opacity:1; 
stroke-linecap:round; stroke-linejoin:round;">
<circle cx="206.9227" cy="57.3650" r="0.4000" /> 
</g>
<g style="fill:#000000; fill-opacity:1.0000; 
stroke:#000000; stroke-width:0.0212; stroke-opacity:1; 
stroke-linecap:round; stroke-linejoin:round;">
</g>
<g style="fill:#000000; fill-opacity:1.0000; 
stroke:#000000; stroke-width:0.0000; stroke-opacity:1; 
stroke-linecap:round; stroke-linejoin:round;">
<circle cx="215.8060" cy="69.9282" r="0.4000" /> 
</g>
<g style="fill:#000000; fill-opacity:1.0000; 
stroke:#000000; stroke-width:0.0212; stroke-opacity:1; 
stroke-linecap:round; stroke-linejoin:round;">
</g>
<g style="fill:#000000; fill-opacity:1.0000; 
stroke:#000000; stroke-width:0.0000; stroke-opacity:1; 
stroke-linecap:round; stroke-linejoin:round;">
<circle cx="213.0740" cy="50.8038" r="0.4000" /> 
</g>
<g style="fill:#000000; fill-opacity:1.0000; 
stroke:#000000; stroke-width:0.0212; stroke-opacity:1; 
stroke-linecap:round; stroke-linejoin:round;">
</g>
<g style="fill:#000000; fill-opacity:1.0000; 
stroke:#000000; stroke-width:0.0000; stroke-opacity:1; 
stroke-linecap:round; stroke-linejoin:round;">
<circle cx="225.0022" cy="66.0000" r="0.4000" /> 
</g>
<g style="fill:#000000; fill-opacity:1.0000; 
stroke:#000000; stroke-width:0.0212; stroke-opacity:1; 
stroke-linecap:round; stroke-linejoin:round;">
</g>
<g style="fill:#000000; fill-opacity:1.0000; 
stroke:#000000; stroke-width:0.0000; stroke-opacity:1; 
stroke-linecap:round; stroke-linejoin:round;">
<circle cx="211.0022" cy="67.9400" r="0.4000" /> 
</g>
<g style="fill:#000000; fill-opacity:1.0000; 
stroke:#000000; stroke-width:0.0212; stroke-opacity:1; 
stroke-linecap:round; stroke-linejoin:round;">
</g>
<g style="fill:#000000; fill-opacity:1.0000; 
stroke:#000000; stroke-width:0.0000; stroke-opacity:1; 
stroke-linecap:round; stroke-linejoin:round;">
<circle cx="226.1984" cy="56.0718" r="0.4000" /> 
</g>
<g style="fill:#000000; fill-opacity:1.0000; 
stroke:#000000; stroke-width:0.0212; stroke-opacity:1; 
stroke-linecap:round; stroke-linejoin:round;">
</g>
<g style="fill:#000000; fill-opacity:1.0000; 
stroke:#000000; stroke-width:0.0000; stroke-opacity:1; 
stroke-linecap:round; stroke-linejoin:round;">
<circle cx="209.0022" cy="54.0000" r="0.4000" /> 
</g>
<g style="fill:#000000; fill-opacity:1.0000; 
stroke:#000000; stroke-width:0.0212; stroke-opacity:1; 
stroke-linecap:round; stroke-linejoin:round;">
</g>
<g style="fill:#000000; fill-opacity:1.0000; 
stroke:#000000; stroke-width:0.0000; stroke-opacity:1; 
stroke-linecap:round; stroke-linejoin:round;">
<circle cx="208.7422" cy="66.0200" r="0.4000" /> 
</g>
<g style="fill:#000000; fill-opacity:1.0000; 
stroke:#000000; stroke-width:0.0212; stroke-opacity:1; 
stroke-linecap:round; stroke-linejoin:round;">
</g>
<g style="fill:#000000; fill-opacity:1.0000; 
stroke:#000000; stroke-width:0.0000; stroke-opacity:1; 
stroke-linecap:round; stroke-linejoin:round;">
<circle cx="218.1984" cy="50.0718" r="0.4000" /> 
</g>
<g style="fill:#000000; fill-opacity:1.0000; 
stroke:#000000; stroke-width:0.0212; stroke-opacity:1; 
stroke-linecap:round; stroke-linejoin:round;">
</g>
<g style="fill:#000000; fill-opacity:1.0000; 
stroke:#000000; stroke-width:0.0000; stroke-opacity:1; 
stroke-linecap:round; stroke-linejoin:round;">
<circle cx="206.6022" cy="61.4000" r="0.4000" /> 
</g>
<g style="fill:#000000; fill-opacity:1.0000; 
stroke:#000000; stroke-width:0.0212; stroke-opacity:1; 
stroke-linecap:round; stroke-linejoin:round;">
</g>
<g style="fill:#000000; fill-opacity:1.0000; 
stroke:#000000; stroke-width:0.0000; stroke-opacity:1; 
stroke-linecap:round; stroke-linejoin:round;">
<circle cx="214.1022" cy="71.4000" r="0.4000" /> 
</g>
<g style="fill:#000000; fill-opacity:1.0000; 
stroke:#000000; stroke-width:0.0212; stroke-opacity:1; 
stroke-linecap:round; stroke-linejoin:round;">
</g>
<g style="fill:#000000; fill-opacity:1.0000; 
stroke:#000000; stroke-width:0.0000; stroke-opacity:1; 
stroke-linecap:round; stroke-linejoin:round;">
<circle cx="205.8522" cy="61.4000" r="0.4000" /> 
</g>
<g style="fill:#000000; fill-opacity:1.0000; 
stroke:#000000; stroke-width:0.0212; stroke-opacity:1; 
stroke-linecap:round; stroke-linejoin:round;">
</g>
<g style="fill:#000000; fill-opacity:1.0000; 
stroke:#000000; stroke-width:0.0000; stroke-opacity:1; 
stroke-linecap:round; stroke-linejoin:round;">
<circle cx="205.8522" cy="64.8500" r="0.4000" /> 
</g>
<g style="fill:#000000; fill-opacity:1.0000; 
stroke:#000000; stroke-width:0.0212; stroke-opacity:1; 
stroke-linecap:round; stroke-linejoin:round;">
</g>
<g style="fill:#000000; fill-opacity:1.0000; 
stroke:#000000; stroke-width:0.0000; stroke-opacity:1; 
stroke-linecap:round; stroke-linejoin:round;">
<circle cx="206.6022" cy="64.8500" r="0.4000" /> 
</g>
<g style="fill:#000000; fill-opacity:1.0000; 
stroke:#000000; stroke-width:0.0212; stroke-opacity:1; 
stroke-linecap:round; stroke-linejoin:round;">
</g>
<g style="fill:#000000; fill-opacity:1.0000; 
stroke:#000000; stroke-width:0.0000; stroke-opacity:1; 
stroke-linecap:round; stroke-linejoin:round;">
<circle cx="212.1022" cy="71.4000" r="0.4000" /> 
</g>
<g style="fill:#000000; fill-opacity:1.0000; 
stroke:#000000; stroke-width:0.0212; stroke-opacity:1; 
stroke-linecap:round; stroke-linejoin:round;">
</g>
<g style="fill:#000000; fill-opacity:1.0000; 
stroke:#000000; stroke-width:0.0000; stroke-opacity:1; 
stroke-linecap:round; stroke-linejoin:round;">
<circle cx="211.3022" cy="70.5000" r="0.4000" /> 
</g>
<g style="fill:#000000; fill-opacity:1.0000; 
stroke:#000000; stroke-width:0.0212; stroke-opacity:1; 
stroke-linecap:round; stroke-linejoin:round;">
</g>
<g style="fill:#000000; fill-opacity:1.0000; 
stroke:#000000; stroke-width:0.0000; stroke-opacity:1; 
stroke-linecap:round; stroke-linejoin:round;">
<circle cx="213.1022" cy="71.4000" r="0.4000" /> 
</g>
<g style="fill:#000000; fill-opacity:1.0000; 
stroke:#000000; stroke-width:0.0212; stroke-opacity:1; 
stroke-linecap:round; stroke-linejoin:round;">
</g>
<g style="fill:#000000; fill-opacity:1.0000; 
stroke:#000000; stroke-width:0.0000; stroke-opacity:1; 
stroke-linecap:round; stroke-linejoin:round;">
<circle cx="209.0922" cy="61.1500" r="0.4000" /> 
</g>
<g style="fill:#000000; fill-opacity:1.0000; 
stroke:#000000; stroke-width:0.0212; stroke-opacity:1; 
stroke-linecap:round; stroke-linejoin:round;">
</g>
<g >
</g>
<g style="fill:#000000; fill-opacity:1.0000; 
stroke:#000000; stroke-width:0.0212; stroke-opacity:1; 
stroke-linecap:round; stroke-linejoin:round;">
</g>
<g style="fill:#000000; fill-opacity:1.0000; 
stroke:#000000; stroke-width:0.2500; stroke-opacity:1; 
stroke-linecap:round; stroke-linejoin:round;">
</g>
<g style="fill:#000000; fill-opacity:0.0; 
stroke:#000000; stroke-width:0.2500; stroke-opacity:1; 
stroke-linecap:round; stroke-linejoin:round;">
<path d="M208.3772 63.5000
L210.1022 63.5000
" />
<path d="M210.2022 64.6800
L213.1272 67.6050
" />
<path d="M210.1022 63.5000
L210.2022 63.6000
" />
<path d="M213.1272 67.6050
L213.1272 68.5000
" />
<path d="M210.2022 63.6000
L210.2022 64.6800
" />
<path d="M206.0022 64.2500
L206.6022 64.8500
" />
<path d="M206.0022 64.7000
L205.8522 64.8500
" />
<path d="M205.9022 64.9000
L206.6022 64.9000
" />
<path d="M213.2022 70.5000
L214.1022 71.4000
" />
<path d="M206.0022 63.1250
L206.0022 61.5500
" />
<path d="M213.1272 70.5000
L211.3022 70.5000
" />
<path d="M213.1272 70.5000
L213.1272 71.3750
" />
<path d="M206.0022 62.0000
L206.6022 61.4000
" />
<path d="M206.0022 61.5500
L205.8522 61.4000
" />
<path d="M213.0022 70.5000
L212.1022 71.4000
" />
<path d="M213.1272 71.3750
L213.1022 71.4000
" />
<path d="M206.0022 63.1250
L206.0022 64.7000
" />
<path d="M205.1272 61.1280
L205.1272 67.2500
" />
<path d="M207.3072 61.2000
L207.3072 61.1080
" />
<path d="M206.8942 60.6950
L205.5602 60.6950
" />
<path d="M205.1272 67.2500
L205.8772 68.0000
" />
<path d="M207.3072 61.1080
L206.8942 60.6950
" />
<path d="M205.5602 60.6950
L205.1272 61.1280
" />
<path d="M209.0922 61.2000
L207.3072 61.2000
" />
<path d="M208.0022 61.2000
L208.0022 56.8750
" />
</g>
<g >
</g>
<g style="fill:#000000; fill-opacity:0.0; 
stroke:#000000; stroke-width:0.2500; stroke-opacity:1; 
stroke-linecap:round; stroke-linejoin:round;">
<g >
</g>
<g style="fill:#000000; fill-opacity:1.0000; 
stroke:#000000; stroke-width:0.0000; stroke-opacity:1; 
stroke-linecap:round; stroke-linejoin:round;">
<path style="fill:#000000; fill-opacity:1.0000; 
stroke:#000000; stroke-width:0.0000; stroke-opacity:1; 
stroke-linecap:round; stroke-linejoin:round;fill-rule:evenodd;"
d="M 206.0001,48.0007
205.9567,48.0045
205.8284,48.0171
205.8125,48.0200
205.7446,48.0382
205.7432,48.0386
205.6489,48.0672
205.6358,48.0722
205.5665,48.1045
205.5641,48.1057
205.4792,48.1511
205.4741,48.1542
205.4070,48.2013
205.4040,48.2035
205.3693,48.2320
205.3309,48.2635
205.3273,48.2668
205.2690,48.3251
205.2657,48.3287
205.2057,48.4018
205.2035,48.4048
205.1564,48.4719
205.1533,48.4770
205.1079,48.5619
205.1067,48.5643
205.0744,48.6336
205.0694,48.6467
205.0408,48.7409
205.0404,48.7424
205.0222,48.8103
205.0193,48.8262
205.0067,48.9545
205.0029,48.9978
205.0027,49.0022
205.0027,60.5531
205.0216,60.6113
205.0711,60.6473
205.1323,60.6473
205.1717,60.6231
205.3184,60.4764
205.3214,60.4732
205.3477,60.4418
205.3704,60.4287
205.3833,60.4213
205.3869,60.4190
205.4205,60.3954
205.4205,60.3954
205.4220,60.3951
205.4458,60.3852
205.4471,60.3844
205.4875,60.3773
205.4917,60.3764
205.5180,60.3693
205.5314,60.3657
205.5314,60.3657
205.5358,60.3661
205.5723,60.3693
205.5766,60.3695
206.8778,60.3695
206.8821,60.3693
206.9230,60.3657
206.9627,60.3764
206.9669,60.3773
207.0073,60.3844
207.0073,60.3844
207.0086,60.3852
207.0324,60.3951
207.0339,60.3954
207.0339,60.3954
207.0675,60.4190
207.0711,60.4213
207.0793,60.4260
207.1067,60.4418
207.1330,60.4732
207.1360,60.4764
207.5051,60.8455
207.5596,60.8733
207.5751,60.8745
207.5777,60.8745
207.6359,60.8556
207.6719,60.8061
207.6767,60.7755
207.6767,58.5495
207.6578,58.4913
207.6083,58.4553
207.5777,58.4505
207.4825,58.4505
207.4825,58.4505
207.4240,58.4389
207.3576,58.3946
207.3133,58.3282
207.3017,58.2697
207.3017,57.0250
206.8022,57.0250
206.8022,58.2948
206.7993,58.3199
206.7540,58.4225
206.6747,58.5018
206.5721,58.5471
206.5470,58.5500
206.1522,58.5500
206.1522,58.5500
205.8522,58.5500
205.8522,58.5500
205.4574,58.5500
205.4574,58.5500
205.4323,58.5471
205.3297,58.5018
205.2504,58.4225
205.2051,58.3199
205.2022,58.2948
205.2022,58.2948
205.2022,57.0250
205.2022,57.0250
205.8522,57.0250
205.8522,57.0250
205.8522,58.5500
206.1522,58.5500
206.1522,57.0250
206.1522,57.0250
206.8022,57.0250
207.3017,57.0250
207.3017,56.7250
206.8022,56.7250
206.8022,56.7250
206.1522,56.7250
206.1522,56.7250
206.1522,55.2000
205.8522,55.2000
205.8522,56.7250
205.8522,56.7250
205.2022,56.7250
205.2022,56.7250
205.2022,55.4552
205.2022,55.4552
205.2051,55.4301
205.2504,55.3275
205.3297,55.2482
205.4323,55.2029
205.4574,55.2000
205.8522,55.2000
206.1522,55.2000
206.5470,55.2000
206.5470,55.2000
206.5721,55.2029
206.6747,55.2482
206.7540,55.3275
206.7993,55.4301
206.8022,55.4552
206.8022,56.7250
207.3017,56.7250
207.3017,55.4803
207.3133,55.4218
207.3576,55.3554
207.3577,55.3554
207.4240,55.3111
207.4240,55.3111
207.4240,55.3111
207.4240,55.3111
207.4824,55.2995
207.4825,55.2995
208.5219,55.2995
208.5219,55.2995
208.5220,55.2995
208.5804,55.3111
208.5804,55.3111
208.6467,55.3554
208.6468,55.3555
208.6911,55.4218
208.6911,55.4218
208.7027,55.4802
208.7027,55.4803
208.7027,58.2697
208.7027,58.2698
208.6911,58.3282
208.6911,58.3282
208.6468,58.3946
208.5804,58.4389
208.5360,58.4477
208.5220,58.4505
208.5220,58.4505
208.5219,58.4505
208.4267,58.4505
208.3685,58.4694
208.3325,58.5189
208.3277,58.5495
208.3277,60.7755
208.3466,60.8337
208.3961,60.8697
208.4267,60.8745
208.4979,60.8745
208.5561,60.8556
208.5764,60.8358
208.6639,60.7217
208.6639,60.7217
208.6639,60.7217
208.7894,60.6255
208.9354,60.5650
208.9354,60.5650
209.0922,60.5443
209.0922,60.5443
209.2490,60.5650
209.2490,60.5650
209.3950,60.6255
209.3950,60.6255
209.5205,60.7217
209.5205,60.7217
209.6167,60.8472
209.6167,60.8472
209.6772,60.9932
209.6772,60.9932
209.6979,61.1500
209.6979,61.1500
209.6772,61.3068
209.6772,61.3068
209.6167,61.4528
209.6167,61.4528
209.5370,61.5568
209.5205,61.5783
209.3950,61.6745
209.3950,61.6745
209.3950,61.6745
209.3136,61.7083
209.2490,61.7350
209.1314,61.7505
209.0922,61.7557
209.0922,61.7557
209.0922,61.7557
209.0608,61.7516
208.9354,61.7350
208.8396,61.6953
208.7786,61.6905
208.7264,61.7225
208.7030,61.7790
208.7027,61.7868
208.7027,63.0755
208.7216,63.1337
208.7711,63.1697
208.8017,63.1745
209.7367,63.1745
209.7949,63.1556
209.7970,63.1540
209.8994,63.0755
210.0454,63.0150
210.0454,63.0150
210.2022,62.9943
210.2022,62.9943
210.3590,63.0150
210.3590,63.0150
210.5050,63.0755
210.5050,63.0755
210.6305,63.1717
210.6305,63.1717
210.7267,63.2972
210.7267,63.2972
210.7872,63.4432
210.7872,63.4432
210.8079,63.6000
210.8079,63.6000
210.7872,63.7568
210.7872,63.7568
210.7267,63.9028
210.7267,63.9028
210.7267,63.9028
210.6305,64.0283
210.6039,64.0487
210.5664,64.0774
210.5318,64.1279
210.5277,64.1560
210.5277,64.5042
210.5466,64.5624
210.5567,64.5742
213.3458,67.3633
213.3490,67.3662
213.3804,67.3925
213.3804,67.3925
213.4009,67.4281
213.4032,67.4317
213.4268,67.4653
213.4268,67.4653
213.4271,67.4668
213.4370,67.4906
213.4378,67.4919
213.4378,67.4920
213.4449,67.5323
213.4458,67.5366
213.4565,67.5762
213.4565,67.5762
213.4529,67.6171
213.4527,67.6214
213.4527,67.7005
213.4716,67.7587
213.5211,67.7947
213.5517,67.7995
214.5219,67.7995
214.5219,67.7995
214.5220,67.7995
214.5804,67.8111
214.5804,67.8111
214.6467,67.8554
214.6468,67.8555
214.6911,67.9218
214.6911,67.9218
214.7027,67.9802
214.7027,67.9803
214.7027,69.0197
214.7027,69.0198
214.6911,69.0782
214.6911,69.0782
214.6468,69.1446
214.5804,69.1889
214.5360,69.1977
214.5220,69.2005
214.5220,69.2005
214.5219,69.2005
214.5219,69.2005
211.7325,69.2005
211.7325,69.2005
211.6740,69.1889
211.6076,69.1446
211.5633,69.0782
211.5517,69.0197
211.5517,67.9803
211.5633,67.9218
211.6076,67.8554
211.6535,67.8248
211.6740,67.8111
211.6740,67.8111
211.6740,67.8111
211.6740,67.8111
211.7324,67.7995
211.7325,67.7995
211.7325,67.7995
212.6224,67.7995
212.6806,67.7806
212.7165,67.7311
212.7165,67.6699
212.6924,67.6305
209.9836,64.9217
209.9804,64.9188
209.9490,64.8925
209.9285,64.8569
209.9262,64.8533
209.9026,64.8197
209.9023,64.8182
209.8924,64.7943
209.8916,64.7930
209.8845,64.7527
209.8836,64.7485
209.8729,64.7088
209.8765,64.6679
209.8767,64.6636
209.8767,64.1560
209.8578,64.0978
209.8380,64.0774
209.7739,64.0283
209.6777,63.9028
209.6709,63.8866
209.6312,63.8401
209.5795,63.8255
208.8017,63.8255
208.7435,63.8444
208.7075,63.8939
208.7027,63.9245
208.7027,64.5197
208.7027,64.5198
208.6911,64.5782
208.6911,64.5782
208.6468,64.6445
208.6468,64.6446
208.5804,64.6889
208.5360,64.6977
208.5220,64.7005
208.5220,64.7005
208.5219,64.7005
208.5219,64.7005
207.4825,64.7005
207.4825,64.7005
207.4240,64.6889
207.3576,64.6446
207.3576,64.6446
207.3495,64.6391
207.3483,64.6410
207.3057,64.6194
207.2453,64.6289
207.2020,64.6722
207.1921,64.7301
207.2079,64.8500
207.2079,64.8500
207.1872,65.0068
207.1872,65.0068
207.1267,65.1528
207.1267,65.1528
207.1267,65.1528
207.0305,65.2783
207.0305,65.2783
207.0305,65.2783
207.0017,65.3004
206.9050,65.3745
206.9050,65.3745
206.9050,65.3745
206.7992,65.4184
206.7590,65.4350
206.6414,65.4505
206.6022,65.4557
206.6022,65.4557
206.6022,65.4557
206.5708,65.4516
206.4454,65.4350
206.2994,65.3745
206.2875,65.3654
206.2298,65.3450
206.1711,65.3624
206.1669,65.3654
206.1550,65.3745
206.1550,65.3745
206.1550,65.3745
206.0492,65.4184
206.0090,65.4350
205.8914,65.4505
205.8522,65.4557
205.8522,65.4557
205.8522,65.4557
205.8208,65.4516
205.6954,65.4350
205.5896,65.3912
205.5286,65.3864
205.4764,65.4184
205.4530,65.4749
205.4527,65.4827
205.4527,67.0742
205.4716,67.1324
205.4817,67.1442
206.1080,67.7705
206.1625,67.7983
206.1780,67.7995
208.2719,67.7995
208.2719,67.7995
208.2720,67.7995
208.3304,67.8111
208.3304,67.8111
208.3967,67.8554
208.3968,67.8555
208.4411,67.9218
208.4411,67.9218
208.4527,67.9802
208.4527,67.9803
208.4527,69.0197
208.4527,69.0198
208.4411,69.0782
208.4411,69.0782
208.3968,69.1446
208.3304,69.1889
208.2860,69.1977
208.2720,69.2005
208.2720,69.2005
208.2719,69.2005
208.2719,69.2005
205.4825,69.2005
205.4825,69.2005
205.4240,69.1889
205.3576,69.1446
205.3133,69.0782
205.3017,69.0197
205.3017,67.9803
205.3072,67.9526
205.3000,67.8918
205.2801,67.8632
205.1717,67.7548
205.1172,67.7271
205.0568,67.7366
205.0135,67.7799
205.0027,67.8248
205.0027,70.9978
205.0029,71.0022
205.0046,71.0214
205.0241,71.0675
205.0151,71.0830
205.0134,71.1136
205.0193,71.1738
205.0222,71.1897
205.0404,71.2576
205.0408,71.2591
205.0694,71.3533
205.0744,71.3664
205.1067,71.4357
205.1079,71.4381
205.1533,71.5230
205.1564,71.5281
205.2035,71.5952
205.2057,71.5982
205.2657,71.6713
205.2690,71.6749
205.3273,71.7332
205.3309,71.7365
205.4040,71.7965
205.4070,71.7987
205.4741,71.8458
205.4792,71.8489
205.5641,71.8943
205.5665,71.8955
205.6358,71.9278
205.6489,71.9328
205.7431,71.9614
205.7446,71.9618
205.8125,71.9800
205.8284,71.9829
205.9567,71.9955
206.0000,71.9993
206.0044,71.9995
211.6061,71.9995
211.6643,71.9806
211.7003,71.9311
211.7003,71.8699
211.6761,71.8305
211.6739,71.8283
211.6739,71.8283
211.5777,71.7028
211.5172,71.5568
211.4965,71.4000
211.5172,71.2432
211.5242,71.2262
211.5290,71.1652
211.4970,71.1131
211.4405,71.0897
211.4198,71.0902
211.3022,71.1057
211.3022,71.1057
211.3022,71.1057
211.2493,71.0987
211.1454,71.0850
211.0483,71.0448
208.5522,71.0448
208.5493,71.0699
208.5040,71.1725
208.4247,71.2518
208.3221,71.2971
208.2970,71.3000
207.0272,71.3000
207.0272,71.3000
206.7272,71.3000
206.7272,71.3000
205.4574,71.3000
205.4574,71.3000
205.4323,71.2971
205.3297,71.2518
205.2504,71.1725
205.2025,71.0639
205.1914,71.0516
205.2022,71.0128
205.2022,70.6500
205.2022,70.6500
206.7272,70.6500
206.7272,70.6500
206.7272,71.3000
207.0272,71.3000
207.0272,71.3000
207.0272,70.6500
207.0272,70.6500
208.5522,70.6500
208.5522,70.6500
208.5522,71.0448
211.0483,71.0448
210.9994,71.0245
210.8739,70.9283
210.7777,70.8028
210.7172,70.6568
210.6965,70.5000
210.7163,70.3500
208.5522,70.3500
208.5522,70.3500
207.0272,70.3500
207.0272,70.3500
206.7272,70.3500
206.7272,70.3500
205.2022,70.3500
205.2022,70.3500
205.2022,69.9552
205.2022,69.9552
205.2051,69.9301
205.2504,69.8275
205.3297,69.7482
205.4323,69.7029
205.4574,69.7000
206.7272,69.7000
206.7272,69.7000
206.7272,70.3500
207.0272,70.3500
207.0272,69.7000
207.0272,69.7000
208.2970,69.7000
208.2970,69.7000
208.3221,69.7029
208.4247,69.7482
208.5040,69.8275
208.5493,69.9301
208.5522,69.9552
208.5522,70.3500
210.7163,70.3500
210.7172,70.3432
210.7777,70.1972
210.7777,70.1972
210.8739,70.0717
210.8739,70.0717
210.8739,70.0717
210.8739,70.0717
210.8739,70.0717
210.9674,70.0000
210.9994,69.9755
210.9994,69.9755
210.9994,69.9755
211.1454,69.9150
211.1454,69.9150
211.3022,69.8943
211.3022,69.8943
211.4590,69.9150
211.4590,69.9150
211.4692,69.9192
211.5302,69.9240
211.5824,69.8920
211.5894,69.8827
211.6076,69.8554
211.6077,69.8554
211.6740,69.8111
211.6740,69.8111
211.6740,69.8111
211.6740,69.8111
211.7324,69.7995
211.7325,69.7995
214.5219,69.7995
214.5219,69.7995
214.5220,69.7995
214.5804,69.8111
214.5804,69.8111
214.6467,69.8554
214.6468,69.8555
214.6911,69.9218
214.6911,69.9218
214.7027,69.9802
214.7027,69.9803
214.7027,71.0197
214.7027,71.0198
214.6911,71.0782
214.6911,71.0782
214.6759,71.1009
214.6593,71.1598
214.6668,71.1938
214.6872,71.2432
214.6872,71.2432
214.7079,71.4000
214.7079,71.4000
214.6872,71.5568
214.6872,71.5568
214.6267,71.7028
214.6267,71.7028
214.5305,71.8283
214.5305,71.8283
214.5305,71.8283
214.5283,71.8305
214.5272,71.8325
214.5265,71.8334
214.5267,71.8336
214.5005,71.8850
214.5101,71.9454
214.5533,71.9887
214.5983,71.9995
228.0000,71.9995
228.0044,71.9993
228.0477,71.9955
228.1760,71.9829
228.1919,71.9800
228.2288,71.9701
228.2598,71.9618
228.2613,71.9614
228.3555,71.9328
228.3686,71.9278
228.4379,71.8955
228.4403,71.8943
228.5252,71.8489
228.5303,71.8458
228.5974,71.7987
228.6004,71.7965
228.6735,71.7365
228.6771,71.7332
228.7354,71.6749
228.7387,71.6713
228.7987,71.5982
228.8009,71.5952
228.8279,71.5568
228.8480,71.5280
228.8511,71.5230
228.8965,71.4381
228.8977,71.4357
228.9300,71.3664
228.9350,71.3533
228.9636,71.2590
228.9640,71.2576
228.9822,71.1897
228.9851,71.1738
228.9977,71.0454
228.9978,71.0448
229.0015,71.0021
229.0017,70.9978
229.0017,70.0000
228.3579,70.0000
228.3373,70.2354
228.2761,70.4637
228.1762,70.6778
228.1762,70.6778
228.0887,70.8028
228.0407,70.8714
227.8736,71.0385
227.8736,71.0385
227.8736,71.0385
227.8549,71.0516
227.6800,71.1740
227.6800,71.1740
227.6800,71.1740
227.6800,71.1740
227.4659,71.2739
227.4659,71.2739
227.2376,71.3351
227.2376,71.3351
227.2376,71.3351
227.0612,71.3505
227.0612,71.3505
226.9432,71.3505
226.7668,71.3351
226.7668,71.3351
226.7668,71.3351
226.5385,71.2739
226.3244,71.1740
226.1308,71.0385
225.9637,70.8714
225.8282,70.6778
225.7283,70.4637
225.6671,70.2354
225.6671,70.2354
225.6465,70.0000
225.6465,70.0000
225.6671,69.7646
225.6671,69.7646
225.6671,69.7646
225.7283,69.5363
225.8282,69.3222
225.9525,69.1446
225.9637,69.1286
225.9637,69.1286
225.9637,69.1286
226.1308,68.9615
226.1308,68.9615
226.1308,68.9615
226.3244,68.8260
226.3244,68.8260
226.5385,68.7261
226.5385,68.7261
226.6146,68.7057
226.7668,68.6649
226.7668,68.6649
226.7668,68.6649
226.9432,68.6495
226.9432,68.6495
227.0612,68.6495
227.0612,68.6495
227.2376,68.6649
227.4659,68.7261
227.6800,68.8260
227.6800,68.8260
227.8736,68.9615
228.0407,69.1286
228.1762,69.3222
228.2761,69.5363
228.3373,69.7646
228.3579,70.0000
228.3579,70.0000
229.0017,70.0000
229.0017,60.0000
223.1077,60.0000
223.0879,60.4913
223.0879,60.4913
223.0879,60.4913
223.0879,60.4913
223.0286,60.9794
223.0286,60.9794
222.9302,61.4611
222.9302,61.4611
222.7934,61.9334
222.7934,61.9334
222.6671,62.2665
222.6191,62.3931
222.4642,62.7195
222.4096,62.8346
222.4083,62.8373
222.1625,63.2632
222.1625,63.2632
221.8832,63.6678
221.5722,64.0487
221.2316,64.4033
221.2316,64.4033
220.9592,64.6445
220.8636,64.7293
220.8636,64.7293
220.4705,65.0247
220.2863,65.1412
220.0549,65.2875
220.0549,65.2875
220.0549,65.2875
220.0549,65.2875
219.6978,65.4749
219.6196,65.5160
219.1672,65.7087
218.9367,65.7857
218.7009,65.8644
218.7008,65.8644
218.7008,65.8644
218.2234,65.9821
217.7381,66.0609
217.2480,66.1005
217.2480,66.1005
216.7564,66.1005
216.7564,66.1005
216.2663,66.0609
215.7810,65.9821
215.3036,65.8644
214.8372,65.7087
214.3848,65.5160
214.1154,65.3745
213.9495,65.2875
213.9495,65.2875
213.9495,65.2875
213.5339,65.0247
213.1408,64.7293
212.7728,64.4033
212.4322,64.0487
212.1212,63.6678
211.8419,63.2632
211.5961,62.8373
211.3853,62.3931
211.2110,61.9334
211.2110,61.9334
211.2110,61.9334
211.0742,61.4611
211.0742,61.4611
211.0742,61.4611
210.9758,60.9794
210.9548,60.8061
210.9165,60.4913
210.9165,60.4913
210.9165,60.4913
210.8967,60.0000
210.9165,59.5087
210.9165,59.5087
210.9165,59.5087
210.9758,59.0206
210.9758,59.0206
211.0742,58.5389
211.0799,58.5189
211.2110,58.0666
211.2110,58.0666
211.2290,58.0189
211.3853,57.6069
211.5961,57.1627
211.8419,56.7368
211.9816,56.5345
212.1212,56.3322
212.4322,55.9513
212.7728,55.5967
212.9043,55.4802
213.0488,55.3522
213.1408,55.2707
213.1408,55.2707
213.5339,54.9753
213.8252,54.7911
213.9495,54.7125
213.9495,54.7125
213.9495,54.7125
213.9495,54.7125
214.3848,54.4840
214.3848,54.4840
214.3848,54.4840
214.3848,54.4840
214.8372,54.2913
214.8372,54.2913
214.8372,54.2913
215.3035,54.1356
215.3036,54.1356
215.6649,54.0465
215.7810,54.0179
216.2663,53.9391
216.2663,53.9391
216.5412,53.9169
216.7564,53.8995
217.2480,53.8995
217.4459,53.9155
217.7381,53.9391
218.2234,54.0179
218.7008,54.1356
218.7009,54.1356
219.1672,54.2913
219.4598,54.4160
219.6196,54.4840
219.6196,54.4840
219.6196,54.4840
219.6196,54.4840
220.0549,54.7125
220.0549,54.7125
220.4705,54.9753
220.8636,55.2707
220.8636,55.2707
221.2316,55.5967
221.5722,55.9513
221.8832,56.3322
222.1625,56.7368
222.4083,57.1627
222.6191,57.6069
222.7934,58.0666
222.7934,58.0666
222.9302,58.5389
222.9302,58.5389
223.0286,59.0206
223.0286,59.0206
223.0879,59.5087
223.0879,59.5087
223.0879,59.5087
223.0879,59.5087
223.1077,60.0000
229.0017,60.0000
229.0017,50.0000
228.3579,50.0000
228.3373,50.2354
228.2761,50.4637
228.1762,50.6778
228.1762,50.6778
228.1762,50.6778
228.1762,50.6778
228.0407,50.8714
227.8736,51.0385
227.6800,51.1740
227.6800,51.1740
227.6800,51.1740
227.6800,51.1740
227.4659,51.2739
227.4659,51.2739
227.2376,51.3351
227.2376,51.3351
227.2376,51.3351
227.0612,51.3505
227.0612,51.3505
226.9432,51.3505
226.7668,51.3351
226.7668,51.3351
226.7668,51.3351
226.5385,51.2739
226.3244,51.1740
226.1308,51.0385
225.9637,50.8714
225.8282,50.6778
225.7283,50.4637
225.6671,50.2354
225.6465,50.0000
208.3579,50.0000
208.3373,50.2354
208.2761,50.4637
208.1762,50.6778
208.1762,50.6778
208.1762,50.6778
208.1762,50.6778
208.0407,50.8714
207.8736,51.0385
207.6800,51.1740
207.6800,51.1740
207.6800,51.1740
207.6800,51.1740
207.4659,51.2739
207.4659,51.2739
207.2376,51.3351
207.2376,51.3351
207.2376,51.3351
207.0612,51.3505
207.0612,51.3505
206.9432,51.3505
206.7668,51.3351
206.7668,51.3351
206.7668,51.3351
206.5385,51.2739
206.3244,51.1740
206.1308,51.0385
205.9637,50.8714
205.8282,50.6778
205.7283,50.4637
205.6671,50.2354
205.6465,50.0000
205.6671,49.7646
205.7283,49.5363
205.8282,49.3222
205.9637,49.1286
206.1308,48.9615
206.1308,48.9615
206.1308,48.9615
206.3240,48.8262
206.3244,48.8260
206.3244,48.8260
206.3244,48.8260
206.3244,48.8260
206.5385,48.7261
206.5385,48.7261
206.6146,48.7057
206.7668,48.6649
206.7668,48.6649
206.7668,48.6649
206.9432,48.6495
206.9432,48.6495
207.0612,48.6495
207.0612,48.6495
207.2376,48.6649
207.4659,48.7261
207.6800,48.8260
207.6800,48.8260
207.8736,48.9615
208.0407,49.1286
208.1762,49.3222
208.2761,49.5363
208.3373,49.7646
208.3579,50.0000
208.3579,50.0000
225.6465,50.0000
225.6465,50.0000
225.6671,49.7646
225.7283,49.5363
225.8282,49.3222
225.9637,49.1286
226.1308,48.9615
226.1308,48.9615
226.1308,48.9615
226.3240,48.8262
226.3244,48.8260
226.3244,48.8260
226.3244,48.8260
226.3244,48.8260
226.5385,48.7261
226.5385,48.7261
226.6146,48.7057
226.7668,48.6649
226.7668,48.6649
226.7668,48.6649
226.9432,48.6495
226.9432,48.6495
227.0612,48.6495
227.0612,48.6495
227.2376,48.6649
227.4659,48.7261
227.6800,48.8260
227.6800,48.8260
227.8736,48.9615
228.0407,49.1286
228.1762,49.3222
228.2761,49.5363
228.3373,49.7646
228.3579,50.0000
228.3579,50.0000
229.0017,50.0000
229.0017,49.0022
229.0015,48.9979
228.9977,48.9545
228.9851,48.8262
228.9822,48.8103
228.9640,48.7423
228.9636,48.7410
228.9350,48.6467
228.9300,48.6336
228.9029,48.5756
228.8976,48.5643
228.8965,48.5619
228.8511,48.4770
228.8480,48.4720
228.8009,48.4048
228.7987,48.4018
228.7387,48.3287
228.7355,48.3251
228.6771,48.2667
228.6735,48.2635
228.6004,48.2035
228.5974,48.2013
228.5302,48.1542
228.5252,48.1511
228.4403,48.1057
228.4379,48.1046
228.3686,48.0722
228.3555,48.0672
228.2612,48.0386
228.2599,48.0382
228.1919,48.0200
228.1760,48.0171
228.0477,48.0045
228.0043,48.0007
228.0000,48.0005
206.0044,48.0005
Z" /> 
</g>
</g>
</g>
<g style="fill:#FFFFFF; fill-opacity:1.0000; 
stroke:#FFFFFF; stroke-width:0.0000; stroke-opacity:1; 
stroke-linecap:round; stroke-linejoin:round;">
<circle cx="210.2022" cy="63.6000" r="0.2000" /> 
</g>
<g style="fill:#FFFFFF; fill-opacity:1.0000; 
stroke:#FFFFFF; stroke-width:0.0212; stroke-opacity:1; 
stroke-linecap:round; stroke-linejoin:round;">
</g>
<g style="fill:#FFFFFF; fill-opacity:1.0000; 
stroke:#FFFFFF; stroke-width:0.0000; stroke-opacity:1; 
stroke-linecap:round; stroke-linejoin:round;">
<circle cx="223.0022" cy="52.0000" r="0.2000" /> 
</g>
<g style="fill:#FFFFFF; fill-opacity:1.0000; 
stroke:#FFFFFF; stroke-width:0.0212; stroke-opacity:1; 
stroke-linecap:round; stroke-linejoin:round;">
</g>
<g style="fill:#FFFFFF; fill-opacity:1.0000; 
stroke:#FFFFFF; stroke-width:0.0000; stroke-opacity:1; 
stroke-linecap:round; stroke-linejoin:round;">
<circle cx="226.9304" cy="61.1962" r="0.2000" /> 
</g>
<g style="fill:#FFFFFF; fill-opacity:1.0000; 
stroke:#FFFFFF; stroke-width:0.0212; stroke-opacity:1; 
stroke-linecap:round; stroke-linejoin:round;">
</g>
<g style="fill:#FFFFFF; fill-opacity:1.0000; 
stroke:#FFFFFF; stroke-width:0.0000; stroke-opacity:1; 
stroke-linecap:round; stroke-linejoin:round;">
<circle cx="220.9304" cy="69.1962" r="0.2000" /> 
</g>
<g style="fill:#FFFFFF; fill-opacity:1.0000; 
stroke:#FFFFFF; stroke-width:0.0212; stroke-opacity:1; 
stroke-linecap:round; stroke-linejoin:round;">
</g>
<g style="fill:#FFFFFF; fill-opacity:1.0000; 
stroke:#FFFFFF; stroke-width:0.0000; stroke-opacity:1; 
stroke-linecap:round; stroke-linejoin:round;">
<circle cx="206.9227" cy="57.3650" r="0.2000" /> 
</g>
<g style="fill:#FFFFFF; fill-opacity:1.0000; 
stroke:#FFFFFF; stroke-width:0.0212; stroke-opacity:1; 
stroke-linecap:round; stroke-linejoin:round;">
</g>
<g style="fill:#FFFFFF; fill-opacity:1.0000; 
stroke:#FFFFFF; stroke-width:0.0000; stroke-opacity:1; 
stroke-linecap:round; stroke-linejoin:round;">
<circle cx="215.8060" cy="69.9282" r="0.2000" /> 
</g>
<g style="fill:#FFFFFF; fill-opacity:1.0000; 
stroke:#FFFFFF; stroke-width:0.0212; stroke-opacity:1; 
stroke-linecap:round; stroke-linejoin:round;">
</g>
<g style="fill:#FFFFFF; fill-opacity:1.0000; 
stroke:#FFFFFF; stroke-width:0.0000; stroke-opacity:1; 
stroke-linecap:round; stroke-linejoin:round;">
<circle cx="213.0740" cy="50.8038" r="0.2000" /> 
</g>
<g style="fill:#FFFFFF; fill-opacity:1.0000; 
stroke:#FFFFFF; stroke-width:0.0212; stroke-opacity:1; 
stroke-linecap:round; stroke-linejoin:round;">
</g>
<g style="fill:#FFFFFF; fill-opacity:1.0000; 
stroke:#FFFFFF; stroke-width:0.0000; stroke-opacity:1; 
stroke-linecap:round; stroke-linejoin:round;">
<circle cx="225.0022" cy="66.0000" r="0.2000" /> 
</g>
<g style="fill:#FFFFFF; fill-opacity:1.0000; 
stroke:#FFFFFF; stroke-width:0.0212; stroke-opacity:1; 
stroke-linecap:round; stroke-linejoin:round;">
</g>
<g style="fill:#FFFFFF; fill-opacity:1.0000; 
stroke:#FFFFFF; stroke-width:0.0000; stroke-opacity:1; 
stroke-linecap:round; stroke-linejoin:round;">
<circle cx="211.0022" cy="67.9400" r="0.2000" /> 
</g>
<g style="fill:#FFFFFF; fill-opacity:1.0000; 
stroke:#FFFFFF; stroke-width:0.0212; stroke-opacity:1; 
stroke-linecap:round; stroke-linejoin:round;">
</g>
<g style="fill:#FFFFFF; fill-opacity:1.0000; 
stroke:#FFFFFF; stroke-width:0.0000; stroke-opacity:1; 
stroke-linecap:round; stroke-linejoin:round;">
<circle cx="226.1984" cy="56.0718" r="0.2000" /> 
</g>
<g style="fill:#FFFFFF; fill-opacity:1.0000; 
stroke:#FFFFFF; stroke-width:0.0212; stroke-opacity:1; 
stroke-linecap:round; stroke-linejoin:round;">
</g>
<g style="fill:#FFFFFF; fill-opacity:1.0000; 
stroke:#FFFFFF; stroke-width:0.0000; stroke-opacity:1; 
stroke-linecap:round; stroke-linejoin:round;">
<circle cx="209.0022" cy="54.0000" r="0.2000" /> 
</g>
<g style="fill:#FFFFFF; fill-opacity:1.0000; 
stroke:#FFFFFF; stroke-width:0.0212; stroke-opacity:1; 
stroke-linecap:round; stroke-linejoin:round;">
</g>
<g style="fill:#FFFFFF; fill-opacity:1.0000; 
stroke:#FFFFFF; stroke-width:0.0000; stroke-opacity:1; 
stroke-linecap:round; stroke-linejoin:round;">
<circle cx="208.7422" cy="66.0200" r="0.2000" /> 
</g>
<g style="fill:#FFFFFF; fill-opacity:1.0000; 
stroke:#FFFFFF; stroke-width:0.0212; stroke-opacity:1; 
stroke-linecap:round; stroke-linejoin:round;">
</g>
<g style="fill:#FFFFFF; fill-opacity:1.0000; 
stroke:#FFFFFF; stroke-width:0.0000; stroke-opacity:1; 
stroke-linecap:round; stroke-linejoin:round;">
<circle cx="218.1984" cy="50.0718" r="0.2000" /> 
</g>
<g style="fill:#FFFFFF; fill-opacity:1.0000; 
stroke:#FFFFFF; stroke-width:0.0212; stroke-opacity:1; 
stroke-linecap:round; stroke-linejoin:round;">
</g>
<g style="fill:#FFFFFF; fill-opacity:1.0000; 
stroke:#FFFFFF; stroke-width:0.0000; stroke-opacity:1; 
stroke-linecap:round; stroke-linejoin:round;">
<circle cx="206.6022" cy="61.4000" r="0.2000" /> 
</g>
<g style="fill:#FFFFFF; fill-opacity:1.0000; 
stroke:#FFFFFF; stroke-width:0.0212; stroke-opacity:1; 
stroke-linecap:round; stroke-linejoin:round;">
</g>
<g style="fill:#FFFFFF; fill-opacity:1.0000; 
stroke:#FFFFFF; stroke-width:0.0000; stroke-opacity:1; 
stroke-linecap:round; stroke-linejoin:round;">
<circle cx="214.1022" cy="71.4000" r="0.2000" /> 
</g>
<g style="fill:#FFFFFF; fill-opacity:1.0000; 
stroke:#FFFFFF; stroke-width:0.0212; stroke-opacity:1; 
stroke-linecap:round; stroke-linejoin:round;">
</g>
<g style="fill:#FFFFFF; fill-opacity:1.0000; 
stroke:#FFFFFF; stroke-width:0.0000; stroke-opacity:1; 
stroke-linecap:round; stroke-linejoin:round;">
<circle cx="205.8522" cy="61.4000" r="0.2000" /> 
</g>
<g style="fill:#FFFFFF; fill-opacity:1.0000; 
stroke:#FFFFFF; stroke-width:0.0212; stroke-opacity:1; 
stroke-linecap:round; stroke-linejoin:round;">
</g>
<g style="fill:#FFFFFF; fill-opacity:1.0000; 
stroke:#FFFFFF; stroke-width:0.0000; stroke-opacity:1; 
stroke-linecap:round; stroke-linejoin:round;">
<circle cx="205.8522" cy="64.8500" r="0.2000" /> 
</g>
<g style="fill:#FFFFFF; fill-opacity:1.0000; 
stroke:#FFFFFF; stroke-width:0.0212; stroke-opacity:1; 
stroke-linecap:round; stroke-linejoin:round;">
</g>
<g style="fill:#FFFFFF; fill-opacity:1.0000; 
stroke:#FFFFFF; stroke-width:0.0000; stroke-opacity:1; 
stroke-linecap:round; stroke-linejoin:round;">
<circle cx="206.6022" cy="64.8500" r="0.2000" /> 
</g>
<g style="fill:#FFFFFF; fill-opacity:1.0000; 
stroke:#FFFFFF; stroke-width:0.0212; stroke-opacity:1; 
stroke-linecap:round; stroke-linejoin:round;">
</g>
<g style="fill:#FFFFFF; fill-opacity:1.0000; 
stroke:#FFFFFF; stroke-width:0.0000; stroke-opacity:1; 
stroke-linecap:round; stroke-linejoin:round;">
<circle cx="212.1022" cy="71.4000" r="0.2000" /> 
</g>
<g style="fill:#FFFFFF; fill-opacity:1.0000; 
stroke:#FFFFFF; stroke-width:0.0212; stroke-opacity:1; 
stroke-linecap:round; stroke-linejoin:round;">
</g>
<g style="fill:#FFFFFF; fill-opacity:1.0000; 
stroke:#FFFFFF; stroke-width:0.0000; stroke-opacity:1; 
stroke-linecap:round; stroke-linejoin:round;">
<circle cx="211.3022" cy="70.5000" r="0.2000" /> 
</g>
<g style="fill:#FFFFFF; fill-opacity:1.0000; 
stroke:#FFFFFF; stroke-width:0.0212; stroke-opacity:1; 
stroke-linecap:round; stroke-linejoin:round;">
</g>
<g style="fill:#FFFFFF; fill-opacity:1.0000; 
stroke:#FFFFFF; stroke-width:0.0000; stroke-opacity:1; 
stroke-linecap:round; stroke-linejoin:round;">
<circle cx="213.1022" cy="71.4000" r="0.2000" /> 
</g>
<g style="fill:#FFFFFF; fill-opacity:1.0000; 
stroke:#FFFFFF; stroke-width:0.0212; stroke-opacity:1; 
stroke-linecap:round; stroke-linejoin:round;">
</g>
<g style="fill:#FFFFFF; fill-opacity:1.0000; 
stroke:#FFFFFF; stroke-width:0.0000; stroke-opacity:1; 
stroke-linecap:round; stroke-linejoin:round;">
<circle cx="209.0922" cy="61.1500" r="0.2000" /> 
</g>
<g style="fill:#FFFFFF; fill-opacity:1.0000; 
stroke:#FFFFFF; stroke-width:0.0212; stroke-opacity:1; 
stroke-linecap:round; stroke-linejoin:round;">
</g>
<g style="fill:#FFFFFF; fill-opacity:1.0000; 
stroke:#FFFFFF; stroke-width:0.0000; stroke-opacity:1; 
stroke-linecap:round; stroke-linejoin:round;">
<circle cx="207.0022" cy="50.0000" r="1.1000" /> 
</g>
<g style="fill:#FFFFFF; fill-opacity:1.0000; 
stroke:#FFFFFF; stroke-width:0.0212; stroke-opacity:1; 
stroke-linecap:round; stroke-linejoin:round;">
</g>
<g style="fill:#FFFFFF; fill-opacity:1.0000; 
stroke:#FFFFFF; stroke-width:0.0000; stroke-opacity:1; 
stroke-linecap:round; stroke-linejoin:round;">
<circle cx="227.0022" cy="50.0000" r="1.1000" /> 
</g>
<g style="fill:#FFFFFF; fill-opacity:1.0000; 
stroke:#FFFFFF; stroke-width:0.0212; stroke-opacity:1; 
stroke-linecap:round; stroke-linejoin:round;">
</g>
<g style="fill:#FFFFFF; fill-opacity:1.0000; 
stroke:#FFFFFF; stroke-width:0.0000; stroke-opacity:1; 
stroke-linecap:round; stroke-linejoin:round;">
<circle cx="227.0022" cy="70.0000" r="1.1000" /> 
</g>
<g style="fill:#FFFFFF; fill-opacity:1.0000; 
stroke:#FFFFFF; stroke-width:0.0212; stroke-opacity:1; 
stroke-linecap:round; stroke-linejoin:round;">
</g>
<g style="fill:#000000; fill-opacity:1.0000; 
stroke:#000000; stroke-width:0.0212; stroke-opacity:1; 
stroke-linecap:round; stroke-linejoin:round;">
</g> 
</svg>
