<?xml version="1.0" standalone="no"?>
 <!DOCTYPE svg PUBLIC "-//W3C//DTD SVG 1.1//EN" 
 "http://www.w3.org/Graphics/SVG/1.1/DTD/svg11.dtd"> 
<svg
  xmlns:svg="http://www.w3.org/2000/svg"
  xmlns="http://www.w3.org/2000/svg"
  xmlns:xlink="http://www.w3.org/1999/xlink"
  version="1.1"
  width="297.0022mm" height="210.0072mm" viewBox="0.0000 0.0000 297.0022 210.0072">
<title>SVG Image created as pedalboard-led-ring-B_Silkscreen.svg date 2023/05/29 10:58:20 </title>
  <desc>Image generated by PCBNEW </desc>
<g style="fill:#000000; fill-opacity:1.0000;stroke:#000000; stroke-opacity:1.0000;
stroke-linecap:round; stroke-linejoin:round;"
 transform="translate(0 0) scale(1 1)">
</g>
<g style="fill:#000000; fill-opacity:0.0; 
stroke:#000000; stroke-width:0.0000; stroke-opacity:1; 
stroke-linecap:round; stroke-linejoin:round;">
</g>
<g style="fill:#000000; fill-opacity:0.0; 
stroke:#000000; stroke-width:0.1000; stroke-opacity:1; 
stroke-linecap:round; stroke-linejoin:round;">
<circle cx="217.0022" cy="60.0000" r="7.0500" /> 
</g>
<g style="fill:#000000; fill-opacity:0.0; 
stroke:#000000; stroke-width:0.1500; stroke-opacity:1; 
stroke-linecap:round; stroke-linejoin:round;">
<text x="230.5022" y="47.7600"
transform="scale(-1 1) translate(-461.004400 0)"
textLength="16.1274" font-size="1.3333" lengthAdjust="spacingAndGlyphs"
text-anchor="end" opacity="0">Pedalboard LED Ring</text>
<g class="stroked-text"><desc>Pedalboard LED Ring</desc>
<path d="M214.7879 47.6376
L214.7879 46.6376
" />
<path d="M214.7879 46.6376
L215.1689 46.6376
" />
<path d="M215.1689 46.6376
L215.2641 46.6852
" />
<path d="M215.2641 46.6852
L215.3117 46.7329
" />
<path d="M215.3117 46.7329
L215.3593 46.8281
" />
<path d="M215.3593 46.8281
L215.3593 46.9710
" />
<path d="M215.3593 46.9710
L215.3117 47.0662
" />
<path d="M215.3117 47.0662
L215.2641 47.1138
" />
<path d="M215.2641 47.1138
L215.1689 47.1614
" />
<path d="M215.1689 47.1614
L214.7879 47.1614
" />
<path d="M216.1689 47.5900
L216.0736 47.6376
" />
<path d="M216.0736 47.6376
L215.8832 47.6376
" />
<path d="M215.8832 47.6376
L215.7879 47.5900
" />
<path d="M215.7879 47.5900
L215.7403 47.4948
" />
<path d="M215.7403 47.4948
L215.7403 47.1138
" />
<path d="M215.7403 47.1138
L215.7879 47.0186
" />
<path d="M215.7879 47.0186
L215.8832 46.9710
" />
<path d="M215.8832 46.9710
L216.0736 46.9710
" />
<path d="M216.0736 46.9710
L216.1689 47.0186
" />
<path d="M216.1689 47.0186
L216.2165 47.1138
" />
<path d="M216.2165 47.1138
L216.2165 47.2090
" />
<path d="M216.2165 47.2090
L215.7403 47.3043
" />
<path d="M217.0736 47.6376
L217.0736 46.6376
" />
<path d="M217.0736 47.5900
L216.9784 47.6376
" />
<path d="M216.9784 47.6376
L216.7879 47.6376
" />
<path d="M216.7879 47.6376
L216.6927 47.5900
" />
<path d="M216.6927 47.5900
L216.6451 47.5424
" />
<path d="M216.6451 47.5424
L216.5974 47.4471
" />
<path d="M216.5974 47.4471
L216.5974 47.1614
" />
<path d="M216.5974 47.1614
L216.6451 47.0662
" />
<path d="M216.6451 47.0662
L216.6927 47.0186
" />
<path d="M216.6927 47.0186
L216.7879 46.9710
" />
<path d="M216.7879 46.9710
L216.9784 46.9710
" />
<path d="M216.9784 46.9710
L217.0736 47.0186
" />
<path d="M217.9784 47.6376
L217.9784 47.1138
" />
<path d="M217.9784 47.1138
L217.9308 47.0186
" />
<path d="M217.9308 47.0186
L217.8355 46.9710
" />
<path d="M217.8355 46.9710
L217.6451 46.9710
" />
<path d="M217.6451 46.9710
L217.5498 47.0186
" />
<path d="M217.9784 47.5900
L217.8832 47.6376
" />
<path d="M217.8832 47.6376
L217.6451 47.6376
" />
<path d="M217.6451 47.6376
L217.5498 47.5900
" />
<path d="M217.5498 47.5900
L217.5022 47.4948
" />
<path d="M217.5022 47.4948
L217.5022 47.3995
" />
<path d="M217.5022 47.3995
L217.5498 47.3043
" />
<path d="M217.5498 47.3043
L217.6451 47.2567
" />
<path d="M217.6451 47.2567
L217.8832 47.2567
" />
<path d="M217.8832 47.2567
L217.9784 47.2090
" />
<path d="M218.5974 47.6376
L218.5022 47.5900
" />
<path d="M218.5022 47.5900
L218.4546 47.4948
" />
<path d="M218.4546 47.4948
L218.4546 46.6376
" />
<path d="M218.9784 47.6376
L218.9784 46.6376
" />
<path d="M218.9784 47.0186
L219.0736 46.9710
" />
<path d="M219.0736 46.9710
L219.2641 46.9710
" />
<path d="M219.2641 46.9710
L219.3593 47.0186
" />
<path d="M219.3593 47.0186
L219.4070 47.0662
" />
<path d="M219.4070 47.0662
L219.4546 47.1614
" />
<path d="M219.4546 47.1614
L219.4546 47.4471
" />
<path d="M219.4546 47.4471
L219.4070 47.5424
" />
<path d="M219.4070 47.5424
L219.3593 47.5900
" />
<path d="M219.3593 47.5900
L219.2641 47.6376
" />
<path d="M219.2641 47.6376
L219.0736 47.6376
" />
<path d="M219.0736 47.6376
L218.9784 47.5900
" />
<path d="M220.0260 47.6376
L219.9308 47.5900
" />
<path d="M219.9308 47.5900
L219.8832 47.5424
" />
<path d="M219.8832 47.5424
L219.8355 47.4471
" />
<path d="M219.8355 47.4471
L219.8355 47.1614
" />
<path d="M219.8355 47.1614
L219.8832 47.0662
" />
<path d="M219.8832 47.0662
L219.9308 47.0186
" />
<path d="M219.9308 47.0186
L220.0260 46.9710
" />
<path d="M220.0260 46.9710
L220.1689 46.9710
" />
<path d="M220.1689 46.9710
L220.2641 47.0186
" />
<path d="M220.2641 47.0186
L220.3117 47.0662
" />
<path d="M220.3117 47.0662
L220.3593 47.1614
" />
<path d="M220.3593 47.1614
L220.3593 47.4471
" />
<path d="M220.3593 47.4471
L220.3117 47.5424
" />
<path d="M220.3117 47.5424
L220.2641 47.5900
" />
<path d="M220.2641 47.5900
L220.1689 47.6376
" />
<path d="M220.1689 47.6376
L220.0260 47.6376
" />
<path d="M221.2165 47.6376
L221.2165 47.1138
" />
<path d="M221.2165 47.1138
L221.1689 47.0186
" />
<path d="M221.1689 47.0186
L221.0736 46.9710
" />
<path d="M221.0736 46.9710
L220.8832 46.9710
" />
<path d="M220.8832 46.9710
L220.7879 47.0186
" />
<path d="M221.2165 47.5900
L221.1212 47.6376
" />
<path d="M221.1212 47.6376
L220.8832 47.6376
" />
<path d="M220.8832 47.6376
L220.7879 47.5900
" />
<path d="M220.7879 47.5900
L220.7403 47.4948
" />
<path d="M220.7403 47.4948
L220.7403 47.3995
" />
<path d="M220.7403 47.3995
L220.7879 47.3043
" />
<path d="M220.7879 47.3043
L220.8832 47.2567
" />
<path d="M220.8832 47.2567
L221.1212 47.2567
" />
<path d="M221.1212 47.2567
L221.2165 47.2090
" />
<path d="M221.6927 47.6376
L221.6927 46.9710
" />
<path d="M221.6927 47.1614
L221.7403 47.0662
" />
<path d="M221.7403 47.0662
L221.7879 47.0186
" />
<path d="M221.7879 47.0186
L221.8832 46.9710
" />
<path d="M221.8832 46.9710
L221.9784 46.9710
" />
<path d="M222.7403 47.6376
L222.7403 46.6376
" />
<path d="M222.7403 47.5900
L222.6451 47.6376
" />
<path d="M222.6451 47.6376
L222.4546 47.6376
" />
<path d="M222.4546 47.6376
L222.3593 47.5900
" />
<path d="M222.3593 47.5900
L222.3117 47.5424
" />
<path d="M222.3117 47.5424
L222.2641 47.4471
" />
<path d="M222.2641 47.4471
L222.2641 47.1614
" />
<path d="M222.2641 47.1614
L222.3117 47.0662
" />
<path d="M222.3117 47.0662
L222.3593 47.0186
" />
<path d="M222.3593 47.0186
L222.4546 46.9710
" />
<path d="M222.4546 46.9710
L222.6451 46.9710
" />
<path d="M222.6451 46.9710
L222.7403 47.0186
" />
<path d="M224.4546 47.6376
L223.9784 47.6376
" />
<path d="M223.9784 47.6376
L223.9784 46.6376
" />
<path d="M224.7879 47.1138
L225.1212 47.1138
" />
<path d="M225.2641 47.6376
L224.7879 47.6376
" />
<path d="M224.7879 47.6376
L224.7879 46.6376
" />
<path d="M224.7879 46.6376
L225.2641 46.6376
" />
<path d="M225.6927 47.6376
L225.6927 46.6376
" />
<path d="M225.6927 46.6376
L225.9308 46.6376
" />
<path d="M225.9308 46.6376
L226.0736 46.6852
" />
<path d="M226.0736 46.6852
L226.1689 46.7805
" />
<path d="M226.1689 46.7805
L226.2165 46.8757
" />
<path d="M226.2165 46.8757
L226.2641 47.0662
" />
<path d="M226.2641 47.0662
L226.2641 47.2090
" />
<path d="M226.2641 47.2090
L226.2165 47.3995
" />
<path d="M226.2165 47.3995
L226.1689 47.4948
" />
<path d="M226.1689 47.4948
L226.0736 47.5900
" />
<path d="M226.0736 47.5900
L225.9308 47.6376
" />
<path d="M225.9308 47.6376
L225.6927 47.6376
" />
<path d="M228.0260 47.6376
L227.6927 47.1614
" />
<path d="M227.4546 47.6376
L227.4546 46.6376
" />
<path d="M227.4546 46.6376
L227.8355 46.6376
" />
<path d="M227.8355 46.6376
L227.9308 46.6852
" />
<path d="M227.9308 46.6852
L227.9784 46.7329
" />
<path d="M227.9784 46.7329
L228.0260 46.8281
" />
<path d="M228.0260 46.8281
L228.0260 46.9710
" />
<path d="M228.0260 46.9710
L227.9784 47.0662
" />
<path d="M227.9784 47.0662
L227.9308 47.1138
" />
<path d="M227.9308 47.1138
L227.8355 47.1614
" />
<path d="M227.8355 47.1614
L227.4546 47.1614
" />
<path d="M228.4546 47.6376
L228.4546 46.9710
" />
<path d="M228.4546 46.6376
L228.4070 46.6852
" />
<path d="M228.4070 46.6852
L228.4546 46.7329
" />
<path d="M228.4546 46.7329
L228.5022 46.6852
" />
<path d="M228.5022 46.6852
L228.4546 46.6376
" />
<path d="M228.4546 46.6376
L228.4546 46.7329
" />
<path d="M228.9308 46.9710
L228.9308 47.6376
" />
<path d="M228.9308 47.0662
L228.9784 47.0186
" />
<path d="M228.9784 47.0186
L229.0736 46.9710
" />
<path d="M229.0736 46.9710
L229.2165 46.9710
" />
<path d="M229.2165 46.9710
L229.3117 47.0186
" />
<path d="M229.3117 47.0186
L229.3593 47.1138
" />
<path d="M229.3593 47.1138
L229.3593 47.6376
" />
<path d="M230.2641 46.9710
L230.2641 47.7805
" />
<path d="M230.2641 47.7805
L230.2165 47.8757
" />
<path d="M230.2165 47.8757
L230.1689 47.9233
" />
<path d="M230.1689 47.9233
L230.0736 47.9710
" />
<path d="M230.0736 47.9710
L229.9308 47.9710
" />
<path d="M229.9308 47.9710
L229.8355 47.9233
" />
<path d="M230.2641 47.5900
L230.1689 47.6376
" />
<path d="M230.1689 47.6376
L229.9784 47.6376
" />
<path d="M229.9784 47.6376
L229.8832 47.5900
" />
<path d="M229.8832 47.5900
L229.8355 47.5424
" />
<path d="M229.8355 47.5424
L229.7879 47.4471
" />
<path d="M229.7879 47.4471
L229.7879 47.1614
" />
<path d="M229.7879 47.1614
L229.8355 47.0662
" />
<path d="M229.8355 47.0662
L229.8832 47.0186
" />
<path d="M229.8832 47.0186
L229.9784 46.9710
" />
<path d="M229.9784 46.9710
L230.1689 46.9710
" />
<path d="M230.1689 46.9710
L230.2641 47.0186
" />
</g><text x="230.5022" y="49.3800"
transform="scale(-1 1) translate(-461.004400 0)"
textLength="24.1274" font-size="1.3333" lengthAdjust="spacingAndGlyphs"
text-anchor="end" opacity="0">https://github.com/pedalboard</text>
<g class="stroked-text"><desc>https://github.com/pedalboard</desc>
<path d="M206.7879 49.2576
L206.7879 48.2576
" />
<path d="M207.2165 49.2576
L207.2165 48.7338
" />
<path d="M207.2165 48.7338
L207.1689 48.6386
" />
<path d="M207.1689 48.6386
L207.0736 48.5910
" />
<path d="M207.0736 48.5910
L206.9308 48.5910
" />
<path d="M206.9308 48.5910
L206.8355 48.6386
" />
<path d="M206.8355 48.6386
L206.7879 48.6862
" />
<path d="M207.5498 48.5910
L207.9308 48.5910
" />
<path d="M207.6927 48.2576
L207.6927 49.1148
" />
<path d="M207.6927 49.1148
L207.7403 49.2100
" />
<path d="M207.7403 49.2100
L207.8355 49.2576
" />
<path d="M207.8355 49.2576
L207.9308 49.2576
" />
<path d="M208.1212 48.5910
L208.5022 48.5910
" />
<path d="M208.2641 48.2576
L208.2641 49.1148
" />
<path d="M208.2641 49.1148
L208.3117 49.2100
" />
<path d="M208.3117 49.2100
L208.4070 49.2576
" />
<path d="M208.4070 49.2576
L208.5022 49.2576
" />
<path d="M208.8355 48.5910
L208.8355 49.5910
" />
<path d="M208.8355 48.6386
L208.9308 48.5910
" />
<path d="M208.9308 48.5910
L209.1212 48.5910
" />
<path d="M209.1212 48.5910
L209.2165 48.6386
" />
<path d="M209.2165 48.6386
L209.2641 48.6862
" />
<path d="M209.2641 48.6862
L209.3117 48.7814
" />
<path d="M209.3117 48.7814
L209.3117 49.0671
" />
<path d="M209.3117 49.0671
L209.2641 49.1624
" />
<path d="M209.2641 49.1624
L209.2165 49.2100
" />
<path d="M209.2165 49.2100
L209.1212 49.2576
" />
<path d="M209.1212 49.2576
L208.9308 49.2576
" />
<path d="M208.9308 49.2576
L208.8355 49.2100
" />
<path d="M209.6927 49.2100
L209.7879 49.2576
" />
<path d="M209.7879 49.2576
L209.9784 49.2576
" />
<path d="M209.9784 49.2576
L210.0736 49.2100
" />
<path d="M210.0736 49.2100
L210.1212 49.1148
" />
<path d="M210.1212 49.1148
L210.1212 49.0671
" />
<path d="M210.1212 49.0671
L210.0736 48.9719
" />
<path d="M210.0736 48.9719
L209.9784 48.9243
" />
<path d="M209.9784 48.9243
L209.8355 48.9243
" />
<path d="M209.8355 48.9243
L209.7403 48.8767
" />
<path d="M209.7403 48.8767
L209.6927 48.7814
" />
<path d="M209.6927 48.7814
L209.6927 48.7338
" />
<path d="M209.6927 48.7338
L209.7403 48.6386
" />
<path d="M209.7403 48.6386
L209.8355 48.5910
" />
<path d="M209.8355 48.5910
L209.9784 48.5910
" />
<path d="M209.9784 48.5910
L210.0736 48.6386
" />
<path d="M210.5498 49.1624
L210.5974 49.2100
" />
<path d="M210.5974 49.2100
L210.5498 49.2576
" />
<path d="M210.5498 49.2576
L210.5022 49.2100
" />
<path d="M210.5022 49.2100
L210.5498 49.1624
" />
<path d="M210.5498 49.1624
L210.5498 49.2576
" />
<path d="M210.5498 48.6386
L210.5974 48.6862
" />
<path d="M210.5974 48.6862
L210.5498 48.7338
" />
<path d="M210.5498 48.7338
L210.5022 48.6862
" />
<path d="M210.5022 48.6862
L210.5498 48.6386
" />
<path d="M210.5498 48.6386
L210.5498 48.7338
" />
<path d="M211.7403 48.2100
L210.8832 49.4957
" />
<path d="M212.7879 48.2100
L211.9308 49.4957
" />
<path d="M213.5498 48.5910
L213.5498 49.4005
" />
<path d="M213.5498 49.4005
L213.5022 49.4957
" />
<path d="M213.5022 49.4957
L213.4546 49.5433
" />
<path d="M213.4546 49.5433
L213.3593 49.5910
" />
<path d="M213.3593 49.5910
L213.2165 49.5910
" />
<path d="M213.2165 49.5910
L213.1212 49.5433
" />
<path d="M213.5498 49.2100
L213.4546 49.2576
" />
<path d="M213.4546 49.2576
L213.2641 49.2576
" />
<path d="M213.2641 49.2576
L213.1689 49.2100
" />
<path d="M213.1689 49.2100
L213.1212 49.1624
" />
<path d="M213.1212 49.1624
L213.0736 49.0671
" />
<path d="M213.0736 49.0671
L213.0736 48.7814
" />
<path d="M213.0736 48.7814
L213.1212 48.6862
" />
<path d="M213.1212 48.6862
L213.1689 48.6386
" />
<path d="M213.1689 48.6386
L213.2641 48.5910
" />
<path d="M213.2641 48.5910
L213.4546 48.5910
" />
<path d="M213.4546 48.5910
L213.5498 48.6386
" />
<path d="M214.0260 49.2576
L214.0260 48.5910
" />
<path d="M214.0260 48.2576
L213.9784 48.3052
" />
<path d="M213.9784 48.3052
L214.0260 48.3529
" />
<path d="M214.0260 48.3529
L214.0736 48.3052
" />
<path d="M214.0736 48.3052
L214.0260 48.2576
" />
<path d="M214.0260 48.2576
L214.0260 48.3529
" />
<path d="M214.3593 48.5910
L214.7403 48.5910
" />
<path d="M214.5022 48.2576
L214.5022 49.1148
" />
<path d="M214.5022 49.1148
L214.5498 49.2100
" />
<path d="M214.5498 49.2100
L214.6451 49.2576
" />
<path d="M214.6451 49.2576
L214.7403 49.2576
" />
<path d="M215.0736 49.2576
L215.0736 48.2576
" />
<path d="M215.5022 49.2576
L215.5022 48.7338
" />
<path d="M215.5022 48.7338
L215.4546 48.6386
" />
<path d="M215.4546 48.6386
L215.3593 48.5910
" />
<path d="M215.3593 48.5910
L215.2165 48.5910
" />
<path d="M215.2165 48.5910
L215.1212 48.6386
" />
<path d="M215.1212 48.6386
L215.0736 48.6862
" />
<path d="M216.4070 48.5910
L216.4070 49.2576
" />
<path d="M215.9784 48.5910
L215.9784 49.1148
" />
<path d="M215.9784 49.1148
L216.0260 49.2100
" />
<path d="M216.0260 49.2100
L216.1212 49.2576
" />
<path d="M216.1212 49.2576
L216.2641 49.2576
" />
<path d="M216.2641 49.2576
L216.3593 49.2100
" />
<path d="M216.3593 49.2100
L216.4070 49.1624
" />
<path d="M216.8832 49.2576
L216.8832 48.2576
" />
<path d="M216.8832 48.6386
L216.9784 48.5910
" />
<path d="M216.9784 48.5910
L217.1689 48.5910
" />
<path d="M217.1689 48.5910
L217.2641 48.6386
" />
<path d="M217.2641 48.6386
L217.3117 48.6862
" />
<path d="M217.3117 48.6862
L217.3593 48.7814
" />
<path d="M217.3593 48.7814
L217.3593 49.0671
" />
<path d="M217.3593 49.0671
L217.3117 49.1624
" />
<path d="M217.3117 49.1624
L217.2641 49.2100
" />
<path d="M217.2641 49.2100
L217.1689 49.2576
" />
<path d="M217.1689 49.2576
L216.9784 49.2576
" />
<path d="M216.9784 49.2576
L216.8832 49.2100
" />
<path d="M217.7879 49.1624
L217.8355 49.2100
" />
<path d="M217.8355 49.2100
L217.7879 49.2576
" />
<path d="M217.7879 49.2576
L217.7403 49.2100
" />
<path d="M217.7403 49.2100
L217.7879 49.1624
" />
<path d="M217.7879 49.1624
L217.7879 49.2576
" />
<path d="M218.6927 49.2100
L218.5974 49.2576
" />
<path d="M218.5974 49.2576
L218.4070 49.2576
" />
<path d="M218.4070 49.2576
L218.3117 49.2100
" />
<path d="M218.3117 49.2100
L218.2641 49.1624
" />
<path d="M218.2641 49.1624
L218.2165 49.0671
" />
<path d="M218.2165 49.0671
L218.2165 48.7814
" />
<path d="M218.2165 48.7814
L218.2641 48.6862
" />
<path d="M218.2641 48.6862
L218.3117 48.6386
" />
<path d="M218.3117 48.6386
L218.4070 48.5910
" />
<path d="M218.4070 48.5910
L218.5974 48.5910
" />
<path d="M218.5974 48.5910
L218.6927 48.6386
" />
<path d="M219.2641 49.2576
L219.1689 49.2100
" />
<path d="M219.1689 49.2100
L219.1212 49.1624
" />
<path d="M219.1212 49.1624
L219.0736 49.0671
" />
<path d="M219.0736 49.0671
L219.0736 48.7814
" />
<path d="M219.0736 48.7814
L219.1212 48.6862
" />
<path d="M219.1212 48.6862
L219.1689 48.6386
" />
<path d="M219.1689 48.6386
L219.2641 48.5910
" />
<path d="M219.2641 48.5910
L219.4070 48.5910
" />
<path d="M219.4070 48.5910
L219.5022 48.6386
" />
<path d="M219.5022 48.6386
L219.5498 48.6862
" />
<path d="M219.5498 48.6862
L219.5974 48.7814
" />
<path d="M219.5974 48.7814
L219.5974 49.0671
" />
<path d="M219.5974 49.0671
L219.5498 49.1624
" />
<path d="M219.5498 49.1624
L219.5022 49.2100
" />
<path d="M219.5022 49.2100
L219.4070 49.2576
" />
<path d="M219.4070 49.2576
L219.2641 49.2576
" />
<path d="M220.0260 49.2576
L220.0260 48.5910
" />
<path d="M220.0260 48.6862
L220.0736 48.6386
" />
<path d="M220.0736 48.6386
L220.1689 48.5910
" />
<path d="M220.1689 48.5910
L220.3117 48.5910
" />
<path d="M220.3117 48.5910
L220.4070 48.6386
" />
<path d="M220.4070 48.6386
L220.4546 48.7338
" />
<path d="M220.4546 48.7338
L220.4546 49.2576
" />
<path d="M220.4546 48.7338
L220.5022 48.6386
" />
<path d="M220.5022 48.6386
L220.5974 48.5910
" />
<path d="M220.5974 48.5910
L220.7403 48.5910
" />
<path d="M220.7403 48.5910
L220.8355 48.6386
" />
<path d="M220.8355 48.6386
L220.8832 48.7338
" />
<path d="M220.8832 48.7338
L220.8832 49.2576
" />
<path d="M222.0736 48.2100
L221.2165 49.4957
" />
<path d="M222.4070 48.5910
L222.4070 49.5910
" />
<path d="M222.4070 48.6386
L222.5022 48.5910
" />
<path d="M222.5022 48.5910
L222.6927 48.5910
" />
<path d="M222.6927 48.5910
L222.7879 48.6386
" />
<path d="M222.7879 48.6386
L222.8355 48.6862
" />
<path d="M222.8355 48.6862
L222.8832 48.7814
" />
<path d="M222.8832 48.7814
L222.8832 49.0671
" />
<path d="M222.8832 49.0671
L222.8355 49.1624
" />
<path d="M222.8355 49.1624
L222.7879 49.2100
" />
<path d="M222.7879 49.2100
L222.6927 49.2576
" />
<path d="M222.6927 49.2576
L222.5022 49.2576
" />
<path d="M222.5022 49.2576
L222.4070 49.2100
" />
<path d="M223.6927 49.2100
L223.5974 49.2576
" />
<path d="M223.5974 49.2576
L223.4070 49.2576
" />
<path d="M223.4070 49.2576
L223.3117 49.2100
" />
<path d="M223.3117 49.2100
L223.2641 49.1148
" />
<path d="M223.2641 49.1148
L223.2641 48.7338
" />
<path d="M223.2641 48.7338
L223.3117 48.6386
" />
<path d="M223.3117 48.6386
L223.4070 48.5910
" />
<path d="M223.4070 48.5910
L223.5974 48.5910
" />
<path d="M223.5974 48.5910
L223.6927 48.6386
" />
<path d="M223.6927 48.6386
L223.7403 48.7338
" />
<path d="M223.7403 48.7338
L223.7403 48.8290
" />
<path d="M223.7403 48.8290
L223.2641 48.9243
" />
<path d="M224.5974 49.2576
L224.5974 48.2576
" />
<path d="M224.5974 49.2100
L224.5022 49.2576
" />
<path d="M224.5022 49.2576
L224.3117 49.2576
" />
<path d="M224.3117 49.2576
L224.2165 49.2100
" />
<path d="M224.2165 49.2100
L224.1689 49.1624
" />
<path d="M224.1689 49.1624
L224.1212 49.0671
" />
<path d="M224.1212 49.0671
L224.1212 48.7814
" />
<path d="M224.1212 48.7814
L224.1689 48.6862
" />
<path d="M224.1689 48.6862
L224.2165 48.6386
" />
<path d="M224.2165 48.6386
L224.3117 48.5910
" />
<path d="M224.3117 48.5910
L224.5022 48.5910
" />
<path d="M224.5022 48.5910
L224.5974 48.6386
" />
<path d="M225.5022 49.2576
L225.5022 48.7338
" />
<path d="M225.5022 48.7338
L225.4546 48.6386
" />
<path d="M225.4546 48.6386
L225.3593 48.5910
" />
<path d="M225.3593 48.5910
L225.1689 48.5910
" />
<path d="M225.1689 48.5910
L225.0736 48.6386
" />
<path d="M225.5022 49.2100
L225.4070 49.2576
" />
<path d="M225.4070 49.2576
L225.1689 49.2576
" />
<path d="M225.1689 49.2576
L225.0736 49.2100
" />
<path d="M225.0736 49.2100
L225.0260 49.1148
" />
<path d="M225.0260 49.1148
L225.0260 49.0195
" />
<path d="M225.0260 49.0195
L225.0736 48.9243
" />
<path d="M225.0736 48.9243
L225.1689 48.8767
" />
<path d="M225.1689 48.8767
L225.4070 48.8767
" />
<path d="M225.4070 48.8767
L225.5022 48.8290
" />
<path d="M226.1212 49.2576
L226.0260 49.2100
" />
<path d="M226.0260 49.2100
L225.9784 49.1148
" />
<path d="M225.9784 49.1148
L225.9784 48.2576
" />
<path d="M226.5022 49.2576
L226.5022 48.2576
" />
<path d="M226.5022 48.6386
L226.5974 48.5910
" />
<path d="M226.5974 48.5910
L226.7879 48.5910
" />
<path d="M226.7879 48.5910
L226.8832 48.6386
" />
<path d="M226.8832 48.6386
L226.9308 48.6862
" />
<path d="M226.9308 48.6862
L226.9784 48.7814
" />
<path d="M226.9784 48.7814
L226.9784 49.0671
" />
<path d="M226.9784 49.0671
L226.9308 49.1624
" />
<path d="M226.9308 49.1624
L226.8832 49.2100
" />
<path d="M226.8832 49.2100
L226.7879 49.2576
" />
<path d="M226.7879 49.2576
L226.5974 49.2576
" />
<path d="M226.5974 49.2576
L226.5022 49.2100
" />
<path d="M227.5498 49.2576
L227.4546 49.2100
" />
<path d="M227.4546 49.2100
L227.4070 49.1624
" />
<path d="M227.4070 49.1624
L227.3593 49.0671
" />
<path d="M227.3593 49.0671
L227.3593 48.7814
" />
<path d="M227.3593 48.7814
L227.4070 48.6862
" />
<path d="M227.4070 48.6862
L227.4546 48.6386
" />
<path d="M227.4546 48.6386
L227.5498 48.5910
" />
<path d="M227.5498 48.5910
L227.6927 48.5910
" />
<path d="M227.6927 48.5910
L227.7879 48.6386
" />
<path d="M227.7879 48.6386
L227.8355 48.6862
" />
<path d="M227.8355 48.6862
L227.8832 48.7814
" />
<path d="M227.8832 48.7814
L227.8832 49.0671
" />
<path d="M227.8832 49.0671
L227.8355 49.1624
" />
<path d="M227.8355 49.1624
L227.7879 49.2100
" />
<path d="M227.7879 49.2100
L227.6927 49.2576
" />
<path d="M227.6927 49.2576
L227.5498 49.2576
" />
<path d="M228.7403 49.2576
L228.7403 48.7338
" />
<path d="M228.7403 48.7338
L228.6927 48.6386
" />
<path d="M228.6927 48.6386
L228.5974 48.5910
" />
<path d="M228.5974 48.5910
L228.4070 48.5910
" />
<path d="M228.4070 48.5910
L228.3117 48.6386
" />
<path d="M228.7403 49.2100
L228.6451 49.2576
" />
<path d="M228.6451 49.2576
L228.4070 49.2576
" />
<path d="M228.4070 49.2576
L228.3117 49.2100
" />
<path d="M228.3117 49.2100
L228.2641 49.1148
" />
<path d="M228.2641 49.1148
L228.2641 49.0195
" />
<path d="M228.2641 49.0195
L228.3117 48.9243
" />
<path d="M228.3117 48.9243
L228.4070 48.8767
" />
<path d="M228.4070 48.8767
L228.6451 48.8767
" />
<path d="M228.6451 48.8767
L228.7403 48.8290
" />
<path d="M229.2165 49.2576
L229.2165 48.5910
" />
<path d="M229.2165 48.7814
L229.2641 48.6862
" />
<path d="M229.2641 48.6862
L229.3117 48.6386
" />
<path d="M229.3117 48.6386
L229.4070 48.5910
" />
<path d="M229.4070 48.5910
L229.5022 48.5910
" />
<path d="M230.2641 49.2576
L230.2641 48.2576
" />
<path d="M230.2641 49.2100
L230.1689 49.2576
" />
<path d="M230.1689 49.2576
L229.9784 49.2576
" />
<path d="M229.9784 49.2576
L229.8832 49.2100
" />
<path d="M229.8832 49.2100
L229.8355 49.1624
" />
<path d="M229.8355 49.1624
L229.7879 49.0671
" />
<path d="M229.7879 49.0671
L229.7879 48.7814
" />
<path d="M229.7879 48.7814
L229.8355 48.6862
" />
<path d="M229.8355 48.6862
L229.8832 48.6386
" />
<path d="M229.8832 48.6386
L229.9784 48.5910
" />
<path d="M229.9784 48.5910
L230.1689 48.5910
" />
<path d="M230.1689 48.5910
L230.2641 48.6386
" />
</g><text x="230.5022" y="51.0000"
transform="scale(-1 1) translate(-461.004400 0)"
textLength="8.2226" font-size="1.3333" lengthAdjust="spacingAndGlyphs"
text-anchor="end" opacity="0">BCB: 1.0.0</text>
<g class="stroked-text"><desc>BCB: 1.0.0</desc>
<path d="M223.0260 50.3538
L223.1689 50.4014
" />
<path d="M223.1689 50.4014
L223.2165 50.4490
" />
<path d="M223.2165 50.4490
L223.2641 50.5443
" />
<path d="M223.2641 50.5443
L223.2641 50.6871
" />
<path d="M223.2641 50.6871
L223.2165 50.7824
" />
<path d="M223.2165 50.7824
L223.1689 50.8300
" />
<path d="M223.1689 50.8300
L223.0736 50.8776
" />
<path d="M223.0736 50.8776
L222.6927 50.8776
" />
<path d="M222.6927 50.8776
L222.6927 49.8776
" />
<path d="M222.6927 49.8776
L223.0260 49.8776
" />
<path d="M223.0260 49.8776
L223.1212 49.9252
" />
<path d="M223.1212 49.9252
L223.1689 49.9729
" />
<path d="M223.1689 49.9729
L223.2165 50.0681
" />
<path d="M223.2165 50.0681
L223.2165 50.1633
" />
<path d="M223.2165 50.1633
L223.1689 50.2586
" />
<path d="M223.1689 50.2586
L223.1212 50.3062
" />
<path d="M223.1212 50.3062
L223.0260 50.3538
" />
<path d="M223.0260 50.3538
L222.6927 50.3538
" />
<path d="M224.2641 50.7824
L224.2165 50.8300
" />
<path d="M224.2165 50.8300
L224.0736 50.8776
" />
<path d="M224.0736 50.8776
L223.9784 50.8776
" />
<path d="M223.9784 50.8776
L223.8355 50.8300
" />
<path d="M223.8355 50.8300
L223.7403 50.7348
" />
<path d="M223.7403 50.7348
L223.6927 50.6395
" />
<path d="M223.6927 50.6395
L223.6451 50.4490
" />
<path d="M223.6451 50.4490
L223.6451 50.3062
" />
<path d="M223.6451 50.3062
L223.6927 50.1157
" />
<path d="M223.6927 50.1157
L223.7403 50.0205
" />
<path d="M223.7403 50.0205
L223.8355 49.9252
" />
<path d="M223.8355 49.9252
L223.9784 49.8776
" />
<path d="M223.9784 49.8776
L224.0736 49.8776
" />
<path d="M224.0736 49.8776
L224.2165 49.9252
" />
<path d="M224.2165 49.9252
L224.2641 49.9729
" />
<path d="M225.0260 50.3538
L225.1689 50.4014
" />
<path d="M225.1689 50.4014
L225.2165 50.4490
" />
<path d="M225.2165 50.4490
L225.2641 50.5443
" />
<path d="M225.2641 50.5443
L225.2641 50.6871
" />
<path d="M225.2641 50.6871
L225.2165 50.7824
" />
<path d="M225.2165 50.7824
L225.1689 50.8300
" />
<path d="M225.1689 50.8300
L225.0736 50.8776
" />
<path d="M225.0736 50.8776
L224.6927 50.8776
" />
<path d="M224.6927 50.8776
L224.6927 49.8776
" />
<path d="M224.6927 49.8776
L225.0260 49.8776
" />
<path d="M225.0260 49.8776
L225.1212 49.9252
" />
<path d="M225.1212 49.9252
L225.1689 49.9729
" />
<path d="M225.1689 49.9729
L225.2165 50.0681
" />
<path d="M225.2165 50.0681
L225.2165 50.1633
" />
<path d="M225.2165 50.1633
L225.1689 50.2586
" />
<path d="M225.1689 50.2586
L225.1212 50.3062
" />
<path d="M225.1212 50.3062
L225.0260 50.3538
" />
<path d="M225.0260 50.3538
L224.6927 50.3538
" />
<path d="M225.6927 50.7824
L225.7403 50.8300
" />
<path d="M225.7403 50.8300
L225.6927 50.8776
" />
<path d="M225.6927 50.8776
L225.6451 50.8300
" />
<path d="M225.6451 50.8300
L225.6927 50.7824
" />
<path d="M225.6927 50.7824
L225.6927 50.8776
" />
<path d="M225.6927 50.2586
L225.7403 50.3062
" />
<path d="M225.7403 50.3062
L225.6927 50.3538
" />
<path d="M225.6927 50.3538
L225.6451 50.3062
" />
<path d="M225.6451 50.3062
L225.6927 50.2586
" />
<path d="M225.6927 50.2586
L225.6927 50.3538
" />
<path d="M227.4546 50.8776
L226.8832 50.8776
" />
<path d="M227.1689 50.8776
L227.1689 49.8776
" />
<path d="M227.1689 49.8776
L227.0736 50.0205
" />
<path d="M227.0736 50.0205
L226.9784 50.1157
" />
<path d="M226.9784 50.1157
L226.8832 50.1633
" />
<path d="M227.8832 50.7824
L227.9308 50.8300
" />
<path d="M227.9308 50.8300
L227.8832 50.8776
" />
<path d="M227.8832 50.8776
L227.8355 50.8300
" />
<path d="M227.8355 50.8300
L227.8832 50.7824
" />
<path d="M227.8832 50.7824
L227.8832 50.8776
" />
<path d="M228.5498 49.8776
L228.6451 49.8776
" />
<path d="M228.6451 49.8776
L228.7403 49.9252
" />
<path d="M228.7403 49.9252
L228.7879 49.9729
" />
<path d="M228.7879 49.9729
L228.8355 50.0681
" />
<path d="M228.8355 50.0681
L228.8832 50.2586
" />
<path d="M228.8832 50.2586
L228.8832 50.4967
" />
<path d="M228.8832 50.4967
L228.8355 50.6871
" />
<path d="M228.8355 50.6871
L228.7879 50.7824
" />
<path d="M228.7879 50.7824
L228.7403 50.8300
" />
<path d="M228.7403 50.8300
L228.6451 50.8776
" />
<path d="M228.6451 50.8776
L228.5498 50.8776
" />
<path d="M228.5498 50.8776
L228.4546 50.8300
" />
<path d="M228.4546 50.8300
L228.4070 50.7824
" />
<path d="M228.4070 50.7824
L228.3593 50.6871
" />
<path d="M228.3593 50.6871
L228.3117 50.4967
" />
<path d="M228.3117 50.4967
L228.3117 50.2586
" />
<path d="M228.3117 50.2586
L228.3593 50.0681
" />
<path d="M228.3593 50.0681
L228.4070 49.9729
" />
<path d="M228.4070 49.9729
L228.4546 49.9252
" />
<path d="M228.4546 49.9252
L228.5498 49.8776
" />
<path d="M229.3117 50.7824
L229.3593 50.8300
" />
<path d="M229.3593 50.8300
L229.3117 50.8776
" />
<path d="M229.3117 50.8776
L229.2641 50.8300
" />
<path d="M229.2641 50.8300
L229.3117 50.7824
" />
<path d="M229.3117 50.7824
L229.3117 50.8776
" />
<path d="M229.9784 49.8776
L230.0736 49.8776
" />
<path d="M230.0736 49.8776
L230.1689 49.9252
" />
<path d="M230.1689 49.9252
L230.2165 49.9729
" />
<path d="M230.2165 49.9729
L230.2641 50.0681
" />
<path d="M230.2641 50.0681
L230.3117 50.2586
" />
<path d="M230.3117 50.2586
L230.3117 50.4967
" />
<path d="M230.3117 50.4967
L230.2641 50.6871
" />
<path d="M230.2641 50.6871
L230.2165 50.7824
" />
<path d="M230.2165 50.7824
L230.1689 50.8300
" />
<path d="M230.1689 50.8300
L230.0736 50.8776
" />
<path d="M230.0736 50.8776
L229.9784 50.8776
" />
<path d="M229.9784 50.8776
L229.8832 50.8300
" />
<path d="M229.8832 50.8300
L229.8355 50.7824
" />
<path d="M229.8355 50.7824
L229.7879 50.6871
" />
<path d="M229.7879 50.6871
L229.7403 50.4967
" />
<path d="M229.7403 50.4967
L229.7403 50.2586
" />
<path d="M229.7403 50.2586
L229.7879 50.0681
" />
<path d="M229.7879 50.0681
L229.8355 49.9729
" />
<path d="M229.8355 49.9729
L229.8832 49.9252
" />
<path d="M229.8832 49.9252
L229.9784 49.8776
" />
</g><text x="207.0022" y="55.5000"
transform="scale(-1 1) translate(-414.004400 0)"
textLength="2.1750" font-size="1.3333" lengthAdjust="spacingAndGlyphs"
text-anchor="middle" opacity="0">U1</text>
<g class="stroked-text"><desc>U1</desc>
<path d="M206.2403 54.4626
L206.2403 55.2721
" />
<path d="M206.2403 55.2721
L206.2879 55.3674
" />
<path d="M206.2879 55.3674
L206.3355 55.4150
" />
<path d="M206.3355 55.4150
L206.4308 55.4626
" />
<path d="M206.4308 55.4626
L206.6212 55.4626
" />
<path d="M206.6212 55.4626
L206.7165 55.4150
" />
<path d="M206.7165 55.4150
L206.7641 55.3674
" />
<path d="M206.7641 55.3674
L206.8117 55.2721
" />
<path d="M206.8117 55.2721
L206.8117 54.4626
" />
<path d="M207.8117 55.4626
L207.2403 55.4626
" />
<path d="M207.5260 55.4626
L207.5260 54.4626
" />
<path d="M207.5260 54.4626
L207.4308 54.6055
" />
<path d="M207.4308 54.6055
L207.3355 54.7007
" />
<path d="M207.3355 54.7007
L207.2403 54.7483
" />
</g><text x="208.7022" y="65.4000"
transform="scale(-1 1) translate(-417.404400 0)"
textLength="1.9369" font-size="1.3333" lengthAdjust="spacingAndGlyphs"
text-anchor="middle" opacity="0">L1</text>
<g class="stroked-text"><desc>L1</desc>
<path d="M208.5355 65.3626
L208.0593 65.3626
" />
<path d="M208.0593 65.3626
L208.0593 64.3626
" />
<path d="M209.3927 65.3626
L208.8212 65.3626
" />
<path d="M209.1070 65.3626
L209.1070 64.3626
" />
<path d="M209.1070 64.3626
L209.0117 64.5055
" />
<path d="M209.0117 64.5055
L208.9165 64.6007
" />
<path d="M208.9165 64.6007
L208.8212 64.6483
" />
</g><text x="205.1022" y="61.9500"
transform="scale(-1 1) translate(-410.204400 0)"
textLength="2.1274" font-size="1.3333" lengthAdjust="spacingAndGlyphs"
text-anchor="middle" opacity="0">C1</text>
<g class="stroked-text"><desc>C1</desc>
<path d="M204.9355 61.8174
L204.8879 61.8650
" />
<path d="M204.8879 61.8650
L204.7451 61.9126
" />
<path d="M204.7451 61.9126
L204.6498 61.9126
" />
<path d="M204.6498 61.9126
L204.5070 61.8650
" />
<path d="M204.5070 61.8650
L204.4117 61.7698
" />
<path d="M204.4117 61.7698
L204.3641 61.6745
" />
<path d="M204.3641 61.6745
L204.3165 61.4840
" />
<path d="M204.3165 61.4840
L204.3165 61.3412
" />
<path d="M204.3165 61.3412
L204.3641 61.1507
" />
<path d="M204.3641 61.1507
L204.4117 61.0555
" />
<path d="M204.4117 61.0555
L204.5070 60.9602
" />
<path d="M204.5070 60.9602
L204.6498 60.9126
" />
<path d="M204.6498 60.9126
L204.7451 60.9126
" />
<path d="M204.7451 60.9126
L204.8879 60.9602
" />
<path d="M204.8879 60.9602
L204.9355 61.0079
" />
<path d="M205.8879 61.9126
L205.3165 61.9126
" />
<path d="M205.6022 61.9126
L205.6022 60.9126
" />
<path d="M205.6022 60.9126
L205.5070 61.0555
" />
<path d="M205.5070 61.0555
L205.4117 61.1507
" />
<path d="M205.4117 61.1507
L205.3165 61.1983
" />
</g><text x="196.1522" y="72.4000"
transform="scale(-1 1) translate(-392.304400 0)"
textLength="1.8893" font-size="1.3333" lengthAdjust="spacingAndGlyphs"
text-anchor="middle" opacity="0">J1</text>
<g class="stroked-text"><desc>J1</desc>
<path d="M195.8189 71.3626
L195.8189 72.0769
" />
<path d="M195.8189 72.0769
L195.7712 72.2198
" />
<path d="M195.7712 72.2198
L195.6760 72.3150
" />
<path d="M195.6760 72.3150
L195.5332 72.3626
" />
<path d="M195.5332 72.3626
L195.4379 72.3626
" />
<path d="M196.8189 72.3626
L196.2474 72.3626
" />
<path d="M196.5332 72.3626
L196.5332 71.3626
" />
<path d="M196.5332 71.3626
L196.4379 71.5055
" />
<path d="M196.4379 71.5055
L196.3427 71.6007
" />
<path d="M196.3427 71.6007
L196.2474 71.6483
" />
</g><g transform="rotate(-90.000000 214.3022 72.8000)">
<text x="214.3022" y="73.1250"
transform="scale(-1 1) translate(-428.604400 0)"
textLength="1.5140" font-size="0.8667" lengthAdjust="spacingAndGlyphs"
text-anchor="middle" opacity="0">R2</text>
</g>
<g class="stroked-text"><desc>R2</desc>
<path d="M214.0015 72.6917
L214.3110 72.4750
" />
<path d="M214.0015 72.3202
L214.6515 72.3202
" />
<path d="M214.6515 72.3202
L214.6515 72.5679
" />
<path d="M214.6515 72.5679
L214.6205 72.6298
" />
<path d="M214.6205 72.6298
L214.5896 72.6607
" />
<path d="M214.5896 72.6607
L214.5277 72.6917
" />
<path d="M214.5277 72.6917
L214.4348 72.6917
" />
<path d="M214.4348 72.6917
L214.3729 72.6607
" />
<path d="M214.3729 72.6607
L214.3420 72.6298
" />
<path d="M214.3420 72.6298
L214.3110 72.5679
" />
<path d="M214.3110 72.5679
L214.3110 72.3202
" />
<path d="M214.5896 72.9393
L214.6205 72.9702
" />
<path d="M214.6205 72.9702
L214.6515 73.0321
" />
<path d="M214.6515 73.0321
L214.6515 73.1869
" />
<path d="M214.6515 73.1869
L214.6205 73.2488
" />
<path d="M214.6205 73.2488
L214.5896 73.2798
" />
<path d="M214.5896 73.2798
L214.5277 73.3107
" />
<path d="M214.5277 73.3107
L214.4658 73.3107
" />
<path d="M214.4658 73.3107
L214.3729 73.2798
" />
<path d="M214.3729 73.2798
L214.0015 72.9083
" />
<path d="M214.0015 72.9083
L214.0015 73.3107
" />
</g><g transform="rotate(-90.000000 195.7022 53.1000)">
<text x="195.7022" y="53.4250"
transform="scale(-1 1) translate(-391.404400 0)"
textLength="1.5140" font-size="0.8667" lengthAdjust="spacingAndGlyphs"
text-anchor="middle" opacity="0">R1</text>
</g>
<g class="stroked-text"><desc>R1</desc>
<path d="M195.4015 52.9917
L195.7110 52.7750
" />
<path d="M195.4015 52.6202
L196.0515 52.6202
" />
<path d="M196.0515 52.6202
L196.0515 52.8679
" />
<path d="M196.0515 52.8679
L196.0205 52.9298
" />
<path d="M196.0205 52.9298
L195.9896 52.9607
" />
<path d="M195.9896 52.9607
L195.9277 52.9917
" />
<path d="M195.9277 52.9917
L195.8348 52.9917
" />
<path d="M195.8348 52.9917
L195.7729 52.9607
" />
<path d="M195.7729 52.9607
L195.7420 52.9298
" />
<path d="M195.7420 52.9298
L195.7110 52.8679
" />
<path d="M195.7110 52.8679
L195.7110 52.6202
" />
<path d="M195.4015 53.6107
L195.4015 53.2393
" />
<path d="M195.4015 53.4250
L196.0515 53.4250
" />
<path d="M196.0515 53.4250
L195.9586 53.3631
" />
<path d="M195.9586 53.3631
L195.8967 53.3012
" />
<path d="M195.8967 53.3012
L195.8658 53.2393
" />
</g><text x="208.6522" y="73.9000"
transform="scale(-1 1) translate(-417.304400 0)"
textLength="1.6350" font-size="0.9333" lengthAdjust="spacingAndGlyphs"
text-anchor="middle" opacity="0">U2</text>
<g class="stroked-text"><desc>U2</desc>
<path d="M208.1189 73.1738
L208.1189 73.7405
" />
<path d="M208.1189 73.7405
L208.1522 73.8072
" />
<path d="M208.1522 73.8072
L208.1855 73.8405
" />
<path d="M208.1855 73.8405
L208.2522 73.8738
" />
<path d="M208.2522 73.8738
L208.3855 73.8738
" />
<path d="M208.3855 73.8738
L208.4522 73.8405
" />
<path d="M208.4522 73.8405
L208.4855 73.8072
" />
<path d="M208.4855 73.8072
L208.5189 73.7405
" />
<path d="M208.5189 73.7405
L208.5189 73.1738
" />
<path d="M208.8189 73.2405
L208.8522 73.2072
" />
<path d="M208.8522 73.2072
L208.9189 73.1738
" />
<path d="M208.9189 73.1738
L209.0855 73.1738
" />
<path d="M209.0855 73.1738
L209.1522 73.2072
" />
<path d="M209.1522 73.2072
L209.1855 73.2405
" />
<path d="M209.1855 73.2405
L209.2189 73.3072
" />
<path d="M209.2189 73.3072
L209.2189 73.3738
" />
<path d="M209.2189 73.3738
L209.1855 73.4738
" />
<path d="M209.1855 73.4738
L208.7855 73.8738
" />
<path d="M208.7855 73.8738
L209.2189 73.8738
" />
</g><g transform="rotate(-90.000000 200.8822 57.5000)">
<text x="200.8822" y="58.0000"
transform="scale(-1 1) translate(-401.764400 0)"
textLength="2.1274" font-size="1.3333" lengthAdjust="spacingAndGlyphs"
text-anchor="middle" opacity="0">C2</text>
</g>
<g class="stroked-text"><desc>C2</desc>
<path d="M200.5148 57.3333
L200.4672 57.2857
" />
<path d="M200.4672 57.2857
L200.4196 57.1429
" />
<path d="M200.4196 57.1429
L200.4196 57.0476
" />
<path d="M200.4196 57.0476
L200.4672 56.9048
" />
<path d="M200.4672 56.9048
L200.5624 56.8095
" />
<path d="M200.5624 56.8095
L200.6577 56.7619
" />
<path d="M200.6577 56.7619
L200.8482 56.7143
" />
<path d="M200.8482 56.7143
L200.9910 56.7143
" />
<path d="M200.9910 56.7143
L201.1815 56.7619
" />
<path d="M201.1815 56.7619
L201.2767 56.8095
" />
<path d="M201.2767 56.8095
L201.3720 56.9048
" />
<path d="M201.3720 56.9048
L201.4196 57.0476
" />
<path d="M201.4196 57.0476
L201.4196 57.1429
" />
<path d="M201.4196 57.1429
L201.3720 57.2857
" />
<path d="M201.3720 57.2857
L201.3243 57.3333
" />
<path d="M201.3243 57.7143
L201.3720 57.7619
" />
<path d="M201.3720 57.7619
L201.4196 57.8571
" />
<path d="M201.4196 57.8571
L201.4196 58.0952
" />
<path d="M201.4196 58.0952
L201.3720 58.1905
" />
<path d="M201.3720 58.1905
L201.3243 58.2381
" />
<path d="M201.3243 58.2381
L201.2291 58.2857
" />
<path d="M201.2291 58.2857
L201.1339 58.2857
" />
<path d="M201.1339 58.2857
L200.9910 58.2381
" />
<path d="M200.9910 58.2381
L200.4196 57.6667
" />
<path d="M200.4196 57.6667
L200.4196 58.2857
" />
</g><text x="213.9022" y="68.0000"
transform="scale(-1 1) translate(-427.804400 0)"
textLength="2.1274" font-size="1.3333" lengthAdjust="spacingAndGlyphs"
text-anchor="middle" opacity="0">C4</text>
<g class="stroked-text"><desc>C4</desc>
<path d="M213.7355 67.8674
L213.6879 67.9150
" />
<path d="M213.6879 67.9150
L213.5451 67.9626
" />
<path d="M213.5451 67.9626
L213.4498 67.9626
" />
<path d="M213.4498 67.9626
L213.3070 67.9150
" />
<path d="M213.3070 67.9150
L213.2117 67.8198
" />
<path d="M213.2117 67.8198
L213.1641 67.7245
" />
<path d="M213.1641 67.7245
L213.1165 67.5340
" />
<path d="M213.1165 67.5340
L213.1165 67.3912
" />
<path d="M213.1165 67.3912
L213.1641 67.2007
" />
<path d="M213.1641 67.2007
L213.2117 67.1055
" />
<path d="M213.2117 67.1055
L213.3070 67.0102
" />
<path d="M213.3070 67.0102
L213.4498 66.9626
" />
<path d="M213.4498 66.9626
L213.5451 66.9626
" />
<path d="M213.5451 66.9626
L213.6879 67.0102
" />
<path d="M213.6879 67.0102
L213.7355 67.0579
" />
<path d="M214.5927 67.2960
L214.5927 67.9626
" />
<path d="M214.3546 66.9150
L214.1165 67.6293
" />
<path d="M214.1165 67.6293
L214.7355 67.6293
" />
</g><text x="204.7022" y="73.7000"
transform="scale(-1 1) translate(-409.404400 0)"
textLength="2.1274" font-size="1.3333" lengthAdjust="spacingAndGlyphs"
text-anchor="middle" opacity="0">C3</text>
<g class="stroked-text"><desc>C3</desc>
<path d="M204.5355 73.5674
L204.4879 73.6150
" />
<path d="M204.4879 73.6150
L204.3451 73.6626
" />
<path d="M204.3451 73.6626
L204.2498 73.6626
" />
<path d="M204.2498 73.6626
L204.1070 73.6150
" />
<path d="M204.1070 73.6150
L204.0117 73.5198
" />
<path d="M204.0117 73.5198
L203.9641 73.4245
" />
<path d="M203.9641 73.4245
L203.9165 73.2340
" />
<path d="M203.9165 73.2340
L203.9165 73.0912
" />
<path d="M203.9165 73.0912
L203.9641 72.9007
" />
<path d="M203.9641 72.9007
L204.0117 72.8055
" />
<path d="M204.0117 72.8055
L204.1070 72.7102
" />
<path d="M204.1070 72.7102
L204.2498 72.6626
" />
<path d="M204.2498 72.6626
L204.3451 72.6626
" />
<path d="M204.3451 72.6626
L204.4879 72.7102
" />
<path d="M204.4879 72.7102
L204.5355 72.7579
" />
<path d="M204.8689 72.6626
L205.4879 72.6626
" />
<path d="M205.4879 72.6626
L205.1546 73.0436
" />
<path d="M205.1546 73.0436
L205.2974 73.0436
" />
<path d="M205.2974 73.0436
L205.3927 73.0912
" />
<path d="M205.3927 73.0912
L205.4403 73.1388
" />
<path d="M205.4403 73.1388
L205.4879 73.2340
" />
<path d="M205.4879 73.2340
L205.4879 73.4721
" />
<path d="M205.4879 73.4721
L205.4403 73.5674
" />
<path d="M205.4403 73.5674
L205.3927 73.6150
" />
<path d="M205.3927 73.6150
L205.2974 73.6626
" />
<path d="M205.2974 73.6626
L205.0117 73.6626
" />
<path d="M205.0117 73.6626
L204.9165 73.6150
" />
<path d="M204.9165 73.6150
L204.8689 73.5674
" />
</g></g>
<g style="fill:#000000; fill-opacity:0.0; 
stroke:#000000; stroke-width:0.1200; stroke-opacity:1; 
stroke-linecap:round; stroke-linejoin:round;">
<path d="M202.1022 50.2400
L204.0522 50.2400
" />
<path d="M202.1022 50.2400
L200.1522 50.2400
" />
<path d="M202.1022 55.3600
L205.5522 55.3600
" />
<path d="M202.1022 55.3600
L200.1522 55.3600
" />
</g>
<g style="fill:#000000; fill-opacity:0.0; 
stroke:#000000; stroke-width:0.1270; stroke-opacity:1; 
stroke-linecap:round; stroke-linejoin:round;">
<path d="M210.7022 68.4135
L207.5022 68.4135
" />
<path d="M207.5022 65.7865
L210.7022 65.7865
" />
</g>
<g style="fill:#000000; fill-opacity:0.0; 
stroke:#000000; stroke-width:0.1200; stroke-opacity:1; 
stroke-linecap:round; stroke-linejoin:round;">
<path d="M205.8135 58.6900
L204.3909 58.6900
" />
<path d="M205.8135 60.5100
L204.3909 60.5100
" />
<path d="M196.6322 65.4000
L196.6322 70.6000
" />
<path d="M197.2022 65.4000
L196.6322 65.4000
" />
<path d="M199.7422 65.4000
L198.7222 65.4000
" />
<path d="M202.2822 65.4000
L201.2622 65.4000
" />
<path d="M204.3722 65.4000
L203.8022 65.4000
" />
<path d="M204.3722 65.4000
L204.3722 70.6000
" />
<path d="M197.2022 70.6000
L196.6322 70.6000
" />
<path d="M199.7422 70.6000
L198.7222 70.6000
" />
<path d="M202.2822 70.6000
L201.2622 70.6000
" />
<path d="M203.8022 70.6000
L203.8022 71.9600
" />
<path d="M204.3722 70.6000
L203.8022 70.6000
" />
</g>
<g style="fill:#000000; fill-opacity:0.0; 
stroke:#000000; stroke-width:0.1500; stroke-opacity:1; 
stroke-linecap:round; stroke-linejoin:round;">
<path d="M213.7022 71.1500
L213.7022 72.8500
" />
<path d="M212.3022 72.8500
L212.3022 71.1500
" />
<path d="M196.5022 53.4500
L196.5022 51.7500
" />
<path d="M197.9022 51.7500
L197.9022 53.4500
" />
<path d="M209.6022 73.6250
L211.6022 73.6250
" />
<path d="M210.6022 70.3750
L211.6022 70.3750
" />
</g>
<g style="fill:#000000; fill-opacity:0.0; 
stroke:#000000; stroke-width:0.1200; stroke-opacity:1; 
stroke-linecap:round; stroke-linejoin:round;">
<path d="M198.4672 57.2387
L198.4672 57.7613
" />
<path d="M199.9372 57.2387
L199.9372 57.7613
" />
<path d="M213.8409 70.0350
L214.3635 70.0350
" />
<path d="M213.8409 68.5650
L214.3635 68.5650
" />
<path d="M207.9122 71.8113
L207.9122 70.3887
" />
<path d="M206.0922 71.8113
L206.0922 70.3887
" />
<g >
</g>
<g >
</g>
<g >
</g>
<g >
</g>
<g >
</g>
<g >
</g>
<g >
</g>
<g >
</g>
<g >
</g>
<g >
</g>
<g >
</g>
<g >
</g>
<g >
</g>
<g >
</g>
<g >
</g>
<g >
</g>
<g >
</g>
<g >
</g>
<g >
</g>
</g> 
</svg>
