<?xml version='1.0' encoding='ASCII' standalone='yes'?>
<svg xmlns="http://www.w3.org/2000/svg" version="1.1" width="297.0022mm" height="210.0072mm" viewBox="0.0000 0.0000 297.0022 210.0072">
            <title>Picture generated by PcbDraw </title>
            <desc>Picture generated by PcbDraw</desc>
        <defs><clipPath id="cut-off"><path d=" M 80.0000 60.0000 m-6.1000 0 a 6.1000 6.1000 0 1 0 12.2 0 a 6.1000 6.1000 0 1 0 -12.2 0  M 67.0 74.0 L 93.0 74.0 A 1 1 0 0 0 94.0 73.0 L 94.0 47.0 A 1 1 0 0 0 93.0 46.0 L 67.0 46.0 A 1 1 0 0 0 66.0 47.0 L 66.0 73.0 A 1 1 0 0 0 67.0 74.0 " style="fill-rule: evenodd;"/></clipPath><mask id="pads-mask-silkscreen"><rect x="53.095834" y="35.6625" width="40.979167" height="38.412501" fill="white"/><g style="fill:#000000; fill-opacity:0.0;  stroke:#000000; stroke-width:0.0000; stroke-opacity:1;  stroke-linecap:round; stroke-linejoin:round;">
<g style="fill:#000000; fill-opacity:1.0000;  stroke:#000000; stroke-width:0.0000; stroke-opacity:1;  stroke-linecap:round; stroke-linejoin:round;">
<path style="fill:#000000; fill-opacity:1.0000;  stroke:#000000; stroke-width:0.0000; stroke-opacity:1;  stroke-linecap:round; stroke-linejoin:round;fill-rule:evenodd;" d="M 92.5000,58.2500 91.5000,58.2500 91.5000,55.5000 92.5000,55.5000 Z"/> 
<path style="fill:#000000; fill-opacity:1.0000;  stroke:#000000; stroke-width:0.0000; stroke-opacity:1;  stroke-linecap:round; stroke-linejoin:round;fill-rule:evenodd;" d="M 92.5000,64.5000 91.5000,64.5000 91.5000,61.7500 92.5000,61.7500 Z"/> 
<path style="fill:#000000; fill-opacity:1.0000;  stroke:#000000; stroke-width:0.0000; stroke-opacity:1;  stroke-linecap:round; stroke-linejoin:round;fill-rule:evenodd;" d="M 90.5000,58.2500 89.5000,58.2500 89.5000,55.5000 90.5000,55.5000 Z"/> 
<path style="fill:#000000; fill-opacity:1.0000;  stroke:#000000; stroke-width:0.0000; stroke-opacity:1;  stroke-linecap:round; stroke-linejoin:round;fill-rule:evenodd;" d="M 90.5000,64.5000 89.5000,64.5000 89.5000,61.7500 90.5000,61.7500 Z"/> 
</g>
</g> 
</mask></defs><g transform="scale(-1,1) translate(-297,0)" id="boardContainer"><g id="substrate" clip-path="url(#cut-off)" mask="url(#pads-mask-silkscreen)"><g id="substrate-board" style="fill:#143324; fill-opacity:0.25098039215686274; stroke:#143324; stroke-width:0;"><path d=" M 80.0000 60.0000 m-6.1000 0 a 6.1000 6.1000 0 1 0 12.2 0 a 6.1000 6.1000 0 1 0 -12.2 0  M 67.0 74.0 L 93.0 74.0 A 1 1 0 0 0 94.0 73.0 L 94.0 47.0 A 1 1 0 0 0 93.0 46.0 L 67.0 46.0 A 1 1 0 0 0 66.0 47.0 L 66.0 73.0 A 1 1 0 0 0 67.0 74.0 " style="fill-rule: evenodd;"/><g style="fill-opacity: 0.0;stroke-width: 0.1000;stroke-opacity: 1;stroke-linecap: round;stroke-linejoin: round">
<path d="M66.0000 73.0000 A1.0000 1.0000 0.0 0 0 67.0000 74.0000"/>
<circle cx="80.0000" cy="60.0000" r="6.1000"/> 
<path d="M94.0000 47.0000 L94.0000 73.0000 "/>
<path d="M66.0000 73.0000 L66.0000 47.0000 "/>
<path d="M93.0000 74.0000 A1.0000 1.0000 0.0 0 0 94.0000 73.0000"/>
<path d="M67.0000 46.0000 L93.0000 46.0000 "/>
<path d="M93.0000 74.0000 L67.0000 74.0000 "/>
<path d="M67.0000 46.0000 A1.0000 1.0000 0.0 0 0 66.0000 47.0000"/>
<path d="M94.0000 47.0000 A1.0000 1.0000 0.0 0 0 93.0000 46.0000"/>
</g> 
</g></g></g></svg>
