<?xml version="1.0" standalone="no"?>
 <!DOCTYPE svg PUBLIC "-//W3C//DTD SVG 1.1//EN" 
 "http://www.w3.org/Graphics/SVG/1.1/DTD/svg11.dtd"> 
<svg
  xmlns:svg="http://www.w3.org/2000/svg"
  xmlns="http://www.w3.org/2000/svg"
  xmlns:xlink="http://www.w3.org/1999/xlink"
  version="1.1"
  width="297.0022mm" height="210.0072mm" viewBox="0.0000 0.0000 297.0022 210.0072">
<title>SVG Image created as pedalboard-led-ring-B_Silkscreen.svg date 2024/01/08 21:16:06 </title>
  <desc>Image generated by PCBNEW </desc>
<g style="fill:#000000; fill-opacity:1.0000;stroke:#000000; stroke-opacity:1.0000;
stroke-linecap:round; stroke-linejoin:round;"
 transform="translate(0 0) scale(1 1)">
</g>
<g style="fill:#000000; fill-opacity:0.0; 
stroke:#000000; stroke-width:0.0000; stroke-opacity:1; 
stroke-linecap:round; stroke-linejoin:round;">
</g>
<g style="fill:#000000; fill-opacity:0.0; 
stroke:#000000; stroke-width:0.1000; stroke-opacity:1; 
stroke-linecap:round; stroke-linejoin:round;">
<circle cx="217.0022" cy="60.0000" r="7.0500" /> 
<g transform="rotate(-90.000000 208.7322 55.2000)">
<text x="208.7322" y="55.2000"
transform="scale(-1 1) translate(-417.464400 0)"
textLength="0.9381" font-size="0.6667" lengthAdjust="spacingAndGlyphs"
text-anchor="start" opacity="0">DI</text>
</g>
<g class="stroked-text"><desc>DI</desc>
<path d="M208.7986 55.3848
L209.2986 55.3848
" />
<path d="M209.2986 55.3848
L209.2986 55.5039
" />
<path d="M209.2986 55.5039
L209.2748 55.5753
" />
<path d="M209.2748 55.5753
L209.2272 55.6229
" />
<path d="M209.2272 55.6229
L209.1795 55.6467
" />
<path d="M209.1795 55.6467
L209.0843 55.6705
" />
<path d="M209.0843 55.6705
L209.0129 55.6705
" />
<path d="M209.0129 55.6705
L208.9176 55.6467
" />
<path d="M208.9176 55.6467
L208.8700 55.6229
" />
<path d="M208.8700 55.6229
L208.8224 55.5753
" />
<path d="M208.8224 55.5753
L208.7986 55.5039
" />
<path d="M208.7986 55.5039
L208.7986 55.3848
" />
<path d="M208.7986 55.8848
L209.2986 55.8848
" />
</g><g transform="rotate(-90.000000 208.8022 62.5000)">
<text x="208.8022" y="62.5000"
transform="scale(-1 1) translate(-417.604400 0)"
textLength="1.3514" font-size="0.8000" lengthAdjust="spacingAndGlyphs"
text-anchor="start" opacity="0">D0</text>
</g>
<g class="stroked-text"><desc>D0</desc>
<path d="M208.8808 62.7086
L209.4808 62.7086
" />
<path d="M209.4808 62.7086
L209.4808 62.8515
" />
<path d="M209.4808 62.8515
L209.4523 62.9372
" />
<path d="M209.4523 62.9372
L209.3951 62.9944
" />
<path d="M209.3951 62.9944
L209.3380 63.0229
" />
<path d="M209.3380 63.0229
L209.2237 63.0515
" />
<path d="M209.2237 63.0515
L209.1380 63.0515
" />
<path d="M209.1380 63.0515
L209.0237 63.0229
" />
<path d="M209.0237 63.0229
L208.9665 62.9944
" />
<path d="M208.9665 62.9944
L208.9094 62.9372
" />
<path d="M208.9094 62.9372
L208.8808 62.8515
" />
<path d="M208.8808 62.8515
L208.8808 62.7086
" />
<path d="M209.4808 63.4229
L209.4808 63.4801
" />
<path d="M209.4808 63.4801
L209.4523 63.5372
" />
<path d="M209.4523 63.5372
L209.4237 63.5658
" />
<path d="M209.4237 63.5658
L209.3665 63.5944
" />
<path d="M209.3665 63.5944
L209.2523 63.6229
" />
<path d="M209.2523 63.6229
L209.1094 63.6229
" />
<path d="M209.1094 63.6229
L208.9951 63.5944
" />
<path d="M208.9951 63.5944
L208.9380 63.5658
" />
<path d="M208.9380 63.5658
L208.9094 63.5372
" />
<path d="M208.9094 63.5372
L208.8808 63.4801
" />
<path d="M208.8808 63.4801
L208.8808 63.4229
" />
<path d="M208.8808 63.4229
L208.9094 63.3658
" />
<path d="M208.9094 63.3658
L208.9380 63.3372
" />
<path d="M208.9380 63.3372
L208.9951 63.3086
" />
<path d="M208.9951 63.3086
L209.1094 63.2801
" />
<path d="M209.1094 63.2801
L209.2523 63.2801
" />
<path d="M209.2523 63.2801
L209.3665 63.3086
" />
<path d="M209.3665 63.3086
L209.4237 63.3372
" />
<path d="M209.4237 63.3372
L209.4523 63.3658
" />
<path d="M209.4523 63.3658
L209.4808 63.4229
" />
</g><g transform="rotate(-90.000000 206.6022 62.3500)">
<text x="206.6022" y="62.3500"
transform="scale(-1 1) translate(-413.204400 0)"
textLength="2.0086" font-size="0.8000" lengthAdjust="spacingAndGlyphs"
text-anchor="start" opacity="0">GND</text>
</g>
<g class="stroked-text"><desc>GND</desc>
<path d="M207.2523 62.8729
L207.2808 62.8158
" />
<path d="M207.2808 62.8158
L207.2808 62.7301
" />
<path d="M207.2808 62.7301
L207.2523 62.6444
" />
<path d="M207.2523 62.6444
L207.1951 62.5872
" />
<path d="M207.1951 62.5872
L207.1380 62.5586
" />
<path d="M207.1380 62.5586
L207.0237 62.5301
" />
<path d="M207.0237 62.5301
L206.9380 62.5301
" />
<path d="M206.9380 62.5301
L206.8237 62.5586
" />
<path d="M206.8237 62.5586
L206.7665 62.5872
" />
<path d="M206.7665 62.5872
L206.7094 62.6444
" />
<path d="M206.7094 62.6444
L206.6808 62.7301
" />
<path d="M206.6808 62.7301
L206.6808 62.7872
" />
<path d="M206.6808 62.7872
L206.7094 62.8729
" />
<path d="M206.7094 62.8729
L206.7380 62.9015
" />
<path d="M206.7380 62.9015
L206.9380 62.9015
" />
<path d="M206.9380 62.9015
L206.9380 62.7872
" />
<path d="M206.6808 63.1586
L207.2808 63.1586
" />
<path d="M207.2808 63.1586
L206.6808 63.5015
" />
<path d="M206.6808 63.5015
L207.2808 63.5015
" />
<path d="M206.6808 63.7872
L207.2808 63.7872
" />
<path d="M207.2808 63.7872
L207.2808 63.9301
" />
<path d="M207.2808 63.9301
L207.2523 64.0158
" />
<path d="M207.2523 64.0158
L207.1951 64.0729
" />
<path d="M207.1951 64.0729
L207.1380 64.1015
" />
<path d="M207.1380 64.1015
L207.0237 64.1301
" />
<path d="M207.0237 64.1301
L206.9380 64.1301
" />
<path d="M206.9380 64.1301
L206.8237 64.1015
" />
<path d="M206.8237 64.1015
L206.7665 64.0729
" />
<path d="M206.7665 64.0729
L206.7094 64.0158
" />
<path d="M206.7094 64.0158
L206.6808 63.9301
" />
<path d="M206.6808 63.9301
L206.6808 63.7872
" />
</g><g transform="rotate(-90.000000 224.6622 59.9200)">
<text x="224.6622" y="59.9200"
transform="scale(-1 1) translate(-449.324400 0)"
textLength="16.9267" font-size="0.9333" lengthAdjust="spacingAndGlyphs"
text-anchor="middle" opacity="0">https://github.com/pedalboard</text>
</g>
<g class="stroked-text"><desc>https://github.com/pedalboard</desc>
<path d="M224.7531 51.7033
L225.4531 51.7033
" />
<path d="M224.7531 52.0033
L225.1197 52.0033
" />
<path d="M225.1197 52.0033
L225.1864 51.9700
" />
<path d="M225.1864 51.9700
L225.2197 51.9033
" />
<path d="M225.2197 51.9033
L225.2197 51.8033
" />
<path d="M225.2197 51.8033
L225.1864 51.7367
" />
<path d="M225.1864 51.7367
L225.1531 51.7033
" />
<path d="M225.2197 52.2367
L225.2197 52.5033
" />
<path d="M225.4531 52.3367
L224.8531 52.3367
" />
<path d="M224.8531 52.3367
L224.7864 52.3700
" />
<path d="M224.7864 52.3700
L224.7531 52.4367
" />
<path d="M224.7531 52.4367
L224.7531 52.5033
" />
<path d="M225.2197 52.6367
L225.2197 52.9033
" />
<path d="M225.4531 52.7367
L224.8531 52.7367
" />
<path d="M224.8531 52.7367
L224.7864 52.7700
" />
<path d="M224.7864 52.7700
L224.7531 52.8367
" />
<path d="M224.7531 52.8367
L224.7531 52.9033
" />
<path d="M225.2197 53.1367
L224.5197 53.1367
" />
<path d="M225.1864 53.1367
L225.2197 53.2033
" />
<path d="M225.2197 53.2033
L225.2197 53.3367
" />
<path d="M225.2197 53.3367
L225.1864 53.4033
" />
<path d="M225.1864 53.4033
L225.1531 53.4367
" />
<path d="M225.1531 53.4367
L225.0864 53.4700
" />
<path d="M225.0864 53.4700
L224.8864 53.4700
" />
<path d="M224.8864 53.4700
L224.8197 53.4367
" />
<path d="M224.8197 53.4367
L224.7864 53.4033
" />
<path d="M224.7864 53.4033
L224.7531 53.3367
" />
<path d="M224.7531 53.3367
L224.7531 53.2033
" />
<path d="M224.7531 53.2033
L224.7864 53.1367
" />
<path d="M224.7864 53.7367
L224.7531 53.8033
" />
<path d="M224.7531 53.8033
L224.7531 53.9367
" />
<path d="M224.7531 53.9367
L224.7864 54.0033
" />
<path d="M224.7864 54.0033
L224.8531 54.0367
" />
<path d="M224.8531 54.0367
L224.8864 54.0367
" />
<path d="M224.8864 54.0367
L224.9531 54.0033
" />
<path d="M224.9531 54.0033
L224.9864 53.9367
" />
<path d="M224.9864 53.9367
L224.9864 53.8367
" />
<path d="M224.9864 53.8367
L225.0197 53.7700
" />
<path d="M225.0197 53.7700
L225.0864 53.7367
" />
<path d="M225.0864 53.7367
L225.1197 53.7367
" />
<path d="M225.1197 53.7367
L225.1864 53.7700
" />
<path d="M225.1864 53.7700
L225.2197 53.8367
" />
<path d="M225.2197 53.8367
L225.2197 53.9367
" />
<path d="M225.2197 53.9367
L225.1864 54.0033
" />
<path d="M224.8197 54.3367
L224.7864 54.3700
" />
<path d="M224.7864 54.3700
L224.7531 54.3367
" />
<path d="M224.7531 54.3367
L224.7864 54.3033
" />
<path d="M224.7864 54.3033
L224.8197 54.3367
" />
<path d="M224.8197 54.3367
L224.7531 54.3367
" />
<path d="M225.1864 54.3367
L225.1531 54.3700
" />
<path d="M225.1531 54.3700
L225.1197 54.3367
" />
<path d="M225.1197 54.3367
L225.1531 54.3033
" />
<path d="M225.1531 54.3033
L225.1864 54.3367
" />
<path d="M225.1864 54.3367
L225.1197 54.3367
" />
<path d="M225.4864 55.1700
L224.5864 54.5700
" />
<path d="M225.4864 55.9033
L224.5864 55.3033
" />
<path d="M225.2197 56.4367
L224.6531 56.4367
" />
<path d="M224.6531 56.4367
L224.5864 56.4033
" />
<path d="M224.5864 56.4033
L224.5531 56.3700
" />
<path d="M224.5531 56.3700
L224.5197 56.3033
" />
<path d="M224.5197 56.3033
L224.5197 56.2033
" />
<path d="M224.5197 56.2033
L224.5531 56.1367
" />
<path d="M224.7864 56.4367
L224.7531 56.3700
" />
<path d="M224.7531 56.3700
L224.7531 56.2367
" />
<path d="M224.7531 56.2367
L224.7864 56.1700
" />
<path d="M224.7864 56.1700
L224.8197 56.1367
" />
<path d="M224.8197 56.1367
L224.8864 56.1033
" />
<path d="M224.8864 56.1033
L225.0864 56.1033
" />
<path d="M225.0864 56.1033
L225.1531 56.1367
" />
<path d="M225.1531 56.1367
L225.1864 56.1700
" />
<path d="M225.1864 56.1700
L225.2197 56.2367
" />
<path d="M225.2197 56.2367
L225.2197 56.3700
" />
<path d="M225.2197 56.3700
L225.1864 56.4367
" />
<path d="M224.7531 56.7700
L225.2197 56.7700
" />
<path d="M225.4531 56.7700
L225.4197 56.7367
" />
<path d="M225.4197 56.7367
L225.3864 56.7700
" />
<path d="M225.3864 56.7700
L225.4197 56.8033
" />
<path d="M225.4197 56.8033
L225.4531 56.7700
" />
<path d="M225.4531 56.7700
L225.3864 56.7700
" />
<path d="M225.2197 57.0033
L225.2197 57.2700
" />
<path d="M225.4531 57.1033
L224.8531 57.1033
" />
<path d="M224.8531 57.1033
L224.7864 57.1367
" />
<path d="M224.7864 57.1367
L224.7531 57.2033
" />
<path d="M224.7531 57.2033
L224.7531 57.2700
" />
<path d="M224.7531 57.5033
L225.4531 57.5033
" />
<path d="M224.7531 57.8033
L225.1197 57.8033
" />
<path d="M225.1197 57.8033
L225.1864 57.7700
" />
<path d="M225.1864 57.7700
L225.2197 57.7033
" />
<path d="M225.2197 57.7033
L225.2197 57.6033
" />
<path d="M225.2197 57.6033
L225.1864 57.5367
" />
<path d="M225.1864 57.5367
L225.1531 57.5033
" />
<path d="M225.2197 58.4367
L224.7531 58.4367
" />
<path d="M225.2197 58.1367
L224.8531 58.1367
" />
<path d="M224.8531 58.1367
L224.7864 58.1700
" />
<path d="M224.7864 58.1700
L224.7531 58.2367
" />
<path d="M224.7531 58.2367
L224.7531 58.3367
" />
<path d="M224.7531 58.3367
L224.7864 58.4033
" />
<path d="M224.7864 58.4033
L224.8197 58.4367
" />
<path d="M224.7531 58.7700
L225.4531 58.7700
" />
<path d="M225.1864 58.7700
L225.2197 58.8367
" />
<path d="M225.2197 58.8367
L225.2197 58.9700
" />
<path d="M225.2197 58.9700
L225.1864 59.0367
" />
<path d="M225.1864 59.0367
L225.1531 59.0700
" />
<path d="M225.1531 59.0700
L225.0864 59.1033
" />
<path d="M225.0864 59.1033
L224.8864 59.1033
" />
<path d="M224.8864 59.1033
L224.8197 59.0700
" />
<path d="M224.8197 59.0700
L224.7864 59.0367
" />
<path d="M224.7864 59.0367
L224.7531 58.9700
" />
<path d="M224.7531 58.9700
L224.7531 58.8367
" />
<path d="M224.7531 58.8367
L224.7864 58.7700
" />
<path d="M224.8197 59.4033
L224.7864 59.4367
" />
<path d="M224.7864 59.4367
L224.7531 59.4033
" />
<path d="M224.7531 59.4033
L224.7864 59.3700
" />
<path d="M224.7864 59.3700
L224.8197 59.4033
" />
<path d="M224.8197 59.4033
L224.7531 59.4033
" />
<path d="M224.7864 60.0367
L224.7531 59.9700
" />
<path d="M224.7531 59.9700
L224.7531 59.8367
" />
<path d="M224.7531 59.8367
L224.7864 59.7700
" />
<path d="M224.7864 59.7700
L224.8197 59.7367
" />
<path d="M224.8197 59.7367
L224.8864 59.7033
" />
<path d="M224.8864 59.7033
L225.0864 59.7033
" />
<path d="M225.0864 59.7033
L225.1531 59.7367
" />
<path d="M225.1531 59.7367
L225.1864 59.7700
" />
<path d="M225.1864 59.7700
L225.2197 59.8367
" />
<path d="M225.2197 59.8367
L225.2197 59.9700
" />
<path d="M225.2197 59.9700
L225.1864 60.0367
" />
<path d="M224.7531 60.4367
L224.7864 60.3700
" />
<path d="M224.7864 60.3700
L224.8197 60.3367
" />
<path d="M224.8197 60.3367
L224.8864 60.3033
" />
<path d="M224.8864 60.3033
L225.0864 60.3033
" />
<path d="M225.0864 60.3033
L225.1531 60.3367
" />
<path d="M225.1531 60.3367
L225.1864 60.3700
" />
<path d="M225.1864 60.3700
L225.2197 60.4367
" />
<path d="M225.2197 60.4367
L225.2197 60.5367
" />
<path d="M225.2197 60.5367
L225.1864 60.6033
" />
<path d="M225.1864 60.6033
L225.1531 60.6367
" />
<path d="M225.1531 60.6367
L225.0864 60.6700
" />
<path d="M225.0864 60.6700
L224.8864 60.6700
" />
<path d="M224.8864 60.6700
L224.8197 60.6367
" />
<path d="M224.8197 60.6367
L224.7864 60.6033
" />
<path d="M224.7864 60.6033
L224.7531 60.5367
" />
<path d="M224.7531 60.5367
L224.7531 60.4367
" />
<path d="M224.7531 60.9700
L225.2197 60.9700
" />
<path d="M225.1531 60.9700
L225.1864 61.0033
" />
<path d="M225.1864 61.0033
L225.2197 61.0700
" />
<path d="M225.2197 61.0700
L225.2197 61.1700
" />
<path d="M225.2197 61.1700
L225.1864 61.2367
" />
<path d="M225.1864 61.2367
L225.1197 61.2700
" />
<path d="M225.1197 61.2700
L224.7531 61.2700
" />
<path d="M225.1197 61.2700
L225.1864 61.3033
" />
<path d="M225.1864 61.3033
L225.2197 61.3700
" />
<path d="M225.2197 61.3700
L225.2197 61.4700
" />
<path d="M225.2197 61.4700
L225.1864 61.5367
" />
<path d="M225.1864 61.5367
L225.1197 61.5700
" />
<path d="M225.1197 61.5700
L224.7531 61.5700
" />
<path d="M225.4864 62.4033
L224.5864 61.8033
" />
<path d="M225.2197 62.6367
L224.5197 62.6367
" />
<path d="M225.1864 62.6367
L225.2197 62.7033
" />
<path d="M225.2197 62.7033
L225.2197 62.8367
" />
<path d="M225.2197 62.8367
L225.1864 62.9033
" />
<path d="M225.1864 62.9033
L225.1531 62.9367
" />
<path d="M225.1531 62.9367
L225.0864 62.9700
" />
<path d="M225.0864 62.9700
L224.8864 62.9700
" />
<path d="M224.8864 62.9700
L224.8197 62.9367
" />
<path d="M224.8197 62.9367
L224.7864 62.9033
" />
<path d="M224.7864 62.9033
L224.7531 62.8367
" />
<path d="M224.7531 62.8367
L224.7531 62.7033
" />
<path d="M224.7531 62.7033
L224.7864 62.6367
" />
<path d="M224.7864 63.5367
L224.7531 63.4700
" />
<path d="M224.7531 63.4700
L224.7531 63.3367
" />
<path d="M224.7531 63.3367
L224.7864 63.2700
" />
<path d="M224.7864 63.2700
L224.8531 63.2367
" />
<path d="M224.8531 63.2367
L225.1197 63.2367
" />
<path d="M225.1197 63.2367
L225.1864 63.2700
" />
<path d="M225.1864 63.2700
L225.2197 63.3367
" />
<path d="M225.2197 63.3367
L225.2197 63.4700
" />
<path d="M225.2197 63.4700
L225.1864 63.5367
" />
<path d="M225.1864 63.5367
L225.1197 63.5700
" />
<path d="M225.1197 63.5700
L225.0531 63.5700
" />
<path d="M225.0531 63.5700
L224.9864 63.2367
" />
<path d="M224.7531 64.1700
L225.4531 64.1700
" />
<path d="M224.7864 64.1700
L224.7531 64.1033
" />
<path d="M224.7531 64.1033
L224.7531 63.9700
" />
<path d="M224.7531 63.9700
L224.7864 63.9033
" />
<path d="M224.7864 63.9033
L224.8197 63.8700
" />
<path d="M224.8197 63.8700
L224.8864 63.8367
" />
<path d="M224.8864 63.8367
L225.0864 63.8367
" />
<path d="M225.0864 63.8367
L225.1531 63.8700
" />
<path d="M225.1531 63.8700
L225.1864 63.9033
" />
<path d="M225.1864 63.9033
L225.2197 63.9700
" />
<path d="M225.2197 63.9700
L225.2197 64.1033
" />
<path d="M225.2197 64.1033
L225.1864 64.1700
" />
<path d="M224.7531 64.8033
L225.1197 64.8033
" />
<path d="M225.1197 64.8033
L225.1864 64.7700
" />
<path d="M225.1864 64.7700
L225.2197 64.7033
" />
<path d="M225.2197 64.7033
L225.2197 64.5700
" />
<path d="M225.2197 64.5700
L225.1864 64.5033
" />
<path d="M224.7864 64.8033
L224.7531 64.7367
" />
<path d="M224.7531 64.7367
L224.7531 64.5700
" />
<path d="M224.7531 64.5700
L224.7864 64.5033
" />
<path d="M224.7864 64.5033
L224.8531 64.4700
" />
<path d="M224.8531 64.4700
L224.9197 64.4700
" />
<path d="M224.9197 64.4700
L224.9864 64.5033
" />
<path d="M224.9864 64.5033
L225.0197 64.5700
" />
<path d="M225.0197 64.5700
L225.0197 64.7367
" />
<path d="M225.0197 64.7367
L225.0531 64.8033
" />
<path d="M224.7531 65.2367
L224.7864 65.1700
" />
<path d="M224.7864 65.1700
L224.8531 65.1367
" />
<path d="M224.8531 65.1367
L225.4531 65.1367
" />
<path d="M224.7531 65.5033
L225.4531 65.5033
" />
<path d="M225.1864 65.5033
L225.2197 65.5700
" />
<path d="M225.2197 65.5700
L225.2197 65.7033
" />
<path d="M225.2197 65.7033
L225.1864 65.7700
" />
<path d="M225.1864 65.7700
L225.1531 65.8033
" />
<path d="M225.1531 65.8033
L225.0864 65.8367
" />
<path d="M225.0864 65.8367
L224.8864 65.8367
" />
<path d="M224.8864 65.8367
L224.8197 65.8033
" />
<path d="M224.8197 65.8033
L224.7864 65.7700
" />
<path d="M224.7864 65.7700
L224.7531 65.7033
" />
<path d="M224.7531 65.7033
L224.7531 65.5700
" />
<path d="M224.7531 65.5700
L224.7864 65.5033
" />
<path d="M224.7531 66.2367
L224.7864 66.1700
" />
<path d="M224.7864 66.1700
L224.8197 66.1367
" />
<path d="M224.8197 66.1367
L224.8864 66.1033
" />
<path d="M224.8864 66.1033
L225.0864 66.1033
" />
<path d="M225.0864 66.1033
L225.1531 66.1367
" />
<path d="M225.1531 66.1367
L225.1864 66.1700
" />
<path d="M225.1864 66.1700
L225.2197 66.2367
" />
<path d="M225.2197 66.2367
L225.2197 66.3367
" />
<path d="M225.2197 66.3367
L225.1864 66.4033
" />
<path d="M225.1864 66.4033
L225.1531 66.4367
" />
<path d="M225.1531 66.4367
L225.0864 66.4700
" />
<path d="M225.0864 66.4700
L224.8864 66.4700
" />
<path d="M224.8864 66.4700
L224.8197 66.4367
" />
<path d="M224.8197 66.4367
L224.7864 66.4033
" />
<path d="M224.7864 66.4033
L224.7531 66.3367
" />
<path d="M224.7531 66.3367
L224.7531 66.2367
" />
<path d="M224.7531 67.0700
L225.1197 67.0700
" />
<path d="M225.1197 67.0700
L225.1864 67.0367
" />
<path d="M225.1864 67.0367
L225.2197 66.9700
" />
<path d="M225.2197 66.9700
L225.2197 66.8367
" />
<path d="M225.2197 66.8367
L225.1864 66.7700
" />
<path d="M224.7864 67.0700
L224.7531 67.0033
" />
<path d="M224.7531 67.0033
L224.7531 66.8367
" />
<path d="M224.7531 66.8367
L224.7864 66.7700
" />
<path d="M224.7864 66.7700
L224.8531 66.7367
" />
<path d="M224.8531 66.7367
L224.9197 66.7367
" />
<path d="M224.9197 66.7367
L224.9864 66.7700
" />
<path d="M224.9864 66.7700
L225.0197 66.8367
" />
<path d="M225.0197 66.8367
L225.0197 67.0033
" />
<path d="M225.0197 67.0033
L225.0531 67.0700
" />
<path d="M224.7531 67.4033
L225.2197 67.4033
" />
<path d="M225.0864 67.4033
L225.1531 67.4367
" />
<path d="M225.1531 67.4367
L225.1864 67.4700
" />
<path d="M225.1864 67.4700
L225.2197 67.5367
" />
<path d="M225.2197 67.5367
L225.2197 67.6033
" />
<path d="M224.7531 68.1367
L225.4531 68.1367
" />
<path d="M224.7864 68.1367
L224.7531 68.0700
" />
<path d="M224.7531 68.0700
L224.7531 67.9367
" />
<path d="M224.7531 67.9367
L224.7864 67.8700
" />
<path d="M224.7864 67.8700
L224.8197 67.8367
" />
<path d="M224.8197 67.8367
L224.8864 67.8033
" />
<path d="M224.8864 67.8033
L225.0864 67.8033
" />
<path d="M225.0864 67.8033
L225.1531 67.8367
" />
<path d="M225.1531 67.8367
L225.1864 67.8700
" />
<path d="M225.1864 67.8700
L225.2197 67.9367
" />
<path d="M225.2197 67.9367
L225.2197 68.0700
" />
<path d="M225.2197 68.0700
L225.1864 68.1367
" />
</g><g transform="rotate(-90.000000 206.6122 54.3400)">
<text x="206.6122" y="54.3400"
transform="scale(-1 1) translate(-413.224400 0)"
textLength="1.8943" font-size="0.8000" lengthAdjust="spacingAndGlyphs"
text-anchor="start" opacity="0">VCC</text>
</g>
<g class="stroked-text"><desc>VCC</desc>
<path d="M207.2908 54.4629
L206.6908 54.6629
" />
<path d="M206.6908 54.6629
L207.2908 54.8629
" />
<path d="M206.7480 55.4058
L206.7194 55.3772
" />
<path d="M206.7194 55.3772
L206.6908 55.2915
" />
<path d="M206.6908 55.2915
L206.6908 55.2344
" />
<path d="M206.6908 55.2344
L206.7194 55.1486
" />
<path d="M206.7194 55.1486
L206.7765 55.0915
" />
<path d="M206.7765 55.0915
L206.8337 55.0629
" />
<path d="M206.8337 55.0629
L206.9480 55.0344
" />
<path d="M206.9480 55.0344
L207.0337 55.0344
" />
<path d="M207.0337 55.0344
L207.1480 55.0629
" />
<path d="M207.1480 55.0629
L207.2051 55.0915
" />
<path d="M207.2051 55.0915
L207.2623 55.1486
" />
<path d="M207.2623 55.1486
L207.2908 55.2344
" />
<path d="M207.2908 55.2344
L207.2908 55.2915
" />
<path d="M207.2908 55.2915
L207.2623 55.3772
" />
<path d="M207.2623 55.3772
L207.2337 55.4058
" />
<path d="M206.7480 56.0058
L206.7194 55.9772
" />
<path d="M206.7194 55.9772
L206.6908 55.8915
" />
<path d="M206.6908 55.8915
L206.6908 55.8344
" />
<path d="M206.6908 55.8344
L206.7194 55.7486
" />
<path d="M206.7194 55.7486
L206.7765 55.6915
" />
<path d="M206.7765 55.6915
L206.8337 55.6629
" />
<path d="M206.8337 55.6629
L206.9480 55.6344
" />
<path d="M206.9480 55.6344
L207.0337 55.6344
" />
<path d="M207.0337 55.6344
L207.1480 55.6629
" />
<path d="M207.1480 55.6629
L207.2051 55.6915
" />
<path d="M207.2051 55.6915
L207.2623 55.7486
" />
<path d="M207.2623 55.7486
L207.2908 55.8344
" />
<path d="M207.2908 55.8344
L207.2908 55.8915
" />
<path d="M207.2908 55.8915
L207.2623 55.9772
" />
<path d="M207.2623 55.9772
L207.2337 56.0058
" />
</g><text x="217.0522" y="69.8350"
transform="scale(-1 1) translate(-434.104400 0)"
textLength="7.0809" font-size="0.6667" lengthAdjust="spacingAndGlyphs"
text-anchor="middle" opacity="0">PCB: v1.1.0-RC1 </text>
<g class="stroked-text"><desc>PCB: v1.1.0-RC1 </desc>
<path d="M213.7308 69.7686
L213.7308 69.2686
" />
<path d="M213.7308 69.2686
L213.9212 69.2686
" />
<path d="M213.9212 69.2686
L213.9689 69.2924
" />
<path d="M213.9689 69.2924
L213.9927 69.3162
" />
<path d="M213.9927 69.3162
L214.0165 69.3638
" />
<path d="M214.0165 69.3638
L214.0165 69.4353
" />
<path d="M214.0165 69.4353
L213.9927 69.4829
" />
<path d="M213.9927 69.4829
L213.9689 69.5067
" />
<path d="M213.9689 69.5067
L213.9212 69.5305
" />
<path d="M213.9212 69.5305
L213.7308 69.5305
" />
<path d="M214.5165 69.7210
L214.4927 69.7448
" />
<path d="M214.4927 69.7448
L214.4212 69.7686
" />
<path d="M214.4212 69.7686
L214.3736 69.7686
" />
<path d="M214.3736 69.7686
L214.3022 69.7448
" />
<path d="M214.3022 69.7448
L214.2546 69.6972
" />
<path d="M214.2546 69.6972
L214.2308 69.6496
" />
<path d="M214.2308 69.6496
L214.2070 69.5543
" />
<path d="M214.2070 69.5543
L214.2070 69.4829
" />
<path d="M214.2070 69.4829
L214.2308 69.3877
" />
<path d="M214.2308 69.3877
L214.2546 69.3400
" />
<path d="M214.2546 69.3400
L214.3022 69.2924
" />
<path d="M214.3022 69.2924
L214.3736 69.2686
" />
<path d="M214.3736 69.2686
L214.4212 69.2686
" />
<path d="M214.4212 69.2686
L214.4927 69.2924
" />
<path d="M214.4927 69.2924
L214.5165 69.3162
" />
<path d="M214.8974 69.5067
L214.9689 69.5305
" />
<path d="M214.9689 69.5305
L214.9927 69.5543
" />
<path d="M214.9927 69.5543
L215.0165 69.6019
" />
<path d="M215.0165 69.6019
L215.0165 69.6734
" />
<path d="M215.0165 69.6734
L214.9927 69.7210
" />
<path d="M214.9927 69.7210
L214.9689 69.7448
" />
<path d="M214.9689 69.7448
L214.9212 69.7686
" />
<path d="M214.9212 69.7686
L214.7308 69.7686
" />
<path d="M214.7308 69.7686
L214.7308 69.2686
" />
<path d="M214.7308 69.2686
L214.8974 69.2686
" />
<path d="M214.8974 69.2686
L214.9451 69.2924
" />
<path d="M214.9451 69.2924
L214.9689 69.3162
" />
<path d="M214.9689 69.3162
L214.9927 69.3638
" />
<path d="M214.9927 69.3638
L214.9927 69.4115
" />
<path d="M214.9927 69.4115
L214.9689 69.4591
" />
<path d="M214.9689 69.4591
L214.9451 69.4829
" />
<path d="M214.9451 69.4829
L214.8974 69.5067
" />
<path d="M214.8974 69.5067
L214.7308 69.5067
" />
<path d="M215.2308 69.7210
L215.2546 69.7448
" />
<path d="M215.2546 69.7448
L215.2308 69.7686
" />
<path d="M215.2308 69.7686
L215.2070 69.7448
" />
<path d="M215.2070 69.7448
L215.2308 69.7210
" />
<path d="M215.2308 69.7210
L215.2308 69.7686
" />
<path d="M215.2308 69.4591
L215.2546 69.4829
" />
<path d="M215.2546 69.4829
L215.2308 69.5067
" />
<path d="M215.2308 69.5067
L215.2070 69.4829
" />
<path d="M215.2070 69.4829
L215.2308 69.4591
" />
<path d="M215.2308 69.4591
L215.2308 69.5067
" />
<path d="M215.8022 69.4353
L215.9212 69.7686
" />
<path d="M215.9212 69.7686
L216.0403 69.4353
" />
<path d="M216.4927 69.7686
L216.2070 69.7686
" />
<path d="M216.3498 69.7686
L216.3498 69.2686
" />
<path d="M216.3498 69.2686
L216.3022 69.3400
" />
<path d="M216.3022 69.3400
L216.2546 69.3877
" />
<path d="M216.2546 69.3877
L216.2070 69.4115
" />
<path d="M216.7070 69.7210
L216.7308 69.7448
" />
<path d="M216.7308 69.7448
L216.7070 69.7686
" />
<path d="M216.7070 69.7686
L216.6832 69.7448
" />
<path d="M216.6832 69.7448
L216.7070 69.7210
" />
<path d="M216.7070 69.7210
L216.7070 69.7686
" />
<path d="M217.2070 69.7686
L216.9212 69.7686
" />
<path d="M217.0641 69.7686
L217.0641 69.2686
" />
<path d="M217.0641 69.2686
L217.0165 69.3400
" />
<path d="M217.0165 69.3400
L216.9689 69.3877
" />
<path d="M216.9689 69.3877
L216.9212 69.4115
" />
<path d="M217.4212 69.7210
L217.4451 69.7448
" />
<path d="M217.4451 69.7448
L217.4212 69.7686
" />
<path d="M217.4212 69.7686
L217.3974 69.7448
" />
<path d="M217.3974 69.7448
L217.4212 69.7210
" />
<path d="M217.4212 69.7210
L217.4212 69.7686
" />
<path d="M217.7546 69.2686
L217.8022 69.2686
" />
<path d="M217.8022 69.2686
L217.8498 69.2924
" />
<path d="M217.8498 69.2924
L217.8736 69.3162
" />
<path d="M217.8736 69.3162
L217.8974 69.3638
" />
<path d="M217.8974 69.3638
L217.9212 69.4591
" />
<path d="M217.9212 69.4591
L217.9212 69.5781
" />
<path d="M217.9212 69.5781
L217.8974 69.6734
" />
<path d="M217.8974 69.6734
L217.8736 69.7210
" />
<path d="M217.8736 69.7210
L217.8498 69.7448
" />
<path d="M217.8498 69.7448
L217.8022 69.7686
" />
<path d="M217.8022 69.7686
L217.7546 69.7686
" />
<path d="M217.7546 69.7686
L217.7070 69.7448
" />
<path d="M217.7070 69.7448
L217.6832 69.7210
" />
<path d="M217.6832 69.7210
L217.6593 69.6734
" />
<path d="M217.6593 69.6734
L217.6355 69.5781
" />
<path d="M217.6355 69.5781
L217.6355 69.4591
" />
<path d="M217.6355 69.4591
L217.6593 69.3638
" />
<path d="M217.6593 69.3638
L217.6832 69.3162
" />
<path d="M217.6832 69.3162
L217.7070 69.2924
" />
<path d="M217.7070 69.2924
L217.7546 69.2686
" />
<path d="M218.1355 69.5781
L218.5165 69.5781
" />
<path d="M219.0403 69.7686
L218.8736 69.5305
" />
<path d="M218.7546 69.7686
L218.7546 69.2686
" />
<path d="M218.7546 69.2686
L218.9451 69.2686
" />
<path d="M218.9451 69.2686
L218.9927 69.2924
" />
<path d="M218.9927 69.2924
L219.0165 69.3162
" />
<path d="M219.0165 69.3162
L219.0403 69.3638
" />
<path d="M219.0403 69.3638
L219.0403 69.4353
" />
<path d="M219.0403 69.4353
L219.0165 69.4829
" />
<path d="M219.0165 69.4829
L218.9927 69.5067
" />
<path d="M218.9927 69.5067
L218.9451 69.5305
" />
<path d="M218.9451 69.5305
L218.7546 69.5305
" />
<path d="M219.5403 69.7210
L219.5165 69.7448
" />
<path d="M219.5165 69.7448
L219.4451 69.7686
" />
<path d="M219.4451 69.7686
L219.3974 69.7686
" />
<path d="M219.3974 69.7686
L219.3260 69.7448
" />
<path d="M219.3260 69.7448
L219.2784 69.6972
" />
<path d="M219.2784 69.6972
L219.2546 69.6496
" />
<path d="M219.2546 69.6496
L219.2308 69.5543
" />
<path d="M219.2308 69.5543
L219.2308 69.4829
" />
<path d="M219.2308 69.4829
L219.2546 69.3877
" />
<path d="M219.2546 69.3877
L219.2784 69.3400
" />
<path d="M219.2784 69.3400
L219.3260 69.2924
" />
<path d="M219.3260 69.2924
L219.3974 69.2686
" />
<path d="M219.3974 69.2686
L219.4451 69.2686
" />
<path d="M219.4451 69.2686
L219.5165 69.2924
" />
<path d="M219.5165 69.2924
L219.5403 69.3162
" />
<path d="M220.0165 69.7686
L219.7308 69.7686
" />
<path d="M219.8736 69.7686
L219.8736 69.2686
" />
<path d="M219.8736 69.2686
L219.8260 69.3400
" />
<path d="M219.8260 69.3400
L219.7784 69.3877
" />
<path d="M219.7784 69.3877
L219.7308 69.4115
" />
</g><text x="217.0522" y="70.6400"
transform="scale(-1 1) translate(-434.104400 0)"
textLength="4.3190" font-size="0.6667" lengthAdjust="spacingAndGlyphs"
text-anchor="middle" opacity="0">{GIT_HASH}</text>
<g class="stroked-text"><desc>{GIT_HASH}</desc>
<path d="M215.2546 70.7641
L215.2308 70.7641
" />
<path d="M215.2308 70.7641
L215.1832 70.7403
" />
<path d="M215.1832 70.7403
L215.1593 70.6927
" />
<path d="M215.1593 70.6927
L215.1593 70.4546
" />
<path d="M215.1593 70.4546
L215.1355 70.4069
" />
<path d="M215.1355 70.4069
L215.0879 70.3831
" />
<path d="M215.0879 70.3831
L215.1355 70.3593
" />
<path d="M215.1355 70.3593
L215.1593 70.3117
" />
<path d="M215.1593 70.3117
L215.1593 70.0736
" />
<path d="M215.1593 70.0736
L215.1832 70.0260
" />
<path d="M215.1832 70.0260
L215.2308 70.0022
" />
<path d="M215.2308 70.0022
L215.2546 70.0022
" />
<path d="M215.7070 70.0974
L215.6593 70.0736
" />
<path d="M215.6593 70.0736
L215.5879 70.0736
" />
<path d="M215.5879 70.0736
L215.5165 70.0974
" />
<path d="M215.5165 70.0974
L215.4689 70.1450
" />
<path d="M215.4689 70.1450
L215.4451 70.1927
" />
<path d="M215.4451 70.1927
L215.4212 70.2879
" />
<path d="M215.4212 70.2879
L215.4212 70.3593
" />
<path d="M215.4212 70.3593
L215.4451 70.4546
" />
<path d="M215.4451 70.4546
L215.4689 70.5022
" />
<path d="M215.4689 70.5022
L215.5165 70.5498
" />
<path d="M215.5165 70.5498
L215.5879 70.5736
" />
<path d="M215.5879 70.5736
L215.6355 70.5736
" />
<path d="M215.6355 70.5736
L215.7070 70.5498
" />
<path d="M215.7070 70.5498
L215.7308 70.5260
" />
<path d="M215.7308 70.5260
L215.7308 70.3593
" />
<path d="M215.7308 70.3593
L215.6355 70.3593
" />
<path d="M215.9451 70.5736
L215.9451 70.0736
" />
<path d="M216.1117 70.0736
L216.3974 70.0736
" />
<path d="M216.2546 70.5736
L216.2546 70.0736
" />
<path d="M216.4451 70.6212
L216.8260 70.6212
" />
<path d="M216.9451 70.5736
L216.9451 70.0736
" />
<path d="M216.9451 70.3117
L217.2308 70.3117
" />
<path d="M217.2308 70.5736
L217.2308 70.0736
" />
<path d="M217.4451 70.4308
L217.6832 70.4308
" />
<path d="M217.3974 70.5736
L217.5641 70.0736
" />
<path d="M217.5641 70.0736
L217.7308 70.5736
" />
<path d="M217.8736 70.5498
L217.9451 70.5736
" />
<path d="M217.9451 70.5736
L218.0641 70.5736
" />
<path d="M218.0641 70.5736
L218.1117 70.5498
" />
<path d="M218.1117 70.5498
L218.1355 70.5260
" />
<path d="M218.1355 70.5260
L218.1593 70.4784
" />
<path d="M218.1593 70.4784
L218.1593 70.4308
" />
<path d="M218.1593 70.4308
L218.1355 70.3831
" />
<path d="M218.1355 70.3831
L218.1117 70.3593
" />
<path d="M218.1117 70.3593
L218.0641 70.3355
" />
<path d="M218.0641 70.3355
L217.9689 70.3117
" />
<path d="M217.9689 70.3117
L217.9212 70.2879
" />
<path d="M217.9212 70.2879
L217.8974 70.2641
" />
<path d="M217.8974 70.2641
L217.8736 70.2165
" />
<path d="M217.8736 70.2165
L217.8736 70.1688
" />
<path d="M217.8736 70.1688
L217.8974 70.1212
" />
<path d="M217.8974 70.1212
L217.9212 70.0974
" />
<path d="M217.9212 70.0974
L217.9689 70.0736
" />
<path d="M217.9689 70.0736
L218.0879 70.0736
" />
<path d="M218.0879 70.0736
L218.1593 70.0974
" />
<path d="M218.3736 70.5736
L218.3736 70.0736
" />
<path d="M218.3736 70.3117
L218.6593 70.3117
" />
<path d="M218.6593 70.5736
L218.6593 70.0736
" />
<path d="M218.8498 70.7641
L218.8736 70.7641
" />
<path d="M218.8736 70.7641
L218.9212 70.7403
" />
<path d="M218.9212 70.7403
L218.9451 70.6927
" />
<path d="M218.9451 70.6927
L218.9451 70.4546
" />
<path d="M218.9451 70.4546
L218.9689 70.4069
" />
<path d="M218.9689 70.4069
L219.0165 70.3831
" />
<path d="M219.0165 70.3831
L218.9689 70.3593
" />
<path d="M218.9689 70.3593
L218.9451 70.3117
" />
<path d="M218.9451 70.3117
L218.9451 70.0736
" />
<path d="M218.9451 70.0736
L218.9212 70.0260
" />
<path d="M218.9212 70.0260
L218.8736 70.0022
" />
<path d="M218.8736 70.0022
L218.8498 70.0022
" />
</g><text x="217.2722" y="51.6200"
transform="scale(-1 1) translate(-434.544400 0)"
textLength="11.3267" font-size="0.9333" lengthAdjust="spacingAndGlyphs"
text-anchor="middle" opacity="0">Pedalboard LED Ring</text>
<g class="stroked-text"><desc>Pedalboard LED Ring</desc>
<path d="M211.8555 51.5291
L211.8555 50.8291
" />
<path d="M211.8555 50.8291
L212.1222 50.8291
" />
<path d="M212.1222 50.8291
L212.1889 50.8625
" />
<path d="M212.1889 50.8625
L212.2222 50.8958
" />
<path d="M212.2222 50.8958
L212.2555 50.9625
" />
<path d="M212.2555 50.9625
L212.2555 51.0625
" />
<path d="M212.2555 51.0625
L212.2222 51.1291
" />
<path d="M212.2222 51.1291
L212.1889 51.1625
" />
<path d="M212.1889 51.1625
L212.1222 51.1958
" />
<path d="M212.1222 51.1958
L211.8555 51.1958
" />
<path d="M212.8222 51.4958
L212.7555 51.5291
" />
<path d="M212.7555 51.5291
L212.6222 51.5291
" />
<path d="M212.6222 51.5291
L212.5555 51.4958
" />
<path d="M212.5555 51.4958
L212.5222 51.4291
" />
<path d="M212.5222 51.4291
L212.5222 51.1625
" />
<path d="M212.5222 51.1625
L212.5555 51.0958
" />
<path d="M212.5555 51.0958
L212.6222 51.0625
" />
<path d="M212.6222 51.0625
L212.7555 51.0625
" />
<path d="M212.7555 51.0625
L212.8222 51.0958
" />
<path d="M212.8222 51.0958
L212.8555 51.1625
" />
<path d="M212.8555 51.1625
L212.8555 51.2291
" />
<path d="M212.8555 51.2291
L212.5222 51.2958
" />
<path d="M213.4555 51.5291
L213.4555 50.8291
" />
<path d="M213.4555 51.4958
L213.3889 51.5291
" />
<path d="M213.3889 51.5291
L213.2555 51.5291
" />
<path d="M213.2555 51.5291
L213.1889 51.4958
" />
<path d="M213.1889 51.4958
L213.1555 51.4625
" />
<path d="M213.1555 51.4625
L213.1222 51.3958
" />
<path d="M213.1222 51.3958
L213.1222 51.1958
" />
<path d="M213.1222 51.1958
L213.1555 51.1291
" />
<path d="M213.1555 51.1291
L213.1889 51.0958
" />
<path d="M213.1889 51.0958
L213.2555 51.0625
" />
<path d="M213.2555 51.0625
L213.3889 51.0625
" />
<path d="M213.3889 51.0625
L213.4555 51.0958
" />
<path d="M214.0889 51.5291
L214.0889 51.1625
" />
<path d="M214.0889 51.1625
L214.0555 51.0958
" />
<path d="M214.0555 51.0958
L213.9889 51.0625
" />
<path d="M213.9889 51.0625
L213.8555 51.0625
" />
<path d="M213.8555 51.0625
L213.7889 51.0958
" />
<path d="M214.0889 51.4958
L214.0222 51.5291
" />
<path d="M214.0222 51.5291
L213.8555 51.5291
" />
<path d="M213.8555 51.5291
L213.7889 51.4958
" />
<path d="M213.7889 51.4958
L213.7555 51.4291
" />
<path d="M213.7555 51.4291
L213.7555 51.3625
" />
<path d="M213.7555 51.3625
L213.7889 51.2958
" />
<path d="M213.7889 51.2958
L213.8555 51.2625
" />
<path d="M213.8555 51.2625
L214.0222 51.2625
" />
<path d="M214.0222 51.2625
L214.0889 51.2291
" />
<path d="M214.5222 51.5291
L214.4555 51.4958
" />
<path d="M214.4555 51.4958
L214.4222 51.4291
" />
<path d="M214.4222 51.4291
L214.4222 50.8291
" />
<path d="M214.7889 51.5291
L214.7889 50.8291
" />
<path d="M214.7889 51.0958
L214.8555 51.0625
" />
<path d="M214.8555 51.0625
L214.9889 51.0625
" />
<path d="M214.9889 51.0625
L215.0555 51.0958
" />
<path d="M215.0555 51.0958
L215.0889 51.1291
" />
<path d="M215.0889 51.1291
L215.1222 51.1958
" />
<path d="M215.1222 51.1958
L215.1222 51.3958
" />
<path d="M215.1222 51.3958
L215.0889 51.4625
" />
<path d="M215.0889 51.4625
L215.0555 51.4958
" />
<path d="M215.0555 51.4958
L214.9889 51.5291
" />
<path d="M214.9889 51.5291
L214.8555 51.5291
" />
<path d="M214.8555 51.5291
L214.7889 51.4958
" />
<path d="M215.5222 51.5291
L215.4555 51.4958
" />
<path d="M215.4555 51.4958
L215.4222 51.4625
" />
<path d="M215.4222 51.4625
L215.3889 51.3958
" />
<path d="M215.3889 51.3958
L215.3889 51.1958
" />
<path d="M215.3889 51.1958
L215.4222 51.1291
" />
<path d="M215.4222 51.1291
L215.4555 51.0958
" />
<path d="M215.4555 51.0958
L215.5222 51.0625
" />
<path d="M215.5222 51.0625
L215.6222 51.0625
" />
<path d="M215.6222 51.0625
L215.6889 51.0958
" />
<path d="M215.6889 51.0958
L215.7222 51.1291
" />
<path d="M215.7222 51.1291
L215.7555 51.1958
" />
<path d="M215.7555 51.1958
L215.7555 51.3958
" />
<path d="M215.7555 51.3958
L215.7222 51.4625
" />
<path d="M215.7222 51.4625
L215.6889 51.4958
" />
<path d="M215.6889 51.4958
L215.6222 51.5291
" />
<path d="M215.6222 51.5291
L215.5222 51.5291
" />
<path d="M216.3555 51.5291
L216.3555 51.1625
" />
<path d="M216.3555 51.1625
L216.3222 51.0958
" />
<path d="M216.3222 51.0958
L216.2555 51.0625
" />
<path d="M216.2555 51.0625
L216.1222 51.0625
" />
<path d="M216.1222 51.0625
L216.0555 51.0958
" />
<path d="M216.3555 51.4958
L216.2889 51.5291
" />
<path d="M216.2889 51.5291
L216.1222 51.5291
" />
<path d="M216.1222 51.5291
L216.0555 51.4958
" />
<path d="M216.0555 51.4958
L216.0222 51.4291
" />
<path d="M216.0222 51.4291
L216.0222 51.3625
" />
<path d="M216.0222 51.3625
L216.0555 51.2958
" />
<path d="M216.0555 51.2958
L216.1222 51.2625
" />
<path d="M216.1222 51.2625
L216.2889 51.2625
" />
<path d="M216.2889 51.2625
L216.3555 51.2291
" />
<path d="M216.6889 51.5291
L216.6889 51.0625
" />
<path d="M216.6889 51.1958
L216.7222 51.1291
" />
<path d="M216.7222 51.1291
L216.7555 51.0958
" />
<path d="M216.7555 51.0958
L216.8222 51.0625
" />
<path d="M216.8222 51.0625
L216.8889 51.0625
" />
<path d="M217.4222 51.5291
L217.4222 50.8291
" />
<path d="M217.4222 51.4958
L217.3555 51.5291
" />
<path d="M217.3555 51.5291
L217.2222 51.5291
" />
<path d="M217.2222 51.5291
L217.1555 51.4958
" />
<path d="M217.1555 51.4958
L217.1222 51.4625
" />
<path d="M217.1222 51.4625
L217.0889 51.3958
" />
<path d="M217.0889 51.3958
L217.0889 51.1958
" />
<path d="M217.0889 51.1958
L217.1222 51.1291
" />
<path d="M217.1222 51.1291
L217.1555 51.0958
" />
<path d="M217.1555 51.0958
L217.2222 51.0625
" />
<path d="M217.2222 51.0625
L217.3555 51.0625
" />
<path d="M217.3555 51.0625
L217.4222 51.0958
" />
<path d="M218.6222 51.5291
L218.2889 51.5291
" />
<path d="M218.2889 51.5291
L218.2889 50.8291
" />
<path d="M218.8555 51.1625
L219.0889 51.1625
" />
<path d="M219.1889 51.5291
L218.8555 51.5291
" />
<path d="M218.8555 51.5291
L218.8555 50.8291
" />
<path d="M218.8555 50.8291
L219.1889 50.8291
" />
<path d="M219.4889 51.5291
L219.4889 50.8291
" />
<path d="M219.4889 50.8291
L219.6555 50.8291
" />
<path d="M219.6555 50.8291
L219.7555 50.8625
" />
<path d="M219.7555 50.8625
L219.8222 50.9291
" />
<path d="M219.8222 50.9291
L219.8555 50.9958
" />
<path d="M219.8555 50.9958
L219.8889 51.1291
" />
<path d="M219.8889 51.1291
L219.8889 51.2291
" />
<path d="M219.8889 51.2291
L219.8555 51.3625
" />
<path d="M219.8555 51.3625
L219.8222 51.4291
" />
<path d="M219.8222 51.4291
L219.7555 51.4958
" />
<path d="M219.7555 51.4958
L219.6555 51.5291
" />
<path d="M219.6555 51.5291
L219.4889 51.5291
" />
<path d="M221.1222 51.5291
L220.8889 51.1958
" />
<path d="M220.7222 51.5291
L220.7222 50.8291
" />
<path d="M220.7222 50.8291
L220.9889 50.8291
" />
<path d="M220.9889 50.8291
L221.0555 50.8625
" />
<path d="M221.0555 50.8625
L221.0889 50.8958
" />
<path d="M221.0889 50.8958
L221.1222 50.9625
" />
<path d="M221.1222 50.9625
L221.1222 51.0625
" />
<path d="M221.1222 51.0625
L221.0889 51.1291
" />
<path d="M221.0889 51.1291
L221.0555 51.1625
" />
<path d="M221.0555 51.1625
L220.9889 51.1958
" />
<path d="M220.9889 51.1958
L220.7222 51.1958
" />
<path d="M221.4222 51.5291
L221.4222 51.0625
" />
<path d="M221.4222 50.8291
L221.3889 50.8625
" />
<path d="M221.3889 50.8625
L221.4222 50.8958
" />
<path d="M221.4222 50.8958
L221.4555 50.8625
" />
<path d="M221.4555 50.8625
L221.4222 50.8291
" />
<path d="M221.4222 50.8291
L221.4222 50.8958
" />
<path d="M221.7555 51.0625
L221.7555 51.5291
" />
<path d="M221.7555 51.1291
L221.7889 51.0958
" />
<path d="M221.7889 51.0958
L221.8555 51.0625
" />
<path d="M221.8555 51.0625
L221.9555 51.0625
" />
<path d="M221.9555 51.0625
L222.0222 51.0958
" />
<path d="M222.0222 51.0958
L222.0555 51.1625
" />
<path d="M222.0555 51.1625
L222.0555 51.5291
" />
<path d="M222.6889 51.0625
L222.6889 51.6291
" />
<path d="M222.6889 51.6291
L222.6555 51.6958
" />
<path d="M222.6555 51.6958
L222.6222 51.7291
" />
<path d="M222.6222 51.7291
L222.5555 51.7625
" />
<path d="M222.5555 51.7625
L222.4555 51.7625
" />
<path d="M222.4555 51.7625
L222.3889 51.7291
" />
<path d="M222.6889 51.4958
L222.6222 51.5291
" />
<path d="M222.6222 51.5291
L222.4889 51.5291
" />
<path d="M222.4889 51.5291
L222.4222 51.4958
" />
<path d="M222.4222 51.4958
L222.3889 51.4625
" />
<path d="M222.3889 51.4625
L222.3555 51.3958
" />
<path d="M222.3555 51.3958
L222.3555 51.1958
" />
<path d="M222.3555 51.1958
L222.3889 51.1291
" />
<path d="M222.3889 51.1291
L222.4222 51.0958
" />
<path d="M222.4222 51.0958
L222.4889 51.0625
" />
<path d="M222.4889 51.0625
L222.6222 51.0625
" />
<path d="M222.6222 51.0625
L222.6889 51.0958
" />
</g><g transform="rotate(50.000000 210.3422 52.9600)">
<text x="210.3422" y="53.2100"
transform="scale(-1 1) translate(-420.684400 0)"
textLength="1.5571" font-size="0.6667" lengthAdjust="spacingAndGlyphs"
text-anchor="middle" opacity="0">JP1</text>
</g>
<g class="stroked-text"><desc>JP1</desc>
<path d="M209.8646 53.1031
L210.1381 53.3327
" />
<path d="M210.1381 53.3327
L210.1776 53.3969
" />
<path d="M210.1776 53.3969
L210.1834 53.4639
" />
<path d="M210.1834 53.4639
L210.1558 53.5340
" />
<path d="M210.1558 53.5340
L210.1251 53.5704
" />
<path d="M210.4006 53.2421
L210.0176 52.9207
" />
<path d="M210.0176 52.9207
L210.1400 52.7748
" />
<path d="M210.1400 52.7748
L210.1889 52.7537
" />
<path d="M210.1889 52.7537
L210.2224 52.7507
" />
<path d="M210.2224 52.7507
L210.2742 52.7631
" />
<path d="M210.2742 52.7631
L210.3289 52.8090
" />
<path d="M210.3289 52.8090
L210.3501 52.8578
" />
<path d="M210.3501 52.8578
L210.3530 52.8914
" />
<path d="M210.3530 52.8914
L210.3407 52.9432
" />
<path d="M210.3407 52.9432
L210.2182 53.0891
" />
<path d="M210.8904 52.6585
L210.7067 52.8773
" />
<path d="M210.7985 52.7679
L210.4155 52.4465
" />
<path d="M210.4155 52.4465
L210.4396 52.5289
" />
<path d="M210.4396 52.5289
L210.4455 52.5960
" />
<path d="M210.4455 52.5960
L210.4331 52.6478
" />
</g></g>
<g style="fill:#000000; fill-opacity:0.0; 
stroke:#000000; stroke-width:0.1200; stroke-opacity:1; 
stroke-linecap:round; stroke-linejoin:round;">
<path d="M209.0622 62.0600
L209.0622 57.9400
" />
<path d="M208.7622 62.0600
L209.0622 62.0600
" />
<path d="M206.7622 62.0600
L207.2422 62.0600
" />
<path d="M204.9422 62.0600
L205.2422 62.0600
" />
<path d="M204.9422 62.0600
L204.9422 57.9400
" />
<path d="M208.7622 57.9400
L209.0622 57.9400
" />
<path d="M206.7622 57.9400
L207.2422 57.9400
" />
<path d="M205.2422 57.9400
L205.2422 55.5600
" />
<path d="M204.9422 57.9400
L205.2422 57.9400
" />
<path d="M210.5321 55.4653
L210.0725 55.0796
" />
<path d="M209.9862 54.0934
L210.8861 53.0210
" />
<path d="M212.4182 54.3066
L211.5183 55.3790
" />
<path d="M211.8723 52.9347
L212.3319 53.3204
" />
<path d="M210.5321 55.4653 A0.7000 0.7000 0.0 0 0 211.5183 55.3790" />
<path d="M209.9862 54.0934 A0.7000 0.7000 0.0 0 0 210.0725 55.0796" />
<path d="M212.4182 54.3066 A0.7000 0.7000 0.0 0 0 212.3319 53.3204" />
<path d="M211.8723 52.9347 A0.7000 0.7000 0.0 0 0 210.8861 53.0210" />
<g >
</g>
<g >
</g>
<g >
</g>
<g >
</g>
<g >
</g>
<g >
</g>
<g >
</g>
<g >
</g>
<g >
</g>
<g >
</g>
<g >
</g>
<g >
</g>
<g >
</g>
<g >
</g>
<g >
</g>
<g >
</g>
<g >
</g>
<g >
</g>
<g >
</g>
<g >
</g>
<g >
</g>
<g >
</g>
<g >
</g>
<g >
</g>
<g >
</g>
<g >
</g>
<g >
</g>
<g >
</g>
<g >
</g>
<g >
</g>
<g >
</g>
<g >
</g>
<g >
</g>
<g >
</g>
<g >
</g>
</g> 
</svg>
