<?xml version="1.0" standalone="no"?>
 <!DOCTYPE svg PUBLIC "-//W3C//DTD SVG 1.1//EN" 
 "http://www.w3.org/Graphics/SVG/1.1/DTD/svg11.dtd"> 
<svg
  xmlns:svg="http://www.w3.org/2000/svg"
  xmlns="http://www.w3.org/2000/svg"
  xmlns:xlink="http://www.w3.org/1999/xlink"
  version="1.1"
  width="297.0022mm" height="210.0072mm" viewBox="0.0000 0.0000 297.0022 210.0072">
<title>SVG Image created as pedalboard-led-ring-Edge_Cuts.svg date 2023/06/02 11:32:07 </title>
  <desc>Image generated by PCBNEW </desc>
<g style="fill:#000000; fill-opacity:1.0000;stroke:#000000; stroke-opacity:1.0000;
stroke-linecap:round; stroke-linejoin:round;"
 transform="translate(0 0) scale(1 1)">
</g>
<g style="fill:#000000; fill-opacity:0.0; 
stroke:#000000; stroke-width:0.0000; stroke-opacity:1; 
stroke-linecap:round; stroke-linejoin:round;">
</g>
<g style="fill:#000000; fill-opacity:0.0; 
stroke:#000000; stroke-width:0.1000; stroke-opacity:1; 
stroke-linecap:round; stroke-linejoin:round;">
<path d="M66.0000 73.0000 A1.0000 1.0000 0.0 0 0 67.0000 74.0000" />
<circle cx="80.0000" cy="60.0000" r="6.1000" /> 
<path d="M94.0000 47.0000
L94.0000 73.0000
" />
<path d="M66.0000 73.0000
L66.0000 47.0000
" />
<path d="M93.0000 74.0000 A1.0000 1.0000 0.0 0 0 94.0000 73.0000" />
<path d="M67.0000 46.0000
L93.0000 46.0000
" />
<path d="M93.0000 74.0000
L67.0000 74.0000
" />
<path d="M67.0000 46.0000 A1.0000 1.0000 0.0 0 0 66.0000 47.0000" />
<path d="M94.0000 47.0000 A1.0000 1.0000 0.0 0 0 93.0000 46.0000" />
<g >
</g>
<g >
</g>
<g >
</g>
<g >
</g>
<g >
</g>
<g >
</g>
<g >
</g>
<g >
</g>
<g >
</g>
<g >
</g>
<g >
</g>
<g >
</g>
<g >
</g>
<g >
</g>
<g >
</g>
<g >
</g>
<g >
</g>
<g >
</g>
<g >
</g>
<g >
</g>
<g >
</g>
<g >
</g>
<g >
</g>
<g >
</g>
<g >
</g>
<g >
</g>
<g >
</g>
<g >
</g>
</g> 
</svg>
