<?xml version="1.0" standalone="no"?>
 <!DOCTYPE svg PUBLIC "-//W3C//DTD SVG 1.1//EN" 
 "http://www.w3.org/Graphics/SVG/1.1/DTD/svg11.dtd"> 
<svg
  xmlns:svg="http://www.w3.org/2000/svg"
  xmlns="http://www.w3.org/2000/svg"
  xmlns:xlink="http://www.w3.org/1999/xlink"
  version="1.1"
  width="297.0022mm" height="210.0072mm" viewBox="0.0000 0.0000 297.0022 210.0072">
<title>SVG Image created as pedalboard-led-ring-B_Fab.svg date 2024/01/08 21:57:11 </title>
  <desc>Image generated by PCBNEW </desc>
<g style="fill:#000000; fill-opacity:1.0000;stroke:#000000; stroke-opacity:1.0000;
stroke-linecap:round; stroke-linejoin:round;"
 transform="translate(0 0) scale(1 1)">
</g>
<g style="fill:#000000; fill-opacity:0.0; 
stroke:#000000; stroke-width:0.0000; stroke-opacity:1; 
stroke-linecap:round; stroke-linejoin:round;">
</g>
<g style="fill:#000000; fill-opacity:0.0; 
stroke:#000000; stroke-width:0.1500; stroke-opacity:1; 
stroke-linecap:round; stroke-linejoin:round;">
<g transform="rotate(-90.000000 210.5022 60.0000)">
<text x="210.5022" y="60.5000"
transform="scale(-1 1) translate(-421.004400 0)"
textLength="4.8690" font-size="1.3333" lengthAdjust="spacingAndGlyphs"
text-anchor="middle" opacity="0">02x02</text>
</g>
<g class="stroked-text"><desc>02x02</desc>
<path d="M211.0474 58.1190
L211.0474 58.2143
" />
<path d="M211.0474 58.2143
L210.9998 58.3095
" />
<path d="M210.9998 58.3095
L210.9521 58.3571
" />
<path d="M210.9521 58.3571
L210.8569 58.4048
" />
<path d="M210.8569 58.4048
L210.6664 58.4524
" />
<path d="M210.6664 58.4524
L210.4283 58.4524
" />
<path d="M210.4283 58.4524
L210.2379 58.4048
" />
<path d="M210.2379 58.4048
L210.1426 58.3571
" />
<path d="M210.1426 58.3571
L210.0950 58.3095
" />
<path d="M210.0950 58.3095
L210.0474 58.2143
" />
<path d="M210.0474 58.2143
L210.0474 58.1190
" />
<path d="M210.0474 58.1190
L210.0950 58.0238
" />
<path d="M210.0950 58.0238
L210.1426 57.9762
" />
<path d="M210.1426 57.9762
L210.2379 57.9286
" />
<path d="M210.2379 57.9286
L210.4283 57.8810
" />
<path d="M210.4283 57.8810
L210.6664 57.8810
" />
<path d="M210.6664 57.8810
L210.8569 57.9286
" />
<path d="M210.8569 57.9286
L210.9521 57.9762
" />
<path d="M210.9521 57.9762
L210.9998 58.0238
" />
<path d="M210.9998 58.0238
L211.0474 58.1190
" />
<path d="M210.9521 58.8333
L210.9998 58.8810
" />
<path d="M210.9998 58.8810
L211.0474 58.9762
" />
<path d="M211.0474 58.9762
L211.0474 59.2143
" />
<path d="M211.0474 59.2143
L210.9998 59.3095
" />
<path d="M210.9998 59.3095
L210.9521 59.3571
" />
<path d="M210.9521 59.3571
L210.8569 59.4048
" />
<path d="M210.8569 59.4048
L210.7617 59.4048
" />
<path d="M210.7617 59.4048
L210.6188 59.3571
" />
<path d="M210.6188 59.3571
L210.0474 58.7857
" />
<path d="M210.0474 58.7857
L210.0474 59.4048
" />
<path d="M210.0474 59.7381
L210.7140 60.2619
" />
<path d="M210.7140 59.7381
L210.0474 60.2619
" />
<path d="M211.0474 60.8333
L211.0474 60.9286
" />
<path d="M211.0474 60.9286
L210.9998 61.0238
" />
<path d="M210.9998 61.0238
L210.9521 61.0714
" />
<path d="M210.9521 61.0714
L210.8569 61.1190
" />
<path d="M210.8569 61.1190
L210.6664 61.1667
" />
<path d="M210.6664 61.1667
L210.4283 61.1667
" />
<path d="M210.4283 61.1667
L210.2379 61.1190
" />
<path d="M210.2379 61.1190
L210.1426 61.0714
" />
<path d="M210.1426 61.0714
L210.0950 61.0238
" />
<path d="M210.0950 61.0238
L210.0474 60.9286
" />
<path d="M210.0474 60.9286
L210.0474 60.8333
" />
<path d="M210.0474 60.8333
L210.0950 60.7381
" />
<path d="M210.0950 60.7381
L210.1426 60.6905
" />
<path d="M210.1426 60.6905
L210.2379 60.6429
" />
<path d="M210.2379 60.6429
L210.4283 60.5952
" />
<path d="M210.4283 60.5952
L210.6664 60.5952
" />
<path d="M210.6664 60.5952
L210.8569 60.6429
" />
<path d="M210.8569 60.6429
L210.9521 60.6905
" />
<path d="M210.9521 60.6905
L210.9998 60.7381
" />
<path d="M210.9998 60.7381
L211.0474 60.8333
" />
<path d="M210.9521 61.5476
L210.9998 61.5952
" />
<path d="M210.9998 61.5952
L211.0474 61.6905
" />
<path d="M211.0474 61.6905
L211.0474 61.9286
" />
<path d="M211.0474 61.9286
L210.9998 62.0238
" />
<path d="M210.9998 62.0238
L210.9521 62.0714
" />
<path d="M210.9521 62.0714
L210.8569 62.1190
" />
<path d="M210.8569 62.1190
L210.7617 62.1190
" />
<path d="M210.7617 62.1190
L210.6188 62.0714
" />
<path d="M210.6188 62.0714
L210.0474 61.5000
" />
<path d="M210.0474 61.5000
L210.0474 62.1190
" />
</g><text x="207.0022" y="60.5000"
transform="scale(-1 1) translate(-414.004400 0)"
textLength="1.9643" font-size="1.3333" lengthAdjust="spacingAndGlyphs"
text-anchor="middle" opacity="0">J1</text>
<g class="stroked-text"><desc>J1</desc>
<path d="M206.6689 59.4548
L206.6689 60.1691
" />
<path d="M206.6689 60.1691
L206.6212 60.3120
" />
<path d="M206.6212 60.3120
L206.5260 60.4072
" />
<path d="M206.5260 60.4072
L206.3832 60.4548
" />
<path d="M206.3832 60.4548
L206.2879 60.4548
" />
<path d="M207.6689 60.4548
L207.0974 60.4548
" />
<path d="M207.3832 60.4548
L207.3832 59.4548
" />
<path d="M207.3832 59.4548
L207.2879 59.5977
" />
<path d="M207.2879 59.5977
L207.1927 59.6929
" />
<path d="M207.1927 59.6929
L207.0974 59.7405
" />
</g><g transform="rotate(50.000000 212.6577 55.4213)">
<text x="212.6577" y="55.9213"
transform="scale(-1 1) translate(-425.315368 0)"
textLength="1.9643" font-size="1.3333" lengthAdjust="spacingAndGlyphs"
text-anchor="middle" opacity="0">SJ</text>
</g>
<g class="stroked-text"><desc>SJ</desc>
<path d="M212.5411 56.1937
L212.6694 56.1149
" />
<path d="M212.6694 56.1149
L212.8224 55.9325
" />
<path d="M212.8224 55.9325
L212.8472 55.8290
" />
<path d="M212.8472 55.8290
L212.8413 55.7619
" />
<path d="M212.8413 55.7619
L212.7990 55.6642
" />
<path d="M212.7990 55.6642
L212.7260 55.6030
" />
<path d="M212.7260 55.6030
L212.6224 55.5782
" />
<path d="M212.6224 55.5782
L212.5554 55.5841
" />
<path d="M212.5554 55.5841
L212.4577 55.6264
" />
<path d="M212.4577 55.6264
L212.2987 55.7417
" />
<path d="M212.2987 55.7417
L212.2010 55.7841
" />
<path d="M212.2010 55.7841
L212.1340 55.7899
" />
<path d="M212.1340 55.7899
L212.0304 55.7652
" />
<path d="M212.0304 55.7652
L211.9574 55.7040
" />
<path d="M211.9574 55.7040
L211.9151 55.6063
" />
<path d="M211.9151 55.6063
L211.9092 55.5392
" />
<path d="M211.9092 55.5392
L211.9340 55.4356
" />
<path d="M211.9340 55.4356
L212.0870 55.2533
" />
<path d="M212.0870 55.2533
L212.2153 55.1744
" />
<path d="M212.6380 54.5966
L213.1851 55.0558
" />
<path d="M213.1851 55.0558
L213.2640 55.1841
" />
<path d="M213.2640 55.1841
L213.2757 55.3183
" />
<path d="M213.2757 55.3183
L213.2204 55.4583
" />
<path d="M213.2204 55.4583
L213.1591 55.5313
" />
</g></g>
<g style="fill:#000000; fill-opacity:0.0; 
stroke:#000000; stroke-width:0.1000; stroke-opacity:1; 
stroke-linecap:round; stroke-linejoin:round;">
<path d="M208.2522 63.0000
L207.7522 63.0000
" />
<path d="M207.7522 63.0000
L207.7522 62.0000
" />
<path d="M206.2522 63.0000
L205.7522 63.0000
" />
<path d="M205.7522 63.0000
L205.7522 62.0000
" />
<path d="M209.0022 62.0000
L205.0022 62.0000
" />
<path d="M208.2522 62.0000
L208.2522 63.0000
" />
<path d="M206.2522 62.0000
L206.2522 63.0000
" />
<path d="M205.0022 62.0000
L205.0022 59.0000
" />
<path d="M205.0022 59.0000
L206.0022 58.0000
" />
<path d="M209.0022 58.0000
L209.0022 62.0000
" />
<path d="M207.7522 58.0000
L207.7522 57.0000
" />
<path d="M206.0022 58.0000
L209.0022 58.0000
" />
<path d="M205.7522 58.0000
L205.7522 57.0000
" />
<path d="M208.2522 57.0000
L208.2522 58.0000
" />
<path d="M207.7522 57.0000
L208.2522 57.0000
" />
<path d="M206.2522 57.0000
L206.2522 58.0000
" />
<path d="M205.7522 57.0000
L206.2522 57.0000
" />
<g >
</g>
<g >
</g>
<g >
</g>
<g >
</g>
<g >
</g>
<g >
</g>
<g >
</g>
<g >
</g>
<g >
</g>
<g >
</g>
<g >
</g>
<g >
</g>
<g >
</g>
<g >
</g>
<g >
</g>
<g >
</g>
<g >
</g>
<g >
</g>
<g >
</g>
<g >
</g>
<g >
</g>
<g >
</g>
<g >
</g>
<g >
</g>
<g >
</g>
<g >
</g>
<g >
</g>
<g >
</g>
<g >
</g>
<g >
</g>
<g >
</g>
<g >
</g>
<g >
</g>
<g >
</g>
<g >
</g>
</g> 
</svg>
