  0
SECTION
  2
HEADER
  9
$ANGBASE
  50
0.0
  9
$ANGDIR
  70
1
  9
$MEASUREMENT
  70
1
  0
ENDSEC
  0
SECTION
  2
TABLES
  0
TABLE
  2
LTYPE
  70
4
  0
LTYPE
  5
40F
  2
CONTINUOUS
  70
0
  3
Solid line
  72
65
  73
0
  40
0.0
  0
LTYPE
  5
410
  2
DASHDOT
 70
0
  3
Dash Dot ____ _ ____ _
 72
65
 73
4
 40
2.0
 49
1.25
 49
-0.25
 49
0.25
 49
-0.25
  0
LTYPE
  5
411
  2
DASHED
 70
0
  3
Dashed __ __ __ __ __
 72
65
 73
2
 40
0.75
 49
0.5
 49
-0.25
  0
LTYPE
  5
43B
  2
DOTTED
 70
0
  3
Dotted .  .  .  .
 72
65
 73
2
 40
0.2
 49
0.0
 49
-0.2
  0
ENDTAB
  0
TABLE
  2
STYLE
  70
4
  0
STYLE
  2
KICAD
  70
0
  40
0
  41
1
  42
1
  50
0
  71
0
  3
isocp.shx
  0
STYLE
  2
KICADB
  70
0
  40
0
  41
1
  42
1
  50
0
  71
0
  3
isocp.shx
  0
STYLE
  2
KICADI
  70
0
  40
0
  41
1
  42
1
  50
15
  71
0
  3
isocp.shx
  0
STYLE
  2
KICADBI
  70
0
  40
0
  41
1
  42
1
  50
15
  71
0
  3
isocp.shx
  0
ENDTAB
  0
TABLE
  2
LAYER
  70
1
  0
LAYER
  2
BLACK
  70
0
  62
7
  6
CONTINUOUS
  0
ENDTAB
  0
ENDSEC
  0
SECTION
  2
ENTITIES
0
LINE
8
BLACK
6
CONTINUOUS
10
81.7236
20
-69.2407
11
81.769
21
-69.271
0
LINE
8
BLACK
6
CONTINUOUS
10
81.769
20
-69.271
11
81.7993
21
-69.3164
0
LINE
8
BLACK
6
CONTINUOUS
10
81.7993
20
-69.3164
11
81.81
21
-69.37
0
LINE
8
BLACK
6
CONTINUOUS
10
81.81
20
-69.37
11
81.81
21
-69.65
0
LINE
8
BLACK
6
CONTINUOUS
10
81.81
20
-69.65
11
81.7993
21
-69.7036
0
LINE
8
BLACK
6
CONTINUOUS
10
81.7993
20
-69.7036
11
81.769
21
-69.749
0
LINE
8
BLACK
6
CONTINUOUS
10
81.769
20
-69.749
11
81.7236
21
-69.7793
0
LINE
8
BLACK
6
CONTINUOUS
10
81.7236
20
-69.7793
11
81.67
21
-69.79
0
LINE
8
BLACK
6
CONTINUOUS
10
81.67
20
-69.79
11
81.33
21
-69.79
0
LINE
8
BLACK
6
CONTINUOUS
10
81.33
20
-69.79
11
81.2764
21
-69.7793
0
LINE
8
BLACK
6
CONTINUOUS
10
81.2764
20
-69.7793
11
81.231
21
-69.749
0
LINE
8
BLACK
6
CONTINUOUS
10
81.231
20
-69.749
11
81.2007
21
-69.7036
0
LINE
8
BLACK
6
CONTINUOUS
10
81.2007
20
-69.7036
11
81.19
21
-69.65
0
LINE
8
BLACK
6
CONTINUOUS
10
81.19
20
-69.65
11
81.19
21
-69.37
0
LINE
8
BLACK
6
CONTINUOUS
10
81.19
20
-69.37
11
81.2007
21
-69.3164
0
LINE
8
BLACK
6
CONTINUOUS
10
81.2007
20
-69.3164
11
81.231
21
-69.271
0
LINE
8
BLACK
6
CONTINUOUS
10
81.231
20
-69.271
11
81.2764
21
-69.2407
0
LINE
8
BLACK
6
CONTINUOUS
10
81.2764
20
-69.2407
11
81.33
21
-69.23
0
LINE
8
BLACK
6
CONTINUOUS
10
81.33
20
-69.23
11
81.67
21
-69.23
0
LINE
8
BLACK
6
CONTINUOUS
10
81.67
20
-69.23
11
81.7236
21
-69.2407
0
LINE
8
BLACK
6
CONTINUOUS
10
79.8
20
-69.7
11
79.3
21
-69.7
0
LINE
8
BLACK
6
CONTINUOUS
10
79.3
20
-69.7
11
79.3
21
-69.2
0
LINE
8
BLACK
6
CONTINUOUS
10
79.3
20
-69.2
11
79.8
21
-69.2
0
LINE
8
BLACK
6
CONTINUOUS
10
79.8
20
-69.2
11
79.8
21
-69.7
0
LINE
8
BLACK
6
CONTINUOUS
10
80.7
20
-69.7
11
80.2
21
-69.7
0
LINE
8
BLACK
6
CONTINUOUS
10
80.2
20
-69.7
11
80.2
21
-69.2
0
LINE
8
BLACK
6
CONTINUOUS
10
80.2
20
-69.2
11
80.7
21
-69.2
0
LINE
8
BLACK
6
CONTINUOUS
10
80.7
20
-69.2
11
80.7
21
-69.7
0
LINE
8
BLACK
6
CONTINUOUS
10
76.5528
20
-68.5882
11
76.8472
21
-68.7582
0
LINE
8
BLACK
6
CONTINUOUS
10
76.8472
20
-68.7582
11
76.8883
21
-68.7942
0
LINE
8
BLACK
6
CONTINUOUS
10
76.8883
20
-68.7942
11
76.9125
21
-68.8432
0
LINE
8
BLACK
6
CONTINUOUS
10
76.9125
20
-68.8432
11
76.916
21
-68.8977
0
LINE
8
BLACK
6
CONTINUOUS
10
76.916
20
-68.8977
11
76.8985
21
-68.9494
0
LINE
8
BLACK
6
CONTINUOUS
10
76.8985
20
-68.9494
11
76.7585
21
-69.1919
0
LINE
8
BLACK
6
CONTINUOUS
10
76.7585
20
-69.1919
11
76.7225
21
-69.233
0
LINE
8
BLACK
6
CONTINUOUS
10
76.7225
20
-69.233
11
76.6735
21
-69.2572
0
LINE
8
BLACK
6
CONTINUOUS
10
76.6735
20
-69.2572
11
76.619
21
-69.2607
0
LINE
8
BLACK
6
CONTINUOUS
10
76.619
20
-69.2607
11
76.5672
21
-69.2432
0
LINE
8
BLACK
6
CONTINUOUS
10
76.5672
20
-69.2432
11
76.2728
21
-69.0732
0
LINE
8
BLACK
6
CONTINUOUS
10
76.2728
20
-69.0732
11
76.2317
21
-69.0372
0
LINE
8
BLACK
6
CONTINUOUS
10
76.2317
20
-69.0372
11
76.2075
21
-68.9882
0
LINE
8
BLACK
6
CONTINUOUS
10
76.2075
20
-68.9882
11
76.204
21
-68.9337
0
LINE
8
BLACK
6
CONTINUOUS
10
76.204
20
-68.9337
11
76.2215
21
-68.8819
0
LINE
8
BLACK
6
CONTINUOUS
10
76.2215
20
-68.8819
11
76.3615
21
-68.6394
0
LINE
8
BLACK
6
CONTINUOUS
10
76.3615
20
-68.6394
11
76.3975
21
-68.5984
0
LINE
8
BLACK
6
CONTINUOUS
10
76.3975
20
-68.5984
11
76.4465
21
-68.5742
0
LINE
8
BLACK
6
CONTINUOUS
10
76.4465
20
-68.5742
11
76.501
21
-68.5706
0
LINE
8
BLACK
6
CONTINUOUS
10
76.501
20
-68.5706
11
76.5528
21
-68.5882
0
LINE
8
BLACK
6
CONTINUOUS
10
81.7236
20
-68.2807
11
81.769
21
-68.311
0
LINE
8
BLACK
6
CONTINUOUS
10
81.769
20
-68.311
11
81.7993
21
-68.3564
0
LINE
8
BLACK
6
CONTINUOUS
10
81.7993
20
-68.3564
11
81.81
21
-68.41
0
LINE
8
BLACK
6
CONTINUOUS
10
81.81
20
-68.41
11
81.81
21
-68.69
0
LINE
8
BLACK
6
CONTINUOUS
10
81.81
20
-68.69
11
81.7993
21
-68.7436
0
LINE
8
BLACK
6
CONTINUOUS
10
81.7993
20
-68.7436
11
81.769
21
-68.789
0
LINE
8
BLACK
6
CONTINUOUS
10
81.769
20
-68.789
11
81.7236
21
-68.8193
0
LINE
8
BLACK
6
CONTINUOUS
10
81.7236
20
-68.8193
11
81.67
21
-68.83
0
LINE
8
BLACK
6
CONTINUOUS
10
81.67
20
-68.83
11
81.33
21
-68.83
0
LINE
8
BLACK
6
CONTINUOUS
10
81.33
20
-68.83
11
81.2764
21
-68.8193
0
LINE
8
BLACK
6
CONTINUOUS
10
81.2764
20
-68.8193
11
81.231
21
-68.789
0
LINE
8
BLACK
6
CONTINUOUS
10
81.231
20
-68.789
11
81.2007
21
-68.7436
0
LINE
8
BLACK
6
CONTINUOUS
10
81.2007
20
-68.7436
11
81.19
21
-68.69
0
LINE
8
BLACK
6
CONTINUOUS
10
81.19
20
-68.69
11
81.19
21
-68.41
0
LINE
8
BLACK
6
CONTINUOUS
10
81.19
20
-68.41
11
81.2007
21
-68.3564
0
LINE
8
BLACK
6
CONTINUOUS
10
81.2007
20
-68.3564
11
81.231
21
-68.311
0
LINE
8
BLACK
6
CONTINUOUS
10
81.231
20
-68.311
11
81.2764
21
-68.2807
0
LINE
8
BLACK
6
CONTINUOUS
10
81.2764
20
-68.2807
11
81.33
21
-68.27
0
LINE
8
BLACK
6
CONTINUOUS
10
81.33
20
-68.27
11
81.67
21
-68.27
0
LINE
8
BLACK
6
CONTINUOUS
10
81.67
20
-68.27
11
81.7236
21
-68.2807
0
LINE
8
BLACK
6
CONTINUOUS
10
79.8
20
-68.8
11
79.3
21
-68.8
0
LINE
8
BLACK
6
CONTINUOUS
10
79.3
20
-68.8
11
79.3
21
-68.3
0
LINE
8
BLACK
6
CONTINUOUS
10
79.3
20
-68.3
11
79.8
21
-68.3
0
LINE
8
BLACK
6
CONTINUOUS
10
79.8
20
-68.3
11
79.8
21
-68.8
0
LINE
8
BLACK
6
CONTINUOUS
10
80.7
20
-68.8
11
80.2
21
-68.8
0
LINE
8
BLACK
6
CONTINUOUS
10
80.2
20
-68.8
11
80.2
21
-68.3
0
LINE
8
BLACK
6
CONTINUOUS
10
80.2
20
-68.3
11
80.7
21
-68.3
0
LINE
8
BLACK
6
CONTINUOUS
10
80.7
20
-68.3
11
80.7
21
-68.8
0
LINE
8
BLACK
6
CONTINUOUS
10
76.0062
20
-68.3174
11
75.7562
21
-68.7504
0
LINE
8
BLACK
6
CONTINUOUS
10
75.7562
20
-68.7504
11
75.3232
21
-68.5004
0
LINE
8
BLACK
6
CONTINUOUS
10
75.3232
20
-68.5004
11
75.5732
21
-68.0674
0
LINE
8
BLACK
6
CONTINUOUS
10
75.5732
20
-68.0674
11
76.0062
21
-68.3174
0
LINE
8
BLACK
6
CONTINUOUS
10
84.6768
20
-68.5004
11
84.2438
21
-68.7504
0
LINE
8
BLACK
6
CONTINUOUS
10
84.2438
20
-68.7504
11
83.9938
21
-68.3174
0
LINE
8
BLACK
6
CONTINUOUS
10
83.9938
20
-68.3174
11
84.4268
21
-68.0674
0
LINE
8
BLACK
6
CONTINUOUS
10
84.4268
20
-68.0674
11
84.6768
21
-68.5004
0
LINE
8
BLACK
6
CONTINUOUS
10
77.0328
20
-67.7568
11
77.3272
21
-67.9268
0
LINE
8
BLACK
6
CONTINUOUS
10
77.3272
20
-67.9268
11
77.3683
21
-67.9628
0
LINE
8
BLACK
6
CONTINUOUS
10
77.3683
20
-67.9628
11
77.3925
21
-68.0118
0
LINE
8
BLACK
6
CONTINUOUS
10
77.3925
20
-68.0118
11
77.396
21
-68.0663
0
LINE
8
BLACK
6
CONTINUOUS
10
77.396
20
-68.0663
11
77.3785
21
-68.1181
0
LINE
8
BLACK
6
CONTINUOUS
10
77.3785
20
-68.1181
11
77.2385
21
-68.3606
0
LINE
8
BLACK
6
CONTINUOUS
10
77.2385
20
-68.3606
11
77.2025
21
-68.4016
0
LINE
8
BLACK
6
CONTINUOUS
10
77.2025
20
-68.4016
11
77.1535
21
-68.4258
0
LINE
8
BLACK
6
CONTINUOUS
10
77.1535
20
-68.4258
11
77.099
21
-68.4294
0
LINE
8
BLACK
6
CONTINUOUS
10
77.099
20
-68.4294
11
77.0472
21
-68.4118
0
LINE
8
BLACK
6
CONTINUOUS
10
77.0472
20
-68.4118
11
76.7528
21
-68.2418
0
LINE
8
BLACK
6
CONTINUOUS
10
76.7528
20
-68.2418
11
76.7117
21
-68.2058
0
LINE
8
BLACK
6
CONTINUOUS
10
76.7117
20
-68.2058
11
76.6875
21
-68.1568
0
LINE
8
BLACK
6
CONTINUOUS
10
76.6875
20
-68.1568
11
76.684
21
-68.1023
0
LINE
8
BLACK
6
CONTINUOUS
10
76.684
20
-68.1023
11
76.7015
21
-68.0506
0
LINE
8
BLACK
6
CONTINUOUS
10
76.7015
20
-68.0506
11
76.8415
21
-67.8081
0
LINE
8
BLACK
6
CONTINUOUS
10
76.8415
20
-67.8081
11
76.8775
21
-67.767
0
LINE
8
BLACK
6
CONTINUOUS
10
76.8775
20
-67.767
11
76.9265
21
-67.7428
0
LINE
8
BLACK
6
CONTINUOUS
10
76.9265
20
-67.7428
11
76.981
21
-67.7393
0
LINE
8
BLACK
6
CONTINUOUS
10
76.981
20
-67.7393
11
77.0328
21
-67.7568
0
LINE
8
BLACK
6
CONTINUOUS
10
75.2268
20
-67.8674
11
74.9768
21
-68.3004
0
LINE
8
BLACK
6
CONTINUOUS
10
74.9768
20
-68.3004
11
74.5438
21
-68.0504
0
LINE
8
BLACK
6
CONTINUOUS
10
74.5438
20
-68.0504
11
74.7938
21
-67.6174
0
LINE
8
BLACK
6
CONTINUOUS
10
74.7938
20
-67.6174
11
75.2268
21
-67.8674
0
LINE
8
BLACK
6
CONTINUOUS
10
85.4562
20
-68.0504
11
85.0232
21
-68.3004
0
LINE
8
BLACK
6
CONTINUOUS
10
85.0232
20
-68.3004
11
84.7732
21
-67.8674
0
LINE
8
BLACK
6
CONTINUOUS
10
84.7732
20
-67.8674
11
85.2062
21
-67.6174
0
LINE
8
BLACK
6
CONTINUOUS
10
85.2062
20
-67.6174
11
85.4562
21
-68.0504
0
LINE
8
BLACK
6
CONTINUOUS
10
76.4562
20
-67.538
11
76.2062
21
-67.971
0
LINE
8
BLACK
6
CONTINUOUS
10
76.2062
20
-67.971
11
75.7732
21
-67.721
0
LINE
8
BLACK
6
CONTINUOUS
10
75.7732
20
-67.721
11
76.0232
21
-67.288
0
LINE
8
BLACK
6
CONTINUOUS
10
76.0232
20
-67.288
11
76.4562
21
-67.538
0
LINE
8
BLACK
6
CONTINUOUS
10
84.2268
20
-67.721
11
83.7938
21
-67.971
0
LINE
8
BLACK
6
CONTINUOUS
10
83.7938
20
-67.971
11
83.5438
21
-67.538
0
LINE
8
BLACK
6
CONTINUOUS
10
83.5438
20
-67.538
11
83.9768
21
-67.288
0
LINE
8
BLACK
6
CONTINUOUS
10
83.9768
20
-67.288
11
84.2268
21
-67.721
0
LINE
8
BLACK
6
CONTINUOUS
10
86.1535
20
-67.1415
11
86.2025
21
-67.1656
0
LINE
8
BLACK
6
CONTINUOUS
10
86.2025
20
-67.1656
11
86.2385
21
-67.2067
0
LINE
8
BLACK
6
CONTINUOUS
10
86.2385
20
-67.2067
11
86.3785
21
-67.4492
0
LINE
8
BLACK
6
CONTINUOUS
10
86.3785
20
-67.4492
11
86.396
21
-67.5009
0
LINE
8
BLACK
6
CONTINUOUS
10
86.396
20
-67.5009
11
86.3925
21
-67.5554
0
LINE
8
BLACK
6
CONTINUOUS
10
86.3925
20
-67.5554
11
86.3683
21
-67.6044
0
LINE
8
BLACK
6
CONTINUOUS
10
86.3683
20
-67.6044
11
86.3272
21
-67.6404
0
LINE
8
BLACK
6
CONTINUOUS
10
86.3272
20
-67.6404
11
86.0328
21
-67.8104
0
LINE
8
BLACK
6
CONTINUOUS
10
86.0328
20
-67.8104
11
85.981
21
-67.828
0
LINE
8
BLACK
6
CONTINUOUS
10
85.981
20
-67.828
11
85.9265
21
-67.8244
0
LINE
8
BLACK
6
CONTINUOUS
10
85.9265
20
-67.8244
11
85.8775
21
-67.8003
0
LINE
8
BLACK
6
CONTINUOUS
10
85.8775
20
-67.8003
11
85.8415
21
-67.7592
0
LINE
8
BLACK
6
CONTINUOUS
10
85.8415
20
-67.7592
11
85.7015
21
-67.5167
0
LINE
8
BLACK
6
CONTINUOUS
10
85.7015
20
-67.5167
11
85.684
21
-67.465
0
LINE
8
BLACK
6
CONTINUOUS
10
85.684
20
-67.465
11
85.6875
21
-67.4105
0
LINE
8
BLACK
6
CONTINUOUS
10
85.6875
20
-67.4105
11
85.7117
21
-67.3615
0
LINE
8
BLACK
6
CONTINUOUS
10
85.7117
20
-67.3615
11
85.7528
21
-67.3255
0
LINE
8
BLACK
6
CONTINUOUS
10
85.7528
20
-67.3255
11
86.0472
21
-67.1555
0
LINE
8
BLACK
6
CONTINUOUS
10
86.0472
20
-67.1555
11
86.099
21
-67.1379
0
LINE
8
BLACK
6
CONTINUOUS
10
86.099
20
-67.1379
11
86.1535
21
-67.1415
0
LINE
8
BLACK
6
CONTINUOUS
10
75.6768
20
-67.088
11
75.4268
21
-67.521
0
LINE
8
BLACK
6
CONTINUOUS
10
75.4268
20
-67.521
11
74.9938
21
-67.271
0
LINE
8
BLACK
6
CONTINUOUS
10
74.9938
20
-67.271
11
75.2438
21
-66.838
0
LINE
8
BLACK
6
CONTINUOUS
10
75.2438
20
-66.838
11
75.6768
21
-67.088
0
LINE
8
BLACK
6
CONTINUOUS
10
85.0062
20
-67.271
11
84.5732
21
-67.521
0
LINE
8
BLACK
6
CONTINUOUS
10
84.5732
20
-67.521
11
84.3232
21
-67.088
0
LINE
8
BLACK
6
CONTINUOUS
10
84.3232
20
-67.088
11
84.7562
21
-66.838
0
LINE
8
BLACK
6
CONTINUOUS
10
84.7562
20
-66.838
11
85.0062
21
-67.271
0
LINE
8
BLACK
6
CONTINUOUS
10
85.6735
20
-66.3101
11
85.7225
21
-66.3343
0
LINE
8
BLACK
6
CONTINUOUS
10
85.7225
20
-66.3343
11
85.7585
21
-66.3753
0
LINE
8
BLACK
6
CONTINUOUS
10
85.7585
20
-66.3753
11
85.8985
21
-66.6178
0
LINE
8
BLACK
6
CONTINUOUS
10
85.8985
20
-66.6178
11
85.916
21
-66.6695
0
LINE
8
BLACK
6
CONTINUOUS
10
85.916
20
-66.6695
11
85.9125
21
-66.7241
0
LINE
8
BLACK
6
CONTINUOUS
10
85.9125
20
-66.7241
11
85.8883
21
-66.773
0
LINE
8
BLACK
6
CONTINUOUS
10
85.8883
20
-66.773
11
85.8472
21
-66.8091
0
LINE
8
BLACK
6
CONTINUOUS
10
85.8472
20
-66.8091
11
85.5528
21
-66.9791
0
LINE
8
BLACK
6
CONTINUOUS
10
85.5528
20
-66.9791
11
85.501
21
-66.9966
0
LINE
8
BLACK
6
CONTINUOUS
10
85.501
20
-66.9966
11
85.4465
21
-66.993
0
LINE
8
BLACK
6
CONTINUOUS
10
85.4465
20
-66.993
11
85.3975
21
-66.9689
0
LINE
8
BLACK
6
CONTINUOUS
10
85.3975
20
-66.9689
11
85.3615
21
-66.9278
0
LINE
8
BLACK
6
CONTINUOUS
10
85.3615
20
-66.9278
11
85.2215
21
-66.6853
0
LINE
8
BLACK
6
CONTINUOUS
10
85.2215
20
-66.6853
11
85.204
21
-66.6336
0
LINE
8
BLACK
6
CONTINUOUS
10
85.204
20
-66.6336
11
85.2075
21
-66.5791
0
LINE
8
BLACK
6
CONTINUOUS
10
85.2075
20
-66.5791
11
85.2317
21
-66.5301
0
LINE
8
BLACK
6
CONTINUOUS
10
85.2317
20
-66.5301
11
85.2728
21
-66.4941
0
LINE
8
BLACK
6
CONTINUOUS
10
85.2728
20
-66.4941
11
85.5672
21
-66.3241
0
LINE
8
BLACK
6
CONTINUOUS
10
85.5672
20
-66.3241
11
85.619
21
-66.3065
0
LINE
8
BLACK
6
CONTINUOUS
10
85.619
20
-66.3065
11
85.6735
21
-66.3101
0
LINE
8
BLACK
6
CONTINUOUS
10
72.6568
20
-65.6375
11
72.7058
21
-65.6617
0
LINE
8
BLACK
6
CONTINUOUS
10
72.7058
20
-65.6617
11
72.7418
21
-65.7028
0
LINE
8
BLACK
6
CONTINUOUS
10
72.7418
20
-65.7028
11
72.9118
21
-65.9972
0
LINE
8
BLACK
6
CONTINUOUS
10
72.9118
20
-65.9972
11
72.9294
21
-66.049
0
LINE
8
BLACK
6
CONTINUOUS
10
72.9294
20
-66.049
11
72.9258
21
-66.1035
0
LINE
8
BLACK
6
CONTINUOUS
10
72.9258
20
-66.1035
11
72.9016
21
-66.1525
0
LINE
8
BLACK
6
CONTINUOUS
10
72.9016
20
-66.1525
11
72.8606
21
-66.1885
0
LINE
8
BLACK
6
CONTINUOUS
10
72.8606
20
-66.1885
11
72.6181
21
-66.3285
0
LINE
8
BLACK
6
CONTINUOUS
10
72.6181
20
-66.3285
11
72.5663
21
-66.346
0
LINE
8
BLACK
6
CONTINUOUS
10
72.5663
20
-66.346
11
72.5118
21
-66.3425
0
LINE
8
BLACK
6
CONTINUOUS
10
72.5118
20
-66.3425
11
72.4628
21
-66.3183
0
LINE
8
BLACK
6
CONTINUOUS
10
72.4628
20
-66.3183
11
72.4268
21
-66.2772
0
LINE
8
BLACK
6
CONTINUOUS
10
72.4268
20
-66.2772
11
72.2568
21
-65.9828
0
LINE
8
BLACK
6
CONTINUOUS
10
72.2568
20
-65.9828
11
72.2393
21
-65.931
0
LINE
8
BLACK
6
CONTINUOUS
10
72.2393
20
-65.931
11
72.2428
21
-65.8765
0
LINE
8
BLACK
6
CONTINUOUS
10
72.2428
20
-65.8765
11
72.267
21
-65.8275
0
LINE
8
BLACK
6
CONTINUOUS
10
72.267
20
-65.8275
11
72.3081
21
-65.7915
0
LINE
8
BLACK
6
CONTINUOUS
10
72.3081
20
-65.7915
11
72.5506
21
-65.6515
0
LINE
8
BLACK
6
CONTINUOUS
10
72.5506
20
-65.6515
11
72.6023
21
-65.634
0
LINE
8
BLACK
6
CONTINUOUS
10
72.6023
20
-65.634
11
72.6568
21
-65.6375
0
LINE
8
BLACK
6
CONTINUOUS
10
73.4882
20
-65.1575
11
73.5372
21
-65.1817
0
LINE
8
BLACK
6
CONTINUOUS
10
73.5372
20
-65.1817
11
73.5732
21
-65.2228
0
LINE
8
BLACK
6
CONTINUOUS
10
73.5732
20
-65.2228
11
73.7432
21
-65.5172
0
LINE
8
BLACK
6
CONTINUOUS
10
73.7432
20
-65.5172
11
73.7607
21
-65.569
0
LINE
8
BLACK
6
CONTINUOUS
10
73.7607
20
-65.569
11
73.7572
21
-65.6235
0
LINE
8
BLACK
6
CONTINUOUS
10
73.7572
20
-65.6235
11
73.733
21
-65.6725
0
LINE
8
BLACK
6
CONTINUOUS
10
73.733
20
-65.6725
11
73.6919
21
-65.7085
0
LINE
8
BLACK
6
CONTINUOUS
10
73.6919
20
-65.7085
11
73.4494
21
-65.8485
0
LINE
8
BLACK
6
CONTINUOUS
10
73.4494
20
-65.8485
11
73.3977
21
-65.866
0
LINE
8
BLACK
6
CONTINUOUS
10
73.3977
20
-65.866
11
73.3432
21
-65.8625
0
LINE
8
BLACK
6
CONTINUOUS
10
73.3432
20
-65.8625
11
73.2942
21
-65.8383
0
LINE
8
BLACK
6
CONTINUOUS
10
73.2942
20
-65.8383
11
73.2582
21
-65.7972
0
LINE
8
BLACK
6
CONTINUOUS
10
73.2582
20
-65.7972
11
73.0882
21
-65.5028
0
LINE
8
BLACK
6
CONTINUOUS
10
73.0882
20
-65.5028
11
73.0706
21
-65.451
0
LINE
8
BLACK
6
CONTINUOUS
10
73.0706
20
-65.451
11
73.0742
21
-65.3965
0
LINE
8
BLACK
6
CONTINUOUS
10
73.0742
20
-65.3965
11
73.0984
21
-65.3475
0
LINE
8
BLACK
6
CONTINUOUS
10
73.0984
20
-65.3475
11
73.1394
21
-65.3115
0
LINE
8
BLACK
6
CONTINUOUS
10
73.1394
20
-65.3115
11
73.3819
21
-65.1715
0
LINE
8
BLACK
6
CONTINUOUS
10
73.3819
20
-65.1715
11
73.4337
21
-65.154
0
LINE
8
BLACK
6
CONTINUOUS
10
73.4337
20
-65.154
11
73.4882
21
-65.1575
0
LINE
8
BLACK
6
CONTINUOUS
10
72.3826
20
-65.2062
11
71.9496
21
-65.4562
0
LINE
8
BLACK
6
CONTINUOUS
10
71.9496
20
-65.4562
11
71.6996
21
-65.0232
0
LINE
8
BLACK
6
CONTINUOUS
10
71.6996
20
-65.0232
11
72.1326
21
-64.7732
0
LINE
8
BLACK
6
CONTINUOUS
10
72.1326
20
-64.7732
11
72.3826
21
-65.2062
0
LINE
8
BLACK
6
CONTINUOUS
10
88.3004
20
-65.0232
11
88.0504
21
-65.4562
0
LINE
8
BLACK
6
CONTINUOUS
10
88.0504
20
-65.4562
11
87.6174
21
-65.2062
0
LINE
8
BLACK
6
CONTINUOUS
10
87.6174
20
-65.2062
11
87.8674
21
-64.7732
0
LINE
8
BLACK
6
CONTINUOUS
10
87.8674
20
-64.7732
11
88.3004
21
-65.0232
0
LINE
8
BLACK
6
CONTINUOUS
10
73.162
20
-64.7562
11
72.729
21
-65.0062
0
LINE
8
BLACK
6
CONTINUOUS
10
72.729
20
-65.0062
11
72.479
21
-64.5732
0
LINE
8
BLACK
6
CONTINUOUS
10
72.479
20
-64.5732
11
72.912
21
-64.3232
0
LINE
8
BLACK
6
CONTINUOUS
10
72.912
20
-64.3232
11
73.162
21
-64.7562
0
LINE
8
BLACK
6
CONTINUOUS
10
87.521
20
-64.5732
11
87.271
21
-65.0062
0
LINE
8
BLACK
6
CONTINUOUS
10
87.271
20
-65.0062
11
86.838
21
-64.7562
0
LINE
8
BLACK
6
CONTINUOUS
10
86.838
20
-64.7562
11
87.088
21
-64.3232
0
LINE
8
BLACK
6
CONTINUOUS
10
87.088
20
-64.3232
11
87.521
21
-64.5732
0
LINE
8
BLACK
6
CONTINUOUS
10
71.9326
20
-64.4268
11
71.4996
21
-64.6768
0
LINE
8
BLACK
6
CONTINUOUS
10
71.4996
20
-64.6768
11
71.2496
21
-64.2438
0
LINE
8
BLACK
6
CONTINUOUS
10
71.2496
20
-64.2438
11
71.6826
21
-63.9938
0
LINE
8
BLACK
6
CONTINUOUS
10
71.6826
20
-63.9938
11
71.9326
21
-64.4268
0
LINE
8
BLACK
6
CONTINUOUS
10
88.7504
20
-64.2438
11
88.5004
21
-64.6768
0
LINE
8
BLACK
6
CONTINUOUS
10
88.5004
20
-64.6768
11
88.0674
21
-64.4268
0
LINE
8
BLACK
6
CONTINUOUS
10
88.0674
20
-64.4268
11
88.3174
21
-63.9938
0
LINE
8
BLACK
6
CONTINUOUS
10
88.3174
20
-63.9938
11
88.7504
21
-64.2438
0
LINE
8
BLACK
6
CONTINUOUS
10
72.712
20
-63.9768
11
72.279
21
-64.2268
0
LINE
8
BLACK
6
CONTINUOUS
10
72.279
20
-64.2268
11
72.029
21
-63.7938
0
LINE
8
BLACK
6
CONTINUOUS
10
72.029
20
-63.7938
11
72.462
21
-63.5438
0
LINE
8
BLACK
6
CONTINUOUS
10
72.462
20
-63.5438
11
72.712
21
-63.9768
0
LINE
8
BLACK
6
CONTINUOUS
10
87.971
20
-63.7938
11
87.721
21
-64.2268
0
LINE
8
BLACK
6
CONTINUOUS
10
87.721
20
-64.2268
11
87.288
21
-63.9768
0
LINE
8
BLACK
6
CONTINUOUS
10
87.288
20
-63.9768
11
87.538
21
-63.5438
0
LINE
8
BLACK
6
CONTINUOUS
10
87.538
20
-63.5438
11
87.971
21
-63.7938
0
LINE
8
BLACK
6
CONTINUOUS
10
88.9994
20
-63.1515
11
89.2419
21
-63.2915
0
LINE
8
BLACK
6
CONTINUOUS
10
89.2419
20
-63.2915
11
89.283
21
-63.3275
0
LINE
8
BLACK
6
CONTINUOUS
10
89.283
20
-63.3275
11
89.3072
21
-63.3765
0
LINE
8
BLACK
6
CONTINUOUS
10
89.3072
20
-63.3765
11
89.3107
21
-63.431
0
LINE
8
BLACK
6
CONTINUOUS
10
89.3107
20
-63.431
11
89.2932
21
-63.4828
0
LINE
8
BLACK
6
CONTINUOUS
10
89.2932
20
-63.4828
11
89.1232
21
-63.7772
0
LINE
8
BLACK
6
CONTINUOUS
10
89.1232
20
-63.7772
11
89.0872
21
-63.8183
0
LINE
8
BLACK
6
CONTINUOUS
10
89.0872
20
-63.8183
11
89.0382
21
-63.8425
0
LINE
8
BLACK
6
CONTINUOUS
10
89.0382
20
-63.8425
11
88.9837
21
-63.846
0
LINE
8
BLACK
6
CONTINUOUS
10
88.9837
20
-63.846
11
88.9319
21
-63.8285
0
LINE
8
BLACK
6
CONTINUOUS
10
88.9319
20
-63.8285
11
88.6894
21
-63.6885
0
LINE
8
BLACK
6
CONTINUOUS
10
88.6894
20
-63.6885
11
88.6484
21
-63.6525
0
LINE
8
BLACK
6
CONTINUOUS
10
88.6484
20
-63.6525
11
88.6242
21
-63.6035
0
LINE
8
BLACK
6
CONTINUOUS
10
88.6242
20
-63.6035
11
88.6206
21
-63.549
0
LINE
8
BLACK
6
CONTINUOUS
10
88.6206
20
-63.549
11
88.6382
21
-63.4972
0
LINE
8
BLACK
6
CONTINUOUS
10
88.6382
20
-63.4972
11
88.8082
21
-63.2028
0
LINE
8
BLACK
6
CONTINUOUS
10
88.8082
20
-63.2028
11
88.8442
21
-63.1617
0
LINE
8
BLACK
6
CONTINUOUS
10
88.8442
20
-63.1617
11
88.8932
21
-63.1375
0
LINE
8
BLACK
6
CONTINUOUS
10
88.8932
20
-63.1375
11
88.9477
21
-63.134
0
LINE
8
BLACK
6
CONTINUOUS
10
88.9477
20
-63.134
11
88.9994
21
-63.1515
0
LINE
8
BLACK
6
CONTINUOUS
10
88.1681
20
-62.6715
11
88.4106
21
-62.8115
0
LINE
8
BLACK
6
CONTINUOUS
10
88.4106
20
-62.8115
11
88.4516
21
-62.8475
0
LINE
8
BLACK
6
CONTINUOUS
10
88.4516
20
-62.8475
11
88.4758
21
-62.8965
0
LINE
8
BLACK
6
CONTINUOUS
10
88.4758
20
-62.8965
11
88.4794
21
-62.951
0
LINE
8
BLACK
6
CONTINUOUS
10
88.4794
20
-62.951
11
88.4618
21
-63.0028
0
LINE
8
BLACK
6
CONTINUOUS
10
88.4618
20
-63.0028
11
88.2918
21
-63.2972
0
LINE
8
BLACK
6
CONTINUOUS
10
88.2918
20
-63.2972
11
88.2558
21
-63.3383
0
LINE
8
BLACK
6
CONTINUOUS
10
88.2558
20
-63.3383
11
88.2068
21
-63.3625
0
LINE
8
BLACK
6
CONTINUOUS
10
88.2068
20
-63.3625
11
88.1523
21
-63.366
0
LINE
8
BLACK
6
CONTINUOUS
10
88.1523
20
-63.366
11
88.1006
21
-63.3485
0
LINE
8
BLACK
6
CONTINUOUS
10
88.1006
20
-63.3485
11
87.8581
21
-63.2085
0
LINE
8
BLACK
6
CONTINUOUS
10
87.8581
20
-63.2085
11
87.817
21
-63.1725
0
LINE
8
BLACK
6
CONTINUOUS
10
87.817
20
-63.1725
11
87.7928
21
-63.1235
0
LINE
8
BLACK
6
CONTINUOUS
10
87.7928
20
-63.1235
11
87.7893
21
-63.069
0
LINE
8
BLACK
6
CONTINUOUS
10
87.7893
20
-63.069
11
87.8068
21
-63.0172
0
LINE
8
BLACK
6
CONTINUOUS
10
87.8068
20
-63.0172
11
87.9768
21
-62.7228
0
LINE
8
BLACK
6
CONTINUOUS
10
87.9768
20
-62.7228
11
88.0128
21
-62.6817
0
LINE
8
BLACK
6
CONTINUOUS
10
88.0128
20
-62.6817
11
88.0618
21
-62.6575
0
LINE
8
BLACK
6
CONTINUOUS
10
88.0618
20
-62.6575
11
88.1163
21
-62.654
0
LINE
8
BLACK
6
CONTINUOUS
10
88.1163
20
-62.654
11
88.1681
21
-62.6715
0
LINE
8
BLACK
6
CONTINUOUS
10
88.5867
20
-61.3403
11
88.6305
21
-61.3695
0
LINE
8
BLACK
6
CONTINUOUS
10
88.6305
20
-61.3695
11
88.6597
21
-61.4133
0
LINE
8
BLACK
6
CONTINUOUS
10
88.6597
20
-61.4133
11
88.67
21
-61.465
0
LINE
8
BLACK
6
CONTINUOUS
10
88.67
20
-61.465
11
88.67
21
-61.835
0
LINE
8
BLACK
6
CONTINUOUS
10
88.67
20
-61.835
11
88.6597
21
-61.8867
0
LINE
8
BLACK
6
CONTINUOUS
10
88.6597
20
-61.8867
11
88.6305
21
-61.9305
0
LINE
8
BLACK
6
CONTINUOUS
10
88.6305
20
-61.9305
11
88.5867
21
-61.9597
0
LINE
8
BLACK
6
CONTINUOUS
10
88.5867
20
-61.9597
11
88.535
21
-61.97
0
LINE
8
BLACK
6
CONTINUOUS
10
88.535
20
-61.97
11
88.265
21
-61.97
0
LINE
8
BLACK
6
CONTINUOUS
10
88.265
20
-61.97
11
88.2133
21
-61.9597
0
LINE
8
BLACK
6
CONTINUOUS
10
88.2133
20
-61.9597
11
88.1695
21
-61.9305
0
LINE
8
BLACK
6
CONTINUOUS
10
88.1695
20
-61.9305
11
88.1403
21
-61.8867
0
LINE
8
BLACK
6
CONTINUOUS
10
88.1403
20
-61.8867
11
88.13
21
-61.835
0
LINE
8
BLACK
6
CONTINUOUS
10
88.13
20
-61.835
11
88.13
21
-61.465
0
LINE
8
BLACK
6
CONTINUOUS
10
88.13
20
-61.465
11
88.1403
21
-61.4133
0
LINE
8
BLACK
6
CONTINUOUS
10
88.1403
20
-61.4133
11
88.1695
21
-61.3695
0
LINE
8
BLACK
6
CONTINUOUS
10
88.1695
20
-61.3695
11
88.2133
21
-61.3403
0
LINE
8
BLACK
6
CONTINUOUS
10
88.2133
20
-61.3403
11
88.265
21
-61.33
0
LINE
8
BLACK
6
CONTINUOUS
10
88.265
20
-61.33
11
88.535
21
-61.33
0
LINE
8
BLACK
6
CONTINUOUS
10
88.535
20
-61.33
11
88.5867
21
-61.3403
0
LINE
8
BLACK
6
CONTINUOUS
10
89.6067
20
-61.3403
11
89.6505
21
-61.3695
0
LINE
8
BLACK
6
CONTINUOUS
10
89.6505
20
-61.3695
11
89.6797
21
-61.4133
0
LINE
8
BLACK
6
CONTINUOUS
10
89.6797
20
-61.4133
11
89.69
21
-61.465
0
LINE
8
BLACK
6
CONTINUOUS
10
89.69
20
-61.465
11
89.69
21
-61.835
0
LINE
8
BLACK
6
CONTINUOUS
10
89.69
20
-61.835
11
89.6797
21
-61.8867
0
LINE
8
BLACK
6
CONTINUOUS
10
89.6797
20
-61.8867
11
89.6505
21
-61.9305
0
LINE
8
BLACK
6
CONTINUOUS
10
89.6505
20
-61.9305
11
89.6067
21
-61.9597
0
LINE
8
BLACK
6
CONTINUOUS
10
89.6067
20
-61.9597
11
89.555
21
-61.97
0
LINE
8
BLACK
6
CONTINUOUS
10
89.555
20
-61.97
11
89.285
21
-61.97
0
LINE
8
BLACK
6
CONTINUOUS
10
89.285
20
-61.97
11
89.2333
21
-61.9597
0
LINE
8
BLACK
6
CONTINUOUS
10
89.2333
20
-61.9597
11
89.1895
21
-61.9305
0
LINE
8
BLACK
6
CONTINUOUS
10
89.1895
20
-61.9305
11
89.1603
21
-61.8867
0
LINE
8
BLACK
6
CONTINUOUS
10
89.1603
20
-61.8867
11
89.15
21
-61.835
0
LINE
8
BLACK
6
CONTINUOUS
10
89.15
20
-61.835
11
89.15
21
-61.465
0
LINE
8
BLACK
6
CONTINUOUS
10
89.15
20
-61.465
11
89.1603
21
-61.4133
0
LINE
8
BLACK
6
CONTINUOUS
10
89.1603
20
-61.4133
11
89.1895
21
-61.3695
0
LINE
8
BLACK
6
CONTINUOUS
10
89.1895
20
-61.3695
11
89.2333
21
-61.3403
0
LINE
8
BLACK
6
CONTINUOUS
10
89.2333
20
-61.3403
11
89.285
21
-61.33
0
LINE
8
BLACK
6
CONTINUOUS
10
89.285
20
-61.33
11
89.555
21
-61.33
0
LINE
8
BLACK
6
CONTINUOUS
10
89.555
20
-61.33
11
89.6067
21
-61.3403
0
LINE
8
BLACK
6
CONTINUOUS
10
70.7136
20
-61.2007
11
70.759
21
-61.231
0
LINE
8
BLACK
6
CONTINUOUS
10
70.759
20
-61.231
11
70.7893
21
-61.2764
0
LINE
8
BLACK
6
CONTINUOUS
10
70.7893
20
-61.2764
11
70.8
21
-61.33
0
LINE
8
BLACK
6
CONTINUOUS
10
70.8
20
-61.33
11
70.8
21
-61.67
0
LINE
8
BLACK
6
CONTINUOUS
10
70.8
20
-61.67
11
70.7893
21
-61.7236
0
LINE
8
BLACK
6
CONTINUOUS
10
70.7893
20
-61.7236
11
70.759
21
-61.769
0
LINE
8
BLACK
6
CONTINUOUS
10
70.759
20
-61.769
11
70.7136
21
-61.7993
0
LINE
8
BLACK
6
CONTINUOUS
10
70.7136
20
-61.7993
11
70.66
21
-61.81
0
LINE
8
BLACK
6
CONTINUOUS
10
70.66
20
-61.81
11
70.38
21
-61.81
0
LINE
8
BLACK
6
CONTINUOUS
10
70.38
20
-61.81
11
70.3264
21
-61.7993
0
LINE
8
BLACK
6
CONTINUOUS
10
70.3264
20
-61.7993
11
70.281
21
-61.769
0
LINE
8
BLACK
6
CONTINUOUS
10
70.281
20
-61.769
11
70.2507
21
-61.7236
0
LINE
8
BLACK
6
CONTINUOUS
10
70.2507
20
-61.7236
11
70.24
21
-61.67
0
LINE
8
BLACK
6
CONTINUOUS
10
70.24
20
-61.67
11
70.24
21
-61.33
0
LINE
8
BLACK
6
CONTINUOUS
10
70.24
20
-61.33
11
70.2507
21
-61.2764
0
LINE
8
BLACK
6
CONTINUOUS
10
70.2507
20
-61.2764
11
70.281
21
-61.231
0
LINE
8
BLACK
6
CONTINUOUS
10
70.281
20
-61.231
11
70.3264
21
-61.2007
0
LINE
8
BLACK
6
CONTINUOUS
10
70.3264
20
-61.2007
11
70.38
21
-61.19
0
LINE
8
BLACK
6
CONTINUOUS
10
70.38
20
-61.19
11
70.66
21
-61.19
0
LINE
8
BLACK
6
CONTINUOUS
10
70.66
20
-61.19
11
70.7136
21
-61.2007
0
LINE
8
BLACK
6
CONTINUOUS
10
71.6736
20
-61.2007
11
71.719
21
-61.231
0
LINE
8
BLACK
6
CONTINUOUS
10
71.719
20
-61.231
11
71.7493
21
-61.2764
0
LINE
8
BLACK
6
CONTINUOUS
10
71.7493
20
-61.2764
11
71.76
21
-61.33
0
LINE
8
BLACK
6
CONTINUOUS
10
71.76
20
-61.33
11
71.76
21
-61.67
0
LINE
8
BLACK
6
CONTINUOUS
10
71.76
20
-61.67
11
71.7493
21
-61.7236
0
LINE
8
BLACK
6
CONTINUOUS
10
71.7493
20
-61.7236
11
71.719
21
-61.769
0
LINE
8
BLACK
6
CONTINUOUS
10
71.719
20
-61.769
11
71.6736
21
-61.7993
0
LINE
8
BLACK
6
CONTINUOUS
10
71.6736
20
-61.7993
11
71.62
21
-61.81
0
LINE
8
BLACK
6
CONTINUOUS
10
71.62
20
-61.81
11
71.34
21
-61.81
0
LINE
8
BLACK
6
CONTINUOUS
10
71.34
20
-61.81
11
71.2864
21
-61.7993
0
LINE
8
BLACK
6
CONTINUOUS
10
71.2864
20
-61.7993
11
71.241
21
-61.769
0
LINE
8
BLACK
6
CONTINUOUS
10
71.241
20
-61.769
11
71.2107
21
-61.7236
0
LINE
8
BLACK
6
CONTINUOUS
10
71.2107
20
-61.7236
11
71.2
21
-61.67
0
LINE
8
BLACK
6
CONTINUOUS
10
71.2
20
-61.67
11
71.2
21
-61.33
0
LINE
8
BLACK
6
CONTINUOUS
10
71.2
20
-61.33
11
71.2107
21
-61.2764
0
LINE
8
BLACK
6
CONTINUOUS
10
71.2107
20
-61.2764
11
71.241
21
-61.231
0
LINE
8
BLACK
6
CONTINUOUS
10
71.241
20
-61.231
11
71.2864
21
-61.2007
0
LINE
8
BLACK
6
CONTINUOUS
10
71.2864
20
-61.2007
11
71.34
21
-61.19
0
LINE
8
BLACK
6
CONTINUOUS
10
71.34
20
-61.19
11
71.62
21
-61.19
0
LINE
8
BLACK
6
CONTINUOUS
10
71.62
20
-61.19
11
71.6736
21
-61.2007
0
LINE
8
BLACK
6
CONTINUOUS
10
70.8
20
-60.7
11
70.3
21
-60.7
0
LINE
8
BLACK
6
CONTINUOUS
10
70.3
20
-60.7
11
70.3
21
-60.2
0
LINE
8
BLACK
6
CONTINUOUS
10
70.3
20
-60.2
11
70.8
21
-60.2
0
LINE
8
BLACK
6
CONTINUOUS
10
70.8
20
-60.2
11
70.8
21
-60.7
0
LINE
8
BLACK
6
CONTINUOUS
10
71.7
20
-60.7
11
71.2
21
-60.7
0
LINE
8
BLACK
6
CONTINUOUS
10
71.2
20
-60.7
11
71.2
21
-60.2
0
LINE
8
BLACK
6
CONTINUOUS
10
71.2
20
-60.2
11
71.7
21
-60.2
0
LINE
8
BLACK
6
CONTINUOUS
10
71.7
20
-60.2
11
71.7
21
-60.7
0
LINE
8
BLACK
6
CONTINUOUS
10
88.8
20
-60.7
11
88.3
21
-60.7
0
LINE
8
BLACK
6
CONTINUOUS
10
88.3
20
-60.7
11
88.3
21
-60.2
0
LINE
8
BLACK
6
CONTINUOUS
10
88.3
20
-60.2
11
88.8
21
-60.2
0
LINE
8
BLACK
6
CONTINUOUS
10
88.8
20
-60.2
11
88.8
21
-60.7
0
LINE
8
BLACK
6
CONTINUOUS
10
89.7
20
-60.7
11
89.2
21
-60.7
0
LINE
8
BLACK
6
CONTINUOUS
10
89.2
20
-60.7
11
89.2
21
-60.2
0
LINE
8
BLACK
6
CONTINUOUS
10
89.2
20
-60.2
11
89.7
21
-60.2
0
LINE
8
BLACK
6
CONTINUOUS
10
89.7
20
-60.2
11
89.7
21
-60.7
0
LINE
8
BLACK
6
CONTINUOUS
10
70.8
20
-59.8
11
70.3
21
-59.8
0
LINE
8
BLACK
6
CONTINUOUS
10
70.3
20
-59.8
11
70.3
21
-59.3
0
LINE
8
BLACK
6
CONTINUOUS
10
70.3
20
-59.3
11
70.8
21
-59.3
0
LINE
8
BLACK
6
CONTINUOUS
10
70.8
20
-59.3
11
70.8
21
-59.8
0
LINE
8
BLACK
6
CONTINUOUS
10
71.7
20
-59.8
11
71.2
21
-59.8
0
LINE
8
BLACK
6
CONTINUOUS
10
71.2
20
-59.8
11
71.2
21
-59.3
0
LINE
8
BLACK
6
CONTINUOUS
10
71.2
20
-59.3
11
71.7
21
-59.3
0
LINE
8
BLACK
6
CONTINUOUS
10
71.7
20
-59.3
11
71.7
21
-59.8
0
LINE
8
BLACK
6
CONTINUOUS
10
88.8
20
-59.8
11
88.3
21
-59.8
0
LINE
8
BLACK
6
CONTINUOUS
10
88.3
20
-59.8
11
88.3
21
-59.3
0
LINE
8
BLACK
6
CONTINUOUS
10
88.3
20
-59.3
11
88.8
21
-59.3
0
LINE
8
BLACK
6
CONTINUOUS
10
88.8
20
-59.3
11
88.8
21
-59.8
0
LINE
8
BLACK
6
CONTINUOUS
10
89.7
20
-59.8
11
89.2
21
-59.8
0
LINE
8
BLACK
6
CONTINUOUS
10
89.2
20
-59.8
11
89.2
21
-59.3
0
LINE
8
BLACK
6
CONTINUOUS
10
89.2
20
-59.3
11
89.7
21
-59.3
0
LINE
8
BLACK
6
CONTINUOUS
10
89.7
20
-59.3
11
89.7
21
-59.8
0
LINE
8
BLACK
6
CONTINUOUS
10
88.8636
20
-58.2307
11
88.909
21
-58.261
0
LINE
8
BLACK
6
CONTINUOUS
10
88.909
20
-58.261
11
88.9393
21
-58.3064
0
LINE
8
BLACK
6
CONTINUOUS
10
88.9393
20
-58.3064
11
88.95
21
-58.36
0
LINE
8
BLACK
6
CONTINUOUS
10
88.95
20
-58.36
11
88.95
21
-58.7
0
LINE
8
BLACK
6
CONTINUOUS
10
88.95
20
-58.7
11
88.9393
21
-58.7536
0
LINE
8
BLACK
6
CONTINUOUS
10
88.9393
20
-58.7536
11
88.909
21
-58.799
0
LINE
8
BLACK
6
CONTINUOUS
10
88.909
20
-58.799
11
88.8636
21
-58.8293
0
LINE
8
BLACK
6
CONTINUOUS
10
88.8636
20
-58.8293
11
88.81
21
-58.84
0
LINE
8
BLACK
6
CONTINUOUS
10
88.81
20
-58.84
11
88.53
21
-58.84
0
LINE
8
BLACK
6
CONTINUOUS
10
88.53
20
-58.84
11
88.4764
21
-58.8293
0
LINE
8
BLACK
6
CONTINUOUS
10
88.4764
20
-58.8293
11
88.431
21
-58.799
0
LINE
8
BLACK
6
CONTINUOUS
10
88.431
20
-58.799
11
88.4007
21
-58.7536
0
LINE
8
BLACK
6
CONTINUOUS
10
88.4007
20
-58.7536
11
88.39
21
-58.7
0
LINE
8
BLACK
6
CONTINUOUS
10
88.39
20
-58.7
11
88.39
21
-58.36
0
LINE
8
BLACK
6
CONTINUOUS
10
88.39
20
-58.36
11
88.4007
21
-58.3064
0
LINE
8
BLACK
6
CONTINUOUS
10
88.4007
20
-58.3064
11
88.431
21
-58.261
0
LINE
8
BLACK
6
CONTINUOUS
10
88.431
20
-58.261
11
88.4764
21
-58.2307
0
LINE
8
BLACK
6
CONTINUOUS
10
88.4764
20
-58.2307
11
88.53
21
-58.22
0
LINE
8
BLACK
6
CONTINUOUS
10
88.53
20
-58.22
11
88.81
21
-58.22
0
LINE
8
BLACK
6
CONTINUOUS
10
88.81
20
-58.22
11
88.8636
21
-58.2307
0
LINE
8
BLACK
6
CONTINUOUS
10
89.8236
20
-58.2307
11
89.869
21
-58.261
0
LINE
8
BLACK
6
CONTINUOUS
10
89.869
20
-58.261
11
89.8993
21
-58.3064
0
LINE
8
BLACK
6
CONTINUOUS
10
89.8993
20
-58.3064
11
89.91
21
-58.36
0
LINE
8
BLACK
6
CONTINUOUS
10
89.91
20
-58.36
11
89.91
21
-58.7
0
LINE
8
BLACK
6
CONTINUOUS
10
89.91
20
-58.7
11
89.8993
21
-58.7536
0
LINE
8
BLACK
6
CONTINUOUS
10
89.8993
20
-58.7536
11
89.869
21
-58.799
0
LINE
8
BLACK
6
CONTINUOUS
10
89.869
20
-58.799
11
89.8236
21
-58.8293
0
LINE
8
BLACK
6
CONTINUOUS
10
89.8236
20
-58.8293
11
89.77
21
-58.84
0
LINE
8
BLACK
6
CONTINUOUS
10
89.77
20
-58.84
11
89.49
21
-58.84
0
LINE
8
BLACK
6
CONTINUOUS
10
89.49
20
-58.84
11
89.4364
21
-58.8293
0
LINE
8
BLACK
6
CONTINUOUS
10
89.4364
20
-58.8293
11
89.391
21
-58.799
0
LINE
8
BLACK
6
CONTINUOUS
10
89.391
20
-58.799
11
89.3607
21
-58.7536
0
LINE
8
BLACK
6
CONTINUOUS
10
89.3607
20
-58.7536
11
89.35
21
-58.7
0
LINE
8
BLACK
6
CONTINUOUS
10
89.35
20
-58.7
11
89.35
21
-58.36
0
LINE
8
BLACK
6
CONTINUOUS
10
89.35
20
-58.36
11
89.3607
21
-58.3064
0
LINE
8
BLACK
6
CONTINUOUS
10
89.3607
20
-58.3064
11
89.391
21
-58.261
0
LINE
8
BLACK
6
CONTINUOUS
10
89.391
20
-58.261
11
89.4364
21
-58.2307
0
LINE
8
BLACK
6
CONTINUOUS
10
89.4364
20
-58.2307
11
89.49
21
-58.22
0
LINE
8
BLACK
6
CONTINUOUS
10
89.49
20
-58.22
11
89.77
21
-58.22
0
LINE
8
BLACK
6
CONTINUOUS
10
89.77
20
-58.22
11
89.8236
21
-58.2307
0
LINE
8
BLACK
6
CONTINUOUS
10
88.9364
20
-57.3948
11
88.9567
21
-57.4083
0
LINE
8
BLACK
6
CONTINUOUS
10
88.9567
20
-57.4083
11
88.9702
21
-57.4286
0
LINE
8
BLACK
6
CONTINUOUS
10
88.9702
20
-57.4286
11
88.975
21
-57.4525
0
LINE
8
BLACK
6
CONTINUOUS
10
88.975
20
-57.4525
11
88.975
21
-57.6875
0
LINE
8
BLACK
6
CONTINUOUS
10
88.975
20
-57.6875
11
88.9702
21
-57.7114
0
LINE
8
BLACK
6
CONTINUOUS
10
88.9702
20
-57.7114
11
88.9567
21
-57.7317
0
LINE
8
BLACK
6
CONTINUOUS
10
88.9567
20
-57.7317
11
88.9364
21
-57.7452
0
LINE
8
BLACK
6
CONTINUOUS
10
88.9364
20
-57.7452
11
88.9125
21
-57.75
0
LINE
8
BLACK
6
CONTINUOUS
10
88.9125
20
-57.75
11
88.7875
21
-57.75
0
LINE
8
BLACK
6
CONTINUOUS
10
88.7875
20
-57.75
11
88.7636
21
-57.7452
0
LINE
8
BLACK
6
CONTINUOUS
10
88.7636
20
-57.7452
11
88.7433
21
-57.7317
0
LINE
8
BLACK
6
CONTINUOUS
10
88.7433
20
-57.7317
11
88.7298
21
-57.7114
0
LINE
8
BLACK
6
CONTINUOUS
10
88.7298
20
-57.7114
11
88.725
21
-57.6875
0
LINE
8
BLACK
6
CONTINUOUS
10
88.725
20
-57.6875
11
88.725
21
-57.4525
0
LINE
8
BLACK
6
CONTINUOUS
10
88.725
20
-57.4525
11
88.7298
21
-57.4286
0
LINE
8
BLACK
6
CONTINUOUS
10
88.7298
20
-57.4286
11
88.7433
21
-57.4083
0
LINE
8
BLACK
6
CONTINUOUS
10
88.7433
20
-57.4083
11
88.7636
21
-57.3948
0
LINE
8
BLACK
6
CONTINUOUS
10
88.7636
20
-57.3948
11
88.7875
21
-57.39
0
LINE
8
BLACK
6
CONTINUOUS
10
88.7875
20
-57.39
11
88.9125
21
-57.39
0
LINE
8
BLACK
6
CONTINUOUS
10
88.9125
20
-57.39
11
88.9364
21
-57.3948
0
LINE
8
BLACK
6
CONTINUOUS
10
71.9494
20
-56.7015
11
72.1919
21
-56.8415
0
LINE
8
BLACK
6
CONTINUOUS
10
72.1919
20
-56.8415
11
72.233
21
-56.8775
0
LINE
8
BLACK
6
CONTINUOUS
10
72.233
20
-56.8775
11
72.2572
21
-56.9265
0
LINE
8
BLACK
6
CONTINUOUS
10
72.2572
20
-56.9265
11
72.2607
21
-56.981
0
LINE
8
BLACK
6
CONTINUOUS
10
72.2607
20
-56.981
11
72.2432
21
-57.0328
0
LINE
8
BLACK
6
CONTINUOUS
10
72.2432
20
-57.0328
11
72.0732
21
-57.3272
0
LINE
8
BLACK
6
CONTINUOUS
10
72.0732
20
-57.3272
11
72.0372
21
-57.3683
0
LINE
8
BLACK
6
CONTINUOUS
10
72.0372
20
-57.3683
11
71.9882
21
-57.3925
0
LINE
8
BLACK
6
CONTINUOUS
10
71.9882
20
-57.3925
11
71.9337
21
-57.396
0
LINE
8
BLACK
6
CONTINUOUS
10
71.9337
20
-57.396
11
71.8819
21
-57.3785
0
LINE
8
BLACK
6
CONTINUOUS
10
71.8819
20
-57.3785
11
71.6394
21
-57.2385
0
LINE
8
BLACK
6
CONTINUOUS
10
71.6394
20
-57.2385
11
71.5984
21
-57.2025
0
LINE
8
BLACK
6
CONTINUOUS
10
71.5984
20
-57.2025
11
71.5742
21
-57.1535
0
LINE
8
BLACK
6
CONTINUOUS
10
71.5742
20
-57.1535
11
71.5706
21
-57.099
0
LINE
8
BLACK
6
CONTINUOUS
10
71.5706
20
-57.099
11
71.5882
21
-57.0472
0
LINE
8
BLACK
6
CONTINUOUS
10
71.5882
20
-57.0472
11
71.7582
21
-56.7528
0
LINE
8
BLACK
6
CONTINUOUS
10
71.7582
20
-56.7528
11
71.7942
21
-56.7117
0
LINE
8
BLACK
6
CONTINUOUS
10
71.7942
20
-56.7117
11
71.8432
21
-56.6875
0
LINE
8
BLACK
6
CONTINUOUS
10
71.8432
20
-56.6875
11
71.8977
21
-56.684
0
LINE
8
BLACK
6
CONTINUOUS
10
71.8977
20
-56.684
11
71.9494
21
-56.7015
0
LINE
8
BLACK
6
CONTINUOUS
10
71.1181
20
-56.2215
11
71.3606
21
-56.3615
0
LINE
8
BLACK
6
CONTINUOUS
10
71.3606
20
-56.3615
11
71.4016
21
-56.3975
0
LINE
8
BLACK
6
CONTINUOUS
10
71.4016
20
-56.3975
11
71.4258
21
-56.4465
0
LINE
8
BLACK
6
CONTINUOUS
10
71.4258
20
-56.4465
11
71.4294
21
-56.501
0
LINE
8
BLACK
6
CONTINUOUS
10
71.4294
20
-56.501
11
71.4118
21
-56.5528
0
LINE
8
BLACK
6
CONTINUOUS
10
71.4118
20
-56.5528
11
71.2418
21
-56.8472
0
LINE
8
BLACK
6
CONTINUOUS
10
71.2418
20
-56.8472
11
71.2058
21
-56.8883
0
LINE
8
BLACK
6
CONTINUOUS
10
71.2058
20
-56.8883
11
71.1568
21
-56.9125
0
LINE
8
BLACK
6
CONTINUOUS
10
71.1568
20
-56.9125
11
71.1023
21
-56.916
0
LINE
8
BLACK
6
CONTINUOUS
10
71.1023
20
-56.916
11
71.0506
21
-56.8985
0
LINE
8
BLACK
6
CONTINUOUS
10
71.0506
20
-56.8985
11
70.8081
21
-56.7585
0
LINE
8
BLACK
6
CONTINUOUS
10
70.8081
20
-56.7585
11
70.767
21
-56.7225
0
LINE
8
BLACK
6
CONTINUOUS
10
70.767
20
-56.7225
11
70.7428
21
-56.6735
0
LINE
8
BLACK
6
CONTINUOUS
10
70.7428
20
-56.6735
11
70.7393
21
-56.619
0
LINE
8
BLACK
6
CONTINUOUS
10
70.7393
20
-56.619
11
70.7568
21
-56.5672
0
LINE
8
BLACK
6
CONTINUOUS
10
70.7568
20
-56.5672
11
70.9268
21
-56.2728
0
LINE
8
BLACK
6
CONTINUOUS
10
70.9268
20
-56.2728
11
70.9628
21
-56.2317
0
LINE
8
BLACK
6
CONTINUOUS
10
70.9628
20
-56.2317
11
71.0118
21
-56.2075
0
LINE
8
BLACK
6
CONTINUOUS
10
71.0118
20
-56.2075
11
71.0663
21
-56.204
0
LINE
8
BLACK
6
CONTINUOUS
10
71.0663
20
-56.204
11
71.1181
21
-56.2215
0
LINE
8
BLACK
6
CONTINUOUS
10
88.9364
20
-56.5548
11
88.9567
21
-56.5683
0
LINE
8
BLACK
6
CONTINUOUS
10
88.9567
20
-56.5683
11
88.9702
21
-56.5886
0
LINE
8
BLACK
6
CONTINUOUS
10
88.9702
20
-56.5886
11
88.975
21
-56.6125
0
LINE
8
BLACK
6
CONTINUOUS
10
88.975
20
-56.6125
11
88.975
21
-56.8475
0
LINE
8
BLACK
6
CONTINUOUS
10
88.975
20
-56.8475
11
88.9702
21
-56.8714
0
LINE
8
BLACK
6
CONTINUOUS
10
88.9702
20
-56.8714
11
88.9567
21
-56.8917
0
LINE
8
BLACK
6
CONTINUOUS
10
88.9567
20
-56.8917
11
88.9364
21
-56.9052
0
LINE
8
BLACK
6
CONTINUOUS
10
88.9364
20
-56.9052
11
88.9125
21
-56.91
0
LINE
8
BLACK
6
CONTINUOUS
10
88.9125
20
-56.91
11
88.7875
21
-56.91
0
LINE
8
BLACK
6
CONTINUOUS
10
88.7875
20
-56.91
11
88.7636
21
-56.9052
0
LINE
8
BLACK
6
CONTINUOUS
10
88.7636
20
-56.9052
11
88.7433
21
-56.8917
0
LINE
8
BLACK
6
CONTINUOUS
10
88.7433
20
-56.8917
11
88.7298
21
-56.8714
0
LINE
8
BLACK
6
CONTINUOUS
10
88.7298
20
-56.8714
11
88.725
21
-56.8475
0
LINE
8
BLACK
6
CONTINUOUS
10
88.725
20
-56.8475
11
88.725
21
-56.6125
0
LINE
8
BLACK
6
CONTINUOUS
10
88.725
20
-56.6125
11
88.7298
21
-56.5886
0
LINE
8
BLACK
6
CONTINUOUS
10
88.7298
20
-56.5886
11
88.7433
21
-56.5683
0
LINE
8
BLACK
6
CONTINUOUS
10
88.7433
20
-56.5683
11
88.7636
21
-56.5548
0
LINE
8
BLACK
6
CONTINUOUS
10
88.7636
20
-56.5548
11
88.7875
21
-56.55
0
LINE
8
BLACK
6
CONTINUOUS
10
88.7875
20
-56.55
11
88.9125
21
-56.55
0
LINE
8
BLACK
6
CONTINUOUS
10
88.9125
20
-56.55
11
88.9364
21
-56.5548
0
LINE
8
BLACK
6
CONTINUOUS
10
72.712
20
-56.0232
11
72.462
21
-56.4562
0
LINE
8
BLACK
6
CONTINUOUS
10
72.462
20
-56.4562
11
72.029
21
-56.2062
0
LINE
8
BLACK
6
CONTINUOUS
10
72.029
20
-56.2062
11
72.279
21
-55.7732
0
LINE
8
BLACK
6
CONTINUOUS
10
72.279
20
-55.7732
11
72.712
21
-56.0232
0
LINE
8
BLACK
6
CONTINUOUS
10
87.971
20
-56.2062
11
87.538
21
-56.4562
0
LINE
8
BLACK
6
CONTINUOUS
10
87.538
20
-56.4562
11
87.288
21
-56.0232
0
LINE
8
BLACK
6
CONTINUOUS
10
87.288
20
-56.0232
11
87.721
21
-55.7732
0
LINE
8
BLACK
6
CONTINUOUS
10
87.721
20
-55.7732
11
87.971
21
-56.2062
0
LINE
8
BLACK
6
CONTINUOUS
10
71.9326
20
-55.5732
11
71.6826
21
-56.0062
0
LINE
8
BLACK
6
CONTINUOUS
10
71.6826
20
-56.0062
11
71.2496
21
-55.7562
0
LINE
8
BLACK
6
CONTINUOUS
10
71.2496
20
-55.7562
11
71.4996
21
-55.3232
0
LINE
8
BLACK
6
CONTINUOUS
10
71.4996
20
-55.3232
11
71.9326
21
-55.5732
0
LINE
8
BLACK
6
CONTINUOUS
10
88.7504
20
-55.7562
11
88.3174
21
-56.0062
0
LINE
8
BLACK
6
CONTINUOUS
10
88.3174
20
-56.0062
11
88.0674
21
-55.5732
0
LINE
8
BLACK
6
CONTINUOUS
10
88.0674
20
-55.5732
11
88.5004
21
-55.3232
0
LINE
8
BLACK
6
CONTINUOUS
10
88.5004
20
-55.3232
11
88.7504
21
-55.7562
0
LINE
8
BLACK
6
CONTINUOUS
10
73.162
20
-55.2438
11
72.912
21
-55.6768
0
LINE
8
BLACK
6
CONTINUOUS
10
72.912
20
-55.6768
11
72.479
21
-55.4268
0
LINE
8
BLACK
6
CONTINUOUS
10
72.479
20
-55.4268
11
72.729
21
-54.9938
0
LINE
8
BLACK
6
CONTINUOUS
10
72.729
20
-54.9938
11
73.162
21
-55.2438
0
LINE
8
BLACK
6
CONTINUOUS
10
87.521
20
-55.4268
11
87.088
21
-55.6768
0
LINE
8
BLACK
6
CONTINUOUS
10
87.088
20
-55.6768
11
86.838
21
-55.2438
0
LINE
8
BLACK
6
CONTINUOUS
10
86.838
20
-55.2438
11
87.271
21
-54.9938
0
LINE
8
BLACK
6
CONTINUOUS
10
87.271
20
-54.9938
11
87.521
21
-55.4268
0
LINE
8
BLACK
6
CONTINUOUS
10
72.3826
20
-54.7938
11
72.1326
21
-55.2268
0
LINE
8
BLACK
6
CONTINUOUS
10
72.1326
20
-55.2268
11
71.6996
21
-54.9768
0
LINE
8
BLACK
6
CONTINUOUS
10
71.6996
20
-54.9768
11
71.9496
21
-54.5438
0
LINE
8
BLACK
6
CONTINUOUS
10
71.9496
20
-54.5438
11
72.3826
21
-54.7938
0
LINE
8
BLACK
6
CONTINUOUS
10
88.3004
20
-54.9768
11
87.8674
21
-55.2268
0
LINE
8
BLACK
6
CONTINUOUS
10
87.8674
20
-55.2268
11
87.6174
21
-54.7938
0
LINE
8
BLACK
6
CONTINUOUS
10
87.6174
20
-54.7938
11
88.0504
21
-54.5438
0
LINE
8
BLACK
6
CONTINUOUS
10
88.0504
20
-54.5438
11
88.3004
21
-54.9768
0
LINE
8
BLACK
6
CONTINUOUS
10
86.6568
20
-54.1375
11
86.7058
21
-54.1617
0
LINE
8
BLACK
6
CONTINUOUS
10
86.7058
20
-54.1617
11
86.7418
21
-54.2028
0
LINE
8
BLACK
6
CONTINUOUS
10
86.7418
20
-54.2028
11
86.9118
21
-54.4972
0
LINE
8
BLACK
6
CONTINUOUS
10
86.9118
20
-54.4972
11
86.9294
21
-54.549
0
LINE
8
BLACK
6
CONTINUOUS
10
86.9294
20
-54.549
11
86.9258
21
-54.6035
0
LINE
8
BLACK
6
CONTINUOUS
10
86.9258
20
-54.6035
11
86.9016
21
-54.6525
0
LINE
8
BLACK
6
CONTINUOUS
10
86.9016
20
-54.6525
11
86.8606
21
-54.6885
0
LINE
8
BLACK
6
CONTINUOUS
10
86.8606
20
-54.6885
11
86.6181
21
-54.8285
0
LINE
8
BLACK
6
CONTINUOUS
10
86.6181
20
-54.8285
11
86.5663
21
-54.846
0
LINE
8
BLACK
6
CONTINUOUS
10
86.5663
20
-54.846
11
86.5118
21
-54.8425
0
LINE
8
BLACK
6
CONTINUOUS
10
86.5118
20
-54.8425
11
86.4628
21
-54.8183
0
LINE
8
BLACK
6
CONTINUOUS
10
86.4628
20
-54.8183
11
86.4268
21
-54.7772
0
LINE
8
BLACK
6
CONTINUOUS
10
86.4268
20
-54.7772
11
86.2568
21
-54.4828
0
LINE
8
BLACK
6
CONTINUOUS
10
86.2568
20
-54.4828
11
86.2393
21
-54.431
0
LINE
8
BLACK
6
CONTINUOUS
10
86.2393
20
-54.431
11
86.2428
21
-54.3765
0
LINE
8
BLACK
6
CONTINUOUS
10
86.2428
20
-54.3765
11
86.267
21
-54.3275
0
LINE
8
BLACK
6
CONTINUOUS
10
86.267
20
-54.3275
11
86.3081
21
-54.2915
0
LINE
8
BLACK
6
CONTINUOUS
10
86.3081
20
-54.2915
11
86.5506
21
-54.1515
0
LINE
8
BLACK
6
CONTINUOUS
10
86.5506
20
-54.1515
11
86.6023
21
-54.134
0
LINE
8
BLACK
6
CONTINUOUS
10
86.6023
20
-54.134
11
86.6568
21
-54.1375
0
LINE
8
BLACK
6
CONTINUOUS
10
87.4882
20
-53.6575
11
87.5372
21
-53.6817
0
LINE
8
BLACK
6
CONTINUOUS
10
87.5372
20
-53.6817
11
87.5732
21
-53.7228
0
LINE
8
BLACK
6
CONTINUOUS
10
87.5732
20
-53.7228
11
87.7432
21
-54.0172
0
LINE
8
BLACK
6
CONTINUOUS
10
87.7432
20
-54.0172
11
87.7607
21
-54.069
0
LINE
8
BLACK
6
CONTINUOUS
10
87.7607
20
-54.069
11
87.7572
21
-54.1235
0
LINE
8
BLACK
6
CONTINUOUS
10
87.7572
20
-54.1235
11
87.733
21
-54.1725
0
LINE
8
BLACK
6
CONTINUOUS
10
87.733
20
-54.1725
11
87.6919
21
-54.2085
0
LINE
8
BLACK
6
CONTINUOUS
10
87.6919
20
-54.2085
11
87.4494
21
-54.3485
0
LINE
8
BLACK
6
CONTINUOUS
10
87.4494
20
-54.3485
11
87.3977
21
-54.366
0
LINE
8
BLACK
6
CONTINUOUS
10
87.3977
20
-54.366
11
87.3432
21
-54.3625
0
LINE
8
BLACK
6
CONTINUOUS
10
87.3432
20
-54.3625
11
87.2942
21
-54.3383
0
LINE
8
BLACK
6
CONTINUOUS
10
87.2942
20
-54.3383
11
87.2582
21
-54.2972
0
LINE
8
BLACK
6
CONTINUOUS
10
87.2582
20
-54.2972
11
87.0882
21
-54.0028
0
LINE
8
BLACK
6
CONTINUOUS
10
87.0882
20
-54.0028
11
87.0706
21
-53.951
0
LINE
8
BLACK
6
CONTINUOUS
10
87.0706
20
-53.951
11
87.0742
21
-53.8965
0
LINE
8
BLACK
6
CONTINUOUS
10
87.0742
20
-53.8965
11
87.0984
21
-53.8475
0
LINE
8
BLACK
6
CONTINUOUS
10
87.0984
20
-53.8475
11
87.1394
21
-53.8115
0
LINE
8
BLACK
6
CONTINUOUS
10
87.1394
20
-53.8115
11
87.3819
21
-53.6715
0
LINE
8
BLACK
6
CONTINUOUS
10
87.3819
20
-53.6715
11
87.4337
21
-53.654
0
LINE
8
BLACK
6
CONTINUOUS
10
87.4337
20
-53.654
11
87.4882
21
-53.6575
0
LINE
8
BLACK
6
CONTINUOUS
10
74.5435
20
-53.007
11
74.5925
21
-53.0311
0
LINE
8
BLACK
6
CONTINUOUS
10
74.5925
20
-53.0311
11
74.6285
21
-53.0722
0
LINE
8
BLACK
6
CONTINUOUS
10
74.6285
20
-53.0722
11
74.7685
21
-53.3147
0
LINE
8
BLACK
6
CONTINUOUS
10
74.7685
20
-53.3147
11
74.786
21
-53.3664
0
LINE
8
BLACK
6
CONTINUOUS
10
74.786
20
-53.3664
11
74.7825
21
-53.4209
0
LINE
8
BLACK
6
CONTINUOUS
10
74.7825
20
-53.4209
11
74.7583
21
-53.4699
0
LINE
8
BLACK
6
CONTINUOUS
10
74.7583
20
-53.4699
11
74.7172
21
-53.5059
0
LINE
8
BLACK
6
CONTINUOUS
10
74.7172
20
-53.5059
11
74.4228
21
-53.6759
0
LINE
8
BLACK
6
CONTINUOUS
10
74.4228
20
-53.6759
11
74.371
21
-53.6935
0
LINE
8
BLACK
6
CONTINUOUS
10
74.371
20
-53.6935
11
74.3165
21
-53.6899
0
LINE
8
BLACK
6
CONTINUOUS
10
74.3165
20
-53.6899
11
74.2675
21
-53.6657
0
LINE
8
BLACK
6
CONTINUOUS
10
74.2675
20
-53.6657
11
74.2315
21
-53.6247
0
LINE
8
BLACK
6
CONTINUOUS
10
74.2315
20
-53.6247
11
74.0915
21
-53.3822
0
LINE
8
BLACK
6
CONTINUOUS
10
74.0915
20
-53.3822
11
74.074
21
-53.3305
0
LINE
8
BLACK
6
CONTINUOUS
10
74.074
20
-53.3305
11
74.0775
21
-53.2759
0
LINE
8
BLACK
6
CONTINUOUS
10
74.0775
20
-53.2759
11
74.1017
21
-53.227
0
LINE
8
BLACK
6
CONTINUOUS
10
74.1017
20
-53.227
11
74.1428
21
-53.1909
0
LINE
8
BLACK
6
CONTINUOUS
10
74.1428
20
-53.1909
11
74.4372
21
-53.0209
0
LINE
8
BLACK
6
CONTINUOUS
10
74.4372
20
-53.0209
11
74.489
21
-53.0034
0
LINE
8
BLACK
6
CONTINUOUS
10
74.489
20
-53.0034
11
74.5435
21
-53.007
0
LINE
8
BLACK
6
CONTINUOUS
10
75.6768
20
-52.912
11
75.2438
21
-53.162
0
LINE
8
BLACK
6
CONTINUOUS
10
75.2438
20
-53.162
11
74.9938
21
-52.729
0
LINE
8
BLACK
6
CONTINUOUS
10
74.9938
20
-52.729
11
75.4268
21
-52.479
0
LINE
8
BLACK
6
CONTINUOUS
10
75.4268
20
-52.479
11
75.6768
21
-52.912
0
LINE
8
BLACK
6
CONTINUOUS
10
85.0062
20
-52.729
11
84.7562
21
-53.162
0
LINE
8
BLACK
6
CONTINUOUS
10
84.7562
20
-53.162
11
84.3232
21
-52.912
0
LINE
8
BLACK
6
CONTINUOUS
10
84.3232
20
-52.912
11
84.5732
21
-52.479
0
LINE
8
BLACK
6
CONTINUOUS
10
84.5732
20
-52.479
11
85.0062
21
-52.729
0
LINE
8
BLACK
6
CONTINUOUS
10
74.0635
20
-52.1756
11
74.1125
21
-52.1997
0
LINE
8
BLACK
6
CONTINUOUS
10
74.1125
20
-52.1997
11
74.1485
21
-52.2408
0
LINE
8
BLACK
6
CONTINUOUS
10
74.1485
20
-52.2408
11
74.2885
21
-52.4833
0
LINE
8
BLACK
6
CONTINUOUS
10
74.2885
20
-52.4833
11
74.306
21
-52.535
0
LINE
8
BLACK
6
CONTINUOUS
10
74.306
20
-52.535
11
74.3025
21
-52.5895
0
LINE
8
BLACK
6
CONTINUOUS
10
74.3025
20
-52.5895
11
74.2783
21
-52.6385
0
LINE
8
BLACK
6
CONTINUOUS
10
74.2783
20
-52.6385
11
74.2372
21
-52.6745
0
LINE
8
BLACK
6
CONTINUOUS
10
74.2372
20
-52.6745
11
73.9428
21
-52.8445
0
LINE
8
BLACK
6
CONTINUOUS
10
73.9428
20
-52.8445
11
73.891
21
-52.8621
0
LINE
8
BLACK
6
CONTINUOUS
10
73.891
20
-52.8621
11
73.8365
21
-52.8585
0
LINE
8
BLACK
6
CONTINUOUS
10
73.8365
20
-52.8585
11
73.7875
21
-52.8344
0
LINE
8
BLACK
6
CONTINUOUS
10
73.7875
20
-52.8344
11
73.7515
21
-52.7933
0
LINE
8
BLACK
6
CONTINUOUS
10
73.7515
20
-52.7933
11
73.6115
21
-52.5508
0
LINE
8
BLACK
6
CONTINUOUS
10
73.6115
20
-52.5508
11
73.594
21
-52.4991
0
LINE
8
BLACK
6
CONTINUOUS
10
73.594
20
-52.4991
11
73.5975
21
-52.4446
0
LINE
8
BLACK
6
CONTINUOUS
10
73.5975
20
-52.4446
11
73.6217
21
-52.3956
0
LINE
8
BLACK
6
CONTINUOUS
10
73.6217
20
-52.3956
11
73.6628
21
-52.3596
0
LINE
8
BLACK
6
CONTINUOUS
10
73.6628
20
-52.3596
11
73.9572
21
-52.1896
0
LINE
8
BLACK
6
CONTINUOUS
10
73.9572
20
-52.1896
11
74.009
21
-52.172
0
LINE
8
BLACK
6
CONTINUOUS
10
74.009
20
-52.172
11
74.0635
21
-52.1756
0
LINE
8
BLACK
6
CONTINUOUS
10
76.4562
20
-52.462
11
76.0232
21
-52.712
0
LINE
8
BLACK
6
CONTINUOUS
10
76.0232
20
-52.712
11
75.7732
21
-52.279
0
LINE
8
BLACK
6
CONTINUOUS
10
75.7732
20
-52.279
11
76.2062
21
-52.029
0
LINE
8
BLACK
6
CONTINUOUS
10
76.2062
20
-52.029
11
76.4562
21
-52.462
0
LINE
8
BLACK
6
CONTINUOUS
10
84.2268
20
-52.279
11
83.9768
21
-52.712
0
LINE
8
BLACK
6
CONTINUOUS
10
83.9768
20
-52.712
11
83.5438
21
-52.462
0
LINE
8
BLACK
6
CONTINUOUS
10
83.5438
20
-52.462
11
83.7938
21
-52.029
0
LINE
8
BLACK
6
CONTINUOUS
10
83.7938
20
-52.029
11
84.2268
21
-52.279
0
LINE
8
BLACK
6
CONTINUOUS
10
75.2268
20
-52.1326
11
74.7938
21
-52.3826
0
LINE
8
BLACK
6
CONTINUOUS
10
74.7938
20
-52.3826
11
74.5438
21
-51.9496
0
LINE
8
BLACK
6
CONTINUOUS
10
74.5438
20
-51.9496
11
74.9768
21
-51.6996
0
LINE
8
BLACK
6
CONTINUOUS
10
74.9768
20
-51.6996
11
75.2268
21
-52.1326
0
LINE
8
BLACK
6
CONTINUOUS
10
85.4562
20
-51.9496
11
85.2062
21
-52.3826
0
LINE
8
BLACK
6
CONTINUOUS
10
85.2062
20
-52.3826
11
84.7732
21
-52.1326
0
LINE
8
BLACK
6
CONTINUOUS
10
84.7732
20
-52.1326
11
85.0232
21
-51.6996
0
LINE
8
BLACK
6
CONTINUOUS
10
85.0232
20
-51.6996
11
85.4562
21
-51.9496
0
LINE
8
BLACK
6
CONTINUOUS
10
82.9528
20
-51.5882
11
83.2472
21
-51.7582
0
LINE
8
BLACK
6
CONTINUOUS
10
83.2472
20
-51.7582
11
83.2883
21
-51.7942
0
LINE
8
BLACK
6
CONTINUOUS
10
83.2883
20
-51.7942
11
83.3125
21
-51.8432
0
LINE
8
BLACK
6
CONTINUOUS
10
83.3125
20
-51.8432
11
83.316
21
-51.8977
0
LINE
8
BLACK
6
CONTINUOUS
10
83.316
20
-51.8977
11
83.2985
21
-51.9494
0
LINE
8
BLACK
6
CONTINUOUS
10
83.2985
20
-51.9494
11
83.1585
21
-52.1919
0
LINE
8
BLACK
6
CONTINUOUS
10
83.1585
20
-52.1919
11
83.1225
21
-52.233
0
LINE
8
BLACK
6
CONTINUOUS
10
83.1225
20
-52.233
11
83.0735
21
-52.2572
0
LINE
8
BLACK
6
CONTINUOUS
10
83.0735
20
-52.2572
11
83.019
21
-52.2607
0
LINE
8
BLACK
6
CONTINUOUS
10
83.019
20
-52.2607
11
82.9672
21
-52.2432
0
LINE
8
BLACK
6
CONTINUOUS
10
82.9672
20
-52.2432
11
82.6728
21
-52.0732
0
LINE
8
BLACK
6
CONTINUOUS
10
82.6728
20
-52.0732
11
82.6317
21
-52.0372
0
LINE
8
BLACK
6
CONTINUOUS
10
82.6317
20
-52.0372
11
82.6075
21
-51.9882
0
LINE
8
BLACK
6
CONTINUOUS
10
82.6075
20
-51.9882
11
82.604
21
-51.9337
0
LINE
8
BLACK
6
CONTINUOUS
10
82.604
20
-51.9337
11
82.6215
21
-51.8819
0
LINE
8
BLACK
6
CONTINUOUS
10
82.6215
20
-51.8819
11
82.7615
21
-51.6394
0
LINE
8
BLACK
6
CONTINUOUS
10
82.7615
20
-51.6394
11
82.7975
21
-51.5984
0
LINE
8
BLACK
6
CONTINUOUS
10
82.7975
20
-51.5984
11
82.8465
21
-51.5742
0
LINE
8
BLACK
6
CONTINUOUS
10
82.8465
20
-51.5742
11
82.901
21
-51.5706
0
LINE
8
BLACK
6
CONTINUOUS
10
82.901
20
-51.5706
11
82.9528
21
-51.5882
0
LINE
8
BLACK
6
CONTINUOUS
10
76.0062
20
-51.6826
11
75.5732
21
-51.9326
0
LINE
8
BLACK
6
CONTINUOUS
10
75.5732
20
-51.9326
11
75.3232
21
-51.4996
0
LINE
8
BLACK
6
CONTINUOUS
10
75.3232
20
-51.4996
11
75.7562
21
-51.2496
0
LINE
8
BLACK
6
CONTINUOUS
10
75.7562
20
-51.2496
11
76.0062
21
-51.6826
0
LINE
8
BLACK
6
CONTINUOUS
10
84.6768
20
-51.4996
11
84.4268
21
-51.9326
0
LINE
8
BLACK
6
CONTINUOUS
10
84.4268
20
-51.9326
11
83.9938
21
-51.6826
0
LINE
8
BLACK
6
CONTINUOUS
10
83.9938
20
-51.6826
11
84.2438
21
-51.2496
0
LINE
8
BLACK
6
CONTINUOUS
10
84.2438
20
-51.2496
11
84.6768
21
-51.4996
0
LINE
8
BLACK
6
CONTINUOUS
10
78.7236
20
-51.2707
11
78.769
21
-51.301
0
LINE
8
BLACK
6
CONTINUOUS
10
78.769
20
-51.301
11
78.7993
21
-51.3464
0
LINE
8
BLACK
6
CONTINUOUS
10
78.7993
20
-51.3464
11
78.81
21
-51.4
0
LINE
8
BLACK
6
CONTINUOUS
10
78.81
20
-51.4
11
78.81
21
-51.68
0
LINE
8
BLACK
6
CONTINUOUS
10
78.81
20
-51.68
11
78.7993
21
-51.7336
0
LINE
8
BLACK
6
CONTINUOUS
10
78.7993
20
-51.7336
11
78.769
21
-51.779
0
LINE
8
BLACK
6
CONTINUOUS
10
78.769
20
-51.779
11
78.7236
21
-51.8093
0
LINE
8
BLACK
6
CONTINUOUS
10
78.7236
20
-51.8093
11
78.67
21
-51.82
0
LINE
8
BLACK
6
CONTINUOUS
10
78.67
20
-51.82
11
78.33
21
-51.82
0
LINE
8
BLACK
6
CONTINUOUS
10
78.33
20
-51.82
11
78.2764
21
-51.8093
0
LINE
8
BLACK
6
CONTINUOUS
10
78.2764
20
-51.8093
11
78.231
21
-51.779
0
LINE
8
BLACK
6
CONTINUOUS
10
78.231
20
-51.779
11
78.2007
21
-51.7336
0
LINE
8
BLACK
6
CONTINUOUS
10
78.2007
20
-51.7336
11
78.19
21
-51.68
0
LINE
8
BLACK
6
CONTINUOUS
10
78.19
20
-51.68
11
78.19
21
-51.4
0
LINE
8
BLACK
6
CONTINUOUS
10
78.19
20
-51.4
11
78.2007
21
-51.3464
0
LINE
8
BLACK
6
CONTINUOUS
10
78.2007
20
-51.3464
11
78.231
21
-51.301
0
LINE
8
BLACK
6
CONTINUOUS
10
78.231
20
-51.301
11
78.2764
21
-51.2707
0
LINE
8
BLACK
6
CONTINUOUS
10
78.2764
20
-51.2707
11
78.33
21
-51.26
0
LINE
8
BLACK
6
CONTINUOUS
10
78.33
20
-51.26
11
78.67
21
-51.26
0
LINE
8
BLACK
6
CONTINUOUS
10
78.67
20
-51.26
11
78.7236
21
-51.2707
0
LINE
8
BLACK
6
CONTINUOUS
10
79.8
20
-51.7
11
79.3
21
-51.7
0
LINE
8
BLACK
6
CONTINUOUS
10
79.3
20
-51.7
11
79.3
21
-51.2
0
LINE
8
BLACK
6
CONTINUOUS
10
79.3
20
-51.2
11
79.8
21
-51.2
0
LINE
8
BLACK
6
CONTINUOUS
10
79.8
20
-51.2
11
79.8
21
-51.7
0
LINE
8
BLACK
6
CONTINUOUS
10
80.7
20
-51.7
11
80.2
21
-51.7
0
LINE
8
BLACK
6
CONTINUOUS
10
80.2
20
-51.7
11
80.2
21
-51.2
0
LINE
8
BLACK
6
CONTINUOUS
10
80.2
20
-51.2
11
80.7
21
-51.2
0
LINE
8
BLACK
6
CONTINUOUS
10
80.7
20
-51.2
11
80.7
21
-51.7
0
LINE
8
BLACK
6
CONTINUOUS
10
83.4328
20
-50.7568
11
83.7272
21
-50.9268
0
LINE
8
BLACK
6
CONTINUOUS
10
83.7272
20
-50.9268
11
83.7683
21
-50.9628
0
LINE
8
BLACK
6
CONTINUOUS
10
83.7683
20
-50.9628
11
83.7925
21
-51.0118
0
LINE
8
BLACK
6
CONTINUOUS
10
83.7925
20
-51.0118
11
83.796
21
-51.0663
0
LINE
8
BLACK
6
CONTINUOUS
10
83.796
20
-51.0663
11
83.7785
21
-51.1181
0
LINE
8
BLACK
6
CONTINUOUS
10
83.7785
20
-51.1181
11
83.6385
21
-51.3606
0
LINE
8
BLACK
6
CONTINUOUS
10
83.6385
20
-51.3606
11
83.6025
21
-51.4016
0
LINE
8
BLACK
6
CONTINUOUS
10
83.6025
20
-51.4016
11
83.5535
21
-51.4258
0
LINE
8
BLACK
6
CONTINUOUS
10
83.5535
20
-51.4258
11
83.499
21
-51.4294
0
LINE
8
BLACK
6
CONTINUOUS
10
83.499
20
-51.4294
11
83.4472
21
-51.4118
0
LINE
8
BLACK
6
CONTINUOUS
10
83.4472
20
-51.4118
11
83.1528
21
-51.2418
0
LINE
8
BLACK
6
CONTINUOUS
10
83.1528
20
-51.2418
11
83.1117
21
-51.2058
0
LINE
8
BLACK
6
CONTINUOUS
10
83.1117
20
-51.2058
11
83.0875
21
-51.1568
0
LINE
8
BLACK
6
CONTINUOUS
10
83.0875
20
-51.1568
11
83.084
21
-51.1023
0
LINE
8
BLACK
6
CONTINUOUS
10
83.084
20
-51.1023
11
83.1015
21
-51.0506
0
LINE
8
BLACK
6
CONTINUOUS
10
83.1015
20
-51.0506
11
83.2415
21
-50.8081
0
LINE
8
BLACK
6
CONTINUOUS
10
83.2415
20
-50.8081
11
83.2775
21
-50.767
0
LINE
8
BLACK
6
CONTINUOUS
10
83.2775
20
-50.767
11
83.3265
21
-50.7428
0
LINE
8
BLACK
6
CONTINUOUS
10
83.3265
20
-50.7428
11
83.381
21
-50.7393
0
LINE
8
BLACK
6
CONTINUOUS
10
83.381
20
-50.7393
11
83.4328
21
-50.7568
0
LINE
8
BLACK
6
CONTINUOUS
10
78.7236
20
-50.3107
11
78.769
21
-50.341
0
LINE
8
BLACK
6
CONTINUOUS
10
78.769
20
-50.341
11
78.7993
21
-50.3864
0
LINE
8
BLACK
6
CONTINUOUS
10
78.7993
20
-50.3864
11
78.81
21
-50.44
0
LINE
8
BLACK
6
CONTINUOUS
10
78.81
20
-50.44
11
78.81
21
-50.72
0
LINE
8
BLACK
6
CONTINUOUS
10
78.81
20
-50.72
11
78.7993
21
-50.7736
0
LINE
8
BLACK
6
CONTINUOUS
10
78.7993
20
-50.7736
11
78.769
21
-50.819
0
LINE
8
BLACK
6
CONTINUOUS
10
78.769
20
-50.819
11
78.7236
21
-50.8493
0
LINE
8
BLACK
6
CONTINUOUS
10
78.7236
20
-50.8493
11
78.67
21
-50.86
0
LINE
8
BLACK
6
CONTINUOUS
10
78.67
20
-50.86
11
78.33
21
-50.86
0
LINE
8
BLACK
6
CONTINUOUS
10
78.33
20
-50.86
11
78.2764
21
-50.8493
0
LINE
8
BLACK
6
CONTINUOUS
10
78.2764
20
-50.8493
11
78.231
21
-50.819
0
LINE
8
BLACK
6
CONTINUOUS
10
78.231
20
-50.819
11
78.2007
21
-50.7736
0
LINE
8
BLACK
6
CONTINUOUS
10
78.2007
20
-50.7736
11
78.19
21
-50.72
0
LINE
8
BLACK
6
CONTINUOUS
10
78.19
20
-50.72
11
78.19
21
-50.44
0
LINE
8
BLACK
6
CONTINUOUS
10
78.19
20
-50.44
11
78.2007
21
-50.3864
0
LINE
8
BLACK
6
CONTINUOUS
10
78.2007
20
-50.3864
11
78.231
21
-50.341
0
LINE
8
BLACK
6
CONTINUOUS
10
78.231
20
-50.341
11
78.2764
21
-50.3107
0
LINE
8
BLACK
6
CONTINUOUS
10
78.2764
20
-50.3107
11
78.33
21
-50.3
0
LINE
8
BLACK
6
CONTINUOUS
10
78.33
20
-50.3
11
78.67
21
-50.3
0
LINE
8
BLACK
6
CONTINUOUS
10
78.67
20
-50.3
11
78.7236
21
-50.3107
0
LINE
8
BLACK
6
CONTINUOUS
10
79.8
20
-50.8
11
79.3
21
-50.8
0
LINE
8
BLACK
6
CONTINUOUS
10
79.3
20
-50.8
11
79.3
21
-50.3
0
LINE
8
BLACK
6
CONTINUOUS
10
79.3
20
-50.3
11
79.8
21
-50.3
0
LINE
8
BLACK
6
CONTINUOUS
10
79.8
20
-50.3
11
79.8
21
-50.8
0
LINE
8
BLACK
6
CONTINUOUS
10
80.7
20
-50.8
11
80.2
21
-50.8
0
LINE
8
BLACK
6
CONTINUOUS
10
80.2
20
-50.8
11
80.2
21
-50.3
0
LINE
8
BLACK
6
CONTINUOUS
10
80.2
20
-50.3
11
80.7
21
-50.3
0
LINE
8
BLACK
6
CONTINUOUS
10
80.7
20
-50.3
11
80.7
21
-50.8
  0
ENDSEC
  0
EOF
