  0
SECTION
  2
HEADER
  9
$ANGBASE
  50
0.0
  9
$ANGDIR
  70
1
  9
$MEASUREMENT
  70
1
  0
ENDSEC
  0
SECTION
  2
TABLES
  0
TABLE
  2
LTYPE
  70
4
  0
LTYPE
  5
40F
  2
CONTINUOUS
  70
0
  3
Solid line
  72
65
  73
0
  40
0.0
  0
LTYPE
  5
410
  2
DASHDOT
 70
0
  3
Dash Dot ____ _ ____ _
 72
65
 73
4
 40
2.0
 49
1.25
 49
-0.25
 49
0.25
 49
-0.25
  0
LTYPE
  5
411
  2
DASHED
 70
0
  3
Dashed __ __ __ __ __
 72
65
 73
2
 40
0.75
 49
0.5
 49
-0.25
  0
LTYPE
  5
43B
  2
DOTTED
 70
0
  3
Dotted .  .  .  .
 72
65
 73
2
 40
0.2
 49
0.0
 49
-0.2
  0
ENDTAB
  0
TABLE
  2
STYLE
  70
4
  0
STYLE
  2
KICAD
  70
0
  40
0
  41
1
  42
1
  50
0
  71
0
  3
isocp.shx
  0
STYLE
  2
KICADB
  70
0
  40
0
  41
1
  42
1
  50
0
  71
0
  3
isocp.shx
  0
STYLE
  2
KICADI
  70
0
  40
0
  41
1
  42
1
  50
15
  71
0
  3
isocp.shx
  0
STYLE
  2
KICADBI
  70
0
  40
0
  41
1
  42
1
  50
15
  71
0
  3
isocp.shx
  0
ENDTAB
  0
TABLE
  2
LAYER
  70
1
  0
LAYER
  2
BLACK
  70
0
  62
7
  6
CONTINUOUS
  0
ENDTAB
  0
ENDSEC
  0
SECTION
  2
ENTITIES
0
LINE
8
BLACK
6
CONTINUOUS
10
81.7235759999999942
20
-69.2406569999999988
11
81.7689949999999897
21
-69.2710050000000024
0
LINE
8
BLACK
6
CONTINUOUS
10
81.7689949999999897
20
-69.2710050000000024
11
81.7993429999999933
21
-69.3164239999999978
0
LINE
8
BLACK
6
CONTINUOUS
10
81.7993429999999933
20
-69.3164239999999978
11
81.8100000000000023
21
-69.3699999999999903
0
LINE
8
BLACK
6
CONTINUOUS
10
81.8100000000000023
20
-69.3699999999999903
11
81.8100000000000023
21
-69.6499999999999915
0
LINE
8
BLACK
6
CONTINUOUS
10
81.8100000000000023
20
-69.6499999999999915
11
81.7993429999999933
21
-69.7035759999999982
0
LINE
8
BLACK
6
CONTINUOUS
10
81.7993429999999933
20
-69.7035759999999982
11
81.7689949999999897
21
-69.7489949999999936
0
LINE
8
BLACK
6
CONTINUOUS
10
81.7689949999999897
20
-69.7489949999999936
11
81.7235759999999942
21
-69.7793429999999972
0
LINE
8
BLACK
6
CONTINUOUS
10
81.7235759999999942
20
-69.7793429999999972
11
81.6700000000000017
21
-69.789999999999992
0
LINE
8
BLACK
6
CONTINUOUS
10
81.6700000000000017
20
-69.789999999999992
11
81.3299999999999983
21
-69.789999999999992
0
LINE
8
BLACK
6
CONTINUOUS
10
81.3299999999999983
20
-69.789999999999992
11
81.2764239999999916
21
-69.7793429999999972
0
LINE
8
BLACK
6
CONTINUOUS
10
81.2764239999999916
20
-69.7793429999999972
11
81.2310049999999961
21
-69.7489949999999936
0
LINE
8
BLACK
6
CONTINUOUS
10
81.2310049999999961
20
-69.7489949999999936
11
81.2006569999999925
21
-69.7035759999999982
0
LINE
8
BLACK
6
CONTINUOUS
10
81.2006569999999925
20
-69.7035759999999982
11
81.1899999999999977
21
-69.6499999999999915
0
LINE
8
BLACK
6
CONTINUOUS
10
81.1899999999999977
20
-69.6499999999999915
11
81.1899999999999977
21
-69.3699999999999903
0
LINE
8
BLACK
6
CONTINUOUS
10
81.1899999999999977
20
-69.3699999999999903
11
81.2006569999999925
21
-69.3164239999999978
0
LINE
8
BLACK
6
CONTINUOUS
10
81.2006569999999925
20
-69.3164239999999978
11
81.2310049999999961
21
-69.2710050000000024
0
LINE
8
BLACK
6
CONTINUOUS
10
81.2310049999999961
20
-69.2710050000000024
11
81.2764239999999916
21
-69.2406569999999988
0
LINE
8
BLACK
6
CONTINUOUS
10
81.2764239999999916
20
-69.2406569999999988
11
81.3299999999999983
21
-69.2299999999999898
0
LINE
8
BLACK
6
CONTINUOUS
10
81.3299999999999983
20
-69.2299999999999898
11
81.6700000000000017
21
-69.2299999999999898
0
LINE
8
BLACK
6
CONTINUOUS
10
81.6700000000000017
20
-69.2299999999999898
11
81.7235759999999942
21
-69.2406569999999988
0
LINE
8
BLACK
6
CONTINUOUS
10
79.7999999999999972
20
-69.7000000000000028
11
79.2999999999999972
21
-69.7000000000000028
0
LINE
8
BLACK
6
CONTINUOUS
10
79.2999999999999972
20
-69.7000000000000028
11
79.2999999999999972
21
-69.2000000000000028
0
LINE
8
BLACK
6
CONTINUOUS
10
79.2999999999999972
20
-69.2000000000000028
11
79.7999999999999972
21
-69.2000000000000028
0
LINE
8
BLACK
6
CONTINUOUS
10
79.7999999999999972
20
-69.2000000000000028
11
79.7999999999999972
21
-69.7000000000000028
0
LINE
8
BLACK
6
CONTINUOUS
10
80.7000000000000028
20
-69.7000000000000028
11
80.2000000000000028
21
-69.7000000000000028
0
LINE
8
BLACK
6
CONTINUOUS
10
80.2000000000000028
20
-69.7000000000000028
11
80.2000000000000028
21
-69.2000000000000028
0
LINE
8
BLACK
6
CONTINUOUS
10
80.2000000000000028
20
-69.2000000000000028
11
80.7000000000000028
21
-69.2000000000000028
0
LINE
8
BLACK
6
CONTINUOUS
10
80.7000000000000028
20
-69.2000000000000028
11
80.7000000000000028
21
-69.7000000000000028
0
LINE
8
BLACK
6
CONTINUOUS
10
76.5527759999999944
20
-68.5882050000000021
11
76.8472239999999971
21
-68.7582050000000038
0
LINE
8
BLACK
6
CONTINUOUS
10
76.8472239999999971
20
-68.7582050000000038
11
76.8882940000000019
21
-68.7942219999999907
0
LINE
8
BLACK
6
CONTINUOUS
10
76.8882940000000019
20
-68.7942219999999907
11
76.9124539999999968
21
-68.8432140000000032
0
LINE
8
BLACK
6
CONTINUOUS
10
76.9124539999999968
20
-68.8432140000000032
11
76.9160269999999997
21
-68.8977220000000017
0
LINE
8
BLACK
6
CONTINUOUS
10
76.9160269999999997
20
-68.8977220000000017
11
76.898467999999994
21
-68.9494480000000038
0
LINE
8
BLACK
6
CONTINUOUS
10
76.898467999999994
20
-68.9494480000000038
11
76.7584679999999935
21
-69.1919359999999983
0
LINE
8
BLACK
6
CONTINUOUS
10
76.7584679999999935
20
-69.1919359999999983
11
76.7224509999999924
21
-69.2330049999999915
0
LINE
8
BLACK
6
CONTINUOUS
10
76.7224509999999924
20
-69.2330049999999915
11
76.673458999999994
21
-69.2571650000000005
0
LINE
8
BLACK
6
CONTINUOUS
10
76.673458999999994
20
-69.2571650000000005
11
76.6189509999999956
21
-69.2607380000000035
0
LINE
8
BLACK
6
CONTINUOUS
10
76.6189509999999956
20
-69.2607380000000035
11
76.567223999999996
21
-69.2431789999999978
0
LINE
8
BLACK
6
CONTINUOUS
10
76.567223999999996
20
-69.2431789999999978
11
76.2727759999999932
21
-69.0731789999999961
0
LINE
8
BLACK
6
CONTINUOUS
10
76.2727759999999932
20
-69.0731789999999961
11
76.2317060000000026
21
-69.037161999999995
0
LINE
8
BLACK
6
CONTINUOUS
10
76.2317060000000026
20
-69.037161999999995
11
76.2075459999999936
21
-68.9881699999999967
0
LINE
8
BLACK
6
CONTINUOUS
10
76.2075459999999936
20
-68.9881699999999967
11
76.2039729999999906
21
-68.9336619999999982
0
LINE
8
BLACK
6
CONTINUOUS
10
76.2039729999999906
20
-68.9336619999999982
11
76.2215319999999963
21
-68.8819359999999961
0
LINE
8
BLACK
6
CONTINUOUS
10
76.2215319999999963
20
-68.8819359999999961
11
76.3615319999999969
21
-68.6394480000000016
0
LINE
8
BLACK
6
CONTINUOUS
10
76.3615319999999969
20
-68.6394480000000016
11
76.3975489999999979
21
-68.5983789999999942
0
LINE
8
BLACK
6
CONTINUOUS
10
76.3975489999999979
20
-68.5983789999999942
11
76.4465409999999963
21
-68.5742189999999994
0
LINE
8
BLACK
6
CONTINUOUS
10
76.4465409999999963
20
-68.5742189999999994
11
76.5010489999999947
21
-68.5706459999999964
0
LINE
8
BLACK
6
CONTINUOUS
10
76.5010489999999947
20
-68.5706459999999964
11
76.5527759999999944
21
-68.5882050000000021
0
LINE
8
BLACK
6
CONTINUOUS
10
81.7235759999999942
20
-68.2806569999999908
11
81.7689949999999897
21
-68.3110049999999944
0
LINE
8
BLACK
6
CONTINUOUS
10
81.7689949999999897
20
-68.3110049999999944
11
81.7993429999999933
21
-68.3564239999999899
0
LINE
8
BLACK
6
CONTINUOUS
10
81.7993429999999933
20
-68.3564239999999899
11
81.8100000000000023
21
-68.4099999999999966
0
LINE
8
BLACK
6
CONTINUOUS
10
81.8100000000000023
20
-68.4099999999999966
11
81.8100000000000023
21
-68.6899999999999977
0
LINE
8
BLACK
6
CONTINUOUS
10
81.8100000000000023
20
-68.6899999999999977
11
81.7993429999999933
21
-68.7435759999999902
0
LINE
8
BLACK
6
CONTINUOUS
10
81.7993429999999933
20
-68.7435759999999902
11
81.7689949999999897
21
-68.7889949999999999
0
LINE
8
BLACK
6
CONTINUOUS
10
81.7689949999999897
20
-68.7889949999999999
11
81.7235759999999942
21
-68.8193430000000035
0
LINE
8
BLACK
6
CONTINUOUS
10
81.7235759999999942
20
-68.8193430000000035
11
81.6700000000000017
21
-68.8299999999999983
0
LINE
8
BLACK
6
CONTINUOUS
10
81.6700000000000017
20
-68.8299999999999983
11
81.3299999999999983
21
-68.8299999999999983
0
LINE
8
BLACK
6
CONTINUOUS
10
81.3299999999999983
20
-68.8299999999999983
11
81.2764239999999916
21
-68.8193430000000035
0
LINE
8
BLACK
6
CONTINUOUS
10
81.2764239999999916
20
-68.8193430000000035
11
81.2310049999999961
21
-68.7889949999999999
0
LINE
8
BLACK
6
CONTINUOUS
10
81.2310049999999961
20
-68.7889949999999999
11
81.2006569999999925
21
-68.7435759999999902
0
LINE
8
BLACK
6
CONTINUOUS
10
81.2006569999999925
20
-68.7435759999999902
11
81.1899999999999977
21
-68.6899999999999977
0
LINE
8
BLACK
6
CONTINUOUS
10
81.1899999999999977
20
-68.6899999999999977
11
81.1899999999999977
21
-68.4099999999999966
0
LINE
8
BLACK
6
CONTINUOUS
10
81.1899999999999977
20
-68.4099999999999966
11
81.2006569999999925
21
-68.3564239999999899
0
LINE
8
BLACK
6
CONTINUOUS
10
81.2006569999999925
20
-68.3564239999999899
11
81.2310049999999961
21
-68.3110049999999944
0
LINE
8
BLACK
6
CONTINUOUS
10
81.2310049999999961
20
-68.3110049999999944
11
81.2764239999999916
21
-68.2806569999999908
0
LINE
8
BLACK
6
CONTINUOUS
10
81.2764239999999916
20
-68.2806569999999908
11
81.3299999999999983
21
-68.269999999999996
0
LINE
8
BLACK
6
CONTINUOUS
10
81.3299999999999983
20
-68.269999999999996
11
81.6700000000000017
21
-68.269999999999996
0
LINE
8
BLACK
6
CONTINUOUS
10
81.6700000000000017
20
-68.269999999999996
11
81.7235759999999942
21
-68.2806569999999908
0
LINE
8
BLACK
6
CONTINUOUS
10
79.7999999999999972
20
-68.7999999999999972
11
79.2999999999999972
21
-68.7999999999999972
0
LINE
8
BLACK
6
CONTINUOUS
10
79.2999999999999972
20
-68.7999999999999972
11
79.2999999999999972
21
-68.2999999999999972
0
LINE
8
BLACK
6
CONTINUOUS
10
79.2999999999999972
20
-68.2999999999999972
11
79.7999999999999972
21
-68.2999999999999972
0
LINE
8
BLACK
6
CONTINUOUS
10
79.7999999999999972
20
-68.2999999999999972
11
79.7999999999999972
21
-68.7999999999999972
0
LINE
8
BLACK
6
CONTINUOUS
10
80.7000000000000028
20
-68.7999999999999972
11
80.2000000000000028
21
-68.7999999999999972
0
LINE
8
BLACK
6
CONTINUOUS
10
80.2000000000000028
20
-68.7999999999999972
11
80.2000000000000028
21
-68.2999999999999972
0
LINE
8
BLACK
6
CONTINUOUS
10
80.2000000000000028
20
-68.2999999999999972
11
80.7000000000000028
21
-68.2999999999999972
0
LINE
8
BLACK
6
CONTINUOUS
10
80.7000000000000028
20
-68.2999999999999972
11
80.7000000000000028
21
-68.7999999999999972
0
LINE
8
BLACK
6
CONTINUOUS
10
76.0062169999999924
20
-68.3174339999999916
11
75.7562169999999924
21
-68.7504459999999966
0
LINE
8
BLACK
6
CONTINUOUS
10
75.7562169999999924
20
-68.7504459999999966
11
75.3232050000000015
21
-68.5004459999999966
0
LINE
8
BLACK
6
CONTINUOUS
10
75.3232050000000015
20
-68.5004459999999966
11
75.5732050000000015
21
-68.0674339999999916
0
LINE
8
BLACK
6
CONTINUOUS
10
75.5732050000000015
20
-68.0674339999999916
11
76.0062169999999924
21
-68.3174339999999916
0
LINE
8
BLACK
6
CONTINUOUS
10
84.6767949999999985
20
-68.5004459999999966
11
84.2437829999999934
21
-68.7504459999999966
0
LINE
8
BLACK
6
CONTINUOUS
10
84.2437829999999934
20
-68.7504459999999966
11
83.9937829999999934
21
-68.3174339999999916
0
LINE
8
BLACK
6
CONTINUOUS
10
83.9937829999999934
20
-68.3174339999999916
11
84.4267949999999985
21
-68.0674339999999916
0
LINE
8
BLACK
6
CONTINUOUS
10
84.4267949999999985
20
-68.0674339999999916
11
84.6767949999999985
21
-68.5004459999999966
0
LINE
8
BLACK
6
CONTINUOUS
10
77.0327759999999984
20
-67.7568210000000022
11
77.3272240000000011
21
-67.9268210000000039
0
LINE
8
BLACK
6
CONTINUOUS
10
77.3272240000000011
20
-67.9268210000000039
11
77.3682939999999917
21
-67.9628379999999908
0
LINE
8
BLACK
6
CONTINUOUS
10
77.3682939999999917
20
-67.9628379999999908
11
77.3924540000000007
21
-68.0118300000000033
0
LINE
8
BLACK
6
CONTINUOUS
10
77.3924540000000007
20
-68.0118300000000033
11
77.3960269999999895
21
-68.0663380000000018
0
LINE
8
BLACK
6
CONTINUOUS
10
77.3960269999999895
20
-68.0663380000000018
11
77.378467999999998
21
-68.1180640000000039
0
LINE
8
BLACK
6
CONTINUOUS
10
77.378467999999998
20
-68.1180640000000039
11
77.2384679999999975
21
-68.3605519999999984
0
LINE
8
BLACK
6
CONTINUOUS
10
77.2384679999999975
20
-68.3605519999999984
11
77.2024509999999964
21
-68.4016209999999916
0
LINE
8
BLACK
6
CONTINUOUS
10
77.2024509999999964
20
-68.4016209999999916
11
77.153458999999998
21
-68.4257810000000006
0
LINE
8
BLACK
6
CONTINUOUS
10
77.153458999999998
20
-68.4257810000000006
11
77.0989509999999996
21
-68.4293540000000036
0
LINE
8
BLACK
6
CONTINUOUS
10
77.0989509999999996
20
-68.4293540000000036
11
77.0472239999999999
21
-68.4117949999999979
0
LINE
8
BLACK
6
CONTINUOUS
10
77.0472239999999999
20
-68.4117949999999979
11
76.7527759999999972
21
-68.2417949999999962
0
LINE
8
BLACK
6
CONTINUOUS
10
76.7527759999999972
20
-68.2417949999999962
11
76.7117059999999924
21
-68.2057779999999951
0
LINE
8
BLACK
6
CONTINUOUS
10
76.7117059999999924
20
-68.2057779999999951
11
76.6875459999999975
21
-68.1567859999999968
0
LINE
8
BLACK
6
CONTINUOUS
10
76.6875459999999975
20
-68.1567859999999968
11
76.6839729999999946
21
-68.1022779999999983
0
LINE
8
BLACK
6
CONTINUOUS
10
76.6839729999999946
20
-68.1022779999999983
11
76.7015320000000003
21
-68.0505519999999962
0
LINE
8
BLACK
6
CONTINUOUS
10
76.7015320000000003
20
-68.0505519999999962
11
76.8415320000000008
21
-67.8080640000000017
0
LINE
8
BLACK
6
CONTINUOUS
10
76.8415320000000008
20
-67.8080640000000017
11
76.8775490000000019
21
-67.7669949999999943
0
LINE
8
BLACK
6
CONTINUOUS
10
76.8775490000000019
20
-67.7669949999999943
11
76.9265410000000003
21
-67.7428349999999995
0
LINE
8
BLACK
6
CONTINUOUS
10
76.9265410000000003
20
-67.7428349999999995
11
76.9810489999999987
21
-67.7392619999999965
0
LINE
8
BLACK
6
CONTINUOUS
10
76.9810489999999987
20
-67.7392619999999965
11
77.0327759999999984
21
-67.7568210000000022
0
LINE
8
BLACK
6
CONTINUOUS
10
75.2267949999999956
20
-67.8674340000000029
11
74.9767949999999956
21
-68.3004459999999938
0
LINE
8
BLACK
6
CONTINUOUS
10
74.9767949999999956
20
-68.3004459999999938
11
74.5437829999999906
21
-68.0504459999999938
0
LINE
8
BLACK
6
CONTINUOUS
10
74.5437829999999906
20
-68.0504459999999938
11
74.7937829999999906
21
-67.6174340000000029
0
LINE
8
BLACK
6
CONTINUOUS
10
74.7937829999999906
20
-67.6174340000000029
11
75.2267949999999956
21
-67.8674340000000029
0
LINE
8
BLACK
6
CONTINUOUS
10
85.4562169999999952
20
-68.0504459999999938
11
85.0232049999999902
21
-68.3004459999999938
0
LINE
8
BLACK
6
CONTINUOUS
10
85.0232049999999902
20
-68.3004459999999938
11
84.7732049999999902
21
-67.8674340000000029
0
LINE
8
BLACK
6
CONTINUOUS
10
84.7732049999999902
20
-67.8674340000000029
11
85.2062169999999952
21
-67.6174340000000029
0
LINE
8
BLACK
6
CONTINUOUS
10
85.2062169999999952
20
-67.6174340000000029
11
85.4562169999999952
21
-68.0504459999999938
0
LINE
8
BLACK
6
CONTINUOUS
10
76.4562169999999952
20
-67.5380119999999948
11
76.2062169999999952
21
-67.9710239999999999
0
LINE
8
BLACK
6
CONTINUOUS
10
76.2062169999999952
20
-67.9710239999999999
11
75.7732049999999902
21
-67.7210239999999999
0
LINE
8
BLACK
6
CONTINUOUS
10
75.7732049999999902
20
-67.7210239999999999
11
76.0232049999999902
21
-67.2880119999999948
0
LINE
8
BLACK
6
CONTINUOUS
10
76.0232049999999902
20
-67.2880119999999948
11
76.4562169999999952
21
-67.5380119999999948
0
LINE
8
BLACK
6
CONTINUOUS
10
84.2267949999999956
20
-67.7210239999999999
11
83.7937829999999906
21
-67.9710239999999999
0
LINE
8
BLACK
6
CONTINUOUS
10
83.7937829999999906
20
-67.9710239999999999
11
83.5437829999999906
21
-67.5380119999999948
0
LINE
8
BLACK
6
CONTINUOUS
10
83.5437829999999906
20
-67.5380119999999948
11
83.9767949999999956
21
-67.2880119999999948
0
LINE
8
BLACK
6
CONTINUOUS
10
83.9767949999999956
20
-67.2880119999999948
11
84.2267949999999956
21
-67.7210239999999999
0
LINE
8
BLACK
6
CONTINUOUS
10
86.153458999999998
20
-67.1414860000000004
11
86.2024509999999964
21
-67.1656459999999953
0
LINE
8
BLACK
6
CONTINUOUS
10
86.2024509999999964
20
-67.1656459999999953
11
86.2384679999999975
21
-67.2067150000000026
0
LINE
8
BLACK
6
CONTINUOUS
10
86.2384679999999975
20
-67.2067150000000026
11
86.378467999999998
21
-67.4492029999999971
0
LINE
8
BLACK
6
CONTINUOUS
10
86.378467999999998
20
-67.4492029999999971
11
86.3960269999999895
21
-67.5009289999999993
0
LINE
8
BLACK
6
CONTINUOUS
10
86.3960269999999895
20
-67.5009289999999993
11
86.3924540000000007
21
-67.5554369999999977
0
LINE
8
BLACK
6
CONTINUOUS
10
86.3924540000000007
20
-67.5554369999999977
11
86.3682939999999917
21
-67.6044289999999961
0
LINE
8
BLACK
6
CONTINUOUS
10
86.3682939999999917
20
-67.6044289999999961
11
86.3272240000000011
21
-67.6404459999999972
0
LINE
8
BLACK
6
CONTINUOUS
10
86.3272240000000011
20
-67.6404459999999972
11
86.0327759999999984
21
-67.8104459999999989
0
LINE
8
BLACK
6
CONTINUOUS
10
86.0327759999999984
20
-67.8104459999999989
11
85.9810489999999987
21
-67.8280049999999903
0
LINE
8
BLACK
6
CONTINUOUS
10
85.9810489999999987
20
-67.8280049999999903
11
85.9265410000000003
21
-67.8244320000000016
0
LINE
8
BLACK
6
CONTINUOUS
10
85.9265410000000003
20
-67.8244320000000016
11
85.8775490000000019
21
-67.8002719999999925
0
LINE
8
BLACK
6
CONTINUOUS
10
85.8775490000000019
20
-67.8002719999999925
11
85.8415320000000008
21
-67.7592029999999994
0
LINE
8
BLACK
6
CONTINUOUS
10
85.8415320000000008
20
-67.7592029999999994
11
85.7015320000000003
21
-67.5167149999999907
0
LINE
8
BLACK
6
CONTINUOUS
10
85.7015320000000003
20
-67.5167149999999907
11
85.6839729999999946
21
-67.4649890000000028
0
LINE
8
BLACK
6
CONTINUOUS
10
85.6839729999999946
20
-67.4649890000000028
11
85.6875459999999975
21
-67.4104809999999901
0
LINE
8
BLACK
6
CONTINUOUS
10
85.6875459999999975
20
-67.4104809999999901
11
85.7117059999999924
21
-67.3614889999999917
0
LINE
8
BLACK
6
CONTINUOUS
10
85.7117059999999924
20
-67.3614889999999917
11
85.7527759999999972
21
-67.3254719999999907
0
LINE
8
BLACK
6
CONTINUOUS
10
85.7527759999999972
20
-67.3254719999999907
11
86.0472239999999999
21
-67.1554720000000032
0
LINE
8
BLACK
6
CONTINUOUS
10
86.0472239999999999
20
-67.1554720000000032
11
86.0989509999999996
21
-67.1379129999999975
0
LINE
8
BLACK
6
CONTINUOUS
10
86.0989509999999996
20
-67.1379129999999975
11
86.153458999999998
21
-67.1414860000000004
0
LINE
8
BLACK
6
CONTINUOUS
10
75.6767949999999985
20
-67.088011999999992
11
75.4267949999999985
21
-67.521023999999997
0
LINE
8
BLACK
6
CONTINUOUS
10
75.4267949999999985
20
-67.521023999999997
11
74.9937829999999934
21
-67.271023999999997
0
LINE
8
BLACK
6
CONTINUOUS
10
74.9937829999999934
20
-67.271023999999997
11
75.2437829999999934
21
-66.838011999999992
0
LINE
8
BLACK
6
CONTINUOUS
10
75.2437829999999934
20
-66.838011999999992
11
75.6767949999999985
21
-67.088011999999992
0
LINE
8
BLACK
6
CONTINUOUS
10
85.0062169999999924
20
-67.271023999999997
11
84.5732050000000015
21
-67.521023999999997
0
LINE
8
BLACK
6
CONTINUOUS
10
84.5732050000000015
20
-67.521023999999997
11
84.3232050000000015
21
-67.088011999999992
0
LINE
8
BLACK
6
CONTINUOUS
10
84.3232050000000015
20
-67.088011999999992
11
84.7562169999999924
21
-66.838011999999992
0
LINE
8
BLACK
6
CONTINUOUS
10
84.7562169999999924
20
-66.838011999999992
11
85.0062169999999924
21
-67.271023999999997
0
LINE
8
BLACK
6
CONTINUOUS
10
85.673458999999994
20
-66.3101020000000005
11
85.7224509999999924
21
-66.3342619999999954
0
LINE
8
BLACK
6
CONTINUOUS
10
85.7224509999999924
20
-66.3342619999999954
11
85.7584679999999935
21
-66.3753310000000027
0
LINE
8
BLACK
6
CONTINUOUS
10
85.7584679999999935
20
-66.3753310000000027
11
85.898467999999994
21
-66.6178189999999972
0
LINE
8
BLACK
6
CONTINUOUS
10
85.898467999999994
20
-66.6178189999999972
11
85.9160269999999997
21
-66.6695449999999994
0
LINE
8
BLACK
6
CONTINUOUS
10
85.9160269999999997
20
-66.6695449999999994
11
85.9124539999999968
21
-66.7240529999999978
0
LINE
8
BLACK
6
CONTINUOUS
10
85.9124539999999968
20
-66.7240529999999978
11
85.8882940000000019
21
-66.7730449999999962
0
LINE
8
BLACK
6
CONTINUOUS
10
85.8882940000000019
20
-66.7730449999999962
11
85.8472239999999971
21
-66.8090619999999973
0
LINE
8
BLACK
6
CONTINUOUS
10
85.8472239999999971
20
-66.8090619999999973
11
85.5527759999999944
21
-66.979061999999999
0
LINE
8
BLACK
6
CONTINUOUS
10
85.5527759999999944
20
-66.979061999999999
11
85.5010489999999947
21
-66.9966209999999904
0
LINE
8
BLACK
6
CONTINUOUS
10
85.5010489999999947
20
-66.9966209999999904
11
85.4465409999999963
21
-66.9930480000000017
0
LINE
8
BLACK
6
CONTINUOUS
10
85.4465409999999963
20
-66.9930480000000017
11
85.3975489999999979
21
-66.9688879999999926
0
LINE
8
BLACK
6
CONTINUOUS
10
85.3975489999999979
20
-66.9688879999999926
11
85.3615319999999969
21
-66.9278189999999995
0
LINE
8
BLACK
6
CONTINUOUS
10
85.3615319999999969
20
-66.9278189999999995
11
85.2215319999999963
21
-66.6853309999999908
0
LINE
8
BLACK
6
CONTINUOUS
10
85.2215319999999963
20
-66.6853309999999908
11
85.2039729999999906
21
-66.6336050000000029
0
LINE
8
BLACK
6
CONTINUOUS
10
85.2039729999999906
20
-66.6336050000000029
11
85.2075459999999936
21
-66.5790969999999902
0
LINE
8
BLACK
6
CONTINUOUS
10
85.2075459999999936
20
-66.5790969999999902
11
85.2317060000000026
21
-66.5301049999999918
0
LINE
8
BLACK
6
CONTINUOUS
10
85.2317060000000026
20
-66.5301049999999918
11
85.2727759999999932
21
-66.4940879999999908
0
LINE
8
BLACK
6
CONTINUOUS
10
85.2727759999999932
20
-66.4940879999999908
11
85.567223999999996
21
-66.3240880000000033
0
LINE
8
BLACK
6
CONTINUOUS
10
85.567223999999996
20
-66.3240880000000033
11
85.6189509999999956
21
-66.3065289999999976
0
LINE
8
BLACK
6
CONTINUOUS
10
85.6189509999999956
20
-66.3065289999999976
11
85.673458999999994
21
-66.3101020000000005
0
LINE
8
BLACK
6
CONTINUOUS
10
72.6567859999999968
20
-65.6375460000000004
11
72.7057779999999951
21
-65.6617059999999952
0
LINE
8
BLACK
6
CONTINUOUS
10
72.7057779999999951
20
-65.6617059999999952
11
72.7417949999999962
21
-65.7027760000000001
0
LINE
8
BLACK
6
CONTINUOUS
10
72.7417949999999962
20
-65.7027760000000001
11
72.9117949999999979
21
-65.9972240000000028
0
LINE
8
BLACK
6
CONTINUOUS
10
72.9117949999999979
20
-65.9972240000000028
11
72.9293540000000036
21
-66.0489510000000024
0
LINE
8
BLACK
6
CONTINUOUS
10
72.9293540000000036
20
-66.0489510000000024
11
72.9257810000000006
21
-66.1034590000000009
0
LINE
8
BLACK
6
CONTINUOUS
10
72.9257810000000006
20
-66.1034590000000009
11
72.9016209999999916
21
-66.1524509999999992
0
LINE
8
BLACK
6
CONTINUOUS
10
72.9016209999999916
20
-66.1524509999999992
11
72.8605519999999984
21
-66.1884680000000003
0
LINE
8
BLACK
6
CONTINUOUS
10
72.8605519999999984
20
-66.1884680000000003
11
72.6180639999999897
21
-66.3284680000000009
0
LINE
8
BLACK
6
CONTINUOUS
10
72.6180639999999897
20
-66.3284680000000009
11
72.5663380000000018
21
-66.3460269999999923
0
LINE
8
BLACK
6
CONTINUOUS
10
72.5663380000000018
20
-66.3460269999999923
11
72.5118300000000033
21
-66.3424540000000036
0
LINE
8
BLACK
6
CONTINUOUS
10
72.5118300000000033
20
-66.3424540000000036
11
72.4628379999999908
21
-66.3182939999999945
0
LINE
8
BLACK
6
CONTINUOUS
10
72.4628379999999908
20
-66.3182939999999945
11
72.4268209999999897
21
-66.2772240000000039
0
LINE
8
BLACK
6
CONTINUOUS
10
72.4268209999999897
20
-66.2772240000000039
11
72.2568210000000022
21
-65.9827760000000012
0
LINE
8
BLACK
6
CONTINUOUS
10
72.2568210000000022
20
-65.9827760000000012
11
72.2392619999999965
21
-65.9310490000000016
0
LINE
8
BLACK
6
CONTINUOUS
10
72.2392619999999965
20
-65.9310490000000016
11
72.2428349999999995
21
-65.8765410000000031
0
LINE
8
BLACK
6
CONTINUOUS
10
72.2428349999999995
20
-65.8765410000000031
11
72.2669949999999943
21
-65.8275489999999905
0
LINE
8
BLACK
6
CONTINUOUS
10
72.2669949999999943
20
-65.8275489999999905
11
72.3080640000000017
21
-65.7915320000000037
0
LINE
8
BLACK
6
CONTINUOUS
10
72.3080640000000017
20
-65.7915320000000037
11
72.5505519999999962
21
-65.6515320000000031
0
LINE
8
BLACK
6
CONTINUOUS
10
72.5505519999999962
20
-65.6515320000000031
11
72.6022779999999983
21
-65.6339729999999975
0
LINE
8
BLACK
6
CONTINUOUS
10
72.6022779999999983
20
-65.6339729999999975
11
72.6567859999999968
21
-65.6375460000000004
0
LINE
8
BLACK
6
CONTINUOUS
10
73.4881699999999967
20
-65.1575459999999964
11
73.537161999999995
21
-65.1817059999999913
0
LINE
8
BLACK
6
CONTINUOUS
10
73.537161999999995
20
-65.1817059999999913
11
73.5731789999999961
21
-65.2227759999999961
0
LINE
8
BLACK
6
CONTINUOUS
10
73.5731789999999961
20
-65.2227759999999961
11
73.7431789999999978
21
-65.5172239999999988
0
LINE
8
BLACK
6
CONTINUOUS
10
73.7431789999999978
20
-65.5172239999999988
11
73.7607380000000035
21
-65.5689509999999984
0
LINE
8
BLACK
6
CONTINUOUS
10
73.7607380000000035
20
-65.5689509999999984
11
73.7571650000000005
21
-65.6234589999999969
0
LINE
8
BLACK
6
CONTINUOUS
10
73.7571650000000005
20
-65.6234589999999969
11
73.7330049999999915
21
-65.6724509999999952
0
LINE
8
BLACK
6
CONTINUOUS
10
73.7330049999999915
20
-65.6724509999999952
11
73.6919359999999983
21
-65.7084679999999963
0
LINE
8
BLACK
6
CONTINUOUS
10
73.6919359999999983
20
-65.7084679999999963
11
73.4494479999999896
21
-65.8484679999999969
0
LINE
8
BLACK
6
CONTINUOUS
10
73.4494479999999896
20
-65.8484679999999969
11
73.3977220000000017
21
-65.8660270000000025
0
LINE
8
BLACK
6
CONTINUOUS
10
73.3977220000000017
20
-65.8660270000000025
11
73.3432140000000032
21
-65.8624539999999996
0
LINE
8
BLACK
6
CONTINUOUS
10
73.3432140000000032
20
-65.8624539999999996
11
73.2942219999999907
21
-65.8382939999999905
0
LINE
8
BLACK
6
CONTINUOUS
10
73.2942219999999907
20
-65.8382939999999905
11
73.2582049999999896
21
-65.7972239999999999
0
LINE
8
BLACK
6
CONTINUOUS
10
73.2582049999999896
20
-65.7972239999999999
11
73.0882050000000021
21
-65.5027759999999972
0
LINE
8
BLACK
6
CONTINUOUS
10
73.0882050000000021
20
-65.5027759999999972
11
73.0706459999999964
21
-65.4510489999999976
0
LINE
8
BLACK
6
CONTINUOUS
10
73.0706459999999964
20
-65.4510489999999976
11
73.0742189999999994
21
-65.3965409999999991
0
LINE
8
BLACK
6
CONTINUOUS
10
73.0742189999999994
20
-65.3965409999999991
11
73.0983789999999942
21
-65.3475490000000008
0
LINE
8
BLACK
6
CONTINUOUS
10
73.0983789999999942
20
-65.3475490000000008
11
73.1394480000000016
21
-65.3115319999999997
0
LINE
8
BLACK
6
CONTINUOUS
10
73.1394480000000016
20
-65.3115319999999997
11
73.3819359999999961
21
-65.1715319999999991
0
LINE
8
BLACK
6
CONTINUOUS
10
73.3819359999999961
20
-65.1715319999999991
11
73.4336619999999982
21
-65.1539729999999935
0
LINE
8
BLACK
6
CONTINUOUS
10
73.4336619999999982
20
-65.1539729999999935
11
73.4881699999999967
21
-65.1575459999999964
0
LINE
8
BLACK
6
CONTINUOUS
10
72.3825659999999971
20
-65.2062169999999952
11
71.949553999999992
21
-65.4562169999999952
0
LINE
8
BLACK
6
CONTINUOUS
10
71.949553999999992
20
-65.4562169999999952
11
71.699553999999992
21
-65.0232049999999902
0
LINE
8
BLACK
6
CONTINUOUS
10
71.699553999999992
20
-65.0232049999999902
11
72.1325659999999971
21
-64.7732049999999902
0
LINE
8
BLACK
6
CONTINUOUS
10
72.1325659999999971
20
-64.7732049999999902
11
72.3825659999999971
21
-65.2062169999999952
0
LINE
8
BLACK
6
CONTINUOUS
10
88.3004459999999938
20
-65.0232049999999902
11
88.0504459999999938
21
-65.4562169999999952
0
LINE
8
BLACK
6
CONTINUOUS
10
88.0504459999999938
20
-65.4562169999999952
11
87.6174340000000029
21
-65.2062169999999952
0
LINE
8
BLACK
6
CONTINUOUS
10
87.6174340000000029
20
-65.2062169999999952
11
87.8674340000000029
21
-64.7732049999999902
0
LINE
8
BLACK
6
CONTINUOUS
10
87.8674340000000029
20
-64.7732049999999902
11
88.3004459999999938
21
-65.0232049999999902
0
LINE
8
BLACK
6
CONTINUOUS
10
73.1619879999999938
20
-64.7562169999999924
11
72.728976000000003
21
-65.0062169999999924
0
LINE
8
BLACK
6
CONTINUOUS
10
72.728976000000003
20
-65.0062169999999924
11
72.478976000000003
21
-64.5732050000000015
0
LINE
8
BLACK
6
CONTINUOUS
10
72.478976000000003
20
-64.5732050000000015
11
72.9119879999999938
21
-64.3232050000000015
0
LINE
8
BLACK
6
CONTINUOUS
10
72.9119879999999938
20
-64.3232050000000015
11
73.1619879999999938
21
-64.7562169999999924
0
LINE
8
BLACK
6
CONTINUOUS
10
87.521023999999997
20
-64.5732050000000015
11
87.271023999999997
21
-65.0062169999999924
0
LINE
8
BLACK
6
CONTINUOUS
10
87.271023999999997
20
-65.0062169999999924
11
86.838011999999992
21
-64.7562169999999924
0
LINE
8
BLACK
6
CONTINUOUS
10
86.838011999999992
20
-64.7562169999999924
11
87.088011999999992
21
-64.3232050000000015
0
LINE
8
BLACK
6
CONTINUOUS
10
87.088011999999992
20
-64.3232050000000015
11
87.521023999999997
21
-64.5732050000000015
0
LINE
8
BLACK
6
CONTINUOUS
10
71.9325659999999942
20
-64.4267949999999985
11
71.4995540000000034
21
-64.6767949999999985
0
LINE
8
BLACK
6
CONTINUOUS
10
71.4995540000000034
20
-64.6767949999999985
11
71.2495540000000034
21
-64.2437829999999934
0
LINE
8
BLACK
6
CONTINUOUS
10
71.2495540000000034
20
-64.2437829999999934
11
71.6825659999999942
21
-63.9937830000000005
0
LINE
8
BLACK
6
CONTINUOUS
10
71.6825659999999942
20
-63.9937830000000005
11
71.9325659999999942
21
-64.4267949999999985
0
LINE
8
BLACK
6
CONTINUOUS
10
88.7504459999999966
20
-64.2437829999999934
11
88.5004459999999966
21
-64.6767949999999985
0
LINE
8
BLACK
6
CONTINUOUS
10
88.5004459999999966
20
-64.6767949999999985
11
88.0674339999999916
21
-64.4267949999999985
0
LINE
8
BLACK
6
CONTINUOUS
10
88.0674339999999916
20
-64.4267949999999985
11
88.3174339999999916
21
-63.9937830000000005
0
LINE
8
BLACK
6
CONTINUOUS
10
88.3174339999999916
20
-63.9937830000000005
11
88.7504459999999966
21
-64.2437829999999934
0
LINE
8
BLACK
6
CONTINUOUS
10
72.711987999999991
20
-63.9767949999999956
11
72.2789760000000001
21
-64.2267949999999956
0
LINE
8
BLACK
6
CONTINUOUS
10
72.2789760000000001
20
-64.2267949999999956
11
72.0289760000000001
21
-63.7937829999999977
0
LINE
8
BLACK
6
CONTINUOUS
10
72.0289760000000001
20
-63.7937829999999977
11
72.461987999999991
21
-63.5437829999999977
0
LINE
8
BLACK
6
CONTINUOUS
10
72.461987999999991
20
-63.5437829999999977
11
72.711987999999991
21
-63.9767949999999956
0
LINE
8
BLACK
6
CONTINUOUS
10
87.9710239999999999
20
-63.7937829999999977
11
87.7210239999999999
21
-64.2267949999999956
0
LINE
8
BLACK
6
CONTINUOUS
10
87.7210239999999999
20
-64.2267949999999956
11
87.2880119999999948
21
-63.9767949999999956
0
LINE
8
BLACK
6
CONTINUOUS
10
87.2880119999999948
20
-63.9767949999999956
11
87.5380119999999948
21
-63.5437829999999977
0
LINE
8
BLACK
6
CONTINUOUS
10
87.5380119999999948
20
-63.5437829999999977
11
87.9710239999999999
21
-63.7937829999999977
0
LINE
8
BLACK
6
CONTINUOUS
10
88.999448000000001
20
-63.151531999999996
11
89.2419359999999955
21
-63.2915319999999966
0
LINE
8
BLACK
6
CONTINUOUS
10
89.2419359999999955
20
-63.2915319999999966
11
89.2830050000000028
21
-63.3275489999999976
0
LINE
8
BLACK
6
CONTINUOUS
10
89.2830050000000028
20
-63.3275489999999976
11
89.3071649999999977
21
-63.376540999999996
0
LINE
8
BLACK
6
CONTINUOUS
10
89.3071649999999977
20
-63.376540999999996
11
89.3107380000000006
21
-63.4310489999999945
0
LINE
8
BLACK
6
CONTINUOUS
10
89.3107380000000006
20
-63.4310489999999945
11
89.293178999999995
21
-63.4827759999999941
0
LINE
8
BLACK
6
CONTINUOUS
10
89.293178999999995
20
-63.4827759999999941
11
89.1231789999999933
21
-63.7772239999999968
0
LINE
8
BLACK
6
CONTINUOUS
10
89.1231789999999933
20
-63.7772239999999968
11
89.0871619999999922
21
-63.8182939999999945
0
LINE
8
BLACK
6
CONTINUOUS
10
89.0871619999999922
20
-63.8182939999999945
11
89.0381699999999938
21
-63.8424539999999965
0
LINE
8
BLACK
6
CONTINUOUS
10
89.0381699999999938
20
-63.8424539999999965
11
88.9836619999999954
21
-63.8460269999999994
0
LINE
8
BLACK
6
CONTINUOUS
10
88.9836619999999954
20
-63.8460269999999994
11
88.9319359999999932
21
-63.8284679999999938
0
LINE
8
BLACK
6
CONTINUOUS
10
88.9319359999999932
20
-63.8284679999999938
11
88.6894479999999987
21
-63.6884680000000003
0
LINE
8
BLACK
6
CONTINUOUS
10
88.6894479999999987
20
-63.6884680000000003
11
88.6483789999999914
21
-63.6524509999999992
0
LINE
8
BLACK
6
CONTINUOUS
10
88.6483789999999914
20
-63.6524509999999992
11
88.6242189999999965
21
-63.6034589999999938
0
LINE
8
BLACK
6
CONTINUOUS
10
88.6242189999999965
20
-63.6034589999999938
11
88.6206459999999936
21
-63.5489509999999953
0
LINE
8
BLACK
6
CONTINUOUS
10
88.6206459999999936
20
-63.5489509999999953
11
88.6382049999999992
21
-63.4972239999999957
0
LINE
8
BLACK
6
CONTINUOUS
10
88.6382049999999992
20
-63.4972239999999957
11
88.808205000000001
21
-63.2027760000000001
0
LINE
8
BLACK
6
CONTINUOUS
10
88.808205000000001
20
-63.2027760000000001
11
88.844222000000002
21
-63.1617059999999952
0
LINE
8
BLACK
6
CONTINUOUS
10
88.844222000000002
20
-63.1617059999999952
11
88.8932140000000004
21
-63.1375460000000004
0
LINE
8
BLACK
6
CONTINUOUS
10
88.8932140000000004
20
-63.1375460000000004
11
88.9477219999999988
21
-63.1339729999999975
0
LINE
8
BLACK
6
CONTINUOUS
10
88.9477219999999988
20
-63.1339729999999975
11
88.999448000000001
21
-63.151531999999996
0
LINE
8
BLACK
6
CONTINUOUS
10
88.1680640000000011
20
-62.6715319999999991
11
88.4105519999999956
21
-62.8115319999999997
0
LINE
8
BLACK
6
CONTINUOUS
10
88.4105519999999956
20
-62.8115319999999997
11
88.4516210000000029
21
-62.8475489999999937
0
LINE
8
BLACK
6
CONTINUOUS
10
88.4516210000000029
20
-62.8475489999999937
11
88.4757809999999978
21
-62.8965409999999991
0
LINE
8
BLACK
6
CONTINUOUS
10
88.4757809999999978
20
-62.8965409999999991
11
88.4793540000000007
21
-62.9510489999999976
0
LINE
8
BLACK
6
CONTINUOUS
10
88.4793540000000007
20
-62.9510489999999976
11
88.4617949999999951
21
-63.0027759999999972
0
LINE
8
BLACK
6
CONTINUOUS
10
88.4617949999999951
20
-63.0027759999999972
11
88.2917949999999934
21
-63.2972239999999999
0
LINE
8
BLACK
6
CONTINUOUS
10
88.2917949999999934
20
-63.2972239999999999
11
88.2557779999999923
21
-63.3382939999999977
0
LINE
8
BLACK
6
CONTINUOUS
10
88.2557779999999923
20
-63.3382939999999977
11
88.2067859999999939
21
-63.3624539999999996
0
LINE
8
BLACK
6
CONTINUOUS
10
88.2067859999999939
20
-63.3624539999999996
11
88.1522779999999955
21
-63.3660269999999954
0
LINE
8
BLACK
6
CONTINUOUS
10
88.1522779999999955
20
-63.3660269999999954
11
88.1005519999999933
21
-63.3484679999999969
0
LINE
8
BLACK
6
CONTINUOUS
10
88.1005519999999933
20
-63.3484679999999969
11
87.8580639999999988
21
-63.2084679999999963
0
LINE
8
BLACK
6
CONTINUOUS
10
87.8580639999999988
20
-63.2084679999999963
11
87.8169949999999915
21
-63.1724509999999952
0
LINE
8
BLACK
6
CONTINUOUS
10
87.8169949999999915
20
-63.1724509999999952
11
87.7928349999999966
21
-63.1234589999999969
0
LINE
8
BLACK
6
CONTINUOUS
10
87.7928349999999966
20
-63.1234589999999969
11
87.7892619999999937
21
-63.0689509999999984
0
LINE
8
BLACK
6
CONTINUOUS
10
87.7892619999999937
20
-63.0689509999999984
11
87.8068209999999993
21
-63.0172239999999988
0
LINE
8
BLACK
6
CONTINUOUS
10
87.8068209999999993
20
-63.0172239999999988
11
87.976821000000001
21
-62.7227759999999961
0
LINE
8
BLACK
6
CONTINUOUS
10
87.976821000000001
20
-62.7227759999999961
11
88.0128380000000021
21
-62.6817059999999984
0
LINE
8
BLACK
6
CONTINUOUS
10
88.0128380000000021
20
-62.6817059999999984
11
88.0618300000000005
21
-62.6575459999999964
0
LINE
8
BLACK
6
CONTINUOUS
10
88.0618300000000005
20
-62.6575459999999964
11
88.1163379999999989
21
-62.6539730000000006
0
LINE
8
BLACK
6
CONTINUOUS
10
88.1163379999999989
20
-62.6539730000000006
11
88.1680640000000011
21
-62.6715319999999991
0
LINE
8
BLACK
6
CONTINUOUS
10
88.5866619999999898
20
-61.3402759999999958
11
88.6304590000000019
21
-61.3695409999999981
0
LINE
8
BLACK
6
CONTINUOUS
10
88.6304590000000019
20
-61.3695409999999981
11
88.6597239999999971
21
-61.413337999999996
0
LINE
8
BLACK
6
CONTINUOUS
10
88.6597239999999971
20
-61.413337999999996
11
88.6700000000000017
21
-61.4649999999999963
0
LINE
8
BLACK
6
CONTINUOUS
10
88.6700000000000017
20
-61.4649999999999963
11
88.6700000000000017
21
-61.8349999999999937
0
LINE
8
BLACK
6
CONTINUOUS
10
88.6700000000000017
20
-61.8349999999999937
11
88.6597239999999971
21
-61.8866619999999941
0
LINE
8
BLACK
6
CONTINUOUS
10
88.6597239999999971
20
-61.8866619999999941
11
88.6304590000000019
21
-61.930458999999999
0
LINE
8
BLACK
6
CONTINUOUS
10
88.6304590000000019
20
-61.930458999999999
11
88.5866619999999898
21
-61.9597239999999942
0
LINE
8
BLACK
6
CONTINUOUS
10
88.5866619999999898
20
-61.9597239999999942
11
88.5349999999999966
21
-61.9699999999999989
0
LINE
8
BLACK
6
CONTINUOUS
10
88.5349999999999966
20
-61.9699999999999989
11
88.2650000000000006
21
-61.9699999999999989
0
LINE
8
BLACK
6
CONTINUOUS
10
88.2650000000000006
20
-61.9699999999999989
11
88.2133379999999931
21
-61.9597239999999942
0
LINE
8
BLACK
6
CONTINUOUS
10
88.2133379999999931
20
-61.9597239999999942
11
88.1695409999999953
21
-61.930458999999999
0
LINE
8
BLACK
6
CONTINUOUS
10
88.1695409999999953
20
-61.930458999999999
11
88.1402760000000001
21
-61.8866619999999941
0
LINE
8
BLACK
6
CONTINUOUS
10
88.1402760000000001
20
-61.8866619999999941
11
88.1299999999999955
21
-61.8349999999999937
0
LINE
8
BLACK
6
CONTINUOUS
10
88.1299999999999955
20
-61.8349999999999937
11
88.1299999999999955
21
-61.4649999999999963
0
LINE
8
BLACK
6
CONTINUOUS
10
88.1299999999999955
20
-61.4649999999999963
11
88.1402760000000001
21
-61.413337999999996
0
LINE
8
BLACK
6
CONTINUOUS
10
88.1402760000000001
20
-61.413337999999996
11
88.1695409999999953
21
-61.3695409999999981
0
LINE
8
BLACK
6
CONTINUOUS
10
88.1695409999999953
20
-61.3695409999999981
11
88.2133379999999931
21
-61.3402759999999958
0
LINE
8
BLACK
6
CONTINUOUS
10
88.2133379999999931
20
-61.3402759999999958
11
88.2650000000000006
21
-61.3299999999999983
0
LINE
8
BLACK
6
CONTINUOUS
10
88.2650000000000006
20
-61.3299999999999983
11
88.5349999999999966
21
-61.3299999999999983
0
LINE
8
BLACK
6
CONTINUOUS
10
88.5349999999999966
20
-61.3299999999999983
11
88.5866619999999898
21
-61.3402759999999958
0
LINE
8
BLACK
6
CONTINUOUS
10
89.606662
20
-61.3402759999999958
11
89.6504589999999979
21
-61.3695409999999981
0
LINE
8
BLACK
6
CONTINUOUS
10
89.6504589999999979
20
-61.3695409999999981
11
89.6797239999999931
21
-61.413337999999996
0
LINE
8
BLACK
6
CONTINUOUS
10
89.6797239999999931
20
-61.413337999999996
11
89.6899999999999977
21
-61.4649999999999963
0
LINE
8
BLACK
6
CONTINUOUS
10
89.6899999999999977
20
-61.4649999999999963
11
89.6899999999999977
21
-61.8349999999999937
0
LINE
8
BLACK
6
CONTINUOUS
10
89.6899999999999977
20
-61.8349999999999937
11
89.6797239999999931
21
-61.8866619999999941
0
LINE
8
BLACK
6
CONTINUOUS
10
89.6797239999999931
20
-61.8866619999999941
11
89.6504589999999979
21
-61.930458999999999
0
LINE
8
BLACK
6
CONTINUOUS
10
89.6504589999999979
20
-61.930458999999999
11
89.606662
21
-61.9597239999999942
0
LINE
8
BLACK
6
CONTINUOUS
10
89.606662
20
-61.9597239999999942
11
89.5549999999999926
21
-61.9699999999999989
0
LINE
8
BLACK
6
CONTINUOUS
10
89.5549999999999926
20
-61.9699999999999989
11
89.2849999999999966
21
-61.9699999999999989
0
LINE
8
BLACK
6
CONTINUOUS
10
89.2849999999999966
20
-61.9699999999999989
11
89.2333379999999892
21
-61.9597239999999942
0
LINE
8
BLACK
6
CONTINUOUS
10
89.2333379999999892
20
-61.9597239999999942
11
89.1895409999999913
21
-61.930458999999999
0
LINE
8
BLACK
6
CONTINUOUS
10
89.1895409999999913
20
-61.930458999999999
11
89.1602759999999961
21
-61.8866619999999941
0
LINE
8
BLACK
6
CONTINUOUS
10
89.1602759999999961
20
-61.8866619999999941
11
89.1499999999999915
21
-61.8349999999999937
0
LINE
8
BLACK
6
CONTINUOUS
10
89.1499999999999915
20
-61.8349999999999937
11
89.1499999999999915
21
-61.4649999999999963
0
LINE
8
BLACK
6
CONTINUOUS
10
89.1499999999999915
20
-61.4649999999999963
11
89.1602759999999961
21
-61.413337999999996
0
LINE
8
BLACK
6
CONTINUOUS
10
89.1602759999999961
20
-61.413337999999996
11
89.1895409999999913
21
-61.3695409999999981
0
LINE
8
BLACK
6
CONTINUOUS
10
89.1895409999999913
20
-61.3695409999999981
11
89.2333379999999892
21
-61.3402759999999958
0
LINE
8
BLACK
6
CONTINUOUS
10
89.2333379999999892
20
-61.3402759999999958
11
89.2849999999999966
21
-61.3299999999999983
0
LINE
8
BLACK
6
CONTINUOUS
10
89.2849999999999966
20
-61.3299999999999983
11
89.5549999999999926
21
-61.3299999999999983
0
LINE
8
BLACK
6
CONTINUOUS
10
89.5549999999999926
20
-61.3299999999999983
11
89.606662
21
-61.3402759999999958
0
LINE
8
BLACK
6
CONTINUOUS
10
70.7135760000000033
20
-61.2006569999999996
11
70.7589949999999988
21
-61.2310049999999961
0
LINE
8
BLACK
6
CONTINUOUS
10
70.7589949999999988
20
-61.2310049999999961
11
70.7893430000000023
21
-61.2764239999999987
0
LINE
8
BLACK
6
CONTINUOUS
10
70.7893430000000023
20
-61.2764239999999987
11
70.7999999999999972
21
-61.3299999999999983
0
LINE
8
BLACK
6
CONTINUOUS
10
70.7999999999999972
20
-61.3299999999999983
11
70.7999999999999972
21
-61.6699999999999946
0
LINE
8
BLACK
6
CONTINUOUS
10
70.7999999999999972
20
-61.6699999999999946
11
70.7893430000000023
21
-61.7235759999999942
0
LINE
8
BLACK
6
CONTINUOUS
10
70.7893430000000023
20
-61.7235759999999942
11
70.7589949999999988
21
-61.7689949999999968
0
LINE
8
BLACK
6
CONTINUOUS
10
70.7589949999999988
20
-61.7689949999999968
11
70.7135760000000033
21
-61.7993430000000004
0
LINE
8
BLACK
6
CONTINUOUS
10
70.7135760000000033
20
-61.7993430000000004
11
70.6599999999999966
21
-61.8099999999999952
0
LINE
8
BLACK
6
CONTINUOUS
10
70.6599999999999966
20
-61.8099999999999952
11
70.3799999999999955
21
-61.8099999999999952
0
LINE
8
BLACK
6
CONTINUOUS
10
70.3799999999999955
20
-61.8099999999999952
11
70.3264240000000029
21
-61.7993430000000004
0
LINE
8
BLACK
6
CONTINUOUS
10
70.3264240000000029
20
-61.7993430000000004
11
70.2810049999999933
21
-61.7689949999999968
0
LINE
8
BLACK
6
CONTINUOUS
10
70.2810049999999933
20
-61.7689949999999968
11
70.2506570000000039
21
-61.7235759999999942
0
LINE
8
BLACK
6
CONTINUOUS
10
70.2506570000000039
20
-61.7235759999999942
11
70.2399999999999949
21
-61.6699999999999946
0
LINE
8
BLACK
6
CONTINUOUS
10
70.2399999999999949
20
-61.6699999999999946
11
70.2399999999999949
21
-61.3299999999999983
0
LINE
8
BLACK
6
CONTINUOUS
10
70.2399999999999949
20
-61.3299999999999983
11
70.2506570000000039
21
-61.2764239999999987
0
LINE
8
BLACK
6
CONTINUOUS
10
70.2506570000000039
20
-61.2764239999999987
11
70.2810049999999933
21
-61.2310049999999961
0
LINE
8
BLACK
6
CONTINUOUS
10
70.2810049999999933
20
-61.2310049999999961
11
70.3264240000000029
21
-61.2006569999999996
0
LINE
8
BLACK
6
CONTINUOUS
10
70.3264240000000029
20
-61.2006569999999996
11
70.3799999999999955
21
-61.1899999999999977
0
LINE
8
BLACK
6
CONTINUOUS
10
70.3799999999999955
20
-61.1899999999999977
11
70.6599999999999966
21
-61.1899999999999977
0
LINE
8
BLACK
6
CONTINUOUS
10
70.6599999999999966
20
-61.1899999999999977
11
70.7135760000000033
21
-61.2006569999999996
0
LINE
8
BLACK
6
CONTINUOUS
10
71.6735759999999971
20
-61.2006569999999996
11
71.7189949999999925
21
-61.2310049999999961
0
LINE
8
BLACK
6
CONTINUOUS
10
71.7189949999999925
20
-61.2310049999999961
11
71.7493429999999961
21
-61.2764239999999987
0
LINE
8
BLACK
6
CONTINUOUS
10
71.7493429999999961
20
-61.2764239999999987
11
71.7599999999999909
21
-61.3299999999999983
0
LINE
8
BLACK
6
CONTINUOUS
10
71.7599999999999909
20
-61.3299999999999983
11
71.7599999999999909
21
-61.6699999999999946
0
LINE
8
BLACK
6
CONTINUOUS
10
71.7599999999999909
20
-61.6699999999999946
11
71.7493429999999961
21
-61.7235759999999942
0
LINE
8
BLACK
6
CONTINUOUS
10
71.7493429999999961
20
-61.7235759999999942
11
71.7189949999999925
21
-61.7689949999999968
0
LINE
8
BLACK
6
CONTINUOUS
10
71.7189949999999925
20
-61.7689949999999968
11
71.6735759999999971
21
-61.7993430000000004
0
LINE
8
BLACK
6
CONTINUOUS
10
71.6735759999999971
20
-61.7993430000000004
11
71.6199999999999903
21
-61.8099999999999952
0
LINE
8
BLACK
6
CONTINUOUS
10
71.6199999999999903
20
-61.8099999999999952
11
71.3400000000000034
21
-61.8099999999999952
0
LINE
8
BLACK
6
CONTINUOUS
10
71.3400000000000034
20
-61.8099999999999952
11
71.2864239999999967
21
-61.7993430000000004
0
LINE
8
BLACK
6
CONTINUOUS
10
71.2864239999999967
20
-61.7993430000000004
11
71.2410050000000012
21
-61.7689949999999968
0
LINE
8
BLACK
6
CONTINUOUS
10
71.2410050000000012
20
-61.7689949999999968
11
71.2106569999999977
21
-61.7235759999999942
0
LINE
8
BLACK
6
CONTINUOUS
10
71.2106569999999977
20
-61.7235759999999942
11
71.2000000000000028
21
-61.6699999999999946
0
LINE
8
BLACK
6
CONTINUOUS
10
71.2000000000000028
20
-61.6699999999999946
11
71.2000000000000028
21
-61.3299999999999983
0
LINE
8
BLACK
6
CONTINUOUS
10
71.2000000000000028
20
-61.3299999999999983
11
71.2106569999999977
21
-61.2764239999999987
0
LINE
8
BLACK
6
CONTINUOUS
10
71.2106569999999977
20
-61.2764239999999987
11
71.2410050000000012
21
-61.2310049999999961
0
LINE
8
BLACK
6
CONTINUOUS
10
71.2410050000000012
20
-61.2310049999999961
11
71.2864239999999967
21
-61.2006569999999996
0
LINE
8
BLACK
6
CONTINUOUS
10
71.2864239999999967
20
-61.2006569999999996
11
71.3400000000000034
21
-61.1899999999999977
0
LINE
8
BLACK
6
CONTINUOUS
10
71.3400000000000034
20
-61.1899999999999977
11
71.6199999999999903
21
-61.1899999999999977
0
LINE
8
BLACK
6
CONTINUOUS
10
71.6199999999999903
20
-61.1899999999999977
11
71.6735759999999971
21
-61.2006569999999996
0
LINE
8
BLACK
6
CONTINUOUS
10
70.7999999999999972
20
-60.6999999999999957
11
70.2999999999999972
21
-60.6999999999999957
0
LINE
8
BLACK
6
CONTINUOUS
10
70.2999999999999972
20
-60.6999999999999957
11
70.2999999999999972
21
-60.1999999999999957
0
LINE
8
BLACK
6
CONTINUOUS
10
70.2999999999999972
20
-60.1999999999999957
11
70.7999999999999972
21
-60.1999999999999957
0
LINE
8
BLACK
6
CONTINUOUS
10
70.7999999999999972
20
-60.1999999999999957
11
70.7999999999999972
21
-60.6999999999999957
0
LINE
8
BLACK
6
CONTINUOUS
10
71.7000000000000028
20
-60.6999999999999957
11
71.2000000000000028
21
-60.6999999999999957
0
LINE
8
BLACK
6
CONTINUOUS
10
71.2000000000000028
20
-60.6999999999999957
11
71.2000000000000028
21
-60.1999999999999957
0
LINE
8
BLACK
6
CONTINUOUS
10
71.2000000000000028
20
-60.1999999999999957
11
71.7000000000000028
21
-60.1999999999999957
0
LINE
8
BLACK
6
CONTINUOUS
10
71.7000000000000028
20
-60.1999999999999957
11
71.7000000000000028
21
-60.6999999999999957
0
LINE
8
BLACK
6
CONTINUOUS
10
88.7999999999999972
20
-60.6999999999999957
11
88.2999999999999972
21
-60.6999999999999957
0
LINE
8
BLACK
6
CONTINUOUS
10
88.2999999999999972
20
-60.6999999999999957
11
88.2999999999999972
21
-60.1999999999999957
0
LINE
8
BLACK
6
CONTINUOUS
10
88.2999999999999972
20
-60.1999999999999957
11
88.7999999999999972
21
-60.1999999999999957
0
LINE
8
BLACK
6
CONTINUOUS
10
88.7999999999999972
20
-60.1999999999999957
11
88.7999999999999972
21
-60.6999999999999957
0
LINE
8
BLACK
6
CONTINUOUS
10
89.7000000000000028
20
-60.6999999999999957
11
89.2000000000000028
21
-60.6999999999999957
0
LINE
8
BLACK
6
CONTINUOUS
10
89.2000000000000028
20
-60.6999999999999957
11
89.2000000000000028
21
-60.1999999999999957
0
LINE
8
BLACK
6
CONTINUOUS
10
89.2000000000000028
20
-60.1999999999999957
11
89.7000000000000028
21
-60.1999999999999957
0
LINE
8
BLACK
6
CONTINUOUS
10
89.7000000000000028
20
-60.1999999999999957
11
89.7000000000000028
21
-60.6999999999999957
0
LINE
8
BLACK
6
CONTINUOUS
10
70.7999999999999972
20
-59.7999999999999972
11
70.2999999999999972
21
-59.7999999999999972
0
LINE
8
BLACK
6
CONTINUOUS
10
70.2999999999999972
20
-59.7999999999999972
11
70.2999999999999972
21
-59.2999999999999972
0
LINE
8
BLACK
6
CONTINUOUS
10
70.2999999999999972
20
-59.2999999999999972
11
70.7999999999999972
21
-59.2999999999999972
0
LINE
8
BLACK
6
CONTINUOUS
10
70.7999999999999972
20
-59.2999999999999972
11
70.7999999999999972
21
-59.7999999999999972
0
LINE
8
BLACK
6
CONTINUOUS
10
71.7000000000000028
20
-59.7999999999999972
11
71.2000000000000028
21
-59.7999999999999972
0
LINE
8
BLACK
6
CONTINUOUS
10
71.2000000000000028
20
-59.7999999999999972
11
71.2000000000000028
21
-59.2999999999999972
0
LINE
8
BLACK
6
CONTINUOUS
10
71.2000000000000028
20
-59.2999999999999972
11
71.7000000000000028
21
-59.2999999999999972
0
LINE
8
BLACK
6
CONTINUOUS
10
71.7000000000000028
20
-59.2999999999999972
11
71.7000000000000028
21
-59.7999999999999972
0
LINE
8
BLACK
6
CONTINUOUS
10
88.7999999999999972
20
-59.7999999999999972
11
88.2999999999999972
21
-59.7999999999999972
0
LINE
8
BLACK
6
CONTINUOUS
10
88.2999999999999972
20
-59.7999999999999972
11
88.2999999999999972
21
-59.2999999999999972
0
LINE
8
BLACK
6
CONTINUOUS
10
88.2999999999999972
20
-59.2999999999999972
11
88.7999999999999972
21
-59.2999999999999972
0
LINE
8
BLACK
6
CONTINUOUS
10
88.7999999999999972
20
-59.2999999999999972
11
88.7999999999999972
21
-59.7999999999999972
0
LINE
8
BLACK
6
CONTINUOUS
10
89.7000000000000028
20
-59.7999999999999972
11
89.2000000000000028
21
-59.7999999999999972
0
LINE
8
BLACK
6
CONTINUOUS
10
89.2000000000000028
20
-59.7999999999999972
11
89.2000000000000028
21
-59.2999999999999972
0
LINE
8
BLACK
6
CONTINUOUS
10
89.2000000000000028
20
-59.2999999999999972
11
89.7000000000000028
21
-59.2999999999999972
0
LINE
8
BLACK
6
CONTINUOUS
10
89.7000000000000028
20
-59.2999999999999972
11
89.7000000000000028
21
-59.7999999999999972
0
LINE
8
BLACK
6
CONTINUOUS
10
88.8635759999999948
20
-58.2306570000000008
11
88.9089949999999902
21
-58.2610049999999973
0
LINE
8
BLACK
6
CONTINUOUS
10
88.9089949999999902
20
-58.2610049999999973
11
88.9393429999999938
21
-58.3064239999999998
0
LINE
8
BLACK
6
CONTINUOUS
10
88.9393429999999938
20
-58.3064239999999998
11
88.9500000000000028
21
-58.3599999999999994
0
LINE
8
BLACK
6
CONTINUOUS
10
88.9500000000000028
20
-58.3599999999999994
11
88.9500000000000028
21
-58.6999999999999957
0
LINE
8
BLACK
6
CONTINUOUS
10
88.9500000000000028
20
-58.6999999999999957
11
88.9393429999999938
21
-58.7535759999999954
0
LINE
8
BLACK
6
CONTINUOUS
10
88.9393429999999938
20
-58.7535759999999954
11
88.9089949999999902
21
-58.7989949999999979
0
LINE
8
BLACK
6
CONTINUOUS
10
88.9089949999999902
20
-58.7989949999999979
11
88.8635759999999948
21
-58.8293429999999944
0
LINE
8
BLACK
6
CONTINUOUS
10
88.8635759999999948
20
-58.8293429999999944
11
88.8100000000000023
21
-58.8399999999999963
0
LINE
8
BLACK
6
CONTINUOUS
10
88.8100000000000023
20
-58.8399999999999963
11
88.5300000000000011
21
-58.8399999999999963
0
LINE
8
BLACK
6
CONTINUOUS
10
88.5300000000000011
20
-58.8399999999999963
11
88.4764239999999944
21
-58.8293429999999944
0
LINE
8
BLACK
6
CONTINUOUS
10
88.4764239999999944
20
-58.8293429999999944
11
88.431004999999999
21
-58.7989949999999979
0
LINE
8
BLACK
6
CONTINUOUS
10
88.431004999999999
20
-58.7989949999999979
11
88.4006569999999954
21
-58.7535759999999954
0
LINE
8
BLACK
6
CONTINUOUS
10
88.4006569999999954
20
-58.7535759999999954
11
88.3900000000000006
21
-58.6999999999999957
0
LINE
8
BLACK
6
CONTINUOUS
10
88.3900000000000006
20
-58.6999999999999957
11
88.3900000000000006
21
-58.3599999999999994
0
LINE
8
BLACK
6
CONTINUOUS
10
88.3900000000000006
20
-58.3599999999999994
11
88.4006569999999954
21
-58.3064239999999998
0
LINE
8
BLACK
6
CONTINUOUS
10
88.4006569999999954
20
-58.3064239999999998
11
88.431004999999999
21
-58.2610049999999973
0
LINE
8
BLACK
6
CONTINUOUS
10
88.431004999999999
20
-58.2610049999999973
11
88.4764239999999944
21
-58.2306570000000008
0
LINE
8
BLACK
6
CONTINUOUS
10
88.4764239999999944
20
-58.2306570000000008
11
88.5300000000000011
21
-58.2199999999999989
0
LINE
8
BLACK
6
CONTINUOUS
10
88.5300000000000011
20
-58.2199999999999989
11
88.8100000000000023
21
-58.2199999999999989
0
LINE
8
BLACK
6
CONTINUOUS
10
88.8100000000000023
20
-58.2199999999999989
11
88.8635759999999948
21
-58.2306570000000008
0
LINE
8
BLACK
6
CONTINUOUS
10
89.8235760000000028
20
-58.2306570000000008
11
89.8689949999999982
21
-58.2610049999999973
0
LINE
8
BLACK
6
CONTINUOUS
10
89.8689949999999982
20
-58.2610049999999973
11
89.8993430000000018
21
-58.3064239999999998
0
LINE
8
BLACK
6
CONTINUOUS
10
89.8993430000000018
20
-58.3064239999999998
11
89.9099999999999966
21
-58.3599999999999994
0
LINE
8
BLACK
6
CONTINUOUS
10
89.9099999999999966
20
-58.3599999999999994
11
89.9099999999999966
21
-58.6999999999999957
0
LINE
8
BLACK
6
CONTINUOUS
10
89.9099999999999966
20
-58.6999999999999957
11
89.8993430000000018
21
-58.7535759999999954
0
LINE
8
BLACK
6
CONTINUOUS
10
89.8993430000000018
20
-58.7535759999999954
11
89.8689949999999982
21
-58.7989949999999979
0
LINE
8
BLACK
6
CONTINUOUS
10
89.8689949999999982
20
-58.7989949999999979
11
89.8235760000000028
21
-58.8293429999999944
0
LINE
8
BLACK
6
CONTINUOUS
10
89.8235760000000028
20
-58.8293429999999944
11
89.769999999999996
21
-58.8399999999999963
0
LINE
8
BLACK
6
CONTINUOUS
10
89.769999999999996
20
-58.8399999999999963
11
89.4899999999999949
21
-58.8399999999999963
0
LINE
8
BLACK
6
CONTINUOUS
10
89.4899999999999949
20
-58.8399999999999963
11
89.4364240000000024
21
-58.8293429999999944
0
LINE
8
BLACK
6
CONTINUOUS
10
89.4364240000000024
20
-58.8293429999999944
11
89.3910049999999927
21
-58.7989949999999979
0
LINE
8
BLACK
6
CONTINUOUS
10
89.3910049999999927
20
-58.7989949999999979
11
89.3606569999999891
21
-58.7535759999999954
0
LINE
8
BLACK
6
CONTINUOUS
10
89.3606569999999891
20
-58.7535759999999954
11
89.3499999999999943
21
-58.6999999999999957
0
LINE
8
BLACK
6
CONTINUOUS
10
89.3499999999999943
20
-58.6999999999999957
11
89.3499999999999943
21
-58.3599999999999994
0
LINE
8
BLACK
6
CONTINUOUS
10
89.3499999999999943
20
-58.3599999999999994
11
89.3606569999999891
21
-58.3064239999999998
0
LINE
8
BLACK
6
CONTINUOUS
10
89.3606569999999891
20
-58.3064239999999998
11
89.3910049999999927
21
-58.2610049999999973
0
LINE
8
BLACK
6
CONTINUOUS
10
89.3910049999999927
20
-58.2610049999999973
11
89.4364240000000024
21
-58.2306570000000008
0
LINE
8
BLACK
6
CONTINUOUS
10
89.4364240000000024
20
-58.2306570000000008
11
89.4899999999999949
21
-58.2199999999999989
0
LINE
8
BLACK
6
CONTINUOUS
10
89.4899999999999949
20
-58.2199999999999989
11
89.769999999999996
21
-58.2199999999999989
0
LINE
8
BLACK
6
CONTINUOUS
10
89.769999999999996
20
-58.2199999999999989
11
89.8235760000000028
21
-58.2306570000000008
0
LINE
8
BLACK
6
CONTINUOUS
10
88.9364179999999891
20
-57.3947579999999959
11
88.9566939999999988
21
-57.4083059999999961
0
LINE
8
BLACK
6
CONTINUOUS
10
88.9566939999999988
20
-57.4083059999999961
11
88.9702419999999989
21
-57.4285819999999987
0
LINE
8
BLACK
6
CONTINUOUS
10
88.9702419999999989
20
-57.4285819999999987
11
88.9749999999999943
21
-57.4525000000000006
0
LINE
8
BLACK
6
CONTINUOUS
10
88.9749999999999943
20
-57.4525000000000006
11
88.9749999999999943
21
-57.6875
0
LINE
8
BLACK
6
CONTINUOUS
10
88.9749999999999943
20
-57.6875
11
88.9702419999999989
21
-57.7114179999999948
0
LINE
8
BLACK
6
CONTINUOUS
10
88.9702419999999989
20
-57.7114179999999948
11
88.9566939999999988
21
-57.7316939999999974
0
LINE
8
BLACK
6
CONTINUOUS
10
88.9566939999999988
20
-57.7316939999999974
11
88.9364179999999891
21
-57.7452419999999975
0
LINE
8
BLACK
6
CONTINUOUS
10
88.9364179999999891
20
-57.7452419999999975
11
88.9124999999999943
21
-57.75
0
LINE
8
BLACK
6
CONTINUOUS
10
88.9124999999999943
20
-57.75
11
88.7874999999999943
21
-57.75
0
LINE
8
BLACK
6
CONTINUOUS
10
88.7874999999999943
20
-57.75
11
88.7635819999999995
21
-57.7452419999999975
0
LINE
8
BLACK
6
CONTINUOUS
10
88.7635819999999995
20
-57.7452419999999975
11
88.7433059999999898
21
-57.7316939999999974
0
LINE
8
BLACK
6
CONTINUOUS
10
88.7433059999999898
20
-57.7316939999999974
11
88.7297579999999897
21
-57.7114179999999948
0
LINE
8
BLACK
6
CONTINUOUS
10
88.7297579999999897
20
-57.7114179999999948
11
88.7249999999999943
21
-57.6875
0
LINE
8
BLACK
6
CONTINUOUS
10
88.7249999999999943
20
-57.6875
11
88.7249999999999943
21
-57.4525000000000006
0
LINE
8
BLACK
6
CONTINUOUS
10
88.7249999999999943
20
-57.4525000000000006
11
88.7297579999999897
21
-57.4285819999999987
0
LINE
8
BLACK
6
CONTINUOUS
10
88.7297579999999897
20
-57.4285819999999987
11
88.7433059999999898
21
-57.4083059999999961
0
LINE
8
BLACK
6
CONTINUOUS
10
88.7433059999999898
20
-57.4083059999999961
11
88.7635819999999995
21
-57.3947579999999959
0
LINE
8
BLACK
6
CONTINUOUS
10
88.7635819999999995
20
-57.3947579999999959
11
88.7874999999999943
21
-57.3900000000000006
0
LINE
8
BLACK
6
CONTINUOUS
10
88.7874999999999943
20
-57.3900000000000006
11
88.9124999999999943
21
-57.3900000000000006
0
LINE
8
BLACK
6
CONTINUOUS
10
88.9124999999999943
20
-57.3900000000000006
11
88.9364179999999891
21
-57.3947579999999959
0
LINE
8
BLACK
6
CONTINUOUS
10
71.9494480000000038
20
-56.7015320000000003
11
72.1919359999999983
21
-56.8415320000000008
0
LINE
8
BLACK
6
CONTINUOUS
10
72.1919359999999983
20
-56.8415320000000008
11
72.2330049999999915
21
-56.8775489999999948
0
LINE
8
BLACK
6
CONTINUOUS
10
72.2330049999999915
20
-56.8775489999999948
11
72.2571650000000005
21
-56.9265410000000003
0
LINE
8
BLACK
6
CONTINUOUS
10
72.2571650000000005
20
-56.9265410000000003
11
72.2607380000000035
21
-56.9810489999999987
0
LINE
8
BLACK
6
CONTINUOUS
10
72.2607380000000035
20
-56.9810489999999987
11
72.2431789999999978
21
-57.0327759999999984
0
LINE
8
BLACK
6
CONTINUOUS
10
72.2431789999999978
20
-57.0327759999999984
11
72.0731789999999961
21
-57.327223999999994
0
LINE
8
BLACK
6
CONTINUOUS
10
72.0731789999999961
20
-57.327223999999994
11
72.037161999999995
21
-57.3682939999999988
0
LINE
8
BLACK
6
CONTINUOUS
10
72.037161999999995
20
-57.3682939999999988
11
71.9881699999999967
21
-57.3924540000000007
0
LINE
8
BLACK
6
CONTINUOUS
10
71.9881699999999967
20
-57.3924540000000007
11
71.9336619999999982
21
-57.3960269999999966
0
LINE
8
BLACK
6
CONTINUOUS
10
71.9336619999999982
20
-57.3960269999999966
11
71.8819359999999961
21
-57.378467999999998
0
LINE
8
BLACK
6
CONTINUOUS
10
71.8819359999999961
20
-57.378467999999998
11
71.6394480000000016
21
-57.2384679999999975
0
LINE
8
BLACK
6
CONTINUOUS
10
71.6394480000000016
20
-57.2384679999999975
11
71.5983789999999942
21
-57.2024509999999964
0
LINE
8
BLACK
6
CONTINUOUS
10
71.5983789999999942
20
-57.2024509999999964
11
71.5742189999999994
21
-57.153458999999998
0
LINE
8
BLACK
6
CONTINUOUS
10
71.5742189999999994
20
-57.153458999999998
11
71.5706459999999964
21
-57.0989509999999996
0
LINE
8
BLACK
6
CONTINUOUS
10
71.5706459999999964
20
-57.0989509999999996
11
71.5882050000000021
21
-57.0472239999999999
0
LINE
8
BLACK
6
CONTINUOUS
10
71.5882050000000021
20
-57.0472239999999999
11
71.7582050000000038
21
-56.7527759999999972
0
LINE
8
BLACK
6
CONTINUOUS
10
71.7582050000000038
20
-56.7527759999999972
11
71.7942219999999907
21
-56.7117059999999995
0
LINE
8
BLACK
6
CONTINUOUS
10
71.7942219999999907
20
-56.7117059999999995
11
71.8432140000000032
21
-56.6875459999999975
0
LINE
8
BLACK
6
CONTINUOUS
10
71.8432140000000032
20
-56.6875459999999975
11
71.8977220000000017
21
-56.6839729999999946
0
LINE
8
BLACK
6
CONTINUOUS
10
71.8977220000000017
20
-56.6839729999999946
11
71.9494480000000038
21
-56.7015320000000003
0
LINE
8
BLACK
6
CONTINUOUS
10
71.1180639999999897
20
-56.2215319999999963
11
71.3605519999999984
21
-56.3615319999999969
0
LINE
8
BLACK
6
CONTINUOUS
10
71.3605519999999984
20
-56.3615319999999969
11
71.4016209999999916
21
-56.3975489999999979
0
LINE
8
BLACK
6
CONTINUOUS
10
71.4016209999999916
20
-56.3975489999999979
11
71.4257810000000006
21
-56.4465409999999963
0
LINE
8
BLACK
6
CONTINUOUS
10
71.4257810000000006
20
-56.4465409999999963
11
71.4293540000000036
21
-56.5010489999999947
0
LINE
8
BLACK
6
CONTINUOUS
10
71.4293540000000036
20
-56.5010489999999947
11
71.4117949999999979
21
-56.5527759999999944
0
LINE
8
BLACK
6
CONTINUOUS
10
71.4117949999999979
20
-56.5527759999999944
11
71.2417949999999962
21
-56.8472239999999971
0
LINE
8
BLACK
6
CONTINUOUS
10
71.2417949999999962
20
-56.8472239999999971
11
71.2057779999999951
21
-56.8882939999999948
0
LINE
8
BLACK
6
CONTINUOUS
10
71.2057779999999951
20
-56.8882939999999948
11
71.1567859999999968
21
-56.9124539999999968
0
LINE
8
BLACK
6
CONTINUOUS
10
71.1567859999999968
20
-56.9124539999999968
11
71.1022779999999983
21
-56.9160269999999997
0
LINE
8
BLACK
6
CONTINUOUS
10
71.1022779999999983
20
-56.9160269999999997
11
71.0505519999999962
21
-56.898467999999994
0
LINE
8
BLACK
6
CONTINUOUS
10
71.0505519999999962
20
-56.898467999999994
11
70.8080640000000017
21
-56.7584680000000006
0
LINE
8
BLACK
6
CONTINUOUS
10
70.8080640000000017
20
-56.7584680000000006
11
70.7669949999999943
21
-56.7224509999999995
0
LINE
8
BLACK
6
CONTINUOUS
10
70.7669949999999943
20
-56.7224509999999995
11
70.7428349999999995
21
-56.673458999999994
0
LINE
8
BLACK
6
CONTINUOUS
10
70.7428349999999995
20
-56.673458999999994
11
70.7392619999999965
21
-56.6189509999999956
0
LINE
8
BLACK
6
CONTINUOUS
10
70.7392619999999965
20
-56.6189509999999956
11
70.7568210000000022
21
-56.567223999999996
0
LINE
8
BLACK
6
CONTINUOUS
10
70.7568210000000022
20
-56.567223999999996
11
70.9268210000000039
21
-56.2727760000000004
0
LINE
8
BLACK
6
CONTINUOUS
10
70.9268210000000039
20
-56.2727760000000004
11
70.9628379999999908
21
-56.2317059999999955
0
LINE
8
BLACK
6
CONTINUOUS
10
70.9628379999999908
20
-56.2317059999999955
11
71.0118300000000033
21
-56.2075460000000007
0
LINE
8
BLACK
6
CONTINUOUS
10
71.0118300000000033
20
-56.2075460000000007
11
71.0663380000000018
21
-56.2039729999999977
0
LINE
8
BLACK
6
CONTINUOUS
10
71.0663380000000018
20
-56.2039729999999977
11
71.1180639999999897
21
-56.2215319999999963
0
LINE
8
BLACK
6
CONTINUOUS
10
88.9364179999999891
20
-56.5547579999999996
11
88.9566939999999988
21
-56.5683059999999998
0
LINE
8
BLACK
6
CONTINUOUS
10
88.9566939999999988
20
-56.5683059999999998
11
88.9702419999999989
21
-56.5885819999999953
0
LINE
8
BLACK
6
CONTINUOUS
10
88.9702419999999989
20
-56.5885819999999953
11
88.9749999999999943
21
-56.6124999999999972
0
LINE
8
BLACK
6
CONTINUOUS
10
88.9749999999999943
20
-56.6124999999999972
11
88.9749999999999943
21
-56.8474999999999966
0
LINE
8
BLACK
6
CONTINUOUS
10
88.9749999999999943
20
-56.8474999999999966
11
88.9702419999999989
21
-56.8714179999999985
0
LINE
8
BLACK
6
CONTINUOUS
10
88.9702419999999989
20
-56.8714179999999985
11
88.9566939999999988
21
-56.891693999999994
0
LINE
8
BLACK
6
CONTINUOUS
10
88.9566939999999988
20
-56.891693999999994
11
88.9364179999999891
21
-56.9052419999999941
0
LINE
8
BLACK
6
CONTINUOUS
10
88.9364179999999891
20
-56.9052419999999941
11
88.9124999999999943
21
-56.9099999999999966
0
LINE
8
BLACK
6
CONTINUOUS
10
88.9124999999999943
20
-56.9099999999999966
11
88.7874999999999943
21
-56.9099999999999966
0
LINE
8
BLACK
6
CONTINUOUS
10
88.7874999999999943
20
-56.9099999999999966
11
88.7635819999999995
21
-56.9052419999999941
0
LINE
8
BLACK
6
CONTINUOUS
10
88.7635819999999995
20
-56.9052419999999941
11
88.7433059999999898
21
-56.891693999999994
0
LINE
8
BLACK
6
CONTINUOUS
10
88.7433059999999898
20
-56.891693999999994
11
88.7297579999999897
21
-56.8714179999999985
0
LINE
8
BLACK
6
CONTINUOUS
10
88.7297579999999897
20
-56.8714179999999985
11
88.7249999999999943
21
-56.8474999999999966
0
LINE
8
BLACK
6
CONTINUOUS
10
88.7249999999999943
20
-56.8474999999999966
11
88.7249999999999943
21
-56.6124999999999972
0
LINE
8
BLACK
6
CONTINUOUS
10
88.7249999999999943
20
-56.6124999999999972
11
88.7297579999999897
21
-56.5885819999999953
0
LINE
8
BLACK
6
CONTINUOUS
10
88.7297579999999897
20
-56.5885819999999953
11
88.7433059999999898
21
-56.5683059999999998
0
LINE
8
BLACK
6
CONTINUOUS
10
88.7433059999999898
20
-56.5683059999999998
11
88.7635819999999995
21
-56.5547579999999996
0
LINE
8
BLACK
6
CONTINUOUS
10
88.7635819999999995
20
-56.5547579999999996
11
88.7874999999999943
21
-56.5499999999999972
0
LINE
8
BLACK
6
CONTINUOUS
10
88.7874999999999943
20
-56.5499999999999972
11
88.9124999999999943
21
-56.5499999999999972
0
LINE
8
BLACK
6
CONTINUOUS
10
88.9124999999999943
20
-56.5499999999999972
11
88.9364179999999891
21
-56.5547579999999996
0
LINE
8
BLACK
6
CONTINUOUS
10
72.711987999999991
20
-56.0232049999999973
11
72.461987999999991
21
-56.4562169999999952
0
LINE
8
BLACK
6
CONTINUOUS
10
72.461987999999991
20
-56.4562169999999952
11
72.0289760000000001
21
-56.2062169999999952
0
LINE
8
BLACK
6
CONTINUOUS
10
72.0289760000000001
20
-56.2062169999999952
11
72.2789760000000001
21
-55.7732049999999973
0
LINE
8
BLACK
6
CONTINUOUS
10
72.2789760000000001
20
-55.7732049999999973
11
72.711987999999991
21
-56.0232049999999973
0
LINE
8
BLACK
6
CONTINUOUS
10
87.9710239999999999
20
-56.2062169999999952
11
87.5380119999999948
21
-56.4562169999999952
0
LINE
8
BLACK
6
CONTINUOUS
10
87.5380119999999948
20
-56.4562169999999952
11
87.2880119999999948
21
-56.0232049999999973
0
LINE
8
BLACK
6
CONTINUOUS
10
87.2880119999999948
20
-56.0232049999999973
11
87.7210239999999999
21
-55.7732049999999973
0
LINE
8
BLACK
6
CONTINUOUS
10
87.7210239999999999
20
-55.7732049999999973
11
87.9710239999999999
21
-56.2062169999999952
0
LINE
8
BLACK
6
CONTINUOUS
10
71.9325659999999942
20
-55.5732049999999944
11
71.6825659999999942
21
-56.0062169999999995
0
LINE
8
BLACK
6
CONTINUOUS
10
71.6825659999999942
20
-56.0062169999999995
11
71.2495540000000034
21
-55.7562169999999995
0
LINE
8
BLACK
6
CONTINUOUS
10
71.2495540000000034
20
-55.7562169999999995
11
71.4995540000000034
21
-55.3232049999999944
0
LINE
8
BLACK
6
CONTINUOUS
10
71.4995540000000034
20
-55.3232049999999944
11
71.9325659999999942
21
-55.5732049999999944
0
LINE
8
BLACK
6
CONTINUOUS
10
88.7504459999999966
20
-55.7562169999999995
11
88.3174339999999916
21
-56.0062169999999995
0
LINE
8
BLACK
6
CONTINUOUS
10
88.3174339999999916
20
-56.0062169999999995
11
88.0674339999999916
21
-55.5732049999999944
0
LINE
8
BLACK
6
CONTINUOUS
10
88.0674339999999916
20
-55.5732049999999944
11
88.5004459999999966
21
-55.3232049999999944
0
LINE
8
BLACK
6
CONTINUOUS
10
88.5004459999999966
20
-55.3232049999999944
11
88.7504459999999966
21
-55.7562169999999995
0
LINE
8
BLACK
6
CONTINUOUS
10
73.1619879999999938
20
-55.2437830000000005
11
72.9119879999999938
21
-55.6767949999999985
0
LINE
8
BLACK
6
CONTINUOUS
10
72.9119879999999938
20
-55.6767949999999985
11
72.478976000000003
21
-55.4267949999999985
0
LINE
8
BLACK
6
CONTINUOUS
10
72.478976000000003
20
-55.4267949999999985
11
72.728976000000003
21
-54.9937830000000005
0
LINE
8
BLACK
6
CONTINUOUS
10
72.728976000000003
20
-54.9937830000000005
11
73.1619879999999938
21
-55.2437830000000005
0
LINE
8
BLACK
6
CONTINUOUS
10
87.521023999999997
20
-55.4267949999999985
11
87.088011999999992
21
-55.6767949999999985
0
LINE
8
BLACK
6
CONTINUOUS
10
87.088011999999992
20
-55.6767949999999985
11
86.838011999999992
21
-55.2437830000000005
0
LINE
8
BLACK
6
CONTINUOUS
10
86.838011999999992
20
-55.2437830000000005
11
87.271023999999997
21
-54.9937830000000005
0
LINE
8
BLACK
6
CONTINUOUS
10
87.271023999999997
20
-54.9937830000000005
11
87.521023999999997
21
-55.4267949999999985
0
LINE
8
BLACK
6
CONTINUOUS
10
72.3825659999999971
20
-54.7937829999999977
11
72.1325659999999971
21
-55.2267949999999956
0
LINE
8
BLACK
6
CONTINUOUS
10
72.1325659999999971
20
-55.2267949999999956
11
71.699553999999992
21
-54.9767949999999956
0
LINE
8
BLACK
6
CONTINUOUS
10
71.699553999999992
20
-54.9767949999999956
11
71.949553999999992
21
-54.5437829999999977
0
LINE
8
BLACK
6
CONTINUOUS
10
71.949553999999992
20
-54.5437829999999977
11
72.3825659999999971
21
-54.7937829999999977
0
LINE
8
BLACK
6
CONTINUOUS
10
88.3004459999999938
20
-54.9767949999999956
11
87.8674340000000029
21
-55.2267949999999956
0
LINE
8
BLACK
6
CONTINUOUS
10
87.8674340000000029
20
-55.2267949999999956
11
87.6174340000000029
21
-54.7937829999999977
0
LINE
8
BLACK
6
CONTINUOUS
10
87.6174340000000029
20
-54.7937829999999977
11
88.0504459999999938
21
-54.5437829999999977
0
LINE
8
BLACK
6
CONTINUOUS
10
88.0504459999999938
20
-54.5437829999999977
11
88.3004459999999938
21
-54.9767949999999956
0
LINE
8
BLACK
6
CONTINUOUS
10
86.6567859999999968
20
-54.1375460000000004
11
86.7057779999999951
21
-54.1617059999999952
0
LINE
8
BLACK
6
CONTINUOUS
10
86.7057779999999951
20
-54.1617059999999952
11
86.7417949999999962
21
-54.2027760000000001
0
LINE
8
BLACK
6
CONTINUOUS
10
86.7417949999999962
20
-54.2027760000000001
11
86.9117949999999979
21
-54.4972239999999957
0
LINE
8
BLACK
6
CONTINUOUS
10
86.9117949999999979
20
-54.4972239999999957
11
86.9293539999999894
21
-54.5489509999999953
0
LINE
8
BLACK
6
CONTINUOUS
10
86.9293539999999894
20
-54.5489509999999953
11
86.9257810000000006
21
-54.6034590000000009
0
LINE
8
BLACK
6
CONTINUOUS
10
86.9257810000000006
20
-54.6034590000000009
11
86.9016209999999916
21
-54.6524509999999992
0
LINE
8
BLACK
6
CONTINUOUS
10
86.9016209999999916
20
-54.6524509999999992
11
86.8605519999999984
21
-54.6884680000000003
0
LINE
8
BLACK
6
CONTINUOUS
10
86.8605519999999984
20
-54.6884680000000003
11
86.6180639999999897
21
-54.8284680000000009
0
LINE
8
BLACK
6
CONTINUOUS
10
86.6180639999999897
20
-54.8284680000000009
11
86.5663380000000018
21
-54.8460269999999994
0
LINE
8
BLACK
6
CONTINUOUS
10
86.5663380000000018
20
-54.8460269999999994
11
86.5118299999999891
21
-54.8424539999999965
0
LINE
8
BLACK
6
CONTINUOUS
10
86.5118299999999891
20
-54.8424539999999965
11
86.4628379999999908
21
-54.8182939999999945
0
LINE
8
BLACK
6
CONTINUOUS
10
86.4628379999999908
20
-54.8182939999999945
11
86.4268209999999897
21
-54.7772239999999968
0
LINE
8
BLACK
6
CONTINUOUS
10
86.4268209999999897
20
-54.7772239999999968
11
86.2568210000000022
21
-54.4827759999999941
0
LINE
8
BLACK
6
CONTINUOUS
10
86.2568210000000022
20
-54.4827759999999941
11
86.2392619999999965
21
-54.4310489999999945
0
LINE
8
BLACK
6
CONTINUOUS
10
86.2392619999999965
20
-54.4310489999999945
11
86.2428349999999995
21
-54.376540999999996
0
LINE
8
BLACK
6
CONTINUOUS
10
86.2428349999999995
20
-54.376540999999996
11
86.2669949999999943
21
-54.3275489999999976
0
LINE
8
BLACK
6
CONTINUOUS
10
86.2669949999999943
20
-54.3275489999999976
11
86.3080640000000017
21
-54.2915319999999966
0
LINE
8
BLACK
6
CONTINUOUS
10
86.3080640000000017
20
-54.2915319999999966
11
86.5505519999999962
21
-54.151531999999996
0
LINE
8
BLACK
6
CONTINUOUS
10
86.5505519999999962
20
-54.151531999999996
11
86.6022779999999983
21
-54.1339729999999975
0
LINE
8
BLACK
6
CONTINUOUS
10
86.6022779999999983
20
-54.1339729999999975
11
86.6567859999999968
21
-54.1375460000000004
0
LINE
8
BLACK
6
CONTINUOUS
10
87.4881699999999967
20
-53.6575459999999964
11
87.537161999999995
21
-53.6817059999999984
0
LINE
8
BLACK
6
CONTINUOUS
10
87.537161999999995
20
-53.6817059999999984
11
87.5731789999999961
21
-53.7227759999999961
0
LINE
8
BLACK
6
CONTINUOUS
10
87.5731789999999961
20
-53.7227759999999961
11
87.7431789999999978
21
-54.0172239999999988
0
LINE
8
BLACK
6
CONTINUOUS
10
87.7431789999999978
20
-54.0172239999999988
11
87.7607379999999893
21
-54.0689509999999984
0
LINE
8
BLACK
6
CONTINUOUS
10
87.7607379999999893
20
-54.0689509999999984
11
87.7571650000000005
21
-54.1234589999999969
0
LINE
8
BLACK
6
CONTINUOUS
10
87.7571650000000005
20
-54.1234589999999969
11
87.7330049999999915
21
-54.1724509999999952
0
LINE
8
BLACK
6
CONTINUOUS
10
87.7330049999999915
20
-54.1724509999999952
11
87.6919359999999983
21
-54.2084679999999963
0
LINE
8
BLACK
6
CONTINUOUS
10
87.6919359999999983
20
-54.2084679999999963
11
87.4494479999999896
21
-54.3484679999999969
0
LINE
8
BLACK
6
CONTINUOUS
10
87.4494479999999896
20
-54.3484679999999969
11
87.3977220000000017
21
-54.3660269999999954
0
LINE
8
BLACK
6
CONTINUOUS
10
87.3977220000000017
20
-54.3660269999999954
11
87.343213999999989
21
-54.3624539999999996
0
LINE
8
BLACK
6
CONTINUOUS
10
87.343213999999989
20
-54.3624539999999996
11
87.2942219999999907
21
-54.3382939999999977
0
LINE
8
BLACK
6
CONTINUOUS
10
87.2942219999999907
20
-54.3382939999999977
11
87.2582049999999896
21
-54.2972239999999999
0
LINE
8
BLACK
6
CONTINUOUS
10
87.2582049999999896
20
-54.2972239999999999
11
87.0882050000000021
21
-54.0027759999999972
0
LINE
8
BLACK
6
CONTINUOUS
10
87.0882050000000021
20
-54.0027759999999972
11
87.0706459999999964
21
-53.9510489999999976
0
LINE
8
BLACK
6
CONTINUOUS
10
87.0706459999999964
20
-53.9510489999999976
11
87.0742189999999994
21
-53.8965409999999991
0
LINE
8
BLACK
6
CONTINUOUS
10
87.0742189999999994
20
-53.8965409999999991
11
87.0983789999999942
21
-53.8475490000000008
0
LINE
8
BLACK
6
CONTINUOUS
10
87.0983789999999942
20
-53.8475490000000008
11
87.1394480000000016
21
-53.8115319999999997
0
LINE
8
BLACK
6
CONTINUOUS
10
87.1394480000000016
20
-53.8115319999999997
11
87.3819359999999961
21
-53.6715319999999991
0
LINE
8
BLACK
6
CONTINUOUS
10
87.3819359999999961
20
-53.6715319999999991
11
87.4336619999999982
21
-53.6539730000000006
0
LINE
8
BLACK
6
CONTINUOUS
10
87.4336619999999982
20
-53.6539730000000006
11
87.4881699999999967
21
-53.6575459999999964
0
LINE
8
BLACK
6
CONTINUOUS
10
74.5434589999999986
20
-53.0069519999999983
11
74.592450999999997
21
-53.0311120000000003
0
LINE
8
BLACK
6
CONTINUOUS
10
74.592450999999997
20
-53.0311120000000003
11
74.628467999999998
21
-53.0721810000000005
0
LINE
8
BLACK
6
CONTINUOUS
10
74.628467999999998
20
-53.0721810000000005
11
74.7684679999999986
21
-53.314668999999995
0
LINE
8
BLACK
6
CONTINUOUS
10
74.7684679999999986
20
-53.314668999999995
11
74.78602699999999
21
-53.3663949999999971
0
LINE
8
BLACK
6
CONTINUOUS
10
74.78602699999999
20
-53.3663949999999971
11
74.7824540000000013
21
-53.4209029999999956
0
LINE
8
BLACK
6
CONTINUOUS
10
74.7824540000000013
20
-53.4209029999999956
11
74.7582939999999923
21
-53.4698950000000011
0
LINE
8
BLACK
6
CONTINUOUS
10
74.7582939999999923
20
-53.4698950000000011
11
74.7172240000000016
21
-53.505911999999995
0
LINE
8
BLACK
6
CONTINUOUS
10
74.7172240000000016
20
-53.505911999999995
11
74.4227759999999989
21
-53.6759119999999967
0
LINE
8
BLACK
6
CONTINUOUS
10
74.4227759999999989
20
-53.6759119999999967
11
74.3710489999999993
21
-53.6934709999999953
0
LINE
8
BLACK
6
CONTINUOUS
10
74.3710489999999993
20
-53.6934709999999953
11
74.3165410000000008
21
-53.6898979999999995
0
LINE
8
BLACK
6
CONTINUOUS
10
74.3165410000000008
20
-53.6898979999999995
11
74.2675490000000025
21
-53.6657379999999975
0
LINE
8
BLACK
6
CONTINUOUS
10
74.2675490000000025
20
-53.6657379999999975
11
74.2315320000000014
21
-53.6246689999999973
0
LINE
8
BLACK
6
CONTINUOUS
10
74.2315320000000014
20
-53.6246689999999973
11
74.0915320000000008
21
-53.3821809999999957
0
LINE
8
BLACK
6
CONTINUOUS
10
74.0915320000000008
20
-53.3821809999999957
11
74.0739729999999952
21
-53.3304550000000006
0
LINE
8
BLACK
6
CONTINUOUS
10
74.0739729999999952
20
-53.3304550000000006
11
74.0775459999999981
21
-53.2759469999999951
0
LINE
8
BLACK
6
CONTINUOUS
10
74.0775459999999981
20
-53.2759469999999951
11
74.101705999999993
21
-53.2269549999999967
0
LINE
8
BLACK
6
CONTINUOUS
10
74.101705999999993
20
-53.2269549999999967
11
74.1427759999999978
21
-53.1909379999999956
0
LINE
8
BLACK
6
CONTINUOUS
10
74.1427759999999978
20
-53.1909379999999956
11
74.4372240000000005
21
-53.020938000000001
0
LINE
8
BLACK
6
CONTINUOUS
10
74.4372240000000005
20
-53.020938000000001
11
74.4889510000000001
21
-53.0033789999999954
0
LINE
8
BLACK
6
CONTINUOUS
10
74.4889510000000001
20
-53.0033789999999954
11
74.5434589999999986
21
-53.0069519999999983
0
LINE
8
BLACK
6
CONTINUOUS
10
75.6767949999999985
20
-52.9119880000000009
11
75.2437829999999934
21
-53.1619880000000009
0
LINE
8
BLACK
6
CONTINUOUS
10
75.2437829999999934
20
-53.1619880000000009
11
74.9937829999999934
21
-52.7289759999999958
0
LINE
8
BLACK
6
CONTINUOUS
10
74.9937829999999934
20
-52.7289759999999958
11
75.4267949999999985
21
-52.4789759999999958
0
LINE
8
BLACK
6
CONTINUOUS
10
75.4267949999999985
20
-52.4789759999999958
11
75.6767949999999985
21
-52.9119880000000009
0
LINE
8
BLACK
6
CONTINUOUS
10
85.0062169999999924
20
-52.7289759999999958
11
84.7562169999999924
21
-53.1619880000000009
0
LINE
8
BLACK
6
CONTINUOUS
10
84.7562169999999924
20
-53.1619880000000009
11
84.3232050000000015
21
-52.9119880000000009
0
LINE
8
BLACK
6
CONTINUOUS
10
84.3232050000000015
20
-52.9119880000000009
11
84.5732050000000015
21
-52.4789759999999958
0
LINE
8
BLACK
6
CONTINUOUS
10
84.5732050000000015
20
-52.4789759999999958
11
85.0062169999999924
21
-52.7289759999999958
0
LINE
8
BLACK
6
CONTINUOUS
10
74.0634589999999946
20
-52.1755679999999984
11
74.112450999999993
21
-52.1997280000000003
0
LINE
8
BLACK
6
CONTINUOUS
10
74.112450999999993
20
-52.1997280000000003
11
74.148467999999994
21
-52.2407970000000006
0
LINE
8
BLACK
6
CONTINUOUS
10
74.148467999999994
20
-52.2407970000000006
11
74.2884679999999946
21
-52.4832849999999951
0
LINE
8
BLACK
6
CONTINUOUS
10
74.2884679999999946
20
-52.4832849999999951
11
74.3060270000000003
21
-52.5350109999999972
0
LINE
8
BLACK
6
CONTINUOUS
10
74.3060270000000003
20
-52.5350109999999972
11
74.3024539999999973
21
-52.5895189999999957
0
LINE
8
BLACK
6
CONTINUOUS
10
74.3024539999999973
20
-52.5895189999999957
11
74.2782940000000025
21
-52.6385110000000012
0
LINE
8
BLACK
6
CONTINUOUS
10
74.2782940000000025
20
-52.6385110000000012
11
74.2372239999999977
21
-52.6745279999999951
0
LINE
8
BLACK
6
CONTINUOUS
10
74.2372239999999977
20
-52.6745279999999951
11
73.942775999999995
21
-52.8445279999999968
0
LINE
8
BLACK
6
CONTINUOUS
10
73.942775999999995
20
-52.8445279999999968
11
73.8910489999999953
21
-52.8620869999999954
0
LINE
8
BLACK
6
CONTINUOUS
10
73.8910489999999953
20
-52.8620869999999954
11
73.8365409999999969
21
-52.8585139999999996
0
LINE
8
BLACK
6
CONTINUOUS
10
73.8365409999999969
20
-52.8585139999999996
11
73.7875489999999985
21
-52.8343539999999976
0
LINE
8
BLACK
6
CONTINUOUS
10
73.7875489999999985
20
-52.8343539999999976
11
73.7515319999999974
21
-52.7932849999999974
0
LINE
8
BLACK
6
CONTINUOUS
10
73.7515319999999974
20
-52.7932849999999974
11
73.6115319999999969
21
-52.5507969999999958
0
LINE
8
BLACK
6
CONTINUOUS
10
73.6115319999999969
20
-52.5507969999999958
11
73.5939729999999912
21
-52.4990710000000007
0
LINE
8
BLACK
6
CONTINUOUS
10
73.5939729999999912
20
-52.4990710000000007
11
73.5975459999999941
21
-52.4445629999999952
0
LINE
8
BLACK
6
CONTINUOUS
10
73.5975459999999941
20
-52.4445629999999952
11
73.6217060000000032
21
-52.3955709999999968
0
LINE
8
BLACK
6
CONTINUOUS
10
73.6217060000000032
20
-52.3955709999999968
11
73.6627759999999938
21
-52.3595539999999957
0
LINE
8
BLACK
6
CONTINUOUS
10
73.6627759999999938
20
-52.3595539999999957
11
73.9572239999999965
21
-52.1895540000000011
0
LINE
8
BLACK
6
CONTINUOUS
10
73.9572239999999965
20
-52.1895540000000011
11
74.0089509999999962
21
-52.1719949999999955
0
LINE
8
BLACK
6
CONTINUOUS
10
74.0089509999999962
20
-52.1719949999999955
11
74.0634589999999946
21
-52.1755679999999984
0
LINE
8
BLACK
6
CONTINUOUS
10
76.4562169999999952
20
-52.4619879999999981
11
76.0232049999999902
21
-52.7119879999999981
0
LINE
8
BLACK
6
CONTINUOUS
10
76.0232049999999902
20
-52.7119879999999981
11
75.7732049999999902
21
-52.2789760000000001
0
LINE
8
BLACK
6
CONTINUOUS
10
75.7732049999999902
20
-52.2789760000000001
11
76.2062169999999952
21
-52.0289760000000001
0
LINE
8
BLACK
6
CONTINUOUS
10
76.2062169999999952
20
-52.0289760000000001
11
76.4562169999999952
21
-52.4619879999999981
0
LINE
8
BLACK
6
CONTINUOUS
10
84.2267949999999956
20
-52.2789760000000001
11
83.9767949999999956
21
-52.7119879999999981
0
LINE
8
BLACK
6
CONTINUOUS
10
83.9767949999999956
20
-52.7119879999999981
11
83.5437829999999906
21
-52.4619879999999981
0
LINE
8
BLACK
6
CONTINUOUS
10
83.5437829999999906
20
-52.4619879999999981
11
83.7937829999999906
21
-52.0289760000000001
0
LINE
8
BLACK
6
CONTINUOUS
10
83.7937829999999906
20
-52.0289760000000001
11
84.2267949999999956
21
-52.2789760000000001
0
LINE
8
BLACK
6
CONTINUOUS
10
75.2267949999999956
20
-52.1325659999999971
11
74.7937829999999906
21
-52.3825659999999971
0
LINE
8
BLACK
6
CONTINUOUS
10
74.7937829999999906
20
-52.3825659999999971
11
74.5437829999999906
21
-51.9495539999999991
0
LINE
8
BLACK
6
CONTINUOUS
10
74.5437829999999906
20
-51.9495539999999991
11
74.9767949999999956
21
-51.6995539999999991
0
LINE
8
BLACK
6
CONTINUOUS
10
74.9767949999999956
20
-51.6995539999999991
11
75.2267949999999956
21
-52.1325659999999971
0
LINE
8
BLACK
6
CONTINUOUS
10
85.4562169999999952
20
-51.9495539999999991
11
85.2062169999999952
21
-52.3825659999999971
0
LINE
8
BLACK
6
CONTINUOUS
10
85.2062169999999952
20
-52.3825659999999971
11
84.7732049999999902
21
-52.1325659999999971
0
LINE
8
BLACK
6
CONTINUOUS
10
84.7732049999999902
20
-52.1325659999999971
11
85.0232049999999902
21
-51.6995539999999991
0
LINE
8
BLACK
6
CONTINUOUS
10
85.0232049999999902
20
-51.6995539999999991
11
85.4562169999999952
21
-51.9495539999999991
0
LINE
8
BLACK
6
CONTINUOUS
10
82.9527760000000001
20
-51.588204999999995
11
83.2472240000000028
21
-51.7582049999999967
0
LINE
8
BLACK
6
CONTINUOUS
10
83.2472240000000028
20
-51.7582049999999967
11
83.2882939999999934
21
-51.7942219999999978
0
LINE
8
BLACK
6
CONTINUOUS
10
83.2882939999999934
20
-51.7942219999999978
11
83.3124540000000025
21
-51.8432139999999961
0
LINE
8
BLACK
6
CONTINUOUS
10
83.3124540000000025
20
-51.8432139999999961
11
83.3160269999999912
21
-51.8977219999999946
0
LINE
8
BLACK
6
CONTINUOUS
10
83.3160269999999912
20
-51.8977219999999946
11
83.2984679999999997
21
-51.9494479999999967
0
LINE
8
BLACK
6
CONTINUOUS
10
83.2984679999999997
20
-51.9494479999999967
11
83.1584679999999992
21
-52.1919359999999983
0
LINE
8
BLACK
6
CONTINUOUS
10
83.1584679999999992
20
-52.1919359999999983
11
83.1224509999999981
21
-52.2330049999999986
0
LINE
8
BLACK
6
CONTINUOUS
10
83.1224509999999981
20
-52.2330049999999986
11
83.0734589999999997
21
-52.2571650000000005
0
LINE
8
BLACK
6
CONTINUOUS
10
83.0734589999999997
20
-52.2571650000000005
11
83.0189510000000013
21
-52.2607379999999964
0
LINE
8
BLACK
6
CONTINUOUS
10
83.0189510000000013
20
-52.2607379999999964
11
82.9672240000000016
21
-52.2431789999999978
0
LINE
8
BLACK
6
CONTINUOUS
10
82.9672240000000016
20
-52.2431789999999978
11
82.6727759999999989
21
-52.0731789999999961
0
LINE
8
BLACK
6
CONTINUOUS
10
82.6727759999999989
20
-52.0731789999999961
11
82.6317059999999941
21
-52.037161999999995
0
LINE
8
BLACK
6
CONTINUOUS
10
82.6317059999999941
20
-52.037161999999995
11
82.6075459999999993
21
-51.9881699999999967
0
LINE
8
BLACK
6
CONTINUOUS
10
82.6075459999999993
20
-51.9881699999999967
11
82.6039729999999963
21
-51.9336619999999982
0
LINE
8
BLACK
6
CONTINUOUS
10
82.6039729999999963
20
-51.9336619999999982
11
82.621532000000002
21
-51.8819359999999961
0
LINE
8
BLACK
6
CONTINUOUS
10
82.621532000000002
20
-51.8819359999999961
11
82.7615320000000025
21
-51.6394479999999945
0
LINE
8
BLACK
6
CONTINUOUS
10
82.7615320000000025
20
-51.6394479999999945
11
82.7975489999999894
21
-51.5983789999999942
0
LINE
8
BLACK
6
CONTINUOUS
10
82.7975489999999894
20
-51.5983789999999942
11
82.846541000000002
21
-51.5742189999999994
0
LINE
8
BLACK
6
CONTINUOUS
10
82.846541000000002
20
-51.5742189999999994
11
82.9010490000000004
21
-51.5706459999999964
0
LINE
8
BLACK
6
CONTINUOUS
10
82.9010490000000004
20
-51.5706459999999964
11
82.9527760000000001
21
-51.588204999999995
0
LINE
8
BLACK
6
CONTINUOUS
10
76.0062169999999924
20
-51.6825659999999942
11
75.5732050000000015
21
-51.9325659999999942
0
LINE
8
BLACK
6
CONTINUOUS
10
75.5732050000000015
20
-51.9325659999999942
11
75.3232050000000015
21
-51.4995539999999963
0
LINE
8
BLACK
6
CONTINUOUS
10
75.3232050000000015
20
-51.4995539999999963
11
75.7562169999999924
21
-51.2495539999999963
0
LINE
8
BLACK
6
CONTINUOUS
10
75.7562169999999924
20
-51.2495539999999963
11
76.0062169999999924
21
-51.6825659999999942
0
LINE
8
BLACK
6
CONTINUOUS
10
84.6767949999999985
20
-51.4995539999999963
11
84.4267949999999985
21
-51.9325659999999942
0
LINE
8
BLACK
6
CONTINUOUS
10
84.4267949999999985
20
-51.9325659999999942
11
83.9937829999999934
21
-51.6825659999999942
0
LINE
8
BLACK
6
CONTINUOUS
10
83.9937829999999934
20
-51.6825659999999942
11
84.2437829999999934
21
-51.2495539999999963
0
LINE
8
BLACK
6
CONTINUOUS
10
84.2437829999999934
20
-51.2495539999999963
11
84.6767949999999985
21
-51.4995539999999963
0
LINE
8
BLACK
6
CONTINUOUS
10
78.7235759999999942
20
-51.2706569999999999
11
78.7689949999999897
21
-51.3010049999999964
0
LINE
8
BLACK
6
CONTINUOUS
10
78.7689949999999897
20
-51.3010049999999964
11
78.7993429999999933
21
-51.346423999999999
0
LINE
8
BLACK
6
CONTINUOUS
10
78.7993429999999933
20
-51.346423999999999
11
78.8100000000000023
21
-51.3999999999999986
0
LINE
8
BLACK
6
CONTINUOUS
10
78.8100000000000023
20
-51.3999999999999986
11
78.8100000000000023
21
-51.6799999999999997
0
LINE
8
BLACK
6
CONTINUOUS
10
78.8100000000000023
20
-51.6799999999999997
11
78.7993429999999933
21
-51.7335759999999993
0
LINE
8
BLACK
6
CONTINUOUS
10
78.7993429999999933
20
-51.7335759999999993
11
78.7689949999999897
21
-51.7789949999999948
0
LINE
8
BLACK
6
CONTINUOUS
10
78.7689949999999897
20
-51.7789949999999948
11
78.7235759999999942
21
-51.8093429999999984
0
LINE
8
BLACK
6
CONTINUOUS
10
78.7235759999999942
20
-51.8093429999999984
11
78.6700000000000017
21
-51.8200000000000003
0
LINE
8
BLACK
6
CONTINUOUS
10
78.6700000000000017
20
-51.8200000000000003
11
78.3299999999999983
21
-51.8200000000000003
0
LINE
8
BLACK
6
CONTINUOUS
10
78.3299999999999983
20
-51.8200000000000003
11
78.2764239999999916
21
-51.8093429999999984
0
LINE
8
BLACK
6
CONTINUOUS
10
78.2764239999999916
20
-51.8093429999999984
11
78.2310049999999961
21
-51.7789949999999948
0
LINE
8
BLACK
6
CONTINUOUS
10
78.2310049999999961
20
-51.7789949999999948
11
78.2006569999999925
21
-51.7335759999999993
0
LINE
8
BLACK
6
CONTINUOUS
10
78.2006569999999925
20
-51.7335759999999993
11
78.1899999999999977
21
-51.6799999999999997
0
LINE
8
BLACK
6
CONTINUOUS
10
78.1899999999999977
20
-51.6799999999999997
11
78.1899999999999977
21
-51.3999999999999986
0
LINE
8
BLACK
6
CONTINUOUS
10
78.1899999999999977
20
-51.3999999999999986
11
78.2006569999999925
21
-51.346423999999999
0
LINE
8
BLACK
6
CONTINUOUS
10
78.2006569999999925
20
-51.346423999999999
11
78.2310049999999961
21
-51.3010049999999964
0
LINE
8
BLACK
6
CONTINUOUS
10
78.2310049999999961
20
-51.3010049999999964
11
78.2764239999999916
21
-51.2706569999999999
0
LINE
8
BLACK
6
CONTINUOUS
10
78.2764239999999916
20
-51.2706569999999999
11
78.3299999999999983
21
-51.259999999999998
0
LINE
8
BLACK
6
CONTINUOUS
10
78.3299999999999983
20
-51.259999999999998
11
78.6700000000000017
21
-51.259999999999998
0
LINE
8
BLACK
6
CONTINUOUS
10
78.6700000000000017
20
-51.259999999999998
11
78.7235759999999942
21
-51.2706569999999999
0
LINE
8
BLACK
6
CONTINUOUS
10
79.7999999999999972
20
-51.6999999999999957
11
79.2999999999999972
21
-51.6999999999999957
0
LINE
8
BLACK
6
CONTINUOUS
10
79.2999999999999972
20
-51.6999999999999957
11
79.2999999999999972
21
-51.1999999999999957
0
LINE
8
BLACK
6
CONTINUOUS
10
79.2999999999999972
20
-51.1999999999999957
11
79.7999999999999972
21
-51.1999999999999957
0
LINE
8
BLACK
6
CONTINUOUS
10
79.7999999999999972
20
-51.1999999999999957
11
79.7999999999999972
21
-51.6999999999999957
0
LINE
8
BLACK
6
CONTINUOUS
10
80.7000000000000028
20
-51.6999999999999957
11
80.2000000000000028
21
-51.6999999999999957
0
LINE
8
BLACK
6
CONTINUOUS
10
80.2000000000000028
20
-51.6999999999999957
11
80.2000000000000028
21
-51.1999999999999957
0
LINE
8
BLACK
6
CONTINUOUS
10
80.2000000000000028
20
-51.1999999999999957
11
80.7000000000000028
21
-51.1999999999999957
0
LINE
8
BLACK
6
CONTINUOUS
10
80.7000000000000028
20
-51.1999999999999957
11
80.7000000000000028
21
-51.6999999999999957
0
LINE
8
BLACK
6
CONTINUOUS
10
83.4327759999999898
20
-50.7568209999999951
11
83.7272239999999925
21
-50.9268209999999968
0
LINE
8
BLACK
6
CONTINUOUS
10
83.7272239999999925
20
-50.9268209999999968
11
83.7682939999999974
21
-50.9628379999999979
0
LINE
8
BLACK
6
CONTINUOUS
10
83.7682939999999974
20
-50.9628379999999979
11
83.7924539999999922
21
-51.0118299999999962
0
LINE
8
BLACK
6
CONTINUOUS
10
83.7924539999999922
20
-51.0118299999999962
11
83.7960269999999952
21
-51.0663379999999947
0
LINE
8
BLACK
6
CONTINUOUS
10
83.7960269999999952
20
-51.0663379999999947
11
83.7784679999999895
21
-51.1180639999999968
0
LINE
8
BLACK
6
CONTINUOUS
10
83.7784679999999895
20
-51.1180639999999968
11
83.6384680000000031
21
-51.3605519999999984
0
LINE
8
BLACK
6
CONTINUOUS
10
83.6384680000000031
20
-51.3605519999999984
11
83.6024510000000021
21
-51.4016209999999987
0
LINE
8
BLACK
6
CONTINUOUS
10
83.6024510000000021
20
-51.4016209999999987
11
83.5534589999999895
21
-51.4257810000000006
0
LINE
8
BLACK
6
CONTINUOUS
10
83.5534589999999895
20
-51.4257810000000006
11
83.498950999999991
21
-51.4293539999999965
0
LINE
8
BLACK
6
CONTINUOUS
10
83.498950999999991
20
-51.4293539999999965
11
83.4472239999999914
21
-51.4117949999999979
0
LINE
8
BLACK
6
CONTINUOUS
10
83.4472239999999914
20
-51.4117949999999979
11
83.1527760000000029
21
-51.2417949999999962
0
LINE
8
BLACK
6
CONTINUOUS
10
83.1527760000000029
20
-51.2417949999999962
11
83.1117059999999981
21
-51.2057779999999951
0
LINE
8
BLACK
6
CONTINUOUS
10
83.1117059999999981
20
-51.2057779999999951
11
83.0875460000000032
21
-51.1567859999999968
0
LINE
8
BLACK
6
CONTINUOUS
10
83.0875460000000032
20
-51.1567859999999968
11
83.0839730000000003
21
-51.1022779999999983
0
LINE
8
BLACK
6
CONTINUOUS
10
83.0839730000000003
20
-51.1022779999999983
11
83.1015319999999917
21
-51.0505519999999962
0
LINE
8
BLACK
6
CONTINUOUS
10
83.1015319999999917
20
-51.0505519999999962
11
83.2415319999999923
21
-50.8080639999999946
0
LINE
8
BLACK
6
CONTINUOUS
10
83.2415319999999923
20
-50.8080639999999946
11
83.2775489999999934
21
-50.7669949999999943
0
LINE
8
BLACK
6
CONTINUOUS
10
83.2775489999999934
20
-50.7669949999999943
11
83.3265409999999918
21
-50.7428349999999995
0
LINE
8
BLACK
6
CONTINUOUS
10
83.3265409999999918
20
-50.7428349999999995
11
83.3810489999999902
21
-50.7392619999999965
0
LINE
8
BLACK
6
CONTINUOUS
10
83.3810489999999902
20
-50.7392619999999965
11
83.4327759999999898
21
-50.7568209999999951
0
LINE
8
BLACK
6
CONTINUOUS
10
78.7235759999999942
20
-50.3106569999999991
11
78.7689949999999897
21
-50.3410049999999956
0
LINE
8
BLACK
6
CONTINUOUS
10
78.7689949999999897
20
-50.3410049999999956
11
78.7993429999999933
21
-50.3864239999999981
0
LINE
8
BLACK
6
CONTINUOUS
10
78.7993429999999933
20
-50.3864239999999981
11
78.8100000000000023
21
-50.4399999999999977
0
LINE
8
BLACK
6
CONTINUOUS
10
78.8100000000000023
20
-50.4399999999999977
11
78.8100000000000023
21
-50.7199999999999989
0
LINE
8
BLACK
6
CONTINUOUS
10
78.8100000000000023
20
-50.7199999999999989
11
78.7993429999999933
21
-50.7735759999999985
0
LINE
8
BLACK
6
CONTINUOUS
10
78.7993429999999933
20
-50.7735759999999985
11
78.7689949999999897
21
-50.818995000000001
0
LINE
8
BLACK
6
CONTINUOUS
10
78.7689949999999897
20
-50.818995000000001
11
78.7235759999999942
21
-50.8493429999999975
0
LINE
8
BLACK
6
CONTINUOUS
10
78.7235759999999942
20
-50.8493429999999975
11
78.6700000000000017
21
-50.8599999999999994
0
LINE
8
BLACK
6
CONTINUOUS
10
78.6700000000000017
20
-50.8599999999999994
11
78.3299999999999983
21
-50.8599999999999994
0
LINE
8
BLACK
6
CONTINUOUS
10
78.3299999999999983
20
-50.8599999999999994
11
78.2764239999999916
21
-50.8493429999999975
0
LINE
8
BLACK
6
CONTINUOUS
10
78.2764239999999916
20
-50.8493429999999975
11
78.2310049999999961
21
-50.818995000000001
0
LINE
8
BLACK
6
CONTINUOUS
10
78.2310049999999961
20
-50.818995000000001
11
78.2006569999999925
21
-50.7735759999999985
0
LINE
8
BLACK
6
CONTINUOUS
10
78.2006569999999925
20
-50.7735759999999985
11
78.1899999999999977
21
-50.7199999999999989
0
LINE
8
BLACK
6
CONTINUOUS
10
78.1899999999999977
20
-50.7199999999999989
11
78.1899999999999977
21
-50.4399999999999977
0
LINE
8
BLACK
6
CONTINUOUS
10
78.1899999999999977
20
-50.4399999999999977
11
78.2006569999999925
21
-50.3864239999999981
0
LINE
8
BLACK
6
CONTINUOUS
10
78.2006569999999925
20
-50.3864239999999981
11
78.2310049999999961
21
-50.3410049999999956
0
LINE
8
BLACK
6
CONTINUOUS
10
78.2310049999999961
20
-50.3410049999999956
11
78.2764239999999916
21
-50.3106569999999991
0
LINE
8
BLACK
6
CONTINUOUS
10
78.2764239999999916
20
-50.3106569999999991
11
78.3299999999999983
21
-50.2999999999999972
0
LINE
8
BLACK
6
CONTINUOUS
10
78.3299999999999983
20
-50.2999999999999972
11
78.6700000000000017
21
-50.2999999999999972
0
LINE
8
BLACK
6
CONTINUOUS
10
78.6700000000000017
20
-50.2999999999999972
11
78.7235759999999942
21
-50.3106569999999991
0
LINE
8
BLACK
6
CONTINUOUS
10
79.7999999999999972
20
-50.7999999999999972
11
79.2999999999999972
21
-50.7999999999999972
0
LINE
8
BLACK
6
CONTINUOUS
10
79.2999999999999972
20
-50.7999999999999972
11
79.2999999999999972
21
-50.2999999999999972
0
LINE
8
BLACK
6
CONTINUOUS
10
79.2999999999999972
20
-50.2999999999999972
11
79.7999999999999972
21
-50.2999999999999972
0
LINE
8
BLACK
6
CONTINUOUS
10
79.7999999999999972
20
-50.2999999999999972
11
79.7999999999999972
21
-50.7999999999999972
0
LINE
8
BLACK
6
CONTINUOUS
10
80.7000000000000028
20
-50.7999999999999972
11
80.2000000000000028
21
-50.7999999999999972
0
LINE
8
BLACK
6
CONTINUOUS
10
80.2000000000000028
20
-50.7999999999999972
11
80.2000000000000028
21
-50.2999999999999972
0
LINE
8
BLACK
6
CONTINUOUS
10
80.2000000000000028
20
-50.2999999999999972
11
80.7000000000000028
21
-50.2999999999999972
0
LINE
8
BLACK
6
CONTINUOUS
10
80.7000000000000028
20
-50.2999999999999972
11
80.7000000000000028
21
-50.7999999999999972
  0
ENDSEC
  0
EOF
