G04 #@! TF.GenerationSoftware,KiCad,Pcbnew,7.0.8-7.0.8~ubuntu23.04.1*
G04 #@! TF.CreationDate,2023-10-21T09:17:22+00:00*
G04 #@! TF.ProjectId,stencil,7374656e-6369-46c2-9e6b-696361645f70,1.1.0-RC1*
G04 #@! TF.SameCoordinates,Original*
G04 #@! TF.FileFunction,Paste,Top*
G04 #@! TF.FilePolarity,Positive*
%FSLAX46Y46*%
G04 Gerber Fmt 4.6, Leading zero omitted, Abs format (unit mm)*
G04 Created by KiCad (PCBNEW 7.0.8-7.0.8~ubuntu23.04.1) date 2023-10-21 09:17:22*
%MOMM*%
%LPD*%
G01*
G04 APERTURE LIST*
G04 Aperture macros list*
%AMRoundRect*
0 Rectangle with rounded corners*
0 $1 Rounding radius*
0 $2 $3 $4 $5 $6 $7 $8 $9 X,Y pos of 4 corners*
0 Add a 4 corners polygon primitive as box body*
4,1,4,$2,$3,$4,$5,$6,$7,$8,$9,$2,$3,0*
0 Add four circle primitives for the rounded corners*
1,1,$1+$1,$2,$3*
1,1,$1+$1,$4,$5*
1,1,$1+$1,$6,$7*
1,1,$1+$1,$8,$9*
0 Add four rect primitives between the rounded corners*
20,1,$1+$1,$2,$3,$4,$5,0*
20,1,$1+$1,$4,$5,$6,$7,0*
20,1,$1+$1,$6,$7,$8,$9,0*
20,1,$1+$1,$8,$9,$2,$3,0*%
%AMRotRect*
0 Rectangle, with rotation*
0 The origin of the aperture is its center*
0 $1 length*
0 $2 width*
0 $3 Rotation angle, in degrees counterclockwise*
0 Add horizontal line*
21,1,$1,$2,0,0,$3*%
G04 Aperture macros list end*
%ADD10C,0.500000*%
%ADD11C,1.050000*%
%ADD12C,1.000000*%
%ADD13RotRect,0.500000X0.500000X120.000000*%
%ADD14RoundRect,0.140000X-0.170000X0.140000X-0.170000X-0.140000X0.170000X-0.140000X0.170000X0.140000X0*%
%ADD15RoundRect,0.140000X-0.217224X0.036244X-0.077224X-0.206244X0.217224X-0.036244X0.077224X0.206244X0*%
%ADD16R,0.500000X0.500000*%
%ADD17RotRect,0.500000X0.500000X150.000000*%
%ADD18RotRect,0.500000X0.500000X30.000000*%
%ADD19RotRect,0.500000X0.500000X330.000000*%
%ADD20RoundRect,0.140000X-0.140000X-0.170000X0.140000X-0.170000X0.140000X0.170000X-0.140000X0.170000X0*%
%ADD21RoundRect,0.062500X-0.062500X0.117500X-0.062500X-0.117500X0.062500X-0.117500X0.062500X0.117500X0*%
%ADD22RoundRect,0.140000X-0.036244X-0.217224X0.206244X-0.077224X0.036244X0.217224X-0.206244X0.077224X0*%
%ADD23RoundRect,0.140000X0.077224X-0.206244X0.217224X0.036244X-0.077224X0.206244X-0.217224X-0.036244X0*%
%ADD24RoundRect,0.140000X0.217224X-0.036244X0.077224X0.206244X-0.217224X0.036244X-0.077224X-0.206244X0*%
%ADD25RoundRect,0.140000X-0.206244X-0.077224X0.036244X-0.217224X0.206244X0.077224X-0.036244X0.217224X0*%
%ADD26RoundRect,0.140000X0.170000X-0.140000X0.170000X0.140000X-0.170000X0.140000X-0.170000X-0.140000X0*%
%ADD27RotRect,0.500000X0.500000X210.000000*%
%ADD28RoundRect,0.140000X0.036244X0.217224X-0.206244X0.077224X-0.036244X-0.217224X0.206244X-0.077224X0*%
%ADD29RotRect,0.500000X0.500000X300.000000*%
%ADD30RoundRect,0.140000X0.206244X0.077224X-0.036244X0.217224X-0.206244X-0.077224X0.036244X-0.217224X0*%
%ADD31RotRect,0.500000X0.500000X60.000000*%
%ADD32RotRect,0.500000X0.500000X240.000000*%
%ADD33RoundRect,0.135000X0.135000X0.185000X-0.135000X0.185000X-0.135000X-0.185000X0.135000X-0.185000X0*%
%ADD34RoundRect,0.140000X-0.077224X0.206244X-0.217224X-0.036244X0.077224X-0.206244X0.217224X0.036244X0*%
G04 APERTURE END LIST*
D10*
X25888884Y87000016D02*
G75*
G03*
X25388884Y86500000I16J-500016D01*
G01*
X-86111112Y-87000000D02*
X-75666668Y-87000000D01*
X-111500000Y-499997D02*
G75*
G03*
X-112000000Y-999997I1J-500001D01*
G01*
X-112000000Y-38285710D02*
X-112000000Y-48714281D01*
X-112000000Y-11428568D02*
G75*
G03*
X-111500000Y-11928568I500001J1D01*
G01*
X500000Y-86500000D02*
G75*
G03*
X999996Y-87000000I500000J0D01*
G01*
X-112000000Y-61142852D02*
G75*
G03*
X-111500000Y-61642852I500001J1D01*
G01*
X38333328Y-87000000D02*
X48777772Y-87000000D01*
X111500000Y-49214300D02*
G75*
G03*
X112000000Y-48714281I0J500000D01*
G01*
X-500000Y86500000D02*
G75*
G03*
X-1000004Y87000000I-500000J0D01*
G01*
X88111104Y87000000D02*
X98555548Y87000000D01*
X-112000000Y-23857139D02*
G75*
G03*
X-111500000Y-24357139I500001J1D01*
G01*
X-36333336Y87000036D02*
G75*
G03*
X-36833336Y86500000I36J-500036D01*
G01*
X-48777780Y87000000D02*
X-38333336Y87000000D01*
X111999987Y48714287D02*
G75*
G03*
X111500000Y49214287I-499987J13D01*
G01*
X75666660Y87000000D02*
X86111104Y87000000D01*
D11*
X109275000Y-83750000D02*
G75*
G03*
X109275000Y-83750000I-525000J0D01*
G01*
D10*
X-112000000Y63142858D02*
G75*
G03*
X-111500000Y62642858I500001J1D01*
G01*
X-111500000Y49214287D02*
G75*
G03*
X-112000000Y48714287I1J-500001D01*
G01*
D12*
X109250000Y-41875000D02*
G75*
G03*
X109250000Y-41875000I-500000J0D01*
G01*
X54875000Y-83750000D02*
G75*
G03*
X54875000Y-83750000I-500000J0D01*
G01*
D10*
X-86611112Y-86500000D02*
G75*
G03*
X-86111112Y-87000000I500001J1D01*
G01*
X75166700Y-86500000D02*
G75*
G03*
X75666660Y-87000000I500000J0D01*
G01*
X112000000Y-63142852D02*
X112000000Y-73571423D01*
X-73666668Y86999968D02*
G75*
G03*
X-74166668Y86500000I-32J-499968D01*
G01*
X61222216Y-87000016D02*
G75*
G03*
X61722216Y-86500000I-16J500016D01*
G01*
X63222216Y87000000D02*
X73666660Y87000000D01*
X-11444448Y87000000D02*
X-1000004Y87000000D01*
X98555548Y-87000048D02*
G75*
G03*
X99055548Y-86500000I-48J500048D01*
G01*
X38333328Y86999972D02*
G75*
G03*
X37833328Y86500000I-28J-499972D01*
G01*
X111500000Y-24357100D02*
G75*
G03*
X112000000Y-23857139I0J500000D01*
G01*
X-111500000Y36785716D02*
G75*
G03*
X-112000000Y36285716I1J-500001D01*
G01*
X-112000000Y-73571423D02*
G75*
G03*
X-111500000Y-74071423I500001J1D01*
G01*
X112000048Y-63142852D02*
G75*
G03*
X111500000Y-62642852I-500048J-48D01*
G01*
X-111500000Y61642858D02*
G75*
G03*
X-112000000Y61142858I1J-500001D01*
G01*
X-111000000Y87000000D02*
G75*
G03*
X-112000000Y86000000I-1J-999999D01*
G01*
X-111500000Y-25357139D02*
G75*
G03*
X-112000000Y-25857139I1J-500001D01*
G01*
X-75666668Y-87000002D02*
G75*
G03*
X-75166668Y-86500000I-2J500002D01*
G01*
X86611100Y86500000D02*
G75*
G03*
X86111104Y87000000I-500000J0D01*
G01*
X-112000000Y38285716D02*
G75*
G03*
X-111500000Y37785716I500001J1D01*
G01*
X23888884Y-86999984D02*
G75*
G03*
X24388884Y-86500000I16J499984D01*
G01*
X112000000Y73571429D02*
X112000000Y63142858D01*
X36833300Y86500000D02*
G75*
G03*
X36333328Y87000000I-500000J0D01*
G01*
X-25888892Y-87000008D02*
G75*
G03*
X-25388892Y-86500000I-8J500008D01*
G01*
X111999977Y-75571423D02*
G75*
G03*
X111500000Y-75071423I-499977J23D01*
G01*
X-100555556Y-87000000D02*
G75*
G03*
X-100055556Y-86500000I-1J500001D01*
G01*
X-73666668Y-87000000D02*
X-63222224Y-87000000D01*
X75666660Y87000040D02*
G75*
G03*
X75166660Y86500000I40J-500040D01*
G01*
D12*
X500000Y-83750000D02*
G75*
G03*
X500000Y-83750000I-500000J0D01*
G01*
D10*
X100555548Y-87000000D02*
X110999992Y-87000000D01*
X-48777780Y86999980D02*
G75*
G03*
X-49277780Y86500000I-20J-499980D01*
G01*
X25888884Y87000000D02*
X36333328Y87000000D01*
D12*
X109250000Y0D02*
G75*
G03*
X109250000Y0I-500000J0D01*
G01*
D10*
X86111104Y-87000004D02*
G75*
G03*
X86611104Y-86500000I-4J500004D01*
G01*
X100555548Y86999952D02*
G75*
G03*
X100055548Y86500000I-48J-499952D01*
G01*
X-13444448Y-86999952D02*
G75*
G03*
X-12944448Y-86500000I48J499952D01*
G01*
X75666660Y-87000000D02*
X86111104Y-87000000D01*
X-111000000Y-87000000D02*
X-100555556Y-87000000D01*
D11*
X-108225000Y83750000D02*
G75*
G03*
X-108225000Y83750000I-525000J0D01*
G01*
D10*
X112000000Y86000000D02*
G75*
G03*
X111000000Y87000000I-1000000J0D01*
G01*
X-112000000Y-25857139D02*
X-112000000Y-36285710D01*
X111500000Y-61642900D02*
G75*
G03*
X112000000Y-61142852I0J500000D01*
G01*
X-112000000Y-999997D02*
X-112000000Y-11428568D01*
X112000000Y-999997D02*
X112000000Y-11428568D01*
X-36333336Y-87000000D02*
X-25888892Y-87000000D01*
X111500000Y-11928600D02*
G75*
G03*
X112000000Y-11428568I0J500000D01*
G01*
X112000045Y23857145D02*
G75*
G03*
X111500000Y24357145I-500045J-45D01*
G01*
X-98555556Y87000000D02*
G75*
G03*
X-99055556Y86500000I1J-500001D01*
G01*
X-12944400Y86500000D02*
G75*
G03*
X-13444448Y87000000I-500000J0D01*
G01*
X-11444448Y87000048D02*
G75*
G03*
X-11944448Y86500000I48J-500048D01*
G01*
X50277800Y-86500000D02*
G75*
G03*
X50777772Y-87000000I500000J0D01*
G01*
X-112000000Y1000003D02*
G75*
G03*
X-111500000Y500003I500001J1D01*
G01*
D12*
X54875000Y83750000D02*
G75*
G03*
X54875000Y83750000I-500000J0D01*
G01*
D10*
X61722200Y86500000D02*
G75*
G03*
X61222216Y87000000I-500000J0D01*
G01*
X25388900Y-86500000D02*
G75*
G03*
X25888884Y-87000000I500000J0D01*
G01*
D12*
X-108250000Y0D02*
G75*
G03*
X-108250000Y0I-500000J0D01*
G01*
D10*
X112000003Y-999997D02*
G75*
G03*
X111500000Y-499997I-500003J-3D01*
G01*
X48777772Y-86999972D02*
G75*
G03*
X49277772Y-86500000I28J499972D01*
G01*
X99055500Y86500000D02*
G75*
G03*
X98555548Y87000000I-500000J0D01*
G01*
X-112000000Y13428574D02*
G75*
G03*
X-111500000Y12928574I500001J1D01*
G01*
X112000000Y23857145D02*
X112000000Y13428574D01*
X-112000000Y86000000D02*
X-112000000Y75571429D01*
X74166700Y86500000D02*
G75*
G03*
X73666660Y87000000I-500000J0D01*
G01*
D12*
X109250000Y41875000D02*
G75*
G03*
X109250000Y41875000I-500000J0D01*
G01*
D10*
X-112000000Y-48714281D02*
G75*
G03*
X-111500000Y-49214281I500001J1D01*
G01*
X-25388900Y86500000D02*
G75*
G03*
X-25888892Y87000000I-500000J0D01*
G01*
X-112000000Y-86000000D02*
G75*
G03*
X-111000000Y-87000000I999999J-1D01*
G01*
X112000000Y36285716D02*
X112000000Y25857145D01*
X-73666668Y87000000D02*
X-63222224Y87000000D01*
X-112000000Y-13428568D02*
X-112000000Y-23857139D01*
X-111500000Y-62642852D02*
G75*
G03*
X-112000000Y-63142852I1J-500001D01*
G01*
X-112000000Y48714287D02*
X-112000000Y38285716D01*
X100555548Y87000000D02*
X110999992Y87000000D01*
X111999990Y-38285710D02*
G75*
G03*
X111500000Y-37785710I-499990J10D01*
G01*
X-112000000Y-63142852D02*
X-112000000Y-73571423D01*
X25888884Y-87000000D02*
X36333328Y-87000000D01*
X-112000000Y11428574D02*
X-112000000Y1000003D01*
X38333328Y87000000D02*
X48777772Y87000000D01*
X111000000Y-87000000D02*
G75*
G03*
X112000000Y-86000000I0J1000000D01*
G01*
X112000000Y-13428568D02*
X112000000Y-23857139D01*
D11*
X109275000Y83750000D02*
G75*
G03*
X109275000Y83750000I-525000J0D01*
G01*
D10*
X-75166670Y86500000D02*
G75*
G03*
X-75666668Y87000000I-500000J0D01*
G01*
X-11944400Y-86500000D02*
G75*
G03*
X-11444448Y-87000000I500000J0D01*
G01*
X100055500Y-86500000D02*
G75*
G03*
X100555548Y-87000000I500000J0D01*
G01*
X50777772Y-87000000D02*
X61222216Y-87000000D01*
X-112000000Y25857145D02*
G75*
G03*
X-111500000Y25357145I500001J1D01*
G01*
X999996Y-87000000D02*
X11444440Y-87000000D01*
X-112000000Y-50714281D02*
X-112000000Y-61142852D01*
X13444440Y-87000000D02*
X23888884Y-87000000D01*
X-111500000Y11928574D02*
G75*
G03*
X-112000000Y11428574I1J-500001D01*
G01*
X-112000000Y73571429D02*
X-112000000Y63142858D01*
X112000029Y73571429D02*
G75*
G03*
X111500000Y74071429I-500029J-29D01*
G01*
X112000000Y-50714281D02*
X112000000Y-61142852D01*
D12*
X-53875000Y83750000D02*
G75*
G03*
X-53875000Y83750000I-500000J0D01*
G01*
D10*
X112000016Y36285716D02*
G75*
G03*
X111500000Y36785716I-500016J-16D01*
G01*
D12*
X500000Y83750000D02*
G75*
G03*
X500000Y83750000I-500000J0D01*
G01*
D10*
X36333328Y-87000028D02*
G75*
G03*
X36833328Y-86500000I-28J500028D01*
G01*
X111500000Y75071400D02*
G75*
G03*
X112000000Y75571429I0J500000D01*
G01*
X-50277800Y86500000D02*
G75*
G03*
X-50777780Y87000000I-500000J0D01*
G01*
X11944400Y86500000D02*
G75*
G03*
X11444440Y87000000I-500000J0D01*
G01*
X-63222224Y-86999976D02*
G75*
G03*
X-62722224Y-86500000I24J499976D01*
G01*
X-86111112Y87000000D02*
G75*
G03*
X-86611112Y86500000I1J-500001D01*
G01*
X-61222224Y87000024D02*
G75*
G03*
X-61722224Y86500000I24J-500024D01*
G01*
X112000000Y-25857139D02*
X112000000Y-36285710D01*
X-111000000Y87000000D02*
X-100555556Y87000000D01*
X999996Y87000004D02*
G75*
G03*
X499996Y86500000I4J-500004D01*
G01*
X50777772Y87000028D02*
G75*
G03*
X50277772Y86500000I28J-500028D01*
G01*
X-111500000Y-37785710D02*
G75*
G03*
X-112000000Y-38285710I1J-500001D01*
G01*
X-86111112Y87000000D02*
X-75666668Y87000000D01*
X11444440Y-87000040D02*
G75*
G03*
X11944440Y-86500000I-40J500040D01*
G01*
X-111500000Y-75071423D02*
G75*
G03*
X-112000000Y-75571423I1J-500001D01*
G01*
X88111104Y86999996D02*
G75*
G03*
X87611104Y86500000I-4J-499996D01*
G01*
X999996Y87000000D02*
X11444440Y87000000D01*
X73666660Y-86999960D02*
G75*
G03*
X74166660Y-86500000I40J499960D01*
G01*
X112000000Y-38285710D02*
X112000000Y-48714281D01*
X-74166700Y-86500000D02*
G75*
G03*
X-73666668Y-87000000I500000J0D01*
G01*
X-112000000Y50714287D02*
G75*
G03*
X-111500000Y50214287I500001J1D01*
G01*
X111999961Y-25857139D02*
G75*
G03*
X111500000Y-25357139I-499961J39D01*
G01*
X-112000000Y-75571423D02*
X-112000000Y-85999994D01*
X-111500000Y-50214281D02*
G75*
G03*
X-112000000Y-50714281I1J-500001D01*
G01*
X24388900Y86500000D02*
G75*
G03*
X23888884Y87000000I-500000J0D01*
G01*
X111500000Y62642900D02*
G75*
G03*
X112000000Y63142858I0J500000D01*
G01*
D12*
X-53875000Y-83750000D02*
G75*
G03*
X-53875000Y-83750000I-500000J0D01*
G01*
D10*
X-112000000Y36285716D02*
X-112000000Y25857145D01*
X-23888892Y-87000000D02*
X-13444448Y-87000000D01*
X13444440Y86999960D02*
G75*
G03*
X12944440Y86500000I-40J-499960D01*
G01*
X-98555556Y-87000000D02*
X-88111112Y-87000000D01*
X50777772Y87000000D02*
X61222216Y87000000D01*
X111500000Y-36785700D02*
G75*
G03*
X112000000Y-36285710I0J500000D01*
G01*
X-61222224Y-87000000D02*
X-50777780Y-87000000D01*
X-112000000Y75571429D02*
G75*
G03*
X-111500000Y75071429I500001J1D01*
G01*
X112000000Y-75571423D02*
X112000000Y-85999994D01*
X-112000000Y-36285710D02*
G75*
G03*
X-111500000Y-36785710I500001J1D01*
G01*
X-61722200Y-86500000D02*
G75*
G03*
X-61222224Y-87000000I500000J0D01*
G01*
X-111500000Y-12928568D02*
G75*
G03*
X-112000000Y-13428568I1J-500001D01*
G01*
X-48777780Y-87000000D02*
X-38333336Y-87000000D01*
X111500000Y37785700D02*
G75*
G03*
X112000000Y38285716I0J500000D01*
G01*
X-112000000Y23857145D02*
X-112000000Y13428574D01*
X63222216Y-87000000D02*
X73666660Y-87000000D01*
D12*
X-108250000Y41875000D02*
G75*
G03*
X-108250000Y41875000I-500000J0D01*
G01*
D10*
X-49277800Y-86500000D02*
G75*
G03*
X-48777780Y-87000000I500000J0D01*
G01*
X-99055556Y-86500000D02*
G75*
G03*
X-98555556Y-87000000I500001J1D01*
G01*
X111500000Y500000D02*
G75*
G03*
X112000000Y1000003I0J500000D01*
G01*
X12944400Y-86500000D02*
G75*
G03*
X13444440Y-87000000I500000J0D01*
G01*
X-50777780Y-87000020D02*
G75*
G03*
X-50277780Y-86500000I-20J500020D01*
G01*
X-100055556Y86500000D02*
G75*
G03*
X-100555556Y87000000I-500001J-1D01*
G01*
X-24388900Y-86500000D02*
G75*
G03*
X-23888892Y-87000000I500000J0D01*
G01*
X-88111112Y-87000000D02*
G75*
G03*
X-87611112Y-86500000I-1J500001D01*
G01*
X-36333336Y87000000D02*
X-25888892Y87000000D01*
X37833300Y-86500000D02*
G75*
G03*
X38333328Y-87000000I500000J0D01*
G01*
X-23888892Y86999992D02*
G75*
G03*
X-24388892Y86500000I-8J-499992D01*
G01*
X112000000Y11428574D02*
X112000000Y1000003D01*
X-38333336Y-86999964D02*
G75*
G03*
X-37833336Y-86500000I36J499964D01*
G01*
X112000000Y48714287D02*
X112000000Y38285716D01*
X88111104Y-87000000D02*
X98555548Y-87000000D01*
X87611100Y-86500000D02*
G75*
G03*
X88111104Y-87000000I500000J0D01*
G01*
X-11444448Y-87000000D02*
X-1000004Y-87000000D01*
X-111500000Y74071429D02*
G75*
G03*
X-112000000Y73571429I1J-500001D01*
G01*
X-23888892Y87000000D02*
X-13444448Y87000000D01*
X-98555556Y87000000D02*
X-88111112Y87000000D01*
D12*
X-108250000Y-41875000D02*
G75*
G03*
X-108250000Y-41875000I-500000J0D01*
G01*
D10*
X112000000Y86000000D02*
X112000000Y75571429D01*
X111500000Y50214300D02*
G75*
G03*
X112000000Y50714287I0J500000D01*
G01*
X-111500000Y24357145D02*
G75*
G03*
X-112000000Y23857145I1J-500001D01*
G01*
X-36833300Y-86500000D02*
G75*
G03*
X-36333336Y-87000000I500000J0D01*
G01*
X62722200Y-86500000D02*
G75*
G03*
X63222216Y-87000000I500000J0D01*
G01*
X-37833300Y86500000D02*
G75*
G03*
X-38333336Y87000000I-500000J0D01*
G01*
X-87611112Y86500000D02*
G75*
G03*
X-88111112Y87000000I-500001J-1D01*
G01*
X111500000Y12928600D02*
G75*
G03*
X112000000Y13428574I0J500000D01*
G01*
X63222216Y86999984D02*
G75*
G03*
X62722216Y86500000I-16J-499984D01*
G01*
X111999958Y61142858D02*
G75*
G03*
X111500000Y61642858I-499958J42D01*
G01*
D11*
X-108225000Y-83750000D02*
G75*
G03*
X-108225000Y-83750000I-525000J0D01*
G01*
D10*
X-61222224Y87000000D02*
X-50777780Y87000000D01*
X111500000Y25357100D02*
G75*
G03*
X112000000Y25857145I0J500000D01*
G01*
X111500000Y-74071400D02*
G75*
G03*
X112000000Y-73571423I0J500000D01*
G01*
X-1000004Y-86999996D02*
G75*
G03*
X-500004Y-86500000I4J499996D01*
G01*
X13444440Y87000000D02*
X23888884Y87000000D01*
X112000019Y-50714281D02*
G75*
G03*
X111500000Y-50214281I-500019J-19D01*
G01*
X-62722200Y86500000D02*
G75*
G03*
X-63222224Y87000000I-500000J0D01*
G01*
X49277800Y86500000D02*
G75*
G03*
X48777772Y87000000I-500000J0D01*
G01*
X-112000000Y61142858D02*
X-112000000Y50714287D01*
X112000000Y61142858D02*
X112000000Y50714287D01*
X111999974Y11428574D02*
G75*
G03*
X111500000Y11928574I-499974J26D01*
G01*
X112000032Y-13428568D02*
G75*
G03*
X111500000Y-12928568I-500032J-32D01*
G01*
D13*
G04 #@! TO.C,D11*
X4335289Y-8408940D03*
X5114711Y-7958940D03*
X4664711Y-7179518D03*
X3885289Y-7629518D03*
G04 #@! TD*
D14*
G04 #@! TO.C,C4*
X-1500000Y9420000D03*
X-1500000Y8460000D03*
G04 #@! TD*
D15*
G04 #@! TO.C,C5*
X-6050000Y7482959D03*
X-5570000Y6651575D03*
G04 #@! TD*
D16*
G04 #@! TO.C,D1*
X9450000Y-450000D03*
X9450000Y450000D03*
X8550000Y450000D03*
X8550000Y-450000D03*
G04 #@! TD*
G04 #@! TO.C,D4*
X450000Y9450000D03*
X-450000Y9450000D03*
X-450000Y8550000D03*
X450000Y8550000D03*
G04 #@! TD*
D17*
G04 #@! TO.C,D12*
X7958940Y-5114711D03*
X8408940Y-4335289D03*
X7629518Y-3885289D03*
X7179518Y-4664711D03*
G04 #@! TD*
D18*
G04 #@! TO.C,D8*
X-8408940Y-4335289D03*
X-7958940Y-5114711D03*
X-7179518Y-4664711D03*
X-7629518Y-3885289D03*
G04 #@! TD*
D16*
G04 #@! TO.C,D10*
X-450000Y-9450000D03*
X450000Y-9450000D03*
X450000Y-8550000D03*
X-450000Y-8550000D03*
G04 #@! TD*
G04 #@! TO.C,D7*
X-9450000Y450000D03*
X-9450000Y-450000D03*
X-8550000Y-450000D03*
X-8550000Y450000D03*
G04 #@! TD*
D19*
G04 #@! TO.C,D6*
X-7958940Y5114711D03*
X-8408940Y4335289D03*
X-7629518Y3885289D03*
X-7179518Y4664711D03*
G04 #@! TD*
D20*
G04 #@! TO.C,C7*
X-9480000Y-1500000D03*
X-8520000Y-1500000D03*
G04 #@! TD*
D21*
G04 #@! TO.C,D13*
X8850000Y2430000D03*
X8850000Y3270000D03*
G04 #@! TD*
D22*
G04 #@! TO.C,C8*
X-7415692Y-5990000D03*
X-6584308Y-5510000D03*
G04 #@! TD*
D23*
G04 #@! TO.C,C9*
X-3440000Y-8915692D03*
X-2960000Y-8084308D03*
G04 #@! TD*
D24*
G04 #@! TO.C,C11*
X6040000Y-7482959D03*
X5560000Y-6651575D03*
G04 #@! TD*
D25*
G04 #@! TO.C,C6*
X-8915692Y3440000D03*
X-8084308Y2960000D03*
G04 #@! TD*
D26*
G04 #@! TO.C,C10*
X1500000Y-9510000D03*
X1500000Y-8550000D03*
G04 #@! TD*
D27*
G04 #@! TO.C,D2*
X8408940Y4335289D03*
X7958940Y5114711D03*
X7179518Y4664711D03*
X7629518Y3885289D03*
G04 #@! TD*
D20*
G04 #@! TO.C,C1*
X8670000Y1470000D03*
X9630000Y1470000D03*
G04 #@! TD*
D28*
G04 #@! TO.C,C2*
X7415692Y5990000D03*
X6584308Y5510000D03*
G04 #@! TD*
D29*
G04 #@! TO.C,D5*
X-4335289Y8408940D03*
X-5114711Y7958940D03*
X-4664711Y7179518D03*
X-3885289Y7629518D03*
G04 #@! TD*
D30*
G04 #@! TO.C,C12*
X8965692Y-3490000D03*
X8134308Y-3010000D03*
G04 #@! TD*
D31*
G04 #@! TO.C,D9*
X-5114711Y-7958940D03*
X-4335289Y-8408940D03*
X-3885289Y-7629518D03*
X-4664711Y-7179518D03*
G04 #@! TD*
D32*
G04 #@! TO.C,D3*
X5114711Y7958940D03*
X4335289Y8408940D03*
X3885289Y7629518D03*
X4664711Y7179518D03*
G04 #@! TD*
D33*
G04 #@! TO.C,R1*
X9420000Y-1650000D03*
X8400000Y-1650000D03*
G04 #@! TD*
D34*
G04 #@! TO.C,C3*
X3440000Y8915692D03*
X2960000Y8084308D03*
G04 #@! TD*
M02*
