  0
SECTION
  2
HEADER
  9
$ANGBASE
  50
0.0
  9
$ANGDIR
  70
1
  9
$MEASUREMENT
  70
1
  0
ENDSEC
  0
SECTION
  2
TABLES
  0
TABLE
  2
LTYPE
  70
4
  0
LTYPE
  5
40F
  2
CONTINUOUS
  70
0
  3
Solid line
  72
65
  73
0
  40
0.0
  0
LTYPE
  5
410
  2
DASHDOT
 70
0
  3
Dash Dot ____ _ ____ _
 72
65
 73
4
 40
2.0
 49
1.25
 49
-0.25
 49
0.25
 49
-0.25
  0
LTYPE
  5
411
  2
DASHED
 70
0
  3
Dashed __ __ __ __ __
 72
65
 73
2
 40
0.75
 49
0.5
 49
-0.25
  0
LTYPE
  5
43B
  2
DOTTED
 70
0
  3
Dotted .  .  .  .
 72
65
 73
2
 40
0.2
 49
0.0
 49
-0.2
  0
ENDTAB
  0
TABLE
  2
STYLE
  70
4
  0
STYLE
  2
KICAD
  70
0
  40
0
  41
1
  42
1
  50
0
  71
0
  3
isocp.shx
  0
STYLE
  2
KICADB
  70
0
  40
0
  41
1
  42
1
  50
0
  71
0
  3
isocp.shx
  0
STYLE
  2
KICADI
  70
0
  40
0
  41
1
  42
1
  50
15
  71
0
  3
isocp.shx
  0
STYLE
  2
KICADBI
  70
0
  40
0
  41
1
  42
1
  50
15
  71
0
  3
isocp.shx
  0
ENDTAB
  0
TABLE
  2
LAYER
  70
1
  0
LAYER
  2
BLACK
  70
0
  62
7
  6
CONTINUOUS
  0
ENDTAB
  0
ENDSEC
  0
SECTION
  2
ENTITIES
0
LINE
8
BLACK
6
CONTINUOUS
10
79.8
20
-69.7
11
79.3
21
-69.7
0
LINE
8
BLACK
6
CONTINUOUS
10
79.3
20
-69.7
11
79.3
21
-69.2
0
LINE
8
BLACK
6
CONTINUOUS
10
79.3
20
-69.2
11
79.8
21
-69.2
0
LINE
8
BLACK
6
CONTINUOUS
10
79.8
20
-69.2
11
79.8
21
-69.7
0
LINE
8
BLACK
6
CONTINUOUS
10
80.7
20
-69.7
11
80.2
21
-69.7
0
LINE
8
BLACK
6
CONTINUOUS
10
80.2
20
-69.7
11
80.2
21
-69.2
0
LINE
8
BLACK
6
CONTINUOUS
10
80.2
20
-69.2
11
80.7
21
-69.2
0
LINE
8
BLACK
6
CONTINUOUS
10
80.7
20
-69.2
11
80.7
21
-69.7
0
LINE
8
BLACK
6
CONTINUOUS
10
81.6244
20
-69.2404
11
81.6536
21
-69.2599
0
LINE
8
BLACK
6
CONTINUOUS
10
81.6536
20
-69.2599
11
81.6731
21
-69.2891
0
LINE
8
BLACK
6
CONTINUOUS
10
81.6731
20
-69.2891
11
81.68
21
-69.3235
0
LINE
8
BLACK
6
CONTINUOUS
10
81.68
20
-69.3235
11
81.68
21
-69.6015
0
LINE
8
BLACK
6
CONTINUOUS
10
81.68
20
-69.6015
11
81.6731
21
-69.6359
0
LINE
8
BLACK
6
CONTINUOUS
10
81.6731
20
-69.6359
11
81.6536
21
-69.6651
0
LINE
8
BLACK
6
CONTINUOUS
10
81.6536
20
-69.6651
11
81.6244
21
-69.6846
0
LINE
8
BLACK
6
CONTINUOUS
10
81.6244
20
-69.6846
11
81.59
21
-69.6915
0
LINE
8
BLACK
6
CONTINUOUS
10
81.59
20
-69.6915
11
81.41
21
-69.6915
0
LINE
8
BLACK
6
CONTINUOUS
10
81.41
20
-69.6915
11
81.3756
21
-69.6846
0
LINE
8
BLACK
6
CONTINUOUS
10
81.3756
20
-69.6846
11
81.3464
21
-69.6651
0
LINE
8
BLACK
6
CONTINUOUS
10
81.3464
20
-69.6651
11
81.3269
21
-69.6359
0
LINE
8
BLACK
6
CONTINUOUS
10
81.3269
20
-69.6359
11
81.32
21
-69.6015
0
LINE
8
BLACK
6
CONTINUOUS
10
81.32
20
-69.6015
11
81.32
21
-69.3235
0
LINE
8
BLACK
6
CONTINUOUS
10
81.32
20
-69.3235
11
81.3269
21
-69.2891
0
LINE
8
BLACK
6
CONTINUOUS
10
81.3269
20
-69.2891
11
81.3464
21
-69.2599
0
LINE
8
BLACK
6
CONTINUOUS
10
81.3464
20
-69.2599
11
81.3756
21
-69.2404
0
LINE
8
BLACK
6
CONTINUOUS
10
81.3756
20
-69.2404
11
81.41
21
-69.2335
0
LINE
8
BLACK
6
CONTINUOUS
10
81.41
20
-69.2335
11
81.59
21
-69.2335
0
LINE
8
BLACK
6
CONTINUOUS
10
81.59
20
-69.2335
11
81.6244
21
-69.2404
0
LINE
8
BLACK
6
CONTINUOUS
10
76.6203
20
-68.6312
11
76.7762
21
-68.7212
0
LINE
8
BLACK
6
CONTINUOUS
10
76.7762
20
-68.7212
11
76.8026
21
-68.7444
0
LINE
8
BLACK
6
CONTINUOUS
10
76.8026
20
-68.7444
11
76.8181
21
-68.7759
0
LINE
8
BLACK
6
CONTINUOUS
10
76.8181
20
-68.7759
11
76.8204
21
-68.8109
0
LINE
8
BLACK
6
CONTINUOUS
10
76.8204
20
-68.8109
11
76.8091
21
-68.8442
0
LINE
8
BLACK
6
CONTINUOUS
10
76.8091
20
-68.8442
11
76.6701
21
-69.0849
0
LINE
8
BLACK
6
CONTINUOUS
10
76.6701
20
-69.0849
11
76.647
21
-69.1113
0
LINE
8
BLACK
6
CONTINUOUS
10
76.647
20
-69.1113
11
76.6155
21
-69.1269
0
LINE
8
BLACK
6
CONTINUOUS
10
76.6155
20
-69.1269
11
76.5804
21
-69.1292
0
LINE
8
BLACK
6
CONTINUOUS
10
76.5804
20
-69.1292
11
76.5472
21
-69.1179
0
LINE
8
BLACK
6
CONTINUOUS
10
76.5472
20
-69.1179
11
76.3913
21
-69.0279
0
LINE
8
BLACK
6
CONTINUOUS
10
76.3913
20
-69.0279
11
76.3649
21
-69.0047
0
LINE
8
BLACK
6
CONTINUOUS
10
76.3649
20
-69.0047
11
76.3494
21
-68.9732
0
LINE
8
BLACK
6
CONTINUOUS
10
76.3494
20
-68.9732
11
76.3471
21
-68.9382
0
LINE
8
BLACK
6
CONTINUOUS
10
76.3471
20
-68.9382
11
76.3584
21
-68.9049
0
LINE
8
BLACK
6
CONTINUOUS
10
76.3584
20
-68.9049
11
76.4974
21
-68.6642
0
LINE
8
BLACK
6
CONTINUOUS
10
76.4974
20
-68.6642
11
76.5205
21
-68.6378
0
LINE
8
BLACK
6
CONTINUOUS
10
76.5205
20
-68.6378
11
76.552
21
-68.6222
0
LINE
8
BLACK
6
CONTINUOUS
10
76.552
20
-68.6222
11
76.5871
21
-68.6199
0
LINE
8
BLACK
6
CONTINUOUS
10
76.5871
20
-68.6199
11
76.6203
21
-68.6312
0
LINE
8
BLACK
6
CONTINUOUS
10
81.6244
20
-68.3754
11
81.6536
21
-68.3949
0
LINE
8
BLACK
6
CONTINUOUS
10
81.6536
20
-68.3949
11
81.6731
21
-68.4241
0
LINE
8
BLACK
6
CONTINUOUS
10
81.6731
20
-68.4241
11
81.68
21
-68.4585
0
LINE
8
BLACK
6
CONTINUOUS
10
81.68
20
-68.4585
11
81.68
21
-68.7365
0
LINE
8
BLACK
6
CONTINUOUS
10
81.68
20
-68.7365
11
81.6731
21
-68.7709
0
LINE
8
BLACK
6
CONTINUOUS
10
81.6731
20
-68.7709
11
81.6536
21
-68.8001
0
LINE
8
BLACK
6
CONTINUOUS
10
81.6536
20
-68.8001
11
81.6244
21
-68.8196
0
LINE
8
BLACK
6
CONTINUOUS
10
81.6244
20
-68.8196
11
81.59
21
-68.8265
0
LINE
8
BLACK
6
CONTINUOUS
10
81.59
20
-68.8265
11
81.41
21
-68.8265
0
LINE
8
BLACK
6
CONTINUOUS
10
81.41
20
-68.8265
11
81.3756
21
-68.8196
0
LINE
8
BLACK
6
CONTINUOUS
10
81.3756
20
-68.8196
11
81.3464
21
-68.8001
0
LINE
8
BLACK
6
CONTINUOUS
10
81.3464
20
-68.8001
11
81.3269
21
-68.7709
0
LINE
8
BLACK
6
CONTINUOUS
10
81.3269
20
-68.7709
11
81.32
21
-68.7365
0
LINE
8
BLACK
6
CONTINUOUS
10
81.32
20
-68.7365
11
81.32
21
-68.4585
0
LINE
8
BLACK
6
CONTINUOUS
10
81.32
20
-68.4585
11
81.3269
21
-68.4241
0
LINE
8
BLACK
6
CONTINUOUS
10
81.3269
20
-68.4241
11
81.3464
21
-68.3949
0
LINE
8
BLACK
6
CONTINUOUS
10
81.3464
20
-68.3949
11
81.3756
21
-68.3754
0
LINE
8
BLACK
6
CONTINUOUS
10
81.3756
20
-68.3754
11
81.41
21
-68.3685
0
LINE
8
BLACK
6
CONTINUOUS
10
81.41
20
-68.3685
11
81.59
21
-68.3685
0
LINE
8
BLACK
6
CONTINUOUS
10
81.59
20
-68.3685
11
81.6244
21
-68.3754
0
LINE
8
BLACK
6
CONTINUOUS
10
79.8
20
-68.8
11
79.3
21
-68.8
0
LINE
8
BLACK
6
CONTINUOUS
10
79.3
20
-68.8
11
79.3
21
-68.3
0
LINE
8
BLACK
6
CONTINUOUS
10
79.3
20
-68.3
11
79.8
21
-68.3
0
LINE
8
BLACK
6
CONTINUOUS
10
79.8
20
-68.3
11
79.8
21
-68.8
0
LINE
8
BLACK
6
CONTINUOUS
10
80.7
20
-68.8
11
80.2
21
-68.8
0
LINE
8
BLACK
6
CONTINUOUS
10
80.2
20
-68.8
11
80.2
21
-68.3
0
LINE
8
BLACK
6
CONTINUOUS
10
80.2
20
-68.3
11
80.7
21
-68.3
0
LINE
8
BLACK
6
CONTINUOUS
10
80.7
20
-68.3
11
80.7
21
-68.8
0
LINE
8
BLACK
6
CONTINUOUS
10
76.0062
20
-68.3174
11
75.7562
21
-68.7504
0
LINE
8
BLACK
6
CONTINUOUS
10
75.7562
20
-68.7504
11
75.3232
21
-68.5004
0
LINE
8
BLACK
6
CONTINUOUS
10
75.3232
20
-68.5004
11
75.5732
21
-68.0674
0
LINE
8
BLACK
6
CONTINUOUS
10
75.5732
20
-68.0674
11
76.0062
21
-68.3174
0
LINE
8
BLACK
6
CONTINUOUS
10
84.6768
20
-68.5004
11
84.2438
21
-68.7504
0
LINE
8
BLACK
6
CONTINUOUS
10
84.2438
20
-68.7504
11
83.9938
21
-68.3174
0
LINE
8
BLACK
6
CONTINUOUS
10
83.9938
20
-68.3174
11
84.4268
21
-68.0674
0
LINE
8
BLACK
6
CONTINUOUS
10
84.4268
20
-68.0674
11
84.6768
21
-68.5004
0
LINE
8
BLACK
6
CONTINUOUS
10
77.0528
20
-67.8821
11
77.2087
21
-67.9721
0
LINE
8
BLACK
6
CONTINUOUS
10
77.2087
20
-67.9721
11
77.2351
21
-67.9953
0
LINE
8
BLACK
6
CONTINUOUS
10
77.2351
20
-67.9953
11
77.2506
21
-68.0268
0
LINE
8
BLACK
6
CONTINUOUS
10
77.2506
20
-68.0268
11
77.2529
21
-68.0618
0
LINE
8
BLACK
6
CONTINUOUS
10
77.2529
20
-68.0618
11
77.2416
21
-68.0951
0
LINE
8
BLACK
6
CONTINUOUS
10
77.2416
20
-68.0951
11
77.1026
21
-68.3358
0
LINE
8
BLACK
6
CONTINUOUS
10
77.1026
20
-68.3358
11
77.0795
21
-68.3622
0
LINE
8
BLACK
6
CONTINUOUS
10
77.0795
20
-68.3622
11
77.048
21
-68.3778
0
LINE
8
BLACK
6
CONTINUOUS
10
77.048
20
-68.3778
11
77.0129
21
-68.3801
0
LINE
8
BLACK
6
CONTINUOUS
10
77.0129
20
-68.3801
11
76.9797
21
-68.3688
0
LINE
8
BLACK
6
CONTINUOUS
10
76.9797
20
-68.3688
11
76.8238
21
-68.2788
0
LINE
8
BLACK
6
CONTINUOUS
10
76.8238
20
-68.2788
11
76.7974
21
-68.2556
0
LINE
8
BLACK
6
CONTINUOUS
10
76.7974
20
-68.2556
11
76.7819
21
-68.2241
0
LINE
8
BLACK
6
CONTINUOUS
10
76.7819
20
-68.2241
11
76.7796
21
-68.1891
0
LINE
8
BLACK
6
CONTINUOUS
10
76.7796
20
-68.1891
11
76.7909
21
-68.1558
0
LINE
8
BLACK
6
CONTINUOUS
10
76.7909
20
-68.1558
11
76.9299
21
-67.9151
0
LINE
8
BLACK
6
CONTINUOUS
10
76.9299
20
-67.9151
11
76.953
21
-67.8887
0
LINE
8
BLACK
6
CONTINUOUS
10
76.953
20
-67.8887
11
76.9845
21
-67.8731
0
LINE
8
BLACK
6
CONTINUOUS
10
76.9845
20
-67.8731
11
77.0196
21
-67.8708
0
LINE
8
BLACK
6
CONTINUOUS
10
77.0196
20
-67.8708
11
77.0528
21
-67.8821
0
LINE
8
BLACK
6
CONTINUOUS
10
75.2268
20
-67.8674
11
74.9768
21
-68.3004
0
LINE
8
BLACK
6
CONTINUOUS
10
74.9768
20
-68.3004
11
74.5438
21
-68.0504
0
LINE
8
BLACK
6
CONTINUOUS
10
74.5438
20
-68.0504
11
74.7938
21
-67.6174
0
LINE
8
BLACK
6
CONTINUOUS
10
74.7938
20
-67.6174
11
75.2268
21
-67.8674
0
LINE
8
BLACK
6
CONTINUOUS
10
85.4562
20
-68.0504
11
85.0232
21
-68.3004
0
LINE
8
BLACK
6
CONTINUOUS
10
85.0232
20
-68.3004
11
84.7732
21
-67.8674
0
LINE
8
BLACK
6
CONTINUOUS
10
84.7732
20
-67.8674
11
85.2062
21
-67.6174
0
LINE
8
BLACK
6
CONTINUOUS
10
85.2062
20
-67.6174
11
85.4562
21
-68.0504
0
LINE
8
BLACK
6
CONTINUOUS
10
76.4562
20
-67.538
11
76.2062
21
-67.971
0
LINE
8
BLACK
6
CONTINUOUS
10
76.2062
20
-67.971
11
75.7732
21
-67.721
0
LINE
8
BLACK
6
CONTINUOUS
10
75.7732
20
-67.721
11
76.0232
21
-67.288
0
LINE
8
BLACK
6
CONTINUOUS
10
76.0232
20
-67.288
11
76.4562
21
-67.538
0
LINE
8
BLACK
6
CONTINUOUS
10
84.2268
20
-67.721
11
83.7938
21
-67.971
0
LINE
8
BLACK
6
CONTINUOUS
10
83.7938
20
-67.971
11
83.5438
21
-67.538
0
LINE
8
BLACK
6
CONTINUOUS
10
83.5438
20
-67.538
11
83.9768
21
-67.288
0
LINE
8
BLACK
6
CONTINUOUS
10
83.9768
20
-67.288
11
84.2268
21
-67.721
0
LINE
8
BLACK
6
CONTINUOUS
10
86.048
20
-67.1895
11
86.0795
21
-67.205
0
LINE
8
BLACK
6
CONTINUOUS
10
86.0795
20
-67.205
11
86.1026
21
-67.2314
0
LINE
8
BLACK
6
CONTINUOUS
10
86.1026
20
-67.2314
11
86.2416
21
-67.4722
0
LINE
8
BLACK
6
CONTINUOUS
10
86.2416
20
-67.4722
11
86.2529
21
-67.5055
0
LINE
8
BLACK
6
CONTINUOUS
10
86.2529
20
-67.5055
11
86.2506
21
-67.5405
0
LINE
8
BLACK
6
CONTINUOUS
10
86.2506
20
-67.5405
11
86.2351
21
-67.572
0
LINE
8
BLACK
6
CONTINUOUS
10
86.2351
20
-67.572
11
86.2087
21
-67.5951
0
LINE
8
BLACK
6
CONTINUOUS
10
86.2087
20
-67.5951
11
86.0528
21
-67.6851
0
LINE
8
BLACK
6
CONTINUOUS
10
86.0528
20
-67.6851
11
86.0196
21
-67.6964
0
LINE
8
BLACK
6
CONTINUOUS
10
86.0196
20
-67.6964
11
85.9845
21
-67.6941
0
LINE
8
BLACK
6
CONTINUOUS
10
85.9845
20
-67.6941
11
85.953
21
-67.6786
0
LINE
8
BLACK
6
CONTINUOUS
10
85.953
20
-67.6786
11
85.9299
21
-67.6522
0
LINE
8
BLACK
6
CONTINUOUS
10
85.9299
20
-67.6522
11
85.7909
21
-67.4114
0
LINE
8
BLACK
6
CONTINUOUS
10
85.7909
20
-67.4114
11
85.7796
21
-67.3782
0
LINE
8
BLACK
6
CONTINUOUS
10
85.7796
20
-67.3782
11
85.7819
21
-67.3432
0
LINE
8
BLACK
6
CONTINUOUS
10
85.7819
20
-67.3432
11
85.7974
21
-67.3117
0
LINE
8
BLACK
6
CONTINUOUS
10
85.7974
20
-67.3117
11
85.8238
21
-67.2885
0
LINE
8
BLACK
6
CONTINUOUS
10
85.8238
20
-67.2885
11
85.9797
21
-67.1985
0
LINE
8
BLACK
6
CONTINUOUS
10
85.9797
20
-67.1985
11
86.0129
21
-67.1872
0
LINE
8
BLACK
6
CONTINUOUS
10
86.0129
20
-67.1872
11
86.048
21
-67.1895
0
LINE
8
BLACK
6
CONTINUOUS
10
75.6768
20
-67.088
11
75.4268
21
-67.521
0
LINE
8
BLACK
6
CONTINUOUS
10
75.4268
20
-67.521
11
74.9938
21
-67.271
0
LINE
8
BLACK
6
CONTINUOUS
10
74.9938
20
-67.271
11
75.2438
21
-66.838
0
LINE
8
BLACK
6
CONTINUOUS
10
75.2438
20
-66.838
11
75.6768
21
-67.088
0
LINE
8
BLACK
6
CONTINUOUS
10
85.0062
20
-67.271
11
84.5732
21
-67.521
0
LINE
8
BLACK
6
CONTINUOUS
10
84.5732
20
-67.521
11
84.3232
21
-67.088
0
LINE
8
BLACK
6
CONTINUOUS
10
84.3232
20
-67.088
11
84.7562
21
-66.838
0
LINE
8
BLACK
6
CONTINUOUS
10
84.7562
20
-66.838
11
85.0062
21
-67.271
0
LINE
8
BLACK
6
CONTINUOUS
10
85.6155
20
-66.4404
11
85.647
21
-66.4559
0
LINE
8
BLACK
6
CONTINUOUS
10
85.647
20
-66.4559
11
85.6701
21
-66.4823
0
LINE
8
BLACK
6
CONTINUOUS
10
85.6701
20
-66.4823
11
85.8091
21
-66.7231
0
LINE
8
BLACK
6
CONTINUOUS
10
85.8091
20
-66.7231
11
85.8204
21
-66.7563
0
LINE
8
BLACK
6
CONTINUOUS
10
85.8204
20
-66.7563
11
85.8181
21
-66.7914
0
LINE
8
BLACK
6
CONTINUOUS
10
85.8181
20
-66.7914
11
85.8026
21
-66.8229
0
LINE
8
BLACK
6
CONTINUOUS
10
85.8026
20
-66.8229
11
85.7762
21
-66.846
0
LINE
8
BLACK
6
CONTINUOUS
10
85.7762
20
-66.846
11
85.6203
21
-66.936
0
LINE
8
BLACK
6
CONTINUOUS
10
85.6203
20
-66.936
11
85.5871
21
-66.9473
0
LINE
8
BLACK
6
CONTINUOUS
10
85.5871
20
-66.9473
11
85.552
21
-66.945
0
LINE
8
BLACK
6
CONTINUOUS
10
85.552
20
-66.945
11
85.5205
21
-66.9295
0
LINE
8
BLACK
6
CONTINUOUS
10
85.5205
20
-66.9295
11
85.4974
21
-66.9031
0
LINE
8
BLACK
6
CONTINUOUS
10
85.4974
20
-66.9031
11
85.3584
21
-66.6623
0
LINE
8
BLACK
6
CONTINUOUS
10
85.3584
20
-66.6623
11
85.3471
21
-66.6291
0
LINE
8
BLACK
6
CONTINUOUS
10
85.3471
20
-66.6291
11
85.3494
21
-66.594
0
LINE
8
BLACK
6
CONTINUOUS
10
85.3494
20
-66.594
11
85.3649
21
-66.5625
0
LINE
8
BLACK
6
CONTINUOUS
10
85.3649
20
-66.5625
11
85.3913
21
-66.5394
0
LINE
8
BLACK
6
CONTINUOUS
10
85.3913
20
-66.5394
11
85.5472
21
-66.4494
0
LINE
8
BLACK
6
CONTINUOUS
10
85.5472
20
-66.4494
11
85.5804
21
-66.4381
0
LINE
8
BLACK
6
CONTINUOUS
10
85.5804
20
-66.4381
11
85.6155
21
-66.4404
0
LINE
8
BLACK
6
CONTINUOUS
10
72.7241
20
-65.7319
11
72.7556
21
-65.7474
0
LINE
8
BLACK
6
CONTINUOUS
10
72.7556
20
-65.7474
11
72.7788
21
-65.7738
0
LINE
8
BLACK
6
CONTINUOUS
10
72.7788
20
-65.7738
11
72.8688
21
-65.9297
0
LINE
8
BLACK
6
CONTINUOUS
10
72.8688
20
-65.9297
11
72.8801
21
-65.9629
0
LINE
8
BLACK
6
CONTINUOUS
10
72.8801
20
-65.9629
11
72.8778
21
-65.998
0
LINE
8
BLACK
6
CONTINUOUS
10
72.8778
20
-65.998
11
72.8622
21
-66.0295
0
LINE
8
BLACK
6
CONTINUOUS
10
72.8622
20
-66.0295
11
72.8358
21
-66.0526
0
LINE
8
BLACK
6
CONTINUOUS
10
72.8358
20
-66.0526
11
72.5951
21
-66.1916
0
LINE
8
BLACK
6
CONTINUOUS
10
72.5951
20
-66.1916
11
72.5618
21
-66.2029
0
LINE
8
BLACK
6
CONTINUOUS
10
72.5618
20
-66.2029
11
72.5268
21
-66.2006
0
LINE
8
BLACK
6
CONTINUOUS
10
72.5268
20
-66.2006
11
72.4953
21
-66.1851
0
LINE
8
BLACK
6
CONTINUOUS
10
72.4953
20
-66.1851
11
72.4721
21
-66.1587
0
LINE
8
BLACK
6
CONTINUOUS
10
72.4721
20
-66.1587
11
72.3821
21
-66.0028
0
LINE
8
BLACK
6
CONTINUOUS
10
72.3821
20
-66.0028
11
72.3708
21
-65.9696
0
LINE
8
BLACK
6
CONTINUOUS
10
72.3708
20
-65.9696
11
72.3731
21
-65.9345
0
LINE
8
BLACK
6
CONTINUOUS
10
72.3731
20
-65.9345
11
72.3887
21
-65.903
0
LINE
8
BLACK
6
CONTINUOUS
10
72.3887
20
-65.903
11
72.4151
21
-65.8799
0
LINE
8
BLACK
6
CONTINUOUS
10
72.4151
20
-65.8799
11
72.6558
21
-65.7409
0
LINE
8
BLACK
6
CONTINUOUS
10
72.6558
20
-65.7409
11
72.6891
21
-65.7296
0
LINE
8
BLACK
6
CONTINUOUS
10
72.6891
20
-65.7296
11
72.7241
21
-65.7319
0
LINE
8
BLACK
6
CONTINUOUS
10
73.4732
20
-65.2994
11
73.5047
21
-65.3149
0
LINE
8
BLACK
6
CONTINUOUS
10
73.5047
20
-65.3149
11
73.5279
21
-65.3413
0
LINE
8
BLACK
6
CONTINUOUS
10
73.5279
20
-65.3413
11
73.6179
21
-65.4972
0
LINE
8
BLACK
6
CONTINUOUS
10
73.6179
20
-65.4972
11
73.6292
21
-65.5304
0
LINE
8
BLACK
6
CONTINUOUS
10
73.6292
20
-65.5304
11
73.6269
21
-65.5655
0
LINE
8
BLACK
6
CONTINUOUS
10
73.6269
20
-65.5655
11
73.6113
21
-65.597
0
LINE
8
BLACK
6
CONTINUOUS
10
73.6113
20
-65.597
11
73.5849
21
-65.6201
0
LINE
8
BLACK
6
CONTINUOUS
10
73.5849
20
-65.6201
11
73.3442
21
-65.7591
0
LINE
8
BLACK
6
CONTINUOUS
10
73.3442
20
-65.7591
11
73.3109
21
-65.7704
0
LINE
8
BLACK
6
CONTINUOUS
10
73.3109
20
-65.7704
11
73.2759
21
-65.7681
0
LINE
8
BLACK
6
CONTINUOUS
10
73.2759
20
-65.7681
11
73.2444
21
-65.7526
0
LINE
8
BLACK
6
CONTINUOUS
10
73.2444
20
-65.7526
11
73.2212
21
-65.7262
0
LINE
8
BLACK
6
CONTINUOUS
10
73.2212
20
-65.7262
11
73.1312
21
-65.5703
0
LINE
8
BLACK
6
CONTINUOUS
10
73.1312
20
-65.5703
11
73.1199
21
-65.5371
0
LINE
8
BLACK
6
CONTINUOUS
10
73.1199
20
-65.5371
11
73.1222
21
-65.502
0
LINE
8
BLACK
6
CONTINUOUS
10
73.1222
20
-65.502
11
73.1378
21
-65.4705
0
LINE
8
BLACK
6
CONTINUOUS
10
73.1378
20
-65.4705
11
73.1642
21
-65.4474
0
LINE
8
BLACK
6
CONTINUOUS
10
73.1642
20
-65.4474
11
73.4049
21
-65.3084
0
LINE
8
BLACK
6
CONTINUOUS
10
73.4049
20
-65.3084
11
73.4382
21
-65.2971
0
LINE
8
BLACK
6
CONTINUOUS
10
73.4382
20
-65.2971
11
73.4732
21
-65.2994
0
LINE
8
BLACK
6
CONTINUOUS
10
72.3826
20
-65.2062
11
71.9496
21
-65.4562
0
LINE
8
BLACK
6
CONTINUOUS
10
71.9496
20
-65.4562
11
71.6996
21
-65.0232
0
LINE
8
BLACK
6
CONTINUOUS
10
71.6996
20
-65.0232
11
72.1326
21
-64.7732
0
LINE
8
BLACK
6
CONTINUOUS
10
72.1326
20
-64.7732
11
72.3826
21
-65.2062
0
LINE
8
BLACK
6
CONTINUOUS
10
88.3004
20
-65.0232
11
88.0504
21
-65.4562
0
LINE
8
BLACK
6
CONTINUOUS
10
88.0504
20
-65.4562
11
87.6174
21
-65.2062
0
LINE
8
BLACK
6
CONTINUOUS
10
87.6174
20
-65.2062
11
87.8674
21
-64.7732
0
LINE
8
BLACK
6
CONTINUOUS
10
87.8674
20
-64.7732
11
88.3004
21
-65.0232
0
LINE
8
BLACK
6
CONTINUOUS
10
73.162
20
-64.7562
11
72.729
21
-65.0062
0
LINE
8
BLACK
6
CONTINUOUS
10
72.729
20
-65.0062
11
72.479
21
-64.5732
0
LINE
8
BLACK
6
CONTINUOUS
10
72.479
20
-64.5732
11
72.912
21
-64.3232
0
LINE
8
BLACK
6
CONTINUOUS
10
72.912
20
-64.3232
11
73.162
21
-64.7562
0
LINE
8
BLACK
6
CONTINUOUS
10
87.521
20
-64.5732
11
87.271
21
-65.0062
0
LINE
8
BLACK
6
CONTINUOUS
10
87.271
20
-65.0062
11
86.838
21
-64.7562
0
LINE
8
BLACK
6
CONTINUOUS
10
86.838
20
-64.7562
11
87.088
21
-64.3232
0
LINE
8
BLACK
6
CONTINUOUS
10
87.088
20
-64.3232
11
87.521
21
-64.5732
0
LINE
8
BLACK
6
CONTINUOUS
10
71.9326
20
-64.4268
11
71.4996
21
-64.6768
0
LINE
8
BLACK
6
CONTINUOUS
10
71.4996
20
-64.6768
11
71.2496
21
-64.2438
0
LINE
8
BLACK
6
CONTINUOUS
10
71.2496
20
-64.2438
11
71.6826
21
-63.9938
0
LINE
8
BLACK
6
CONTINUOUS
10
71.6826
20
-63.9938
11
71.9326
21
-64.4268
0
LINE
8
BLACK
6
CONTINUOUS
10
88.7504
20
-64.2438
11
88.5004
21
-64.6768
0
LINE
8
BLACK
6
CONTINUOUS
10
88.5004
20
-64.6768
11
88.0674
21
-64.4268
0
LINE
8
BLACK
6
CONTINUOUS
10
88.0674
20
-64.4268
11
88.3174
21
-63.9938
0
LINE
8
BLACK
6
CONTINUOUS
10
88.3174
20
-63.9938
11
88.7504
21
-64.2438
0
LINE
8
BLACK
6
CONTINUOUS
10
72.712
20
-63.9768
11
72.279
21
-64.2268
0
LINE
8
BLACK
6
CONTINUOUS
10
72.279
20
-64.2268
11
72.029
21
-63.7938
0
LINE
8
BLACK
6
CONTINUOUS
10
72.029
20
-63.7938
11
72.462
21
-63.5438
0
LINE
8
BLACK
6
CONTINUOUS
10
72.462
20
-63.5438
11
72.712
21
-63.9768
0
LINE
8
BLACK
6
CONTINUOUS
10
87.971
20
-63.7938
11
87.721
21
-64.2268
0
LINE
8
BLACK
6
CONTINUOUS
10
87.721
20
-64.2268
11
87.288
21
-63.9768
0
LINE
8
BLACK
6
CONTINUOUS
10
87.288
20
-63.9768
11
87.538
21
-63.5438
0
LINE
8
BLACK
6
CONTINUOUS
10
87.538
20
-63.5438
11
87.971
21
-63.7938
0
LINE
8
BLACK
6
CONTINUOUS
10
88.8942
20
-63.2409
11
89.1349
21
-63.3799
0
LINE
8
BLACK
6
CONTINUOUS
10
89.1349
20
-63.3799
11
89.1613
21
-63.403
0
LINE
8
BLACK
6
CONTINUOUS
10
89.1613
20
-63.403
11
89.1769
21
-63.4345
0
LINE
8
BLACK
6
CONTINUOUS
10
89.1769
20
-63.4345
11
89.1792
21
-63.4696
0
LINE
8
BLACK
6
CONTINUOUS
10
89.1792
20
-63.4696
11
89.1679
21
-63.5028
0
LINE
8
BLACK
6
CONTINUOUS
10
89.1679
20
-63.5028
11
89.0779
21
-63.6587
0
LINE
8
BLACK
6
CONTINUOUS
10
89.0779
20
-63.6587
11
89.0547
21
-63.6851
0
LINE
8
BLACK
6
CONTINUOUS
10
89.0547
20
-63.6851
11
89.0232
21
-63.7006
0
LINE
8
BLACK
6
CONTINUOUS
10
89.0232
20
-63.7006
11
88.9882
21
-63.7029
0
LINE
8
BLACK
6
CONTINUOUS
10
88.9882
20
-63.7029
11
88.9549
21
-63.6916
0
LINE
8
BLACK
6
CONTINUOUS
10
88.9549
20
-63.6916
11
88.7142
21
-63.5526
0
LINE
8
BLACK
6
CONTINUOUS
10
88.7142
20
-63.5526
11
88.6878
21
-63.5295
0
LINE
8
BLACK
6
CONTINUOUS
10
88.6878
20
-63.5295
11
88.6722
21
-63.498
0
LINE
8
BLACK
6
CONTINUOUS
10
88.6722
20
-63.498
11
88.6699
21
-63.4629
0
LINE
8
BLACK
6
CONTINUOUS
10
88.6699
20
-63.4629
11
88.6812
21
-63.4297
0
LINE
8
BLACK
6
CONTINUOUS
10
88.6812
20
-63.4297
11
88.7712
21
-63.2738
0
LINE
8
BLACK
6
CONTINUOUS
10
88.7712
20
-63.2738
11
88.7944
21
-63.2474
0
LINE
8
BLACK
6
CONTINUOUS
10
88.7944
20
-63.2474
11
88.8259
21
-63.2319
0
LINE
8
BLACK
6
CONTINUOUS
10
88.8259
20
-63.2319
11
88.8609
21
-63.2296
0
LINE
8
BLACK
6
CONTINUOUS
10
88.8609
20
-63.2296
11
88.8942
21
-63.2409
0
LINE
8
BLACK
6
CONTINUOUS
10
88.1451
20
-62.8084
11
88.3858
21
-62.9474
0
LINE
8
BLACK
6
CONTINUOUS
10
88.3858
20
-62.9474
11
88.4122
21
-62.9705
0
LINE
8
BLACK
6
CONTINUOUS
10
88.4122
20
-62.9705
11
88.4278
21
-63.002
0
LINE
8
BLACK
6
CONTINUOUS
10
88.4278
20
-63.002
11
88.4301
21
-63.0371
0
LINE
8
BLACK
6
CONTINUOUS
10
88.4301
20
-63.0371
11
88.4188
21
-63.0703
0
LINE
8
BLACK
6
CONTINUOUS
10
88.4188
20
-63.0703
11
88.3288
21
-63.2262
0
LINE
8
BLACK
6
CONTINUOUS
10
88.3288
20
-63.2262
11
88.3056
21
-63.2526
0
LINE
8
BLACK
6
CONTINUOUS
10
88.3056
20
-63.2526
11
88.2741
21
-63.2681
0
LINE
8
BLACK
6
CONTINUOUS
10
88.2741
20
-63.2681
11
88.2391
21
-63.2704
0
LINE
8
BLACK
6
CONTINUOUS
10
88.2391
20
-63.2704
11
88.2058
21
-63.2591
0
LINE
8
BLACK
6
CONTINUOUS
10
88.2058
20
-63.2591
11
87.9651
21
-63.1201
0
LINE
8
BLACK
6
CONTINUOUS
10
87.9651
20
-63.1201
11
87.9387
21
-63.097
0
LINE
8
BLACK
6
CONTINUOUS
10
87.9387
20
-63.097
11
87.9231
21
-63.0655
0
LINE
8
BLACK
6
CONTINUOUS
10
87.9231
20
-63.0655
11
87.9208
21
-63.0304
0
LINE
8
BLACK
6
CONTINUOUS
10
87.9208
20
-63.0304
11
87.9321
21
-62.9972
0
LINE
8
BLACK
6
CONTINUOUS
10
87.9321
20
-62.9972
11
88.0221
21
-62.8413
0
LINE
8
BLACK
6
CONTINUOUS
10
88.0221
20
-62.8413
11
88.0453
21
-62.8149
0
LINE
8
BLACK
6
CONTINUOUS
10
88.0453
20
-62.8149
11
88.0768
21
-62.7994
0
LINE
8
BLACK
6
CONTINUOUS
10
88.0768
20
-62.7994
11
88.1118
21
-62.7971
0
LINE
8
BLACK
6
CONTINUOUS
10
88.1118
20
-62.7971
11
88.1451
21
-62.8084
0
LINE
8
BLACK
6
CONTINUOUS
10
88.6509
20
-61.4769
11
88.6801
21
-61.4964
0
LINE
8
BLACK
6
CONTINUOUS
10
88.6801
20
-61.4964
11
88.6996
21
-61.5256
0
LINE
8
BLACK
6
CONTINUOUS
10
88.6996
20
-61.5256
11
88.7065
21
-61.56
0
LINE
8
BLACK
6
CONTINUOUS
10
88.7065
20
-61.56
11
88.7065
21
-61.74
0
LINE
8
BLACK
6
CONTINUOUS
10
88.7065
20
-61.74
11
88.6996
21
-61.7744
0
LINE
8
BLACK
6
CONTINUOUS
10
88.6996
20
-61.7744
11
88.6801
21
-61.8036
0
LINE
8
BLACK
6
CONTINUOUS
10
88.6801
20
-61.8036
11
88.6509
21
-61.8231
0
LINE
8
BLACK
6
CONTINUOUS
10
88.6509
20
-61.8231
11
88.6165
21
-61.83
0
LINE
8
BLACK
6
CONTINUOUS
10
88.6165
20
-61.83
11
88.3385
21
-61.83
0
LINE
8
BLACK
6
CONTINUOUS
10
88.3385
20
-61.83
11
88.3041
21
-61.8231
0
LINE
8
BLACK
6
CONTINUOUS
10
88.3041
20
-61.8231
11
88.2749
21
-61.8036
0
LINE
8
BLACK
6
CONTINUOUS
10
88.2749
20
-61.8036
11
88.2554
21
-61.7744
0
LINE
8
BLACK
6
CONTINUOUS
10
88.2554
20
-61.7744
11
88.2485
21
-61.74
0
LINE
8
BLACK
6
CONTINUOUS
10
88.2485
20
-61.74
11
88.2485
21
-61.56
0
LINE
8
BLACK
6
CONTINUOUS
10
88.2485
20
-61.56
11
88.2554
21
-61.5256
0
LINE
8
BLACK
6
CONTINUOUS
10
88.2554
20
-61.5256
11
88.2749
21
-61.4964
0
LINE
8
BLACK
6
CONTINUOUS
10
88.2749
20
-61.4964
11
88.3041
21
-61.4769
0
LINE
8
BLACK
6
CONTINUOUS
10
88.3041
20
-61.4769
11
88.3385
21
-61.47
0
LINE
8
BLACK
6
CONTINUOUS
10
88.3385
20
-61.47
11
88.6165
21
-61.47
0
LINE
8
BLACK
6
CONTINUOUS
10
88.6165
20
-61.47
11
88.6509
21
-61.4769
0
LINE
8
BLACK
6
CONTINUOUS
10
89.5159
20
-61.4769
11
89.5451
21
-61.4964
0
LINE
8
BLACK
6
CONTINUOUS
10
89.5451
20
-61.4964
11
89.5646
21
-61.5256
0
LINE
8
BLACK
6
CONTINUOUS
10
89.5646
20
-61.5256
11
89.5715
21
-61.56
0
LINE
8
BLACK
6
CONTINUOUS
10
89.5715
20
-61.56
11
89.5715
21
-61.74
0
LINE
8
BLACK
6
CONTINUOUS
10
89.5715
20
-61.74
11
89.5646
21
-61.7744
0
LINE
8
BLACK
6
CONTINUOUS
10
89.5646
20
-61.7744
11
89.5451
21
-61.8036
0
LINE
8
BLACK
6
CONTINUOUS
10
89.5451
20
-61.8036
11
89.5159
21
-61.8231
0
LINE
8
BLACK
6
CONTINUOUS
10
89.5159
20
-61.8231
11
89.4815
21
-61.83
0
LINE
8
BLACK
6
CONTINUOUS
10
89.4815
20
-61.83
11
89.2035
21
-61.83
0
LINE
8
BLACK
6
CONTINUOUS
10
89.2035
20
-61.83
11
89.1691
21
-61.8231
0
LINE
8
BLACK
6
CONTINUOUS
10
89.1691
20
-61.8231
11
89.1399
21
-61.8036
0
LINE
8
BLACK
6
CONTINUOUS
10
89.1399
20
-61.8036
11
89.1204
21
-61.7744
0
LINE
8
BLACK
6
CONTINUOUS
10
89.1204
20
-61.7744
11
89.1135
21
-61.74
0
LINE
8
BLACK
6
CONTINUOUS
10
89.1135
20
-61.74
11
89.1135
21
-61.56
0
LINE
8
BLACK
6
CONTINUOUS
10
89.1135
20
-61.56
11
89.1204
21
-61.5256
0
LINE
8
BLACK
6
CONTINUOUS
10
89.1204
20
-61.5256
11
89.1399
21
-61.4964
0
LINE
8
BLACK
6
CONTINUOUS
10
89.1399
20
-61.4964
11
89.1691
21
-61.4769
0
LINE
8
BLACK
6
CONTINUOUS
10
89.1691
20
-61.4769
11
89.2035
21
-61.47
0
LINE
8
BLACK
6
CONTINUOUS
10
89.2035
20
-61.47
11
89.4815
21
-61.47
0
LINE
8
BLACK
6
CONTINUOUS
10
89.4815
20
-61.47
11
89.5159
21
-61.4769
0
LINE
8
BLACK
6
CONTINUOUS
10
70.7409
20
-61.3269
11
70.7701
21
-61.3464
0
LINE
8
BLACK
6
CONTINUOUS
10
70.7701
20
-61.3464
11
70.7896
21
-61.3756
0
LINE
8
BLACK
6
CONTINUOUS
10
70.7896
20
-61.3756
11
70.7965
21
-61.41
0
LINE
8
BLACK
6
CONTINUOUS
10
70.7965
20
-61.41
11
70.7965
21
-61.59
0
LINE
8
BLACK
6
CONTINUOUS
10
70.7965
20
-61.59
11
70.7896
21
-61.6244
0
LINE
8
BLACK
6
CONTINUOUS
10
70.7896
20
-61.6244
11
70.7701
21
-61.6536
0
LINE
8
BLACK
6
CONTINUOUS
10
70.7701
20
-61.6536
11
70.7409
21
-61.6731
0
LINE
8
BLACK
6
CONTINUOUS
10
70.7409
20
-61.6731
11
70.7065
21
-61.68
0
LINE
8
BLACK
6
CONTINUOUS
10
70.7065
20
-61.68
11
70.4285
21
-61.68
0
LINE
8
BLACK
6
CONTINUOUS
10
70.4285
20
-61.68
11
70.3941
21
-61.6731
0
LINE
8
BLACK
6
CONTINUOUS
10
70.3941
20
-61.6731
11
70.3649
21
-61.6536
0
LINE
8
BLACK
6
CONTINUOUS
10
70.3649
20
-61.6536
11
70.3454
21
-61.6244
0
LINE
8
BLACK
6
CONTINUOUS
10
70.3454
20
-61.6244
11
70.3385
21
-61.59
0
LINE
8
BLACK
6
CONTINUOUS
10
70.3385
20
-61.59
11
70.3385
21
-61.41
0
LINE
8
BLACK
6
CONTINUOUS
10
70.3385
20
-61.41
11
70.3454
21
-61.3756
0
LINE
8
BLACK
6
CONTINUOUS
10
70.3454
20
-61.3756
11
70.3649
21
-61.3464
0
LINE
8
BLACK
6
CONTINUOUS
10
70.3649
20
-61.3464
11
70.3941
21
-61.3269
0
LINE
8
BLACK
6
CONTINUOUS
10
70.3941
20
-61.3269
11
70.4285
21
-61.32
0
LINE
8
BLACK
6
CONTINUOUS
10
70.4285
20
-61.32
11
70.7065
21
-61.32
0
LINE
8
BLACK
6
CONTINUOUS
10
70.7065
20
-61.32
11
70.7409
21
-61.3269
0
LINE
8
BLACK
6
CONTINUOUS
10
71.6059
20
-61.3269
11
71.6351
21
-61.3464
0
LINE
8
BLACK
6
CONTINUOUS
10
71.6351
20
-61.3464
11
71.6546
21
-61.3756
0
LINE
8
BLACK
6
CONTINUOUS
10
71.6546
20
-61.3756
11
71.6615
21
-61.41
0
LINE
8
BLACK
6
CONTINUOUS
10
71.6615
20
-61.41
11
71.6615
21
-61.59
0
LINE
8
BLACK
6
CONTINUOUS
10
71.6615
20
-61.59
11
71.6546
21
-61.6244
0
LINE
8
BLACK
6
CONTINUOUS
10
71.6546
20
-61.6244
11
71.6351
21
-61.6536
0
LINE
8
BLACK
6
CONTINUOUS
10
71.6351
20
-61.6536
11
71.6059
21
-61.6731
0
LINE
8
BLACK
6
CONTINUOUS
10
71.6059
20
-61.6731
11
71.5715
21
-61.68
0
LINE
8
BLACK
6
CONTINUOUS
10
71.5715
20
-61.68
11
71.2935
21
-61.68
0
LINE
8
BLACK
6
CONTINUOUS
10
71.2935
20
-61.68
11
71.2591
21
-61.6731
0
LINE
8
BLACK
6
CONTINUOUS
10
71.2591
20
-61.6731
11
71.2299
21
-61.6536
0
LINE
8
BLACK
6
CONTINUOUS
10
71.2299
20
-61.6536
11
71.2104
21
-61.6244
0
LINE
8
BLACK
6
CONTINUOUS
10
71.2104
20
-61.6244
11
71.2035
21
-61.59
0
LINE
8
BLACK
6
CONTINUOUS
10
71.2035
20
-61.59
11
71.2035
21
-61.41
0
LINE
8
BLACK
6
CONTINUOUS
10
71.2035
20
-61.41
11
71.2104
21
-61.3756
0
LINE
8
BLACK
6
CONTINUOUS
10
71.2104
20
-61.3756
11
71.2299
21
-61.3464
0
LINE
8
BLACK
6
CONTINUOUS
10
71.2299
20
-61.3464
11
71.2591
21
-61.3269
0
LINE
8
BLACK
6
CONTINUOUS
10
71.2591
20
-61.3269
11
71.2935
21
-61.32
0
LINE
8
BLACK
6
CONTINUOUS
10
71.2935
20
-61.32
11
71.5715
21
-61.32
0
LINE
8
BLACK
6
CONTINUOUS
10
71.5715
20
-61.32
11
71.6059
21
-61.3269
0
LINE
8
BLACK
6
CONTINUOUS
10
70.8
20
-60.7
11
70.3
21
-60.7
0
LINE
8
BLACK
6
CONTINUOUS
10
70.3
20
-60.7
11
70.3
21
-60.2
0
LINE
8
BLACK
6
CONTINUOUS
10
70.3
20
-60.2
11
70.8
21
-60.2
0
LINE
8
BLACK
6
CONTINUOUS
10
70.8
20
-60.2
11
70.8
21
-60.7
0
LINE
8
BLACK
6
CONTINUOUS
10
71.7
20
-60.7
11
71.2
21
-60.7
0
LINE
8
BLACK
6
CONTINUOUS
10
71.2
20
-60.7
11
71.2
21
-60.2
0
LINE
8
BLACK
6
CONTINUOUS
10
71.2
20
-60.2
11
71.7
21
-60.2
0
LINE
8
BLACK
6
CONTINUOUS
10
71.7
20
-60.2
11
71.7
21
-60.7
0
LINE
8
BLACK
6
CONTINUOUS
10
88.8
20
-60.7
11
88.3
21
-60.7
0
LINE
8
BLACK
6
CONTINUOUS
10
88.3
20
-60.7
11
88.3
21
-60.2
0
LINE
8
BLACK
6
CONTINUOUS
10
88.3
20
-60.2
11
88.8
21
-60.2
0
LINE
8
BLACK
6
CONTINUOUS
10
88.8
20
-60.2
11
88.8
21
-60.7
0
LINE
8
BLACK
6
CONTINUOUS
10
89.7
20
-60.7
11
89.2
21
-60.7
0
LINE
8
BLACK
6
CONTINUOUS
10
89.2
20
-60.7
11
89.2
21
-60.2
0
LINE
8
BLACK
6
CONTINUOUS
10
89.2
20
-60.2
11
89.7
21
-60.2
0
LINE
8
BLACK
6
CONTINUOUS
10
89.7
20
-60.2
11
89.7
21
-60.7
0
LINE
8
BLACK
6
CONTINUOUS
10
70.8
20
-59.8
11
70.3
21
-59.8
0
LINE
8
BLACK
6
CONTINUOUS
10
70.3
20
-59.8
11
70.3
21
-59.3
0
LINE
8
BLACK
6
CONTINUOUS
10
70.3
20
-59.3
11
70.8
21
-59.3
0
LINE
8
BLACK
6
CONTINUOUS
10
70.8
20
-59.3
11
70.8
21
-59.8
0
LINE
8
BLACK
6
CONTINUOUS
10
71.7
20
-59.8
11
71.2
21
-59.8
0
LINE
8
BLACK
6
CONTINUOUS
10
71.2
20
-59.8
11
71.2
21
-59.3
0
LINE
8
BLACK
6
CONTINUOUS
10
71.2
20
-59.3
11
71.7
21
-59.3
0
LINE
8
BLACK
6
CONTINUOUS
10
71.7
20
-59.3
11
71.7
21
-59.8
0
LINE
8
BLACK
6
CONTINUOUS
10
88.8
20
-59.8
11
88.3
21
-59.8
0
LINE
8
BLACK
6
CONTINUOUS
10
88.3
20
-59.8
11
88.3
21
-59.3
0
LINE
8
BLACK
6
CONTINUOUS
10
88.3
20
-59.3
11
88.8
21
-59.3
0
LINE
8
BLACK
6
CONTINUOUS
10
88.8
20
-59.3
11
88.8
21
-59.8
0
LINE
8
BLACK
6
CONTINUOUS
10
89.7
20
-59.8
11
89.2
21
-59.8
0
LINE
8
BLACK
6
CONTINUOUS
10
89.2
20
-59.8
11
89.2
21
-59.3
0
LINE
8
BLACK
6
CONTINUOUS
10
89.2
20
-59.3
11
89.7
21
-59.3
0
LINE
8
BLACK
6
CONTINUOUS
10
89.7
20
-59.3
11
89.7
21
-59.8
0
LINE
8
BLACK
6
CONTINUOUS
10
88.8909
20
-58.4269
11
88.9201
21
-58.4464
0
LINE
8
BLACK
6
CONTINUOUS
10
88.9201
20
-58.4464
11
88.9396
21
-58.4756
0
LINE
8
BLACK
6
CONTINUOUS
10
88.9396
20
-58.4756
11
88.9465
21
-58.51
0
LINE
8
BLACK
6
CONTINUOUS
10
88.9465
20
-58.51
11
88.9465
21
-58.69
0
LINE
8
BLACK
6
CONTINUOUS
10
88.9465
20
-58.69
11
88.9396
21
-58.7244
0
LINE
8
BLACK
6
CONTINUOUS
10
88.9396
20
-58.7244
11
88.9201
21
-58.7536
0
LINE
8
BLACK
6
CONTINUOUS
10
88.9201
20
-58.7536
11
88.8909
21
-58.7731
0
LINE
8
BLACK
6
CONTINUOUS
10
88.8909
20
-58.7731
11
88.8565
21
-58.78
0
LINE
8
BLACK
6
CONTINUOUS
10
88.8565
20
-58.78
11
88.5785
21
-58.78
0
LINE
8
BLACK
6
CONTINUOUS
10
88.5785
20
-58.78
11
88.5441
21
-58.7731
0
LINE
8
BLACK
6
CONTINUOUS
10
88.5441
20
-58.7731
11
88.5149
21
-58.7536
0
LINE
8
BLACK
6
CONTINUOUS
10
88.5149
20
-58.7536
11
88.4954
21
-58.7244
0
LINE
8
BLACK
6
CONTINUOUS
10
88.4954
20
-58.7244
11
88.4885
21
-58.69
0
LINE
8
BLACK
6
CONTINUOUS
10
88.4885
20
-58.69
11
88.4885
21
-58.51
0
LINE
8
BLACK
6
CONTINUOUS
10
88.4885
20
-58.51
11
88.4954
21
-58.4756
0
LINE
8
BLACK
6
CONTINUOUS
10
88.4954
20
-58.4756
11
88.5149
21
-58.4464
0
LINE
8
BLACK
6
CONTINUOUS
10
88.5149
20
-58.4464
11
88.5441
21
-58.4269
0
LINE
8
BLACK
6
CONTINUOUS
10
88.5441
20
-58.4269
11
88.5785
21
-58.42
0
LINE
8
BLACK
6
CONTINUOUS
10
88.5785
20
-58.42
11
88.8565
21
-58.42
0
LINE
8
BLACK
6
CONTINUOUS
10
88.8565
20
-58.42
11
88.8909
21
-58.4269
0
LINE
8
BLACK
6
CONTINUOUS
10
89.7559
20
-58.4269
11
89.7851
21
-58.4464
0
LINE
8
BLACK
6
CONTINUOUS
10
89.7851
20
-58.4464
11
89.8046
21
-58.4756
0
LINE
8
BLACK
6
CONTINUOUS
10
89.8046
20
-58.4756
11
89.8115
21
-58.51
0
LINE
8
BLACK
6
CONTINUOUS
10
89.8115
20
-58.51
11
89.8115
21
-58.69
0
LINE
8
BLACK
6
CONTINUOUS
10
89.8115
20
-58.69
11
89.8046
21
-58.7244
0
LINE
8
BLACK
6
CONTINUOUS
10
89.8046
20
-58.7244
11
89.7851
21
-58.7536
0
LINE
8
BLACK
6
CONTINUOUS
10
89.7851
20
-58.7536
11
89.7559
21
-58.7731
0
LINE
8
BLACK
6
CONTINUOUS
10
89.7559
20
-58.7731
11
89.7215
21
-58.78
0
LINE
8
BLACK
6
CONTINUOUS
10
89.7215
20
-58.78
11
89.4435
21
-58.78
0
LINE
8
BLACK
6
CONTINUOUS
10
89.4435
20
-58.78
11
89.4091
21
-58.7731
0
LINE
8
BLACK
6
CONTINUOUS
10
89.4091
20
-58.7731
11
89.3799
21
-58.7536
0
LINE
8
BLACK
6
CONTINUOUS
10
89.3799
20
-58.7536
11
89.3604
21
-58.7244
0
LINE
8
BLACK
6
CONTINUOUS
10
89.3604
20
-58.7244
11
89.3535
21
-58.69
0
LINE
8
BLACK
6
CONTINUOUS
10
89.3535
20
-58.69
11
89.3535
21
-58.51
0
LINE
8
BLACK
6
CONTINUOUS
10
89.3535
20
-58.51
11
89.3604
21
-58.4756
0
LINE
8
BLACK
6
CONTINUOUS
10
89.3604
20
-58.4756
11
89.3799
21
-58.4464
0
LINE
8
BLACK
6
CONTINUOUS
10
89.3799
20
-58.4464
11
89.4091
21
-58.4269
0
LINE
8
BLACK
6
CONTINUOUS
10
89.4091
20
-58.4269
11
89.4435
21
-58.42
0
LINE
8
BLACK
6
CONTINUOUS
10
89.4435
20
-58.42
11
89.7215
21
-58.42
0
LINE
8
BLACK
6
CONTINUOUS
10
89.7215
20
-58.42
11
89.7559
21
-58.4269
0
LINE
8
BLACK
6
CONTINUOUS
10
88.9364
20
-57.4448
11
88.9567
21
-57.4583
0
LINE
8
BLACK
6
CONTINUOUS
10
88.9567
20
-57.4583
11
88.9702
21
-57.4786
0
LINE
8
BLACK
6
CONTINUOUS
10
88.9702
20
-57.4786
11
88.975
21
-57.5025
0
LINE
8
BLACK
6
CONTINUOUS
10
88.975
20
-57.5025
11
88.975
21
-57.7375
0
LINE
8
BLACK
6
CONTINUOUS
10
88.975
20
-57.7375
11
88.9702
21
-57.7614
0
LINE
8
BLACK
6
CONTINUOUS
10
88.9702
20
-57.7614
11
88.9567
21
-57.7817
0
LINE
8
BLACK
6
CONTINUOUS
10
88.9567
20
-57.7817
11
88.9364
21
-57.7952
0
LINE
8
BLACK
6
CONTINUOUS
10
88.9364
20
-57.7952
11
88.9125
21
-57.8
0
LINE
8
BLACK
6
CONTINUOUS
10
88.9125
20
-57.8
11
88.7875
21
-57.8
0
LINE
8
BLACK
6
CONTINUOUS
10
88.7875
20
-57.8
11
88.7636
21
-57.7952
0
LINE
8
BLACK
6
CONTINUOUS
10
88.7636
20
-57.7952
11
88.7433
21
-57.7817
0
LINE
8
BLACK
6
CONTINUOUS
10
88.7433
20
-57.7817
11
88.7298
21
-57.7614
0
LINE
8
BLACK
6
CONTINUOUS
10
88.7298
20
-57.7614
11
88.725
21
-57.7375
0
LINE
8
BLACK
6
CONTINUOUS
10
88.725
20
-57.7375
11
88.725
21
-57.5025
0
LINE
8
BLACK
6
CONTINUOUS
10
88.725
20
-57.5025
11
88.7298
21
-57.4786
0
LINE
8
BLACK
6
CONTINUOUS
10
88.7298
20
-57.4786
11
88.7433
21
-57.4583
0
LINE
8
BLACK
6
CONTINUOUS
10
88.7433
20
-57.4583
11
88.7636
21
-57.4448
0
LINE
8
BLACK
6
CONTINUOUS
10
88.7636
20
-57.4448
11
88.7875
21
-57.44
0
LINE
8
BLACK
6
CONTINUOUS
10
88.7875
20
-57.44
11
88.9125
21
-57.44
0
LINE
8
BLACK
6
CONTINUOUS
10
88.9125
20
-57.44
11
88.9364
21
-57.4448
0
LINE
8
BLACK
6
CONTINUOUS
10
71.8442
20
-56.7909
11
72.0849
21
-56.9299
0
LINE
8
BLACK
6
CONTINUOUS
10
72.0849
20
-56.9299
11
72.1113
21
-56.953
0
LINE
8
BLACK
6
CONTINUOUS
10
72.1113
20
-56.953
11
72.1269
21
-56.9845
0
LINE
8
BLACK
6
CONTINUOUS
10
72.1269
20
-56.9845
11
72.1292
21
-57.0196
0
LINE
8
BLACK
6
CONTINUOUS
10
72.1292
20
-57.0196
11
72.1179
21
-57.0528
0
LINE
8
BLACK
6
CONTINUOUS
10
72.1179
20
-57.0528
11
72.0279
21
-57.2087
0
LINE
8
BLACK
6
CONTINUOUS
10
72.0279
20
-57.2087
11
72.0047
21
-57.2351
0
LINE
8
BLACK
6
CONTINUOUS
10
72.0047
20
-57.2351
11
71.9732
21
-57.2506
0
LINE
8
BLACK
6
CONTINUOUS
10
71.9732
20
-57.2506
11
71.9382
21
-57.2529
0
LINE
8
BLACK
6
CONTINUOUS
10
71.9382
20
-57.2529
11
71.9049
21
-57.2416
0
LINE
8
BLACK
6
CONTINUOUS
10
71.9049
20
-57.2416
11
71.6642
21
-57.1026
0
LINE
8
BLACK
6
CONTINUOUS
10
71.6642
20
-57.1026
11
71.6378
21
-57.0795
0
LINE
8
BLACK
6
CONTINUOUS
10
71.6378
20
-57.0795
11
71.6222
21
-57.048
0
LINE
8
BLACK
6
CONTINUOUS
10
71.6222
20
-57.048
11
71.6199
21
-57.0129
0
LINE
8
BLACK
6
CONTINUOUS
10
71.6199
20
-57.0129
11
71.6312
21
-56.9797
0
LINE
8
BLACK
6
CONTINUOUS
10
71.6312
20
-56.9797
11
71.7212
21
-56.8238
0
LINE
8
BLACK
6
CONTINUOUS
10
71.7212
20
-56.8238
11
71.7444
21
-56.7974
0
LINE
8
BLACK
6
CONTINUOUS
10
71.7444
20
-56.7974
11
71.7759
21
-56.7819
0
LINE
8
BLACK
6
CONTINUOUS
10
71.7759
20
-56.7819
11
71.8109
21
-56.7796
0
LINE
8
BLACK
6
CONTINUOUS
10
71.8109
20
-56.7796
11
71.8442
21
-56.7909
0
LINE
8
BLACK
6
CONTINUOUS
10
88.9364
20
-56.6048
11
88.9567
21
-56.6183
0
LINE
8
BLACK
6
CONTINUOUS
10
88.9567
20
-56.6183
11
88.9702
21
-56.6386
0
LINE
8
BLACK
6
CONTINUOUS
10
88.9702
20
-56.6386
11
88.975
21
-56.6625
0
LINE
8
BLACK
6
CONTINUOUS
10
88.975
20
-56.6625
11
88.975
21
-56.8975
0
LINE
8
BLACK
6
CONTINUOUS
10
88.975
20
-56.8975
11
88.9702
21
-56.9214
0
LINE
8
BLACK
6
CONTINUOUS
10
88.9702
20
-56.9214
11
88.9567
21
-56.9417
0
LINE
8
BLACK
6
CONTINUOUS
10
88.9567
20
-56.9417
11
88.9364
21
-56.9552
0
LINE
8
BLACK
6
CONTINUOUS
10
88.9364
20
-56.9552
11
88.9125
21
-56.96
0
LINE
8
BLACK
6
CONTINUOUS
10
88.9125
20
-56.96
11
88.7875
21
-56.96
0
LINE
8
BLACK
6
CONTINUOUS
10
88.7875
20
-56.96
11
88.7636
21
-56.9552
0
LINE
8
BLACK
6
CONTINUOUS
10
88.7636
20
-56.9552
11
88.7433
21
-56.9417
0
LINE
8
BLACK
6
CONTINUOUS
10
88.7433
20
-56.9417
11
88.7298
21
-56.9214
0
LINE
8
BLACK
6
CONTINUOUS
10
88.7298
20
-56.9214
11
88.725
21
-56.8975
0
LINE
8
BLACK
6
CONTINUOUS
10
88.725
20
-56.8975
11
88.725
21
-56.6625
0
LINE
8
BLACK
6
CONTINUOUS
10
88.725
20
-56.6625
11
88.7298
21
-56.6386
0
LINE
8
BLACK
6
CONTINUOUS
10
88.7298
20
-56.6386
11
88.7433
21
-56.6183
0
LINE
8
BLACK
6
CONTINUOUS
10
88.7433
20
-56.6183
11
88.7636
21
-56.6048
0
LINE
8
BLACK
6
CONTINUOUS
10
88.7636
20
-56.6048
11
88.7875
21
-56.6
0
LINE
8
BLACK
6
CONTINUOUS
10
88.7875
20
-56.6
11
88.9125
21
-56.6
0
LINE
8
BLACK
6
CONTINUOUS
10
88.9125
20
-56.6
11
88.9364
21
-56.6048
0
LINE
8
BLACK
6
CONTINUOUS
10
71.0951
20
-56.3584
11
71.3358
21
-56.4974
0
LINE
8
BLACK
6
CONTINUOUS
10
71.3358
20
-56.4974
11
71.3622
21
-56.5205
0
LINE
8
BLACK
6
CONTINUOUS
10
71.3622
20
-56.5205
11
71.3778
21
-56.552
0
LINE
8
BLACK
6
CONTINUOUS
10
71.3778
20
-56.552
11
71.3801
21
-56.5871
0
LINE
8
BLACK
6
CONTINUOUS
10
71.3801
20
-56.5871
11
71.3688
21
-56.6203
0
LINE
8
BLACK
6
CONTINUOUS
10
71.3688
20
-56.6203
11
71.2788
21
-56.7762
0
LINE
8
BLACK
6
CONTINUOUS
10
71.2788
20
-56.7762
11
71.2556
21
-56.8026
0
LINE
8
BLACK
6
CONTINUOUS
10
71.2556
20
-56.8026
11
71.2241
21
-56.8181
0
LINE
8
BLACK
6
CONTINUOUS
10
71.2241
20
-56.8181
11
71.1891
21
-56.8204
0
LINE
8
BLACK
6
CONTINUOUS
10
71.1891
20
-56.8204
11
71.1558
21
-56.8091
0
LINE
8
BLACK
6
CONTINUOUS
10
71.1558
20
-56.8091
11
70.9151
21
-56.6701
0
LINE
8
BLACK
6
CONTINUOUS
10
70.9151
20
-56.6701
11
70.8887
21
-56.647
0
LINE
8
BLACK
6
CONTINUOUS
10
70.8887
20
-56.647
11
70.8731
21
-56.6155
0
LINE
8
BLACK
6
CONTINUOUS
10
70.8731
20
-56.6155
11
70.8708
21
-56.5804
0
LINE
8
BLACK
6
CONTINUOUS
10
70.8708
20
-56.5804
11
70.8821
21
-56.5472
0
LINE
8
BLACK
6
CONTINUOUS
10
70.8821
20
-56.5472
11
70.9721
21
-56.3913
0
LINE
8
BLACK
6
CONTINUOUS
10
70.9721
20
-56.3913
11
70.9953
21
-56.3649
0
LINE
8
BLACK
6
CONTINUOUS
10
70.9953
20
-56.3649
11
71.0268
21
-56.3494
0
LINE
8
BLACK
6
CONTINUOUS
10
71.0268
20
-56.3494
11
71.0618
21
-56.3471
0
LINE
8
BLACK
6
CONTINUOUS
10
71.0618
20
-56.3471
11
71.0951
21
-56.3584
0
LINE
8
BLACK
6
CONTINUOUS
10
72.712
20
-56.0232
11
72.462
21
-56.4562
0
LINE
8
BLACK
6
CONTINUOUS
10
72.462
20
-56.4562
11
72.029
21
-56.2062
0
LINE
8
BLACK
6
CONTINUOUS
10
72.029
20
-56.2062
11
72.279
21
-55.7732
0
LINE
8
BLACK
6
CONTINUOUS
10
72.279
20
-55.7732
11
72.712
21
-56.0232
0
LINE
8
BLACK
6
CONTINUOUS
10
87.971
20
-56.2062
11
87.538
21
-56.4562
0
LINE
8
BLACK
6
CONTINUOUS
10
87.538
20
-56.4562
11
87.288
21
-56.0232
0
LINE
8
BLACK
6
CONTINUOUS
10
87.288
20
-56.0232
11
87.721
21
-55.7732
0
LINE
8
BLACK
6
CONTINUOUS
10
87.721
20
-55.7732
11
87.971
21
-56.2062
0
LINE
8
BLACK
6
CONTINUOUS
10
71.9326
20
-55.5732
11
71.6826
21
-56.0062
0
LINE
8
BLACK
6
CONTINUOUS
10
71.6826
20
-56.0062
11
71.2496
21
-55.7562
0
LINE
8
BLACK
6
CONTINUOUS
10
71.2496
20
-55.7562
11
71.4996
21
-55.3232
0
LINE
8
BLACK
6
CONTINUOUS
10
71.4996
20
-55.3232
11
71.9326
21
-55.5732
0
LINE
8
BLACK
6
CONTINUOUS
10
88.7504
20
-55.7562
11
88.3174
21
-56.0062
0
LINE
8
BLACK
6
CONTINUOUS
10
88.3174
20
-56.0062
11
88.0674
21
-55.5732
0
LINE
8
BLACK
6
CONTINUOUS
10
88.0674
20
-55.5732
11
88.5004
21
-55.3232
0
LINE
8
BLACK
6
CONTINUOUS
10
88.5004
20
-55.3232
11
88.7504
21
-55.7562
0
LINE
8
BLACK
6
CONTINUOUS
10
73.162
20
-55.2438
11
72.912
21
-55.6768
0
LINE
8
BLACK
6
CONTINUOUS
10
72.912
20
-55.6768
11
72.479
21
-55.4268
0
LINE
8
BLACK
6
CONTINUOUS
10
72.479
20
-55.4268
11
72.729
21
-54.9938
0
LINE
8
BLACK
6
CONTINUOUS
10
72.729
20
-54.9938
11
73.162
21
-55.2438
0
LINE
8
BLACK
6
CONTINUOUS
10
87.521
20
-55.4268
11
87.088
21
-55.6768
0
LINE
8
BLACK
6
CONTINUOUS
10
87.088
20
-55.6768
11
86.838
21
-55.2438
0
LINE
8
BLACK
6
CONTINUOUS
10
86.838
20
-55.2438
11
87.271
21
-54.9938
0
LINE
8
BLACK
6
CONTINUOUS
10
87.271
20
-54.9938
11
87.521
21
-55.4268
0
LINE
8
BLACK
6
CONTINUOUS
10
72.3826
20
-54.7938
11
72.1326
21
-55.2268
0
LINE
8
BLACK
6
CONTINUOUS
10
72.1326
20
-55.2268
11
71.6996
21
-54.9768
0
LINE
8
BLACK
6
CONTINUOUS
10
71.6996
20
-54.9768
11
71.9496
21
-54.5438
0
LINE
8
BLACK
6
CONTINUOUS
10
71.9496
20
-54.5438
11
72.3826
21
-54.7938
0
LINE
8
BLACK
6
CONTINUOUS
10
88.3004
20
-54.9768
11
87.8674
21
-55.2268
0
LINE
8
BLACK
6
CONTINUOUS
10
87.8674
20
-55.2268
11
87.6174
21
-54.7938
0
LINE
8
BLACK
6
CONTINUOUS
10
87.6174
20
-54.7938
11
88.0504
21
-54.5438
0
LINE
8
BLACK
6
CONTINUOUS
10
88.0504
20
-54.5438
11
88.3004
21
-54.9768
0
LINE
8
BLACK
6
CONTINUOUS
10
86.7241
20
-54.2319
11
86.7556
21
-54.2474
0
LINE
8
BLACK
6
CONTINUOUS
10
86.7556
20
-54.2474
11
86.7788
21
-54.2738
0
LINE
8
BLACK
6
CONTINUOUS
10
86.7788
20
-54.2738
11
86.8688
21
-54.4297
0
LINE
8
BLACK
6
CONTINUOUS
10
86.8688
20
-54.4297
11
86.8801
21
-54.4629
0
LINE
8
BLACK
6
CONTINUOUS
10
86.8801
20
-54.4629
11
86.8778
21
-54.498
0
LINE
8
BLACK
6
CONTINUOUS
10
86.8778
20
-54.498
11
86.8622
21
-54.5295
0
LINE
8
BLACK
6
CONTINUOUS
10
86.8622
20
-54.5295
11
86.8358
21
-54.5526
0
LINE
8
BLACK
6
CONTINUOUS
10
86.8358
20
-54.5526
11
86.5951
21
-54.6916
0
LINE
8
BLACK
6
CONTINUOUS
10
86.5951
20
-54.6916
11
86.5618
21
-54.7029
0
LINE
8
BLACK
6
CONTINUOUS
10
86.5618
20
-54.7029
11
86.5268
21
-54.7006
0
LINE
8
BLACK
6
CONTINUOUS
10
86.5268
20
-54.7006
11
86.4953
21
-54.6851
0
LINE
8
BLACK
6
CONTINUOUS
10
86.4953
20
-54.6851
11
86.4721
21
-54.6587
0
LINE
8
BLACK
6
CONTINUOUS
10
86.4721
20
-54.6587
11
86.3821
21
-54.5028
0
LINE
8
BLACK
6
CONTINUOUS
10
86.3821
20
-54.5028
11
86.3708
21
-54.4696
0
LINE
8
BLACK
6
CONTINUOUS
10
86.3708
20
-54.4696
11
86.3731
21
-54.4345
0
LINE
8
BLACK
6
CONTINUOUS
10
86.3731
20
-54.4345
11
86.3887
21
-54.403
0
LINE
8
BLACK
6
CONTINUOUS
10
86.3887
20
-54.403
11
86.4151
21
-54.3799
0
LINE
8
BLACK
6
CONTINUOUS
10
86.4151
20
-54.3799
11
86.6558
21
-54.2409
0
LINE
8
BLACK
6
CONTINUOUS
10
86.6558
20
-54.2409
11
86.6891
21
-54.2296
0
LINE
8
BLACK
6
CONTINUOUS
10
86.6891
20
-54.2296
11
86.7241
21
-54.2319
0
LINE
8
BLACK
6
CONTINUOUS
10
87.4732
20
-53.7994
11
87.5047
21
-53.8149
0
LINE
8
BLACK
6
CONTINUOUS
10
87.5047
20
-53.8149
11
87.5279
21
-53.8413
0
LINE
8
BLACK
6
CONTINUOUS
10
87.5279
20
-53.8413
11
87.6179
21
-53.9972
0
LINE
8
BLACK
6
CONTINUOUS
10
87.6179
20
-53.9972
11
87.6292
21
-54.0304
0
LINE
8
BLACK
6
CONTINUOUS
10
87.6292
20
-54.0304
11
87.6269
21
-54.0655
0
LINE
8
BLACK
6
CONTINUOUS
10
87.6269
20
-54.0655
11
87.6113
21
-54.097
0
LINE
8
BLACK
6
CONTINUOUS
10
87.6113
20
-54.097
11
87.5849
21
-54.1201
0
LINE
8
BLACK
6
CONTINUOUS
10
87.5849
20
-54.1201
11
87.3442
21
-54.2591
0
LINE
8
BLACK
6
CONTINUOUS
10
87.3442
20
-54.2591
11
87.3109
21
-54.2704
0
LINE
8
BLACK
6
CONTINUOUS
10
87.3109
20
-54.2704
11
87.2759
21
-54.2681
0
LINE
8
BLACK
6
CONTINUOUS
10
87.2759
20
-54.2681
11
87.2444
21
-54.2526
0
LINE
8
BLACK
6
CONTINUOUS
10
87.2444
20
-54.2526
11
87.2212
21
-54.2262
0
LINE
8
BLACK
6
CONTINUOUS
10
87.2212
20
-54.2262
11
87.1312
21
-54.0703
0
LINE
8
BLACK
6
CONTINUOUS
10
87.1312
20
-54.0703
11
87.1199
21
-54.0371
0
LINE
8
BLACK
6
CONTINUOUS
10
87.1199
20
-54.0371
11
87.1222
21
-54.002
0
LINE
8
BLACK
6
CONTINUOUS
10
87.1222
20
-54.002
11
87.1378
21
-53.9705
0
LINE
8
BLACK
6
CONTINUOUS
10
87.1378
20
-53.9705
11
87.1642
21
-53.9474
0
LINE
8
BLACK
6
CONTINUOUS
10
87.1642
20
-53.9474
11
87.4049
21
-53.8084
0
LINE
8
BLACK
6
CONTINUOUS
10
87.4049
20
-53.8084
11
87.4382
21
-53.7971
0
LINE
8
BLACK
6
CONTINUOUS
10
87.4382
20
-53.7971
11
87.4732
21
-53.7994
0
LINE
8
BLACK
6
CONTINUOUS
10
74.438
20
-53.055
11
74.4695
21
-53.0705
0
LINE
8
BLACK
6
CONTINUOUS
10
74.4695
20
-53.0705
11
74.4926
21
-53.0969
0
LINE
8
BLACK
6
CONTINUOUS
10
74.4926
20
-53.0969
11
74.6316
21
-53.3377
0
LINE
8
BLACK
6
CONTINUOUS
10
74.6316
20
-53.3377
11
74.6429
21
-53.3709
0
LINE
8
BLACK
6
CONTINUOUS
10
74.6429
20
-53.3709
11
74.6406
21
-53.406
0
LINE
8
BLACK
6
CONTINUOUS
10
74.6406
20
-53.406
11
74.6251
21
-53.4375
0
LINE
8
BLACK
6
CONTINUOUS
10
74.6251
20
-53.4375
11
74.5987
21
-53.4606
0
LINE
8
BLACK
6
CONTINUOUS
10
74.5987
20
-53.4606
11
74.4428
21
-53.5506
0
LINE
8
BLACK
6
CONTINUOUS
10
74.4428
20
-53.5506
11
74.4096
21
-53.5619
0
LINE
8
BLACK
6
CONTINUOUS
10
74.4096
20
-53.5619
11
74.3745
21
-53.5596
0
LINE
8
BLACK
6
CONTINUOUS
10
74.3745
20
-53.5596
11
74.343
21
-53.5441
0
LINE
8
BLACK
6
CONTINUOUS
10
74.343
20
-53.5441
11
74.3199
21
-53.5177
0
LINE
8
BLACK
6
CONTINUOUS
10
74.3199
20
-53.5177
11
74.1809
21
-53.2769
0
LINE
8
BLACK
6
CONTINUOUS
10
74.1809
20
-53.2769
11
74.1696
21
-53.2437
0
LINE
8
BLACK
6
CONTINUOUS
10
74.1696
20
-53.2437
11
74.1719
21
-53.2086
0
LINE
8
BLACK
6
CONTINUOUS
10
74.1719
20
-53.2086
11
74.1874
21
-53.1771
0
LINE
8
BLACK
6
CONTINUOUS
10
74.1874
20
-53.1771
11
74.2138
21
-53.154
0
LINE
8
BLACK
6
CONTINUOUS
10
74.2138
20
-53.154
11
74.3697
21
-53.064
0
LINE
8
BLACK
6
CONTINUOUS
10
74.3697
20
-53.064
11
74.4029
21
-53.0527
0
LINE
8
BLACK
6
CONTINUOUS
10
74.4029
20
-53.0527
11
74.438
21
-53.055
0
LINE
8
BLACK
6
CONTINUOUS
10
75.6768
20
-52.912
11
75.2438
21
-53.162
0
LINE
8
BLACK
6
CONTINUOUS
10
75.2438
20
-53.162
11
74.9938
21
-52.729
0
LINE
8
BLACK
6
CONTINUOUS
10
74.9938
20
-52.729
11
75.4268
21
-52.479
0
LINE
8
BLACK
6
CONTINUOUS
10
75.4268
20
-52.479
11
75.6768
21
-52.912
0
LINE
8
BLACK
6
CONTINUOUS
10
85.0062
20
-52.729
11
84.7562
21
-53.162
0
LINE
8
BLACK
6
CONTINUOUS
10
84.7562
20
-53.162
11
84.3232
21
-52.912
0
LINE
8
BLACK
6
CONTINUOUS
10
84.3232
20
-52.912
11
84.5732
21
-52.479
0
LINE
8
BLACK
6
CONTINUOUS
10
84.5732
20
-52.479
11
85.0062
21
-52.729
0
LINE
8
BLACK
6
CONTINUOUS
10
74.0055
20
-52.3059
11
74.037
21
-52.3214
0
LINE
8
BLACK
6
CONTINUOUS
10
74.037
20
-52.3214
11
74.0601
21
-52.3478
0
LINE
8
BLACK
6
CONTINUOUS
10
74.0601
20
-52.3478
11
74.1991
21
-52.5886
0
LINE
8
BLACK
6
CONTINUOUS
10
74.1991
20
-52.5886
11
74.2104
21
-52.6218
0
LINE
8
BLACK
6
CONTINUOUS
10
74.2104
20
-52.6218
11
74.2081
21
-52.6568
0
LINE
8
BLACK
6
CONTINUOUS
10
74.2081
20
-52.6568
11
74.1926
21
-52.6883
0
LINE
8
BLACK
6
CONTINUOUS
10
74.1926
20
-52.6883
11
74.1662
21
-52.7115
0
LINE
8
BLACK
6
CONTINUOUS
10
74.1662
20
-52.7115
11
74.0103
21
-52.8015
0
LINE
8
BLACK
6
CONTINUOUS
10
74.0103
20
-52.8015
11
73.9771
21
-52.8128
0
LINE
8
BLACK
6
CONTINUOUS
10
73.9771
20
-52.8128
11
73.942
21
-52.8105
0
LINE
8
BLACK
6
CONTINUOUS
10
73.942
20
-52.8105
11
73.9105
21
-52.795
0
LINE
8
BLACK
6
CONTINUOUS
10
73.9105
20
-52.795
11
73.8874
21
-52.7686
0
LINE
8
BLACK
6
CONTINUOUS
10
73.8874
20
-52.7686
11
73.7484
21
-52.5278
0
LINE
8
BLACK
6
CONTINUOUS
10
73.7484
20
-52.5278
11
73.7371
21
-52.4945
0
LINE
8
BLACK
6
CONTINUOUS
10
73.7371
20
-52.4945
11
73.7394
21
-52.4595
0
LINE
8
BLACK
6
CONTINUOUS
10
73.7394
20
-52.4595
11
73.7549
21
-52.428
0
LINE
8
BLACK
6
CONTINUOUS
10
73.7549
20
-52.428
11
73.7813
21
-52.4049
0
LINE
8
BLACK
6
CONTINUOUS
10
73.7813
20
-52.4049
11
73.9372
21
-52.3149
0
LINE
8
BLACK
6
CONTINUOUS
10
73.9372
20
-52.3149
11
73.9704
21
-52.3036
0
LINE
8
BLACK
6
CONTINUOUS
10
73.9704
20
-52.3036
11
74.0055
21
-52.3059
0
LINE
8
BLACK
6
CONTINUOUS
10
76.4562
20
-52.462
11
76.0232
21
-52.712
0
LINE
8
BLACK
6
CONTINUOUS
10
76.0232
20
-52.712
11
75.7732
21
-52.279
0
LINE
8
BLACK
6
CONTINUOUS
10
75.7732
20
-52.279
11
76.2062
21
-52.029
0
LINE
8
BLACK
6
CONTINUOUS
10
76.2062
20
-52.029
11
76.4562
21
-52.462
0
LINE
8
BLACK
6
CONTINUOUS
10
84.2268
20
-52.279
11
83.9768
21
-52.712
0
LINE
8
BLACK
6
CONTINUOUS
10
83.9768
20
-52.712
11
83.5438
21
-52.462
0
LINE
8
BLACK
6
CONTINUOUS
10
83.5438
20
-52.462
11
83.7938
21
-52.029
0
LINE
8
BLACK
6
CONTINUOUS
10
83.7938
20
-52.029
11
84.2268
21
-52.279
0
LINE
8
BLACK
6
CONTINUOUS
10
75.2268
20
-52.1326
11
74.7938
21
-52.3826
0
LINE
8
BLACK
6
CONTINUOUS
10
74.7938
20
-52.3826
11
74.5438
21
-51.9496
0
LINE
8
BLACK
6
CONTINUOUS
10
74.5438
20
-51.9496
11
74.9768
21
-51.6996
0
LINE
8
BLACK
6
CONTINUOUS
10
74.9768
20
-51.6996
11
75.2268
21
-52.1326
0
LINE
8
BLACK
6
CONTINUOUS
10
85.4562
20
-51.9496
11
85.2062
21
-52.3826
0
LINE
8
BLACK
6
CONTINUOUS
10
85.2062
20
-52.3826
11
84.7732
21
-52.1326
0
LINE
8
BLACK
6
CONTINUOUS
10
84.7732
20
-52.1326
11
85.0232
21
-51.6996
0
LINE
8
BLACK
6
CONTINUOUS
10
85.0232
20
-51.6996
11
85.4562
21
-51.9496
0
LINE
8
BLACK
6
CONTINUOUS
10
83.0203
20
-51.6312
11
83.1762
21
-51.7212
0
LINE
8
BLACK
6
CONTINUOUS
10
83.1762
20
-51.7212
11
83.2026
21
-51.7444
0
LINE
8
BLACK
6
CONTINUOUS
10
83.2026
20
-51.7444
11
83.2181
21
-51.7759
0
LINE
8
BLACK
6
CONTINUOUS
10
83.2181
20
-51.7759
11
83.2204
21
-51.8109
0
LINE
8
BLACK
6
CONTINUOUS
10
83.2204
20
-51.8109
11
83.2091
21
-51.8442
0
LINE
8
BLACK
6
CONTINUOUS
10
83.2091
20
-51.8442
11
83.0701
21
-52.0849
0
LINE
8
BLACK
6
CONTINUOUS
10
83.0701
20
-52.0849
11
83.047
21
-52.1113
0
LINE
8
BLACK
6
CONTINUOUS
10
83.047
20
-52.1113
11
83.0155
21
-52.1269
0
LINE
8
BLACK
6
CONTINUOUS
10
83.0155
20
-52.1269
11
82.9804
21
-52.1292
0
LINE
8
BLACK
6
CONTINUOUS
10
82.9804
20
-52.1292
11
82.9472
21
-52.1179
0
LINE
8
BLACK
6
CONTINUOUS
10
82.9472
20
-52.1179
11
82.7913
21
-52.0279
0
LINE
8
BLACK
6
CONTINUOUS
10
82.7913
20
-52.0279
11
82.7649
21
-52.0047
0
LINE
8
BLACK
6
CONTINUOUS
10
82.7649
20
-52.0047
11
82.7494
21
-51.9732
0
LINE
8
BLACK
6
CONTINUOUS
10
82.7494
20
-51.9732
11
82.7471
21
-51.9382
0
LINE
8
BLACK
6
CONTINUOUS
10
82.7471
20
-51.9382
11
82.7584
21
-51.9049
0
LINE
8
BLACK
6
CONTINUOUS
10
82.7584
20
-51.9049
11
82.8974
21
-51.6642
0
LINE
8
BLACK
6
CONTINUOUS
10
82.8974
20
-51.6642
11
82.9205
21
-51.6378
0
LINE
8
BLACK
6
CONTINUOUS
10
82.9205
20
-51.6378
11
82.952
21
-51.6222
0
LINE
8
BLACK
6
CONTINUOUS
10
82.952
20
-51.6222
11
82.9871
21
-51.6199
0
LINE
8
BLACK
6
CONTINUOUS
10
82.9871
20
-51.6199
11
83.0203
21
-51.6312
0
LINE
8
BLACK
6
CONTINUOUS
10
76.0062
20
-51.6826
11
75.5732
21
-51.9326
0
LINE
8
BLACK
6
CONTINUOUS
10
75.5732
20
-51.9326
11
75.3232
21
-51.4996
0
LINE
8
BLACK
6
CONTINUOUS
10
75.3232
20
-51.4996
11
75.7562
21
-51.2496
0
LINE
8
BLACK
6
CONTINUOUS
10
75.7562
20
-51.2496
11
76.0062
21
-51.6826
0
LINE
8
BLACK
6
CONTINUOUS
10
84.6768
20
-51.4996
11
84.4268
21
-51.9326
0
LINE
8
BLACK
6
CONTINUOUS
10
84.4268
20
-51.9326
11
83.9938
21
-51.6826
0
LINE
8
BLACK
6
CONTINUOUS
10
83.9938
20
-51.6826
11
84.2438
21
-51.2496
0
LINE
8
BLACK
6
CONTINUOUS
10
84.2438
20
-51.2496
11
84.6768
21
-51.4996
0
LINE
8
BLACK
6
CONTINUOUS
10
78.6244
20
-51.2704
11
78.6536
21
-51.2899
0
LINE
8
BLACK
6
CONTINUOUS
10
78.6536
20
-51.2899
11
78.6731
21
-51.3191
0
LINE
8
BLACK
6
CONTINUOUS
10
78.6731
20
-51.3191
11
78.68
21
-51.3535
0
LINE
8
BLACK
6
CONTINUOUS
10
78.68
20
-51.3535
11
78.68
21
-51.6315
0
LINE
8
BLACK
6
CONTINUOUS
10
78.68
20
-51.6315
11
78.6731
21
-51.6659
0
LINE
8
BLACK
6
CONTINUOUS
10
78.6731
20
-51.6659
11
78.6536
21
-51.6951
0
LINE
8
BLACK
6
CONTINUOUS
10
78.6536
20
-51.6951
11
78.6244
21
-51.7146
0
LINE
8
BLACK
6
CONTINUOUS
10
78.6244
20
-51.7146
11
78.59
21
-51.7215
0
LINE
8
BLACK
6
CONTINUOUS
10
78.59
20
-51.7215
11
78.41
21
-51.7215
0
LINE
8
BLACK
6
CONTINUOUS
10
78.41
20
-51.7215
11
78.3756
21
-51.7146
0
LINE
8
BLACK
6
CONTINUOUS
10
78.3756
20
-51.7146
11
78.3464
21
-51.6951
0
LINE
8
BLACK
6
CONTINUOUS
10
78.3464
20
-51.6951
11
78.3269
21
-51.6659
0
LINE
8
BLACK
6
CONTINUOUS
10
78.3269
20
-51.6659
11
78.32
21
-51.6315
0
LINE
8
BLACK
6
CONTINUOUS
10
78.32
20
-51.6315
11
78.32
21
-51.3535
0
LINE
8
BLACK
6
CONTINUOUS
10
78.32
20
-51.3535
11
78.3269
21
-51.3191
0
LINE
8
BLACK
6
CONTINUOUS
10
78.3269
20
-51.3191
11
78.3464
21
-51.2899
0
LINE
8
BLACK
6
CONTINUOUS
10
78.3464
20
-51.2899
11
78.3756
21
-51.2704
0
LINE
8
BLACK
6
CONTINUOUS
10
78.3756
20
-51.2704
11
78.41
21
-51.2635
0
LINE
8
BLACK
6
CONTINUOUS
10
78.41
20
-51.2635
11
78.59
21
-51.2635
0
LINE
8
BLACK
6
CONTINUOUS
10
78.59
20
-51.2635
11
78.6244
21
-51.2704
0
LINE
8
BLACK
6
CONTINUOUS
10
79.8
20
-51.7
11
79.3
21
-51.7
0
LINE
8
BLACK
6
CONTINUOUS
10
79.3
20
-51.7
11
79.3
21
-51.2
0
LINE
8
BLACK
6
CONTINUOUS
10
79.3
20
-51.2
11
79.8
21
-51.2
0
LINE
8
BLACK
6
CONTINUOUS
10
79.8
20
-51.2
11
79.8
21
-51.7
0
LINE
8
BLACK
6
CONTINUOUS
10
80.7
20
-51.7
11
80.2
21
-51.7
0
LINE
8
BLACK
6
CONTINUOUS
10
80.2
20
-51.7
11
80.2
21
-51.2
0
LINE
8
BLACK
6
CONTINUOUS
10
80.2
20
-51.2
11
80.7
21
-51.2
0
LINE
8
BLACK
6
CONTINUOUS
10
80.7
20
-51.2
11
80.7
21
-51.7
0
LINE
8
BLACK
6
CONTINUOUS
10
83.4528
20
-50.8821
11
83.6087
21
-50.9721
0
LINE
8
BLACK
6
CONTINUOUS
10
83.6087
20
-50.9721
11
83.6351
21
-50.9953
0
LINE
8
BLACK
6
CONTINUOUS
10
83.6351
20
-50.9953
11
83.6506
21
-51.0268
0
LINE
8
BLACK
6
CONTINUOUS
10
83.6506
20
-51.0268
11
83.6529
21
-51.0618
0
LINE
8
BLACK
6
CONTINUOUS
10
83.6529
20
-51.0618
11
83.6416
21
-51.0951
0
LINE
8
BLACK
6
CONTINUOUS
10
83.6416
20
-51.0951
11
83.5026
21
-51.3358
0
LINE
8
BLACK
6
CONTINUOUS
10
83.5026
20
-51.3358
11
83.4795
21
-51.3622
0
LINE
8
BLACK
6
CONTINUOUS
10
83.4795
20
-51.3622
11
83.448
21
-51.3778
0
LINE
8
BLACK
6
CONTINUOUS
10
83.448
20
-51.3778
11
83.4129
21
-51.3801
0
LINE
8
BLACK
6
CONTINUOUS
10
83.4129
20
-51.3801
11
83.3797
21
-51.3688
0
LINE
8
BLACK
6
CONTINUOUS
10
83.3797
20
-51.3688
11
83.2238
21
-51.2788
0
LINE
8
BLACK
6
CONTINUOUS
10
83.2238
20
-51.2788
11
83.1974
21
-51.2556
0
LINE
8
BLACK
6
CONTINUOUS
10
83.1974
20
-51.2556
11
83.1819
21
-51.2241
0
LINE
8
BLACK
6
CONTINUOUS
10
83.1819
20
-51.2241
11
83.1796
21
-51.1891
0
LINE
8
BLACK
6
CONTINUOUS
10
83.1796
20
-51.1891
11
83.1909
21
-51.1558
0
LINE
8
BLACK
6
CONTINUOUS
10
83.1909
20
-51.1558
11
83.3299
21
-50.9151
0
LINE
8
BLACK
6
CONTINUOUS
10
83.3299
20
-50.9151
11
83.353
21
-50.8887
0
LINE
8
BLACK
6
CONTINUOUS
10
83.353
20
-50.8887
11
83.3845
21
-50.8731
0
LINE
8
BLACK
6
CONTINUOUS
10
83.3845
20
-50.8731
11
83.4196
21
-50.8708
0
LINE
8
BLACK
6
CONTINUOUS
10
83.4196
20
-50.8708
11
83.4528
21
-50.8821
0
LINE
8
BLACK
6
CONTINUOUS
10
78.6244
20
-50.4054
11
78.6536
21
-50.4249
0
LINE
8
BLACK
6
CONTINUOUS
10
78.6536
20
-50.4249
11
78.6731
21
-50.4541
0
LINE
8
BLACK
6
CONTINUOUS
10
78.6731
20
-50.4541
11
78.68
21
-50.4885
0
LINE
8
BLACK
6
CONTINUOUS
10
78.68
20
-50.4885
11
78.68
21
-50.7665
0
LINE
8
BLACK
6
CONTINUOUS
10
78.68
20
-50.7665
11
78.6731
21
-50.8009
0
LINE
8
BLACK
6
CONTINUOUS
10
78.6731
20
-50.8009
11
78.6536
21
-50.8301
0
LINE
8
BLACK
6
CONTINUOUS
10
78.6536
20
-50.8301
11
78.6244
21
-50.8496
0
LINE
8
BLACK
6
CONTINUOUS
10
78.6244
20
-50.8496
11
78.59
21
-50.8565
0
LINE
8
BLACK
6
CONTINUOUS
10
78.59
20
-50.8565
11
78.41
21
-50.8565
0
LINE
8
BLACK
6
CONTINUOUS
10
78.41
20
-50.8565
11
78.3756
21
-50.8496
0
LINE
8
BLACK
6
CONTINUOUS
10
78.3756
20
-50.8496
11
78.3464
21
-50.8301
0
LINE
8
BLACK
6
CONTINUOUS
10
78.3464
20
-50.8301
11
78.3269
21
-50.8009
0
LINE
8
BLACK
6
CONTINUOUS
10
78.3269
20
-50.8009
11
78.32
21
-50.7665
0
LINE
8
BLACK
6
CONTINUOUS
10
78.32
20
-50.7665
11
78.32
21
-50.4885
0
LINE
8
BLACK
6
CONTINUOUS
10
78.32
20
-50.4885
11
78.3269
21
-50.4541
0
LINE
8
BLACK
6
CONTINUOUS
10
78.3269
20
-50.4541
11
78.3464
21
-50.4249
0
LINE
8
BLACK
6
CONTINUOUS
10
78.3464
20
-50.4249
11
78.3756
21
-50.4054
0
LINE
8
BLACK
6
CONTINUOUS
10
78.3756
20
-50.4054
11
78.41
21
-50.3985
0
LINE
8
BLACK
6
CONTINUOUS
10
78.41
20
-50.3985
11
78.59
21
-50.3985
0
LINE
8
BLACK
6
CONTINUOUS
10
78.59
20
-50.3985
11
78.6244
21
-50.4054
0
LINE
8
BLACK
6
CONTINUOUS
10
79.8
20
-50.8
11
79.3
21
-50.8
0
LINE
8
BLACK
6
CONTINUOUS
10
79.3
20
-50.8
11
79.3
21
-50.3
0
LINE
8
BLACK
6
CONTINUOUS
10
79.3
20
-50.3
11
79.8
21
-50.3
0
LINE
8
BLACK
6
CONTINUOUS
10
79.8
20
-50.3
11
79.8
21
-50.8
0
LINE
8
BLACK
6
CONTINUOUS
10
80.7
20
-50.8
11
80.2
21
-50.8
0
LINE
8
BLACK
6
CONTINUOUS
10
80.2
20
-50.8
11
80.2
21
-50.3
0
LINE
8
BLACK
6
CONTINUOUS
10
80.2
20
-50.3
11
80.7
21
-50.3
0
LINE
8
BLACK
6
CONTINUOUS
10
80.7
20
-50.3
11
80.7
21
-50.8
  0
ENDSEC
  0
EOF
