<?xml version="1.0" standalone="no"?>
 <!DOCTYPE svg PUBLIC "-//W3C//DTD SVG 1.1//EN" 
 "http://www.w3.org/Graphics/SVG/1.1/DTD/svg11.dtd"> 
<svg
  xmlns:svg="http://www.w3.org/2000/svg"
  xmlns="http://www.w3.org/2000/svg"
  xmlns:xlink="http://www.w3.org/1999/xlink"
  version="1.1"
  width="297.0022mm" height="210.0072mm" viewBox="0.0000 0.0000 297.0022 210.0072">
<title>SVG Image created as pedalboard-led-ring-B_Courtyard.svg date 2023/05/22 19:39:17 </title>
  <desc>Image generated by PCBNEW </desc>
<g style="fill:#000000; fill-opacity:1.0000;stroke:#000000; stroke-opacity:1.0000;
stroke-linecap:round; stroke-linejoin:round;"
 transform="translate(0 0) scale(1 1)">
</g>
<g style="fill:#000000; fill-opacity:0.0; 
stroke:#000000; stroke-width:0.0000; stroke-opacity:1; 
stroke-linecap:round; stroke-linejoin:round;">
</g>
<g style="fill:#000000; fill-opacity:0.0; 
stroke:#000000; stroke-width:0.0500; stroke-opacity:1; 
stroke-linecap:round; stroke-linejoin:round;">
<path d="M205.8022 50.1000
L198.4022 50.1000
" />
<path d="M205.8022 55.5000
L205.8022 50.1000
" />
<path d="M198.4022 50.1000
L198.4022 55.5000
" />
<path d="M198.4022 55.5000
L205.8022 55.5000
" />
<path d="M197.0522 62.1000
L197.0522 73.9000
" />
<path d="M205.7522 62.1000
L197.0522 62.1000
" />
<path d="M197.0522 73.9000
L205.7522 73.9000
" />
<path d="M205.7522 73.9000
L205.7522 62.1000
" />
<path d="M207.3022 57.9500
L206.5022 57.9500
" />
<path d="M207.3022 60.0500
L207.3022 57.9500
" />
<path d="M206.5022 57.2500
L205.3522 56.1000
" />
<path d="M206.5022 57.9500
L206.5022 57.2500
" />
<path d="M206.5022 60.0500
L207.3022 60.0500
" />
<path d="M206.5022 60.7500
L206.5022 60.0500
" />
<path d="M206.5022 60.7500
L205.3522 61.9000
" />
<path d="M205.3522 56.1000
L200.7022 56.1000
" />
<path d="M205.3522 61.9000
L200.7022 61.9000
" />
<path d="M200.7022 57.9500
L200.7022 56.1000
" />
<path d="M200.7022 60.0500
L199.9022 60.0500
" />
<path d="M200.7022 61.9000
L200.7022 60.0500
" />
<path d="M199.9022 57.9500
L200.7022 57.9500
" />
<path d="M199.9022 60.0500
L199.9022 57.9500
" />
<path d="M198.3522 54.2000
L198.3522 51.0000
" />
<path d="M196.8522 54.2000
L198.3522 54.2000
" />
<path d="M196.8522 54.2000
L196.8522 51.0000
" />
<path d="M196.8522 51.0000
L198.3522 51.0000
" />
<path d="M196.8122 54.2100
L198.3922 54.2100
" />
<path d="M198.3922 54.2100
L198.3922 56.5900
" />
<path d="M196.8122 56.5900
L196.8122 54.2100
" />
<path d="M198.3922 56.5900
L196.8122 56.5900
" />
<g >
</g>
<g >
</g>
<g >
</g>
<g >
</g>
<g >
</g>
<g >
</g>
<g >
</g>
<g >
</g>
<g >
</g>
<g >
</g>
<g >
</g>
<g >
</g>
<g >
</g>
<g >
</g>
</g> 
</svg>
