<?xml version="1.0" standalone="no"?>
 <!DOCTYPE svg PUBLIC "-//W3C//DTD SVG 1.1//EN" 
 "http://www.w3.org/Graphics/SVG/1.1/DTD/svg11.dtd"> 
<svg
  xmlns:svg="http://www.w3.org/2000/svg"
  xmlns="http://www.w3.org/2000/svg"
  xmlns:xlink="http://www.w3.org/1999/xlink"
  version="1.1"
  width="297.0022mm" height="210.0072mm" viewBox="0.0000 0.0000 297.0022 210.0072">
<title>SVG Image created as pedalboard-led-ring-User_Drawings.svg date 2023/06/03 11:42:22 </title>
  <desc>Image generated by PCBNEW </desc>
<g style="fill:#000000; fill-opacity:1.0000;stroke:#000000; stroke-opacity:1.0000;
stroke-linecap:round; stroke-linejoin:round;"
 transform="translate(0 0) scale(1 1)">
</g>
<g style="fill:#000000; fill-opacity:0.0; 
stroke:#000000; stroke-width:0.0000; stroke-opacity:1; 
stroke-linecap:round; stroke-linejoin:round;">
</g>
<g style="fill:#000000; fill-opacity:0.0; 
stroke:#000000; stroke-width:0.1500; stroke-opacity:1; 
stroke-linecap:round; stroke-linejoin:round;">
<circle cx="217.0022" cy="60.0000" r="6.5000" /> 
</g>
<g style="fill:#000000; fill-opacity:0.0; 
stroke:#000000; stroke-width:0.0500; stroke-opacity:1; 
stroke-linecap:round; stroke-linejoin:round;">
<path d="M225.0851 60.0000
L224.8101 59.5237
" />
<path d="M224.7101 59.3505
L224.4351 58.8742
" />
<path d="M224.3351 58.7010
L224.0601 58.2246
" />
<path d="M223.9601 58.0514
L223.6851 57.5751
" />
<path d="M223.5851 57.4019
L223.3101 56.9256
" />
<path d="M223.2101 56.7524
L222.9351 56.2761
" />
<path d="M222.8351 56.1029
L222.5601 55.6266
" />
<path d="M222.4601 55.4534
L222.1851 54.9771
" />
<path d="M222.0851 54.8038
L221.8101 54.3275
" />
<path d="M221.7101 54.1543
L221.4351 53.6780
" />
<path d="M221.3351 53.5048
L221.0601 53.0285
" />
<path d="M206.0022 60.0000
L206.0159 60.5498
" />
<path d="M206.0278 60.7494
L206.0789 61.2970
" />
<path d="M206.1043 61.4954
L206.1927 62.0382
" />
<path d="M206.2315 62.2343
L206.3566 62.7699
" />
<path d="M206.4088 62.9629
L206.5701 63.4887
" />
<path d="M206.6352 63.6778
L206.8320 64.1913
" />
<path d="M206.9099 64.3755
L207.1412 64.8745
" />
<path d="M207.2314 65.0529
L207.4962 65.5350
" />
<path d="M207.5984 65.7069
L207.8954 66.1697
" />
<path d="M208.0090 66.3343
L208.3369 66.7758
" />
<path d="M208.4615 66.9323
L208.8186 67.3505
" />
<path d="M208.9536 67.4980
L209.3384 67.8909
" />
<path d="M209.4832 68.0289
L209.8938 68.3947
" />
<path d="M210.0476 68.5226
L210.4823 68.8595
" />
<path d="M210.6444 68.9766
L211.1010 69.2831
" />
<path d="M211.2708 69.3889
L211.7472 69.6636
" />
<path d="M211.9237 69.7575
L212.4177 69.9991
" />
<path d="M212.6003 70.0808
L213.1096 70.2882
" />
<path d="M213.2973 70.3573
L213.8196 70.5295
" />
<path d="M214.0116 70.5857
L214.5444 70.7219
" />
<path d="M214.7397 70.7648
L215.2805 70.8644
" />
<path d="M215.4784 70.8939
L216.0247 70.9565
" />
<path d="M216.2241 70.9724
L216.7735 70.9976
" />
<path d="M216.9734 71.0000
L217.5232 70.9877
" />
<path d="M217.7229 70.9764
L218.2706 70.9266
" />
<path d="M218.4691 70.9018
L219.0121 70.8148
" />
<path d="M219.2084 70.7765
L219.7442 70.6528
" />
<path d="M219.9374 70.6011
L220.4636 70.4412
" />
<path d="M220.6529 70.3765
L221.1669 70.1811
" />
<path d="M221.3513 70.1037
L221.8509 69.8737
" />
<path d="M222.0296 69.7839
L222.5123 69.5204
" />
<path d="M222.6845 69.4187
L223.1481 69.1229
" />
<path d="M223.3130 69.0097
L223.7554 68.6830
" />
<path d="M223.9121 68.5588
L224.3312 68.2028
" />
<path d="M224.4792 68.0682
L224.8731 67.6844
" />
<path d="M225.0115 67.5400
L225.3783 67.1303
" />
<path d="M225.5065 66.9768
L225.8446 66.5431
" />
<path d="M225.9621 66.3812
L226.2698 65.9254
" />
<path d="M226.3760 65.7560
L226.6520 65.2803
" />
<path d="M226.7464 65.1040
L226.9893 64.6106
" />
<path d="M227.0715 64.4282
L227.2802 63.9195
" />
<path d="M227.3498 63.7319
L227.5234 63.2101
" />
<path d="M227.5800 63.0183
L227.7176 62.4859
" />
<path d="M227.7611 62.2906
L227.8621 61.7501
" />
<path d="M227.8921 61.5523
L227.9561 61.0061
" />
<path d="M227.9726 60.8068
L227.9992 60.2575
" />
<path d="M228.0020 60.0575
L227.9912 59.5077
" />
<path d="M227.9804 59.3080
L227.9321 58.7602
" />
<path d="M227.9078 58.5616
L227.8222 58.0184
" />
<path d="M227.7844 57.8220
L227.6621 57.2858
" />
<path d="M227.6110 57.0925
L227.4524 56.5659
" />
<path d="M227.3883 56.3765
L227.1942 55.8619
" />
<path d="M227.1173 55.6773
L226.8886 55.1772
" />
<path d="M226.7993 54.9982
L226.5370 54.5148
" />
<path d="M226.4357 54.3424
L226.1412 53.8780
" />
<path d="M226.0284 53.7128
L225.7028 53.2696
" />
<path d="M225.5790 53.1125
L225.2241 52.6924
" />
<path d="M225.0899 52.5442
L224.7071 52.1493
" />
<path d="M224.5631 52.0105
L224.1544 51.6426
" />
<path d="M224.0012 51.5139
L223.5684 51.1747
" />
<path d="M223.4068 51.0568
L222.9519 50.7479
" />
<path d="M222.7827 50.6412
L222.3077 50.3640
" />
<path d="M222.1316 50.2692
L221.6389 50.0250
" />
<path d="M221.4568 49.9423
L220.9485 49.7323
" />
<path d="M220.7612 49.6622
L220.2398 49.4873
" />
<path d="M220.0481 49.4301
L219.5161 49.2911
" />
<path d="M219.3210 49.2472
L218.7806 49.1447
" />
<path d="M218.5830 49.1142
L218.0369 49.0488
" />
<path d="M217.8377 49.0318
L217.2884 49.0037
" />
<path d="M217.0885 49.0003
L216.5386 49.0098
" />
<path d="M216.3389 49.0200
L215.7909 49.0669
" />
<path d="M215.5924 49.0907
L215.0489 49.1748
" />
<path d="M214.8524 49.2121
L214.3159 49.3330
" />
<path d="M214.1224 49.3836
L213.5954 49.5408
" />
<path d="M213.4058 49.6045
L212.8908 49.7972
" />
<path d="M212.7060 49.8737
L212.2052 50.1011
" />
<path d="M212.0260 50.1899
L211.5420 50.4509
" />
<path d="M211.3693 50.5517
L210.9041 50.8451
" />
<path d="M210.7386 50.9574
L210.2945 51.2818
" />
<path d="M210.1371 51.4052
L209.7162 51.7590
" />
<path d="M209.5675 51.8929
L209.1716 52.2746
" />
<path d="M209.0325 52.4182
L208.6635 52.8260
" />
<path d="M208.5345 52.9788
L208.1941 53.4108
" />
<path d="M208.0758 53.5720
L207.7657 54.0262
" />
<path d="M207.6586 54.1951
L207.3801 54.6693
" />
<path d="M207.2848 54.8452
L207.0393 55.3373
" />
<path d="M206.9562 55.5192
L206.7448 56.0269
" />
<path d="M206.6743 56.2140
L206.4980 56.7349
" />
<path d="M206.4403 56.9264
L206.2999 57.4581
" />
<path d="M206.2555 57.6531
L206.1516 58.1932
" />
<path d="M206.1205 58.3908
L206.0537 58.9366
" />
<path d="M206.0362 59.1359
L206.0067 59.6850
" />
<path d="M206.0028 59.8850
L206.0022 60.0000
" />
<path d="M221.0437 67.0000
L220.4937 67.0000
" />
<path d="M220.2937 67.0000
L219.7437 67.0000
" />
<path d="M219.5437 67.0000
L218.9937 67.0000
" />
<path d="M218.7937 67.0000
L218.2437 67.0000
" />
<path d="M218.0437 67.0000
L217.4937 67.0000
" />
<path d="M217.2937 67.0000
L216.7437 67.0000
" />
<path d="M216.5437 67.0000
L215.9937 67.0000
" />
<path d="M215.7937 67.0000
L215.2437 67.0000
" />
<path d="M215.0437 67.0000
L214.4937 67.0000
" />
<path d="M214.2937 67.0000
L213.7437 67.0000
" />
<path d="M213.5437 67.0000
L212.9937 67.0000
" />
</g>
<g style="fill:#000000; fill-opacity:0.0; 
stroke:#000000; stroke-width:0.1500; stroke-opacity:1; 
stroke-linecap:round; stroke-linejoin:round;">
<circle cx="217.0022" cy="60.0000" r="12.0000" /> 
</g>
<g style="fill:#000000; fill-opacity:0.0; 
stroke:#000000; stroke-width:0.0500; stroke-opacity:1; 
stroke-linecap:round; stroke-linejoin:round;">
<path d="M208.9193 60.0000
L209.1943 59.5237
" />
<path d="M209.2943 59.3505
L209.5693 58.8742
" />
<path d="M209.6693 58.7010
L209.9443 58.2246
" />
<path d="M210.0443 58.0514
L210.3193 57.5751
" />
<path d="M210.4193 57.4019
L210.6943 56.9256
" />
<path d="M210.7943 56.7524
L211.0693 56.2761
" />
<path d="M211.1693 56.1029
L211.4443 55.6266
" />
<path d="M211.5443 55.4534
L211.8193 54.9771
" />
<path d="M211.9193 54.8038
L212.1943 54.3275
" />
<path d="M212.2943 54.1543
L212.5693 53.6780
" />
<path d="M212.6693 53.5048
L212.9443 53.0285
" />
<path d="M221.0437 67.0000
L221.3187 66.5237
" />
<path d="M221.4187 66.3505
L221.6937 65.8742
" />
<path d="M221.7937 65.7010
L222.0687 65.2246
" />
<path d="M222.1687 65.0514
L222.4437 64.5751
" />
<path d="M222.5437 64.4019
L222.8187 63.9256
" />
<path d="M222.9187 63.7524
L223.1937 63.2761
" />
<path d="M223.2937 63.1029
L223.5687 62.6266
" />
<path d="M223.6687 62.4534
L223.9437 61.9771
" />
<path d="M224.0437 61.8038
L224.3187 61.3275
" />
<path d="M224.4187 61.1543
L224.6937 60.6780
" />
<path d="M224.7937 60.5048
L225.0687 60.0285
" />
<path d="M221.0437 53.0000
L220.4937 53.0000
" />
<path d="M220.2937 53.0000
L219.7437 53.0000
" />
<path d="M219.5437 53.0000
L218.9937 53.0000
" />
<path d="M218.7937 53.0000
L218.2437 53.0000
" />
<path d="M218.0437 53.0000
L217.4937 53.0000
" />
<path d="M217.2937 53.0000
L216.7437 53.0000
" />
<path d="M216.5437 53.0000
L215.9937 53.0000
" />
<path d="M215.7937 53.0000
L215.2437 53.0000
" />
<path d="M215.0437 53.0000
L214.4937 53.0000
" />
<path d="M214.2937 53.0000
L213.7437 53.0000
" />
<path d="M213.5437 53.0000
L212.9937 53.0000
" />
</g>
<g style="fill:#000000; fill-opacity:1.0000; 
stroke:#000000; stroke-width:0.0000; stroke-opacity:1; 
stroke-linecap:round; stroke-linejoin:round;">
<circle cx="208.0022" cy="60.0000" r="0.0150" /> 
<circle cx="208.0030" cy="60.1200" r="0.0150" /> 
<circle cx="208.0054" cy="60.2400" r="0.0150" /> 
<circle cx="208.0094" cy="60.3599" r="0.0150" /> 
<circle cx="208.0150" cy="60.4798" r="0.0150" /> 
<circle cx="208.0222" cy="60.5996" r="0.0150" /> 
<circle cx="208.0310" cy="60.7192" r="0.0150" /> 
<circle cx="208.0414" cy="60.8388" r="0.0150" /> 
<circle cx="208.0534" cy="60.9582" r="0.0150" /> 
<circle cx="208.0669" cy="61.0774" r="0.0150" /> 
<circle cx="208.0821" cy="61.1964" r="0.0150" /> 
<circle cx="208.0988" cy="61.3153" r="0.0150" /> 
<circle cx="208.1172" cy="61.4339" r="0.0150" /> 
<circle cx="208.1371" cy="61.5522" r="0.0150" /> 
<circle cx="208.1585" cy="61.6703" r="0.0150" /> 
<circle cx="208.1816" cy="61.7880" r="0.0150" /> 
<circle cx="208.2062" cy="61.9055" r="0.0150" /> 
<circle cx="208.2324" cy="62.0226" r="0.0150" /> 
<circle cx="208.2602" cy="62.1393" r="0.0150" /> 
<circle cx="208.2895" cy="62.2557" r="0.0150" /> 
<circle cx="208.3203" cy="62.3717" r="0.0150" /> 
<circle cx="208.3527" cy="62.4872" r="0.0150" /> 
<circle cx="208.3866" cy="62.6023" r="0.0150" /> 
<circle cx="208.4221" cy="62.7169" r="0.0150" /> 
<circle cx="208.4591" cy="62.8311" r="0.0150" /> 
<circle cx="208.4976" cy="62.9448" r="0.0150" /> 
<circle cx="208.5376" cy="63.0579" r="0.0150" /> 
<circle cx="208.5791" cy="63.1705" r="0.0150" /> 
<circle cx="208.6221" cy="63.2825" r="0.0150" /> 
<circle cx="208.6667" cy="63.3939" r="0.0150" /> 
<circle cx="208.7127" cy="63.5048" r="0.0150" /> 
<circle cx="208.7601" cy="63.6150" r="0.0150" /> 
<circle cx="208.8090" cy="63.7245" r="0.0150" /> 
<circle cx="208.8594" cy="63.8335" r="0.0150" /> 
<circle cx="208.9113" cy="63.9417" r="0.0150" /> 
<circle cx="208.9645" cy="64.0492" r="0.0150" /> 
<circle cx="209.0192" cy="64.1560" r="0.0150" /> 
<circle cx="209.0754" cy="64.2621" r="0.0150" /> 
<circle cx="209.1329" cy="64.3674" r="0.0150" /> 
<circle cx="209.1918" cy="64.4719" r="0.0150" /> 
<circle cx="209.2521" cy="64.5757" r="0.0150" /> 
<circle cx="209.3138" cy="64.6786" r="0.0150" /> 
<circle cx="209.3769" cy="64.7807" r="0.0150" /> 
<circle cx="209.4413" cy="64.8819" r="0.0150" /> 
<circle cx="209.5071" cy="64.9823" r="0.0150" /> 
<circle cx="209.5742" cy="65.0818" r="0.0150" /> 
<circle cx="209.6426" cy="65.1804" r="0.0150" /> 
<circle cx="209.7123" cy="65.2780" r="0.0150" /> 
<circle cx="209.7833" cy="65.3748" r="0.0150" /> 
<circle cx="209.8556" cy="65.4705" r="0.0150" /> 
<circle cx="209.9292" cy="65.5653" r="0.0150" /> 
<circle cx="210.0040" cy="65.6591" r="0.0150" /> 
<circle cx="210.0801" cy="65.7519" r="0.0150" /> 
<circle cx="210.1574" cy="65.8437" r="0.0150" /> 
<circle cx="210.2359" cy="65.9345" r="0.0150" /> 
<circle cx="210.3157" cy="66.0241" r="0.0150" /> 
<circle cx="210.3966" cy="66.1128" r="0.0150" /> 
<circle cx="210.4787" cy="66.2003" r="0.0150" /> 
<circle cx="210.5619" cy="66.2867" r="0.0150" /> 
<circle cx="210.6463" cy="66.3720" r="0.0150" /> 
<circle cx="210.7318" cy="66.4562" r="0.0150" /> 
<circle cx="210.8185" cy="66.5392" r="0.0150" /> 
<circle cx="210.9062" cy="66.6211" r="0.0150" /> 
<circle cx="210.9950" cy="66.7018" r="0.0150" /> 
<circle cx="211.0849" cy="66.7813" r="0.0150" /> 
<circle cx="211.1759" cy="66.8596" r="0.0150" /> 
<circle cx="211.2678" cy="66.9366" r="0.0150" /> 
<circle cx="211.3608" cy="67.0125" r="0.0150" /> 
<circle cx="211.4548" cy="67.0871" r="0.0150" /> 
<circle cx="211.5498" cy="67.1604" r="0.0150" /> 
<circle cx="211.6458" cy="67.2325" r="0.0150" /> 
<circle cx="211.7427" cy="67.3032" r="0.0150" /> 
<circle cx="211.8405" cy="67.3727" r="0.0150" /> 
<circle cx="211.9393" cy="67.4409" r="0.0150" /> 
<circle cx="212.0389" cy="67.5077" r="0.0150" /> 
<circle cx="212.1395" cy="67.5732" r="0.0150" /> 
<circle cx="212.2409" cy="67.6374" r="0.0150" /> 
<circle cx="212.3431" cy="67.7002" r="0.0150" /> 
<circle cx="212.4462" cy="67.7616" r="0.0150" /> 
<circle cx="212.5501" cy="67.8217" r="0.0150" /> 
<circle cx="212.6548" cy="67.8804" r="0.0150" /> 
<circle cx="212.7602" cy="67.9376" r="0.0150" /> 
<circle cx="212.8665" cy="67.9935" r="0.0150" /> 
<circle cx="212.9734" cy="68.0479" r="0.0150" /> 
<circle cx="213.0811" cy="68.1009" r="0.0150" /> 
<circle cx="213.1894" cy="68.1525" r="0.0150" /> 
<circle cx="213.2985" cy="68.2026" r="0.0150" /> 
<circle cx="213.4081" cy="68.2512" r="0.0150" /> 
<circle cx="213.5185" cy="68.2984" r="0.0150" /> 
<circle cx="213.6294" cy="68.3441" r="0.0150" /> 
<circle cx="213.7410" cy="68.3884" r="0.0150" /> 
<circle cx="213.8531" cy="68.4311" r="0.0150" /> 
<circle cx="213.9658" cy="68.4723" r="0.0150" /> 
<circle cx="214.0790" cy="68.5121" r="0.0150" /> 
<circle cx="214.1928" cy="68.5503" r="0.0150" /> 
<circle cx="214.3070" cy="68.5870" r="0.0150" /> 
<circle cx="214.4218" cy="68.6221" r="0.0150" /> 
<circle cx="214.5370" cy="68.6558" r="0.0150" /> 
<circle cx="214.6526" cy="68.6879" r="0.0150" /> 
<circle cx="214.7686" cy="68.7184" r="0.0150" /> 
<circle cx="214.8851" cy="68.7474" r="0.0150" /> 
<circle cx="215.0019" cy="68.7749" r="0.0150" /> 
<circle cx="215.1191" cy="68.8008" r="0.0150" /> 
<circle cx="215.2366" cy="68.8251" r="0.0150" /> 
<circle cx="215.3544" cy="68.8479" r="0.0150" /> 
<circle cx="215.4725" cy="68.8690" r="0.0150" /> 
<circle cx="215.5909" cy="68.8887" r="0.0150" /> 
<circle cx="215.7095" cy="68.9067" r="0.0150" /> 
<circle cx="215.8284" cy="68.9231" r="0.0150" /> 
<circle cx="215.9475" cy="68.9380" r="0.0150" /> 
<circle cx="216.0667" cy="68.9513" r="0.0150" /> 
<circle cx="216.1862" cy="68.9629" r="0.0150" /> 
<circle cx="216.3057" cy="68.9730" r="0.0150" /> 
<circle cx="216.4254" cy="68.9815" r="0.0150" /> 
<circle cx="216.5452" cy="68.9884" r="0.0150" /> 
<circle cx="216.6651" cy="68.9937" r="0.0150" /> 
<circle cx="216.7851" cy="68.9974" r="0.0150" /> 
<circle cx="216.9050" cy="68.9995" r="0.0150" /> 
<circle cx="217.0250" cy="69.0000" r="0.0150" /> 
<circle cx="217.1450" cy="68.9989" r="0.0150" /> 
<circle cx="217.2650" cy="68.9962" r="0.0150" /> 
<circle cx="217.3849" cy="68.9919" r="0.0150" /> 
<circle cx="217.5048" cy="68.9860" r="0.0150" /> 
<circle cx="217.6245" cy="68.9785" r="0.0150" /> 
<circle cx="217.7442" cy="68.9694" r="0.0150" /> 
<circle cx="217.8637" cy="68.9587" r="0.0150" /> 
<circle cx="217.9831" cy="68.9464" r="0.0150" /> 
<circle cx="218.1023" cy="68.9325" r="0.0150" /> 
<circle cx="218.2213" cy="68.9171" r="0.0150" /> 
<circle cx="218.3401" cy="68.9000" r="0.0150" /> 
<circle cx="218.4586" cy="68.8814" r="0.0150" /> 
<circle cx="218.5769" cy="68.8612" r="0.0150" /> 
<circle cx="218.6949" cy="68.8394" r="0.0150" /> 
<circle cx="218.8126" cy="68.8160" r="0.0150" /> 
<circle cx="218.9300" cy="68.7911" r="0.0150" /> 
<circle cx="219.0470" cy="68.7646" r="0.0150" /> 
<circle cx="219.1637" cy="68.7366" r="0.0150" /> 
<circle cx="219.2800" cy="68.7070" r="0.0150" /> 
<circle cx="219.3959" cy="68.6758" r="0.0150" /> 
<circle cx="219.5113" cy="68.6432" r="0.0150" /> 
<circle cx="219.6264" cy="68.6089" r="0.0150" /> 
<circle cx="219.7409" cy="68.5732" r="0.0150" /> 
<circle cx="219.8550" cy="68.5359" r="0.0150" /> 
<circle cx="219.9685" cy="68.4971" r="0.0150" /> 
<circle cx="220.0815" cy="68.4568" r="0.0150" /> 
<circle cx="220.1940" cy="68.4150" r="0.0150" /> 
<circle cx="220.3059" cy="68.3717" r="0.0150" /> 
<circle cx="220.4173" cy="68.3269" r="0.0150" /> 
<circle cx="220.5280" cy="68.2806" r="0.0150" /> 
<circle cx="220.6381" cy="68.2329" r="0.0150" /> 
<circle cx="220.7475" cy="68.1837" r="0.0150" /> 
<circle cx="220.8563" cy="68.1330" r="0.0150" /> 
<circle cx="220.9644" cy="68.0809" r="0.0150" /> 
<circle cx="221.0718" cy="68.0274" r="0.0150" /> 
<circle cx="221.1785" cy="67.9724" r="0.0150" /> 
<circle cx="221.2844" cy="67.9160" r="0.0150" /> 
<circle cx="221.3895" cy="67.8582" r="0.0150" /> 
<circle cx="221.4939" cy="67.7990" r="0.0150" /> 
<circle cx="221.5975" cy="67.7384" r="0.0150" /> 
<circle cx="221.7003" cy="67.6765" r="0.0150" /> 
<circle cx="221.8022" cy="67.6131" r="0.0150" /> 
<circle cx="221.9033" cy="67.5485" r="0.0150" /> 
<circle cx="222.0035" cy="67.4825" r="0.0150" /> 
<circle cx="222.1028" cy="67.4151" r="0.0150" /> 
<circle cx="222.2012" cy="67.3464" r="0.0150" /> 
<circle cx="222.2987" cy="67.2765" r="0.0150" /> 
<circle cx="222.3953" cy="67.2052" r="0.0150" /> 
<circle cx="222.4908" cy="67.1327" r="0.0150" /> 
<circle cx="222.5855" cy="67.0588" r="0.0150" /> 
<circle cx="222.6791" cy="66.9838" r="0.0150" /> 
<circle cx="222.7717" cy="66.9075" r="0.0150" /> 
<circle cx="222.8633" cy="66.8299" r="0.0150" /> 
<circle cx="222.9538" cy="66.7512" r="0.0150" /> 
<circle cx="223.0433" cy="66.6712" r="0.0150" /> 
<circle cx="223.1317" cy="66.5901" r="0.0150" /> 
<circle cx="223.2190" cy="66.5078" r="0.0150" /> 
<circle cx="223.3052" cy="66.4243" r="0.0150" /> 
<circle cx="223.3903" cy="66.3397" r="0.0150" /> 
<circle cx="223.4743" cy="66.2540" r="0.0150" /> 
<circle cx="223.5571" cy="66.1671" r="0.0150" /> 
<circle cx="223.6387" cy="66.0792" r="0.0150" /> 
<circle cx="223.7192" cy="65.9901" r="0.0150" /> 
<circle cx="223.7985" cy="65.9001" r="0.0150" /> 
<circle cx="223.8765" cy="65.8089" r="0.0150" /> 
<circle cx="223.9534" cy="65.7167" r="0.0150" /> 
<circle cx="224.0290" cy="65.6236" r="0.0150" /> 
<circle cx="224.1033" cy="65.5294" r="0.0150" /> 
<circle cx="224.1764" cy="65.4342" r="0.0150" /> 
<circle cx="224.2482" cy="65.3381" r="0.0150" /> 
<circle cx="224.3188" cy="65.2410" r="0.0150" /> 
<circle cx="224.3880" cy="65.1430" r="0.0150" /> 
<circle cx="224.4559" cy="65.0440" r="0.0150" /> 
<circle cx="224.5225" cy="64.9442" r="0.0150" /> 
<circle cx="224.5878" cy="64.8435" r="0.0150" /> 
<circle cx="224.6517" cy="64.7419" r="0.0150" /> 
<circle cx="224.7142" cy="64.6395" r="0.0150" /> 
<circle cx="224.7754" cy="64.5363" r="0.0150" /> 
<circle cx="224.8352" cy="64.4322" r="0.0150" /> 
<circle cx="224.8936" cy="64.3274" r="0.0150" /> 
<circle cx="224.9506" cy="64.2218" r="0.0150" /> 
<circle cx="225.0061" cy="64.1155" r="0.0150" /> 
<circle cx="225.0603" cy="64.0084" r="0.0150" /> 
<circle cx="225.1130" cy="63.9006" r="0.0150" /> 
<circle cx="225.1643" cy="63.7921" r="0.0150" /> 
<circle cx="225.2141" cy="63.6829" r="0.0150" /> 
<circle cx="225.2625" cy="63.5731" r="0.0150" /> 
<circle cx="225.3094" cy="63.4627" r="0.0150" /> 
<circle cx="225.3549" cy="63.3516" r="0.0150" /> 
<circle cx="225.3988" cy="63.2399" r="0.0150" /> 
<circle cx="225.4412" cy="63.1277" r="0.0150" /> 
<circle cx="225.4822" cy="63.0149" r="0.0150" /> 
<circle cx="225.5216" cy="62.9016" r="0.0150" /> 
<circle cx="225.5596" cy="62.7877" r="0.0150" /> 
<circle cx="225.5960" cy="62.6734" r="0.0150" /> 
<circle cx="225.6309" cy="62.5586" r="0.0150" /> 
<circle cx="225.6642" cy="62.4433" r="0.0150" /> 
<circle cx="225.6960" cy="62.3276" r="0.0150" /> 
<circle cx="225.7263" cy="62.2115" r="0.0150" /> 
<circle cx="225.7550" cy="62.0949" r="0.0150" /> 
<circle cx="225.7821" cy="61.9781" r="0.0150" /> 
<circle cx="225.8077" cy="61.8608" r="0.0150" /> 
<circle cx="225.8318" cy="61.7432" r="0.0150" /> 
<circle cx="225.8542" cy="61.6254" r="0.0150" /> 
<circle cx="225.8751" cy="61.5072" r="0.0150" /> 
<circle cx="225.8944" cy="61.3888" r="0.0150" /> 
<circle cx="225.9121" cy="61.2701" r="0.0150" /> 
<circle cx="225.9283" cy="61.1512" r="0.0150" /> 
<circle cx="225.9428" cy="61.0321" r="0.0150" /> 
<circle cx="225.9558" cy="60.9128" r="0.0150" /> 
<circle cx="225.9672" cy="60.7933" r="0.0150" /> 
<circle cx="225.9769" cy="60.6737" r="0.0150" /> 
<circle cx="225.9851" cy="60.5540" r="0.0150" /> 
<circle cx="225.9917" cy="60.4342" r="0.0150" /> 
<circle cx="225.9967" cy="60.3143" r="0.0150" /> 
<circle cx="226.0001" cy="60.1943" r="0.0150" /> 
<circle cx="226.0019" cy="60.0743" r="0.0150" /> 
<circle cx="226.0021" cy="59.9543" r="0.0150" /> 
<circle cx="226.0007" cy="59.8343" r="0.0150" /> 
<circle cx="225.9977" cy="59.7144" r="0.0150" /> 
<circle cx="225.9931" cy="59.5945" r="0.0150" /> 
<circle cx="225.9869" cy="59.4746" r="0.0150" /> 
<circle cx="225.9791" cy="59.3549" r="0.0150" /> 
<circle cx="225.9697" cy="59.2353" r="0.0150" /> 
<circle cx="225.9587" cy="59.1158" r="0.0150" /> 
<circle cx="225.9461" cy="58.9964" r="0.0150" /> 
<circle cx="225.9319" cy="58.8773" r="0.0150" /> 
<circle cx="225.9161" cy="58.7583" r="0.0150" /> 
<circle cx="225.8988" cy="58.6396" r="0.0150" /> 
<circle cx="225.8799" cy="58.5211" r="0.0150" /> 
<circle cx="225.8593" cy="58.4028" r="0.0150" /> 
<circle cx="225.8373" cy="58.2849" r="0.0150" /> 
<circle cx="225.8136" cy="58.1672" r="0.0150" /> 
<circle cx="225.7884" cy="58.0499" r="0.0150" /> 
<circle cx="225.7616" cy="57.9330" r="0.0150" /> 
<circle cx="225.7333" cy="57.8163" r="0.0150" /> 
<circle cx="225.7034" cy="57.7001" r="0.0150" /> 
<circle cx="225.6719" cy="57.5843" r="0.0150" /> 
<circle cx="225.6390" cy="57.4689" r="0.0150" /> 
<circle cx="225.6045" cy="57.3540" r="0.0150" /> 
<circle cx="225.5684" cy="57.2396" r="0.0150" /> 
<circle cx="225.5308" cy="57.1256" r="0.0150" /> 
<circle cx="225.4918" cy="57.0121" r="0.0150" /> 
<circle cx="225.4512" cy="56.8992" r="0.0150" /> 
<circle cx="225.4091" cy="56.7868" r="0.0150" /> 
<circle cx="225.3655" cy="56.6750" r="0.0150" /> 
<circle cx="225.3204" cy="56.5638" r="0.0150" /> 
<circle cx="225.2739" cy="56.4532" r="0.0150" /> 
<circle cx="225.2258" cy="56.3432" r="0.0150" /> 
<circle cx="225.1763" cy="56.2339" r="0.0150" /> 
<circle cx="225.1254" cy="56.1253" r="0.0150" /> 
<circle cx="225.0730" cy="56.0173" r="0.0150" /> 
<circle cx="225.0192" cy="55.9101" r="0.0150" /> 
<circle cx="224.9640" cy="55.8035" r="0.0150" /> 
<circle cx="224.9073" cy="55.6978" r="0.0150" /> 
<circle cx="224.8492" cy="55.5927" r="0.0150" /> 
<circle cx="224.7898" cy="55.4885" r="0.0150" /> 
<circle cx="224.7289" cy="55.3851" r="0.0150" /> 
<circle cx="224.6667" cy="55.2825" r="0.0150" /> 
<circle cx="224.6031" cy="55.1807" r="0.0150" /> 
<circle cx="224.5382" cy="55.0798" r="0.0150" /> 
<circle cx="224.4719" cy="54.9797" r="0.0150" /> 
<circle cx="224.4043" cy="54.8806" r="0.0150" /> 
<circle cx="224.3354" cy="54.7824" r="0.0150" /> 
<circle cx="224.2652" cy="54.6850" r="0.0150" /> 
<circle cx="224.1937" cy="54.5887" r="0.0150" /> 
<circle cx="224.1209" cy="54.4933" r="0.0150" /> 
<circle cx="224.0469" cy="54.3989" r="0.0150" /> 
<circle cx="223.9715" cy="54.3054" r="0.0150" /> 
<circle cx="223.8950" cy="54.2130" r="0.0150" /> 
<circle cx="223.8172" cy="54.1216" r="0.0150" /> 
<circle cx="223.7383" cy="54.0313" r="0.0150" /> 
<circle cx="223.6581" cy="53.9420" r="0.0150" /> 
<circle cx="223.5767" cy="53.8538" r="0.0150" /> 
<circle cx="223.4942" cy="53.7667" r="0.0150" /> 
<circle cx="223.4105" cy="53.6807" r="0.0150" /> 
<circle cx="223.3257" cy="53.5958" r="0.0150" /> 
<circle cx="223.2397" cy="53.5121" r="0.0150" /> 
<circle cx="223.1527" cy="53.4295" r="0.0150" /> 
<circle cx="223.0645" cy="53.3481" r="0.0150" /> 
<circle cx="222.9753" cy="53.2678" r="0.0150" /> 
<circle cx="222.8850" cy="53.1888" r="0.0150" /> 
<circle cx="222.7937" cy="53.1109" r="0.0150" /> 
<circle cx="222.7013" cy="53.0343" r="0.0150" /> 
<circle cx="222.6079" cy="52.9590" r="0.0150" /> 
<circle cx="222.5135" cy="52.8849" r="0.0150" /> 
<circle cx="222.4182" cy="52.8120" r="0.0150" /> 
<circle cx="222.3219" cy="52.7404" r="0.0150" /> 
<circle cx="222.2246" cy="52.6702" r="0.0150" /> 
<circle cx="222.1264" cy="52.6012" r="0.0150" /> 
<circle cx="222.0273" cy="52.5335" r="0.0150" /> 
<circle cx="221.9273" cy="52.4672" r="0.0150" /> 
<circle cx="221.8264" cy="52.4022" r="0.0150" /> 
<circle cx="221.7247" cy="52.3385" r="0.0150" /> 
<circle cx="221.6221" cy="52.2763" r="0.0150" /> 
<circle cx="221.5187" cy="52.2153" r="0.0150" /> 
<circle cx="221.4145" cy="52.1558" r="0.0150" /> 
<circle cx="221.3096" cy="52.0977" r="0.0150" /> 
<circle cx="221.2038" cy="52.0410" r="0.0150" /> 
<circle cx="221.0973" cy="51.9856" r="0.0150" /> 
<circle cx="220.9901" cy="51.9318" r="0.0150" /> 
<circle cx="220.8822" cy="51.8793" r="0.0150" /> 
<circle cx="220.7736" cy="51.8283" r="0.0150" /> 
<circle cx="220.6643" cy="51.7787" r="0.0150" /> 
<circle cx="220.5543" cy="51.7306" r="0.0150" /> 
<circle cx="220.4438" cy="51.6840" r="0.0150" /> 
<circle cx="220.3326" cy="51.6389" r="0.0150" /> 
<circle cx="220.2208" cy="51.5952" r="0.0150" /> 
<circle cx="220.1085" cy="51.5530" r="0.0150" /> 
<circle cx="219.9956" cy="51.5124" r="0.0150" /> 
<circle cx="219.8821" cy="51.4732" r="0.0150" /> 
<circle cx="219.7682" cy="51.4356" r="0.0150" /> 
<circle cx="219.6538" cy="51.3995" r="0.0150" /> 
<circle cx="219.5389" cy="51.3649" r="0.0150" /> 
<circle cx="219.4235" cy="51.3318" r="0.0150" /> 
<circle cx="219.3077" cy="51.3003" r="0.0150" /> 
<circle cx="219.1915" cy="51.2703" r="0.0150" /> 
<circle cx="219.0749" cy="51.2419" r="0.0150" /> 
<circle cx="218.9580" cy="51.2151" r="0.0150" /> 
<circle cx="218.8407" cy="51.1898" r="0.0150" /> 
<circle cx="218.7230" cy="51.1660" r="0.0150" /> 
<circle cx="218.6051" cy="51.1439" r="0.0150" /> 
<circle cx="218.4869" cy="51.1233" r="0.0150" /> 
<circle cx="218.3684" cy="51.1043" r="0.0150" /> 
<circle cx="218.2497" cy="51.0869" r="0.0150" /> 
<circle cx="218.1307" cy="51.0710" r="0.0150" /> 
<circle cx="218.0116" cy="51.0568" r="0.0150" /> 
<circle cx="217.8922" cy="51.0441" r="0.0150" /> 
<circle cx="217.7728" cy="51.0330" r="0.0150" /> 
<circle cx="217.6531" cy="51.0236" r="0.0150" /> 
<circle cx="217.5334" cy="51.0157" r="0.0150" /> 
<circle cx="217.4136" cy="51.0094" r="0.0150" /> 
<circle cx="217.2936" cy="51.0047" r="0.0150" /> 
<circle cx="217.1737" cy="51.0016" r="0.0150" /> 
<circle cx="217.0537" cy="51.0001" r="0.0150" /> 
<circle cx="216.9337" cy="51.0003" r="0.0150" /> 
<circle cx="216.8137" cy="51.0020" r="0.0150" /> 
<circle cx="216.6938" cy="51.0053" r="0.0150" /> 
<circle cx="216.5739" cy="51.0102" r="0.0150" /> 
<circle cx="216.4540" cy="51.0167" r="0.0150" /> 
<circle cx="216.3343" cy="51.0248" r="0.0150" /> 
<circle cx="216.2147" cy="51.0345" r="0.0150" /> 
<circle cx="216.0952" cy="51.0458" r="0.0150" /> 
<circle cx="215.9759" cy="51.0587" r="0.0150" /> 
<circle cx="215.8568" cy="51.0732" r="0.0150" /> 
<circle cx="215.7379" cy="51.0892" r="0.0150" /> 
<circle cx="215.6192" cy="51.1069" r="0.0150" /> 
<circle cx="215.5008" cy="51.1261" r="0.0150" /> 
<circle cx="215.3826" cy="51.1469" r="0.0150" /> 
<circle cx="215.2647" cy="51.1693" r="0.0150" /> 
<circle cx="215.1471" cy="51.1933" r="0.0150" /> 
<circle cx="215.0298" cy="51.2188" r="0.0150" /> 
<circle cx="214.9129" cy="51.2459" r="0.0150" /> 
<circle cx="214.7964" cy="51.2745" r="0.0150" /> 
<circle cx="214.6803" cy="51.3047" r="0.0150" /> 
<circle cx="214.5645" cy="51.3364" r="0.0150" /> 
<circle cx="214.4492" cy="51.3697" r="0.0150" /> 
<circle cx="214.3344" cy="51.4045" r="0.0150" /> 
<circle cx="214.2200" cy="51.4408" r="0.0150" /> 
<circle cx="214.1062" cy="51.4787" r="0.0150" /> 
<circle cx="213.9928" cy="51.5180" r="0.0150" /> 
<circle cx="213.8800" cy="51.5589" r="0.0150" /> 
<circle cx="213.7677" cy="51.6013" r="0.0150" /> 
<circle cx="213.6560" cy="51.6452" r="0.0150" /> 
<circle cx="213.5449" cy="51.6905" r="0.0150" /> 
<circle cx="213.4344" cy="51.7374" r="0.0150" /> 
<circle cx="213.3246" cy="51.7857" r="0.0150" /> 
<circle cx="213.2154" cy="51.8354" r="0.0150" /> 
<circle cx="213.1069" cy="51.8866" r="0.0150" /> 
<circle cx="212.9991" cy="51.9393" r="0.0150" /> 
<circle cx="212.8919" cy="51.9934" r="0.0150" /> 
<circle cx="212.7856" cy="52.0489" r="0.0150" /> 
<circle cx="212.6799" cy="52.1058" r="0.0150" /> 
<circle cx="212.5750" cy="52.1642" r="0.0150" /> 
<circle cx="212.4710" cy="52.2239" r="0.0150" /> 
<circle cx="212.3677" cy="52.2850" r="0.0150" /> 
<circle cx="212.2652" cy="52.3475" r="0.0150" /> 
<circle cx="212.1636" cy="52.4113" r="0.0150" /> 
<circle cx="212.0629" cy="52.4765" r="0.0150" /> 
<circle cx="211.9630" cy="52.5430" r="0.0150" /> 
<circle cx="211.8640" cy="52.6109" r="0.0150" /> 
<circle cx="211.7660" cy="52.6800" r="0.0150" /> 
<circle cx="211.6688" cy="52.7505" r="0.0150" /> 
<circle cx="211.5727" cy="52.8223" r="0.0150" /> 
<circle cx="211.4774" cy="52.8953" r="0.0150" /> 
<circle cx="211.3832" cy="52.9696" r="0.0150" /> 
<circle cx="211.2900" cy="53.0451" r="0.0150" /> 
<circle cx="211.1977" cy="53.1219" r="0.0150" /> 
<circle cx="211.1066" cy="53.1999" r="0.0150" /> 
<circle cx="211.0164" cy="53.2791" r="0.0150" /> 
<circle cx="210.9273" cy="53.3595" r="0.0150" /> 
<circle cx="210.8393" cy="53.4411" r="0.0150" /> 
<circle cx="210.7524" cy="53.5239" r="0.0150" /> 
<circle cx="210.6666" cy="53.6078" r="0.0150" /> 
<circle cx="210.5820" cy="53.6928" r="0.0150" /> 
<circle cx="210.4985" cy="53.7790" r="0.0150" /> 
<circle cx="210.4161" cy="53.8662" r="0.0150" /> 
<circle cx="210.3349" cy="53.9546" r="0.0150" /> 
<circle cx="210.2549" cy="54.0440" r="0.0150" /> 
<circle cx="210.1761" cy="54.1345" r="0.0150" /> 
<circle cx="210.0985" cy="54.2260" r="0.0150" /> 
<circle cx="210.0221" cy="54.3186" r="0.0150" /> 
<circle cx="209.9470" cy="54.4122" r="0.0150" /> 
<circle cx="209.8731" cy="54.5067" r="0.0150" /> 
<circle cx="209.8005" cy="54.6023" r="0.0150" /> 
<circle cx="209.7292" cy="54.6988" r="0.0150" /> 
<circle cx="209.6591" cy="54.7962" r="0.0150" /> 
<circle cx="209.5904" cy="54.8946" r="0.0150" /> 
<circle cx="209.5230" cy="54.9939" r="0.0150" /> 
<circle cx="209.4569" cy="55.0940" r="0.0150" /> 
<circle cx="209.3922" cy="55.1951" r="0.0150" /> 
<circle cx="209.3288" cy="55.2969" r="0.0150" /> 
<circle cx="209.2668" cy="55.3997" r="0.0150" /> 
<circle cx="209.2061" cy="55.5032" r="0.0150" /> 
<circle cx="209.1469" cy="55.6076" r="0.0150" /> 
<circle cx="209.0890" cy="55.7127" r="0.0150" /> 
<circle cx="209.0325" cy="55.8186" r="0.0150" /> 
<circle cx="208.9775" cy="55.9252" r="0.0150" /> 
<circle cx="208.9239" cy="56.0326" r="0.0150" /> 
<circle cx="208.8717" cy="56.1406" r="0.0150" /> 
<circle cx="208.8210" cy="56.2494" r="0.0150" /> 
<circle cx="208.7717" cy="56.3588" r="0.0150" /> 
<circle cx="208.7239" cy="56.4688" r="0.0150" /> 
<circle cx="208.6775" cy="56.5795" r="0.0150" /> 
<circle cx="208.6326" cy="56.6908" r="0.0150" /> 
<circle cx="208.5893" cy="56.8027" r="0.0150" /> 
<circle cx="208.5474" cy="56.9152" r="0.0150" /> 
<circle cx="208.5070" cy="57.0282" r="0.0150" /> 
<circle cx="208.4681" cy="57.1417" r="0.0150" /> 
<circle cx="208.4308" cy="57.2557" r="0.0150" /> 
<circle cx="208.3950" cy="57.3703" r="0.0150" /> 
<circle cx="208.3607" cy="57.4853" r="0.0150" /> 
<circle cx="208.3279" cy="57.6007" r="0.0150" /> 
<circle cx="208.2967" cy="57.7166" r="0.0150" /> 
<circle cx="208.2670" cy="57.8328" r="0.0150" /> 
<circle cx="208.2389" cy="57.9495" r="0.0150" /> 
<circle cx="208.2123" cy="58.0665" r="0.0150" /> 
<circle cx="208.1873" cy="58.1839" r="0.0150" /> 
<circle cx="208.1639" cy="58.3016" r="0.0150" /> 
<circle cx="208.1421" cy="58.4196" r="0.0150" /> 
<circle cx="208.1218" cy="58.5378" r="0.0150" /> 
<circle cx="208.1031" cy="58.6564" r="0.0150" /> 
<circle cx="208.0859" cy="58.7751" r="0.0150" /> 
<circle cx="208.0704" cy="58.8941" r="0.0150" /> 
<circle cx="208.0564" cy="59.0133" r="0.0150" /> 
<circle cx="208.0441" cy="59.1327" r="0.0150" /> 
<circle cx="208.0333" cy="59.2522" r="0.0150" /> 
<circle cx="208.0241" cy="59.3718" r="0.0150" /> 
<circle cx="208.0166" cy="59.4916" r="0.0150" /> 
<circle cx="208.0106" cy="59.6115" r="0.0150" /> 
<circle cx="208.0062" cy="59.7314" r="0.0150" /> 
<circle cx="208.0034" cy="59.8513" r="0.0150" /> 
<circle cx="208.0022" cy="59.9713" r="0.0150" /> 
</g>
<g style="fill:#000000; fill-opacity:1.0000; 
stroke:#000000; stroke-width:0.0500; stroke-opacity:1; 
stroke-linecap:round; stroke-linejoin:round;">
</g>
<g style="fill:#000000; fill-opacity:0.0; 
stroke:#000000; stroke-width:0.0500; stroke-opacity:1; 
stroke-linecap:round; stroke-linejoin:round;">
<path d="M212.9607 67.0000
L212.6857 66.5237
" />
<path d="M212.5857 66.3505
L212.3107 65.8742
" />
<path d="M212.2107 65.7010
L211.9357 65.2246
" />
<path d="M211.8357 65.0514
L211.5607 64.5751
" />
<path d="M211.4607 64.4019
L211.1857 63.9256
" />
<path d="M211.0857 63.7524
L210.8107 63.2761
" />
<path d="M210.7107 63.1029
L210.4357 62.6266
" />
<path d="M210.3357 62.4534
L210.0607 61.9771
" />
<path d="M209.9607 61.8038
L209.6857 61.3275
" />
<path d="M209.5857 61.1543
L209.3107 60.6780
" />
<path d="M209.2107 60.5048
L208.9357 60.0285
" />
</g>
<g style="fill:#000000; fill-opacity:0.0; 
stroke:#000000; stroke-width:0.1500; stroke-opacity:1; 
stroke-linecap:round; stroke-linejoin:round;">
<text x="212.0022" y="77.1500"
textLength="5.5083" font-size="1.3333" lengthAdjust="spacingAndGlyphs"
text-anchor="middle" opacity="0">10 mm</text>
<g class="stroked-text"><desc>10 mm</desc>
<path d="M213.9070 77.1048
L214.4784 77.1048
" />
<path d="M214.1927 77.1048
L214.1927 76.1048
" />
<path d="M214.1927 76.1048
L214.2879 76.2477
" />
<path d="M214.2879 76.2477
L214.3832 76.3429
" />
<path d="M214.3832 76.3429
L214.4784 76.3905
" />
<path d="M213.2879 76.1048
L213.1927 76.1048
" />
<path d="M213.1927 76.1048
L213.0974 76.1524
" />
<path d="M213.0974 76.1524
L213.0498 76.2001
" />
<path d="M213.0498 76.2001
L213.0022 76.2953
" />
<path d="M213.0022 76.2953
L212.9546 76.4858
" />
<path d="M212.9546 76.4858
L212.9546 76.7239
" />
<path d="M212.9546 76.7239
L213.0022 76.9143
" />
<path d="M213.0022 76.9143
L213.0498 77.0096
" />
<path d="M213.0498 77.0096
L213.0974 77.0572
" />
<path d="M213.0974 77.0572
L213.1927 77.1048
" />
<path d="M213.1927 77.1048
L213.2879 77.1048
" />
<path d="M213.2879 77.1048
L213.3832 77.0572
" />
<path d="M213.3832 77.0572
L213.4308 77.0096
" />
<path d="M213.4308 77.0096
L213.4784 76.9143
" />
<path d="M213.4784 76.9143
L213.5260 76.7239
" />
<path d="M213.5260 76.7239
L213.5260 76.4858
" />
<path d="M213.5260 76.4858
L213.4784 76.2953
" />
<path d="M213.4784 76.2953
L213.4308 76.2001
" />
<path d="M213.4308 76.2001
L213.3832 76.1524
" />
<path d="M213.3832 76.1524
L213.2879 76.1048
" />
<path d="M211.7641 77.1048
L211.7641 76.4382
" />
<path d="M211.7641 76.5334
L211.7165 76.4858
" />
<path d="M211.7165 76.4858
L211.6212 76.4382
" />
<path d="M211.6212 76.4382
L211.4784 76.4382
" />
<path d="M211.4784 76.4382
L211.3832 76.4858
" />
<path d="M211.3832 76.4858
L211.3355 76.5810
" />
<path d="M211.3355 76.5810
L211.3355 77.1048
" />
<path d="M211.3355 76.5810
L211.2879 76.4858
" />
<path d="M211.2879 76.4858
L211.1927 76.4382
" />
<path d="M211.1927 76.4382
L211.0498 76.4382
" />
<path d="M211.0498 76.4382
L210.9546 76.4858
" />
<path d="M210.9546 76.4858
L210.9070 76.5810
" />
<path d="M210.9070 76.5810
L210.9070 77.1048
" />
<path d="M210.4308 77.1048
L210.4308 76.4382
" />
<path d="M210.4308 76.5334
L210.3832 76.4858
" />
<path d="M210.3832 76.4858
L210.2879 76.4382
" />
<path d="M210.2879 76.4382
L210.1451 76.4382
" />
<path d="M210.1451 76.4382
L210.0498 76.4858
" />
<path d="M210.0498 76.4858
L210.0022 76.5810
" />
<path d="M210.0022 76.5810
L210.0022 77.1048
" />
<path d="M210.0022 76.5810
L209.9546 76.4858
" />
<path d="M209.9546 76.4858
L209.8593 76.4382
" />
<path d="M209.8593 76.4382
L209.7165 76.4382
" />
<path d="M209.7165 76.4382
L209.6212 76.4858
" />
<path d="M209.6212 76.4858
L209.5736 76.5810
" />
<path d="M209.5736 76.5810
L209.5736 77.1048
" />
</g><path d="M217.0022 60.5000
L217.0022 78.3864
" />
<path d="M207.0022 60.5000
L207.0022 78.3864
" />
<path d="M217.0022 77.8000
L207.0022 77.8000
" />
<path d="M217.0022 77.8000
L207.0022 77.8000
" />
<path d="M217.0022 77.8000
L215.8757 77.2136
" />
<path d="M217.0022 77.8000
L215.8757 78.3864
" />
<path d="M207.0022 77.8000
L208.1287 78.3864
" />
<path d="M207.0022 77.8000
L208.1287 77.2136
" />
<text x="217.0022" y="36.8500"
textLength="5.5083" font-size="1.3333" lengthAdjust="spacingAndGlyphs"
text-anchor="middle" opacity="0">30 mm</text>
<g class="stroked-text"><desc>30 mm</desc>
<path d="M219.5260 35.8048
L218.9070 35.8048
" />
<path d="M218.9070 35.8048
L219.2403 36.1858
" />
<path d="M219.2403 36.1858
L219.0974 36.1858
" />
<path d="M219.0974 36.1858
L219.0022 36.2334
" />
<path d="M219.0022 36.2334
L218.9546 36.2810
" />
<path d="M218.9546 36.2810
L218.9070 36.3762
" />
<path d="M218.9070 36.3762
L218.9070 36.6143
" />
<path d="M218.9070 36.6143
L218.9546 36.7096
" />
<path d="M218.9546 36.7096
L219.0022 36.7572
" />
<path d="M219.0022 36.7572
L219.0974 36.8048
" />
<path d="M219.0974 36.8048
L219.3832 36.8048
" />
<path d="M219.3832 36.8048
L219.4784 36.7572
" />
<path d="M219.4784 36.7572
L219.5260 36.7096
" />
<path d="M218.2879 35.8048
L218.1927 35.8048
" />
<path d="M218.1927 35.8048
L218.0974 35.8524
" />
<path d="M218.0974 35.8524
L218.0498 35.9001
" />
<path d="M218.0498 35.9001
L218.0022 35.9953
" />
<path d="M218.0022 35.9953
L217.9546 36.1858
" />
<path d="M217.9546 36.1858
L217.9546 36.4239
" />
<path d="M217.9546 36.4239
L218.0022 36.6143
" />
<path d="M218.0022 36.6143
L218.0498 36.7096
" />
<path d="M218.0498 36.7096
L218.0974 36.7572
" />
<path d="M218.0974 36.7572
L218.1927 36.8048
" />
<path d="M218.1927 36.8048
L218.2879 36.8048
" />
<path d="M218.2879 36.8048
L218.3832 36.7572
" />
<path d="M218.3832 36.7572
L218.4308 36.7096
" />
<path d="M218.4308 36.7096
L218.4784 36.6143
" />
<path d="M218.4784 36.6143
L218.5260 36.4239
" />
<path d="M218.5260 36.4239
L218.5260 36.1858
" />
<path d="M218.5260 36.1858
L218.4784 35.9953
" />
<path d="M218.4784 35.9953
L218.4308 35.9001
" />
<path d="M218.4308 35.9001
L218.3832 35.8524
" />
<path d="M218.3832 35.8524
L218.2879 35.8048
" />
<path d="M216.7641 36.8048
L216.7641 36.1382
" />
<path d="M216.7641 36.2334
L216.7165 36.1858
" />
<path d="M216.7165 36.1858
L216.6212 36.1382
" />
<path d="M216.6212 36.1382
L216.4784 36.1382
" />
<path d="M216.4784 36.1382
L216.3832 36.1858
" />
<path d="M216.3832 36.1858
L216.3355 36.2810
" />
<path d="M216.3355 36.2810
L216.3355 36.8048
" />
<path d="M216.3355 36.2810
L216.2879 36.1858
" />
<path d="M216.2879 36.1858
L216.1927 36.1382
" />
<path d="M216.1927 36.1382
L216.0498 36.1382
" />
<path d="M216.0498 36.1382
L215.9546 36.1858
" />
<path d="M215.9546 36.1858
L215.9070 36.2810
" />
<path d="M215.9070 36.2810
L215.9070 36.8048
" />
<path d="M215.4308 36.8048
L215.4308 36.1382
" />
<path d="M215.4308 36.2334
L215.3832 36.1858
" />
<path d="M215.3832 36.1858
L215.2879 36.1382
" />
<path d="M215.2879 36.1382
L215.1451 36.1382
" />
<path d="M215.1451 36.1382
L215.0498 36.1858
" />
<path d="M215.0498 36.1858
L215.0022 36.2810
" />
<path d="M215.0022 36.2810
L215.0022 36.8048
" />
<path d="M215.0022 36.2810
L214.9546 36.1858
" />
<path d="M214.9546 36.1858
L214.8593 36.1382
" />
<path d="M214.8593 36.1382
L214.7165 36.1382
" />
<path d="M214.7165 36.1382
L214.6212 36.1858
" />
<path d="M214.6212 36.1858
L214.5736 36.2810
" />
<path d="M214.5736 36.2810
L214.5736 36.8048
" />
</g><path d="M232.0022 46.5000
L232.0022 36.9136
" />
<path d="M202.0022 46.5000
L202.0022 36.9136
" />
<path d="M232.0022 37.5000
L202.0022 37.5000
" />
<path d="M232.0022 37.5000
L202.0022 37.5000
" />
<path d="M232.0022 37.5000
L230.8757 36.9136
" />
<path d="M232.0022 37.5000
L230.8757 38.0864
" />
<path d="M202.0022 37.5000
L203.1287 38.0864
" />
<path d="M202.0022 37.5000
L203.1287 36.9136
" />
<g transform="rotate(-90.000000 199.2522 65.0000)">
<text x="199.2522" y="65.5000"
textLength="5.5083" font-size="1.3333" lengthAdjust="spacingAndGlyphs"
text-anchor="middle" opacity="0">10 mm</text>
</g>
<g class="stroked-text"><desc>10 mm</desc>
<path d="M198.7974 66.9048
L198.7974 67.4762
" />
<path d="M198.7974 67.1905
L199.7974 67.1905
" />
<path d="M199.7974 67.1905
L199.6545 67.2857
" />
<path d="M199.6545 67.2857
L199.5593 67.3810
" />
<path d="M199.5593 67.3810
L199.5117 67.4762
" />
<path d="M199.7974 66.2857
L199.7974 66.1905
" />
<path d="M199.7974 66.1905
L199.7498 66.0952
" />
<path d="M199.7498 66.0952
L199.7021 66.0476
" />
<path d="M199.7021 66.0476
L199.6069 66.0000
" />
<path d="M199.6069 66.0000
L199.4164 65.9524
" />
<path d="M199.4164 65.9524
L199.1783 65.9524
" />
<path d="M199.1783 65.9524
L198.9879 66.0000
" />
<path d="M198.9879 66.0000
L198.8926 66.0476
" />
<path d="M198.8926 66.0476
L198.8450 66.0952
" />
<path d="M198.8450 66.0952
L198.7974 66.1905
" />
<path d="M198.7974 66.1905
L198.7974 66.2857
" />
<path d="M198.7974 66.2857
L198.8450 66.3810
" />
<path d="M198.8450 66.3810
L198.8926 66.4286
" />
<path d="M198.8926 66.4286
L198.9879 66.4762
" />
<path d="M198.9879 66.4762
L199.1783 66.5238
" />
<path d="M199.1783 66.5238
L199.4164 66.5238
" />
<path d="M199.4164 66.5238
L199.6069 66.4762
" />
<path d="M199.6069 66.4762
L199.7021 66.4286
" />
<path d="M199.7021 66.4286
L199.7498 66.3810
" />
<path d="M199.7498 66.3810
L199.7974 66.2857
" />
<path d="M198.7974 64.7619
L199.4640 64.7619
" />
<path d="M199.3688 64.7619
L199.4164 64.7143
" />
<path d="M199.4164 64.7143
L199.4640 64.6190
" />
<path d="M199.4640 64.6190
L199.4640 64.4762
" />
<path d="M199.4640 64.4762
L199.4164 64.3810
" />
<path d="M199.4164 64.3810
L199.3212 64.3333
" />
<path d="M199.3212 64.3333
L198.7974 64.3333
" />
<path d="M199.3212 64.3333
L199.4164 64.2857
" />
<path d="M199.4164 64.2857
L199.4640 64.1905
" />
<path d="M199.4640 64.1905
L199.4640 64.0476
" />
<path d="M199.4640 64.0476
L199.4164 63.9524
" />
<path d="M199.4164 63.9524
L199.3212 63.9048
" />
<path d="M199.3212 63.9048
L198.7974 63.9048
" />
<path d="M198.7974 63.4286
L199.4640 63.4286
" />
<path d="M199.3688 63.4286
L199.4164 63.3810
" />
<path d="M199.4164 63.3810
L199.4640 63.2857
" />
<path d="M199.4640 63.2857
L199.4640 63.1429
" />
<path d="M199.4640 63.1429
L199.4164 63.0476
" />
<path d="M199.4164 63.0476
L199.3212 63.0000
" />
<path d="M199.3212 63.0000
L198.7974 63.0000
" />
<path d="M199.3212 63.0000
L199.4164 62.9524
" />
<path d="M199.4164 62.9524
L199.4640 62.8571
" />
<path d="M199.4640 62.8571
L199.4640 62.7143
" />
<path d="M199.4640 62.7143
L199.4164 62.6190
" />
<path d="M199.4164 62.6190
L199.3212 62.5714
" />
<path d="M199.3212 62.5714
L198.7974 62.5714
" />
</g><path d="M216.5022 60.0000
L197.5158 60.0000
" />
<path d="M216.5022 70.0000
L197.5158 70.0000
" />
<path d="M198.1022 60.0000
L198.1022 70.0000
" />
<path d="M198.1022 60.0000
L198.1022 70.0000
" />
<path d="M198.1022 60.0000
L197.5158 61.1265
" />
<path d="M198.1022 60.0000
L198.6886 61.1265
" />
<path d="M198.1022 70.0000
L198.6886 68.8735
" />
<path d="M198.1022 70.0000
L197.5158 68.8735
" />
<g transform="rotate(-90.000000 238.1522 60.0000)">
<text x="238.1522" y="60.5000"
textLength="5.5083" font-size="1.3333" lengthAdjust="spacingAndGlyphs"
text-anchor="middle" opacity="0">24 mm</text>
</g>
<g class="stroked-text"><desc>24 mm</desc>
<path d="M238.6021 62.4762
L238.6498 62.4286
" />
<path d="M238.6498 62.4286
L238.6974 62.3333
" />
<path d="M238.6974 62.3333
L238.6974 62.0952
" />
<path d="M238.6974 62.0952
L238.6498 62.0000
" />
<path d="M238.6498 62.0000
L238.6021 61.9524
" />
<path d="M238.6021 61.9524
L238.5069 61.9048
" />
<path d="M238.5069 61.9048
L238.4117 61.9048
" />
<path d="M238.4117 61.9048
L238.2688 61.9524
" />
<path d="M238.2688 61.9524
L237.6974 62.5238
" />
<path d="M237.6974 62.5238
L237.6974 61.9048
" />
<path d="M238.3640 61.0476
L237.6974 61.0476
" />
<path d="M238.7450 61.2857
L238.0307 61.5238
" />
<path d="M238.0307 61.5238
L238.0307 60.9048
" />
<path d="M237.6974 59.7619
L238.3640 59.7619
" />
<path d="M238.2688 59.7619
L238.3164 59.7143
" />
<path d="M238.3164 59.7143
L238.3640 59.6190
" />
<path d="M238.3640 59.6190
L238.3640 59.4762
" />
<path d="M238.3640 59.4762
L238.3164 59.3810
" />
<path d="M238.3164 59.3810
L238.2212 59.3333
" />
<path d="M238.2212 59.3333
L237.6974 59.3333
" />
<path d="M238.2212 59.3333
L238.3164 59.2857
" />
<path d="M238.3164 59.2857
L238.3640 59.1905
" />
<path d="M238.3640 59.1905
L238.3640 59.0476
" />
<path d="M238.3640 59.0476
L238.3164 58.9524
" />
<path d="M238.3164 58.9524
L238.2212 58.9048
" />
<path d="M238.2212 58.9048
L237.6974 58.9048
" />
<path d="M237.6974 58.4286
L238.3640 58.4286
" />
<path d="M238.2688 58.4286
L238.3164 58.3810
" />
<path d="M238.3164 58.3810
L238.3640 58.2857
" />
<path d="M238.3640 58.2857
L238.3640 58.1429
" />
<path d="M238.3640 58.1429
L238.3164 58.0476
" />
<path d="M238.3164 58.0476
L238.2212 58.0000
" />
<path d="M238.2212 58.0000
L237.6974 58.0000
" />
<path d="M238.2212 58.0000
L238.3164 57.9524
" />
<path d="M238.3164 57.9524
L238.3640 57.8571
" />
<path d="M238.3640 57.8571
L238.3640 57.7143
" />
<path d="M238.3640 57.7143
L238.3164 57.6190
" />
<path d="M238.3164 57.6190
L238.2212 57.5714
" />
<path d="M238.2212 57.5714
L237.6974 57.5714
" />
</g><path d="M217.5022 48.0000
L237.5886 48.0000
" />
<path d="M217.5022 72.0000
L237.5886 72.0000
" />
<path d="M237.0022 48.0000
L237.0022 72.0000
" />
<path d="M237.0022 48.0000
L237.0022 72.0000
" />
<path d="M237.0022 48.0000
L236.4158 49.1265
" />
<path d="M237.0022 48.0000
L237.5886 49.1265
" />
<path d="M237.0022 72.0000
L237.5886 70.8735
" />
<path d="M237.0022 72.0000
L236.4158 70.8735
" />
<g transform="rotate(-90.000000 235.1522 60.0000)">
<text x="235.1522" y="60.5000"
textLength="6.9369" font-size="1.3333" lengthAdjust="spacingAndGlyphs"
text-anchor="middle" opacity="0">12.2 mm</text>
</g>
<g class="stroked-text"><desc>12.2 mm</desc>
<path d="M234.6974 62.6190
L234.6974 63.1905
" />
<path d="M234.6974 62.9048
L235.6974 62.9048
" />
<path d="M235.6974 62.9048
L235.5545 63.0000
" />
<path d="M235.5545 63.0000
L235.4593 63.0952
" />
<path d="M235.4593 63.0952
L235.4117 63.1905
" />
<path d="M235.6021 62.2381
L235.6498 62.1905
" />
<path d="M235.6498 62.1905
L235.6974 62.0952
" />
<path d="M235.6974 62.0952
L235.6974 61.8571
" />
<path d="M235.6974 61.8571
L235.6498 61.7619
" />
<path d="M235.6498 61.7619
L235.6021 61.7143
" />
<path d="M235.6021 61.7143
L235.5069 61.6667
" />
<path d="M235.5069 61.6667
L235.4117 61.6667
" />
<path d="M235.4117 61.6667
L235.2688 61.7143
" />
<path d="M235.2688 61.7143
L234.6974 62.2857
" />
<path d="M234.6974 62.2857
L234.6974 61.6667
" />
<path d="M234.7926 61.2381
L234.7450 61.1905
" />
<path d="M234.7450 61.1905
L234.6974 61.2381
" />
<path d="M234.6974 61.2381
L234.7450 61.2857
" />
<path d="M234.7450 61.2857
L234.7926 61.2381
" />
<path d="M234.7926 61.2381
L234.6974 61.2381
" />
<path d="M235.6021 60.8095
L235.6498 60.7619
" />
<path d="M235.6498 60.7619
L235.6974 60.6667
" />
<path d="M235.6974 60.6667
L235.6974 60.4286
" />
<path d="M235.6974 60.4286
L235.6498 60.3333
" />
<path d="M235.6498 60.3333
L235.6021 60.2857
" />
<path d="M235.6021 60.2857
L235.5069 60.2381
" />
<path d="M235.5069 60.2381
L235.4117 60.2381
" />
<path d="M235.4117 60.2381
L235.2688 60.2857
" />
<path d="M235.2688 60.2857
L234.6974 60.8571
" />
<path d="M234.6974 60.8571
L234.6974 60.2381
" />
<path d="M234.6974 59.0476
L235.3640 59.0476
" />
<path d="M235.2688 59.0476
L235.3164 59.0000
" />
<path d="M235.3164 59.0000
L235.3640 58.9048
" />
<path d="M235.3640 58.9048
L235.3640 58.7619
" />
<path d="M235.3640 58.7619
L235.3164 58.6667
" />
<path d="M235.3164 58.6667
L235.2212 58.6190
" />
<path d="M235.2212 58.6190
L234.6974 58.6190
" />
<path d="M235.2212 58.6190
L235.3164 58.5714
" />
<path d="M235.3164 58.5714
L235.3640 58.4762
" />
<path d="M235.3640 58.4762
L235.3640 58.3333
" />
<path d="M235.3640 58.3333
L235.3164 58.2381
" />
<path d="M235.3164 58.2381
L235.2212 58.1905
" />
<path d="M235.2212 58.1905
L234.6974 58.1905
" />
<path d="M234.6974 57.7143
L235.3640 57.7143
" />
<path d="M235.2688 57.7143
L235.3164 57.6667
" />
<path d="M235.3164 57.6667
L235.3640 57.5714
" />
<path d="M235.3640 57.5714
L235.3640 57.4286
" />
<path d="M235.3640 57.4286
L235.3164 57.3333
" />
<path d="M235.3164 57.3333
L235.2212 57.2857
" />
<path d="M235.2212 57.2857
L234.6974 57.2857
" />
<path d="M235.2212 57.2857
L235.3164 57.2381
" />
<path d="M235.3164 57.2381
L235.3640 57.1429
" />
<path d="M235.3640 57.1429
L235.3640 57.0000
" />
<path d="M235.3640 57.0000
L235.3164 56.9048
" />
<path d="M235.3164 56.9048
L235.2212 56.8571
" />
<path d="M235.2212 56.8571
L234.6974 56.8571
" />
</g><path d="M217.5022 53.9000
L234.5886 53.9000
" />
<path d="M217.5022 66.1000
L234.5886 66.1000
" />
<path d="M234.0022 53.9000
L234.0022 66.1000
" />
<path d="M234.0022 53.9000
L234.0022 66.1000
" />
<path d="M234.0022 53.9000
L233.4158 55.0265
" />
<path d="M234.0022 53.9000
L234.5886 55.0265
" />
<path d="M234.0022 66.1000
L234.5886 64.9735
" />
<path d="M234.0022 66.1000
L233.4158 64.9735
" />
<g transform="rotate(-90.000000 241.1522 60.0000)">
<text x="241.1522" y="60.5000"
textLength="5.5083" font-size="1.3333" lengthAdjust="spacingAndGlyphs"
text-anchor="middle" opacity="0">30 mm</text>
</g>
<g class="stroked-text"><desc>30 mm</desc>
<path d="M241.6974 62.5238
L241.6974 61.9048
" />
<path d="M241.6974 61.9048
L241.3164 62.2381
" />
<path d="M241.3164 62.2381
L241.3164 62.0952
" />
<path d="M241.3164 62.0952
L241.2688 62.0000
" />
<path d="M241.2688 62.0000
L241.2212 61.9524
" />
<path d="M241.2212 61.9524
L241.1260 61.9048
" />
<path d="M241.1260 61.9048
L240.8879 61.9048
" />
<path d="M240.8879 61.9048
L240.7926 61.9524
" />
<path d="M240.7926 61.9524
L240.7450 62.0000
" />
<path d="M240.7450 62.0000
L240.6974 62.0952
" />
<path d="M240.6974 62.0952
L240.6974 62.3810
" />
<path d="M240.6974 62.3810
L240.7450 62.4762
" />
<path d="M240.7450 62.4762
L240.7926 62.5238
" />
<path d="M241.6974 61.2857
L241.6974 61.1905
" />
<path d="M241.6974 61.1905
L241.6498 61.0952
" />
<path d="M241.6498 61.0952
L241.6021 61.0476
" />
<path d="M241.6021 61.0476
L241.5069 61.0000
" />
<path d="M241.5069 61.0000
L241.3164 60.9524
" />
<path d="M241.3164 60.9524
L241.0783 60.9524
" />
<path d="M241.0783 60.9524
L240.8879 61.0000
" />
<path d="M240.8879 61.0000
L240.7926 61.0476
" />
<path d="M240.7926 61.0476
L240.7450 61.0952
" />
<path d="M240.7450 61.0952
L240.6974 61.1905
" />
<path d="M240.6974 61.1905
L240.6974 61.2857
" />
<path d="M240.6974 61.2857
L240.7450 61.3810
" />
<path d="M240.7450 61.3810
L240.7926 61.4286
" />
<path d="M240.7926 61.4286
L240.8879 61.4762
" />
<path d="M240.8879 61.4762
L241.0783 61.5238
" />
<path d="M241.0783 61.5238
L241.3164 61.5238
" />
<path d="M241.3164 61.5238
L241.5069 61.4762
" />
<path d="M241.5069 61.4762
L241.6021 61.4286
" />
<path d="M241.6021 61.4286
L241.6498 61.3810
" />
<path d="M241.6498 61.3810
L241.6974 61.2857
" />
<path d="M240.6974 59.7619
L241.3640 59.7619
" />
<path d="M241.2688 59.7619
L241.3164 59.7143
" />
<path d="M241.3164 59.7143
L241.3640 59.6190
" />
<path d="M241.3640 59.6190
L241.3640 59.4762
" />
<path d="M241.3640 59.4762
L241.3164 59.3810
" />
<path d="M241.3164 59.3810
L241.2212 59.3333
" />
<path d="M241.2212 59.3333
L240.6974 59.3333
" />
<path d="M241.2212 59.3333
L241.3164 59.2857
" />
<path d="M241.3164 59.2857
L241.3640 59.1905
" />
<path d="M241.3640 59.1905
L241.3640 59.0476
" />
<path d="M241.3640 59.0476
L241.3164 58.9524
" />
<path d="M241.3164 58.9524
L241.2212 58.9048
" />
<path d="M241.2212 58.9048
L240.6974 58.9048
" />
<path d="M240.6974 58.4286
L241.3640 58.4286
" />
<path d="M241.2688 58.4286
L241.3164 58.3810
" />
<path d="M241.3164 58.3810
L241.3640 58.2857
" />
<path d="M241.3640 58.2857
L241.3640 58.1429
" />
<path d="M241.3640 58.1429
L241.3164 58.0476
" />
<path d="M241.3164 58.0476
L241.2212 58.0000
" />
<path d="M241.2212 58.0000
L240.6974 58.0000
" />
<path d="M241.2212 58.0000
L241.3164 57.9524
" />
<path d="M241.3164 57.9524
L241.3640 57.8571
" />
<path d="M241.3640 57.8571
L241.3640 57.7143
" />
<path d="M241.3640 57.7143
L241.3164 57.6190
" />
<path d="M241.3164 57.6190
L241.2212 57.5714
" />
<path d="M241.2212 57.5714
L240.6974 57.5714
" />
</g><path d="M230.5022 45.0000
L240.5886 45.0000
" />
<path d="M230.5022 75.0000
L240.5886 75.0000
" />
<path d="M240.0022 45.0000
L240.0022 75.0000
" />
<path d="M240.0022 45.0000
L240.0022 75.0000
" />
<path d="M240.0022 45.0000
L239.4158 46.1265
" />
<path d="M240.0022 45.0000
L240.5886 46.1265
" />
<path d="M240.0022 75.0000
L240.5886 73.8735
" />
<path d="M240.0022 75.0000
L239.4158 73.8735
" />
<g >
</g>
<g >
</g>
<g >
</g>
<g >
</g>
<g >
</g>
<g >
</g>
<g >
</g>
<g >
</g>
<g >
</g>
<g >
</g>
<g >
</g>
<g >
</g>
<g >
</g>
<g >
</g>
<g >
</g>
<g >
</g>
<g >
</g>
<g >
</g>
<g >
</g>
<g >
</g>
<g >
</g>
<g >
</g>
<g >
</g>
<g >
</g>
<g >
</g>
<g >
</g>
<g >
</g>
<g >
</g>
<g >
</g>
<g >
</g>
<g >
</g>
<g >
</g>
<g >
</g>
<g >
</g>
</g> 
</svg>
