<?xml version="1.0" standalone="no"?>
 <!DOCTYPE svg PUBLIC "-//W3C//DTD SVG 1.1//EN" 
 "http://www.w3.org/Graphics/SVG/1.1/DTD/svg11.dtd"> 
<svg
  xmlns:svg="http://www.w3.org/2000/svg"
  xmlns="http://www.w3.org/2000/svg"
  xmlns:xlink="http://www.w3.org/1999/xlink"
  version="1.1"
  width="297.0022mm" height="210.0072mm" viewBox="0.0000 0.0000 297.0022 210.0072">
<title>SVG Image created as pedalboard-led-ring-F_Courtyard.svg date 2024/01/08 21:57:52 </title>
  <desc>Image generated by PCBNEW </desc>
<g style="fill:#000000; fill-opacity:1.0000;stroke:#000000; stroke-opacity:1.0000;
stroke-linecap:round; stroke-linejoin:round;"
 transform="translate(0 0) scale(1 1)">
</g>
<g style="fill:#000000; fill-opacity:0.0; 
stroke:#000000; stroke-width:0.0000; stroke-opacity:1; 
stroke-linecap:round; stroke-linejoin:round;">
</g>
<g style="fill:#000000; fill-opacity:0.0; 
stroke:#000000; stroke-width:0.0500; stroke-opacity:1; 
stroke-linecap:round; stroke-linejoin:round;">
<circle cx="80.0000" cy="71.0000" r="0.7500" /> 
<path d="M84.1340 69.1603
L83.1340 67.4282
" />
<path d="M85.8660 68.1603
L84.1340 69.1603
" />
<path d="M83.1340 67.4282
L84.8660 66.4282
" />
<path d="M84.8660 66.4282
L85.8660 68.1603
" />
<path d="M78.9600 50.1500
L78.9600 51.9700
" />
<path d="M78.0400 50.1500
L78.9600 50.1500
" />
<path d="M78.9600 51.9700
L78.0400 51.9700
" />
<path d="M78.0400 51.9700
L78.0400 50.1500
" />
<path d="M74.1334 51.9146
L75.0434 53.4908
" />
<path d="M73.3366 52.3746
L74.1334 51.9146
" />
<path d="M75.0434 53.4908
L74.2466 53.9508
" />
<path d="M74.2466 53.9508
L73.3366 52.3746
" />
<path d="M90.0000 61.0000
L88.0000 61.0000
" />
<path d="M90.0000 59.0000
L90.0000 61.0000
" />
<path d="M88.0000 61.0000
L88.0000 59.0000
" />
<path d="M88.0000 59.0000
L90.0000 59.0000
" />
<path d="M81.0000 50.0000
L81.0000 52.0000
" />
<path d="M79.0000 50.0000
L81.0000 50.0000
" />
<path d="M81.0000 52.0000
L79.0000 52.0000
" />
<path d="M79.0000 52.0000
L79.0000 50.0000
" />
<path d="M88.1603 65.8660
L86.4282 64.8660
" />
<path d="M89.1603 64.1340
L88.1603 65.8660
" />
<path d="M86.4282 64.8660
L87.4282 63.1340
" />
<path d="M87.4282 63.1340
L89.1603 64.1340
" />
<path d="M70.8397 64.1340
L72.5718 63.1340
" />
<path d="M71.8397 65.8660
L70.8397 64.1340
" />
<path d="M72.5718 63.1340
L73.5718 64.8660
" />
<path d="M73.5718 64.8660
L71.8397 65.8660
" />
<path d="M79.0000 70.0000
L79.0000 68.0000
" />
<path d="M81.0000 70.0000
L79.0000 70.0000
" />
<path d="M79.0000 68.0000
L81.0000 68.0000
" />
<path d="M81.0000 68.0000
L81.0000 70.0000
" />
<path d="M70.0000 59.0000
L72.0000 59.0000
" />
<path d="M70.0000 61.0000
L70.0000 59.0000
" />
<path d="M72.0000 59.0000
L72.0000 61.0000
" />
<path d="M72.0000 61.0000
L70.0000 61.0000
" />
<path d="M71.8397 54.1340
L73.5718 55.1340
" />
<path d="M70.8397 55.8660
L71.8397 54.1340
" />
<path d="M73.5718 55.1340
L72.5718 56.8660
" />
<path d="M72.5718 56.8660
L70.8397 55.8660
" />
<circle cx="80.0000" cy="49.0000" r="0.7500" /> 
<path d="M70.0900 61.0400
L71.9100 61.0400
" />
<path d="M70.0900 61.9600
L70.0900 61.0400
" />
<path d="M71.9100 61.0400
L71.9100 61.9600
" />
<path d="M71.9100 61.9600
L70.0900 61.9600
" />
<path d="M88.5700 57.9000
L89.1300 57.9000
" />
<path d="M89.1300 57.9000
L89.1300 57.7000
" />
<path d="M88.4000 57.7000
L88.4000 56.6000
" />
<path d="M88.5700 57.7000
L88.5700 57.9000
" />
<path d="M88.5700 57.7000
L88.4000 57.7000
" />
<path d="M89.3000 57.7000
L89.1300 57.7000
" />
<path d="M88.4000 56.6000
L88.5700 56.6000
" />
<path d="M88.5700 56.6000
L88.5700 56.4000
" />
<path d="M89.1300 56.6000
L89.3000 56.6000
" />
<path d="M89.3000 56.6000
L89.3000 57.7000
" />
<path d="M88.5700 56.4000
L89.1300 56.4000
" />
<path d="M89.1300 56.4000
L89.1300 56.6000
" />
<path d="M71.9819 65.8066
L73.5581 64.8966
" />
<path d="M72.4419 66.6034
L71.9819 65.8066
" />
<path d="M73.5581 64.8966
L74.0181 65.6934
" />
<path d="M74.0181 65.6934
L72.4419 66.6034
" />
<path d="M75.9466 69.0581
L76.8566 67.4819
" />
<path d="M76.7434 69.5181
L75.9466 69.0581
" />
<path d="M76.8566 67.4819
L77.6534 67.9419
" />
<path d="M77.6534 67.9419
L76.7434 69.5181
" />
<path d="M85.8566 68.0853
L84.9466 66.5092
" />
<path d="M86.6534 67.6253
L85.8566 68.0853
" />
<path d="M84.9466 66.5092
L85.7434 66.0492
" />
<path d="M85.7434 66.0492
L86.6534 67.6253
" />
<path d="M70.9419 55.9466
L72.5181 56.8566
" />
<path d="M70.4819 56.7434
L70.9419 55.9466
" />
<path d="M72.5181 56.8566
L72.0581 57.6534
" />
<path d="M72.0581 57.6534
L70.4819 56.7434
" />
<path d="M81.0400 69.9400
L81.0400 68.1200
" />
<path d="M81.9600 69.9400
L81.0400 69.9400
" />
<path d="M81.0400 68.1200
L81.9600 68.1200
" />
<path d="M81.9600 68.1200
L81.9600 69.9400
" />
<path d="M89.1603 55.8660
L87.4282 56.8660
" />
<path d="M88.1603 54.1340
L89.1603 55.8660
" />
<path d="M87.4282 56.8660
L86.4282 55.1340
" />
<path d="M86.4282 55.1340
L88.1603 54.1340
" />
<path d="M88.2400 58.0700
L90.0600 58.0700
" />
<path d="M88.2400 58.9900
L88.2400 58.0700
" />
<path d="M90.0600 58.0700
L90.0600 58.9900
" />
<path d="M90.0600 58.9900
L88.2400 58.9900
" />
<path d="M88.0181 54.1934
L86.4419 55.1034
" />
<path d="M87.5581 53.3966
L88.0181 54.1934
" />
<path d="M86.4419 55.1034
L85.9819 54.3066
" />
<path d="M85.9819 54.3066
L87.5581 53.3966
" />
<path d="M75.8660 50.8397
L76.8660 52.5718
" />
<path d="M74.1340 51.8397
L75.8660 50.8397
" />
<path d="M76.8660 52.5718
L75.1340 53.5718
" />
<path d="M75.1340 53.5718
L74.1340 51.8397
" />
<path d="M89.1081 64.1034
L87.5319 63.1934
" />
<path d="M89.5681 63.3066
L89.1081 64.1034
" />
<path d="M87.5319 63.1934
L87.9919 62.3966
" />
<path d="M87.9919 62.3966
L89.5681 63.3066
" />
<path d="M74.1340 68.1603
L75.1340 66.4282
" />
<path d="M75.8660 69.1603
L74.1340 68.1603
" />
<path d="M75.1340 66.4282
L76.8660 67.4282
" />
<path d="M76.8660 67.4282
L75.8660 69.1603
" />
<path d="M85.8660 51.8397
L84.8660 53.5718
" />
<path d="M84.1340 50.8397
L85.8660 51.8397
" />
<path d="M84.8660 53.5718
L83.1340 52.5718
" />
<path d="M83.1340 52.5718
L84.1340 50.8397
" />
<path d="M89.8400 62.1200
L87.9800 62.1200
" />
<path d="M89.8400 61.1800
L89.8400 62.1200
" />
<path d="M87.9800 62.1200
L87.9800 61.1800
" />
<path d="M87.9800 61.1800
L89.8400 61.1800
" />
<path d="M84.0534 50.9419
L83.1434 52.5181
" />
<path d="M83.2566 50.4819
L84.0534 50.9419
" />
<path d="M83.1434 52.5181
L82.3466 52.0581
" />
<path d="M82.3466 52.0581
L83.2566 50.4819
" />
<circle cx="69.0000" cy="60.0000" r="0.7500" /> 
<g >
</g>
<g >
</g>
<g >
</g>
<g >
</g>
<g >
</g>
<g >
</g>
<g >
</g>
<g >
</g>
<g >
</g>
<g >
</g>
<g >
</g>
<g >
</g>
<g >
</g>
<g >
</g>
<g >
</g>
<g >
</g>
<g >
</g>
<g >
</g>
<g >
</g>
<g >
</g>
<g >
</g>
<g >
</g>
<g >
</g>
<g >
</g>
<g >
</g>
<g >
</g>
<g >
</g>
<g >
</g>
<g >
</g>
<g >
</g>
<g >
</g>
<g >
</g>
<g >
</g>
<g >
</g>
<g >
</g>
</g> 
</svg>
