<?xml version="1.0" standalone="no"?>
 <!DOCTYPE svg PUBLIC "-//W3C//DTD SVG 1.1//EN" 
 "http://www.w3.org/Graphics/SVG/1.1/DTD/svg11.dtd"> 
<svg
  xmlns:svg="http://www.w3.org/2000/svg"
  xmlns="http://www.w3.org/2000/svg"
  xmlns:xlink="http://www.w3.org/1999/xlink"
  version="1.1"
  width="2.91cm" height="2.6100000000000003cm" viewBox="66.95 46.95 29.1 26.1">
<title>SVG Image created as pedalboard-led-ring-B_Cu.svg date 2023/06/03 17:48:28 </title>
  <desc>Image generated by PCBNEW </desc>
<g style="fill:#000000; fill-opacity:1.000000;stroke:#000000; stroke-opacity:1.000000;
stroke-linecap:round; stroke-linejoin:round;"
 transform="translate(0 0) scale(1 1)">
</g>
<g style="fill:#000000; fill-opacity:0.0; 
stroke:#000000; stroke-width:0.000000; stroke-opacity:1; 
stroke-linecap:round; stroke-linejoin:round;">
<g >
</g>
<g >
</g>
<g >
</g>
<g >
</g>
<g >
</g>
<g >
</g>
<g >
</g>
<g >
</g>
<g >
</g>
<g >
</g>
<g >
</g>
<g >
</g>
<g >
</g>
<g >
</g>
<g >
</g>
<g >
</g>
<g >
</g>
<g >
</g>
<g >
</g>
<g >
</g>
<g >
</g>
<g >
</g>
<g >
</g>
<g >
</g>
<g >
</g>
<g >
</g>
<g >
</g>
<g >
</g>
<g >
</g>
<g >
</g>
<g style="fill:#000000; fill-opacity:0.0; 
stroke:#000000; stroke-width:0.000000; stroke-opacity:1; 
stroke-linecap:round; stroke-linejoin:round;">
</g>
<g style="fill:#000000; fill-opacity:0.0; 
stroke:#000000; stroke-width:0.000000; stroke-opacity:1; 
stroke-linecap:round; stroke-linejoin:round;">
</g>
<g style="fill:#000000; fill-opacity:1.000000; 
stroke:#000000; stroke-width:0.000000; stroke-opacity:1; 
stroke-linecap:round; stroke-linejoin:round;">
<path style="fill:#000000; fill-opacity:1.000000; 
stroke:#000000; stroke-width:0.000000; stroke-opacity:1; 
stroke-linecap:round; stroke-linejoin:round;fill-rule:evenodd;"
d="M 91.500000,58.250000
90.500000,58.250000
90.500000,55.500000
91.500000,55.500000
Z" /> 
<path style="fill:#000000; fill-opacity:1.000000; 
stroke:#000000; stroke-width:0.000000; stroke-opacity:1; 
stroke-linecap:round; stroke-linejoin:round;fill-rule:evenodd;"
d="M 91.500000,64.500000
90.500000,64.500000
90.500000,61.750000
91.500000,61.750000
Z" /> 
<path style="fill:#000000; fill-opacity:1.000000; 
stroke:#000000; stroke-width:0.000000; stroke-opacity:1; 
stroke-linecap:round; stroke-linejoin:round;fill-rule:evenodd;"
d="M 89.500000,58.250000
88.500000,58.250000
88.500000,55.500000
89.500000,55.500000
Z" /> 
<path style="fill:#000000; fill-opacity:1.000000; 
stroke:#000000; stroke-width:0.000000; stroke-opacity:1; 
stroke-linecap:round; stroke-linejoin:round;fill-rule:evenodd;"
d="M 89.500000,64.500000
88.500000,64.500000
88.500000,61.750000
89.500000,61.750000
Z" /> 
</g>
<g >
</g>
<g style="fill:#000000; fill-opacity:1.000000; 
stroke:#000000; stroke-width:0.000000; stroke-opacity:1; 
stroke-linecap:round; stroke-linejoin:round;">
<path style="fill:#000000; fill-opacity:1.000000; 
stroke:#000000; stroke-width:0.000000; stroke-opacity:1; 
stroke-linecap:round; stroke-linejoin:round;fill-rule:evenodd;"
d="M 91.750000,71.500000
91.750000,70.500000
94.500000,70.500000
94.500000,71.500000
Z" /> 
<path style="fill:#000000; fill-opacity:1.000000; 
stroke:#000000; stroke-width:0.000000; stroke-opacity:1; 
stroke-linecap:round; stroke-linejoin:round;fill-rule:evenodd;"
d="M 85.500000,71.500000
85.500000,70.500000
88.250000,70.500000
88.250000,71.500000
Z" /> 
<path style="fill:#000000; fill-opacity:1.000000; 
stroke:#000000; stroke-width:0.000000; stroke-opacity:1; 
stroke-linecap:round; stroke-linejoin:round;fill-rule:evenodd;"
d="M 91.750000,69.500000
91.750000,68.500000
94.500000,68.500000
94.500000,69.500000
Z" /> 
<path style="fill:#000000; fill-opacity:1.000000; 
stroke:#000000; stroke-width:0.000000; stroke-opacity:1; 
stroke-linecap:round; stroke-linejoin:round;fill-rule:evenodd;"
d="M 85.500000,69.500000
85.500000,68.500000
88.250000,68.500000
88.250000,69.500000
Z" /> 
</g>
<g >
</g>
<g style="fill:#000000; fill-opacity:1.000000; 
stroke:#000000; stroke-width:0.000000; stroke-opacity:1; 
stroke-linecap:round; stroke-linejoin:round;">
<circle cx="86.800000" cy="63.600000" r="0.400000" /> 
</g>
<g style="fill:#000000; fill-opacity:1.000000; 
stroke:#000000; stroke-width:0.021200; stroke-opacity:1; 
stroke-linecap:round; stroke-linejoin:round;">
</g>
<g style="fill:#000000; fill-opacity:1.000000; 
stroke:#000000; stroke-width:0.000000; stroke-opacity:1; 
stroke-linecap:round; stroke-linejoin:round;">
<circle cx="74.000000" cy="52.000000" r="0.400000" /> 
</g>
<g style="fill:#000000; fill-opacity:1.000000; 
stroke:#000000; stroke-width:0.021200; stroke-opacity:1; 
stroke-linecap:round; stroke-linejoin:round;">
</g>
<g style="fill:#000000; fill-opacity:1.000000; 
stroke:#000000; stroke-width:0.000000; stroke-opacity:1; 
stroke-linecap:round; stroke-linejoin:round;">
<circle cx="89.928203" cy="58.803848" r="0.400000" /> 
</g>
<g style="fill:#000000; fill-opacity:1.000000; 
stroke:#000000; stroke-width:0.021200; stroke-opacity:1; 
stroke-linecap:round; stroke-linejoin:round;">
</g>
<g style="fill:#000000; fill-opacity:1.000000; 
stroke:#000000; stroke-width:0.000000; stroke-opacity:1; 
stroke-linecap:round; stroke-linejoin:round;">
<circle cx="70.071797" cy="61.196152" r="0.400000" /> 
</g>
<g style="fill:#000000; fill-opacity:1.000000; 
stroke:#000000; stroke-width:0.021200; stroke-opacity:1; 
stroke-linecap:round; stroke-linejoin:round;">
</g>
<g style="fill:#000000; fill-opacity:1.000000; 
stroke:#000000; stroke-width:0.000000; stroke-opacity:1; 
stroke-linecap:round; stroke-linejoin:round;">
<circle cx="76.071797" cy="69.196152" r="0.400000" /> 
</g>
<g style="fill:#000000; fill-opacity:1.000000; 
stroke:#000000; stroke-width:0.021200; stroke-opacity:1; 
stroke-linecap:round; stroke-linejoin:round;">
</g>
<g style="fill:#000000; fill-opacity:1.000000; 
stroke:#000000; stroke-width:0.000000; stroke-opacity:1; 
stroke-linecap:round; stroke-linejoin:round;">
<circle cx="81.196152" cy="69.928203" r="0.400000" /> 
</g>
<g style="fill:#000000; fill-opacity:1.000000; 
stroke:#000000; stroke-width:0.021200; stroke-opacity:1; 
stroke-linecap:round; stroke-linejoin:round;">
</g>
<g style="fill:#000000; fill-opacity:1.000000; 
stroke:#000000; stroke-width:0.000000; stroke-opacity:1; 
stroke-linecap:round; stroke-linejoin:round;">
<circle cx="83.928203" cy="50.803848" r="0.400000" /> 
</g>
<g style="fill:#000000; fill-opacity:1.000000; 
stroke:#000000; stroke-width:0.021200; stroke-opacity:1; 
stroke-linecap:round; stroke-linejoin:round;">
</g>
<g style="fill:#000000; fill-opacity:1.000000; 
stroke:#000000; stroke-width:0.000000; stroke-opacity:1; 
stroke-linecap:round; stroke-linejoin:round;">
<circle cx="72.000000" cy="66.000000" r="0.400000" /> 
</g>
<g style="fill:#000000; fill-opacity:1.000000; 
stroke:#000000; stroke-width:0.021200; stroke-opacity:1; 
stroke-linecap:round; stroke-linejoin:round;">
</g>
<g style="fill:#000000; fill-opacity:1.000000; 
stroke:#000000; stroke-width:0.000000; stroke-opacity:1; 
stroke-linecap:round; stroke-linejoin:round;">
<circle cx="86.400000" cy="67.700000" r="0.400000" /> 
</g>
<g style="fill:#000000; fill-opacity:1.000000; 
stroke:#000000; stroke-width:0.021200; stroke-opacity:1; 
stroke-linecap:round; stroke-linejoin:round;">
</g>
<g style="fill:#000000; fill-opacity:1.000000; 
stroke:#000000; stroke-width:0.000000; stroke-opacity:1; 
stroke-linecap:round; stroke-linejoin:round;">
<circle cx="70.803848" cy="56.071797" r="0.400000" /> 
</g>
<g style="fill:#000000; fill-opacity:1.000000; 
stroke:#000000; stroke-width:0.021200; stroke-opacity:1; 
stroke-linecap:round; stroke-linejoin:round;">
</g>
<g style="fill:#000000; fill-opacity:1.000000; 
stroke:#000000; stroke-width:0.000000; stroke-opacity:1; 
stroke-linecap:round; stroke-linejoin:round;">
<circle cx="88.000000" cy="54.000000" r="0.400000" /> 
</g>
<g style="fill:#000000; fill-opacity:1.000000; 
stroke:#000000; stroke-width:0.021200; stroke-opacity:1; 
stroke-linecap:round; stroke-linejoin:round;">
</g>
<g style="fill:#000000; fill-opacity:1.000000; 
stroke:#000000; stroke-width:0.000000; stroke-opacity:1; 
stroke-linecap:round; stroke-linejoin:round;">
<circle cx="88.500000" cy="66.000000" r="0.400000" /> 
</g>
<g style="fill:#000000; fill-opacity:1.000000; 
stroke:#000000; stroke-width:0.021200; stroke-opacity:1; 
stroke-linecap:round; stroke-linejoin:round;">
</g>
<g style="fill:#000000; fill-opacity:1.000000; 
stroke:#000000; stroke-width:0.000000; stroke-opacity:1; 
stroke-linecap:round; stroke-linejoin:round;">
<circle cx="78.803848" cy="50.071797" r="0.400000" /> 
</g>
<g style="fill:#000000; fill-opacity:1.000000; 
stroke:#000000; stroke-width:0.021200; stroke-opacity:1; 
stroke-linecap:round; stroke-linejoin:round;">
</g>
<g style="fill:#000000; fill-opacity:1.000000; 
stroke:#000000; stroke-width:0.000000; stroke-opacity:1; 
stroke-linecap:round; stroke-linejoin:round;">
<circle cx="90.600000" cy="61.400000" r="0.400000" /> 
</g>
<g style="fill:#000000; fill-opacity:1.000000; 
stroke:#000000; stroke-width:0.021200; stroke-opacity:1; 
stroke-linecap:round; stroke-linejoin:round;">
</g>
<g style="fill:#000000; fill-opacity:1.000000; 
stroke:#000000; stroke-width:0.000000; stroke-opacity:1; 
stroke-linecap:round; stroke-linejoin:round;">
<circle cx="85.100000" cy="70.600000" r="0.400000" /> 
</g>
<g style="fill:#000000; fill-opacity:1.000000; 
stroke:#000000; stroke-width:0.021200; stroke-opacity:1; 
stroke-linecap:round; stroke-linejoin:round;">
</g>
<g style="fill:#000000; fill-opacity:1.000000; 
stroke:#000000; stroke-width:0.000000; stroke-opacity:1; 
stroke-linecap:round; stroke-linejoin:round;">
<circle cx="91.400000" cy="61.400000" r="0.400000" /> 
</g>
<g style="fill:#000000; fill-opacity:1.000000; 
stroke:#000000; stroke-width:0.021200; stroke-opacity:1; 
stroke-linecap:round; stroke-linejoin:round;">
</g>
<g style="fill:#000000; fill-opacity:1.000000; 
stroke:#000000; stroke-width:0.000000; stroke-opacity:1; 
stroke-linecap:round; stroke-linejoin:round;">
<circle cx="91.400000" cy="64.900000" r="0.400000" /> 
</g>
<g style="fill:#000000; fill-opacity:1.000000; 
stroke:#000000; stroke-width:0.021200; stroke-opacity:1; 
stroke-linecap:round; stroke-linejoin:round;">
</g>
<g style="fill:#000000; fill-opacity:1.000000; 
stroke:#000000; stroke-width:0.000000; stroke-opacity:1; 
stroke-linecap:round; stroke-linejoin:round;">
<circle cx="90.700000" cy="64.900000" r="0.400000" /> 
</g>
<g style="fill:#000000; fill-opacity:1.000000; 
stroke:#000000; stroke-width:0.021200; stroke-opacity:1; 
stroke-linecap:round; stroke-linejoin:round;">
</g>
<g style="fill:#000000; fill-opacity:1.000000; 
stroke:#000000; stroke-width:0.000000; stroke-opacity:1; 
stroke-linecap:round; stroke-linejoin:round;">
<circle cx="88.600000" cy="70.600000" r="0.400000" /> 
</g>
<g style="fill:#000000; fill-opacity:1.000000; 
stroke:#000000; stroke-width:0.021200; stroke-opacity:1; 
stroke-linecap:round; stroke-linejoin:round;">
</g>
<g style="fill:#000000; fill-opacity:1.000000; 
stroke:#000000; stroke-width:0.000000; stroke-opacity:1; 
stroke-linecap:round; stroke-linejoin:round;">
<circle cx="88.600000" cy="71.400000" r="0.400000" /> 
</g>
<g style="fill:#000000; fill-opacity:1.000000; 
stroke:#000000; stroke-width:0.021200; stroke-opacity:1; 
stroke-linecap:round; stroke-linejoin:round;">
</g>
<g style="fill:#000000; fill-opacity:1.000000; 
stroke:#000000; stroke-width:0.000000; stroke-opacity:1; 
stroke-linecap:round; stroke-linejoin:round;">
<circle cx="85.100000" cy="71.400000" r="0.400000" /> 
</g>
<g style="fill:#000000; fill-opacity:1.000000; 
stroke:#000000; stroke-width:0.021200; stroke-opacity:1; 
stroke-linecap:round; stroke-linejoin:round;">
</g>
<g style="fill:#000000; fill-opacity:1.000000; 
stroke:#000000; stroke-width:0.000000; stroke-opacity:1; 
stroke-linecap:round; stroke-linejoin:round;">
<circle cx="87.910000" cy="61.820000" r="0.400000" /> 
</g>
<g style="fill:#000000; fill-opacity:1.000000; 
stroke:#000000; stroke-width:0.021200; stroke-opacity:1; 
stroke-linecap:round; stroke-linejoin:round;">
</g>
<g >
</g>
<g style="fill:#000000; fill-opacity:1.000000; 
stroke:#000000; stroke-width:0.021200; stroke-opacity:1; 
stroke-linecap:round; stroke-linejoin:round;">
</g>
<g style="fill:#000000; fill-opacity:1.000000; 
stroke:#000000; stroke-width:0.250000; stroke-opacity:1; 
stroke-linecap:round; stroke-linejoin:round;">
</g>
<g style="fill:#000000; fill-opacity:0.0; 
stroke:#000000; stroke-width:0.250000; stroke-opacity:1; 
stroke-linecap:round; stroke-linejoin:round;">
<path d="M84.800000 67.100000
L86.800000 65.100000
" />
<path d="M89.000000 63.125000
L88.125000 64.000000
" />
<path d="M85.400000 69.000000
L84.800000 68.400000
" />
<path d="M86.875000 69.000000
L85.400000 69.000000
" />
<path d="M84.800000 68.400000
L84.800000 67.100000
" />
<path d="M87.200000 64.000000
L86.800000 63.600000
" />
<path d="M88.125000 64.000000
L87.200000 64.000000
" />
<path d="M86.800000 65.100000
L86.800000 63.600000
" />
<path d="M91.400000 61.400000
L91.400000 64.900000
" />
<path d="M85.100000 70.600000
L85.100000 71.400000
" />
<path d="M88.600000 70.600000
L88.600000 71.400000
" />
<path d="M90.700000 61.500000
L90.700000 64.900000
" />
<path d="M90.600000 61.400000
L91.400000 61.400000
" />
<path d="M90.600000 61.400000
L90.700000 61.500000
" />
<path d="M85.100000 71.400000
L88.600000 71.400000
" />
<path d="M90.700000 64.900000
L91.400000 64.900000
" />
<path d="M85.100000 70.600000
L88.600000 70.600000
" />
<path d="M88.000000 57.000000
L88.000000 61.730000
" />
<path d="M88.000000 61.730000
L87.910000 61.820000
" />
<path d="M92.800000 60.500000
L92.800000 68.675000
" />
<path d="M89.000000 56.875000
L88.125000 56.875000
" />
<path d="M88.125000 56.875000
L88.000000 57.000000
" />
<path d="M87.910000 61.820000
L89.230000 60.500000
" />
<path d="M89.230000 60.500000
L92.800000 60.500000
" />
</g>
<g >
</g>
<g style="fill:#000000; fill-opacity:0.0; 
stroke:#000000; stroke-width:0.250000; stroke-opacity:1; 
stroke-linecap:round; stroke-linejoin:round;">
<g >
</g>
<g style="fill:#000000; fill-opacity:1.000000; 
stroke:#000000; stroke-width:0.000000; stroke-opacity:1; 
stroke-linecap:round; stroke-linejoin:round;">
<path style="fill:#000000; fill-opacity:1.000000; 
stroke:#000000; stroke-width:0.000000; stroke-opacity:1; 
stroke-linecap:round; stroke-linejoin:round;fill-rule:evenodd;"
d="M 94.002140,48.000687
94.045464,48.004477
94.173816,48.017119
94.189696,48.020008
94.257626,48.038209
94.259036,48.038612
94.353264,48.067196
94.366359,48.072207
94.435690,48.104536
94.438085,48.105733
94.522989,48.151115
94.528052,48.154225
94.595221,48.201258
94.598233,48.203543
94.632865,48.231964
94.671280,48.263491
94.674877,48.266751
94.733247,48.325121
94.736512,48.328723
94.796455,48.401765
94.798740,48.404777
94.845773,48.471946
94.848883,48.477009
94.894255,48.561893
94.895462,48.564308
94.927791,48.633639
94.932804,48.646739
94.961364,48.740887
94.961809,48.742445
94.979986,48.810282
94.982882,48.826202
94.995520,48.954525
94.999311,48.997843
94.999500,49.002161
94.999500,70.997837
94.999311,71.002155
94.995520,71.045473
94.989134,71.110308
94.964614,71.166365
94.911827,71.197304
94.850937,71.191307
94.820607,71.170608
94.799999,71.150000
93.275001,71.150000
93.275000,71.150001
93.275000,71.799998
93.275001,71.799999
94.012829,71.799999
94.071020,71.818906
94.106984,71.868406
94.106984,71.929592
94.071020,71.979092
94.021460,71.997622
94.002155,71.999311
93.997838,71.999500
89.096071,71.999500
89.037880,71.980593
89.001916,71.931093
89.001916,71.869907
89.026067,71.830496
89.028273,71.828288
89.028282,71.828282
89.124536,71.702841
89.185044,71.556762
89.205682,71.400000
89.185044,71.243238
89.185042,71.243233
89.146424,71.150000
91.450001,71.150000
91.450001,71.544791
91.452909,71.569874
91.498213,71.672477
91.577522,71.751786
91.680127,71.797090
91.705203,71.799999
92.974998,71.799999
92.975000,71.799998
92.975000,71.150001
92.974999,71.150000
91.450001,71.150000
89.146424,71.150000
89.124537,71.097161
89.124536,71.097160
89.124536,71.097159
89.096227,71.060266
89.075804,71.002592
89.093181,70.943926
89.096228,70.939732
89.096229,70.939731
89.124536,70.902841
89.146424,70.849999
91.450000,70.849999
91.450001,70.850000
92.974999,70.850000
92.975000,70.849999
93.275000,70.849999
93.275001,70.850000
94.799998,70.850000
94.799999,70.849999
94.799999,70.455210
94.799998,70.455208
94.797090,70.430125
94.751786,70.327522
94.672477,70.248213
94.569872,70.202909
94.544797,70.200000
93.275001,70.200000
93.275000,70.200001
93.275000,70.849999
92.975000,70.849999
92.975000,70.200001
92.974999,70.200000
91.705210,70.200000
91.705208,70.200001
91.680125,70.202909
91.577522,70.248213
91.498213,70.327522
91.452909,70.430127
91.450000,70.455202
91.450000,70.849999
89.146424,70.849999
89.185044,70.756762
89.205682,70.600000
89.185044,70.443238
89.124537,70.297161
89.124537,70.297160
89.028286,70.171723
89.028285,70.171722
89.028282,70.171718
89.028277,70.171714
89.028276,70.171713
88.902838,70.075462
88.756766,70.014957
88.756758,70.014955
88.600001,69.994318
88.599999,69.994318
88.443241,70.014955
88.443233,70.014957
88.297161,70.075462
88.297160,70.075462
88.171723,70.171713
88.171714,70.171722
88.147784,70.202909
88.122854,70.235400
88.122572,70.235767
88.072148,70.270423
88.044030,70.274500
85.655970,70.274500
85.597779,70.255593
85.577428,70.235767
85.577146,70.235400
85.528282,70.171718
85.528277,70.171714
85.528276,70.171713
85.402838,70.075462
85.256766,70.014957
85.256758,70.014955
85.100001,69.994318
85.099999,69.994318
84.943241,70.014955
84.943233,70.014957
84.797161,70.075462
84.797160,70.075462
84.671723,70.171713
84.671713,70.171723
84.575462,70.297160
84.575462,70.297161
84.514957,70.443233
84.514955,70.443241
84.512266,70.463667
84.494318,70.600000
84.514956,70.756762
84.575464,70.902841
84.603773,70.939734
84.624196,70.997407
84.606819,71.056073
84.603773,71.060265
84.575464,71.097158
84.575463,71.097160
84.514957,71.243236
84.514955,71.243241
84.494318,71.399999
84.494318,71.400000
84.514955,71.556758
84.514957,71.556766
84.575462,71.702838
84.575462,71.702839
84.671713,71.828276
84.671718,71.828282
84.671722,71.828285
84.673933,71.830496
84.674953,71.832498
84.675668,71.833430
84.675495,71.833562
84.701710,71.885013
84.692139,71.945445
84.648874,71.988710
84.603929,71.999500
69.002162,71.999500
68.997844,71.999311
68.954525,71.995520
68.826202,71.982882
68.810284,71.979986
68.773391,71.970101
68.742445,71.961809
68.740887,71.961364
68.646739,71.932804
68.633639,71.927791
68.564308,71.895462
68.561893,71.894255
68.477009,71.848883
68.471946,71.845773
68.404777,71.798740
68.401765,71.796455
68.328723,71.736512
68.325121,71.733247
68.266751,71.674877
68.263486,71.671275
68.203543,71.598233
68.201258,71.595221
68.174328,71.556762
68.154222,71.528048
68.151115,71.522989
68.105733,71.438085
68.104536,71.435690
68.072207,71.366359
68.067194,71.353259
68.038612,71.259036
68.038209,71.257626
68.020008,71.189696
68.017119,71.173816
68.004476,71.045447
68.003868,71.038495
68.000687,71.002140
68.000500,70.997840
68.000500,70.000004
68.644341,70.000004
68.664935,70.235400
68.664936,70.235407
68.664937,70.235408
68.689619,70.327522
68.726098,70.463667
68.825959,70.677818
68.825963,70.677826
68.946519,70.850000
68.961505,70.871401
69.128599,71.038495
69.128602,71.038497
69.128603,71.038498
69.153703,71.056073
69.322171,71.174035
69.322172,71.174035
69.322173,71.174036
69.322181,71.174040
69.536333,71.273901
69.536337,71.273903
69.764592,71.335063
69.764596,71.335063
69.764599,71.335064
69.941026,71.350500
69.941034,71.350500
70.058974,71.350500
70.235400,71.335064
70.235401,71.335063
70.235408,71.335063
70.463663,71.273903
70.677829,71.174035
70.871401,71.038495
71.038495,70.871401
71.174035,70.677830
71.273903,70.463663
71.335063,70.235408
71.335064,70.235400
71.355659,70.000004
71.355659,69.999995
71.335064,69.764599
71.335063,69.764596
71.335063,69.764592
71.273903,69.536337
71.266172,69.519758
71.174040,69.322181
71.174036,69.322173
71.165924,69.310588
71.038495,69.128599
70.871401,68.961505
70.871397,68.961502
70.871396,68.961501
70.677826,68.825963
70.677818,68.825959
70.463666,68.726098
70.463667,68.726098
70.387577,68.705710
70.235408,68.664937
70.235407,68.664936
70.235400,68.664935
70.058974,68.649500
70.058966,68.649500
69.941034,68.649500
69.941026,68.649500
69.764599,68.664935
69.536332,68.726098
69.322181,68.825959
69.322173,68.825963
69.128603,68.961501
68.961501,69.128603
68.825964,69.322171
68.726097,69.536337
68.664935,69.764599
68.644341,69.999995
68.644341,70.000004
68.000500,70.000004
68.000500,68.428806
84.470736,68.428806
84.481354,68.468436
84.482289,68.472652
84.489411,68.513045
84.490164,68.514348
84.500054,68.538224
84.500443,68.539679
84.500446,68.539684
84.523971,68.573281
84.526292,68.576924
84.546806,68.612455
84.578224,68.638818
84.581410,68.641737
85.158257,69.218584
85.161175,69.221769
85.187544,69.253193
85.187545,69.253194
85.223073,69.273706
85.226712,69.276024
85.257283,69.297430
85.294106,69.346295
85.299500,69.378527
85.299500,69.519746
85.299501,69.519758
85.311132,69.578227
85.311133,69.578231
85.355448,69.644552
85.421769,69.688867
85.466231,69.697711
85.480241,69.700498
85.480246,69.700498
85.480252,69.700500
85.480253,69.700500
88.269747,69.700500
88.269748,69.700500
88.328231,69.688867
88.394552,69.644552
88.438867,69.578231
88.450500,69.519748
88.450500,68.480252
88.438867,68.421769
88.394552,68.355448
88.394548,68.355445
88.328233,68.311134
88.328231,68.311133
88.328228,68.311132
88.328227,68.311132
88.269758,68.299501
88.269748,68.299500
85.480252,68.299500
85.480251,68.299500
85.480241,68.299501
85.421772,68.311132
85.421766,68.311134
85.347341,68.360865
85.346659,68.359845
85.301091,68.383059
85.240659,68.373483
85.215607,68.355281
85.154496,68.294170
85.126719,68.239653
85.125500,68.224166
85.125500,67.275833
85.144407,67.217642
85.154490,67.205835
87.018583,65.341741
87.021760,65.338829
87.053194,65.312455
87.073714,65.276911
87.076012,65.273303
87.099554,65.239684
87.099941,65.238236
87.109838,65.214345
87.110586,65.213048
87.110585,65.213048
87.110588,65.213045
87.117713,65.172628
87.118641,65.168443
87.129263,65.128807
87.125687,65.087934
87.125500,65.083634
87.125500,64.424500
87.144407,64.366309
87.193907,64.330345
87.224500,64.325500
88.108626,64.325500
88.112926,64.325687
88.153807,64.329264
88.174876,64.323618
88.235976,64.326819
88.283527,64.365322
88.299500,64.419244
88.299500,64.519746
88.299501,64.519758
88.311132,64.578227
88.311134,64.578233
88.355445,64.644548
88.355448,64.644552
88.421769,64.688867
88.466231,64.697711
88.480241,64.700498
88.480246,64.700498
88.480252,64.700500
88.480253,64.700500
89.519747,64.700500
89.519748,64.700500
89.578231,64.688867
89.644552,64.644552
89.688867,64.578231
89.700500,64.519748
89.700500,61.730252
89.688867,61.671769
89.644552,61.605448
89.644548,61.605445
89.578233,61.561134
89.578231,61.561133
89.578228,61.561132
89.578227,61.561132
89.519758,61.549501
89.519748,61.549500
89.519747,61.549500
88.879834,61.549500
88.821643,61.530593
88.785679,61.481093
88.785679,61.419907
88.809830,61.380496
89.335830,60.854496
89.390347,60.826719
89.405834,60.825500
90.083163,60.825500
90.141354,60.844407
90.177318,60.893907
90.177318,60.955093
90.161705,60.984767
90.075462,61.097160
90.075462,61.097161
90.014957,61.243233
90.014955,61.243241
89.994318,61.399999
89.994318,61.400000
90.014955,61.556758
90.014957,61.556766
90.075462,61.702838
90.075462,61.702839
90.165362,61.819999
90.171718,61.828282
90.171722,61.828285
90.171723,61.828286
90.260767,61.896612
90.295423,61.947037
90.299500,61.975154
90.299500,64.402929
90.280593,64.461120
90.273276,64.469687
90.175462,64.597160
90.175462,64.597161
90.114957,64.743233
90.114955,64.743241
90.094318,64.899999
90.094318,64.900000
90.114955,65.056758
90.114957,65.056766
90.175462,65.202838
90.175462,65.202839
90.271713,65.328276
90.271718,65.328282
90.397159,65.424536
90.543238,65.485044
90.660809,65.500522
90.699999,65.505682
90.700000,65.505682
90.700001,65.505682
90.731352,65.501554
90.856762,65.485044
90.910470,65.462797
91.008837,65.422053
91.009623,65.423950
91.060338,65.413165
91.090751,65.423047
91.091163,65.422053
91.243233,65.485042
91.243238,65.485044
91.360809,65.500522
91.399999,65.505682
91.400000,65.505682
91.400001,65.505682
91.431352,65.501554
91.556762,65.485044
91.702841,65.424536
91.828282,65.328282
91.924536,65.202841
91.985044,65.056762
92.005682,64.900000
91.985044,64.743238
91.967341,64.700500
91.924537,64.597161
91.924537,64.597160
91.828281,64.471717
91.764232,64.422570
91.729577,64.372145
91.725500,64.344028
91.725500,61.955970
91.744407,61.897779
91.764233,61.877428
91.828282,61.828282
91.924536,61.702841
91.985044,61.556762
92.005682,61.400000
91.985044,61.243238
91.924537,61.097161
91.924537,61.097160
91.838295,60.984767
91.817871,60.927091
91.835249,60.868426
91.883790,60.831178
91.916837,60.825500
92.375500,60.825500
92.433691,60.844407
92.469655,60.893907
92.474500,60.924500
92.474500,68.200500
92.455593,68.258691
92.406093,68.294655
92.375500,68.299500
91.730252,68.299500
91.730251,68.299500
91.730241,68.299501
91.671772,68.311132
91.671766,68.311134
91.605451,68.355445
91.605445,68.355451
91.561134,68.421766
91.561132,68.421772
91.549501,68.480241
91.549500,68.480253
91.549500,69.519746
91.549501,69.519758
91.561132,69.578227
91.561133,69.578231
91.605448,69.644552
91.671769,69.688867
91.716231,69.697711
91.730241,69.700498
91.730246,69.700498
91.730252,69.700500
91.730253,69.700500
94.519747,69.700500
94.519748,69.700500
94.578231,69.688867
94.644552,69.644552
94.688867,69.578231
94.700500,69.519748
94.700500,68.480252
94.688867,68.421769
94.644552,68.355448
94.644548,68.355445
94.578233,68.311134
94.578231,68.311133
94.578228,68.311132
94.578227,68.311132
94.519758,68.299501
94.519748,68.299500
94.519747,68.299500
93.224500,68.299500
93.166309,68.280593
93.130345,68.231093
93.125500,68.200500
93.125500,60.442606
93.118569,60.423563
93.114107,60.406912
93.110588,60.386955
93.100460,60.369412
93.093168,60.353774
93.086240,60.334741
93.086240,60.334740
93.073216,60.319219
93.063321,60.305086
93.053194,60.287545
93.037672,60.274520
93.025471,60.262318
93.012454,60.246805
92.994912,60.236677
92.980777,60.226779
92.965263,60.213761
92.965258,60.213758
92.946221,60.206829
92.930587,60.199539
92.913046,60.189412
92.893094,60.185894
92.876426,60.181427
92.857395,60.174500
92.857394,60.174500
92.828475,60.174500
89.246374,60.174500
89.242073,60.174312
89.201193,60.170736
89.201187,60.170736
89.161564,60.181353
89.157349,60.182287
89.116960,60.189410
89.116948,60.189414
89.115640,60.190170
89.091786,60.200051
89.090324,60.200442
89.090316,60.200446
89.056716,60.223972
89.053080,60.226288
89.052231,60.226779
89.017545,60.246805
88.991181,60.278224
88.988263,60.281408
88.494503,60.775169
88.439986,60.802946
88.379554,60.793375
88.336289,60.750110
88.325500,60.705169
88.325500,58.540349
88.344407,58.482158
88.393907,58.446194
88.443814,58.443252
88.471612,58.448781
88.480246,58.450499
88.480249,58.450499
88.480252,58.450500
88.480253,58.450500
89.519747,58.450500
89.519748,58.450500
89.578231,58.438867
89.644552,58.394552
89.688867,58.328231
89.700500,58.269748
89.700500,57.025000
90.200001,57.025000
90.200001,58.294791
90.202909,58.319874
90.248213,58.422477
90.327522,58.501786
90.430127,58.547090
90.455203,58.549999
90.849998,58.549999
90.850000,58.549998
91.150000,58.549998
91.150001,58.549999
91.544790,58.549999
91.544791,58.549998
91.569874,58.547090
91.672477,58.501786
91.751786,58.422477
91.797090,58.319872
91.799999,58.294797
91.800000,58.294794
91.800000,57.025001
91.799999,57.025000
91.150001,57.025000
91.150000,57.025001
91.150000,58.549998
90.850000,58.549998
90.850000,57.025001
90.849999,57.025000
90.200001,57.025000
89.700500,57.025000
89.700500,56.724999
90.200000,56.724999
90.200001,56.725000
90.849999,56.725000
90.850000,56.724999
90.850000,55.200000
91.150000,55.200000
91.150000,56.724999
91.150001,56.725000
91.799998,56.725000
91.799999,56.724998
91.799999,55.455209
91.799998,55.455208
91.797090,55.430125
91.751786,55.327522
91.672477,55.248213
91.569872,55.202909
91.544797,55.200000
91.150000,55.200000
90.850000,55.200000
90.455210,55.200000
90.455207,55.200001
90.430125,55.202909
90.327522,55.248213
90.248213,55.327522
90.202909,55.430127
90.200000,55.455202
90.200000,56.724999
89.700500,56.724999
89.700500,55.480252
89.688867,55.421769
89.644552,55.355448
89.644548,55.355445
89.578233,55.311134
89.578231,55.311133
89.578228,55.311132
89.578227,55.311132
89.519758,55.299501
89.519748,55.299500
88.480252,55.299500
88.480251,55.299500
88.480241,55.299501
88.421772,55.311132
88.421766,55.311134
88.355451,55.355445
88.355445,55.355451
88.311134,55.421766
88.311132,55.421772
88.299501,55.480241
88.299500,55.480253
88.299500,56.450500
88.280593,56.508691
88.231093,56.544655
88.200500,56.549500
88.141374,56.549500
88.137073,56.549312
88.096193,56.545736
88.096187,56.545736
88.056564,56.556353
88.052349,56.557287
88.011960,56.564410
88.011948,56.564414
88.010640,56.565170
87.986786,56.575051
87.985324,56.575442
87.985316,56.575446
87.951716,56.598972
87.948080,56.601288
87.939875,56.606025
87.912545,56.621805
87.886181,56.653224
87.883263,56.656408
87.781413,56.758259
87.778229,56.761176
87.746807,56.787542
87.746806,56.787544
87.726292,56.823075
87.723972,56.826716
87.700446,56.860316
87.700442,56.860324
87.700051,56.861786
87.690170,56.885640
87.689414,56.886948
87.689410,56.886960
87.682287,56.927349
87.681353,56.931564
87.670736,56.971187
87.670736,56.971193
87.674312,57.012072
87.674500,57.016373
87.674500,61.201420
87.655593,61.259611
87.613389,61.292883
87.607160,61.295463
87.481723,61.391713
87.481713,61.391723
87.385462,61.517160
87.385462,61.517161
87.324957,61.663233
87.324955,61.663241
87.304318,61.819999
87.304318,61.820000
87.324955,61.976758
87.324957,61.976766
87.385462,62.122838
87.385462,62.122839
87.385464,62.122841
87.481718,62.248282
87.607159,62.344536
87.607160,62.344536
87.607161,62.344537
87.657384,62.365340
87.753238,62.405044
87.870809,62.420522
87.909999,62.425682
87.910000,62.425682
87.910001,62.425682
87.941352,62.421554
88.066762,62.405044
88.162616,62.365339
88.223611,62.360539
88.275780,62.392508
88.299195,62.449036
88.299500,62.456804
88.299500,63.324166
88.280593,63.382357
88.270504,63.394169
88.019171,63.645503
87.964654,63.673281
87.949167,63.674500
87.502311,63.674500
87.444120,63.655593
87.408156,63.606093
87.404158,63.588422
87.385044,63.443241
87.385044,63.443238
87.324537,63.297161
87.324537,63.297160
87.228286,63.171723
87.228285,63.171722
87.228282,63.171718
87.228277,63.171714
87.228276,63.171713
87.102838,63.075462
86.956766,63.014957
86.956758,63.014955
86.800001,62.994318
86.799999,62.994318
86.643241,63.014955
86.643233,63.014957
86.497161,63.075462
86.497160,63.075462
86.371723,63.171713
86.371713,63.171723
86.275462,63.297160
86.275462,63.297161
86.214957,63.443233
86.214955,63.443241
86.194318,63.599999
86.194318,63.600000
86.214955,63.756758
86.214957,63.756766
86.275462,63.902838
86.275462,63.902839
86.275464,63.902841
86.371718,64.028282
86.398280,64.048664
86.435767,64.077428
86.470423,64.127852
86.474500,64.155970
86.474500,64.924164
86.455593,64.982355
86.445504,64.994168
84.581413,66.858259
84.578229,66.861176
84.546807,66.887542
84.546806,66.887544
84.526292,66.923075
84.523972,66.926716
84.500446,66.960316
84.500442,66.960324
84.500051,66.961786
84.490170,66.985640
84.489414,66.986948
84.489410,66.986960
84.482287,67.027349
84.481353,67.031564
84.470736,67.071187
84.470736,67.071193
84.474312,67.112072
84.474500,67.116373
84.474500,68.383625
84.474312,68.387927
84.471352,68.421766
84.470736,68.428806
68.000500,68.428806
68.000500,60.000000
73.894548,60.000000
73.914346,60.491285
73.914346,60.491291
73.914347,60.491297
73.914347,60.491306
73.973609,60.979365
73.973613,60.979392
74.071962,61.461136
74.071962,61.461137
74.208750,61.933386
74.208753,61.933395
74.280601,62.122841
74.383110,62.393133
74.537956,62.719464
74.592578,62.834579
74.593891,62.837345
74.839733,63.263155
74.839734,63.263156
75.119038,63.667800
75.429999,64.048659
75.770280,64.402929
75.770605,64.403267
75.968094,64.578227
76.138635,64.729313
76.138640,64.729317
76.531707,65.024688
76.624923,65.083634
76.947274,65.287477
76.947281,65.287480
76.947280,65.287480
76.947293,65.287488
77.334618,65.490770
77.382638,65.515973
77.834977,65.708697
78.065494,65.785654
78.301341,65.864392
78.301351,65.864395
78.301357,65.864397
78.778753,65.982065
79.264069,66.060936
79.754158,66.100500
79.754163,66.100500
80.245837,66.100500
80.245842,66.100500
80.735931,66.060936
81.221247,65.982065
81.698643,65.864397
82.165023,65.708697
82.617362,65.515973
82.863115,65.386991
83.052706,65.287488
83.052711,65.287484
83.052726,65.287477
83.468292,65.024688
83.861365,64.729313
84.229395,64.403267
84.569996,64.048664
84.880959,63.667803
85.160267,63.263155
85.406109,62.837345
85.616890,62.393133
85.791244,61.933401
85.791246,61.933395
85.791249,61.933386
85.928037,61.461137
85.928037,61.461136
85.928039,61.461130
86.026388,60.979383
86.059684,60.705165
86.085652,60.491306
86.085652,60.491301
86.085654,60.491285
86.105452,60.000000
86.085654,59.508715
86.085652,59.508698
86.085652,59.508693
86.026390,59.020634
86.026388,59.020617
85.928039,58.538870
85.928037,58.538862
85.791249,58.066613
85.791246,58.066604
85.773157,58.018910
85.616890,57.606867
85.406109,57.162655
85.160267,56.736845
84.962618,56.450500
84.880961,56.332199
84.570000,55.951340
84.229398,55.596736
84.097902,55.480241
83.953372,55.352198
83.861364,55.270686
83.861359,55.270682
83.468292,54.975311
83.176978,54.791095
83.052726,54.712523
83.052722,54.712520
83.052719,54.712519
83.052706,54.712511
82.617376,54.484034
82.617372,54.484032
82.617369,54.484030
82.617362,54.484027
82.165023,54.291303
82.165024,54.291303
82.165021,54.291302
81.698658,54.135607
81.698638,54.135601
81.337278,54.046534
81.221247,54.017935
80.735931,53.939064
80.735925,53.939063
80.461028,53.916871
80.245842,53.899500
79.754158,53.899500
79.556342,53.915469
79.264074,53.939063
78.778753,54.017935
78.301361,54.135601
78.301341,54.135607
77.834978,54.291302
77.542369,54.415971
77.382638,54.484027
77.382634,54.484028
77.382627,54.484032
77.382623,54.484034
76.947293,54.712511
76.947280,54.712519
76.531707,54.975311
76.138640,55.270682
76.138635,55.270686
75.770601,55.596736
75.429999,55.951340
75.119038,56.332199
74.839734,56.736843
74.593885,57.162666
74.383108,57.606872
74.208753,58.066604
74.208750,58.066613
74.071962,58.538862
74.071962,58.538863
73.973613,59.020607
73.973609,59.020634
73.914347,59.508693
73.914347,59.508702
73.914346,59.508709
73.914346,59.508715
73.894548,60.000000
68.000500,60.000000
68.000500,50.000004
68.644341,50.000004
68.664935,50.235400
68.726098,50.463667
68.825959,50.677818
68.825963,50.677826
68.825964,50.677828
68.825965,50.677829
68.961505,50.871401
69.128599,51.038495
69.322171,51.174035
69.322172,51.174035
69.322173,51.174036
69.322181,51.174040
69.536333,51.273901
69.536337,51.273903
69.764592,51.335063
69.764596,51.335063
69.764599,51.335064
69.941026,51.350500
69.941034,51.350500
70.058974,51.350500
70.235400,51.335064
70.235401,51.335063
70.235408,51.335063
70.463663,51.273903
70.677829,51.174035
70.871401,51.038495
71.038495,50.871401
71.174035,50.677830
71.273903,50.463663
71.335063,50.235408
71.355659,50.000004
88.644341,50.000004
88.664935,50.235400
88.726098,50.463667
88.825959,50.677818
88.825963,50.677826
88.825964,50.677828
88.825965,50.677829
88.961505,50.871401
89.128599,51.038495
89.322171,51.174035
89.322172,51.174035
89.322173,51.174036
89.322181,51.174040
89.536333,51.273901
89.536337,51.273903
89.764592,51.335063
89.764596,51.335063
89.764599,51.335064
89.941026,51.350500
89.941034,51.350500
90.058974,51.350500
90.235400,51.335064
90.235401,51.335063
90.235408,51.335063
90.463663,51.273903
90.677829,51.174035
90.871401,51.038495
91.038495,50.871401
91.174035,50.677830
91.273903,50.463663
91.335063,50.235408
91.355659,50.000000
91.335063,49.764592
91.273903,49.536337
91.174035,49.322171
91.038495,49.128599
90.871401,48.961505
90.871397,48.961502
90.871396,48.961501
90.678167,48.826202
90.677829,48.825965
90.677828,48.825964
90.677826,48.825963
90.677818,48.825959
90.463666,48.726098
90.463667,48.726098
90.387578,48.705710
90.235408,48.664937
90.235407,48.664936
90.235400,48.664935
90.058974,48.649500
90.058966,48.649500
89.941034,48.649500
89.941026,48.649500
89.764599,48.664935
89.536332,48.726098
89.322181,48.825959
89.322173,48.825963
89.128603,48.961501
88.961501,49.128603
88.825964,49.322171
88.726097,49.536337
88.664935,49.764599
88.644341,49.999995
88.644341,50.000004
71.355659,50.000004
71.355659,50.000000
71.335063,49.764592
71.273903,49.536337
71.174035,49.322171
71.038495,49.128599
70.871401,48.961505
70.871397,48.961502
70.871396,48.961501
70.678167,48.826202
70.677829,48.825965
70.677828,48.825964
70.677826,48.825963
70.677818,48.825959
70.463666,48.726098
70.463667,48.726098
70.387578,48.705710
70.235408,48.664937
70.235407,48.664936
70.235400,48.664935
70.058974,48.649500
70.058966,48.649500
69.941034,48.649500
69.941026,48.649500
69.764599,48.664935
69.536332,48.726098
69.322181,48.825959
69.322173,48.825963
69.128603,48.961501
68.961501,49.128603
68.825964,49.322171
68.726097,49.536337
68.664935,49.764599
68.644341,49.999995
68.644341,50.000004
68.000500,50.000004
68.000500,49.002158
68.000687,48.997860
68.004483,48.954465
68.017120,48.826179
68.020007,48.810307
68.038218,48.742342
68.038603,48.740995
68.067199,48.646725
68.072207,48.633639
68.099292,48.575555
68.104551,48.564276
68.105718,48.561943
68.151123,48.476994
68.154212,48.471965
68.201271,48.404759
68.203528,48.401784
68.263508,48.328698
68.266741,48.325131
68.325131,48.266741
68.328698,48.263508
68.401784,48.203528
68.404759,48.201271
68.471965,48.154212
68.476994,48.151123
68.561943,48.105718
68.564276,48.104551
68.633641,48.072205
68.646725,48.067199
68.740995,48.038603
68.742342,48.038218
68.810307,48.020007
68.826179,48.017120
68.954484,48.004482
68.997859,48.000687
69.002159,48.000500
93.997840,48.000500
Z" /> 
</g>
</g>
</g> 
</svg>
