<?xml version="1.0" standalone="no"?>
 <!DOCTYPE svg PUBLIC "-//W3C//DTD SVG 1.1//EN" 
 "http://www.w3.org/Graphics/SVG/1.1/DTD/svg11.dtd"> 
<svg
  xmlns:svg="http://www.w3.org/2000/svg"
  xmlns="http://www.w3.org/2000/svg"
  xmlns:xlink="http://www.w3.org/1999/xlink"
  version="1.1"
  width="2.6100000000000003cm" height="2.6100000000000003cm" viewBox="66.95 46.95 26.1 26.1">
<title>SVG Image created as pedalboard-led-ring-B_Cu.svg date 2023/06/03 19:22:10 </title>
  <desc>Image generated by PCBNEW </desc>
<g style="fill:#000000; fill-opacity:1.000000;stroke:#000000; stroke-opacity:1.000000;
stroke-linecap:round; stroke-linejoin:round;"
 transform="translate(0 0) scale(1 1)">
</g>
<g style="fill:#000000; fill-opacity:0.0; 
stroke:#000000; stroke-width:0.000000; stroke-opacity:1; 
stroke-linecap:round; stroke-linejoin:round;">
<g >
</g>
<g >
</g>
<g >
</g>
<g >
</g>
<g >
</g>
<g >
</g>
<g >
</g>
<g >
</g>
<g >
</g>
<g >
</g>
<g >
</g>
<g >
</g>
<g >
</g>
<g >
</g>
<g >
</g>
<g >
</g>
<g >
</g>
<g >
</g>
<g >
</g>
<g >
</g>
<g >
</g>
<g >
</g>
<g >
</g>
<g >
</g>
<g >
</g>
<g >
</g>
<g >
</g>
<g >
</g>
<g >
</g>
<g >
</g>
<g style="fill:#000000; fill-opacity:0.0; 
stroke:#000000; stroke-width:0.000000; stroke-opacity:1; 
stroke-linecap:round; stroke-linejoin:round;">
</g>
<g style="fill:#000000; fill-opacity:0.0; 
stroke:#000000; stroke-width:0.000000; stroke-opacity:1; 
stroke-linecap:round; stroke-linejoin:round;">
</g>
<g style="fill:#000000; fill-opacity:1.000000; 
stroke:#000000; stroke-width:0.000000; stroke-opacity:1; 
stroke-linecap:round; stroke-linejoin:round;">
<path style="fill:#000000; fill-opacity:1.000000; 
stroke:#000000; stroke-width:0.000000; stroke-opacity:1; 
stroke-linecap:round; stroke-linejoin:round;fill-rule:evenodd;"
d="M 91.500000,58.250000
90.500000,58.250000
90.500000,55.500000
91.500000,55.500000
Z" /> 
<path style="fill:#000000; fill-opacity:1.000000; 
stroke:#000000; stroke-width:0.000000; stroke-opacity:1; 
stroke-linecap:round; stroke-linejoin:round;fill-rule:evenodd;"
d="M 91.500000,64.500000
90.500000,64.500000
90.500000,61.750000
91.500000,61.750000
Z" /> 
<path style="fill:#000000; fill-opacity:1.000000; 
stroke:#000000; stroke-width:0.000000; stroke-opacity:1; 
stroke-linecap:round; stroke-linejoin:round;fill-rule:evenodd;"
d="M 89.500000,58.250000
88.500000,58.250000
88.500000,55.500000
89.500000,55.500000
Z" /> 
<path style="fill:#000000; fill-opacity:1.000000; 
stroke:#000000; stroke-width:0.000000; stroke-opacity:1; 
stroke-linecap:round; stroke-linejoin:round;fill-rule:evenodd;"
d="M 89.500000,64.500000
88.500000,64.500000
88.500000,61.750000
89.500000,61.750000
Z" /> 
</g>
<g >
</g>
<g style="fill:#000000; fill-opacity:1.000000; 
stroke:#000000; stroke-width:0.000000; stroke-opacity:1; 
stroke-linecap:round; stroke-linejoin:round;">
<path style="fill:#000000; fill-opacity:1.000000; 
stroke:#000000; stroke-width:0.000000; stroke-opacity:1; 
stroke-linecap:round; stroke-linejoin:round;fill-rule:evenodd;"
d="M 88.750000,69.500000
88.750000,68.500000
91.500000,68.500000
91.500000,69.500000
Z" /> 
<path style="fill:#000000; fill-opacity:1.000000; 
stroke:#000000; stroke-width:0.000000; stroke-opacity:1; 
stroke-linecap:round; stroke-linejoin:round;fill-rule:evenodd;"
d="M 82.500000,69.500000
82.500000,68.500000
85.250000,68.500000
85.250000,69.500000
Z" /> 
<path style="fill:#000000; fill-opacity:1.000000; 
stroke:#000000; stroke-width:0.000000; stroke-opacity:1; 
stroke-linecap:round; stroke-linejoin:round;fill-rule:evenodd;"
d="M 88.750000,67.500000
88.750000,66.500000
91.500000,66.500000
91.500000,67.500000
Z" /> 
<path style="fill:#000000; fill-opacity:1.000000; 
stroke:#000000; stroke-width:0.000000; stroke-opacity:1; 
stroke-linecap:round; stroke-linejoin:round;fill-rule:evenodd;"
d="M 82.500000,67.500000
82.500000,66.500000
85.250000,66.500000
85.250000,67.500000
Z" /> 
</g>
<g >
</g>
<g style="fill:#000000; fill-opacity:1.000000; 
stroke:#000000; stroke-width:0.000000; stroke-opacity:1; 
stroke-linecap:round; stroke-linejoin:round;">
<circle cx="86.800000" cy="63.600000" r="0.400000" /> 
</g>
<g style="fill:#000000; fill-opacity:1.000000; 
stroke:#000000; stroke-width:0.021200; stroke-opacity:1; 
stroke-linecap:round; stroke-linejoin:round;">
</g>
<g style="fill:#000000; fill-opacity:1.000000; 
stroke:#000000; stroke-width:0.000000; stroke-opacity:1; 
stroke-linecap:round; stroke-linejoin:round;">
<circle cx="74.000000" cy="52.000000" r="0.400000" /> 
</g>
<g style="fill:#000000; fill-opacity:1.000000; 
stroke:#000000; stroke-width:0.021200; stroke-opacity:1; 
stroke-linecap:round; stroke-linejoin:round;">
</g>
<g style="fill:#000000; fill-opacity:1.000000; 
stroke:#000000; stroke-width:0.000000; stroke-opacity:1; 
stroke-linecap:round; stroke-linejoin:round;">
<circle cx="89.928203" cy="58.803848" r="0.400000" /> 
</g>
<g style="fill:#000000; fill-opacity:1.000000; 
stroke:#000000; stroke-width:0.021200; stroke-opacity:1; 
stroke-linecap:round; stroke-linejoin:round;">
</g>
<g style="fill:#000000; fill-opacity:1.000000; 
stroke:#000000; stroke-width:0.000000; stroke-opacity:1; 
stroke-linecap:round; stroke-linejoin:round;">
<circle cx="70.071797" cy="61.196152" r="0.400000" /> 
</g>
<g style="fill:#000000; fill-opacity:1.000000; 
stroke:#000000; stroke-width:0.021200; stroke-opacity:1; 
stroke-linecap:round; stroke-linejoin:round;">
</g>
<g style="fill:#000000; fill-opacity:1.000000; 
stroke:#000000; stroke-width:0.000000; stroke-opacity:1; 
stroke-linecap:round; stroke-linejoin:round;">
<circle cx="76.071797" cy="69.196152" r="0.400000" /> 
</g>
<g style="fill:#000000; fill-opacity:1.000000; 
stroke:#000000; stroke-width:0.021200; stroke-opacity:1; 
stroke-linecap:round; stroke-linejoin:round;">
</g>
<g style="fill:#000000; fill-opacity:1.000000; 
stroke:#000000; stroke-width:0.000000; stroke-opacity:1; 
stroke-linecap:round; stroke-linejoin:round;">
<circle cx="81.196152" cy="69.928203" r="0.400000" /> 
</g>
<g style="fill:#000000; fill-opacity:1.000000; 
stroke:#000000; stroke-width:0.021200; stroke-opacity:1; 
stroke-linecap:round; stroke-linejoin:round;">
</g>
<g style="fill:#000000; fill-opacity:1.000000; 
stroke:#000000; stroke-width:0.000000; stroke-opacity:1; 
stroke-linecap:round; stroke-linejoin:round;">
<circle cx="83.928203" cy="50.803848" r="0.400000" /> 
</g>
<g style="fill:#000000; fill-opacity:1.000000; 
stroke:#000000; stroke-width:0.021200; stroke-opacity:1; 
stroke-linecap:round; stroke-linejoin:round;">
</g>
<g style="fill:#000000; fill-opacity:1.000000; 
stroke:#000000; stroke-width:0.000000; stroke-opacity:1; 
stroke-linecap:round; stroke-linejoin:round;">
<circle cx="72.000000" cy="66.000000" r="0.400000" /> 
</g>
<g style="fill:#000000; fill-opacity:1.000000; 
stroke:#000000; stroke-width:0.021200; stroke-opacity:1; 
stroke-linecap:round; stroke-linejoin:round;">
</g>
<g style="fill:#000000; fill-opacity:1.000000; 
stroke:#000000; stroke-width:0.000000; stroke-opacity:1; 
stroke-linecap:round; stroke-linejoin:round;">
<circle cx="86.400000" cy="67.700000" r="0.400000" /> 
</g>
<g style="fill:#000000; fill-opacity:1.000000; 
stroke:#000000; stroke-width:0.021200; stroke-opacity:1; 
stroke-linecap:round; stroke-linejoin:round;">
</g>
<g style="fill:#000000; fill-opacity:1.000000; 
stroke:#000000; stroke-width:0.000000; stroke-opacity:1; 
stroke-linecap:round; stroke-linejoin:round;">
<circle cx="70.803848" cy="56.071797" r="0.400000" /> 
</g>
<g style="fill:#000000; fill-opacity:1.000000; 
stroke:#000000; stroke-width:0.021200; stroke-opacity:1; 
stroke-linecap:round; stroke-linejoin:round;">
</g>
<g style="fill:#000000; fill-opacity:1.000000; 
stroke:#000000; stroke-width:0.000000; stroke-opacity:1; 
stroke-linecap:round; stroke-linejoin:round;">
<circle cx="88.000000" cy="54.000000" r="0.400000" /> 
</g>
<g style="fill:#000000; fill-opacity:1.000000; 
stroke:#000000; stroke-width:0.021200; stroke-opacity:1; 
stroke-linecap:round; stroke-linejoin:round;">
</g>
<g style="fill:#000000; fill-opacity:1.000000; 
stroke:#000000; stroke-width:0.000000; stroke-opacity:1; 
stroke-linecap:round; stroke-linejoin:round;">
<circle cx="88.260000" cy="66.020000" r="0.400000" /> 
</g>
<g style="fill:#000000; fill-opacity:1.000000; 
stroke:#000000; stroke-width:0.021200; stroke-opacity:1; 
stroke-linecap:round; stroke-linejoin:round;">
</g>
<g style="fill:#000000; fill-opacity:1.000000; 
stroke:#000000; stroke-width:0.000000; stroke-opacity:1; 
stroke-linecap:round; stroke-linejoin:round;">
<circle cx="78.803848" cy="50.071797" r="0.400000" /> 
</g>
<g style="fill:#000000; fill-opacity:1.000000; 
stroke:#000000; stroke-width:0.021200; stroke-opacity:1; 
stroke-linecap:round; stroke-linejoin:round;">
</g>
<g style="fill:#000000; fill-opacity:1.000000; 
stroke:#000000; stroke-width:0.000000; stroke-opacity:1; 
stroke-linecap:round; stroke-linejoin:round;">
<circle cx="90.300000" cy="61.400000" r="0.400000" /> 
</g>
<g style="fill:#000000; fill-opacity:1.000000; 
stroke:#000000; stroke-width:0.021200; stroke-opacity:1; 
stroke-linecap:round; stroke-linejoin:round;">
</g>
<g style="fill:#000000; fill-opacity:1.000000; 
stroke:#000000; stroke-width:0.000000; stroke-opacity:1; 
stroke-linecap:round; stroke-linejoin:round;">
<circle cx="83.000000" cy="70.000000" r="0.400000" /> 
</g>
<g style="fill:#000000; fill-opacity:1.000000; 
stroke:#000000; stroke-width:0.021200; stroke-opacity:1; 
stroke-linecap:round; stroke-linejoin:round;">
</g>
<g style="fill:#000000; fill-opacity:1.000000; 
stroke:#000000; stroke-width:0.000000; stroke-opacity:1; 
stroke-linecap:round; stroke-linejoin:round;">
<circle cx="91.100000" cy="61.400000" r="0.400000" /> 
</g>
<g style="fill:#000000; fill-opacity:1.000000; 
stroke:#000000; stroke-width:0.021200; stroke-opacity:1; 
stroke-linecap:round; stroke-linejoin:round;">
</g>
<g style="fill:#000000; fill-opacity:1.000000; 
stroke:#000000; stroke-width:0.000000; stroke-opacity:1; 
stroke-linecap:round; stroke-linejoin:round;">
<circle cx="91.100000" cy="64.900000" r="0.400000" /> 
</g>
<g style="fill:#000000; fill-opacity:1.000000; 
stroke:#000000; stroke-width:0.021200; stroke-opacity:1; 
stroke-linecap:round; stroke-linejoin:round;">
</g>
<g style="fill:#000000; fill-opacity:1.000000; 
stroke:#000000; stroke-width:0.000000; stroke-opacity:1; 
stroke-linecap:round; stroke-linejoin:round;">
<circle cx="90.300000" cy="64.900000" r="0.400000" /> 
</g>
<g style="fill:#000000; fill-opacity:1.000000; 
stroke:#000000; stroke-width:0.021200; stroke-opacity:1; 
stroke-linecap:round; stroke-linejoin:round;">
</g>
<g style="fill:#000000; fill-opacity:1.000000; 
stroke:#000000; stroke-width:0.000000; stroke-opacity:1; 
stroke-linecap:round; stroke-linejoin:round;">
<circle cx="85.000000" cy="70.000000" r="0.400000" /> 
</g>
<g style="fill:#000000; fill-opacity:1.000000; 
stroke:#000000; stroke-width:0.021200; stroke-opacity:1; 
stroke-linecap:round; stroke-linejoin:round;">
</g>
<g style="fill:#000000; fill-opacity:1.000000; 
stroke:#000000; stroke-width:0.000000; stroke-opacity:1; 
stroke-linecap:round; stroke-linejoin:round;">
<circle cx="86.000000" cy="69.500000" r="0.400000" /> 
</g>
<g style="fill:#000000; fill-opacity:1.000000; 
stroke:#000000; stroke-width:0.021200; stroke-opacity:1; 
stroke-linecap:round; stroke-linejoin:round;">
</g>
<g style="fill:#000000; fill-opacity:1.000000; 
stroke:#000000; stroke-width:0.000000; stroke-opacity:1; 
stroke-linecap:round; stroke-linejoin:round;">
<circle cx="84.000000" cy="70.000000" r="0.400000" /> 
</g>
<g style="fill:#000000; fill-opacity:1.000000; 
stroke:#000000; stroke-width:0.021200; stroke-opacity:1; 
stroke-linecap:round; stroke-linejoin:round;">
</g>
<g style="fill:#000000; fill-opacity:1.000000; 
stroke:#000000; stroke-width:0.000000; stroke-opacity:1; 
stroke-linecap:round; stroke-linejoin:round;">
<circle cx="87.910000" cy="61.820000" r="0.400000" /> 
</g>
<g style="fill:#000000; fill-opacity:1.000000; 
stroke:#000000; stroke-width:0.021200; stroke-opacity:1; 
stroke-linecap:round; stroke-linejoin:round;">
</g>
<g >
</g>
<g style="fill:#000000; fill-opacity:1.000000; 
stroke:#000000; stroke-width:0.021200; stroke-opacity:1; 
stroke-linecap:round; stroke-linejoin:round;">
</g>
<g style="fill:#000000; fill-opacity:1.000000; 
stroke:#000000; stroke-width:0.250000; stroke-opacity:1; 
stroke-linecap:round; stroke-linejoin:round;">
</g>
<g style="fill:#000000; fill-opacity:0.0; 
stroke:#000000; stroke-width:0.250000; stroke-opacity:1; 
stroke-linecap:round; stroke-linejoin:round;">
<path d="M88.625000 63.500000
L86.900000 63.500000
" />
<path d="M89.000000 63.125000
L88.625000 63.500000
" />
<path d="M86.800000 63.600000
L86.800000 64.800000
" />
<path d="M84.600000 67.000000
L83.875000 67.000000
" />
<path d="M86.900000 63.500000
L86.800000 63.600000
" />
<path d="M86.800000 64.800000
L84.600000 67.000000
" />
<path d="M85.500000 69.000000
L86.000000 69.500000
" />
<path d="M90.300000 61.400000
L90.300000 62.425000
" />
<path d="M83.875000 69.000000
L84.000000 69.000000
" />
<path d="M91.100000 63.225000
L91.000000 63.125000
" />
<path d="M91.100000 64.900000
L90.400000 64.900000
" />
<path d="M90.300000 63.825000
L91.000000 63.125000
" />
<path d="M90.300000 64.900000
L90.300000 63.825000
" />
<path d="M83.875000 69.000000
L83.875000 69.875000
" />
<path d="M90.300000 61.400000
L91.100000 61.400000
" />
<path d="M83.875000 69.000000
L85.500000 69.000000
" />
<path d="M90.300000 62.425000
L91.000000 63.125000
" />
<path d="M91.100000 61.400000
L91.100000 63.025000
" />
<path d="M91.100000 64.900000
L91.100000 63.225000
" />
<path d="M83.875000 69.875000
L84.000000 70.000000
" />
<path d="M83.875000 69.125000
L83.000000 70.000000
" />
<path d="M84.000000 69.000000
L85.000000 70.000000
" />
<path d="M91.100000 63.025000
L91.000000 63.125000
" />
<path d="M83.875000 69.000000
L83.875000 69.125000
" />
<path d="M91.000000 67.000000
L91.830000 66.170000
" />
<path d="M90.007979 60.695000
L89.595000 61.107979
" />
<path d="M88.000000 57.000000
L88.000000 61.730000
" />
<path d="M87.910000 61.635000
L87.910000 61.820000
" />
<path d="M89.555000 61.445000
L88.100000 61.445000
" />
<path d="M88.000000 61.730000
L87.910000 61.820000
" />
<path d="M89.595000 61.107979
L89.595000 61.405000
" />
<path d="M89.000000 56.875000
L88.125000 56.875000
" />
<path d="M88.125000 56.875000
L88.000000 57.000000
" />
<path d="M91.830000 60.832979
L91.692021 60.695000
" />
<path d="M89.595000 61.405000
L89.555000 61.445000
" />
<path d="M88.100000 61.445000
L87.910000 61.635000
" />
<path d="M91.692021 60.695000
L90.007979 60.695000
" />
<path d="M91.830000 66.170000
L91.830000 60.832979
" />
<path d="M90.125000 67.000000
L91.000000 67.000000
" />
</g>
<g >
</g>
<g style="fill:#000000; fill-opacity:0.0; 
stroke:#000000; stroke-width:0.250000; stroke-opacity:1; 
stroke-linecap:round; stroke-linejoin:round;">
<g >
</g>
<g style="fill:#000000; fill-opacity:1.000000; 
stroke:#000000; stroke-width:0.000000; stroke-opacity:1; 
stroke-linecap:round; stroke-linejoin:round;">
<path style="fill:#000000; fill-opacity:1.000000; 
stroke:#000000; stroke-width:0.000000; stroke-opacity:1; 
stroke-linecap:round; stroke-linejoin:round;fill-rule:evenodd;"
d="M 91.002140,48.000687
91.045464,48.004477
91.173816,48.017119
91.189696,48.020008
91.257626,48.038209
91.259036,48.038612
91.353264,48.067196
91.366359,48.072207
91.435690,48.104536
91.438085,48.105733
91.522989,48.151115
91.528052,48.154225
91.595221,48.201258
91.598233,48.203543
91.632865,48.231964
91.671280,48.263491
91.674877,48.266751
91.733247,48.325121
91.736512,48.328723
91.796455,48.401765
91.798740,48.404777
91.845773,48.471946
91.848883,48.477009
91.894255,48.561893
91.895462,48.564308
91.927791,48.633639
91.932804,48.646739
91.961364,48.740887
91.961809,48.742445
91.979986,48.810282
91.982882,48.826202
91.995520,48.954525
91.999311,48.997843
91.999500,49.002161
91.999499,60.322760
91.980592,60.380951
91.931092,60.416915
91.869906,60.416915
91.843718,60.403857
91.831705,60.395446
91.831704,60.395445
91.831703,60.395445
91.831700,60.395443
91.830245,60.395054
91.806369,60.385164
91.805066,60.384411
91.764673,60.377289
91.760457,60.376354
91.734174,60.369312
91.720828,60.365736
91.720827,60.365736
91.716402,60.366123
91.679947,60.369312
91.675647,60.369500
90.024354,60.369500
90.020053,60.369312
89.979173,60.365736
89.939543,60.376354
89.935327,60.377289
89.894935,60.384411
89.894927,60.384414
89.893619,60.385170
89.869765,60.395051
89.868303,60.395442
89.868295,60.395446
89.834695,60.418972
89.831059,60.421288
89.822854,60.426025
89.795524,60.441805
89.769160,60.473224
89.766242,60.476408
89.376413,60.866238
89.373229,60.869155
89.341807,60.895521
89.341806,60.895523
89.321292,60.931054
89.318972,60.934695
89.295446,60.968295
89.295442,60.968303
89.295051,60.969765
89.285170,60.993619
89.284414,60.994927
89.284410,60.994939
89.277288,61.035326
89.276355,61.039536
89.274594,61.046111
89.241277,61.097429
89.184158,61.119364
89.178964,61.119500
88.424500,61.119500
88.366309,61.100593
88.330345,61.051093
88.325500,61.020500
88.325500,58.540349
88.344407,58.482158
88.393907,58.446194
88.443814,58.443252
88.471612,58.448781
88.480246,58.450499
88.480249,58.450499
88.480252,58.450500
88.480253,58.450500
89.519747,58.450500
89.519748,58.450500
89.578231,58.438867
89.644552,58.394552
89.688867,58.328231
89.700500,58.269748
89.700500,57.025000
90.200001,57.025000
90.200001,58.294791
90.202909,58.319874
90.248213,58.422477
90.327522,58.501786
90.430127,58.547090
90.455203,58.549999
90.849998,58.549999
90.850000,58.549998
91.150000,58.549998
91.150001,58.549999
91.544790,58.549999
91.544791,58.549998
91.569874,58.547090
91.672477,58.501786
91.751786,58.422477
91.797090,58.319872
91.799999,58.294797
91.800000,58.294794
91.800000,57.025001
91.799999,57.025000
91.150001,57.025000
91.150000,57.025001
91.150000,58.549998
90.850000,58.549998
90.850000,57.025001
90.849999,57.025000
90.200001,57.025000
89.700500,57.025000
89.700500,56.724999
90.200000,56.724999
90.200001,56.725000
90.849999,56.725000
90.850000,56.724999
90.850000,55.200000
91.150000,55.200000
91.150000,56.724999
91.150001,56.725000
91.799998,56.725000
91.799999,56.724998
91.799999,55.455209
91.799998,55.455208
91.797090,55.430125
91.751786,55.327522
91.672477,55.248213
91.569872,55.202909
91.544797,55.200000
91.150000,55.200000
90.850000,55.200000
90.455210,55.200000
90.455207,55.200001
90.430125,55.202909
90.327522,55.248213
90.248213,55.327522
90.202909,55.430127
90.200000,55.455202
90.200000,56.724999
89.700500,56.724999
89.700500,55.480252
89.688867,55.421769
89.644552,55.355448
89.644548,55.355445
89.578233,55.311134
89.578231,55.311133
89.578228,55.311132
89.578227,55.311132
89.519758,55.299501
89.519748,55.299500
88.480252,55.299500
88.480251,55.299500
88.480241,55.299501
88.421772,55.311132
88.421766,55.311134
88.355451,55.355445
88.355445,55.355451
88.311134,55.421766
88.311132,55.421772
88.299501,55.480241
88.299500,55.480253
88.299500,56.450500
88.280593,56.508691
88.231093,56.544655
88.200500,56.549500
88.141374,56.549500
88.137073,56.549312
88.096193,56.545736
88.096187,56.545736
88.056564,56.556353
88.052349,56.557287
88.011960,56.564410
88.011948,56.564414
88.010640,56.565170
87.986786,56.575051
87.985324,56.575442
87.985316,56.575446
87.951716,56.598972
87.948080,56.601288
87.939875,56.606025
87.912545,56.621805
87.886181,56.653224
87.883263,56.656408
87.781413,56.758259
87.778229,56.761176
87.746807,56.787542
87.746806,56.787544
87.726292,56.823075
87.723972,56.826716
87.700446,56.860316
87.700442,56.860324
87.700051,56.861786
87.690170,56.885640
87.689414,56.886948
87.689410,56.886960
87.682287,56.927349
87.681353,56.931564
87.670736,56.971187
87.670736,56.971193
87.674312,57.012072
87.674500,57.016373
87.674500,61.201420
87.655593,61.259611
87.613389,61.292883
87.607160,61.295463
87.481723,61.391713
87.481713,61.391723
87.385462,61.517160
87.385462,61.517161
87.324957,61.663233
87.324955,61.663241
87.304318,61.819999
87.304318,61.820000
87.324955,61.976758
87.324957,61.976766
87.385462,62.122838
87.385462,62.122839
87.385464,62.122841
87.481718,62.248282
87.607159,62.344536
87.607160,62.344536
87.607161,62.344537
87.657384,62.365340
87.753238,62.405044
87.870809,62.420522
87.909999,62.425682
87.910000,62.425682
87.910001,62.425682
87.941352,62.421554
88.066762,62.405044
88.162616,62.365339
88.223611,62.360539
88.275780,62.392508
88.299195,62.449036
88.299500,62.456804
88.299500,63.075500
88.280593,63.133691
88.231093,63.169655
88.200500,63.174500
87.265514,63.174500
87.207323,63.155593
87.205247,63.154042
87.102838,63.075462
86.956766,63.014957
86.956758,63.014955
86.800001,62.994318
86.799999,62.994318
86.643241,63.014955
86.643233,63.014957
86.497161,63.075462
86.497160,63.075462
86.371723,63.171713
86.371713,63.171723
86.275462,63.297160
86.275462,63.297161
86.214957,63.443233
86.214955,63.443241
86.194318,63.599999
86.194318,63.600000
86.214955,63.756758
86.214957,63.756766
86.275462,63.902838
86.275462,63.902839
86.275464,63.902841
86.371718,64.028282
86.398280,64.048664
86.435767,64.077428
86.470423,64.127852
86.474500,64.155970
86.474500,64.624165
86.455593,64.682356
86.445504,64.694169
84.869170,66.270504
84.814653,66.298281
84.799166,66.299500
82.480252,66.299500
82.480251,66.299500
82.480241,66.299501
82.421772,66.311132
82.421766,66.311134
82.355451,66.355445
82.355445,66.355451
82.311134,66.421766
82.311132,66.421772
82.299501,66.480241
82.299500,66.480253
82.299500,67.519746
82.299501,67.519758
82.311132,67.578227
82.311133,67.578231
82.355448,67.644552
82.421769,67.688867
82.466231,67.697711
82.480241,67.700498
82.480246,67.700498
82.480252,67.700500
82.480253,67.700500
85.269747,67.700500
85.269748,67.700500
85.328231,67.688867
85.394552,67.644552
85.438867,67.578231
85.450500,67.519748
85.450500,66.650833
85.469407,66.592642
85.479490,66.580835
87.018583,65.041741
87.021760,65.038829
87.053194,65.012455
87.073714,64.976911
87.076012,64.973303
87.099554,64.939684
87.099941,64.938236
87.109838,64.914345
87.110588,64.913045
87.117709,64.872656
87.118640,64.868452
87.129264,64.828807
87.125687,64.787922
87.125500,64.783623
87.125500,64.155970
87.144407,64.097779
87.164233,64.077428
87.228282,64.028282
87.324536,63.902841
87.331257,63.886613
87.370996,63.840088
87.422722,63.825500
88.200500,63.825500
88.258691,63.844407
88.294655,63.893907
88.299500,63.924500
88.299500,64.519746
88.299501,64.519758
88.311132,64.578227
88.311134,64.578233
88.355445,64.644548
88.355448,64.644552
88.355451,64.644554
88.418922,64.686965
88.421769,64.688867
88.466231,64.697711
88.480241,64.700498
88.480246,64.700498
88.480252,64.700500
88.480253,64.700500
89.519747,64.700500
89.519748,64.700500
89.578231,64.688867
89.578231,64.688866
89.587793,64.686965
89.588428,64.690158
89.632970,64.686645
89.685146,64.718604
89.708571,64.775127
89.708031,64.795836
89.694318,64.899999
89.694318,64.900000
89.714955,65.056758
89.714957,65.056766
89.775462,65.202838
89.775462,65.202839
89.871713,65.328276
89.871718,65.328282
89.997159,65.424536
89.997160,65.424536
89.997161,65.424537
90.097974,65.466295
90.143238,65.485044
90.260809,65.500522
90.299999,65.505682
90.300000,65.505682
90.300001,65.505682
90.331352,65.501554
90.456762,65.485044
90.602841,65.424536
90.639733,65.396227
90.697408,65.375804
90.756074,65.393181
90.760257,65.396220
90.797159,65.424536
90.797160,65.424536
90.797161,65.424537
90.897974,65.466295
90.943238,65.485044
91.060809,65.500522
91.099999,65.505682
91.100000,65.505682
91.100001,65.505682
91.131352,65.501554
91.256762,65.485044
91.367615,65.439126
91.428611,65.434326
91.480780,65.466295
91.504195,65.522823
91.504500,65.530591
91.504500,65.994165
91.485593,66.052356
91.475504,66.064169
91.269169,66.270504
91.214652,66.298281
91.199165,66.299500
88.730252,66.299500
88.730251,66.299500
88.730241,66.299501
88.671772,66.311132
88.671766,66.311134
88.605451,66.355445
88.605445,66.355451
88.561134,66.421766
88.561132,66.421772
88.549501,66.480241
88.549500,66.480253
88.549500,67.519746
88.549501,67.519758
88.561132,67.578227
88.561133,67.578231
88.605448,67.644552
88.671769,67.688867
88.716231,67.697711
88.730241,67.700498
88.730246,67.700498
88.730252,67.700500
88.730253,67.700500
91.519747,67.700500
91.519748,67.700500
91.578231,67.688867
91.644552,67.644552
91.688867,67.578231
91.700500,67.519748
91.700499,66.800832
91.719407,66.742642
91.729490,66.730835
91.830498,66.629827
91.885013,66.602052
91.945445,66.611623
91.988710,66.654888
91.999500,66.699833
91.999500,70.997837
91.999311,71.002155
91.995520,71.045473
91.982882,71.173796
91.979986,71.189716
91.961809,71.257553
91.961364,71.259111
91.932804,71.353259
91.927791,71.366359
91.895462,71.435690
91.894255,71.438105
91.848883,71.522989
91.845773,71.528052
91.798740,71.595221
91.796455,71.598233
91.736512,71.671275
91.733247,71.674877
91.674877,71.733247
91.671275,71.736512
91.598233,71.796455
91.595221,71.798740
91.528052,71.845773
91.522989,71.848883
91.438105,71.894255
91.435690,71.895462
91.366359,71.927791
91.353259,71.932804
91.259111,71.961364
91.257553,71.961809
91.189716,71.979986
91.173796,71.982882
91.045473,71.995520
91.002156,71.999311
90.997838,71.999500
69.002162,71.999500
68.997844,71.999311
68.954525,71.995520
68.826202,71.982882
68.810284,71.979986
68.773391,71.970101
68.742445,71.961809
68.740887,71.961364
68.646739,71.932804
68.633639,71.927791
68.564308,71.895462
68.561893,71.894255
68.477009,71.848883
68.471946,71.845773
68.404777,71.798740
68.401765,71.796455
68.328723,71.736512
68.325121,71.733247
68.266751,71.674877
68.263486,71.671275
68.203543,71.598233
68.201258,71.595221
68.154225,71.528052
68.151115,71.522989
68.105733,71.438085
68.104536,71.435690
68.072207,71.366359
68.067194,71.353259
68.038612,71.259036
68.038209,71.257626
68.020008,71.189696
68.017119,71.173816
68.004476,71.045447
68.003868,71.038495
68.000687,71.002140
68.000500,70.997840
68.000500,70.000004
68.644341,70.000004
68.664935,70.235400
68.726098,70.463667
68.825959,70.677818
68.825963,70.677826
68.825964,70.677828
68.825965,70.677829
68.961505,70.871401
69.128599,71.038495
69.128602,71.038497
69.128603,71.038498
69.192906,71.083523
69.322171,71.174035
69.322172,71.174035
69.322173,71.174036
69.322181,71.174040
69.536333,71.273901
69.536337,71.273903
69.764592,71.335063
69.764596,71.335063
69.764599,71.335064
69.941026,71.350500
69.941034,71.350500
70.058974,71.350500
70.235400,71.335064
70.235401,71.335063
70.235408,71.335063
70.463663,71.273903
70.677829,71.174035
70.871401,71.038495
71.038495,70.871401
71.174035,70.677830
71.273903,70.463663
71.335063,70.235408
71.335064,70.235400
71.355659,70.000004
71.355659,69.999995
71.335064,69.764599
71.335063,69.764596
71.335063,69.764592
71.273903,69.536337
71.266172,69.519758
71.266166,69.519746
82.299500,69.519746
82.299501,69.519758
82.311132,69.578227
82.311133,69.578231
82.355448,69.644552
82.397240,69.672477
82.398960,69.673626
82.436839,69.721676
82.439241,69.782814
82.435423,69.793825
82.414955,69.843240
82.394318,69.999999
82.394318,70.000000
82.414955,70.156758
82.414957,70.156766
82.475462,70.302838
82.475462,70.302839
82.475464,70.302841
82.571718,70.428282
82.697159,70.524536
82.843238,70.585044
82.960809,70.600522
82.999999,70.605682
83.000000,70.605682
83.000001,70.605682
83.031352,70.601554
83.156762,70.585044
83.302841,70.524536
83.428282,70.428282
83.428288,70.428273
83.429996,70.426567
83.431547,70.425776
83.433430,70.424332
83.433697,70.424680
83.484513,70.398790
83.544945,70.408361
83.570004,70.426567
83.571713,70.428276
83.571718,70.428282
83.697159,70.524536
83.843238,70.585044
83.960809,70.600522
83.999999,70.605682
84.000000,70.605682
84.000001,70.605682
84.031352,70.601554
84.156762,70.585044
84.302841,70.524536
84.428282,70.428282
84.428288,70.428273
84.429996,70.426567
84.431547,70.425776
84.433430,70.424332
84.433697,70.424680
84.484513,70.398790
84.544945,70.408361
84.570004,70.426567
84.571713,70.428276
84.571718,70.428282
84.697159,70.524536
84.843238,70.585044
84.960809,70.600522
84.999999,70.605682
85.000000,70.605682
85.000001,70.605682
85.031352,70.601554
85.156762,70.585044
85.302841,70.524536
85.428282,70.428282
85.524536,70.302841
85.585044,70.156762
85.590509,70.115250
85.616848,70.060027
85.670618,70.030831
85.726547,70.036709
85.843238,70.085044
85.960809,70.100522
85.999999,70.105682
86.000000,70.105682
86.000001,70.105682
86.031352,70.101554
86.156762,70.085044
86.302841,70.024536
86.428282,69.928282
86.524536,69.802841
86.585044,69.656762
86.599785,69.544791
88.450001,69.544791
88.452909,69.569874
88.498213,69.672477
88.577522,69.751786
88.680127,69.797090
88.705203,69.799999
89.974998,69.799999
89.975000,69.799998
89.975000,69.150001
89.974999,69.150000
90.275000,69.150000
90.275000,69.799998
90.275001,69.799999
91.544790,69.799999
91.544791,69.799998
91.569874,69.797090
91.672477,69.751786
91.751786,69.672477
91.797090,69.569872
91.799999,69.544797
91.800000,69.544794
91.800000,69.150001
91.799999,69.150000
90.275000,69.150000
89.974999,69.150000
88.450002,69.150000
88.450001,69.150001
88.450001,69.544791
86.599785,69.544791
86.605682,69.500000
86.585044,69.343238
86.524537,69.197161
86.524537,69.197160
86.428286,69.071723
86.428285,69.071722
86.428282,69.071718
86.428277,69.071714
86.428276,69.071713
86.302838,68.975462
86.156766,68.914957
86.156758,68.914955
86.000001,68.894318
85.999998,68.894318
85.919957,68.904855
85.859797,68.893705
85.837032,68.876706
85.810325,68.849999
88.450000,68.849999
88.450001,68.850000
89.974999,68.850000
89.975000,68.849998
89.975000,68.200001
89.974999,68.200000
90.275000,68.200000
90.275000,68.849999
90.275001,68.850000
91.799998,68.850000
91.799999,68.849999
91.799999,68.455210
91.799998,68.455208
91.797090,68.430125
91.751786,68.327522
91.672477,68.248213
91.569872,68.202909
91.544797,68.200000
90.275000,68.200000
89.974999,68.200000
88.705210,68.200000
88.705208,68.200001
88.680125,68.202909
88.577522,68.248213
88.498213,68.327522
88.452909,68.430127
88.450000,68.455202
88.450000,68.849999
85.810325,68.849999
85.741741,68.781414
85.738822,68.778229
85.712456,68.746806
85.689818,68.733736
85.676918,68.726288
85.673288,68.723975
85.639684,68.700446
85.639679,68.700443
85.638224,68.700054
85.614348,68.690164
85.613045,68.689411
85.572652,68.682289
85.568439,68.681355
85.528807,68.670736
85.523877,68.669415
85.472563,68.636091
85.450636,68.578969
85.450500,68.573788
85.450500,68.480253
85.450498,68.480241
85.445517,68.455202
85.438867,68.421769
85.394552,68.355448
85.394548,68.355445
85.328233,68.311134
85.328231,68.311133
85.328228,68.311132
85.328227,68.311132
85.269758,68.299501
85.269748,68.299500
82.480252,68.299500
82.480251,68.299500
82.480241,68.299501
82.421772,68.311132
82.421766,68.311134
82.355451,68.355445
82.355445,68.355451
82.311134,68.421766
82.311132,68.421772
82.299501,68.480241
82.299500,68.480253
82.299500,69.519746
71.266166,69.519746
71.174040,69.322181
71.174036,69.322173
71.038498,69.128603
71.038497,69.128602
71.038495,69.128599
70.871401,68.961505
70.871397,68.961502
70.871396,68.961501
70.677826,68.825963
70.677818,68.825959
70.463666,68.726098
70.463667,68.726098
70.353883,68.696682
70.235408,68.664937
70.235407,68.664936
70.235400,68.664935
70.058974,68.649500
70.058966,68.649500
69.941034,68.649500
69.941026,68.649500
69.764599,68.664935
69.536332,68.726098
69.322181,68.825959
69.322173,68.825963
69.128603,68.961501
68.961501,69.128603
68.825964,69.322171
68.726097,69.536337
68.664935,69.764599
68.644341,69.999995
68.644341,70.000004
68.000500,70.000004
68.000500,60.000000
73.894548,60.000000
73.914346,60.491285
73.914346,60.491291
73.914347,60.491297
73.914347,60.491306
73.973609,60.979365
73.973613,60.979392
74.071962,61.461136
74.071962,61.461137
74.208750,61.933386
74.208753,61.933395
74.280601,62.122841
74.383110,62.393133
74.512937,62.666737
74.592578,62.834579
74.593891,62.837345
74.839733,63.263155
74.909559,63.364317
75.119038,63.667800
75.429999,64.048659
75.769598,64.402219
75.770605,64.403267
76.090473,64.686645
76.138635,64.729313
76.138640,64.729317
76.531707,65.024688
76.715923,65.141179
76.947274,65.287477
76.947281,65.287480
76.947280,65.287480
76.947293,65.287488
77.334618,65.490770
77.382638,65.515973
77.834977,65.708697
78.065494,65.785654
78.301341,65.864392
78.301351,65.864395
78.301357,65.864397
78.778753,65.982065
79.264069,66.060936
79.754158,66.100500
79.754163,66.100500
80.245837,66.100500
80.245842,66.100500
80.735931,66.060936
81.221247,65.982065
81.698643,65.864397
82.165023,65.708697
82.617362,65.515973
82.863115,65.386991
83.052706,65.287488
83.052711,65.287484
83.052726,65.287477
83.468292,65.024688
83.861365,64.729313
84.229395,64.403267
84.569996,64.048664
84.880959,63.667803
85.160267,63.263155
85.406109,62.837345
85.616890,62.393133
85.791244,61.933401
85.791246,61.933395
85.791249,61.933386
85.928037,61.461137
85.928037,61.461136
85.928039,61.461130
86.026388,60.979383
86.059420,60.707341
86.085652,60.491306
86.085652,60.491301
86.085654,60.491285
86.105452,60.000000
86.085654,59.508715
86.085652,59.508698
86.085652,59.508693
86.026390,59.020634
86.026388,59.020617
85.928039,58.538870
85.928037,58.538862
85.791249,58.066613
85.791246,58.066604
85.773157,58.018910
85.616890,57.606867
85.406109,57.162655
85.160267,56.736845
84.962618,56.450500
84.880961,56.332199
84.570000,55.951340
84.229398,55.596736
84.097902,55.480241
83.953372,55.352198
83.861364,55.270686
83.861359,55.270682
83.468292,54.975311
83.176978,54.791095
83.052726,54.712523
83.052722,54.712520
83.052719,54.712519
83.052706,54.712511
82.617376,54.484034
82.617372,54.484032
82.617369,54.484030
82.617362,54.484027
82.165023,54.291303
82.165024,54.291303
82.165021,54.291302
81.698658,54.135607
81.698638,54.135601
81.337278,54.046534
81.221247,54.017935
80.735931,53.939064
80.735925,53.939063
80.461028,53.916871
80.245842,53.899500
79.754158,53.899500
79.556342,53.915469
79.264074,53.939063
78.778753,54.017935
78.301361,54.135601
78.301341,54.135607
77.834978,54.291302
77.542369,54.415971
77.382638,54.484027
77.382634,54.484028
77.382627,54.484032
77.382623,54.484034
76.947293,54.712511
76.947280,54.712519
76.531707,54.975311
76.138640,55.270682
76.138635,55.270686
75.770601,55.596736
75.429999,55.951340
75.119038,56.332199
74.839734,56.736843
74.593885,57.162666
74.383108,57.606872
74.208753,58.066604
74.208750,58.066613
74.071962,58.538862
74.071962,58.538863
73.973613,59.020607
73.973609,59.020634
73.914347,59.508693
73.914347,59.508702
73.914346,59.508709
73.914346,59.508715
73.894548,60.000000
68.000500,60.000000
68.000500,50.000004
68.644341,50.000004
68.664935,50.235400
68.726098,50.463667
68.825959,50.677818
68.825963,50.677826
68.825964,50.677828
68.825965,50.677829
68.961505,50.871401
69.128599,51.038495
69.322171,51.174035
69.322172,51.174035
69.322173,51.174036
69.322181,51.174040
69.536333,51.273901
69.536337,51.273903
69.764592,51.335063
69.764596,51.335063
69.764599,51.335064
69.941026,51.350500
69.941034,51.350500
70.058974,51.350500
70.235400,51.335064
70.235401,51.335063
70.235408,51.335063
70.463663,51.273903
70.677829,51.174035
70.871401,51.038495
71.038495,50.871401
71.174035,50.677830
71.273903,50.463663
71.335063,50.235408
71.355659,50.000004
88.644341,50.000004
88.664935,50.235400
88.726098,50.463667
88.825959,50.677818
88.825963,50.677826
88.825964,50.677828
88.825965,50.677829
88.961505,50.871401
89.128599,51.038495
89.322171,51.174035
89.322172,51.174035
89.322173,51.174036
89.322181,51.174040
89.536333,51.273901
89.536337,51.273903
89.764592,51.335063
89.764596,51.335063
89.764599,51.335064
89.941026,51.350500
89.941034,51.350500
90.058974,51.350500
90.235400,51.335064
90.235401,51.335063
90.235408,51.335063
90.463663,51.273903
90.677829,51.174035
90.871401,51.038495
91.038495,50.871401
91.174035,50.677830
91.273903,50.463663
91.335063,50.235408
91.355659,50.000000
91.335063,49.764592
91.273903,49.536337
91.174035,49.322171
91.038495,49.128599
90.871401,48.961505
90.871397,48.961502
90.871396,48.961501
90.678167,48.826202
90.677829,48.825965
90.677828,48.825964
90.677826,48.825963
90.677818,48.825959
90.463666,48.726098
90.463667,48.726098
90.387578,48.705710
90.235408,48.664937
90.235407,48.664936
90.235400,48.664935
90.058974,48.649500
90.058966,48.649500
89.941034,48.649500
89.941026,48.649500
89.764599,48.664935
89.536332,48.726098
89.322181,48.825959
89.322173,48.825963
89.128603,48.961501
88.961501,49.128603
88.825964,49.322171
88.726097,49.536337
88.664935,49.764599
88.644341,49.999995
88.644341,50.000004
71.355659,50.000004
71.355659,50.000000
71.335063,49.764592
71.273903,49.536337
71.174035,49.322171
71.038495,49.128599
70.871401,48.961505
70.871397,48.961502
70.871396,48.961501
70.678167,48.826202
70.677829,48.825965
70.677828,48.825964
70.677826,48.825963
70.677818,48.825959
70.463666,48.726098
70.463667,48.726098
70.387578,48.705710
70.235408,48.664937
70.235407,48.664936
70.235400,48.664935
70.058974,48.649500
70.058966,48.649500
69.941034,48.649500
69.941026,48.649500
69.764599,48.664935
69.536332,48.726098
69.322181,48.825959
69.322173,48.825963
69.128603,48.961501
68.961501,49.128603
68.825964,49.322171
68.726097,49.536337
68.664935,49.764599
68.644341,49.999995
68.644341,50.000004
68.000500,50.000004
68.000500,49.002158
68.000687,48.997860
68.004483,48.954465
68.017120,48.826179
68.020007,48.810307
68.038218,48.742342
68.038603,48.740995
68.067199,48.646725
68.072207,48.633639
68.099292,48.575555
68.104551,48.564276
68.105718,48.561943
68.151123,48.476994
68.154212,48.471965
68.201271,48.404759
68.203528,48.401784
68.263508,48.328698
68.266741,48.325131
68.325131,48.266741
68.328698,48.263508
68.401784,48.203528
68.404759,48.201271
68.471965,48.154212
68.476994,48.151123
68.561943,48.105718
68.564276,48.104551
68.633641,48.072205
68.646725,48.067199
68.740995,48.038603
68.742342,48.038218
68.810307,48.020007
68.826179,48.017120
68.954484,48.004482
68.997859,48.000687
69.002159,48.000500
90.997840,48.000500
Z" /> 
</g>
</g>
</g> 
</svg>
