<?xml version="1.0" standalone="no"?>
 <!DOCTYPE svg PUBLIC "-//W3C//DTD SVG 1.1//EN" 
 "http://www.w3.org/Graphics/SVG/1.1/DTD/svg11.dtd"> 
<svg
  xmlns:svg="http://www.w3.org/2000/svg"
  xmlns="http://www.w3.org/2000/svg"
  xmlns:xlink="http://www.w3.org/1999/xlink"
  version="1.1"
  width="2.91cm" height="2.6100000000000003cm" viewBox="66.95 46.95 29.1 26.1">
<title>SVG Image created as pedalboard-led-ring-B_Cu.svg date 2023/06/03 17:37:59 </title>
  <desc>Image generated by PCBNEW </desc>
<g style="fill:#000000; fill-opacity:1.000000;stroke:#000000; stroke-opacity:1.000000;
stroke-linecap:round; stroke-linejoin:round;"
 transform="translate(0 0) scale(1 1)">
</g>
<g style="fill:#000000; fill-opacity:0.0; 
stroke:#000000; stroke-width:0.000000; stroke-opacity:1; 
stroke-linecap:round; stroke-linejoin:round;">
<g >
</g>
<g >
</g>
<g >
</g>
<g >
</g>
<g >
</g>
<g >
</g>
<g >
</g>
<g >
</g>
<g >
</g>
<g >
</g>
<g >
</g>
<g >
</g>
<g >
</g>
<g >
</g>
<g >
</g>
<g >
</g>
<g >
</g>
<g >
</g>
<g >
</g>
<g >
</g>
<g >
</g>
<g >
</g>
<g >
</g>
<g >
</g>
<g >
</g>
<g >
</g>
<g >
</g>
<g >
</g>
<g >
</g>
<g >
</g>
<g style="fill:#000000; fill-opacity:0.0; 
stroke:#000000; stroke-width:0.000000; stroke-opacity:1; 
stroke-linecap:round; stroke-linejoin:round;">
</g>
<g style="fill:#000000; fill-opacity:0.0; 
stroke:#000000; stroke-width:0.000000; stroke-opacity:1; 
stroke-linecap:round; stroke-linejoin:round;">
</g>
<g style="fill:#000000; fill-opacity:1.000000; 
stroke:#000000; stroke-width:0.000000; stroke-opacity:1; 
stroke-linecap:round; stroke-linejoin:round;">
<path style="fill:#000000; fill-opacity:1.000000; 
stroke:#000000; stroke-width:0.000000; stroke-opacity:1; 
stroke-linecap:round; stroke-linejoin:round;fill-rule:evenodd;"
d="M 91.500000,58.250000
90.500000,58.250000
90.500000,55.500000
91.500000,55.500000
Z" /> 
<path style="fill:#000000; fill-opacity:1.000000; 
stroke:#000000; stroke-width:0.000000; stroke-opacity:1; 
stroke-linecap:round; stroke-linejoin:round;fill-rule:evenodd;"
d="M 91.500000,64.500000
90.500000,64.500000
90.500000,61.750000
91.500000,61.750000
Z" /> 
<path style="fill:#000000; fill-opacity:1.000000; 
stroke:#000000; stroke-width:0.000000; stroke-opacity:1; 
stroke-linecap:round; stroke-linejoin:round;fill-rule:evenodd;"
d="M 89.500000,58.250000
88.500000,58.250000
88.500000,55.500000
89.500000,55.500000
Z" /> 
<path style="fill:#000000; fill-opacity:1.000000; 
stroke:#000000; stroke-width:0.000000; stroke-opacity:1; 
stroke-linecap:round; stroke-linejoin:round;fill-rule:evenodd;"
d="M 89.500000,64.500000
88.500000,64.500000
88.500000,61.750000
89.500000,61.750000
Z" /> 
</g>
<g >
</g>
<g style="fill:#000000; fill-opacity:1.000000; 
stroke:#000000; stroke-width:0.000000; stroke-opacity:1; 
stroke-linecap:round; stroke-linejoin:round;">
<path style="fill:#000000; fill-opacity:1.000000; 
stroke:#000000; stroke-width:0.000000; stroke-opacity:1; 
stroke-linecap:round; stroke-linejoin:round;fill-rule:evenodd;"
d="M 91.750000,71.500000
91.750000,70.500000
94.500000,70.500000
94.500000,71.500000
Z" /> 
<path style="fill:#000000; fill-opacity:1.000000; 
stroke:#000000; stroke-width:0.000000; stroke-opacity:1; 
stroke-linecap:round; stroke-linejoin:round;fill-rule:evenodd;"
d="M 85.500000,71.500000
85.500000,70.500000
88.250000,70.500000
88.250000,71.500000
Z" /> 
<path style="fill:#000000; fill-opacity:1.000000; 
stroke:#000000; stroke-width:0.000000; stroke-opacity:1; 
stroke-linecap:round; stroke-linejoin:round;fill-rule:evenodd;"
d="M 91.750000,69.500000
91.750000,68.500000
94.500000,68.500000
94.500000,69.500000
Z" /> 
<path style="fill:#000000; fill-opacity:1.000000; 
stroke:#000000; stroke-width:0.000000; stroke-opacity:1; 
stroke-linecap:round; stroke-linejoin:round;fill-rule:evenodd;"
d="M 85.500000,69.500000
85.500000,68.500000
88.250000,68.500000
88.250000,69.500000
Z" /> 
</g>
<g >
</g>
<g style="fill:#000000; fill-opacity:1.000000; 
stroke:#000000; stroke-width:0.000000; stroke-opacity:1; 
stroke-linecap:round; stroke-linejoin:round;">
<circle cx="86.800000" cy="63.600000" r="0.400000" /> 
</g>
<g style="fill:#000000; fill-opacity:1.000000; 
stroke:#000000; stroke-width:0.021200; stroke-opacity:1; 
stroke-linecap:round; stroke-linejoin:round;">
</g>
<g style="fill:#000000; fill-opacity:1.000000; 
stroke:#000000; stroke-width:0.000000; stroke-opacity:1; 
stroke-linecap:round; stroke-linejoin:round;">
<circle cx="74.000000" cy="52.000000" r="0.400000" /> 
</g>
<g style="fill:#000000; fill-opacity:1.000000; 
stroke:#000000; stroke-width:0.021200; stroke-opacity:1; 
stroke-linecap:round; stroke-linejoin:round;">
</g>
<g style="fill:#000000; fill-opacity:1.000000; 
stroke:#000000; stroke-width:0.000000; stroke-opacity:1; 
stroke-linecap:round; stroke-linejoin:round;">
<circle cx="89.928203" cy="58.803848" r="0.400000" /> 
</g>
<g style="fill:#000000; fill-opacity:1.000000; 
stroke:#000000; stroke-width:0.021200; stroke-opacity:1; 
stroke-linecap:round; stroke-linejoin:round;">
</g>
<g style="fill:#000000; fill-opacity:1.000000; 
stroke:#000000; stroke-width:0.000000; stroke-opacity:1; 
stroke-linecap:round; stroke-linejoin:round;">
<circle cx="70.071797" cy="61.196152" r="0.400000" /> 
</g>
<g style="fill:#000000; fill-opacity:1.000000; 
stroke:#000000; stroke-width:0.021200; stroke-opacity:1; 
stroke-linecap:round; stroke-linejoin:round;">
</g>
<g style="fill:#000000; fill-opacity:1.000000; 
stroke:#000000; stroke-width:0.000000; stroke-opacity:1; 
stroke-linecap:round; stroke-linejoin:round;">
<circle cx="76.071797" cy="69.196152" r="0.400000" /> 
</g>
<g style="fill:#000000; fill-opacity:1.000000; 
stroke:#000000; stroke-width:0.021200; stroke-opacity:1; 
stroke-linecap:round; stroke-linejoin:round;">
</g>
<g style="fill:#000000; fill-opacity:1.000000; 
stroke:#000000; stroke-width:0.000000; stroke-opacity:1; 
stroke-linecap:round; stroke-linejoin:round;">
<circle cx="81.196152" cy="69.928203" r="0.400000" /> 
</g>
<g style="fill:#000000; fill-opacity:1.000000; 
stroke:#000000; stroke-width:0.021200; stroke-opacity:1; 
stroke-linecap:round; stroke-linejoin:round;">
</g>
<g style="fill:#000000; fill-opacity:1.000000; 
stroke:#000000; stroke-width:0.000000; stroke-opacity:1; 
stroke-linecap:round; stroke-linejoin:round;">
<circle cx="83.928203" cy="50.803848" r="0.400000" /> 
</g>
<g style="fill:#000000; fill-opacity:1.000000; 
stroke:#000000; stroke-width:0.021200; stroke-opacity:1; 
stroke-linecap:round; stroke-linejoin:round;">
</g>
<g style="fill:#000000; fill-opacity:1.000000; 
stroke:#000000; stroke-width:0.000000; stroke-opacity:1; 
stroke-linecap:round; stroke-linejoin:round;">
<circle cx="72.000000" cy="66.000000" r="0.400000" /> 
</g>
<g style="fill:#000000; fill-opacity:1.000000; 
stroke:#000000; stroke-width:0.021200; stroke-opacity:1; 
stroke-linecap:round; stroke-linejoin:round;">
</g>
<g style="fill:#000000; fill-opacity:1.000000; 
stroke:#000000; stroke-width:0.000000; stroke-opacity:1; 
stroke-linecap:round; stroke-linejoin:round;">
<circle cx="86.400000" cy="67.700000" r="0.400000" /> 
</g>
<g style="fill:#000000; fill-opacity:1.000000; 
stroke:#000000; stroke-width:0.021200; stroke-opacity:1; 
stroke-linecap:round; stroke-linejoin:round;">
</g>
<g style="fill:#000000; fill-opacity:1.000000; 
stroke:#000000; stroke-width:0.000000; stroke-opacity:1; 
stroke-linecap:round; stroke-linejoin:round;">
<circle cx="70.803848" cy="56.071797" r="0.400000" /> 
</g>
<g style="fill:#000000; fill-opacity:1.000000; 
stroke:#000000; stroke-width:0.021200; stroke-opacity:1; 
stroke-linecap:round; stroke-linejoin:round;">
</g>
<g style="fill:#000000; fill-opacity:1.000000; 
stroke:#000000; stroke-width:0.000000; stroke-opacity:1; 
stroke-linecap:round; stroke-linejoin:round;">
<circle cx="88.000000" cy="54.000000" r="0.400000" /> 
</g>
<g style="fill:#000000; fill-opacity:1.000000; 
stroke:#000000; stroke-width:0.021200; stroke-opacity:1; 
stroke-linecap:round; stroke-linejoin:round;">
</g>
<g style="fill:#000000; fill-opacity:1.000000; 
stroke:#000000; stroke-width:0.000000; stroke-opacity:1; 
stroke-linecap:round; stroke-linejoin:round;">
<circle cx="88.500000" cy="66.000000" r="0.400000" /> 
</g>
<g style="fill:#000000; fill-opacity:1.000000; 
stroke:#000000; stroke-width:0.021200; stroke-opacity:1; 
stroke-linecap:round; stroke-linejoin:round;">
</g>
<g style="fill:#000000; fill-opacity:1.000000; 
stroke:#000000; stroke-width:0.000000; stroke-opacity:1; 
stroke-linecap:round; stroke-linejoin:round;">
<circle cx="78.803848" cy="50.071797" r="0.400000" /> 
</g>
<g style="fill:#000000; fill-opacity:1.000000; 
stroke:#000000; stroke-width:0.021200; stroke-opacity:1; 
stroke-linecap:round; stroke-linejoin:round;">
</g>
<g style="fill:#000000; fill-opacity:1.000000; 
stroke:#000000; stroke-width:0.000000; stroke-opacity:1; 
stroke-linecap:round; stroke-linejoin:round;">
<circle cx="90.600000" cy="61.400000" r="0.400000" /> 
</g>
<g style="fill:#000000; fill-opacity:1.000000; 
stroke:#000000; stroke-width:0.021200; stroke-opacity:1; 
stroke-linecap:round; stroke-linejoin:round;">
</g>
<g style="fill:#000000; fill-opacity:1.000000; 
stroke:#000000; stroke-width:0.000000; stroke-opacity:1; 
stroke-linecap:round; stroke-linejoin:round;">
<circle cx="85.100000" cy="70.600000" r="0.400000" /> 
</g>
<g style="fill:#000000; fill-opacity:1.000000; 
stroke:#000000; stroke-width:0.021200; stroke-opacity:1; 
stroke-linecap:round; stroke-linejoin:round;">
</g>
<g style="fill:#000000; fill-opacity:1.000000; 
stroke:#000000; stroke-width:0.000000; stroke-opacity:1; 
stroke-linecap:round; stroke-linejoin:round;">
<circle cx="91.400000" cy="61.400000" r="0.400000" /> 
</g>
<g style="fill:#000000; fill-opacity:1.000000; 
stroke:#000000; stroke-width:0.021200; stroke-opacity:1; 
stroke-linecap:round; stroke-linejoin:round;">
</g>
<g style="fill:#000000; fill-opacity:1.000000; 
stroke:#000000; stroke-width:0.000000; stroke-opacity:1; 
stroke-linecap:round; stroke-linejoin:round;">
<circle cx="91.400000" cy="64.900000" r="0.400000" /> 
</g>
<g style="fill:#000000; fill-opacity:1.000000; 
stroke:#000000; stroke-width:0.021200; stroke-opacity:1; 
stroke-linecap:round; stroke-linejoin:round;">
</g>
<g style="fill:#000000; fill-opacity:1.000000; 
stroke:#000000; stroke-width:0.000000; stroke-opacity:1; 
stroke-linecap:round; stroke-linejoin:round;">
<circle cx="90.700000" cy="64.900000" r="0.400000" /> 
</g>
<g style="fill:#000000; fill-opacity:1.000000; 
stroke:#000000; stroke-width:0.021200; stroke-opacity:1; 
stroke-linecap:round; stroke-linejoin:round;">
</g>
<g style="fill:#000000; fill-opacity:1.000000; 
stroke:#000000; stroke-width:0.000000; stroke-opacity:1; 
stroke-linecap:round; stroke-linejoin:round;">
<circle cx="88.600000" cy="70.600000" r="0.400000" /> 
</g>
<g style="fill:#000000; fill-opacity:1.000000; 
stroke:#000000; stroke-width:0.021200; stroke-opacity:1; 
stroke-linecap:round; stroke-linejoin:round;">
</g>
<g style="fill:#000000; fill-opacity:1.000000; 
stroke:#000000; stroke-width:0.000000; stroke-opacity:1; 
stroke-linecap:round; stroke-linejoin:round;">
<circle cx="88.600000" cy="71.400000" r="0.400000" /> 
</g>
<g style="fill:#000000; fill-opacity:1.000000; 
stroke:#000000; stroke-width:0.021200; stroke-opacity:1; 
stroke-linecap:round; stroke-linejoin:round;">
</g>
<g style="fill:#000000; fill-opacity:1.000000; 
stroke:#000000; stroke-width:0.000000; stroke-opacity:1; 
stroke-linecap:round; stroke-linejoin:round;">
<circle cx="85.100000" cy="71.400000" r="0.400000" /> 
</g>
<g style="fill:#000000; fill-opacity:1.000000; 
stroke:#000000; stroke-width:0.021200; stroke-opacity:1; 
stroke-linecap:round; stroke-linejoin:round;">
</g>
<g style="fill:#000000; fill-opacity:1.000000; 
stroke:#000000; stroke-width:0.000000; stroke-opacity:1; 
stroke-linecap:round; stroke-linejoin:round;">
<circle cx="87.910000" cy="61.820000" r="0.400000" /> 
</g>
<g style="fill:#000000; fill-opacity:1.000000; 
stroke:#000000; stroke-width:0.021200; stroke-opacity:1; 
stroke-linecap:round; stroke-linejoin:round;">
</g>
<g >
</g>
<g style="fill:#000000; fill-opacity:1.000000; 
stroke:#000000; stroke-width:0.021200; stroke-opacity:1; 
stroke-linecap:round; stroke-linejoin:round;">
</g>
<g style="fill:#000000; fill-opacity:1.000000; 
stroke:#000000; stroke-width:0.250000; stroke-opacity:1; 
stroke-linecap:round; stroke-linejoin:round;">
</g>
<g style="fill:#000000; fill-opacity:0.0; 
stroke:#000000; stroke-width:0.250000; stroke-opacity:1; 
stroke-linecap:round; stroke-linejoin:round;">
<path d="M84.800000 67.100000
L86.800000 65.100000
" />
<path d="M89.000000 63.125000
L88.125000 64.000000
" />
<path d="M85.400000 69.000000
L84.800000 68.400000
" />
<path d="M86.875000 69.000000
L85.400000 69.000000
" />
<path d="M84.800000 68.400000
L84.800000 67.100000
" />
<path d="M87.200000 64.000000
L86.800000 63.600000
" />
<path d="M88.125000 64.000000
L87.200000 64.000000
" />
<path d="M86.800000 65.100000
L86.800000 63.600000
" />
<path d="M91.400000 61.400000
L91.400000 64.900000
" />
<path d="M85.100000 70.600000
L85.100000 71.400000
" />
<path d="M88.600000 70.600000
L88.600000 71.400000
" />
<path d="M90.700000 61.500000
L90.700000 64.900000
" />
<path d="M90.600000 61.400000
L91.400000 61.400000
" />
<path d="M90.600000 61.400000
L90.700000 61.500000
" />
<path d="M85.100000 71.400000
L88.600000 71.400000
" />
<path d="M90.700000 64.900000
L91.400000 64.900000
" />
<path d="M85.100000 70.600000
L88.600000 70.600000
" />
<path d="M88.000000 57.000000
L88.000000 61.730000
" />
<path d="M88.000000 61.730000
L87.910000 61.820000
" />
<path d="M92.800000 60.500000
L92.800000 68.675000
" />
<path d="M89.000000 56.875000
L88.125000 56.875000
" />
<path d="M88.125000 56.875000
L88.000000 57.000000
" />
<path d="M87.910000 61.820000
L89.230000 60.500000
" />
<path d="M89.230000 60.500000
L92.800000 60.500000
" />
</g>
<g >
</g>
<g style="fill:#000000; fill-opacity:0.0; 
stroke:#000000; stroke-width:0.250000; stroke-opacity:1; 
stroke-linecap:round; stroke-linejoin:round;">
<g >
</g>
<g style="fill:#000000; fill-opacity:1.000000; 
stroke:#000000; stroke-width:0.000000; stroke-opacity:1; 
stroke-linecap:round; stroke-linejoin:round;">
<path style="fill:#000000; fill-opacity:1.000000; 
stroke:#000000; stroke-width:0.000000; stroke-opacity:1; 
stroke-linecap:round; stroke-linejoin:round;fill-rule:evenodd;"
d="M 94.002697,48.000736
94.045491,48.004480
94.171776,48.016918
94.191685,48.020541
94.257426,48.038156
94.259208,48.038664
94.351570,48.066682
94.367959,48.072952
94.435396,48.104399
94.438375,48.105888
94.475969,48.125982
94.522327,48.150762
94.528667,48.154657
94.594828,48.200983
94.598600,48.203844
94.670808,48.263103
94.675309,48.267182
94.732815,48.324688
94.736895,48.329190
94.796154,48.401398
94.799015,48.405170
94.845341,48.471331
94.849236,48.477671
94.894101,48.561605
94.895613,48.564630
94.927041,48.632027
94.933319,48.648436
94.961303,48.740684
94.961860,48.742636
94.979454,48.808298
94.983082,48.828238
94.995522,48.954552
94.999264,48.997300
94.999500,49.002709
94.999500,70.001622
94.979815,70.068661
94.927011,70.114416
94.857853,70.124360
94.801189,70.100889
94.742089,70.056647
94.742086,70.056645
94.607379,70.006403
94.607372,70.006401
94.547844,70.000000
93.375000,70.000000
93.375000,71.126000
93.355315,71.193039
93.302511,71.238794
93.251000,71.250000
91.250000,71.250000
91.250000,71.547844
91.256401,71.607372
91.256403,71.607379
91.306645,71.742086
91.306647,71.742089
91.350889,71.801188
91.375307,71.866652
91.360456,71.934926
91.311051,71.984331
91.251623,71.999500
89.212875,71.999500
89.145836,71.979815
89.100081,71.927011
89.090137,71.857853
89.110825,71.805060
89.131228,71.775500
89.180220,71.704523
89.236237,71.556818
89.255278,71.400000
89.239968,71.273905
89.236237,71.243181
89.180220,71.095478
89.180220,71.095477
89.162937,71.070438
89.141055,71.004086
89.158520,70.936435
89.162925,70.929577
89.180220,70.904523
89.236237,70.756818
89.237065,70.750000
91.250000,70.750000
92.875000,70.750000
92.875000,70.000000
91.702155,70.000000
91.642627,70.006401
91.642620,70.006403
91.507913,70.056645
91.507906,70.056649
91.392812,70.142809
91.392809,70.142812
91.306649,70.257906
91.306645,70.257913
91.256403,70.392620
91.256401,70.392627
91.250000,70.452155
91.250000,70.750000
89.237065,70.750000
89.255278,70.600000
89.236237,70.443182
89.180220,70.295477
89.090483,70.165470
88.972240,70.060717
88.972238,70.060716
88.972237,70.060715
88.832365,69.987303
88.678986,69.949500
88.678985,69.949500
88.521015,69.949500
88.521014,69.949500
88.367634,69.987303
88.227762,70.060715
88.109516,70.165470
88.107089,70.168987
88.105742,70.170938
88.051463,70.214929
88.003692,70.224500
85.696308,70.224500
85.629269,70.204815
85.594257,70.170938
85.590483,70.165470
85.472240,70.060717
85.472238,70.060716
85.472237,70.060715
85.332365,69.987303
85.178986,69.949500
85.178985,69.949500
85.021015,69.949500
85.021014,69.949500
84.867634,69.987303
84.727762,70.060715
84.609516,70.165471
84.519781,70.295475
84.519780,70.295476
84.463762,70.443181
84.444722,70.599999
84.444722,70.600000
84.463762,70.756818
84.519780,70.904523
84.519782,70.904527
84.537062,70.929562
84.558944,70.995916
84.541478,71.063568
84.537062,71.070438
84.519782,71.095472
84.519780,71.095476
84.463762,71.243181
84.444722,71.399999
84.444722,71.400000
84.463762,71.556818
84.519780,71.704523
84.519781,71.704524
84.589175,71.805060
84.611058,71.871415
84.593592,71.939067
84.542324,71.986536
84.487125,71.999500
69.002709,71.999500
68.997305,71.999264
68.992337,71.998829
68.954552,71.995522
68.828238,71.983082
68.808298,71.979454
68.742636,71.961860
68.740711,71.961310
68.703113,71.949905
68.648436,71.933319
68.632027,71.927041
68.564630,71.895613
68.561605,71.894101
68.477671,71.849236
68.471331,71.845341
68.405170,71.799015
68.401398,71.796154
68.329190,71.736895
68.324688,71.732815
68.267182,71.675309
68.263103,71.670808
68.203844,71.598600
68.200983,71.594828
68.154657,71.528667
68.150762,71.522327
68.125982,71.475969
68.105888,71.438375
68.104399,71.435396
68.072952,71.367959
68.066682,71.351570
68.038664,71.259208
68.038156,71.257426
68.020541,71.191685
68.016918,71.171776
68.004480,71.045491
68.001109,71.006963
68.000736,71.002696
68.000500,70.997291
68.000500,70.000000
68.644341,70.000000
68.664936,70.235403
68.664938,70.235413
68.726094,70.463655
68.726096,70.463659
68.726097,70.463663
68.776030,70.570746
68.825964,70.677828
68.825965,70.677830
68.961505,70.871402
69.128597,71.038494
69.322169,71.174034
69.322171,71.174035
69.536337,71.273903
69.764592,71.335063
69.941032,71.350499
69.941033,71.350500
69.941034,71.350500
70.058967,71.350500
70.058967,71.350499
70.235408,71.335063
70.463663,71.273903
70.677829,71.174035
70.871401,71.038495
71.038495,70.871401
71.174035,70.677830
71.273903,70.463663
71.335063,70.235408
71.355659,70.000000
71.335063,69.764592
71.273903,69.536337
71.174035,69.322171
71.174034,69.322169
71.038494,69.128597
70.871402,68.961505
70.677830,68.825965
70.677828,68.825964
70.570746,68.776030
70.463663,68.726097
70.463659,68.726096
70.463655,68.726094
70.235413,68.664938
70.235403,68.664936
70.058967,68.649500
70.058966,68.649500
69.941034,68.649500
69.941033,68.649500
69.764596,68.664936
69.764586,68.664938
69.536344,68.726094
69.536335,68.726098
69.322171,68.825964
69.322169,68.825965
69.128597,68.961505
68.961506,69.128597
68.961501,69.128604
68.825967,69.322165
68.825965,69.322169
68.726098,69.536335
68.726094,69.536344
68.664938,69.764586
68.664936,69.764596
68.644341,69.999999
68.644341,70.000000
68.000500,70.000000
68.000500,68.384271
84.419633,68.384271
84.424023,68.419491
84.424500,68.427167
84.424500,68.431116
84.428129,68.452865
84.428498,68.455399
84.435134,68.508626
84.437373,68.516147
84.439935,68.523611
84.452677,68.547157
84.465447,68.570754
84.466609,68.573011
84.490172,68.621208
84.494742,68.627609
84.499581,68.633826
84.539053,68.670163
84.540874,68.671911
85.097849,69.228886
85.113977,69.248745
85.119916,69.257836
85.147932,69.279641
85.153693,69.284730
85.156482,69.287519
85.174432,69.300335
85.176488,69.301867
85.201663,69.321462
85.242476,69.378173
85.249500,69.419315
85.249500,69.524678
85.264032,69.597735
85.264033,69.597739
85.264034,69.597740
85.319399,69.680601
85.402260,69.735966
85.402264,69.735967
85.475321,69.750499
85.475324,69.750500
85.475326,69.750500
88.274676,69.750500
88.274677,69.750499
88.347740,69.735966
88.430601,69.680601
88.485966,69.597740
88.500500,69.524674
88.500500,68.475326
88.500500,68.475325
88.500500,68.475323
88.500499,68.475321
88.485967,68.402264
88.485966,68.402260
88.466843,68.373640
88.430601,68.319399
88.347740,68.264034
88.347739,68.264033
88.347735,68.264032
88.274677,68.249500
88.274674,68.249500
85.475326,68.249500
85.475323,68.249500
85.402264,68.264032
85.402258,68.264034
85.368388,68.286665
85.301710,68.307541
85.234331,68.289055
85.187642,68.237075
85.175500,68.183561
85.175500,68.125500
85.175500,67.306894
85.195183,67.239859
85.211809,67.219227
87.028889,65.402146
87.048746,65.386022
87.057836,65.380084
87.079638,65.352071
87.084733,65.346303
87.087519,65.343518
87.100372,65.325514
87.101843,65.323541
87.134809,65.281189
87.134810,65.281183
87.138547,65.274280
87.142006,65.267203
87.142010,65.267199
87.157319,65.215772
87.158073,65.213419
87.175500,65.162660
87.175500,65.162656
87.176790,65.154924
87.177768,65.147085
87.175553,65.093527
87.175500,65.090964
87.175500,64.499500
87.195185,64.432461
87.247989,64.386706
87.299500,64.375500
88.073196,64.375500
88.098641,64.378139
88.101724,64.378785
88.109268,64.380367
88.110157,64.380256
88.111371,64.380453
88.119538,64.380792
88.119497,64.381778
88.179117,64.391494
88.231054,64.438231
88.249500,64.503303
88.249500,64.524678
88.264032,64.597735
88.264033,64.597739
88.264034,64.597740
88.319399,64.680601
88.392303,64.729313
88.402260,64.735966
88.402264,64.735967
88.475321,64.750499
88.475324,64.750500
88.475326,64.750500
89.524676,64.750500
89.524677,64.750499
89.597740,64.735966
89.680601,64.680601
89.735966,64.597740
89.750500,64.524674
89.750500,61.725326
89.750500,61.725323
89.739599,61.670526
89.735966,61.652260
89.680601,61.569399
89.599900,61.515477
89.597739,61.514033
89.597735,61.514032
89.524677,61.499500
89.524674,61.499500
89.060899,61.499500
88.993860,61.479815
88.948105,61.427011
88.938161,61.357853
88.967186,61.294297
88.973218,61.287819
89.100807,61.160231
89.349218,60.911819
89.410542,60.878334
89.436900,60.875500
89.935357,60.875500
90.002396,60.895185
90.048151,60.947989
90.058095,61.017147
90.037407,61.069940
90.019780,61.095475
90.019780,61.095476
89.963762,61.243181
89.944722,61.399999
89.944722,61.400000
89.963763,61.556820
89.965056,61.562067
89.964909,61.565385
89.966815,61.567360
89.972882,61.580864
90.019781,61.704525
90.109517,61.834531
90.170109,61.888210
90.207726,61.921535
90.244853,61.980723
90.249500,62.014350
90.249500,64.374240
90.229815,64.441279
90.214153,64.459556
90.214491,64.459856
90.209515,64.465472
90.119781,64.595475
90.119780,64.595476
90.063762,64.743181
90.044722,64.899999
90.044722,64.900000
90.063762,65.056818
90.103902,65.162656
90.119780,65.204523
90.209517,65.334530
90.327760,65.439283
90.327762,65.439284
90.467634,65.512696
90.621014,65.550500
90.621015,65.550500
90.778985,65.550500
90.932365,65.512696
90.992375,65.481199
91.060881,65.467474
91.107624,65.481199
91.167635,65.512696
91.244324,65.531597
91.321014,65.550500
91.321015,65.550500
91.478985,65.550500
91.632365,65.512696
91.636366,65.510596
91.772240,65.439283
91.890483,65.334530
91.980220,65.204523
92.036237,65.056818
92.055278,64.900000
92.037126,64.750499
92.036237,64.743181
91.981078,64.597740
91.980220,64.595477
91.890483,64.465470
91.884146,64.459856
91.817273,64.400611
91.780146,64.341422
91.775500,64.307796
91.775500,61.992202
91.795185,61.925163
91.817274,61.899386
91.890482,61.834531
91.900513,61.819999
91.980220,61.704523
92.036237,61.556818
92.055278,61.400000
92.050161,61.357853
92.036237,61.243181
92.004778,61.160231
91.980220,61.095477
91.962592,61.069939
91.940710,61.003586
91.958175,60.935934
92.009443,60.888464
92.064643,60.875500
92.300500,60.875500
92.367539,60.895185
92.413294,60.947989
92.424500,60.999500
92.424500,68.125500
92.404815,68.192539
92.352011,68.238294
92.300500,68.249500
91.725323,68.249500
91.652264,68.264032
91.652260,68.264033
91.569399,68.319399
91.514033,68.402260
91.514032,68.402264
91.499500,68.475321
91.499500,69.524678
91.514032,69.597735
91.514033,69.597739
91.514034,69.597740
91.569399,69.680601
91.652259,69.735966
91.652260,69.735966
91.652264,69.735967
91.725321,69.750499
91.725324,69.750500
91.725326,69.750500
94.524676,69.750500
94.524677,69.750499
94.597740,69.735966
94.680601,69.680601
94.735966,69.597740
94.750500,69.524674
94.750500,68.475326
94.750500,68.475325
94.750500,68.475323
94.750499,68.475321
94.735967,68.402264
94.735966,68.402260
94.716843,68.373640
94.680601,68.319399
94.597740,68.264034
94.597739,68.264033
94.597735,68.264032
94.524677,68.249500
94.524674,68.249500
93.299500,68.249500
93.232461,68.229815
93.186706,68.177011
93.175500,68.125500
93.175500,60.518090
93.175712,60.512968
93.177511,60.491268
93.179392,60.468563
93.168449,60.425352
93.167401,60.420357
93.160065,60.376390
93.159874,60.376038
93.148726,60.347463
93.148628,60.347079
93.148628,60.347078
93.124252,60.309768
93.121627,60.305364
93.100419,60.266174
93.100129,60.265907
93.080297,60.242491
93.080084,60.242164
93.080082,60.242162
93.044913,60.214789
93.041006,60.211480
93.022836,60.194753
93.008217,60.181294
93.007848,60.181133
92.981505,60.165437
92.981189,60.165191
92.939038,60.150720
92.934263,60.148857
92.893458,60.130958
92.893446,60.130955
92.893044,60.130922
92.863042,60.124631
92.862660,60.124500
92.818091,60.124500
92.812976,60.124288
92.803881,60.123534
92.768565,60.120607
92.768373,60.120655
92.768174,60.120706
92.737737,60.124500
89.281804,60.124500
89.256359,60.121861
89.245733,60.119633
89.245730,60.119633
89.210508,60.124023
89.202832,60.124500
89.198886,60.124500
89.177126,60.128130
89.174603,60.128498
89.121371,60.135134
89.113857,60.137371
89.106387,60.139935
89.059246,60.165447
89.056970,60.166618
89.008792,60.190171
89.002375,60.194753
88.996175,60.199579
88.959851,60.239036
88.958078,60.240884
88.587181,60.611781
88.525858,60.645266
88.456167,60.640282
88.400233,60.598411
88.375816,60.532946
88.375500,60.524100
88.375500,58.624500
88.395185,58.557461
88.447989,58.511706
88.499500,58.500500
89.524676,58.500500
89.524677,58.500499
89.597740,58.485966
89.680601,58.430601
89.735966,58.347740
89.750500,58.274674
89.750500,57.125000
90.000000,57.125000
90.000000,58.297844
90.006401,58.357372
90.006403,58.357379
90.056645,58.492086
90.056649,58.492093
90.142809,58.607187
90.142812,58.607190
90.257906,58.693350
90.257913,58.693354
90.392620,58.743596
90.392627,58.743598
90.452155,58.749999
90.452172,58.750000
90.750000,58.750000
90.750000,57.125000
91.250000,57.125000
91.250000,58.750000
91.547828,58.750000
91.547844,58.749999
91.607372,58.743598
91.607379,58.743596
91.742086,58.693354
91.742093,58.693350
91.857187,58.607190
91.857190,58.607187
91.943350,58.492093
91.943354,58.492086
91.993596,58.357379
91.993598,58.357372
91.999999,58.297844
92.000000,58.297827
92.000000,57.125000
91.250000,57.125000
90.750000,57.125000
90.000000,57.125000
89.750500,57.125000
89.750500,56.625000
90.000000,56.625000
90.750000,56.625000
90.750000,55.000000
91.250000,55.000000
91.250000,56.625000
92.000000,56.625000
92.000000,55.452172
91.999999,55.452155
91.993598,55.392627
91.993596,55.392620
91.943354,55.257913
91.943350,55.257906
91.857190,55.142812
91.857187,55.142809
91.742093,55.056649
91.742086,55.056645
91.607379,55.006403
91.607372,55.006401
91.547844,55.000000
91.250000,55.000000
90.750000,55.000000
90.452155,55.000000
90.392627,55.006401
90.392620,55.006403
90.257913,55.056645
90.257906,55.056649
90.142812,55.142809
90.142809,55.142812
90.056649,55.257906
90.056645,55.257913
90.006403,55.392620
90.006401,55.392627
90.000000,55.452155
90.000000,56.625000
89.750500,56.625000
89.750500,55.475326
89.750500,55.475323
89.750499,55.475321
89.735967,55.402264
89.735966,55.402260
89.735965,55.402259
89.680601,55.319399
89.597740,55.264034
89.597739,55.264033
89.597735,55.264032
89.524677,55.249500
89.524674,55.249500
88.475326,55.249500
88.475323,55.249500
88.402264,55.264032
88.402260,55.264033
88.319399,55.319399
88.264033,55.402260
88.264032,55.402264
88.249500,55.475321
88.249500,56.371571
88.229815,56.438610
88.177011,56.484365
88.140840,56.494618
88.105509,56.499023
88.097831,56.499500
88.093886,56.499500
88.072126,56.503130
88.069603,56.503498
88.016371,56.510134
88.008857,56.512371
88.001387,56.514935
87.954246,56.540447
87.951970,56.541618
87.903792,56.565171
87.897382,56.569748
87.891175,56.574580
87.854865,56.614020
87.853093,56.615868
87.771108,56.697852
87.751254,56.713976
87.742165,56.719914
87.742164,56.719915
87.720363,56.747923
87.715286,56.753674
87.712484,56.756477
87.712474,56.756489
87.699658,56.774439
87.698127,56.776492
87.665192,56.818808
87.661447,56.825729
87.657988,56.832804
87.642692,56.884182
87.641911,56.886621
87.624500,56.937338
87.623206,56.945092
87.622231,56.952911
87.624447,57.006472
87.624500,57.009034
87.624500,61.160231
87.604815,61.227270
87.558129,61.270026
87.537760,61.280716
87.537760,61.280717
87.450691,61.357853
87.419516,61.385471
87.329781,61.515475
87.329780,61.515476
87.273762,61.663181
87.254722,61.819999
87.254722,61.820000
87.273762,61.976818
87.329779,62.124523
87.329780,62.124523
87.419517,62.254530
87.537760,62.359283
87.537762,62.359284
87.677634,62.432696
87.831014,62.470500
87.831015,62.470500
87.988985,62.470500
88.095827,62.444166
88.165627,62.447235
88.222689,62.487555
88.248895,62.552324
88.249500,62.564563
88.249500,63.293100
88.229815,63.360139
88.213181,63.380781
88.005781,63.588181
87.944458,63.621666
87.918100,63.624500
87.568107,63.624500
87.501068,63.604815
87.455313,63.552011
87.445011,63.515446
87.436237,63.443182
87.380220,63.295477
87.290483,63.165470
87.172240,63.060717
87.172238,63.060716
87.172237,63.060715
87.032365,62.987303
86.878986,62.949500
86.878985,62.949500
86.721015,62.949500
86.721014,62.949500
86.567634,62.987303
86.427762,63.060715
86.309516,63.165471
86.219781,63.295475
86.219780,63.295476
86.163762,63.443181
86.144722,63.599999
86.144722,63.600000
86.163762,63.756818
86.219780,63.904523
86.219781,63.904524
86.309517,64.034531
86.382726,64.099386
86.419853,64.158574
86.424500,64.192202
86.424500,64.893099
86.404815,64.960138
86.388181,64.980780
84.571108,66.797852
84.551254,66.813976
84.542165,66.819914
84.542164,66.819915
84.520363,66.847923
84.515286,66.853674
84.512484,66.856477
84.512474,66.856489
84.499658,66.874439
84.498127,66.876492
84.465192,66.918808
84.461447,66.925729
84.457988,66.932804
84.442692,66.984182
84.441911,66.986621
84.424500,67.037338
84.423206,67.045092
84.422231,67.052911
84.424447,67.106472
84.424500,67.109034
84.424500,68.348196
84.421862,68.373634
84.419633,68.384268
84.419633,68.384269
84.419633,68.384271
68.000500,68.384271
68.000500,60.000010
73.894548,60.000010
73.914344,60.491268
73.914345,60.491283
73.914346,60.491285
73.919405,60.532946
73.973612,60.979388
74.071962,61.461136
74.208757,61.933407
74.383114,62.393143
74.593894,62.837351
74.839734,63.263158
74.839739,63.263164
74.862043,63.295477
75.072239,63.599999
75.119049,63.667814
75.429991,64.048649
75.430000,64.048659
75.430004,64.048664
75.749965,64.381778
75.770607,64.403269
75.770612,64.403274
76.138630,64.729310
76.286602,64.840503
76.531708,65.024688
76.947274,65.287477
76.947277,65.287479
76.947281,65.287481
77.096686,65.365894
77.382638,65.515973
77.834977,65.708697
78.301357,65.864397
78.778753,65.982065
78.778767,65.982067
78.778774,65.982069
79.227715,66.055028
79.264069,66.060936
79.754158,66.100500
79.754168,66.100500
80.245832,66.100500
80.245842,66.100500
80.735931,66.060936
80.884532,66.036786
81.221225,65.982069
81.221229,65.982067
81.221247,65.982065
81.698643,65.864397
82.165023,65.708697
82.617362,65.515973
83.052726,65.287477
83.468292,65.024688
83.861365,64.729313
83.861364,64.729313
83.861369,64.729310
84.229387,64.403274
84.229386,64.403274
84.229395,64.403267
84.569996,64.048664
84.880959,63.667803
85.160267,63.263155
85.406109,62.837345
85.616890,62.393133
85.791244,61.933401
85.928039,61.461130
86.026388,60.979383
86.085654,60.491285
86.085655,60.491268
86.105452,60.000010
86.105452,59.999989
86.085655,59.508731
86.085654,59.508726
86.085654,59.508715
86.026388,59.020617
85.928039,58.538870
85.896679,58.430601
85.791242,58.066592
85.714261,57.863613
85.616890,57.606867
85.406109,57.162655
85.276022,56.937338
85.160265,56.736841
85.160260,56.736835
85.144482,56.713976
84.880959,56.332197
84.880954,56.332191
84.880950,56.332185
84.570008,55.951350
84.569992,55.951332
84.229392,55.596730
84.229387,55.596725
83.861369,55.270689
83.664828,55.122999
83.468292,54.975312
83.052726,54.712523
83.052725,54.712522
83.052718,54.712518
82.617356,54.484024
82.439815,54.408381
82.165023,54.291303
82.165015,54.291300
82.165012,54.291299
81.934540,54.214356
81.698643,54.135603
81.698639,54.135602
81.698632,54.135600
81.515704,54.090512
81.221247,54.017935
81.221241,54.017934
81.221237,54.017933
81.221225,54.017930
80.735936,53.939064
80.245851,53.899500
80.245842,53.899500
79.754158,53.899500
79.754148,53.899500
79.264063,53.939064
78.778774,54.017930
78.778762,54.017933
78.778755,54.017934
78.778753,54.017935
78.755092,54.023767
78.301367,54.135600
78.301360,54.135602
77.834987,54.291299
77.834979,54.291302
77.834977,54.291303
77.730691,54.335734
77.382643,54.484024
76.947281,54.712518
76.531713,54.975308
76.531711,54.975310
76.138630,55.270689
75.770612,55.596725
75.770607,55.596730
75.430007,55.951332
75.429991,55.951350
75.119049,56.332185
74.839739,56.736835
74.839734,56.736841
74.593894,57.162648
74.383114,57.606856
74.208757,58.066592
74.071962,58.538863
73.973612,59.020611
73.914346,59.508715
73.914344,59.508731
73.894548,59.999989
73.894548,60.000010
68.000500,60.000010
68.000500,50.000000
68.644341,50.000000
68.664936,50.235403
68.664938,50.235413
68.726094,50.463655
68.726096,50.463659
68.726097,50.463663
68.776030,50.570746
68.825964,50.677828
68.825965,50.677830
68.961505,50.871402
69.128597,51.038494
69.322169,51.174034
69.322171,51.174035
69.536337,51.273903
69.764592,51.335063
69.941032,51.350499
69.941033,51.350500
69.941034,51.350500
70.058967,51.350500
70.058967,51.350499
70.235408,51.335063
70.463663,51.273903
70.677829,51.174035
70.871401,51.038495
71.038495,50.871401
71.174035,50.677830
71.273903,50.463663
71.335063,50.235408
71.355659,50.000000
88.644341,50.000000
88.664936,50.235403
88.664938,50.235413
88.726094,50.463655
88.726096,50.463659
88.726097,50.463663
88.776031,50.570745
88.825964,50.677828
88.825965,50.677830
88.961505,50.871402
89.128597,51.038494
89.322169,51.174034
89.322171,51.174035
89.536337,51.273903
89.764592,51.335063
89.941032,51.350499
89.941033,51.350500
89.941034,51.350500
90.058967,51.350500
90.058967,51.350499
90.235408,51.335063
90.463663,51.273903
90.677829,51.174035
90.871401,51.038495
91.038495,50.871401
91.174035,50.677830
91.273903,50.463663
91.335063,50.235408
91.355659,50.000000
91.335063,49.764592
91.273903,49.536337
91.174035,49.322171
91.174034,49.322169
91.038494,49.128597
90.871402,48.961505
90.677830,48.825965
90.677828,48.825964
90.570745,48.776031
90.463663,48.726097
90.463659,48.726096
90.463655,48.726094
90.235413,48.664938
90.235403,48.664936
90.058967,48.649500
90.058966,48.649500
89.941034,48.649500
89.941033,48.649500
89.764596,48.664936
89.764586,48.664938
89.536344,48.726094
89.536335,48.726098
89.322171,48.825964
89.322169,48.825965
89.128597,48.961505
88.961506,49.128597
88.961501,49.128604
88.825967,49.322165
88.825965,49.322169
88.726098,49.536335
88.726094,49.536344
88.664938,49.764586
88.664936,49.764596
88.644341,49.999999
88.644341,50.000000
71.355659,50.000000
71.335063,49.764592
71.273903,49.536337
71.174035,49.322171
71.174034,49.322169
71.038494,49.128597
70.871402,48.961505
70.677830,48.825965
70.677828,48.825964
70.570745,48.776031
70.463663,48.726097
70.463659,48.726096
70.463655,48.726094
70.235413,48.664938
70.235403,48.664936
70.058967,48.649500
70.058966,48.649500
69.941034,48.649500
69.941033,48.649500
69.764596,48.664936
69.764586,48.664938
69.536344,48.726094
69.536335,48.726098
69.322171,48.825964
69.322169,48.825965
69.128597,48.961505
68.961506,49.128597
68.961501,49.128604
68.825967,49.322165
68.825965,49.322169
68.726098,49.536335
68.726094,49.536344
68.664938,49.764586
68.664936,49.764596
68.644341,49.999999
68.644341,50.000000
68.000500,50.000000
68.000500,49.002706
68.000736,48.997300
68.004474,48.954577
68.005731,48.941812
68.016918,48.828221
68.020540,48.808318
68.038165,48.742540
68.038655,48.740822
68.066685,48.648419
68.072948,48.632049
68.104413,48.564573
68.105872,48.561653
68.150764,48.477666
68.154657,48.471331
68.187837,48.423945
68.200994,48.405155
68.203827,48.401420
68.263122,48.329168
68.267162,48.324710
68.324710,48.267162
68.329168,48.263122
68.401420,48.203827
68.405155,48.200994
68.471334,48.154654
68.477666,48.150764
68.561653,48.105872
68.564573,48.104413
68.632049,48.072948
68.648419,48.066685
68.740822,48.038655
68.742540,48.038165
68.808318,48.020540
68.828221,48.016918
68.941812,48.005731
68.954568,48.004474
68.997305,48.000735
69.002706,48.000500
93.997292,48.000500
Z" /> 
</g>
</g>
</g> 
</svg>
