<?xml version="1.0" standalone="no"?>
 <!DOCTYPE svg PUBLIC "-//W3C//DTD SVG 1.1//EN" 
 "http://www.w3.org/Graphics/SVG/1.1/DTD/svg11.dtd"> 
<svg
  xmlns:svg="http://www.w3.org/2000/svg"
  xmlns="http://www.w3.org/2000/svg"
  xmlns:xlink="http://www.w3.org/1999/xlink"
  version="1.1"
  width="3.2100000000000004cm" height="3.2100000000000004cm" viewBox="63.95 43.95 32.1 32.1">
<title>SVG Image created as pedalboard-led-ring-B_Cu.svg date 2023/06/03 10:52:50 </title>
  <desc>Image generated by PCBNEW </desc>
<g style="fill:#000000; fill-opacity:1.000000;stroke:#000000; stroke-opacity:1.000000;
stroke-linecap:round; stroke-linejoin:round;"
 transform="translate(0 0) scale(1 1)">
</g>
<g style="fill:#000000; fill-opacity:0.0; 
stroke:#000000; stroke-width:0.000000; stroke-opacity:1; 
stroke-linecap:round; stroke-linejoin:round;">
<g >
</g>
<g >
</g>
<g >
</g>
<g >
</g>
<g >
</g>
<g >
</g>
<g >
</g>
<g >
</g>
<g >
</g>
<g >
</g>
<g >
</g>
<g >
</g>
<g >
</g>
<g >
</g>
<g >
</g>
<g >
</g>
<g >
</g>
<g >
</g>
<g >
</g>
<g >
</g>
<g >
</g>
<g >
</g>
<g >
</g>
<g >
</g>
<g >
</g>
<g >
</g>
<g >
</g>
<g >
</g>
<g >
</g>
<g >
</g>
<g style="fill:#000000; fill-opacity:0.0; 
stroke:#000000; stroke-width:0.000000; stroke-opacity:1; 
stroke-linecap:round; stroke-linejoin:round;">
</g>
<g style="fill:#000000; fill-opacity:0.0; 
stroke:#000000; stroke-width:0.000000; stroke-opacity:1; 
stroke-linecap:round; stroke-linejoin:round;">
</g>
<g style="fill:#000000; fill-opacity:1.000000; 
stroke:#000000; stroke-width:0.000000; stroke-opacity:1; 
stroke-linecap:round; stroke-linejoin:round;">
<path style="fill:#000000; fill-opacity:1.000000; 
stroke:#000000; stroke-width:0.000000; stroke-opacity:1; 
stroke-linecap:round; stroke-linejoin:round;fill-rule:evenodd;"
d="M 91.500000,58.250000
90.500000,58.250000
90.500000,55.500000
91.500000,55.500000
Z" /> 
<path style="fill:#000000; fill-opacity:1.000000; 
stroke:#000000; stroke-width:0.000000; stroke-opacity:1; 
stroke-linecap:round; stroke-linejoin:round;fill-rule:evenodd;"
d="M 91.500000,64.500000
90.500000,64.500000
90.500000,61.750000
91.500000,61.750000
Z" /> 
<path style="fill:#000000; fill-opacity:1.000000; 
stroke:#000000; stroke-width:0.000000; stroke-opacity:1; 
stroke-linecap:round; stroke-linejoin:round;fill-rule:evenodd;"
d="M 89.500000,58.250000
88.500000,58.250000
88.500000,55.500000
89.500000,55.500000
Z" /> 
<path style="fill:#000000; fill-opacity:1.000000; 
stroke:#000000; stroke-width:0.000000; stroke-opacity:1; 
stroke-linecap:round; stroke-linejoin:round;fill-rule:evenodd;"
d="M 89.500000,64.500000
88.500000,64.500000
88.500000,61.750000
89.500000,61.750000
Z" /> 
</g>
<g >
</g>
<g style="fill:#000000; fill-opacity:1.000000; 
stroke:#000000; stroke-width:0.000000; stroke-opacity:1; 
stroke-linecap:round; stroke-linejoin:round;">
<path style="fill:#000000; fill-opacity:1.000000; 
stroke:#000000; stroke-width:0.000000; stroke-opacity:1; 
stroke-linecap:round; stroke-linejoin:round;fill-rule:evenodd;"
d="M 91.750000,71.500000
91.750000,70.500000
94.500000,70.500000
94.500000,71.500000
Z" /> 
<path style="fill:#000000; fill-opacity:1.000000; 
stroke:#000000; stroke-width:0.000000; stroke-opacity:1; 
stroke-linecap:round; stroke-linejoin:round;fill-rule:evenodd;"
d="M 85.500000,71.500000
85.500000,70.500000
88.250000,70.500000
88.250000,71.500000
Z" /> 
<path style="fill:#000000; fill-opacity:1.000000; 
stroke:#000000; stroke-width:0.000000; stroke-opacity:1; 
stroke-linecap:round; stroke-linejoin:round;fill-rule:evenodd;"
d="M 91.750000,69.500000
91.750000,68.500000
94.500000,68.500000
94.500000,69.500000
Z" /> 
<path style="fill:#000000; fill-opacity:1.000000; 
stroke:#000000; stroke-width:0.000000; stroke-opacity:1; 
stroke-linecap:round; stroke-linejoin:round;fill-rule:evenodd;"
d="M 85.500000,69.500000
85.500000,68.500000
88.250000,68.500000
88.250000,69.500000
Z" /> 
</g>
<g >
</g>
<g style="fill:#000000; fill-opacity:1.000000; 
stroke:#000000; stroke-width:0.000000; stroke-opacity:1; 
stroke-linecap:round; stroke-linejoin:round;">
<circle cx="86.800000" cy="63.600000" r="0.400000" /> 
</g>
<g style="fill:#000000; fill-opacity:1.000000; 
stroke:#000000; stroke-width:0.021200; stroke-opacity:1; 
stroke-linecap:round; stroke-linejoin:round;">
</g>
<g style="fill:#000000; fill-opacity:1.000000; 
stroke:#000000; stroke-width:0.000000; stroke-opacity:1; 
stroke-linecap:round; stroke-linejoin:round;">
<circle cx="74.000000" cy="52.000000" r="0.400000" /> 
</g>
<g style="fill:#000000; fill-opacity:1.000000; 
stroke:#000000; stroke-width:0.021200; stroke-opacity:1; 
stroke-linecap:round; stroke-linejoin:round;">
</g>
<g style="fill:#000000; fill-opacity:1.000000; 
stroke:#000000; stroke-width:0.000000; stroke-opacity:1; 
stroke-linecap:round; stroke-linejoin:round;">
<circle cx="89.928203" cy="58.803848" r="0.400000" /> 
</g>
<g style="fill:#000000; fill-opacity:1.000000; 
stroke:#000000; stroke-width:0.021200; stroke-opacity:1; 
stroke-linecap:round; stroke-linejoin:round;">
</g>
<g style="fill:#000000; fill-opacity:1.000000; 
stroke:#000000; stroke-width:0.000000; stroke-opacity:1; 
stroke-linecap:round; stroke-linejoin:round;">
<circle cx="70.071797" cy="61.196152" r="0.400000" /> 
</g>
<g style="fill:#000000; fill-opacity:1.000000; 
stroke:#000000; stroke-width:0.021200; stroke-opacity:1; 
stroke-linecap:round; stroke-linejoin:round;">
</g>
<g style="fill:#000000; fill-opacity:1.000000; 
stroke:#000000; stroke-width:0.000000; stroke-opacity:1; 
stroke-linecap:round; stroke-linejoin:round;">
<circle cx="76.071797" cy="69.196152" r="0.400000" /> 
</g>
<g style="fill:#000000; fill-opacity:1.000000; 
stroke:#000000; stroke-width:0.021200; stroke-opacity:1; 
stroke-linecap:round; stroke-linejoin:round;">
</g>
<g style="fill:#000000; fill-opacity:1.000000; 
stroke:#000000; stroke-width:0.000000; stroke-opacity:1; 
stroke-linecap:round; stroke-linejoin:round;">
<circle cx="81.196152" cy="69.928203" r="0.400000" /> 
</g>
<g style="fill:#000000; fill-opacity:1.000000; 
stroke:#000000; stroke-width:0.021200; stroke-opacity:1; 
stroke-linecap:round; stroke-linejoin:round;">
</g>
<g style="fill:#000000; fill-opacity:1.000000; 
stroke:#000000; stroke-width:0.000000; stroke-opacity:1; 
stroke-linecap:round; stroke-linejoin:round;">
<circle cx="83.928203" cy="50.803848" r="0.400000" /> 
</g>
<g style="fill:#000000; fill-opacity:1.000000; 
stroke:#000000; stroke-width:0.021200; stroke-opacity:1; 
stroke-linecap:round; stroke-linejoin:round;">
</g>
<g style="fill:#000000; fill-opacity:1.000000; 
stroke:#000000; stroke-width:0.000000; stroke-opacity:1; 
stroke-linecap:round; stroke-linejoin:round;">
<circle cx="72.000000" cy="66.000000" r="0.400000" /> 
</g>
<g style="fill:#000000; fill-opacity:1.000000; 
stroke:#000000; stroke-width:0.021200; stroke-opacity:1; 
stroke-linecap:round; stroke-linejoin:round;">
</g>
<g style="fill:#000000; fill-opacity:1.000000; 
stroke:#000000; stroke-width:0.000000; stroke-opacity:1; 
stroke-linecap:round; stroke-linejoin:round;">
<circle cx="86.400000" cy="67.700000" r="0.400000" /> 
</g>
<g style="fill:#000000; fill-opacity:1.000000; 
stroke:#000000; stroke-width:0.021200; stroke-opacity:1; 
stroke-linecap:round; stroke-linejoin:round;">
</g>
<g style="fill:#000000; fill-opacity:1.000000; 
stroke:#000000; stroke-width:0.000000; stroke-opacity:1; 
stroke-linecap:round; stroke-linejoin:round;">
<circle cx="70.803848" cy="56.071797" r="0.400000" /> 
</g>
<g style="fill:#000000; fill-opacity:1.000000; 
stroke:#000000; stroke-width:0.021200; stroke-opacity:1; 
stroke-linecap:round; stroke-linejoin:round;">
</g>
<g style="fill:#000000; fill-opacity:1.000000; 
stroke:#000000; stroke-width:0.000000; stroke-opacity:1; 
stroke-linecap:round; stroke-linejoin:round;">
<circle cx="88.000000" cy="54.000000" r="0.400000" /> 
</g>
<g style="fill:#000000; fill-opacity:1.000000; 
stroke:#000000; stroke-width:0.021200; stroke-opacity:1; 
stroke-linecap:round; stroke-linejoin:round;">
</g>
<g style="fill:#000000; fill-opacity:1.000000; 
stroke:#000000; stroke-width:0.000000; stroke-opacity:1; 
stroke-linecap:round; stroke-linejoin:round;">
<circle cx="88.500000" cy="66.000000" r="0.400000" /> 
</g>
<g style="fill:#000000; fill-opacity:1.000000; 
stroke:#000000; stroke-width:0.021200; stroke-opacity:1; 
stroke-linecap:round; stroke-linejoin:round;">
</g>
<g style="fill:#000000; fill-opacity:1.000000; 
stroke:#000000; stroke-width:0.000000; stroke-opacity:1; 
stroke-linecap:round; stroke-linejoin:round;">
<circle cx="78.803848" cy="50.071797" r="0.400000" /> 
</g>
<g style="fill:#000000; fill-opacity:1.000000; 
stroke:#000000; stroke-width:0.021200; stroke-opacity:1; 
stroke-linecap:round; stroke-linejoin:round;">
</g>
<g style="fill:#000000; fill-opacity:1.000000; 
stroke:#000000; stroke-width:0.000000; stroke-opacity:1; 
stroke-linecap:round; stroke-linejoin:round;">
<circle cx="92.000000" cy="62.100000" r="0.400000" /> 
</g>
<g style="fill:#000000; fill-opacity:1.000000; 
stroke:#000000; stroke-width:0.021200; stroke-opacity:1; 
stroke-linecap:round; stroke-linejoin:round;">
</g>
<g style="fill:#000000; fill-opacity:1.000000; 
stroke:#000000; stroke-width:0.000000; stroke-opacity:1; 
stroke-linecap:round; stroke-linejoin:round;">
<circle cx="85.900000" cy="72.000000" r="0.400000" /> 
</g>
<g style="fill:#000000; fill-opacity:1.000000; 
stroke:#000000; stroke-width:0.021200; stroke-opacity:1; 
stroke-linecap:round; stroke-linejoin:round;">
</g>
<g style="fill:#000000; fill-opacity:1.000000; 
stroke:#000000; stroke-width:0.000000; stroke-opacity:1; 
stroke-linecap:round; stroke-linejoin:round;">
<circle cx="92.000000" cy="63.100000" r="0.400000" /> 
</g>
<g style="fill:#000000; fill-opacity:1.000000; 
stroke:#000000; stroke-width:0.021200; stroke-opacity:1; 
stroke-linecap:round; stroke-linejoin:round;">
</g>
<g style="fill:#000000; fill-opacity:1.000000; 
stroke:#000000; stroke-width:0.000000; stroke-opacity:1; 
stroke-linecap:round; stroke-linejoin:round;">
<circle cx="92.000000" cy="64.100000" r="0.400000" /> 
</g>
<g style="fill:#000000; fill-opacity:1.000000; 
stroke:#000000; stroke-width:0.021200; stroke-opacity:1; 
stroke-linecap:round; stroke-linejoin:round;">
</g>
<g style="fill:#000000; fill-opacity:1.000000; 
stroke:#000000; stroke-width:0.000000; stroke-opacity:1; 
stroke-linecap:round; stroke-linejoin:round;">
<circle cx="87.900000" cy="72.000000" r="0.400000" /> 
</g>
<g style="fill:#000000; fill-opacity:1.000000; 
stroke:#000000; stroke-width:0.021200; stroke-opacity:1; 
stroke-linecap:round; stroke-linejoin:round;">
</g>
<g style="fill:#000000; fill-opacity:1.000000; 
stroke:#000000; stroke-width:0.000000; stroke-opacity:1; 
stroke-linecap:round; stroke-linejoin:round;">
<circle cx="86.900000" cy="72.000000" r="0.400000" /> 
</g>
<g style="fill:#000000; fill-opacity:1.000000; 
stroke:#000000; stroke-width:0.021200; stroke-opacity:1; 
stroke-linecap:round; stroke-linejoin:round;">
</g>
<g style="fill:#000000; fill-opacity:1.000000; 
stroke:#000000; stroke-width:0.000000; stroke-opacity:1; 
stroke-linecap:round; stroke-linejoin:round;">
<circle cx="87.910000" cy="61.820000" r="0.400000" /> 
</g>
<g style="fill:#000000; fill-opacity:1.000000; 
stroke:#000000; stroke-width:0.021200; stroke-opacity:1; 
stroke-linecap:round; stroke-linejoin:round;">
</g>
<g >
</g>
<g style="fill:#000000; fill-opacity:1.000000; 
stroke:#000000; stroke-width:0.021200; stroke-opacity:1; 
stroke-linecap:round; stroke-linejoin:round;">
</g>
<g style="fill:#000000; fill-opacity:1.000000; 
stroke:#000000; stroke-width:0.250000; stroke-opacity:1; 
stroke-linecap:round; stroke-linejoin:round;">
</g>
<g style="fill:#000000; fill-opacity:0.0; 
stroke:#000000; stroke-width:0.250000; stroke-opacity:1; 
stroke-linecap:round; stroke-linejoin:round;">
<path d="M84.800000 67.100000
L86.800000 65.100000
" />
<path d="M89.000000 63.125000
L88.125000 64.000000
" />
<path d="M85.400000 69.000000
L84.800000 68.400000
" />
<path d="M86.875000 69.000000
L85.400000 69.000000
" />
<path d="M84.800000 68.400000
L84.800000 67.100000
" />
<path d="M87.200000 64.000000
L86.800000 63.600000
" />
<path d="M88.125000 64.000000
L87.200000 64.000000
" />
<path d="M86.800000 65.100000
L86.800000 63.600000
" />
<path d="M86.875000 71.000000
L86.875000 71.975000
" />
<path d="M91.000000 63.125000
L91.975000 63.125000
" />
<path d="M91.000000 63.100000
L92.000000 62.100000
" />
<path d="M86.875000 71.975000
L86.900000 72.000000
" />
<path d="M86.900000 71.000000
L87.900000 72.000000
" />
<path d="M86.875000 71.025000
L85.900000 72.000000
" />
<path d="M91.025000 63.125000
L92.000000 64.100000
" />
<path d="M91.975000 63.125000
L92.000000 63.100000
" />
<path d="M88.000000 57.000000
L88.000000 61.730000
" />
<path d="M92.800000 61.300000
L92.800000 68.675000
" />
<path d="M88.430000 61.300000
L92.800000 61.300000
" />
<path d="M88.000000 61.730000
L87.910000 61.820000
" />
<path d="M89.000000 56.875000
L88.125000 56.875000
" />
<path d="M88.125000 56.875000
L88.000000 57.000000
" />
<path d="M87.910000 61.820000
L88.430000 61.300000
" />
</g>
<g >
</g>
<g style="fill:#000000; fill-opacity:0.0; 
stroke:#000000; stroke-width:0.250000; stroke-opacity:1; 
stroke-linecap:round; stroke-linejoin:round;">
<g >
</g>
<g style="fill:#000000; fill-opacity:1.000000; 
stroke:#000000; stroke-width:0.000000; stroke-opacity:1; 
stroke-linecap:round; stroke-linejoin:round;">
<path style="fill:#000000; fill-opacity:1.000000; 
stroke:#000000; stroke-width:0.000000; stroke-opacity:1; 
stroke-linecap:round; stroke-linejoin:round;fill-rule:evenodd;"
d="M 94.002697,45.000736
94.045491,45.004480
94.171776,45.016918
94.191685,45.020541
94.257426,45.038156
94.259208,45.038664
94.351570,45.066682
94.367959,45.072952
94.435396,45.104399
94.438375,45.105888
94.475969,45.125982
94.522327,45.150762
94.528667,45.154657
94.594828,45.200983
94.598600,45.203844
94.670808,45.263103
94.675309,45.267182
94.732815,45.324688
94.736895,45.329190
94.796154,45.401398
94.799015,45.405170
94.845341,45.471331
94.849236,45.477671
94.894101,45.561605
94.895613,45.564630
94.927041,45.632027
94.933319,45.648436
94.961303,45.740684
94.961860,45.742636
94.979454,45.808298
94.983082,45.828238
94.995522,45.954552
94.999264,45.997300
94.999500,46.002709
94.999500,70.001622
94.979815,70.068661
94.927011,70.114416
94.857853,70.124360
94.801189,70.100889
94.742089,70.056647
94.742086,70.056645
94.607379,70.006403
94.607372,70.006401
94.547844,70.000000
93.375000,70.000000
93.375000,72.000000
94.547828,72.000000
94.547844,71.999999
94.607372,71.993598
94.607379,71.993596
94.742086,71.943354
94.742089,71.943352
94.801188,71.899111
94.866652,71.874693
94.934926,71.889544
94.984331,71.938949
94.999500,71.998377
94.999500,73.997290
94.999264,74.002699
94.995522,74.045446
94.983082,74.171760
94.979454,74.191700
94.961860,74.257362
94.961303,74.259314
94.933319,74.351562
94.927041,74.367971
94.895613,74.435368
94.894101,74.438393
94.849236,74.522327
94.845341,74.528667
94.799015,74.594828
94.796154,74.598600
94.736895,74.670808
94.732806,74.675320
94.675320,74.732806
94.670808,74.736895
94.598600,74.796154
94.594828,74.799015
94.528667,74.845341
94.522327,74.849236
94.438393,74.894101
94.435368,74.895613
94.367971,74.927041
94.351562,74.933319
94.259314,74.961303
94.257362,74.961860
94.191700,74.979454
94.171760,74.983082
94.045446,74.995522
94.007251,74.998865
94.002694,74.999264
93.997291,74.999500
66.002709,74.999500
65.997305,74.999264
65.992337,74.998829
65.954552,74.995522
65.828238,74.983082
65.808298,74.979454
65.742636,74.961860
65.740711,74.961310
65.703113,74.949905
65.648436,74.933319
65.632027,74.927041
65.564630,74.895613
65.561605,74.894101
65.477671,74.849236
65.471331,74.845341
65.405170,74.799015
65.401398,74.796154
65.329190,74.736895
65.324688,74.732815
65.267182,74.675309
65.263103,74.670808
65.203844,74.598600
65.200983,74.594828
65.154657,74.528667
65.150762,74.522327
65.125982,74.475969
65.105888,74.438375
65.104399,74.435396
65.072952,74.367959
65.066682,74.351570
65.038664,74.259208
65.038156,74.257426
65.020541,74.191685
65.016918,74.171776
65.004476,74.045446
65.000736,74.002696
65.000500,73.997291
65.000500,72.000000
66.644341,72.000000
66.664936,72.235403
66.664938,72.235413
66.726094,72.463655
66.726096,72.463659
66.726097,72.463663
66.776030,72.570746
66.825964,72.677828
66.825965,72.677830
66.961505,72.871402
67.128597,73.038494
67.322169,73.174034
67.322171,73.174035
67.536337,73.273903
67.764592,73.335063
67.941032,73.350499
67.941033,73.350500
67.941034,73.350500
68.058967,73.350500
68.058967,73.350499
68.235408,73.335063
68.463663,73.273903
68.677829,73.174035
68.871401,73.038495
69.038495,72.871401
69.174035,72.677830
69.273903,72.463663
69.335063,72.235408
69.355659,72.000000
85.244722,72.000000
85.263762,72.156818
85.293566,72.235403
85.319780,72.304523
85.409517,72.434530
85.527760,72.539283
85.527762,72.539284
85.667634,72.612696
85.821014,72.650500
85.821015,72.650500
85.978985,72.650500
86.132365,72.612696
86.272237,72.539285
86.272238,72.539283
86.272240,72.539283
86.317774,72.498943
86.381006,72.469223
86.450270,72.478407
86.482224,72.498942
86.516890,72.529653
86.527762,72.539285
86.667634,72.612696
86.821014,72.650500
86.821015,72.650500
86.978985,72.650500
87.132365,72.612696
87.272237,72.539285
87.272238,72.539283
87.272240,72.539283
87.317774,72.498943
87.381006,72.469223
87.450270,72.478407
87.482224,72.498942
87.516890,72.529653
87.527762,72.539285
87.667634,72.612696
87.821014,72.650500
87.821015,72.650500
87.978985,72.650500
88.132365,72.612696
88.132364,72.612695
88.272240,72.539283
88.390483,72.434530
88.480220,72.304523
88.536237,72.156818
88.555278,72.000000
88.554500,71.993596
88.536237,71.843182
88.506433,71.764596
88.481055,71.697680
88.475689,71.628020
88.482438,71.606256
88.485963,71.597744
88.485966,71.597740
88.500500,71.524674
88.500500,71.250000
91.250000,71.250000
91.250000,71.547844
91.256401,71.607372
91.256403,71.607379
91.306645,71.742086
91.306649,71.742093
91.392809,71.857187
91.392812,71.857190
91.507906,71.943350
91.507913,71.943354
91.642620,71.993596
91.642627,71.993598
91.702155,71.999999
91.702172,72.000000
92.875000,72.000000
92.875000,71.250000
91.250000,71.250000
88.500500,71.250000
88.500500,70.750000
91.250000,70.750000
92.875000,70.750000
92.875000,70.000000
91.702155,70.000000
91.642627,70.006401
91.642620,70.006403
91.507913,70.056645
91.507906,70.056649
91.392812,70.142809
91.392809,70.142812
91.306649,70.257906
91.306645,70.257913
91.256403,70.392620
91.256401,70.392627
91.250000,70.452155
91.250000,70.750000
88.500500,70.750000
88.500500,70.475326
88.500500,70.475323
88.500499,70.475321
88.485967,70.402264
88.485966,70.402260
88.485965,70.402259
88.430601,70.319399
88.347740,70.264034
88.347739,70.264033
88.347735,70.264032
88.274677,70.249500
88.274674,70.249500
85.475326,70.249500
85.475323,70.249500
85.402264,70.264032
85.402260,70.264033
85.319399,70.319399
85.264033,70.402260
85.264032,70.402264
85.249500,70.475321
85.249500,71.524678
85.264032,71.597735
85.264033,71.597739
85.287746,71.633228
85.308623,71.699906
85.300585,71.746089
85.263763,71.843181
85.244722,71.999999
85.244722,72.000000
69.355659,72.000000
69.335063,71.764592
69.273903,71.536337
69.174035,71.322171
69.174034,71.322169
69.038494,71.128597
68.871402,70.961505
68.677830,70.825965
68.677828,70.825964
68.570746,70.776030
68.463663,70.726097
68.463659,70.726096
68.463655,70.726094
68.235413,70.664938
68.235403,70.664936
68.058967,70.649500
68.058966,70.649500
67.941034,70.649500
67.941033,70.649500
67.764596,70.664936
67.764586,70.664938
67.536344,70.726094
67.536335,70.726098
67.322171,70.825964
67.322169,70.825965
67.128597,70.961505
66.961506,71.128597
66.961501,71.128604
66.825967,71.322165
66.825965,71.322169
66.726098,71.536335
66.726094,71.536344
66.664938,71.764586
66.664936,71.764596
66.644341,71.999999
66.644341,72.000000
65.000500,72.000000
65.000500,68.384271
84.419633,68.384271
84.424023,68.419491
84.424500,68.427167
84.424500,68.431116
84.428129,68.452865
84.428498,68.455399
84.435134,68.508626
84.437373,68.516147
84.439935,68.523611
84.452677,68.547157
84.465447,68.570754
84.466609,68.573011
84.490172,68.621208
84.494742,68.627609
84.499581,68.633826
84.539053,68.670163
84.540874,68.671911
85.097849,69.228886
85.113977,69.248745
85.119916,69.257836
85.147932,69.279641
85.153693,69.284730
85.156482,69.287519
85.174432,69.300335
85.176488,69.301867
85.201663,69.321462
85.242476,69.378173
85.249500,69.419315
85.249500,69.524678
85.264032,69.597735
85.264033,69.597739
85.264034,69.597740
85.319399,69.680601
85.402260,69.735966
85.402264,69.735967
85.475321,69.750499
85.475324,69.750500
85.475326,69.750500
88.274676,69.750500
88.274677,69.750499
88.347740,69.735966
88.430601,69.680601
88.485966,69.597740
88.500500,69.524674
88.500500,68.475326
88.500500,68.475325
88.500500,68.475323
88.500499,68.475321
88.485967,68.402264
88.485966,68.402260
88.466843,68.373640
88.430601,68.319399
88.347740,68.264034
88.347739,68.264033
88.347735,68.264032
88.274677,68.249500
88.274674,68.249500
85.475326,68.249500
85.475323,68.249500
85.402264,68.264032
85.402258,68.264034
85.368388,68.286665
85.301710,68.307541
85.234331,68.289055
85.187642,68.237075
85.175500,68.183561
85.175500,68.125500
85.175500,67.306894
85.195183,67.239859
85.211809,67.219227
87.028889,65.402146
87.048746,65.386022
87.057836,65.380084
87.079638,65.352071
87.084733,65.346303
87.087519,65.343518
87.100372,65.325514
87.101843,65.323541
87.134809,65.281189
87.134810,65.281183
87.138547,65.274280
87.142006,65.267203
87.142010,65.267199
87.157319,65.215772
87.158073,65.213419
87.175500,65.162660
87.175500,65.162656
87.176790,65.154924
87.177768,65.147085
87.175553,65.093527
87.175500,65.090964
87.175500,64.499500
87.195185,64.432461
87.247989,64.386706
87.299500,64.375500
88.073196,64.375500
88.098641,64.378139
88.101724,64.378785
88.109268,64.380367
88.110157,64.380256
88.111371,64.380453
88.119538,64.380792
88.119497,64.381778
88.179117,64.391494
88.231054,64.438231
88.249500,64.503303
88.249500,64.524678
88.264032,64.597735
88.264033,64.597739
88.264034,64.597740
88.319399,64.680601
88.392303,64.729313
88.402260,64.735966
88.402264,64.735967
88.475321,64.750499
88.475324,64.750500
88.475326,64.750500
89.524676,64.750500
89.524677,64.750499
89.597740,64.735966
89.680601,64.680601
89.735966,64.597740
89.750500,64.524674
89.750500,61.799500
89.770185,61.732461
89.822989,61.686706
89.874500,61.675500
90.125500,61.675500
90.192539,61.695185
90.238294,61.747989
90.249500,61.799500
90.249500,64.524678
90.264032,64.597735
90.264033,64.597739
90.264034,64.597740
90.319399,64.680601
90.392303,64.729313
90.402260,64.735966
90.402264,64.735967
90.475321,64.750499
90.475324,64.750500
90.475326,64.750500
91.524676,64.750500
91.524677,64.750499
91.597740,64.735966
91.630719,64.713930
91.697394,64.693053
91.757234,64.707237
91.767635,64.712696
91.862043,64.735965
91.921014,64.750500
91.921015,64.750500
92.078985,64.750500
92.232365,64.712696
92.242872,64.707181
92.311377,64.693454
92.376431,64.718943
92.417378,64.775557
92.424500,64.816976
92.424500,68.125500
92.404815,68.192539
92.352011,68.238294
92.300500,68.249500
91.725323,68.249500
91.652264,68.264032
91.652260,68.264033
91.569399,68.319399
91.514033,68.402260
91.514032,68.402264
91.499500,68.475321
91.499500,69.524678
91.514032,69.597735
91.514033,69.597739
91.514034,69.597740
91.569399,69.680601
91.652259,69.735966
91.652260,69.735966
91.652264,69.735967
91.725321,69.750499
91.725324,69.750500
91.725326,69.750500
94.524676,69.750500
94.524677,69.750499
94.597740,69.735966
94.680601,69.680601
94.735966,69.597740
94.750500,69.524674
94.750500,68.475326
94.750500,68.475325
94.750500,68.475323
94.750499,68.475321
94.735967,68.402264
94.735966,68.402260
94.716843,68.373640
94.680601,68.319399
94.597740,68.264034
94.597739,68.264033
94.597735,68.264032
94.524677,68.249500
94.524674,68.249500
93.299500,68.249500
93.232461,68.229815
93.186706,68.177011
93.175500,68.125500
93.175500,61.318090
93.175712,61.312968
93.179392,61.268563
93.168449,61.225352
93.167401,61.220357
93.160065,61.176390
93.159874,61.176038
93.148726,61.147463
93.148628,61.147079
93.148628,61.147078
93.124252,61.109768
93.121627,61.105364
93.100419,61.066174
93.100129,61.065907
93.080297,61.042491
93.080084,61.042164
93.080082,61.042162
93.044913,61.014789
93.041006,61.011480
93.030215,61.001546
93.008217,60.981294
93.007848,60.981133
92.981505,60.965437
92.981189,60.965191
92.939038,60.950720
92.934263,60.948857
92.893458,60.930958
92.893446,60.930955
92.893044,60.930922
92.863042,60.924631
92.862660,60.924500
92.818091,60.924500
92.812976,60.924288
92.803881,60.923534
92.768565,60.920607
92.768373,60.920655
92.768174,60.920706
92.737737,60.924500
88.499500,60.924500
88.432461,60.904815
88.386706,60.852011
88.375500,60.800500
88.375500,58.624500
88.395185,58.557461
88.447989,58.511706
88.499500,58.500500
89.524676,58.500500
89.524677,58.500499
89.597740,58.485966
89.680601,58.430601
89.735966,58.347740
89.750500,58.274674
89.750500,57.125000
90.000000,57.125000
90.000000,58.297844
90.006401,58.357372
90.006403,58.357379
90.056645,58.492086
90.056649,58.492093
90.142809,58.607187
90.142812,58.607190
90.257906,58.693350
90.257913,58.693354
90.392620,58.743596
90.392627,58.743598
90.452155,58.749999
90.452172,58.750000
90.750000,58.750000
90.750000,57.125000
91.250000,57.125000
91.250000,58.750000
91.547828,58.750000
91.547844,58.749999
91.607372,58.743598
91.607379,58.743596
91.742086,58.693354
91.742093,58.693350
91.857187,58.607190
91.857190,58.607187
91.943350,58.492093
91.943354,58.492086
91.993596,58.357379
91.993598,58.357372
91.999999,58.297844
92.000000,58.297827
92.000000,57.125000
91.250000,57.125000
90.750000,57.125000
90.000000,57.125000
89.750500,57.125000
89.750500,56.625000
90.000000,56.625000
90.750000,56.625000
90.750000,55.000000
91.250000,55.000000
91.250000,56.625000
92.000000,56.625000
92.000000,55.452172
91.999999,55.452155
91.993598,55.392627
91.993596,55.392620
91.943354,55.257913
91.943350,55.257906
91.857190,55.142812
91.857187,55.142809
91.742093,55.056649
91.742086,55.056645
91.607379,55.006403
91.607372,55.006401
91.547844,55.000000
91.250000,55.000000
90.750000,55.000000
90.452155,55.000000
90.392627,55.006401
90.392620,55.006403
90.257913,55.056645
90.257906,55.056649
90.142812,55.142809
90.142809,55.142812
90.056649,55.257906
90.056645,55.257913
90.006403,55.392620
90.006401,55.392627
90.000000,55.452155
90.000000,56.625000
89.750500,56.625000
89.750500,55.475326
89.750500,55.475323
89.750499,55.475321
89.735967,55.402264
89.735966,55.402260
89.735965,55.402259
89.680601,55.319399
89.597740,55.264034
89.597739,55.264033
89.597735,55.264032
89.524677,55.249500
89.524674,55.249500
88.475326,55.249500
88.475323,55.249500
88.402264,55.264032
88.402260,55.264033
88.319399,55.319399
88.264033,55.402260
88.264032,55.402264
88.249500,55.475321
88.249500,56.371571
88.229815,56.438610
88.177011,56.484365
88.140840,56.494618
88.105509,56.499023
88.097831,56.499500
88.093886,56.499500
88.072126,56.503130
88.069603,56.503498
88.016371,56.510134
88.008857,56.512371
88.001387,56.514935
87.954246,56.540447
87.951970,56.541618
87.903792,56.565171
87.897382,56.569748
87.891175,56.574580
87.854865,56.614020
87.853093,56.615868
87.771108,56.697852
87.751254,56.713976
87.742165,56.719914
87.742164,56.719915
87.720363,56.747923
87.715286,56.753674
87.712484,56.756477
87.712474,56.756489
87.699658,56.774439
87.698127,56.776492
87.665192,56.818808
87.661447,56.825729
87.657988,56.832804
87.642692,56.884182
87.641911,56.886621
87.624500,56.937338
87.623206,56.945092
87.622231,56.952911
87.624447,57.006472
87.624500,57.009034
87.624500,61.160231
87.604815,61.227270
87.558129,61.270026
87.537760,61.280716
87.537760,61.280717
87.419516,61.385471
87.329781,61.515475
87.329780,61.515476
87.273762,61.663181
87.254722,61.819999
87.254722,61.820000
87.273762,61.976818
87.329779,62.124523
87.329780,62.124523
87.419517,62.254530
87.537760,62.359283
87.537762,62.359284
87.677634,62.432696
87.831014,62.470500
87.831015,62.470500
87.988985,62.470500
88.095827,62.444166
88.165627,62.447235
88.222689,62.487555
88.248895,62.552324
88.249500,62.564563
88.249500,63.293100
88.229815,63.360139
88.213181,63.380781
88.005781,63.588181
87.944458,63.621666
87.918100,63.624500
87.568107,63.624500
87.501068,63.604815
87.455313,63.552011
87.445011,63.515446
87.436237,63.443182
87.380220,63.295477
87.290483,63.165470
87.172240,63.060717
87.172238,63.060716
87.172237,63.060715
87.032365,62.987303
86.878986,62.949500
86.878985,62.949500
86.721015,62.949500
86.721014,62.949500
86.567634,62.987303
86.427762,63.060715
86.309516,63.165471
86.219781,63.295475
86.219780,63.295476
86.163762,63.443181
86.144722,63.599999
86.144722,63.600000
86.163762,63.756818
86.219780,63.904523
86.219781,63.904524
86.309517,64.034531
86.382726,64.099386
86.419853,64.158574
86.424500,64.192202
86.424500,64.893099
86.404815,64.960138
86.388181,64.980780
84.571108,66.797852
84.551254,66.813976
84.542165,66.819914
84.542164,66.819915
84.520363,66.847923
84.515286,66.853674
84.512484,66.856477
84.512474,66.856489
84.499658,66.874439
84.498127,66.876492
84.465192,66.918808
84.461447,66.925729
84.457988,66.932804
84.442692,66.984182
84.441911,66.986621
84.424500,67.037338
84.423206,67.045092
84.422231,67.052911
84.424447,67.106472
84.424500,67.109034
84.424500,68.348196
84.421862,68.373634
84.419633,68.384268
84.419633,68.384269
84.419633,68.384271
65.000500,68.384271
65.000500,60.000010
73.894548,60.000010
73.914344,60.491268
73.914346,60.491284
73.973612,60.979388
74.071962,61.461136
74.208757,61.933407
74.383114,62.393143
74.593894,62.837351
74.839734,63.263158
74.839739,63.263164
74.862043,63.295477
75.077081,63.607014
75.119049,63.667814
75.429991,64.048649
75.430000,64.048659
75.430004,64.048664
75.749965,64.381778
75.770607,64.403269
75.770612,64.403274
76.138630,64.729310
76.255293,64.816976
76.531708,65.024688
76.947274,65.287477
76.947277,65.287479
76.947281,65.287481
77.096686,65.365894
77.382638,65.515973
77.834977,65.708697
78.301357,65.864397
78.778753,65.982065
78.778767,65.982067
78.778774,65.982069
79.227715,66.055028
79.264069,66.060936
79.754158,66.100500
79.754168,66.100500
80.245832,66.100500
80.245842,66.100500
80.735931,66.060936
80.884532,66.036786
81.221225,65.982069
81.221229,65.982067
81.221247,65.982065
81.698643,65.864397
82.165023,65.708697
82.617362,65.515973
83.052726,65.287477
83.468292,65.024688
83.861365,64.729313
83.861364,64.729313
83.861369,64.729310
84.229387,64.403274
84.229386,64.403274
84.229395,64.403267
84.569996,64.048664
84.880959,63.667803
85.160267,63.263155
85.406109,62.837345
85.616890,62.393133
85.791244,61.933401
85.928039,61.461130
86.026388,60.979383
86.085654,60.491285
86.085655,60.491268
86.105452,60.000010
86.105452,59.999989
86.085655,59.508731
86.085654,59.508726
86.085654,59.508715
86.026388,59.020617
85.928039,58.538870
85.896679,58.430601
85.791242,58.066592
85.714261,57.863613
85.616890,57.606867
85.406109,57.162655
85.276022,56.937338
85.160265,56.736841
85.160260,56.736835
85.144482,56.713976
84.880959,56.332197
84.880954,56.332191
84.880950,56.332185
84.570008,55.951350
84.569992,55.951332
84.229392,55.596730
84.229387,55.596725
83.861369,55.270689
83.664828,55.122999
83.468292,54.975312
83.052726,54.712523
83.052725,54.712522
83.052718,54.712518
82.617356,54.484024
82.439815,54.408381
82.165023,54.291303
82.165015,54.291300
82.165012,54.291299
81.934540,54.214356
81.698643,54.135603
81.698639,54.135602
81.698632,54.135600
81.515704,54.090512
81.221247,54.017935
81.221241,54.017934
81.221237,54.017933
81.221225,54.017930
80.735936,53.939064
80.245851,53.899500
80.245842,53.899500
79.754158,53.899500
79.754148,53.899500
79.264063,53.939064
78.778774,54.017930
78.778762,54.017933
78.778755,54.017934
78.778753,54.017935
78.755092,54.023767
78.301367,54.135600
78.301360,54.135602
77.834987,54.291299
77.834979,54.291302
77.834977,54.291303
77.730691,54.335734
77.382643,54.484024
76.947281,54.712518
76.531713,54.975308
76.531711,54.975310
76.138630,55.270689
75.770612,55.596725
75.770607,55.596730
75.430007,55.951332
75.429991,55.951350
75.119049,56.332185
74.839739,56.736835
74.839734,56.736841
74.593894,57.162648
74.383114,57.606856
74.208757,58.066592
74.071962,58.538863
73.973612,59.020611
73.914346,59.508715
73.914344,59.508731
73.894548,59.999989
73.894548,60.000010
65.000500,60.000010
65.000500,48.000000
66.644341,48.000000
66.664936,48.235403
66.664938,48.235413
66.726094,48.463655
66.726096,48.463659
66.726097,48.463663
66.776030,48.570746
66.825964,48.677828
66.825965,48.677830
66.961505,48.871402
67.128597,49.038494
67.322169,49.174034
67.322171,49.174035
67.536337,49.273903
67.764592,49.335063
67.941032,49.350499
67.941033,49.350500
67.941034,49.350500
68.058967,49.350500
68.058967,49.350499
68.235408,49.335063
68.463663,49.273903
68.677829,49.174035
68.871401,49.038495
69.038495,48.871401
69.174035,48.677830
69.273903,48.463663
69.335063,48.235408
69.355659,48.000000
90.644341,48.000000
90.664936,48.235403
90.664938,48.235413
90.726094,48.463655
90.726096,48.463659
90.726097,48.463663
90.776031,48.570745
90.825964,48.677828
90.825965,48.677830
90.961505,48.871402
91.128597,49.038494
91.322169,49.174034
91.322171,49.174035
91.536337,49.273903
91.764592,49.335063
91.941032,49.350499
91.941033,49.350500
91.941034,49.350500
92.058967,49.350500
92.058967,49.350499
92.235408,49.335063
92.463663,49.273903
92.677829,49.174035
92.871401,49.038495
93.038495,48.871401
93.174035,48.677830
93.273903,48.463663
93.335063,48.235408
93.355659,48.000000
93.335063,47.764592
93.273903,47.536337
93.174035,47.322171
93.174034,47.322169
93.038494,47.128597
92.871402,46.961505
92.677830,46.825965
92.677828,46.825964
92.570746,46.776031
92.463663,46.726097
92.463659,46.726096
92.463655,46.726094
92.235413,46.664938
92.235403,46.664936
92.058967,46.649500
92.058966,46.649500
91.941034,46.649500
91.941033,46.649500
91.764596,46.664936
91.764586,46.664938
91.536344,46.726094
91.536335,46.726098
91.322171,46.825964
91.322169,46.825965
91.128597,46.961505
90.961506,47.128597
90.961501,47.128604
90.825967,47.322165
90.825965,47.322169
90.726098,47.536335
90.726094,47.536344
90.664938,47.764586
90.664936,47.764596
90.644341,47.999999
90.644341,48.000000
69.355659,48.000000
69.335063,47.764592
69.273903,47.536337
69.174035,47.322171
69.174034,47.322169
69.038494,47.128597
68.871402,46.961505
68.677830,46.825965
68.677828,46.825964
68.570745,46.776031
68.463663,46.726097
68.463659,46.726096
68.463655,46.726094
68.235413,46.664938
68.235403,46.664936
68.058967,46.649500
68.058966,46.649500
67.941034,46.649500
67.941033,46.649500
67.764596,46.664936
67.764586,46.664938
67.536344,46.726094
67.536335,46.726098
67.322171,46.825964
67.322169,46.825965
67.128597,46.961505
66.961506,47.128597
66.961501,47.128604
66.825967,47.322165
66.825965,47.322169
66.726098,47.536335
66.726094,47.536344
66.664938,47.764586
66.664936,47.764596
66.644341,47.999999
66.644341,48.000000
65.000500,48.000000
65.000500,46.002704
65.000736,45.997299
65.004477,45.954532
65.016918,45.828221
65.020541,45.808314
65.038165,45.742540
65.038655,45.740822
65.066685,45.648419
65.072948,45.632049
65.104413,45.564573
65.105872,45.561653
65.150764,45.477666
65.154657,45.471331
65.187837,45.423945
65.200994,45.405155
65.203827,45.401420
65.263122,45.329168
65.267162,45.324710
65.324710,45.267162
65.329168,45.263122
65.401420,45.203827
65.405155,45.200994
65.471334,45.154654
65.477666,45.150764
65.561653,45.105872
65.564573,45.104413
65.632049,45.072948
65.648419,45.066685
65.740822,45.038655
65.742540,45.038165
65.808318,45.020540
65.828221,45.016918
65.941812,45.005731
65.954568,45.004474
65.997305,45.000735
66.002706,45.000500
93.997292,45.000500
Z" /> 
</g>
</g>
</g> 
</svg>
