<?xml version="1.0" standalone="no"?>
 <!DOCTYPE svg PUBLIC "-//W3C//DTD SVG 1.1//EN" 
 "http://www.w3.org/Graphics/SVG/1.1/DTD/svg11.dtd"> 
<svg
  xmlns:svg="http://www.w3.org/2000/svg"
  xmlns="http://www.w3.org/2000/svg"
  xmlns:xlink="http://www.w3.org/1999/xlink"
  version="1.1"
  width="3.8100000000000005cm" height="3.0100000000000002cm" viewBox="64.95 44.95 38.1 30.1">
<title>SVG Image created as pedalboard-led-ring-B_Cu.svg date 2023/05/26 14:21:06 </title>
  <desc>Image generated by PCBNEW </desc>
<g style="fill:#000000; fill-opacity:1.000000;stroke:#000000; stroke-opacity:1.000000;
stroke-linecap:round; stroke-linejoin:round;"
 transform="translate(0 0) scale(1 1)">
</g>
<g style="fill:#000000; fill-opacity:0.0; 
stroke:#000000; stroke-width:0.000000; stroke-opacity:1; 
stroke-linecap:round; stroke-linejoin:round;">
<g >
</g>
<g >
</g>
<g >
</g>
<g >
</g>
<g >
</g>
<g >
</g>
<g >
</g>
<g style="fill:#000000; fill-opacity:0.0; 
stroke:#000000; stroke-width:0.000000; stroke-opacity:1; 
stroke-linecap:round; stroke-linejoin:round;">
</g>
<g style="fill:#000000; fill-opacity:0.0; 
stroke:#000000; stroke-width:0.000000; stroke-opacity:1; 
stroke-linecap:round; stroke-linejoin:round;">
</g>
<g style="fill:#000000; fill-opacity:1.000000; 
stroke:#000000; stroke-width:0.000000; stroke-opacity:1; 
stroke-linecap:round; stroke-linejoin:round;">
<path style="fill:#000000; fill-opacity:1.000000; 
stroke:#000000; stroke-width:0.000000; stroke-opacity:1; 
stroke-linecap:round; stroke-linejoin:round;fill-rule:evenodd;"
d="M 91.450000,54.555000
91.461418,54.497597
91.493934,54.448934
91.542597,54.416418
91.600000,54.405000
93.250000,54.405000
93.307403,54.416418
93.356066,54.448934
93.388582,54.497597
93.400000,54.555000
93.400000,54.855000
93.388582,54.912403
93.356066,54.961066
93.307403,54.993582
93.250000,55.005000
91.600000,55.005000
91.542597,54.993582
91.493934,54.961066
91.461418,54.912403
91.450000,54.855000
Z" /> 
<path style="fill:#000000; fill-opacity:1.000000; 
stroke:#000000; stroke-width:0.000000; stroke-opacity:1; 
stroke-linecap:round; stroke-linejoin:round;fill-rule:evenodd;"
d="M 91.450000,53.285000
91.461418,53.227597
91.493934,53.178934
91.542597,53.146418
91.600000,53.135000
93.250000,53.135000
93.307403,53.146418
93.356066,53.178934
93.388582,53.227597
93.400000,53.285000
93.400000,53.585000
93.388582,53.642403
93.356066,53.691066
93.307403,53.723582
93.250000,53.735000
91.600000,53.735000
91.542597,53.723582
91.493934,53.691066
91.461418,53.642403
91.450000,53.585000
Z" /> 
<path style="fill:#000000; fill-opacity:1.000000; 
stroke:#000000; stroke-width:0.000000; stroke-opacity:1; 
stroke-linecap:round; stroke-linejoin:round;fill-rule:evenodd;"
d="M 91.450000,52.015000
91.461418,51.957597
91.493934,51.908934
91.542597,51.876418
91.600000,51.865000
93.250000,51.865000
93.307403,51.876418
93.356066,51.908934
93.388582,51.957597
93.400000,52.015000
93.400000,52.315000
93.388582,52.372403
93.356066,52.421066
93.307403,52.453582
93.250000,52.465000
91.600000,52.465000
91.542597,52.453582
91.493934,52.421066
91.461418,52.372403
91.450000,52.315000
Z" /> 
<path style="fill:#000000; fill-opacity:1.000000; 
stroke:#000000; stroke-width:0.000000; stroke-opacity:1; 
stroke-linecap:round; stroke-linejoin:round;fill-rule:evenodd;"
d="M 91.450000,50.745000
91.461418,50.687597
91.493934,50.638934
91.542597,50.606418
91.600000,50.595000
93.250000,50.595000
93.307403,50.606418
93.356066,50.638934
93.388582,50.687597
93.400000,50.745000
93.400000,51.045000
93.388582,51.102403
93.356066,51.151066
93.307403,51.183582
93.250000,51.195000
91.600000,51.195000
91.542597,51.183582
91.493934,51.151066
91.461418,51.102403
91.450000,51.045000
Z" /> 
<path style="fill:#000000; fill-opacity:1.000000; 
stroke:#000000; stroke-width:0.000000; stroke-opacity:1; 
stroke-linecap:round; stroke-linejoin:round;fill-rule:evenodd;"
d="M 96.400000,50.745000
96.411418,50.687597
96.443934,50.638934
96.492597,50.606418
96.550000,50.595000
98.200000,50.595000
98.257403,50.606418
98.306066,50.638934
98.338582,50.687597
98.350000,50.745000
98.350000,51.045000
98.338582,51.102403
98.306066,51.151066
98.257403,51.183582
98.200000,51.195000
96.550000,51.195000
96.492597,51.183582
96.443934,51.151066
96.411418,51.102403
96.400000,51.045000
Z" /> 
<path style="fill:#000000; fill-opacity:1.000000; 
stroke:#000000; stroke-width:0.000000; stroke-opacity:1; 
stroke-linecap:round; stroke-linejoin:round;fill-rule:evenodd;"
d="M 96.400000,52.015000
96.411418,51.957597
96.443934,51.908934
96.492597,51.876418
96.550000,51.865000
98.200000,51.865000
98.257403,51.876418
98.306066,51.908934
98.338582,51.957597
98.350000,52.015000
98.350000,52.315000
98.338582,52.372403
98.306066,52.421066
98.257403,52.453582
98.200000,52.465000
96.550000,52.465000
96.492597,52.453582
96.443934,52.421066
96.411418,52.372403
96.400000,52.315000
Z" /> 
<path style="fill:#000000; fill-opacity:1.000000; 
stroke:#000000; stroke-width:0.000000; stroke-opacity:1; 
stroke-linecap:round; stroke-linejoin:round;fill-rule:evenodd;"
d="M 96.400000,53.285000
96.411418,53.227597
96.443934,53.178934
96.492597,53.146418
96.550000,53.135000
98.200000,53.135000
98.257403,53.146418
98.306066,53.178934
98.338582,53.227597
98.350000,53.285000
98.350000,53.585000
98.338582,53.642403
98.306066,53.691066
98.257403,53.723582
98.200000,53.735000
96.550000,53.735000
96.492597,53.723582
96.443934,53.691066
96.411418,53.642403
96.400000,53.585000
Z" /> 
<path style="fill:#000000; fill-opacity:1.000000; 
stroke:#000000; stroke-width:0.000000; stroke-opacity:1; 
stroke-linecap:round; stroke-linejoin:round;fill-rule:evenodd;"
d="M 96.400000,54.555000
96.411418,54.497597
96.443934,54.448934
96.492597,54.416418
96.550000,54.405000
98.200000,54.405000
98.257403,54.416418
98.306066,54.448934
98.338582,54.497597
98.350000,54.555000
98.350000,54.855000
98.338582,54.912403
98.306066,54.961066
98.257403,54.993582
98.200000,55.005000
96.550000,55.005000
96.492597,54.993582
96.443934,54.961066
96.411418,54.912403
96.400000,54.855000
Z" /> 
</g>
<g >
</g>
<g style="fill:#000000; fill-opacity:1.000000; 
stroke:#000000; stroke-width:0.000000; stroke-opacity:1; 
stroke-linecap:round; stroke-linejoin:round;">
<path style="fill:#000000; fill-opacity:1.000000; 
stroke:#000000; stroke-width:0.000000; stroke-opacity:1; 
stroke-linecap:round; stroke-linejoin:round;fill-rule:evenodd;"
d="M 87.603536,65.596464
87.605000,65.600000
87.605000,67.600000
87.603536,67.603536
87.600000,67.605000
86.600000,67.605000
86.596464,67.603536
86.595000,67.600000
86.595000,67.105000
85.500000,67.105000
85.496464,67.103536
85.495000,67.100000
85.495000,66.100000
85.496464,66.096464
85.500000,66.095000
86.595000,66.095000
86.595000,65.600000
86.596464,65.596464
86.600000,65.595000
87.600000,65.595000
Z" /> 
<path style="fill:#000000; fill-opacity:1.000000; 
stroke:#000000; stroke-width:0.000000; stroke-opacity:1; 
stroke-linecap:round; stroke-linejoin:round;fill-rule:evenodd;"
d="M 89.903536,65.596464
89.905000,65.600000
89.905000,66.095000
91.000000,66.095000
91.003536,66.096464
91.005000,66.100000
91.005000,67.100000
91.003536,67.103536
91.000000,67.105000
89.905000,67.105000
89.905000,67.600000
89.903536,67.603536
89.900000,67.605000
88.900000,67.605000
88.896464,67.603536
88.895000,67.600000
88.895000,65.600000
88.896464,65.596464
88.900000,65.595000
89.900000,65.595000
Z" /> 
</g>
<g >
</g>
<g style="fill:#000000; fill-opacity:1.000000; 
stroke:#000000; stroke-width:0.000000; stroke-opacity:1; 
stroke-linecap:round; stroke-linejoin:round;">
<path style="fill:#000000; fill-opacity:1.000000; 
stroke:#000000; stroke-width:0.000000; stroke-opacity:1; 
stroke-linecap:round; stroke-linejoin:round;fill-rule:evenodd;"
d="M 89.675000,58.950000
89.694030,58.854329
89.748223,58.773223
89.829329,58.719030
89.925000,58.700000
90.750000,58.700000
90.845671,58.719030
90.926777,58.773223
90.980970,58.854329
91.000000,58.950000
91.000000,60.250000
90.980970,60.345671
90.926777,60.426777
90.845671,60.480970
90.750000,60.500000
89.925000,60.500000
89.829329,60.480970
89.748223,60.426777
89.694030,60.345671
89.675000,60.250000
Z" /> 
<path style="fill:#000000; fill-opacity:1.000000; 
stroke:#000000; stroke-width:0.000000; stroke-opacity:1; 
stroke-linecap:round; stroke-linejoin:round;fill-rule:evenodd;"
d="M 92.800000,58.950000
92.819030,58.854329
92.873223,58.773223
92.954329,58.719030
93.050000,58.700000
93.875000,58.700000
93.970671,58.719030
94.051777,58.773223
94.105970,58.854329
94.125000,58.950000
94.125000,60.250000
94.105970,60.345671
94.051777,60.426777
93.970671,60.480970
93.875000,60.500000
93.050000,60.500000
92.954329,60.480970
92.873223,60.426777
92.819030,60.345671
92.800000,60.250000
Z" /> 
</g>
<g >
</g>
<g style="fill:#000000; fill-opacity:1.000000; 
stroke:#000000; stroke-width:0.000000; stroke-opacity:1; 
stroke-linecap:round; stroke-linejoin:round;">
<path style="fill:#000000; fill-opacity:1.000000; 
stroke:#000000; stroke-width:0.000000; stroke-opacity:1; 
stroke-linecap:round; stroke-linejoin:round;fill-rule:evenodd;"
d="M 92.560000,69.020000
93.560000,69.020000
93.560000,72.020000
92.560000,72.020000
Z" /> 
<path style="fill:#000000; fill-opacity:1.000000; 
stroke:#000000; stroke-width:0.000000; stroke-opacity:1; 
stroke-linecap:round; stroke-linejoin:round;fill-rule:evenodd;"
d="M 92.560000,63.980000
93.560000,63.980000
93.560000,66.980000
92.560000,66.980000
Z" /> 
<path style="fill:#000000; fill-opacity:1.000000; 
stroke:#000000; stroke-width:0.000000; stroke-opacity:1; 
stroke-linecap:round; stroke-linejoin:round;fill-rule:evenodd;"
d="M 95.100000,69.020000
96.100000,69.020000
96.100000,72.020000
95.100000,72.020000
Z" /> 
<path style="fill:#000000; fill-opacity:1.000000; 
stroke:#000000; stroke-width:0.000000; stroke-opacity:1; 
stroke-linecap:round; stroke-linejoin:round;fill-rule:evenodd;"
d="M 95.100000,63.980000
96.100000,63.980000
96.100000,66.980000
95.100000,66.980000
Z" /> 
<path style="fill:#000000; fill-opacity:1.000000; 
stroke:#000000; stroke-width:0.000000; stroke-opacity:1; 
stroke-linecap:round; stroke-linejoin:round;fill-rule:evenodd;"
d="M 97.640000,69.020000
98.640000,69.020000
98.640000,72.020000
97.640000,72.020000
Z" /> 
<path style="fill:#000000; fill-opacity:1.000000; 
stroke:#000000; stroke-width:0.000000; stroke-opacity:1; 
stroke-linecap:round; stroke-linejoin:round;fill-rule:evenodd;"
d="M 97.640000,63.980000
98.640000,63.980000
98.640000,66.980000
97.640000,66.980000
Z" /> 
</g>
<g >
</g>
<g style="fill:#000000; fill-opacity:1.000000; 
stroke:#000000; stroke-width:0.000000; stroke-opacity:1; 
stroke-linecap:round; stroke-linejoin:round;">
<path style="fill:#000000; fill-opacity:1.000000; 
stroke:#000000; stroke-width:0.000000; stroke-opacity:1; 
stroke-linecap:round; stroke-linejoin:round;fill-rule:evenodd;"
d="M 83.500000,70.650000
84.500000,70.650000
84.500000,71.650000
83.500000,71.650000
Z" /> 
<path style="fill:#000000; fill-opacity:1.000000; 
stroke:#000000; stroke-width:0.000000; stroke-opacity:1; 
stroke-linecap:round; stroke-linejoin:round;fill-rule:evenodd;"
d="M 83.500000,72.350000
84.500000,72.350000
84.500000,73.350000
83.500000,73.350000
Z" /> 
</g>
<g >
</g>
<g style="fill:#000000; fill-opacity:1.000000; 
stroke:#000000; stroke-width:0.000000; stroke-opacity:1; 
stroke-linecap:round; stroke-linejoin:round;">
<path style="fill:#000000; fill-opacity:1.000000; 
stroke:#000000; stroke-width:0.000000; stroke-opacity:1; 
stroke-linecap:round; stroke-linejoin:round;fill-rule:evenodd;"
d="M 100.300000,53.950000
99.300000,53.950000
99.300000,52.950000
100.300000,52.950000
Z" /> 
<path style="fill:#000000; fill-opacity:1.000000; 
stroke:#000000; stroke-width:0.000000; stroke-opacity:1; 
stroke-linecap:round; stroke-linejoin:round;fill-rule:evenodd;"
d="M 100.300000,52.250000
99.300000,52.250000
99.300000,51.250000
100.300000,51.250000
Z" /> 
</g>
<g >
</g>
<g style="fill:#000000; fill-opacity:1.000000; 
stroke:#000000; stroke-width:0.000000; stroke-opacity:1; 
stroke-linecap:round; stroke-linejoin:round;">
<path style="fill:#000000; fill-opacity:1.000000; 
stroke:#000000; stroke-width:0.000000; stroke-opacity:1; 
stroke-linecap:round; stroke-linejoin:round;fill-rule:evenodd;"
d="M 87.675000,71.125000
87.675000,71.375000
86.975000,71.375000
86.975000,71.125000
Z" /> 
<path style="fill:#000000; fill-opacity:1.000000; 
stroke:#000000; stroke-width:0.000000; stroke-opacity:1; 
stroke-linecap:round; stroke-linejoin:round;fill-rule:evenodd;"
d="M 87.675000,71.625000
87.675000,71.875000
86.975000,71.875000
86.975000,71.625000
Z" /> 
<path style="fill:#000000; fill-opacity:1.000000; 
stroke:#000000; stroke-width:0.000000; stroke-opacity:1; 
stroke-linecap:round; stroke-linejoin:round;fill-rule:evenodd;"
d="M 87.675000,72.125000
87.675000,72.375000
86.975000,72.375000
86.975000,72.125000
Z" /> 
<path style="fill:#000000; fill-opacity:1.000000; 
stroke:#000000; stroke-width:0.000000; stroke-opacity:1; 
stroke-linecap:round; stroke-linejoin:round;fill-rule:evenodd;"
d="M 87.675000,72.625000
87.675000,72.875000
86.975000,72.875000
86.975000,72.625000
Z" /> 
<path style="fill:#000000; fill-opacity:1.000000; 
stroke:#000000; stroke-width:0.000000; stroke-opacity:1; 
stroke-linecap:round; stroke-linejoin:round;fill-rule:evenodd;"
d="M 85.825000,72.625000
85.825000,72.875000
85.125000,72.875000
85.125000,72.625000
Z" /> 
<path style="fill:#000000; fill-opacity:1.000000; 
stroke:#000000; stroke-width:0.000000; stroke-opacity:1; 
stroke-linecap:round; stroke-linejoin:round;fill-rule:evenodd;"
d="M 85.825000,72.125000
85.825000,72.375000
85.125000,72.375000
85.125000,72.125000
Z" /> 
<path style="fill:#000000; fill-opacity:1.000000; 
stroke:#000000; stroke-width:0.000000; stroke-opacity:1; 
stroke-linecap:round; stroke-linejoin:round;fill-rule:evenodd;"
d="M 85.825000,71.625000
85.825000,71.875000
85.125000,71.875000
85.125000,71.625000
Z" /> 
<path style="fill:#000000; fill-opacity:1.000000; 
stroke:#000000; stroke-width:0.000000; stroke-opacity:1; 
stroke-linecap:round; stroke-linejoin:round;fill-rule:evenodd;"
d="M 85.825000,71.125000
85.825000,71.375000
85.125000,71.375000
85.125000,71.125000
Z" /> 
<path style="fill:#000000; fill-opacity:1.000000; 
stroke:#000000; stroke-width:0.000000; stroke-opacity:1; 
stroke-linecap:round; stroke-linejoin:round;fill-rule:evenodd;"
d="M 86.705000,70.900000
86.705000,73.100000
86.095000,73.100000
86.095000,70.900000
Z" /> 
</g>
<g >
</g>
<g style="fill:#000000; fill-opacity:1.000000; 
stroke:#000000; stroke-width:0.000000; stroke-opacity:1; 
stroke-linecap:round; stroke-linejoin:round;">
<path style="fill:#000000; fill-opacity:1.000000; 
stroke:#000000; stroke-width:0.000000; stroke-opacity:1; 
stroke-linecap:round; stroke-linejoin:round;fill-rule:evenodd;"
d="M 98.275000,55.875000
98.370671,55.894030
98.451777,55.948223
98.505970,56.029329
98.525000,56.125000
98.525000,56.800000
98.505970,56.895671
98.451777,56.976777
98.370671,57.030970
98.275000,57.050000
97.325000,57.050000
97.229329,57.030970
97.148223,56.976777
97.094030,56.895671
97.075000,56.800000
97.075000,56.125000
97.094030,56.029329
97.148223,55.948223
97.229329,55.894030
97.325000,55.875000
Z" /> 
<path style="fill:#000000; fill-opacity:1.000000; 
stroke:#000000; stroke-width:0.000000; stroke-opacity:1; 
stroke-linecap:round; stroke-linejoin:round;fill-rule:evenodd;"
d="M 98.275000,57.950000
98.370671,57.969030
98.451777,58.023223
98.505970,58.104329
98.525000,58.200000
98.525000,58.875000
98.505970,58.970671
98.451777,59.051777
98.370671,59.105970
98.275000,59.125000
97.325000,59.125000
97.229329,59.105970
97.148223,59.051777
97.094030,58.970671
97.075000,58.875000
97.075000,58.200000
97.094030,58.104329
97.148223,58.023223
97.229329,57.969030
97.325000,57.950000
Z" /> 
</g>
<g >
</g>
<g style="fill:#000000; fill-opacity:1.000000; 
stroke:#000000; stroke-width:0.000000; stroke-opacity:1; 
stroke-linecap:round; stroke-linejoin:round;">
<path style="fill:#000000; fill-opacity:1.000000; 
stroke:#000000; stroke-width:0.000000; stroke-opacity:1; 
stroke-linecap:round; stroke-linejoin:round;fill-rule:evenodd;"
d="M 84.625000,69.775000
84.605970,69.870671
84.551777,69.951777
84.470671,70.005970
84.375000,70.025000
83.700000,70.025000
83.604329,70.005970
83.523223,69.951777
83.469030,69.870671
83.450000,69.775000
83.450000,68.825000
83.469030,68.729329
83.523223,68.648223
83.604329,68.594030
83.700000,68.575000
84.375000,68.575000
84.470671,68.594030
84.551777,68.648223
84.605970,68.729329
84.625000,68.825000
Z" /> 
<path style="fill:#000000; fill-opacity:1.000000; 
stroke:#000000; stroke-width:0.000000; stroke-opacity:1; 
stroke-linecap:round; stroke-linejoin:round;fill-rule:evenodd;"
d="M 82.550000,69.775000
82.530970,69.870671
82.476777,69.951777
82.395671,70.005970
82.300000,70.025000
81.625000,70.025000
81.529329,70.005970
81.448223,69.951777
81.394030,69.870671
81.375000,69.775000
81.375000,68.825000
81.394030,68.729329
81.448223,68.648223
81.529329,68.594030
81.625000,68.575000
82.300000,68.575000
82.395671,68.594030
82.476777,68.648223
82.530970,68.729329
82.550000,68.825000
Z" /> 
</g>
<g >
</g>
<g style="fill:#000000; fill-opacity:1.000000; 
stroke:#000000; stroke-width:0.000000; stroke-opacity:1; 
stroke-linecap:round; stroke-linejoin:round;">
<path style="fill:#000000; fill-opacity:1.000000; 
stroke:#000000; stroke-width:0.000000; stroke-opacity:1; 
stroke-linecap:round; stroke-linejoin:round;fill-rule:evenodd;"
d="M 89.350000,73.725000
89.254329,73.705970
89.173223,73.651777
89.119030,73.570671
89.100000,73.475000
89.100000,72.650000
89.119030,72.554329
89.173223,72.473223
89.254329,72.419030
89.350000,72.400000
90.650000,72.400000
90.745671,72.419030
90.826777,72.473223
90.880970,72.554329
90.900000,72.650000
90.900000,73.475000
90.880970,73.570671
90.826777,73.651777
90.745671,73.705970
90.650000,73.725000
Z" /> 
<path style="fill:#000000; fill-opacity:1.000000; 
stroke:#000000; stroke-width:0.000000; stroke-opacity:1; 
stroke-linecap:round; stroke-linejoin:round;fill-rule:evenodd;"
d="M 89.350000,70.600000
89.254329,70.580970
89.173223,70.526777
89.119030,70.445671
89.100000,70.350000
89.100000,69.525000
89.119030,69.429329
89.173223,69.348223
89.254329,69.294030
89.350000,69.275000
90.650000,69.275000
90.745671,69.294030
90.826777,69.348223
90.880970,69.429329
90.900000,69.525000
90.900000,70.350000
90.880970,70.445671
90.826777,70.526777
90.745671,70.580970
90.650000,70.600000
Z" /> 
</g>
<g >
</g>
<g style="fill:#000000; fill-opacity:1.000000; 
stroke:#000000; stroke-width:0.000000; stroke-opacity:1; 
stroke-linecap:round; stroke-linejoin:round;">
<circle cx="89.500000" cy="61.400000" r="0.400000" /> 
</g>
<g style="fill:#000000; fill-opacity:1.000000; 
stroke:#000000; stroke-width:0.021200; stroke-opacity:1; 
stroke-linecap:round; stroke-linejoin:round;">
</g>
<g style="fill:#000000; fill-opacity:1.000000; 
stroke:#000000; stroke-width:0.000000; stroke-opacity:1; 
stroke-linecap:round; stroke-linejoin:round;">
<circle cx="90.500000" cy="61.400000" r="0.400000" /> 
</g>
<g style="fill:#000000; fill-opacity:1.000000; 
stroke:#000000; stroke-width:0.021200; stroke-opacity:1; 
stroke-linecap:round; stroke-linejoin:round;">
</g>
<g style="fill:#000000; fill-opacity:1.000000; 
stroke:#000000; stroke-width:0.000000; stroke-opacity:1; 
stroke-linecap:round; stroke-linejoin:round;">
<circle cx="82.700000" cy="71.100000" r="0.400000" /> 
</g>
<g style="fill:#000000; fill-opacity:1.000000; 
stroke:#000000; stroke-width:0.021200; stroke-opacity:1; 
stroke-linecap:round; stroke-linejoin:round;">
</g>
<g style="fill:#000000; fill-opacity:1.000000; 
stroke:#000000; stroke-width:0.000000; stroke-opacity:1; 
stroke-linecap:round; stroke-linejoin:round;">
<circle cx="98.140000" cy="72.540000" r="0.400000" /> 
</g>
<g style="fill:#000000; fill-opacity:1.000000; 
stroke:#000000; stroke-width:0.021200; stroke-opacity:1; 
stroke-linecap:round; stroke-linejoin:round;">
</g>
<g style="fill:#000000; fill-opacity:1.000000; 
stroke:#000000; stroke-width:0.000000; stroke-opacity:1; 
stroke-linecap:round; stroke-linejoin:round;">
<circle cx="99.200000" cy="55.200000" r="0.400000" /> 
</g>
<g style="fill:#000000; fill-opacity:1.000000; 
stroke:#000000; stroke-width:0.021200; stroke-opacity:1; 
stroke-linecap:round; stroke-linejoin:round;">
</g>
<g style="fill:#000000; fill-opacity:1.000000; 
stroke:#000000; stroke-width:0.000000; stroke-opacity:1; 
stroke-linecap:round; stroke-linejoin:round;">
<circle cx="92.400000" cy="55.500000" r="0.400000" /> 
</g>
<g style="fill:#000000; fill-opacity:1.000000; 
stroke:#000000; stroke-width:0.021200; stroke-opacity:1; 
stroke-linecap:round; stroke-linejoin:round;">
</g>
<g style="fill:#000000; fill-opacity:1.000000; 
stroke:#000000; stroke-width:0.000000; stroke-opacity:1; 
stroke-linecap:round; stroke-linejoin:round;">
<circle cx="90.800000" cy="53.400000" r="0.400000" /> 
</g>
<g style="fill:#000000; fill-opacity:1.000000; 
stroke:#000000; stroke-width:0.021200; stroke-opacity:1; 
stroke-linecap:round; stroke-linejoin:round;">
</g>
<g style="fill:#000000; fill-opacity:1.000000; 
stroke:#000000; stroke-width:0.000000; stroke-opacity:1; 
stroke-linecap:round; stroke-linejoin:round;">
<circle cx="90.800000" cy="52.200000" r="0.400000" /> 
</g>
<g style="fill:#000000; fill-opacity:1.000000; 
stroke:#000000; stroke-width:0.021200; stroke-opacity:1; 
stroke-linecap:round; stroke-linejoin:round;">
</g>
<g >
</g>
<g style="fill:#000000; fill-opacity:1.000000; 
stroke:#000000; stroke-width:0.021200; stroke-opacity:1; 
stroke-linecap:round; stroke-linejoin:round;">
</g>
<g style="fill:#000000; fill-opacity:1.000000; 
stroke:#000000; stroke-width:0.250000; stroke-opacity:1; 
stroke-linecap:round; stroke-linejoin:round;">
</g>
<g style="fill:#000000; fill-opacity:0.0; 
stroke:#000000; stroke-width:0.250000; stroke-opacity:1; 
stroke-linecap:round; stroke-linejoin:round;">
<path d="M84.000000 71.150000
L82.750000 71.150000
" />
<path d="M85.460200 71.746000
L84.596000 71.746000
" />
<path d="M84.596000 71.746000
L84.000000 71.150000
" />
<path d="M82.750000 71.150000
L82.700000 71.100000
" />
<path d="M86.654000 71.746000
L86.400000 72.000000
" />
<path d="M86.400000 72.000000
L86.400000 70.200000
" />
<path d="M87.339800 71.746000
L86.654000 71.746000
" />
</g>
<g style="fill:#000000; fill-opacity:0.0; 
stroke:#000000; stroke-width:0.600000; stroke-opacity:1; 
stroke-linecap:round; stroke-linejoin:round;">
<path d="M97.375000 54.705000
L97.375000 54.775000
" />
<path d="M97.375000 54.775000
L97.800000 55.200000
" />
<path d="M97.800000 55.200000
L97.800000 56.472500
" />
<path d="M97.800000 55.200000
L99.200000 55.200000
" />
</g>
<g style="fill:#000000; fill-opacity:0.0; 
stroke:#000000; stroke-width:0.250000; stroke-opacity:1; 
stroke-linecap:round; stroke-linejoin:round;">
<path d="M92.425000 54.705000
L92.425000 55.475000
" />
<path d="M92.425000 55.475000
L92.400000 55.500000
" />
<path d="M90.835000 53.435000
L90.800000 53.400000
" />
<path d="M92.425000 53.435000
L90.835000 53.435000
" />
<path d="M92.425000 52.165000
L90.835000 52.165000
" />
<path d="M90.835000 52.165000
L90.800000 52.200000
" />
<path d="M97.390000 53.450000
L97.375000 53.435000
" />
<path d="M99.400000 53.450000
L97.390000 53.450000
" />
<path d="M97.370000 50.900000
L97.375000 50.895000
" />
<path d="M95.600000 65.475000
L95.600000 63.400000
" />
<path d="M95.400000 51.500000
L96.000000 50.900000
" />
<path d="M96.000000 50.900000
L97.370000 50.900000
" />
<path d="M95.600000 63.400000
L95.400000 63.200000
" />
<path d="M95.400000 63.200000
L95.400000 51.500000
" />
<path d="M85.460200 70.380200
L84.380000 69.300000
" />
<path d="M84.380000 69.300000
L84.037500 69.300000
" />
<path d="M85.460200 71.238000
L85.460200 70.380200
" />
<path d="M87.339800 71.238000
L87.339800 68.139800
" />
<path d="M87.339800 68.139800
L87.100000 67.900000
" />
<path d="M87.100000 67.900000
L87.100000 66.600000
" />
<path d="M84.596000 72.254000
L84.000000 72.850000
" />
<path d="M85.460200 72.254000
L84.596000 72.254000
" />
<path d="M88.700000 68.350000
L91.575000 65.475000
" />
<path d="M87.200000 73.400000
L87.339800 73.260200
" />
<path d="M87.339800 72.254000
L87.339800 72.762000
" />
<path d="M87.339800 73.260200
L87.339800 72.762000
" />
<path d="M85.460200 72.762000
L85.460200 73.260200
" />
<path d="M88.700000 71.700000
L88.700000 68.350000
" />
<path d="M91.575000 65.475000
L93.060000 65.475000
" />
<path d="M85.460200 73.260200
L85.600000 73.400000
" />
<path d="M89.212000 72.762000
L89.400000 72.950000
" />
<path d="M85.600000 73.400000
L87.200000 73.400000
" />
<path d="M87.339800 72.762000
L89.212000 72.762000
" />
<path d="M87.339800 72.254000
L88.146000 72.254000
" />
<path d="M88.146000 72.254000
L88.700000 71.700000
" />
<path d="M95.830000 52.200000
L95.830000 63.021888
" />
</g>
<g style="fill:#000000; fill-opacity:0.0; 
stroke:#000000; stroke-width:0.800000; stroke-opacity:1; 
stroke-linecap:round; stroke-linejoin:round;">
<path d="M98.140000 72.540000
L98.140000 70.525000
" />
</g>
<g style="fill:#000000; fill-opacity:0.0; 
stroke:#000000; stroke-width:0.250000; stroke-opacity:1; 
stroke-linecap:round; stroke-linejoin:round;">
<path d="M97.375000 52.165000
L97.340000 52.200000
" />
<path d="M97.340000 52.200000
L95.830000 52.200000
" />
<path d="M98.140000 65.331888
L98.140000 65.475000
" />
<path d="M95.830000 63.021888
L98.140000 65.331888
" />
</g>
<g >
</g>
<g style="fill:#000000; fill-opacity:0.0; 
stroke:#000000; stroke-width:0.250000; stroke-opacity:1; 
stroke-linecap:round; stroke-linejoin:round;">
<g >
</g>
<g style="fill:#000000; fill-opacity:1.000000; 
stroke:#000000; stroke-width:0.000000; stroke-opacity:1; 
stroke-linecap:round; stroke-linejoin:round;">
<path style="fill:#000000; fill-opacity:1.000000; 
stroke:#000000; stroke-width:0.000000; stroke-opacity:1; 
stroke-linecap:round; stroke-linejoin:round;fill-rule:evenodd;"
d="M 91.643039,58.219685
91.688794,58.272489
91.700000,58.324000
91.700000,60.700000
92.801931,60.700000
92.845262,60.707817
92.942517,60.744091
93.002127,60.750500
93.922872,60.750499
93.982483,60.744091
94.079736,60.707817
94.123069,60.700000
94.176000,60.700000
94.243039,60.719685
94.288794,60.772489
94.300000,60.824000
94.300000,70.576000
94.280315,70.643039
94.227511,70.688794
94.176000,70.700000
93.934500,70.700000
93.867461,70.680315
93.821706,70.627511
93.810500,70.576000
93.810500,68.995325
93.795966,68.922261
93.795966,68.922260
93.740601,68.839399
93.657740,68.784034
93.657739,68.784033
93.657738,68.784033
93.584675,68.769500
93.584674,68.769500
92.535326,68.769500
92.535325,68.769500
92.462261,68.784033
92.379399,68.839399
92.324033,68.922261
92.309500,68.995325
92.309500,70.576000
92.289815,70.643039
92.237011,70.688794
92.185500,70.700000
91.625759,70.700000
91.558720,70.680315
91.512965,70.627511
91.501771,70.574254
91.565276,66.065389
91.585903,65.998634
91.601579,65.979457
91.694219,65.886818
91.755544,65.853334
91.781901,65.850500
92.186000,65.850500
92.253039,65.870185
92.298794,65.922989
92.310000,65.974500
92.310000,67.004624
92.324504,67.077543
92.379760,67.160239
92.462456,67.215495
92.535375,67.230000
92.935000,67.230000
92.935000,65.974500
92.954685,65.907461
93.007489,65.861706
93.059000,65.850500
93.061000,65.850500
93.128039,65.870185
93.173794,65.922989
93.185000,65.974500
93.185000,67.230000
93.584625,67.230000
93.657543,67.215495
93.740239,67.160239
93.795495,67.077543
93.810000,67.004624
93.810000,65.605000
93.560715,65.605000
93.493676,65.585315
93.447921,65.532511
93.437135,65.470805
93.437300,65.468805
93.462430,65.403611
93.518817,65.362352
93.560880,65.355000
93.810000,65.355000
93.810000,63.955375
93.795495,63.882456
93.740239,63.799760
93.657543,63.744504
93.584625,63.730000
93.185000,63.730000
93.185000,64.975500
93.165315,65.042539
93.112511,65.088294
93.061000,65.099500
93.059000,65.099500
92.991961,65.079815
92.946206,65.027011
92.935000,64.975500
92.935000,63.730000
92.535375,63.730000
92.462456,63.744504
92.379760,63.799760
92.324504,63.882456
92.310000,63.955375
92.310000,64.975500
92.290315,65.042539
92.237511,65.088294
92.186000,65.099500
91.704639,65.099500
91.637600,65.079815
91.591845,65.027011
91.580651,64.973754
91.600000,63.600000
91.599999,63.600000
89.024000,63.600000
88.956961,63.580315
88.911206,63.527511
88.900000,63.476000
88.900000,59.725000
89.425000,59.725000
89.425000,60.294518
89.425354,60.301132
89.431400,60.357371
89.481647,60.492089
89.567811,60.607188
89.682910,60.693352
89.817628,60.743599
89.873867,60.749645
89.880482,60.750000
90.212500,60.750000
90.212500,59.725000
90.462500,59.725000
90.462500,60.750000
90.794518,60.750000
90.801132,60.749645
90.857371,60.743599
90.992089,60.693352
91.107188,60.607188
91.193352,60.492089
91.243599,60.357371
91.249645,60.301132
91.250000,60.294518
91.250000,59.725000
90.462500,59.725000
90.212500,59.725000
89.425000,59.725000
88.900000,59.725000
88.900000,59.475000
89.425000,59.475000
90.212500,59.475000
90.212500,58.450000
90.462500,58.450000
90.462500,59.475000
91.250000,59.475000
91.250000,58.905481
91.249645,58.898867
91.243599,58.842628
91.193352,58.707910
91.107188,58.592811
90.992089,58.506647
90.857371,58.456400
90.801132,58.450354
90.794518,58.450000
90.462500,58.450000
90.212500,58.450000
89.880482,58.450000
89.873867,58.450354
89.817628,58.456400
89.682910,58.506647
89.567811,58.592811
89.481647,58.707910
89.431400,58.842628
89.425354,58.898867
89.425000,58.905481
89.425000,59.475000
88.900000,59.475000
88.900000,58.324000
88.919685,58.256961
88.972489,58.211206
89.024000,58.200000
91.576000,58.200000
Z" /> 
</g>
</g>
<g style="fill:#000000; fill-opacity:1.000000; 
stroke:#000000; stroke-width:0.000000; stroke-opacity:1; 
stroke-linecap:round; stroke-linejoin:round;">
<g >
<path style="fill:#000000; fill-opacity:1.000000; 
stroke:#000000; stroke-width:0.000000; stroke-opacity:1; 
stroke-linecap:round; stroke-linejoin:round;fill-rule:evenodd;"
d="M 101.004309,46.000877
101.045519,46.004482
101.173820,46.017120
101.189703,46.020010
101.256837,46.037998
101.259807,46.038846
101.353264,46.067196
101.366359,46.072207
101.434466,46.103966
101.439295,46.106380
101.520369,46.149715
101.530485,46.155929
101.593673,46.200174
101.599693,46.204742
101.669396,46.261945
101.676596,46.268469
101.731529,46.323402
101.738053,46.330602
101.795256,46.400305
101.799824,46.406325
101.844069,46.469513
101.850283,46.479629
101.893618,46.560703
101.896032,46.565532
101.927791,46.633639
101.932804,46.646739
101.961129,46.740112
101.962019,46.743228
101.979986,46.810282
101.982882,46.826202
101.995523,46.954554
101.999124,46.995699
101.999500,47.004316
101.999500,72.995676
101.999123,73.004307
101.995523,73.045445
101.982882,73.173799
101.979986,73.189713
101.962019,73.256769
101.961129,73.259886
101.932804,73.353259
101.927791,73.366359
101.896032,73.434466
101.893618,73.439295
101.850283,73.520369
101.844069,73.530485
101.799824,73.593673
101.795256,73.599693
101.738053,73.669396
101.731529,73.676596
101.676596,73.731529
101.669396,73.738053
101.599693,73.795256
101.593673,73.799824
101.530485,73.844069
101.520369,73.850283
101.439295,73.893618
101.434466,73.896032
101.366359,73.927791
101.353259,73.932804
101.259886,73.961129
101.256770,73.962019
101.189716,73.979986
101.173796,73.982882
101.045445,73.995523
101.013912,73.998282
101.004294,73.999124
100.995684,73.999500
90.998832,73.999500
90.940641,73.980593
90.904677,73.931093
90.904677,73.869907
90.940044,73.820845
90.972150,73.797150
91.052793,73.687882
91.097646,73.559699
91.100500,73.529266
91.100500,72.595734
91.097646,72.565301
91.052793,72.437118
90.972150,72.327850
90.862882,72.247207
90.734699,72.202354
90.734697,72.202353
90.734695,72.202353
90.706577,72.199716
90.706561,72.199715
90.704266,72.199500
89.295734,72.199500
89.293439,72.199715
89.293422,72.199716
89.265304,72.202353
89.265301,72.202353
89.265301,72.202354
89.137118,72.247207
89.137117,72.247207
89.137116,72.247208
89.103837,72.271769
89.027850,72.327850
88.978478,72.394748
88.977341,72.396288
88.927574,72.431881
88.897686,72.436500
88.662834,72.436500
88.604643,72.417593
88.568679,72.368093
88.568679,72.306907
88.592830,72.267497
88.917061,71.943265
88.923430,71.937429
88.924975,71.936133
88.953194,71.912455
88.972624,71.878799
88.977252,71.871532
88.999554,71.839684
88.999943,71.838229
89.009837,71.814345
89.010588,71.813045
89.017340,71.774748
89.019197,71.766371
89.029263,71.728807
89.025877,71.690102
89.025500,71.681473
89.025500,70.852733
89.044407,70.794542
89.093907,70.758578
89.155093,70.758578
89.157198,70.759289
89.265396,70.797149
89.293484,70.799783
89.298108,70.799999
89.899998,70.799999
89.900000,70.799998
89.900000,69.075001
89.899999,69.075000
89.298112,69.075000
89.293495,69.075216
89.265395,69.077851
89.157197,69.115711
89.096027,69.117083
89.045733,69.082239
89.025525,69.024487
89.025500,69.022266
89.025500,68.525834
89.044407,68.467643
89.054496,68.455830
89.671902,67.838424
89.726419,67.810647
89.741906,67.809428
89.888173,67.809428
89.897460,67.810342
89.899987,67.809839
89.899991,67.809840
89.978223,67.794282
89.980049,67.793525
89.981876,67.792815
89.982055,67.792694
89.982061,67.792693
90.048382,67.748377
90.092695,67.682055
90.093849,67.679269
90.094261,67.678275
90.094269,67.678254
90.109840,67.600025
90.109839,67.600023
90.110341,67.597504
90.109427,67.588218
90.109427,67.441904
90.128334,67.383714
90.138416,67.371909
90.171903,67.338422
90.226419,67.310647
90.241905,67.309428
90.988173,67.309428
90.997460,67.310342
90.999987,67.309839
90.999991,67.309840
91.078223,67.294282
91.080049,67.293525
91.081876,67.292815
91.082055,67.292694
91.082061,67.292693
91.137818,67.255435
91.196705,67.238827
91.254109,67.260004
91.288103,67.310877
91.291810,67.339145
91.263697,69.335114
91.243972,69.393033
91.193971,69.428296
91.132791,69.427434
91.083803,69.390777
91.071262,69.366416
91.052346,69.312354
90.971791,69.203208
90.862645,69.122654
90.734601,69.077850
90.706515,69.075216
90.701892,69.075000
90.100000,69.075000
90.100000,70.799998
90.100001,70.799999
90.701888,70.799999
90.706504,70.799783
90.734604,70.797148
90.862645,70.752345
90.971791,70.671791
91.052346,70.562644
91.055034,70.554963
91.092098,70.506281
91.150698,70.488683
91.208450,70.508890
91.243296,70.559183
91.247018,70.578113
91.251471,70.624090
91.251472,70.624101
91.251735,70.626809
91.252297,70.629482
91.262636,70.678675
91.262641,70.678695
91.262929,70.680066
91.270540,70.708198
91.319871,70.794828
91.365626,70.847632
91.398400,70.879257
91.486735,70.925465
91.547263,70.943238
91.553774,70.945150
91.625756,70.955500
91.625759,70.955500
92.182853,70.955500
92.185500,70.955500
92.239813,70.949661
92.242404,70.949097
92.244659,70.948732
92.305125,70.958084
92.348546,71.001192
92.359500,71.046456
92.359500,72.039748
92.365518,72.070003
92.371133,72.098231
92.415447,72.164552
92.451605,72.188712
92.481769,72.208867
92.540252,72.220500
92.540253,72.220500
93.579747,72.220500
93.579748,72.220500
93.638231,72.208867
93.704552,72.164552
93.748867,72.098231
93.760500,72.039748
94.899500,72.039748
94.905518,72.070003
94.911133,72.098231
94.955447,72.164552
94.991605,72.188712
95.021769,72.208867
95.080252,72.220500
95.080253,72.220500
96.119747,72.220500
96.119748,72.220500
96.178231,72.208867
96.244552,72.164552
96.288867,72.098231
96.300500,72.039748
97.439500,72.039748
97.451133,72.098231
97.495448,72.164552
97.495501,72.164587
97.533381,72.212637
97.539500,72.246903
97.539500,72.494149
97.538653,72.507070
97.534318,72.540000
97.543511,72.609826
97.548662,72.648955
97.554955,72.696761
97.615464,72.842841
97.711717,72.968282
97.807970,73.042139
97.837159,73.064536
97.983238,73.125044
98.140000,73.145682
98.296762,73.125044
98.442841,73.064536
98.568282,72.968282
98.664536,72.842841
98.725044,72.696762
98.731338,72.648955
98.745682,72.540000
98.741347,72.507070
98.740500,72.494149
98.740500,72.246903
98.759407,72.188712
98.784497,72.164588
98.784552,72.164552
98.828867,72.098231
98.840500,72.039748
98.840500,69.000252
98.828867,68.941769
98.814162,68.919762
98.784552,68.875447
98.718231,68.831133
98.718230,68.831132
98.659748,68.819500
97.620252,68.819500
97.591010,68.825316
97.561768,68.831133
97.495447,68.875447
97.451133,68.941768
97.451132,68.941769
97.451133,68.941769
97.439500,69.000252
97.439500,72.039748
96.300500,72.039748
96.300500,69.000252
96.288867,68.941769
96.274162,68.919762
96.244552,68.875447
96.178231,68.831133
96.178230,68.831132
96.119748,68.819500
95.080252,68.819500
95.051010,68.825316
95.021768,68.831133
94.955447,68.875447
94.911133,68.941768
94.911132,68.941769
94.911133,68.941769
94.899500,69.000252
94.899500,72.039748
93.760500,72.039748
93.760500,71.044734
93.779407,70.986543
93.828907,70.950579
93.873588,70.946742
93.917218,70.953015
93.934499,70.955500
93.934500,70.955500
94.173353,70.955500
94.176000,70.955500
94.230313,70.949661
94.281824,70.938455
94.308198,70.931219
94.394828,70.881888
94.447632,70.836133
94.479257,70.803359
94.525465,70.715024
94.545150,70.647985
94.555500,70.576000
94.555500,66.999697
94.900000,66.999697
94.911604,67.058036
94.955807,67.124192
95.021963,67.168395
95.080303,67.180000
95.499999,67.180000
95.500000,67.179999
95.500000,65.899500
95.518907,65.841309
95.568407,65.805345
95.599000,65.800500
95.601000,65.800500
95.659191,65.819407
95.695155,65.868907
95.700000,65.899500
95.700000,67.179999
95.700001,67.180000
96.119697,67.180000
96.178036,67.168395
96.244192,67.124192
96.288395,67.058036
96.300000,66.999697
96.300000,65.580001
96.299999,65.580000
96.024500,65.580000
95.966309,65.561093
95.930345,65.511593
95.925500,65.481000
95.925500,65.479000
95.944407,65.420809
95.993907,65.384845
96.024500,65.380000
96.299999,65.380000
96.300000,65.379998
96.300000,64.191222
96.318907,64.133031
96.368407,64.097067
96.429593,64.097067
96.469004,64.121218
97.410504,65.062718
97.438281,65.117235
97.439500,65.132722
97.439500,66.999746
97.451133,67.058231
97.495447,67.124552
97.539762,67.154162
97.561769,67.168867
97.620252,67.180500
97.620253,67.180500
98.659747,67.180500
98.659748,67.180500
98.718231,67.168867
98.784552,67.124552
98.828867,67.058231
98.840500,66.999748
98.840500,63.960252
98.828867,63.901769
98.791035,63.845150
98.784552,63.835447
98.718231,63.791133
98.718230,63.791132
98.659748,63.779500
97.620252,63.779500
97.591010,63.785316
97.561768,63.791133
97.495447,63.835447
97.451133,63.901768
97.440658,63.954428
97.410760,64.007812
97.355195,64.033427
97.295185,64.021490
97.273556,64.005117
96.184496,62.916057
96.156719,62.861540
96.155500,62.846053
96.155500,58.637500
96.875001,58.637500
96.875001,58.926888
96.875216,58.931504
96.877851,58.959604
96.922654,59.087645
97.003208,59.196791
97.112354,59.277345
97.240398,59.322149
97.268484,59.324783
97.273108,59.324999
97.699998,59.324999
97.700000,59.324998
97.700000,58.637500
97.900000,58.637500
97.900000,59.324998
97.900001,59.324999
98.326888,59.324999
98.331504,59.324783
98.359604,59.322148
98.487645,59.277345
98.596791,59.196791
98.677345,59.087645
98.722149,58.959601
98.724783,58.931515
98.725000,58.926891
98.725000,58.637501
98.724999,58.637500
97.900000,58.637500
97.700000,58.637500
96.875001,58.637500
96.155500,58.637500
96.155500,58.437498
96.875000,58.437498
96.875001,58.437500
97.699999,58.437500
97.700000,58.437499
97.900000,58.437499
97.900001,58.437500
98.724998,58.437500
98.724999,58.437498
98.724999,58.148112
98.724783,58.143495
98.722148,58.115395
98.677345,57.987354
98.596791,57.878208
98.487645,57.797654
98.359601,57.752850
98.331515,57.750216
98.326892,57.750000
97.900001,57.750000
97.900000,57.750001
97.900000,58.437499
97.700000,58.437499
97.700000,57.750001
97.699999,57.750000
97.273112,57.750000
97.268495,57.750216
97.240395,57.752851
97.112354,57.797654
97.003208,57.878208
96.922654,57.987354
96.877850,58.115398
96.875216,58.143484
96.875000,58.148108
96.875000,58.437498
96.155500,58.437498
96.155500,55.195188
96.174407,55.136997
96.223907,55.101033
96.285093,55.101033
96.324501,55.125182
96.343517,55.144198
96.448607,55.195573
96.516740,55.205500
97.056678,55.205500
97.114869,55.224407
97.126682,55.234496
97.270504,55.378318
97.298281,55.432835
97.299500,55.448322
97.299500,55.586395
97.280593,55.644586
97.233198,55.679839
97.112118,55.722206
97.002850,55.802850
96.922208,55.912116
96.877353,56.040304
96.874716,56.068422
96.874715,56.068439
96.874500,56.070734
96.874500,56.854266
96.874715,56.856561
96.874716,56.856577
96.877353,56.884695
96.877353,56.884697
96.877354,56.884699
96.922207,57.012882
97.002850,57.122150
97.112118,57.202793
97.240301,57.247646
97.270734,57.250500
97.273045,57.250500
98.326955,57.250500
98.329266,57.250500
98.359699,57.247646
98.487882,57.202793
98.597150,57.122150
98.677793,57.012882
98.722646,56.884699
98.725500,56.854266
98.725500,56.070734
98.722646,56.040301
98.677793,55.912118
98.638065,55.858288
98.618723,55.800240
98.637194,55.741910
98.686424,55.705577
98.717720,55.700500
98.832229,55.700500
98.890420,55.719407
98.892451,55.720923
98.897159,55.724536
99.043238,55.785044
99.200000,55.805682
99.356762,55.785044
99.502841,55.724536
99.628282,55.628282
99.724536,55.502841
99.785044,55.356762
99.805682,55.200000
99.785044,55.043238
99.724536,54.897159
99.702139,54.867970
99.628282,54.771717
99.502841,54.675464
99.356761,54.614955
99.200000,54.594318
99.043238,54.614955
98.897160,54.675463
98.897158,54.675464
98.897159,54.675464
98.892493,54.679043
98.834820,54.699466
98.832229,54.699500
98.649500,54.699500
98.591309,54.680593
98.555345,54.631093
98.550500,54.600500
98.550500,54.521743
98.550500,54.521740
98.540573,54.453607
98.489198,54.348517
98.406483,54.265802
98.301393,54.214427
98.233260,54.204500
96.516740,54.204500
96.465640,54.211945
96.448606,54.214427
96.343515,54.265802
96.324502,54.284816
96.269985,54.312592
96.209554,54.303020
96.166290,54.259755
96.155500,54.214811
96.155500,53.925187
96.174407,53.866996
96.223907,53.831032
96.285093,53.831032
96.324502,53.855183
96.343517,53.874198
96.448607,53.925573
96.516740,53.935500
96.516743,53.935500
98.233257,53.935500
98.233260,53.935500
98.301393,53.925573
98.406483,53.874198
98.476186,53.804494
98.530701,53.776719
98.546188,53.775500
99.000500,53.775500
99.058691,53.794407
99.094655,53.843907
99.099500,53.874500
99.099500,53.969746
99.111133,54.028231
99.155447,54.094552
99.199761,54.124162
99.221769,54.138867
99.280252,54.150500
99.280253,54.150500
100.319747,54.150500
100.319748,54.150500
100.378231,54.138867
100.444552,54.094552
100.488867,54.028231
100.500500,53.969748
100.500500,52.930252
100.488867,52.871769
100.474162,52.849761
100.444552,52.805447
100.378231,52.761133
100.378230,52.761132
100.319748,52.749500
99.280252,52.749500
99.251010,52.755316
99.221768,52.761133
99.155447,52.805447
99.111133,52.871768
99.099500,52.930253
99.099500,53.025500
99.080593,53.083691
99.031093,53.119655
99.000500,53.124500
98.573476,53.124500
98.515285,53.105593
98.501682,53.089395
98.500879,53.090199
98.489198,53.078518
98.489198,53.078517
98.406483,52.995802
98.301393,52.944427
98.233260,52.934500
96.516740,52.934500
96.465640,52.941945
96.448606,52.944427
96.343518,52.995801
96.343517,52.995801
96.343517,52.995802
96.324501,53.014817
96.269987,53.042593
96.209555,53.033022
96.166290,52.989757
96.155500,52.944812
96.155500,52.655188
96.174407,52.596997
96.223907,52.561033
96.285093,52.561033
96.324501,52.585182
96.343517,52.604198
96.448607,52.655573
96.516740,52.665500
96.516743,52.665500
98.233257,52.665500
98.233260,52.665500
98.301393,52.655573
98.406483,52.604198
98.489198,52.521483
98.540573,52.416393
98.550500,52.348260
98.550500,51.981740
98.540573,51.913607
98.509478,51.850001
99.099999,51.850001
99.100000,52.269697
99.111604,52.328036
99.155807,52.394192
99.221963,52.438395
99.280303,52.450000
99.699999,52.450000
99.700000,52.449999
99.700000,51.850001
99.699999,51.850000
99.900000,51.850000
99.900000,52.449999
99.900001,52.450000
100.319697,52.450000
100.378036,52.438395
100.444192,52.394192
100.488395,52.328036
100.500000,52.269697
100.500000,51.850001
100.499999,51.850000
99.900000,51.850000
99.699999,51.850000
99.100001,51.850000
99.099999,51.850001
98.509478,51.850001
98.489198,51.808517
98.406483,51.725802
98.301393,51.674427
98.233260,51.664500
96.516740,51.664500
96.465640,51.671945
96.448606,51.674427
96.343518,51.725801
96.343517,51.725802
96.260802,51.808517
96.255685,51.818982
96.213143,51.862955
96.166746,51.874500
95.824500,51.874500
95.766309,51.855593
95.730345,51.806093
95.725500,51.775500
95.725500,51.675832
95.733894,51.649998
99.099999,51.649998
99.100001,51.650000
99.699999,51.650000
99.700000,51.649999
99.900000,51.649999
99.900001,51.650000
100.499999,51.650000
100.500000,51.649999
100.500000,51.230302
100.488395,51.171963
100.444192,51.105807
100.378036,51.061604
100.319697,51.050000
99.900001,51.050000
99.900000,51.050001
99.900000,51.649999
99.700000,51.649999
99.700000,51.649998
99.700000,51.050001
99.699999,51.050000
99.280303,51.050000
99.221963,51.061604
99.155807,51.105807
99.111604,51.171963
99.100000,51.230302
99.099999,51.649998
95.733894,51.649998
95.744407,51.617641
95.754497,51.605828
96.105830,51.254496
96.160346,51.226719
96.175833,51.225500
96.193812,51.225500
96.252003,51.244407
96.263809,51.254490
96.343517,51.334198
96.448607,51.385573
96.516740,51.395500
96.516743,51.395500
98.233257,51.395500
98.233260,51.395500
98.301393,51.385573
98.406483,51.334198
98.489198,51.251483
98.540573,51.146393
98.550500,51.078260
98.550500,50.711740
98.540573,50.643607
98.489198,50.538517
98.406483,50.455802
98.301393,50.404427
98.233260,50.394500
96.516740,50.394500
96.465640,50.401945
96.448606,50.404427
96.343518,50.455801
96.343517,50.455801
96.343517,50.455802
96.260802,50.538517
96.260801,50.538518
96.253816,50.545504
96.199299,50.573281
96.183812,50.574500
96.018526,50.574500
96.009898,50.574123
96.007971,50.573954
95.971193,50.570736
95.933656,50.580794
95.925227,50.582663
95.886954,50.589412
95.885645,50.590168
95.861780,50.600053
95.860318,50.600444
95.828484,50.622734
95.821204,50.627371
95.787544,50.646805
95.762569,50.676569
95.756736,50.682936
95.182940,51.256732
95.176574,51.262565
95.146804,51.287545
95.127371,51.321204
95.122734,51.328484
95.100444,51.360318
95.100053,51.361780
95.090168,51.385645
95.089410,51.386956
95.082662,51.425223
95.080794,51.433649
95.070735,51.471191
95.074123,51.509903
95.074500,51.518533
95.074500,63.181465
95.074123,63.190095
95.070735,63.228806
95.080795,63.266350
95.082663,63.274778
95.089411,63.313042
95.089412,63.313045
95.090166,63.314352
95.100055,63.338225
95.100446,63.339685
95.122732,63.371514
95.127370,63.378794
95.146803,63.412452
95.146805,63.412454
95.146806,63.412455
95.176583,63.437441
95.182938,63.443264
95.245504,63.505830
95.273281,63.560347
95.274500,63.575834
95.274500,63.681000
95.255593,63.739191
95.206093,63.775155
95.175500,63.780000
95.080303,63.780000
95.021963,63.791604
94.955807,63.835807
94.911604,63.901963
94.900000,63.960302
94.900000,65.379999
94.900001,65.380000
95.175500,65.380000
95.233691,65.398907
95.269655,65.448407
95.274500,65.479000
95.274500,65.481000
95.255593,65.539191
95.206093,65.575155
95.175500,65.580000
94.900000,65.580000
94.900000,66.999697
94.555500,66.999697
94.555500,60.824000
94.549661,60.769687
94.538455,60.718176
94.531219,60.691802
94.481888,60.605172
94.436133,60.552368
94.403359,60.520743
94.403358,60.520742
94.355474,60.495694
94.312675,60.451968
94.303753,60.391436
94.307918,60.375273
94.322149,60.334603
94.324783,60.306515
94.325000,60.301891
94.325000,59.700001
94.324999,59.700000
92.600001,59.700000
92.600001,60.301888
92.600216,60.306506
92.603006,60.336261
92.589612,60.395962
92.543684,60.436389
92.504438,60.444500
92.054500,60.444500
91.996309,60.425593
91.960345,60.376093
91.955500,60.345500
91.955500,59.499999
92.600000,59.499999
92.600001,59.500000
93.362499,59.500000
93.362500,59.499998
93.362500,58.500001
93.362499,58.500000
93.562500,58.500000
93.562500,59.499998
93.562501,59.500000
94.324998,59.500000
94.324999,59.499999
94.324999,58.898112
94.324783,58.893495
94.322148,58.865395
94.277345,58.737354
94.196791,58.628208
94.087645,58.547654
93.959601,58.502850
93.931515,58.500216
93.926892,58.500000
93.562500,58.500000
93.362499,58.500000
92.998112,58.500000
92.993495,58.500216
92.965395,58.502851
92.837354,58.547654
92.728208,58.628208
92.647654,58.737354
92.602850,58.865398
92.600216,58.893484
92.600000,58.898108
92.600000,59.499999
91.955500,59.499999
91.955500,58.326646
91.955500,58.326645
91.955500,58.324000
91.949661,58.269687
91.938455,58.218176
91.931219,58.191802
91.881888,58.105172
91.836133,58.052368
91.803359,58.020743
91.715024,57.974535
91.715021,57.974534
91.647984,57.954849
91.576003,57.944500
91.576000,57.944500
89.024000,57.944500
89.021383,57.944781
89.021370,57.944782
88.972314,57.950056
88.972303,57.950057
88.969687,57.950339
88.967117,57.950898
88.967099,57.950901
88.919477,57.961261
88.919442,57.961269
88.918176,57.961545
88.916930,57.961886
88.916909,57.961892
88.897404,57.967243
88.891802,57.968781
88.891801,57.968781
88.891799,57.968782
88.805172,58.018111
88.754043,58.062415
88.754035,58.062422
88.752368,58.063867
88.750840,58.065449
88.750831,58.065459
88.720743,58.096640
88.674534,58.184978
88.654849,58.252015
88.651931,58.272314
88.644500,58.324000
88.644500,59.219500
88.644500,59.980500
88.644500,63.476000
88.644781,63.478617
88.644782,63.478629
88.650056,63.527685
88.650339,63.530313
88.650898,63.532885
88.650901,63.532900
88.661261,63.580522
88.661267,63.580548
88.661545,63.581824
88.661889,63.583078
88.661892,63.583090
88.668782,63.608200
88.710237,63.681000
88.718112,63.694828
88.763867,63.747632
88.796641,63.779257
88.884976,63.825465
88.952015,63.845149
88.952015,63.845150
89.023997,63.855500
89.024000,63.855500
91.240471,63.855500
91.298662,63.874407
91.334626,63.923907
91.339461,63.955894
91.325214,64.967415
91.325214,64.967425
91.325176,64.970156
91.325438,64.972864
91.325439,64.972881
91.330351,65.023591
91.330352,65.023604
91.330615,65.026309
91.331177,65.028982
91.341516,65.078175
91.341521,65.078195
91.341809,65.079566
91.342175,65.080919
91.342177,65.080927
91.349420,65.107700
91.359348,65.125134
91.371713,65.185057
91.349158,65.237759
91.337571,65.251568
91.331736,65.257935
90.728098,65.861575
90.673581,65.889353
90.658094,65.890572
90.208428,65.890572
90.150237,65.871665
90.114273,65.822165
90.109428,65.791572
90.109428,65.611830
90.110343,65.602541
90.109839,65.600010
90.109840,65.600009
90.094282,65.521777
90.093529,65.519958
90.092816,65.518124
90.092693,65.517941
90.092693,65.517939
90.048377,65.451618
90.048375,65.451617
90.048375,65.451616
89.982059,65.407307
89.982056,65.407305
89.982055,65.407305
89.979203,65.406124
89.978208,65.405712
89.978206,65.405711
89.978205,65.405711
89.897499,65.389657
89.888209,65.390572
88.911848,65.390572
88.902555,65.389656
88.821788,65.405712
88.820771,65.406134
88.817950,65.407303
88.817936,65.407308
88.751613,65.451627
88.707302,65.517950
88.705718,65.521776
88.689657,65.602502
88.690572,65.611793
88.690572,67.588235
88.689657,67.597527
88.705738,67.678273
88.706150,67.679267
88.707307,67.682061
88.742399,67.734577
88.759008,67.793465
88.737831,67.850869
88.730088,67.859584
88.482940,68.106732
88.476574,68.112565
88.446804,68.137545
88.427371,68.171204
88.422734,68.178484
88.400444,68.210318
88.400053,68.211780
88.390168,68.235645
88.389410,68.236956
88.382662,68.275223
88.380794,68.283649
88.370735,68.321191
88.374123,68.359903
88.374500,68.368533
88.374500,71.524166
88.355593,71.582357
88.345509,71.594163
88.190674,71.749000
88.044004,71.895670
87.989487,71.923447
87.929055,71.913876
87.885790,71.870611
87.882687,71.857688
87.874999,71.850000
87.324000,71.850000
87.265809,71.831093
87.229845,71.781593
87.225000,71.751000
87.225000,71.749000
87.243907,71.690809
87.293407,71.654845
87.324000,71.650000
87.874999,71.650000
87.875000,71.649999
87.875000,71.605302
87.859554,71.527650
87.861136,71.527335
87.852458,71.496570
87.860249,71.472590
87.860025,71.472546
87.863867,71.453231
87.875500,71.394748
87.875500,71.105252
87.863867,71.046769
87.823625,70.986543
87.819552,70.980447
87.753231,70.936133
87.753230,70.936133
87.744984,70.934492
87.691601,70.904596
87.665985,70.849031
87.665299,70.837411
87.665299,68.158324
87.665676,68.149694
87.666238,68.143267
87.669063,68.110993
87.659005,68.073458
87.657137,68.065032
87.650388,68.026755
87.649628,68.025440
87.639744,68.001576
87.639353,68.000116
87.617061,67.968280
87.612425,67.961002
87.601939,67.942839
87.589219,67.882990
87.614106,67.827095
87.667094,67.796503
87.668192,67.796276
87.678223,67.794282
87.680049,67.793525
87.681876,67.792815
87.682055,67.792694
87.682061,67.792693
87.748382,67.748377
87.792695,67.682055
87.793849,67.679269
87.794261,67.678275
87.794269,67.678254
87.809840,67.600025
87.809839,67.600024
87.810342,67.597501
87.809428,67.588209
87.809428,65.611830
87.810343,65.602541
87.809839,65.600010
87.809840,65.600009
87.794282,65.521777
87.793529,65.519958
87.792816,65.518124
87.792693,65.517941
87.792693,65.517939
87.748377,65.451618
87.748375,65.451617
87.748375,65.451616
87.682059,65.407307
87.682056,65.407305
87.682055,65.407305
87.679203,65.406124
87.678208,65.405712
87.678206,65.405711
87.678205,65.405711
87.597499,65.389657
87.588209,65.390572
86.611848,65.390572
86.602555,65.389656
86.521788,65.405712
86.520771,65.406134
86.517950,65.407303
86.517936,65.407308
86.451613,65.451627
86.407302,65.517950
86.405718,65.521776
86.389657,65.602502
86.390572,65.611793
86.390572,65.791572
86.371665,65.849763
86.322165,65.885727
86.291572,65.890572
85.511848,65.890572
85.502555,65.889656
85.421788,65.905712
85.420771,65.906134
85.417950,65.907303
85.417936,65.907308
85.351613,65.951627
85.307302,66.017950
85.305718,66.021776
85.289657,66.102502
85.290572,66.111793
85.290571,67.088235
85.289657,67.097526
85.305738,67.178273
85.305739,67.178275
85.306151,67.179269
85.307305,67.182055
85.307310,67.182066
85.351627,67.248386
85.417950,67.292697
85.421777,67.294282
85.499975,67.309840
85.499975,67.309839
85.502500,67.310342
85.511790,67.309428
86.291572,67.309428
86.349763,67.328335
86.385727,67.377835
86.390572,67.408428
86.390572,67.588235
86.389657,67.597527
86.405738,67.678273
86.406150,67.679267
86.406150,67.679268
86.406151,67.679269
86.407305,67.682055
86.407310,67.682066
86.451627,67.748386
86.517950,67.792697
86.521777,67.794282
86.599975,67.809840
86.599975,67.809839
86.602500,67.810342
86.611790,67.809428
86.673141,67.809428
86.731332,67.828335
86.767296,67.877835
86.771764,67.917055
86.770736,67.928806
86.780795,67.966350
86.782663,67.974772
86.789412,68.013045
86.790166,68.014352
86.800055,68.038225
86.800445,68.039683
86.822732,68.071512
86.827364,68.078783
86.845962,68.110993
86.846807,68.112456
86.876574,68.137434
86.882940,68.143267
86.985303,68.245629
87.013081,68.300146
87.014300,68.315633
87.014300,70.680913
86.995393,70.739104
86.945893,70.775068
86.884707,70.775068
86.860299,70.763229
86.783036,70.711604
86.724697,70.700000
86.500001,70.700000
86.500000,70.700001
86.500000,72.001000
86.481093,72.059191
86.431593,72.095155
86.401000,72.100000
86.399000,72.100000
86.340809,72.081093
86.304845,72.031593
86.300000,72.001000
86.300000,70.700001
86.299999,70.700000
86.075303,70.700000
86.016963,70.711604
85.939701,70.763229
85.880813,70.779837
85.823409,70.758659
85.789417,70.707785
85.785700,70.680913
85.785700,70.398722
85.786077,70.390092
85.789463,70.351392
85.779407,70.313865
85.777537,70.305431
85.776686,70.300605
85.770788,70.267155
85.770028,70.265840
85.760144,70.241976
85.759753,70.240516
85.737461,70.208680
85.732825,70.201401
85.713394,70.167745
85.683634,70.142773
85.677266,70.136939
84.854495,69.314168
84.826718,69.259651
84.825500,69.244176
84.825500,68.770734
84.822646,68.740301
84.777793,68.612118
84.697150,68.502850
84.587882,68.422207
84.459699,68.377354
84.459697,68.377353
84.459695,68.377353
84.431577,68.374716
84.431561,68.374715
84.429266,68.374500
83.645734,68.374500
83.643439,68.374715
83.643422,68.374716
83.615304,68.377353
83.615301,68.377353
83.615301,68.377354
83.487118,68.422207
83.487117,68.422207
83.487116,68.422208
83.486512,68.422654
83.377850,68.502850
83.297207,68.612118
83.252354,68.740301
83.252353,68.740304
83.249716,68.768422
83.249715,68.768439
83.249500,68.770734
83.249500,69.829266
83.249715,69.831561
83.249716,69.831577
83.252353,69.859695
83.252353,69.859697
83.252354,69.859699
83.297207,69.987882
83.377850,70.097150
83.487118,70.177793
83.615301,70.222646
83.645734,70.225500
83.648045,70.225500
84.426955,70.225500
84.429266,70.225500
84.459699,70.222646
84.587882,70.177793
84.639921,70.139386
84.697967,70.120045
84.756298,70.138516
84.768712,70.149038
85.105704,70.486030
85.133481,70.540547
85.134700,70.556034
85.134700,70.837395
85.115793,70.895586
85.066293,70.931550
85.055018,70.934492
85.050570,70.935376
85.046768,70.936133
84.980447,70.980447
84.936133,71.046768
84.924500,71.105253
84.924500,71.321500
84.905593,71.379691
84.856093,71.415655
84.825500,71.420500
84.799500,71.420500
84.741309,71.401593
84.705345,71.352093
84.700500,71.321500
84.700500,70.630253
84.699815,70.626809
84.688867,70.571769
84.650952,70.515026
84.644552,70.505447
84.578231,70.461133
84.578230,70.461133
84.519748,70.449500
83.480252,70.449500
83.451010,70.455316
83.421768,70.461133
83.355447,70.505447
83.311133,70.571768
83.300329,70.626083
83.270432,70.679467
83.214866,70.705082
83.154857,70.693145
83.138880,70.679316
83.138623,70.679652
83.002841,70.575464
82.856761,70.514955
82.720637,70.497034
82.700000,70.494318
82.699999,70.494318
82.543238,70.514955
82.397158,70.575464
82.271717,70.671717
82.175464,70.797158
82.114955,70.943238
82.094318,71.100000
82.114955,71.256761
82.175464,71.402841
82.271717,71.528282
82.318093,71.563867
82.397159,71.624536
82.543238,71.685044
82.700000,71.705682
82.856762,71.685044
83.002841,71.624536
83.081907,71.563867
83.138623,71.520348
83.140996,71.523440
83.172365,71.501873
83.233530,71.503463
83.282078,71.540702
83.299500,71.596791
83.299500,71.669748
83.306648,71.705681
83.311133,71.728231
83.355447,71.794552
83.383124,71.813045
83.421769,71.838867
83.480252,71.850500
84.199165,71.850500
84.257356,71.869407
84.269169,71.879496
84.319669,71.929996
84.347446,71.984513
84.337875,72.044945
84.319669,72.070003
84.269170,72.120503
84.214654,72.148281
84.199166,72.149500
83.480252,72.149500
83.451010,72.155316
83.421768,72.161133
83.355447,72.205447
83.311133,72.271768
83.311132,72.271769
83.311133,72.271769
83.299500,72.330252
83.299500,73.369748
83.305495,73.399885
83.311133,73.428231
83.355447,73.494552
83.394085,73.520369
83.421769,73.538867
83.480252,73.550500
83.480253,73.550500
84.519747,73.550500
84.519748,73.550500
84.578231,73.538867
84.644552,73.494552
84.688867,73.428231
84.700500,73.369748
84.700500,72.678499
84.719407,72.620309
84.768907,72.584345
84.799500,72.579500
84.825500,72.579500
84.883691,72.598407
84.919655,72.647907
84.924500,72.678500
84.924500,72.894746
84.936133,72.953231
84.980447,73.019552
85.019196,73.045443
85.046769,73.063867
85.055012,73.065506
85.108396,73.095401
85.134013,73.150965
85.134700,73.162604
85.134700,73.241665
85.134323,73.250295
85.130935,73.289006
85.140995,73.326550
85.142863,73.334978
85.148995,73.369748
85.149612,73.373245
85.150366,73.374552
85.160255,73.398425
85.160646,73.399885
85.182932,73.431714
85.187570,73.438994
85.207003,73.472652
85.207005,73.472654
85.207006,73.472655
85.236774,73.497633
85.243138,73.503464
85.356730,73.617056
85.362564,73.623423
85.387545,73.653194
85.421215,73.672633
85.428477,73.677260
85.460316,73.699554
85.461761,73.699941
85.461768,73.699943
85.485650,73.709834
85.486955,73.710588
85.520732,73.716543
85.525220,73.717335
85.533647,73.719203
85.571193,73.729264
85.609906,73.725876
85.618534,73.725500
87.181466,73.725500
87.190093,73.725876
87.203357,73.727037
87.228805,73.729264
87.228805,73.729263
87.228807,73.729264
87.266359,73.719201
87.274777,73.717335
87.313045,73.710588
87.314346,73.709836
87.338232,73.699942
87.339684,73.699554
87.371529,73.677254
87.378785,73.672632
87.412455,73.653194
87.437442,73.623414
87.443254,73.617070
87.556866,73.503458
87.563210,73.497644
87.592994,73.472655
87.612432,73.438985
87.617054,73.431729
87.639354,73.399884
87.639742,73.398432
87.649638,73.374543
87.650388,73.373245
87.657135,73.334977
87.659001,73.326559
87.669064,73.289007
87.666243,73.256769
87.665677,73.250294
87.665300,73.241665
87.665300,73.186500
87.684207,73.128309
87.733707,73.092345
87.764300,73.087500
88.800500,73.087500
88.858691,73.106407
88.894655,73.155907
88.899500,73.186500
88.899500,73.529266
88.899715,73.531561
88.899716,73.531577
88.902353,73.559695
88.902353,73.559697
88.902354,73.559699
88.947207,73.687882
89.027850,73.797150
89.059956,73.820845
89.095549,73.870612
89.095091,73.931796
89.058758,73.981026
89.001168,73.999500
67.004323,73.999500
66.995692,73.999123
66.954554,73.995523
66.848097,73.985038
66.826196,73.982881
66.810285,73.979986
66.743229,73.962019
66.740112,73.961129
66.646739,73.932804
66.633639,73.927791
66.565532,73.896032
66.560703,73.893618
66.479629,73.850283
66.469513,73.844069
66.406325,73.799824
66.400305,73.795256
66.330602,73.738053
66.323402,73.731529
66.268469,73.676596
66.261945,73.669396
66.204742,73.599693
66.200174,73.593673
66.155929,73.530485
66.149715,73.520369
66.106380,73.439295
66.103966,73.434466
66.072207,73.366359
66.067194,73.353259
66.038846,73.259806
66.038002,73.256853
66.020008,73.189696
66.017119,73.173816
66.004482,73.045519
66.000875,73.004294
66.000500,72.995686
66.000500,69.400000
81.175001,69.400000
81.175001,69.826888
81.175216,69.831504
81.177851,69.859604
81.222654,69.987645
81.303208,70.096791
81.412354,70.177345
81.540398,70.222149
81.568484,70.224783
81.573108,70.224999
81.862498,70.224999
81.862500,70.224998
82.062500,70.224998
82.062501,70.224999
82.351888,70.224999
82.356504,70.224783
82.384604,70.222148
82.512645,70.177345
82.621791,70.096791
82.702345,69.987645
82.747149,69.859601
82.749783,69.831515
82.750000,69.826891
82.750000,69.400001
82.749999,69.400000
82.062501,69.400000
82.062500,69.400001
82.062500,70.224998
81.862500,70.224998
81.862500,69.400001
81.862499,69.400000
81.175001,69.400000
66.000500,69.400000
66.000500,69.199999
81.175000,69.199999
81.175001,69.200000
81.862499,69.200000
81.862500,69.199999
82.062500,69.199999
82.062501,69.200000
82.749998,69.200000
82.749999,69.199999
82.749999,68.773112
82.749783,68.768495
82.747148,68.740395
82.702345,68.612354
82.621791,68.503208
82.512645,68.422654
82.384601,68.377850
82.356515,68.375216
82.351892,68.375000
82.062501,68.375000
82.062500,68.375001
82.062500,69.199999
81.862500,69.199999
81.862500,68.375001
81.862499,68.375000
81.573112,68.375000
81.568495,68.375216
81.540395,68.377851
81.412354,68.422654
81.303208,68.503208
81.222654,68.612354
81.177850,68.740398
81.175216,68.768484
81.175000,68.773108
81.175000,69.199999
66.000500,69.199999
66.000500,60.000000
73.894548,60.000000
73.894628,60.001985
73.913424,60.468426
73.914346,60.491285
73.914588,60.493278
73.973369,60.977388
73.973372,60.977406
73.973612,60.979383
74.071961,61.461130
74.072514,61.463041
74.072518,61.463055
74.208202,61.931489
74.208756,61.933401
74.383110,62.393133
74.383960,62.394924
74.383962,62.394929
74.593040,62.835553
74.593047,62.835566
74.593891,62.837345
74.594881,62.839060
74.594888,62.839073
74.819902,63.228807
74.839733,63.263155
74.874170,63.313045
75.116572,63.664227
75.119041,63.667803
75.120303,63.669348
75.120304,63.669350
75.357858,63.960302
75.430004,64.048664
75.770605,64.403267
76.138635,64.729313
76.140219,64.730503
76.140226,64.730509
76.530105,65.023484
76.530114,65.023490
76.531708,65.024688
76.947274,65.287477
77.382638,65.515973
77.834977,65.708697
78.301357,65.864397
78.778753,65.982065
79.264069,66.060936
79.754158,66.100500
79.756159,66.100500
80.243841,66.100500
80.245842,66.100500
80.735931,66.060936
81.221247,65.982065
81.698643,65.864397
82.165023,65.708697
82.617362,65.515973
83.052726,65.287477
83.468292,65.024688
83.861365,64.729313
84.229395,64.403267
84.569996,64.048664
84.880959,63.667803
85.160267,63.263155
85.406109,62.837345
85.616890,62.393133
85.791244,61.933401
85.928039,61.461130
86.026388,60.979383
86.085654,60.491285
86.105452,60.000000
86.085654,59.508715
86.026388,59.020617
85.928039,58.538870
85.791244,58.066599
85.616890,57.606867
85.425154,57.202791
85.406959,57.164446
85.406957,57.164442
85.406109,57.162655
85.382723,57.122150
85.161267,56.738577
85.161266,56.738576
85.160267,56.736845
84.880959,56.332197
84.799789,56.232782
84.571261,55.952885
84.571257,55.952880
84.569996,55.951336
84.229395,55.596733
84.061874,55.448322
83.862851,55.272003
83.862844,55.271997
83.861365,55.270687
83.859783,55.269498
83.859773,55.269490
83.469894,54.976515
83.469880,54.976505
83.468292,54.975312
83.438374,54.956393
83.330631,54.888260
91.249500,54.888260
91.259427,54.956393
91.310802,55.061483
91.393517,55.144198
91.498607,55.195573
91.566740,55.205500
91.723845,55.205500
91.782036,55.224407
91.818000,55.273907
91.818000,55.335093
91.815309,55.342386
91.814955,55.343238
91.794318,55.500000
91.814955,55.656761
91.875464,55.802841
91.971717,55.928282
92.003781,55.952885
92.097159,56.024536
92.243238,56.085044
92.400000,56.105682
92.556762,56.085044
92.702841,56.024536
92.828282,55.928282
92.924536,55.802841
92.985044,55.656762
93.005682,55.500000
92.985044,55.343238
92.984690,55.342385
92.984332,55.337833
92.983343,55.330316
92.983736,55.330264
92.979890,55.281390
93.011859,55.229220
93.068387,55.205805
93.076155,55.205500
93.283257,55.205500
93.283260,55.205500
93.351393,55.195573
93.456483,55.144198
93.539198,55.061483
93.590573,54.956393
93.600500,54.888260
93.600500,54.521740
93.590573,54.453607
93.539198,54.348517
93.456483,54.265802
93.351393,54.214427
93.283260,54.204500
91.566740,54.204500
91.515640,54.211945
91.498606,54.214427
91.393518,54.265801
91.310801,54.348518
91.259427,54.453606
91.259427,54.453607
91.249500,54.521740
91.249500,54.888260
83.330631,54.888260
83.054412,54.713589
83.054408,54.713587
83.052726,54.712523
83.050961,54.711597
83.050953,54.711592
82.619142,54.484961
82.619137,54.484958
82.617362,54.484027
82.615525,54.483244
82.615518,54.483241
82.166862,54.292086
82.166850,54.292081
82.165023,54.291303
82.163138,54.290673
82.163123,54.290668
81.700544,54.136237
81.700529,54.136232
81.698643,54.135603
81.696708,54.135126
81.696694,54.135122
81.223179,54.018411
81.223174,54.018410
81.221247,54.017935
81.219298,54.017618
81.219287,54.017616
80.737890,53.939382
80.737881,53.939380
80.735931,53.939064
80.733954,53.938904
80.733951,53.938904
80.247835,53.899660
80.247813,53.899659
80.245842,53.899500
79.754158,53.899500
79.752187,53.899659
79.752164,53.899660
79.266048,53.938904
79.266042,53.938904
79.264069,53.939064
79.262121,53.939380
79.262109,53.939382
78.780712,54.017616
78.780696,54.017619
78.778753,54.017935
78.776830,54.018408
78.776820,54.018411
78.303305,54.135122
78.303285,54.135127
78.301357,54.135603
78.299477,54.136230
78.299455,54.136237
77.836876,54.290668
77.836853,54.290676
77.834977,54.291303
77.833157,54.292078
77.833137,54.292086
77.384481,54.483241
77.384465,54.483248
77.382638,54.484027
77.380871,54.484954
77.380857,54.484961
76.949046,54.711592
76.949027,54.711602
76.947274,54.712523
76.945601,54.713580
76.945587,54.713589
76.533399,54.974242
76.533387,54.974250
76.531708,54.975312
76.530130,54.976497
76.530105,54.976515
76.140226,55.269490
76.140203,55.269508
76.138635,55.270687
76.137167,55.271986
76.137148,55.272003
75.772096,55.595411
75.772081,55.595425
75.770605,55.596733
75.769233,55.598160
75.769224,55.598170
75.431388,55.949894
75.431375,55.949908
75.430004,55.951336
75.428754,55.952866
75.428738,55.952885
75.120304,56.330649
75.120293,56.330662
75.119041,56.332197
75.117914,56.333829
75.117901,56.333847
74.840870,56.735197
74.840864,56.735206
74.839733,56.736845
74.838743,56.738558
74.838732,56.738577
74.594888,57.160926
74.594875,57.160949
74.593891,57.162655
74.593052,57.164423
74.593040,57.164446
74.383962,57.605070
74.383955,57.605084
74.383110,57.606867
74.382409,57.608714
74.382404,57.608727
74.209459,58.064744
74.209455,58.064755
74.208756,58.066599
74.208205,58.068499
74.208202,58.068510
74.072518,58.536944
74.072513,58.536964
74.071961,58.538870
74.071562,58.540820
74.071559,58.540836
73.974014,59.018646
73.973612,59.020617
73.973372,59.022589
73.973369,59.022611
73.949463,59.219500
73.914346,59.508715
73.914265,59.510705
73.914265,59.510715
73.906637,59.700001
73.894548,60.000000
66.000500,60.000000
66.000500,53.400000
90.194318,53.400000
90.214955,53.556761
90.275464,53.702841
90.371717,53.828282
90.464531,53.899500
90.497159,53.924536
90.643238,53.985044
90.800000,54.005682
90.956762,53.985044
91.102841,53.924536
91.193221,53.855185
91.226917,53.829330
91.284593,53.808906
91.343259,53.826284
91.357182,53.837863
91.393517,53.874198
91.498607,53.925573
91.566740,53.935500
91.566743,53.935500
93.283257,53.935500
93.283260,53.935500
93.351393,53.925573
93.456483,53.874198
93.539198,53.791483
93.590573,53.686393
93.600500,53.618260
93.600500,53.251740
93.590573,53.183607
93.539198,53.078517
93.456483,52.995802
93.351393,52.944427
93.283260,52.934500
91.566740,52.934500
91.515640,52.941945
91.498606,52.944427
91.393514,52.995803
91.390300,52.999018
91.335783,53.026794
91.275351,53.017220
91.241757,52.989279
91.228282,52.971718
91.193217,52.944812
91.106851,52.878541
91.072196,52.828118
91.073797,52.766953
91.106852,52.721458
91.179778,52.665500
91.228282,52.628282
91.241757,52.610719
91.292179,52.576064
91.353344,52.577665
91.390300,52.600981
91.393517,52.604198
91.498607,52.655573
91.566740,52.665500
91.566743,52.665500
93.283257,52.665500
93.283260,52.665500
93.351393,52.655573
93.456483,52.604198
93.539198,52.521483
93.590573,52.416393
93.600500,52.348260
93.600500,51.981740
93.590573,51.913607
93.539198,51.808517
93.456483,51.725802
93.351393,51.674427
93.283260,51.664500
91.566740,51.664500
91.515640,51.671945
91.498606,51.674427
91.393516,51.725802
91.357187,51.762131
91.302670,51.789908
91.242238,51.780336
91.226917,51.770670
91.161225,51.720263
91.102841,51.675464
91.102839,51.675463
90.956761,51.614955
90.800000,51.594318
90.643238,51.614955
90.497158,51.675464
90.371717,51.771717
90.275464,51.897158
90.214955,52.043238
90.194318,52.200000
90.214955,52.356761
90.275464,52.502841
90.371717,52.628282
90.493147,52.721458
90.527803,52.771882
90.526202,52.833047
90.493147,52.878542
90.371717,52.971717
90.275464,53.097158
90.214955,53.243238
90.194318,53.400000
66.000500,53.400000
66.000500,50.995000
91.250001,50.995000
91.250001,51.078216
91.259911,51.146247
91.311214,51.251188
91.393812,51.333786
91.498750,51.385087
91.566784,51.394999
92.324997,51.394999
92.324998,51.394998
92.524999,51.394998
92.525000,51.394999
93.283217,51.394999
93.351247,51.385088
93.456188,51.333785
93.538786,51.251187
93.590087,51.146249
93.600000,51.078215
93.600000,50.995001
93.599999,50.995000
92.525001,50.995000
92.524999,50.995001
92.524999,51.394998
92.324998,51.394998
92.324999,51.394997
92.324999,50.995000
91.250001,50.995000
66.000500,50.995000
66.000500,50.794999
91.250000,50.794999
91.250001,50.795000
92.324999,50.795000
92.324999,50.395001
92.324998,50.395000
92.524999,50.395000
92.524999,50.794998
92.525001,50.795000
93.599998,50.795000
93.599999,50.794999
93.599999,50.711783
93.590088,50.643752
93.538785,50.538811
93.456187,50.456213
93.351249,50.404912
93.283216,50.395000
92.524999,50.395000
92.324998,50.395000
91.566782,50.395000
91.498752,50.404911
91.393811,50.456214
91.311213,50.538812
91.259912,50.643750
91.250000,50.711784
91.250000,50.794999
66.000500,50.794999
66.000500,47.004318
66.000877,46.995689
66.004476,46.954553
66.017120,46.826175
66.020009,46.810301
66.038007,46.743128
66.038836,46.740224
66.067199,46.646725
66.072207,46.633639
66.103966,46.565532
66.106368,46.560726
66.149720,46.479619
66.155919,46.469528
66.200188,46.406306
66.204742,46.400305
66.261956,46.330589
66.268449,46.323423
66.323423,46.268449
66.330589,46.261956
66.400311,46.204737
66.406305,46.200188
66.469528,46.155919
66.479619,46.149720
66.560726,46.106368
66.565523,46.103970
66.633641,46.072205
66.646725,46.067199
66.740225,46.038836
66.743112,46.038011
66.810307,46.020007
66.826179,46.017120
66.954542,46.004477
66.995707,46.000875
67.004312,46.000500
100.995680,46.000500
Z" /> 
</g>
</g>
</g> 
</svg>
