<?xml version="1.0" standalone="no"?>
 <!DOCTYPE svg PUBLIC "-//W3C//DTD SVG 1.1//EN" 
 "http://www.w3.org/Graphics/SVG/1.1/DTD/svg11.dtd"> 
<svg
  xmlns:svg="http://www.w3.org/2000/svg"
  xmlns="http://www.w3.org/2000/svg"
  xmlns:xlink="http://www.w3.org/1999/xlink"
  version="1.1"
  width="2.6100000000000003cm" height="2.6100000000000003cm" viewBox="66.95 46.95 26.1 26.1">
<title>SVG Image created as pedalboard-led-ring-B_Cu.svg date 2023/06/03 21:36:35 </title>
  <desc>Image generated by PCBNEW </desc>
<g style="fill:#000000; fill-opacity:1.000000;stroke:#000000; stroke-opacity:1.000000;
stroke-linecap:round; stroke-linejoin:round;"
 transform="translate(0 0) scale(1 1)">
</g>
<g style="fill:#000000; fill-opacity:0.0; 
stroke:#000000; stroke-width:0.000000; stroke-opacity:1; 
stroke-linecap:round; stroke-linejoin:round;">
<g >
</g>
<g >
</g>
<g >
</g>
<g >
</g>
<g >
</g>
<g >
</g>
<g >
</g>
<g >
</g>
<g >
</g>
<g >
</g>
<g >
</g>
<g >
</g>
<g >
</g>
<g >
</g>
<g >
</g>
<g >
</g>
<g >
</g>
<g >
</g>
<g >
</g>
<g >
</g>
<g >
</g>
<g >
</g>
<g >
</g>
<g >
</g>
<g >
</g>
<g >
</g>
<g >
</g>
<g >
</g>
<g >
</g>
<g >
</g>
<g style="fill:#000000; fill-opacity:0.0; 
stroke:#000000; stroke-width:0.000000; stroke-opacity:1; 
stroke-linecap:round; stroke-linejoin:round;">
</g>
<g style="fill:#000000; fill-opacity:0.0; 
stroke:#000000; stroke-width:0.000000; stroke-opacity:1; 
stroke-linecap:round; stroke-linejoin:round;">
</g>
<g style="fill:#000000; fill-opacity:1.000000; 
stroke:#000000; stroke-width:0.000000; stroke-opacity:1; 
stroke-linecap:round; stroke-linejoin:round;">
<path style="fill:#000000; fill-opacity:1.000000; 
stroke:#000000; stroke-width:0.000000; stroke-opacity:1; 
stroke-linecap:round; stroke-linejoin:round;fill-rule:evenodd;"
d="M 91.000000,58.250000
90.000000,58.250000
90.000000,55.500000
91.000000,55.500000
Z" /> 
<path style="fill:#000000; fill-opacity:1.000000; 
stroke:#000000; stroke-width:0.000000; stroke-opacity:1; 
stroke-linecap:round; stroke-linejoin:round;fill-rule:evenodd;"
d="M 91.000000,64.500000
90.000000,64.500000
90.000000,61.750000
91.000000,61.750000
Z" /> 
<path style="fill:#000000; fill-opacity:1.000000; 
stroke:#000000; stroke-width:0.000000; stroke-opacity:1; 
stroke-linecap:round; stroke-linejoin:round;fill-rule:evenodd;"
d="M 89.000000,58.250000
88.000000,58.250000
88.000000,55.500000
89.000000,55.500000
Z" /> 
<path style="fill:#000000; fill-opacity:1.000000; 
stroke:#000000; stroke-width:0.000000; stroke-opacity:1; 
stroke-linecap:round; stroke-linejoin:round;fill-rule:evenodd;"
d="M 89.000000,64.500000
88.000000,64.500000
88.000000,61.750000
89.000000,61.750000
Z" /> 
</g>
<g >
</g>
<g style="fill:#000000; fill-opacity:1.000000; 
stroke:#000000; stroke-width:0.000000; stroke-opacity:1; 
stroke-linecap:round; stroke-linejoin:round;">
<path style="fill:#000000; fill-opacity:1.000000; 
stroke:#000000; stroke-width:0.000000; stroke-opacity:1; 
stroke-linecap:round; stroke-linejoin:round;fill-rule:evenodd;"
d="M 88.750000,71.000000
88.750000,70.000000
91.500000,70.000000
91.500000,71.000000
Z" /> 
<path style="fill:#000000; fill-opacity:1.000000; 
stroke:#000000; stroke-width:0.000000; stroke-opacity:1; 
stroke-linecap:round; stroke-linejoin:round;fill-rule:evenodd;"
d="M 82.500000,71.000000
82.500000,70.000000
85.250000,70.000000
85.250000,71.000000
Z" /> 
<path style="fill:#000000; fill-opacity:1.000000; 
stroke:#000000; stroke-width:0.000000; stroke-opacity:1; 
stroke-linecap:round; stroke-linejoin:round;fill-rule:evenodd;"
d="M 88.750000,69.000000
88.750000,68.000000
91.500000,68.000000
91.500000,69.000000
Z" /> 
<path style="fill:#000000; fill-opacity:1.000000; 
stroke:#000000; stroke-width:0.000000; stroke-opacity:1; 
stroke-linecap:round; stroke-linejoin:round;fill-rule:evenodd;"
d="M 82.500000,69.000000
82.500000,68.000000
85.250000,68.000000
85.250000,69.000000
Z" /> 
</g>
<g >
</g>
<g style="fill:#000000; fill-opacity:1.000000; 
stroke:#000000; stroke-width:0.000000; stroke-opacity:1; 
stroke-linecap:round; stroke-linejoin:round;">
<circle cx="86.800000" cy="63.600000" r="0.400000" /> 
</g>
<g style="fill:#000000; fill-opacity:1.000000; 
stroke:#000000; stroke-width:0.021200; stroke-opacity:1; 
stroke-linecap:round; stroke-linejoin:round;">
</g>
<g style="fill:#000000; fill-opacity:1.000000; 
stroke:#000000; stroke-width:0.000000; stroke-opacity:1; 
stroke-linecap:round; stroke-linejoin:round;">
<circle cx="74.000000" cy="52.000000" r="0.400000" /> 
</g>
<g style="fill:#000000; fill-opacity:1.000000; 
stroke:#000000; stroke-width:0.021200; stroke-opacity:1; 
stroke-linecap:round; stroke-linejoin:round;">
</g>
<g style="fill:#000000; fill-opacity:1.000000; 
stroke:#000000; stroke-width:0.000000; stroke-opacity:1; 
stroke-linecap:round; stroke-linejoin:round;">
<circle cx="89.928203" cy="58.803848" r="0.400000" /> 
</g>
<g style="fill:#000000; fill-opacity:1.000000; 
stroke:#000000; stroke-width:0.021200; stroke-opacity:1; 
stroke-linecap:round; stroke-linejoin:round;">
</g>
<g style="fill:#000000; fill-opacity:1.000000; 
stroke:#000000; stroke-width:0.000000; stroke-opacity:1; 
stroke-linecap:round; stroke-linejoin:round;">
<circle cx="70.071797" cy="61.196152" r="0.400000" /> 
</g>
<g style="fill:#000000; fill-opacity:1.000000; 
stroke:#000000; stroke-width:0.021200; stroke-opacity:1; 
stroke-linecap:round; stroke-linejoin:round;">
</g>
<g style="fill:#000000; fill-opacity:1.000000; 
stroke:#000000; stroke-width:0.000000; stroke-opacity:1; 
stroke-linecap:round; stroke-linejoin:round;">
<circle cx="76.071797" cy="69.196152" r="0.400000" /> 
</g>
<g style="fill:#000000; fill-opacity:1.000000; 
stroke:#000000; stroke-width:0.021200; stroke-opacity:1; 
stroke-linecap:round; stroke-linejoin:round;">
</g>
<g style="fill:#000000; fill-opacity:1.000000; 
stroke:#000000; stroke-width:0.000000; stroke-opacity:1; 
stroke-linecap:round; stroke-linejoin:round;">
<circle cx="81.196152" cy="69.928203" r="0.400000" /> 
</g>
<g style="fill:#000000; fill-opacity:1.000000; 
stroke:#000000; stroke-width:0.021200; stroke-opacity:1; 
stroke-linecap:round; stroke-linejoin:round;">
</g>
<g style="fill:#000000; fill-opacity:1.000000; 
stroke:#000000; stroke-width:0.000000; stroke-opacity:1; 
stroke-linecap:round; stroke-linejoin:round;">
<circle cx="83.928203" cy="50.803848" r="0.400000" /> 
</g>
<g style="fill:#000000; fill-opacity:1.000000; 
stroke:#000000; stroke-width:0.021200; stroke-opacity:1; 
stroke-linecap:round; stroke-linejoin:round;">
</g>
<g style="fill:#000000; fill-opacity:1.000000; 
stroke:#000000; stroke-width:0.000000; stroke-opacity:1; 
stroke-linecap:round; stroke-linejoin:round;">
<circle cx="72.000000" cy="66.000000" r="0.400000" /> 
</g>
<g style="fill:#000000; fill-opacity:1.000000; 
stroke:#000000; stroke-width:0.021200; stroke-opacity:1; 
stroke-linecap:round; stroke-linejoin:round;">
</g>
<g style="fill:#000000; fill-opacity:1.000000; 
stroke:#000000; stroke-width:0.000000; stroke-opacity:1; 
stroke-linecap:round; stroke-linejoin:round;">
<circle cx="86.000000" cy="67.940000" r="0.400000" /> 
</g>
<g style="fill:#000000; fill-opacity:1.000000; 
stroke:#000000; stroke-width:0.021200; stroke-opacity:1; 
stroke-linecap:round; stroke-linejoin:round;">
</g>
<g style="fill:#000000; fill-opacity:1.000000; 
stroke:#000000; stroke-width:0.000000; stroke-opacity:1; 
stroke-linecap:round; stroke-linejoin:round;">
<circle cx="70.803848" cy="56.071797" r="0.400000" /> 
</g>
<g style="fill:#000000; fill-opacity:1.000000; 
stroke:#000000; stroke-width:0.021200; stroke-opacity:1; 
stroke-linecap:round; stroke-linejoin:round;">
</g>
<g style="fill:#000000; fill-opacity:1.000000; 
stroke:#000000; stroke-width:0.000000; stroke-opacity:1; 
stroke-linecap:round; stroke-linejoin:round;">
<circle cx="88.000000" cy="54.000000" r="0.400000" /> 
</g>
<g style="fill:#000000; fill-opacity:1.000000; 
stroke:#000000; stroke-width:0.021200; stroke-opacity:1; 
stroke-linecap:round; stroke-linejoin:round;">
</g>
<g style="fill:#000000; fill-opacity:1.000000; 
stroke:#000000; stroke-width:0.000000; stroke-opacity:1; 
stroke-linecap:round; stroke-linejoin:round;">
<circle cx="88.260000" cy="66.020000" r="0.400000" /> 
</g>
<g style="fill:#000000; fill-opacity:1.000000; 
stroke:#000000; stroke-width:0.021200; stroke-opacity:1; 
stroke-linecap:round; stroke-linejoin:round;">
</g>
<g style="fill:#000000; fill-opacity:1.000000; 
stroke:#000000; stroke-width:0.000000; stroke-opacity:1; 
stroke-linecap:round; stroke-linejoin:round;">
<circle cx="78.803848" cy="50.071797" r="0.400000" /> 
</g>
<g style="fill:#000000; fill-opacity:1.000000; 
stroke:#000000; stroke-width:0.021200; stroke-opacity:1; 
stroke-linecap:round; stroke-linejoin:round;">
</g>
<g style="fill:#000000; fill-opacity:1.000000; 
stroke:#000000; stroke-width:0.000000; stroke-opacity:1; 
stroke-linecap:round; stroke-linejoin:round;">
<circle cx="90.200000" cy="61.400000" r="0.400000" /> 
</g>
<g style="fill:#000000; fill-opacity:1.000000; 
stroke:#000000; stroke-width:0.021200; stroke-opacity:1; 
stroke-linecap:round; stroke-linejoin:round;">
</g>
<g style="fill:#000000; fill-opacity:1.000000; 
stroke:#000000; stroke-width:0.000000; stroke-opacity:1; 
stroke-linecap:round; stroke-linejoin:round;">
<circle cx="82.900000" cy="71.400000" r="0.400000" /> 
</g>
<g style="fill:#000000; fill-opacity:1.000000; 
stroke:#000000; stroke-width:0.021200; stroke-opacity:1; 
stroke-linecap:round; stroke-linejoin:round;">
</g>
<g style="fill:#000000; fill-opacity:1.000000; 
stroke:#000000; stroke-width:0.000000; stroke-opacity:1; 
stroke-linecap:round; stroke-linejoin:round;">
<circle cx="90.950000" cy="61.400000" r="0.400000" /> 
</g>
<g style="fill:#000000; fill-opacity:1.000000; 
stroke:#000000; stroke-width:0.021200; stroke-opacity:1; 
stroke-linecap:round; stroke-linejoin:round;">
</g>
<g style="fill:#000000; fill-opacity:1.000000; 
stroke:#000000; stroke-width:0.000000; stroke-opacity:1; 
stroke-linecap:round; stroke-linejoin:round;">
<circle cx="90.900000" cy="64.900000" r="0.400000" /> 
</g>
<g style="fill:#000000; fill-opacity:1.000000; 
stroke:#000000; stroke-width:0.021200; stroke-opacity:1; 
stroke-linecap:round; stroke-linejoin:round;">
</g>
<g style="fill:#000000; fill-opacity:1.000000; 
stroke:#000000; stroke-width:0.000000; stroke-opacity:1; 
stroke-linecap:round; stroke-linejoin:round;">
<circle cx="90.150000" cy="64.900000" r="0.400000" /> 
</g>
<g style="fill:#000000; fill-opacity:1.000000; 
stroke:#000000; stroke-width:0.021200; stroke-opacity:1; 
stroke-linecap:round; stroke-linejoin:round;">
</g>
<g style="fill:#000000; fill-opacity:1.000000; 
stroke:#000000; stroke-width:0.000000; stroke-opacity:1; 
stroke-linecap:round; stroke-linejoin:round;">
<circle cx="84.900000" cy="71.400000" r="0.400000" /> 
</g>
<g style="fill:#000000; fill-opacity:1.000000; 
stroke:#000000; stroke-width:0.021200; stroke-opacity:1; 
stroke-linecap:round; stroke-linejoin:round;">
</g>
<g style="fill:#000000; fill-opacity:1.000000; 
stroke:#000000; stroke-width:0.000000; stroke-opacity:1; 
stroke-linecap:round; stroke-linejoin:round;">
<circle cx="85.700000" cy="70.500000" r="0.400000" /> 
</g>
<g style="fill:#000000; fill-opacity:1.000000; 
stroke:#000000; stroke-width:0.021200; stroke-opacity:1; 
stroke-linecap:round; stroke-linejoin:round;">
</g>
<g style="fill:#000000; fill-opacity:1.000000; 
stroke:#000000; stroke-width:0.000000; stroke-opacity:1; 
stroke-linecap:round; stroke-linejoin:round;">
<circle cx="83.900000" cy="71.400000" r="0.400000" /> 
</g>
<g style="fill:#000000; fill-opacity:1.000000; 
stroke:#000000; stroke-width:0.021200; stroke-opacity:1; 
stroke-linecap:round; stroke-linejoin:round;">
</g>
<g style="fill:#000000; fill-opacity:1.000000; 
stroke:#000000; stroke-width:0.000000; stroke-opacity:1; 
stroke-linecap:round; stroke-linejoin:round;">
<circle cx="87.910000" cy="61.150000" r="0.400000" /> 
</g>
<g style="fill:#000000; fill-opacity:1.000000; 
stroke:#000000; stroke-width:0.021200; stroke-opacity:1; 
stroke-linecap:round; stroke-linejoin:round;">
</g>
<g >
</g>
<g style="fill:#000000; fill-opacity:1.000000; 
stroke:#000000; stroke-width:0.021200; stroke-opacity:1; 
stroke-linecap:round; stroke-linejoin:round;">
</g>
<g style="fill:#000000; fill-opacity:1.000000; 
stroke:#000000; stroke-width:0.250000; stroke-opacity:1; 
stroke-linecap:round; stroke-linejoin:round;">
</g>
<g style="fill:#000000; fill-opacity:0.0; 
stroke:#000000; stroke-width:0.250000; stroke-opacity:1; 
stroke-linecap:round; stroke-linejoin:round;">
<path d="M88.625000 63.500000
L86.900000 63.500000
" />
<path d="M86.800000 64.680000
L83.875000 67.605000
" />
<path d="M86.900000 63.500000
L86.800000 63.600000
" />
<path d="M83.875000 67.605000
L83.875000 68.500000
" />
<path d="M86.800000 63.600000
L86.800000 64.680000
" />
<path d="M91.100000 64.900000
L90.400000 64.900000
" />
<path d="M83.800000 70.500000
L82.900000 71.400000
" />
<path d="M83.875000 70.500000
L85.700000 70.500000
" />
<path d="M83.875000 70.500000
L83.875000 71.375000
" />
<path d="M84.000000 70.500000
L84.900000 71.400000
" />
<path d="M83.875000 71.375000
L83.900000 71.400000
" />
<path d="M87.910000 61.200000
L88.550000 60.560000
" />
<path d="M91.655000 67.470000
L91.125000 68.000000
" />
<path d="M88.500000 56.875000
L88.500000 60.560000
" />
<path d="M91.107021 60.560000
L91.655000 61.107979
" />
<path d="M91.655000 61.107979
L91.655000 67.470000
" />
<path d="M88.550000 60.560000
L91.107021 60.560000
" />
</g>
<g >
</g>
<g style="fill:#000000; fill-opacity:0.0; 
stroke:#000000; stroke-width:0.250000; stroke-opacity:1; 
stroke-linecap:round; stroke-linejoin:round;">
<g >
</g>
<g style="fill:#000000; fill-opacity:1.000000; 
stroke:#000000; stroke-width:0.000000; stroke-opacity:1; 
stroke-linecap:round; stroke-linejoin:round;">
<path style="fill:#000000; fill-opacity:1.000000; 
stroke:#000000; stroke-width:0.000000; stroke-opacity:1; 
stroke-linecap:round; stroke-linejoin:round;fill-rule:evenodd;"
d="M 91.002140,48.000687
91.045464,48.004477
91.173816,48.017119
91.189696,48.020008
91.257626,48.038209
91.259036,48.038612
91.353264,48.067196
91.366359,48.072207
91.435690,48.104536
91.438085,48.105733
91.522989,48.151115
91.528052,48.154225
91.595221,48.201258
91.598233,48.203543
91.632865,48.231964
91.671280,48.263491
91.674877,48.266751
91.733247,48.325121
91.736512,48.328723
91.796455,48.401765
91.798740,48.404777
91.845773,48.471946
91.848883,48.477009
91.894255,48.561893
91.895462,48.564308
91.927791,48.633639
91.932804,48.646739
91.961364,48.740887
91.961809,48.742445
91.979986,48.810282
91.982882,48.826202
91.995520,48.954525
91.999311,48.997843
91.999500,49.002161
91.999500,60.753144
91.980593,60.811335
91.931093,60.847299
91.869907,60.847299
91.830497,60.823148
91.348762,60.341414
91.345843,60.338229
91.319477,60.306806
91.296839,60.293736
91.283939,60.286288
91.280309,60.283975
91.246705,60.260446
91.246700,60.260443
91.245245,60.260054
91.221369,60.250164
91.220066,60.249411
91.179673,60.242289
91.175457,60.241354
91.149174,60.234312
91.135828,60.230736
91.135827,60.230736
91.131402,60.231123
91.094947,60.234312
91.090647,60.234500
88.924500,60.234500
88.866309,60.215593
88.830345,60.166093
88.825500,60.135500
88.825500,58.549500
88.844407,58.491309
88.893907,58.455345
88.924500,58.450500
89.019747,58.450500
89.019748,58.450500
89.078231,58.438867
89.144552,58.394552
89.188867,58.328231
89.200500,58.269748
89.200500,57.025000
89.700001,57.025000
89.700001,58.294791
89.702909,58.319874
89.748213,58.422477
89.827522,58.501786
89.930127,58.547090
89.955203,58.549999
90.349998,58.549999
90.350000,58.549998
90.650000,58.549998
90.650001,58.549999
91.044790,58.549999
91.044791,58.549998
91.069874,58.547090
91.172477,58.501786
91.251786,58.422477
91.297090,58.319872
91.299999,58.294797
91.300000,58.294795
91.300000,57.025001
91.299999,57.025000
90.650001,57.025000
90.650000,57.025001
90.650000,58.549998
90.350000,58.549998
90.350000,57.025000
89.700001,57.025000
89.200500,57.025000
89.200500,56.724998
89.700000,56.724998
89.700001,56.725000
90.349999,56.725000
90.350000,56.724999
90.350000,55.200000
90.650000,55.200000
90.650000,56.724999
90.650001,56.725000
91.299998,56.725000
91.299999,56.724998
91.299999,55.455209
91.299998,55.455208
91.297090,55.430125
91.251786,55.327522
91.172477,55.248213
91.069872,55.202909
91.044797,55.200000
90.650000,55.200000
90.350000,55.200000
89.955210,55.200000
89.955207,55.200001
89.930125,55.202909
89.827522,55.248213
89.748213,55.327522
89.702909,55.430127
89.700000,55.455202
89.700000,56.724998
89.200500,56.724998
89.200500,55.480252
89.188867,55.421769
89.144552,55.355448
89.144548,55.355445
89.078233,55.311134
89.078231,55.311133
89.078228,55.311132
89.078227,55.311132
89.019758,55.299501
89.019748,55.299500
87.980252,55.299500
87.980251,55.299500
87.980241,55.299501
87.921772,55.311132
87.921766,55.311134
87.855451,55.355445
87.855445,55.355451
87.811134,55.421766
87.811132,55.421772
87.799501,55.480241
87.799500,55.480253
87.799500,58.269746
87.799501,58.269758
87.811132,58.328227
87.811133,58.328231
87.855448,58.394552
87.921769,58.438867
87.966231,58.447711
87.980241,58.450498
87.980246,58.450498
87.980252,58.450500
88.075500,58.450500
88.133691,58.469407
88.169655,58.518907
88.174500,58.549500
88.174500,60.434165
88.155593,60.492356
88.145502,60.504170
88.117147,60.532524
88.062630,60.560300
88.034223,60.560672
87.910001,60.544318
87.909999,60.544318
87.753241,60.564955
87.753233,60.564957
87.607161,60.625462
87.607160,60.625462
87.481723,60.721713
87.481713,60.721723
87.385462,60.847160
87.385462,60.847161
87.324957,60.993233
87.324955,60.993241
87.304318,61.149999
87.304318,61.150000
87.324955,61.306758
87.324957,61.306766
87.385462,61.452838
87.385462,61.452839
87.465202,61.556758
87.481718,61.578282
87.607159,61.674536
87.738386,61.728892
87.784911,61.768627
87.799500,61.820355
87.799500,63.075500
87.780593,63.133691
87.731093,63.169655
87.700500,63.174500
87.265514,63.174500
87.207323,63.155593
87.205247,63.154042
87.102838,63.075462
86.956766,63.014957
86.956758,63.014955
86.800001,62.994318
86.799999,62.994318
86.643241,63.014955
86.643233,63.014957
86.497161,63.075462
86.497160,63.075462
86.371723,63.171713
86.371713,63.171723
86.275462,63.297160
86.275462,63.297161
86.214957,63.443233
86.214955,63.443241
86.194318,63.599999
86.194318,63.600000
86.214955,63.756758
86.214957,63.756766
86.275462,63.902838
86.275462,63.902839
86.275464,63.902841
86.371718,64.028282
86.398280,64.048664
86.435767,64.077428
86.470423,64.127852
86.474500,64.155970
86.474500,64.504165
86.455593,64.562356
86.445504,64.574169
83.656413,67.363259
83.653228,67.366176
83.621807,67.392542
83.621806,67.392544
83.601292,67.428075
83.598972,67.431716
83.575446,67.465316
83.575442,67.465324
83.575051,67.466786
83.565170,67.490640
83.564414,67.491948
83.564410,67.491960
83.557287,67.532349
83.556353,67.536564
83.545736,67.576187
83.545736,67.576193
83.549312,67.617072
83.549500,67.621373
83.549500,67.700500
83.530593,67.758691
83.481093,67.794655
83.450500,67.799500
82.480252,67.799500
82.480251,67.799500
82.480241,67.799501
82.421772,67.811132
82.421766,67.811134
82.355451,67.855445
82.355445,67.855451
82.311134,67.921766
82.311132,67.921772
82.299501,67.980241
82.299500,67.980253
82.299500,69.019746
82.299501,69.019758
82.311132,69.078227
82.311133,69.078231
82.355448,69.144552
82.421769,69.188867
82.466231,69.197711
82.480241,69.200498
82.480246,69.200498
82.480252,69.200500
82.480253,69.200500
85.269747,69.200500
85.269748,69.200500
85.328231,69.188867
85.394552,69.144552
85.438867,69.078231
85.450500,69.019748
85.450500,67.980252
85.438867,67.921769
85.394552,67.855448
85.348736,67.824834
85.328233,67.811134
85.328231,67.811133
85.328228,67.811132
85.328227,67.811132
85.269758,67.799501
85.269748,67.799500
85.269747,67.799500
84.379834,67.799500
84.321643,67.780593
84.285679,67.731093
84.285679,67.669907
84.309830,67.630496
87.018583,64.921742
87.021760,64.918829
87.053194,64.892455
87.073714,64.856911
87.076012,64.853303
87.099554,64.819684
87.099941,64.818236
87.109838,64.794345
87.110588,64.793045
87.117709,64.752656
87.118640,64.748452
87.129264,64.708807
87.125687,64.667922
87.125500,64.663623
87.125500,64.155970
87.144407,64.097779
87.164233,64.077428
87.228282,64.028282
87.324536,63.902841
87.331257,63.886613
87.370996,63.840088
87.422722,63.825500
87.700500,63.825500
87.758691,63.844407
87.794655,63.893907
87.799500,63.924500
87.799500,64.519746
87.799501,64.519758
87.811132,64.578227
87.811134,64.578233
87.855445,64.644548
87.855448,64.644552
87.921769,64.688867
87.966231,64.697711
87.980241,64.700498
87.980246,64.700498
87.980252,64.700500
87.980253,64.700500
89.019747,64.700500
89.019748,64.700500
89.078231,64.688867
89.144552,64.644552
89.188867,64.578231
89.200500,64.519748
89.200500,61.730252
89.188867,61.671769
89.144552,61.605448
89.103887,61.578276
89.078233,61.561134
89.078231,61.561133
89.078228,61.561132
89.078227,61.561132
89.019758,61.549501
89.019748,61.549500
89.019747,61.549500
88.542663,61.549500
88.484472,61.530593
88.448508,61.481093
88.448508,61.419907
88.451199,61.412615
88.495042,61.306767
88.495042,61.306766
88.495044,61.306762
88.515682,61.150000
88.510960,61.114138
88.522109,61.053981
88.539106,61.031218
88.655829,60.914496
88.710347,60.886719
88.725833,60.885500
89.637124,60.885500
89.695315,60.904407
89.731279,60.953907
89.731279,61.015093
89.715666,61.044767
89.675462,61.097161
89.614957,61.243233
89.614955,61.243241
89.594318,61.399999
89.594318,61.400000
89.614955,61.556758
89.614957,61.556766
89.675462,61.702838
89.675462,61.702839
89.775668,61.833431
89.774283,61.834493
89.798279,61.881569
89.799500,61.897071
89.799500,64.363211
89.780593,64.421402
89.760768,64.441752
89.721721,64.471714
89.721718,64.471716
89.625462,64.597160
89.625462,64.597161
89.564957,64.743233
89.564955,64.743241
89.544318,64.899999
89.544318,64.900000
89.564955,65.056758
89.564957,65.056766
89.625462,65.202838
89.625462,65.202839
89.720499,65.326694
89.721718,65.328282
89.847159,65.424536
89.847160,65.424536
89.847161,65.424537
89.922977,65.455941
89.993238,65.485044
90.110809,65.500522
90.149999,65.505682
90.150000,65.505682
90.150001,65.505682
90.181352,65.501554
90.306762,65.485044
90.452841,65.424536
90.464731,65.415411
90.522407,65.394987
90.581073,65.412363
90.585258,65.415404
90.597159,65.424536
90.597160,65.424536
90.597161,65.424537
90.672977,65.455941
90.743238,65.485044
90.860809,65.500522
90.899999,65.505682
90.900000,65.505682
90.900001,65.505682
90.931352,65.501554
91.056762,65.485044
91.192614,65.428771
91.253611,65.423971
91.305780,65.455941
91.329195,65.512469
91.329500,65.520236
91.329500,67.294166
91.310593,67.352357
91.300509,67.364163
91.088487,67.576187
90.894170,67.770504
90.839653,67.798281
90.824166,67.799500
88.730252,67.799500
88.730251,67.799500
88.730241,67.799501
88.671772,67.811132
88.671766,67.811134
88.605451,67.855445
88.605445,67.855451
88.561134,67.921766
88.561132,67.921772
88.549501,67.980241
88.549500,67.980253
88.549500,69.019746
88.549501,69.019758
88.561132,69.078227
88.561133,69.078231
88.605448,69.144552
88.671769,69.188867
88.716231,69.197711
88.730241,69.200498
88.730246,69.200498
88.730252,69.200500
88.730253,69.200500
91.519747,69.200500
91.519748,69.200500
91.578231,69.188867
91.644552,69.144552
91.688867,69.078231
91.700500,69.019748
91.700500,67.980252
91.694992,67.952559
91.702182,67.891798
91.722086,67.863240
91.830497,67.754830
91.885013,67.727053
91.945445,67.736625
91.988710,67.779889
91.999500,67.824834
91.999500,70.997837
91.999311,71.002154
91.997623,71.021447
91.978058,71.067536
91.987060,71.083017
91.988810,71.113602
91.982882,71.173796
91.979986,71.189716
91.961809,71.257553
91.961364,71.259111
91.932804,71.353259
91.927791,71.366359
91.895462,71.435690
91.894255,71.438105
91.848883,71.522989
91.845773,71.528052
91.798740,71.595221
91.796455,71.598233
91.736512,71.671275
91.733247,71.674877
91.674877,71.733247
91.671275,71.736512
91.598233,71.796455
91.595221,71.798740
91.528052,71.845773
91.522989,71.848883
91.438105,71.894255
91.435690,71.895462
91.366359,71.927791
91.353259,71.932804
91.259111,71.961364
91.257553,71.961809
91.189716,71.979986
91.173796,71.982882
91.045473,71.995520
91.002156,71.999311
90.997838,71.999500
85.396071,71.999500
85.337880,71.980593
85.301916,71.931093
85.301916,71.869907
85.326067,71.830496
85.328273,71.828288
85.328282,71.828282
85.424536,71.702841
85.485044,71.556762
85.505682,71.400000
85.485044,71.243238
85.478001,71.226236
85.473200,71.165243
85.505168,71.113073
85.561695,71.089656
85.582387,71.090198
85.699999,71.105682
85.700000,71.105682
85.700001,71.105682
85.752927,71.098714
85.856762,71.085044
85.953941,71.044791
88.450001,71.044791
88.452909,71.069874
88.498213,71.172477
88.577522,71.251786
88.680127,71.297090
88.705203,71.299999
89.974998,71.299999
89.974999,71.299998
90.275000,71.299998
90.275001,71.299999
91.544790,71.299999
91.544791,71.299998
91.569874,71.297090
91.672477,71.251786
91.751787,71.172476
91.799722,71.063912
91.810751,71.051586
91.800000,71.012817
91.800000,70.650001
91.799999,70.650000
90.275001,70.650000
90.275000,70.650001
90.275000,71.299998
89.974999,71.299998
89.975000,71.299997
89.975000,70.650001
89.974999,70.650000
88.450002,70.650000
88.450001,70.650001
88.450001,71.044791
85.953941,71.044791
86.002841,71.024536
86.128282,70.928282
86.224536,70.802841
86.285044,70.656762
86.305682,70.500000
86.285934,70.349999
88.450000,70.349999
88.450001,70.350000
89.974999,70.350000
89.975000,70.349999
90.275000,70.349999
90.275001,70.350000
91.799998,70.350000
91.799999,70.349999
91.799999,69.955210
91.799998,69.955208
91.797090,69.930125
91.751786,69.827522
91.672477,69.748213
91.569872,69.702909
91.544797,69.700000
90.275001,69.700000
90.275000,69.700001
90.275000,70.349999
89.975000,70.349999
89.975000,69.700001
89.974999,69.700000
88.705210,69.700000
88.705208,69.700001
88.680125,69.702909
88.577522,69.748213
88.498213,69.827522
88.452909,69.930127
88.450000,69.955202
88.450000,70.349999
86.285934,70.349999
86.285044,70.343238
86.224537,70.197161
86.224537,70.197160
86.128286,70.071723
86.128285,70.071722
86.128282,70.071718
86.128277,70.071714
86.128276,70.071713
86.034817,70.000000
86.002841,69.975464
86.002840,69.975463
86.002838,69.975462
85.856766,69.914957
85.856758,69.914955
85.700001,69.894318
85.699999,69.894318
85.543238,69.914955
85.543238,69.914956
85.532984,69.919203
85.471987,69.924001
85.419820,69.892029
85.412788,69.882740
85.394552,69.855448
85.394548,69.855445
85.328233,69.811134
85.328231,69.811133
85.328228,69.811132
85.328227,69.811132
85.269758,69.799501
85.269748,69.799500
82.480252,69.799500
82.480251,69.799500
82.480241,69.799501
82.421772,69.811132
82.421766,69.811134
82.355451,69.855445
82.355445,69.855451
82.311134,69.921766
82.311132,69.921772
82.299501,69.980241
82.299500,69.980253
82.299500,71.019746
82.299501,71.019758
82.311132,71.078227
82.311134,71.078233
82.326286,71.100909
82.342895,71.159797
82.335436,71.193791
82.314957,71.243236
82.314955,71.243241
82.294318,71.399999
82.294318,71.400000
82.314955,71.556758
82.314957,71.556766
82.375462,71.702838
82.375462,71.702839
82.471713,71.828276
82.471718,71.828282
82.471722,71.828285
82.473933,71.830496
82.474953,71.832498
82.475668,71.833430
82.475495,71.833562
82.501710,71.885013
82.492139,71.945445
82.448874,71.988710
82.403929,71.999500
69.002162,71.999500
68.997844,71.999311
68.954525,71.995520
68.826202,71.982882
68.810284,71.979986
68.773391,71.970101
68.742445,71.961809
68.740887,71.961364
68.646739,71.932804
68.633639,71.927791
68.564308,71.895462
68.561893,71.894255
68.477009,71.848883
68.471946,71.845773
68.404777,71.798740
68.401765,71.796455
68.328723,71.736512
68.325121,71.733247
68.266751,71.674877
68.263486,71.671275
68.203543,71.598233
68.201258,71.595221
68.174328,71.556762
68.154222,71.528048
68.151115,71.522989
68.105733,71.438085
68.104536,71.435690
68.072207,71.366359
68.067194,71.353259
68.038612,71.259036
68.038209,71.257626
68.020008,71.189696
68.017119,71.173816
68.004476,71.045447
68.004419,71.044791
68.000687,71.002140
68.000500,70.997840
68.000500,70.000004
68.644341,70.000004
68.664935,70.235400
68.726098,70.463667
68.825959,70.677818
68.825963,70.677826
68.913497,70.802839
68.961505,70.871401
69.128599,71.038495
69.128602,71.038497
69.128603,71.038498
69.147295,71.051586
69.322171,71.174035
69.322172,71.174035
69.322173,71.174036
69.322181,71.174040
69.536333,71.273901
69.536337,71.273903
69.764592,71.335063
69.764596,71.335063
69.764599,71.335064
69.941026,71.350500
69.941034,71.350500
70.058974,71.350500
70.235400,71.335064
70.235401,71.335063
70.235408,71.335063
70.463663,71.273903
70.677829,71.174035
70.871401,71.038495
71.038495,70.871401
71.174035,70.677830
71.273903,70.463663
71.335063,70.235408
71.335064,70.235400
71.355659,70.000004
71.355659,69.999995
71.335064,69.764599
71.335063,69.764596
71.335063,69.764592
71.273903,69.536337
71.174035,69.322171
71.049667,69.144554
71.038498,69.128603
71.038497,69.128602
71.038495,69.128599
70.871401,68.961505
70.871397,68.961502
70.871396,68.961501
70.677826,68.825963
70.677818,68.825959
70.463666,68.726098
70.463667,68.726098
70.387577,68.705710
70.235408,68.664937
70.235407,68.664936
70.235400,68.664935
70.058974,68.649500
70.058966,68.649500
69.941034,68.649500
69.941026,68.649500
69.764599,68.664935
69.536332,68.726098
69.322181,68.825959
69.322173,68.825963
69.128603,68.961501
68.961501,69.128603
68.825964,69.322171
68.726097,69.536337
68.664935,69.764599
68.644341,69.999995
68.644341,70.000004
68.000500,70.000004
68.000500,60.000000
73.894548,60.000000
73.914346,60.491285
73.914346,60.491291
73.914347,60.491297
73.914347,60.491306
73.973609,60.979365
73.973613,60.979392
74.071962,61.461136
74.071962,61.461137
74.208750,61.933386
74.208753,61.933395
74.335071,62.266467
74.383110,62.393133
74.537956,62.719464
74.592578,62.834579
74.593891,62.837345
74.839733,63.263155
74.839734,63.263156
75.119038,63.667800
75.429999,64.048659
75.770601,64.403263
75.770605,64.403267
75.963514,64.574169
76.138635,64.729313
76.138640,64.729317
76.531707,65.024688
76.715923,65.141179
76.947274,65.287477
76.947281,65.287480
76.947280,65.287480
76.947293,65.287488
77.334618,65.490770
77.382638,65.515973
77.834977,65.708697
78.065494,65.785654
78.301341,65.864392
78.301351,65.864395
78.301357,65.864397
78.778753,65.982065
79.264069,66.060936
79.754158,66.100500
79.754163,66.100500
80.245837,66.100500
80.245842,66.100500
80.735931,66.060936
81.221247,65.982065
81.698643,65.864397
82.165023,65.708697
82.617362,65.515973
82.974971,65.328286
83.052706,65.287488
83.052711,65.287484
83.052726,65.287477
83.468292,65.024688
83.861365,64.729313
84.229395,64.403267
84.569996,64.048664
84.880959,63.667803
85.160267,63.263155
85.406109,62.837345
85.616890,62.393133
85.791244,61.933401
85.791246,61.933395
85.791249,61.933386
85.928037,61.461137
85.928037,61.461136
85.928039,61.461130
86.026388,60.979383
86.046793,60.811335
86.085652,60.491306
86.085652,60.491301
86.085654,60.491285
86.105452,60.000000
86.085654,59.508715
86.085652,59.508698
86.085652,59.508693
86.026390,59.020634
86.026388,59.020617
85.928039,58.538870
85.922257,58.518907
85.791249,58.066613
85.791246,58.066604
85.773157,58.018910
85.616890,57.606867
85.406109,57.162655
85.160267,56.736845
85.020612,56.534521
84.880961,56.332199
84.570000,55.951340
84.229398,55.596736
84.097902,55.480241
83.953372,55.352198
83.861364,55.270686
83.861359,55.270682
83.468292,54.975311
83.176978,54.791095
83.052726,54.712523
83.052722,54.712520
83.052719,54.712519
83.052706,54.712511
82.617376,54.484034
82.617372,54.484032
82.617369,54.484030
82.617362,54.484027
82.165023,54.291303
82.165024,54.291303
82.165021,54.291302
81.698658,54.135607
81.698638,54.135601
81.337278,54.046534
81.221247,54.017935
80.735931,53.939064
80.735925,53.939063
80.461028,53.916871
80.245842,53.899500
79.754158,53.899500
79.556342,53.915469
79.264074,53.939063
78.778753,54.017935
78.301361,54.135601
78.301341,54.135607
77.834978,54.291302
77.542369,54.415971
77.382638,54.484027
77.382634,54.484028
77.382627,54.484032
77.382623,54.484034
76.947293,54.712511
76.947280,54.712519
76.531707,54.975311
76.138640,55.270682
76.138635,55.270686
75.770601,55.596736
75.429999,55.951340
75.119038,56.332199
74.839734,56.736843
74.593885,57.162666
74.383108,57.606872
74.208753,58.066604
74.208750,58.066613
74.071962,58.538862
74.071962,58.538863
73.973613,59.020607
73.973609,59.020634
73.914347,59.508693
73.914347,59.508702
73.914346,59.508709
73.914346,59.508715
73.894548,60.000000
68.000500,60.000000
68.000500,50.000004
68.644341,50.000004
68.664935,50.235400
68.726098,50.463667
68.825959,50.677818
68.825963,50.677826
68.825964,50.677828
68.825965,50.677829
68.961505,50.871401
69.128599,51.038495
69.322171,51.174035
69.322172,51.174035
69.322173,51.174036
69.322181,51.174040
69.536333,51.273901
69.536337,51.273903
69.764592,51.335063
69.764596,51.335063
69.764599,51.335064
69.941026,51.350500
69.941034,51.350500
70.058974,51.350500
70.235400,51.335064
70.235401,51.335063
70.235408,51.335063
70.463663,51.273903
70.677829,51.174035
70.871401,51.038495
71.038495,50.871401
71.174035,50.677830
71.273903,50.463663
71.335063,50.235408
71.355659,50.000004
88.644341,50.000004
88.664935,50.235400
88.726098,50.463667
88.825959,50.677818
88.825963,50.677826
88.825964,50.677828
88.825965,50.677829
88.961505,50.871401
89.128599,51.038495
89.322171,51.174035
89.322172,51.174035
89.322173,51.174036
89.322181,51.174040
89.536333,51.273901
89.536337,51.273903
89.764592,51.335063
89.764596,51.335063
89.764599,51.335064
89.941026,51.350500
89.941034,51.350500
90.058974,51.350500
90.235400,51.335064
90.235401,51.335063
90.235408,51.335063
90.463663,51.273903
90.677829,51.174035
90.871401,51.038495
91.038495,50.871401
91.174035,50.677830
91.273903,50.463663
91.335063,50.235408
91.355659,50.000000
91.335063,49.764592
91.273903,49.536337
91.174035,49.322171
91.038495,49.128599
90.871401,48.961505
90.871397,48.961502
90.871396,48.961501
90.678167,48.826202
90.677829,48.825965
90.677828,48.825964
90.677826,48.825963
90.677818,48.825959
90.463666,48.726098
90.463667,48.726098
90.387578,48.705710
90.235408,48.664937
90.235407,48.664936
90.235400,48.664935
90.058974,48.649500
90.058966,48.649500
89.941034,48.649500
89.941026,48.649500
89.764599,48.664935
89.536332,48.726098
89.322181,48.825959
89.322173,48.825963
89.128603,48.961501
88.961501,49.128603
88.825964,49.322171
88.726097,49.536337
88.664935,49.764599
88.644341,49.999995
88.644341,50.000004
71.355659,50.000004
71.355659,50.000000
71.335063,49.764592
71.273903,49.536337
71.174035,49.322171
71.038495,49.128599
70.871401,48.961505
70.871397,48.961502
70.871396,48.961501
70.678167,48.826202
70.677829,48.825965
70.677828,48.825964
70.677826,48.825963
70.677818,48.825959
70.463666,48.726098
70.463667,48.726098
70.387578,48.705710
70.235408,48.664937
70.235407,48.664936
70.235400,48.664935
70.058974,48.649500
70.058966,48.649500
69.941034,48.649500
69.941026,48.649500
69.764599,48.664935
69.536332,48.726098
69.322181,48.825959
69.322173,48.825963
69.128603,48.961501
68.961501,49.128603
68.825964,49.322171
68.726097,49.536337
68.664935,49.764599
68.644341,49.999995
68.644341,50.000004
68.000500,50.000004
68.000500,49.002158
68.000687,48.997860
68.004483,48.954465
68.017120,48.826179
68.020007,48.810307
68.038218,48.742342
68.038603,48.740995
68.067199,48.646725
68.072207,48.633639
68.099292,48.575555
68.104551,48.564276
68.105718,48.561943
68.151123,48.476994
68.154212,48.471965
68.201271,48.404759
68.203528,48.401784
68.263508,48.328698
68.266741,48.325131
68.325131,48.266741
68.328698,48.263508
68.401784,48.203528
68.404759,48.201271
68.471965,48.154212
68.476994,48.151123
68.561943,48.105718
68.564276,48.104551
68.633641,48.072205
68.646725,48.067199
68.740995,48.038603
68.742342,48.038218
68.810307,48.020007
68.826179,48.017120
68.954484,48.004482
68.997859,48.000687
69.002159,48.000500
90.997840,48.000500
Z" /> 
</g>
</g>
</g> 
</svg>
