<?xml version="1.0" standalone="no"?>
 <!DOCTYPE svg PUBLIC "-//W3C//DTD SVG 1.1//EN" 
 "http://www.w3.org/Graphics/SVG/1.1/DTD/svg11.dtd"> 
<svg
  xmlns:svg="http://www.w3.org/2000/svg"
  xmlns="http://www.w3.org/2000/svg"
  xmlns:xlink="http://www.w3.org/1999/xlink"
  version="1.1"
  width="3.8100000000000005cm" height="3.0100000000000002cm" viewBox="64.95 44.95 38.1 30.1">
<title>SVG Image created as pedalboard-led-ring-B_Cu.svg date 2023/05/22 19:36:47 </title>
  <desc>Image generated by PCBNEW </desc>
<g style="fill:#000000; fill-opacity:1.000000;stroke:#000000; stroke-opacity:1.000000;
stroke-linecap:round; stroke-linejoin:round;"
 transform="translate(0 0) scale(1 1)">
</g>
<g style="fill:#000000; fill-opacity:0.0; 
stroke:#000000; stroke-width:0.000000; stroke-opacity:1; 
stroke-linecap:round; stroke-linejoin:round;">
<g >
</g>
<g >
</g>
<g >
</g>
<g >
</g>
<g >
</g>
<g >
</g>
<g >
</g>
<g style="fill:#000000; fill-opacity:0.0; 
stroke:#000000; stroke-width:0.000000; stroke-opacity:1; 
stroke-linecap:round; stroke-linejoin:round;">
</g>
<g style="fill:#000000; fill-opacity:0.0; 
stroke:#000000; stroke-width:0.000000; stroke-opacity:1; 
stroke-linecap:round; stroke-linejoin:round;">
</g>
<g style="fill:#000000; fill-opacity:1.000000; 
stroke:#000000; stroke-width:0.000000; stroke-opacity:1; 
stroke-linecap:round; stroke-linejoin:round;">
<path style="fill:#000000; fill-opacity:1.000000; 
stroke:#000000; stroke-width:0.000000; stroke-opacity:1; 
stroke-linecap:round; stroke-linejoin:round;fill-rule:evenodd;"
d="M 91.450000,54.555000
91.461418,54.497597
91.493934,54.448934
91.542597,54.416418
91.600000,54.405000
93.250000,54.405000
93.307403,54.416418
93.356066,54.448934
93.388582,54.497597
93.400000,54.555000
93.400000,54.855000
93.388582,54.912403
93.356066,54.961066
93.307403,54.993582
93.250000,55.005000
91.600000,55.005000
91.542597,54.993582
91.493934,54.961066
91.461418,54.912403
91.450000,54.855000
Z" /> 
<path style="fill:#000000; fill-opacity:1.000000; 
stroke:#000000; stroke-width:0.000000; stroke-opacity:1; 
stroke-linecap:round; stroke-linejoin:round;fill-rule:evenodd;"
d="M 91.450000,53.285000
91.461418,53.227597
91.493934,53.178934
91.542597,53.146418
91.600000,53.135000
93.250000,53.135000
93.307403,53.146418
93.356066,53.178934
93.388582,53.227597
93.400000,53.285000
93.400000,53.585000
93.388582,53.642403
93.356066,53.691066
93.307403,53.723582
93.250000,53.735000
91.600000,53.735000
91.542597,53.723582
91.493934,53.691066
91.461418,53.642403
91.450000,53.585000
Z" /> 
<path style="fill:#000000; fill-opacity:1.000000; 
stroke:#000000; stroke-width:0.000000; stroke-opacity:1; 
stroke-linecap:round; stroke-linejoin:round;fill-rule:evenodd;"
d="M 91.450000,52.015000
91.461418,51.957597
91.493934,51.908934
91.542597,51.876418
91.600000,51.865000
93.250000,51.865000
93.307403,51.876418
93.356066,51.908934
93.388582,51.957597
93.400000,52.015000
93.400000,52.315000
93.388582,52.372403
93.356066,52.421066
93.307403,52.453582
93.250000,52.465000
91.600000,52.465000
91.542597,52.453582
91.493934,52.421066
91.461418,52.372403
91.450000,52.315000
Z" /> 
<path style="fill:#000000; fill-opacity:1.000000; 
stroke:#000000; stroke-width:0.000000; stroke-opacity:1; 
stroke-linecap:round; stroke-linejoin:round;fill-rule:evenodd;"
d="M 91.450000,50.745000
91.461418,50.687597
91.493934,50.638934
91.542597,50.606418
91.600000,50.595000
93.250000,50.595000
93.307403,50.606418
93.356066,50.638934
93.388582,50.687597
93.400000,50.745000
93.400000,51.045000
93.388582,51.102403
93.356066,51.151066
93.307403,51.183582
93.250000,51.195000
91.600000,51.195000
91.542597,51.183582
91.493934,51.151066
91.461418,51.102403
91.450000,51.045000
Z" /> 
<path style="fill:#000000; fill-opacity:1.000000; 
stroke:#000000; stroke-width:0.000000; stroke-opacity:1; 
stroke-linecap:round; stroke-linejoin:round;fill-rule:evenodd;"
d="M 96.400000,50.745000
96.411418,50.687597
96.443934,50.638934
96.492597,50.606418
96.550000,50.595000
98.200000,50.595000
98.257403,50.606418
98.306066,50.638934
98.338582,50.687597
98.350000,50.745000
98.350000,51.045000
98.338582,51.102403
98.306066,51.151066
98.257403,51.183582
98.200000,51.195000
96.550000,51.195000
96.492597,51.183582
96.443934,51.151066
96.411418,51.102403
96.400000,51.045000
Z" /> 
<path style="fill:#000000; fill-opacity:1.000000; 
stroke:#000000; stroke-width:0.000000; stroke-opacity:1; 
stroke-linecap:round; stroke-linejoin:round;fill-rule:evenodd;"
d="M 96.400000,52.015000
96.411418,51.957597
96.443934,51.908934
96.492597,51.876418
96.550000,51.865000
98.200000,51.865000
98.257403,51.876418
98.306066,51.908934
98.338582,51.957597
98.350000,52.015000
98.350000,52.315000
98.338582,52.372403
98.306066,52.421066
98.257403,52.453582
98.200000,52.465000
96.550000,52.465000
96.492597,52.453582
96.443934,52.421066
96.411418,52.372403
96.400000,52.315000
Z" /> 
<path style="fill:#000000; fill-opacity:1.000000; 
stroke:#000000; stroke-width:0.000000; stroke-opacity:1; 
stroke-linecap:round; stroke-linejoin:round;fill-rule:evenodd;"
d="M 96.400000,53.285000
96.411418,53.227597
96.443934,53.178934
96.492597,53.146418
96.550000,53.135000
98.200000,53.135000
98.257403,53.146418
98.306066,53.178934
98.338582,53.227597
98.350000,53.285000
98.350000,53.585000
98.338582,53.642403
98.306066,53.691066
98.257403,53.723582
98.200000,53.735000
96.550000,53.735000
96.492597,53.723582
96.443934,53.691066
96.411418,53.642403
96.400000,53.585000
Z" /> 
<path style="fill:#000000; fill-opacity:1.000000; 
stroke:#000000; stroke-width:0.000000; stroke-opacity:1; 
stroke-linecap:round; stroke-linejoin:round;fill-rule:evenodd;"
d="M 96.400000,54.555000
96.411418,54.497597
96.443934,54.448934
96.492597,54.416418
96.550000,54.405000
98.200000,54.405000
98.257403,54.416418
98.306066,54.448934
98.338582,54.497597
98.350000,54.555000
98.350000,54.855000
98.338582,54.912403
98.306066,54.961066
98.257403,54.993582
98.200000,55.005000
96.550000,55.005000
96.492597,54.993582
96.443934,54.961066
96.411418,54.912403
96.400000,54.855000
Z" /> 
</g>
<g >
</g>
<g style="fill:#000000; fill-opacity:1.000000; 
stroke:#000000; stroke-width:0.000000; stroke-opacity:1; 
stroke-linecap:round; stroke-linejoin:round;">
<path style="fill:#000000; fill-opacity:1.000000; 
stroke:#000000; stroke-width:0.000000; stroke-opacity:1; 
stroke-linecap:round; stroke-linejoin:round;fill-rule:evenodd;"
d="M 92.560000,63.900000
93.560000,63.900000
93.560000,67.050000
92.560000,67.050000
Z" /> 
<path style="fill:#000000; fill-opacity:1.000000; 
stroke:#000000; stroke-width:0.000000; stroke-opacity:1; 
stroke-linecap:round; stroke-linejoin:round;fill-rule:evenodd;"
d="M 92.560000,68.950000
93.560000,68.950000
93.560000,72.100000
92.560000,72.100000
Z" /> 
<path style="fill:#000000; fill-opacity:1.000000; 
stroke:#000000; stroke-width:0.000000; stroke-opacity:1; 
stroke-linecap:round; stroke-linejoin:round;fill-rule:evenodd;"
d="M 95.100000,63.900000
96.100000,63.900000
96.100000,67.050000
95.100000,67.050000
Z" /> 
<path style="fill:#000000; fill-opacity:1.000000; 
stroke:#000000; stroke-width:0.000000; stroke-opacity:1; 
stroke-linecap:round; stroke-linejoin:round;fill-rule:evenodd;"
d="M 95.100000,68.950000
96.100000,68.950000
96.100000,72.100000
95.100000,72.100000
Z" /> 
<path style="fill:#000000; fill-opacity:1.000000; 
stroke:#000000; stroke-width:0.000000; stroke-opacity:1; 
stroke-linecap:round; stroke-linejoin:round;fill-rule:evenodd;"
d="M 97.640000,63.900000
98.640000,63.900000
98.640000,67.050000
97.640000,67.050000
Z" /> 
<path style="fill:#000000; fill-opacity:1.000000; 
stroke:#000000; stroke-width:0.000000; stroke-opacity:1; 
stroke-linecap:round; stroke-linejoin:round;fill-rule:evenodd;"
d="M 97.640000,68.950000
98.640000,68.950000
98.640000,72.100000
97.640000,72.100000
Z" /> 
</g>
<g >
</g>
<g style="fill:#000000; fill-opacity:1.000000; 
stroke:#000000; stroke-width:0.000000; stroke-opacity:1; 
stroke-linecap:round; stroke-linejoin:round;">
<path style="fill:#000000; fill-opacity:1.000000; 
stroke:#000000; stroke-width:0.000000; stroke-opacity:1; 
stroke-linecap:round; stroke-linejoin:round;fill-rule:evenodd;"
d="M 89.950000,58.450000
89.969030,58.354329
90.023223,58.273223
90.104329,58.219030
90.200000,58.200000
92.475000,58.200000
92.570671,58.219030
92.651777,58.273223
92.705970,58.354329
92.725000,58.450000
92.725000,59.550000
92.705970,59.645671
92.651777,59.726777
92.570671,59.780970
92.475000,59.800000
90.200000,59.800000
90.104329,59.780970
90.023223,59.726777
89.969030,59.645671
89.950000,59.550000
Z" /> 
<path style="fill:#000000; fill-opacity:1.000000; 
stroke:#000000; stroke-width:0.000000; stroke-opacity:1; 
stroke-linecap:round; stroke-linejoin:round;fill-rule:evenodd;"
d="M 94.075000,58.450000
94.094030,58.354329
94.148223,58.273223
94.229329,58.219030
94.325000,58.200000
96.600000,58.200000
96.695671,58.219030
96.776777,58.273223
96.830970,58.354329
96.850000,58.450000
96.850000,59.550000
96.830970,59.645671
96.776777,59.726777
96.695671,59.780970
96.600000,59.800000
94.325000,59.800000
94.229329,59.780970
94.148223,59.726777
94.094030,59.645671
94.075000,59.550000
Z" /> 
</g>
<g >
</g>
<g style="fill:#000000; fill-opacity:1.000000; 
stroke:#000000; stroke-width:0.000000; stroke-opacity:1; 
stroke-linecap:round; stroke-linejoin:round;">
<path style="fill:#000000; fill-opacity:1.000000; 
stroke:#000000; stroke-width:0.000000; stroke-opacity:1; 
stroke-linecap:round; stroke-linejoin:round;fill-rule:evenodd;"
d="M 99.900000,53.950000
98.900000,53.950000
98.900000,52.950000
99.900000,52.950000
Z" /> 
<path style="fill:#000000; fill-opacity:1.000000; 
stroke:#000000; stroke-width:0.000000; stroke-opacity:1; 
stroke-linecap:round; stroke-linejoin:round;fill-rule:evenodd;"
d="M 99.900000,52.250000
98.900000,52.250000
98.900000,51.250000
99.900000,51.250000
Z" /> 
</g>
<g >
</g>
<g style="fill:#000000; fill-opacity:1.000000; 
stroke:#000000; stroke-width:0.000000; stroke-opacity:1; 
stroke-linecap:round; stroke-linejoin:round;">
<path style="fill:#000000; fill-opacity:1.000000; 
stroke:#000000; stroke-width:0.000000; stroke-opacity:1; 
stroke-linecap:round; stroke-linejoin:round;fill-rule:evenodd;"
d="M 99.831250,54.355000
99.911135,54.370890
99.978859,54.416141
100.024110,54.483865
100.040000,54.563750
100.040000,54.981250
100.024110,55.061135
99.978859,55.128859
99.911135,55.174110
99.831250,55.190000
98.968750,55.190000
98.888865,55.174110
98.821141,55.128859
98.775890,55.061135
98.760000,54.981250
98.760000,54.563750
98.775890,54.483865
98.821141,54.416141
98.888865,54.370890
98.968750,54.355000
Z" /> 
<path style="fill:#000000; fill-opacity:1.000000; 
stroke:#000000; stroke-width:0.000000; stroke-opacity:1; 
stroke-linecap:round; stroke-linejoin:round;fill-rule:evenodd;"
d="M 99.831250,55.610000
99.911135,55.625890
99.978859,55.671141
100.024110,55.738865
100.040000,55.818750
100.040000,56.236250
100.024110,56.316135
99.978859,56.383859
99.911135,56.429110
99.831250,56.445000
98.968750,56.445000
98.888865,56.429110
98.821141,56.383859
98.775890,56.316135
98.760000,56.236250
98.760000,55.818750
98.775890,55.738865
98.821141,55.671141
98.888865,55.625890
98.968750,55.610000
Z" /> 
</g>
<g >
</g>
<g style="fill:#000000; fill-opacity:1.000000; 
stroke:#000000; stroke-width:0.000000; stroke-opacity:1; 
stroke-linecap:round; stroke-linejoin:round;">
<circle cx="89.500000" cy="61.400000" r="0.400000" /> 
</g>
<g style="fill:#000000; fill-opacity:1.000000; 
stroke:#000000; stroke-width:0.021200; stroke-opacity:1; 
stroke-linecap:round; stroke-linejoin:round;">
</g>
<g style="fill:#000000; fill-opacity:1.000000; 
stroke:#000000; stroke-width:0.000000; stroke-opacity:1; 
stroke-linecap:round; stroke-linejoin:round;">
<circle cx="90.500000" cy="61.400000" r="0.400000" /> 
</g>
<g style="fill:#000000; fill-opacity:1.000000; 
stroke:#000000; stroke-width:0.021200; stroke-opacity:1; 
stroke-linecap:round; stroke-linejoin:round;">
</g>
<g style="fill:#000000; fill-opacity:1.000000; 
stroke:#000000; stroke-width:0.000000; stroke-opacity:1; 
stroke-linecap:round; stroke-linejoin:round;">
<circle cx="90.500000" cy="62.400000" r="0.400000" /> 
</g>
<g style="fill:#000000; fill-opacity:1.000000; 
stroke:#000000; stroke-width:0.021200; stroke-opacity:1; 
stroke-linecap:round; stroke-linejoin:round;">
</g>
<g style="fill:#000000; fill-opacity:1.000000; 
stroke:#000000; stroke-width:0.000000; stroke-opacity:1; 
stroke-linecap:round; stroke-linejoin:round;">
<circle cx="95.600000" cy="72.700000" r="0.400000" /> 
</g>
<g style="fill:#000000; fill-opacity:1.000000; 
stroke:#000000; stroke-width:0.021200; stroke-opacity:1; 
stroke-linecap:round; stroke-linejoin:round;">
</g>
<g style="fill:#000000; fill-opacity:1.000000; 
stroke:#000000; stroke-width:0.000000; stroke-opacity:1; 
stroke-linecap:round; stroke-linejoin:round;">
<circle cx="97.375000" cy="55.600000" r="0.400000" /> 
</g>
<g style="fill:#000000; fill-opacity:1.000000; 
stroke:#000000; stroke-width:0.021200; stroke-opacity:1; 
stroke-linecap:round; stroke-linejoin:round;">
</g>
<g style="fill:#000000; fill-opacity:1.000000; 
stroke:#000000; stroke-width:0.000000; stroke-opacity:1; 
stroke-linecap:round; stroke-linejoin:round;">
<circle cx="92.400000" cy="55.500000" r="0.400000" /> 
</g>
<g style="fill:#000000; fill-opacity:1.000000; 
stroke:#000000; stroke-width:0.021200; stroke-opacity:1; 
stroke-linecap:round; stroke-linejoin:round;">
</g>
<g style="fill:#000000; fill-opacity:1.000000; 
stroke:#000000; stroke-width:0.000000; stroke-opacity:1; 
stroke-linecap:round; stroke-linejoin:round;">
<circle cx="90.800000" cy="53.400000" r="0.400000" /> 
</g>
<g style="fill:#000000; fill-opacity:1.000000; 
stroke:#000000; stroke-width:0.021200; stroke-opacity:1; 
stroke-linecap:round; stroke-linejoin:round;">
</g>
<g style="fill:#000000; fill-opacity:1.000000; 
stroke:#000000; stroke-width:0.000000; stroke-opacity:1; 
stroke-linecap:round; stroke-linejoin:round;">
<circle cx="90.800000" cy="52.200000" r="0.400000" /> 
</g>
<g style="fill:#000000; fill-opacity:1.000000; 
stroke:#000000; stroke-width:0.021200; stroke-opacity:1; 
stroke-linecap:round; stroke-linejoin:round;">
</g>
<g >
</g>
<g style="fill:#000000; fill-opacity:1.000000; 
stroke:#000000; stroke-width:0.021200; stroke-opacity:1; 
stroke-linecap:round; stroke-linejoin:round;">
</g>
<g style="fill:#000000; fill-opacity:1.000000; 
stroke:#000000; stroke-width:0.800000; stroke-opacity:1; 
stroke-linecap:round; stroke-linejoin:round;">
</g>
<g style="fill:#000000; fill-opacity:0.0; 
stroke:#000000; stroke-width:0.800000; stroke-opacity:1; 
stroke-linecap:round; stroke-linejoin:round;">
<path d="M95.600000 70.525000
L95.600000 72.700000
" />
<path d="M99.400000 54.772500
L97.442500 54.772500
" />
<path d="M97.442500 54.772500
L97.375000 54.705000
" />
<path d="M97.375000 55.600000
L97.375000 54.705000
" />
</g>
<g style="fill:#000000; fill-opacity:0.0; 
stroke:#000000; stroke-width:0.250000; stroke-opacity:1; 
stroke-linecap:round; stroke-linejoin:round;">
<path d="M92.425000 54.705000
L92.425000 55.475000
" />
<path d="M92.425000 55.475000
L92.400000 55.500000
" />
<path d="M90.835000 53.435000
L90.800000 53.400000
" />
<path d="M92.425000 53.435000
L90.835000 53.435000
" />
<path d="M92.425000 52.165000
L90.835000 52.165000
" />
<path d="M90.835000 52.165000
L90.800000 52.200000
" />
<path d="M97.390000 53.450000
L97.375000 53.435000
" />
<path d="M99.400000 53.450000
L97.390000 53.450000
" />
<path d="M88.763604 65.400000
L91.851396 65.400000
" />
<path d="M97.000000 47.913604
L96.286396 47.200000
" />
<path d="M92.100000 69.565000
L93.060000 70.525000
" />
<path d="M87.550000 64.186396
L88.763604 65.400000
" />
<path d="M87.550000 49.438604
L87.550000 64.186396
" />
<path d="M89.788604 47.200000
L87.550000 49.438604
" />
<path d="M97.375000 50.895000
L97.000000 50.520000
" />
<path d="M91.851396 65.400000
L92.100000 65.648604
" />
<path d="M92.100000 65.648604
L92.100000 69.565000
" />
<path d="M97.000000 50.520000
L97.000000 47.913604
" />
<path d="M96.286396 47.200000
L89.788604 47.200000
" />
<path d="M96.998249 52.165000
L97.375000 52.165000
" />
<path d="M93.060000 65.475000
L92.555000 64.970000
" />
<path d="M96.075000 51.241751
L96.998249 52.165000
" />
<path d="M89.975000 47.650000
L96.100000 47.650000
" />
<path d="M96.550000 48.100000
L96.550000 50.073249
" />
<path d="M96.075000 50.548249
L96.075000 51.241751
" />
<path d="M88.970000 64.970000
L88.000000 64.000000
" />
<path d="M88.000000 64.000000
L88.000000 49.625000
" />
<path d="M88.000000 49.625000
L89.975000 47.650000
" />
<path d="M92.555000 64.970000
L88.970000 64.970000
" />
<path d="M96.550000 50.073249
L96.075000 50.548249
" />
<path d="M96.100000 47.650000
L96.550000 48.100000
" />
</g>
<g >
</g>
<g style="fill:#000000; fill-opacity:0.0; 
stroke:#000000; stroke-width:0.250000; stroke-opacity:1; 
stroke-linecap:round; stroke-linejoin:round;">
<g >
</g>
<g style="fill:#000000; fill-opacity:1.000000; 
stroke:#000000; stroke-width:0.000000; stroke-opacity:1; 
stroke-linecap:round; stroke-linejoin:round;">
<path style="fill:#000000; fill-opacity:1.000000; 
stroke:#000000; stroke-width:0.000000; stroke-opacity:1; 
stroke-linecap:round; stroke-linejoin:round;fill-rule:evenodd;"
d="M 89.415677,58.719685
89.436319,58.736319
89.450000,58.750000
91.463500,58.750000
91.530539,58.769685
91.576294,58.822489
91.587500,58.874000
91.587499,60.299998
91.587500,60.299999
91.676000,60.299999
91.743039,60.319684
91.788794,60.372488
91.800000,60.423999
91.800000,61.500000
95.678988,61.500000
95.746027,61.519685
95.791782,61.572489
95.802951,61.620977
95.846036,63.387506
95.846036,63.387507
95.849999,63.550000
95.850000,65.600000
94.184500,65.600000
94.117461,65.580315
94.071706,65.527511
94.060500,65.476000
94.060500,65.225000
94.600000,65.225000
95.350000,65.225000
95.350000,63.400000
95.055482,63.400000
95.048867,63.400354
94.992628,63.406400
94.857910,63.456647
94.742811,63.542811
94.656647,63.657910
94.606400,63.792628
94.600354,63.848867
94.600000,63.855481
94.600000,65.225000
94.060500,65.225000
94.060499,63.855439
94.060499,63.852128
94.054091,63.792517
94.003796,63.657669
93.917546,63.542454
93.802331,63.456204
93.667483,63.405909
93.615816,63.400354
93.611166,63.399854
93.611165,63.399853
93.607873,63.399500
93.604550,63.399500
92.515439,63.399500
92.515420,63.399500
92.512128,63.399501
92.508848,63.399853
92.508840,63.399854
92.452515,63.405909
92.317669,63.456204
92.202454,63.542454
92.116204,63.657668
92.065910,63.792515
92.065909,63.792517
92.059500,63.852127
92.059500,63.855449
92.059500,64.220500
92.039815,64.287539
91.987011,64.333294
91.935500,64.344500
89.280453,64.344500
89.213414,64.324815
89.192772,64.308181
88.661819,63.777227
88.628334,63.715904
88.625500,63.689546
88.625500,59.250000
89.450001,59.250000
89.450001,59.596829
89.450321,59.603111
89.460493,59.702695
89.515642,59.869122
89.607683,60.018345
89.731654,60.142316
89.880877,60.234357
90.047303,60.289506
90.146890,60.299680
90.153168,60.299999
91.087499,60.299999
91.087500,60.299998
91.087500,59.250000
89.450001,59.250000
88.625500,59.250000
88.625500,58.824000
88.645185,58.756961
88.697989,58.711206
88.749500,58.700000
89.348638,58.700000
Z" /> 
</g>
</g>
<g style="fill:#000000; fill-opacity:1.000000; 
stroke:#000000; stroke-width:0.000000; stroke-opacity:1; 
stroke-linecap:round; stroke-linejoin:round;">
<g >
<path style="fill:#000000; fill-opacity:1.000000; 
stroke:#000000; stroke-width:0.000000; stroke-opacity:1; 
stroke-linecap:round; stroke-linejoin:round;fill-rule:evenodd;"
d="M 101.005394,46.000971
101.045519,46.004482
101.171780,46.016919
101.191682,46.020540
101.256467,46.037899
101.260203,46.038966
101.351570,46.066682
101.367959,46.072952
101.433867,46.103686
101.439867,46.106685
101.482639,46.129548
101.519046,46.149008
101.531715,46.156791
101.592889,46.199625
101.600430,46.205346
101.668455,46.261172
101.677472,46.269345
101.730653,46.322526
101.738826,46.331543
101.794652,46.399568
101.800373,46.407109
101.843207,46.468283
101.850990,46.480952
101.893304,46.560114
101.896327,46.566162
101.900877,46.575918
101.927041,46.632027
101.933319,46.648436
101.961008,46.739713
101.962123,46.743616
101.979454,46.808298
101.983082,46.828237
101.995523,46.954554
101.997207,46.973801
101.999030,46.994638
101.999500,47.005406
101.999499,72.994583
101.999027,73.005390
101.995523,73.045442
101.983082,73.171764
101.979455,73.191696
101.962123,73.256382
101.961008,73.260285
101.933319,73.351562
101.927041,73.367971
101.896328,73.433835
101.893304,73.439884
101.850990,73.519046
101.843207,73.531715
101.800373,73.592889
101.794652,73.600430
101.738826,73.668455
101.730653,73.677472
101.677472,73.730653
101.668455,73.738826
101.600430,73.794652
101.592889,73.800373
101.531715,73.843207
101.519046,73.850990
101.439884,73.893304
101.433835,73.896328
101.367971,73.927041
101.351562,73.933319
101.260285,73.961008
101.256382,73.962123
101.191700,73.979454
101.171761,73.983082
101.045445,73.995523
101.026131,73.997213
101.005360,73.999031
100.994594,73.999500
67.005416,73.999500
66.994606,73.999028
66.954554,73.995523
66.828234,73.983082
66.808302,73.979455
66.743616,73.962123
66.739713,73.961008
66.648436,73.933319
66.632027,73.927041
66.566163,73.896328
66.560114,73.893304
66.480952,73.850990
66.468283,73.843207
66.407109,73.800373
66.399568,73.794652
66.331543,73.738826
66.322526,73.730653
66.269345,73.677472
66.261172,73.668455
66.205346,73.600430
66.199625,73.592889
66.156791,73.531715
66.149008,73.519046
66.129548,73.482639
66.106685,73.439867
66.103686,73.433867
66.072952,73.367959
66.066682,73.351570
66.038966,73.260203
66.037899,73.256467
66.020541,73.191685
66.016918,73.171773
66.004476,73.045442
66.003822,73.037977
66.000968,73.005360
66.000500,72.994597
66.000500,60.000000
73.894548,60.000000
73.894649,60.002506
73.914245,60.488793
73.914246,60.488807
73.914346,60.491285
73.914643,60.493736
73.914645,60.493753
73.973310,60.976900
73.973312,60.976912
73.973612,60.979383
73.974108,60.981817
73.974112,60.981836
74.051825,61.362497
74.071961,61.461130
74.072649,61.463508
74.072654,61.463525
74.113791,61.605545
74.208756,61.933401
74.383110,62.393133
74.384169,62.395366
74.384176,62.395381
74.592819,62.835087
74.592824,62.835098
74.593891,62.837345
74.839733,63.263155
74.841145,63.265202
74.841151,63.265210
75.117623,63.665749
75.119041,63.667803
75.430004,64.048664
75.770605,64.403267
75.772480,64.404928
75.772482,64.404930
75.985763,64.593880
76.138635,64.729313
76.140623,64.730807
76.140633,64.730815
76.529706,65.023184
76.529712,65.023188
76.531708,65.024688
76.947274,65.287477
77.382638,65.515973
77.834977,65.708697
78.301357,65.864397
78.778753,65.982065
79.264069,66.060936
79.754158,66.100500
79.756643,66.100500
80.243357,66.100500
80.245842,66.100500
80.735931,66.060936
81.221247,65.982065
81.698643,65.864397
82.165023,65.708697
82.617362,65.515973
83.052726,65.287477
83.468292,65.024688
83.861365,64.729313
84.229395,64.403267
84.569996,64.048664
84.880959,63.667803
85.160267,63.263155
85.406109,62.837345
85.616890,62.393133
85.791244,61.933401
85.928039,61.461130
86.026388,60.979383
86.085654,60.491285
86.105452,60.000000
86.085654,59.508715
86.026388,59.020617
85.928039,58.538870
85.791244,58.066599
85.616890,57.606867
85.407421,57.165421
85.407180,57.164912
85.407179,57.164911
85.406109,57.162655
85.160267,56.736845
84.880959,56.332197
84.569996,55.951336
84.229395,55.596733
84.210105,55.579644
83.863240,55.272348
83.863238,55.272346
83.861365,55.270687
83.859379,55.269194
83.859366,55.269184
83.470293,54.976815
83.470282,54.976807
83.468292,54.975312
83.466178,54.973975
83.466172,54.973971
83.054832,54.713855
83.052726,54.712523
83.050535,54.711373
83.050528,54.711369
82.619575,54.485188
82.619565,54.485183
82.617362,54.484027
82.615058,54.483045
82.615051,54.483042
82.167319,54.292281
82.167313,54.292279
82.165023,54.291303
81.844063,54.184151
81.700993,54.136387
81.700980,54.136383
81.698643,54.135603
81.648038,54.123130
81.223667,54.018531
81.223655,54.018528
81.221247,54.017935
81.218786,54.017535
81.218781,54.017534
80.738391,53.939463
80.738371,53.939460
80.735931,53.939064
80.733470,53.938865
80.733451,53.938863
80.248317,53.899699
80.248297,53.899698
80.245842,53.899500
79.754158,53.899500
79.751703,53.899698
79.751682,53.899699
79.266548,53.938863
79.266526,53.938865
79.264069,53.939064
79.261631,53.939460
79.261608,53.939463
78.781218,54.017534
78.781208,54.017535
78.778753,54.017935
78.776349,54.018527
78.776332,54.018531
78.303766,54.135009
78.303760,54.135010
78.301357,54.135603
78.299025,54.136381
78.299006,54.136387
77.837334,54.290516
77.834977,54.291303
77.832694,54.292275
77.832680,54.292281
77.384948,54.483042
77.384931,54.483049
77.382638,54.484027
77.380443,54.485178
77.380424,54.485188
76.949471,54.711369
76.949453,54.711379
76.947274,54.712523
76.945174,54.713850
76.945167,54.713855
76.533827,54.973971
76.533809,54.973983
76.531708,54.975312
76.529728,54.976799
76.529706,54.976815
76.140633,55.269184
76.140608,55.269204
76.138635,55.270687
76.136773,55.272336
76.136759,55.272348
75.772482,55.595069
75.772466,55.595083
75.770605,55.596733
75.768874,55.598534
75.768871,55.598538
75.431730,55.949538
75.431718,55.949551
75.430004,55.951336
75.428433,55.953259
75.428426,55.953268
75.120620,56.330262
75.120609,56.330275
75.119041,56.332197
75.117634,56.334235
75.117623,56.334250
74.841151,56.734789
74.841138,56.734808
74.839733,56.736845
74.838490,56.738997
74.838483,56.739009
74.595142,57.160487
74.595135,57.160500
74.593891,57.162655
74.592829,57.164891
74.592819,57.164912
74.384176,57.604618
74.384165,57.604641
74.383110,57.606867
74.382232,57.609180
74.382226,57.609196
74.209638,58.064272
74.209634,58.064283
74.208756,58.066599
74.208064,58.068987
74.208063,58.068991
74.072654,58.536474
74.072648,58.536497
74.071961,58.538870
74.071464,58.541301
74.071462,58.541312
73.974112,59.018163
73.974108,59.018186
73.973612,59.020617
73.973312,59.023083
73.973310,59.023099
73.914645,59.506246
73.914643,59.506265
73.914346,59.508715
73.914246,59.511190
73.914245,59.511206
73.894649,59.997493
73.894548,60.000000
66.000500,60.000000
66.000500,49.418798
86.919840,49.418798
86.923950,49.462277
86.924500,49.473947
86.924500,64.103652
86.922235,64.124162
86.924439,64.194268
86.924500,64.198163
86.924500,64.225746
86.924988,64.229615
86.924989,64.229621
86.925004,64.229739
86.925918,64.241363
86.927290,64.285022
86.932879,64.304256
86.936825,64.323312
86.939335,64.343188
86.955414,64.383800
86.959197,64.394847
86.971382,64.436787
86.981580,64.454031
86.990136,64.471496
86.997514,64.490128
86.997515,64.490129
87.023180,64.525455
87.029593,64.535218
87.051826,64.572812
87.051829,64.572815
87.051830,64.572816
87.065995,64.586981
87.078627,64.601771
87.090406,64.617983
87.124058,64.645822
87.132699,64.653685
88.262800,65.783787
88.275700,65.799888
88.326827,65.847900
88.329624,65.850611
88.349133,65.870120
88.352313,65.872587
88.361175,65.880155
88.393022,65.910062
88.410574,65.919711
88.426842,65.930397
88.442668,65.942673
88.482750,65.960017
88.493237,65.965155
88.531511,65.986197
88.540014,65.988379
88.550912,65.991178
88.569317,65.997478
88.587708,66.005437
88.630854,66.012270
88.642272,66.014635
88.684585,66.025500
88.704620,66.025500
88.724019,66.027027
88.743800,66.030160
88.787278,66.026050
88.798948,66.025500
91.350500,66.025500
91.417539,66.045185
91.463294,66.097989
91.474500,66.149500
91.474500,69.482256
91.472235,69.502766
91.474439,69.572872
91.474500,69.576767
91.474500,69.604350
91.474988,69.608219
91.474989,69.608225
91.475004,69.608343
91.475918,69.619967
91.477290,69.663626
91.482879,69.682860
91.486825,69.701916
91.489335,69.721792
91.505414,69.762404
91.509197,69.773451
91.521382,69.815391
91.531580,69.832635
91.540136,69.850100
91.547514,69.868732
91.547515,69.868733
91.573180,69.904059
91.579593,69.913822
91.601826,69.951416
91.601829,69.951419
91.601830,69.951420
91.615995,69.965585
91.628627,69.980375
91.640406,69.996587
91.674058,70.024426
91.682699,70.032289
92.023181,70.372771
92.056666,70.434094
92.059500,70.460452
92.059500,72.144560
92.059500,72.144578
92.059501,72.147872
92.059853,72.151152
92.059854,72.151159
92.065909,72.207484
92.091056,72.274906
92.116204,72.342331
92.202454,72.457546
92.317669,72.543796
92.452517,72.594091
92.512127,72.600500
93.607872,72.600499
93.667483,72.594091
93.802331,72.543796
93.917546,72.457546
94.003796,72.342331
94.054091,72.207483
94.060500,72.147873
94.060500,72.144578
94.599500,72.144578
94.599501,72.147872
94.599853,72.151152
94.599854,72.151159
94.605909,72.207484
94.631056,72.274906
94.656204,72.342331
94.674766,72.367127
94.699183,72.432591
94.699499,72.441437
94.699499,72.646306
94.698820,72.659264
94.694539,72.699996
94.714326,72.888257
94.772820,73.068284
94.867466,73.232216
94.994129,73.372889
95.147269,73.484151
95.320197,73.561144
95.505352,73.600500
95.505354,73.600500
95.694648,73.600500
95.818083,73.574262
95.879803,73.561144
96.052730,73.484151
96.205871,73.372888
96.332533,73.232216
96.427179,73.068284
96.485674,72.888256
96.505460,72.700000
96.501179,72.659264
96.500500,72.646306
96.500500,72.441438
96.520185,72.374399
96.525234,72.367126
96.543796,72.342331
96.594091,72.207483
96.600500,72.147873
96.600499,70.775000
97.140000,70.775000
97.140000,72.144518
97.140354,72.151132
97.146400,72.207371
97.196647,72.342089
97.282811,72.457188
97.397910,72.543352
97.532628,72.593599
97.588867,72.599645
97.595482,72.600000
97.890000,72.600000
97.890000,70.775000
98.390000,70.775000
98.390000,72.600000
98.684518,72.600000
98.691132,72.599645
98.747371,72.593599
98.882089,72.543352
98.997188,72.457188
99.083352,72.342089
99.133599,72.207371
99.139645,72.151132
99.140000,72.144518
99.140000,70.775000
98.390000,70.775000
97.890000,70.775000
97.140000,70.775000
96.600499,70.775000
96.600499,70.275000
97.140000,70.275000
97.890000,70.275000
97.890000,68.450000
98.390000,68.450000
98.390000,70.275000
99.140000,70.275000
99.140000,68.905481
99.139645,68.898867
99.133599,68.842628
99.083352,68.707910
98.997188,68.592811
98.882089,68.506647
98.747371,68.456400
98.691132,68.450354
98.684518,68.450000
98.390000,68.450000
97.890000,68.450000
97.595482,68.450000
97.588867,68.450354
97.532628,68.456400
97.397910,68.506647
97.282811,68.592811
97.196647,68.707910
97.146400,68.842628
97.140354,68.898867
97.140000,68.905481
97.140000,70.275000
96.600499,70.275000
96.600499,68.902128
96.594091,68.842517
96.543796,68.707669
96.457546,68.592454
96.342331,68.506204
96.207483,68.455909
96.155816,68.450354
96.151166,68.449854
96.151165,68.449853
96.147873,68.449500
96.144550,68.449500
95.055439,68.449500
95.055420,68.449500
95.052128,68.449501
95.048848,68.449853
95.048840,68.449854
94.992515,68.455909
94.857669,68.506204
94.742454,68.592454
94.656204,68.707668
94.605910,68.842515
94.605909,68.842517
94.599500,68.902127
94.599500,68.905448
94.599500,68.905449
94.599500,72.144560
94.599500,72.144578
94.060500,72.144578
94.060499,68.902128
94.054091,68.842517
94.003796,68.707669
93.917546,68.592454
93.802331,68.506204
93.667483,68.455909
93.615816,68.450354
93.611166,68.449854
93.611165,68.449853
93.607873,68.449500
93.604551,68.449500
92.849500,68.449500
92.782461,68.429815
92.736706,68.377011
92.725500,68.325500
92.725500,67.674499
92.745185,67.607460
92.797989,67.561705
92.849500,67.550499
93.604561,67.550499
93.607872,67.550499
93.667483,67.544091
93.802331,67.493796
93.917546,67.407546
94.003796,67.292331
94.054091,67.157483
94.060500,67.097873
94.060499,66.229499
94.080183,66.162461
94.132987,66.116706
94.184499,66.105500
94.184500,66.105500
94.475501,66.105500
94.542540,66.125185
94.588295,66.177989
94.599501,66.229500
94.599501,67.097872
94.605909,67.157483
94.656204,67.292331
94.742454,67.407546
94.857669,67.493796
94.992517,67.544091
95.052127,67.550500
96.147872,67.550499
96.207483,67.544091
96.342331,67.493796
96.457546,67.407546
96.543796,67.292331
96.594091,67.157483
96.600500,67.097873
96.600499,65.725000
97.140000,65.725000
97.140000,67.094518
97.140354,67.101132
97.146400,67.157371
97.196647,67.292089
97.282811,67.407188
97.397910,67.493352
97.532628,67.543599
97.588867,67.549645
97.595482,67.550000
97.890000,67.550000
97.890000,65.725000
98.390000,65.725000
98.390000,67.550000
98.684518,67.550000
98.691132,67.549645
98.747371,67.543599
98.882089,67.493352
98.997188,67.407188
99.083352,67.292089
99.133599,67.157371
99.139645,67.101132
99.140000,67.094518
99.140000,65.725000
98.390000,65.725000
97.890000,65.725000
97.140000,65.725000
96.600499,65.725000
96.600499,65.225000
97.140000,65.225000
97.890000,65.225000
97.890000,63.400000
98.390000,63.400000
98.390000,65.225000
99.140000,65.225000
99.140000,63.855481
99.139645,63.848867
99.133599,63.792628
99.083352,63.657910
98.997188,63.542811
98.882089,63.456647
98.747371,63.406400
98.691132,63.400354
98.684518,63.400000
98.390000,63.400000
97.890000,63.400000
97.595482,63.400000
97.588867,63.400354
97.532628,63.406400
97.397910,63.456647
97.282811,63.542811
97.196647,63.657910
97.146400,63.792628
97.140354,63.848867
97.140000,63.855481
97.140000,65.225000
96.600499,65.225000
96.600499,63.852128
96.594091,63.792517
96.543796,63.657669
96.486187,63.580714
96.457545,63.542452
96.401750,63.500684
96.359880,63.444750
96.352099,63.404441
96.351999,63.400354
96.308301,61.608652
96.295551,61.507509
96.284382,61.459021
96.251601,61.362496
96.173813,61.241457
96.128058,61.188653
96.019324,61.094433
96.019323,61.094432
95.888448,61.034662
95.823101,61.015474
95.823099,61.015473
95.821408,61.014977
95.821404,61.014976
95.818278,61.014526
95.818265,61.014524
95.678988,60.994500
92.429500,60.994500
92.362461,60.974815
92.316706,60.922011
92.305500,60.870500
92.305500,60.424499
92.325185,60.357460
92.377989,60.311705
92.429500,60.300499
92.521859,60.300499
92.525008,60.300499
92.627797,60.289999
92.794334,60.234814
92.943656,60.142712
93.067712,60.018656
93.159814,59.869334
93.214999,59.702797
93.225500,59.600009
93.225500,59.250000
93.575001,59.250000
93.575001,59.596829
93.575321,59.603111
93.585493,59.702695
93.640642,59.869122
93.732683,60.018345
93.856654,60.142316
94.005877,60.234357
94.172303,60.289506
94.271890,60.299680
94.278168,60.299999
95.212499,60.299999
95.212500,60.299998
95.212500,59.250000
95.712499,59.250000
95.712499,60.299998
95.712500,60.299999
96.646829,60.299999
96.653111,60.299678
96.752695,60.289506
96.919122,60.234357
97.068345,60.142316
97.192316,60.018345
97.284357,59.869122
97.339506,59.702696
97.349680,59.603109
97.350000,59.596831
97.350000,59.250000
95.712499,59.250000
95.212500,59.250000
93.575001,59.250000
93.225500,59.250000
93.225499,58.750000
93.575000,58.750000
95.212500,58.750000
95.212500,57.700000
95.712499,57.700000
95.712499,58.749999
95.712501,58.750000
97.349999,58.750000
97.349999,58.403170
97.349678,58.396888
97.339506,58.297304
97.284357,58.130877
97.192316,57.981654
97.068345,57.857683
96.919122,57.765642
96.752696,57.710493
96.653109,57.700319
96.646832,57.700000
95.712499,57.700000
95.212500,57.700000
94.278170,57.700000
94.271888,57.700321
94.172304,57.710493
94.005877,57.765642
93.856654,57.857683
93.732683,57.981654
93.640642,58.130877
93.585493,58.297303
93.575319,58.396890
93.575000,58.403168
93.575000,58.750000
93.225499,58.750000
93.225499,58.399992
93.214999,58.297203
93.159814,58.130666
93.067712,57.981344
93.067711,57.981342
92.943657,57.857288
92.794334,57.765186
92.627797,57.710000
92.528141,57.699819
92.528122,57.699818
92.525009,57.699500
92.521860,57.699500
90.153140,57.699500
90.153120,57.699500
90.149992,57.699501
90.146860,57.699820
90.146858,57.699821
90.047203,57.710000
89.880665,57.765186
89.731342,57.857288
89.607289,57.981341
89.508145,58.142081
89.456197,58.188805
89.387234,58.200028
89.384960,58.199722
89.348638,58.194500
88.749500,58.194500
88.682461,58.174815
88.636706,58.122011
88.625500,58.070500
88.625500,53.399999
89.894540,53.399999
89.914326,53.588257
89.972820,53.768284
90.067466,53.932216
90.194129,54.072889
90.347269,54.184151
90.520197,54.261144
90.705352,54.300500
90.831389,54.300500
90.898428,54.320185
90.944183,54.372989
90.954127,54.442147
90.952686,54.448812
90.949691,54.486871
90.949690,54.486886
90.949500,54.489306
90.949500,54.920694
90.949690,54.923114
90.949691,54.923128
90.952402,54.957572
90.998255,55.115397
90.998256,55.115398
91.081919,55.256865
91.198135,55.373081
91.339602,55.456744
91.414715,55.478566
91.473599,55.516172
91.502806,55.579644
91.503440,55.584680
91.514326,55.688257
91.572820,55.868284
91.667466,56.032216
91.794129,56.172889
91.947269,56.284151
92.120197,56.361144
92.305352,56.400500
92.305354,56.400500
92.494648,56.400500
92.618084,56.374262
92.679803,56.361144
92.852730,56.284151
93.005871,56.172888
93.132533,56.032216
93.227179,55.868284
93.285674,55.688256
93.294985,55.599661
93.321568,55.535050
93.378865,55.495065
93.383651,55.493567
93.510398,55.456744
93.651865,55.373081
93.768081,55.256865
93.851744,55.115398
93.897598,54.957569
93.900500,54.920694
93.900500,54.489306
93.897598,54.452431
93.851744,54.294602
93.768081,54.153135
93.760107,54.139651
93.762129,54.138454
93.739144,54.096367
93.744123,54.026675
93.760784,54.000749
93.760107,54.000349
93.816231,53.905447
93.851744,53.845398
93.897598,53.687569
93.900500,53.650694
93.900500,53.219306
93.897598,53.182431
93.851744,53.024602
93.851744,53.024601
93.760107,52.869651
93.762129,52.868454
93.739144,52.826367
93.744123,52.756675
93.760784,52.730749
93.760107,52.730349
93.841657,52.592454
93.851744,52.575398
93.897598,52.417569
93.900500,52.380694
93.900500,51.949306
93.897598,51.912431
93.851744,51.754602
93.768081,51.613135
93.768080,51.613134
93.760107,51.599652
93.762007,51.598527
93.738788,51.556004
93.743772,51.486312
93.760397,51.460447
93.759709,51.460040
93.851280,51.305200
93.897099,51.147488
93.897295,51.145000
90.952704,51.145000
90.953897,51.160157
90.950930,51.160390
90.950790,51.210767
90.912852,51.269439
90.849216,51.298287
90.831911,51.299500
90.705352,51.299500
90.520197,51.338855
90.347269,51.415848
90.194129,51.527110
90.067466,51.667783
89.972820,51.831715
89.914326,52.011742
89.894540,52.200000
89.914326,52.388257
89.972821,52.568286
90.070805,52.738001
90.087278,52.805901
90.070805,52.861999
89.972821,53.031713
89.914326,53.211742
89.894540,53.399999
88.625500,53.399999
88.625500,50.644999
90.952704,50.644999
90.952705,50.645000
92.175000,50.645000
92.175000,50.095000
92.675000,50.095000
92.675000,50.645000
93.897295,50.645000
93.897295,50.644999
93.897099,50.642511
93.851280,50.484799
93.767682,50.343442
93.651557,50.227317
93.510197,50.143717
93.352493,50.097900
93.318076,50.095191
93.313197,50.095000
92.675000,50.095000
92.175000,50.095000
91.536803,50.095000
91.531923,50.095191
91.497506,50.097900
91.339802,50.143717
91.198442,50.227317
91.082317,50.343442
90.998719,50.484799
90.952900,50.642511
90.952704,50.644999
88.625500,50.644999
88.625500,49.935452
88.645185,49.868413
88.661819,49.847771
90.197771,48.311819
90.259094,48.278334
90.285452,48.275500
95.789548,48.275500
95.856587,48.295185
95.877229,48.311819
95.888181,48.322771
95.921666,48.384094
95.924500,48.410452
95.924500,49.762795
95.904815,49.829834
95.888181,49.850476
95.691208,50.047448
95.675110,50.060345
95.627096,50.111474
95.624392,50.114265
95.607628,50.131029
95.607621,50.131036
95.604880,50.133778
95.602499,50.136846
95.602490,50.136857
95.602411,50.136960
95.594842,50.145821
95.564935,50.177669
95.555285,50.195223
95.544609,50.211477
95.532326,50.227312
95.514975,50.267407
95.509838,50.277893
95.488802,50.316156
95.483821,50.335558
95.477520,50.353960
95.469561,50.372351
95.462728,50.415491
95.460360,50.426923
95.449500,50.469226
95.449500,50.489265
95.447973,50.508663
95.444840,50.528443
95.448950,50.571922
95.449500,50.583592
95.449500,51.159007
95.447235,51.179517
95.449439,51.249623
95.449500,51.253518
95.449500,51.281101
95.449988,51.284970
95.449989,51.284976
95.450004,51.285094
95.450918,51.296718
95.452290,51.340377
95.457879,51.359611
95.461825,51.378667
95.464335,51.398543
95.480414,51.439155
95.484197,51.450202
95.496382,51.492142
95.506580,51.509386
95.515136,51.526851
95.522514,51.545483
95.522515,51.545484
95.548180,51.580810
95.554593,51.590573
95.576826,51.628167
95.576829,51.628170
95.576830,51.628171
95.590995,51.642336
95.603627,51.657126
95.615406,51.673338
95.649058,51.701177
95.657698,51.709039
95.863181,51.914522
95.896665,51.975844
95.899499,52.002202
95.899499,52.378248
95.899499,52.378273
95.899500,52.380694
95.899690,52.383113
95.899691,52.383128
95.902402,52.417572
95.948255,52.575397
96.039893,52.730348
96.037870,52.731543
96.060858,52.773642
96.055874,52.843334
96.039216,52.869252
96.039893,52.869652
95.948255,53.024602
95.902402,53.182427
95.899691,53.216871
95.899690,53.216886
95.899500,53.219306
95.899500,53.650694
95.899690,53.653114
95.899691,53.653128
95.902402,53.687572
95.948255,53.845397
96.039893,54.000348
96.037870,54.001543
96.060858,54.043642
96.055874,54.113334
96.039216,54.139252
96.039893,54.139652
95.948255,54.294602
95.902402,54.452427
95.899691,54.486871
95.899690,54.486886
95.899500,54.489306
95.899500,54.920694
95.899690,54.923114
95.899691,54.923128
95.902402,54.957572
95.948255,55.115397
95.948256,55.115398
96.031919,55.256865
96.148135,55.373081
96.230633,55.421870
96.289602,55.456744
96.379660,55.482909
96.438546,55.520515
96.467752,55.583988
96.468386,55.589023
96.489326,55.788257
96.547820,55.968284
96.642466,56.132216
96.769129,56.272889
96.922269,56.384151
97.095197,56.461144
97.280352,56.500500
97.280354,56.500500
97.469648,56.500500
97.593084,56.474262
97.654803,56.461144
97.827730,56.384151
97.901902,56.330262
97.980870,56.272889
98.043850,56.202943
98.103337,56.166294
98.173194,56.167625
98.231242,56.206511
98.259052,56.270608
98.260000,56.285915
98.260000,56.290718
98.260255,56.296347
98.266489,56.364945
98.317692,56.529264
98.406736,56.676561
98.528438,56.798263
98.675735,56.887307
98.840054,56.938510
98.908652,56.944744
98.914281,56.945000
99.150000,56.945000
99.150000,56.944999
99.649999,56.944999
99.650000,56.945000
99.885719,56.945000
99.891347,56.944744
99.959945,56.938510
100.124264,56.887307
100.271561,56.798263
100.393263,56.676561
100.482307,56.529264
100.533510,56.364945
100.539744,56.296347
100.540000,56.290718
100.540000,56.277500
99.650000,56.277500
99.649999,56.944999
99.150000,56.944999
99.150000,55.901500
99.169685,55.834461
99.222489,55.788706
99.274000,55.777500
100.540000,55.777500
100.540000,55.764281
100.539744,55.758652
100.533510,55.690054
100.482307,55.525735
100.445369,55.464632
100.427533,55.397077
100.445370,55.336331
100.482765,55.274473
100.534006,55.110035
100.540500,55.038572
100.540500,54.506428
100.534006,54.434965
100.482765,54.270527
100.409677,54.149626
100.391842,54.082072
100.392506,54.072221
100.397403,54.026675
100.400500,53.997873
100.400499,52.902128
100.394091,52.842517
100.343796,52.707669
100.318511,52.673893
100.294094,52.608430
100.308945,52.540157
100.318513,52.525270
100.343352,52.492089
100.393599,52.357373
100.399645,52.301132
100.400000,52.294518
100.400000,52.000000
99.274000,52.000000
99.206961,51.980315
99.161206,51.927511
99.150000,51.876000
99.150000,50.750000
99.650000,50.750000
99.650000,51.500000
100.400000,51.500000
100.400000,51.205481
100.399645,51.198867
100.393599,51.142628
100.343352,51.007910
100.257188,50.892811
100.142089,50.806647
100.007371,50.756400
99.951132,50.750354
99.944518,50.750000
99.650000,50.750000
99.150000,50.750000
98.970688,50.750000
98.903649,50.730315
98.857894,50.677511
98.851910,50.654408
98.851143,50.654631
98.801744,50.484602
98.735359,50.372351
98.718081,50.343135
98.601865,50.226919
98.548270,50.195223
98.460397,50.143255
98.302572,50.097402
98.268128,50.094691
98.268114,50.094690
98.265694,50.094500
98.263249,50.094500
97.749500,50.094500
97.682461,50.074815
97.636706,50.022011
97.625500,49.970500
97.625500,47.996343
97.627763,47.975842
97.625561,47.905747
97.625500,47.901853
97.625500,47.878148
97.625500,47.874254
97.624998,47.870285
97.624080,47.858628
97.622709,47.814976
97.617119,47.795738
97.613174,47.776686
97.610664,47.756812
97.594578,47.716185
97.590805,47.705164
97.578617,47.663214
97.568421,47.645973
97.559863,47.628506
97.552486,47.609872
97.526798,47.574516
97.520409,47.564788
97.498170,47.527183
97.484006,47.513019
97.471369,47.498224
97.459595,47.482018
97.459594,47.482017
97.425935,47.454172
97.417305,47.446318
96.787198,46.816211
96.774302,46.800113
96.723171,46.752098
96.720374,46.749387
96.703623,46.732636
96.700867,46.729880
96.697686,46.727412
96.688818,46.719837
96.656978,46.689938
96.639420,46.680285
96.623160,46.669604
96.607332,46.657327
96.567247,46.639980
96.556757,46.634841
96.518487,46.613802
96.499087,46.608821
96.480680,46.602519
96.462293,46.594562
96.419154,46.587729
96.407720,46.585361
96.365415,46.574500
96.345380,46.574500
96.325982,46.572973
96.318558,46.571797
96.306201,46.569840
96.306200,46.569840
96.279880,46.572328
96.262721,46.573950
96.251052,46.574500
89.871345,46.574500
89.850841,46.572236
89.780749,46.574439
89.776855,46.574500
89.749254,46.574500
89.745403,46.574986
89.745372,46.574988
89.745244,46.575005
89.733632,46.575918
89.689972,46.577290
89.670732,46.582880
89.651685,46.586825
89.631813,46.589335
89.591203,46.605413
89.580158,46.609194
89.538215,46.621380
89.520973,46.631578
89.503501,46.640138
89.484870,46.647514
89.449542,46.673181
89.439784,46.679591
89.402183,46.701829
89.388014,46.715998
89.373226,46.728628
89.357017,46.740405
89.329176,46.774058
89.321315,46.782696
87.166208,48.937803
87.150110,48.950700
87.102096,49.001829
87.099392,49.004620
87.082628,49.021384
87.082621,49.021391
87.079880,49.024133
87.077499,49.027201
87.077490,49.027212
87.077411,49.027315
87.069842,49.036176
87.039935,49.068024
87.030285,49.085578
87.019609,49.101832
87.007326,49.117667
86.989975,49.157762
86.984838,49.168248
86.963802,49.206511
86.958821,49.225913
86.952520,49.244315
86.944561,49.262706
86.937728,49.305846
86.935360,49.317278
86.924499,49.359581
86.924500,49.379620
86.922973,49.399018
86.919840,49.418798
66.000500,49.418798
66.000500,47.005412
66.000972,46.994605
66.004476,46.954554
66.016919,46.828215
66.020539,46.808322
66.037908,46.743498
66.038956,46.739828
66.066685,46.648419
66.072948,46.632049
66.103700,46.566102
66.106670,46.560161
66.149012,46.480944
66.156786,46.468289
66.199639,46.407089
66.205330,46.399587
66.261191,46.331521
66.269325,46.322547
66.322547,46.269325
66.331521,46.261191
66.399587,46.205330
66.407089,46.199639
66.468289,46.156786
66.480944,46.149012
66.560161,46.106670
66.566102,46.103700
66.632049,46.072948
66.648419,46.066685
66.739828,46.038956
66.743498,46.037908
66.808318,46.020540
66.828221,46.016918
66.954471,46.004483
66.994640,46.000968
67.005402,46.000500
100.994587,46.000500
Z" /> 
</g>
</g>
</g> 
</svg>
