<?xml version="1.0" standalone="no"?>
 <!DOCTYPE svg PUBLIC "-//W3C//DTD SVG 1.1//EN" 
 "http://www.w3.org/Graphics/SVG/1.1/DTD/svg11.dtd"> 
<svg
  xmlns:svg="http://www.w3.org/2000/svg"
  xmlns="http://www.w3.org/2000/svg"
  xmlns:xlink="http://www.w3.org/1999/xlink"
  version="1.1"
  width="3.0100000000000002cm" height="3.0100000000000002cm" viewBox="64.95 44.95 30.1 30.1">
<title>SVG Image created as pedalboard-led-ring-B_Cu.svg date 2023/06/01 06:02:33 </title>
  <desc>Image generated by PCBNEW </desc>
<g style="fill:#000000; fill-opacity:1.000000;stroke:#000000; stroke-opacity:1.000000;
stroke-linecap:round; stroke-linejoin:round;"
 transform="translate(0 0) scale(1 1)">
</g>
<g style="fill:#000000; fill-opacity:0.0; 
stroke:#000000; stroke-width:0.000000; stroke-opacity:1; 
stroke-linecap:round; stroke-linejoin:round;">
<g >
</g>
<g >
</g>
<g >
</g>
<g >
</g>
<g >
</g>
<g >
</g>
<g >
</g>
<g >
</g>
<g >
</g>
<g >
</g>
<g >
</g>
<g >
</g>
<g >
</g>
<g >
</g>
<g >
</g>
<g >
</g>
<g >
</g>
<g >
</g>
<g >
</g>
<g >
</g>
<g >
</g>
<g >
</g>
<g >
</g>
<g >
</g>
<g >
</g>
<g style="fill:#000000; fill-opacity:0.0; 
stroke:#000000; stroke-width:0.000000; stroke-opacity:1; 
stroke-linecap:round; stroke-linejoin:round;">
</g>
<g style="fill:#000000; fill-opacity:0.0; 
stroke:#000000; stroke-width:0.000000; stroke-opacity:1; 
stroke-linecap:round; stroke-linejoin:round;">
</g>
<g style="fill:#000000; fill-opacity:1.000000; 
stroke:#000000; stroke-width:0.000000; stroke-opacity:1; 
stroke-linecap:round; stroke-linejoin:round;">
<path style="fill:#000000; fill-opacity:1.000000; 
stroke:#000000; stroke-width:0.000000; stroke-opacity:1; 
stroke-linecap:round; stroke-linejoin:round;fill-rule:evenodd;"
d="M 92.500000,58.250000
91.500000,58.250000
91.500000,55.500000
92.500000,55.500000
Z" /> 
<path style="fill:#000000; fill-opacity:1.000000; 
stroke:#000000; stroke-width:0.000000; stroke-opacity:1; 
stroke-linecap:round; stroke-linejoin:round;fill-rule:evenodd;"
d="M 92.500000,64.500000
91.500000,64.500000
91.500000,61.750000
92.500000,61.750000
Z" /> 
<path style="fill:#000000; fill-opacity:1.000000; 
stroke:#000000; stroke-width:0.000000; stroke-opacity:1; 
stroke-linecap:round; stroke-linejoin:round;fill-rule:evenodd;"
d="M 90.500000,58.250000
89.500000,58.250000
89.500000,55.500000
90.500000,55.500000
Z" /> 
<path style="fill:#000000; fill-opacity:1.000000; 
stroke:#000000; stroke-width:0.000000; stroke-opacity:1; 
stroke-linecap:round; stroke-linejoin:round;fill-rule:evenodd;"
d="M 90.500000,64.500000
89.500000,64.500000
89.500000,61.750000
90.500000,61.750000
Z" /> 
</g>
<g >
</g>
<g style="fill:#000000; fill-opacity:1.000000; 
stroke:#000000; stroke-width:0.000000; stroke-opacity:1; 
stroke-linecap:round; stroke-linejoin:round;">
<circle cx="89.500000" cy="61.100000" r="0.400000" /> 
</g>
<g style="fill:#000000; fill-opacity:1.000000; 
stroke:#000000; stroke-width:0.021200; stroke-opacity:1; 
stroke-linecap:round; stroke-linejoin:round;">
</g>
<g style="fill:#000000; fill-opacity:1.000000; 
stroke:#000000; stroke-width:0.000000; stroke-opacity:1; 
stroke-linecap:round; stroke-linejoin:round;">
<circle cx="88.100000" cy="63.100000" r="0.400000" /> 
</g>
<g style="fill:#000000; fill-opacity:1.000000; 
stroke:#000000; stroke-width:0.021200; stroke-opacity:1; 
stroke-linecap:round; stroke-linejoin:round;">
</g>
<g style="fill:#000000; fill-opacity:1.000000; 
stroke:#000000; stroke-width:0.000000; stroke-opacity:1; 
stroke-linecap:round; stroke-linejoin:round;">
<circle cx="89.726279" cy="65.153590" r="0.400000" /> 
</g>
<g style="fill:#000000; fill-opacity:1.000000; 
stroke:#000000; stroke-width:0.021200; stroke-opacity:1; 
stroke-linecap:round; stroke-linejoin:round;">
</g>
<g style="fill:#000000; fill-opacity:1.000000; 
stroke:#000000; stroke-width:0.000000; stroke-opacity:1; 
stroke-linecap:round; stroke-linejoin:round;">
<circle cx="69.000000" cy="60.400000" r="0.400000" /> 
</g>
<g style="fill:#000000; fill-opacity:1.000000; 
stroke:#000000; stroke-width:0.021200; stroke-opacity:1; 
stroke-linecap:round; stroke-linejoin:round;">
</g>
<g style="fill:#000000; fill-opacity:1.000000; 
stroke:#000000; stroke-width:0.000000; stroke-opacity:1; 
stroke-linecap:round; stroke-linejoin:round;">
<circle cx="80.400000" cy="71.000000" r="0.400000" /> 
</g>
<g style="fill:#000000; fill-opacity:1.000000; 
stroke:#000000; stroke-width:0.021200; stroke-opacity:1; 
stroke-linecap:round; stroke-linejoin:round;">
</g>
<g style="fill:#000000; fill-opacity:1.000000; 
stroke:#000000; stroke-width:0.000000; stroke-opacity:1; 
stroke-linecap:round; stroke-linejoin:round;">
<circle cx="85.153590" cy="50.273721" r="0.400000" /> 
</g>
<g style="fill:#000000; fill-opacity:1.000000; 
stroke:#000000; stroke-width:0.021200; stroke-opacity:1; 
stroke-linecap:round; stroke-linejoin:round;">
</g>
<g style="fill:#000000; fill-opacity:1.000000; 
stroke:#000000; stroke-width:0.000000; stroke-opacity:1; 
stroke-linecap:round; stroke-linejoin:round;">
<circle cx="74.153590" cy="50.673721" r="0.400000" /> 
</g>
<g style="fill:#000000; fill-opacity:1.000000; 
stroke:#000000; stroke-width:0.021200; stroke-opacity:1; 
stroke-linecap:round; stroke-linejoin:round;">
</g>
<g style="fill:#000000; fill-opacity:1.000000; 
stroke:#000000; stroke-width:0.000000; stroke-opacity:1; 
stroke-linecap:round; stroke-linejoin:round;">
<circle cx="79.600000" cy="49.000000" r="0.400000" /> 
</g>
<g style="fill:#000000; fill-opacity:1.000000; 
stroke:#000000; stroke-width:0.021200; stroke-opacity:1; 
stroke-linecap:round; stroke-linejoin:round;">
</g>
<g style="fill:#000000; fill-opacity:1.000000; 
stroke:#000000; stroke-width:0.000000; stroke-opacity:1; 
stroke-linecap:round; stroke-linejoin:round;">
<circle cx="70.273721" cy="54.846410" r="0.400000" /> 
</g>
<g style="fill:#000000; fill-opacity:1.000000; 
stroke:#000000; stroke-width:0.021200; stroke-opacity:1; 
stroke-linecap:round; stroke-linejoin:round;">
</g>
<g style="fill:#000000; fill-opacity:1.000000; 
stroke:#000000; stroke-width:0.000000; stroke-opacity:1; 
stroke-linecap:round; stroke-linejoin:round;">
<circle cx="89.326279" cy="54.153590" r="0.400000" /> 
</g>
<g style="fill:#000000; fill-opacity:1.000000; 
stroke:#000000; stroke-width:0.021200; stroke-opacity:1; 
stroke-linecap:round; stroke-linejoin:round;">
</g>
<g style="fill:#000000; fill-opacity:1.000000; 
stroke:#000000; stroke-width:0.000000; stroke-opacity:1; 
stroke-linecap:round; stroke-linejoin:round;">
<circle cx="85.846410" cy="69.326279" r="0.400000" /> 
</g>
<g style="fill:#000000; fill-opacity:1.000000; 
stroke:#000000; stroke-width:0.021200; stroke-opacity:1; 
stroke-linecap:round; stroke-linejoin:round;">
</g>
<g style="fill:#000000; fill-opacity:1.000000; 
stroke:#000000; stroke-width:0.000000; stroke-opacity:1; 
stroke-linecap:round; stroke-linejoin:round;">
<circle cx="74.846410" cy="69.726279" r="0.400000" /> 
</g>
<g style="fill:#000000; fill-opacity:1.000000; 
stroke:#000000; stroke-width:0.021200; stroke-opacity:1; 
stroke-linecap:round; stroke-linejoin:round;">
</g>
<g style="fill:#000000; fill-opacity:1.000000; 
stroke:#000000; stroke-width:0.000000; stroke-opacity:1; 
stroke-linecap:round; stroke-linejoin:round;">
<circle cx="91.000000" cy="59.600000" r="0.400000" /> 
</g>
<g style="fill:#000000; fill-opacity:1.000000; 
stroke:#000000; stroke-width:0.021200; stroke-opacity:1; 
stroke-linecap:round; stroke-linejoin:round;">
</g>
<g style="fill:#000000; fill-opacity:1.000000; 
stroke:#000000; stroke-width:0.000000; stroke-opacity:1; 
stroke-linecap:round; stroke-linejoin:round;">
<circle cx="70.673721" cy="65.846410" r="0.400000" /> 
</g>
<g style="fill:#000000; fill-opacity:1.000000; 
stroke:#000000; stroke-width:0.021200; stroke-opacity:1; 
stroke-linecap:round; stroke-linejoin:round;">
</g>
<g style="fill:#000000; fill-opacity:1.000000; 
stroke:#000000; stroke-width:0.000000; stroke-opacity:1; 
stroke-linecap:round; stroke-linejoin:round;">
<circle cx="92.000000" cy="65.000000" r="0.400000" /> 
</g>
<g style="fill:#000000; fill-opacity:1.000000; 
stroke:#000000; stroke-width:0.021200; stroke-opacity:1; 
stroke-linecap:round; stroke-linejoin:round;">
</g>
<g style="fill:#000000; fill-opacity:1.000000; 
stroke:#000000; stroke-width:0.000000; stroke-opacity:1; 
stroke-linecap:round; stroke-linejoin:round;">
<circle cx="93.000000" cy="61.200000" r="0.400000" /> 
</g>
<g style="fill:#000000; fill-opacity:1.000000; 
stroke:#000000; stroke-width:0.021200; stroke-opacity:1; 
stroke-linecap:round; stroke-linejoin:round;">
</g>
<g style="fill:#000000; fill-opacity:1.000000; 
stroke:#000000; stroke-width:0.000000; stroke-opacity:1; 
stroke-linecap:round; stroke-linejoin:round;">
<circle cx="93.000000" cy="62.600000" r="0.400000" /> 
</g>
<g style="fill:#000000; fill-opacity:1.000000; 
stroke:#000000; stroke-width:0.021200; stroke-opacity:1; 
stroke-linecap:round; stroke-linejoin:round;">
</g>
<g style="fill:#000000; fill-opacity:1.000000; 
stroke:#000000; stroke-width:0.000000; stroke-opacity:1; 
stroke-linecap:round; stroke-linejoin:round;">
<circle cx="93.000000" cy="65.000000" r="0.400000" /> 
</g>
<g style="fill:#000000; fill-opacity:1.000000; 
stroke:#000000; stroke-width:0.021200; stroke-opacity:1; 
stroke-linecap:round; stroke-linejoin:round;">
</g>
<g style="fill:#000000; fill-opacity:1.000000; 
stroke:#000000; stroke-width:0.000000; stroke-opacity:1; 
stroke-linecap:round; stroke-linejoin:round;">
<circle cx="93.000000" cy="63.800000" r="0.400000" /> 
</g>
<g style="fill:#000000; fill-opacity:1.000000; 
stroke:#000000; stroke-width:0.021200; stroke-opacity:1; 
stroke-linecap:round; stroke-linejoin:round;">
</g>
<g style="fill:#000000; fill-opacity:1.000000; 
stroke:#000000; stroke-width:0.000000; stroke-opacity:1; 
stroke-linecap:round; stroke-linejoin:round;">
<circle cx="92.000000" cy="61.200000" r="0.400000" /> 
</g>
<g style="fill:#000000; fill-opacity:1.000000; 
stroke:#000000; stroke-width:0.021200; stroke-opacity:1; 
stroke-linecap:round; stroke-linejoin:round;">
</g>
<g >
</g>
<g style="fill:#000000; fill-opacity:1.000000; 
stroke:#000000; stroke-width:0.021200; stroke-opacity:1; 
stroke-linecap:round; stroke-linejoin:round;">
</g>
<g style="fill:#000000; fill-opacity:1.000000; 
stroke:#000000; stroke-width:0.250000; stroke-opacity:1; 
stroke-linecap:round; stroke-linejoin:round;">
</g>
<g style="fill:#000000; fill-opacity:0.0; 
stroke:#000000; stroke-width:0.250000; stroke-opacity:1; 
stroke-linecap:round; stroke-linejoin:round;">
<path d="M90.000000 60.670498
L90.000000 56.875000
" />
<path d="M89.500000 61.170498
L90.000000 60.670498
" />
<path d="M88.100000 63.100000
L89.975000 63.100000
" />
<path d="M93.000000 65.000000
L93.000000 61.200000
" />
<path d="M93.000000 62.600000
L92.525000 62.600000
" />
<path d="M92.675000 63.800000
L92.000000 63.125000
" />
<path d="M93.000000 63.800000
L92.675000 63.800000
" />
<path d="M92.000000 63.125000
L92.000000 65.000000
" />
<path d="M92.000000 65.000000
L93.000000 65.000000
" />
<path d="M92.525000 62.600000
L92.000000 63.125000
" />
<path d="M93.000000 61.200000
L92.000000 61.200000
" />
<path d="M92.000000 61.200000
L92.000000 63.125000
" />
</g>
<g >
</g>
<g style="fill:#000000; fill-opacity:0.0; 
stroke:#000000; stroke-width:0.250000; stroke-opacity:1; 
stroke-linecap:round; stroke-linejoin:round;">
<g >
</g>
<g style="fill:#000000; fill-opacity:1.000000; 
stroke:#000000; stroke-width:0.000000; stroke-opacity:1; 
stroke-linecap:round; stroke-linejoin:round;">
<path style="fill:#000000; fill-opacity:1.000000; 
stroke:#000000; stroke-width:0.000000; stroke-opacity:1; 
stroke-linecap:round; stroke-linejoin:round;fill-rule:evenodd;"
d="M 93.002697,46.000736
93.045491,46.004480
93.171776,46.016918
93.191685,46.020541
93.257426,46.038156
93.259208,46.038664
93.351570,46.066682
93.367959,46.072952
93.435396,46.104399
93.438375,46.105888
93.475969,46.125982
93.522327,46.150762
93.528667,46.154657
93.594828,46.200983
93.598600,46.203844
93.670808,46.263103
93.675309,46.267182
93.732815,46.324688
93.736895,46.329190
93.796154,46.401398
93.799015,46.405170
93.845341,46.471331
93.849236,46.477671
93.894101,46.561605
93.895613,46.564630
93.927041,46.632027
93.933319,46.648436
93.961303,46.740684
93.961860,46.742636
93.979454,46.808298
93.983082,46.828238
93.995522,46.954553
93.999263,46.997303
93.999499,47.002710
93.999499,72.997289
93.999263,73.002697
93.995522,73.045445
93.983082,73.171760
93.979454,73.191700
93.961860,73.257362
93.961303,73.259314
93.933319,73.351562
93.927041,73.367971
93.895613,73.435368
93.894101,73.438393
93.849236,73.522327
93.845341,73.528667
93.799015,73.594828
93.796154,73.598600
93.736895,73.670808
93.732806,73.675320
93.675320,73.732806
93.670808,73.736895
93.598600,73.796154
93.594828,73.799015
93.528667,73.845341
93.522327,73.849236
93.438393,73.894101
93.435368,73.895613
93.367971,73.927041
93.351562,73.933319
93.259314,73.961303
93.257362,73.961860
93.191700,73.979454
93.171760,73.983082
93.045446,73.995522
93.007251,73.998865
93.002694,73.999264
92.997291,73.999500
67.002709,73.999500
66.997305,73.999264
66.992337,73.998829
66.954552,73.995522
66.828238,73.983082
66.808298,73.979454
66.742636,73.961860
66.740711,73.961310
66.703113,73.949905
66.648436,73.933319
66.632027,73.927041
66.564630,73.895613
66.561605,73.894101
66.477671,73.849236
66.471331,73.845341
66.405170,73.799015
66.401398,73.796154
66.329190,73.736895
66.324688,73.732815
66.267182,73.675309
66.263103,73.670808
66.203844,73.598600
66.200983,73.594828
66.154657,73.528667
66.150762,73.522327
66.125982,73.475969
66.105888,73.438375
66.104399,73.435396
66.072952,73.367959
66.066682,73.351570
66.038664,73.259208
66.038156,73.257426
66.020541,73.191685
66.016918,73.171776
66.004476,73.045445
66.000736,73.002696
66.000500,72.997291
66.000500,60.000010
73.894548,60.000010
73.914344,60.491268
73.914346,60.491284
73.973612,60.979388
74.071962,61.461136
74.208757,61.933407
74.383114,62.393143
74.557990,62.761685
74.574023,62.795475
74.593894,62.837351
74.839734,63.263158
74.839739,63.263164
74.865587,63.300611
75.102046,63.643182
75.119049,63.667814
75.429991,64.048649
75.430007,64.048667
75.770607,64.403269
75.770612,64.403274
76.138630,64.729310
76.239674,64.805239
76.531708,65.024688
76.947274,65.287477
76.947277,65.287479
76.947281,65.287481
76.979754,65.304524
77.382638,65.515973
77.834977,65.708697
78.301357,65.864397
78.778753,65.982065
78.778767,65.982067
78.778774,65.982069
79.227715,66.055028
79.264069,66.060936
79.754158,66.100500
79.754168,66.100500
80.245832,66.100500
80.245842,66.100500
80.735931,66.060936
80.884532,66.036786
81.221225,65.982069
81.221229,65.982067
81.221247,65.982065
81.698643,65.864397
82.165023,65.708697
82.617362,65.515973
83.052726,65.287477
83.468292,65.024688
83.861365,64.729313
83.861364,64.729313
83.861369,64.729310
84.229387,64.403274
84.229386,64.403274
84.229395,64.403267
84.569996,64.048664
84.880959,63.667803
85.160267,63.263155
85.254465,63.100000
87.444722,63.100000
87.463762,63.256818
87.480371,63.300611
87.519780,63.404523
87.609517,63.534530
87.727760,63.639283
87.727762,63.639284
87.867634,63.712696
88.021014,63.750500
88.021015,63.750500
88.178985,63.750500
88.332365,63.712696
88.417900,63.667803
88.472240,63.639283
88.590483,63.534530
88.594257,63.529061
88.648537,63.485071
88.696308,63.475500
89.125500,63.475500
89.192539,63.495185
89.238294,63.547989
89.249500,63.599500
89.249500,64.524678
89.264032,64.597735
89.264033,64.597739
89.264034,64.597740
89.319399,64.680601
89.392303,64.729313
89.402260,64.735966
89.402264,64.735967
89.475321,64.750499
89.475324,64.750500
89.475326,64.750500
90.524676,64.750500
90.524677,64.750499
90.597740,64.735966
90.680601,64.680601
90.735966,64.597740
90.750500,64.524676
91.249499,64.524676
91.249500,64.524678
91.264032,64.597735
91.264033,64.597739
91.264034,64.597740
91.319399,64.680601
91.321947,64.682303
91.326249,64.687451
91.328035,64.689237
91.327875,64.689396
91.366751,64.735914
91.375460,64.805239
91.369000,64.829371
91.363764,64.843177
91.363762,64.843185
91.344722,64.999999
91.344722,65.000000
91.363762,65.156818
91.411360,65.282322
91.419780,65.304523
91.509517,65.434530
91.627760,65.539283
91.627762,65.539284
91.767634,65.612696
91.921014,65.650500
91.921015,65.650500
92.078985,65.650500
92.232365,65.612696
92.372237,65.539285
92.372238,65.539283
92.372240,65.539283
92.417774,65.498943
92.481004,65.469224
92.550268,65.478406
92.582225,65.498944
92.627759,65.539282
92.627761,65.539284
92.767634,65.612696
92.921014,65.650500
92.921015,65.650500
93.078985,65.650500
93.232365,65.612696
93.232365,65.612695
93.372240,65.539283
93.490483,65.434530
93.580220,65.304523
93.636237,65.156818
93.655278,65.000000
93.636237,64.843182
93.580220,64.695477
93.490483,64.565470
93.490481,64.565468
93.417273,64.500611
93.380146,64.441422
93.375500,64.407796
93.375500,64.392202
93.395185,64.325163
93.417274,64.299386
93.490482,64.234531
93.490483,64.234530
93.580220,64.104523
93.636237,63.956818
93.655278,63.800000
93.644678,63.712696
93.636237,63.643181
93.600135,63.547989
93.580220,63.495477
93.490483,63.365470
93.490481,63.365468
93.417273,63.300611
93.380146,63.241422
93.375500,63.207796
93.375500,63.192202
93.395185,63.125163
93.417274,63.099386
93.490482,63.034531
93.490483,63.034530
93.580220,62.904523
93.636237,62.756818
93.655278,62.600000
93.636237,62.443182
93.580220,62.295477
93.490483,62.165470
93.490481,62.165468
93.417273,62.100611
93.380146,62.041422
93.375500,62.007796
93.375500,61.792202
93.395185,61.725163
93.417274,61.699386
93.490482,61.634531
93.490483,61.634530
93.580220,61.504523
93.636237,61.356818
93.655278,61.200000
93.636237,61.043182
93.580220,60.895477
93.490483,60.765470
93.372240,60.660717
93.372238,60.660716
93.372237,60.660715
93.232365,60.587303
93.078986,60.549500
93.078985,60.549500
92.921015,60.549500
92.921014,60.549500
92.767634,60.587303
92.627761,60.660715
92.627759,60.660717
92.582224,60.701056
92.518990,60.730776
92.449727,60.721591
92.417774,60.701056
92.372240,60.660717
92.372237,60.660714
92.232365,60.587303
92.078986,60.549500
92.078985,60.549500
91.921015,60.549500
91.921014,60.549500
91.767634,60.587303
91.627762,60.660715
91.509516,60.765471
91.419781,60.895475
91.419780,60.895476
91.363762,61.043181
91.344722,61.199999
91.344722,61.200000
91.363763,61.356818
91.384127,61.410514
91.389494,61.480177
91.356347,61.541683
91.337078,61.557586
91.319399,61.569398
91.264033,61.652260
91.264032,61.652264
91.249500,61.725321
91.249499,61.725323
91.249499,64.524676
90.750500,64.524676
90.750500,64.524674
90.750500,61.725326
90.750500,61.725323
90.750499,61.725321
90.735967,61.652264
90.735966,61.652260
90.724119,61.634530
90.680601,61.569399
90.597740,61.514034
90.597739,61.514033
90.597735,61.514032
90.524677,61.499500
90.524674,61.499500
90.223845,61.499500
90.156806,61.479815
90.111051,61.427011
90.101107,61.357853
90.107903,61.331529
90.110132,61.325649
90.136237,61.256818
90.155278,61.100000
90.155278,61.099999
90.155278,61.097619
90.155770,61.095940
90.156182,61.092555
90.156744,61.092623
90.174963,61.030580
90.191596,61.009939
90.191595,61.009939
90.228891,60.972643
90.248741,60.956523
90.257836,60.950582
90.279644,60.922560
90.284721,60.916814
90.287520,60.914016
90.300354,60.896038
90.301877,60.893996
90.334807,60.851690
90.338547,60.844778
90.342006,60.837701
90.342010,60.837697
90.357319,60.786270
90.358073,60.783917
90.375500,60.733158
90.375500,60.733154
90.376790,60.725422
90.377768,60.717583
90.375553,60.664025
90.375500,60.661462
90.375500,58.624500
90.395185,58.557461
90.447989,58.511706
90.499500,58.500500
90.524676,58.500500
90.524677,58.500499
90.597740,58.485966
90.680601,58.430601
90.735966,58.347740
90.750500,58.274674
90.750500,57.125000
91.000000,57.125000
91.000000,58.297844
91.006401,58.357372
91.006403,58.357379
91.056645,58.492086
91.056649,58.492093
91.142809,58.607187
91.142812,58.607190
91.257906,58.693350
91.257913,58.693354
91.392620,58.743596
91.392627,58.743598
91.452155,58.749999
91.452172,58.750000
91.750000,58.750000
91.750000,57.125000
92.250000,57.125000
92.250000,58.750000
92.547828,58.750000
92.547844,58.749999
92.607372,58.743598
92.607379,58.743596
92.742086,58.693354
92.742093,58.693350
92.857187,58.607190
92.857190,58.607187
92.943350,58.492093
92.943354,58.492086
92.993596,58.357379
92.993598,58.357372
92.999999,58.297844
93.000000,58.297827
93.000000,57.125000
92.250000,57.125000
91.750000,57.125000
91.000000,57.125000
90.750500,57.125000
90.750500,56.625000
91.000000,56.625000
91.750000,56.625000
91.750000,55.000000
92.250000,55.000000
92.250000,56.625000
93.000000,56.625000
93.000000,55.452172
92.999999,55.452155
92.993598,55.392627
92.993596,55.392620
92.943354,55.257913
92.943350,55.257906
92.857190,55.142812
92.857187,55.142809
92.742093,55.056649
92.742086,55.056645
92.607379,55.006403
92.607372,55.006401
92.547844,55.000000
92.250000,55.000000
91.750000,55.000000
91.452155,55.000000
91.392627,55.006401
91.392620,55.006403
91.257913,55.056645
91.257906,55.056649
91.142812,55.142809
91.142809,55.142812
91.056649,55.257906
91.056645,55.257913
91.006403,55.392620
91.006401,55.392627
91.000000,55.452155
91.000000,56.625000
90.750500,56.625000
90.750500,55.475326
90.750500,55.475325
90.750500,55.475323
90.750499,55.475321
90.735967,55.402264
90.735966,55.402260
90.735965,55.402259
90.680601,55.319399
90.597740,55.264034
90.597739,55.264033
90.597735,55.264032
90.524677,55.249500
90.524674,55.249500
89.475326,55.249500
89.475323,55.249500
89.402264,55.264032
89.402260,55.264033
89.319399,55.319399
89.264033,55.402260
89.264032,55.402264
89.249500,55.475321
89.249499,55.475323
89.249499,58.274676
89.249500,58.274678
89.264032,58.347735
89.264033,58.347739
89.264034,58.347740
89.319399,58.430601
89.402260,58.485966
89.402264,58.485967
89.475321,58.500499
89.475324,58.500500
89.475326,58.500500
89.500500,58.500500
89.567539,58.520185
89.613294,58.572989
89.624500,58.624500
89.624500,60.325500
89.604815,60.392539
89.552011,60.438294
89.500500,60.449500
89.421014,60.449500
89.267634,60.487303
89.127762,60.560715
89.127759,60.560717
89.127760,60.560717
89.014886,60.660714
89.009516,60.665471
88.919781,60.795475
88.919780,60.795476
88.863762,60.943181
88.844722,61.099999
88.844722,61.100000
88.863762,61.256818
88.892097,61.331529
88.919780,61.404523
89.009517,61.534530
89.127760,61.639283
89.183127,61.668342
89.233338,61.716924
89.249500,61.778137
89.249500,62.600500
89.229815,62.667539
89.177011,62.713294
89.125500,62.724500
88.696308,62.724500
88.629269,62.704815
88.594257,62.670938
88.590483,62.665470
88.472240,62.560717
88.472238,62.560716
88.472237,62.560715
88.332365,62.487303
88.178986,62.449500
88.178985,62.449500
88.021015,62.449500
88.021014,62.449500
87.867634,62.487303
87.727762,62.560715
87.609516,62.665471
87.519781,62.795475
87.519780,62.795476
87.463762,62.943181
87.444722,63.099999
87.444722,63.100000
85.254465,63.100000
85.406109,62.837345
85.616890,62.393133
85.791244,61.933401
85.928039,61.461130
86.026388,60.979383
86.085654,60.491285
86.085655,60.491268
86.105452,60.000010
86.105452,59.999989
86.085655,59.508731
86.085654,59.508726
86.085654,59.508715
86.026388,59.020617
85.928039,58.538870
85.896679,58.430601
85.791242,58.066592
85.714261,57.863613
85.616890,57.606867
85.406109,57.162655
85.160267,56.736845
85.160265,56.736841
85.160260,56.736835
84.883427,56.335773
84.880959,56.332197
84.880954,56.332191
84.880950,56.332185
84.570008,55.951350
84.569992,55.951332
84.229392,55.596730
84.229387,55.596725
83.861369,55.270689
83.664828,55.122999
83.468292,54.975312
83.052726,54.712523
83.052725,54.712522
83.052718,54.712518
82.617356,54.484024
82.439815,54.408381
82.165023,54.291303
82.165015,54.291300
82.165012,54.291299
81.934540,54.214356
81.698643,54.135603
81.698639,54.135602
81.698632,54.135600
81.515704,54.090512
81.221247,54.017935
81.221241,54.017934
81.221237,54.017933
81.221225,54.017930
80.735936,53.939064
80.245851,53.899500
80.245842,53.899500
79.754158,53.899500
79.754148,53.899500
79.264063,53.939064
78.778774,54.017930
78.778762,54.017933
78.778755,54.017934
78.778753,54.017935
78.755092,54.023767
78.301367,54.135600
78.301360,54.135602
77.834987,54.291299
77.834979,54.291302
77.834977,54.291303
77.730691,54.335734
77.382643,54.484024
76.947281,54.712518
76.531713,54.975308
76.531711,54.975310
76.138630,55.270689
75.770612,55.596725
75.770607,55.596730
75.430007,55.951332
75.429991,55.951350
75.119049,56.332185
74.839739,56.736835
74.839734,56.736841
74.593894,57.162648
74.383114,57.606856
74.208757,58.066592
74.071962,58.538863
73.973612,59.020611
73.914346,59.508715
73.914344,59.508731
73.894548,59.999989
73.894548,60.000010
66.000500,60.000010
66.000500,47.002706
66.000736,46.997300
66.004474,46.954577
66.005731,46.941812
66.016918,46.828221
66.020540,46.808318
66.038165,46.742540
66.038655,46.740822
66.066685,46.648419
66.072948,46.632049
66.104413,46.564573
66.105872,46.561653
66.150764,46.477666
66.154657,46.471331
66.187837,46.423945
66.200994,46.405155
66.203827,46.401420
66.263122,46.329168
66.267162,46.324710
66.324710,46.267162
66.329168,46.263122
66.401420,46.203827
66.405155,46.200994
66.471334,46.154654
66.477666,46.150764
66.561653,46.105872
66.564573,46.104413
66.632049,46.072948
66.648419,46.066685
66.740822,46.038655
66.742540,46.038165
66.808318,46.020540
66.828221,46.016918
66.941812,46.005731
66.954568,46.004474
66.997305,46.000735
67.002706,46.000500
92.997292,46.000500
Z" /> 
</g>
</g>
</g> 
</svg>
