<?xml version="1.0" standalone="no"?>
 <!DOCTYPE svg PUBLIC "-//W3C//DTD SVG 1.1//EN" 
 "http://www.w3.org/Graphics/SVG/1.1/DTD/svg11.dtd"> 
<svg
  xmlns:svg="http://www.w3.org/2000/svg"
  xmlns="http://www.w3.org/2000/svg"
  xmlns:xlink="http://www.w3.org/1999/xlink"
  version="1.1"
  width="3.8100000000000005cm" height="3.0100000000000002cm" viewBox="64.95 44.95 38.1 30.1">
<title>SVG Image created as pedalboard-led-ring-B_Cu.svg date 2023/05/28 08:21:34 </title>
  <desc>Image generated by PCBNEW </desc>
<g style="fill:#000000; fill-opacity:1.000000;stroke:#000000; stroke-opacity:1.000000;
stroke-linecap:round; stroke-linejoin:round;"
 transform="translate(0 0) scale(1 1)">
</g>
<g style="fill:#000000; fill-opacity:0.0; 
stroke:#000000; stroke-width:0.000000; stroke-opacity:1; 
stroke-linecap:round; stroke-linejoin:round;">
<g >
</g>
<g >
</g>
<g >
</g>
<g >
</g>
<g >
</g>
<g >
</g>
<g >
</g>
<g style="fill:#000000; fill-opacity:0.0; 
stroke:#000000; stroke-width:0.000000; stroke-opacity:1; 
stroke-linecap:round; stroke-linejoin:round;">
</g>
<g style="fill:#000000; fill-opacity:0.0; 
stroke:#000000; stroke-width:0.000000; stroke-opacity:1; 
stroke-linecap:round; stroke-linejoin:round;">
</g>
<g style="fill:#000000; fill-opacity:1.000000; 
stroke:#000000; stroke-width:0.000000; stroke-opacity:1; 
stroke-linecap:round; stroke-linejoin:round;">
<path style="fill:#000000; fill-opacity:1.000000; 
stroke:#000000; stroke-width:0.000000; stroke-opacity:1; 
stroke-linecap:round; stroke-linejoin:round;fill-rule:evenodd;"
d="M 91.450000,54.555000
91.461418,54.497597
91.493934,54.448934
91.542597,54.416418
91.600000,54.405000
93.250000,54.405000
93.307403,54.416418
93.356066,54.448934
93.388582,54.497597
93.400000,54.555000
93.400000,54.855000
93.388582,54.912403
93.356066,54.961066
93.307403,54.993582
93.250000,55.005000
91.600000,55.005000
91.542597,54.993582
91.493934,54.961066
91.461418,54.912403
91.450000,54.855000
Z" /> 
<path style="fill:#000000; fill-opacity:1.000000; 
stroke:#000000; stroke-width:0.000000; stroke-opacity:1; 
stroke-linecap:round; stroke-linejoin:round;fill-rule:evenodd;"
d="M 91.450000,53.285000
91.461418,53.227597
91.493934,53.178934
91.542597,53.146418
91.600000,53.135000
93.250000,53.135000
93.307403,53.146418
93.356066,53.178934
93.388582,53.227597
93.400000,53.285000
93.400000,53.585000
93.388582,53.642403
93.356066,53.691066
93.307403,53.723582
93.250000,53.735000
91.600000,53.735000
91.542597,53.723582
91.493934,53.691066
91.461418,53.642403
91.450000,53.585000
Z" /> 
<path style="fill:#000000; fill-opacity:1.000000; 
stroke:#000000; stroke-width:0.000000; stroke-opacity:1; 
stroke-linecap:round; stroke-linejoin:round;fill-rule:evenodd;"
d="M 91.450000,52.015000
91.461418,51.957597
91.493934,51.908934
91.542597,51.876418
91.600000,51.865000
93.250000,51.865000
93.307403,51.876418
93.356066,51.908934
93.388582,51.957597
93.400000,52.015000
93.400000,52.315000
93.388582,52.372403
93.356066,52.421066
93.307403,52.453582
93.250000,52.465000
91.600000,52.465000
91.542597,52.453582
91.493934,52.421066
91.461418,52.372403
91.450000,52.315000
Z" /> 
<path style="fill:#000000; fill-opacity:1.000000; 
stroke:#000000; stroke-width:0.000000; stroke-opacity:1; 
stroke-linecap:round; stroke-linejoin:round;fill-rule:evenodd;"
d="M 91.450000,50.745000
91.461418,50.687597
91.493934,50.638934
91.542597,50.606418
91.600000,50.595000
93.250000,50.595000
93.307403,50.606418
93.356066,50.638934
93.388582,50.687597
93.400000,50.745000
93.400000,51.045000
93.388582,51.102403
93.356066,51.151066
93.307403,51.183582
93.250000,51.195000
91.600000,51.195000
91.542597,51.183582
91.493934,51.151066
91.461418,51.102403
91.450000,51.045000
Z" /> 
<path style="fill:#000000; fill-opacity:1.000000; 
stroke:#000000; stroke-width:0.000000; stroke-opacity:1; 
stroke-linecap:round; stroke-linejoin:round;fill-rule:evenodd;"
d="M 96.400000,50.745000
96.411418,50.687597
96.443934,50.638934
96.492597,50.606418
96.550000,50.595000
98.200000,50.595000
98.257403,50.606418
98.306066,50.638934
98.338582,50.687597
98.350000,50.745000
98.350000,51.045000
98.338582,51.102403
98.306066,51.151066
98.257403,51.183582
98.200000,51.195000
96.550000,51.195000
96.492597,51.183582
96.443934,51.151066
96.411418,51.102403
96.400000,51.045000
Z" /> 
<path style="fill:#000000; fill-opacity:1.000000; 
stroke:#000000; stroke-width:0.000000; stroke-opacity:1; 
stroke-linecap:round; stroke-linejoin:round;fill-rule:evenodd;"
d="M 96.400000,52.015000
96.411418,51.957597
96.443934,51.908934
96.492597,51.876418
96.550000,51.865000
98.200000,51.865000
98.257403,51.876418
98.306066,51.908934
98.338582,51.957597
98.350000,52.015000
98.350000,52.315000
98.338582,52.372403
98.306066,52.421066
98.257403,52.453582
98.200000,52.465000
96.550000,52.465000
96.492597,52.453582
96.443934,52.421066
96.411418,52.372403
96.400000,52.315000
Z" /> 
<path style="fill:#000000; fill-opacity:1.000000; 
stroke:#000000; stroke-width:0.000000; stroke-opacity:1; 
stroke-linecap:round; stroke-linejoin:round;fill-rule:evenodd;"
d="M 96.400000,53.285000
96.411418,53.227597
96.443934,53.178934
96.492597,53.146418
96.550000,53.135000
98.200000,53.135000
98.257403,53.146418
98.306066,53.178934
98.338582,53.227597
98.350000,53.285000
98.350000,53.585000
98.338582,53.642403
98.306066,53.691066
98.257403,53.723582
98.200000,53.735000
96.550000,53.735000
96.492597,53.723582
96.443934,53.691066
96.411418,53.642403
96.400000,53.585000
Z" /> 
<path style="fill:#000000; fill-opacity:1.000000; 
stroke:#000000; stroke-width:0.000000; stroke-opacity:1; 
stroke-linecap:round; stroke-linejoin:round;fill-rule:evenodd;"
d="M 96.400000,54.555000
96.411418,54.497597
96.443934,54.448934
96.492597,54.416418
96.550000,54.405000
98.200000,54.405000
98.257403,54.416418
98.306066,54.448934
98.338582,54.497597
98.350000,54.555000
98.350000,54.855000
98.338582,54.912403
98.306066,54.961066
98.257403,54.993582
98.200000,55.005000
96.550000,55.005000
96.492597,54.993582
96.443934,54.961066
96.411418,54.912403
96.400000,54.855000
Z" /> 
</g>
<g >
</g>
<g style="fill:#000000; fill-opacity:1.000000; 
stroke:#000000; stroke-width:0.000000; stroke-opacity:1; 
stroke-linecap:round; stroke-linejoin:round;">
<path style="fill:#000000; fill-opacity:1.000000; 
stroke:#000000; stroke-width:0.000000; stroke-opacity:1; 
stroke-linecap:round; stroke-linejoin:round;fill-rule:evenodd;"
d="M 87.253536,66.096464
87.255000,66.100000
87.255000,68.100000
87.253536,68.103536
87.250000,68.105000
86.250000,68.105000
86.246464,68.103536
86.245000,68.100000
86.245000,67.605000
85.150000,67.605000
85.146464,67.603536
85.145000,67.600000
85.145000,66.600000
85.146464,66.596464
85.150000,66.595000
86.245000,66.595000
86.245000,66.100000
86.246464,66.096464
86.250000,66.095000
87.250000,66.095000
Z" /> 
<path style="fill:#000000; fill-opacity:1.000000; 
stroke:#000000; stroke-width:0.000000; stroke-opacity:1; 
stroke-linecap:round; stroke-linejoin:round;fill-rule:evenodd;"
d="M 89.553536,66.096464
89.555000,66.100000
89.555000,66.595000
90.650000,66.595000
90.653536,66.596464
90.655000,66.600000
90.655000,67.600000
90.653536,67.603536
90.650000,67.605000
89.555000,67.605000
89.555000,68.100000
89.553536,68.103536
89.550000,68.105000
88.550000,68.105000
88.546464,68.103536
88.545000,68.100000
88.545000,66.100000
88.546464,66.096464
88.550000,66.095000
89.550000,66.095000
Z" /> 
</g>
<g >
</g>
<g style="fill:#000000; fill-opacity:1.000000; 
stroke:#000000; stroke-width:0.000000; stroke-opacity:1; 
stroke-linecap:round; stroke-linejoin:round;">
<path style="fill:#000000; fill-opacity:1.000000; 
stroke:#000000; stroke-width:0.000000; stroke-opacity:1; 
stroke-linecap:round; stroke-linejoin:round;fill-rule:evenodd;"
d="M 89.675000,58.950000
89.694030,58.854329
89.748223,58.773223
89.829329,58.719030
89.925000,58.700000
90.750000,58.700000
90.845671,58.719030
90.926777,58.773223
90.980970,58.854329
91.000000,58.950000
91.000000,60.250000
90.980970,60.345671
90.926777,60.426777
90.845671,60.480970
90.750000,60.500000
89.925000,60.500000
89.829329,60.480970
89.748223,60.426777
89.694030,60.345671
89.675000,60.250000
Z" /> 
<path style="fill:#000000; fill-opacity:1.000000; 
stroke:#000000; stroke-width:0.000000; stroke-opacity:1; 
stroke-linecap:round; stroke-linejoin:round;fill-rule:evenodd;"
d="M 92.800000,58.950000
92.819030,58.854329
92.873223,58.773223
92.954329,58.719030
93.050000,58.700000
93.875000,58.700000
93.970671,58.719030
94.051777,58.773223
94.105970,58.854329
94.125000,58.950000
94.125000,60.250000
94.105970,60.345671
94.051777,60.426777
93.970671,60.480970
93.875000,60.500000
93.050000,60.500000
92.954329,60.480970
92.873223,60.426777
92.819030,60.345671
92.800000,60.250000
Z" /> 
</g>
<g >
</g>
<g style="fill:#000000; fill-opacity:1.000000; 
stroke:#000000; stroke-width:0.000000; stroke-opacity:1; 
stroke-linecap:round; stroke-linejoin:round;">
<path style="fill:#000000; fill-opacity:1.000000; 
stroke:#000000; stroke-width:0.000000; stroke-opacity:1; 
stroke-linecap:round; stroke-linejoin:round;fill-rule:evenodd;"
d="M 93.460000,69.020000
94.460000,69.020000
94.460000,72.020000
93.460000,72.020000
Z" /> 
<path style="fill:#000000; fill-opacity:1.000000; 
stroke:#000000; stroke-width:0.000000; stroke-opacity:1; 
stroke-linecap:round; stroke-linejoin:round;fill-rule:evenodd;"
d="M 93.460000,63.980000
94.460000,63.980000
94.460000,66.980000
93.460000,66.980000
Z" /> 
<path style="fill:#000000; fill-opacity:1.000000; 
stroke:#000000; stroke-width:0.000000; stroke-opacity:1; 
stroke-linecap:round; stroke-linejoin:round;fill-rule:evenodd;"
d="M 96.000000,69.020000
97.000000,69.020000
97.000000,72.020000
96.000000,72.020000
Z" /> 
<path style="fill:#000000; fill-opacity:1.000000; 
stroke:#000000; stroke-width:0.000000; stroke-opacity:1; 
stroke-linecap:round; stroke-linejoin:round;fill-rule:evenodd;"
d="M 96.000000,63.980000
97.000000,63.980000
97.000000,66.980000
96.000000,66.980000
Z" /> 
<path style="fill:#000000; fill-opacity:1.000000; 
stroke:#000000; stroke-width:0.000000; stroke-opacity:1; 
stroke-linecap:round; stroke-linejoin:round;fill-rule:evenodd;"
d="M 98.540000,69.020000
99.540000,69.020000
99.540000,72.020000
98.540000,72.020000
Z" /> 
<path style="fill:#000000; fill-opacity:1.000000; 
stroke:#000000; stroke-width:0.000000; stroke-opacity:1; 
stroke-linecap:round; stroke-linejoin:round;fill-rule:evenodd;"
d="M 98.540000,63.980000
99.540000,63.980000
99.540000,66.980000
98.540000,66.980000
Z" /> 
</g>
<g >
</g>
<g style="fill:#000000; fill-opacity:1.000000; 
stroke:#000000; stroke-width:0.000000; stroke-opacity:1; 
stroke-linecap:round; stroke-linejoin:round;">
<path style="fill:#000000; fill-opacity:1.000000; 
stroke:#000000; stroke-width:0.000000; stroke-opacity:1; 
stroke-linecap:round; stroke-linejoin:round;fill-rule:evenodd;"
d="M 83.500000,70.650000
84.500000,70.650000
84.500000,71.650000
83.500000,71.650000
Z" /> 
<path style="fill:#000000; fill-opacity:1.000000; 
stroke:#000000; stroke-width:0.000000; stroke-opacity:1; 
stroke-linecap:round; stroke-linejoin:round;fill-rule:evenodd;"
d="M 83.500000,72.350000
84.500000,72.350000
84.500000,73.350000
83.500000,73.350000
Z" /> 
</g>
<g >
</g>
<g style="fill:#000000; fill-opacity:1.000000; 
stroke:#000000; stroke-width:0.000000; stroke-opacity:1; 
stroke-linecap:round; stroke-linejoin:round;">
<path style="fill:#000000; fill-opacity:1.000000; 
stroke:#000000; stroke-width:0.000000; stroke-opacity:1; 
stroke-linecap:round; stroke-linejoin:round;fill-rule:evenodd;"
d="M 100.300000,53.950000
99.300000,53.950000
99.300000,52.950000
100.300000,52.950000
Z" /> 
<path style="fill:#000000; fill-opacity:1.000000; 
stroke:#000000; stroke-width:0.000000; stroke-opacity:1; 
stroke-linecap:round; stroke-linejoin:round;fill-rule:evenodd;"
d="M 100.300000,52.250000
99.300000,52.250000
99.300000,51.250000
100.300000,51.250000
Z" /> 
</g>
<g >
</g>
<g style="fill:#000000; fill-opacity:1.000000; 
stroke:#000000; stroke-width:0.000000; stroke-opacity:1; 
stroke-linecap:round; stroke-linejoin:round;">
<path style="fill:#000000; fill-opacity:1.000000; 
stroke:#000000; stroke-width:0.000000; stroke-opacity:1; 
stroke-linecap:round; stroke-linejoin:round;fill-rule:evenodd;"
d="M 87.675000,71.125000
87.675000,71.375000
86.975000,71.375000
86.975000,71.125000
Z" /> 
<path style="fill:#000000; fill-opacity:1.000000; 
stroke:#000000; stroke-width:0.000000; stroke-opacity:1; 
stroke-linecap:round; stroke-linejoin:round;fill-rule:evenodd;"
d="M 87.675000,71.625000
87.675000,71.875000
86.975000,71.875000
86.975000,71.625000
Z" /> 
<path style="fill:#000000; fill-opacity:1.000000; 
stroke:#000000; stroke-width:0.000000; stroke-opacity:1; 
stroke-linecap:round; stroke-linejoin:round;fill-rule:evenodd;"
d="M 87.675000,72.125000
87.675000,72.375000
86.975000,72.375000
86.975000,72.125000
Z" /> 
<path style="fill:#000000; fill-opacity:1.000000; 
stroke:#000000; stroke-width:0.000000; stroke-opacity:1; 
stroke-linecap:round; stroke-linejoin:round;fill-rule:evenodd;"
d="M 87.675000,72.625000
87.675000,72.875000
86.975000,72.875000
86.975000,72.625000
Z" /> 
<path style="fill:#000000; fill-opacity:1.000000; 
stroke:#000000; stroke-width:0.000000; stroke-opacity:1; 
stroke-linecap:round; stroke-linejoin:round;fill-rule:evenodd;"
d="M 85.825000,72.625000
85.825000,72.875000
85.125000,72.875000
85.125000,72.625000
Z" /> 
<path style="fill:#000000; fill-opacity:1.000000; 
stroke:#000000; stroke-width:0.000000; stroke-opacity:1; 
stroke-linecap:round; stroke-linejoin:round;fill-rule:evenodd;"
d="M 85.825000,72.125000
85.825000,72.375000
85.125000,72.375000
85.125000,72.125000
Z" /> 
<path style="fill:#000000; fill-opacity:1.000000; 
stroke:#000000; stroke-width:0.000000; stroke-opacity:1; 
stroke-linecap:round; stroke-linejoin:round;fill-rule:evenodd;"
d="M 85.825000,71.625000
85.825000,71.875000
85.125000,71.875000
85.125000,71.625000
Z" /> 
<path style="fill:#000000; fill-opacity:1.000000; 
stroke:#000000; stroke-width:0.000000; stroke-opacity:1; 
stroke-linecap:round; stroke-linejoin:round;fill-rule:evenodd;"
d="M 85.825000,71.125000
85.825000,71.375000
85.125000,71.375000
85.125000,71.125000
Z" /> 
<path style="fill:#000000; fill-opacity:1.000000; 
stroke:#000000; stroke-width:0.000000; stroke-opacity:1; 
stroke-linecap:round; stroke-linejoin:round;fill-rule:evenodd;"
d="M 86.705000,70.900000
86.705000,73.100000
86.095000,73.100000
86.095000,70.900000
Z" /> 
</g>
<g >
</g>
<g style="fill:#000000; fill-opacity:1.000000; 
stroke:#000000; stroke-width:0.000000; stroke-opacity:1; 
stroke-linecap:round; stroke-linejoin:round;">
<path style="fill:#000000; fill-opacity:1.000000; 
stroke:#000000; stroke-width:0.000000; stroke-opacity:1; 
stroke-linecap:round; stroke-linejoin:round;fill-rule:evenodd;"
d="M 98.275000,55.875000
98.370671,55.894030
98.451777,55.948223
98.505970,56.029329
98.525000,56.125000
98.525000,56.800000
98.505970,56.895671
98.451777,56.976777
98.370671,57.030970
98.275000,57.050000
97.325000,57.050000
97.229329,57.030970
97.148223,56.976777
97.094030,56.895671
97.075000,56.800000
97.075000,56.125000
97.094030,56.029329
97.148223,55.948223
97.229329,55.894030
97.325000,55.875000
Z" /> 
<path style="fill:#000000; fill-opacity:1.000000; 
stroke:#000000; stroke-width:0.000000; stroke-opacity:1; 
stroke-linecap:round; stroke-linejoin:round;fill-rule:evenodd;"
d="M 98.275000,57.950000
98.370671,57.969030
98.451777,58.023223
98.505970,58.104329
98.525000,58.200000
98.525000,58.875000
98.505970,58.970671
98.451777,59.051777
98.370671,59.105970
98.275000,59.125000
97.325000,59.125000
97.229329,59.105970
97.148223,59.051777
97.094030,58.970671
97.075000,58.875000
97.075000,58.200000
97.094030,58.104329
97.148223,58.023223
97.229329,57.969030
97.325000,57.950000
Z" /> 
</g>
<g >
</g>
<g style="fill:#000000; fill-opacity:1.000000; 
stroke:#000000; stroke-width:0.000000; stroke-opacity:1; 
stroke-linecap:round; stroke-linejoin:round;">
<path style="fill:#000000; fill-opacity:1.000000; 
stroke:#000000; stroke-width:0.000000; stroke-opacity:1; 
stroke-linecap:round; stroke-linejoin:round;fill-rule:evenodd;"
d="M 84.525000,69.775000
84.505970,69.870671
84.451777,69.951777
84.370671,70.005970
84.275000,70.025000
83.600000,70.025000
83.504329,70.005970
83.423223,69.951777
83.369030,69.870671
83.350000,69.775000
83.350000,68.825000
83.369030,68.729329
83.423223,68.648223
83.504329,68.594030
83.600000,68.575000
84.275000,68.575000
84.370671,68.594030
84.451777,68.648223
84.505970,68.729329
84.525000,68.825000
Z" /> 
<path style="fill:#000000; fill-opacity:1.000000; 
stroke:#000000; stroke-width:0.000000; stroke-opacity:1; 
stroke-linecap:round; stroke-linejoin:round;fill-rule:evenodd;"
d="M 82.450000,69.775000
82.430970,69.870671
82.376777,69.951777
82.295671,70.005970
82.200000,70.025000
81.525000,70.025000
81.429329,70.005970
81.348223,69.951777
81.294030,69.870671
81.275000,69.775000
81.275000,68.825000
81.294030,68.729329
81.348223,68.648223
81.429329,68.594030
81.525000,68.575000
82.200000,68.575000
82.295671,68.594030
82.376777,68.648223
82.430970,68.729329
82.450000,68.825000
Z" /> 
</g>
<g >
</g>
<g style="fill:#000000; fill-opacity:1.000000; 
stroke:#000000; stroke-width:0.000000; stroke-opacity:1; 
stroke-linecap:round; stroke-linejoin:round;">
<path style="fill:#000000; fill-opacity:1.000000; 
stroke:#000000; stroke-width:0.000000; stroke-opacity:1; 
stroke-linecap:round; stroke-linejoin:round;fill-rule:evenodd;"
d="M 89.350000,73.325000
89.254329,73.305970
89.173223,73.251777
89.119030,73.170671
89.100000,73.075000
89.100000,72.250000
89.119030,72.154329
89.173223,72.073223
89.254329,72.019030
89.350000,72.000000
90.650000,72.000000
90.745671,72.019030
90.826777,72.073223
90.880970,72.154329
90.900000,72.250000
90.900000,73.075000
90.880970,73.170671
90.826777,73.251777
90.745671,73.305970
90.650000,73.325000
Z" /> 
<path style="fill:#000000; fill-opacity:1.000000; 
stroke:#000000; stroke-width:0.000000; stroke-opacity:1; 
stroke-linecap:round; stroke-linejoin:round;fill-rule:evenodd;"
d="M 89.350000,70.200000
89.254329,70.180970
89.173223,70.126777
89.119030,70.045671
89.100000,69.950000
89.100000,69.125000
89.119030,69.029329
89.173223,68.948223
89.254329,68.894030
89.350000,68.875000
90.650000,68.875000
90.745671,68.894030
90.826777,68.948223
90.880970,69.029329
90.900000,69.125000
90.900000,69.950000
90.880970,70.045671
90.826777,70.126777
90.745671,70.180970
90.650000,70.200000
Z" /> 
</g>
<g >
</g>
<g style="fill:#000000; fill-opacity:1.000000; 
stroke:#000000; stroke-width:0.000000; stroke-opacity:1; 
stroke-linecap:round; stroke-linejoin:round;">
<circle cx="89.500000" cy="61.400000" r="0.400000" /> 
</g>
<g style="fill:#000000; fill-opacity:1.000000; 
stroke:#000000; stroke-width:0.021200; stroke-opacity:1; 
stroke-linecap:round; stroke-linejoin:round;">
</g>
<g style="fill:#000000; fill-opacity:1.000000; 
stroke:#000000; stroke-width:0.000000; stroke-opacity:1; 
stroke-linecap:round; stroke-linejoin:round;">
<circle cx="90.500000" cy="61.400000" r="0.400000" /> 
</g>
<g style="fill:#000000; fill-opacity:1.000000; 
stroke:#000000; stroke-width:0.021200; stroke-opacity:1; 
stroke-linecap:round; stroke-linejoin:round;">
</g>
<g style="fill:#000000; fill-opacity:1.000000; 
stroke:#000000; stroke-width:0.000000; stroke-opacity:1; 
stroke-linecap:round; stroke-linejoin:round;">
<circle cx="83.000000" cy="71.200000" r="0.400000" /> 
</g>
<g style="fill:#000000; fill-opacity:1.000000; 
stroke:#000000; stroke-width:0.021200; stroke-opacity:1; 
stroke-linecap:round; stroke-linejoin:round;">
</g>
<g style="fill:#000000; fill-opacity:1.000000; 
stroke:#000000; stroke-width:0.000000; stroke-opacity:1; 
stroke-linecap:round; stroke-linejoin:round;">
<circle cx="86.400000" cy="69.750000" r="0.400000" /> 
</g>
<g style="fill:#000000; fill-opacity:1.000000; 
stroke:#000000; stroke-width:0.021200; stroke-opacity:1; 
stroke-linecap:round; stroke-linejoin:round;">
</g>
<g style="fill:#000000; fill-opacity:1.000000; 
stroke:#000000; stroke-width:0.000000; stroke-opacity:1; 
stroke-linecap:round; stroke-linejoin:round;">
<circle cx="87.900000" cy="69.750000" r="0.400000" /> 
</g>
<g style="fill:#000000; fill-opacity:1.000000; 
stroke:#000000; stroke-width:0.021200; stroke-opacity:1; 
stroke-linecap:round; stroke-linejoin:round;">
</g>
<g style="fill:#000000; fill-opacity:1.000000; 
stroke:#000000; stroke-width:0.000000; stroke-opacity:1; 
stroke-linecap:round; stroke-linejoin:round;">
<circle cx="81.250000" cy="70.800000" r="0.400000" /> 
</g>
<g style="fill:#000000; fill-opacity:1.000000; 
stroke:#000000; stroke-width:0.021200; stroke-opacity:1; 
stroke-linecap:round; stroke-linejoin:round;">
</g>
<g style="fill:#000000; fill-opacity:1.000000; 
stroke:#000000; stroke-width:0.000000; stroke-opacity:1; 
stroke-linecap:round; stroke-linejoin:round;">
<circle cx="96.550000" cy="58.500000" r="0.400000" /> 
</g>
<g style="fill:#000000; fill-opacity:1.000000; 
stroke:#000000; stroke-width:0.021200; stroke-opacity:1; 
stroke-linecap:round; stroke-linejoin:round;">
</g>
<g style="fill:#000000; fill-opacity:1.000000; 
stroke:#000000; stroke-width:0.000000; stroke-opacity:1; 
stroke-linecap:round; stroke-linejoin:round;">
<circle cx="91.800000" cy="69.500000" r="0.400000" /> 
</g>
<g style="fill:#000000; fill-opacity:1.000000; 
stroke:#000000; stroke-width:0.021200; stroke-opacity:1; 
stroke-linecap:round; stroke-linejoin:round;">
</g>
<g style="fill:#000000; fill-opacity:1.000000; 
stroke:#000000; stroke-width:0.000000; stroke-opacity:1; 
stroke-linecap:round; stroke-linejoin:round;">
<circle cx="101.050000" cy="51.750000" r="0.400000" /> 
</g>
<g style="fill:#000000; fill-opacity:1.000000; 
stroke:#000000; stroke-width:0.021200; stroke-opacity:1; 
stroke-linecap:round; stroke-linejoin:round;">
</g>
<g style="fill:#000000; fill-opacity:1.000000; 
stroke:#000000; stroke-width:0.000000; stroke-opacity:1; 
stroke-linecap:round; stroke-linejoin:round;">
<circle cx="96.500000" cy="72.550000" r="0.400000" /> 
</g>
<g style="fill:#000000; fill-opacity:1.000000; 
stroke:#000000; stroke-width:0.021200; stroke-opacity:1; 
stroke-linecap:round; stroke-linejoin:round;">
</g>
<g style="fill:#000000; fill-opacity:1.000000; 
stroke:#000000; stroke-width:0.000000; stroke-opacity:1; 
stroke-linecap:round; stroke-linejoin:round;">
<circle cx="96.500000" cy="68.400000" r="0.400000" /> 
</g>
<g style="fill:#000000; fill-opacity:1.000000; 
stroke:#000000; stroke-width:0.021200; stroke-opacity:1; 
stroke-linecap:round; stroke-linejoin:round;">
</g>
<g style="fill:#000000; fill-opacity:1.000000; 
stroke:#000000; stroke-width:0.000000; stroke-opacity:1; 
stroke-linecap:round; stroke-linejoin:round;">
<circle cx="90.800000" cy="50.850000" r="0.400000" /> 
</g>
<g style="fill:#000000; fill-opacity:1.000000; 
stroke:#000000; stroke-width:0.021200; stroke-opacity:1; 
stroke-linecap:round; stroke-linejoin:round;">
</g>
<g style="fill:#000000; fill-opacity:1.000000; 
stroke:#000000; stroke-width:0.000000; stroke-opacity:1; 
stroke-linecap:round; stroke-linejoin:round;">
<circle cx="93.450000" cy="58.050000" r="0.400000" /> 
</g>
<g style="fill:#000000; fill-opacity:1.000000; 
stroke:#000000; stroke-width:0.021200; stroke-opacity:1; 
stroke-linecap:round; stroke-linejoin:round;">
</g>
<g style="fill:#000000; fill-opacity:1.000000; 
stroke:#000000; stroke-width:0.000000; stroke-opacity:1; 
stroke-linecap:round; stroke-linejoin:round;">
<circle cx="99.040000" cy="72.540000" r="0.400000" /> 
</g>
<g style="fill:#000000; fill-opacity:1.000000; 
stroke:#000000; stroke-width:0.021200; stroke-opacity:1; 
stroke-linecap:round; stroke-linejoin:round;">
</g>
<g style="fill:#000000; fill-opacity:1.000000; 
stroke:#000000; stroke-width:0.000000; stroke-opacity:1; 
stroke-linecap:round; stroke-linejoin:round;">
<circle cx="99.200000" cy="55.200000" r="0.400000" /> 
</g>
<g style="fill:#000000; fill-opacity:1.000000; 
stroke:#000000; stroke-width:0.021200; stroke-opacity:1; 
stroke-linecap:round; stroke-linejoin:round;">
</g>
<g style="fill:#000000; fill-opacity:1.000000; 
stroke:#000000; stroke-width:0.000000; stroke-opacity:1; 
stroke-linecap:round; stroke-linejoin:round;">
<circle cx="92.400000" cy="55.500000" r="0.400000" /> 
</g>
<g style="fill:#000000; fill-opacity:1.000000; 
stroke:#000000; stroke-width:0.021200; stroke-opacity:1; 
stroke-linecap:round; stroke-linejoin:round;">
</g>
<g style="fill:#000000; fill-opacity:1.000000; 
stroke:#000000; stroke-width:0.000000; stroke-opacity:1; 
stroke-linecap:round; stroke-linejoin:round;">
<circle cx="90.800000" cy="53.400000" r="0.400000" /> 
</g>
<g style="fill:#000000; fill-opacity:1.000000; 
stroke:#000000; stroke-width:0.021200; stroke-opacity:1; 
stroke-linecap:round; stroke-linejoin:round;">
</g>
<g style="fill:#000000; fill-opacity:1.000000; 
stroke:#000000; stroke-width:0.000000; stroke-opacity:1; 
stroke-linecap:round; stroke-linejoin:round;">
<circle cx="90.800000" cy="52.200000" r="0.400000" /> 
</g>
<g style="fill:#000000; fill-opacity:1.000000; 
stroke:#000000; stroke-width:0.021200; stroke-opacity:1; 
stroke-linecap:round; stroke-linejoin:round;">
</g>
<g >
</g>
<g style="fill:#000000; fill-opacity:1.000000; 
stroke:#000000; stroke-width:0.021200; stroke-opacity:1; 
stroke-linecap:round; stroke-linejoin:round;">
</g>
<g style="fill:#000000; fill-opacity:1.000000; 
stroke:#000000; stroke-width:0.250000; stroke-opacity:1; 
stroke-linecap:round; stroke-linejoin:round;">
</g>
<g style="fill:#000000; fill-opacity:0.0; 
stroke:#000000; stroke-width:0.250000; stroke-opacity:1; 
stroke-linecap:round; stroke-linejoin:round;">
<path d="M84.000000 71.150000
L83.050000 71.150000
" />
<path d="M85.460200 71.746000
L84.596000 71.746000
" />
<path d="M83.050000 71.150000
L83.000000 71.200000
" />
<path d="M84.596000 71.746000
L84.000000 71.150000
" />
<path d="M86.654000 71.746000
L86.400000 72.000000
" />
<path d="M87.339800 71.746000
L86.654000 71.746000
" />
</g>
<g style="fill:#000000; fill-opacity:0.0; 
stroke:#000000; stroke-width:0.600000; stroke-opacity:1; 
stroke-linecap:round; stroke-linejoin:round;">
<path d="M97.375000 54.705000
L97.375000 54.775000
" />
</g>
<g style="fill:#000000; fill-opacity:0.0; 
stroke:#000000; stroke-width:0.800000; stroke-opacity:1; 
stroke-linecap:round; stroke-linejoin:round;">
<path d="M99.040000 72.540000
L99.040000 70.525000
" />
</g>
<g style="fill:#000000; fill-opacity:0.0; 
stroke:#000000; stroke-width:0.600000; stroke-opacity:1; 
stroke-linecap:round; stroke-linejoin:round;">
<path d="M97.375000 54.775000
L97.800000 55.200000
" />
<path d="M97.800000 55.200000
L97.800000 56.472500
" />
<path d="M97.800000 55.200000
L99.200000 55.200000
" />
</g>
<g style="fill:#000000; fill-opacity:0.0; 
stroke:#000000; stroke-width:0.250000; stroke-opacity:1; 
stroke-linecap:round; stroke-linejoin:round;">
<path d="M92.425000 54.705000
L92.425000 55.475000
" />
<path d="M92.425000 55.475000
L92.400000 55.500000
" />
<path d="M90.835000 53.435000
L90.800000 53.400000
" />
<path d="M92.425000 53.435000
L90.835000 53.435000
" />
<path d="M92.425000 52.165000
L90.835000 52.165000
" />
<path d="M90.835000 52.165000
L90.800000 52.200000
" />
<path d="M97.390000 53.450000
L97.375000 53.435000
" />
<path d="M99.400000 53.450000
L97.390000 53.450000
" />
<path d="M96.500000 65.480000
L96.500000 60.668112
" />
<path d="M96.500000 60.668112
L95.400000 59.568112
" />
<path d="M95.400000 51.500000
L96.000000 50.900000
" />
<path d="M97.370000 50.900000
L97.375000 50.895000
" />
<path d="M95.400000 59.568112
L95.400000 51.500000
" />
<path d="M96.000000 50.900000
L97.370000 50.900000
" />
<path d="M85.460200 70.380200
L84.380000 69.300000
" />
<path d="M84.380000 69.300000
L84.037500 69.300000
" />
<path d="M85.460200 71.238000
L85.460200 70.380200
" />
<path d="M87.105000 71.003200
L87.105000 67.300000
" />
<path d="M86.905000 67.100000
L87.105000 67.300000
" />
<path d="M86.750000 67.100000
L86.905000 67.100000
" />
<path d="M87.339800 71.238000
L87.105000 71.003200
" />
<path d="M84.596000 72.254000
L84.000000 72.850000
" />
<path d="M85.460200 72.254000
L84.596000 72.254000
" />
<path d="M95.830000 59.390000
L99.040000 62.600000
" />
<path d="M97.340000 52.200000
L95.830000 52.200000
" />
<path d="M97.375000 52.165000
L97.340000 52.200000
" />
<path d="M95.830000 52.200000
L95.830000 59.390000
" />
<path d="M99.040000 62.600000
L99.040000 65.480000
" />
<path d="M87.339800 72.254000
L88.700000 72.254000
" />
<path d="M85.460200 72.762000
L85.790000 73.091800
" />
<path d="M85.790000 73.091800
L85.790000 73.405000
" />
<path d="M88.700000 67.800000
L89.400000 67.100000
" />
<path d="M85.790000 73.405000
L87.195000 73.405000
" />
<path d="M87.339800 72.254000
L87.339800 72.762000
" />
<path d="M87.339800 73.260200
L87.339800 72.762000
" />
<path d="M89.212000 72.762000
L89.400000 72.950000
" />
<path d="M90.000000 72.762500
L90.462500 72.300000
" />
<path d="M90.462500 72.300000
L92.180000 72.300000
" />
<path d="M87.195000 73.405000
L87.339800 73.260200
" />
<path d="M87.339800 72.762000
L89.212000 72.762000
" />
<path d="M88.700000 72.254000
L88.700000 67.800000
" />
<path d="M92.180000 72.300000
L93.960000 70.520000
" />
</g>
<g >
</g>
<g style="fill:#000000; fill-opacity:0.0; 
stroke:#000000; stroke-width:0.250000; stroke-opacity:1; 
stroke-linecap:round; stroke-linejoin:round;">
<g >
</g>
<g style="fill:#000000; fill-opacity:1.000000; 
stroke:#000000; stroke-width:0.000000; stroke-opacity:1; 
stroke-linecap:round; stroke-linejoin:round;">
<path style="fill:#000000; fill-opacity:1.000000; 
stroke:#000000; stroke-width:0.000000; stroke-opacity:1; 
stroke-linecap:round; stroke-linejoin:round;fill-rule:evenodd;"
d="M 91.741086,58.119685
91.786841,58.172489
91.798032,58.225937
91.774609,59.725000
91.750000,61.300000
94.936193,61.300000
95.003232,61.319685
95.048987,61.372489
95.060193,61.423806
95.069806,67.575806
95.050226,67.642876
94.997494,67.688714
94.945806,67.700000
91.724000,67.700000
91.656961,67.680315
91.611206,67.627511
91.600000,67.576000
91.600000,65.605000
93.210000,65.605000
93.210000,67.004624
93.224504,67.077543
93.279760,67.160239
93.362456,67.215495
93.435375,67.230000
93.835000,67.230000
93.835000,65.605000
94.085000,65.605000
94.085000,67.230000
94.484625,67.230000
94.557543,67.215495
94.640239,67.160239
94.695495,67.077543
94.710000,67.004624
94.710000,65.605000
94.085000,65.605000
93.835000,65.605000
93.210000,65.605000
91.600000,65.605000
91.600000,65.354999
93.209999,65.354999
93.210000,65.355000
93.835000,65.355000
93.835000,63.730000
94.085000,63.730000
94.085000,65.355000
94.710000,65.355000
94.710000,63.955375
94.695495,63.882456
94.640239,63.799760
94.557543,63.744504
94.484625,63.730000
94.085000,63.730000
93.835000,63.730000
93.435375,63.730000
93.362456,63.744504
93.279760,63.799760
93.224504,63.882456
93.210000,63.955375
93.209999,65.354999
91.600000,65.354999
91.600000,63.600000
88.974000,63.600000
88.906961,63.580315
88.861206,63.527511
88.850000,63.476000
88.850000,59.725000
89.425000,59.725000
89.425000,60.294518
89.425354,60.301132
89.431400,60.357371
89.481647,60.492089
89.567811,60.607188
89.682910,60.693352
89.817628,60.743599
89.873867,60.749645
89.880482,60.750000
90.212500,60.750000
90.212500,59.725000
90.462500,59.725000
90.462500,60.750000
90.794518,60.750000
90.801132,60.749645
90.857371,60.743599
90.992089,60.693352
91.107188,60.607188
91.193352,60.492089
91.243599,60.357371
91.249645,60.301132
91.250000,60.294518
91.250000,59.725000
90.462500,59.725000
90.212500,59.725000
89.425000,59.725000
88.850000,59.725000
88.850000,59.475000
89.425000,59.475000
90.212500,59.475000
90.212500,58.450000
90.462500,58.450000
90.462500,59.475000
91.250000,59.475000
91.250000,58.905481
91.249645,58.898867
91.243599,58.842628
91.193352,58.707910
91.107188,58.592811
90.992089,58.506647
90.857371,58.456400
90.801132,58.450354
90.794518,58.450000
90.462500,58.450000
90.212500,58.450000
89.880482,58.450000
89.873867,58.450354
89.817628,58.456400
89.682910,58.506647
89.567811,58.592811
89.481647,58.707910
89.431400,58.842628
89.425354,58.898867
89.425000,58.905481
89.425000,59.475000
88.850000,59.475000
88.850000,58.224000
88.869685,58.156961
88.922489,58.111206
88.974000,58.100000
91.674047,58.100000
Z" /> 
</g>
</g>
<g style="fill:#000000; fill-opacity:1.000000; 
stroke:#000000; stroke-width:0.000000; stroke-opacity:1; 
stroke-linecap:round; stroke-linejoin:round;">
<g >
<path style="fill:#000000; fill-opacity:1.000000; 
stroke:#000000; stroke-width:0.000000; stroke-opacity:1; 
stroke-linecap:round; stroke-linejoin:round;fill-rule:evenodd;"
d="M 101.004309,46.000877
101.045519,46.004482
101.173820,46.017120
101.189703,46.020010
101.256837,46.037998
101.259807,46.038846
101.353264,46.067196
101.366359,46.072207
101.434466,46.103966
101.439295,46.106380
101.520369,46.149715
101.530485,46.155929
101.593673,46.200174
101.599693,46.204742
101.669396,46.261945
101.676596,46.268469
101.731529,46.323402
101.738053,46.330602
101.795256,46.400305
101.799824,46.406325
101.844069,46.469513
101.850283,46.479629
101.893618,46.560703
101.896032,46.565532
101.927791,46.633639
101.932804,46.646739
101.961129,46.740112
101.962019,46.743228
101.979986,46.810282
101.982882,46.826202
101.995523,46.954554
101.999124,46.995699
101.999500,47.004316
101.999500,72.995676
101.999123,73.004307
101.995523,73.045445
101.982882,73.173799
101.979986,73.189713
101.962019,73.256769
101.961129,73.259886
101.932804,73.353259
101.927791,73.366359
101.896032,73.434466
101.893618,73.439295
101.850283,73.520369
101.844069,73.530485
101.799824,73.593673
101.795256,73.599693
101.738053,73.669396
101.731529,73.676596
101.676596,73.731529
101.669396,73.738053
101.599693,73.795256
101.593673,73.799824
101.530485,73.844069
101.520369,73.850283
101.439295,73.893618
101.434466,73.896032
101.366359,73.927791
101.353259,73.932804
101.259886,73.961129
101.256770,73.962019
101.189716,73.979986
101.173796,73.982882
101.045445,73.995523
101.013912,73.998282
101.004294,73.999124
100.995684,73.999500
67.004323,73.999500
66.995692,73.999123
66.954554,73.995523
66.848097,73.985038
66.826196,73.982881
66.810285,73.979986
66.743229,73.962019
66.740112,73.961129
66.646739,73.932804
66.633639,73.927791
66.565532,73.896032
66.560703,73.893618
66.479629,73.850283
66.469513,73.844069
66.406325,73.799824
66.400305,73.795256
66.330602,73.738053
66.323402,73.731529
66.268469,73.676596
66.261945,73.669396
66.204742,73.599693
66.200174,73.593673
66.155929,73.530485
66.149715,73.520369
66.106380,73.439295
66.103966,73.434466
66.072207,73.366359
66.067194,73.353259
66.061648,73.334976
66.038846,73.259806
66.038002,73.256853
66.020008,73.189696
66.017119,73.173816
66.004482,73.045519
66.000875,73.004294
66.000500,72.995686
66.000500,71.200000
82.394318,71.200000
82.414955,71.356761
82.475464,71.502841
82.571717,71.628282
82.640195,71.680826
82.697159,71.724536
82.843238,71.785044
83.000000,71.805682
83.156762,71.785044
83.232342,71.753737
83.293335,71.748937
83.345505,71.780906
83.352540,71.790201
83.355446,71.794551
83.362853,71.799500
83.421769,71.838867
83.480252,71.850500
84.199165,71.850500
84.257356,71.869407
84.269169,71.879496
84.319669,71.929996
84.347446,71.984513
84.337875,72.044945
84.319669,72.070003
84.269170,72.120503
84.214654,72.148281
84.199166,72.149500
83.480252,72.149500
83.451010,72.155316
83.421768,72.161133
83.355447,72.205447
83.311133,72.271768
83.311132,72.271769
83.311133,72.271769
83.299500,72.330252
83.299500,73.369748
83.310380,73.424445
83.311133,73.428231
83.355447,73.494552
83.390607,73.518045
83.421769,73.538867
83.480252,73.550500
83.480253,73.550500
84.519747,73.550500
84.519748,73.550500
84.578231,73.538867
84.644552,73.494552
84.688867,73.428231
84.700500,73.369748
84.700500,72.678499
84.719407,72.620309
84.768907,72.584345
84.799500,72.579500
84.825500,72.579500
84.883691,72.598407
84.919655,72.647907
84.924500,72.678500
84.924500,72.894748
84.935911,72.952116
84.936133,72.953231
84.980447,73.019552
85.019196,73.045443
85.046769,73.063867
85.105252,73.075500
85.272366,73.075500
85.330557,73.094407
85.342370,73.104496
85.435504,73.197630
85.463281,73.252147
85.464500,73.267634
85.464500,73.462394
85.471430,73.481437
85.475894,73.498099
85.479411,73.518044
85.489539,73.535586
85.496831,73.551224
85.503758,73.570258
85.503760,73.570260
85.516781,73.585777
85.526675,73.599908
85.536806,73.617455
85.552332,73.630483
85.564517,73.642668
85.577545,73.658194
85.595084,73.668320
85.609220,73.678218
85.624737,73.691239
85.624738,73.691239
85.624739,73.691240
85.643777,73.698169
85.659413,73.705460
85.676955,73.715588
85.696901,73.719104
85.713569,73.723570
85.732606,73.730500
85.761525,73.730500
87.176466,73.730500
87.185093,73.730876
87.198357,73.732037
87.223805,73.734264
87.223805,73.734263
87.223807,73.734264
87.261359,73.724201
87.269777,73.722335
87.308045,73.715588
87.309346,73.714836
87.333232,73.704942
87.334684,73.704554
87.366529,73.682254
87.373785,73.677632
87.407455,73.658194
87.432442,73.628414
87.438254,73.622070
87.556866,73.503458
87.563210,73.497644
87.592994,73.472655
87.612432,73.438985
87.617054,73.431729
87.639354,73.399884
87.639743,73.398429
87.649637,73.374545
87.650388,73.373245
87.657140,73.334948
87.658997,73.326571
87.669063,73.289007
87.665677,73.250302
87.665300,73.241673
87.665300,73.186500
87.684207,73.128309
87.733707,73.092345
87.764300,73.087500
88.806847,73.087500
88.865038,73.106407
88.900292,73.153803
88.902353,73.159694
88.902354,73.159699
88.947207,73.287882
89.027850,73.397150
89.137118,73.477793
89.265301,73.522646
89.295734,73.525500
89.298045,73.525500
90.701955,73.525500
90.704266,73.525500
90.734699,73.522646
90.862882,73.477793
90.972150,73.397150
91.052793,73.287882
91.097646,73.159699
91.100500,73.129266
91.100500,72.724499
91.119407,72.666309
91.168907,72.630345
91.199500,72.625500
92.161466,72.625500
92.170093,72.625876
92.183357,72.627037
92.208805,72.629264
92.208805,72.629263
92.208807,72.629264
92.246359,72.619201
92.254777,72.617335
92.293045,72.610588
92.294346,72.609836
92.318232,72.599942
92.319684,72.599554
92.351529,72.577254
92.358785,72.572632
92.392455,72.553194
92.417442,72.523414
92.423254,72.517070
93.090497,71.849828
93.145013,71.822052
93.205445,71.831623
93.248710,71.874888
93.259500,71.919833
93.259500,72.039748
93.265518,72.070003
93.271133,72.098231
93.315447,72.164552
93.351605,72.188712
93.381769,72.208867
93.440252,72.220500
93.440253,72.220500
94.479747,72.220500
94.479748,72.220500
94.538231,72.208867
94.604552,72.164552
94.648867,72.098231
94.660500,72.039748
94.660500,72.039697
95.800000,72.039697
95.811604,72.098036
95.855807,72.164192
95.921963,72.208395
95.980303,72.220000
96.399999,72.220000
96.399999,72.219999
96.600000,72.219999
96.600001,72.220000
97.019697,72.220000
97.078036,72.208395
97.144192,72.164192
97.188395,72.098036
97.199990,72.039748
98.339500,72.039748
98.351133,72.098231
98.395448,72.164552
98.395501,72.164587
98.433381,72.212637
98.439500,72.246903
98.439500,72.494149
98.438653,72.507070
98.434318,72.539999
98.434318,72.540000
98.443511,72.609826
98.448662,72.648955
98.454955,72.696761
98.515464,72.842841
98.611717,72.968282
98.707970,73.042139
98.737159,73.064536
98.883238,73.125044
99.040000,73.145682
99.196762,73.125044
99.342841,73.064536
99.468282,72.968282
99.564536,72.842841
99.625044,72.696762
99.631338,72.648955
99.645682,72.540000
99.641347,72.507070
99.640500,72.494149
99.640500,72.246903
99.659407,72.188712
99.684497,72.164588
99.684552,72.164552
99.728867,72.098231
99.740500,72.039748
99.740500,69.000252
99.728867,68.941769
99.709212,68.912354
99.684552,68.875447
99.618231,68.831133
99.618230,68.831132
99.559748,68.819500
98.520252,68.819500
98.491010,68.825316
98.461768,68.831133
98.395447,68.875447
98.351133,68.941768
98.351132,68.941769
98.351133,68.941769
98.339500,69.000252
98.339500,72.039748
97.199990,72.039748
97.200000,72.039697
97.200000,70.620001
97.199999,70.620000
96.600001,70.620000
96.600000,70.620001
96.600000,72.219999
96.399999,72.219999
96.399999,70.620000
95.800001,70.620000
95.800000,70.620001
95.800000,72.039697
94.660500,72.039697
94.660500,70.419998
95.800000,70.419998
95.800001,70.420000
96.399999,70.420000
96.399999,70.419999
96.600000,70.419999
96.600001,70.420000
97.199999,70.420000
97.200000,70.419999
97.200000,69.000302
97.188395,68.941963
97.144192,68.875807
97.078036,68.831604
97.019697,68.820000
96.600001,68.820000
96.600000,68.820001
96.600000,70.419999
96.399999,70.419999
96.399999,68.820000
95.980303,68.820000
95.921963,68.831604
95.855807,68.875807
95.811604,68.941963
95.800000,69.000302
95.800000,70.419998
94.660500,70.419998
94.660500,69.000252
94.648867,68.941769
94.629212,68.912354
94.604552,68.875447
94.538231,68.831133
94.538230,68.831132
94.479748,68.819500
93.440252,68.819500
93.411010,68.825316
93.381768,68.831133
93.315447,68.875447
93.271133,68.941768
93.259500,69.000253
93.259500,70.719165
93.240593,70.777356
93.230504,70.789169
92.074170,71.945504
92.019653,71.973281
92.004166,71.974500
91.056556,71.974500
90.998365,71.955593
90.976902,71.934289
90.972150,71.927850
90.862882,71.847207
90.734699,71.802354
90.734697,71.802353
90.734695,71.802353
90.706577,71.799716
90.706561,71.799715
90.704266,71.799500
89.295734,71.799500
89.293439,71.799715
89.293422,71.799716
89.265304,71.802353
89.157197,71.840181
89.096027,71.841553
89.045733,71.806709
89.025525,71.748957
89.025500,71.746736
89.025500,70.452733
89.044407,70.394542
89.093907,70.358578
89.155093,70.358578
89.157198,70.359289
89.265396,70.397149
89.293484,70.399783
89.298108,70.399999
89.899998,70.399999
89.900000,70.399998
90.100000,70.399998
90.100001,70.399999
90.701888,70.399999
90.706504,70.399783
90.734604,70.397148
90.862645,70.352345
90.971791,70.271791
91.052345,70.162645
91.097149,70.034601
91.099783,70.006515
91.100000,70.001891
91.100000,69.637501
91.099999,69.637500
90.100001,69.637500
90.100000,69.637501
90.100000,70.399998
89.900000,70.399998
89.900000,69.437499
90.100000,69.437499
90.100001,69.437500
91.099998,69.437500
91.099999,69.437499
91.099999,69.073112
91.099783,69.068495
91.097148,69.040395
91.052345,68.912354
90.971791,68.803208
90.862645,68.722654
90.734601,68.677850
90.706515,68.675216
90.701892,68.675000
90.100001,68.675000
90.100000,68.675001
90.100000,69.437499
89.900000,69.437499
89.900000,68.675000
89.298112,68.675000
89.293495,68.675216
89.265395,68.677851
89.157197,68.715711
89.096027,68.717083
89.045733,68.682239
89.025525,68.624487
89.025500,68.622266
89.025500,68.408428
89.044407,68.350237
89.093907,68.314273
89.124500,68.309428
89.538173,68.309428
89.547460,68.310342
89.549987,68.309839
89.549991,68.309840
89.628223,68.294282
89.630049,68.293525
89.631876,68.292815
89.632055,68.292694
89.632061,68.292693
89.698382,68.248377
89.742695,68.182055
89.743849,68.179269
89.744261,68.178275
89.744269,68.178254
89.759840,68.100025
89.759839,68.100024
89.760342,68.097501
89.759428,68.088209
89.759428,67.908428
89.778335,67.850237
89.827835,67.814273
89.858428,67.809428
90.638173,67.809428
90.647460,67.810342
90.649987,67.809839
90.649991,67.809840
90.728223,67.794282
90.730049,67.793525
90.731876,67.792815
90.732055,67.792694
90.732061,67.792693
90.798382,67.748377
90.842695,67.682055
90.843849,67.679269
90.844261,67.678275
90.844269,67.678254
90.859840,67.600025
90.859839,67.600024
90.860342,67.597501
90.859428,67.588209
90.859428,66.611830
90.860343,66.602541
90.859839,66.600010
90.859840,66.600009
90.844282,66.521777
90.843529,66.519958
90.842816,66.518124
90.842693,66.517941
90.842693,66.517939
90.798377,66.451618
90.798375,66.451617
90.798375,66.451616
90.732059,66.407307
90.732056,66.407305
90.732055,66.407305
90.729203,66.406124
90.728208,66.405712
90.728206,66.405711
90.728205,66.405711
90.647499,66.389657
90.638209,66.390572
89.858428,66.390572
89.800237,66.371665
89.764273,66.322165
89.759428,66.291572
89.759428,66.111830
89.760343,66.102541
89.759839,66.100010
89.759840,66.100009
89.744282,66.021777
89.743529,66.019958
89.742816,66.018124
89.742693,66.017941
89.742693,66.017939
89.698377,65.951618
89.698375,65.951617
89.698375,65.951616
89.632059,65.907307
89.632056,65.907305
89.632055,65.907305
89.629203,65.906124
89.628208,65.905712
89.628206,65.905711
89.628205,65.905711
89.547499,65.889657
89.538209,65.890572
88.561848,65.890572
88.552555,65.889656
88.471788,65.905712
88.470771,65.906134
88.467950,65.907303
88.467936,65.907308
88.401613,65.951627
88.357302,66.017950
88.355718,66.021776
88.339657,66.102502
88.340572,66.111793
88.340572,68.088235
88.339657,68.097527
88.355738,68.178273
88.356150,68.179267
88.356150,68.179268
88.356151,68.179269
88.357305,68.182055
88.357310,68.182066
88.357810,68.182815
88.358160,68.183966
88.360647,68.189408
88.359912,68.189741
88.374500,68.237823
88.374500,71.829500
88.355593,71.887691
88.306093,71.923655
88.275500,71.928500
87.974000,71.928500
87.915809,71.909593
87.879845,71.860093
87.878857,71.853858
87.874999,71.850000
87.324000,71.850000
87.265809,71.831093
87.229845,71.781593
87.225000,71.751000
87.225000,71.749000
87.243907,71.690809
87.293407,71.654845
87.324000,71.650000
87.874999,71.650000
87.875000,71.649999
87.875000,71.605302
87.859554,71.527650
87.861136,71.527335
87.852458,71.496570
87.860249,71.472590
87.860025,71.472546
87.863867,71.453231
87.875500,71.394748
87.875500,71.105252
87.863867,71.046769
87.849162,71.024762
87.819552,70.980447
87.753231,70.936133
87.744986,70.934493
87.694748,70.924500
87.694747,70.924500
87.529500,70.924500
87.471309,70.905593
87.435345,70.856093
87.430500,70.825500
87.430500,68.230337
87.442033,68.192336
87.438963,68.191065
87.443848,68.179271
87.444251,68.178299
87.444261,68.178275
87.444269,68.178254
87.459840,68.100025
87.459839,68.100024
87.460342,68.097501
87.459428,68.088209
87.459428,66.111830
87.460343,66.102541
87.459839,66.100010
87.459840,66.100009
87.444282,66.021777
87.443529,66.019958
87.442816,66.018124
87.442693,66.017941
87.442693,66.017939
87.398377,65.951618
87.398375,65.951617
87.398375,65.951616
87.332059,65.907307
87.332056,65.907305
87.332055,65.907305
87.329203,65.906124
87.328208,65.905712
87.328206,65.905711
87.328205,65.905711
87.247499,65.889657
87.238209,65.890572
86.261848,65.890572
86.252555,65.889656
86.171788,65.905712
86.170771,65.906134
86.167950,65.907303
86.167936,65.907308
86.101613,65.951627
86.057302,66.017950
86.055718,66.021776
86.039657,66.102502
86.040572,66.111793
86.040572,66.291572
86.021665,66.349763
85.972165,66.385727
85.941572,66.390572
85.161848,66.390572
85.152555,66.389656
85.071788,66.405712
85.070771,66.406134
85.067950,66.407303
85.067936,66.407308
85.001613,66.451627
84.957302,66.517950
84.955718,66.521776
84.939657,66.602502
84.940572,66.611793
84.940571,67.588235
84.939657,67.597526
84.955738,67.678273
84.956150,67.679267
84.956150,67.679268
84.956151,67.679269
84.957305,67.682055
84.957310,67.682066
85.001627,67.748386
85.067950,67.792697
85.071777,67.794282
85.149975,67.809840
85.149975,67.809839
85.152500,67.810342
85.161790,67.809428
85.941572,67.809428
85.999763,67.828335
86.035727,67.877835
86.040572,67.908428
86.040572,68.088235
86.039657,68.097527
86.055738,68.178273
86.056150,68.179267
86.056150,68.179268
86.056151,68.179269
86.057305,68.182055
86.057310,68.182066
86.101627,68.248386
86.167950,68.292697
86.171777,68.294282
86.249975,68.309840
86.249975,68.309839
86.252500,68.310342
86.261790,68.309428
86.680500,68.309428
86.738691,68.328335
86.774655,68.377835
86.779500,68.408428
86.779500,70.601000
86.760593,70.659191
86.711093,70.695155
86.680500,70.700000
86.500001,70.700000
86.500000,70.700001
86.500000,72.001000
86.481093,72.059191
86.431593,72.095155
86.401000,72.100000
86.399000,72.100000
86.340809,72.081093
86.304845,72.031593
86.300000,72.001000
86.300000,70.700001
86.299999,70.700000
86.075303,70.700000
86.016963,70.711604
85.939701,70.763229
85.880813,70.779837
85.823409,70.758659
85.789417,70.707785
85.785700,70.680913
85.785700,70.398722
85.786077,70.390092
85.789463,70.351392
85.779407,70.313865
85.777537,70.305431
85.771605,70.271791
85.770788,70.267155
85.770028,70.265840
85.760144,70.241976
85.759753,70.240516
85.737461,70.208680
85.732825,70.201401
85.713394,70.167745
85.683634,70.142773
85.677266,70.136939
84.754496,69.214169
84.726719,69.159652
84.725500,69.144165
84.725500,68.773045
84.725500,68.770734
84.722646,68.740301
84.677793,68.612118
84.597150,68.502850
84.487882,68.422207
84.359699,68.377354
84.359697,68.377353
84.359695,68.377353
84.331577,68.374716
84.331561,68.374715
84.329266,68.374500
83.545734,68.374500
83.543439,68.374715
83.543422,68.374716
83.515304,68.377353
83.515301,68.377353
83.515301,68.377354
83.387118,68.422207
83.387117,68.422207
83.387116,68.422208
83.386512,68.422654
83.277850,68.502850
83.197207,68.612118
83.174206,68.677851
83.152353,68.740304
83.149716,68.768422
83.149715,68.768439
83.149500,68.770734
83.149500,69.829266
83.149715,69.831561
83.149716,69.831577
83.152353,69.859695
83.152353,69.859697
83.152354,69.859699
83.197207,69.987882
83.277850,70.097150
83.387118,70.177793
83.515301,70.222646
83.545734,70.225500
83.548045,70.225500
84.326955,70.225500
84.329266,70.225500
84.359699,70.222646
84.487882,70.177793
84.597150,70.097150
84.597150,70.097149
84.597457,70.096923
84.655504,70.077581
84.713835,70.096052
84.726236,70.106563
85.105705,70.486031
85.133481,70.540546
85.134700,70.556033
85.134700,70.837395
85.115793,70.895586
85.066293,70.931550
85.055018,70.934492
85.050570,70.935376
85.046768,70.936133
84.980447,70.980447
84.936133,71.046768
84.924500,71.105253
84.924500,71.321500
84.905593,71.379691
84.856093,71.415655
84.825500,71.420500
84.799500,71.420500
84.741309,71.401593
84.705345,71.352093
84.700500,71.321500
84.700500,70.630253
84.699654,70.626000
84.688867,70.571769
84.650952,70.515026
84.644552,70.505447
84.578231,70.461133
84.536001,70.452733
84.519748,70.449500
83.480252,70.449500
83.463999,70.452733
83.421768,70.461133
83.355447,70.505447
83.300206,70.588121
83.252156,70.626000
83.191017,70.628402
83.180007,70.624584
83.156761,70.614955
83.000000,70.594318
82.843238,70.614955
82.697158,70.675464
82.571717,70.771717
82.475464,70.897158
82.414955,71.043238
82.394318,71.200000
66.000500,71.200000
66.000500,69.826888
81.075001,69.826888
81.075216,69.831504
81.077851,69.859604
81.122654,69.987645
81.203208,70.096791
81.312354,70.177345
81.440398,70.222149
81.468484,70.224783
81.473108,70.224999
81.762498,70.224999
81.762500,70.224998
81.962500,70.224998
81.962501,70.224999
82.251888,70.224999
82.256504,70.224783
82.284604,70.222148
82.412645,70.177345
82.521791,70.096791
82.602345,69.987645
82.647149,69.859601
82.649783,69.831515
82.650000,69.826891
82.650000,69.400001
82.649999,69.400000
81.962501,69.400000
81.962500,69.400001
81.962500,70.224998
81.762500,70.224998
81.762500,69.400001
81.762499,69.400000
81.075002,69.400000
81.075001,69.400001
81.075001,69.826888
66.000500,69.826888
66.000500,69.199999
81.075000,69.199999
81.075001,69.200000
81.762499,69.200000
81.762500,69.199999
81.962500,69.199999
81.962501,69.200000
82.649998,69.200000
82.649999,69.199999
82.649999,68.773112
82.649783,68.768495
82.647148,68.740395
82.602345,68.612354
82.521791,68.503208
82.412645,68.422654
82.284601,68.377850
82.256515,68.375216
82.251892,68.375000
81.962501,68.375000
81.962500,68.375001
81.962500,69.199999
81.762500,69.199999
81.762500,68.375001
81.762499,68.375000
81.473112,68.375000
81.468495,68.375216
81.440395,68.377851
81.312354,68.422654
81.203208,68.503208
81.122654,68.612354
81.077850,68.740398
81.075216,68.768484
81.075000,68.773108
81.075000,69.199999
66.000500,69.199999
66.000500,60.000000
73.894548,60.000000
73.894628,60.001985
73.906899,60.306504
73.914346,60.491285
73.914588,60.493278
73.973369,60.977388
73.973372,60.977406
73.973612,60.979383
73.974013,60.981348
73.974014,60.981353
74.064800,61.426056
74.071961,61.461130
74.072514,61.463041
74.072518,61.463055
74.208202,61.931489
74.208756,61.933401
74.209458,61.935252
74.209459,61.935255
74.369305,62.356734
74.383110,62.393133
74.383960,62.394924
74.383962,62.394929
74.593040,62.835553
74.593047,62.835566
74.593891,62.837345
74.594881,62.839060
74.594888,62.839073
74.837896,63.259974
74.839733,63.263155
74.840870,63.264802
75.116572,63.664227
75.119041,63.667803
75.120303,63.669348
75.120304,63.669350
75.357818,63.960253
75.430004,64.048664
75.770605,64.403267
76.138635,64.729313
76.140219,64.730503
76.140226,64.730509
76.530105,65.023484
76.530114,65.023490
76.531708,65.024688
76.947274,65.287477
77.382638,65.515973
77.834977,65.708697
78.301357,65.864397
78.778753,65.982065
79.264069,66.060936
79.754158,66.100500
79.756159,66.100500
80.243841,66.100500
80.245842,66.100500
80.735931,66.060936
81.221247,65.982065
81.698643,65.864397
82.165023,65.708697
82.617362,65.515973
83.052726,65.287477
83.468292,65.024688
83.861365,64.729313
84.229395,64.403267
84.569996,64.048664
84.880959,63.667803
85.013351,63.476000
88.594500,63.476000
88.594781,63.478617
88.594782,63.478629
88.600056,63.527685
88.600339,63.530313
88.600898,63.532885
88.600901,63.532900
88.611261,63.580522
88.611267,63.580548
88.611545,63.581824
88.611889,63.583078
88.611892,63.583090
88.618782,63.608200
88.653603,63.669350
88.668112,63.694828
88.713867,63.747632
88.746641,63.779257
88.834976,63.825465
88.902014,63.845149
88.902015,63.845150
88.973997,63.855500
88.974000,63.855500
91.245500,63.855500
91.303691,63.874407
91.339655,63.923907
91.344500,63.954500
91.344499,67.573353
91.344500,67.573371
91.344500,67.576000
91.344781,67.578617
91.344782,67.578629
91.347085,67.600048
91.350339,67.630313
91.350898,67.632885
91.350901,67.632900
91.361261,67.680522
91.361267,67.680548
91.361545,67.681824
91.361889,67.683078
91.361892,67.683090
91.368782,67.708200
91.417800,67.794281
91.418112,67.794828
91.463867,67.847632
91.496641,67.879257
91.584976,67.925465
91.652015,67.945149
91.652015,67.945150
91.723997,67.955500
91.724000,67.955500
94.943151,67.955500
94.945806,67.955500
95.000310,67.949619
95.051998,67.938333
95.078562,67.931012
95.118078,67.908428
95.165113,67.881546
95.165112,67.881546
95.165115,67.881545
95.217847,67.835707
95.249419,67.802884
95.295488,67.714476
95.315068,67.647406
95.325306,67.575407
95.315693,61.423407
95.309811,61.369297
95.298605,61.317980
95.291412,61.291802
95.242081,61.205172
95.196326,61.152368
95.163552,61.120743
95.075217,61.074535
95.075214,61.074534
95.008177,61.054849
94.936196,61.044500
94.936193,61.044500
92.110083,61.044500
92.051892,61.025593
92.015928,60.976093
92.011095,60.943953
92.030531,59.700000
92.600001,59.700000
92.600001,60.301888
92.600216,60.306504
92.602851,60.334604
92.647654,60.462645
92.728208,60.571791
92.837354,60.652345
92.965398,60.697149
92.993484,60.699783
92.998108,60.699999
93.362498,60.699999
93.362499,60.699998
93.562500,60.699998
93.562501,60.699999
93.926888,60.699999
93.931504,60.699783
93.959604,60.697148
94.087645,60.652345
94.196791,60.571791
94.277345,60.462645
94.322149,60.334601
94.324783,60.306515
94.325000,60.301891
94.325000,59.700001
94.324999,59.700000
93.562501,59.700000
93.562500,59.700001
93.562500,60.699998
93.362499,60.699998
93.362500,60.699997
93.362500,59.700001
93.362499,59.700000
92.600001,59.700000
92.030531,59.700000
92.030629,59.693749
92.032142,59.596918
95.070735,59.596918
95.080795,59.634462
95.082663,59.642890
95.089411,59.681154
95.089412,59.681157
95.090166,59.682464
95.100055,59.706337
95.100446,59.707797
95.122732,59.739626
95.127370,59.746906
95.146803,59.780564
95.146805,59.780566
95.146806,59.780567
95.176583,59.805553
95.182937,59.811375
96.145505,60.773943
96.173281,60.828458
96.174500,60.843945
96.174500,63.680500
96.155593,63.738691
96.106093,63.774655
96.075500,63.779500
95.980252,63.779500
95.951010,63.785316
95.921768,63.791133
95.855447,63.835447
95.811133,63.901768
95.799500,63.960253
95.799500,66.999746
95.811133,67.058231
95.855447,67.124552
95.899762,67.154162
95.921769,67.168867
95.980252,67.180500
95.980253,67.180500
97.019747,67.180500
97.019748,67.180500
97.078231,67.168867
97.144552,67.124552
97.188867,67.058231
97.200500,66.999748
97.200500,63.960252
97.188867,63.901769
97.151035,63.845150
97.144552,63.835447
97.078231,63.791133
97.078230,63.791132
97.019748,63.779500
97.019747,63.779500
96.924500,63.779500
96.866309,63.760593
96.830345,63.711093
96.825500,63.680500
96.825500,61.084833
96.844407,61.026642
96.893907,60.990678
96.955093,60.990678
96.994501,61.014827
97.911163,61.931489
98.685504,62.705830
98.713281,62.760347
98.714500,62.775834
98.714500,63.680500
98.695593,63.738691
98.646093,63.774655
98.615500,63.779500
98.520252,63.779500
98.491010,63.785316
98.461768,63.791133
98.395447,63.835447
98.351133,63.901768
98.339500,63.960253
98.339500,66.999746
98.351133,67.058231
98.395447,67.124552
98.439762,67.154162
98.461769,67.168867
98.520252,67.180500
98.520253,67.180500
99.559747,67.180500
99.559748,67.180500
99.618231,67.168867
99.684552,67.124552
99.728867,67.058231
99.740500,66.999748
99.740500,63.960252
99.728867,63.901769
99.691035,63.845150
99.684552,63.835447
99.618231,63.791133
99.618230,63.791132
99.559748,63.779500
99.559747,63.779500
99.464500,63.779500
99.406309,63.760593
99.370345,63.711093
99.365500,63.680500
99.365500,62.618534
99.365877,62.609904
99.369264,62.571193
99.359204,62.533652
99.357334,62.525216
99.356326,62.519501
99.350588,62.486955
99.349834,62.485650
99.339943,62.461768
99.339942,62.461765
99.339554,62.460316
99.317260,62.428477
99.312633,62.421215
99.293194,62.387545
99.263428,62.362568
99.257060,62.356734
96.184496,59.284170
96.156719,59.229653
96.155500,59.214166
96.155500,58.637500
96.875001,58.637500
96.875001,58.926888
96.875216,58.931504
96.877851,58.959604
96.922654,59.087645
97.003208,59.196791
97.112354,59.277345
97.240398,59.322149
97.268484,59.324783
97.273108,59.324999
97.699998,59.324999
97.700000,59.324998
97.700000,58.637500
97.900000,58.637500
97.900000,59.324998
97.900001,59.324999
98.326888,59.324999
98.331504,59.324783
98.359604,59.322148
98.487645,59.277345
98.596791,59.196791
98.677345,59.087645
98.722149,58.959601
98.724783,58.931515
98.725000,58.926891
98.725000,58.637501
98.724999,58.637500
97.900000,58.637500
97.700000,58.637500
96.875001,58.637500
96.155500,58.637500
96.155500,58.437498
96.875000,58.437498
96.875001,58.437500
97.699999,58.437500
97.700000,58.437499
97.900000,58.437499
97.900001,58.437500
98.724998,58.437500
98.724999,58.437498
98.724999,58.148112
98.724783,58.143495
98.722148,58.115395
98.677345,57.987354
98.596791,57.878208
98.487645,57.797654
98.359601,57.752850
98.331515,57.750216
98.326892,57.750000
97.900001,57.750000
97.900000,57.750001
97.900000,58.437499
97.700000,58.437499
97.700000,57.750001
97.699999,57.750000
97.273112,57.750000
97.268495,57.750216
97.240395,57.752851
97.112354,57.797654
97.003208,57.878208
96.922654,57.987354
96.877850,58.115398
96.875216,58.143484
96.875000,58.148108
96.875000,58.437498
96.155500,58.437498
96.155500,55.195188
96.174407,55.136997
96.223907,55.101033
96.285093,55.101033
96.324501,55.125182
96.343517,55.144198
96.448607,55.195573
96.516740,55.205500
97.056678,55.205500
97.114869,55.224407
97.126682,55.234496
97.270504,55.378318
97.298281,55.432835
97.299500,55.448322
97.299500,55.586395
97.280593,55.644586
97.233198,55.679839
97.112118,55.722206
97.002850,55.802850
96.922208,55.912116
96.877353,56.040304
96.874716,56.068422
96.874715,56.068439
96.874500,56.070734
96.874500,56.854266
96.874715,56.856561
96.874716,56.856577
96.877353,56.884695
96.877353,56.884697
96.877354,56.884699
96.922207,57.012882
97.002850,57.122150
97.112118,57.202793
97.240301,57.247646
97.270734,57.250500
97.273045,57.250500
98.326955,57.250500
98.329266,57.250500
98.359699,57.247646
98.487882,57.202793
98.597150,57.122150
98.677793,57.012882
98.722646,56.884699
98.725500,56.854266
98.725500,56.070734
98.722646,56.040301
98.677793,55.912118
98.638065,55.858288
98.618723,55.800240
98.637194,55.741910
98.686424,55.705577
98.717720,55.700500
98.832229,55.700500
98.890420,55.719407
98.892451,55.720923
98.897159,55.724536
99.043238,55.785044
99.200000,55.805682
99.356762,55.785044
99.502841,55.724536
99.628282,55.628282
99.724536,55.502841
99.785044,55.356762
99.805682,55.200000
99.785044,55.043238
99.724536,54.897159
99.702139,54.867970
99.628282,54.771717
99.502841,54.675464
99.356761,54.614955
99.200000,54.594318
99.043238,54.614955
98.897160,54.675463
98.897158,54.675464
98.897159,54.675464
98.892493,54.679043
98.834820,54.699466
98.832229,54.699500
98.649500,54.699500
98.591309,54.680593
98.555345,54.631093
98.550500,54.600500
98.550500,54.521743
98.550500,54.521740
98.540573,54.453607
98.489198,54.348517
98.406483,54.265802
98.301393,54.214427
98.233260,54.204500
96.516740,54.204500
96.465640,54.211945
96.448606,54.214427
96.343515,54.265802
96.324502,54.284816
96.269985,54.312592
96.209554,54.303020
96.166290,54.259755
96.155500,54.214811
96.155500,53.925188
96.174407,53.866997
96.223907,53.831033
96.285093,53.831033
96.324501,53.855182
96.343517,53.874198
96.448607,53.925573
96.516740,53.935500
96.516743,53.935500
98.233257,53.935500
98.233260,53.935500
98.301393,53.925573
98.406483,53.874198
98.476186,53.804494
98.530701,53.776719
98.546188,53.775500
99.000500,53.775500
99.058691,53.794407
99.094655,53.843907
99.099500,53.874500
99.099500,53.969746
99.111133,54.028231
99.155447,54.094552
99.199761,54.124162
99.221769,54.138867
99.280252,54.150500
99.280253,54.150500
100.319747,54.150500
100.319748,54.150500
100.378231,54.138867
100.444552,54.094552
100.488867,54.028231
100.500500,53.969748
100.500500,52.930252
100.488867,52.871769
100.474162,52.849761
100.444552,52.805447
100.378231,52.761133
100.378230,52.761132
100.319748,52.749500
99.280252,52.749500
99.251010,52.755316
99.221768,52.761133
99.155447,52.805447
99.111133,52.871768
99.099500,52.930253
99.099500,53.025500
99.080593,53.083691
99.031093,53.119655
99.000500,53.124500
98.573476,53.124500
98.515285,53.105593
98.501682,53.089395
98.500879,53.090199
98.489198,53.078518
98.489198,53.078517
98.406483,52.995802
98.301393,52.944427
98.233260,52.934500
96.516740,52.934500
96.465640,52.941945
96.448606,52.944427
96.343518,52.995801
96.343517,52.995801
96.343517,52.995802
96.324501,53.014817
96.269987,53.042593
96.209555,53.033022
96.166290,52.989757
96.155500,52.944812
96.155500,52.655188
96.174407,52.596997
96.223907,52.561033
96.285093,52.561033
96.324501,52.585182
96.343517,52.604198
96.448607,52.655573
96.516740,52.665500
96.516743,52.665500
98.233257,52.665500
98.233260,52.665500
98.301393,52.655573
98.406483,52.604198
98.489198,52.521483
98.540573,52.416393
98.550500,52.348260
98.550500,51.981740
98.540573,51.913607
98.509478,51.850001
99.099999,51.850001
99.100000,52.269697
99.111604,52.328036
99.155807,52.394192
99.221963,52.438395
99.280303,52.450000
99.699999,52.450000
99.700000,52.449999
99.700000,51.850001
99.699999,51.850000
99.900000,51.850000
99.900000,52.449999
99.900001,52.450000
100.319697,52.450000
100.378036,52.438395
100.444192,52.394192
100.488395,52.328036
100.500000,52.269697
100.500000,51.850001
100.499999,51.850000
99.900000,51.850000
99.699999,51.850000
99.100001,51.850000
99.099999,51.850001
98.509478,51.850001
98.489198,51.808517
98.406483,51.725802
98.301393,51.674427
98.233260,51.664500
96.516740,51.664500
96.465640,51.671945
96.448606,51.674427
96.343518,51.725801
96.343517,51.725802
96.260802,51.808517
96.255685,51.818982
96.213143,51.862955
96.166746,51.874500
95.824500,51.874500
95.766309,51.855593
95.730345,51.806093
95.725500,51.775500
95.725500,51.675832
95.733894,51.649998
99.099999,51.649998
99.100001,51.650000
99.699999,51.650000
99.700000,51.649999
99.900000,51.649999
99.900001,51.650000
100.499999,51.650000
100.500000,51.649999
100.500000,51.230302
100.488395,51.171963
100.444192,51.105807
100.378036,51.061604
100.319697,51.050000
99.900001,51.050000
99.900000,51.050001
99.900000,51.649999
99.700000,51.649999
99.700000,51.649998
99.700000,51.050001
99.699999,51.050000
99.280303,51.050000
99.221963,51.061604
99.155807,51.105807
99.111604,51.171963
99.100000,51.230302
99.099999,51.649998
95.733894,51.649998
95.744407,51.617641
95.754497,51.605828
96.105830,51.254496
96.160346,51.226719
96.175833,51.225500
96.193812,51.225500
96.252003,51.244407
96.263809,51.254490
96.343517,51.334198
96.448607,51.385573
96.516740,51.395500
96.516743,51.395500
98.233257,51.395500
98.233260,51.395500
98.301393,51.385573
98.406483,51.334198
98.489198,51.251483
98.540573,51.146393
98.550500,51.078260
98.550500,50.711740
98.540573,50.643607
98.489198,50.538517
98.406483,50.455802
98.301393,50.404427
98.233260,50.394500
96.516740,50.394500
96.465640,50.401945
96.448606,50.404427
96.343518,50.455801
96.343517,50.455801
96.343517,50.455802
96.260802,50.538517
96.260801,50.538518
96.253816,50.545504
96.199299,50.573281
96.183812,50.574500
96.018526,50.574500
96.009898,50.574123
96.007971,50.573954
95.971193,50.570736
95.933656,50.580794
95.925227,50.582663
95.886954,50.589412
95.885645,50.590168
95.861780,50.600053
95.860318,50.600444
95.828484,50.622734
95.821204,50.627371
95.787544,50.646805
95.762569,50.676569
95.756736,50.682936
95.182940,51.256732
95.176574,51.262565
95.146804,51.287545
95.127371,51.321204
95.122734,51.328484
95.100444,51.360318
95.100053,51.361780
95.090168,51.385645
95.089410,51.386956
95.082662,51.425223
95.080794,51.433649
95.070735,51.471191
95.074123,51.509903
95.074500,51.518533
95.074500,59.549577
95.074123,59.558207
95.070735,59.596918
92.032142,59.596918
92.033656,59.499999
92.600000,59.499999
92.600001,59.500000
93.362499,59.500000
93.362500,59.499998
93.362500,58.500001
93.362499,58.500000
93.562500,58.500000
93.562500,59.499998
93.562501,59.500000
94.324998,59.500000
94.324999,59.499999
94.324999,58.898112
94.324783,58.893495
94.322148,58.865395
94.277345,58.737354
94.196791,58.628208
94.087645,58.547654
93.959601,58.502850
93.931515,58.500216
93.926892,58.500000
93.562500,58.500000
93.362499,58.500000
92.998112,58.500000
92.993495,58.500216
92.965395,58.502851
92.837354,58.547654
92.728208,58.628208
92.647654,58.737354
92.602850,58.865398
92.600216,58.893484
92.600000,58.898108
92.600000,59.499999
92.033656,59.499999
92.053501,58.229929
92.048109,58.173576
92.036918,58.120128
92.029266,58.091802
91.979935,58.005172
91.934180,57.952368
91.901406,57.920743
91.813071,57.874535
91.813068,57.874534
91.746031,57.854849
91.674050,57.844500
91.674047,57.844500
88.974000,57.844500
88.971383,57.844781
88.971370,57.844782
88.922314,57.850056
88.922303,57.850057
88.919687,57.850339
88.917117,57.850898
88.917099,57.850901
88.869477,57.861261
88.869442,57.861269
88.868176,57.861545
88.866930,57.861886
88.866909,57.861892
88.847404,57.867243
88.841802,57.868781
88.841801,57.868781
88.841799,57.868782
88.755172,57.918111
88.704043,57.962415
88.704035,57.962422
88.702368,57.963867
88.700840,57.965449
88.700831,57.965459
88.670743,57.996640
88.624534,58.084978
88.604849,58.152015
88.594500,58.223997
88.594500,58.224000
88.594500,59.219500
88.594500,59.980500
88.594500,63.476000
85.013351,63.476000
85.160267,63.263155
85.406109,62.837345
85.616890,62.393133
85.791244,61.933401
85.928039,61.461130
86.026388,60.979383
86.085654,60.491285
86.105452,60.000000
86.085654,59.508715
86.026388,59.020617
85.928039,58.538870
85.791244,58.066599
85.616890,57.606867
85.425154,57.202791
85.406959,57.164446
85.406957,57.164442
85.406109,57.162655
85.382723,57.122150
85.161267,56.738577
85.161266,56.738576
85.160267,56.736845
84.880959,56.332197
84.799789,56.232782
84.571261,55.952885
84.571257,55.952880
84.569996,55.951336
84.229395,55.596733
84.061874,55.448322
83.862851,55.272003
83.862844,55.271997
83.861365,55.270687
83.859783,55.269498
83.859773,55.269490
83.469894,54.976515
83.469880,54.976505
83.468292,54.975312
83.438374,54.956393
83.330631,54.888260
91.249500,54.888260
91.259427,54.956393
91.310802,55.061483
91.393517,55.144198
91.498607,55.195573
91.566740,55.205500
91.723845,55.205500
91.782036,55.224407
91.818000,55.273907
91.818000,55.335093
91.815309,55.342386
91.814955,55.343238
91.794318,55.500000
91.814955,55.656761
91.875464,55.802841
91.971717,55.928282
92.003781,55.952885
92.097159,56.024536
92.243238,56.085044
92.400000,56.105682
92.556762,56.085044
92.702841,56.024536
92.828282,55.928282
92.924536,55.802841
92.985044,55.656762
93.005682,55.500000
92.985044,55.343238
92.984690,55.342385
92.984332,55.337833
92.983343,55.330316
92.983736,55.330264
92.979890,55.281390
93.011859,55.229220
93.068387,55.205805
93.076155,55.205500
93.283257,55.205500
93.283260,55.205500
93.351393,55.195573
93.456483,55.144198
93.539198,55.061483
93.590573,54.956393
93.600500,54.888260
93.600500,54.521740
93.590573,54.453607
93.539198,54.348517
93.456483,54.265802
93.351393,54.214427
93.283260,54.204500
91.566740,54.204500
91.515640,54.211945
91.498606,54.214427
91.393518,54.265801
91.310801,54.348518
91.259427,54.453606
91.259427,54.453607
91.249500,54.521740
91.249500,54.888260
83.330631,54.888260
83.054412,54.713589
83.054408,54.713587
83.052726,54.712523
83.050961,54.711597
83.050953,54.711592
82.619142,54.484961
82.619137,54.484958
82.617362,54.484027
82.615525,54.483244
82.615518,54.483241
82.166862,54.292086
82.166850,54.292081
82.165023,54.291303
82.163138,54.290673
82.163123,54.290668
81.700544,54.136237
81.700529,54.136232
81.698643,54.135603
81.696708,54.135126
81.696694,54.135122
81.223179,54.018411
81.223174,54.018410
81.221247,54.017935
81.219298,54.017618
81.219287,54.017616
80.737890,53.939382
80.737881,53.939380
80.735931,53.939064
80.733954,53.938904
80.733951,53.938904
80.247835,53.899660
80.247813,53.899659
80.245842,53.899500
79.754158,53.899500
79.752187,53.899659
79.752164,53.899660
79.266048,53.938904
79.266042,53.938904
79.264069,53.939064
79.262121,53.939380
79.262109,53.939382
78.780712,54.017616
78.780696,54.017619
78.778753,54.017935
78.776830,54.018408
78.776820,54.018411
78.303305,54.135122
78.303285,54.135127
78.301357,54.135603
78.299477,54.136230
78.299455,54.136237
77.836876,54.290668
77.836853,54.290676
77.834977,54.291303
77.833157,54.292078
77.833137,54.292086
77.384481,54.483241
77.384465,54.483248
77.382638,54.484027
77.380871,54.484954
77.380857,54.484961
76.949046,54.711592
76.949027,54.711602
76.947274,54.712523
76.945601,54.713580
76.945587,54.713589
76.533399,54.974242
76.533387,54.974250
76.531708,54.975312
76.530130,54.976497
76.530105,54.976515
76.140226,55.269490
76.140203,55.269508
76.138635,55.270687
76.137167,55.271986
76.137148,55.272003
75.772096,55.595411
75.772081,55.595425
75.770605,55.596733
75.769233,55.598160
75.769224,55.598170
75.431388,55.949894
75.431375,55.949908
75.430004,55.951336
75.428754,55.952866
75.428738,55.952885
75.120304,56.330649
75.120293,56.330662
75.119041,56.332197
75.117914,56.333829
75.117901,56.333847
74.840870,56.735197
74.840864,56.735206
74.839733,56.736845
74.838743,56.738558
74.838732,56.738577
74.594888,57.160926
74.594875,57.160949
74.593891,57.162655
74.593052,57.164423
74.593040,57.164446
74.383962,57.605070
74.383955,57.605084
74.383110,57.606867
74.382409,57.608714
74.382404,57.608727
74.209459,58.064744
74.209455,58.064755
74.208756,58.066599
74.208205,58.068499
74.208202,58.068510
74.072518,58.536944
74.072513,58.536964
74.071961,58.538870
74.071562,58.540820
74.071559,58.540836
73.974014,59.018646
73.973612,59.020617
73.973372,59.022589
73.973369,59.022611
73.936999,59.322148
73.914346,59.508715
73.914265,59.510705
73.914265,59.510715
73.904898,59.743166
73.894548,60.000000
66.000500,60.000000
66.000500,53.400000
90.194318,53.400000
90.214955,53.556761
90.275464,53.702841
90.371717,53.828282
90.464531,53.899500
90.497159,53.924536
90.643238,53.985044
90.800000,54.005682
90.956762,53.985044
91.102841,53.924536
91.193223,53.855184
91.226917,53.829330
91.284593,53.808906
91.343259,53.826284
91.357182,53.837863
91.393517,53.874198
91.498607,53.925573
91.566740,53.935500
91.566743,53.935500
93.283257,53.935500
93.283260,53.935500
93.351393,53.925573
93.456483,53.874198
93.539198,53.791483
93.590573,53.686393
93.600500,53.618260
93.600500,53.251740
93.590573,53.183607
93.539198,53.078517
93.456483,52.995802
93.351393,52.944427
93.283260,52.934500
91.566740,52.934500
91.515640,52.941945
91.498606,52.944427
91.393514,52.995803
91.390300,52.999018
91.335783,53.026794
91.275351,53.017220
91.241757,52.989279
91.228282,52.971718
91.193217,52.944812
91.106851,52.878541
91.072196,52.828118
91.073797,52.766953
91.106852,52.721458
91.179778,52.665500
91.228282,52.628282
91.241757,52.610719
91.292179,52.576064
91.353344,52.577665
91.390300,52.600981
91.393517,52.604198
91.498607,52.655573
91.566740,52.665500
91.566743,52.665500
93.283257,52.665500
93.283260,52.665500
93.351393,52.655573
93.456483,52.604198
93.539198,52.521483
93.590573,52.416393
93.600500,52.348260
93.600500,51.981740
93.590573,51.913607
93.539198,51.808517
93.456483,51.725802
93.351393,51.674427
93.283260,51.664500
91.566740,51.664500
91.515640,51.671945
91.498606,51.674427
91.393516,51.725802
91.357187,51.762131
91.302670,51.789908
91.242238,51.780336
91.226917,51.770670
91.161225,51.720263
91.102841,51.675464
91.102839,51.675463
90.956761,51.614955
90.800000,51.594318
90.643238,51.614955
90.497158,51.675464
90.371717,51.771717
90.275464,51.897158
90.214955,52.043238
90.194318,52.200000
90.214955,52.356761
90.275464,52.502841
90.371717,52.628282
90.493147,52.721458
90.527803,52.771882
90.526202,52.833047
90.493147,52.878542
90.371717,52.971717
90.275464,53.097158
90.214955,53.243238
90.194318,53.400000
66.000500,53.400000
66.000500,50.995000
91.250001,50.995000
91.250001,51.078216
91.259911,51.146247
91.311214,51.251188
91.393812,51.333786
91.498750,51.385087
91.566784,51.394999
92.324997,51.394999
92.324998,51.394998
92.524999,51.394998
92.525000,51.394999
93.283217,51.394999
93.351247,51.385088
93.456188,51.333785
93.538786,51.251187
93.590087,51.146249
93.600000,51.078215
93.600000,50.995001
93.599999,50.995000
92.525001,50.995000
92.524999,50.995001
92.524999,51.394998
92.324998,51.394998
92.324999,51.394997
92.324999,50.995000
91.250001,50.995000
66.000500,50.995000
66.000500,50.794999
91.250000,50.794999
91.250001,50.795000
92.324999,50.795000
92.324999,50.395001
92.324998,50.395000
92.524999,50.395000
92.524999,50.794998
92.525001,50.795000
93.599998,50.795000
93.599999,50.794999
93.599999,50.711783
93.590088,50.643752
93.538785,50.538811
93.456187,50.456213
93.351249,50.404912
93.283216,50.395000
92.524999,50.395000
92.324998,50.395000
91.566782,50.395000
91.498752,50.404911
91.393811,50.456214
91.311213,50.538812
91.259912,50.643750
91.250000,50.711784
91.250000,50.794999
66.000500,50.794999
66.000500,47.004318
66.000877,46.995689
66.004476,46.954553
66.017120,46.826175
66.020009,46.810301
66.038007,46.743128
66.038836,46.740224
66.067199,46.646725
66.072207,46.633639
66.103966,46.565532
66.106368,46.560726
66.149720,46.479619
66.155919,46.469528
66.200188,46.406306
66.204742,46.400305
66.261956,46.330589
66.268449,46.323423
66.323423,46.268449
66.330589,46.261956
66.400311,46.204737
66.406305,46.200188
66.469528,46.155919
66.479619,46.149720
66.560726,46.106368
66.565523,46.103970
66.633641,46.072205
66.646725,46.067199
66.740225,46.038836
66.743112,46.038011
66.810307,46.020007
66.826179,46.017120
66.954542,46.004477
66.995707,46.000875
67.004312,46.000500
100.995680,46.000500
Z" /> 
</g>
</g>
</g> 
</svg>
