<?xml version="1.0" standalone="no"?>
 <!DOCTYPE svg PUBLIC "-//W3C//DTD SVG 1.1//EN" 
 "http://www.w3.org/Graphics/SVG/1.1/DTD/svg11.dtd"> 
<svg
  xmlns:svg="http://www.w3.org/2000/svg"
  xmlns="http://www.w3.org/2000/svg"
  xmlns:xlink="http://www.w3.org/1999/xlink"
  version="1.1"
  width="3.8100000000000005cm" height="3.0100000000000002cm" viewBox="64.95 44.95 38.1 30.1">
<title>SVG Image created as pedalboard-led-ring-B_Paste.svg date 2023/05/26 17:21:24 </title>
  <desc>Image generated by PCBNEW </desc>
<g style="fill:#000000; fill-opacity:1.000000;stroke:#000000; stroke-opacity:1.000000;
stroke-linecap:round; stroke-linejoin:round;"
 transform="translate(0 0) scale(1 1)">
</g>
<g style="fill:#000000; fill-opacity:0.0; 
stroke:#000000; stroke-width:0.000000; stroke-opacity:1; 
stroke-linecap:round; stroke-linejoin:round;">
</g>
<g style="fill:#000000; fill-opacity:1.000000; 
stroke:#000000; stroke-width:0.010000; stroke-opacity:1; 
stroke-linecap:round; stroke-linejoin:round;">
<path style="fill:#000000; fill-opacity:1.000000; 
stroke:#000000; stroke-width:0.010000; stroke-opacity:1; 
stroke-linecap:round; stroke-linejoin:round;fill-rule:evenodd;"
d="M 87.250000,68.100000
86.250000,68.100000
86.250000,67.600000
85.150000,67.600000
85.150000,66.600000
86.250000,66.600000
86.250000,66.100000
87.250000,66.100000
Z" /> 
<path style="fill:#000000; fill-opacity:1.000000; 
stroke:#000000; stroke-width:0.010000; stroke-opacity:1; 
stroke-linecap:round; stroke-linejoin:round;fill-rule:evenodd;"
d="M 89.550000,66.600000
90.650000,66.600000
90.650000,67.600000
89.550000,67.600000
89.550000,68.100000
88.550000,68.100000
88.550000,66.100000
89.550000,66.100000
Z" /> 
<g >
</g>
<g >
</g>
<g >
</g>
<g >
</g>
<g >
</g>
<g >
</g>
<g >
</g>
<g style="fill:#000000; fill-opacity:1.000000; 
stroke:#000000; stroke-width:0.010000; stroke-opacity:1; 
stroke-linecap:round; stroke-linejoin:round;">
</g>
<g style="fill:#000000; fill-opacity:1.000000; 
stroke:#000000; stroke-width:0.000000; stroke-opacity:1; 
stroke-linecap:round; stroke-linejoin:round;">
<path style="fill:#000000; fill-opacity:1.000000; 
stroke:#000000; stroke-width:0.000000; stroke-opacity:1; 
stroke-linecap:round; stroke-linejoin:round;fill-rule:evenodd;"
d="M 91.450000,54.555000
91.461418,54.497597
91.493934,54.448934
91.542597,54.416418
91.600000,54.405000
93.250000,54.405000
93.307403,54.416418
93.356066,54.448934
93.388582,54.497597
93.400000,54.555000
93.400000,54.855000
93.388582,54.912403
93.356066,54.961066
93.307403,54.993582
93.250000,55.005000
91.600000,55.005000
91.542597,54.993582
91.493934,54.961066
91.461418,54.912403
91.450000,54.855000
Z" /> 
<path style="fill:#000000; fill-opacity:1.000000; 
stroke:#000000; stroke-width:0.000000; stroke-opacity:1; 
stroke-linecap:round; stroke-linejoin:round;fill-rule:evenodd;"
d="M 91.450000,53.285000
91.461418,53.227597
91.493934,53.178934
91.542597,53.146418
91.600000,53.135000
93.250000,53.135000
93.307403,53.146418
93.356066,53.178934
93.388582,53.227597
93.400000,53.285000
93.400000,53.585000
93.388582,53.642403
93.356066,53.691066
93.307403,53.723582
93.250000,53.735000
91.600000,53.735000
91.542597,53.723582
91.493934,53.691066
91.461418,53.642403
91.450000,53.585000
Z" /> 
<path style="fill:#000000; fill-opacity:1.000000; 
stroke:#000000; stroke-width:0.000000; stroke-opacity:1; 
stroke-linecap:round; stroke-linejoin:round;fill-rule:evenodd;"
d="M 91.450000,52.015000
91.461418,51.957597
91.493934,51.908934
91.542597,51.876418
91.600000,51.865000
93.250000,51.865000
93.307403,51.876418
93.356066,51.908934
93.388582,51.957597
93.400000,52.015000
93.400000,52.315000
93.388582,52.372403
93.356066,52.421066
93.307403,52.453582
93.250000,52.465000
91.600000,52.465000
91.542597,52.453582
91.493934,52.421066
91.461418,52.372403
91.450000,52.315000
Z" /> 
<path style="fill:#000000; fill-opacity:1.000000; 
stroke:#000000; stroke-width:0.000000; stroke-opacity:1; 
stroke-linecap:round; stroke-linejoin:round;fill-rule:evenodd;"
d="M 91.450000,50.745000
91.461418,50.687597
91.493934,50.638934
91.542597,50.606418
91.600000,50.595000
93.250000,50.595000
93.307403,50.606418
93.356066,50.638934
93.388582,50.687597
93.400000,50.745000
93.400000,51.045000
93.388582,51.102403
93.356066,51.151066
93.307403,51.183582
93.250000,51.195000
91.600000,51.195000
91.542597,51.183582
91.493934,51.151066
91.461418,51.102403
91.450000,51.045000
Z" /> 
<path style="fill:#000000; fill-opacity:1.000000; 
stroke:#000000; stroke-width:0.000000; stroke-opacity:1; 
stroke-linecap:round; stroke-linejoin:round;fill-rule:evenodd;"
d="M 96.400000,50.745000
96.411418,50.687597
96.443934,50.638934
96.492597,50.606418
96.550000,50.595000
98.200000,50.595000
98.257403,50.606418
98.306066,50.638934
98.338582,50.687597
98.350000,50.745000
98.350000,51.045000
98.338582,51.102403
98.306066,51.151066
98.257403,51.183582
98.200000,51.195000
96.550000,51.195000
96.492597,51.183582
96.443934,51.151066
96.411418,51.102403
96.400000,51.045000
Z" /> 
<path style="fill:#000000; fill-opacity:1.000000; 
stroke:#000000; stroke-width:0.000000; stroke-opacity:1; 
stroke-linecap:round; stroke-linejoin:round;fill-rule:evenodd;"
d="M 96.400000,52.015000
96.411418,51.957597
96.443934,51.908934
96.492597,51.876418
96.550000,51.865000
98.200000,51.865000
98.257403,51.876418
98.306066,51.908934
98.338582,51.957597
98.350000,52.015000
98.350000,52.315000
98.338582,52.372403
98.306066,52.421066
98.257403,52.453582
98.200000,52.465000
96.550000,52.465000
96.492597,52.453582
96.443934,52.421066
96.411418,52.372403
96.400000,52.315000
Z" /> 
<path style="fill:#000000; fill-opacity:1.000000; 
stroke:#000000; stroke-width:0.000000; stroke-opacity:1; 
stroke-linecap:round; stroke-linejoin:round;fill-rule:evenodd;"
d="M 96.400000,53.285000
96.411418,53.227597
96.443934,53.178934
96.492597,53.146418
96.550000,53.135000
98.200000,53.135000
98.257403,53.146418
98.306066,53.178934
98.338582,53.227597
98.350000,53.285000
98.350000,53.585000
98.338582,53.642403
98.306066,53.691066
98.257403,53.723582
98.200000,53.735000
96.550000,53.735000
96.492597,53.723582
96.443934,53.691066
96.411418,53.642403
96.400000,53.585000
Z" /> 
<path style="fill:#000000; fill-opacity:1.000000; 
stroke:#000000; stroke-width:0.000000; stroke-opacity:1; 
stroke-linecap:round; stroke-linejoin:round;fill-rule:evenodd;"
d="M 96.400000,54.555000
96.411418,54.497597
96.443934,54.448934
96.492597,54.416418
96.550000,54.405000
98.200000,54.405000
98.257403,54.416418
98.306066,54.448934
98.338582,54.497597
98.350000,54.555000
98.350000,54.855000
98.338582,54.912403
98.306066,54.961066
98.257403,54.993582
98.200000,55.005000
96.550000,55.005000
96.492597,54.993582
96.443934,54.961066
96.411418,54.912403
96.400000,54.855000
Z" /> 
</g>
<g >
</g>
<g >
</g>
<g style="fill:#000000; fill-opacity:1.000000; 
stroke:#000000; stroke-width:0.000000; stroke-opacity:1; 
stroke-linecap:round; stroke-linejoin:round;">
<path style="fill:#000000; fill-opacity:1.000000; 
stroke:#000000; stroke-width:0.000000; stroke-opacity:1; 
stroke-linecap:round; stroke-linejoin:round;fill-rule:evenodd;"
d="M 89.675000,58.950000
89.694030,58.854329
89.748223,58.773223
89.829329,58.719030
89.925000,58.700000
90.750000,58.700000
90.845671,58.719030
90.926777,58.773223
90.980970,58.854329
91.000000,58.950000
91.000000,60.250000
90.980970,60.345671
90.926777,60.426777
90.845671,60.480970
90.750000,60.500000
89.925000,60.500000
89.829329,60.480970
89.748223,60.426777
89.694030,60.345671
89.675000,60.250000
Z" /> 
<path style="fill:#000000; fill-opacity:1.000000; 
stroke:#000000; stroke-width:0.000000; stroke-opacity:1; 
stroke-linecap:round; stroke-linejoin:round;fill-rule:evenodd;"
d="M 92.800000,58.950000
92.819030,58.854329
92.873223,58.773223
92.954329,58.719030
93.050000,58.700000
93.875000,58.700000
93.970671,58.719030
94.051777,58.773223
94.105970,58.854329
94.125000,58.950000
94.125000,60.250000
94.105970,60.345671
94.051777,60.426777
93.970671,60.480970
93.875000,60.500000
93.050000,60.500000
92.954329,60.480970
92.873223,60.426777
92.819030,60.345671
92.800000,60.250000
Z" /> 
</g>
<g >
</g>
<g style="fill:#000000; fill-opacity:1.000000; 
stroke:#000000; stroke-width:0.000000; stroke-opacity:1; 
stroke-linecap:round; stroke-linejoin:round;">
<path style="fill:#000000; fill-opacity:1.000000; 
stroke:#000000; stroke-width:0.000000; stroke-opacity:1; 
stroke-linecap:round; stroke-linejoin:round;fill-rule:evenodd;"
d="M 93.460000,69.020000
94.460000,69.020000
94.460000,72.020000
93.460000,72.020000
Z" /> 
<path style="fill:#000000; fill-opacity:1.000000; 
stroke:#000000; stroke-width:0.000000; stroke-opacity:1; 
stroke-linecap:round; stroke-linejoin:round;fill-rule:evenodd;"
d="M 93.460000,63.980000
94.460000,63.980000
94.460000,66.980000
93.460000,66.980000
Z" /> 
<path style="fill:#000000; fill-opacity:1.000000; 
stroke:#000000; stroke-width:0.000000; stroke-opacity:1; 
stroke-linecap:round; stroke-linejoin:round;fill-rule:evenodd;"
d="M 96.000000,69.020000
97.000000,69.020000
97.000000,72.020000
96.000000,72.020000
Z" /> 
<path style="fill:#000000; fill-opacity:1.000000; 
stroke:#000000; stroke-width:0.000000; stroke-opacity:1; 
stroke-linecap:round; stroke-linejoin:round;fill-rule:evenodd;"
d="M 96.000000,63.980000
97.000000,63.980000
97.000000,66.980000
96.000000,66.980000
Z" /> 
<path style="fill:#000000; fill-opacity:1.000000; 
stroke:#000000; stroke-width:0.000000; stroke-opacity:1; 
stroke-linecap:round; stroke-linejoin:round;fill-rule:evenodd;"
d="M 98.540000,69.020000
99.540000,69.020000
99.540000,72.020000
98.540000,72.020000
Z" /> 
<path style="fill:#000000; fill-opacity:1.000000; 
stroke:#000000; stroke-width:0.000000; stroke-opacity:1; 
stroke-linecap:round; stroke-linejoin:round;fill-rule:evenodd;"
d="M 98.540000,63.980000
99.540000,63.980000
99.540000,66.980000
98.540000,66.980000
Z" /> 
</g>
<g >
</g>
<g style="fill:#000000; fill-opacity:1.000000; 
stroke:#000000; stroke-width:0.000000; stroke-opacity:1; 
stroke-linecap:round; stroke-linejoin:round;">
<path style="fill:#000000; fill-opacity:1.000000; 
stroke:#000000; stroke-width:0.000000; stroke-opacity:1; 
stroke-linecap:round; stroke-linejoin:round;fill-rule:evenodd;"
d="M 83.500000,70.650000
84.500000,70.650000
84.500000,71.650000
83.500000,71.650000
Z" /> 
<path style="fill:#000000; fill-opacity:1.000000; 
stroke:#000000; stroke-width:0.000000; stroke-opacity:1; 
stroke-linecap:round; stroke-linejoin:round;fill-rule:evenodd;"
d="M 83.500000,72.350000
84.500000,72.350000
84.500000,73.350000
83.500000,73.350000
Z" /> 
</g>
<g >
</g>
<g style="fill:#000000; fill-opacity:1.000000; 
stroke:#000000; stroke-width:0.000000; stroke-opacity:1; 
stroke-linecap:round; stroke-linejoin:round;">
<path style="fill:#000000; fill-opacity:1.000000; 
stroke:#000000; stroke-width:0.000000; stroke-opacity:1; 
stroke-linecap:round; stroke-linejoin:round;fill-rule:evenodd;"
d="M 100.300000,53.950000
99.300000,53.950000
99.300000,52.950000
100.300000,52.950000
Z" /> 
<path style="fill:#000000; fill-opacity:1.000000; 
stroke:#000000; stroke-width:0.000000; stroke-opacity:1; 
stroke-linecap:round; stroke-linejoin:round;fill-rule:evenodd;"
d="M 100.300000,52.250000
99.300000,52.250000
99.300000,51.250000
100.300000,51.250000
Z" /> 
</g>
<g >
</g>
<g style="fill:#000000; fill-opacity:1.000000; 
stroke:#000000; stroke-width:0.000000; stroke-opacity:1; 
stroke-linecap:round; stroke-linejoin:round;">
<path style="fill:#000000; fill-opacity:1.000000; 
stroke:#000000; stroke-width:0.000000; stroke-opacity:1; 
stroke-linecap:round; stroke-linejoin:round;fill-rule:evenodd;"
d="M 86.650000,72.439000
86.650000,73.029000
86.150000,73.029000
86.150000,72.439000
Z" /> 
<path style="fill:#000000; fill-opacity:1.000000; 
stroke:#000000; stroke-width:0.000000; stroke-opacity:1; 
stroke-linecap:round; stroke-linejoin:round;fill-rule:evenodd;"
d="M 86.650000,71.705000
86.650000,72.295000
86.150000,72.295000
86.150000,71.705000
Z" /> 
<path style="fill:#000000; fill-opacity:1.000000; 
stroke:#000000; stroke-width:0.000000; stroke-opacity:1; 
stroke-linecap:round; stroke-linejoin:round;fill-rule:evenodd;"
d="M 86.650000,70.971000
86.650000,71.561000
86.150000,71.561000
86.150000,70.971000
Z" /> 
<path style="fill:#000000; fill-opacity:1.000000; 
stroke:#000000; stroke-width:0.000000; stroke-opacity:1; 
stroke-linecap:round; stroke-linejoin:round;fill-rule:evenodd;"
d="M 87.675000,71.125000
87.675000,71.375000
86.975000,71.375000
86.975000,71.125000
Z" /> 
<path style="fill:#000000; fill-opacity:1.000000; 
stroke:#000000; stroke-width:0.000000; stroke-opacity:1; 
stroke-linecap:round; stroke-linejoin:round;fill-rule:evenodd;"
d="M 87.675000,71.625000
87.675000,71.875000
86.975000,71.875000
86.975000,71.625000
Z" /> 
<path style="fill:#000000; fill-opacity:1.000000; 
stroke:#000000; stroke-width:0.000000; stroke-opacity:1; 
stroke-linecap:round; stroke-linejoin:round;fill-rule:evenodd;"
d="M 87.675000,72.125000
87.675000,72.375000
86.975000,72.375000
86.975000,72.125000
Z" /> 
<path style="fill:#000000; fill-opacity:1.000000; 
stroke:#000000; stroke-width:0.000000; stroke-opacity:1; 
stroke-linecap:round; stroke-linejoin:round;fill-rule:evenodd;"
d="M 87.675000,72.625000
87.675000,72.875000
86.975000,72.875000
86.975000,72.625000
Z" /> 
<path style="fill:#000000; fill-opacity:1.000000; 
stroke:#000000; stroke-width:0.000000; stroke-opacity:1; 
stroke-linecap:round; stroke-linejoin:round;fill-rule:evenodd;"
d="M 85.825000,72.625000
85.825000,72.875000
85.125000,72.875000
85.125000,72.625000
Z" /> 
<path style="fill:#000000; fill-opacity:1.000000; 
stroke:#000000; stroke-width:0.000000; stroke-opacity:1; 
stroke-linecap:round; stroke-linejoin:round;fill-rule:evenodd;"
d="M 85.825000,72.125000
85.825000,72.375000
85.125000,72.375000
85.125000,72.125000
Z" /> 
<path style="fill:#000000; fill-opacity:1.000000; 
stroke:#000000; stroke-width:0.000000; stroke-opacity:1; 
stroke-linecap:round; stroke-linejoin:round;fill-rule:evenodd;"
d="M 85.825000,71.625000
85.825000,71.875000
85.125000,71.875000
85.125000,71.625000
Z" /> 
<path style="fill:#000000; fill-opacity:1.000000; 
stroke:#000000; stroke-width:0.000000; stroke-opacity:1; 
stroke-linecap:round; stroke-linejoin:round;fill-rule:evenodd;"
d="M 85.825000,71.125000
85.825000,71.375000
85.125000,71.375000
85.125000,71.125000
Z" /> 
</g>
<g >
</g>
<g style="fill:#000000; fill-opacity:1.000000; 
stroke:#000000; stroke-width:0.000000; stroke-opacity:1; 
stroke-linecap:round; stroke-linejoin:round;">
<path style="fill:#000000; fill-opacity:1.000000; 
stroke:#000000; stroke-width:0.000000; stroke-opacity:1; 
stroke-linecap:round; stroke-linejoin:round;fill-rule:evenodd;"
d="M 98.275000,55.875000
98.370671,55.894030
98.451777,55.948223
98.505970,56.029329
98.525000,56.125000
98.525000,56.800000
98.505970,56.895671
98.451777,56.976777
98.370671,57.030970
98.275000,57.050000
97.325000,57.050000
97.229329,57.030970
97.148223,56.976777
97.094030,56.895671
97.075000,56.800000
97.075000,56.125000
97.094030,56.029329
97.148223,55.948223
97.229329,55.894030
97.325000,55.875000
Z" /> 
<path style="fill:#000000; fill-opacity:1.000000; 
stroke:#000000; stroke-width:0.000000; stroke-opacity:1; 
stroke-linecap:round; stroke-linejoin:round;fill-rule:evenodd;"
d="M 98.275000,57.950000
98.370671,57.969030
98.451777,58.023223
98.505970,58.104329
98.525000,58.200000
98.525000,58.875000
98.505970,58.970671
98.451777,59.051777
98.370671,59.105970
98.275000,59.125000
97.325000,59.125000
97.229329,59.105970
97.148223,59.051777
97.094030,58.970671
97.075000,58.875000
97.075000,58.200000
97.094030,58.104329
97.148223,58.023223
97.229329,57.969030
97.325000,57.950000
Z" /> 
</g>
<g >
</g>
<g style="fill:#000000; fill-opacity:1.000000; 
stroke:#000000; stroke-width:0.000000; stroke-opacity:1; 
stroke-linecap:round; stroke-linejoin:round;">
<path style="fill:#000000; fill-opacity:1.000000; 
stroke:#000000; stroke-width:0.000000; stroke-opacity:1; 
stroke-linecap:round; stroke-linejoin:round;fill-rule:evenodd;"
d="M 84.525000,69.775000
84.505970,69.870671
84.451777,69.951777
84.370671,70.005970
84.275000,70.025000
83.600000,70.025000
83.504329,70.005970
83.423223,69.951777
83.369030,69.870671
83.350000,69.775000
83.350000,68.825000
83.369030,68.729329
83.423223,68.648223
83.504329,68.594030
83.600000,68.575000
84.275000,68.575000
84.370671,68.594030
84.451777,68.648223
84.505970,68.729329
84.525000,68.825000
Z" /> 
<path style="fill:#000000; fill-opacity:1.000000; 
stroke:#000000; stroke-width:0.000000; stroke-opacity:1; 
stroke-linecap:round; stroke-linejoin:round;fill-rule:evenodd;"
d="M 82.450000,69.775000
82.430970,69.870671
82.376777,69.951777
82.295671,70.005970
82.200000,70.025000
81.525000,70.025000
81.429329,70.005970
81.348223,69.951777
81.294030,69.870671
81.275000,69.775000
81.275000,68.825000
81.294030,68.729329
81.348223,68.648223
81.429329,68.594030
81.525000,68.575000
82.200000,68.575000
82.295671,68.594030
82.376777,68.648223
82.430970,68.729329
82.450000,68.825000
Z" /> 
</g>
<g >
</g>
<g style="fill:#000000; fill-opacity:1.000000; 
stroke:#000000; stroke-width:0.000000; stroke-opacity:1; 
stroke-linecap:round; stroke-linejoin:round;">
<path style="fill:#000000; fill-opacity:1.000000; 
stroke:#000000; stroke-width:0.000000; stroke-opacity:1; 
stroke-linecap:round; stroke-linejoin:round;fill-rule:evenodd;"
d="M 89.350000,73.325000
89.254329,73.305970
89.173223,73.251777
89.119030,73.170671
89.100000,73.075000
89.100000,72.250000
89.119030,72.154329
89.173223,72.073223
89.254329,72.019030
89.350000,72.000000
90.650000,72.000000
90.745671,72.019030
90.826777,72.073223
90.880970,72.154329
90.900000,72.250000
90.900000,73.075000
90.880970,73.170671
90.826777,73.251777
90.745671,73.305970
90.650000,73.325000
Z" /> 
<path style="fill:#000000; fill-opacity:1.000000; 
stroke:#000000; stroke-width:0.000000; stroke-opacity:1; 
stroke-linecap:round; stroke-linejoin:round;fill-rule:evenodd;"
d="M 89.350000,70.200000
89.254329,70.180970
89.173223,70.126777
89.119030,70.045671
89.100000,69.950000
89.100000,69.125000
89.119030,69.029329
89.173223,68.948223
89.254329,68.894030
89.350000,68.875000
90.650000,68.875000
90.745671,68.894030
90.826777,68.948223
90.880970,69.029329
90.900000,69.125000
90.900000,69.950000
90.880970,70.045671
90.826777,70.126777
90.745671,70.180970
90.650000,70.200000
Z" /> 
</g>
<g >
</g>
<g >
</g>
<g >
</g>
</g> 
</svg>
