<?xml version="1.0" standalone="no"?>
 <!DOCTYPE svg PUBLIC "-//W3C//DTD SVG 1.1//EN" 
 "http://www.w3.org/Graphics/SVG/1.1/DTD/svg11.dtd"> 
<svg
  xmlns:svg="http://www.w3.org/2000/svg"
  xmlns="http://www.w3.org/2000/svg"
  xmlns:xlink="http://www.w3.org/1999/xlink"
  version="1.1"
  width="3.8100000000000005cm" height="3.0100000000000002cm" viewBox="64.95 44.95 38.1 30.1">
<title>SVG Image created as pedalboard-led-ring-B_Paste.svg date 2023/05/22 19:36:47 </title>
  <desc>Image generated by PCBNEW </desc>
<g style="fill:#000000; fill-opacity:1.000000;stroke:#000000; stroke-opacity:1.000000;
stroke-linecap:round; stroke-linejoin:round;"
 transform="translate(0 0) scale(1 1)">
</g>
<g style="fill:#000000; fill-opacity:0.0; 
stroke:#000000; stroke-width:0.000000; stroke-opacity:1; 
stroke-linecap:round; stroke-linejoin:round;">
<g >
</g>
<g >
</g>
<g >
</g>
<g >
</g>
<g >
</g>
<g >
</g>
<g >
</g>
<g style="fill:#000000; fill-opacity:0.0; 
stroke:#000000; stroke-width:0.000000; stroke-opacity:1; 
stroke-linecap:round; stroke-linejoin:round;">
</g>
<g style="fill:#000000; fill-opacity:0.0; 
stroke:#000000; stroke-width:0.000000; stroke-opacity:1; 
stroke-linecap:round; stroke-linejoin:round;">
</g>
<g style="fill:#000000; fill-opacity:1.000000; 
stroke:#000000; stroke-width:0.000000; stroke-opacity:1; 
stroke-linecap:round; stroke-linejoin:round;">
<path style="fill:#000000; fill-opacity:1.000000; 
stroke:#000000; stroke-width:0.000000; stroke-opacity:1; 
stroke-linecap:round; stroke-linejoin:round;fill-rule:evenodd;"
d="M 91.450000,54.555000
91.461418,54.497597
91.493934,54.448934
91.542597,54.416418
91.600000,54.405000
93.250000,54.405000
93.307403,54.416418
93.356066,54.448934
93.388582,54.497597
93.400000,54.555000
93.400000,54.855000
93.388582,54.912403
93.356066,54.961066
93.307403,54.993582
93.250000,55.005000
91.600000,55.005000
91.542597,54.993582
91.493934,54.961066
91.461418,54.912403
91.450000,54.855000
Z" /> 
<path style="fill:#000000; fill-opacity:1.000000; 
stroke:#000000; stroke-width:0.000000; stroke-opacity:1; 
stroke-linecap:round; stroke-linejoin:round;fill-rule:evenodd;"
d="M 91.450000,53.285000
91.461418,53.227597
91.493934,53.178934
91.542597,53.146418
91.600000,53.135000
93.250000,53.135000
93.307403,53.146418
93.356066,53.178934
93.388582,53.227597
93.400000,53.285000
93.400000,53.585000
93.388582,53.642403
93.356066,53.691066
93.307403,53.723582
93.250000,53.735000
91.600000,53.735000
91.542597,53.723582
91.493934,53.691066
91.461418,53.642403
91.450000,53.585000
Z" /> 
<path style="fill:#000000; fill-opacity:1.000000; 
stroke:#000000; stroke-width:0.000000; stroke-opacity:1; 
stroke-linecap:round; stroke-linejoin:round;fill-rule:evenodd;"
d="M 91.450000,52.015000
91.461418,51.957597
91.493934,51.908934
91.542597,51.876418
91.600000,51.865000
93.250000,51.865000
93.307403,51.876418
93.356066,51.908934
93.388582,51.957597
93.400000,52.015000
93.400000,52.315000
93.388582,52.372403
93.356066,52.421066
93.307403,52.453582
93.250000,52.465000
91.600000,52.465000
91.542597,52.453582
91.493934,52.421066
91.461418,52.372403
91.450000,52.315000
Z" /> 
<path style="fill:#000000; fill-opacity:1.000000; 
stroke:#000000; stroke-width:0.000000; stroke-opacity:1; 
stroke-linecap:round; stroke-linejoin:round;fill-rule:evenodd;"
d="M 91.450000,50.745000
91.461418,50.687597
91.493934,50.638934
91.542597,50.606418
91.600000,50.595000
93.250000,50.595000
93.307403,50.606418
93.356066,50.638934
93.388582,50.687597
93.400000,50.745000
93.400000,51.045000
93.388582,51.102403
93.356066,51.151066
93.307403,51.183582
93.250000,51.195000
91.600000,51.195000
91.542597,51.183582
91.493934,51.151066
91.461418,51.102403
91.450000,51.045000
Z" /> 
<path style="fill:#000000; fill-opacity:1.000000; 
stroke:#000000; stroke-width:0.000000; stroke-opacity:1; 
stroke-linecap:round; stroke-linejoin:round;fill-rule:evenodd;"
d="M 96.400000,50.745000
96.411418,50.687597
96.443934,50.638934
96.492597,50.606418
96.550000,50.595000
98.200000,50.595000
98.257403,50.606418
98.306066,50.638934
98.338582,50.687597
98.350000,50.745000
98.350000,51.045000
98.338582,51.102403
98.306066,51.151066
98.257403,51.183582
98.200000,51.195000
96.550000,51.195000
96.492597,51.183582
96.443934,51.151066
96.411418,51.102403
96.400000,51.045000
Z" /> 
<path style="fill:#000000; fill-opacity:1.000000; 
stroke:#000000; stroke-width:0.000000; stroke-opacity:1; 
stroke-linecap:round; stroke-linejoin:round;fill-rule:evenodd;"
d="M 96.400000,52.015000
96.411418,51.957597
96.443934,51.908934
96.492597,51.876418
96.550000,51.865000
98.200000,51.865000
98.257403,51.876418
98.306066,51.908934
98.338582,51.957597
98.350000,52.015000
98.350000,52.315000
98.338582,52.372403
98.306066,52.421066
98.257403,52.453582
98.200000,52.465000
96.550000,52.465000
96.492597,52.453582
96.443934,52.421066
96.411418,52.372403
96.400000,52.315000
Z" /> 
<path style="fill:#000000; fill-opacity:1.000000; 
stroke:#000000; stroke-width:0.000000; stroke-opacity:1; 
stroke-linecap:round; stroke-linejoin:round;fill-rule:evenodd;"
d="M 96.400000,53.285000
96.411418,53.227597
96.443934,53.178934
96.492597,53.146418
96.550000,53.135000
98.200000,53.135000
98.257403,53.146418
98.306066,53.178934
98.338582,53.227597
98.350000,53.285000
98.350000,53.585000
98.338582,53.642403
98.306066,53.691066
98.257403,53.723582
98.200000,53.735000
96.550000,53.735000
96.492597,53.723582
96.443934,53.691066
96.411418,53.642403
96.400000,53.585000
Z" /> 
<path style="fill:#000000; fill-opacity:1.000000; 
stroke:#000000; stroke-width:0.000000; stroke-opacity:1; 
stroke-linecap:round; stroke-linejoin:round;fill-rule:evenodd;"
d="M 96.400000,54.555000
96.411418,54.497597
96.443934,54.448934
96.492597,54.416418
96.550000,54.405000
98.200000,54.405000
98.257403,54.416418
98.306066,54.448934
98.338582,54.497597
98.350000,54.555000
98.350000,54.855000
98.338582,54.912403
98.306066,54.961066
98.257403,54.993582
98.200000,55.005000
96.550000,55.005000
96.492597,54.993582
96.443934,54.961066
96.411418,54.912403
96.400000,54.855000
Z" /> 
</g>
<g >
</g>
<g style="fill:#000000; fill-opacity:1.000000; 
stroke:#000000; stroke-width:0.000000; stroke-opacity:1; 
stroke-linecap:round; stroke-linejoin:round;">
<path style="fill:#000000; fill-opacity:1.000000; 
stroke:#000000; stroke-width:0.000000; stroke-opacity:1; 
stroke-linecap:round; stroke-linejoin:round;fill-rule:evenodd;"
d="M 92.560000,63.900000
93.560000,63.900000
93.560000,67.050000
92.560000,67.050000
Z" /> 
<path style="fill:#000000; fill-opacity:1.000000; 
stroke:#000000; stroke-width:0.000000; stroke-opacity:1; 
stroke-linecap:round; stroke-linejoin:round;fill-rule:evenodd;"
d="M 92.560000,68.950000
93.560000,68.950000
93.560000,72.100000
92.560000,72.100000
Z" /> 
<path style="fill:#000000; fill-opacity:1.000000; 
stroke:#000000; stroke-width:0.000000; stroke-opacity:1; 
stroke-linecap:round; stroke-linejoin:round;fill-rule:evenodd;"
d="M 95.100000,63.900000
96.100000,63.900000
96.100000,67.050000
95.100000,67.050000
Z" /> 
<path style="fill:#000000; fill-opacity:1.000000; 
stroke:#000000; stroke-width:0.000000; stroke-opacity:1; 
stroke-linecap:round; stroke-linejoin:round;fill-rule:evenodd;"
d="M 95.100000,68.950000
96.100000,68.950000
96.100000,72.100000
95.100000,72.100000
Z" /> 
<path style="fill:#000000; fill-opacity:1.000000; 
stroke:#000000; stroke-width:0.000000; stroke-opacity:1; 
stroke-linecap:round; stroke-linejoin:round;fill-rule:evenodd;"
d="M 97.640000,63.900000
98.640000,63.900000
98.640000,67.050000
97.640000,67.050000
Z" /> 
<path style="fill:#000000; fill-opacity:1.000000; 
stroke:#000000; stroke-width:0.000000; stroke-opacity:1; 
stroke-linecap:round; stroke-linejoin:round;fill-rule:evenodd;"
d="M 97.640000,68.950000
98.640000,68.950000
98.640000,72.100000
97.640000,72.100000
Z" /> 
</g>
<g >
</g>
<g style="fill:#000000; fill-opacity:1.000000; 
stroke:#000000; stroke-width:0.000000; stroke-opacity:1; 
stroke-linecap:round; stroke-linejoin:round;">
<path style="fill:#000000; fill-opacity:1.000000; 
stroke:#000000; stroke-width:0.000000; stroke-opacity:1; 
stroke-linecap:round; stroke-linejoin:round;fill-rule:evenodd;"
d="M 89.950000,58.450000
89.969030,58.354329
90.023223,58.273223
90.104329,58.219030
90.200000,58.200000
92.475000,58.200000
92.570671,58.219030
92.651777,58.273223
92.705970,58.354329
92.725000,58.450000
92.725000,59.550000
92.705970,59.645671
92.651777,59.726777
92.570671,59.780970
92.475000,59.800000
90.200000,59.800000
90.104329,59.780970
90.023223,59.726777
89.969030,59.645671
89.950000,59.550000
Z" /> 
<path style="fill:#000000; fill-opacity:1.000000; 
stroke:#000000; stroke-width:0.000000; stroke-opacity:1; 
stroke-linecap:round; stroke-linejoin:round;fill-rule:evenodd;"
d="M 94.075000,58.450000
94.094030,58.354329
94.148223,58.273223
94.229329,58.219030
94.325000,58.200000
96.600000,58.200000
96.695671,58.219030
96.776777,58.273223
96.830970,58.354329
96.850000,58.450000
96.850000,59.550000
96.830970,59.645671
96.776777,59.726777
96.695671,59.780970
96.600000,59.800000
94.325000,59.800000
94.229329,59.780970
94.148223,59.726777
94.094030,59.645671
94.075000,59.550000
Z" /> 
</g>
<g >
</g>
<g style="fill:#000000; fill-opacity:1.000000; 
stroke:#000000; stroke-width:0.000000; stroke-opacity:1; 
stroke-linecap:round; stroke-linejoin:round;">
<path style="fill:#000000; fill-opacity:1.000000; 
stroke:#000000; stroke-width:0.000000; stroke-opacity:1; 
stroke-linecap:round; stroke-linejoin:round;fill-rule:evenodd;"
d="M 99.900000,53.950000
98.900000,53.950000
98.900000,52.950000
99.900000,52.950000
Z" /> 
<path style="fill:#000000; fill-opacity:1.000000; 
stroke:#000000; stroke-width:0.000000; stroke-opacity:1; 
stroke-linecap:round; stroke-linejoin:round;fill-rule:evenodd;"
d="M 99.900000,52.250000
98.900000,52.250000
98.900000,51.250000
99.900000,51.250000
Z" /> 
</g>
<g >
</g>
<g style="fill:#000000; fill-opacity:1.000000; 
stroke:#000000; stroke-width:0.000000; stroke-opacity:1; 
stroke-linecap:round; stroke-linejoin:round;">
<path style="fill:#000000; fill-opacity:1.000000; 
stroke:#000000; stroke-width:0.000000; stroke-opacity:1; 
stroke-linecap:round; stroke-linejoin:round;fill-rule:evenodd;"
d="M 99.831250,54.355000
99.911135,54.370890
99.978859,54.416141
100.024110,54.483865
100.040000,54.563750
100.040000,54.981250
100.024110,55.061135
99.978859,55.128859
99.911135,55.174110
99.831250,55.190000
98.968750,55.190000
98.888865,55.174110
98.821141,55.128859
98.775890,55.061135
98.760000,54.981250
98.760000,54.563750
98.775890,54.483865
98.821141,54.416141
98.888865,54.370890
98.968750,54.355000
Z" /> 
<path style="fill:#000000; fill-opacity:1.000000; 
stroke:#000000; stroke-width:0.000000; stroke-opacity:1; 
stroke-linecap:round; stroke-linejoin:round;fill-rule:evenodd;"
d="M 99.831250,55.610000
99.911135,55.625890
99.978859,55.671141
100.024110,55.738865
100.040000,55.818750
100.040000,56.236250
100.024110,56.316135
99.978859,56.383859
99.911135,56.429110
99.831250,56.445000
98.968750,56.445000
98.888865,56.429110
98.821141,56.383859
98.775890,56.316135
98.760000,56.236250
98.760000,55.818750
98.775890,55.738865
98.821141,55.671141
98.888865,55.625890
98.968750,55.610000
Z" /> 
</g>
<g >
</g>
<g >
</g>
<g >
</g>
</g> 
</svg>
